<!--
AnimCJK 2016-2025 Copyright FM-SH - https://github.com/parsimonhi/animCJK
Derived from:
    MakeMeAHanzi project - https://github.com/skishore/makemeahanzi
    Arphic PL KaitiM GB font
    Arphic PL UKai font
You can redistribute and/or modify this file under the terms of the Arphic Public License
as published by Arphic Technology Co., Ltd.
You should have received a copy of this license along with this file.
If not, see https://ftp.gnu.org/non-gnu/chinese-fonts-truetype/LICENSE.
-->
<svg id="z11955" class="acjk" viewBox="0 0 1024 1024" xmlns="http://www.w3.org/2000/svg">
<style>
<![CDATA[
@keyframes zk {
	to {
		stroke-dashoffset:0;
	}
}
svg.acjk path[clip-path] {
	--t:0.8s;
	animation:zk var(--t) linear forwards var(--d);
	stroke-dasharray:3337;
	stroke-dashoffset:3339;
	stroke-width:128;
	stroke-linecap:round;
	fill:none;
	stroke:#000;
}
svg.acjk path[id] {fill:#ccc;}
]]>
</style>
<path id="z11955d1" d="M247 403C243 386 230 364 218 353C201 338 193 352 193 367C194 391 189 419 171 449C163 464 150 480 135 499C125 512 123 532 128 557C131 568 134 583 144 601C151 616 161 618 170 612C174 610 179 606 183 599C191 586 209 535 239 446C244 432 250 417 247 403Z"/>
<path id="z11955d2" d="M551 388C631 373 714 358 747 367C758 369 761 378 760 387C760 392 747 429 711 496C694 525 702 534 736 509C782 475 822 450 859 438C889 428 903 420 902 411C901 401 875 375 823 331C808 318 782 311 744 317C579 344 383 380 247 403C233 405 225 441 239 446C249 451 259 453 270 451C276 451 281 450 284 449C306 441 329 433 353 428C370 425 370 425 378 423C404 418 444 408 500 397C534 391 534 391 551 388Z"/>
<path id="z11955d3" d="M353 428C353 508 304 599 208 706C188 727 201 726 224 716C274 693 333 621 395 536C410 516 428 495 418 474C404 443 390 426 378 423C370 420 353 420 353 428Z"/>
<path id="z11955d4" d="M500 397C509 408 514 455 514 537C514 622 575 661 696 652C719 650 756 648 771 635C779 628 782 617 776 610C768 600 755 585 732 577C718 572 705 574 695 579C677 588 656 598 637 599C616 600 594 598 579 585C570 578 564 562 562 540C560 515 563 492 569 471C571 461 575 452 579 443C584 430 582 415 572 404C566 397 558 393 551 388C537 378 490 383 500 397Z"/>
<defs>
	<clipPath id="z11955c1"><use href="#z11955d1"/></clipPath>
	<clipPath id="z11955c2"><use href="#z11955d2"/></clipPath>
	<clipPath id="z11955c3"><use href="#z11955d3"/></clipPath>
	<clipPath id="z11955c4"><use href="#z11955d4"/></clipPath>
</defs>
<path style="--d:1s;" pathLength="3333" clip-path="url(#z11955c1)" d="M203 356L219 408L165 533L156 609"/>
<path style="--d:2s;" pathLength="3333" clip-path="url(#z11955c2)" d="M233 432L766 342L832 389L848 421L711 518"/>
<path style="--d:3s;" pathLength="3333" clip-path="url(#z11955c3)" d="M361 427L381 467L373 512L208 717"/>
<path style="--d:4s;" pathLength="3333" clip-path="url(#z11955c4)" d="M506 392L545 429L538 545L562 602L631 625L774 614"/>
</svg>