<!--
AnimCJK 2016-2026 Copyright FM-SH, https://github.com/parsimonhi/animCJK
Derived from:
    MakeMeAHanzi project - https://github.com/skishore/makemeahanzi
    Arphic PL KaitiM GB font
    Arphic PL KaitiM Big5 font
You can redistribute and/or modify this file under the terms of the Arphic Public License
as published by Arphic Technology Co., Ltd.
You should have received a copy of this license along with this file.
If not, see https://ftp.gnu.org/non-gnu/chinese-fonts-truetype/LICENSE.
-->
<svg id="z133506" class="acjk" viewBox="0 0 1024 1024" xmlns="http://www.w3.org/2000/svg">
<style>
<![CDATA[
@keyframes zk {
	to {
		stroke-dashoffset:0;
	}
}
svg.acjk path[clip-path] {
	--t:0.8s;
	animation:zk var(--t) linear forwards var(--d);
	stroke-dasharray:3337;
	stroke-dashoffset:3339;
	stroke-width:128;
	stroke-linecap:round;
	fill:none;
	stroke:#000;
}
svg.acjk path[id] {fill:#ccc;}
]]>
</style>
<path id="z133506d1" d="M264 208C284 220 350 269 371 286C393 303 440 306 409 233C389 188 239 154 230 160C226 162 225 169 228 177C231 185 244 194 264 208Z"/>
<path id="z133506d2" d="M204 455C188 459 191 480 202 488C224 503 241 515 262 520C268 522 274 516 281 510C317 477 358 440 392 411C435 375 437 348 392 374C304 424 268 440 204 455Z"/>
<path id="z133506d3" d="M612 244C602 255 606 265 619 260C696 223 737 199 784 178C800 170 805 161 798 148C789 133 774 121 756 109C738 97 726 92 716 94C706 94 705 99 705 110C700 164 639 212 612 244Z"/>
<path id="z133506d4" d="M605 331C606 335 612 347 625 358C669 394 709 420 746 447C786 476 807 467 789 410C777 373 725 348 615 315C603 312 601 323 605 331Z"/>
<path id="z133506d5" d="M541 603C581 599 706 596 916 598C932 598 943 595 947 589C952 579 947 567 934 557C884 519 844 513 810 521C740 536 650 545 541 560C501 565 501 565 481 568C365 583 239 593 104 606C87 607 83 615 97 629C120 653 148 660 180 655C285 636 388 615 481 608C521 605 521 605 541 603Z"/>
<path id="z133506d6" d="M481 608C481 850 481 939 491 959C503 984 512 980 521 961C533 932 541 839 541 603C541 574 541 574 541 560C541 518 542 302 551 184C552 160 559 139 571 119C577 107 570 95 557 84C537 69 511 58 481 50C455 42 426 62 448 82C467 99 480 120 481 146C483 293 481 420 481 568C481 595 481 595 481 608Z"/>
<defs>
	<clipPath id="z133506c1"><use href="#z133506d1"/></clipPath>
	<clipPath id="z133506c2"><use href="#z133506d2"/></clipPath>
	<clipPath id="z133506c3"><use href="#z133506d3"/></clipPath>
	<clipPath id="z133506c4"><use href="#z133506d4"/></clipPath>
	<clipPath id="z133506c5"><use href="#z133506d5"/></clipPath>
	<clipPath id="z133506c6"><use href="#z133506d6"/></clipPath>
</defs>
<path style="--d:1s;" pathLength="3333" clip-path="url(#z133506c1)" d="M229 166L414 285"/>
<path style="--d:2s;" pathLength="3333" clip-path="url(#z133506c2)" d="M197 465L264 479L417 369"/>
<path style="--d:3s;" pathLength="3333" clip-path="url(#z133506c3)" d="M712 99L745 158L611 253"/>
<path style="--d:4s;" pathLength="3333" clip-path="url(#z133506c4)" d="M609 319L788 455"/>
<path style="--d:5s;" pathLength="3333" clip-path="url(#z133506c5)" d="M96 618L182 627L828 558L945 574"/>
<path style="--d:6s;" pathLength="3333" clip-path="url(#z133506c6)" d="M444 63L526 124L504 970"/>
</svg>