<!--
AnimCJK 2016-2026 Copyright FM-SH, https://github.com/parsimonhi/animCJK
Derived from:
    MakeMeAHanzi project - https://github.com/skishore/makemeahanzi
    Arphic PL KaitiM GB font
    Arphic PL KaitiM Big5 font
You can redistribute and/or modify this file under the terms of the Arphic Public License
as published by Arphic Technology Co., Ltd.
You should have received a copy of this license along with this file.
If not, see https://ftp.gnu.org/non-gnu/chinese-fonts-truetype/LICENSE.
-->
<svg id="z139657" class="acjk" viewBox="0 0 1024 1024" xmlns="http://www.w3.org/2000/svg">
<style>
<![CDATA[
@keyframes zk {
	to {
		stroke-dashoffset:0;
	}
}
svg.acjk path[clip-path] {
	--t:0.8s;
	animation:zk var(--t) linear forwards var(--d);
	stroke-dasharray:3337;
	stroke-dashoffset:3339;
	stroke-width:128;
	stroke-linecap:round;
	fill:none;
	stroke:#000;
}
svg.acjk path[id] {fill:#ccc;}
]]>
</style>
<path id="z139657d1" d="M338 178C357 194 376 214 397 236C405 244 416 251 428 251C429 251 460 250 444 191C437 168 400 146 334 128C313 121 302 121 305 142C305 148 318 160 338 178Z"/>
<path id="z139657d2" d="M656 103C645 118 613 158 562 222C553 233 557 243 569 237C645 192 712 146 750 126C764 117 770 108 763 94C754 79 741 68 722 57C703 46 690 42 681 43C671 44 667 48 670 60C673 72 666 86 656 103Z"/>
<path id="z139657d3" d="M539 362C667 341 743 326 747 323C766 304 739 289 715 283C691 277 642 287 583 303C488 327 389 336 306 343C279 345 273 354 294 367C322 385 347 391 399 383C422 378 463 373 482 371C520 365 520 365 539 362Z"/>
<path id="z139657d4" d="M539 598C677 584 798 581 903 592C944 596 945 568 937 561C888 515 844 509 799 517C741 526 656 538 539 552C498 557 498 557 478 559C233 587 167 589 109 590C91 590 87 603 112 630C124 643 144 652 168 651C203 648 246 640 286 633C344 621 407 610 478 604C519 600 519 600 539 598Z"/>
<path id="z139657d5" d="M478 604C478 754 479 862 488 920C501 1003 519 966 527 920C546 799 539 723 539 598C539 567 539 567 539 552C539 488 539 362 539 362C539 343 482 352 482 371C481 442 478 510 478 559C478 589 478 589 478 604Z"/>
<defs>
	<clipPath id="z139657c1"><use href="#z139657d1"/></clipPath>
	<clipPath id="z139657c2"><use href="#z139657d2"/></clipPath>
	<clipPath id="z139657c3"><use href="#z139657d3"/></clipPath>
	<clipPath id="z139657c4"><use href="#z139657d4"/></clipPath>
	<clipPath id="z139657c5"><use href="#z139657d5"/></clipPath>
</defs>
<path style="--d:1s;" pathLength="3333" clip-path="url(#z139657c1)" d="M312 134L401 191L437 244"/>
<path style="--d:2s;" pathLength="3333" clip-path="url(#z139657c2)" d="M677 50L711 108L565 231"/>
<path style="--d:3s;" pathLength="3333" clip-path="url(#z139657c3)" d="M292 355L358 363L749 313"/>
<path style="--d:4s;" pathLength="3333" clip-path="url(#z139657c4)" d="M98 600L167 619L827 550L936 570"/>
<path style="--d:5s;" pathLength="3333" clip-path="url(#z139657c5)" d="M520 354L507 963"/>
</svg>