<!--
AnimCJK 2016-2025 Copyright FM-SH - https://github.com/parsimonhi/animCJK
Derived from:
    MakeMeAHanzi project - https://github.com/skishore/makemeahanzi
    Arphic PL KaitiM GB font
    Arphic PL UKai font
You can redistribute and/or modify this file under the terms of the Arphic Public License
as published by Arphic Technology Co., Ltd.
You should have received a copy of this license along with this file.
If not, see https://ftp.gnu.org/non-gnu/chinese-fonts-truetype/LICENSE.
-->
<svg id="z139702" class="acjk" viewBox="0 0 1024 1024" xmlns="http://www.w3.org/2000/svg">
<style>
<![CDATA[
@keyframes zk {
	to {
		stroke-dashoffset:0;
	}
}
svg.acjk path[clip-path] {
	--t:0.8s;
	animation:zk var(--t) linear forwards var(--d);
	stroke-dasharray:3337;
	stroke-dashoffset:3339;
	stroke-width:128;
	stroke-linecap:round;
	fill:none;
	stroke:#000;
}
svg.acjk path[id] {fill:#ccc;}
]]>
</style>
<path id="z139702d1" d="M331 532C314 533 278 538 221 545C196 548 190 537 200 519C237 460 330 333 364 289C375 274 378 263 377 258C372 244 360 229 330 204C315 192 303 182 293 193C276 209 294 240 290 263C272 353 166 502 121 541C108 555 102 567 105 577C107 592 123 607 136 623C141 628 155 627 174 617C199 603 250 586 301 572C317 569 348 532 331 532Z"/>
<path id="z139702d2" d="M408 733C392 735 334 748 232 768C205 773 199 769 217 748C437 479 437 492 475 470C484 465 483 447 479 440C469 425 458 405 435 392C421 385 414 380 406 384C399 387 397 395 398 408C398 429 387 455 331 532C311 559 311 559 301 572C251 639 150 771 125 782C113 788 110 797 113 810C115 821 136 838 155 857C162 864 170 865 182 857C238 814 379 778 425 762C436 758 419 731 408 733Z"/>
<path id="z139702d3" d="M425 762C438 785 458 801 473 781C478 773 477 751 474 737C471 724 461 706 450 695C428 675 416 666 406 662C399 659 395 664 392 671C388 677 386 696 408 733C419 752 419 752 425 762Z"/>
<path id="z139702d4" d="M754 496C723 496 670 503 642 505C619 507 615 499 624 483C670 400 755 287 778 260C790 244 791 234 790 228C786 217 774 198 745 173C733 164 718 155 706 164C687 176 704 205 704 236C704 294 592 463 556 500C541 515 535 524 538 534C541 549 549 564 561 578C568 587 576 588 587 583C626 564 682 548 725 536C741 531 770 496 754 496Z"/>
<path id="z139702d5" d="M831 688C793 690 718 705 670 715C637 721 632 712 654 688C833 480 843 457 887 437C899 432 901 408 897 400C888 382 875 366 849 347C836 339 827 336 819 339C811 341 806 349 808 364C809 388 809 419 754 496C735 523 735 523 725 536C691 582 587 707 564 719C551 726 547 736 549 751C550 761 561 781 580 802C589 812 597 813 612 803C666 765 774 734 850 718C862 716 843 688 831 688Z"/>
<path id="z139702d6" d="M850 718C872 755 880 771 893 775C900 777 905 775 912 767C918 757 924 740 922 717C918 686 907 672 878 647C842 615 817 605 809 606C806 607 802 612 801 623C800 626 807 650 831 688C837 698 843 708 850 718Z"/>
<defs>
	<clipPath id="z139702c1"><use href="#z139702d1"/></clipPath>
	<clipPath id="z139702c2"><use href="#z139702d2"/></clipPath>
	<clipPath id="z139702c3"><use href="#z139702d3"/></clipPath>
	<clipPath id="z139702c4"><use href="#z139702d4"/></clipPath>
	<clipPath id="z139702c5"><use href="#z139702d5"/></clipPath>
	<clipPath id="z139702c6"><use href="#z139702d6"/></clipPath>
</defs>
<path style="--d:1s;" pathLength="3333" clip-path="url(#z139702c1)" d="M303 192L333 263L153 561L175 584L330 539"/>
<path style="--d:2s;" pathLength="3333" clip-path="url(#z139702c2)" d="M407 390L436 450L164 788L192 816L424 747"/>
<path style="--d:3s;" pathLength="3333" clip-path="url(#z139702c3)" d="M402 668L460 785"/>
<path style="--d:4s;" pathLength="3333" clip-path="url(#z139702c4)" d="M707 167L743 250L581 519L601 544L752 503"/>
<path style="--d:5s;" pathLength="3333" clip-path="url(#z139702c5)" d="M819 344L849 417L597 735L621 762L847 703"/>
<path style="--d:6s;" pathLength="3333" clip-path="url(#z139702c6)" d="M811 614L910 767"/>
</svg>