<!--
AnimCJK 2016-2026 Copyright FM-SH, https://github.com/parsimonhi/animCJK
Derived from:
    MakeMeAHanzi project - https://github.com/skishore/makemeahanzi
    Arphic PL KaitiM GB font
    Arphic PL KaitiM Big5 font
You can redistribute and/or modify this file under the terms of the Arphic Public License
as published by Arphic Technology Co., Ltd.
You should have received a copy of this license along with this file.
If not, see https://ftp.gnu.org/non-gnu/chinese-fonts-truetype/LICENSE.
-->
<svg id="z143505" class="acjk" viewBox="0 0 1024 1024" xmlns="http://www.w3.org/2000/svg">
<style>
<![CDATA[
@keyframes zk {
	to {
		stroke-dashoffset:0;
	}
}
svg.acjk path[clip-path] {
	--t:0.8s;
	animation:zk var(--t) linear forwards var(--d);
	stroke-dasharray:3337;
	stroke-dashoffset:3339;
	stroke-width:128;
	stroke-linecap:round;
	fill:none;
	stroke:#000;
}
svg.acjk path[id] {fill:#ccc;}
]]>
</style>
<path id="z143505d1" d="M372 231C497 187 599 159 668 141C728 124 666 89 645 79C617 65 567 45 559 75C548 112 479 145 360 207C352 212 364 234 372 231Z"/>
<path id="z143505d2" d="M354 486C361 434 366 288 372 231C373 222 368 210 360 207C336 195 240 150 277 209C304 254 312 356 292 511C276 631 212 735 124 816C78 857 113 851 137 837C182 808 316 734 349 519C352 497 352 497 354 486Z"/>
<path id="z143505d3" d="M646 477C674 472 704 470 864 459C891 456 903 440 877 423C803 367 760 401 647 426C604 435 604 435 582 440C517 453 440 469 354 486C343 488 338 515 349 519C369 527 395 529 421 522C462 510 535 496 582 488C625 481 625 481 646 477Z"/>
<path id="z143505d4" d="M588 935C595 978 625 1020 638 904C642 859 645 774 644 731C640 620 644 571 646 477C647 443 647 443 647 426C647 396 653 348 656 334C660 307 647 295 618 281C556 250 539 280 552 298C571 326 582 356 582 440C582 472 582 472 582 488C582 583 583 641 583 735C582 815 583 907 588 935Z"/>
<defs>
	<clipPath id="z143505c1"><use href="#z143505d1"/></clipPath>
	<clipPath id="z143505c2"><use href="#z143505d2"/></clipPath>
	<clipPath id="z143505c3"><use href="#z143505d3"/></clipPath>
	<clipPath id="z143505c4"><use href="#z143505d4"/></clipPath>
</defs>
<path style="--d:1s;" pathLength="3333" clip-path="url(#z143505c1)" d="M574 63L637 127L362 217"/>
<path style="--d:2s;" pathLength="3333" clip-path="url(#z143505c2)" d="M277 189L332 243L313 555L235 725L107 840"/>
<path style="--d:3s;" pathLength="3333" clip-path="url(#z143505c3)" d="M344 505L760 431L886 436"/>
<path style="--d:4s;" pathLength="3333" clip-path="url(#z143505c4)" d="M552 281L614 328L614 971"/>
</svg>