<!--
AnimCJK 2016-2026 Copyright FM-SH - https://github.com/parsimonhi/animCJK
Derived from:
    MakeMeAHanzi project - https://github.com/skishore/makemeahanzi
    Arphic PL KaitiM GB font
    Arphic PL KaitiM Big5 font
You can redistribute and/or modify this file under the terms of the Arphic Public License
as published by Arphic Technology Co., Ltd.
You should have received a copy of this license along with this file.
If not, see https://ftp.gnu.org/non-gnu/chinese-fonts-truetype/LICENSE.
-->
<svg id="z150535" class="acjk" viewBox="0 0 1024 1024" xmlns="http://www.w3.org/2000/svg">
<style>
<![CDATA[
@keyframes zk {
	to {
		stroke-dashoffset:0;
	}
}
svg.acjk path[clip-path] {
	--t:0.8s;
	animation:zk var(--t) linear forwards var(--d);
	stroke-dasharray:3337;
	stroke-dashoffset:3339;
	stroke-width:128;
	stroke-linecap:round;
	fill:none;
	stroke:#000;
}
svg.acjk path[id] {fill:#ccc;}
]]>
</style>
<path id="z150535d1" d="M651 234C724 221 800 211 815 198C820 192 821 186 819 183C814 173 799 168 783 165C756 158 688 179 664 185C627 193 627 193 608 197C566 206 496 218 428 228C394 233 394 233 377 235C357 237 275 249 239 251C196 252 209 269 228 280C255 295 291 297 383 279C413 273 413 273 428 270C482 259 558 249 604 242C635 237 635 237 651 234Z"/>
<path id="z150535d2" d="M431 166C434 151 428 149 419 142C403 131 385 122 367 116C356 112 349 113 343 117C337 120 337 128 342 138C362 164 370 179 377 235C381 264 381 264 383 279C384 292 383 321 387 339C394 375 417 362 424 333C426 320 428 286 428 270C428 242 428 242 428 228C428 198 430 172 431 166Z"/>
<path id="z150535d3" d="M637 288C643 266 647 250 651 234C660 201 660 201 664 185C671 161 681 143 697 106C700 99 695 88 683 80C660 63 639 56 625 53C602 47 587 57 597 77C614 109 612 162 608 197C605 227 605 227 604 242C602 257 599 281 598 296C597 329 619 352 637 288Z"/>
<path id="z150535d4" d="M706 325C575 360 437 385 331 391C319 391 327 425 339 427C395 442 510 417 800 360C809 358 818 350 818 342C817 332 790 313 759 313C740 313 723 321 706 325Z"/>
<path id="z150535d5" d="M264 410C285 515 240 702 144 892C130 918 134 934 155 914C276 795 316 567 329 478C331 457 332 447 339 427C344 416 342 397 331 391C290 364 249 341 264 410Z"/>
<path id="z150535d6" d="M359 491C384 541 376 690 365 758C359 791 339 829 365 883C375 905 389 909 407 881C419 861 422 846 420 812C417 754 419 557 427 522C430 507 418 490 405 482C358 456 354 482 359 491Z"/>
<path id="z150535d7" d="M427 522C438 517 475 511 507 505C531 500 531 500 543 498C571 492 646 477 677 480C683 480 686 485 689 492C695 519 698 558 701 587C706 663 707 751 705 827C704 835 701 841 692 842C670 844 608 837 594 841C585 842 594 855 601 859C625 871 687 897 724 920C730 925 741 928 749 923C760 912 765 899 768 885C778 842 768 796 765 753C759 683 750 594 750 525C749 510 755 496 761 484C765 474 758 464 750 458C735 448 720 438 705 434C663 424 649 450 405 482C390 485 413 528 427 522Z"/>
<path id="z150535d8" d="M628 568C615 568 594 572 574 578C541 587 541 587 524 591C497 598 480 599 454 605C447 606 437 608 437 616C436 621 444 626 450 629C475 639 498 638 525 632C558 625 558 625 574 621C601 614 639 606 663 598C672 594 671 580 662 576C651 570 639 568 628 568Z"/>
<path id="z150535d9" d="M638 674C617 675 591 682 573 687C555 691 544 694 526 697C507 700 460 704 440 707C434 708 426 712 428 719C431 728 442 732 451 734C479 741 499 738 526 733C537 731 553 728 572 726C594 722 618 718 632 716C643 714 657 712 668 707C675 703 679 693 672 687C661 678 650 674 638 674Z"/>
<path id="z150535d10" d="M507 505C522 531 523 562 524 591C525 618 525 618 525 632C525 654 526 684 526 697C526 721 526 721 526 733C526 771 524 820 526 858C526 869 529 883 536 894C541 902 548 903 555 895C561 886 566 872 568 858C569 832 573 770 573 726C573 700 573 700 573 687C573 665 574 641 574 621C574 592 574 592 574 578C574 512 603 523 543 498C532 493 502 494 507 505Z"/>
<defs>
	<clipPath id="z150535c1"><use href="#z150535d1"/></clipPath>
	<clipPath id="z150535c2"><use href="#z150535d2"/></clipPath>
	<clipPath id="z150535c3"><use href="#z150535d3"/></clipPath>
	<clipPath id="z150535c4"><use href="#z150535d4"/></clipPath>
	<clipPath id="z150535c5"><use href="#z150535d5"/></clipPath>
	<clipPath id="z150535c6"><use href="#z150535d6"/></clipPath>
	<clipPath id="z150535c7"><use href="#z150535d7"/></clipPath>
	<clipPath id="z150535c8"><use href="#z150535d8"/></clipPath>
	<clipPath id="z150535c9"><use href="#z150535d9"/></clipPath>
	<clipPath id="z150535c10"><use href="#z150535d10"/></clipPath>
</defs>
<path style="--d:1s;" pathLength="3333" clip-path="url(#z150535c1)" d="M217 261L323 265L815 187"/>
<path style="--d:2s;" pathLength="3333" clip-path="url(#z150535c2)" d="M343 119L398 168L403 356"/>
<path style="--d:3s;" pathLength="3333" clip-path="url(#z150535c3)" d="M601 58L653 115L616 322"/>
<path style="--d:4s;" pathLength="3333" clip-path="url(#z150535c4)" d="M330 402L449 402L810 338"/>
<path style="--d:5s;" pathLength="3333" clip-path="url(#z150535c5)" d="M269 370L304 419L284 579L231 754L145 916"/>
<path style="--d:6s;" pathLength="3333" clip-path="url(#z150535c6)" d="M365 476L398 517L388 896"/>
<path style="--d:7s;" pathLength="3333" clip-path="url(#z150535c7)" d="M404 490L675 456L723 478L732 867L719 882L598 845"/>
<path style="--d:8s;" pathLength="3333" clip-path="url(#z150535c8)" d="M443 615L664 585"/>
<path style="--d:9s;" pathLength="3333" clip-path="url(#z150535c9)" d="M435 716L671 693"/>
<path style="--d:10s;" pathLength="3333" clip-path="url(#z150535c10)" d="M513 503L550 534L546 895"/>
</svg>