<!--
AnimCJK 2016-2026 Copyright FM-SH - https://github.com/parsimonhi/animCJK
Derived from:
    MakeMeAHanzi project - https://github.com/skishore/makemeahanzi
    Arphic PL KaitiM GB font
    Arphic PL KaitiM Big5 font
You can redistribute and/or modify this file under the terms of the Arphic Public License
as published by Arphic Technology Co., Ltd.
You should have received a copy of this license along with this file.
If not, see https://ftp.gnu.org/non-gnu/chinese-fonts-truetype/LICENSE.
-->
<svg id="z150817" class="acjk" viewBox="0 0 1024 1024" xmlns="http://www.w3.org/2000/svg">
<style>
<![CDATA[
@keyframes zk {
	to {
		stroke-dashoffset:0;
	}
}
svg.acjk path[clip-path] {
	--t:0.8s;
	animation:zk var(--t) linear forwards var(--d);
	stroke-dasharray:3337;
	stroke-dashoffset:3339;
	stroke-width:128;
	stroke-linecap:round;
	fill:none;
	stroke:#000;
}
svg.acjk path[id] {fill:#ccc;}
]]>
</style>
<path id="z150817d1" d="M524 187C607 166 636 161 650 153C665 143 655 124 616 118C594 114 566 124 529 136C493 147 493 147 475 153C455 159 431 165 350 178C325 181 321 192 341 201C392 223 451 205 476 199C508 191 508 191 524 187Z"/>
<path id="z150817d2" d="M516 249C518 229 521 214 524 187C527 153 527 153 529 136C533 88 559 90 529 69C509 55 491 51 477 48C461 44 443 52 456 72C464 85 473 121 475 153C475 153 475 182 476 199C476 224 478 254 478 254C478 267 513 262 516 249Z"/>
<path id="z150817d3" d="M230 295C230 280 221 267 205 257C193 248 186 252 185 269C189 295 170 336 128 390C116 406 119 432 137 466C149 480 160 480 170 464C182 445 192 422 201 396C207 371 214 350 222 333C227 308 227 308 230 295Z"/>
<path id="z150817d4" d="M222 333C236 337 251 338 266 334C386 296 526 269 688 253C726 248 752 247 765 249C777 253 782 260 780 268C780 268 765 299 737 361C731 371 730 378 735 380C741 382 749 379 761 371C801 339 837 317 871 305C899 295 912 286 911 279C908 272 883 251 835 216C821 205 805 201 789 203C644 225 553 241 516 249C491 252 491 252 478 254C435 260 388 267 337 277C300 283 264 289 230 295C217 297 209 330 222 333Z"/>
<path id="z150817d5" d="M359 354C352 350 337 346 314 342C307 341 302 342 300 345C297 349 298 355 303 364C321 400 337 449 349 507C351 523 358 538 369 550C379 562 386 564 390 555C392 548 393 540 393 530C390 512 390 512 389 503C383 491 375 450 366 385C364 375 369 358 359 354Z"/>
<path id="z150817d6" d="M565 502C566 524 589 530 603 509C608 500 620 476 634 435C644 404 660 386 682 369C692 360 693 350 684 341C673 330 652 317 624 300C601 285 597 295 359 354C349 356 356 389 366 385C366 384 366 384 368 384C388 375 416 366 454 358C475 353 475 353 486 351C588 328 608 327 600 369C588 423 578 454 573 472C570 482 563 492 565 502Z"/>
<path id="z150817d7" d="M493 478C493 467 495 442 497 426C499 401 499 401 500 389C501 371 502 362 486 351C477 344 452 347 454 358C454 362 457 377 458 404C459 425 459 425 459 435C459 448 459 474 460 487C460 498 493 489 493 478Z"/>
<path id="z150817d8" d="M497 426C516 421 533 416 550 413C576 407 560 388 530 385C521 383 511 385 500 389C472 399 472 399 458 404C439 410 421 418 405 425C396 428 395 437 409 440C426 442 441 439 459 435C484 429 484 429 497 426Z"/>
<path id="z150817d9" d="M393 530C402 530 413 526 448 520C473 515 473 515 485 513C505 509 532 506 565 502C575 500 582 477 573 472C556 460 525 469 493 478C471 484 471 484 460 487C434 493 410 497 389 503C380 506 384 530 393 530Z"/>
<path id="z150817d10" d="M630 594C573 595 427 617 362 631C340 635 335 634 354 624C403 600 489 565 511 554C538 542 506 524 485 513C474 507 450 508 448 520C450 547 346 594 283 626C274 630 272 642 273 648C276 656 285 670 297 682C302 688 307 688 315 684C336 675 413 654 453 647C480 642 480 642 493 639C526 632 618 621 647 615C656 613 639 594 630 594Z"/>
<path id="z150817d11" d="M647 615C667 638 684 661 690 663C702 665 713 645 710 623C705 592 672 574 621 550C614 546 610 546 607 547C605 547 603 550 602 557C602 560 609 568 630 594C641 608 641 608 647 615Z"/>
<path id="z150817d12" d="M513 812C513 789 515 772 516 753C517 735 517 735 517 726C518 677 534 663 493 639C482 631 449 634 453 647C459 663 464 699 469 786C469 803 513 829 513 812Z"/>
<path id="z150817d13" d="M635 737C651 733 656 726 650 718C641 708 628 702 611 700C575 698 543 706 517 726C510 731 507 755 516 753C595 742 595 742 635 737Z"/>
<path id="z150817d14" d="M357 765C371 749 384 739 367 720C332 683 312 686 309 706C298 767 230 836 146 911C77 972 145 943 168 930C237 888 279 849 333 791C349 774 349 774 357 765Z"/>
<path id="z150817d15" d="M333 791C367 791 412 806 464 836C611 921 681 975 732 967C800 954 863 937 916 923C934 918 941 899 911 899C874 898 835 894 795 893C716 890 566 843 513 812C484 795 484 795 469 786C447 773 387 760 357 765C345 767 321 791 333 791Z"/>
<defs>
	<clipPath id="z150817c1"><use href="#z150817d1"/></clipPath>
	<clipPath id="z150817c2"><use href="#z150817d2"/></clipPath>
	<clipPath id="z150817c3"><use href="#z150817d3"/></clipPath>
	<clipPath id="z150817c4"><use href="#z150817d4"/></clipPath>
	<clipPath id="z150817c5"><use href="#z150817d5"/></clipPath>
	<clipPath id="z150817c6"><use href="#z150817d6"/></clipPath>
	<clipPath id="z150817c7"><use href="#z150817d7"/></clipPath>
	<clipPath id="z150817c8"><use href="#z150817d8"/></clipPath>
	<clipPath id="z150817c9"><use href="#z150817d9"/></clipPath>
	<clipPath id="z150817c10"><use href="#z150817d10"/></clipPath>
	<clipPath id="z150817c11"><use href="#z150817d11"/></clipPath>
	<clipPath id="z150817c12"><use href="#z150817d12"/></clipPath>
	<clipPath id="z150817c13"><use href="#z150817d13"/></clipPath>
	<clipPath id="z150817c14"><use href="#z150817d14"/></clipPath>
	<clipPath id="z150817c15"><use href="#z150817d15"/></clipPath>
</defs>
<path style="--d:1s;" pathLength="3333" clip-path="url(#z150817c1)" d="M333 188L653 140"/>
<path style="--d:2s;" pathLength="3333" clip-path="url(#z150817c2)" d="M459 59L506 101L497 258"/>
<path style="--d:3s;" pathLength="3333" clip-path="url(#z150817c3)" d="M194 259L206 298L147 470"/>
<path style="--d:4s;" pathLength="3333" clip-path="url(#z150817c4)" d="M217 321L777 226L807 236L857 286L740 375"/>
<path style="--d:5s;" pathLength="3333" clip-path="url(#z150817c5)" d="M305 351L340 377L385 553"/>
<path style="--d:6s;" pathLength="3333" clip-path="url(#z150817c6)" d="M356 367L610 320L645 361L574 516"/>
<path style="--d:7s;" pathLength="3333" clip-path="url(#z150817c7)" d="M466 351L471 489"/>
<path style="--d:8s;" pathLength="3333" clip-path="url(#z150817c8)" d="M405 432L557 404"/>
<path style="--d:9s;" pathLength="3333" clip-path="url(#z150817c9)" d="M389 518L574 483"/>
<path style="--d:10s;" pathLength="3333" clip-path="url(#z150817c10)" d="M464 511L477 544L313 629L321 659L644 607"/>
<path style="--d:11s;" pathLength="3333" clip-path="url(#z150817c11)" d="M608 551L684 620L696 657"/>
<path style="--d:12s;" pathLength="3333" clip-path="url(#z150817c12)" d="M459 644L491 679L499 813"/>
<path style="--d:13s;" pathLength="3333" clip-path="url(#z150817c13)" d="M513 744L648 719"/>
<path style="--d:14s;" pathLength="3333" clip-path="url(#z150817c14)" d="M321 696L337 739L299 790L125 942"/>
<path style="--d:15s;" pathLength="3333" clip-path="url(#z150817c15)" d="M337 786L442 798L703 922L925 906"/>
</svg>