<!--
AnimCJK 2016-2026 Copyright FM-SH, https://github.com/parsimonhi/animCJK
Derived from:
    MakeMeAHanzi project - https://github.com/skishore/makemeahanzi
    Arphic PL KaitiM GB font
    Arphic PL KaitiM Big5 font
You can redistribute and/or modify this file under the terms of the Arphic Public License
as published by Arphic Technology Co., Ltd.
You should have received a copy of this license along with this file.
If not, see https://ftp.gnu.org/non-gnu/chinese-fonts-truetype/LICENSE.
-->
<svg id="z156987" class="acjk" viewBox="0 0 1024 1024" xmlns="http://www.w3.org/2000/svg">
<style>
<![CDATA[
@keyframes zk {
	to {
		stroke-dashoffset:0;
	}
}
svg.acjk path[clip-path] {
	--t:0.8s;
	animation:zk var(--t) linear forwards var(--d);
	stroke-dasharray:3337;
	stroke-dashoffset:3339;
	stroke-width:128;
	stroke-linecap:round;
	fill:none;
	stroke:#000;
}
svg.acjk path[id] {fill:#ccc;}
]]>
</style>
<path id="z156987d1" d="M419 206C455 200 488 194 519 192C525 191 555 183 516 160C496 148 455 149 387 169C304 192 220 200 136 213C118 215 115 222 130 233C151 249 172 254 191 250C224 243 224 243 240 239C284 229 333 219 388 211C409 208 409 208 419 206Z"/>
<path id="z156987d2" d="M191 250C201 270 205 292 206 316C206 340 207 458 208 668C208 683 250 671 250 656C250 607 252 561 252 518C252 500 252 500 252 491C252 456 253 424 254 395C255 374 255 374 255 364C258 255 278 265 240 239C227 229 185 234 191 250Z"/>
<path id="z156987d3" d="M254 395C290 388 323 383 352 379C383 373 362 349 331 346C299 342 273 350 255 364C246 369 244 397 254 395Z"/>
<path id="z156987d4" d="M252 518C256 518 288 513 349 500C382 492 355 470 326 468C300 465 275 473 252 491C245 496 243 520 252 518Z"/>
<path id="z156987d5" d="M401 608C352 622 302 640 250 656C222 664 222 664 208 668C150 684 110 691 90 691C69 691 70 716 82 726C96 738 116 748 140 762C145 765 154 762 163 756C199 730 278 693 400 645C411 640 413 606 401 608Z"/>
<path id="z156987d6" d="M449 592C449 321 449 269 452 242C453 227 450 224 419 206C410 201 386 201 388 211C399 239 401 576 401 608C400 633 400 633 400 645C397 732 395 815 389 894C384 944 424 1029 450 920C454 902 454 885 453 869C450 839 449 757 449 624C449 603 449 603 449 592Z"/>
<path id="z156987d7" d="M555 417C534 409 478 385 499 433C522 487 541 559 551 648C553 674 560 696 575 715C587 731 602 736 605 687C605 673 605 660 603 648C596 605 582 527 574 454C571 440 568 422 555 417Z"/>
<path id="z156987d8" d="M835 616C855 532 879 477 908 450C922 435 923 420 910 407C898 395 869 380 827 362C812 355 796 357 780 364C720 388 645 405 555 417C541 420 560 456 574 454C637 443 700 432 763 421C807 412 805 456 804 467C796 521 786 571 775 615C771 635 831 636 835 616Z"/>
<path id="z156987d9" d="M605 687C628 687 648 673 854 658C861 657 888 652 835 616C819 604 795 612 775 615C711 629 653 640 603 648C590 651 592 687 605 687Z"/>
<defs>
	<clipPath id="z156987c1"><use href="#z156987d1"/></clipPath>
	<clipPath id="z156987c2"><use href="#z156987d2"/></clipPath>
	<clipPath id="z156987c3"><use href="#z156987d3"/></clipPath>
	<clipPath id="z156987c4"><use href="#z156987d4"/></clipPath>
	<clipPath id="z156987c5"><use href="#z156987d5"/></clipPath>
	<clipPath id="z156987c6"><use href="#z156987d6"/></clipPath>
	<clipPath id="z156987c7"><use href="#z156987d7"/></clipPath>
	<clipPath id="z156987c8"><use href="#z156987d8"/></clipPath>
	<clipPath id="z156987c9"><use href="#z156987d9"/></clipPath>
</defs>
<path style="--d:1s;" pathLength="3333" clip-path="url(#z156987c1)" d="M130 222L529 177"/>
<path style="--d:2s;" pathLength="3333" clip-path="url(#z156987c2)" d="M197 245L233 290L219 672"/>
<path style="--d:3s;" pathLength="3333" clip-path="url(#z156987c3)" d="M254 386L361 366"/>
<path style="--d:4s;" pathLength="3333" clip-path="url(#z156987c4)" d="M250 509L357 486"/>
<path style="--d:5s;" pathLength="3333" clip-path="url(#z156987c5)" d="M78 702L142 724L404 617"/>
<path style="--d:6s;" pathLength="3333" clip-path="url(#z156987c6)" d="M397 208L422 244L415 968"/>
<path style="--d:7s;" pathLength="3333" clip-path="url(#z156987c7)" d="M501 412L544 461L585 720"/>
<path style="--d:8s;" pathLength="3333" clip-path="url(#z156987c8)" d="M554 424L790 390L848 419L863 445L795 628"/>
<path style="--d:9s;" pathLength="3333" clip-path="url(#z156987c9)" d="M596 672L794 637L862 647"/>
</svg>