<!--
AnimCJK 2016-2025 Copyright FM-SH - https://github.com/parsimonhi/animCJK
Derived from:
    MakeMeAHanzi project - https://github.com/skishore/makemeahanzi
    Arphic PL KaitiM GB font
    Arphic PL UKai font
You can redistribute and/or modify this file under the terms of the Arphic Public License
as published by Arphic Technology Co., Ltd.
You should have received a copy of this license along with this file.
If not, see https://ftp.gnu.org/non-gnu/chinese-fonts-truetype/LICENSE.
-->
<svg id="z158761" class="acjk" viewBox="0 0 1024 1024" xmlns="http://www.w3.org/2000/svg">
<style>
<![CDATA[
@keyframes zk {
	to {
		stroke-dashoffset:0;
	}
}
svg.acjk path[clip-path] {
	--t:0.8s;
	animation:zk var(--t) linear forwards var(--d);
	stroke-dasharray:3337;
	stroke-dashoffset:3339;
	stroke-width:128;
	stroke-linecap:round;
	fill:none;
	stroke:#000;
}
svg.acjk path[id] {fill:#ccc;}
]]>
</style>
<path id="z158761d1" d="M625 226C707 217 782 214 850 219C860 219 867 216 871 210C875 202 872 192 862 183C826 151 781 148 729 162C701 169 673 173 645 178C607 185 607 185 588 188C533 197 475 206 415 215C386 219 386 219 371 221C310 229 248 235 184 244C163 246 159 253 175 264C202 282 242 288 293 277C321 270 345 263 378 258C405 253 405 253 418 251C453 246 548 235 577 231C609 228 609 228 625 226Z"/>
<path id="z158761d2" d="M415 215C412 184 410 156 410 132C410 119 404 112 392 107C365 94 345 88 331 94C318 99 317 109 328 122C351 151 364 185 371 221C376 246 376 246 378 258C382 280 388 297 399 308C406 315 414 314 417 307C422 293 420 275 418 251C416 227 416 227 415 215Z"/>
<path id="z158761d3" d="M645 178C654 155 662 131 678 110C686 98 688 90 682 83C672 72 657 60 634 48C622 41 609 41 598 48C591 51 591 57 596 66C606 86 603 127 588 188C581 217 581 217 577 231C566 271 561 295 562 304C562 314 568 315 580 307C591 298 606 271 625 226C638 194 638 194 645 178Z"/>
<path id="z158761d4" d="M325 369C317 359 293 353 275 352C266 351 263 350 261 355C258 359 258 366 264 377C280 408 296 449 308 502C311 516 315 527 323 540C328 549 339 558 348 546C351 542 351 531 351 523C350 512 348 502 346 493C339 460 332 420 330 401C328 390 334 375 325 369Z"/>
<path id="z158761d5" d="M726 445C740 414 757 398 773 387C786 378 786 361 777 349C767 338 744 323 713 303C701 296 688 296 675 301C641 313 609 321 578 328C504 345 358 366 325 369C314 371 319 403 330 401C373 396 438 383 469 378C497 373 497 373 511 370C540 365 614 352 644 349C668 346 694 354 689 379C684 402 679 423 673 442C666 458 719 461 726 445Z"/>
<path id="z158761d6" d="M542 494C630 482 678 481 733 477C762 475 762 463 726 445C711 436 691 442 673 442C639 443 601 451 542 462C509 467 509 467 492 470C454 477 378 488 346 493C336 495 341 525 351 523C374 520 457 506 491 502C525 497 525 497 542 494Z"/>
<path id="z158761d7" d="M533 603C576 597 636 588 674 585C690 582 696 576 691 567C684 555 671 548 653 545C629 541 578 551 537 560C504 566 504 566 488 569C445 577 384 589 346 597C333 600 332 609 349 617C365 625 415 618 484 609C517 605 517 605 533 603Z"/>
<path id="z158761d8" d="M552 713C608 707 718 696 800 699C840 701 864 700 869 693C872 686 869 677 858 668C824 642 794 633 771 638C720 648 610 665 524 678C490 683 490 683 473 685C400 694 274 711 192 720C178 721 175 727 186 739C194 747 204 753 217 757C230 760 243 760 253 758C301 745 406 729 461 722C498 717 498 717 516 715C540 714 540 714 552 713Z"/>
<path id="z158761d9" d="M524 678C528 655 530 626 533 603C536 574 536 574 537 560C538 539 542 513 542 494C542 473 542 473 542 462C542 424 551 408 540 392C536 385 528 377 511 370C498 365 462 366 469 378C485 399 493 439 492 470C491 491 491 491 491 502C490 523 490 549 488 569C485 596 485 596 484 609C481 630 479 665 473 685C468 698 465 709 461 722C413 807 315 858 210 895C178 905 191 914 223 910C361 895 478 831 516 715C520 701 521 690 524 678Z"/>
<path id="z158761d10" d="M516 715C537 742 685 913 707 929C726 943 819 942 902 930C914 927 922 926 923 922C924 917 919 911 910 908C774 856 684 819 628 776C598 753 572 733 552 713C544 705 509 705 516 715Z"/>
<defs>
	<clipPath id="z158761c1"><use href="#z158761d1"/></clipPath>
	<clipPath id="z158761c2"><use href="#z158761d2"/></clipPath>
	<clipPath id="z158761c3"><use href="#z158761d3"/></clipPath>
	<clipPath id="z158761c4"><use href="#z158761d4"/></clipPath>
	<clipPath id="z158761c5"><use href="#z158761d5"/></clipPath>
	<clipPath id="z158761c6"><use href="#z158761d6"/></clipPath>
	<clipPath id="z158761c7"><use href="#z158761d7"/></clipPath>
	<clipPath id="z158761c8"><use href="#z158761d8"/></clipPath>
	<clipPath id="z158761c9"><use href="#z158761d9"/></clipPath>
	<clipPath id="z158761c10"><use href="#z158761d10"/></clipPath>
</defs>
<path style="--d:1s;" pathLength="3333" clip-path="url(#z158761c1)" d="M170 252L271 257L755 186L869 203"/>
<path style="--d:2s;" pathLength="3333" clip-path="url(#z158761c2)" d="M324 104L378 138L410 305"/>
<path style="--d:3s;" pathLength="3333" clip-path="url(#z158761c3)" d="M600 54L643 94L573 308"/>
<path style="--d:4s;" pathLength="3333" clip-path="url(#z158761c4)" d="M267 359L301 384L334 546"/>
<path style="--d:5s;" pathLength="3333" clip-path="url(#z158761c5)" d="M321 385L691 326L735 377L682 451"/>
<path style="--d:6s;" pathLength="3333" clip-path="url(#z158761c6)" d="M343 506L749 466"/>
<path style="--d:7s;" pathLength="3333" clip-path="url(#z158761c7)" d="M343 605L687 573"/>
<path style="--d:8s;" pathLength="3333" clip-path="url(#z158761c8)" d="M186 727L242 737L778 668L865 681"/>
<path style="--d:9s;" pathLength="3333" clip-path="url(#z158761c9)" d="M475 374L517 426L504 645L477 743L372 844L199 905"/>
<path style="--d:10s;" pathLength="3333" clip-path="url(#z158761c10)" d="M523 712L733 888L914 918"/>
</svg>