<!--
AnimCJK 2016-2025 Copyright FM-SH - https://github.com/parsimonhi/animCJK
Derived from:
    MakeMeAHanzi project - https://github.com/skishore/makemeahanzi
    Arphic PL KaitiM GB font
    Arphic PL UKai font
You can redistribute and/or modify this file under the terms of the Arphic Public License
as published by Arphic Technology Co., Ltd.
You should have received a copy of this license along with this file.
If not, see https://ftp.gnu.org/non-gnu/chinese-fonts-truetype/LICENSE.
-->
<svg id="z18188" class="acjk" viewBox="0 0 1024 1024" xmlns="http://www.w3.org/2000/svg">
<style>
<![CDATA[
@keyframes zk {
	to {
		stroke-dashoffset:0;
	}
}
svg.acjk path[clip-path] {
	--t:0.8s;
	animation:zk var(--t) linear forwards var(--d);
	stroke-dasharray:3337;
	stroke-dashoffset:3339;
	stroke-width:128;
	stroke-linecap:round;
	fill:none;
	stroke:#000;
}
svg.acjk path[id] {fill:#ccc;}
]]>
</style>
<path id="z18188d1" d="M498 160C512 174 527 191 542 210C548 218 556 223 566 224C572 224 577 220 581 213C584 204 585 191 582 174C577 155 549 136 499 118C490 114 483 113 480 115C476 116 474 121 475 129C475 135 484 146 498 160Z"/>
<path id="z18188d2" d="M417 303C398 306 395 316 410 324C430 335 457 336 489 328C525 318 561 308 599 298C615 293 625 289 628 287C632 282 634 275 631 271C626 264 616 260 601 258C584 255 568 258 553 266C534 274 514 280 493 287C470 293 444 297 417 303Z"/>
<path id="z18188d3" d="M439 407C429 410 430 417 444 426C448 428 455 429 463 428C503 419 557 408 587 402C601 398 606 390 600 383C592 374 580 369 564 368C550 367 495 384 439 407Z"/>
<path id="z18188d4" d="M441 515C431 518 432 525 446 534C450 536 457 537 465 536C505 527 559 516 589 510C603 506 608 498 602 491C594 482 582 477 566 476C552 475 497 492 441 515Z"/>
<path id="z18188d5" d="M463 627C457 624 445 621 428 619C410 614 414 629 418 638C434 668 448 709 458 760C460 774 465 787 475 797C484 807 491 809 493 802C495 791 496 776 493 759C489 740 489 740 487 731C478 690 474 663 473 650C473 642 471 630 463 627Z"/>
<path id="z18188d6" d="M596 709C604 676 615 655 626 644C639 629 638 618 625 611C614 605 601 597 586 588C575 581 565 583 555 589C526 604 493 617 463 627C455 630 465 653 473 650C485 646 508 640 541 632C569 624 566 647 563 664C560 677 556 693 552 710C550 724 593 723 596 709Z"/>
<path id="z18188d7" d="M493 759C519 751 557 743 609 735C630 727 610 714 596 709C582 704 566 705 552 710C527 718 505 725 487 731C478 735 484 761 493 759Z"/>
<path id="z18188d8" d="M272 434C248 434 226 435 207 437C189 438 185 433 193 420C227 357 257 299 290 251C298 239 301 231 300 226C297 216 284 203 262 182C252 173 243 170 232 173C225 174 224 181 228 192C237 219 219 279 179 371C169 392 156 413 136 434C125 444 120 452 122 461C124 472 130 485 140 497C146 504 153 505 161 499C185 479 217 465 257 460C267 458 282 434 272 434Z"/>
<path id="z18188d9" d="M319 554C293 558 265 566 236 579C219 584 217 582 227 566C247 531 281 479 328 410C343 386 356 368 370 354C376 348 377 341 374 335C367 324 355 313 337 302C328 297 321 294 317 297C310 298 309 305 311 315C313 336 303 378 272 434C262 451 262 451 257 460C207 545 174 588 165 595C158 599 155 606 157 616C157 623 165 632 180 645C187 651 193 651 201 644C228 616 270 592 326 571C332 569 325 553 319 554Z"/>
<path id="z18188d10" d="M326 571C329 580 340 593 348 598C354 600 360 598 365 589C368 582 368 572 367 561C363 539 345 520 315 501C311 497 308 499 306 506C304 508 303 514 306 521C309 532 314 542 319 554C324 565 324 565 326 571Z"/>
<path id="z18188d11" d="M141 756C156 815 166 847 172 851C176 854 183 853 189 847C196 841 202 829 207 810C211 791 195 759 160 715C153 706 148 703 144 703C141 703 135 706 133 715C130 722 135 735 141 756Z"/>
<path id="z18188d12" d="M228 696C246 743 261 769 278 777C283 780 291 776 296 766C299 758 299 747 296 735C290 708 269 688 237 672C231 670 229 672 227 680C225 683 225 688 228 696Z"/>
<path id="z18188d13" d="M312 653C331 699 346 722 357 725C364 727 370 724 376 715C379 708 378 696 376 685C372 674 365 665 355 658C338 645 328 635 321 630C316 628 312 630 311 637C308 640 308 647 312 653Z"/>
<path id="z18188d14" d="M792 427C773 426 755 426 739 427C718 427 715 422 723 406C752 345 784 282 811 236C817 224 820 216 819 211C816 202 803 189 780 173C769 165 759 162 750 166C743 168 743 174 748 184C762 211 739 285 694 388C688 400 679 411 669 424C660 433 655 443 657 450C659 462 665 472 675 483C681 490 686 489 694 486C725 467 754 458 776 452C785 449 802 427 792 427Z"/>
<path id="z18188d15" d="M855 526C828 530 793 544 763 554C746 559 744 556 754 542C772 514 803 472 844 414C859 392 886 360 901 348C907 342 909 335 906 330C900 317 888 305 870 295C861 289 854 287 849 289C844 290 842 297 843 307C843 324 823 377 792 427C781 444 781 444 776 452C730 522 701 560 692 567C683 572 681 578 683 589C684 595 692 605 706 619C712 625 717 625 726 618C738 612 757 600 768 594C787 583 787 583 796 577C813 566 843 550 864 543C870 541 861 525 855 526Z"/>
<path id="z18188d16" d="M864 543C876 567 885 581 894 584C897 584 902 582 906 578C910 572 911 562 911 546C911 534 906 520 893 508C863 477 844 465 836 468C833 468 831 471 831 479C830 486 841 500 855 526C861 537 861 537 864 543Z"/>
<path id="z18188d17" d="M681 736C696 795 706 827 712 831C716 834 723 833 729 827C736 821 742 809 747 790C751 771 735 739 700 695C693 686 688 683 684 683C681 683 675 686 673 695C670 702 675 715 681 736Z"/>
<path id="z18188d18" d="M768 676C786 723 801 749 818 757C823 760 831 756 836 746C839 738 839 727 836 715C830 688 809 668 777 652C771 650 769 652 767 660C765 663 765 668 768 676Z"/>
<path id="z18188d19" d="M852 633C871 679 886 702 897 705C904 707 910 704 916 695C919 688 918 676 916 665C912 654 905 645 895 638C878 625 868 615 861 610C856 608 852 610 851 617C848 620 848 627 852 633Z"/>
<defs>
	<clipPath id="z18188c1"><use href="#z18188d1"/></clipPath>
	<clipPath id="z18188c2"><use href="#z18188d2"/></clipPath>
	<clipPath id="z18188c3"><use href="#z18188d3"/></clipPath>
	<clipPath id="z18188c4"><use href="#z18188d4"/></clipPath>
	<clipPath id="z18188c5"><use href="#z18188d5"/></clipPath>
	<clipPath id="z18188c6"><use href="#z18188d6"/></clipPath>
	<clipPath id="z18188c7"><use href="#z18188d7"/></clipPath>
	<clipPath id="z18188c8"><use href="#z18188d8"/></clipPath>
	<clipPath id="z18188c9"><use href="#z18188d9"/></clipPath>
	<clipPath id="z18188c10"><use href="#z18188d10"/></clipPath>
	<clipPath id="z18188c11"><use href="#z18188d11"/></clipPath>
	<clipPath id="z18188c12"><use href="#z18188d12"/></clipPath>
	<clipPath id="z18188c13"><use href="#z18188d13"/></clipPath>
	<clipPath id="z18188c14"><use href="#z18188d14"/></clipPath>
	<clipPath id="z18188c15"><use href="#z18188d15"/></clipPath>
	<clipPath id="z18188c16"><use href="#z18188d16"/></clipPath>
	<clipPath id="z18188c17"><use href="#z18188d17"/></clipPath>
	<clipPath id="z18188c18"><use href="#z18188d18"/></clipPath>
	<clipPath id="z18188c19"><use href="#z18188d19"/></clipPath>
</defs>
<path style="--d:1s;" pathLength="3333" clip-path="url(#z18188c1)" d="M481 120L572 218"/>
<path style="--d:2s;" pathLength="3333" clip-path="url(#z18188c2)" d="M407 310L626 277"/>
<path style="--d:3s;" pathLength="3333" clip-path="url(#z18188c3)" d="M439 414L592 389"/>
<path style="--d:4s;" pathLength="3333" clip-path="url(#z18188c4)" d="M441 522L594 497"/>
<path style="--d:5s;" pathLength="3333" clip-path="url(#z18188c5)" d="M421 626L451 653L486 797"/>
<path style="--d:6s;" pathLength="3333" clip-path="url(#z18188c6)" d="M463 633L567 608L592 623L567 717"/>
<path style="--d:7s;" pathLength="3333" clip-path="url(#z18188c7)" d="M486 745L613 725"/>
<path style="--d:8s;" pathLength="3333" clip-path="url(#z18188c8)" d="M234 181L264 230L159 445L176 469L266 441"/>
<path style="--d:9s;" pathLength="3333" clip-path="url(#z18188c9)" d="M317 304L339 351L189 595L208 614L321 564"/>
<path style="--d:10s;" pathLength="3333" clip-path="url(#z18188c10)" d="M311 509L353 593"/>
<path style="--d:11s;" pathLength="3333" clip-path="url(#z18188c11)" d="M144 708L178 846"/>
<path style="--d:12s;" pathLength="3333" clip-path="url(#z18188c12)" d="M233 677L286 771"/>
<path style="--d:13s;" pathLength="3333" clip-path="url(#z18188c13)" d="M318 637L362 721"/>
<path style="--d:14s;" pathLength="3333" clip-path="url(#z18188c14)" d="M754 174L784 219L691 436L706 457L786 432"/>
<path style="--d:15s;" pathLength="3333" clip-path="url(#z18188c15)" d="M851 297L870 341L719 573L736 589L861 535"/>
<path style="--d:16s;" pathLength="3333" clip-path="url(#z18188c16)" d="M839 475L894 579"/>
<path style="--d:17s;" pathLength="3333" clip-path="url(#z18188c17)" d="M684 688L718 826"/>
<path style="--d:18s;" pathLength="3333" clip-path="url(#z18188c18)" d="M773 657L826 751"/>
<path style="--d:19s;" pathLength="3333" clip-path="url(#z18188c19)" d="M857 615L908 700"/>
</svg>