<!--
AnimCJK 2016-2017 Copyright Francois Mizessyn, http://gooo.free.fr/animCJK/
Derived from:
    MakeMeAHanzi project - https://github.com/skishore/makemeahanzi
    Arphic PL KaitiM GB - https://apps.ubuntu.com/cat/applications/precise/fonts-arphic-gkai00mp/
    Arphic PL UKai - https://apps.ubuntu.com/cat/applications/fonts-arphic-ukai/
You can redistribute and/or modify this file under the terms of the Arphic Public License
as published by Arphic Technology Co., Ltd.
You should have received a copy of this license (the directory "APL") along with this file;
if not, see http://ftp.gnu.org/non-gnu/chinese-fonts-truetype/LICENSE.
-->
<svg id="z19969" class="acjk" version="1.1" viewBox="0 0 1024 1024" xmlns="http://www.w3.org/2000/svg" xmlns:xlink="http://www.w3.org/1999/xlink">
<style>
<![CDATA[
	@keyframes z19969k {
		from {
			stroke:#c00;
			stroke-dashoffset:3000;
		}
		75% {
			stroke:#c00;
			stroke-dashoffset:0;
		}
		to {
			stroke:#000;
		}
	}
	#z19969 path[clip-path] {
		animation:z19969k 1s linear both;
		stroke-dasharray:3000;
		stroke-width:128;
		stroke-linecap:round;
		fill:none;
	}
	#z19969 path[clip-path="url(#z19969c1)"] {animation-delay:1s;}
	#z19969 path[clip-path="url(#z19969c2)"] {animation-delay:2s;}
	#z19969 path {fill:#ccc;}
]]>
</style>
<g transform="scale(1,-1) translate(0,-900)">
	<path id="z19969d1" d="M531 651Q736 675 868 663Q893 662 899 670Q906 683 894 696Q863 724 817 744Q801 750 775 740Q712 725 483 694Q185 660 168 657Q162 658 156 657Q141 657 141 645Q140 632 160 618Q178 605 211 594Q221 590 240 599Q348 629 470 644L531 651Z"/>
	<path id="z19969d2" d="M435 100Q407 107 373 116Q360 120 361 112Q361 103 373 94Q445 39 491 -5Q503 -15 518 2Q560 60 553 141Q541 447 548 561Q548 579 550 596Q556 624 549 635Q545 642 531 651L470 644Q485 629 485 573Q488 443 488 148Q487 112 477 99Q464 92 435 100Z"/>
	<defs>
		<clipPath id="z19969c1"><use xlink:href="#z19969d1"/></clipPath>
		<clipPath id="z19969c2"><use xlink:href="#z19969d2"/></clipPath>
	</defs>
	<path pathLength="2999" clip-path="url(#z19969c1)" d="M146 648L215 628L798 707L897 685"/>
	<path pathLength="2999" clip-path="url(#z19969c2)" d="M478 643L518 612L518 103L482 43L370 108"/>
</g>
</svg>