<!--
AnimCJK 2016-2017 Copyright Francois Mizessyn, http://gooo.free.fr/animCJK/
Derived from:
    MakeMeAHanzi project - https://github.com/skishore/makemeahanzi
    Arphic PL KaitiM GB - https://apps.ubuntu.com/cat/applications/precise/fonts-arphic-gkai00mp/
    Arphic PL UKai - https://apps.ubuntu.com/cat/applications/fonts-arphic-ukai/
You can redistribute and/or modify this file under the terms of the Arphic Public License
as published by Arphic Technology Co., Ltd.
You should have received a copy of this license (the directory "APL") along with this file;
if not, see http://ftp.gnu.org/non-gnu/chinese-fonts-truetype/LICENSE.
-->
<svg id="z19978" class="acjk" version="1.1" viewBox="0 0 1024 1024" xmlns="http://www.w3.org/2000/svg" xmlns:xlink="http://www.w3.org/1999/xlink">
<style>
<![CDATA[
	@keyframes z19978k {
		from {
			stroke:#c00;
			stroke-dashoffset:3000;
		}
		75% {
			stroke:#c00;
			stroke-dashoffset:0;
		}
		to {
			stroke:#000;
		}
	}
	#z19978 path[clip-path] {
		animation:z19978k 1s linear both;
		stroke-dasharray:3000;
		stroke-width:128;
		stroke-linecap:round;
		fill:none;
	}
	#z19978 path[clip-path="url(#z19978c1)"] {animation-delay:1s;}
	#z19978 path[clip-path="url(#z19978c2)"] {animation-delay:2s;}
	#z19978 path[clip-path="url(#z19978c3)"] {animation-delay:3s;}
	#z19978 path {fill:#ccc;}
]]>
</style>
<g transform="scale(1,-1) translate(0,-900)">
	<path id="z19978d1" d="M520 133Q523 296 525 442L525 479Q525 654 543 722Q556 746 540 761Q498 792 465 802Q449 805 432 791Q425 782 432 770Q462 727 462 629Q462 394 466 128L520 133Z"/>
	<path id="z19978d2" d="M525 442Q573 436 682 459Q769 477 776 484Q786 493 780 503Q771 516 738 523Q704 529 670 514Q637 502 601 493Q564 484 525 479L525 442Z"/>
	<path id="z19978d3" d="M528 82Q582 83 633 88Q781 100 911 81Q938 78 945 88Q954 103 940 116Q907 147 859 171Q843 178 813 169Q707 150 520 133L466 128Q363 121 309 114Q239 104 137 106Q121 106 120 93Q119 80 139 63Q184 30 234 41Q289 56 416 71Q468 78 528 82Z"/>
	<defs>
		<clipPath id="z19978c1"><use xlink:href="#z19978d1"/></clipPath>
		<clipPath id="z19978c2"><use xlink:href="#z19978d2"/></clipPath>
		<clipPath id="z19978c3"><use xlink:href="#z19978d3"/></clipPath>
	</defs>
	<path pathLength="2999" clip-path="url(#z19978c1)" d="M433 784L500 736L498 132"/>
	<path pathLength="2999" clip-path="url(#z19978c2)" d="M529 449L776 500"/>
	<path pathLength="2999" clip-path="url(#z19978c3)" d="M127 97L212 72L838 132L944 96"/>
</g>
</svg>