<!--
AnimCJK 2016-2019 Copyright Francois Mizessyn - https://github.com/parsimonhi/animCJK
Derived from:
    MakeMeAHanzi project - https://github.com/skishore/makemeahanzi
    Arphic PL KaitiM GB font
    Arphic PL UKai font
You can redistribute and/or modify this file under the terms of the Arphic Public License
as published by Arphic Technology Co., Ltd.
You should have received a copy of this license along with this file.
If not, see http://ftp.gnu.org/non-gnu/chinese-fonts-truetype/LICENSE.
-->
<svg id="z19982" class="acjk" version="1.1" viewBox="0 0 1024 1024" xmlns="http://www.w3.org/2000/svg" xmlns:xlink="http://www.w3.org/1999/xlink">
<style>
<![CDATA[
@keyframes zk {
	to {
		stroke-dashoffset:0;
	}
}
svg.acjk path[clip-path] {
	--t:0.8s;
	animation:zk var(--t) linear forwards var(--d);
	stroke-dasharray:3337;
	stroke-dashoffset:3339;
	stroke-width:128;
	stroke-linecap:round;
	fill:none;
	stroke:#000;
}
svg.acjk path[id] {fill:#ccc;}
]]>
</style>
<path id="z19982d1" d="M398 332C426 346 458 347 495 339C554 324 616 311 678 298C706 291 722 285 727 281C733 274 734 269 731 264C726 256 714 249 694 245C675 240 635 252 573 272C515 290 434 304 402 307C394 309 390 329 398 332Z"/>
<path id="z19982d2" d="M360 552C421 516 532 492 692 476C710 474 724 476 731 483C745 497 747 519 742 550C730 612 714 686 686 771C680 789 669 803 654 812C648 815 616 810 563 794C549 789 543 787 543 794C542 800 550 808 562 822C588 851 601 881 614 906C625 929 643 932 662 920C700 895 730 865 746 827C756 799 774 715 801 575C807 542 815 518 831 504C841 493 845 483 840 476C832 466 810 453 776 435C756 424 721 430 669 439C588 452 498 468 398 491C381 494 377 489 379 478C387 423 391 374 398 332C401 315 401 315 402 307C413 236 426 181 441 142C445 129 445 119 438 112C426 100 414 92 403 88C386 81 374 80 369 84C362 87 361 94 367 104C373 114 375 127 375 142C368 250 353 351 335 444C332 455 321 473 299 498C290 507 289 518 296 527C302 535 314 545 330 556C338 561 347 559 360 552Z"/>
<path id="z19982d3" d="M654 659C668 659 678 657 682 651C687 642 684 634 676 627C655 610 630 597 602 588C593 585 580 586 564 593C514 611 353 635 256 653C227 658 193 663 151 667C142 667 138 671 138 679C138 687 144 695 157 703C167 709 183 716 204 723C210 725 219 724 232 719C240 715 257 709 286 701C392 671 530 655 654 659Z"/>
<defs>
	<clipPath id="z19982c1"><use xlink:href="#z19982d1"/></clipPath>
	<clipPath id="z19982c2"><use xlink:href="#z19982d2"/></clipPath>
	<clipPath id="z19982c3"><use xlink:href="#z19982d3"/></clipPath>
</defs>
<path style="--d:1s;" pathLength="3333" clip-path="url(#z19982c1)" d="M403 327L728 268"/>
<path style="--d:2s;" pathLength="3333" clip-path="url(#z19982c2)" d="M373 90L409 129L352 517L721 452L792 495L700 826L634 871L548 797"/>
<path style="--d:3s;" pathLength="3333" clip-path="url(#z19982c3)" d="M144 679L215 691L585 623L680 643"/>
</svg>