<!--
AnimCJK 2016-2019 Copyright Francois Mizessyn - https://github.com/parsimonhi/animCJK
Derived from:
    MakeMeAHanzi project - https://github.com/skishore/makemeahanzi
    Arphic PL KaitiM GB font
    Arphic PL UKai font
You can redistribute and/or modify this file under the terms of the Arphic Public License
as published by Arphic Technology Co., Ltd.
You should have received a copy of this license along with this file.
If not, see http://ftp.gnu.org/non-gnu/chinese-fonts-truetype/LICENSE.
-->
<svg id="z19985" class="acjk" version="1.1" viewBox="0 0 1024 1024" xmlns="http://www.w3.org/2000/svg" xmlns:xlink="http://www.w3.org/1999/xlink">
<style>
<![CDATA[
@keyframes zk {
	to {
		stroke-dashoffset:0;
	}
}
svg.acjk path[clip-path] {
	--t:0.8s;
	animation:zk var(--t) linear forwards var(--d);
	stroke-dasharray:3337;
	stroke-dashoffset:3339;
	stroke-width:128;
	stroke-linecap:round;
	fill:none;
	stroke:#000;
}
svg.acjk path[id] {fill:#ccc;}
]]>
</style>
<path id="z19985d1" d="M658 761C686 594 714 457 741 350C747 323 758 301 774 285C784 274 786 261 778 248C771 237 748 221 713 193C701 184 676 186 631 199C521 230 420 244 329 244C317 243 311 246 312 252C312 260 321 268 336 279C351 290 367 295 394 288C402 285 416 283 426 281C452 275 452 275 465 272C545 253 605 246 644 243C664 241 677 242 682 250C687 259 684 275 681 296C649 475 622 632 596 765C593 785 654 781 658 761Z"/>
<path id="z19985d2" d="M426 281C434 313 433 366 411 490C405 523 405 523 402 539C390 601 373 682 355 782C352 798 400 794 403 778C419 690 436 608 452 533C459 498 459 498 463 481C477 411 484 362 494 337C499 323 501 314 496 307C485 292 475 280 465 272C456 263 423 268 426 281Z"/>
<path id="z19985d3" d="M411 490C370 497 328 497 277 500C252 501 246 511 264 522C303 546 335 546 402 539C435 535 435 535 452 533C539 522 582 513 584 513C590 508 593 502 590 496C585 487 573 480 555 474C531 466 501 474 463 481C428 487 428 487 411 490Z"/>
<path id="z19985d4" d="M625 810C723 808 817 809 909 822C925 824 935 823 940 817C946 808 944 799 936 791C916 771 891 753 862 738C852 733 830 737 812 741C765 751 706 757 658 761C617 764 617 764 596 765C553 767 429 775 403 778C371 781 371 781 355 782C279 788 197 791 127 790C117 789 111 793 111 801C110 809 115 819 128 829C156 851 186 858 216 851C246 843 309 834 403 824C463 817 576 810 625 810Z"/>
<defs>
	<clipPath id="z19985c1"><use xlink:href="#z19985d1"/></clipPath>
	<clipPath id="z19985c2"><use xlink:href="#z19985d2"/></clipPath>
	<clipPath id="z19985c3"><use xlink:href="#z19985d3"/></clipPath>
	<clipPath id="z19985c4"><use xlink:href="#z19985d4"/></clipPath>
</defs>
<path style="--d:1s;" pathLength="3333" clip-path="url(#z19985c1)" d="M321 253L382 266L682 215L730 259L630 745L607 761"/>
<path style="--d:2s;" pathLength="3333" clip-path="url(#z19985c2)" d="M433 284L465 324L367 779"/>
<path style="--d:3s;" pathLength="3333" clip-path="url(#z19985c3)" d="M262 508L585 497"/>
<path style="--d:4s;" pathLength="3333" clip-path="url(#z19985c4)" d="M115 800L199 822L843 775L939 806"/>
</svg>