<!--
AnimCJK 2016-2026 Copyright FM-SH - https://github.com/parsimonhi/animCJK
Derived from:
    MakeMeAHanzi project - https://github.com/skishore/makemeahanzi
    Arphic PL KaitiM GB font
    Arphic PL KaitiM Big5 font
You can redistribute and/or modify this file under the terms of the Arphic Public License
as published by Arphic Technology Co., Ltd.
You should have received a copy of this license along with this file.
If not, see https://ftp.gnu.org/non-gnu/chinese-fonts-truetype/LICENSE.
-->
<svg id="z19991" class="acjk" viewBox="0 0 1024 1024" xmlns="http://www.w3.org/2000/svg">
<style>
<![CDATA[
@keyframes zk {
	to {
		stroke-dashoffset:0;
	}
}
svg.acjk path[clip-path] {
	--t:0.8s;
	animation:zk var(--t) linear forwards var(--d);
	stroke-dasharray:3337;
	stroke-dashoffset:3339;
	stroke-width:128;
	stroke-linecap:round;
	fill:none;
	stroke:#000;
}
svg.acjk path[id] {fill:#ccc;}
]]>
</style>
<path id="z19991d1" d="M931 484C958 486 967 460 945 443C915 419 884 407 853 408C835 409 781 418 749 424C714 429 714 429 697 432C637 441 569 449 536 454C498 459 498 459 479 461C409 469 338 479 315 482C278 486 278 486 260 488C230 491 142 499 103 501C87 501 85 512 97 525C112 541 137 560 169 553C186 548 220 540 264 534C299 529 299 529 317 526C343 521 454 506 479 504C516 500 516 500 535 498C559 495 667 485 695 484C728 483 728 483 745 482C774 480 877 479 931 484Z"/>
<path id="z19991d2" d="M304 262C304 240 311 216 262 186C236 170 186 178 218 218C233 237 250 377 260 488C263 519 263 519 264 534C274 652 286 791 293 836C296 858 301 886 306 901C318 938 338 927 338 887C337 857 337 857 337 842C336 817 322 656 317 526C316 497 316 497 315 482C313 448 303 304 304 262Z"/>
<path id="z19991d3" d="M482 828C479 796 479 563 479 504C479 475 479 475 479 461C479 287 480 204 458 150C450 132 445 119 468 117C497 113 546 145 544 175C542 201 538 333 536 454C535 483 535 483 535 498C533 547 528 794 523 823C520 837 482 842 482 828Z"/>
<path id="z19991d4" d="M678 807C677 763 693 523 695 484C696 449 696 449 697 432C701 313 706 177 704 162C698 135 701 92 735 122C780 160 780 170 768 207C762 223 755 335 749 424C746 463 746 463 745 482C742 523 727 769 719 807C716 820 678 821 678 807Z"/>
<path id="z19991d5" d="M337 842C366 839 451 832 483 828C510 825 510 825 523 823C549 819 666 807 678 807C705 807 705 807 719 807C771 807 773 842 717 847C670 850 411 873 338 887C323 890 322 842 337 842Z"/>
<defs>
	<clipPath id="z19991c1"><use href="#z19991d1"/></clipPath>
	<clipPath id="z19991c2"><use href="#z19991d2"/></clipPath>
	<clipPath id="z19991c3"><use href="#z19991d3"/></clipPath>
	<clipPath id="z19991c4"><use href="#z19991d4"/></clipPath>
	<clipPath id="z19991c5"><use href="#z19991d5"/></clipPath>
</defs>
<path style="--d:1s;" pathLength="3333" clip-path="url(#z19991c1)" d="M96 512L164 525L843 444L953 457"/>
<path style="--d:2s;" pathLength="3333" clip-path="url(#z19991c2)" d="M214 189L268 253L322 919"/>
<path style="--d:3s;" pathLength="3333" clip-path="url(#z19991c3)" d="M459 128L501 163L508 209L500 834"/>
<path style="--d:4s;" pathLength="3333" clip-path="url(#z19991c4)" d="M715 115L739 181L701 815"/>
<path style="--d:5s;" pathLength="3333" clip-path="url(#z19991c5)" d="M328 874L753 825"/>
</svg>