<!--
AnimCJK 2016-2019 Copyright Francois Mizessyn - https://github.com/parsimonhi/animCJK
Derived from:
    MakeMeAHanzi project - https://github.com/skishore/makemeahanzi
    Arphic PL KaitiM GB font
    Arphic PL UKai font
You can redistribute and/or modify this file under the terms of the Arphic Public License
as published by Arphic Technology Co., Ltd.
You should have received a copy of this license along with this file.
If not, see http://ftp.gnu.org/non-gnu/chinese-fonts-truetype/LICENSE.
-->
<svg id="z20006" class="acjk" version="1.1" viewBox="0 0 1024 1024" xmlns="http://www.w3.org/2000/svg" xmlns:xlink="http://www.w3.org/1999/xlink">
<style>
<![CDATA[
@keyframes zk {
	to {
		stroke-dashoffset:0;
	}
}
svg.acjk path[clip-path] {
	--t:0.8s;
	animation:zk var(--t) linear forwards var(--d);
	stroke-dasharray:3337;
	stroke-dashoffset:3339;
	stroke-width:128;
	stroke-linecap:round;
	fill:none;
	stroke:#000;
}
svg.acjk path[id] {fill:#ccc;}
]]>
</style>
<path id="z20006d1" d="M339 173Q378 236 414 258Q430 264 443 251Q452 238 451 218Q447 191 430 174Q412 156 359 133Q341 124 331 127Q324 128 324 142Q324 155 339 173Z"/>
<path id="z20006d2" d="M554 295Q603 249 634 218Q707 140 729 126Q751 111 736 94Q718 78 686 66Q658 56 644 60Q631 64 637 78Q650 112 532 289Q529 293 526 300C521 308 546 301 554 295Z"/>
<path id="z20006d3" d="M609 335Q670 331 747 330Q808 333 816 321Q820 309 804 295Q741 250 675 272Q623 281 554 295C535 298 535 298 526 300Q513 301 499 304Q381 322 241 341Q219 344 235 361Q268 391 307 381Q338 372 374 365C408 359 408 359 425 356Q477 344 551 339C590 336 590 336 609 335Z"/>
<path id="z20006d4" d="M374 365Q393 404 398 486Q399 571 404 816C404 832 453 828 453 812Q453 418 454 407Q463 380 425 356C410 347 368 349 374 365Z"/>
<path id="z20006d5" d="M613 797Q614 724 617 659C618 643 618 643 618 635Q622 434 628 380Q635 356 609 335C595 321 544 321 551 339Q569 381 569 479Q568 572 565 802C565 818 613 813 613 797Z"/>
<path id="z20006d6" d="M233 587Q254 621 275 661Q285 680 303 684Q315 687 325 675Q335 660 335 625Q335 601 308 576Q236 522 221 525Q214 526 211 542Q211 555 233 587Z"/>
<path id="z20006d7" d="M619 659Q635 649 790 541Q812 522 840 511Q865 499 852 479Q837 460 807 442Q779 426 765 429Q749 430 755 446Q758 482 688 559Q654 596 618 635C613 641 610 662 617 659C618 659 618 659 619 659Z"/>
<path id="z20006d8" d="M404 816Q268 825 118 836Q90 837 109 861Q142 897 214 887Q467 833 913 857Q938 858 946 848Q953 833 933 814Q869 760 819 769Q737 782 613 797C581 800 581 800 565 802Q535 803 504 807Q479 808 453 812C420 815 420 815 404 816Z"/>
<defs>
	<clipPath id="z20006c1"><use xlink:href="#z20006d1"/></clipPath>
	<clipPath id="z20006c2"><use xlink:href="#z20006d2"/></clipPath>
	<clipPath id="z20006c3"><use xlink:href="#z20006d3"/></clipPath>
	<clipPath id="z20006c4"><use xlink:href="#z20006d4"/></clipPath>
	<clipPath id="z20006c5"><use xlink:href="#z20006d5"/></clipPath>
	<clipPath id="z20006c6"><use xlink:href="#z20006d6"/></clipPath>
	<clipPath id="z20006c7"><use xlink:href="#z20006d7"/></clipPath>
	<clipPath id="z20006c8"><use xlink:href="#z20006d8"/></clipPath>
</defs>
<path style="--d:1s;" pathLength="3333" clip-path="url(#z20006c1)" d="M331 137L406 202L427 256"/>
<path style="--d:2s;" pathLength="3333" clip-path="url(#z20006c2)" d="M644 69L685 120L535 294"/>
<path style="--d:3s;" pathLength="3333" clip-path="url(#z20006c3)" d="M237 349L293 358L704 298L811 318"/>
<path style="--d:4s;" pathLength="3333" clip-path="url(#z20006c4)" d="M383 367L421 399L422 814"/>
<path style="--d:5s;" pathLength="3333" clip-path="url(#z20006c5)" d="M559 342L596 385L589 799"/>
<path style="--d:6s;" pathLength="3333" clip-path="url(#z20006c6)" d="M221 533L291 611L318 677"/>
<path style="--d:7s;" pathLength="3333" clip-path="url(#z20006c7)" d="M763 435L802 502L622 648"/>
<path style="--d:8s;" pathLength="3333" clip-path="url(#z20006c8)" d="M108 846L191 860L826 810L941 826"/>
</svg>