<!--
AnimCJK 2016-2019 Copyright Francois Mizessyn - https://github.com/parsimonhi/animCJK
Derived from:
    MakeMeAHanzi project - https://github.com/skishore/makemeahanzi
    Arphic PL KaitiM GB font
    Arphic PL UKai font
You can redistribute and/or modify this file under the terms of the Arphic Public License
as published by Arphic Technology Co., Ltd.
You should have received a copy of this license along with this file.
If not, see http://ftp.gnu.org/non-gnu/chinese-fonts-truetype/LICENSE.
-->
<svg id="z20025" class="acjk" version="1.1" viewBox="0 0 1024 1024" xmlns="http://www.w3.org/2000/svg" xmlns:xlink="http://www.w3.org/1999/xlink">
<style>
<![CDATA[
@keyframes zk {
	to {
		stroke-dashoffset:0;
	}
}
svg.acjk path[clip-path] {
	--t:0.8s;
	animation:zk var(--t) linear forwards var(--d);
	stroke-dasharray:3337;
	stroke-dashoffset:3339;
	stroke-width:128;
	stroke-linecap:round;
	fill:none;
	stroke:#000;
}
svg.acjk path[id] {fill:#ccc;}
]]>
</style>
<path id="z20025d1" d="M378 185C349 172 330 167 321 169C307 171 306 180 318 196C339 226 349 294 348 401C348 426 348 468 346 493C343 526 343 526 341 542C330 641 278 758 206 837C169 876 149 896 149 900C147 904 152 906 160 906C170 905 183 899 197 889C233 861 263 833 285 807C343 737 384 623 392 534C395 503 395 503 396 488C398 459 401 343 401 253C401 236 405 224 406 216C409 202 391 190 378 185Z"/>
<path id="z20025d2" d="M587 842C564 836 541 832 517 828C502 825 491 829 496 833C542 871 584 896 610 924C621 936 630 946 642 950C648 952 655 950 661 943C691 905 704 866 702 827C696 738 692 631 690 506C689 474 689 474 689 458C685 302 690 214 701 195C709 180 709 169 701 162C684 148 663 135 637 125C624 120 611 119 600 126C540 157 467 177 378 185C364 187 392 219 406 216C406 216 468 204 589 177C604 173 613 173 617 182C623 196 627 216 629 241C632 319 634 394 634 464C634 495 634 495 634 511C634 715 628 825 616 841C612 845 602 845 587 842Z"/>
<path id="z20025d3" d="M468 324C489 363 507 393 531 408C540 413 551 410 559 402C565 394 569 384 569 372C569 355 562 340 552 328C530 302 503 286 472 280C463 278 456 284 456 293C455 301 460 311 468 324Z"/>
<path id="z20025d4" d="M690 506C750 500 827 501 923 513C939 514 948 514 953 508C958 499 958 489 949 481C901 436 855 425 812 437C770 448 729 453 689 458C652 462 652 462 634 464C554 472 471 480 396 488C363 491 363 491 346 493C269 500 210 511 102 510C92 509 86 514 86 522C85 530 91 540 104 550C133 572 162 580 187 571C205 564 256 555 341 542C375 537 375 537 392 534C452 524 582 515 634 511C671 508 671 508 690 506Z"/>
<defs>
	<clipPath id="z20025c1"><use xlink:href="#z20025d1"/></clipPath>
	<clipPath id="z20025c2"><use xlink:href="#z20025d2"/></clipPath>
	<clipPath id="z20025c3"><use xlink:href="#z20025d3"/></clipPath>
	<clipPath id="z20025c4"><use xlink:href="#z20025d4"/></clipPath>
</defs>
<path style="--d:1s;" pathLength="3333" clip-path="url(#z20025c1)" d="M316 177L371 233L353 610L275 784L157 900"/>
<path style="--d:2s;" pathLength="3333" clip-path="url(#z20025c2)" d="M387 186L426 196L610 148L664 185L659 850L632 899L505 833"/>
<path style="--d:3s;" pathLength="3333" clip-path="url(#z20025c3)" d="M463 287L551 405"/>
<path style="--d:4s;" pathLength="3333" clip-path="url(#z20025c4)" d="M90 521L186 540L832 468L952 497"/>
</svg>