<!--
AnimCJK 2016-2026 Copyright FM-SH - https://github.com/parsimonhi/animCJK
Derived from:
    MakeMeAHanzi project - https://github.com/skishore/makemeahanzi
    Arphic PL KaitiM GB font
    Arphic PL KaitiM Big5 font
You can redistribute and/or modify this file under the terms of the Arphic Public License
as published by Arphic Technology Co., Ltd.
You should have received a copy of this license along with this file.
If not, see https://ftp.gnu.org/non-gnu/chinese-fonts-truetype/LICENSE.
-->
<svg id="z20146" class="acjk" viewBox="0 0 1024 1024" xmlns="http://www.w3.org/2000/svg">
<style>
<![CDATA[
@keyframes zk {
	to {
		stroke-dashoffset:0;
	}
}
svg.acjk path[clip-path] {
	--t:0.8s;
	animation:zk var(--t) linear forwards var(--d);
	stroke-dasharray:3337;
	stroke-dashoffset:3339;
	stroke-width:128;
	stroke-linecap:round;
	fill:none;
	stroke:#000;
}
svg.acjk path[id] {fill:#ccc;}
]]>
</style>
<path id="z20146d1" d="M450 116C471 129 491 146 514 163C524 171 535 173 546 172C552 170 558 166 561 156C563 145 560 129 551 110C541 89 503 74 438 67C427 65 419 66 416 69C412 71 411 77 414 87C415 93 429 102 450 116Z"/>
<path id="z20146d2" d="M308 223C283 224 278 234 296 246C323 263 362 266 412 259C490 247 570 235 652 223C692 216 714 209 721 205C727 199 729 194 726 188C721 179 709 171 691 167C666 160 627 170 573 185C487 208 397 216 308 223Z"/>
<path id="z20146d3" d="M331 331C359 385 381 414 397 419C405 421 413 418 419 407C422 399 422 387 419 374C415 360 404 350 390 340C366 322 350 311 340 307C335 304 332 306 329 314C326 318 327 324 331 331Z"/>
<path id="z20146d4" d="M564 436C620 362 643 333 667 308C675 298 679 294 676 287C670 275 659 262 642 247C626 232 602 235 607 254C618 299 533 418 530 441C526 452 557 445 564 436Z"/>
<path id="z20146d5" d="M494 480C551 472 669 470 845 470C878 470 879 450 860 435C824 406 793 396 767 402C713 413 645 424 564 436C541 439 541 439 530 441C486 447 277 471 145 485C130 486 127 493 139 505C168 536 191 531 211 527C299 507 399 491 454 485C481 482 481 482 494 480Z"/>
<path id="z20146d6" d="M530 619C576 614 631 612 695 612C714 613 780 610 745 581C682 534 637 566 531 581C498 586 498 586 481 588C446 592 322 613 243 624C230 625 228 630 238 641C263 667 295 659 300 658C344 645 393 634 450 627C460 625 471 625 482 624C514 621 514 621 530 619Z"/>
<path id="z20146d7" d="M479 956C485 968 497 967 507 958C529 935 533 904 532 858C531 837 526 744 530 619C531 594 531 594 531 581C532 520 570 519 494 480C482 473 449 473 454 485C456 494 478 510 481 588C482 612 482 612 482 624C482 637 482 652 481 667C480 731 472 824 466 857C461 880 461 922 479 956Z"/>
<path id="z20146d8" d="M450 627C411 679 349 745 213 845C189 862 199 868 238 853C308 824 438 725 482 667C509 633 476 592 450 627Z"/>
<path id="z20146d9" d="M588 693C625 726 669 765 714 813C727 827 747 848 763 827C769 817 769 799 761 769C749 730 693 694 592 662C569 654 574 680 588 693Z"/>
<defs>
	<clipPath id="z20146c1"><use href="#z20146d1"/></clipPath>
	<clipPath id="z20146c2"><use href="#z20146d2"/></clipPath>
	<clipPath id="z20146c3"><use href="#z20146d3"/></clipPath>
	<clipPath id="z20146c4"><use href="#z20146d4"/></clipPath>
	<clipPath id="z20146c5"><use href="#z20146d5"/></clipPath>
	<clipPath id="z20146c6"><use href="#z20146d6"/></clipPath>
	<clipPath id="z20146c7"><use href="#z20146d7"/></clipPath>
	<clipPath id="z20146c8"><use href="#z20146d8"/></clipPath>
	<clipPath id="z20146c9"><use href="#z20146d9"/></clipPath>
</defs>
<path style="--d:1s;" pathLength="3333" clip-path="url(#z20146c1)" d="M415 76L505 114L553 165"/>
<path style="--d:2s;" pathLength="3333" clip-path="url(#z20146c2)" d="M294 233L391 239L723 189"/>
<path style="--d:3s;" pathLength="3333" clip-path="url(#z20146c3)" d="M334 312L408 413"/>
<path style="--d:4s;" pathLength="3333" clip-path="url(#z20146c4)" d="M614 247L639 294L536 441"/>
<path style="--d:5s;" pathLength="3333" clip-path="url(#z20146c5)" d="M137 492L191 505L774 435L869 455"/>
<path style="--d:6s;" pathLength="3333" clip-path="url(#z20146c6)" d="M237 631L671 584L750 594"/>
<path style="--d:7s;" pathLength="3333" clip-path="url(#z20146c7)" d="M459 480L508 531L497 960"/>
<path style="--d:8s;" pathLength="3333" clip-path="url(#z20146c8)" d="M472 616L389 728L208 856"/>
<path style="--d:9s;" pathLength="3333" clip-path="url(#z20146c9)" d="M584 667L700 747L759 828"/>
</svg>