<!--
AnimCJK 2016-2018 Copyright Francois Mizessyn, https://github.com/parsimonhi/animCJK
Derived from:
    MakeMeAHanzi project - https://github.com/skishore/makemeahanzi
    Arphic PL KaitiM GB - https://apps.ubuntu.com/cat/applications/precise/fonts-arphic-gkai00mp/
    Arphic PL UKai - https://apps.ubuntu.com/cat/applications/fonts-arphic-ukai/
You can redistribute and/or modify this file under the terms of the Arphic Public License
as published by Arphic Technology Co., Ltd.
You should have received a copy of this license (the directory "APL") along with this file;
if not, see http://ftp.gnu.org/non-gnu/chinese-fonts-truetype/LICENSE.
-->
<svg id="z20171" class="acjk" version="1.1" viewBox="0 0 1024 1024" xmlns="http://www.w3.org/2000/svg" xmlns:xlink="http://www.w3.org/1999/xlink">
<style>
<![CDATA[
@keyframes z20171k {
	from {
		stroke:#c00;
		stroke-dashoffset:3334;
	}
	75% {
		stroke:#c00;
		stroke-dashoffset:0;
	}
	to {
		stroke:#000;
	}
}
#z20171 path[clip-path] {
	animation:z20171k 1s linear both;
	stroke-dasharray:3334;
	stroke-width:128;
	stroke-linecap:round;
	fill:none;
}
#z20171 path[clip-path="url(#z20171c1)"] {animation-delay:1s;}
#z20171 path[clip-path="url(#z20171c2)"] {animation-delay:2s;}
#z20171 path[clip-path="url(#z20171c3)"] {animation-delay:3s;}
#z20171 path[clip-path="url(#z20171c4)"] {animation-delay:4s;}
#z20171 path {fill:#ccc;}
]]>
</style>
<path id="z20171d1" d="M513 177Q543 135 543 133Q543 121 528 105Q492 72 455 76Q445 79 448 92Q463 191 296 387Q200 481 78 583Q68 589 80 592Q158 582 299 453Q387 363 496 202L513 177 Z"/>
<path id="z20171d2" d="M496 202Q605 344 742 493Q764 518 803 516Q933 512 974 504Q986 501 988 495Q988 488 970 480Q792 423 731 377Q631 295 513 177L496 202 Z"/>
<path id="z20171d3" d="M321 490Q351 526 326 659Q325 662 324 667Q296 769 195 850Q186 856 179 863Q166 873 178 876Q193 876 228 860Q270 841 300 810Q378 735 392 621Q407 537 414 521Q423 502 406 493Q355 459 328 469Q315 475 321 490 Z"/>
<path id="z20171d4" d="M538 435Q583 543 561 772Q543 902 549 921Q555 957 576 979Q589 992 601 979Q634 922 627 851Q615 689 625 521Q626 496 630 472Q639 444 612 430Q593 417 570 406Q554 400 543 407Q533 416 538 435 Z"/>
<defs>
	<clipPath id="z20171c1"><use xlink:href="#z20171d1"/></clipPath>
	<clipPath id="z20171c2"><use xlink:href="#z20171d2"/></clipPath>
	<clipPath id="z20171c3"><use xlink:href="#z20171d3"/></clipPath>
	<clipPath id="z20171c4"><use xlink:href="#z20171d4"/></clipPath>
</defs>
<path pathLength="3333" clip-path="url(#z20171c1)" d="M456 85L493 138L385 314L265 451L83 586"/>
<path pathLength="3333" clip-path="url(#z20171c2)" d="M511 185L773 457L980 493"/>
<path pathLength="3333" clip-path="url(#z20171c3)" d="M325 476L376 521L347 688L279 799L181 870"/>
<path pathLength="3333" clip-path="url(#z20171c4)" d="M546 410L592 467L578 979"/>
</svg>