<!--
AnimCJK 2016-2017 Copyright Francois Mizessyn, http://gooo.free.fr/animCJK/
Derived from:
    MakeMeAHanzi project - https://github.com/skishore/makemeahanzi
    Arphic PL KaitiM GB - https://apps.ubuntu.com/cat/applications/precise/fonts-arphic-gkai00mp/
    Arphic PL UKai - https://apps.ubuntu.com/cat/applications/fonts-arphic-ukai/
You can redistribute and/or modify this file under the terms of the Arphic Public License
as published by Arphic Technology Co., Ltd.
You should have received a copy of this license (the directory "APL") along with this file;
if not, see http://ftp.gnu.org/non-gnu/chinese-fonts-truetype/LICENSE.
-->
<svg id="z20238" class="acjk" version="1.1" viewBox="0 0 1024 1024" xmlns="http://www.w3.org/2000/svg" xmlns:xlink="http://www.w3.org/1999/xlink">
<style>
<![CDATA[
	@keyframes z20238k {
		from {
			stroke:#c00;
			stroke-dashoffset:3000;
		}
		75% {
			stroke:#c00;
			stroke-dashoffset:0;
		}
		to {
			stroke:#000;
		}
	}
	#z20238 path[clip-path] {
		animation:z20238k 1s linear both;
		stroke-dasharray:3000;
		stroke-width:128;
		stroke-linecap:round;
		fill:none;
	}
	#z20238 path[clip-path="url(#z20238c1)"] {animation-delay:1s;}
	#z20238 path[clip-path="url(#z20238c2)"] {animation-delay:2s;}
	#z20238 path[clip-path="url(#z20238c3)"] {animation-delay:3s;}
	#z20238 path[clip-path="url(#z20238c4)"] {animation-delay:4s;}
	#z20238 path[clip-path="url(#z20238c5)"] {animation-delay:5s;}
	#z20238 path[clip-path="url(#z20238c6)"] {animation-delay:6s;}
	#z20238 path {fill:#ccc;}
]]>
</style>
<g transform="scale(1,-1) translate(0,-900)">
	<path id="z20238d1" d="M264 530Q366 686 378 697Q388 707 383 722Q379 735 350 760Q322 779 302 779Q283 778 291 754Q306 720 292 692Q252 598 192 510Q134 425 55 332Q45 322 42 315Q38 303 53 306Q86 309 237 493L264 530Z"/>
	<path id="z20238d2" d="M237 493Q238 489 242 484Q258 450 259 418Q258 376 257 336Q254 224 222 107Q218 88 226 54Q238 20 249 8Q267 -8 279 19Q294 59 293 106Q299 386 309 448Q316 475 307 486Q268 528 264 530L237 493Z"/>
	<path id="z20238d3" d="M613 551Q685 572 761 591Q816 607 824 615Q833 624 828 632Q821 644 790 650Q759 654 729 641Q674 619 617 600L565 585Q502 570 432 558Q395 551 422 535Q467 511 526 529Q542 535 564 538L613 551Z"/>
	<path id="z20238d4" d="M602 418Q608 485 613 551L617 600Q620 690 643 788Q647 798 626 815Q590 834 565 840Q549 844 540 835Q533 828 540 811Q564 777 563 753Q566 674 565 585L564 538Q563 474 558 402L602 418Z"/>
	<path id="z20238d5" d="M641 181Q681 244 719 340Q731 371 752 392Q771 410 757 424Q742 437 708 448Q683 455 654 440Q630 430 602 418L558 402Q513 389 446 376Q430 375 426 366Q422 357 443 351Q483 338 536 358Q621 392 637 392Q659 391 655 366Q636 279 599 218L577 185Q505 97 360 53Q345 47 358 39Q365 33 411 37Q522 46 613 144L641 181Z"/>
	<path id="z20238d6" d="M613 144Q760 -15 824 -10Q851 -4 947 12Q960 15 974 21Q981 30 968 38Q952 45 822 77Q741 98 641 181L599 218Q562 252 523 295Q501 320 464 324Q452 325 443 318Q439 311 448 304Q455 298 464 294Q486 285 577 185L613 144Z"/>
	<defs>
		<clipPath id="z20238c1"><use xlink:href="#z20238d1"/></clipPath>
		<clipPath id="z20238c2"><use xlink:href="#z20238d2"/></clipPath>
		<clipPath id="z20238c3"><use xlink:href="#z20238d3"/></clipPath>
		<clipPath id="z20238c4"><use xlink:href="#z20238d4"/></clipPath>
		<clipPath id="z20238c5"><use xlink:href="#z20238d5"/></clipPath>
		<clipPath id="z20238c6"><use xlink:href="#z20238d6"/></clipPath>
	</defs>
	<path pathLength="2999" clip-path="url(#z20238c1)" d="M296 774L339 704L217 505L49 315"/>
	<path pathLength="2999" clip-path="url(#z20238c2)" d="M263 523L283 458L255 7"/>
	<path pathLength="2999" clip-path="url(#z20238c3)" d="M417 548L495 546L825 628"/>
	<path pathLength="2999" clip-path="url(#z20238c4)" d="M544 830L602 779L583 447L564 412"/>
	<path pathLength="2999" clip-path="url(#z20238c5)" d="M431 367L501 368L654 417L709 394L577 145L474 74L359 43"/>
	<path pathLength="2999" clip-path="url(#z20238c6)" d="M451 313L503 289L683 112L780 47L969 30"/>
</g>
</svg>