<!--
AnimCJK 2016-2025 Copyright FM-SH - https://github.com/parsimonhi/animCJK
Derived from:
    MakeMeAHanzi project - https://github.com/skishore/makemeahanzi
    Arphic PL KaitiM GB font
    Arphic PL KaitiM Big5 font
You can redistribute and/or modify this file under the terms of the Arphic Public License
as published by Arphic Technology Co., Ltd.
You should have received a copy of this license along with this file.
If not, see https://ftp.gnu.org/non-gnu/chinese-fonts-truetype/LICENSE.
-->
<svg id="z20284" class="acjk" viewBox="0 0 1024 1024" xmlns="http://www.w3.org/2000/svg">
<style>
<![CDATA[
@keyframes zk {
	to {
		stroke-dashoffset:0;
	}
}
svg.acjk path[clip-path] {
	--t:0.8s;
	animation:zk var(--t) linear forwards var(--d);
	stroke-dasharray:3337;
	stroke-dashoffset:3339;
	stroke-width:128;
	stroke-linecap:round;
	fill:none;
	stroke:#000;
}
svg.acjk path[id] {fill:#ccc;}
]]>
</style>
<path id="z20284d1" d="M247 392C280 354 314 310 348 260C370 227 388 201 407 186C414 179 416 170 414 160C411 151 401 137 381 120C363 104 346 97 333 97C320 97 315 106 320 122C327 146 327 167 318 186C265 292 177 412 53 544C46 550 40 555 39 560C35 567 40 571 50 570C76 566 128 522 205 438C210 432 216 426 222 420C239 401 239 401 247 392Z"/>
<path id="z20284d2" d="M222 420Q226 433 232 442Q260 502 241 680Q234 731 221 785Q206 834 243 882Q244 885 248 888Q267 904 279 876Q294 834 294 786Q294 539 302 483Q309 455 299 444Q281 422 267 408Q258 398 247 392C236 386 217 408 222 420Z"/>
<path id="z20284d3" d="M410 670C428 548 425 493 419 471C412 448 403 427 391 411C382 398 379 390 385 386C388 383 396 381 407 383C436 388 455 396 464 403C472 408 473 417 473 429C468 524 467 538 470 630C470 654 405 694 410 670Z"/>
<path id="z20284d4" d="M420 756C391 743 347 711 410 670C450 643 450 643 470 630C496 612 618 503 627 501C630 499 633 502 633 506C631 512 625 519 618 528C524 629 472 697 444 743C437 753 427 759 420 756Z"/>
<path id="z20284d5" d="M552 282C572 296 594 313 617 333C627 341 638 344 649 343C656 341 662 337 665 328C667 317 665 301 657 281C647 258 609 242 543 232C532 230 524 229 520 233C517 235 515 241 517 251C518 258 531 267 552 282Z"/>
<path id="z20284d6" d="M753 638C783 579 797 541 813 471C827 405 829 372 841 298C843 280 849 263 857 247C863 233 859 223 848 216C810 191 776 181 756 189C745 193 743 201 749 211C771 248 774 322 757 434C752 465 744 498 733 533C694 649 616 747 507 830C495 838 484 847 473 857C462 864 462 870 472 871C482 871 507 866 534 854C582 830 623 798 660 763C693 730 721 698 740 663C749 646 749 646 753 638Z"/>
<path id="z20284d7" d="M740 663Q815 733 905 836Q921 857 936 862Q945 863 953 853Q966 840 954 795Q942 732 753 638C744 635 732 657 740 663Z"/>
<defs>
	<clipPath id="z20284c1"><use href="#z20284d1"/></clipPath>
	<clipPath id="z20284c2"><use href="#z20284d2"/></clipPath>
	<clipPath id="z20284c3"><use href="#z20284d3"/></clipPath>
	<clipPath id="z20284c4"><use href="#z20284d4"/></clipPath>
	<clipPath id="z20284c5"><use href="#z20284d5"/></clipPath>
	<clipPath id="z20284c6"><use href="#z20284d6"/></clipPath>
	<clipPath id="z20284c7"><use href="#z20284d7"/></clipPath>
</defs>
<path style="--d:1s;" pathLength="3333" clip-path="url(#z20284c1)" d="M328 107L366 178L223 382L46 564"/>
<path style="--d:2s;" pathLength="3333" clip-path="url(#z20284c2)" d="M244 401L274 483L258 889"/>
<path style="--d:3s;" pathLength="3333" clip-path="url(#z20284c3)" d="M389 390L441 431L449 532L444 622L434 641"/>
<path style="--d:4s;" pathLength="3333" clip-path="url(#z20284c4)" d="M387 713L420 711L626 508"/>
<path style="--d:5s;" pathLength="3333" clip-path="url(#z20284c5)" d="M525 242L609 282L656 336"/>
<path style="--d:6s;" pathLength="3333" clip-path="url(#z20284c6)" d="M753 198L812 249L785 453L740 596L641 744L473 866"/>
<path style="--d:7s;" pathLength="3333" clip-path="url(#z20284c7)" d="M745 659L881 755L943 857"/>
</svg>