<!--
AnimCJK 2016-2018 Copyright Francois Mizessyn, https://github.com/parsimonhi/animCJK
Derived from:
    MakeMeAHanzi project - https://github.com/skishore/makemeahanzi
    Arphic PL KaitiM GB - https://apps.ubuntu.com/cat/applications/precise/fonts-arphic-gkai00mp/
    Arphic PL UKai - https://apps.ubuntu.com/cat/applications/fonts-arphic-ukai/
You can redistribute and/or modify this file under the terms of the Arphic Public License
as published by Arphic Technology Co., Ltd.
You should have received a copy of this license (the directory "APL") along with this file;
if not, see http://ftp.gnu.org/non-gnu/chinese-fonts-truetype/LICENSE.
-->
<svg id="z20303" class="acjk" version="1.1" viewBox="0 0 1024 1024" xmlns="http://www.w3.org/2000/svg" xmlns:xlink="http://www.w3.org/1999/xlink">
<style>
<![CDATA[
@keyframes z20303k {
	from {
		stroke:#c00;
		stroke-dashoffset:3334;
	}
	75% {
		stroke:#c00;
		stroke-dashoffset:0;
	}
	to {
		stroke:#000;
	}
}
#z20303 path[clip-path] {
	animation:z20303k 1s linear both;
	stroke-dasharray:3334;
	stroke-width:128;
	stroke-linecap:round;
	fill:none;
}
#z20303 path[clip-path="url(#z20303c1)"] {animation-delay:1s;}
#z20303 path[clip-path="url(#z20303c2)"] {animation-delay:2s;}
#z20303 path[clip-path="url(#z20303c3)"] {animation-delay:3s;}
#z20303 path[clip-path="url(#z20303c4)"] {animation-delay:4s;}
#z20303 path[clip-path="url(#z20303c5)"] {animation-delay:5s;}
#z20303 path[clip-path="url(#z20303c6)"] {animation-delay:6s;}
#z20303 path[clip-path="url(#z20303c7)"] {animation-delay:7s;}
#z20303 path {fill:#ccc;}
]]>
</style>
<path id="z20303d1" d="M255 420Q304 357 359 270Q387 219 412 195Q422 183 417 168Q413 153 381 129Q351 108 331 109Q310 110 319 135Q334 169 321 197Q282 293 223 382Q166 467 87 562Q77 574 74 580Q70 593 86 590Q128 580 228 453L255 420 Z"/>
<path id="z20303d2" d="M228 453Q229 459 234 465Q249 498 251 575Q251 704 226 809Q216 854 250 905Q251 905 253 908Q271 924 283 897Q298 857 297 810Q294 560 301 504Q308 477 299 466Q260 424 255 420L228 453 Z"/>
<path id="z20303d3" d="M569 183Q602 208 637 240Q653 253 671 252Q684 251 688 236Q692 218 681 185Q674 163 637 147Q552 122 536 128Q530 134 533 148Q537 161 569 183 Z"/>
<path id="z20303d4" d="M640 376Q701 363 767 352Q825 340 834 333Q843 326 839 316Q832 304 802 295Q775 289 659 323Q524 350 431 359Q394 363 420 382Q459 409 519 396Q552 390 586 385L640 376 Z"/>
<path id="z20303d5" d="M643 772Q644 681 648 600L649 556Q652 390 653 389Q646 380 640 376L586 385Q599 406 600 567L600 608Q599 677 599 778L643 772 Z"/>
<path id="z20303d6" d="M648 600Q678 594 785 582Q795 583 805 570Q806 558 783 548Q752 526 654 555Q651 555 649 556L600 567Q564 573 440 587Q412 591 434 608Q461 633 508 625Q548 616 600 608L648 600 Z"/>
<path id="z20303d7" d="M599 778Q487 788 354 801Q332 802 347 821Q362 836 380 842Q402 849 419 844Q638 793 900 814Q903 813 908 814Q929 814 934 805Q940 793 923 778Q869 736 831 744Q759 757 643 772L599 778 Z"/>
<defs>
	<clipPath id="z20303c1"><use xlink:href="#z20303d1"/></clipPath>
	<clipPath id="z20303c2"><use xlink:href="#z20303d2"/></clipPath>
	<clipPath id="z20303c3"><use xlink:href="#z20303d3"/></clipPath>
	<clipPath id="z20303c4"><use xlink:href="#z20303d4"/></clipPath>
	<clipPath id="z20303c5"><use xlink:href="#z20303d5"/></clipPath>
	<clipPath id="z20303c6"><use xlink:href="#z20303d6"/></clipPath>
	<clipPath id="z20303c7"><use xlink:href="#z20303d7"/></clipPath>
</defs>
<path pathLength="3333" clip-path="url(#z20303c1)" d="M322 116L371 184L231 412L80 584"/>
<path pathLength="3333" clip-path="url(#z20303c2)" d="M253 428L274 492L267 908"/>
<path pathLength="3333" clip-path="url(#z20303c3)" d="M539 132L631 185L679 244"/>
<path pathLength="3333" clip-path="url(#z20303c4)" d="M416 370L505 374L836 318"/>
<path pathLength="3333" clip-path="url(#z20303c5)" d="M595 392L624 418L618 775"/>
<path pathLength="3333" clip-path="url(#z20303c6)" d="M433 596L797 568"/>
<path pathLength="3333" clip-path="url(#z20303c7)" d="M349 809L405 821L842 776L931 798"/>
</svg>