<!--
AnimCJK 2016-2019 Copyright Francois Mizessyn - https://github.com/parsimonhi/animCJK
Derived from:
    MakeMeAHanzi project - https://github.com/skishore/makemeahanzi
    Arphic PL KaitiM GB font
    Arphic PL UKai font
You can redistribute and/or modify this file under the terms of the Arphic Public License
as published by Arphic Technology Co., Ltd.
You should have received a copy of this license along with this file.
If not, see http://ftp.gnu.org/non-gnu/chinese-fonts-truetype/LICENSE.
-->
<svg id="z20405" class="acjk" version="1.1" viewBox="0 0 1024 1024" xmlns="http://www.w3.org/2000/svg" xmlns:xlink="http://www.w3.org/1999/xlink">
<style>
<![CDATA[
@keyframes zk {
	to {
		stroke-dashoffset:0;
	}
}
svg.acjk path[clip-path] {
	--t:0.8s;
	animation:zk var(--t) linear forwards var(--d);
	stroke-dasharray:3337;
	stroke-dashoffset:3339;
	stroke-width:128;
	stroke-linecap:round;
	fill:none;
	stroke:#000;
}
svg.acjk path[id] {fill:#ccc;}
]]>
</style>
<path id="z20405d1" d="M227 416Q276 353 331 265Q359 216 383 191Q393 181 388 166Q384 153 353 129Q325 110 306 110Q287 111 295 135Q310 168 297 195Q231 355 67 552Q57 562 54 569Q50 581 65 578Q99 574 199 450C218 427 218 427 227 416Z"/>
<path id="z20405d2" d="M199 450Q235 501 213 685Q207 734 194 785Q184 830 218 881Q219 881 221 884Q239 900 251 873Q266 833 265 786Q265 552 273 500Q280 473 271 462Q232 420 227 416C217 406 190 438 199 450Z"/>
<path id="z20405d3" d="M716 317Q743 206 782 176Q798 158 784 141Q768 128 718 104Q700 97 680 105Q637 121 596 131Q542 143 485 149Q469 150 470 159Q473 166 490 173Q505 179 563 170Q683 149 690 157Q700 167 698 191Q685 261 668 317C662 332 713 333 716 317Z"/>
<path id="z20405d4" d="M474 254Q446 258 466 272Q499 290 583 271Q605 267 629 262Q648 258 651 255Q658 248 655 241Q648 232 625 227Q601 223 577 232Q526 248 474 254Z"/>
<path id="z20405d5" d="M668 317Q556 347 465 358Q446 361 458 376Q465 385 474 388Q484 389 496 387Q571 369 733 352Q743 351 744 343Q744 336 716 317C703 307 684 314 668 317Z"/>
<path id="z20405d6" d="M402 460Q389 429 372 415Q369 411 363 414Q357 417 356 428Q357 459 323 523Q311 539 311 557Q312 576 321 590Q328 602 333 594Q340 594 349 579Q355 573 365 547Q384 501 395 486C400 479 405 468 402 460Z"/>
<path id="z20405d7" d="M395 486Q419 501 471 485Q618 443 757 433Q769 432 776 433Q789 442 788 448Q773 488 756 530C757 531 757 531 757 531Q764 535 779 525Q831 492 872 482Q906 472 906 465Q905 455 839 406Q815 388 715 409Q670 413 483 447Q443 454 402 460C393 462 387 482 395 486Z"/>
<path id="z20405d8" d="M617 764Q654 712 689 634Q702 606 723 589Q742 574 730 561Q717 548 687 535Q665 528 637 539Q604 551 561 562Q516 572 444 579Q431 579 425 586Q421 593 439 601Q475 616 523 602Q604 580 618 580Q640 584 633 607Q614 680 581 732C564 752 564 752 556 762Q487 834 357 868Q342 872 354 881Q360 885 403 883Q505 874 587 798C607 775 607 775 617 764Z"/>
<path id="z20405d9" d="M587 798Q719 930 738 936Q789 945 907 928Q943 924 940 914Q937 904 774 858Q771 857 770 857Q704 833 617 764C593 743 593 743 581 732Q551 704 521 673Q487 636 453 636Q435 635 433 640Q432 647 446 657Q482 678 556 762C577 786 577 786 587 798Z"/>
<defs>
	<clipPath id="z20405c1"><use xlink:href="#z20405d1"/></clipPath>
	<clipPath id="z20405c2"><use xlink:href="#z20405d2"/></clipPath>
	<clipPath id="z20405c3"><use xlink:href="#z20405d3"/></clipPath>
	<clipPath id="z20405c4"><use xlink:href="#z20405d4"/></clipPath>
	<clipPath id="z20405c5"><use xlink:href="#z20405d5"/></clipPath>
	<clipPath id="z20405c6"><use xlink:href="#z20405d6"/></clipPath>
	<clipPath id="z20405c7"><use xlink:href="#z20405d7"/></clipPath>
	<clipPath id="z20405c8"><use xlink:href="#z20405d8"/></clipPath>
	<clipPath id="z20405c9"><use xlink:href="#z20405d9"/></clipPath>
</defs>
<path style="--d:1s;" pathLength="3333" clip-path="url(#z20405c1)" d="M300 117L344 181L201 413L60 573"/>
<path style="--d:2s;" pathLength="3333" clip-path="url(#z20405c2)" d="M225 423L246 491L226 883"/>
<path style="--d:3s;" pathLength="3333" clip-path="url(#z20405c3)" d="M478 155L690 128L724 141L740 180L681 315"/>
<path style="--d:4s;" pathLength="3333" clip-path="url(#z20405c4)" d="M465 261L648 241"/>
<path style="--d:5s;" pathLength="3333" clip-path="url(#z20405c5)" d="M460 369L736 342"/>
<path style="--d:6s;" pathLength="3333" clip-path="url(#z20405c6)" d="M367 417L376 460L330 591"/>
<path style="--d:7s;" pathLength="3333" clip-path="url(#z20405c7)" d="M404 482L783 416L819 429L851 470L766 526"/>
<path style="--d:8s;" pathLength="3333" clip-path="url(#z20405c8)" d="M433 588L638 561L684 583L611 729L550 799L463 851L356 875"/>
<path style="--d:9s;" pathLength="3333" clip-path="url(#z20405c9)" d="M441 643L752 896L932 915"/>
</svg>