<!--
AnimCJK 2016-2018 Copyright Francois Mizessyn, https://github.com/parsimonhi/animCJK
Derived from:
    MakeMeAHanzi project - https://github.com/skishore/makemeahanzi
    Arphic PL KaitiM GB - https://apps.ubuntu.com/cat/applications/precise/fonts-arphic-gkai00mp/
    Arphic PL UKai - https://apps.ubuntu.com/cat/applications/fonts-arphic-ukai/
You can redistribute and/or modify this file under the terms of the Arphic Public License
as published by Arphic Technology Co., Ltd.
You should have received a copy of this license (the directory "APL") along with this file;
if not, see http://ftp.gnu.org/non-gnu/chinese-fonts-truetype/LICENSE.
-->
<svg id="z20406" class="acjk" version="1.1" viewBox="0 0 1024 1024" xmlns="http://www.w3.org/2000/svg" xmlns:xlink="http://www.w3.org/1999/xlink">
<style>
<![CDATA[
@keyframes z20406k {
	from {
		stroke:#c00;
		stroke-dashoffset:3334;
	}
	75% {
		stroke:#c00;
		stroke-dashoffset:0;
	}
	to {
		stroke:#000;
	}
}
#z20406 path[clip-path] {
	animation:z20406k 1s linear both;
	stroke-dasharray:3334;
	stroke-width:128;
	stroke-linecap:round;
	fill:none;
}
#z20406 path[clip-path="url(#z20406c1)"] {animation-delay:1s;}
#z20406 path[clip-path="url(#z20406c2)"] {animation-delay:2s;}
#z20406 path[clip-path="url(#z20406c3)"] {animation-delay:3s;}
#z20406 path[clip-path="url(#z20406c4)"] {animation-delay:4s;}
#z20406 path[clip-path="url(#z20406c5)"] {animation-delay:5s;}
#z20406 path[clip-path="url(#z20406c6)"] {animation-delay:6s;}
#z20406 path[clip-path="url(#z20406c7)"] {animation-delay:7s;}
#z20406 path[clip-path="url(#z20406c8)"] {animation-delay:8s;}
#z20406 path[clip-path="url(#z20406c9)"] {animation-delay:9s;}
#z20406 path {fill:#ccc;}
]]>
</style>
<path id="z20406d1" d="M254 351Q285 299 320 237Q345 183 368 157Q378 144 372 130Q366 117 333 93Q302 75 281 77Q262 80 272 104Q288 137 278 166Q245 266 191 359Q139 450 65 550Q55 562 53 569Q50 581 65 577Q107 568 202 427L228 391L254 351 Z"/>
<path id="z20406d2" d="M228 391Q255 418 251 551Q252 671 222 793Q212 838 246 889Q247 889 249 892Q267 908 279 881Q294 841 293 794Q289 499 297 432Q304 405 295 394Q256 352 254 351L228 391 Z"/>
<path id="z20406d3" d="M493 204Q481 200 456 196Q444 193 441 199Q435 205 444 221Q474 279 494 374Q498 402 515 421Q534 443 539 426Q540 419 541 410L539 376Q523 312 513 239L493 204 Z"/>
<path id="z20406d4" d="M773 346Q804 271 840 246Q861 227 845 205Q827 190 768 157Q750 148 727 156Q639 189 493 204L513 239Q525 236 706 208Q728 204 736 214Q746 224 742 245Q727 300 711 345L773 346 Z"/>
<path id="z20406d5" d="M612 400Q675 390 787 382Q797 381 799 373Q799 364 773 346L711 345Q615 366 539 376L541 410Q548 411 559 409Q563 408 569 407L612 400 Z"/>
<path id="z20406d6" d="M576 561Q582 551 589 539Q637 455 640 453Q655 440 645 430Q636 415 612 400L569 407Q575 420 574 440Q568 480 551 539Q544 552 542 565L576 561 Z"/>
<path id="z20406d7" d="M480 571Q467 564 434 559Q421 555 417 561Q410 568 419 585Q453 661 471 782Q474 819 494 843Q513 868 520 850Q524 834 525 810L521 771Q499 647 495 607L480 571 Z"/>
<path id="z20406d8" d="M796 747Q835 642 877 614Q898 592 882 571Q864 553 800 519Q779 510 756 518Q701 536 576 561L542 565Q511 566 480 571L495 607Q508 607 523 603Q629 587 729 572Q756 568 766 578Q776 591 772 616Q753 686 732 742L796 747 Z"/>
<path id="z20406d9" d="M525 810Q529 810 537 809Q625 794 812 790Q824 789 826 779Q826 770 796 747L732 742Q614 761 521 771L525 810 Z"/>
<defs>
	<clipPath id="z20406c1"><use xlink:href="#z20406d1"/></clipPath>
	<clipPath id="z20406c2"><use xlink:href="#z20406d2"/></clipPath>
	<clipPath id="z20406c3"><use xlink:href="#z20406d3"/></clipPath>
	<clipPath id="z20406c4"><use xlink:href="#z20406d4"/></clipPath>
	<clipPath id="z20406c5"><use xlink:href="#z20406d5"/></clipPath>
	<clipPath id="z20406c6"><use xlink:href="#z20406d6"/></clipPath>
	<clipPath id="z20406c7"><use xlink:href="#z20406d7"/></clipPath>
	<clipPath id="z20406c8"><use xlink:href="#z20406d8"/></clipPath>
	<clipPath id="z20406c9"><use xlink:href="#z20406d9"/></clipPath>
</defs>
<path pathLength="3333" clip-path="url(#z20406c1)" d="M277 86L315 118L323 158L184 415L60 569"/>
<path pathLength="3333" clip-path="url(#z20406c2)" d="M253 359L272 452L262 893"/>
<path pathLength="3333" clip-path="url(#z20406c3)" d="M447 200L489 256L529 428"/>
<path pathLength="3333" clip-path="url(#z20406c4)" d="M503 209L731 180L764 193L797 235L724 343"/>
<path pathLength="3333" clip-path="url(#z20406c5)" d="M547 402L705 367L793 372"/>
<path pathLength="3333" clip-path="url(#z20406c6)" d="M577 413L609 451L553 563"/>
<path pathLength="3333" clip-path="url(#z20406c7)" d="M422 568L465 615L513 850"/>
<path pathLength="3333" clip-path="url(#z20406c8)" d="M488 575L788 551L834 603L746 742"/>
<path pathLength="3333" clip-path="url(#z20406c9)" d="M528 780L820 775"/>
</svg>