<!--
AnimCJK 2016-2018 Copyright Francois Mizessyn, https://github.com/parsimonhi/animCJK
Derived from:
    MakeMeAHanzi project - https://github.com/skishore/makemeahanzi
    Arphic PL KaitiM GB - https://apps.ubuntu.com/cat/applications/precise/fonts-arphic-gkai00mp/
    Arphic PL UKai - https://apps.ubuntu.com/cat/applications/fonts-arphic-ukai/
You can redistribute and/or modify this file under the terms of the Arphic Public License
as published by Arphic Technology Co., Ltd.
You should have received a copy of this license (the directory "APL") along with this file;
if not, see http://ftp.gnu.org/non-gnu/chinese-fonts-truetype/LICENSE.
-->
<svg id="z20426" class="acjk" version="1.1" viewBox="0 0 1024 1024" xmlns="http://www.w3.org/2000/svg" xmlns:xlink="http://www.w3.org/1999/xlink">
<style>
<![CDATA[
@keyframes z20426k {
	from {
		stroke:#c00;
		stroke-dashoffset:3334;
	}
	75% {
		stroke:#c00;
		stroke-dashoffset:0;
	}
	to {
		stroke:#000;
	}
}
#z20426 path[clip-path] {
	animation:z20426k 1s linear both;
	stroke-dasharray:3334;
	stroke-width:128;
	stroke-linecap:round;
	fill:none;
}
#z20426 path[clip-path="url(#z20426c1)"] {animation-delay:1s;}
#z20426 path[clip-path="url(#z20426c2)"] {animation-delay:2s;}
#z20426 path[clip-path="url(#z20426c3)"] {animation-delay:3s;}
#z20426 path[clip-path="url(#z20426c4)"] {animation-delay:4s;}
#z20426 path[clip-path="url(#z20426c5)"] {animation-delay:5s;}
#z20426 path[clip-path="url(#z20426c6)"] {animation-delay:6s;}
#z20426 path[clip-path="url(#z20426c7)"] {animation-delay:7s;}
#z20426 path[clip-path="url(#z20426c8)"] {animation-delay:8s;}
#z20426 path[clip-path="url(#z20426c9)"] {animation-delay:9s;}
#z20426 path {fill:#ccc;}
]]>
</style>
<path id="z20426d1" d="M233 402Q284 341 339 256Q367 207 393 184Q403 172 399 158Q395 145 365 120Q338 101 318 100Q299 101 307 125Q320 158 307 186Q267 279 206 364Q148 446 68 536Q58 546 55 553Q51 565 65 562Q102 558 206 433L233 402 Z"/>
<path id="z20426d2" d="M206 433Q227 505 229 535Q228 559 228 584Q227 687 198 793Q188 838 222 889Q223 889 225 892Q243 908 255 881Q270 841 269 794Q272 544 281 488Q288 461 279 450Q237 404 233 402L206 433 Z"/>
<path id="z20426d3" d="M713 260Q623 272 528 293Q518 297 515 294Q512 290 518 281Q618 142 640 119Q652 109 646 97Q639 85 592 62Q576 55 566 59Q554 65 560 85Q581 148 477 267Q456 286 428 307Q415 319 418 330Q424 346 448 366Q458 376 472 366Q517 332 717 286Q724 285 733 282L713 260 Z"/>
<path id="z20426d4" d="M733 282Q749 298 766 319Q776 332 790 333Q799 334 805 323Q811 311 807 284Q804 259 770 235Q694 189 676 193Q672 196 671 207Q671 211 713 260L733 282 Z"/>
<path id="z20426d5" d="M507 372C501 404 453 459 377 522C364 529 366 533 383 532C427 525 475 493 534 436C549 421 563 410 570 404C577 398 579 392 578 385C576 378 568 372 552 366C536 360 524 358 516 358C512 359 509 363 507 372 Z"/>
<path id="z20426d6" d="M752 453C732 453 711 450 693 440C681 436 672 427 667 415C658 395 663 372 662 351C664 336 659 321 652 307C655 300 664 299 670 299C684 299 696 304 708 311C714 314 717 322 714 328C707 347 699 367 704 388C704 399 712 409 723 412C740 419 760 419 778 415C788 414 797 410 803 402C816 389 857 411 863 422C865 431 855 434 849 436C820 447 789 452 758 453C756 454 754 453 752 453 Z"/>
<path id="z20426d7" d="M556 541C559 533 563 527 570 520C574 518 576 513 575 507C574 501 570 495 563 488C543 470 529 471 519 475C512 478 510 481 511 489C519 531 487 574 416 658C414 659 412 660 412 662C391 685 355 718 305 762C300 765 301 767 307 769C347 761 404 719 479 644C481 640 486 635 492 629L504 612C512 600 523 586 536 570 Z"/>
<path id="z20426d8" d="M597 733Q525 823 376 864Q363 868 374 877Q380 881 425 879Q537 870 630 771L657 734Q691 679 723 602Q736 574 755 557Q774 544 762 529Q749 517 720 505Q698 498 671 509Q646 519 614 528Q590 535 556 541L536 570Q564 576 603 565Q645 549 653 549Q674 553 666 576Q648 648 618 701L597 733 Z"/>
<path id="z20426d9" d="M492 629Q522 644 597 733L630 771Q694 844 751 903Q767 921 793 919Q928 898 937 886Q941 879 931 876Q766 825 675 749Q666 742 657 734L618 701Q582 667 541 627Q528 611 512 611Q505 611 504 612L492 629 Z"/>
<defs>
	<clipPath id="z20426c1"><use xlink:href="#z20426d1"/></clipPath>
	<clipPath id="z20426c2"><use xlink:href="#z20426d2"/></clipPath>
	<clipPath id="z20426c3"><use xlink:href="#z20426d3"/></clipPath>
	<clipPath id="z20426c4"><use xlink:href="#z20426d4"/></clipPath>
	<clipPath id="z20426c5"><use xlink:href="#z20426d5"/></clipPath>
	<clipPath id="z20426c6"><use xlink:href="#z20426d6"/></clipPath>
	<clipPath id="z20426c7"><use xlink:href="#z20426d7"/></clipPath>
	<clipPath id="z20426c8"><use xlink:href="#z20426d8"/></clipPath>
	<clipPath id="z20426c9"><use xlink:href="#z20426d9"/></clipPath>
</defs>
<path pathLength="3333" clip-path="url(#z20426c1)" d="M312 110L356 171L223 379L62 556"/>
<path pathLength="3333" clip-path="url(#z20426c2)" d="M230 410L253 491L234 893"/>
<path pathLength="3333" clip-path="url(#z20426c3)" d="M569 66L604 119L472 321L720 277"/>
<path pathLength="3333" clip-path="url(#z20426c4)" d="M679 200L799 327"/>
<path pathLength="3333" clip-path="url(#z20426c5)" d="M518 370L537 400L466 470L378 526"/>
<path pathLength="3333" clip-path="url(#z20426c6)" d="M661 308L688 339L688 409L718 430L847 424"/>
<path pathLength="3333" clip-path="url(#z20426c7)" d="M518 478L542 518L490 598L312 761"/>
<path pathLength="3333" clip-path="url(#z20426c8)" d="M542 565L672 528L715 546L646 703L532 822L378 872"/>
<path pathLength="3333" clip-path="url(#z20426c9)" d="M500 627L780 868L930 888"/>
</svg>