<!--
AnimCJK 2016-2026 Copyright FM-SH - https://github.com/parsimonhi/animCJK
Derived from:
    MakeMeAHanzi project - https://github.com/skishore/makemeahanzi
    Arphic PL KaitiM GB font
    Arphic PL KaitiM Big5 font
You can redistribute and/or modify this file under the terms of the Arphic Public License
as published by Arphic Technology Co., Ltd.
You should have received a copy of this license along with this file.
If not, see https://ftp.gnu.org/non-gnu/chinese-fonts-truetype/LICENSE.
-->
<svg id="z20443" class="acjk" viewBox="0 0 1024 1024" xmlns="http://www.w3.org/2000/svg">
<style>
<![CDATA[
@keyframes zk {
	to {
		stroke-dashoffset:0;
	}
}
svg.acjk path[clip-path] {
	--t:0.8s;
	animation:zk var(--t) linear forwards var(--d);
	stroke-dasharray:3337;
	stroke-dashoffset:3339;
	stroke-width:128;
	stroke-linecap:round;
	fill:none;
	stroke:#000;
}
svg.acjk path[id] {fill:#ccc;}
]]>
</style>
<path id="z20443d1" d="M213 396Q264 335 318 246Q345 197 368 174Q378 162 373 148Q369 133 337 109Q307 88 286 89Q267 90 275 115Q290 146 278 174Q242 265 186 350Q134 432 59 522Q49 534 46 540Q42 553 58 550Q97 541 189 426C205 406 205 406 213 396Z"/>
<path id="z20443d2" d="M189 426Q192 436 197 445Q224 506 206 681Q199 732 186 785Q176 830 210 881Q211 881 213 884Q231 900 243 873Q258 833 257 786Q257 539 265 484Q272 457 263 446Q221 401 213 396C203 388 184 414 189 426Z"/>
<path id="z20443d3" d="M534 188Q556 158 576 134Q586 122 574 107Q534 71 508 73Q498 74 498 90Q507 180 407 275Q398 278 366 316Q356 331 372 327Q388 326 411 311Q480 265 522 206C530 194 530 194 534 188Z"/>
<path id="z20443d4" d="M586 358Q607 339 654 285Q696 236 735 209Q754 199 742 185Q729 172 690 150Q674 143 658 154Q649 158 576 180Q557 184 534 188C527 189 516 202 522 206Q537 218 601 208Q632 199 636 204Q640 208 635 218Q598 300 573 340Q564 355 562 363C559 371 579 363 586 358Z"/>
<path id="z20443d5" d="M403 388Q391 384 368 379Q356 376 353 381Q346 388 355 404Q380 456 397 542Q401 567 416 585Q434 607 439 591Q442 582 442 570C441 548 441 548 440 537Q428 446 423 418C421 406 415 390 403 388Z"/>
<path id="z20443d6" d="M745 494Q775 422 809 401Q827 383 813 364Q741 304 679 330Q630 346 586 358C570 361 570 361 562 363Q481 378 403 388C391 390 411 420 423 418Q519 399 524 398C553 392 553 392 567 389Q619 379 673 368Q701 361 714 373Q721 382 718 400Q705 449 690 491C684 508 738 511 745 494Z"/>
<path id="z20443d7" d="M565 551Q643 539 759 530Q769 529 771 520Q771 513 745 494C730 483 708 487 690 491Q629 504 575 516C540 522 540 522 523 525Q478 532 440 537C429 539 431 570 442 570Q452 571 463 569Q484 563 514 559C548 554 548 554 565 551Z"/>
<path id="z20443d8" d="M514 559Q469 701 306 871Q299 878 306 881Q313 882 323 877Q390 837 441 780Q519 702 565 551C572 528 572 528 575 516Q578 503 581 491Q590 460 603 429Q609 419 602 410Q595 401 567 389C553 384 522 384 524 398Q524 399 525 402Q538 460 524 524Q523 524 523 525C517 548 517 548 514 559Z"/>
<path id="z20443d9" d="M590 667Q583 787 593 820Q597 842 617 860Q681 915 838 894Q853 891 868 887Q905 877 942 851Q963 833 947 807Q931 776 910 679Q909 663 901 658Q894 655 891 673Q869 776 850 810Q822 841 730 839Q696 838 668 827Q644 817 638 802Q619 763 643 621Q649 594 603 573Q590 569 583 574Q576 578 581 594Q593 631 590 667Z"/>
<defs>
	<clipPath id="z20443c1"><use href="#z20443d1"/></clipPath>
	<clipPath id="z20443c2"><use href="#z20443d2"/></clipPath>
	<clipPath id="z20443c3"><use href="#z20443d3"/></clipPath>
	<clipPath id="z20443c4"><use href="#z20443d4"/></clipPath>
	<clipPath id="z20443c5"><use href="#z20443d5"/></clipPath>
	<clipPath id="z20443c6"><use href="#z20443d6"/></clipPath>
	<clipPath id="z20443c7"><use href="#z20443d7"/></clipPath>
	<clipPath id="z20443c8"><use href="#z20443d8"/></clipPath>
	<clipPath id="z20443c9"><use href="#z20443d9"/></clipPath>
</defs>
<path style="--d:1s;" pathLength="3333" clip-path="url(#z20443c1)" d="M280 94L325 169L188 390L51 543"/>
<path style="--d:2s;" pathLength="3333" clip-path="url(#z20443c2)" d="M205 402L237 471L225 886"/>
<path style="--d:3s;" pathLength="3333" clip-path="url(#z20443c3)" d="M507 81L537 121L529 145L465 241L371 319"/>
<path style="--d:4s;" pathLength="3333" clip-path="url(#z20443c4)" d="M527 200L659 175L691 201L569 360"/>
<path style="--d:5s;" pathLength="3333" clip-path="url(#z20443c5)" d="M358 385L392 416L430 592"/>
<path style="--d:6s;" pathLength="3333" clip-path="url(#z20443c6)" d="M407 392L736 351L768 391L705 502"/>
<path style="--d:7s;" pathLength="3333" clip-path="url(#z20443c7)" d="M434 551L761 516"/>
<path style="--d:8s;" pathLength="3333" clip-path="url(#z20443c8)" d="M530 394L567 431L510 632L431 759L307 873"/>
<path style="--d:9s;" pathLength="3333" clip-path="url(#z20443c9)" d="M586 575L615 613L613 805L680 861L794 867L888 834L906 802L900 664"/>
</svg>