<!--
AnimCJK 2016-2026 Copyright FM-SH - https://github.com/parsimonhi/animCJK
Derived from:
    MakeMeAHanzi project - https://github.com/skishore/makemeahanzi
    Arphic PL KaitiM GB font
    Arphic PL KaitiM Big5 font
You can redistribute and/or modify this file under the terms of the Arphic Public License
as published by Arphic Technology Co., Ltd.
You should have received a copy of this license along with this file.
If not, see https://ftp.gnu.org/non-gnu/chinese-fonts-truetype/LICENSE.
-->
<svg id="z20452" class="acjk" viewBox="0 0 1024 1024" xmlns="http://www.w3.org/2000/svg">
<style>
<![CDATA[
@keyframes zk {
	to {
		stroke-dashoffset:0;
	}
}
svg.acjk path[clip-path] {
	--t:0.8s;
	animation:zk var(--t) linear forwards var(--d);
	stroke-dasharray:3337;
	stroke-dashoffset:3339;
	stroke-width:128;
	stroke-linecap:round;
	fill:none;
	stroke:#000;
}
svg.acjk path[id] {fill:#ccc;}
]]>
</style>
<path id="z20452d1" d="M250 383Q293 325 340 252Q368 200 395 175Q405 163 401 148Q397 135 365 108Q335 89 315 88Q294 89 303 114Q318 148 304 178Q264 275 201 367Q141 455 60 550Q48 562 46 568Q42 581 58 578Q100 569 209 434Q213 428 220 421C240 396 240 396 250 383Z"/>
<path id="z20452d2" d="M220 421Q241 466 243 538Q242 556 242 576Q242 688 213 805Q198 854 235 902Q236 905 240 908Q259 924 271 896Q286 854 286 806Q285 529 294 467Q301 437 275 409Q269 403 250 383C239 372 214 406 220 421Z"/>
<path id="z20452d3" d="M493 139Q526 190 552 205Q565 209 575 199Q582 189 582 172Q576 127 516 108Q513 107 510 105Q495 98 486 101Q480 101 481 113Q481 123 493 139Z"/>
<path id="z20452d4" d="M717 83Q702 110 650 182Q641 198 657 195Q700 170 724 151Q787 103 801 97Q820 87 810 70Q797 54 770 40Q746 28 734 31Q721 34 726 46Q730 65 717 83Z"/>
<path id="z20452d5" d="M772 347Q796 299 821 281Q837 265 823 247Q807 234 759 211Q743 204 722 212Q617 260 467 281Q451 282 453 292Q457 299 474 305Q499 315 531 302Q541 299 553 297C586 290 586 290 602 286Q653 273 704 261Q726 254 735 263Q742 270 739 284Q732 317 722 345C716 360 765 362 772 347Z"/>
<path id="z20452d6" d="M634 404Q700 391 786 377Q796 376 797 367Q797 360 772 347C758 338 738 342 722 345Q679 357 638 369C600 380 600 380 581 385Q517 400 459 412C448 414 463 446 474 442Q474 441 476 441Q518 428 582 415C617 408 617 408 634 404Z"/>
<path id="z20452d7" d="M630 543Q816 503 848 507Q861 508 866 519Q875 537 840 625Q836 638 823 635Q798 628 764 617Q739 607 755 632Q801 686 809 711Q816 726 829 724Q842 725 859 713Q886 686 907 615Q916 570 945 541Q961 522 950 509Q925 484 890 463Q878 454 818 470Q646 506 630 511C600 518 600 518 585 522Q534 532 499 544Q471 550 456 550Q449 549 450 535Q457 474 474 442C480 432 468 419 459 412Q446 402 426 393Q416 386 406 394Q399 400 407 417Q420 441 412 477Q399 538 382 560Q372 576 382 592Q392 617 406 623Q416 629 438 610Q471 580 556 559C605 548 605 548 630 543Z"/>
<path id="z20452d8" d="M585 617Q585 776 567 844Q558 880 582 936Q589 952 596 955Q602 961 608 954Q615 950 624 930Q633 908 632 879Q631 843 630 543C630 522 630 522 630 511Q630 444 634 404C637 381 637 381 638 369Q639 356 644 344Q653 331 650 318Q643 309 602 286C588 277 544 283 553 297Q580 334 581 385C582 405 582 405 582 415Q583 452 586 493Q585 506 585 522C585 585 585 585 585 617Z"/>
<path id="z20452d9" d="M556 559Q496 692 327 833Q315 846 324 847Q333 851 345 846Q465 794 567 642Q577 626 585 617C626 576 578 505 556 559Z"/>
<defs>
	<clipPath id="z20452c1"><use href="#z20452d1"/></clipPath>
	<clipPath id="z20452c2"><use href="#z20452d2"/></clipPath>
	<clipPath id="z20452c3"><use href="#z20452d3"/></clipPath>
	<clipPath id="z20452c4"><use href="#z20452d4"/></clipPath>
	<clipPath id="z20452c5"><use href="#z20452d5"/></clipPath>
	<clipPath id="z20452c6"><use href="#z20452d6"/></clipPath>
	<clipPath id="z20452c7"><use href="#z20452d7"/></clipPath>
	<clipPath id="z20452c8"><use href="#z20452d8"/></clipPath>
	<clipPath id="z20452c9"><use href="#z20452d9"/></clipPath>
</defs>
<path style="--d:1s;" pathLength="3333" clip-path="url(#z20452c1)" d="M307 98L356 159L216 388L51 569"/>
<path style="--d:2s;" pathLength="3333" clip-path="url(#z20452c2)" d="M244 386L266 466L250 909"/>
<path style="--d:3s;" pathLength="3333" clip-path="url(#z20452c3)" d="M488 108L566 202"/>
<path style="--d:4s;" pathLength="3333" clip-path="url(#z20452c4)" d="M732 40L763 87L655 189"/>
<path style="--d:5s;" pathLength="3333" clip-path="url(#z20452c5)" d="M460 289L743 235L784 271L733 353"/>
<path style="--d:6s;" pathLength="3333" clip-path="url(#z20452c6)" d="M462 420L792 367"/>
<path style="--d:7s;" pathLength="3333" clip-path="url(#z20452c7)" d="M409 396L445 441L414 559L430 585L652 521L877 488L910 531L845 674L816 676L755 621"/>
<path style="--d:8s;" pathLength="3333" clip-path="url(#z20452c8)" d="M558 290L614 340L601 953"/>
<path style="--d:9s;" pathLength="3333" clip-path="url(#z20452c9)" d="M579 545L570 592L497 697L328 843"/>
</svg>