<!--
AnimCJK 2016-2025 Copyright FM-SH - https://github.com/parsimonhi/animCJK
Derived from:
    MakeMeAHanzi project - https://github.com/skishore/makemeahanzi
    Arphic PL KaitiM GB font
    Arphic PL UKai font
You can redistribute and/or modify this file under the terms of the Arphic Public License
as published by Arphic Technology Co., Ltd.
You should have received a copy of this license along with this file.
If not, see http://ftp.gnu.org/non-gnu/chinese-fonts-truetype/LICENSE.
-->
<svg id="z20467" class="acjk" version="1.1" viewBox="0 0 1024 1024" xmlns="http://www.w3.org/2000/svg" xmlns:xlink="http://www.w3.org/1999/xlink">
<style>
<![CDATA[
@keyframes zk {
	to {
		stroke-dashoffset:0;
	}
}
svg.acjk path[clip-path] {
	--t:0.8s;
	animation:zk var(--t) linear forwards var(--d);
	stroke-dasharray:3337;
	stroke-dashoffset:3339;
	stroke-width:128;
	stroke-linecap:round;
	fill:none;
	stroke:#000;
}
svg.acjk path[id] {fill:#ccc;}
]]>
</style>
<path id="z20467d1" d="M219 398C254 354 290 302 326 242C345 208 361 181 378 165C384 158 386 150 383 141C380 132 369 119 350 105C331 91 315 85 303 86C290 86 286 94 293 111C302 132 303 153 295 173C267 236 235 298 195 357C156 413 110 473 59 537C24 578 66 562 94 537C123 509 157 474 194 429C211 408 211 408 219 398Z"/>
<path id="z20467d2" d="M194 429C205 447 215 480 216 501C216 524 214 549 214 573C213 639 203 705 186 773C182 785 183 802 190 826C196 848 205 864 213 872C224 883 235 879 243 861C253 834 256 805 257 774C258 616 262 519 269 484C272 465 273 452 267 446C240 416 224 401 219 398C208 390 188 417 194 429Z"/>
<path id="z20467d3" d="M363 843C401 807 439 761 460 715C470 692 478 663 483 638C488 611 488 611 490 597C494 572 495 527 495 507C495 483 495 483 495 471C495 455 496 406 495 383C494 356 494 356 493 343C490 297 482 242 464 206C458 195 450 182 464 177C482 169 540 189 552 206C555 212 554 218 550 235C544 251 542 264 541 283C540 292 539 347 539 407C538 475 539 544 533 613C523 717 484 808 385 857C348 874 339 864 363 843Z"/>
<path id="z20467d4" d="M495 383C480 384 465 385 450 388C399 395 363 395 342 384C332 379 323 369 338 365C341 364 348 362 358 362C380 359 403 356 418 354C443 350 477 344 493 343C506 343 508 383 495 383Z"/>
<path id="z20467d5" d="M495 507C493 508 476 509 461 513C445 515 426 520 418 522C406 524 399 525 387 525C369 525 359 523 346 517C336 512 333 509 333 506C333 501 342 499 372 494C389 491 407 487 418 485C444 479 481 471 495 471C507 471 507 505 495 507Z"/>
<path id="z20467d6" d="M483 638C441 660 391 687 366 707C356 714 352 716 346 718C342 718 338 716 315 705C286 690 282 689 282 679C281 672 283 667 286 666C287 665 294 662 303 661C331 654 407 634 490 597C503 592 495 632 483 638Z"/>
<path id="z20467d7" d="M697 613C697 574 697 535 697 497C697 478 697 478 697 469C697 430 696 388 698 345C699 326 699 326 699 316C701 251 701 196 716 154C719 142 726 132 722 124C718 116 695 102 657 79C640 68 624 67 611 78C606 81 605 90 612 100C633 133 645 168 647 208C657 508 649 706 625 804C617 831 621 868 642 909C667 960 677 932 690 903C697 885 699 865 699 844C698 823 697 758 697 648C697 625 697 625 697 613Z"/>
<path id="z20467d8" d="M698 345C700 345 754 339 860 326C878 323 884 315 878 305C869 293 853 286 833 283C803 278 759 290 699 316C690 320 688 345 698 345Z"/>
<path id="z20467d9" d="M697 497C748 491 800 486 852 481C870 479 876 470 869 461C861 449 846 442 827 439C805 435 763 446 697 469C688 472 688 499 697 497Z"/>
<path id="z20467d10" d="M697 648C705 648 776 642 911 628C944 624 929 604 903 589C877 573 847 575 805 588C783 594 729 608 697 613C685 615 685 648 697 648Z"/>
<defs>
	<clipPath id="z20467c1"><use xlink:href="#z20467d1"/></clipPath>
	<clipPath id="z20467c2"><use xlink:href="#z20467d2"/></clipPath>
	<clipPath id="z20467c3"><use xlink:href="#z20467d3"/></clipPath>
	<clipPath id="z20467c4"><use xlink:href="#z20467d4"/></clipPath>
	<clipPath id="z20467c5"><use xlink:href="#z20467d5"/></clipPath>
	<clipPath id="z20467c6"><use xlink:href="#z20467d6"/></clipPath>
	<clipPath id="z20467c7"><use xlink:href="#z20467d7"/></clipPath>
	<clipPath id="z20467c8"><use xlink:href="#z20467d8"/></clipPath>
	<clipPath id="z20467c9"><use xlink:href="#z20467d9"/></clipPath>
	<clipPath id="z20467c10"><use xlink:href="#z20467d10"/></clipPath>
</defs>
<path style="--d:1s;" pathLength="3333" clip-path="url(#z20467c1)" d="M296 96L339 160L208 376L54 554"/>
<path style="--d:2s;" pathLength="3333" clip-path="url(#z20467c2)" d="M211 403L242 481L226 872"/>
<path style="--d:3s;" pathLength="3333" clip-path="url(#z20467c3)" d="M464 183L516 230L509 623L451 776L355 856"/>
<path style="--d:4s;" pathLength="3333" clip-path="url(#z20467c4)" d="M338 371L501 364"/>
<path style="--d:5s;" pathLength="3333" clip-path="url(#z20467c5)" d="M342 507L500 482"/>
<path style="--d:6s;" pathLength="3333" clip-path="url(#z20467c6)" d="M287 675L340 685L490 604"/>
<path style="--d:7s;" pathLength="3333" clip-path="url(#z20467c7)" d="M613 83L681 147L667 932"/>
<path style="--d:8s;" pathLength="3333" clip-path="url(#z20467c8)" d="M695 336L876 309"/>
<path style="--d:9s;" pathLength="3333" clip-path="url(#z20467c9)" d="M697 487L821 460L866 471"/>
<path style="--d:10s;" pathLength="3333" clip-path="url(#z20467c10)" d="M692 635L923 607"/>
</svg>