<!--
AnimCJK 2016-2026 Copyright FM-SH, https://github.com/parsimonhi/animCJK
Derived from:
    MakeMeAHanzi project - https://github.com/skishore/makemeahanzi
    Arphic PL KaitiM GB font
    Arphic PL KaitiM Big5 font
You can redistribute and/or modify this file under the terms of the Arphic Public License
as published by Arphic Technology Co., Ltd.
You should have received a copy of this license along with this file.
If not, see https://ftp.gnu.org/non-gnu/chinese-fonts-truetype/LICENSE.
-->
<svg id="z20504" class="acjk" viewBox="0 0 1024 1024" xmlns="http://www.w3.org/2000/svg">
<style>
<![CDATA[
@keyframes zk {
	to {
		stroke-dashoffset:0;
	}
}
svg.acjk path[clip-path] {
	--t:0.8s;
	animation:zk var(--t) linear forwards var(--d);
	stroke-dasharray:3337;
	stroke-dashoffset:3339;
	stroke-width:128;
	stroke-linecap:round;
	fill:none;
	stroke:#000;
}
svg.acjk path[id] {fill:#ccc;}
]]>
</style>
<path id="z20504d1" d="M235 386C265 347 294 300 326 247C344 214 360 189 377 172C383 165 384 156 381 146C378 137 366 124 345 109C326 95 309 89 296 90C281 91 277 100 285 116C295 138 295 157 288 177C248 277 178 400 67 539C45 565 51 579 83 556C143 511 172 465 210 418C227 397 227 397 235 386Z"/>
<path id="z20504d2" d="M210 418C236 472 234 528 234 588C233 668 220 751 198 837C190 866 194 901 222 933C233 947 246 945 255 925C265 898 268 869 269 838C270 639 275 517 285 472C288 453 289 440 283 434C256 404 240 389 235 386C224 378 205 405 210 418Z"/>
<path id="z20504d3" d="M618 467C630 302 641 203 652 172C654 163 648 153 635 145C610 130 588 123 573 121C547 116 538 130 549 149C560 168 568 182 569 197C574 282 576 376 574 476C574 491 618 482 618 467Z"/>
<path id="z20504d4" d="M451 267C451 318 410 371 358 427C351 434 336 449 351 446C383 437 412 418 456 380C481 357 494 342 510 327C521 315 520 299 505 281C465 234 450 250 451 267Z"/>
<path id="z20504d5" d="M686 227C687 232 694 239 705 249C741 282 800 335 824 361C835 373 846 381 856 383C860 384 874 382 875 369C879 325 858 297 832 279C808 261 750 230 698 215C689 212 684 222 686 227Z"/>
<path id="z20504d6" d="M401 515C366 490 332 494 344 516C373 569 370 663 354 750C345 794 340 824 363 852C368 859 374 863 380 859C400 841 410 801 411 739C411 635 412 571 415 547C417 536 410 522 401 515Z"/>
<path id="z20504d7" d="M415 547C479 523 609 498 806 479C837 475 833 515 834 533C838 650 833 743 819 810C814 832 800 844 782 841C754 836 730 830 708 825C682 819 685 830 704 845C753 886 789 914 803 936C821 965 840 938 851 919C873 876 891 790 894 658C895 566 897 509 908 491C917 475 917 469 911 465C897 456 881 446 859 435C842 427 828 425 812 430C740 447 661 458 618 467C589 473 589 473 574 476C515 488 454 502 401 515C390 517 404 551 415 547Z"/>
<path id="z20504d8" d="M512 613C498 608 461 592 478 628C491 658 504 698 511 748C512 762 517 774 526 785C546 810 546 792 550 765C551 754 548 744 547 734C541 681 539 649 539 638C539 626 523 618 512 613Z"/>
<path id="z20504d9" d="M698 717C710 677 723 651 736 640C751 625 750 612 738 603C725 594 710 585 695 574C682 565 665 576 633 587C606 595 562 606 512 613C500 615 528 643 539 638C539 636 570 630 632 619C650 615 660 616 665 624C667 626 662 656 649 712C646 728 695 733 698 717Z"/>
<path id="z20504d10" d="M550 765C567 762 663 753 709 748C735 744 716 728 698 717C684 709 665 709 649 712C614 719 578 727 547 734C537 736 540 767 550 765Z"/>
<defs>
	<clipPath id="z20504c1"><use href="#z20504d1"/></clipPath>
	<clipPath id="z20504c2"><use href="#z20504d2"/></clipPath>
	<clipPath id="z20504c3"><use href="#z20504d3"/></clipPath>
	<clipPath id="z20504c4"><use href="#z20504d4"/></clipPath>
	<clipPath id="z20504c5"><use href="#z20504d5"/></clipPath>
	<clipPath id="z20504c6"><use href="#z20504d6"/></clipPath>
	<clipPath id="z20504c7"><use href="#z20504d7"/></clipPath>
	<clipPath id="z20504c8"><use href="#z20504d8"/></clipPath>
	<clipPath id="z20504c9"><use href="#z20504d9"/></clipPath>
	<clipPath id="z20504c10"><use href="#z20504d10"/></clipPath>
</defs>
<path style="--d:1s;" pathLength="3333" clip-path="url(#z20504c1)" d="M287 96L335 167L203 390L61 561"/>
<path style="--d:2s;" pathLength="3333" clip-path="url(#z20504c2)" d="M230 388L257 459L235 938"/>
<path style="--d:3s;" pathLength="3333" clip-path="url(#z20504c3)" d="M551 126L610 178L593 481"/>
<path style="--d:4s;" pathLength="3333" clip-path="url(#z20504c4)" d="M462 253L479 314L353 441"/>
<path style="--d:5s;" pathLength="3333" clip-path="url(#z20504c5)" d="M693 225L817 308L860 380"/>
<path style="--d:6s;" pathLength="3333" clip-path="url(#z20504c6)" d="M348 505L381 531L388 571L375 857"/>
<path style="--d:7s;" pathLength="3333" clip-path="url(#z20504c7)" d="M404 524L817 453L872 484L833 864L803 893L698 828"/>
<path style="--d:8s;" pathLength="3333" clip-path="url(#z20504c8)" d="M480 609L513 646L535 792"/>
<path style="--d:9s;" pathLength="3333" clip-path="url(#z20504c9)" d="M516 616L682 600L706 627L670 725"/>
<path style="--d:10s;" pathLength="3333" clip-path="url(#z20504c10)" d="M542 752L715 738"/>
</svg>