<!--
AnimCJK 2016-2025 Copyright FM-SH - https://github.com/parsimonhi/animCJK
Derived from:
    MakeMeAHanzi project - https://github.com/skishore/makemeahanzi
    Arphic PL KaitiM GB font
    Arphic PL UKai font
You can redistribute and/or modify this file under the terms of the Arphic Public License
as published by Arphic Technology Co., Ltd.
You should have received a copy of this license along with this file.
If not, see https://ftp.gnu.org/non-gnu/chinese-fonts-truetype/LICENSE.
-->
<svg id="z20513" class="acjk" viewBox="0 0 1024 1024" xmlns="http://www.w3.org/2000/svg">
<style>
<![CDATA[
@keyframes zk {
	to {
		stroke-dashoffset:0;
	}
}
svg.acjk path[clip-path] {
	--t:0.8s;
	animation:zk var(--t) linear forwards var(--d);
	stroke-dasharray:3337;
	stroke-dashoffset:3339;
	stroke-width:128;
	stroke-linecap:round;
	fill:none;
	stroke:#000;
}
svg.acjk path[id] {fill:#ccc;}
]]>
</style>
<path id="z20513d1" d="M254 361C316 271 349 207 366 178C374 166 381 162 377 150C373 141 362 128 341 113C322 99 305 93 292 94C277 95 274 104 281 120C291 142 292 163 285 183C242 292 168 420 54 559C35 581 35 597 66 580C99 562 154 502 228 398C245 373 245 373 254 361Z"/>
<path id="z20513d2" d="M228 398C242 446 250 480 251 503C251 521 250 539 250 557C250 633 241 711 221 789C212 822 219 852 243 886C256 904 267 903 279 880C292 853 294 821 294 790C293 603 294 488 302 447C305 428 305 415 299 408C283 392 272 371 254 361C241 353 225 383 228 398Z"/>
<path id="z20513d3" d="M470 175C459 169 447 163 435 162C420 160 420 172 426 181C448 214 466 273 477 357C481 395 491 423 510 437C521 445 533 440 535 414C535 405 533 396 532 388C525 356 518 330 514 304C511 289 511 289 510 281C505 254 500 218 501 202C501 188 482 181 470 175Z"/>
<path id="z20513d4" d="M687 397C703 433 720 449 739 421C750 403 764 344 788 246C793 224 805 206 821 191C829 182 830 173 823 165C812 152 793 138 765 121C754 114 724 119 676 131C671 132 602 145 470 175C457 178 488 207 501 202C545 188 608 175 690 161C718 155 740 172 736 199C716 300 702 357 692 369C687 377 683 388 687 397Z"/>
<path id="z20513d5" d="M514 304C542 300 615 289 659 283C673 280 678 274 673 267C666 258 655 252 639 250C619 247 576 258 510 281C503 284 506 306 514 304Z"/>
<path id="z20513d6" d="M535 414C555 413 643 400 687 397C696 397 700 374 692 369C646 343 564 378 532 388C524 391 526 414 535 414Z"/>
<path id="z20513d7" d="M449 538C431 526 412 517 395 513C379 508 379 523 385 532C413 578 428 654 431 759C431 797 444 822 463 846C478 865 486 837 490 813C491 802 489 792 487 782C483 763 479 750 474 699C472 680 472 680 471 671C467 636 465 604 465 576C465 562 460 546 449 538Z"/>
<path id="z20513d8" d="M748 786C749 813 747 832 764 870C778 904 793 886 811 858C829 827 847 757 859 652C862 618 868 586 892 559C903 545 906 534 898 525C883 508 859 494 829 479C815 472 798 470 776 478C691 507 582 528 449 538C435 538 452 579 465 576C487 575 669 539 752 527C770 524 786 525 793 536C807 557 802 621 783 724C780 741 773 760 761 770C756 775 748 779 748 786Z"/>
<path id="z20513d9" d="M474 699C503 699 635 673 706 662C722 659 726 653 721 644C714 633 701 626 683 624C666 621 643 624 615 632C562 646 514 659 471 671C462 674 465 699 474 699Z"/>
<path id="z20513d10" d="M490 813C513 810 679 791 748 786C755 786 765 775 761 770C717 716 714 755 487 782C477 784 480 815 490 813Z"/>
<defs>
	<clipPath id="z20513c1"><use href="#z20513d1"/></clipPath>
	<clipPath id="z20513c2"><use href="#z20513d2"/></clipPath>
	<clipPath id="z20513c3"><use href="#z20513d3"/></clipPath>
	<clipPath id="z20513c4"><use href="#z20513d4"/></clipPath>
	<clipPath id="z20513c5"><use href="#z20513d5"/></clipPath>
	<clipPath id="z20513c6"><use href="#z20513d6"/></clipPath>
	<clipPath id="z20513c7"><use href="#z20513d7"/></clipPath>
	<clipPath id="z20513c8"><use href="#z20513d8"/></clipPath>
	<clipPath id="z20513c9"><use href="#z20513d9"/></clipPath>
	<clipPath id="z20513c10"><use href="#z20513d10"/></clipPath>
</defs>
<path style="--d:1s;" pathLength="3333" clip-path="url(#z20513c1)" d="M284 102L332 155L316 197L197 402L49 577"/>
<path style="--d:2s;" pathLength="3333" clip-path="url(#z20513c2)" d="M246 367L273 440L257 891"/>
<path style="--d:3s;" pathLength="3333" clip-path="url(#z20513c3)" d="M431 170L474 214L522 435"/>
<path style="--d:4s;" pathLength="3333" clip-path="url(#z20513c4)" d="M479 182L715 140L768 164L781 188L715 430"/>
<path style="--d:5s;" pathLength="3333" clip-path="url(#z20513c5)" d="M509 293L670 267"/>
<path style="--d:6s;" pathLength="3333" clip-path="url(#z20513c6)" d="M532 402L692 379"/>
<path style="--d:7s;" pathLength="3333" clip-path="url(#z20513c7)" d="M387 516L434 569L471 847"/>
<path style="--d:8s;" pathLength="3333" clip-path="url(#z20513c8)" d="M450 545L792 501L843 532L775 883"/>
<path style="--d:9s;" pathLength="3333" clip-path="url(#z20513c9)" d="M469 687L717 643"/>
<path style="--d:10s;" pathLength="3333" clip-path="url(#z20513c10)" d="M483 799L756 770"/>
</svg>