<!--
AnimCJK 2016-2018 Copyright Francois Mizessyn, https://github.com/parsimonhi/animCJK
Derived from:
    MakeMeAHanzi project - https://github.com/skishore/makemeahanzi
    Arphic PL KaitiM GB - https://apps.ubuntu.com/cat/applications/precise/fonts-arphic-gkai00mp/
    Arphic PL UKai - https://apps.ubuntu.com/cat/applications/fonts-arphic-ukai/
You can redistribute and/or modify this file under the terms of the Arphic Public License
as published by Arphic Technology Co., Ltd.
You should have received a copy of this license (the directory "APL") along with this file;
if not, see http://ftp.gnu.org/non-gnu/chinese-fonts-truetype/LICENSE.
-->
<svg id="z20518" class="acjk" version="1.1" viewBox="0 0 1024 1024" xmlns="http://www.w3.org/2000/svg" xmlns:xlink="http://www.w3.org/1999/xlink">
<style>
<![CDATA[
@keyframes z20518k {
	from {
		stroke:#c00;
		stroke-dashoffset:3334;
	}
	75% {
		stroke:#c00;
		stroke-dashoffset:0;
	}
	to {
		stroke:#000;
	}
}
#z20518 path[clip-path] {
	animation:z20518k 1s linear both;
	stroke-dasharray:3334;
	stroke-width:128;
	stroke-linecap:round;
	fill:none;
}
#z20518 path[clip-path="url(#z20518c1)"] {animation-delay:1s;}
#z20518 path[clip-path="url(#z20518c2)"] {animation-delay:2s;}
#z20518 path[clip-path="url(#z20518c3)"] {animation-delay:3s;}
#z20518 path[clip-path="url(#z20518c4)"] {animation-delay:4s;}
#z20518 path[clip-path="url(#z20518c5)"] {animation-delay:5s;}
#z20518 path[clip-path="url(#z20518c6)"] {animation-delay:6s;}
#z20518 path[clip-path="url(#z20518c7)"] {animation-delay:7s;}
#z20518 path[clip-path="url(#z20518c8)"] {animation-delay:8s;}
#z20518 path[clip-path="url(#z20518c9)"] {animation-delay:9s;}
#z20518 path[clip-path="url(#z20518c10)"] {animation-delay:10s;}
#z20518 path {fill:#ccc;}
]]>
</style>
<path id="z20518d1" d="M211 385Q253 328 296 251Q320 205 341 182Q351 172 345 157Q341 144 310 121Q280 103 261 104Q242 107 251 129Q264 157 247 208Q187 355 62 520Q52 530 50 537Q46 549 61 546Q97 537 184 420L211 385 Z"/>
<path id="z20518d2" d="M184 420Q223 483 197 682Q188 736 174 793Q164 838 198 889Q199 889 201 892Q219 908 231 881Q246 841 245 794Q248 527 257 468Q264 441 255 430Q216 388 211 385L184 420 Z"/>
<path id="z20518d3" d="M397 225C394 241 385 268 378 284C366 310 350 338 340 358C337 363 336 370 343 372C346 373 352 369 357 365C377 342 405 314 422 288C442 259 452 231 465 223C475 215 477 211 474 205C467 195 459 186 451 182C435 174 420 170 406 173C396 175 392 182 397 195C400 202 398 212 397 225 Z"/>
<path id="z20518d4" d="M675 212C707 246 728 281 745 309C749 317 757 322 769 324C775 324 780 321 784 314C788 306 787 293 787 275C785 238 759 215 729 196C691 170 666 163 659 166C655 167 654 172 654 180C654 186 660 196 675 212 Z"/>
<path id="z20518d5" d="M561 379Q705 351 719 342Q726 335 723 327Q716 317 690 309Q665 303 570 335L521 346Q464 356 405 362Q371 368 395 383Q426 404 496 391Q502 390 511 389L561 379 Z"/>
<path id="z20518d6" d="M521 488Q542 481 617 476L647 473Q708 467 788 466Q845 466 852 457Q856 445 841 433Q793 399 757 407Q682 426 553 448Q543 449 537 451L485 460Q398 472 303 487Q284 490 298 505Q311 518 329 522Q348 526 363 522Q412 507 467 497L521 488 Z"/>
<path id="z20518d7" d="M458 592C492 550 513 515 521 488L537 451C537 449 537 447 539 447C547 424 555 401 561 379L570 335C584 209 596 134 606 110C612 97 605 86 595 80C580 70 539 58 522 63C513 65 511 72 516 83C542 125 544 209 523 336C522 338 521 342 521 346L511 389C510 391 509 393 509 397C502 417 494 438 485 460L467 497C415 583 357 648 295 691C286 699 276 708 266 716C257 722 257 726 266 728C276 727 292 721 314 711C360 686 399 655 433 619L436 616 Z"/>
<path id="z20518d8" d="M614 368C605 370 595 372 585 374C632 447 710 596 760 651C772 665 791 674 815 677C857 681 902 680 948 674C960 673 966 671 967 668C969 664 965 660 956 656C929 644 899 631 867 621C786 595 740 539 614 368 Z"/>
<path id="z20518d9" d="M495 631Q502 622 598 605Q607 604 609 607Q613 611 613 629Q612 674 604 694Q588 719 567 714Q546 707 529 697Q508 687 521 710Q555 750 569 782Q579 795 591 787Q634 763 663 650Q670 622 682 609Q692 599 688 590Q681 580 637 561Q621 554 604 564Q592 571 547 584Q508 594 475 600L495 631 Z"/>
<path id="z20518d10" d="M821 840Q811 815 795 738Q795 723 789 718Q783 715 779 731Q751 813 733 838Q720 854 682 863Q594 885 524 857Q496 844 489 827Q468 782 494 635Q494 632 495 631L475 600Q468 596 458 592L436 616Q445 647 443 679Q436 808 446 844Q450 868 472 887Q493 903 534 917Q690 959 815 878Q833 865 821 840 Z"/>
<defs>
	<clipPath id="z20518c1"><use xlink:href="#z20518d1"/></clipPath>
	<clipPath id="z20518c2"><use xlink:href="#z20518d2"/></clipPath>
	<clipPath id="z20518c3"><use xlink:href="#z20518d3"/></clipPath>
	<clipPath id="z20518c4"><use xlink:href="#z20518d4"/></clipPath>
	<clipPath id="z20518c5"><use xlink:href="#z20518d5"/></clipPath>
	<clipPath id="z20518c6"><use xlink:href="#z20518d6"/></clipPath>
	<clipPath id="z20518c7"><use xlink:href="#z20518d7"/></clipPath>
	<clipPath id="z20518c8"><use xlink:href="#z20518d8"/></clipPath>
	<clipPath id="z20518c9"><use xlink:href="#z20518d9"/></clipPath>
	<clipPath id="z20518c10"><use xlink:href="#z20518d10"/></clipPath>
</defs>
<path pathLength="3333" clip-path="url(#z20518c1)" d="M257 112L300 162L287 199L183 385L56 541"/>
<path pathLength="3333" clip-path="url(#z20518c2)" d="M211 391L230 512L206 893"/>
<path pathLength="3333" clip-path="url(#z20518c3)" d="M402 183L440 216L346 361"/>
<path pathLength="3333" clip-path="url(#z20518c4)" d="M663 175L750 271L771 319"/>
<path pathLength="3333" clip-path="url(#z20518c5)" d="M393 371L475 374L716 327"/>
<path pathLength="3333" clip-path="url(#z20518c6)" d="M297 494L762 436L847 451"/>
<path pathLength="3333" clip-path="url(#z20518c7)" d="M519 73L570 110L523 425L427 594L269 722"/>
<path pathLength="3333" clip-path="url(#z20518c8)" d="M599 376L800 634L962 665"/>
<path pathLength="3333" clip-path="url(#z20518c9)" d="M484 602L608 582L649 606L624 702L587 748L522 699"/>
<path pathLength="3333" clip-path="url(#z20518c10)" d="M457 602L466 831L522 885L632 901L757 868L786 838L786 724"/>
</svg>