<!--
AnimCJK 2016-2018 Copyright Francois Mizessyn, https://github.com/parsimonhi/animCJK
Derived from:
    MakeMeAHanzi project - https://github.com/skishore/makemeahanzi
    Arphic PL KaitiM GB - https://apps.ubuntu.com/cat/applications/precise/fonts-arphic-gkai00mp/
    Arphic PL UKai - https://apps.ubuntu.com/cat/applications/fonts-arphic-ukai/
You can redistribute and/or modify this file under the terms of the Arphic Public License
as published by Arphic Technology Co., Ltd.
You should have received a copy of this license (the directory "APL") along with this file;
if not, see http://ftp.gnu.org/non-gnu/chinese-fonts-truetype/LICENSE.
-->
<svg id="z20559" class="acjk" version="1.1" viewBox="0 0 1024 1024" xmlns="http://www.w3.org/2000/svg" xmlns:xlink="http://www.w3.org/1999/xlink">
<style>
<![CDATA[
@keyframes z20559k {
	from {
		stroke:#c00;
		stroke-dashoffset:3334;
	}
	75% {
		stroke:#c00;
		stroke-dashoffset:0;
	}
	to {
		stroke:#000;
	}
}
#z20559 path[clip-path] {
	animation:z20559k 1s linear both;
	stroke-dasharray:3334;
	stroke-width:128;
	stroke-linecap:round;
	fill:none;
}
#z20559 path[clip-path="url(#z20559c1)"] {animation-delay:1s;}
#z20559 path[clip-path="url(#z20559c2)"] {animation-delay:2s;}
#z20559 path[clip-path="url(#z20559c3)"] {animation-delay:3s;}
#z20559 path[clip-path="url(#z20559c4)"] {animation-delay:4s;}
#z20559 path[clip-path="url(#z20559c5)"] {animation-delay:5s;}
#z20559 path[clip-path="url(#z20559c6)"] {animation-delay:6s;}
#z20559 path[clip-path="url(#z20559c7)"] {animation-delay:7s;}
#z20559 path[clip-path="url(#z20559c8)"] {animation-delay:8s;}
#z20559 path[clip-path="url(#z20559c9)"] {animation-delay:9s;}
#z20559 path[clip-path="url(#z20559c10)"] {animation-delay:10s;}
#z20559 path[clip-path="url(#z20559c11)"] {animation-delay:11s;}
#z20559 path {fill:#ccc;}
]]>
</style>
<path id="z20559d1" d="M232 412Q278 346 328 257Q353 205 378 178Q387 166 381 153Q377 140 346 117Q316 99 297 100Q278 103 287 126Q303 159 292 188Q232 354 70 568Q60 578 57 585Q54 597 69 594Q106 585 207 447L232 412 Z"/>
<path id="z20559d2" d="M207 447Q228 513 228 543Q228 690 204 789Q192 840 226 879Q227 882 230 884Q246 900 258 874Q273 834 272 789Q269 548 276 493Q283 466 274 456Q237 416 232 412L207 447 Z"/>
<path id="z20559d3" d="M466 167Q434 176 459 194Q494 216 557 201Q615 186 678 168Q708 159 712 153Q720 144 715 134Q707 121 680 114Q654 109 570 144Q524 160 466 167 Z"/>
<path id="z20559d4" d="M750 386Q777 325 806 304Q822 286 808 269Q733 208 683 240Q593 271 485 288L502 317Q517 317 687 279Q706 275 715 282Q724 294 699 382L750 386 Z"/>
<path id="z20559d5" d="M471 450Q480 459 504 455Q585 436 761 416Q771 415 772 407Q772 400 750 386L699 382Q575 412 476 426L471 450 Z"/>
<path id="z20559d6" d="M437 564Q455 521 471 450L476 426Q489 351 502 317L485 288Q475 279 461 272Q445 262 433 265Q423 269 427 283Q439 307 436 347Q417 510 381 592Q345 673 283 757Q279 763 276 768Q273 777 283 776Q322 767 388 668Q394 656 401 646Q413 624 424 598L437 564 Z"/>
<path id="z20559d7" d="M441 563Q437 563 437 564L424 598Q448 664 422 776Q401 825 430 858Q437 868 445 863Q469 842 471 764Q471 632 475 601L441 563 Z"/>
<path id="z20559d8" d="M679 551Q787 533 805 552Q812 561 808 575Q815 783 801 814Q798 824 785 822Q755 819 723 816Q696 816 716 831Q786 876 815 910Q828 925 842 912Q858 893 866 864Q876 833 867 665Q863 604 880 571Q893 552 888 543Q881 531 830 501Q812 488 797 494Q769 504 719 515Q571 534 515 549Q473 559 441 563L475 601Q481 600 489 597Q508 590 537 581L563 574Q593 562 650 556L679 551 Z"/>
<path id="z20559d9" d="M703 695Q733 691 761 688Q785 685 777 672Q767 656 742 651Q727 647 705 651L662 658Q625 665 589 674L551 681Q523 685 496 691Q480 694 499 710Q503 714 552 715L589 710Q626 704 662 700L703 695 Z"/>
<path id="z20559d10" d="M537 581Q547 591 551 681L552 715Q552 779 561 797Q571 816 578 805Q587 784 589 710L589 674Q589 617 591 602Q592 592 589 587Q582 581 563 574L537 581 Z"/>
<path id="z20559d11" d="M665 789Q668 807 673 814Q677 818 682 817Q703 799 703 695L705 651Q706 608 713 586Q716 573 706 567Q690 555 679 551L650 556L656 571Q662 580 662 658L662 700Q663 710 663 722Q663 771 665 789 Z"/>
<defs>
	<clipPath id="z20559c1"><use xlink:href="#z20559d1"/></clipPath>
	<clipPath id="z20559c2"><use xlink:href="#z20559d2"/></clipPath>
	<clipPath id="z20559c3"><use xlink:href="#z20559d3"/></clipPath>
	<clipPath id="z20559c4"><use xlink:href="#z20559d4"/></clipPath>
	<clipPath id="z20559c5"><use xlink:href="#z20559d5"/></clipPath>
	<clipPath id="z20559c6"><use xlink:href="#z20559d6"/></clipPath>
	<clipPath id="z20559c7"><use xlink:href="#z20559d7"/></clipPath>
	<clipPath id="z20559c8"><use xlink:href="#z20559d8"/></clipPath>
	<clipPath id="z20559c9"><use xlink:href="#z20559d9"/></clipPath>
	<clipPath id="z20559c10"><use xlink:href="#z20559d10"/></clipPath>
	<clipPath id="z20559c11"><use xlink:href="#z20559d11"/></clipPath>
</defs>
<path pathLength="3333" clip-path="url(#z20559c1)" d="M291 108L337 172L200 420L64 586"/>
<path pathLength="3333" clip-path="url(#z20559c2)" d="M232 418L251 529L237 884"/>
<path pathLength="3333" clip-path="url(#z20559c3)" d="M456 183L713 141"/>
<path pathLength="3333" clip-path="url(#z20559c4)" d="M495 292L740 262L765 296L711 382"/>
<path pathLength="3333" clip-path="url(#z20559c5)" d="M478 447L765 408"/>
<path pathLength="3333" clip-path="url(#z20559c6)" d="M434 273L468 319L429 519L366 666L283 770"/>
<path pathLength="3333" clip-path="url(#z20559c7)" d="M442 571L453 687L433 858"/>
<path pathLength="3333" clip-path="url(#z20559c8)" d="M451 564L492 576L793 519L835 539L849 557L826 858L801 865L718 822"/>
<path pathLength="3333" clip-path="url(#z20559c9)" d="M496 697L773 673"/>
<path pathLength="3333" clip-path="url(#z20559c10)" d="M546 586L569 609L572 802"/>
<path pathLength="3333" clip-path="url(#z20559c11)" d="M658 559L687 589L678 812"/>
</svg>