<!--
AnimCJK 2016-2019 Copyright Francois Mizessyn - https://github.com/parsimonhi/animCJK
Derived from:
    MakeMeAHanzi project - https://github.com/skishore/makemeahanzi
    Arphic PL KaitiM GB font
    Arphic PL UKai font
You can redistribute and/or modify this file under the terms of the Arphic Public License
as published by Arphic Technology Co., Ltd.
You should have received a copy of this license along with this file.
If not, see http://ftp.gnu.org/non-gnu/chinese-fonts-truetype/LICENSE.
-->
<svg id="z20596" class="acjk" version="1.1" viewBox="0 0 1024 1024" xmlns="http://www.w3.org/2000/svg" xmlns:xlink="http://www.w3.org/1999/xlink">
<style>
<![CDATA[
@keyframes zk {
	to {
		stroke-dashoffset:0;
	}
}
svg.acjk path[clip-path] {
	--t:0.8s;
	animation:zk var(--t) linear forwards var(--d);
	stroke-dasharray:3337;
	stroke-dashoffset:3339;
	stroke-width:128;
	stroke-linecap:round;
	fill:none;
	stroke:#000;
}
svg.acjk path[id] {fill:#ccc;}
]]>
</style>
<path id="z20596d1" d="M242 343C262 310 284 274 306 233C323 198 338 172 354 154C360 146 362 137 358 128C354 119 342 106 322 93C302 80 285 75 273 77C260 78 256 87 263 103C273 125 275 145 269 165C246 229 216 293 180 356C145 414 103 477 53 543C46 551 42 556 41 561C38 569 43 572 53 570C79 562 138 503 215 385C233 357 233 357 242 343Z"/>
<path id="z20596d2" d="M215 385C225 409 232 432 233 455C233 485 232 514 232 542C231 622 219 702 198 785C194 797 195 815 202 838C208 861 217 876 225 884C236 895 247 891 255 873C265 846 269 817 269 786C269 587 272 465 281 420C284 401 285 389 279 382C262 363 250 351 242 343C230 331 209 370 215 385Z"/>
<path id="z20596d3" d="M415 246C402 236 388 228 372 224C367 222 362 225 359 230C356 232 359 236 363 244C388 299 391 402 382 521C378 560 370 577 372 599C373 618 384 630 391 637C398 644 402 644 408 636C412 629 417 623 419 614C422 593 422 593 424 582C426 568 428 538 427 494C426 475 426 475 426 465C425 439 426 412 425 386C424 368 424 368 424 359C422 316 424 287 426 271C427 262 422 251 415 246Z"/>
<path id="z20596d4" d="M562 636C572 651 580 656 585 656C591 654 599 646 606 628C613 609 615 587 614 562C604 388 605 287 620 261C626 250 628 240 623 233C618 226 599 219 566 208C551 203 538 203 526 209C485 226 448 238 415 246C406 248 417 273 426 271C500 257 537 250 539 250C541 250 543 251 546 254C552 260 556 277 557 303C561 409 560 492 558 552C557 560 557 567 554 571C549 582 535 596 542 606C555 626 555 626 562 636Z"/>
<path id="z20596d5" d="M425 386C427 386 430 386 433 386C462 383 490 376 513 372C527 369 532 362 526 355C518 346 506 341 490 340C475 339 455 344 430 354C427 355 425 356 424 359C419 366 416 386 425 386Z"/>
<path id="z20596d6" d="M427 494C461 488 491 484 517 480C532 477 536 470 530 463C522 454 510 449 494 448C468 445 445 451 426 465C418 471 418 496 427 494Z"/>
<path id="z20596d7" d="M419 614C425 614 432 614 440 613C462 609 496 606 542 606C554 606 565 577 554 571C541 563 527 561 508 566C477 572 449 578 424 582C413 584 408 614 419 614Z"/>
<path id="z20596d8" d="M410 680C405 716 369 769 299 837C289 846 290 848 305 847C339 842 390 800 459 719C464 712 469 708 473 704C478 698 479 691 478 686C475 679 466 674 452 670C436 665 424 664 418 667C414 668 411 671 410 680Z"/>
<path id="z20596d9" d="M539 723C556 745 573 769 591 796C596 803 602 808 611 810C615 810 620 808 625 803C630 796 630 785 630 769C629 754 622 737 604 724C561 692 534 680 528 682C525 682 522 686 522 694C521 700 528 709 539 723Z"/>
<path id="z20596d10" d="M670 325C683 363 688 424 681 510C679 528 685 546 701 566C706 572 713 572 718 565C727 551 731 515 732 458C732 399 732 363 735 350C738 337 734 327 722 320C713 314 703 308 693 304C686 301 679 301 674 306C669 309 667 316 670 325Z"/>
<path id="z20596d11" d="M808 197C809 219 814 407 819 759C819 773 815 784 807 790C804 792 783 796 747 790C723 785 713 780 715 788C715 792 724 799 738 811C777 844 800 871 810 890C820 911 831 923 841 924C851 924 862 912 872 887C884 854 892 811 888 758C862 455 853 257 883 166C890 142 879 127 840 110C814 99 796 94 783 100C770 105 769 115 782 131C797 150 805 171 808 197Z"/>
<defs>
	<clipPath id="z20596c1"><use xlink:href="#z20596d1"/></clipPath>
	<clipPath id="z20596c2"><use xlink:href="#z20596d2"/></clipPath>
	<clipPath id="z20596c3"><use xlink:href="#z20596d3"/></clipPath>
	<clipPath id="z20596c4"><use xlink:href="#z20596d4"/></clipPath>
	<clipPath id="z20596c5"><use xlink:href="#z20596d5"/></clipPath>
	<clipPath id="z20596c6"><use xlink:href="#z20596d6"/></clipPath>
	<clipPath id="z20596c7"><use xlink:href="#z20596d7"/></clipPath>
	<clipPath id="z20596c8"><use xlink:href="#z20596d8"/></clipPath>
	<clipPath id="z20596c9"><use xlink:href="#z20596d9"/></clipPath>
	<clipPath id="z20596c10"><use xlink:href="#z20596d10"/></clipPath>
	<clipPath id="z20596c11"><use xlink:href="#z20596d11"/></clipPath>
</defs>
<path style="--d:1s;" pathLength="3333" clip-path="url(#z20596c1)" d="M268 84L315 147L195 374L47 562"/>
<path style="--d:2s;" pathLength="3333" clip-path="url(#z20596c2)" d="M245 355L233 885"/>
<path style="--d:3s;" pathLength="3333" clip-path="url(#z20596c3)" d="M366 233L402 289L398 638"/>
<path style="--d:4s;" pathLength="3333" clip-path="url(#z20596c4)" d="M425 252L546 227L589 255L578 649"/>
<path style="--d:5s;" pathLength="3333" clip-path="url(#z20596c5)" d="M434 378L523 359"/>
<path style="--d:6s;" pathLength="3333" clip-path="url(#z20596c6)" d="M431 486L528 464"/>
<path style="--d:7s;" pathLength="3333" clip-path="url(#z20596c7)" d="M427 606L545 573"/>
<path style="--d:8s;" pathLength="3333" clip-path="url(#z20596c8)" d="M422 678L445 697L302 843"/>
<path style="--d:9s;" pathLength="3333" clip-path="url(#z20596c9)" d="M532 689L620 804"/>
<path style="--d:10s;" pathLength="3333" clip-path="url(#z20596c10)" d="M677 310L707 350L706 566"/>
<path style="--d:11s;" pathLength="3333" clip-path="url(#z20596c11)" d="M778 110L845 163L852 786L829 872L719 790"/>
</svg>