<!--
AnimCJK 2016-2025 Copyright FM-SH - https://github.com/parsimonhi/animCJK
Derived from:
    MakeMeAHanzi project - https://github.com/skishore/makemeahanzi
    Arphic PL KaitiM GB font
    Arphic PL KaitiM Big5 font
You can redistribute and/or modify this file under the terms of the Arphic Public License
as published by Arphic Technology Co., Ltd.
You should have received a copy of this license along with this file.
If not, see https://ftp.gnu.org/non-gnu/chinese-fonts-truetype/LICENSE.
-->
<svg id="z20658" class="acjk" viewBox="0 0 1024 1024" xmlns="http://www.w3.org/2000/svg">
<style>
<![CDATA[
@keyframes zk {
	to {
		stroke-dashoffset:0;
	}
}
svg.acjk path[clip-path] {
	--t:0.8s;
	animation:zk var(--t) linear forwards var(--d);
	stroke-dasharray:3337;
	stroke-dashoffset:3339;
	stroke-width:128;
	stroke-linecap:round;
	fill:none;
	stroke:#000;
}
svg.acjk path[id] {fill:#ccc;}
]]>
</style>
<path id="z20658d1" d="M210 392C239 353 270 307 300 253C316 223 329 200 344 185C351 177 351 167 348 160C344 150 334 138 314 125C295 111 279 106 267 108C254 109 249 118 257 133C264 150 265 176 252 211C214 307 151 410 66 520C59 528 55 534 54 538C51 544 55 548 65 546C87 540 128 498 187 422C202 402 202 402 210 392Z"/>
<path id="z20658d2" d="M187 422C201 470 209 502 210 523C210 536 209 553 209 571C208 639 197 707 180 777C171 810 179 839 202 867C214 882 229 872 234 862C244 835 247 807 248 777C249 614 252 514 260 477C263 458 263 446 258 440C231 411 216 396 210 392C200 384 185 410 187 422Z"/>
<path id="z20658d3" d="M499 282C513 276 530 270 548 264C560 259 568 256 571 254C576 248 575 242 572 238C567 231 555 227 537 226C525 225 513 226 503 231C472 244 472 244 456 251C436 259 402 270 379 277C358 282 356 291 373 299C396 309 424 307 456 297C485 287 485 287 499 282Z"/>
<path id="z20658d4" d="M492 362C494 335 496 308 499 282C502 248 502 248 503 231C505 195 510 161 520 130C521 123 517 115 506 108C487 96 470 90 456 88C447 86 440 87 436 92C431 96 431 103 436 111C463 153 456 208 456 251C456 282 456 282 456 297C456 321 455 346 455 374C455 387 492 375 492 362Z"/>
<path id="z20658d5" d="M432 418C484 402 539 387 596 378C601 376 608 375 611 367C612 360 604 354 591 350C553 336 518 353 492 362C467 370 467 370 455 374C393 393 328 407 277 419C260 422 260 428 273 437C293 450 310 454 327 449C351 440 380 433 412 424C425 420 425 420 432 418Z"/>
<path id="z20658d6" d="M489 480C489 473 490 464 486 455C480 442 461 430 432 418C426 415 410 417 412 424C418 445 446 481 459 488C468 493 489 490 489 480Z"/>
<path id="z20658d7" d="M447 524C461 519 496 507 566 493C573 491 578 490 578 486C578 479 573 474 565 471C549 464 524 470 489 480C469 485 469 485 459 488C390 506 337 517 301 524C295 525 290 526 290 531C288 535 291 541 299 546C318 559 338 560 358 553C365 550 403 538 419 533C438 527 438 527 447 524Z"/>
<path id="z20658d8" d="M457 584C481 588 496 595 503 607C510 620 498 670 464 752C448 789 429 808 416 814C409 816 394 816 370 809C347 802 335 798 334 802C331 807 335 812 345 819C369 835 383 856 389 876C391 884 396 891 404 895C410 898 424 894 443 881C474 857 501 800 527 713C539 671 551 643 566 634C572 630 575 627 577 623C578 618 574 607 561 592C529 556 531 574 471 557C461 554 447 582 457 584Z"/>
<path id="z20658d9" d="M471 557C463 540 455 530 447 524C439 518 419 523 419 533C425 575 361 671 276 752C258 768 268 771 285 765C312 757 344 726 387 678C416 646 445 604 457 584C462 575 476 566 471 557Z"/>
<path id="z20658d10" d="M656 390C685 354 725 275 753 209C761 187 769 170 778 158C782 151 782 143 778 136C774 128 761 119 743 110C724 101 710 98 700 101C689 103 686 111 694 124C709 146 701 201 668 288C652 328 633 370 609 415C605 422 601 427 601 432C600 438 604 441 612 438C618 435 625 426 637 413C650 398 650 398 656 390Z"/>
<path id="z20658d11" d="M746 415C787 405 829 390 875 378C897 371 909 366 913 363C917 358 919 351 916 347C911 339 898 334 879 331C861 328 827 340 771 361C739 372 700 380 656 390C646 392 628 409 637 413C659 423 681 429 702 425C731 418 731 418 746 415Z"/>
<path id="z20658d12" d="M727 663C741 622 753 577 764 515C775 456 787 449 778 432C775 427 765 422 746 415C732 409 697 411 702 425C721 480 706 569 692 619C687 633 682 648 676 663C658 699 618 747 588 770C572 781 552 793 530 808C516 817 517 818 536 819C561 819 598 805 646 775C662 764 690 736 705 710C713 695 721 679 727 663Z"/>
<path id="z20658d13" d="M705 710C736 760 769 805 799 849C807 860 819 870 839 871C932 873 984 869 990 862C993 857 989 853 985 851C888 799 829 792 727 663C704 634 704 634 692 619C671 593 650 566 630 538C622 526 614 520 604 518C589 515 579 517 576 522C573 524 574 528 580 532C599 547 620 572 676 663C695 694 695 694 705 710Z"/>
<defs>
	<clipPath id="z20658c1"><use href="#z20658d1"/></clipPath>
	<clipPath id="z20658c2"><use href="#z20658d2"/></clipPath>
	<clipPath id="z20658c3"><use href="#z20658d3"/></clipPath>
	<clipPath id="z20658c4"><use href="#z20658d4"/></clipPath>
	<clipPath id="z20658c5"><use href="#z20658d5"/></clipPath>
	<clipPath id="z20658c6"><use href="#z20658d6"/></clipPath>
	<clipPath id="z20658c7"><use href="#z20658d7"/></clipPath>
	<clipPath id="z20658c8"><use href="#z20658d8"/></clipPath>
	<clipPath id="z20658c9"><use href="#z20658d9"/></clipPath>
	<clipPath id="z20658c10"><use href="#z20658d10"/></clipPath>
	<clipPath id="z20658c11"><use href="#z20658d11"/></clipPath>
	<clipPath id="z20658c12"><use href="#z20658d12"/></clipPath>
	<clipPath id="z20658c13"><use href="#z20658d13"/></clipPath>
</defs>
<path style="--d:1s;" pathLength="3333" clip-path="url(#z20658c1)" d="M263 113L303 178L206 358L62 540"/>
<path style="--d:2s;" pathLength="3333" clip-path="url(#z20658c2)" d="M206 396L233 505L215 870"/>
<path style="--d:3s;" pathLength="3333" clip-path="url(#z20658c3)" d="M367 289L570 244"/>
<path style="--d:4s;" pathLength="3333" clip-path="url(#z20658c4)" d="M438 97L486 139L474 375"/>
<path style="--d:5s;" pathLength="3333" clip-path="url(#z20658c5)" d="M270 425L604 366"/>
<path style="--d:6s;" pathLength="3333" clip-path="url(#z20658c6)" d="M420 423L484 480"/>
<path style="--d:7s;" pathLength="3333" clip-path="url(#z20658c7)" d="M295 533L571 482"/>
<path style="--d:8s;" pathLength="3333" clip-path="url(#z20658c8)" d="M460 574L519 588L541 621L471 794L408 855L342 808"/>
<path style="--d:9s;" pathLength="3333" clip-path="url(#z20658c9)" d="M433 524L443 564L402 631L274 762"/>
<path style="--d:10s;" pathLength="3333" clip-path="url(#z20658c10)" d="M696 110L741 153L683 308L608 430"/>
<path style="--d:11s;" pathLength="3333" clip-path="url(#z20658c11)" d="M642 407L911 350"/>
<path style="--d:12s;" pathLength="3333" clip-path="url(#z20658c12)" d="M710 425L745 463L694 679L637 755L529 812"/>
<path style="--d:13s;" pathLength="3333" clip-path="url(#z20658c13)" d="M582 523L835 824L984 857"/>
</svg>