<!--
AnimCJK 2016-2019 Copyright Francois Mizessyn - https://github.com/parsimonhi/animCJK
Derived from:
    MakeMeAHanzi project - https://github.com/skishore/makemeahanzi
    Arphic PL KaitiM GB font
    Arphic PL UKai font
You can redistribute and/or modify this file under the terms of the Arphic Public License
as published by Arphic Technology Co., Ltd.
You should have received a copy of this license along with this file.
If not, see http://ftp.gnu.org/non-gnu/chinese-fonts-truetype/LICENSE.
-->
<svg id="z20677" class="acjk" version="1.1" viewBox="0 0 1024 1024" xmlns="http://www.w3.org/2000/svg" xmlns:xlink="http://www.w3.org/1999/xlink">
<style>
<![CDATA[
@keyframes zk {
	to {
		stroke-dashoffset:0;
	}
}
svg.acjk path[clip-path] {
	--t:0.8s;
	animation:zk var(--t) linear forwards var(--d);
	stroke-dasharray:3337;
	stroke-dashoffset:3339;
	stroke-width:128;
	stroke-linecap:round;
	fill:none;
	stroke:#000;
}
svg.acjk path[id] {fill:#ccc;}
]]>
</style>
<path id="z20677d1" d="M255 391C283 351 310 304 338 252C356 218 370 191 386 174C392 166 394 157 390 148C386 139 374 126 354 113C334 100 317 95 305 97C292 98 288 107 295 122C305 144 307 164 301 184C278 248 248 311 212 373C177 431 135 493 85 559C78 567 74 572 73 577C70 584 75 588 85 586C113 579 191 480 228 429C246 404 246 404 255 391Z"/>
<path id="z20677d2" d="M228 429C244 463 252 506 253 558C253 654 243 741 223 821C215 851 222 883 245 919C246 921 247 924 251 927C263 938 275 935 283 915C294 886 298 855 298 822C297 637 299 524 307 483C311 462 311 450 304 442C278 414 263 396 255 391C243 382 222 415 228 429Z"/>
<path id="z20677d3" d="M739 249C779 244 825 241 877 241C913 240 935 238 940 231C943 224 939 216 929 209C896 184 859 180 818 192C797 197 774 202 750 207C713 214 713 214 695 218C621 232 580 238 572 240C545 245 545 245 531 247C488 254 444 259 398 268C385 270 384 275 394 285C402 293 412 298 423 301C435 303 447 304 457 301C481 293 508 285 536 280C561 275 561 275 574 272C606 265 645 258 690 254C723 251 723 251 739 249Z"/>
<path id="z20677d4" d="M572 240C569 199 567 168 570 149C571 136 570 129 563 124C554 117 541 111 525 107C512 103 499 105 489 112C482 116 485 121 493 131C509 151 522 191 531 247C534 269 534 269 536 280C542 323 548 354 553 370C561 395 576 395 578 382C578 379 578 376 579 373C578 352 578 352 578 342C577 325 575 302 574 272C573 251 573 251 572 240Z"/>
<path id="z20677d5" d="M721 320C727 295 733 271 739 249C746 221 746 221 750 207C757 177 767 141 784 100C786 93 784 82 773 73C754 56 735 48 721 43C710 39 703 39 698 44C692 48 690 55 695 65C703 81 706 95 706 106C702 142 700 179 695 218C692 242 692 242 690 254C687 274 684 295 680 318C678 331 718 333 721 320Z"/>
<path id="z20677d6" d="M617 365C643 359 682 354 734 350C740 349 743 346 744 342C744 337 736 330 721 320C710 312 693 313 680 318C656 325 608 334 578 342C568 344 569 375 579 373C591 370 604 367 617 365Z"/>
<path id="z20677d7" d="M476 453C470 450 456 447 434 445C427 444 422 445 420 448C416 452 418 459 424 468C439 492 455 525 467 568C470 580 476 590 485 599C497 610 504 612 506 603C506 599 507 594 507 589C504 569 504 569 503 559C501 544 489 499 487 485C485 474 486 457 476 453Z"/>
<path id="z20677d8" d="M805 520C823 489 841 471 854 462C868 451 864 438 849 427C834 415 820 404 806 394C795 386 777 384 739 396C719 402 673 413 651 418C614 425 614 425 596 429C581 431 497 449 476 453C465 455 476 489 487 485C519 475 556 466 598 458C632 451 632 451 649 448C697 438 740 430 761 430C769 430 776 436 779 440C783 447 776 470 758 510C752 525 795 533 805 520Z"/>
<path id="z20677d9" d="M647 567C693 560 748 554 812 548C818 547 822 544 823 539C823 534 817 528 805 520C792 510 774 507 758 510C716 521 680 527 647 534C615 541 615 541 599 544C564 551 532 553 503 559C493 561 497 589 507 589C511 589 517 589 524 588C544 583 569 578 599 574C631 569 631 569 647 567Z"/>
<path id="z20677d10" d="M645 665C655 663 698 656 776 648C782 647 789 646 793 638C795 631 787 624 775 619C739 603 689 619 646 628C615 634 615 634 599 637C548 646 503 650 464 656C447 658 445 663 458 673C471 683 491 691 515 689C540 686 567 678 599 673C630 668 630 668 645 665Z"/>
<path id="z20677d11" d="M643 763C687 756 728 748 766 744C780 742 786 736 781 728C774 717 762 710 745 707C730 704 696 709 644 722C614 729 614 729 599 733C553 744 509 750 468 759C457 761 458 768 471 778C479 784 494 787 515 784C543 779 571 774 599 770C628 765 628 765 643 763Z"/>
<path id="z20677d12" d="M643 833C643 833 642 786 643 763C644 736 644 736 644 722C644 702 644 683 645 665C646 640 646 640 646 628C646 606 647 587 647 567C647 545 647 545 647 534C647 507 648 454 649 448C650 428 650 428 651 418C651 404 654 395 648 389C637 378 627 371 617 365C593 351 564 358 578 382C590 404 595 414 596 429C597 448 597 448 598 458C598 468 599 497 599 544C599 564 599 564 599 574C599 616 599 616 599 637C599 661 599 661 599 673C599 713 599 713 599 733C599 758 599 758 599 770C599 793 599 830 599 837C599 852 643 848 643 833Z"/>
<path id="z20677d13" d="M599 837C526 843 448 850 366 858C351 859 348 865 359 877C368 887 380 894 392 898C406 902 419 903 430 901C568 868 732 860 921 873C921 873 922 872 924 873C938 874 946 871 950 865C954 857 950 847 939 838C903 809 872 798 847 803C796 811 728 825 643 833C614 836 614 836 599 837Z"/>
<defs>
	<clipPath id="z20677c1"><use xlink:href="#z20677d1"/></clipPath>
	<clipPath id="z20677c2"><use xlink:href="#z20677d2"/></clipPath>
	<clipPath id="z20677c3"><use xlink:href="#z20677d3"/></clipPath>
	<clipPath id="z20677c4"><use xlink:href="#z20677d4"/></clipPath>
	<clipPath id="z20677c5"><use xlink:href="#z20677d5"/></clipPath>
	<clipPath id="z20677c6"><use xlink:href="#z20677d6"/></clipPath>
	<clipPath id="z20677c7"><use xlink:href="#z20677d7"/></clipPath>
	<clipPath id="z20677c8"><use xlink:href="#z20677d8"/></clipPath>
	<clipPath id="z20677c9"><use xlink:href="#z20677d9"/></clipPath>
	<clipPath id="z20677c10"><use xlink:href="#z20677d10"/></clipPath>
	<clipPath id="z20677c11"><use xlink:href="#z20677d11"/></clipPath>
	<clipPath id="z20677c12"><use xlink:href="#z20677d12"/></clipPath>
	<clipPath id="z20677c13"><use xlink:href="#z20677d13"/></clipPath>
</defs>
<path style="--d:1s;" pathLength="3333" clip-path="url(#z20677c1)" d="M300 103L347 168L224 397L80 580"/>
<path style="--d:2s;" pathLength="3333" clip-path="url(#z20677c2)" d="M255 399L277 466L259 928"/>
<path style="--d:3s;" pathLength="3333" clip-path="url(#z20677c3)" d="M394 276L840 214L934 218"/>
<path style="--d:4s;" pathLength="3333" clip-path="url(#z20677c4)" d="M494 118L539 147L562 381"/>
<path style="--d:5s;" pathLength="3333" clip-path="url(#z20677c5)" d="M701 50L745 98L699 318"/>
<path style="--d:6s;" pathLength="3333" clip-path="url(#z20677c6)" d="M582 367L670 337L736 342"/>
<path style="--d:7s;" pathLength="3333" clip-path="url(#z20677c7)" d="M426 452L456 470L497 601"/>
<path style="--d:8s;" pathLength="3333" clip-path="url(#z20677c8)" d="M485 455L784 412L820 450L769 509"/>
<path style="--d:9s;" pathLength="3333" clip-path="url(#z20677c9)" d="M511 567L816 540"/>
<path style="--d:10s;" pathLength="3333" clip-path="url(#z20677c10)" d="M457 662L786 632"/>
<path style="--d:11s;" pathLength="3333" clip-path="url(#z20677c11)" d="M473 768L775 735"/>
<path style="--d:12s;" pathLength="3333" clip-path="url(#z20677c12)" d="M582 377L624 420L613 835"/>
<path style="--d:13s;" pathLength="3333" clip-path="url(#z20677c13)" d="M362 869L858 835L946 849"/>
</svg>