<!--
AnimCJK 2016-2026 Copyright FM-SH - https://github.com/parsimonhi/animCJK
Derived from:
    MakeMeAHanzi project - https://github.com/skishore/makemeahanzi
    Arphic PL KaitiM GB font
    Arphic PL KaitiM Big5 font
You can redistribute and/or modify this file under the terms of the Arphic Public License
as published by Arphic Technology Co., Ltd.
You should have received a copy of this license along with this file.
If not, see https://ftp.gnu.org/non-gnu/chinese-fonts-truetype/LICENSE.
-->
<svg id="z20674" class="acjk" viewBox="0 0 1024 1024" xmlns="http://www.w3.org/2000/svg">
<style>
<![CDATA[
@keyframes zk {
	to {
		stroke-dashoffset:0;
	}
}
svg.acjk path[clip-path] {
	--t:0.8s;
	animation:zk var(--t) linear forwards var(--d);
	stroke-dasharray:3337;
	stroke-dashoffset:3339;
	stroke-width:128;
	stroke-linecap:round;
	fill:none;
	stroke:#000;
}
svg.acjk path[id] {fill:#ccc;}
]]>
</style>
<path id="z20674d1" d="M230 364C255 325 282 275 306 232C324 197 339 169 354 152C360 144 360 135 357 127C353 118 343 105 322 93C283 69 250 72 265 103C275 125 277 145 271 165C227 291 157 412 57 544C37 569 40 583 75 558C129 520 169 454 206 400C222 376 222 376 230 364Z"/>
<path id="z20674d2" d="M206 400C224 430 233 474 233 533C233 629 222 718 202 801C194 830 198 866 226 897C239 911 248 913 259 889C270 862 273 833 273 802C271 611 273 494 281 452C284 433 285 421 279 414C251 383 234 367 230 364C219 355 200 387 206 400Z"/>
<path id="z20674d3" d="M464 200C457 197 444 195 426 193C414 189 404 194 416 215C426 237 439 263 448 295C453 315 453 315 456 325C468 370 477 400 489 414C509 436 510 422 512 402C512 392 511 382 509 373C505 358 501 336 496 314C492 296 492 296 490 287C484 260 480 241 478 229C476 218 474 204 464 200Z"/>
<path id="z20674d4" d="M683 369C698 388 713 410 732 382C739 370 744 330 764 269C773 240 773 240 778 225C781 214 788 205 796 198C803 190 804 183 797 175C788 165 772 152 746 139C729 130 652 153 623 161C590 169 590 169 573 173C534 182 465 199 464 200C454 204 468 233 478 229C504 220 536 212 575 202C605 194 605 194 620 190C646 182 667 177 684 176C712 173 728 182 724 206C721 218 718 229 717 240C713 263 713 263 711 275C706 303 697 328 686 341C680 348 677 361 683 369Z"/>
<path id="z20674d5" d="M764 269C788 266 835 261 905 257C928 255 932 240 914 228C858 189 784 223 778 225C737 235 737 235 717 240C686 247 653 253 619 261C591 267 591 267 577 270C548 276 519 281 490 287C462 292 462 292 448 295C409 302 371 309 333 317C322 319 319 325 329 333C348 348 368 352 387 346C407 338 430 331 456 325C483 318 483 318 496 314C516 308 562 299 577 297C604 292 604 292 618 289C646 283 677 278 711 275C746 271 746 271 764 269Z"/>
<path id="z20674d6" d="M616 380C634 376 657 371 683 369C692 367 693 347 686 341C671 327 654 333 617 344C591 351 591 351 578 355C553 361 530 367 509 373C500 377 502 402 512 402C526 402 547 392 578 387C603 382 603 382 616 380Z"/>
<path id="z20674d7" d="M451 470C443 466 428 463 407 462C388 460 390 471 398 483C414 507 430 540 443 582C446 594 451 604 461 612C481 629 486 618 482 596C480 586 478 577 476 568C468 544 461 511 458 497C456 488 460 473 451 470Z"/>
<path id="z20674d8" d="M746 525C758 495 772 478 786 468C796 459 796 447 788 440C748 406 714 402 686 416C662 427 637 434 614 440C589 446 589 446 576 449C534 458 492 464 451 470C442 472 449 499 458 497C497 488 536 480 576 472C601 467 601 467 614 464C644 457 667 452 684 450C708 448 719 451 717 469C713 487 710 505 706 521C703 534 741 537 746 525Z"/>
<path id="z20674d9" d="M482 596C500 595 518 590 536 587C554 584 554 584 563 582C611 573 676 562 758 554C760 553 785 550 746 525C735 518 719 519 706 521C675 524 642 536 612 543C586 548 586 548 573 551C538 558 506 562 476 568C467 570 472 596 482 596Z"/>
<path id="z20674d10" d="M614 440C614 419 615 399 616 380C617 356 617 356 617 344C617 325 617 307 618 289C619 270 619 270 619 261C620 219 618 206 620 190C622 171 622 171 623 161C625 132 629 125 637 86C638 79 634 69 621 62C599 49 579 44 565 41C547 37 529 47 543 68C561 97 570 131 573 173C574 192 574 192 575 202C576 223 577 246 577 270C577 288 577 288 577 297C577 315 578 334 578 355C578 376 578 376 578 387C578 407 576 427 576 449C576 464 576 464 576 472C576 496 574 523 573 551C573 564 612 556 612 543C612 516 614 490 614 464C614 448 614 448 614 440Z"/>
<path id="z20674d11" d="M536 587C547 614 536 643 527 668C517 693 517 693 512 705C506 717 499 728 494 737C488 745 475 769 504 777C529 783 554 796 582 812C607 826 607 826 619 833C658 855 705 894 763 944C777 956 790 963 801 964C813 964 819 957 820 946C820 933 812 906 797 886C783 868 736 839 647 801C619 789 619 789 605 783C582 773 562 764 545 760C532 756 529 749 537 737C545 722 551 709 558 698C573 673 573 673 580 660C602 621 612 621 563 582C556 577 533 579 536 587Z"/>
<path id="z20674d12" d="M582 812C555 845 504 869 442 895C417 904 409 912 441 916C485 921 570 888 619 833C638 812 638 812 647 801C656 790 673 762 690 732C699 715 707 698 716 681C721 668 725 651 720 638C712 615 688 605 673 607C665 607 661 612 663 621C663 629 665 638 663 648C656 673 656 673 653 686C645 713 628 753 605 783C590 802 590 802 582 812Z"/>
<path id="z20674d13" d="M527 668C464 677 399 686 332 695C318 696 316 701 327 713C347 733 377 737 394 732C430 720 469 711 512 705C543 700 543 700 558 698C589 693 621 688 653 686C695 683 695 683 716 681C760 677 826 675 916 675C941 675 950 659 928 642C894 616 855 609 813 619C785 625 754 632 720 638C682 645 682 645 663 648C641 651 608 655 580 660C545 665 545 665 527 668Z"/>
<defs>
	<clipPath id="z20674c1"><use href="#z20674d1"/></clipPath>
	<clipPath id="z20674c2"><use href="#z20674d2"/></clipPath>
	<clipPath id="z20674c3"><use href="#z20674d3"/></clipPath>
	<clipPath id="z20674c4"><use href="#z20674d4"/></clipPath>
	<clipPath id="z20674c5"><use href="#z20674d5"/></clipPath>
	<clipPath id="z20674c6"><use href="#z20674d6"/></clipPath>
	<clipPath id="z20674c7"><use href="#z20674d7"/></clipPath>
	<clipPath id="z20674c8"><use href="#z20674d8"/></clipPath>
	<clipPath id="z20674c9"><use href="#z20674d9"/></clipPath>
	<clipPath id="z20674c10"><use href="#z20674d10"/></clipPath>
	<clipPath id="z20674c11"><use href="#z20674d11"/></clipPath>
	<clipPath id="z20674c12"><use href="#z20674d12"/></clipPath>
	<clipPath id="z20674c13"><use href="#z20674d13"/></clipPath>
</defs>
<path style="--d:1s;" pathLength="3333" clip-path="url(#z20674c1)" d="M268 86L309 120L311 156L192 383L54 564"/>
<path style="--d:2s;" pathLength="3333" clip-path="url(#z20674c2)" d="M223 371L254 438L235 903"/>
<path style="--d:3s;" pathLength="3333" clip-path="url(#z20674c3)" d="M418 198L455 238L503 418"/>
<path style="--d:4s;" pathLength="3333" clip-path="url(#z20674c4)" d="M466 210L686 159L747 171L763 192L713 392"/>
<path style="--d:5s;" pathLength="3333" clip-path="url(#z20674c5)" d="M330 325L831 236L921 239"/>
<path style="--d:6s;" pathLength="3333" clip-path="url(#z20674c6)" d="M506 387L686 348"/>
<path style="--d:7s;" pathLength="3333" clip-path="url(#z20674c7)" d="M398 467L430 484L477 614"/>
<path style="--d:8s;" pathLength="3333" clip-path="url(#z20674c8)" d="M451 480L718 430L755 461L722 531"/>
<path style="--d:9s;" pathLength="3333" clip-path="url(#z20674c9)" d="M475 582L763 542"/>
<path style="--d:10s;" pathLength="3333" clip-path="url(#z20674c10)" d="M545 50L599 96L590 554"/>
<path style="--d:11s;" pathLength="3333" clip-path="url(#z20674c11)" d="M544 586L567 631L511 760L730 874L807 959"/>
<path style="--d:12s;" pathLength="3333" clip-path="url(#z20674c12)" d="M670 611L690 663L621 798L542 869L430 905"/>
<path style="--d:13s;" pathLength="3333" clip-path="url(#z20674c13)" d="M329 703L833 645L936 658"/>
</svg>