<!--
AnimCJK 2016-2017 Copyright Francois Mizessyn, http://gooo.free.fr/animCJK/
Derived from:
    MakeMeAHanzi project - https://github.com/skishore/makemeahanzi
    Arphic PL KaitiM GB - https://apps.ubuntu.com/cat/applications/precise/fonts-arphic-gkai00mp/
    Arphic PL UKai - https://apps.ubuntu.com/cat/applications/fonts-arphic-ukai/
You can redistribute and/or modify this file under the terms of the Arphic Public License
as published by Arphic Technology Co., Ltd.
You should have received a copy of this license (the directory "APL") along with this file;
if not, see http://ftp.gnu.org/non-gnu/chinese-fonts-truetype/LICENSE.
-->
<svg id="z20736" class="acjk" version="1.1" viewBox="0 0 1024 1024" xmlns="http://www.w3.org/2000/svg" xmlns:xlink="http://www.w3.org/1999/xlink">
<style>
<![CDATA[
	@keyframes z20736k {
		from {
			stroke:#c00;
			stroke-dashoffset:3000;
		}
		75% {
			stroke:#c00;
			stroke-dashoffset:0;
		}
		to {
			stroke:#000;
		}
	}
	#z20736 path[clip-path] {
		animation:z20736k 1s linear both;
		stroke-dasharray:3000;
		stroke-width:128;
		stroke-linecap:round;
		fill:none;
	}
	#z20736 path[clip-path="url(#z20736c1)"] {animation-delay:1s;}
	#z20736 path[clip-path="url(#z20736c2)"] {animation-delay:2s;}
	#z20736 path[clip-path="url(#z20736c3)"] {animation-delay:3s;}
	#z20736 path[clip-path="url(#z20736c4)"] {animation-delay:4s;}
	#z20736 path[clip-path="url(#z20736c5)"] {animation-delay:5s;}
	#z20736 path[clip-path="url(#z20736c6)"] {animation-delay:6s;}
	#z20736 path[clip-path="url(#z20736c7)"] {animation-delay:7s;}
	#z20736 path[clip-path="url(#z20736c8)"] {animation-delay:8s;}
	#z20736 path[clip-path="url(#z20736c9)"] {animation-delay:9s;}
	#z20736 path[clip-path="url(#z20736c10)"] {animation-delay:10s;}
	#z20736 path[clip-path="url(#z20736c11)"] {animation-delay:11s;}
	#z20736 path[clip-path="url(#z20736c12)"] {animation-delay:12s;}
	#z20736 path[clip-path="url(#z20736c13)"] {animation-delay:13s;}
	#z20736 path[clip-path="url(#z20736c14)"] {animation-delay:14s;}
	#z20736 path[clip-path="url(#z20736c15)"] {animation-delay:15s;}
	#z20736 path {fill:#ccc;}
]]>
</style>
<g transform="scale(1,-1) translate(0,-900)">
	<path id="z20736d1" d="M254 516Q293 574 337 647Q362 698 385 722Q395 732 389 747Q385 760 354 783Q326 802 305 800Q286 799 295 775Q311 744 299 715Q265 622 211 534Q159 449 86 356Q76 346 74 339Q70 327 85 330Q124 339 219 469Q220 473 224 476L254 516Z"/>
	<path id="z20736d2" d="M224 476Q257 409 238 209Q231 151 217 91Q202 42 239 -6Q240 -9 244 -12Q263 -28 275 0Q290 42 290 90Q286 373 294 437Q301 465 291 476Q273 498 259 512Q256 515 254 516L224 476Z"/>
	<path id="z20736d3" d="M463 794Q496 743 524 730Q537 726 547 737Q554 747 553 764Q549 786 534 800Q495 833 461 832Q457 833 454 831Q448 831 449 819Q450 809 463 794Z"/>
	<path id="z20736d4" d="M682 836Q673 817 630 750Q621 734 637 738Q661 751 725 795Q743 811 766 823Q785 835 774 851Q761 867 734 879Q709 891 697 888Q685 885 690 873Q694 854 682 836Z"/>
	<path id="z20736d5" d="M621 665Q753 698 759 702Q768 709 763 717Q756 727 730 734Q705 738 596 702Q488 681 468 678Q434 672 459 657Q492 639 560 652Q566 653 576 655L621 665Z"/>
	<path id="z20736d6" d="M619 505Q620 541 623 571L626 617Q626 621 627 624Q627 661 626 662Q623 665 621 665L576 655Q576 654 579 602L580 563Q580 536 582 496L619 505Z"/>
	<path id="z20736d7" d="M623 571Q674 583 718 590Q743 594 733 608Q721 623 695 627Q670 630 626 617L579 602Q518 586 463 570Q445 566 468 551Q480 542 506 547Q543 556 580 563L623 571Z"/>
	<path id="z20736d8" d="M582 496Q497 478 404 458Q388 454 401 443Q413 433 426 431Q442 428 454 432Q563 471 799 495Q814 496 817 503Q820 512 807 521Q758 551 711 530Q672 521 619 505L582 496Z"/>
	<path id="z20736d9" d="M506 365Q543 386 559 390Q569 394 568 401Q565 407 553 415Q526 431 509 432Q502 432 501 424Q501 394 378 338Q371 334 382 330Q428 333 475 352Q476 353 479 353L506 365Z"/>
	<path id="z20736d10" d="M694 318Q737 331 777 342Q786 341 792 353Q792 363 772 370Q726 379 690 359L646 342Q622 333 599 324Q566 312 537 301L495 288Q476 284 459 279Q413 267 360 253Q336 246 357 234Q388 216 411 225Q450 240 495 255L534 268Q586 287 654 307L694 318Z"/>
	<path id="z20736d11" d="M537 301Q538 313 543 322Q550 335 537 346Q522 359 506 365L479 353Q494 323 495 288L495 255Q495 224 495 195L495 160Q492 43 480 35Q476 32 416 39Q406 40 407 35Q408 31 416 24Q471 -19 489 -45Q499 -58 511 -47Q533 -23 535 53Q532 92 533 187L533 215Q533 242 534 268L537 301Z"/>
	<path id="z20736d12" d="M495 195Q318 108 317 102Q316 95 327 83Q342 70 360 63Q372 60 383 70Q413 101 495 160L533 187Q552 202 572 214Q588 223 597 234Q603 244 594 244Q584 243 565 231Q549 224 533 215L495 195Z"/>
	<path id="z20736d13" d="M714 131Q766 20 852 -38Q916 -71 933 -58Q949 -49 942 -18Q935 9 927 109Q927 127 922 130Q919 131 915 115Q896 37 879 23Q872 20 847 36Q787 84 747 157L729 197Q705 248 694 318L690 359Q689 389 693 406Q700 428 663 445Q635 460 619 456Q604 453 614 432Q638 398 646 342L654 307Q672 226 700 164L714 131Z"/>
	<path id="z20736d14" d="M700 164Q675 140 646 120Q618 101 603 90Q593 80 607 80Q640 77 714 131L747 157Q760 169 773 182Q804 215 832 241Q842 250 833 265Q802 299 782 302Q772 302 771 289Q770 247 729 197L700 164Z"/>
	<path id="z20736d15" d="M803 407Q828 389 854 367Q867 357 881 359Q890 360 893 372Q896 385 886 410Q874 435 795 448Q782 449 776 447Q772 443 774 432Q778 422 803 407Z"/>
	<defs>
		<clipPath id="z20736c1"><use xlink:href="#z20736d1"/></clipPath>
		<clipPath id="z20736c2"><use xlink:href="#z20736d2"/></clipPath>
		<clipPath id="z20736c3"><use xlink:href="#z20736d3"/></clipPath>
		<clipPath id="z20736c4"><use xlink:href="#z20736d4"/></clipPath>
		<clipPath id="z20736c5"><use xlink:href="#z20736d5"/></clipPath>
		<clipPath id="z20736c6"><use xlink:href="#z20736d6"/></clipPath>
		<clipPath id="z20736c7"><use xlink:href="#z20736d7"/></clipPath>
		<clipPath id="z20736c8"><use xlink:href="#z20736d8"/></clipPath>
		<clipPath id="z20736c9"><use xlink:href="#z20736d9"/></clipPath>
		<clipPath id="z20736c10"><use xlink:href="#z20736d10"/></clipPath>
		<clipPath id="z20736c11"><use xlink:href="#z20736d11"/></clipPath>
		<clipPath id="z20736c12"><use xlink:href="#z20736d12"/></clipPath>
		<clipPath id="z20736c13"><use xlink:href="#z20736d13"/></clipPath>
		<clipPath id="z20736c14"><use xlink:href="#z20736d14"/></clipPath>
		<clipPath id="z20736c15"><use xlink:href="#z20736d15"/></clipPath>
	</defs>
	<path pathLength="2999" clip-path="url(#z20736c1)" d="M300 794L347 732L234 527L83 336"/>
	<path pathLength="2999" clip-path="url(#z20736c2)" d="M252 508L267 312L249 -13"/>
	<path pathLength="2999" clip-path="url(#z20736c3)" d="M457 826L543 736"/>
	<path pathLength="2999" clip-path="url(#z20736c4)" d="M699 879L728 833L634 743"/>
	<path pathLength="2999" clip-path="url(#z20736c5)" d="M459 668L758 711"/>
	<path pathLength="2999" clip-path="url(#z20736c6)" d="M618 657L597 501"/>
	<path pathLength="2999" clip-path="url(#z20736c7)" d="M462 563L727 604"/>
	<path pathLength="2999" clip-path="url(#z20736c8)" d="M402 452L740 514L813 509"/>
	<path pathLength="2999" clip-path="url(#z20736c9)" d="M562 400L514 403L386 335"/>
	<path pathLength="2999" clip-path="url(#z20736c10)" d="M353 245L787 354"/>
	<path pathLength="2999" clip-path="url(#z20736c11)" d="M487 349L518 322L507 20L486 -9L414 32"/>
	<path pathLength="2999" clip-path="url(#z20736c12)" d="M322 103L371 98L590 238"/>
	<path pathLength="2999" clip-path="url(#z20736c13)" d="M615 449L663 407L706 200L796 47L850 -1L909 -14L920 121"/>
	<path pathLength="2999" clip-path="url(#z20736c14)" d="M780 295L801 254L755 195L609 87"/>
	<path pathLength="2999" clip-path="url(#z20736c15)" d="M780 443L889 368"/>
</g>
</svg>