<!--
AnimCJK 2016-2018 Copyright Francois Mizessyn, https://github.com/parsimonhi/animCJK
Derived from:
    MakeMeAHanzi project - https://github.com/skishore/makemeahanzi
    Arphic PL KaitiM GB - https://apps.ubuntu.com/cat/applications/precise/fonts-arphic-gkai00mp/
    Arphic PL UKai - https://apps.ubuntu.com/cat/applications/fonts-arphic-ukai/
You can redistribute and/or modify this file under the terms of the Arphic Public License
as published by Arphic Technology Co., Ltd.
You should have received a copy of this license (the directory "APL") along with this file;
if not, see http://ftp.gnu.org/non-gnu/chinese-fonts-truetype/LICENSE.
-->
<svg id="z20778" class="acjk" version="1.1" viewBox="0 0 1024 1024" xmlns="http://www.w3.org/2000/svg" xmlns:xlink="http://www.w3.org/1999/xlink">
<style>
<![CDATA[
@keyframes z20778k {
	from {
		stroke:#c00;
		stroke-dashoffset:3334;
	}
	75% {
		stroke:#c00;
		stroke-dashoffset:0;
	}
	to {
		stroke:#000;
	}
}
#z20778 path[clip-path] {
	animation:z20778k 1s linear both;
	stroke-dasharray:3334;
	stroke-width:128;
	stroke-linecap:round;
	fill:none;
}
#z20778 path[clip-path="url(#z20778c1)"] {animation-delay:1s;}
#z20778 path[clip-path="url(#z20778c2)"] {animation-delay:2s;}
#z20778 path[clip-path="url(#z20778c3)"] {animation-delay:3s;}
#z20778 path[clip-path="url(#z20778c4)"] {animation-delay:4s;}
#z20778 path[clip-path="url(#z20778c5)"] {animation-delay:5s;}
#z20778 path[clip-path="url(#z20778c6)"] {animation-delay:6s;}
#z20778 path[clip-path="url(#z20778c7)"] {animation-delay:7s;}
#z20778 path[clip-path="url(#z20778c8)"] {animation-delay:8s;}
#z20778 path[clip-path="url(#z20778c9)"] {animation-delay:9s;}
#z20778 path[clip-path="url(#z20778c10)"] {animation-delay:10s;}
#z20778 path[clip-path="url(#z20778c11)"] {animation-delay:11s;}
#z20778 path[clip-path="url(#z20778c12)"] {animation-delay:12s;}
#z20778 path[clip-path="url(#z20778c13)"] {animation-delay:13s;}
#z20778 path[clip-path="url(#z20778c14)"] {animation-delay:14s;}
#z20778 path[clip-path="url(#z20778c15)"] {animation-delay:15s;}
#z20778 path[clip-path="url(#z20778c16)"] {animation-delay:16s;}
#z20778 path[clip-path="url(#z20778c17)"] {animation-delay:17s;}
#z20778 path {fill:#ccc;}
]]>
</style>
<path id="z20778d1" d="M250 359Q289 304 331 235Q356 186 380 163Q390 151 384 137Q380 124 350 101Q322 82 301 83Q282 84 291 108Q306 139 294 166Q260 257 204 343Q152 425 78 516Q68 526 66 533Q62 545 77 542Q119 532 212 408Q216 401 223 394L250 359 Z"/>
<path id="z20778d2" d="M223 394Q247 455 247 513Q237 675 236 682Q226 740 210 801Q200 846 234 897Q235 897 237 900Q255 916 267 889Q282 849 281 802Q285 510 297 444Q304 417 295 406Q253 361 250 359L223 394 Z"/>
<path id="z20778d3" d="M604 122Q677 109 757 97Q809 87 818 80Q825 74 822 66Q816 56 792 48Q768 42 665 71Q562 95 457 101Q426 105 447 120Q478 141 547 130Q556 129 567 128L604 122 Z"/>
<path id="z20778d4" d="M562 213Q598 174 613 162Q626 155 621 145Q617 135 604 122L567 128Q567 147 549 190Q539 205 537 216Q536 216 536 217L562 213 Z"/>
<path id="z20778d5" d="M503 220Q493 211 481 207Q471 206 464 209Q457 213 460 221Q472 242 480 324Q481 367 489 443L526 436Q525 412 525 391L525 370Q524 343 524 319L524 296Q524 272 525 246L503 220 Z"/>
<path id="z20778d6" d="M736 399Q748 258 762 242Q772 229 762 215Q753 205 712 179Q702 172 613 200Q589 204 562 213L536 217Q520 218 503 220L525 246Q627 221 668 216Q684 213 690 219Q693 225 690 407L736 399 Z"/>
<path id="z20778d7" d="M524 319Q524 318 527 318Q585 306 630 299Q648 295 641 286Q632 276 612 272Q582 269 524 296L524 319 Z"/>
<path id="z20778d8" d="M525 391Q528 391 534 390Q592 378 634 371Q652 367 645 358Q636 348 616 344Q597 343 525 370L525 391 Z"/>
<path id="z20778d9" d="M391 460L391 459Q379 443 369 436Q353 427 355 448Q364 478 326 531Q316 549 340 590Q358 606 366 585Q369 579 391 492L391 460 Z"/>
<path id="z20778d10" d="M391 492Q407 498 426 493Q508 463 766 420Q821 413 838 415Q851 418 851 426Q851 427 822 488Q813 501 819 504Q826 507 842 498Q890 468 929 460Q960 453 961 444Q958 435 897 388Q881 373 858 375Q801 385 736 399L690 407Q621 417 526 436L489 443Q486 442 483 443Q437 453 391 460L391 492 Z"/>
<path id="z20778d11" d="M455 535Q442 565 423 591Q411 612 420 635Q426 647 439 639Q470 615 472 573Q475 551 471 535Q467 529 464 529Q458 530 455 535 Z"/>
<path id="z20778d12" d="M518 561Q561 636 660 644Q694 648 733 641Q761 631 772 615Q782 602 759 593Q722 571 677 528Q674 525 671 527Q670 530 673 536Q698 585 692 594Q688 598 657 601Q588 602 526 549Q520 542 515 547Q511 551 518 561 Z"/>
<path id="z20778d13" d="M575 527Q609 558 626 563Q636 564 641 556Q644 547 641 537Q637 522 624 515Q582 494 564 503Q560 504 563 511Q564 518 575 527 Z"/>
<path id="z20778d14" d="M715 502Q763 541 771 541Q778 541 782 532Q785 522 778 501Q771 482 711 470Q701 469 696 470Q692 473 694 481Q697 488 715 502 Z"/>
<path id="z20778d15" d="M547 699Q572 662 573 657Q569 647 548 642Q526 636 516 639Q510 640 509 651Q499 724 343 866Q327 879 349 875Q409 863 500 758L515 741Q524 729 534 716L547 699 Z"/>
<path id="z20778d16" d="M601 845Q591 852 580 862Q528 896 394 925Q381 926 387 934Q393 940 417 941Q504 934 554 918Q599 902 633 871L668 835Q692 804 710 762Q720 734 738 722Q751 712 739 698Q724 682 698 668Q682 661 663 667Q621 689 563 697Q553 697 547 699L534 716Q535 716 538 718Q560 730 593 720L655 706Q667 702 669 715Q669 760 629 815L601 845 Z"/>
<path id="z20778d17" d="M633 871Q744 958 774 965Q852 965 934 938Q952 934 953 928Q954 921 939 918Q887 905 827 893Q763 878 668 835L629 815Q604 800 578 783Q536 753 515 741L500 758Q510 768 601 845L633 871 Z"/>
<defs>
	<clipPath id="z20778c1"><use xlink:href="#z20778d1"/></clipPath>
	<clipPath id="z20778c2"><use xlink:href="#z20778d2"/></clipPath>
	<clipPath id="z20778c3"><use xlink:href="#z20778d3"/></clipPath>
	<clipPath id="z20778c4"><use xlink:href="#z20778d4"/></clipPath>
	<clipPath id="z20778c5"><use xlink:href="#z20778d5"/></clipPath>
	<clipPath id="z20778c6"><use xlink:href="#z20778d6"/></clipPath>
	<clipPath id="z20778c7"><use xlink:href="#z20778d7"/></clipPath>
	<clipPath id="z20778c8"><use xlink:href="#z20778d8"/></clipPath>
	<clipPath id="z20778c9"><use xlink:href="#z20778d9"/></clipPath>
	<clipPath id="z20778c10"><use xlink:href="#z20778d10"/></clipPath>
	<clipPath id="z20778c11"><use xlink:href="#z20778d11"/></clipPath>
	<clipPath id="z20778c12"><use xlink:href="#z20778d12"/></clipPath>
	<clipPath id="z20778c13"><use xlink:href="#z20778d13"/></clipPath>
	<clipPath id="z20778c14"><use xlink:href="#z20778d14"/></clipPath>
	<clipPath id="z20778c15"><use xlink:href="#z20778d15"/></clipPath>
	<clipPath id="z20778c16"><use xlink:href="#z20778d16"/></clipPath>
	<clipPath id="z20778c17"><use xlink:href="#z20778d17"/></clipPath>
</defs>
<path pathLength="3333" clip-path="url(#z20778c1)" d="M294 91L340 157L204 383L70 535"/>
<path pathLength="3333" clip-path="url(#z20778c2)" d="M250 365L269 435L251 901"/>
<path pathLength="3333" clip-path="url(#z20778c3)" d="M451 112L818 70"/>
<path pathLength="3333" clip-path="url(#z20778c4)" d="M573 133L588 165L543 210"/>
<path pathLength="3333" clip-path="url(#z20778c5)" d="M469 215L499 263L500 440"/>
<path pathLength="3333" clip-path="url(#z20778c6)" d="M512 221L689 196L718 211L707 403"/>
<path pathLength="3333" clip-path="url(#z20778c7)" d="M530 309L634 290"/>
<path pathLength="3333" clip-path="url(#z20778c8)" d="M528 383L640 359"/>
<path pathLength="3333" clip-path="url(#z20778c9)" d="M363 440L347 592"/>
<path pathLength="3333" clip-path="url(#z20778c10)" d="M396 485L853 396L886 418L903 456L825 499"/>
<path pathLength="3333" clip-path="url(#z20778c11)" d="M464 533L430 637"/>
<path pathLength="3333" clip-path="url(#z20778c12)" d="M522 555L599 611L697 620L733 595L676 535"/>
<path pathLength="3333" clip-path="url(#z20778c13)" d="M569 510L636 553"/>
<path pathLength="3333" clip-path="url(#z20778c14)" d="M700 478L779 528"/>
<path pathLength="3333" clip-path="url(#z20778c15)" d="M565 657L527 673L445 790L343 871"/>
<path pathLength="3333" clip-path="url(#z20778c16)" d="M542 713L692 694L706 720L660 808L572 889L394 930"/>
<path pathLength="3333" clip-path="url(#z20778c17)" d="M507 754L776 922L947 926"/>
</svg>