<!--
AnimCJK 2016-2019 Copyright Francois Mizessyn - https://github.com/parsimonhi/animCJK
Derived from:
    MakeMeAHanzi project - https://github.com/skishore/makemeahanzi
    Arphic PL KaitiM GB font
    Arphic PL UKai font
You can redistribute and/or modify this file under the terms of the Arphic Public License
as published by Arphic Technology Co., Ltd.
You should have received a copy of this license along with this file.
If not, see http://ftp.gnu.org/non-gnu/chinese-fonts-truetype/LICENSE.
-->
<svg id="z20786" class="acjk" version="1.1" viewBox="0 0 1024 1024" xmlns="http://www.w3.org/2000/svg" xmlns:xlink="http://www.w3.org/1999/xlink">
<style>
<![CDATA[
@keyframes zk {
	to {
		stroke-dashoffset:0;
	}
}
svg.acjk path[clip-path] {
	--t:0.8s;
	animation:zk var(--t) linear forwards var(--d);
	stroke-dasharray:3337;
	stroke-dashoffset:3339;
	stroke-width:128;
	stroke-linecap:round;
	fill:none;
	stroke:#000;
}
svg.acjk path[id] {fill:#ccc;}
]]>
</style>
<path id="z20786d1" d="M188 385C216 346 246 300 275 245C290 214 304 191 318 176C324 169 324 161 321 151C318 142 307 130 286 117C267 105 251 99 238 101C225 102 221 111 229 126C238 144 239 162 234 180C214 237 189 293 158 347C127 399 92 455 49 512C42 520 38 526 38 530C36 538 39 540 49 538C69 532 109 490 167 413C181 394 181 394 188 385Z"/>
<path id="z20786d2" d="M167 413C169 421 174 428 178 436C196 469 201 548 191 670C188 704 181 738 174 773C167 803 174 835 198 869C198 869 199 870 201 872C212 883 223 879 231 861C241 834 245 805 245 774C241 612 239 512 245 476C247 457 249 445 243 438C213 405 194 388 188 385C179 378 163 402 167 413Z"/>
<path id="z20786d3" d="M403 177C415 187 428 199 442 213C450 221 460 224 470 223C476 222 482 218 485 210C488 200 485 185 479 167C473 150 445 139 397 131C386 129 379 128 376 131C372 133 371 139 373 147C374 154 385 163 403 177Z"/>
<path id="z20786d4" d="M293 323C270 328 268 336 286 345C311 357 341 356 375 346C412 334 451 323 491 312C508 306 518 303 521 300C525 294 527 289 524 284C519 277 507 272 489 270C473 267 443 278 398 295C358 309 322 316 293 323Z"/>
<path id="z20786d5" d="M327 425C308 428 306 437 321 443C345 452 370 449 395 442C438 428 467 421 478 415C483 411 482 406 479 402C475 397 465 392 451 391C445 390 418 398 371 414C358 418 343 421 327 425Z"/>
<path id="z20786d6" d="M323 523C304 526 301 535 317 542C336 551 370 549 415 536C459 523 483 515 486 513C490 509 490 503 487 499C482 492 472 488 457 487C445 485 416 495 371 512C356 517 340 519 323 523Z"/>
<path id="z20786d7" d="M325 618C318 614 305 611 287 608C280 606 275 606 274 609C271 612 271 619 276 628C290 658 303 699 311 752C313 766 317 779 326 790C336 802 342 804 346 796C348 789 350 780 349 769C347 750 347 750 346 740C341 691 335 660 333 644C331 635 333 621 325 618Z"/>
<path id="z20786d8" d="M468 718C476 675 487 647 499 634C512 618 510 606 496 599C458 580 436 572 432 573C428 573 424 575 421 578C403 591 371 604 325 618C316 621 325 647 333 644C335 642 359 634 405 623C417 619 424 622 429 626C433 629 434 638 431 656C428 673 425 693 423 714C420 729 465 733 468 718Z"/>
<path id="z20786d9" d="M349 769C353 769 359 768 365 767C387 760 424 752 476 743C481 742 486 739 486 734C486 729 479 724 468 718C455 710 437 708 423 714C406 720 367 734 346 740C337 743 339 769 349 769Z"/>
<path id="z20786d10" d="M683 312C731 294 756 285 758 284C762 279 762 274 760 270C754 263 744 259 727 258C712 257 699 260 687 265C652 279 652 279 635 286C620 291 589 300 567 307C545 312 543 321 561 328C582 335 608 338 635 329C667 318 667 318 683 312Z"/>
<path id="z20786d11" d="M674 421C676 384 679 348 683 312C686 281 686 281 687 265C691 217 696 170 709 125C710 118 706 107 693 99C670 84 650 78 636 76C624 73 617 75 612 81C607 85 606 93 612 103C623 121 629 138 632 152C635 174 635 197 635 286C635 315 635 315 635 329C635 361 633 396 632 432C632 446 674 435 674 421Z"/>
<path id="z20786d12" d="M769 437C836 421 883 417 932 413C933 412 944 413 944 406C944 398 936 391 928 385C886 357 856 368 798 386C753 399 753 399 731 406C715 410 684 418 674 421C646 428 646 428 632 432C594 441 554 449 513 460C501 462 499 468 510 477C527 491 550 494 578 485C624 468 683 456 708 451C749 442 749 442 769 437Z"/>
<path id="z20786d13" d="M674 576C690 551 743 478 769 437C788 403 788 403 798 386C839 316 863 276 876 268C884 261 889 255 888 250C886 245 880 241 872 239C849 231 828 227 810 228C799 228 791 234 790 247C787 273 771 327 731 406C716 436 716 436 708 451C684 496 627 568 617 584C598 611 598 611 589 624C520 722 454 807 389 879C384 883 383 886 385 888C385 888 389 889 394 887C437 863 471 830 486 816C505 796 577 706 593 686C626 641 649 612 674 576Z"/>
<path id="z20786d14" d="M792 494C800 508 809 513 817 529C822 538 829 543 838 545C843 545 848 543 853 537C858 530 860 517 860 500C857 482 837 474 797 455C790 451 784 449 780 450C777 450 775 455 774 463C774 469 780 480 792 494Z"/>
<path id="z20786d15" d="M617 584C608 579 597 575 588 572C583 571 579 573 575 577C573 579 574 584 579 591C579 593 580 595 582 599C583 600 583 600 583 601C583 603 585 611 589 624C592 665 592 665 593 686C595 742 591 787 582 820C574 850 579 876 599 897C605 905 611 905 616 897C618 892 621 886 625 880C631 870 631 858 633 847C635 834 636 798 637 739C638 720 638 720 638 710C638 662 639 630 642 614C645 601 629 590 617 584Z"/>
<path id="z20786d16" d="M750 864C768 886 784 907 798 930C804 939 810 945 817 945C827 944 836 933 845 913C855 890 859 863 856 836C839 696 836 617 851 595C855 588 855 581 850 576C839 564 817 553 788 540C776 535 767 535 759 541C738 553 699 568 674 576C654 580 639 584 617 584C604 584 630 619 642 614C714 586 762 572 775 585C776 586 776 586 776 586C787 597 793 658 793 774C792 804 793 825 791 836C788 846 781 849 770 845C761 843 744 857 750 864Z"/>
<path id="z20786d17" d="M637 739C675 732 710 727 740 723C754 720 759 715 753 707C746 698 735 692 719 690C691 688 664 694 638 710C630 715 628 741 637 739Z"/>
<path id="z20786d18" d="M625 880C631 874 672 868 750 864C759 864 777 851 770 845C766 842 758 835 746 830C735 825 722 825 705 829C679 835 655 841 633 847C622 849 615 885 625 880Z"/>
<defs>
	<clipPath id="z20786c1"><use xlink:href="#z20786d1"/></clipPath>
	<clipPath id="z20786c2"><use xlink:href="#z20786d2"/></clipPath>
	<clipPath id="z20786c3"><use xlink:href="#z20786d3"/></clipPath>
	<clipPath id="z20786c4"><use xlink:href="#z20786d4"/></clipPath>
	<clipPath id="z20786c5"><use xlink:href="#z20786d5"/></clipPath>
	<clipPath id="z20786c6"><use xlink:href="#z20786d6"/></clipPath>
	<clipPath id="z20786c7"><use xlink:href="#z20786d7"/></clipPath>
	<clipPath id="z20786c8"><use xlink:href="#z20786d8"/></clipPath>
	<clipPath id="z20786c9"><use xlink:href="#z20786d9"/></clipPath>
	<clipPath id="z20786c10"><use xlink:href="#z20786d10"/></clipPath>
	<clipPath id="z20786c11"><use xlink:href="#z20786d11"/></clipPath>
	<clipPath id="z20786c12"><use xlink:href="#z20786d12"/></clipPath>
	<clipPath id="z20786c13"><use xlink:href="#z20786d13"/></clipPath>
	<clipPath id="z20786c14"><use xlink:href="#z20786d14"/></clipPath>
	<clipPath id="z20786c15"><use xlink:href="#z20786d15"/></clipPath>
	<clipPath id="z20786c16"><use xlink:href="#z20786d16"/></clipPath>
	<clipPath id="z20786c17"><use xlink:href="#z20786d17"/></clipPath>
	<clipPath id="z20786c18"><use xlink:href="#z20786d18"/></clipPath>
</defs>
<path style="--d:1s;" pathLength="3333" clip-path="url(#z20786c1)" d="M234 111L280 166L168 374L45 531"/>
<path style="--d:2s;" pathLength="3333" clip-path="url(#z20786c2)" d="M189 392L218 468L213 874"/>
<path style="--d:3s;" pathLength="3333" clip-path="url(#z20786c3)" d="M380 137L444 173L475 218"/>
<path style="--d:4s;" pathLength="3333" clip-path="url(#z20786c4)" d="M281 332L518 292"/>
<path style="--d:5s;" pathLength="3333" clip-path="url(#z20786c5)" d="M322 434L476 406"/>
<path style="--d:6s;" pathLength="3333" clip-path="url(#z20786c6)" d="M316 531L483 505"/>
<path style="--d:7s;" pathLength="3333" clip-path="url(#z20786c7)" d="M280 614L306 636L335 793"/>
<path style="--d:8s;" pathLength="3333" clip-path="url(#z20786c8)" d="M333 620L427 598L461 614L438 715"/>
<path style="--d:9s;" pathLength="3333" clip-path="url(#z20786c9)" d="M357 761L478 732"/>
<path style="--d:10s;" pathLength="3333" clip-path="url(#z20786c10)" d="M555 319L757 273"/>
<path style="--d:11s;" pathLength="3333" clip-path="url(#z20786c11)" d="M615 85L670 132L643 428"/>
<path style="--d:12s;" pathLength="3333" clip-path="url(#z20786c12)" d="M509 466L812 407L937 404"/>
<path style="--d:13s;" pathLength="3333" clip-path="url(#z20786c13)" d="M 804,237 839,262 706,491 603,638 393,882"/>
<path style="--d:14s;" pathLength="3333" clip-path="url(#z20786c14)" d="M782 457L841 537"/>
<path style="--d:15s;" pathLength="3333" clip-path="url(#z20786c15)" d="M580 578L615 623L604 892"/>
<path style="--d:16s;" pathLength="3333" clip-path="url(#z20786c16)" d="M624 585L660 593L764 560L817 580L820 864L796 896L756 861"/>
<path style="--d:17s;" pathLength="3333" clip-path="url(#z20786c17)" d="M645 730L749 709"/>
<path style="--d:18s;" pathLength="3333" clip-path="url(#z20786c18)" d="M632 872L763 846"/>
</svg>