<!--
AnimCJK 2016-2018 Copyright Francois Mizessyn, https://github.com/parsimonhi/animCJK
Derived from:
    MakeMeAHanzi project - https://github.com/skishore/makemeahanzi
    Arphic PL KaitiM GB - https://apps.ubuntu.com/cat/applications/precise/fonts-arphic-gkai00mp/
    Arphic PL UKai - https://apps.ubuntu.com/cat/applications/fonts-arphic-ukai/
You can redistribute and/or modify this file under the terms of the Arphic Public License
as published by Arphic Technology Co., Ltd.
You should have received a copy of this license (the directory "APL") along with this file;
if not, see http://ftp.gnu.org/non-gnu/chinese-fonts-truetype/LICENSE.
-->
<svg id="z20786" class="acjk" version="1.1" viewBox="0 0 1024 1024" xmlns="http://www.w3.org/2000/svg" xmlns:xlink="http://www.w3.org/1999/xlink">
<style>
<![CDATA[
@keyframes z20786k {
	from {
		stroke:#c00;
		stroke-dashoffset:3334;
	}
	75% {
		stroke:#c00;
		stroke-dashoffset:0;
	}
	to {
		stroke:#000;
	}
}
#z20786 path[clip-path] {
	animation:z20786k 1s linear both;
	stroke-dasharray:3334;
	stroke-width:128;
	stroke-linecap:round;
	fill:none;
}
#z20786 path[clip-path="url(#z20786c1)"] {animation-delay:1s;}
#z20786 path[clip-path="url(#z20786c2)"] {animation-delay:2s;}
#z20786 path[clip-path="url(#z20786c3)"] {animation-delay:3s;}
#z20786 path[clip-path="url(#z20786c4)"] {animation-delay:4s;}
#z20786 path[clip-path="url(#z20786c5)"] {animation-delay:5s;}
#z20786 path[clip-path="url(#z20786c6)"] {animation-delay:6s;}
#z20786 path[clip-path="url(#z20786c7)"] {animation-delay:7s;}
#z20786 path[clip-path="url(#z20786c8)"] {animation-delay:8s;}
#z20786 path[clip-path="url(#z20786c9)"] {animation-delay:9s;}
#z20786 path[clip-path="url(#z20786c10)"] {animation-delay:10s;}
#z20786 path[clip-path="url(#z20786c11)"] {animation-delay:11s;}
#z20786 path[clip-path="url(#z20786c12)"] {animation-delay:12s;}
#z20786 path[clip-path="url(#z20786c13)"] {animation-delay:13s;}
#z20786 path[clip-path="url(#z20786c14)"] {animation-delay:14s;}
#z20786 path[clip-path="url(#z20786c15)"] {animation-delay:15s;}
#z20786 path[clip-path="url(#z20786c16)"] {animation-delay:16s;}
#z20786 path[clip-path="url(#z20786c17)"] {animation-delay:17s;}
#z20786 path[clip-path="url(#z20786c18)"] {animation-delay:18s;}
#z20786 path {fill:#ccc;}
]]>
</style>
<path id="z20786d1" d="M188 385Q230 327 275 245Q297 199 318 176Q327 166 321 151Q317 138 286 117Q258 101 238 101Q219 104 229 126Q244 154 234 180Q206 267 158 347Q113 426 49 512Q39 524 38 530Q35 542 49 538Q80 529 167 413L188 385 Z"/>
<path id="z20786d2" d="M167 413Q171 426 178 436Q205 487 191 670Q185 721 174 773Q164 818 198 869Q199 869 201 872Q219 888 231 861Q246 821 245 774Q239 531 245 476Q252 449 243 438Q198 390 188 385L167 413 Z"/>
<path id="z20786d3" d="M403 177Q422 193 442 213Q455 225 470 223Q480 222 485 210Q489 195 479 167Q470 143 397 131Q382 128 376 131Q372 135 373 147Q377 157 403 177 Z"/>
<path id="z20786d4" d="M293 323Q260 332 286 345Q325 364 375 346Q432 330 491 312Q518 305 521 300Q528 293 524 284Q517 274 489 270Q465 267 398 295Q337 314 293 323 Z"/>
<path id="z20786d5" d="M327 425Q300 432 321 443Q358 455 395 442Q461 423 478 415Q484 408 479 402Q473 395 451 391Q442 391 371 414Q352 421 327 425 Z"/>
<path id="z20786d6" d="M323 523Q295 530 317 542Q347 554 415 536Q481 515 486 513Q492 506 487 499Q480 490 457 487Q439 486 371 512Q349 519 323 523 Z"/>
<path id="z20786d7" d="M325 618Q315 612 287 608Q277 605 274 609Q270 615 276 628Q298 674 311 752Q312 774 326 790Q341 809 346 796Q350 786 349 769L346 740Q336 668 333 644L325 618 Z"/>
<path id="z20786d8" d="M468 718Q481 654 499 634Q518 610 496 599Q439 571 432 573Q426 573 421 578Q394 597 325 618L333 644Q337 641 405 623Q424 619 429 626Q436 630 431 656Q427 683 423 714L468 718 Z"/>
<path id="z20786d9" d="M349 769Q356 769 365 767Q399 757 476 743Q485 742 486 734Q485 727 468 718L423 714Q419 714 417 716Q378 731 346 740L349 769 Z"/>
<path id="z20786d10" d="M683 312C731 294 756 284 758 284C762 279 763 274 760 270C755 263 744 259 727 258C712 257 699 259 687 265L635 288C613 294 590 301 567 307C546 313 544 320 561 328C583 334 608 335 635 329 Z"/>
<path id="z20786d11" d="M674 421C676 384 679 348 683 312L687 265C689 217 697 170 709 125C711 118 706 109 693 99C670 86 651 78 636 76C625 73 617 75 612 81C607 85 607 93 612 103C624 121 631 138 632 152C634 194 635 240 635 288L635 329C634 361 633 396 632 432 Z"/>
<path id="z20786d12" d="M769 437C836 421 883 417 932 413C933 412 944 413 944 406C944 398 938 391 928 385C888 357 856 368 798 386L731 406C697 416 678 419 674 421L632 432C594 441 554 449 513 460C501 462 499 468 510 477C527 491 550 494 578 485C624 468 683 456 708 451 Z"/>
<path id="z20786d13" d="M674 576C690 551 743 478 769 437L798 386C839 316 863 276 876 268C884 261 889 255 888 250C886 245 880 241 872 239C849 231 828 227 810 228C799 228 791 234 790 247C787 273 771 327 731 406L708 451C684 496 627 568 617 584L589 624C520 722 454 807 389 879C384 883 383 886 385 888C385 888 389 889 394 887C437 863 471 830 486 816C505 796 577 706 593 686C626 641 649 612 674 576 Z"/>
<path id="z20786d14" d="M792 494C800 508 809 513 817 529C822 538 829 543 838 545C843 545 848 543 853 537C858 530 860 517 860 500C857 482 837 474 797 455C790 451 784 449 780 450C777 450 775 455 774 463C774 469 780 480 792 494 Z"/>
<path id="z20786d15" d="M617 584C608 579 597 575 588 572C583 571 579 573 575 577C573 579 574 584 579 591C579 593 580 595 582 599L583 601C583 603 585 611 589 624L593 686C595 742 591 787 582 820C574 850 579 876 599 897C605 905 611 905 616 897C618 892 621 886 625 880L633 847C635 834 636 798 637 739L638 710C638 662 639 630 642 614 Z"/>
<path id="z20786d16" d="M750 864C768 886 784 908 798 930C804 940 810 945 817 945C827 944 836 933 845 913C855 890 858 864 856 836C838 697 836 617 851 595C855 588 855 582 850 576C839 565 818 553 788 540C777 535 767 535 759 541C738 553 716 563 682 573C678 573 675 574 674 576L617 584L642 614C714 586 759 576 775 585L776 586C788 596 794 658 793 774C793 804 793 825 791 836C788 846 781 849 770 845 Z"/>
<path id="z20786d17" d="M637 739C675 732 710 727 740 723C754 720 759 715 753 707C746 698 735 692 719 690C691 688 664 694 638 710 Z"/>
<path id="z20786d18" d="M625 880C631 874 672 868 750 864L770 845C766 842 761 840 757 838C752 835 748 832 746 830C736 825 722 825 705 829C679 835 655 841 633 847 Z"/>
<defs>
	<clipPath id="z20786c1"><use xlink:href="#z20786d1"/></clipPath>
	<clipPath id="z20786c2"><use xlink:href="#z20786d2"/></clipPath>
	<clipPath id="z20786c3"><use xlink:href="#z20786d3"/></clipPath>
	<clipPath id="z20786c4"><use xlink:href="#z20786d4"/></clipPath>
	<clipPath id="z20786c5"><use xlink:href="#z20786d5"/></clipPath>
	<clipPath id="z20786c6"><use xlink:href="#z20786d6"/></clipPath>
	<clipPath id="z20786c7"><use xlink:href="#z20786d7"/></clipPath>
	<clipPath id="z20786c8"><use xlink:href="#z20786d8"/></clipPath>
	<clipPath id="z20786c9"><use xlink:href="#z20786d9"/></clipPath>
	<clipPath id="z20786c10"><use xlink:href="#z20786d10"/></clipPath>
	<clipPath id="z20786c11"><use xlink:href="#z20786d11"/></clipPath>
	<clipPath id="z20786c12"><use xlink:href="#z20786d12"/></clipPath>
	<clipPath id="z20786c13"><use xlink:href="#z20786d13"/></clipPath>
	<clipPath id="z20786c14"><use xlink:href="#z20786d14"/></clipPath>
	<clipPath id="z20786c15"><use xlink:href="#z20786d15"/></clipPath>
	<clipPath id="z20786c16"><use xlink:href="#z20786d16"/></clipPath>
	<clipPath id="z20786c17"><use xlink:href="#z20786d17"/></clipPath>
	<clipPath id="z20786c18"><use xlink:href="#z20786d18"/></clipPath>
</defs>
<path pathLength="3333" clip-path="url(#z20786c1)" d="M234 111L280 166L168 374L45 531"/>
<path pathLength="3333" clip-path="url(#z20786c2)" d="M189 392L218 468L213 874"/>
<path pathLength="3333" clip-path="url(#z20786c3)" d="M380 137L444 173L475 218"/>
<path pathLength="3333" clip-path="url(#z20786c4)" d="M281 332L518 292"/>
<path pathLength="3333" clip-path="url(#z20786c5)" d="M322 434L476 406"/>
<path pathLength="3333" clip-path="url(#z20786c6)" d="M316 531L483 505"/>
<path pathLength="3333" clip-path="url(#z20786c7)" d="M280 614L306 636L335 793"/>
<path pathLength="3333" clip-path="url(#z20786c8)" d="M333 620L427 598L461 614L438 715"/>
<path pathLength="3333" clip-path="url(#z20786c9)" d="M357 761L478 732"/>
<path pathLength="3333" clip-path="url(#z20786c10)" d="M555 319L757 273"/>
<path pathLength="3333" clip-path="url(#z20786c11)" d="M615 85L670 132L643 428"/>
<path pathLength="3333" clip-path="url(#z20786c12)" d="M509 466L812 407L937 404"/>
<path pathLength="3333" clip-path="url(#z20786c13)" d="M880 251L823 267L706 491L603 638L393 882"/>
<path pathLength="3333" clip-path="url(#z20786c14)" d="M782 457L841 537"/>
<path pathLength="3333" clip-path="url(#z20786c15)" d="M580 578L615 623L604 892"/>
<path pathLength="3333" clip-path="url(#z20786c16)" d="M624 585L660 593L764 560L817 580L820 864L796 896L756 861"/>
<path pathLength="3333" clip-path="url(#z20786c17)" d="M645 730L749 709"/>
<path pathLength="3333" clip-path="url(#z20786c18)" d="M632 872L763 846"/>
</svg>