<!--
AnimCJK 2016-2019 Copyright Francois Mizessyn - https://github.com/parsimonhi/animCJK
Derived from:
    MakeMeAHanzi project - https://github.com/skishore/makemeahanzi
    Arphic PL KaitiM GB font
    Arphic PL UKai font
You can redistribute and/or modify this file under the terms of the Arphic Public License
as published by Arphic Technology Co., Ltd.
You should have received a copy of this license along with this file.
If not, see http://ftp.gnu.org/non-gnu/chinese-fonts-truetype/LICENSE.
-->
<svg id="z20799" class="acjk" version="1.1" viewBox="0 0 1024 1024" xmlns="http://www.w3.org/2000/svg" xmlns:xlink="http://www.w3.org/1999/xlink">
<style>
<![CDATA[
@keyframes zk {
	to {
		stroke-dashoffset:0;
	}
}
svg.acjk path[clip-path] {
	--t:0.8s;
	animation:zk var(--t) linear forwards var(--d);
	stroke-dasharray:3337;
	stroke-dashoffset:3339;
	stroke-width:128;
	stroke-linecap:round;
	fill:none;
	stroke:#000;
}
svg.acjk path[id] {fill:#ccc;}
]]>
</style>
<path id="z20799d1" d="M310 263Q340 323 311 543Q299 600 269 668Q236 737 146 820Q130 833 125 841Q122 850 136 850Q178 850 258 775Q354 676 386 454Q395 376 405 298Q412 273 389 261Q334 231 315 233Q293 237 310 263Z"/>
<path id="z20799d2" d="M979 816Q954 756 939 653Q936 635 930 628Q920 621 916 638Q903 699 887 745Q880 776 852 795Q825 822 707 813Q641 804 622 768Q595 699 620 385Q627 279 641 234Q653 203 566 153Q547 140 526 151Q513 158 536 189Q564 229 565 330Q565 411 557 571Q542 772 591 829Q630 868 708 880Q753 884 816 884Q895 883 953 858Q993 846 979 816Z"/>
<defs>
	<clipPath id="z20799c1"><use xlink:href="#z20799d1"/></clipPath>
	<clipPath id="z20799c2"><use xlink:href="#z20799d2"/></clipPath>
</defs>
<path style="--d:1s;" pathLength="3333" clip-path="url(#z20799c1)" d="M310 243L364 298L325 600L262 731L133 844"/>
<path style="--d:2s;" pathLength="3333" clip-path="url(#z20799c2)" d="M528 155L598 229L581 678L608 801L733 848L901 823L937 804L927 634"/>
</svg>