<!--
AnimCJK 2016-2017 Copyright Francois Mizessyn, http://gooo.free.fr/animCJK/
Derived from:
    MakeMeAHanzi project - https://github.com/skishore/makemeahanzi
    Arphic PL KaitiM GB - https://apps.ubuntu.com/cat/applications/precise/fonts-arphic-gkai00mp/
    Arphic PL UKai - https://apps.ubuntu.com/cat/applications/fonts-arphic-ukai/
You can redistribute and/or modify this file under the terms of the Arphic Public License
as published by Arphic Technology Co., Ltd.
You should have received a copy of this license (the directory "APL") along with this file;
if not, see http://ftp.gnu.org/non-gnu/chinese-fonts-truetype/LICENSE.
-->
<svg id="z20811" class="acjk" version="1.1" viewBox="0 0 1024 1024" xmlns="http://www.w3.org/2000/svg" xmlns:xlink="http://www.w3.org/1999/xlink">
<style>
<![CDATA[
	@keyframes z20811k {
		from {
			stroke:#c00;
			stroke-dashoffset:3000;
		}
		75% {
			stroke:#c00;
			stroke-dashoffset:0;
		}
		to {
			stroke:#000;
		}
	}
	#z20811 path[clip-path] {
		animation:z20811k 1s linear both;
		stroke-dasharray:3000;
		stroke-width:128;
		stroke-linecap:round;
		fill:none;
	}
	#z20811 path[clip-path="url(#z20811c1)"] {animation-delay:1s;}
	#z20811 path[clip-path="url(#z20811c2)"] {animation-delay:2s;}
	#z20811 path[clip-path="url(#z20811c3)"] {animation-delay:3s;}
	#z20811 path[clip-path="url(#z20811c4)"] {animation-delay:4s;}
	#z20811 path[clip-path="url(#z20811c5)"] {animation-delay:5s;}
	#z20811 path[clip-path="url(#z20811c6)"] {animation-delay:6s;}
	#z20811 path[clip-path="url(#z20811c7)"] {animation-delay:7s;}
	#z20811 path {fill:#ccc;}
]]>
</style>
<g transform="scale(1,-1) translate(0,-900)">
	<path id="z20811d1" d="M494 631Q534 640 711 663Q723 662 732 675Q733 688 709 699Q669 723 585 697Q510 682 503 677L443 665Q319 650 269 643Q238 639 262 620Q296 590 329 599Q380 611 439 620L494 631Z"/>
	<path id="z20811d2" d="M470 514Q482 575 494 631L503 677Q509 732 537 796Q543 806 524 825Q490 849 465 856Q449 862 440 854Q430 847 437 830Q453 800 452 781Q449 726 443 665L439 620Q432 565 424 505L470 514Z"/>
	<path id="z20811d3" d="M311 492Q298 496 270 500Q257 504 253 497Q246 490 256 473Q284 422 305 338Q309 313 326 296Q347 272 351 290Q352 294 353 299L353 332Q352 338 333 457L311 492Z"/>
	<path id="z20811d4" d="M622 369Q655 438 684 454Q705 473 689 495Q671 511 615 542Q596 552 571 544Q519 525 470 514L424 505Q367 498 311 492L333 457Q360 463 546 492Q571 496 580 486Q589 477 585 460Q572 408 558 367L622 369Z"/>
	<path id="z20811d5" d="M532 318Q581 325 642 328Q654 329 655 338Q656 347 624 369Q623 370 622 369L558 367Q443 343 353 332L353 299Q354 299 357 298Q369 295 382 298Q422 307 484 313L532 318Z"/>
	<path id="z20811d6" d="M350 264Q344 143 151 23Q141 16 148 12Q155 8 168 11Q214 20 257 42Q329 75 399 179Q411 195 425 210Q435 219 431 231Q427 243 397 266Q376 282 366 282Q351 281 350 264Z"/>
	<path id="z20811d7" d="M945 43Q926 94 912 181Q909 197 902 202Q893 206 890 186Q877 78 862 58Q829 22 695 21Q622 22 590 35Q562 50 556 68Q537 131 562 223Q572 281 573 284Q563 300 532 318L484 313Q484 312 486 308Q507 268 502 211Q498 90 506 65Q516 26 543 5Q603 -38 800 -31Q891 -27 927 -8Q958 10 945 43Z"/>
	<defs>
		<clipPath id="z20811c1"><use xlink:href="#z20811d1"/></clipPath>
		<clipPath id="z20811c2"><use xlink:href="#z20811d2"/></clipPath>
		<clipPath id="z20811c3"><use xlink:href="#z20811d3"/></clipPath>
		<clipPath id="z20811c4"><use xlink:href="#z20811d4"/></clipPath>
		<clipPath id="z20811c5"><use xlink:href="#z20811d5"/></clipPath>
		<clipPath id="z20811c6"><use xlink:href="#z20811d6"/></clipPath>
		<clipPath id="z20811c7"><use xlink:href="#z20811d7"/></clipPath>
	</defs>
	<path pathLength="2999" clip-path="url(#z20811c1)" d="M259 633L320 624L725 683"/>
	<path pathLength="2999" clip-path="url(#z20811c2)" d="M444 853L495 794L434 511"/>
	<path pathLength="2999" clip-path="url(#z20811c3)" d="M258 493L303 447L340 288"/>
	<path pathLength="2999" clip-path="url(#z20811c4)" d="M319 490L354 478L593 517L641 467L578 368"/>
	<path pathLength="2999" clip-path="url(#z20811c5)" d="M363 306L555 344L650 341"/>
	<path pathLength="2999" clip-path="url(#z20811c6)" d="M361 274L385 217L325 131L237 56L151 17"/>
	<path pathLength="2999" clip-path="url(#z20811c7)" d="M494 308L535 278L533 60L600 6L762 -4L895 26L902 197"/>
</g>
</svg>