<!--
AnimCJK 2016-2019 Copyright Francois Mizessyn - https://github.com/parsimonhi/animCJK
Derived from:
    MakeMeAHanzi project - https://github.com/skishore/makemeahanzi
    Arphic PL KaitiM GB font
    Arphic PL UKai font
You can redistribute and/or modify this file under the terms of the Arphic Public License
as published by Arphic Technology Co., Ltd.
You should have received a copy of this license along with this file.
If not, see http://ftp.gnu.org/non-gnu/chinese-fonts-truetype/LICENSE.
-->
<svg id="z20814" class="acjk" version="1.1" viewBox="0 0 1024 1024" xmlns="http://www.w3.org/2000/svg" xmlns:xlink="http://www.w3.org/1999/xlink">
<style>
<![CDATA[
@keyframes zk {
	to {
		stroke-dashoffset:0;
	}
}
svg.acjk path[clip-path] {
	--t:0.8s;
	animation:zk var(--t) linear forwards var(--d);
	stroke-dasharray:3337;
	stroke-dashoffset:3339;
	stroke-width:128;
	stroke-linecap:round;
	fill:none;
	stroke:#000;
}
svg.acjk path[id] {fill:#ccc;}
]]>
</style>
<path id="z20814d1" d="M650 150C685 141 715 145 688 105C670 78 638 53 631 49C620 42 610 47 607 63C603 77 597 87 588 94C535 135 389 184 306 215C298 217 282 221 273 228C267 232 268 236 277 240C288 245 377 228 457 207C487 199 487 199 502 195C534 186 612 159 650 150Z"/>
<path id="z20814d2" d="M274 374C266 370 249 367 227 364C217 362 213 363 211 367C207 372 208 378 215 390C236 426 254 475 268 539C271 556 277 572 290 585C303 599 312 601 315 590C316 585 317 580 317 574C316 552 316 552 315 541C313 518 294 448 288 406C286 395 285 378 274 374Z"/>
<path id="z20814d3" d="M690 491C712 435 737 402 761 385C775 374 775 358 766 347C755 335 731 320 696 302C682 295 669 295 654 301C597 320 561 330 509 341C471 348 471 348 452 352C391 363 338 368 274 374C263 376 276 406 288 406C296 406 311 405 328 403C370 395 421 388 447 383C484 376 484 376 503 372C550 362 595 355 612 351C636 345 653 347 664 358C669 364 672 374 669 388C659 424 648 457 637 486C630 502 683 507 690 491Z"/>
<path id="z20814d4" d="M463 552C529 541 605 533 703 526C709 525 714 522 715 516C715 511 706 503 690 491C676 480 654 483 637 486C586 497 524 510 471 519C435 525 435 525 417 528C381 534 345 537 315 541C304 543 306 574 317 574C321 574 325 575 331 574C351 569 377 565 407 561C444 555 444 555 463 552Z"/>
<path id="z20814d5" d="M457 207C464 225 466 247 464 267C460 292 456 322 452 352C449 373 449 373 447 383C438 434 429 485 417 528C410 550 410 550 407 561C366 693 278 799 137 877C128 881 125 886 135 888C173 893 228 868 295 819C326 795 366 751 391 714C417 674 455 583 463 552C468 530 468 530 471 519C485 460 495 412 503 372C507 351 507 351 509 341C517 295 527 267 540 247C547 235 544 226 535 220C524 211 511 201 502 195C489 187 451 193 457 207Z"/>
<path id="z20814d6" d="M936 842C927 824 914 790 904 738C901 726 900 720 897 718C892 715 890 720 887 732C872 788 860 826 848 843C838 856 818 866 789 873C758 880 725 882 689 880C657 878 627 871 605 861C581 850 569 837 563 824C547 789 548 719 569 611C572 591 557 573 526 561C516 557 510 558 505 562C500 564 500 571 504 583C512 608 514 634 513 659C506 755 509 815 516 843C520 860 528 877 545 892C589 931 672 947 792 935C808 933 825 929 842 925C872 916 902 902 931 882C943 872 944 857 936 842Z"/>
<path id="z20814d7" d="M663 691C681 709 699 730 718 755C724 762 732 768 744 770C750 770 756 767 761 759C765 750 766 735 763 716C759 691 725 668 665 645C655 641 647 639 644 641C641 642 639 648 639 657C639 663 647 675 663 691Z"/>
<defs>
	<clipPath id="z20814c1"><use xlink:href="#z20814d1"/></clipPath>
	<clipPath id="z20814c2"><use xlink:href="#z20814d2"/></clipPath>
	<clipPath id="z20814c3"><use xlink:href="#z20814d3"/></clipPath>
	<clipPath id="z20814c4"><use xlink:href="#z20814d4"/></clipPath>
	<clipPath id="z20814c5"><use xlink:href="#z20814d5"/></clipPath>
	<clipPath id="z20814c6"><use xlink:href="#z20814d6"/></clipPath>
	<clipPath id="z20814c7"><use xlink:href="#z20814d7"/></clipPath>
</defs>
<path style="--d:1s;" pathLength="3333" clip-path="url(#z20814c1)" d="M624 59L640 122L278 235"/>
<path style="--d:2s;" pathLength="3333" clip-path="url(#z20814c2)" d="M216 370L257 408L302 592"/>
<path style="--d:3s;" pathLength="3333" clip-path="url(#z20814c3)" d="M284 381L666 324L721 368L667 479L647 484"/>
<path style="--d:4s;" pathLength="3333" clip-path="url(#z20814c4)" d="M324 566L709 510"/>
<path style="--d:5s;" pathLength="3333" clip-path="url(#z20814c5)" d="M463 218L501 249L421 596L367 704L265 814L137 880"/>
<path style="--d:6s;" pathLength="3333" clip-path="url(#z20814c6)" d="M509 567L539 602L537 827L598 890L721 910L858 882L898 848L894 727"/>
<path style="--d:7s;" pathLength="3333" clip-path="url(#z20814c7)" d="M649 647L723 710L750 765"/>
</svg>