<!--
AnimCJK 2016-2025 Copyright FM-SH - https://github.com/parsimonhi/animCJK
Derived from:
    MakeMeAHanzi project - https://github.com/skishore/makemeahanzi
    Arphic PL KaitiM GB font
    Arphic PL KaitiM Big5 font
You can redistribute and/or modify this file under the terms of the Arphic Public License
as published by Arphic Technology Co., Ltd.
You should have received a copy of this license along with this file.
If not, see https://ftp.gnu.org/non-gnu/chinese-fonts-truetype/LICENSE.
-->
<svg id="z20842" class="acjk" viewBox="0 0 1024 1024" xmlns="http://www.w3.org/2000/svg">
<style>
<![CDATA[
@keyframes zk {
	to {
		stroke-dashoffset:0;
	}
}
svg.acjk path[clip-path] {
	--t:0.8s;
	animation:zk var(--t) linear forwards var(--d);
	stroke-dasharray:3337;
	stroke-dashoffset:3339;
	stroke-width:128;
	stroke-linecap:round;
	fill:none;
	stroke:#000;
}
svg.acjk path[id] {fill:#ccc;}
]]>
</style>
<path id="z20842d1" d="M450 115C354 254 251 351 83 464C77 467 76 473 84 472C247 431 364 294 494 144C505 130 461 101 450 115Z"/>
<path id="z20842d2" d="M494 144C516 159 566 200 602 232C639 265 768 379 794 381C853 385 906 374 951 364C963 361 970 359 971 356C971 352 967 348 958 345C921 332 881 320 840 308C751 280 661 224 542 138C484 96 453 76 421 71C357 63 356 84 385 90C398 93 432 103 450 115C479 134 479 134 494 144Z"/>
<path id="z20842d3" d="M377 362C354 364 351 372 367 383C387 395 422 399 472 391C504 385 539 378 575 371C593 367 604 364 607 362C611 357 613 351 611 347C607 339 595 333 578 329C559 324 541 327 523 334C474 351 423 357 377 362Z"/>
<path id="z20842d4" d="M283 496C276 487 245 476 235 478C226 479 223 485 227 493C251 549 254 641 222 766C211 805 201 826 202 834C203 851 209 865 219 879C224 886 228 891 235 887C248 877 262 860 264 834C273 726 285 601 293 521C294 512 290 501 283 496Z"/>
<path id="z20842d5" d="M293 521C321 513 354 506 380 500C404 494 406 516 408 533C415 645 416 736 414 805C413 819 411 830 406 836C402 839 382 837 347 829C318 822 340 841 350 850C369 869 385 886 398 902C407 913 424 931 437 917C460 888 473 859 471 830C457 641 454 536 467 514C473 503 473 494 467 489C454 478 437 469 418 461C407 456 397 456 389 461C354 480 316 490 283 496C274 498 284 523 293 521Z"/>
<path id="z20842d6" d="M314 611C329 624 354 644 373 655C384 660 391 659 392 651C392 640 386 626 375 616C365 607 343 591 326 586C291 576 299 599 314 611Z"/>
<path id="z20842d7" d="M305 708C327 725 351 742 372 755C381 761 389 760 390 752C391 742 385 728 377 719C367 706 331 687 318 683C287 673 292 699 305 708Z"/>
<path id="z20842d8" d="M663 893C652 891 648 881 644 876C618 838 596 789 571 753C562 740 552 728 539 723C530 718 521 706 527 698C561 645 582 584 595 527C598 510 593 492 588 477C585 469 592 462 599 461C608 459 617 466 625 472C636 481 647 492 658 505C664 514 658 524 653 535C625 585 601 636 576 686C572 693 573 702 581 709C628 752 651 778 674 820C686 842 691 870 676 888C673 891 666 893 663 893Z"/>
<path id="z20842d9" d="M788 890C776 890 770 878 767 870C746 826 725 773 702 734C691 717 680 702 664 692C653 686 651 671 659 662C694 616 709 563 718 509C720 493 712 477 710 462C705 437 732 446 744 456C755 465 769 476 781 489C787 497 781 509 776 519C750 566 723 616 703 664C699 672 704 680 711 688C750 734 770 764 790 797C800 813 812 835 814 851C814 864 803 889 788 890Z"/>
<defs>
	<clipPath id="z20842c1"><use href="#z20842d1"/></clipPath>
	<clipPath id="z20842c2"><use href="#z20842d2"/></clipPath>
	<clipPath id="z20842c3"><use href="#z20842d3"/></clipPath>
	<clipPath id="z20842c4"><use href="#z20842d4"/></clipPath>
	<clipPath id="z20842c5"><use href="#z20842d5"/></clipPath>
	<clipPath id="z20842c6"><use href="#z20842d6"/></clipPath>
	<clipPath id="z20842c7"><use href="#z20842d7"/></clipPath>
	<clipPath id="z20842c8"><use href="#z20842d8"/></clipPath>
	<clipPath id="z20842c9"><use href="#z20842d9"/></clipPath>
</defs>
<path style="--d:1s;" pathLength="3333" clip-path="url(#z20842c1)" d="M462 115L462 143L301 321L89 466"/>
<path style="--d:2s;" pathLength="3333" clip-path="url(#z20842c2)" d="M374 76L483 116L790 334L964 353"/>
<path style="--d:3s;" pathLength="3333" clip-path="url(#z20842c3)" d="M365 371L606 348"/>
<path style="--d:4s;" pathLength="3333" clip-path="url(#z20842c4)" d="M233 486L265 519L266 579L231 883"/>
<path style="--d:5s;" pathLength="3333" clip-path="url(#z20842c5)" d="M283 505L396 478L439 510L440 839L412 879L342 833"/>
<path style="--d:6s;" pathLength="3333" clip-path="url(#z20842c6)" d="M307 591L383 651"/>
<path style="--d:7s;" pathLength="3333" clip-path="url(#z20842c7)" d="M299 689L384 751"/>
<path style="--d:8s;" pathLength="3333" clip-path="url(#z20842c8)" d="M596 467L627 521L551 706L621 785L669 887"/>
<path style="--d:9s;" pathLength="3333" clip-path="url(#z20842c9)" d="M718 454L749 508L678 673L777 827L785 886"/>
</svg>