<!--
AnimCJK 2016-2019 Copyright Francois Mizessyn - https://github.com/parsimonhi/animCJK
Derived from:
    MakeMeAHanzi project - https://github.com/skishore/makemeahanzi
    Arphic PL KaitiM GB font
    Arphic PL UKai font
You can redistribute and/or modify this file under the terms of the Arphic Public License
as published by Arphic Technology Co., Ltd.
You should have received a copy of this license along with this file.
If not, see http://ftp.gnu.org/non-gnu/chinese-fonts-truetype/LICENSE.
-->
<svg id="z20844" class="acjk" version="1.1" viewBox="0 0 1024 1024" xmlns="http://www.w3.org/2000/svg" xmlns:xlink="http://www.w3.org/1999/xlink">
<style>
<![CDATA[
@keyframes zk {
	to {
		stroke-dashoffset:0;
	}
}
svg.acjk path[clip-path] {
	--t:0.8s;
	animation:zk var(--t) linear forwards var(--d);
	stroke-dasharray:3337;
	stroke-dashoffset:3339;
	stroke-width:128;
	stroke-linecap:round;
	fill:none;
	stroke:#000;
}
svg.acjk path[id] {fill:#ccc;}
]]>
</style>
<path id="z20844d1" d="M304 251C315 299 282 375 199 478C196 481 192 484 189 489C165 518 123 561 61 616C56 620 55 625 64 624C115 617 178 569 252 488C255 484 259 479 264 474C293 440 329 388 374 319C379 310 384 303 389 299C393 294 395 289 395 283C394 276 389 268 380 260C356 239 332 230 310 235C303 236 301 242 304 251Z"/>
<path id="z20844d2" d="M467 117C507 140 538 175 562 222C628 355 690 455 753 514C766 526 812 530 886 528C908 527 934 524 966 524C980 523 987 521 987 517C987 514 980 509 968 505C852 461 773 422 735 385C681 332 622 250 554 140C540 117 520 104 495 101C476 98 466 100 465 105C462 111 463 114 467 117Z"/>
<path id="z20844d3" d="M629 723C543 731 453 745 362 767C351 769 345 769 343 767C340 764 341 758 347 750C432 626 485 555 505 536C514 527 517 519 512 509C507 499 485 485 448 468C435 461 425 460 417 464C406 468 404 478 409 495C423 542 389 622 302 729C287 747 263 762 238 782C226 791 223 800 226 809C230 822 242 836 262 853C271 860 279 861 291 853C334 821 478 788 647 750C658 748 640 723 629 723Z"/>
<path id="z20844d4" d="M647 750C688 812 710 848 718 852C723 854 730 851 738 846C748 837 751 816 750 782C748 740 694 683 585 611C578 606 573 607 571 616C567 625 569 635 576 645C592 668 609 694 629 723C641 741 641 741 647 750Z"/>
<defs>
	<clipPath id="z20844c1"><use xlink:href="#z20844d1"/></clipPath>
	<clipPath id="z20844c2"><use xlink:href="#z20844d2"/></clipPath>
	<clipPath id="z20844c3"><use xlink:href="#z20844d3"/></clipPath>
	<clipPath id="z20844c4"><use xlink:href="#z20844d4"/></clipPath>
</defs>
<path style="--d:1s;" pathLength="3333" clip-path="url(#z20844c1)" d="M310 239L350 284L293 391L199 511L65 619"/>
<path style="--d:2s;" pathLength="3333" clip-path="url(#z20844c2)" d="M469 108L539 152L673 362L770 466L980 518"/>
<path style="--d:3s;" pathLength="3333" clip-path="url(#z20844c3)" d="M415 472L461 531L283 802L312 815L640 744"/>
<path style="--d:4s;" pathLength="3333" clip-path="url(#z20844c4)" d="M578 616L710 774L730 848"/>
</svg>