<!--
AnimCJK 2016-2025 Copyright FM-SH - https://github.com/parsimonhi/animCJK
Derived from:
    MakeMeAHanzi project - https://github.com/skishore/makemeahanzi
    Arphic PL KaitiM GB font
    Arphic PL UKai font
You can redistribute and/or modify this file under the terms of the Arphic Public License
as published by Arphic Technology Co., Ltd.
You should have received a copy of this license along with this file.
If not, see https://ftp.gnu.org/non-gnu/chinese-fonts-truetype/LICENSE.
-->
<svg id="z20841" class="acjk" viewBox="0 0 1024 1024" xmlns="http://www.w3.org/2000/svg">
<style>
<![CDATA[
@keyframes zk {
	to {
		stroke-dashoffset:0;
	}
}
svg.acjk path[clip-path] {
	--t:0.8s;
	animation:zk var(--t) linear forwards var(--d);
	stroke-dasharray:3337;
	stroke-dashoffset:3339;
	stroke-width:128;
	stroke-linecap:round;
	fill:none;
	stroke:#000;
}
svg.acjk path[id] {fill:#ccc;}
]]>
</style>
<path id="z20841d1" d="M490 207C624 186 695 172 701 168C708 162 709 155 707 150C702 139 689 131 667 126C648 121 606 128 542 144C462 163 388 171 321 175C292 176 288 186 308 200C339 220 380 223 431 216C470 210 470 210 490 207Z"/>
<path id="z20841d2" d="M192 430C170 412 151 402 136 398C131 396 128 397 125 402C122 406 120 414 125 423C142 458 153 489 155 520C157 588 155 661 147 738C145 754 145 770 153 785C160 800 171 811 184 820C193 826 196 824 201 817C203 812 208 805 211 790C214 773 214 736 210 678C202 577 201 508 204 471C204 457 203 439 192 430Z"/>
<path id="z20841d3" d="M510 414C670 391 720 384 769 386C805 387 802 433 803 453C803 583 795 686 778 760C772 784 758 796 738 791C693 780 693 780 670 774C659 771 654 769 654 774C653 778 654 787 663 796C711 845 743 880 756 904C761 915 770 918 779 918C789 916 798 906 810 887C826 857 838 826 846 792C855 745 865 640 874 477C875 448 879 424 890 409C901 391 902 385 894 379C881 369 860 352 833 339C815 330 798 328 779 333C735 343 608 359 510 375C473 381 473 381 454 384C365 398 273 418 192 430C178 432 190 473 204 471C228 468 381 432 454 422C491 417 491 417 510 414Z"/>
<path id="z20841d4" d="M454 422C454 570 453 675 459 735C466 809 491 797 504 735C515 679 511 621 510 414C510 388 510 388 510 375C510 224 550 251 490 207C474 195 424 198 431 216C455 272 454 330 454 384C454 409 454 409 454 422Z"/>
<path id="z20841d5" d="M317 574C311 606 291 638 257 670C246 679 237 685 233 692C228 698 230 700 237 699C296 681 320 640 352 603C361 591 320 559 317 574Z"/>
<path id="z20841d6" d="M352 603C388 632 407 649 410 649C429 647 419 609 417 603C408 577 356 545 261 508C256 506 254 507 254 514C253 519 256 525 262 530C278 542 296 557 317 574C340 593 340 593 352 603Z"/>
<path id="z20841d7" d="M614 542C608 570 587 601 551 633C540 642 531 648 526 655C520 661 522 665 530 664C592 651 631 599 652 578C664 566 617 525 614 542Z"/>
<path id="z20841d8" d="M652 578C671 596 692 616 713 638C725 651 739 665 753 650C759 642 760 625 751 602C736 564 677 522 556 464C551 461 547 463 547 470C545 477 548 484 555 490C573 504 593 522 614 542C639 566 639 566 652 578Z"/>
<defs>
	<clipPath id="z20841c1"><use href="#z20841d1"/></clipPath>
	<clipPath id="z20841c2"><use href="#z20841d2"/></clipPath>
	<clipPath id="z20841c3"><use href="#z20841d3"/></clipPath>
	<clipPath id="z20841c4"><use href="#z20841d4"/></clipPath>
	<clipPath id="z20841c5"><use href="#z20841d5"/></clipPath>
	<clipPath id="z20841c6"><use href="#z20841d6"/></clipPath>
	<clipPath id="z20841c7"><use href="#z20841d7"/></clipPath>
	<clipPath id="z20841c8"><use href="#z20841d8"/></clipPath>
</defs>
<path style="--d:1s;" pathLength="3333" clip-path="url(#z20841c1)" d="M302 183L377 195L702 157"/>
<path style="--d:2s;" pathLength="3333" clip-path="url(#z20841c2)" d="M130 405L176 479L183 817"/>
<path style="--d:3s;" pathLength="3333" clip-path="url(#z20841c3)" d="M192 440L733 363L819 371L850 405L798 813L761 863L661 777"/>
<path style="--d:4s;" pathLength="3333" clip-path="url(#z20841c4)" d="M437 211L485 262L480 781"/>
<path style="--d:5s;" pathLength="3333" clip-path="url(#z20841c5)" d="M322 580L323 613L239 692"/>
<path style="--d:6s;" pathLength="3333" clip-path="url(#z20841c6)" d="M260 515L375 590L411 642"/>
<path style="--d:7s;" pathLength="3333" clip-path="url(#z20841c7)" d="M621 543L626 577L531 658"/>
<path style="--d:8s;" pathLength="3333" clip-path="url(#z20841c8)" d="M554 470L710 592L749 650"/>
</svg>