<!--
AnimCJK 2016-2018 Copyright Francois Mizessyn - https://github.com/parsimonhi/animCJK
Derived from:
    MakeMeAHanzi project - https://github.com/skishore/makemeahanzi
    Arphic PL KaitiM GB font
    Arphic PL UKai font
You can redistribute and/or modify this file under the terms of the Arphic Public License
as published by Arphic Technology Co., Ltd.
You should have received a copy of this license along with this file.
If not, see http://ftp.gnu.org/non-gnu/chinese-fonts-truetype/LICENSE.
-->
<svg id="z20843" class="acjk" version="1.1" viewBox="0 0 1024 1024" xmlns="http://www.w3.org/2000/svg" xmlns:xlink="http://www.w3.org/1999/xlink">
<style>
<![CDATA[
@keyframes zk {
	to {
		stroke-dashoffset:0;
	}
}
svg.acjk path[clip-path] {
	--t:0.8s;
	animation:zk var(--t) linear forwards calc(var(--d) * 1.25 * var(--t));
	stroke-dasharray:3337;
	stroke-dashoffset:3339;
	stroke-width:128;
	stroke-linecap:round;
	fill:none;
	stroke:#000;
}
svg.acjk path[id] {fill:#ccc;}
]]>
</style>
<path id="z20843d1" d="M317 435Q318 562 155 710Q136 722 79 774Q67 790 85 787Q110 786 146 763Q258 691 325 595Q368 537 406 491Q419 478 404 459Q355 414 329 416Q316 417 317 435Z"/>
<path id="z20843d2" d="M446 213Q507 264 530 323Q608 557 711 710Q732 737 846 749Q892 753 958 759Q983 760 984 754Q984 748 963 737Q756 631 675 504Q621 420 551 256Q530 210 483 198Q449 191 445 198Q438 208 446 213Z"/>
<defs>
	<clipPath id="z20843c1"><use xlink:href="#z20843d1"></use></clipPath>
	<clipPath id="z20843c2"><use xlink:href="#z20843d2"></use></clipPath>
</defs>
<path style="--d:1;" pathLength="3333" clip-path="url(#z20843c1)" d="M325 427L362 478L300 583L188 708L78 779"/>
<path style="--d:2;" pathLength="3333" clip-path="url(#z20843c2)" d="M447 204L524 259L648 528L750 672L973 752"/>
</svg>