<!--
AnimCJK 2016-2017 Copyright Francois Mizessyn, http://gooo.free.fr/animCJK/
Derived from:
    MakeMeAHanzi project - https://github.com/skishore/makemeahanzi
    Arphic PL KaitiM GB - https://apps.ubuntu.com/cat/applications/precise/fonts-arphic-gkai00mp/
    Arphic PL UKai - https://apps.ubuntu.com/cat/applications/fonts-arphic-ukai/
You can redistribute and/or modify this file under the terms of the Arphic Public License
as published by Arphic Technology Co., Ltd.
You should have received a copy of this license (the directory "APL") along with this file;
if not, see http://ftp.gnu.org/non-gnu/chinese-fonts-truetype/LICENSE.
-->
<svg id="z20877" class="acjk" version="1.1" viewBox="0 0 1024 1024" xmlns="http://www.w3.org/2000/svg" xmlns:xlink="http://www.w3.org/1999/xlink">
<style>
<![CDATA[
	@keyframes z20877k {
		from {
			stroke:#c00;
			stroke-dashoffset:3000;
		}
		75% {
			stroke:#c00;
			stroke-dashoffset:0;
		}
		to {
			stroke:#000;
		}
	}
	#z20877 path[clip-path] {
		animation:z20877k 1s linear both;
		stroke-dasharray:3000;
		stroke-width:128;
		stroke-linecap:round;
		fill:none;
	}
	#z20877 path[clip-path="url(#z20877c1)"] {animation-delay:1s;}
	#z20877 path[clip-path="url(#z20877c2)"] {animation-delay:2s;}
	#z20877 path[clip-path="url(#z20877c3)"] {animation-delay:3s;}
	#z20877 path[clip-path="url(#z20877c4)"] {animation-delay:4s;}
	#z20877 path[clip-path="url(#z20877c5)"] {animation-delay:5s;}
	#z20877 path[clip-path="url(#z20877c6)"] {animation-delay:6s;}
	#z20877 path {fill:#ccc;}
]]>
</style>
<g transform="scale(1,-1) translate(0,-900)">
	<path id="z20877d1" d="M521 731Q764 767 777 777Q786 784 782 792Q776 805 748 813Q720 822 690 812Q492 755 276 747Q240 743 264 725Q297 701 379 711Q424 717 472 724L521 731Z"/>
	<path id="z20877d2" d="M359 580Q358 581 357 582Q326 598 307 598Q292 594 298 580Q341 484 321 304L314 260Q295 163 280 136Q256 90 291 42Q291 41 293 39Q300 24 312 30Q358 63 360 253Q360 262 361 268L363 309Q369 493 375 540L359 580Z"/>
	<path id="z20877d3" d="M680 298Q680 100 665 89Q653 79 589 90Q573 93 574 83Q575 76 588 70Q646 28 677 -5Q698 -24 710 -21Q723 -18 734 11Q749 56 747 122Q740 224 736 301L733 347Q724 531 741 562Q753 584 742 595Q732 610 684 634Q665 643 646 638Q609 626 537 609L489 599Q423 589 359 580L375 540Q394 546 489 565L536 575Q575 584 620 590Q642 594 655 582Q674 570 679 339L680 298Z"/>
	<path id="z20877d4" d="M537 609Q537 651 541 688Q550 712 522 730L521 731L472 724Q487 697 489 599L489 565Q488 522 488 457L488 420Q488 377 488 321L530 325Q531 380 532 430L533 470Q534 525 536 575L537 609Z"/>
	<path id="z20877d5" d="M532 430Q560 437 594 444Q619 450 623 453Q630 460 627 467Q620 476 597 482Q573 486 533 470L488 457Q454 450 414 446Q386 442 406 428Q442 409 485 420Q486 421 488 420L532 430Z"/>
	<path id="z20877d6" d="M504 285Q663 297 680 298L736 301Q773 307 917 292Q939 288 945 297Q952 310 941 321Q913 348 872 367Q859 373 834 366Q782 356 733 347L679 339Q588 332 530 325L488 321Q415 315 363 309L321 304Q140 291 103 290Q90 291 88 280Q87 268 105 254Q121 242 151 230Q161 226 178 233Q208 245 314 260L361 268Q425 280 504 285Z"/>
	<defs>
		<clipPath id="z20877c1"><use xlink:href="#z20877d1"/></clipPath>
		<clipPath id="z20877c2"><use xlink:href="#z20877d2"/></clipPath>
		<clipPath id="z20877c3"><use xlink:href="#z20877d3"/></clipPath>
		<clipPath id="z20877c4"><use xlink:href="#z20877d4"/></clipPath>
		<clipPath id="z20877c5"><use xlink:href="#z20877d5"/></clipPath>
		<clipPath id="z20877c6"><use xlink:href="#z20877d6"/></clipPath>
	</defs>
	<path pathLength="2999" clip-path="url(#z20877c1)" d="M260 738L402 735L778 794"/>
	<path pathLength="2999" clip-path="url(#z20877c2)" d="M303 591L346 531L347 408L300 35"/>
	<path pathLength="2999" clip-path="url(#z20877c3)" d="M369 574L645 614L703 579L704 69L684 29L580 84"/>
	<path pathLength="2999" clip-path="url(#z20877c4)" d="M482 719L513 691L501 324"/>
	<path pathLength="2999" clip-path="url(#z20877c5)" d="M407 438L622 466"/>
	<path pathLength="2999" clip-path="url(#z20877c6)" d="M94 278L161 261L848 334L942 309"/>
</g>
</svg>