<!--
AnimCJK 2016-2026 Copyright FM-SH - https://github.com/parsimonhi/animCJK
Derived from:
    MakeMeAHanzi project - https://github.com/skishore/makemeahanzi
    Arphic PL KaitiM GB font
    Arphic PL KaitiM Big5 font
You can redistribute and/or modify this file under the terms of the Arphic Public License
as published by Arphic Technology Co., Ltd.
You should have received a copy of this license along with this file.
If not, see https://ftp.gnu.org/non-gnu/chinese-fonts-truetype/LICENSE.
-->
<svg id="z20900" class="acjk" viewBox="0 0 1024 1024" xmlns="http://www.w3.org/2000/svg">
<style>
<![CDATA[
@keyframes zk {
	to {
		stroke-dashoffset:0;
	}
}
svg.acjk path[clip-path] {
	--t:0.8s;
	animation:zk var(--t) linear forwards var(--d);
	stroke-dasharray:3337;
	stroke-dashoffset:3339;
	stroke-width:128;
	stroke-linecap:round;
	fill:none;
	stroke:#000;
}
svg.acjk path[id] {fill:#ccc;}
]]>
</style>
<path id="z20900d1" d="M291 162C287 147 277 133 266 125C254 116 245 120 247 137C249 159 234 199 190 254C177 268 178 290 198 327C202 335 215 353 232 327C238 316 255 272 284 194C288 184 293 173 291 162Z"/>
<path id="z20900d2" d="M456 170C498 162 551 152 617 145C659 140 688 134 698 140C712 147 711 157 704 179C698 193 691 211 686 226C676 250 680 264 705 246C741 219 773 201 803 191C827 182 839 175 839 169C838 162 813 143 765 110C727 84 704 103 291 162C280 164 274 190 284 194C298 200 314 203 330 199C358 191 389 181 422 176C445 172 445 172 456 170Z"/>
<path id="z20900d3" d="M444 251C485 241 521 230 556 226C578 224 577 234 578 251C578 268 576 282 569 295C555 321 530 317 505 311C492 307 490 311 500 323C515 341 527 356 536 372C541 379 550 379 558 374C583 362 602 342 622 272C628 254 633 241 640 234C648 227 650 220 647 215C643 208 626 197 598 185C586 179 579 183 556 191C538 199 424 229 343 234C333 235 327 237 326 242C325 247 358 276 383 267C394 263 405 260 416 258C435 253 435 253 444 251Z"/>
<path id="z20900d4" d="M416 258C426 307 356 376 339 396C336 398 324 414 352 401C371 391 405 361 448 317C481 281 473 281 444 251C437 244 414 249 416 258Z"/>
<path id="z20900d5" d="M281 426C272 423 261 421 249 421C222 419 235 439 239 445C258 477 276 520 291 575C295 591 301 604 312 614C334 634 338 620 336 602C335 593 335 584 333 576C323 538 309 480 305 459C302 446 294 429 281 426Z"/>
<path id="z20900d6" d="M649 561C658 594 674 591 689 569C694 561 707 543 720 510C732 477 748 451 773 433C785 423 787 413 777 403C766 392 746 373 713 359C669 339 661 355 518 384C498 388 498 388 488 390C423 402 372 414 281 426C268 429 293 466 305 459C323 449 369 440 442 427C471 422 471 422 485 419C555 405 607 397 641 396C689 393 690 401 684 429C672 481 661 516 655 532C652 541 647 551 649 561Z"/>
<path id="z20900d7" d="M474 585C536 574 595 566 649 561C659 559 664 536 655 532C618 515 614 526 485 551C450 558 450 558 433 561C398 567 365 570 333 576C324 578 327 602 336 602C338 602 367 602 424 593C457 588 457 588 474 585Z"/>
<path id="z20900d8" d="M424 593C386 726 296 809 188 868C149 888 134 909 181 896C316 857 411 777 474 585C481 562 481 562 485 551C492 529 503 490 519 467C532 445 512 431 485 419C471 414 439 413 442 427C456 469 444 519 433 561C427 582 427 582 424 593Z"/>
<path id="z20900d9" d="M921 817C912 802 897 770 885 720C881 704 872 691 868 716C857 769 849 807 838 823C814 854 758 865 676 863C644 861 615 857 591 847C568 836 554 824 548 811C536 786 536 732 551 650C554 631 541 617 511 606C504 603 482 598 491 626C498 650 502 672 501 695C496 787 506 843 526 867C536 879 560 895 605 907C726 937 831 919 917 856C929 846 930 832 921 817Z"/>
<path id="z20900d10" d="M656 674C674 690 695 708 716 728C724 736 732 740 742 740C748 739 754 735 757 727C760 718 758 704 754 687C748 664 714 645 652 630C642 627 634 627 632 629C628 631 627 636 629 644C630 650 640 660 656 674Z"/>
<defs>
	<clipPath id="z20900c1"><use href="#z20900d1"/></clipPath>
	<clipPath id="z20900c2"><use href="#z20900d2"/></clipPath>
	<clipPath id="z20900c3"><use href="#z20900d3"/></clipPath>
	<clipPath id="z20900c4"><use href="#z20900d4"/></clipPath>
	<clipPath id="z20900c5"><use href="#z20900d5"/></clipPath>
	<clipPath id="z20900c6"><use href="#z20900d6"/></clipPath>
	<clipPath id="z20900c7"><use href="#z20900d7"/></clipPath>
	<clipPath id="z20900c8"><use href="#z20900d8"/></clipPath>
	<clipPath id="z20900c9"><use href="#z20900d9"/></clipPath>
	<clipPath id="z20900c10"><use href="#z20900d10"/></clipPath>
</defs>
<path style="--d:1s;" pathLength="3333" clip-path="url(#z20900c1)" d="M256 125L267 167L210 335"/>
<path style="--d:2s;" pathLength="3333" clip-path="url(#z20900c2)" d="M286 185L718 121L784 171L690 250"/>
<path style="--d:3s;" pathLength="3333" clip-path="url(#z20900c3)" d="M334 241L591 210L612 234L574 328L542 346L502 318"/>
<path style="--d:4s;" pathLength="3333" clip-path="url(#z20900c4)" d="M431 251L432 303L341 400"/>
<path style="--d:5s;" pathLength="3333" clip-path="url(#z20900c5)" d="M239 431L279 463L324 617"/>
<path style="--d:6s;" pathLength="3333" clip-path="url(#z20900c6)" d="M282 432L690 376L733 424L663 581"/>
<path style="--d:7s;" pathLength="3333" clip-path="url(#z20900c7)" d="M334 591L656 541"/>
<path style="--d:8s;" pathLength="3333" clip-path="url(#z20900c8)" d="M450 425L485 467L391 717L297 820L159 893"/>
<path style="--d:9s;" pathLength="3333" clip-path="url(#z20900c9)" d="M496 609L524 646L529 822L592 876L734 891L846 861L885 826L874 712"/>
<path style="--d:10s;" pathLength="3333" clip-path="url(#z20900c10)" d="M635 635L726 695L745 735"/>
</svg>