<!--
AnimCJK 2016-2026 Copyright FM-SH - https://github.com/parsimonhi/animCJK
Derived from:
    MakeMeAHanzi project - https://github.com/skishore/makemeahanzi
    Arphic PL KaitiM GB font
    Arphic PL KaitiM Big5 font
You can redistribute and/or modify this file under the terms of the Arphic Public License
as published by Arphic Technology Co., Ltd.
You should have received a copy of this license along with this file.
If not, see https://ftp.gnu.org/non-gnu/chinese-fonts-truetype/LICENSE.
-->
<svg id="z20933" class="acjk" viewBox="0 0 1024 1024" xmlns="http://www.w3.org/2000/svg">
<style>
<![CDATA[
@keyframes zk {
	to {
		stroke-dashoffset:0;
	}
}
svg.acjk path[clip-path] {
	--t:0.8s;
	animation:zk var(--t) linear forwards var(--d);
	stroke-dasharray:3337;
	stroke-dashoffset:3339;
	stroke-width:128;
	stroke-linecap:round;
	fill:none;
	stroke:#000;
}
svg.acjk path[id] {fill:#ccc;}
]]>
</style>
<path id="z20933d1" d="M194 281C217 301 240 323 265 348C275 357 286 363 298 363C306 362 312 357 316 347C320 336 319 319 313 296C305 271 263 247 189 226C177 222 168 222 164 225C159 227 157 234 160 244C161 252 174 264 194 281Z"/>
<path id="z20933d2" d="M324 463C260 537 172 669 136 680C101 689 98 699 118 750C126 772 138 789 152 805C170 824 178 809 186 788C198 751 211 727 222 706C258 633 294 562 329 495C336 480 340 469 340 464C339 450 334 450 324 463Z"/>
<path id="z20933d3" d="M453 208C446 201 434 195 419 188C411 184 404 183 397 187C388 193 399 224 403 233C420 271 424 401 407 623C404 657 395 695 384 736C372 774 379 809 405 842C412 851 419 852 427 843C435 833 439 821 441 809C442 797 445 785 446 773C451 620 467 400 469 241C469 229 463 215 453 208Z"/>
<path id="z20933d4" d="M792 785C796 814 804 839 826 866C853 900 873 865 883 846C895 818 893 787 891 753C881 641 881 481 876 275C875 252 881 233 893 217C899 208 899 200 893 193C880 178 855 162 817 145C804 138 792 138 781 145C707 173 597 194 453 208C441 210 457 243 469 241C497 235 537 228 591 221C610 218 610 218 620 216C658 208 696 201 735 195C763 190 785 193 799 205C823 227 824 364 821 617C820 652 818 742 804 766C800 772 791 778 792 785Z"/>
<path id="z20933d5" d="M604 358C579 364 552 366 523 372C502 375 498 384 514 392C544 406 576 403 602 398C630 391 630 391 644 388C722 369 762 357 764 356C768 351 769 346 767 342C762 335 751 330 735 327C719 324 691 333 650 345C619 354 619 354 604 358Z"/>
<path id="z20933d6" d="M591 221C589 223 589 228 593 235C610 263 607 286 604 358C603 385 603 385 602 398C600 432 596 468 593 506C593 518 625 510 627 499C631 460 639 423 644 388C648 359 648 359 650 345C654 312 662 280 672 264C678 253 671 245 660 237C645 225 632 219 620 216C610 214 593 211 591 221Z"/>
<path id="z20933d7" d="M548 513C542 510 531 507 517 504C510 502 506 502 504 505C501 507 501 513 505 522C518 552 530 593 537 644C538 658 542 671 551 682C559 693 565 696 569 688C571 681 573 673 573 664C572 654 572 643 570 634C565 611 559 555 559 539C559 530 557 516 548 513Z"/>
<path id="z20933d8" d="M593 506C578 508 563 510 548 513C539 515 550 541 559 539C589 533 620 527 654 522C686 516 688 538 682 558C676 574 670 593 664 615C661 631 704 642 710 627C724 584 740 557 755 545C770 531 770 517 757 508C745 499 731 489 715 478C704 470 692 469 680 476C663 483 647 494 627 499C604 504 604 504 593 506Z"/>
<path id="z20933d9" d="M573 664C585 667 606 661 713 652C719 651 723 648 724 643C724 639 719 633 710 627C696 619 680 615 664 615C641 615 598 629 570 634C560 636 563 662 573 664Z"/>
<path id="z20933d10" d="M441 809C452 811 514 804 792 785C799 785 808 772 804 766C800 759 793 751 780 742C769 735 752 733 731 737C626 754 531 767 446 773C434 773 429 809 441 809Z"/>
<defs>
	<clipPath id="z20933c1"><use href="#z20933d1"/></clipPath>
	<clipPath id="z20933c2"><use href="#z20933d2"/></clipPath>
	<clipPath id="z20933c3"><use href="#z20933d3"/></clipPath>
	<clipPath id="z20933c4"><use href="#z20933d4"/></clipPath>
	<clipPath id="z20933c5"><use href="#z20933d5"/></clipPath>
	<clipPath id="z20933c6"><use href="#z20933d6"/></clipPath>
	<clipPath id="z20933c7"><use href="#z20933d7"/></clipPath>
	<clipPath id="z20933c8"><use href="#z20933d8"/></clipPath>
	<clipPath id="z20933c9"><use href="#z20933d9"/></clipPath>
	<clipPath id="z20933c10"><use href="#z20933d10"/></clipPath>
</defs>
<path style="--d:1s;" pathLength="3333" clip-path="url(#z20933c1)" d="M166 234L272 301L295 359"/>
<path style="--d:2s;" pathLength="3333" clip-path="url(#z20933c2)" d="M109 701L169 753L334 462"/>
<path style="--d:3s;" pathLength="3333" clip-path="url(#z20933c3)" d="M402 193L437 237L442 319L419 843"/>
<path style="--d:4s;" pathLength="3333" clip-path="url(#z20933c4)" d="M455 213L782 170L852 211L850 876"/>
<path style="--d:5s;" pathLength="3333" clip-path="url(#z20933c5)" d="M511 381L761 347"/>
<path style="--d:6s;" pathLength="3333" clip-path="url(#z20933c6)" d="M597 220L639 261L603 508"/>
<path style="--d:7s;" pathLength="3333" clip-path="url(#z20933c7)" d="M508 509L535 535L562 687"/>
<path style="--d:8s;" pathLength="3333" clip-path="url(#z20933c8)" d="M552 521L708 510L725 530L689 631"/>
<path style="--d:9s;" pathLength="3333" clip-path="url(#z20933c9)" d="M567 648L719 641"/>
<path style="--d:10s;" pathLength="3333" clip-path="url(#z20933c10)" d="M436 798L801 767"/>
</svg>