<!--
AnimCJK 2016-2018 Copyright Francois Mizessyn, https://github.com/parsimonhi/animCJK
Derived from:
    MakeMeAHanzi project - https://github.com/skishore/makemeahanzi
    Arphic PL KaitiM GB - https://apps.ubuntu.com/cat/applications/precise/fonts-arphic-gkai00mp/
    Arphic PL UKai - https://apps.ubuntu.com/cat/applications/fonts-arphic-ukai/
You can redistribute and/or modify this file under the terms of the Arphic Public License
as published by Arphic Technology Co., Ltd.
You should have received a copy of this license (the directory "APL") along with this file;
if not, see http://ftp.gnu.org/non-gnu/chinese-fonts-truetype/LICENSE.
-->
<svg id="z20955" class="acjk" version="1.1" viewBox="0 0 1024 1024" xmlns="http://www.w3.org/2000/svg" xmlns:xlink="http://www.w3.org/1999/xlink">
<style>
<![CDATA[
@keyframes z20955k {
	from {
		stroke:#c00;
		stroke-dashoffset:3334;
	}
	75% {
		stroke:#c00;
		stroke-dashoffset:0;
	}
	to {
		stroke:#000;
	}
}
#z20955 path[clip-path] {
	animation:z20955k 1s linear both;
	stroke-dasharray:3334;
	stroke-width:128;
	stroke-linecap:round;
	fill:none;
}
#z20955 path[clip-path="url(#z20955c1)"] {animation-delay:1s;}
#z20955 path[clip-path="url(#z20955c2)"] {animation-delay:2s;}
#z20955 path[clip-path="url(#z20955c3)"] {animation-delay:3s;}
#z20955 path[clip-path="url(#z20955c4)"] {animation-delay:4s;}
#z20955 path[clip-path="url(#z20955c5)"] {animation-delay:5s;}
#z20955 path[clip-path="url(#z20955c6)"] {animation-delay:6s;}
#z20955 path[clip-path="url(#z20955c7)"] {animation-delay:7s;}
#z20955 path[clip-path="url(#z20955c8)"] {animation-delay:8s;}
#z20955 path[clip-path="url(#z20955c9)"] {animation-delay:9s;}
#z20955 path[clip-path="url(#z20955c10)"] {animation-delay:10s;}
#z20955 path[clip-path="url(#z20955c11)"] {animation-delay:11s;}
#z20955 path[clip-path="url(#z20955c12)"] {animation-delay:12s;}
#z20955 path[clip-path="url(#z20955c13)"] {animation-delay:13s;}
#z20955 path[clip-path="url(#z20955c14)"] {animation-delay:14s;}
#z20955 path[clip-path="url(#z20955c15)"] {animation-delay:15s;}
#z20955 path {fill:#ccc;}
]]>
</style>
<path id="z20955d1" d="M212 234Q243 264 277 299Q292 314 310 314Q322 314 328 299Q335 283 326 248Q320 224 285 206Q204 169 184 177Q178 181 179 196Q183 209 212 234 Z"/>
<path id="z20955d2" d="M124 722Q112 726 114 744Q132 822 164 841Q171 848 182 845Q191 844 191 817Q200 762 297 513Q304 497 303 490Q302 480 293 487Q278 496 165 680Q152 701 124 722 Z"/>
<path id="z20955d3" d="M534 82Q612 152 642 151Q658 150 663 127Q662 111 647 89Q620 56 534 49Q524 49 524 63Q523 73 534 82 Z"/>
<path id="z20955d4" d="M381 204Q353 207 374 224Q402 252 435 245Q639 206 836 185Q846 186 856 174Q857 162 835 152Q804 128 714 154Q576 181 410 200Q395 201 381 204 Z"/>
<path id="z20955d5" d="M442 284Q429 280 404 276Q392 272 389 278Q382 284 391 300Q421 361 439 462Q442 493 460 513Q478 535 483 519Q484 513 486 507L486 484Q486 471 483 453Q464 345 459 314L442 284 Z"/>
<path id="z20955d6" d="M700 480Q718 504 733 510Q743 517 756 497Q769 472 791 339Q798 311 819 286Q831 273 819 261Q804 246 763 223Q744 216 729 222Q698 231 656 239Q601 249 532 264Q483 276 442 284L459 314Q541 289 686 265Q717 259 729 270Q742 285 740 299Q725 443 707 455L700 480 Z"/>
<path id="z20955d7" d="M544 333Q537 329 509 325Q500 324 498 327Q494 331 500 343Q518 373 531 423Q534 439 544 448Q557 464 561 452Q562 445 562 432L560 415Q551 369 550 353L544 333 Z"/>
<path id="z20955d8" d="M678 395Q690 359 702 350Q718 331 702 320Q654 293 648 296Q644 296 641 299Q617 314 544 333L550 353Q557 352 563 351Q596 342 623 336Q642 332 646 339Q650 342 646 358Q642 374 638 394L678 395 Z"/>
<path id="z20955d9" d="M562 432Q565 432 571 432Q635 422 682 416Q698 413 692 405Q688 398 678 395L638 394Q632 394 626 396Q592 406 560 415L562 432 Z"/>
<path id="z20955d10" d="M486 507Q493 508 504 507Q616 488 700 480L707 455Q701 451 693 450Q681 447 486 484L486 507 Z"/>
<path id="z20955d11" d="M457 557Q426 561 447 576Q489 598 531 588Q606 576 685 564Q721 557 726 552Q733 546 730 538Q724 528 700 521Q675 514 648 524Q608 536 563 545Q514 554 457 557 Z"/>
<path id="z20955d12" d="M604 662Q662 656 867 655Q886 655 891 646Q895 636 880 622Q831 583 794 592Q673 617 328 659Q309 660 323 677Q336 690 354 696Q373 700 389 697Q471 676 563 666Q564 665 567 666L604 662 Z"/>
<path id="z20955d13" d="M567 666Q582 681 581 807Q580 832 576 838Q575 853 547 851Q513 844 475 837Q465 837 463 844Q462 848 473 857Q548 906 574 936Q592 949 603 945Q613 941 623 909Q638 878 634 820Q631 757 632 734Q639 697 622 677Q612 668 604 662L567 666 Z"/>
<path id="z20955d14" d="M416 722Q382 767 340 804Q331 811 325 825Q318 847 321 862Q322 880 345 874Q399 853 425 780Q438 752 437 728Q436 719 430 717Q423 716 416 722 Z"/>
<path id="z20955d15" d="M713 738Q767 787 830 858Q846 877 861 882Q870 883 877 873Q889 860 877 817Q868 768 714 708Q705 702 703 715Q702 728 713 738 Z"/>
<defs>
	<clipPath id="z20955c1"><use xlink:href="#z20955d1"/></clipPath>
	<clipPath id="z20955c2"><use xlink:href="#z20955d2"/></clipPath>
	<clipPath id="z20955c3"><use xlink:href="#z20955d3"/></clipPath>
	<clipPath id="z20955c4"><use xlink:href="#z20955d4"/></clipPath>
	<clipPath id="z20955c5"><use xlink:href="#z20955d5"/></clipPath>
	<clipPath id="z20955c6"><use xlink:href="#z20955d6"/></clipPath>
	<clipPath id="z20955c7"><use xlink:href="#z20955d7"/></clipPath>
	<clipPath id="z20955c8"><use xlink:href="#z20955d8"/></clipPath>
	<clipPath id="z20955c9"><use xlink:href="#z20955d9"/></clipPath>
	<clipPath id="z20955c10"><use xlink:href="#z20955d10"/></clipPath>
	<clipPath id="z20955c11"><use xlink:href="#z20955d11"/></clipPath>
	<clipPath id="z20955c12"><use xlink:href="#z20955d12"/></clipPath>
	<clipPath id="z20955c13"><use xlink:href="#z20955d13"/></clipPath>
	<clipPath id="z20955c14"><use xlink:href="#z20955d14"/></clipPath>
	<clipPath id="z20955c15"><use xlink:href="#z20955d15"/></clipPath>
</defs>
<path pathLength="3333" clip-path="url(#z20955c1)" d="M186 184L278 245L312 309"/>
<path pathLength="3333" clip-path="url(#z20955c2)" d="M177 839L163 741L295 490"/>
<path pathLength="3333" clip-path="url(#z20955c3)" d="M530 55L658 130"/>
<path pathLength="3333" clip-path="url(#z20955c4)" d="M371 211L425 222L849 171"/>
<path pathLength="3333" clip-path="url(#z20955c5)" d="M393 282L433 328L474 519"/>
<path pathLength="3333" clip-path="url(#z20955c6)" d="M450 288L712 244L762 257L782 289L731 507"/>
<path pathLength="3333" clip-path="url(#z20955c7)" d="M505 331L556 449"/>
<path pathLength="3333" clip-path="url(#z20955c8)" d="M551 339L658 320L679 340L654 394"/>
<path pathLength="3333" clip-path="url(#z20955c9)" d="M567 424L687 408"/>
<path pathLength="3333" clip-path="url(#z20955c10)" d="M492 499L701 462"/>
<path pathLength="3333" clip-path="url(#z20955c11)" d="M449 567L725 544"/>
<path pathLength="3333" clip-path="url(#z20955c12)" d="M324 667L804 623L887 637"/>
<path pathLength="3333" clip-path="url(#z20955c13)" d="M576 667L606 712L606 849L585 896L471 846"/>
<path pathLength="3333" clip-path="url(#z20955c14)" d="M429 722L329 867"/>
<path pathLength="3333" clip-path="url(#z20955c15)" d="M710 712L828 804L869 875"/>
</svg>