<!--
AnimCJK 2016-2018 Copyright Francois Mizessyn, https://github.com/parsimonhi/animCJK
Derived from:
    MakeMeAHanzi project - https://github.com/skishore/makemeahanzi
    Arphic PL KaitiM GB - https://apps.ubuntu.com/cat/applications/precise/fonts-arphic-gkai00mp/
    Arphic PL UKai - https://apps.ubuntu.com/cat/applications/fonts-arphic-ukai/
You can redistribute and/or modify this file under the terms of the Arphic Public License
as published by Arphic Technology Co., Ltd.
You should have received a copy of this license (the directory "APL") along with this file;
if not, see http://ftp.gnu.org/non-gnu/chinese-fonts-truetype/LICENSE.
-->
<svg id="z20966" class="acjk" version="1.1" viewBox="0 0 1024 1024" xmlns="http://www.w3.org/2000/svg" xmlns:xlink="http://www.w3.org/1999/xlink">
<style>
<![CDATA[
@keyframes z20966k {
	from {
		stroke:#c00;
		stroke-dashoffset:3334;
	}
	75% {
		stroke:#c00;
		stroke-dashoffset:0;
	}
	to {
		stroke:#000;
	}
}
#z20966 path[clip-path] {
	animation:z20966k 1s linear both;
	stroke-dasharray:3334;
	stroke-width:128;
	stroke-linecap:round;
	fill:none;
}
#z20966 path[clip-path="url(#z20966c1)"] {animation-delay:1s;}
#z20966 path[clip-path="url(#z20966c2)"] {animation-delay:2s;}
#z20966 path[clip-path="url(#z20966c3)"] {animation-delay:3s;}
#z20966 path[clip-path="url(#z20966c4)"] {animation-delay:4s;}
#z20966 path[clip-path="url(#z20966c5)"] {animation-delay:5s;}
#z20966 path {fill:#ccc;}
]]>
</style>
<path id="z20966d1" d="M263 369Q284 332 312 274Q339 218 353 200Q359 192 359 185Q359 167 319 142Q291 126 270 130Q252 134 263 154Q278 183 270 210Q228 361 92 563Q82 575 81 581Q79 592 93 588Q132 572 248 393L263 369 Z"/>
<path id="z20966d2" d="M355 610Q392 543 433 434Q449 404 474 385Q481 381 484 376Q497 359 456 337Q443 332 437 328Q402 310 381 330Q309 362 267 367Q264 367 263 369L248 393Q284 405 331 383Q362 361 377 373Q386 377 368 440Q355 506 314 581L294 614Q210 740 74 829Q67 835 67 839Q68 844 75 843Q196 827 329 650Q332 644 335 641L355 610 Z"/>
<path id="z20966d3" d="M335 641L337 642Q347 649 410 700Q545 810 684 880Q731 896 927 849Q941 842 945 833Q947 823 923 823Q844 809 766 800Q623 781 455 677L355 610L314 581Q299 566 280 556Q227 529 167 541Q157 547 162 557Q169 567 182 567Q231 571 289 610Q292 610 294 614L335 641 Z"/>
<path id="z20966d4" d="M615 175Q614 174 612 173Q574 151 559 159Q549 167 556 179Q571 202 576 272Q582 361 566 426Q556 473 514 564Q499 600 487 622Q476 641 474 646Q473 657 482 653Q511 646 574 530Q612 442 621 397Q627 369 629 306Q631 250 633 231Q633 230 637 204L615 175 Z"/>
<path id="z20966d5" d="M637 204L735 172Q742 172 745 175Q745 176 739 232Q717 327 713 388Q707 477 731 570L735 579Q790 751 969 747Q970 747 972 747Q1005 743 988 695Q976 657 971 596Q968 563 960 555Q959 553 958 553Q953 551 951 567Q932 667 915 675Q900 682 880 675Q855 664 833 639Q753 558 761 391Q762 294 787 245Q804 213 845 175Q858 167 847 155Q839 144 815 132Q772 107 753 118Q698 151 615 175L637 204 Z"/>
<defs>
	<clipPath id="z20966c1"><use xlink:href="#z20966d1"/></clipPath>
	<clipPath id="z20966c2"><use xlink:href="#z20966d2"/></clipPath>
	<clipPath id="z20966c3"><use xlink:href="#z20966d3"/></clipPath>
	<clipPath id="z20966c4"><use xlink:href="#z20966d4"/></clipPath>
	<clipPath id="z20966c5"><use xlink:href="#z20966d5"/></clipPath>
</defs>
<path pathLength="3333" clip-path="url(#z20966c1)" d="M265 138L302 164L312 201L217 399L88 583"/>
<path pathLength="3333" clip-path="url(#z20966c2)" d="M258 389L395 347L433 378L288 663L186 770L75 838"/>
<path pathLength="3333" clip-path="url(#z20966c3)" d="M167 551L267 572L531 755L697 834L938 831"/>
<path pathLength="3333" clip-path="url(#z20966c4)" d="M562 166L602 212L598 388L554 525L482 647"/>
<path pathLength="3333" clip-path="url(#z20966c5)" d="M623 178L758 146L798 170L755 262L736 436L756 562L808 656L870 702L954 705L956 561"/>
</svg>