<!--
AnimCJK 2016-2017 Copyright Francois Mizessyn, http://gooo.free.fr/animCJK/
Derived from:
    MakeMeAHanzi project - https://github.com/skishore/makemeahanzi
    Arphic PL KaitiM GB - https://apps.ubuntu.com/cat/applications/precise/fonts-arphic-gkai00mp/
    Arphic PL UKai - https://apps.ubuntu.com/cat/applications/fonts-arphic-ukai/
You can redistribute and/or modify this file under the terms of the Arphic Public License
as published by Arphic Technology Co., Ltd.
You should have received a copy of this license (the directory "APL") along with this file;
if not, see http://ftp.gnu.org/non-gnu/chinese-fonts-truetype/LICENSE.
-->
<svg id="z20984" class="acjk" version="1.1" viewBox="0 0 1024 1024" xmlns="http://www.w3.org/2000/svg" xmlns:xlink="http://www.w3.org/1999/xlink">
<style>
<![CDATA[
	@keyframes z20984k {
		from {
			stroke:#c00;
			stroke-dashoffset:3000;
		}
		75% {
			stroke:#c00;
			stroke-dashoffset:0;
		}
		to {
			stroke:#000;
		}
	}
	#z20984 path[clip-path] {
		animation:z20984k 1s linear both;
		stroke-dasharray:3000;
		stroke-width:128;
		stroke-linecap:round;
		fill:none;
	}
	#z20984 path[clip-path="url(#z20984c1)"] {animation-delay:1s;}
	#z20984 path[clip-path="url(#z20984c2)"] {animation-delay:2s;}
	#z20984 path[clip-path="url(#z20984c3)"] {animation-delay:3s;}
	#z20984 path[clip-path="url(#z20984c4)"] {animation-delay:4s;}
	#z20984 path[clip-path="url(#z20984c5)"] {animation-delay:5s;}
	#z20984 path {fill:#ccc;}
]]>
</style>
<g transform="scale(1,-1) translate(0,-900)">
	<path id="z20984d1" d="M232 338C231 338 231 338 231 338L232 338ZM231 338L230 341C228 352 225 364 223 376C222 376 221 376 221 377C263 384 312 394 367 407L410 406C417 404 422 402 424 400C437 394 443 388 443 382C438 374 433 371 426 372C328 356 263 345 233 339C232 339 231 339 231 338Z"/>
	<path id="z20984d2" d="M387 744Q371 756 352 762Q337 768 328 762Q319 755 326 740Q348 694 358 644Q364 595 371 407L413 406Q404 634 414 697Q415 706 414 712L387 744Z"/>
	<path id="z20984d3" d="M770 25C770 25 770 25 771 25C770 25 770 25 770 25ZM771 25C772 25 772 25 772 25C772 25 772 25 771 25ZM773 25C773 25 773 26 774 26C773 26 773 25 773 25ZM774 26C775 26 775 26 775 26C775 26 775 26 774 26ZM776 27C776 27 777 27 777 27C777 27 776 27 776 27ZM778 28C778 28 778 28 778 28C778 28 778 28 778 28ZM779 29C780 29 780 29 780 29C780 29 780 29 779 29ZM781 30C781 30 782 30 782 31C782 30 781 30 781 30ZM783 31C783 32 784 32 784 32C784 32 783 32 783 31ZM785 33C785 33 786 34 786 34C786 34 785 33 785 33ZM787 35C787 35 788 35 788 36C788 35 787 35 787 35ZM789 37C789 37 790 37 790 38C790 37 789 37 789 37ZM791 39C791 39 792 39 792 40C792 39 791 39 791 39ZM793 41C794 41 794 42 794 42C794 42 794 41 793 41ZM590 372C588 372 585 373 584 375L582 377C564 390 560 405 571 422C576 436 583 495 591 598C594 690 595 738 595 740C591 744 586 746 580 746C565 744 510 732 414 712L387 744C441 750 484 756 517 763C542 769 569 780 597 795C605 801 614 803 622 799C649 787 670 774 684 762C694 752 695 743 687 733C669 714 659 697 659 683C648 609 641 530 637 448C635 430 643 423 659 425C687 430 730 437 786 445L785 398C759 411 700 404 610 378C602 374 595 372 590 372ZM897 374C898 374 898 375 898 376C898 375 898 374 897 374ZM898 376C899 376 899 377 899 378C899 377 899 376 898 376ZM899 378C899 378 900 379 900 380C900 379 899 378 899 378ZM900 380C900 380 900 381 900 382C900 381 900 380 900 380ZM900 382C900 382 900 383 900 384C900 383 900 382 900 382ZM900 384C900 384 900 385 900 386C900 385 900 384 900 384ZM900 386C900 387 900 387 900 388C900 387 900 387 900 386ZM900 388C900 389 900 389 899 390C900 389 900 389 900 388ZM899 390C899 390 899 391 899 391C899 391 899 390 899 390ZM799 384C798 385 798 385 798 386C798 385 798 385 799 384ZM798 386C797 387 797 388 796 388C797 388 797 387 798 386ZM796 388C796 389 796 390 795 391C796 390 796 389 796 388ZM795 391C795 391 794 392 794 393C794 392 795 391 795 391ZM794 393C793 393 793 393 793 393C793 393 793 393 794 393ZM792 394C792 394 792 394 792 394C792 394 792 394 792 394ZM791 395C791 395 791 395 791 395C791 395 791 395 791 395ZM790 395C790 395 790 396 790 396C790 396 790 395 790 395ZM788 397C788 397 787 397 787 397C787 397 788 397 788 397Z"/>
	<path id="z20984d4" d="M246 20C233 21 224 29 222 36C220 42 222 47 224 52C223 51 231 67 226 86C223 103 220 115 219 129C207 250 185 334 153 380C146 387 145 393 150 397C154 400 158 401 163 401C183 397 203 388 223 376C244 284 255 217 251 237C275 84 275 81 302 83C432 96 550 117 668 143C686 146 707 149 724 138C733 131 742 124 751 116L739 107L734 90C725 89 716 89 708 89C592 80 476 69 361 50C339 47 316 44 293 41C290 40 286 40 273 31C279 35 267 26 252 21Z"/>
	<path id="z20984d5" d="M769 24C768 24 768 24 768 25C759 27 754 33 754 42C749 57 742 73 734 90L743 121C745 119 748 118 750 118C756 114 763 122 769 141C781 171 792 238 801 342C805 366 802 383 794 393C791 395 788 397 785 398L786 445C786 445 786 445 787 446C801 452 815 452 829 444C861 424 883 409 894 401C903 389 903 378 893 368C877 350 867 332 865 316C853 243 840 175 828 113C825 84 815 61 797 45C785 31 775 25 769 24Z"/>
	<defs>
		<clipPath id="z20984c1"><use xlink:href="#z20984d1"/></clipPath>
		<clipPath id="z20984c2"><use xlink:href="#z20984d2"/></clipPath>
		<clipPath id="z20984c3"><use xlink:href="#z20984d3"/></clipPath>
		<clipPath id="z20984c4"><use xlink:href="#z20984d4"/></clipPath>
		<clipPath id="z20984c5"><use xlink:href="#z20984d5"/></clipPath>
	</defs>
	<path pathLength="2999" clip-path="url(#z20984c1)" d="M231 371L435 385"/>
	<path pathLength="2999" clip-path="url(#z20984c2)" d="M331 752L380 699L401 409"/>
	<path pathLength="2999" clip-path="url(#z20984c3)" d="M395 743L433 733L603 772L640 747L602 416L617 402L779 423L779 406"/>
	<path pathLength="2999" clip-path="url(#z20984c4)" d="M153 393L199 356L259 54L743 116"/>
	<path pathLength="2999" clip-path="url(#z20984c5)" d="M790 442L851 372L791 102L757 72L745 114"/>
</g>
</svg>