<!--
AnimCJK 2016-2018 Copyright Francois Mizessyn, https://github.com/parsimonhi/animCJK
Derived from:
    MakeMeAHanzi project - https://github.com/skishore/makemeahanzi
    Arphic PL KaitiM GB - https://apps.ubuntu.com/cat/applications/precise/fonts-arphic-gkai00mp/
    Arphic PL UKai - https://apps.ubuntu.com/cat/applications/fonts-arphic-ukai/
You can redistribute and/or modify this file under the terms of the Arphic Public License
as published by Arphic Technology Co., Ltd.
You should have received a copy of this license (the directory "APL") along with this file;
if not, see http://ftp.gnu.org/non-gnu/chinese-fonts-truetype/LICENSE.
-->
<svg id="z20986" class="acjk" version="1.1" viewBox="0 0 1024 1024" xmlns="http://www.w3.org/2000/svg" xmlns:xlink="http://www.w3.org/1999/xlink">
<style>
<![CDATA[
@keyframes z20986k {
	from {
		stroke:#c00;
		stroke-dashoffset:3334;
	}
	75% {
		stroke:#c00;
		stroke-dashoffset:0;
	}
	to {
		stroke:#000;
	}
}
#z20986 path[clip-path] {
	animation:z20986k 1s linear both;
	stroke-dasharray:3334;
	stroke-width:128;
	stroke-linecap:round;
	fill:none;
}
#z20986 path[clip-path="url(#z20986c1)"] {animation-delay:1s;}
#z20986 path[clip-path="url(#z20986c2)"] {animation-delay:2s;}
#z20986 path[clip-path="url(#z20986c3)"] {animation-delay:3s;}
#z20986 path[clip-path="url(#z20986c4)"] {animation-delay:4s;}
#z20986 path[clip-path="url(#z20986c5)"] {animation-delay:5s;}
#z20986 path {fill:#ccc;}
]]>
</style>
<path id="z20986d1" d="M551 767Q557 611 562 465L563 426Q564 261 592 122Q596 107 570 88Q522 63 490 58Q468 54 458 65Q448 75 459 95Q499 153 499 193Q503 310 505 436L505 478Q504 620 495 777L551 767 Z"/>
<path id="z20986d2" d="M562 465Q655 440 729 442L739 402Q646 411 563 426L505 436Q411 451 330 475Q306 479 312 452Q327 346 317 328Q281 285 250 289Q237 293 246 315Q268 367 260 421Q254 470 233 493Q212 512 220 528Q233 544 251 557Q267 567 278 557Q308 524 505 478L562 465 Z"/>
<path id="z20986d3" d="M729 442Q728 442 729 443Q732 479 741 503Q750 524 766 511Q799 484 812 386Q836 328 843 319Q853 303 843 284Q822 263 786 238Q773 228 757 233Q747 237 749 253Q777 301 741 399Q740 399 739 402L729 442 Z"/>
<path id="z20986d4" d="M255 891Q274 907 284 907Q291 907 299 900Q335 855 588 804Q595 801 755 777Q765 776 775 773L771 739Q677 742 551 767L495 777Q380 795 341 812Q332 815 329 811Q326 808 339 685Q340 643 288 620Q281 617 274 617Q259 616 254 619Q250 626 263 648Q302 721 257 814Q250 824 241 834Q225 847 228 859Q232 871 255 891 Z"/>
<path id="z20986d5" d="M775 773Q779 872 796 897Q815 931 827 910Q840 888 840 834Q841 692 844 663Q845 642 839 635Q824 622 774 606Q758 599 751 605Q741 612 750 637Q763 680 771 739L775 773 Z"/>
<defs>
	<clipPath id="z20986c1"><use xlink:href="#z20986d1"/></clipPath>
	<clipPath id="z20986c2"><use xlink:href="#z20986d2"/></clipPath>
	<clipPath id="z20986c3"><use xlink:href="#z20986d3"/></clipPath>
	<clipPath id="z20986c4"><use xlink:href="#z20986d4"/></clipPath>
	<clipPath id="z20986c5"><use xlink:href="#z20986d5"/></clipPath>
</defs>
<path pathLength="3333" clip-path="url(#z20986c1)" d="M461 72L543 149L524 750L507 773"/>
<path pathLength="3333" clip-path="url(#z20986c2)" d="M251 302L288 341L266 497L288 516L734 411"/>
<path pathLength="3333" clip-path="url(#z20986c3)" d="M757 237L804 309L755 510"/>
<path pathLength="3333" clip-path="url(#z20986c4)" d="M260 623L306 671L279 835L305 859L464 806L773 757"/>
<path pathLength="3333" clip-path="url(#z20986c5)" d="M755 613L801 658L816 912"/>
</svg>