<!--
AnimCJK 2016-2018 Copyright Francois Mizessyn, https://github.com/parsimonhi/animCJK
Derived from:
    MakeMeAHanzi project - https://github.com/skishore/makemeahanzi
    Arphic PL KaitiM GB - https://apps.ubuntu.com/cat/applications/precise/fonts-arphic-gkai00mp/
    Arphic PL UKai - https://apps.ubuntu.com/cat/applications/fonts-arphic-ukai/
You can redistribute and/or modify this file under the terms of the Arphic Public License
as published by Arphic Technology Co., Ltd.
You should have received a copy of this license (the directory "APL") along with this file;
if not, see http://ftp.gnu.org/non-gnu/chinese-fonts-truetype/LICENSE.
-->
<svg id="z21000" class="acjk" version="1.1" viewBox="0 0 1024 1024" xmlns="http://www.w3.org/2000/svg" xmlns:xlink="http://www.w3.org/1999/xlink">
<style>
<![CDATA[
@keyframes z21000k {
	from {
		stroke:#c00;
		stroke-dashoffset:3334;
	}
	75% {
		stroke:#c00;
		stroke-dashoffset:0;
	}
	to {
		stroke:#000;
	}
}
#z21000 path[clip-path] {
	animation:z21000k 1s linear both;
	stroke-dasharray:3334;
	stroke-width:128;
	stroke-linecap:round;
	fill:none;
}
#z21000 path[clip-path="url(#z21000c1)"] {animation-delay:1s;}
#z21000 path[clip-path="url(#z21000c2)"] {animation-delay:2s;}
#z21000 path[clip-path="url(#z21000c3)"] {animation-delay:3s;}
#z21000 path[clip-path="url(#z21000c4)"] {animation-delay:4s;}
#z21000 path {fill:#ccc;}
]]>
</style>
<path id="z21000d1" d="M308 475Q239 586 79 729Q72 738 78 740Q87 743 98 737Q252 656 343 517L372 466Q411 393 444 283Q457 244 476 207Q483 197 477 186Q470 176 436 160Q412 148 402 151Q389 155 391 172Q407 290 333 431L308 475 Z"/>
<path id="z21000d2" d="M343 517Q398 583 457 660Q469 679 482 684Q489 685 497 678Q509 668 502 628Q499 583 372 466L333 431Q242 349 189 310Q182 304 178 315Q177 327 185 337Q243 398 308 475L343 517 Z"/>
<path id="z21000d3" d="M582 283Q612 349 591 547Q582 587 612 618Q621 628 630 618Q654 584 649 536Q643 386 653 311Q660 289 640 278Q624 268 607 260Q595 256 586 262Q579 268 582 283 Z"/>
<path id="z21000d4" d="M772 165Q776 202 772 775Q771 799 758 808Q749 815 728 808Q703 802 678 797Q644 785 647 796Q648 803 669 818Q736 872 753 901Q772 937 789 938Q805 939 819 902Q838 856 836 778Q820 528 827 276Q831 185 845 137Q861 106 804 83Q770 64 749 71Q731 78 747 102Q769 130 772 165 Z"/>
<defs>
	<clipPath id="z21000c1"><use xlink:href="#z21000d1"/></clipPath>
	<clipPath id="z21000c2"><use xlink:href="#z21000d2"/></clipPath>
	<clipPath id="z21000c3"><use xlink:href="#z21000d3"/></clipPath>
	<clipPath id="z21000c4"><use xlink:href="#z21000d4"/></clipPath>
</defs>
<path pathLength="3333" clip-path="url(#z21000c1)" d="M399 159L437 201L354 446L255 588L84 734"/>
<path pathLength="3333" clip-path="url(#z21000c2)" d="M185 314L420 559L491 679"/>
<path pathLength="3333" clip-path="url(#z21000c3)" d="M589 267L623 309L616 613"/>
<path pathLength="3333" clip-path="url(#z21000c4)" d="M745 80L809 140L803 802L774 886L657 797"/>
</svg>