<!--
AnimCJK 2016-2018 Copyright Francois Mizessyn, https://github.com/parsimonhi/animCJK
Derived from:
    MakeMeAHanzi project - https://github.com/skishore/makemeahanzi
    Arphic PL KaitiM GB - https://apps.ubuntu.com/cat/applications/precise/fonts-arphic-gkai00mp/
    Arphic PL UKai - https://apps.ubuntu.com/cat/applications/fonts-arphic-ukai/
You can redistribute and/or modify this file under the terms of the Arphic Public License
as published by Arphic Technology Co., Ltd.
You should have received a copy of this license (the directory "APL") along with this file;
if not, see http://ftp.gnu.org/non-gnu/chinese-fonts-truetype/LICENSE.
-->
<svg id="z21021" class="acjk" version="1.1" viewBox="0 0 1024 1024" xmlns="http://www.w3.org/2000/svg" xmlns:xlink="http://www.w3.org/1999/xlink">
<style>
<![CDATA[
@keyframes z21021k {
	from {
		stroke:#c00;
		stroke-dashoffset:3334;
	}
	75% {
		stroke:#c00;
		stroke-dashoffset:0;
	}
	to {
		stroke:#000;
	}
}
#z21021 path[clip-path] {
	animation:z21021k 1s linear both;
	stroke-dasharray:3334;
	stroke-width:128;
	stroke-linecap:round;
	fill:none;
}
#z21021 path[clip-path="url(#z21021c1)"] {animation-delay:1s;}
#z21021 path[clip-path="url(#z21021c2)"] {animation-delay:2s;}
#z21021 path[clip-path="url(#z21021c3)"] {animation-delay:3s;}
#z21021 path[clip-path="url(#z21021c4)"] {animation-delay:4s;}
#z21021 path[clip-path="url(#z21021c5)"] {animation-delay:5s;}
#z21021 path[clip-path="url(#z21021c6)"] {animation-delay:6s;}
#z21021 path[clip-path="url(#z21021c7)"] {animation-delay:7s;}
#z21021 path {fill:#ccc;}
]]>
</style>
<path id="z21021d1" d="M342 118Q372 143 403 174Q418 187 435 187Q447 186 452 171Q458 155 447 123Q435 89 336 65Q320 61 312 65Q306 69 308 83Q312 96 342 118 Z"/>
<path id="z21021d2" d="M305 517Q339 474 377 422Q416 367 466 331Q484 318 470 301Q448 285 416 272Q391 262 372 274Q284 337 122 343Q109 340 105 349Q102 361 118 372Q154 396 184 397Q208 391 333 340Q351 333 356 341Q360 351 347 374Q262 522 77 687Q61 699 64 703Q67 706 81 701Q174 661 278 548L305 517 Z"/>
<path id="z21021d3" d="M278 548Q312 617 278 783Q260 828 296 881Q297 884 302 888Q318 904 330 878Q345 838 344 793Q343 633 348 597Q355 570 346 560Q322 535 305 517L278 548 Z"/>
<path id="z21021d4" d="M429 530Q478 494 505 480Q518 476 514 468Q510 456 494 443Q479 430 462 429Q452 430 452 444Q455 456 413 523L429 530 Z"/>
<path id="z21021d5" d="M413 523Q380 505 368 509Q364 512 364 522Q367 531 386 549Q414 574 442 606Q452 616 464 617Q473 617 477 607Q481 597 477 573Q473 554 445 536Q438 532 429 530L413 523 Z"/>
<path id="z21021d6" d="M658 369Q725 353 792 346Q805 345 809 352Q818 368 815 415Q805 583 775 672Q760 727 742 745Q730 758 705 751Q671 741 640 731Q616 724 633 746Q679 795 705 835Q715 856 737 850Q756 846 781 818Q853 743 870 458Q874 395 898 357Q914 336 905 327Q890 308 856 294Q831 281 805 293Q682 345 531 352Q515 351 514 359Q513 368 532 380Q554 396 577 388Q590 384 605 381L658 369 Z"/>
<path id="z21021d7" d="M605 381Q629 514 520 672Q517 675 516 678Q485 726 402 810Q395 819 402 821Q409 822 420 816Q483 782 532 729Q619 644 667 465Q677 437 689 408Q696 398 689 388Q682 379 658 369L605 381 Z"/>
<defs>
	<clipPath id="z21021c1"><use xlink:href="#z21021d1"/></clipPath>
	<clipPath id="z21021c2"><use xlink:href="#z21021d2"/></clipPath>
	<clipPath id="z21021c3"><use xlink:href="#z21021d3"/></clipPath>
	<clipPath id="z21021c4"><use xlink:href="#z21021d4"/></clipPath>
	<clipPath id="z21021c5"><use xlink:href="#z21021d5"/></clipPath>
	<clipPath id="z21021c6"><use xlink:href="#z21021d6"/></clipPath>
	<clipPath id="z21021c7"><use xlink:href="#z21021d7"/></clipPath>
</defs>
<path pathLength="3333" clip-path="url(#z21021c1)" d="M311 73L402 124L444 178"/>
<path pathLength="3333" clip-path="url(#z21021c2)" d="M111 349L180 368L373 304L421 330L227 570L71 698"/>
<path pathLength="3333" clip-path="url(#z21021c3)" d="M307 529L311 888"/>
<path pathLength="3333" clip-path="url(#z21021c4)" d="M461 438L477 475L422 521"/>
<path pathLength="3333" clip-path="url(#z21021c5)" d="M372 517L436 560L461 613"/>
<path pathLength="3333" clip-path="url(#z21021c6)" d="M519 361L569 369L817 319L859 345L825 601L781 753L730 802L634 736"/>
<path pathLength="3333" clip-path="url(#z21021c7)" d="M611 385L650 416L588 607L517 714L406 814"/>
</svg>