<!--
AnimCJK 2016-2017 Copyright Francois Mizessyn, http://gooo.free.fr/animCJK/
Derived from:
    MakeMeAHanzi project - https://github.com/skishore/makemeahanzi
    Arphic PL KaitiM GB - https://apps.ubuntu.com/cat/applications/precise/fonts-arphic-gkai00mp/
    Arphic PL UKai - https://apps.ubuntu.com/cat/applications/fonts-arphic-ukai/
You can redistribute and/or modify this file under the terms of the Arphic Public License
as published by Arphic Technology Co., Ltd.
You should have received a copy of this license (the directory "APL") along with this file;
if not, see http://ftp.gnu.org/non-gnu/chinese-fonts-truetype/LICENSE.
-->
<svg id="z21048" class="acjk" version="1.1" viewBox="0 0 1024 1024" xmlns="http://www.w3.org/2000/svg" xmlns:xlink="http://www.w3.org/1999/xlink">
<style>
<![CDATA[
@keyframes z21048k {
	from {
		stroke:#c00;
		stroke-dashoffset:3000;
	}
	75% {
		stroke:#c00;
		stroke-dashoffset:0;
	}
	to {
		stroke:#000;
	}
}
#z21048 path[clip-path] {
	animation:z21048k 1s linear both;
	stroke-dasharray:3000;
	stroke-width:128;
	stroke-linecap:round;
	fill:none;
}
#z21048 path[clip-path="url(#z21048c1)"] {animation-delay:1s;}
#z21048 path[clip-path="url(#z21048c2)"] {animation-delay:2s;}
#z21048 path[clip-path="url(#z21048c3)"] {animation-delay:3s;}
#z21048 path[clip-path="url(#z21048c4)"] {animation-delay:4s;}
#z21048 path[clip-path="url(#z21048c5)"] {animation-delay:5s;}
#z21048 path[clip-path="url(#z21048c6)"] {animation-delay:6s;}
#z21048 path[clip-path="url(#z21048c7)"] {animation-delay:7s;}
#z21048 path[clip-path="url(#z21048c8)"] {animation-delay:8s;}
#z21048 path {fill:#ccc;}
]]>
</style>
<path id="z21048d1" d="M319 190Q355 233 384 246Q399 249 407 235Q413 223 410 207Q403 183 386 171Q355 150 310 150Q307 150 305 152Q299 153 302 165Q303 177 319 190 Z"/>
<path id="z21048d2" d="M642 114Q624 136 564 202Q552 218 570 216Q615 197 641 183Q713 144 726 140Q748 133 739 113Q727 94 702 78Q680 62 667 63Q654 64 656 78Q657 97 642 114 Z"/>
<path id="z21048d3" d="M483 314Q547 301 617 291Q669 281 678 274Q685 267 682 259Q676 249 650 240Q622 233 595 243Q544 258 493 271L444 281Q381 290 314 295Q280 299 303 315Q339 339 405 326Q417 323 431 323L483 314 Z"/>
<path id="z21048d4" d="M430 446Q509 434 560 432L593 430Q666 424 757 424Q823 427 831 416Q837 404 820 390Q768 351 730 360Q642 379 487 403Q468 404 448 409L394 416Q295 428 188 442Q167 443 183 461Q196 474 215 480Q237 486 252 481Q310 465 373 455L430 446 Z"/>
<path id="z21048d5" d="M313 603Q365 555 428 451Q429 448 430 446L448 409Q467 363 483 314L493 271Q520 148 545 104Q555 85 539 75Q494 35 465 44Q450 48 456 63Q481 124 444 281L431 323Q413 383 394 416L373 455Q280 602 138 678Q122 688 105 700Q90 709 103 712Q155 716 268 639Q280 630 295 617L313 603 Z"/>
<path id="z21048d6" d="M498 310C500 313 502 316 506 318C572 389 704 578 776 640C792 655 812 662 837 661C881 662 928 657 976 645C988 643 994 641 995 637C995 633 991 629 982 625C855 583 816 566 801 557C694 502 657 442 531 304 Z"/>
<path id="z21048d7" d="M434 626Q510 608 570 603Q589 602 593 608Q603 621 596 659Q584 762 559 806Q540 840 509 834Q487 830 468 823Q443 814 460 840Q500 882 517 914Q536 936 554 919Q618 879 651 716Q657 643 683 610Q696 597 691 585Q681 573 628 548Q607 538 587 551Q563 564 477 581Q389 600 315 602Q314 602 313 603L295 617Q299 623 316 632Q340 648 361 642Q377 638 396 634L434 626 Z"/>
<path id="z21048d8" d="M396 634Q396 719 301 810Q298 810 297 813Q270 840 205 883Q198 890 203 893Q230 903 308 856Q380 816 441 708Q451 692 465 675Q474 668 469 657Q465 647 437 627Q436 626 434 626L396 634 Z"/>
<defs>
	<clipPath id="z21048c1"><use xlink:href="#z21048d1"/></clipPath>
	<clipPath id="z21048c2"><use xlink:href="#z21048d2"/></clipPath>
	<clipPath id="z21048c3"><use xlink:href="#z21048d3"/></clipPath>
	<clipPath id="z21048c4"><use xlink:href="#z21048d4"/></clipPath>
	<clipPath id="z21048c5"><use xlink:href="#z21048d5"/></clipPath>
	<clipPath id="z21048c6"><use xlink:href="#z21048d6"/></clipPath>
	<clipPath id="z21048c7"><use xlink:href="#z21048d7"/></clipPath>
	<clipPath id="z21048c8"><use xlink:href="#z21048d8"/></clipPath>
</defs>
<path pathLength="2999" clip-path="url(#z21048c1)" d="M308 158L405 234"/>
<path pathLength="2999" clip-path="url(#z21048c2)" d="M664 73L689 124L566 209"/>
<path pathLength="2999" clip-path="url(#z21048c3)" d="M302 303L384 309L674 264"/>
<path pathLength="2999" clip-path="url(#z21048c4)" d="M182 450L237 459L733 391L826 401"/>
<path pathLength="2999" clip-path="url(#z21048c5)" d="M461 51L507 93L458 313L400 454L269 612L105 705"/>
<path pathLength="2999" clip-path="url(#z21048c6)" d="M508 312L792 600L989 633"/>
<path pathLength="2999" clip-path="url(#z21048c7)" d="M304 617L588 575L644 603L568 852L531 880L461 830"/>
<path pathLength="2999" clip-path="url(#z21048c8)" d="M401 639L429 674L373 765L301 837L209 889"/>
</svg>