<!--
AnimCJK 2016-2018 Copyright Francois Mizessyn, https://github.com/parsimonhi/animCJK
Derived from:
    MakeMeAHanzi project - https://github.com/skishore/makemeahanzi
    Arphic PL KaitiM GB - https://apps.ubuntu.com/cat/applications/precise/fonts-arphic-gkai00mp/
    Arphic PL UKai - https://apps.ubuntu.com/cat/applications/fonts-arphic-ukai/
You can redistribute and/or modify this file under the terms of the Arphic Public License
as published by Arphic Technology Co., Ltd.
You should have received a copy of this license (the directory "APL") along with this file;
if not, see http://ftp.gnu.org/non-gnu/chinese-fonts-truetype/LICENSE.
-->
<svg id="z21047" class="acjk" version="1.1" viewBox="0 0 1024 1024" xmlns="http://www.w3.org/2000/svg" xmlns:xlink="http://www.w3.org/1999/xlink">
<style>
<![CDATA[
@keyframes z21047k {
	from {
		stroke:#c00;
		stroke-dashoffset:3334;
	}
	75% {
		stroke:#c00;
		stroke-dashoffset:0;
	}
	to {
		stroke:#000;
	}
}
#z21047 path[clip-path] {
	animation:z21047k 1s linear both;
	stroke-dasharray:3334;
	stroke-width:128;
	stroke-linecap:round;
	fill:none;
}
#z21047 path[clip-path="url(#z21047c1)"] {animation-delay:1s;}
#z21047 path[clip-path="url(#z21047c2)"] {animation-delay:2s;}
#z21047 path[clip-path="url(#z21047c3)"] {animation-delay:3s;}
#z21047 path[clip-path="url(#z21047c4)"] {animation-delay:4s;}
#z21047 path[clip-path="url(#z21047c5)"] {animation-delay:5s;}
#z21047 path[clip-path="url(#z21047c6)"] {animation-delay:6s;}
#z21047 path[clip-path="url(#z21047c7)"] {animation-delay:7s;}
#z21047 path[clip-path="url(#z21047c8)"] {animation-delay:8s;}
#z21047 path {fill:#ccc;}
]]>
</style>
<path id="z21047d1" d="M523 267Q545 203 574 185Q589 167 575 151Q559 138 511 116Q493 109 473 116Q404 146 304 165L318 195Q477 158 485 165Q495 175 474 263L523 267 Z"/>
<path id="z21047d2" d="M290 338Q291 338 294 339Q304 340 316 338Q385 319 534 297Q544 296 545 287Q545 280 523 267L474 263Q473 263 472 263Q375 291 295 308L290 338 Z"/>
<path id="z21047d3" d="M256 485Q257 482 258 481Q279 409 290 338L295 308Q295 307 296 305Q302 239 318 195L304 165Q291 153 271 144Q253 132 240 137Q228 144 234 157Q252 188 247 240Q228 444 180 562Q141 655 56 778Q50 785 48 790Q45 800 56 799Q92 793 173 674Q186 652 200 627Q228 570 249 506L256 485 Z"/>
<path id="z21047d4" d="M295 499Q292 495 287 493Q268 484 256 485L249 506Q274 569 249 658Q231 685 253 722Q254 726 259 730Q265 740 273 736Q297 717 297 628Q297 556 300 531L295 499 Z"/>
<path id="z21047d5" d="M431 506Q462 500 495 497Q520 493 524 509Q527 635 512 652Q506 655 465 651Q452 647 449 651Q446 655 455 664Q495 698 520 722Q533 734 544 722Q572 688 570 645Q567 549 577 504Q581 488 572 479Q548 457 532 448Q522 444 513 451Q507 457 432 476L388 484Q354 488 295 499L300 531Q379 515 388 514L431 506 Z"/>
<path id="z21047d6" d="M388 514Q388 745 367 810Q355 861 405 913L407 914Q417 915 423 903Q435 873 431 845Q427 590 431 506L432 476Q433 442 437 425Q440 413 433 408Q411 389 393 380Q383 376 374 383Q368 387 375 396Q387 414 388 484L388 514 Z"/>
<path id="z21047d7" d="M626 311Q656 380 635 558Q626 595 656 626Q665 636 674 626Q692 601 692 511Q692 373 697 339Q704 317 684 306Q668 296 651 288Q639 284 630 290Q623 296 626 311 Z"/>
<path id="z21047d8" d="M802 186Q808 223 814 785Q814 809 801 818Q792 824 770 816Q745 809 721 802Q688 789 691 800Q692 807 712 822Q779 876 795 906Q814 942 832 943Q845 944 861 909Q879 863 876 789Q855 542 858 292Q859 204 872 158Q888 127 832 107Q798 89 779 96Q761 103 778 126Q800 153 802 186 Z"/>
<defs>
	<clipPath id="z21047c1"><use xlink:href="#z21047d1"/></clipPath>
	<clipPath id="z21047c2"><use xlink:href="#z21047d2"/></clipPath>
	<clipPath id="z21047c3"><use xlink:href="#z21047d3"/></clipPath>
	<clipPath id="z21047c4"><use xlink:href="#z21047d4"/></clipPath>
	<clipPath id="z21047c5"><use xlink:href="#z21047d5"/></clipPath>
	<clipPath id="z21047c6"><use xlink:href="#z21047d6"/></clipPath>
	<clipPath id="z21047c7"><use xlink:href="#z21047d7"/></clipPath>
	<clipPath id="z21047c8"><use xlink:href="#z21047d8"/></clipPath>
</defs>
<path pathLength="3333" clip-path="url(#z21047c1)" d="M311 167L515 149L534 175L499 264"/>
<path pathLength="3333" clip-path="url(#z21047c2)" d="M295 332L471 285L538 288"/>
<path pathLength="3333" clip-path="url(#z21047c3)" d="M243 141L282 208L233 478L155 662L54 792"/>
<path pathLength="3333" clip-path="url(#z21047c4)" d="M260 492L279 551L262 730"/>
<path pathLength="3333" clip-path="url(#z21047c5)" d="M303 505L516 472L545 490L535 676L514 689L457 655"/>
<path pathLength="3333" clip-path="url(#z21047c6)" d="M379 387L410 421L410 910"/>
<path pathLength="3333" clip-path="url(#z21047c7)" d="M633 292L667 337L663 621"/>
<path pathLength="3333" clip-path="url(#z21047c8)" d="M775 104L837 157L842 821L811 890L697 801"/>
</svg>