<!--
AnimCJK 2016-2019 Copyright Francois Mizessyn - https://github.com/parsimonhi/animCJK
Derived from:
    MakeMeAHanzi project - https://github.com/skishore/makemeahanzi
    Arphic PL KaitiM GB font
    Arphic PL UKai font
You can redistribute and/or modify this file under the terms of the Arphic Public License
as published by Arphic Technology Co., Ltd.
You should have received a copy of this license along with this file.
If not, see http://ftp.gnu.org/non-gnu/chinese-fonts-truetype/LICENSE.
-->
<svg id="z21092" class="acjk" version="1.1" viewBox="0 0 1024 1024" xmlns="http://www.w3.org/2000/svg" xmlns:xlink="http://www.w3.org/1999/xlink">
<style>
<![CDATA[
@keyframes zk {
	to {
		stroke-dashoffset:0;
	}
}
svg.acjk path[clip-path] {
	--t:0.8s;
	animation:zk var(--t) linear forwards var(--d);
	stroke-dasharray:3337;
	stroke-dashoffset:3339;
	stroke-width:128;
	stroke-linecap:round;
	fill:none;
	stroke:#000;
}
svg.acjk path[id] {fill:#ccc;}
]]>
</style>
<path id="z21092d1" d="M325 116C345 129 365 145 388 161C397 167 408 170 419 170C425 169 430 164 433 154C435 143 431 128 423 110C414 91 377 77 313 69C302 67 295 68 292 71C289 73 287 79 290 88C292 95 306 103 325 116Z"/>
<path id="z21092d2" d="M444 246C455 244 502 235 587 229C595 228 604 227 608 218C611 209 600 202 586 194C558 178 526 179 486 190C399 212 288 229 185 236C164 237 162 245 178 258C200 277 221 283 242 279C290 267 383 255 406 252C431 248 431 248 444 246Z"/>
<path id="z21092d3" d="M446 373C450 364 463 338 471 319C479 298 499 287 483 268C474 257 457 251 444 246C432 242 401 240 406 252C417 282 422 318 400 354C382 383 382 383 370 395C338 425 272 468 124 496C112 498 114 504 127 505C313 519 393 443 416 419C428 405 437 389 446 373Z"/>
<path id="z21092d4" d="M261 338C293 355 333 375 370 395C401 411 401 411 416 419C455 439 484 460 527 487C547 499 563 509 579 512C587 513 591 510 594 504C598 494 588 475 562 445C541 421 509 399 446 373C415 360 415 360 400 354C359 337 295 316 254 308C239 304 232 304 235 313C237 322 248 331 261 338Z"/>
<path id="z21092d5" d="M193 550C208 577 214 629 202 705C190 773 153 834 98 888C91 894 91 900 98 900C150 895 196 856 229 787C249 744 253 702 267 625C269 609 271 595 276 582C281 568 277 559 268 553C235 529 212 519 198 528C189 532 187 540 193 550Z"/>
<path id="z21092d6" d="M404 649C460 638 490 632 492 631C496 627 497 623 497 619C496 615 493 610 486 606C469 595 449 590 427 597C394 606 326 624 291 624C276 623 271 632 276 638C284 649 333 662 351 660C368 658 374 654 404 649Z"/>
<path id="z21092d7" d="M390 775C446 763 476 758 478 757C482 753 483 749 483 745C482 741 479 736 472 732C455 721 435 716 413 723C358 740 322 747 277 750C262 750 257 758 262 764C270 775 291 785 337 786C355 786 390 775 390 775Z"/>
<path id="z21092d8" d="M504 555C519 581 517 721 508 808C506 819 506 829 505 837C496 874 519 920 544 954C554 967 565 955 569 946C575 928 576 882 573 808C568 693 568 620 573 588C574 578 572 571 568 568C551 552 537 540 524 535C515 531 510 533 504 539C500 541 499 547 504 555Z"/>
<path id="z21092d9" d="M663 301C684 353 690 441 675 565C672 587 677 612 699 639C704 646 713 646 719 638C736 612 739 584 738 554C732 458 732 383 740 332C742 315 739 304 725 296C714 289 703 282 690 277C681 273 673 274 667 278C660 282 658 290 663 301Z"/>
<path id="z21092d10" d="M839 175C841 199 841 402 838 784C837 800 832 812 824 818C820 820 795 817 754 804C729 795 718 792 720 800C720 806 728 813 742 826C785 865 810 897 820 919C830 943 841 957 853 959C863 960 875 947 887 922C902 888 912 843 909 788C890 455 885 240 918 145C926 120 915 104 874 86C848 74 829 69 815 74C802 78 800 90 813 107C828 127 837 149 839 175Z"/>
<defs>
	<clipPath id="z21092c1"><use xlink:href="#z21092d1"/></clipPath>
	<clipPath id="z21092c2"><use xlink:href="#z21092d2"/></clipPath>
	<clipPath id="z21092c3"><use xlink:href="#z21092d3"/></clipPath>
	<clipPath id="z21092c4"><use xlink:href="#z21092d4"/></clipPath>
	<clipPath id="z21092c5"><use xlink:href="#z21092d5"/></clipPath>
	<clipPath id="z21092c6"><use xlink:href="#z21092d6"/></clipPath>
	<clipPath id="z21092c7"><use xlink:href="#z21092d7"/></clipPath>
	<clipPath id="z21092c8"><use xlink:href="#z21092d8"/></clipPath>
	<clipPath id="z21092c9"><use xlink:href="#z21092d9"/></clipPath>
	<clipPath id="z21092c10"><use xlink:href="#z21092d10"/></clipPath>
</defs>
<path style="--d:1s;" pathLength="3333" clip-path="url(#z21092c1)" d="M296 77L429 157"/>
<path style="--d:2s;" pathLength="3333" clip-path="url(#z21092c2)" d="M174 244L234 255L522 208L601 216"/>
<path style="--d:3s;" pathLength="3333" clip-path="url(#z21092c3)" d="M414 256L453 287L366 424L263 478L127 501"/>
<path style="--d:4s;" pathLength="3333" clip-path="url(#z21092c4)" d="M242 310L483 425L589 503"/>
<path style="--d:5s;" pathLength="3333" clip-path="url(#z21092c5)" d="M197 536L241 580L213 756L157 852L102 894"/>
<path style="--d:6s;" pathLength="3333" clip-path="url(#z21092c6)" d="M280 632L492 617"/>
<path style="--d:7s;" pathLength="3333" clip-path="url(#z21092c7)" d="M266 758L478 743"/>
<path style="--d:8s;" pathLength="3333" clip-path="url(#z21092c8)" d="M504 543L543 590L552 951"/>
<path style="--d:9s;" pathLength="3333" clip-path="url(#z21092c9)" d="M672 285L708 332L710 638"/>
<path style="--d:10s;" pathLength="3333" clip-path="url(#z21092c10)" d="M813 81L879 146L873 803L840 906L727 801"/>
</svg>