<!--
AnimCJK 2016-2018 Copyright Francois Mizessyn, https://github.com/parsimonhi/animCJK
Derived from:
    MakeMeAHanzi project - https://github.com/skishore/makemeahanzi
    Arphic PL KaitiM GB - https://apps.ubuntu.com/cat/applications/precise/fonts-arphic-gkai00mp/
    Arphic PL UKai - https://apps.ubuntu.com/cat/applications/fonts-arphic-ukai/
You can redistribute and/or modify this file under the terms of the Arphic Public License
as published by Arphic Technology Co., Ltd.
You should have received a copy of this license (the directory "APL") along with this file;
if not, see http://ftp.gnu.org/non-gnu/chinese-fonts-truetype/LICENSE.
-->
<svg id="z21129" class="acjk" version="1.1" viewBox="0 0 1024 1024" xmlns="http://www.w3.org/2000/svg" xmlns:xlink="http://www.w3.org/1999/xlink">
<style>
<![CDATA[
@keyframes z21129k {
	from {
		stroke:#c00;
		stroke-dashoffset:3334;
	}
	75% {
		stroke:#c00;
		stroke-dashoffset:0;
	}
	to {
		stroke:#000;
	}
}
#z21129 path[clip-path] {
	animation:z21129k 1s linear both;
	stroke-dasharray:3334;
	stroke-width:128;
	stroke-linecap:round;
	fill:none;
}
#z21129 path[clip-path="url(#z21129c1)"] {animation-delay:1s;}
#z21129 path[clip-path="url(#z21129c2)"] {animation-delay:2s;}
#z21129 path[clip-path="url(#z21129c3)"] {animation-delay:3s;}
#z21129 path[clip-path="url(#z21129c4)"] {animation-delay:4s;}
#z21129 path[clip-path="url(#z21129c5)"] {animation-delay:5s;}
#z21129 path[clip-path="url(#z21129c6)"] {animation-delay:6s;}
#z21129 path[clip-path="url(#z21129c7)"] {animation-delay:7s;}
#z21129 path[clip-path="url(#z21129c8)"] {animation-delay:8s;}
#z21129 path[clip-path="url(#z21129c9)"] {animation-delay:9s;}
#z21129 path[clip-path="url(#z21129c10)"] {animation-delay:10s;}
#z21129 path[clip-path="url(#z21129c11)"] {animation-delay:11s;}
#z21129 path[clip-path="url(#z21129c12)"] {animation-delay:12s;}
#z21129 path[clip-path="url(#z21129c13)"] {animation-delay:13s;}
#z21129 path[clip-path="url(#z21129c14)"] {animation-delay:14s;}
#z21129 path[clip-path="url(#z21129c15)"] {animation-delay:15s;}
#z21129 path {fill:#ccc;}
]]>
</style>
<path id="z21129d1" d="M222 214Q258 190 281 174Q336 129 357 122Q375 113 366 99Q354 86 333 73Q314 61 302 64Q292 65 295 76Q298 100 215 197L222 214 Z"/>
<path id="z21129d2" d="M337 269Q240 344 232 342Q226 339 225 325Q219 241 222 214L215 197Q193 179 178 176Q168 175 164 179Q157 185 166 194Q196 236 191 334Q191 358 181 373Q174 389 181 406Q191 430 206 437Q215 441 223 427Q251 385 346 283L337 269 Z"/>
<path id="z21129d3" d="M346 283Q353 295 365 299Q375 302 383 290Q387 280 383 263Q379 248 362 237Q337 216 326 211Q319 208 316 217Q313 223 337 269L346 283 Z"/>
<path id="z21129d4" d="M491 166Q531 153 565 145Q575 144 578 147Q585 156 582 181Q578 251 563 283Q550 307 530 304Q509 298 491 291Q472 285 486 303Q520 337 537 363Q550 378 563 365Q611 329 627 195Q631 161 643 144Q652 134 647 126Q640 119 600 103Q584 97 570 108Q524 138 413 154Q400 155 398 162Q397 168 416 176Q435 186 449 180Q456 176 467 174L491 166 Z"/>
<path id="z21129d5" d="M467 174Q476 225 385 339Q381 343 381 347Q381 350 385 350Q440 332 497 226Q506 210 511 202Q515 195 510 186Q500 173 491 166L467 174 Z"/>
<path id="z21129d6" d="M419 399Q426 390 425 384Q422 374 401 366Q377 357 367 359Q360 360 358 372Q328 477 84 654Q66 666 89 663Q176 659 331 498Q355 468 403 416L419 399 Z"/>
<path id="z21129d7" d="M403 416Q470 447 553 497Q568 507 579 507Q585 506 588 498Q594 486 577 460Q556 424 419 399L403 416 Z"/>
<path id="z21129d8" d="M397 554Q496 524 497 523Q504 516 499 509Q492 500 469 496Q448 493 373 522Q340 531 304 537Q276 544 298 556Q317 566 359 564L397 554 Z"/>
<path id="z21129d9" d="M418 646Q448 636 480 628Q516 616 521 611Q528 604 523 597Q516 588 493 584Q463 581 421 604L368 625Q362 626 360 627Q311 643 252 653Q224 660 245 672Q275 688 341 668Q354 664 369 661L418 646 Z"/>
<path id="z21129d10" d="M410 793Q414 711 418 646L421 604Q421 568 398 555L397 554L359 564Q368 591 368 625L369 661Q369 710 369 805L410 793 Z"/>
<path id="z21129d11" d="M247 748Q263 766 282 787Q292 797 305 797Q312 797 317 787Q321 777 316 753Q310 732 245 711Q233 708 228 709Q224 712 224 722Q227 731 247 748 Z"/>
<path id="z21129d12" d="M489 677Q477 702 450 742Q446 748 451 753Q457 754 463 749Q518 706 546 688Q559 684 555 675Q551 663 534 651Q518 638 501 638Q491 639 492 654Q495 664 489 677 Z"/>
<path id="z21129d13" d="M369 805Q308 820 243 837Q221 844 184 842Q171 843 169 853Q166 866 175 874Q197 890 229 911Q239 915 251 906Q299 875 511 795Q542 783 564 768Q577 761 578 752Q574 746 561 749Q491 771 410 793L369 805 Z"/>
<path id="z21129d14" d="M644 333Q674 397 652 572Q645 605 672 638Q682 648 690 638Q705 614 707 541Q707 394 712 361Q718 340 699 329Q659 307 648 313Q641 320 644 333 Z"/>
<path id="z21129d15" d="M812 205Q818 241 820 790Q819 812 807 822Q801 828 727 819Q691 809 695 820Q696 827 719 841Q786 887 805 916Q827 949 843 949Q858 950 871 913Q887 865 883 790Q864 553 869 315Q872 224 885 177Q901 146 844 122Q810 104 789 111Q770 118 788 142Q810 170 812 205 Z"/>
<defs>
	<clipPath id="z21129c1"><use xlink:href="#z21129d1"/></clipPath>
	<clipPath id="z21129c2"><use xlink:href="#z21129d2"/></clipPath>
	<clipPath id="z21129c3"><use xlink:href="#z21129d3"/></clipPath>
	<clipPath id="z21129c4"><use xlink:href="#z21129d4"/></clipPath>
	<clipPath id="z21129c5"><use xlink:href="#z21129d5"/></clipPath>
	<clipPath id="z21129c6"><use xlink:href="#z21129d6"/></clipPath>
	<clipPath id="z21129c7"><use xlink:href="#z21129d7"/></clipPath>
	<clipPath id="z21129c8"><use xlink:href="#z21129d8"/></clipPath>
	<clipPath id="z21129c9"><use xlink:href="#z21129d9"/></clipPath>
	<clipPath id="z21129c10"><use xlink:href="#z21129d10"/></clipPath>
	<clipPath id="z21129c11"><use xlink:href="#z21129d11"/></clipPath>
	<clipPath id="z21129c12"><use xlink:href="#z21129d12"/></clipPath>
	<clipPath id="z21129c13"><use xlink:href="#z21129d13"/></clipPath>
	<clipPath id="z21129c14"><use xlink:href="#z21129d14"/></clipPath>
	<clipPath id="z21129c15"><use xlink:href="#z21129d15"/></clipPath>
</defs>
<path pathLength="3333" clip-path="url(#z21129c1)" d="M363 108L313 102L222 204"/>
<path pathLength="3333" clip-path="url(#z21129c2)" d="M169 184L200 215L218 389L340 279"/>
<path pathLength="3333" clip-path="url(#z21129c3)" d="M324 216L369 294"/>
<path pathLength="3333" clip-path="url(#z21129c4)" d="M404 162L571 125L612 140L565 322L541 336L489 296"/>
<path pathLength="3333" clip-path="url(#z21129c5)" d="M491 175L458 261L390 344"/>
<path pathLength="3333" clip-path="url(#z21129c6)" d="M421 386L384 388L263 536L86 659"/>
<path pathLength="3333" clip-path="url(#z21129c7)" d="M413 409L585 495"/>
<path pathLength="3333" clip-path="url(#z21129c8)" d="M297 546L496 511"/>
<path pathLength="3333" clip-path="url(#z21129c9)" d="M247 664L521 600"/>
<path pathLength="3333" clip-path="url(#z21129c10)" d="M366 567L394 601L383 800"/>
<path pathLength="3333" clip-path="url(#z21129c11)" d="M233 717L305 793"/>
<path pathLength="3333" clip-path="url(#z21129c12)" d="M502 643L520 683L455 746"/>
<path pathLength="3333" clip-path="url(#z21129c13)" d="M175 856L235 876L573 754"/>
<path pathLength="3333" clip-path="url(#z21129c14)" d="M652 320L682 352L681 638"/>
<path pathLength="3333" clip-path="url(#z21129c15)" d="M786 116L849 177L851 816L826 899L703 820"/>
</svg>