<!--
AnimCJK 2016-2019 Copyright Francois Mizessyn - https://github.com/parsimonhi/animCJK
Derived from:
    MakeMeAHanzi project - https://github.com/skishore/makemeahanzi
    Arphic PL KaitiM GB font
    Arphic PL UKai font
You can redistribute and/or modify this file under the terms of the Arphic Public License
as published by Arphic Technology Co., Ltd.
You should have received a copy of this license along with this file.
If not, see http://ftp.gnu.org/non-gnu/chinese-fonts-truetype/LICENSE.
-->
<svg id="z21189" class="acjk" version="1.1" viewBox="0 0 1024 1024" xmlns="http://www.w3.org/2000/svg" xmlns:xlink="http://www.w3.org/1999/xlink">
<style>
<![CDATA[
@keyframes zk {
	to {
		stroke-dashoffset:0;
	}
}
svg.acjk path[clip-path] {
	--t:0.8s;
	animation:zk var(--t) linear forwards var(--d);
	stroke-dasharray:3337;
	stroke-dashoffset:3339;
	stroke-width:128;
	stroke-linecap:round;
	fill:none;
	stroke:#000;
}
svg.acjk path[id] {fill:#ccc;}
]]>
</style>
<path id="z21189d1" d="M353 250C429 233 468 219 471 218C476 213 477 208 475 203C471 195 459 190 442 186C428 182 400 189 359 202C326 212 326 212 309 217C283 224 214 236 172 242C149 245 145 254 163 263C205 283 248 271 310 259C339 253 339 253 353 250Z"/>
<path id="z21189d2" d="M189 369C182 366 168 363 149 360C140 358 137 359 135 363C131 367 132 373 138 384C155 414 170 456 182 510C185 526 190 540 200 550C212 562 219 564 222 555C223 548 226 540 225 531C222 511 222 511 221 501C218 480 204 412 203 396C201 386 198 373 189 369Z"/>
<path id="z21189d3" d="M466 459C480 411 496 380 513 365C522 355 524 342 514 334C471 299 431 298 396 316C381 323 365 328 350 333C324 340 324 340 311 344C270 355 229 362 189 369C179 371 193 398 203 396C209 395 217 393 226 391C253 383 282 377 311 371C337 365 337 365 350 362C395 351 422 344 432 352C440 359 437 393 425 452C422 466 463 473 466 459Z"/>
<path id="z21189d4" d="M349 508C383 501 426 494 478 489C484 488 488 485 488 479C488 474 480 467 466 459C454 452 439 450 425 452C417 452 392 462 349 473C323 479 323 479 310 482C279 489 249 495 221 501C211 503 215 531 225 531C229 531 234 531 240 530C254 526 273 522 295 518C331 511 331 511 349 508Z"/>
<path id="z21189d5" d="M307 591Q307 714 283 804Q273 838 297 899Q304 915 311 919Q317 925 324 918Q331 914 341 893Q350 871 349 841Q348 801 349 508C349 485 349 485 349 473Q349 421 350 362C350 343 350 343 350 333Q350 314 353 250C357 218 357 218 359 202Q362 177 369 155Q378 142 374 128Q368 119 315 87Q293 71 274 86Q270 90 275 105Q308 154 309 217C310 245 310 245 310 259Q310 299 311 344C311 362 311 362 311 371Q310 425 310 482C308 555 308 555 307 591Z"/>
<path id="z21189d6" d="M295 518C257 592 184 685 80 799C74 804 76 808 84 810C97 812 140 779 211 712C243 681 275 641 307 591C341 535 324 459 295 518Z"/>
<path id="z21189d7" d="M392 599C408 613 425 628 442 645C448 651 456 654 465 654C471 653 474 650 477 643C479 636 478 625 474 609C471 598 461 587 444 580C406 563 381 556 372 561C368 562 367 568 369 575C370 579 378 587 392 599Z"/>
<path id="z21189d8" d="M641 391C586 402 563 407 531 407C518 407 511 410 511 416C510 423 517 430 532 440C550 451 566 454 584 449C605 442 610 436 635 431C674 422 674 422 694 418C726 410 757 403 790 401C800 400 806 402 809 407C813 417 814 437 813 465C805 568 791 646 774 702C762 736 753 759 743 769C734 778 721 779 705 775C685 770 666 764 648 759C632 754 628 760 641 774C668 806 692 834 707 859C714 872 721 877 736 874C747 871 761 862 778 845C823 796 853 685 869 509C872 469 881 437 897 414C906 399 910 388 904 381C893 368 875 357 852 347C833 339 816 338 798 346C769 358 736 371 699 379C660 387 660 387 641 391Z"/>
<path id="z21189d9" d="M635 431C615 561 589 673 516 769C491 801 472 826 425 859C411 868 381 882 369 892C359 900 378 906 390 907C402 907 423 899 450 885C506 855 541 822 577 771C607 727 623 691 643 641C651 619 680 527 694 418C697 392 697 392 699 379C704 337 705 284 716 221C719 197 724 174 734 152C740 138 736 127 723 120C680 94 650 85 630 95C619 99 615 108 623 120C652 166 656 288 641 391C637 418 637 418 635 431Z"/>
<defs>
	<clipPath id="z21189c1"><use xlink:href="#z21189d1"/></clipPath>
	<clipPath id="z21189c2"><use xlink:href="#z21189d2"/></clipPath>
	<clipPath id="z21189c3"><use xlink:href="#z21189d3"/></clipPath>
	<clipPath id="z21189c4"><use xlink:href="#z21189d4"/></clipPath>
	<clipPath id="z21189c5"><use xlink:href="#z21189d5"/></clipPath>
	<clipPath id="z21189c6"><use xlink:href="#z21189d6"/></clipPath>
	<clipPath id="z21189c7"><use xlink:href="#z21189d7"/></clipPath>
	<clipPath id="z21189c8"><use xlink:href="#z21189d8"/></clipPath>
	<clipPath id="z21189c9"><use xlink:href="#z21189d9"/></clipPath>
</defs>
<path style="--d:1s;" pathLength="3333" clip-path="url(#z21189c1)" d="M161 250L472 206"/>
<path style="--d:2s;" pathLength="3333" clip-path="url(#z21189c2)" d="M140 363L178 409L211 556"/>
<path style="--d:3s;" pathLength="3333" clip-path="url(#z21189c3)" d="M198 370L437 327L478 357L444 454"/>
<path style="--d:4s;" pathLength="3333" clip-path="url(#z21189c4)" d="M232 523L403 477L483 479"/>
<path style="--d:5s;" pathLength="3333" clip-path="url(#z21189c5)" d="M279 90L337 142L314 916"/>
<path style="--d:6s;" pathLength="3333" clip-path="url(#z21189c6)" d="M303 524L238 649L84 802"/>
<path style="--d:7s;" pathLength="3333" clip-path="url(#z21189c7)" d="M378 570L443 609L466 650"/>
<path style="--d:8s;" pathLength="3333" clip-path="url(#z21189c8)" d="M516 416L582 426L808 372L858 402L818 661L775 788L716 824L643 765"/>
<path style="--d:9s;" pathLength="3333" clip-path="url(#z21189c9)" d="M625 102L690 154L626 601L534 784L439 871L376 895"/>
</svg>