<!--
AnimCJK 2016-2019 Copyright Francois Mizessyn - https://github.com/parsimonhi/animCJK
Derived from:
    MakeMeAHanzi project - https://github.com/skishore/makemeahanzi
    Arphic PL KaitiM GB font
    Arphic PL UKai font
You can redistribute and/or modify this file under the terms of the Arphic Public License
as published by Arphic Technology Co., Ltd.
You should have received a copy of this license along with this file.
If not, see http://ftp.gnu.org/non-gnu/chinese-fonts-truetype/LICENSE.
-->
<svg id="z21242" class="acjk" version="1.1" viewBox="0 0 1024 1024" xmlns="http://www.w3.org/2000/svg" xmlns:xlink="http://www.w3.org/1999/xlink">
<style>
<![CDATA[
@keyframes zk {
	to {
		stroke-dashoffset:0;
	}
}
svg.acjk path[clip-path] {
	--t:0.8s;
	animation:zk var(--t) linear forwards var(--d);
	stroke-dasharray:3337;
	stroke-dashoffset:3339;
	stroke-width:128;
	stroke-linecap:round;
	fill:none;
	stroke:#000;
}
svg.acjk path[id] {fill:#ccc;}
]]>
</style>
<path id="z21242d1" d="M377 323Q407 281 429 238Q462 174 493 123Q505 107 487 92Q436 55 406 60Q393 64 397 81Q418 202 284 369Q241 411 213 450Q204 468 221 462Q269 450 356 350C370 332 370 332 377 323Z"/>
<path id="z21242d2" d="M356 350Q395 365 425 356Q467 340 660 300Q693 294 706 308Q725 332 722 384Q718 549 698 655Q662 820 628 837Q619 840 516 811Q501 804 498 811Q494 818 512 833Q564 879 591 922Q610 953 629 949Q645 946 669 918Q702 881 728 808Q756 721 786 432Q793 357 814 333Q833 311 809 292Q734 241 694 253Q538 299 377 323C366 325 345 346 356 350Z"/>
<path id="z21242d3" d="M349 536Q374 570 400 609Q410 627 428 630Q440 631 449 619Q458 604 455 570Q452 531 356 483Q340 476 333 477Q326 480 325 494Q326 507 349 536Z"/>
<defs>
	<clipPath id="z21242c1"><use xlink:href="#z21242d1"/></clipPath>
	<clipPath id="z21242c2"><use xlink:href="#z21242d2"/></clipPath>
	<clipPath id="z21242c3"><use xlink:href="#z21242d3"/></clipPath>
</defs>
<path style="--d:1s;" pathLength="3333" clip-path="url(#z21242c1)" d="M404 64L448 113L412 210L335 340L217 455"/>
<path style="--d:2s;" pathLength="3333" clip-path="url(#z21242c2)" d="M363 347L692 275L770 325L723 685L678 835L619 895L502 816"/>
<path style="--d:3s;" pathLength="3333" clip-path="url(#z21242c3)" d="M335 485L418 571L436 626"/>
</svg>