<!--
AnimCJK 2016-2019 Copyright Francois Mizessyn - https://github.com/parsimonhi/animCJK
Derived from:
    MakeMeAHanzi project - https://github.com/skishore/makemeahanzi
    Arphic PL KaitiM GB font
    Arphic PL UKai font
You can redistribute and/or modify this file under the terms of the Arphic Public License
as published by Arphic Technology Co., Ltd.
You should have received a copy of this license along with this file.
If not, see http://ftp.gnu.org/non-gnu/chinese-fonts-truetype/LICENSE.
-->
<svg id="z21269" class="acjk" version="1.1" viewBox="0 0 1024 1024" xmlns="http://www.w3.org/2000/svg" xmlns:xlink="http://www.w3.org/1999/xlink">
<style>
<![CDATA[
@keyframes zk {
	to {
		stroke-dashoffset:0;
	}
}
svg.acjk path[clip-path] {
	--t:0.8s;
	animation:zk var(--t) linear forwards var(--d);
	stroke-dasharray:3337;
	stroke-dashoffset:3339;
	stroke-width:128;
	stroke-linecap:round;
	fill:none;
	stroke:#000;
}
svg.acjk path[id] {fill:#ccc;}
]]>
</style>
<path id="z21269d1" d="M346 540C452 511 569 450 693 353C707 341 724 330 743 321C754 315 759 307 756 300C752 292 743 285 728 278C693 262 666 257 647 259C638 259 636 264 636 275C632 329 539 408 362 511C356 514 351 515 347 519C341 523 339 541 346 540Z"/>
<path id="z21269d2" d="M900 777C883 732 875 670 867 592C865 579 862 569 857 564C851 558 846 562 844 574C834 620 824 661 816 698C810 722 798 740 779 758C744 788 658 808 515 804C458 802 421 790 401 779C383 768 367 752 357 730C344 701 341 638 346 540C346 533 344 597 347 519C351 402 357 324 369 286C373 270 367 255 345 240C327 227 309 218 295 210C281 202 269 201 257 209C248 214 251 225 267 246C285 270 293 299 295 333C296 373 299 453 296 574C292 686 297 744 330 789C335 797 348 812 386 831C436 855 531 865 669 860C749 857 817 839 877 815C900 805 907 796 900 777Z"/>
<defs>
	<clipPath id="z21269c1"><use xlink:href="#z21269d1"/></clipPath>
	<clipPath id="z21269c2"><use xlink:href="#z21269d2"/></clipPath>
</defs>
<path style="--d:1s;" pathLength="3333" clip-path="url(#z21269c1)" d="M646 266L693 315L526 436L352 532"/>
<path style="--d:2s;" pathLength="3333" clip-path="url(#z21269c2)" d="M258 212L329 280L323 701L345 764L392 805L615 832L796 798L859 763L851 570"/>
</svg>