<!--
AnimCJK 2016-2018 Copyright Francois Mizessyn, https://github.com/parsimonhi/animCJK
Derived from:
    MakeMeAHanzi project - https://github.com/skishore/makemeahanzi
    Arphic PL KaitiM GB - https://apps.ubuntu.com/cat/applications/precise/fonts-arphic-gkai00mp/
    Arphic PL UKai - https://apps.ubuntu.com/cat/applications/fonts-arphic-ukai/
You can redistribute and/or modify this file under the terms of the Arphic Public License
as published by Arphic Technology Co., Ltd.
You should have received a copy of this license (the directory "APL") along with this file;
if not, see http://ftp.gnu.org/non-gnu/chinese-fonts-truetype/LICENSE.
-->
<svg id="z21271" class="acjk" version="1.1" viewBox="0 0 1024 1024" xmlns="http://www.w3.org/2000/svg" xmlns:xlink="http://www.w3.org/1999/xlink">
<style>
<![CDATA[
@keyframes z21271k {
	from {
		stroke:#c00;
		stroke-dashoffset:3334;
	}
	75% {
		stroke:#c00;
		stroke-dashoffset:0;
	}
	to {
		stroke:#000;
	}
}
#z21271 path[clip-path] {
	animation:z21271k 1s linear both;
	stroke-dasharray:3334;
	stroke-width:128;
	stroke-linecap:round;
	fill:none;
}
#z21271 path[clip-path="url(#z21271c1)"] {animation-delay:1s;}
#z21271 path[clip-path="url(#z21271c2)"] {animation-delay:2s;}
#z21271 path[clip-path="url(#z21271c3)"] {animation-delay:3s;}
#z21271 path[clip-path="url(#z21271c4)"] {animation-delay:4s;}
#z21271 path[clip-path="url(#z21271c5)"] {animation-delay:5s;}
#z21271 path {fill:#ccc;}
]]>
</style>
<path id="z21271d1" d="M361 434Q345 430 331 434Q208 464 163 469Q150 470 148 479Q145 489 161 500Q200 525 241 510Q302 485 361 474L361 434 Z"/>
<path id="z21271d2" d="M343 741Q343 753 361 792Q368 808 375 811Q381 817 388 810Q395 806 405 785Q408 776 412 676Q406 322 426 255Q433 240 431 228Q424 218 371 187Q349 171 330 186Q326 190 331 206Q352 234 358 315Q361 378 361 434L361 474Q361 651 344 703L343 741 Z"/>
<path id="z21271d3" d="M344 703Q263 727 169 752Q154 756 129 755Q116 756 113 769Q112 784 122 792Q147 810 185 830Q197 833 210 823Q244 792 343 741L344 703 Z"/>
<path id="z21271d4" d="M597 516Q772 428 828 411Q837 408 848 406Q876 399 867 376Q857 354 829 330Q804 308 788 308Q773 307 775 324Q772 366 680 429Q640 457 598 489L597 516 Z"/>
<path id="z21271d5" d="M942 818Q961 800 940 765Q916 702 908 621Q908 609 899 600Q887 594 884 620Q877 650 867 699Q860 747 846 766Q840 779 815 784Q776 794 722 790Q682 789 656 778Q619 763 607 719Q595 680 597 516L598 489Q598 330 626 218Q632 188 638 181Q648 156 627 141Q596 113 554 103Q533 99 524 108Q515 118 523 129Q548 150 549 229Q534 638 555 731Q570 786 611 818Q680 869 846 856Q862 853 878 850Q923 837 942 818 Z"/>
<defs>
	<clipPath id="z21271c1"><use xlink:href="#z21271d1"/></clipPath>
	<clipPath id="z21271c2"><use xlink:href="#z21271d2"/></clipPath>
	<clipPath id="z21271c3"><use xlink:href="#z21271d3"/></clipPath>
	<clipPath id="z21271c4"><use xlink:href="#z21271d4"/></clipPath>
	<clipPath id="z21271c5"><use xlink:href="#z21271d5"/></clipPath>
</defs>
<path pathLength="3333" clip-path="url(#z21271c1)" d="M155 481L225 486L359 445"/>
<path pathLength="3333" clip-path="url(#z21271c2)" d="M335 192L390 246L378 807"/>
<path pathLength="3333" clip-path="url(#z21271c3)" d="M118 771L186 790L338 712"/>
<path pathLength="3333" clip-path="url(#z21271c4)" d="M786 314L810 382L603 508"/>
<path pathLength="3333" clip-path="url(#z21271c5)" d="M527 115L593 174L570 613L597 764L692 819L881 802L902 778L896 603"/>
</svg>