<!--
AnimCJK 2016-2026 Copyright FM-SH - https://github.com/parsimonhi/animCJK
Derived from:
    MakeMeAHanzi project - https://github.com/skishore/makemeahanzi
    Arphic PL KaitiM GB font
    Arphic PL KaitiM Big5 font
You can redistribute and/or modify this file under the terms of the Arphic Public License
as published by Arphic Technology Co., Ltd.
You should have received a copy of this license along with this file.
If not, see https://ftp.gnu.org/non-gnu/chinese-fonts-truetype/LICENSE.
-->
<svg id="z21426" class="acjk" viewBox="0 0 1024 1024" xmlns="http://www.w3.org/2000/svg">
<style>
<![CDATA[
@keyframes zk {
	to {
		stroke-dashoffset:0;
	}
}
svg.acjk path[clip-path] {
	--t:0.8s;
	animation:zk var(--t) linear forwards var(--d);
	stroke-dasharray:3337;
	stroke-dashoffset:3339;
	stroke-width:128;
	stroke-linecap:round;
	fill:none;
	stroke:#000;
}
svg.acjk path[id] {fill:#ccc;}
]]>
</style>
<path id="z21426d1" d="M332 164Q375 174 427 167Q715 124 756 111Q762 108 765 107Q774 100 770 92Q764 79 736 71Q708 64 606 93Q444 126 324 134C314 134 322 162 332 164Z"/>
<path id="z21426d2" d="M324 134Q276 95 250 103Q238 110 245 124Q267 163 264 221Q246 474 200 601Q157 715 63 861Q57 868 56 874Q53 884 64 883Q97 877 184 741Q202 710 221 673Q290 517 317 256Q318 177 332 164C337 155 332 140 324 134Z"/>
<path id="z21426d3" d="M648 277C656 277 692 272 779 274C800 275 808 259 789 244C746 210 701 224 668 231C631 240 631 240 612 245C584 251 516 264 484 269C457 273 457 273 444 275C426 278 390 284 343 292C328 294 324 303 336 311C382 340 401 321 451 310C475 305 475 305 487 302C502 299 581 285 605 282C634 279 634 279 648 277Z"/>
<path id="z21426d4" d="M484 269C481 229 485 220 466 213C443 204 426 198 414 204C403 209 404 217 413 228C427 244 440 259 444 275C449 298 449 298 451 310C457 340 463 350 473 358C478 362 484 363 487 356C489 350 490 335 487 302C485 280 485 280 484 269Z"/>
<path id="z21426d5" d="M668 231C675 216 694 195 686 185C677 176 665 168 645 157C634 152 626 152 616 158C610 162 610 164 614 172C620 183 621 203 612 245C607 270 607 270 605 282C599 310 597 325 599 336C599 342 604 343 613 337C622 329 631 312 648 277C661 246 661 246 668 231Z"/>
<path id="z21426d6" d="M410 397Q400 391 370 389Q360 386 356 391Q352 397 360 411Q388 463 409 548Q413 573 429 591Q445 609 450 595C451 587 451 587 452 583C451 568 451 568 451 560Q450 550 447 538Q428 459 423 428C421 417 420 401 410 397Z"/>
<path id="z21426d7" d="M656 561Q671 583 685 590Q695 597 709 578Q719 562 745 469Q754 441 776 417Q789 407 778 393Q765 377 724 352Q709 345 636 359Q627 360 619 362Q514 375 410 397C399 399 412 430 423 428Q460 418 513 409C538 405 538 405 550 403Q670 382 688 396Q698 403 695 418Q677 526 661 534C655 540 651 554 656 561Z"/>
<path id="z21426d8" d="M581 490Q612 484 641 480Q660 477 653 466Q644 454 623 451Q607 448 583 455C548 465 548 465 531 470Q500 477 474 486Q461 489 477 501Q480 504 532 499C565 493 565 493 581 490Z"/>
<path id="z21426d9" d="M578 570Q618 563 656 561C665 561 669 539 661 534Q637 516 579 535C548 542 548 542 532 545Q489 552 451 560C443 562 444 583 452 583Q458 584 471 583Q502 579 532 576C563 572 563 572 578 570Z"/>
<path id="z21426d10" d="M325 661Q310 646 288 643Q282 639 278 646Q274 652 278 665Q308 723 295 855Q291 877 300 896Q312 915 328 927Q341 936 344 925Q351 921 352 901Q356 885 352 833Q346 740 349 703C349 687 338 671 325 661Z"/>
<path id="z21426d11" d="M575 658C635 649 699 637 776 637C792 636 812 647 810 675C798 785 799 848 791 864C788 868 784 869 777 868C756 863 735 856 713 851C693 845 688 852 703 866C746 907 779 941 798 970C804 980 813 982 822 975C843 955 857 901 864 814C869 741 876 695 889 678C899 663 902 654 899 649C893 640 874 625 840 601C827 591 811 590 788 597C776 600 705 613 576 628C547 631 547 631 532 633C490 637 406 649 325 661C309 664 333 706 349 703C419 684 494 669 532 664C561 660 561 660 575 658Z"/>
<path id="z21426d12" d="M573 762C573 723 573 691 575 658C576 638 576 638 576 628C576 609 577 587 578 570C579 547 579 547 579 535C579 518 580 503 581 490C582 467 582 467 583 455C584 425 588 420 550 403C538 398 507 398 513 409C514 410 514 410 514 410C524 432 530 451 531 470C532 489 532 489 532 499C532 514 532 529 532 545C532 566 532 566 532 576C532 614 532 614 532 633C532 654 532 654 532 664C532 735 532 735 532 771C532 785 573 776 573 762Z"/>
<path id="z21426d13" d="M652 744Q612 753 573 762C546 768 546 768 532 771Q427 789 408 788Q398 789 395 798Q392 808 400 816Q419 832 446 850Q455 854 465 847Q492 829 641 773Q654 767 665 762C672 759 659 743 652 744Z"/>
<path id="z21426d14" d="M665 762Q695 810 707 814Q714 815 721 807Q728 797 728 773Q728 755 706 735Q651 695 640 698Q636 699 634 709Q635 719 650 740Q651 741 652 744C661 756 661 756 665 762Z"/>
<defs>
	<clipPath id="z21426c1"><use href="#z21426d1"/></clipPath>
	<clipPath id="z21426c2"><use href="#z21426d2"/></clipPath>
	<clipPath id="z21426c3"><use href="#z21426d3"/></clipPath>
	<clipPath id="z21426c4"><use href="#z21426d4"/></clipPath>
	<clipPath id="z21426c5"><use href="#z21426d5"/></clipPath>
	<clipPath id="z21426c6"><use href="#z21426d6"/></clipPath>
	<clipPath id="z21426c7"><use href="#z21426d7"/></clipPath>
	<clipPath id="z21426c8"><use href="#z21426d8"/></clipPath>
	<clipPath id="z21426c9"><use href="#z21426d9"/></clipPath>
	<clipPath id="z21426c10"><use href="#z21426d10"/></clipPath>
	<clipPath id="z21426c11"><use href="#z21426d11"/></clipPath>
	<clipPath id="z21426c12"><use href="#z21426d12"/></clipPath>
	<clipPath id="z21426c13"><use href="#z21426d13"/></clipPath>
	<clipPath id="z21426c14"><use href="#z21426d14"/></clipPath>
</defs>
<path style="--d:1s;" pathLength="3333" clip-path="url(#z21426c1)" d="M324 142L396 149L765 94"/>
<path style="--d:2s;" pathLength="3333" clip-path="url(#z21426c2)" d="M249 107L297 164L245 533L181 701L63 876"/>
<path style="--d:3s;" pathLength="3333" clip-path="url(#z21426c3)" d="M337 302L708 248L793 259"/>
<path style="--d:4s;" pathLength="3333" clip-path="url(#z21426c4)" d="M411 212L456 240L480 355"/>
<path style="--d:5s;" pathLength="3333" clip-path="url(#z21426c5)" d="M618 165L652 203L607 335"/>
<path style="--d:6s;" pathLength="3333" clip-path="url(#z21426c6)" d="M362 396L395 421L440 595"/>
<path style="--d:7s;" pathLength="3333" clip-path="url(#z21426c7)" d="M410 406L718 382L738 415L676 583"/>
<path style="--d:8s;" pathLength="3333" clip-path="url(#z21426c8)" d="M473 491L649 471"/>
<path style="--d:9s;" pathLength="3333" clip-path="url(#z21426c9)" d="M448 573L662 545"/>
<path style="--d:10s;" pathLength="3333" clip-path="url(#z21426c10)" d="M283 646L320 703L327 924"/>
<path style="--d:11s;" pathLength="3333" clip-path="url(#z21426c11)" d="M327 671L818 621L855 662L815 904L792 926L702 853"/>
<path style="--d:12s;" pathLength="3333" clip-path="url(#z21426c12)" d="M518 405L555 437L555 774"/>
<path style="--d:13s;" pathLength="3333" clip-path="url(#z21426c13)" d="M398 801L456 817L660 752"/>
<path style="--d:14s;" pathLength="3333" clip-path="url(#z21426c14)" d="M642 702L718 807"/>
</svg>