<!--
AnimCJK 2016-2019 Copyright Francois Mizessyn - https://github.com/parsimonhi/animCJK
Derived from:
    MakeMeAHanzi project - https://github.com/skishore/makemeahanzi
    Arphic PL KaitiM GB font
    Arphic PL UKai font
You can redistribute and/or modify this file under the terms of the Arphic Public License
as published by Arphic Technology Co., Ltd.
You should have received a copy of this license along with this file.
If not, see http://ftp.gnu.org/non-gnu/chinese-fonts-truetype/LICENSE.
-->
<svg id="z21454" class="acjk" version="1.1" viewBox="0 0 1024 1024" xmlns="http://www.w3.org/2000/svg" xmlns:xlink="http://www.w3.org/1999/xlink">
<style>
<![CDATA[
@keyframes zk {
	to {
		stroke-dashoffset:0;
	}
}
svg.acjk path[clip-path] {
	--t:0.8s;
	animation:zk var(--t) linear forwards var(--d);
	stroke-dasharray:3337;
	stroke-dashoffset:3339;
	stroke-width:128;
	stroke-linecap:round;
	fill:none;
	stroke:#000;
}
svg.acjk path[id] {fill:#ccc;}
]]>
</style>
<path id="z21454d1" d="M314 795Q304 832 328 894Q335 912 342 915Q349 922 356 914Q383 890 382 834Q381 786 388 346Q389 255 406 194Q415 179 411 166Q405 156 350 123Q328 107 307 121Q303 127 309 141Q339 186 340 251Q340 482 339 538C338 551 338 551 338 558Q337 604 337 656Q333 729 314 795Z"/>
<path id="z21454d2" d="M339 538Q306 551 234 592Q224 596 221 594Q217 591 218 580Q224 381 227 360Q231 344 220 336Q210 326 171 314Q155 311 150 316Q144 322 154 338Q190 392 174 540Q165 598 126 644Q114 654 121 674Q128 699 141 712Q151 721 164 707Q207 656 338 558C343 554 345 536 339 538Z"/>
<path id="z21454d3" d="M699 667Q771 562 806 437Q817 391 849 360Q869 341 850 327Q825 312 794 305Q765 296 738 313Q708 323 654 340Q593 354 531 360Q511 359 507 365Q503 379 528 395Q557 415 626 391Q722 356 734 358Q750 358 750 380Q727 522 663 626C645 651 645 651 636 663Q573 742 434 825Q419 832 428 839Q434 842 458 831Q598 780 666 709C688 681 688 681 699 667Z"/>
<path id="z21454d4" d="M666 709Q756 839 798 847Q887 861 960 861Q999 861 997 850Q996 846 825 764Q762 730 699 667C675 640 675 640 663 626Q622 577 582 522Q553 478 517 473Q500 469 496 474Q493 481 507 493Q554 532 636 663C656 694 656 694 666 709Z"/>
<defs>
	<clipPath id="z21454c1"><use xlink:href="#z21454d1"/></clipPath>
	<clipPath id="z21454c2"><use xlink:href="#z21454d2"/></clipPath>
	<clipPath id="z21454c3"><use xlink:href="#z21454d3"/></clipPath>
	<clipPath id="z21454c4"><use xlink:href="#z21454d4"/></clipPath>
</defs>
<path style="--d:1s;" pathLength="3333" clip-path="url(#z21454c1)" d="M312 123L373 184L353 910"/>
<path style="--d:2s;" pathLength="3333" clip-path="url(#z21454c2)" d="M158 324L197 355L200 392L169 662L335 548"/>
<path style="--d:3s;" pathLength="3333" clip-path="url(#z21454c3)" d="M511 371L577 379L758 333L807 356L732 553L659 676L567 759L432 833"/>
<path style="--d:4s;" pathLength="3333" clip-path="url(#z21454c4)" d="M504 479L785 790L989 849"/>
</svg>