<!--
AnimCJK 2016-2017 Copyright Francois Mizessyn, http://gooo.free.fr/animCJK/
Derived from:
    MakeMeAHanzi project - https://github.com/skishore/makemeahanzi
    Arphic PL KaitiM GB - https://apps.ubuntu.com/cat/applications/precise/fonts-arphic-gkai00mp/
    Arphic PL UKai - https://apps.ubuntu.com/cat/applications/fonts-arphic-ukai/
You can redistribute and/or modify this file under the terms of the Arphic Public License
as published by Arphic Technology Co., Ltd.
You should have received a copy of this license (the directory "APL") along with this file;
if not, see http://ftp.gnu.org/non-gnu/chinese-fonts-truetype/LICENSE.
-->
<svg id="z21460" class="acjk" version="1.1" viewBox="0 0 1024 1024" xmlns="http://www.w3.org/2000/svg" xmlns:xlink="http://www.w3.org/1999/xlink">
<style>
<![CDATA[
	@keyframes z21460k {
		from {
			stroke:#c00;
			stroke-dashoffset:3000;
		}
		75% {
			stroke:#c00;
			stroke-dashoffset:0;
		}
		to {
			stroke:#000;
		}
	}
	#z21460 path[clip-path] {
		animation:z21460k 1s linear both;
		stroke-dasharray:3000;
		stroke-width:128;
		stroke-linecap:round;
		fill:none;
	}
	#z21460 path[clip-path="url(#z21460c1)"] {animation-delay:1s;}
	#z21460 path[clip-path="url(#z21460c2)"] {animation-delay:2s;}
	#z21460 path[clip-path="url(#z21460c3)"] {animation-delay:3s;}
	#z21460 path[clip-path="url(#z21460c4)"] {animation-delay:4s;}
	#z21460 path[clip-path="url(#z21460c5)"] {animation-delay:5s;}
	#z21460 path[clip-path="url(#z21460c6)"] {animation-delay:6s;}
	#z21460 path[clip-path="url(#z21460c7)"] {animation-delay:7s;}
	#z21460 path[clip-path="url(#z21460c8)"] {animation-delay:8s;}
	#z21460 path {fill:#ccc;}
]]>
</style>
<g transform="scale(1,-1) translate(0,-900)">
	<path id="z21460d1" d="M374 458Q378 539 383 615L384 644Q387 710 401 765Q405 777 383 792Q346 811 321 814Q305 818 296 809Q289 800 297 785Q319 757 320 735Q332 602 330 447L374 458Z"/>
	<path id="z21460d2" d="M383 615Q428 609 491 628Q555 649 559 651Q566 661 561 669Q552 679 521 683Q497 684 428 655Q407 651 384 644L383 615Z"/>
	<path id="z21460d3" d="M355 409Q421 425 504 436Q522 439 522 447Q523 460 504 471Q474 483 450 477Q408 467 374 458L330 447Q144 408 61 398Q48 397 44 388Q41 376 58 364Q101 334 145 350Q242 383 307 399Q308 400 314 400L355 409Z"/>
	<path id="z21460d4" d="M314 400Q326 364 325 253Q326 138 315 110Q311 97 285 100Q261 104 236 107Q224 107 223 101Q222 94 233 85Q294 36 315 5Q330 -8 340 -6Q352 -2 363 33Q379 67 377 130Q377 278 381 332Q390 374 371 395Q362 404 355 409L314 400Z"/>
	<path id="z21460d5" d="M178 279Q156 230 124 187Q103 154 120 118Q127 99 150 111Q202 147 203 219Q210 253 203 279Q197 288 191 289Q182 288 178 279Z"/>
	<path id="z21460d6" d="M431 291Q482 218 507 214Q522 213 530 231Q533 244 524 266Q506 300 437 319Q427 322 426 309Q425 302 431 291Z"/>
	<path id="z21460d7" d="M724 232Q772 314 815 457Q825 488 844 508Q863 524 848 538Q835 550 801 559Q776 565 749 548Q716 535 673 521Q628 508 555 499Q540 498 536 490Q532 483 551 475Q588 462 640 478Q716 505 731 504Q759 504 755 474Q731 342 687 271L660 229Q588 144 471 100Q458 94 470 88Q477 81 520 85Q613 94 691 187L724 232Z"/>
	<path id="z21460d8" d="M691 187Q727 139 780 82Q808 55 852 59Q910 63 954 65Q967 66 981 71Q988 77 978 87Q963 97 845 147Q788 168 724 232L687 271Q644 320 598 384Q580 409 548 418Q536 422 526 416Q520 409 529 401Q536 394 543 389Q567 374 649 245Q653 238 660 229L691 187Z"/>
	<defs>
		<clipPath id="z21460c1"><use xlink:href="#z21460d1"/></clipPath>
		<clipPath id="z21460c2"><use xlink:href="#z21460d2"/></clipPath>
		<clipPath id="z21460c3"><use xlink:href="#z21460d3"/></clipPath>
		<clipPath id="z21460c4"><use xlink:href="#z21460d4"/></clipPath>
		<clipPath id="z21460c5"><use xlink:href="#z21460d5"/></clipPath>
		<clipPath id="z21460c6"><use xlink:href="#z21460d6"/></clipPath>
		<clipPath id="z21460c7"><use xlink:href="#z21460d7"/></clipPath>
		<clipPath id="z21460c8"><use xlink:href="#z21460d8"/></clipPath>
	</defs>
	<path pathLength="2999" clip-path="url(#z21460c1)" d="M300 808L359 758L341 451"/>
	<path pathLength="2999" clip-path="url(#z21460c2)" d="M387 622L559 662"/>
	<path pathLength="2999" clip-path="url(#z21460c3)" d="M49 387L112 375L517 453"/>
	<path pathLength="2999" clip-path="url(#z21460c4)" d="M321 394L353 353L339 75L318 45L231 101"/>
	<path pathLength="2999" clip-path="url(#z21460c5)" d="M192 284L127 113"/>
	<path pathLength="2999" clip-path="url(#z21460c6)" d="M433 310L520 223"/>
	<path pathLength="2999" clip-path="url(#z21460c7)" d="M541 487L765 528L804 503L675 207L582 128L471 95"/>
	<path pathLength="2999" clip-path="url(#z21460c8)" d="M530 411L803 118L977 81"/>
</g>
</svg>