<!--
AnimCJK 2016-2017 Copyright Francois Mizessyn, http://gooo.free.fr/animCJK/
Derived from:
    MakeMeAHanzi project - https://github.com/skishore/makemeahanzi
    Arphic PL KaitiM GB - https://apps.ubuntu.com/cat/applications/precise/fonts-arphic-gkai00mp/
    Arphic PL UKai - https://apps.ubuntu.com/cat/applications/fonts-arphic-ukai/
You can redistribute and/or modify this file under the terms of the Arphic Public License
as published by Arphic Technology Co., Ltd.
You should have received a copy of this license (the directory "APL") along with this file;
if not, see http://ftp.gnu.org/non-gnu/chinese-fonts-truetype/LICENSE.
-->
<svg id="z21462" class="acjk" version="1.1" viewBox="0 0 1024 1024" xmlns="http://www.w3.org/2000/svg" xmlns:xlink="http://www.w3.org/1999/xlink">
<style>
<![CDATA[
	@keyframes z21462k {
		from {
			stroke:#c00;
			stroke-dashoffset:3000;
		}
		75% {
			stroke:#c00;
			stroke-dashoffset:0;
		}
		to {
			stroke:#000;
		}
	}
	#z21462 path[clip-path] {
		animation:z21462k 1s linear both;
		stroke-dasharray:3000;
		stroke-width:128;
		stroke-linecap:round;
		fill:none;
	}
	#z21462 path[clip-path="url(#z21462c1)"] {animation-delay:1s;}
	#z21462 path[clip-path="url(#z21462c2)"] {animation-delay:2s;}
	#z21462 path[clip-path="url(#z21462c3)"] {animation-delay:3s;}
	#z21462 path[clip-path="url(#z21462c4)"] {animation-delay:4s;}
	#z21462 path[clip-path="url(#z21462c5)"] {animation-delay:5s;}
	#z21462 path[clip-path="url(#z21462c6)"] {animation-delay:6s;}
	#z21462 path[clip-path="url(#z21462c7)"] {animation-delay:7s;}
	#z21462 path[clip-path="url(#z21462c8)"] {animation-delay:8s;}
	#z21462 path {fill:#ccc;}
]]>
</style>
<g transform="scale(1,-1) translate(0,-900)">
	<path id="z21462d1" d="M419 734Q474 743 519 748Q529 747 537 759Q538 769 516 780Q489 801 387 771Q267 744 224 738Q182 734 136 727Q109 723 130 707Q163 683 191 690L240 701Q306 717 388 729L419 734Z"/>
	<path id="z21462d2" d="M191 690Q206 660 206 624Q207 587 208 272L250 284Q251 357 252 422L252 449Q253 500 254 545L255 576Q255 627 258 661Q265 685 240 701L191 690Z"/>
	<path id="z21462d3" d="M254 545Q309 555 352 561Q374 565 365 577Q355 590 331 594Q283 597 255 576L254 545Z"/>
	<path id="z21462d4" d="M252 422Q258 422 349 440Q371 446 362 457Q350 470 326 472Q287 475 252 449L252 422Z"/>
	<path id="z21462d5" d="M449 316Q476 329 496 343Q509 350 510 360Q504 366 492 363Q470 356 449 348L401 332Q328 310 250 284L208 272Q121 248 90 249Q77 248 75 237Q74 224 82 214Q106 198 140 178Q150 175 163 184Q217 223 400 295L449 316Z"/>
	<path id="z21462d6" d="M449 348Q450 469 450 597Q449 685 452 698Q455 710 446 717Q436 724 419 734L388 729Q388 728 390 725Q406 695 401 332L400 295Q400 163 389 46Q386 4 411 -29Q424 -44 433 -26Q460 26 453 71Q450 116 449 316L449 348Z"/>
	<path id="z21462d7" d="M705 325Q754 425 790 561Q800 595 819 617Q838 636 822 650Q806 662 770 671Q742 675 715 657Q625 620 530 604Q515 603 511 594Q507 587 527 579Q567 566 620 584Q684 609 696 610Q727 609 722 575Q706 466 665 370L641 328Q578 235 470 190Q457 183 471 176Q475 169 517 173Q599 185 677 282L705 325Z"/>
	<path id="z21462d8" d="M677 282Q765 171 803 161Q816 158 939 162Q952 163 966 167Q973 174 962 183Q947 193 829 239Q781 257 705 325L665 370Q620 422 573 490Q554 517 520 526Q508 530 498 524Q492 517 501 509Q508 502 515 497Q545 481 640 329L641 328L677 282Z"/>
	<defs>
		<clipPath id="z21462c1"><use xlink:href="#z21462d1"/></clipPath>
		<clipPath id="z21462c2"><use xlink:href="#z21462d2"/></clipPath>
		<clipPath id="z21462c3"><use xlink:href="#z21462d3"/></clipPath>
		<clipPath id="z21462c4"><use xlink:href="#z21462d4"/></clipPath>
		<clipPath id="z21462c5"><use xlink:href="#z21462d5"/></clipPath>
		<clipPath id="z21462c6"><use xlink:href="#z21462d6"/></clipPath>
		<clipPath id="z21462c7"><use xlink:href="#z21462d7"/></clipPath>
		<clipPath id="z21462c8"><use xlink:href="#z21462d8"/></clipPath>
	</defs>
	<path pathLength="2999" clip-path="url(#z21462c1)" d="M131 717L532 759"/>
	<path pathLength="2999" clip-path="url(#z21462c2)" d="M198 688L231 658L218 276"/>
	<path pathLength="2999" clip-path="url(#z21462c3)" d="M259 554L361 570"/>
	<path pathLength="2999" clip-path="url(#z21462c4)" d="M256 430L358 451"/>
	<path pathLength="2999" clip-path="url(#z21462c5)" d="M78 238L150 218L503 357"/>
	<path pathLength="2999" clip-path="url(#z21462c6)" d="M397 724L425 691L419 -30"/>
	<path pathLength="2999" clip-path="url(#z21462c7)" d="M518 593L716 635L778 610L656 301L566 216L470 181"/>
	<path pathLength="2999" clip-path="url(#z21462c8)" d="M502 519L545 495L769 229L817 199L962 175"/>
</g>
</svg>