<!--
AnimCJK 2016-2025 Copyright FM-SH - https://github.com/parsimonhi/animCJK
Derived from:
    MakeMeAHanzi project - https://github.com/skishore/makemeahanzi
    Arphic PL KaitiM GB font
    Arphic PL KaitiM Big5 font
You can redistribute and/or modify this file under the terms of the Arphic Public License
as published by Arphic Technology Co., Ltd.
You should have received a copy of this license along with this file.
If not, see https://ftp.gnu.org/non-gnu/chinese-fonts-truetype/LICENSE.
-->
<svg id="z21462" class="acjk" viewBox="0 0 1024 1024" xmlns="http://www.w3.org/2000/svg">
<style>
<![CDATA[
@keyframes zk {
	to {
		stroke-dashoffset:0;
	}
}
svg.acjk path[clip-path] {
	--t:0.8s;
	animation:zk var(--t) linear forwards var(--d);
	stroke-dasharray:3337;
	stroke-dashoffset:3339;
	stroke-width:128;
	stroke-linecap:round;
	fill:none;
	stroke:#000;
}
svg.acjk path[id] {fill:#ccc;}
]]>
</style>
<path id="z21462d1" d="M419 166Q474 157 519 152Q529 153 537 141Q538 131 516 120Q489 99 387 129Q267 156 224 162Q182 166 136 173Q109 177 130 193Q163 217 191 210C224 203 224 203 240 199Q306 183 388 171C409 168 409 168 419 166Z"/>
<path id="z21462d2" d="M191 210Q206 240 206 276Q207 313 208 628C208 643 250 631 250 616Q251 543 252 478C252 460 252 460 252 451Q253 400 254 355C255 334 255 334 255 324Q255 273 258 239Q265 215 240 199C226 190 185 194 191 210Z"/>
<path id="z21462d3" d="M254 355Q309 345 352 339Q374 335 365 323Q355 310 331 306Q283 303 255 324C246 329 244 357 254 355Z"/>
<path id="z21462d4" d="M252 478Q258 478 349 460Q371 454 362 443Q350 430 326 428Q287 425 252 451C244 456 243 480 252 478Z"/>
<path id="z21462d5" d="M401 568C352 582 302 598 250 616C222 624 222 624 208 628C150 644 110 651 90 651C81 651 76 655 75 663C74 671 76 679 82 686C98 696 117 708 140 722C146 724 154 722 163 716C199 690 278 653 400 605C411 600 413 566 401 568Z"/>
<path id="z21462d6" d="M449 552Q450 431 450 303Q449 215 452 202Q455 190 446 183Q436 176 419 166C410 161 384 161 388 171Q388 172 390 175Q406 205 401 568C400 593 400 593 400 605Q400 737 389 854Q386 896 411 929Q424 944 433 926Q460 874 453 829Q450 784 449 584C449 563 449 563 449 552Z"/>
<path id="z21462d7" d="M705 575Q754 475 790 339Q800 305 819 283Q838 264 822 250Q806 238 770 229Q742 225 715 243Q625 280 530 296Q515 297 511 306Q507 313 527 321Q567 334 620 316Q684 291 696 290Q727 291 722 325Q706 434 665 530C649 558 649 558 641 572Q578 665 470 710Q457 717 471 724Q475 731 517 727Q599 715 677 618C696 589 696 589 705 575Z"/>
<path id="z21462d8" d="M677 618Q765 729 803 739Q816 742 939 738Q952 737 966 733Q973 726 962 717Q947 707 829 661Q781 643 705 575C678 545 678 545 665 530Q620 478 573 410Q554 383 520 374Q508 370 498 376Q492 383 501 391Q508 398 515 403Q545 419 640 571C641 572 641 572 641 572C665 603 665 603 677 618Z"/>
<defs>
	<clipPath id="z21462c1"><use href="#z21462d1"/></clipPath>
	<clipPath id="z21462c2"><use href="#z21462d2"/></clipPath>
	<clipPath id="z21462c3"><use href="#z21462d3"/></clipPath>
	<clipPath id="z21462c4"><use href="#z21462d4"/></clipPath>
	<clipPath id="z21462c5"><use href="#z21462d5"/></clipPath>
	<clipPath id="z21462c6"><use href="#z21462d6"/></clipPath>
	<clipPath id="z21462c7"><use href="#z21462d7"/></clipPath>
	<clipPath id="z21462c8"><use href="#z21462d8"/></clipPath>
</defs>
<path style="--d:1s;" pathLength="3333" clip-path="url(#z21462c1)" d="M131 183L532 141"/>
<path style="--d:2s;" pathLength="3333" clip-path="url(#z21462c2)" d="M198 212L231 242L218 624"/>
<path style="--d:3s;" pathLength="3333" clip-path="url(#z21462c3)" d="M259 346L361 330"/>
<path style="--d:4s;" pathLength="3333" clip-path="url(#z21462c4)" d="M256 470L358 449"/>
<path style="--d:5s;" pathLength="3333" clip-path="url(#z21462c5)" d="M78 662L150 682L392 580"/>
<path style="--d:6s;" pathLength="3333" clip-path="url(#z21462c6)" d="M397 176L425 209L419 930"/>
<path style="--d:7s;" pathLength="3333" clip-path="url(#z21462c7)" d="M518 307L716 265L778 290L656 599L566 684L470 719"/>
<path style="--d:8s;" pathLength="3333" clip-path="url(#z21462c8)" d="M502 381L545 405L769 671L817 701L962 725"/>
</svg>