<!--
AnimCJK 2016-2026 Copyright FM-SH, https://github.com/parsimonhi/animCJK
Derived from:
    MakeMeAHanzi project - https://github.com/skishore/makemeahanzi
    Arphic PL KaitiM GB font
    Arphic PL KaitiM Big5 font
You can redistribute and/or modify this file under the terms of the Arphic Public License
as published by Arphic Technology Co., Ltd.
You should have received a copy of this license along with this file.
If not, see https://ftp.gnu.org/non-gnu/chinese-fonts-truetype/LICENSE.
-->
<svg id="z21473" class="acjk" viewBox="0 0 1024 1024" xmlns="http://www.w3.org/2000/svg">
<style>
<![CDATA[
@keyframes zk {
	to {
		stroke-dashoffset:0;
	}
}
svg.acjk path[clip-path] {
	--t:0.8s;
	animation:zk var(--t) linear forwards var(--d);
	stroke-dasharray:3337;
	stroke-dashoffset:3339;
	stroke-width:128;
	stroke-linecap:round;
	fill:none;
	stroke:#000;
}
svg.acjk path[id] {fill:#ccc;}
]]>
</style>
<path id="z21473d1" d="M354 230C356 205 358 180 361 159C363 142 363 142 364 133C367 106 384 87 362 67C347 54 335 47 325 45C310 40 300 53 309 69C316 83 324 140 326 234C326 243 354 239 354 230Z"/>
<path id="z21473d2" d="M361 159C379 166 411 159 462 152C497 146 518 135 474 113C445 99 418 118 364 133C356 136 352 157 361 159Z"/>
<path id="z21473d3" d="M172 257C168 241 162 230 158 225C148 213 142 217 142 236C142 258 123 298 113 314C98 335 89 364 103 410C108 427 123 431 130 411C157 330 157 330 171 290C175 280 174 268 172 257Z"/>
<path id="z21473d4" d="M171 290C178 294 193 297 215 290C267 272 349 253 466 241C480 238 527 231 522 257C518 271 510 289 491 331C481 351 490 354 506 343C535 320 560 306 583 299C617 288 614 282 598 261C589 249 575 233 558 214C538 191 519 200 498 205C464 211 415 221 354 230C335 233 335 233 326 234C277 241 224 249 172 257C161 259 161 286 171 290Z"/>
<path id="z21473d5" d="M246 330C234 332 233 338 243 348C257 362 269 367 281 365C321 352 368 343 423 337C427 336 432 334 434 328C436 321 428 314 420 308C402 296 384 301 353 309C315 317 292 322 246 330Z"/>
<path id="z21473d6" d="M179 425C173 448 159 473 106 528C99 534 103 542 110 539C153 520 215 472 233 447C238 438 244 433 240 425C234 411 225 402 216 394C182 365 184 400 179 425Z"/>
<path id="z21473d7" d="M440 409C480 440 498 460 517 466C522 467 534 465 534 448C534 405 509 396 430 365C412 359 392 364 414 385C418 389 425 397 440 409Z"/>
<path id="z21473d8" d="M232 582C249 564 324 479 349 445C357 434 357 434 361 428C365 422 367 417 366 412C364 403 356 395 347 389C331 379 323 375 318 377C314 377 312 381 309 390C282 468 164 604 54 693C43 701 44 705 57 705C88 702 170 643 217 597C227 587 227 587 232 582Z"/>
<path id="z21473d9" d="M349 445C390 480 521 587 548 603C577 620 580 601 576 582C566 530 512 505 361 428C355 425 343 441 349 445Z"/>
<path id="z21473d10" d="M253 599C250 594 244 588 232 582C226 578 214 590 217 597C232 638 228 790 221 835C216 864 220 892 237 919C240 925 245 926 250 920C254 912 256 903 257 894C258 873 258 873 258 862C258 848 259 828 259 802C259 785 259 785 259 777C259 737 259 737 259 717C259 700 259 700 259 692C259 652 260 630 262 627C264 617 259 607 253 599Z"/>
<path id="z21473d11" d="M420 885C432 922 457 962 469 903C475 875 473 845 470 789C465 699 463 644 469 623C472 607 469 596 466 592C459 582 448 574 433 563C422 555 412 557 393 567C361 581 301 591 253 599C243 601 252 629 262 627C306 619 353 608 395 605C406 604 411 605 415 611C419 617 425 672 426 780C426 803 424 837 420 854C418 864 416 875 420 885Z"/>
<path id="z21473d12" d="M259 717C303 715 359 706 389 703C400 701 403 696 400 690C395 680 387 674 377 671C362 666 310 674 259 692C251 695 251 717 259 717Z"/>
<path id="z21473d13" d="M259 802C291 803 366 792 395 790C406 788 409 780 406 774C401 763 392 757 381 754C368 750 315 759 259 777C251 780 251 802 259 802Z"/>
<path id="z21473d14" d="M257 894C314 890 361 885 420 885C430 885 429 859 420 854C388 828 380 850 258 862C248 864 246 894 257 894Z"/>
<path id="z21473d15" d="M865 357C870 343 874 335 865 329C852 318 835 313 822 308C796 298 781 305 736 329C711 341 653 359 611 363C601 363 594 363 593 368C590 373 594 381 609 392C623 401 660 401 694 388C744 367 768 357 777 358C785 358 792 363 791 377C782 450 753 531 727 581C719 594 711 607 703 620C660 686 620 741 535 814C520 826 529 834 554 823C639 783 699 708 734 662C742 649 752 637 759 624C828 489 841 410 865 357Z"/>
<path id="z21473d16" d="M872 858C902 864 934 863 971 863C1016 862 1005 852 965 826C853 752 854 752 759 624C738 595 738 595 727 581C681 519 664 501 649 487C632 471 615 463 592 462C567 460 541 469 573 487C597 500 623 511 703 620C724 648 724 648 734 662C791 739 848 853 872 858Z"/>
<defs>
	<clipPath id="z21473c1"><use href="#z21473d1"/></clipPath>
	<clipPath id="z21473c2"><use href="#z21473d2"/></clipPath>
	<clipPath id="z21473c3"><use href="#z21473d3"/></clipPath>
	<clipPath id="z21473c4"><use href="#z21473d4"/></clipPath>
	<clipPath id="z21473c5"><use href="#z21473d5"/></clipPath>
	<clipPath id="z21473c6"><use href="#z21473d6"/></clipPath>
	<clipPath id="z21473c7"><use href="#z21473d7"/></clipPath>
	<clipPath id="z21473c8"><use href="#z21473d8"/></clipPath>
	<clipPath id="z21473c9"><use href="#z21473d9"/></clipPath>
	<clipPath id="z21473c10"><use href="#z21473d10"/></clipPath>
	<clipPath id="z21473c11"><use href="#z21473d11"/></clipPath>
	<clipPath id="z21473c12"><use href="#z21473d12"/></clipPath>
	<clipPath id="z21473c13"><use href="#z21473d13"/></clipPath>
	<clipPath id="z21473c14"><use href="#z21473d14"/></clipPath>
	<clipPath id="z21473c15"><use href="#z21473d15"/></clipPath>
	<clipPath id="z21473c16"><use href="#z21473d16"/></clipPath>
</defs>
<path style="--d:1s;" pathLength="3333" clip-path="url(#z21473c1)" d="M313 50L344 94L341 236"/>
<path style="--d:2s;" pathLength="3333" clip-path="url(#z21473c2)" d="M363 151L494 133"/>
<path style="--d:3s;" pathLength="3333" clip-path="url(#z21473c3)" d="M150 228L117 417"/>
<path style="--d:4s;" pathLength="3333" clip-path="url(#z21473c4)" d="M165 272L525 221L561 282L492 341"/>
<path style="--d:5s;" pathLength="3333" clip-path="url(#z21473c5)" d="M242 338L430 323"/>
<path style="--d:6s;" pathLength="3333" clip-path="url(#z21473c6)" d="M196 386L200 446L111 531"/>
<path style="--d:7s;" pathLength="3333" clip-path="url(#z21473c7)" d="M411 372L526 459"/>
<path style="--d:8s;" pathLength="3333" clip-path="url(#z21473c8)" d="M319 383L332 418L273 500L162 621L55 700"/>
<path style="--d:9s;" pathLength="3333" clip-path="url(#z21473c9)" d="M351 438L498 531L570 604"/>
<path style="--d:10s;" pathLength="3333" clip-path="url(#z21473c10)" d="M227 586L243 917"/>
<path style="--d:11s;" pathLength="3333" clip-path="url(#z21473c11)" d="M255 607L411 583L441 604L449 928"/>
<path style="--d:12s;" pathLength="3333" clip-path="url(#z21473c12)" d="M259 707L396 688"/>
<path style="--d:13s;" pathLength="3333" clip-path="url(#z21473c13)" d="M257 792L402 775"/>
<path style="--d:14s;" pathLength="3333" clip-path="url(#z21473c14)" d="M253 881L424 871"/>
<path style="--d:15s;" pathLength="3333" clip-path="url(#z21473c15)" d="M596 370L662 375L788 331L829 355L734 617L640 739L537 822"/>
<path style="--d:16s;" pathLength="3333" clip-path="url(#z21473c16)" d="M565 473L647 516L872 808L989 851"/>
</svg>
