<!--
AnimCJK 2016-2025 Copyright FM-SH - https://github.com/parsimonhi/animCJK
Derived from:
    MakeMeAHanzi project - https://github.com/skishore/makemeahanzi
    Arphic PL KaitiM GB font
    Arphic PL UKai font
You can redistribute and/or modify this file under the terms of the Arphic Public License
as published by Arphic Technology Co., Ltd.
You should have received a copy of this license along with this file.
If not, see https://ftp.gnu.org/non-gnu/chinese-fonts-truetype/LICENSE.
-->
<svg id="z21473" class="acjk" viewBox="0 0 1024 1024" xmlns="http://www.w3.org/2000/svg">
<style>
<![CDATA[
@keyframes zk {
	to {
		stroke-dashoffset:0;
	}
}
svg.acjk path[clip-path] {
	--t:0.8s;
	animation:zk var(--t) linear forwards var(--d);
	stroke-dasharray:3337;
	stroke-dashoffset:3339;
	stroke-width:128;
	stroke-linecap:round;
	fill:none;
	stroke:#000;
}
svg.acjk path[id] {fill:#ccc;}
]]>
</style>
<path id="z21473d1" d="M354 230C356 205 358 180 361 159C363 142 363 142 364 133C364 130 364 127 365 125C365 117 368 105 372 91C374 84 371 75 362 67C347 55 335 48 325 45C318 43 312 44 309 50C305 53 304 60 309 69C317 83 324 140 326 234C326 243 354 239 354 230Z"/>
<path id="z21473d2" d="M361 159C379 166 411 159 462 152C497 146 519 135 474 113C446 99 418 118 364 133C355 135 352 157 361 159Z"/>
<path id="z21473d3" d="M172 257C168 241 162 230 158 225C148 213 142 217 142 236C142 258 123 298 113 314C98 335 89 364 103 410C108 427 123 431 130 411C157 330 157 330 171 290C175 280 174 268 172 257Z"/>
<path id="z21473d4" d="M171 290C178 294 193 297 215 290C267 272 349 253 466 241C487 238 500 236 508 241C514 245 516 252 516 257C515 259 509 284 491 331C487 339 483 345 488 349C490 351 498 349 506 343C535 320 560 306 583 299C601 293 610 288 610 282C610 275 591 251 558 214C538 192 520 201 498 205C465 212 415 221 354 230C335 233 335 233 326 234C277 241 224 249 172 257C161 259 161 286 171 290Z"/>
<path id="z21473d5" d="M246 330C234 332 233 338 243 348C257 362 269 367 281 365C321 352 368 343 423 337C427 336 432 334 434 328C436 321 428 314 420 308C402 296 384 301 353 309C315 317 292 322 246 330Z"/>
<path id="z21473d6" d="M179 425C173 448 159 473 106 528C99 534 103 542 110 539C153 520 215 472 233 447C238 438 244 433 240 425C234 411 225 402 216 394C182 365 184 400 179 425Z"/>
<path id="z21473d7" d="M441 416C478 452 505 481 512 481C517 480 521 473 523 466C535 409 472 379 436 372C426 371 422 371 420 374C417 377 416 382 418 390C418 395 427 403 441 416Z"/>
<path id="z21473d8" d="M232 582C249 564 324 479 349 445C357 434 357 434 361 428C365 422 367 417 366 412C364 403 356 395 347 389C331 379 323 375 318 377C314 377 312 381 309 390C282 468 164 604 54 693C43 701 44 705 57 705C88 702 170 643 217 597C227 587 227 587 232 582Z"/>
<path id="z21473d9" d="M349 445C466 574 495 594 534 601C558 605 595 603 628 597C636 595 641 591 641 587C641 582 638 579 631 577C532 548 491 521 476 512C443 492 411 469 361 428C356 424 345 439 349 445Z"/>
<path id="z21473d10" d="M253 599C250 594 244 588 232 582C226 578 214 590 217 597C232 638 228 790 221 835C216 864 220 892 237 919C240 925 245 926 250 920C254 912 256 903 257 894C258 873 258 873 258 862C258 848 259 828 259 802C259 785 259 785 259 777C259 737 259 737 259 717C259 700 259 700 259 692C259 652 260 630 262 627C264 617 259 607 253 599Z"/>
<path id="z21473d11" d="M414 885C425 926 454 977 466 935C472 909 474 862 470 789C465 700 463 644 469 623C472 607 469 597 466 592C459 583 449 574 433 563C423 555 412 557 393 567C361 581 301 591 253 599C243 601 252 629 262 627C306 619 353 608 395 605C406 604 411 605 415 611C419 617 425 673 426 780C426 804 423 829 414 854C411 864 412 875 414 885Z"/>
<path id="z21473d12" d="M259 717C303 715 359 706 389 703C400 701 403 696 400 690C395 680 387 674 377 671C362 666 310 674 259 692C251 695 251 717 259 717Z"/>
<path id="z21473d13" d="M259 802C291 803 366 792 395 790C406 788 409 780 406 774C401 763 392 757 381 754C368 750 315 759 259 777C251 780 251 802 259 802Z"/>
<path id="z21473d14" d="M257 894C314 890 355 885 414 885C424 885 423 859 414 854C382 828 380 850 258 862C248 864 246 894 257 894Z"/>
<path id="z21473d15" d="M832 403C838 377 845 354 861 337C870 325 870 316 861 309C848 299 832 295 818 292C805 289 780 296 732 313C695 325 659 339 617 343C607 343 600 343 599 348C596 353 600 362 615 372C629 382 656 381 690 368C740 347 765 337 773 338C782 338 789 344 787 357C763 483 758 519 701 604C669 650 631 685 571 728C563 733 559 737 566 740C568 741 578 738 590 733C635 713 696 675 724 642C801 549 816 472 832 403Z"/>
<path id="z21473d16" d="M868 792C896 802 950 793 987 793C995 792 1004 793 1012 789C1018 786 1015 777 1009 772C999 764 945 744 876 709C852 696 824 678 659 453C645 435 632 420 612 414C603 410 592 411 586 417C581 420 581 429 589 433C597 437 600 440 605 445C612 450 677 542 758 658C806 727 846 783 868 792Z"/>
<defs>
	<clipPath id="z21473c1"><use href="#z21473d1"/></clipPath>
	<clipPath id="z21473c2"><use href="#z21473d2"/></clipPath>
	<clipPath id="z21473c3"><use href="#z21473d3"/></clipPath>
	<clipPath id="z21473c4"><use href="#z21473d4"/></clipPath>
	<clipPath id="z21473c5"><use href="#z21473d5"/></clipPath>
	<clipPath id="z21473c6"><use href="#z21473d6"/></clipPath>
	<clipPath id="z21473c7"><use href="#z21473d7"/></clipPath>
	<clipPath id="z21473c8"><use href="#z21473d8"/></clipPath>
	<clipPath id="z21473c9"><use href="#z21473d9"/></clipPath>
	<clipPath id="z21473c10"><use href="#z21473d10"/></clipPath>
	<clipPath id="z21473c11"><use href="#z21473d11"/></clipPath>
	<clipPath id="z21473c12"><use href="#z21473d12"/></clipPath>
	<clipPath id="z21473c13"><use href="#z21473d13"/></clipPath>
	<clipPath id="z21473c14"><use href="#z21473d14"/></clipPath>
	<clipPath id="z21473c15"><use href="#z21473d15"/></clipPath>
	<clipPath id="z21473c16"><use href="#z21473d16"/></clipPath>
</defs>
<path style="--d:1s;" pathLength="3333" clip-path="url(#z21473c1)" d="M314 54L345 92L337 233"/>
<path style="--d:2s;" pathLength="3333" clip-path="url(#z21473c2)" d="M360 151L493 129"/>
<path style="--d:3s;" pathLength="3333" clip-path="url(#z21473c3)" d="M151 223L116 417"/>
<path style="--d:4s;" pathLength="3333" clip-path="url(#z21473c4)" d="M167 277L523 222L560 279L493 340"/>
<path style="--d:5s;" pathLength="3333" clip-path="url(#z21473c5)" d="M242 336L429 324"/>
<path style="--d:6s;" pathLength="3333" clip-path="url(#z21473c6)" d="M195 388L209 431L110 532"/>
<path style="--d:7s;" pathLength="3333" clip-path="url(#z21473c7)" d="M425 383L482 420L512 475"/>
<path style="--d:8s;" pathLength="3333" clip-path="url(#z21473c8)" d="M319 383L329 422L229 553L53 700"/>
<path style="--d:9s;" pathLength="3333" clip-path="url(#z21473c9)" d="M356 436L511 563L634 584"/>
<path style="--d:10s;" pathLength="3333" clip-path="url(#z21473c10)" d="M228 588L241 915"/>
<path style="--d:11s;" pathLength="3333" clip-path="url(#z21473c11)" d="M255 607L407 582L440 603L448 946"/>
<path style="--d:12s;" pathLength="3333" clip-path="url(#z21473c12)" d="M262 706L396 686"/>
<path style="--d:13s;" pathLength="3333" clip-path="url(#z21473c13)" d="M256 791L401 773"/>
<path style="--d:14s;" pathLength="3333" clip-path="url(#z21473c14)" d="M256 883L417 872"/>
<path style="--d:15s;" pathLength="3333" clip-path="url(#z21473c15)" d="M603 349L656 357L788 316L826 335L744 578L670 668L573 732"/>
<path style="--d:16s;" pathLength="3333" clip-path="url(#z21473c16)" d="M592 424L639 458L856 737L1009 780"/>
</svg>