<!--
AnimCJK 2016-2017 Copyright Francois Mizessyn, http://gooo.free.fr/animCJK/
Derived from:
    MakeMeAHanzi project - https://github.com/skishore/makemeahanzi
    Arphic PL KaitiM GB - https://apps.ubuntu.com/cat/applications/precise/fonts-arphic-gkai00mp/
    Arphic PL UKai - https://apps.ubuntu.com/cat/applications/fonts-arphic-ukai/
You can redistribute and/or modify this file under the terms of the Arphic Public License
as published by Arphic Technology Co., Ltd.
You should have received a copy of this license (the directory "APL") along with this file;
if not, see http://ftp.gnu.org/non-gnu/chinese-fonts-truetype/LICENSE.
-->
<svg id="z21488" class="acjk" version="1.1" viewBox="0 0 1024 1024" xmlns="http://www.w3.org/2000/svg" xmlns:xlink="http://www.w3.org/1999/xlink">
<style>
<![CDATA[
	@keyframes z21488k {
		from {
			stroke:#c00;
			stroke-dashoffset:3000;
		}
		75% {
			stroke:#c00;
			stroke-dashoffset:0;
		}
		to {
			stroke:#000;
		}
	}
	#z21488 path[clip-path] {
		animation:z21488k 1s linear both;
		stroke-dasharray:3000;
		stroke-width:128;
		stroke-linecap:round;
		fill:none;
	}
	#z21488 path[clip-path="url(#z21488c1)"] {animation-delay:1s;}
	#z21488 path[clip-path="url(#z21488c2)"] {animation-delay:2s;}
	#z21488 path[clip-path="url(#z21488c3)"] {animation-delay:3s;}
	#z21488 path[clip-path="url(#z21488c4)"] {animation-delay:4s;}
	#z21488 path[clip-path="url(#z21488c5)"] {animation-delay:5s;}
	#z21488 path {fill:#ccc;}
]]>
</style>
<g transform="scale(1,-1) translate(0,-900)">
	<path id="z21488d1" d="M728 529Q659 525 523 504Q357 479 284 460Q268 457 277 469Q308 505 392 587Q524 714 549 728Q561 735 568 743Q575 758 554 781Q517 818 485 826Q469 829 459 822Q455 815 463 803Q476 772 437 715Q430 708 422 696Q254 492 203 465Q154 443 165 395Q171 370 185 367Q192 368 211 378Q289 423 508 466Q637 500 753 501L728 529Z"/>
	<path id="z21488d2" d="M753 501Q778 473 806 442Q816 427 832 426Q842 425 849 437Q856 450 851 480Q847 546 677 631Q662 637 656 635Q652 632 651 619Q651 610 728 529L753 501Z"/>
	<path id="z21488d3" d="M335 291Q322 298 281 305Q268 309 263 303Q256 296 266 277Q303 198 324 70Q328 31 349 5Q370 -20 376 -2Q380 13 381 34L377 76Q365 110 346 252L335 291Z"/>
	<path id="z21488d4" d="M686 105Q717 219 765 258Q784 280 768 301Q750 316 686 349Q665 358 642 349Q528 310 335 291L346 252Q359 253 377 257Q497 273 611 291Q641 297 653 284Q666 271 662 243Q649 171 631 112L686 105Z"/>
	<path id="z21488d5" d="M381 34Q384 34 388 34Q488 52 703 60Q716 61 718 71Q719 81 686 105L631 112Q630 113 628 112Q490 87 377 76L381 34Z"/>
	<defs>
		<clipPath id="z21488c1"><use xlink:href="#z21488d1"/></clipPath>
		<clipPath id="z21488c2"><use xlink:href="#z21488d2"/></clipPath>
		<clipPath id="z21488c3"><use xlink:href="#z21488d3"/></clipPath>
		<clipPath id="z21488c4"><use xlink:href="#z21488d4"/></clipPath>
		<clipPath id="z21488c5"><use xlink:href="#z21488d5"/></clipPath>
	</defs>
	<path pathLength="2999" clip-path="url(#z21488c1)" d="M464 817L515 750L229 455L214 411L571 497L741 507"/>
	<path pathLength="2999" clip-path="url(#z21488c2)" d="M660 627L779 527L840 432"/>
	<path pathLength="2999" clip-path="url(#z21488c3)" d="M268 301L308 267L365 -5"/>
	<path pathLength="2999" clip-path="url(#z21488c4)" d="M343 288L368 275L672 316L722 268L644 111"/>
	<path pathLength="2999" clip-path="url(#z21488c5)" d="M385 70L632 85L714 70"/>
</g>
</svg>