<!--
AnimCJK 2016-2018 Copyright Francois Mizessyn, https://github.com/parsimonhi/animCJK
Derived from:
    MakeMeAHanzi project - https://github.com/skishore/makemeahanzi
    Arphic PL KaitiM GB - https://apps.ubuntu.com/cat/applications/precise/fonts-arphic-gkai00mp/
    Arphic PL UKai - https://apps.ubuntu.com/cat/applications/fonts-arphic-ukai/
You can redistribute and/or modify this file under the terms of the Arphic Public License
as published by Arphic Technology Co., Ltd.
You should have received a copy of this license (the directory "APL") along with this file;
if not, see http://ftp.gnu.org/non-gnu/chinese-fonts-truetype/LICENSE.
-->
<svg id="z21483" class="acjk" version="1.1" viewBox="0 0 1024 1024" xmlns="http://www.w3.org/2000/svg" xmlns:xlink="http://www.w3.org/1999/xlink">
<style>
<![CDATA[
@keyframes z21483k {
	from {
		stroke:#c00;
		stroke-dashoffset:3334;
	}
	75% {
		stroke:#c00;
		stroke-dashoffset:0;
	}
	to {
		stroke:#000;
	}
}
#z21483 path[clip-path] {
	animation:z21483k 1s linear both;
	stroke-dasharray:3334;
	stroke-width:128;
	stroke-linecap:round;
	fill:none;
}
#z21483 path[clip-path="url(#z21483c1)"] {animation-delay:1s;}
#z21483 path[clip-path="url(#z21483c2)"] {animation-delay:2s;}
#z21483 path[clip-path="url(#z21483c3)"] {animation-delay:3s;}
#z21483 path[clip-path="url(#z21483c4)"] {animation-delay:4s;}
#z21483 path[clip-path="url(#z21483c5)"] {animation-delay:5s;}
#z21483 path[clip-path="url(#z21483c6)"] {animation-delay:6s;}
#z21483 path {fill:#ccc;}
]]>
</style>
<path id="z21483d1" d="M205 315Q192 308 164 302Q151 298 147 304Q140 310 148 327Q181 406 194 534Q195 573 216 599Q232 623 239 607Q248 585 244 543L240 509Q221 376 220 343L205 315 Z"/>
<path id="z21483d2" d="M396 479Q414 367 448 334Q464 313 448 297Q369 246 312 279Q258 300 205 315L220 343Q227 342 237 337Q345 310 349 314Q361 324 360 348Q353 421 341 479L396 479 Z"/>
<path id="z21483d3" d="M244 543Q388 515 410 511Q420 510 421 500Q421 493 396 479L341 479Q283 498 240 509L244 543 Z"/>
<path id="z21483d4" d="M500 491C518 469 530 435 535 388C541 339 532 290 510 241C504 228 505 219 513 215C520 213 528 214 537 218C555 228 570 239 582 251C589 261 592 275 590 293C586 345 582 397 578 447C576 455 575 463 573 472C551 477 529 483 500 491 Z"/>
<path id="z21483d5" d="M773 423C705 434 645 448 595 466C564 474 538 481 500 491C487 505 484 517 490 526C498 537 509 546 523 554C533 559 542 558 549 552C567 530 619 506 706 480C740 472 761 468 769 469C769 469 771 468 773 468 Z"/>
<path id="z21483d6" d="M771 898Q777 926 785 937Q791 944 799 942Q817 933 823 866Q833 763 831 662Q827 577 831 243Q831 197 845 132Q848 113 832 102Q795 77 779 74Q764 70 746 79Q736 89 745 100Q751 113 758 124Q774 154 775 197Q776 294 773 423L773 468Q767 852 771 898 Z"/>
<defs>
	<clipPath id="z21483c1"><use xlink:href="#z21483d1"/></clipPath>
	<clipPath id="z21483c2"><use xlink:href="#z21483d2"/></clipPath>
	<clipPath id="z21483c3"><use xlink:href="#z21483d3"/></clipPath>
	<clipPath id="z21483c4"><use xlink:href="#z21483d4"/></clipPath>
	<clipPath id="z21483c5"><use xlink:href="#z21483d5"/></clipPath>
	<clipPath id="z21483c6"><use xlink:href="#z21483d6"/></clipPath>
</defs>
<path pathLength="3333" clip-path="url(#z21483c1)" d="M152 309L190 352L228 606"/>
<path pathLength="3333" clip-path="url(#z21483c2)" d="M212 318L358 291L406 319L354 477"/>
<path pathLength="3333" clip-path="url(#z21483c3)" d="M253 533L414 500"/>
<path pathLength="3333" clip-path="url(#z21483c4)" d="M516 219L557 275L561 358L547 461L508 485"/>
<path pathLength="3333" clip-path="url(#z21483c5)" d="M491 512L538 519L770 435"/>
<path pathLength="3333" clip-path="url(#z21483c6)" d="M750 87L807 152L794 938"/>
</svg>