<!--
AnimCJK 2016-2019 Copyright Francois Mizessyn - https://github.com/parsimonhi/animCJK
Derived from:
    MakeMeAHanzi project - https://github.com/skishore/makemeahanzi
    Arphic PL KaitiM GB font
    Arphic PL UKai font
You can redistribute and/or modify this file under the terms of the Arphic Public License
as published by Arphic Technology Co., Ltd.
You should have received a copy of this license along with this file.
If not, see http://ftp.gnu.org/non-gnu/chinese-fonts-truetype/LICENSE.
-->
<svg id="z21697" class="acjk" version="1.1" viewBox="0 0 1024 1024" xmlns="http://www.w3.org/2000/svg" xmlns:xlink="http://www.w3.org/1999/xlink">
<style>
<![CDATA[
@keyframes zk {
	to {
		stroke-dashoffset:0;
	}
}
svg.acjk path[clip-path] {
	--t:0.8s;
	animation:zk var(--t) linear forwards var(--d);
	stroke-dasharray:3337;
	stroke-dashoffset:3339;
	stroke-width:128;
	stroke-linecap:round;
	fill:none;
	stroke:#000;
}
svg.acjk path[id] {fill:#ccc;}
]]>
</style>
<path id="z21697d1" d="M373 172Q363 165 323 160Q310 157 307 162Q300 169 310 186Q347 258 369 377Q373 413 395 436Q414 458 419 442Q423 429 422 410C419 387 419 387 418 375Q402 309 384 211C381 198 385 178 373 172Z"/>
<path id="z21697d2" d="M643 349Q680 238 725 210Q744 188 729 167Q681 127 636 115Q620 112 604 119Q510 155 373 172C360 175 371 214 384 211Q397 210 414 205Q502 192 586 177Q608 173 616 181Q632 202 585 343C578 361 636 367 643 349Z"/>
<path id="z21697d3" d="M422 410Q429 411 442 409Q509 396 655 384Q665 383 667 374Q667 367 643 349C628 337 604 340 585 343Q491 365 418 375C406 377 410 410 422 410Z"/>
<path id="z21697d4" d="M182 583Q169 576 135 572Q122 568 119 574Q112 581 122 597Q156 670 178 792Q182 828 203 852Q222 874 227 858Q234 836 227 793C222 769 222 769 220 757Q201 655 195 618C193 606 194 588 182 583Z"/>
<path id="z21697d5" d="M414 727Q436 637 469 610Q485 591 470 572Q452 559 397 535Q378 528 308 555Q253 570 182 583C170 585 183 620 195 618Q208 614 345 588Q361 584 368 591Q378 600 377 621Q370 678 361 725C358 742 411 744 414 727Z"/>
<path id="z21697d6" d="M227 793Q234 793 243 792Q301 777 432 765Q442 764 444 754Q444 745 414 727C399 718 378 722 361 725Q282 746 220 757C208 759 215 793 227 793Z"/>
<path id="z21697d7" d="M584 544Q562 531 540 526Q533 523 528 529Q521 535 530 546Q569 604 580 749Q581 803 619 835Q620 835 623 837Q641 841 641 812Q641 793 637 772C631 746 631 746 628 733Q625 705 620 673Q613 621 611 579C611 564 597 551 584 544Z"/>
<path id="z21697d8" d="M843 711Q876 600 911 576Q930 555 913 536Q832 473 774 502Q701 527 584 544C570 547 597 584 611 579Q621 576 633 573Q708 560 779 547Q798 543 805 551Q815 561 814 584Q802 650 788 704C784 722 839 729 843 711Z"/>
<path id="z21697d9" d="M637 772Q641 772 649 771Q716 758 857 750Q870 749 871 739Q871 730 843 711C828 700 806 704 788 704Q787 703 785 704Q698 723 628 733C615 735 624 772 637 772Z"/>
<defs>
	<clipPath id="z21697c1"><use xlink:href="#z21697d1"/></clipPath>
	<clipPath id="z21697c2"><use xlink:href="#z21697d2"/></clipPath>
	<clipPath id="z21697c3"><use xlink:href="#z21697d3"/></clipPath>
	<clipPath id="z21697c4"><use xlink:href="#z21697d4"/></clipPath>
	<clipPath id="z21697c5"><use xlink:href="#z21697d5"/></clipPath>
	<clipPath id="z21697c6"><use xlink:href="#z21697d6"/></clipPath>
	<clipPath id="z21697c7"><use xlink:href="#z21697d7"/></clipPath>
	<clipPath id="z21697c8"><use xlink:href="#z21697d8"/></clipPath>
	<clipPath id="z21697c9"><use xlink:href="#z21697d9"/></clipPath>
</defs>
<path style="--d:1s;" pathLength="3333" clip-path="url(#z21697c1)" d="M312 170L347 191L407 444"/>
<path style="--d:2s;" pathLength="3333" clip-path="url(#z21697c2)" d="M380 176L416 186L617 146L652 160L679 202L617 337L592 339"/>
<path style="--d:3s;" pathLength="3333" clip-path="url(#z21697c3)" d="M426 382L660 369"/>
<path style="--d:4s;" pathLength="3333" clip-path="url(#z21697c4)" d="M124 576L167 630L216 858"/>
<path style="--d:5s;" pathLength="3333" clip-path="url(#z21697c5)" d="M191 585L370 561L407 578L427 602L376 725"/>
<path style="--d:6s;" pathLength="3333" clip-path="url(#z21697c6)" d="M228 759L439 748"/>
<path style="--d:7s;" pathLength="3333" clip-path="url(#z21697c7)" d="M533 534L582 588L621 830"/>
<path style="--d:8s;" pathLength="3333" clip-path="url(#z21697c8)" d="M595 547L807 520L849 539L866 568L813 707"/>
<path style="--d:9s;" pathLength="3333" clip-path="url(#z21697c9)" d="M637 737L866 739"/>
</svg>