<!--
AnimCJK 2016-2018 Copyright Francois Mizessyn - https://github.com/parsimonhi/animCJK
Derived from:
    MakeMeAHanzi project - https://github.com/skishore/makemeahanzi
    Arphic PL KaitiM GB - https://apps.ubuntu.com/cat/applications/precise/fonts-arphic-gkai00mp/
    Arphic PL UKai - https://apps.ubuntu.com/cat/applications/fonts-arphic-ukai/
You can redistribute and/or modify this file under the terms of the Arphic Public License
as published by Arphic Technology Co., Ltd.
You should have received a copy of this license (the directory "APL") along with this file;
if not, see http://ftp.gnu.org/non-gnu/chinese-fonts-truetype/LICENSE.
-->
<svg id="z21696" class="acjk" version="1.1" viewBox="0 0 1024 1024" xmlns="http://www.w3.org/2000/svg" xmlns:xlink="http://www.w3.org/1999/xlink">
<style>
<![CDATA[
@keyframes z21696k {
	from {
		stroke:#ccc;
		stroke-dashoffset:3334;
	}
	1% {
		stroke:#c00;
		stroke-dashoffset:3334;
	}
	75% {
		stroke:#c00;
		stroke-dashoffset:0;
	}
	to {
		stroke:#000;
	}
}
#z21696 path[clip-path] {
	animation:z21696k 1s linear both;
	stroke-dasharray:3334;
	stroke-width:128;
	stroke-linecap:round;
	fill:none;
}
#z21696 path[clip-path="url(#z21696c1)"] {animation-delay:1s;}
#z21696 path[clip-path="url(#z21696c2)"] {animation-delay:2s;}
#z21696 path[clip-path="url(#z21696c3)"] {animation-delay:3s;}
#z21696 path[clip-path="url(#z21696c4)"] {animation-delay:4s;}
#z21696 path[clip-path="url(#z21696c5)"] {animation-delay:5s;}
#z21696 path[clip-path="url(#z21696c6)"] {animation-delay:6s;}
#z21696 path[clip-path="url(#z21696c7)"] {animation-delay:7s;}
#z21696 path[clip-path="url(#z21696c8)"] {animation-delay:8s;}
#z21696 path[clip-path="url(#z21696c9)"] {animation-delay:9s;}
#z21696 path {fill:#ccc;}
]]>
</style>
<path id="z21696d1" d="M456 108Q499 150 542 166Q558 167 567 152Q571 137 567 120Q549 78 464 65Q446 62 436 67Q430 70 434 82Q438 95 456 108Z"></path>
<path id="z21696d2" d="M231 236Q197 237 222 259Q261 289 288 285Q525 243 792 222Q804 223 815 210Q816 197 791 184Q758 156 669 180Q492 211 268 233Q249 233 231 236Z"></path>
<path id="z21696d3" d="M401 522Q401 518 402 514C404 503 400 491 398 480Q386 411 383 386C380 373 374 357 362 352Q350 348 323 344Q310 341 307 347Q300 354 310 370Q337 416 356 491Q360 515 378 533C384 539 401 530 401 522Z"></path>
<path id="z21696d4" d="M638 459Q668 398 696 386Q715 367 700 347Q684 332 629 303Q610 293 534 319Q453 340 362 352C349 355 370 388 383 386Q422 379 567 354Q589 350 597 359Q603 365 601 379Q594 418 583 449C576 466 630 476 638 459Z"></path>
<path id="z21696d5" d="M402 514Q408 515 419 514Q491 499 647 490Q657 489 659 480Q659 473 638 459C622 449 601 445 583 449Q480 471 398 480C387 482 391 514 402 514Z"></path>
<path id="z21696d6" d="M459 555Q455 542 433 534Q415 524 401 522C393 521 381 525 378 533Q348 633 67 804Q42 817 72 817Q168 817 358 662Q361 658 365 656C389 634 389 634 401 623Q429 598 447 584C455 578 463 565 459 555Z"></path>
<path id="z21696d7" d="M365 656Q372 678 371 700Q371 788 363 816Q357 847 344 864Q329 886 338 909Q348 943 367 956Q377 965 391 945Q428 900 554 790Q573 774 575 766Q576 753 554 764Q505 792 448 823Q427 835 419 831Q412 827 412 806Q419 697 426 670Q432 649 417 637Q408 628 401 623C388 613 362 640 365 656Z"></path>
<path id="z21696d8" d="M595 663Q635 642 712 599Q733 584 758 576Q780 569 771 549Q759 530 735 514Q713 498 699 499Q686 499 688 513Q689 541 630 599Q605 621 578 648C573 653 588 666 595 663Z"></path>
<path id="z21696d9" d="M578 648Q544 620 510 587Q485 563 459 555C449 551 438 579 447 584Q499 618 597 725Q729 860 776 861Q854 861 942 843Q979 836 976 826Q973 819 791 775Q703 745 595 663C584 653 584 653 578 648Z"></path>
<defs>
	<clipPath id="z21696c1"><use xlink:href="#z21696d1"></use></clipPath>
	<clipPath id="z21696c2"><use xlink:href="#z21696d2"></use></clipPath>
	<clipPath id="z21696c3"><use xlink:href="#z21696d3"></use></clipPath>
	<clipPath id="z21696c4"><use xlink:href="#z21696d4"></use></clipPath>
	<clipPath id="z21696c5"><use xlink:href="#z21696d5"></use></clipPath>
	<clipPath id="z21696c6"><use xlink:href="#z21696d6"></use></clipPath>
	<clipPath id="z21696c7"><use xlink:href="#z21696d7"></use></clipPath>
	<clipPath id="z21696c8"><use xlink:href="#z21696d8"></use></clipPath>
	<clipPath id="z21696c9"><use xlink:href="#z21696d9"></use></clipPath>
</defs>
<path pathLength="3333" clip-path="url(#z21696c1)" d="M440 74L563 152"></path>
<path pathLength="3333" clip-path="url(#z21696c2)" d="M220 246L275 259L729 198L811 206"></path>
<path pathLength="3333" clip-path="url(#z21696c3)" d="M313 352L353 391L386 528"></path>
<path pathLength="3333" clip-path="url(#z21696c4)" d="M372 356L618 333L653 371L603 452"></path>
<path pathLength="3333" clip-path="url(#z21696c5)" d="M405 486L652 479"></path>
<path pathLength="3333" clip-path="url(#z21696c6)" d="M454 557L404 566L219 734L64 810"></path>
<path pathLength="3333" clip-path="url(#z21696c7)" d="M398 633L376 860L385 903L566 765"></path>
<path pathLength="3333" clip-path="url(#z21696c8)" d="M695 508L724 555L594 658"></path>
<path pathLength="3333" clip-path="url(#z21696c9)" d="M461 565L730 794L788 819L965 831"></path>
</svg>