<!--
AnimCJK 2016-2018 Copyright Francois Mizessyn, https://github.com/parsimonhi/animCJK
Derived from:
    MakeMeAHanzi project - https://github.com/skishore/makemeahanzi
    Arphic PL KaitiM GB - https://apps.ubuntu.com/cat/applications/precise/fonts-arphic-gkai00mp/
    Arphic PL UKai - https://apps.ubuntu.com/cat/applications/fonts-arphic-ukai/
You can redistribute and/or modify this file under the terms of the Arphic Public License
as published by Arphic Technology Co., Ltd.
You should have received a copy of this license (the directory "APL") along with this file;
if not, see http://ftp.gnu.org/non-gnu/chinese-fonts-truetype/LICENSE.
-->
<svg id="z21754" class="acjk" version="1.1" viewBox="0 0 1024 1024" xmlns="http://www.w3.org/2000/svg" xmlns:xlink="http://www.w3.org/1999/xlink">
<style>
<![CDATA[
@keyframes z21754k {
	from {
		stroke:#c00;
		stroke-dashoffset:3334;
	}
	75% {
		stroke:#c00;
		stroke-dashoffset:0;
	}
	to {
		stroke:#000;
	}
}
#z21754 path[clip-path] {
	animation:z21754k 1s linear both;
	stroke-dasharray:3334;
	stroke-width:128;
	stroke-linecap:round;
	fill:none;
}
#z21754 path[clip-path="url(#z21754c1)"] {animation-delay:1s;}
#z21754 path[clip-path="url(#z21754c2)"] {animation-delay:2s;}
#z21754 path[clip-path="url(#z21754c3)"] {animation-delay:3s;}
#z21754 path[clip-path="url(#z21754c4)"] {animation-delay:4s;}
#z21754 path[clip-path="url(#z21754c5)"] {animation-delay:5s;}
#z21754 path[clip-path="url(#z21754c6)"] {animation-delay:6s;}
#z21754 path[clip-path="url(#z21754c7)"] {animation-delay:7s;}
#z21754 path[clip-path="url(#z21754c8)"] {animation-delay:8s;}
#z21754 path[clip-path="url(#z21754c9)"] {animation-delay:9s;}
#z21754 path[clip-path="url(#z21754c10)"] {animation-delay:10s;}
#z21754 path {fill:#ccc;}
]]>
</style>
<path id="z21754d1" d="M132 316Q120 312 97 307Q84 303 81 309Q74 315 83 331Q114 407 130 530Q131 567 152 592Q170 614 175 599Q185 574 177 527L171 493Q152 375 150 344L132 316 Z"/>
<path id="z21754d2" d="M311 464Q320 362 344 330Q365 302 339 289Q318 279 288 263Q267 254 249 267Q218 291 132 316L150 344Q190 332 233 321Q255 315 260 323Q270 329 266 369Q263 414 258 467L311 464 Z"/>
<path id="z21754d3" d="M177 527Q184 527 192 525Q235 512 330 499Q340 498 341 488Q341 481 311 464L258 467Q209 483 171 493L177 527 Z"/>
<path id="z21754d4" d="M638 288Q722 275 849 269Q906 269 913 258Q917 246 901 234Q844 197 785 216Q725 231 639 250L587 260Q487 278 375 298Q356 301 371 317Q384 330 402 334Q423 338 438 333Q507 311 587 297L638 288 Z"/>
<path id="z21754d5" d="M457 432Q430 419 414 419Q401 423 406 435Q458 546 410 758Q379 840 410 879Q417 892 428 886Q464 862 468 735Q474 518 479 471L457 432 Z"/>
<path id="z21754d6" d="M635 433Q680 423 728 415Q750 409 762 422Q772 428 776 475Q789 635 780 817Q779 844 769 851Q756 861 689 850Q673 847 674 857Q675 864 688 870Q749 912 781 945Q802 964 815 962Q827 958 838 930Q853 884 851 819Q830 483 846 446Q859 422 849 409Q839 394 791 371Q772 362 753 367Q714 380 635 401L587 411Q523 421 457 432L479 471Q491 465 587 443L635 433 Z"/>
<path id="z21754d7" d="M635 561Q672 551 708 545Q730 541 722 528Q710 513 684 511Q665 510 635 518L585 536Q552 548 522 558Q506 562 527 577Q536 583 555 579Q570 575 585 573L635 561 Z"/>
<path id="z21754d8" d="M634 680Q682 670 723 663Q745 659 737 647Q727 634 703 630Q666 626 634 641L582 656Q543 666 510 676Q495 680 514 693Q524 700 546 696Q562 692 581 690L634 680 Z"/>
<path id="z21754d9" d="M581 690Q581 831 597 857Q610 870 619 851Q631 824 634 680L634 641Q635 604 635 561L635 518Q635 476 635 433L635 401Q636 337 638 288L639 250Q642 148 660 119Q667 104 648 90Q626 71 585 61Q567 57 556 69Q546 76 558 88Q585 110 587 144Q587 190 587 260L587 297Q587 348 587 411L587 443Q587 485 585 536L585 573Q584 621 582 656L581 690 Z"/>
<path id="z21754d10" d="M718 121Q757 163 789 178Q802 179 811 167Q817 155 814 140Q807 118 790 107Q766 92 729 85Q713 81 705 84Q699 85 702 97Q703 107 718 121 Z"/>
<defs>
	<clipPath id="z21754c1"><use xlink:href="#z21754d1"/></clipPath>
	<clipPath id="z21754c2"><use xlink:href="#z21754d2"/></clipPath>
	<clipPath id="z21754c3"><use xlink:href="#z21754d3"/></clipPath>
	<clipPath id="z21754c4"><use xlink:href="#z21754d4"/></clipPath>
	<clipPath id="z21754c5"><use xlink:href="#z21754d5"/></clipPath>
	<clipPath id="z21754c6"><use xlink:href="#z21754d6"/></clipPath>
	<clipPath id="z21754c7"><use xlink:href="#z21754d7"/></clipPath>
	<clipPath id="z21754c8"><use xlink:href="#z21754d8"/></clipPath>
	<clipPath id="z21754c9"><use xlink:href="#z21754d9"/></clipPath>
	<clipPath id="z21754c10"><use xlink:href="#z21754d10"/></clipPath>
</defs>
<path pathLength="3333" clip-path="url(#z21754c1)" d="M86 314L123 360L167 599"/>
<path pathLength="3333" clip-path="url(#z21754c2)" d="M138 318L261 290L306 314L286 454L269 463"/>
<path pathLength="3333" clip-path="url(#z21754c3)" d="M182 521L254 489L336 487"/>
<path pathLength="3333" clip-path="url(#z21754c4)" d="M372 308L805 241L909 252"/>
<path pathLength="3333" clip-path="url(#z21754c5)" d="M413 430L447 469L453 520L423 883"/>
<path pathLength="3333" clip-path="url(#z21754c6)" d="M466 436L492 447L758 389L810 425L812 861L782 911L680 856"/>
<path pathLength="3333" clip-path="url(#z21754c7)" d="M524 565L719 530"/>
<path pathLength="3333" clip-path="url(#z21754c8)" d="M509 682L733 652"/>
<path pathLength="3333" clip-path="url(#z21754c9)" d="M559 73L623 120L608 856"/>
<path pathLength="3333" clip-path="url(#z21754c10)" d="M707 87L805 168"/>
</svg>