<!--
AnimCJK 2016-2018 Copyright Francois Mizessyn - https://github.com/parsimonhi/animCJK
Derived from:
    MakeMeAHanzi project - https://github.com/skishore/makemeahanzi
    Arphic PL KaitiM GB font
    Arphic PL UKai font
You can redistribute and/or modify this file under the terms of the Arphic Public License
as published by Arphic Technology Co., Ltd.
You should have received a copy of this license along with this file.
If not, see http://ftp.gnu.org/non-gnu/chinese-fonts-truetype/LICENSE.
-->
<svg id="z21930" class="acjk" version="1.1" viewBox="0 0 1024 1024" xmlns="http://www.w3.org/2000/svg" xmlns:xlink="http://www.w3.org/1999/xlink">
<style>
<![CDATA[
@keyframes zk {
	to {
		stroke-dashoffset:0;
	}
}
svg.acjk path[clip-path] {
	--t:0.8s;
	animation:zk var(--t) linear forwards calc(var(--d) * 1.25 * var(--t));
	stroke-dasharray:3337;
	stroke-dashoffset:3339;
	stroke-width:128;
	stroke-linecap:round;
	fill:none;
	stroke:#000;
}
svg.acjk path[id] {fill:#ccc;}
]]>
</style>
<path id="z21930d1" d="M557 238Q693 204 695 203Q704 196 699 187Q692 177 664 169Q640 165 558 190C521 199 521 199 503 204Q445 216 373 224Q339 230 363 246Q402 270 460 256Q479 252 505 248C540 241 540 241 557 238Z"/>
<path id="z21930d2" d="M546 499Q552 363 557 238C558 206 558 206 558 190Q558 187 559 185Q565 121 577 83Q580 71 559 56Q522 37 497 33Q481 30 472 39Q465 46 473 62Q500 101 500 127Q501 164 503 204C504 233 504 233 505 248Q506 369 502 507C502 522 546 514 546 499Z"/>
<path id="z21930d3" d="M306 342Q296 339 275 338Q265 337 262 340Q258 346 266 359Q288 392 306 448Q310 464 322 476Q338 492 341 479Q342 473 343 465C345 456 341 448 339 439Q324 378 324 362C324 353 315 344 306 342Z"/>
<path id="z21930d4" d="M441 425Q456 376 472 360Q490 341 472 329Q421 302 420 302Q413 301 406 306Q381 321 306 342C298 345 315 364 324 362Q357 353 387 346Q406 342 412 349Q413 350 401 421C399 434 438 438 441 425Z"/>
<path id="z21930d5" d="M343 465Q370 456 448 447Q455 446 457 439Q457 435 441 425C430 417 414 418 401 421C400 421 400 421 399 421Q366 431 339 439C331 442 334 467 343 465Z"/>
<path id="z21930d6" d="M631 283Q621 279 605 276Q595 275 592 278Q588 282 594 295Q613 332 626 396Q627 415 639 427Q652 443 657 432Q658 426 660 419C662 409 660 398 658 388Q648 322 647 305C647 296 639 286 631 283Z"/>
<path id="z21930d7" d="M778 380Q794 322 812 304Q831 282 812 270Q796 260 772 245Q756 236 740 245Q719 258 693 267Q668 274 631 283C622 285 638 306 647 305Q677 298 722 288Q741 284 746 291Q752 295 746 321Q740 343 734 368C731 383 775 395 778 380Z"/>
<path id="z21930d8" d="M660 419Q667 420 676 418Q710 411 782 405Q792 404 792 395Q792 389 778 380C765 372 749 365 734 368Q725 369 720 371Q684 381 658 388C648 390 650 419 660 419Z"/>
<path id="z21930d9" d="M437 550Q461 540 598 530Q679 524 782 522Q852 522 860 512Q864 500 848 486Q794 449 758 457Q676 476 546 499C517 504 517 504 502 507Q501 507 172 554Q151 555 167 573Q198 601 257 586Q272 582 288 578C319 571 319 571 335 568Q354 564 378 559C417 553 417 553 437 550Z"/>
<path id="z21930d10" d="M288 578Q307 618 307 652Q308 791 297 837Q293 870 278 888Q263 910 273 935Q285 971 304 984Q316 993 329 972Q368 923 498 803Q517 787 519 779Q520 764 498 777Q366 855 356 851Q349 847 348 826Q355 661 364 620Q370 598 335 568C324 557 282 563 288 578Z"/>
<path id="z21930d11" d="M607 692Q683 637 722 616Q740 610 735 600Q729 584 710 566Q691 548 669 547Q654 548 655 567Q658 588 589 678C584 684 601 697 607 692Z"/>
<path id="z21930d12" d="M589 678Q522 626 443 556Q440 552 437 550C423 536 360 552 378 559Q426 577 459 614Q733 888 782 896Q845 896 959 865Q978 861 985 850Q989 841 975 839Q795 811 733 775Q729 772 724 770Q672 740 607 692C595 683 595 683 589 678Z"/>
<defs>
	<clipPath id="z21930c1"><use xlink:href="#z21930d1"></use></clipPath>
	<clipPath id="z21930c2"><use xlink:href="#z21930d2"></use></clipPath>
	<clipPath id="z21930c3"><use xlink:href="#z21930d3"></use></clipPath>
	<clipPath id="z21930c4"><use xlink:href="#z21930d4"></use></clipPath>
	<clipPath id="z21930c5"><use xlink:href="#z21930d5"></use></clipPath>
	<clipPath id="z21930c6"><use xlink:href="#z21930d6"></use></clipPath>
	<clipPath id="z21930c7"><use xlink:href="#z21930d7"></use></clipPath>
	<clipPath id="z21930c8"><use xlink:href="#z21930d8"></use></clipPath>
	<clipPath id="z21930c9"><use xlink:href="#z21930d9"></use></clipPath>
	<clipPath id="z21930c10"><use xlink:href="#z21930d10"></use></clipPath>
	<clipPath id="z21930c11"><use xlink:href="#z21930d11"></use></clipPath>
	<clipPath id="z21930c12"><use xlink:href="#z21930d12"></use></clipPath>
</defs>
<path style="--d:1;" pathLength="3333" clip-path="url(#z21930c1)" d="M362 234L695 189"/>
<path style="--d:2;" pathLength="3333" clip-path="url(#z21930c2)" d="M476 45L537 96L514 504"/>
<path style="--d:3;" pathLength="3333" clip-path="url(#z21930c3)" d="M270 348L301 371L332 478"/>
<path style="--d:4;" pathLength="3333" clip-path="url(#z21930c4)" d="M313 342L409 324L441 342L413 420"/>
<path style="--d:5;" pathLength="3333" clip-path="url(#z21930c5)" d="M348 458L451 439"/>
<path style="--d:6;" pathLength="3333" clip-path="url(#z21930c6)" d="M598 285L628 319L648 430"/>
<path style="--d:7;" pathLength="3333" clip-path="url(#z21930c7)" d="M639 285L761 269L784 291L762 375"/>
<path style="--d:8;" pathLength="3333" clip-path="url(#z21930c8)" d="M667 411L786 396"/>
<path style="--d:9;" pathLength="3333" clip-path="url(#z21930c9)" d="M168 562L768 489L856 503"/>
<path style="--d:10;" pathLength="3333" clip-path="url(#z21930c10)" d="M295 581L334 621L315 883L327 935L511 777"/>
<path style="--d:11;" pathLength="3333" clip-path="url(#z21930c11)" d="M731 604L681 590L596 682"/>
<path style="--d:12;" pathLength="3333" clip-path="url(#z21930c12)" d="M391 561L430 566L778 844L977 850"/>
</svg>