<!--
AnimCJK 2016-2018 Copyright Francois Mizessyn, http://gooo.free.fr/animCJK/
Derived from:
    MakeMeAHanzi project - https://github.com/skishore/makemeahanzi
    Arphic PL KaitiM GB - https://apps.ubuntu.com/cat/applications/precise/fonts-arphic-gkai00mp/
    Arphic PL UKai - https://apps.ubuntu.com/cat/applications/fonts-arphic-ukai/
You can redistribute and/or modify this file under the terms of the Arphic Public License
as published by Arphic Technology Co., Ltd.
You should have received a copy of this license (the directory "APL") along with this file;
if not, see http://ftp.gnu.org/non-gnu/chinese-fonts-truetype/LICENSE.
-->
<svg id="z21932" class="acjk" version="1.1" viewBox="0 0 1024 1024" xmlns="http://www.w3.org/2000/svg" xmlns:xlink="http://www.w3.org/1999/xlink">
<style>
<![CDATA[
@keyframes z21932k {
	from {
		stroke:#ccc;
		stroke-dashoffset:3334;
	}
	1% {
		stroke:#c00;
		stroke-dashoffset:3334;
	}
	75% {
		stroke:#c00;
		stroke-dashoffset:0;
	}
	to {
		stroke:#000;
	}
}
#z21932 path[clip-path] {
	animation:z21932k 1s linear both;
	stroke-dasharray:3334;
	stroke-width:128;
	stroke-linecap:round;
	fill:none;
}
#z21932 path[clip-path="url(#z21932c1)"] {animation-delay:1s;}
#z21932 path[clip-path="url(#z21932c2)"] {animation-delay:2s;}
#z21932 path[clip-path="url(#z21932c3)"] {animation-delay:3s;}
#z21932 path[clip-path="url(#z21932c4)"] {animation-delay:4s;}
#z21932 path[clip-path="url(#z21932c5)"] {animation-delay:5s;}
#z21932 path[clip-path="url(#z21932c6)"] {animation-delay:6s;}
#z21932 path[clip-path="url(#z21932c7)"] {animation-delay:7s;}
#z21932 path[clip-path="url(#z21932c8)"] {animation-delay:8s;}
#z21932 path[clip-path="url(#z21932c9)"] {animation-delay:9s;}
#z21932 path[clip-path="url(#z21932c10)"] {animation-delay:10s;}
#z21932 path[clip-path="url(#z21932c11)"] {animation-delay:11s;}
#z21932 path[clip-path="url(#z21932c12)"] {animation-delay:12s;}
#z21932 path {fill:#ccc;}
]]>
</style>
<path id="z21932d1" d="M 492,154 C 576,136 627,120 646,120 658,119 665,119 668,115 671,108 669,99 663,92 651,78 629,66 603,51 593,45 585,39 576,41 571,41 567,47 566,54 561,82 478,116 318,168 311,170 313,178 317,180 325,182 424,167 443,164 Z"/>
<path id="z21932d2" d="M 471,269 C 489,266 508,263 530,261 L 562,257 C 621,249 694,248 778,248 790,247 797,244 800,239 802,232 799,224 789,217 757,194 730,186 708,192 655,204 583,220 492,235 L 424,246 C 359,256 291,265 219,276 206,277 204,282 214,293 222,301 232,307 243,310 255,313 266,312 276,310 316,297 361,286 409,279 Z"/>
<path id="z21932d3" d="M 381,399 C 407,365 438,322 471,269 L 492,235 C 501,218 510,207 518,201 522,197 524,193 523,187 520,175 510,164 492,154 L 443,164 C 443,184 439,212 424,246 L 409,279 C 380,342 283,458 169,556 155,567 141,579 125,593 120,596 120,600 127,600 173,596 241,549 327,463 338,451 350,437 362,423 Z"/>
<path id="z21932d4" d="M 530,261 C 564,301 775,525 816,533 854,540 910,535 985,524 997,522 1004,520 1006,517 1008,512 1004,507 993,503 956,488 916,475 873,460 782,428 685,366 583,275 574,267 568,261 562,257 Z"/>
<path id="z21932d5" d="M 417,410 C 411,404 402,400 381,399 L 362,423 C 372,443 384,471 395,507 398,517 402,526 409,534 420,546 426,548 430,539 430,537 431,535 431,533 L 431,503 C 426,472 423,450 421,436 Z"/>
<path id="z21932d6" d="M 592,484 C 604,456 618,441 631,432 641,424 641,411 633,403 625,394 606,384 578,371 569,366 545,374 504,388 494,391 452,403 417,410 L 421,436 C 425,434 464,426 537,411 545,409 552,409 556,413 560,417 561,422 560,430 556,448 551,465 547,481 Z"/>
<path id="z21932d7" d="M 431,533 C 435,533 439,533 445,532 479,525 532,519 605,514 611,513 614,510 615,506 615,501 607,494 592,484 L 547,481 C 504,489 465,497 431,503 Z"/>
<path id="z21932d8" d="M 279,608 C 266,599 242,596 232,600 222,602 221,609 226,616 256,660 258,738 252,812 249,840 244,864 264,891 266,893 269,897 274,902 280,909 286,912 292,907 310,888 314,842 308,768 302,705 300,664 300,646 Z"/>
<path id="z21932d9" d="M 300,646 C 340,630 507,616 673,606 706,603 718,613 729,620 738,626 747,635 748,653 749,695 741,755 732,834 729,854 721,863 702,863 679,861 658,860 640,859 627,857 623,860 627,867 630,874 642,883 663,898 690,917 710,941 728,963 735,971 744,972 754,968 759,965 767,952 779,930 796,896 807,863 807,828 806,708 809,638 823,621 830,611 832,603 825,595 817,586 797,575 765,562 752,557 740,559 727,564 708,570 672,571 621,576 396,594 298,605 279,608 Z"/>
<path id="z21932d10" d="M412 683Q403 679 383 676Q373 673 370 678Q366 682 372 697Q394 737 407 805Q410 824 422 838Q438 857 442 843Q443 834 444 821L441 791Q431 727 430 708L412 683 Z"/>
<path id="z21932d11" d="M 600,775 C 610,746 622,727 633,718 648,704 648,691 636,682 625,673 611,664 596,653 585,645 564,651 528,664 498,674 459,678 412,683 L 430,708 C 434,705 467,701 529,694 547,691 558,694 563,702 563,702 560,725 552,770 Z"/>
<path id="z21932d12" d="M 444,821 C 450,821 457,822 464,821 494,815 544,811 612,808 618,807 622,804 623,799 623,794 615,786 600,775 L 552,770 C 511,778 474,785 441,791 Z"/>
<defs>
	<clipPath id="z21932c1"><use xlink:href="#z21932d1"/></clipPath>
	<clipPath id="z21932c2"><use xlink:href="#z21932d2"/></clipPath>
	<clipPath id="z21932c3"><use xlink:href="#z21932d3"/></clipPath>
	<clipPath id="z21932c4"><use xlink:href="#z21932d4"/></clipPath>
	<clipPath id="z21932c5"><use xlink:href="#z21932d5"/></clipPath>
	<clipPath id="z21932c6"><use xlink:href="#z21932d6"/></clipPath>
	<clipPath id="z21932c7"><use xlink:href="#z21932d7"/></clipPath>
	<clipPath id="z21932c8"><use xlink:href="#z21932d8"/></clipPath>
	<clipPath id="z21932c9"><use xlink:href="#z21932d9"/></clipPath>
	<clipPath id="z21932c10"><use xlink:href="#z21932d10"/></clipPath>
	<clipPath id="z21932c11"><use xlink:href="#z21932d11"/></clipPath>
	<clipPath id="z21932c12"><use xlink:href="#z21932d12"/></clipPath>
</defs>
<path pathLength="3333" clip-path="url(#z21932c1)" d="M664 108L580 86L506 127L321 173"/>
<path pathLength="3333" clip-path="url(#z21932c2)" d="M217 283L704 220L795 227"/>
<path pathLength="3333" clip-path="url(#z21932c3)" d="M448 168L480 202L380 365L261 498L130 594"/>
<path pathLength="3333" clip-path="url(#z21932c4)" d="M539 262L820 487L998 512"/>
<path pathLength="3333" clip-path="url(#z21932c5)" d="M367 422L397 434L418 538"/>
<path pathLength="3333" clip-path="url(#z21932c6)" d="M423 429L566 393L598 419L568 482"/>
<path pathLength="3333" clip-path="url(#z21932c7)" d="M436 525L609 502"/>
<path pathLength="3333" clip-path="url(#z21932c8)" d="M232 611L275 664L284 905"/>
<path pathLength="3333" clip-path="url(#z21932c9)" d="M289 612L693 588L778 610L771 823L747 899L723 916L633 869"/>
<path pathLength="3333" clip-path="url(#z21932c10)" d="M377 684L406 713L434 842"/>
<path pathLength="3333" clip-path="url(#z21932c11)" d="M421 686L570 672L603 709L570 771"/>
<path pathLength="3333" clip-path="url(#z21932c12)" d="M448 793L616 795"/>
</svg>