<!--
AnimCJK 2016-2017 Copyright Francois Mizessyn, http://gooo.free.fr/animCJK/
Derived from:
    MakeMeAHanzi project - https://github.com/skishore/makemeahanzi
    Arphic PL KaitiM GB - https://apps.ubuntu.com/cat/applications/precise/fonts-arphic-gkai00mp/
    Arphic PL UKai - https://apps.ubuntu.com/cat/applications/fonts-arphic-ukai/
You can redistribute and/or modify this file under the terms of the Arphic Public License
as published by Arphic Technology Co., Ltd.
You should have received a copy of this license (the directory "APL") along with this file;
if not, see http://ftp.gnu.org/non-gnu/chinese-fonts-truetype/LICENSE.
-->
<svg id="z22151" class="acjk" version="1.1" viewBox="0 0 1024 1024" xmlns="http://www.w3.org/2000/svg" xmlns:xlink="http://www.w3.org/1999/xlink">
<style>
<![CDATA[
	@keyframes z22151k {
		from {
			stroke:#c00;
			stroke-dashoffset:3000;
		}
		75% {
			stroke:#c00;
			stroke-dashoffset:0;
		}
		to {
			stroke:#000;
		}
	}
	#z22151 path[clip-path] {
		animation:z22151k 1s linear both;
		stroke-dasharray:3000;
		stroke-width:128;
		stroke-linecap:round;
		fill:none;
	}
	#z22151 path[clip-path="url(#z22151c1)"] {animation-delay:1s;}
	#z22151 path[clip-path="url(#z22151c2)"] {animation-delay:2s;}
	#z22151 path[clip-path="url(#z22151c3)"] {animation-delay:3s;}
	#z22151 path[clip-path="url(#z22151c4)"] {animation-delay:4s;}
	#z22151 path[clip-path="url(#z22151c5)"] {animation-delay:5s;}
	#z22151 path[clip-path="url(#z22151c6)"] {animation-delay:6s;}
	#z22151 path[clip-path="url(#z22151c7)"] {animation-delay:7s;}
	#z22151 path[clip-path="url(#z22151c8)"] {animation-delay:8s;}
	#z22151 path[clip-path="url(#z22151c9)"] {animation-delay:9s;}
	#z22151 path[clip-path="url(#z22151c10)"] {animation-delay:10s;}
	#z22151 path[clip-path="url(#z22151c11)"] {animation-delay:11s;}
	#z22151 path[clip-path="url(#z22151c12)"] {animation-delay:12s;}
	#z22151 path[clip-path="url(#z22151c13)"] {animation-delay:13s;}
	#z22151 path[clip-path="url(#z22151c14)"] {animation-delay:14s;}
	#z22151 path[clip-path="url(#z22151c15)"] {animation-delay:15s;}
	#z22151 path[clip-path="url(#z22151c16)"] {animation-delay:16s;}
	#z22151 path[clip-path="url(#z22151c17)"] {animation-delay:17s;}
	#z22151 path {fill:#ccc;}
]]>
</style>
<g transform="scale(1,-1) translate(0,-900)">
	<path id="z22151d1" d="M98 541Q88 547 59 553Q49 556 45 551Q39 547 46 532Q71 472 84 376Q85 346 102 327Q117 306 122 321Q128 336 126 363L122 393Q109 487 107 515L98 541Z"/>
	<path id="z22151d2" d="M232 412Q248 497 270 521Q289 543 268 556Q250 566 226 580Q210 589 193 579Q174 566 147 556Q125 549 98 541L107 515Q113 519 178 534Q197 538 201 531Q208 525 202 493Q195 457 187 414L232 412Z"/>
	<path id="z22151d3" d="M126 363Q129 363 133 364Q167 374 244 385Q253 386 253 394Q253 401 232 412L187 414L185 414Q149 401 122 393L126 363Z"/>
	<path id="z22151d4" d="M474 600Q550 624 553 626Q560 635 556 642Q549 652 521 656Q497 659 477 649L426 629Q417 628 410 624Q376 614 337 607Q304 598 330 585Q366 567 427 586L474 600Z"/>
	<path id="z22151d5" d="M469 518Q470 561 474 600L477 649Q477 661 493 770Q496 780 477 794Q443 810 421 815Q405 818 398 810Q391 803 399 788Q418 764 418 747Q422 692 426 629L427 586Q428 547 428 504L469 518Z"/>
	<path id="z22151d6" d="M467 477Q467 478 560 498Q569 498 575 509Q575 519 555 526Q522 542 469 518L428 504Q383 492 273 465Q249 459 269 447Q299 426 323 435L329 437L363 447Q393 457 430 467L467 477Z"/>
	<path id="z22151d7" d="M329 437Q344 401 326 290Q310 185 232 120Q220 110 209 101Q196 92 193 87Q190 81 200 81Q230 78 282 121Q361 196 387 382Q391 398 395 407Q402 423 385 434Q372 441 363 447L329 437Z"/>
	<path id="z22151d8" d="M491 386Q495 452 495 455Q488 465 467 477L430 467Q440 457 442 323Q441 250 439 135Q438 107 429 96Q419 90 395 97Q388 97 379 95Q369 98 369 92Q370 85 379 78Q416 41 438 13Q448 6 460 18Q494 64 489 178Q486 244 489 365L491 386Z"/>
	<path id="z22151d9" d="M254 338Q230 295 199 258Q177 233 191 200Q195 184 216 193Q262 226 271 286Q278 314 274 336Q271 343 266 345Q259 345 254 338Z"/>
	<path id="z22151d10" d="M489 365Q543 316 552 316Q559 316 562 325Q565 334 559 353Q556 365 537 374Q494 387 491 386L489 365Z"/>
	<path id="z22151d11" d="M766 608Q881 645 886 649Q893 656 888 665Q881 675 851 680Q821 683 794 668Q782 664 770 658L716 638Q680 628 641 621Q607 611 634 598Q667 583 716 592L766 608Z"/>
	<path id="z22151d12" d="M757 506Q761 558 766 608L770 658Q771 734 791 798Q794 808 774 824Q738 843 714 847Q698 851 690 842Q683 835 691 820Q710 792 711 773Q715 709 716 638L716 592Q716 547 715 498L757 506Z"/>
	<path id="z22151d13" d="M799 479Q865 488 949 489Q965 490 968 497Q972 507 958 517Q915 547 858 530Q816 520 757 506L715 498Q651 488 577 474Q561 471 573 459Q585 449 599 445Q615 441 628 446Q631 447 637 448L663 455Q727 474 761 474L799 479Z"/>
	<path id="z22151d14" d="M637 448Q653 396 655 393Q655 246 622 168Q604 129 543 66Q530 56 528 50Q527 44 536 45Q566 45 617 96Q692 172 705 388Q709 404 711 413Q715 429 699 439Q677 451 663 455L637 448Z"/>
	<path id="z22151d15" d="M761 474Q762 468 768 459Q778 437 777 402Q781 45 767 22Q757 16 733 23Q711 30 684 39Q674 43 673 36Q673 29 682 20Q740 -29 775 -68Q785 -77 798 -63Q831 -20 831 70Q821 250 833 421Q837 445 833 454Q826 464 799 479L761 474Z"/>
	<path id="z22151d16" d="M584 327Q571 287 549 250Q534 222 550 198Q557 185 573 195Q610 226 608 283Q609 308 603 328Q599 335 594 335Q587 334 584 327Z"/>
	<path id="z22151d17" d="M862 295Q893 261 931 212Q944 193 958 187Q965 186 973 194Q985 206 976 246Q973 268 959 283Q928 307 865 323Q858 329 855 317Q854 305 862 295Z"/>
	<defs>
		<clipPath id="z22151c1"><use xlink:href="#z22151d1"/></clipPath>
		<clipPath id="z22151c2"><use xlink:href="#z22151d2"/></clipPath>
		<clipPath id="z22151c3"><use xlink:href="#z22151d3"/></clipPath>
		<clipPath id="z22151c4"><use xlink:href="#z22151d4"/></clipPath>
		<clipPath id="z22151c5"><use xlink:href="#z22151d5"/></clipPath>
		<clipPath id="z22151c6"><use xlink:href="#z22151d6"/></clipPath>
		<clipPath id="z22151c7"><use xlink:href="#z22151d7"/></clipPath>
		<clipPath id="z22151c8"><use xlink:href="#z22151d8"/></clipPath>
		<clipPath id="z22151c9"><use xlink:href="#z22151d9"/></clipPath>
		<clipPath id="z22151c10"><use xlink:href="#z22151d10"/></clipPath>
		<clipPath id="z22151c11"><use xlink:href="#z22151d11"/></clipPath>
		<clipPath id="z22151c12"><use xlink:href="#z22151d12"/></clipPath>
		<clipPath id="z22151c13"><use xlink:href="#z22151d13"/></clipPath>
		<clipPath id="z22151c14"><use xlink:href="#z22151d14"/></clipPath>
		<clipPath id="z22151c15"><use xlink:href="#z22151d15"/></clipPath>
		<clipPath id="z22151c16"><use xlink:href="#z22151d16"/></clipPath>
		<clipPath id="z22151c17"><use xlink:href="#z22151d17"/></clipPath>
	</defs>
	<path pathLength="2999" clip-path="url(#z22151c1)" d="M50 545L82 507L111 321"/>
	<path pathLength="2999" clip-path="url(#z22151c2)" d="M104 538L206 559L235 541L199 416"/>
	<path pathLength="2999" clip-path="url(#z22151c3)" d="M131 372L246 391"/>
	<path pathLength="2999" clip-path="url(#z22151c4)" d="M326 598L553 637"/>
	<path pathLength="2999" clip-path="url(#z22151c5)" d="M402 808L455 761L438 508"/>
	<path pathLength="2999" clip-path="url(#z22151c6)" d="M268 456L567 512"/>
	<path pathLength="2999" clip-path="url(#z22151c7)" d="M336 430L366 395L327 222L270 133L197 87"/>
	<path pathLength="2999" clip-path="url(#z22151c8)" d="M439 462L467 433L459 94L436 53L374 89"/>
	<path pathLength="2999" clip-path="url(#z22151c9)" d="M265 338L194 199"/>
	<path pathLength="2999" clip-path="url(#z22151c10)" d="M497 381L555 322"/>
	<path pathLength="2999" clip-path="url(#z22151c11)" d="M633 609L881 659"/>
	<path pathLength="2999" clip-path="url(#z22151c12)" d="M694 838L750 792L731 502"/>
	<path pathLength="2999" clip-path="url(#z22151c13)" d="M575 468L886 512L964 502"/>
	<path pathLength="2999" clip-path="url(#z22151c14)" d="M646 441L682 409L657 212L624 135L538 50"/>
	<path pathLength="2999" clip-path="url(#z22151c15)" d="M769 470L805 438L796 10L767 -26L677 30"/>
	<path pathLength="2999" clip-path="url(#z22151c16)" d="M596 329L558 196"/>
	<path pathLength="2999" clip-path="url(#z22151c17)" d="M863 317L938 256L970 194"/>
</g>
</svg>