<!--
AnimCJK 2016-2026 Copyright FM-SH, https://github.com/parsimonhi/animCJK
Derived from:
    MakeMeAHanzi project - https://github.com/skishore/makemeahanzi
    Arphic PL KaitiM GB font
    Arphic PL KaitiM Big5 font
You can redistribute and/or modify this file under the terms of the Arphic Public License
as published by Arphic Technology Co., Ltd.
You should have received a copy of this license along with this file.
If not, see https://ftp.gnu.org/non-gnu/chinese-fonts-truetype/LICENSE.
-->
<svg id="z22263" class="acjk" viewBox="0 0 1024 1024" xmlns="http://www.w3.org/2000/svg">
<style>
<![CDATA[
@keyframes zk {
	to {
		stroke-dashoffset:0;
	}
}
svg.acjk path[clip-path] {
	--t:0.8s;
	animation:zk var(--t) linear forwards var(--d);
	stroke-dasharray:3337;
	stroke-dashoffset:3339;
	stroke-width:128;
	stroke-linecap:round;
	fill:none;
	stroke:#000;
}
svg.acjk path[id] {fill:#ccc;}
]]>
</style>
<path id="z22263d1" d="M244 169C187 132 173 146 182 168C198 210 206 255 209 299C220 485 208 634 178 744C164 793 168 835 199 874C207 884 215 885 224 875C234 862 237 848 239 833C242 804 242 804 244 789C248 749 257 266 263 223C267 204 259 180 244 169Z"/>
<path id="z22263d2" d="M731 810C744 853 776 950 809 891C830 852 827 772 825 648C819 380 824 237 835 217C844 198 854 184 853 171C852 161 839 148 814 132C799 122 771 106 751 96C729 84 711 102 637 116C571 128 292 175 244 169C225 169 244 227 263 223C409 192 558 168 708 158C734 156 743 164 747 190C753 224 757 347 758 491C758 557 763 754 741 792C738 798 730 803 731 810Z"/>
<path id="z22263d3" d="M500 307C525 298 559 287 596 278C624 270 619 258 609 250C596 239 576 229 550 218C536 212 518 202 516 225C513 251 451 285 337 337C332 339 333 348 337 348C380 345 425 331 467 318C489 311 489 311 500 307Z"/>
<path id="z22263d4" d="M522 442C558 436 601 430 652 430C734 428 708 410 690 400C630 365 602 387 524 404C496 410 496 410 482 413C444 421 339 440 301 449C290 451 287 457 297 465C316 480 336 484 355 478C383 468 414 459 449 454C498 446 498 446 522 442Z"/>
<path id="z22263d5" d="M520 504C520 483 520 463 522 442C523 417 523 417 524 404C528 324 553 336 500 307C490 301 461 308 467 318C485 346 482 380 482 413C482 473 482 473 482 503C482 571 476 611 472 644C469 662 470 684 482 713C493 740 503 726 513 709C518 698 519 685 519 671C518 658 520 610 520 528C520 512 520 512 520 504Z"/>
<path id="z22263d6" d="M449 454C442 501 393 563 300 640C277 655 271 672 304 661C378 633 426 588 482 503C514 461 459 402 449 454Z"/>
<path id="z22263d7" d="M520 528C556 552 596 580 639 618C675 650 696 630 674 578C660 546 608 521 520 504C512 502 514 523 520 528Z"/>
<path id="z22263d8" d="M239 833C280 831 584 800 731 810C738 810 746 797 741 792C658 705 699 755 244 789C229 789 224 833 239 833Z"/>
<defs>
	<clipPath id="z22263c1"><use href="#z22263d1"/></clipPath>
	<clipPath id="z22263c2"><use href="#z22263d2"/></clipPath>
	<clipPath id="z22263c3"><use href="#z22263d3"/></clipPath>
	<clipPath id="z22263c4"><use href="#z22263d4"/></clipPath>
	<clipPath id="z22263c5"><use href="#z22263d5"/></clipPath>
	<clipPath id="z22263c6"><use href="#z22263d6"/></clipPath>
	<clipPath id="z22263c7"><use href="#z22263d7"/></clipPath>
	<clipPath id="z22263c8"><use href="#z22263d8"/></clipPath>
</defs>
<path style="--d:1s;" pathLength="3333" clip-path="url(#z22263c1)" d="M188 155L225 194L234 290L209 878"/>
<path style="--d:2s;" pathLength="3333" clip-path="url(#z22263c2)" d="M244 177L284 194L724 126L788 163L782 905"/>
<path style="--d:3s;" pathLength="3333" clip-path="url(#z22263c3)" d="M526 214L552 262L343 344"/>
<path style="--d:4s;" pathLength="3333" clip-path="url(#z22263c4)" d="M298 457L603 407L704 415"/>
<path style="--d:5s;" pathLength="3333" clip-path="url(#z22263c5)" d="M475 317L507 348L496 719"/>
<path style="--d:6s;" pathLength="3333" clip-path="url(#z22263c6)" d="M465 438L468 478L427 544L289 658"/>
<path style="--d:7s;" pathLength="3333" clip-path="url(#z22263c7)" d="M521 512L628 570L677 626"/>
<path style="--d:8s;" pathLength="3333" clip-path="url(#z22263c8)" d="M233 820L656 775L738 792"/>
</svg>