<!--
AnimCJK 2016-2019 Copyright Francois Mizessyn - https://github.com/parsimonhi/animCJK
Derived from:
    MakeMeAHanzi project - https://github.com/skishore/makemeahanzi
    Arphic PL KaitiM GB font
    Arphic PL UKai font
You can redistribute and/or modify this file under the terms of the Arphic Public License
as published by Arphic Technology Co., Ltd.
You should have received a copy of this license along with this file.
If not, see http://ftp.gnu.org/non-gnu/chinese-fonts-truetype/LICENSE.
-->
<svg id="z22311" class="acjk" version="1.1" viewBox="0 0 1024 1024" xmlns="http://www.w3.org/2000/svg" xmlns:xlink="http://www.w3.org/1999/xlink">
<style>
<![CDATA[
@keyframes zk {
	to {
		stroke-dashoffset:0;
	}
}
svg.acjk path[clip-path] {
	--t:0.8s;
	animation:zk var(--t) linear forwards var(--d);
	stroke-dasharray:3337;
	stroke-dashoffset:3339;
	stroke-width:128;
	stroke-linecap:round;
	fill:none;
	stroke:#000;
}
svg.acjk path[id] {fill:#ccc;}
]]>
</style>
<path id="z22311d1" d="M333 246C357 256 387 258 421 252C509 236 598 220 690 204C732 196 756 188 762 183C768 177 770 171 767 165C762 156 749 148 729 143C707 137 663 149 595 168C505 193 418 205 334 213C323 215 323 242 333 246Z"/>
<path id="z22311d2" d="M334 213C323 201 306 191 286 181C272 174 262 170 253 174C244 178 241 186 247 196C258 214 266 246 262 293C250 419 236 504 225 548C217 576 209 603 200 629C170 705 127 783 72 864C68 869 65 872 64 877C61 884 64 887 72 886C91 881 129 843 182 769C197 747 209 723 222 698C270 598 301 482 316 351C322 293 327 258 333 246C337 236 342 221 334 213Z"/>
<path id="z22311d3" d="M584 577C624 571 665 564 708 557C747 550 770 542 776 538C782 532 784 527 782 522C777 513 765 506 746 501C725 495 705 497 685 504C652 514 619 523 586 530C553 537 553 537 537 540C484 550 427 555 366 559C340 560 336 569 354 581C377 597 416 601 470 594C492 590 514 587 537 584C568 579 568 579 584 577Z"/>
<path id="z22311d4" d="M571 794C575 718 581 646 585 574C586 546 586 546 587 532C589 471 596 407 614 341C616 333 611 324 596 316C570 302 546 296 528 293C516 290 507 292 501 298C495 303 495 310 502 320C523 347 532 370 534 390C538 443 536 489 536 541C536 568 536 568 536 581C536 650 531 721 526 799C526 814 571 809 571 794Z"/>
<path id="z22311d5" d="M526 799C432 809 330 818 221 829C206 830 203 837 215 850C236 872 262 881 292 874C436 839 626 822 860 827C880 827 898 827 915 828C929 828 940 826 944 820C949 811 944 800 932 791C887 756 850 750 818 758C754 772 672 782 571 794C541 797 541 797 526 799Z"/>
<defs>
	<clipPath id="z22311c1"><use xlink:href="#z22311d1"/></clipPath>
	<clipPath id="z22311c2"><use xlink:href="#z22311d2"/></clipPath>
	<clipPath id="z22311c3"><use xlink:href="#z22311d3"/></clipPath>
	<clipPath id="z22311c4"><use xlink:href="#z22311d4"/></clipPath>
	<clipPath id="z22311c5"><use xlink:href="#z22311d5"/></clipPath>
</defs>
<path style="--d:1s;" pathLength="3333" clip-path="url(#z22311c1)" d="M339 240L764 169"/>
<path style="--d:2s;" pathLength="3333" clip-path="url(#z22311c2)" d="M251 179L297 232L252 547L179 730L72 879"/>
<path style="--d:3s;" pathLength="3333" clip-path="url(#z22311c3)" d="M352 569L462 573L778 528"/>
<path style="--d:4s;" pathLength="3333" clip-path="url(#z22311c4)" d="M500 305L571 349L546 798"/>
<path style="--d:5s;" pathLength="3333" clip-path="url(#z22311c5)" d="M215 836L270 850L841 790L941 806"/>
</svg>