<!--
AnimCJK 2016-2019 Copyright Francois Mizessyn - https://github.com/parsimonhi/animCJK
Derived from:
    MakeMeAHanzi project - https://github.com/skishore/makemeahanzi
    Arphic PL KaitiM GB font
    Arphic PL UKai font
You can redistribute and/or modify this file under the terms of the Arphic Public License
as published by Arphic Technology Co., Ltd.
You should have received a copy of this license along with this file.
If not, see http://ftp.gnu.org/non-gnu/chinese-fonts-truetype/LICENSE.
-->
<svg id="z22495" class="acjk" version="1.1" viewBox="0 0 1024 1024" xmlns="http://www.w3.org/2000/svg" xmlns:xlink="http://www.w3.org/1999/xlink">
<style>
<![CDATA[
@keyframes zk {
	to {
		stroke-dashoffset:0;
	}
}
svg.acjk path[clip-path] {
	--t:0.8s;
	animation:zk var(--t) linear forwards var(--d);
	stroke-dasharray:3337;
	stroke-dashoffset:3339;
	stroke-width:128;
	stroke-linecap:round;
	fill:none;
	stroke:#000;
}
svg.acjk path[id] {fill:#ccc;}
]]>
</style>
<path id="z22495d1" d="M291 429Q315 420 342 413Q373 403 378 398Q385 389 380 382Q373 372 345 368Q317 367 292 380C261 393 261 393 246 399Q177 420 125 433Q92 442 117 455Q150 470 225 449Q235 446 247 443C276 434 276 434 291 429Z"/>
<path id="z22495d2" d="M285 621Q289 522 291 429C292 396 292 396 292 380Q295 250 312 189Q315 179 295 163Q259 145 234 142Q218 138 210 147Q203 154 211 170Q239 210 240 238Q244 314 246 399C247 428 247 428 247 443Q247 536 243 638C243 653 285 636 285 621Z"/>
<path id="z22495d3" d="M243 638Q185 660 121 685Q105 692 77 693Q64 696 63 706Q62 719 73 726Q97 739 131 755Q141 758 153 748Q187 715 327 635Q348 623 362 609Q374 600 373 591Q367 587 355 590Q321 605 285 621C257 632 257 632 243 638Z"/>
<path id="z22495d4" d="M642 347Q766 311 772 306Q779 299 775 291Q768 281 741 275Q714 271 634 304C607 313 607 313 594 317Q501 342 435 354Q401 361 426 375Q462 393 527 377Q561 368 602 358C629 351 629 351 642 347Z"/>
<path id="z22495d5" d="M419 483Q410 477 379 472Q369 471 366 474Q362 480 368 493Q390 536 406 610Q409 632 422 646Q438 665 442 651Q445 642 444 629C442 610 442 610 441 600Q428 531 426 508C424 500 427 487 419 483Z"/>
<path id="z22495d6" d="M560 579Q570 519 589 500Q607 478 587 467Q571 458 547 444Q531 437 515 446Q494 461 419 483C411 486 418 511 426 508Q426 507 497 488Q518 484 523 491Q529 495 525 521Q521 545 517 573C514 587 557 593 560 579Z"/>
<path id="z22495d7" d="M444 629Q451 629 461 626Q495 616 569 603Q578 602 578 594Q578 587 560 579C547 574 531 570 517 573Q511 574 509 576Q472 591 441 600C432 604 434 629 444 629Z"/>
<path id="z22495d8" d="M315 743Q302 744 301 755Q300 768 309 775Q331 788 364 805Q374 808 385 799Q418 771 552 700Q571 690 586 677Q598 670 597 660Q593 656 580 658Q364 742 315 743Z"/>
<path id="z22495d9" d="M703 677Q763 801 856 877Q916 925 945 923Q964 919 957 891Q950 839 949 686Q948 662 938 661Q932 662 926 684Q916 729 905 765Q896 804 882 806Q869 807 843 786Q786 732 732 637C719 606 719 606 712 591Q672 498 642 347C637 318 637 318 634 304Q619 214 626 147Q636 110 584 91Q551 78 532 86Q514 93 524 111Q569 147 570 178Q582 251 594 317C599 344 599 344 602 358Q633 511 684 634C697 663 697 663 703 677Z"/>
<path id="z22495d10" d="M684 634Q677 643 671 654Q620 726 554 797Q548 801 548 808Q548 812 553 813Q598 804 703 677C722 650 722 650 732 637Q778 573 806 519Q825 479 839 461Q845 451 837 437Q821 412 805 401Q792 391 776 391Q761 391 767 410Q783 470 712 591C693 620 693 620 684 634Z"/>
<path id="z22495d11" d="M724 159Q751 178 780 201Q793 211 808 210Q818 209 821 196Q824 181 813 156Q801 129 716 116Q701 115 696 117Q692 121 694 133Q698 143 724 159Z"/>
<defs>
	<clipPath id="z22495c1"><use xlink:href="#z22495d1"/></clipPath>
	<clipPath id="z22495c2"><use xlink:href="#z22495d2"/></clipPath>
	<clipPath id="z22495c3"><use xlink:href="#z22495d3"/></clipPath>
	<clipPath id="z22495c4"><use xlink:href="#z22495d4"/></clipPath>
	<clipPath id="z22495c5"><use xlink:href="#z22495d5"/></clipPath>
	<clipPath id="z22495c6"><use xlink:href="#z22495d6"/></clipPath>
	<clipPath id="z22495c7"><use xlink:href="#z22495d7"/></clipPath>
	<clipPath id="z22495c8"><use xlink:href="#z22495d8"/></clipPath>
	<clipPath id="z22495c9"><use xlink:href="#z22495d9"/></clipPath>
	<clipPath id="z22495c10"><use xlink:href="#z22495d10"/></clipPath>
	<clipPath id="z22495c11"><use xlink:href="#z22495d11"/></clipPath>
</defs>
<path style="--d:1s;" pathLength="3333" clip-path="url(#z22495c1)" d="M116 445L377 389"/>
<path style="--d:2s;" pathLength="3333" clip-path="url(#z22495c2)" d="M214 152L274 202L250 631"/>
<path style="--d:3s;" pathLength="3333" clip-path="url(#z22495c3)" d="M68 705L138 717L366 596"/>
<path style="--d:4s;" pathLength="3333" clip-path="url(#z22495c4)" d="M425 364L772 294"/>
<path style="--d:5s;" pathLength="3333" clip-path="url(#z22495c5)" d="M371 478L398 499L435 649"/>
<path style="--d:6s;" pathLength="3333" clip-path="url(#z22495c6)" d="M427 488L527 464L559 484L534 574"/>
<path style="--d:7s;" pathLength="3333" clip-path="url(#z22495c7)" d="M449 622L571 595"/>
<path style="--d:8s;" pathLength="3333" clip-path="url(#z22495c8)" d="M305 756L366 770L592 666"/>
<path style="--d:9s;" pathLength="3333" clip-path="url(#z22495c9)" d="M525 99L594 138L659 505L766 738L843 824L930 870L939 669"/>
<path style="--d:10s;" pathLength="3333" clip-path="url(#z22495c10)" d="M773 397L805 452L768 537L676 680L554 805"/>
<path style="--d:11s;" pathLength="3333" clip-path="url(#z22495c11)" d="M700 122L786 168L810 206"/>
</svg>