<!--
AnimCJK 2016-2017 Copyright Francois Mizessyn, http://gooo.free.fr/animCJK/
Derived from:
    MakeMeAHanzi project - https://github.com/skishore/makemeahanzi
    Arphic PL KaitiM GB - https://apps.ubuntu.com/cat/applications/precise/fonts-arphic-gkai00mp/
    Arphic PL UKai - https://apps.ubuntu.com/cat/applications/fonts-arphic-ukai/
You can redistribute and/or modify this file under the terms of the Arphic Public License
as published by Arphic Technology Co., Ltd.
You should have received a copy of this license (the directory "APL") along with this file;
if not, see http://ftp.gnu.org/non-gnu/chinese-fonts-truetype/LICENSE.
-->
<svg id="z22533" class="acjk" version="1.1" viewBox="0 0 1024 1024" xmlns="http://www.w3.org/2000/svg" xmlns:xlink="http://www.w3.org/1999/xlink">
<style>
<![CDATA[
	@keyframes z22533k {
		from {
			stroke:#c00;
			stroke-dashoffset:3000;
		}
		75% {
			stroke:#c00;
			stroke-dashoffset:0;
		}
		to {
			stroke:#000;
		}
	}
	#z22533 path[clip-path] {
		animation:z22533k 1s linear both;
		stroke-dasharray:3000;
		stroke-width:128;
		stroke-linecap:round;
		fill:none;
	}
	#z22533 path[clip-path="url(#z22533c1)"] {animation-delay:1s;}
	#z22533 path[clip-path="url(#z22533c2)"] {animation-delay:2s;}
	#z22533 path[clip-path="url(#z22533c3)"] {animation-delay:3s;}
	#z22533 path[clip-path="url(#z22533c4)"] {animation-delay:4s;}
	#z22533 path[clip-path="url(#z22533c5)"] {animation-delay:5s;}
	#z22533 path[clip-path="url(#z22533c6)"] {animation-delay:6s;}
	#z22533 path[clip-path="url(#z22533c7)"] {animation-delay:7s;}
	#z22533 path[clip-path="url(#z22533c8)"] {animation-delay:8s;}
	#z22533 path[clip-path="url(#z22533c9)"] {animation-delay:9s;}
	#z22533 path[clip-path="url(#z22533c10)"] {animation-delay:10s;}
	#z22533 path[clip-path="url(#z22533c11)"] {animation-delay:11s;}
	#z22533 path[clip-path="url(#z22533c12)"] {animation-delay:12s;}
	#z22533 path {fill:#ccc;}
]]>
</style>
<g transform="scale(1,-1) translate(0,-900)">
	<path id="z22533d1" d="M192 331C195 323 197 319 202 315C205 312 211 311 215 313C225 318 234 337 235 374C236 407 239 528 240 627C240 664 244 720 244 725C242 731 237 745 230 754C214 762 204 764 195 758C191 753 190 747 194 739C207 720 205 686 206 668C207 550 200 455 190 386C180 363 186 345 192 331Z"/>
	<path id="z22533d2" d="M368 743Q410 756 455 767Q488 777 493 782Q500 789 495 797Q488 807 461 813Q433 817 407 804Q370 788 329 776Q283 763 230 755L245 725Q260 722 327 733Q328 734 332 734L368 743Z"/>
	<path id="z22533d3" d="M369 642Q381 705 381 708Q388 721 382 730Q375 737 368 743L332 734L331 629L369 642Z"/>
	<path id="z22533d4" d="M433 529L389 533C405 576 412 601 408 608C404 612 397 612 387 610C306 593 257 583 240 581C240 590 240 599 240 608C266 613 293 619 319 626C322 627 326 628 331 629L369 642C397 655 417 659 429 653C457 638 476 627 485 619C492 609 491 599 483 589C466 581 449 561 433 529Z"/>
	<path id="z22533d5" d="M237 463C238 472 238 482 238 492C281 501 330 514 384 532C384 532 386 533 389 533L433 529C449 520 457 513 457 509C456 503 452 499 446 499C416 495 389 490 367 486L328 479C308 475 293 471 280 469C261 465 247 463 237 463Z"/>
	<path id="z22533d6" d="M366 397Q373 446 377 451Q384 467 367 486L328 479Q329 478 329 473Q329 463 327 387L366 397Z"/>
	<path id="z22533d7" d="M230 336C232 344 234 354 234 366C262 372 283 382 326 390C336 392 417 407 446 403C458 403 474 400 476 384C474 366 386 360 343 354C309 350 276 345 230 336Z"/>
	<path id="z22533d8" d="M706 509Q745 561 780 664Q790 694 810 714Q828 730 814 744Q799 754 767 765Q742 771 716 755Q688 742 650 728Q611 715 546 703Q531 702 527 693Q523 686 543 679Q582 666 631 685Q689 710 699 710Q724 711 721 684Q706 609 679 558Q673 549 668 540L644 509Q593 455 503 424Q490 418 502 411Q506 407 543 409Q609 415 675 475L706 509Z"/>
	<path id="z22533d9" d="M675 475Q777 361 818 361Q897 362 960 372Q994 376 990 386Q987 393 902 416Q782 453 709 507Q706 508 706 509L668 540Q635 568 602 602Q568 636 537 636Q521 636 518 631Q517 625 531 616Q568 594 644 509L675 475Z"/>
	<path id="z22533d10" d="M543 183Q696 214 702 219Q712 226 707 236Q700 248 670 256Q645 262 547 233L486 218Q426 208 359 202Q322 196 347 178Q390 156 460 168Q472 171 487 172L543 183Z"/>
	<path id="z22533d11" d="M536 75Q539 133 543 183L547 233Q548 273 555 287Q565 306 553 317Q522 342 495 349Q482 352 469 342Q465 335 469 325Q481 310 486 222Q485 221 486 218L487 172Q488 123 491 70L536 75Z"/>
	<path id="z22533d12" d="M491 70Q352 57 191 40Q167 39 184 19Q199 3 219 -3Q241 -10 260 -5Q449 40 828 41Q850 41 874 39Q896 38 902 48Q909 61 891 76Q831 124 779 111Q685 95 536 75L491 70Z"/>
	<defs>
		<clipPath id="z22533c1"><use xlink:href="#z22533d1"/></clipPath>
		<clipPath id="z22533c2"><use xlink:href="#z22533d2"/></clipPath>
		<clipPath id="z22533c3"><use xlink:href="#z22533d3"/></clipPath>
		<clipPath id="z22533c4"><use xlink:href="#z22533d4"/></clipPath>
		<clipPath id="z22533c5"><use xlink:href="#z22533d5"/></clipPath>
		<clipPath id="z22533c6"><use xlink:href="#z22533d6"/></clipPath>
		<clipPath id="z22533c7"><use xlink:href="#z22533d7"/></clipPath>
		<clipPath id="z22533c8"><use xlink:href="#z22533d8"/></clipPath>
		<clipPath id="z22533c9"><use xlink:href="#z22533d9"/></clipPath>
		<clipPath id="z22533c10"><use xlink:href="#z22533d10"/></clipPath>
		<clipPath id="z22533c11"><use xlink:href="#z22533d11"/></clipPath>
		<clipPath id="z22533c12"><use xlink:href="#z22533d12"/></clipPath>
	</defs>
	<path pathLength="2999" clip-path="url(#z22533c1)" d="M203 757L224 704L212 319"/>
	<path pathLength="2999" clip-path="url(#z22533c2)" d="M238 752L489 791"/>
	<path pathLength="2999" clip-path="url(#z22533c3)" d="M337 728L358 701L343 634"/>
	<path pathLength="2999" clip-path="url(#z22533c4)" d="M246 590L418 631L449 601L400 535"/>
	<path pathLength="2999" clip-path="url(#z22533c5)" d="M246 470L450 510"/>
	<path pathLength="2999" clip-path="url(#z22533c6)" d="M336 474L353 441L340 391"/>
	<path pathLength="2999" clip-path="url(#z22533c7)" d="M240 343L471 385"/>
	<path pathLength="2999" clip-path="url(#z22533c8)" d="M534 692L727 734L770 713L661 494L585 439L504 419"/>
	<path pathLength="2999" clip-path="url(#z22533c9)" d="M527 630L793 414L981 385"/>
	<path pathLength="2999" clip-path="url(#z22533c10)" d="M349 189L701 236"/>
	<path pathLength="2999" clip-path="url(#z22533c11)" d="M473 340L519 296L513 73"/>
	<path pathLength="2999" clip-path="url(#z22533c12)" d="M181 32L240 19L802 78L899 61"/>
</g>
</svg>