<!--
AnimCJK 2016-2026 Copyright FM-SH - https://github.com/parsimonhi/animCJK
Derived from:
    MakeMeAHanzi project - https://github.com/skishore/makemeahanzi
    Arphic PL KaitiM GB font
    Arphic PL KaitiM Big5 font
You can redistribute and/or modify this file under the terms of the Arphic Public License
as published by Arphic Technology Co., Ltd.
You should have received a copy of this license along with this file.
If not, see https://ftp.gnu.org/non-gnu/chinese-fonts-truetype/LICENSE.
-->
<svg id="z22557" class="acjk" viewBox="0 0 1024 1024" xmlns="http://www.w3.org/2000/svg">
<style>
<![CDATA[
@keyframes zk {
	to {
		stroke-dashoffset:0;
	}
}
svg.acjk path[clip-path] {
	--t:0.8s;
	animation:zk var(--t) linear forwards var(--d);
	stroke-dasharray:3337;
	stroke-dashoffset:3339;
	stroke-width:128;
	stroke-linecap:round;
	fill:none;
	stroke:#000;
}
svg.acjk path[id] {fill:#ccc;}
]]>
</style>
<path id="z22557d1" d="M275 379C210 399 165 408 143 412C136 412 103 419 134 435C178 456 230 443 276 431C306 422 306 422 321 418C381 400 413 389 418 386C426 378 426 364 396 355C371 347 349 354 324 363C291 374 291 374 275 379Z"/>
<path id="z22557d2" d="M324 363C331 223 348 179 346 165C345 159 340 151 328 145C295 126 269 120 253 122C232 124 233 139 242 152C284 219 273 303 275 379C276 414 276 414 276 431C277 486 272 552 270 626C270 643 316 623 316 606C318 530 318 467 321 418C323 381 323 381 324 363Z"/>
<path id="z22557d3" d="M270 626C213 650 169 670 110 680C84 683 92 711 104 718C120 727 134 733 145 738C163 746 176 748 184 744C186 742 192 736 201 729C268 669 333 635 413 582C431 569 436 557 409 565C409 565 373 581 316 606C285 619 285 619 270 626Z"/>
<path id="z22557d4" d="M555 188Q539 176 518 169Q505 165 496 170Q489 176 495 191Q516 233 525 277Q531 323 542 507C542 520 580 513 580 500Q568 278 576 226C576 221 576 221 576 218C576 206 565 195 555 188Z"/>
<path id="z22557d5" d="M796 459Q803 267 853 200Q869 181 852 163Q834 151 779 131Q760 125 738 135Q675 163 555 188C543 190 565 223 576 218Q577 215 725 184Q743 180 751 187Q770 202 771 239Q770 267 767 294C765 315 765 315 764 325Q757 401 745 467C742 484 796 476 796 459Z"/>
<path id="z22557d6" d="M682 479Q682 383 688 342C690 333 687 322 681 316Q665 300 642 291Q632 287 624 291Q618 295 622 308Q635 333 640 358Q643 383 649 485C649 496 682 490 682 479Z"/>
<path id="z22557d7" d="M688 342Q725 332 764 325C774 323 777 296 767 294Q766 293 762 293Q732 290 681 316C673 319 679 344 688 342Z"/>
<path id="z22557d8" d="M475 517C474 516 473 515 472 515C454 506 445 504 435 506C426 508 424 513 428 521C444 576 441 648 427 728C415 770 418 802 436 824C440 832 446 835 452 831C472 816 482 774 483 705C485 626 487 576 489 554C489 541 486 525 475 517Z"/>
<path id="z22557d9" d="M489 554Q496 554 505 549Q596 521 824 488Q845 487 858 496Q877 503 879 534Q883 610 863 745Q863 773 837 772Q803 769 774 767Q758 766 763 775Q767 785 796 802Q836 830 863 862Q876 872 890 866Q900 860 915 824Q940 770 935 662Q931 515 943 497Q953 484 945 473Q935 461 892 443Q873 436 857 444Q838 450 796 459C762 464 762 464 745 467Q711 471 682 479C660 483 660 483 649 485Q619 489 596 496Q587 497 580 500C555 505 555 505 542 507Q505 511 475 517C462 520 476 557 489 554Z"/>
<path id="z22557d10" d="M579 600Q567 596 543 593Q533 590 530 595Q526 601 533 613Q555 652 570 715Q574 734 586 747Q602 765 605 751Q608 744 607 731C604 712 604 712 603 702Q593 645 591 626C589 617 588 602 579 600Z"/>
<path id="z22557d11" d="M749 685Q767 634 784 620Q806 596 785 583Q766 573 742 555Q724 543 683 569Q626 590 579 600C570 602 582 628 591 626Q598 625 609 622Q649 612 685 603Q709 597 714 606Q718 610 702 677C699 693 743 700 749 685Z"/>
<path id="z22557d12" d="M607 731Q616 732 628 730Q668 721 757 713Q767 712 768 703Q768 696 749 685C735 677 718 674 702 677Q696 677 696 678Q644 693 603 702C593 704 597 731 607 731Z"/>
<defs>
	<clipPath id="z22557c1"><use href="#z22557d1"/></clipPath>
	<clipPath id="z22557c2"><use href="#z22557d2"/></clipPath>
	<clipPath id="z22557c3"><use href="#z22557d3"/></clipPath>
	<clipPath id="z22557c4"><use href="#z22557d4"/></clipPath>
	<clipPath id="z22557c5"><use href="#z22557d5"/></clipPath>
	<clipPath id="z22557c6"><use href="#z22557d6"/></clipPath>
	<clipPath id="z22557c7"><use href="#z22557d7"/></clipPath>
	<clipPath id="z22557c8"><use href="#z22557d8"/></clipPath>
	<clipPath id="z22557c9"><use href="#z22557d9"/></clipPath>
	<clipPath id="z22557c10"><use href="#z22557d10"/></clipPath>
	<clipPath id="z22557c11"><use href="#z22557d11"/></clipPath>
	<clipPath id="z22557c12"><use href="#z22557d12"/></clipPath>
</defs>
<path style="--d:1s;" pathLength="3333" clip-path="url(#z22557c1)" d="M130 422L418 378"/>
<path style="--d:2s;" pathLength="3333" clip-path="url(#z22557c2)" d="M244 133L305 184L283 630"/>
<path style="--d:3s;" pathLength="3333" clip-path="url(#z22557c3)" d="M96 698L170 706L420 566"/>
<path style="--d:4s;" pathLength="3333" clip-path="url(#z22557c4)" d="M501 176L545 227L555 512"/>
<path style="--d:5s;" pathLength="3333" clip-path="url(#z22557c5)" d="M560 197L755 157L804 182L761 475"/>
<path style="--d:6s;" pathLength="3333" clip-path="url(#z22557c6)" d="M628 297L662 337L662 488"/>
<path style="--d:7s;" pathLength="3333" clip-path="url(#z22557c7)" d="M683 329L771 310"/>
<path style="--d:8s;" pathLength="3333" clip-path="url(#z22557c8)" d="M432 510L463 585L443 827"/>
<path style="--d:9s;" pathLength="3333" clip-path="url(#z22557c9)" d="M474 525L848 467L906 488L887 790L864 819L766 776"/>
<path style="--d:10s;" pathLength="3333" clip-path="url(#z22557c10)" d="M536 598L564 619L594 749"/>
<path style="--d:11s;" pathLength="3333" clip-path="url(#z22557c11)" d="M580 606L728 579L755 603L712 688"/>
<path style="--d:12s;" pathLength="3333" clip-path="url(#z22557c12)" d="M599 714L762 705"/>
</svg>