<!--
AnimCJK 2016-2018 Copyright Francois Mizessyn, https://github.com/parsimonhi/animCJK
Derived from:
    MakeMeAHanzi project - https://github.com/skishore/makemeahanzi
    Arphic PL KaitiM GB - https://apps.ubuntu.com/cat/applications/precise/fonts-arphic-gkai00mp/
    Arphic PL UKai - https://apps.ubuntu.com/cat/applications/fonts-arphic-ukai/
You can redistribute and/or modify this file under the terms of the Arphic Public License
as published by Arphic Technology Co., Ltd.
You should have received a copy of this license (the directory "APL") along with this file;
if not, see http://ftp.gnu.org/non-gnu/chinese-fonts-truetype/LICENSE.
-->
<svg id="z22622" class="acjk" version="1.1" viewBox="0 0 1024 1024" xmlns="http://www.w3.org/2000/svg" xmlns:xlink="http://www.w3.org/1999/xlink">
<style>
<![CDATA[
@keyframes z22622k {
	from {
		stroke:#c00;
		stroke-dashoffset:3334;
	}
	75% {
		stroke:#c00;
		stroke-dashoffset:0;
	}
	to {
		stroke:#000;
	}
}
#z22622 path[clip-path] {
	animation:z22622k 1s linear both;
	stroke-dasharray:3334;
	stroke-width:128;
	stroke-linecap:round;
	fill:none;
}
#z22622 path[clip-path="url(#z22622c1)"] {animation-delay:1s;}
#z22622 path[clip-path="url(#z22622c2)"] {animation-delay:2s;}
#z22622 path[clip-path="url(#z22622c3)"] {animation-delay:3s;}
#z22622 path[clip-path="url(#z22622c4)"] {animation-delay:4s;}
#z22622 path[clip-path="url(#z22622c5)"] {animation-delay:5s;}
#z22622 path[clip-path="url(#z22622c6)"] {animation-delay:6s;}
#z22622 path[clip-path="url(#z22622c7)"] {animation-delay:7s;}
#z22622 path[clip-path="url(#z22622c8)"] {animation-delay:8s;}
#z22622 path[clip-path="url(#z22622c9)"] {animation-delay:9s;}
#z22622 path[clip-path="url(#z22622c10)"] {animation-delay:10s;}
#z22622 path[clip-path="url(#z22622c11)"] {animation-delay:11s;}
#z22622 path[clip-path="url(#z22622c12)"] {animation-delay:12s;}
#z22622 path[clip-path="url(#z22622c13)"] {animation-delay:13s;}
#z22622 path {fill:#ccc;}
]]>
</style>
<path id="z22622d1" d="M478 80Q500 98 524 120Q537 132 554 130Q564 129 569 116Q573 100 562 71Q550 44 470 32Q454 31 448 33Q444 37 445 50Q449 60 478 80 Z"/>
<path id="z22622d2" d="M270 206L270 205Q257 181 245 173Q226 160 225 185Q231 227 174 286Q153 310 183 365Q198 390 218 363Q225 351 267 236L270 206 Z"/>
<path id="z22622d3" d="M267 236Q288 248 324 240Q450 201 676 181Q716 177 731 180Q747 190 745 199Q745 200 725 262Q718 275 725 279Q732 283 748 271Q797 238 839 228Q873 218 872 210Q871 200 800 149Q779 134 707 146Q599 158 371 193Q320 200 270 206L267 236 Z"/>
<path id="z22622d4" d="M613 319Q682 306 690 299Q697 292 694 286Q688 276 665 269Q644 263 624 269L564 287Q527 294 488 304Q464 308 440 312L389 319Q359 320 328 323Q298 326 319 341Q350 360 395 354L440 347Q500 337 563 327L613 319 Z"/>
<path id="z22622d5" d="M440 312Q441 303 442 299Q445 280 432 268Q413 253 388 245Q376 241 368 246Q361 252 367 265Q380 290 389 319L395 354Q398 376 401 415L405 450Q406 477 410 512L445 507Q444 473 442 444L441 408Q441 396 440 347L440 312 Z"/>
<path id="z22622d6" d="M586 488Q590 454 597 421L605 376Q609 346 613 319L624 269Q628 257 633 249Q637 239 621 226Q593 207 572 202Q559 198 552 205Q545 211 551 224Q563 245 564 287L563 327Q562 355 559 385L556 427Q552 458 549 494L586 488 Z"/>
<path id="z22622d7" d="M597 421Q631 415 665 412Q689 409 681 396Q671 380 646 375Q630 372 605 376L559 385Q498 395 441 408L401 415Q364 421 332 427Q316 430 335 446Q348 455 405 450L442 444Q500 434 556 427L597 421 Z"/>
<path id="z22622d8" d="M597 524Q646 521 815 521Q834 521 839 513Q843 503 828 489Q779 452 718 465Q661 475 586 488L549 494Q527 495 502 500Q474 503 445 507L410 512Q313 522 204 535Q185 536 198 553Q211 566 228 571Q247 577 263 572Q303 562 348 553L394 546Q455 531 564 526L597 524 Z"/>
<path id="z22622d9" d="M348 553Q338 613 232 704Q226 707 222 711Q188 739 103 791Q96 794 103 797Q154 803 278 715Q279 712 284 710Q326 676 393 604Q403 594 408 591Q415 587 415 579Q415 558 394 546L348 553 Z"/>
<path id="z22622d10" d="M564 526Q567 529 571 533Q760 752 815 762Q920 762 968 752Q986 751 988 745Q989 739 975 733Q764 657 669 585Q653 573 638 560Q613 538 597 524L564 526 Z"/>
<path id="z22622d11" d="M528 734Q567 725 609 719Q652 712 658 706Q665 699 662 691Q656 681 630 672Q603 666 533 687L476 700Q418 709 350 715Q316 719 339 735Q372 757 478 741L528 734 Z"/>
<path id="z22622d12" d="M517 850Q521 790 528 734L533 687Q536 671 539 660Q543 648 545 640Q548 630 531 617Q500 601 479 596Q466 593 458 600Q451 607 458 620Q470 638 476 700L478 741Q479 795 478 855L517 850 Z"/>
<path id="z22622d13" d="M478 855Q372 864 249 875Q228 876 243 894Q256 907 273 913Q292 919 309 915Q507 870 773 890Q792 891 798 883Q802 871 788 857Q737 818 702 825Q632 837 517 850L478 855 Z"/>
<defs>
	<clipPath id="z22622c1"><use xlink:href="#z22622d1"/></clipPath>
	<clipPath id="z22622c2"><use xlink:href="#z22622d2"/></clipPath>
	<clipPath id="z22622c3"><use xlink:href="#z22622d3"/></clipPath>
	<clipPath id="z22622c4"><use xlink:href="#z22622d4"/></clipPath>
	<clipPath id="z22622c5"><use xlink:href="#z22622d5"/></clipPath>
	<clipPath id="z22622c6"><use xlink:href="#z22622d6"/></clipPath>
	<clipPath id="z22622c7"><use xlink:href="#z22622d7"/></clipPath>
	<clipPath id="z22622c8"><use xlink:href="#z22622d8"/></clipPath>
	<clipPath id="z22622c9"><use xlink:href="#z22622d9"/></clipPath>
	<clipPath id="z22622c10"><use xlink:href="#z22622d10"/></clipPath>
	<clipPath id="z22622c11"><use xlink:href="#z22622d11"/></clipPath>
	<clipPath id="z22622c12"><use xlink:href="#z22622d12"/></clipPath>
	<clipPath id="z22622c13"><use xlink:href="#z22622d13"/></clipPath>
</defs>
<path pathLength="3333" clip-path="url(#z22622c1)" d="M452 38L562 121"/>
<path pathLength="3333" clip-path="url(#z22622c2)" d="M233 176L244 222L186 366"/>
<path pathLength="3333" clip-path="url(#z22622c3)" d="M272 230L745 161L778 174L815 219L732 275"/>
<path pathLength="3333" clip-path="url(#z22622c4)" d="M320 333L686 289"/>
<path pathLength="3333" clip-path="url(#z22622c5)" d="M372 254L413 298L423 509"/>
<path pathLength="3333" clip-path="url(#z22622c6)" d="M558 213L597 248L560 491"/>
<path pathLength="3333" clip-path="url(#z22622c7)" d="M334 434L677 402"/>
<path pathLength="3333" clip-path="url(#z22622c8)" d="M202 544L734 491L835 505"/>
<path pathLength="3333" clip-path="url(#z22622c9)" d="M408 568L367 583L247 715L109 792"/>
<path pathLength="3333" clip-path="url(#z22622c10)" d="M573 528L802 709L978 741"/>
<path pathLength="3333" clip-path="url(#z22622c11)" d="M338 724L655 691"/>
<path pathLength="3333" clip-path="url(#z22622c12)" d="M462 605L507 645L492 853"/>
<path pathLength="3333" clip-path="url(#z22622c13)" d="M245 882L301 893L701 855L795 871"/>
</svg>