<!--
AnimCJK 2016-2017 Copyright Francois Mizessyn, http://gooo.free.fr/animCJK/
Derived from:
    MakeMeAHanzi project - https://github.com/skishore/makemeahanzi
    Arphic PL KaitiM GB - https://apps.ubuntu.com/cat/applications/precise/fonts-arphic-gkai00mp/
    Arphic PL UKai - https://apps.ubuntu.com/cat/applications/fonts-arphic-ukai/
You can redistribute and/or modify this file under the terms of the Arphic Public License
as published by Arphic Technology Co., Ltd.
You should have received a copy of this license (the directory "APL") along with this file;
if not, see http://ftp.gnu.org/non-gnu/chinese-fonts-truetype/LICENSE.
-->
<svg id="z22679" class="acjk" version="1.1" viewBox="0 0 1024 1024" xmlns="http://www.w3.org/2000/svg" xmlns:xlink="http://www.w3.org/1999/xlink">
<style>
<![CDATA[
	@keyframes z22679k {
		from {
			stroke:#c00;
			stroke-dashoffset:3000;
		}
		75% {
			stroke:#c00;
			stroke-dashoffset:0;
		}
		to {
			stroke:#000;
		}
	}
	#z22679 path[clip-path] {
		animation:z22679k 1s linear both;
		stroke-dasharray:3000;
		stroke-width:128;
		stroke-linecap:round;
		fill:none;
	}
	#z22679 path[clip-path="url(#z22679c1)"] {animation-delay:1s;}
	#z22679 path[clip-path="url(#z22679c2)"] {animation-delay:2s;}
	#z22679 path[clip-path="url(#z22679c3)"] {animation-delay:3s;}
	#z22679 path[clip-path="url(#z22679c4)"] {animation-delay:4s;}
	#z22679 path[clip-path="url(#z22679c5)"] {animation-delay:5s;}
	#z22679 path[clip-path="url(#z22679c6)"] {animation-delay:6s;}
	#z22679 path[clip-path="url(#z22679c7)"] {animation-delay:7s;}
	#z22679 path[clip-path="url(#z22679c8)"] {animation-delay:8s;}
	#z22679 path[clip-path="url(#z22679c9)"] {animation-delay:9s;}
	#z22679 path[clip-path="url(#z22679c10)"] {animation-delay:10s;}
	#z22679 path[clip-path="url(#z22679c11)"] {animation-delay:11s;}
	#z22679 path[clip-path="url(#z22679c12)"] {animation-delay:12s;}
	#z22679 path[clip-path="url(#z22679c13)"] {animation-delay:13s;}
	#z22679 path[clip-path="url(#z22679c14)"] {animation-delay:14s;}
	#z22679 path {fill:#ccc;}
]]>
</style>
<g transform="scale(1,-1) translate(0,-900)">
	<path id="z22679d1" d="M290 503Q309 510 331 515Q361 524 365 529Q372 536 368 545Q361 555 331 561Q310 564 292 557L242 537Q149 512 114 505Q80 496 106 482Q151 463 201 479Q220 485 242 490L290 503Z"/>
	<path id="z22679d2" d="M282 315Q286 412 290 503L292 557Q295 668 313 733Q316 745 295 760Q258 779 233 783Q217 786 208 777Q201 770 209 754Q236 714 237 688Q241 615 242 537L242 490Q242 399 238 295L282 315Z"/>
	<path id="z22679d3" d="M238 295Q105 238 79 233Q64 240 61 219Q61 206 72 198Q97 185 134 170Q144 169 156 179Q198 222 333 304Q354 320 378 338Q390 348 389 357Q383 361 370 357Q327 338 282 315L238 295Z"/>
	<path id="z22679d4" d="M486 738Q508 716 530 690Q542 677 557 677Q567 676 573 689Q579 702 572 732Q565 760 485 784Q470 788 464 787Q460 783 460 771Q461 761 486 738Z"/>
	<path id="z22679d5" d="M719 804Q698 767 630 687Q620 669 638 673Q690 704 719 726Q794 781 808 787Q830 797 819 816Q804 834 777 849Q752 862 738 859Q725 858 729 844Q733 825 719 804Z"/>
	<path id="z22679d6" d="M412 607Q402 611 389 611Q377 614 375 609Q369 603 378 588Q412 521 435 409Q439 376 460 354Q478 335 482 349Q483 356 484 366L483 397Q482 410 478 423Q450 535 443 573L412 607Z"/>
	<path id="z22679d7" d="M765 395Q765 394 766 392Q770 376 784 377Q797 378 806 392Q822 411 850 507Q868 559 906 589Q925 605 910 621Q892 639 841 667Q823 679 759 661Q675 655 548 628Q466 612 412 607L443 573Q452 572 460 574Q506 589 583 601L621 607Q784 635 809 623Q819 616 812 581Q779 449 766 421L765 395Z"/>
	<path id="z22679d8" d="M637 419Q641 554 645 564Q651 585 621 607L583 601Q590 577 595 463Q595 441 597 412L637 419Z"/>
	<path id="z22679d9" d="M506 484C498 484 492 489 488 495C490 499 496 498 499 500C546 515 593 526 640 539C667 546 695 554 722 544C733 539 746 534 749 522C747 515 738 514 732 513C657 503 582 485 506 484Z"/>
	<path id="z22679d10" d="M484 366Q494 365 504 367Q586 383 765 395L766 421Q760 425 752 432Q737 441 637 419L597 412Q536 405 483 397L484 366Z"/>
	<path id="z22679d11" d="M510 298Q497 308 480 313Q473 314 467 307Q464 303 470 293Q497 238 478 103Q466 52 469 38Q476 10 487 -1Q497 -13 505 -1Q515 11 519 34L524 66Q525 79 526 91Q526 122 527 151L528 178Q528 250 533 269L510 298Z"/>
	<path id="z22679d12" d="M674 47Q701 13 721 -20Q730 -38 741 -37Q756 -36 771 -4Q787 33 784 77Q778 129 770 230Q769 258 785 280Q794 292 785 301Q767 320 718 343Q702 352 687 343Q635 319 510 298L533 269Q542 269 675 294Q694 298 705 290Q715 280 717 89Q716 85 716 79Q712 60 694 69Q690 72 685 74L674 47Z"/>
	<path id="z22679d13" d="M527 151Q530 151 535 151Q613 161 670 168Q694 172 685 184Q675 199 649 204Q615 208 528 178L527 151Z"/>
	<path id="z22679d14" d="M519 34Q526 33 536 35Q579 44 674 47L685 74Q678 81 672 84Q657 93 628 86Q571 73 524 66L519 34Z"/>
	<defs>
		<clipPath id="z22679c1"><use xlink:href="#z22679d1"/></clipPath>
		<clipPath id="z22679c2"><use xlink:href="#z22679d2"/></clipPath>
		<clipPath id="z22679c3"><use xlink:href="#z22679d3"/></clipPath>
		<clipPath id="z22679c4"><use xlink:href="#z22679d4"/></clipPath>
		<clipPath id="z22679c5"><use xlink:href="#z22679d5"/></clipPath>
		<clipPath id="z22679c6"><use xlink:href="#z22679d6"/></clipPath>
		<clipPath id="z22679c7"><use xlink:href="#z22679d7"/></clipPath>
		<clipPath id="z22679c8"><use xlink:href="#z22679d8"/></clipPath>
		<clipPath id="z22679c9"><use xlink:href="#z22679d9"/></clipPath>
		<clipPath id="z22679c10"><use xlink:href="#z22679d10"/></clipPath>
		<clipPath id="z22679c11"><use xlink:href="#z22679d11"/></clipPath>
		<clipPath id="z22679c12"><use xlink:href="#z22679d12"/></clipPath>
		<clipPath id="z22679c13"><use xlink:href="#z22679d13"/></clipPath>
		<clipPath id="z22679c14"><use xlink:href="#z22679d14"/></clipPath>
	</defs>
	<path pathLength="2999" clip-path="url(#z22679c1)" d="M100 495L362 539"/>
	<path pathLength="2999" clip-path="url(#z22679c2)" d="M212 772L273 716L246 302"/>
	<path pathLength="2999" clip-path="url(#z22679c3)" d="M65 222L138 212L381 351"/>
	<path pathLength="2999" clip-path="url(#z22679c4)" d="M468 781L539 728L556 681"/>
	<path pathLength="2999" clip-path="url(#z22679c5)" d="M735 853L768 798L631 680"/>
	<path pathLength="2999" clip-path="url(#z22679c6)" d="M380 602L417 565L468 349"/>
	<path pathLength="2999" clip-path="url(#z22679c7)" d="M421 606L463 594L725 641L836 638L864 593L787 382"/>
	<path pathLength="2999" clip-path="url(#z22679c8)" d="M591 593L618 559L609 415"/>
	<path pathLength="2999" clip-path="url(#z22679c9)" d="M495 495L741 522"/>
	<path pathLength="2999" clip-path="url(#z22679c10)" d="M491 374L762 415"/>
	<path pathLength="2999" clip-path="url(#z22679c11)" d="M476 304L507 255L494 0"/>
	<path pathLength="2999" clip-path="url(#z22679c12)" d="M520 294L701 321L740 296L748 56L720 16L683 65"/>
	<path pathLength="2999" clip-path="url(#z22679c13)" d="M534 159L683 181"/>
	<path pathLength="2999" clip-path="url(#z22679c14)" d="M526 42L680 66"/>
</g>
</svg>