<!--
AnimCJK 2016-2026 Copyright FM-SH - https://github.com/parsimonhi/animCJK
Derived from:
    MakeMeAHanzi project - https://github.com/skishore/makemeahanzi
    Arphic PL KaitiM GB font
    Arphic PL KaitiM Big5 font
You can redistribute and/or modify this file under the terms of the Arphic Public License
as published by Arphic Technology Co., Ltd.
You should have received a copy of this license along with this file.
If not, see https://ftp.gnu.org/non-gnu/chinese-fonts-truetype/LICENSE.
-->
<svg id="z22712" class="acjk" viewBox="0 0 1024 1024" xmlns="http://www.w3.org/2000/svg">
<style>
<![CDATA[
@keyframes zk {
	to {
		stroke-dashoffset:0;
	}
}
svg.acjk path[clip-path] {
	--t:0.8s;
	animation:zk var(--t) linear forwards var(--d);
	stroke-dasharray:3337;
	stroke-dashoffset:3339;
	stroke-width:128;
	stroke-linecap:round;
	fill:none;
	stroke:#000;
}
svg.acjk path[id] {fill:#ccc;}
]]>
</style>
<path id="z22712d1" d="M319 457C336 452 354 446 374 441C394 435 407 430 411 427C422 415 417 399 376 393C357 390 339 393 322 400C286 413 286 413 268 419C226 433 184 443 145 451C120 455 117 464 136 475C162 488 206 487 268 471C302 462 302 462 319 457Z"/>
<path id="z22712d2" d="M310 645C312 580 315 517 319 457C321 419 321 419 322 400C325 328 331 268 345 221C347 212 342 201 326 192C300 176 278 170 261 167C239 162 219 175 235 198C278 262 268 344 268 419C268 454 268 454 268 471C268 533 265 597 263 664C263 681 310 662 310 645Z"/>
<path id="z22712d3" d="M263 664C221 680 164 703 132 713C118 716 101 719 80 723C59 726 60 748 75 759C90 770 111 780 138 791C143 793 152 790 161 783C203 747 357 661 415 624C434 611 427 595 408 603C376 615 344 631 310 645C279 658 279 658 263 664Z"/>
<path id="z22712d4" d="M723 211C744 209 787 202 855 205C871 205 891 193 865 176C834 155 795 155 742 167C707 174 707 174 690 178C653 185 616 193 577 199C549 203 549 203 535 205C498 210 459 215 419 222C402 224 400 230 412 238C422 244 435 248 451 249C482 251 513 242 544 236C567 231 567 231 579 229C602 224 654 216 683 214C710 212 710 212 723 211Z"/>
<path id="z22712d5" d="M577 199C575 182 573 166 574 153C574 142 568 136 558 132C535 121 518 116 505 122C494 126 493 135 503 146C516 162 528 181 535 205C541 226 541 226 544 236C549 256 553 272 564 282C571 288 576 287 579 281C582 268 580 251 579 229C578 209 578 209 577 199Z"/>
<path id="z22712d6" d="M742 167C757 130 778 113 767 99C759 89 745 80 725 69C705 58 683 68 693 84C701 96 699 129 690 178C685 202 685 202 683 214C676 245 674 263 675 266C676 274 680 275 690 268C694 264 707 246 723 211C736 182 736 182 742 167Z"/>
<path id="z22712d7" d="M628 412C642 409 656 405 672 403C690 399 700 395 703 393C710 386 710 373 679 366C654 360 633 371 633 372C617 382 597 384 579 387C554 393 524 396 490 400C471 401 467 409 482 417C513 433 548 427 581 421C612 415 612 415 628 412Z"/>
<path id="z22712d8" d="M619 490C621 463 624 437 628 412C631 385 631 385 633 372C637 334 656 333 629 315C611 303 594 298 582 296C565 292 551 302 562 319C569 329 576 351 579 387C580 410 580 410 581 421C582 443 582 468 583 496C583 508 619 502 619 490Z"/>
<path id="z22712d9" d="M688 514C751 507 822 505 898 504C926 503 927 486 909 473C874 448 835 445 790 457C769 462 747 466 723 471C682 479 682 479 661 483C646 485 627 488 619 490C595 494 595 494 583 496C515 507 444 517 371 528C358 529 355 535 366 545C393 571 420 563 428 561C505 538 573 526 631 520C669 516 669 516 688 514Z"/>
<path id="z22712d10" d="M590 622C623 589 662 545 688 514C711 485 711 485 723 471C776 404 804 363 814 354C820 347 820 338 816 328C807 308 798 294 789 285C771 268 743 258 747 288C752 332 728 400 661 483C641 508 641 508 631 520C608 547 570 587 537 621C516 642 516 642 505 653C441 716 367 773 287 830C273 839 276 855 302 843C360 813 427 780 509 701C563 648 563 648 590 622Z"/>
<path id="z22712d11" d="M783 588C791 594 805 589 807 576C811 543 787 536 747 522C726 514 724 527 729 535C737 548 765 574 783 588Z"/>
<path id="z22712d12" d="M537 621C507 598 482 601 496 625C504 639 504 647 505 653C506 669 508 684 509 701C511 751 506 806 497 837C487 868 494 894 513 915C531 934 538 912 544 883C545 873 547 863 548 853C549 832 552 790 553 769C554 751 554 751 554 742C555 701 555 673 557 658C560 644 548 629 537 621Z"/>
<path id="z22712d13" d="M714 873C722 901 745 987 779 923C790 900 794 874 792 847C788 810 783 757 779 688C777 670 782 654 792 642C796 635 797 628 792 622C782 610 761 598 731 585C720 580 710 581 702 585C659 603 614 616 590 622C572 625 555 622 537 621C524 621 542 658 555 656C594 649 702 617 718 631C731 642 732 687 731 768C731 795 729 844 716 855C712 860 713 867 714 873Z"/>
<path id="z22712d14" d="M553 769C593 762 630 756 662 752C676 749 680 744 675 737C668 728 657 723 643 721C621 718 591 725 554 742C546 745 544 771 553 769Z"/>
<path id="z22712d15" d="M544 883C565 883 589 877 714 873C720 873 719 860 716 855C694 818 653 839 548 853C538 855 534 883 544 883Z"/>
<defs>
	<clipPath id="z22712c1"><use href="#z22712d1"/></clipPath>
	<clipPath id="z22712c2"><use href="#z22712d2"/></clipPath>
	<clipPath id="z22712c3"><use href="#z22712d3"/></clipPath>
	<clipPath id="z22712c4"><use href="#z22712d4"/></clipPath>
	<clipPath id="z22712c5"><use href="#z22712d5"/></clipPath>
	<clipPath id="z22712c6"><use href="#z22712d6"/></clipPath>
	<clipPath id="z22712c7"><use href="#z22712d7"/></clipPath>
	<clipPath id="z22712c8"><use href="#z22712d8"/></clipPath>
	<clipPath id="z22712c9"><use href="#z22712d9"/></clipPath>
	<clipPath id="z22712c10"><use href="#z22712d10"/></clipPath>
	<clipPath id="z22712c11"><use href="#z22712d11"/></clipPath>
	<clipPath id="z22712c12"><use href="#z22712d12"/></clipPath>
	<clipPath id="z22712c13"><use href="#z22712d13"/></clipPath>
	<clipPath id="z22712c14"><use href="#z22712d14"/></clipPath>
	<clipPath id="z22712c15"><use href="#z22712d15"/></clipPath>
</defs>
<path style="--d:1s;" pathLength="3333" clip-path="url(#z22712c1)" d="M132 465L409 413"/>
<path style="--d:2s;" pathLength="3333" clip-path="url(#z22712c2)" d="M236 177L302 231L281 667"/>
<path style="--d:3s;" pathLength="3333" clip-path="url(#z22712c3)" d="M70 736L135 753L421 611"/>
<path style="--d:4s;" pathLength="3333" clip-path="url(#z22712c4)" d="M412 229L871 188"/>
<path style="--d:5s;" pathLength="3333" clip-path="url(#z22712c5)" d="M501 134L548 161L568 279"/>
<path style="--d:6s;" pathLength="3333" clip-path="url(#z22712c6)" d="M699 73L733 116L680 267"/>
<path style="--d:7s;" pathLength="3333" clip-path="url(#z22712c7)" d="M480 407L702 382"/>
<path style="--d:8s;" pathLength="3333" clip-path="url(#z22712c8)" d="M565 301L608 340L600 501"/>
<path style="--d:9s;" pathLength="3333" clip-path="url(#z22712c9)" d="M367 536L809 479L916 491"/>
<path style="--d:10s;" pathLength="3333" clip-path="url(#z22712c10)" d="M753 277L781 340L659 518L475 707L284 838"/>
<path style="--d:11s;" pathLength="3333" clip-path="url(#z22712c11)" d="M733 525L796 587"/>
<path style="--d:12s;" pathLength="3333" clip-path="url(#z22712c12)" d="M500 610L531 655L519 916"/>
<path style="--d:13s;" pathLength="3333" clip-path="url(#z22712c13)" d="M540 631L716 605L759 635L759 940"/>
<path style="--d:14s;" pathLength="3333" clip-path="url(#z22712c14)" d="M552 759L671 744"/>
<path style="--d:15s;" pathLength="3333" clip-path="url(#z22712c15)" d="M544 873L714 858"/>
</svg>