<!--
AnimCJK 2016-2017 Copyright Francois Mizessyn, http://gooo.free.fr/animCJK/
Derived from:
    MakeMeAHanzi project - https://github.com/skishore/makemeahanzi
    Arphic PL KaitiM GB - https://apps.ubuntu.com/cat/applications/precise/fonts-arphic-gkai00mp/
    Arphic PL UKai - https://apps.ubuntu.com/cat/applications/fonts-arphic-ukai/
You can redistribute and/or modify this file under the terms of the Arphic Public License
as published by Arphic Technology Co., Ltd.
You should have received a copy of this license (the directory "APL") along with this file;
if not, see http://ftp.gnu.org/non-gnu/chinese-fonts-truetype/LICENSE.
-->
<svg id="z22727" class="acjk" version="1.1" viewBox="0 0 1024 1024" xmlns="http://www.w3.org/2000/svg" xmlns:xlink="http://www.w3.org/1999/xlink">
<style>
<![CDATA[
	@keyframes z22727k {
		from {
			stroke:#c00;
			stroke-dashoffset:3000;
		}
		75% {
			stroke:#c00;
			stroke-dashoffset:0;
		}
		to {
			stroke:#000;
		}
	}
	#z22727 path[clip-path] {
		animation:z22727k 1s linear both;
		stroke-dasharray:3000;
		stroke-width:128;
		stroke-linecap:round;
		fill:none;
	}
	#z22727 path[clip-path="url(#z22727c1)"] {animation-delay:1s;}
	#z22727 path[clip-path="url(#z22727c2)"] {animation-delay:2s;}
	#z22727 path[clip-path="url(#z22727c3)"] {animation-delay:3s;}
	#z22727 path[clip-path="url(#z22727c4)"] {animation-delay:4s;}
	#z22727 path[clip-path="url(#z22727c5)"] {animation-delay:5s;}
	#z22727 path[clip-path="url(#z22727c6)"] {animation-delay:6s;}
	#z22727 path[clip-path="url(#z22727c7)"] {animation-delay:7s;}
	#z22727 path[clip-path="url(#z22727c8)"] {animation-delay:8s;}
	#z22727 path[clip-path="url(#z22727c9)"] {animation-delay:9s;}
	#z22727 path[clip-path="url(#z22727c10)"] {animation-delay:10s;}
	#z22727 path[clip-path="url(#z22727c11)"] {animation-delay:11s;}
	#z22727 path[clip-path="url(#z22727c12)"] {animation-delay:12s;}
	#z22727 path[clip-path="url(#z22727c13)"] {animation-delay:13s;}
	#z22727 path[clip-path="url(#z22727c14)"] {animation-delay:14s;}
	#z22727 path[clip-path="url(#z22727c15)"] {animation-delay:15s;}
	#z22727 path[clip-path="url(#z22727c16)"] {animation-delay:16s;}
	#z22727 path {fill:#ccc;}
]]>
</style>
<g transform="scale(1,-1) translate(0,-900)">
	<path id="z22727d1" d="M268 493Q341 517 346 523Q355 533 349 540Q340 552 309 555Q290 556 270 550L220 529Q156 505 97 491Q61 481 89 467Q134 449 215 476Q216 477 221 478L268 493Z"/>
	<path id="z22727d2" d="M262 302Q266 401 268 493L270 550Q270 664 291 748Q294 760 272 775Q235 794 208 798Q190 802 182 792Q175 785 183 768Q213 726 213 697Q217 616 220 529L221 478Q221 384 218 280L262 302Z"/>
	<path id="z22727d3" d="M218 280Q163 255 105 225Q87 215 57 211Q44 207 43 196Q43 181 55 175Q83 162 121 149Q133 148 143 159Q167 187 329 301Q351 317 366 333Q379 343 377 354Q368 360 262 302L218 280Z"/>
	<path id="z22727d4" d="M597 807Q619 791 642 770Q657 758 674 760Q684 761 689 776Q692 792 680 822Q670 844 587 857Q571 858 564 855Q560 851 562 837Q566 827 597 807Z"/>
	<path id="z22727d5" d="M410 680Q392 679 406 663Q419 651 435 647Q454 643 469 647Q637 695 866 696Q884 697 888 705Q892 715 877 727Q825 763 759 743Q672 725 410 680Z"/>
	<path id="z22727d6" d="M445 590Q432 594 408 595Q395 596 393 592Q387 585 397 570Q431 510 458 411Q464 381 483 362Q502 343 506 358Q506 361 507 364L507 392Q506 407 501 424Q473 527 466 560L445 590Z"/>
	<path id="z22727d7" d="M744 394Q763 366 781 357Q791 350 807 371Q820 396 847 526Q856 557 879 583Q892 596 881 609Q865 625 822 652Q801 661 787 655Q753 645 702 637Q639 627 560 612Q496 599 445 590L466 560Q465 561 468 561Q564 588 732 613Q766 617 781 606Q796 596 792 576Q771 435 755 421L744 394Z"/>
	<path id="z22727d8" d="M555 533Q548 537 526 538Q519 539 516 536Q512 532 518 522Q533 498 545 459Q548 446 556 439Q569 426 572 436Q573 440 574 446L571 468Q565 501 565 513L555 533Z"/>
	<path id="z22727d9" d="M692 478Q705 508 724 518Q734 528 726 540Q684 576 637 556Q607 547 555 533L565 513Q566 516 653 532Q663 535 667 531Q671 527 670 518Q666 502 661 486L692 478Z"/>
	<path id="z22727d10" d="M574 446Q578 446 583 447Q619 454 696 460Q703 461 704 467Q704 471 692 478L661 486Q657 487 653 486Q608 476 571 468L574 446Z"/>
	<path id="z22727d11" d="M507 364Q534 379 744 394L755 421Q752 424 748 427Q735 434 711 428Q599 403 507 392L507 364Z"/>
	<path id="z22727d12" d="M513 283Q501 290 465 296Q455 299 451 294Q445 288 453 273Q480 221 497 134Q501 107 516 91Q534 70 538 85Q539 89 539 92L541 118Q538 145 531 179L527 202Q521 236 519 253L513 283Z"/>
	<path id="z22727d13" d="M729 111Q729 110 730 109Q736 96 747 97Q760 100 766 113Q775 126 789 186Q802 235 833 263Q849 279 834 292Q818 307 771 328Q759 334 697 320Q652 320 513 283L519 253Q577 272 708 289Q732 290 741 286Q748 282 747 256Q735 153 727 134L729 111Z"/>
	<path id="z22727d14" d="M531 179Q535 179 540 179Q625 192 687 199Q708 202 701 213Q691 226 669 231Q647 234 527 202L531 179Z"/>
	<path id="z22727d15" d="M539 92Q545 91 553 93Q608 103 729 111L727 134Q723 138 716 143Q703 150 679 144Q603 128 541 118L539 92Z"/>
	<path id="z22727d16" d="M370 19Q348 18 363 -1Q378 -16 396 -22Q418 -29 434 -24Q645 24 893 3Q894 3 896 3Q917 2 922 11Q928 23 911 38Q857 80 819 72Q684 48 370 19Z"/>
	<defs>
		<clipPath id="z22727c1"><use xlink:href="#z22727d1"/></clipPath>
		<clipPath id="z22727c2"><use xlink:href="#z22727d2"/></clipPath>
		<clipPath id="z22727c3"><use xlink:href="#z22727d3"/></clipPath>
		<clipPath id="z22727c4"><use xlink:href="#z22727d4"/></clipPath>
		<clipPath id="z22727c5"><use xlink:href="#z22727d5"/></clipPath>
		<clipPath id="z22727c6"><use xlink:href="#z22727d6"/></clipPath>
		<clipPath id="z22727c7"><use xlink:href="#z22727d7"/></clipPath>
		<clipPath id="z22727c8"><use xlink:href="#z22727d8"/></clipPath>
		<clipPath id="z22727c9"><use xlink:href="#z22727d9"/></clipPath>
		<clipPath id="z22727c10"><use xlink:href="#z22727d10"/></clipPath>
		<clipPath id="z22727c11"><use xlink:href="#z22727d11"/></clipPath>
		<clipPath id="z22727c12"><use xlink:href="#z22727d12"/></clipPath>
		<clipPath id="z22727c13"><use xlink:href="#z22727d13"/></clipPath>
		<clipPath id="z22727c14"><use xlink:href="#z22727d14"/></clipPath>
		<clipPath id="z22727c15"><use xlink:href="#z22727d15"/></clipPath>
		<clipPath id="z22727c16"><use xlink:href="#z22727d16"/></clipPath>
	</defs>
	<path pathLength="2999" clip-path="url(#z22727c1)" d="M86 479L346 537"/>
	<path pathLength="2999" clip-path="url(#z22727c2)" d="M185 787L250 725L241 322L224 289"/>
	<path pathLength="2999" clip-path="url(#z22727c3)" d="M48 194L117 187L370 348"/>
	<path pathLength="2999" clip-path="url(#z22727c4)" d="M568 852L684 772"/>
	<path pathLength="2999" clip-path="url(#z22727c5)" d="M407 675L459 667L779 721L883 713"/>
	<path pathLength="2999" clip-path="url(#z22727c6)" d="M401 586L441 545L496 356"/>
	<path pathLength="2999" clip-path="url(#z22727c7)" d="M454 589L811 622L838 592L770 366"/>
	<path pathLength="2999" clip-path="url(#z22727c8)" d="M522 531L563 438"/>
	<path pathLength="2999" clip-path="url(#z22727c9)" d="M563 531L684 544L699 524L671 485"/>
	<path pathLength="2999" clip-path="url(#z22727c10)" d="M577 461L695 468"/>
	<path pathLength="2999" clip-path="url(#z22727c11)" d="M510 373L747 419"/>
	<path pathLength="2999" clip-path="url(#z22727c12)" d="M457 286L489 265L529 85"/>
	<path pathLength="2999" clip-path="url(#z22727c13)" d="M524 262L712 307L775 295L793 268L737 104"/>
	<path pathLength="2999" clip-path="url(#z22727c14)" d="M534 195L695 212"/>
	<path pathLength="2999" clip-path="url(#z22727c15)" d="M546 100L726 125"/>
	<path pathLength="2999" clip-path="url(#z22727c16)" d="M364 11L421 -1L800 40L919 17"/>
</g>
</svg>