<!--
AnimCJK 2016-2026 Copyright FM-SH - https://github.com/parsimonhi/animCJK
Derived from:
    MakeMeAHanzi project - https://github.com/skishore/makemeahanzi
    Arphic PL KaitiM GB font
    Arphic PL KaitiM Big5 font
You can redistribute and/or modify this file under the terms of the Arphic Public License
as published by Arphic Technology Co., Ltd.
You should have received a copy of this license along with this file.
If not, see https://ftp.gnu.org/non-gnu/chinese-fonts-truetype/LICENSE.
-->
<svg id="z22743" class="acjk" viewBox="0 0 1024 1024" xmlns="http://www.w3.org/2000/svg">
<style>
<![CDATA[
@keyframes zk {
	to {
		stroke-dashoffset:0;
	}
}
svg.acjk path[clip-path] {
	--t:0.8s;
	animation:zk var(--t) linear forwards var(--d);
	stroke-dasharray:3337;
	stroke-dashoffset:3339;
	stroke-width:128;
	stroke-linecap:round;
	fill:none;
	stroke:#000;
}
svg.acjk path[id] {fill:#ccc;}
]]>
</style>
<path id="z22743d1" d="M305 419C321 414 338 409 357 405C376 399 388 395 392 392C403 381 398 365 359 359C341 356 324 358 308 365C273 376 273 376 256 382C216 394 177 403 140 410C116 414 113 422 131 433C156 446 197 445 256 431C289 423 289 423 305 419Z"/>
<path id="z22743d2" d="M296 597C298 536 301 476 305 419C307 383 307 383 308 365C311 296 316 239 330 195C331 187 327 176 311 167C287 152 266 145 250 142C229 137 210 149 225 171C266 233 256 311 256 382C256 415 256 415 256 431C256 490 254 551 252 615C252 631 296 613 296 597Z"/>
<path id="z22743d3" d="M252 615C212 629 158 650 127 659C114 662 98 664 78 668C58 670 59 691 73 702C87 712 107 722 133 733C138 735 146 732 155 726C195 692 331 619 386 585C404 573 397 558 379 565C349 576 329 585 296 597C267 609 267 609 252 615Z"/>
<path id="z22743d4" d="M776 363C780 338 785 317 791 302C800 275 800 275 805 262C811 243 822 231 832 222C842 210 844 196 833 189C784 155 745 153 717 168C696 178 674 185 654 191C621 200 621 200 604 204C571 212 538 217 504 222C487 224 482 236 510 245C538 254 575 240 605 234C637 227 637 227 653 223C673 218 695 211 718 207C743 201 759 207 750 273C747 295 747 295 745 306C742 322 739 339 735 355C733 369 773 377 776 363Z"/>
<path id="z22743d5" d="M791 302C827 298 857 295 902 294C942 292 963 288 966 284C969 277 965 270 956 264C923 241 896 238 854 250C838 254 822 258 805 262C768 269 768 269 750 273C720 278 686 284 650 291C621 296 621 296 606 299C546 309 482 317 417 329C406 330 405 336 414 345C431 361 453 365 479 357C517 344 559 335 605 327C634 322 634 322 648 319C674 314 707 309 745 306C776 303 776 303 791 302Z"/>
<path id="z22743d6" d="M643 412C681 405 729 400 785 393C810 389 794 376 776 363C765 355 748 350 735 355C721 360 701 365 645 378C618 384 618 384 604 387C565 395 529 400 497 406C484 408 480 415 490 424C513 445 571 424 603 419C630 414 630 414 643 412Z"/>
<path id="z22743d7" d="M601 476C580 480 534 485 468 492C451 493 449 499 462 509C482 523 499 529 514 526C592 509 682 493 784 484C792 483 817 471 783 455C760 444 730 446 691 456C668 461 653 465 640 468C614 473 614 473 601 476Z"/>
<path id="z22743d8" d="M640 468C640 449 641 430 643 412C644 389 644 389 645 378C646 358 646 338 648 319C649 300 649 300 650 291C651 268 652 245 653 223C654 202 654 202 654 191C655 157 663 123 672 91C673 84 670 74 657 66C635 52 615 47 601 45C582 41 565 51 579 71C608 113 602 155 604 204C605 224 605 224 605 234C605 254 606 276 606 299C605 318 605 318 605 327C604 345 604 365 604 387C603 408 603 408 603 419C602 437 601 456 601 476C601 489 640 481 640 468Z"/>
<path id="z22743d9" d="M436 540C425 564 412 586 399 609C387 627 389 644 399 662C403 670 410 672 421 666C445 648 456 620 458 585C458 568 460 552 455 540C448 525 437 535 436 540Z"/>
<path id="z22743d10" d="M527 571C537 606 548 627 561 633C563 634 587 641 583 599C581 580 563 566 538 553C528 548 524 561 527 571Z"/>
<path id="z22743d11" d="M623 550C644 589 663 608 677 612C684 613 704 607 692 575C684 555 661 540 630 530C621 527 617 539 623 550Z"/>
<path id="z22743d12" d="M767 556C785 571 803 589 822 608C833 619 849 624 857 607C860 600 858 589 855 573C852 560 841 548 823 540C782 521 756 511 748 517C737 523 746 538 767 556Z"/>
<path id="z22743d13" d="M456 700C436 693 395 682 413 713C449 783 454 827 466 869C468 879 496 876 496 866C496 833 479 785 472 732C470 720 467 704 456 700Z"/>
<path id="z22743d14" d="M794 832C808 771 822 727 841 704C846 696 849 691 847 685C843 676 823 664 790 648C781 643 772 642 764 645C672 666 569 684 456 700C444 702 461 736 472 732C482 726 506 723 541 716C550 714 550 714 555 713C583 706 613 698 645 694C667 691 667 691 678 689C722 682 750 677 763 685C767 687 770 694 769 705C764 741 756 786 745 839C742 855 791 848 794 832Z"/>
<path id="z22743d15" d="M585 858C594 815 570 726 555 713C552 709 540 711 541 716C552 760 539 823 574 859C577 862 584 862 585 858Z"/>
<path id="z22743d16" d="M663 849C708 706 737 717 678 689C668 685 643 683 645 694C659 744 646 800 637 852C636 861 660 857 663 849Z"/>
<path id="z22743d17" d="M466 869C425 873 373 876 331 881C317 882 314 888 325 900C344 920 370 925 391 921C547 884 721 874 913 886C939 887 961 877 934 853C915 836 893 828 872 824C844 820 822 827 794 832C761 837 761 837 745 839C719 842 691 845 663 849C646 851 646 851 637 852C619 853 602 856 585 858C578 859 578 859 574 859C548 861 522 863 496 866C476 868 476 868 466 869Z"/>
<defs>
	<clipPath id="z22743c1"><use href="#z22743d1"/></clipPath>
	<clipPath id="z22743c2"><use href="#z22743d2"/></clipPath>
	<clipPath id="z22743c3"><use href="#z22743d3"/></clipPath>
	<clipPath id="z22743c4"><use href="#z22743d4"/></clipPath>
	<clipPath id="z22743c5"><use href="#z22743d5"/></clipPath>
	<clipPath id="z22743c6"><use href="#z22743d6"/></clipPath>
	<clipPath id="z22743c7"><use href="#z22743d7"/></clipPath>
	<clipPath id="z22743c8"><use href="#z22743d8"/></clipPath>
	<clipPath id="z22743c9"><use href="#z22743d9"/></clipPath>
	<clipPath id="z22743c10"><use href="#z22743d10"/></clipPath>
	<clipPath id="z22743c11"><use href="#z22743d11"/></clipPath>
	<clipPath id="z22743c12"><use href="#z22743d12"/></clipPath>
	<clipPath id="z22743c13"><use href="#z22743d13"/></clipPath>
	<clipPath id="z22743c14"><use href="#z22743d14"/></clipPath>
	<clipPath id="z22743c15"><use href="#z22743d15"/></clipPath>
	<clipPath id="z22743c16"><use href="#z22743d16"/></clipPath>
	<clipPath id="z22743c17"><use href="#z22743d17"/></clipPath>
</defs>
<path style="--d:1s;" pathLength="3333" clip-path="url(#z22743c1)" d="M124 419L392 384"/>
<path style="--d:2s;" pathLength="3333" clip-path="url(#z22743c2)" d="M226 152L288 208L270 618"/>
<path style="--d:3s;" pathLength="3333" clip-path="url(#z22743c3)" d="M66 681L136 695L389 569"/>
<path style="--d:4s;" pathLength="3333" clip-path="url(#z22743c4)" d="M499 231L773 191L796 221L752 367"/>
<path style="--d:5s;" pathLength="3333" clip-path="url(#z22743c5)" d="M416 334L872 270L960 275"/>
<path style="--d:6s;" pathLength="3333" clip-path="url(#z22743c6)" d="M490 412L791 383"/>
<path style="--d:7s;" pathLength="3333" clip-path="url(#z22743c7)" d="M464 501L795 467"/>
<path style="--d:8s;" pathLength="3333" clip-path="url(#z22743c8)" d="M581 52L634 101L618 480"/>
<path style="--d:9s;" pathLength="3333" clip-path="url(#z22743c9)" d="M445 539L409 663"/>
<path style="--d:10s;" pathLength="3333" clip-path="url(#z22743c10)" d="M533 556L570 629"/>
<path style="--d:11s;" pathLength="3333" clip-path="url(#z22743c11)" d="M626 534L690 603"/>
<path style="--d:12s;" pathLength="3333" clip-path="url(#z22743c12)" d="M749 523L825 572L843 614"/>
<path style="--d:13s;" pathLength="3333" clip-path="url(#z22743c13)" d="M415 698L446 725L482 873"/>
<path style="--d:14s;" pathLength="3333" clip-path="url(#z22743c14)" d="M461 707L776 667L808 694L761 846"/>
<path style="--d:15s;" pathLength="3333" clip-path="url(#z22743c15)" d="M549 716L580 853"/>
<path style="--d:16s;" pathLength="3333" clip-path="url(#z22743c16)" d="M653 692L681 724L649 853"/>
<path style="--d:17s;" pathLength="3333" clip-path="url(#z22743c17)" d="M328 889L827 853L943 870"/>
</svg>