<!--
AnimCJK 2016-2018 Copyright Francois Mizessyn, https://github.com/parsimonhi/animCJK
Derived from:
    MakeMeAHanzi project - https://github.com/skishore/makemeahanzi
    Arphic PL KaitiM GB - https://apps.ubuntu.com/cat/applications/precise/fonts-arphic-gkai00mp/
    Arphic PL UKai - https://apps.ubuntu.com/cat/applications/fonts-arphic-ukai/
You can redistribute and/or modify this file under the terms of the Arphic Public License
as published by Arphic Technology Co., Ltd.
You should have received a copy of this license (the directory "APL") along with this file;
if not, see http://ftp.gnu.org/non-gnu/chinese-fonts-truetype/LICENSE.
-->
<svg id="z22744" class="acjk" version="1.1" viewBox="0 0 1024 1024" xmlns="http://www.w3.org/2000/svg" xmlns:xlink="http://www.w3.org/1999/xlink">
<style>
<![CDATA[
@keyframes z22744k {
	from {
		stroke:#c00;
		stroke-dashoffset:3334;
	}
	75% {
		stroke:#c00;
		stroke-dashoffset:0;
	}
	to {
		stroke:#000;
	}
}
#z22744 path[clip-path] {
	animation:z22744k 1s linear both;
	stroke-dasharray:3334;
	stroke-width:128;
	stroke-linecap:round;
	fill:none;
}
#z22744 path[clip-path="url(#z22744c1)"] {animation-delay:1s;}
#z22744 path[clip-path="url(#z22744c2)"] {animation-delay:2s;}
#z22744 path[clip-path="url(#z22744c3)"] {animation-delay:3s;}
#z22744 path[clip-path="url(#z22744c4)"] {animation-delay:4s;}
#z22744 path[clip-path="url(#z22744c5)"] {animation-delay:5s;}
#z22744 path[clip-path="url(#z22744c6)"] {animation-delay:6s;}
#z22744 path[clip-path="url(#z22744c7)"] {animation-delay:7s;}
#z22744 path[clip-path="url(#z22744c8)"] {animation-delay:8s;}
#z22744 path[clip-path="url(#z22744c9)"] {animation-delay:9s;}
#z22744 path[clip-path="url(#z22744c10)"] {animation-delay:10s;}
#z22744 path[clip-path="url(#z22744c11)"] {animation-delay:11s;}
#z22744 path[clip-path="url(#z22744c12)"] {animation-delay:12s;}
#z22744 path[clip-path="url(#z22744c13)"] {animation-delay:13s;}
#z22744 path[clip-path="url(#z22744c14)"] {animation-delay:14s;}
#z22744 path[clip-path="url(#z22744c15)"] {animation-delay:15s;}
#z22744 path[clip-path="url(#z22744c16)"] {animation-delay:16s;}
#z22744 path[clip-path="url(#z22744c17)"] {animation-delay:17s;}
#z22744 path[clip-path="url(#z22744c18)"] {animation-delay:18s;}
#z22744 path {fill:#ccc;}
]]>
</style>
<path id="z22744d1" d="M318 109Q315 109 313 109Q301 106 299 111Q293 118 302 132Q333 189 354 283Q358 311 376 330Q394 349 398 335Q399 328 400 316L398 288Q397 281 395 272Q373 175 368 144L318 109 Z"/>
<path id="z22744d2" d="M601 296Q614 318 628 327Q638 334 654 315Q667 297 701 195Q711 165 736 143Q749 133 739 118Q726 102 686 73Q668 63 604 77Q583 78 448 99Q366 112 318 109L368 144Q411 134 472 124L514 119Q625 98 646 115Q656 124 653 139Q629 239 620 253Q616 262 605 267L601 296 Z"/>
<path id="z22744d3" d="M520 268Q521 240 523 214L526 177Q526 162 528 153Q534 135 514 119L472 124Q475 134 479 189L480 220Q480 242 482 276L520 268 Z"/>
<path id="z22744d4" d="M523 214Q557 208 587 205Q608 202 601 191Q591 178 569 173Q551 170 526 177L479 189Q448 196 419 205Q403 208 422 221Q425 224 480 220L523 214 Z"/>
<path id="z22744d5" d="M400 316Q409 317 421 316Q479 303 601 296L605 267Q602 264 598 261Q580 252 520 268L482 276Q436 282 398 288L400 316 Z"/>
<path id="z22744d6" d="M194 399Q182 395 158 393Q148 390 144 395Q140 401 148 415Q178 470 199 564Q203 592 221 611Q237 629 242 615Q243 605 244 592L242 572Q241 563 238 553Q216 459 210 428Q210 427 212 426L194 399 Z"/>
<path id="z22744d7" d="M387 571Q400 590 413 598Q422 604 434 587Q447 568 471 459Q478 434 498 413Q508 403 499 391Q486 378 451 356Q435 349 383 363Q382 363 268 385Q228 394 194 399L212 426Q240 417 281 410L312 404Q403 382 420 395Q432 404 429 420Q407 535 393 547L387 571 Z"/>
<path id="z22744d8" d="M334 549Q335 516 337 489L339 454Q339 421 322 411Q316 407 312 404L281 410Q288 419 292 469L294 497Q295 521 298 558L334 549 Z"/>
<path id="z22744d9" d="M337 489Q359 485 382 481Q401 477 393 466Q383 454 362 452Q352 451 339 454L292 469Q267 476 245 485Q232 489 249 501Q250 501 294 497L337 489 Z"/>
<path id="z22744d10" d="M244 592Q245 592 250 592Q325 579 387 571L393 547Q389 544 383 543Q367 540 336 548Q335 548 334 549L298 558Q268 564 242 572L244 592 Z"/>
<path id="z22744d11" d="M566 373Q556 369 530 363Q518 360 515 365Q509 371 517 386Q542 444 558 538Q561 566 577 585Q593 606 598 591Q601 584 602 572L602 546Q589 480 581 402L566 373 Z"/>
<path id="z22744d12" d="M763 553Q781 581 797 590Q807 597 821 578Q834 557 864 441Q873 413 895 391Q907 381 896 367Q883 351 844 327Q829 320 768 334Q746 334 566 373L581 402Q611 392 655 384L689 377Q794 356 809 368Q821 377 817 394Q793 515 777 532L763 553 Z"/>
<path id="z22744d13" d="M712 525Q713 494 714 466L716 430Q716 400 704 388Q697 381 689 377L655 384Q664 400 668 445L670 474Q670 498 673 533L712 525 Z"/>
<path id="z22744d14" d="M714 466Q739 459 765 456Q784 452 777 442Q768 430 747 427Q734 426 716 430L668 445Q641 452 617 461Q604 465 621 477Q622 477 670 474L714 466 Z"/>
<path id="z22744d15" d="M602 572Q608 572 617 571Q663 561 763 553L777 532Q773 528 764 522Q751 515 727 520Q720 521 712 525L673 533Q634 539 602 546L602 572 Z"/>
<path id="z22744d16" d="M535 723Q673 705 680 701Q690 694 686 684Q680 671 651 662Q626 653 539 674L479 684Q418 691 349 692Q312 695 336 714Q381 741 438 734Q457 730 481 730L535 723 Z"/>
<path id="z22744d17" d="M525 833Q529 775 535 723L539 674Q539 673 540 672Q543 653 546 639Q550 627 552 619Q556 609 537 594Q503 576 481 573Q465 569 458 578Q451 585 459 599Q474 620 479 684L481 730Q484 779 484 837L525 833 Z"/>
<path id="z22744d18" d="M484 837Q328 849 148 863Q123 864 140 885Q176 921 218 912Q465 855 873 878Q895 879 901 870Q908 857 890 840Q827 789 761 804Q668 817 525 833L484 837 Z"/>
<defs>
	<clipPath id="z22744c1"><use xlink:href="#z22744d1"/></clipPath>
	<clipPath id="z22744c2"><use xlink:href="#z22744d2"/></clipPath>
	<clipPath id="z22744c3"><use xlink:href="#z22744d3"/></clipPath>
	<clipPath id="z22744c4"><use xlink:href="#z22744d4"/></clipPath>
	<clipPath id="z22744c5"><use xlink:href="#z22744d5"/></clipPath>
	<clipPath id="z22744c6"><use xlink:href="#z22744d6"/></clipPath>
	<clipPath id="z22744c7"><use xlink:href="#z22744d7"/></clipPath>
	<clipPath id="z22744c8"><use xlink:href="#z22744d8"/></clipPath>
	<clipPath id="z22744c9"><use xlink:href="#z22744d9"/></clipPath>
	<clipPath id="z22744c10"><use xlink:href="#z22744d10"/></clipPath>
	<clipPath id="z22744c11"><use xlink:href="#z22744d11"/></clipPath>
	<clipPath id="z22744c12"><use xlink:href="#z22744d12"/></clipPath>
	<clipPath id="z22744c13"><use xlink:href="#z22744d13"/></clipPath>
	<clipPath id="z22744c14"><use xlink:href="#z22744d14"/></clipPath>
	<clipPath id="z22744c15"><use xlink:href="#z22744d15"/></clipPath>
	<clipPath id="z22744c16"><use xlink:href="#z22744d16"/></clipPath>
	<clipPath id="z22744c17"><use xlink:href="#z22744d17"/></clipPath>
	<clipPath id="z22744c18"><use xlink:href="#z22744d18"/></clipPath>
</defs>
<path pathLength="3333" clip-path="url(#z22744c1)" d="M305 118L345 160L384 335"/>
<path pathLength="3333" clip-path="url(#z22744c2)" d="M331 113L380 125L666 94L697 138L624 322"/>
<path pathLength="3333" clip-path="url(#z22744c3)" d="M479 128L503 158L495 272"/>
<path pathLength="3333" clip-path="url(#z22744c4)" d="M419 212L595 193"/>
<path pathLength="3333" clip-path="url(#z22744c5)" d="M407 309L602 275"/>
<path pathLength="3333" clip-path="url(#z22744c6)" d="M149 398L186 434L235 613"/>
<path pathLength="3333" clip-path="url(#z22744c7)" d="M203 402L407 374L451 387L466 407L413 593"/>
<path pathLength="3333" clip-path="url(#z22744c8)" d="M290 413L313 442L312 554"/>
<path pathLength="3333" clip-path="url(#z22744c9)" d="M247 492L386 469"/>
<path pathLength="3333" clip-path="url(#z22744c10)" d="M250 585L389 559"/>
<path pathLength="3333" clip-path="url(#z22744c11)" d="M521 373L554 409L589 592"/>
<path pathLength="3333" clip-path="url(#z22744c12)" d="M574 376L806 345L849 366L858 388L789 582"/>
<path pathLength="3333" clip-path="url(#z22744c13)" d="M661 385L690 417L684 530"/>
<path pathLength="3333" clip-path="url(#z22744c14)" d="M620 468L773 442"/>
<path pathLength="3333" clip-path="url(#z22744c15)" d="M608 564L769 532"/>
<path pathLength="3333" clip-path="url(#z22744c16)" d="M335 701L427 712L681 681"/>
<path pathLength="3333" clip-path="url(#z22744c17)" d="M463 583L513 630L505 834"/>
<path pathLength="3333" clip-path="url(#z22744c18)" d="M140 871L204 886L783 837L898 858"/>
</svg>