<!--
AnimCJK 2016-2018 Copyright Francois Mizessyn, http://gooo.free.fr/animCJK/
Derived from:
    MakeMeAHanzi project - https://github.com/skishore/makemeahanzi
    Arphic PL KaitiM GB - https://apps.ubuntu.com/cat/applications/precise/fonts-arphic-gkai00mp/
    Arphic PL UKai - https://apps.ubuntu.com/cat/applications/fonts-arphic-ukai/
You can redistribute and/or modify this file under the terms of the Arphic Public License
as published by Arphic Technology Co., Ltd.
You should have received a copy of this license (the directory "APL") along with this file;
if not, see http://ftp.gnu.org/non-gnu/chinese-fonts-truetype/LICENSE.
-->
<svg id="z22768" class="acjk" version="1.1" viewBox="0 0 1024 1024" xmlns="http://www.w3.org/2000/svg" xmlns:xlink="http://www.w3.org/1999/xlink">
<style>
<![CDATA[
@keyframes z22768k {
	from {
		stroke:#ccc;
		stroke-dashoffset:3334;
	}
	1% {
		stroke:#c00;
		stroke-dashoffset:3334;
	}
	75% {
		stroke:#c00;
		stroke-dashoffset:0;
	}
	to {
		stroke:#000;
	}
}
#z22768 path[clip-path] {
	animation:z22768k 1s linear both;
	stroke-dasharray:3334;
	stroke-width:128;
	stroke-linecap:round;
	fill:none;
}
#z22768 path[clip-path="url(#z22768c1)"] {animation-delay:1s;}
#z22768 path[clip-path="url(#z22768c2)"] {animation-delay:2s;}
#z22768 path[clip-path="url(#z22768c3)"] {animation-delay:3s;}
#z22768 path[clip-path="url(#z22768c4)"] {animation-delay:4s;}
#z22768 path[clip-path="url(#z22768c5)"] {animation-delay:5s;}
#z22768 path[clip-path="url(#z22768c6)"] {animation-delay:6s;}
#z22768 path[clip-path="url(#z22768c7)"] {animation-delay:7s;}
#z22768 path {fill:#ccc;}
]]>
</style>
<path id="z22768d1" d="M 543,220 C 598,212 648,204 775,195 781,194 790,193 795,183 798,175 787,167 774,159 746,143 710,145 659,157 639,161 594,171 548,180 L 490,190 C 425,201 352,207 242,214 220,215 218,223 234,236 256,254 276,261 297,258 355,247 432,234 491,227 Z"/>
<path id="z22768d2" d="M 533,305 C 535,276 539,246 543,220 L 548,180 C 550,150 556,125 564,107 566,100 560,92 548,83 526,70 507,62 493,60 482,57 474,59 470,65 465,69 465,76 470,86 480,100 486,134 490,190 L 491,227 C 491,253 492,282 492,312 Z"/>
<path id="z22768d3" d="M 492,312 C 474,315 412,324 328,330 311,331 309,338 322,349 340,364 358,370 377,367 488,346 593,330 691,322 697,321 704,320 708,312 710,305 701,299 690,291 670,278 636,281 596,292 565,300 554,301 533,305 Z"/>
<path id="z22768d4" d="M 711,543 C 727,504 747,481 767,468 781,457 782,441 771,429 761,418 737,403 701,385 688,378 674,378 659,383 568,411 459,431 329,441 L 336,476 C 344,476 354,474 365,472 401,466 439,460 477,456 L 515,450 C 549,443 585,438 622,433 644,429 659,431 668,441 672,446 675,453 673,464 667,492 660,517 654,541 Z"/>
<path id="z22768d5" d="M 477,456 C 477,495 477,534 477,573 L 520,567 C 526,524 531,501 534,497 540,483 534,467 515,450 Z"/>
<path id="z22768d6" d="M 312,626 C 318,628 327,629 338,627 420,611 551,596 730,584 736,583 741,580 743,574 745,564 722,551 711,543 L 654,541 C 607,553 563,561 520,567 L 477,573 C 442,577 389,586 318,592 Z"/>
<path id="z22768d7" d="M 329,441 C 314,429 285,411 263,412 249,412 248,420 257,438 276,475 273,554 250,674 242,710 227,750 207,792 191,824 154,867 96,919 84,928 77,934 75,939 73,943 76,946 84,947 110,949 146,928 193,885 247,833 289,752 312,626 L 318,592 C 323,563 325,533 330,502 331,491 334,482 336,476 Z"/>
<defs>
	<clipPath id="z22768c1"><use xlink:href="#z22768d1"/></clipPath>
	<clipPath id="z22768c2"><use xlink:href="#z22768d2"/></clipPath>
	<clipPath id="z22768c3"><use xlink:href="#z22768d3"/></clipPath>
	<clipPath id="z22768c4"><use xlink:href="#z22768d4"/></clipPath>
	<clipPath id="z22768c5"><use xlink:href="#z22768d5"/></clipPath>
	<clipPath id="z22768c6"><use xlink:href="#z22768d6"/></clipPath>
	<clipPath id="z22768c7"><use xlink:href="#z22768d7"/></clipPath>
</defs>
<path pathLength="3333" clip-path="url(#z22768c1)" d="M230 221L285 234L695 175L788 180"/>
<path pathLength="3333" clip-path="url(#z22768c2)" d="M476 63L523 113L504 308"/>
<path pathLength="3333" clip-path="url(#z22768c3)" d="M322 338L699 308"/>
<path pathLength="3333" clip-path="url(#z22768c4)" d="M336 447L678 409L725 457L667 540"/>
<path pathLength="3333" clip-path="url(#z22768c5)" d="M483 459L506 494L491 571"/>
<path pathLength="3333" clip-path="url(#z22768c6)" d="M323 620L738 568"/>
<path pathLength="3333" clip-path="url(#z22768c7)" d="M257 418L302 483L266 710L195 849L83 940"/>
</svg>