<!--
AnimCJK 2016-2018 Copyright Francois Mizessyn, https://github.com/parsimonhi/animCJK
Derived from:
    MakeMeAHanzi project - https://github.com/skishore/makemeahanzi
    Arphic PL KaitiM GB - https://apps.ubuntu.com/cat/applications/precise/fonts-arphic-gkai00mp/
    Arphic PL UKai - https://apps.ubuntu.com/cat/applications/fonts-arphic-ukai/
You can redistribute and/or modify this file under the terms of the Arphic Public License
as published by Arphic Technology Co., Ltd.
You should have received a copy of this license (the directory "APL") along with this file;
if not, see http://ftp.gnu.org/non-gnu/chinese-fonts-truetype/LICENSE.
-->
<svg id="z22764" class="acjk" version="1.1" viewBox="0 0 1024 1024" xmlns="http://www.w3.org/2000/svg" xmlns:xlink="http://www.w3.org/1999/xlink">
<style>
<![CDATA[
@keyframes z22764k {
	from {
		stroke:#c00;
		stroke-dashoffset:3334;
	}
	75% {
		stroke:#c00;
		stroke-dashoffset:0;
	}
	to {
		stroke:#000;
	}
}
#z22764 path[clip-path] {
	animation:z22764k 1s linear both;
	stroke-dasharray:3334;
	stroke-width:128;
	stroke-linecap:round;
	fill:none;
}
#z22764 path[clip-path="url(#z22764c1)"] {animation-delay:1s;}
#z22764 path[clip-path="url(#z22764c2)"] {animation-delay:2s;}
#z22764 path[clip-path="url(#z22764c3)"] {animation-delay:3s;}
#z22764 path[clip-path="url(#z22764c4)"] {animation-delay:4s;}
#z22764 path {fill:#ccc;}
]]>
</style>
<path id="z22764d1" d="M509 255Q650 206 662 204Q713 194 716 191Q720 179 709 166Q687 147 639 125Q623 115 608 115Q601 119 598 131Q592 185 282 295Q275 305 282 308Q303 314 468 266L509 255 Z"/>
<path id="z22764d2" d="M543 521Q633 514 894 513Q918 513 923 503Q930 490 911 473Q835 418 791 439Q694 455 544 480L490 488Q318 507 119 530Q94 533 112 553Q128 569 150 576Q175 583 194 577Q344 538 489 527L543 521 Z"/>
<path id="z22764d3" d="M534 748Q538 627 543 521L544 480Q545 381 552 319Q559 298 550 287Q528 265 509 255L468 266Q490 315 491 425Q490 450 490 488L489 527Q488 615 484 754L534 748 Z"/>
<path id="z22764d4" d="M528 795Q564 794 598 789Q688 777 782 790Q804 791 809 784Q816 771 805 761Q777 736 737 719Q724 713 700 721Q661 728 534 748L484 754Q262 775 254 776Q241 776 241 786Q240 798 258 811Q300 838 331 827Q385 809 528 795 Z"/>
<defs>
	<clipPath id="z22764c1"><use xlink:href="#z22764d1"/></clipPath>
	<clipPath id="z22764c2"><use xlink:href="#z22764d2"/></clipPath>
	<clipPath id="z22764c3"><use xlink:href="#z22764d3"/></clipPath>
	<clipPath id="z22764c4"><use xlink:href="#z22764d4"/></clipPath>
</defs>
<path pathLength="3333" clip-path="url(#z22764c1)" d="M710 183L611 167L507 231L287 301"/>
<path pathLength="3333" clip-path="url(#z22764c2)" d="M112 539L171 552L820 473L920 487"/>
<path pathLength="3333" clip-path="url(#z22764c3)" d="M475 267L519 309L508 750"/>
<path pathLength="3333" clip-path="url(#z22764c4)" d="M246 784L314 800L720 750L807 775"/>
</svg>