<!--
AnimCJK 2016-2025 Copyright FM-SH - https://github.com/parsimonhi/animCJK
Derived from:
    MakeMeAHanzi project - https://github.com/skishore/makemeahanzi
    Arphic PL KaitiM GB font
    Arphic PL UKai font
You can redistribute and/or modify this file under the terms of the Arphic Public License
as published by Arphic Technology Co., Ltd.
You should have received a copy of this license along with this file.
If not, see http://ftp.gnu.org/non-gnu/chinese-fonts-truetype/LICENSE.
-->
<svg id="z22789" class="acjk" version="1.1" viewBox="0 0 1024 1024" xmlns="http://www.w3.org/2000/svg" xmlns:xlink="http://www.w3.org/1999/xlink">
<style>
<![CDATA[
@keyframes zk {
	to {
		stroke-dashoffset:0;
	}
}
svg.acjk path[clip-path] {
	--t:0.8s;
	animation:zk var(--t) linear forwards var(--d);
	stroke-dasharray:3337;
	stroke-dashoffset:3339;
	stroke-width:128;
	stroke-linecap:round;
	fill:none;
	stroke:#000;
}
svg.acjk path[id] {fill:#ccc;}
]]>
</style>
<path id="z22789d1" d="M443 175C457 157 470 146 480 140C494 128 489 110 465 85C451 71 438 64 427 62C417 61 413 67 416 81C414 154 304 260 227 332C198 354 226 355 245 346C273 332 315 299 373 247C383 237 383 237 388 232C396 222 408 210 425 194C437 181 437 181 443 175Z"/>
<path id="z22789d2" d="M538 334C633 246 680 195 690 190C699 184 702 178 701 171C699 165 680 154 643 134C631 128 612 134 580 145C532 160 486 167 443 175C434 176 418 190 425 194C437 204 468 204 519 196C581 184 595 183 564 225C550 245 528 273 495 306C480 320 480 320 473 327C413 384 344 446 139 570C127 576 128 581 139 582C288 542 411 449 514 356C530 341 530 341 538 334Z"/>
<path id="z22789d3" d="M514 356C593 412 671 468 750 521C766 532 786 539 811 537C859 533 904 519 949 508C968 503 983 494 955 487C912 475 862 463 806 450C727 431 610 380 538 334C538 334 509 315 495 306C458 281 388 232 388 232C382 228 368 242 373 247C404 273 438 302 473 327C500 346 500 346 514 356Z"/>
<path id="z22789d4" d="M545 574C582 568 678 549 701 542C713 538 717 530 690 517C681 513 657 508 643 510C603 513 572 520 549 526C510 535 510 535 491 539C434 551 369 562 310 567C286 568 281 579 300 588C350 611 418 592 491 582C527 577 527 577 545 574Z"/>
<path id="z22789d5" d="M303 723C315 645 332 662 327 644C325 638 319 631 310 624C288 604 272 597 263 602C255 605 253 613 256 619C272 653 268 726 268 726C268 738 301 734 303 723Z"/>
<path id="z22789d6" d="M543 731C631 721 722 717 808 723C821 723 833 720 840 713C845 706 837 699 826 690C787 661 753 655 713 663C663 672 561 686 543 690C508 696 508 696 490 699C427 709 361 718 303 723C280 725 280 725 268 726C203 731 193 741 211 756C230 771 249 775 267 776C307 776 348 752 489 737C525 733 525 733 543 731Z"/>
<path id="z22789d7" d="M489 737C485 882 493 961 502 976C506 983 510 986 516 984C527 978 533 950 538 904C539 883 543 825 543 731C543 704 543 704 543 690C543 657 541 618 545 574C548 542 548 542 549 526C550 506 562 474 545 462C533 453 523 448 516 445C499 437 482 432 472 443C465 449 469 459 472 465C483 488 491 511 491 539C491 568 491 568 491 582C491 631 490 670 490 699C489 724 489 724 489 737Z"/>
<defs>
	<clipPath id="z22789c1"><use xlink:href="#z22789d1"/></clipPath>
	<clipPath id="z22789c2"><use xlink:href="#z22789d2"/></clipPath>
	<clipPath id="z22789c3"><use xlink:href="#z22789d3"/></clipPath>
	<clipPath id="z22789c4"><use xlink:href="#z22789d4"/></clipPath>
	<clipPath id="z22789c5"><use xlink:href="#z22789d5"/></clipPath>
	<clipPath id="z22789c6"><use xlink:href="#z22789d6"/></clipPath>
	<clipPath id="z22789c7"><use xlink:href="#z22789d7"/></clipPath>
</defs>
<path style="--d:1s;" pathLength="3333" clip-path="url(#z22789c1)" d="M425 65L440 133L223 344"/>
<path style="--d:2s;" pathLength="3333" clip-path="url(#z22789c2)" d="M431 191L609 163L643 192L390 429L140 577"/>
<path style="--d:3s;" pathLength="3333" clip-path="url(#z22789c3)" d="M381 243L781 489L960 496"/>
<path style="--d:4s;" pathLength="3333" clip-path="url(#z22789c4)" d="M294 575L704 534"/>
<path style="--d:5s;" pathLength="3333" clip-path="url(#z22789c5)" d="M264 605L297 654L287 730"/>
<path style="--d:6s;" pathLength="3333" clip-path="url(#z22789c6)" d="M211 745L734 690L835 706"/>
<path style="--d:7s;" pathLength="3333" clip-path="url(#z22789c7)" d="M476 448L521 501L514 978"/>
</svg>