<!--
AnimCJK 2016-2018 Copyright Francois Mizessyn, https://github.com/parsimonhi/animCJK
Derived from:
    MakeMeAHanzi project - https://github.com/skishore/makemeahanzi
    Arphic PL KaitiM GB - https://apps.ubuntu.com/cat/applications/precise/fonts-arphic-gkai00mp/
    Arphic PL UKai - https://apps.ubuntu.com/cat/applications/fonts-arphic-ukai/
You can redistribute and/or modify this file under the terms of the Arphic Public License
as published by Arphic Technology Co., Ltd.
You should have received a copy of this license (the directory "APL") along with this file;
if not, see http://ftp.gnu.org/non-gnu/chinese-fonts-truetype/LICENSE.
-->
<svg id="z22799" class="acjk" version="1.1" viewBox="0 0 1024 1024" xmlns="http://www.w3.org/2000/svg" xmlns:xlink="http://www.w3.org/1999/xlink">
<style>
<![CDATA[
@keyframes z22799k {
	from {
		stroke:#c00;
		stroke-dashoffset:3334;
	}
	75% {
		stroke:#c00;
		stroke-dashoffset:0;
	}
	to {
		stroke:#000;
	}
}
#z22799 path[clip-path] {
	animation:z22799k 1s linear both;
	stroke-dasharray:3334;
	stroke-width:128;
	stroke-linecap:round;
	fill:none;
}
#z22799 path[clip-path="url(#z22799c1)"] {animation-delay:1s;}
#z22799 path[clip-path="url(#z22799c2)"] {animation-delay:2s;}
#z22799 path[clip-path="url(#z22799c3)"] {animation-delay:3s;}
#z22799 path[clip-path="url(#z22799c4)"] {animation-delay:4s;}
#z22799 path[clip-path="url(#z22799c5)"] {animation-delay:5s;}
#z22799 path[clip-path="url(#z22799c6)"] {animation-delay:6s;}
#z22799 path[clip-path="url(#z22799c7)"] {animation-delay:7s;}
#z22799 path[clip-path="url(#z22799c8)"] {animation-delay:8s;}
#z22799 path[clip-path="url(#z22799c9)"] {animation-delay:9s;}
#z22799 path[clip-path="url(#z22799c10)"] {animation-delay:10s;}
#z22799 path {fill:#ccc;}
]]>
</style>
<path id="z22799d1" d="M479 134Q489 124 678 123Q738 120 812 126Q833 126 838 117Q844 105 827 91Q773 49 735 57Q593 84 229 121Q207 122 223 141Q238 156 256 162Q278 168 295 163Q362 147 437 138L479 134 Z"/>
<path id="z22799d2" d="M440 235Q470 196 490 180Q503 171 498 161Q494 148 479 134L437 138Q437 160 395 245L440 235 Z"/>
<path id="z22799d3" d="M362 250Q349 243 325 237Q313 233 309 238Q302 242 309 260Q334 336 340 457Q340 493 357 519Q373 543 379 528Q382 521 384 512L388 485Q388 448 385 433L383 413Q380 380 379 357L378 336Q375 299 375 282L362 250 Z"/>
<path id="z22799d4" d="M598 491Q620 519 637 527Q649 534 661 512Q676 481 695 315Q702 284 723 259Q735 246 723 233Q707 218 665 195Q646 189 565 209L442 234Q439 234 440 235L395 245Q379 246 362 250L375 282Q451 260 587 238Q618 234 627 243Q645 261 643 279Q627 450 611 466L598 491 Z"/>
<path id="z22799d5" d="M379 357Q389 358 400 357Q488 341 552 332Q571 329 565 318Q556 306 535 302Q511 299 378 336L379 357 Z"/>
<path id="z22799d6" d="M385 433Q392 434 404 433Q494 420 560 412Q579 409 573 398Q564 386 543 382Q518 376 383 413L385 433 Z"/>
<path id="z22799d7" d="M384 512Q391 513 402 512Q514 499 598 491L611 466Q602 459 588 455Q566 451 526 458Q453 473 388 485L384 512 Z"/>
<path id="z22799d8" d="M427 598Q443 579 455 570Q465 560 463 551Q460 538 437 530Q410 520 399 522Q392 523 389 535Q362 643 81 841Q60 854 86 852Q194 840 379 651Q386 639 407 619L427 598 Z"/>
<path id="z22799d9" d="M581 784Q620 736 656 666Q672 638 694 622Q715 609 703 593Q691 580 661 564Q637 554 608 564Q575 574 532 585Q492 592 427 598L407 619Q408 619 411 621Q448 637 499 625Q572 606 586 607Q607 611 599 633Q577 703 540 754L516 782Q435 863 262 900Q247 904 258 913Q265 917 316 915Q380 911 455 878Q509 854 551 817L581 784 Z"/>
<path id="z22799d10" d="M551 817Q686 952 732 950Q817 946 884 931Q920 924 916 914Q915 910 879 900Q693 860 612 806Q596 794 581 784L540 754Q509 727 475 697Q438 663 404 664Q388 664 385 670Q384 676 399 685Q441 706 516 782L551 817 Z"/>
<defs>
	<clipPath id="z22799c1"><use xlink:href="#z22799d1"/></clipPath>
	<clipPath id="z22799c2"><use xlink:href="#z22799d2"/></clipPath>
	<clipPath id="z22799c3"><use xlink:href="#z22799d3"/></clipPath>
	<clipPath id="z22799c4"><use xlink:href="#z22799d4"/></clipPath>
	<clipPath id="z22799c5"><use xlink:href="#z22799d5"/></clipPath>
	<clipPath id="z22799c6"><use xlink:href="#z22799d6"/></clipPath>
	<clipPath id="z22799c7"><use xlink:href="#z22799d7"/></clipPath>
	<clipPath id="z22799c8"><use xlink:href="#z22799d8"/></clipPath>
	<clipPath id="z22799c9"><use xlink:href="#z22799d9"/></clipPath>
	<clipPath id="z22799c10"><use xlink:href="#z22799d10"/></clipPath>
</defs>
<path pathLength="3333" clip-path="url(#z22799c1)" d="M223 129L280 140L742 89L834 110"/>
<path pathLength="3333" clip-path="url(#z22799c2)" d="M443 144L460 177L401 238"/>
<path pathLength="3333" clip-path="url(#z22799c3)" d="M315 244L346 287L369 528"/>
<path pathLength="3333" clip-path="url(#z22799c4)" d="M371 253L623 217L678 245L649 445L617 511"/>
<path pathLength="3333" clip-path="url(#z22799c5)" d="M388 349L561 322"/>
<path pathLength="3333" clip-path="url(#z22799c6)" d="M389 426L569 400"/>
<path pathLength="3333" clip-path="url(#z22799c7)" d="M391 504L603 470"/>
<path pathLength="3333" clip-path="url(#z22799c8)" d="M459 553L416 555L285 710L81 848"/>
<path pathLength="3333" clip-path="url(#z22799c9)" d="M419 613L610 587L652 618L510 819L396 880L263 904"/>
<path pathLength="3333" clip-path="url(#z22799c10)" d="M394 671L711 899L910 918"/>
</svg>