<!--
AnimCJK 2016-2018 Copyright Francois Mizessyn - https://github.com/parsimonhi/animCJK
Derived from:
    MakeMeAHanzi project - https://github.com/skishore/makemeahanzi
    Arphic PL KaitiM GB - https://apps.ubuntu.com/cat/applications/precise/fonts-arphic-gkai00mp/
    Arphic PL UKai - https://apps.ubuntu.com/cat/applications/fonts-arphic-ukai/
You can redistribute and/or modify this file under the terms of the Arphic Public License
as published by Arphic Technology Co., Ltd.
You should have received a copy of this license (the directory "APL") along with this file;
if not, see http://ftp.gnu.org/non-gnu/chinese-fonts-truetype/LICENSE.
-->
<svg id="z22826" class="acjk" version="1.1" viewBox="0 0 1024 1024" xmlns="http://www.w3.org/2000/svg" xmlns:xlink="http://www.w3.org/1999/xlink">
<style>
<![CDATA[
@keyframes z22826k {
	from {
		stroke:#c00;
		stroke-dashoffset:3334;
	}
	75% {
		stroke:#c00;
		stroke-dashoffset:0;
	}
	to {
		stroke:#000;
	}
}
#z22826 path[clip-path] {
	animation:z22826k 1s linear both;
	stroke-dasharray:3334;
	stroke-width:128;
	stroke-linecap:round;
	fill:none;
}
#z22826 path[clip-path="url(#z22826c1)"] {animation-delay:1s;}
#z22826 path[clip-path="url(#z22826c2)"] {animation-delay:2s;}
#z22826 path[clip-path="url(#z22826c3)"] {animation-delay:3s;}
#z22826 path[clip-path="url(#z22826c4)"] {animation-delay:4s;}
#z22826 path {fill:#ccc;}
]]>
</style>
<path id="z22826d1" d="M506 408C572 397 660 391 766 391C812 390 837 387 841 380C845 371 841 361 828 352C788 324 754 314 727 320C672 332 601 348 512 364L453 374C376 386 293 397 205 411C190 413 188 420 200 433C210 443 222 449 236 453C252 457 265 456 277 453C329 436 386 426 447 417 Z"/>
<path id="z22826d2" d="M502 434C503 425 504 417 506 408L512 364C522 288 527 223 538 166C538 166 549 125 544 114C536 97 511 87 485 76C469 69 454 69 442 73C427 77 425 87 437 101C457 123 467 145 467 168C464 244 461 313 453 374L447 417C429 541 395 635 352 696C308 756 237 813 144 867C134 872 127 874 126 877C123 881 127 885 139 886C171 888 227 866 302 815C344 785 373 758 389 738L409 712C447 661 476 582 494 481 Z"/>
<path id="z22826d3" d="M494 481C508 511 534 558 572 622C622 708 667 776 706 827C724 851 742 864 762 866C822 870 877 874 929 880C951 882 963 880 964 875C964 869 953 859 931 849C812 792 746 757 732 744C678 691 612 606 535 487C522 468 511 450 502 434 Z"/>
<path id="z22826d4" d="M389 738C393 742 399 749 408 759C428 781 451 805 474 832C481 840 489 846 500 847C506 847 512 843 517 835C521 826 521 812 518 792C515 776 503 759 481 746C459 732 434 722 409 712 Z"/>
<defs>
	<clipPath id="z22826c1"><use xlink:href="#z22826d1"/></clipPath>
	<clipPath id="z22826c2"><use xlink:href="#z22826d2"/></clipPath>
	<clipPath id="z22826c3"><use xlink:href="#z22826d3"/></clipPath>
	<clipPath id="z22826c4"><use xlink:href="#z22826d4"/></clipPath>
</defs>
<path pathLength="3333" clip-path="url(#z22826c1)" d="M200 417L256 430L719 356L838 371"/>
<path pathLength="3333" clip-path="url(#z22826c2)" d="M435 84L506 134L472 439L420 627L325 764L134 878"/>
<path pathLength="3333" clip-path="url(#z22826c3)" d="M504 446L593 614L726 789L775 824L955 870"/>
<path pathLength="3333" clip-path="url(#z22826c4)" d="M398 740L466 774L507 840"/>
</svg>