<!--
AnimCJK 2016-2026 Copyright FM-SH - https://github.com/parsimonhi/animCJK
Derived from:
    MakeMeAHanzi project - https://github.com/skishore/makemeahanzi
    Arphic PL KaitiM GB font
    Arphic PL KaitiM Big5 font
You can redistribute and/or modify this file under the terms of the Arphic Public License
as published by Arphic Technology Co., Ltd.
You should have received a copy of this license along with this file.
If not, see https://ftp.gnu.org/non-gnu/chinese-fonts-truetype/LICENSE.
-->
<svg id="z22864" class="acjk" viewBox="0 0 1024 1024" xmlns="http://www.w3.org/2000/svg">
<style>
<![CDATA[
@keyframes zk {
	to {
		stroke-dashoffset:0;
	}
}
svg.acjk path[clip-path] {
	--t:0.8s;
	animation:zk var(--t) linear forwards var(--d);
	stroke-dasharray:3337;
	stroke-dashoffset:3339;
	stroke-width:128;
	stroke-linecap:round;
	fill:none;
	stroke:#000;
}
svg.acjk path[id] {fill:#ccc;}
]]>
</style>
<path id="z22864d1" d="M462 135C470 125 478 116 486 108C494 100 494 89 485 80C459 53 437 41 421 43C414 43 411 49 411 59C409 144 350 195 294 248C240 298 311 267 321 263C371 239 406 198 442 158C455 143 455 143 462 135Z"/>
<path id="z22864d2" d="M515 302C568 255 616 201 679 168C693 160 697 151 688 141C678 130 659 117 633 99C612 84 586 107 462 135C452 137 432 155 442 158C456 166 494 164 558 154C566 152 578 151 568 170C551 198 527 233 475 310C468 322 504 310 515 302Z"/>
<path id="z22864d3" d="M264 347C244 343 207 337 230 373C248 401 267 440 284 490C288 504 295 515 305 525C320 539 328 540 331 529C333 518 333 502 329 481C318 434 311 403 307 386C307 385 307 385 308 385C308 366 283 351 264 347Z"/>
<path id="z22864d4" d="M560 326C593 319 633 313 646 314C670 314 688 329 686 351C682 375 676 415 666 451C659 471 665 503 684 502C698 501 718 481 731 436C741 398 747 375 773 356C785 346 787 335 778 325C766 312 742 299 712 277C683 255 667 271 515 302C488 307 488 307 475 310C438 317 303 351 264 347C245 347 290 392 308 385C323 379 367 364 415 355C432 352 432 352 441 350C476 343 504 336 523 333C548 328 548 328 560 326Z"/>
<path id="z22864d5" d="M415 355C411 369 436 389 369 495C357 513 366 518 380 507C408 485 425 465 443 441C486 384 470 382 441 350C435 344 415 346 415 355Z"/>
<path id="z22864d6" d="M523 333C529 341 527 383 527 399C525 448 546 472 595 476C642 479 675 452 635 435C620 429 611 435 594 436C578 437 564 431 564 402C564 386 566 373 573 360C582 342 574 336 560 326C549 320 518 321 523 333Z"/>
<path id="z22864d7" d="M531 608C565 602 624 600 809 591C839 589 838 570 821 558C782 530 745 527 707 538C639 556 580 568 519 578C474 585 474 585 451 589C385 599 237 624 163 632C150 633 148 640 159 651C186 678 225 668 226 668C280 651 387 630 448 621C503 612 503 612 531 608Z"/>
<path id="z22864d8" d="M519 578C521 568 525 553 529 547C540 522 507 511 493 505C469 495 453 493 442 498C433 501 434 509 440 522C448 540 453 563 451 589C449 610 449 610 448 621C433 772 271 835 144 888C125 895 126 901 148 902C195 902 449 867 508 624C515 593 515 593 519 578Z"/>
<path id="z22864d9" d="M508 624C616 777 671 887 736 926C745 932 757 934 769 933C819 924 887 913 932 907C980 899 958 886 927 877C815 844 748 819 718 798C645 746 599 677 531 608C518 595 497 609 508 624Z"/>
<defs>
	<clipPath id="z22864c1"><use href="#z22864d1"/></clipPath>
	<clipPath id="z22864c2"><use href="#z22864d2"/></clipPath>
	<clipPath id="z22864c3"><use href="#z22864d3"/></clipPath>
	<clipPath id="z22864c4"><use href="#z22864d4"/></clipPath>
	<clipPath id="z22864c5"><use href="#z22864d5"/></clipPath>
	<clipPath id="z22864c6"><use href="#z22864d6"/></clipPath>
	<clipPath id="z22864c7"><use href="#z22864d7"/></clipPath>
	<clipPath id="z22864c8"><use href="#z22864d8"/></clipPath>
	<clipPath id="z22864c9"><use href="#z22864d9"/></clipPath>
</defs>
<path style="--d:1s;" pathLength="3333" clip-path="url(#z22864c1)" d="M419 47L441 109L367 206L283 270"/>
<path style="--d:2s;" pathLength="3333" clip-path="url(#z22864c2)" d="M445 154L592 127L639 157L482 309"/>
<path style="--d:3s;" pathLength="3333" clip-path="url(#z22864c3)" d="M231 356L275 386L324 530"/>
<path style="--d:4s;" pathLength="3333" clip-path="url(#z22864c4)" d="M268 353L312 363L686 295L734 347L684 497"/>
<path style="--d:5s;" pathLength="3333" clip-path="url(#z22864c5)" d="M424 354L440 400L369 504"/>
<path style="--d:6s;" pathLength="3333" clip-path="url(#z22864c6)" d="M534 328L554 439L598 456L646 445"/>
<path style="--d:7s;" pathLength="3333" clip-path="url(#z22864c7)" d="M160 639L217 647L728 564L828 568"/>
<path style="--d:8s;" pathLength="3333" clip-path="url(#z22864c8)" d="M442 502L490 552L468 662L426 741L313 834L137 895"/>
<path style="--d:9s;" pathLength="3333" clip-path="url(#z22864c9)" d="M515 611L743 869L954 895"/>
</svg>