<!--
AnimCJK 2016-2018 Copyright Francois Mizessyn, http://gooo.free.fr/animCJK/
Derived from:
    MakeMeAHanzi project - https://github.com/skishore/makemeahanzi
    Arphic PL KaitiM GB - https://apps.ubuntu.com/cat/applications/precise/fonts-arphic-gkai00mp/
    Arphic PL UKai - https://apps.ubuntu.com/cat/applications/fonts-arphic-ukai/
You can redistribute and/or modify this file under the terms of the Arphic Public License
as published by Arphic Technology Co., Ltd.
You should have received a copy of this license (the directory "APL") along with this file;
if not, see http://ftp.gnu.org/non-gnu/chinese-fonts-truetype/LICENSE.
-->
<svg id="z22909" class="acjk" version="1.1" viewBox="0 0 1024 1024" xmlns="http://www.w3.org/2000/svg" xmlns:xlink="http://www.w3.org/1999/xlink">
<style>
<![CDATA[
@keyframes z22909k {
	from {
		stroke:#ccc;
		stroke-dashoffset:3334;
	}
	1% {
		stroke:#c00;
		stroke-dashoffset:3334;
	}
	75% {
		stroke:#c00;
		stroke-dashoffset:0;
	}
	to {
		stroke:#000;
	}
}
#z22909 path[clip-path] {
	animation:z22909k 1s linear both;
	stroke-dasharray:3334;
	stroke-width:128;
	stroke-linecap:round;
	fill:none;
}
#z22909 path[clip-path="url(#z22909c1)"] {animation-delay:1s;}
#z22909 path[clip-path="url(#z22909c2)"] {animation-delay:2s;}
#z22909 path[clip-path="url(#z22909c3)"] {animation-delay:3s;}
#z22909 path[clip-path="url(#z22909c4)"] {animation-delay:4s;}
#z22909 path[clip-path="url(#z22909c5)"] {animation-delay:5s;}
#z22909 path[clip-path="url(#z22909c6)"] {animation-delay:6s;}
#z22909 path {fill:#ccc;}
]]>
</style>
<path id="z22909d1" d="M 330,698 C 350,715 373,739 399,766 409,776 418,781 424,782 430,782 434,778 439,772 443,765 445,751 442,730 438,705 410,680 361,653 L 319,630 C 300,620 280,607 258,596 244,589 235,578 240,565 252,525 268,487 281,447 L 293,408 C 308,357 324,306 337,256 344,225 354,202 366,185 375,170 377,158 373,150 365,136 344,122 313,103 300,94 287,92 276,99 267,103 266,111 273,122 292,152 288,250 247,414 L 236,458 C 224,504 209,538 195,564 187,578 190,593 206,604 236,624 267,643 294,667 Z"/>
<path id="z22909d2" d="M 294,667 C 290,672 285,677 281,683 260,708 232,732 196,757 187,763 176,768 165,776 L 133,796 C 124,801 123,807 131,808 184,813 250,776 327,701 380,648 329,699 330,698 341,684 335,696 361,653 391,603 410,556 421,515 434,462 453,404 463,390 469,379 467,371 458,363 429,337 406,326 387,331 378,333 374,340 378,350 383,363 388,377 387,393 L 385,419 C 379,490 363,563 319,630 Z"/>
<path id="z22909d3" d="M 387,393 C 356,397 325,403 293,408 L 247,414 C 227,416 141,428 115,432 100,433 83,431 61,429 52,427 47,432 45,438 42,446 43,453 49,459 61,471 76,486 96,500 101,504 109,501 118,498 165,475 206,465 236,458 L 281,447 C 307,440 361,427 385,419 Z"/>
<path id="z22909d4" d="M 671,379 C 749,303 799,260 822,252 835,247 839,239 835,228 831,217 807,199 760,175 746,167 731,168 716,175 679,190 632,206 575,224 560,228 534,231 498,231 481,231 474,238 482,252 486,261 497,269 511,277 532,289 554,286 578,273 590,265 628,250 691,224 700,219 710,221 719,227 727,233 731,241 726,251 705,287 680,326 655,369 Z"/>
<path id="z22909d5" d="M 717,470 C 709,438 691,395 671,379 L 655,369 C 650,366 641,362 636,360 628,357 615,355 608,360 599,365 598,372 608,381 631,400 648,436 659,479 L 668,516 C 688,601 688,730 658,797 649,815 631,821 607,817 586,813 566,809 548,806 539,804 537,807 542,815 544,819 552,825 564,835 591,857 608,877 618,895 624,907 633,912 645,911 654,909 669,901 687,883 745,823 769,696 726,509 Z"/>
<path id="z22909d6" d="M 726,509 C 763,504 837,503 947,503 959,502 967,499 971,494 975,487 971,478 960,470 926,444 888,438 848,446 811,452 768,462 717,470 L 659,479 C 594,489 525,497 452,507 438,508 436,513 447,525 455,533 466,539 478,543 490,546 502,547 514,544 561,531 613,522 668,516 Z"/>
<defs>
	<clipPath id="z22909c1"><use xlink:href="#z22909d1"/></clipPath>
	<clipPath id="z22909c2"><use xlink:href="#z22909d2"/></clipPath>
	<clipPath id="z22909c3"><use xlink:href="#z22909d3"/></clipPath>
	<clipPath id="z22909c4"><use xlink:href="#z22909d4"/></clipPath>
	<clipPath id="z22909c5"><use xlink:href="#z22909d5"/></clipPath>
	<clipPath id="z22909c6"><use xlink:href="#z22909d6"/></clipPath>
</defs>
<path pathLength="3333" clip-path="url(#z22909c1)" d="M275 107L329 164L216 578L399 719L426 777"/>
<path pathLength="3333" clip-path="url(#z22909c2)" d="M385 338L427 384L349 626L244 746L133 802"/>
<path pathLength="3333" clip-path="url(#z22909c3)" d="M47 440L109 466L381 402"/>
<path pathLength="3333" clip-path="url(#z22909c4)" d="M484 239L542 257L708 199L755 211L782 248L663 373"/>
<path pathLength="3333" clip-path="url(#z22909c5)" d="M605 367L661 403L688 473L707 749L678 834L644 862L547 811"/>
<path pathLength="3333" clip-path="url(#z22909c6)" d="M450 517L851 474L967 485"/>
</svg>