<!--
AnimCJK 2016-2017 Copyright Francois Mizessyn, http://gooo.free.fr/animCJK/
Derived from:
    MakeMeAHanzi project - https://github.com/skishore/makemeahanzi
    Arphic PL KaitiM GB - https://apps.ubuntu.com/cat/applications/precise/fonts-arphic-gkai00mp/
    Arphic PL UKai - https://apps.ubuntu.com/cat/applications/fonts-arphic-ukai/
You can redistribute and/or modify this file under the terms of the Arphic Public License
as published by Arphic Technology Co., Ltd.
You should have received a copy of this license (the directory "APL") along with this file;
if not, see http://ftp.gnu.org/non-gnu/chinese-fonts-truetype/LICENSE.
-->
<svg id="z22915" class="acjk" version="1.1" viewBox="0 0 1024 1024" xmlns="http://www.w3.org/2000/svg" xmlns:xlink="http://www.w3.org/1999/xlink">
<style>
<![CDATA[
	@keyframes z22915k {
		from {
			stroke:#c00;
			stroke-dashoffset:3000;
		}
		75% {
			stroke:#c00;
			stroke-dashoffset:0;
		}
		to {
			stroke:#000;
		}
	}
	#z22915 path[clip-path] {
		animation:z22915k 1s linear both;
		stroke-dasharray:3000;
		stroke-width:128;
		stroke-linecap:round;
		fill:none;
	}
	#z22915 path[clip-path="url(#z22915c1)"] {animation-delay:1s;}
	#z22915 path[clip-path="url(#z22915c2)"] {animation-delay:2s;}
	#z22915 path[clip-path="url(#z22915c3)"] {animation-delay:3s;}
	#z22915 path[clip-path="url(#z22915c4)"] {animation-delay:4s;}
	#z22915 path[clip-path="url(#z22915c5)"] {animation-delay:5s;}
	#z22915 path[clip-path="url(#z22915c6)"] {animation-delay:6s;}
	#z22915 path {fill:#ccc;}
]]>
</style>
<g transform="scale(1,-1) translate(0,-900)">
	<path id="z22915d1" d="M300 473Q322 557 340 642Q349 691 368 718Q380 742 372 755Q357 773 308 801Q286 813 269 803Q256 796 267 779Q300 733 253 464L243 418Q225 351 210 319Q200 297 221 279Q266 252 304 219L338 189Q371 161 413 114Q429 98 439 96Q448 96 455 108Q462 118 458 151Q452 188 370 234L330 256Q305 271 275 287Q253 299 256 321Q272 376 289 432L300 473Z"/>
	<path id="z22915d2" d="M304 219Q259 164 153 99Q140 92 151 88Q220 82 330 180Q333 184 338 189L370 234Q415 313 426 359Q456 461 466 475Q476 491 461 502Q416 538 393 533Q380 530 384 515Q388 505 391 491L391 462Q382 354 330 256L304 219Z"/>
	<path id="z22915d3" d="M391 491Q346 484 300 473L253 464Q189 454 120 441Q98 437 64 441Q51 441 48 432Q44 419 52 410Q73 391 103 369Q113 365 126 372Q195 411 243 418L289 432Q334 445 380 459Q384 460 391 462L391 491Z"/>
	<path id="z22915d4" d="M776 482Q809 566 844 594Q862 613 846 632Q828 647 772 672Q751 681 685 650Q568 616 534 608Q518 605 520 596Q523 589 542 583Q558 577 634 597Q736 624 746 618Q755 608 751 589Q738 537 722 493L776 482Z"/>
	<path id="z22915d5" d="M561 415Q609 431 784 451Q796 452 796 462Q796 469 776 482L722 493Q718 493 713 491Q623 466 550 451L561 415Z"/>
	<path id="z22915d6" d="M970 169Q958 202 947 300Q948 316 941 322Q935 326 929 308Q895 205 873 174Q857 155 807 142Q695 114 602 150Q566 166 557 189Q529 246 561 415L550 451Q540 460 523 466Q513 470 504 466Q498 462 503 446Q513 412 511 377Q501 217 514 172Q518 144 545 119Q635 46 828 74Q846 77 866 82Q915 95 962 128Q981 143 970 169Z"/>
	<defs>
		<clipPath id="z22915c1"><use xlink:href="#z22915d1"/></clipPath>
		<clipPath id="z22915c2"><use xlink:href="#z22915d2"/></clipPath>
		<clipPath id="z22915c3"><use xlink:href="#z22915d3"/></clipPath>
		<clipPath id="z22915c4"><use xlink:href="#z22915d4"/></clipPath>
		<clipPath id="z22915c5"><use xlink:href="#z22915d5"/></clipPath>
		<clipPath id="z22915c6"><use xlink:href="#z22915d6"/></clipPath>
	</defs>
	<path pathLength="2999" clip-path="url(#z22915c1)" d="M270 795L327 729L232 304L411 166L447 104"/>
	<path pathLength="2999" clip-path="url(#z22915c2)" d="M391 530L430 485L352 248L264 152L155 94"/>
	<path pathLength="2999" clip-path="url(#z22915c3)" d="M50 432L110 404L390 477"/>
	<path pathLength="2999" clip-path="url(#z22915c4)" d="M525 598L762 644L802 603L739 490"/>
	<path pathLength="2999" clip-path="url(#z22915c5)" d="M567 425L722 469L789 461"/>
	<path pathLength="2999" clip-path="url(#z22915c6)" d="M508 462L535 410L532 188L553 149L614 114L729 98L886 131L929 170L941 316"/>
</g>
</svg>