<!--
AnimCJK 2016-2018 Copyright Francois Mizessyn - https://github.com/parsimonhi/animCJK
Derived from:
    MakeMeAHanzi project - https://github.com/skishore/makemeahanzi
    Arphic PL KaitiM GB font
    Arphic PL UKai font
You can redistribute and/or modify this file under the terms of the Arphic Public License
as published by Arphic Technology Co., Ltd.
You should have received a copy of this license along with this file.
If not, see http://ftp.gnu.org/non-gnu/chinese-fonts-truetype/LICENSE.
-->
<svg id="z22937" class="acjk" version="1.1" viewBox="0 0 1024 1024" xmlns="http://www.w3.org/2000/svg" xmlns:xlink="http://www.w3.org/1999/xlink">
<style>
<![CDATA[
@keyframes zk {
	to {
		stroke-dashoffset:0;
	}
}
svg.acjk path[clip-path] {
	--t:0.8s;
	animation:zk var(--t) linear forwards calc(var(--d) * 1.25 * var(--t));
	stroke-dasharray:3337;
	stroke-dashoffset:3339;
	stroke-width:128;
	stroke-linecap:round;
	fill:none;
	stroke:#000;
}
svg.acjk path[id] {fill:#ccc;}
]]>
</style>
<path id="z22937d1" d="M354 686Q421 749 424 750Q433 750 439 739Q446 729 442 698Q436 662 386 635C358 618 358 618 344 610Q316 592 277 572Q256 562 259 540Q272 500 286 458C294 431 294 431 298 418Q323 328 345 236Q354 188 373 163Q385 141 378 129Q363 110 317 84Q296 71 280 80Q267 87 277 104Q313 158 253 427C246 455 246 455 243 469Q233 509 215 541Q205 563 225 580Q277 611 317 651Q318 651 319 653C342 675 342 675 354 686Z"/>
<path id="z22937d2" d="M319 653Q253 746 133 812Q120 821 131 824Q191 830 280 761Q328 727 354 686C375 652 375 652 386 635Q413 589 427 532Q451 439 471 407Q481 389 466 379Q423 340 395 346Q382 350 386 365Q393 380 394 397C393 417 393 417 393 427Q392 443 388 461Q382 516 344 610C327 639 327 639 319 653Z"/>
<path id="z22937d3" d="M394 397Q346 407 298 418C268 424 268 424 253 427Q183 439 110 453Q88 457 51 453Q38 453 36 462Q32 475 40 483Q59 501 89 522Q99 526 111 519Q171 485 243 469C272 462 272 462 286 458Q364 433 393 427C403 425 404 395 394 397Z"/>
<path id="z22937d4" d="M612 104Q657 173 641 438Q635 498 649 527Q650 530 652 533Q662 549 678 540Q693 527 685 431Q685 188 710 139Q716 129 704 116Q680 97 651 87Q635 78 619 84Q606 90 612 104Z"/>
<path id="z22937d5" d="M533 318Q517 372 490 420Q472 450 493 481Q500 497 519 484Q564 445 561 369Q564 338 555 317Q551 310 544 309Q537 310 533 318Z"/>
<path id="z22937d6" d="M795 312Q853 346 926 399Q945 415 962 417Q971 417 977 405Q986 389 964 348Q940 297 789 281Q779 277 780 290Q781 303 795 312Z"/>
<path id="z22937d7" d="M754 437Q755 611 568 788Q564 791 561 794Q509 846 381 932Q372 939 379 944Q388 948 400 943Q587 880 688 740Q743 673 798 555Q817 521 839 487Q849 477 843 465Q837 452 804 430Q780 414 769 416Q754 419 754 437Z"/>
<defs>
	<clipPath id="z22937c1"><use xlink:href="#z22937d1"></use></clipPath>
	<clipPath id="z22937c2"><use xlink:href="#z22937d2"></use></clipPath>
	<clipPath id="z22937c3"><use xlink:href="#z22937d3"></use></clipPath>
	<clipPath id="z22937c4"><use xlink:href="#z22937d4"></use></clipPath>
	<clipPath id="z22937c5"><use xlink:href="#z22937d5"></use></clipPath>
	<clipPath id="z22937c6"><use xlink:href="#z22937d6"></use></clipPath>
	<clipPath id="z22937c7"><use xlink:href="#z22937d7"></use></clipPath>
</defs>
<path style="--d:1;" pathLength="3333" clip-path="url(#z22937c1)" d="M280 90L335 151L235 551L406 690L427 744"/>
<path style="--d:2;" pathLength="3333" clip-path="url(#z22937c2)" d="M393 354L434 393L364 624L275 737L135 817"/>
<path style="--d:3;" pathLength="3333" clip-path="url(#z22937c3)" d="M43 463L102 488L388 406"/>
<path style="--d:4;" pathLength="3333" clip-path="url(#z22937c4)" d="M617 93L671 140L665 539"/>
<path style="--d:5;" pathLength="3333" clip-path="url(#z22937c5)" d="M546 316L501 485"/>
<path style="--d:6;" pathLength="3333" clip-path="url(#z22937c6)" d="M785 291L908 343L971 408"/>
<path style="--d:7;" pathLength="3333" clip-path="url(#z22937c7)" d="M766 423L797 482L679 707L526 858L384 938"/>
</svg>