<!--
AnimCJK 2016-2018 Copyright Francois Mizessyn - https://github.com/parsimonhi/animCJK
Derived from:
    MakeMeAHanzi project - https://github.com/skishore/makemeahanzi
    Arphic PL KaitiM GB - https://apps.ubuntu.com/cat/applications/precise/fonts-arphic-gkai00mp/
    Arphic PL UKai - https://apps.ubuntu.com/cat/applications/fonts-arphic-ukai/
You can redistribute and/or modify this file under the terms of the Arphic Public License
as published by Arphic Technology Co., Ltd.
You should have received a copy of this license (the directory "APL") along with this file;
if not, see http://ftp.gnu.org/non-gnu/chinese-fonts-truetype/LICENSE.
-->
<svg id="z22985" class="acjk" version="1.1" viewBox="0 0 1024 1024" xmlns="http://www.w3.org/2000/svg" xmlns:xlink="http://www.w3.org/1999/xlink">
<style>
<![CDATA[
@keyframes z22985k {
	from {
		stroke:#c00;
		stroke-dashoffset:3334;
	}
	75% {
		stroke:#c00;
		stroke-dashoffset:0;
	}
	to {
		stroke:#000;
	}
}
#z22985 path[clip-path] {
	animation:z22985k 1s linear both;
	stroke-dasharray:3334;
	stroke-width:128;
	stroke-linecap:round;
	fill:none;
}
#z22985 path[clip-path="url(#z22985c1)"] {animation-delay:1s;}
#z22985 path[clip-path="url(#z22985c2)"] {animation-delay:2s;}
#z22985 path[clip-path="url(#z22985c3)"] {animation-delay:3s;}
#z22985 path[clip-path="url(#z22985c4)"] {animation-delay:4s;}
#z22985 path[clip-path="url(#z22985c5)"] {animation-delay:5s;}
#z22985 path[clip-path="url(#z22985c6)"] {animation-delay:6s;}
#z22985 path[clip-path="url(#z22985c7)"] {animation-delay:7s;}
#z22985 path[clip-path="url(#z22985c8)"] {animation-delay:8s;}
#z22985 path {fill:#ccc;}
]]>
</style>
<path id="z22985d1" d="M301 407C316 361 331 314 345 268C353 237 364 214 377 197C386 183 388 171 384 163C376 149 355 134 325 115C312 106 300 103 289 109C280 113 278 121 285 132C302 160 298 256 253 416L240 462C223 519 205 554 196 572C188 586 191 602 207 612C239 632 272 651 301 674L338 703C360 720 386 743 416 771C426 781 435 786 442 787C448 787 452 783 456 776C460 767 460 754 457 734C452 710 422 685 369 658L326 636C305 625 283 614 258 602C245 595 236 585 240 574C253 532 272 492 287 449 Z"/>
<path id="z22985d2" d="M301 674C275 713 217 753 213 757C208 760 188 772 153 796C144 801 143 807 151 808C205 813 294 765 338 703L369 658C392 623 415 568 426 525C439 466 452 426 464 406C470 394 468 386 459 379C426 354 403 343 387 348C377 351 373 357 378 367C381 375 386 383 386 392C386 392 386 411 386 421C386 487 373 563 326 636 Z"/>
<path id="z22985d3" d="M386 392C359 396 330 401 301 407L253 416C211 423 167 428 123 436C108 438 90 437 68 435C59 434 53 438 52 444C49 452 51 460 57 466C69 478 85 493 107 508C113 511 121 509 130 505C172 481 209 470 240 462L287 449C318 440 352 430 386 421 Z"/>
<path id="z22985d4" d="M611 114C630 130 649 148 671 169C679 177 689 181 701 181C707 180 713 176 717 167C720 157 719 142 713 123C705 100 669 81 606 66C595 63 587 62 584 65C580 67 578 73 580 82C581 89 593 98 611 114 Z"/>
<path id="z22985d5" d="M665 305C721 294 781 289 863 284C895 281 914 278 917 273C920 265 915 257 905 250C868 225 833 224 796 234C672 265 566 285 478 303C465 305 463 311 474 321C483 329 494 334 505 337C517 339 529 338 540 335C562 326 587 320 614 315 Z"/>
<path id="z22985d6" d="M516 466C501 459 488 455 478 457C469 458 469 463 472 471C487 509 491 558 480 624C474 654 463 672 489 705C493 710 501 717 508 715C527 707 533 673 534 626C534 556 536 513 538 499 Z"/>
<path id="z22985d7" d="M693 471C721 466 751 461 781 459C801 457 813 461 815 475C823 570 822 627 809 640C803 645 779 643 739 637C728 635 722 635 721 639C719 643 721 648 729 653C767 678 798 699 822 719C831 727 841 727 849 717C864 695 874 660 873 615C871 546 869 497 875 467C877 454 875 444 868 438C850 422 834 412 822 405C814 400 806 402 801 409C796 414 726 434 693 440L641 449C609 454 567 458 516 466L538 499C542 499 546 499 551 498C581 491 611 485 641 480 Z"/>
<path id="z22985d8" d="M642 923C644 939 648 951 654 957C658 961 662 964 667 962C679 955 685 931 688 895C691 844 694 793 693 743C691 704 693 613 693 471L693 440C693 422 696 391 704 348C705 337 702 328 693 322C682 315 673 309 665 305L614 315C630 340 641 385 641 449L641 480C641 768 641 915 642 923 Z"/>
<defs>
	<clipPath id="z22985c1"><use xlink:href="#z22985d1"/></clipPath>
	<clipPath id="z22985c2"><use xlink:href="#z22985d2"/></clipPath>
	<clipPath id="z22985c3"><use xlink:href="#z22985d3"/></clipPath>
	<clipPath id="z22985c4"><use xlink:href="#z22985d4"/></clipPath>
	<clipPath id="z22985c5"><use xlink:href="#z22985d5"/></clipPath>
	<clipPath id="z22985c6"><use xlink:href="#z22985d6"/></clipPath>
	<clipPath id="z22985c7"><use xlink:href="#z22985d7"/></clipPath>
	<clipPath id="z22985c8"><use xlink:href="#z22985d8"/></clipPath>
</defs>
<path pathLength="3333" clip-path="url(#z22985c1)" d="M287 114L339 175L218 590L400 713L449 780"/>
<path pathLength="3333" clip-path="url(#z22985c2)" d="M383 355L426 410L356 632L257 747L155 803"/>
<path pathLength="3333" clip-path="url(#z22985c3)" d="M54 443L114 473L381 401"/>
<path pathLength="3333" clip-path="url(#z22985c4)" d="M587 73L713 169"/>
<path pathLength="3333" clip-path="url(#z22985c5)" d="M478 313L824 256L913 261"/>
<path pathLength="3333" clip-path="url(#z22985c6)" d="M478 464L512 508L499 711"/>
<path pathLength="3333" clip-path="url(#z22985c7)" d="M525 469L831 445L845 619L829 677L724 644"/>
<path pathLength="3333" clip-path="url(#z22985c8)" d="M624 319L667 353L667 957"/>
</svg>