<!--
AnimCJK 2016-2019 Copyright Francois Mizessyn - https://github.com/parsimonhi/animCJK
Derived from:
    MakeMeAHanzi project - https://github.com/skishore/makemeahanzi
    Arphic PL KaitiM GB font
    Arphic PL UKai font
You can redistribute and/or modify this file under the terms of the Arphic Public License
as published by Arphic Technology Co., Ltd.
You should have received a copy of this license along with this file.
If not, see http://ftp.gnu.org/non-gnu/chinese-fonts-truetype/LICENSE.
-->
<svg id="z23241" class="acjk" version="1.1" viewBox="0 0 1024 1024" xmlns="http://www.w3.org/2000/svg" xmlns:xlink="http://www.w3.org/1999/xlink">
<style>
<![CDATA[
@keyframes zk {
	to {
		stroke-dashoffset:0;
	}
}
svg.acjk path[clip-path] {
	--t:0.8s;
	animation:zk var(--t) linear forwards var(--d);
	stroke-dasharray:3337;
	stroke-dashoffset:3339;
	stroke-width:128;
	stroke-linecap:round;
	fill:none;
	stroke:#000;
}
svg.acjk path[id] {fill:#ccc;}
]]>
</style>
<path id="z23241d1" d="M265 723Q287 742 314 770Q329 783 338 785Q347 785 352 774Q359 764 353 734Q347 701 293 676C268 663 268 663 255 657Q236 647 208 634Q189 624 190 604Q206 547 221 490C228 463 228 463 232 450Q256 350 276 245Q283 200 301 176Q311 154 305 142Q292 126 245 101Q226 89 210 98Q198 105 208 121Q244 167 191 458C186 488 186 488 183 503Q182 507 181 513Q171 565 147 606Q138 628 159 643Q199 665 233 696C254 714 254 714 265 723Z"/>
<path id="z23241d2" d="M233 696Q185 759 104 814Q92 823 103 825Q116 825 146 813Q192 794 226 762Q248 743 265 723C284 692 284 692 293 676Q323 610 341 530Q353 469 364 451Q371 435 357 427Q317 394 292 403Q280 407 286 420Q290 427 292 437C295 456 295 456 296 465Q296 481 295 501Q292 573 255 657C240 683 240 683 233 696Z"/>
<path id="z23241d3" d="M292 437Q261 443 232 450C205 455 205 455 191 458Q142 467 88 478Q70 482 42 478Q29 479 27 488Q24 500 32 508Q51 524 79 544Q89 548 100 541Q137 517 179 504Q180 503 183 503C208 494 208 494 221 490Q255 477 296 465C305 462 301 435 292 437Z"/>
<path id="z23241d4" d="M612 150Q640 171 669 197Q685 209 701 207Q713 206 717 192Q721 176 709 145Q702 126 669 114Q593 93 580 101Q574 105 577 119Q581 129 612 150Z"/>
<path id="z23241d5" d="M534 327Q570 339 608 330Q843 282 858 275Q858 274 859 274Q866 267 863 259Q856 249 830 241Q806 235 710 266Q617 290 529 298Q523 298 523 300C514 304 524 325 534 327Z"/>
<path id="z23241d6" d="M472 578Q445 747 328 865Q297 895 295 901Q294 908 304 907Q347 903 415 826Q496 733 516 584Q529 493 531 355Q532 337 534 327C536 317 532 304 523 300Q522 299 521 299Q476 277 463 280Q444 284 459 303Q490 354 476 549Q475 549 475 551C473 569 473 569 472 578Z"/>
<path id="z23241d7" d="M376 406Q409 469 434 476Q446 479 455 463Q458 451 452 432Q437 399 384 382Q375 379 373 390Q370 397 376 406Z"/>
<path id="z23241d8" d="M475 551Q367 614 346 620Q337 624 338 631Q339 641 347 644Q366 651 392 657Q399 657 406 649Q418 628 472 578C478 572 482 546 475 551Z"/>
<path id="z23241d9" d="M626 500Q642 478 655 455Q670 427 685 403Q692 393 680 382Q644 358 625 363Q616 366 619 377Q632 438 574 520Q559 539 552 550Q546 563 558 558Q570 557 613 515C622 505 622 505 626 500Z"/>
<path id="z23241d10" d="M686 525Q693 522 705 518Q822 479 826 476Q833 469 828 462Q821 452 795 449Q780 449 693 482Q663 492 628 499Q627 499 626 500C620 502 607 512 613 515Q631 524 644 526C658 529 673 530 686 525Z"/>
<path id="z23241d11" d="M700 659Q748 647 894 631Q910 630 914 621Q918 611 903 601Q846 571 798 592Q761 602 708 619C672 629 672 629 654 634Q590 649 516 668Q500 672 514 685Q527 695 543 698Q562 701 575 695Q609 682 648 671C683 663 683 663 700 659Z"/>
<path id="z23241d12" d="M697 671Q698 665 700 659C705 632 705 632 708 619Q711 573 720 558Q726 552 721 543Q717 537 692 527Q689 526 686 525C673 521 641 512 644 526Q644 530 649 537Q658 589 654 634C650 659 650 659 648 671Q620 779 539 839Q512 855 475 877Q454 889 480 887Q520 890 590 849Q656 810 690 697C695 680 695 680 697 671Z"/>
<path id="z23241d13" d="M690 697Q747 785 822 879Q846 906 975 885Q982 884 984 879Q985 875 974 868Q848 814 786 756Q743 719 697 671C691 665 685 690 690 697Z"/>
<defs>
	<clipPath id="z23241c1"><use xlink:href="#z23241d1"/></clipPath>
	<clipPath id="z23241c2"><use xlink:href="#z23241d2"/></clipPath>
	<clipPath id="z23241c3"><use xlink:href="#z23241d3"/></clipPath>
	<clipPath id="z23241c4"><use xlink:href="#z23241d4"/></clipPath>
	<clipPath id="z23241c5"><use xlink:href="#z23241d5"/></clipPath>
	<clipPath id="z23241c6"><use xlink:href="#z23241d6"/></clipPath>
	<clipPath id="z23241c7"><use xlink:href="#z23241d7"/></clipPath>
	<clipPath id="z23241c8"><use xlink:href="#z23241d8"/></clipPath>
	<clipPath id="z23241c9"><use xlink:href="#z23241d9"/></clipPath>
	<clipPath id="z23241c10"><use xlink:href="#z23241d10"/></clipPath>
	<clipPath id="z23241c11"><use xlink:href="#z23241d11"/></clipPath>
	<clipPath id="z23241c12"><use xlink:href="#z23241d12"/></clipPath>
	<clipPath id="z23241c13"><use xlink:href="#z23241d13"/></clipPath>
</defs>
<path style="--d:1s;" pathLength="3333" clip-path="url(#z23241c1)" d="M210 105L264 158L167 614L313 725L341 780"/>
<path style="--d:2s;" pathLength="3333" clip-path="url(#z23241c2)" d="M292 408L330 450L277 659L201 759L104 819"/>
<path style="--d:3s;" pathLength="3333" clip-path="url(#z23241c3)" d="M33 487L86 511L293 451"/>
<path style="--d:4s;" pathLength="3333" clip-path="url(#z23241c4)" d="M584 109L714 193"/>
<path style="--d:5s;" pathLength="3333" clip-path="url(#z23241c5)" d="M532 304L590 312L860 263"/>
<path style="--d:6s;" pathLength="3333" clip-path="url(#z23241c6)" d="M460 289L497 316L504 364L483 636L417 788L302 900"/>
<path style="--d:7s;" pathLength="3333" clip-path="url(#z23241c7)" d="M380 389L447 470"/>
<path style="--d:8s;" pathLength="3333" clip-path="url(#z23241c8)" d="M344 631L393 627L469 560"/>
<path style="--d:9s;" pathLength="3333" clip-path="url(#z23241c9)" d="M626 367L654 405L559 550"/>
<path style="--d:10s;" pathLength="3333" clip-path="url(#z23241c10)" d="M621 512L826 465"/>
<path style="--d:11s;" pathLength="3333" clip-path="url(#z23241c11)" d="M516 675L827 611L910 617"/>
<path style="--d:12s;" pathLength="3333" clip-path="url(#z23241c12)" d="M654 531L688 561L641 756L571 838L475 881"/>
<path style="--d:13s;" pathLength="3333" clip-path="url(#z23241c13)" d="M698 679L848 849L979 878"/>
</svg>