<!--
AnimCJK 2016-2026 Copyright FM-SH - https://github.com/parsimonhi/animCJK
Derived from:
    MakeMeAHanzi project - https://github.com/skishore/makemeahanzi
    Arphic PL KaitiM GB font
    Arphic PL KaitiM Big5 font
You can redistribute and/or modify this file under the terms of the Arphic Public License
as published by Arphic Technology Co., Ltd.
You should have received a copy of this license along with this file.
If not, see https://ftp.gnu.org/non-gnu/chinese-fonts-truetype/LICENSE.
-->
<svg id="z23308" class="acjk" viewBox="0 0 1024 1024" xmlns="http://www.w3.org/2000/svg">
<style>
<![CDATA[
@keyframes zk {
	to {
		stroke-dashoffset:0;
	}
}
svg.acjk path[clip-path] {
	--t:0.8s;
	animation:zk var(--t) linear forwards var(--d);
	stroke-dasharray:3337;
	stroke-dashoffset:3339;
	stroke-width:128;
	stroke-linecap:round;
	fill:none;
	stroke:#000;
}
svg.acjk path[id] {fill:#ccc;}
]]>
</style>
<path id="z23308d1" d="M231 426C248 355 263 283 276 211C281 182 289 160 299 144C306 131 308 120 303 113C295 101 275 88 246 73C223 60 195 69 211 93C232 126 232 240 194 434C188 464 188 464 185 479C177 514 166 546 152 575C144 588 154 604 178 620C197 633 217 647 236 664C258 684 258 684 269 694C284 707 300 724 319 744C342 768 350 756 355 749C359 742 361 729 358 711C354 690 333 669 296 649C270 635 270 635 257 628C242 620 227 611 210 602C197 595 190 585 193 573C201 537 212 502 221 467C228 440 228 440 231 426Z"/>
<path id="z23308d2" d="M236 664C199 714 164 747 121 773C86 793 76 818 123 800C182 777 229 747 269 694C279 679 288 664 296 649C319 601 335 561 351 493C357 465 362 438 376 414C382 403 379 395 370 388C341 365 319 356 302 362C283 368 298 387 304 409C306 418 304 428 304 438C301 497 287 562 257 628C251 640 244 652 236 664Z"/>
<path id="z23308d3" d="M304 409C280 413 255 420 231 426C206 431 206 431 194 434C161 441 128 446 96 453C83 455 68 454 49 454C29 453 31 476 40 484C52 495 68 507 88 519C93 522 100 520 108 516C132 500 157 488 185 479C209 471 209 471 221 467C247 458 274 447 304 438C308 436 308 408 304 409Z"/>
<path id="z23308d4" d="M586 159C643 145 691 126 750 113C778 106 775 94 764 84C741 63 720 50 703 43C687 38 668 31 665 53C659 80 590 116 458 172C451 174 453 182 458 184C462 185 493 180 551 167C574 162 574 162 586 159Z"/>
<path id="z23308d5" d="M584 290C596 286 616 281 644 278C661 276 661 276 669 275C691 272 734 266 837 257C860 254 865 240 846 228C814 207 777 204 737 219C693 234 642 245 598 255C562 262 562 262 544 266C503 274 461 283 417 293C405 295 403 300 413 309C428 321 452 325 482 317C496 312 511 307 529 303C566 294 566 294 584 290Z"/>
<path id="z23308d6" d="M508 416C536 388 567 331 584 290C593 267 593 267 598 255C602 243 612 219 622 200C629 184 625 176 586 159C575 155 547 156 551 167C562 200 556 235 544 266C534 291 534 291 529 303C506 359 463 414 391 480C369 500 378 508 404 496C424 487 452 469 485 438C500 423 500 423 508 416Z"/>
<path id="z23308d7" d="M644 278C690 334 738 388 789 439C811 461 868 463 959 451C985 447 976 437 966 434C886 405 819 380 770 348C739 329 689 290 669 275C662 270 639 271 644 278Z"/>
<path id="z23308d8" d="M523 419C518 417 513 416 508 416C497 416 480 429 485 438C497 460 510 490 520 527C523 538 527 548 535 556C557 578 556 553 555 539C554 533 552 524 550 512C544 487 539 454 537 442C535 433 531 422 523 419Z"/>
<path id="z23308d9" d="M681 498C693 467 706 448 716 440C729 428 729 415 717 407C701 396 691 392 673 383C646 368 656 384 523 419C514 421 528 444 537 442C543 440 572 434 624 422C651 415 658 425 651 450C647 461 644 475 639 489C634 502 676 511 681 498Z"/>
<path id="z23308d10" d="M555 539C569 537 591 531 686 523C698 521 707 511 681 498C668 493 653 487 639 489C623 491 595 500 550 512C541 514 546 541 555 539Z"/>
<path id="z23308d11" d="M442 610C413 590 374 590 386 612C414 664 420 732 395 816C388 837 389 857 398 876C422 924 436 902 445 877C451 859 455 832 455 799C454 716 454 665 454 645C454 633 452 617 442 610Z"/>
<path id="z23308d12" d="M454 645C491 631 563 618 618 609C661 602 711 594 768 589C783 587 813 587 817 627C820 665 818 721 813 794C812 807 807 816 794 816C775 814 758 810 743 808C726 804 720 814 760 846C784 865 799 890 817 910C837 933 853 892 861 877C872 850 880 813 879 765C875 664 875 607 884 595C890 585 891 577 885 571C877 563 858 556 830 544C806 533 797 545 768 551C738 558 465 605 442 610C430 612 443 650 454 645Z"/>
<path id="z23308d13" d="M527 680C507 671 490 667 501 694C511 716 521 742 528 779C529 789 532 799 539 810C554 834 559 821 560 795C560 785 558 775 558 766C555 732 555 710 555 701C555 689 538 684 527 680Z"/>
<path id="z23308d14" d="M705 744C713 721 723 706 732 699C745 686 745 674 733 666C722 658 710 650 696 641C674 627 677 651 527 680C515 682 544 705 555 701C573 696 612 687 639 681C684 669 668 705 659 743C656 758 699 758 705 744Z"/>
<path id="z23308d15" d="M560 795C572 792 601 787 718 774C731 773 738 763 705 744C692 736 674 740 659 743C620 753 586 760 558 766C548 768 550 797 560 795Z"/>
<defs>
	<clipPath id="z23308c1"><use href="#z23308d1"/></clipPath>
	<clipPath id="z23308c2"><use href="#z23308d2"/></clipPath>
	<clipPath id="z23308c3"><use href="#z23308d3"/></clipPath>
	<clipPath id="z23308c4"><use href="#z23308d4"/></clipPath>
	<clipPath id="z23308c5"><use href="#z23308d5"/></clipPath>
	<clipPath id="z23308c6"><use href="#z23308d6"/></clipPath>
	<clipPath id="z23308c7"><use href="#z23308d7"/></clipPath>
	<clipPath id="z23308c8"><use href="#z23308d8"/></clipPath>
	<clipPath id="z23308c9"><use href="#z23308d9"/></clipPath>
	<clipPath id="z23308c10"><use href="#z23308d10"/></clipPath>
	<clipPath id="z23308c11"><use href="#z23308d11"/></clipPath>
	<clipPath id="z23308c12"><use href="#z23308d12"/></clipPath>
	<clipPath id="z23308c13"><use href="#z23308d13"/></clipPath>
	<clipPath id="z23308c14"><use href="#z23308d14"/></clipPath>
	<clipPath id="z23308c15"><use href="#z23308d15"/></clipPath>
</defs>
<path style="--d:1s;" pathLength="3333" clip-path="url(#z23308c1)" d="M212 77L264 130L171 587L327 709L344 754"/>
<path style="--d:2s;" pathLength="3333" clip-path="url(#z23308c2)" d="M299 371L341 407L285 620L209 728L97 798"/>
<path style="--d:3s;" pathLength="3333" clip-path="url(#z23308c3)" d="M38 463L94 487L305 421"/>
<path style="--d:4s;" pathLength="3333" clip-path="url(#z23308c4)" d="M678 42L712 96L461 177"/>
<path style="--d:5s;" pathLength="3333" clip-path="url(#z23308c5)" d="M414 298L758 238L850 240"/>
<path style="--d:6s;" pathLength="3333" clip-path="url(#z23308c6)" d="M560 163L590 201L543 326L492 404L384 493"/>
<path style="--d:7s;" pathLength="3333" clip-path="url(#z23308c7)" d="M651 277L811 411L968 441"/>
<path style="--d:8s;" pathLength="3333" clip-path="url(#z23308c8)" d="M490 432L518 453L548 559"/>
<path style="--d:9s;" pathLength="3333" clip-path="url(#z23308c9)" d="M526 427L672 409L689 431L655 501"/>
<path style="--d:10s;" pathLength="3333" clip-path="url(#z23308c10)" d="M551 527L692 515"/>
<path style="--d:11s;" pathLength="3333" clip-path="url(#z23308c11)" d="M392 603L430 665L421 901"/>
<path style="--d:12s;" pathLength="3333" clip-path="url(#z23308c12)" d="M441 617L784 567L831 578L851 596L833 844L809 866L738 814"/>
<path style="--d:13s;" pathLength="3333" clip-path="url(#z23308c13)" d="M504 679L533 710L549 815"/>
<path style="--d:14s;" pathLength="3333" clip-path="url(#z23308c14)" d="M534 684L677 660L705 685L674 751"/>
<path style="--d:15s;" pathLength="3333" clip-path="url(#z23308c15)" d="M555 783L721 765"/>
</svg>