<!--
AnimCJK 2016-2026 Copyright FM-SH - https://github.com/parsimonhi/animCJK
Derived from:
    MakeMeAHanzi project - https://github.com/skishore/makemeahanzi
    Arphic PL KaitiM GB font
    Arphic PL KaitiM Big5 font
You can redistribute and/or modify this file under the terms of the Arphic Public License
as published by Arphic Technology Co., Ltd.
You should have received a copy of this license along with this file.
If not, see https://ftp.gnu.org/non-gnu/chinese-fonts-truetype/LICENSE.
-->
<svg id="z23358" class="acjk" viewBox="0 0 1024 1024" xmlns="http://www.w3.org/2000/svg">
<style>
<![CDATA[
@keyframes zk {
	to {
		stroke-dashoffset:0;
	}
}
svg.acjk path[clip-path] {
	--t:0.8s;
	animation:zk var(--t) linear forwards var(--d);
	stroke-dasharray:3337;
	stroke-dashoffset:3339;
	stroke-width:128;
	stroke-linecap:round;
	fill:none;
	stroke:#000;
}
svg.acjk path[id] {fill:#ccc;}
]]>
</style>
<path id="z23358d1" d="M239 449C254 394 267 339 278 285C283 255 292 233 304 216C312 202 312 190 308 183C300 170 279 156 249 140C225 127 195 136 212 160C231 188 232 288 196 458C189 491 189 491 186 507C174 561 158 616 148 638C141 652 144 667 160 676C184 690 210 704 233 723C256 742 256 742 268 751C315 789 340 810 343 810C361 809 363 785 357 759C351 738 331 719 298 704C270 691 270 691 256 685C242 679 227 671 209 664C196 658 187 648 190 637C199 595 215 536 227 494C235 464 235 464 239 449Z"/>
<path id="z23358d2" d="M233 723C210 760 167 801 115 838C67 870 88 881 134 859C205 823 244 781 268 751C279 736 289 720 298 704C324 653 337 601 346 563C361 498 369 460 376 448C382 435 378 429 366 417C339 388 316 377 300 383C281 389 295 405 305 435C307 442 306 456 306 467C304 548 278 638 256 685C249 698 240 710 233 723Z"/>
<path id="z23358d3" d="M305 435C283 439 261 444 239 449C210 455 210 455 196 458C162 465 130 471 93 476C80 477 65 476 46 476C23 475 28 499 36 507C48 519 64 532 86 545C91 548 99 546 107 542C131 526 158 515 186 507C213 498 213 498 227 494C251 486 278 476 306 467C316 464 315 433 305 435Z"/>
<path id="z23358d4" d="M536 291C593 275 604 274 616 265C622 259 627 244 589 238C565 234 560 243 539 250C512 259 512 259 498 263C470 271 449 274 425 279C406 282 402 290 418 298C436 308 458 311 498 301C523 294 523 294 536 291Z"/>
<path id="z23358d5" d="M414 384C392 373 362 364 376 394C390 424 403 455 412 507C414 522 419 535 428 546C436 556 442 558 445 550C447 543 448 534 447 524C445 515 444 507 443 499C434 455 427 424 426 408C425 399 422 387 414 384Z"/>
<path id="z23358d6" d="M615 472C625 426 637 407 650 389C657 378 657 368 650 361C640 353 631 343 614 335C598 326 576 345 532 357C509 363 509 363 498 366C467 374 446 377 414 384C405 385 417 410 426 408C453 402 473 396 498 391C521 386 521 386 532 383C552 378 558 377 569 376C591 374 591 387 591 403C590 418 587 440 579 465C574 476 613 484 615 472Z"/>
<path id="z23358d7" d="M529 509C555 502 579 501 619 495C638 491 630 481 615 472C605 466 591 463 579 465C565 469 553 472 530 478C507 484 507 484 495 487C473 492 462 494 443 499C435 500 439 524 447 524C456 524 479 520 487 519C515 512 515 512 529 509Z"/>
<path id="z23358d8" d="M491 602C488 681 481 721 465 781C458 803 461 837 477 874C491 906 502 898 518 869C525 854 526 833 526 816C525 788 522 706 529 509C530 488 530 488 530 478C531 445 532 420 532 383C532 366 532 366 532 357C532 341 534 306 536 291C538 264 538 264 539 250C540 224 545 214 552 196C559 176 561 171 547 161C538 153 522 145 503 132C475 113 452 129 465 149C485 181 498 212 498 263C498 288 498 288 498 301C498 344 498 344 498 366C498 383 498 383 498 391C498 425 496 450 495 487C492 564 492 564 491 602Z"/>
<path id="z23358d9" d="M487 519C445 604 415 655 358 723C346 738 350 748 366 737C421 696 459 663 491 602C532 534 523 448 487 519Z"/>
<path id="z23358d10" d="M563 607C599 642 618 661 622 662C626 662 631 659 634 653C637 646 636 636 634 623C631 607 607 590 563 574C556 571 551 570 548 572C545 572 543 576 544 583C544 587 551 595 563 607Z"/>
<path id="z23358d11" d="M778 190C805 183 809 179 832 177C852 174 853 185 854 202C854 231 852 252 846 267C838 284 828 291 815 290C804 289 794 287 787 286C773 283 772 288 783 299C801 317 815 332 826 347C832 354 839 356 847 350C872 329 889 288 900 217C902 198 906 184 913 176C919 168 921 161 918 157C913 149 895 143 869 132C857 127 848 129 838 137C827 144 806 152 783 158C742 168 716 170 682 175C657 178 659 188 682 200C695 207 701 207 719 203C732 199 736 200 749 197C768 192 768 192 778 190Z"/>
<path id="z23358d12" d="M749 197C755 227 738 271 679 349C663 369 686 360 699 350C733 320 768 274 793 222C798 209 786 197 778 190C771 183 747 187 749 197Z"/>
<path id="z23358d13" d="M711 395C704 388 697 383 684 380C661 374 666 390 672 406C680 428 688 489 677 594C670 650 669 682 683 701C696 718 706 707 711 687C713 676 713 666 714 656C715 631 714 610 714 586C714 571 714 571 714 564C714 541 712 521 714 499C715 488 715 488 715 482C717 444 715 426 717 421C718 412 718 400 711 395Z"/>
<path id="z23358d14" d="M843 679C857 737 870 739 896 693C904 678 906 662 906 643C904 585 899 549 901 473C901 451 906 434 919 416C924 407 926 399 921 394C905 380 883 368 857 358C848 354 837 355 824 362C793 375 776 381 711 395C702 396 708 421 717 421C732 420 717 421 817 396C827 393 835 394 840 400C849 411 852 435 853 473C853 567 851 629 847 659C846 666 842 672 843 679Z"/>
<path id="z23358d15" d="M714 499C754 493 765 495 806 489C831 485 816 462 786 460C764 458 748 468 715 482C710 484 708 500 714 499Z"/>
<path id="z23358d16" d="M714 586C756 582 770 581 809 576C821 574 825 569 821 562C815 553 805 547 791 546C775 544 769 547 714 564C707 567 707 586 714 586Z"/>
<path id="z23358d17" d="M711 687C732 684 796 682 843 679C850 679 851 664 847 659C821 624 825 637 714 656C704 658 701 689 711 687Z"/>
<path id="z23358d18" d="M702 738C690 772 660 817 591 871C565 890 575 899 600 889C673 859 704 824 760 770C766 763 768 757 768 753C766 745 759 739 745 734C728 726 717 724 711 726C706 726 704 730 702 738Z"/>
<path id="z23358d19" d="M830 778C852 808 874 841 897 876C906 890 921 900 935 885C940 877 942 864 942 847C942 818 906 781 836 737C828 732 821 729 818 731C814 732 812 737 812 745C811 751 818 762 830 778Z"/>
<defs>
	<clipPath id="z23358c1"><use href="#z23358d1"/></clipPath>
	<clipPath id="z23358c2"><use href="#z23358d2"/></clipPath>
	<clipPath id="z23358c3"><use href="#z23358d3"/></clipPath>
	<clipPath id="z23358c4"><use href="#z23358d4"/></clipPath>
	<clipPath id="z23358c5"><use href="#z23358d5"/></clipPath>
	<clipPath id="z23358c6"><use href="#z23358d6"/></clipPath>
	<clipPath id="z23358c7"><use href="#z23358d7"/></clipPath>
	<clipPath id="z23358c8"><use href="#z23358d8"/></clipPath>
	<clipPath id="z23358c9"><use href="#z23358d9"/></clipPath>
	<clipPath id="z23358c10"><use href="#z23358d10"/></clipPath>
	<clipPath id="z23358c11"><use href="#z23358d11"/></clipPath>
	<clipPath id="z23358c12"><use href="#z23358d12"/></clipPath>
	<clipPath id="z23358c13"><use href="#z23358d13"/></clipPath>
	<clipPath id="z23358c14"><use href="#z23358d14"/></clipPath>
	<clipPath id="z23358c15"><use href="#z23358d15"/></clipPath>
	<clipPath id="z23358c16"><use href="#z23358d16"/></clipPath>
	<clipPath id="z23358c17"><use href="#z23358d17"/></clipPath>
	<clipPath id="z23358c18"><use href="#z23358d18"/></clipPath>
	<clipPath id="z23358c19"><use href="#z23358d19"/></clipPath>
</defs>
<path style="--d:1s;" pathLength="3333" clip-path="url(#z23358c1)" d="M215 145L267 206L168 653L319 753L350 804"/>
<path style="--d:2s;" pathLength="3333" clip-path="url(#z23358c2)" d="M297 392L342 444L280 689L210 784L92 861"/>
<path style="--d:3s;" pathLength="3333" clip-path="url(#z23358c3)" d="M34 489L90 511L308 446"/>
<path style="--d:4s;" pathLength="3333" clip-path="url(#z23358c4)" d="M415 287L615 253"/>
<path style="--d:5s;" pathLength="3333" clip-path="url(#z23358c5)" d="M379 381L406 409L441 545"/>
<path style="--d:6s;" pathLength="3333" clip-path="url(#z23358c6)" d="M416 390L602 358L623 381L591 474"/>
<path style="--d:7s;" pathLength="3333" clip-path="url(#z23358c7)" d="M440 508L624 482"/>
<path style="--d:8s;" pathLength="3333" clip-path="url(#z23358c8)" d="M468 131L523 188L498 889"/>
<path style="--d:9s;" pathLength="3333" clip-path="url(#z23358c9)" d="M508 498L460 615L359 734"/>
<path style="--d:10s;" pathLength="3333" clip-path="url(#z23358c10)" d="M551 579L626 656"/>
<path style="--d:11s;" pathLength="3333" clip-path="url(#z23358c11)" d="M673 183L852 154L886 173L842 315L783 293"/>
<path style="--d:12s;" pathLength="3333" clip-path="url(#z23358c12)" d="M762 189L769 229L681 354"/>
<path style="--d:13s;" pathLength="3333" clip-path="url(#z23358c13)" d="M675 383L697 415L697 702"/>
<path style="--d:14s;" pathLength="3333" clip-path="url(#z23358c14)" d="M711 406L839 375L886 411L862 719"/>
<path style="--d:15s;" pathLength="3333" clip-path="url(#z23358c15)" d="M715 492L811 476"/>
<path style="--d:16s;" pathLength="3333" clip-path="url(#z23358c16)" d="M716 578L816 567"/>
<path style="--d:17s;" pathLength="3333" clip-path="url(#z23358c17)" d="M713 677L844 668"/>
<path style="--d:18s;" pathLength="3333" clip-path="url(#z23358c18)" d="M712 729L726 765L582 887"/>
<path style="--d:19s;" pathLength="3333" clip-path="url(#z23358c19)" d="M820 740L904 831L927 887"/>
</svg>