<!--
AnimCJK 2016-2025 Copyright FM-SH - https://github.com/parsimonhi/animCJK
Derived from:
    MakeMeAHanzi project - https://github.com/skishore/makemeahanzi
    Arphic PL KaitiM GB font
    Arphic PL UKai font
You can redistribute and/or modify this file under the terms of the Arphic Public License
as published by Arphic Technology Co., Ltd.
You should have received a copy of this license along with this file.
If not, see https://ftp.gnu.org/non-gnu/chinese-fonts-truetype/LICENSE.
-->
<svg id="z23427" class="acjk" viewBox="0 0 1024 1024" xmlns="http://www.w3.org/2000/svg">
<style>
<![CDATA[
@keyframes zk {
	to {
		stroke-dashoffset:0;
	}
}
svg.acjk path[clip-path] {
	--t:0.8s;
	animation:zk var(--t) linear forwards var(--d);
	stroke-dasharray:3337;
	stroke-dashoffset:3339;
	stroke-width:128;
	stroke-linecap:round;
	fill:none;
	stroke:#000;
}
svg.acjk path[id] {fill:#ccc;}
]]>
</style>
<path id="z23427d1" d="M468 116C489 133 510 153 533 174C543 183 555 188 567 188C575 187 580 182 584 172C588 160 586 143 579 121C571 97 531 76 461 61C449 58 440 58 436 61C431 63 429 70 432 80C433 88 447 99 468 116Z"/>
<path id="z23427d2" d="M254 287C245 271 234 258 228 254C215 244 206 248 208 267C209 293 201 338 155 386C141 399 137 418 159 466C169 489 190 482 199 470C211 451 221 427 229 398C237 368 244 343 252 324C257 313 261 297 254 287Z"/>
<path id="z23427d3" d="M252 324C266 330 291 326 328 318C476 285 612 257 711 244C739 240 764 245 760 264C757 276 746 295 717 357C712 365 712 371 717 375C721 377 730 375 741 367C781 335 817 313 851 301C879 290 892 281 891 275C890 268 864 246 813 210C796 198 763 199 714 208C608 226 454 250 254 287C242 289 241 319 252 324Z"/>
<path id="z23427d4" d="M397 639C431 627 514 594 646 539C663 531 680 526 699 524C715 521 723 512 719 499C714 483 702 469 688 454C673 439 662 432 653 431C644 429 639 433 639 444C637 468 595 503 513 550C476 570 438 592 398 615C391 619 390 642 397 639Z"/>
<path id="z23427d5" d="M374 831C389 854 413 870 445 881C483 893 546 900 633 897C765 892 838 876 852 854C857 845 855 834 849 820C833 784 823 737 811 683C805 658 789 655 784 677C764 755 748 797 739 806C732 811 719 819 697 824C625 839 566 845 521 843C466 839 427 822 407 791C394 771 393 720 397 639C398 623 398 623 398 615C400 552 407 505 416 474C420 459 414 447 399 436C367 413 348 404 340 409C331 413 331 421 337 434C348 459 351 496 350 545C348 581 348 621 348 664C346 744 353 800 374 831Z"/>
<defs>
	<clipPath id="z23427c1"><use href="#z23427d1"/></clipPath>
	<clipPath id="z23427c2"><use href="#z23427d2"/></clipPath>
	<clipPath id="z23427c3"><use href="#z23427d3"/></clipPath>
	<clipPath id="z23427c4"><use href="#z23427d4"/></clipPath>
	<clipPath id="z23427c5"><use href="#z23427d5"/></clipPath>
</defs>
<path style="--d:1s;" pathLength="3333" clip-path="url(#z23427c1)" d="M435 69L525 117L574 181"/>
<path style="--d:2s;" pathLength="3333" clip-path="url(#z23427c2)" d="M216 258L230 306L173 477"/>
<path style="--d:3s;" pathLength="3333" clip-path="url(#z23427c3)" d="M246 304L757 224L788 233L836 282L720 369"/>
<path style="--d:4s;" pathLength="3333" clip-path="url(#z23427c4)" d="M648 440L667 496L400 632"/>
<path style="--d:5s;" pathLength="3333" clip-path="url(#z23427c5)" d="M342 418L382 468L380 790L429 846L558 870L776 839L807 814L796 669"/>
</svg>