<!--
AnimCJK 2016-2019 Copyright Francois Mizessyn - https://github.com/parsimonhi/animCJK
Derived from:
    MakeMeAHanzi project - https://github.com/skishore/makemeahanzi
    Arphic PL KaitiM GB font
    Arphic PL UKai font
You can redistribute and/or modify this file under the terms of the Arphic Public License
as published by Arphic Technology Co., Ltd.
You should have received a copy of this license along with this file.
If not, see http://ftp.gnu.org/non-gnu/chinese-fonts-truetype/LICENSE.
-->
<svg id="z23452" class="acjk" version="1.1" viewBox="0 0 1024 1024" xmlns="http://www.w3.org/2000/svg" xmlns:xlink="http://www.w3.org/1999/xlink">
<style>
<![CDATA[
@keyframes zk {
	to {
		stroke-dashoffset:0;
	}
}
svg.acjk path[clip-path] {
	--t:0.8s;
	animation:zk var(--t) linear forwards var(--d);
	stroke-dasharray:3337;
	stroke-dashoffset:3339;
	stroke-width:128;
	stroke-linecap:round;
	fill:none;
	stroke:#000;
}
svg.acjk path[id] {fill:#ccc;}
]]>
</style>
<path id="z23452d1" d="M479 94Q534 158 573 172Q591 176 602 159Q609 143 606 123Q590 72 495 48Q494 47 493 47Q474 41 462 46Q455 47 457 63Q460 76 479 94Z"/>
<path id="z23452d2" d="M285 272Q272 245 259 236Q238 220 236 248Q240 272 215 317Q164 380 163 390Q157 409 179 457Q195 487 218 456Q237 428 252 386Q270 335 284 303C288 293 290 281 285 272Z"/>
<path id="z23452d3" d="M284 303Q311 316 357 305Q498 260 704 237Q753 231 770 233Q788 243 786 250Q786 253 746 337Q739 350 745 355Q752 359 770 347Q831 304 880 289Q922 276 920 266Q919 256 843 200Q816 181 756 195Q603 217 395 255Q340 265 285 272C275 274 274 299 284 303Z"/>
<path id="z23452d4" d="M421 421Q405 408 389 400Q377 396 367 401Q360 405 362 416Q383 459 384 498Q385 535 383 854C383 869 427 864 427 849Q428 779 430 716C430 697 430 697 430 687Q431 635 433 587C434 566 434 566 434 556Q434 463 439 457C444 445 432 429 421 421Z"/>
<path id="z23452d5" d="M667 824Q668 485 698 445Q711 429 697 412Q687 402 636 372Q620 362 558 388Q461 415 421 421C408 424 427 462 439 457Q529 427 591 420Q607 416 613 422Q622 437 615 830C615 847 667 841 667 824Z"/>
<path id="z23452d6" d="M433 587Q503 574 556 565Q578 561 569 548Q559 533 533 530Q497 527 434 556C424 560 423 589 433 587Z"/>
<path id="z23452d7" d="M430 716Q505 704 559 697Q581 693 573 680Q563 665 537 661Q504 658 430 687C421 691 421 718 430 716Z"/>
<path id="z23452d8" d="M383 854Q281 861 171 871Q147 872 164 893Q198 927 243 919Q489 859 870 882Q870 881 873 882Q895 883 902 874Q909 861 890 844Q827 792 767 809Q722 815 667 824C632 828 632 828 615 830Q566 834 511 841Q469 844 427 849C398 852 398 852 383 854Z"/>
<defs>
	<clipPath id="z23452c1"><use xlink:href="#z23452d1"/></clipPath>
	<clipPath id="z23452c2"><use xlink:href="#z23452d2"/></clipPath>
	<clipPath id="z23452c3"><use xlink:href="#z23452d3"/></clipPath>
	<clipPath id="z23452c4"><use xlink:href="#z23452d4"/></clipPath>
	<clipPath id="z23452c5"><use xlink:href="#z23452d5"/></clipPath>
	<clipPath id="z23452c6"><use xlink:href="#z23452d6"/></clipPath>
	<clipPath id="z23452c7"><use xlink:href="#z23452d7"/></clipPath>
	<clipPath id="z23452c8"><use xlink:href="#z23452d8"/></clipPath>
</defs>
<path style="--d:1s;" pathLength="3333" clip-path="url(#z23452c1)" d="M462 51L598 160"/>
<path style="--d:2s;" pathLength="3333" clip-path="url(#z23452c2)" d="M247 236L257 293L187 463"/>
<path style="--d:3s;" pathLength="3333" clip-path="url(#z23452c3)" d="M290 297L781 212L839 246L866 276L752 350"/>
<path style="--d:4s;" pathLength="3333" clip-path="url(#z23452c4)" d="M370 409L410 464L405 851"/>
<path style="--d:5s;" pathLength="3333" clip-path="url(#z23452c5)" d="M429 422L451 433L617 395L658 430L632 827"/>
<path style="--d:6s;" pathLength="3333" clip-path="url(#z23452c6)" d="M441 578L565 553"/>
<path style="--d:7s;" pathLength="3333" clip-path="url(#z23452c7)" d="M438 707L570 681"/>
<path style="--d:8s;" pathLength="3333" clip-path="url(#z23452c8)" d="M163 879L226 893L777 841L900 863"/>
</svg>