<!--
AnimCJK 2016-2019 Copyright Francois Mizessyn - https://github.com/parsimonhi/animCJK
Derived from:
    MakeMeAHanzi project - https://github.com/skishore/makemeahanzi
    Arphic PL KaitiM GB font
    Arphic PL UKai font
You can redistribute and/or modify this file under the terms of the Arphic Public License
as published by Arphic Technology Co., Ltd.
You should have received a copy of this license along with this file.
If not, see http://ftp.gnu.org/non-gnu/chinese-fonts-truetype/LICENSE.
-->
<svg id="z23478" class="acjk" version="1.1" viewBox="0 0 1024 1024" xmlns="http://www.w3.org/2000/svg" xmlns:xlink="http://www.w3.org/1999/xlink">
<style>
<![CDATA[
@keyframes zk {
	to {
		stroke-dashoffset:0;
	}
}
svg.acjk path[clip-path] {
	--t:0.8s;
	animation:zk var(--t) linear forwards var(--d);
	stroke-dasharray:3337;
	stroke-dashoffset:3339;
	stroke-width:128;
	stroke-linecap:round;
	fill:none;
	stroke:#000;
}
svg.acjk path[id] {fill:#ccc;}
]]>
</style>
<path id="z23478d1" d="M464 76C498 105 528 129 558 138C568 141 578 134 583 124C587 114 587 102 583 92C572 62 542 46 498 38C471 32 453 30 444 35C439 36 439 41 442 50C444 58 452 66 464 76Z"/>
<path id="z23478d2" d="M260 224Q251 197 237 188Q218 172 215 199Q221 241 161 295Q140 317 167 377Q182 405 203 377Q212 362 260 249C263 241 263 232 260 224Z"/>
<path id="z23478d3" d="M260 249C280 265 305 268 333 260C409 235 521 213 669 195C699 191 721 187 732 192C746 198 750 207 749 213C748 213 740 240 721 292C717 302 716 308 721 311C726 313 735 310 746 302C783 273 819 256 850 246C876 237 888 228 888 223C887 216 859 195 807 157C788 143 743 147 669 161C599 173 500 185 374 208C339 214 303 219 267 223C264 223 262 223 260 224C252 226 253 244 260 249Z"/>
<path id="z23478d4" d="M455 364C463 362 567 339 631 332C637 331 646 330 650 321C652 314 642 308 629 301C604 288 561 292 498 312C476 318 432 327 403 331C382 333 361 337 339 341C321 344 319 350 334 361C356 377 370 380 409 373C440 367 440 367 455 364Z"/>
<path id="z23478d5" d="M428 448C462 419 477 405 478 401C478 395 476 387 471 380C466 373 461 368 455 364C443 354 415 358 409 373C392 425 329 483 219 546C214 548 213 551 219 553C246 559 294 541 360 500C375 490 395 474 405 467C420 454 420 454 428 448Z"/>
<path id="z23478d6" d="M549 552C532 524 497 479 428 448C419 443 396 463 405 467C411 470 419 474 428 480C440 486 464 508 480 524C485 529 502 546 510 563C519 583 526 601 532 627C540 664 542 735 524 807C516 837 507 854 498 858C490 862 465 861 424 853C396 847 381 846 380 852C379 856 383 863 392 871C436 903 467 930 486 952C494 964 504 968 514 966C528 961 542 948 555 928C589 860 601 767 590 676C586 651 582 631 573 605C566 586 558 568 549 552Z"/>
<path id="z23478d7" d="M428 480C426 482 424 487 423 491C405 535 341 594 230 662C216 670 217 672 234 673C282 673 349 642 429 573C440 562 452 550 480 524C496 508 442 462 428 480Z"/>
<path id="z23478d8" d="M510 563C423 663 334 731 213 806C204 810 195 815 186 821C175 827 173 832 181 835C185 839 193 840 203 838C289 822 381 769 479 679C509 651 523 638 532 627C546 609 524 545 510 563Z"/>
<path id="z23478d9" d="M572 568C640 518 690 479 723 460C735 457 740 451 737 443C732 432 723 420 710 406C696 393 681 386 665 385C654 385 649 393 650 407C652 417 649 427 643 439C624 467 575 532 556 556C552 561 567 572 572 568Z"/>
<path id="z23478d10" d="M556 556C555 555 552 553 549 552C531 545 559 591 573 605C588 620 633 668 655 691C678 716 764 797 796 819C815 832 839 833 866 826C900 816 931 809 958 802C966 799 975 796 982 792C987 788 985 781 976 777C966 771 921 759 843 740C772 722 582 575 572 568C561 560 561 560 556 556Z"/>
<defs>
	<clipPath id="z23478c1"><use xlink:href="#z23478d1"/></clipPath>
	<clipPath id="z23478c2"><use xlink:href="#z23478d2"/></clipPath>
	<clipPath id="z23478c3"><use xlink:href="#z23478d3"/></clipPath>
	<clipPath id="z23478c4"><use xlink:href="#z23478d4"/></clipPath>
	<clipPath id="z23478c5"><use xlink:href="#z23478d5"/></clipPath>
	<clipPath id="z23478c6"><use xlink:href="#z23478d6"/></clipPath>
	<clipPath id="z23478c7"><use xlink:href="#z23478d7"/></clipPath>
	<clipPath id="z23478c8"><use xlink:href="#z23478d8"/></clipPath>
	<clipPath id="z23478c9"><use xlink:href="#z23478d9"/></clipPath>
	<clipPath id="z23478c10"><use xlink:href="#z23478d10"/></clipPath>
</defs>
<path style="--d:1s;" pathLength="3333" clip-path="url(#z23478c1)" d="M449 42L579 124"/>
<path style="--d:2s;" pathLength="3333" clip-path="url(#z23478c2)" d="M226 185L234 243L174 381"/>
<path style="--d:3s;" pathLength="3333" clip-path="url(#z23478c3)" d="M266 232L318 240L739 170L794 194L833 232L727 306"/>
<path style="--d:4s;" pathLength="3333" clip-path="url(#z23478c4)" d="M331 349L641 317"/>
<path style="--d:5s;" pathLength="3333" clip-path="url(#z23478c5)" d="M416 381L438 400L343 487L224 549"/>
<path style="--d:6s;" pathLength="3333" clip-path="url(#z23478c6)" d="M413 465L470 493L528 559L561 652L565 751L542 863L504 911L387 855"/>
<path style="--d:7s;" pathLength="3333" clip-path="url(#z23478c7)" d="M427 491L442 524L407 558L229 667"/>
<path style="--d:8s;" pathLength="3333" clip-path="url(#z23478c8)" d="M508 571L503 614L399 713L184 832"/>
<path style="--d:9s;" pathLength="3333" clip-path="url(#z23478c9)" d="M659 392L691 442L565 558"/>
<path style="--d:10s;" pathLength="3333" clip-path="url(#z23478c10)" d="M558 561L795 768L978 789"/>
</svg>