<!--
AnimCJK 2016-2025 Copyright FM-SH - https://github.com/parsimonhi/animCJK
Derived from:
    MakeMeAHanzi project - https://github.com/skishore/makemeahanzi
    Arphic PL KaitiM GB font
    Arphic PL KaitiM Big5 font
You can redistribute and/or modify this file under the terms of the Arphic Public License
as published by Arphic Technology Co., Ltd.
You should have received a copy of this license along with this file.
If not, see https://ftp.gnu.org/non-gnu/chinese-fonts-truetype/LICENSE.
-->
<svg id="z23506" class="acjk" viewBox="0 0 1024 1024" xmlns="http://www.w3.org/2000/svg">
<style>
<![CDATA[
@keyframes zk {
	to {
		stroke-dashoffset:0;
	}
}
svg.acjk path[clip-path] {
	--t:0.8s;
	animation:zk var(--t) linear forwards var(--d);
	stroke-dasharray:3337;
	stroke-dashoffset:3339;
	stroke-width:128;
	stroke-linecap:round;
	fill:none;
	stroke:#000;
}
svg.acjk path[id] {fill:#ccc;}
]]>
</style>
<path id="z23506d1" d="M491 98C505 109 518 123 533 136C543 145 554 148 565 147C571 146 577 141 581 132C584 121 581 105 573 85C565 68 534 56 483 48C472 46 464 46 460 49C455 51 454 57 457 67C459 73 471 83 491 98Z"/>
<path id="z23506d2" d="M287 219C281 201 273 189 266 183C253 173 243 176 245 194C245 210 245 226 232 243C219 257 205 271 189 286C181 292 178 303 180 318C182 337 185 353 191 365C199 383 211 383 226 366C237 351 246 332 256 310C266 285 275 265 283 249C288 240 291 228 287 219Z"/>
<path id="z23506d3" d="M283 249C297 257 316 257 338 251C416 227 551 206 682 188C710 183 759 172 750 203C742 225 733 241 726 269C717 291 736 284 751 276C787 255 820 242 850 237C874 232 886 226 886 221C885 214 860 193 811 157C792 143 751 146 686 158C647 164 547 181 385 205C320 214 320 214 287 219C277 221 274 244 283 249Z"/>
<path id="z23506d4" d="M618 360C666 352 692 343 698 340C703 336 704 330 702 326C698 318 687 313 672 308C656 303 642 303 627 308C588 319 588 319 569 325C549 330 490 345 452 350C420 354 420 354 404 356C379 359 354 359 329 361C308 362 303 369 319 380C338 394 370 398 409 393C436 389 436 389 450 387C488 381 529 374 569 368C602 363 602 363 618 360Z"/>
<path id="z23506d5" d="M452 350C452 337 453 328 455 324C458 311 454 300 447 293C433 281 419 273 404 268C395 265 389 264 384 268C378 271 377 278 382 287C391 309 399 322 404 356C407 381 407 381 409 393C411 408 411 448 412 462C413 484 413 484 413 495C413 512 413 535 415 560C415 572 451 567 451 555C450 531 450 508 450 489C449 467 449 467 449 456C448 444 449 402 450 387C451 362 451 362 452 350Z"/>
<path id="z23506d6" d="M596 536C598 513 602 491 605 469C608 443 608 443 610 430C613 405 614 381 618 360C624 325 624 325 627 308C629 294 634 281 639 269C641 262 637 254 626 246C605 232 587 226 575 223C565 220 559 221 554 226C549 230 548 236 553 246C562 262 569 289 569 325C569 354 569 354 569 368C569 383 567 413 566 437C565 462 565 462 564 474C562 494 559 517 558 541C558 554 596 549 596 536Z"/>
<path id="z23506d7" d="M605 469C629 466 652 462 674 461C688 460 692 454 688 447C683 437 672 431 658 428C644 425 629 426 610 430C581 435 581 435 566 437C525 443 486 449 449 456C424 460 424 460 412 462C384 466 357 468 331 473C321 474 320 481 333 490C348 501 366 502 413 495C438 491 438 491 450 489C490 482 528 478 564 474C591 471 591 471 605 469Z"/>
<path id="z23506d8" d="M607 573C624 571 686 571 792 571C804 570 811 568 814 564C817 557 815 548 805 541C770 513 734 510 695 519C666 525 633 531 596 536C571 539 571 539 558 541C540 543 468 552 451 555C427 558 427 558 415 560C358 567 298 573 235 580C222 581 220 585 230 597C238 605 247 612 259 615C270 618 282 618 292 616C310 611 330 606 350 603C384 596 384 596 401 593C447 583 504 578 572 575C595 574 595 574 607 573Z"/>
<path id="z23506d9" d="M350 603C338 669 264 749 130 842C125 845 124 848 131 849C192 850 272 789 378 674C404 646 419 636 422 621C423 609 413 602 401 593C387 583 353 586 350 603Z"/>
<path id="z23506d10" d="M572 575C594 609 661 683 777 791C789 803 807 806 827 803C893 791 937 781 958 775C964 773 967 770 968 767C968 764 964 759 954 756C858 727 782 698 729 663C690 637 649 607 607 573C598 566 565 566 572 575Z"/>
<path id="z23506d11" d="M476 687C503 720 522 744 543 752C551 755 561 751 567 743C572 735 573 724 572 715C569 698 561 686 551 678C516 653 489 643 469 647C460 648 460 656 461 661C461 669 467 676 476 687Z"/>
<path id="z23506d12" d="M461 840C488 871 516 906 546 944C552 953 560 959 572 961C577 961 584 958 589 951C594 942 594 927 593 908C590 874 547 837 465 794C455 789 449 787 444 789C440 790 438 795 438 804C437 812 445 823 461 840Z"/>
<defs>
	<clipPath id="z23506c1"><use href="#z23506d1"/></clipPath>
	<clipPath id="z23506c2"><use href="#z23506d2"/></clipPath>
	<clipPath id="z23506c3"><use href="#z23506d3"/></clipPath>
	<clipPath id="z23506c4"><use href="#z23506d4"/></clipPath>
	<clipPath id="z23506c5"><use href="#z23506d5"/></clipPath>
	<clipPath id="z23506c6"><use href="#z23506d6"/></clipPath>
	<clipPath id="z23506c7"><use href="#z23506d7"/></clipPath>
	<clipPath id="z23506c8"><use href="#z23506d8"/></clipPath>
	<clipPath id="z23506c9"><use href="#z23506d9"/></clipPath>
	<clipPath id="z23506c10"><use href="#z23506d10"/></clipPath>
	<clipPath id="z23506c11"><use href="#z23506d11"/></clipPath>
	<clipPath id="z23506c12"><use href="#z23506d12"/></clipPath>
</defs>
<path style="--d:1s;" pathLength="3333" clip-path="url(#z23506c1)" d="M462 54L539 96L567 142"/>
<path style="--d:2s;" pathLength="3333" clip-path="url(#z23506c2)" d="M254 182L265 231L215 311L204 374"/>
<path style="--d:3s;" pathLength="3333" clip-path="url(#z23506c3)" d="M283 239L757 166L790 182L833 232L731 278"/>
<path style="--d:4s;" pathLength="3333" clip-path="url(#z23506c4)" d="M321 371L696 330"/>
<path style="--d:5s;" pathLength="3333" clip-path="url(#z23506c5)" d="M385 271L428 329L425 562"/>
<path style="--d:6s;" pathLength="3333" clip-path="url(#z23506c6)" d="M556 231L601 269L569 546"/>
<path style="--d:7s;" pathLength="3333" clip-path="url(#z23506c7)" d="M329 478L683 447"/>
<path style="--d:8s;" pathLength="3333" clip-path="url(#z23506c8)" d="M231 586L718 543L811 556"/>
<path style="--d:9s;" pathLength="3333" clip-path="url(#z23506c9)" d="M358 597L380 629L328 696L137 844"/>
<path style="--d:10s;" pathLength="3333" clip-path="url(#z23506c10)" d="M581 574L810 757L962 766"/>
<path style="--d:11s;" pathLength="3333" clip-path="url(#z23506c11)" d="M468 651L558 748"/>
<path style="--d:12s;" pathLength="3333" clip-path="url(#z23506c12)" d="M445 796L552 897L577 955"/>
</svg>