<!--
AnimCJK 2016-2018 Copyright Francois Mizessyn, https://github.com/parsimonhi/animCJK
Derived from:
    MakeMeAHanzi project - https://github.com/skishore/makemeahanzi
    Arphic PL KaitiM GB - https://apps.ubuntu.com/cat/applications/precise/fonts-arphic-gkai00mp/
    Arphic PL UKai - https://apps.ubuntu.com/cat/applications/fonts-arphic-ukai/
You can redistribute and/or modify this file under the terms of the Arphic Public License
as published by Arphic Technology Co., Ltd.
You should have received a copy of this license (the directory "APL") along with this file;
if not, see http://ftp.gnu.org/non-gnu/chinese-fonts-truetype/LICENSE.
-->
<svg id="z23519" class="acjk" version="1.1" viewBox="0 0 1024 1024" xmlns="http://www.w3.org/2000/svg" xmlns:xlink="http://www.w3.org/1999/xlink">
<style>
<![CDATA[
@keyframes z23519k {
	from {
		stroke:#c00;
		stroke-dashoffset:3334;
	}
	75% {
		stroke:#c00;
		stroke-dashoffset:0;
	}
	to {
		stroke:#000;
	}
}
#z23519 path[clip-path] {
	animation:z23519k 1s linear both;
	stroke-dasharray:3334;
	stroke-width:128;
	stroke-linecap:round;
	fill:none;
}
#z23519 path[clip-path="url(#z23519c1)"] {animation-delay:1s;}
#z23519 path[clip-path="url(#z23519c2)"] {animation-delay:2s;}
#z23519 path[clip-path="url(#z23519c3)"] {animation-delay:3s;}
#z23519 path[clip-path="url(#z23519c4)"] {animation-delay:4s;}
#z23519 path[clip-path="url(#z23519c5)"] {animation-delay:5s;}
#z23519 path[clip-path="url(#z23519c6)"] {animation-delay:6s;}
#z23519 path[clip-path="url(#z23519c7)"] {animation-delay:7s;}
#z23519 path[clip-path="url(#z23519c8)"] {animation-delay:8s;}
#z23519 path[clip-path="url(#z23519c9)"] {animation-delay:9s;}
#z23519 path[clip-path="url(#z23519c10)"] {animation-delay:10s;}
#z23519 path[clip-path="url(#z23519c11)"] {animation-delay:11s;}
#z23519 path[clip-path="url(#z23519c12)"] {animation-delay:12s;}
#z23519 path[clip-path="url(#z23519c13)"] {animation-delay:13s;}
#z23519 path[clip-path="url(#z23519c14)"] {animation-delay:14s;}
#z23519 path {fill:#ccc;}
]]>
</style>
<path id="z23519d1" d="M470 93Q492 109 518 130Q533 140 547 139Q557 138 561 124Q564 109 552 82Q540 57 461 48Q445 47 440 49Q436 53 438 65Q442 75 470 93 Z"/>
<path id="z23519d2" d="M284 193Q266 159 263 156Q247 141 243 165Q243 202 204 239Q165 269 191 329Q204 354 224 330Q240 309 254 277Q267 244 277 223L284 193 Z"/>
<path id="z23519d3" d="M277 223Q301 239 329 233Q464 194 665 178Q698 175 709 178Q728 184 727 191Q712 227 696 263L697 264Q703 268 720 259Q771 235 810 231Q843 227 843 219Q843 209 778 151Q754 130 671 145Q508 163 376 182Q330 188 284 193L277 223 Z"/>
<path id="z23519d4" d="M287 391Q305 375 323 358L345 334Q361 316 377 302Q387 293 378 279Q348 246 325 243Q315 244 315 256Q315 328 220 402Q199 415 191 426Q181 438 195 436Q217 436 276 398L287 391 Z"/>
<path id="z23519d5" d="M323 358Q332 358 346 357Q407 347 410 355Q413 371 383 424Q356 482 279 556Q203 637 85 707Q63 717 81 718Q214 721 397 484Q470 379 484 370Q496 363 492 351Q488 341 443 317Q433 311 412 320Q390 327 345 334L323 358 Z"/>
<path id="z23519d6" d="M276 398Q273 407 307 452Q317 465 330 468Q339 471 346 458Q347 448 344 433Q335 412 287 391L276 398 Z"/>
<path id="z23519d7" d="M218 479Q243 536 265 539Q275 542 283 529Q286 519 282 503Q272 479 226 459Q219 456 217 465Q214 471 218 479 Z"/>
<path id="z23519d8" d="M611 413Q698 340 738 322Q748 319 748 311Q749 301 727 287Q669 245 643 261Q589 279 505 293Q486 294 499 311Q514 327 549 320Q624 293 642 298Q658 307 655 317Q655 320 600 404L611 413 Z"/>
<path id="z23519d9" d="M600 404Q561 361 544 359Q522 360 517 367Q516 371 522 376Q556 392 580 424Q692 560 782 652Q798 670 824 668Q960 653 970 638Q973 631 963 628Q810 580 736 523Q681 480 611 413L600 404 Z"/>
<path id="z23519d10" d="M391 542Q357 549 382 563Q424 584 472 569Q520 559 570 547Q592 541 596 538Q603 531 599 523Q592 513 565 507Q537 503 511 514Q486 523 458 530Q427 537 391 542 Z"/>
<path id="z23519d11" d="M508 656Q572 647 691 648Q707 647 711 640Q715 630 702 620Q654 589 603 601Q489 623 294 654Q276 655 290 669Q302 681 316 685Q334 689 347 685Q402 669 465 661L508 656 Z"/>
<path id="z23519d12" d="M465 661Q489 733 476 850Q475 851 474 854Q470 867 446 863Q427 860 404 858Q392 857 391 864Q390 870 400 879Q457 930 475 958Q488 971 499 970Q509 966 522 931Q538 897 537 833Q533 758 534 732Q541 690 523 669Q514 662 508 656L465 661 Z"/>
<path id="z23519d13" d="M314 733Q286 776 252 812Q227 842 239 878Q243 897 266 887Q317 863 331 794Q341 763 338 737Q334 727 329 726Q320 726 314 733 Z"/>
<path id="z23519d14" d="M649 772Q691 815 733 866Q746 882 762 883Q774 884 781 871Q788 856 783 824Q777 778 651 721Q635 715 628 717Q622 720 622 734Q625 746 649 772 Z"/>
<defs>
	<clipPath id="z23519c1"><use xlink:href="#z23519d1"/></clipPath>
	<clipPath id="z23519c2"><use xlink:href="#z23519d2"/></clipPath>
	<clipPath id="z23519c3"><use xlink:href="#z23519d3"/></clipPath>
	<clipPath id="z23519c4"><use xlink:href="#z23519d4"/></clipPath>
	<clipPath id="z23519c5"><use xlink:href="#z23519d5"/></clipPath>
	<clipPath id="z23519c6"><use xlink:href="#z23519d6"/></clipPath>
	<clipPath id="z23519c7"><use xlink:href="#z23519d7"/></clipPath>
	<clipPath id="z23519c8"><use xlink:href="#z23519d8"/></clipPath>
	<clipPath id="z23519c9"><use xlink:href="#z23519d9"/></clipPath>
	<clipPath id="z23519c10"><use xlink:href="#z23519d10"/></clipPath>
	<clipPath id="z23519c11"><use xlink:href="#z23519d11"/></clipPath>
	<clipPath id="z23519c12"><use xlink:href="#z23519d12"/></clipPath>
	<clipPath id="z23519c13"><use xlink:href="#z23519d13"/></clipPath>
	<clipPath id="z23519c14"><use xlink:href="#z23519d14"/></clipPath>
</defs>
<path pathLength="3333" clip-path="url(#z23519c1)" d="M445 57L516 90L550 134"/>
<path pathLength="3333" clip-path="url(#z23519c2)" d="M253 156L260 196L206 337"/>
<path pathLength="3333" clip-path="url(#z23519c3)" d="M281 218L717 159L761 178L789 222L705 259"/>
<path pathLength="3333" clip-path="url(#z23519c4)" d="M325 249L344 294L197 431"/>
<path pathLength="3333" clip-path="url(#z23519c5)" d="M335 351L424 334L451 361L376 477L219 640L80 713"/>
<path pathLength="3333" clip-path="url(#z23519c6)" d="M281 399L333 463"/>
<path pathLength="3333" clip-path="url(#z23519c7)" d="M223 465L278 530"/>
<path pathLength="3333" clip-path="url(#z23519c8)" d="M503 302L648 278L690 299L700 318L609 405"/>
<path pathLength="3333" clip-path="url(#z23519c9)" d="M525 367L814 621L961 637"/>
<path pathLength="3333" clip-path="url(#z23519c10)" d="M379 550L596 526"/>
<path pathLength="3333" clip-path="url(#z23519c11)" d="M292 661L622 623L707 635"/>
<path pathLength="3333" clip-path="url(#z23519c12)" d="M474 669L506 705L502 879L474 918L398 865"/>
<path pathLength="3333" clip-path="url(#z23519c13)" d="M326 732L242 879"/>
<path pathLength="3333" clip-path="url(#z23519c14)" d="M631 725L738 815L769 876"/>
</svg>