<!--
AnimCJK 2016-2017 Copyright Francois Mizessyn, http://gooo.free.fr/animCJK/
Derived from:
    MakeMeAHanzi project - https://github.com/skishore/makemeahanzi
    Arphic PL KaitiM GB - https://apps.ubuntu.com/cat/applications/precise/fonts-arphic-gkai00mp/
    Arphic PL UKai - https://apps.ubuntu.com/cat/applications/fonts-arphic-ukai/
You can redistribute and/or modify this file under the terms of the Arphic Public License
as published by Arphic Technology Co., Ltd.
You should have received a copy of this license (the directory "APL") along with this file;
if not, see http://ftp.gnu.org/non-gnu/chinese-fonts-truetype/LICENSE.
-->
<svg id="z23517" class="acjk" version="1.1" viewBox="0 0 1024 1024" xmlns="http://www.w3.org/2000/svg" xmlns:xlink="http://www.w3.org/1999/xlink">
<style>
<![CDATA[
	@keyframes z23517k {
		from {
			stroke:#c00;
			stroke-dashoffset:3000;
		}
		75% {
			stroke:#c00;
			stroke-dashoffset:0;
		}
		to {
			stroke:#000;
		}
	}
	#z23517 path[clip-path] {
		animation:z23517k 1s linear both;
		stroke-dasharray:3000;
		stroke-width:128;
		stroke-linecap:round;
		fill:none;
	}
	#z23517 path[clip-path="url(#z23517c1)"] {animation-delay:1s;}
	#z23517 path[clip-path="url(#z23517c2)"] {animation-delay:2s;}
	#z23517 path[clip-path="url(#z23517c3)"] {animation-delay:3s;}
	#z23517 path[clip-path="url(#z23517c4)"] {animation-delay:4s;}
	#z23517 path[clip-path="url(#z23517c5)"] {animation-delay:5s;}
	#z23517 path[clip-path="url(#z23517c6)"] {animation-delay:6s;}
	#z23517 path[clip-path="url(#z23517c7)"] {animation-delay:7s;}
	#z23517 path[clip-path="url(#z23517c8)"] {animation-delay:8s;}
	#z23517 path[clip-path="url(#z23517c9)"] {animation-delay:9s;}
	#z23517 path[clip-path="url(#z23517c10)"] {animation-delay:10s;}
	#z23517 path[clip-path="url(#z23517c11)"] {animation-delay:11s;}
	#z23517 path[clip-path="url(#z23517c12)"] {animation-delay:12s;}
	#z23517 path[clip-path="url(#z23517c13)"] {animation-delay:13s;}
	#z23517 path {fill:#ccc;}
]]>
</style>
<g transform="scale(1,-1) translate(0,-900)">
	<path id="z23517d1" d="M463 817Q488 798 516 775Q531 763 546 765Q556 766 561 780Q564 796 553 824Q546 842 516 853Q486 860 454 864Q438 865 432 863Q428 859 430 846Q434 836 463 817Z"/>
	<path id="z23517d2" d="M279 705Q279 726 260 740Q244 755 240 731Q246 707 228 686Q209 662 181 636Q171 626 173 606Q176 578 183 563Q195 538 215 561Q224 574 273 676L279 705Z"/>
	<path id="z23517d3" d="M273 676Q297 663 330 672Q459 714 682 734Q724 738 738 736Q751 726 750 720Q750 717 730 662Q723 649 729 645Q736 641 752 652Q801 680 840 688Q873 695 873 703Q872 713 803 764Q782 780 692 765Q527 743 378 719Q329 712 279 705L273 676Z"/>
	<path id="z23517d4" d="M310 296Q307 242 307 183Q303 123 287 69Q278 38 298 -14Q302 -27 309 -31Q315 -35 320 -30Q327 -26 335 -9Q341 4 344 119Q348 500 368 563Q375 575 373 586Q367 593 323 622Q304 635 287 623Q283 619 288 607Q312 571 313 509Q313 389 311 335L310 296Z"/>
	<path id="z23517d5" d="M193 455Q215 434 238 409Q248 397 263 397Q272 397 277 409Q281 422 275 447Q271 465 246 478Q185 503 172 499Q168 495 168 484Q171 474 193 455Z"/>
	<path id="z23517d6" d="M311 335Q151 188 109 171Q99 164 101 155Q104 142 116 139Q141 135 178 131Q188 132 195 145Q207 172 310 296L311 335Z"/>
	<path id="z23517d7" d="M684 483Q708 564 740 589Q753 605 741 620Q677 671 625 641Q553 619 488 609Q475 608 476 599Q479 592 494 587Q509 581 559 591Q652 610 659 604Q668 595 665 578Q655 529 643 487L684 483Z"/>
	<path id="z23517d8" d="M469 522Q456 518 472 507Q479 503 496 505Q572 520 630 529Q648 532 641 542Q632 554 613 556Q600 559 469 522Z"/>
	<path id="z23517d9" d="M643 487Q639 487 636 485Q548 458 477 446Q458 443 470 428Q477 421 486 417Q496 416 508 418Q568 434 698 451Q708 452 708 461Q708 468 684 483L643 487Z"/>
	<path id="z23517d10" d="M446 363Q431 390 422 395Q419 399 414 395Q410 392 408 383Q409 356 384 302Q375 287 375 271Q378 255 385 242Q392 232 397 238Q409 241 422 280Q438 319 445 332Q445 333 446 334L446 363Z"/>
	<path id="z23517d11" d="M446 334Q464 325 513 339Q597 369 731 382Q740 383 746 382Q761 372 758 366Q758 365 741 309Q735 296 741 293Q748 289 762 300Q807 331 844 340Q874 350 873 357Q872 366 807 410Q785 425 685 405Q679 405 511 374Q478 368 446 363L446 334Z"/>
	<path id="z23517d12" d="M629 103Q663 145 685 207Q694 237 712 251Q727 263 712 278Q696 294 666 307Q648 314 628 306Q576 281 504 272Q480 271 470 265Q463 259 478 250Q500 237 536 248Q579 257 620 266Q636 270 637 253Q637 201 593 132L570 104Q563 98 557 92Q511 55 389 24Q376 23 383 14Q390 8 415 9Q494 16 541 35Q572 48 599 71L629 103Z"/>
	<path id="z23517d13" d="M599 71Q642 23 715 -37Q742 -56 779 -46Q828 -36 864 -27Q876 -24 886 -18Q893 -12 882 -5Q869 2 761 32Q707 47 629 103L593 132Q562 160 527 195Q509 214 481 216Q472 217 465 212Q461 206 469 201Q475 197 482 193Q500 184 570 104L599 71Z"/>
	<defs>
		<clipPath id="z23517c1"><use xlink:href="#z23517d1"/></clipPath>
		<clipPath id="z23517c2"><use xlink:href="#z23517d2"/></clipPath>
		<clipPath id="z23517c3"><use xlink:href="#z23517d3"/></clipPath>
		<clipPath id="z23517c4"><use xlink:href="#z23517d4"/></clipPath>
		<clipPath id="z23517c5"><use xlink:href="#z23517d5"/></clipPath>
		<clipPath id="z23517c6"><use xlink:href="#z23517d6"/></clipPath>
		<clipPath id="z23517c7"><use xlink:href="#z23517d7"/></clipPath>
		<clipPath id="z23517c8"><use xlink:href="#z23517d8"/></clipPath>
		<clipPath id="z23517c9"><use xlink:href="#z23517d9"/></clipPath>
		<clipPath id="z23517c10"><use xlink:href="#z23517d10"/></clipPath>
		<clipPath id="z23517c11"><use xlink:href="#z23517d11"/></clipPath>
		<clipPath id="z23517c12"><use xlink:href="#z23517d12"/></clipPath>
		<clipPath id="z23517c13"><use xlink:href="#z23517d13"/></clipPath>
	</defs>
	<path pathLength="2999" clip-path="url(#z23517c1)" d="M437 858L518 816L550 772"/>
	<path pathLength="2999" clip-path="url(#z23517c2)" d="M249 739L255 690L195 557"/>
	<path pathLength="2999" clip-path="url(#z23517c3)" d="M278 680L743 754L818 699L737 649"/>
	<path pathLength="2999" clip-path="url(#z23517c4)" d="M292 618L340 571L315 -27"/>
	<path pathLength="2999" clip-path="url(#z23517c5)" d="M176 491L270 407"/>
	<path pathLength="2999" clip-path="url(#z23517c6)" d="M104 156L170 168L308 326"/>
	<path pathLength="2999" clip-path="url(#z23517c7)" d="M483 601L682 622L706 591L653 489"/>
	<path pathLength="2999" clip-path="url(#z23517c8)" d="M473 515L635 540"/>
	<path pathLength="2999" clip-path="url(#z23517c9)" d="M473 435L699 464"/>
	<path pathLength="2999" clip-path="url(#z23517c10)" d="M416 387L424 341L390 243"/>
	<path pathLength="2999" clip-path="url(#z23517c11)" d="M453 340L750 399L804 371L819 348L745 299"/>
	<path pathLength="2999" clip-path="url(#z23517c12)" d="M475 263L642 288L677 253L574 78L388 18"/>
	<path pathLength="2999" clip-path="url(#z23517c13)" d="M471 209L737 -3L883 -10"/>
</g>
</svg>