<!--
AnimCJK 2016-2026 Copyright FM-SH - https://github.com/parsimonhi/animCJK
Derived from:
    MakeMeAHanzi project - https://github.com/skishore/makemeahanzi
    Arphic PL KaitiM GB font
    Arphic PL KaitiM Big5 font
You can redistribute and/or modify this file under the terms of the Arphic Public License
as published by Arphic Technology Co., Ltd.
You should have received a copy of this license along with this file.
If not, see https://ftp.gnu.org/non-gnu/chinese-fonts-truetype/LICENSE.
-->
<svg id="z23525" class="acjk" viewBox="0 0 1024 1024" xmlns="http://www.w3.org/2000/svg">
<style>
<![CDATA[
@keyframes zk {
	to {
		stroke-dashoffset:0;
	}
}
svg.acjk path[clip-path] {
	--t:0.8s;
	animation:zk var(--t) linear forwards var(--d);
	stroke-dasharray:3337;
	stroke-dashoffset:3339;
	stroke-width:128;
	stroke-linecap:round;
	fill:none;
	stroke:#000;
}
svg.acjk path[id] {fill:#ccc;}
]]>
</style>
<path id="z23525d1" d="M463 68C482 79 501 95 522 111C524 112 557 133 565 104C567 94 564 79 556 62C547 43 512 30 452 23C442 21 434 22 432 25C419 36 438 52 463 68Z"/>
<path id="z23525d2" d="M269 172C261 157 253 146 247 141C235 130 225 134 227 151C228 173 213 202 177 241C164 254 166 280 183 317C190 334 203 333 216 317C227 302 236 284 243 262C250 239 256 221 263 207C267 197 271 186 269 175C269 173 269 173 269 172Z"/>
<path id="z23525d3" d="M263 207C275 213 289 214 304 211C420 178 553 156 704 147C715 146 755 143 752 164C749 181 744 193 738 213C728 241 738 236 755 229C787 213 814 199 840 194C860 189 870 184 870 180C869 173 847 153 804 121C789 110 759 111 712 117C649 124 369 164 269 175C258 177 253 203 263 207Z"/>
<path id="z23525d4" d="M299 257C283 260 276 263 295 273C307 279 327 278 353 272C383 264 400 260 406 263C410 265 412 275 410 292C401 354 393 390 389 403C385 411 385 420 389 429C393 442 409 442 418 426C423 416 432 390 443 346C449 319 461 298 479 283C488 274 487 266 480 259C471 251 453 241 428 229C421 225 405 226 381 234C360 240 320 252 299 257Z"/>
<path id="z23525d5" d="M337 299C332 313 305 329 287 341C265 356 267 364 295 356C318 349 342 341 366 329C381 321 387 314 381 307C357 281 346 275 337 299Z"/>
<path id="z23525d6" d="M335 373C330 390 303 400 286 412C259 428 267 435 298 427C315 422 337 417 362 405C377 397 386 395 377 382C358 358 343 347 335 373Z"/>
<path id="z23525d7" d="M531 226C529 226 497 226 526 244C543 254 560 256 575 251C608 238 631 235 642 240C648 242 649 254 645 274C630 344 620 387 614 401C609 411 608 421 612 431C618 449 635 444 645 429C652 417 663 386 679 336C687 306 704 283 725 266C735 257 736 248 727 239C717 229 697 216 669 202C660 197 643 199 618 205C589 211 560 218 531 226Z"/>
<path id="z23525d8" d="M568 278C561 294 542 306 512 328C490 344 517 337 545 329C568 322 586 316 609 306C627 296 627 292 616 282C585 257 577 256 568 278Z"/>
<path id="z23525d9" d="M554 355C551 369 536 375 519 387C482 411 509 409 541 400C561 393 576 387 593 382C610 375 618 369 601 357C568 334 559 334 554 355Z"/>
<path id="z23525d10" d="M529 444C532 439 526 428 505 418C488 409 476 405 468 406C463 406 460 410 457 418C430 486 330 569 159 663C113 682 128 698 170 686C313 643 466 522 514 463C519 457 529 452 529 444Z"/>
<path id="z23525d11" d="M514 463C590 531 669 595 750 656C767 669 788 675 815 674C861 671 908 659 958 645C988 636 979 627 964 624C831 591 755 572 736 563C663 527 613 500 586 482C562 466 544 452 529 444C522 440 508 458 514 463Z"/>
<path id="z23525d12" d="M479 529C480 539 480 548 475 556C446 597 404 646 342 695C316 714 333 716 355 709C388 699 436 665 499 607C511 595 522 587 530 582C549 566 536 554 520 535C496 507 476 508 479 529Z"/>
<path id="z23525d13" d="M526 631C527 653 502 690 446 744C419 768 390 796 355 819C340 828 330 844 367 832C401 821 449 792 526 728C547 709 563 695 577 688C583 684 585 678 585 671C584 664 579 652 568 638C549 614 523 604 526 631Z"/>
<path id="z23525d14" d="M590 716C589 731 584 749 572 768C514 857 417 914 327 966C294 980 305 990 335 982C462 947 550 871 638 791C657 773 670 765 655 741C639 716 620 704 600 704C594 704 590 707 590 716Z"/>
<defs>
	<clipPath id="z23525c1"><use href="#z23525d1"/></clipPath>
	<clipPath id="z23525c2"><use href="#z23525d2"/></clipPath>
	<clipPath id="z23525c3"><use href="#z23525d3"/></clipPath>
	<clipPath id="z23525c4"><use href="#z23525d4"/></clipPath>
	<clipPath id="z23525c5"><use href="#z23525d5"/></clipPath>
	<clipPath id="z23525c6"><use href="#z23525d6"/></clipPath>
	<clipPath id="z23525c7"><use href="#z23525d7"/></clipPath>
	<clipPath id="z23525c8"><use href="#z23525d8"/></clipPath>
	<clipPath id="z23525c9"><use href="#z23525d9"/></clipPath>
	<clipPath id="z23525c10"><use href="#z23525d10"/></clipPath>
	<clipPath id="z23525c11"><use href="#z23525d11"/></clipPath>
	<clipPath id="z23525c12"><use href="#z23525d12"/></clipPath>
	<clipPath id="z23525c13"><use href="#z23525d13"/></clipPath>
	<clipPath id="z23525c14"><use href="#z23525d14"/></clipPath>
</defs>
<path style="--d:1s;" pathLength="3333" clip-path="url(#z23525c1)" d="M431 30L515 67L557 111"/>
<path style="--d:2s;" pathLength="3333" clip-path="url(#z23525c2)" d="M235 140L245 184L194 324"/>
<path style="--d:3s;" pathLength="3333" clip-path="url(#z23525c3)" d="M260 195L741 130L787 147L814 182L742 227"/>
<path style="--d:4s;" pathLength="3333" clip-path="url(#z23525c4)" d="M291 263L410 244L437 258L448 276L397 433"/>
<path style="--d:5s;" pathLength="3333" clip-path="url(#z23525c5)" d="M354 287L355 314L281 353"/>
<path style="--d:6s;" pathLength="3333" clip-path="url(#z23525c6)" d="M351 361L352 390L277 425"/>
<path style="--d:7s;" pathLength="3333" clip-path="url(#z23525c7)" d="M520 231L637 219L681 238L617 436"/>
<path style="--d:8s;" pathLength="3333" clip-path="url(#z23525c8)" d="M582 265L588 296L513 333"/>
<path style="--d:9s;" pathLength="3333" clip-path="url(#z23525c9)" d="M566 346L573 374L508 401"/>
<path style="--d:10s;" pathLength="3333" clip-path="url(#z23525c10)" d="M468 411L479 455L404 529L137 682"/>
<path style="--d:11s;" pathLength="3333" clip-path="url(#z23525c11)" d="M523 450L775 622L972 633"/>
<path style="--d:12s;" pathLength="3333" clip-path="url(#z23525c12)" d="M486 522L501 571L340 709"/>
<path style="--d:13s;" pathLength="3333" clip-path="url(#z23525c13)" d="M535 621L551 669L350 832"/>
<path style="--d:14s;" pathLength="3333" clip-path="url(#z23525c14)" d="M600 709L621 757L568 819L465 903L316 978"/>
</svg>