<!--
AnimCJK 2016-2025 Copyright FM-SH - https://github.com/parsimonhi/animCJK
Derived from:
    MakeMeAHanzi project - https://github.com/skishore/makemeahanzi
    Arphic PL KaitiM GB font
    Arphic PL KaitiM Big5 font
You can redistribute and/or modify this file under the terms of the Arphic Public License
as published by Arphic Technology Co., Ltd.
You should have received a copy of this license along with this file.
If not, see https://ftp.gnu.org/non-gnu/chinese-fonts-truetype/LICENSE.
-->
<svg id="z23521" class="acjk" viewBox="0 0 1024 1024" xmlns="http://www.w3.org/2000/svg">
<style>
<![CDATA[
@keyframes zk {
	to {
		stroke-dashoffset:0;
	}
}
svg.acjk path[clip-path] {
	--t:0.8s;
	animation:zk var(--t) linear forwards var(--d);
	stroke-dasharray:3337;
	stroke-dashoffset:3339;
	stroke-width:128;
	stroke-linecap:round;
	fill:none;
	stroke:#000;
}
svg.acjk path[id] {fill:#ccc;}
]]>
</style>
<path id="z23521d1" d="M458 101C472 111 488 124 506 138C515 145 525 147 535 147C541 146 546 141 549 132C551 122 548 107 540 90C532 73 501 61 449 56C438 54 430 55 428 57C424 59 423 65 426 73C427 79 439 88 458 101Z"/>
<path id="z23521d2" d="M255 203C248 188 241 177 234 172C221 161 211 165 213 183C214 207 199 236 162 274C147 288 149 315 167 353C175 371 192 374 202 353C238 272 238 272 256 231C259 222 258 212 255 203Z"/>
<path id="z23521d3" d="M256 231C272 241 288 244 306 239C406 208 521 188 647 177C669 175 684 172 691 176C708 186 702 196 698 209C684 243 669 276 673 279C677 282 685 278 696 272C731 248 764 234 793 227C815 220 827 214 827 209C826 202 802 182 756 148C742 138 729 134 713 137C559 159 393 186 255 203C246 205 249 225 256 231Z"/>
<path id="z23521d4" d="M456 293C566 268 621 255 623 255C627 250 628 245 626 241C622 235 612 230 597 226C581 222 565 223 549 230C481 252 412 264 347 270C327 272 324 279 339 289C357 299 381 303 411 301C441 296 441 296 456 293Z"/>
<path id="z23521d5" d="M417 363C431 347 445 328 462 316C472 304 466 298 456 293C443 285 414 286 411 301C411 307 403 330 389 370C385 379 411 371 417 363Z"/>
<path id="z23521d6" d="M366 376C356 369 346 363 338 360C331 357 325 358 320 362C315 364 314 368 317 374C325 390 333 423 340 476C343 504 346 544 352 594C354 606 389 601 389 589C388 573 387 552 387 544C386 528 386 528 386 520C385 510 384 482 384 472C383 457 383 457 383 449C382 439 379 407 383 401C385 391 374 382 366 376Z"/>
<path id="z23521d7" d="M596 561C598 534 602 507 605 480C608 445 618 414 638 387C648 372 644 361 628 352C585 328 559 321 546 327C504 344 457 352 417 363C398 368 398 368 389 370C384 371 374 374 366 376C356 378 373 404 383 401C418 388 501 372 540 366C544 365 547 366 550 369C564 385 562 451 543 569C540 587 596 579 596 561Z"/>
<path id="z23521d8" d="M384 472C390 472 404 468 509 452C521 450 525 445 521 438C515 429 505 424 491 423C475 420 439 429 383 449C376 451 376 474 384 472Z"/>
<path id="z23521d9" d="M387 544C393 544 404 540 513 524C525 522 529 517 525 510C519 501 508 497 495 495C476 492 440 500 386 520C379 523 379 546 387 544Z"/>
<path id="z23521d10" d="M579 603C622 600 697 599 803 599C815 598 824 596 827 590C830 583 826 574 816 566C780 537 741 532 699 542C668 548 634 555 596 561C561 566 561 566 543 569C491 576 437 582 389 589C364 592 364 592 352 594C297 601 240 607 180 615C167 616 165 622 175 633C183 642 193 648 206 652C218 655 230 655 241 653C269 645 300 637 335 632C355 629 355 629 365 627C421 617 482 609 549 605C569 604 569 604 579 603Z"/>
<path id="z23521d11" d="M335 632C335 692 261 771 114 867C109 869 109 872 115 873C150 874 239 822 278 789C302 767 331 739 344 727C349 722 349 722 351 720C369 701 382 688 395 681C411 669 402 657 391 646C384 638 375 633 365 627C356 622 335 622 335 632Z"/>
<path id="z23521d12" d="M642 721Q726 817 749 825Q815 840 925 822Q944 821 945 816Q948 809 933 803Q767 739 743 725Q692 695 579 603C571 597 544 596 549 605Q550 608 622 697C635 713 635 713 642 721Z"/>
<path id="z23521d13" d="M442 744C477 735 508 727 537 725C561 721 555 745 554 760C548 802 543 834 532 853C520 872 504 879 487 875C472 870 459 865 447 860C431 853 426 859 438 875C460 904 477 928 489 949C495 961 505 961 517 955C554 931 585 876 609 785C615 760 624 743 634 733C638 728 640 724 642 721C647 712 631 702 622 697C612 690 599 684 585 677C574 671 558 676 532 685C462 707 410 715 368 717C362 717 358 718 351 720C348 721 342 724 344 727C347 734 357 740 364 744C378 751 394 755 408 752C431 747 431 747 442 744Z"/>
<path id="z23521d14" d="M408 752C407 826 328 894 291 932C288 934 286 937 285 941C284 943 285 945 289 945C329 945 380 904 442 824C450 813 457 805 463 799C467 793 468 786 465 778C457 763 449 752 442 744C435 735 408 740 408 752Z"/>
<defs>
	<clipPath id="z23521c1"><use href="#z23521d1"/></clipPath>
	<clipPath id="z23521c2"><use href="#z23521d2"/></clipPath>
	<clipPath id="z23521c3"><use href="#z23521d3"/></clipPath>
	<clipPath id="z23521c4"><use href="#z23521d4"/></clipPath>
	<clipPath id="z23521c5"><use href="#z23521d5"/></clipPath>
	<clipPath id="z23521c6"><use href="#z23521d6"/></clipPath>
	<clipPath id="z23521c7"><use href="#z23521d7"/></clipPath>
	<clipPath id="z23521c8"><use href="#z23521d8"/></clipPath>
	<clipPath id="z23521c9"><use href="#z23521d9"/></clipPath>
	<clipPath id="z23521c10"><use href="#z23521d10"/></clipPath>
	<clipPath id="z23521c11"><use href="#z23521d11"/></clipPath>
	<clipPath id="z23521c12"><use href="#z23521d12"/></clipPath>
	<clipPath id="z23521c13"><use href="#z23521d13"/></clipPath>
	<clipPath id="z23521c14"><use href="#z23521d14"/></clipPath>
</defs>
<path style="--d:1s;" pathLength="3333" clip-path="url(#z23521c1)" d="M431 67L542 137"/>
<path style="--d:2s;" pathLength="3333" clip-path="url(#z23521c2)" d="M221 175L232 218L184 306L179 362"/>
<path style="--d:3s;" pathLength="3333" clip-path="url(#z23521c3)" d="M256 210L714 159L745 181L772 221L679 275"/>
<path style="--d:4s;" pathLength="3333" clip-path="url(#z23521c4)" d="M336 277L620 243"/>
<path style="--d:5s;" pathLength="3333" clip-path="url(#z23521c5)" d="M420 296L433 322L396 368"/>
<path style="--d:6s;" pathLength="3333" clip-path="url(#z23521c6)" d="M323 367L355 402L365 598"/>
<path style="--d:7s;" pathLength="3333" clip-path="url(#z23521c7)" d="M372 383L548 345L584 362L601 389L560 577"/>
<path style="--d:8s;" pathLength="3333" clip-path="url(#z23521c8)" d="M381 462L513 441"/>
<path style="--d:9s;" pathLength="3333" clip-path="url(#z23521c9)" d="M384 534L520 514"/>
<path style="--d:10s;" pathLength="3333" clip-path="url(#z23521c10)" d="M175 621L234 631L724 568L823 579"/>
<path style="--d:11s;" pathLength="3333" clip-path="url(#z23521c11)" d="M342 631L364 670L324 717L237 799L120 868"/>
<path style="--d:12s;" pathLength="3333" clip-path="url(#z23521c12)" d="M556 603L748 775L937 814"/>
<path style="--d:13s;" pathLength="3333" clip-path="url(#z23521c13)" d="M353 726L549 701L598 728L528 901L496 915L439 863"/>
<path style="--d:14s;" pathLength="3333" clip-path="url(#z23521c14)" d="M420 743L429 799L291 938"/>
</svg>