<!--
AnimCJK 2016-2017 Copyright Francois Mizessyn, http://gooo.free.fr/animCJK/
Derived from:
    MakeMeAHanzi project - https://github.com/skishore/makemeahanzi
    Arphic PL KaitiM GB - https://apps.ubuntu.com/cat/applications/precise/fonts-arphic-gkai00mp/
    Arphic PL UKai - https://apps.ubuntu.com/cat/applications/fonts-arphic-ukai/
You can redistribute and/or modify this file under the terms of the Arphic Public License
as published by Arphic Technology Co., Ltd.
You should have received a copy of this license (the directory "APL") along with this file;
if not, see http://ftp.gnu.org/non-gnu/chinese-fonts-truetype/LICENSE.
-->
<svg id="z23567" class="acjk" version="1.1" viewBox="0 0 1024 1024" xmlns="http://www.w3.org/2000/svg" xmlns:xlink="http://www.w3.org/1999/xlink">
<style>
<![CDATA[
	@keyframes z23567k {
		from {
			stroke:#c00;
			stroke-dashoffset:3000;
		}
		75% {
			stroke:#c00;
			stroke-dashoffset:0;
		}
		to {
			stroke:#000;
		}
	}
	#z23567 path[clip-path] {
		animation:z23567k 1s linear both;
		stroke-dasharray:3000;
		stroke-width:128;
		stroke-linecap:round;
		fill:none;
	}
	#z23567 path[clip-path="url(#z23567c1)"] {animation-delay:1s;}
	#z23567 path[clip-path="url(#z23567c2)"] {animation-delay:2s;}
	#z23567 path[clip-path="url(#z23567c3)"] {animation-delay:3s;}
	#z23567 path {fill:#ccc;}
]]>
</style>
<g transform="scale(1,-1) translate(0,-900)">
	<path id="z23567d1" d="M499 695Q503 661 501 132Q500 110 488 101Q478 92 448 100Q414 107 383 113Q347 123 351 112Q352 105 375 91Q456 42 479 10Q504 -26 523 -25Q538 -26 552 11Q568 57 564 133Q531 583 572 723Q590 754 532 778Q498 797 477 789Q459 782 475 759Q497 731 499 695Z"/>
	<path id="z23567d2" d="M266 475Q223 408 170 349Q160 339 155 320Q148 292 154 273Q158 251 185 261Q213 274 237 308Q273 357 284 404Q297 441 293 470Q289 480 283 484Q273 484 266 475Z"/>
	<path id="z23567d3" d="M706 472Q769 411 842 323Q860 299 878 293Q888 292 897 303Q913 318 900 370Q887 431 709 508Q699 515 696 500Q695 484 706 472Z"/>
	<defs>
		<clipPath id="z23567c1"><use xlink:href="#z23567d1"/></clipPath>
		<clipPath id="z23567c2"><use xlink:href="#z23567d2"/></clipPath>
		<clipPath id="z23567c3"><use xlink:href="#z23567d3"/></clipPath>
	</defs>
	<path pathLength="2999" clip-path="url(#z23567c1)" d="M475 780L535 730L529 93L497 27L357 111"/>
	<path pathLength="2999" clip-path="url(#z23567c2)" d="M281 477L174 261"/>
	<path pathLength="2999" clip-path="url(#z23567c3)" d="M703 502L846 382L895 303"/>
</g>
</svg>