<!--
AnimCJK 2016-2017 Copyright Francois Mizessyn, http://gooo.free.fr/animCJK/
Derived from:
    MakeMeAHanzi project - https://github.com/skishore/makemeahanzi
    Arphic PL KaitiM GB - https://apps.ubuntu.com/cat/applications/precise/fonts-arphic-gkai00mp/
    Arphic PL UKai - https://apps.ubuntu.com/cat/applications/fonts-arphic-ukai/
You can redistribute and/or modify this file under the terms of the Arphic Public License
as published by Arphic Technology Co., Ltd.
You should have received a copy of this license (the directory "APL") along with this file;
if not, see http://ftp.gnu.org/non-gnu/chinese-fonts-truetype/LICENSE.
-->
<svg id="z23615" class="acjk" version="1.1" viewBox="0 0 1024 1024" xmlns="http://www.w3.org/2000/svg" xmlns:xlink="http://www.w3.org/1999/xlink">
<style>
<![CDATA[
	@keyframes z23615k {
		from {
			stroke:#c00;
			stroke-dashoffset:3000;
		}
		75% {
			stroke:#c00;
			stroke-dashoffset:0;
		}
		to {
			stroke:#000;
		}
	}
	#z23615 path[clip-path] {
		animation:z23615k 1s linear both;
		stroke-dasharray:3000;
		stroke-width:128;
		stroke-linecap:round;
		fill:none;
	}
	#z23615 path[clip-path="url(#z23615c1)"] {animation-delay:1s;}
	#z23615 path[clip-path="url(#z23615c2)"] {animation-delay:2s;}
	#z23615 path[clip-path="url(#z23615c3)"] {animation-delay:3s;}
	#z23615 path[clip-path="url(#z23615c4)"] {animation-delay:4s;}
	#z23615 path[clip-path="url(#z23615c5)"] {animation-delay:5s;}
	#z23615 path[clip-path="url(#z23615c6)"] {animation-delay:6s;}
	#z23615 path[clip-path="url(#z23615c7)"] {animation-delay:7s;}
	#z23615 path {fill:#ccc;}
]]>
</style>
<g transform="scale(1,-1) translate(0,-900)">
	<path id="z23615d1" d="M680 662Q710 725 741 743Q760 762 745 781Q729 796 675 825Q657 834 634 826Q537 787 368 766L377 733Q378 733 611 774Q636 778 645 769Q652 762 649 746Q639 704 626 670L680 662Z"/>
	<path id="z23615d2" d="M345 593Q360 583 382 586Q479 608 691 628Q701 629 703 638Q703 645 680 662L626 670Q625 671 622 670Q469 633 350 620L345 593Z"/>
	<path id="z23615d3" d="M295 401Q325 495 345 593L350 620Q368 725 377 733L368 766Q353 781 330 792Q311 805 297 801Q284 794 290 780Q308 750 300 676Q297 664 296 647Q272 464 213 329Q162 218 65 91Q59 85 57 79Q53 67 65 69Q96 75 185 185Q209 218 231 257Q262 312 286 376L295 401Z"/>
	<path id="z23615d4" d="M577 393Q581 472 593 515Q609 543 556 565Q523 583 505 576Q489 570 504 548Q525 523 526 489Q529 467 528 106Q527 90 519 85Q509 76 483 82Q453 86 424 90Q391 99 395 89Q398 82 418 70Q491 27 512 0Q537 -31 553 -31Q566 -31 579 2Q594 45 588 115Q578 235 576 355L577 393Z"/>
	<path id="z23615d5" d="M286 376Q320 360 342 366Q405 385 410 384Q423 381 412 357Q373 263 337 218Q300 169 234 116Q221 106 229 103Q239 102 256 111Q317 139 366 189Q414 235 474 353Q484 372 494 382Q507 392 500 401Q491 411 459 424Q440 434 387 414Q332 405 295 401L286 376Z"/>
	<path id="z23615d6" d="M606 365Q658 392 692 411Q758 456 795 468Q819 477 809 497Q796 516 769 535Q744 553 731 550Q716 550 720 535Q721 501 656 441Q625 411 592 379L606 365Z"/>
	<path id="z23615d7" d="M592 379Q583 388 577 393L576 355Q661 247 756 148Q778 123 820 119Q895 112 973 124Q992 125 995 131Q998 138 982 145Q796 221 768 240Q708 276 606 365L592 379Z"/>
	<defs>
		<clipPath id="z23615c1"><use xlink:href="#z23615d1"/></clipPath>
		<clipPath id="z23615c2"><use xlink:href="#z23615d2"/></clipPath>
		<clipPath id="z23615c3"><use xlink:href="#z23615d3"/></clipPath>
		<clipPath id="z23615c4"><use xlink:href="#z23615d4"/></clipPath>
		<clipPath id="z23615c5"><use xlink:href="#z23615d5"/></clipPath>
		<clipPath id="z23615c6"><use xlink:href="#z23615d6"/></clipPath>
		<clipPath id="z23615c7"><use xlink:href="#z23615d7"/></clipPath>
	</defs>
	<path pathLength="2999" clip-path="url(#z23615c1)" d="M375 764L659 798L698 749L653 671L635 673"/>
	<path pathLength="2999" clip-path="url(#z23615c2)" d="M351 598L619 646L698 637"/>
	<path pathLength="2999" clip-path="url(#z23615c3)" d="M294 793L338 729L269 404L181 220L62 75"/>
	<path pathLength="2999" clip-path="url(#z23615c4)" d="M503 568L559 520L555 66L529 20L404 89"/>
	<path pathLength="2999" clip-path="url(#z23615c5)" d="M292 382L412 404L459 381L365 219L236 111"/>
	<path pathLength="2999" clip-path="url(#z23615c6)" d="M727 542L759 492L598 374"/>
	<path pathLength="2999" clip-path="url(#z23615c7)" d="M579 383L793 175L989 135"/>
</g>
</svg>