<!--
AnimCJK 2016-2018 Copyright Francois Mizessyn - https://github.com/parsimonhi/animCJK
Derived from:
    MakeMeAHanzi project - https://github.com/skishore/makemeahanzi
    Arphic PL KaitiM GB - https://apps.ubuntu.com/cat/applications/precise/fonts-arphic-gkai00mp/
    Arphic PL UKai - https://apps.ubuntu.com/cat/applications/fonts-arphic-ukai/
You can redistribute and/or modify this file under the terms of the Arphic Public License
as published by Arphic Technology Co., Ltd.
You should have received a copy of this license (the directory "APL") along with this file;
if not, see http://ftp.gnu.org/non-gnu/chinese-fonts-truetype/LICENSE.
-->
<svg id="z23610" class="acjk" version="1.1" viewBox="0 0 1024 1024" xmlns="http://www.w3.org/2000/svg" xmlns:xlink="http://www.w3.org/1999/xlink">
<style>
<![CDATA[
@keyframes z23610k {
	from {
		stroke:#ccc;
		stroke-dashoffset:3334;
	}
	1% {
		stroke:#c00;
		stroke-dashoffset:3334;
	}
	75% {
		stroke:#c00;
		stroke-dashoffset:0;
	}
	to {
		stroke:#000;
	}
}
#z23610 path[clip-path] {
	animation:z23610k 1s linear both;
	stroke-dasharray:3334;
	stroke-width:128;
	stroke-linecap:round;
	fill:none;
}
#z23610 path[clip-path="url(#z23610c1)"] {animation-delay:1s;}
#z23610 path[clip-path="url(#z23610c2)"] {animation-delay:2s;}
#z23610 path[clip-path="url(#z23610c3)"] {animation-delay:3s;}
#z23610 path[clip-path="url(#z23610c4)"] {animation-delay:4s;}
#z23610 path {fill:#ccc;}
]]>
</style>
<path id="z23610d1" d="M663 358C687 288 714 247 740 227C754 215 754 198 743 186C731 174 705 159 666 140C652 133 636 133 621 140C558 166 474 188 369 206C356 208 372 243 385 241C393 240 464 224 599 193C615 189 627 190 634 197C641 204 643 217 640 233C630 275 617 314 604 350C597 368 656 376 663 358Z"/>
<path id="z23610d2" d="M406 433C420 429 552 405 674 395C682 394 687 390 688 383C688 378 679 370 663 358C648 346 623 346 604 350C579 356 436 388 368 398C352 401 346 451 361 445C363 445 360 444 363 444C373 454 391 436 406 433Z"/>
<path id="z23610d3" d="M369 206C336 188 314 180 304 182C289 184 288 192 298 209C319 246 319 336 303 478C296 534 277 596 246 665C221 718 175 775 105 835C94 843 88 850 86 855C84 859 87 862 96 862C126 862 169 835 225 779C279 723 311 664 338 567C350 522 354 487 361 445C366 414 366 414 368 398C371 372 374 297 379 274C383 252 383 252 385 241C387 228 380 212 369 206Z"/>
<path id="z23610d4" d="M533 655C626 785 693 851 731 855C801 861 866 863 924 861C954 859 968 855 967 847C966 842 893 818 757 758C653 712 549 589 442 468C429 453 418 441 406 433C394 424 353 434 363 444C363 444 455 545 533 655Z"/>
<defs>
	<clipPath id="z23610c1"><use xlink:href="#z23610d1"/></clipPath>
	<clipPath id="z23610c2"><use xlink:href="#z23610d2"/></clipPath>
	<clipPath id="z23610c3"><use xlink:href="#z23610d3"/></clipPath>
	<clipPath id="z23610c4"><use xlink:href="#z23610d4"/></clipPath>
</defs>
<path pathLength="3333" clip-path="url(#z23610c1)" d="M378 211L619 165L660 174L694 221L623 352"/>
<path pathLength="3333" clip-path="url(#z23610c2)" d="M368 436L434 406L681 378"/>
<path pathLength="3333" clip-path="url(#z23610c3)" d="M299 191L348 247L306 586L224 746L92 854"/>
<path pathLength="3333" clip-path="url(#z23610c4)" d="M371 447L409 461L704 785L959 849"/>
</svg>