<!--
AnimCJK 2016-2025 Copyright FM-SH - https://github.com/parsimonhi/animCJK
Derived from:
    MakeMeAHanzi project - https://github.com/skishore/makemeahanzi
    Arphic PL KaitiM GB font
    Arphic PL KaitiM Big5 font
You can redistribute and/or modify this file under the terms of the Arphic Public License
as published by Arphic Technology Co., Ltd.
You should have received a copy of this license along with this file.
If not, see https://ftp.gnu.org/non-gnu/chinese-fonts-truetype/LICENSE.
-->
<svg id="z23626" class="acjk" viewBox="0 0 1024 1024" xmlns="http://www.w3.org/2000/svg">
<style>
<![CDATA[
@keyframes zk {
	to {
		stroke-dashoffset:0;
	}
}
svg.acjk path[clip-path] {
	--t:0.8s;
	animation:zk var(--t) linear forwards var(--d);
	stroke-dasharray:3337;
	stroke-dashoffset:3339;
	stroke-width:128;
	stroke-linecap:round;
	fill:none;
	stroke:#000;
}
svg.acjk path[id] {fill:#ccc;}
]]>
</style>
<path id="z23626d1" d="M709 249C727 205 748 180 767 167C781 156 782 140 771 129C760 117 735 104 700 86C687 79 673 80 658 86C578 116 476 138 354 152C343 154 351 188 362 186C384 183 472 167 626 137C651 131 679 139 674 166C668 192 661 218 655 242C651 260 702 266 709 249Z"/>
<path id="z23626d2" d="M335 311C351 327 366 333 382 330C454 313 567 297 722 284C729 283 734 280 735 274C735 268 726 259 709 249C693 240 673 238 655 242C547 266 449 284 360 294C353 296 346 295 337 299C333 300 332 309 335 311Z"/>
<path id="z23626d3" d="M295 485C313 427 325 369 335 311C336 303 336 303 337 299C341 274 345 251 349 230C353 204 358 189 362 186C368 176 362 160 354 152C343 142 329 133 314 124C300 116 289 111 280 115C270 118 266 128 272 138C282 157 290 184 286 222C268 354 250 449 233 507C195 626 122 745 57 832C53 836 50 841 49 845C46 853 48 856 57 855C81 850 125 809 184 727C197 707 210 686 223 664C248 617 269 566 287 510C292 493 292 493 295 485Z"/>
<path id="z23626d4" d="M345 507C329 497 312 489 295 485C286 484 282 502 287 510C317 564 332 653 333 776C333 820 345 852 371 870C389 882 396 851 396 839C395 827 394 817 393 806C378 721 366 574 370 550C373 534 358 517 345 507Z"/>
<path id="z23626d5" d="M521 493C472 501 413 503 345 507C328 507 354 553 370 550C422 542 477 534 522 528C555 523 555 523 572 521C606 516 644 509 685 505C707 502 725 504 732 516C748 544 742 614 722 723C719 736 713 769 704 790C700 800 680 804 682 815C684 834 687 858 703 890C718 924 742 895 751 878C773 837 781 788 787 732C790 697 796 659 802 619C806 584 816 555 834 534C846 519 849 507 840 498C824 481 798 467 766 451C752 444 734 443 710 451C667 464 622 475 574 484C539 490 539 490 521 493Z"/>
<path id="z23626d6" d="M574 484C575 451 580 413 593 367C595 359 589 348 575 340C551 325 529 319 513 317C502 315 494 317 488 323C483 327 482 335 489 346C506 373 516 394 517 412C517 438 520 464 521 493C522 516 522 516 522 528C523 563 522 601 522 640C522 665 522 665 522 677C522 713 520 751 518 791C518 806 562 799 562 784C564 745 565 706 567 669C568 643 568 643 569 630C570 593 570 556 572 521C573 496 573 496 574 484Z"/>
<path id="z23626d7" d="M567 669C575 667 610 661 672 656C678 655 685 654 689 646C691 639 684 631 671 627C632 613 617 619 569 630C538 637 538 637 522 640C487 647 451 647 420 652C403 654 401 659 414 669C433 683 452 688 469 685C484 682 502 680 522 677C552 672 552 672 567 669Z"/>
<path id="z23626d8" d="M396 839C414 840 424 834 682 815C693 815 712 798 704 790C675 762 662 768 562 784C533 789 533 789 518 791C473 798 431 802 393 806C382 808 385 839 396 839Z"/>
<defs>
	<clipPath id="z23626c1"><use href="#z23626d1"/></clipPath>
	<clipPath id="z23626c2"><use href="#z23626d2"/></clipPath>
	<clipPath id="z23626c3"><use href="#z23626d3"/></clipPath>
	<clipPath id="z23626c4"><use href="#z23626d4"/></clipPath>
	<clipPath id="z23626c5"><use href="#z23626d5"/></clipPath>
	<clipPath id="z23626c6"><use href="#z23626d6"/></clipPath>
	<clipPath id="z23626c7"><use href="#z23626d7"/></clipPath>
	<clipPath id="z23626c8"><use href="#z23626d8"/></clipPath>
</defs>
<path style="--d:1s;" pathLength="3333" clip-path="url(#z23626c1)" d="M354 163L674 110L725 158L675 256"/>
<path style="--d:2s;" pathLength="3333" clip-path="url(#z23626c2)" d="M339 304L730 272"/>
<path style="--d:3s;" pathLength="3333" clip-path="url(#z23626c3)" d="M278 123L325 179L257 518L164 714L56 850"/>
<path style="--d:4s;" pathLength="3333" clip-path="url(#z23626c4)" d="M294 492L338 548L375 867"/>
<path style="--d:5s;" pathLength="3333" clip-path="url(#z23626c5)" d="M349 516L386 527L719 476L784 510L717 899"/>
<path style="--d:6s;" pathLength="3333" clip-path="url(#z23626c6)" d="M491 326L553 380L530 796"/>
<path style="--d:7s;" pathLength="3333" clip-path="url(#z23626c7)" d="M415 659L682 646"/>
<path style="--d:8s;" pathLength="3333" clip-path="url(#z23626c8)" d="M389 822L698 793"/>
</svg>