<!--
AnimCJK 2016-2019 Copyright Francois Mizessyn - https://github.com/parsimonhi/animCJK
Derived from:
    MakeMeAHanzi project - https://github.com/skishore/makemeahanzi
    Arphic PL KaitiM GB font
    Arphic PL UKai font
You can redistribute and/or modify this file under the terms of the Arphic Public License
as published by Arphic Technology Co., Ltd.
You should have received a copy of this license along with this file.
If not, see http://ftp.gnu.org/non-gnu/chinese-fonts-truetype/LICENSE.
-->
<svg id="z23662" class="acjk" version="1.1" viewBox="0 0 1024 1024" xmlns="http://www.w3.org/2000/svg" xmlns:xlink="http://www.w3.org/1999/xlink">
<style>
<![CDATA[
@keyframes zk {
	to {
		stroke-dashoffset:0;
	}
}
svg.acjk path[clip-path] {
	--t:0.8s;
	animation:zk var(--t) linear forwards var(--d);
	stroke-dasharray:3337;
	stroke-dashoffset:3339;
	stroke-width:128;
	stroke-linecap:round;
	fill:none;
	stroke:#000;
}
svg.acjk path[id] {fill:#ccc;}
]]>
</style>
<path id="z23662d1" d="M545 566Q561 562 580 561Q707 545 740 556C755 559 764 510 748 510Q642 513 545 524C504 528 504 528 484 530Q384 540 296 560Q271 564 279 534Q289 471 302 405Q309 377 298 359Q258 308 227 312Q214 316 222 340Q247 412 232 480Q219 546 190 573Q166 592 174 610Q187 629 206 644Q222 654 234 646Q267 612 484 575C525 569 525 569 545 566Z"/>
<path id="z23662d2" d="M740 556Q736 586 767 636Q780 654 791 638Q809 616 809 476Q806 364 818 330Q825 312 811 298Q787 283 748 266Q732 260 719 268Q712 274 716 289Q746 323 748 508C748 509 748 509 748 510C743 541 743 541 740 556Z"/>
<path id="z23662d3" d="M497 196C509 498 480 690 359 817C339 837 300 871 270 892C260 899 237 913 235 917C232 922 241 922 254 922C286 922 363 875 431 817C527 732 565 569 565 328C565 260 573 203 588 156C591 147 589 139 582 133C565 122 542 110 511 99C492 92 475 91 461 96C444 102 443 112 457 126C482 148 495 172 497 196Z"/>
<defs>
	<clipPath id="z23662c1"><use xlink:href="#z23662d1"/></clipPath>
	<clipPath id="z23662c2"><use xlink:href="#z23662d2"/></clipPath>
	<clipPath id="z23662c3"><use xlink:href="#z23662d3"/></clipPath>
</defs>
<path style="--d:1s;" pathLength="3333" clip-path="url(#z23662c1)" d="M226 318L269 385L223 585L252 604L432 560L745 523"/>
<path style="--d:2s;" pathLength="3333" clip-path="url(#z23662c2)" d="M721 273L777 327L778 641"/>
<path style="--d:3s;" pathLength="3333" clip-path="url(#z23662c3)" d="M456 108L544 164L506 589L419 800L245 918"/>
</svg>