<!--
AnimCJK 2016-2019 Copyright Francois Mizessyn - https://github.com/parsimonhi/animCJK
Derived from:
    MakeMeAHanzi project - https://github.com/skishore/makemeahanzi
    Arphic PL KaitiM GB font
    Arphic PL UKai font
You can redistribute and/or modify this file under the terms of the Arphic Public License
as published by Arphic Technology Co., Ltd.
You should have received a copy of this license along with this file.
If not, see http://ftp.gnu.org/non-gnu/chinese-fonts-truetype/LICENSE.
-->
<svg id="z23776" class="acjk" version="1.1" viewBox="0 0 1024 1024" xmlns="http://www.w3.org/2000/svg" xmlns:xlink="http://www.w3.org/1999/xlink">
<style>
<![CDATA[
@keyframes zk {
	to {
		stroke-dashoffset:0;
	}
}
svg.acjk path[clip-path] {
	--t:0.8s;
	animation:zk var(--t) linear forwards var(--d);
	stroke-dasharray:3337;
	stroke-dashoffset:3339;
	stroke-width:128;
	stroke-linecap:round;
	fill:none;
	stroke:#000;
}
svg.acjk path[id] {fill:#ccc;}
]]>
</style>
<path id="z23776d1" d="M276 549C288 333 296 223 297 221C303 192 305 175 302 170C299 165 295 162 290 159C267 146 248 139 232 137C221 135 213 136 208 142C203 146 202 154 209 164C224 187 232 206 233 222C238 326 240 440 236 564C236 578 276 563 276 549Z"/>
<path id="z23776d2" d="M236 564C205 575 178 587 154 600C145 604 142 598 143 588C146 557 147 525 151 492C152 475 151 463 144 454C133 441 119 432 103 424C94 420 87 418 81 421C74 423 73 431 79 445C95 481 100 516 97 553C93 587 85 612 72 628C61 640 57 652 65 661C72 670 83 678 96 684C105 688 114 687 120 680C134 658 190 626 290 584C314 573 333 566 348 564C363 561 374 518 359 521C329 529 301 539 276 549C249 559 249 559 236 564Z"/>
<path id="z23776d3" d="M348 564C345 573 355 597 361 609C365 617 371 619 379 613C393 601 402 570 404 521C405 491 410 466 419 445C420 440 422 436 425 432C433 419 420 402 387 382C384 380 381 379 380 378C373 374 366 373 359 377C354 379 352 385 355 392C368 423 373 466 359 521C352 550 352 550 348 564Z"/>
<path id="z23776d4" d="M647 376C645 285 644 199 644 119C644 85 634 61 619 46C614 42 618 36 623 34C631 28 639 26 648 28C667 30 686 39 710 51C719 55 715 65 710 75C697 96 696 121 696 181C696 202 696 202 696 212C696 233 695 316 693 370C693 385 647 391 647 376Z"/>
<path id="z23776d5" d="M696 212C715 216 746 214 790 204C824 196 843 190 846 186C849 181 849 176 847 170C843 162 835 156 821 152C807 148 793 149 780 157C767 163 753 168 739 172C724 176 711 179 696 181C686 183 686 210 696 212Z"/>
<path id="z23776d6" d="M754 405C813 399 868 398 921 408C932 410 938 407 941 402C944 393 942 385 937 379C922 361 905 346 885 334C878 329 869 332 857 336C815 348 767 360 693 370C662 374 662 374 647 376C582 384 495 399 454 399C447 399 444 402 445 410C445 417 448 426 458 435C476 453 496 459 516 452C538 443 574 434 624 424C670 413 720 408 754 405Z"/>
<path id="z23776d7" d="M683 543C752 535 850 531 879 534C916 537 936 537 939 536C939 535 939 534 940 534C943 526 941 518 936 511C905 472 877 463 850 472C807 485 746 493 668 504C546 521 476 530 459 530C456 530 453 529 451 529C445 529 442 532 442 539C441 546 445 554 454 564C461 571 472 578 486 586C490 588 496 587 504 583C510 579 596 552 646 547C671 544 671 544 683 543Z"/>
<path id="z23776d8" d="M670 963C667 963 663 961 661 959C653 953 650 945 648 939C641 918 644 886 650 794C658 649 656 567 646 547C641 535 671 538 683 543C695 547 704 556 702 562C700 566 700 593 700 640C700 653 700 653 700 660C700 735 699 851 703 892C704 915 699 934 682 957C678 961 674 963 670 963Z"/>
<path id="z23776d9" d="M700 660C730 680 759 704 796 734C804 741 811 745 818 745C822 745 825 742 829 736C833 728 832 715 824 695C812 666 773 649 700 640C693 639 695 656 700 660Z"/>
<defs>
	<clipPath id="z23776c1"><use xlink:href="#z23776d1"/></clipPath>
	<clipPath id="z23776c2"><use xlink:href="#z23776d2"/></clipPath>
	<clipPath id="z23776c3"><use xlink:href="#z23776d3"/></clipPath>
	<clipPath id="z23776c4"><use xlink:href="#z23776d4"/></clipPath>
	<clipPath id="z23776c5"><use xlink:href="#z23776d5"/></clipPath>
	<clipPath id="z23776c6"><use xlink:href="#z23776d6"/></clipPath>
	<clipPath id="z23776c7"><use xlink:href="#z23776d7"/></clipPath>
	<clipPath id="z23776c8"><use xlink:href="#z23776d8"/></clipPath>
	<clipPath id="z23776c9"><use xlink:href="#z23776d9"/></clipPath>
</defs>
<path style="--d:1s;" pathLength="3333" clip-path="url(#z23776c1)" d="M212 149L267 200L249 559"/>
<path style="--d:2s;" pathLength="3333" clip-path="url(#z23776c2)" d="M84 428L122 476L105 617L125 642L353 527"/>
<path style="--d:3s;" pathLength="3333" clip-path="url(#z23776c3)" d="M362 384L395 421L375 612"/>
<path style="--d:4s;" pathLength="3333" clip-path="url(#z23776c4)" d="M626 41L679 72L661 373"/>
<path style="--d:5s;" pathLength="3333" clip-path="url(#z23776c5)" d="M700 205L844 174"/>
<path style="--d:6s;" pathLength="3333" clip-path="url(#z23776c6)" d="M451 411L508 425L872 366L938 396"/>
<path style="--d:7s;" pathLength="3333" clip-path="url(#z23776c7)" d="M448 541L497 556L867 500L937 519"/>
<path style="--d:8s;" pathLength="3333" clip-path="url(#z23776c8)" d="M653 550L678 574L663 956"/>
<path style="--d:9s;" pathLength="3333" clip-path="url(#z23776c9)" d="M702 647L786 691L823 738"/>
</svg>