<!--
AnimCJK 2016-2019 Copyright Francois Mizessyn - https://github.com/parsimonhi/animCJK
Derived from:
    MakeMeAHanzi project - https://github.com/skishore/makemeahanzi
    Arphic PL KaitiM GB font
    Arphic PL UKai font
You can redistribute and/or modify this file under the terms of the Arphic Public License
as published by Arphic Technology Co., Ltd.
You should have received a copy of this license along with this file.
If not, see http://ftp.gnu.org/non-gnu/chinese-fonts-truetype/LICENSE.
-->
<svg id="z23913" class="acjk" version="1.1" viewBox="0 0 1024 1024" xmlns="http://www.w3.org/2000/svg" xmlns:xlink="http://www.w3.org/1999/xlink">
<style>
<![CDATA[
@keyframes zk {
	to {
		stroke-dashoffset:0;
	}
}
svg.acjk path[clip-path] {
	--t:0.8s;
	animation:zk var(--t) linear forwards var(--d);
	stroke-dasharray:3337;
	stroke-dashoffset:3339;
	stroke-width:128;
	stroke-linecap:round;
	fill:none;
	stroke:#000;
}
svg.acjk path[id] {fill:#ccc;}
]]>
</style>
<path id="z23913d1" d="M530 206Q548 113 558 85Q561 76 545 64Q517 48 498 43Q485 40 478 47Q471 53 478 65Q491 83 495 211C495 223 528 218 530 206Z"/>
<path id="z23913d2" d="M675 190Q597 194 530 206C507 209 507 209 495 211Q429 220 374 235Q356 239 362 218Q371 176 364 161Q351 145 331 133Q321 127 312 129Q303 132 309 149Q321 179 315 207Q311 235 299 247Q283 262 288 274Q297 287 312 297Q321 303 339 292Q381 262 568 231Q644 218 670 222C681 224 686 190 675 190Z"/>
<path id="z23913d3" d="M670 222Q674 247 681 264Q688 279 700 269Q721 250 730 174Q742 147 749 140Q756 127 748 115Q732 100 703 82Q693 75 681 80Q674 83 676 95Q682 101 689 139Q685 170 675 190C669 199 668 211 670 222Z"/>
<path id="z23913d4" d="M496 294Q535 324 548 323Q555 322 558 312Q559 300 550 280Q546 270 526 264Q480 257 472 262Q468 265 471 274Q475 281 496 294Z"/>
<path id="z23913d5" d="M243 375Q224 378 238 393Q251 406 268 411Q287 415 303 411Q477 362 769 361Q770 361 772 361Q791 361 795 353Q799 343 785 329Q737 293 701 302Q551 333 243 375Z"/>
<path id="z23913d6" d="M396 439Q386 435 362 433Q352 432 348 436Q344 442 352 456Q373 487 390 541Q394 557 405 567Q421 585 426 571Q427 564 427 553C424 534 424 534 423 524Q416 481 413 465C411 455 406 443 396 439Z"/>
<path id="z23913d7" d="M605 504Q626 471 644 463Q659 447 646 432Q633 420 589 398Q574 391 556 397Q516 413 479 423Q439 432 396 439C386 441 403 467 413 465Q507 447 545 439Q560 436 565 442Q569 446 569 455Q565 480 558 500C552 515 596 517 605 504Z"/>
<path id="z23913d8" d="M427 553Q433 553 441 552Q496 542 617 534Q626 533 627 526Q627 519 605 504C592 496 574 497 558 500Q483 516 423 524C413 526 417 553 427 553Z"/>
<path id="z23913d9" d="M245 628Q235 618 215 615Q209 612 204 619Q200 625 204 638Q222 669 225 696Q229 759 225 829Q221 851 231 872Q243 891 260 904Q273 913 276 901Q283 897 285 876Q288 860 283 807Q277 714 279 681Q280 674 280 667C280 650 259 638 245 628Z"/>
<path id="z23913d10" d="M280 667Q292 668 304 664Q460 610 731 606Q749 609 757 621Q764 630 758 644Q752 819 739 844Q735 853 723 850Q699 846 673 842Q643 838 663 858Q723 913 746 951Q758 966 771 955Q787 939 797 913Q809 885 817 731Q818 673 837 646Q853 625 847 617Q840 604 789 568Q770 552 754 559Q724 569 670 576Q448 592 365 610Q302 622 254 626Q250 626 245 628C229 634 263 667 280 667Z"/>
<path id="z23913d11" d="M389 688Q388 688 386 688Q376 687 372 691Q368 695 375 710Q396 746 411 805Q414 823 425 834Q441 853 446 839Q449 830 448 817C446 797 446 797 445 787Q436 732 436 718C436 699 408 688 389 688Z"/>
<path id="z23913d12" d="M593 775Q611 732 627 721Q649 697 629 683Q610 671 586 653Q568 643 550 652Q495 688 389 688C370 688 418 721 436 718C495 706 495 706 524 700Q549 696 555 706Q556 707 544 767C541 783 587 790 593 775Z"/>
<path id="z23913d13" d="M448 817Q458 818 468 816Q510 809 600 804Q610 803 611 795Q611 788 593 775C580 765 561 767 544 767Q543 766 540 767Q488 779 445 787C435 789 438 817 448 817Z"/>
<defs>
	<clipPath id="z23913c1"><use xlink:href="#z23913d1"/></clipPath>
	<clipPath id="z23913c2"><use xlink:href="#z23913d2"/></clipPath>
	<clipPath id="z23913c3"><use xlink:href="#z23913d3"/></clipPath>
	<clipPath id="z23913c4"><use xlink:href="#z23913d4"/></clipPath>
	<clipPath id="z23913c5"><use xlink:href="#z23913d5"/></clipPath>
	<clipPath id="z23913c6"><use xlink:href="#z23913d6"/></clipPath>
	<clipPath id="z23913c7"><use xlink:href="#z23913d7"/></clipPath>
	<clipPath id="z23913c8"><use xlink:href="#z23913d8"/></clipPath>
	<clipPath id="z23913c9"><use xlink:href="#z23913d9"/></clipPath>
	<clipPath id="z23913c10"><use xlink:href="#z23913d10"/></clipPath>
	<clipPath id="z23913c11"><use xlink:href="#z23913d11"/></clipPath>
	<clipPath id="z23913c12"><use xlink:href="#z23913d12"/></clipPath>
	<clipPath id="z23913c13"><use xlink:href="#z23913d13"/></clipPath>
</defs>
<path style="--d:1s;" pathLength="3333" clip-path="url(#z23913c1)" d="M483 52L522 90L512 208"/>
<path style="--d:2s;" pathLength="3333" clip-path="url(#z23913c2)" d="M316 133L341 172L337 265L670 210"/>
<path style="--d:3s;" pathLength="3333" clip-path="url(#z23913c3)" d="M686 89L719 128L691 267"/>
<path style="--d:4s;" pathLength="3333" clip-path="url(#z23913c4)" d="M478 268L551 314"/>
<path style="--d:5s;" pathLength="3333" clip-path="url(#z23913c5)" d="M243 388L689 333L792 341"/>
<path style="--d:6s;" pathLength="3333" clip-path="url(#z23913c6)" d="M355 442L390 475L418 570"/>
<path style="--d:7s;" pathLength="3333" clip-path="url(#z23913c7)" d="M405 441L569 417L610 451L574 500"/>
<path style="--d:8s;" pathLength="3333" clip-path="url(#z23913c8)" d="M431 528L620 521"/>
<path style="--d:9s;" pathLength="3333" clip-path="url(#z23913c9)" d="M212 619L252 686L259 902"/>
<path style="--d:10s;" pathLength="3333" clip-path="url(#z23913c10)" d="M253 630L298 643L765 587L804 629L765 882L745 906L666 846"/>
<path style="--d:11s;" pathLength="3333" clip-path="url(#z23913c11)" d="M378 693L412 731L437 838"/>
<path style="--d:12s;" pathLength="3333" clip-path="url(#z23913c12)" d="M401 690L451 700L564 675L596 707L562 769"/>
<path style="--d:13s;" pathLength="3333" clip-path="url(#z23913c13)" d="M453 810L532 788L604 796"/>
</svg>