<!--
AnimCJK 2016-2026 Copyright FM-SH - https://github.com/parsimonhi/animCJK
Derived from:
    MakeMeAHanzi project - https://github.com/skishore/makemeahanzi
    Arphic PL KaitiM GB font
    Arphic PL KaitiM Big5 font
You can redistribute and/or modify this file under the terms of the Arphic Public License
as published by Arphic Technology Co., Ltd.
You should have received a copy of this license along with this file.
If not, see https://ftp.gnu.org/non-gnu/chinese-fonts-truetype/LICENSE.
-->
<svg id="z23943" class="acjk" viewBox="0 0 1024 1024" xmlns="http://www.w3.org/2000/svg">
<style>
<![CDATA[
@keyframes zk {
	to {
		stroke-dashoffset:0;
	}
}
svg.acjk path[clip-path] {
	--t:0.8s;
	animation:zk var(--t) linear forwards var(--d);
	stroke-dasharray:3337;
	stroke-dashoffset:3339;
	stroke-width:128;
	stroke-linecap:round;
	fill:none;
	stroke:#000;
}
svg.acjk path[id] {fill:#ccc;}
]]>
</style>
<path id="z23943d1" d="M257 551Q270 287 286 220Q289 210 270 195Q236 177 212 173Q196 170 188 178Q181 185 189 200Q211 231 212 253Q221 397 216 563C216 577 257 565 257 551Z"/>
<path id="z23943d2" d="M355 526Q301 536 257 551C230 559 230 559 216 563Q176 575 142 589Q126 593 130 575Q134 535 137 494Q141 470 131 457Q95 421 71 425Q61 429 69 448Q91 496 85 545Q81 591 62 612Q46 631 54 643Q66 658 83 666Q96 673 106 664Q130 631 279 582Q328 564 349 565C362 565 368 523 355 526Z"/>
<path id="z23943d3" d="M349 565Q337 598 364 634Q373 644 382 634Q397 612 404 543Q404 467 417 414Q424 393 406 382Q391 372 376 363Q364 359 356 363Q347 369 351 383Q370 428 355 526C351 552 351 552 349 565Z"/>
<path id="z23943d4" d="M525 208Q531 208 861 153Q883 146 890 142Q897 135 894 127Q888 115 862 108Q841 102 740 130Q602 160 495 171C479 174 509 211 525 208Z"/>
<path id="z23943d5" d="M635 298Q626 294 595 289Q585 286 582 291Q578 297 585 309Q607 348 622 411Q626 430 638 443Q654 461 657 447Q658 440 660 430C662 420 658 411 656 401Q646 346 643 324C641 315 643 301 635 298Z"/>
<path id="z23943d6" d="M803 378Q819 330 837 316Q858 292 837 279Q818 269 794 252Q773 240 733 267Q687 285 635 298C626 300 635 327 643 324Q653 318 735 299Q760 292 767 303Q771 307 765 331Q761 353 753 377C747 392 797 393 803 378Z"/>
<path id="z23943d7" d="M660 430Q666 430 673 429Q718 419 815 407Q824 406 824 398Q824 391 803 378C789 369 769 374 753 377Q698 392 656 401C646 403 650 430 660 430Z"/>
<path id="z23943d8" d="M577 555Q568 549 542 544Q533 541 530 545Q526 549 531 562Q552 605 562 679Q563 701 576 715Q589 731 593 720Q596 710 596 693C593 673 593 673 592 663Q583 600 581 578C580 571 583 560 577 556C577 555 577 555 577 555Z"/>
<path id="z23943d9" d="M684 650Q697 592 715 573Q731 554 714 544Q699 537 680 524Q670 518 629 538Q604 547 577 556C570 558 574 581 581 578Q581 577 583 577Q613 568 638 562Q654 558 659 564Q663 568 647 645C645 657 682 662 684 650Z"/>
<path id="z23943d10" d="M596 693Q602 687 693 673Q700 672 701 664Q701 660 684 650C673 644 659 643 647 645Q641 645 638 647Q613 656 592 663C583 667 587 698 596 693Z"/>
<path id="z23943d11" d="M768 512Q759 508 741 504Q731 501 728 505Q724 509 729 522Q748 565 758 635Q759 656 772 670Q785 688 789 676Q792 667 793 655C792 634 792 634 791 624Q784 554 783 535C783 526 776 515 768 512Z"/>
<path id="z23943d12" d="M904 612Q920 551 940 533Q959 511 939 498Q923 488 898 472Q882 463 865 473Q846 486 819 496Q797 503 768 512C760 515 774 538 783 535Q801 529 850 518Q869 514 873 521Q879 527 872 554Q866 578 859 605C856 620 901 627 904 612Z"/>
<path id="z23943d13" d="M793 655Q802 656 812 654Q843 647 914 641Q924 640 924 631Q924 624 904 612C892 603 874 602 859 605Q855 605 852 607Q818 617 791 624C781 626 783 655 793 655Z"/>
<path id="z23943d14" d="M495 171Q485 165 474 160Q452 147 442 156Q435 163 443 180Q462 217 465 285Q474 528 454 754Q451 796 426 835Q416 851 426 874Q435 896 446 906Q456 913 475 901Q535 858 626 839Q729 817 933 814Q958 814 960 801Q959 785 928 764Q912 751 876 759Q782 777 705 787Q629 793 537 813Q522 817 516 812Q509 811 508 792Q515 578 517 306Q520 258 525 208C528 192 508 181 495 171Z"/>
<defs>
	<clipPath id="z23943c1"><use href="#z23943d1"/></clipPath>
	<clipPath id="z23943c2"><use href="#z23943d2"/></clipPath>
	<clipPath id="z23943c3"><use href="#z23943d3"/></clipPath>
	<clipPath id="z23943c4"><use href="#z23943d4"/></clipPath>
	<clipPath id="z23943c5"><use href="#z23943d5"/></clipPath>
	<clipPath id="z23943c6"><use href="#z23943d6"/></clipPath>
	<clipPath id="z23943c7"><use href="#z23943d7"/></clipPath>
	<clipPath id="z23943c8"><use href="#z23943d8"/></clipPath>
	<clipPath id="z23943c9"><use href="#z23943d9"/></clipPath>
	<clipPath id="z23943c10"><use href="#z23943d10"/></clipPath>
	<clipPath id="z23943c11"><use href="#z23943d11"/></clipPath>
	<clipPath id="z23943c12"><use href="#z23943d12"/></clipPath>
	<clipPath id="z23943c13"><use href="#z23943d13"/></clipPath>
	<clipPath id="z23943c14"><use href="#z23943d14"/></clipPath>
</defs>
<path style="--d:1s;" pathLength="3333" clip-path="url(#z23943c1)" d="M190 181L247 228L233 566"/>
<path style="--d:2s;" pathLength="3333" clip-path="url(#z23943c2)" d="M73 432L108 476L91 612L107 626L357 534"/>
<path style="--d:3s;" pathLength="3333" clip-path="url(#z23943c3)" d="M360 366L389 411L373 634"/>
<path style="--d:4s;" pathLength="3333" clip-path="url(#z23943c4)" d="M498 176L546 185L890 131"/>
<path style="--d:5s;" pathLength="3333" clip-path="url(#z23943c5)" d="M589 297L619 319L651 445"/>
<path style="--d:6s;" pathLength="3333" clip-path="url(#z23943c6)" d="M634 308L779 276L807 303L771 386"/>
<path style="--d:7s;" pathLength="3333" clip-path="url(#z23943c7)" d="M653 413L818 398"/>
<path style="--d:8s;" pathLength="3333" clip-path="url(#z23943c8)" d="M535 549L560 575L586 717"/>
<path style="--d:9s;" pathLength="3333" clip-path="url(#z23943c9)" d="M576 566L661 542L687 557L662 654"/>
<path style="--d:10s;" pathLength="3333" clip-path="url(#z23943c10)" d="M590 681L693 662"/>
<path style="--d:11s;" pathLength="3333" clip-path="url(#z23943c11)" d="M733 509L759 535L779 673"/>
<path style="--d:12s;" pathLength="3333" clip-path="url(#z23943c12)" d="M770 518L897 503L912 521L876 617"/>
<path style="--d:13s;" pathLength="3333" clip-path="url(#z23943c13)" d="M788 642L917 627"/>
<path style="--d:14s;" pathLength="3333" clip-path="url(#z23943c14)" d="M446 164L491 210L476 859L679 809L895 785L956 797"/>
</svg>