<!--
AnimCJK 2016-2026 Copyright FM-SH - https://github.com/parsimonhi/animCJK
Derived from:
    MakeMeAHanzi project - https://github.com/skishore/makemeahanzi
    Arphic PL KaitiM GB font
    Arphic PL KaitiM Big5 font
You can redistribute and/or modify this file under the terms of the Arphic Public License
as published by Arphic Technology Co., Ltd.
You should have received a copy of this license along with this file.
If not, see https://ftp.gnu.org/non-gnu/chinese-fonts-truetype/LICENSE.
-->
<svg id="z23997" class="acjk" viewBox="0 0 1024 1024" xmlns="http://www.w3.org/2000/svg">
<style>
<![CDATA[
@keyframes zk {
	to {
		stroke-dashoffset:0;
	}
}
svg.acjk path[clip-path] {
	--t:0.8s;
	animation:zk var(--t) linear forwards var(--d);
	stroke-dasharray:3337;
	stroke-dashoffset:3339;
	stroke-width:128;
	stroke-linecap:round;
	fill:none;
	stroke:#000;
}
svg.acjk path[id] {fill:#ccc;}
]]>
</style>
<path id="z23997d1" d="M539 232Q549 166 570 88Q574 78 556 63Q523 44 501 39Q485 35 478 43Q471 50 478 64Q496 91 496 239C496 254 536 246 539 232Z"/>
<path id="z23997d2" d="M690 213Q608 219 539 232C510 237 510 237 496 239Q432 249 376 265Q357 269 362 246Q374 180 365 165Q352 149 330 136Q320 130 310 132Q300 136 307 154Q323 191 316 228Q312 264 297 279Q279 295 286 308Q296 321 311 332Q324 339 333 332Q363 296 575 259Q662 243 683 249C695 251 702 213 690 213Z"/>
<path id="z23997d3" d="M683 249Q684 271 690 289Q694 307 709 297Q737 276 755 197Q774 157 783 150Q793 137 785 122Q769 103 742 80Q732 71 718 75Q711 76 710 90Q719 103 715 154Q705 191 691 212Q690 212 690 213C684 223 683 237 683 249Z"/>
<path id="z23997d4" d="M288 476Q319 442 348 415Q358 406 349 391Q318 357 298 354Q288 354 287 367Q286 401 266 431Q265 431 265 433C246 458 246 458 236 471Q200 513 153 547Q122 566 107 578Q97 590 111 588Q156 591 253 510C276 487 276 487 288 476Z"/>
<path id="z23997d5" d="M274 644Q277 768 252 845Q248 855 243 856Q233 859 203 853Q175 843 169 848Q166 854 175 866Q205 897 223 927Q239 952 250 952Q254 955 268 941Q340 853 315 584Q311 548 303 519Q296 494 288 476C273 447 273 447 265 433Q229 385 185 364Q173 357 168 367Q164 380 169 398Q176 417 193 422Q214 431 236 471C247 497 247 497 253 510Q262 541 266 561C271 616 271 616 274 644Z"/>
<path id="z23997d6" d="M266 561Q265 562 264 565Q210 683 55 806Q43 818 52 819Q61 823 72 818Q165 787 274 644C291 622 278 536 266 561Z"/>
<path id="z23997d7" d="M456 354Q480 393 504 408Q516 412 524 403Q530 394 530 381Q526 348 469 325Q457 321 450 322Q446 322 445 332Q445 341 456 354Z"/>
<path id="z23997d8" d="M363 462Q333 466 354 481Q390 500 433 489Q499 476 567 462Q598 455 603 451Q610 444 606 437Q600 428 577 422Q553 418 529 427Q493 439 455 448Q412 458 363 462Z"/>
<path id="z23997d9" d="M400 542Q375 546 393 558Q424 573 462 562Q490 556 520 549Q533 545 536 544Q542 538 538 532Q534 525 513 520Q501 519 439 535Q421 539 400 542Z"/>
<path id="z23997d10" d="M393 614Q368 618 386 630Q410 645 482 631Q497 628 515 625Q528 621 531 620Q538 614 534 608Q530 601 509 595Q496 592 434 609Q415 612 393 614Z"/>
<path id="z23997d11" d="M383 691Q376 687 358 684Q349 681 346 685Q342 689 347 702Q365 739 376 800Q377 819 388 831Q401 847 405 836Q409 826 408 809C406 793 406 793 405 785Q398 724 397 710C397 702 390 694 383 691Z"/>
<path id="z23997d12" d="M508 772Q524 727 539 717Q557 698 540 687Q527 677 506 663Q493 654 477 662Q459 672 436 679Q414 685 383 691C375 692 389 712 397 710Q400 709 461 698Q477 695 481 702Q485 706 480 723Q476 742 468 768C463 780 503 784 508 772Z"/>
<path id="z23997d13" d="M408 809Q412 809 419 808Q449 801 516 794Q523 793 524 787Q524 781 508 772C497 765 481 765 468 768C467 768 467 768 467 768Q433 778 405 785C397 786 400 809 408 809Z"/>
<path id="z23997d14" d="M691 589Q832 546 837 542Q844 535 840 526Q833 516 805 512Q777 509 751 522Q724 532 696 544C663 555 663 555 646 560Q613 567 581 573Q548 582 574 595Q598 607 640 604C658 604 674 592 691 589Z"/>
<path id="z23997d15" d="M684 628Q687 609 691 589C694 559 694 559 696 544Q700 412 717 362Q721 352 714 344Q665 302 628 313Q610 320 625 336Q650 363 652 391Q653 487 646 560C642 589 642 589 640 604Q639 608 639 614Q618 755 519 849Q459 895 457 898Q453 905 468 904Q501 907 585 839Q646 785 677 665C682 640 682 640 684 628Z"/>
<path id="z23997d16" d="M677 665Q743 804 819 905Q835 930 855 931Q907 925 953 921Q972 920 972 915Q973 909 953 895Q839 823 789 766Q699 651 687 631Q686 630 684 628C676 618 672 653 677 665Z"/>
<path id="z23997d17" d="M796 434Q815 450 838 471Q851 483 866 482Q876 481 881 468Q885 453 875 425Q865 401 789 389Q773 386 768 389Q764 393 765 405Q769 415 796 434Z"/>
<defs>
	<clipPath id="z23997c1"><use href="#z23997d1"/></clipPath>
	<clipPath id="z23997c2"><use href="#z23997d2"/></clipPath>
	<clipPath id="z23997c3"><use href="#z23997d3"/></clipPath>
	<clipPath id="z23997c4"><use href="#z23997d4"/></clipPath>
	<clipPath id="z23997c5"><use href="#z23997d5"/></clipPath>
	<clipPath id="z23997c6"><use href="#z23997d6"/></clipPath>
	<clipPath id="z23997c7"><use href="#z23997d7"/></clipPath>
	<clipPath id="z23997c8"><use href="#z23997d8"/></clipPath>
	<clipPath id="z23997c9"><use href="#z23997d9"/></clipPath>
	<clipPath id="z23997c10"><use href="#z23997d10"/></clipPath>
	<clipPath id="z23997c11"><use href="#z23997d11"/></clipPath>
	<clipPath id="z23997c12"><use href="#z23997d12"/></clipPath>
	<clipPath id="z23997c13"><use href="#z23997d13"/></clipPath>
	<clipPath id="z23997c14"><use href="#z23997d14"/></clipPath>
	<clipPath id="z23997c15"><use href="#z23997d15"/></clipPath>
	<clipPath id="z23997c16"><use href="#z23997d16"/></clipPath>
	<clipPath id="z23997c17"><use href="#z23997d17"/></clipPath>
</defs>
<path style="--d:1s;" pathLength="3333" clip-path="url(#z23997c1)" d="M480 43L530 95L512 245"/>
<path style="--d:2s;" pathLength="3333" clip-path="url(#z23997c2)" d="M313 135L341 176L324 282L341 299L692 222"/>
<path style="--d:3s;" pathLength="3333" clip-path="url(#z23997c3)" d="M718 84L752 136L704 296"/>
<path style="--d:4s;" pathLength="3333" clip-path="url(#z23997c4)" d="M296 361L316 405L273 459L110 581"/>
<path style="--d:5s;" pathLength="3333" clip-path="url(#z23997c5)" d="M175 368L273 499L298 695L283 839L255 898L175 854"/>
<path style="--d:6s;" pathLength="3333" clip-path="url(#z23997c6)" d="M270 568L257 626L208 691L56 814"/>
<path style="--d:7s;" pathLength="3333" clip-path="url(#z23997c7)" d="M451 330L519 402"/>
<path style="--d:8s;" pathLength="3333" clip-path="url(#z23997c8)" d="M352 471L601 444"/>
<path style="--d:9s;" pathLength="3333" clip-path="url(#z23997c9)" d="M397 550L532 535"/>
<path style="--d:10s;" pathLength="3333" clip-path="url(#z23997c10)" d="M387 621L530 611"/>
<path style="--d:11s;" pathLength="3333" clip-path="url(#z23997c11)" d="M352 692L378 721L395 832"/>
<path style="--d:12s;" pathLength="3333" clip-path="url(#z23997c12)" d="M388 695L502 688L515 704L481 777"/>
<path style="--d:13s;" pathLength="3333" clip-path="url(#z23997c13)" d="M405 798L517 786"/>
<path style="--d:14s;" pathLength="3333" clip-path="url(#z23997c14)" d="M569 584L835 537"/>
<path style="--d:15s;" pathLength="3333" clip-path="url(#z23997c15)" d="M624 322L684 366L651 672L589 803L465 896"/>
<path style="--d:16s;" pathLength="3333" clip-path="url(#z23997c16)" d="M681 632L751 758L852 879L965 911"/>
<path style="--d:17s;" pathLength="3333" clip-path="url(#z23997c17)" d="M771 397L842 433L873 476"/>
</svg>