<!--
AnimCJK 2016-2018 Copyright Francois Mizessyn - https://github.com/parsimonhi/animCJK
Derived from:
    MakeMeAHanzi project - https://github.com/skishore/makemeahanzi
    Arphic PL KaitiM GB - https://apps.ubuntu.com/cat/applications/precise/fonts-arphic-gkai00mp/
    Arphic PL UKai - https://apps.ubuntu.com/cat/applications/fonts-arphic-ukai/
You can redistribute and/or modify this file under the terms of the Arphic Public License
as published by Arphic Technology Co., Ltd.
You should have received a copy of this license (the directory "APL") along with this file;
if not, see http://ftp.gnu.org/non-gnu/chinese-fonts-truetype/LICENSE.
-->
<svg id="z24035" class="acjk" version="1.1" viewBox="0 0 1024 1024" xmlns="http://www.w3.org/2000/svg" xmlns:xlink="http://www.w3.org/1999/xlink">
<style>
<![CDATA[
@keyframes z24035k {
	from {
		stroke:#c00;
		stroke-dashoffset:3334;
	}
	75% {
		stroke:#c00;
		stroke-dashoffset:0;
	}
	to {
		stroke:#000;
	}
}
#z24035 path[clip-path] {
	animation:z24035k 1s linear both;
	stroke-dasharray:3334;
	stroke-width:128;
	stroke-linecap:round;
	fill:none;
}
#z24035 path[clip-path="url(#z24035c1)"] {animation-delay:1s;}
#z24035 path[clip-path="url(#z24035c2)"] {animation-delay:2s;}
#z24035 path[clip-path="url(#z24035c3)"] {animation-delay:3s;}
#z24035 path[clip-path="url(#z24035c4)"] {animation-delay:4s;}
#z24035 path[clip-path="url(#z24035c5)"] {animation-delay:5s;}
#z24035 path[clip-path="url(#z24035c6)"] {animation-delay:6s;}
#z24035 path[clip-path="url(#z24035c7)"] {animation-delay:7s;}
#z24035 path[clip-path="url(#z24035c8)"] {animation-delay:8s;}
#z24035 path[clip-path="url(#z24035c9)"] {animation-delay:9s;}
#z24035 path[clip-path="url(#z24035c10)"] {animation-delay:10s;}
#z24035 path[clip-path="url(#z24035c11)"] {animation-delay:11s;}
#z24035 path {fill:#ccc;}
]]>
</style>
<path id="z24035d1" d="M304 232C318 246 334 263 351 282C359 291 369 295 380 296C386 296 392 291 397 283C401 273 399 258 395 238C391 225 381 214 362 205C321 185 293 175 280 181C275 182 274 189 276 198C277 204 287 215 304 232 Z"/>
<path id="z24035d2" d="M437 151C454 166 470 184 487 203C495 212 505 216 516 216C522 216 529 212 533 203C536 193 534 178 530 158C527 145 516 133 496 124C449 103 420 95 412 101C408 103 406 109 408 118C408 124 420 135 437 151 Z"/>
<path id="z24035d3" d="M671 82C668 82 665 82 663 83C653 85 650 93 654 106C656 114 656 125 653 137C633 181 602 239 561 309L589 306C650 229 698 175 732 143C742 137 746 130 742 124C736 114 725 104 710 95C697 86 684 82 671 82 Z"/>
<path id="z24035d4" d="M279 339Q270 338 260 338Q247 337 245 342Q239 349 250 363Q287 421 316 519Q323 549 343 567Q362 586 366 570Q367 563 367 554L364 529Q363 517 358 504Q330 410 321 376L279 339 Z"/>
<path id="z24035d5" d="M647 532C649 538 655 543 664 543C672 543 679 536 686 527C692 518 703 495 717 457C729 422 747 395 773 375C785 364 786 353 776 343C764 331 741 316 708 298C697 291 672 296 632 301C616 302 603 304 589 306L561 309C525 312 464 320 424 327C354 337 305 341 279 339L321 376C325 376 331 376 337 375C369 365 414 356 471 351L510 347C601 337 655 331 673 341C677 343 679 354 676 373C664 439 654 479 648 493C645 497 643 502 643 507 Z"/>
<path id="z24035d6" d="M523 446C547 442 569 438 591 435C605 432 610 426 605 419C598 410 587 404 571 401C558 398 542 400 523 406L477 418C447 425 419 433 395 440C384 442 385 447 398 457C404 461 414 463 427 461C443 458 460 455 478 453 Z"/>
<path id="z24035d7" d="M524 543Q585 536 642 532Q643 531 647 532L643 507Q616 488 524 507L478 513Q418 520 364 529L367 554Q380 555 396 555Q438 551 478 548L524 543 Z"/>
<path id="z24035d8" d="M524 638C572 633 680 630 842 630C854 630 862 627 866 622C870 615 867 606 856 598C822 571 793 562 770 567C708 579 626 593 524 606L477 612C379 624 273 635 160 647C147 648 145 654 155 665C163 674 173 680 185 684C198 688 211 688 221 686C289 668 361 655 438 647L476 643 Z"/>
<path id="z24035d9" d="M524 606L524 543L524 507C524 489 523 463 523 446L523 406C523 387 524 376 526 372C528 365 525 359 520 354C517 351 514 349 510 347L471 351C473 359 477 370 477 384C477 384 476 406 477 418L478 453C478 473 478 493 478 513L478 548C478 568 477 590 477 612L476 643L476 684C476 776 472 847 467 899C464 924 471 949 488 970C495 979 503 977 509 967C525 935 531 904 527 876C524 858 524 790 524 672L524 638 Z"/>
<path id="z24035d10" d="M438 647C404 719 309 795 155 877C142 883 142 888 152 891C158 892 175 889 203 882C237 873 271 860 305 840C333 822 365 798 400 768C427 743 449 720 467 697C470 692 472 688 476 684L476 643 Z"/>
<path id="z24035d11" d="M524 672C646 802 722 874 754 876C819 880 875 870 920 861C932 858 939 856 940 853C940 848 936 844 927 841C794 798 699 759 644 724C621 709 599 694 578 678C556 660 524 638 524 638 Z"/>
<defs>
	<clipPath id="z24035c1"><use xlink:href="#z24035d1"/></clipPath>
	<clipPath id="z24035c2"><use xlink:href="#z24035d2"/></clipPath>
	<clipPath id="z24035c3"><use xlink:href="#z24035d3"/></clipPath>
	<clipPath id="z24035c4"><use xlink:href="#z24035d4"/></clipPath>
	<clipPath id="z24035c5"><use xlink:href="#z24035d5"/></clipPath>
	<clipPath id="z24035c6"><use xlink:href="#z24035d6"/></clipPath>
	<clipPath id="z24035c7"><use xlink:href="#z24035d7"/></clipPath>
	<clipPath id="z24035c8"><use xlink:href="#z24035d8"/></clipPath>
	<clipPath id="z24035c9"><use xlink:href="#z24035d9"/></clipPath>
	<clipPath id="z24035c10"><use xlink:href="#z24035d10"/></clipPath>
	<clipPath id="z24035c11"><use xlink:href="#z24035d11"/></clipPath>
</defs>
<path pathLength="3333" clip-path="url(#z24035c1)" d="M284 185L392 286"/>
<path pathLength="3333" clip-path="url(#z24035c2)" d="M415 106L490 158L522 211"/>
<path pathLength="3333" clip-path="url(#z24035c3)" d="M659 88L697 133L564 311"/>
<path pathLength="3333" clip-path="url(#z24035c4)" d="M251 346L297 392L361 570"/>
<path pathLength="3333" clip-path="url(#z24035c5)" d="M288 342L339 356L689 319L729 369L663 539"/>
<path pathLength="3333" clip-path="url(#z24035c6)" d="M396 444L599 423"/>
<path pathLength="3333" clip-path="url(#z24035c7)" d="M372 534L644 519"/>
<path pathLength="3333" clip-path="url(#z24035c8)" d="M156 654L218 663L773 598L863 614"/>
<path pathLength="3333" clip-path="url(#z24035c9)" d="M480 358L501 386L498 968"/>
<path pathLength="3333" clip-path="url(#z24035c10)" d="M471 651L334 793L152 885"/>
<path pathLength="3333" clip-path="url(#z24035c11)" d="M529 646L737 819L930 853"/>
</svg>