<!--
AnimCJK 2016-2026 Copyright FM-SH, https://github.com/parsimonhi/animCJK
Derived from:
    MakeMeAHanzi project - https://github.com/skishore/makemeahanzi
    Arphic PL KaitiM GB font
    Arphic PL KaitiM Big5 font
You can redistribute and/or modify this file under the terms of the Arphic Public License
as published by Arphic Technology Co., Ltd.
You should have received a copy of this license along with this file.
If not, see https://ftp.gnu.org/non-gnu/chinese-fonts-truetype/LICENSE.
-->
<svg id="z24056" class="acjk" viewBox="0 0 1024 1024" xmlns="http://www.w3.org/2000/svg">
<style>
<![CDATA[
@keyframes zk {
	to {
		stroke-dashoffset:0;
	}
}
svg.acjk path[clip-path] {
	--t:0.8s;
	animation:zk var(--t) linear forwards var(--d);
	stroke-dasharray:3337;
	stroke-dashoffset:3339;
	stroke-width:128;
	stroke-linecap:round;
	fill:none;
	stroke:#000;
}
svg.acjk path[id] {fill:#ccc;}
]]>
</style>
<path id="z24056d1" d="M209 224C181 186 112 169 138 214C170 273 169 496 142 742C139 772 130 796 131 823C131 838 135 853 149 870C169 895 194 858 196 843C197 815 197 815 198 801C204 691 206 486 208 349C208 322 209 270 213 253C215 243 215 232 209 224Z"/>
<path id="z24056d2" d="M391 238C472 218 514 206 516 205C523 199 524 193 521 187C515 179 502 172 483 168C461 164 440 167 419 175C389 184 358 194 326 204C290 211 252 218 212 223C209 223 208 223 209 224C199 226 204 249 213 253C236 263 281 260 351 246C378 241 378 241 391 238Z"/>
<path id="z24056d3" d="M262 379C241 371 241 390 244 401C251 435 257 510 253 562C252 577 255 589 260 602C271 623 279 614 286 598C292 586 294 572 295 562C300 505 301 456 302 429C304 400 275 385 262 379Z"/>
<path id="z24056d4" d="M471 562C485 521 500 490 516 469C530 451 528 427 517 414C511 406 499 392 486 383C473 373 458 372 438 380C410 390 390 388 395 356C397 338 403 292 409 275C416 258 424 252 391 238C378 233 348 233 351 246C361 281 354 350 346 371C334 397 338 399 354 419C367 434 378 431 394 429C436 421 468 424 423 558C417 573 465 577 471 562Z"/>
<path id="z24056d5" d="M387 608C417 601 450 598 484 594C507 591 493 570 471 562C456 556 439 555 423 558C387 566 359 572 330 576C309 579 329 603 350 610C361 614 374 609 387 608Z"/>
<path id="z24056d6" d="M390 772C409 660 426 647 387 608C378 599 350 598 350 610C353 640 350 728 345 780C345 795 387 787 390 772Z"/>
<path id="z24056d7" d="M196 843C272 828 405 811 502 810C543 809 538 785 498 765C480 756 453 760 390 772C360 777 360 777 345 780C312 785 230 797 198 801C184 804 182 846 196 843Z"/>
<path id="z24056d8" d="M808 448C824 392 844 341 861 325C879 307 879 289 862 280C832 262 810 250 796 244C786 240 777 238 767 245C740 264 690 281 618 300C607 302 609 335 620 333C641 330 679 319 740 303C793 288 779 330 773 352C765 374 758 415 751 443C747 462 804 467 808 448Z"/>
<path id="z24056d9" d="M605 510C631 521 619 506 821 482C844 479 836 459 808 448C790 441 770 440 751 443C697 457 648 469 607 479C597 481 595 506 605 510Z"/>
<path id="z24056d10" d="M930 728C920 713 904 667 894 627C888 606 882 591 873 621C857 666 846 713 835 727C822 740 807 745 787 751C740 763 695 763 655 745C595 719 603 563 605 510C606 489 606 489 607 479C608 438 613 380 620 333C622 322 624 309 618 300C609 281 536 246 553 296C563 324 566 350 565 376C552 579 547 738 601 782C649 823 737 837 845 811C870 804 892 794 924 772C936 762 939 744 930 728Z"/>
<defs>
	<clipPath id="z24056c1"><use href="#z24056d1"/></clipPath>
	<clipPath id="z24056c2"><use href="#z24056d2"/></clipPath>
	<clipPath id="z24056c3"><use href="#z24056d3"/></clipPath>
	<clipPath id="z24056c4"><use href="#z24056d4"/></clipPath>
	<clipPath id="z24056c5"><use href="#z24056d5"/></clipPath>
	<clipPath id="z24056c6"><use href="#z24056d6"/></clipPath>
	<clipPath id="z24056c7"><use href="#z24056d7"/></clipPath>
	<clipPath id="z24056c8"><use href="#z24056d8"/></clipPath>
	<clipPath id="z24056c9"><use href="#z24056d9"/></clipPath>
	<clipPath id="z24056c10"><use href="#z24056d10"/></clipPath>
</defs>
<path style="--d:1s;" pathLength="3333" clip-path="url(#z24056c1)" d="M141 196L182 246L167 874"/>
<path style="--d:2s;" pathLength="3333" clip-path="url(#z24056c2)" d="M211 233L516 192"/>
<path style="--d:3s;" pathLength="3333" clip-path="url(#z24056c3)" d="M251 383L274 420L275 609"/>
<path style="--d:4s;" pathLength="3333" clip-path="url(#z24056c4)" d="M356 242L385 274L369 390L456 405L485 443L438 569"/>
<path style="--d:5s;" pathLength="3333" clip-path="url(#z24056c5)" d="M328 586L491 581"/>
<path style="--d:6s;" pathLength="3333" clip-path="url(#z24056c6)" d="M357 612L381 661L357 784"/>
<path style="--d:7s;" pathLength="3333" clip-path="url(#z24056c7)" d="M192 833L525 786"/>
<path style="--d:8s;" pathLength="3333" clip-path="url(#z24056c8)" d="M618 322L773 271L826 303L775 458"/>
<path style="--d:9s;" pathLength="3333" clip-path="url(#z24056c9)" d="M602 499L830 469"/>
<path style="--d:10s;" pathLength="3333" clip-path="url(#z24056c10)" d="M560 279L591 320L581 634L621 759L723 791L855 765L889 732L884 613"/>
</svg>