<!--
AnimCJK 2016-2017 Copyright Francois Mizessyn, http://gooo.free.fr/animCJK/
Derived from:
    MakeMeAHanzi project - https://github.com/skishore/makemeahanzi
    Arphic PL KaitiM GB - https://apps.ubuntu.com/cat/applications/precise/fonts-arphic-gkai00mp/
    Arphic PL UKai - https://apps.ubuntu.com/cat/applications/fonts-arphic-ukai/
You can redistribute and/or modify this file under the terms of the Arphic Public License
as published by Arphic Technology Co., Ltd.
You should have received a copy of this license (the directory "APL") along with this file;
if not, see http://ftp.gnu.org/non-gnu/chinese-fonts-truetype/LICENSE.
-->
<svg id="z24076" class="acjk" version="1.1" viewBox="0 0 1024 1024" xmlns="http://www.w3.org/2000/svg" xmlns:xlink="http://www.w3.org/1999/xlink">
<style>
<![CDATA[
	@keyframes z24076k {
		from {
			stroke:#c00;
			stroke-dashoffset:3000;
		}
		75% {
			stroke:#c00;
			stroke-dashoffset:0;
		}
		to {
			stroke:#000;
		}
	}
	#z24076 path[clip-path] {
		animation:z24076k 1s linear both;
		stroke-dasharray:3000;
		stroke-width:128;
		stroke-linecap:round;
		fill:none;
	}
	#z24076 path[clip-path="url(#z24076c1)"] {animation-delay:1s;}
	#z24076 path[clip-path="url(#z24076c2)"] {animation-delay:2s;}
	#z24076 path[clip-path="url(#z24076c3)"] {animation-delay:3s;}
	#z24076 path[clip-path="url(#z24076c4)"] {animation-delay:4s;}
	#z24076 path[clip-path="url(#z24076c5)"] {animation-delay:5s;}
	#z24076 path[clip-path="url(#z24076c6)"] {animation-delay:6s;}
	#z24076 path[clip-path="url(#z24076c7)"] {animation-delay:7s;}
	#z24076 path {fill:#ccc;}
]]>
</style>
<g transform="scale(1,-1) translate(0,-900)">
	<path id="z24076d1" d="M564 738Q628 804 630 807Q630 817 620 831Q595 865 561 866Q552 865 552 853Q555 822 504 758L474 723Q431 678 315 603Q306 599 316 595Q367 589 490 673Q491 679 522 699L564 738Z"/>
	<path id="z24076d2" d="M522 699Q582 669 648 631Q664 619 678 620Q685 621 688 630Q695 643 674 674Q656 705 564 738L504 758Q405 791 350 803Q341 804 343 795Q346 785 356 779Q411 755 474 723L522 699Z"/>
	<path id="z24076d3" d="M343 369Q389 424 425 477Q432 489 439 498L463 534Q481 561 493 575Q502 588 499 597Q495 609 468 614Q440 621 428 617Q421 616 420 602Q416 571 392 525L372 489Q302 372 104 189Q85 173 111 178Q192 197 302 323Q306 329 312 334L343 369Z"/>
	<path id="z24076d4" d="M439 498Q577 519 881 520Q902 520 907 529Q913 542 895 557Q841 599 784 587Q673 565 491 538Q478 537 463 534L392 525Q260 512 113 492Q91 489 108 471Q123 456 142 450Q164 444 182 449Q270 474 372 489L439 498Z"/>
	<path id="z24076d5" d="M352 365Q348 368 343 369L312 334Q333 267 307 182Q289 140 324 104Q331 91 340 97Q367 116 367 219Q367 303 370 327L352 365Z"/>
	<path id="z24076d6" d="M559 370Q686 388 703 370Q710 363 707 349Q710 201 700 179Q696 169 685 172Q652 176 617 183Q593 184 611 169Q681 126 711 91Q721 79 731 89Q758 117 759 262Q759 331 772 351Q785 370 779 377Q772 389 726 418Q710 431 695 425Q670 415 621 406Q588 403 561 399L498 391Q440 385 410 377Q377 370 352 365L370 327Q400 342 498 361L559 370Z"/>
	<path id="z24076d7" d="M498 -41Q502 -66 510 -77Q516 -84 523 -82Q538 -72 545 -13Q554 48 553 111Q552 163 559 366Q559 369 559 370L561 399Q561 400 562 400Q565 419 568 433Q572 451 558 461Q524 483 509 486Q496 492 480 482Q471 475 478 464Q497 425 498 391L498 361Q498 258 495 108Q494 -4 498 -41Z"/>
	<defs>
		<clipPath id="z24076c1"><use xlink:href="#z24076d1"/></clipPath>
		<clipPath id="z24076c2"><use xlink:href="#z24076d2"/></clipPath>
		<clipPath id="z24076c3"><use xlink:href="#z24076d3"/></clipPath>
		<clipPath id="z24076c4"><use xlink:href="#z24076d4"/></clipPath>
		<clipPath id="z24076c5"><use xlink:href="#z24076d5"/></clipPath>
		<clipPath id="z24076c6"><use xlink:href="#z24076d6"/></clipPath>
		<clipPath id="z24076c7"><use xlink:href="#z24076d7"/></clipPath>
	</defs>
	<path pathLength="2999" clip-path="url(#z24076c1)" d="M560 859L587 815L520 734L321 600"/>
	<path pathLength="2999" clip-path="url(#z24076c2)" d="M351 793L614 685L682 626"/>
	<path pathLength="2999" clip-path="url(#z24076c3)" d="M495 595L448 581L370 442L239 288L103 182"/>
	<path pathLength="2999" clip-path="url(#z24076c4)" d="M108 483L177 474L770 552L902 546"/>
	<path pathLength="2999" clip-path="url(#z24076c5)" d="M343 361L336 104"/>
	<path pathLength="2999" clip-path="url(#z24076c6)" d="M360 360L671 399L723 388L744 366L716 135L612 176"/>
	<path pathLength="2999" clip-path="url(#z24076c7)" d="M482 477L531 432L521 -76"/>
</g>
</svg>