<!--
AnimCJK 2016-2018 Copyright Francois Mizessyn, https://github.com/parsimonhi/animCJK
Derived from:
    MakeMeAHanzi project - https://github.com/skishore/makemeahanzi
    Arphic PL KaitiM GB - https://apps.ubuntu.com/cat/applications/precise/fonts-arphic-gkai00mp/
    Arphic PL UKai - https://apps.ubuntu.com/cat/applications/fonts-arphic-ukai/
You can redistribute and/or modify this file under the terms of the Arphic Public License
as published by Arphic Technology Co., Ltd.
You should have received a copy of this license (the directory "APL") along with this file;
if not, see http://ftp.gnu.org/non-gnu/chinese-fonts-truetype/LICENSE.
-->
<svg id="z24076" class="acjk" version="1.1" viewBox="0 0 1024 1024" xmlns="http://www.w3.org/2000/svg" xmlns:xlink="http://www.w3.org/1999/xlink">
<style>
<![CDATA[
@keyframes z24076k {
	from {
		stroke:#c00;
		stroke-dashoffset:3334;
	}
	75% {
		stroke:#c00;
		stroke-dashoffset:0;
	}
	to {
		stroke:#000;
	}
}
#z24076 path[clip-path] {
	animation:z24076k 1s linear both;
	stroke-dasharray:3334;
	stroke-width:128;
	stroke-linecap:round;
	fill:none;
}
#z24076 path[clip-path="url(#z24076c1)"] {animation-delay:1s;}
#z24076 path[clip-path="url(#z24076c2)"] {animation-delay:2s;}
#z24076 path[clip-path="url(#z24076c3)"] {animation-delay:3s;}
#z24076 path[clip-path="url(#z24076c4)"] {animation-delay:4s;}
#z24076 path[clip-path="url(#z24076c5)"] {animation-delay:5s;}
#z24076 path[clip-path="url(#z24076c6)"] {animation-delay:6s;}
#z24076 path[clip-path="url(#z24076c7)"] {animation-delay:7s;}
#z24076 path {fill:#ccc;}
]]>
</style>
<path id="z24076d1" d="M564 162Q628 96 630 93Q630 83 620 69Q595 35 561 34Q552 35 552 47Q555 78 504 142L474 177Q431 222 315 297Q306 301 316 305Q367 311 490 227Q491 221 522 201L564 162 Z"/>
<path id="z24076d2" d="M522 201Q582 231 648 269Q664 281 678 280Q685 279 688 270Q695 257 674 226Q656 195 564 162L504 142Q405 109 350 97Q341 96 343 105Q346 115 356 121Q411 145 474 177L522 201 Z"/>
<path id="z24076d3" d="M343 531Q389 476 425 423Q432 411 439 402L463 366Q481 339 493 325Q502 312 499 303Q495 291 468 286Q440 279 428 283Q421 284 420 298Q416 329 392 375L372 411Q302 528 104 711Q85 727 111 722Q192 703 302 577Q306 571 312 566L343 531 Z"/>
<path id="z24076d4" d="M439 402Q577 381 881 380Q902 380 907 371Q913 358 895 343Q841 301 784 313Q673 335 491 362Q478 363 463 366L392 375Q260 388 113 408Q91 411 108 429Q123 444 142 450Q164 456 182 451Q270 426 372 411L439 402 Z"/>
<path id="z24076d5" d="M352 535Q348 532 343 531L312 566Q333 633 307 718Q289 760 324 796Q331 809 340 803Q367 784 367 681Q367 597 370 573L352 535 Z"/>
<path id="z24076d6" d="M559 530Q686 512 703 530Q710 537 707 551Q710 699 700 721Q696 731 685 728Q652 724 617 717Q593 716 611 731Q681 774 711 809Q721 821 731 811Q758 783 759 638Q759 569 772 549Q785 530 779 523Q772 511 726 482Q710 469 695 475Q670 485 621 494Q588 497 561 501L498 509Q440 515 410 523Q377 530 352 535L370 573Q400 558 498 539L559 530 Z"/>
<path id="z24076d7" d="M498 941Q502 966 510 977Q516 984 523 982Q538 972 545 913Q554 852 553 789Q552 737 559 534Q559 531 559 530L561 501Q561 500 562 500Q565 481 568 467Q572 449 558 439Q524 417 509 414Q496 408 480 418Q471 425 478 436Q497 475 498 509L498 539Q498 642 495 792Q494 904 498 941 Z"/>
<defs>
	<clipPath id="z24076c1"><use xlink:href="#z24076d1"/></clipPath>
	<clipPath id="z24076c2"><use xlink:href="#z24076d2"/></clipPath>
	<clipPath id="z24076c3"><use xlink:href="#z24076d3"/></clipPath>
	<clipPath id="z24076c4"><use xlink:href="#z24076d4"/></clipPath>
	<clipPath id="z24076c5"><use xlink:href="#z24076d5"/></clipPath>
	<clipPath id="z24076c6"><use xlink:href="#z24076d6"/></clipPath>
	<clipPath id="z24076c7"><use xlink:href="#z24076d7"/></clipPath>
</defs>
<path pathLength="3333" clip-path="url(#z24076c1)" d="M560 41L587 85L520 166L321 300"/>
<path pathLength="3333" clip-path="url(#z24076c2)" d="M351 107L614 215L682 274"/>
<path pathLength="3333" clip-path="url(#z24076c3)" d="M495 305L448 319L370 458L239 612L103 718"/>
<path pathLength="3333" clip-path="url(#z24076c4)" d="M108 417L177 426L770 348L902 354"/>
<path pathLength="3333" clip-path="url(#z24076c5)" d="M343 539L336 796"/>
<path pathLength="3333" clip-path="url(#z24076c6)" d="M360 540L671 501L723 512L744 534L716 765L612 724"/>
<path pathLength="3333" clip-path="url(#z24076c7)" d="M482 423L531 468L521 976"/>
</svg>