<!--
AnimCJK 2016-2026 Copyright FM-SH - https://github.com/parsimonhi/animCJK
Derived from:
    MakeMeAHanzi project - https://github.com/skishore/makemeahanzi
    Arphic PL KaitiM GB font
    Arphic PL KaitiM Big5 font
You can redistribute and/or modify this file under the terms of the Arphic Public License
as published by Arphic Technology Co., Ltd.
You should have received a copy of this license along with this file.
If not, see https://ftp.gnu.org/non-gnu/chinese-fonts-truetype/LICENSE.
-->
<svg id="z24132" class="acjk" viewBox="0 0 1024 1024" xmlns="http://www.w3.org/2000/svg">
<style>
<![CDATA[
@keyframes zk {
	to {
		stroke-dashoffset:0;
	}
}
svg.acjk path[clip-path] {
	--t:0.8s;
	animation:zk var(--t) linear forwards var(--d);
	stroke-dasharray:3337;
	stroke-dashoffset:3339;
	stroke-width:128;
	stroke-linecap:round;
	fill:none;
	stroke:#000;
}
svg.acjk path[id] {fill:#ccc;}
]]>
</style>
<path id="z24132d1" d="M152 347C142 337 128 326 109 322C94 318 94 329 99 341C118 385 120 445 99 519C93 537 88 551 92 567C96 585 102 598 108 605C114 611 119 611 125 605C137 590 147 542 151 460C152 424 153 398 156 382C158 370 161 354 152 347Z"/>
<path id="z24132d2" d="M270 527C304 545 332 560 353 576C361 582 368 582 374 575C387 556 393 522 394 473C394 409 396 368 400 350C402 338 399 329 394 324C343 273 365 299 274 321C245 328 245 328 231 331C212 335 186 340 152 347C140 349 144 384 156 382C196 372 221 365 231 364C259 359 259 359 273 356C288 353 302 349 319 347C335 345 349 351 350 365C351 434 353 497 340 510C328 521 289 512 270 512C265 512 266 525 270 527Z"/>
<path id="z24132d3" d="M198 811C191 835 193 869 212 910C229 948 242 940 257 908C263 894 267 874 267 850C266 823 270 715 270 527C270 517 270 517 270 512C270 464 271 412 273 356C274 333 274 333 274 321C275 261 278 209 293 170C296 159 302 150 299 142C295 134 273 121 238 99C222 88 179 82 197 117C237 182 230 256 231 331C231 353 231 353 231 364C231 547 223 717 198 811Z"/>
<path id="z24132d4" d="M789 269C805 229 822 204 839 191C850 181 851 168 841 159C794 119 766 113 731 130C689 149 601 168 529 178C519 180 530 205 540 205C550 205 612 192 727 168C751 162 763 171 760 192C755 218 749 243 742 266C736 281 783 284 789 269Z"/>
<path id="z24132d5" d="M523 342C543 340 709 313 801 301C828 297 797 274 789 269C776 261 757 263 742 266C661 286 589 302 525 314C516 316 514 344 523 342Z"/>
<path id="z24132d6" d="M529 178C490 147 439 141 457 172C468 192 477 222 477 264C473 468 435 652 298 878C280 908 299 906 326 878C479 716 514 459 523 342C524 323 524 323 525 314C531 282 525 233 540 205C544 196 537 184 529 178Z"/>
<path id="z24132d7" d="M670 434C762 416 810 408 814 406C834 390 798 375 786 372C767 367 749 370 731 376C706 383 680 389 654 395C624 401 591 404 557 407C534 408 531 416 547 427C564 439 590 448 622 443C654 437 654 437 670 434Z"/>
<path id="z24132d8" d="M668 593C732 574 774 564 797 557C804 555 790 539 783 540C728 548 671 560 612 576C605 577 602 578 600 576C599 575 599 572 603 568C650 514 679 483 691 475C697 469 700 463 697 456C694 449 685 442 670 434C656 426 619 427 622 443C626 465 614 493 589 528C574 546 553 564 525 584C515 590 513 596 515 603C517 612 526 623 540 636C546 642 552 642 561 637C580 622 607 610 640 601C649 598 668 593 668 593Z"/>
<path id="z24132d9" d="M797 557Q827 605 842 607Q851 608 857 599Q864 589 862 563Q859 527 774 482Q762 476 756 478Q752 479 750 490Q750 493 783 540C792 551 792 551 797 557Z"/>
<path id="z24132d10" d="M706 734C784 719 826 708 830 706C850 690 816 677 802 673C787 668 756 677 708 689C673 697 673 697 656 701C619 709 579 713 537 718C514 720 510 728 527 739C566 763 614 750 657 743C690 737 690 737 706 734Z"/>
<path id="z24132d11" d="M702 837C702 800 704 766 706 734C707 704 707 704 708 689C711 618 732 613 668 593C659 590 635 593 640 601C650 611 654 648 656 701C657 729 657 729 657 743C657 769 657 803 659 843C659 857 702 851 702 837Z"/>
<path id="z24132d12" d="M659 843C594 851 524 858 448 867C435 868 432 874 443 885C467 910 497 909 509 906C594 883 735 872 930 874C955 874 965 859 944 842C910 814 872 808 833 816C796 823 752 829 702 837C673 841 673 841 659 843Z"/>
<defs>
	<clipPath id="z24132c1"><use href="#z24132d1"/></clipPath>
	<clipPath id="z24132c2"><use href="#z24132d2"/></clipPath>
	<clipPath id="z24132c3"><use href="#z24132d3"/></clipPath>
	<clipPath id="z24132c4"><use href="#z24132d4"/></clipPath>
	<clipPath id="z24132c5"><use href="#z24132d5"/></clipPath>
	<clipPath id="z24132c6"><use href="#z24132d6"/></clipPath>
	<clipPath id="z24132c7"><use href="#z24132d7"/></clipPath>
	<clipPath id="z24132c8"><use href="#z24132d8"/></clipPath>
	<clipPath id="z24132c9"><use href="#z24132d9"/></clipPath>
	<clipPath id="z24132c10"><use href="#z24132d10"/></clipPath>
	<clipPath id="z24132c11"><use href="#z24132d11"/></clipPath>
	<clipPath id="z24132c12"><use href="#z24132d12"/></clipPath>
</defs>
<path style="--d:1s;" pathLength="3333" clip-path="url(#z24132c1)" d="M102 330L134 375L117 605"/>
<path style="--d:2s;" pathLength="3333" clip-path="url(#z24132c2)" d="M147 368L333 323L371 340L356 541L272 519"/>
<path style="--d:3s;" pathLength="3333" clip-path="url(#z24132c3)" d="M199 95L260 159L238 931"/>
<path style="--d:4s;" pathLength="3333" clip-path="url(#z24132c4)" d="M534 186L772 148L804 176L753 275"/>
<path style="--d:5s;" pathLength="3333" clip-path="url(#z24132c5)" d="M521 332L803 285"/>
<path style="--d:6s;" pathLength="3333" clip-path="url(#z24132c6)" d="M460 159L506 206L473 518L403 727L298 891"/>
<path style="--d:7s;" pathLength="3333" clip-path="url(#z24132c7)" d="M547 417L815 394"/>
<path style="--d:8s;" pathLength="3333" clip-path="url(#z24132c8)" d="M630 435L656 474L559 580L576 608L790 550"/>
<path style="--d:9s;" pathLength="3333" clip-path="url(#z24132c9)" d="M758 486L849 602"/>
<path style="--d:10s;" pathLength="3333" clip-path="url(#z24132c10)" d="M524 729L832 694"/>
<path style="--d:11s;" pathLength="3333" clip-path="url(#z24132c11)" d="M646 599L682 629L681 848"/>
<path style="--d:12s;" pathLength="3333" clip-path="url(#z24132c12)" d="M442 873L951 851"/>
</svg>