<!--
AnimCJK 2016-2017 Copyright Francois Mizessyn, http://gooo.free.fr/animCJK/
Derived from:
    MakeMeAHanzi project - https://github.com/skishore/makemeahanzi
    Arphic PL KaitiM GB - https://apps.ubuntu.com/cat/applications/precise/fonts-arphic-gkai00mp/
    Arphic PL UKai - https://apps.ubuntu.com/cat/applications/fonts-arphic-ukai/
You can redistribute and/or modify this file under the terms of the Arphic Public License
as published by Arphic Technology Co., Ltd.
You should have received a copy of this license (the directory "APL") along with this file;
if not, see http://ftp.gnu.org/non-gnu/chinese-fonts-truetype/LICENSE.
-->
<svg id="z24179" class="acjk" version="1.1" viewBox="0 0 1024 1024" xmlns="http://www.w3.org/2000/svg" xmlns:xlink="http://www.w3.org/1999/xlink">
<style>
<![CDATA[
	@keyframes z24179k {
		from {
			stroke:#c00;
			stroke-dashoffset:3000;
		}
		75% {
			stroke:#c00;
			stroke-dashoffset:0;
		}
		to {
			stroke:#000;
		}
	}
	#z24179 path[clip-path] {
		animation:z24179k 1s linear both;
		stroke-dasharray:3000;
		stroke-width:128;
		stroke-linecap:round;
		fill:none;
	}
	#z24179 path[clip-path="url(#z24179c1)"] {animation-delay:1s;}
	#z24179 path[clip-path="url(#z24179c2)"] {animation-delay:2s;}
	#z24179 path[clip-path="url(#z24179c3)"] {animation-delay:3s;}
	#z24179 path[clip-path="url(#z24179c4)"] {animation-delay:4s;}
	#z24179 path[clip-path="url(#z24179c5)"] {animation-delay:5s;}
	#z24179 path {fill:#ccc;}
]]>
</style>
<g transform="scale(1,-1) translate(0,-900)">
	<path id="z24179d1" d="M510 748Q694 790 699 793Q708 802 703 811Q696 824 664 832Q637 838 533 805Q437 781 347 772Q307 765 335 747Q378 720 441 735Q445 736 452 736L510 748Z"/>
	<path id="z24179d2" d="M284 593Q309 560 336 521Q346 505 362 503Q372 502 381 513Q388 526 386 558Q385 580 355 604Q283 650 268 647Q262 644 261 631Q262 619 284 593Z"/>
	<path id="z24179d3" d="M672 657Q657 627 590 535Q580 517 598 522Q632 544 720 613Q738 631 763 643Q785 656 772 673Q757 691 728 704Q703 717 689 713Q676 710 681 696Q685 677 672 657Z"/>
	<path id="z24179d4" d="M536 402Q638 414 915 413Q937 413 943 422Q950 435 931 452Q862 501 797 482Q694 464 536 440L482 434Q316 415 127 393Q102 392 120 371Q153 338 199 347Q376 395 464 395Q471 396 481 396L536 402Z"/>
	<path id="z24179d5" d="M480 -7Q486 -35 493 -45Q499 -52 507 -50Q523 -41 530 24Q540 118 538 212Q535 263 536 402L536 440Q539 642 551 702Q555 721 539 731Q523 741 510 748L452 736Q453 735 455 733Q482 678 483 643Q484 552 482 434L481 396Q475 42 480 -7Z"/>
	<defs>
		<clipPath id="z24179c1"><use xlink:href="#z24179d1"/></clipPath>
		<clipPath id="z24179c2"><use xlink:href="#z24179d2"/></clipPath>
		<clipPath id="z24179c3"><use xlink:href="#z24179d3"/></clipPath>
		<clipPath id="z24179c4"><use xlink:href="#z24179d4"/></clipPath>
		<clipPath id="z24179c5"><use xlink:href="#z24179d5"/></clipPath>
	</defs>
	<path pathLength="2999" clip-path="url(#z24179c1)" d="M332 760L400 754L700 807"/>
	<path pathLength="2999" clip-path="url(#z24179c2)" d="M270 638L346 566L364 508"/>
	<path pathLength="2999" clip-path="url(#z24179c3)" d="M686 709L723 655L594 527"/>
	<path pathLength="2999" clip-path="url(#z24179c4)" d="M119 387L191 373L819 450L941 432"/>
	<path pathLength="2999" clip-path="url(#z24179c5)" d="M462 735L498 722L514 684L503 -46"/>
</g>
</svg>