<!--
AnimCJK 2016-2019 Copyright Francois Mizessyn - https://github.com/parsimonhi/animCJK
Derived from:
    MakeMeAHanzi project - https://github.com/skishore/makemeahanzi
    Arphic PL KaitiM GB font
    Arphic PL UKai font
You can redistribute and/or modify this file under the terms of the Arphic Public License
as published by Arphic Technology Co., Ltd.
You should have received a copy of this license along with this file.
If not, see http://ftp.gnu.org/non-gnu/chinese-fonts-truetype/LICENSE.
-->
<svg id="z24196" class="acjk" version="1.1" viewBox="0 0 1024 1024" xmlns="http://www.w3.org/2000/svg" xmlns:xlink="http://www.w3.org/1999/xlink">
<style>
<![CDATA[
@keyframes zk {
	to {
		stroke-dashoffset:0;
	}
}
svg.acjk path[clip-path] {
	--t:0.8s;
	animation:zk var(--t) linear forwards var(--d);
	stroke-dasharray:3337;
	stroke-dashoffset:3339;
	stroke-width:128;
	stroke-linecap:round;
	fill:none;
	stroke:#000;
}
svg.acjk path[id] {fill:#ccc;}
]]>
</style>
<path id="z24196d1" d="M502 128Q535 152 571 182Q587 195 604 192Q616 191 620 176Q624 160 612 127Q599 93 492 76Q474 73 468 77Q462 81 465 95Q471 108 502 128Z"/>
<path id="z24196d2" d="M334 316Q379 331 460 319Q763 268 777 257Q787 250 783 240Q776 227 746 219Q716 212 614 243Q470 279 335 287Q334 287 333 288C324 290 325 314 334 316Z"/>
<path id="z24196d3" d="M333 288Q317 272 286 256Q267 244 253 249Q240 256 247 271Q265 301 261 366Q260 375 259 388Q250 550 203 674Q167 764 84 892Q78 899 76 905Q73 917 84 915Q117 909 195 797Q211 770 227 740Q293 595 316 420Q325 345 333 319Q334 318 334 316C337 307 340 294 333 288Z"/>
<path id="z24196d4" d="M597 588Q759 555 766 551Q776 542 771 533Q764 520 732 511Q704 505 599 536C564 545 564 545 546 549Q476 561 392 569Q352 573 380 593Q422 620 485 607Q515 601 547 597C580 591 580 591 597 588Z"/>
<path id="z24196d5" d="M585 795Q592 689 597 588C598 553 598 553 599 536Q603 487 619 422Q623 412 602 396Q566 377 542 373Q526 369 518 378Q511 385 519 401Q543 435 543 460Q544 503 546 549C547 581 547 581 547 597Q547 693 543 799C543 813 585 809 585 795Z"/>
<path id="z24196d6" d="M543 799Q428 811 298 825Q276 826 292 845Q307 860 326 866Q348 873 365 868Q515 831 848 830Q867 830 887 831Q909 832 914 823Q921 810 903 795Q846 753 807 760Q725 776 585 795C557 798 557 798 543 799Z"/>
<defs>
	<clipPath id="z24196c1"><use xlink:href="#z24196d1"/></clipPath>
	<clipPath id="z24196c2"><use xlink:href="#z24196d2"/></clipPath>
	<clipPath id="z24196c3"><use xlink:href="#z24196d3"/></clipPath>
	<clipPath id="z24196c4"><use xlink:href="#z24196d4"/></clipPath>
	<clipPath id="z24196c5"><use xlink:href="#z24196d5"/></clipPath>
	<clipPath id="z24196c6"><use xlink:href="#z24196d6"/></clipPath>
</defs>
<path style="--d:1s;" pathLength="3333" clip-path="url(#z24196c1)" d="M472 84L569 133L612 183"/>
<path style="--d:2s;" pathLength="3333" clip-path="url(#z24196c2)" d="M340 293L413 302L780 243"/>
<path style="--d:3s;" pathLength="3333" clip-path="url(#z24196c3)" d="M251 258L297 317L255 591L182 773L81 908"/>
<path style="--d:4s;" pathLength="3333" clip-path="url(#z24196c4)" d="M376 578L463 586L766 532"/>
<path style="--d:5s;" pathLength="3333" clip-path="url(#z24196c5)" d="M522 383L579 431L555 797"/>
<path style="--d:6s;" pathLength="3333" clip-path="url(#z24196c6)" d="M292 832L350 845L818 794L912 819"/>
</svg>