<!--
AnimCJK 2016-2019 Copyright Francois Mizessyn - https://github.com/parsimonhi/animCJK
Derived from:
    MakeMeAHanzi project - https://github.com/skishore/makemeahanzi
    Arphic PL KaitiM GB font
    Arphic PL UKai font
You can redistribute and/or modify this file under the terms of the Arphic Public License
as published by Arphic Technology Co., Ltd.
You should have received a copy of this license along with this file.
If not, see http://ftp.gnu.org/non-gnu/chinese-fonts-truetype/LICENSE.
-->
<svg id="z24218" class="acjk" version="1.1" viewBox="0 0 1024 1024" xmlns="http://www.w3.org/2000/svg" xmlns:xlink="http://www.w3.org/1999/xlink">
<style>
<![CDATA[
@keyframes zk {
	to {
		stroke-dashoffset:0;
	}
}
svg.acjk path[clip-path] {
	--t:0.8s;
	animation:zk var(--t) linear forwards var(--d);
	stroke-dasharray:3337;
	stroke-dashoffset:3339;
	stroke-width:128;
	stroke-linecap:round;
	fill:none;
	stroke:#000;
}
svg.acjk path[id] {fill:#ccc;}
]]>
</style>
<path id="z24218d1" d="M487 96Q511 118 537 145Q553 160 570 159Q583 159 588 143Q594 127 584 93Q572 62 481 42Q463 38 456 41Q450 45 452 60Q456 73 487 96Z"/>
<path id="z24218d2" d="M346 280Q392 289 423 281Q741 218 759 205Q768 198 763 188Q756 176 726 168Q695 162 664 174Q520 225 338 246C327 248 335 278 346 280Z"/>
<path id="z24218d3" d="M295 527Q319 421 334 321Q341 284 346 280C352 270 347 253 338 246Q287 204 265 212Q252 219 258 234Q276 262 272 321Q269 337 268 358Q250 535 198 661Q158 755 65 888Q59 895 57 901Q53 913 65 911Q96 905 177 798Q198 767 219 730Q270 633 293 536C294 530 294 530 295 527Z"/>
<path id="z24218d4" d="M707 569Q716 524 725 497C735 471 735 471 740 458Q753 431 770 417Q786 396 771 378Q752 363 695 339Q676 332 652 341Q604 360 559 372C519 381 519 381 499 386Q441 396 384 403Q368 404 369 415Q372 422 390 429Q415 439 450 428Q474 424 498 419C535 411 535 411 553 407Q592 398 631 391Q655 385 664 395Q677 405 675 432Q672 451 669 472C666 492 666 492 664 502Q657 538 650 571C647 590 703 588 707 569Z"/>
<path id="z24218d5" d="M494 498Q299 522 295 527C292 528 291 534 293 536Q308 551 326 557Q344 561 358 557Q421 538 491 526C526 521 526 521 544 518Q563 509 664 502C705 499 705 499 725 497Q789 493 868 491Q932 491 939 482Q943 472 929 460Q877 424 825 441Q786 447 740 458C693 467 693 467 669 472Q648 472 547 490C512 495 512 495 494 498Z"/>
<path id="z24218d6" d="M479 612Q406 625 343 635Q321 638 335 656Q342 665 353 669Q365 670 379 668Q416 658 471 648C514 640 514 640 536 636Q615 621 728 609Q738 608 740 598Q741 589 708 569C707 569 707 569 707 569C691 559 669 567 650 571Q589 587 533 600C497 608 497 608 479 612Z"/>
<path id="z24218d7" d="M498 419Q497 459 494 498C492 517 492 517 491 526Q487 569 480 607Q479 608 479 612C474 636 474 636 471 648Q432 790 305 879Q232 924 230 926Q226 932 241 934Q254 935 306 915Q343 902 397 863Q478 803 515 677Q516 668 519 659C528 620 528 620 533 600Q540 560 544 518C546 499 546 499 547 490Q547 481 548 473Q549 445 553 420Q553 413 553 407C557 384 557 384 559 372Q563 353 571 334Q575 322 567 315Q516 269 477 279Q458 286 473 304Q500 332 500 363Q499 373 499 386C498 408 498 408 498 419Z"/>
<path id="z24218d8" d="M519 659Q607 780 720 906Q739 927 771 926Q879 925 912 918Q922 917 924 911Q924 905 910 899Q757 845 692 789Q619 723 536 636C524 624 509 646 519 659Z"/>
<defs>
	<clipPath id="z24218c1"><use xlink:href="#z24218d1"/></clipPath>
	<clipPath id="z24218c2"><use xlink:href="#z24218d2"/></clipPath>
	<clipPath id="z24218c3"><use xlink:href="#z24218d3"/></clipPath>
	<clipPath id="z24218c4"><use xlink:href="#z24218d4"/></clipPath>
	<clipPath id="z24218c5"><use xlink:href="#z24218d5"/></clipPath>
	<clipPath id="z24218c6"><use xlink:href="#z24218d6"/></clipPath>
	<clipPath id="z24218c7"><use xlink:href="#z24218d7"/></clipPath>
	<clipPath id="z24218c8"><use xlink:href="#z24218d8"/></clipPath>
</defs>
<path style="--d:1s;" pathLength="3333" clip-path="url(#z24218c1)" d="M459 51L544 100L570 155"/>
<path style="--d:2s;" pathLength="3333" clip-path="url(#z24218c2)" d="M346 251L398 261L758 191"/>
<path style="--d:3s;" pathLength="3333" clip-path="url(#z24218c3)" d="M262 217L308 287L257 567L194 725L66 903"/>
<path style="--d:4s;" pathLength="3333" clip-path="url(#z24218c4)" d="M375 412L681 367L725 409L681 556L658 566"/>
<path style="--d:5s;" pathLength="3333" clip-path="url(#z24218c5)" d="M301 535L834 465L935 472"/>
<path style="--d:6s;" pathLength="3333" clip-path="url(#z24218c6)" d="M338 644L733 594"/>
<path style="--d:7s;" pathLength="3333" clip-path="url(#z24218c7)" d="M473 287L534 334L482 696L379 848L237 927"/>
<path style="--d:8s;" pathLength="3333" clip-path="url(#z24218c8)" d="M528 643L750 878L916 909"/>
</svg>