<!--
AnimCJK 2016-2019 Copyright Francois Mizessyn - https://github.com/parsimonhi/animCJK
Derived from:
    MakeMeAHanzi project - https://github.com/skishore/makemeahanzi
    Arphic PL KaitiM GB font
    Arphic PL UKai font
You can redistribute and/or modify this file under the terms of the Arphic Public License
as published by Arphic Technology Co., Ltd.
You should have received a copy of this license along with this file.
If not, see http://ftp.gnu.org/non-gnu/chinese-fonts-truetype/LICENSE.
-->
<svg id="z24319" class="acjk" version="1.1" viewBox="0 0 1024 1024" xmlns="http://www.w3.org/2000/svg" xmlns:xlink="http://www.w3.org/1999/xlink">
<style>
<![CDATA[
@keyframes zk {
	to {
		stroke-dashoffset:0;
	}
}
svg.acjk path[clip-path] {
	--t:0.8s;
	animation:zk var(--t) linear forwards var(--d);
	stroke-dasharray:3337;
	stroke-dashoffset:3339;
	stroke-width:128;
	stroke-linecap:round;
	fill:none;
	stroke:#000;
}
svg.acjk path[id] {fill:#ccc;}
]]>
</style>
<path id="z24319d1" d="M672 465C750 456 835 455 929 463C945 464 957 463 961 456C966 446 964 436 956 429C933 409 906 393 875 380C864 375 850 378 832 383C781 396 730 406 679 414C639 420 639 420 619 423C557 432 413 450 391 454C355 459 355 459 337 462C239 476 156 486 79 489C69 489 63 493 63 501C62 509 69 519 84 530C95 538 113 547 136 555C144 557 154 555 167 550C191 539 250 527 342 510C377 503 377 503 394 500C426 493 577 474 615 471C653 467 653 467 672 465Z"/>
<path id="z24319d2" d="M391 454C386 380 381 317 387 279C389 262 390 251 379 243C366 233 348 223 324 216C305 210 287 212 271 222C261 227 265 236 277 250C285 259 290 268 295 275C304 287 321 312 337 462C340 494 340 494 342 510C348 575 356 706 359 773C361 795 367 814 375 829C381 837 387 839 394 834C396 830 400 812 406 781C407 752 407 752 407 737C406 684 398 568 394 500C392 469 392 469 391 454Z"/>
<path id="z24319d3" d="M639 707C649 624 661 543 672 465C677 431 677 431 679 414C691 320 704 243 728 183C731 174 725 161 709 149C682 128 657 118 637 113C623 109 612 110 606 117C599 123 597 133 604 146C622 182 627 211 630 234C632 258 622 377 619 423C616 455 616 455 615 471C608 543 599 621 588 702C585 719 636 724 639 707Z"/>
<path id="z24319d4" d="M406 781C420 781 552 761 660 755C668 754 674 750 675 742C675 735 663 723 639 707C625 697 605 699 588 702C553 711 458 729 407 737C393 739 391 781 406 781Z"/>
<defs>
	<clipPath id="z24319c1"><use xlink:href="#z24319d1"/></clipPath>
	<clipPath id="z24319c2"><use xlink:href="#z24319d2"/></clipPath>
	<clipPath id="z24319c3"><use xlink:href="#z24319d3"/></clipPath>
	<clipPath id="z24319c4"><use xlink:href="#z24319d4"/></clipPath>
</defs>
<path style="--d:1s;" pathLength="3333" clip-path="url(#z24319c1)" d="M67 498L150 520L856 418L959 446"/>
<path style="--d:2s;" pathLength="3333" clip-path="url(#z24319c2)" d="M271 228L345 272L385 831"/>
<path style="--d:3s;" pathLength="3333" clip-path="url(#z24319c3)" d="M608 123L678 193L611 703"/>
<path style="--d:4s;" pathLength="3333" clip-path="url(#z24319c4)" d="M410 773L571 732L670 739"/>
</svg>