<!--
AnimCJK 2016-2017 Copyright Francois Mizessyn, http://gooo.free.fr/animCJK/
Derived from:
    MakeMeAHanzi project - https://github.com/skishore/makemeahanzi
    Arphic PL KaitiM GB - https://apps.ubuntu.com/cat/applications/precise/fonts-arphic-gkai00mp/
    Arphic PL UKai - https://apps.ubuntu.com/cat/applications/fonts-arphic-ukai/
You can redistribute and/or modify this file under the terms of the Arphic Public License
as published by Arphic Technology Co., Ltd.
You should have received a copy of this license (the directory "APL") along with this file;
if not, see http://ftp.gnu.org/non-gnu/chinese-fonts-truetype/LICENSE.
-->
<svg id="z24324" class="acjk" version="1.1" viewBox="0 0 1024 1024" xmlns="http://www.w3.org/2000/svg" xmlns:xlink="http://www.w3.org/1999/xlink">
<style>
<![CDATA[
	@keyframes z24324k {
		from {
			stroke:#c00;
			stroke-dashoffset:3000;
		}
		75% {
			stroke:#c00;
			stroke-dashoffset:0;
		}
		to {
			stroke:#000;
		}
	}
	#z24324 path[clip-path] {
		animation:z24324k 1s linear both;
		stroke-dasharray:3000;
		stroke-width:128;
		stroke-linecap:round;
		fill:none;
	}
	#z24324 path[clip-path="url(#z24324c1)"] {animation-delay:1s;}
	#z24324 path[clip-path="url(#z24324c2)"] {animation-delay:2s;}
	#z24324 path[clip-path="url(#z24324c3)"] {animation-delay:3s;}
	#z24324 path[clip-path="url(#z24324c4)"] {animation-delay:4s;}
	#z24324 path[clip-path="url(#z24324c5)"] {animation-delay:5s;}
	#z24324 path[clip-path="url(#z24324c6)"] {animation-delay:6s;}
	#z24324 path[clip-path="url(#z24324c7)"] {animation-delay:7s;}
	#z24324 path {fill:#ccc;}
]]>
</style>
<g transform="scale(1,-1) translate(0,-900)">
	<path id="z24324d1" d="M516 727Q586 739 660 748Q712 757 721 763Q731 770 726 780Q719 793 691 802Q655 811 555 781Q426 760 348 757Q311 753 336 734Q381 707 437 717Q453 721 472 721L516 727Z"/>
	<path id="z24324d2" d="M529 513Q530 556 534 592L536 636Q537 652 538 665Q538 675 539 683Q548 704 516 727L472 721Q481 691 484 623L485 583Q485 550 487 505L529 513Z"/>
	<path id="z24324d3" d="M534 592Q676 625 678 626Q687 633 683 641Q676 651 650 659Q626 665 536 636L484 623Q426 611 357 606Q323 600 347 585Q377 566 452 577Q465 580 485 583L534 592Z"/>
	<path id="z24324d4" d="M487 505Q390 489 275 472Q256 471 270 455Q283 443 299 438Q318 434 332 438Q492 484 734 484Q752 485 756 493Q760 503 745 515Q694 551 642 536Q594 526 529 513L487 505Z"/>
	<path id="z24324d5" d="M662 331Q701 332 932 333Q953 332 958 341Q965 354 947 369Q890 411 851 404Q775 391 666 373L603 365Q474 353 423 343L358 337Q235 325 102 311Q80 310 96 291Q111 276 130 270Q152 263 169 268Q260 292 359 305L417 312Q472 324 603 329L662 331Z"/>
	<path id="z24324d6" d="M423 343Q426 355 432 366Q439 384 424 392Q379 426 352 415Q339 411 346 396Q358 378 358 337L359 305Q355 146 232 54Q217 42 203 31Q190 22 202 20Q251 20 319 83Q395 158 413 292Q414 302 417 312L423 343Z"/>
	<path id="z24324d7" d="M606 -31Q612 -56 618 -65Q624 -72 631 -70Q658 -52 659 110Q658 156 662 331L666 373Q669 389 672 403Q675 421 661 430Q630 452 614 454Q602 458 586 450Q577 443 584 432Q602 401 603 365L603 329Q604 236 603 106Q602 3 606 -31Z"/>
	<defs>
		<clipPath id="z24324c1"><use xlink:href="#z24324d1"/></clipPath>
		<clipPath id="z24324c2"><use xlink:href="#z24324d2"/></clipPath>
		<clipPath id="z24324c3"><use xlink:href="#z24324d3"/></clipPath>
		<clipPath id="z24324c4"><use xlink:href="#z24324d4"/></clipPath>
		<clipPath id="z24324c5"><use xlink:href="#z24324d5"/></clipPath>
		<clipPath id="z24324c6"><use xlink:href="#z24324d6"/></clipPath>
		<clipPath id="z24324c7"><use xlink:href="#z24324d7"/></clipPath>
	</defs>
	<path pathLength="2999" clip-path="url(#z24324c1)" d="M336 745L722 774"/>
	<path pathLength="2999" clip-path="url(#z24324c2)" d="M479 719L510 687L502 508"/>
	<path pathLength="2999" clip-path="url(#z24324c3)" d="M346 596L677 640"/>
	<path pathLength="2999" clip-path="url(#z24324c4)" d="M272 464L666 512L753 500"/>
	<path pathLength="2999" clip-path="url(#z24324c5)" d="M96 301L152 291L860 369L955 355"/>
	<path pathLength="2999" clip-path="url(#z24324c6)" d="M351 409L395 370L363 192L300 91L204 25"/>
	<path pathLength="2999" clip-path="url(#z24324c7)" d="M587 446L636 398L633 -63"/>
</g>
</svg>