<!--
AnimCJK 2016-2018 Copyright Francois Mizessyn, https://github.com/parsimonhi/animCJK
Derived from:
    MakeMeAHanzi project - https://github.com/skishore/makemeahanzi
    Arphic PL KaitiM GB - https://apps.ubuntu.com/cat/applications/precise/fonts-arphic-gkai00mp/
    Arphic PL UKai - https://apps.ubuntu.com/cat/applications/fonts-arphic-ukai/
You can redistribute and/or modify this file under the terms of the Arphic Public License
as published by Arphic Technology Co., Ltd.
You should have received a copy of this license (the directory "APL") along with this file;
if not, see http://ftp.gnu.org/non-gnu/chinese-fonts-truetype/LICENSE.
-->
<svg id="z24335" class="acjk" version="1.1" viewBox="0 0 1024 1024" xmlns="http://www.w3.org/2000/svg" xmlns:xlink="http://www.w3.org/1999/xlink">
<style>
<![CDATA[
@keyframes z24335k {
	from {
		stroke:#c00;
		stroke-dashoffset:3334;
	}
	75% {
		stroke:#c00;
		stroke-dashoffset:0;
	}
	to {
		stroke:#000;
	}
}
#z24335 path[clip-path] {
	animation:z24335k 1s linear both;
	stroke-dasharray:3334;
	stroke-width:128;
	stroke-linecap:round;
	fill:none;
}
#z24335 path[clip-path="url(#z24335c1)"] {animation-delay:1s;}
#z24335 path[clip-path="url(#z24335c2)"] {animation-delay:2s;}
#z24335 path[clip-path="url(#z24335c3)"] {animation-delay:3s;}
#z24335 path[clip-path="url(#z24335c4)"] {animation-delay:4s;}
#z24335 path[clip-path="url(#z24335c5)"] {animation-delay:5s;}
#z24335 path[clip-path="url(#z24335c6)"] {animation-delay:6s;}
#z24335 path {fill:#ccc;}
]]>
</style>
<path id="z24335d1" d="M578 368Q602 361 628 356Q694 340 703 330Q713 320 708 310Q699 297 665 288Q625 282 562 309L514 325Q381 365 239 384Q196 391 227 411Q281 439 343 422Q434 400 529 379L578 368 Z"/>
<path id="z24335d2" d="M359 568Q479 538 484 534Q491 527 487 519Q480 509 453 502Q432 499 356 524Q293 542 235 550Q202 557 226 571Q262 589 315 579L359 568 Z"/>
<path id="z24335d3" d="M368 694Q372 654 376 621Q376 615 377 610Q386 589 359 568L315 579Q316 589 323 708L368 694 Z"/>
<path id="z24335d4" d="M323 708Q206 739 195 741Q171 741 148 740Q133 740 130 755Q127 768 141 778Q180 805 197 812Q216 821 240 807Q291 776 525 671Q544 664 552 655Q561 645 548 641Q530 641 368 694L323 708 Z"/>
<path id="z24335d5" d="M529 379Q637 776 844 928Q877 952 893 952Q908 953 916 940Q925 930 914 882Q908 821 917 711Q921 680 911 677Q902 676 892 704Q858 821 832 821Q751 781 660 595Q648 571 639 547Q611 484 578 368L562 309Q532 210 533 148Q542 106 514 92Q507 88 500 85Q475 72 460 72Q447 73 446 74Q422 83 445 106Q463 109 507 297Q510 310 514 325L529 379 Z"/>
<path id="z24335d6" d="M681 185Q718 206 758 231Q776 241 791 238Q801 235 805 220Q806 204 791 175Q781 154 743 145Q656 132 643 141Q639 145 643 159Q650 169 681 185 Z"/>
<defs>
	<clipPath id="z24335c1"><use xlink:href="#z24335d1"/></clipPath>
	<clipPath id="z24335c2"><use xlink:href="#z24335d2"/></clipPath>
	<clipPath id="z24335c3"><use xlink:href="#z24335d3"/></clipPath>
	<clipPath id="z24335c4"><use xlink:href="#z24335d4"/></clipPath>
	<clipPath id="z24335c5"><use xlink:href="#z24335d5"/></clipPath>
	<clipPath id="z24335c6"><use xlink:href="#z24335d6"/></clipPath>
</defs>
<path pathLength="3333" clip-path="url(#z24335c1)" d="M226 398L310 400L706 318"/>
<path pathLength="3333" clip-path="url(#z24335c2)" d="M225 560L483 524"/>
<path pathLength="3333" clip-path="url(#z24335c3)" d="M321 582L348 613L331 704"/>
<path pathLength="3333" clip-path="url(#z24335c4)" d="M134 754L211 777L550 651"/>
<path pathLength="3333" clip-path="url(#z24335c5)" d="M438 86L498 126L595 507L737 778L815 856L888 897L907 684"/>
<path pathLength="3333" clip-path="url(#z24335c6)" d="M645 146L749 183L800 227"/>
</svg>