<!--
AnimCJK 2016-2025 Copyright FM-SH - https://github.com/parsimonhi/animCJK
Derived from:
    MakeMeAHanzi project - https://github.com/skishore/makemeahanzi
    Arphic PL KaitiM GB font
    Arphic PL KaitiM Big5 font
You can redistribute and/or modify this file under the terms of the Arphic Public License
as published by Arphic Technology Co., Ltd.
You should have received a copy of this license along with this file.
If not, see https://ftp.gnu.org/non-gnu/chinese-fonts-truetype/LICENSE.
-->
<svg id="z24357" class="acjk" viewBox="0 0 1024 1024" xmlns="http://www.w3.org/2000/svg">
<style>
<![CDATA[
@keyframes zk {
	to {
		stroke-dashoffset:0;
	}
}
svg.acjk path[clip-path] {
	--t:0.8s;
	animation:zk var(--t) linear forwards var(--d);
	stroke-dasharray:3337;
	stroke-dashoffset:3339;
	stroke-width:128;
	stroke-linecap:round;
	fill:none;
	stroke:#000;
}
svg.acjk path[id] {fill:#ccc;}
]]>
</style>
<path id="z24357d1" d="M361 338C379 277 399 238 417 220C434 201 433 187 417 177C402 168 386 158 367 146C350 136 333 145 304 161C259 184 216 193 179 201C170 202 166 203 168 208C168 211 174 216 184 221C196 226 233 224 293 205C316 197 330 195 338 205C342 210 340 224 333 250C324 276 316 305 306 336C300 353 357 356 361 338Z"/>
<path id="z24357d2" d="M220 394Q229 395 241 392Q281 379 371 365Q381 364 381 355Q381 348 361 338C344 331 323 330 306 336Q251 354 212 365C203 369 210 394 220 394Z"/>
<path id="z24357d3" d="M280 531C292 530 302 532 307 538C314 546 316 563 314 589C307 655 295 711 278 756C267 781 258 799 249 809C242 815 231 815 215 810C194 803 175 797 160 792C149 787 145 788 146 796C147 804 152 812 162 822C187 845 204 869 218 890C227 905 242 908 256 899C306 862 333 819 341 774C348 729 361 671 371 600C373 583 376 567 386 551C392 539 392 530 386 523C376 512 363 501 343 492C328 485 294 492 241 510C216 517 201 519 201 517C199 463 213 420 220 394C222 384 219 372 212 365C205 357 192 350 175 341C165 336 159 335 153 340C146 345 147 350 155 360C169 379 171 408 166 445C158 491 146 524 128 543C119 551 117 560 122 570C126 578 132 584 140 589C146 593 156 591 168 580C198 548 235 532 280 531Z"/>
<path id="z24357d4" d="M542 352C562 319 578 287 605 234C615 212 623 193 633 181C637 174 637 165 634 158C629 148 618 140 599 130C580 120 565 117 554 119C543 121 539 129 548 143C571 180 540 282 446 447C441 454 437 458 437 463C435 469 440 473 448 470C466 462 493 429 530 371C538 358 538 358 542 352Z"/>
<path id="z24357d5" d="M646 372C672 364 726 356 777 343C817 332 886 327 840 300C810 282 793 283 745 298C707 309 647 330 542 352C535 353 524 367 530 371C545 380 597 385 611 382C634 375 634 375 646 372Z"/>
<path id="z24357d6" d="M590 811C569 803 548 793 526 785C518 782 515 783 515 788C514 792 516 798 524 805C565 844 600 879 630 910C635 916 646 915 655 904C678 871 692 823 690 765C684 650 676 543 685 432C686 415 687 402 684 397C679 387 666 382 646 372C635 367 607 370 611 382C619 400 625 423 627 451C629 517 631 623 632 775C632 793 628 806 622 812C616 816 603 816 590 811Z"/>
<path id="z24357d7" d="M508 559C490 593 468 624 446 655C431 674 429 695 438 719C442 729 451 734 465 726C499 706 518 668 528 616C531 595 534 576 530 561C528 554 524 551 521 551C515 550 510 553 508 559Z"/>
<path id="z24357d8" d="M756 568C788 600 823 639 861 687C871 701 880 711 892 714C896 715 903 711 909 705C917 695 917 676 912 647C904 606 853 572 759 537C751 534 748 534 747 543C746 551 748 559 756 568Z"/>
<defs>
	<clipPath id="z24357c1"><use href="#z24357d1"/></clipPath>
	<clipPath id="z24357c2"><use href="#z24357d2"/></clipPath>
	<clipPath id="z24357c3"><use href="#z24357d3"/></clipPath>
	<clipPath id="z24357c4"><use href="#z24357d4"/></clipPath>
	<clipPath id="z24357c5"><use href="#z24357d5"/></clipPath>
	<clipPath id="z24357c6"><use href="#z24357d6"/></clipPath>
	<clipPath id="z24357c7"><use href="#z24357d7"/></clipPath>
	<clipPath id="z24357c8"><use href="#z24357d8"/></clipPath>
</defs>
<path style="--d:1s;" pathLength="3333" clip-path="url(#z24357c1)" d="M179 208L342 170L372 188L383 211L326 336"/>
<path style="--d:2s;" pathLength="3333" clip-path="url(#z24357c2)" d="M220 373L372 355"/>
<path style="--d:3s;" pathLength="3333" clip-path="url(#z24357c3)" d="M156 344L194 397L166 548L295 512L326 515L352 548L284 822L236 858L152 797"/>
<path style="--d:4s;" pathLength="3333" clip-path="url(#z24357c4)" d="M551 124L594 184L445 463"/>
<path style="--d:5s;" pathLength="3333" clip-path="url(#z24357c5)" d="M540 369L837 308"/>
<path style="--d:6s;" pathLength="3333" clip-path="url(#z24357c6)" d="M619 381L655 413L659 800L622 864L522 790"/>
<path style="--d:7s;" pathLength="3333" clip-path="url(#z24357c7)" d="M519 555L446 724"/>
<path style="--d:8s;" pathLength="3333" clip-path="url(#z24357c8)" d="M754 540L869 639L890 709"/>
</svg>