<!--
AnimCJK 2016-2025 Copyright FM-SH - https://github.com/parsimonhi/animCJK
Derived from:
    MakeMeAHanzi project - https://github.com/skishore/makemeahanzi
    Arphic PL KaitiM GB font
    Arphic PL KaitiM Big5 font
You can redistribute and/or modify this file under the terms of the Arphic Public License
as published by Arphic Technology Co., Ltd.
You should have received a copy of this license along with this file.
If not, see https://ftp.gnu.org/non-gnu/chinese-fonts-truetype/LICENSE.
-->
<svg id="z24359" class="acjk" viewBox="0 0 1024 1024" xmlns="http://www.w3.org/2000/svg">
<style>
<![CDATA[
@keyframes zk {
	to {
		stroke-dashoffset:0;
	}
}
svg.acjk path[clip-path] {
	--t:0.8s;
	animation:zk var(--t) linear forwards var(--d);
	stroke-dasharray:3337;
	stroke-dashoffset:3339;
	stroke-width:128;
	stroke-linecap:round;
	fill:none;
	stroke:#000;
}
svg.acjk path[id] {fill:#ccc;}
]]>
</style>
<path id="z24359d1" d="M346 328Q367 246 392 221Q413 196 390 182Q330 149 325 150Q316 150 308 156Q263 187 171 207Q161 207 162 214Q163 218 177 225Q196 234 237 221Q310 197 318 209Q325 216 316 252Q309 283 298 321C295 337 343 344 346 328Z"/>
<path id="z24359d2" d="M204 390Q211 389 220 387Q262 372 356 356Q366 353 366 344Q366 337 346 328C331 322 314 318 298 321Q291 322 286 325Q234 344 192 357C181 361 193 392 204 390Z"/>
<path id="z24359d3" d="M255 526Q276 525 283 534Q295 550 288 589Q278 682 252 745Q237 782 223 795Q214 804 190 795Q162 785 140 776Q124 769 126 780Q127 793 140 807Q171 844 188 876Q204 900 227 887Q302 833 312 768Q351 569 361 555Q361 554 363 552Q375 534 364 524Q352 506 322 491Q298 479 282 487Q263 491 200 504Q190 505 187 502Q183 499 186 488Q204 391 204 390C206 379 201 364 192 357Q182 347 159 337Q146 328 137 335Q128 342 139 355Q158 386 149 435Q139 501 112 526Q100 539 105 552Q112 565 122 572Q132 579 150 565Q192 522 255 526Z"/>
<path id="z24359d4" d="M582 246C606 234 645 214 688 190C718 172 738 163 772 150C783 145 791 143 793 137C794 129 791 120 781 115C764 104 738 99 707 91C693 87 684 85 676 89C671 91 669 95 670 105C671 131 617 181 510 255C504 259 516 276 523 273C529 270 537 267 548 262C571 251 571 251 582 246Z"/>
<path id="z24359d5" d="M510 255C501 246 484 240 470 234C458 229 449 227 442 231C436 234 433 242 439 248C466 353 461 420 449 520C443 568 435 612 422 652C401 723 367 796 322 873C320 877 317 882 316 886C315 892 318 894 324 893C344 888 379 845 425 761C485 653 503 493 512 328C512 322 517 300 523 273C524 266 516 259 510 255Z"/>
<path id="z24359d6" d="M589 771C618 572 624 383 627 346C628 334 628 334 628 328C628 320 630 312 633 304C635 294 635 285 628 278C613 263 596 252 582 246C570 241 543 250 548 262C580 348 579 453 566 592C562 624 544 741 521 803C512 826 584 796 589 771Z"/>
<path id="z24359d7" d="M689 723C670 733 642 744 589 771C544 792 544 792 521 803C478 822 481 833 495 856C504 870 512 881 523 889C530 894 539 891 549 880C580 842 626 803 701 742C707 737 696 720 689 723Z"/>
<path id="z24359d8" d="M701 742C723 778 737 798 745 801C751 803 756 801 761 795C765 788 768 776 770 759C770 733 741 698 681 656C674 651 668 649 664 650C661 650 659 654 657 662C657 666 667 686 689 723C697 736 697 736 701 742Z"/>
<path id="z24359d9" d="M627 346C645 364 657 386 668 411C752 614 807 721 830 730C869 744 919 750 977 757C987 758 996 758 1002 754C1006 750 1004 746 998 742C903 679 837 621 801 569C764 516 723 446 681 357C669 331 653 321 628 328C622 329 623 341 627 346Z"/>
<defs>
	<clipPath id="z24359c1"><use href="#z24359d1"/></clipPath>
	<clipPath id="z24359c2"><use href="#z24359d2"/></clipPath>
	<clipPath id="z24359c3"><use href="#z24359d3"/></clipPath>
	<clipPath id="z24359c4"><use href="#z24359d4"/></clipPath>
	<clipPath id="z24359c5"><use href="#z24359d5"/></clipPath>
	<clipPath id="z24359c6"><use href="#z24359d6"/></clipPath>
	<clipPath id="z24359c7"><use href="#z24359d7"/></clipPath>
	<clipPath id="z24359c8"><use href="#z24359d8"/></clipPath>
	<clipPath id="z24359c9"><use href="#z24359d9"/></clipPath>
</defs>
<path style="--d:1s;" pathLength="3333" clip-path="url(#z24359c1)" d="M170 211L321 178L344 190L361 210L310 322"/>
<path style="--d:2s;" pathLength="3333" clip-path="url(#z24359c2)" d="M197 359L357 343"/>
<path style="--d:3s;" pathLength="3333" clip-path="url(#z24359c3)" d="M140 338L178 397L151 534L278 506L329 546L253 814L207 844L133 779"/>
<path style="--d:4s;" pathLength="3333" clip-path="url(#z24359c4)" d="M679 96L742 131L517 258"/>
<path style="--d:5s;" pathLength="3333" clip-path="url(#z24359c5)" d="M441 235L487 280L463 573L404 761L321 890"/>
<path style="--d:6s;" pathLength="3333" clip-path="url(#z24359c6)" d="M555 263L600 299L578 605L573 743L536 783"/>
<path style="--d:7s;" pathLength="3333" clip-path="url(#z24359c7)" d="M496 832L530 850L695 734"/>
<path style="--d:8s;" pathLength="3333" clip-path="url(#z24359c8)" d="M666 654L740 751L749 797"/>
<path style="--d:9s;" pathLength="3333" clip-path="url(#z24359c9)" d="M635 331L835 671L996 751"/>
</svg>