<!--
AnimCJK 2016-2019 Copyright Francois Mizessyn - https://github.com/parsimonhi/animCJK
Derived from:
    MakeMeAHanzi project - https://github.com/skishore/makemeahanzi
    Arphic PL KaitiM GB font
    Arphic PL UKai font
You can redistribute and/or modify this file under the terms of the Arphic Public License
as published by Arphic Technology Co., Ltd.
You should have received a copy of this license along with this file.
If not, see http://ftp.gnu.org/non-gnu/chinese-fonts-truetype/LICENSE.
-->
<svg id="z24358" class="acjk" version="1.1" viewBox="0 0 1024 1024" xmlns="http://www.w3.org/2000/svg" xmlns:xlink="http://www.w3.org/1999/xlink">
<style>
<![CDATA[
@keyframes zk {
	to {
		stroke-dashoffset:0;
	}
}
svg.acjk path[clip-path] {
	--t:0.8s;
	animation:zk var(--t) linear forwards var(--d);
	stroke-dasharray:3337;
	stroke-dashoffset:3339;
	stroke-width:128;
	stroke-linecap:round;
	fill:none;
	stroke:#000;
}
svg.acjk path[id] {fill:#ccc;}
]]>
</style>
<path id="z24358d1" d="M364 335Q388 244 416 217Q440 190 416 176Q395 164 368 146Q347 134 298 166Q225 193 179 202Q167 202 169 209Q170 215 184 221Q203 231 238 220Q331 192 340 203Q347 210 336 249Q326 286 312 330C306 346 361 352 364 335Z"/>
<path id="z24358d2" d="M227 390Q234 389 241 388Q281 375 371 361Q381 360 381 351Q381 344 364 335C349 326 329 327 312 330Q309 330 308 331Q254 350 215 360C205 363 216 392 227 390Z"/>
<path id="z24358d3" d="M284 531Q303 530 311 538Q321 551 317 589Q307 689 279 756Q264 795 250 808Q241 817 217 808Q190 799 168 792Q152 785 154 796Q155 809 169 822Q200 858 217 889Q233 913 256 899Q331 845 342 775Q382 564 385 561Q386 555 390 551Q400 533 390 524Q377 506 347 492Q323 482 251 508Q203 520 202 518Q196 512 225 403Q226 396 227 390C229 379 223 367 215 360Q205 350 183 341Q170 331 162 338Q152 345 162 358Q183 392 171 445Q158 515 128 541Q116 556 121 568Q128 581 140 589Q150 596 168 580Q216 532 284 531Z"/>
<path id="z24358d4" d="M595 148Q625 173 657 205Q673 220 690 219Q703 219 708 203Q714 187 703 153Q696 131 662 115Q581 84 564 93Q558 97 560 112Q564 125 595 148Z"/>
<path id="z24358d5" d="M624 327Q717 300 900 300Q921 300 925 290Q929 278 913 266Q858 230 807 246Q672 277 435 322Q416 325 431 341Q444 354 463 358Q482 362 498 357Q538 344 586 334C611 329 611 329 624 327Z"/>
<path id="z24358d6" d="M648 555Q584 555 531 555Q506 554 520 539Q584 457 645 398Q661 383 659 376Q659 364 624 327C615 318 583 321 586 334Q595 373 510 492Q492 519 457 543Q438 556 438 568Q441 586 453 605Q463 615 475 610Q508 594 613 581Q622 580 630 580C640 580 658 555 648 555Z"/>
<path id="z24358d7" d="M742 721Q657 728 555 749Q521 758 545 732Q597 671 717 546Q751 509 779 488Q794 478 787 467Q778 446 744 423Q728 411 718 414Q706 415 708 433Q708 470 648 555C636 572 636 572 630 580Q629 580 629 581Q491 743 459 754Q443 763 445 778Q446 793 472 816Q482 829 499 818Q598 767 754 739C761 738 749 721 742 721Z"/>
<path id="z24358d8" d="M754 739Q817 841 828 847Q837 850 845 842Q860 832 856 789Q852 729 706 631Q699 624 694 635Q691 648 699 659Q718 687 742 721C750 733 750 733 754 739Z"/>
<defs>
	<clipPath id="z24358c1"><use xlink:href="#z24358d1"/></clipPath>
	<clipPath id="z24358c2"><use xlink:href="#z24358d2"/></clipPath>
	<clipPath id="z24358c3"><use xlink:href="#z24358d3"/></clipPath>
	<clipPath id="z24358c4"><use xlink:href="#z24358d4"/></clipPath>
	<clipPath id="z24358c5"><use xlink:href="#z24358d5"/></clipPath>
	<clipPath id="z24358c6"><use xlink:href="#z24358d6"/></clipPath>
	<clipPath id="z24358c7"><use xlink:href="#z24358d7"/></clipPath>
	<clipPath id="z24358c8"><use xlink:href="#z24358d8"/></clipPath>
</defs>
<path style="--d:1s;" pathLength="3333" clip-path="url(#z24358c1)" d="M178 207L342 171L379 192L335 332"/>
<path style="--d:2s;" pathLength="3333" clip-path="url(#z24358c2)" d="M222 364L374 349"/>
<path style="--d:3s;" pathLength="3333" clip-path="url(#z24358c3)" d="M166 344L201 394L169 552L313 511L355 555L319 735L277 832L236 857L159 797"/>
<path style="--d:4s;" pathLength="3333" clip-path="url(#z24358c4)" d="M563 100L664 159L689 215"/>
<path style="--d:5s;" pathLength="3333" clip-path="url(#z24358c5)" d="M430 329L478 337L827 271L922 285"/>
<path style="--d:6s;" pathLength="3333" clip-path="url(#z24358c6)" d="M594 336L619 376L481 564L495 583L637 559"/>
<path style="--d:7s;" pathLength="3333" clip-path="url(#z24358c7)" d="M718 421L744 473L491 764L512 787L747 732"/>
<path style="--d:8s;" pathLength="3333" clip-path="url(#z24358c8)" d="M700 635L811 766L838 843"/>
</svg>