<!--
AnimCJK 2016-2018 Copyright Francois Mizessyn, https://github.com/parsimonhi/animCJK
Derived from:
    MakeMeAHanzi project - https://github.com/skishore/makemeahanzi
    Arphic PL KaitiM GB - https://apps.ubuntu.com/cat/applications/precise/fonts-arphic-gkai00mp/
    Arphic PL UKai - https://apps.ubuntu.com/cat/applications/fonts-arphic-ukai/
You can redistribute and/or modify this file under the terms of the Arphic Public License
as published by Arphic Technology Co., Ltd.
You should have received a copy of this license (the directory "APL") along with this file;
if not, see http://ftp.gnu.org/non-gnu/chinese-fonts-truetype/LICENSE.
-->
<svg id="z24369" class="acjk" version="1.1" viewBox="0 0 1024 1024" xmlns="http://www.w3.org/2000/svg" xmlns:xlink="http://www.w3.org/1999/xlink">
<style>
<![CDATA[
@keyframes z24369k {
	from {
		stroke:#c00;
		stroke-dashoffset:3334;
	}
	75% {
		stroke:#c00;
		stroke-dashoffset:0;
	}
	to {
		stroke:#000;
	}
}
#z24369 path[clip-path] {
	animation:z24369k 1s linear both;
	stroke-dasharray:3334;
	stroke-width:128;
	stroke-linecap:round;
	fill:none;
}
#z24369 path[clip-path="url(#z24369c1)"] {animation-delay:1s;}
#z24369 path[clip-path="url(#z24369c2)"] {animation-delay:2s;}
#z24369 path[clip-path="url(#z24369c3)"] {animation-delay:3s;}
#z24369 path[clip-path="url(#z24369c4)"] {animation-delay:4s;}
#z24369 path[clip-path="url(#z24369c5)"] {animation-delay:5s;}
#z24369 path[clip-path="url(#z24369c6)"] {animation-delay:6s;}
#z24369 path[clip-path="url(#z24369c7)"] {animation-delay:7s;}
#z24369 path[clip-path="url(#z24369c8)"] {animation-delay:8s;}
#z24369 path[clip-path="url(#z24369c9)"] {animation-delay:9s;}
#z24369 path[clip-path="url(#z24369c10)"] {animation-delay:10s;}
#z24369 path {fill:#ccc;}
]]>
</style>
<path id="z24369d1" d="M434 310Q456 235 481 215Q503 191 482 176Q424 140 416 140Q409 140 401 145Q356 175 252 190Q242 190 243 197Q244 201 257 209Q272 218 348 201Q400 186 408 199Q414 206 405 236Q395 267 384 304L434 310 Z"/>
<path id="z24369d2" d="M287 366Q291 366 296 365Q342 352 443 337Q453 336 453 327Q453 320 434 310L384 304Q381 304 380 305Q323 324 277 336L287 366 Z"/>
<path id="z24369d3" d="M375 468Q394 467 402 475Q414 488 410 528Q401 666 368 760Q356 797 344 811Q337 820 312 813Q285 806 263 799Q248 793 250 803Q253 816 266 828Q299 859 317 890Q333 911 354 897Q436 825 444 743Q468 508 473 500Q474 493 479 488Q489 470 479 461Q466 445 436 432Q414 422 398 431Q376 437 281 460Q266 463 262 458Q258 455 262 446Q274 407 287 366L277 336Q268 326 249 316Q237 306 229 312Q219 318 228 331Q241 359 230 401Q215 456 190 476Q178 489 182 501Q189 514 199 522Q209 529 227 515Q255 490 288 481Q346 465 375 468 Z"/>
<path id="z24369d4" d="M200 587Q219 603 238 624Q248 634 261 634Q270 634 273 623Q277 613 270 589Q263 567 197 550Q185 547 180 550Q176 553 177 563Q180 570 200 587 Z"/>
<path id="z24369d5" d="M108 740Q98 743 98 752Q98 764 108 769Q130 779 161 789Q171 790 179 781Q198 759 306 676Q321 666 331 653Q341 644 340 636Q334 632 324 637Q152 730 108 740 Z"/>
<path id="z24369d6" d="M770 279Q794 203 819 182Q843 157 820 141Q801 128 773 109Q754 97 735 108Q681 142 572 157Q560 157 562 164Q563 170 577 177Q593 186 641 175Q734 151 742 165Q749 172 738 205Q728 239 715 278L770 279 Z"/>
<path id="z24369d7" d="M618 339Q627 329 782 309Q792 308 793 299Q793 292 770 279L715 278Q654 296 606 308L618 339 Z"/>
<path id="z24369d8" d="M742 442Q763 441 772 449Q784 464 781 505Q777 668 741 779Q731 815 719 829Q712 838 689 832Q652 819 623 807Q608 801 610 811Q613 824 626 836Q669 873 692 909Q710 931 731 917Q768 881 796 838Q821 810 823 742Q829 651 835 510Q836 485 849 462Q859 444 849 435Q836 419 806 406Q782 396 768 405Q737 412 624 433Q606 434 601 429Q598 426 616 349Q617 343 618 339L606 308Q596 298 576 289Q564 280 556 287Q546 293 556 306Q572 331 563 374Q553 429 530 450Q518 463 523 475Q530 487 539 494Q549 501 566 487Q602 460 640 452Q709 437 742 442 Z"/>
<path id="z24369d9" d="M560 564Q584 582 608 603Q620 613 633 612Q642 611 645 600Q648 587 640 563Q628 536 554 525Q541 524 536 525Q532 529 534 539Q537 548 560 564 Z"/>
<path id="z24369d10" d="M486 712Q476 715 475 724Q475 734 484 741Q506 751 537 763Q546 764 555 755Q573 734 698 649Q716 637 727 624Q737 617 736 608Q730 604 720 608Q530 705 486 712 Z"/>
<defs>
	<clipPath id="z24369c1"><use xlink:href="#z24369d1"/></clipPath>
	<clipPath id="z24369c2"><use xlink:href="#z24369d2"/></clipPath>
	<clipPath id="z24369c3"><use xlink:href="#z24369d3"/></clipPath>
	<clipPath id="z24369c4"><use xlink:href="#z24369d4"/></clipPath>
	<clipPath id="z24369c5"><use xlink:href="#z24369d5"/></clipPath>
	<clipPath id="z24369c6"><use xlink:href="#z24369d6"/></clipPath>
	<clipPath id="z24369c7"><use xlink:href="#z24369d7"/></clipPath>
	<clipPath id="z24369c8"><use xlink:href="#z24369d8"/></clipPath>
	<clipPath id="z24369c9"><use xlink:href="#z24369d9"/></clipPath>
	<clipPath id="z24369c10"><use xlink:href="#z24369d10"/></clipPath>
</defs>
<path pathLength="3333" clip-path="url(#z24369c1)" d="M251 195L411 169L440 184L449 207L396 303"/>
<path pathLength="3333" clip-path="url(#z24369c2)" d="M285 339L445 325"/>
<path pathLength="3333" clip-path="url(#z24369c3)" d="M233 318L260 362L237 489L395 449L445 478L385 811L337 859L259 803"/>
<path pathLength="3333" clip-path="url(#z24369c4)" d="M181 558L243 594L258 630"/>
<path pathLength="3333" clip-path="url(#z24369c5)" d="M104 751L164 754L331 640"/>
<path pathLength="3333" clip-path="url(#z24369c6)" d="M573 164L762 140L787 168L747 264L721 272"/>
<path pathLength="3333" clip-path="url(#z24369c7)" d="M613 312L788 298"/>
<path pathLength="3333" clip-path="url(#z24369c8)" d="M558 293L591 339L575 463L775 422L815 450L770 811L707 878L617 812"/>
<path pathLength="3333" clip-path="url(#z24369c9)" d="M541 532L640 599"/>
<path pathLength="3333" clip-path="url(#z24369c10)" d="M482 725L541 728L730 614"/>
</svg>