<!--
AnimCJK 2016-2025 Copyright FM-SH - https://github.com/parsimonhi/animCJK
Derived from:
    MakeMeAHanzi project - https://github.com/skishore/makemeahanzi
    Arphic PL KaitiM GB font
    Arphic PL KaitiM Big5 font
You can redistribute and/or modify this file under the terms of the Arphic Public License
as published by Arphic Technology Co., Ltd.
You should have received a copy of this license along with this file.
If not, see https://ftp.gnu.org/non-gnu/chinese-fonts-truetype/LICENSE.
-->
<svg id="z24373" class="acjk" viewBox="0 0 1024 1024" xmlns="http://www.w3.org/2000/svg">
<style>
<![CDATA[
@keyframes zk {
	to {
		stroke-dashoffset:0;
	}
}
svg.acjk path[clip-path] {
	--t:0.8s;
	animation:zk var(--t) linear forwards var(--d);
	stroke-dasharray:3337;
	stroke-dashoffset:3339;
	stroke-width:128;
	stroke-linecap:round;
	fill:none;
	stroke:#000;
}
svg.acjk path[id] {fill:#ccc;}
]]>
</style>
<path id="z24373d1" d="M369 297C387 230 408 188 429 168C446 150 445 136 430 126C415 117 399 106 382 94C368 85 349 93 317 107C277 124 240 132 208 137C199 138 196 138 198 144C199 146 202 152 212 157C221 162 253 163 304 149C357 133 355 165 345 199C336 227 326 258 315 292C309 309 365 315 369 297Z"/>
<path id="z24373d2" d="M242 346C270 339 315 332 378 325C384 324 388 321 388 315C388 310 381 304 369 297C353 288 333 288 315 292C282 300 253 308 228 315C217 317 231 348 242 346Z"/>
<path id="z24373d3" d="M228 315C221 309 211 302 200 296C190 289 184 288 178 292C171 296 172 301 178 312C191 335 192 367 183 404C170 452 153 485 133 504C123 512 120 520 124 530C127 538 133 546 141 552C146 557 157 554 170 544C196 522 219 514 251 509C268 506 281 509 285 514C293 524 294 543 292 570C286 633 278 687 263 731C254 755 245 772 237 783C232 788 220 788 205 784C190 780 177 779 168 776C156 772 153 772 154 780C155 788 160 795 169 806C186 824 194 846 205 865C215 881 231 885 245 875C292 838 318 795 325 751C345 613 357 543 358 542C359 538 362 534 365 530C372 517 371 508 366 502C356 490 342 478 322 470C306 462 293 462 283 466C276 468 254 475 218 485C202 488 204 473 208 466C225 424 235 359 242 346C246 335 237 322 228 315Z"/>
<path id="z24373d4" d="M577 450C577 450 577 390 577 360C577 348 577 348 577 342C577 314 577 289 578 268C579 251 579 251 579 243C580 211 583 158 587 144C589 134 585 121 577 114C562 101 545 92 529 85C517 80 511 80 506 84C500 88 498 94 503 106C517 137 528 169 532 204C535 236 536 322 537 457C537 471 577 464 577 450Z"/>
<path id="z24373d5" d="M587 144C611 144 653 140 711 126C775 110 807 98 808 98C812 93 814 87 811 83C806 75 794 70 777 67C757 63 740 67 723 75C675 95 624 105 577 114C567 116 576 144 587 144Z"/>
<path id="z24373d6" d="M578 268C580 268 635 259 743 241C759 238 762 232 757 224C749 214 737 208 721 206C696 203 649 215 579 243C571 246 570 270 578 268Z"/>
<path id="z24373d7" d="M577 360C579 362 592 366 617 364C670 359 716 350 757 346C773 344 778 336 773 328C766 316 752 310 735 308C717 305 695 306 667 315C634 324 604 334 577 342C571 343 571 358 577 360Z"/>
<path id="z24373d8" d="M594 483C651 472 748 458 890 458C902 457 909 454 912 449C915 441 911 431 901 425C867 401 838 394 817 400C770 411 670 433 577 450C550 455 550 455 537 457C492 464 447 471 403 479C390 481 388 487 398 497C406 505 416 510 429 514C441 516 458 518 474 513C500 504 500 504 513 500C521 497 532 494 546 492C578 486 578 486 594 483Z"/>
<path id="z24373d9" d="M474 513C486 537 490 561 490 584C488 688 484 757 476 792C470 812 463 827 455 839C443 853 441 868 447 884C453 906 462 922 474 932C480 937 487 933 499 921C524 893 581 846 668 780C680 770 688 764 690 759C692 750 685 748 670 755C584 794 537 814 531 811C523 807 523 796 524 782C531 660 537 584 545 554C549 537 538 519 513 500C502 492 469 500 474 513Z"/>
<path id="z24373d10" d="M719 619C767 583 802 556 827 545C837 540 842 536 839 530C824 498 801 482 774 481C764 480 760 487 762 501C763 512 745 548 707 606C704 611 714 623 719 619Z"/>
<path id="z24373d11" d="M707 606C669 564 631 524 594 483C582 471 532 484 546 492C568 504 586 522 603 545C726 706 805 807 830 811C863 815 938 806 975 800C985 798 993 796 998 790C1001 785 997 781 991 779C890 735 821 730 719 619C711 610 711 610 707 606Z"/>
<defs>
	<clipPath id="z24373c1"><use href="#z24373d1"/></clipPath>
	<clipPath id="z24373c2"><use href="#z24373d2"/></clipPath>
	<clipPath id="z24373c3"><use href="#z24373d3"/></clipPath>
	<clipPath id="z24373c4"><use href="#z24373d4"/></clipPath>
	<clipPath id="z24373c5"><use href="#z24373d5"/></clipPath>
	<clipPath id="z24373c6"><use href="#z24373d6"/></clipPath>
	<clipPath id="z24373c7"><use href="#z24373d7"/></clipPath>
	<clipPath id="z24373c8"><use href="#z24373d8"/></clipPath>
	<clipPath id="z24373c9"><use href="#z24373d9"/></clipPath>
	<clipPath id="z24373c10"><use href="#z24373d10"/></clipPath>
	<clipPath id="z24373c11"><use href="#z24373d11"/></clipPath>
</defs>
<path style="--d:1s;" pathLength="3333" clip-path="url(#z24373c1)" d="M206 142L346 119L395 149L332 305"/>
<path style="--d:2s;" pathLength="3333" clip-path="url(#z24373c2)" d="M231 319L383 315"/>
<path style="--d:3s;" pathLength="3333" clip-path="url(#z24373c3)" d="M182 298L215 343L170 514L292 488L330 527L269 799L222 833L162 781"/>
<path style="--d:4s;" pathLength="3333" clip-path="url(#z24373c4)" d="M506 87L554 147L559 461"/>
<path style="--d:5s;" pathLength="3333" clip-path="url(#z24373c5)" d="M578 119L807 86"/>
<path style="--d:6s;" pathLength="3333" clip-path="url(#z24373c6)" d="M580 259L754 224"/>
<path style="--d:7s;" pathLength="3333" clip-path="url(#z24373c7)" d="M580 352L770 332"/>
<path style="--d:8s;" pathLength="3333" clip-path="url(#z24373c8)" d="M401 488L822 429L907 443"/>
<path style="--d:9s;" pathLength="3333" clip-path="url(#z24373c9)" d="M480 509L517 556L485 834L498 882L684 757"/>
<path style="--d:10s;" pathLength="3333" clip-path="url(#z24373c10)" d="M771 491L794 535L714 610"/>
<path style="--d:11s;" pathLength="3333" clip-path="url(#z24373c11)" d="M553 489L588 501L842 768L993 788"/>
</svg>