<!--
AnimCJK 2016-2026 Copyright FM-SH, https://github.com/parsimonhi/animCJK
Derived from:
    MakeMeAHanzi project - https://github.com/skishore/makemeahanzi
    Arphic PL KaitiM GB font
    Arphic PL KaitiM Big5 font
You can redistribute and/or modify this file under the terms of the Arphic Public License
as published by Arphic Technology Co., Ltd.
You should have received a copy of this license along with this file.
If not, see https://ftp.gnu.org/non-gnu/chinese-fonts-truetype/LICENSE.
-->
<svg id="z24451" class="acjk" viewBox="0 0 1024 1024" xmlns="http://www.w3.org/2000/svg">
<style>
<![CDATA[
@keyframes zk {
	to {
		stroke-dashoffset:0;
	}
}
svg.acjk path[clip-path] {
	--t:0.8s;
	animation:zk var(--t) linear forwards var(--d);
	stroke-dasharray:3337;
	stroke-dashoffset:3339;
	stroke-width:128;
	stroke-linecap:round;
	fill:none;
	stroke:#000;
}
svg.acjk path[id] {fill:#ccc;}
]]>
</style>
<path id="z24451d1" d="M310 112C317 136 297 183 246 253C222 285 194 320 162 354C154 361 149 365 148 369C145 375 148 379 157 379C187 376 251 324 321 244C341 219 363 196 388 173C394 166 397 159 395 150C393 141 384 127 366 111C350 97 335 89 323 89C310 87 305 96 310 112Z"/>
<path id="z24451d2" d="M265 520C336 429 369 383 369 373C368 357 345 338 338 332C321 318 307 312 295 312C282 312 278 320 284 335C291 355 291 374 283 391C236 486 160 594 52 711C45 717 40 721 39 726C36 732 39 736 49 735C79 730 146 672 240 552C257 531 257 531 265 520Z"/>
<path id="z24451d3" d="M240 552C262 574 265 645 247 765C237 823 234 860 236 878C237 893 242 909 258 925C268 935 279 932 286 915C295 889 298 861 299 833C299 704 301 625 307 597C310 580 310 568 305 562C286 540 273 526 265 520C254 512 232 541 240 552Z"/>
<path id="z24451d4" d="M505 398C518 377 532 340 559 295C564 285 563 275 552 268C522 247 497 240 482 245C475 246 472 253 475 263C489 319 469 388 411 468C404 477 390 491 376 516C370 526 373 529 384 526C413 517 450 483 491 420C500 405 500 405 505 398Z"/>
<path id="z24451d5" d="M676 413C780 390 834 372 839 369C845 363 846 357 843 352C838 344 826 336 806 333C785 329 765 333 744 341C722 348 700 356 678 363C644 372 644 372 627 377C589 387 548 392 505 398C496 400 483 417 491 420C514 433 569 436 626 424C659 417 659 417 676 413Z"/>
<path id="z24451d6" d="M669 786C669 731 671 678 672 628C673 595 673 595 673 578C674 521 673 466 676 413C677 380 677 380 678 363C682 245 686 173 696 152C702 138 704 127 694 119C670 99 647 87 629 82C618 79 607 82 599 91C594 95 595 102 600 110C621 146 630 183 629 223C627 273 628 324 627 377C626 408 626 408 626 424C624 478 625 534 624 592C623 623 623 623 623 638C621 689 623 792 623 792C623 807 669 801 669 786Z"/>
<path id="z24451d7" d="M672 628C700 622 730 615 762 610C786 605 799 600 803 597C808 591 810 586 807 580C802 571 790 565 770 561C750 556 718 565 673 578C640 587 640 587 624 592C592 601 557 601 522 606C497 609 493 619 511 630C537 645 575 647 623 638C656 631 656 631 672 628Z"/>
<path id="z24451d8" d="M623 792C548 801 466 812 378 824C362 826 359 832 372 845C393 866 424 873 460 864C557 839 712 825 928 826C942 826 951 822 955 816C959 807 955 797 943 788C901 755 859 749 815 760C775 769 726 778 669 786C638 790 638 790 623 792Z"/>
<defs>
	<clipPath id="z24451c1"><use href="#z24451d1"/></clipPath>
	<clipPath id="z24451c2"><use href="#z24451d2"/></clipPath>
	<clipPath id="z24451c3"><use href="#z24451d3"/></clipPath>
	<clipPath id="z24451c4"><use href="#z24451d4"/></clipPath>
	<clipPath id="z24451c5"><use href="#z24451d5"/></clipPath>
	<clipPath id="z24451c6"><use href="#z24451d6"/></clipPath>
	<clipPath id="z24451c7"><use href="#z24451d7"/></clipPath>
	<clipPath id="z24451c8"><use href="#z24451d8"/></clipPath>
</defs>
<path style="--d:1s;" pathLength="3333" clip-path="url(#z24451c1)" d="M315 98L348 159L155 373"/>
<path style="--d:2s;" pathLength="3333" clip-path="url(#z24451c2)" d="M291 322L324 359L315 401L164 612L45 728"/>
<path style="--d:3s;" pathLength="3333" clip-path="url(#z24451c3)" d="M257 524L282 591L267 926"/>
<path style="--d:4s;" pathLength="3333" clip-path="url(#z24451c4)" d="M481 252L520 288L505 337L463 425L382 519"/>
<path style="--d:5s;" pathLength="3333" clip-path="url(#z24451c5)" d="M495 415L840 361"/>
<path style="--d:6s;" pathLength="3333" clip-path="url(#z24451c6)" d="M601 95L661 146L641 799"/>
<path style="--d:7s;" pathLength="3333" clip-path="url(#z24451c7)" d="M508 617L804 581"/>
<path style="--d:8s;" pathLength="3333" clip-path="url(#z24451c8)" d="M374 833L432 842L838 791L953 808"/>
</svg>