<!--
AnimCJK 2016-2017 Copyright Francois Mizessyn, http://gooo.free.fr/animCJK/
Derived from:
    MakeMeAHanzi project - https://github.com/skishore/makemeahanzi
    Arphic PL KaitiM GB - https://apps.ubuntu.com/cat/applications/precise/fonts-arphic-gkai00mp/
    Arphic PL UKai - https://apps.ubuntu.com/cat/applications/fonts-arphic-ukai/
You can redistribute and/or modify this file under the terms of the Arphic Public License
as published by Arphic Technology Co., Ltd.
You should have received a copy of this license (the directory "APL") along with this file;
if not, see http://ftp.gnu.org/non-gnu/chinese-fonts-truetype/LICENSE.
-->
<svg id="z24467" class="acjk" version="1.1" viewBox="0 0 1024 1024" xmlns="http://www.w3.org/2000/svg" xmlns:xlink="http://www.w3.org/1999/xlink">
<style>
<![CDATA[
	@keyframes z24467k {
		from {
			stroke:#c00;
			stroke-dashoffset:3000;
		}
		75% {
			stroke:#c00;
			stroke-dashoffset:0;
		}
		to {
			stroke:#000;
		}
	}
	#z24467 path[clip-path] {
		animation:z24467k 1s linear both;
		stroke-dasharray:3000;
		stroke-width:128;
		stroke-linecap:round;
		fill:none;
	}
	#z24467 path[clip-path="url(#z24467c1)"] {animation-delay:1s;}
	#z24467 path[clip-path="url(#z24467c2)"] {animation-delay:2s;}
	#z24467 path[clip-path="url(#z24467c3)"] {animation-delay:3s;}
	#z24467 path[clip-path="url(#z24467c4)"] {animation-delay:4s;}
	#z24467 path[clip-path="url(#z24467c5)"] {animation-delay:5s;}
	#z24467 path[clip-path="url(#z24467c6)"] {animation-delay:6s;}
	#z24467 path[clip-path="url(#z24467c7)"] {animation-delay:7s;}
	#z24467 path[clip-path="url(#z24467c8)"] {animation-delay:8s;}
	#z24467 path[clip-path="url(#z24467c9)"] {animation-delay:9s;}
	#z24467 path[clip-path="url(#z24467c10)"] {animation-delay:10s;}
	#z24467 path {fill:#ccc;}
]]>
</style>
<g transform="scale(1,-1) translate(0,-900)">
	<path id="z24467d1" d="M258 779Q274 749 211 638Q180 589 139 534Q129 524 127 518Q123 508 137 510Q188 516 310 685Q326 712 341 724Q351 734 346 748Q342 761 314 784Q287 802 269 802Q250 801 258 779Z"/>
	<path id="z24467d2" d="M242 341Q263 372 286 409Q308 452 329 472Q338 482 333 495Q329 507 303 528Q278 544 260 544Q242 543 250 522Q263 494 253 470Q222 391 173 316Q127 244 62 165Q52 155 51 149Q47 139 61 141Q100 153 217 305L242 341Z"/>
	<path id="z24467d3" d="M217 305Q242 238 209 88Q188 25 226 -20L227 -21Q243 -36 254 -11Q267 26 267 67Q271 233 278 270Q285 295 276 304Q246 338 242 341L217 305Z"/>
	<path id="z24467d4" d="M475 700Q501 668 529 631Q541 616 557 612Q568 610 573 622Q580 636 572 668Q569 690 537 713Q467 760 451 757Q447 754 447 740Q449 729 475 700Z"/>
	<path id="z24467d5" d="M721 746Q710 723 639 607Q630 586 646 594Q692 633 768 707Q787 730 811 746Q833 762 821 779Q806 795 778 804Q752 813 739 807Q726 801 731 788Q736 768 721 746Z"/>
	<path id="z24467d6" d="M625 491Q704 504 821 507Q873 507 880 516Q884 526 870 538Q822 569 792 561Q690 536 374 481Q356 480 370 465Q383 453 398 449Q416 445 430 450Q500 472 581 484L625 491Z"/>
	<path id="z24467d7" d="M632 165L589 185C590 289 590 355 588 382C584 410 576 439 564 467C562 472 562 477 562 481C568 482 574 483 581 484L595 486C612 479 627 468 641 456C650 446 653 433 649 419C647 412 645 398 643 378L640 347C637 338 634 277 632 165Z"/>
	<path id="z24467d8" d="M640 347Q670 344 756 361Q772 365 790 369Q806 373 809 377Q816 384 812 393Q805 403 775 409Q747 412 718 398Q709 395 643 378L640 347Z"/>
	<path id="z24467d9" d="M455 258Q518 372 520 373Q519 374 519 375Q518 385 504 394Q468 419 439 411Q430 407 434 396Q452 344 376 218Q373 217 373 214Q351 180 292 111Q285 105 295 104Q344 114 430 219Q430 222 442 237L455 258Z"/>
	<path id="z24467d10" d="M442 237Q733 24 796 20Q901 38 964 64Q983 70 984 76Q985 83 968 86Q905 96 833 106Q751 119 686 145L632 165L589 185Q558 201 526 218Q480 245 455 258L442 237Z"/>
	<defs>
		<clipPath id="z24467c1"><use xlink:href="#z24467d1"/></clipPath>
		<clipPath id="z24467c2"><use xlink:href="#z24467d2"/></clipPath>
		<clipPath id="z24467c3"><use xlink:href="#z24467d3"/></clipPath>
		<clipPath id="z24467c4"><use xlink:href="#z24467d4"/></clipPath>
		<clipPath id="z24467c5"><use xlink:href="#z24467d5"/></clipPath>
		<clipPath id="z24467c6"><use xlink:href="#z24467d6"/></clipPath>
		<clipPath id="z24467c7"><use xlink:href="#z24467d7"/></clipPath>
		<clipPath id="z24467c8"><use xlink:href="#z24467d8"/></clipPath>
		<clipPath id="z24467c9"><use xlink:href="#z24467d9"/></clipPath>
		<clipPath id="z24467c10"><use xlink:href="#z24467d10"/></clipPath>
	</defs>
	<path pathLength="2999" clip-path="url(#z24467c1)" d="M265 792L301 736L136 516"/>
	<path pathLength="2999" clip-path="url(#z24467c2)" d="M255 540L294 481L208 330L59 147"/>
	<path pathLength="2999" clip-path="url(#z24467c3)" d="M241 334L232 -21"/>
	<path pathLength="2999" clip-path="url(#z24467c4)" d="M456 753L562 618"/>
	<path pathLength="2999" clip-path="url(#z24467c5)" d="M738 799L774 756L644 597"/>
	<path pathLength="2999" clip-path="url(#z24467c6)" d="M372 475L786 533L876 527"/>
	<path pathLength="2999" clip-path="url(#z24467c7)" d="M570 474L617 422L624 172"/>
	<path pathLength="2999" clip-path="url(#z24467c8)" d="M644 355L806 388"/>
	<path pathLength="2999" clip-path="url(#z24467c9)" d="M515 374L464 368L414 237L297 108"/>
	<path pathLength="2999" clip-path="url(#z24467c10)" d="M447 241L776 72L977 79"/>
</g>
</svg>