<!--
AnimCJK 2016-2019 Copyright Francois Mizessyn - https://github.com/parsimonhi/animCJK
Derived from:
    MakeMeAHanzi project - https://github.com/skishore/makemeahanzi
    Arphic PL KaitiM GB font
    Arphic PL UKai font
You can redistribute and/or modify this file under the terms of the Arphic Public License
as published by Arphic Technology Co., Ltd.
You should have received a copy of this license along with this file.
If not, see http://ftp.gnu.org/non-gnu/chinese-fonts-truetype/LICENSE.
-->
<svg id="z24494" class="acjk" version="1.1" viewBox="0 0 1024 1024" xmlns="http://www.w3.org/2000/svg" xmlns:xlink="http://www.w3.org/1999/xlink">
<style>
<![CDATA[
@keyframes zk {
	to {
		stroke-dashoffset:0;
	}
}
svg.acjk path[clip-path] {
	--t:0.8s;
	animation:zk var(--t) linear forwards var(--d);
	stroke-dasharray:3337;
	stroke-dashoffset:3339;
	stroke-width:128;
	stroke-linecap:round;
	fill:none;
	stroke:#000;
}
svg.acjk path[id] {fill:#ccc;}
]]>
</style>
<path id="z24494d1" d="M269 121C276 145 258 190 211 257C188 288 162 321 131 355C125 360 121 364 120 368C118 374 120 376 128 375C164 368 223 314 302 209C315 191 325 177 335 170C341 165 342 159 340 151C337 144 330 133 316 120C302 108 289 102 279 102C269 101 265 109 269 121Z"/>
<path id="z24494d2" d="M224 518C256 476 315 392 315 388C315 385 314 384 314 383C312 376 303 365 287 352C272 340 259 335 249 335C238 335 235 342 240 355C255 397 199 495 71 649C68 651 66 655 63 658C56 664 53 668 52 672C49 678 51 680 60 679C81 676 132 634 202 546C217 527 217 527 224 518Z"/>
<path id="z24494d3" d="M202 546Q235 613 200 778Q179 808 213 865Q216 869 220 874Q236 887 246 864Q259 830 258 789Q259 627 265 591Q272 567 263 558Q247 540 236 528Q230 521 224 518C214 512 198 535 202 546Z"/>
<path id="z24494d4" d="M482 337C488 266 496 210 508 170C509 163 506 156 496 150C479 139 464 134 452 132C443 130 438 131 434 135C430 139 429 145 434 152C446 170 451 234 449 345C449 356 482 348 482 337Z"/>
<path id="z24494d5" d="M551 321C526 325 503 331 482 337C460 342 460 342 449 345C428 350 409 356 392 363C385 365 382 361 384 352C391 301 394 272 389 266C382 257 373 249 362 243C356 239 350 238 346 240C340 241 340 248 344 257C362 306 358 347 332 378C323 387 320 394 325 401C330 408 337 414 346 419C352 422 359 422 363 418C374 403 416 383 494 361C524 352 543 349 551 351C561 353 561 319 551 321Z"/>
<path id="z24494d6" d="M551 351C551 359 554 367 557 374C560 381 564 384 571 379C585 367 591 341 600 303C608 264 620 243 624 238C628 231 630 223 625 217C617 207 604 199 590 189C584 185 579 183 573 186C569 187 565 191 568 198C570 204 573 229 569 273C567 285 560 301 551 321C547 330 551 341 551 351Z"/>
<path id="z24494d7" d="M348 481C329 484 326 493 341 500C364 511 391 509 420 501C454 490 489 480 525 470C541 465 550 461 553 459C557 454 558 449 555 445C550 438 540 434 525 433C508 430 492 434 477 442C459 450 440 457 420 464C398 471 373 475 348 481Z"/>
<path id="z24494d8" d="M388 562C383 558 377 555 371 552C362 547 353 544 347 548C340 551 338 558 343 564C355 579 357 630 341 720C336 742 309 787 296 821C293 826 297 829 302 828C320 823 342 800 365 756C382 720 394 671 403 610C403 606 404 601 406 596C411 584 398 570 388 562Z"/>
<path id="z24494d9" d="M406 596C415 588 425 581 434 577C449 569 460 568 465 573C475 583 470 711 458 756C453 772 459 792 483 816C488 821 494 821 498 818C502 814 505 805 511 794C526 764 555 726 593 677C597 671 599 666 598 662C597 658 594 659 589 664C569 681 549 697 531 716C512 734 505 731 505 706C503 635 507 589 528 569C533 563 535 558 530 551C524 543 511 534 492 526C485 523 478 526 470 531C457 537 426 551 388 562C376 566 396 604 406 596Z"/>
<path id="z24494d10" d="M674 415C706 349 733 288 753 233C763 203 772 180 782 165C787 156 785 148 781 141C776 133 764 122 743 114C723 106 707 104 696 107C685 110 682 120 691 132C711 160 702 230 661 343C641 394 618 450 588 510C583 518 580 524 580 528C579 534 583 536 592 533C594 532 597 529 602 525C609 517 609 517 613 513C650 472 660 442 663 437C670 422 670 422 674 415Z"/>
<path id="z24494d11" d="M780 433C812 423 846 412 882 401C900 395 911 389 914 387C918 381 919 375 916 371C911 364 899 358 879 356C859 353 840 359 822 368C801 377 779 385 756 394C731 402 704 409 674 415C666 416 656 433 663 437C679 447 711 453 740 445C767 437 767 437 780 433Z"/>
<path id="z24494d12" d="M748 665C760 632 772 604 795 524C799 506 803 489 813 474C819 464 816 457 808 451C797 443 789 437 781 433C780 433 780 433 780 433C767 428 736 432 740 445C759 482 737 571 720 626C715 639 706 653 699 667C673 710 624 761 579 789C570 794 561 800 552 807C545 811 544 818 551 819C585 820 632 795 669 766C690 748 707 728 724 707C733 694 742 680 748 665Z"/>
<path id="z24494d13" d="M724 707Q800 824 839 836Q851 839 954 839Q967 839 978 836Q985 832 976 822Q964 812 865 764Q813 740 748 665C729 640 729 640 719 627Q691 590 664 546Q651 524 622 514Q618 513 613 513C608 513 598 521 602 525Q608 531 616 539Q641 555 699 667C716 694 716 694 724 707Z"/>
<defs>
	<clipPath id="z24494c1"><use xlink:href="#z24494d1"/></clipPath>
	<clipPath id="z24494c2"><use xlink:href="#z24494d2"/></clipPath>
	<clipPath id="z24494c3"><use xlink:href="#z24494d3"/></clipPath>
	<clipPath id="z24494c4"><use xlink:href="#z24494d4"/></clipPath>
	<clipPath id="z24494c5"><use xlink:href="#z24494d5"/></clipPath>
	<clipPath id="z24494c6"><use xlink:href="#z24494d6"/></clipPath>
	<clipPath id="z24494c7"><use xlink:href="#z24494d7"/></clipPath>
	<clipPath id="z24494c8"><use xlink:href="#z24494d8"/></clipPath>
	<clipPath id="z24494c9"><use xlink:href="#z24494d9"/></clipPath>
	<clipPath id="z24494c10"><use xlink:href="#z24494d10"/></clipPath>
	<clipPath id="z24494c11"><use xlink:href="#z24494d11"/></clipPath>
	<clipPath id="z24494c12"><use xlink:href="#z24494d12"/></clipPath>
	<clipPath id="z24494c13"><use xlink:href="#z24494d13"/></clipPath>
</defs>
<path style="--d:1s;" pathLength="3333" clip-path="url(#z24494c1)" d="M276 112L303 161L205 296L123 366"/>
<path style="--d:2s;" pathLength="3333" clip-path="url(#z24494c2)" d="M247 341L277 391L252 436L60 672"/>
<path style="--d:3s;" pathLength="3333" clip-path="url(#z24494c3)" d="M225 525L241 582L225 872"/>
<path style="--d:4s;" pathLength="3333" clip-path="url(#z24494c4)" d="M438 138L476 179L458 340"/>
<path style="--d:5s;" pathLength="3333" clip-path="url(#z24494c5)" d="M351 248L372 283L357 379L372 392L550 334"/>
<path style="--d:6s;" pathLength="3333" clip-path="url(#z24494c6)" d="M574 190L599 232L567 377"/>
<path style="--d:7s;" pathLength="3333" clip-path="url(#z24494c7)" d="M341 491L552 447"/>
<path style="--d:8s;" pathLength="3333" clip-path="url(#z24494c8)" d="M351 554L378 596L370 672L302 820"/>
<path style="--d:9s;" pathLength="3333" clip-path="url(#z24494c9)" d="M407 588L475 548L500 567L483 745L497 771L591 669"/>
<path style="--d:10s;" pathLength="3333" clip-path="url(#z24494c10)" d="M694 115L743 163L672 372L588 527"/>
<path style="--d:11s;" pathLength="3333" clip-path="url(#z24494c11)" d="M669 433L911 376"/>
<path style="--d:12s;" pathLength="3333" clip-path="url(#z24494c12)" d="M746 447L781 478L719 674L643 762L554 810"/>
<path style="--d:13s;" pathLength="3333" clip-path="url(#z24494c13)" d="M612 521L829 787L973 831"/>
</svg>