<!--
AnimCJK 2016-2018 Copyright Francois Mizessyn, https://github.com/parsimonhi/animCJK
Derived from:
    MakeMeAHanzi project - https://github.com/skishore/makemeahanzi
    Arphic PL KaitiM GB - https://apps.ubuntu.com/cat/applications/precise/fonts-arphic-gkai00mp/
    Arphic PL UKai - https://apps.ubuntu.com/cat/applications/fonts-arphic-ukai/
You can redistribute and/or modify this file under the terms of the Arphic Public License
as published by Arphic Technology Co., Ltd.
You should have received a copy of this license (the directory "APL") along with this file;
if not, see http://ftp.gnu.org/non-gnu/chinese-fonts-truetype/LICENSE.
-->
<svg id="z24517" class="acjk" version="1.1" viewBox="0 0 1024 1024" xmlns="http://www.w3.org/2000/svg" xmlns:xlink="http://www.w3.org/1999/xlink">
<style>
<![CDATA[
@keyframes z24517k {
	from {
		stroke:#c00;
		stroke-dashoffset:3334;
	}
	75% {
		stroke:#c00;
		stroke-dashoffset:0;
	}
	to {
		stroke:#000;
	}
}
#z24517 path[clip-path] {
	animation:z24517k 1s linear both;
	stroke-dasharray:3334;
	stroke-width:128;
	stroke-linecap:round;
	fill:none;
}
#z24517 path[clip-path="url(#z24517c1)"] {animation-delay:1s;}
#z24517 path[clip-path="url(#z24517c2)"] {animation-delay:2s;}
#z24517 path[clip-path="url(#z24517c3)"] {animation-delay:3s;}
#z24517 path[clip-path="url(#z24517c4)"] {animation-delay:4s;}
#z24517 path[clip-path="url(#z24517c5)"] {animation-delay:5s;}
#z24517 path {fill:#ccc;}
]]>
</style>
<path id="z24517d1" d="M377 244Q425 325 456 344Q472 351 486 338Q496 325 497 305Q494 257 403 204Q402 203 401 203Q383 193 371 195Q364 195 364 210Q363 223 377 244 Z"/>
<path id="z24517d2" d="M392 686Q325 752 151 839Q132 849 148 854Q166 857 211 846Q302 818 376 766Q406 747 431 725L478 681Q595 528 630 406Q676 255 709 205Q724 184 705 170Q654 119 618 125Q600 128 605 148Q632 224 568 408Q549 460 519 519Q480 588 430 646L392 686 Z"/>
<path id="z24517d3" d="M431 725Q548 812 749 777Q752 776 756 775Q792 765 833 741Q849 734 846 727Q843 714 823 694Q792 666 710 567Q703 558 697 558Q694 559 695 567Q708 615 722 668Q726 690 713 703Q673 728 544 704Q505 694 478 681L430 646Q382 595 353 470Q346 440 324 428Q306 418 299 426Q295 430 301 450Q311 475 332 547Q353 637 392 686L431 725 Z"/>
<path id="z24517d4" d="M173 434Q155 513 124 585Q109 627 133 660Q145 678 166 661Q188 639 198 601Q216 543 212 494Q212 457 200 430Q193 421 186 421Q176 424 173 434 Z"/>
<path id="z24517d5" d="M753 396Q817 445 895 517Q914 536 932 540Q942 541 949 529Q961 513 943 467Q936 442 915 426Q893 410 841 391Q783 370 751 362Q741 358 740 371Q740 386 753 396 Z"/>
<defs>
	<clipPath id="z24517c1"><use xlink:href="#z24517d1"/></clipPath>
	<clipPath id="z24517c2"><use xlink:href="#z24517d2"/></clipPath>
	<clipPath id="z24517c3"><use xlink:href="#z24517d3"/></clipPath>
	<clipPath id="z24517c4"><use xlink:href="#z24517d4"/></clipPath>
	<clipPath id="z24517c5"><use xlink:href="#z24517d5"/></clipPath>
</defs>
<path pathLength="3333" clip-path="url(#z24517c1)" d="M370 204L479 340"/>
<path pathLength="3333" clip-path="url(#z24517c2)" d="M611 134L664 198L583 452L500 603L369 740L152 847"/>
<path pathLength="3333" clip-path="url(#z24517c3)" d="M305 428L401 653L522 734L658 751L772 721L794 705L700 565"/>
<path pathLength="3333" clip-path="url(#z24517c4)" d="M186 426L151 666"/>
<path pathLength="3333" clip-path="url(#z24517c5)" d="M746 366L887 455L937 535"/>
</svg>