<!--
AnimCJK 2016-2018 Copyright Francois Mizessyn, https://github.com/parsimonhi/animCJK
Derived from:
    MakeMeAHanzi project - https://github.com/skishore/makemeahanzi
    Arphic PL KaitiM GB - https://apps.ubuntu.com/cat/applications/precise/fonts-arphic-gkai00mp/
    Arphic PL UKai - https://apps.ubuntu.com/cat/applications/fonts-arphic-ukai/
You can redistribute and/or modify this file under the terms of the Arphic Public License
as published by Arphic Technology Co., Ltd.
You should have received a copy of this license (the directory "APL") along with this file;
if not, see http://ftp.gnu.org/non-gnu/chinese-fonts-truetype/LICENSE.
-->
<svg id="z24565" class="acjk" version="1.1" viewBox="0 0 1024 1024" xmlns="http://www.w3.org/2000/svg" xmlns:xlink="http://www.w3.org/1999/xlink">
<style>
<![CDATA[
@keyframes z24565k {
	from {
		stroke:#c00;
		stroke-dashoffset:3334;
	}
	75% {
		stroke:#c00;
		stroke-dashoffset:0;
	}
	to {
		stroke:#000;
	}
}
#z24565 path[clip-path] {
	animation:z24565k 1s linear both;
	stroke-dasharray:3334;
	stroke-width:128;
	stroke-linecap:round;
	fill:none;
}
#z24565 path[clip-path="url(#z24565c1)"] {animation-delay:1s;}
#z24565 path[clip-path="url(#z24565c2)"] {animation-delay:2s;}
#z24565 path[clip-path="url(#z24565c3)"] {animation-delay:3s;}
#z24565 path[clip-path="url(#z24565c4)"] {animation-delay:4s;}
#z24565 path[clip-path="url(#z24565c5)"] {animation-delay:5s;}
#z24565 path[clip-path="url(#z24565c6)"] {animation-delay:6s;}
#z24565 path[clip-path="url(#z24565c7)"] {animation-delay:7s;}
#z24565 path[clip-path="url(#z24565c8)"] {animation-delay:8s;}
#z24565 path {fill:#ccc;}
]]>
</style>
<path id="z24565d1" d="M517 140Q547 98 547 97L547 94Q546 84 532 69Q496 36 459 40Q449 43 452 57Q468 150 310 339Q199 450 90 539Q80 545 92 548Q162 541 298 419Q392 328 504 160L517 140 Z"/>
<path id="z24565d2" d="M504 160Q618 296 763 439Q787 461 822 457Q945 447 984 436Q994 433 996 427Q996 420 979 414Q801 366 747 329Q642 253 517 140L504 160 Z"/>
<path id="z24565d3" d="M419 353C396 358 394 367 410 376C436 391 458 392 497 379C517 374 524 374 560 363C580 357 591 353 594 350C600 344 601 339 598 334C592 326 580 321 562 318C544 314 550 314 502 332C465 342 458 348 419 353 Z"/>
<path id="z24565d4" d="M387 529Q505 489 559 481Q575 480 579 484Q583 488 574 504Q540 561 522 577Q501 595 502 638Q503 671 536 650Q561 634 619 546Q649 500 676 488Q698 479 686 463Q676 447 635 429Q613 419 587 433Q557 446 413 480Q358 490 319 489Q306 489 305 498Q304 511 327 524Q360 537 387 529 Z"/>
<path id="z24565d5" d="M230 681Q203 748 166 809Q145 842 164 879Q171 898 194 884Q216 868 232 834Q254 785 257 741Q261 707 255 681Q249 672 243 671Q234 672 230 681 Z"/>
<path id="z24565d6" d="M335 715Q350 823 431 880Q540 953 741 938Q775 934 805 921Q832 911 834 895Q838 885 799 858Q741 806 697 753Q685 737 681 744Q677 750 682 764Q697 801 709 841Q713 860 708 869Q701 879 663 880Q491 881 421 813Q388 785 375 733Q369 711 358 705Q345 698 338 701Q332 702 335 715 Z"/>
<path id="z24565d7" d="M485 713Q533 770 565 784Q578 787 587 775Q594 763 591 748Q584 711 497 678Q482 674 473 677Q467 678 470 689Q471 699 485 713 Z"/>
<path id="z24565d8" d="M705 637Q766 680 842 744Q861 762 877 764Q887 764 893 753Q903 738 885 695Q863 640 702 606Q692 602 692 615Q693 628 705 637 Z"/>
<defs>
	<clipPath id="z24565c1"><use xlink:href="#z24565d1"/></clipPath>
	<clipPath id="z24565c2"><use xlink:href="#z24565d2"/></clipPath>
	<clipPath id="z24565c3"><use xlink:href="#z24565d3"/></clipPath>
	<clipPath id="z24565c4"><use xlink:href="#z24565d4"/></clipPath>
	<clipPath id="z24565c5"><use xlink:href="#z24565d5"/></clipPath>
	<clipPath id="z24565c6"><use xlink:href="#z24565d6"/></clipPath>
	<clipPath id="z24565c7"><use xlink:href="#z24565d7"/></clipPath>
	<clipPath id="z24565c8"><use xlink:href="#z24565d8"/></clipPath>
</defs>
<path pathLength="3333" clip-path="url(#z24565c1)" d="M460 48L498 102L384 285L247 433L95 543"/>
<path pathLength="3333" clip-path="url(#z24565c2)" d="M516 147L794 405L990 427"/>
<path pathLength="3333" clip-path="url(#z24565c3)" d="M409 365L595 336"/>
<path pathLength="3333" clip-path="url(#z24565c4)" d="M312 501L393 505L583 457L629 472L517 654"/>
<path pathLength="3333" clip-path="url(#z24565c5)" d="M242 681L175 885"/>
<path pathLength="3333" clip-path="url(#z24565c6)" d="M343 706L426 847L588 906L709 907L782 881L686 747"/>
<path pathLength="3333" clip-path="url(#z24565c7)" d="M475 681L580 778"/>
<path pathLength="3333" clip-path="url(#z24565c8)" d="M696 613L845 698L886 756"/>
</svg>