<!--
AnimCJK 2016-2017 Copyright Francois Mizessyn, http://gooo.free.fr/animCJK/
Derived from:
    MakeMeAHanzi project - https://github.com/skishore/makemeahanzi
    Arphic PL KaitiM GB - https://apps.ubuntu.com/cat/applications/precise/fonts-arphic-gkai00mp/
    Arphic PL UKai - https://apps.ubuntu.com/cat/applications/fonts-arphic-ukai/
You can redistribute and/or modify this file under the terms of the Arphic Public License
as published by Arphic Technology Co., Ltd.
You should have received a copy of this license (the directory "APL") along with this file;
if not, see http://ftp.gnu.org/non-gnu/chinese-fonts-truetype/LICENSE.
-->
<svg id="z24693" class="acjk" version="1.1" viewBox="0 0 1024 1024" xmlns="http://www.w3.org/2000/svg" xmlns:xlink="http://www.w3.org/1999/xlink">
<style>
<![CDATA[
	@keyframes z24693k {
		from {
			stroke:#c00;
			stroke-dashoffset:3000;
		}
		75% {
			stroke:#c00;
			stroke-dashoffset:0;
		}
		to {
			stroke:#000;
		}
	}
	#z24693 path[clip-path] {
		animation:z24693k 1s linear both;
		stroke-dasharray:3000;
		stroke-width:128;
		stroke-linecap:round;
		fill:none;
	}
	#z24693 path[clip-path="url(#z24693c1)"] {animation-delay:1s;}
	#z24693 path[clip-path="url(#z24693c2)"] {animation-delay:2s;}
	#z24693 path[clip-path="url(#z24693c3)"] {animation-delay:3s;}
	#z24693 path[clip-path="url(#z24693c4)"] {animation-delay:4s;}
	#z24693 path[clip-path="url(#z24693c5)"] {animation-delay:5s;}
	#z24693 path[clip-path="url(#z24693c6)"] {animation-delay:6s;}
	#z24693 path[clip-path="url(#z24693c7)"] {animation-delay:7s;}
	#z24693 path[clip-path="url(#z24693c8)"] {animation-delay:8s;}
	#z24693 path[clip-path="url(#z24693c9)"] {animation-delay:9s;}
	#z24693 path[clip-path="url(#z24693c10)"] {animation-delay:10s;}
	#z24693 path {fill:#ccc;}
]]>
</style>
<g transform="scale(1,-1) translate(0,-900)">
	<path id="z24693d1" d="M544 664Q684 695 689 698Q696 705 693 713Q687 724 663 732Q641 739 549 710L484 694Q417 682 339 677Q308 673 330 656Q363 638 432 645Q458 649 487 653L544 664Z"/>
	<path id="z24693d2" d="M313 546C304 550 292 553 278 556C269 559 264 558 262 553C257 547 258 538 264 525C283 479 299 418 310 342C312 319 319 300 330 286C343 267 351 264 355 278C358 286 359 295 359 306L357 339C348 393 340 450 335 506Z"/>
	<path id="z24693d3" d="M653 338C663 317 672 302 681 294C688 286 697 290 709 306C718 319 722 365 745 444C753 469 761 489 774 511C784 521 785 531 778 543C769 559 750 579 723 603C710 612 698 615 686 611C660 604 629 598 593 593C574 590 555 587 535 583L481 574C466 572 452 570 437 567C392 558 351 551 313 546L334 506C373 519 422 529 479 539L532 548C621 564 671 564 683 551C687 540 700 527 698 517C682 438 669 390 665 374Z"/>
	<path id="z24693d4" d="M526 434C550 440 574 444 597 446C612 448 617 451 612 461C606 472 594 477 579 480C567 484 550 483 529 478L478 461C451 454 424 447 399 439C389 437 394 430 402 427C411 424 431 422 476 426Z"/>
	<path id="z24693d5" d="M519 328C555 334 620 335 653 338L667 370C652 384 584 386 522 369L473 358C432 351 394 343 357 334L359 306L472 321Z"/>
	<path id="z24693d6" d="M486 361C487 389 488 416 489 443L489 476C489 493 490 509 490 524L490 556C490 576 489 595 489 614L489 644C488 666 487 687 487 708L485 745C484 772 475 799 457 825C451 836 451 844 456 849C462 855 470 857 481 855C497 852 518 844 543 832C557 822 563 813 561 805C558 793 555 780 551 764C550 762 550 761 550 761L544 719C543 712 542 705 542 697L540 653L539 623C538 605 538 588 538 572L537 533C536 517 535 502 535 486L533 450C531 425 531 396 530 370L487 361C486 361 486 361 486 361Z"/>
	<path id="z24693d7" d="M230 234Q208 171 175 114Q153 80 176 45Q185 26 206 41Q228 59 241 92Q260 137 260 175Q264 209 255 235Q249 244 243 244Q234 243 230 234Z"/>
	<path id="z24693d8" d="M326 207Q350 96 437 40Q548 -23 758 -3Q797 6 831 20Q858 32 859 49Q863 59 823 89Q760 144 714 202Q701 221 696 212Q692 206 697 190Q712 150 724 106Q731 82 725 73Q716 58 672 56Q495 46 422 111Q388 139 371 189Q364 214 350 219Q337 226 328 222Q322 221 326 207Z"/>
	<path id="z24693d9" d="M492 236Q532 181 559 169Q572 165 583 177Q590 189 589 205Q585 229 568 243Q556 252 505 274Q490 280 482 276Q475 275 477 263Q478 251 492 236Z"/>
	<path id="z24693d10" d="M768 271Q819 234 881 177Q899 159 914 156Q923 156 929 167Q939 180 923 223Q911 262 837 283Q791 296 766 302Q756 306 755 293Q756 280 768 271Z"/>
	<defs>
		<clipPath id="z24693c1"><use xlink:href="#z24693d1"/></clipPath>
		<clipPath id="z24693c2"><use xlink:href="#z24693d2"/></clipPath>
		<clipPath id="z24693c3"><use xlink:href="#z24693d3"/></clipPath>
		<clipPath id="z24693c4"><use xlink:href="#z24693d4"/></clipPath>
		<clipPath id="z24693c5"><use xlink:href="#z24693d5"/></clipPath>
		<clipPath id="z24693c6"><use xlink:href="#z24693d6"/></clipPath>
		<clipPath id="z24693c7"><use xlink:href="#z24693d7"/></clipPath>
		<clipPath id="z24693c8"><use xlink:href="#z24693d8"/></clipPath>
		<clipPath id="z24693c9"><use xlink:href="#z24693d9"/></clipPath>
		<clipPath id="z24693c10"><use xlink:href="#z24693d10"/></clipPath>
	</defs>
	<path pathLength="2999" clip-path="url(#z24693c1)" d="M334 665L686 712"/>
	<path pathLength="2999" clip-path="url(#z24693c2)" d="M267 548L307 495L346 275"/>
	<path pathLength="2999" clip-path="url(#z24693c3)" d="M321 543L355 531L703 577L739 526L684 299"/>
	<path pathLength="2999" clip-path="url(#z24693c4)" d="M403 434L607 459"/>
	<path pathLength="2999" clip-path="url(#z24693c5)" d="M363 313L662 364"/>
	<path pathLength="2999" clip-path="url(#z24693c6)" d="M459 844L520 793L496 364"/>
	<path pathLength="2999" clip-path="url(#z24693c7)" d="M243 240L181 41"/>
	<path pathLength="2999" clip-path="url(#z24693c8)" d="M333 215L378 127L438 70L620 24L731 31L804 59L699 208"/>
	<path pathLength="2999" clip-path="url(#z24693c9)" d="M483 267L574 175"/>
	<path pathLength="2999" clip-path="url(#z24693c10)" d="M761 296L877 228L922 164"/>
</g>
</svg>