<!--
AnimCJK 2016-2026 Copyright FM-SH - https://github.com/parsimonhi/animCJK
Derived from:
    MakeMeAHanzi project - https://github.com/skishore/makemeahanzi
    Arphic PL KaitiM GB font
    Arphic PL KaitiM Big5 font
You can redistribute and/or modify this file under the terms of the Arphic Public License
as published by Arphic Technology Co., Ltd.
You should have received a copy of this license along with this file.
If not, see https://ftp.gnu.org/non-gnu/chinese-fonts-truetype/LICENSE.
-->
<svg id="z24705" class="acjk" viewBox="0 0 1024 1024" xmlns="http://www.w3.org/2000/svg">
<style>
<![CDATA[
@keyframes zk {
	to {
		stroke-dashoffset:0;
	}
}
svg.acjk path[clip-path] {
	--t:0.8s;
	animation:zk var(--t) linear forwards var(--d);
	stroke-dasharray:3337;
	stroke-dashoffset:3339;
	stroke-width:128;
	stroke-linecap:round;
	fill:none;
	stroke:#000;
}
svg.acjk path[id] {fill:#ccc;}
]]>
</style>
<path id="z24705d1" d="M123 380C113 420 101 459 87 498C77 522 82 544 98 567C105 576 117 578 128 567C159 532 167 486 161 434C158 411 157 389 148 375C144 368 138 367 135 368C128 369 124 373 123 380Z"/>
<path id="z24705d2" d="M292 372C296 376 345 414 362 429C370 436 379 438 388 438C394 437 398 433 401 426C403 417 401 403 395 387C390 375 380 365 363 360C322 347 299 345 293 347C285 348 285 367 292 372Z"/>
<path id="z24705d3" d="M293 347C295 278 297 219 314 174C321 155 319 142 303 131C291 122 276 111 258 101C221 80 200 95 214 120C232 153 245 183 246 216C246 261 248 313 248 367C246 459 243 543 239 659C237 692 226 749 214 805C207 831 211 872 224 904C243 954 268 918 276 898C281 885 284 867 284 845C284 813 289 437 292 372C293 355 293 355 293 347Z"/>
<path id="z24705d4" d="M505 134C497 130 481 127 460 124C451 122 447 123 445 127C441 131 441 138 448 149C467 182 483 227 495 284C498 300 504 314 515 325C535 346 538 332 541 310C542 298 540 287 538 276C530 236 521 186 517 166C515 155 516 138 505 134Z"/>
<path id="z24705d5" d="M774 244C792 200 813 175 832 162C845 152 847 136 836 126C817 109 799 100 782 92C748 77 732 84 709 92C665 106 587 122 505 134C494 136 506 168 517 166C613 146 679 135 714 133C739 131 751 132 746 161C740 189 731 216 722 240C716 256 768 260 774 244Z"/>
<path id="z24705d6" d="M541 310C558 310 717 284 788 278C794 277 799 274 800 268C800 263 791 255 774 244C759 235 739 237 722 240C652 256 590 268 538 276C527 278 530 310 541 310Z"/>
<path id="z24705d7" d="M515 650C519 611 521 577 525 549C527 530 527 530 528 521C533 469 535 439 539 433C543 422 533 409 525 401C510 386 492 378 471 381C460 382 457 389 461 398C489 468 476 611 447 740C435 788 419 811 419 817C419 841 426 859 438 876C444 885 449 890 456 886C485 866 499 796 512 678C514 659 514 659 515 650Z"/>
<path id="z24705d8" d="M539 433C545 431 604 419 717 399C746 393 748 415 751 435C756 473 761 541 765 640C768 753 768 818 759 829C747 841 702 821 688 816C673 810 662 811 667 817C697 858 726 888 744 916C752 930 762 939 774 943C780 945 788 944 794 938C825 900 844 862 841 826C819 591 810 455 831 418C838 402 840 391 831 384C815 370 793 359 767 348C752 342 740 342 729 348C673 376 605 393 525 401C514 403 528 435 539 433Z"/>
<path id="z24705d9" d="M525 549C545 551 583 555 637 545C658 540 685 546 702 532C706 527 708 522 706 518C702 511 692 505 676 501C659 496 642 498 624 504C591 513 558 518 528 521C519 523 516 549 525 549Z"/>
<path id="z24705d10" d="M512 678C536 684 576 683 633 674C681 666 707 661 711 658C716 653 717 647 715 643C711 635 699 629 682 625C663 620 645 623 627 630C589 642 550 646 515 650C506 652 503 676 512 678Z"/>
<defs>
	<clipPath id="z24705c1"><use href="#z24705d1"/></clipPath>
	<clipPath id="z24705c2"><use href="#z24705d2"/></clipPath>
	<clipPath id="z24705c3"><use href="#z24705d3"/></clipPath>
	<clipPath id="z24705c4"><use href="#z24705d4"/></clipPath>
	<clipPath id="z24705c5"><use href="#z24705d5"/></clipPath>
	<clipPath id="z24705c6"><use href="#z24705d6"/></clipPath>
	<clipPath id="z24705c7"><use href="#z24705d7"/></clipPath>
	<clipPath id="z24705c8"><use href="#z24705d8"/></clipPath>
	<clipPath id="z24705c9"><use href="#z24705d9"/></clipPath>
	<clipPath id="z24705c10"><use href="#z24705d10"/></clipPath>
</defs>
<path style="--d:1s;" pathLength="3333" clip-path="url(#z24705c1)" d="M137 371L108 569"/>
<path style="--d:2s;" pathLength="3333" clip-path="url(#z24705c2)" d="M296 357L394 431"/>
<path style="--d:3s;" pathLength="3333" clip-path="url(#z24705c3)" d="M216 102L279 167L249 925"/>
<path style="--d:4s;" pathLength="3333" clip-path="url(#z24705c4)" d="M449 130L487 159L526 328"/>
<path style="--d:5s;" pathLength="3333" clip-path="url(#z24705c5)" d="M507 141L759 112L794 150L733 250"/>
<path style="--d:6s;" pathLength="3333" clip-path="url(#z24705c6)" d="M534 296L791 265"/>
<path style="--d:7s;" pathLength="3333" clip-path="url(#z24705c7)" d="M465 388L505 444L454 882"/>
<path style="--d:8s;" pathLength="3333" clip-path="url(#z24705c8)" d="M530 410L738 371L792 406L797 849L760 889L674 818"/>
<path style="--d:9s;" pathLength="3333" clip-path="url(#z24705c9)" d="M523 539L702 519"/>
<path style="--d:10s;" pathLength="3333" clip-path="url(#z24705c10)" d="M508 666L710 644"/>
</svg>