<!--
AnimCJK 2016-2026 Copyright FM-SH, https://github.com/parsimonhi/animCJK
Derived from:
    MakeMeAHanzi project - https://github.com/skishore/makemeahanzi
    Arphic PL KaitiM GB font
    Arphic PL KaitiM Big5 font
You can redistribute and/or modify this file under the terms of the Arphic Public License
as published by Arphic Technology Co., Ltd.
You should have received a copy of this license along with this file.
If not, see https://ftp.gnu.org/non-gnu/chinese-fonts-truetype/LICENSE.
-->
<svg id="z24740" class="acjk" viewBox="0 0 1024 1024" xmlns="http://www.w3.org/2000/svg">
<style>
<![CDATA[
@keyframes zk {
	to {
		stroke-dashoffset:0;
	}
}
svg.acjk path[clip-path] {
	--t:0.8s;
	animation:zk var(--t) linear forwards var(--d);
	stroke-dasharray:3337;
	stroke-dashoffset:3339;
	stroke-width:128;
	stroke-linecap:round;
	fill:none;
	stroke:#000;
}
svg.acjk path[id] {fill:#ccc;}
]]>
</style>
<path id="z24740d1" d="M415 208C463 161 499 132 527 112C536 104 544 96 525 78C499 54 461 35 460 69C458 115 412 173 388 212C383 220 408 213 415 208Z"/>
<path id="z24740d2" d="M316 216C269 184 251 192 270 236C292 290 287 407 282 458C273 539 273 539 269 579C267 593 304 679 327 602C330 590 328 577 329 565C331 471 330 354 334 249C334 236 326 224 316 216Z"/>
<path id="z24740d3" d="M687 579C701 612 719 682 755 637C777 608 778 570 776 535C771 474 763 389 760 279C759 260 763 242 774 226C779 216 783 209 782 206C776 191 748 175 703 153C689 146 679 147 667 153C617 173 533 190 415 208C397 211 397 211 388 212C359 216 335 214 316 216C303 216 322 251 334 249C350 246 372 244 456 231C468 229 468 229 474 228C562 213 615 201 635 200C656 197 673 202 686 212C698 222 705 296 705 434C706 467 700 521 689 540C684 552 682 567 687 579Z"/>
<path id="z24740d4" d="M456 231C458 264 440 292 408 333C399 344 399 344 395 349C387 357 376 371 370 377C352 392 353 403 382 385C395 377 403 372 414 363C427 351 427 351 434 345C442 337 457 323 467 314C480 301 480 301 486 294C512 266 517 256 474 228C469 225 456 225 456 231Z"/>
<path id="z24740d5" d="M467 314C476 319 501 315 517 312C569 301 575 304 563 331C555 348 546 359 521 390C511 400 501 407 491 417C451 450 422 473 382 497C357 513 359 520 389 513C425 505 487 471 525 443C537 433 549 423 561 412C590 383 615 350 644 326C654 317 650 308 637 298C627 291 614 281 602 275C596 271 587 272 576 275C530 285 501 292 486 294C477 296 458 311 467 314Z"/>
<path id="z24740d6" d="M521 390C500 378 449 352 434 345C417 337 417 337 408 333C395 327 382 321 379 321C374 319 372 321 373 327C373 329 380 338 395 349C408 358 408 358 414 363C427 372 474 404 491 417C514 434 514 434 525 443C585 489 612 504 624 506C644 509 632 467 625 456C614 440 591 429 561 412C534 397 534 397 521 390Z"/>
<path id="z24740d7" d="M327 602C445 594 646 560 687 579C699 583 699 548 689 540C651 509 667 527 329 565C317 567 315 602 327 602Z"/>
<path id="z24740d8" d="M178 782C168 799 168 816 171 833C176 872 197 880 225 851C250 824 260 791 261 750C261 733 263 718 261 702C255 657 234 670 229 682C195 749 195 749 178 782Z"/>
<path id="z24740d9" d="M456 884C521 922 610 938 725 931C771 927 815 920 858 900C879 889 903 871 870 849C811 809 791 793 773 777C763 768 740 744 725 730C711 716 689 694 719 764C732 796 732 796 739 812C751 841 753 863 698 866C586 871 537 866 502 852C455 833 404 788 385 733C379 716 371 707 363 704C324 686 342 732 349 751C368 809 404 853 456 884Z"/>
<path id="z24740d10" d="M577 755C588 760 610 757 608 718C606 701 598 689 586 680C578 673 556 663 523 649C511 643 493 639 494 658C494 668 505 685 525 708C546 733 563 749 577 755Z"/>
<path id="z24740d11" d="M916 714C949 747 984 743 958 669C950 649 933 632 902 619C885 611 851 600 801 588C790 585 789 597 792 606C793 611 799 617 810 626C848 655 885 683 916 714Z"/>
<defs>
	<clipPath id="z24740c1"><use href="#z24740d1"/></clipPath>
	<clipPath id="z24740c2"><use href="#z24740d2"/></clipPath>
	<clipPath id="z24740c3"><use href="#z24740d3"/></clipPath>
	<clipPath id="z24740c4"><use href="#z24740d4"/></clipPath>
	<clipPath id="z24740c5"><use href="#z24740d5"/></clipPath>
	<clipPath id="z24740c6"><use href="#z24740d6"/></clipPath>
	<clipPath id="z24740c7"><use href="#z24740d7"/></clipPath>
	<clipPath id="z24740c8"><use href="#z24740d8"/></clipPath>
	<clipPath id="z24740c9"><use href="#z24740d9"/></clipPath>
	<clipPath id="z24740c10"><use href="#z24740d10"/></clipPath>
	<clipPath id="z24740c11"><use href="#z24740d11"/></clipPath>
</defs>
<path style="--d:1s;" pathLength="3333" clip-path="url(#z24740c1)" d="M469 58L493 105L397 211"/>
<path style="--d:2s;" pathLength="3333" clip-path="url(#z24740c2)" d="M269 201L306 259L301 630"/>
<path style="--d:3s;" pathLength="3333" clip-path="url(#z24740c3)" d="M317 221L357 231L671 175L732 209L731 648"/>
<path style="--d:4s;" pathLength="3333" clip-path="url(#z24740c4)" d="M464 233L474 274L366 388"/>
<path style="--d:5s;" pathLength="3333" clip-path="url(#z24740c5)" d="M474 309L576 289L608 319L502 435L371 510"/>
<path style="--d:6s;" pathLength="3333" clip-path="url(#z24740c6)" d="M380 327L630 493"/>
<path style="--d:7s;" pathLength="3333" clip-path="url(#z24740c7)" d="M324 590L629 549L694 566"/>
<path style="--d:8s;" pathLength="3333" clip-path="url(#z24740c8)" d="M243 675L190 862"/>
<path style="--d:9s;" pathLength="3333" clip-path="url(#z24740c9)" d="M348 702L428 834L493 876L597 898L733 896L834 860L710 723"/>
<path style="--d:10s;" pathLength="3333" clip-path="url(#z24740c10)" d="M501 652L600 747"/>
<path style="--d:11s;" pathLength="3333" clip-path="url(#z24740c11)" d="M796 596L925 675L945 730"/>
</svg>