<!--
AnimCJK 2016-2017 Copyright Francois Mizessyn, http://gooo.free.fr/animCJK/
Derived from:
    MakeMeAHanzi project - https://github.com/skishore/makemeahanzi
    Arphic PL KaitiM GB - https://apps.ubuntu.com/cat/applications/precise/fonts-arphic-gkai00mp/
    Arphic PL UKai - https://apps.ubuntu.com/cat/applications/fonts-arphic-ukai/
You can redistribute and/or modify this file under the terms of the Arphic Public License
as published by Arphic Technology Co., Ltd.
You should have received a copy of this license (the directory "APL") along with this file;
if not, see http://ftp.gnu.org/non-gnu/chinese-fonts-truetype/LICENSE.
-->
<svg id="z24745" class="acjk" version="1.1" viewBox="0 0 1024 1024" xmlns="http://www.w3.org/2000/svg" xmlns:xlink="http://www.w3.org/1999/xlink">
<style>
<![CDATA[
	@keyframes z24745k {
		from {
			stroke:#c00;
			stroke-dashoffset:3000;
		}
		75% {
			stroke:#c00;
			stroke-dashoffset:0;
		}
		to {
			stroke:#000;
		}
	}
	#z24745 path[clip-path] {
		animation:z24745k 1s linear both;
		stroke-dasharray:3000;
		stroke-width:128;
		stroke-linecap:round;
		fill:none;
	}
	#z24745 path[clip-path="url(#z24745c1)"] {animation-delay:1s;}
	#z24745 path[clip-path="url(#z24745c2)"] {animation-delay:2s;}
	#z24745 path[clip-path="url(#z24745c3)"] {animation-delay:3s;}
	#z24745 path[clip-path="url(#z24745c4)"] {animation-delay:4s;}
	#z24745 path[clip-path="url(#z24745c5)"] {animation-delay:5s;}
	#z24745 path[clip-path="url(#z24745c6)"] {animation-delay:6s;}
	#z24745 path[clip-path="url(#z24745c7)"] {animation-delay:7s;}
	#z24745 path[clip-path="url(#z24745c8)"] {animation-delay:8s;}
	#z24745 path[clip-path="url(#z24745c9)"] {animation-delay:9s;}
	#z24745 path[clip-path="url(#z24745c10)"] {animation-delay:10s;}
	#z24745 path {fill:#ccc;}
]]>
</style>
<g transform="scale(1,-1) translate(0,-900)">
	<path id="z24745d1" d="M143 490Q130 429 107 372Q95 335 118 303Q130 287 148 303Q193 357 181 436Q180 470 168 495Q161 502 155 502Q146 499 143 490Z"/>
	<path id="z24745d2" d="M310 498Q317 491 331 482Q355 463 380 441Q393 431 406 432Q416 433 419 444Q423 457 413 483Q407 499 381 510Q321 526 311 523L310 498Z"/>
	<path id="z24745d3" d="M313 543Q313 646 334 716Q349 741 323 759Q307 771 278 789Q254 807 233 791Q229 787 234 770Q265 722 266 674Q267 604 268 523Q264 384 259 231Q255 155 234 85Q222 45 248 -18Q254 -36 262 -39Q268 -46 276 -37Q303 -21 304 45Q303 93 312 518L313 543Z"/>
	<path id="z24745d4" d="M523 527C505 531 493 545 483 560C464 586 444 610 424 634C417 644 409 654 411 667C412 671 415 675 419 674C441 671 461 659 480 649C500 636 524 625 536 603C542 592 543 579 544 567C545 553 544 536 531 529C528 528 526 527 523 527Z"/>
	<path id="z24745d5" d="M662 607C645 608 632 620 624 633C603 660 581 687 559 712C553 720 545 728 544 738C544 744 544 750 548 754C561 755 573 748 585 743C607 733 628 721 648 708C662 698 675 684 676 666C679 650 682 634 678 619C674 614 669 607 662 607Z"/>
	<path id="z24745d6" d="M729 554C725 558 727 565 731 569C762 611 793 653 820 698C825 707 826 719 824 729C823 738 827 750 838 749C861 749 881 736 895 718C902 710 909 702 911 692C909 682 897 681 891 675C839 639 791 599 743 559C739 556 734 554 729 554Z"/>
	<path id="z24745d7" d="M518 182C517 183 513 183 516 185C541 212 565 242 588 271C599 285 612 299 622 314C635 336 649 358 658 382C670 411 683 441 683 473C683 480 680 487 680 494C682 501 691 500 697 501C720 501 741 488 756 472C759 469 763 464 759 460C742 423 720 389 699 354C684 329 666 306 648 283C618 250 587 217 549 194C539 189 529 184 518 182Z"/>
	<path id="z24745d8" d="M747 203C739 206 734 213 727 218C661 274 598 335 529 389C523 394 517 404 522 412C526 415 530 409 534 408C574 388 613 368 652 345C684 325 719 307 743 277C754 265 757 249 761 234C763 224 763 212 754 206C752 204 749 203 747 203Z"/>
	<path id="z24745d9" d="M431 21C418 22 409 32 400 40C393 47 383 56 387 67C391 80 404 88 411 100C429 131 432 169 434 204C436 247 426 289 407 327C405 334 401 345 409 349C424 353 438 343 450 336C461 328 474 319 481 307C489 290 483 271 483 254C480 212 478 170 475 129C473 121 473 109 482 105C493 101 504 108 514 110C608 133 705 147 801 155C802 142 802 129 802 116C775 118 748 114 721 110C659 100 596 88 535 70C506 61 476 51 451 32C446 27 441 21 432 21L432 21L431 21Z"/>
	<path id="z24745d10" d="M829 62C819 64 815 76 811 84C805 99 801 115 802 131C802 139 801 149 802 156C809 172 812 188 813 205C818 247 822 291 814 333C812 344 808 356 801 366C800 373 801 382 809 384C821 389 833 382 842 376C859 366 876 356 891 343C899 335 898 322 892 313C882 289 879 263 875 238C871 214 867 190 867 166C864 136 861 106 848 79C843 72 838 63 829 62Z"/>
	<defs>
		<clipPath id="z24745c1"><use xlink:href="#z24745d1"/></clipPath>
		<clipPath id="z24745c2"><use xlink:href="#z24745d2"/></clipPath>
		<clipPath id="z24745c3"><use xlink:href="#z24745d3"/></clipPath>
		<clipPath id="z24745c4"><use xlink:href="#z24745d4"/></clipPath>
		<clipPath id="z24745c5"><use xlink:href="#z24745d5"/></clipPath>
		<clipPath id="z24745c6"><use xlink:href="#z24745d6"/></clipPath>
		<clipPath id="z24745c7"><use xlink:href="#z24745d7"/></clipPath>
		<clipPath id="z24745c8"><use xlink:href="#z24745d8"/></clipPath>
		<clipPath id="z24745c9"><use xlink:href="#z24745d9"/></clipPath>
		<clipPath id="z24745c10"><use xlink:href="#z24745d10"/></clipPath>
	</defs>
	<path pathLength="2999" clip-path="url(#z24745c1)" d="M156 498L134 300"/>
	<path pathLength="2999" clip-path="url(#z24745c2)" d="M318 516L414 441"/>
	<path pathLength="2999" clip-path="url(#z24745c3)" d="M239 785L300 714L267 -37"/>
	<path pathLength="2999" clip-path="url(#z24745c4)" d="M418 670L501 593L528 532"/>
	<path pathLength="2999" clip-path="url(#z24745c5)" d="M551 744L635 674L668 616"/>
	<path pathLength="2999" clip-path="url(#z24745c6)" d="M903 693L845 700L732 563"/>
	<path pathLength="2999" clip-path="url(#z24745c7)" d="M687 495L720 456L682 374L524 187"/>
	<path pathLength="2999" clip-path="url(#z24745c8)" d="M529 401L715 267L751 210"/>
	<path pathLength="2999" clip-path="url(#z24745c9)" d="M413 342L457 275L434 84L450 66L801 135"/>
	<path pathLength="2999" clip-path="url(#z24745c10)" d="M809 382L857 316L828 68"/>
</g>
</svg>