<!--
AnimCJK 2016-2026 Copyright FM-SH - https://github.com/parsimonhi/animCJK
Derived from:
    MakeMeAHanzi project - https://github.com/skishore/makemeahanzi
    Arphic PL KaitiM GB font
    Arphic PL KaitiM Big5 font
You can redistribute and/or modify this file under the terms of the Arphic Public License
as published by Arphic Technology Co., Ltd.
You should have received a copy of this license along with this file.
If not, see https://ftp.gnu.org/non-gnu/chinese-fonts-truetype/LICENSE.
-->
<svg id="z24755" class="acjk" viewBox="0 0 1024 1024" xmlns="http://www.w3.org/2000/svg">
<style>
<![CDATA[
@keyframes zk {
	to {
		stroke-dashoffset:0;
	}
}
svg.acjk path[clip-path] {
	--t:0.8s;
	animation:zk var(--t) linear forwards var(--d);
	stroke-dasharray:3337;
	stroke-dashoffset:3339;
	stroke-width:128;
	stroke-linecap:round;
	fill:none;
	stroke:#000;
}
svg.acjk path[id] {fill:#ccc;}
]]>
</style>
<path id="z24755d1" d="M491 180C551 172 629 160 726 165C744 165 814 165 777 136C747 112 721 105 700 110C646 121 588 133 505 145C468 150 468 150 449 153C392 161 331 168 267 177C254 178 252 182 262 193C277 209 298 216 321 210C358 199 399 191 442 186C475 182 475 182 491 180Z"/>
<path id="z24755d2" d="M460 260C470 232 480 205 491 180C500 157 500 157 505 145C509 135 515 124 523 113C529 93 509 78 488 68C470 59 448 57 451 73C455 94 453 130 449 153C444 175 444 175 442 186C436 210 429 237 423 266C421 278 455 272 460 260Z"/>
<path id="z24755d3" d="M398 515C401 493 402 478 402 461C402 444 402 444 402 435C402 399 402 399 402 381C402 365 402 365 402 357C402 326 402 306 404 298C406 286 393 275 383 269C361 252 330 247 344 274C366 318 364 401 352 476C348 496 343 494 348 515C350 526 354 543 362 551C374 565 379 561 391 541C395 532 396 523 398 515Z"/>
<path id="z24755d4" d="M610 224C598 224 587 228 575 233C565 236 527 249 460 260C435 264 435 264 423 266C409 268 395 267 383 269C371 271 392 300 404 298C418 298 526 272 581 264C586 263 603 259 613 273C618 281 623 301 624 335C624 412 623 465 621 490C621 500 613 511 617 521C624 536 639 597 674 535C682 519 685 495 683 467C675 371 680 314 698 290C705 280 705 270 700 266C668 236 638 224 610 224Z"/>
<path id="z24755d5" d="M402 381C420 385 510 367 559 361C593 356 563 332 541 329C521 325 476 335 402 357C394 360 394 379 402 381Z"/>
<path id="z24755d6" d="M402 461C421 463 510 447 559 439C592 433 565 408 539 405C520 402 475 413 402 435C394 438 393 461 402 461Z"/>
<path id="z24755d7" d="M621 490C588 476 562 488 398 515C389 517 382 541 391 541C418 539 493 529 617 521C627 521 631 494 621 490Z"/>
<path id="z24755d8" d="M256 405C260 394 255 385 248 378C231 363 215 352 193 346C176 341 156 349 175 374C188 391 194 415 196 445C198 526 191 590 165 631C157 642 153 648 157 658C161 670 170 685 182 697C190 705 199 703 213 696C274 659 387 635 554 625C651 618 763 623 888 642C920 646 937 645 929 620C925 608 908 590 879 576C851 562 821 567 759 571C552 584 387 592 270 614C239 619 233 614 235 583C240 490 246 431 256 405Z"/>
<path id="z24755d9" d="M215 726C198 760 178 793 155 824C138 845 136 869 148 899C153 911 164 917 180 907C218 881 236 842 241 793C243 768 246 745 242 728C238 712 222 711 215 726Z"/>
<path id="z24755d10" d="M320 722C334 798 369 859 431 898C506 946 618 965 763 951C789 948 815 940 839 930C857 922 866 912 869 901C870 892 856 882 827 865C777 833 735 798 701 764C677 741 673 757 684 780C694 801 706 823 713 848C721 877 711 885 666 887C551 889 467 867 417 823C393 803 379 776 369 742C363 722 354 713 347 709C335 703 328 702 323 705C318 707 318 711 320 722Z"/>
<path id="z24755d11" d="M481 719C510 757 532 786 556 796C573 803 592 785 589 756C584 720 552 697 499 680C486 675 461 667 465 690C466 697 472 706 481 719Z"/>
<path id="z24755d12" d="M728 706C764 729 807 756 854 791C892 820 901 810 909 797C915 785 909 766 895 736C881 709 849 690 798 682C764 676 738 675 722 672C713 670 711 672 712 682C713 692 718 700 728 706Z"/>
<defs>
	<clipPath id="z24755c1"><use href="#z24755d1"/></clipPath>
	<clipPath id="z24755c2"><use href="#z24755d2"/></clipPath>
	<clipPath id="z24755c3"><use href="#z24755d3"/></clipPath>
	<clipPath id="z24755c4"><use href="#z24755d4"/></clipPath>
	<clipPath id="z24755c5"><use href="#z24755d5"/></clipPath>
	<clipPath id="z24755c6"><use href="#z24755d6"/></clipPath>
	<clipPath id="z24755c7"><use href="#z24755d7"/></clipPath>
	<clipPath id="z24755c8"><use href="#z24755d8"/></clipPath>
	<clipPath id="z24755c9"><use href="#z24755d9"/></clipPath>
	<clipPath id="z24755c10"><use href="#z24755d10"/></clipPath>
	<clipPath id="z24755c11"><use href="#z24755d11"/></clipPath>
	<clipPath id="z24755c12"><use href="#z24755d12"/></clipPath>
</defs>
<path style="--d:1s;" pathLength="3333" clip-path="url(#z24755c1)" d="M265 184L692 137L781 149"/>
<path style="--d:2s;" pathLength="3333" clip-path="url(#z24755c2)" d="M459 70L488 111L431 267"/>
<path style="--d:3s;" pathLength="3333" clip-path="url(#z24755c3)" d="M348 261L379 300L371 555"/>
<path style="--d:4s;" pathLength="3333" clip-path="url(#z24755c4)" d="M387 273L603 243L650 267L643 559"/>
<path style="--d:5s;" pathLength="3333" clip-path="url(#z24755c5)" d="M399 370L570 350"/>
<path style="--d:6s;" pathLength="3333" clip-path="url(#z24755c6)" d="M398 450L569 430"/>
<path style="--d:7s;" pathLength="3333" clip-path="url(#z24755c7)" d="M392 533L624 503"/>
<path style="--d:8s;" pathLength="3333" clip-path="url(#z24755c8)" d="M175 355L224 403L197 631L212 656L609 601L843 601L927 628"/>
<path style="--d:9s;" pathLength="3333" clip-path="url(#z24755c9)" d="M228 720L158 907"/>
<path style="--d:10s;" pathLength="3333" clip-path="url(#z24755c10)" d="M327 706L412 852L557 913L704 919L812 895L683 761"/>
<path style="--d:11s;" pathLength="3333" clip-path="url(#z24755c11)" d="M471 679L571 791"/>
<path style="--d:12s;" pathLength="3333" clip-path="url(#z24755c12)" d="M718 677L841 734L900 803"/>
</svg>