<!--
AnimCJK 2016-2026 Copyright FM-SH, https://github.com/parsimonhi/animCJK
Derived from:
    MakeMeAHanzi project - https://github.com/skishore/makemeahanzi
    Arphic PL KaitiM GB font
    Arphic PL KaitiM Big5 font
You can redistribute and/or modify this file under the terms of the Arphic Public License
as published by Arphic Technology Co., Ltd.
You should have received a copy of this license along with this file.
If not, see https://ftp.gnu.org/non-gnu/chinese-fonts-truetype/LICENSE.
-->
<svg id="z24760" class="acjk" viewBox="0 0 1024 1024" xmlns="http://www.w3.org/2000/svg">
<style>
<![CDATA[
@keyframes zk {
	to {
		stroke-dashoffset:0;
	}
}
svg.acjk path[clip-path] {
	--t:0.8s;
	animation:zk var(--t) linear forwards var(--d);
	stroke-dasharray:3337;
	stroke-dashoffset:3339;
	stroke-width:128;
	stroke-linecap:round;
	fill:none;
	stroke:#000;
}
svg.acjk path[id] {fill:#ccc;}
]]>
</style>
<path id="z24760d1" d="M125 329C113 370 104 413 89 455C80 476 84 497 99 518C105 527 116 529 127 518C156 487 164 439 160 379C158 358 157 339 148 325C140 313 128 316 125 329Z"/>
<path id="z24760d2" d="M275 292C318 321 313 315 351 342C358 347 380 356 385 336C386 328 383 316 377 302C363 272 295 268 275 268C267 268 269 287 275 292Z"/>
<path id="z24760d3" d="M275 268C275 215 280 171 294 136C298 124 304 115 300 107C296 99 274 86 238 63C221 52 206 49 193 61C189 64 188 72 194 82C214 115 227 155 227 207C227 497 217 664 207 733C198 783 193 808 195 827C196 846 201 859 210 874C234 914 246 891 258 868C265 851 267 832 267 811C265 744 275 325 275 292C275 276 275 276 275 268Z"/>
<path id="z24760d4" d="M610 133C648 123 679 113 722 101C749 93 746 82 736 74C700 42 671 28 652 32C646 32 644 38 644 45C640 71 575 104 454 153C448 155 448 162 453 164C467 168 530 153 563 145C594 137 594 137 610 133Z"/>
<path id="z24760d5" d="M643 265C673 259 735 248 809 242C824 240 847 229 807 208C785 196 754 194 709 207C676 216 641 223 622 228C593 234 593 234 578 237C550 242 491 248 404 259C385 261 383 268 398 280C417 296 441 302 473 297C491 293 511 290 533 286C606 272 606 272 643 265Z"/>
<path id="z24760d6" d="M622 228C633 147 655 157 610 133C596 125 555 131 563 145C573 163 578 193 578 237C577 278 577 278 577 298C576 348 571 383 570 403C568 417 572 433 583 447C589 455 603 473 609 433C611 418 612 397 613 369C613 335 611 299 616 270C620 242 620 242 622 228Z"/>
<path id="z24760d7" d="M533 286C494 348 440 406 370 459C332 488 326 502 387 477C458 446 539 369 577 298C599 262 558 252 533 286Z"/>
<path id="z24760d8" d="M616 270C658 318 700 369 747 416C760 429 779 435 802 436C842 436 883 430 927 424C953 420 947 411 934 407C908 397 880 390 851 382C800 368 731 329 643 265C636 259 611 263 616 270Z"/>
<path id="z24760d9" d="M632 596C696 550 736 525 753 521C765 517 768 510 765 500C762 490 742 473 703 451C691 444 678 443 665 449C626 463 577 478 520 495C505 499 479 501 443 500C428 499 423 505 429 518C433 526 441 533 453 540C470 550 490 546 515 536C603 499 654 486 664 492C671 496 674 503 670 510C654 533 635 557 616 584C613 590 627 600 632 596Z"/>
<path id="z24760d10" d="M654 633C649 620 638 603 632 596C627 591 621 588 616 584C609 579 601 575 591 572C559 561 542 578 561 592C577 604 590 617 600 640C604 651 606 663 609 675C624 747 621 797 600 844C591 862 575 868 551 866C533 864 516 863 500 861C492 859 488 864 494 870C516 893 544 914 566 941C589 970 615 945 632 926C696 849 679 746 664 669C661 656 658 644 654 633Z"/>
<path id="z24760d11" d="M664 669C709 663 792 663 911 663C937 663 945 648 924 630C892 602 862 594 838 600C790 610 728 623 654 633C618 638 618 638 600 640C517 650 426 663 328 675C315 676 312 682 323 693C343 715 370 717 390 713C483 689 555 680 609 675C646 671 646 671 664 669Z"/>
<defs>
	<clipPath id="z24760c1"><use href="#z24760d1"/></clipPath>
	<clipPath id="z24760c2"><use href="#z24760d2"/></clipPath>
	<clipPath id="z24760c3"><use href="#z24760d3"/></clipPath>
	<clipPath id="z24760c4"><use href="#z24760d4"/></clipPath>
	<clipPath id="z24760c5"><use href="#z24760d5"/></clipPath>
	<clipPath id="z24760c6"><use href="#z24760d6"/></clipPath>
	<clipPath id="z24760c7"><use href="#z24760d7"/></clipPath>
	<clipPath id="z24760c8"><use href="#z24760d8"/></clipPath>
	<clipPath id="z24760c9"><use href="#z24760d9"/></clipPath>
	<clipPath id="z24760c10"><use href="#z24760d10"/></clipPath>
	<clipPath id="z24760c11"><use href="#z24760d11"/></clipPath>
</defs>
<path style="--d:1s;" pathLength="3333" clip-path="url(#z24760c1)" d="M134 322L106 521"/>
<path style="--d:2s;" pathLength="3333" clip-path="url(#z24760c2)" d="M275 273L379 341"/>
<path style="--d:3s;" pathLength="3333" clip-path="url(#z24760c3)" d="M194 62L260 130L230 891"/>
<path style="--d:4s;" pathLength="3333" clip-path="url(#z24760c4)" d="M653 39L675 67L678 95L457 158"/>
<path style="--d:5s;" pathLength="3333" clip-path="url(#z24760c5)" d="M398 269L463 275L746 223L825 232"/>
<path style="--d:6s;" pathLength="3333" clip-path="url(#z24760c6)" d="M569 140L605 168L591 451"/>
<path style="--d:7s;" pathLength="3333" clip-path="url(#z24760c7)" d="M573 274L460 407L351 481"/>
<path style="--d:8s;" pathLength="3333" clip-path="url(#z24760c8)" d="M624 269L788 398L937 416"/>
<path style="--d:9s;" pathLength="3333" clip-path="url(#z24760c9)" d="M430 507L487 522L682 471L718 507L623 588"/>
<path style="--d:10s;" pathLength="3333" clip-path="url(#z24760c10)" d="M559 578L629 643L644 816L617 883L581 910L501 868"/>
<path style="--d:11s;" pathLength="3333" clip-path="url(#z24760c11)" d="M324 683L375 692L852 630L931 644"/>
</svg>