<!--
AnimCJK 2016-2026 Copyright FM-SH - https://github.com/parsimonhi/animCJK
Derived from:
    MakeMeAHanzi project - https://github.com/skishore/makemeahanzi
    Arphic PL KaitiM GB font
    Arphic PL KaitiM Big5 font
You can redistribute and/or modify this file under the terms of the Arphic Public License
as published by Arphic Technology Co., Ltd.
You should have received a copy of this license along with this file.
If not, see https://ftp.gnu.org/non-gnu/chinese-fonts-truetype/LICENSE.
-->
<svg id="z24876" class="acjk" viewBox="0 0 1024 1024" xmlns="http://www.w3.org/2000/svg">
<style>
<![CDATA[
@keyframes zk {
	to {
		stroke-dashoffset:0;
	}
}
svg.acjk path[clip-path] {
	--t:0.8s;
	animation:zk var(--t) linear forwards var(--d);
	stroke-dasharray:3337;
	stroke-dashoffset:3339;
	stroke-width:128;
	stroke-linecap:round;
	fill:none;
	stroke:#000;
}
svg.acjk path[id] {fill:#ccc;}
]]>
</style>
<path id="z24876d1" d="M269 171Q288 190 308 214Q320 227 334 227Q344 227 349 215Q353 202 348 175Q341 148 268 127Q255 123 248 125Q244 129 244 140Q247 150 269 171Z"/>
<path id="z24876d2" d="M456 108Q438 142 399 196Q395 203 399 209Q406 210 413 205Q486 145 523 123Q539 117 534 108Q528 95 510 79Q492 63 472 63Q459 64 460 81Q464 94 456 108Z"/>
<path id="z24876d3" d="M360 306Q405 296 547 276Q557 277 565 265Q566 255 544 244Q516 223 431 249Q271 283 128 305Q100 309 122 325Q156 349 180 342Q249 326 332 311C351 308 351 308 360 306Z"/>
<path id="z24876d4" d="M382 502Q437 484 465 492C476 494 477 458 467 460Q425 464 387 471C356 476 356 476 341 479Q296 486 259 499Q243 502 247 483Q259 414 251 400Q239 385 220 374Q210 370 202 370Q193 374 199 390Q215 427 208 463Q204 497 188 512Q173 527 179 538Q189 551 202 560Q212 566 221 559Q239 540 334 514C366 506 366 506 382 502Z"/>
<path id="z24876d5" d="M465 492Q466 508 471 520Q477 535 488 526Q509 510 522 442Q540 394 546 388Q553 378 547 365Q534 352 509 332Q499 325 489 329Q482 332 483 342Q490 354 487 408Q481 438 467 460C462 469 465 481 465 492Z"/>
<path id="z24876d6" d="M334 514Q333 515 333 519Q299 633 178 727Q168 736 179 737Q191 737 219 723Q262 701 295 666Q353 606 382 502C385 481 385 481 387 471Q388 464 389 458Q396 376 409 348Q416 332 402 325Q372 306 360 306C351 304 334 302 332 311Q329 315 333 323Q361 365 341 479C336 502 336 502 334 514Z"/>
<path id="z24876d7" d="M531 621Q597 546 620 452C624 436 624 436 626 428Q627 416 630 405Q634 375 637 346C638 327 638 327 639 317Q639 257 643 226C645 216 639 204 631 199Q594 175 577 183Q568 190 575 200Q617 266 581 454Q580 455 580 459Q561 535 523 606Q520 610 519 614C527 619 527 619 531 621Z"/>
<path id="z24876d8" d="M643 226Q668 220 739 202Q757 198 762 206Q766 218 769 238Q782 422 778 536Q777 561 770 571Q764 575 698 561Q679 555 681 564Q733 607 763 641Q776 657 789 662Q798 665 805 656Q842 607 836 533Q811 254 831 216Q841 198 831 189Q812 173 778 160Q760 151 705 182Q681 189 631 199C621 201 633 228 643 226Z"/>
<path id="z24876d9" d="M637 346Q689 337 729 330Q750 326 741 315Q731 302 708 300Q678 297 639 317C631 322 627 348 637 346Z"/>
<path id="z24876d10" d="M620 452Q624 453 633 452Q694 443 740 438Q761 434 753 423Q743 410 721 406Q685 400 626 428C618 431 612 452 620 452Z"/>
<path id="z24876d11" d="M258 729C241 765 223 800 202 833C189 852 189 876 200 903C205 915 215 918 230 908C264 884 281 843 285 789C286 766 288 745 283 729C280 722 275 719 271 719C264 719 260 722 258 729Z"/>
<path id="z24876d12" d="M334 715C344 783 373 838 425 874C493 922 593 942 721 932C741 930 761 924 781 917C797 910 806 901 809 892C810 885 798 875 775 857C733 826 701 791 674 757C664 746 654 741 656 748C662 779 682 821 681 859C680 873 652 873 631 873C528 871 456 849 415 808C395 789 383 764 376 735C372 717 364 708 358 705C348 700 342 699 337 701C333 702 332 705 334 715Z"/>
<path id="z24876d13" d="M480 692C518 726 547 749 570 755C578 757 586 752 591 744C594 735 595 725 592 716C583 687 547 667 488 655C478 652 470 653 465 656C461 657 459 661 462 669C463 675 470 683 480 692Z"/>
<path id="z24876d14" d="M731 723C756 744 783 769 812 796C819 803 828 807 838 807C844 806 850 803 853 795C856 786 854 772 850 755C843 728 802 703 728 679C718 676 712 675 708 677C703 678 701 683 704 692C706 698 714 708 731 723Z"/>
<defs>
	<clipPath id="z24876c1"><use href="#z24876d1"/></clipPath>
	<clipPath id="z24876c2"><use href="#z24876d2"/></clipPath>
	<clipPath id="z24876c3"><use href="#z24876d3"/></clipPath>
	<clipPath id="z24876c4"><use href="#z24876d4"/></clipPath>
	<clipPath id="z24876c5"><use href="#z24876d5"/></clipPath>
	<clipPath id="z24876c6"><use href="#z24876d6"/></clipPath>
	<clipPath id="z24876c7"><use href="#z24876d7"/></clipPath>
	<clipPath id="z24876c8"><use href="#z24876d8"/></clipPath>
	<clipPath id="z24876c9"><use href="#z24876d9"/></clipPath>
	<clipPath id="z24876c10"><use href="#z24876d10"/></clipPath>
	<clipPath id="z24876c11"><use href="#z24876d11"/></clipPath>
	<clipPath id="z24876c12"><use href="#z24876d12"/></clipPath>
	<clipPath id="z24876c13"><use href="#z24876d13"/></clipPath>
	<clipPath id="z24876c14"><use href="#z24876d14"/></clipPath>
</defs>
<path style="--d:1s;" pathLength="3333" clip-path="url(#z24876c1)" d="M251 129L337 221"/>
<path style="--d:2s;" pathLength="3333" clip-path="url(#z24876c2)" d="M468 69L495 112L403 202"/>
<path style="--d:3s;" pathLength="3333" clip-path="url(#z24876c3)" d="M121 314L560 259"/>
<path style="--d:4s;" pathLength="3333" clip-path="url(#z24876c4)" d="M205 376L230 410L214 515L228 530L470 471"/>
<path style="--d:5s;" pathLength="3333" clip-path="url(#z24876c5)" d="M491 334L518 381L477 523"/>
<path style="--d:6s;" pathLength="3333" clip-path="url(#z24876c6)" d="M336 310L378 347L345 548L269 667L178 731"/>
<path style="--d:7s;" pathLength="3333" clip-path="url(#z24876c7)" d="M581 191L616 224L610 403L580 518L527 611"/>
<path style="--d:8s;" pathLength="3333" clip-path="url(#z24876c8)" d="M634 206L756 180L799 203L798 593L782 617L689 563"/>
<path style="--d:9s;" pathLength="3333" clip-path="url(#z24876c9)" d="M635 338L735 319"/>
<path style="--d:10s;" pathLength="3333" clip-path="url(#z24876c10)" d="M619 445L747 428"/>
<path style="--d:11s;" pathLength="3333" clip-path="url(#z24876c11)" d="M271 723L215 910"/>
<path style="--d:12s;" pathLength="3333" clip-path="url(#z24876c12)" d="M341 702L418 841L553 896L664 903L752 883L662 751"/>
<path style="--d:13s;" pathLength="3333" clip-path="url(#z24876c13)" d="M465 664L588 745"/>
<path style="--d:14s;" pathLength="3333" clip-path="url(#z24876c14)" d="M710 684L805 747L846 801"/>
</svg>