<!--
AnimCJK 2016-2018 Copyright Francois Mizessyn, https://github.com/parsimonhi/animCJK
Derived from:
    MakeMeAHanzi project - https://github.com/skishore/makemeahanzi
    Arphic PL KaitiM GB - https://apps.ubuntu.com/cat/applications/precise/fonts-arphic-gkai00mp/
    Arphic PL UKai - https://apps.ubuntu.com/cat/applications/fonts-arphic-ukai/
You can redistribute and/or modify this file under the terms of the Arphic Public License
as published by Arphic Technology Co., Ltd.
You should have received a copy of this license (the directory "APL") along with this file;
if not, see http://ftp.gnu.org/non-gnu/chinese-fonts-truetype/LICENSE.
-->
<svg id="z24910" class="acjk" version="1.1" viewBox="0 0 1024 1024" xmlns="http://www.w3.org/2000/svg" xmlns:xlink="http://www.w3.org/1999/xlink">
<style>
<![CDATA[
@keyframes z24910k {
	from {
		stroke:#c00;
		stroke-dashoffset:3334;
	}
	75% {
		stroke:#c00;
		stroke-dashoffset:0;
	}
	to {
		stroke:#000;
	}
}
#z24910 path[clip-path] {
	animation:z24910k 1s linear both;
	stroke-dasharray:3334;
	stroke-width:128;
	stroke-linecap:round;
	fill:none;
}
#z24910 path[clip-path="url(#z24910c1)"] {animation-delay:1s;}
#z24910 path[clip-path="url(#z24910c2)"] {animation-delay:2s;}
#z24910 path[clip-path="url(#z24910c3)"] {animation-delay:3s;}
#z24910 path[clip-path="url(#z24910c4)"] {animation-delay:4s;}
#z24910 path[clip-path="url(#z24910c5)"] {animation-delay:5s;}
#z24910 path[clip-path="url(#z24910c6)"] {animation-delay:6s;}
#z24910 path[clip-path="url(#z24910c7)"] {animation-delay:7s;}
#z24910 path[clip-path="url(#z24910c8)"] {animation-delay:8s;}
#z24910 path[clip-path="url(#z24910c9)"] {animation-delay:9s;}
#z24910 path[clip-path="url(#z24910c10)"] {animation-delay:10s;}
#z24910 path[clip-path="url(#z24910c11)"] {animation-delay:11s;}
#z24910 path[clip-path="url(#z24910c12)"] {animation-delay:12s;}
#z24910 path[clip-path="url(#z24910c13)"] {animation-delay:13s;}
#z24910 path {fill:#ccc;}
]]>
</style>
<path id="z24910d1" d="M129 372Q114 442 87 506Q74 542 95 570Q105 585 123 570Q142 551 150 519Q166 467 162 423Q162 392 152 369Q145 362 140 362Q133 363 129 372 Z"/>
<path id="z24910d2" d="M297 312Q303 316 313 323Q341 344 372 368Q385 378 397 376Q406 375 409 364Q412 351 403 328Q391 298 306 285Q302 284 298 285L297 312 Z"/>
<path id="z24910d3" d="M298 285Q301 218 317 170Q326 155 323 142Q316 132 262 99Q240 83 219 97Q215 101 220 117Q253 165 253 243Q253 666 227 779Q223 792 219 807Q207 850 233 906Q239 924 247 927Q253 933 260 925Q267 921 278 901Q288 876 287 846Q286 795 297 331Q297 321 297 312L298 285 Z"/>
<path id="z24910d4" d="M622 226Q686 213 753 202Q802 192 810 185Q820 178 815 168Q808 156 778 148Q747 141 717 152Q674 165 632 176L579 188Q518 197 451 203Q414 207 440 226Q476 250 551 237Q563 234 576 234L622 226 Z"/>
<path id="z24910d5" d="M566 319C570 289 573 261 576 234L579 188C581 158 583 129 584 101C584 91 580 78 572 63C568 54 569 47 574 43C579 39 586 39 595 41C609 46 626 55 645 67C655 77 659 85 657 91C646 108 638 136 632 176L622 226C615 253 610 280 605 307C594 310 580 315 566 319 Z"/>
<path id="z24910d6" d="M498 331C494 327 484 322 469 315C463 313 457 313 451 315C447 318 446 323 450 329C450 334 452 339 455 343C469 372 473 416 465 534C456 595 456 609 466 623C468 628 471 633 476 638C482 645 487 645 493 638C497 632 500 626 502 619L505 589C505 583 505 579 506 531L506 506L506 440L507 418C507 392 507 386 509 360 Z"/>
<path id="z24910d7" d="M703 597C703 604 705 613 709 619C713 629 724 640 734 640C742 640 753 625 762 609C768 597 774 581 773 566C768 533 763 491 762 414C762 391 767 368 781 347C787 337 788 328 783 322C764 308 739 294 709 281C699 277 686 278 672 284C662 288 625 300 562 319L536 325C522 326 509 328 498 331L509 360C513 360 518 360 523 359C627 331 684 321 692 330C702 343 707 350 708 392C712 513 711 551 705 574C704 574 704 575 704 575 Z"/>
<path id="z24910d8" d="M506 440C508 441 512 441 516 440C566 432 611 425 649 420C661 418 665 414 661 406C655 398 645 393 631 390C609 388 567 398 507 418 Z"/>
<path id="z24910d9" d="M506 531L510 531C564 523 612 516 652 510C664 508 669 504 665 496C659 488 649 483 635 480C623 478 580 487 506 506 Z"/>
<path id="z24910d10" d="M502 619C508 619 514 619 521 618C559 610 619 603 703 597L704 575C701 571 696 567 690 563C680 559 666 558 649 562C594 575 546 584 505 589 Z"/>
<path id="z24910d11" d="M467 689Q400 696 328 706Q307 707 323 725Q336 738 355 744Q376 750 392 745Q584 697 903 696Q904 696 906 696Q925 696 931 688Q937 676 920 662Q863 620 801 638Q777 641 752 647L705 656Q630 665 509 684L467 689 Z"/>
<path id="z24910d12" d="M488 765Q470 823 334 920Q312 933 339 932Q391 935 512 846Q513 840 558 807Q570 797 569 786Q566 773 541 762Q513 749 500 751Q493 752 488 765 Z"/>
<path id="z24910d13" d="M667 771Q716 823 775 899Q790 920 804 925Q813 926 821 918Q834 905 825 862Q813 805 670 741Q661 735 659 747Q658 760 667 771 Z"/>
<defs>
	<clipPath id="z24910c1"><use xlink:href="#z24910d1"/></clipPath>
	<clipPath id="z24910c2"><use xlink:href="#z24910d2"/></clipPath>
	<clipPath id="z24910c3"><use xlink:href="#z24910d3"/></clipPath>
	<clipPath id="z24910c4"><use xlink:href="#z24910d4"/></clipPath>
	<clipPath id="z24910c5"><use xlink:href="#z24910d5"/></clipPath>
	<clipPath id="z24910c6"><use xlink:href="#z24910d6"/></clipPath>
	<clipPath id="z24910c7"><use xlink:href="#z24910d7"/></clipPath>
	<clipPath id="z24910c8"><use xlink:href="#z24910d8"/></clipPath>
	<clipPath id="z24910c9"><use xlink:href="#z24910d9"/></clipPath>
	<clipPath id="z24910c10"><use xlink:href="#z24910d10"/></clipPath>
	<clipPath id="z24910c11"><use xlink:href="#z24910d11"/></clipPath>
	<clipPath id="z24910c12"><use xlink:href="#z24910d12"/></clipPath>
	<clipPath id="z24910c13"><use xlink:href="#z24910d13"/></clipPath>
</defs>
<path pathLength="3333" clip-path="url(#z24910c1)" d="M139 370L103 572"/>
<path pathLength="3333" clip-path="url(#z24910c2)" d="M304 290L405 363"/>
<path pathLength="3333" clip-path="url(#z24910c3)" d="M225 102L284 158L251 924"/>
<path pathLength="3333" clip-path="url(#z24910c4)" d="M434 212L526 218L811 167"/>
<path pathLength="3333" clip-path="url(#z24910c5)" d="M576 46L620 96L571 312"/>
<path pathLength="3333" clip-path="url(#z24910c6)" d="M455 323L486 367L485 637"/>
<path pathLength="3333" clip-path="url(#z24910c7)" d="M506 333L697 304L745 343L730 636"/>
<path pathLength="3333" clip-path="url(#z24910c8)" d="M513 432L657 408"/>
<path pathLength="3333" clip-path="url(#z24910c9)" d="M516 522L658 498"/>
<path pathLength="3333" clip-path="url(#z24910c10)" d="M507 611L700 585"/>
<path pathLength="3333" clip-path="url(#z24910c11)" d="M322 714L378 723L828 665L926 682"/>
<path pathLength="3333" clip-path="url(#z24910c12)" d="M566 787L512 791L437 869L333 926"/>
<path pathLength="3333" clip-path="url(#z24910c13)" d="M666 747L782 852L811 921"/>
</svg>