<!--
AnimCJK 2016-2025 Copyright FM-SH - https://github.com/parsimonhi/animCJK
Derived from:
    MakeMeAHanzi project - https://github.com/skishore/makemeahanzi
    Arphic PL KaitiM GB font
    Arphic PL KaitiM Big5 font
You can redistribute and/or modify this file under the terms of the Arphic Public License
as published by Arphic Technology Co., Ltd.
You should have received a copy of this license along with this file.
If not, see https://ftp.gnu.org/non-gnu/chinese-fonts-truetype/LICENSE.
-->
<svg id="z24910" class="acjk" viewBox="0 0 1024 1024" xmlns="http://www.w3.org/2000/svg">
<style>
<![CDATA[
@keyframes zk {
	to {
		stroke-dashoffset:0;
	}
}
svg.acjk path[clip-path] {
	--t:0.8s;
	animation:zk var(--t) linear forwards var(--d);
	stroke-dasharray:3337;
	stroke-dashoffset:3339;
	stroke-width:128;
	stroke-linecap:round;
	fill:none;
	stroke:#000;
}
svg.acjk path[id] {fill:#ccc;}
]]>
</style>
<path id="z24910d1" d="M129 372C117 418 104 463 87 506C77 529 81 551 95 570C102 579 111 580 123 570C136 557 143 540 150 519C159 484 163 452 162 423C160 402 160 383 152 369C148 363 143 361 140 362C135 362 130 365 129 372Z"/>
<path id="z24910d2" d="M297 312C322 329 349 350 372 368C380 374 389 377 397 376C403 375 407 371 409 364C411 355 410 342 403 328C391 305 351 293 298 285C289 283 290 307 297 312Z"/>
<path id="z24910d3" d="M298 285C299 240 304 201 317 170C321 159 326 150 323 142C319 134 297 121 262 99C240 85 205 92 220 117C239 150 253 191 253 243C253 525 244 703 227 779C224 787 221 796 219 807C211 835 216 868 233 906C238 917 242 923 247 927C251 930 254 929 260 925C264 921 271 914 278 901C285 884 287 866 287 846C286 812 295 362 297 312C298 294 298 294 298 285Z"/>
<path id="z24910d4" d="M622 226C664 218 708 210 753 202C785 196 804 189 810 185C816 179 818 174 815 168C810 159 798 152 778 148C757 142 737 145 717 152C688 161 660 170 632 176C597 183 597 183 580 187C539 195 495 198 451 203C426 205 422 213 440 226C463 242 498 247 576 234C607 229 607 229 622 226Z"/>
<path id="z24910d5" d="M566 319C570 289 573 261 576 234C579 203 579 203 580 187C585 117 590 95 572 63C563 42 572 33 595 41C609 45 627 53 645 67C656 75 660 85 657 91C647 108 639 136 632 176C625 209 625 209 622 226C616 253 610 280 605 307C602 320 563 332 566 319Z"/>
<path id="z24910d6" d="M498 331C494 327 484 320 469 315C455 309 443 314 448 329C449 333 452 338 455 343C468 369 472 423 465 534C460 595 457 608 466 625C468 629 470 633 476 638C481 642 487 645 493 638C497 632 501 626 502 619C504 599 504 599 505 589C506 572 506 558 506 531C506 514 506 514 506 506C506 484 505 461 506 440C507 425 507 425 507 418C508 392 507 386 509 360C509 350 506 337 498 331Z"/>
<path id="z24910d7" d="M704 597C731 667 740 648 762 609C768 597 774 580 773 566C768 532 762 491 762 414C761 391 767 368 781 347C787 337 788 327 783 322C764 306 739 293 709 281C699 276 686 278 672 284C659 288 636 297 605 307C579 315 579 315 566 319C550 323 519 329 498 331C488 333 499 362 509 360C525 359 594 337 671 326C709 321 707 378 708 392C711 512 708 565 704 575C703 582 701 590 704 597Z"/>
<path id="z24910d8" d="M506 440C552 437 605 426 649 420C661 418 665 413 661 406C655 397 645 391 631 390C609 386 567 398 507 418C500 421 499 440 506 440Z"/>
<path id="z24910d9" d="M506 531C555 524 607 516 652 510C664 508 669 503 665 496C659 487 649 482 635 480C623 477 580 487 506 506C498 507 498 533 506 531Z"/>
<path id="z24910d10" d="M502 619C523 620 646 601 704 597C711 597 709 580 704 575C669 544 662 567 505 589C495 591 492 619 502 619Z"/>
<path id="z24910d11" d="M467 689C422 694 376 700 328 706C314 707 312 713 323 725C331 733 342 740 355 744C368 748 381 747 392 745C519 712 690 696 903 696C904 696 905 696 906 696C918 696 927 693 931 688C935 680 931 670 920 662C882 633 842 627 801 638C785 641 720 652 705 656C655 665 481 687 467 689Z"/>
<path id="z24910d12" d="M488 765C475 803 425 856 334 920C320 929 320 931 339 932C373 932 460 889 512 846C527 833 539 820 558 807C566 800 570 793 569 786C567 777 557 769 541 762C522 753 508 749 500 751C495 751 490 756 488 765Z"/>
<path id="z24910d13" d="M667 771C699 806 736 847 775 899C785 912 794 922 804 925C809 926 815 923 821 918C829 909 831 890 825 862C817 823 764 784 670 741C663 738 659 738 659 747C657 755 660 764 667 771Z"/>
<defs>
	<clipPath id="z24910c1"><use href="#z24910d1"/></clipPath>
	<clipPath id="z24910c2"><use href="#z24910d2"/></clipPath>
	<clipPath id="z24910c3"><use href="#z24910d3"/></clipPath>
	<clipPath id="z24910c4"><use href="#z24910d4"/></clipPath>
	<clipPath id="z24910c5"><use href="#z24910d5"/></clipPath>
	<clipPath id="z24910c6"><use href="#z24910d6"/></clipPath>
	<clipPath id="z24910c7"><use href="#z24910d7"/></clipPath>
	<clipPath id="z24910c8"><use href="#z24910d8"/></clipPath>
	<clipPath id="z24910c9"><use href="#z24910d9"/></clipPath>
	<clipPath id="z24910c10"><use href="#z24910d10"/></clipPath>
	<clipPath id="z24910c11"><use href="#z24910d11"/></clipPath>
	<clipPath id="z24910c12"><use href="#z24910d12"/></clipPath>
	<clipPath id="z24910c13"><use href="#z24910d13"/></clipPath>
</defs>
<path style="--d:1s;" pathLength="3333" clip-path="url(#z24910c1)" d="M140 370L103 571"/>
<path style="--d:2s;" pathLength="3333" clip-path="url(#z24910c2)" d="M299 292L406 364"/>
<path style="--d:3s;" pathLength="3333" clip-path="url(#z24910c3)" d="M223 103L284 158L247 922"/>
<path style="--d:4s;" pathLength="3333" clip-path="url(#z24910c4)" d="M435 211L551 215L809 165"/>
<path style="--d:5s;" pathLength="3333" clip-path="url(#z24910c5)" d="M575 43L621 93L582 321"/>
<path style="--d:6s;" pathLength="3333" clip-path="url(#z24910c6)" d="M454 318L485 357L484 635"/>
<path style="--d:7s;" pathLength="3333" clip-path="url(#z24910c7)" d="M502 338L687 302L744 341L725 635"/>
<path style="--d:8s;" pathLength="3333" clip-path="url(#z24910c8)" d="M506 431L654 406"/>
<path style="--d:9s;" pathLength="3333" clip-path="url(#z24910c9)" d="M507 520L658 497"/>
<path style="--d:10s;" pathLength="3333" clip-path="url(#z24910c10)" d="M498 608L703 586"/>
<path style="--d:11s;" pathLength="3333" clip-path="url(#z24910c11)" d="M324 714L379 723L843 664L926 684"/>
<path style="--d:12s;" pathLength="3333" clip-path="url(#z24910c12)" d="M502 753L521 793L334 925"/>
<path style="--d:13s;" pathLength="3333" clip-path="url(#z24910c13)" d="M666 748L773 841L814 917"/>
</svg>