<!--
AnimCJK 2016-2026 Copyright FM-SH, https://github.com/parsimonhi/animCJK
Derived from:
    MakeMeAHanzi project - https://github.com/skishore/makemeahanzi
    Arphic PL KaitiM GB font
    Arphic PL KaitiM Big5 font
You can redistribute and/or modify this file under the terms of the Arphic Public License
as published by Arphic Technology Co., Ltd.
You should have received a copy of this license along with this file.
If not, see https://ftp.gnu.org/non-gnu/chinese-fonts-truetype/LICENSE.
-->
<svg id="z24920" class="acjk" viewBox="0 0 1024 1024" xmlns="http://www.w3.org/2000/svg">
<style>
<![CDATA[
@keyframes zk {
	to {
		stroke-dashoffset:0;
	}
}
svg.acjk path[clip-path] {
	--t:0.8s;
	animation:zk var(--t) linear forwards var(--d);
	stroke-dasharray:3337;
	stroke-dashoffset:3339;
	stroke-width:128;
	stroke-linecap:round;
	fill:none;
	stroke:#000;
}
svg.acjk path[id] {fill:#ccc;}
]]>
</style>
<path id="z24920d1" d="M110 331Q101 401 81 468Q69 501 94 531Q106 546 122 529Q164 475 148 378Q145 347 132 325Q125 318 120 319Q113 322 110 331Z"/>
<path id="z24920d2" d="M264 275Q336 329 349 330Q350 329 353 329Q362 328 365 316Q368 303 357 278Q350 263 326 256Q275 244 266 248C257 250 257 270 264 275Z"/>
<path id="z24920d3" d="M266 248Q270 200 282 164Q292 149 288 135Q281 125 226 91Q202 73 181 89Q177 95 182 110Q213 159 215 234Q215 666 195 754Q177 827 183 847Q198 908 214 915Q220 922 228 913Q235 909 246 888Q256 863 255 831Q254 782 263 323Q263 298 264 275C265 257 265 257 266 248Z"/>
<path id="z24920d4" d="M686 129C641 139 596 150 552 167C542 170 538 169 544 161C581 101 606 67 615 58C620 51 622 45 618 39C614 32 598 24 571 14C562 10 554 10 549 13C541 16 541 24 546 35C560 70 542 116 490 169C484 174 477 179 471 186C464 192 461 199 464 205C467 213 477 223 492 234C498 238 505 238 512 232C532 210 595 181 703 146C710 143 694 127 686 129Z"/>
<path id="z24920d5" d="M703 146Q710 158 732 167Q744 170 752 159Q756 149 756 135Q749 102 703 88Q673 78 665 81Q661 82 662 92Q663 102 675 114Q681 121 686 129C697 140 697 140 703 146Z"/>
<path id="z24920d6" d="M496 331C470 339 443 349 417 362C415 362 403 368 412 356C446 305 471 278 480 270C486 263 487 258 484 252C480 245 466 236 441 226C432 222 425 221 420 224C413 226 411 233 415 245C426 281 405 324 349 374C347 375 345 376 344 378C337 384 335 390 337 396C339 404 348 413 363 424C369 428 376 428 382 422C396 404 438 380 508 350C515 347 503 330 496 331Z"/>
<path id="z24920d7" d="M555 371C557 364 558 354 558 341C557 328 539 311 501 294C483 285 479 288 479 302C478 308 486 316 496 331C504 344 504 344 508 350C516 363 522 373 527 378C533 386 553 380 555 371Z"/>
<path id="z24920d8" d="M771 284C740 288 708 296 676 306C666 308 665 305 670 299C701 251 721 224 730 216C735 210 737 205 733 198C729 191 714 184 688 175C679 172 672 171 667 174C660 176 659 183 664 195C679 231 658 273 600 322C592 328 591 334 594 341C597 349 605 358 620 368C626 372 632 372 639 366C659 348 707 327 783 304C790 302 779 282 771 284Z"/>
<path id="z24920d9" d="M783 304C795 324 805 337 816 339C837 342 840 310 840 291C840 279 832 265 817 254C780 226 757 213 748 217C744 218 742 223 741 231C740 236 752 253 771 284C779 297 779 297 783 304Z"/>
<path id="z24920d10" d="M591 403C599 392 597 381 555 371C546 369 529 369 527 378C526 400 500 480 319 645C244 712 314 677 330 667C470 585 546 460 574 425C585 410 585 410 591 403Z"/>
<path id="z24920d11" d="M574 425C636 483 702 539 770 594C787 607 808 614 835 613C881 610 929 600 979 587C1008 579 1001 570 984 566C951 557 914 550 875 541C728 505 711 478 591 403C583 398 567 419 574 425Z"/>
<path id="z24920d12" d="M555 482C573 553 430 685 425 690C421 693 420 698 427 697C482 680 554 609 605 537C620 514 633 509 613 489C603 479 589 470 574 468C565 467 550 465 555 482Z"/>
<path id="z24920d13" d="M615 566C616 597 597 637 557 685C550 693 490 754 449 787C444 790 444 792 451 793C502 794 588 723 658 625C678 596 688 577 646 560C635 555 626 554 621 555C616 555 614 559 615 566Z"/>
<path id="z24920d14" d="M672 668C660 805 513 908 410 984C404 987 404 992 412 992C545 977 674 816 735 742C753 719 767 711 746 685C726 660 704 650 680 653C673 653 672 658 672 668Z"/>
<defs>
	<clipPath id="z24920c1"><use href="#z24920d1"/></clipPath>
	<clipPath id="z24920c2"><use href="#z24920d2"/></clipPath>
	<clipPath id="z24920c3"><use href="#z24920d3"/></clipPath>
	<clipPath id="z24920c4"><use href="#z24920d4"/></clipPath>
	<clipPath id="z24920c5"><use href="#z24920d5"/></clipPath>
	<clipPath id="z24920c6"><use href="#z24920d6"/></clipPath>
	<clipPath id="z24920c7"><use href="#z24920d7"/></clipPath>
	<clipPath id="z24920c8"><use href="#z24920d8"/></clipPath>
	<clipPath id="z24920c9"><use href="#z24920d9"/></clipPath>
	<clipPath id="z24920c10"><use href="#z24920d10"/></clipPath>
	<clipPath id="z24920c11"><use href="#z24920d11"/></clipPath>
	<clipPath id="z24920c12"><use href="#z24920d12"/></clipPath>
	<clipPath id="z24920c13"><use href="#z24920d13"/></clipPath>
	<clipPath id="z24920c14"><use href="#z24920d14"/></clipPath>
</defs>
<path style="--d:1s;" pathLength="3333" clip-path="url(#z24920c1)" d="M119 330L100 533"/>
<path style="--d:2s;" pathLength="3333" clip-path="url(#z24920c2)" d="M264 258L357 322"/>
<path style="--d:3s;" pathLength="3333" clip-path="url(#z24920c3)" d="M184 91L248 166L225 912"/>
<path style="--d:4s;" pathLength="3333" clip-path="url(#z24920c4)" d="M550 19L585 57L502 183L516 200L700 138"/>
<path style="--d:5s;" pathLength="3333" clip-path="url(#z24920c5)" d="M669 87L747 159"/>
<path style="--d:6s;" pathLength="3333" clip-path="url(#z24920c6)" d="M421 231L450 270L377 384L396 394L504 339"/>
<path style="--d:7s;" pathLength="3333" clip-path="url(#z24920c7)" d="M486 296L532 342L537 378"/>
<path style="--d:8s;" pathLength="3333" clip-path="url(#z24920c8)" d="M668 179L701 217L639 328L780 299"/>
<path style="--d:9s;" pathLength="3333" clip-path="url(#z24920c9)" d="M749 220L823 333"/>
<path style="--d:10s;" pathLength="3333" clip-path="url(#z24920c10)" d="M532 375L555 404L491 497L293 679"/>
<path style="--d:11s;" pathLength="3333" clip-path="url(#z24920c11)" d="M581 408L810 568L992 575"/>
<path style="--d:12s;" pathLength="3333" clip-path="url(#z24920c12)" d="M561 472L588 507L564 554L429 691"/>
<path style="--d:13s;" pathLength="3333" clip-path="url(#z24920c13)" d="M623 563L640 600L605 657L453 787"/>
<path style="--d:14s;" pathLength="3333" clip-path="url(#z24920c14)" d="M680 659L710 710L647 805L527 922L414 987"/>
</svg>