<!--
AnimCJK 2016-2018 Copyright Francois Mizessyn, https://github.com/parsimonhi/animCJK
Derived from:
    MakeMeAHanzi project - https://github.com/skishore/makemeahanzi
    Arphic PL KaitiM GB - https://apps.ubuntu.com/cat/applications/precise/fonts-arphic-gkai00mp/
    Arphic PL UKai - https://apps.ubuntu.com/cat/applications/fonts-arphic-ukai/
You can redistribute and/or modify this file under the terms of the Arphic Public License
as published by Arphic Technology Co., Ltd.
You should have received a copy of this license (the directory "APL") along with this file;
if not, see http://ftp.gnu.org/non-gnu/chinese-fonts-truetype/LICENSE.
-->
<svg id="z24931" class="acjk" version="1.1" viewBox="0 0 1024 1024" xmlns="http://www.w3.org/2000/svg" xmlns:xlink="http://www.w3.org/1999/xlink">
<style>
<![CDATA[
@keyframes z24931k {
	from {
		stroke:#c00;
		stroke-dashoffset:3334;
	}
	75% {
		stroke:#c00;
		stroke-dashoffset:0;
	}
	to {
		stroke:#000;
	}
}
#z24931 path[clip-path] {
	animation:z24931k 1s linear both;
	stroke-dasharray:3334;
	stroke-width:128;
	stroke-linecap:round;
	fill:none;
}
#z24931 path[clip-path="url(#z24931c1)"] {animation-delay:1s;}
#z24931 path[clip-path="url(#z24931c2)"] {animation-delay:2s;}
#z24931 path[clip-path="url(#z24931c3)"] {animation-delay:3s;}
#z24931 path[clip-path="url(#z24931c4)"] {animation-delay:4s;}
#z24931 path[clip-path="url(#z24931c5)"] {animation-delay:5s;}
#z24931 path[clip-path="url(#z24931c6)"] {animation-delay:6s;}
#z24931 path[clip-path="url(#z24931c7)"] {animation-delay:7s;}
#z24931 path[clip-path="url(#z24931c8)"] {animation-delay:8s;}
#z24931 path[clip-path="url(#z24931c9)"] {animation-delay:9s;}
#z24931 path[clip-path="url(#z24931c10)"] {animation-delay:10s;}
#z24931 path[clip-path="url(#z24931c11)"] {animation-delay:11s;}
#z24931 path[clip-path="url(#z24931c12)"] {animation-delay:12s;}
#z24931 path[clip-path="url(#z24931c13)"] {animation-delay:13s;}
#z24931 path[clip-path="url(#z24931c14)"] {animation-delay:14s;}
#z24931 path {fill:#ccc;}
]]>
</style>
<path id="z24931d1" d="M148 355Q138 427 115 494Q103 527 129 562Q142 578 160 560Q205 503 188 407Q185 373 172 349Q165 342 159 342Q150 346 148 355 Z"/>
<path id="z24931d2" d="M311 331Q315 335 324 343Q349 365 376 395Q386 405 400 406Q409 406 413 395Q417 383 412 359Q406 331 322 303Q318 302 312 301L311 331 Z"/>
<path id="z24931d3" d="M312 301Q313 217 331 160Q340 145 337 131Q330 121 274 87Q250 71 229 86Q225 90 230 106Q263 154 263 220Q263 653 247 740Q243 762 236 787Q224 829 251 890Q258 908 266 911Q272 918 280 909Q287 905 298 884Q308 859 307 827Q306 778 311 331L312 301 Z"/>
<path id="z24931d4" d="M526 109Q492 85 485 94Q481 101 482 109Q506 145 497 236Q496 237 496 238L492 272Q480 329 460 352Q456 359 459 369Q465 382 481 394Q488 401 498 393Q550 354 668 354Q687 353 709 357L721 315Q700 300 642 315L639 315L600 324Q558 331 521 343Q511 347 511 336Q518 296 525 265L530 233Q536 202 538 182Q538 157 541 140Q541 139 542 138L526 109 Z"/>
<path id="z24931d5" d="M802 189Q809 149 833 124Q845 114 834 100Q821 85 780 62Q765 55 696 72Q692 72 595 94Q556 103 526 109L542 138Q570 129 611 121L645 114Q729 93 745 105Q761 117 758 141Q752 172 748 199L741 236Q729 300 722 314Q721 314 721 315L709 357Q724 376 737 382Q747 389 761 369Q773 344 794 233L802 189 Z"/>
<path id="z24931d6" d="M607 251Q603 282 600 324L639 315Q643 278 651 245L656 214Q659 195 662 177Q666 138 667 137Q657 124 645 114L611 121Q612 125 615 129Q618 141 610 221L607 251 Z"/>
<path id="z24931d7" d="M794 233Q836 230 934 230Q950 229 955 222Q959 212 945 200Q894 163 839 181Q821 184 802 189L748 199Q703 203 656 214L610 221Q570 225 530 233L496 238Q441 244 382 253Q364 254 378 269Q390 281 406 285Q424 289 437 286Q462 279 492 272L525 265Q564 255 607 251L651 245Q691 238 741 236L794 233 Z"/>
<path id="z24931d8" d="M518 460Q512 453 488 443Q479 439 469 443Q463 447 468 458Q469 464 473 470Q492 507 483 658Q465 730 499 772Q509 782 518 772Q522 765 526 756L528 730Q528 721 529 662L529 636Q529 602 529 577L529 554Q529 494 531 488L518 460 Z"/>
<path id="z24931d9" d="M736 734Q737 738 741 744Q754 771 762 770Q775 769 790 739Q803 715 799 669Q787 512 814 470Q823 455 816 446Q791 424 746 407Q733 403 711 410Q651 437 518 460L531 488Q558 473 698 446Q720 440 730 453Q742 469 742 522Q743 673 736 703Q735 704 735 705L736 734 Z"/>
<path id="z24931d10" d="M529 577Q533 578 544 577Q632 562 696 553Q717 550 709 539Q699 526 677 522Q653 518 529 554L529 577 Z"/>
<path id="z24931d11" d="M529 662Q533 663 542 662Q632 649 698 643Q720 639 713 627Q703 614 679 608Q658 604 529 636L529 662 Z"/>
<path id="z24931d12" d="M526 756Q532 756 540 756Q652 741 736 734L735 705Q731 701 722 700Q701 696 664 703Q592 718 528 730L526 756 Z"/>
<path id="z24931d13" d="M529 804Q511 855 398 937Q376 949 402 948Q462 952 592 843Q602 833 602 824Q601 812 577 802Q552 790 540 792Q533 792 529 804 Z"/>
<path id="z24931d14" d="M695 821Q744 873 802 949Q817 971 832 977Q841 978 849 970Q862 957 854 911Q850 887 835 869Q817 853 774 828Q725 801 699 789Q690 783 687 795Q686 808 695 821 Z"/>
<defs>
	<clipPath id="z24931c1"><use xlink:href="#z24931d1"/></clipPath>
	<clipPath id="z24931c2"><use xlink:href="#z24931d2"/></clipPath>
	<clipPath id="z24931c3"><use xlink:href="#z24931d3"/></clipPath>
	<clipPath id="z24931c4"><use xlink:href="#z24931d4"/></clipPath>
	<clipPath id="z24931c5"><use xlink:href="#z24931d5"/></clipPath>
	<clipPath id="z24931c6"><use xlink:href="#z24931d6"/></clipPath>
	<clipPath id="z24931c7"><use xlink:href="#z24931d7"/></clipPath>
	<clipPath id="z24931c8"><use xlink:href="#z24931d8"/></clipPath>
	<clipPath id="z24931c9"><use xlink:href="#z24931d9"/></clipPath>
	<clipPath id="z24931c10"><use xlink:href="#z24931d10"/></clipPath>
	<clipPath id="z24931c11"><use xlink:href="#z24931d11"/></clipPath>
	<clipPath id="z24931c12"><use xlink:href="#z24931d12"/></clipPath>
	<clipPath id="z24931c13"><use xlink:href="#z24931d13"/></clipPath>
	<clipPath id="z24931c14"><use xlink:href="#z24931d14"/></clipPath>
</defs>
<path pathLength="3333" clip-path="url(#z24931c1)" d="M161 346L135 563"/>
<path pathLength="3333" clip-path="url(#z24931c2)" d="M317 312L405 396"/>
<path pathLength="3333" clip-path="url(#z24931c3)" d="M233 89L297 149L270 906"/>
<path pathLength="3333" clip-path="url(#z24931c4)" d="M490 101L518 145L490 361L715 334"/>
<path pathLength="3333" clip-path="url(#z24931c5)" d="M534 112L747 81L793 108L727 374"/>
<path pathLength="3333" clip-path="url(#z24931c6)" d="M619 127L640 156L614 320"/>
<path pathLength="3333" clip-path="url(#z24931c7)" d="M382 261L842 205L949 216"/>
<path pathLength="3333" clip-path="url(#z24931c8)" d="M474 453L505 489L503 771"/>
<path pathLength="3333" clip-path="url(#z24931c9)" d="M527 462L728 426L778 463L763 765"/>
<path pathLength="3333" clip-path="url(#z24931c10)" d="M535 569L703 543"/>
<path pathLength="3333" clip-path="url(#z24931c11)" d="M536 654L710 632"/>
<path pathLength="3333" clip-path="url(#z24931c12)" d="M535 748L733 723"/>
<path pathLength="3333" clip-path="url(#z24931c13)" d="M598 824L552 828L477 902L396 943"/>
<path pathLength="3333" clip-path="url(#z24931c14)" d="M694 796L807 894L846 971"/>
</svg>