<!--
AnimCJK 2016-2017 Copyright Francois Mizessyn, http://gooo.free.fr/animCJK/
Derived from:
    MakeMeAHanzi project - https://github.com/skishore/makemeahanzi
    Arphic PL KaitiM GB - https://apps.ubuntu.com/cat/applications/precise/fonts-arphic-gkai00mp/
    Arphic PL UKai - https://apps.ubuntu.com/cat/applications/fonts-arphic-ukai/
You can redistribute and/or modify this file under the terms of the Arphic Public License
as published by Arphic Technology Co., Ltd.
You should have received a copy of this license (the directory "APL") along with this file;
if not, see http://ftp.gnu.org/non-gnu/chinese-fonts-truetype/LICENSE.
-->
<svg id="z24936" class="acjk" version="1.1" viewBox="0 0 1024 1024" xmlns="http://www.w3.org/2000/svg" xmlns:xlink="http://www.w3.org/1999/xlink">
<style>
<![CDATA[
	@keyframes z24936k {
		from {
			stroke:#c00;
			stroke-dashoffset:3000;
		}
		75% {
			stroke:#c00;
			stroke-dashoffset:0;
		}
		to {
			stroke:#000;
		}
	}
	#z24936 path[clip-path] {
		animation:z24936k 1s linear both;
		stroke-dasharray:3000;
		stroke-width:128;
		stroke-linecap:round;
		fill:none;
	}
	#z24936 path[clip-path="url(#z24936c1)"] {animation-delay:1s;}
	#z24936 path[clip-path="url(#z24936c2)"] {animation-delay:2s;}
	#z24936 path[clip-path="url(#z24936c3)"] {animation-delay:3s;}
	#z24936 path[clip-path="url(#z24936c4)"] {animation-delay:4s;}
	#z24936 path[clip-path="url(#z24936c5)"] {animation-delay:5s;}
	#z24936 path[clip-path="url(#z24936c6)"] {animation-delay:6s;}
	#z24936 path[clip-path="url(#z24936c7)"] {animation-delay:7s;}
	#z24936 path[clip-path="url(#z24936c8)"] {animation-delay:8s;}
	#z24936 path[clip-path="url(#z24936c9)"] {animation-delay:9s;}
	#z24936 path[clip-path="url(#z24936c10)"] {animation-delay:10s;}
	#z24936 path[clip-path="url(#z24936c11)"] {animation-delay:11s;}
	#z24936 path[clip-path="url(#z24936c12)"] {animation-delay:12s;}
	#z24936 path[clip-path="url(#z24936c13)"] {animation-delay:13s;}
	#z24936 path {fill:#ccc;}
]]>
</style>
<g transform="scale(1,-1) translate(0,-900)">
	<path id="z24936d1" d="M98 522Q88 455 66 392Q54 359 79 330Q89 314 107 331Q123 350 130 384Q140 433 134 474Q133 505 120 527Q113 534 108 534Q101 530 98 522Z"/>
	<path id="z24936d2" d="M245 544Q251 543 302 498Q314 488 326 489Q333 490 337 500Q341 512 332 535Q328 551 302 561Q277 568 249 575Q246 576 245 575L245 544Z"/>
	<path id="z24936d3" d="M245 575Q245 674 265 746Q280 771 250 791Q235 803 210 817Q188 833 167 819Q163 815 169 799Q200 748 202 672Q202 251 184 159Q178 131 170 101Q160 64 184 2Q191 -16 199 -19Q205 -26 212 -17Q239 -1 239 62Q238 111 245 544L245 575Z"/>
	<path id="z24936d4" d="M483 441Q484 437 486 433Q492 420 503 421Q515 424 521 438Q534 465 547 584Q556 630 585 660Q601 676 585 688Q567 701 521 720Q505 727 465 710Q432 700 405 688Q383 681 370 675L393 650Q453 681 493 682L494 682Q507 675 505 637Q495 507 484 470L483 441Z"/>
	<path id="z24936d5" d="M389 536Q432 546 467 552Q485 556 477 566Q468 576 448 578Q417 581 388 562L389 536Z"/>
	<path id="z24936d6" d="M389 422Q441 435 483 441L484 470Q448 482 389 449L389 422Z"/>
	<path id="z24936d7" d="M483 299Q471 296 396 255Q384 249 383 260Q387 347 389 422L389 449Q389 495 389 536L388 562Q389 605 393 650L370 675Q358 684 347 688Q332 694 324 689Q315 683 323 670Q377 571 341 272Q334 242 309 210Q299 197 305 178Q314 156 325 146Q337 139 346 153Q361 178 492 281Q492 282 493 282L483 299Z"/>
	<path id="z24936d8" d="M493 282Q508 252 523 247Q530 246 537 253Q544 263 545 287Q546 305 525 326Q471 368 460 366Q456 365 454 355Q454 352 483 299L493 282Z"/>
	<path id="z24936d9" d="M713 648Q713 649 831 680Q856 687 861 691Q870 700 864 708Q857 720 826 725Q795 729 765 715Q735 703 704 694Q670 684 627 679Q590 670 618 655Q633 646 659 643L713 648Z"/>
	<path id="z24936d10" d="M588 434C581 497 579 563 568 579C565 586 565 592 570 596C574 599 580 600 588 599C603 597 612 595 624 588C631 583 633 574 632 562C629 552 623 490 623 440L619 439C609 437 599 436 588 434Z"/>
	<path id="z24936d11" d="M734 428C765 432 806 434 868 433C879 432 888 434 894 441C898 450 894 456 886 465C860 488 828 486 793 479C770 473 721 461 721 461C696 456 672 451 648 446L619 439C595 436 570 431 545 424C534 422 533 417 541 407C547 398 555 392 565 389C575 386 585 387 593 390C627 403 664 414 704 422Z"/>
	<path id="z24936d12" d="M665 405Q628 207 502 95Q478 76 447 51Q437 45 433 42Q429 35 444 35Q498 35 602 138Q617 157 631 177Q691 276 715 412L721 449Q722 462 725 476Q740 570 754 603Q760 613 752 621Q739 634 713 648L659 643Q660 640 664 636Q688 608 686 579Q682 501 671 438L665 405Z"/>
	<path id="z24936d13" d="M991 76Q978 104 964 187Q963 202 957 206Q951 209 947 193Q925 105 907 76Q900 67 879 61Q831 52 786 69Q770 78 764 89Q742 137 767 290Q773 317 727 334Q715 338 708 333Q702 330 707 314Q719 278 717 245Q708 59 756 26Q768 20 787 12Q901 -24 985 39Q1003 52 991 76Z"/>
	<defs>
		<clipPath id="z24936c1"><use xlink:href="#z24936d1"/></clipPath>
		<clipPath id="z24936c2"><use xlink:href="#z24936d2"/></clipPath>
		<clipPath id="z24936c3"><use xlink:href="#z24936d3"/></clipPath>
		<clipPath id="z24936c4"><use xlink:href="#z24936d4"/></clipPath>
		<clipPath id="z24936c5"><use xlink:href="#z24936d5"/></clipPath>
		<clipPath id="z24936c6"><use xlink:href="#z24936d6"/></clipPath>
		<clipPath id="z24936c7"><use xlink:href="#z24936d7"/></clipPath>
		<clipPath id="z24936c8"><use xlink:href="#z24936d8"/></clipPath>
		<clipPath id="z24936c9"><use xlink:href="#z24936d9"/></clipPath>
		<clipPath id="z24936c10"><use xlink:href="#z24936d10"/></clipPath>
		<clipPath id="z24936c11"><use xlink:href="#z24936d11"/></clipPath>
		<clipPath id="z24936c12"><use xlink:href="#z24936d12"/></clipPath>
		<clipPath id="z24936c13"><use xlink:href="#z24936d13"/></clipPath>
	</defs>
	<path pathLength="2999" clip-path="url(#z24936c1)" d="M108 526L86 327"/>
	<path pathLength="2999" clip-path="url(#z24936c2)" d="M251 568L330 499"/>
	<path pathLength="2999" clip-path="url(#z24936c3)" d="M172 817L231 754L210 -15"/>
	<path pathLength="2999" clip-path="url(#z24936c4)" d="M377 675L507 702L549 664L498 426"/>
	<path pathLength="2999" clip-path="url(#z24936c5)" d="M395 545L474 562"/>
	<path pathLength="2999" clip-path="url(#z24936c6)" d="M392 430L482 458"/>
	<path pathLength="2999" clip-path="url(#z24936c7)" d="M325 686L364 642L369 586L345 214L356 193L486 291"/>
	<path pathLength="2999" clip-path="url(#z24936c8)" d="M462 356L513 301L526 252"/>
	<path pathLength="2999" clip-path="url(#z24936c9)" d="M612 669L861 703"/>
	<path pathLength="2999" clip-path="url(#z24936c10)" d="M574 592L603 565L597 439"/>
	<path pathLength="2999" clip-path="url(#z24936c11)" d="M542 418L801 457L891 451"/>
	<path pathLength="2999" clip-path="url(#z24936c12)" d="M669 640L720 606L659 292L574 140L440 41"/>
	<path pathLength="2999" clip-path="url(#z24936c13)" d="M712 326L741 289L740 100L782 42L880 30L945 59L955 201"/>
</g>
</svg>