<!--
AnimCJK 2016-2018 Copyright Francois Mizessyn, http://gooo.free.fr/animCJK/
Derived from:
    MakeMeAHanzi project - https://github.com/skishore/makemeahanzi
    Arphic PL KaitiM GB - https://apps.ubuntu.com/cat/applications/precise/fonts-arphic-gkai00mp/
    Arphic PL UKai - https://apps.ubuntu.com/cat/applications/fonts-arphic-ukai/
You can redistribute and/or modify this file under the terms of the Arphic Public License
as published by Arphic Technology Co., Ltd.
You should have received a copy of this license (the directory "APL") along with this file;
if not, see http://ftp.gnu.org/non-gnu/chinese-fonts-truetype/LICENSE.
-->
<svg id="z24931" class="acjk" version="1.1" viewBox="0 0 1024 1024" xmlns="http://www.w3.org/2000/svg" xmlns:xlink="http://www.w3.org/1999/xlink">
<style>
<![CDATA[
@keyframes z24931k {
	from {
		stroke:#ccc;
		stroke-dashoffset:3334;
	}
	1% {
		stroke:#c00;
		stroke-dashoffset:3334;
	}
	75% {
		stroke:#c00;
		stroke-dashoffset:0;
	}
	to {
		stroke:#000;
	}
}
#z24931 path[clip-path] {
	animation:z24931k 1s linear both;
	stroke-dasharray:3334;
	stroke-width:128;
	stroke-linecap:round;
	fill:none;
}
#z24931 path[clip-path="url(#z24931c1)"] {animation-delay:1s;}
#z24931 path[clip-path="url(#z24931c2)"] {animation-delay:2s;}
#z24931 path[clip-path="url(#z24931c3)"] {animation-delay:3s;}
#z24931 path[clip-path="url(#z24931c4)"] {animation-delay:4s;}
#z24931 path[clip-path="url(#z24931c5)"] {animation-delay:5s;}
#z24931 path[clip-path="url(#z24931c6)"] {animation-delay:6s;}
#z24931 path[clip-path="url(#z24931c7)"] {animation-delay:7s;}
#z24931 path[clip-path="url(#z24931c8)"] {animation-delay:8s;}
#z24931 path[clip-path="url(#z24931c9)"] {animation-delay:9s;}
#z24931 path[clip-path="url(#z24931c10)"] {animation-delay:10s;}
#z24931 path[clip-path="url(#z24931c11)"] {animation-delay:11s;}
#z24931 path[clip-path="url(#z24931c12)"] {animation-delay:12s;}
#z24931 path[clip-path="url(#z24931c13)"] {animation-delay:13s;}
#z24931 path[clip-path="url(#z24931c14)"] {animation-delay:14s;}
#z24931 path {fill:#ccc;}
]]>
</style>
<path id="z24931d1" d="M 148,355 C 140,402 130,449 115,494 107,516 111,538 129,562 137,572 149,573 160,560 191,522 197,471 188,407 184,384 181,364 172,349 168,343 162,341 159,342 152,343 148,348 148,355 Z"/>
<path id="z24931d2" d="M 311,331 C 313,333 318,337 324,343 340,357 357,375 376,395 382,401 390,405 400,406 406,406 410,402 413,395 415,387 415,375 412,359 408,340 388,323 332,305 329,304 316,301 312,301 Z"/>
<path id="z24931d3" d="M 312,301 C 313,245 317,197 331,160 335,149 340,139 337,131 333,123 311,110 274,87 257,76 242,75 229,86 226,88 224,96 230,106 249,139 263,176 263,220 263,508 257,682 247,740 244,754 240,770 236,787 228,815 233,849 251,890 256,901 261,907 266,911 271,914 273,914 280,909 284,905 291,898 298,884 305,867 307,848 307,827 306,794 301,628 311,331 Z"/>
<path id="z24931d4" d="M 526,109 C 503,93 490,88 485,94 480,98 479,104 482,109 496,134 503,190 497,236 495,248 493,260 492,272 487,307 472,336 460,352 456,356 456,362 459,369 462,377 470,385 481,394 486,398 491,398 498,393 532,366 589,354 668,354 680,353 694,354 709,357 L 721,315 C 707,305 667,308 639,315 L 600,324 C 572,330 545,334 521,343 514,345 510,343 511,336 514,309 521,285 525,265 L 530,233 C 536,192 540,147 542,138 Z"/>
<path id="z24931d5" d="M 802,189 C 806,162 816,140 833,124 840,116 841,109 834,100 825,89 807,76 780,62 770,56 742,61 696,72 693,72 659,79 595,94 569,99 546,105 526,109 L 542,138 C 560,132 583,126 611,121 L 645,114 C 701,102 734,97 745,105 755,113 760,125 758,141 754,161 751,181 748,199 L 741,236 C 732,278 726,306 721,315 L 709,357 C 719,369 728,377 737,382 744,386 752,383 761,369 770,353 780,307 794,233 Z"/>
<path id="z24931d6" d="M 607,251 C 604,271 602,296 600,324 L 639,315 C 641,290 647,267 651,245 L 656,214 C 662,173 668,146 667,139 664,128 653,120 645,114 L 611,121 C 613,125 616,128 616,132 617,144 615,167 610,221 Z"/>
<path id="z24931d7" d="M 794,233 C 822,231 868,230 934,230 944,229 952,227 955,222 958,215 954,207 945,200 911,174 876,170 839,181 827,184 814,186 802,189 L 748,199 C 718,204 687,209 656,214 L 610,221 C 583,225 556,229 530,233 L 496,238 C 459,243 421,247 382,253 370,254 368,259 378,269 385,277 395,282 406,285 418,287 428,288 437,286 453,281 471,276 492,272 L 525,265 C 551,259 578,254 607,251 L 651,245 C 677,241 707,237 741,236 Z"/>
<path id="z24931d8" d="M 518,460 C 514,455 504,449 488,443 482,440 475,439 469,443 464,445 465,450 468,458 469,461 470,465 473,470 486,494 495,557 483,658 477,707 475,744 499,772 505,779 512,779 518,772 521,767 525,762 526,756 L 528,730 C 528,724 529,701 529,662 529,662 529,644 529,636 529,616 529,596 529,577 529,569 529,561 529,554 529,514 529,492 531,488 Z"/>
<path id="z24931d9" d="M 736,734 C 736,736 738,739 741,744 750,761 756,770 762,770 770,769 779,760 790,741 798,724 801,699 799,669 790,564 796,498 814,470 820,460 821,451 816,446 800,430 776,417 746,407 737,403 725,404 711,410 670,426 606,444 518,460 L 531,488 C 549,478 604,465 698,446 712,443 723,444 730,453 738,463 741,486 742,522 742,622 740,683 736,703 735,703 735,704 735,705 Z"/>
<path id="z24931d10" d="M 529,577 C 531,577 536,578 544,577 602,567 653,559 696,553 710,551 714,546 709,539 702,530 691,524 677,522 661,519 611,530 529,554 Z"/>
<path id="z24931d11" d="M 529,662 C 531,662 536,662 542,662 602,653 654,648 698,643 712,641 718,634 713,627 706,618 695,611 679,608 665,604 615,614 529,636 Z"/>
<path id="z24931d12" d="M526 756Q532 756 540 756Q652 741 736 734L735 705Q731 701 722 700Q701 696 664 703Q592 718 528 730L526 756 Z"/>
<path id="z24931d13" d="M 529,804 C 517,838 477,887 398,937 380,948 392,949 402,948 441,942 505,916 592,843 599,836 602,830 602,824 601,816 592,809 577,802 560,794 548,791 540,792 535,792 531,796 529,804 Z"/>
<path id="z24931d14" d="M 695,821 C 726,856 763,897 802,949 812,963 821,974 832,977 837,978 843,975 849,970 857,961 859,941 854,911 851,895 845,880 835,869 823,857 802,844 774,828 741,809 716,797 699,789 692,785 688,786 687,795 685,803 688,813 695,821 Z"/>
<defs>
	<clipPath id="z24931c1"><use xlink:href="#z24931d1"/></clipPath>
	<clipPath id="z24931c2"><use xlink:href="#z24931d2"/></clipPath>
	<clipPath id="z24931c3"><use xlink:href="#z24931d3"/></clipPath>
	<clipPath id="z24931c4"><use xlink:href="#z24931d4"/></clipPath>
	<clipPath id="z24931c5"><use xlink:href="#z24931d5"/></clipPath>
	<clipPath id="z24931c6"><use xlink:href="#z24931d6"/></clipPath>
	<clipPath id="z24931c7"><use xlink:href="#z24931d7"/></clipPath>
	<clipPath id="z24931c8"><use xlink:href="#z24931d8"/></clipPath>
	<clipPath id="z24931c9"><use xlink:href="#z24931d9"/></clipPath>
	<clipPath id="z24931c10"><use xlink:href="#z24931d10"/></clipPath>
	<clipPath id="z24931c11"><use xlink:href="#z24931d11"/></clipPath>
	<clipPath id="z24931c12"><use xlink:href="#z24931d12"/></clipPath>
	<clipPath id="z24931c13"><use xlink:href="#z24931d13"/></clipPath>
	<clipPath id="z24931c14"><use xlink:href="#z24931d14"/></clipPath>
</defs>
<path pathLength="3333" clip-path="url(#z24931c1)" d="M161 346L135 563"/>
<path pathLength="3333" clip-path="url(#z24931c2)" d="M317 312L405 396"/>
<path pathLength="3333" clip-path="url(#z24931c3)" d="M233 89L297 149L270 906"/>
<path pathLength="3333" clip-path="url(#z24931c4)" d="M490 101L518 145L490 361L715 334"/>
<path pathLength="3333" clip-path="url(#z24931c5)" d="M534 112L747 81L793 108L727 374"/>
<path pathLength="3333" clip-path="url(#z24931c6)" d="M619 127L640 156L614 320"/>
<path pathLength="3333" clip-path="url(#z24931c7)" d="M382 261L842 205L949 216"/>
<path pathLength="3333" clip-path="url(#z24931c8)" d="M474 453L505 489L503 771"/>
<path pathLength="3333" clip-path="url(#z24931c9)" d="M527 462L728 426L778 463L763 765"/>
<path pathLength="3333" clip-path="url(#z24931c10)" d="M535 569L703 543"/>
<path pathLength="3333" clip-path="url(#z24931c11)" d="M536 654L710 632"/>
<path pathLength="3333" clip-path="url(#z24931c12)" d="M535 748L733 723"/>
<path pathLength="3333" clip-path="url(#z24931c13)" d="M598 824L552 828L477 902L396 943"/>
<path pathLength="3333" clip-path="url(#z24931c14)" d="M694 796L807 894L846 971"/>
</svg>