<!--
AnimCJK 2016-2026 Copyright FM-SH - https://github.com/parsimonhi/animCJK
Derived from:
    MakeMeAHanzi project - https://github.com/skishore/makemeahanzi
    Arphic PL KaitiM GB font
    Arphic PL KaitiM Big5 font
You can redistribute and/or modify this file under the terms of the Arphic Public License
as published by Arphic Technology Co., Ltd.
You should have received a copy of this license along with this file.
If not, see https://ftp.gnu.org/non-gnu/chinese-fonts-truetype/LICENSE.
-->
<svg id="z25006" class="acjk" viewBox="0 0 1024 1024" xmlns="http://www.w3.org/2000/svg">
<style>
<![CDATA[
@keyframes zk {
	to {
		stroke-dashoffset:0;
	}
}
svg.acjk path[clip-path] {
	--t:0.8s;
	animation:zk var(--t) linear forwards var(--d);
	stroke-dasharray:3337;
	stroke-dashoffset:3339;
	stroke-width:128;
	stroke-linecap:round;
	fill:none;
	stroke:#000;
}
svg.acjk path[id] {fill:#ccc;}
]]>
</style>
<path id="z25006d1" d="M145 364C131 409 117 454 98 498C87 520 90 541 104 561C110 571 120 573 132 563C145 551 153 533 160 513C171 478 176 445 176 415C175 394 174 375 167 361C164 355 159 352 156 353C150 353 146 358 145 364Z"/>
<path id="z25006d2" d="M304 313C362 351 394 371 401 372C408 372 412 364 413 360C414 351 415 338 406 326C387 301 339 288 305 284C296 282 296 307 304 313Z"/>
<path id="z25006d3" d="M305 284C306 233 312 189 326 153C330 141 335 132 332 124C328 116 306 103 270 79C253 67 238 66 225 77C222 79 220 87 226 97C243 128 256 168 257 221C257 503 247 682 227 756C225 762 223 768 222 775C213 803 218 836 236 877C240 888 245 895 250 899C254 902 257 902 264 897C268 893 275 886 282 872C289 855 292 836 292 816C292 783 293 615 304 313C305 294 305 294 305 284Z"/>
<path id="z25006d4" d="M587 268Q618 226 651 167Q666 136 679 122Q688 110 682 97Q676 85 646 65Q618 50 600 52Q581 56 591 76Q612 109 556 229Q531 284 492 345Q483 355 481 362Q480 374 493 370Q517 360 571 290C582 275 582 275 587 268Z"/>
<path id="z25006d5" d="M571 290Q610 312 665 299Q734 284 806 268Q839 261 843 255Q852 248 847 239Q840 229 812 222Q782 216 754 228Q717 241 677 252Q635 262 587 268C578 270 563 286 571 290Z"/>
<path id="z25006d6" d="M812 461Q863 454 911 449Q920 450 928 440Q929 430 910 419Q882 398 825 416C788 425 788 425 770 429Q731 436 697 444C666 451 666 451 651 454Q618 458 587 464C558 469 558 469 544 471Q531 471 486 476C457 479 457 479 443 481Q415 482 384 486Q359 489 378 505Q402 526 452 520C477 515 477 515 490 512Q518 506 548 502C575 497 575 497 589 494Q617 488 651 483C679 479 679 479 693 477Q739 468 765 467C796 463 796 463 812 461Z"/>
<path id="z25006d7" d="M486 476Q483 428 473 423Q454 411 431 407Q419 404 413 410Q409 416 414 427Q433 452 443 481C449 507 449 507 452 520Q459 554 473 615C475 626 507 622 505 611Q495 553 490 512C487 488 487 488 486 476Z"/>
<path id="z25006d8" d="M587 464Q586 454 586 446Q586 436 585 428Q589 413 581 406Q562 390 543 384Q533 383 526 386Q520 390 523 398Q535 420 544 471C547 492 547 492 548 502Q552 539 561 603C563 615 596 610 596 598Q592 541 589 494C588 474 588 474 587 464Z"/>
<path id="z25006d9" d="M697 444Q697 422 711 386Q714 379 699 366Q674 351 656 347Q644 344 638 350Q632 356 638 367Q651 388 651 401Q651 426 651 454C651 473 651 473 651 483Q650 534 646 591C646 602 677 596 679 585Q686 528 693 477C696 455 696 455 697 444Z"/>
<path id="z25006d10" d="M783 568Q798 513 812 461C821 431 821 431 825 416Q829 403 834 393Q840 381 843 373Q847 366 834 350Q809 331 790 323Q777 319 770 324Q763 328 767 342Q779 366 776 381Q773 403 770 429C767 454 767 454 765 467Q758 518 746 574C744 586 781 580 783 568Z"/>
<path id="z25006d11" d="M473 615Q413 621 352 631Q331 632 347 649Q360 662 378 667Q397 673 414 668Q618 611 951 611Q970 611 975 602Q981 592 964 578Q909 536 848 555Q818 561 783 568C758 572 758 572 746 574Q712 578 679 585C657 589 657 589 646 591Q643 590 641 591Q619 594 596 598C573 601 573 601 561 603Q533 606 505 611C484 614 484 614 473 615Z"/>
<path id="z25006d12" d="M437 705Q416 754 387 799Q369 829 385 860Q392 876 412 865Q457 831 461 757Q465 727 459 705Q455 698 449 696Q442 697 437 705Z"/>
<path id="z25006d13" d="M532 728Q542 794 559 814Q568 823 580 817Q590 811 596 798Q603 765 558 707Q548 697 540 695Q536 694 531 703Q527 712 532 728Z"/>
<path id="z25006d14" d="M658 722Q680 782 705 807Q715 814 728 806Q737 797 740 783Q740 744 681 696C680 695 680 695 680 695Q668 685 659 686Q655 685 652 696Q651 706 658 722Z"/>
<path id="z25006d15" d="M796 699Q836 751 883 824Q895 845 909 851Q916 854 925 846Q938 836 934 792Q931 747 802 670Q795 664 790 675Q789 688 796 699Z"/>
<defs>
	<clipPath id="z25006c1"><use href="#z25006d1"/></clipPath>
	<clipPath id="z25006c2"><use href="#z25006d2"/></clipPath>
	<clipPath id="z25006c3"><use href="#z25006d3"/></clipPath>
	<clipPath id="z25006c4"><use href="#z25006d4"/></clipPath>
	<clipPath id="z25006c5"><use href="#z25006d5"/></clipPath>
	<clipPath id="z25006c6"><use href="#z25006d6"/></clipPath>
	<clipPath id="z25006c7"><use href="#z25006d7"/></clipPath>
	<clipPath id="z25006c8"><use href="#z25006d8"/></clipPath>
	<clipPath id="z25006c9"><use href="#z25006d9"/></clipPath>
	<clipPath id="z25006c10"><use href="#z25006d10"/></clipPath>
	<clipPath id="z25006c11"><use href="#z25006d11"/></clipPath>
	<clipPath id="z25006c12"><use href="#z25006d12"/></clipPath>
	<clipPath id="z25006c13"><use href="#z25006d13"/></clipPath>
	<clipPath id="z25006c14"><use href="#z25006d14"/></clipPath>
	<clipPath id="z25006c15"><use href="#z25006d15"/></clipPath>
</defs>
<path style="--d:1s;" pathLength="3333" clip-path="url(#z25006c1)" d="M158 356L118 566"/>
<path style="--d:2s;" pathLength="3333" clip-path="url(#z25006c2)" d="M304 293L407 365"/>
<path style="--d:3s;" pathLength="3333" clip-path="url(#z25006c3)" d="M228 81L291 146L256 896"/>
<path style="--d:4s;" pathLength="3333" clip-path="url(#z25006c4)" d="M593 58L638 119L487 363"/>
<path style="--d:5s;" pathLength="3333" clip-path="url(#z25006c5)" d="M574 283L845 243"/>
<path style="--d:6s;" pathLength="3333" clip-path="url(#z25006c6)" d="M377 493L450 500L920 437"/>
<path style="--d:7s;" pathLength="3333" clip-path="url(#z25006c7)" d="M418 413L459 452L489 619"/>
<path style="--d:8s;" pathLength="3333" clip-path="url(#z25006c8)" d="M532 391L561 426L576 607"/>
<path style="--d:9s;" pathLength="3333" clip-path="url(#z25006c9)" d="M642 353L680 393L655 593"/>
<path style="--d:10s;" pathLength="3333" clip-path="url(#z25006c10)" d="M773 330L810 370L759 577"/>
<path style="--d:11s;" pathLength="3333" clip-path="url(#z25006c11)" d="M351 640L871 581L972 593"/>
<path style="--d:12s;" pathLength="3333" clip-path="url(#z25006c12)" d="M448 701L394 865"/>
<path style="--d:13s;" pathLength="3333" clip-path="url(#z25006c13)" d="M538 701L580 814"/>
<path style="--d:14s;" pathLength="3333" clip-path="url(#z25006c14)" d="M661 691L718 807"/>
<path style="--d:15s;" pathLength="3333" clip-path="url(#z25006c15)" d="M797 672L895 781L917 846"/>
</svg>