<!--
AnimCJK 2016-2019 Copyright Francois Mizessyn - https://github.com/parsimonhi/animCJK
Derived from:
    MakeMeAHanzi project - https://github.com/skishore/makemeahanzi
    Arphic PL KaitiM GB font
    Arphic PL UKai font
You can redistribute and/or modify this file under the terms of the Arphic Public License
as published by Arphic Technology Co., Ltd.
You should have received a copy of this license along with this file.
If not, see http://ftp.gnu.org/non-gnu/chinese-fonts-truetype/LICENSE.
-->
<svg id="z25014" class="acjk" version="1.1" viewBox="0 0 1024 1024" xmlns="http://www.w3.org/2000/svg" xmlns:xlink="http://www.w3.org/1999/xlink">
<style>
<![CDATA[
@keyframes zk {
	to {
		stroke-dashoffset:0;
	}
}
svg.acjk path[clip-path] {
	--t:0.8s;
	animation:zk var(--t) linear forwards var(--d);
	stroke-dasharray:3337;
	stroke-dashoffset:3339;
	stroke-width:128;
	stroke-linecap:round;
	fill:none;
	stroke:#000;
}
svg.acjk path[id] {fill:#ccc;}
]]>
</style>
<path id="z25014d1" d="M104 378Q92 436 70 489Q57 528 82 557Q94 573 112 557Q155 506 142 432Q141 398 128 373Q121 366 115 366Q106 369 104 378Z"/>
<path id="z25014d2" d="M273 279Q286 282 344 311Q357 318 369 314Q376 311 377 300Q378 288 364 268Q349 244 275 249C265 249 263 277 273 279Z"/>
<path id="z25014d3" d="M275 249Q279 197 291 156Q300 141 297 127Q290 117 234 83Q210 67 189 82Q185 86 190 102Q223 150 224 219Q224 663 208 751Q202 773 196 799Q184 841 211 902Q218 920 226 923Q233 930 240 921Q247 917 258 896Q264 881 267 759Q267 357 273 279C274 259 274 259 275 249Z"/>
<path id="z25014d4" d="M599 77Q617 89 637 104Q650 114 665 111Q675 110 677 96Q678 83 666 57Q659 44 636 38Q576 31 567 37Q563 41 567 53Q571 62 599 77Z"/>
<path id="z25014d5" d="M714 181Q726 177 740 174Q785 162 791 156Q798 149 795 142Q788 132 763 126Q738 122 627 161Q549 176 471 192Q440 198 462 212Q475 219 495 223Q499 223 504 224C516 224 516 224 522 224Q532 223 546 219Q609 204 678 189C702 184 702 184 714 181Z"/>
<path id="z25014d6" d="M504 224Q498 236 526 288Q535 306 548 310Q558 314 568 301Q572 291 570 273Q563 246 522 224C517 221 505 218 504 224Z"/>
<path id="z25014d7" d="M675 310Q705 273 738 234Q751 224 745 213Q738 198 714 181C704 174 676 177 678 189Q684 207 659 283Q650 301 648 317C646 326 669 317 675 310Z"/>
<path id="z25014d8" d="M648 317Q644 316 641 317Q524 341 386 367Q367 371 382 385Q409 406 466 392Q601 344 919 320Q937 319 941 311Q945 301 930 289Q876 256 829 272Q766 288 675 310C657 315 657 315 648 317Z"/>
<path id="z25014d9" d="M480 436Q471 432 462 432Q452 431 448 435Q444 439 451 454Q479 509 497 601Q501 628 517 646Q533 665 538 651Q539 644 541 634C543 625 540 615 538 606Q537 599 536 591Q530 566 526 544C523 529 523 529 522 522Q513 477 512 463C510 449 493 441 480 436Z"/>
<path id="z25014d10" d="M680 610Q680 611 682 613Q701 643 717 650Q727 657 741 638Q754 616 779 500Q786 472 808 448Q821 436 809 423Q796 408 755 384Q740 378 679 393Q646 397 557 419Q517 428 480 436C466 439 498 466 512 463Q575 444 686 425Q710 421 721 429Q733 438 730 455Q712 561 700 587C697 597 674 602 680 610Z"/>
<path id="z25014d11" d="M526 544Q533 544 541 543Q617 527 673 518Q694 514 685 503Q675 490 653 487Q623 486 522 522C515 525 519 544 526 544Z"/>
<path id="z25014d12" d="M541 634Q550 635 561 632Q598 622 680 610C690 608 708 593 700 587Q693 581 681 575Q668 568 641 577Q583 596 538 606C529 608 532 634 541 634Z"/>
<path id="z25014d13" d="M395 706Q374 764 343 817Q325 851 344 884Q353 900 373 888Q422 845 424 763Q427 729 419 705Q413 698 408 696Q399 697 395 706Z"/>
<path id="z25014d14" d="M479 727Q491 826 563 879Q668 951 852 938Q879 934 903 925Q927 916 930 901Q934 891 897 868Q842 822 801 773Q789 757 785 764Q782 767 805 846Q811 882 760 880Q613 877 555 816Q528 791 518 746Q514 722 502 717Q489 710 482 713Q476 714 479 727Z"/>
<path id="z25014d15" d="M618 729Q678 781 691 781Q701 780 705 768Q709 755 700 727Q691 702 612 685Q597 682 592 685Q588 689 589 701Q593 711 618 729Z"/>
<path id="z25014d16" d="M833 675Q885 694 940 722Q956 729 970 725Q980 722 981 708Q981 693 965 668Q952 646 907 636Q807 626 795 637Q791 641 797 653Q803 663 833 675Z"/>
<defs>
	<clipPath id="z25014c1"><use xlink:href="#z25014d1"/></clipPath>
	<clipPath id="z25014c2"><use xlink:href="#z25014d2"/></clipPath>
	<clipPath id="z25014c3"><use xlink:href="#z25014d3"/></clipPath>
	<clipPath id="z25014c4"><use xlink:href="#z25014d4"/></clipPath>
	<clipPath id="z25014c5"><use xlink:href="#z25014d5"/></clipPath>
	<clipPath id="z25014c6"><use xlink:href="#z25014d6"/></clipPath>
	<clipPath id="z25014c7"><use xlink:href="#z25014d7"/></clipPath>
	<clipPath id="z25014c8"><use xlink:href="#z25014d8"/></clipPath>
	<clipPath id="z25014c9"><use xlink:href="#z25014d9"/></clipPath>
	<clipPath id="z25014c10"><use xlink:href="#z25014d10"/></clipPath>
	<clipPath id="z25014c11"><use xlink:href="#z25014d11"/></clipPath>
	<clipPath id="z25014c12"><use xlink:href="#z25014d12"/></clipPath>
	<clipPath id="z25014c13"><use xlink:href="#z25014d13"/></clipPath>
	<clipPath id="z25014c14"><use xlink:href="#z25014d14"/></clipPath>
	<clipPath id="z25014c15"><use xlink:href="#z25014d15"/></clipPath>
	<clipPath id="z25014c16"><use xlink:href="#z25014d16"/></clipPath>
</defs>
<path style="--d:1s;" pathLength="3333" clip-path="url(#z25014c1)" d="M115 373L99 560"/>
<path style="--d:2s;" pathLength="3333" clip-path="url(#z25014c2)" d="M282 259L371 300"/>
<path style="--d:3s;" pathLength="3333" clip-path="url(#z25014c3)" d="M193 84L256 142L231 920"/>
<path style="--d:4s;" pathLength="3333" clip-path="url(#z25014c4)" d="M572 41L672 99"/>
<path style="--d:5s;" pathLength="3333" clip-path="url(#z25014c5)" d="M459 202L791 145"/>
<path style="--d:6s;" pathLength="3333" clip-path="url(#z25014c6)" d="M511 231L549 306"/>
<path style="--d:7s;" pathLength="3333" clip-path="url(#z25014c7)" d="M684 195L709 233L657 311"/>
<path style="--d:8s;" pathLength="3333" clip-path="url(#z25014c8)" d="M381 373L852 296L937 304"/>
<path style="--d:9s;" pathLength="3333" clip-path="url(#z25014c9)" d="M454 439L488 476L528 650"/>
<path style="--d:10s;" pathLength="3333" clip-path="url(#z25014c10)" d="M493 440L747 412L772 442L710 643"/>
<path style="--d:11s;" pathLength="3333" clip-path="url(#z25014c11)" d="M530 529L683 506"/>
<path style="--d:12s;" pathLength="3333" clip-path="url(#z25014c12)" d="M550 626L691 588"/>
<path style="--d:13s;" pathLength="3333" clip-path="url(#z25014c13)" d="M407 706L356 889"/>
<path style="--d:14s;" pathLength="3333" clip-path="url(#z25014c14)" d="M486 716L554 844L700 904L805 908L877 888L791 769"/>
<path style="--d:15s;" pathLength="3333" clip-path="url(#z25014c15)" d="M597 690L699 770"/>
<path style="--d:16s;" pathLength="3333" clip-path="url(#z25014c16)" d="M797 642L917 674L977 713"/>
</svg>