<!--
AnimCJK 2016-2017 Copyright Francois Mizessyn, http://gooo.free.fr/animCJK/
Derived from:
    MakeMeAHanzi project - https://github.com/skishore/makemeahanzi
    Arphic PL KaitiM GB - https://apps.ubuntu.com/cat/applications/precise/fonts-arphic-gkai00mp/
    Arphic PL UKai - https://apps.ubuntu.com/cat/applications/fonts-arphic-ukai/
You can redistribute and/or modify this file under the terms of the Arphic Public License
as published by Arphic Technology Co., Ltd.
You should have received a copy of this license (the directory "APL") along with this file;
if not, see http://ftp.gnu.org/non-gnu/chinese-fonts-truetype/LICENSE.
-->
<svg id="z25014" class="acjk" version="1.1" viewBox="0 0 1024 1024" xmlns="http://www.w3.org/2000/svg" xmlns:xlink="http://www.w3.org/1999/xlink">
<style>
<![CDATA[
	@keyframes z25014k {
		from {
			stroke:#c00;
			stroke-dashoffset:3000;
		}
		75% {
			stroke:#c00;
			stroke-dashoffset:0;
		}
		to {
			stroke:#000;
		}
	}
	#z25014 path[clip-path] {
		animation:z25014k 1s linear both;
		stroke-dasharray:3000;
		stroke-width:128;
		stroke-linecap:round;
		fill:none;
	}
	#z25014 path[clip-path="url(#z25014c1)"] {animation-delay:1s;}
	#z25014 path[clip-path="url(#z25014c2)"] {animation-delay:2s;}
	#z25014 path[clip-path="url(#z25014c3)"] {animation-delay:3s;}
	#z25014 path[clip-path="url(#z25014c4)"] {animation-delay:4s;}
	#z25014 path[clip-path="url(#z25014c5)"] {animation-delay:5s;}
	#z25014 path[clip-path="url(#z25014c6)"] {animation-delay:6s;}
	#z25014 path[clip-path="url(#z25014c7)"] {animation-delay:7s;}
	#z25014 path[clip-path="url(#z25014c8)"] {animation-delay:8s;}
	#z25014 path[clip-path="url(#z25014c9)"] {animation-delay:9s;}
	#z25014 path[clip-path="url(#z25014c10)"] {animation-delay:10s;}
	#z25014 path[clip-path="url(#z25014c11)"] {animation-delay:11s;}
	#z25014 path[clip-path="url(#z25014c12)"] {animation-delay:12s;}
	#z25014 path[clip-path="url(#z25014c13)"] {animation-delay:13s;}
	#z25014 path[clip-path="url(#z25014c14)"] {animation-delay:14s;}
	#z25014 path[clip-path="url(#z25014c15)"] {animation-delay:15s;}
	#z25014 path[clip-path="url(#z25014c16)"] {animation-delay:16s;}
	#z25014 path {fill:#ccc;}
]]>
</style>
<g transform="scale(1,-1) translate(0,-900)">
	<path id="z25014d1" d="M104 522Q92 464 70 411Q57 372 82 343Q94 327 112 343Q155 394 142 468Q141 502 128 527Q121 534 115 534Q106 531 104 522Z"/>
	<path id="z25014d2" d="M273 621Q286 618 344 589Q357 582 369 586Q376 589 377 600Q378 612 364 632Q349 656 275 651L273 621Z"/>
	<path id="z25014d3" d="M275 651Q279 703 291 744Q300 759 297 773Q290 783 234 817Q210 833 189 818Q185 814 190 798Q223 750 224 681Q224 237 208 149Q202 127 196 101Q184 59 211 -2Q218 -20 226 -23Q233 -30 240 -21Q247 -17 258 4Q264 19 267 141Q267 543 273 621L275 651Z"/>
	<path id="z25014d4" d="M599 823Q617 811 637 796Q650 786 665 789Q675 790 677 804Q678 817 666 843Q659 856 636 862Q576 869 567 863Q563 859 567 847Q571 838 599 823Z"/>
	<path id="z25014d5" d="M714 719Q726 723 740 726Q785 738 791 744Q798 751 795 758Q788 768 763 774Q738 778 627 739Q549 724 471 708Q440 702 462 688Q475 681 495 677Q499 677 504 676L522 676Q532 677 546 681Q609 696 678 711L714 719Z"/>
	<path id="z25014d6" d="M504 676Q498 664 526 612Q535 594 548 590Q558 586 568 599Q572 609 570 627Q563 654 522 676L504 676Z"/>
	<path id="z25014d7" d="M675 590Q705 627 738 666Q751 676 745 687Q738 702 714 719L678 711Q684 693 659 617Q650 599 648 583L675 590Z"/>
	<path id="z25014d8" d="M648 583Q644 584 641 583Q524 559 386 533Q367 529 382 515Q409 494 466 508Q601 556 919 580Q937 581 941 589Q945 599 930 611Q876 644 829 628Q766 612 675 590L648 583Z"/>
	<path id="z25014d9" d="M480 464Q471 468 462 468Q452 469 448 465Q444 461 451 446Q479 391 497 299Q501 272 517 254Q533 235 538 249Q539 256 541 266L538 294Q537 301 536 309Q530 334 526 356L522 378Q513 423 512 437L480 464Z"/>
	<path id="z25014d10" d="M680 290Q680 289 682 287Q701 257 717 250Q727 243 741 262Q754 284 779 400Q786 428 808 452Q821 464 809 477Q796 492 755 516Q740 522 679 507Q646 503 557 481Q517 472 480 464L512 437Q575 456 686 475Q710 479 721 471Q733 462 730 445Q712 339 700 313L680 290Z"/>
	<path id="z25014d11" d="M526 356Q533 356 541 357Q617 373 673 382Q694 386 685 397Q675 410 653 413Q623 414 522 378L526 356Z"/>
	<path id="z25014d12" d="M541 266Q550 265 561 268Q598 278 680 290L700 313Q693 319 681 325Q668 332 641 323Q583 304 538 294L541 266Z"/>
	<path id="z25014d13" d="M395 194Q374 136 343 83Q325 49 344 16Q353 0 373 12Q422 55 424 137Q427 171 419 195Q413 202 408 204Q399 203 395 194Z"/>
	<path id="z25014d14" d="M479 173Q491 74 563 21Q668 -51 852 -38Q879 -34 903 -25Q927 -16 930 -1Q934 9 897 32Q842 78 801 127Q789 143 785 136Q782 133 805 54Q811 18 760 20Q613 23 555 84Q528 109 518 154Q514 178 502 183Q489 190 482 187Q476 186 479 173Z"/>
	<path id="z25014d15" d="M618 171Q678 119 691 119Q701 120 705 132Q709 145 700 173Q691 198 612 215Q597 218 592 215Q588 211 589 199Q593 189 618 171Z"/>
	<path id="z25014d16" d="M833 225Q885 206 940 178Q956 171 970 175Q980 178 981 192Q981 207 965 232Q952 254 907 264Q807 274 795 263Q791 259 797 247Q803 237 833 225Z"/>
	<defs>
		<clipPath id="z25014c1"><use xlink:href="#z25014d1"/></clipPath>
		<clipPath id="z25014c2"><use xlink:href="#z25014d2"/></clipPath>
		<clipPath id="z25014c3"><use xlink:href="#z25014d3"/></clipPath>
		<clipPath id="z25014c4"><use xlink:href="#z25014d4"/></clipPath>
		<clipPath id="z25014c5"><use xlink:href="#z25014d5"/></clipPath>
		<clipPath id="z25014c6"><use xlink:href="#z25014d6"/></clipPath>
		<clipPath id="z25014c7"><use xlink:href="#z25014d7"/></clipPath>
		<clipPath id="z25014c8"><use xlink:href="#z25014d8"/></clipPath>
		<clipPath id="z25014c9"><use xlink:href="#z25014d9"/></clipPath>
		<clipPath id="z25014c10"><use xlink:href="#z25014d10"/></clipPath>
		<clipPath id="z25014c11"><use xlink:href="#z25014d11"/></clipPath>
		<clipPath id="z25014c12"><use xlink:href="#z25014d12"/></clipPath>
		<clipPath id="z25014c13"><use xlink:href="#z25014d13"/></clipPath>
		<clipPath id="z25014c14"><use xlink:href="#z25014d14"/></clipPath>
		<clipPath id="z25014c15"><use xlink:href="#z25014d15"/></clipPath>
		<clipPath id="z25014c16"><use xlink:href="#z25014d16"/></clipPath>
	</defs>
	<path pathLength="2999" clip-path="url(#z25014c1)" d="M115 527L99 340"/>
	<path pathLength="2999" clip-path="url(#z25014c2)" d="M282 641L371 600"/>
	<path pathLength="2999" clip-path="url(#z25014c3)" d="M193 816L256 758L231 -20"/>
	<path pathLength="2999" clip-path="url(#z25014c4)" d="M572 859L672 801"/>
	<path pathLength="2999" clip-path="url(#z25014c5)" d="M459 698L791 755"/>
	<path pathLength="2999" clip-path="url(#z25014c6)" d="M511 669L549 594"/>
	<path pathLength="2999" clip-path="url(#z25014c7)" d="M684 705L709 667L657 589"/>
	<path pathLength="2999" clip-path="url(#z25014c8)" d="M381 527L852 604L937 596"/>
	<path pathLength="2999" clip-path="url(#z25014c9)" d="M454 461L488 424L528 250"/>
	<path pathLength="2999" clip-path="url(#z25014c10)" d="M493 460L747 488L772 458L710 257"/>
	<path pathLength="2999" clip-path="url(#z25014c11)" d="M530 371L683 394"/>
	<path pathLength="2999" clip-path="url(#z25014c12)" d="M550 274L691 312"/>
	<path pathLength="2999" clip-path="url(#z25014c13)" d="M407 194L356 11"/>
	<path pathLength="2999" clip-path="url(#z25014c14)" d="M486 184L554 56L700 -4L805 -8L877 12L791 131"/>
	<path pathLength="2999" clip-path="url(#z25014c15)" d="M597 210L699 130"/>
	<path pathLength="2999" clip-path="url(#z25014c16)" d="M797 258L917 226L977 187"/>
</g>
</svg>