<!--
AnimCJK 2016-2026 Copyright FM-SH - https://github.com/parsimonhi/animCJK
Derived from:
    MakeMeAHanzi project - https://github.com/skishore/makemeahanzi
    Arphic PL KaitiM GB font
    Arphic PL KaitiM Big5 font
You can redistribute and/or modify this file under the terms of the Arphic Public License
as published by Arphic Technology Co., Ltd.
You should have received a copy of this license along with this file.
If not, see https://ftp.gnu.org/non-gnu/chinese-fonts-truetype/LICENSE.
-->
<svg id="z25027" class="acjk" viewBox="0 0 1024 1024" xmlns="http://www.w3.org/2000/svg">
<style>
<![CDATA[
@keyframes zk {
	to {
		stroke-dashoffset:0;
	}
}
svg.acjk path[clip-path] {
	--t:0.8s;
	animation:zk var(--t) linear forwards var(--d);
	stroke-dasharray:3337;
	stroke-dashoffset:3339;
	stroke-width:128;
	stroke-linecap:round;
	fill:none;
	stroke:#000;
}
svg.acjk path[id] {fill:#ccc;}
]]>
</style>
<path id="z25027d1" d="M434 180C466 174 501 171 530 170C544 169 561 161 529 143C511 133 482 131 445 141C418 148 418 148 404 151C383 156 327 164 311 168C285 173 285 173 272 176C215 187 177 185 160 188C145 190 142 195 154 205C165 214 183 222 208 220C228 217 252 212 279 207C302 202 302 202 313 200C330 196 379 188 397 186C422 182 422 182 434 180Z"/>
<path id="z25027d2" d="M311 168C308 114 322 117 272 104C255 99 226 107 245 125C257 135 267 150 272 176C277 197 277 197 279 207C284 231 284 260 299 281C306 292 309 287 313 275C315 267 316 259 316 252C315 232 314 212 313 200C312 179 312 179 311 168Z"/>
<path id="z25027d3" d="M419 227C426 208 430 190 434 180C441 154 441 154 445 141C452 114 477 102 459 83C445 69 431 63 421 59C408 54 396 57 401 74C406 97 411 111 404 151C399 174 399 174 397 186C392 206 392 207 387 229C385 239 415 237 419 227Z"/>
<path id="z25027d4" d="M363 266C381 262 405 258 434 253C454 250 439 235 419 227C409 224 398 227 387 229C382 229 356 241 316 252C309 254 305 275 313 275C322 275 322 275 326 275C351 269 351 269 363 266Z"/>
<path id="z25027d5" d="M233 337C196 327 169 322 187 351C201 374 213 395 224 426C227 437 230 447 239 455C256 471 259 454 261 439C262 429 259 420 257 412C250 389 247 375 245 363C243 354 242 339 233 337Z"/>
<path id="z25027d6" d="M490 379C499 367 513 351 530 339C540 331 540 320 533 312C525 303 508 297 483 286C474 281 464 282 453 286C428 295 403 304 380 310C355 316 355 316 342 319C320 324 282 330 233 337C224 339 236 365 245 363C278 355 310 350 343 343C367 338 367 338 379 335C404 329 423 324 437 323C455 322 469 326 465 344C460 362 457 359 452 374C447 386 482 389 490 379Z"/>
<path id="z25027d7" d="M377 419C410 413 452 409 500 405C518 403 512 388 490 379C479 372 465 372 452 374C423 380 399 386 377 391C354 396 354 396 342 398C312 403 284 407 257 412C248 414 252 439 261 439C271 439 301 431 342 425C365 421 365 421 377 419Z"/>
<path id="z25027d8" d="M373 592C372 578 373 561 373 550C373 528 373 528 373 517C373 504 374 501 374 489C375 465 375 465 375 453C376 441 377 430 377 419C377 400 377 400 377 391C377 379 378 348 379 335C380 318 380 318 380 310C381 283 383 275 363 266C351 261 319 264 326 275C334 290 341 298 342 319C343 335 343 335 343 343C343 350 342 380 342 398C342 416 342 416 342 425C342 433 341 446 341 463C340 484 340 484 340 495C340 508 340 511 339 526C338 547 338 547 338 557C338 586 338 586 338 601C338 613 373 604 373 592Z"/>
<path id="z25027d9" d="M374 489C392 485 410 480 429 475C455 469 471 463 465 452C462 447 454 443 440 440C428 437 407 444 375 453C352 460 352 460 341 463C311 472 279 476 247 480C231 483 228 489 241 496C272 513 308 501 340 495C363 491 363 491 374 489Z"/>
<path id="z25027d10" d="M373 550C435 537 466 526 469 525C475 518 475 505 447 501C430 498 407 507 373 517C350 523 350 523 339 526C324 529 305 534 237 543C219 544 217 550 230 558C263 580 300 564 338 557C361 552 361 552 373 550Z"/>
<path id="z25027d11" d="M338 601C303 610 206 637 153 636C133 635 134 656 144 664C156 675 172 687 193 699C198 702 205 699 213 695C275 659 376 624 436 602C518 570 527 545 428 577C412 582 392 586 372 592C349 598 349 598 338 601Z"/>
<path id="z25027d12" d="M686 284C711 278 737 275 762 273C787 270 782 311 781 327C777 361 771 435 767 469C756 542 740 546 722 541C707 537 693 533 678 530C666 526 663 530 673 543C694 568 713 590 725 611C734 630 758 628 785 598C822 556 813 511 827 363C830 330 836 302 849 283C857 271 860 262 855 257C847 247 833 238 814 230C800 223 786 222 772 229C749 238 724 248 692 255C659 262 659 262 642 265C605 272 577 275 555 275C535 274 534 286 556 300C579 315 603 304 636 296C649 292 669 288 686 284Z"/>
<path id="z25027d13" d="M636 296C615 400 588 482 507 598C468 654 514 622 524 612C627 510 657 420 686 284C690 265 690 265 692 255C702 206 709 172 716 133C726 86 744 96 685 61C658 45 642 58 650 74C673 122 657 196 642 265C638 286 638 286 636 296Z"/>
<path id="z25027d14" d="M238 712C216 758 186 798 162 841C145 869 166 927 204 893C249 850 262 786 264 727C264 711 247 691 238 712Z"/>
<path id="z25027d15" d="M329 708C340 788 389 862 464 901C534 938 671 949 755 939C783 935 854 912 813 878C767 838 728 794 695 746C683 728 680 737 680 742C677 766 688 803 695 829C708 877 652 883 618 882C537 878 444 847 396 787C371 755 359 713 342 692C335 682 327 696 329 708Z"/>
<path id="z25027d16" d="M550 783C599 794 580 726 543 701C528 690 502 674 483 670C468 667 448 671 455 688C467 715 508 773 550 783Z"/>
<path id="z25027d17" d="M709 682C759 718 806 761 862 796C905 822 895 744 877 724C836 681 775 673 724 657C693 646 680 660 709 682Z"/>
<defs>
	<clipPath id="z25027c1"><use href="#z25027d1"/></clipPath>
	<clipPath id="z25027c2"><use href="#z25027d2"/></clipPath>
	<clipPath id="z25027c3"><use href="#z25027d3"/></clipPath>
	<clipPath id="z25027c4"><use href="#z25027d4"/></clipPath>
	<clipPath id="z25027c5"><use href="#z25027d5"/></clipPath>
	<clipPath id="z25027c6"><use href="#z25027d6"/></clipPath>
	<clipPath id="z25027c7"><use href="#z25027d7"/></clipPath>
	<clipPath id="z25027c8"><use href="#z25027d8"/></clipPath>
	<clipPath id="z25027c9"><use href="#z25027d9"/></clipPath>
	<clipPath id="z25027c10"><use href="#z25027d10"/></clipPath>
	<clipPath id="z25027c11"><use href="#z25027d11"/></clipPath>
	<clipPath id="z25027c12"><use href="#z25027d12"/></clipPath>
	<clipPath id="z25027c13"><use href="#z25027d13"/></clipPath>
	<clipPath id="z25027c14"><use href="#z25027d14"/></clipPath>
	<clipPath id="z25027c15"><use href="#z25027d15"/></clipPath>
	<clipPath id="z25027c16"><use href="#z25027d16"/></clipPath>
	<clipPath id="z25027c17"><use href="#z25027d17"/></clipPath>
</defs>
<path style="--d:1s;" pathLength="3333" clip-path="url(#z25027c1)" d="M155 198L543 160"/>
<path style="--d:2s;" pathLength="3333" clip-path="url(#z25027c2)" d="M249 115L287 139L303 280"/>
<path style="--d:3s;" pathLength="3333" clip-path="url(#z25027c3)" d="M407 65L436 100L399 233"/>
<path style="--d:4s;" pathLength="3333" clip-path="url(#z25027c4)" d="M318 266L438 246"/>
<path style="--d:5s;" pathLength="3333" clip-path="url(#z25027c5)" d="M190 336L224 367L245 457"/>
<path style="--d:6s;" pathLength="3333" clip-path="url(#z25027c6)" d="M233 342L463 304L501 334L460 378"/>
<path style="--d:7s;" pathLength="3333" clip-path="url(#z25027c7)" d="M256 426L504 394"/>
<path style="--d:8s;" pathLength="3333" clip-path="url(#z25027c8)" d="M330 271L361 310L349 602"/>
<path style="--d:9s;" pathLength="3333" clip-path="url(#z25027c9)" d="M242 489L459 457"/>
<path style="--d:10s;" pathLength="3333" clip-path="url(#z25027c10)" d="M230 549L468 515"/>
<path style="--d:11s;" pathLength="3333" clip-path="url(#z25027c11)" d="M140 647L204 665L492 567"/>
<path style="--d:12s;" pathLength="3333" clip-path="url(#z25027c12)" d="M545 282L781 250L818 271L774 553L733 582L673 536"/>
<path style="--d:13s;" pathLength="3333" clip-path="url(#z25027c13)" d="M655 58L693 100L640 377L578 520L499 623"/>
<path style="--d:14s;" pathLength="3333" clip-path="url(#z25027c14)" d="M249 710L172 897"/>
<path style="--d:15s;" pathLength="3333" clip-path="url(#z25027c15)" d="M337 698L413 835L491 883L593 908L681 909L771 888L685 744"/>
<path style="--d:16s;" pathLength="3333" clip-path="url(#z25027c16)" d="M460 675L568 778"/>
<path style="--d:17s;" pathLength="3333" clip-path="url(#z25027c17)" d="M697 659L816 721L886 791"/>
</svg>