<!--
AnimCJK 2016-2026 Copyright FM-SH - https://github.com/parsimonhi/animCJK
Derived from:
    MakeMeAHanzi project - https://github.com/skishore/makemeahanzi
    Arphic PL KaitiM GB font
    Arphic PL KaitiM Big5 font
You can redistribute and/or modify this file under the terms of the Arphic Public License
as published by Arphic Technology Co., Ltd.
You should have received a copy of this license along with this file.
If not, see https://ftp.gnu.org/non-gnu/chinese-fonts-truetype/LICENSE.
-->
<svg id="z25030" class="acjk" viewBox="0 0 1024 1024" xmlns="http://www.w3.org/2000/svg">
<style>
<![CDATA[
@keyframes zk {
	to {
		stroke-dashoffset:0;
	}
}
svg.acjk path[clip-path] {
	--t:0.8s;
	animation:zk var(--t) linear forwards var(--d);
	stroke-dasharray:3337;
	stroke-dashoffset:3339;
	stroke-width:128;
	stroke-linecap:round;
	fill:none;
	stroke:#000;
}
svg.acjk path[id] {fill:#ccc;}
]]>
</style>
<path id="z25030d1" d="M133 380C124 420 111 459 97 498C87 522 91 544 108 567C114 576 127 578 138 567C169 532 177 485 171 434C168 410 166 389 158 375C150 362 135 367 133 380Z"/>
<path id="z25030d2" d="M302 322C318 335 353 361 372 375C393 390 434 388 405 333C386 298 345 297 303 297C295 297 295 317 302 322Z"/>
<path id="z25030d3" d="M303 297C304 253 313 200 324 174C331 155 329 142 313 131C301 122 285 112 268 101C236 79 210 96 224 120C268 195 258 281 258 367C257 459 253 557 249 659C247 709 238 758 224 805C216 831 221 872 234 904C253 954 278 918 285 899C290 885 294 868 294 845C294 813 299 387 302 322C303 305 303 305 303 297Z"/>
<path id="z25030d4" d="M514 152C492 146 434 129 463 170C481 195 497 231 512 278C516 290 522 302 532 311C547 325 555 318 555 297C554 287 552 277 550 268C541 230 532 196 529 180C527 170 524 154 514 152Z"/>
<path id="z25030d5" d="M734 251C750 211 766 189 780 179C791 170 793 154 782 146C727 104 708 101 667 118C624 134 572 143 514 152C504 154 519 183 529 180C531 178 579 170 671 155C681 153 689 153 694 158C700 164 698 193 687 243C684 259 728 266 734 251Z"/>
<path id="z25030d6" d="M555 297C578 297 601 290 741 278C746 277 763 273 734 251C721 241 703 240 687 243C665 248 625 256 550 268C540 270 545 297 555 297Z"/>
<path id="z25030d7" d="M407 404C405 403 340 380 363 417C377 440 390 472 400 514C402 524 406 535 415 544C434 565 433 544 434 525C434 516 431 508 430 501C424 472 417 437 417 425C417 417 414 407 407 404Z"/>
<path id="z25030d8" d="M553 481C561 449 571 429 581 419C593 405 592 394 581 388C546 369 527 360 522 362C519 362 516 364 514 366C491 380 455 392 407 404C399 406 409 427 417 425C433 422 474 410 495 406C507 403 515 403 520 409C521 410 519 433 513 477C510 490 550 494 553 481Z"/>
<path id="z25030d9" d="M434 525C450 528 516 509 556 505C573 503 565 488 553 481C543 473 526 475 513 477C483 485 448 495 430 501C422 504 426 525 434 525Z"/>
<path id="z25030d10" d="M644 367C628 361 590 349 607 380C618 402 631 431 641 471C643 481 648 492 655 499C668 512 675 508 675 490C674 480 673 472 672 465C665 434 661 401 660 389C658 380 652 370 644 367Z"/>
<path id="z25030d11" d="M810 444C818 414 829 395 840 385C853 371 852 357 840 349C827 341 813 333 799 324C787 317 769 324 739 338C706 352 673 359 644 367C635 370 651 390 660 389C664 388 692 382 745 369C776 360 776 375 772 401C769 413 766 428 762 444C759 460 807 460 810 444Z"/>
<path id="z25030d12" d="M675 490C696 490 732 481 823 472C842 469 828 450 810 444C795 438 778 441 762 444C729 452 699 459 672 465C664 467 667 490 675 490Z"/>
<path id="z25030d13" d="M633 611C689 602 769 598 844 598C887 597 936 597 897 565C861 536 827 534 794 543C752 554 699 563 635 575C600 581 600 581 583 584C516 595 444 603 367 615C354 617 352 623 362 633C385 656 406 655 427 650C467 639 533 625 558 622C608 615 608 615 633 611Z"/>
<path id="z25030d14" d="M635 575C638 559 640 550 634 539C615 505 553 498 573 526C579 534 583 548 583 584C583 642 583 642 583 671C583 757 573 854 566 873C557 894 561 923 585 960C612 1003 633 928 633 910C631 879 628 794 632 652C633 625 633 625 633 611C633 599 632 586 635 575Z"/>
<path id="z25030d15" d="M558 622C516 687 448 744 339 820C277 862 326 851 351 841C405 820 515 758 583 671C612 632 587 583 558 622Z"/>
<path id="z25030d16" d="M632 652C672 704 716 755 762 806C776 821 795 830 821 833C864 837 911 834 961 829C977 827 991 819 969 810C857 763 805 740 785 730C766 721 691 663 633 611C623 601 624 641 632 652Z"/>
<defs>
	<clipPath id="z25030c1"><use href="#z25030d1"/></clipPath>
	<clipPath id="z25030c2"><use href="#z25030d2"/></clipPath>
	<clipPath id="z25030c3"><use href="#z25030d3"/></clipPath>
	<clipPath id="z25030c4"><use href="#z25030d4"/></clipPath>
	<clipPath id="z25030c5"><use href="#z25030d5"/></clipPath>
	<clipPath id="z25030c6"><use href="#z25030d6"/></clipPath>
	<clipPath id="z25030c7"><use href="#z25030d7"/></clipPath>
	<clipPath id="z25030c8"><use href="#z25030d8"/></clipPath>
	<clipPath id="z25030c9"><use href="#z25030d9"/></clipPath>
	<clipPath id="z25030c10"><use href="#z25030d10"/></clipPath>
	<clipPath id="z25030c11"><use href="#z25030d11"/></clipPath>
	<clipPath id="z25030c12"><use href="#z25030d12"/></clipPath>
	<clipPath id="z25030c13"><use href="#z25030d13"/></clipPath>
	<clipPath id="z25030c14"><use href="#z25030d14"/></clipPath>
	<clipPath id="z25030c15"><use href="#z25030d15"/></clipPath>
	<clipPath id="z25030c16"><use href="#z25030d16"/></clipPath>
</defs>
<path style="--d:1s;" pathLength="3333" clip-path="url(#z25030c1)" d="M145 373L117 568"/>
<path style="--d:2s;" pathLength="3333" clip-path="url(#z25030c2)" d="M302 304L410 369"/>
<path style="--d:3s;" pathLength="3333" clip-path="url(#z25030c3)" d="M226 100L287 163L259 925"/>
<path style="--d:4s;" pathLength="3333" clip-path="url(#z25030c4)" d="M462 149L500 176L542 312"/>
<path style="--d:5s;" pathLength="3333" clip-path="url(#z25030c5)" d="M517 157L719 139L743 167L708 257"/>
<path style="--d:6s;" pathLength="3333" clip-path="url(#z25030c6)" d="M548 279L746 271"/>
<path style="--d:7s;" pathLength="3333" clip-path="url(#z25030c7)" d="M366 404L394 426L421 542"/>
<path style="--d:8s;" pathLength="3333" clip-path="url(#z25030c8)" d="M409 411L538 391L555 409L522 485"/>
<path style="--d:9s;" pathLength="3333" clip-path="url(#z25030c9)" d="M429 512L561 493"/>
<path style="--d:10s;" pathLength="3333" clip-path="url(#z25030c10)" d="M610 370L639 396L667 500"/>
<path style="--d:11s;" pathLength="3333" clip-path="url(#z25030c11)" d="M647 373L784 346L811 370L779 454"/>
<path style="--d:12s;" pathLength="3333" clip-path="url(#z25030c12)" d="M671 478L825 460"/>
<path style="--d:13s;" pathLength="3333" clip-path="url(#z25030c13)" d="M364 625L806 569L907 582"/>
<path style="--d:14s;" pathLength="3333" clip-path="url(#z25030c14)" d="M578 518L610 558L603 969"/>
<path style="--d:15s;" pathLength="3333" clip-path="url(#z25030c15)" d="M580 611L564 656L486 736L317 843"/>
<path style="--d:16s;" pathLength="3333" clip-path="url(#z25030c16)" d="M630 617L797 782L973 819"/>
</svg>