<!--
AnimCJK 2016-2019 Copyright Francois Mizessyn - https://github.com/parsimonhi/animCJK
Derived from:
    MakeMeAHanzi project - https://github.com/skishore/makemeahanzi
    Arphic PL KaitiM GB font
    Arphic PL UKai font
You can redistribute and/or modify this file under the terms of the Arphic Public License
as published by Arphic Technology Co., Ltd.
You should have received a copy of this license along with this file.
If not, see http://ftp.gnu.org/non-gnu/chinese-fonts-truetype/LICENSE.
-->
<svg id="z25040" class="acjk" version="1.1" viewBox="0 0 1024 1024" xmlns="http://www.w3.org/2000/svg" xmlns:xlink="http://www.w3.org/1999/xlink">
<style>
<![CDATA[
@keyframes zk {
	to {
		stroke-dashoffset:0;
	}
}
svg.acjk path[clip-path] {
	--t:0.8s;
	animation:zk var(--t) linear forwards var(--d);
	stroke-dasharray:3337;
	stroke-dashoffset:3339;
	stroke-width:128;
	stroke-linecap:round;
	fill:none;
	stroke:#000;
}
svg.acjk path[id] {fill:#ccc;}
]]>
</style>
<path id="z25040d1" d="M104 378Q92 436 70 489Q57 528 82 557Q94 573 112 557Q155 506 142 432Q141 398 128 373Q121 366 115 366Q106 369 104 378Z"/>
<path id="z25040d2" d="M355 406C350 406 345 403 340 401C304 383 280 373 269 370C259 366 260 339 270 339C318 336 350 342 360 358C369 371 373 382 373 390C372 398 369 402 365 404C362 405 358 406 355 406Z"/>
<path id="z25040d3" d="M270 339C272 280 281 182 291 156C295 145 300 135 297 127C293 119 271 106 234 83C217 72 202 71 189 82C186 84 184 92 190 102C209 135 223 173 224 219C224 515 219 692 208 751C205 765 200 781 196 799C188 827 193 861 211 902C216 913 221 919 226 923C231 926 234 926 240 921C243 917 251 910 258 896C262 886 266 840 267 759C268 491 268 395 269 369C270 349 270 349 270 339Z"/>
<path id="z25040d4" d="M622 224C664 216 708 208 753 200C785 194 803 187 810 183C815 178 818 172 815 166C810 157 798 156 778 152C757 146 737 149 717 156C688 165 660 173 632 180C597 188 597 188 579 192C548 198 495 202 451 207C425 209 421 219 440 230C476 250 515 242 576 232C607 227 607 227 622 224Z"/>
<path id="z25040d5" d="M609 287C613 259 615 256 622 228C629 195 629 195 632 178C637 156 646 128 657 111C659 105 655 97 645 87C626 75 609 66 595 61C586 59 579 59 574 63C569 67 568 74 572 83C580 98 584 111 584 121C583 142 581 171 579 190C577 221 577 221 576 236C573 263 574 266 570 296C567 309 606 300 609 287Z"/>
<path id="z25040d6" d="M402 326C400 326 399 326 399 326C392 326 388 328 387 331C384 335 386 341 393 348C413 371 432 403 451 443C455 456 463 466 473 472C485 481 492 481 493 472C493 468 492 464 492 460C488 445 488 445 486 437C476 411 465 383 454 355C448 336 422 326 402 326Z"/>
<path id="z25040d7" d="M729 418C731 426 736 430 743 430C751 430 775 416 785 395C794 373 812 344 834 328C844 320 845 310 837 301C828 290 809 277 782 261C773 255 747 258 701 268C659 276 633 281 609 287C583 293 583 293 570 296C525 306 451 322 402 326C382 326 434 355 454 355C461 355 469 353 477 351C493 345 507 341 531 336C542 333 542 333 547 332C571 325 602 317 638 310C658 306 658 306 668 304C716 294 746 290 758 296C761 297 760 306 758 316C746 355 738 379 734 387C732 389 730 392 730 395C728 403 726 411 729 418Z"/>
<path id="z25040d8" d="M572 420C576 402 571 379 558 350C556 342 552 336 547 332C543 328 529 331 531 336C532 337 532 337 532 338C534 346 535 356 536 366C538 394 547 413 563 422C566 424 571 423 572 420Z"/>
<path id="z25040d9" d="M647 402C667 364 679 343 685 337C691 331 692 325 688 321C684 315 677 310 668 304C659 299 636 300 638 310C642 321 640 346 633 384C629 393 627 401 628 407C628 414 644 408 647 402Z"/>
<path id="z25040d10" d="M730 395C728 393 725 391 722 389C712 385 687 391 647 402C634 405 634 405 628 407C607 412 588 416 572 420C566 421 566 421 563 422C534 428 508 432 486 437C478 439 484 460 492 460C496 460 500 460 506 459C599 435 680 424 729 418C737 416 736 400 730 395Z"/>
<path id="z25040d11" d="M531 517C543 525 555 538 569 550C576 556 583 559 591 557C595 556 599 552 601 546C603 537 600 525 596 512C592 501 583 493 569 489C535 477 513 475 509 480C506 481 505 487 508 494C509 499 516 506 531 517Z"/>
<path id="z25040d12" d="M377 599C366 601 365 606 373 615C391 629 411 633 431 628C456 619 483 610 514 604C540 599 540 599 553 596C631 579 725 567 832 561C844 560 856 559 869 559C879 558 886 555 888 550C890 543 887 536 878 530C849 510 824 503 803 509C704 535 562 565 377 599Z"/>
<path id="z25040d13" d="M282 850C271 850 271 847 283 840C298 830 323 815 345 798C440 723 495 664 514 604C518 591 540 593 553 596C568 600 584 607 586 615C586 617 586 621 585 623C583 632 573 636 567 642C535 675 515 693 510 699C497 713 497 713 490 720C434 777 358 827 288 850C284 850 284 850 282 850Z"/>
<path id="z25040d14" d="M490 720Q520 785 484 875Q451 919 495 956C496 957 496 957 497 957Q507 964 518 948Q546 913 639 826Q654 812 655 806Q655 795 637 806Q546 857 540 857Q534 855 534 842Q543 767 549 748Q553 731 542 722Q524 704 510 699C501 695 486 711 490 720Z"/>
<path id="z25040d15" d="M705 712Q766 681 797 670Q812 668 809 659Q805 647 790 631Q775 616 756 614Q744 613 743 627Q744 643 689 699C684 704 699 715 705 712Z"/>
<path id="z25040d16" d="M689 699Q661 677 634 652Q609 630 585 623C577 620 560 638 567 642Q601 661 683 749Q779 848 830 850Q899 850 957 842Q988 839 986 830Q986 828 836 781Q772 762 705 712C694 703 694 703 689 699Z"/>
<defs>
	<clipPath id="z25040c1"><use xlink:href="#z25040d1"/></clipPath>
	<clipPath id="z25040c2"><use xlink:href="#z25040d2"/></clipPath>
	<clipPath id="z25040c3"><use xlink:href="#z25040d3"/></clipPath>
	<clipPath id="z25040c4"><use xlink:href="#z25040d4"/></clipPath>
	<clipPath id="z25040c5"><use xlink:href="#z25040d5"/></clipPath>
	<clipPath id="z25040c6"><use xlink:href="#z25040d6"/></clipPath>
	<clipPath id="z25040c7"><use xlink:href="#z25040d7"/></clipPath>
	<clipPath id="z25040c8"><use xlink:href="#z25040d8"/></clipPath>
	<clipPath id="z25040c9"><use xlink:href="#z25040d9"/></clipPath>
	<clipPath id="z25040c10"><use xlink:href="#z25040d10"/></clipPath>
	<clipPath id="z25040c11"><use xlink:href="#z25040d11"/></clipPath>
	<clipPath id="z25040c12"><use xlink:href="#z25040d12"/></clipPath>
	<clipPath id="z25040c13"><use xlink:href="#z25040d13"/></clipPath>
	<clipPath id="z25040c14"><use xlink:href="#z25040d14"/></clipPath>
	<clipPath id="z25040c15"><use xlink:href="#z25040d15"/></clipPath>
	<clipPath id="z25040c16"><use xlink:href="#z25040d16"/></clipPath>
</defs>
<path style="--d:1s;" pathLength="3333" clip-path="url(#z25040c1)" d="M115 373L90 559"/>
<path style="--d:2s;" pathLength="3333" clip-path="url(#z25040c2)" d="M277 347L368 396"/>
<path style="--d:3s;" pathLength="3333" clip-path="url(#z25040c3)" d="M193 86L256 141L228 919"/>
<path style="--d:4s;" pathLength="3333" clip-path="url(#z25040c4)" d="M439 218L811 171"/>
<path style="--d:5s;" pathLength="3333" clip-path="url(#z25040c5)" d="M576 68L620 111L579 291"/>
<path style="--d:6s;" pathLength="3333" clip-path="url(#z25040c6)" d="M392 331L439 374L487 470"/>
<path style="--d:7s;" pathLength="3333" clip-path="url(#z25040c7)" d="M413 328L470 335L767 277L799 314L745 425"/>
<path style="--d:8s;" pathLength="3333" clip-path="url(#z25040c8)" d="M541 337L563 415"/>
<path style="--d:9s;" pathLength="3333" clip-path="url(#z25040c9)" d="M644 317L663 346L634 399"/>
<path style="--d:10s;" pathLength="3333" clip-path="url(#z25040c10)" d="M493 443L727 405"/>
<path style="--d:11s;" pathLength="3333" clip-path="url(#z25040c11)" d="M512 485L596 544"/>
<path style="--d:12s;" pathLength="3333" clip-path="url(#z25040c12)" d="M374 605L815 534L884 540"/>
<path style="--d:13s;" pathLength="3333" clip-path="url(#z25040c13)" d="M 522,610 545,630 432,747 286,846"/>
<path style="--d:14s;" pathLength="3333" clip-path="url(#z25040c14)" d="M505 710L525 748L504 883L518 907L648 807"/>
<path style="--d:15s;" pathLength="3333" clip-path="url(#z25040c15)" d="M 754,622 767,653 696,698"/>
<path style="--d:16s;" pathLength="3333" clip-path="url(#z25040c16)" d="M576 635L793 801L979 832"/>
</svg>