<!--
AnimCJK 2016-2026 Copyright FM-SH - https://github.com/parsimonhi/animCJK
Derived from:
    MakeMeAHanzi project - https://github.com/skishore/makemeahanzi
    Arphic PL KaitiM GB font
    Arphic PL KaitiM Big5 font
You can redistribute and/or modify this file under the terms of the Arphic Public License
as published by Arphic Technology Co., Ltd.
You should have received a copy of this license along with this file.
If not, see https://ftp.gnu.org/non-gnu/chinese-fonts-truetype/LICENSE.
-->
<svg id="z25117" class="acjk" viewBox="0 0 1024 1024" xmlns="http://www.w3.org/2000/svg">
<style>
<![CDATA[
@keyframes zk {
	to {
		stroke-dashoffset:0;
	}
}
svg.acjk path[clip-path] {
	--t:0.8s;
	animation:zk var(--t) linear forwards var(--d);
	stroke-dasharray:3337;
	stroke-dashoffset:3339;
	stroke-width:128;
	stroke-linecap:round;
	fill:none;
	stroke:#000;
}
svg.acjk path[id] {fill:#ccc;}
]]>
</style>
<path id="z25117d1" d="M183 208C168 192 152 187 137 184C131 182 126 185 123 190C121 192 124 196 127 204C151 270 155 380 141 505C134 561 127 576 128 591C128 610 137 626 148 637C155 644 161 644 167 636C169 631 174 625 176 618C181 598 181 598 183 588C187 567 189 513 189 502C189 479 189 479 189 468C189 453 190 390 190 374C190 356 190 356 190 347C190 292 189 255 192 236C194 226 190 215 183 208Z"/>
<path id="z25117d2" d="M314 601C322 613 330 626 339 639C349 654 357 661 363 660C369 658 378 649 386 629C390 617 395 585 393 533C385 352 385 251 400 227C407 214 407 204 403 197C398 190 378 182 344 170C327 164 313 165 301 171C257 190 217 201 183 208C173 210 182 238 192 236C214 232 243 225 277 217C299 211 314 212 322 219C329 226 333 243 334 273C337 393 338 485 335 551C334 559 335 565 333 569C331 581 307 591 314 601Z"/>
<path id="z25117d3" d="M190 374C192 374 255 364 279 360C293 357 298 350 292 343C284 334 272 329 256 328C241 327 208 337 190 347C182 350 181 376 190 374Z"/>
<path id="z25117d4" d="M189 502C225 495 256 490 282 485C298 481 302 475 296 468C288 459 275 452 258 451C242 449 209 460 189 468C178 472 178 504 189 502Z"/>
<path id="z25117d5" d="M176 618C228 611 274 605 314 601C326 599 344 575 333 569C328 566 323 564 317 564C299 560 254 568 183 588C173 590 166 620 176 618Z"/>
<path id="z25117d6" d="M172 682C168 722 129 784 53 864C41 875 43 877 60 874C103 864 153 823 209 749C223 729 235 715 242 707C248 698 249 691 248 686C245 678 235 673 218 670C199 666 187 665 180 668C175 669 172 673 172 682Z"/>
<path id="z25117d7" d="M278 694C304 739 341 781 370 794C392 803 396 770 389 746C382 725 363 707 332 690C308 676 255 657 278 694Z"/>
<path id="z25117d8" d="M609 392C717 356 772 334 774 333C779 327 780 321 777 316C771 307 758 302 738 300C717 297 697 303 677 313C652 324 628 336 602 346C575 356 575 356 561 361C526 373 489 380 450 389C425 394 422 404 442 413C481 430 515 422 569 405C596 396 596 396 609 392Z"/>
<path id="z25117d9" d="M646 665C689 757 732 824 808 889C855 929 893 931 910 923C923 915 930 900 926 874C922 847 918 788 919 696C919 681 918 672 914 670C911 668 906 675 903 688C879 771 860 819 842 816C800 808 739 735 682 631C672 614 667 596 660 579C633 515 617 452 609 392C606 376 603 361 602 346C593 260 595 195 611 153C617 134 607 117 579 99C555 83 538 77 526 79C512 80 506 90 515 108C529 137 538 166 541 197C544 253 552 307 561 361C563 375 566 390 569 405C581 479 600 548 626 614C632 631 638 648 646 665Z"/>
<path id="z25117d10" d="M626 614C577 664 505 704 420 746C413 749 411 754 416 757C420 760 427 760 435 759C477 752 518 738 559 719C591 703 621 687 646 665C670 642 670 642 682 631C725 590 756 537 797 493C802 486 806 481 804 474C801 465 791 454 774 438C761 426 751 420 745 421C735 421 730 426 729 437C724 479 706 531 660 579C637 602 637 602 626 614Z"/>
<path id="z25117d11" d="M705 189C727 204 750 222 774 241C782 247 792 250 803 250C809 249 814 244 817 236C819 226 815 212 809 194C803 180 791 167 768 160C716 142 685 138 676 145C672 147 671 153 674 161C675 167 687 176 705 189Z"/>
<defs>
	<clipPath id="z25117c1"><use href="#z25117d1"/></clipPath>
	<clipPath id="z25117c2"><use href="#z25117d2"/></clipPath>
	<clipPath id="z25117c3"><use href="#z25117d3"/></clipPath>
	<clipPath id="z25117c4"><use href="#z25117d4"/></clipPath>
	<clipPath id="z25117c5"><use href="#z25117d5"/></clipPath>
	<clipPath id="z25117c6"><use href="#z25117d6"/></clipPath>
	<clipPath id="z25117c7"><use href="#z25117d7"/></clipPath>
	<clipPath id="z25117c8"><use href="#z25117d8"/></clipPath>
	<clipPath id="z25117c9"><use href="#z25117d9"/></clipPath>
	<clipPath id="z25117c10"><use href="#z25117d10"/></clipPath>
	<clipPath id="z25117c11"><use href="#z25117d11"/></clipPath>
</defs>
<path style="--d:1s;" pathLength="3333" clip-path="url(#z25117c1)" d="M129 190L165 240L158 637"/>
<path style="--d:2s;" pathLength="3333" clip-path="url(#z25117c2)" d="M182 220L307 191L367 220L355 652"/>
<path style="--d:3s;" pathLength="3333" clip-path="url(#z25117c3)" d="M187 365L288 347"/>
<path style="--d:4s;" pathLength="3333" clip-path="url(#z25117c4)" d="M183 491L294 469"/>
<path style="--d:5s;" pathLength="3333" clip-path="url(#z25117c5)" d="M175 609L332 582"/>
<path style="--d:6s;" pathLength="3333" clip-path="url(#z25117c6)" d="M180 675L204 708L120 819L51 870"/>
<path style="--d:7s;" pathLength="3333" clip-path="url(#z25117c7)" d="M281 681L382 787"/>
<path style="--d:8s;" pathLength="3333" clip-path="url(#z25117c8)" d="M437 400L511 398L775 321"/>
<path style="--d:9s;" pathLength="3333" clip-path="url(#z25117c9)" d="M517 85L571 139L599 455L707 726L803 839L887 874L911 677"/>
<path style="--d:10s;" pathLength="3333" clip-path="url(#z25117c10)" d="M740 425L763 476L655 622L546 702L422 751"/>
<path style="--d:11s;" pathLength="3333" clip-path="url(#z25117c11)" d="M676 151L767 194L805 244"/>
</svg>