<!--
AnimCJK 2016-2017 Copyright Francois Mizessyn, http://gooo.free.fr/animCJK/
Derived from:
    MakeMeAHanzi project - https://github.com/skishore/makemeahanzi
    Arphic PL KaitiM GB - https://apps.ubuntu.com/cat/applications/precise/fonts-arphic-gkai00mp/
    Arphic PL UKai - https://apps.ubuntu.com/cat/applications/fonts-arphic-ukai/
You can redistribute and/or modify this file under the terms of the Arphic Public License
as published by Arphic Technology Co., Ltd.
You should have received a copy of this license (the directory "APL") along with this file;
if not, see http://ftp.gnu.org/non-gnu/chinese-fonts-truetype/LICENSE.
-->
<svg id="z25126" class="acjk" version="1.1" viewBox="0 0 1024 1024" xmlns="http://www.w3.org/2000/svg" xmlns:xlink="http://www.w3.org/1999/xlink">
<style>
<![CDATA[
	@keyframes z25126k {
		from {
			stroke:#c00;
			stroke-dashoffset:3000;
		}
		75% {
			stroke:#c00;
			stroke-dashoffset:0;
		}
		to {
			stroke:#000;
		}
	}
	#z25126 path[clip-path] {
		animation:z25126k 1s linear both;
		stroke-dasharray:3000;
		stroke-width:128;
		stroke-linecap:round;
		fill:none;
	}
	#z25126 path[clip-path="url(#z25126c1)"] {animation-delay:1s;}
	#z25126 path[clip-path="url(#z25126c2)"] {animation-delay:2s;}
	#z25126 path[clip-path="url(#z25126c3)"] {animation-delay:3s;}
	#z25126 path[clip-path="url(#z25126c4)"] {animation-delay:4s;}
	#z25126 path[clip-path="url(#z25126c5)"] {animation-delay:5s;}
	#z25126 path[clip-path="url(#z25126c6)"] {animation-delay:6s;}
	#z25126 path[clip-path="url(#z25126c7)"] {animation-delay:7s;}
	#z25126 path[clip-path="url(#z25126c8)"] {animation-delay:8s;}
	#z25126 path[clip-path="url(#z25126c9)"] {animation-delay:9s;}
	#z25126 path[clip-path="url(#z25126c10)"] {animation-delay:10s;}
	#z25126 path[clip-path="url(#z25126c11)"] {animation-delay:11s;}
	#z25126 path[clip-path="url(#z25126c12)"] {animation-delay:12s;}
	#z25126 path[clip-path="url(#z25126c13)"] {animation-delay:13s;}
	#z25126 path {fill:#ccc;}
]]>
</style>
<g transform="scale(1,-1) translate(0,-900)">
	<path id="z25126d1" d="M182 623Q200 597 220 565Q228 549 244 547Q254 545 262 556Q270 568 268 599Q266 629 188 669Q173 676 167 675Q163 672 161 659Q161 649 182 623Z"/>
	<path id="z25126d2" d="M287 682Q303 654 321 620Q328 606 341 602Q350 600 358 609Q366 620 367 646Q367 676 296 723Q285 731 279 730Q275 728 272 717Q272 707 287 682Z"/>
	<path id="z25126d3" d="M455 697Q432 649 383 570Q377 563 385 555Q392 555 401 561Q490 651 536 686Q555 695 549 705Q540 720 517 738Q493 754 469 753Q453 751 457 729Q463 715 455 697Z"/>
	<path id="z25126d4" d="M204 520Q194 524 169 528Q159 531 155 526Q149 520 157 505Q185 447 204 351Q208 321 224 303Q242 282 246 297Q247 304 249 313L249 341Q248 350 246 360Q227 462 222 492L204 520Z"/>
	<path id="z25126d5" d="M429 342Q442 321 457 314Q467 307 480 326Q492 348 518 464Q525 492 545 514Q557 524 546 537Q533 552 495 574Q479 580 417 564Q399 563 282 537Q242 528 204 520L222 492Q259 505 315 515L354 523Q444 544 463 532Q475 523 472 505Q450 378 435 368L429 342Z"/>
	<path id="z25126d6" d="M372 434Q396 440 418 443Q437 447 429 458Q419 470 398 472Q388 473 375 470L326 455Q295 445 269 435Q256 431 273 419Q276 418 327 425L372 434Z"/>
	<path id="z25126d7" d="M368 334Q395 338 429 342L435 368Q432 371 428 373Q409 383 369 367L326 357Q286 348 249 341L249 313Q255 313 262 314Q286 321 325 327L368 334Z"/>
	<path id="z25126d8" d="M367 216Q439 232 528 246Q546 249 546 256Q547 269 528 278Q500 291 477 284Q416 269 367 256L322 246Q144 209 73 200Q60 199 57 190Q53 180 69 168Q108 141 153 154Q252 188 319 204L367 216Z"/>
	<path id="z25126d9" d="M319 204Q310 83 302 59Q290 26 325 -28Q335 -46 344 -50Q354 -51 360 -39Q372 -8 369 22Q368 125 367 216L367 256Q367 296 368 334L369 367Q370 406 372 434L375 470Q378 503 374 507Q364 517 354 523L315 515Q324 499 326 469Q326 463 326 455L327 425Q327 394 326 357L325 327Q325 278 322 246L319 204Z"/>
	<path id="z25126d10" d="M686 459Q740 478 797 497Q834 510 838 517Q845 526 840 533Q833 543 803 547Q778 548 680 504L639 489Q599 476 552 465Q518 455 545 442Q593 421 645 446L686 459Z"/>
	<path id="z25126d11" d="M705 208Q753 78 839 -5Q902 -54 931 -53Q952 -49 944 -19Q935 17 921 123Q920 147 910 146Q904 145 899 124Q874 70 862 70Q849 74 829 93Q780 151 743 231Q740 237 738 242L718 302Q700 359 686 459L680 504Q659 664 680 757Q695 797 640 821Q606 837 585 832Q566 826 574 806Q617 763 616 729Q625 593 639 489L645 446Q657 350 687 262L705 208Z"/>
	<path id="z25126d12" d="M687 262Q627 193 483 92Q473 88 484 84Q494 83 519 94Q561 107 600 130Q649 158 705 208L738 242Q778 285 836 353Q846 366 854 370Q863 374 862 386Q861 396 850 411Q820 448 784 444Q775 443 776 429Q779 384 718 302L687 262Z"/>
	<path id="z25126d13" d="M767 711Q794 689 821 660Q836 647 852 646Q862 647 869 661Q873 676 865 707Q859 728 828 742Q755 770 740 763Q734 759 736 746Q740 734 767 711Z"/>
	<defs>
		<clipPath id="z25126c1"><use xlink:href="#z25126d1"/></clipPath>
		<clipPath id="z25126c2"><use xlink:href="#z25126d2"/></clipPath>
		<clipPath id="z25126c3"><use xlink:href="#z25126d3"/></clipPath>
		<clipPath id="z25126c4"><use xlink:href="#z25126d4"/></clipPath>
		<clipPath id="z25126c5"><use xlink:href="#z25126d5"/></clipPath>
		<clipPath id="z25126c6"><use xlink:href="#z25126d6"/></clipPath>
		<clipPath id="z25126c7"><use xlink:href="#z25126d7"/></clipPath>
		<clipPath id="z25126c8"><use xlink:href="#z25126d8"/></clipPath>
		<clipPath id="z25126c9"><use xlink:href="#z25126d9"/></clipPath>
		<clipPath id="z25126c10"><use xlink:href="#z25126d10"/></clipPath>
		<clipPath id="z25126c11"><use xlink:href="#z25126d11"/></clipPath>
		<clipPath id="z25126c12"><use xlink:href="#z25126d12"/></clipPath>
		<clipPath id="z25126c13"><use xlink:href="#z25126d13"/></clipPath>
	</defs>
	<path pathLength="2999" clip-path="url(#z25126c1)" d="M170 667L253 552"/>
	<path pathLength="2999" clip-path="url(#z25126c2)" d="M282 724L350 607"/>
	<path pathLength="2999" clip-path="url(#z25126c3)" d="M464 747L504 703L387 561"/>
	<path pathLength="2999" clip-path="url(#z25126c4)" d="M159 522L197 479L237 297"/>
	<path pathLength="2999" clip-path="url(#z25126c5)" d="M211 518L485 550L511 516L458 317"/>
	<path pathLength="2999" clip-path="url(#z25126c6)" d="M271 429L426 456"/>
	<path pathLength="2999" clip-path="url(#z25126c7)" d="M254 321L430 361"/>
	<path pathLength="2999" clip-path="url(#z25126c8)" d="M62 187L126 179L541 260"/>
	<path pathLength="2999" clip-path="url(#z25126c9)" d="M322 512L351 484L342 -43"/>
	<path pathLength="2999" clip-path="url(#z25126c10)" d="M543 454L836 524"/>
	<path pathLength="2999" clip-path="url(#z25126c11)" d="M578 822L647 766L667 439L739 185L811 70L894 1L918 13L911 139"/>
	<path pathLength="2999" clip-path="url(#z25126c12)" d="M784 435L814 382L715 255L595 150L488 90"/>
	<path pathLength="2999" clip-path="url(#z25126c13)" d="M743 756L865 662"/>
</g>
</svg>