<!--
AnimCJK 2016-2018 Copyright Francois Mizessyn, https://github.com/parsimonhi/animCJK
Derived from:
    MakeMeAHanzi project - https://github.com/skishore/makemeahanzi
    Arphic PL KaitiM GB - https://apps.ubuntu.com/cat/applications/precise/fonts-arphic-gkai00mp/
    Arphic PL UKai - https://apps.ubuntu.com/cat/applications/fonts-arphic-ukai/
You can redistribute and/or modify this file under the terms of the Arphic Public License
as published by Arphic Technology Co., Ltd.
You should have received a copy of this license (the directory "APL") along with this file;
if not, see http://ftp.gnu.org/non-gnu/chinese-fonts-truetype/LICENSE.
-->
<svg id="z25140" class="acjk" version="1.1" viewBox="0 0 1024 1024" xmlns="http://www.w3.org/2000/svg" xmlns:xlink="http://www.w3.org/1999/xlink">
<style>
<![CDATA[
@keyframes z25140k {
	from {
		stroke:#c00;
		stroke-dashoffset:3334;
	}
	75% {
		stroke:#c00;
		stroke-dashoffset:0;
	}
	to {
		stroke:#000;
	}
}
#z25140 path[clip-path] {
	animation:z25140k 1s linear both;
	stroke-dasharray:3334;
	stroke-width:128;
	stroke-linecap:round;
	fill:none;
}
#z25140 path[clip-path="url(#z25140c1)"] {animation-delay:1s;}
#z25140 path[clip-path="url(#z25140c2)"] {animation-delay:2s;}
#z25140 path[clip-path="url(#z25140c3)"] {animation-delay:3s;}
#z25140 path[clip-path="url(#z25140c4)"] {animation-delay:4s;}
#z25140 path[clip-path="url(#z25140c5)"] {animation-delay:5s;}
#z25140 path[clip-path="url(#z25140c6)"] {animation-delay:6s;}
#z25140 path[clip-path="url(#z25140c7)"] {animation-delay:7s;}
#z25140 path[clip-path="url(#z25140c8)"] {animation-delay:8s;}
#z25140 path[clip-path="url(#z25140c9)"] {animation-delay:9s;}
#z25140 path[clip-path="url(#z25140c10)"] {animation-delay:10s;}
#z25140 path[clip-path="url(#z25140c11)"] {animation-delay:11s;}
#z25140 path[clip-path="url(#z25140c12)"] {animation-delay:12s;}
#z25140 path[clip-path="url(#z25140c13)"] {animation-delay:13s;}
#z25140 path[clip-path="url(#z25140c14)"] {animation-delay:14s;}
#z25140 path[clip-path="url(#z25140c15)"] {animation-delay:15s;}
#z25140 path[clip-path="url(#z25140c16)"] {animation-delay:16s;}
#z25140 path[clip-path="url(#z25140c17)"] {animation-delay:17s;}
#z25140 path {fill:#ccc;}
]]>
</style>
<path id="z25140d1" d="M396 229Q505 201 507 200Q514 193 511 186Q504 176 479 170Q454 166 428 175Q413 179 400 185L347 201Q301 211 247 216Q216 222 238 236Q269 252 335 241Q341 240 349 239L396 229 Z"/>
<path id="z25140d2" d="M386 315Q390 270 396 229L400 185Q400 172 407 147Q413 120 402 111Q399 110 398 108Q370 92 348 88Q335 85 328 93Q321 99 328 112Q343 130 347 201L349 239Q350 276 350 320L386 315 Z"/>
<path id="z25140d3" d="M629 313Q740 304 854 295Q855 294 857 292Q861 279 845 266Q785 229 723 247Q678 257 625 270L578 279Q455 300 386 315L350 320Q242 336 124 357Q102 361 119 377Q149 404 189 394Q381 334 583 317L629 313 Z"/>
<path id="z25140d4" d="M236 420Q226 416 200 413Q190 412 188 416Q184 420 191 433Q216 476 233 548Q237 570 251 584Q266 600 269 587Q270 583 270 579L269 553Q268 546 267 540Q251 473 247 448L236 420 Z"/>
<path id="z25140d5" d="M449 551Q453 560 463 559Q473 558 478 546Q485 537 499 490Q509 450 536 425Q549 412 536 401Q523 389 483 371Q471 365 414 381Q390 381 298 406Q261 415 236 420L247 448Q280 436 331 426L364 419Q443 398 461 408Q468 412 465 432Q453 520 447 527L449 551 Z"/>
<path id="z25140d6" d="M368 533Q369 511 371 491L373 461Q373 458 374 457Q375 451 375 447Q381 435 374 428Q370 424 364 419L331 426Q331 430 335 471L336 498Q336 514 337 540L368 533 Z"/>
<path id="z25140d7" d="M371 491Q398 485 422 482Q438 478 433 469Q426 459 407 456Q394 455 373 461L335 471Q307 478 281 487Q269 490 284 501Q287 501 336 498L371 491 Z"/>
<path id="z25140d8" d="M417 555Q430 552 449 551L447 527Q446 526 442 523Q427 514 368 533L337 540Q300 546 269 553L270 579Q277 570 384 559L417 555 Z"/>
<path id="z25140d9" d="M432 644Q463 638 492 635Q499 636 506 627Q507 618 490 611Q469 598 448 604Q444 604 441 607L394 618Q360 624 303 639L258 645Q233 648 207 652Q186 653 202 666Q224 684 264 675L266 675L303 667Q342 657 393 650L432 644 Z"/>
<path id="z25140d10" d="M303 639Q303 638 304 637Q304 621 294 614Q276 602 257 597Q247 594 241 599Q237 603 241 614Q251 629 258 645L266 675Q270 694 278 729L308 722Q304 673 303 667L303 639 Z"/>
<path id="z25140d11" d="M421 696Q425 669 432 644L441 607Q444 597 449 586Q452 579 440 569Q427 560 417 555L384 559Q396 584 394 618L393 650Q392 675 389 703L421 696 Z"/>
<path id="z25140d12" d="M297 764Q369 737 526 714Q541 713 542 705Q543 693 526 686Q499 674 421 696L389 703Q343 713 308 722L278 729Q244 733 229 737Q186 744 148 749Q136 750 134 758Q131 767 145 777Q181 799 225 786Q247 777 272 771L297 764 Z"/>
<path id="z25140d13" d="M272 771L273 773Q277 785 270 795Q240 843 166 908Q157 912 154 917Q150 924 160 925Q200 925 296 843Q311 830 322 824Q329 820 329 809Q325 781 297 764L272 771 Z"/>
<path id="z25140d14" d="M420 812Q444 839 469 871Q478 883 491 884Q500 885 505 875Q511 863 507 839Q506 820 479 801Q415 765 404 769Q400 772 399 783Q400 792 420 812 Z"/>
<path id="z25140d15" d="M687 713Q739 833 833 917Q896 966 926 964Q947 960 939 930Q932 881 932 737Q931 715 922 714Q916 715 910 735Q874 840 854 842Q841 838 820 820Q765 762 723 681Q722 678 720 676L697 618Q652 498 629 313L625 270Q619 192 628 139Q641 97 584 75Q548 59 527 67Q506 74 516 94Q564 137 564 171Q570 226 578 279L583 317Q614 527 667 663L687 713 Z"/>
<path id="z25140d16" d="M667 663Q583 760 538 802Q531 809 538 813Q578 819 687 713L720 676Q774 598 807 494Q817 467 831 442Q838 432 831 421Q824 411 792 396Q770 386 760 388Q747 392 749 408Q764 502 697 618L667 663 Z"/>
<path id="z25140d17" d="M724 150Q751 169 780 191Q795 201 811 199Q821 198 825 184Q828 168 815 140Q808 122 777 113Q702 95 692 105Q688 109 690 122Q694 132 724 150 Z"/>
<defs>
	<clipPath id="z25140c1"><use xlink:href="#z25140d1"/></clipPath>
	<clipPath id="z25140c2"><use xlink:href="#z25140d2"/></clipPath>
	<clipPath id="z25140c3"><use xlink:href="#z25140d3"/></clipPath>
	<clipPath id="z25140c4"><use xlink:href="#z25140d4"/></clipPath>
	<clipPath id="z25140c5"><use xlink:href="#z25140d5"/></clipPath>
	<clipPath id="z25140c6"><use xlink:href="#z25140d6"/></clipPath>
	<clipPath id="z25140c7"><use xlink:href="#z25140d7"/></clipPath>
	<clipPath id="z25140c8"><use xlink:href="#z25140d8"/></clipPath>
	<clipPath id="z25140c9"><use xlink:href="#z25140d9"/></clipPath>
	<clipPath id="z25140c10"><use xlink:href="#z25140d10"/></clipPath>
	<clipPath id="z25140c11"><use xlink:href="#z25140d11"/></clipPath>
	<clipPath id="z25140c12"><use xlink:href="#z25140d12"/></clipPath>
	<clipPath id="z25140c13"><use xlink:href="#z25140d13"/></clipPath>
	<clipPath id="z25140c14"><use xlink:href="#z25140d14"/></clipPath>
	<clipPath id="z25140c15"><use xlink:href="#z25140d15"/></clipPath>
	<clipPath id="z25140c16"><use xlink:href="#z25140d16"/></clipPath>
	<clipPath id="z25140c17"><use xlink:href="#z25140d17"/></clipPath>
</defs>
<path pathLength="3333" clip-path="url(#z25140c1)" d="M235 225L506 192"/>
<path pathLength="3333" clip-path="url(#z25140c2)" d="M333 99L374 135L364 317"/>
<path pathLength="3333" clip-path="url(#z25140c3)" d="M118 363L173 372L744 273L853 287"/>
<path pathLength="3333" clip-path="url(#z25140c4)" d="M194 418L218 435L262 584"/>
<path pathLength="3333" clip-path="url(#z25140c5)" d="M244 425L451 388L491 400L504 418L461 553"/>
<path pathLength="3333" clip-path="url(#z25140c6)" d="M364 427L346 536"/>
<path pathLength="3333" clip-path="url(#z25140c7)" d="M284 492L427 472"/>
<path pathLength="3333" clip-path="url(#z25140c8)" d="M274 570L445 536"/>
<path pathLength="3333" clip-path="url(#z25140c9)" d="M204 658L500 626"/>
<path pathLength="3333" clip-path="url(#z25140c10)" d="M248 607L280 636L297 722"/>
<path pathLength="3333" clip-path="url(#z25140c11)" d="M392 563L422 595L396 695"/>
<path pathLength="3333" clip-path="url(#z25140c12)" d="M140 760L200 766L535 700"/>
<path pathLength="3333" clip-path="url(#z25140c13)" d="M295 770L296 810L162 918"/>
<path pathLength="3333" clip-path="url(#z25140c14)" d="M407 777L480 840L493 880"/>
<path pathLength="3333" clip-path="url(#z25140c15)" d="M518 82L591 125L637 492L753 782L822 863L910 913L922 721"/>
<path pathLength="3333" clip-path="url(#z25140c16)" d="M758 394L793 436L736 599L660 707L541 807"/>
<path pathLength="3333" clip-path="url(#z25140c17)" d="M697 109L818 191"/>
</svg>