<!--
AnimCJK 2016-2018 Copyright Francois Mizessyn, https://github.com/parsimonhi/animCJK
Derived from:
    MakeMeAHanzi project - https://github.com/skishore/makemeahanzi
    Arphic PL KaitiM GB - https://apps.ubuntu.com/cat/applications/precise/fonts-arphic-gkai00mp/
    Arphic PL UKai - https://apps.ubuntu.com/cat/applications/fonts-arphic-ukai/
You can redistribute and/or modify this file under the terms of the Arphic Public License
as published by Arphic Technology Co., Ltd.
You should have received a copy of this license (the directory "APL") along with this file;
if not, see http://ftp.gnu.org/non-gnu/chinese-fonts-truetype/LICENSE.
-->
<svg id="z25152" class="acjk" version="1.1" viewBox="0 0 1024 1024" xmlns="http://www.w3.org/2000/svg" xmlns:xlink="http://www.w3.org/1999/xlink">
<style>
<![CDATA[
@keyframes z25152k {
	from {
		stroke:#c00;
		stroke-dashoffset:3334;
	}
	75% {
		stroke:#c00;
		stroke-dashoffset:0;
	}
	to {
		stroke:#000;
	}
}
#z25152 path[clip-path] {
	animation:z25152k 1s linear both;
	stroke-dasharray:3334;
	stroke-width:128;
	stroke-linecap:round;
	fill:none;
}
#z25152 path[clip-path="url(#z25152c1)"] {animation-delay:1s;}
#z25152 path[clip-path="url(#z25152c2)"] {animation-delay:2s;}
#z25152 path[clip-path="url(#z25152c3)"] {animation-delay:3s;}
#z25152 path[clip-path="url(#z25152c4)"] {animation-delay:4s;}
#z25152 path[clip-path="url(#z25152c5)"] {animation-delay:5s;}
#z25152 path[clip-path="url(#z25152c6)"] {animation-delay:6s;}
#z25152 path[clip-path="url(#z25152c7)"] {animation-delay:7s;}
#z25152 path[clip-path="url(#z25152c8)"] {animation-delay:8s;}
#z25152 path {fill:#ccc;}
]]>
</style>
<path id="z25152d1" d="M203 242Q176 249 198 267Q229 289 282 277Q331 265 384 251Q409 243 412 238Q419 230 414 220Q407 208 383 200Q361 194 291 224Q252 237 203 242 Z"/>
<path id="z25152d2" d="M424 501C436 441 451 402 469 384C483 368 483 355 467 345C426 323 403 313 398 314C393 314 388 316 384 319C357 338 313 355 255 368L256 394C266 395 278 393 292 389C318 381 342 375 365 369C379 365 389 367 393 373C397 377 391 417 376 493 Z"/>
<path id="z25152d3" d="M233 561C241 563 252 564 264 562C298 552 355 541 434 531C440 531 444 527 445 520C445 516 438 509 424 501L376 493C372 494 368 495 366 496C319 511 276 523 238 532 Z"/>
<path id="z25152d4" d="M243 488C243 485 244 482 245 479C248 439 248 422 251 412C253 405 256 398 256 395L256 367C223 346 190 342 177 346C169 349 167 354 172 362C186 377 191 403 190 439C185 540 173 617 153 670C130 724 97 778 53 832C50 836 48 839 47 842C46 847 48 850 54 850C65 849 81 838 103 814C147 777 184 719 212 641L219 618C226 603 233 567 241 509 Z"/>
<path id="z25152d5" d="M596 228Q615 221 644 212Q698 194 738 174Q784 153 823 144Q841 143 844 134Q848 124 835 112Q813 96 766 81Q750 74 736 76Q729 80 729 91Q729 125 583 207L596 228 Z"/>
<path id="z25152d6" d="M585 366Q586 297 595 235Q596 231 596 228L583 207Q582 206 579 205Q530 181 514 184Q495 188 511 210Q542 261 525 469Q516 529 487 601Q457 676 375 752Q362 765 358 772Q357 779 368 778Q407 778 477 702Q561 606 583 395L585 366 Z"/>
<path id="z25152d7" d="M755 378Q819 366 926 366Q945 365 949 357Q953 345 937 333Q883 297 826 316Q721 338 585 366L583 395Q607 407 653 395Q669 389 693 387L755 378 Z"/>
<path id="z25152d8" d="M714 931Q720 956 726 965Q732 972 739 970Q757 958 760 903Q767 834 767 767Q764 709 770 487Q770 447 780 413Q783 395 769 386Q762 380 755 378L693 387Q711 418 714 451Q715 575 711 769Q710 890 714 931 Z"/>
<defs>
	<clipPath id="z25152c1"><use xlink:href="#z25152d1"/></clipPath>
	<clipPath id="z25152c2"><use xlink:href="#z25152d2"/></clipPath>
	<clipPath id="z25152c3"><use xlink:href="#z25152d3"/></clipPath>
	<clipPath id="z25152c4"><use xlink:href="#z25152d4"/></clipPath>
	<clipPath id="z25152c5"><use xlink:href="#z25152d5"/></clipPath>
	<clipPath id="z25152c6"><use xlink:href="#z25152d6"/></clipPath>
	<clipPath id="z25152c7"><use xlink:href="#z25152d7"/></clipPath>
	<clipPath id="z25152c8"><use xlink:href="#z25152d8"/></clipPath>
</defs>
<path pathLength="3333" clip-path="url(#z25152c1)" d="M194 254L410 220"/>
<path pathLength="3333" clip-path="url(#z25152c2)" d="M265 386L387 342L421 354L435 379L397 496"/>
<path pathLength="3333" clip-path="url(#z25152c3)" d="M243 555L376 516L440 522"/>
<path pathLength="3333" clip-path="url(#z25152c4)" d="M175 351L222 389L195 613L147 731L55 843"/>
<path pathLength="3333" clip-path="url(#z25152c5)" d="M841 131L746 122L591 219"/>
<path pathLength="3333" clip-path="url(#z25152c6)" d="M510 191L559 237L539 517L469 678L368 772"/>
<path pathLength="3333" clip-path="url(#z25152c7)" d="M588 389L845 339L944 348"/>
<path pathLength="3333" clip-path="url(#z25152c8)" d="M702 389L745 423L736 964"/>
</svg>