<!--
AnimCJK 2016-2017 Copyright Francois Mizessyn, http://gooo.free.fr/animCJK/
Derived from:
    MakeMeAHanzi project - https://github.com/skishore/makemeahanzi
    Arphic PL KaitiM GB - https://apps.ubuntu.com/cat/applications/precise/fonts-arphic-gkai00mp/
    Arphic PL UKai - https://apps.ubuntu.com/cat/applications/fonts-arphic-ukai/
You can redistribute and/or modify this file under the terms of the Arphic Public License
as published by Arphic Technology Co., Ltd.
You should have received a copy of this license (the directory "APL") along with this file;
if not, see http://ftp.gnu.org/non-gnu/chinese-fonts-truetype/LICENSE.
-->
<svg id="z25163" class="acjk" version="1.1" viewBox="0 0 1024 1024" xmlns="http://www.w3.org/2000/svg" xmlns:xlink="http://www.w3.org/1999/xlink">
<style>
<![CDATA[
	@keyframes z25163k {
		from {
			stroke:#c00;
			stroke-dashoffset:3000;
		}
		75% {
			stroke:#c00;
			stroke-dashoffset:0;
		}
		to {
			stroke:#000;
		}
	}
	#z25163 path[clip-path] {
		animation:z25163k 1s linear both;
		stroke-dasharray:3000;
		stroke-width:128;
		stroke-linecap:round;
		fill:none;
	}
	#z25163 path[clip-path="url(#z25163c1)"] {animation-delay:1s;}
	#z25163 path[clip-path="url(#z25163c2)"] {animation-delay:2s;}
	#z25163 path[clip-path="url(#z25163c3)"] {animation-delay:3s;}
	#z25163 path[clip-path="url(#z25163c4)"] {animation-delay:4s;}
	#z25163 path {fill:#ccc;}
]]>
</style>
<g transform="scale(1,-1) translate(0,-900)">
	<path id="z25163d1" d="M502 718Q550 731 590 746Q641 759 683 764Q701 763 706 771Q710 781 700 795Q679 814 634 837Q619 847 605 847Q596 844 594 832Q591 802 411 730Q365 714 310 696Q303 687 310 684Q328 678 449 707Q458 708 468 711L502 718Z"/>
	<path id="z25163d2" d="M555 563Q697 591 706 599Q716 606 711 616Q704 628 674 636Q644 643 547 611L506 600Q496 599 486 596Q413 580 327 574Q290 568 315 550Q358 528 428 540Q468 549 513 554L555 563Z"/>
	<path id="z25163d3" d="M575 389Q687 398 843 397Q927 394 935 406Q942 419 923 436Q863 479 820 471Q723 452 571 429L525 422Q513 422 503 420Q325 398 115 373Q90 372 108 351Q124 335 145 329Q169 322 187 328Q352 373 527 385L575 389Z"/>
	<path id="z25163d4" d="M527 385Q536 154 492 78Q488 69 479 66Q467 62 376 87Q369 88 366 85Q365 81 373 73Q437 19 470 -22Q482 -35 489 -33Q505 -32 532 -3Q590 57 589 171Q590 237 575 389L571 429Q562 519 555 563L547 611Q541 650 540 680Q540 699 528 706Q515 713 502 718L468 711Q486 687 506 600L513 554Q520 493 525 422L527 385Z"/>
	<defs>
		<clipPath id="z25163c1"><use xlink:href="#z25163d1"/></clipPath>
		<clipPath id="z25163c2"><use xlink:href="#z25163d2"/></clipPath>
		<clipPath id="z25163c3"><use xlink:href="#z25163d3"/></clipPath>
		<clipPath id="z25163c4"><use xlink:href="#z25163d4"/></clipPath>
	</defs>
	<path pathLength="2999" clip-path="url(#z25163c1)" d="M702 774L610 800L498 741L314 690"/>
	<path pathLength="2999" clip-path="url(#z25163c2)" d="M313 564L416 561L706 612"/>
	<path pathLength="2999" clip-path="url(#z25163c3)" d="M108 365L168 352L829 435L932 419"/>
	<path pathLength="2999" clip-path="url(#z25163c4)" d="M475 709L510 687L534 559L551 137L525 55L482 16L373 81"/>
</g>
</svg>