<!--
AnimCJK 2016-2018 Copyright Francois Mizessyn, https://github.com/parsimonhi/animCJK
Derived from:
    MakeMeAHanzi project - https://github.com/skishore/makemeahanzi
    Arphic PL KaitiM GB - https://apps.ubuntu.com/cat/applications/precise/fonts-arphic-gkai00mp/
    Arphic PL UKai - https://apps.ubuntu.com/cat/applications/fonts-arphic-ukai/
You can redistribute and/or modify this file under the terms of the Arphic Public License
as published by Arphic Technology Co., Ltd.
You should have received a copy of this license (the directory "APL") along with this file;
if not, see http://ftp.gnu.org/non-gnu/chinese-fonts-truetype/LICENSE.
-->
<svg id="z25171" class="acjk" version="1.1" viewBox="0 0 1024 1024" xmlns="http://www.w3.org/2000/svg" xmlns:xlink="http://www.w3.org/1999/xlink">
<style>
<![CDATA[
@keyframes z25171k {
	from {
		stroke:#c00;
		stroke-dashoffset:3334;
	}
	75% {
		stroke:#c00;
		stroke-dashoffset:0;
	}
	to {
		stroke:#000;
	}
}
#z25171 path[clip-path] {
	animation:z25171k 1s linear both;
	stroke-dasharray:3334;
	stroke-width:128;
	stroke-linecap:round;
	fill:none;
}
#z25171 path[clip-path="url(#z25171c1)"] {animation-delay:1s;}
#z25171 path[clip-path="url(#z25171c2)"] {animation-delay:2s;}
#z25171 path[clip-path="url(#z25171c3)"] {animation-delay:3s;}
#z25171 path[clip-path="url(#z25171c4)"] {animation-delay:4s;}
#z25171 path[clip-path="url(#z25171c5)"] {animation-delay:5s;}
#z25171 path {fill:#ccc;}
]]>
</style>
<path id="z25171d1" d="M364 368Q458 338 460 337Q469 328 464 320Q455 308 426 302Q395 298 366 311L316 330Q226 357 148 369Q111 378 138 393Q183 417 239 399Q276 389 315 380L364 368 Z"/>
<path id="z25171d2" d="M312 568Q311 653 310 759Q309 783 297 791Q291 795 237 792Q204 782 207 791Q208 798 229 813Q284 858 297 884Q313 914 327 915Q342 916 356 881Q372 835 371 762Q364 648 362 534L362 501Q361 434 364 368L366 311Q366 212 386 143Q404 113 348 91Q314 72 295 79Q277 85 293 108Q315 136 316 169Q317 187 316 330L315 380Q314 441 313 525L312 568 Z"/>
<path id="z25171d3" d="M362 534Q432 488 440 480Q447 467 436 467Q421 467 362 501L313 525Q213 573 126 619Q87 638 63 643Q50 649 46 657Q45 667 59 682Q78 700 102 710Q117 714 133 700Q199 642 312 568L362 534 Z"/>
<path id="z25171d4" d="M709 383Q802 368 906 368Q925 367 929 358Q933 346 917 334Q860 295 805 316Q687 343 487 382Q466 385 483 401Q496 414 514 418Q535 422 550 416Q599 400 656 391L709 383 Z"/>
<path id="z25171d5" d="M625 842Q598 835 565 828Q552 824 553 832Q554 841 565 850Q637 902 684 946Q697 955 711 938Q751 881 745 799Q730 598 738 444Q744 416 738 405Q731 395 709 383L656 391Q671 439 673 462Q673 465 673 468Q688 813 668 842Q656 851 625 842 Z"/>
<defs>
	<clipPath id="z25171c1"><use xlink:href="#z25171d1"/></clipPath>
	<clipPath id="z25171c2"><use xlink:href="#z25171d2"/></clipPath>
	<clipPath id="z25171c3"><use xlink:href="#z25171d3"/></clipPath>
	<clipPath id="z25171c4"><use xlink:href="#z25171d4"/></clipPath>
	<clipPath id="z25171c5"><use xlink:href="#z25171d5"/></clipPath>
</defs>
<path pathLength="3333" clip-path="url(#z25171c1)" d="M135 382L461 328"/>
<path pathLength="3333" clip-path="url(#z25171c2)" d="M294 89L350 133L339 779L312 864L217 792"/>
<path pathLength="3333" clip-path="url(#z25171c3)" d="M52 661L107 671L433 476"/>
<path pathLength="3333" clip-path="url(#z25171c4)" d="M484 390L833 339L925 351"/>
<path pathLength="3333" clip-path="url(#z25171c5)" d="M665 395L705 428L707 845L674 897L560 834"/>
</svg>