<!--
AnimCJK 2016-2018 Copyright Francois Mizessyn, https://github.com/parsimonhi/animCJK
Derived from:
    MakeMeAHanzi project - https://github.com/skishore/makemeahanzi
    Arphic PL KaitiM GB - https://apps.ubuntu.com/cat/applications/precise/fonts-arphic-gkai00mp/
    Arphic PL UKai - https://apps.ubuntu.com/cat/applications/fonts-arphic-ukai/
You can redistribute and/or modify this file under the terms of the Arphic Public License
as published by Arphic Technology Co., Ltd.
You should have received a copy of this license (the directory "APL") along with this file;
if not, see http://ftp.gnu.org/non-gnu/chinese-fonts-truetype/LICENSE.
-->
<svg id="z25293" class="acjk" version="1.1" viewBox="0 0 1024 1024" xmlns="http://www.w3.org/2000/svg" xmlns:xlink="http://www.w3.org/1999/xlink">
<style>
<![CDATA[
@keyframes z25293k {
	from {
		stroke:#c00;
		stroke-dashoffset:3334;
	}
	75% {
		stroke:#c00;
		stroke-dashoffset:0;
	}
	to {
		stroke:#000;
	}
}
#z25293 path[clip-path] {
	animation:z25293k 1s linear both;
	stroke-dasharray:3334;
	stroke-width:128;
	stroke-linecap:round;
	fill:none;
}
#z25293 path[clip-path="url(#z25293c1)"] {animation-delay:1s;}
#z25293 path[clip-path="url(#z25293c2)"] {animation-delay:2s;}
#z25293 path[clip-path="url(#z25293c3)"] {animation-delay:3s;}
#z25293 path[clip-path="url(#z25293c4)"] {animation-delay:4s;}
#z25293 path[clip-path="url(#z25293c5)"] {animation-delay:5s;}
#z25293 path[clip-path="url(#z25293c6)"] {animation-delay:6s;}
#z25293 path[clip-path="url(#z25293c7)"] {animation-delay:7s;}
#z25293 path[clip-path="url(#z25293c8)"] {animation-delay:8s;}
#z25293 path {fill:#ccc;}
]]>
</style>
<path id="z25293d1" d="M355 340Q374 333 399 327Q436 314 441 309Q450 300 444 292Q437 280 406 276Q381 272 358 282L307 303Q207 337 146 349Q109 359 138 373Q183 391 256 369Q280 362 307 354L355 340 Z"/>
<path id="z25293d2" d="M303 544Q300 640 299 762Q298 786 285 795Q279 801 209 788Q176 778 179 787Q180 794 201 809Q264 857 280 885Q299 918 315 919Q328 920 344 885Q362 839 359 766Q352 636 352 507L352 474Q352 407 355 340L358 282Q358 203 378 136Q394 105 340 83Q306 64 287 71Q269 77 285 100Q307 127 307 161Q308 177 307 303L307 354Q306 417 303 503L303 544 Z"/>
<path id="z25293d3" d="M352 507Q415 459 420 452Q427 439 416 440Q401 441 352 474L303 503Q206 558 122 611Q88 632 64 638Q51 645 49 653Q48 662 63 676Q82 692 106 699Q122 703 132 691Q177 646 303 544L352 507 Z"/>
<path id="z25293d4" d="M581 402Q627 341 652 298Q712 198 732 179Q751 160 733 144Q711 131 677 126Q646 120 633 129Q620 136 629 149Q647 179 603 290Q579 345 554 406L581 402 Z"/>
<path id="z25293d5" d="M520 409Q499 394 478 386Q471 383 465 388Q458 394 466 406Q511 502 500 709Q499 743 514 776Q524 798 536 805Q552 812 556 780Q556 776 556 771L556 737Q553 703 547 602L545 573Q545 504 546 445L520 409 Z"/>
<path id="z25293d6" d="M738 757Q750 782 775 828Q785 846 795 844Q811 840 819 814Q853 738 853 636Q857 572 860 500Q864 451 886 421Q902 402 890 388Q868 367 821 348Q802 338 770 351Q706 376 581 402L554 406Q536 407 520 409L546 445Q556 439 756 401Q778 397 788 407Q821 461 784 707Q783 723 777 730L738 757 Z"/>
<path id="z25293d7" d="M547 602Q553 603 565 602Q659 589 728 580Q756 576 745 561Q733 545 703 538Q670 532 545 573L547 602 Z"/>
<path id="z25293d8" d="M556 771Q559 771 563 771Q621 761 738 757L777 730Q770 723 758 715Q742 705 711 711Q626 727 556 737L556 771 Z"/>
<defs>
	<clipPath id="z25293c1"><use xlink:href="#z25293d1"/></clipPath>
	<clipPath id="z25293c2"><use xlink:href="#z25293d2"/></clipPath>
	<clipPath id="z25293c3"><use xlink:href="#z25293d3"/></clipPath>
	<clipPath id="z25293c4"><use xlink:href="#z25293d4"/></clipPath>
	<clipPath id="z25293c5"><use xlink:href="#z25293d5"/></clipPath>
	<clipPath id="z25293c6"><use xlink:href="#z25293d6"/></clipPath>
	<clipPath id="z25293c7"><use xlink:href="#z25293d7"/></clipPath>
	<clipPath id="z25293c8"><use xlink:href="#z25293d8"/></clipPath>
</defs>
<path pathLength="3333" clip-path="url(#z25293c1)" d="M135 362L442 301"/>
<path pathLength="3333" clip-path="url(#z25293c2)" d="M285 78L343 129L328 786L301 867L188 788"/>
<path pathLength="3333" clip-path="url(#z25293c3)" d="M56 651L114 659L415 446"/>
<path pathLength="3333" clip-path="url(#z25293c4)" d="M632 137L687 174L563 402"/>
<path pathLength="3333" clip-path="url(#z25293c5)" d="M473 396L516 459L534 800"/>
<path pathLength="3333" clip-path="url(#z25293c6)" d="M530 412L567 422L791 373L838 402L817 704L780 784L785 838"/>
<path pathLength="3333" clip-path="url(#z25293c7)" d="M555 595L742 566"/>
<path pathLength="3333" clip-path="url(#z25293c8)" d="M561 763L769 730"/>
</svg>