<!--
AnimCJK 2016-2017 Copyright Francois Mizessyn, http://gooo.free.fr/animCJK/
Derived from:
    MakeMeAHanzi project - https://github.com/skishore/makemeahanzi
    Arphic PL KaitiM GB - https://apps.ubuntu.com/cat/applications/precise/fonts-arphic-gkai00mp/
    Arphic PL UKai - https://apps.ubuntu.com/cat/applications/fonts-arphic-ukai/
You can redistribute and/or modify this file under the terms of the Arphic Public License
as published by Arphic Technology Co., Ltd.
You should have received a copy of this license (the directory "APL") along with this file;
if not, see http://ftp.gnu.org/non-gnu/chinese-fonts-truetype/LICENSE.
-->
<svg id="z25296" class="acjk" version="1.1" viewBox="0 0 1024 1024" xmlns="http://www.w3.org/2000/svg" xmlns:xlink="http://www.w3.org/1999/xlink">
<style>
<![CDATA[
	@keyframes z25296k {
		from {
			stroke:#c00;
			stroke-dashoffset:3000;
		}
		75% {
			stroke:#c00;
			stroke-dashoffset:0;
		}
		to {
			stroke:#000;
		}
	}
	#z25296 path[clip-path] {
		animation:z25296k 1s linear both;
		stroke-dasharray:3000;
		stroke-width:128;
		stroke-linecap:round;
		fill:none;
	}
	#z25296 path[clip-path="url(#z25296c1)"] {animation-delay:1s;}
	#z25296 path[clip-path="url(#z25296c2)"] {animation-delay:2s;}
	#z25296 path[clip-path="url(#z25296c3)"] {animation-delay:3s;}
	#z25296 path[clip-path="url(#z25296c4)"] {animation-delay:4s;}
	#z25296 path[clip-path="url(#z25296c5)"] {animation-delay:5s;}
	#z25296 path[clip-path="url(#z25296c6)"] {animation-delay:6s;}
	#z25296 path[clip-path="url(#z25296c7)"] {animation-delay:7s;}
	#z25296 path[clip-path="url(#z25296c8)"] {animation-delay:8s;}
	#z25296 path {fill:#ccc;}
]]>
</style>
<g transform="scale(1,-1) translate(0,-900)">
	<path id="z25296d1" d="M331 555Q422 582 424 583Q433 592 428 600Q421 612 390 618Q359 622 332 609L284 592Q181 568 152 562Q115 555 142 539Q187 515 246 534Q262 540 284 543L331 555Z"/>
	<path id="z25296d2" d="M282 346Q282 249 282 124Q281 100 269 92Q260 85 239 92Q215 98 192 103Q161 115 163 105Q164 98 183 84Q247 35 263 6Q282 -27 297 -28Q310 -29 325 5Q341 48 340 119Q330 252 329 384L329 420Q328 487 331 555L332 609Q332 613 333 615Q337 699 349 743Q365 771 312 793Q279 811 261 804Q245 798 260 776Q281 751 282 717Q283 702 284 592L284 543Q283 480 283 393L282 346Z"/>
	<path id="z25296d3" d="M283 393Q192 342 112 292Q76 271 52 264Q39 257 36 249Q35 239 50 224Q71 208 95 200Q111 196 123 208Q214 301 282 346L329 384Q401 439 408 447Q415 460 404 461Q397 461 329 420L283 393Z"/>
	<path id="z25296d4" d="M578 483Q581 493 581 503L577 537Q573 546 552 659L542 693Q532 699 497 704Q485 705 483 701Q477 695 486 680Q514 625 535 532Q539 504 556 486Q563 477 568 475L578 483Z"/>
	<path id="z25296d5" d="M783 562Q816 646 849 667Q868 686 852 705Q836 720 781 747Q760 756 685 726Q586 702 542 693L552 659Q559 662 570 665Q649 680 724 696Q743 700 752 693Q761 683 757 665Q745 614 730 572L783 562Z"/>
	<path id="z25296d6" d="M581 503Q587 503 595 505Q656 520 788 533Q798 534 800 544Q800 550 783 562L730 572Q726 573 723 571Q641 549 577 537L581 503Z"/>
	<path id="z25296d7" d="M618 355Q691 374 754 382Q779 385 785 377Q797 356 786 306Q761 165 723 106Q704 73 675 79Q650 86 628 96Q603 106 620 80Q662 34 681 -2Q703 -27 726 -7Q763 18 790 64Q821 118 845 286Q854 346 875 374Q888 387 882 400Q872 413 816 438Q794 448 772 434Q744 418 632 393Q629 393 629 392L568 378Q492 365 426 361Q407 360 403 350Q402 341 428 328Q456 310 478 318Q518 330 559 340L618 355Z"/>
	<path id="z25296d8" d="M559 340Q520 211 366 57Q359 50 366 47Q373 46 384 51Q444 82 492 132Q573 205 618 355L629 392Q636 414 647 433Q654 443 647 452Q640 462 608 476Q586 486 578 483L568 475Q565 471 567 463Q574 423 568 378L559 340Z"/>
	<defs>
		<clipPath id="z25296c1"><use xlink:href="#z25296d1"/></clipPath>
		<clipPath id="z25296c2"><use xlink:href="#z25296d2"/></clipPath>
		<clipPath id="z25296c3"><use xlink:href="#z25296d3"/></clipPath>
		<clipPath id="z25296c4"><use xlink:href="#z25296d4"/></clipPath>
		<clipPath id="z25296c5"><use xlink:href="#z25296d5"/></clipPath>
		<clipPath id="z25296c6"><use xlink:href="#z25296d6"/></clipPath>
		<clipPath id="z25296c7"><use xlink:href="#z25296d7"/></clipPath>
		<clipPath id="z25296c8"><use xlink:href="#z25296d8"/></clipPath>
	</defs>
	<path pathLength="2999" clip-path="url(#z25296c1)" d="M137 552L425 594"/>
	<path pathLength="2999" clip-path="url(#z25296c2)" d="M259 795L316 741L310 102L281 24L171 102"/>
	<path pathLength="2999" clip-path="url(#z25296c3)" d="M42 249L102 241L405 452"/>
	<path pathLength="2999" clip-path="url(#z25296c4)" d="M491 695L520 670L570 483"/>
	<path pathLength="2999" clip-path="url(#z25296c5)" d="M550 687L738 721L786 709L807 671L740 571"/>
	<path pathLength="2999" clip-path="url(#z25296c6)" d="M588 512L793 548"/>
	<path pathLength="2999" clip-path="url(#z25296c7)" d="M408 351L486 343L774 409L827 393L796 196L746 69L691 32L622 92"/>
	<path pathLength="2999" clip-path="url(#z25296c8)" d="M580 480L610 441L551 254L479 150L372 55"/>
</g>
</svg>