<!--
AnimCJK 2016-2019 Copyright Francois Mizessyn - https://github.com/parsimonhi/animCJK
Derived from:
    MakeMeAHanzi project - https://github.com/skishore/makemeahanzi
    Arphic PL KaitiM GB font
    Arphic PL UKai font
You can redistribute and/or modify this file under the terms of the Arphic Public License
as published by Arphic Technology Co., Ltd.
You should have received a copy of this license along with this file.
If not, see http://ftp.gnu.org/non-gnu/chinese-fonts-truetype/LICENSE.
-->
<svg id="z25391" class="acjk" version="1.1" viewBox="0 0 1024 1024" xmlns="http://www.w3.org/2000/svg" xmlns:xlink="http://www.w3.org/1999/xlink">
<style>
<![CDATA[
@keyframes zk {
	to {
		stroke-dashoffset:0;
	}
}
svg.acjk path[clip-path] {
	--t:0.8s;
	animation:zk var(--t) linear forwards var(--d);
	stroke-dasharray:3337;
	stroke-dashoffset:3339;
	stroke-width:128;
	stroke-linecap:round;
	fill:none;
	stroke:#000;
}
svg.acjk path[id] {fill:#ccc;}
]]>
</style>
<path id="z25391d1" d="M313 361C329 356 345 351 362 346C385 339 398 332 402 329C407 323 407 317 404 312C399 304 385 298 366 296C348 293 332 295 315 303C282 318 282 318 265 325C214 347 165 355 122 365C97 370 93 380 114 389C158 407 189 396 264 375C297 366 297 366 313 361Z"/>
<path id="z25391d2" d="M258 574C256 630 254 693 253 763C252 779 248 790 239 796C237 797 216 797 184 788C160 781 153 775 154 783C154 787 161 794 174 807C208 840 228 867 236 887C244 908 253 921 262 922C272 923 282 912 293 890C307 860 316 820 315 771C313 692 306 615 309 537C310 514 310 514 310 502C311 455 311 408 313 361C314 322 314 322 315 303C317 218 326 161 338 132C346 111 334 96 300 79C276 67 260 61 247 66C236 69 234 80 245 96C258 114 266 134 267 157C267 169 267 225 265 325C264 341 265 323 264 375C263 419 260 471 259 530C258 559 258 559 258 574Z"/>
<path id="z25391d3" d="M259 530C210 556 171 578 119 605C96 616 77 623 63 628C53 630 48 636 48 641C46 646 50 655 60 664C71 674 85 682 100 688C105 690 122 683 145 664C190 625 228 595 258 574C292 549 292 549 309 537C325 524 343 512 362 501C374 493 385 485 392 476C397 467 395 463 389 464C382 464 356 476 310 502C276 521 276 521 259 530Z"/>
<path id="z25391d4" d="M535 220C567 222 601 220 636 211C742 181 797 163 801 159C805 154 807 147 804 143C799 135 786 131 767 128C750 125 710 142 642 164C577 184 541 191 528 192C519 194 525 220 535 220Z"/>
<path id="z25391d5" d="M506 457C515 418 523 335 528 256C528 245 531 228 535 220C539 211 536 198 528 192C518 183 504 175 488 169C474 162 465 160 458 165C449 169 447 175 453 185C462 198 471 227 471 270C470 395 459 472 434 554C413 622 379 689 338 758C335 762 332 766 331 771C329 777 333 780 339 779C361 774 396 731 442 648C464 607 482 556 500 482C504 465 504 465 506 457Z"/>
<path id="z25391d6" d="M557 329C533 333 531 342 550 351C574 363 605 362 639 352C675 340 713 329 752 318C768 313 778 309 781 306C785 300 786 293 784 290C779 282 766 278 749 276C729 273 712 278 695 287C676 296 642 312 557 329Z"/>
<path id="z25391d7" d="M564 486C643 465 729 439 826 423C832 421 840 420 843 412C845 405 835 398 822 393C799 382 764 388 714 406C677 418 608 435 506 457C498 458 497 474 500 482C503 492 513 499 522 497C550 490 550 490 564 486Z"/>
<path id="z25391d8" d="M592 513C586 504 576 495 564 486C553 477 517 484 522 497C534 521 539 545 539 568C538 668 534 734 527 768C522 788 516 803 508 816C498 829 497 845 503 862C510 883 520 899 533 908C539 913 547 910 557 897C579 866 629 814 707 742C719 730 726 723 727 718C727 709 720 709 707 717C676 735 643 753 610 773C597 780 587 783 583 781C577 778 575 770 576 758C579 642 586 568 594 536C596 528 597 519 592 513Z"/>
<path id="z25391d9" d="M711 594C765 563 804 541 832 532C842 528 846 524 845 519C842 508 835 497 826 486C814 473 802 466 791 465C781 463 777 469 777 481C777 495 751 528 698 582C694 586 706 597 711 594Z"/>
<path id="z25391d10" d="M698 582C676 562 652 544 631 523C623 514 616 510 606 510C599 510 594 511 592 513C585 515 587 532 594 536C610 544 622 555 636 570C754 703 825 771 848 773C876 774 916 765 968 749C976 746 983 743 986 739C988 734 984 731 980 730C888 706 811 669 747 622C734 613 721 604 711 594C702 586 702 586 698 582Z"/>
<defs>
	<clipPath id="z25391c1"><use xlink:href="#z25391d1"/></clipPath>
	<clipPath id="z25391c2"><use xlink:href="#z25391d2"/></clipPath>
	<clipPath id="z25391c3"><use xlink:href="#z25391d3"/></clipPath>
	<clipPath id="z25391c4"><use xlink:href="#z25391d4"/></clipPath>
	<clipPath id="z25391c5"><use xlink:href="#z25391d5"/></clipPath>
	<clipPath id="z25391c6"><use xlink:href="#z25391d6"/></clipPath>
	<clipPath id="z25391c7"><use xlink:href="#z25391d7"/></clipPath>
	<clipPath id="z25391c8"><use xlink:href="#z25391d8"/></clipPath>
	<clipPath id="z25391c9"><use xlink:href="#z25391d9"/></clipPath>
	<clipPath id="z25391c10"><use xlink:href="#z25391d10"/></clipPath>
</defs>
<path style="--d:1s;" pathLength="3333" clip-path="url(#z25391c1)" d="M110 378L400 315"/>
<path style="--d:2s;" pathLength="3333" clip-path="url(#z25391c2)" d="M245 73L303 131L283 780L248 869L159 786"/>
<path style="--d:3s;" pathLength="3333" clip-path="url(#z25391c3)" d="M52 642L108 648L388 471"/>
<path style="--d:4s;" pathLength="3333" clip-path="url(#z25391c4)" d="M536 197L801 147"/>
<path style="--d:5s;" pathLength="3333" clip-path="url(#z25391c5)" d="M457 172L501 224L480 462L427 632L338 773"/>
<path style="--d:6s;" pathLength="3333" clip-path="url(#z25391c6)" d="M546 338L780 296"/>
<path style="--d:7s;" pathLength="3333" clip-path="url(#z25391c7)" d="M507 479L836 411"/>
<path style="--d:8s;" pathLength="3333" clip-path="url(#z25391c8)" d="M530 503L565 530L543 814L554 858L719 719"/>
<path style="--d:9s;" pathLength="3333" clip-path="url(#z25391c9)" d="M 789,474 806,512 708,585"/>
<path style="--d:10s;" pathLength="3333" clip-path="url(#z25391c10)" d="M599 516L844 725L977 736"/>
</svg>