<!--
AnimCJK 2016-2026 Copyright FM-SH, https://github.com/parsimonhi/animCJK
Derived from:
    MakeMeAHanzi project - https://github.com/skishore/makemeahanzi
    Arphic PL KaitiM GB font
    Arphic PL KaitiM Big5 font
You can redistribute and/or modify this file under the terms of the Arphic Public License
as published by Arphic Technology Co., Ltd.
You should have received a copy of this license along with this file.
If not, see https://ftp.gnu.org/non-gnu/chinese-fonts-truetype/LICENSE.
-->
<svg id="z25449" class="acjk" viewBox="0 0 1024 1024" xmlns="http://www.w3.org/2000/svg">
<style>
<![CDATA[
@keyframes zk {
	to {
		stroke-dashoffset:0;
	}
}
svg.acjk path[clip-path] {
	--t:0.8s;
	animation:zk var(--t) linear forwards var(--d);
	stroke-dasharray:3337;
	stroke-dashoffset:3339;
	stroke-width:128;
	stroke-linecap:round;
	fill:none;
	stroke:#000;
}
svg.acjk path[id] {fill:#ccc;}
]]>
</style>
<path id="z25449d1" d="M316 396C340 389 386 378 397 369C408 358 403 341 362 335C347 332 332 334 318 340C284 352 284 352 267 358C204 380 158 388 135 393C110 398 106 407 126 417C178 442 217 423 266 410C299 401 299 401 316 396Z"/>
<path id="z25449d2" d="M263 573C263 631 261 697 259 770C258 794 250 804 228 797C217 794 200 790 180 781C141 763 141 772 168 800C205 840 228 870 237 891C246 915 256 928 267 930C276 931 288 920 299 898C313 868 324 828 323 778C321 695 314 613 314 531C314 509 314 509 314 498C314 463 314 429 316 396C317 359 317 359 318 340C320 268 320 207 338 163C346 141 336 127 300 111C276 100 259 94 247 99C235 103 233 113 245 128C259 147 267 167 268 189C268 201 268 256 267 358C266 393 266 393 266 410C265 444 263 484 263 529C263 558 263 558 263 573Z"/>
<path id="z25449d3" d="M263 529C134 607 67 643 67 644C42 654 47 667 64 681C75 690 90 697 105 702C114 705 123 701 130 694C166 653 212 614 263 573C297 545 297 545 314 531C341 508 357 497 369 487C404 458 384 452 358 470C348 478 332 486 314 498C280 519 280 519 263 529Z"/>
<path id="z25449d4" d="M493 154C471 157 467 168 486 181C507 195 542 198 584 188C622 178 663 167 705 155C718 151 752 142 742 121C736 111 725 105 707 101C689 97 653 109 597 131C566 143 531 147 493 154Z"/>
<path id="z25449d5" d="M774 356C792 321 809 301 823 291C835 280 836 265 826 255C816 244 793 232 759 217C747 211 719 220 674 236C629 250 578 261 521 273C509 275 528 307 540 305C594 291 650 280 706 269C739 262 738 283 737 290C732 314 727 336 722 356C719 373 766 372 774 356Z"/>
<path id="z25449d6" d="M521 432C533 432 565 416 789 389C797 387 815 382 774 356C759 347 739 353 722 356C649 374 583 389 524 400C513 402 510 434 521 432Z"/>
<path id="z25449d7" d="M521 273C454 230 450 259 457 272C472 302 471 337 471 371C467 584 401 705 338 807C324 829 336 833 352 820C403 780 501 637 521 432C523 411 523 411 524 400C526 368 527 334 540 305C545 293 531 280 521 273Z"/>
<path id="z25449d8" d="M671 596C703 589 752 578 819 572C825 571 857 558 816 540C766 517 757 534 678 552C641 560 641 560 623 564C595 570 537 574 524 577C505 579 502 586 518 597C552 620 581 612 618 606C653 599 653 599 671 596Z"/>
<path id="z25449d9" d="M678 552C681 534 685 518 689 503C693 485 681 480 659 471C624 456 607 457 615 482C626 519 623 548 623 564C620 592 620 592 618 606C597 718 542 784 447 840C411 861 418 866 456 860C565 842 625 754 657 655C662 632 662 632 665 620C669 604 669 604 671 596C676 567 676 567 678 552Z"/>
<path id="z25449d10" d="M657 655C695 721 739 791 790 861C799 874 815 879 835 880C901 880 944 879 965 877C983 874 976 864 965 858C875 810 809 768 768 728C735 695 701 659 665 620C657 612 650 645 657 655Z"/>
<defs>
	<clipPath id="z25449c1"><use href="#z25449d1"/></clipPath>
	<clipPath id="z25449c2"><use href="#z25449d2"/></clipPath>
	<clipPath id="z25449c3"><use href="#z25449d3"/></clipPath>
	<clipPath id="z25449c4"><use href="#z25449d4"/></clipPath>
	<clipPath id="z25449c5"><use href="#z25449d5"/></clipPath>
	<clipPath id="z25449c6"><use href="#z25449d6"/></clipPath>
	<clipPath id="z25449c7"><use href="#z25449d7"/></clipPath>
	<clipPath id="z25449c8"><use href="#z25449d8"/></clipPath>
	<clipPath id="z25449c9"><use href="#z25449d9"/></clipPath>
	<clipPath id="z25449c10"><use href="#z25449d10"/></clipPath>
</defs>
<path style="--d:1s;" pathLength="3333" clip-path="url(#z25449c1)" d="M119 404L397 358"/>
<path style="--d:2s;" pathLength="3333" clip-path="url(#z25449c2)" d="M243 111L302 155L290 793L255 877L156 778"/>
<path style="--d:3s;" pathLength="3333" clip-path="url(#z25449c3)" d="M52 658L109 663L379 467"/>
<path style="--d:4s;" pathLength="3333" clip-path="url(#z25449c4)" d="M481 163L540 170L739 124"/>
<path style="--d:5s;" pathLength="3333" clip-path="url(#z25449c5)" d="M523 278L752 247L784 283L739 366"/>
<path style="--d:6s;" pathLength="3333" clip-path="url(#z25449c6)" d="M519 422L792 375"/>
<path style="--d:7s;" pathLength="3333" clip-path="url(#z25449c7)" d="M464 260L505 304L480 529L412 715L338 820"/>
<path style="--d:8s;" pathLength="3333" clip-path="url(#z25449c8)" d="M516 586L829 557"/>
<path style="--d:9s;" pathLength="3333" clip-path="url(#z25449c9)" d="M621 469L655 505L614 700L529 809L431 857"/>
<path style="--d:10s;" pathLength="3333" clip-path="url(#z25449c10)" d="M664 628L826 831L967 871"/>
</svg>