<!--
AnimCJK 2016-2018 Copyright Francois Mizessyn, https://github.com/parsimonhi/animCJK
Derived from:
    MakeMeAHanzi project - https://github.com/skishore/makemeahanzi
    Arphic PL KaitiM GB - https://apps.ubuntu.com/cat/applications/precise/fonts-arphic-gkai00mp/
    Arphic PL UKai - https://apps.ubuntu.com/cat/applications/fonts-arphic-ukai/
You can redistribute and/or modify this file under the terms of the Arphic Public License
as published by Arphic Technology Co., Ltd.
You should have received a copy of this license (the directory "APL") along with this file;
if not, see http://ftp.gnu.org/non-gnu/chinese-fonts-truetype/LICENSE.
-->
<svg id="z25496" class="acjk" version="1.1" viewBox="0 0 1024 1024" xmlns="http://www.w3.org/2000/svg" xmlns:xlink="http://www.w3.org/1999/xlink">
<style>
<![CDATA[
@keyframes z25496k {
	from {
		stroke:#c00;
		stroke-dashoffset:3334;
	}
	75% {
		stroke:#c00;
		stroke-dashoffset:0;
	}
	to {
		stroke:#000;
	}
}
#z25496 path[clip-path] {
	animation:z25496k 1s linear both;
	stroke-dasharray:3334;
	stroke-width:128;
	stroke-linecap:round;
	fill:none;
}
#z25496 path[clip-path="url(#z25496c1)"] {animation-delay:1s;}
#z25496 path[clip-path="url(#z25496c2)"] {animation-delay:2s;}
#z25496 path[clip-path="url(#z25496c3)"] {animation-delay:3s;}
#z25496 path[clip-path="url(#z25496c4)"] {animation-delay:4s;}
#z25496 path[clip-path="url(#z25496c5)"] {animation-delay:5s;}
#z25496 path[clip-path="url(#z25496c6)"] {animation-delay:6s;}
#z25496 path[clip-path="url(#z25496c7)"] {animation-delay:7s;}
#z25496 path[clip-path="url(#z25496c8)"] {animation-delay:8s;}
#z25496 path[clip-path="url(#z25496c9)"] {animation-delay:9s;}
#z25496 path[clip-path="url(#z25496c10)"] {animation-delay:10s;}
#z25496 path[clip-path="url(#z25496c11)"] {animation-delay:11s;}
#z25496 path {fill:#ccc;}
]]>
</style>
<path id="z25496d1" d="M325 347Q410 319 413 317Q422 308 416 300Q409 288 378 283Q353 279 328 289L279 310Q171 340 143 345Q106 355 134 369Q176 387 253 366Q263 363 278 360L325 347 Z"/>
<path id="z25496d2" d="M325 788Q326 769 326 746Q320 631 321 516L321 483Q321 414 325 347L328 289Q328 214 348 150Q364 122 312 99Q281 80 262 87Q244 93 259 115Q280 140 280 174Q281 189 279 310L278 360Q277 424 273 514L272 557Q271 639 268 742Q267 764 255 773Q249 777 176 764Q145 754 147 763Q148 770 168 784Q232 832 248 859Q267 890 283 892Q296 893 310 860Q319 838 323 807L325 788 Z"/>
<path id="z25496d3" d="M321 516Q339 500 357 487Q376 474 385 460Q391 447 380 448Q368 451 321 483L273 514Q84 631 74 636Q59 643 58 651Q57 660 72 673Q91 686 113 694Q129 697 138 685Q193 625 272 557L321 516 Z"/>
<path id="z25496d4" d="M788 283Q815 223 845 201Q861 183 848 166Q776 108 723 134Q648 161 535 180L556 209Q568 208 583 204Q658 189 728 175Q747 171 754 178Q761 185 759 200Q749 246 735 282L788 283 Z"/>
<path id="z25496d5" d="M534 354Q546 360 563 356Q639 337 804 319Q814 318 816 309Q816 300 788 283L735 282Q626 310 537 325L534 354 Z"/>
<path id="z25496d6" d="M535 180Q493 153 478 159Q466 166 473 179Q488 204 488 276Q487 283 487 293Q478 452 438 572Q402 669 326 787Q325 787 325 788L323 807Q360 782 378 759Q502 624 534 354L537 325Q537 321 538 319Q547 232 556 209L535 180 Z"/>
<path id="z25496d7" d="M708 772Q712 675 717 584L718 552Q721 483 737 414Q740 404 721 390Q687 372 665 369Q649 366 642 374Q635 381 643 395Q665 429 667 452Q670 504 671 562L672 596Q672 681 669 779L708 772 Z"/>
<path id="z25496d8" d="M717 584Q726 580 739 578Q788 566 811 567L811 537Q762 543 718 552L671 562Q629 569 595 582Q580 585 585 568Q597 505 591 492Q579 477 560 465Q551 461 543 461Q534 464 539 480Q552 516 545 549Q539 582 525 595Q509 608 515 621Q525 634 538 643Q548 649 557 643Q579 619 672 596L717 584 Z"/>
<path id="z25496d9" d="M811 567Q814 589 821 604Q828 619 840 609Q861 590 870 513Q882 480 889 472Q896 459 888 447Q872 432 843 414Q833 407 821 412Q814 415 816 427Q822 433 828 479Q825 512 811 537L811 567 Z"/>
<path id="z25496d10" d="M846 753Q773 759 708 772L669 779Q615 786 568 801Q553 802 558 785Q576 722 568 707Q555 689 535 675Q525 668 516 669Q506 672 511 690Q523 729 513 764Q506 798 490 812Q472 827 478 840Q488 855 502 866Q515 873 524 867Q557 834 744 799Q826 783 844 790L846 753 Z"/>
<path id="z25496d11" d="M844 790Q838 802 844 820Q853 845 864 860Q874 872 882 861Q900 837 891 766Q894 703 899 690Q903 677 893 667Q874 657 845 645Q833 641 824 647Q818 651 822 662Q834 674 846 744Q846 747 846 753L844 790 Z"/>
<defs>
	<clipPath id="z25496c1"><use xlink:href="#z25496d1"/></clipPath>
	<clipPath id="z25496c2"><use xlink:href="#z25496d2"/></clipPath>
	<clipPath id="z25496c3"><use xlink:href="#z25496d3"/></clipPath>
	<clipPath id="z25496c4"><use xlink:href="#z25496d4"/></clipPath>
	<clipPath id="z25496c5"><use xlink:href="#z25496d5"/></clipPath>
	<clipPath id="z25496c6"><use xlink:href="#z25496d6"/></clipPath>
	<clipPath id="z25496c7"><use xlink:href="#z25496d7"/></clipPath>
	<clipPath id="z25496c8"><use xlink:href="#z25496d8"/></clipPath>
	<clipPath id="z25496c9"><use xlink:href="#z25496d9"/></clipPath>
	<clipPath id="z25496c10"><use xlink:href="#z25496d10"/></clipPath>
	<clipPath id="z25496c11"><use xlink:href="#z25496d11"/></clipPath>
</defs>
<path pathLength="3333" clip-path="url(#z25496c1)" d="M131 358L413 300"/>
<path pathLength="3333" clip-path="url(#z25496c2)" d="M260 96L315 145L293 780L265 841L154 764"/>
<path pathLength="3333" clip-path="url(#z25496c3)" d="M63 651L120 653L379 453"/>
<path pathLength="3333" clip-path="url(#z25496c4)" d="M545 183L774 155L806 191L745 278"/>
<path pathLength="3333" clip-path="url(#z25496c5)" d="M541 348L738 304L810 308"/>
<path pathLength="3333" clip-path="url(#z25496c6)" d="M481 164L520 219L487 484L429 649L329 799"/>
<path pathLength="3333" clip-path="url(#z25496c7)" d="M647 380L700 423L678 774"/>
<path pathLength="3333" clip-path="url(#z25496c8)" d="M545 465L570 516L549 597L572 614L809 554"/>
<path pathLength="3333" clip-path="url(#z25496c9)" d="M825 415L859 461L834 608"/>
<path pathLength="3333" clip-path="url(#z25496c10)" d="M517 678L543 720L524 817L542 835L845 768"/>
<path pathLength="3333" clip-path="url(#z25496c11)" d="M829 654L868 690L871 861"/>
</svg>