<!--
AnimCJK 2016-2019 Copyright Francois Mizessyn - https://github.com/parsimonhi/animCJK
Derived from:
    MakeMeAHanzi project - https://github.com/skishore/makemeahanzi
    Arphic PL KaitiM GB font
    Arphic PL UKai font
You can redistribute and/or modify this file under the terms of the Arphic Public License
as published by Arphic Technology Co., Ltd.
You should have received a copy of this license along with this file.
If not, see http://ftp.gnu.org/non-gnu/chinese-fonts-truetype/LICENSE.
-->
<svg id="z25505" class="acjk" version="1.1" viewBox="0 0 1024 1024" xmlns="http://www.w3.org/2000/svg" xmlns:xlink="http://www.w3.org/1999/xlink">
<style>
<![CDATA[
@keyframes zk {
	to {
		stroke-dashoffset:0;
	}
}
svg.acjk path[clip-path] {
	--t:0.8s;
	animation:zk var(--t) linear forwards var(--d);
	stroke-dasharray:3337;
	stroke-dashoffset:3339;
	stroke-width:128;
	stroke-linecap:round;
	fill:none;
	stroke:#000;
}
svg.acjk path[id] {fill:#ccc;}
]]>
</style>
<path id="z25505d1" d="M312 346C319 344 326 341 336 339C356 333 369 328 373 325C378 319 378 313 376 308C371 299 358 293 338 291C330 289 322 289 315 291C282 300 282 300 266 305C206 321 154 335 108 345C83 349 80 359 98 369C126 385 154 386 199 374C214 369 251 361 265 358C296 350 296 350 312 346Z"/>
<path id="z25505d2" d="M260 525C258 589 256 663 255 747C254 763 249 774 241 780C239 781 220 784 188 778C166 773 157 768 159 775C159 779 167 786 179 797C212 826 232 851 240 868C249 887 257 899 267 900C275 901 286 890 296 868C308 839 315 801 314 754C310 663 305 573 308 483C309 460 309 460 309 449C310 414 310 380 312 346C314 309 314 309 315 291C318 229 318 174 336 130C343 109 333 96 300 79C278 68 262 62 249 67C238 70 236 81 247 95C260 112 267 131 268 154C268 164 267 215 266 305C265 340 265 340 265 358C264 394 262 435 261 481C260 510 260 510 260 525Z"/>
<path id="z25505d3" d="M261 481C125 571 57 615 56 616C46 617 38 621 37 632C36 637 41 645 51 653C63 662 77 669 93 673C103 675 111 671 118 664C161 611 211 567 260 525C292 497 292 497 308 483C335 459 366 435 373 424C377 415 375 411 368 412C364 412 344 425 309 449C277 470 277 470 261 481Z"/>
<path id="z25505d4" d="M615 109C588 133 533 163 453 208C446 211 448 219 454 220C484 221 540 207 619 171C642 160 673 145 718 138C728 136 735 134 738 129C740 122 739 113 730 107C691 78 658 66 636 70C630 70 628 77 628 84C627 93 623 101 615 109Z"/>
<path id="z25505d5" d="M441 335C450 346 459 360 470 375C476 383 484 388 494 389C500 389 505 386 509 379C513 371 513 358 511 340C509 331 503 321 488 313C452 293 430 286 424 289C420 290 419 295 419 303C419 309 427 319 441 335Z"/>
<path id="z25505d6" d="M552 263C574 304 593 328 609 332C617 334 626 330 631 319C634 310 633 298 628 286C619 265 595 250 560 238C555 236 551 238 549 246C547 250 548 256 552 263Z"/>
<path id="z25505d7" d="M754 232C734 261 702 297 663 342C658 346 657 353 663 357C666 359 673 357 679 354C746 306 794 269 829 254C840 248 846 246 843 238C838 227 830 215 818 202C805 189 791 181 775 181C765 180 760 187 761 201C761 211 760 222 754 232Z"/>
<path id="z25505d8" d="M625 503C637 500 721 492 874 480C886 479 894 476 897 470C900 462 895 453 885 446C849 421 811 417 770 429C731 439 684 452 628 463C593 470 593 470 576 473C513 485 447 496 379 510C365 512 363 518 375 529C383 537 394 542 407 545C419 547 431 547 442 544C476 532 513 521 554 515C601 507 601 507 625 503Z"/>
<path id="z25505d9" d="M625 515C625 510 624 506 625 503C627 476 627 476 628 463C629 439 629 425 627 422C618 408 597 397 584 392C575 388 568 391 562 396C558 399 559 403 564 410C571 420 575 441 576 473C577 542 577 542 577 577C578 687 571 770 560 827C551 865 564 902 600 939C600 939 601 941 604 942C611 943 617 938 621 930C629 909 629 888 629 867C625 775 625 671 625 557C625 529 625 529 625 515Z"/>
<path id="z25505d10" d="M554 515C521 595 449 680 342 774C334 780 334 785 340 787C346 788 351 788 359 785C426 757 494 697 561 601C567 591 572 583 577 577C614 531 576 460 554 515Z"/>
<path id="z25505d11" d="M625 557C675 627 731 699 795 774C806 787 823 792 844 792C912 789 958 785 981 782C987 780 991 779 992 775C992 772 989 767 979 763C876 721 804 683 763 647C719 608 673 565 625 515C615 505 617 546 625 557Z"/>
<defs>
	<clipPath id="z25505c1"><use xlink:href="#z25505d1"/></clipPath>
	<clipPath id="z25505c2"><use xlink:href="#z25505d2"/></clipPath>
	<clipPath id="z25505c3"><use xlink:href="#z25505d3"/></clipPath>
	<clipPath id="z25505c4"><use xlink:href="#z25505d4"/></clipPath>
	<clipPath id="z25505c5"><use xlink:href="#z25505d5"/></clipPath>
	<clipPath id="z25505c6"><use xlink:href="#z25505d6"/></clipPath>
	<clipPath id="z25505c7"><use xlink:href="#z25505d7"/></clipPath>
	<clipPath id="z25505c8"><use xlink:href="#z25505d8"/></clipPath>
	<clipPath id="z25505c9"><use xlink:href="#z25505d9"/></clipPath>
	<clipPath id="z25505c10"><use xlink:href="#z25505d10"/></clipPath>
	<clipPath id="z25505c11"><use xlink:href="#z25505d11"/></clipPath>
</defs>
<path style="--d:1s;" pathLength="3333" clip-path="url(#z25505c1)" d="M96 358L373 310"/>
<path style="--d:2s;" pathLength="3333" clip-path="url(#z25505c2)" d="M248 79L303 124L283 771L253 847L167 776"/>
<path style="--d:3s;" pathLength="3333" clip-path="url(#z25505c3)" d="M44 631L96 635L368 420"/>
<path style="--d:4s;" pathLength="3333" clip-path="url(#z25505c4)" d="M 639,78 670,118 458,213"/>
<path style="--d:5s;" pathLength="3333" clip-path="url(#z25505c5)" d="M427 296L500 384"/>
<path style="--d:6s;" pathLength="3333" clip-path="url(#z25505c6)" d="M555 245L624 323"/>
<path style="--d:7s;" pathLength="3333" clip-path="url(#z25505c7)" d="M770 187L799 236L668 350"/>
<path style="--d:8s;" pathLength="3333" clip-path="url(#z25505c8)" d="M376 518L797 454L892 467"/>
<path style="--d:9s;" pathLength="3333" clip-path="url(#z25505c9)" d="M568 400L602 449L604 938"/>
<path style="--d:10s;" pathLength="3333" clip-path="url(#z25505c10)" d="M566 519L519 622L346 783"/>
<path style="--d:11s;" pathLength="3333" clip-path="url(#z25505c11)" d="M627 523L824 742L984 773"/>
</svg>