<!--
AnimCJK 2016-2017 Copyright Francois Mizessyn, http://gooo.free.fr/animCJK/
Derived from:
    MakeMeAHanzi project - https://github.com/skishore/makemeahanzi
    Arphic PL KaitiM GB - https://apps.ubuntu.com/cat/applications/precise/fonts-arphic-gkai00mp/
    Arphic PL UKai - https://apps.ubuntu.com/cat/applications/fonts-arphic-ukai/
You can redistribute and/or modify this file under the terms of the Arphic Public License
as published by Arphic Technology Co., Ltd.
You should have received a copy of this license (the directory "APL") along with this file;
if not, see http://ftp.gnu.org/non-gnu/chinese-fonts-truetype/LICENSE.
-->
<svg id="z25563" class="acjk" version="1.1" viewBox="0 0 1024 1024" xmlns="http://www.w3.org/2000/svg" xmlns:xlink="http://www.w3.org/1999/xlink">
<style>
<![CDATA[
	@keyframes z25563k {
		from {
			stroke:#c00;
			stroke-dashoffset:3000;
		}
		75% {
			stroke:#c00;
			stroke-dashoffset:0;
		}
		to {
			stroke:#000;
		}
	}
	#z25563 path[clip-path] {
		animation:z25563k 1s linear both;
		stroke-dasharray:3000;
		stroke-width:128;
		stroke-linecap:round;
		fill:none;
	}
	#z25563 path[clip-path="url(#z25563c1)"] {animation-delay:1s;}
	#z25563 path[clip-path="url(#z25563c2)"] {animation-delay:2s;}
	#z25563 path[clip-path="url(#z25563c3)"] {animation-delay:3s;}
	#z25563 path[clip-path="url(#z25563c4)"] {animation-delay:4s;}
	#z25563 path[clip-path="url(#z25563c5)"] {animation-delay:5s;}
	#z25563 path[clip-path="url(#z25563c6)"] {animation-delay:6s;}
	#z25563 path[clip-path="url(#z25563c7)"] {animation-delay:7s;}
	#z25563 path[clip-path="url(#z25563c8)"] {animation-delay:8s;}
	#z25563 path[clip-path="url(#z25563c9)"] {animation-delay:9s;}
	#z25563 path[clip-path="url(#z25563c10)"] {animation-delay:10s;}
	#z25563 path[clip-path="url(#z25563c11)"] {animation-delay:11s;}
	#z25563 path[clip-path="url(#z25563c12)"] {animation-delay:12s;}
	#z25563 path {fill:#ccc;}
]]>
</style>
<g transform="scale(1,-1) translate(0,-900)">
	<path id="z25563d1" d="M319 514Q338 521 360 525Q396 535 400 541Q409 548 404 557Q397 567 368 573Q343 577 321 568L271 549Q190 524 123 513Q89 504 114 490Q162 469 209 485Q237 494 270 501L319 514Z"/>
	<path id="z25563d2" d="M265 316Q264 234 262 130Q261 108 248 98Q239 94 181 106Q148 119 151 109Q152 102 172 86Q230 35 244 8Q260 -25 275 -27Q290 -28 305 7Q324 52 323 126Q316 243 316 359L316 391Q316 452 319 514L321 568Q321 665 342 736Q358 767 304 789Q270 808 251 801Q233 795 249 772Q271 745 271 711Q272 695 271 549L270 501Q269 440 266 360L265 316Z"/>
	<path id="z25563d3" d="M266 360Q79 245 66 237Q50 237 46 221Q45 212 60 199Q79 186 101 178Q117 175 126 187Q189 256 265 316L316 359Q337 377 359 392Q380 405 389 420Q395 433 384 432Q369 431 316 391L266 360Z"/>
	<path id="z25563d4" d="M599 706Q633 760 647 769Q656 779 652 791Q648 803 623 824Q599 840 582 841Q566 840 572 819Q585 788 528 691Q500 646 462 596Q453 586 451 581Q448 571 461 573Q486 576 584 687L599 706Z"/>
	<path id="z25563d5" d="M643 542Q662 561 703 604Q743 650 782 674Q798 683 789 695Q777 708 744 729Q729 736 715 727Q706 724 635 710Q619 707 599 706L584 687Q602 678 682 685Q691 686 693 684Q697 680 691 670Q651 591 626 554Q619 544 616 536L643 542Z"/>
	<path id="z25563d6" d="M471 507Q455 517 437 521Q424 525 417 519Q410 513 417 500Q436 472 445 442Q452 411 474 284L510 288Q504 325 502 355L501 361Q495 403 494 476L471 507Z"/>
	<path id="z25563d7" d="M821 334Q846 464 875 515Q885 525 880 537Q873 552 814 576Q798 583 785 578Q716 560 643 542L616 536Q546 523 471 507L494 476Q494 477 495 477Q567 498 643 515L674 523Q768 545 785 537Q794 531 793 510Q789 470 780 420L773 377Q769 352 763 324L821 334Z"/>
	<path id="z25563d8" d="M502 355Q535 355 601 436Q602 439 604 439Q608 442 607 449Q604 461 578 473Q565 477 559 475Q553 474 555 466Q561 433 501 361L502 355Z"/>
	<path id="z25563d9" d="M643 515Q652 496 648 439Q644 364 773 377L780 420L779 421Q767 425 755 417Q719 399 691 413Q682 419 681 438Q681 469 693 489Q702 505 674 523L643 515Z"/>
	<path id="z25563d10" d="M646 276Q743 288 952 289Q971 289 975 297Q979 307 965 319Q911 359 857 341Q839 338 821 334L763 324Q714 317 656 308L582 297Q546 294 510 288L474 284Q423 280 371 272Q352 271 366 255Q379 242 395 238Q414 232 428 237Q497 256 575 267L646 276Z"/>
	<path id="z25563d11" d="M638 265Q642 271 646 276L656 308Q655 311 653 312Q619 354 593 352Q580 351 582 336Q588 317 582 297L575 267Q542 120 398 57Q380 50 363 42Q350 36 360 31Q409 21 482 60Q569 105 610 204L628 242L638 265Z"/>
	<path id="z25563d12" d="M628 242Q700 139 794 28Q812 10 841 11Q938 15 970 22Q979 25 980 29Q980 33 967 41Q834 89 755 156Q700 204 638 265L628 242Z"/>
	<defs>
		<clipPath id="z25563c1"><use xlink:href="#z25563d1"/></clipPath>
		<clipPath id="z25563c2"><use xlink:href="#z25563d2"/></clipPath>
		<clipPath id="z25563c3"><use xlink:href="#z25563d3"/></clipPath>
		<clipPath id="z25563c4"><use xlink:href="#z25563d4"/></clipPath>
		<clipPath id="z25563c5"><use xlink:href="#z25563d5"/></clipPath>
		<clipPath id="z25563c6"><use xlink:href="#z25563d6"/></clipPath>
		<clipPath id="z25563c7"><use xlink:href="#z25563d7"/></clipPath>
		<clipPath id="z25563c8"><use xlink:href="#z25563d8"/></clipPath>
		<clipPath id="z25563c9"><use xlink:href="#z25563d9"/></clipPath>
		<clipPath id="z25563c10"><use xlink:href="#z25563d10"/></clipPath>
		<clipPath id="z25563c11"><use xlink:href="#z25563d11"/></clipPath>
		<clipPath id="z25563c12"><use xlink:href="#z25563d12"/></clipPath>
	</defs>
	<path pathLength="2999" clip-path="url(#z25563c1)" d="M113 501L402 552"/>
	<path pathLength="2999" clip-path="url(#z25563c2)" d="M249 793L306 747L291 109L265 26L161 106"/>
	<path pathLength="2999" clip-path="url(#z25563c3)" d="M51 224L107 218L384 426"/>
	<path pathLength="2999" clip-path="url(#z25563c4)" d="M579 834L611 785L460 580"/>
	<path pathLength="2999" clip-path="url(#z25563c5)" d="M594 690L714 708L741 682L625 541"/>
	<path pathLength="2999" clip-path="url(#z25563c6)" d="M419 515L465 470L485 286"/>
	<path pathLength="2999" clip-path="url(#z25563c7)" d="M479 505L779 559L814 549L837 524L795 345L772 329"/>
	<path pathLength="2999" clip-path="url(#z25563c8)" d="M560 470L578 438L507 361"/>
	<path pathLength="2999" clip-path="url(#z25563c9)" d="M649 514L671 489L679 402L738 392L777 410"/>
	<path pathLength="2999" clip-path="url(#z25563c10)" d="M370 264L896 318L971 305"/>
	<path pathLength="2999" clip-path="url(#z25563c11)" d="M591 347L620 306L546 143L451 64L364 37"/>
	<path pathLength="2999" clip-path="url(#z25563c12)" d="M638 256L818 62L972 30"/>
</g>
</svg>