<!--
AnimCJK 2016-2019 Copyright Francois Mizessyn - https://github.com/parsimonhi/animCJK
Derived from:
    MakeMeAHanzi project - https://github.com/skishore/makemeahanzi
    Arphic PL KaitiM GB font
    Arphic PL UKai font
You can redistribute and/or modify this file under the terms of the Arphic Public License
as published by Arphic Technology Co., Ltd.
You should have received a copy of this license along with this file.
If not, see http://ftp.gnu.org/non-gnu/chinese-fonts-truetype/LICENSE.
-->
<svg id="z25681" class="acjk" version="1.1" viewBox="0 0 1024 1024" xmlns="http://www.w3.org/2000/svg" xmlns:xlink="http://www.w3.org/1999/xlink">
<style>
<![CDATA[
@keyframes zk {
	to {
		stroke-dashoffset:0;
	}
}
svg.acjk path[clip-path] {
	--t:0.8s;
	animation:zk var(--t) linear forwards var(--d);
	stroke-dasharray:3337;
	stroke-dashoffset:3339;
	stroke-width:128;
	stroke-linecap:round;
	fill:none;
	stroke:#000;
}
svg.acjk path[id] {fill:#ccc;}
]]>
</style>
<path id="z25681d1" d="M315 349Q327 345 341 342Q369 333 373 329Q382 320 376 312Q369 300 338 295Q326 294 316 295C299 295 283 304 267 310Q197 337 127 349Q90 359 118 373Q160 391 236 370Q249 366 266 363C299 354 299 354 315 349Z"/>
<path id="z25681d2" d="M264 579Q263 664 263 770Q263 795 250 804Q243 807 192 795Q161 782 162 791Q163 798 182 815Q236 867 247 895Q260 928 276 931Q289 932 306 897Q325 852 326 778Q317 654 314 532C314 507 314 507 314 494Q313 421 315 349C316 313 316 313 316 295Q328 151 335 131Q351 100 296 79Q262 60 243 67Q225 74 241 97Q263 124 265 158Q266 174 267 310C266 345 266 345 266 363Q265 433 264 529C264 562 264 562 264 579Z"/>
<path id="z25681d3" d="M264 529Q53 673 51 679Q51 689 66 701Q88 714 111 721Q127 724 137 711Q201 636 264 579C297 548 297 548 314 532Q386 463 389 460Q395 447 384 448Q372 451 314 494C281 517 281 517 264 529Z"/>
<path id="z25681d4" d="M438 252Q429 243 409 236Q399 232 388 235Q381 239 387 252Q390 265 395 277Q423 335 406 639Q400 681 388 732Q376 787 410 831Q420 844 431 831Q435 824 439 816C445 805 445 791 445 779Q448 748 448 700Q452 322 456 297Q457 290 457 284C457 272 448 259 438 252Z"/>
<path id="z25681d5" d="M770 785Q810 831 839 875Q849 894 860 893Q878 892 893 856Q909 814 905 766Q889 606 876 310Q875 277 891 254Q901 241 891 230Q872 209 815 185Q796 175 780 185Q710 215 599 233Q487 251 438 252C426 252 445 286 457 284Q469 284 738 236Q780 229 801 245Q837 275 835 638Q838 735 829 766Q825 785 805 777Q802 776 799 774C790 769 764 777 770 785Z"/>
<path id="z25681d6" d="M664 388Q676 384 690 381Q715 374 720 371Q727 364 723 357Q716 348 693 343Q674 339 659 345C638 352 638 352 627 356Q543 377 510 382Q480 388 502 400Q535 418 584 405Q606 399 632 395C653 390 653 390 664 388Z"/>
<path id="z25681d7" d="M502 470Q495 466 471 461Q462 458 460 462Q456 466 461 477Q461 478 463 481Q478 517 489 571Q490 587 501 600Q513 615 517 604Q520 594 519 578C518 565 518 565 517 559Q508 507 507 490C507 483 508 473 502 470Z"/>
<path id="z25681d8" d="M601 540Q611 500 625 487Q640 469 624 460Q579 435 551 451Q518 464 502 470C496 473 501 493 507 490Q507 489 509 489Q534 482 555 477Q570 473 573 479Q577 482 573 501Q569 519 564 541C562 553 599 552 601 540Z"/>
<path id="z25681d9" d="M519 578Q520 578 523 578Q571 568 607 562Q623 558 617 549Q611 543 601 540C590 535 576 539 564 541Q554 542 544 546Q528 553 517 559C512 562 513 578 519 578Z"/>
<path id="z25681d10" d="M478 652Q471 655 470 661Q470 668 477 673Q493 680 515 688Q521 688 527 682Q539 666 605 617Q614 610 620 602Q627 596 627 590Q552 620 478 652Z"/>
<path id="z25681d11" d="M697 618Q736 693 787 715Q787 714 788 715Q797 716 803 708Q809 702 805 672Q802 644 813 574Q817 555 811 553Q805 552 798 568Q770 634 757 628Q742 619 721 582C708 554 708 554 701 540Q679 483 664 388C661 359 661 359 659 345Q658 332 660 322Q666 304 663 296Q660 290 643 280Q628 270 619 269Q610 269 610 270Q594 274 607 290Q613 296 627 356C630 382 630 382 632 395Q645 503 681 583C692 606 692 606 697 618Z"/>
<path id="z25681d12" d="M681 583Q642 643 595 703Q591 707 598 709Q634 702 697 618C713 594 713 594 721 582Q743 543 775 475Q785 450 786 449Q783 442 773 435Q743 417 723 425Q717 428 720 436Q732 463 701 540C688 569 688 569 681 583Z"/>
<path id="z25681d13" d="M719 310Q773 343 784 341Q791 340 793 328Q794 316 783 295Q771 276 708 275Q696 274 691 277Q688 281 691 291Q695 298 719 310Z"/>
<path id="z25681d14" d="M439 816Q449 816 458 815Q558 796 770 785C780 785 801 784 799 774Q800 765 768 743Q752 733 718 739Q567 767 445 779C433 781 427 816 439 816Z"/>
<defs>
	<clipPath id="z25681c1"><use xlink:href="#z25681d1"/></clipPath>
	<clipPath id="z25681c2"><use xlink:href="#z25681d2"/></clipPath>
	<clipPath id="z25681c3"><use xlink:href="#z25681d3"/></clipPath>
	<clipPath id="z25681c4"><use xlink:href="#z25681d4"/></clipPath>
	<clipPath id="z25681c5"><use xlink:href="#z25681d5"/></clipPath>
	<clipPath id="z25681c6"><use xlink:href="#z25681d6"/></clipPath>
	<clipPath id="z25681c7"><use xlink:href="#z25681d7"/></clipPath>
	<clipPath id="z25681c8"><use xlink:href="#z25681d8"/></clipPath>
	<clipPath id="z25681c9"><use xlink:href="#z25681d9"/></clipPath>
	<clipPath id="z25681c10"><use xlink:href="#z25681d10"/></clipPath>
	<clipPath id="z25681c11"><use xlink:href="#z25681d11"/></clipPath>
	<clipPath id="z25681c12"><use xlink:href="#z25681d12"/></clipPath>
	<clipPath id="z25681c13"><use xlink:href="#z25681d13"/></clipPath>
	<clipPath id="z25681c14"><use xlink:href="#z25681d14"/></clipPath>
</defs>
<path style="--d:1s;" pathLength="3333" clip-path="url(#z25681c1)" d="M113 361L373 318"/>
<path style="--d:2s;" pathLength="3333" clip-path="url(#z25681c2)" d="M241 73L299 125L294 782L261 879L168 794"/>
<path style="--d:3s;" pathLength="3333" clip-path="url(#z25681c3)" d="M56 679L121 676L381 457"/>
<path style="--d:4s;" pathLength="3333" clip-path="url(#z25681c4)" d="M393 241L429 291L422 830"/>
<path style="--d:5s;" pathLength="3333" clip-path="url(#z25681c5)" d="M447 257L787 208L854 253L867 778L838 842L779 787"/>
<path style="--d:6s;" pathLength="3333" clip-path="url(#z25681c6)" d="M503 392L717 360"/>
<path style="--d:7s;" pathLength="3333" clip-path="url(#z25681c7)" d="M466 466L510 603"/>
<path style="--d:8s;" pathLength="3333" clip-path="url(#z25681c8)" d="M507 475L575 460L603 477L575 536"/>
<path style="--d:9s;" pathLength="3333" clip-path="url(#z25681c9)" d="M525 570L610 552"/>
<path style="--d:10s;" pathLength="3333" clip-path="url(#z25681c10)" d="M476 663L513 663L619 596"/>
<path style="--d:11s;" pathLength="3333" clip-path="url(#z25681c11)" d="M608 276L639 304L670 503L730 633L782 668L808 559"/>
<path style="--d:12s;" pathLength="3333" clip-path="url(#z25681c12)" d="M728 428L753 462L726 531L601 701"/>
<path style="--d:13s;" pathLength="3333" clip-path="url(#z25681c13)" d="M698 284L787 334"/>
<path style="--d:14s;" pathLength="3333" clip-path="url(#z25681c14)" d="M450 809L727 762L791 771"/>
</svg>