<!--
AnimCJK 2016-2025 Copyright FM-SH - https://github.com/parsimonhi/animCJK
Derived from:
    MakeMeAHanzi project - https://github.com/skishore/makemeahanzi
    Arphic PL KaitiM GB font
    Arphic PL UKai font
You can redistribute and/or modify this file under the terms of the Arphic Public License
as published by Arphic Technology Co., Ltd.
You should have received a copy of this license along with this file.
If not, see http://ftp.gnu.org/non-gnu/chinese-fonts-truetype/LICENSE.
-->
<svg id="z25754" class="acjk" version="1.1" viewBox="0 0 1024 1024" xmlns="http://www.w3.org/2000/svg" xmlns:xlink="http://www.w3.org/1999/xlink">
<style>
<![CDATA[
@keyframes zk {
	to {
		stroke-dashoffset:0;
	}
}
svg.acjk path[clip-path] {
	--t:0.8s;
	animation:zk var(--t) linear forwards var(--d);
	stroke-dasharray:3337;
	stroke-dashoffset:3339;
	stroke-width:128;
	stroke-linecap:round;
	fill:none;
	stroke:#000;
}
svg.acjk path[id] {fill:#ccc;}
]]>
</style>
<path id="z25754d1" d="M286 301C334 286 359 277 363 274C367 269 369 263 366 258C361 250 349 246 331 244C315 241 301 244 289 250C256 264 256 264 239 271C192 290 147 296 109 305C86 309 84 319 102 327C152 347 194 328 239 315C270 306 270 306 286 301Z"/>
<path id="z25754d2" d="M282 439C282 392 283 346 286 301C288 267 288 267 289 250C292 195 296 152 308 124C316 102 305 87 270 71C246 60 231 54 219 59C207 63 206 72 217 88C245 128 239 172 239 269C239 300 239 300 239 315C239 357 236 407 235 468C234 499 234 499 234 514C232 580 232 657 230 745C229 761 224 771 216 777C209 780 188 780 153 770C130 763 121 760 123 767C124 771 130 778 143 790C180 823 202 849 212 868C222 889 232 902 242 903C251 904 260 892 270 869C282 839 290 799 289 750C285 657 282 566 282 475C282 451 282 451 282 439Z"/>
<path id="z25754d3" d="M282 475C315 448 332 431 337 426C355 402 343 400 329 409C313 417 298 428 282 439C251 458 251 458 235 468C133 530 106 555 54 564C45 565 42 571 43 578C43 586 47 593 54 596C70 603 90 609 114 615C120 616 127 612 133 605C159 572 195 545 234 514C266 488 266 488 282 475Z"/>
<path id="z25754d4" d="M455 345C462 333 479 309 485 299C488 294 488 294 489 291C496 276 531 212 549 189C553 182 554 176 551 170C548 163 539 154 524 145C510 136 498 132 489 134C478 135 476 142 482 153C494 177 479 229 437 310C417 347 392 386 363 428C347 449 356 455 378 439C402 420 440 367 447 357C452 349 452 349 455 345Z"/>
<path id="z25754d5" d="M485 299C495 309 508 313 524 311C535 309 545 308 553 307C596 302 576 346 570 365C538 461 464 552 395 613C371 633 408 621 419 617C453 604 491 570 534 517C567 474 597 424 623 367C634 340 644 321 653 314C659 308 661 303 659 296C656 289 640 281 610 269C603 266 593 268 581 274C557 284 525 290 489 291C486 291 483 297 485 299Z"/>
<path id="z25754d6" d="M447 357C460 379 482 396 499 414C507 423 519 426 526 415C528 410 532 400 526 389C518 374 495 358 455 345C451 343 444 353 447 357Z"/>
<path id="z25754d7" d="M419 453C429 467 439 484 450 503C453 509 459 514 466 516C469 516 474 515 478 511C482 506 484 497 484 483C484 467 464 447 425 423C418 419 414 417 412 418C409 418 407 421 407 428C406 432 410 441 419 453Z"/>
<path id="z25754d8" d="M742 404C755 401 878 365 895 358C901 355 900 347 898 343C892 335 880 330 863 328C843 324 826 328 809 337C790 345 771 354 752 360C735 365 719 369 702 373C687 376 673 378 656 381C632 384 630 393 648 403C659 408 675 415 693 413C708 411 725 407 742 404Z"/>
<path id="z25754d9" d="M752 360C756 335 766 268 771 203C772 180 775 155 786 131C789 123 788 117 783 113C750 83 722 72 699 80C686 83 684 91 695 103C710 120 720 140 720 159C720 211 721 284 702 373C699 386 696 399 693 413C673 499 636 581 571 650C551 670 560 677 583 660C667 600 706 529 735 433C737 423 740 412 742 404C745 386 749 375 752 360Z"/>
<path id="z25754d10" d="M735 433C783 493 856 651 874 655C890 657 941 656 962 656C987 655 994 649 975 642C884 604 832 523 791 468C777 449 753 419 742 404C737 395 729 425 735 433Z"/>
<path id="z25754d11" d="M841 229C862 250 880 265 899 270C907 271 914 267 918 260C921 253 921 244 918 235C913 222 905 212 895 207C887 202 876 201 848 196C837 194 830 194 826 197C823 198 822 201 824 209C825 215 832 220 841 229Z"/>
<path id="z25754d12" d="M402 734C383 764 360 792 338 820C320 841 318 863 326 886C330 898 339 902 354 895C390 875 409 840 420 794C424 772 429 754 426 737C424 729 420 726 416 726C410 725 405 728 402 734Z"/>
<path id="z25754d13" d="M502 758C515 798 526 827 543 842C549 847 557 847 566 842C572 837 577 829 579 819C581 792 564 762 527 733C516 724 502 713 498 732C496 738 498 746 502 758Z"/>
<path id="z25754d14" d="M642 756C666 798 687 825 707 839C713 841 720 840 728 835C732 828 735 820 736 811C734 783 708 755 660 728C647 721 634 716 633 732C632 738 635 746 642 756Z"/>
<path id="z25754d15" d="M797 745C825 778 857 817 892 865C902 879 911 889 922 893C927 894 933 891 939 886C947 877 948 858 945 828C940 792 892 754 801 713C794 710 790 711 789 720C787 728 790 737 797 745Z"/>
<defs>
	<clipPath id="z25754c1"><use xlink:href="#z25754d1"/></clipPath>
	<clipPath id="z25754c2"><use xlink:href="#z25754d2"/></clipPath>
	<clipPath id="z25754c3"><use xlink:href="#z25754d3"/></clipPath>
	<clipPath id="z25754c4"><use xlink:href="#z25754d4"/></clipPath>
	<clipPath id="z25754c5"><use xlink:href="#z25754d5"/></clipPath>
	<clipPath id="z25754c6"><use xlink:href="#z25754d6"/></clipPath>
	<clipPath id="z25754c7"><use xlink:href="#z25754d7"/></clipPath>
	<clipPath id="z25754c8"><use xlink:href="#z25754d8"/></clipPath>
	<clipPath id="z25754c9"><use xlink:href="#z25754d9"/></clipPath>
	<clipPath id="z25754c10"><use xlink:href="#z25754d10"/></clipPath>
	<clipPath id="z25754c11"><use xlink:href="#z25754d11"/></clipPath>
	<clipPath id="z25754c12"><use xlink:href="#z25754d12"/></clipPath>
	<clipPath id="z25754c13"><use xlink:href="#z25754d13"/></clipPath>
	<clipPath id="z25754c14"><use xlink:href="#z25754d14"/></clipPath>
	<clipPath id="z25754c15"><use xlink:href="#z25754d15"/></clipPath>
</defs>
<path style="--d:1s;" pathLength="3333" clip-path="url(#z25754c1)" d="M97 315L363 263"/>
<path style="--d:2s;" pathLength="3333" clip-path="url(#z25754c2)" d="M217 67L271 115L256 781L222 848L131 770"/>
<path style="--d:3s;" pathLength="3333" clip-path="url(#z25754c3)" d="M47 576L110 582L339 410"/>
<path style="--d:4s;" pathLength="3333" clip-path="url(#z25754c4)" d="M484 140L514 195L361 441"/>
<path style="--d:5s;" pathLength="3333" clip-path="url(#z25754c5)" d="M493 298L590 290L619 313L526 495L394 617"/>
<path style="--d:6s;" pathLength="3333" clip-path="url(#z25754c6)" d="M452 351L518 417"/>
<path style="--d:7s;" pathLength="3333" clip-path="url(#z25754c7)" d="M415 429L468 511"/>
<path style="--d:8s;" pathLength="3333" clip-path="url(#z25754c8)" d="M641 390L893 344"/>
<path style="--d:9s;" pathLength="3333" clip-path="url(#z25754c9)" d="M694 89L752 129L720 397L669 541L566 663"/>
<path style="--d:10s;" pathLength="3333" clip-path="url(#z25754c10)" d="M739 412L888 627L977 648"/>
<path style="--d:11s;" pathLength="3333" clip-path="url(#z25754c11)" d="M828 204L912 260"/>
<path style="--d:12s;" pathLength="3333" clip-path="url(#z25754c12)" d="M414 732L339 893"/>
<path style="--d:13s;" pathLength="3333" clip-path="url(#z25754c13)" d="M507 729L562 841"/>
<path style="--d:14s;" pathLength="3333" clip-path="url(#z25754c14)" d="M640 728L724 832"/>
<path style="--d:15s;" pathLength="3333" clip-path="url(#z25754c15)" d="M795 720L887 801L937 885"/>
</svg>