<!--
AnimCJK 2016-2018 Copyright Francois Mizessyn, https://github.com/parsimonhi/animCJK
Derived from:
    MakeMeAHanzi project - https://github.com/skishore/makemeahanzi
    Arphic PL KaitiM GB - https://apps.ubuntu.com/cat/applications/precise/fonts-arphic-gkai00mp/
    Arphic PL UKai - https://apps.ubuntu.com/cat/applications/fonts-arphic-ukai/
You can redistribute and/or modify this file under the terms of the Arphic Public License
as published by Arphic Technology Co., Ltd.
You should have received a copy of this license (the directory "APL") along with this file;
if not, see http://ftp.gnu.org/non-gnu/chinese-fonts-truetype/LICENSE.
-->
<svg id="z25773" class="acjk" version="1.1" viewBox="0 0 1024 1024" xmlns="http://www.w3.org/2000/svg" xmlns:xlink="http://www.w3.org/1999/xlink">
<style>
<![CDATA[
@keyframes z25773k {
	from {
		stroke:#c00;
		stroke-dashoffset:3334;
	}
	75% {
		stroke:#c00;
		stroke-dashoffset:0;
	}
	to {
		stroke:#000;
	}
}
#z25773 path[clip-path] {
	animation:z25773k 1s linear both;
	stroke-dasharray:3334;
	stroke-width:128;
	stroke-linecap:round;
	fill:none;
}
#z25773 path[clip-path="url(#z25773c1)"] {animation-delay:1s;}
#z25773 path[clip-path="url(#z25773c2)"] {animation-delay:2s;}
#z25773 path[clip-path="url(#z25773c3)"] {animation-delay:3s;}
#z25773 path[clip-path="url(#z25773c4)"] {animation-delay:4s;}
#z25773 path[clip-path="url(#z25773c5)"] {animation-delay:5s;}
#z25773 path[clip-path="url(#z25773c6)"] {animation-delay:6s;}
#z25773 path[clip-path="url(#z25773c7)"] {animation-delay:7s;}
#z25773 path[clip-path="url(#z25773c8)"] {animation-delay:8s;}
#z25773 path[clip-path="url(#z25773c9)"] {animation-delay:9s;}
#z25773 path[clip-path="url(#z25773c10)"] {animation-delay:10s;}
#z25773 path[clip-path="url(#z25773c11)"] {animation-delay:11s;}
#z25773 path[clip-path="url(#z25773c12)"] {animation-delay:12s;}
#z25773 path[clip-path="url(#z25773c13)"] {animation-delay:13s;}
#z25773 path[clip-path="url(#z25773c14)"] {animation-delay:14s;}
#z25773 path[clip-path="url(#z25773c15)"] {animation-delay:15s;}
#z25773 path {fill:#ccc;}
]]>
</style>
<path id="z25773d1" d="M307 366Q374 348 380 343Q389 336 384 327Q377 317 348 310Q326 307 309 313L259 331Q186 352 115 364Q81 371 106 386Q148 404 212 389Q234 383 258 378L307 366 Z"/>
<path id="z25773d2" d="M254 560Q251 651 250 769Q249 793 236 802Q229 806 165 794Q132 781 135 791Q136 798 156 814Q217 863 232 892Q248 925 264 927Q279 928 294 893Q312 848 311 774Q304 645 304 516L304 483Q304 425 307 366L309 313Q309 214 330 144Q346 113 292 91Q258 72 239 79Q221 85 237 108Q259 135 259 169Q260 187 259 331L258 378Q257 436 255 515L254 560 Z"/>
<path id="z25773d3" d="M255 515Q177 564 108 613Q77 634 55 642Q43 648 41 656Q41 665 55 677Q74 690 97 697Q113 701 122 688Q173 627 254 560L304 516Q376 453 377 452Q383 439 372 440Q357 443 304 483L255 515 Z"/>
<path id="z25773d4" d="M612 193Q705 157 736 154Q752 153 756 146Q760 136 749 126Q730 111 690 94Q675 87 663 87Q656 91 656 101Q650 140 477 213Q473 220 477 224Q501 224 569 204L612 193 Z"/>
<path id="z25773d5" d="M445 276Q488 337 511 341Q523 344 529 328Q530 316 524 298Q517 283 496 274Q465 256 451 253Q444 252 441 261Q440 268 445 276 Z"/>
<path id="z25773d6" d="M736 214Q720 241 687 281Q683 287 687 293Q693 294 699 290Q763 247 795 231Q810 227 806 218Q802 205 786 191Q771 176 753 174Q741 175 742 190Q743 200 736 214 Z"/>
<path id="z25773d7" d="M644 386Q656 383 840 367Q858 366 861 358Q865 348 850 336Q796 303 733 327Q690 337 634 351L593 361Q502 379 397 400Q379 403 394 417Q422 439 454 430Q499 414 548 404L644 386 Z"/>
<path id="z25773d8" d="M634 351Q637 273 656 236Q662 227 651 215Q633 202 612 193L569 204Q568 204 569 205Q593 241 593 361L593 418Q593 496 587 527Q586 536 602 574Q611 589 624 581Q633 575 633 514Q629 463 631 406L634 351 Z"/>
<path id="z25773d9" d="M548 404Q515 491 349 602Q334 612 348 614Q358 615 391 602Q431 589 467 562Q498 537 535 498Q563 467 581 437Q587 425 593 418L593 396L548 404 Z"/>
<path id="z25773d10" d="M631 406Q698 479 773 548Q795 567 831 566Q897 565 963 548Q979 544 981 540Q982 533 969 529Q783 481 692 420Q688 417 685 415Q660 396 644 386L631 389L631 406 Z"/>
<path id="z25773d11" d="M453 641Q441 635 417 631Q404 627 401 632Q394 638 402 655Q433 727 447 842Q450 876 468 900Q486 922 491 907Q494 897 495 885L495 855Q495 843 493 831Q475 719 471 679L453 641 Z"/>
<path id="z25773d12" d="M708 862Q717 887 737 932Q744 948 755 948Q770 947 780 921Q801 882 823 732Q827 684 851 656Q867 637 856 623Q834 602 789 582Q771 572 739 583Q622 625 453 641L471 679Q478 680 487 678Q529 668 583 659L619 652Q665 642 724 632Q749 628 761 639Q779 672 749 826Q748 839 742 842Q739 843 733 841L708 862 Z"/>
<path id="z25773d13" d="M629 832Q633 792 636 759L640 719Q640 709 643 697Q652 676 619 652L583 659Q589 674 590 733L590 766Q590 796 590 840L629 832 Z"/>
<path id="z25773d14" d="M636 759Q676 752 711 747Q733 743 725 731Q715 718 691 713Q672 710 640 719L590 733Q551 743 519 752Q503 756 522 769Q529 775 590 766L636 759 Z"/>
<path id="z25773d15" d="M495 885Q504 886 516 885Q577 872 708 862L733 841Q726 834 712 824Q691 815 629 832L590 840Q538 847 495 855L495 885 Z"/>
<defs>
	<clipPath id="z25773c1"><use xlink:href="#z25773d1"/></clipPath>
	<clipPath id="z25773c2"><use xlink:href="#z25773d2"/></clipPath>
	<clipPath id="z25773c3"><use xlink:href="#z25773d3"/></clipPath>
	<clipPath id="z25773c4"><use xlink:href="#z25773d4"/></clipPath>
	<clipPath id="z25773c5"><use xlink:href="#z25773d5"/></clipPath>
	<clipPath id="z25773c6"><use xlink:href="#z25773d6"/></clipPath>
	<clipPath id="z25773c7"><use xlink:href="#z25773d7"/></clipPath>
	<clipPath id="z25773c8"><use xlink:href="#z25773d8"/></clipPath>
	<clipPath id="z25773c9"><use xlink:href="#z25773d9"/></clipPath>
	<clipPath id="z25773c10"><use xlink:href="#z25773d10"/></clipPath>
	<clipPath id="z25773c11"><use xlink:href="#z25773d11"/></clipPath>
	<clipPath id="z25773c12"><use xlink:href="#z25773d12"/></clipPath>
	<clipPath id="z25773c13"><use xlink:href="#z25773d13"/></clipPath>
	<clipPath id="z25773c14"><use xlink:href="#z25773d14"/></clipPath>
	<clipPath id="z25773c15"><use xlink:href="#z25773d15"/></clipPath>
</defs>
<path pathLength="3333" clip-path="url(#z25773c1)" d="M106 375L382 331"/>
<path pathLength="3333" clip-path="url(#z25773c2)" d="M237 87L294 133L278 802L243 873L142 795"/>
<path pathLength="3333" clip-path="url(#z25773c3)" d="M48 654L102 660L371 447"/>
<path pathLength="3333" clip-path="url(#z25773c4)" d="M750 141L678 125L485 218"/>
<path pathLength="3333" clip-path="url(#z25773c5)" d="M448 261L518 334"/>
<path pathLength="3333" clip-path="url(#z25773c6)" d="M801 219L755 212L692 286"/>
<path pathLength="3333" clip-path="url(#z25773c7)" d="M392 405L771 345L857 351"/>
<path pathLength="3333" clip-path="url(#z25773c8)" d="M576 207L622 242L611 578"/>
<path pathLength="3333" clip-path="url(#z25773c9)" d="M588 404L484 522L350 609"/>
<path pathLength="3333" clip-path="url(#z25773c10)" d="M637 395L797 517L974 538"/>
<path pathLength="3333" clip-path="url(#z25773c11)" d="M406 638L443 686L482 907"/>
<path pathLength="3333" clip-path="url(#z25773c12)" d="M462 642L500 656L751 605L799 624L813 646L747 943"/>
<path pathLength="3333" clip-path="url(#z25773c13)" d="M592 665L616 697L603 836"/>
<path pathLength="3333" clip-path="url(#z25773c14)" d="M520 759L719 737"/>
<path pathLength="3333" clip-path="url(#z25773c15)" d="M503 877L726 842"/>
</svg>