<!--
AnimCJK 2016-2019 Copyright Francois Mizessyn - https://github.com/parsimonhi/animCJK
Derived from:
    MakeMeAHanzi project - https://github.com/skishore/makemeahanzi
    Arphic PL KaitiM GB font
    Arphic PL UKai font
You can redistribute and/or modify this file under the terms of the Arphic Public License
as published by Arphic Technology Co., Ltd.
You should have received a copy of this license along with this file.
If not, see http://ftp.gnu.org/non-gnu/chinese-fonts-truetype/LICENSE.
-->
<svg id="z25793" class="acjk" version="1.1" viewBox="0 0 1024 1024" xmlns="http://www.w3.org/2000/svg" xmlns:xlink="http://www.w3.org/1999/xlink">
<style>
<![CDATA[
@keyframes zk {
	to {
		stroke-dashoffset:0;
	}
}
svg.acjk path[clip-path] {
	--t:0.8s;
	animation:zk var(--t) linear forwards var(--d);
	stroke-dasharray:3337;
	stroke-dashoffset:3339;
	stroke-width:128;
	stroke-linecap:round;
	fill:none;
	stroke:#000;
}
svg.acjk path[id] {fill:#ccc;}
]]>
</style>
<path id="z25793d1" d="M294 384Q361 363 364 362Q371 355 367 347Q360 337 333 330Q312 327 295 333C263 344 263 344 247 349Q175 370 99 382Q66 388 90 403Q126 421 220 401Q232 398 247 395C278 388 278 388 294 384Z"/>
<path id="z25793d2" d="M245 572Q244 660 244 768Q243 792 230 801Q227 804 187 796Q157 781 158 791Q159 798 176 815Q221 864 230 890Q240 920 253 923Q266 924 283 892Q302 849 304 777Q295 653 293 529C293 509 293 509 293 499Q292 441 294 384C295 350 295 350 295 333Q295 207 313 141Q329 113 276 91Q243 73 225 80Q209 86 224 108Q245 133 246 167Q247 186 247 349C247 380 247 380 247 395Q246 453 245 530C245 558 245 558 245 572Z"/>
<path id="z25793d3" d="M245 530Q169 578 104 625Q73 646 50 654Q38 661 37 668Q37 677 51 689Q70 702 93 709Q105 710 127 690Q181 627 245 572C277 543 277 543 293 529Q303 519 316 510Q332 497 341 484Q347 471 336 472Q314 478 293 499C261 520 261 520 245 530Z"/>
<path id="z25793d4" d="M601 121Q631 142 662 167Q678 179 694 176Q704 175 709 160Q712 144 699 114Q692 95 659 83Q578 65 568 73Q564 77 566 91Q570 101 601 121Z"/>
<path id="z25793d5" d="M464 319Q636 267 898 267Q919 267 924 258Q928 246 913 234Q862 198 825 207Q692 240 391 286Q372 289 387 305Q405 323 434 324C454 321 454 321 464 319Z"/>
<path id="z25793d6" d="M489 494Q452 495 423 497Q399 498 411 483Q451 420 489 374Q499 361 498 355Q497 345 466 320Q465 319 464 319C456 313 430 315 434 324Q441 339 437 360Q415 444 361 492Q339 508 363 540Q372 549 381 543Q400 531 470 515Q473 514 478 514C486 514 497 494 489 494Z"/>
<path id="z25793d7" d="M516 635Q479 638 436 649Q408 659 427 636Q455 596 523 515Q545 484 567 467Q577 460 571 451Q564 435 536 420Q523 413 515 415Q508 418 509 430Q510 449 489 494C482 507 482 507 478 514Q418 617 365 657Q352 664 354 677Q355 687 376 704Q385 714 397 704Q454 668 513 653C519 651 522 635 516 635Z"/>
<path id="z25793d8" d="M513 653Q476 767 401 846Q383 864 358 889Q352 896 358 898Q382 902 457 836Q524 776 564 650Q571 629 581 609Q587 602 582 593Q576 586 550 573Q531 564 523 566Q513 570 514 583Q518 607 516 635C514 647 514 647 513 653Z"/>
<path id="z25793d9" d="M622 491Q658 449 695 389Q705 367 716 357Q723 348 719 338Q715 328 692 313Q671 300 657 301Q642 304 650 320Q671 360 571 516Q564 525 563 529Q562 538 571 535Q578 534 597 516C614 499 614 499 622 491Z"/>
<path id="z25793d10" d="M660 791Q656 607 661 563Q667 539 641 511Q629 496 622 491C613 484 593 505 597 516Q615 564 621 613Q621 760 601 848Q589 888 621 931Q622 932 624 934Q640 947 650 924Q665 884 660 808C660 797 660 797 660 791Z"/>
<path id="z25793d11" d="M763 368Q779 386 798 407Q808 417 821 417Q828 417 833 407Q837 397 832 373Q826 352 761 331Q749 328 744 329Q740 332 740 342Q743 351 763 368Z"/>
<path id="z25793d12" d="M783 496Q898 466 900 465Q906 459 902 453Q898 444 875 439Q853 435 830 445Q799 455 766 465Q729 475 685 480Q658 484 678 497Q703 512 745 505C770 499 770 499 783 496Z"/>
<path id="z25793d13" d="M801 763Q802 720 804 682C805 657 805 657 805 645Q806 615 808 589C809 564 809 564 810 551Q810 520 809 518Q796 505 783 496C773 488 738 494 745 505Q757 526 758 567C759 588 759 588 759 598Q759 622 760 659C760 680 760 680 760 690Q760 726 760 772C760 786 801 777 801 763Z"/>
<path id="z25793d14" d="M808 589Q842 582 872 578Q893 574 885 563Q875 550 853 546Q837 545 810 551C775 562 775 562 758 567Q727 576 698 585Q683 588 702 601Q709 607 727 604Q742 600 759 598C792 592 792 592 808 589Z"/>
<path id="z25793d15" d="M804 682Q840 675 872 670Q893 666 885 655Q875 642 853 638Q834 637 805 645C775 654 775 654 760 659Q726 668 698 677Q683 680 702 693Q709 699 727 696Q742 692 760 690C789 685 789 685 804 682Z"/>
<path id="z25793d16" d="M760 772Q711 779 660 791C654 792 655 805 660 808Q685 826 710 818Q749 806 794 800Q956 785 959 783Q959 782 960 781Q964 772 950 763Q902 733 859 749Q834 755 801 763C774 769 774 769 760 772Z"/>
<defs>
	<clipPath id="z25793c1"><use xlink:href="#z25793d1"/></clipPath>
	<clipPath id="z25793c2"><use xlink:href="#z25793d2"/></clipPath>
	<clipPath id="z25793c3"><use xlink:href="#z25793d3"/></clipPath>
	<clipPath id="z25793c4"><use xlink:href="#z25793d4"/></clipPath>
	<clipPath id="z25793c5"><use xlink:href="#z25793d5"/></clipPath>
	<clipPath id="z25793c6"><use xlink:href="#z25793d6"/></clipPath>
	<clipPath id="z25793c7"><use xlink:href="#z25793d7"/></clipPath>
	<clipPath id="z25793c8"><use xlink:href="#z25793d8"/></clipPath>
	<clipPath id="z25793c9"><use xlink:href="#z25793d9"/></clipPath>
	<clipPath id="z25793c10"><use xlink:href="#z25793d10"/></clipPath>
	<clipPath id="z25793c11"><use xlink:href="#z25793d11"/></clipPath>
	<clipPath id="z25793c12"><use xlink:href="#z25793d12"/></clipPath>
	<clipPath id="z25793c13"><use xlink:href="#z25793d13"/></clipPath>
	<clipPath id="z25793c14"><use xlink:href="#z25793d14"/></clipPath>
	<clipPath id="z25793c15"><use xlink:href="#z25793d15"/></clipPath>
	<clipPath id="z25793c16"><use xlink:href="#z25793d16"/></clipPath>
</defs>
<path style="--d:1s;" pathLength="3333" clip-path="url(#z25793c1)" d="M87 391L363 354"/>
<path style="--d:2s;" pathLength="3333" clip-path="url(#z25793c2)" d="M222 86L280 139L273 785L243 870L166 795"/>
<path style="--d:3s;" pathLength="3333" clip-path="url(#z25793c3)" d="M42 667L95 671L336 478"/>
<path style="--d:4s;" pathLength="3333" clip-path="url(#z25793c4)" d="M572 79L654 117L703 167"/>
<path style="--d:5s;" pathLength="3333" clip-path="url(#z25793c5)" d="M387 292L438 301L823 237L920 247"/>
<path style="--d:6s;" pathLength="3333" clip-path="url(#z25793c6)" d="M442 327L466 364L383 509L481 501"/>
<path style="--d:7s;" pathLength="3333" clip-path="url(#z25793c7)" d="M518 423L536 463L387 661L403 680L510 643"/>
<path style="--d:8s;" pathLength="3333" clip-path="url(#z25793c8)" d="M523 571L550 609L497 750L362 891"/>
<path style="--d:9s;" pathLength="3333" clip-path="url(#z25793c9)" d="M658 309L685 351L572 529"/>
<path style="--d:10s;" pathLength="3333" clip-path="url(#z25793c10)" d="M618 508L640 615L632 933"/>
<path style="--d:11s;" pathLength="3333" clip-path="url(#z25793c11)" d="M748 335L826 410"/>
<path style="--d:12s;" pathLength="3333" clip-path="url(#z25793c12)" d="M676 488L897 455"/>
<path style="--d:13s;" pathLength="3333" clip-path="url(#z25793c13)" d="M753 506L783 538L778 767"/>
<path style="--d:14s;" pathLength="3333" clip-path="url(#z25793c14)" d="M699 591L881 568"/>
<path style="--d:15s;" pathLength="3333" clip-path="url(#z25793c15)" d="M699 684L881 658"/>
<path style="--d:16s;" pathLength="3333" clip-path="url(#z25793c16)" d="M665 796L956 776"/>
</svg>