<!--
AnimCJK 2016-2018 Copyright Francois Mizessyn, https://github.com/parsimonhi/animCJK
Derived from:
    MakeMeAHanzi project - https://github.com/skishore/makemeahanzi
    Arphic PL KaitiM GB - https://apps.ubuntu.com/cat/applications/precise/fonts-arphic-gkai00mp/
    Arphic PL UKai - https://apps.ubuntu.com/cat/applications/fonts-arphic-ukai/
You can redistribute and/or modify this file under the terms of the Arphic Public License
as published by Arphic Technology Co., Ltd.
You should have received a copy of this license (the directory "APL") along with this file;
if not, see http://ftp.gnu.org/non-gnu/chinese-fonts-truetype/LICENSE.
-->
<svg id="z25836" class="acjk" version="1.1" viewBox="0 0 1024 1024" xmlns="http://www.w3.org/2000/svg" xmlns:xlink="http://www.w3.org/1999/xlink">
<style>
<![CDATA[
@keyframes z25836k {
	from {
		stroke:#c00;
		stroke-dashoffset:3334;
	}
	75% {
		stroke:#c00;
		stroke-dashoffset:0;
	}
	to {
		stroke:#000;
	}
}
#z25836 path[clip-path] {
	animation:z25836k 1s linear both;
	stroke-dasharray:3334;
	stroke-width:128;
	stroke-linecap:round;
	fill:none;
}
#z25836 path[clip-path="url(#z25836c1)"] {animation-delay:1s;}
#z25836 path[clip-path="url(#z25836c2)"] {animation-delay:2s;}
#z25836 path[clip-path="url(#z25836c3)"] {animation-delay:3s;}
#z25836 path[clip-path="url(#z25836c4)"] {animation-delay:4s;}
#z25836 path[clip-path="url(#z25836c5)"] {animation-delay:5s;}
#z25836 path[clip-path="url(#z25836c6)"] {animation-delay:6s;}
#z25836 path[clip-path="url(#z25836c7)"] {animation-delay:7s;}
#z25836 path[clip-path="url(#z25836c8)"] {animation-delay:8s;}
#z25836 path[clip-path="url(#z25836c9)"] {animation-delay:9s;}
#z25836 path[clip-path="url(#z25836c10)"] {animation-delay:10s;}
#z25836 path[clip-path="url(#z25836c11)"] {animation-delay:11s;}
#z25836 path[clip-path="url(#z25836c12)"] {animation-delay:12s;}
#z25836 path[clip-path="url(#z25836c13)"] {animation-delay:13s;}
#z25836 path[clip-path="url(#z25836c14)"] {animation-delay:14s;}
#z25836 path[clip-path="url(#z25836c15)"] {animation-delay:15s;}
#z25836 path[clip-path="url(#z25836c16)"] {animation-delay:16s;}
#z25836 path[clip-path="url(#z25836c17)"] {animation-delay:17s;}
#z25836 path {fill:#ccc;}
]]>
</style>
<path id="z25836d1" d="M263 385Q273 381 286 378Q313 371 317 366Q324 359 320 350Q313 340 285 336Q275 335 264 336L219 350Q141 377 90 385Q56 392 82 407Q118 423 189 404Q202 400 218 397L263 385 Z"/>
<path id="z25836d2" d="M216 562Q215 644 214 748Q213 772 201 781Q197 784 150 775Q122 762 123 771Q124 778 141 793Q189 839 199 865Q211 895 224 897Q237 898 252 866Q270 826 271 757Q264 640 262 524L262 500Q261 442 263 385L264 336Q268 182 283 135Q299 107 248 87Q217 71 199 76Q183 82 198 103Q217 128 219 159Q220 178 219 350L218 397Q217 454 216 526L216 562 Z"/>
<path id="z25836d3" d="M216 526Q41 625 37 628Q25 634 22 642Q21 649 33 661Q49 674 70 681Q79 682 112 654Q166 599 216 562L262 524Q298 494 301 491Q307 481 297 480Q279 481 262 500L216 526 Z"/>
<path id="z25836d4" d="M397 246Q464 242 530 209Q539 205 550 202Q560 198 559 192Q558 186 545 177Q518 159 501 159Q494 158 493 167Q493 188 397 234L397 246 Z"/>
<path id="z25836d5" d="M397 234Q398 197 407 153Q410 140 401 131Q391 121 373 115Q363 111 357 116Q351 119 356 132Q366 162 364 191Q358 324 395 348Q404 352 419 359Q503 386 568 339Q581 329 574 310Q567 298 553 262Q554 250 549 247Q545 244 540 257Q506 311 484 317Q453 326 420 312Q408 306 405 299Q396 281 397 246L397 234 Z"/>
<path id="z25836d6" d="M391 468Q397 459 402 451Q415 426 428 406Q435 397 425 388Q392 370 380 372Q373 373 374 383Q383 440 318 523Q314 527 312 532Q308 542 317 538Q339 535 379 486L391 468 Z"/>
<path id="z25836d7" d="M449 482Q536 448 538 447Q544 441 539 436Q533 429 512 427Q497 426 437 453Q413 460 391 468L379 486Q391 489 407 491L449 482 Z"/>
<path id="z25836d8" d="M453 580Q490 570 535 560Q545 557 546 553Q546 544 534 539Q515 532 458 550L415 562Q288 590 286 596Q285 603 295 611Q325 627 350 616Q384 603 411 593L453 580 Z"/>
<path id="z25836d9" d="M448 607Q451 595 453 580L458 550Q458 547 459 545Q460 526 468 509Q474 496 463 490L449 482L407 491Q420 509 415 562L411 593Q402 662 330 736Q327 737 324 741Q314 750 303 758Q294 765 303 766Q340 766 388 719Q418 689 444 624L448 607 Z"/>
<path id="z25836d10" d="M444 624Q447 628 456 635Q496 671 505 672Q511 671 514 663Q517 656 511 637Q508 627 490 618Q472 611 453 607Q450 606 448 607L444 624 Z"/>
<path id="z25836d11" d="M717 292Q786 222 826 208Q842 202 837 189Q834 176 780 146Q765 137 696 163Q627 184 587 183Q568 182 574 199Q581 209 596 219Q621 234 649 217Q661 211 725 182Q737 178 747 185Q757 192 752 203Q727 239 699 282L717 292 Z"/>
<path id="z25836d12" d="M699 282Q700 281 699 281Q633 260 624 266Q620 269 622 278Q622 279 705 347Q715 354 727 354Q734 353 738 344Q739 332 733 311Q729 301 717 292L699 282 Z"/>
<path id="z25836d13" d="M704 413Q735 403 772 394Q800 387 803 398Q804 408 788 446Q781 459 787 463Q793 467 805 456Q866 419 890 411Q909 408 908 398Q907 386 841 354Q822 345 798 352Q743 371 694 384Q639 397 563 413Q538 417 558 436Q573 452 615 439Q639 432 666 424L704 413 Z"/>
<path id="z25836d14" d="M721 695Q722 635 725 583L726 554Q729 436 729 434L728 433Q716 421 704 413L666 424Q669 428 673 434Q679 455 680 672L721 695 Z"/>
<path id="z25836d15" d="M725 583Q728 584 736 583Q791 576 831 570Q856 566 846 552Q833 537 807 534Q756 531 726 554L725 583 Z"/>
<path id="z25836d16" d="M615 628Q640 559 641 557Q640 554 639 553Q633 546 605 532Q586 525 577 526Q567 530 569 544Q584 619 520 716Q517 716 517 719Q498 747 450 797Q444 804 450 806Q472 809 535 755Q574 721 606 651L615 628 Z"/>
<path id="z25836d17" d="M606 651Q694 735 787 811Q812 832 849 829Q918 825 986 803Q1005 799 1005 794Q1006 787 992 784Q946 772 891 762Q819 747 721 695L680 672Q673 668 666 663Q633 641 615 628L606 651 Z"/>
<defs>
	<clipPath id="z25836c1"><use xlink:href="#z25836d1"/></clipPath>
	<clipPath id="z25836c2"><use xlink:href="#z25836d2"/></clipPath>
	<clipPath id="z25836c3"><use xlink:href="#z25836d3"/></clipPath>
	<clipPath id="z25836c4"><use xlink:href="#z25836d4"/></clipPath>
	<clipPath id="z25836c5"><use xlink:href="#z25836d5"/></clipPath>
	<clipPath id="z25836c6"><use xlink:href="#z25836d6"/></clipPath>
	<clipPath id="z25836c7"><use xlink:href="#z25836d7"/></clipPath>
	<clipPath id="z25836c8"><use xlink:href="#z25836d8"/></clipPath>
	<clipPath id="z25836c9"><use xlink:href="#z25836d9"/></clipPath>
	<clipPath id="z25836c10"><use xlink:href="#z25836d10"/></clipPath>
	<clipPath id="z25836c11"><use xlink:href="#z25836d11"/></clipPath>
	<clipPath id="z25836c12"><use xlink:href="#z25836d12"/></clipPath>
	<clipPath id="z25836c13"><use xlink:href="#z25836d13"/></clipPath>
	<clipPath id="z25836c14"><use xlink:href="#z25836d14"/></clipPath>
	<clipPath id="z25836c15"><use xlink:href="#z25836d15"/></clipPath>
	<clipPath id="z25836c16"><use xlink:href="#z25836d16"/></clipPath>
	<clipPath id="z25836c17"><use xlink:href="#z25836d17"/></clipPath>
</defs>
<path pathLength="3333" clip-path="url(#z25836c1)" d="M82 396L317 360"/>
<path pathLength="3333" clip-path="url(#z25836c2)" d="M197 84L252 136L242 764L213 844L132 773"/>
<path pathLength="3333" clip-path="url(#z25836c3)" d="M29 644L75 643L298 488"/>
<path pathLength="3333" clip-path="url(#z25836c4)" d="M551 190L509 187L403 239"/>
<path pathLength="3333" clip-path="url(#z25836c5)" d="M362 122L385 155L381 271L408 331L512 336L548 307L547 254"/>
<path pathLength="3333" clip-path="url(#z25836c6)" d="M382 376L401 412L317 532"/>
<path pathLength="3333" clip-path="url(#z25836c7)" d="M388 482L535 442"/>
<path pathLength="3333" clip-path="url(#z25836c8)" d="M293 598L536 547"/>
<path pathLength="3333" clip-path="url(#z25836c9)" d="M414 494L443 515L420 635L379 704L308 762"/>
<path pathLength="3333" clip-path="url(#z25836c10)" d="M452 616L505 666"/>
<path pathLength="3333" clip-path="url(#z25836c11)" d="M580 191L632 201L738 164L783 179L794 202L707 285"/>
<path pathLength="3333" clip-path="url(#z25836c12)" d="M626 272L728 349"/>
<path pathLength="3333" clip-path="url(#z25836c13)" d="M558 423L814 373L852 417L789 457"/>
<path pathLength="3333" clip-path="url(#z25836c14)" d="M673 424L702 451L713 687"/>
<path pathLength="3333" clip-path="url(#z25836c15)" d="M731 575L844 554"/>
<path pathLength="3333" clip-path="url(#z25836c16)" d="M576 533L606 570L575 663L455 799"/>
<path pathLength="3333" clip-path="url(#z25836c17)" d="M617 636L815 782L998 794"/>
</svg>