<!--
AnimCJK 2016-2026 Copyright FM-SH, https://github.com/parsimonhi/animCJK
Derived from:
    MakeMeAHanzi project - https://github.com/skishore/makemeahanzi
    Arphic PL KaitiM GB font
    Arphic PL KaitiM Big5 font
You can redistribute and/or modify this file under the terms of the Arphic Public License
as published by Arphic Technology Co., Ltd.
You should have received a copy of this license along with this file.
If not, see https://ftp.gnu.org/non-gnu/chinese-fonts-truetype/LICENSE.
-->
<svg id="z25842" class="acjk" viewBox="0 0 1024 1024" xmlns="http://www.w3.org/2000/svg">
<style>
<![CDATA[
@keyframes zk {
	to {
		stroke-dashoffset:0;
	}
}
svg.acjk path[clip-path] {
	--t:0.8s;
	animation:zk var(--t) linear forwards var(--d);
	stroke-dasharray:3337;
	stroke-dashoffset:3339;
	stroke-width:128;
	stroke-linecap:round;
	fill:none;
	stroke:#000;
}
svg.acjk path[id] {fill:#ccc;}
]]>
</style>
<path id="z25842d1" d="M279 328C319 316 339 307 341 307C345 303 358 284 307 275C298 273 288 272 280 276C280 276 249 286 234 292C188 308 142 318 98 327C74 331 72 341 90 350C142 375 184 355 234 341C264 332 264 332 279 328Z"/>
<path id="z25842d2" d="M230 530C228 585 229 649 228 720C227 758 207 760 147 744C101 732 118 747 139 763C177 792 201 816 211 834C221 853 232 864 242 865C250 865 259 855 268 834C278 806 284 769 283 725C279 646 276 568 276 491C276 472 276 472 276 462C276 417 278 372 279 328C280 293 280 293 280 276C281 182 296 134 299 131C309 112 296 99 264 83C219 61 198 69 214 99C233 136 234 230 234 292C234 325 234 325 234 341C234 383 232 432 231 489C230 516 230 516 230 530Z"/>
<path id="z25842d3" d="M231 489C113 559 87 580 49 595C26 603 36 619 48 629C59 638 73 644 88 649C96 651 104 648 111 641C148 598 190 563 230 530C261 504 261 504 276 491C307 464 323 449 325 447C329 439 327 435 321 436C313 436 300 447 276 462C246 480 246 480 231 489Z"/>
<path id="z25842d4" d="M416 127C413 147 386 185 325 244C309 259 322 264 337 256C413 213 444 176 465 155C487 133 472 125 456 110C447 101 434 94 426 94C409 93 419 111 416 127Z"/>
<path id="z25842d5" d="M499 95C534 123 585 176 605 194C621 208 641 202 653 201C701 195 717 192 671 169C659 163 645 156 633 150C619 142 588 122 580 116C569 108 529 76 506 68C470 54 463 68 499 95Z"/>
<path id="z25842d6" d="M525 239C549 233 583 230 588 227C593 222 597 206 563 201C532 196 507 212 401 236C383 239 380 244 394 253C410 262 435 260 447 258C460 255 460 255 467 253C477 250 487 247 499 245C516 241 516 241 525 239Z"/>
<path id="z25842d7" d="M388 331C368 315 350 317 355 333C372 391 376 445 368 494C364 516 368 537 386 557C395 567 400 560 405 546C407 539 407 531 407 524C405 481 403 410 402 354C402 345 395 336 388 331Z"/>
<path id="z25842d8" d="M592 522C611 567 626 554 638 528C644 511 648 500 648 479C644 398 648 349 662 330C667 321 667 313 663 309C649 295 628 284 603 275C592 270 573 279 543 291C522 299 522 299 512 303C502 306 488 310 481 312C461 317 461 317 451 319C427 324 406 327 388 331C379 333 393 354 402 354C416 354 415 351 449 342C468 337 468 337 477 334C488 330 500 326 512 323C529 318 529 318 538 316C553 311 580 300 592 315C601 327 599 347 599 379C599 384 599 384 599 386C599 411 593 481 593 500C593 507 589 515 592 522Z"/>
<path id="z25842d9" d="M447 258C452 274 452 299 451 319C450 334 450 334 449 342C446 365 439 394 432 416C426 434 431 449 444 428C466 394 472 358 477 334C480 319 480 319 481 312C489 267 496 271 467 253C461 249 446 251 447 258Z"/>
<path id="z25842d10" d="M543 291C544 282 546 273 551 263C554 253 551 243 525 239C516 238 494 237 499 245C508 259 512 272 512 303C512 316 512 316 512 323C512 365 510 384 525 396C533 403 551 403 570 401C583 399 593 396 599 386C601 384 600 379 598 378C594 374 579 373 556 373C541 372 530 351 538 316C541 299 541 299 543 291Z"/>
<path id="z25842d11" d="M441 461C432 464 432 470 445 477C455 483 517 470 553 465C581 460 561 438 535 436C519 434 487 444 441 461Z"/>
<path id="z25842d12" d="M405 546C418 548 459 538 592 522C599 521 600 503 593 500C562 485 564 497 407 524C400 525 398 546 405 546Z"/>
<path id="z25842d13" d="M505 657C545 647 590 638 642 633C667 630 657 612 643 606C628 599 614 597 601 600C568 606 539 613 515 619C481 626 481 626 464 630C406 642 358 647 320 651C306 652 296 664 316 678C340 694 363 697 385 690C409 681 433 674 456 669C489 661 489 661 505 657Z"/>
<path id="z25842d14" d="M456 669C444 722 406 768 348 806C329 817 336 823 356 820C432 808 487 724 505 657C512 632 512 632 515 619C523 588 540 578 523 565C498 545 479 538 466 542C459 544 457 549 460 557C465 571 470 595 464 630C459 656 459 656 456 669Z"/>
<path id="z25842d15" d="M546 716C558 731 570 749 583 768C592 781 610 792 621 775C625 767 627 754 626 737C624 718 599 697 551 674C531 664 527 668 526 683C525 689 533 700 546 716Z"/>
<path id="z25842d16" d="M746 306C750 304 775 294 822 276C843 274 842 292 838 308C807 421 795 411 795 435C795 450 836 436 839 421C839 404 877 320 923 294C941 283 942 272 926 260C901 241 881 229 867 223C856 219 846 220 836 227C825 237 791 253 735 277C725 281 736 310 746 306Z"/>
<path id="z25842d17" d="M795 435C795 443 801 450 814 457C868 483 900 526 905 588C907 620 894 649 860 642C840 637 764 623 811 656C847 680 869 701 877 717C882 728 899 743 920 722C949 691 959 649 961 608C963 547 928 493 855 447C845 440 839 433 839 421C836 406 792 420 795 435Z"/>
<path id="z25842d18" d="M735 277C662 226 657 265 663 276C680 311 688 340 689 357C691 457 689 586 687 744C685 824 687 883 690 922C699 1007 727 993 734 913C738 856 741 800 739 744C738 723 737 599 737 373C736 364 740 342 746 306C748 296 743 283 735 277Z"/>
<defs>
	<clipPath id="z25842c1"><use href="#z25842d1"/></clipPath>
	<clipPath id="z25842c2"><use href="#z25842d2"/></clipPath>
	<clipPath id="z25842c3"><use href="#z25842d3"/></clipPath>
	<clipPath id="z25842c4"><use href="#z25842d4"/></clipPath>
	<clipPath id="z25842c5"><use href="#z25842d5"/></clipPath>
	<clipPath id="z25842c6"><use href="#z25842d6"/></clipPath>
	<clipPath id="z25842c7"><use href="#z25842d7"/></clipPath>
	<clipPath id="z25842c8"><use href="#z25842d8"/></clipPath>
	<clipPath id="z25842c9"><use href="#z25842d9"/></clipPath>
	<clipPath id="z25842c10"><use href="#z25842d10"/></clipPath>
	<clipPath id="z25842c11"><use href="#z25842d11"/></clipPath>
	<clipPath id="z25842c12"><use href="#z25842d12"/></clipPath>
	<clipPath id="z25842c13"><use href="#z25842d13"/></clipPath>
	<clipPath id="z25842c14"><use href="#z25842d14"/></clipPath>
	<clipPath id="z25842c15"><use href="#z25842d15"/></clipPath>
	<clipPath id="z25842c16"><use href="#z25842d16"/></clipPath>
	<clipPath id="z25842c17"><use href="#z25842d17"/></clipPath>
	<clipPath id="z25842c18"><use href="#z25842d18"/></clipPath>
</defs>
<path style="--d:1s;" pathLength="3333" clip-path="url(#z25842c1)" d="M85 336L341 293"/>
<path style="--d:2s;" pathLength="3333" clip-path="url(#z25842c2)" d="M216 79L263 127L252 757L220 812L124 745"/>
<path style="--d:3s;" pathLength="3333" clip-path="url(#z25842c3)" d="M38 607L93 612L320 442"/>
<path style="--d:4s;" pathLength="3333" clip-path="url(#z25842c4)" d="M424 101L441 144L325 254"/>
<path style="--d:5s;" pathLength="3333" clip-path="url(#z25842c5)" d="M481 68L628 177L690 189"/>
<path style="--d:6s;" pathLength="3333" clip-path="url(#z25842c6)" d="M394 245L587 218"/>
<path style="--d:7s;" pathLength="3333" clip-path="url(#z25842c7)" d="M362 326L384 375L389 555"/>
<path style="--d:8s;" pathLength="3333" clip-path="url(#z25842c8)" d="M391 335L569 293L626 314L610 546"/>
<path style="--d:9s;" pathLength="3333" clip-path="url(#z25842c9)" d="M457 258L464 328L434 430"/>
<path style="--d:10s;" pathLength="3333" clip-path="url(#z25842c10)" d="M507 247L531 272L530 377L592 384"/>
<path style="--d:11s;" pathLength="3333" clip-path="url(#z25842c11)" d="M442 468L561 454"/>
<path style="--d:12s;" pathLength="3333" clip-path="url(#z25842c12)" d="M405 538L591 507"/>
<path style="--d:13s;" pathLength="3333" clip-path="url(#z25842c13)" d="M311 661L362 670L651 618"/>
<path style="--d:14s;" pathLength="3333" clip-path="url(#z25842c14)" d="M466 549L498 582L473 687L427 761L346 814"/>
<path style="--d:15s;" pathLength="3333" clip-path="url(#z25842c15)" d="M534 677L612 778"/>
<path style="--d:16s;" pathLength="3333" clip-path="url(#z25842c16)" d="M737 298L843 249L887 284L807 439"/>
<path style="--d:17s;" pathLength="3333" clip-path="url(#z25842c17)" d="M800 435L885 489L933 591L921 654L889 687L801 642"/>
<path style="--d:18s;" pathLength="3333" clip-path="url(#z25842c18)" d="M667 261L713 309L713 974"/>
</svg>