<!--
AnimCJK 2016-2026 Copyright FM-SH - https://github.com/parsimonhi/animCJK
Derived from:
    MakeMeAHanzi project - https://github.com/skishore/makemeahanzi
    Arphic PL KaitiM GB font
    Arphic PL KaitiM Big5 font
You can redistribute and/or modify this file under the terms of the Arphic Public License
as published by Arphic Technology Co., Ltd.
You should have received a copy of this license along with this file.
If not, see https://ftp.gnu.org/non-gnu/chinese-fonts-truetype/LICENSE.
-->
<svg id="z25853" class="acjk" viewBox="0 0 1024 1024" xmlns="http://www.w3.org/2000/svg">
<style>
<![CDATA[
@keyframes zk {
	to {
		stroke-dashoffset:0;
	}
}
svg.acjk path[clip-path] {
	--t:0.8s;
	animation:zk var(--t) linear forwards var(--d);
	stroke-dasharray:3337;
	stroke-dashoffset:3339;
	stroke-width:128;
	stroke-linecap:round;
	fill:none;
	stroke:#000;
}
svg.acjk path[id] {fill:#ccc;}
]]>
</style>
<path id="z25853d1" d="M279 328C319 316 339 307 341 307C345 303 358 284 307 275C298 273 288 272 280 276C280 276 249 286 234 292C188 308 142 318 98 327C74 331 72 341 90 350C142 375 184 355 234 341C264 332 264 332 279 328Z"/>
<path id="z25853d2" d="M230 530C228 585 229 649 228 720C227 758 207 760 147 744C101 732 118 747 139 763C177 792 201 816 211 834C221 853 232 864 242 865C250 865 259 855 268 834C278 806 284 769 283 725C279 646 276 568 276 491C276 472 276 472 276 462C276 417 278 372 279 328C280 293 280 293 280 276C281 182 296 134 299 131C309 112 296 99 264 83C219 61 198 69 214 99C233 136 234 230 234 292C234 325 234 325 234 341C234 383 232 432 231 489C230 516 230 516 230 530Z"/>
<path id="z25853d3" d="M231 489C113 559 87 580 49 595C26 603 36 619 48 629C59 638 73 644 88 649C96 651 104 648 111 641C148 598 190 563 230 530C261 504 261 504 276 491C307 464 323 449 325 447C329 439 327 435 321 436C313 436 300 447 276 462C246 480 246 480 231 489Z"/>
<path id="z25853d4" d="M585 257C626 191 641 164 658 143C678 116 628 110 623 110C595 108 594 115 596 126C599 155 592 190 571 260C570 260 570 261 570 262C568 267 582 261 585 257Z"/>
<path id="z25853d5" d="M559 265C542 250 520 246 528 266C546 316 547 372 539 430C535 452 538 473 554 491C560 497 566 490 572 476C574 469 573 462 573 455C571 426 571 398 571 379C571 362 571 362 571 353C571 328 570 305 570 283C570 276 565 269 559 265Z"/>
<path id="z25853d6" d="M640 471C647 497 659 527 680 483C687 466 686 452 686 435C685 394 684 355 682 318C681 303 684 290 691 279C696 270 696 264 690 259C681 251 669 244 653 240C634 234 604 249 585 257C575 260 575 260 570 262C566 262 562 263 559 265C552 268 563 286 570 283C604 271 626 268 638 273C642 274 644 281 645 292C649 381 648 432 642 446C639 454 638 463 640 471Z"/>
<path id="z25853d7" d="M571 379C590 375 608 373 624 371C647 367 628 348 607 346C597 345 585 347 571 353C563 356 563 381 571 379Z"/>
<path id="z25853d8" d="M572 476C592 472 621 471 640 471C648 471 650 448 642 446C619 439 594 448 573 455C566 458 565 477 572 476Z"/>
<path id="z25853d9" d="M453 365C434 365 414 371 396 375C386 377 383 374 387 366C412 314 437 268 463 230C469 220 472 215 471 211C468 204 458 193 440 180C429 172 407 167 413 189C421 219 410 261 378 327C369 343 354 364 343 377C335 384 332 392 334 398C336 407 342 415 350 423C355 428 360 428 366 424C376 414 402 401 444 383C450 381 460 365 453 365Z"/>
<path id="z25853d10" d="M480 489C457 492 436 496 422 501C403 506 401 504 412 488C457 412 492 359 519 332C524 325 526 320 523 316C516 307 505 299 490 291C482 287 476 286 472 288C468 289 467 293 468 301C468 311 467 335 453 365C447 377 447 377 444 383C404 462 370 502 360 510C352 515 349 520 351 528C351 533 358 541 371 552C376 556 381 556 389 551C413 531 446 516 486 503C491 501 485 488 480 489Z"/>
<path id="z25853d11" d="M486 503C491 516 495 527 506 532C510 534 526 536 523 505C521 484 505 466 479 449C474 445 468 452 471 463C473 471 476 480 480 489C484 498 484 498 486 503Z"/>
<path id="z25853d12" d="M818 324C797 325 778 328 760 331C746 332 743 328 749 318C771 276 793 239 815 209C820 200 822 194 822 190C821 183 811 172 792 159C779 150 759 147 765 167C773 196 759 234 736 283C725 304 715 318 705 329C697 336 693 343 695 349C697 358 702 367 710 375C714 379 719 379 725 376C736 367 763 357 805 346C813 344 827 324 818 324Z"/>
<path id="z25853d13" d="M849 437C825 438 800 441 775 448C760 451 758 448 768 437C820 370 858 327 883 309C888 304 890 300 888 295C884 285 875 275 860 265C851 259 834 251 836 273C836 281 832 299 818 324C809 339 809 339 805 346C763 416 724 447 712 454C705 457 703 463 704 470C704 476 710 485 722 496C727 501 733 501 740 497C772 476 811 460 855 450C860 449 854 437 849 437Z"/>
<path id="z25853d14" d="M855 450C866 474 876 486 879 488C891 494 896 473 898 460C899 444 882 421 848 393C837 384 834 387 832 396C831 399 837 412 849 437C853 446 853 446 855 450Z"/>
<path id="z25853d15" d="M645 605C692 600 776 600 918 602C947 602 946 584 930 570C896 541 862 536 828 545C773 558 715 564 635 575C605 579 605 579 590 581C500 592 424 597 321 609C308 610 307 617 316 627C334 647 361 651 376 647C440 629 535 615 563 613C618 608 618 608 645 605Z"/>
<path id="z25853d16" d="M635 575C635 554 636 542 634 540C621 527 609 518 599 514C592 511 571 512 583 529C588 537 590 555 590 581C590 628 590 628 590 651C590 702 590 768 576 817C569 838 578 864 596 894C606 912 618 923 626 904C632 885 633 868 633 850C633 850 631 697 633 621C633 605 635 575 635 575Z"/>
<path id="z25853d17" d="M563 613C527 679 443 744 319 810C287 827 301 836 329 827C449 789 536 731 590 651C614 619 581 577 563 613Z"/>
<path id="z25853d18" d="M633 621C649 648 694 702 785 804C796 817 822 823 845 825C887 827 920 820 965 814C988 810 988 802 971 795C944 784 914 775 882 765C787 734 720 665 645 605C633 596 624 609 633 621Z"/>
<defs>
	<clipPath id="z25853c1"><use href="#z25853d1"/></clipPath>
	<clipPath id="z25853c2"><use href="#z25853d2"/></clipPath>
	<clipPath id="z25853c3"><use href="#z25853d3"/></clipPath>
	<clipPath id="z25853c4"><use href="#z25853d4"/></clipPath>
	<clipPath id="z25853c5"><use href="#z25853d5"/></clipPath>
	<clipPath id="z25853c6"><use href="#z25853d6"/></clipPath>
	<clipPath id="z25853c7"><use href="#z25853d7"/></clipPath>
	<clipPath id="z25853c8"><use href="#z25853d8"/></clipPath>
	<clipPath id="z25853c9"><use href="#z25853d9"/></clipPath>
	<clipPath id="z25853c10"><use href="#z25853d10"/></clipPath>
	<clipPath id="z25853c11"><use href="#z25853d11"/></clipPath>
	<clipPath id="z25853c12"><use href="#z25853d12"/></clipPath>
	<clipPath id="z25853c13"><use href="#z25853d13"/></clipPath>
	<clipPath id="z25853c14"><use href="#z25853d14"/></clipPath>
	<clipPath id="z25853c15"><use href="#z25853d15"/></clipPath>
	<clipPath id="z25853c16"><use href="#z25853d16"/></clipPath>
	<clipPath id="z25853c17"><use href="#z25853d17"/></clipPath>
	<clipPath id="z25853c18"><use href="#z25853d18"/></clipPath>
</defs>
<path style="--d:1s;" pathLength="3333" clip-path="url(#z25853c1)" d="M85 336L341 293"/>
<path style="--d:2s;" pathLength="3333" clip-path="url(#z25853c2)" d="M216 79L263 127L252 757L220 812L124 745"/>
<path style="--d:3s;" pathLength="3333" clip-path="url(#z25853c3)" d="M38 607L93 612L320 442"/>
<path style="--d:4s;" pathLength="3333" clip-path="url(#z25853c4)" d="M602 118L628 151L578 256"/>
<path style="--d:5s;" pathLength="3333" clip-path="url(#z25853c5)" d="M534 257L555 309L556 487"/>
<path style="--d:6s;" pathLength="3333" clip-path="url(#z25853c6)" d="M562 270L637 255L667 270L663 501"/>
<path style="--d:7s;" pathLength="3333" clip-path="url(#z25853c7)" d="M572 369L627 360"/>
<path style="--d:8s;" pathLength="3333" clip-path="url(#z25853c8)" d="M575 467L643 455"/>
<path style="--d:9s;" pathLength="3333" clip-path="url(#z25853c9)" d="M420 178L442 218L360 388L448 371"/>
<path style="--d:10s;" pathLength="3333" clip-path="url(#z25853c10)" d="M474 293L493 331L380 515L397 528L478 497"/>
<path style="--d:11s;" pathLength="3333" clip-path="url(#z25853c11)" d="M477 457L509 526"/>
<path style="--d:12s;" pathLength="3333" clip-path="url(#z25853c12)" d="M773 162L792 204L722 338L733 354L813 331"/>
<path style="--d:13s;" pathLength="3333" clip-path="url(#z25853c13)" d="M845 265L858 300L733 459L749 474L849 444"/>
<path style="--d:14s;" pathLength="3333" clip-path="url(#z25853c14)" d="M840 397L883 485"/>
<path style="--d:15s;" pathLength="3333" clip-path="url(#z25853c15)" d="M316 618L837 571L936 585"/>
<path style="--d:16s;" pathLength="3333" clip-path="url(#z25853c16)" d="M588 521L612 552L611 910"/>
<path style="--d:17s;" pathLength="3333" clip-path="url(#z25853c17)" d="M580 604L504 714L306 824"/>
<path style="--d:18s;" pathLength="3333" clip-path="url(#z25853c18)" d="M636 609L806 774L976 804"/>
</svg>