<!--
AnimCJK 2016-2019 Copyright Francois Mizessyn - https://github.com/parsimonhi/animCJK
Derived from:
    MakeMeAHanzi project - https://github.com/skishore/makemeahanzi
    Arphic PL KaitiM GB font
    Arphic PL UKai font
You can redistribute and/or modify this file under the terms of the Arphic Public License
as published by Arphic Technology Co., Ltd.
You should have received a copy of this license along with this file.
If not, see http://ftp.gnu.org/non-gnu/chinese-fonts-truetype/LICENSE.
-->
<svg id="z25918" class="acjk" version="1.1" viewBox="0 0 1024 1024" xmlns="http://www.w3.org/2000/svg" xmlns:xlink="http://www.w3.org/1999/xlink">
<style>
<![CDATA[
@keyframes zk {
	to {
		stroke-dashoffset:0;
	}
}
svg.acjk path[clip-path] {
	--t:0.8s;
	animation:zk var(--t) linear forwards var(--d);
	stroke-dasharray:3337;
	stroke-dashoffset:3339;
	stroke-width:128;
	stroke-linecap:round;
	fill:none;
	stroke:#000;
}
svg.acjk path[id] {fill:#ccc;}
]]>
</style>
<path id="z25918d1" d="M325 167C350 184 375 204 403 226C415 235 426 239 439 238C447 236 453 231 456 220C458 207 454 189 446 167C436 143 393 124 314 111C301 108 292 108 288 112C283 115 281 123 285 133C287 142 302 152 325 167Z"/>
<path id="z25918d2" d="M348 395C364 391 414 379 498 368C504 367 514 366 518 356C521 347 509 341 494 333C470 320 440 322 399 334C321 355 232 372 132 390C111 393 108 400 125 412C150 429 172 434 190 430C224 421 261 414 303 405C333 398 333 398 348 395Z"/>
<path id="z25918d3" d="M330 520C340 524 357 530 381 537C398 541 411 548 416 559C423 576 409 632 374 726C358 768 340 792 322 799C310 803 288 797 257 783C234 772 220 769 218 774C214 779 219 786 230 794C254 810 276 833 290 866C294 877 298 886 307 890C315 893 331 889 351 875C386 848 416 782 444 681C457 630 469 598 486 589C493 584 499 582 500 577C501 570 494 558 481 542C461 519 443 513 400 509C388 507 354 497 346 492C337 486 320 516 330 520Z"/>
<path id="z25918d4" d="M346 492C356 474 365 460 373 451C378 444 377 435 372 426C364 413 356 403 348 395C337 384 300 390 303 405C316 448 259 585 77 777C61 792 52 801 52 808C52 810 53 813 57 813C97 807 158 750 237 657C273 613 307 559 330 520C341 501 341 501 346 492Z"/>
<path id="z25918d5" d="M603 375C634 330 655 282 670 236C682 195 695 158 709 126C713 115 711 104 699 98C663 79 637 76 622 83C614 86 612 91 616 102C642 175 604 292 553 386C548 393 532 418 511 455C504 465 509 469 520 465C535 457 558 438 584 402C597 384 597 384 603 375Z"/>
<path id="z25918d6" d="M719 401C833 373 890 356 892 355C898 348 899 342 896 337C890 328 876 322 856 318C837 314 794 328 722 350C682 361 642 366 603 375C592 377 574 398 584 402C614 414 646 418 681 410C706 404 706 404 719 401Z"/>
<path id="z25918d7" d="M697 686C721 639 745 563 759 480C761 463 764 450 769 444C772 438 774 433 770 427C760 414 743 406 719 401C706 398 679 397 681 410C682 415 684 422 692 440C697 453 701 472 700 497C699 521 684 593 661 645C655 658 647 669 640 682C613 726 548 772 456 818C439 826 441 830 461 831C501 832 548 822 595 791C618 775 644 755 669 727C680 714 689 700 697 686Z"/>
<path id="z25918d8" d="M669 727C695 768 730 806 765 849C776 862 789 869 807 873C842 880 914 883 960 883C984 882 995 879 994 873C993 870 983 862 961 853C845 801 762 753 715 705C708 698 702 692 697 686C673 659 673 659 661 645C642 623 625 600 608 577C588 550 567 535 545 532C534 530 527 529 525 533C522 537 526 543 536 551C560 570 596 614 640 682C659 712 659 712 669 727Z"/>
<defs>
	<clipPath id="z25918c1"><use xlink:href="#z25918d1"/></clipPath>
	<clipPath id="z25918c2"><use xlink:href="#z25918d2"/></clipPath>
	<clipPath id="z25918c3"><use xlink:href="#z25918d3"/></clipPath>
	<clipPath id="z25918c4"><use xlink:href="#z25918d4"/></clipPath>
	<clipPath id="z25918c5"><use xlink:href="#z25918d5"/></clipPath>
	<clipPath id="z25918c6"><use xlink:href="#z25918d6"/></clipPath>
	<clipPath id="z25918c7"><use xlink:href="#z25918d7"/></clipPath>
	<clipPath id="z25918c8"><use xlink:href="#z25918d8"/></clipPath>
</defs>
<path style="--d:1s;" pathLength="3333" clip-path="url(#z25918c1)" d="M288 118L401 175L445 231"/>
<path style="--d:2s;" pathLength="3333" clip-path="url(#z25918c2)" d="M123 399L180 406L512 347"/>
<path style="--d:3s;" pathLength="3333" clip-path="url(#z25918c3)" d="M335 516L433 537L458 573L392 754L356 817L311 845L222 780"/>
<path style="--d:4s;" pathLength="3333" clip-path="url(#z25918c4)" d="M309 408L339 449L284 552L169 705L58 803"/>
<path style="--d:5s;" pathLength="3333" clip-path="url(#z25918c5)" d="M622 89L668 132L642 242L517 460"/>
<path style="--d:6s;" pathLength="3333" clip-path="url(#z25918c6)" d="M591 398L893 340"/>
<path style="--d:7s;" pathLength="3333" clip-path="url(#z25918c7)" d="M689 413L734 444L678 667L609 752L455 825"/>
<path style="--d:8s;" pathLength="3333" clip-path="url(#z25918c8)" d="M534 538L795 819L985 873"/>
</svg>