<!--
AnimCJK 2016-2017 Copyright Francois Mizessyn, http://gooo.free.fr/animCJK/
Derived from:
    MakeMeAHanzi project - https://github.com/skishore/makemeahanzi
    Arphic PL KaitiM GB - https://apps.ubuntu.com/cat/applications/precise/fonts-arphic-gkai00mp/
    Arphic PL UKai - https://apps.ubuntu.com/cat/applications/fonts-arphic-ukai/
You can redistribute and/or modify this file under the terms of the Arphic Public License
as published by Arphic Technology Co., Ltd.
You should have received a copy of this license (the directory "APL") along with this file;
if not, see http://ftp.gnu.org/non-gnu/chinese-fonts-truetype/LICENSE.
-->
<svg id="z25975" class="acjk" version="1.1" viewBox="0 0 1024 1024" xmlns="http://www.w3.org/2000/svg" xmlns:xlink="http://www.w3.org/1999/xlink">
<style>
<![CDATA[
	@keyframes z25975k {
		from {
			stroke:#c00;
			stroke-dashoffset:3000;
		}
		75% {
			stroke:#c00;
			stroke-dashoffset:0;
		}
		to {
			stroke:#000;
		}
	}
	#z25975 path[clip-path] {
		animation:z25975k 1s linear both;
		stroke-dasharray:3000;
		stroke-width:128;
		stroke-linecap:round;
		fill:none;
	}
	#z25975 path[clip-path="url(#z25975c1)"] {animation-delay:1s;}
	#z25975 path[clip-path="url(#z25975c2)"] {animation-delay:2s;}
	#z25975 path[clip-path="url(#z25975c3)"] {animation-delay:3s;}
	#z25975 path[clip-path="url(#z25975c4)"] {animation-delay:4s;}
	#z25975 path[clip-path="url(#z25975c5)"] {animation-delay:5s;}
	#z25975 path[clip-path="url(#z25975c6)"] {animation-delay:6s;}
	#z25975 path[clip-path="url(#z25975c7)"] {animation-delay:7s;}
	#z25975 path[clip-path="url(#z25975c8)"] {animation-delay:8s;}
	#z25975 path[clip-path="url(#z25975c9)"] {animation-delay:9s;}
	#z25975 path[clip-path="url(#z25975c10)"] {animation-delay:10s;}
	#z25975 path[clip-path="url(#z25975c11)"] {animation-delay:11s;}
	#z25975 path[clip-path="url(#z25975c12)"] {animation-delay:12s;}
	#z25975 path[clip-path="url(#z25975c13)"] {animation-delay:13s;}
	#z25975 path[clip-path="url(#z25975c14)"] {animation-delay:14s;}
	#z25975 path[clip-path="url(#z25975c15)"] {animation-delay:15s;}
	#z25975 path {fill:#ccc;}
]]>
</style>
<g transform="scale(1,-1) translate(0,-900)">
	<path id="z25975d1" d="M366 696Q394 704 427 711Q457 719 462 724Q469 731 466 738Q458 748 433 753Q400 758 368 740L316 723Q312 723 308 722Q266 710 215 703Q184 696 207 683Q238 668 304 681Q311 683 321 685L366 696Z"/>
	<path id="z25975d2" d="M192 603C176 617 159 625 141 627C137 627 134 626 132 623C129 618 129 612 133 606C155 572 166 511 166 424C165 410 168 397 174 386C182 375 192 366 202 360C210 355 215 356 217 363C225 371 224 400 216 452C207 510 202 549 202 571Z"/>
	<path id="z25975d3" d="M367 611C441 629 454 627 468 621C474 618 476 606 474 586C464 510 456 464 451 450C446 437 446 425 451 415C455 404 461 399 470 401C478 403 485 409 490 419C497 437 504 458 516 508C524 542 541 568 561 592C571 604 573 613 562 624C549 634 534 648 501 664C492 668 472 668 421 655C413 655 278 622 270 620C235 611 216 608 192 603L202 571C206 571 211 571 217 573C239 581 344 606 367 611Z"/>
	<path id="z25975d4" d="M344 507C366 513 389 518 413 522C427 524 431 529 425 537C418 545 407 550 392 552C379 552 363 550 345 544L300 528C279 521 259 514 241 508C232 505 234 499 246 491C248 489 266 491 300 497Z"/>
	<path id="z25975d5" d="M222 385C222 393 222 404 221 416C279 433 329 440 387 455C411 460 428 460 451 450L451 450C446 437 448 426 452 415C382 405 320 397 250 387C237 385 235 386 222 385Z"/>
	<path id="z25975d6" d="M317 438C316 447 316 457 316 469L320 570C320 584 321 597 321 609L321 637C320 655 320 672 320 688L317 724C309 767 300 795 292 809C284 818 283 825 290 830C304 835 318 835 331 831C349 823 362 815 371 807C378 800 379 790 375 779C371 769 369 756 369 739L366 697C364 679 364 663 364 647L363 618C362 607 361 596 361 584L356 477C354 465 353 455 352 446C340 443 329 440 317 438Z"/>
	<path id="z25975d7" d="M456 780Q508 735 521 736Q530 737 533 748Q537 761 528 785Q519 806 450 819Q437 820 432 819Q428 815 430 805Q433 796 456 780Z"/>
	<path id="z25975d8" d="M358 329C358 335 357 344 355 355C351 367 330 377 293 385C285 387 279 388 276 386C273 384 272 379 273 373C275 368 282 360 296 348C304 339 313 330 322 320Z"/>
	<path id="z25975d9" d="M352 290Q421 306 506 320Q522 323 522 330Q523 342 506 350Q481 360 458 355Q403 342 358 329L322 320Q183 287 100 277Q87 276 85 268Q82 258 97 247Q136 223 173 236Q243 261 298 276L352 290Z"/>
	<path id="z25975d10" d="M344 238Q356 234 380 228Q402 222 411 208Q420 190 381 99Q363 63 348 58Q336 54 289 71Q258 83 254 78Q250 69 265 61Q310 31 321 -3Q325 -18 335 -23Q347 -27 375 -9Q415 24 444 122Q456 168 474 182Q484 186 485 193Q486 200 468 224Q443 254 395 254Q383 257 368 261Q367 262 365 261L344 238Z"/>
	<path id="z25975d11" d="M365 261Q366 264 366 268Q365 277 352 290L298 276Q259 171 128 62Q107 46 81 25Q74 22 83 19Q129 19 235 109Q242 118 251 125Q287 162 344 238L365 261Z"/>
	<path id="z25975d12" d="M619 497Q655 560 689 651Q702 694 718 716Q725 729 718 741Q711 753 678 770Q647 782 629 778Q610 772 623 752Q641 730 636 705Q623 626 593 548Q565 473 520 388Q513 376 512 369Q511 357 524 363Q528 366 537 374L553 393Q580 424 606 472L619 497Z"/>
	<path id="z25975d13" d="M722 473Q887 516 892 521Q901 528 895 537Q888 547 860 554Q830 558 802 545Q762 530 718 517Q672 505 619 497L606 472Q642 457 684 464L722 473Z"/>
	<path id="z25975d14" d="M652 218Q607 152 529 105Q505 93 476 77Q452 64 481 65Q560 62 651 136Q675 167 681 173L711 224Q738 281 759 399Q762 423 768 433Q775 440 769 450Q757 465 722 473L684 464Q684 461 687 457Q711 382 674 265L652 218Z"/>
	<path id="z25975d15" d="M537 374Q541 370 547 364Q571 349 652 218L681 173Q721 115 787 43Q815 15 862 19Q923 23 968 25Q981 26 996 30Q1005 37 993 47Q978 57 856 112Q780 146 711 224L674 265Q640 308 603 359Q587 384 553 393L537 374Z"/>
	<defs>
		<clipPath id="z25975c1"><use xlink:href="#z25975d1"/></clipPath>
		<clipPath id="z25975c2"><use xlink:href="#z25975d2"/></clipPath>
		<clipPath id="z25975c3"><use xlink:href="#z25975d3"/></clipPath>
		<clipPath id="z25975c4"><use xlink:href="#z25975d4"/></clipPath>
		<clipPath id="z25975c5"><use xlink:href="#z25975d5"/></clipPath>
		<clipPath id="z25975c6"><use xlink:href="#z25975d6"/></clipPath>
		<clipPath id="z25975c7"><use xlink:href="#z25975d7"/></clipPath>
		<clipPath id="z25975c8"><use xlink:href="#z25975d8"/></clipPath>
		<clipPath id="z25975c9"><use xlink:href="#z25975d9"/></clipPath>
		<clipPath id="z25975c10"><use xlink:href="#z25975d10"/></clipPath>
		<clipPath id="z25975c11"><use xlink:href="#z25975d11"/></clipPath>
		<clipPath id="z25975c12"><use xlink:href="#z25975d12"/></clipPath>
		<clipPath id="z25975c13"><use xlink:href="#z25975d13"/></clipPath>
		<clipPath id="z25975c14"><use xlink:href="#z25975d14"/></clipPath>
		<clipPath id="z25975c15"><use xlink:href="#z25975d15"/></clipPath>
	</defs>
	<path pathLength="2999" clip-path="url(#z25975c1)" d="M206 693L460 737"/>
	<path pathLength="2999" clip-path="url(#z25975c2)" d="M138 617L175 572L208 364"/>
	<path pathLength="2999" clip-path="url(#z25975c3)" d="M200 595L434 642L496 636L521 601L465 406"/>
	<path pathLength="2999" clip-path="url(#z25975c4)" d="M245 500L422 534"/>
	<path pathLength="2999" clip-path="url(#z25975c5)" d="M229 393L449 431"/>
	<path pathLength="2999" clip-path="url(#z25975c6)" d="M294 824L341 786L329 443"/>
	<path pathLength="2999" clip-path="url(#z25975c7)" d="M436 811L525 742"/>
	<path pathLength="2999" clip-path="url(#z25975c8)" d="M278 378L339 325"/>
	<path pathLength="2999" clip-path="url(#z25975c9)" d="M88 268L156 259L517 332"/>
	<path pathLength="2999" clip-path="url(#z25975c10)" d="M356 243L425 229L448 194L395 67L336 17L260 71"/>
	<path pathLength="2999" clip-path="url(#z25975c11)" d="M360 277L319 254L201 104L87 24"/>
	<path pathLength="2999" clip-path="url(#z25975c12)" d="M625 772L679 718L594 493L519 369"/>
	<path pathLength="2999" clip-path="url(#z25975c13)" d="M611 477L891 535"/>
	<path pathLength="2999" clip-path="url(#z25975c14)" d="M692 459L733 427L678 215L587 118L476 71"/>
	<path pathLength="2999" clip-path="url(#z25975c15)" d="M547 373L583 355L802 90L993 39"/>
</g>
</svg>