<!--
AnimCJK 2016-2019 Copyright Francois Mizessyn - https://github.com/parsimonhi/animCJK
Derived from:
    MakeMeAHanzi project - https://github.com/skishore/makemeahanzi
    Arphic PL KaitiM GB font
    Arphic PL UKai font
You can redistribute and/or modify this file under the terms of the Arphic Public License
as published by Arphic Technology Co., Ltd.
You should have received a copy of this license along with this file.
If not, see http://ftp.gnu.org/non-gnu/chinese-fonts-truetype/LICENSE.
-->
<svg id="z26017" class="acjk" version="1.1" viewBox="0 0 1024 1024" xmlns="http://www.w3.org/2000/svg" xmlns:xlink="http://www.w3.org/1999/xlink">
<style>
<![CDATA[
@keyframes zk {
	to {
		stroke-dashoffset:0;
	}
}
svg.acjk path[clip-path] {
	--t:0.8s;
	animation:zk var(--t) linear forwards var(--d);
	stroke-dasharray:3337;
	stroke-dashoffset:3339;
	stroke-width:128;
	stroke-linecap:round;
	fill:none;
	stroke:#000;
}
svg.acjk path[id] {fill:#ccc;}
]]>
</style>
<path id="z26017d1" d="M347 220Q467 187 468 186Q475 179 471 171Q464 161 437 154Q415 151 357 172C318 184 318 184 299 190Q250 202 191 210Q158 217 182 231Q215 247 286 234Q290 233 296 232C330 224 330 224 347 220Z"/>
<path id="z26017d2" d="M328 309Q338 263 347 220C354 188 354 188 357 172Q358 151 378 105Q382 95 365 80Q335 59 314 53Q301 49 292 55Q285 62 290 76Q303 98 302 113Q301 150 299 190C297 218 297 218 296 232Q292 272 287 318C285 332 325 323 328 309Z"/>
<path id="z26017d3" d="M186 342Q174 338 145 332Q135 328 131 333Q124 339 133 354Q161 415 177 515Q180 545 197 565Q213 586 218 571Q222 561 222 544C221 530 221 530 221 523Q220 514 219 506Q215 482 211 463C208 448 208 448 207 441Q200 390 198 371C196 361 196 344 186 342Z"/>
<path id="z26017d4" d="M356 524Q371 546 385 554Q395 561 408 542Q420 520 446 404Q453 376 473 354Q483 344 474 331Q461 316 422 294Q410 288 333 307Q330 307 328 309C301 315 301 315 287 318Q265 322 241 329Q211 336 186 342C176 344 188 375 198 371Q256 352 359 333Q383 329 391 336Q401 349 400 363Q381 472 373 489Q369 498 360 502C354 506 352 518 356 524Z"/>
<path id="z26017d5" d="M211 463Q214 463 223 462Q290 447 341 438Q362 434 353 423Q343 410 320 408Q293 407 207 441C200 444 204 463 211 463Z"/>
<path id="z26017d6" d="M313 530Q334 526 356 524C363 523 366 506 360 502Q353 496 341 495Q316 494 221 523C214 525 215 544 222 544Q223 544 227 544Q251 540 275 536C300 532 300 532 313 530Z"/>
<path id="z26017d7" d="M326 651Q374 638 437 627Q453 623 455 616Q455 603 436 594Q405 582 328 606C296 614 296 614 280 618Q124 655 64 664Q51 665 48 674Q45 684 61 696Q103 723 145 707Q223 677 279 663C310 655 310 655 326 651Z"/>
<path id="z26017d8" d="M279 663Q279 754 266 795Q253 843 301 893C302 894 302 894 303 894Q313 895 318 884Q330 856 327 828Q326 731 326 651C327 621 327 621 328 606Q329 575 332 559Q333 549 328 542Q321 535 313 530C302 523 271 524 275 536Q281 551 280 618C279 648 279 648 279 663Z"/>
<path id="z26017d9" d="M672 181Q693 138 711 120Q718 110 714 98Q710 88 683 69Q659 54 642 55Q626 58 634 77Q647 101 639 123Q615 196 576 265Q537 331 484 405Q477 414 474 420Q473 430 484 427Q536 411 651 220Q655 211 661 202C668 188 668 188 672 181Z"/>
<path id="z26017d10" d="M661 202Q680 241 813 391Q829 407 855 404Q940 397 967 390Q974 387 976 383Q976 379 965 373Q848 331 781 276Q732 236 676 184Q675 181 672 181C666 176 657 195 661 202Z"/>
<path id="z26017d11" d="M563 446Q584 459 605 477Q615 484 627 483Q634 482 637 472Q640 460 630 440Q621 419 555 412Q545 411 540 414Q536 417 539 426Q542 433 563 446Z"/>
<path id="z26017d12" d="M538 536Q557 549 577 567Q587 576 599 575Q606 574 609 564Q612 552 604 532Q600 519 577 510Q520 498 516 502Q512 505 514 514Q517 521 538 536Z"/>
<path id="z26017d13" d="M722 643Q789 634 889 634Q908 633 912 625Q916 613 901 601Q847 565 789 583Q759 589 722 599C687 606 687 606 670 609Q661 610 652 612Q561 628 451 647Q432 650 446 665Q459 677 477 682Q496 686 511 681Q580 660 669 649C704 645 704 645 722 643Z"/>
<path id="z26017d14" d="M670 935Q676 960 682 969Q688 976 695 974Q713 962 716 907Q716 889 722 643C722 614 722 614 722 599Q722 449 736 397Q739 379 725 370Q694 348 678 346Q665 342 650 350Q641 357 648 368Q669 413 671 489Q671 541 670 609C669 636 669 636 669 649Q663 868 670 935Z"/>
<defs>
	<clipPath id="z26017c1"><use xlink:href="#z26017d1"/></clipPath>
	<clipPath id="z26017c2"><use xlink:href="#z26017d2"/></clipPath>
	<clipPath id="z26017c3"><use xlink:href="#z26017d3"/></clipPath>
	<clipPath id="z26017c4"><use xlink:href="#z26017d4"/></clipPath>
	<clipPath id="z26017c5"><use xlink:href="#z26017d5"/></clipPath>
	<clipPath id="z26017c6"><use xlink:href="#z26017d6"/></clipPath>
	<clipPath id="z26017c7"><use xlink:href="#z26017d7"/></clipPath>
	<clipPath id="z26017c8"><use xlink:href="#z26017d8"/></clipPath>
	<clipPath id="z26017c9"><use xlink:href="#z26017d9"/></clipPath>
	<clipPath id="z26017c10"><use xlink:href="#z26017d10"/></clipPath>
	<clipPath id="z26017c11"><use xlink:href="#z26017d11"/></clipPath>
	<clipPath id="z26017c12"><use xlink:href="#z26017d12"/></clipPath>
	<clipPath id="z26017c13"><use xlink:href="#z26017d13"/></clipPath>
	<clipPath id="z26017c14"><use xlink:href="#z26017d14"/></clipPath>
</defs>
<path style="--d:1s;" pathLength="3333" clip-path="url(#z26017c1)" d="M180 219L467 176"/>
<path style="--d:2s;" pathLength="3333" clip-path="url(#z26017c2)" d="M296 60L340 106L294 310"/>
<path style="--d:3s;" pathLength="3333" clip-path="url(#z26017c3)" d="M136 338L172 380L206 572"/>
<path style="--d:4s;" pathLength="3333" clip-path="url(#z26017c4)" d="M193 344L394 313L435 339L380 548"/>
<path style="--d:5s;" pathLength="3333" clip-path="url(#z26017c5)" d="M220 456L347 426"/>
<path style="--d:6s;" pathLength="3333" clip-path="url(#z26017c6)" d="M225 536L356 513"/>
<path style="--d:7s;" pathLength="3333" clip-path="url(#z26017c7)" d="M51 674L116 684L449 608"/>
<path style="--d:8s;" pathLength="3333" clip-path="url(#z26017c8)" d="M283 545L306 577L304 890"/>
<path style="--d:9s;" pathLength="3333" clip-path="url(#z26017c9)" d="M641 62L677 115L588 284L482 422"/>
<path style="--d:10s;" pathLength="3333" clip-path="url(#z26017c10)" d="M678 191L843 364L968 380"/>
<path style="--d:11s;" pathLength="3333" clip-path="url(#z26017c11)" d="M548 422L627 479"/>
<path style="--d:12s;" pathLength="3333" clip-path="url(#z26017c12)" d="M518 509L600 568"/>
<path style="--d:13s;" pathLength="3333" clip-path="url(#z26017c13)" d="M450 658L815 606L909 619"/>
<path style="--d:14s;" pathLength="3333" clip-path="url(#z26017c14)" d="M652 356L698 394L691 968"/>
</svg>