<!--
AnimCJK 2016-2025 Copyright FM-SH - https://github.com/parsimonhi/animCJK
Derived from:
    MakeMeAHanzi project - https://github.com/skishore/makemeahanzi
    Arphic PL KaitiM GB font
    Arphic PL KaitiM Big5 font
You can redistribute and/or modify this file under the terms of the Arphic Public License
as published by Arphic Technology Co., Ltd.
You should have received a copy of this license along with this file.
If not, see https://ftp.gnu.org/non-gnu/chinese-fonts-truetype/LICENSE.
-->
<svg id="z26157" class="acjk" viewBox="0 0 1024 1024" xmlns="http://www.w3.org/2000/svg">
<style>
<![CDATA[
@keyframes zk {
	to {
		stroke-dashoffset:0;
	}
}
svg.acjk path[clip-path] {
	--t:0.8s;
	animation:zk var(--t) linear forwards var(--d);
	stroke-dasharray:3337;
	stroke-dashoffset:3339;
	stroke-width:128;
	stroke-linecap:round;
	fill:none;
	stroke:#000;
}
svg.acjk path[id] {fill:#ccc;}
]]>
</style>
<path id="z26157d1" d="M187 216C178 207 165 200 152 196C144 192 136 191 130 195C118 201 132 228 137 238C153 275 161 400 144 595C141 623 135 662 128 688C116 725 124 758 149 790C154 797 163 799 171 791C179 780 183 767 185 753C186 743 186 733 187 723C187 590 191 524 192 490C193 467 193 467 193 455C194 386 196 263 201 247C203 236 196 223 187 216Z"/>
<path id="z26157d2" d="M307 742C312 752 316 773 326 789C350 831 371 794 381 771C392 743 388 711 386 675C380 602 377 487 375 329C374 288 379 256 391 236C398 222 399 213 394 205C389 198 368 190 332 178C314 172 300 172 287 179C251 196 217 208 187 216C176 220 190 251 201 247C223 239 249 233 269 227C324 208 324 274 325 305C327 458 326 580 319 671C318 683 318 712 311 719C307 726 304 735 307 742Z"/>
<path id="z26157d3" d="M192 490C228 484 258 480 284 475C300 471 305 463 298 456C289 447 276 441 258 440C241 438 219 444 193 455C182 459 181 492 192 490Z"/>
<path id="z26157d4" d="M185 753C220 749 275 744 307 742C315 742 317 724 311 719C277 690 217 710 187 723C177 726 175 755 185 753Z"/>
<path id="z26157d5" d="M610 240C662 225 711 214 755 208C792 199 786 242 784 263C776 331 764 381 748 412C736 432 719 442 704 439C684 435 671 428 659 423C640 416 637 422 651 439C677 468 695 492 711 516C720 530 734 530 748 520C788 490 822 424 837 317C843 267 849 230 866 211C873 201 876 192 872 187C864 176 842 166 810 153C794 146 782 149 769 158C754 167 716 177 656 193C595 208 540 218 490 222C478 222 467 225 469 232C473 247 499 262 515 261C531 260 556 254 574 250C598 243 598 243 610 240Z"/>
<path id="z26157d6" d="M574 250C592 300 548 408 437 545C434 548 430 548 431 556C431 559 433 561 437 561C485 549 548 481 618 355C621 348 639 314 648 301C652 293 650 284 646 276C634 258 624 248 610 240C599 234 572 238 574 250Z"/>
<path id="z26157d7" d="M480 603C474 601 467 600 462 599C453 596 448 597 445 601C440 606 441 613 447 626C469 672 487 734 499 813C502 835 508 855 522 871C554 909 551 858 551 828C550 815 548 802 546 790C535 730 525 662 523 641C520 622 499 607 480 603Z"/>
<path id="z26157d8" d="M794 762C810 695 832 652 856 630C868 618 869 602 858 591C846 580 821 568 783 551C770 544 756 545 740 552C635 594 548 611 480 603C461 600 504 645 523 641C663 607 740 595 752 606C764 617 759 668 738 756C734 774 790 780 794 762Z"/>
<path id="z26157d9" d="M551 828C563 829 597 818 809 802C817 801 822 797 823 791C823 785 813 775 794 762C779 751 756 752 738 756C672 769 604 782 546 790C533 792 538 828 551 828Z"/>
<defs>
	<clipPath id="z26157c1"><use href="#z26157d1"/></clipPath>
	<clipPath id="z26157c2"><use href="#z26157d2"/></clipPath>
	<clipPath id="z26157c3"><use href="#z26157d3"/></clipPath>
	<clipPath id="z26157c4"><use href="#z26157d4"/></clipPath>
	<clipPath id="z26157c5"><use href="#z26157d5"/></clipPath>
	<clipPath id="z26157c6"><use href="#z26157d6"/></clipPath>
	<clipPath id="z26157c7"><use href="#z26157d7"/></clipPath>
	<clipPath id="z26157c8"><use href="#z26157d8"/></clipPath>
	<clipPath id="z26157c9"><use href="#z26157d9"/></clipPath>
</defs>
<path style="--d:1s;" pathLength="3333" clip-path="url(#z26157c1)" d="M132 198L172 260L161 789"/>
<path style="--d:2s;" pathLength="3333" clip-path="url(#z26157c2)" d="M187 226L307 199L357 231L342 802"/>
<path style="--d:3s;" pathLength="3333" clip-path="url(#z26157c3)" d="M187 480L294 460"/>
<path style="--d:4s;" pathLength="3333" clip-path="url(#z26157c4)" d="M183 743L310 726"/>
<path style="--d:5s;" pathLength="3333" clip-path="url(#z26157c5)" d="M477 232L570 231L781 178L818 195L806 323L767 443L720 483L649 427"/>
<path style="--d:6s;" pathLength="3333" clip-path="url(#z26157c6)" d="M580 243L613 291L585 360L439 555"/>
<path style="--d:7s;" pathLength="3333" clip-path="url(#z26157c7)" d="M450 609L494 656L538 879"/>
<path style="--d:8s;" pathLength="3333" clip-path="url(#z26157c8)" d="M484 609L529 622L777 583L812 618L763 771"/>
<path style="--d:9s;" pathLength="3333" clip-path="url(#z26157c9)" d="M542 801L818 787"/>
</svg>