<!--
AnimCJK 2016-2018 Copyright Francois Mizessyn, https://github.com/parsimonhi/animCJK
Derived from:
    MakeMeAHanzi project - https://github.com/skishore/makemeahanzi
    Arphic PL KaitiM GB - https://apps.ubuntu.com/cat/applications/precise/fonts-arphic-gkai00mp/
    Arphic PL UKai - https://apps.ubuntu.com/cat/applications/fonts-arphic-ukai/
You can redistribute and/or modify this file under the terms of the Arphic Public License
as published by Arphic Technology Co., Ltd.
You should have received a copy of this license (the directory "APL") along with this file;
if not, see http://ftp.gnu.org/non-gnu/chinese-fonts-truetype/LICENSE.
-->
<svg id="z26164" class="acjk" version="1.1" viewBox="0 0 1024 1024" xmlns="http://www.w3.org/2000/svg" xmlns:xlink="http://www.w3.org/1999/xlink">
<style>
<![CDATA[
@keyframes z26164k {
	from {
		stroke:#c00;
		stroke-dashoffset:3334;
	}
	75% {
		stroke:#c00;
		stroke-dashoffset:0;
	}
	to {
		stroke:#000;
	}
}
#z26164 path[clip-path] {
	animation:z26164k 1s linear both;
	stroke-dasharray:3334;
	stroke-width:128;
	stroke-linecap:round;
	fill:none;
}
#z26164 path[clip-path="url(#z26164c1)"] {animation-delay:1s;}
#z26164 path[clip-path="url(#z26164c2)"] {animation-delay:2s;}
#z26164 path[clip-path="url(#z26164c3)"] {animation-delay:3s;}
#z26164 path[clip-path="url(#z26164c4)"] {animation-delay:4s;}
#z26164 path[clip-path="url(#z26164c5)"] {animation-delay:5s;}
#z26164 path[clip-path="url(#z26164c6)"] {animation-delay:6s;}
#z26164 path[clip-path="url(#z26164c7)"] {animation-delay:7s;}
#z26164 path[clip-path="url(#z26164c8)"] {animation-delay:8s;}
#z26164 path[clip-path="url(#z26164c9)"] {animation-delay:9s;}
#z26164 path {fill:#ccc;}
]]>
</style>
<path id="z26164d1" d="M358 109Q346 105 321 99Q308 95 305 101Q298 107 307 123Q338 196 354 313Q357 347 376 372Q394 394 399 379Q402 369 403 355L403 330Q402 317 400 302Q396 278 392 258L387 231Q377 170 375 144L358 109 Z"/>
<path id="z26164d2" d="M610 334Q611 338 613 343Q619 361 632 359Q647 358 655 342Q668 324 695 236Q713 181 752 151Q773 135 756 117Q737 99 685 70Q673 61 594 75Q557 75 441 96Q395 103 358 109L375 144Q374 143 377 143Q447 124 609 109Q637 108 647 113Q657 120 652 154Q622 301 613 311L610 334 Z"/>
<path id="z26164d3" d="M392 258Q398 258 406 257Q505 239 578 228Q602 224 593 212Q583 197 557 193Q533 190 387 231L392 258 Z"/>
<path id="z26164d4" d="M403 355Q409 356 422 355Q528 342 606 334Q607 333 610 334L613 311Q579 286 426 325Q414 326 403 330L403 355 Z"/>
<path id="z26164d5" d="M270 514Q346 480 387 468Q403 467 402 457Q399 442 386 422Q373 403 354 397Q341 394 338 411Q335 432 252 498L270 514 Z"/>
<path id="z26164d6" d="M404 607Q349 632 296 656Q277 665 268 658Q264 657 264 645Q268 593 269 566Q268 547 271 530Q272 520 270 514L252 498Q236 486 220 480Q204 473 194 479Q184 486 197 504Q239 564 206 670Q199 686 186 706Q173 725 182 737Q191 750 215 761Q231 768 244 752Q271 707 400 640Q400 639 403 639L404 607 Z"/>
<path id="z26164d7" d="M403 639Q396 772 269 879Q263 883 258 889Q246 899 258 900Q306 900 372 836Q445 761 457 653Q464 581 477 557Q484 539 468 531Q420 500 396 510Q383 514 390 529Q403 547 404 607L403 639 Z"/>
<path id="z26164d8" d="M613 492Q614 491 618 490Q694 469 748 461Q760 460 762 463Q772 476 767 512Q760 611 738 655Q723 682 700 679Q672 666 646 653Q624 643 638 667Q684 716 705 755Q724 774 740 758Q791 719 813 606Q828 482 844 461Q854 448 849 439Q840 429 793 410Q774 403 757 415Q727 433 598 457L613 492 Z"/>
<path id="z26164d9" d="M599 893Q606 836 604 781Q598 597 613 492L598 457Q571 439 559 438Q547 434 532 442Q523 449 530 459Q548 489 549 515Q553 620 551 784Q551 929 566 953Q572 960 579 958Q592 949 599 893 Z"/>
<defs>
	<clipPath id="z26164c1"><use xlink:href="#z26164d1"/></clipPath>
	<clipPath id="z26164c2"><use xlink:href="#z26164d2"/></clipPath>
	<clipPath id="z26164c3"><use xlink:href="#z26164d3"/></clipPath>
	<clipPath id="z26164c4"><use xlink:href="#z26164d4"/></clipPath>
	<clipPath id="z26164c5"><use xlink:href="#z26164d5"/></clipPath>
	<clipPath id="z26164c6"><use xlink:href="#z26164d6"/></clipPath>
	<clipPath id="z26164c7"><use xlink:href="#z26164d7"/></clipPath>
	<clipPath id="z26164c8"><use xlink:href="#z26164d8"/></clipPath>
	<clipPath id="z26164c9"><use xlink:href="#z26164d9"/></clipPath>
</defs>
<path pathLength="3333" clip-path="url(#z26164c1)" d="M310 105L349 156L391 379"/>
<path pathLength="3333" clip-path="url(#z26164c2)" d="M366 112L622 89L686 106L707 149L628 353"/>
<path pathLength="3333" clip-path="url(#z26164c3)" d="M393 233L588 211"/>
<path pathLength="3333" clip-path="url(#z26164c4)" d="M407 347L610 321"/>
<path pathLength="3333" clip-path="url(#z26164c5)" d="M396 455L352 438L260 505"/>
<path pathLength="3333" clip-path="url(#z26164c6)" d="M197 485L243 538L229 707L252 710L399 618"/>
<path pathLength="3333" clip-path="url(#z26164c7)" d="M396 519L439 550L407 740L343 835L257 894"/>
<path pathLength="3333" clip-path="url(#z26164c8)" d="M607 459L772 435L809 464L746 699L711 721L641 657"/>
<path pathLength="3333" clip-path="url(#z26164c9)" d="M535 447L580 502L573 953"/>
</svg>