<!--
AnimCJK 2016-2018 Copyright Francois Mizessyn, https://github.com/parsimonhi/animCJK
Derived from:
    MakeMeAHanzi project - https://github.com/skishore/makemeahanzi
    Arphic PL KaitiM GB - https://apps.ubuntu.com/cat/applications/precise/fonts-arphic-gkai00mp/
    Arphic PL UKai - https://apps.ubuntu.com/cat/applications/fonts-arphic-ukai/
You can redistribute and/or modify this file under the terms of the Arphic Public License
as published by Arphic Technology Co., Ltd.
You should have received a copy of this license (the directory "APL") along with this file;
if not, see http://ftp.gnu.org/non-gnu/chinese-fonts-truetype/LICENSE.
-->
<svg id="z26207" class="acjk" version="1.1" viewBox="0 0 1024 1024" xmlns="http://www.w3.org/2000/svg" xmlns:xlink="http://www.w3.org/1999/xlink">
<style>
<![CDATA[
@keyframes z26207k {
	from {
		stroke:#c00;
		stroke-dashoffset:3334;
	}
	75% {
		stroke:#c00;
		stroke-dashoffset:0;
	}
	to {
		stroke:#000;
	}
}
#z26207 path[clip-path] {
	animation:z26207k 1s linear both;
	stroke-dasharray:3334;
	stroke-width:128;
	stroke-linecap:round;
	fill:none;
}
#z26207 path[clip-path="url(#z26207c1)"] {animation-delay:1s;}
#z26207 path[clip-path="url(#z26207c2)"] {animation-delay:2s;}
#z26207 path[clip-path="url(#z26207c3)"] {animation-delay:3s;}
#z26207 path[clip-path="url(#z26207c4)"] {animation-delay:4s;}
#z26207 path[clip-path="url(#z26207c5)"] {animation-delay:5s;}
#z26207 path[clip-path="url(#z26207c6)"] {animation-delay:6s;}
#z26207 path[clip-path="url(#z26207c7)"] {animation-delay:7s;}
#z26207 path[clip-path="url(#z26207c8)"] {animation-delay:8s;}
#z26207 path[clip-path="url(#z26207c9)"] {animation-delay:9s;}
#z26207 path[clip-path="url(#z26207c10)"] {animation-delay:10s;}
#z26207 path {fill:#ccc;}
]]>
</style>
<path id="z26207d1" d="M334 130Q315 118 293 115Q286 114 282 118Q275 124 284 134Q317 177 331 289Q335 349 374 372L375 373Q391 377 392 348Q391 347 391 346L389 321Q376 264 375 257L371 233Q365 194 363 160L334 130 Z"/>
<path id="z26207d2" d="M582 321Q598 346 612 355Q622 362 638 343Q653 322 687 207Q697 176 721 153Q734 141 723 127Q710 111 668 83Q649 73 633 79Q602 86 560 92Q505 101 436 112Q379 122 334 130L363 160Q444 139 588 121Q619 117 630 128Q640 141 638 155Q608 279 592 293L582 321 Z"/>
<path id="z26207d3" d="M375 257Q384 258 396 257Q490 239 559 229Q581 225 573 212Q563 197 537 193Q513 190 472 202Q418 218 371 233L375 257 Z"/>
<path id="z26207d4" d="M391 346Q397 347 410 346Q507 330 582 321L592 293Q585 287 571 285Q553 282 389 321L391 346 Z"/>
<path id="z26207d5" d="M328 490Q286 463 271 463Q252 464 265 486Q290 541 249 697Q239 725 222 758Q201 798 159 835Q120 863 116 872Q113 879 124 879Q160 882 214 833Q271 784 308 660L314 631Q330 543 338 518L328 490 Z"/>
<path id="z26207d6" d="M568 491Q662 475 675 463Q684 456 679 448Q672 436 644 429Q607 422 566 441L506 459Q437 477 333 488Q330 488 328 490L338 518Q369 527 450 514Q481 507 517 501L568 491 Z"/>
<path id="z26207d7" d="M308 660Q321 667 335 663Q407 639 415 647Q419 654 418 676Q414 734 401 759Q385 787 359 782Q335 773 314 764Q292 755 306 778Q346 820 363 851Q375 867 388 857Q431 833 461 734Q471 674 492 651Q502 641 498 631Q491 621 446 601Q437 595 395 611Q319 629 314 631L308 660 Z"/>
<path id="z26207d8" d="M624 745Q744 925 874 951Q875 951 879 952Q907 949 901 912Q891 879 885 726Q884 713 878 711Q871 711 868 725Q856 759 845 793Q830 838 815 837Q776 837 698 750Q692 743 663 704L634 659Q580 575 569 493Q568 492 568 491L566 441Q567 428 570 416Q574 394 532 372Q489 350 477 354Q464 361 470 379Q494 406 506 459L517 501Q544 607 600 706L624 745 Z"/>
<path id="z26207d9" d="M600 706Q548 764 470 829Q461 833 471 836Q517 836 620 749Q621 746 624 745L663 704Q694 668 739 610Q757 583 758 581Q755 557 715 539Q696 532 684 533Q677 534 677 547Q684 584 634 659L600 706 Z"/>
<path id="z26207d10" d="M699 396Q727 420 758 449Q770 459 783 459Q793 459 797 447Q801 434 794 409Q785 379 695 354Q682 351 676 353Q672 357 673 368Q676 378 699 396 Z"/>
<defs>
	<clipPath id="z26207c1"><use xlink:href="#z26207d1"/></clipPath>
	<clipPath id="z26207c2"><use xlink:href="#z26207d2"/></clipPath>
	<clipPath id="z26207c3"><use xlink:href="#z26207d3"/></clipPath>
	<clipPath id="z26207c4"><use xlink:href="#z26207d4"/></clipPath>
	<clipPath id="z26207c5"><use xlink:href="#z26207d5"/></clipPath>
	<clipPath id="z26207c6"><use xlink:href="#z26207d6"/></clipPath>
	<clipPath id="z26207c7"><use xlink:href="#z26207d7"/></clipPath>
	<clipPath id="z26207c8"><use xlink:href="#z26207d8"/></clipPath>
	<clipPath id="z26207c9"><use xlink:href="#z26207d9"/></clipPath>
	<clipPath id="z26207c10"><use xlink:href="#z26207d10"/></clipPath>
</defs>
<path pathLength="3333" clip-path="url(#z26207c1)" d="M286 122L336 176L378 366"/>
<path pathLength="3333" clip-path="url(#z26207c2)" d="M343 130L658 111L683 144L602 346"/>
<path pathLength="3333" clip-path="url(#z26207c3)" d="M377 239L567 212"/>
<path pathLength="3333" clip-path="url(#z26207c4)" d="M394 338L585 299"/>
<path pathLength="3333" clip-path="url(#z26207c5)" d="M265 469L305 524L269 707L201 820L121 871"/>
<path pathLength="3333" clip-path="url(#z26207c6)" d="M337 493L424 497L673 449"/>
<path pathLength="3333" clip-path="url(#z26207c7)" d="M313 656L422 624L458 650L397 806L361 816L307 769"/>
<path pathLength="3333" clip-path="url(#z26207c8)" d="M475 361L533 416L553 539L602 656L739 836L796 876L867 900L877 722"/>
<path pathLength="3333" clip-path="url(#z26207c9)" d="M685 538L716 580L676 645L579 757L475 830"/>
<path pathLength="3333" clip-path="url(#z26207c10)" d="M680 362L768 418L787 453"/>
</svg>