<!--
AnimCJK 2016-2019 Copyright Francois Mizessyn - https://github.com/parsimonhi/animCJK
Derived from:
    MakeMeAHanzi project - https://github.com/skishore/makemeahanzi
    Arphic PL KaitiM GB font
    Arphic PL UKai font
You can redistribute and/or modify this file under the terms of the Arphic Public License
as published by Arphic Technology Co., Ltd.
You should have received a copy of this license along with this file.
If not, see http://ftp.gnu.org/non-gnu/chinese-fonts-truetype/LICENSE.
-->
<svg id="z26217" class="acjk" version="1.1" viewBox="0 0 1024 1024" xmlns="http://www.w3.org/2000/svg" xmlns:xlink="http://www.w3.org/1999/xlink">
<style>
<![CDATA[
@keyframes zk {
	to {
		stroke-dashoffset:0;
	}
}
svg.acjk path[clip-path] {
	--t:0.8s;
	animation:zk var(--t) linear forwards var(--d);
	stroke-dasharray:3337;
	stroke-dashoffset:3339;
	stroke-width:128;
	stroke-linecap:round;
	fill:none;
	stroke:#000;
}
svg.acjk path[id] {fill:#ccc;}
]]>
</style>
<path id="z26217d1" d="M155 250C145 240 132 232 118 227C111 224 105 223 98 227C93 229 93 234 96 243C107 277 116 316 117 338C121 489 118 585 98 668C89 703 96 735 118 763C124 771 131 772 138 764C146 754 148 742 150 731C152 710 152 710 153 699C154 683 154 664 155 644C156 588 157 538 157 496C157 475 157 475 157 465C157 348 161 286 164 278C166 268 163 256 155 250Z"/>
<path id="z26217d2" d="M250 712Q262 731 274 751Q290 775 297 772Q309 771 324 736Q333 712 333 637Q312 310 340 262Q350 244 341 234Q334 224 285 210Q261 203 245 212Q196 237 155 250C146 254 155 282 164 278Q254 248 263 252Q264 252 266 254Q279 267 279 321Q282 546 272 668Q273 677 270 683C266 694 243 703 250 712Z"/>
<path id="z26217d3" d="M157 496Q206 483 246 475Q267 469 258 459Q248 447 224 445Q188 445 157 465C148 470 147 498 157 496Z"/>
<path id="z26217d4" d="M150 731Q205 718 250 712C262 710 280 689 270 683Q261 676 247 675Q202 672 153 699C144 705 139 733 150 731Z"/>
<path id="z26217d5" d="M540 208C584 155 604 126 605 126C605 124 604 122 604 120C603 113 595 102 579 88C565 75 552 69 542 69C531 69 526 76 531 89C542 121 498 196 396 314C390 320 385 324 384 327C381 333 384 336 393 335C409 332 483 275 524 227C535 214 535 214 540 208Z"/>
<path id="z26217d6" d="M589 374C603 359 624 335 652 302C678 269 705 242 733 224C744 216 747 209 739 201C730 192 714 181 689 169C678 164 668 166 658 173C652 176 625 186 576 199C552 205 552 205 540 208C532 209 516 224 524 227C536 233 570 230 627 220C632 218 637 219 639 221C641 223 640 228 637 235C610 291 581 345 563 380C558 388 584 381 589 374Z"/>
<path id="z26217d7" d="M417 400C407 391 388 388 374 387C365 386 361 386 359 389C355 392 354 398 360 410C376 447 390 497 399 558C401 576 407 592 417 605C427 618 435 621 439 611C441 605 442 598 443 590C442 568 442 568 441 557C441 542 426 450 424 430C422 420 425 406 417 400Z"/>
<path id="z26217d8" d="M745 518C767 464 791 430 814 412C825 402 826 389 817 378C808 368 786 356 754 338C743 332 730 330 716 336C671 352 629 364 589 374C572 378 572 378 563 380C545 384 447 396 417 400C407 402 414 430 424 430C434 430 446 428 459 425C473 421 512 415 528 413C557 408 557 408 572 405C610 398 647 390 685 383C703 379 718 379 726 388C734 397 724 439 697 513C691 528 739 533 745 518Z"/>
<path id="z26217d9" d="M543 543C544 503 541 442 528 413C522 399 558 399 572 405C581 408 591 414 598 422C604 429 596 441 594 450C586 478 586 509 581 537C578 550 543 556 543 543Z"/>
<path id="z26217d10" d="M570 573C620 565 683 559 759 554C765 553 770 550 771 544C771 539 762 530 745 518C732 508 713 510 697 513C654 521 605 533 581 537C556 541 556 541 543 543C524 545 469 553 441 557C430 559 432 590 443 590C449 590 455 591 463 590C472 588 521 579 570 573Z"/>
<path id="z26217d11" d="M476 603C482 665 459 731 398 799C350 851 317 878 308 887C303 891 302 895 307 897C311 899 317 897 324 895C413 856 482 788 526 684C529 676 535 660 550 638C554 631 555 625 552 619C548 612 536 604 517 594C502 586 493 583 487 585C478 587 475 593 476 603Z"/>
<path id="z26217d12" d="M965 827C954 806 939 765 926 702C923 691 922 684 917 682C912 679 909 685 907 697C895 765 887 812 872 832C851 857 804 864 740 861C714 859 691 854 672 846C655 838 643 827 639 817C626 789 630 731 648 643C652 623 638 605 606 593C597 589 590 590 585 593C580 595 579 603 583 615C591 641 594 665 592 690C585 764 586 812 592 835C595 849 602 864 617 877C665 918 745 930 856 913C864 911 872 909 881 907C907 900 934 888 960 870C973 860 974 845 965 827Z"/>
<defs>
	<clipPath id="z26217c1"><use xlink:href="#z26217d1"/></clipPath>
	<clipPath id="z26217c2"><use xlink:href="#z26217d2"/></clipPath>
	<clipPath id="z26217c3"><use xlink:href="#z26217d3"/></clipPath>
	<clipPath id="z26217c4"><use xlink:href="#z26217d4"/></clipPath>
	<clipPath id="z26217c5"><use xlink:href="#z26217d5"/></clipPath>
	<clipPath id="z26217c6"><use xlink:href="#z26217d6"/></clipPath>
	<clipPath id="z26217c7"><use xlink:href="#z26217d7"/></clipPath>
	<clipPath id="z26217c8"><use xlink:href="#z26217d8"/></clipPath>
	<clipPath id="z26217c9"><use xlink:href="#z26217d9"/></clipPath>
	<clipPath id="z26217c10"><use xlink:href="#z26217d10"/></clipPath>
	<clipPath id="z26217c11"><use xlink:href="#z26217d11"/></clipPath>
	<clipPath id="z26217c12"><use xlink:href="#z26217d12"/></clipPath>
</defs>
<path style="--d:1s;" pathLength="3333" clip-path="url(#z26217c1)" d="M103 235L130 265L139 346L124 764"/>
<path style="--d:2s;" pathLength="3333" clip-path="url(#z26217c2)" d="M161 255L268 229L309 257L288 766"/>
<path style="--d:3s;" pathLength="3333" clip-path="url(#z26217c3)" d="M162 487L256 459"/>
<path style="--d:4s;" pathLength="3333" clip-path="url(#z26217c4)" d="M154 723L263 688"/>
<path style="--d:5s;" pathLength="3333" clip-path="url(#z26217c5)" d="M538 79L566 124L391 330"/>
<path style="--d:6s;" pathLength="3333" clip-path="url(#z26217c6)" d="M533 224L656 194L690 221L570 372"/>
<path style="--d:7s;" pathLength="3333" clip-path="url(#z26217c7)" d="M362 394L394 420L427 609"/>
<path style="--d:8s;" pathLength="3333" clip-path="url(#z26217c8)" d="M424 403L733 359L776 399L723 509L705 507"/>
<path style="--d:9s;" pathLength="3333" clip-path="url(#z26217c9)" d="M535 420L570 444L554 540"/>
<path style="--d:10s;" pathLength="3333" clip-path="url(#z26217c10)" d="M446 582L692 536L765 542"/>
<path style="--d:11s;" pathLength="3333" clip-path="url(#z26217c11)" d="M484 587L515 628L465 745L310 891"/>
<path style="--d:12s;" pathLength="3333" clip-path="url(#z26217c12)" d="M588 597L619 635L617 831L678 879L805 889L902 859L925 823L914 689"/>
</svg>