<!--
AnimCJK 2016-2017 Copyright Francois Mizessyn, http://gooo.free.fr/animCJK/
Derived from:
    MakeMeAHanzi project - https://github.com/skishore/makemeahanzi
    Arphic PL KaitiM GB - https://apps.ubuntu.com/cat/applications/precise/fonts-arphic-gkai00mp/
    Arphic PL UKai - https://apps.ubuntu.com/cat/applications/fonts-arphic-ukai/
You can redistribute and/or modify this file under the terms of the Arphic Public License
as published by Arphic Technology Co., Ltd.
You should have received a copy of this license (the directory "APL") along with this file;
if not, see http://ftp.gnu.org/non-gnu/chinese-fonts-truetype/LICENSE.
-->
<svg id="z26230" class="acjk" version="1.1" viewBox="0 0 1024 1024" xmlns="http://www.w3.org/2000/svg" xmlns:xlink="http://www.w3.org/1999/xlink">
<style>
<![CDATA[
	@keyframes z26230k {
		from {
			stroke:#c00;
			stroke-dashoffset:3000;
		}
		75% {
			stroke:#c00;
			stroke-dashoffset:0;
		}
		to {
			stroke:#000;
		}
	}
	#z26230 path[clip-path] {
		animation:z26230k 1s linear both;
		stroke-dasharray:3000;
		stroke-width:128;
		stroke-linecap:round;
		fill:none;
	}
	#z26230 path[clip-path="url(#z26230c1)"] {animation-delay:1s;}
	#z26230 path[clip-path="url(#z26230c2)"] {animation-delay:2s;}
	#z26230 path[clip-path="url(#z26230c3)"] {animation-delay:3s;}
	#z26230 path[clip-path="url(#z26230c4)"] {animation-delay:4s;}
	#z26230 path[clip-path="url(#z26230c5)"] {animation-delay:5s;}
	#z26230 path[clip-path="url(#z26230c6)"] {animation-delay:6s;}
	#z26230 path[clip-path="url(#z26230c7)"] {animation-delay:7s;}
	#z26230 path[clip-path="url(#z26230c8)"] {animation-delay:8s;}
	#z26230 path[clip-path="url(#z26230c9)"] {animation-delay:9s;}
	#z26230 path[clip-path="url(#z26230c10)"] {animation-delay:10s;}
	#z26230 path[clip-path="url(#z26230c11)"] {animation-delay:11s;}
	#z26230 path[clip-path="url(#z26230c12)"] {animation-delay:12s;}
	#z26230 path {fill:#ccc;}
]]>
</style>
<g transform="scale(1,-1) translate(0,-900)">
	<path id="z26230d1" d="M384 762Q359 780 331 788Q324 789 320 785Q311 779 321 768Q360 704 364 557Q364 494 400 469Q401 469 403 467Q421 461 422 492Q422 495 422 498L421 522Q420 541 414 561Q411 586 408 616L405 642Q401 690 400 728L384 762Z"/>
	<path id="z26230d2" d="M572 514Q594 484 613 477Q625 470 639 493Q652 523 673 680Q680 713 703 739Q716 752 703 766Q687 782 641 807Q626 813 555 798Q551 798 547 796Q460 778 384 762L400 728Q460 746 570 761Q594 764 601 756Q617 740 616 722Q601 557 586 541L572 514Z"/>
	<path id="z26230d3" d="M408 616Q409 616 412 616Q497 632 559 641Q581 645 573 657Q563 670 539 674Q515 677 405 642L408 616Z"/>
	<path id="z26230d4" d="M422 498Q425 498 429 498Q510 508 572 514L586 541Q580 545 571 547Q547 553 421 522L422 498Z"/>
	<path id="z26230d5" d="M196 357Q174 373 151 382Q144 385 139 381Q132 375 139 364Q175 292 167 124Q166 90 180 59Q190 37 200 31Q216 24 220 54Q221 64 221 75L219 109Q216 119 214 200L213 229Q213 280 216 330L196 357Z"/>
	<path id="z26230d6" d="M342 90Q364 59 380 31Q387 15 397 16Q410 17 425 44Q441 75 439 115Q435 179 433 297Q432 324 447 343Q454 353 447 362Q431 378 386 400Q374 406 322 386Q262 367 196 357L216 330Q229 330 351 355Q367 359 376 352Q395 327 378 120Q375 110 367 109L342 90Z"/>
	<path id="z26230d7" d="M214 200Q284 213 336 221Q358 225 349 237Q339 250 315 254Q284 257 213 229L214 200Z"/>
	<path id="z26230d8" d="M221 75Q260 84 342 90L367 109Q360 116 344 127Q328 134 300 128Q257 118 219 109L221 75Z"/>
	<path id="z26230d9" d="M572 379Q553 394 530 399Q521 400 516 392Q513 388 520 378Q562 288 536 133Q521 112 532 81Q542 50 553 39Q565 27 573 40Q580 50 584 66L589 100Q592 134 590 208L589 231Q588 321 590 348L572 379Z"/>
	<path id="z26230d10" d="M733 77Q745 53 772 7Q781 -9 791 -7Q806 -4 813 21Q840 91 841 291Q845 334 865 363Q880 382 868 394Q847 413 804 430Q788 439 694 404Q631 389 572 379L590 348Q677 364 766 381Q767 380 772 377Q800 334 776 119Q775 100 767 97Q766 96 762 97L733 77Z"/>
	<path id="z26230d11" d="M590 208Q597 205 610 207Q686 217 741 222Q766 226 757 240Q747 256 719 260Q680 266 589 231L590 208Z"/>
	<path id="z26230d12" d="M584 66Q591 65 603 66Q645 75 733 77L762 97Q755 104 738 116Q722 126 691 119Q636 107 589 100L584 66Z"/>
	<defs>
		<clipPath id="z26230c1"><use xlink:href="#z26230d1"/></clipPath>
		<clipPath id="z26230c2"><use xlink:href="#z26230d2"/></clipPath>
		<clipPath id="z26230c3"><use xlink:href="#z26230d3"/></clipPath>
		<clipPath id="z26230c4"><use xlink:href="#z26230d4"/></clipPath>
		<clipPath id="z26230c5"><use xlink:href="#z26230d5"/></clipPath>
		<clipPath id="z26230c6"><use xlink:href="#z26230d6"/></clipPath>
		<clipPath id="z26230c7"><use xlink:href="#z26230d7"/></clipPath>
		<clipPath id="z26230c8"><use xlink:href="#z26230d8"/></clipPath>
		<clipPath id="z26230c9"><use xlink:href="#z26230d9"/></clipPath>
		<clipPath id="z26230c10"><use xlink:href="#z26230d10"/></clipPath>
		<clipPath id="z26230c11"><use xlink:href="#z26230d11"/></clipPath>
		<clipPath id="z26230c12"><use xlink:href="#z26230d12"/></clipPath>
	</defs>
	<path pathLength="2999" clip-path="url(#z26230c1)" d="M322 782L373 717L403 471"/>
	<path pathLength="2999" clip-path="url(#z26230c2)" d="M391 761L594 784L651 758L662 737L598 487"/>
	<path pathLength="2999" clip-path="url(#z26230c3)" d="M415 625L567 650"/>
	<path pathLength="2999" clip-path="url(#z26230c4)" d="M430 506L579 536"/>
	<path pathLength="2999" clip-path="url(#z26230c5)" d="M144 375L186 322L199 38"/>
	<path pathLength="2999" clip-path="url(#z26230c6)" d="M204 357L374 378L415 347L408 110L385 26"/>
	<path pathLength="2999" clip-path="url(#z26230c7)" d="M219 209L345 236"/>
	<path pathLength="2999" clip-path="url(#z26230c8)" d="M226 84L360 112"/>
	<path pathLength="2999" clip-path="url(#z26230c9)" d="M524 390L563 332L560 38"/>
	<path pathLength="2999" clip-path="url(#z26230c10)" d="M581 377L787 405L826 371L776 4"/>
	<path pathLength="2999" clip-path="url(#z26230c11)" d="M594 214L754 240"/>
	<path pathLength="2999" clip-path="url(#z26230c12)" d="M592 74L752 99"/>
</g>
</svg>