<!--
AnimCJK 2016-2017 Copyright Francois Mizessyn, http://gooo.free.fr/animCJK/
Derived from:
    MakeMeAHanzi project - https://github.com/skishore/makemeahanzi
    Arphic PL KaitiM GB - https://apps.ubuntu.com/cat/applications/precise/fonts-arphic-gkai00mp/
    Arphic PL UKai - https://apps.ubuntu.com/cat/applications/fonts-arphic-ukai/
You can redistribute and/or modify this file under the terms of the Arphic Public License
as published by Arphic Technology Co., Ltd.
You should have received a copy of this license (the directory "APL") along with this file;
if not, see http://ftp.gnu.org/non-gnu/chinese-fonts-truetype/LICENSE.
-->
<svg id="z26326" class="acjk" version="1.1" viewBox="0 0 1024 1024" xmlns="http://www.w3.org/2000/svg" xmlns:xlink="http://www.w3.org/1999/xlink">
<style>
<![CDATA[
	@keyframes z26326k {
		from {
			stroke:#c00;
			stroke-dashoffset:3000;
		}
		75% {
			stroke:#c00;
			stroke-dashoffset:0;
		}
		to {
			stroke:#000;
		}
	}
	#z26326 path[clip-path] {
		animation:z26326k 1s linear both;
		stroke-dasharray:3000;
		stroke-width:128;
		stroke-linecap:round;
		fill:none;
	}
	#z26326 path[clip-path="url(#z26326c1)"] {animation-delay:1s;}
	#z26326 path[clip-path="url(#z26326c2)"] {animation-delay:2s;}
	#z26326 path[clip-path="url(#z26326c3)"] {animation-delay:3s;}
	#z26326 path[clip-path="url(#z26326c4)"] {animation-delay:4s;}
	#z26326 path[clip-path="url(#z26326c5)"] {animation-delay:5s;}
	#z26326 path[clip-path="url(#z26326c6)"] {animation-delay:6s;}
	#z26326 path[clip-path="url(#z26326c7)"] {animation-delay:7s;}
	#z26326 path[clip-path="url(#z26326c8)"] {animation-delay:8s;}
	#z26326 path[clip-path="url(#z26326c9)"] {animation-delay:9s;}
	#z26326 path[clip-path="url(#z26326c10)"] {animation-delay:10s;}
	#z26326 path[clip-path="url(#z26326c11)"] {animation-delay:11s;}
	#z26326 path[clip-path="url(#z26326c12)"] {animation-delay:12s;}
	#z26326 path[clip-path="url(#z26326c13)"] {animation-delay:13s;}
	#z26326 path[clip-path="url(#z26326c14)"] {animation-delay:14s;}
	#z26326 path[clip-path="url(#z26326c15)"] {animation-delay:15s;}
	#z26326 path[clip-path="url(#z26326c16)"] {animation-delay:16s;}
	#z26326 path[clip-path="url(#z26326c17)"] {animation-delay:17s;}
	#z26326 path {fill:#ccc;}
]]>
</style>
<g transform="scale(1,-1) translate(0,-900)">
	<path id="z26326d1" d="M163 658Q150 671 125 680Q115 684 104 681Q97 675 103 663Q106 651 111 640Q141 580 123 296Q119 256 108 207Q95 152 129 109Q139 96 150 109Q163 125 163 146L166 182Q167 204 167 235Q167 331 168 403L168 437Q169 603 172 619Q173 626 173 631L163 658Z"/>
	<path id="z26326d2" d="M247 161Q259 143 270 125Q286 101 293 104Q306 107 321 142Q336 182 331 232Q324 334 321 555Q320 613 336 642Q346 660 338 670Q331 680 281 694Q257 703 241 692Q198 670 163 658L173 631Q177 632 184 634Q256 655 262 650Q277 635 276 578Q279 340 267 208Q270 190 260 187L247 161Z"/>
	<path id="z26326d3" d="M168 403Q208 412 241 416Q263 422 254 433Q242 446 218 448Q199 449 168 437L168 403Z"/>
	<path id="z26326d4" d="M163 146Q169 152 247 161L260 187Q253 191 243 197Q230 203 166 182L163 146Z"/>
	<path id="z26326d5" d="M632 797Q593 758 460 694Q456 687 461 684Q491 684 621 736Q666 761 719 774Q734 775 736 781Q740 791 729 800Q711 813 673 826Q660 833 649 831Q643 827 643 818Q643 806 632 797Z"/>
	<path id="z26326d6" d="M432 624Q451 605 471 582Q480 572 490 572Q497 572 502 581Q506 591 501 611Q498 626 477 638Q426 662 416 658Q412 657 413 647Q414 640 432 624Z"/>
	<path id="z26326d7" d="M547 669Q577 615 597 612Q607 609 614 623Q617 633 612 649Q603 668 554 690Q547 691 545 683Q544 677 547 669Z"/>
	<path id="z26326d8" d="M705 597Q724 613 739 626Q784 671 806 683Q822 693 812 707Q799 720 776 729Q755 739 745 735Q735 732 739 722Q745 701 673 591L705 597Z"/>
	<path id="z26326d9" d="M407 534Q398 550 381 561Q377 564 373 560Q369 557 369 547Q373 514 350 453Q343 438 344 422Q348 406 357 393Q364 384 369 391Q375 392 381 407Q385 414 391 439Q409 502 412 505L407 534Z"/>
	<path id="z26326d10" d="M412 505Q428 499 458 508Q596 559 800 587Q818 590 826 588Q841 585 839 576Q830 543 819 508Q826 505 841 515Q886 540 921 548Q949 554 950 562Q947 571 885 617Q867 630 845 628Q781 615 705 597L673 591Q600 578 499 554L407 534L412 505Z"/>
	<path id="z26326d11" d="M453 456Q437 413 412 375Q397 351 411 326Q417 313 433 322Q472 355 473 413Q477 438 471 456Q467 463 463 463Q456 462 453 456Z"/>
	<path id="z26326d12" d="M524 400Q578 340 674 343Q675 343 679 343Q763 346 789 391Q799 407 773 413Q739 425 694 452Q690 455 687 453Q686 449 691 443Q707 406 703 398Q699 392 669 385Q605 370 530 413Q523 419 519 413Q516 409 524 400Z"/>
	<path id="z26326d13" d="M562 471Q590 438 612 429Q622 428 628 437Q632 444 630 457Q626 473 614 481Q599 491 570 497Q560 501 553 498Q549 497 550 488Q551 481 562 471Z"/>
	<path id="z26326d14" d="M722 488Q743 473 765 454Q774 447 784 447Q791 448 794 456Q795 466 789 485Q785 498 763 507Q715 523 704 518Q700 515 702 507Q705 500 722 488Z"/>
	<path id="z26326d15" d="M586 287Q577 309 550 320Q534 327 523 326Q516 325 517 314Q521 248 407 126Q404 125 403 122Q369 89 286 26Q279 22 287 19Q338 19 448 115Q455 124 465 132Q493 160 532 210L548 230Q557 248 570 260L586 287Z"/>
	<path id="z26326d16" d="M629 118Q569 37 440 4Q427 0 438 -9Q444 -13 482 -11Q581 -2 661 80L687 116Q712 156 738 214Q751 241 772 256Q791 269 780 284Q770 297 740 310Q718 319 691 308Q669 301 638 294Q616 290 586 287L570 260Q595 256 626 261Q663 273 671 272Q693 263 681 240Q668 189 648 149L629 118Z"/>
	<path id="z26326d17" d="M532 210Q565 191 629 118L661 80Q707 26 768 -28Q798 -61 951 -37Q985 -33 982 -24Q979 -15 825 31Q761 55 687 116L648 149Q626 171 601 197Q573 225 548 230L532 210Z"/>
	<defs>
		<clipPath id="z26326c1"><use xlink:href="#z26326d1"/></clipPath>
		<clipPath id="z26326c2"><use xlink:href="#z26326d2"/></clipPath>
		<clipPath id="z26326c3"><use xlink:href="#z26326d3"/></clipPath>
		<clipPath id="z26326c4"><use xlink:href="#z26326d4"/></clipPath>
		<clipPath id="z26326c5"><use xlink:href="#z26326d5"/></clipPath>
		<clipPath id="z26326c6"><use xlink:href="#z26326d6"/></clipPath>
		<clipPath id="z26326c7"><use xlink:href="#z26326d7"/></clipPath>
		<clipPath id="z26326c8"><use xlink:href="#z26326d8"/></clipPath>
		<clipPath id="z26326c9"><use xlink:href="#z26326d9"/></clipPath>
		<clipPath id="z26326c10"><use xlink:href="#z26326d10"/></clipPath>
		<clipPath id="z26326c11"><use xlink:href="#z26326d11"/></clipPath>
		<clipPath id="z26326c12"><use xlink:href="#z26326d12"/></clipPath>
		<clipPath id="z26326c13"><use xlink:href="#z26326d13"/></clipPath>
		<clipPath id="z26326c14"><use xlink:href="#z26326d14"/></clipPath>
		<clipPath id="z26326c15"><use xlink:href="#z26326d15"/></clipPath>
		<clipPath id="z26326c16"><use xlink:href="#z26326d16"/></clipPath>
		<clipPath id="z26326c17"><use xlink:href="#z26326d17"/></clipPath>
	</defs>
	<path pathLength="2999" clip-path="url(#z26326c1)" d="M108 675L147 616L136 108"/>
	<path pathLength="2999" clip-path="url(#z26326c2)" d="M171 657L257 674L306 648L285 111"/>
	<path pathLength="2999" clip-path="url(#z26326c3)" d="M172 412L252 433"/>
	<path pathLength="2999" clip-path="url(#z26326c4)" d="M170 155L253 182"/>
	<path pathLength="2999" clip-path="url(#z26326c5)" d="M730 785L657 794L467 691"/>
	<path pathLength="2999" clip-path="url(#z26326c6)" d="M420 650L498 582"/>
	<path pathLength="2999" clip-path="url(#z26326c7)" d="M552 684L602 617"/>
	<path pathLength="2999" clip-path="url(#z26326c8)" d="M807 702L759 697L683 597"/>
	<path pathLength="2999" clip-path="url(#z26326c9)" d="M377 554L389 508L367 394"/>
	<path pathLength="2999" clip-path="url(#z26326c10)" d="M413 532L843 607L894 556L828 513"/>
	<path pathLength="2999" clip-path="url(#z26326c11)" d="M462 455L418 324"/>
	<path pathLength="2999" clip-path="url(#z26326c12)" d="M526 407L611 366L704 369L747 403L694 447"/>
	<path pathLength="2999" clip-path="url(#z26326c13)" d="M558 493L622 437"/>
	<path pathLength="2999" clip-path="url(#z26326c14)" d="M707 511L787 455"/>
	<path pathLength="2999" clip-path="url(#z26326c15)" d="M524 320L547 280L492 195L405 101L294 24"/>
	<path pathLength="2999" clip-path="url(#z26326c16)" d="M578 264L686 289L734 260L612 66L523 14L444 -2"/>
	<path pathLength="2999" clip-path="url(#z26326c17)" d="M537 214L794 1L975 -25"/>
</g>
</svg>