<!--
AnimCJK 2016-2018 Copyright Francois Mizessyn - https://github.com/parsimonhi/animCJK
Derived from:
    MakeMeAHanzi project - https://github.com/skishore/makemeahanzi
    Arphic PL KaitiM GB - https://apps.ubuntu.com/cat/applications/precise/fonts-arphic-gkai00mp/
    Arphic PL UKai - https://apps.ubuntu.com/cat/applications/fonts-arphic-ukai/
You can redistribute and/or modify this file under the terms of the Arphic Public License
as published by Arphic Technology Co., Ltd.
You should have received a copy of this license (the directory "APL") along with this file;
if not, see http://ftp.gnu.org/non-gnu/chinese-fonts-truetype/LICENSE.
-->
<svg id="z26326" class="acjk" version="1.1" viewBox="0 0 1024 1024" xmlns="http://www.w3.org/2000/svg" xmlns:xlink="http://www.w3.org/1999/xlink">
<style>
<![CDATA[
@keyframes z26326k {
	from {
		stroke:#ccc;
		stroke-dashoffset:3334;
	}
	1% {
		stroke:#c00;
		stroke-dashoffset:3334;
	}
	75% {
		stroke:#c00;
		stroke-dashoffset:0;
	}
	to {
		stroke:#000;
	}
}
#z26326 path[clip-path] {
	animation:z26326k 1s linear both;
	stroke-dasharray:3334;
	stroke-width:128;
	stroke-linecap:round;
	fill:none;
}
#z26326 path[clip-path="url(#z26326c1)"] {animation-delay:1s;}
#z26326 path[clip-path="url(#z26326c2)"] {animation-delay:2s;}
#z26326 path[clip-path="url(#z26326c3)"] {animation-delay:3s;}
#z26326 path[clip-path="url(#z26326c4)"] {animation-delay:4s;}
#z26326 path[clip-path="url(#z26326c5)"] {animation-delay:5s;}
#z26326 path[clip-path="url(#z26326c6)"] {animation-delay:6s;}
#z26326 path[clip-path="url(#z26326c7)"] {animation-delay:7s;}
#z26326 path[clip-path="url(#z26326c8)"] {animation-delay:8s;}
#z26326 path[clip-path="url(#z26326c9)"] {animation-delay:9s;}
#z26326 path[clip-path="url(#z26326c10)"] {animation-delay:10s;}
#z26326 path[clip-path="url(#z26326c11)"] {animation-delay:11s;}
#z26326 path[clip-path="url(#z26326c12)"] {animation-delay:12s;}
#z26326 path[clip-path="url(#z26326c13)"] {animation-delay:13s;}
#z26326 path[clip-path="url(#z26326c14)"] {animation-delay:14s;}
#z26326 path[clip-path="url(#z26326c15)"] {animation-delay:15s;}
#z26326 path[clip-path="url(#z26326c16)"] {animation-delay:16s;}
#z26326 path[clip-path="url(#z26326c17)"] {animation-delay:17s;}
#z26326 path {fill:#ccc;}
]]>
</style>
<path id="z26326d1" d="M163 242Q150 229 125 220Q115 216 104 219Q97 225 103 237Q106 249 111 260Q141 320 123 604Q119 644 108 693Q95 748 129 791Q139 804 150 791Q163 775 163 754C165 730 165 730 166 718Q167 696 167 665Q167 569 168 497C168 474 168 474 168 463Q169 297 172 281Q173 274 173 269C173 259 171 248 163 242Z"></path>
<path id="z26326d2" d="M247 739Q259 757 270 775Q286 799 293 796Q306 793 321 758Q336 718 331 668Q324 566 321 345Q320 287 336 258Q346 240 338 230Q331 220 281 206Q257 197 241 208Q198 230 163 242C154 246 164 271 173 269Q177 268 184 266Q256 245 262 250Q277 265 276 322Q279 560 267 692Q270 710 260 713C252 718 241 731 247 739Z"></path>
<path id="z26326d3" d="M168 497Q208 488 241 484Q263 478 254 467Q242 454 218 452Q199 451 168 463C157 467 157 499 168 497Z"></path>
<path id="z26326d4" d="M163 754Q169 748 247 739C257 737 268 718 260 713Q253 709 243 703Q230 697 166 718C155 722 152 759 163 754Z"></path>
<path id="z26326d5" d="M632 103Q593 142 460 206Q456 213 461 216Q491 216 621 164Q666 139 719 126Q734 125 736 119Q740 109 729 100Q711 87 673 74Q660 67 649 69Q643 73 643 82Q643 94 632 103Z"></path>
<path id="z26326d6" d="M432 276Q451 295 471 318Q480 328 490 328Q497 328 502 319Q506 309 501 289Q498 274 477 262Q426 238 416 242Q412 243 413 253Q414 260 432 276Z"></path>
<path id="z26326d7" d="M547 231Q577 285 597 288Q607 291 614 277Q617 267 612 251Q603 232 554 210Q547 209 545 217Q544 223 547 231Z"></path>
<path id="z26326d8" d="M705 303Q724 287 739 274Q784 229 806 217Q822 207 812 193Q799 180 776 171Q755 161 745 165Q735 168 739 178Q745 199 673 309C667 318 696 310 705 303Z"></path>
<path id="z26326d9" d="M407 366Q398 350 381 339Q377 336 373 340Q369 343 369 353Q373 386 350 447Q343 462 344 478Q348 494 357 507Q364 516 369 509Q375 508 381 493Q385 486 391 461Q409 398 412 395C416 386 413 374 407 366Z"></path>
<path id="z26326d10" d="M412 395Q428 401 458 392Q596 341 800 313Q818 310 826 312Q841 315 839 324Q830 357 819 392Q826 395 841 385Q886 360 921 352Q949 346 950 338Q947 329 885 283Q867 270 845 272Q781 285 705 303C684 307 684 307 673 309Q600 322 499 346C438 359 438 359 407 366C397 368 402 393 412 395Z"></path>
<path id="z26326d11" d="M453 444Q437 487 412 525Q397 549 411 574Q417 587 433 578Q472 545 473 487Q477 462 471 444Q467 437 463 437Q456 438 453 444Z"></path>
<path id="z26326d12" d="M524 500Q578 560 674 557Q675 557 679 557Q763 554 789 509Q799 493 773 487Q739 475 694 448Q690 445 687 447Q686 451 691 457Q707 494 703 502Q699 508 669 515Q605 530 530 487Q523 481 519 487Q516 491 524 500Z"></path>
<path id="z26326d13" d="M562 429Q590 462 612 471Q622 472 628 463Q632 456 630 443Q626 427 614 419Q599 409 570 403Q560 399 553 402Q549 403 550 412Q551 419 562 429Z"></path>
<path id="z26326d14" d="M722 412Q743 427 765 446Q774 453 784 453Q791 452 794 444Q795 434 789 415Q785 402 763 393Q715 377 704 382Q700 385 702 393Q705 400 722 412Z"></path>
<path id="z26326d15" d="M586 613Q577 591 550 580Q534 573 523 574Q516 575 517 586Q521 652 407 774Q404 775 403 778Q369 811 286 874Q279 878 287 881Q338 881 448 785Q455 776 465 768Q493 740 532 690C537 683 545 678 548 670Q557 652 570 640C577 633 590 623 586 613Z"></path>
<path id="z26326d16" d="M629 782Q569 863 440 896Q427 900 438 909Q444 913 482 911Q581 902 661 820C678 796 678 796 687 784Q712 744 738 686Q751 659 772 644Q791 631 780 616Q770 603 740 590Q718 581 691 592Q669 599 638 606Q616 610 586 613C576 615 560 638 570 640Q595 644 626 639Q663 627 671 628Q693 637 681 660Q668 711 648 751C635 772 635 772 629 782Z"></path>
<path id="z26326d17" d="M532 690Q565 709 629 782C650 807 650 807 661 820Q707 874 768 928Q798 961 951 937Q985 933 982 924Q979 915 825 869Q761 845 687 784C661 762 661 762 648 751Q626 729 601 703Q573 675 548 670C540 668 525 685 532 690Z"></path>
<defs>
	<clipPath id="z26326c1"><use xlink:href="#z26326d1"></use></clipPath>
	<clipPath id="z26326c2"><use xlink:href="#z26326d2"></use></clipPath>
	<clipPath id="z26326c3"><use xlink:href="#z26326d3"></use></clipPath>
	<clipPath id="z26326c4"><use xlink:href="#z26326d4"></use></clipPath>
	<clipPath id="z26326c5"><use xlink:href="#z26326d5"></use></clipPath>
	<clipPath id="z26326c6"><use xlink:href="#z26326d6"></use></clipPath>
	<clipPath id="z26326c7"><use xlink:href="#z26326d7"></use></clipPath>
	<clipPath id="z26326c8"><use xlink:href="#z26326d8"></use></clipPath>
	<clipPath id="z26326c9"><use xlink:href="#z26326d9"></use></clipPath>
	<clipPath id="z26326c10"><use xlink:href="#z26326d10"></use></clipPath>
	<clipPath id="z26326c11"><use xlink:href="#z26326d11"></use></clipPath>
	<clipPath id="z26326c12"><use xlink:href="#z26326d12"></use></clipPath>
	<clipPath id="z26326c13"><use xlink:href="#z26326d13"></use></clipPath>
	<clipPath id="z26326c14"><use xlink:href="#z26326d14"></use></clipPath>
	<clipPath id="z26326c15"><use xlink:href="#z26326d15"></use></clipPath>
	<clipPath id="z26326c16"><use xlink:href="#z26326d16"></use></clipPath>
	<clipPath id="z26326c17"><use xlink:href="#z26326d17"></use></clipPath>
</defs>
<path pathLength="3333" clip-path="url(#z26326c1)" d="M108 225L147 284L136 792"></path>
<path pathLength="3333" clip-path="url(#z26326c2)" d="M171 243L257 226L306 252L285 789"></path>
<path pathLength="3333" clip-path="url(#z26326c3)" d="M172 488L252 467"></path>
<path pathLength="3333" clip-path="url(#z26326c4)" d="M170 745L253 718"></path>
<path pathLength="3333" clip-path="url(#z26326c5)" d="M730 115L657 106L467 209"></path>
<path pathLength="3333" clip-path="url(#z26326c6)" d="M420 250L498 318"></path>
<path pathLength="3333" clip-path="url(#z26326c7)" d="M552 216L602 283"></path>
<path pathLength="3333" clip-path="url(#z26326c8)" d="M807 198L759 203L683 303"></path>
<path pathLength="3333" clip-path="url(#z26326c9)" d="M377 346L389 392L367 506"></path>
<path pathLength="3333" clip-path="url(#z26326c10)" d="M413 368L843 293L894 344L828 387"></path>
<path pathLength="3333" clip-path="url(#z26326c11)" d="M462 445L418 576"></path>
<path pathLength="3333" clip-path="url(#z26326c12)" d="M526 493L611 534L704 531L747 497L694 453"></path>
<path pathLength="3333" clip-path="url(#z26326c13)" d="M558 407L622 463"></path>
<path pathLength="3333" clip-path="url(#z26326c14)" d="M707 389L787 445"></path>
<path pathLength="3333" clip-path="url(#z26326c15)" d="M524 580L547 620L492 705L405 799L294 876"></path>
<path pathLength="3333" clip-path="url(#z26326c16)" d="M578 636L686 611L734 640L612 834L523 886L444 902"></path>
<path pathLength="3333" clip-path="url(#z26326c17)" d="M537 686L794 899L975 925"></path>
</svg>