<!--
AnimCJK 2016-2018 Copyright Francois Mizessyn, https://github.com/parsimonhi/animCJK
Derived from:
    MakeMeAHanzi project - https://github.com/skishore/makemeahanzi
    Arphic PL KaitiM GB - https://apps.ubuntu.com/cat/applications/precise/fonts-arphic-gkai00mp/
    Arphic PL UKai - https://apps.ubuntu.com/cat/applications/fonts-arphic-ukai/
You can redistribute and/or modify this file under the terms of the Arphic Public License
as published by Arphic Technology Co., Ltd.
You should have received a copy of this license (the directory "APL") along with this file;
if not, see http://ftp.gnu.org/non-gnu/chinese-fonts-truetype/LICENSE.
-->
<svg id="z26361" class="acjk" version="1.1" viewBox="0 0 1024 1024" xmlns="http://www.w3.org/2000/svg" xmlns:xlink="http://www.w3.org/1999/xlink">
<style>
<![CDATA[
@keyframes z26361k {
	from {
		stroke:#c00;
		stroke-dashoffset:3334;
	}
	75% {
		stroke:#c00;
		stroke-dashoffset:0;
	}
	to {
		stroke:#000;
	}
}
#z26361 path[clip-path] {
	animation:z26361k 1s linear both;
	stroke-dasharray:3334;
	stroke-width:128;
	stroke-linecap:round;
	fill:none;
}
#z26361 path[clip-path="url(#z26361c1)"] {animation-delay:1s;}
#z26361 path[clip-path="url(#z26361c2)"] {animation-delay:2s;}
#z26361 path[clip-path="url(#z26361c3)"] {animation-delay:3s;}
#z26361 path[clip-path="url(#z26361c4)"] {animation-delay:4s;}
#z26361 path[clip-path="url(#z26361c5)"] {animation-delay:5s;}
#z26361 path[clip-path="url(#z26361c6)"] {animation-delay:6s;}
#z26361 path[clip-path="url(#z26361c7)"] {animation-delay:7s;}
#z26361 path[clip-path="url(#z26361c8)"] {animation-delay:8s;}
#z26361 path[clip-path="url(#z26361c9)"] {animation-delay:9s;}
#z26361 path[clip-path="url(#z26361c10)"] {animation-delay:10s;}
#z26361 path[clip-path="url(#z26361c11)"] {animation-delay:11s;}
#z26361 path {fill:#ccc;}
]]>
</style>
<path id="z26361d1" d="M604 202Q727 181 737 174Q746 167 742 159Q736 147 710 139Q680 130 614 151L548 167Q517 171 486 179Q459 183 432 188L371 194Q325 197 275 199Q241 202 264 219Q297 243 352 236Q365 235 380 233L432 225Q487 216 547 209L604 202 Z"/>
<path id="z26361d2" d="M238 329Q217 319 196 317Q189 316 185 321Q178 328 189 338Q223 380 248 501Q254 549 291 581Q294 582 299 585Q317 589 314 558Q313 557 313 554L309 528Q305 509 297 491Q293 467 285 437Q278 400 273 371L238 329 Z"/>
<path id="z26361d3" d="M388 311Q294 326 238 329L273 371Q283 371 292 369Q331 357 391 348L435 340Q481 333 542 326L591 320Q714 305 737 319Q747 326 739 357Q711 469 698 496L691 518Q690 528 693 538Q697 556 712 556Q728 555 737 538Q750 523 780 447Q801 389 844 356Q866 338 849 320Q830 299 773 267Q757 255 674 272Q625 275 596 281L544 288Q483 294 433 304L388 311 Z"/>
<path id="z26361d4" d="M432 188Q432 169 434 161Q437 136 421 123Q396 104 367 95Q351 89 342 96Q333 103 341 119Q359 155 371 194L380 233Q383 258 388 311L391 348Q392 376 396 414L399 447Q400 478 403 515L446 509Q443 472 441 440L439 407Q436 371 435 340L433 304Q433 265 432 225L432 188 Z"/>
<path id="z26361d5" d="M614 151Q615 144 618 137Q625 118 629 102Q633 90 613 74Q579 52 553 47Q537 43 528 51Q519 58 527 74Q552 116 548 167L547 209Q546 246 544 288L542 326Q541 356 538 387L535 426Q531 459 528 496L572 490Q576 454 580 419L585 378Q588 348 591 320L596 281Q599 241 604 202L614 151 Z"/>
<path id="z26361d6" d="M538 387Q486 397 439 407L396 414Q365 418 336 424Q320 427 338 442Q353 454 385 449Q391 448 399 447L441 440Q489 431 535 426L580 419Q616 413 650 410Q672 409 665 395Q655 382 632 376Q613 372 585 378L538 387 Z"/>
<path id="z26361d7" d="M313 554Q329 558 356 556Q548 532 691 518L698 496Q677 472 610 484Q591 485 572 490L528 496Q485 502 446 509L403 515Q354 521 309 528L313 554 Z"/>
<path id="z26361d8" d="M379 628Q360 613 339 607Q330 606 325 613Q322 619 329 628Q354 691 337 824Q324 875 328 892Q335 922 346 933Q356 945 365 932Q375 920 381 893L385 865Q386 852 388 837Q388 804 388 774L389 746Q390 682 394 660L379 628 Z"/>
<path id="z26361d9" d="M558 880Q588 917 609 952Q618 970 629 969Q644 968 659 936Q675 899 672 855Q665 797 658 690Q657 660 673 639Q682 626 672 617Q654 598 603 576Q585 567 571 576Q529 595 379 628L394 660Q575 624 585 627Q588 628 592 631Q604 646 605 843Q604 847 604 853Q600 869 584 864L558 880 Z"/>
<path id="z26361d10" d="M388 774Q391 774 396 774Q478 762 538 756Q562 753 553 740Q543 725 517 720Q490 714 389 746L388 774 Z"/>
<path id="z26361d11" d="M381 893Q388 893 397 893Q488 883 558 880L584 864Q575 848 550 842Q517 836 385 865L381 893 Z"/>
<defs>
	<clipPath id="z26361c1"><use xlink:href="#z26361d1"/></clipPath>
	<clipPath id="z26361c2"><use xlink:href="#z26361d2"/></clipPath>
	<clipPath id="z26361c3"><use xlink:href="#z26361d3"/></clipPath>
	<clipPath id="z26361c4"><use xlink:href="#z26361d4"/></clipPath>
	<clipPath id="z26361c5"><use xlink:href="#z26361d5"/></clipPath>
	<clipPath id="z26361c6"><use xlink:href="#z26361d6"/></clipPath>
	<clipPath id="z26361c7"><use xlink:href="#z26361d7"/></clipPath>
	<clipPath id="z26361c8"><use xlink:href="#z26361d8"/></clipPath>
	<clipPath id="z26361c9"><use xlink:href="#z26361d9"/></clipPath>
	<clipPath id="z26361c10"><use xlink:href="#z26361d10"/></clipPath>
	<clipPath id="z26361c11"><use xlink:href="#z26361d11"/></clipPath>
</defs>
<path pathLength="3333" clip-path="url(#z26361c1)" d="M264 209L373 214L737 162"/>
<path pathLength="3333" clip-path="url(#z26361c2)" d="M190 324L245 382L296 581"/>
<path pathLength="3333" clip-path="url(#z26361c3)" d="M247 332L288 347L752 292L803 343L709 552"/>
<path pathLength="3333" clip-path="url(#z26361c4)" d="M344 100L399 161L433 509"/>
<path pathLength="3333" clip-path="url(#z26361c5)" d="M531 56L587 105L541 494"/>
<path pathLength="3333" clip-path="url(#z26361c6)" d="M337 430L662 397"/>
<path pathLength="3333" clip-path="url(#z26361c7)" d="M317 531L693 497"/>
<path pathLength="3333" clip-path="url(#z26361c8)" d="M330 614L367 680L351 932"/>
<path pathLength="3333" clip-path="url(#z26361c9)" d="M387 633L585 599L626 622L637 869L614 916L565 882"/>
<path pathLength="3333" clip-path="url(#z26361c10)" d="M393 767L550 744"/>
<path pathLength="3333" clip-path="url(#z26361c11)" d="M392 887L578 858"/>
</svg>