<!--
AnimCJK 2016-2017 Copyright Francois Mizessyn, http://gooo.free.fr/animCJK/
Derived from:
    MakeMeAHanzi project - https://github.com/skishore/makemeahanzi
    Arphic PL KaitiM GB - https://apps.ubuntu.com/cat/applications/precise/fonts-arphic-gkai00mp/
    Arphic PL UKai - https://apps.ubuntu.com/cat/applications/fonts-arphic-ukai/
You can redistribute and/or modify this file under the terms of the Arphic Public License
as published by Arphic Technology Co., Ltd.
You should have received a copy of this license (the directory "APL") along with this file;
if not, see http://ftp.gnu.org/non-gnu/chinese-fonts-truetype/LICENSE.
-->
<svg id="z26368" class="acjk" version="1.1" viewBox="0 0 1024 1024" xmlns="http://www.w3.org/2000/svg" xmlns:xlink="http://www.w3.org/1999/xlink">
<style>
<![CDATA[
	@keyframes z26368k {
		from {
			stroke:#c00;
			stroke-dashoffset:3000;
		}
		75% {
			stroke:#c00;
			stroke-dashoffset:0;
		}
		to {
			stroke:#000;
		}
	}
	#z26368 path[clip-path] {
		animation:z26368k 1s linear both;
		stroke-dasharray:3000;
		stroke-width:128;
		stroke-linecap:round;
		fill:none;
	}
	#z26368 path[clip-path="url(#z26368c1)"] {animation-delay:1s;}
	#z26368 path[clip-path="url(#z26368c2)"] {animation-delay:2s;}
	#z26368 path[clip-path="url(#z26368c3)"] {animation-delay:3s;}
	#z26368 path[clip-path="url(#z26368c4)"] {animation-delay:4s;}
	#z26368 path[clip-path="url(#z26368c5)"] {animation-delay:5s;}
	#z26368 path[clip-path="url(#z26368c6)"] {animation-delay:6s;}
	#z26368 path[clip-path="url(#z26368c7)"] {animation-delay:7s;}
	#z26368 path[clip-path="url(#z26368c8)"] {animation-delay:8s;}
	#z26368 path[clip-path="url(#z26368c9)"] {animation-delay:9s;}
	#z26368 path[clip-path="url(#z26368c10)"] {animation-delay:10s;}
	#z26368 path[clip-path="url(#z26368c11)"] {animation-delay:11s;}
	#z26368 path[clip-path="url(#z26368c12)"] {animation-delay:12s;}
	#z26368 path {fill:#ccc;}
]]>
</style>
<g transform="scale(1,-1) translate(0,-900)">
	<path id="z26368d1" d="M386 772Q376 779 341 784Q331 787 327 782Q321 776 329 761Q357 704 373 610Q376 582 393 563Q409 542 414 557Q417 567 418 581L417 605Q416 612 415 619Q411 641 407 658L403 682Q396 719 394 739L386 772Z"/>
	<path id="z26368d2" d="M581 596Q597 571 612 561Q622 554 638 573Q651 592 683 693Q693 723 716 746Q729 756 719 771Q704 787 665 815Q650 824 576 808Q570 808 458 786Q419 779 386 772L394 739Q394 740 396 741Q466 760 590 778Q618 782 627 773Q636 760 634 748Q610 640 598 628L581 596Z"/>
	<path id="z26368d3" d="M407 658Q416 664 580 684Q599 687 593 698Q584 710 563 714Q536 718 403 682L407 658Z"/>
	<path id="z26368d4" d="M418 581Q422 580 431 581Q515 591 581 596L598 628Q592 631 586 632Q568 635 417 605L418 581Z"/>
	<path id="z26368d5" d="M461 479Q575 497 811 497Q830 497 835 506Q841 516 824 530Q773 569 711 554Q537 524 164 473Q143 472 159 455Q172 442 190 436Q209 432 226 436Q239 440 255 444L294 452Q354 467 420 474L461 479Z"/>
	<path id="z26368d6" d="M255 444Q265 428 269 328Q269 271 270 169L307 179Q308 216 309 251L309 280Q310 316 311 347L311 376Q311 395 313 415Q319 431 294 452L255 444Z"/>
	<path id="z26368d7" d="M311 347Q363 363 403 371Q422 375 414 386Q404 396 382 398Q352 401 311 376L311 347Z"/>
	<path id="z26368d8" d="M309 251Q363 267 403 275Q422 279 413 290Q403 300 382 302Q357 303 309 280L309 251Z"/>
	<path id="z26368d9" d="M470 201Q492 211 509 223Q522 230 522 240Q516 246 504 243Q486 239 469 231L428 217Q370 199 307 179L270 169Q189 151 170 150Q157 149 155 139Q154 126 162 118Q184 102 218 83Q228 80 240 89Q273 113 426 181L470 201Z"/>
	<path id="z26368d10" d="M470 111Q470 157 470 201L469 231Q469 400 477 454Q477 466 461 479L420 474Q436 440 430 251Q429 235 428 217L426 181Q416 58 412 45Q403 14 434 -34Q444 -50 451 -54Q461 -55 466 -43Q475 -18 471 98L470 111Z"/>
	<path id="z26368d11" d="M678 198Q741 324 743 329Q750 360 777 387Q796 403 783 417Q770 427 738 439Q714 446 688 431Q663 421 628 409Q594 399 535 389Q522 388 517 381Q513 374 531 367Q567 354 615 369Q661 388 670 389Q694 388 688 361Q673 280 641 232L619 202Q564 144 471 112Q470 112 470 111L471 98Q556 83 649 166L678 198Z"/>
	<path id="z26368d12" d="M649 166Q743 58 779 52Q857 49 919 57Q950 61 949 69Q946 78 801 123Q741 147 678 198L641 232Q608 262 577 297Q546 331 517 332Q502 333 499 328Q498 324 510 313Q549 289 619 202L649 166Z"/>
	<defs>
		<clipPath id="z26368c1"><use xlink:href="#z26368d1"/></clipPath>
		<clipPath id="z26368c2"><use xlink:href="#z26368d2"/></clipPath>
		<clipPath id="z26368c3"><use xlink:href="#z26368d3"/></clipPath>
		<clipPath id="z26368c4"><use xlink:href="#z26368d4"/></clipPath>
		<clipPath id="z26368c5"><use xlink:href="#z26368d5"/></clipPath>
		<clipPath id="z26368c6"><use xlink:href="#z26368d6"/></clipPath>
		<clipPath id="z26368c7"><use xlink:href="#z26368d7"/></clipPath>
		<clipPath id="z26368c8"><use xlink:href="#z26368d8"/></clipPath>
		<clipPath id="z26368c9"><use xlink:href="#z26368d9"/></clipPath>
		<clipPath id="z26368c10"><use xlink:href="#z26368d10"/></clipPath>
		<clipPath id="z26368c11"><use xlink:href="#z26368d11"/></clipPath>
		<clipPath id="z26368c12"><use xlink:href="#z26368d12"/></clipPath>
	</defs>
	<path pathLength="2999" clip-path="url(#z26368c1)" d="M331 777L364 748L403 561"/>
	<path pathLength="2999" clip-path="url(#z26368c2)" d="M393 766L614 798L655 786L677 749L598 574"/>
	<path pathLength="2999" clip-path="url(#z26368c3)" d="M411 666L586 696"/>
	<path pathLength="2999" clip-path="url(#z26368c4)" d="M423 589L591 620"/>
	<path pathLength="2999" clip-path="url(#z26368c5)" d="M157 468L214 457L739 528L831 515"/>
	<path pathLength="2999" clip-path="url(#z26368c6)" d="M294 444L285 174"/>
	<path pathLength="2999" clip-path="url(#z26368c7)" d="M315 356L409 380"/>
	<path pathLength="2999" clip-path="url(#z26368c8)" d="M316 261L406 288"/>
	<path pathLength="2999" clip-path="url(#z26368c9)" d="M161 137L230 122L516 236"/>
	<path pathLength="2999" clip-path="url(#z26368c10)" d="M428 469L453 441L452 -44"/>
	<path pathLength="2999" clip-path="url(#z26368c11)" d="M524 379L694 411L738 390L631 181L564 132L477 107"/>
	<path pathLength="2999" clip-path="url(#z26368c12)" d="M508 327L768 97L941 67"/>
</g>
</svg>