<!--
AnimCJK 2016-2026 Copyright FM-SH, https://github.com/parsimonhi/animCJK
Derived from:
    MakeMeAHanzi project - https://github.com/skishore/makemeahanzi
    Arphic PL KaitiM GB font
    Arphic PL KaitiM Big5 font
You can redistribute and/or modify this file under the terms of the Arphic Public License
as published by Arphic Technology Co., Ltd.
You should have received a copy of this license along with this file.
If not, see https://ftp.gnu.org/non-gnu/chinese-fonts-truetype/LICENSE.
-->
<svg id="z26383" class="acjk" viewBox="0 0 1024 1024" xmlns="http://www.w3.org/2000/svg">
<style>
<![CDATA[
@keyframes zk {
	to {
		stroke-dashoffset:0;
	}
}
svg.acjk path[clip-path] {
	--t:0.8s;
	animation:zk var(--t) linear forwards var(--d);
	stroke-dasharray:3337;
	stroke-dashoffset:3339;
	stroke-width:128;
	stroke-linecap:round;
	fill:none;
	stroke:#000;
}
svg.acjk path[id] {fill:#ccc;}
]]>
</style>
<path id="z26383d1" d="M189 513Q201 453 203 381C204 358 204 358 204 346Q204 331 204 318Q204 228 212 205C216 194 200 184 190 178Q155 154 136 163Q127 170 133 183Q150 205 156 267Q156 474 136 572Q133 579 132 589Q107 688 42 819Q38 826 37 831Q36 841 45 838Q57 835 89 786Q154 698 183 549C187 525 187 525 189 513Z"/>
<path id="z26383d2" d="M212 205Q243 198 273 188Q291 184 296 195Q310 234 310 528Q307 762 295 782Q291 785 234 774Q216 767 217 776Q261 822 285 856Q297 874 311 879Q319 883 327 873Q364 822 363 776Q354 589 355 285Q354 230 366 206Q377 187 366 177Q346 159 314 145Q297 138 282 145Q247 166 190 178C179 180 201 207 212 205Z"/>
<path id="z26383d3" d="M203 381Q241 375 270 372Q291 368 282 355Q273 342 250 339Q232 338 204 346C193 350 192 383 203 381Z"/>
<path id="z26383d4" d="M183 549Q231 542 268 540Q291 536 282 524Q273 509 248 505Q225 501 189 513C178 518 171 551 183 549Z"/>
<path id="z26383d5" d="M662 761Q666 634 669 513C669 492 669 492 669 481Q672 294 694 185Q698 172 676 157Q639 138 612 133Q594 130 586 140Q579 147 587 164Q623 216 623 252Q627 367 627 491C627 514 627 514 627 526Q626 643 619 772C619 787 662 776 662 761Z"/>
<path id="z26383d6" d="M669 513Q763 488 795 487C807 487 817 452 806 454Q733 464 669 481C641 488 641 488 627 491Q563 507 508 527Q492 531 497 513Q509 434 500 421Q487 405 467 393Q457 389 448 390Q438 394 445 410Q461 450 455 490Q451 527 434 544Q419 560 426 571Q436 584 450 594Q463 600 471 593Q495 565 627 526C655 517 655 517 669 513Z"/>
<path id="z26383d7" d="M795 487Q795 509 808 544Q815 559 828 549Q850 528 859 448Q875 378 883 367Q890 354 882 340Q864 325 835 306Q823 299 811 304Q804 308 806 320Q830 353 806 454C804 465 795 475 795 487Z"/>
<path id="z26383d8" d="M831 727Q740 740 662 761C633 768 633 768 619 772Q552 788 497 808Q481 812 485 793Q491 753 498 711Q502 689 494 674Q460 635 436 639Q426 643 433 661Q452 710 442 760Q435 806 415 826Q397 842 405 856Q415 871 432 881Q445 888 455 881Q482 845 708 785Q807 761 832 767C845 769 844 724 831 727Z"/>
<path id="z26383d9" d="M832 767Q826 825 841 852Q844 856 848 863Q858 876 866 865Q884 841 877 770Q874 665 882 643Q886 630 876 619Q858 609 829 597Q817 593 808 599Q802 603 806 614Q824 635 831 727C832 754 832 754 832 767Z"/>
<defs>
	<clipPath id="z26383c1"><use href="#z26383d1"/></clipPath>
	<clipPath id="z26383c2"><use href="#z26383d2"/></clipPath>
	<clipPath id="z26383c3"><use href="#z26383d3"/></clipPath>
	<clipPath id="z26383c4"><use href="#z26383d4"/></clipPath>
	<clipPath id="z26383c5"><use href="#z26383d5"/></clipPath>
	<clipPath id="z26383c6"><use href="#z26383d6"/></clipPath>
	<clipPath id="z26383c7"><use href="#z26383d7"/></clipPath>
	<clipPath id="z26383c8"><use href="#z26383d8"/></clipPath>
	<clipPath id="z26383c9"><use href="#z26383d9"/></clipPath>
</defs>
<path style="--d:1s;" pathLength="3333" clip-path="url(#z26383c1)" d="M139 170L180 211L167 514L116 702L43 830"/>
<path style="--d:2s;" pathLength="3333" clip-path="url(#z26383c2)" d="M194 183L298 166L334 195L331 775L301 831L227 778"/>
<path style="--d:3s;" pathLength="3333" clip-path="url(#z26383c3)" d="M198 371L277 361"/>
<path style="--d:4s;" pathLength="3333" clip-path="url(#z26383c4)" d="M180 540L278 526"/>
<path style="--d:5s;" pathLength="3333" clip-path="url(#z26383c5)" d="M590 146L655 196L639 776"/>
<path style="--d:6s;" pathLength="3333" clip-path="url(#z26383c6)" d="M451 395L480 450L461 543L477 561L807 463"/>
<path style="--d:7s;" pathLength="3333" clip-path="url(#z26383c7)" d="M815 311L852 362L817 549"/>
<path style="--d:8s;" pathLength="3333" clip-path="url(#z26383c8)" d="M439 647L471 699L446 826L463 846L839 746"/>
<path style="--d:9s;" pathLength="3333" clip-path="url(#z26383c9)" d="M812 606L852 642L858 861"/>
</svg>