<!--
AnimCJK 2016-2025 Copyright FM-SH - https://github.com/parsimonhi/animCJK
Derived from:
    MakeMeAHanzi project - https://github.com/skishore/makemeahanzi
    Arphic PL KaitiM GB font
    Arphic PL KaitiM Big5 font
You can redistribute and/or modify this file under the terms of the Arphic Public License
as published by Arphic Technology Co., Ltd.
You should have received a copy of this license along with this file.
If not, see https://ftp.gnu.org/non-gnu/chinese-fonts-truetype/LICENSE.
-->
<svg id="z26479" class="acjk" viewBox="0 0 1024 1024" xmlns="http://www.w3.org/2000/svg">
<style>
<![CDATA[
@keyframes zk {
	to {
		stroke-dashoffset:0;
	}
}
svg.acjk path[clip-path] {
	--t:0.8s;
	animation:zk var(--t) linear forwards var(--d);
	stroke-dasharray:3337;
	stroke-dashoffset:3339;
	stroke-width:128;
	stroke-linecap:round;
	fill:none;
	stroke:#000;
}
svg.acjk path[id] {fill:#ccc;}
]]>
</style>
<path id="z26479d1" d="M333 379C393 364 424 353 428 351C432 346 434 340 431 335C426 328 414 322 396 318C366 311 349 322 334 327C303 336 303 336 288 341C218 362 193 369 112 380C89 383 85 392 103 402C139 422 161 421 272 394C313 384 313 384 333 379Z"/>
<path id="z26479d2" d="M331 457C331 432 332 406 333 379C334 344 334 344 334 327C335 247 336 182 354 136C360 118 361 105 343 92C332 84 316 75 298 63C281 51 266 49 253 61C249 64 248 72 254 82C274 115 287 155 287 207C287 251 289 295 288 341C285 432 285 432 284 478C280 606 274 693 264 739C252 789 254 832 271 870C276 881 281 887 286 891C291 894 294 894 300 889C303 885 311 878 318 864C325 847 327 828 327 807C326 780 331 671 331 480C331 465 331 465 331 457Z"/>
<path id="z26479d3" d="M272 394C234 488 159 600 54 735C49 740 53 745 60 746C64 746 68 743 75 738C159 668 229 582 285 478C326 409 302 319 272 394Z"/>
<path id="z26479d4" d="M331 480C335 484 341 488 349 495C367 509 386 526 406 545C412 551 420 554 429 554C435 553 438 550 441 543C443 536 442 525 438 509C432 488 400 471 345 458C338 456 333 455 331 457C323 459 325 475 331 480Z"/>
<path id="z26479d5" d="M685 277C731 269 792 261 866 259C898 258 917 256 921 249C924 241 920 232 909 225C870 201 831 200 790 211C670 241 563 262 470 279C457 281 455 287 466 297C484 314 506 319 532 312C564 302 599 291 637 285C669 280 669 280 685 277Z"/>
<path id="z26479d6" d="M650 452C692 384 710 344 715 338C720 330 719 321 714 312C704 295 694 284 685 277C672 267 634 269 637 285C645 311 638 355 610 414C597 440 597 440 591 453C548 540 477 632 382 731C377 735 375 739 375 744C375 746 377 748 381 748C401 745 438 719 490 667C491 665 492 663 494 662C536 618 577 567 614 509C638 471 638 471 650 452Z"/>
<path id="z26479d7" d="M614 509C622 529 620 607 612 706C609 740 602 776 594 813C587 843 594 875 618 909C618 909 619 910 621 912C632 923 643 919 651 901C661 874 665 845 665 814C660 645 658 541 665 504C668 485 669 473 663 466C658 461 654 456 650 452C623 427 623 427 610 414C607 411 604 409 601 409C594 407 589 409 587 414C582 422 583 435 591 453C606 490 606 490 614 509Z"/>
<path id="z26479d8" d="M744 575C788 609 837 652 890 704C902 716 913 725 924 728C930 729 935 724 941 717C948 706 947 687 937 657C924 620 859 583 743 543C735 540 732 541 732 551C731 561 736 568 744 575Z"/>
<defs>
	<clipPath id="z26479c1"><use href="#z26479d1"/></clipPath>
	<clipPath id="z26479c2"><use href="#z26479d2"/></clipPath>
	<clipPath id="z26479c3"><use href="#z26479d3"/></clipPath>
	<clipPath id="z26479c4"><use href="#z26479d4"/></clipPath>
	<clipPath id="z26479c5"><use href="#z26479d5"/></clipPath>
	<clipPath id="z26479c6"><use href="#z26479d6"/></clipPath>
	<clipPath id="z26479c7"><use href="#z26479d7"/></clipPath>
	<clipPath id="z26479c8"><use href="#z26479d8"/></clipPath>
</defs>
<path style="--d:1s;" pathLength="3333" clip-path="url(#z26479c1)" d="M104 392L424 342"/>
<path style="--d:2s;" pathLength="3333" clip-path="url(#z26479c2)" d="M257 66L320 136L288 889"/>
<path style="--d:3s;" pathLength="3333" clip-path="url(#z26479c3)" d="M278 400L209 560L63 740"/>
<path style="--d:4s;" pathLength="3333" clip-path="url(#z26479c4)" d="M337 465L434 547"/>
<path style="--d:5s;" pathLength="3333" clip-path="url(#z26479c5)" d="M465 286L526 291L817 233L916 240"/>
<path style="--d:6s;" pathLength="3333" clip-path="url(#z26479c6)" d="M645 292L677 332L615 461L521 601L383 742"/>
<path style="--d:7s;" pathLength="3333" clip-path="url(#z26479c7)" d="M595 414L641 499L626 911"/>
<path style="--d:8s;" pathLength="3333" clip-path="url(#z26479c8)" d="M738 552L878 642L936 720"/>
</svg>