<!--
AnimCJK 2016-2019 Copyright Francois Mizessyn - https://github.com/parsimonhi/animCJK
Derived from:
    MakeMeAHanzi project - https://github.com/skishore/makemeahanzi
    Arphic PL KaitiM GB font
    Arphic PL UKai font
You can redistribute and/or modify this file under the terms of the Arphic Public License
as published by Arphic Technology Co., Ltd.
You should have received a copy of this license along with this file.
If not, see http://ftp.gnu.org/non-gnu/chinese-fonts-truetype/LICENSE.
-->
<svg id="z26487" class="acjk" version="1.1" viewBox="0 0 1024 1024" xmlns="http://www.w3.org/2000/svg" xmlns:xlink="http://www.w3.org/1999/xlink">
<style>
<![CDATA[
@keyframes zk {
	to {
		stroke-dashoffset:0;
	}
}
svg.acjk path[clip-path] {
	--t:0.8s;
	animation:zk var(--t) linear forwards var(--d);
	stroke-dasharray:3337;
	stroke-dashoffset:3339;
	stroke-width:128;
	stroke-linecap:round;
	fill:none;
	stroke:#000;
}
svg.acjk path[id] {fill:#ccc;}
]]>
</style>
<path id="z26487d1" d="M326 408Q345 402 370 397Q410 387 416 381Q425 372 420 364Q411 352 382 346Q354 340 328 351C297 362 297 362 282 368Q162 398 109 406Q72 413 99 430Q150 452 199 437Q227 430 262 423C305 413 305 413 326 408Z"/>
<path id="z26487d2" d="M323 495Q324 453 326 408C327 370 327 370 328 351Q328 230 350 157Q363 130 339 113Q323 101 294 83Q270 65 249 81Q245 85 250 101Q280 150 282 228Q282 297 282 368C279 457 279 457 277 502Q273 572 273 647Q267 723 246 795Q234 834 259 897Q266 916 274 919Q280 926 288 917Q295 913 306 892Q316 867 316 836Q315 797 322 529C323 506 323 506 323 495Z"/>
<path id="z26487d3" d="M262 423Q211 540 55 726Q48 736 60 738Q79 741 188 627Q234 576 278 502C317 437 286 350 262 422C262 423 262 423 262 423Z"/>
<path id="z26487d4" d="M322 529Q350 557 380 592Q390 604 403 605Q412 606 417 595Q423 583 418 559Q415 540 388 522Q328 492 323 495C312 495 314 521 322 529Z"/>
<path id="z26487d5" d="M766 491Q796 371 837 338Q853 319 838 300Q757 240 702 272Q615 303 495 325C483 327 502 359 514 357Q524 356 538 351Q562 345 587 341C612 335 612 335 625 332Q725 305 737 316Q749 328 745 352Q732 425 713 485C706 502 763 508 766 491Z"/>
<path id="z26487d6" d="M587 341Q593 347 592 514C592 529 633 519 635 505Q651 358 652 357C651 356 651 356 651 356Q638 341 625 332C615 324 582 329 587 341Z"/>
<path id="z26487d7" d="M489 561Q502 567 519 564Q601 542 776 523Q786 522 788 512Q788 505 766 491C751 482 731 482 713 485Q712 485 711 485Q671 495 635 505C606 511 606 511 592 514Q537 524 489 533C480 535 480 558 489 561Z"/>
<path id="z26487d8" d="M957 763Q944 712 941 628Q940 612 934 606Q927 600 921 620Q893 723 876 740Q860 759 815 773Q758 786 680 789Q593 788 555 775Q522 759 515 737Q490 677 489 561C489 542 489 542 489 533Q492 430 511 377Q514 367 514 357C514 345 506 331 495 325Q449 294 435 298Q420 304 429 321Q450 358 447 414Q447 723 483 777Q513 825 614 837Q686 844 798 837Q898 828 938 806Q966 793 957 763Z"/>
<defs>
	<clipPath id="z26487c1"><use xlink:href="#z26487d1"/></clipPath>
	<clipPath id="z26487c2"><use xlink:href="#z26487d2"/></clipPath>
	<clipPath id="z26487c3"><use xlink:href="#z26487d3"/></clipPath>
	<clipPath id="z26487c4"><use xlink:href="#z26487d4"/></clipPath>
	<clipPath id="z26487c5"><use xlink:href="#z26487d5"/></clipPath>
	<clipPath id="z26487c6"><use xlink:href="#z26487d6"/></clipPath>
	<clipPath id="z26487c7"><use xlink:href="#z26487d7"/></clipPath>
	<clipPath id="z26487c8"><use xlink:href="#z26487d8"/></clipPath>
</defs>
<path style="--d:1s;" pathLength="3333" clip-path="url(#z26487c1)" d="M95 416L180 417L416 363"/>
<path style="--d:2s;" pathLength="3333" clip-path="url(#z26487c2)" d="M253 86L315 161L276 917"/>
<path style="--d:3s;" pathLength="3333" clip-path="url(#z26487c3)" d="M272 428L208 565L58 731"/>
<path style="--d:4s;" pathLength="3333" clip-path="url(#z26487c4)" d="M330 504L407 599"/>
<path style="--d:5s;" pathLength="3333" clip-path="url(#z26487c5)" d="M506 329L733 287L770 300L795 330L733 487"/>
<path style="--d:6s;" pathLength="3333" clip-path="url(#z26487c6)" d="M594 346L621 377L608 510"/>
<path style="--d:7s;" pathLength="3333" clip-path="url(#z26487c7)" d="M493 554L781 510"/>
<path style="--d:8s;" pathLength="3333" clip-path="url(#z26487c8)" d="M434 306L479 361L476 669L523 784L663 814L869 791L919 761L932 615"/>
</svg>