<!--
AnimCJK 2016-2018 Copyright Francois Mizessyn, https://github.com/parsimonhi/animCJK
Derived from:
    MakeMeAHanzi project - https://github.com/skishore/makemeahanzi
    Arphic PL KaitiM GB - https://apps.ubuntu.com/cat/applications/precise/fonts-arphic-gkai00mp/
    Arphic PL UKai - https://apps.ubuntu.com/cat/applications/fonts-arphic-ukai/
You can redistribute and/or modify this file under the terms of the Arphic Public License
as published by Arphic Technology Co., Ltd.
You should have received a copy of this license (the directory "APL") along with this file;
if not, see http://ftp.gnu.org/non-gnu/chinese-fonts-truetype/LICENSE.
-->
<svg id="z26485" class="acjk" version="1.1" viewBox="0 0 1024 1024" xmlns="http://www.w3.org/2000/svg" xmlns:xlink="http://www.w3.org/1999/xlink">
<style>
<![CDATA[
@keyframes z26485k {
	from {
		stroke:#c00;
		stroke-dashoffset:3334;
	}
	75% {
		stroke:#c00;
		stroke-dashoffset:0;
	}
	to {
		stroke:#000;
	}
}
#z26485 path[clip-path] {
	animation:z26485k 1s linear both;
	stroke-dasharray:3334;
	stroke-width:128;
	stroke-linecap:round;
	fill:none;
}
#z26485 path[clip-path="url(#z26485c1)"] {animation-delay:1s;}
#z26485 path[clip-path="url(#z26485c2)"] {animation-delay:2s;}
#z26485 path[clip-path="url(#z26485c3)"] {animation-delay:3s;}
#z26485 path[clip-path="url(#z26485c4)"] {animation-delay:4s;}
#z26485 path[clip-path="url(#z26485c5)"] {animation-delay:5s;}
#z26485 path[clip-path="url(#z26485c6)"] {animation-delay:6s;}
#z26485 path[clip-path="url(#z26485c7)"] {animation-delay:7s;}
#z26485 path[clip-path="url(#z26485c8)"] {animation-delay:8s;}
#z26485 path {fill:#ccc;}
]]>
</style>
<path id="z26485d1" d="M324 377Q352 368 381 362Q421 352 428 345Q437 336 432 328Q423 316 394 310Q358 304 325 321L279 337Q182 364 116 374Q79 381 107 397Q146 418 217 401Q236 395 259 393L324 377 Z"/>
<path id="z26485d2" d="M321 465Q322 423 324 377L325 321Q325 222 346 149Q359 122 335 105Q319 93 290 75Q266 57 245 73Q241 77 246 94Q277 142 278 189Q278 259 279 337L275 468Q271 546 271 630Q267 706 245 775Q235 814 259 877Q266 896 274 899Q280 906 288 897Q315 881 316 815Q315 775 321 498L321 465 Z"/>
<path id="z26485d3" d="M259 393Q205 519 55 703Q49 713 60 714Q66 715 75 707Q201 607 276 468L278 388L259 392 Z"/>
<path id="z26485d4" d="M321 498Q336 508 370 539Q383 549 396 548Q406 547 409 536Q413 523 403 497Q399 484 375 475Q324 462 321 465L321 498 Z"/>
<path id="z26485d5" d="M560 311Q596 260 633 187Q649 151 664 133Q673 121 666 109Q660 96 630 77Q602 62 583 65Q565 69 576 89Q597 125 542 248Q494 344 459 401Q450 411 449 418Q448 430 460 426Q488 414 548 329L560 311 Z"/>
<path id="z26485d6" d="M686 336Q851 296 855 293Q865 284 859 276Q852 264 822 257Q798 254 704 283Q574 308 565 310Q562 310 560 311L548 329Q570 351 629 348L686 336 Z"/>
<path id="z26485d7" d="M708 533Q780 523 932 523Q951 523 956 514Q960 504 944 490Q890 453 833 467Q781 477 709 491L653 500Q559 513 448 530Q427 533 443 549Q456 562 474 567Q495 571 510 567Q577 548 653 540L708 533 Z"/>
<path id="z26485d8" d="M654 922Q658 947 666 957Q672 964 679 962Q694 952 701 893Q708 821 708 750Q705 701 708 533L709 491Q709 445 721 379Q724 360 710 351Q697 341 686 336L629 348Q648 388 652 407Q652 452 653 500L653 540Q647 861 654 922 Z"/>
<defs>
	<clipPath id="z26485c1"><use xlink:href="#z26485d1"/></clipPath>
	<clipPath id="z26485c2"><use xlink:href="#z26485d2"/></clipPath>
	<clipPath id="z26485c3"><use xlink:href="#z26485d3"/></clipPath>
	<clipPath id="z26485c4"><use xlink:href="#z26485d4"/></clipPath>
	<clipPath id="z26485c5"><use xlink:href="#z26485d5"/></clipPath>
	<clipPath id="z26485c6"><use xlink:href="#z26485d6"/></clipPath>
	<clipPath id="z26485c7"><use xlink:href="#z26485d7"/></clipPath>
	<clipPath id="z26485c8"><use xlink:href="#z26485d8"/></clipPath>
</defs>
<path pathLength="3333" clip-path="url(#z26485c1)" d="M104 385L426 332"/>
<path pathLength="3333" clip-path="url(#z26485c2)" d="M249 76L312 152L284 897"/>
<path pathLength="3333" clip-path="url(#z26485c3)" d="M273 397L204 540L61 707"/>
<path pathLength="3333" clip-path="url(#z26485c4)" d="M326 475L405 538"/>
<path pathLength="3333" clip-path="url(#z26485c5)" d="M578 71L625 123L552 281L457 418"/>
<path pathLength="3333" clip-path="url(#z26485c6)" d="M553 325L854 279"/>
<path pathLength="3333" clip-path="url(#z26485c7)" d="M447 543L856 493L953 508"/>
<path pathLength="3333" clip-path="url(#z26485c8)" d="M637 352L685 390L673 955"/>
</svg>