<!--
AnimCJK 2016-2019 Copyright Francois Mizessyn - https://github.com/parsimonhi/animCJK
Derived from:
    MakeMeAHanzi project - https://github.com/skishore/makemeahanzi
    Arphic PL KaitiM GB font
    Arphic PL UKai font
You can redistribute and/or modify this file under the terms of the Arphic Public License
as published by Arphic Technology Co., Ltd.
You should have received a copy of this license along with this file.
If not, see http://ftp.gnu.org/non-gnu/chinese-fonts-truetype/LICENSE.
-->
<svg id="z26512" class="acjk" version="1.1" viewBox="0 0 1024 1024" xmlns="http://www.w3.org/2000/svg" xmlns:xlink="http://www.w3.org/1999/xlink">
<style>
<![CDATA[
@keyframes zk {
	to {
		stroke-dashoffset:0;
	}
}
svg.acjk path[clip-path] {
	--t:0.8s;
	animation:zk var(--t) linear forwards var(--d);
	stroke-dasharray:3337;
	stroke-dashoffset:3339;
	stroke-width:128;
	stroke-linecap:round;
	fill:none;
	stroke:#000;
}
svg.acjk path[id] {fill:#ccc;}
]]>
</style>
<path id="z26512d1" d="M329 360C393 342 426 331 428 329C434 323 435 317 432 312C427 304 414 297 394 294C373 290 353 294 333 304C332 304 331 304 331 305C301 316 301 316 286 322C219 347 162 353 120 361C95 365 91 375 110 385C139 401 173 402 263 378C307 366 307 366 329 360Z"/>
<path id="z26512d2" d="M326 445C326 418 327 390 329 360C330 323 330 323 331 305C333 236 336 175 354 125C360 106 358 92 343 81C332 73 316 63 298 51C281 39 266 38 253 49C250 51 248 59 254 69C273 103 286 134 286 167C286 215 288 266 286 322C283 410 283 410 281 454C275 592 270 677 264 709C250 775 246 817 252 838C254 847 258 858 263 869C268 881 273 887 278 891C283 894 285 894 292 889C296 885 303 878 310 864C317 847 320 828 320 808C319 781 326 669 326 472C326 454 326 454 326 445Z"/>
<path id="z26512d3" d="M263 378C228 462 155 572 46 710C41 716 43 721 52 722C67 722 112 682 184 602C218 563 250 514 282 454C320 390 291 309 263 378Z"/>
<path id="z26512d4" d="M326 472C350 490 375 511 404 537C411 543 420 547 428 547C434 546 438 542 441 536C444 527 442 515 437 499C432 486 422 472 402 465C356 447 330 443 326 445C317 445 319 467 326 472Z"/>
<path id="z26512d5" d="M568 275C634 250 670 232 726 207C756 192 777 182 810 172C821 168 828 166 830 161C832 153 829 144 820 139C776 113 742 103 720 109C714 110 712 117 713 125C713 149 662 193 558 259C553 263 562 277 568 275Z"/>
<path id="z26512d6" d="M564 410C565 385 563 294 568 275C569 269 563 262 558 259C531 242 497 235 488 238C475 241 475 248 486 263C511 298 518 376 509 496C506 528 496 564 484 604C471 642 441 688 394 741C385 750 379 756 378 761C376 765 380 767 388 767C412 765 444 740 483 694C529 638 554 553 562 440C563 420 563 420 564 410Z"/>
<path id="z26512d7" d="M740 415C780 407 834 402 902 401C930 400 948 398 953 391C956 384 952 375 942 369C902 343 866 344 830 354C784 366 736 376 564 410C554 412 552 438 562 440C578 444 597 445 621 440C637 436 654 430 675 427C718 419 718 419 740 415Z"/>
<path id="z26512d8" d="M701 928C704 945 707 958 713 965C716 969 722 972 727 970C737 965 744 940 749 898C753 857 756 816 755 775C750 620 753 512 766 452C768 439 765 429 755 424C750 421 745 418 740 415C721 404 664 408 675 427C685 441 694 476 695 532C700 794 700 925 701 928Z"/>
<defs>
	<clipPath id="z26512c1"><use xlink:href="#z26512d1"/></clipPath>
	<clipPath id="z26512c2"><use xlink:href="#z26512d2"/></clipPath>
	<clipPath id="z26512c3"><use xlink:href="#z26512d3"/></clipPath>
	<clipPath id="z26512c4"><use xlink:href="#z26512d4"/></clipPath>
	<clipPath id="z26512c5"><use xlink:href="#z26512d5"/></clipPath>
	<clipPath id="z26512c6"><use xlink:href="#z26512d6"/></clipPath>
	<clipPath id="z26512c7"><use xlink:href="#z26512d7"/></clipPath>
	<clipPath id="z26512c8"><use xlink:href="#z26512d8"/></clipPath>
</defs>
<path style="--d:1s;" pathLength="3333" clip-path="url(#z26512c1)" d="M105 372L188 372L429 314"/>
<path style="--d:2s;" pathLength="3333" clip-path="url(#z26512c2)" d="M256 51L320 115L280 889"/>
<path style="--d:3s;" pathLength="3333" clip-path="url(#z26512c3)" d="M279 380L195 550L52 717"/>
<path style="--d:4s;" pathLength="3333" clip-path="url(#z26512c4)" d="M332 450L433 541"/>
<path style="--d:5s;" pathLength="3333" clip-path="url(#z26512c5)" d="M 722,114 773,156 564,264"/>
<path style="--d:6s;" pathLength="3333" clip-path="url(#z26512c6)" d="M485 246L533 283L526 538L486 652L386 759"/>
<path style="--d:7s;" pathLength="3333" clip-path="url(#z26512c7)" d="M571 435L856 375L949 379"/>
<path style="--d:8s;" pathLength="3333" clip-path="url(#z26512c8)" d="M684 429L727 455L724 962"/>
</svg>