<!--
AnimCJK 2016-2018 Copyright Francois Mizessyn, https://github.com/parsimonhi/animCJK
Derived from:
    MakeMeAHanzi project - https://github.com/skishore/makemeahanzi
    Arphic PL KaitiM GB - https://apps.ubuntu.com/cat/applications/precise/fonts-arphic-gkai00mp/
    Arphic PL UKai - https://apps.ubuntu.com/cat/applications/fonts-arphic-ukai/
You can redistribute and/or modify this file under the terms of the Arphic Public License
as published by Arphic Technology Co., Ltd.
You should have received a copy of this license (the directory "APL") along with this file;
if not, see http://ftp.gnu.org/non-gnu/chinese-fonts-truetype/LICENSE.
-->
<svg id="z26528" class="acjk" version="1.1" viewBox="0 0 1024 1024" xmlns="http://www.w3.org/2000/svg" xmlns:xlink="http://www.w3.org/1999/xlink">
<style>
<![CDATA[
@keyframes z26528k {
	from {
		stroke:#c00;
		stroke-dashoffset:3334;
	}
	75% {
		stroke:#c00;
		stroke-dashoffset:0;
	}
	to {
		stroke:#000;
	}
}
#z26528 path[clip-path] {
	animation:z26528k 1s linear both;
	stroke-dasharray:3334;
	stroke-width:128;
	stroke-linecap:round;
	fill:none;
}
#z26528 path[clip-path="url(#z26528c1)"] {animation-delay:1s;}
#z26528 path[clip-path="url(#z26528c2)"] {animation-delay:2s;}
#z26528 path[clip-path="url(#z26528c3)"] {animation-delay:3s;}
#z26528 path[clip-path="url(#z26528c4)"] {animation-delay:4s;}
#z26528 path[clip-path="url(#z26528c5)"] {animation-delay:5s;}
#z26528 path[clip-path="url(#z26528c6)"] {animation-delay:6s;}
#z26528 path[clip-path="url(#z26528c7)"] {animation-delay:7s;}
#z26528 path[clip-path="url(#z26528c8)"] {animation-delay:8s;}
#z26528 path {fill:#ccc;}
]]>
</style>
<path id="z26528d1" d="M311 359Q335 352 364 345Q403 335 408 329Q417 320 412 312Q403 300 374 294Q343 290 313 303L269 320Q178 347 108 357Q71 366 98 381Q143 405 202 386Q224 379 253 374L311 359 Z"/>
<path id="z26528d2" d="M309 423Q309 392 311 359L313 303Q314 212 333 150Q342 135 339 122Q332 112 278 79Q256 63 235 77Q231 81 236 97Q267 145 268 193Q268 251 269 320L265 465Q261 546 261 634Q255 710 235 779Q223 822 249 878Q255 896 263 899Q269 906 276 897Q283 893 294 873Q304 848 303 818Q302 775 308 456L309 423 Z"/>
<path id="z26528d3" d="M253 374Q202 515 46 723Q40 733 52 734Q74 734 183 600Q226 545 265 465L267 371L253 374 Z"/>
<path id="z26528d4" d="M308 456Q312 457 358 506Q368 516 381 517Q388 517 393 507Q397 497 392 473Q385 446 313 423Q310 422 309 423L308 456 Z"/>
<path id="z26528d5" d="M464 571C459 571 455 566 457 561C461 551 469 544 473 535C497 498 520 460 538 420C555 380 570 339 577 296C584 248 590 199 588 150C588 136 585 123 580 111C577 101 585 91 595 91C608 91 619 100 630 105C641 111 652 119 659 129C662 132 658 137 658 141C653 170 649 199 642 227C638 241 638 256 634 270C625 320 610 369 589 416C580 434 572 453 561 471C539 501 518 533 490 558C482 563 474 570 464 571 Z"/>
<path id="z26528d6" d="M630 272Q705 246 712 250Q719 254 716 267Q650 500 822 552Q900 570 929 562Q948 556 941 532Q925 495 916 452Q915 428 908 422Q902 416 897 429Q876 494 860 506Q844 512 827 506Q796 497 772 473Q733 437 740 361Q749 288 794 254Q807 246 803 238Q796 227 748 210Q735 204 721 211Q694 225 637 241L584 253Q542 261 507 263Q494 264 500 275Q504 284 525 290Q546 296 566 291Q570 289 578 288L630 272 Z"/>
<path id="z26528d7" d="M677 651Q762 642 885 642Q942 645 951 634Q957 623 940 610Q882 569 823 587Q765 596 680 612L617 619Q514 632 396 648Q375 649 391 666Q404 678 423 684Q445 690 460 685Q533 665 617 657L677 651 Z"/>
<path id="z26528d8" d="M619 926Q623 950 630 959Q636 965 643 963Q670 943 672 804Q671 764 677 618L680 579Q680 576 681 575Q684 561 687 549Q691 532 677 523Q646 503 630 500Q618 496 602 504Q593 510 600 521Q615 546 617 586L617 624Q617 911 619 926 Z"/>
<defs>
	<clipPath id="z26528c1"><use xlink:href="#z26528d1"/></clipPath>
	<clipPath id="z26528c2"><use xlink:href="#z26528d2"/></clipPath>
	<clipPath id="z26528c3"><use xlink:href="#z26528d3"/></clipPath>
	<clipPath id="z26528c4"><use xlink:href="#z26528d4"/></clipPath>
	<clipPath id="z26528c5"><use xlink:href="#z26528d5"/></clipPath>
	<clipPath id="z26528c6"><use xlink:href="#z26528d6"/></clipPath>
	<clipPath id="z26528c7"><use xlink:href="#z26528d7"/></clipPath>
	<clipPath id="z26528c8"><use xlink:href="#z26528d8"/></clipPath>
</defs>
<path pathLength="3333" clip-path="url(#z26528c1)" d="M96 370L409 317"/>
<path pathLength="3333" clip-path="url(#z26528c2)" d="M240 79L300 137L267 895"/>
<path pathLength="3333" clip-path="url(#z26528c3)" d="M259 381L197 541L53 727"/>
<path pathLength="3333" clip-path="url(#z26528c4)" d="M314 429L386 510"/>
<path pathLength="3333" clip-path="url(#z26528c5)" d="M588 96L624 138L596 325L549 447L464 564"/>
<path pathLength="3333" clip-path="url(#z26528c6)" d="M507 270L560 275L723 228L753 242L721 341L723 430L749 481L809 524L908 518L904 426"/>
<path pathLength="3333" clip-path="url(#z26528c7)" d="M389 653L456 663L845 612L946 622"/>
<path pathLength="3333" clip-path="url(#z26528c8)" d="M602 511L650 550L637 959"/>
</svg>