<!--
AnimCJK 2016-2018 Copyright Francois Mizessyn, https://github.com/parsimonhi/animCJK
Derived from:
    MakeMeAHanzi project - https://github.com/skishore/makemeahanzi
    Arphic PL KaitiM GB - https://apps.ubuntu.com/cat/applications/precise/fonts-arphic-gkai00mp/
    Arphic PL UKai - https://apps.ubuntu.com/cat/applications/fonts-arphic-ukai/
You can redistribute and/or modify this file under the terms of the Arphic Public License
as published by Arphic Technology Co., Ltd.
You should have received a copy of this license (the directory "APL") along with this file;
if not, see http://ftp.gnu.org/non-gnu/chinese-fonts-truetype/LICENSE.
-->
<svg id="z26525" class="acjk" version="1.1" viewBox="0 0 1024 1024" xmlns="http://www.w3.org/2000/svg" xmlns:xlink="http://www.w3.org/1999/xlink">
<style>
<![CDATA[
@keyframes z26525k {
	from {
		stroke:#c00;
		stroke-dashoffset:3334;
	}
	75% {
		stroke:#c00;
		stroke-dashoffset:0;
	}
	to {
		stroke:#000;
	}
}
#z26525 path[clip-path] {
	animation:z26525k 1s linear both;
	stroke-dasharray:3334;
	stroke-width:128;
	stroke-linecap:round;
	fill:none;
}
#z26525 path[clip-path="url(#z26525c1)"] {animation-delay:1s;}
#z26525 path[clip-path="url(#z26525c2)"] {animation-delay:2s;}
#z26525 path[clip-path="url(#z26525c3)"] {animation-delay:3s;}
#z26525 path[clip-path="url(#z26525c4)"] {animation-delay:4s;}
#z26525 path[clip-path="url(#z26525c5)"] {animation-delay:5s;}
#z26525 path[clip-path="url(#z26525c6)"] {animation-delay:6s;}
#z26525 path[clip-path="url(#z26525c7)"] {animation-delay:7s;}
#z26525 path[clip-path="url(#z26525c8)"] {animation-delay:8s;}
#z26525 path {fill:#ccc;}
]]>
</style>
<path id="z26525d1" d="M344 405Q437 378 440 375Q447 368 443 359Q436 349 408 342Q362 336 345 352L302 368Q194 395 144 404Q108 411 134 426Q179 445 248 427Q266 421 287 419L344 405 Z"/>
<path id="z26525d2" d="M342 509Q342 460 344 405L345 352Q345 234 365 162Q380 137 350 117Q335 105 310 91Q288 75 267 89Q263 93 269 109Q299 158 301 235Q301 301 302 368L297 524Q293 698 284 742Q263 838 267 850Q274 874 284 898Q291 916 299 919Q305 926 312 917Q339 901 339 838Q338 801 341 542L342 509 Z"/>
<path id="z26525d3" d="M287 419Q238 552 74 769Q67 781 80 781Q87 782 97 773Q218 668 298 524L301 415L287 418 Z"/>
<path id="z26525d4" d="M341 542Q362 555 402 591Q415 601 428 600Q438 599 441 588Q445 575 435 549Q429 533 403 522Q376 515 347 509Q344 508 342 509L341 542 Z"/>
<path id="z26525d5" d="M666 360Q826 321 831 317Q840 308 835 300Q828 288 798 281Q767 275 736 288Q703 298 670 310L621 323Q567 333 505 342Q468 349 495 366Q540 390 598 374Q607 371 620 370L666 360 Z"/>
<path id="z26525d6" d="M657 489Q661 422 666 360L670 310Q674 201 694 118Q698 108 678 92Q642 73 618 68Q602 65 594 74Q587 81 594 96Q618 130 618 154Q621 235 621 323L620 370Q619 433 615 502L657 489 Z"/>
<path id="z26525d7" d="M673 723Q727 641 754 581Q760 550 793 521Q812 505 799 491Q786 478 754 466Q733 459 657 489L615 502Q572 512 507 521Q492 522 488 530Q484 537 503 545Q540 558 592 542Q668 515 683 516Q705 517 699 542Q675 635 634 689L608 720Q533 784 421 816Q406 820 418 829Q424 833 468 831Q561 824 637 758L673 723 Z"/>
<path id="z26525d8" d="M637 758Q686 815 771 887Q799 909 843 900Q898 890 940 883Q953 880 965 875Q972 868 961 859Q945 852 826 815Q751 791 673 723L634 689Q600 655 564 615Q545 593 512 588Q500 587 491 593Q487 600 495 608Q537 633 608 720L637 758 Z"/>
<defs>
	<clipPath id="z26525c1"><use xlink:href="#z26525d1"/></clipPath>
	<clipPath id="z26525c2"><use xlink:href="#z26525d2"/></clipPath>
	<clipPath id="z26525c3"><use xlink:href="#z26525d3"/></clipPath>
	<clipPath id="z26525c4"><use xlink:href="#z26525d4"/></clipPath>
	<clipPath id="z26525c5"><use xlink:href="#z26525d5"/></clipPath>
	<clipPath id="z26525c6"><use xlink:href="#z26525d6"/></clipPath>
	<clipPath id="z26525c7"><use xlink:href="#z26525d7"/></clipPath>
	<clipPath id="z26525c8"><use xlink:href="#z26525d8"/></clipPath>
</defs>
<path pathLength="3333" clip-path="url(#z26525c1)" d="M131 413L441 363"/>
<path pathLength="3333" clip-path="url(#z26525c2)" d="M272 93L331 157L306 915"/>
<path pathLength="3333" clip-path="url(#z26525c3)" d="M293 425L254 548L81 773"/>
<path pathLength="3333" clip-path="url(#z26525c4)" d="M348 517L428 595"/>
<path pathLength="3333" clip-path="url(#z26525c5)" d="M493 354L832 306"/>
<path pathLength="3333" clip-path="url(#z26525c6)" d="M598 80L654 128L636 489L620 494"/>
<path pathLength="3333" clip-path="url(#z26525c7)" d="M491 532L720 494L752 521L622 739L531 797L421 824"/>
<path pathLength="3333" clip-path="url(#z26525c8)" d="M496 595L795 851L960 864"/>
</svg>