<!--
AnimCJK 2016-2026 Copyright FM-SH - https://github.com/parsimonhi/animCJK
Derived from:
    MakeMeAHanzi project - https://github.com/skishore/makemeahanzi
    Arphic PL KaitiM GB font
    Arphic PL KaitiM Big5 font
You can redistribute and/or modify this file under the terms of the Arphic Public License
as published by Arphic Technology Co., Ltd.
You should have received a copy of this license along with this file.
If not, see https://ftp.gnu.org/non-gnu/chinese-fonts-truetype/LICENSE.
-->
<svg id="z26566" class="acjk" viewBox="0 0 1024 1024" xmlns="http://www.w3.org/2000/svg">
<style>
<![CDATA[
@keyframes zk {
	to {
		stroke-dashoffset:0;
	}
}
svg.acjk path[clip-path] {
	--t:0.8s;
	animation:zk var(--t) linear forwards var(--d);
	stroke-dasharray:3337;
	stroke-dashoffset:3339;
	stroke-width:128;
	stroke-linecap:round;
	fill:none;
	stroke:#000;
}
svg.acjk path[id] {fill:#ccc;}
]]>
</style>
<path id="z26566d1" d="M326 368C394 351 425 343 434 337C459 318 407 303 400 302C372 297 350 308 327 315C299 323 299 323 285 327C222 344 143 359 127 362C102 365 97 376 117 386C169 411 219 393 272 381C308 372 308 372 326 368Z"/>
<path id="z26566d2" d="M323 506C323 463 325 417 326 368C327 333 327 333 327 315C328 250 330 192 347 146C353 127 350 114 332 101C320 93 309 85 292 75C274 65 232 58 251 93C285 158 286 246 285 327C283 428 283 428 282 478C279 586 269 717 252 791C243 825 248 855 266 890C283 927 299 918 311 887C315 872 321 853 321 830C320 804 323 708 323 538C323 517 323 517 323 506Z"/>
<path id="z26566d3" d="M272 381C234 488 198 550 90 698C72 724 75 741 103 717C118 705 204 631 283 478C316 397 300 297 272 380C272 381 272 381 272 381Z"/>
<path id="z26566d4" d="M323 538C362 570 387 606 411 606C415 606 420 602 423 595C432 563 412 539 387 527C362 515 343 509 323 506C312 504 314 532 323 538Z"/>
<path id="z26566d5" d="M614 188C634 203 654 222 675 242C687 253 716 268 726 239C729 228 727 211 720 189C715 174 702 159 679 152C623 133 589 128 582 133C577 135 575 142 578 152C579 160 593 171 614 188Z"/>
<path id="z26566d6" d="M510 367C481 370 477 379 498 392C529 410 566 414 608 407C666 396 726 386 788 374C799 371 852 365 841 342C836 333 823 324 801 319C783 314 743 325 681 340C595 359 537 364 510 367Z"/>
<path id="z26566d7" d="M497 525C519 591 539 628 555 636C555 636 589 648 585 593C583 576 573 563 560 549C537 525 521 508 511 501C506 498 501 500 498 507C495 511 494 517 497 525Z"/>
<path id="z26566d8" d="M693 709C727 641 754 568 798 506C820 472 790 457 754 439C730 427 706 431 713 455C731 520 698 588 656 715C651 727 687 720 693 709Z"/>
<path id="z26566d9" d="M656 715C631 718 550 726 401 740C385 741 382 748 394 761C418 787 452 789 470 786C602 755 753 748 924 761C957 763 962 741 941 724C900 691 859 682 817 691C782 697 740 701 693 709C668 713 668 713 656 715Z"/>
<defs>
	<clipPath id="z26566c1"><use href="#z26566d1"/></clipPath>
	<clipPath id="z26566c2"><use href="#z26566d2"/></clipPath>
	<clipPath id="z26566c3"><use href="#z26566d3"/></clipPath>
	<clipPath id="z26566c4"><use href="#z26566d4"/></clipPath>
	<clipPath id="z26566c5"><use href="#z26566d5"/></clipPath>
	<clipPath id="z26566c6"><use href="#z26566d6"/></clipPath>
	<clipPath id="z26566c7"><use href="#z26566d7"/></clipPath>
	<clipPath id="z26566c8"><use href="#z26566d8"/></clipPath>
	<clipPath id="z26566c9"><use href="#z26566d9"/></clipPath>
</defs>
<path style="--d:1s;" pathLength="3333" clip-path="url(#z26566c1)" d="M110 374L435 326"/>
<path style="--d:2s;" pathLength="3333" clip-path="url(#z26566c2)" d="M253 73L311 140L286 910"/>
<path style="--d:3s;" pathLength="3333" clip-path="url(#z26566c3)" d="M289 360L240 511L85 723"/>
<path style="--d:4s;" pathLength="3333" clip-path="url(#z26566c4)" d="M322 513L412 600"/>
<path style="--d:5s;" pathLength="3333" clip-path="url(#z26566c5)" d="M583 141L679 194L714 251"/>
<path style="--d:6s;" pathLength="3333" clip-path="url(#z26566c6)" d="M492 381L838 348"/>
<path style="--d:7s;" pathLength="3333" clip-path="url(#z26566c7)" d="M506 503L566 633"/>
<path style="--d:8s;" pathLength="3333" clip-path="url(#z26566c8)" d="M719 442L760 499L661 715"/>
<path style="--d:9s;" pathLength="3333" clip-path="url(#z26566c9)" d="M391 748L446 761L840 721L949 735"/>
</svg>