<!--
AnimCJK 2016-2026 Copyright FM-SH - https://github.com/parsimonhi/animCJK
Derived from:
    MakeMeAHanzi project - https://github.com/skishore/makemeahanzi
    Arphic PL KaitiM GB font
    Arphic PL KaitiM Big5 font
You can redistribute and/or modify this file under the terms of the Arphic Public License
as published by Arphic Technology Co., Ltd.
You should have received a copy of this license along with this file.
If not, see https://ftp.gnu.org/non-gnu/chinese-fonts-truetype/LICENSE.
-->
<svg id="z26574" class="acjk" viewBox="0 0 1024 1024" xmlns="http://www.w3.org/2000/svg">
<style>
<![CDATA[
@keyframes zk {
	to {
		stroke-dashoffset:0;
	}
}
svg.acjk path[clip-path] {
	--t:0.8s;
	animation:zk var(--t) linear forwards var(--d);
	stroke-dasharray:3337;
	stroke-dashoffset:3339;
	stroke-width:128;
	stroke-linecap:round;
	fill:none;
	stroke:#000;
}
svg.acjk path[id] {fill:#ccc;}
]]>
</style>
<path id="z26574d1" d="M320 368C388 351 419 343 428 337C453 318 400 303 394 302C365 297 344 308 321 315C293 323 293 323 279 327C216 344 137 359 121 362C96 365 90 376 111 386C162 411 213 393 266 381C302 372 302 372 320 368Z"/>
<path id="z26574d2" d="M317 434C317 411 319 385 320 368C321 333 321 333 321 315C322 250 324 192 341 146C347 127 344 114 326 101C314 93 303 85 286 75C268 65 226 58 245 93C279 158 280 246 279 327C277 428 277 428 276 478C273 586 263 717 246 791C237 825 242 855 260 890C277 927 293 918 305 887C309 872 315 853 315 830C314 804 317 636 317 466C317 445 317 445 317 434Z"/>
<path id="z26574d3" d="M266 381C228 488 191 549 84 698C65 723 68 740 97 717C111 704 198 631 277 478C322 403 294 297 266 380C266 381 266 381 266 381Z"/>
<path id="z26574d4" d="M317 466C356 498 369 520 393 520C397 520 402 516 405 509C421 453 352 439 317 434C306 432 308 460 317 466Z"/>
<path id="z26574d5" d="M496 476C517 445 590 323 628 260C638 241 627 225 597 207C558 183 536 189 545 217C563 280 462 465 375 585C357 608 348 636 388 605C415 583 458 528 476 504C489 485 489 485 496 476Z"/>
<path id="z26574d6" d="M476 504C512 588 493 684 483 758C475 807 474 842 501 869C511 878 521 875 528 859C537 834 541 807 541 781C539 651 538 584 544 556C547 539 547 527 542 522C518 493 504 478 496 476C485 472 472 493 476 504Z"/>
<path id="z26574d7" d="M821 420C847 414 871 410 908 407C957 402 981 395 948 374C925 359 908 354 886 354C865 354 841 363 821 370C786 381 786 381 769 386C697 408 633 425 560 443C547 445 544 453 556 462C581 483 601 481 625 474C656 463 739 437 770 431C804 424 804 424 821 420Z"/>
<path id="z26574d8" d="M770 431C771 518 771 614 773 760C773 783 763 802 729 791C711 785 693 783 678 778C634 763 638 775 669 799C714 834 743 862 755 884C790 946 810 916 823 886C835 854 841 811 838 762C829 640 821 539 821 420C821 387 821 387 821 370C821 281 823 217 837 180C844 158 832 143 796 127C744 102 719 113 740 146C767 192 765 235 769 386C770 416 770 416 770 431Z"/>
<path id="z26574d9" d="M614 577C628 587 643 602 660 617C671 628 695 634 703 614C706 604 704 588 697 571C689 551 658 539 607 531C584 526 580 530 583 547C584 553 596 562 614 577Z"/>
<defs>
	<clipPath id="z26574c1"><use href="#z26574d1"/></clipPath>
	<clipPath id="z26574c2"><use href="#z26574d2"/></clipPath>
	<clipPath id="z26574c3"><use href="#z26574d3"/></clipPath>
	<clipPath id="z26574c4"><use href="#z26574d4"/></clipPath>
	<clipPath id="z26574c5"><use href="#z26574d5"/></clipPath>
	<clipPath id="z26574c6"><use href="#z26574d6"/></clipPath>
	<clipPath id="z26574c7"><use href="#z26574d7"/></clipPath>
	<clipPath id="z26574c8"><use href="#z26574d8"/></clipPath>
	<clipPath id="z26574c9"><use href="#z26574d9"/></clipPath>
</defs>
<path style="--d:1s;" pathLength="3333" clip-path="url(#z26574c1)" d="M107 374L428 323"/>
<path style="--d:2s;" pathLength="3333" clip-path="url(#z26574c2)" d="M247 76L305 149L282 910"/>
<path style="--d:3s;" pathLength="3333" clip-path="url(#z26574c3)" d="M288 355L227 522L81 721"/>
<path style="--d:4s;" pathLength="3333" clip-path="url(#z26574c4)" d="M317 442L398 512"/>
<path style="--d:5s;" pathLength="3333" clip-path="url(#z26574c5)" d="M549 202L587 242L576 281L456 499L366 612"/>
<path style="--d:6s;" pathLength="3333" clip-path="url(#z26574c6)" d="M493 480L518 546L513 868"/>
<path style="--d:7s;" pathLength="3333" clip-path="url(#z26574c7)" d="M560 454L865 384L956 387"/>
<path style="--d:8s;" pathLength="3333" clip-path="url(#z26574c8)" d="M739 119L798 182L803 801L773 869L653 775"/>
<path style="--d:9s;" pathLength="3333" clip-path="url(#z26574c9)" d="M587 539L666 580L692 621"/>
</svg>