<!--
AnimCJK 2016-2019 Copyright Francois Mizessyn - https://github.com/parsimonhi/animCJK
Derived from:
    MakeMeAHanzi project - https://github.com/skishore/makemeahanzi
    Arphic PL KaitiM GB font
    Arphic PL UKai font
You can redistribute and/or modify this file under the terms of the Arphic Public License
as published by Arphic Technology Co., Ltd.
You should have received a copy of this license along with this file.
If not, see http://ftp.gnu.org/non-gnu/chinese-fonts-truetype/LICENSE.
-->
<svg id="z26654" class="acjk" version="1.1" viewBox="0 0 1024 1024" xmlns="http://www.w3.org/2000/svg" xmlns:xlink="http://www.w3.org/1999/xlink">
<style>
<![CDATA[
@keyframes zk {
	to {
		stroke-dashoffset:0;
	}
}
svg.acjk path[clip-path] {
	--t:0.8s;
	animation:zk var(--t) linear forwards var(--d);
	stroke-dasharray:3337;
	stroke-dashoffset:3339;
	stroke-width:128;
	stroke-linecap:round;
	fill:none;
	stroke:#000;
}
svg.acjk path[id] {fill:#ccc;}
]]>
</style>
<path id="z26654d1" d="M431 180C437 179 449 175 453 167C455 160 447 152 433 147C399 135 390 140 362 148C326 157 303 161 209 177C191 180 189 186 204 197C223 211 243 219 261 214C266 212 279 209 294 206C329 197 329 197 347 193C381 184 414 182 431 180Z"/>
<path id="z26654d2" d="M480 333C490 332 496 329 497 324C497 316 491 308 482 303C465 294 413 299 363 312C330 320 330 320 314 324C275 333 210 341 168 344C160 344 154 347 153 352C150 358 152 365 163 373C183 389 193 394 228 385C246 379 285 370 314 363C346 355 346 355 362 351C375 347 446 335 480 333Z"/>
<path id="z26654d3" d="M294 206C313 234 314 270 314 324C314 350 314 350 314 363C314 406 307 467 316 498C329 547 345 534 353 519C359 506 360 423 362 351C363 325 363 325 363 312C364 270 374 234 377 224C381 206 353 195 347 193C330 186 283 191 294 206Z"/>
<path id="z26654d4" d="M694 191C802 170 823 164 825 163C831 158 832 151 829 146C824 136 811 130 792 126C776 122 761 126 741 132C721 137 698 142 668 149C635 156 598 159 560 164C534 167 530 176 549 188C570 200 608 206 640 201C676 194 676 194 694 191Z"/>
<path id="z26654d5" d="M718 336C740 332 780 324 829 327C849 328 869 327 874 319C877 312 873 302 863 295C837 278 818 269 792 278C770 284 745 291 718 296C684 302 684 302 667 305C620 313 587 315 535 323C522 325 520 331 530 341C538 349 548 355 561 358C572 360 584 359 595 358C613 354 650 346 668 344C701 339 701 339 718 336Z"/>
<path id="z26654d6" d="M669 466C672 481 676 494 682 501C684 505 690 508 695 506C705 500 709 477 712 437C714 403 718 356 718 336C718 309 718 309 718 296C718 278 724 252 729 234C731 222 727 213 718 207C706 200 702 195 694 191C678 182 629 187 640 201C658 219 665 254 667 305C668 331 668 331 668 344C668 362 662 435 669 466Z"/>
<path id="z26654d7" d="M529 593C563 589 669 587 847 588C861 588 869 585 872 580C876 572 872 562 862 554C828 526 798 517 772 522C711 533 629 548 530 560C495 564 495 564 478 566C383 576 271 587 161 598C147 599 144 605 155 617C162 625 173 632 187 637C200 641 213 641 224 639C288 622 366 612 438 603C499 596 499 596 529 593Z"/>
<path id="z26654d8" d="M529 595C528 583 529 571 530 560C531 543 534 490 537 481C539 472 536 466 532 462C516 448 502 437 490 432C480 428 474 430 468 435C464 437 466 440 469 449C473 460 478 552 478 566C477 618 477 618 476 644C474 720 472 782 460 831C454 853 459 882 481 920C489 933 495 945 502 947C509 949 515 943 519 935C527 913 530 891 529 871C527 786 530 672 530 642C529 611 529 611 529 595Z"/>
<path id="z26654d9" d="M438 603C411 675 311 758 159 852C146 860 145 865 157 867C183 869 227 853 291 817C329 791 375 760 411 725C437 699 458 672 476 644C501 602 456 558 438 603Z"/>
<path id="z26654d10" d="M530 642C580 704 632 761 689 821C705 837 726 847 754 849C804 853 855 851 907 843C919 842 927 840 929 836C931 831 926 826 916 822C782 769 689 724 637 686C615 670 594 653 574 636C556 619 541 606 529 595C518 584 521 629 530 642Z"/>
<defs>
	<clipPath id="z26654c1"><use xlink:href="#z26654d1"/></clipPath>
	<clipPath id="z26654c2"><use xlink:href="#z26654d2"/></clipPath>
	<clipPath id="z26654c3"><use xlink:href="#z26654d3"/></clipPath>
	<clipPath id="z26654c4"><use xlink:href="#z26654d4"/></clipPath>
	<clipPath id="z26654c5"><use xlink:href="#z26654d5"/></clipPath>
	<clipPath id="z26654c6"><use xlink:href="#z26654d6"/></clipPath>
	<clipPath id="z26654c7"><use xlink:href="#z26654d7"/></clipPath>
	<clipPath id="z26654c8"><use xlink:href="#z26654d8"/></clipPath>
	<clipPath id="z26654c9"><use xlink:href="#z26654d9"/></clipPath>
	<clipPath id="z26654c10"><use xlink:href="#z26654d10"/></clipPath>
</defs>
<path style="--d:1s;" pathLength="3333" clip-path="url(#z26654c1)" d="M203 187L425 162"/>
<path style="--d:2s;" pathLength="3333" clip-path="url(#z26654c2)" d="M156 356L209 364L487 322"/>
<path style="--d:3s;" pathLength="3333" clip-path="url(#z26654c3)" d="M 300,205 339,221 337,527"/>
<path style="--d:4s;" pathLength="3333" clip-path="url(#z26654c4)" d="M543 174L625 180L818 149"/>
<path style="--d:5s;" pathLength="3333" clip-path="url(#z26654c5)" d="M534 335L825 300L865 315"/>
<path style="--d:6s;" pathLength="3333" clip-path="url(#z26654c6)" d="M651 205L696 237L693 501"/>
<path style="--d:7s;" pathLength="3333" clip-path="url(#z26654c7)" d="M156 605L225 615L783 554L869 570"/>
<path style="--d:8s;" pathLength="3333" clip-path="url(#z26654c8)" d="M 474,442 506,507 503,943"/>
<path style="--d:9s;" pathLength="3333" clip-path="url(#z26654c9)" d="M471 607L326 763L159 858"/>
<path style="--d:10s;" pathLength="3333" clip-path="url(#z26654c10)" d="M 531,607 719,787 921,835"/>
</svg>