<!--
AnimCJK 2016-2025 Copyright FM-SH - https://github.com/parsimonhi/animCJK
Derived from:
    MakeMeAHanzi project - https://github.com/skishore/makemeahanzi
    Arphic PL KaitiM GB font
    Arphic PL UKai font
You can redistribute and/or modify this file under the terms of the Arphic Public License
as published by Arphic Technology Co., Ltd.
You should have received a copy of this license along with this file.
If not, see http://ftp.gnu.org/non-gnu/chinese-fonts-truetype/LICENSE.
-->
<svg id="z26676" class="acjk" version="1.1" viewBox="0 0 1024 1024" xmlns="http://www.w3.org/2000/svg" xmlns:xlink="http://www.w3.org/1999/xlink">
<style>
<![CDATA[
@keyframes zk {
	to {
		stroke-dashoffset:0;
	}
}
svg.acjk path[clip-path] {
	--t:0.8s;
	animation:zk var(--t) linear forwards var(--d);
	stroke-dasharray:3337;
	stroke-dashoffset:3339;
	stroke-width:128;
	stroke-linecap:round;
	fill:none;
	stroke:#000;
}
svg.acjk path[id] {fill:#ccc;}
]]>
</style>
<path id="z26676d1" d="M308 357C324 351 343 347 363 342C390 334 405 327 409 323C413 318 415 312 412 307C407 299 395 294 375 291C363 288 340 291 310 304C283 315 283 315 269 320C208 343 151 353 103 363C78 367 76 375 94 386C135 412 201 388 254 373C290 362 290 362 308 357Z"/>
<path id="z26676d2" d="M263 468C256 618 253 677 250 701C245 729 239 758 230 787C222 809 226 841 242 883C246 893 250 899 255 903C259 906 262 905 268 901C285 888 294 855 295 796C295 741 300 509 304 452C305 440 305 440 305 434C306 409 306 383 308 357C309 322 309 322 310 304C312 245 316 195 331 156C334 145 340 136 337 129C334 121 313 108 279 86C263 75 250 74 238 84C234 86 233 93 239 104C279 172 272 241 269 320C265 419 265 419 263 468Z"/>
<path id="z26676d3" d="M254 373C224 461 160 573 66 712C61 717 66 726 72 722C174 633 240 534 263 468C292 380 288 287 254 373Z"/>
<path id="z26676d4" d="M304 452C344 492 369 516 383 519C407 523 411 506 403 490C387 460 356 440 305 434C299 433 300 448 304 452Z"/>
<path id="z26676d5" d="M558 233C580 196 618 121 623 104C626 91 602 77 587 69C570 59 556 57 546 59C535 61 532 69 539 81C552 103 542 155 506 239C489 276 468 317 442 360C425 386 436 390 459 369C499 334 518 298 544 256C553 241 553 241 558 233Z"/>
<path id="z26676d6" d="M544 256C574 270 607 271 646 261C767 228 831 210 837 205C843 199 843 193 840 188C834 180 822 174 802 171C770 166 697 206 558 233C549 235 536 253 544 256Z"/>
<path id="z26676d7" d="M557 381C555 378 552 376 550 375C531 364 516 358 504 358C495 360 492 366 495 374C515 426 522 483 509 582C504 607 504 607 502 620C485 692 465 759 451 782C439 802 440 827 456 859C456 861 458 863 461 867C465 875 471 878 478 876C506 859 530 758 543 612C546 588 546 588 547 576C555 480 559 438 565 414C565 411 565 411 565 409C565 399 563 389 557 381Z"/>
<path id="z26676d8" d="M746 588C741 686 730 775 727 813C725 839 721 851 698 847C683 844 668 843 653 841C622 835 636 847 654 861C681 881 701 901 716 919C725 930 734 938 744 941C750 942 756 941 761 935C785 899 798 865 796 835C791 772 795 676 797 586C798 555 798 555 798 539C799 467 798 411 808 386C813 372 814 364 807 358C792 346 774 336 751 328C740 323 729 322 720 328C686 348 613 369 557 381C547 383 555 411 565 409C580 405 610 397 627 392C648 385 648 385 659 382C714 364 743 368 747 410C750 441 751 473 748 546C747 574 747 574 746 588Z"/>
<path id="z26676d9" d="M658 559C680 374 693 405 657 382C647 376 623 381 625 392C634 425 634 430 627 564C627 574 656 569 658 559Z"/>
<path id="z26676d10" d="M543 612C595 601 675 590 746 588C780 587 780 587 797 586C833 584 880 583 953 583C965 583 973 579 977 574C980 567 977 559 966 550C941 530 931 520 904 521C871 522 844 532 798 539C765 544 765 544 748 546C723 549 687 554 660 559C639 562 639 562 629 564C604 568 573 571 547 576C522 580 522 580 509 582C466 588 422 591 378 597C364 598 362 603 373 615C381 623 391 630 404 634C416 637 428 637 440 634C460 628 480 624 502 620C529 615 529 615 543 612Z"/>
<defs>
	<clipPath id="z26676c1"><use xlink:href="#z26676d1"/></clipPath>
	<clipPath id="z26676c2"><use xlink:href="#z26676d2"/></clipPath>
	<clipPath id="z26676c3"><use xlink:href="#z26676d3"/></clipPath>
	<clipPath id="z26676c4"><use xlink:href="#z26676d4"/></clipPath>
	<clipPath id="z26676c5"><use xlink:href="#z26676d5"/></clipPath>
	<clipPath id="z26676c6"><use xlink:href="#z26676d6"/></clipPath>
	<clipPath id="z26676c7"><use xlink:href="#z26676d7"/></clipPath>
	<clipPath id="z26676c8"><use xlink:href="#z26676d8"/></clipPath>
	<clipPath id="z26676c9"><use xlink:href="#z26676d9"/></clipPath>
	<clipPath id="z26676c10"><use xlink:href="#z26676d10"/></clipPath>
</defs>
<path style="--d:1s;" pathLength="3333" clip-path="url(#z26676c1)" d="M89 373L406 312"/>
<path style="--d:2s;" pathLength="3333" clip-path="url(#z26676c2)" d="M241 88L299 145L263 900"/>
<path style="--d:3s;" pathLength="3333" clip-path="url(#z26676c3)" d="M275 349L205 533L71 715"/>
<path style="--d:4s;" pathLength="3333" clip-path="url(#z26676c4)" d="M310 446L396 513"/>
<path style="--d:5s;" pathLength="3333" clip-path="url(#z26676c5)" d="M542 65L579 123L501 292L439 374"/>
<path style="--d:6s;" pathLength="3333" clip-path="url(#z26676c6)" d="M547 249L837 192"/>
<path style="--d:7s;" pathLength="3333" clip-path="url(#z26676c7)" d="M502 363L536 409L535 498L475 872"/>
<path style="--d:8s;" pathLength="3333" clip-path="url(#z26676c8)" d="M555 392L728 348L776 377L757 854L733 893L643 845"/>
<path style="--d:9s;" pathLength="3333" clip-path="url(#z26676c9)" d="M639 382L655 424L639 565"/>
<path style="--d:10s;" pathLength="3333" clip-path="url(#z26676c10)" d="M374 604L429 613L894 552L973 566"/>
</svg>