<!--
AnimCJK 2016-2018 Copyright Francois Mizessyn, https://github.com/parsimonhi/animCJK
Derived from:
    MakeMeAHanzi project - https://github.com/skishore/makemeahanzi
    Arphic PL KaitiM GB - https://apps.ubuntu.com/cat/applications/precise/fonts-arphic-gkai00mp/
    Arphic PL UKai - https://apps.ubuntu.com/cat/applications/fonts-arphic-ukai/
You can redistribute and/or modify this file under the terms of the Arphic Public License
as published by Arphic Technology Co., Ltd.
You should have received a copy of this license (the directory "APL") along with this file;
if not, see http://ftp.gnu.org/non-gnu/chinese-fonts-truetype/LICENSE.
-->
<svg id="z26689" class="acjk" version="1.1" viewBox="0 0 1024 1024" xmlns="http://www.w3.org/2000/svg" xmlns:xlink="http://www.w3.org/1999/xlink">
<style>
<![CDATA[
@keyframes z26689k {
	from {
		stroke:#c00;
		stroke-dashoffset:3334;
	}
	75% {
		stroke:#c00;
		stroke-dashoffset:0;
	}
	to {
		stroke:#000;
	}
}
#z26689 path[clip-path] {
	animation:z26689k 1s linear both;
	stroke-dasharray:3334;
	stroke-width:128;
	stroke-linecap:round;
	fill:none;
}
#z26689 path[clip-path="url(#z26689c1)"] {animation-delay:1s;}
#z26689 path[clip-path="url(#z26689c2)"] {animation-delay:2s;}
#z26689 path[clip-path="url(#z26689c3)"] {animation-delay:3s;}
#z26689 path[clip-path="url(#z26689c4)"] {animation-delay:4s;}
#z26689 path[clip-path="url(#z26689c5)"] {animation-delay:5s;}
#z26689 path[clip-path="url(#z26689c6)"] {animation-delay:6s;}
#z26689 path[clip-path="url(#z26689c7)"] {animation-delay:7s;}
#z26689 path[clip-path="url(#z26689c8)"] {animation-delay:8s;}
#z26689 path[clip-path="url(#z26689c9)"] {animation-delay:9s;}
#z26689 path[clip-path="url(#z26689c10)"] {animation-delay:10s;}
#z26689 path {fill:#ccc;}
]]>
</style>
<path id="z26689d1" d="M292 395Q310 388 333 383Q367 373 373 367Q380 360 376 351Q369 341 339 335Q315 331 294 340L250 358Q166 386 94 399Q60 408 86 422Q131 443 184 425Q203 418 229 414L292 395 Z"/>
<path id="z26689d2" d="M290 449Q290 422 292 395L294 340Q294 226 316 154Q325 139 323 126Q316 117 262 82Q240 66 219 80Q215 84 220 100Q250 148 251 225Q251 291 250 358L244 490Q235 683 222 745Q201 829 219 867Q220 873 225 882Q231 898 239 903Q245 909 252 901Q279 885 280 822Q279 782 289 477L290 449 Z"/>
<path id="z26689d3" d="M229 414Q187 531 42 720Q38 730 48 730Q54 731 62 723Q174 627 245 490L248 408L229 413 Z"/>
<path id="z26689d4" d="M289 477Q334 531 351 534Q363 535 369 520Q370 508 363 490Q348 462 291 449L290 449L289 477 Z"/>
<path id="z26689d5" d="M494 153Q507 183 453 279Q426 324 390 373Q381 382 379 387Q376 397 388 395Q430 389 535 243Q541 221 568 201Q575 191 572 179Q568 169 543 148Q519 132 503 132Q487 133 494 153 Z"/>
<path id="z26689d6" d="M446 543Q474 509 507 462Q526 432 541 418Q548 409 546 398Q542 388 520 368Q498 352 483 352Q467 353 474 372Q489 406 414 522Q378 574 330 631Q321 638 320 644Q316 653 328 651Q352 648 422 570L446 543 Z"/>
<path id="z26689d7" d="M422 570Q452 600 429 763Q407 847 444 886Q460 899 470 876Q483 842 482 801Q481 650 485 615Q492 591 483 582Q467 564 456 552Q452 546 446 543L422 570 Z"/>
<path id="z26689d8" d="M611 293Q571 303 602 320Q656 341 713 320Q758 307 806 294Q827 287 830 284Q839 274 833 265Q823 252 790 248Q765 245 676 278Q646 287 611 293 Z"/>
<path id="z26689d9" d="M739 481Q803 471 904 467Q949 467 957 457Q961 445 945 433Q888 397 845 414Q758 436 538 479Q519 482 534 497Q562 522 600 512Q643 499 693 489L739 481 Z"/>
<path id="z26689d10" d="M662 833Q643 829 617 824Q604 820 605 828Q606 837 617 846Q678 895 719 937Q732 947 746 930Q788 869 780 757Q773 616 777 548Q784 520 777 509Q768 497 739 481L693 489Q694 495 701 503Q716 542 716 802Q713 823 705 833Q692 842 662 833 Z"/>
<defs>
	<clipPath id="z26689c1"><use xlink:href="#z26689d1"/></clipPath>
	<clipPath id="z26689c2"><use xlink:href="#z26689d2"/></clipPath>
	<clipPath id="z26689c3"><use xlink:href="#z26689d3"/></clipPath>
	<clipPath id="z26689c4"><use xlink:href="#z26689d4"/></clipPath>
	<clipPath id="z26689c5"><use xlink:href="#z26689d5"/></clipPath>
	<clipPath id="z26689c6"><use xlink:href="#z26689d6"/></clipPath>
	<clipPath id="z26689c7"><use xlink:href="#z26689d7"/></clipPath>
	<clipPath id="z26689c8"><use xlink:href="#z26689d8"/></clipPath>
	<clipPath id="z26689c9"><use xlink:href="#z26689d9"/></clipPath>
	<clipPath id="z26689c10"><use xlink:href="#z26689d10"/></clipPath>
</defs>
<path pathLength="3333" clip-path="url(#z26689c1)" d="M80 409L372 355"/>
<path pathLength="3333" clip-path="url(#z26689c2)" d="M224 85L283 145L240 898"/>
<path pathLength="3333" clip-path="url(#z26689c3)" d="M242 416L182 555L48 721"/>
<path pathLength="3333" clip-path="url(#z26689c4)" d="M295 458L359 527"/>
<path pathLength="3333" clip-path="url(#z26689c5)" d="M500 136L533 189L386 388"/>
<path pathLength="3333" clip-path="url(#z26689c6)" d="M480 361L503 420L326 644"/>
<path pathLength="3333" clip-path="url(#z26689c7)" d="M447 553L462 609L452 886"/>
<path pathLength="3333" clip-path="url(#z26689c8)" d="M600 309L831 271"/>
<path pathLength="3333" clip-path="url(#z26689c9)" d="M535 488L865 439L952 449"/>
<path pathLength="3333" clip-path="url(#z26689c10)" d="M700 491L744 533L743 836L713 888L611 831"/>
</svg>