<!--
AnimCJK 2016-2018 Copyright Francois Mizessyn, https://github.com/parsimonhi/animCJK
Derived from:
    MakeMeAHanzi project - https://github.com/skishore/makemeahanzi
    Arphic PL KaitiM GB - https://apps.ubuntu.com/cat/applications/precise/fonts-arphic-gkai00mp/
    Arphic PL UKai - https://apps.ubuntu.com/cat/applications/fonts-arphic-ukai/
You can redistribute and/or modify this file under the terms of the Arphic Public License
as published by Arphic Technology Co., Ltd.
You should have received a copy of this license (the directory "APL") along with this file;
if not, see http://ftp.gnu.org/non-gnu/chinese-fonts-truetype/LICENSE.
-->
<svg id="z26757" class="acjk" version="1.1" viewBox="0 0 1024 1024" xmlns="http://www.w3.org/2000/svg" xmlns:xlink="http://www.w3.org/1999/xlink">
<style>
<![CDATA[
@keyframes z26757k {
	from {
		stroke:#c00;
		stroke-dashoffset:3334;
	}
	75% {
		stroke:#c00;
		stroke-dashoffset:0;
	}
	to {
		stroke:#000;
	}
}
#z26757 path[clip-path] {
	animation:z26757k 1s linear both;
	stroke-dasharray:3334;
	stroke-width:128;
	stroke-linecap:round;
	fill:none;
}
#z26757 path[clip-path="url(#z26757c1)"] {animation-delay:1s;}
#z26757 path[clip-path="url(#z26757c2)"] {animation-delay:2s;}
#z26757 path[clip-path="url(#z26757c3)"] {animation-delay:3s;}
#z26757 path[clip-path="url(#z26757c4)"] {animation-delay:4s;}
#z26757 path[clip-path="url(#z26757c5)"] {animation-delay:5s;}
#z26757 path[clip-path="url(#z26757c6)"] {animation-delay:6s;}
#z26757 path[clip-path="url(#z26757c7)"] {animation-delay:7s;}
#z26757 path[clip-path="url(#z26757c8)"] {animation-delay:8s;}
#z26757 path[clip-path="url(#z26757c9)"] {animation-delay:9s;}
#z26757 path[clip-path="url(#z26757c10)"] {animation-delay:10s;}
#z26757 path {fill:#ccc;}
]]>
</style>
<path id="z26757d1" d="M348 362Q370 355 396 350Q438 340 444 333Q453 324 448 316Q441 304 410 298Q379 292 350 306L304 322Q180 353 125 362Q88 369 115 385Q161 409 215 393Q246 384 285 377L348 362 Z"/>
<path id="z26757d2" d="M345 431Q346 397 348 362L350 306Q353 215 373 153Q382 138 380 124Q373 114 318 78Q294 60 273 76Q269 80 274 97Q305 145 305 193Q305 254 304 322L298 465Q286 681 284 697Q275 740 263 782Q250 824 276 885Q282 903 290 907Q296 914 304 905Q332 886 333 796Q334 717 344 459L345 431 Z"/>
<path id="z26757d3" d="M285 377Q233 518 70 735Q64 745 76 746Q98 746 211 609Q257 549 298 465L301 373L285 377 Z"/>
<path id="z26757d4" d="M344 459Q401 523 422 527Q435 528 441 511Q442 499 434 480Q424 464 400 454Q363 435 347 432Q346 431 345 431L344 459 Z"/>
<path id="z26757d5" d="M576 263Q604 223 636 170Q652 137 669 121Q676 111 672 97Q668 85 638 65Q611 49 593 50Q575 53 585 74Q616 128 461 362Q451 372 450 378Q447 390 461 386Q492 377 556 289L576 263 Z"/>
<path id="z26757d6" d="M556 289Q590 304 657 292Q736 274 821 256Q861 246 867 239Q876 232 871 223Q864 213 836 206Q809 200 720 232Q600 259 576 263L556 289 Z"/>
<path id="z26757d7" d="M571 375Q559 363 542 355Q523 345 519 355Q515 364 521 373Q537 404 532 439Q522 499 505 554L491 595Q469 661 422 704Q404 717 406 733Q410 748 427 765Q443 781 464 763Q524 724 708 739L770 745Q825 752 882 768Q898 775 911 769Q924 765 918 751Q911 732 892 719Q879 703 852 704Q833 704 788 701Q782 700 776 701L716 699Q631 696 507 707Q491 708 497 689Q516 640 536 586L548 549Q584 426 586 403L571 375 Z"/>
<path id="z26757d8" d="M789 515Q792 428 811 405Q829 383 816 372Q794 351 760 339Q742 330 679 353Q613 368 571 375L586 403Q614 397 697 376Q716 372 729 380Q742 390 740 434Q737 480 735 524L732 562Q726 644 716 699L708 739Q695 806 681 831Q671 847 650 841Q584 826 587 822Q557 815 581 840Q617 876 644 915Q665 942 682 930Q757 882 770 745L776 701Q780 647 785 593Q785 577 786 560L789 515 Z"/>
<path id="z26757d9" d="M615 702C629 657 635 640 646 597L665 535C669 520 672 506 676 489C679 477 686 460 688 453C694 437 692 420 687 412C676 399 666 394 657 386L627 393C636 435 634 457 617 537L607 589C598 630 597 636 579 703 Z"/>
<path id="z26757d10" d="M786 560Q948 560 954 551Q960 541 945 528Q893 492 831 507Q810 510 789 515L735 524Q701 528 663 534Q608 541 548 549L505 554Q459 558 415 564Q396 565 410 581Q423 594 439 599Q448 600 491 595L536 586Q585 576 640 570Q680 564 732 562L786 560 Z"/>
<defs>
	<clipPath id="z26757c1"><use xlink:href="#z26757d1"/></clipPath>
	<clipPath id="z26757c2"><use xlink:href="#z26757d2"/></clipPath>
	<clipPath id="z26757c3"><use xlink:href="#z26757d3"/></clipPath>
	<clipPath id="z26757c4"><use xlink:href="#z26757d4"/></clipPath>
	<clipPath id="z26757c5"><use xlink:href="#z26757d5"/></clipPath>
	<clipPath id="z26757c6"><use xlink:href="#z26757d6"/></clipPath>
	<clipPath id="z26757c7"><use xlink:href="#z26757d7"/></clipPath>
	<clipPath id="z26757c8"><use xlink:href="#z26757d8"/></clipPath>
	<clipPath id="z26757c9"><use xlink:href="#z26757d9"/></clipPath>
	<clipPath id="z26757c10"><use xlink:href="#z26757d10"/></clipPath>
</defs>
<path pathLength="3333" clip-path="url(#z26757c1)" d="M111 372L172 377L444 319"/>
<path pathLength="3333" clip-path="url(#z26757c2)" d="M279 81L339 138L297 904"/>
<path pathLength="3333" clip-path="url(#z26757c3)" d="M294 382L232 538L76 739"/>
<path pathLength="3333" clip-path="url(#z26757c4)" d="M350 437L434 518"/>
<path pathLength="3333" clip-path="url(#z26757c5)" d="M588 58L630 113L531 290L455 378"/>
<path pathLength="3333" clip-path="url(#z26757c6)" d="M561 286L865 222"/>
<path pathLength="3333" clip-path="url(#z26757c7)" d="M525 360L558 420L506 612L454 717L464 736L686 717L868 734L914 757"/>
<path pathLength="3333" clip-path="url(#z26757c8)" d="M581 380L742 358L780 392L712 844L667 888L578 828"/>
<path pathLength="3333" clip-path="url(#z26757c9)" d="M635 398L661 441L591 699"/>
<path pathLength="3333" clip-path="url(#z26757c10)" d="M411 571L858 531L950 540"/>
</svg>