<!--
AnimCJK 2016-2018 Copyright Francois Mizessyn, https://github.com/parsimonhi/animCJK
Derived from:
    MakeMeAHanzi project - https://github.com/skishore/makemeahanzi
    Arphic PL KaitiM GB - https://apps.ubuntu.com/cat/applications/precise/fonts-arphic-gkai00mp/
    Arphic PL UKai - https://apps.ubuntu.com/cat/applications/fonts-arphic-ukai/
You can redistribute and/or modify this file under the terms of the Arphic Public License
as published by Arphic Technology Co., Ltd.
You should have received a copy of this license (the directory "APL") along with this file;
if not, see http://ftp.gnu.org/non-gnu/chinese-fonts-truetype/LICENSE.
-->
<svg id="z26753" class="acjk" version="1.1" viewBox="0 0 1024 1024" xmlns="http://www.w3.org/2000/svg" xmlns:xlink="http://www.w3.org/1999/xlink">
<style>
<![CDATA[
@keyframes z26753k {
	from {
		stroke:#c00;
		stroke-dashoffset:3334;
	}
	75% {
		stroke:#c00;
		stroke-dashoffset:0;
	}
	to {
		stroke:#000;
	}
}
#z26753 path[clip-path] {
	animation:z26753k 1s linear both;
	stroke-dasharray:3334;
	stroke-width:128;
	stroke-linecap:round;
	fill:none;
}
#z26753 path[clip-path="url(#z26753c1)"] {animation-delay:1s;}
#z26753 path[clip-path="url(#z26753c2)"] {animation-delay:2s;}
#z26753 path[clip-path="url(#z26753c3)"] {animation-delay:3s;}
#z26753 path[clip-path="url(#z26753c4)"] {animation-delay:4s;}
#z26753 path[clip-path="url(#z26753c5)"] {animation-delay:5s;}
#z26753 path[clip-path="url(#z26753c6)"] {animation-delay:6s;}
#z26753 path[clip-path="url(#z26753c7)"] {animation-delay:7s;}
#z26753 path[clip-path="url(#z26753c8)"] {animation-delay:8s;}
#z26753 path[clip-path="url(#z26753c9)"] {animation-delay:9s;}
#z26753 path[clip-path="url(#z26753c10)"] {animation-delay:10s;}
#z26753 path[clip-path="url(#z26753c11)"] {animation-delay:11s;}
#z26753 path {fill:#ccc;}
]]>
</style>
<path id="z26753d1" d="M285 129Q306 148 328 170Q341 180 355 180Q365 180 369 168Q373 155 365 127Q359 111 334 100Q277 79 260 85Q256 89 257 101Q260 111 285 129 Z"/>
<path id="z26753d2" d="M209 240Q240 271 274 289Q286 290 292 280Q296 270 293 256Q283 225 235 214Q205 205 196 210Q192 211 194 220Q195 229 209 240 Z"/>
<path id="z26753d3" d="M207 428Q197 429 196 445Q199 509 225 530Q229 537 239 536Q246 536 250 515Q256 485 330 343Q337 330 338 325Q338 318 330 321Q320 324 233 412Q224 421 207 428 Z"/>
<path id="z26753d4" d="M736 256Q745 190 765 166Q777 154 771 145Q764 135 717 112Q698 103 680 114Q659 126 581 140Q502 156 435 157Q419 157 416 165Q415 172 436 184Q458 199 476 193Q494 189 512 185L557 176Q615 163 666 160Q684 159 687 164Q697 180 689 218Q673 324 644 371Q628 401 601 396Q579 390 558 383Q536 376 551 398Q590 435 608 464Q626 485 644 468Q707 426 733 276L736 256 Z"/>
<path id="z26753d5" d="M512 185Q531 311 363 472Q356 479 362 482Q389 486 459 424Q522 370 565 250Q572 231 582 211Q589 202 583 194Q577 187 557 176L512 185 Z"/>
<path id="z26753d6" d="M430 256Q409 284 385 308Q364 329 374 353Q377 366 393 361Q429 343 439 299Q448 277 446 259Q445 252 440 251Q434 251 430 256 Z"/>
<path id="z26753d7" d="M733 276Q734 277 738 279Q781 307 837 352Q852 365 865 367Q872 367 876 358Q885 345 869 313Q856 280 795 267Q756 258 736 256L733 276 Z"/>
<path id="z26753d8" d="M541 593Q691 581 864 591Q888 591 894 583Q901 570 883 555Q823 510 775 522Q679 537 531 557L481 562Q331 577 158 593Q136 594 152 613Q167 629 185 635Q207 641 225 637Q328 612 442 603L541 593 Z"/>
<path id="z26753d9" d="M531 557Q532 535 535 522Q538 510 530 505Q508 486 489 476Q477 473 468 480Q462 484 470 493Q479 508 481 562L482 636Q482 816 468 854Q461 888 493 940Q503 959 512 962Q522 963 528 950Q540 919 536 890Q530 755 530 622L531 557 Z"/>
<path id="z26753d10" d="M442 603Q385 721 159 849Q141 859 157 863Q193 867 277 825Q337 792 405 727Q435 697 483 636L482 599L442 602 Z"/>
<path id="z26753d11" d="M530 622Q717 842 767 858Q824 873 945 854Q964 853 967 846Q968 839 953 833Q901 811 838 790Q709 744 552 602Q546 596 541 593L530 595L530 622 Z"/>
<defs>
	<clipPath id="z26753c1"><use xlink:href="#z26753d1"/></clipPath>
	<clipPath id="z26753c2"><use xlink:href="#z26753d2"/></clipPath>
	<clipPath id="z26753c3"><use xlink:href="#z26753d3"/></clipPath>
	<clipPath id="z26753c4"><use xlink:href="#z26753d4"/></clipPath>
	<clipPath id="z26753c5"><use xlink:href="#z26753d5"/></clipPath>
	<clipPath id="z26753c6"><use xlink:href="#z26753d6"/></clipPath>
	<clipPath id="z26753c7"><use xlink:href="#z26753d7"/></clipPath>
	<clipPath id="z26753c8"><use xlink:href="#z26753d8"/></clipPath>
	<clipPath id="z26753c9"><use xlink:href="#z26753d9"/></clipPath>
	<clipPath id="z26753c10"><use xlink:href="#z26753d10"/></clipPath>
	<clipPath id="z26753c11"><use xlink:href="#z26753d11"/></clipPath>
</defs>
<path pathLength="3333" clip-path="url(#z26753c1)" d="M265 94L360 174"/>
<path pathLength="3333" clip-path="url(#z26753c2)" d="M200 218L289 280"/>
<path pathLength="3333" clip-path="url(#z26753c3)" d="M235 532L237 443L330 329"/>
<path pathLength="3333" clip-path="url(#z26753c4)" d="M423 164L471 175L692 134L732 164L653 412L616 435L554 388"/>
<path pathLength="3333" clip-path="url(#z26753c5)" d="M520 191L548 221L511 318L455 401L369 475"/>
<path pathLength="3333" clip-path="url(#z26753c6)" d="M437 258L379 353"/>
<path pathLength="3333" clip-path="url(#z26753c7)" d="M741 263L833 312L867 360"/>
<path pathLength="3333" clip-path="url(#z26753c8)" d="M153 602L207 613L780 554L890 578"/>
<path pathLength="3333" clip-path="url(#z26753c9)" d="M475 486L507 522L512 958"/>
<path pathLength="3333" clip-path="url(#z26753c10)" d="M474 607L324 768L159 858"/>
<path pathLength="3333" clip-path="url(#z26753c11)" d="M536 598L760 804L959 846"/>
</svg>