<!--
AnimCJK 2016-2018 Copyright Francois Mizessyn, https://github.com/parsimonhi/animCJK
Derived from:
    MakeMeAHanzi project - https://github.com/skishore/makemeahanzi
    Arphic PL KaitiM GB - https://apps.ubuntu.com/cat/applications/precise/fonts-arphic-gkai00mp/
    Arphic PL UKai - https://apps.ubuntu.com/cat/applications/fonts-arphic-ukai/
You can redistribute and/or modify this file under the terms of the Arphic Public License
as published by Arphic Technology Co., Ltd.
You should have received a copy of this license (the directory "APL") along with this file;
if not, see http://ftp.gnu.org/non-gnu/chinese-fonts-truetype/LICENSE.
-->
<svg id="z26775" class="acjk" version="1.1" viewBox="0 0 1024 1024" xmlns="http://www.w3.org/2000/svg" xmlns:xlink="http://www.w3.org/1999/xlink">
<style>
<![CDATA[
@keyframes z26775k {
	from {
		stroke:#c00;
		stroke-dashoffset:3334;
	}
	75% {
		stroke:#c00;
		stroke-dashoffset:0;
	}
	to {
		stroke:#000;
	}
}
#z26775 path[clip-path] {
	animation:z26775k 1s linear both;
	stroke-dasharray:3334;
	stroke-width:128;
	stroke-linecap:round;
	fill:none;
}
#z26775 path[clip-path="url(#z26775c1)"] {animation-delay:1s;}
#z26775 path[clip-path="url(#z26775c2)"] {animation-delay:2s;}
#z26775 path[clip-path="url(#z26775c3)"] {animation-delay:3s;}
#z26775 path[clip-path="url(#z26775c4)"] {animation-delay:4s;}
#z26775 path[clip-path="url(#z26775c5)"] {animation-delay:5s;}
#z26775 path[clip-path="url(#z26775c6)"] {animation-delay:6s;}
#z26775 path[clip-path="url(#z26775c7)"] {animation-delay:7s;}
#z26775 path[clip-path="url(#z26775c8)"] {animation-delay:8s;}
#z26775 path[clip-path="url(#z26775c9)"] {animation-delay:9s;}
#z26775 path[clip-path="url(#z26775c10)"] {animation-delay:10s;}
#z26775 path[clip-path="url(#z26775c11)"] {animation-delay:11s;}
#z26775 path {fill:#ccc;}
]]>
</style>
<path id="z26775d1" d="M293 355Q365 337 372 330Q379 323 375 315Q368 305 341 299Q316 295 294 305L249 322Q161 349 99 358Q65 365 90 379Q127 397 200 378Q215 374 233 371L293 355 Z"/>
<path id="z26775d2" d="M291 434Q292 395 293 355L294 305Q294 206 314 132Q330 108 303 88Q287 76 258 59Q234 41 213 57Q209 63 214 78Q248 127 248 177Q248 244 249 322L246 467Q237 686 237 694Q230 739 217 783Q205 823 231 886Q238 904 246 907Q252 914 260 905Q267 901 278 880Q288 855 287 823Q286 780 291 467L291 434 Z"/>
<path id="z26775d3" d="M233 371Q191 506 49 716Q45 726 56 726Q78 726 177 591Q214 539 247 467L249 366L233 370 Z"/>
<path id="z26775d4" d="M291 467Q292 468 296 471Q323 493 350 520Q360 530 373 530Q382 530 385 519Q389 509 382 485Q376 458 293 434L291 434L291 467 Z"/>
<path id="z26775d5" d="M622 220Q772 184 780 177Q789 168 784 160Q777 148 746 142Q715 138 685 150Q645 166 600 178Q551 191 492 198Q455 205 483 221Q511 236 563 234L622 220 Z"/>
<path id="z26775d6" d="M463 350Q453 344 422 340Q412 337 408 342Q404 348 411 362Q442 426 460 533Q463 564 481 586Q497 605 502 591Q505 582 505 570L504 548Q503 535 500 521Q479 422 474 385L463 350 Z"/>
<path id="z26775d7" d="M701 538Q717 563 733 571Q743 578 758 558Q771 536 802 414Q811 383 834 359Q847 347 835 333Q820 317 779 291Q763 284 688 302Q676 302 639 312L590 323Q571 326 550 331Q501 341 463 350L474 385Q483 376 591 354L637 344Q727 322 743 337Q753 350 752 365Q725 498 709 510L701 538 Z"/>
<path id="z26775d8" d="M639 449Q664 442 689 438Q710 434 701 423Q691 410 669 407Q656 406 638 410L593 423Q553 436 518 448Q503 452 522 465Q528 468 593 457L639 449 Z"/>
<path id="z26775d9" d="M634 549Q668 542 701 538L709 510Q700 501 651 512Q644 513 637 516L590 527Q544 537 504 548L505 570Q511 571 523 569Q554 562 588 557L634 549 Z"/>
<path id="z26775d10" d="M596 730Q623 676 634 549L637 516Q638 482 639 449L638 410Q638 377 637 344L639 312Q642 282 650 251Q654 241 646 234Q636 227 622 220L563 234Q587 256 588 282Q589 301 590 323L591 354Q592 388 593 423L593 457Q592 493 590 527L588 557Q581 647 556 698L537 730Q495 788 376 851Q364 855 362 859Q358 863 372 866Q451 866 561 777Q565 770 572 765L596 730 Z"/>
<path id="z26775d11" d="M572 765Q633 826 744 903Q778 925 823 912Q884 896 928 886Q941 882 955 875Q962 866 948 859Q930 852 798 831Q708 816 596 730L556 698Q519 667 478 629Q453 605 415 603Q403 602 396 610Q392 617 401 622Q410 628 419 632Q438 639 454 653Q497 692 537 730L572 765 Z"/>
<defs>
	<clipPath id="z26775c1"><use xlink:href="#z26775d1"/></clipPath>
	<clipPath id="z26775c2"><use xlink:href="#z26775d2"/></clipPath>
	<clipPath id="z26775c3"><use xlink:href="#z26775d3"/></clipPath>
	<clipPath id="z26775c4"><use xlink:href="#z26775d4"/></clipPath>
	<clipPath id="z26775c5"><use xlink:href="#z26775d5"/></clipPath>
	<clipPath id="z26775c6"><use xlink:href="#z26775d6"/></clipPath>
	<clipPath id="z26775c7"><use xlink:href="#z26775d7"/></clipPath>
	<clipPath id="z26775c8"><use xlink:href="#z26775d8"/></clipPath>
	<clipPath id="z26775c9"><use xlink:href="#z26775d9"/></clipPath>
	<clipPath id="z26775c10"><use xlink:href="#z26775d10"/></clipPath>
	<clipPath id="z26775c11"><use xlink:href="#z26775d11"/></clipPath>
</defs>
<path pathLength="3333" clip-path="url(#z26775c1)" d="M89 368L370 322"/>
<path pathLength="3333" clip-path="url(#z26775c2)" d="M217 60L281 127L250 905"/>
<path pathLength="3333" clip-path="url(#z26775c3)" d="M243 376L190 529L55 719"/>
<path pathLength="3333" clip-path="url(#z26775c4)" d="M298 446L374 526"/>
<path pathLength="3333" clip-path="url(#z26775c5)" d="M478 208L781 167"/>
<path pathLength="3333" clip-path="url(#z26775c6)" d="M413 345L442 367L493 592"/>
<path pathLength="3333" clip-path="url(#z26775c7)" d="M474 376L680 318L773 324L796 357L732 568"/>
<path pathLength="3333" clip-path="url(#z26775c8)" d="M516 454L698 427"/>
<path pathLength="3333" clip-path="url(#z26775c9)" d="M509 563L705 520"/>
<path pathLength="3333" clip-path="url(#z26775c10)" d="M571 234L618 255L614 515L585 692L525 777L369 861"/>
<path pathLength="3333" clip-path="url(#z26775c11)" d="M402 611L753 862L950 871"/>
</svg>