<!--
AnimCJK 2016-2018 Copyright Francois Mizessyn, https://github.com/parsimonhi/animCJK
Derived from:
    MakeMeAHanzi project - https://github.com/skishore/makemeahanzi
    Arphic PL KaitiM GB - https://apps.ubuntu.com/cat/applications/precise/fonts-arphic-gkai00mp/
    Arphic PL UKai - https://apps.ubuntu.com/cat/applications/fonts-arphic-ukai/
You can redistribute and/or modify this file under the terms of the Arphic Public License
as published by Arphic Technology Co., Ltd.
You should have received a copy of this license (the directory "APL") along with this file;
if not, see http://ftp.gnu.org/non-gnu/chinese-fonts-truetype/LICENSE.
-->
<svg id="z26834" class="acjk" version="1.1" viewBox="0 0 1024 1024" xmlns="http://www.w3.org/2000/svg" xmlns:xlink="http://www.w3.org/1999/xlink">
<style>
<![CDATA[
@keyframes z26834k {
	from {
		stroke:#c00;
		stroke-dashoffset:3334;
	}
	75% {
		stroke:#c00;
		stroke-dashoffset:0;
	}
	to {
		stroke:#000;
	}
}
#z26834 path[clip-path] {
	animation:z26834k 1s linear both;
	stroke-dasharray:3334;
	stroke-width:128;
	stroke-linecap:round;
	fill:none;
}
#z26834 path[clip-path="url(#z26834c1)"] {animation-delay:1s;}
#z26834 path[clip-path="url(#z26834c2)"] {animation-delay:2s;}
#z26834 path[clip-path="url(#z26834c3)"] {animation-delay:3s;}
#z26834 path[clip-path="url(#z26834c4)"] {animation-delay:4s;}
#z26834 path[clip-path="url(#z26834c5)"] {animation-delay:5s;}
#z26834 path[clip-path="url(#z26834c6)"] {animation-delay:6s;}
#z26834 path[clip-path="url(#z26834c7)"] {animation-delay:7s;}
#z26834 path[clip-path="url(#z26834c8)"] {animation-delay:8s;}
#z26834 path[clip-path="url(#z26834c9)"] {animation-delay:9s;}
#z26834 path[clip-path="url(#z26834c10)"] {animation-delay:10s;}
#z26834 path[clip-path="url(#z26834c11)"] {animation-delay:11s;}
#z26834 path[clip-path="url(#z26834c12)"] {animation-delay:12s;}
#z26834 path {fill:#ccc;}
]]>
</style>
<path id="z26834d1" d="M282 379Q381 352 384 349Q393 340 388 332Q381 320 350 314Q301 307 283 324L243 339Q135 366 84 374Q47 381 75 397Q114 418 184 402Q202 396 222 394L282 379 Z"/>
<path id="z26834d2" d="M280 477Q280 431 282 379L283 324Q283 207 305 130Q320 105 290 85Q275 73 250 59Q228 43 207 57Q203 61 209 77Q242 128 242 178Q243 253 244 337Q243 337 243 339L238 470Q231 693 226 719Q219 759 207 799Q195 835 220 898Q227 916 234 919Q241 926 248 917Q255 913 266 893Q276 868 275 838Q274 798 279 505L280 477 Z"/>
<path id="z26834d3" d="M222 394Q185 505 54 692Q50 702 60 702Q79 702 170 586Q207 538 238 470L241 390L222 394 Z"/>
<path id="z26834d4" d="M279 505Q283 509 292 516Q313 534 334 556Q344 566 357 566Q364 566 369 555Q373 545 367 521Q361 500 289 478Q283 477 280 477L279 505 Z"/>
<path id="z26834d5" d="M604 236Q665 223 730 211Q776 201 783 194Q790 187 787 179Q780 169 754 161Q726 155 699 166Q656 179 612 193L553 206Q505 213 453 218Q419 224 443 239Q476 260 547 247L604 236 Z"/>
<path id="z26834d6" d="M577 343Q737 307 743 303Q750 296 746 289Q740 280 717 274Q693 270 669 279Q629 292 588 304L532 315Q504 319 475 322Q445 326 466 341Q493 356 522 353L577 343 Z"/>
<path id="z26834d7" d="M678 422Q733 413 806 410Q857 410 865 399Q869 389 854 377Q800 344 754 360Q690 376 592 399Q573 402 555 407L500 418Q436 430 370 443Q351 447 366 461Q396 485 436 472Q457 463 484 459L540 445Q595 432 648 426L678 422 Z"/>
<path id="z26834d8" d="M555 407Q559 395 564 384Q570 363 577 343L588 304Q595 270 604 236L612 193Q621 136 632 109Q642 96 636 82Q621 63 591 47Q573 35 561 39Q548 45 554 59Q569 95 561 156Q560 165 558 178Q557 191 553 206L547 247Q540 281 532 315L522 353Q512 386 500 418L484 459Q438 558 349 674Q343 681 341 686Q337 696 348 695Q378 695 458 592Q479 562 500 528Q522 489 540 445L555 407 Z"/>
<path id="z26834d9" d="M600 336C612 360 715 518 813 629C833 647 887 648 975 630C979 628 982 626 984 623C984 621 980 617 972 613C868 578 841 564 777 504C741 467 720 442 628 331 Z"/>
<path id="z26834d10" d="M623 611Q653 604 684 599Q714 592 718 588Q725 581 722 574Q716 564 691 557Q655 548 625 567L571 581Q529 587 480 592Q449 596 471 612Q510 633 556 622Q562 621 571 620L623 611 Z"/>
<path id="z26834d11" d="M619 722Q680 713 770 711Q813 711 820 702Q824 692 810 680Q756 646 700 666Q666 672 620 684L570 693Q497 706 414 720Q396 723 410 737Q423 749 438 752Q456 756 470 752Q516 737 570 730L619 722 Z"/>
<path id="z26834d12" d="M573 935Q577 957 583 965Q587 972 594 970Q618 952 619 730Q619 726 619 722L620 684Q621 651 623 611L625 567Q626 563 627 559Q628 543 632 531Q635 515 623 507Q595 488 581 485Q571 481 556 489Q549 496 554 505Q569 532 571 581L571 620Q571 653 570 693L570 730Q570 913 573 935 Z"/>
<defs>
	<clipPath id="z26834c1"><use xlink:href="#z26834d1"/></clipPath>
	<clipPath id="z26834c2"><use xlink:href="#z26834d2"/></clipPath>
	<clipPath id="z26834c3"><use xlink:href="#z26834d3"/></clipPath>
	<clipPath id="z26834c4"><use xlink:href="#z26834d4"/></clipPath>
	<clipPath id="z26834c5"><use xlink:href="#z26834d5"/></clipPath>
	<clipPath id="z26834c6"><use xlink:href="#z26834d6"/></clipPath>
	<clipPath id="z26834c7"><use xlink:href="#z26834d7"/></clipPath>
	<clipPath id="z26834c8"><use xlink:href="#z26834d8"/></clipPath>
	<clipPath id="z26834c9"><use xlink:href="#z26834d9"/></clipPath>
	<clipPath id="z26834c10"><use xlink:href="#z26834d10"/></clipPath>
	<clipPath id="z26834c11"><use xlink:href="#z26834d11"/></clipPath>
	<clipPath id="z26834c12"><use xlink:href="#z26834d12"/></clipPath>
</defs>
<path pathLength="3333" clip-path="url(#z26834c1)" d="M71 383L385 336"/>
<path pathLength="3333" clip-path="url(#z26834c2)" d="M212 60L273 123L245 914"/>
<path pathLength="3333" clip-path="url(#z26834c3)" d="M233 398L180 534L60 695"/>
<path pathLength="3333" clip-path="url(#z26834c4)" d="M286 487L355 560"/>
<path pathLength="3333" clip-path="url(#z26834c5)" d="M441 227L527 230L781 183"/>
<path pathLength="3333" clip-path="url(#z26834c6)" d="M469 332L739 287"/>
<path pathLength="3333" clip-path="url(#z26834c7)" d="M367 451L776 383L859 387"/>
<path pathLength="3333" clip-path="url(#z26834c8)" d="M560 45L600 97L544 365L470 535L349 688"/>
<path pathLength="3333" clip-path="url(#z26834c9)" d="M610 339L834 596L975 620"/>
<path pathLength="3333" clip-path="url(#z26834c10)" d="M472 601L716 575"/>
<path pathLength="3333" clip-path="url(#z26834c11)" d="M413 730L734 685L816 694"/>
<path pathLength="3333" clip-path="url(#z26834c12)" d="M560 498L599 531L590 963"/>
</svg>