<!--
AnimCJK 2016-2019 Copyright Francois Mizessyn - https://github.com/parsimonhi/animCJK
Derived from:
    MakeMeAHanzi project - https://github.com/skishore/makemeahanzi
    Arphic PL KaitiM GB font
    Arphic PL UKai font
You can redistribute and/or modify this file under the terms of the Arphic Public License
as published by Arphic Technology Co., Ltd.
You should have received a copy of this license along with this file.
If not, see http://ftp.gnu.org/non-gnu/chinese-fonts-truetype/LICENSE.
-->
<svg id="z26880" class="acjk" version="1.1" viewBox="0 0 1024 1024" xmlns="http://www.w3.org/2000/svg" xmlns:xlink="http://www.w3.org/1999/xlink">
<style>
<![CDATA[
@keyframes zk {
	to {
		stroke-dashoffset:0;
	}
}
svg.acjk path[clip-path] {
	--t:0.8s;
	animation:zk var(--t) linear forwards var(--d);
	stroke-dasharray:3337;
	stroke-dashoffset:3339;
	stroke-width:128;
	stroke-linecap:round;
	fill:none;
	stroke:#000;
}
svg.acjk path[id] {fill:#ccc;}
]]>
</style>
<path id="z26880d1" d="M313 375C377 357 411 347 414 345C420 339 421 333 418 328C413 320 400 313 380 310C347 304 329 314 314 320C285 330 285 330 271 335C198 353 145 364 114 370C89 374 86 382 105 393C130 407 189 404 211 400C225 397 243 392 256 390C265 387 265 387 270 386C299 379 299 379 313 375Z"/>
<path id="z26880d2" d="M310 483C310 449 311 413 313 375C314 338 314 338 314 320C314 248 317 187 335 142C341 123 339 110 320 97C309 89 296 81 280 71C264 61 250 59 237 69C233 71 232 79 238 89C257 123 271 154 271 186C271 285 271 285 271 335C270 369 270 369 270 386C268 456 268 456 267 491C261 619 256 694 253 716C249 738 243 760 237 783C228 811 234 844 251 882C256 893 260 899 265 903C270 906 272 906 278 901C282 897 289 890 296 877C303 860 305 842 305 822C304 796 305 693 309 513C310 493 310 493 310 483Z"/>
<path id="z26880d3" d="M256 390C236 444 212 497 184 548C153 602 119 660 44 762C39 768 42 772 50 773C54 773 59 771 66 765C160 680 213 602 267 491C304 398 293 297 256 390Z"/>
<path id="z26880d4" d="M309 513C341 547 364 564 380 564C388 564 396 558 398 546C399 537 395 526 388 515C376 497 349 487 310 483C300 481 303 505 309 513Z"/>
<path id="z26880d5" d="M598 147C614 159 631 174 649 191C659 199 670 203 681 203C687 202 693 197 697 188C699 177 697 161 690 141C681 119 648 104 591 97C580 94 572 94 568 97C564 99 563 105 565 115C567 121 578 132 598 147Z"/>
<path id="z26880d6" d="M507 299C498 277 489 262 479 255C477 252 474 252 471 254C467 256 464 260 464 267C464 285 453 315 430 359C423 367 419 378 419 390C419 402 422 412 427 422C431 430 435 431 439 427C447 425 457 409 470 381C482 352 492 333 500 323C500 322 500 322 500 322C505 316 510 306 507 299Z"/>
<path id="z26880d7" d="M500 322C512 330 536 328 570 318C642 292 696 280 752 274C760 272 767 271 772 272C780 280 784 287 782 292C782 294 777 316 767 359C764 367 765 373 769 375C773 377 780 373 790 365C818 339 846 320 872 310C892 300 902 292 901 288C900 282 877 266 831 241C819 234 789 236 742 247C652 263 580 278 507 299C500 302 493 318 500 322Z"/>
<path id="z26880d8" d="M440 591C462 561 479 536 493 517C500 506 500 506 504 500C522 468 533 449 539 444C543 439 543 433 541 427C538 421 530 413 517 405C504 397 493 393 485 395C477 395 475 401 479 411C489 427 478 465 448 527C433 555 415 584 395 615C390 619 387 623 387 626C386 630 389 632 395 632C399 631 407 625 418 614C418 612 420 610 423 609C434 597 434 597 440 591Z"/>
<path id="z26880d9" d="M493 517C499 519 509 520 522 520C540 519 549 520 550 523C552 531 549 551 541 583C534 617 515 658 483 707C453 757 411 809 358 861C346 869 345 873 356 872C426 860 498 779 570 630C592 570 608 534 620 524C626 519 628 513 625 507C622 501 607 492 579 481C573 478 564 480 552 486C542 490 526 495 504 500C497 501 486 516 493 517Z"/>
<path id="z26880d10" d="M423 609C447 647 464 666 474 668C480 668 485 665 490 658C492 651 491 643 488 633C483 621 467 607 440 591C433 587 418 602 423 609Z"/>
<path id="z26880d11" d="M686 489C686 488 687 487 689 487C723 472 753 460 779 454C784 452 789 452 790 454C795 460 795 471 794 488C790 533 785 567 775 587C767 601 756 609 743 607C732 605 721 600 711 596C699 591 695 596 705 608C724 631 738 651 749 667C756 678 765 676 775 669C804 645 827 591 839 503C842 480 846 463 855 453C860 446 863 439 859 434C855 428 838 422 811 412C800 408 790 409 781 417C774 421 757 429 729 440C711 446 694 451 679 456C669 460 676 494 686 489Z"/>
<path id="z26880d12" d="M954 793C945 776 932 742 921 690C918 679 917 672 913 670C909 667 906 672 903 684C886 740 872 777 861 794C855 802 842 810 823 815C777 825 755 823 718 808C703 801 693 792 688 782C665 734 664 636 686 489C688 478 687 464 679 456C671 448 660 442 647 438C639 435 632 435 628 439C624 441 623 448 627 459C635 481 638 504 637 527C630 669 634 760 645 801C648 815 656 828 670 841C715 882 768 895 870 873C873 872 876 871 881 870C904 864 926 851 948 834C960 823 962 809 954 793Z"/>
<defs>
	<clipPath id="z26880c1"><use xlink:href="#z26880d1"/></clipPath>
	<clipPath id="z26880c2"><use xlink:href="#z26880d2"/></clipPath>
	<clipPath id="z26880c3"><use xlink:href="#z26880d3"/></clipPath>
	<clipPath id="z26880c4"><use xlink:href="#z26880d4"/></clipPath>
	<clipPath id="z26880c5"><use xlink:href="#z26880d5"/></clipPath>
	<clipPath id="z26880c6"><use xlink:href="#z26880d6"/></clipPath>
	<clipPath id="z26880c7"><use xlink:href="#z26880d7"/></clipPath>
	<clipPath id="z26880c8"><use xlink:href="#z26880d8"/></clipPath>
	<clipPath id="z26880c9"><use xlink:href="#z26880d9"/></clipPath>
	<clipPath id="z26880c10"><use xlink:href="#z26880d10"/></clipPath>
	<clipPath id="z26880c11"><use xlink:href="#z26880d11"/></clipPath>
	<clipPath id="z26880c12"><use xlink:href="#z26880d12"/></clipPath>
</defs>
<path style="--d:1s;" pathLength="3333" clip-path="url(#z26880c1)" d="M99 379L415 332"/>
<path style="--d:2s;" pathLength="3333" clip-path="url(#z26880c2)" d="M242 74L302 135L266 899"/>
<path style="--d:3s;" pathLength="3333" clip-path="url(#z26880c3)" d="M265 394L193 578L51 767"/>
<path style="--d:4s;" pathLength="3333" clip-path="url(#z26880c4)" d="M315 492L390 553"/>
<path style="--d:5s;" pathLength="3333" clip-path="url(#z26880c5)" d="M572 103L692 190"/>
<path style="--d:6s;" pathLength="3333" clip-path="url(#z26880c6)" d="M475 258L483 297L434 421"/>
<path style="--d:7s;" pathLength="3333" clip-path="url(#z26880c7)" d="M506 319L780 255L847 301L777 369"/>
<path style="--d:8s;" pathLength="3333" clip-path="url(#z26880c8)" d="M486 401L510 441L395 625"/>
<path style="--d:9s;" pathLength="3333" clip-path="url(#z26880c9)" d="M504 514L563 501L588 521L552 620L465 769L359 867"/>
<path style="--d:10s;" pathLength="3333" clip-path="url(#z26880c10)" d="M439 598L484 658"/>
<path style="--d:11s;" pathLength="3333" clip-path="url(#z26880c11)" d="M690 480L793 432L827 454L776 628L757 640L706 600"/>
<path style="--d:12s;" pathLength="3333" clip-path="url(#z26880c12)" d="M633 445L661 492L652 696L683 818L773 852L878 832L914 798L913 678"/>
</svg>