<!--
AnimCJK 2016-2019 Copyright Francois Mizessyn - https://github.com/parsimonhi/animCJK
Derived from:
    MakeMeAHanzi project - https://github.com/skishore/makemeahanzi
    Arphic PL KaitiM GB font
    Arphic PL UKai font
You can redistribute and/or modify this file under the terms of the Arphic Public License
as published by Arphic Technology Co., Ltd.
You should have received a copy of this license along with this file.
If not, see http://ftp.gnu.org/non-gnu/chinese-fonts-truetype/LICENSE.
-->
<svg id="z26893" class="acjk" version="1.1" viewBox="0 0 1024 1024" xmlns="http://www.w3.org/2000/svg" xmlns:xlink="http://www.w3.org/1999/xlink">
<style>
<![CDATA[
@keyframes zk {
	to {
		stroke-dashoffset:0;
	}
}
svg.acjk path[clip-path] {
	--t:0.8s;
	animation:zk var(--t) linear forwards var(--d);
	stroke-dasharray:3337;
	stroke-dashoffset:3339;
	stroke-width:128;
	stroke-linecap:round;
	fill:none;
	stroke:#000;
}
svg.acjk path[id] {fill:#ccc;}
]]>
</style>
<path id="z26893d1" d="M326 367C340 362 354 358 370 356C396 349 412 343 416 339C420 334 421 329 419 323C414 316 402 310 384 306C364 303 345 306 328 314C299 324 299 324 284 329C206 349 148 362 112 368C88 372 85 380 103 390C125 404 163 404 219 391C233 387 249 383 267 381C277 379 277 379 282 378C311 371 311 371 326 367Z"/>
<path id="z26893d2" d="M323 454C323 426 324 397 326 367C327 332 327 332 328 314C330 253 333 202 349 162C353 151 358 142 355 134C351 126 329 114 294 91C278 80 264 78 251 89C248 91 246 99 252 109C270 142 283 172 284 204C284 237 285 287 284 329C283 362 283 362 282 378C280 446 280 446 279 480C274 632 266 711 265 716C249 792 242 831 243 836C243 846 249 863 261 890C265 901 270 907 275 911C279 914 282 913 288 909C292 905 299 898 306 885C313 868 315 850 315 830C314 803 315 689 322 487C323 465 323 465 323 454Z"/>
<path id="z26893d3" d="M267 381C249 433 226 484 200 533C171 585 121 660 49 758C46 764 48 768 56 769C60 769 65 767 71 761C159 682 228 588 279 480C313 395 301 296 267 381Z"/>
<path id="z26893d4" d="M322 487Q398 553 406 554C408 554 408 554 409 554Q416 554 421 543Q425 533 419 509Q415 490 385 475Q358 463 323 454C312 452 313 480 322 487Z"/>
<path id="z26893d5" d="M652 295C676 289 739 276 842 262C848 261 857 259 861 250C864 242 853 237 839 229C817 215 788 215 745 229C689 245 660 251 658 252C624 259 624 259 607 263C563 272 501 278 472 283C453 286 451 292 466 304C488 320 509 326 527 322C551 315 577 310 605 305C636 298 636 298 652 295Z"/>
<path id="z26893d6" d="M634 418C641 376 646 335 652 295C656 266 656 266 658 252C660 232 668 198 683 148C685 142 681 133 670 123C649 111 632 102 618 98C608 96 600 97 596 101C591 106 591 113 595 122C605 140 610 155 610 167C610 198 609 230 607 263C606 291 606 291 605 305C602 344 599 383 595 426C595 439 631 431 634 418Z"/>
<path id="z26893d7" d="M511 783C503 782 499 773 495 768C487 755 479 741 483 726C487 684 492 642 494 601C495 557 497 514 489 470C487 460 482 451 479 440C477 434 471 425 479 421C486 415 507 420 525 437C533 443 536 455 534 465C532 475 532 507 533 535C533 547 533 553 533 561C533 604 533 604 533 625C533 640 533 640 533 648C533 676 532 698 531 725C530 744 530 744 529 754C527 770 518 782 511 783Z"/>
<path id="z26893d8" d="M712 738C722 756 731 773 741 794C747 807 754 814 760 816C766 816 772 808 778 793C787 765 791 733 790 698C784 556 785 474 791 454C796 440 795 430 789 424C783 416 770 407 748 396C738 390 722 392 699 401C680 406 657 413 634 418C608 423 608 423 595 426C571 430 548 433 525 437C515 439 524 465 534 465C539 466 547 464 553 463C594 450 640 440 694 436C710 434 720 436 725 443C731 450 734 512 733 630C733 672 733 690 732 706C731 713 727 716 723 716C715 719 708 731 712 738Z"/>
<path id="z26893d9" d="M669 501C657 501 611 511 533 535C525 538 524 561 533 561C537 562 543 561 551 560C604 549 650 540 690 533C702 531 706 526 701 518C696 510 686 504 671 501C670 501 670 501 669 501Z"/>
<path id="z26893d10" d="M533 648C537 648 541 648 549 647C603 637 649 629 689 624C701 621 705 616 701 609C696 600 686 594 671 592C658 590 641 592 619 598C587 607 560 616 533 625C526 627 525 648 533 648Z"/>
<path id="z26893d11" d="M531 725C583 718 631 708 683 696C695 694 714 699 723 716C727 723 720 738 712 738C654 740 600 746 547 754C541 754 535 754 529 754C519 754 521 727 531 725Z"/>
<path id="z26893d12" d="M387 907C371 906 352 898 351 882C349 873 360 867 366 862C381 847 380 825 384 806C392 754 389 702 388 651C387 632 360 613 372 600C388 580 425 593 445 608C450 611 450 616 450 622C439 687 436 743 431 812C430 824 427 836 433 847C436 854 458 849 465 849C528 844 579 843 641 840C698 837 754 832 811 840C832 842 846 846 867 855C882 860 890 866 892 874C893 883 882 887 873 888C853 889 717 886 667 886C597 886 527 885 458 892C436 893 416 900 396 906C393 906 390 907 387 907Z"/>
<defs>
	<clipPath id="z26893c1"><use xlink:href="#z26893d1"/></clipPath>
	<clipPath id="z26893c2"><use xlink:href="#z26893d2"/></clipPath>
	<clipPath id="z26893c3"><use xlink:href="#z26893d3"/></clipPath>
	<clipPath id="z26893c4"><use xlink:href="#z26893d4"/></clipPath>
	<clipPath id="z26893c5"><use xlink:href="#z26893d5"/></clipPath>
	<clipPath id="z26893c6"><use xlink:href="#z26893d6"/></clipPath>
	<clipPath id="z26893c7"><use xlink:href="#z26893d7"/></clipPath>
	<clipPath id="z26893c8"><use xlink:href="#z26893d8"/></clipPath>
	<clipPath id="z26893c9"><use xlink:href="#z26893d9"/></clipPath>
	<clipPath id="z26893c10"><use xlink:href="#z26893d10"/></clipPath>
	<clipPath id="z26893c11"><use xlink:href="#z26893d11"/></clipPath>
	<clipPath id="z26893c12"><use xlink:href="#z26893d12"/></clipPath>
</defs>
<path style="--d:1s;" pathLength="3333" clip-path="url(#z26893c1)" d="M100 377L416 327"/>
<path style="--d:2s;" pathLength="3333" clip-path="url(#z26893c2)" d="M257 94L317 160L282 907"/>
<path style="--d:3s;" pathLength="3333" clip-path="url(#z26893c3)" d="M275 386L210 561L56 764"/>
<path style="--d:4s;" pathLength="3333" clip-path="url(#z26893c4)" d="M329 462L415 542"/>
<path style="--d:5s;" pathLength="3333" clip-path="url(#z26893c5)" d="M464 292L855 246"/>
<path style="--d:6s;" pathLength="3333" clip-path="url(#z26893c6)" d="M600 107L646 154L606 419"/>
<path style="--d:7s;" pathLength="3333" clip-path="url(#z26893c7)" d="M484 426L513 486L508 778"/>
<path style="--d:8s;" pathLength="3333" clip-path="url(#z26893c8)" d="M530 439L712 416L755 431L759 811"/>
<path style="--d:9s;" pathLength="3333" clip-path="url(#z26893c9)" d="M537 552L698 522"/>
<path style="--d:10s;" pathLength="3333" clip-path="url(#z26893c10)" d="M541 640L697 613"/>
<path style="--d:11s;" pathLength="3333" clip-path="url(#z26893c11)" d="M533 750L718 724"/>
<path style="--d:12s;" pathLength="3333" clip-path="url(#z26893c12)" d="M379 604L418 630L400 855L416 877L696 861L886 875"/>
</svg>