<!--
AnimCJK 2016-2018 Copyright Francois Mizessyn, https://github.com/parsimonhi/animCJK
Derived from:
    MakeMeAHanzi project - https://github.com/skishore/makemeahanzi
    Arphic PL KaitiM GB - https://apps.ubuntu.com/cat/applications/precise/fonts-arphic-gkai00mp/
    Arphic PL UKai - https://apps.ubuntu.com/cat/applications/fonts-arphic-ukai/
You can redistribute and/or modify this file under the terms of the Arphic Public License
as published by Arphic Technology Co., Ltd.
You should have received a copy of this license (the directory "APL") along with this file;
if not, see http://ftp.gnu.org/non-gnu/chinese-fonts-truetype/LICENSE.
-->
<svg id="z26893" class="acjk" version="1.1" viewBox="0 0 1024 1024" xmlns="http://www.w3.org/2000/svg" xmlns:xlink="http://www.w3.org/1999/xlink">
<style>
<![CDATA[
@keyframes z26893k {
	from {
		stroke:#c00;
		stroke-dashoffset:3334;
	}
	75% {
		stroke:#c00;
		stroke-dashoffset:0;
	}
	to {
		stroke:#000;
	}
}
#z26893 path[clip-path] {
	animation:z26893k 1s linear both;
	stroke-dasharray:3334;
	stroke-width:128;
	stroke-linecap:round;
	fill:none;
}
#z26893 path[clip-path="url(#z26893c1)"] {animation-delay:1s;}
#z26893 path[clip-path="url(#z26893c2)"] {animation-delay:2s;}
#z26893 path[clip-path="url(#z26893c3)"] {animation-delay:3s;}
#z26893 path[clip-path="url(#z26893c4)"] {animation-delay:4s;}
#z26893 path[clip-path="url(#z26893c5)"] {animation-delay:5s;}
#z26893 path[clip-path="url(#z26893c6)"] {animation-delay:6s;}
#z26893 path[clip-path="url(#z26893c7)"] {animation-delay:7s;}
#z26893 path[clip-path="url(#z26893c8)"] {animation-delay:8s;}
#z26893 path[clip-path="url(#z26893c9)"] {animation-delay:9s;}
#z26893 path[clip-path="url(#z26893c10)"] {animation-delay:10s;}
#z26893 path[clip-path="url(#z26893c11)"] {animation-delay:11s;}
#z26893 path[clip-path="url(#z26893c12)"] {animation-delay:12s;}
#z26893 path {fill:#ccc;}
]]>
</style>
<path id="z26893d1" d="M326 367Q347 360 370 356Q410 346 416 339Q423 332 419 323Q412 313 384 306Q354 302 328 314L284 329Q167 360 112 368Q76 375 103 390Q136 411 219 391Q240 385 267 381L326 367 Z"/>
<path id="z26893d2" d="M323 454Q324 412 326 367L328 314Q329 223 349 162Q358 147 355 134Q348 124 294 91Q272 73 251 89Q247 93 252 109Q283 157 284 204Q284 262 284 329L279 480Q266 709 265 716Q241 830 243 836Q243 851 261 890Q267 908 275 911Q281 917 288 909Q295 905 306 885Q316 860 315 830Q315 790 322 487L323 454 Z"/>
<path id="z26893d3" d="M267 381Q240 460 200 533Q157 612 49 758Q45 768 56 769Q62 770 71 761Q203 643 279 480L282 378L267 381 Z"/>
<path id="z26893d4" d="M322 487Q398 553 406 554L409 554Q416 554 421 543Q425 533 419 509Q415 490 385 475Q358 463 323 454L322 487 Z"/>
<path id="z26893d5" d="M652 295Q689 286 842 262Q852 263 861 250Q862 238 839 229Q809 205 745 229Q661 250 658 252L607 263Q580 267 556 271Q516 275 472 283Q444 287 466 304Q500 329 527 322Q563 313 605 305L652 295 Z"/>
<path id="z26893d6" d="M634 418C641 376 646 335 652 295L658 252C660 232 668 198 683 148C685 142 681 133 670 123C649 111 632 102 618 98C608 96 600 97 596 101C591 106 591 113 595 122C605 140 610 155 610 167C610 198 609 230 607 263L605 305C602 344 599 383 595 426 Z"/>
<path id="z26893d7" d="M511 783C503 782 499 773 495 768C487 755 479 741 483 726C487 684 492 642 494 601C495 557 497 514 489 470C487 460 483 451 479 440C478 434 472 426 479 421C487 416 497 418 504 423C512 426 520 431 525 438C529 447 532 456 536 465C533 473 535 482 534 490C534 516 534 542 533 567C533 622 533 676 531 731C531 743 531 757 525 769C522 775 518 782 511 783 Z"/>
<path id="z26893d8" d="M711 736Q727 763 741 794Q751 814 760 816Q769 816 778 793Q792 751 790 698Q782 485 791 454Q799 433 789 424Q781 413 748 396Q734 388 699 401Q629 423 523 437L534 465Q542 464 551 463Q613 442 694 436Q718 433 725 443Q735 454 733 630Q734 694 728 706Q726 710 723 712L711 736 Z"/>
<path id="z26893d9" d="M531 559Q538 562 551 560Q631 544 690 533Q709 530 701 518Q694 506 671 501Q655 500 531 537L531 559 Z"/>
<path id="z26893d10" d="M531 648Q538 649 549 647Q630 632 689 624Q708 620 701 609Q694 596 671 592Q652 589 619 598Q572 612 531 625L531 648 Z"/>
<path id="z26893d11" d="M526 754C527 745 527 735 528 725C580 718 631 708 683 696C695 694 709 695 718 704C721 708 727 711 723 716C719 723 716 731 712 738C654 740 595 745 537 756C533 756 529 757 526 757C526 756 526 755 526 754 Z"/>
<path id="z26893d12" d="M387 907C371 906 354 898 351 882C351 873 359 866 366 862C380 846 380 825 384 806C392 754 391 702 388 651C389 632 370 618 372 600C395 588 425 594 445 608C450 612 452 617 450 622C441 688 436 743 431 812C430 824 429 836 433 847C438 854 458 849 465 849C528 844 579 843 641 840C698 837 754 833 811 840C832 843 846 847 867 855C882 861 889 867 892 874C892 884 882 888 873 888C854 890 717 886 667 886C597 886 528 887 458 892C437 895 416 900 396 906C393 906 390 907 387 907 Z"/>
<defs>
	<clipPath id="z26893c1"><use xlink:href="#z26893d1"/></clipPath>
	<clipPath id="z26893c2"><use xlink:href="#z26893d2"/></clipPath>
	<clipPath id="z26893c3"><use xlink:href="#z26893d3"/></clipPath>
	<clipPath id="z26893c4"><use xlink:href="#z26893d4"/></clipPath>
	<clipPath id="z26893c5"><use xlink:href="#z26893d5"/></clipPath>
	<clipPath id="z26893c6"><use xlink:href="#z26893d6"/></clipPath>
	<clipPath id="z26893c7"><use xlink:href="#z26893d7"/></clipPath>
	<clipPath id="z26893c8"><use xlink:href="#z26893d8"/></clipPath>
	<clipPath id="z26893c9"><use xlink:href="#z26893d9"/></clipPath>
	<clipPath id="z26893c10"><use xlink:href="#z26893d10"/></clipPath>
	<clipPath id="z26893c11"><use xlink:href="#z26893d11"/></clipPath>
	<clipPath id="z26893c12"><use xlink:href="#z26893d12"/></clipPath>
</defs>
<path pathLength="3333" clip-path="url(#z26893c1)" d="M100 377L416 327"/>
<path pathLength="3333" clip-path="url(#z26893c2)" d="M257 94L317 160L282 907"/>
<path pathLength="3333" clip-path="url(#z26893c3)" d="M275 386L210 561L56 764"/>
<path pathLength="3333" clip-path="url(#z26893c4)" d="M329 462L415 542"/>
<path pathLength="3333" clip-path="url(#z26893c5)" d="M464 292L855 246"/>
<path pathLength="3333" clip-path="url(#z26893c6)" d="M600 107L646 154L606 419"/>
<path pathLength="3333" clip-path="url(#z26893c7)" d="M484 426L513 486L508 778"/>
<path pathLength="3333" clip-path="url(#z26893c8)" d="M530 439L712 416L755 431L759 811"/>
<path pathLength="3333" clip-path="url(#z26893c9)" d="M537 552L698 522"/>
<path pathLength="3333" clip-path="url(#z26893c10)" d="M541 640L697 613"/>
<path pathLength="3333" clip-path="url(#z26893c11)" d="M533 750L718 724"/>
<path pathLength="3333" clip-path="url(#z26893c12)" d="M379 604L418 630L400 855L416 877L696 861L886 875"/>
</svg>