<!--
AnimCJK 2016-2026 Copyright FM-SH - https://github.com/parsimonhi/animCJK
Derived from:
    MakeMeAHanzi project - https://github.com/skishore/makemeahanzi
    Arphic PL KaitiM GB font
    Arphic PL KaitiM Big5 font
You can redistribute and/or modify this file under the terms of the Arphic Public License
as published by Arphic Technology Co., Ltd.
You should have received a copy of this license along with this file.
If not, see https://ftp.gnu.org/non-gnu/chinese-fonts-truetype/LICENSE.
-->
<svg id="z27067" class="acjk" viewBox="0 0 1024 1024" xmlns="http://www.w3.org/2000/svg">
<style>
<![CDATA[
@keyframes zk {
	to {
		stroke-dashoffset:0;
	}
}
svg.acjk path[clip-path] {
	--t:0.8s;
	animation:zk var(--t) linear forwards var(--d);
	stroke-dasharray:3337;
	stroke-dashoffset:3339;
	stroke-width:128;
	stroke-linecap:round;
	fill:none;
	stroke:#000;
}
svg.acjk path[id] {fill:#ccc;}
]]>
</style>
<path id="z27067d1" d="M328 376Q350 369 375 363Q415 351 421 345Q430 336 424 328Q417 316 386 311Q356 307 329 319C298 332 298 332 283 338Q184 368 111 381Q74 390 102 405Q145 429 203 410Q230 401 264 394C307 382 307 382 328 376Z"/>
<path id="z27067d2" d="M326 436Q326 406 328 376C329 338 329 338 329 319Q329 220 350 148Q365 123 339 105Q323 93 294 75Q270 57 249 73Q245 77 250 94Q283 143 283 191Q283 260 283 338C280 434 280 434 279 482Q272 680 269 703Q262 748 249 791Q239 828 263 894Q270 912 278 915Q284 922 292 913Q319 897 320 831Q319 788 325 471C326 448 326 448 326 436Z"/>
<path id="z27067d3" d="M264 394C247 442 227 489 203 535C174 589 124 665 54 763C50 769 52 773 60 774C76 774 120 725 194 629C224 588 253 539 279 482C311 403 296 315 264 394Z"/>
<path id="z27067d4" d="M325 471Q343 489 367 520Q376 530 388 532Q395 533 401 523Q407 513 403 489Q399 465 329 436Q328 435 326 436C315 434 317 463 325 471Z"/>
<path id="z27067d5" d="M503 167Q490 163 472 159Q460 156 457 161Q450 168 459 184Q487 242 504 337Q507 365 524 385Q542 407 547 391Q550 382 550 371C550 353 550 353 550 344Q549 337 548 328Q544 306 541 288C538 274 538 274 537 267Q530 218 527 198C524 185 516 170 503 167Z"/>
<path id="z27067d6" d="M723 352Q724 353 725 356Q731 372 744 371Q757 370 765 354Q775 341 796 276Q812 224 849 195Q868 179 852 164Q833 146 784 120Q769 111 704 128Q677 128 583 152Q537 162 503 167C490 170 514 200 527 198Q735 156 748 160C749 161 749 161 750 161Q759 167 754 195Q735 301 727 322C723 331 718 343 723 352Z"/>
<path id="z27067d7" d="M541 288Q547 289 556 288Q629 275 684 266Q705 262 697 251Q687 238 665 235Q643 232 537 267C530 270 534 288 541 288Z"/>
<path id="z27067d8" d="M550 371Q562 374 573 371Q621 359 723 352C733 352 735 328 727 322Q726 321 722 318Q707 311 681 317Q608 335 550 344C541 345 541 369 550 371Z"/>
<path id="z27067d9" d="M509 813Q485 809 461 804Q443 800 445 808Q497 847 526 877Q538 893 551 897Q558 900 566 892Q600 847 599 804Q586 537 607 504Q617 488 608 479Q590 463 559 449Q544 443 500 465Q481 472 439 479Q426 480 433 487Q440 497 453 501Q471 505 522 488Q538 484 543 491Q547 501 548 519Q552 679 543 776Q542 801 532 813Q528 817 509 813Z"/>
<path id="z27067d10" d="M390 630C354 662 428 633 442 627C469 614 487 600 510 585C529 572 533 560 523 552C467 509 474 536 461 559C447 585 411 611 390 630Z"/>
<path id="z27067d11" d="M388 756C347 787 388 776 439 752C461 743 483 729 508 711C528 696 533 686 521 678C462 635 467 670 459 684C450 702 425 727 388 756Z"/>
<path id="z27067d12" d="M778 812Q756 809 731 805Q712 799 713 809Q765 854 796 888Q809 907 825 912Q834 916 842 906Q884 858 882 802Q855 517 881 468Q894 449 882 438Q860 419 824 404Q806 397 750 424Q711 436 654 444Q639 445 648 454Q657 464 671 470Q692 473 780 450Q799 446 805 455Q809 467 811 485Q821 663 814 771Q813 799 804 811Q798 818 778 812Z"/>
<path id="z27067d13" d="M657 604C619 639 670 618 705 600C732 586 745 576 773 559C795 546 794 532 786 525C727 477 740 504 725 532C711 557 680 583 657 604Z"/>
<path id="z27067d14" d="M725 660C713 680 675 713 657 727C630 750 670 737 705 721C724 713 743 702 773 684C798 670 799 661 786 651C733 608 741 632 725 660Z"/>
<defs>
	<clipPath id="z27067c1"><use href="#z27067d1"/></clipPath>
	<clipPath id="z27067c2"><use href="#z27067d2"/></clipPath>
	<clipPath id="z27067c3"><use href="#z27067d3"/></clipPath>
	<clipPath id="z27067c4"><use href="#z27067d4"/></clipPath>
	<clipPath id="z27067c5"><use href="#z27067d5"/></clipPath>
	<clipPath id="z27067c6"><use href="#z27067d6"/></clipPath>
	<clipPath id="z27067c7"><use href="#z27067d7"/></clipPath>
	<clipPath id="z27067c8"><use href="#z27067d8"/></clipPath>
	<clipPath id="z27067c9"><use href="#z27067d9"/></clipPath>
	<clipPath id="z27067c10"><use href="#z27067d10"/></clipPath>
	<clipPath id="z27067c11"><use href="#z27067d11"/></clipPath>
	<clipPath id="z27067c12"><use href="#z27067d12"/></clipPath>
	<clipPath id="z27067c13"><use href="#z27067d13"/></clipPath>
	<clipPath id="z27067c14"><use href="#z27067d14"/></clipPath>
</defs>
<path style="--d:1s;" pathLength="3333" clip-path="url(#z27067c1)" d="M96 392L166 394L421 330"/>
<path style="--d:2s;" pathLength="3333" clip-path="url(#z27067c2)" d="M252 78L316 142L283 913"/>
<path style="--d:3s;" pathLength="3333" clip-path="url(#z27067c3)" d="M288 370L208 570L57 766"/>
<path style="--d:4s;" pathLength="3333" clip-path="url(#z27067c4)" d="M325 443L388 527"/>
<path style="--d:5s;" pathLength="3333" clip-path="url(#z27067c5)" d="M462 163L497 199L534 392"/>
<path style="--d:6s;" pathLength="3333" clip-path="url(#z27067c6)" d="M507 173L750 138L785 152L807 183L739 365"/>
<path style="--d:7s;" pathLength="3333" clip-path="url(#z27067c7)" d="M537 276L690 254"/>
<path style="--d:8s;" pathLength="3333" clip-path="url(#z27067c8)" d="M546 358L729 336"/>
<path style="--d:9s;" pathLength="3333" clip-path="url(#z27067c9)" d="M438 482L551 469L579 503L562 830L538 856L451 807"/>
<path style="--d:10s;" pathLength="3333" clip-path="url(#z27067c10)" d="M481 535L490 570L390 637"/>
<path style="--d:11s;" pathLength="3333" clip-path="url(#z27067c11)" d="M476 663L488 695L382 768"/>
<path style="--d:12s;" pathLength="3333" clip-path="url(#z27067c12)" d="M653 450L800 426L848 458L839 832L808 863L721 808"/>
<path style="--d:13s;" pathLength="3333" clip-path="url(#z27067c13)" d="M744 502L755 540L651 617"/>
<path style="--d:14s;" pathLength="3333" clip-path="url(#z27067c14)" d="M744 635L755 668L659 733"/>
</svg>