<!--
AnimCJK 2016-2018 Copyright Francois Mizessyn, https://github.com/parsimonhi/animCJK
Derived from:
    MakeMeAHanzi project - https://github.com/skishore/makemeahanzi
    Arphic PL KaitiM GB - https://apps.ubuntu.com/cat/applications/precise/fonts-arphic-gkai00mp/
    Arphic PL UKai - https://apps.ubuntu.com/cat/applications/fonts-arphic-ukai/
You can redistribute and/or modify this file under the terms of the Arphic Public License
as published by Arphic Technology Co., Ltd.
You should have received a copy of this license (the directory "APL") along with this file;
if not, see http://ftp.gnu.org/non-gnu/chinese-fonts-truetype/LICENSE.
-->
<svg id="z27084" class="acjk" version="1.1" viewBox="0 0 1024 1024" xmlns="http://www.w3.org/2000/svg" xmlns:xlink="http://www.w3.org/1999/xlink">
<style>
<![CDATA[
@keyframes z27084k {
	from {
		stroke:#c00;
		stroke-dashoffset:3334;
	}
	75% {
		stroke:#c00;
		stroke-dashoffset:0;
	}
	to {
		stroke:#000;
	}
}
#z27084 path[clip-path] {
	animation:z27084k 1s linear both;
	stroke-dasharray:3334;
	stroke-width:128;
	stroke-linecap:round;
	fill:none;
}
#z27084 path[clip-path="url(#z27084c1)"] {animation-delay:1s;}
#z27084 path[clip-path="url(#z27084c2)"] {animation-delay:2s;}
#z27084 path[clip-path="url(#z27084c3)"] {animation-delay:3s;}
#z27084 path[clip-path="url(#z27084c4)"] {animation-delay:4s;}
#z27084 path[clip-path="url(#z27084c5)"] {animation-delay:5s;}
#z27084 path[clip-path="url(#z27084c6)"] {animation-delay:6s;}
#z27084 path[clip-path="url(#z27084c7)"] {animation-delay:7s;}
#z27084 path[clip-path="url(#z27084c8)"] {animation-delay:8s;}
#z27084 path[clip-path="url(#z27084c9)"] {animation-delay:9s;}
#z27084 path[clip-path="url(#z27084c10)"] {animation-delay:10s;}
#z27084 path[clip-path="url(#z27084c11)"] {animation-delay:11s;}
#z27084 path[clip-path="url(#z27084c12)"] {animation-delay:12s;}
#z27084 path[clip-path="url(#z27084c13)"] {animation-delay:13s;}
#z27084 path[clip-path="url(#z27084c14)"] {animation-delay:14s;}
#z27084 path {fill:#ccc;}
]]>
</style>
<path id="z27084d1" d="M289 382Q370 355 373 353Q382 344 376 336Q369 324 338 319Q313 315 291 324L248 342Q170 370 103 381Q66 391 94 405Q139 424 210 402Q222 398 236 396L289 382 Z"/>
<path id="z27084d2" d="M286 490C286 456 287 420 289 382L291 324C291 256 295 196 313 150C319 131 317 118 298 105C287 97 273 89 258 79C242 68 228 66 215 77C212 79 210 87 216 97C234 130 248 161 248 194L248 342L243 501C240 545 239 592 238 640C236 690 226 739 212 787C203 815 208 847 225 886C230 897 234 903 239 907C243 910 246 909 252 905C256 901 263 894 270 881C277 864 279 846 279 826C278 801 281 700 285 522 Z"/>
<path id="z27084d3" d="M236 396Q193 526 54 723Q48 733 60 734Q81 734 177 611Q211 565 244 501L247 393L236 395 Z"/>
<path id="z27084d4" d="M285 522Q292 525 346 576Q356 586 369 586Q378 586 381 575Q385 565 378 541Q372 514 289 490Q288 489 286 490L285 522 Z"/>
<path id="z27084d5" d="M621 302C637 284 669 250 713 197C723 184 733 171 747 161C759 151 760 141 750 132C739 123 724 116 705 112C687 107 674 107 667 111C659 114 658 118 663 128C669 141 656 184 625 255C618 269 611 284 603 301 Z"/>
<path id="z27084d6" d="M619 509Q619 479 618 447L618 417Q617 354 620 332L603 301Q584 286 562 280Q553 279 547 287Q544 291 552 302Q600 416 565 605Q553 656 557 674Q567 705 577 717Q587 729 597 716Q612 698 613 670L618 633Q618 620 619 537L619 509 Z"/>
<path id="z27084d7" d="M797 386Q816 338 840 322Q855 306 841 291Q826 279 781 259Q766 253 682 286L621 302L603 301L620 332Q629 329 740 302Q753 299 758 304Q767 313 750 383L797 386 Z"/>
<path id="z27084d8" d="M618 447Q628 448 640 446Q694 431 810 417Q820 416 821 407Q821 400 797 386L750 383Q749 383 748 383Q676 405 618 417L618 447 Z"/>
<path id="z27084d9" d="M813 606Q834 555 861 537Q877 521 863 504Q797 450 745 477Q694 493 619 509L619 537Q622 537 757 513Q770 510 775 515Q782 522 780 536Q773 570 764 601L813 606 Z"/>
<path id="z27084d10" d="M613 670Q626 673 642 669Q700 656 830 647Q842 646 844 635Q844 626 813 606L764 601Q760 600 756 602Q680 621 618 633L613 670 Z"/>
<path id="z27084d11" d="M451 165C464 177 476 191 490 207C497 215 507 220 517 220C523 220 529 215 533 207C536 198 535 184 531 165C528 154 519 143 502 136C464 119 438 112 428 117C424 118 422 125 424 133C424 139 435 150 451 165 Z"/>
<path id="z27084d12" d="M421 299C434 311 446 325 460 341C467 349 477 354 487 354C493 354 499 349 503 341C506 332 505 318 501 299C498 288 489 277 472 270C434 253 408 246 398 251C394 252 392 259 394 267C394 273 405 284 421 299 Z"/>
<path id="z27084d13" d="M418 539C417 553 422 566 428 579C453 630 461 668 455 692C454 692 454 693 454 694L475 696C483 691 490 683 493 672C499 648 489 616 467 576C451 548 467 508 513 464C524 452 526 444 516 435C505 425 489 416 470 407C459 401 444 408 419 421C376 442 350 449 345 449C340 448 337 449 337 453C336 455 337 458 342 461C361 472 390 469 427 455C431 453 436 455 441 461C449 471 450 485 439 498C427 511 418 523 418 539 Z"/>
<path id="z27084d14" d="M454 694Q411 690 369 704Q347 711 311 713Q305 713 302 722Q299 729 307 738Q323 754 347 765Q357 771 375 757Q435 703 540 755Q573 770 618 794Q783 884 852 866Q909 850 958 818Q979 805 958 805Q780 793 736 783Q657 764 542 715Q508 700 475 696L454 694 Z"/>
<defs>
	<clipPath id="z27084c1"><use xlink:href="#z27084d1"/></clipPath>
	<clipPath id="z27084c2"><use xlink:href="#z27084d2"/></clipPath>
	<clipPath id="z27084c3"><use xlink:href="#z27084d3"/></clipPath>
	<clipPath id="z27084c4"><use xlink:href="#z27084d4"/></clipPath>
	<clipPath id="z27084c5"><use xlink:href="#z27084d5"/></clipPath>
	<clipPath id="z27084c6"><use xlink:href="#z27084d6"/></clipPath>
	<clipPath id="z27084c7"><use xlink:href="#z27084d7"/></clipPath>
	<clipPath id="z27084c8"><use xlink:href="#z27084d8"/></clipPath>
	<clipPath id="z27084c9"><use xlink:href="#z27084d9"/></clipPath>
	<clipPath id="z27084c10"><use xlink:href="#z27084d10"/></clipPath>
	<clipPath id="z27084c11"><use xlink:href="#z27084d11"/></clipPath>
	<clipPath id="z27084c12"><use xlink:href="#z27084d12"/></clipPath>
	<clipPath id="z27084c13"><use xlink:href="#z27084d13"/></clipPath>
	<clipPath id="z27084c14"><use xlink:href="#z27084d14"/></clipPath>
</defs>
<path pathLength="3333" clip-path="url(#z27084c1)" d="M90 394L372 343"/>
<path pathLength="3333" clip-path="url(#z27084c2)" d="M219 78L280 146L247 904"/>
<path pathLength="3333" clip-path="url(#z27084c3)" d="M242 401L199 536L60 728"/>
<path pathLength="3333" clip-path="url(#z27084c4)" d="M291 498L372 579"/>
<path pathLength="3333" clip-path="url(#z27084c5)" d="M667 118L707 159L613 298"/>
<path pathLength="3333" clip-path="url(#z27084c6)" d="M552 286L594 354L587 718"/>
<path pathLength="3333" clip-path="url(#z27084c7)" d="M613 308L772 282L804 314L774 384"/>
<path pathLength="3333" clip-path="url(#z27084c8)" d="M627 439L751 403L815 407"/>
<path pathLength="3333" clip-path="url(#z27084c9)" d="M627 528L789 493L824 529L782 602"/>
<path pathLength="3333" clip-path="url(#z27084c10)" d="M622 665L724 632L838 629"/>
<path pathLength="3333" clip-path="url(#z27084c11)" d="M431 124L526 210"/>
<path pathLength="3333" clip-path="url(#z27084c12)" d="M401 258L496 344"/>
<path pathLength="3333" clip-path="url(#z27084c13)" d="M344 455L448 430L485 460L440 540L474 650L467 692"/>
<path pathLength="3333" clip-path="url(#z27084c14)" d="M307 724L354 737L421 712L495 718L807 830L959 811"/>
</svg>