<!--
AnimCJK 2016-2026 Copyright FM-SH - https://github.com/parsimonhi/animCJK
Derived from:
    MakeMeAHanzi project - https://github.com/skishore/makemeahanzi
    Arphic PL KaitiM GB font
    Arphic PL KaitiM Big5 font
You can redistribute and/or modify this file under the terms of the Arphic Public License
as published by Arphic Technology Co., Ltd.
You should have received a copy of this license along with this file.
If not, see https://ftp.gnu.org/non-gnu/chinese-fonts-truetype/LICENSE.
-->
<svg id="z27102" class="acjk" viewBox="0 0 1024 1024" xmlns="http://www.w3.org/2000/svg">
<style>
<![CDATA[
@keyframes zk {
	to {
		stroke-dashoffset:0;
	}
}
svg.acjk path[clip-path] {
	--t:0.8s;
	animation:zk var(--t) linear forwards var(--d);
	stroke-dasharray:3337;
	stroke-dashoffset:3339;
	stroke-width:128;
	stroke-linecap:round;
	fill:none;
	stroke:#000;
}
svg.acjk path[id] {fill:#ccc;}
]]>
</style>
<path id="z27102d1" d="M308 390C376 373 407 365 416 359C441 340 389 325 382 324C354 319 332 330 309 337C281 345 281 345 267 349C204 366 125 381 109 384C84 387 79 398 99 408C151 433 201 415 254 403C290 394 290 394 308 390Z"/>
<path id="z27102d2" d="M307 462C307 441 307 413 308 390C309 355 309 355 309 337C310 272 312 214 329 168C335 149 332 135 314 123C302 114 291 106 274 97C256 86 214 79 233 115C267 179 268 268 267 349C265 450 265 450 264 500C261 608 251 739 234 813C225 847 230 876 248 912C265 948 282 940 293 909C298 894 303 874 303 852C302 825 307 664 307 494C307 473 307 473 307 462Z"/>
<path id="z27102d3" d="M254 403C216 510 180 572 72 720C54 746 57 763 85 739C100 727 186 653 265 500C298 419 282 319 254 402C254 403 254 403 254 403Z"/>
<path id="z27102d4" d="M307 494C346 526 371 562 395 562C399 562 404 558 407 551C416 519 396 495 371 483C346 471 327 465 307 462C296 460 298 488 307 494Z"/>
<path id="z27102d5" d="M612 96C625 107 637 120 651 134C660 143 683 152 688 127C690 117 687 100 680 82C676 71 667 61 652 56C613 44 591 43 585 49C583 51 582 58 583 67C584 74 595 83 612 96Z"/>
<path id="z27102d6" d="M722 212C741 209 786 200 798 191C817 179 792 160 772 154C756 149 722 161 666 176C600 193 546 197 505 201C484 203 481 213 495 224C518 242 544 244 574 240C595 237 632 229 690 218C711 214 711 214 722 212Z"/>
<path id="z27102d7" d="M518 291C536 332 550 357 564 361C570 362 578 359 581 348C584 340 582 329 578 317C570 294 552 279 524 268C518 265 516 269 515 276C514 281 515 285 518 291Z"/>
<path id="z27102d8" d="M675 364C755 234 764 255 722 212C714 204 688 207 690 218C697 257 664 336 654 368C651 375 671 370 675 364Z"/>
<path id="z27102d9" d="M654 368C621 374 478 396 362 413C351 415 348 422 357 433C374 453 395 461 416 454C564 403 681 385 923 385C940 384 966 376 937 350C904 321 882 315 849 324C796 339 752 349 675 364C661 367 661 367 654 368Z"/>
<path id="z27102d10" d="M486 505C477 498 410 467 432 516C450 559 464 617 475 689C479 710 484 728 494 743C516 774 517 744 518 731C518 721 518 710 517 700C513 677 491 554 492 540C492 528 495 512 486 505Z"/>
<path id="z27102d11" d="M734 700C744 725 761 754 782 724C791 711 805 666 828 589C834 568 843 548 859 531C867 523 869 514 863 503C856 489 840 471 815 451C805 443 771 450 717 461C703 463 618 481 486 505C474 507 481 544 492 540C520 531 573 516 600 511C630 506 630 506 645 503C780 479 791 494 785 525C767 615 751 661 740 666C732 674 730 689 734 700Z"/>
<path id="z27102d12" d="M543 603C534 606 534 612 546 621C561 634 592 622 611 618C638 612 638 612 652 609C673 605 689 600 708 597C734 593 720 568 690 561C679 558 669 559 654 565C625 576 625 576 611 582C588 590 562 596 543 603Z"/>
<path id="z27102d13" d="M648 712C677 708 705 703 734 700C745 698 750 672 740 666C732 656 705 667 650 677C624 681 624 681 611 683C579 689 546 694 517 700C507 702 508 731 518 731C534 731 557 724 611 717C636 714 636 714 648 712Z"/>
<path id="z27102d14" d="M611 717C611 827 619 863 642 885C675 919 733 926 833 918C870 915 919 898 943 878C952 871 956 854 950 838C945 821 930 788 927 741C923 689 912 730 912 731C888 821 868 841 851 849C792 876 726 871 685 851C644 831 644 778 648 712C649 689 649 689 650 677C650 659 651 636 652 609C653 580 653 580 654 565C656 524 677 529 645 503C633 493 595 497 600 511C607 522 611 566 611 582C611 606 611 606 611 618C611 661 611 661 611 683C611 706 611 706 611 717Z"/>
<defs>
	<clipPath id="z27102c1"><use href="#z27102d1"/></clipPath>
	<clipPath id="z27102c2"><use href="#z27102d2"/></clipPath>
	<clipPath id="z27102c3"><use href="#z27102d3"/></clipPath>
	<clipPath id="z27102c4"><use href="#z27102d4"/></clipPath>
	<clipPath id="z27102c5"><use href="#z27102d5"/></clipPath>
	<clipPath id="z27102c6"><use href="#z27102d6"/></clipPath>
	<clipPath id="z27102c7"><use href="#z27102d7"/></clipPath>
	<clipPath id="z27102c8"><use href="#z27102d8"/></clipPath>
	<clipPath id="z27102c9"><use href="#z27102d9"/></clipPath>
	<clipPath id="z27102c10"><use href="#z27102d10"/></clipPath>
	<clipPath id="z27102c11"><use href="#z27102d11"/></clipPath>
	<clipPath id="z27102c12"><use href="#z27102d12"/></clipPath>
	<clipPath id="z27102c13"><use href="#z27102d13"/></clipPath>
	<clipPath id="z27102c14"><use href="#z27102d14"/></clipPath>
</defs>
<path style="--d:1s;" pathLength="3333" clip-path="url(#z27102c1)" d="M92 396L417 348"/>
<path style="--d:2s;" pathLength="3333" clip-path="url(#z27102c2)" d="M235 98L293 174L263 931"/>
<path style="--d:3s;" pathLength="3333" clip-path="url(#z27102c3)" d="M271 382L222 533L67 745"/>
<path style="--d:4s;" pathLength="3333" clip-path="url(#z27102c4)" d="M306 469L396 556"/>
<path style="--d:5s;" pathLength="3333" clip-path="url(#z27102c5)" d="M589 53L647 86L668 141"/>
<path style="--d:6s;" pathLength="3333" clip-path="url(#z27102c6)" d="M491 209L559 219L798 169"/>
<path style="--d:7s;" pathLength="3333" clip-path="url(#z27102c7)" d="M523 277L569 357"/>
<path style="--d:8s;" pathLength="3333" clip-path="url(#z27102c8)" d="M699 211L717 252L662 367"/>
<path style="--d:9s;" pathLength="3333" clip-path="url(#z27102c9)" d="M359 422L408 431L857 353L944 363"/>
<path style="--d:10s;" pathLength="3333" clip-path="url(#z27102c10)" d="M434 496L465 524L508 750"/>
<path style="--d:11s;" pathLength="3333" clip-path="url(#z27102c11)" d="M482 520L799 476L825 521L756 732"/>
<path style="--d:12s;" pathLength="3333" clip-path="url(#z27102c12)" d="M541 610L716 585"/>
<path style="--d:13s;" pathLength="3333" clip-path="url(#z27102c13)" d="M516 719L743 677"/>
<path style="--d:14s;" pathLength="3333" clip-path="url(#z27102c14)" d="M607 504L635 532L631 801L665 871L786 894L886 869L918 835L918 724"/>
</svg>