<!--
AnimCJK 2016-2026 Copyright FM-SH, https://github.com/parsimonhi/animCJK
Derived from:
    MakeMeAHanzi project - https://github.com/skishore/makemeahanzi
    Arphic PL KaitiM GB font
    Arphic PL KaitiM Big5 font
You can redistribute and/or modify this file under the terms of the Arphic Public License
as published by Arphic Technology Co., Ltd.
You should have received a copy of this license along with this file.
If not, see https://ftp.gnu.org/non-gnu/chinese-fonts-truetype/LICENSE.
-->
<svg id="z27163" class="acjk" viewBox="0 0 1024 1024" xmlns="http://www.w3.org/2000/svg">
<style>
<![CDATA[
@keyframes zk {
	to {
		stroke-dashoffset:0;
	}
}
svg.acjk path[clip-path] {
	--t:0.8s;
	animation:zk var(--t) linear forwards var(--d);
	stroke-dasharray:3337;
	stroke-dashoffset:3339;
	stroke-width:128;
	stroke-linecap:round;
	fill:none;
	stroke:#000;
}
svg.acjk path[id] {fill:#ccc;}
]]>
</style>
<path id="z27163d1" d="M308 368C376 351 407 343 416 337C441 318 389 303 382 302C354 297 332 308 309 315C281 323 281 323 267 327C204 344 125 359 109 362C84 365 79 376 99 386C151 411 201 393 254 381C290 372 290 372 308 368Z"/>
<path id="z27163d2" d="M307 440C307 419 307 391 308 368C309 333 309 333 309 315C310 250 312 192 329 146C335 127 332 113 314 101C302 92 291 84 274 75C256 64 214 57 233 93C267 157 268 246 267 327C265 428 265 428 264 478C261 586 251 717 234 791C225 825 230 854 248 890C265 926 282 918 293 887C298 872 303 852 303 830C302 803 307 642 307 472C307 451 307 451 307 440Z"/>
<path id="z27163d3" d="M254 381C216 488 180 550 72 698C54 724 57 741 85 717C100 705 186 631 265 478C298 397 282 297 254 380C254 381 254 381 254 381Z"/>
<path id="z27163d4" d="M307 472C346 504 371 540 395 540C399 540 404 536 407 529C416 497 396 473 371 461C346 449 327 443 307 440C296 438 298 466 307 472Z"/>
<path id="z27163d5" d="M427 195C424 196 426 201 437 207C447 211 466 214 488 209C522 199 552 188 562 194C567 196 570 208 569 229C562 305 556 350 551 366C548 374 548 381 552 391C555 397 561 402 567 401C573 399 577 393 581 387C588 373 594 336 604 275C608 247 621 226 638 210C646 201 646 192 639 186C628 176 609 168 585 158C569 150 501 176 465 184C451 186 434 188 427 195Z"/>
<path id="z27163d6" d="M502 225C482 251 459 269 436 288C418 302 442 300 461 294C487 284 501 276 528 266C540 260 550 251 544 243C527 221 513 209 502 225Z"/>
<path id="z27163d7" d="M502 315C484 340 459 356 438 375C416 393 457 385 468 382C491 372 504 369 527 358C543 349 548 342 543 334C527 311 513 299 502 315Z"/>
<path id="z27163d8" d="M657 157C652 161 657 164 668 170C682 176 707 179 736 172C768 163 788 155 799 161C805 163 807 180 802 204C782 290 768 343 760 361C755 371 753 381 757 392C758 399 765 405 773 405C781 404 787 399 793 391C803 375 816 333 836 265C845 233 863 210 885 193C895 184 897 174 888 165C877 154 855 140 828 125C808 114 715 146 693 150C683 151 664 148 657 157Z"/>
<path id="z27163d9" d="M725 195C709 219 678 235 658 254C637 272 662 276 692 263C714 253 737 244 760 235C769 231 780 221 767 206C745 182 735 178 725 195Z"/>
<path id="z27163d10" d="M710 287C702 302 682 317 657 333C621 356 659 358 686 348C706 340 719 333 742 325C758 318 770 311 756 295C730 267 718 268 710 287Z"/>
<path id="z27163d11" d="M667 426C683 408 673 397 650 390C611 378 610 387 608 397C596 449 476 563 394 632C348 669 378 668 411 651C490 606 581 517 653 441C662 431 662 431 667 426Z"/>
<path id="z27163d12" d="M653 441C703 493 755 552 810 602C823 613 840 620 862 620C900 619 930 613 971 604C983 601 996 594 976 588C948 579 928 571 898 563C832 545 764 500 667 426C662 422 649 436 653 441Z"/>
<path id="z27163d13" d="M619 511C627 541 565 611 517 659C511 662 500 676 514 675C567 665 648 567 667 554C681 542 663 522 655 513C634 489 614 492 619 511Z"/>
<path id="z27163d14" d="M671 585C682 629 575 740 526 787C520 792 506 803 522 804C573 804 671 682 724 632C738 618 722 598 711 587C686 562 665 565 671 585Z"/>
<path id="z27163d15" d="M737 653C721 789 572 886 468 959C463 962 463 966 470 967C589 950 713 832 806 705C816 697 814 681 803 670C764 629 734 634 737 653Z"/>
<defs>
	<clipPath id="z27163c1"><use href="#z27163d1"/></clipPath>
	<clipPath id="z27163c2"><use href="#z27163d2"/></clipPath>
	<clipPath id="z27163c3"><use href="#z27163d3"/></clipPath>
	<clipPath id="z27163c4"><use href="#z27163d4"/></clipPath>
	<clipPath id="z27163c5"><use href="#z27163d5"/></clipPath>
	<clipPath id="z27163c6"><use href="#z27163d6"/></clipPath>
	<clipPath id="z27163c7"><use href="#z27163d7"/></clipPath>
	<clipPath id="z27163c8"><use href="#z27163d8"/></clipPath>
	<clipPath id="z27163c9"><use href="#z27163d9"/></clipPath>
	<clipPath id="z27163c10"><use href="#z27163d10"/></clipPath>
	<clipPath id="z27163c11"><use href="#z27163d11"/></clipPath>
	<clipPath id="z27163c12"><use href="#z27163d12"/></clipPath>
	<clipPath id="z27163c13"><use href="#z27163d13"/></clipPath>
	<clipPath id="z27163c14"><use href="#z27163d14"/></clipPath>
	<clipPath id="z27163c15"><use href="#z27163d15"/></clipPath>
</defs>
<path style="--d:1s;" pathLength="3333" clip-path="url(#z27163c1)" d="M92 374L417 326"/>
<path style="--d:2s;" pathLength="3333" clip-path="url(#z27163c2)" d="M235 76L293 152L263 909"/>
<path style="--d:3s;" pathLength="3333" clip-path="url(#z27163c3)" d="M271 360L222 511L67 723"/>
<path style="--d:4s;" pathLength="3333" clip-path="url(#z27163c4)" d="M306 447L396 534"/>
<path style="--d:5s;" pathLength="3333" clip-path="url(#z27163c5)" d="M435 198L556 175L599 192L561 395"/>
<path style="--d:6s;" pathLength="3333" clip-path="url(#z27163c6)" d="M517 222L517 246L439 294"/>
<path style="--d:7s;" pathLength="3333" clip-path="url(#z27163c7)" d="M512 315L506 348L440 381"/>
<path style="--d:8s;" pathLength="3333" clip-path="url(#z27163c8)" d="M666 160L807 141L847 180L772 401"/>
<path style="--d:9s;" pathLength="3333" clip-path="url(#z27163c9)" d="M740 188L741 219L656 265"/>
<path style="--d:10s;" pathLength="3333" clip-path="url(#z27163c10)" d="M728 276L727 309L650 347"/>
<path style="--d:11s;" pathLength="3333" clip-path="url(#z27163c11)" d="M616 391L634 419L603 458L378 654"/>
<path style="--d:12s;" pathLength="3333" clip-path="url(#z27163c12)" d="M659 433L834 577L979 594"/>
<path style="--d:13s;" pathLength="3333" clip-path="url(#z27163c13)" d="M628 500L641 545L515 669"/>
<path style="--d:14s;" pathLength="3333" clip-path="url(#z27163c14)" d="M680 572L696 622L522 799"/>
<path style="--d:15s;" pathLength="3333" clip-path="url(#z27163c15)" d="M744 646L770 694L701 794L592 894L472 962"/>
</svg>