<!--
AnimCJK 2016-2018 Copyright Francois Mizessyn, https://github.com/parsimonhi/animCJK
Derived from:
    MakeMeAHanzi project - https://github.com/skishore/makemeahanzi
    Arphic PL KaitiM GB - https://apps.ubuntu.com/cat/applications/precise/fonts-arphic-gkai00mp/
    Arphic PL UKai - https://apps.ubuntu.com/cat/applications/fonts-arphic-ukai/
You can redistribute and/or modify this file under the terms of the Arphic Public License
as published by Arphic Technology Co., Ltd.
You should have received a copy of this license (the directory "APL") along with this file;
if not, see http://ftp.gnu.org/non-gnu/chinese-fonts-truetype/LICENSE.
-->
<svg id="z27194" class="acjk" version="1.1" viewBox="0 0 1024 1024" xmlns="http://www.w3.org/2000/svg" xmlns:xlink="http://www.w3.org/1999/xlink">
<style>
<![CDATA[
@keyframes z27194k {
	from {
		stroke:#c00;
		stroke-dashoffset:3334;
	}
	75% {
		stroke:#c00;
		stroke-dashoffset:0;
	}
	to {
		stroke:#000;
	}
}
#z27194 path[clip-path] {
	animation:z27194k 1s linear both;
	stroke-dasharray:3334;
	stroke-width:128;
	stroke-linecap:round;
	fill:none;
}
#z27194 path[clip-path="url(#z27194c1)"] {animation-delay:1s;}
#z27194 path[clip-path="url(#z27194c2)"] {animation-delay:2s;}
#z27194 path[clip-path="url(#z27194c3)"] {animation-delay:3s;}
#z27194 path[clip-path="url(#z27194c4)"] {animation-delay:4s;}
#z27194 path[clip-path="url(#z27194c5)"] {animation-delay:5s;}
#z27194 path[clip-path="url(#z27194c6)"] {animation-delay:6s;}
#z27194 path[clip-path="url(#z27194c7)"] {animation-delay:7s;}
#z27194 path[clip-path="url(#z27194c8)"] {animation-delay:8s;}
#z27194 path[clip-path="url(#z27194c9)"] {animation-delay:9s;}
#z27194 path[clip-path="url(#z27194c10)"] {animation-delay:10s;}
#z27194 path[clip-path="url(#z27194c11)"] {animation-delay:11s;}
#z27194 path[clip-path="url(#z27194c12)"] {animation-delay:12s;}
#z27194 path[clip-path="url(#z27194c13)"] {animation-delay:13s;}
#z27194 path[clip-path="url(#z27194c14)"] {animation-delay:14s;}
#z27194 path {fill:#ccc;}
]]>
</style>
<path id="z27194d1" d="M286 365Q361 341 365 339Q372 332 368 323Q361 313 331 307Q307 303 286 312L244 328Q157 353 103 363Q69 372 94 386Q139 407 191 389Q204 385 224 381L286 365 Z"/>
<path id="z27194d2" d="M284 487C284 449 284 408 286 365L286 312C286 236 292 175 306 130C316 113 309 97 286 82C276 75 264 67 250 59C235 48 221 48 207 58C204 60 205 67 209 78C231 110 242 143 243 176C243 222 243 273 244 328L241 467C239 601 235 687 228 725C215 789 209 814 209 826C209 862 224 897 243 903C255 907 266 890 273 877C280 860 282 842 282 822C281 796 282 694 284 516 Z"/>
<path id="z27194d3" d="M224 381Q181 516 37 723Q33 733 44 734Q65 734 164 604Q206 547 242 467L243 376L224 380 Z"/>
<path id="z27194d4" d="M284 516Q285 517 289 520Q310 538 331 560Q340 569 351 568Q358 568 362 559Q365 549 360 529Q354 508 287 487Q286 486 284 487L284 516 Z"/>
<path id="z27194d5" d="M442 244C424 244 405 241 390 233C385 230 380 222 387 218C396 211 408 211 420 208C439 203 470 198 506 192C520 189 535 186 551 183C589 174 632 164 669 154C677 152 697 147 720 142C760 133 808 124 827 129C841 133 856 141 862 154C865 161 862 171 855 175C844 179 832 176 822 176C804 176 738 182 704 188C690 190 677 192 664 194C627 199 591 205 556 215C539 219 531 224 516 228C502 232 488 237 474 240C463 242 453 244 442 244 Z"/>
<path id="z27194d6" d="M551 180C549 164 547 150 548 138C548 126 542 121 529 117C503 109 484 105 472 112C460 117 460 127 471 138C485 151 497 168 505 190C508 200 512 210 516 220C524 243 533 265 538 268C546 274 552 273 554 265C556 253 556 229 554 216C553 212 552 194 551 180 Z"/>
<path id="z27194d7" d="M723 140C727 129 733 113 742 100C749 89 751 83 745 76C736 67 722 57 700 49C689 44 678 45 668 51C661 55 662 60 667 67C674 80 673 116 669 153C668 164 666 179 664 192C662 201 661 208 660 213C655 228 653 252 655 261C656 269 662 270 670 264C681 255 689 230 697 209C699 202 702 196 705 189 Z"/>
<path id="z27194d8" d="M622 330C652 321 684 314 718 307C744 301 760 295 764 291C768 286 770 281 767 277C762 270 752 265 737 263C721 259 705 262 689 269C659 280 628 291 596 300C559 309 519 315 478 322C457 325 455 332 470 340C492 352 526 351 568 343 Z"/>
<path id="z27194d9" d="M782 438C814 435 850 433 890 432C930 430 953 427 956 422C959 415 956 407 946 400C912 376 877 373 840 384C828 387 816 388 804 392L747 405C726 411 663 420 641 425L590 435C565 438 522 445 495 450L454 456C427 458 401 464 374 469C362 471 360 475 370 485C378 493 387 498 398 501C409 503 420 503 430 500C440 496 452 492 464 490L499 481C525 473 556 466 590 462L639 454C659 450 711 444 736 442 Z"/>
<path id="z27194d10" d="M495 450C492 435 490 422 490 410C490 399 484 394 474 390C451 381 434 377 423 383C414 387 413 395 422 406C435 421 446 437 454 456L464 490C468 504 471 520 475 536C477 547 483 556 492 563C499 568 505 567 507 561C510 549 507 522 499 481 Z"/>
<path id="z27194d11" d="M733 541C735 534 769 468 782 438L804 392C808 385 812 378 817 372C825 364 827 357 821 351C814 341 801 330 782 320C773 314 763 313 753 318C747 320 746 325 750 333C754 347 753 371 747 405L736 442C729 466 702 540 702 549 Z"/>
<path id="z27194d12" d="M637 598C677 589 742 578 835 570C841 569 849 568 853 560C855 553 846 548 834 540C815 527 787 524 733 541L702 549C685 553 654 560 637 563L589 572C552 576 492 583 408 594C391 596 389 602 402 613C420 628 439 635 457 631C495 622 539 614 588 606 Z"/>
<path id="z27194d13" d="M636 712C694 704 769 698 859 699C895 699 918 699 923 691C926 684 922 676 913 669C883 644 856 636 832 642C783 653 718 665 636 679L586 686C517 694 444 705 367 716C354 717 352 722 362 733C370 742 380 747 391 750C403 752 414 752 424 750C474 735 528 726 585 720 Z"/>
<path id="z27194d14" d="M585 720Q585 948 595 967Q595 970 598 973Q604 980 611 978Q627 968 631 913Q640 825 636 712L636 679Q636 645 637 598L637 563Q637 514 639 454L641 425Q647 380 651 367Q654 351 640 341Q630 334 622 330L568 343Q589 379 590 435L590 462Q589 511 589 572L588 606Q587 643 586 686L585 720 Z"/>
<defs>
	<clipPath id="z27194c1"><use xlink:href="#z27194d1"/></clipPath>
	<clipPath id="z27194c2"><use xlink:href="#z27194d2"/></clipPath>
	<clipPath id="z27194c3"><use xlink:href="#z27194d3"/></clipPath>
	<clipPath id="z27194c4"><use xlink:href="#z27194d4"/></clipPath>
	<clipPath id="z27194c5"><use xlink:href="#z27194d5"/></clipPath>
	<clipPath id="z27194c6"><use xlink:href="#z27194d6"/></clipPath>
	<clipPath id="z27194c7"><use xlink:href="#z27194d7"/></clipPath>
	<clipPath id="z27194c8"><use xlink:href="#z27194d8"/></clipPath>
	<clipPath id="z27194c9"><use xlink:href="#z27194d9"/></clipPath>
	<clipPath id="z27194c10"><use xlink:href="#z27194d10"/></clipPath>
	<clipPath id="z27194c11"><use xlink:href="#z27194d11"/></clipPath>
	<clipPath id="z27194c12"><use xlink:href="#z27194d12"/></clipPath>
	<clipPath id="z27194c13"><use xlink:href="#z27194d13"/></clipPath>
	<clipPath id="z27194c14"><use xlink:href="#z27194d14"/></clipPath>
</defs>
<path pathLength="3333" clip-path="url(#z27194c1)" d="M93 375L361 319"/>
<path pathLength="3333" clip-path="url(#z27194c2)" d="M211 61L273 128L245 900"/>
<path pathLength="3333" clip-path="url(#z27194c3)" d="M235 385L183 532L43 728"/>
<path pathLength="3333" clip-path="url(#z27194c4)" d="M289 497L351 562"/>
<path pathLength="3333" clip-path="url(#z27194c5)" d="M390 224L781 152L860 162"/>
<path pathLength="3333" clip-path="url(#z27194c6)" d="M468 121L519 146L546 254"/>
<path pathLength="3333" clip-path="url(#z27194c7)" d="M670 53L710 97L664 249"/>
<path pathLength="3333" clip-path="url(#z27194c8)" d="M470 331L762 282"/>
<path pathLength="3333" clip-path="url(#z27194c9)" d="M372 475L856 406L952 412"/>
<path pathLength="3333" clip-path="url(#z27194c10)" d="M423 391L465 417L499 559"/>
<path pathLength="3333" clip-path="url(#z27194c11)" d="M755 325L787 367L709 540"/>
<path pathLength="3333" clip-path="url(#z27194c12)" d="M401 602L847 554"/>
<path pathLength="3333" clip-path="url(#z27194c13)" d="M364 723L843 669L918 684"/>
<path pathLength="3333" clip-path="url(#z27194c14)" d="M575 346L617 369L611 973"/>
</svg>