<!--
AnimCJK 2016-2018 Copyright Francois Mizessyn, https://github.com/parsimonhi/animCJK
Derived from:
    MakeMeAHanzi project - https://github.com/skishore/makemeahanzi
    Arphic PL KaitiM GB - https://apps.ubuntu.com/cat/applications/precise/fonts-arphic-gkai00mp/
    Arphic PL UKai - https://apps.ubuntu.com/cat/applications/fonts-arphic-ukai/
You can redistribute and/or modify this file under the terms of the Arphic Public License
as published by Arphic Technology Co., Ltd.
You should have received a copy of this license (the directory "APL") along with this file;
if not, see http://ftp.gnu.org/non-gnu/chinese-fonts-truetype/LICENSE.
-->
<svg id="z27278" class="acjk" version="1.1" viewBox="0 0 1024 1024" xmlns="http://www.w3.org/2000/svg" xmlns:xlink="http://www.w3.org/1999/xlink">
<style>
<![CDATA[
@keyframes z27278k {
	from {
		stroke:#c00;
		stroke-dashoffset:3334;
	}
	75% {
		stroke:#c00;
		stroke-dashoffset:0;
	}
	to {
		stroke:#000;
	}
}
#z27278 path[clip-path] {
	animation:z27278k 1s linear both;
	stroke-dasharray:3334;
	stroke-width:128;
	stroke-linecap:round;
	fill:none;
}
#z27278 path[clip-path="url(#z27278c1)"] {animation-delay:1s;}
#z27278 path[clip-path="url(#z27278c2)"] {animation-delay:2s;}
#z27278 path[clip-path="url(#z27278c3)"] {animation-delay:3s;}
#z27278 path[clip-path="url(#z27278c4)"] {animation-delay:4s;}
#z27278 path[clip-path="url(#z27278c5)"] {animation-delay:5s;}
#z27278 path[clip-path="url(#z27278c6)"] {animation-delay:6s;}
#z27278 path[clip-path="url(#z27278c7)"] {animation-delay:7s;}
#z27278 path[clip-path="url(#z27278c8)"] {animation-delay:8s;}
#z27278 path[clip-path="url(#z27278c9)"] {animation-delay:9s;}
#z27278 path[clip-path="url(#z27278c10)"] {animation-delay:10s;}
#z27278 path[clip-path="url(#z27278c11)"] {animation-delay:11s;}
#z27278 path[clip-path="url(#z27278c12)"] {animation-delay:12s;}
#z27278 path[clip-path="url(#z27278c13)"] {animation-delay:13s;}
#z27278 path[clip-path="url(#z27278c14)"] {animation-delay:14s;}
#z27278 path[clip-path="url(#z27278c15)"] {animation-delay:15s;}
#z27278 path[clip-path="url(#z27278c16)"] {animation-delay:16s;}
#z27278 path {fill:#ccc;}
]]>
</style>
<path id="z27278d1" d="M290 370Q312 363 337 357Q368 348 373 343Q380 336 376 327Q369 317 339 311Q314 307 292 317L248 335Q160 359 115 367Q79 376 106 390Q151 411 203 393Q218 389 238 385L290 370 Z"/>
<path id="z27278d2" d="M288 443Q288 407 290 370L292 317Q293 224 313 162Q322 147 319 134Q312 124 258 91Q236 73 215 89Q211 93 216 109Q247 157 248 206Q248 266 248 335L243 491Q239 567 238 652Q234 728 212 799Q199 841 225 898Q231 916 239 919Q245 925 252 917Q259 913 270 893Q280 868 279 838Q279 796 287 476L288 443 Z"/>
<path id="z27278d3" d="M238 385Q189 521 46 715Q40 725 52 726Q73 726 172 605Q209 557 244 491L247 382L238 384 Z"/>
<path id="z27278d4" d="M287 476Q332 521 348 523Q360 524 364 508Q365 498 357 481Q344 462 288 443L287 476 Z"/>
<path id="z27278d5" d="M606 161Q618 139 628 130Q635 124 633 115Q632 105 619 94Q583 66 555 74Q548 75 550 88Q562 167 460 294Q457 295 456 299Q426 338 349 413Q342 417 351 420Q459 398 595 179L606 161 Z"/>
<path id="z27278d6" d="M595 179Q773 386 821 394Q917 394 960 386Q976 385 977 380Q980 374 966 369Q921 351 868 334Q748 289 611 165Q608 162 606 161L595 179 Z"/>
<path id="z27278d7" d="M563 303Q611 339 623 339Q630 338 633 328Q636 316 627 296Q621 283 600 276Q548 264 540 270Q536 273 538 282Q542 289 563 303 Z"/>
<path id="z27278d8" d="M619 401Q634 394 705 382Q712 382 719 372Q719 363 701 357Q674 341 597 372Q594 372 593 373Q578 376 469 402Q448 406 466 418Q493 436 513 429Q550 417 599 406L619 401 Z"/>
<path id="z27278d9" d="M617 470Q629 455 645 438Q649 435 650 429Q646 413 622 402Q621 401 619 401L599 406Q598 406 599 407Q602 422 580 460L565 481Q546 508 497 549Q493 552 498 554Q534 554 594 495L617 470 Z"/>
<path id="z27278d10" d="M594 495Q622 507 652 523Q662 529 670 529Q674 528 676 522Q679 515 667 497Q655 479 617 470L580 460Q531 447 505 444Q501 443 502 448Q503 455 510 457Q535 467 565 481L594 495 Z"/>
<path id="z27278d11" d="M585 581Q669 557 704 566L702 536Q569 549 469 577Q456 580 459 563Q471 497 466 488Q456 475 437 462Q430 458 421 458Q412 461 417 476Q430 510 422 543Q418 574 403 588Q388 601 393 612Q402 624 414 633Q424 639 432 633Q451 612 551 589L585 581 Z"/>
<path id="z27278d12" d="M704 566Q707 579 711 589Q717 602 728 594Q749 572 757 508Q769 475 776 467Q783 457 776 444Q763 431 737 413Q727 407 717 411Q710 414 712 424Q734 461 706 526Q703 530 702 536L704 566 Z"/>
<path id="z27278d13" d="M399 683Q387 671 366 666Q362 663 357 669Q354 672 361 695Q360 698 365 704Q378 738 368 844Q364 865 372 882Q382 901 396 911Q409 920 411 910Q423 900 420 831Q419 755 421 726Q422 722 422 720L399 683 Z"/>
<path id="z27278d14" d="M581 679Q654 666 742 661Q761 662 768 672Q774 679 770 692Q766 825 757 844Q753 854 740 851Q716 848 691 845Q664 844 683 860Q740 908 763 941Q772 954 783 945Q807 921 818 835Q822 718 842 694Q855 675 850 668Q843 655 796 625Q780 612 765 618Q738 628 689 635Q638 641 600 647L546 655Q503 661 399 683L422 720Q491 696 535 688L581 679 Z"/>
<path id="z27278d15" d="M649 757Q592 769 546 781Q524 785 533 770Q557 721 581 679L600 647Q618 611 618 610Q614 600 585 581L551 589Q560 616 546 655L535 688Q508 755 482 785Q469 798 472 808Q476 823 491 835Q501 842 510 836Q535 817 627 783Q646 777 658 771L649 757 Z"/>
<path id="z27278d16" d="M658 771Q683 814 696 817Q703 818 710 811Q716 801 716 779Q716 752 647 711Q637 705 632 706Q628 707 626 717Q626 718 649 757L658 771 Z"/>
<defs>
	<clipPath id="z27278c1"><use xlink:href="#z27278d1"/></clipPath>
	<clipPath id="z27278c2"><use xlink:href="#z27278d2"/></clipPath>
	<clipPath id="z27278c3"><use xlink:href="#z27278d3"/></clipPath>
	<clipPath id="z27278c4"><use xlink:href="#z27278d4"/></clipPath>
	<clipPath id="z27278c5"><use xlink:href="#z27278d5"/></clipPath>
	<clipPath id="z27278c6"><use xlink:href="#z27278d6"/></clipPath>
	<clipPath id="z27278c7"><use xlink:href="#z27278d7"/></clipPath>
	<clipPath id="z27278c8"><use xlink:href="#z27278d8"/></clipPath>
	<clipPath id="z27278c9"><use xlink:href="#z27278d9"/></clipPath>
	<clipPath id="z27278c10"><use xlink:href="#z27278d10"/></clipPath>
	<clipPath id="z27278c11"><use xlink:href="#z27278d11"/></clipPath>
	<clipPath id="z27278c12"><use xlink:href="#z27278d12"/></clipPath>
	<clipPath id="z27278c13"><use xlink:href="#z27278d13"/></clipPath>
	<clipPath id="z27278c14"><use xlink:href="#z27278d14"/></clipPath>
	<clipPath id="z27278c15"><use xlink:href="#z27278d15"/></clipPath>
	<clipPath id="z27278c16"><use xlink:href="#z27278d16"/></clipPath>
</defs>
<path pathLength="3333" clip-path="url(#z27278c1)" d="M106 380L373 336"/>
<path pathLength="3333" clip-path="url(#z27278c2)" d="M220 93L280 149L245 916"/>
<path pathLength="3333" clip-path="url(#z27278c3)" d="M240 395L197 527L53 720"/>
<path pathLength="3333" clip-path="url(#z27278c4)" d="M292 451L355 515"/>
<path pathLength="3333" clip-path="url(#z27278c5)" d="M556 80L591 124L540 220L440 348L355 414"/>
<path pathLength="3333" clip-path="url(#z27278c6)" d="M607 168L799 342L969 378"/>
<path pathLength="3333" clip-path="url(#z27278c7)" d="M545 280L630 324"/>
<path pathLength="3333" clip-path="url(#z27278c8)" d="M466 408L712 370"/>
<path pathLength="3333" clip-path="url(#z27278c9)" d="M604 409L616 442L504 549"/>
<path pathLength="3333" clip-path="url(#z27278c10)" d="M509 448L670 520"/>
<path pathLength="3333" clip-path="url(#z27278c11)" d="M424 466L445 499L425 587L440 603L700 547"/>
<path pathLength="3333" clip-path="url(#z27278c12)" d="M722 419L750 460L724 592"/>
<path pathLength="3333" clip-path="url(#z27278c13)" d="M365 673L395 726L402 909"/>
<path pathLength="3333" clip-path="url(#z27278c14)" d="M407 686L775 643L811 680L775 885L753 898L684 850"/>
<path pathLength="3333" clip-path="url(#z27278c15)" d="M559 594L584 625L505 799L651 765"/>
<path pathLength="3333" clip-path="url(#z27278c16)" d="M635 713L701 811"/>
</svg>