<!--
AnimCJK 2016-2026 Copyright FM-SH, https://github.com/parsimonhi/animCJK
Derived from:
    MakeMeAHanzi project - https://github.com/skishore/makemeahanzi
    Arphic PL KaitiM GB font
    Arphic PL KaitiM Big5 font
You can redistribute and/or modify this file under the terms of the Arphic Public License
as published by Arphic Technology Co., Ltd.
You should have received a copy of this license along with this file.
If not, see https://ftp.gnu.org/non-gnu/chinese-fonts-truetype/LICENSE.
-->
<svg id="z27277" class="acjk" viewBox="0 0 1024 1024" xmlns="http://www.w3.org/2000/svg">
<style>
<![CDATA[
@keyframes zk {
	to {
		stroke-dashoffset:0;
	}
}
svg.acjk path[clip-path] {
	--t:0.8s;
	animation:zk var(--t) linear forwards var(--d);
	stroke-dasharray:3337;
	stroke-dashoffset:3339;
	stroke-width:128;
	stroke-linecap:round;
	fill:none;
	stroke:#000;
}
svg.acjk path[id] {fill:#ccc;}
]]>
</style>
<path id="z27277d1" d="M308 368C376 351 407 343 416 337C441 318 389 303 382 302C354 297 332 308 309 315C281 323 281 323 267 327C204 344 125 359 109 362C84 365 79 376 99 386C151 411 201 393 254 381C290 372 290 372 308 368Z"/>
<path id="z27277d2" d="M307 440C307 419 307 391 308 368C309 333 309 333 309 315C310 250 312 192 329 146C335 127 332 113 314 101C302 92 291 84 274 75C256 64 214 57 233 93C267 157 268 246 267 327C265 428 265 428 264 478C261 586 251 717 234 791C225 825 230 854 248 890C265 926 282 918 293 887C298 872 303 852 303 830C302 803 307 642 307 472C307 451 307 451 307 440Z"/>
<path id="z27277d3" d="M254 381C216 488 180 550 72 698C54 724 57 741 85 717C100 705 186 631 265 478C298 397 282 297 254 380C254 381 254 381 254 381Z"/>
<path id="z27277d4" d="M307 472C346 504 371 540 395 540C399 540 404 536 407 529C416 497 396 473 371 461C346 449 327 443 307 440C296 438 298 466 307 472Z"/>
<path id="z27277d5" d="M596 95C610 105 626 118 644 132C653 139 663 141 673 141C679 140 684 135 687 126C689 116 686 101 678 84C670 67 638 55 587 50C575 48 569 49 566 51C562 53 561 58 564 67C565 72 576 82 596 95Z"/>
<path id="z27277d6" d="M717 194C772 184 793 180 804 172C822 156 791 143 776 139C755 132 718 145 659 161C578 182 518 185 483 189C460 191 456 198 473 209C492 222 528 226 578 218C610 212 645 206 682 200C705 196 705 196 717 194Z"/>
<path id="z27277d7" d="M507 266C524 304 539 328 554 333C560 335 567 332 573 323C576 316 576 305 574 295C571 283 563 276 553 270C535 257 523 248 517 245C511 242 508 245 506 251C504 255 504 259 507 266Z"/>
<path id="z27277d8" d="M677 330C746 225 779 240 717 194C708 187 680 188 682 200C686 216 679 254 647 336C643 345 671 338 677 330Z"/>
<path id="z27277d9" d="M647 336C563 352 401 378 396 379C384 379 382 385 392 395C417 419 448 410 452 410C584 369 732 348 898 348C924 347 932 332 912 318C879 294 843 292 808 302C771 311 727 319 677 330C657 334 657 334 647 336Z"/>
<path id="z27277d10" d="M517 451C511 448 449 424 469 464C486 498 501 545 512 604C515 621 521 635 531 648C542 663 551 658 554 639C555 631 555 624 554 617C551 600 548 585 544 558C541 543 541 543 540 536C535 509 532 490 531 479C529 469 527 455 517 451Z"/>
<path id="z27277d11" d="M685 622C699 643 716 660 734 636C741 625 752 584 770 518C774 500 784 483 799 469C805 462 806 453 800 446C791 434 774 421 749 408C740 402 713 406 669 417C643 423 591 433 517 451C507 453 521 483 531 479C567 468 619 458 687 446C725 439 725 465 724 473C712 545 700 585 690 594C683 601 679 614 685 622Z"/>
<path id="z27277d12" d="M544 558C554 559 636 542 671 538C698 534 680 511 653 509C631 506 594 515 540 536C533 539 537 558 544 558Z"/>
<path id="z27277d13" d="M554 639C563 640 647 626 685 622C694 620 699 596 690 594C677 588 630 598 554 617C547 618 547 639 554 639Z"/>
<path id="z27277d14" d="M430 703C418 736 406 769 390 800C380 818 381 834 392 852C397 859 405 863 415 855C444 830 455 792 454 747C453 729 453 714 449 702C447 696 443 694 440 695C435 695 431 698 430 703Z"/>
<path id="z27277d15" d="M493 720C501 777 524 824 568 855C626 897 719 919 827 908C841 906 857 903 869 897C901 878 901 874 864 840C828 808 800 773 778 739C770 728 766 725 763 729C761 731 766 759 779 817C784 842 768 857 731 857C667 856 596 833 561 798C546 783 535 763 531 739C527 724 522 714 515 711C506 705 501 705 497 707C493 708 491 711 493 720Z"/>
<path id="z27277d16" d="M602 695C642 737 669 759 684 761C691 761 699 756 702 745C703 737 700 725 694 715C687 703 674 695 659 689C633 678 615 671 605 670C598 669 595 672 595 679C594 683 596 688 602 695Z"/>
<path id="z27277d17" d="M831 679C856 698 882 720 910 744C917 751 927 754 937 754C943 753 948 749 951 741C953 732 952 719 946 701C938 677 897 655 826 636C815 633 809 632 806 635C803 637 801 642 803 651C804 657 814 666 831 679Z"/>
<defs>
	<clipPath id="z27277c1"><use href="#z27277d1"/></clipPath>
	<clipPath id="z27277c2"><use href="#z27277d2"/></clipPath>
	<clipPath id="z27277c3"><use href="#z27277d3"/></clipPath>
	<clipPath id="z27277c4"><use href="#z27277d4"/></clipPath>
	<clipPath id="z27277c5"><use href="#z27277d5"/></clipPath>
	<clipPath id="z27277c6"><use href="#z27277d6"/></clipPath>
	<clipPath id="z27277c7"><use href="#z27277d7"/></clipPath>
	<clipPath id="z27277c8"><use href="#z27277d8"/></clipPath>
	<clipPath id="z27277c9"><use href="#z27277d9"/></clipPath>
	<clipPath id="z27277c10"><use href="#z27277d10"/></clipPath>
	<clipPath id="z27277c11"><use href="#z27277d11"/></clipPath>
	<clipPath id="z27277c12"><use href="#z27277d12"/></clipPath>
	<clipPath id="z27277c13"><use href="#z27277d13"/></clipPath>
	<clipPath id="z27277c14"><use href="#z27277d14"/></clipPath>
	<clipPath id="z27277c15"><use href="#z27277d15"/></clipPath>
	<clipPath id="z27277c16"><use href="#z27277d16"/></clipPath>
	<clipPath id="z27277c17"><use href="#z27277d17"/></clipPath>
</defs>
<path style="--d:1s;" pathLength="3333" clip-path="url(#z27277c1)" d="M92 374L417 326"/>
<path style="--d:2s;" pathLength="3333" clip-path="url(#z27277c2)" d="M235 76L293 152L263 909"/>
<path style="--d:3s;" pathLength="3333" clip-path="url(#z27277c3)" d="M271 360L222 511L67 723"/>
<path style="--d:4s;" pathLength="3333" clip-path="url(#z27277c4)" d="M306 447L396 534"/>
<path style="--d:5s;" pathLength="3333" clip-path="url(#z27277c5)" d="M566 56L643 92L677 135"/>
<path style="--d:6s;" pathLength="3333" clip-path="url(#z27277c6)" d="M468 197L802 159"/>
<path style="--d:7s;" pathLength="3333" clip-path="url(#z27277c7)" d="M513 250L562 328"/>
<path style="--d:8s;" pathLength="3333" clip-path="url(#z27277c8)" d="M689 198L714 235L657 335"/>
<path style="--d:9s;" pathLength="3333" clip-path="url(#z27277c9)" d="M394 387L817 324L917 331"/>
<path style="--d:10s;" pathLength="3333" clip-path="url(#z27277c10)" d="M472 449L504 478L541 650"/>
<path style="--d:11s;" pathLength="3333" clip-path="url(#z27277c11)" d="M519 457L707 426L748 440L763 464L715 645"/>
<path style="--d:12s;" pathLength="3333" clip-path="url(#z27277c12)" d="M539 546L680 526"/>
<path style="--d:13s;" pathLength="3333" clip-path="url(#z27277c13)" d="M550 628L691 611"/>
<path style="--d:14s;" pathLength="3333" clip-path="url(#z27277c14)" d="M440 704L401 855"/>
<path style="--d:15s;" pathLength="3333" clip-path="url(#z27277c15)" d="M500 709L568 830L715 882L842 857L768 737"/>
<path style="--d:16s;" pathLength="3333" clip-path="url(#z27277c16)" d="M602 678L696 752"/>
<path style="--d:17s;" pathLength="3333" clip-path="url(#z27277c17)" d="M810 644L946 741"/>
</svg>