<!--
AnimCJK 2016-2019 Copyright Francois Mizessyn - https://github.com/parsimonhi/animCJK
Derived from:
    MakeMeAHanzi project - https://github.com/skishore/makemeahanzi
    Arphic PL KaitiM GB font
    Arphic PL UKai font
You can redistribute and/or modify this file under the terms of the Arphic Public License
as published by Arphic Technology Co., Ltd.
You should have received a copy of this license along with this file.
If not, see http://ftp.gnu.org/non-gnu/chinese-fonts-truetype/LICENSE.
-->
<svg id="z27298" class="acjk" version="1.1" viewBox="0 0 1024 1024" xmlns="http://www.w3.org/2000/svg" xmlns:xlink="http://www.w3.org/1999/xlink">
<style>
<![CDATA[
@keyframes zk {
	to {
		stroke-dashoffset:0;
	}
}
svg.acjk path[clip-path] {
	--t:0.8s;
	animation:zk var(--t) linear forwards var(--d);
	stroke-dasharray:3337;
	stroke-dashoffset:3339;
	stroke-width:128;
	stroke-linecap:round;
	fill:none;
	stroke:#000;
}
svg.acjk path[id] {fill:#ccc;}
]]>
</style>
<path id="z27298d1" d="M288 400Q307 393 330 387Q372 374 377 367Q384 360 380 351Q373 341 343 336Q315 332 289 346C260 358 260 358 246 364Q149 400 66 415Q32 424 58 438Q101 457 153 440Q190 428 230 418C269 406 269 406 288 400Z"/>
<path id="z27298d2" d="M239 513Q235 580 235 652Q228 731 207 803Q194 846 220 905Q226 923 234 927Q240 934 248 925Q255 921 266 900Q276 875 276 844Q276 807 282 576C283 554 283 554 283 543Q284 477 288 400C289 364 289 364 289 346Q304 178 313 149Q323 133 320 120Q313 110 258 75Q234 57 213 72Q209 78 214 93Q245 141 246 213Q246 288 246 364C241 463 241 463 239 513Z"/>
<path id="z27298d3" d="M230 418Q182 560 26 776Q22 786 32 786Q56 786 159 650Q202 593 240 513C288 433 259 329 230 417C230 418 230 418 230 418Z"/>
<path id="z27298d4" d="M282 576Q307 594 333 618Q343 627 354 626Q361 625 365 616Q369 604 362 583Q356 567 332 556Q310 549 283 543C272 541 273 569 282 576Z"/>
<path id="z27298d5" d="M600 178Q615 136 632 111Q639 104 636 94Q624 66 579 59Q557 56 545 60Q536 64 541 76Q571 152 470 324Q463 333 457 344Q426 395 343 495Q336 502 347 503Q402 494 504 356Q535 308 590 200C597 185 597 185 600 178Z"/>
<path id="z27298d6" d="M590 200Q677 303 773 398Q795 422 833 423Q900 427 972 414Q991 411 992 407Q993 400 980 394Q808 330 786 317Q707 272 611 186Q604 182 600 178C594 173 585 194 590 200Z"/>
<path id="z27298d7" d="M501 405Q468 414 493 427Q533 445 583 427Q623 415 664 403Q683 397 686 394Q693 385 688 378Q681 368 653 365Q641 364 556 392Q531 399 501 405Z"/>
<path id="z27298d8" d="M415 528Q405 524 381 521Q372 520 370 523Q366 527 372 539Q391 573 406 631Q409 649 420 660Q433 676 437 664Q438 660 438 653C437 635 437 635 436 626Q426 568 422 549C421 542 422 531 415 528Z"/>
<path id="z27298d9" d="M532 612Q545 561 562 546Q578 527 562 517Q547 508 528 496Q515 489 500 496Q484 508 461 515Q442 522 415 528C408 529 415 552 422 549Q447 540 487 533Q503 529 507 536Q510 539 494 609C492 621 530 624 532 612Z"/>
<path id="z27298d10" d="M438 653Q444 646 540 635Q547 634 549 627Q549 621 532 612C521 605 506 607 494 609Q493 608 491 609Q460 619 436 626C427 628 430 657 438 653Z"/>
<path id="z27298d11" d="M623 496Q613 492 592 488Q583 487 580 490Q576 494 582 507Q601 544 614 605Q615 623 627 635Q640 651 645 640Q646 634 648 626C647 609 647 609 647 600Q637 536 636 517C636 509 631 499 623 496Z"/>
<path id="z27298d12" d="M766 585Q779 534 797 520Q816 499 797 486Q781 476 758 462Q745 453 696 476Q669 485 623 496C615 498 628 520 636 517Q637 514 707 501Q726 497 732 504Q735 507 720 581C717 596 763 600 766 585Z"/>
<path id="z27298d13" d="M648 626Q649 626 654 625Q691 615 772 606Q779 605 780 599Q780 595 766 585C754 576 734 575 720 581Q680 593 647 600C638 601 639 628 648 626Z"/>
<path id="z27298d14" d="M469 767Q490 737 499 733Q505 729 504 721Q504 714 495 705Q470 680 449 684Q442 685 443 694Q447 739 376 817Q357 838 305 879Q299 883 307 885Q359 885 455 783C464 772 464 772 469 767Z"/>
<path id="z27298d15" d="M455 783Q459 787 470 793Q488 806 507 823Q516 830 525 828Q532 828 534 820Q535 810 529 794Q525 782 505 774Q489 770 469 767C462 766 449 779 455 783Z"/>
<path id="z27298d16" d="M693 736Q723 691 724 690Q723 683 712 673Q688 649 660 653Q653 654 655 665Q664 704 593 801Q590 801 590 804Q569 829 517 878Q510 882 519 885Q595 860 679 755C688 742 688 742 693 736Z"/>
<path id="z27298d17" d="M679 755Q680 756 684 760Q745 812 817 888Q832 906 846 910Q853 911 861 902Q871 889 860 850Q844 796 693 736C686 734 673 749 679 755Z"/>
<defs>
	<clipPath id="z27298c1"><use xlink:href="#z27298d1"/></clipPath>
	<clipPath id="z27298c2"><use xlink:href="#z27298d2"/></clipPath>
	<clipPath id="z27298c3"><use xlink:href="#z27298d3"/></clipPath>
	<clipPath id="z27298c4"><use xlink:href="#z27298d4"/></clipPath>
	<clipPath id="z27298c5"><use xlink:href="#z27298d5"/></clipPath>
	<clipPath id="z27298c6"><use xlink:href="#z27298d6"/></clipPath>
	<clipPath id="z27298c7"><use xlink:href="#z27298d7"/></clipPath>
	<clipPath id="z27298c8"><use xlink:href="#z27298d8"/></clipPath>
	<clipPath id="z27298c9"><use xlink:href="#z27298d9"/></clipPath>
	<clipPath id="z27298c10"><use xlink:href="#z27298d10"/></clipPath>
	<clipPath id="z27298c11"><use xlink:href="#z27298d11"/></clipPath>
	<clipPath id="z27298c12"><use xlink:href="#z27298d12"/></clipPath>
	<clipPath id="z27298c13"><use xlink:href="#z27298d13"/></clipPath>
	<clipPath id="z27298c14"><use xlink:href="#z27298d14"/></clipPath>
	<clipPath id="z27298c15"><use xlink:href="#z27298d15"/></clipPath>
	<clipPath id="z27298c16"><use xlink:href="#z27298d16"/></clipPath>
	<clipPath id="z27298c17"><use xlink:href="#z27298d17"/></clipPath>
</defs>
<path style="--d:1s;" pathLength="3333" clip-path="url(#z27298c1)" d="M54 426L376 357"/>
<path style="--d:2s;" pathLength="3333" clip-path="url(#z27298c2)" d="M218 78L279 137L242 923"/>
<path style="--d:3s;" pathLength="3333" clip-path="url(#z27298c3)" d="M237 422L183 574L32 780"/>
<path style="--d:4s;" pathLength="3333" clip-path="url(#z27298c4)" d="M289 552L358 619"/>
<path style="--d:5s;" pathLength="3333" clip-path="url(#z27298c5)" d="M545 67L592 108L545 233L460 379L348 496"/>
<path style="--d:6s;" pathLength="3333" clip-path="url(#z27298c6)" d="M601 186L796 366L984 405"/>
<path style="--d:7s;" pathLength="3333" clip-path="url(#z27298c7)" d="M490 416L685 381"/>
<path style="--d:8s;" pathLength="3333" clip-path="url(#z27298c8)" d="M377 528L401 549L428 661"/>
<path style="--d:9s;" pathLength="3333" clip-path="url(#z27298c9)" d="M422 532L504 512L535 528L510 609"/>
<path style="--d:10s;" pathLength="3333" clip-path="url(#z27298c10)" d="M445 644L543 628"/>
<path style="--d:11s;" pathLength="3333" clip-path="url(#z27298c11)" d="M586 495L613 521L638 637"/>
<path style="--d:12s;" pathLength="3333" clip-path="url(#z27298c12)" d="M630 497L735 480L767 499L731 580"/>
<path style="--d:13s;" pathLength="3333" clip-path="url(#z27298c13)" d="M653 617L771 597"/>
<path style="--d:14s;" pathLength="3333" clip-path="url(#z27298c14)" d="M451 688L470 726L442 766L310 879"/>
<path style="--d:15s;" pathLength="3333" clip-path="url(#z27298c15)" d="M463 780L523 823"/>
<path style="--d:16s;" pathLength="3333" clip-path="url(#z27298c16)" d="M661 660L686 697L655 749L522 880"/>
<path style="--d:17s;" pathLength="3333" clip-path="url(#z27298c17)" d="M685 753L808 832L848 903"/>
</svg>