<!--
AnimCJK 2016-2026 Copyright FM-SH - https://github.com/parsimonhi/animCJK
Derived from:
    MakeMeAHanzi project - https://github.com/skishore/makemeahanzi
    Arphic PL KaitiM GB font
    Arphic PL KaitiM Big5 font
You can redistribute and/or modify this file under the terms of the Arphic Public License
as published by Arphic Technology Co., Ltd.
You should have received a copy of this license along with this file.
If not, see https://ftp.gnu.org/non-gnu/chinese-fonts-truetype/LICENSE.
-->
<svg id="z27323" class="acjk" viewBox="0 0 1024 1024" xmlns="http://www.w3.org/2000/svg">
<style>
<![CDATA[
@keyframes zk {
	to {
		stroke-dashoffset:0;
	}
}
svg.acjk path[clip-path] {
	--t:0.8s;
	animation:zk var(--t) linear forwards var(--d);
	stroke-dasharray:3337;
	stroke-dashoffset:3339;
	stroke-width:128;
	stroke-linecap:round;
	fill:none;
	stroke:#000;
}
svg.acjk path[id] {fill:#ccc;}
]]>
</style>
<path id="z27323d1" d="M294 405C344 389 370 378 374 375C374 374 395 352 339 344C323 341 308 344 295 350C268 361 268 361 254 366C192 390 134 407 82 419C59 423 55 434 74 442C127 464 184 439 236 423C275 411 275 411 294 405Z"/>
<path id="z27323d2" d="M292 455C292 438 293 421 294 405C295 368 295 368 295 350C296 272 298 206 317 158C323 139 321 126 302 113C291 105 278 97 262 87C246 77 202 71 220 105C260 182 257 280 254 366C251 459 251 459 249 506C244 635 228 733 214 820C210 847 216 872 233 906C246 933 265 926 278 901C285 884 286 865 287 846C288 810 292 693 292 473C292 461 292 461 292 455Z"/>
<path id="z27323d3" d="M236 423C203 509 136 615 38 743C33 749 36 757 44 754C55 748 158 682 249 506C280 428 267 345 236 423Z"/>
<path id="z27323d4" d="M292 473C322 513 344 535 357 537C360 537 386 536 369 499C357 474 311 457 292 455C286 454 288 468 292 473Z"/>
<path id="z27323d5" d="M456 190C426 167 390 158 406 190C429 236 433 339 413 499C411 514 404 535 409 553C415 581 429 599 454 569C464 559 458 540 458 525C458 494 459 449 460 436C461 421 461 421 461 413C462 388 463 351 463 338C463 325 463 325 463 318C463 284 465 231 468 217C470 207 464 196 456 190Z"/>
<path id="z27323d6" d="M570 203C626 188 650 182 656 179C676 166 637 152 629 151C616 149 586 158 524 177C503 182 480 186 456 190C446 192 458 217 468 217C490 217 514 217 539 211C560 206 560 206 570 203Z"/>
<path id="z27323d7" d="M579 290C585 221 598 231 570 203C562 195 537 201 539 211C541 217 542 247 544 301C544 313 579 302 579 290Z"/>
<path id="z27323d8" d="M631 391C643 363 657 347 671 339C681 332 681 321 673 313C665 305 648 295 624 283C611 276 598 283 579 290C556 297 556 297 544 301C530 305 486 314 463 318C456 319 456 337 463 338C473 342 515 338 589 323C606 319 608 330 607 340C603 356 598 370 594 384C590 396 626 403 631 391Z"/>
<path id="z27323d9" d="M574 424C592 421 613 418 638 416C656 414 642 398 631 391C621 383 606 382 594 384C584 386 530 402 461 413C453 415 452 435 460 436C470 440 516 431 545 428C564 425 564 425 574 424Z"/>
<path id="z27323d10" d="M581 504C595 441 602 447 574 424C567 418 546 420 546 429C546 429 545 457 545 511C545 523 579 516 581 504Z"/>
<path id="z27323d11" d="M454 569C491 553 554 532 674 525C697 523 699 506 669 492C655 485 630 494 581 504C557 509 557 509 545 511C493 521 467 524 458 525C444 528 440 574 454 569Z"/>
<path id="z27323d12" d="M745 295C785 213 795 167 810 144C822 123 802 112 776 102C748 90 715 92 733 118C765 163 690 344 679 366C667 388 676 399 694 374C705 361 718 347 732 321C741 304 741 304 745 295Z"/>
<path id="z27323d13" d="M732 321C766 331 795 331 821 324C850 315 881 311 912 304C923 301 948 295 940 279C936 271 923 263 904 262C881 260 838 276 800 285C782 288 763 291 745 295C735 297 722 319 732 321Z"/>
<path id="z27323d14" d="M759 448C773 460 789 475 806 492C818 504 838 509 845 491C847 482 846 469 842 453C839 442 829 431 811 423C771 405 745 399 736 405C732 406 731 412 733 420C734 426 743 435 759 448Z"/>
<path id="z27323d15" d="M474 619C456 613 409 597 429 635C448 671 464 720 476 781C477 791 480 802 486 812C492 822 521 821 521 809C517 757 504 705 495 654C492 641 487 624 474 619Z"/>
<path id="z27323d16" d="M826 773C844 704 861 657 881 631C886 623 890 616 887 609C882 598 860 583 822 566C811 561 801 559 792 562C695 582 590 601 474 619C461 621 482 657 495 654C503 652 518 647 561 639C578 636 578 636 587 634C615 628 654 621 676 618C703 613 703 613 717 611C756 604 799 592 796 629C791 671 780 720 767 781C763 800 822 792 826 773Z"/>
<path id="z27323d17" d="M617 800C627 770 593 640 587 634C583 626 559 630 561 639C577 722 564 772 596 802C601 807 616 807 617 800Z"/>
<path id="z27323d18" d="M684 792C739 623 762 640 717 611C705 604 672 605 676 618C692 656 666 756 661 795C659 803 681 799 684 792Z"/>
<path id="z27323d19" d="M486 812C450 815 413 816 376 820C363 821 361 827 371 838C387 856 416 863 434 859C581 823 754 816 951 828C997 830 976 804 968 797C940 773 913 761 826 773C787 778 787 778 767 781C741 784 699 789 684 792C669 794 669 794 661 795C649 796 634 798 617 800C603 801 603 801 596 802C571 804 546 806 521 809C498 811 498 811 486 812Z"/>
<defs>
	<clipPath id="z27323c1"><use href="#z27323d1"/></clipPath>
	<clipPath id="z27323c2"><use href="#z27323d2"/></clipPath>
	<clipPath id="z27323c3"><use href="#z27323d3"/></clipPath>
	<clipPath id="z27323c4"><use href="#z27323d4"/></clipPath>
	<clipPath id="z27323c5"><use href="#z27323d5"/></clipPath>
	<clipPath id="z27323c6"><use href="#z27323d6"/></clipPath>
	<clipPath id="z27323c7"><use href="#z27323d7"/></clipPath>
	<clipPath id="z27323c8"><use href="#z27323d8"/></clipPath>
	<clipPath id="z27323c9"><use href="#z27323d9"/></clipPath>
	<clipPath id="z27323c10"><use href="#z27323d10"/></clipPath>
	<clipPath id="z27323c11"><use href="#z27323d11"/></clipPath>
	<clipPath id="z27323c12"><use href="#z27323d12"/></clipPath>
	<clipPath id="z27323c13"><use href="#z27323d13"/></clipPath>
	<clipPath id="z27323c14"><use href="#z27323d14"/></clipPath>
	<clipPath id="z27323c15"><use href="#z27323d15"/></clipPath>
	<clipPath id="z27323c16"><use href="#z27323d16"/></clipPath>
	<clipPath id="z27323c17"><use href="#z27323d17"/></clipPath>
	<clipPath id="z27323c18"><use href="#z27323d18"/></clipPath>
	<clipPath id="z27323c19"><use href="#z27323d19"/></clipPath>
</defs>
<path style="--d:1s;" pathLength="3333" clip-path="url(#z27323c1)" d="M68 429L373 367"/>
<path style="--d:2s;" pathLength="3333" clip-path="url(#z27323c2)" d="M222 83L281 151L249 920"/>
<path style="--d:3s;" pathLength="3333" clip-path="url(#z27323c3)" d="M257 396L188 567L41 747"/>
<path style="--d:4s;" pathLength="3333" clip-path="url(#z27323c4)" d="M297 463L366 531"/>
<path style="--d:5s;" pathLength="3333" clip-path="url(#z27323c5)" d="M410 178L443 228L433 580"/>
<path style="--d:6s;" pathLength="3333" clip-path="url(#z27323c6)" d="M457 194L657 172"/>
<path style="--d:7s;" pathLength="3333" clip-path="url(#z27323c7)" d="M547 206L560 303"/>
<path style="--d:8s;" pathLength="3333" clip-path="url(#z27323c8)" d="M463 328L613 304L642 333L603 391"/>
<path style="--d:9s;" pathLength="3333" clip-path="url(#z27323c9)" d="M456 426L640 408"/>
<path style="--d:10s;" pathLength="3333" clip-path="url(#z27323c10)" d="M556 424L561 515"/>
<path style="--d:11s;" pathLength="3333" clip-path="url(#z27323c11)" d="M449 561L526 529L686 515"/>
<path style="--d:12s;" pathLength="3333" clip-path="url(#z27323c12)" d="M734 103L776 140L680 382"/>
<path style="--d:13s;" pathLength="3333" clip-path="url(#z27323c13)" d="M732 315L937 282"/>
<path style="--d:14s;" pathLength="3333" clip-path="url(#z27323c14)" d="M737 411L810 455L825 500"/>
<path style="--d:15s;" pathLength="3333" clip-path="url(#z27323c15)" d="M431 618L467 655L509 816"/>
<path style="--d:16s;" pathLength="3333" clip-path="url(#z27323c16)" d="M477 624L805 587L842 623L781 789"/>
<path style="--d:17s;" pathLength="3333" clip-path="url(#z27323c17)" d="M574 633L604 803"/>
<path style="--d:18s;" pathLength="3333" clip-path="url(#z27323c18)" d="M684 614L711 646L671 796"/>
<path style="--d:19s;" pathLength="3333" clip-path="url(#z27323c19)" d="M372 827L429 838L859 796L975 810"/>
</svg>