<!--
AnimCJK 2016-2019 Copyright Francois Mizessyn - https://github.com/parsimonhi/animCJK
Derived from:
    MakeMeAHanzi project - https://github.com/skishore/makemeahanzi
    Arphic PL KaitiM GB font
    Arphic PL UKai font
You can redistribute and/or modify this file under the terms of the Arphic Public License
as published by Arphic Technology Co., Ltd.
You should have received a copy of this license along with this file.
If not, see http://ftp.gnu.org/non-gnu/chinese-fonts-truetype/LICENSE.
-->
<svg id="z27355" class="acjk" version="1.1" viewBox="0 0 1024 1024" xmlns="http://www.w3.org/2000/svg" xmlns:xlink="http://www.w3.org/1999/xlink">
<style>
<![CDATA[
@keyframes zk {
	to {
		stroke-dashoffset:0;
	}
}
svg.acjk path[clip-path] {
	--t:0.8s;
	animation:zk var(--t) linear forwards var(--d);
	stroke-dasharray:3337;
	stroke-dashoffset:3339;
	stroke-width:128;
	stroke-linecap:round;
	fill:none;
	stroke:#000;
}
svg.acjk path[id] {fill:#ccc;}
]]>
</style>
<path id="z27355d1" d="M287 382Q299 378 314 374Q348 364 353 358Q360 351 356 342Q349 332 321 328Q305 327 289 331C264 340 264 340 251 345Q155 381 85 393Q52 402 78 415Q115 433 175 414Q202 405 232 399C269 388 269 388 287 382Z"/>
<path id="z27355d2" d="M245 480C243 507 239 604 237 637C233 689 227 738 213 787C205 810 210 843 226 883C230 893 234 899 239 903C243 906 246 905 252 902C269 890 279 865 279 825C278 799 277 696 283 518C284 497 284 497 284 487C285 454 285 419 287 382C288 348 288 348 289 331C292 250 295 183 312 132C315 121 320 112 318 105C315 97 293 84 259 62C243 51 230 50 218 61C215 63 213 70 219 80C237 113 249 155 251 209C252 253 253 299 251 345C247 435 247 435 245 480Z"/>
<path id="z27355d3" d="M232 399C216 443 196 485 174 526C147 572 102 638 38 724C35 730 37 734 44 734C48 734 52 732 58 727C134 659 197 576 246 480C276 404 258 320 232 398C232 399 232 399 232 399Z"/>
<path id="z27355d4" d="M283 518Q332 563 348 564Q360 564 364 548Q364 538 355 521Q343 503 284 487C274 484 275 512 283 518Z"/>
<path id="z27355d5" d="M501 184Q514 153 528 126Q535 116 521 105Q482 84 462 89Q453 93 457 104Q479 170 415 274Q399 296 391 310Q387 323 398 318Q443 303 491 207C498 192 498 192 501 184Z"/>
<path id="z27355d6" d="M491 207Q530 213 625 183C626 183 626 183 626 183Q632 176 628 169Q621 160 597 158Q561 158 501 184C493 187 483 205 491 207Z"/>
<path id="z27355d7" d="M494 272Q530 320 549 320Q559 321 565 307Q566 297 558 281Q543 257 498 251Q491 250 490 259Q489 265 494 272Z"/>
<path id="z27355d8" d="M732 150Q748 117 764 90Q771 78 758 67Q715 40 695 47Q685 50 689 62Q707 140 635 240Q616 262 608 277Q602 290 615 286Q628 282 646 266Q695 221 723 168C729 156 729 156 732 150Z"/>
<path id="z27355d9" d="M723 168Q753 186 839 167Q896 155 904 151Q911 144 907 137Q900 128 877 123Q865 120 785 142Q760 146 732 150C725 151 717 165 723 168Z"/>
<path id="z27355d10" d="M737 279Q798 324 809 324Q818 323 821 312Q824 299 815 276Q803 249 730 241Q717 240 712 241Q708 245 710 255Q714 264 737 279Z"/>
<path id="z27355d11" d="M493 363C487 375 477 391 464 412C463 414 463 417 465 419C467 419 470 418 473 417C501 395 522 380 535 371C541 369 543 366 542 361C539 356 534 350 526 343C519 337 511 334 502 334C497 335 495 339 496 346C497 351 496 356 493 363Z"/>
<path id="z27355d12" d="M540 599Q550 614 561 619Q570 625 581 609Q593 590 615 484Q621 460 638 440Q648 430 639 420Q626 407 593 389Q578 382 434 430C425 434 441 458 450 454Q552 415 567 425Q577 432 575 449Q556 563 540 574C534 580 535 592 540 599Z"/>
<path id="z27355d13" d="M441 535Q490 522 528 514Q544 510 537 500Q528 490 508 488Q477 488 443 508C435 513 432 537 441 535Z"/>
<path id="z27355d14" d="M437 615Q443 615 451 614Q479 605 540 599C548 597 548 576 540 574Q510 564 442 589Q439 589 438 590C430 592 429 615 437 615Z"/>
<path id="z27355d15" d="M438 590C438 569 439 551 441 535C442 517 442 517 443 508C444 487 445 472 449 462C449 459 450 456 450 454C452 445 442 436 434 430C423 419 413 413 404 411C397 409 392 410 389 413C383 417 384 421 389 430C409 465 409 575 401 716C399 745 393 776 390 802C386 824 393 852 397 863C404 883 415 877 421 867C427 855 429 827 431 794C432 779 432 779 432 772C432 751 433 731 434 708C435 690 435 690 435 681C435 658 436 636 437 615C438 598 438 598 438 590Z"/>
<path id="z27355d16" d="M546 653C523 653 489 665 468 672C458 674 446 678 435 681C426 684 425 710 434 708C469 702 521 692 556 687C564 685 575 685 580 678C584 671 575 663 571 660C564 654 555 652 546 653Z"/>
<path id="z27355d17" d="M568 741C567 741 595 739 565 741C541 742 496 752 474 759C460 762 445 766 432 772C425 775 424 794 431 794C457 793 504 786 529 782C548 778 569 778 588 772C594 770 599 763 596 758C590 747 579 741 568 741Z"/>
<path id="z27355d18" d="M746 442C780 429 809 420 834 417C838 416 842 416 844 418C850 424 853 439 853 462C853 522 848 566 837 594C831 608 821 617 810 616C799 614 789 610 779 607C766 602 763 607 774 619C794 641 807 661 820 676C830 688 841 684 851 675C879 645 897 587 898 499C898 454 900 423 909 409C912 401 914 395 911 391C906 385 890 379 864 371C854 367 845 371 836 378C828 383 793 395 733 415C724 419 737 446 746 442Z"/>
<path id="z27355d19" d="M733 415C716 404 704 399 698 398C691 396 682 395 674 401C668 404 669 410 673 417C686 438 692 476 693 529C693 597 691 681 690 780C687 884 692 944 703 962C705 966 709 967 714 965C718 963 722 957 725 949C731 925 735 827 736 656C736 544 739 472 746 442C748 432 741 421 733 415Z"/>
<defs>
	<clipPath id="z27355c1"><use xlink:href="#z27355d1"/></clipPath>
	<clipPath id="z27355c2"><use xlink:href="#z27355d2"/></clipPath>
	<clipPath id="z27355c3"><use xlink:href="#z27355d3"/></clipPath>
	<clipPath id="z27355c4"><use xlink:href="#z27355d4"/></clipPath>
	<clipPath id="z27355c5"><use xlink:href="#z27355d5"/></clipPath>
	<clipPath id="z27355c6"><use xlink:href="#z27355d6"/></clipPath>
	<clipPath id="z27355c7"><use xlink:href="#z27355d7"/></clipPath>
	<clipPath id="z27355c8"><use xlink:href="#z27355d8"/></clipPath>
	<clipPath id="z27355c9"><use xlink:href="#z27355d9"/></clipPath>
	<clipPath id="z27355c10"><use xlink:href="#z27355d10"/></clipPath>
	<clipPath id="z27355c11"><use xlink:href="#z27355d11"/></clipPath>
	<clipPath id="z27355c12"><use xlink:href="#z27355d12"/></clipPath>
	<clipPath id="z27355c13"><use xlink:href="#z27355d13"/></clipPath>
	<clipPath id="z27355c14"><use xlink:href="#z27355d14"/></clipPath>
	<clipPath id="z27355c15"><use xlink:href="#z27355d15"/></clipPath>
	<clipPath id="z27355c16"><use xlink:href="#z27355d16"/></clipPath>
	<clipPath id="z27355c17"><use xlink:href="#z27355d17"/></clipPath>
	<clipPath id="z27355c18"><use xlink:href="#z27355d18"/></clipPath>
	<clipPath id="z27355c19"><use xlink:href="#z27355d19"/></clipPath>
</defs>
<path style="--d:1s;" pathLength="3333" clip-path="url(#z27355c1)" d="M73 402L352 346"/>
<path style="--d:2s;" pathLength="3333" clip-path="url(#z27355c2)" d="M223 66L279 119L247 901"/>
<path style="--d:3s;" pathLength="3333" clip-path="url(#z27355c3)" d="M242 402L180 555L44 725"/>
<path style="--d:4s;" pathLength="3333" clip-path="url(#z27355c4)" d="M290 496L357 554"/>
<path style="--d:5s;" pathLength="3333" clip-path="url(#z27355c5)" d="M462 93L496 126L487 158L396 313"/>
<path style="--d:6s;" pathLength="3333" clip-path="url(#z27355c6)" d="M501 202L620 173"/>
<path style="--d:7s;" pathLength="3333" clip-path="url(#z27355c7)" d="M499 261L559 309"/>
<path style="--d:8s;" pathLength="3333" clip-path="url(#z27355c8)" d="M696 54L727 97L683 197L611 280"/>
<path style="--d:9s;" pathLength="3333" clip-path="url(#z27355c9)" d="M731 164L900 139"/>
<path style="--d:10s;" pathLength="3333" clip-path="url(#z27355c10)" d="M717 249L815 313"/>
<path style="--d:11s;" pathLength="3333" clip-path="url(#z27355c11)" d="M502 339L511 365L467 413"/>
<path style="--d:12s;" pathLength="3333" clip-path="url(#z27355c12)" d="M440 432L568 406L609 431L564 615"/>
<path style="--d:13s;" pathLength="3333" clip-path="url(#z27355c13)" d="M446 526L530 503"/>
<path style="--d:14s;" pathLength="3333" clip-path="url(#z27355c14)" d="M441 607L537 585"/>
<path style="--d:15s;" pathLength="3333" clip-path="url(#z27355c15)" d="M391 418L424 463L410 863"/>
<path style="--d:16s;" pathLength="3333" clip-path="url(#z27355c16)" d="M441 696L572 674"/>
<path style="--d:17s;" pathLength="3333" clip-path="url(#z27355c17)" d="M442 780L588 759"/>
<path style="--d:18s;" pathLength="3333" clip-path="url(#z27355c18)" d="M740 418L849 393L879 407L851 623L821 649L775 613"/>
<path style="--d:19s;" pathLength="3333" clip-path="url(#z27355c19)" d="M679 409L716 448L709 959"/>
</svg>