<!--
AnimCJK 2016-2026 Copyright FM-SH - https://github.com/parsimonhi/animCJK
Derived from:
    MakeMeAHanzi project - https://github.com/skishore/makemeahanzi
    Arphic PL KaitiM GB font
    Arphic PL KaitiM Big5 font
You can redistribute and/or modify this file under the terms of the Arphic Public License
as published by Arphic Technology Co., Ltd.
You should have received a copy of this license along with this file.
If not, see https://ftp.gnu.org/non-gnu/chinese-fonts-truetype/LICENSE.
-->
<svg id="z27370" class="acjk" viewBox="0 0 1024 1024" xmlns="http://www.w3.org/2000/svg">
<style>
<![CDATA[
@keyframes zk {
	to {
		stroke-dashoffset:0;
	}
}
svg.acjk path[clip-path] {
	--t:0.8s;
	animation:zk var(--t) linear forwards var(--d);
	stroke-dasharray:3337;
	stroke-dashoffset:3339;
	stroke-width:128;
	stroke-linecap:round;
	fill:none;
	stroke:#000;
}
svg.acjk path[id] {fill:#ccc;}
]]>
</style>
<path id="z27370d1" d="M274 397C288 392 333 379 342 370C360 348 319 341 309 341C297 340 285 340 276 344C246 356 246 356 231 362C165 388 113 404 76 413C55 418 52 428 69 435C121 455 163 434 212 418C253 404 253 404 274 397Z"/>
<path id="z27370d2" d="M269 526C270 487 272 444 274 397C275 362 275 362 276 344C280 235 292 171 301 153C305 142 311 132 308 124C305 116 282 102 246 78C228 66 184 61 202 97C240 177 235 275 231 362C226 459 226 459 224 508C219 606 219 694 191 790C182 818 190 866 202 893C221 937 241 907 247 891C256 871 260 840 261 798C261 753 263 671 268 554C269 535 269 535 269 526Z"/>
<path id="z27370d3" d="M212 418C186 497 133 598 52 720C31 752 53 744 68 731C107 696 180 609 224 508C258 424 246 334 212 418Z"/>
<path id="z27370d4" d="M268 554C292 576 326 611 341 614C359 617 358 587 351 569C342 549 288 529 269 526C260 524 261 548 268 554Z"/>
<path id="z27370d5" d="M458 268Q495 274 528 266Q807 203 820 190Q827 183 823 175Q816 165 789 158Q765 154 668 189Q544 225 447 238Q446 238 446 239C436 243 448 266 458 268Z"/>
<path id="z27370d6" d="M449 445C451 386 453 284 458 268C460 258 454 245 446 239C415 215 362 209 381 238C391 254 402 272 402 298C402 562 393 626 288 832C277 847 283 862 303 843C400 738 440 610 448 465C449 452 449 452 449 445Z"/>
<path id="z27370d7" d="M549 350C569 341 603 325 619 317C636 307 632 301 625 296C599 278 566 261 561 278C551 308 518 333 475 368C471 370 474 375 477 376C479 376 495 372 523 361C540 354 540 354 549 350Z"/>
<path id="z27370d8" d="M570 446C584 441 616 435 625 428C636 417 622 409 600 405C589 403 581 404 573 408C547 418 547 418 534 423C500 435 471 441 449 445C442 446 442 463 448 465C462 473 490 470 514 463C551 452 551 452 570 446Z"/>
<path id="z27370d9" d="M569 473C569 465 569 454 570 446C572 421 572 421 573 408C576 365 582 363 549 350C540 347 520 352 523 361C529 375 534 395 534 423C534 477 534 477 534 504C534 528 532 552 526 577C519 603 523 626 541 648C546 654 552 656 557 649C570 601 568 544 569 494C569 480 569 480 569 473Z"/>
<path id="z27370d10" d="M514 463C505 496 488 531 452 579C441 595 449 600 464 590C498 567 530 510 534 504C557 466 523 419 514 463Z"/>
<path id="z27370d11" d="M569 494C587 520 600 535 611 537C618 538 634 537 622 505C617 492 595 478 569 473C562 472 565 488 569 494Z"/>
<path id="z27370d12" d="M741 319C760 311 789 294 808 287C823 280 825 272 813 265C783 246 759 241 745 247C741 248 740 252 741 258C741 269 723 289 669 330C654 343 654 348 671 344C683 340 700 335 716 329C733 322 733 322 741 319Z"/>
<path id="z27370d13" d="M763 415C822 400 852 385 853 385C867 369 838 362 827 361C808 358 789 369 765 377C740 384 740 384 728 388C710 393 690 398 671 403C652 407 652 411 665 421C676 429 691 432 707 429C744 420 744 420 763 415Z"/>
<path id="z27370d14" d="M763 422C763 419 762 417 763 415C764 390 764 390 765 377C767 333 772 333 741 319C733 316 713 321 716 329C723 348 727 367 728 388C729 442 729 442 729 469C729 498 726 527 721 553C714 579 720 602 737 624C742 630 748 631 753 625C760 615 763 554 763 445C763 430 763 430 763 422Z"/>
<path id="z27370d15" d="M707 429C697 460 677 495 645 535C632 549 629 560 652 549C687 533 711 502 729 469C751 432 723 389 707 429Z"/>
<path id="z27370d16" d="M763 445C783 475 804 505 829 533C838 544 853 549 871 551C903 553 936 549 971 545C990 542 988 535 976 531C825 482 783 436 763 422C757 417 758 439 763 445Z"/>
<path id="z27370d17" d="M670 802C672 773 675 747 676 721C677 703 677 703 677 694C677 677 682 656 688 631C689 624 685 617 674 611C655 600 639 594 626 593C609 591 597 599 607 616C639 670 631 745 635 807C635 819 670 814 670 802Z"/>
<path id="z27370d18" d="M676 721C694 723 724 719 767 708C807 696 824 693 830 688C839 679 825 660 799 661C783 661 721 682 677 694C669 697 667 721 676 721Z"/>
<path id="z27370d19" d="M551 818C551 769 550 736 550 718C550 708 550 703 544 697C531 685 516 678 500 673C492 670 466 667 479 692C488 710 501 753 513 823C516 836 551 831 551 818Z"/>
<path id="z27370d20" d="M513 823C468 828 421 833 372 839C359 840 357 846 367 857C383 874 410 883 433 877C536 848 700 835 923 835C949 835 957 820 936 802C900 772 862 768 821 778C779 787 699 797 670 802C647 805 647 805 635 807C608 810 580 814 551 818C526 821 526 821 513 823Z"/>
<defs>
	<clipPath id="z27370c1"><use href="#z27370d1"/></clipPath>
	<clipPath id="z27370c2"><use href="#z27370d2"/></clipPath>
	<clipPath id="z27370c3"><use href="#z27370d3"/></clipPath>
	<clipPath id="z27370c4"><use href="#z27370d4"/></clipPath>
	<clipPath id="z27370c5"><use href="#z27370d5"/></clipPath>
	<clipPath id="z27370c6"><use href="#z27370d6"/></clipPath>
	<clipPath id="z27370c7"><use href="#z27370d7"/></clipPath>
	<clipPath id="z27370c8"><use href="#z27370d8"/></clipPath>
	<clipPath id="z27370c9"><use href="#z27370d9"/></clipPath>
	<clipPath id="z27370c10"><use href="#z27370d10"/></clipPath>
	<clipPath id="z27370c11"><use href="#z27370d11"/></clipPath>
	<clipPath id="z27370c12"><use href="#z27370d12"/></clipPath>
	<clipPath id="z27370c13"><use href="#z27370d13"/></clipPath>
	<clipPath id="z27370c14"><use href="#z27370d14"/></clipPath>
	<clipPath id="z27370c15"><use href="#z27370d15"/></clipPath>
	<clipPath id="z27370c16"><use href="#z27370d16"/></clipPath>
	<clipPath id="z27370c17"><use href="#z27370d17"/></clipPath>
	<clipPath id="z27370c18"><use href="#z27370d18"/></clipPath>
	<clipPath id="z27370c19"><use href="#z27370d19"/></clipPath>
	<clipPath id="z27370c20"><use href="#z27370d20"/></clipPath>
</defs>
<path style="--d:1s;" pathLength="3333" clip-path="url(#z27370c1)" d="M62 425L341 357"/>
<path style="--d:2s;" pathLength="3333" clip-path="url(#z27370c2)" d="M206 79L265 144L226 909"/>
<path style="--d:3s;" pathLength="3333" clip-path="url(#z27370c3)" d="M234 392L175 558L49 734"/>
<path style="--d:4s;" pathLength="3333" clip-path="url(#z27370c4)" d="M269 535L348 608"/>
<path style="--d:5s;" pathLength="3333" clip-path="url(#z27370c5)" d="M447 244L515 247L820 175"/>
<path style="--d:6s;" pathLength="3333" clip-path="url(#z27370c6)" d="M384 226L429 271L417 533L381 680L291 847"/>
<path style="--d:7s;" pathLength="3333" clip-path="url(#z27370c7)" d="M570 276L581 314L480 371"/>
<path style="--d:8s;" pathLength="3333" clip-path="url(#z27370c8)" d="M447 454L622 417"/>
<path style="--d:9s;" pathLength="3333" clip-path="url(#z27370c9)" d="M529 358L554 387L548 648"/>
<path style="--d:10s;" pathLength="3333" clip-path="url(#z27370c10)" d="M527 449L515 506L453 587"/>
<path style="--d:11s;" pathLength="3333" clip-path="url(#z27370c11)" d="M572 481L619 532"/>
<path style="--d:12s;" pathLength="3333" clip-path="url(#z27370c12)" d="M748 253L767 286L666 340"/>
<path style="--d:13s;" pathLength="3333" clip-path="url(#z27370c13)" d="M667 412L852 379"/>
<path style="--d:14s;" pathLength="3333" clip-path="url(#z27370c14)" d="M723 329L746 357L744 622"/>
<path style="--d:15s;" pathLength="3333" clip-path="url(#z27370c15)" d="M724 416L697 489L641 547"/>
<path style="--d:16s;" pathLength="3333" clip-path="url(#z27370c16)" d="M764 428L854 515L975 537"/>
<path style="--d:17s;" pathLength="3333" clip-path="url(#z27370c17)" d="M610 601L655 641L651 811"/>
<path style="--d:18s;" pathLength="3333" clip-path="url(#z27370c18)" d="M675 712L827 680"/>
<path style="--d:19s;" pathLength="3333" clip-path="url(#z27370c19)" d="M483 680L520 717L530 828"/>
<path style="--d:20s;" pathLength="3333" clip-path="url(#z27370c20)" d="M369 847L844 804L944 815"/>
</svg>