<!--
AnimCJK 2016-2019 Copyright Francois Mizessyn - https://github.com/parsimonhi/animCJK
Derived from:
    MakeMeAHanzi project - https://github.com/skishore/makemeahanzi
    Arphic PL KaitiM GB font
    Arphic PL UKai font
You can redistribute and/or modify this file under the terms of the Arphic Public License
as published by Arphic Technology Co., Ltd.
You should have received a copy of this license along with this file.
If not, see http://ftp.gnu.org/non-gnu/chinese-fonts-truetype/LICENSE.
-->
<svg id="z27494" class="acjk" version="1.1" viewBox="0 0 1024 1024" xmlns="http://www.w3.org/2000/svg" xmlns:xlink="http://www.w3.org/1999/xlink">
<style>
<![CDATA[
@keyframes zk {
	to {
		stroke-dashoffset:0;
	}
}
svg.acjk path[clip-path] {
	--t:0.8s;
	animation:zk var(--t) linear forwards var(--d);
	stroke-dasharray:3337;
	stroke-dashoffset:3339;
	stroke-width:128;
	stroke-linecap:round;
	fill:none;
	stroke:#000;
}
svg.acjk path[id] {fill:#ccc;}
]]>
</style>
<path id="z27494d1" d="M263 309Q226 318 254 333Q296 355 355 337Q407 324 464 308Q489 301 493 297Q502 288 496 280Q489 268 458 263Q427 259 397 273Q369 285 338 294Q304 304 263 309Z"/>
<path id="z27494d2" d="M613 401Q679 388 755 377Q774 374 774 366Q775 351 755 341Q724 328 699 334Q648 346 603 358C574 365 574 365 559 369Q270 438 138 452Q123 453 120 463Q117 475 134 488Q179 518 233 500Q288 481 341 466C368 457 368 457 382 453Q454 431 568 409C598 404 598 404 613 401Z"/>
<path id="z27494d3" d="M341 466Q359 493 359 516Q363 622 370 741C370 754 408 742 408 729Q409 668 411 612C412 591 412 591 412 581Q413 521 420 500Q429 484 417 474Q398 461 382 453C370 446 332 455 341 466Z"/>
<path id="z27494d4" d="M411 612Q432 615 497 599Q515 593 535 588Q545 585 547 583Q554 574 549 567Q540 557 511 554Q481 553 454 568Q444 572 430 576Q420 577 412 581C402 585 401 612 411 612Z"/>
<path id="z27494d5" d="M299 764Q296 673 301 637Q304 615 290 603Q268 587 242 578Q229 572 220 578Q213 585 219 599Q243 638 258 777C260 791 299 778 299 764Z"/>
<path id="z27494d6" d="M370 741Q334 751 299 764C272 773 272 773 258 777Q239 781 219 788Q197 795 162 795Q147 796 145 808Q144 824 154 832Q179 850 217 870Q229 874 242 863Q285 830 334 807Q409 774 483 739Q511 726 532 710Q547 701 547 691Q540 685 527 688Q469 707 408 729C383 737 383 737 370 741Z"/>
<path id="z27494d7" d="M568 409Q644 763 830 911Q894 962 924 960Q946 956 937 926Q931 877 932 735Q932 710 923 709Q922 709 882 802Q869 841 845 833Q833 827 816 815Q681 686 613 401C606 372 606 372 603 358Q576 229 584 133Q594 90 536 71Q499 56 479 65Q458 74 469 93Q518 133 521 168Q539 279 559 369C565 396 565 396 568 409Z"/>
<path id="z27494d8" d="M700 231Q736 252 774 278Q790 288 807 285Q817 284 821 268Q822 252 808 223Q792 190 686 182Q670 181 663 185Q659 189 663 203Q669 213 700 231Z"/>
<defs>
	<clipPath id="z27494c1"><use xlink:href="#z27494d1"/></clipPath>
	<clipPath id="z27494c2"><use xlink:href="#z27494d2"/></clipPath>
	<clipPath id="z27494c3"><use xlink:href="#z27494d3"/></clipPath>
	<clipPath id="z27494c4"><use xlink:href="#z27494d4"/></clipPath>
	<clipPath id="z27494c5"><use xlink:href="#z27494d5"/></clipPath>
	<clipPath id="z27494c6"><use xlink:href="#z27494d6"/></clipPath>
	<clipPath id="z27494c7"><use xlink:href="#z27494d7"/></clipPath>
	<clipPath id="z27494c8"><use xlink:href="#z27494d8"/></clipPath>
</defs>
<path style="--d:1s;" pathLength="3333" clip-path="url(#z27494c1)" d="M250 321L494 289"/>
<path style="--d:2s;" pathLength="3333" clip-path="url(#z27494c2)" d="M124 465L209 474L646 370L769 362"/>
<path style="--d:3s;" pathLength="3333" clip-path="url(#z27494c3)" d="M349 472L391 501L385 735"/>
<path style="--d:4s;" pathLength="3333" clip-path="url(#z27494c4)" d="M418 604L544 570"/>
<path style="--d:5s;" pathLength="3333" clip-path="url(#z27494c5)" d="M224 587L268 631L266 774"/>
<path style="--d:6s;" pathLength="3333" clip-path="url(#z27494c6)" d="M148 809L224 829L541 695"/>
<path style="--d:7s;" pathLength="3333" clip-path="url(#z27494c7)" d="M473 82L550 131L622 525L741 773L815 855L905 909L924 719"/>
<path style="--d:8s;" pathLength="3333" clip-path="url(#z27494c8)" d="M665 193L775 236L813 277"/>
</svg>