<!--
AnimCJK 2016-2017 Copyright Francois Mizessyn, http://gooo.free.fr/animCJK/
Derived from:
    MakeMeAHanzi project - https://github.com/skishore/makemeahanzi
    Arphic PL KaitiM GB - https://apps.ubuntu.com/cat/applications/precise/fonts-arphic-gkai00mp/
    Arphic PL UKai - https://apps.ubuntu.com/cat/applications/fonts-arphic-ukai/
You can redistribute and/or modify this file under the terms of the Arphic Public License
as published by Arphic Technology Co., Ltd.
You should have received a copy of this license (the directory "APL") along with this file;
if not, see http://ftp.gnu.org/non-gnu/chinese-fonts-truetype/LICENSE.
-->
<svg id="z27490" class="acjk" version="1.1" viewBox="0 0 1024 1024" xmlns="http://www.w3.org/2000/svg" xmlns:xlink="http://www.w3.org/1999/xlink">
<style>
<![CDATA[
	@keyframes z27490k {
		from {
			stroke:#c00;
			stroke-dashoffset:3000;
		}
		75% {
			stroke:#c00;
			stroke-dashoffset:0;
		}
		to {
			stroke:#000;
		}
	}
	#z27490 path[clip-path] {
		animation:z27490k 1s linear both;
		stroke-dasharray:3000;
		stroke-width:128;
		stroke-linecap:round;
		fill:none;
	}
	#z27490 path[clip-path="url(#z27490c1)"] {animation-delay:1s;}
	#z27490 path[clip-path="url(#z27490c2)"] {animation-delay:2s;}
	#z27490 path[clip-path="url(#z27490c3)"] {animation-delay:3s;}
	#z27490 path[clip-path="url(#z27490c4)"] {animation-delay:4s;}
	#z27490 path {fill:#ccc;}
]]>
</style>
<g transform="scale(1,-1) translate(0,-900)">
	<path id="z27490d1" d="M544 136Q548 286 552 424L553 451Q556 622 577 716Q581 731 558 749Q516 770 488 774Q469 778 460 768Q451 758 461 741Q498 689 497 653Q510 412 495 131L544 136Z"/>
	<path id="z27490d2" d="M552 424Q603 406 652 420Q716 433 781 449Q812 456 816 461Q825 471 820 479Q811 492 780 498Q747 504 715 490Q682 477 645 468Q605 458 557 452Q554 452 553 451L552 424Z"/>
	<path id="z27490d3" d="M347 116Q334 323 339 400Q343 425 326 439Q301 458 270 469Q254 475 244 468Q235 461 243 444Q267 398 278 350Q285 302 302 113L347 116Z"/>
	<path id="z27490d4" d="M495 131Q423 127 347 116L302 113Q217 106 128 98Q103 97 120 75Q156 39 201 49Q498 118 900 96Q901 97 904 96Q928 95 934 105Q941 118 922 136Q859 184 788 170Q691 155 544 136L495 131Z"/>
	<defs>
		<clipPath id="z27490c1"><use xlink:href="#z27490d1"/></clipPath>
		<clipPath id="z27490c2"><use xlink:href="#z27490d2"/></clipPath>
		<clipPath id="z27490c3"><use xlink:href="#z27490d3"/></clipPath>
		<clipPath id="z27490c4"><use xlink:href="#z27490d4"/></clipPath>
	</defs>
	<path pathLength="2999" clip-path="url(#z27490c1)" d="M463 767L534 706L507 134"/>
	<path pathLength="2999" clip-path="url(#z27490c2)" d="M558 429L816 472"/>
	<path pathLength="2999" clip-path="url(#z27490c3)" d="M247 461L301 409L324 115"/>
	<path pathLength="2999" clip-path="url(#z27490c4)" d="M120 90L189 75L813 137L932 115"/>
</g>
</svg>