<!--
AnimCJK 2016-2018 Copyright Francois Mizessyn, https://github.com/parsimonhi/animCJK
Derived from:
    MakeMeAHanzi project - https://github.com/skishore/makemeahanzi
    Arphic PL KaitiM GB - https://apps.ubuntu.com/cat/applications/precise/fonts-arphic-gkai00mp/
    Arphic PL UKai - https://apps.ubuntu.com/cat/applications/fonts-arphic-ukai/
You can redistribute and/or modify this file under the terms of the Arphic Public License
as published by Arphic Technology Co., Ltd.
You should have received a copy of this license (the directory "APL") along with this file;
if not, see http://ftp.gnu.org/non-gnu/chinese-fonts-truetype/LICENSE.
-->
<svg id="z27579" class="acjk" version="1.1" viewBox="0 0 1024 1024" xmlns="http://www.w3.org/2000/svg" xmlns:xlink="http://www.w3.org/1999/xlink">
<style>
<![CDATA[
@keyframes z27579k {
	from {
		stroke:#c00;
		stroke-dashoffset:3334;
	}
	75% {
		stroke:#c00;
		stroke-dashoffset:0;
	}
	to {
		stroke:#000;
	}
}
#z27579 path[clip-path] {
	animation:z27579k 1s linear both;
	stroke-dasharray:3334;
	stroke-width:128;
	stroke-linecap:round;
	fill:none;
}
#z27579 path[clip-path="url(#z27579c1)"] {animation-delay:1s;}
#z27579 path[clip-path="url(#z27579c2)"] {animation-delay:2s;}
#z27579 path[clip-path="url(#z27579c3)"] {animation-delay:3s;}
#z27579 path[clip-path="url(#z27579c4)"] {animation-delay:4s;}
#z27579 path[clip-path="url(#z27579c5)"] {animation-delay:5s;}
#z27579 path[clip-path="url(#z27579c6)"] {animation-delay:6s;}
#z27579 path[clip-path="url(#z27579c7)"] {animation-delay:7s;}
#z27579 path[clip-path="url(#z27579c8)"] {animation-delay:8s;}
#z27579 path[clip-path="url(#z27579c9)"] {animation-delay:9s;}
#z27579 path[clip-path="url(#z27579c10)"] {animation-delay:10s;}
#z27579 path[clip-path="url(#z27579c11)"] {animation-delay:11s;}
#z27579 path {fill:#ccc;}
]]>
</style>
<path id="z27579d1" d="M367 254Q456 226 460 224Q467 216 463 209Q456 199 429 193Q404 190 373 204L322 224Q225 247 197 252Q165 259 189 274Q224 293 280 277Q297 271 321 267L367 254 Z"/>
<path id="z27579d2" d="M358 342Q361 303 366 266L371 216Q377 140 391 102Q394 92 377 77Q346 61 325 55Q312 51 304 60Q297 67 304 81Q320 104 320 119Q321 174 323 236L322 279Q321 315 320 355L358 342 Z"/>
<path id="z27579d3" d="M319 353Q313 353 222 374Q199 378 218 391Q246 411 271 403Q305 394 430 368Q440 368 446 357Q446 347 426 340Q401 324 359 340L319 353 Z"/>
<path id="z27579d4" d="M170 492Q160 471 144 462Q126 452 127 475Q136 506 93 579Q78 603 109 644Q128 662 137 638Q149 614 155 580Q162 540 170 515L170 492 Z"/>
<path id="z27579d5" d="M170 515Q185 521 231 506Q321 472 414 456Q438 450 447 452Q456 456 454 461Q454 467 425 523Q418 535 423 538Q430 541 444 532Q490 501 527 491Q558 484 557 475Q554 466 498 427Q477 412 395 435Q325 450 230 476Q200 483 170 492L170 515 Z"/>
<path id="z27579d6" d="M260 603Q232 588 218 597Q208 603 213 615Q256 721 132 906Q128 913 133 914Q140 915 148 909Q256 822 275 666Q276 653 280 640L260 603 Z"/>
<path id="z27579d7" d="M280 640Q281 639 283 639L327 615Q351 605 358 612Q368 618 361 642Q355 744 333 809Q318 836 353 880Q360 890 370 885Q377 879 387 860Q427 814 513 737Q523 728 523 722Q522 715 512 722Q469 749 425 778Q382 811 391 759Q395 644 430 610Q440 601 433 590Q424 577 392 560Q382 556 367 563Q319 588 260 603L280 640 Z"/>
<path id="z27579d8" d="M611 173Q602 167 577 167Q558 166 551 171Q544 178 550 189Q598 259 537 407Q536 414 541 415Q562 409 591 353Q615 305 617 209L611 173 Z"/>
<path id="z27579d9" d="M617 209Q617 202 688 178Q697 174 703 175Q710 176 711 190Q708 230 705 266Q698 308 708 336Q715 358 736 370Q767 385 823 379Q878 372 905 355Q918 348 909 334Q893 318 874 310Q862 306 841 318Q816 333 782 336Q761 337 752 323Q742 304 752 249Q756 215 788 182Q804 166 787 153Q763 135 738 125Q728 121 712 130Q670 152 611 173L617 209 Z"/>
<path id="z27579d10" d="M703 722Q742 655 767 550Q771 517 788 499Q801 484 783 471Q762 458 730 449Q709 443 691 456Q648 486 586 503Q561 509 552 516Q545 523 562 530Q587 540 623 524Q656 511 688 499Q706 492 708 511Q708 593 666 687L644 728Q632 744 621 761Q569 819 435 866Q422 870 431 878Q438 882 465 877Q553 864 605 834Q644 810 676 765L703 722 Z"/>
<path id="z27579d11" d="M676 765Q790 894 811 900Q887 900 963 885Q979 882 986 874Q989 867 978 864Q822 819 729 744Q716 732 703 722L666 687Q620 644 566 586Q554 568 536 567Q511 568 503 577Q502 581 510 587Q547 606 571 639Q608 685 644 728L676 765 Z"/>
<defs>
	<clipPath id="z27579c1"><use xlink:href="#z27579d1"/></clipPath>
	<clipPath id="z27579c2"><use xlink:href="#z27579d2"/></clipPath>
	<clipPath id="z27579c3"><use xlink:href="#z27579d3"/></clipPath>
	<clipPath id="z27579c4"><use xlink:href="#z27579d4"/></clipPath>
	<clipPath id="z27579c5"><use xlink:href="#z27579d5"/></clipPath>
	<clipPath id="z27579c6"><use xlink:href="#z27579d6"/></clipPath>
	<clipPath id="z27579c7"><use xlink:href="#z27579d7"/></clipPath>
	<clipPath id="z27579c8"><use xlink:href="#z27579d8"/></clipPath>
	<clipPath id="z27579c9"><use xlink:href="#z27579d9"/></clipPath>
	<clipPath id="z27579c10"><use xlink:href="#z27579d10"/></clipPath>
	<clipPath id="z27579c11"><use xlink:href="#z27579d11"/></clipPath>
</defs>
<path pathLength="3333" clip-path="url(#z27579c1)" d="M186 261L460 216"/>
<path pathLength="3333" clip-path="url(#z27579c2)" d="M307 61L355 111L331 348"/>
<path pathLength="3333" clip-path="url(#z27579c3)" d="M216 382L440 353"/>
<path pathLength="3333" clip-path="url(#z27579c4)" d="M136 468L147 515L114 644"/>
<path pathLength="3333" clip-path="url(#z27579c5)" d="M179 508L468 438L503 486L428 532"/>
<path pathLength="3333" clip-path="url(#z27579c6)" d="M221 599L250 644L237 740L138 906"/>
<path pathLength="3333" clip-path="url(#z27579c7)" d="M268 607L370 586L399 609L362 804L376 836L516 725"/>
<path pathLength="3333" clip-path="url(#z27579c8)" d="M554 178L586 192L592 262L542 408"/>
<path pathLength="3333" clip-path="url(#z27579c9)" d="M619 199L723 151L753 177L725 280L737 341L789 358L908 338"/>
<path pathLength="3333" clip-path="url(#z27579c10)" d="M554 520L700 473L741 485L715 633L629 786L437 874"/>
<path pathLength="3333" clip-path="url(#z27579c11)" d="M512 578L826 857L978 870"/>
</svg>