<!--
AnimCJK 2016-2019 Copyright Francois Mizessyn - https://github.com/parsimonhi/animCJK
Derived from:
    MakeMeAHanzi project - https://github.com/skishore/makemeahanzi
    Arphic PL KaitiM GB font
    Arphic PL UKai font
You can redistribute and/or modify this file under the terms of the Arphic Public License
as published by Arphic Technology Co., Ltd.
You should have received a copy of this license along with this file.
If not, see http://ftp.gnu.org/non-gnu/chinese-fonts-truetype/LICENSE.
-->
<svg id="z27598" class="acjk" version="1.1" viewBox="0 0 1024 1024" xmlns="http://www.w3.org/2000/svg" xmlns:xlink="http://www.w3.org/1999/xlink">
<style>
<![CDATA[
@keyframes zk {
	to {
		stroke-dashoffset:0;
	}
}
svg.acjk path[clip-path] {
	--t:0.8s;
	animation:zk var(--t) linear forwards var(--d);
	stroke-dasharray:3337;
	stroke-dashoffset:3339;
	stroke-width:128;
	stroke-linecap:round;
	fill:none;
	stroke:#000;
}
svg.acjk path[id] {fill:#ccc;}
]]>
</style>
<path id="z27598d1" d="M417 189C435 162 453 137 472 116C479 107 479 97 470 88C444 60 421 50 403 52C395 52 392 57 393 69C394 137 354 213 271 292C266 296 246 309 218 340C209 348 213 352 224 351C236 349 252 343 272 331C324 296 368 258 400 213C411 197 411 197 417 189Z"/>
<path id="z27598d2" d="M400 213C430 231 464 236 505 229C568 218 634 208 701 197C731 191 749 186 753 183C759 177 761 169 759 165C754 155 740 148 721 143C698 137 654 151 584 166C492 185 436 187 417 189C407 191 391 209 400 213Z"/>
<path id="z27598d3" d="M348 301C344 301 341 303 339 307C335 314 336 320 341 329C354 353 357 380 353 408C346 448 338 486 327 524C318 554 318 554 313 569C307 585 302 603 295 621C282 654 258 686 224 716C210 727 201 738 204 751C205 763 215 775 229 789C241 801 255 800 274 787C306 764 375 754 479 753C538 751 571 756 594 759C641 765 641 765 665 768C707 773 748 782 793 795C804 798 817 800 829 797C837 794 841 785 837 775C831 759 819 749 806 737C793 725 779 718 758 718C741 718 717 716 671 714C626 712 626 712 604 711C573 709 525 710 470 712C492 712 426 715 426 715C392 716 358 718 325 720C312 721 307 712 313 698C329 654 348 610 364 562C373 534 373 534 378 520C407 431 417 380 418 370C420 358 413 345 405 337C394 326 381 316 366 308C358 303 352 301 348 301Z"/>
<path id="z27598d4" d="M688 495C691 426 699 386 711 373C724 356 725 343 717 335C700 318 678 307 653 298C639 293 626 292 610 297C546 315 477 328 405 337C393 339 406 372 418 370C433 367 460 361 492 355C513 351 513 351 523 349C537 346 559 341 575 339C593 336 607 337 620 346C629 353 635 374 633 407C631 439 630 470 628 500C626 528 626 528 625 542C620 610 613 666 604 711C597 743 597 743 594 759C584 807 575 840 566 859C559 872 545 873 530 870C483 860 468 855 465 854C443 846 440 855 458 873C482 897 503 923 524 950C538 970 554 976 568 968C620 935 653 869 665 768C669 732 669 732 671 714C673 696 685 562 686 539C687 510 687 510 688 495Z"/>
<path id="z27598d5" d="M470 712C477 679 495 620 509 572C520 534 530 503 532 497C536 482 540 467 544 451C547 439 553 422 556 415C561 398 560 381 554 374C543 360 532 357 523 349C516 342 490 345 492 355C502 396 500 418 482 499C476 522 468 546 463 569C450 617 435 679 426 715C423 729 467 726 470 712Z"/>
<path id="z27598d6" d="M686 539C760 535 840 539 928 551C944 553 953 552 958 546C963 537 963 529 955 521C936 502 911 485 883 471C873 466 861 468 843 472C790 482 740 490 688 495C648 498 648 498 628 500C565 505 408 517 378 520C344 523 344 523 327 524C306 525 276 528 253 530C199 533 156 537 79 536C69 535 64 538 64 546C62 554 68 563 81 574C91 581 106 591 128 600C133 602 144 602 157 597C165 593 222 581 313 569C347 564 347 564 364 562C392 558 573 544 625 542C666 540 666 540 686 539Z"/>
<defs>
	<clipPath id="z27598c1"><use xlink:href="#z27598d1"/></clipPath>
	<clipPath id="z27598c2"><use xlink:href="#z27598d2"/></clipPath>
	<clipPath id="z27598c3"><use xlink:href="#z27598d3"/></clipPath>
	<clipPath id="z27598c4"><use xlink:href="#z27598d4"/></clipPath>
	<clipPath id="z27598c5"><use xlink:href="#z27598d5"/></clipPath>
	<clipPath id="z27598c6"><use xlink:href="#z27598d6"/></clipPath>
</defs>
<path style="--d:1s;" pathLength="3333" clip-path="url(#z27598c1)" d="M398 59L432 110L395 174L310 279L222 344"/>
<path style="--d:2s;" pathLength="3333" clip-path="url(#z27598c2)" d="M408 211L755 167"/>
<path style="--d:3s;" pathLength="3333" clip-path="url(#z27598c3)" d="M346 311L380 353L383 399L325 605L260 730L270 754L560 731L763 752L834 780"/>
<path style="--d:4s;" pathLength="3333" clip-path="url(#z27598c4)" d="M413 342L613 317L677 358L607 857L555 921L453 859"/>
<path style="--d:5s;" pathLength="3333" clip-path="url(#z27598c5)" d="M499 361L525 419L450 704L434 707"/>
<path style="--d:6s;" pathLength="3333" clip-path="url(#z27598c6)" d="M70 548L142 568L852 506L957 533"/>
</svg>