<!--
AnimCJK 2016-2018 Copyright Francois Mizessyn, https://github.com/parsimonhi/animCJK
Derived from:
    MakeMeAHanzi project - https://github.com/skishore/makemeahanzi
    Arphic PL KaitiM GB - https://apps.ubuntu.com/cat/applications/precise/fonts-arphic-gkai00mp/
    Arphic PL UKai - https://apps.ubuntu.com/cat/applications/fonts-arphic-ukai/
You can redistribute and/or modify this file under the terms of the Arphic Public License
as published by Arphic Technology Co., Ltd.
You should have received a copy of this license (the directory "APL") along with this file;
if not, see http://ftp.gnu.org/non-gnu/chinese-fonts-truetype/LICENSE.
-->
<svg id="z27809" class="acjk" version="1.1" viewBox="0 0 1024 1024" xmlns="http://www.w3.org/2000/svg" xmlns:xlink="http://www.w3.org/1999/xlink">
<style>
<![CDATA[
@keyframes z27809k {
	from {
		stroke:#c00;
		stroke-dashoffset:3334;
	}
	75% {
		stroke:#c00;
		stroke-dashoffset:0;
	}
	to {
		stroke:#000;
	}
}
#z27809 path[clip-path] {
	animation:z27809k 1s linear both;
	stroke-dasharray:3334;
	stroke-width:128;
	stroke-linecap:round;
	fill:none;
}
#z27809 path[clip-path="url(#z27809c1)"] {animation-delay:1s;}
#z27809 path[clip-path="url(#z27809c2)"] {animation-delay:2s;}
#z27809 path[clip-path="url(#z27809c3)"] {animation-delay:3s;}
#z27809 path[clip-path="url(#z27809c4)"] {animation-delay:4s;}
#z27809 path[clip-path="url(#z27809c5)"] {animation-delay:5s;}
#z27809 path[clip-path="url(#z27809c6)"] {animation-delay:6s;}
#z27809 path[clip-path="url(#z27809c7)"] {animation-delay:7s;}
#z27809 path {fill:#ccc;}
]]>
</style>
<path id="z27809d1" d="M271 171Q293 193 319 220Q335 236 353 235Q366 235 372 219Q378 203 368 166Q362 147 331 133Q253 106 240 112Q234 116 236 132Q240 145 271 171 Z"/>
<path id="z27809d2" d="M153 355Q198 410 231 423Q249 426 258 411Q265 398 262 378Q255 351 235 337Q190 310 159 310Q146 307 137 311Q130 312 133 326Q134 339 153 355 Z"/>
<path id="z27809d3" d="M153 726Q140 729 141 748Q153 829 189 850Q196 857 207 856Q216 855 218 827Q224 787 340 518Q347 502 347 495Q347 485 336 490Q321 500 196 684Q183 706 153 726 Z"/>
<path id="z27809d4" d="M509 169Q466 142 442 152Q430 156 437 170Q462 203 450 301Q434 383 350 458Q338 468 350 469Q396 463 445 413Q500 353 508 269Q511 223 516 207L509 169 Z"/>
<path id="z27809d5" d="M889 414Q905 410 896 392Q881 373 863 360Q851 353 826 362Q786 378 737 375Q706 372 698 349Q685 327 698 263Q701 224 739 185Q758 169 740 154Q715 132 688 120Q678 114 658 125Q585 155 509 169L516 207Q633 168 648 173Q655 177 654 192Q639 354 659 387Q665 399 679 409Q715 431 785 432Q852 432 889 414 Z"/>
<path id="z27809d6" d="M622 712Q623 709 626 707Q669 650 698 560Q707 524 727 507Q743 494 726 477Q705 459 672 446Q650 437 628 448Q574 479 499 492Q471 495 460 502Q451 509 470 518Q497 531 537 518Q579 508 621 496Q639 489 640 510Q640 597 582 677L555 711Q473 777 337 814Q321 817 331 826Q338 832 368 829Q513 814 588 750L622 712 Z"/>
<path id="z27809d7" d="M588 750Q714 889 756 898Q868 898 940 887Q980 883 976 871Q973 862 870 835Q717 787 629 717Q625 714 622 712L582 677Q539 638 496 593Q457 551 420 551Q401 551 398 556Q397 563 413 575Q464 605 555 711L588 750 Z"/>
<defs>
	<clipPath id="z27809c1"><use xlink:href="#z27809d1"/></clipPath>
	<clipPath id="z27809c2"><use xlink:href="#z27809d2"/></clipPath>
	<clipPath id="z27809c3"><use xlink:href="#z27809d3"/></clipPath>
	<clipPath id="z27809c4"><use xlink:href="#z27809d4"/></clipPath>
	<clipPath id="z27809c5"><use xlink:href="#z27809d5"/></clipPath>
	<clipPath id="z27809c6"><use xlink:href="#z27809d6"/></clipPath>
	<clipPath id="z27809c7"><use xlink:href="#z27809d7"/></clipPath>
</defs>
<path pathLength="3333" clip-path="url(#z27809c1)" d="M243 120L334 180L349 232"/>
<path pathLength="3333" clip-path="url(#z27809c2)" d="M138 320L252 414"/>
<path pathLength="3333" clip-path="url(#z27809c3)" d="M205 852L189 754L340 495"/>
<path pathLength="3333" clip-path="url(#z27809c4)" d="M441 160L480 189L473 315L423 407L351 463"/>
<path pathLength="3333" clip-path="url(#z27809c5)" d="M515 173L684 156L700 182L670 329L687 381L733 401L894 398"/>
<path pathLength="3333" clip-path="url(#z27809c6)" d="M466 506L666 478L687 505L647 616L551 746L334 821"/>
<path pathLength="3333" clip-path="url(#z27809c7)" d="M406 558L745 839L966 874"/>
</svg>