<!--
AnimCJK 2016-2026 Copyright FM-SH, https://github.com/parsimonhi/animCJK
Derived from:
    MakeMeAHanzi project - https://github.com/skishore/makemeahanzi
    Arphic PL KaitiM GB font
    Arphic PL KaitiM Big5 font
You can redistribute and/or modify this file under the terms of the Arphic Public License
as published by Arphic Technology Co., Ltd.
You should have received a copy of this license along with this file.
If not, see https://ftp.gnu.org/non-gnu/chinese-fonts-truetype/LICENSE.
-->
<svg id="z27818" class="acjk" viewBox="0 0 1024 1024" xmlns="http://www.w3.org/2000/svg">
<style>
<![CDATA[
@keyframes zk {
	to {
		stroke-dashoffset:0;
	}
}
svg.acjk path[clip-path] {
	--t:0.8s;
	animation:zk var(--t) linear forwards var(--d);
	stroke-dasharray:3337;
	stroke-dashoffset:3339;
	stroke-width:128;
	stroke-linecap:round;
	fill:none;
	stroke:#000;
}
svg.acjk path[id] {fill:#ccc;}
]]>
</style>
<path id="z27818d1" d="M260 193C282 208 305 226 330 246C339 254 350 257 361 256C368 255 374 250 377 240C379 229 375 214 368 194C359 172 320 155 251 144C240 142 232 141 228 145C224 147 223 153 226 163C227 169 240 179 260 193Z"/>
<path id="z27818d2" d="M158 369C195 404 225 430 253 440C263 443 273 438 279 428C284 418 284 407 281 396C270 363 231 340 169 327C156 324 147 325 141 327C136 328 136 332 138 342C139 350 146 358 158 369Z"/>
<path id="z27818d3" d="M132 722C124 726 119 731 122 743C131 793 149 822 171 836C176 839 181 841 189 840C193 838 195 830 197 813C198 790 231 695 293 528C297 517 299 510 299 506C298 499 295 498 289 503C279 509 239 569 170 683C162 695 150 710 132 722Z"/>
<path id="z27818d4" d="M501 194C479 197 476 207 494 219C516 234 550 236 592 226C630 216 671 205 713 193C733 187 743 181 747 178C765 157 737 144 715 141C697 138 661 148 605 171C574 182 539 187 501 194Z"/>
<path id="z27818d5" d="M781 454C801 394 826 359 850 341C864 329 863 313 852 302C840 291 815 277 778 261C765 255 750 255 736 262C681 286 605 311 506 332C494 334 506 369 518 367C651 333 651 333 718 316C747 308 760 325 756 349C747 387 737 422 725 454C718 471 774 471 781 454Z"/>
<path id="z27818d6" d="M501 537C514 541 610 514 800 493C806 492 811 488 812 482C812 476 801 466 781 454C765 444 743 450 725 454C643 474 569 490 505 501C493 503 489 537 501 537Z"/>
<path id="z27818d7" d="M506 332C483 317 453 305 437 307C422 308 422 317 433 334C456 372 460 459 440 594C423 699 360 792 292 855C282 863 276 870 274 875C272 879 275 884 284 882C429 846 487 659 501 537C504 513 504 513 505 501C510 450 510 412 518 367C520 355 516 339 506 332Z"/>
<defs>
	<clipPath id="z27818c1"><use href="#z27818d1"/></clipPath>
	<clipPath id="z27818c2"><use href="#z27818d2"/></clipPath>
	<clipPath id="z27818c3"><use href="#z27818d3"/></clipPath>
	<clipPath id="z27818c4"><use href="#z27818d4"/></clipPath>
	<clipPath id="z27818c5"><use href="#z27818d5"/></clipPath>
	<clipPath id="z27818c6"><use href="#z27818d6"/></clipPath>
	<clipPath id="z27818c7"><use href="#z27818d7"/></clipPath>
</defs>
<path style="--d:1s;" pathLength="3333" clip-path="url(#z27818c1)" d="M228 155L327 199L369 248"/>
<path style="--d:2s;" pathLength="3333" clip-path="url(#z27818c2)" d="M141 336L274 430"/>
<path style="--d:3s;" pathLength="3333" clip-path="url(#z27818c3)" d="M126 737L180 781L289 511"/>
<path style="--d:4s;" pathLength="3333" clip-path="url(#z27818c4)" d="M491 208L749 164"/>
<path style="--d:5s;" pathLength="3333" clip-path="url(#z27818c5)" d="M506 341L767 292L808 328L736 463"/>
<path style="--d:6s;" pathLength="3333" clip-path="url(#z27818c6)" d="M498 528L747 474L806 479"/>
<path style="--d:7s;" pathLength="3333" clip-path="url(#z27818c7)" d="M434 316L483 373L452 652L373 801L281 874"/>
</svg>