<!--
AnimCJK 2016-2018 Copyright Francois Mizessyn, https://github.com/parsimonhi/animCJK
Derived from:
    MakeMeAHanzi project - https://github.com/skishore/makemeahanzi
    Arphic PL KaitiM GB - https://apps.ubuntu.com/cat/applications/precise/fonts-arphic-gkai00mp/
    Arphic PL UKai - https://apps.ubuntu.com/cat/applications/fonts-arphic-ukai/
You can redistribute and/or modify this file under the terms of the Arphic Public License
as published by Arphic Technology Co., Ltd.
You should have received a copy of this license (the directory "APL") along with this file;
if not, see http://ftp.gnu.org/non-gnu/chinese-fonts-truetype/LICENSE.
-->
<svg id="z27832" class="acjk" version="1.1" viewBox="0 0 1024 1024" xmlns="http://www.w3.org/2000/svg" xmlns:xlink="http://www.w3.org/1999/xlink">
<style>
<![CDATA[
@keyframes z27832k {
	from {
		stroke:#c00;
		stroke-dashoffset:3334;
	}
	75% {
		stroke:#c00;
		stroke-dashoffset:0;
	}
	to {
		stroke:#000;
	}
}
#z27832 path[clip-path] {
	animation:z27832k 1s linear both;
	stroke-dasharray:3334;
	stroke-width:128;
	stroke-linecap:round;
	fill:none;
}
#z27832 path[clip-path="url(#z27832c1)"] {animation-delay:1s;}
#z27832 path[clip-path="url(#z27832c2)"] {animation-delay:2s;}
#z27832 path[clip-path="url(#z27832c3)"] {animation-delay:3s;}
#z27832 path[clip-path="url(#z27832c4)"] {animation-delay:4s;}
#z27832 path[clip-path="url(#z27832c5)"] {animation-delay:5s;}
#z27832 path[clip-path="url(#z27832c6)"] {animation-delay:6s;}
#z27832 path[clip-path="url(#z27832c7)"] {animation-delay:7s;}
#z27832 path[clip-path="url(#z27832c8)"] {animation-delay:8s;}
#z27832 path {fill:#ccc;}
]]>
</style>
<path id="z27832d1" d="M237 185Q259 207 281 232Q296 247 314 247Q326 246 332 231Q338 215 329 180Q320 150 233 130Q215 126 208 129Q202 133 204 148Q208 161 237 185 Z"/>
<path id="z27832d2" d="M135 382Q181 428 216 441Q234 444 242 428Q248 413 244 394Q225 349 146 338Q127 334 117 339Q110 340 114 354Q117 367 135 382 Z"/>
<path id="z27832d3" d="M138 710Q126 714 130 731Q151 803 183 817Q190 824 200 820Q207 819 206 794Q209 755 291 487Q297 471 295 465Q294 456 286 463Q277 467 175 664Q165 686 138 710 Z"/>
<path id="z27832d4" d="M776 310Q791 274 815 257Q834 235 807 218Q782 199 756 185Q740 175 718 184Q693 194 656 204L607 213Q564 220 519 233L466 246Q417 256 382 260Q369 260 367 268Q366 275 387 286Q406 299 436 289Q451 285 468 280L518 267Q539 258 606 250L655 241Q680 237 710 233Q723 232 728 237Q734 249 718 315L776 310 Z"/>
<path id="z27832d5" d="M653 365Q716 355 793 345Q803 344 804 335Q805 328 776 310L718 315Q684 322 654 331L605 343Q560 353 520 362L470 372Q430 378 393 385L413 415Q438 408 470 401L521 390Q558 381 604 374L653 365 Z"/>
<path id="z27832d6" d="M652 505Q772 484 799 490Q812 490 819 501Q828 516 794 625Q790 643 771 640Q740 634 700 626Q673 620 694 643Q755 691 769 717Q776 730 789 727Q802 726 816 713Q841 683 859 618Q871 552 900 523Q916 504 905 491Q880 466 844 446Q829 436 752 456Q686 465 652 473L601 481Q552 488 516 496L464 507Q445 510 430 515Q402 522 387 520Q380 519 382 505Q395 444 407 428Q411 421 413 415L393 385Q381 375 367 368Q357 361 346 367Q339 371 346 390Q356 415 346 450Q328 505 312 526Q302 542 311 558Q320 583 332 590Q342 596 365 579Q393 557 460 539L513 527Q547 520 601 512L652 505 Z"/>
<path id="z27832d7" d="M519 233Q520 199 530 162Q534 150 525 143Q506 128 470 117Q448 110 432 116Q413 126 430 141Q460 168 463 198Q464 222 466 246L468 280Q469 328 470 372L470 401Q469 456 464 507L460 539Q442 681 351 782Q306 821 305 826Q301 833 317 831Q351 831 428 755Q497 686 513 527L516 496Q520 442 521 390L520 362Q520 316 519 269Q518 268 518 267L519 233 Z"/>
<path id="z27832d8" d="M596 927Q602 955 609 965Q615 972 623 970Q639 961 646 896Q659 784 655 674Q652 625 652 505L652 473Q652 424 653 365L654 331Q654 288 655 241L656 204Q656 170 671 94Q675 75 659 65Q625 41 607 38Q594 34 576 43Q566 52 575 63Q603 127 606 151Q606 181 607 213L606 250Q605 293 605 343L604 374Q603 423 601 481L601 512Q583 795 596 927 Z"/>
<defs>
	<clipPath id="z27832c1"><use xlink:href="#z27832d1"/></clipPath>
	<clipPath id="z27832c2"><use xlink:href="#z27832d2"/></clipPath>
	<clipPath id="z27832c3"><use xlink:href="#z27832d3"/></clipPath>
	<clipPath id="z27832c4"><use xlink:href="#z27832d4"/></clipPath>
	<clipPath id="z27832c5"><use xlink:href="#z27832d5"/></clipPath>
	<clipPath id="z27832c6"><use xlink:href="#z27832d6"/></clipPath>
	<clipPath id="z27832c7"><use xlink:href="#z27832d7"/></clipPath>
	<clipPath id="z27832c8"><use xlink:href="#z27832d8"/></clipPath>
</defs>
<path pathLength="3333" clip-path="url(#z27832c1)" d="M211 139L326 236"/>
<path pathLength="3333" clip-path="url(#z27832c2)" d="M117 344L238 429"/>
<path pathLength="3333" clip-path="url(#z27832c3)" d="M197 813L174 725L290 470"/>
<path pathLength="3333" clip-path="url(#z27832c4)" d="M371 267L427 272L731 207L776 246L732 313"/>
<path pathLength="3333" clip-path="url(#z27832c5)" d="M402 387L800 332"/>
<path pathLength="3333" clip-path="url(#z27832c6)" d="M350 373L381 418L346 525L359 554L581 499L836 475L865 507L807 667L780 683L692 630"/>
<path pathLength="3333" clip-path="url(#z27832c7)" d="M426 127L495 168L484 551L432 711L315 827"/>
<path pathLength="3333" clip-path="url(#z27832c8)" d="M577 48L634 102L618 966"/>
</svg>