<!--
AnimCJK 2016-2017 Copyright Francois Mizessyn, http://gooo.free.fr/animCJK/
Derived from:
    MakeMeAHanzi project - https://github.com/skishore/makemeahanzi
    Arphic PL KaitiM GB - https://apps.ubuntu.com/cat/applications/precise/fonts-arphic-gkai00mp/
    Arphic PL UKai - https://apps.ubuntu.com/cat/applications/fonts-arphic-ukai/
You can redistribute and/or modify this file under the terms of the Arphic Public License
as published by Arphic Technology Co., Ltd.
You should have received a copy of this license (the directory "APL") along with this file;
if not, see http://ftp.gnu.org/non-gnu/chinese-fonts-truetype/LICENSE.
-->
<svg id="z27839" class="acjk" version="1.1" viewBox="0 0 1024 1024" xmlns="http://www.w3.org/2000/svg" xmlns:xlink="http://www.w3.org/1999/xlink">
<style>
<![CDATA[
	@keyframes z27839k {
		from {
			stroke:#c00;
			stroke-dashoffset:3000;
		}
		75% {
			stroke:#c00;
			stroke-dashoffset:0;
		}
		to {
			stroke:#000;
		}
	}
	#z27839 path[clip-path] {
		animation:z27839k 1s linear both;
		stroke-dasharray:3000;
		stroke-width:128;
		stroke-linecap:round;
		fill:none;
	}
	#z27839 path[clip-path="url(#z27839c1)"] {animation-delay:1s;}
	#z27839 path[clip-path="url(#z27839c2)"] {animation-delay:2s;}
	#z27839 path[clip-path="url(#z27839c3)"] {animation-delay:3s;}
	#z27839 path[clip-path="url(#z27839c4)"] {animation-delay:4s;}
	#z27839 path[clip-path="url(#z27839c5)"] {animation-delay:5s;}
	#z27839 path[clip-path="url(#z27839c6)"] {animation-delay:6s;}
	#z27839 path[clip-path="url(#z27839c7)"] {animation-delay:7s;}
	#z27839 path[clip-path="url(#z27839c8)"] {animation-delay:8s;}
	#z27839 path {fill:#ccc;}
]]>
</style>
<g transform="scale(1,-1) translate(0,-900)">
	<path id="z27839d1" d="M262 693Q288 671 318 645Q334 630 353 632Q366 633 371 648Q375 666 365 699Q352 730 255 747Q236 751 228 747Q222 743 225 728Q229 715 262 693Z"/>
	<path id="z27839d2" d="M159 489Q209 435 245 424Q262 421 272 436Q280 451 276 470Q260 513 196 528Q154 538 141 533Q134 532 138 518Q139 505 159 489Z"/>
	<path id="z27839d3" d="M140 137Q126 134 128 115Q149 33 183 15Q190 8 202 10Q210 10 212 38Q218 84 336 368Q344 386 343 392Q343 402 332 396Q316 384 186 184Q171 161 140 137Z"/>
	<path id="z27839d4" d="M426 369C420 368 425 378 428 383C449 411 465 443 481 474C491 495 502 519 505 542C507 550 504 558 502 566C501 574 508 582 516 579C535 577 552 564 563 549C570 542 571 529 564 522C549 507 542 487 530 471C507 438 478 407 447 382C440 377 434 373 426 369Z"/>
	<path id="z27839d5" d="M853 426C819 427 785 426 751 428C732 432 717 449 705 464C674 502 653 548 633 592C615 632 600 675 568 704C564 710 556 712 554 718C552 726 559 734 567 733C590 734 615 720 625 697C654 644 682 589 721 543C756 503 803 474 850 453C861 448 874 445 882 436C885 429 874 429 868 427C864 427 857 427 853 426Z"/>
	<path id="z27839d6" d="M487 265Q475 272 435 282Q422 286 417 281Q410 274 419 256Q449 186 462 71Q463 37 483 13Q502 -12 508 5Q512 15 513 31L512 64Q512 71 511 80Q498 189 494 229L487 265Z"/>
	<path id="z27839d7" d="M766 84Q796 198 838 227Q857 248 841 268Q823 284 765 313Q744 323 720 313Q635 285 487 265L494 229Q716 262 724 258Q727 257 730 254Q751 230 711 93L766 84Z"/>
	<path id="z27839d8" d="M513 31Q514 31 517 30Q527 26 542 29Q617 42 777 48Q789 49 791 58Q791 65 766 84L711 93L710 93Q599 71 512 64L513 31Z"/>
	<defs>
		<clipPath id="z27839c1"><use xlink:href="#z27839d1"/></clipPath>
		<clipPath id="z27839c2"><use xlink:href="#z27839d2"/></clipPath>
		<clipPath id="z27839c3"><use xlink:href="#z27839d3"/></clipPath>
		<clipPath id="z27839c4"><use xlink:href="#z27839d4"/></clipPath>
		<clipPath id="z27839c5"><use xlink:href="#z27839d5"/></clipPath>
		<clipPath id="z27839c6"><use xlink:href="#z27839d6"/></clipPath>
		<clipPath id="z27839c7"><use xlink:href="#z27839d7"/></clipPath>
		<clipPath id="z27839c8"><use xlink:href="#z27839d8"/></clipPath>
	</defs>
	<path pathLength="2999" clip-path="url(#z27839c1)" d="M230 742L333 682L355 636"/>
	<path pathLength="2999" clip-path="url(#z27839c2)" d="M143 526L270 438"/>
	<path pathLength="2999" clip-path="url(#z27839c3)" d="M199 14L180 113L336 391"/>
	<path pathLength="2999" clip-path="url(#z27839c4)" d="M511 572L535 530L430 376"/>
	<path pathLength="2999" clip-path="url(#z27839c5)" d="M560 722L600 699L741 475L875 435"/>
	<path pathLength="2999" clip-path="url(#z27839c6)" d="M423 271L463 226L497 4"/>
	<path pathLength="2999" clip-path="url(#z27839c7)" d="M493 263L756 279L794 240L737 90"/>
	<path pathLength="2999" clip-path="url(#z27839c8)" d="M517 38L712 69L784 55"/>
</g>
</svg>