<!--
AnimCJK 2016-2017 Copyright Francois Mizessyn, http://gooo.free.fr/animCJK/
Derived from:
    MakeMeAHanzi project - https://github.com/skishore/makemeahanzi
    Arphic PL KaitiM GB - https://apps.ubuntu.com/cat/applications/precise/fonts-arphic-gkai00mp/
    Arphic PL UKai - https://apps.ubuntu.com/cat/applications/fonts-arphic-ukai/
You can redistribute and/or modify this file under the terms of the Arphic Public License
as published by Arphic Technology Co., Ltd.
You should have received a copy of this license (the directory "APL") along with this file;
if not, see http://ftp.gnu.org/non-gnu/chinese-fonts-truetype/LICENSE.
-->
<svg id="z27852" class="acjk" version="1.1" viewBox="0 0 1024 1024" xmlns="http://www.w3.org/2000/svg" xmlns:xlink="http://www.w3.org/1999/xlink">
<style>
<![CDATA[
	@keyframes z27852k {
		from {
			stroke:#c00;
			stroke-dashoffset:3000;
		}
		75% {
			stroke:#c00;
			stroke-dashoffset:0;
		}
		to {
			stroke:#000;
		}
	}
	#z27852 path[clip-path] {
		animation:z27852k 1s linear both;
		stroke-dasharray:3000;
		stroke-width:128;
		stroke-linecap:round;
		fill:none;
	}
	#z27852 path[clip-path="url(#z27852c1)"] {animation-delay:1s;}
	#z27852 path[clip-path="url(#z27852c2)"] {animation-delay:2s;}
	#z27852 path[clip-path="url(#z27852c3)"] {animation-delay:3s;}
	#z27852 path[clip-path="url(#z27852c4)"] {animation-delay:4s;}
	#z27852 path[clip-path="url(#z27852c5)"] {animation-delay:5s;}
	#z27852 path[clip-path="url(#z27852c6)"] {animation-delay:6s;}
	#z27852 path[clip-path="url(#z27852c7)"] {animation-delay:7s;}
	#z27852 path[clip-path="url(#z27852c8)"] {animation-delay:8s;}
	#z27852 path {fill:#ccc;}
]]>
</style>
<g transform="scale(1,-1) translate(0,-900)">
	<path id="z27852d1" d="M248 718Q276 690 305 655Q318 640 335 640Q345 639 353 653Q359 668 352 700Q348 722 316 741Q238 777 224 771Q218 767 219 754Q222 742 248 718Z"/>
	<path id="z27852d2" d="M139 516Q187 462 222 446Q238 443 247 457Q253 470 250 487Q235 532 152 555Q136 559 125 556Q119 555 122 542Q123 530 139 516Z"/>
	<path id="z27852d3" d="M132 150Q120 146 124 129Q145 57 179 43Q186 37 196 41Q203 42 202 67Q202 116 272 353Q276 369 275 375Q274 384 266 377Q254 370 165 191Q155 172 132 150Z"/>
	<path id="z27852d4" d="M481 583Q523 516 550 500Q563 494 575 505Q582 517 584 533Q578 584 500 617L499 618Q484 625 474 623Q468 623 469 611Q468 599 481 583Z"/>
	<path id="z27852d5" d="M512 194Q448 125 328 60Q315 54 310 50Q306 44 322 41Q335 40 391 58Q431 71 493 112Q521 131 547 156L583 200Q673 327 710 538Q729 643 753 689Q760 701 752 710Q734 731 698 751Q676 764 658 761Q636 755 650 734Q675 700 672 666Q653 503 617 398Q580 272 542 235L512 194Z"/>
	<path id="z27852d6" d="M547 156Q742 32 887 105Q903 109 902 120Q899 133 882 151Q855 179 785 272Q779 281 773 282Q770 281 771 273Q777 231 782 184Q783 165 771 156Q747 143 642 175Q608 187 583 200L542 235Q511 274 493 357Q489 384 468 396Q452 406 445 399Q444 399 470 299Q485 233 512 194L547 156Z"/>
	<path id="z27852d7" d="M353 397Q334 331 304 271Q286 241 308 207Q317 191 336 205Q355 223 366 254Q384 303 383 344Q384 375 375 399Q369 406 364 407Q357 406 353 397Z"/>
	<path id="z27852d8" d="M763 470Q823 424 895 355Q913 336 929 333Q938 332 945 343Q957 356 940 401Q921 459 762 501Q752 505 751 493Q752 480 763 470Z"/>
	<defs>
		<clipPath id="z27852c1"><use xlink:href="#z27852d1"/></clipPath>
		<clipPath id="z27852c2"><use xlink:href="#z27852d2"/></clipPath>
		<clipPath id="z27852c3"><use xlink:href="#z27852d3"/></clipPath>
		<clipPath id="z27852c4"><use xlink:href="#z27852d4"/></clipPath>
		<clipPath id="z27852c5"><use xlink:href="#z27852d5"/></clipPath>
		<clipPath id="z27852c6"><use xlink:href="#z27852d6"/></clipPath>
		<clipPath id="z27852c7"><use xlink:href="#z27852d7"/></clipPath>
		<clipPath id="z27852c8"><use xlink:href="#z27852d8"/></clipPath>
	</defs>
	<path pathLength="2999" clip-path="url(#z27852c1)" d="M227 765L314 699L342 647"/>
	<path pathLength="2999" clip-path="url(#z27852c2)" d="M128 549L241 457"/>
	<path pathLength="2999" clip-path="url(#z27852c3)" d="M192 46L166 128L270 371"/>
	<path pathLength="2999" clip-path="url(#z27852c4)" d="M478 619L566 503"/>
	<path pathLength="2999" clip-path="url(#z27852c5)" d="M652 751L714 691L654 421L598 273L494 143L319 48"/>
	<path pathLength="2999" clip-path="url(#z27852c6)" d="M453 395L523 220L631 145L745 116L836 134L851 150L778 271"/>
	<path pathLength="2999" clip-path="url(#z27852c7)" d="M363 398L316 205"/>
	<path pathLength="2999" clip-path="url(#z27852c8)" d="M759 492L891 409L936 340"/>
</g>
</svg>