<!--
AnimCJK 2016-2022 Copyright FM&SH - https://github.com/parsimonhi/animCJK
Derived from:
    MakeMeAHanzi project - https://github.com/skishore/makemeahanzi
    Arphic PL KaitiM GB font
    Arphic PL UKai font
You can redistribute and/or modify this file under the terms of the Arphic Public License
as published by Arphic Technology Co., Ltd.
You should have received a copy of this license along with this file.
If not, see http://ftp.gnu.org/non-gnu/chinese-fonts-truetype/LICENSE.
-->
<svg id="z27960" class="acjk" version="1.1" viewBox="0 0 1024 1024" xmlns="http://www.w3.org/2000/svg" xmlns:xlink="http://www.w3.org/1999/xlink">
<style>
<![CDATA[
@keyframes zk {
	to {
		stroke-dashoffset:0;
	}
}
svg.acjk path[clip-path] {
	--t:0.8s;
	animation:zk var(--t) linear forwards var(--d);
	stroke-dasharray:3337;
	stroke-dashoffset:3339;
	stroke-width:128;
	stroke-linecap:round;
	fill:none;
	stroke:#000;
}
svg.acjk path[id] {fill:#ccc;}
]]>
</style>
<path id="z27960d1" d="M204 244C220 257 237 274 257 292C265 300 277 305 289 305C297 304 302 299 306 290C309 279 309 262 301 241C293 220 257 204 198 191C186 188 179 188 174 191C169 193 167 199 170 209C171 217 183 228 204 244Z"/>
<path id="z27960d2" d="M119 434C145 466 168 491 194 500C203 503 213 498 219 489C223 480 225 469 223 459C216 429 183 409 132 395C120 392 112 392 105 394C101 394 99 398 101 408C102 415 108 422 119 434Z"/>
<path id="z27960d3" d="M128 762C120 766 116 771 118 784C126 835 143 865 169 880C174 882 179 886 187 885C191 884 193 874 195 857C198 824 206 754 271 587C275 576 277 567 277 564C276 556 273 556 267 561C260 565 245 598 168 721C159 734 147 749 128 762Z"/>
<path id="z27960d4" d="M585 450C597 288 609 160 620 127C622 119 617 108 604 100C579 85 558 79 544 76C532 73 525 75 520 81C515 85 513 93 520 104C532 123 540 139 541 154C545 237 546 360 542 460C542 475 585 465 585 450Z"/>
<path id="z27960d5" d="M388 324C403 350 417 375 441 389C449 394 461 391 469 383C475 374 478 363 477 352C475 333 470 317 458 309C423 282 396 276 381 280C376 281 374 284 374 294C374 302 380 309 388 324Z"/>
<path id="z27960d6" d="M712 233C703 251 680 290 641 346C633 357 638 364 649 359C671 346 712 312 759 277C773 266 787 256 803 247C817 239 820 228 812 217C803 204 786 196 768 187C749 178 737 174 729 177C720 178 719 183 722 194C725 205 718 217 712 233Z"/>
<path id="z27960d7" d="M615 486C661 478 717 475 782 472C820 470 840 465 843 460C846 452 840 443 831 436C794 409 754 407 708 421C673 431 632 439 585 450C556 457 556 457 542 460C476 475 405 485 329 500C315 502 313 507 325 519C333 526 343 532 357 535C368 537 381 537 392 534C456 513 516 502 572 493C601 488 601 488 615 486Z"/>
<path id="z27960d8" d="M453 552C463 587 439 660 375 748C356 772 321 810 275 855C271 858 270 863 277 862C344 847 439 730 508 626C531 590 550 585 522 558C504 540 481 534 459 538C454 538 450 543 453 552Z"/>
<path id="z27960d9" d="M974 815C962 785 951 745 945 695C943 683 940 676 936 674C929 670 926 676 924 689C913 751 903 787 894 798C882 810 844 825 802 829C764 834 704 836 666 814C639 799 629 752 632 680C634 623 643 582 654 556C662 535 659 519 648 509C634 498 624 491 615 486C603 479 567 480 572 493C587 519 587 553 589 590C592 662 563 786 621 841C648 867 708 882 819 885C868 886 934 872 954 863C974 853 982 835 974 815Z"/>
<defs>
	<clipPath id="z27960c1"><use xlink:href="#z27960d1"/></clipPath>
	<clipPath id="z27960c2"><use xlink:href="#z27960d2"/></clipPath>
	<clipPath id="z27960c3"><use xlink:href="#z27960d3"/></clipPath>
	<clipPath id="z27960c4"><use xlink:href="#z27960d4"/></clipPath>
	<clipPath id="z27960c5"><use xlink:href="#z27960d5"/></clipPath>
	<clipPath id="z27960c6"><use xlink:href="#z27960d6"/></clipPath>
	<clipPath id="z27960c7"><use xlink:href="#z27960d7"/></clipPath>
	<clipPath id="z27960c8"><use xlink:href="#z27960d8"/></clipPath>
	<clipPath id="z27960c9"><use xlink:href="#z27960d9"/></clipPath>
</defs>
<path style="--d:1s;" pathLength="3333" clip-path="url(#z27960c1)" d="M172 197L255 243L297 297"/>
<path style="--d:2s;" pathLength="3333" clip-path="url(#z27960c2)" d="M107 399L217 484"/>
<path style="--d:3s;" pathLength="3333" clip-path="url(#z27960c3)" d="M123 773L183 826L271 565"/>
<path style="--d:4s;" pathLength="3333" clip-path="url(#z27960c4)" d="M523 87L580 136L561 464"/>
<path style="--d:5s;" pathLength="3333" clip-path="url(#z27960c5)" d="M381 286L464 381"/>
<path style="--d:6s;" pathLength="3333" clip-path="url(#z27960c6)" d="M728 184L758 213L758 248L644 353"/>
<path style="--d:7s;" pathLength="3333" clip-path="url(#z27960c7)" d="M329 510L730 445L839 450"/>
<path style="--d:8s;" pathLength="3333" clip-path="url(#z27960c8)" d="M461 546L494 588L457 658L377 771L283 856"/>
<path style="--d:9s;" pathLength="3333" clip-path="url(#z27960c9)" d="M581 492L621 532L611 761L657 837L810 857L923 830L932 679"/>
</svg>