<!--
AnimCJK 2016-2026 Copyright FM-SH - https://github.com/parsimonhi/animCJK
Derived from:
    MakeMeAHanzi project - https://github.com/skishore/makemeahanzi
    Arphic PL KaitiM GB font
    Arphic PL KaitiM Big5 font
You can redistribute and/or modify this file under the terms of the Arphic Public License
as published by Arphic Technology Co., Ltd.
You should have received a copy of this license along with this file.
If not, see https://ftp.gnu.org/non-gnu/chinese-fonts-truetype/LICENSE.
-->
<svg id="z28004" class="acjk" viewBox="0 0 1024 1024" xmlns="http://www.w3.org/2000/svg">
<style>
<![CDATA[
@keyframes zk {
	to {
		stroke-dashoffset:0;
	}
}
svg.acjk path[clip-path] {
	--t:0.8s;
	animation:zk var(--t) linear forwards var(--d);
	stroke-dasharray:3337;
	stroke-dashoffset:3339;
	stroke-width:128;
	stroke-linecap:round;
	fill:none;
	stroke:#000;
}
svg.acjk path[id] {fill:#ccc;}
]]>
</style>
<path id="z28004d1" d="M245 183C265 198 285 216 309 236C318 244 331 248 343 248C351 247 357 242 360 232C362 220 360 202 353 181C348 165 333 153 310 146C253 128 221 123 212 129C207 131 206 137 209 148C211 155 223 167 245 183Z"/>
<path id="z28004d2" d="M149 397C187 435 214 462 241 471C250 474 261 469 267 459C271 450 272 438 269 428C264 410 255 397 243 389C199 360 164 349 136 354C134 354 133 354 133 355C128 356 128 359 130 370C131 377 138 386 149 397Z"/>
<path id="z28004d3" d="M139 752C131 756 126 761 129 775C140 828 158 867 182 881C186 884 192 886 200 885C205 883 207 874 209 856C212 821 251 709 325 522C329 511 331 502 331 498C330 490 327 490 321 495C311 501 262 576 184 704C174 719 161 737 139 752Z"/>
<path id="z28004d4" d="M596 162C611 176 625 194 642 213C652 224 679 240 689 213C693 203 692 186 686 164C683 151 673 137 653 129C607 108 578 101 569 106C566 107 563 115 565 125C566 133 578 144 596 162Z"/>
<path id="z28004d5" d="M439 295C439 282 432 270 418 258C407 249 400 251 399 268C398 288 391 314 367 339C340 365 331 395 349 437C356 454 368 454 381 438C392 423 401 405 409 383C419 357 427 337 434 322C437 304 437 304 439 295Z"/>
<path id="z28004d6" d="M434 322C448 331 467 334 490 328C570 304 650 286 772 273C786 271 848 260 843 288C838 311 830 327 819 353C806 382 815 382 835 367C867 342 897 328 921 318C956 303 954 298 932 275C920 264 907 254 891 242C842 203 880 229 439 295C430 297 427 317 434 322Z"/>
<path id="z28004d7" d="M596 503C642 493 715 479 816 468C826 466 850 454 814 435C791 422 758 423 712 436C663 448 631 458 614 461C576 468 576 468 557 471C524 476 478 481 419 490C401 492 400 498 414 510C433 527 451 534 471 529C491 523 514 519 541 514C578 507 578 507 596 503Z"/>
<path id="z28004d8" d="M541 514C498 628 384 765 274 840C235 867 263 865 276 860C446 789 539 636 596 503C608 475 608 475 614 461C635 412 655 412 644 389C641 382 629 373 610 361C583 342 568 349 569 369C572 401 570 437 557 471C546 500 546 500 541 514Z"/>
<path id="z28004d9" d="M778 779C720 785 659 794 595 809C584 811 574 811 587 795C658 699 701 643 718 629C725 621 728 615 724 606C721 596 703 584 673 567C646 551 634 566 640 589C650 629 620 695 546 779C533 793 515 803 495 818C486 824 483 834 485 842C488 853 498 865 513 881C521 888 527 887 536 882C613 834 709 827 795 802C804 800 787 777 778 779Z"/>
<path id="z28004d10" d="M795 802C835 859 855 891 862 893C892 899 888 847 887 832C884 797 837 752 744 696C738 692 735 693 733 702C730 710 733 719 739 726C752 742 765 760 778 779C789 794 789 794 795 802Z"/>
<defs>
	<clipPath id="z28004c1"><use href="#z28004d1"/></clipPath>
	<clipPath id="z28004c2"><use href="#z28004d2"/></clipPath>
	<clipPath id="z28004c3"><use href="#z28004d3"/></clipPath>
	<clipPath id="z28004c4"><use href="#z28004d4"/></clipPath>
	<clipPath id="z28004c5"><use href="#z28004d5"/></clipPath>
	<clipPath id="z28004c6"><use href="#z28004d6"/></clipPath>
	<clipPath id="z28004c7"><use href="#z28004d7"/></clipPath>
	<clipPath id="z28004c8"><use href="#z28004d8"/></clipPath>
	<clipPath id="z28004c9"><use href="#z28004d9"/></clipPath>
	<clipPath id="z28004c10"><use href="#z28004d10"/></clipPath>
</defs>
<path style="--d:1s;" pathLength="3333" clip-path="url(#z28004c1)" d="M212 137L319 193L344 244"/>
<path style="--d:2s;" pathLength="3333" clip-path="url(#z28004c2)" d="M136 362L261 462"/>
<path style="--d:3s;" pathLength="3333" clip-path="url(#z28004c3)" d="M133 764L190 831L325 498"/>
<path style="--d:4s;" pathLength="3333" clip-path="url(#z28004c4)" d="M573 114L646 164L679 222"/>
<path style="--d:5s;" pathLength="3333" clip-path="url(#z28004c5)" d="M407 261L414 308L365 445"/>
<path style="--d:6s;" pathLength="3333" clip-path="url(#z28004c6)" d="M433 312L844 248L894 302L819 369"/>
<path style="--d:7s;" pathLength="3333" clip-path="url(#z28004c7)" d="M411 499L825 452"/>
<path style="--d:8s;" pathLength="3333" clip-path="url(#z28004c8)" d="M578 354L608 407L504 632L404 755L264 859"/>
<path style="--d:9s;" pathLength="3333" clip-path="url(#z28004c9)" d="M649 565L682 620L534 816L540 837L793 793"/>
<path style="--d:10s;" pathLength="3333" clip-path="url(#z28004c10)" d="M738 702L845 816L870 889"/>
</svg>