<!--
AnimCJK 2016-2018 Copyright Francois Mizessyn, http://gooo.free.fr/animCJK/
Derived from:
    MakeMeAHanzi project - https://github.com/skishore/makemeahanzi
    Arphic PL KaitiM GB - https://apps.ubuntu.com/cat/applications/precise/fonts-arphic-gkai00mp/
    Arphic PL UKai - https://apps.ubuntu.com/cat/applications/fonts-arphic-ukai/
You can redistribute and/or modify this file under the terms of the Arphic Public License
as published by Arphic Technology Co., Ltd.
You should have received a copy of this license (the directory "APL") along with this file;
if not, see http://ftp.gnu.org/non-gnu/chinese-fonts-truetype/LICENSE.
-->
<svg id="z28010" class="acjk" version="1.1" viewBox="0 0 1024 1024" xmlns="http://www.w3.org/2000/svg" xmlns:xlink="http://www.w3.org/1999/xlink">
<style>
<![CDATA[
@keyframes z28010k {
	from {
		stroke:#ccc;
		stroke-dashoffset:3334;
	}
	1% {
		stroke:#c00;
		stroke-dashoffset:3334;
	}
	75% {
		stroke:#c00;
		stroke-dashoffset:0;
	}
	to {
		stroke:#000;
	}
}
#z28010 path[clip-path] {
	animation:z28010k 1s linear both;
	stroke-dasharray:3334;
	stroke-width:128;
	stroke-linecap:round;
	fill:none;
}
#z28010 path[clip-path="url(#z28010c1)"] {animation-delay:1s;}
#z28010 path[clip-path="url(#z28010c2)"] {animation-delay:2s;}
#z28010 path[clip-path="url(#z28010c3)"] {animation-delay:3s;}
#z28010 path[clip-path="url(#z28010c4)"] {animation-delay:4s;}
#z28010 path[clip-path="url(#z28010c5)"] {animation-delay:5s;}
#z28010 path[clip-path="url(#z28010c6)"] {animation-delay:6s;}
#z28010 path[clip-path="url(#z28010c7)"] {animation-delay:7s;}
#z28010 path[clip-path="url(#z28010c8)"] {animation-delay:8s;}
#z28010 path[clip-path="url(#z28010c9)"] {animation-delay:9s;}
#z28010 path[clip-path="url(#z28010c10)"] {animation-delay:10s;}
#z28010 path {fill:#ccc;}
]]>
</style>
<path id="z28010d1" d="M 220,168 C 240,183 260,202 281,222 291,232 303,236 315,236 323,235 328,229 332,219 335,208 333,191 326,169 321,154 308,139 285,132 229,113 195,108 188,113 183,115 181,122 184,132 185,140 199,151 220,168 Z"/>
<path id="z28010d2" d="M 135,404 C 168,439 194,465 218,474 228,477 237,472 243,463 247,454 249,444 246,433 237,402 203,380 148,365 137,362 128,362 121,364 117,364 116,369 118,378 119,385 125,393 135,404 Z"/>
<path id="z28010d3" d="M 150,742 C 142,746 137,751 139,763 146,813 164,845 188,861 193,864 198,867 206,866 210,865 212,855 215,838 218,811 256,708 329,529 333,518 335,510 335,506 334,499 331,498 325,503 316,509 271,574 192,699 182,713 170,730 150,742 Z"/>
<path id="z28010d4" d="M 549,85 C 569,98 589,114 610,131 620,139 631,141 642,140 648,139 654,134 657,124 659,113 655,98 647,78 641,65 629,52 607,47 553,32 522,31 516,37 513,39 511,45 514,55 515,61 528,71 549,85 Z"/>
<path id="z28010d5" d="M 637,473 C 637,475 638,477 640,480 644,490 651,496 660,495 668,493 675,486 682,476 692,459 704,409 722,327 730,289 749,261 773,239 785,227 786,216 775,206 762,194 738,177 702,163 680,154 662,162 621,173 579,184 520,202 463,219 L 482,251 C 514,238 570,223 642,208 654,205 663,204 669,207 677,211 680,228 676,256 660,360 648,422 640,443 639,443 639,443 639,444 Z"/>
<path id="z28010d6" d="M 480,372 C 484,372 489,371 494,371 538,362 575,355 608,349 622,346 627,340 622,332 614,322 601,316 584,315 560,313 527,323 480,346 Z"/>
<path id="z28010d7" d="M 512,491 C 538,484 580,478 637,473 L 639,444 C 636,442 633,439 630,438 620,433 606,434 589,439 549,450 512,459 480,467 L 479,499 Z"/>
<path id="z28010d8" d="M 463,219 C 450,209 438,200 426,196 413,190 403,190 396,195 387,199 388,207 394,219 436,301 441,478 417,751 413,787 401,824 373,863 364,874 363,889 370,906 378,926 386,941 397,948 407,955 417,950 425,937 436,914 492,855 596,761 608,749 617,741 620,735 623,727 620,723 613,724 609,724 564,747 480,798 473,801 468,801 469,795 473,688 476,587 479,499 L 480,467 C 481,434 480,402 480,372 L 480,346 C 480,331 477,272 482,251 Z"/>
<path id="z28010d9" d="M 661,626 C 693,609 737,583 793,547 807,537 822,529 839,524 853,519 859,509 852,497 844,483 830,473 814,462 799,451 787,447 778,448 769,448 767,452 768,462 769,480 743,515 693,566 678,580 662,595 645,613 Z"/>
<path id="z28010d10" d="M 645,613 C 604,579 560,538 512,491 L 479,499 C 497,517 510,530 525,547 611,646 689,726 758,795 770,807 786,814 805,812 873,804 920,795 946,790 957,787 965,784 969,778 971,773 969,768 962,767 847,738 759,701 697,654 685,645 673,635 661,626 Z"/>
<defs>
	<clipPath id="z28010c1"><use xlink:href="#z28010d1"/></clipPath>
	<clipPath id="z28010c2"><use xlink:href="#z28010d2"/></clipPath>
	<clipPath id="z28010c3"><use xlink:href="#z28010d3"/></clipPath>
	<clipPath id="z28010c4"><use xlink:href="#z28010d4"/></clipPath>
	<clipPath id="z28010c5"><use xlink:href="#z28010d5"/></clipPath>
	<clipPath id="z28010c6"><use xlink:href="#z28010d6"/></clipPath>
	<clipPath id="z28010c7"><use xlink:href="#z28010d7"/></clipPath>
	<clipPath id="z28010c8"><use xlink:href="#z28010d8"/></clipPath>
	<clipPath id="z28010c9"><use xlink:href="#z28010d9"/></clipPath>
	<clipPath id="z28010c10"><use xlink:href="#z28010d10"/></clipPath>
</defs>
<path pathLength="3333" clip-path="url(#z28010c1)" d="M191 118L278 169L326 226"/>
<path pathLength="3333" clip-path="url(#z28010c2)" d="M124 370L237 464"/>
<path pathLength="3333" clip-path="url(#z28010c3)" d="M203 860L186 767L330 508"/>
<path pathLength="3333" clip-path="url(#z28010c4)" d="M520 44L607 84L646 135"/>
<path pathLength="3333" clip-path="url(#z28010c5)" d="M470 221L679 184L728 223L656 488"/>
<path pathLength="3333" clip-path="url(#z28010c6)" d="M481 365L619 336"/>
<path pathLength="3333" clip-path="url(#z28010c7)" d="M487 492L636 461"/>
<path pathLength="3333" clip-path="url(#z28010c8)" d="M396 202L450 264L453 606L411 877L436 898L612 732"/>
<path pathLength="3333" clip-path="url(#z28010c9)" d="M774 455L798 513L652 616"/>
<path pathLength="3333" clip-path="url(#z28010c10)" d="M490 503L789 760L962 777"/>
</svg>