<!--
AnimCJK 2016-2025 Copyright FM-SH - https://github.com/parsimonhi/animCJK
Derived from:
    MakeMeAHanzi project - https://github.com/skishore/makemeahanzi
    Arphic PL KaitiM GB font
    Arphic PL UKai font
You can redistribute and/or modify this file under the terms of the Arphic Public License
as published by Arphic Technology Co., Ltd.
You should have received a copy of this license along with this file.
If not, see https://ftp.gnu.org/non-gnu/chinese-fonts-truetype/LICENSE.
-->
<svg id="z28060" class="acjk" viewBox="0 0 1024 1024" xmlns="http://www.w3.org/2000/svg">
<style>
<![CDATA[
@keyframes zk {
	to {
		stroke-dashoffset:0;
	}
}
svg.acjk path[clip-path] {
	--t:0.8s;
	animation:zk var(--t) linear forwards var(--d);
	stroke-dasharray:3337;
	stroke-dashoffset:3339;
	stroke-width:128;
	stroke-linecap:round;
	fill:none;
	stroke:#000;
}
svg.acjk path[id] {fill:#ccc;}
]]>
</style>
<path id="z28060d1" d="M243 177C261 193 281 212 301 232C309 240 320 246 332 246C338 246 345 240 349 231C352 221 350 204 345 185C341 169 327 157 307 148C257 126 227 119 216 125C211 127 209 133 212 142C213 150 225 161 243 177Z"/>
<path id="z28060d2" d="M149 375C181 407 208 432 235 440C244 442 254 437 259 428C263 419 264 407 261 397C252 368 216 349 159 335C147 332 140 333 133 336C128 337 128 340 130 350C131 356 137 364 149 375Z"/>
<path id="z28060d3" d="M136 734C129 738 123 743 126 756C136 807 154 839 177 853C200 866 201 844 203 829C205 800 244 694 317 509C321 498 323 489 323 486C322 478 317 476 313 483C192 664 170 706 136 734Z"/>
<path id="z28060d4" d="M639 234C745 217 800 201 804 198C808 193 810 187 808 183C804 175 792 169 776 164C756 158 739 162 721 168C695 176 669 185 643 190C606 197 606 197 587 200C543 207 497 213 447 219C425 221 420 229 437 239C491 269 532 251 589 242C622 237 622 237 639 234Z"/>
<path id="z28060d5" d="M631 330C633 300 636 262 639 234C642 207 642 207 643 194C646 161 647 163 657 110C658 101 654 92 642 83C622 68 602 62 588 59C576 56 570 58 566 64C561 69 560 76 567 88C576 102 582 114 583 127C584 151 585 176 587 205C588 230 588 230 589 242C590 269 590 308 590 340C590 354 631 344 631 330Z"/>
<path id="z28060d6" d="M590 340C556 348 519 350 489 355C472 357 469 363 484 373C503 387 521 391 537 388C570 379 643 366 739 353C745 352 752 351 756 343C758 336 749 330 737 324C715 313 679 318 631 330C604 337 604 337 590 340Z"/>
<path id="z28060d7" d="M467 464C461 449 453 440 445 434C433 425 426 427 427 444C427 459 423 485 401 515C373 551 362 578 373 606C375 611 377 618 381 625C389 640 401 641 413 624C424 607 433 586 441 561C449 533 457 510 464 494C468 485 471 473 467 464Z"/>
<path id="z28060d8" d="M464 494C472 500 491 500 523 489C560 476 679 458 759 446C789 441 789 454 787 467C783 489 777 510 773 533C769 548 773 559 788 544C811 518 836 501 858 491C875 482 883 474 883 470C882 463 864 445 828 416C817 406 807 405 795 408C769 413 522 456 467 464C457 466 455 490 464 494Z"/>
<path id="z28060d9" d="M519 582C510 702 414 782 343 853C339 856 338 862 345 860C437 831 506 745 558 671C569 655 578 639 591 623C601 609 593 598 584 590C564 573 545 566 525 569C520 569 519 573 519 582Z"/>
<path id="z28060d10" d="M633 526C632 529 632 534 636 543C644 569 645 595 643 622C633 725 634 791 641 822C644 834 648 849 663 861C709 901 788 913 895 894C924 888 953 874 974 860C988 849 989 832 979 813C969 794 952 759 940 704C932 671 925 677 920 698C904 759 889 798 877 816C870 824 857 830 838 835C792 844 750 842 717 827C702 820 694 812 691 803C675 768 679 692 703 573C707 551 693 534 662 522C648 517 636 510 633 526Z"/>
<defs>
	<clipPath id="z28060c1"><use href="#z28060d1"/></clipPath>
	<clipPath id="z28060c2"><use href="#z28060d2"/></clipPath>
	<clipPath id="z28060c3"><use href="#z28060d3"/></clipPath>
	<clipPath id="z28060c4"><use href="#z28060d4"/></clipPath>
	<clipPath id="z28060c5"><use href="#z28060d5"/></clipPath>
	<clipPath id="z28060c6"><use href="#z28060d6"/></clipPath>
	<clipPath id="z28060c7"><use href="#z28060d7"/></clipPath>
	<clipPath id="z28060c8"><use href="#z28060d8"/></clipPath>
	<clipPath id="z28060c9"><use href="#z28060d9"/></clipPath>
	<clipPath id="z28060c10"><use href="#z28060d10"/></clipPath>
</defs>
<path style="--d:1s;" pathLength="3333" clip-path="url(#z28060c1)" d="M215 134L303 185L333 241"/>
<path style="--d:2s;" pathLength="3333" clip-path="url(#z28060c2)" d="M137 342L253 430"/>
<path style="--d:3s;" pathLength="3333" clip-path="url(#z28060c3)" d="M131 751L160 735L192 795L318 485"/>
<path style="--d:4s;" pathLength="3333" clip-path="url(#z28060c4)" d="M435 227L516 232L804 185"/>
<path style="--d:5s;" pathLength="3333" clip-path="url(#z28060c5)" d="M567 72L619 111L608 344"/>
<path style="--d:6s;" pathLength="3333" clip-path="url(#z28060c6)" d="M482 361L749 340"/>
<path style="--d:7s;" pathLength="3333" clip-path="url(#z28060c7)" d="M435 435L445 478L393 629"/>
<path style="--d:8s;" pathLength="3333" clip-path="url(#z28060c8)" d="M462 483L793 427L834 467L779 545"/>
<path style="--d:9s;" pathLength="3333" clip-path="url(#z28060c9)" d="M526 578L553 619L520 681L444 778L347 855"/>
<path style="--d:10s;" pathLength="3333" clip-path="url(#z28060c10)" d="M640 521L673 566L659 771L692 847L813 871L926 834L928 691"/>
</svg>