<!--
AnimCJK 2016-2018 Copyright Francois Mizessyn, https://github.com/parsimonhi/animCJK
Derived from:
    MakeMeAHanzi project - https://github.com/skishore/makemeahanzi
    Arphic PL KaitiM GB - https://apps.ubuntu.com/cat/applications/precise/fonts-arphic-gkai00mp/
    Arphic PL UKai - https://apps.ubuntu.com/cat/applications/fonts-arphic-ukai/
You can redistribute and/or modify this file under the terms of the Arphic Public License
as published by Arphic Technology Co., Ltd.
You should have received a copy of this license (the directory "APL") along with this file;
if not, see http://ftp.gnu.org/non-gnu/chinese-fonts-truetype/LICENSE.
-->
<svg id="z28082" class="acjk" version="1.1" viewBox="0 0 1024 1024" xmlns="http://www.w3.org/2000/svg" xmlns:xlink="http://www.w3.org/1999/xlink">
<style>
<![CDATA[
@keyframes z28082k {
	from {
		stroke:#c00;
		stroke-dashoffset:3334;
	}
	75% {
		stroke:#c00;
		stroke-dashoffset:0;
	}
	to {
		stroke:#000;
	}
}
#z28082 path[clip-path] {
	animation:z28082k 1s linear both;
	stroke-dasharray:3334;
	stroke-width:128;
	stroke-linecap:round;
	fill:none;
}
#z28082 path[clip-path="url(#z28082c1)"] {animation-delay:1s;}
#z28082 path[clip-path="url(#z28082c2)"] {animation-delay:2s;}
#z28082 path[clip-path="url(#z28082c3)"] {animation-delay:3s;}
#z28082 path[clip-path="url(#z28082c4)"] {animation-delay:4s;}
#z28082 path[clip-path="url(#z28082c5)"] {animation-delay:5s;}
#z28082 path[clip-path="url(#z28082c6)"] {animation-delay:6s;}
#z28082 path[clip-path="url(#z28082c7)"] {animation-delay:7s;}
#z28082 path[clip-path="url(#z28082c8)"] {animation-delay:8s;}
#z28082 path[clip-path="url(#z28082c9)"] {animation-delay:9s;}
#z28082 path[clip-path="url(#z28082c10)"] {animation-delay:10s;}
#z28082 path[clip-path="url(#z28082c11)"] {animation-delay:11s;}
#z28082 path {fill:#ccc;}
]]>
</style>
<path id="z28082d1" d="M230 195Q257 217 285 243Q300 256 317 255Q327 254 333 240Q337 224 326 193Q314 160 223 145Q207 142 200 145Q194 149 197 163Q201 173 230 195 Z"/>
<path id="z28082d2" d="M136 388Q190 442 223 455Q238 458 247 443Q253 430 249 413Q237 371 147 348Q131 344 121 348Q114 349 118 362Q119 374 136 388 Z"/>
<path id="z28082d3" d="M125 722Q113 726 116 742Q134 815 167 830Q174 837 184 834Q191 833 191 808Q195 760 278 519Q284 503 283 498Q282 488 273 495Q264 499 161 680Q151 701 125 722 Z"/>
<path id="z28082d4" d="M544 134Q577 155 612 181Q628 193 645 189Q657 188 661 172Q664 156 649 124Q639 105 605 93Q569 86 531 82Q515 81 508 85Q502 89 506 103Q512 115 544 134 Z"/>
<path id="z28082d5" d="M475 331Q604 303 738 273Q802 257 811 249Q820 242 815 232Q808 220 778 213Q751 207 637 245Q499 284 378 298Q341 305 367 322Q394 337 432 337L475 331 Z"/>
<path id="z28082d6" d="M385 557Q425 511 471 440Q490 406 508 389Q515 379 512 367Q503 345 475 331L432 337Q433 338 434 341Q453 383 370 512Q331 572 278 637Q269 646 267 651Q264 661 276 659Q295 656 361 585L385 557 Z"/>
<path id="z28082d7" d="M361 585Q392 645 361 814Q346 857 380 905L381 906Q396 919 405 897Q418 863 417 825Q416 660 420 623Q427 601 418 592Q391 559 385 557L361 585 Z"/>
<path id="z28082d8" d="M635 432Q636 431 637 430Q659 396 679 368Q688 358 676 344Q640 316 618 318Q608 319 610 332Q619 404 536 500Q530 500 501 538Q494 551 507 547Q523 546 558 517L573 504Q600 479 621 453L635 432 Z"/>
<path id="z28082d9" d="M652 692Q721 619 774 518Q799 470 816 457Q829 447 823 435Q819 425 764 400Q751 396 728 406Q700 419 635 432L621 453Q631 460 661 456Q725 440 729 448Q741 490 655 613Q634 634 616 662L592 690Q543 742 474 796Q449 811 471 810Q537 807 621 723L652 692 Z"/>
<path id="z28082d10" d="M558 517Q561 526 609 568Q625 581 640 580Q652 580 655 564Q656 552 646 535Q636 522 614 516Q587 506 573 504L558 517 Z"/>
<path id="z28082d11" d="M621 723Q675 781 772 857Q802 879 844 868Q901 856 941 848Q954 845 967 839Q974 832 961 823Q945 816 824 788Q755 773 652 692L616 662Q582 631 546 593Q524 571 491 568Q481 567 472 573Q468 580 477 586Q484 592 492 596Q519 606 592 690L621 723 Z"/>
<defs>
	<clipPath id="z28082c1"><use xlink:href="#z28082d1"/></clipPath>
	<clipPath id="z28082c2"><use xlink:href="#z28082d2"/></clipPath>
	<clipPath id="z28082c3"><use xlink:href="#z28082d3"/></clipPath>
	<clipPath id="z28082c4"><use xlink:href="#z28082d4"/></clipPath>
	<clipPath id="z28082c5"><use xlink:href="#z28082d5"/></clipPath>
	<clipPath id="z28082c6"><use xlink:href="#z28082d6"/></clipPath>
	<clipPath id="z28082c7"><use xlink:href="#z28082d7"/></clipPath>
	<clipPath id="z28082c8"><use xlink:href="#z28082d8"/></clipPath>
	<clipPath id="z28082c9"><use xlink:href="#z28082d9"/></clipPath>
	<clipPath id="z28082c10"><use xlink:href="#z28082d10"/></clipPath>
	<clipPath id="z28082c11"><use xlink:href="#z28082d11"/></clipPath>
</defs>
<path pathLength="3333" clip-path="url(#z28082c1)" d="M203 150L325 246"/>
<path pathLength="3333" clip-path="url(#z28082c2)" d="M123 355L239 448"/>
<path pathLength="3333" clip-path="url(#z28082c3)" d="M180 829L161 736L276 500"/>
<path pathLength="3333" clip-path="url(#z28082c4)" d="M511 91L613 136L654 179"/>
<path pathLength="3333" clip-path="url(#z28082c5)" d="M362 310L465 309L809 236"/>
<path pathLength="3333" clip-path="url(#z28082c6)" d="M439 339L471 384L275 653"/>
<path pathLength="3333" clip-path="url(#z28082c7)" d="M387 568L391 905"/>
<path pathLength="3333" clip-path="url(#z28082c8)" d="M619 328L644 362L633 390L507 540"/>
<path pathLength="3333" clip-path="url(#z28082c9)" d="M629 450L745 423L777 453L633 679L471 804"/>
<path pathLength="3333" clip-path="url(#z28082c10)" d="M566 516L647 572"/>
<path pathLength="3333" clip-path="url(#z28082c11)" d="M479 577L778 814L962 831"/>
</svg>