<!--
AnimCJK 2016-2019 Copyright Francois Mizessyn - https://github.com/parsimonhi/animCJK
Derived from:
    MakeMeAHanzi project - https://github.com/skishore/makemeahanzi
    Arphic PL KaitiM GB font
    Arphic PL UKai font
You can redistribute and/or modify this file under the terms of the Arphic Public License
as published by Arphic Technology Co., Ltd.
You should have received a copy of this license along with this file.
If not, see http://ftp.gnu.org/non-gnu/chinese-fonts-truetype/LICENSE.
-->
<svg id="z28122" class="acjk" version="1.1" viewBox="0 0 1024 1024" xmlns="http://www.w3.org/2000/svg" xmlns:xlink="http://www.w3.org/1999/xlink">
<style>
<![CDATA[
@keyframes zk {
	to {
		stroke-dashoffset:0;
	}
}
svg.acjk path[clip-path] {
	--t:0.8s;
	animation:zk var(--t) linear forwards var(--d);
	stroke-dasharray:3337;
	stroke-dashoffset:3339;
	stroke-width:128;
	stroke-linecap:round;
	fill:none;
	stroke:#000;
}
svg.acjk path[id] {fill:#ccc;}
]]>
</style>
<path id="z28122d1" d="M239 219C251 231 264 245 278 261C288 271 300 276 313 276C321 275 328 269 332 259C336 247 334 229 328 206C320 187 288 172 234 162C221 159 212 158 208 160C204 162 202 169 204 180C206 188 218 201 239 219Z"/>
<path id="z28122d2" d="M134 419C162 451 186 472 208 480C218 482 227 477 235 467C239 458 239 447 237 434C232 417 223 404 209 394C170 374 140 367 118 374C117 374 117 374 117 375C112 375 111 380 114 390C114 398 121 408 134 419Z"/>
<path id="z28122d3" d="M121 750C112 752 109 760 111 772C119 822 135 854 160 869C164 873 170 875 178 873C184 872 187 863 187 845C191 816 223 721 285 561C289 550 291 542 291 538C290 531 287 530 281 535C274 539 266 547 258 559C223 613 190 664 159 712C151 724 138 737 121 750Z"/>
<path id="z28122d4" d="M686 69C664 58 666 88 650 99C635 108 540 161 481 175C470 177 483 211 494 207C573 175 636 152 657 148C678 143 714 139 735 137C744 136 750 135 752 131C755 125 754 119 747 113C719 89 700 76 686 69Z"/>
<path id="z28122d5" d="M740 373C760 334 779 309 799 299C811 286 813 273 803 260C759 223 723 208 697 215C694 215 691 215 688 217C628 243 584 266 486 285C475 287 471 320 482 318C492 318 543 301 672 271C686 267 696 268 702 274C706 278 708 285 706 295C698 323 689 349 681 372C674 390 731 391 740 373Z"/>
<path id="z28122d6" d="M468 451C474 453 482 453 490 451C548 435 627 419 753 405C759 404 763 401 764 395C764 390 756 383 740 373C723 363 700 368 681 372C598 394 539 410 472 421C462 423 458 449 468 451Z"/>
<path id="z28122d7" d="M481 175C446 154 428 150 418 153C405 155 407 162 414 179C451 276 418 494 393 579C382 612 364 667 352 694C329 741 294 794 235 849C226 857 219 863 218 868C216 872 220 875 228 875C258 872 294 846 340 797C401 730 442 641 468 451C471 431 471 431 472 421C473 407 480 333 482 318C485 296 485 296 486 285C488 262 489 243 490 235C491 222 493 213 494 207C496 196 490 182 481 175Z"/>
<path id="z28122d8" d="M630 595C672 586 727 577 798 574C826 572 841 570 845 564C847 557 844 550 834 544C802 523 768 521 732 532C705 539 674 549 637 557C597 566 597 566 577 570C542 577 506 584 469 593C458 595 455 601 465 609C482 623 508 624 542 615C550 612 561 609 573 607C611 599 611 599 630 595Z"/>
<path id="z28122d9" d="M628 603C628 600 628 597 630 595C635 570 635 570 637 557C637 539 640 523 648 511C652 506 653 500 649 494C645 489 633 483 615 476C594 465 579 462 569 466C562 470 561 477 567 487C573 507 576 534 577 570C574 595 574 595 573 607C558 697 526 762 477 802C455 822 414 848 355 879C340 887 342 891 361 891C393 893 436 878 492 846C550 814 593 744 620 638C625 615 625 615 628 603Z"/>
<path id="z28122d10" d="M620 638C662 710 711 787 767 867C777 881 793 888 813 889C879 891 923 891 945 889C951 888 955 886 956 883C956 880 953 876 945 870C849 823 774 770 721 710C691 678 660 642 628 603C621 593 613 628 620 638Z"/>
<path id="z28122d11" d="M828 455C842 469 856 485 871 502C879 510 889 515 900 516C906 516 912 511 917 503C921 493 920 478 915 458C911 440 881 423 826 407C815 404 808 403 804 405C800 407 798 413 800 422C802 428 811 439 828 455Z"/>
<defs>
	<clipPath id="z28122c1"><use xlink:href="#z28122d1"/></clipPath>
	<clipPath id="z28122c2"><use xlink:href="#z28122d2"/></clipPath>
	<clipPath id="z28122c3"><use xlink:href="#z28122d3"/></clipPath>
	<clipPath id="z28122c4"><use xlink:href="#z28122d4"/></clipPath>
	<clipPath id="z28122c5"><use xlink:href="#z28122d5"/></clipPath>
	<clipPath id="z28122c6"><use xlink:href="#z28122d6"/></clipPath>
	<clipPath id="z28122c7"><use xlink:href="#z28122d7"/></clipPath>
	<clipPath id="z28122c8"><use xlink:href="#z28122d8"/></clipPath>
	<clipPath id="z28122c9"><use xlink:href="#z28122d9"/></clipPath>
	<clipPath id="z28122c10"><use xlink:href="#z28122d10"/></clipPath>
	<clipPath id="z28122c11"><use xlink:href="#z28122d11"/></clipPath>
</defs>
<path style="--d:1s;" pathLength="3333" clip-path="url(#z28122c1)" d="M211 166L289 217L323 267"/>
<path style="--d:2s;" pathLength="3333" clip-path="url(#z28122c2)" d="M118 382L230 472"/>
<path style="--d:3s;" pathLength="3333" clip-path="url(#z28122c3)" d="M172 870L157 776L285 542"/>
<path style="--d:4s;" pathLength="3333" clip-path="url(#z28122c4)" d="M681 87L699 116L489 179"/>
<path style="--d:5s;" pathLength="3333" clip-path="url(#z28122c5)" d="M491 290L711 243L757 289L713 362L690 365"/>
<path style="--d:6s;" pathLength="3333" clip-path="url(#z28122c6)" d="M473 445L665 396L757 395"/>
<path style="--d:7s;" pathLength="3333" clip-path="url(#z28122c7)" d="M419 161L471 232L402 630L339 765L225 865"/>
<path style="--d:8s;" pathLength="3333" clip-path="url(#z28122c8)" d="M467 601L840 554"/>
<path style="--d:9s;" pathLength="3333" clip-path="url(#z28122c9)" d="M572 473L613 515L559 736L498 815L352 885"/>
<path style="--d:10s;" pathLength="3333" clip-path="url(#z28122c10)" d="M629 611L795 833L948 878"/>
<path style="--d:11s;" pathLength="3333" clip-path="url(#z28122c11)" d="M808 415L878 462L907 511"/>
</svg>