<!--
AnimCJK 2016-2019 Copyright Francois Mizessyn - https://github.com/parsimonhi/animCJK
Derived from:
    MakeMeAHanzi project - https://github.com/skishore/makemeahanzi
    Arphic PL KaitiM GB font
    Arphic PL UKai font
You can redistribute and/or modify this file under the terms of the Arphic Public License
as published by Arphic Technology Co., Ltd.
You should have received a copy of this license along with this file.
If not, see http://ftp.gnu.org/non-gnu/chinese-fonts-truetype/LICENSE.
-->
<svg id="z28129" class="acjk" version="1.1" viewBox="0 0 1024 1024" xmlns="http://www.w3.org/2000/svg" xmlns:xlink="http://www.w3.org/1999/xlink">
<style>
<![CDATA[
@keyframes zk {
	to {
		stroke-dashoffset:0;
	}
}
svg.acjk path[clip-path] {
	--t:0.8s;
	animation:zk var(--t) linear forwards var(--d);
	stroke-dasharray:3337;
	stroke-dashoffset:3339;
	stroke-width:128;
	stroke-linecap:round;
	fill:none;
	stroke:#000;
}
svg.acjk path[id] {fill:#ccc;}
]]>
</style>
<path id="z28129d1" d="M249 212C263 226 276 243 291 261C299 271 310 277 322 277C330 277 336 272 341 263C345 252 344 236 340 214C337 201 327 189 308 181C261 160 233 152 224 157C219 159 217 165 219 175C220 183 231 195 249 212Z"/>
<path id="z28129d2" d="M163 414C193 448 215 473 237 481C247 484 256 480 263 471C268 462 269 451 267 440C263 423 255 409 242 400C216 381 192 374 173 372C164 371 156 369 150 371C145 372 144 376 145 386C146 394 153 402 163 414Z"/>
<path id="z28129d3" d="M142 742C134 746 129 751 131 763C138 813 156 845 180 861C185 864 190 867 198 866C202 865 204 855 207 838C211 803 248 705 313 545C317 534 319 526 319 522C318 515 315 514 309 519C299 525 257 586 182 702C173 714 161 730 142 742Z"/>
<path id="z28129d4" d="M408 273C432 310 450 334 465 340C473 343 482 341 488 335C493 328 495 320 495 310C493 287 468 264 424 242C415 237 408 235 402 237C398 237 396 241 397 248C397 254 401 262 408 273Z"/>
<path id="z28129d5" d="M730 195C713 215 687 242 653 275C648 279 646 285 651 289C654 292 660 290 666 288C726 257 769 234 799 225C810 221 815 218 814 211C811 200 805 187 794 174C783 161 770 151 756 149C746 147 740 154 740 167C740 175 737 185 730 195Z"/>
<path id="z28129d6" d="M545 108C567 141 572 201 555 290C541 358 495 427 418 496C409 503 409 508 418 508C454 505 493 479 535 435C553 414 584 368 597 333C607 302 614 280 619 237C624 190 626 156 635 134C639 121 636 112 626 107C589 88 564 81 550 88C541 91 539 99 545 108Z"/>
<path id="z28129d7" d="M640 363C671 381 707 403 746 430C758 438 768 444 777 444C781 444 785 439 788 434C792 425 789 409 777 387C763 360 715 345 635 338C628 337 626 338 627 346C627 352 631 358 640 363Z"/>
<path id="z28129d8" d="M377 584C407 634 431 661 448 665C456 667 465 662 471 650C474 641 471 629 467 616C462 603 451 594 436 585C412 571 396 561 385 558C379 556 374 558 373 566C371 571 373 578 377 584Z"/>
<path id="z28129d9" d="M725 514C703 534 671 557 631 586C626 589 622 595 626 601C629 605 636 604 643 602C711 579 761 562 795 557C807 555 814 553 814 545C813 532 807 518 798 502C787 485 775 473 761 469C750 465 742 471 741 485C739 494 735 504 725 514Z"/>
<path id="z28129d10" d="M583 642C587 625 592 601 595 579C599 548 602 534 609 517C612 507 612 501 606 495C597 486 583 482 564 479C548 476 535 474 524 480C515 483 513 491 521 500C538 519 541 551 536 601C525 696 466 776 352 839C336 847 318 854 302 865C290 872 293 877 307 876C389 869 457 839 512 783C534 760 558 723 575 669C580 651 580 651 583 642Z"/>
<path id="z28129d11" d="M575 669C629 739 686 807 747 873C762 889 784 898 812 901C862 905 912 902 965 895C977 893 985 892 987 888C989 883 984 879 974 875C941 862 906 849 869 835C826 819 789 800 758 780C719 755 679 730 583 642C576 636 569 661 575 669Z"/>
<defs>
	<clipPath id="z28129c1"><use xlink:href="#z28129d1"/></clipPath>
	<clipPath id="z28129c2"><use xlink:href="#z28129d2"/></clipPath>
	<clipPath id="z28129c3"><use xlink:href="#z28129d3"/></clipPath>
	<clipPath id="z28129c4"><use xlink:href="#z28129d4"/></clipPath>
	<clipPath id="z28129c5"><use xlink:href="#z28129d5"/></clipPath>
	<clipPath id="z28129c6"><use xlink:href="#z28129d6"/></clipPath>
	<clipPath id="z28129c7"><use xlink:href="#z28129d7"/></clipPath>
	<clipPath id="z28129c8"><use xlink:href="#z28129d8"/></clipPath>
	<clipPath id="z28129c9"><use xlink:href="#z28129d9"/></clipPath>
	<clipPath id="z28129c10"><use xlink:href="#z28129d10"/></clipPath>
	<clipPath id="z28129c11"><use xlink:href="#z28129d11"/></clipPath>
</defs>
<path style="--d:1s;" pathLength="3333" clip-path="url(#z28129c1)" d="M226 165L301 217L328 271"/>
<path style="--d:2s;" pathLength="3333" clip-path="url(#z28129c2)" d="M151 376L258 471"/>
<path style="--d:3s;" pathLength="3333" clip-path="url(#z28129c3)" d="M 140,754 181,800 314,524"/>
<path style="--d:4s;" pathLength="3333" clip-path="url(#z28129c4)" d="M404 241L485 331"/>
<path style="--d:5s;" pathLength="3333" clip-path="url(#z28129c5)" d="M751 154L773 203L658 282"/>
<path style="--d:6s;" pathLength="3333" clip-path="url(#z28129c6)" d="M548 97L598 133L572 326L500 441L420 500"/>
<path style="--d:7s;" pathLength="3333" clip-path="url(#z28129c7)" d="M634 345L734 387L785 433"/>
<path style="--d:8s;" pathLength="3333" clip-path="url(#z28129c8)" d="M379 563L463 658"/>
<path style="--d:9s;" pathLength="3333" clip-path="url(#z28129c9)" d="M753 474L765 536L635 594"/>
<path style="--d:10s;" pathLength="3333" clip-path="url(#z28129c10)" d="M522 486L574 518L520 727L430 817L305 873"/>
<path style="--d:11s;" pathLength="3333" clip-path="url(#z28129c11)" d="M583 651L782 846L982 884"/>
</svg>