<!--
AnimCJK 2016-2025 Copyright FM-SH - https://github.com/parsimonhi/animCJK
Derived from:
    MakeMeAHanzi project - https://github.com/skishore/makemeahanzi
    Arphic PL KaitiM GB font
    Arphic PL KaitiM Big5 font
You can redistribute and/or modify this file under the terms of the Arphic Public License
as published by Arphic Technology Co., Ltd.
You should have received a copy of this license along with this file.
If not, see https://ftp.gnu.org/non-gnu/chinese-fonts-truetype/LICENSE.
-->
<svg id="z28151" class="acjk" viewBox="0 0 1024 1024" xmlns="http://www.w3.org/2000/svg">
<style>
<![CDATA[
@keyframes zk {
	to {
		stroke-dashoffset:0;
	}
}
svg.acjk path[clip-path] {
	--t:0.8s;
	animation:zk var(--t) linear forwards var(--d);
	stroke-dasharray:3337;
	stroke-dashoffset:3339;
	stroke-width:128;
	stroke-linecap:round;
	fill:none;
	stroke:#000;
}
svg.acjk path[id] {fill:#ccc;}
]]>
</style>
<path id="z28151d1" d="M229 186C246 199 263 217 283 235C293 245 305 249 318 248C326 247 332 242 336 232C340 219 337 201 330 179C325 165 312 152 290 145C240 128 208 121 196 128C191 130 189 139 192 149C193 157 207 169 229 186Z"/>
<path id="z28151d2" d="M129 377C170 417 201 446 229 455C239 458 249 453 255 443C259 434 260 423 257 412C247 377 208 353 143 337C142 336 141 336 141 336C129 333 119 333 113 335C108 336 108 340 110 350C111 358 118 366 129 377Z"/>
<path id="z28151d3" d="M129 763C122 768 118 773 120 785C129 835 146 864 170 879C175 882 181 885 189 883C194 882 196 872 197 855C201 816 234 720 294 563C298 552 300 544 300 540C299 533 296 533 289 537C283 542 242 603 168 722C160 735 148 751 129 763Z"/>
<path id="z28151d4" d="M433 174C425 170 409 167 391 163C381 161 377 161 375 165C371 170 371 175 377 188C399 235 417 299 428 380C431 402 437 423 451 440C463 453 472 457 475 447C476 443 477 438 478 434C478 425 480 417 480 409C479 386 470 338 468 325C465 308 465 308 464 299C457 253 451 223 449 206C447 194 444 178 433 174Z"/>
<path id="z28151d5" d="M645 411C657 429 670 440 681 447C688 451 696 447 707 433C718 416 731 361 753 270C758 248 770 230 787 214C795 205 797 195 790 187C779 174 760 158 731 141C719 134 688 137 638 146C634 146 491 164 433 174C421 176 437 208 449 206C497 196 565 187 652 181C670 179 682 182 688 189C696 199 700 210 699 221C682 317 668 371 657 383C652 392 639 403 645 411Z"/>
<path id="z28151d6" d="M468 325Q471 325 475 325Q553 312 611 304Q633 300 625 288Q615 273 589 269Q556 265 464 299C456 302 459 325 468 325Z"/>
<path id="z28151d7" d="M478 434C482 434 488 434 495 434C551 424 601 416 645 411C655 409 666 388 657 383C644 373 606 376 543 392C518 399 503 402 480 409C472 412 470 434 478 434Z"/>
<path id="z28151d8" d="M420 633C466 621 508 611 545 603C561 599 565 591 558 584C549 575 536 569 518 568C493 565 461 576 422 598C412 604 409 635 420 633Z"/>
<path id="z28151d9" d="M422 598C423 581 423 566 427 553C429 542 428 533 421 527C406 514 391 505 376 499C364 494 354 493 348 497C341 501 343 509 351 523C376 564 380 639 358 745C354 763 341 781 328 801C319 813 318 824 324 833C330 841 341 850 358 859C368 864 380 863 388 850C402 826 439 795 506 758C525 747 539 735 549 724C554 716 554 712 548 712C544 711 506 724 435 752C426 755 420 754 416 753C410 750 408 745 410 733C414 692 418 659 420 633C421 610 421 610 422 598Z"/>
<path id="z28151d10" d="M656 641C744 597 809 565 854 553C866 549 872 547 872 540C871 526 864 513 854 498C842 482 829 471 815 467C803 464 797 471 796 485C793 505 748 547 658 611C649 616 647 645 656 641Z"/>
<path id="z28151d11" d="M658 611C660 574 668 546 677 526C685 505 683 487 670 478C636 451 613 441 604 445C593 448 590 456 596 468C609 492 613 523 612 561C605 740 617 795 636 826C652 851 675 859 723 866C763 871 813 871 856 869C904 866 938 860 959 849C978 838 983 822 975 802C961 772 950 730 943 679C941 667 938 661 933 658C927 655 924 660 922 674C912 737 904 776 895 787C878 806 836 816 771 818C735 818 708 815 693 809C678 803 671 793 668 785C654 745 652 699 656 641C657 621 657 621 658 611Z"/>
<defs>
	<clipPath id="z28151c1"><use href="#z28151d1"/></clipPath>
	<clipPath id="z28151c2"><use href="#z28151d2"/></clipPath>
	<clipPath id="z28151c3"><use href="#z28151d3"/></clipPath>
	<clipPath id="z28151c4"><use href="#z28151d4"/></clipPath>
	<clipPath id="z28151c5"><use href="#z28151d5"/></clipPath>
	<clipPath id="z28151c6"><use href="#z28151d6"/></clipPath>
	<clipPath id="z28151c7"><use href="#z28151d7"/></clipPath>
	<clipPath id="z28151c8"><use href="#z28151d8"/></clipPath>
	<clipPath id="z28151c9"><use href="#z28151d9"/></clipPath>
	<clipPath id="z28151c10"><use href="#z28151d10"/></clipPath>
	<clipPath id="z28151c11"><use href="#z28151d11"/></clipPath>
</defs>
<path style="--d:1s;" pathLength="3333" clip-path="url(#z28151c1)" d="M197 136L287 185L323 243"/>
<path style="--d:2s;" pathLength="3333" clip-path="url(#z28151c2)" d="M116 343L252 442"/>
<path style="--d:3s;" pathLength="3333" clip-path="url(#z28151c3)" d="M126 778L184 827L294 543"/>
<path style="--d:4s;" pathLength="3333" clip-path="url(#z28151c4)" d="M380 171L421 216L463 447"/>
<path style="--d:5s;" pathLength="3333" clip-path="url(#z28151c5)" d="M436 181L674 160L741 196L671 438"/>
<path style="--d:6s;" pathLength="3333" clip-path="url(#z28151c6)" d="M463 314L619 289"/>
<path style="--d:7s;" pathLength="3333" clip-path="url(#z28151c7)" d="M476 425L655 392"/>
<path style="--d:8s;" pathLength="3333" clip-path="url(#z28151c8)" d="M416 623L555 584"/>
<path style="--d:9s;" pathLength="3333" clip-path="url(#z28151c9)" d="M351 503L397 560L365 797L398 806L546 719"/>
<path style="--d:10s;" pathLength="3333" clip-path="url(#z28151c10)" d="M809 471L829 523L655 631"/>
<path style="--d:11s;" pathLength="3333" clip-path="url(#z28151c11)" d="M600 454L645 503L635 738L676 829L823 842L930 815L930 664"/>
</svg>