<!--
AnimCJK 2016-2026 Copyright FM-SH - https://github.com/parsimonhi/animCJK
Derived from:
    MakeMeAHanzi project - https://github.com/skishore/makemeahanzi
    Arphic PL KaitiM GB font
    Arphic PL KaitiM Big5 font
You can redistribute and/or modify this file under the terms of the Arphic Public License
as published by Arphic Technology Co., Ltd.
You should have received a copy of this license along with this file.
If not, see https://ftp.gnu.org/non-gnu/chinese-fonts-truetype/LICENSE.
-->
<svg id="z28191" class="acjk" viewBox="0 0 1024 1024" xmlns="http://www.w3.org/2000/svg">
<style>
<![CDATA[
@keyframes zk {
	to {
		stroke-dashoffset:0;
	}
}
svg.acjk path[clip-path] {
	--t:0.8s;
	animation:zk var(--t) linear forwards var(--d);
	stroke-dasharray:3337;
	stroke-dashoffset:3339;
	stroke-width:128;
	stroke-linecap:round;
	fill:none;
	stroke:#000;
}
svg.acjk path[id] {fill:#ccc;}
]]>
</style>
<path id="z28191d1" d="M255 183C275 198 295 216 319 236C328 244 341 248 353 248C361 247 367 242 370 232C372 220 370 202 363 181C358 165 343 153 320 146C263 128 231 123 222 129C217 131 216 137 219 148C221 155 233 167 255 183Z"/>
<path id="z28191d2" d="M159 397C197 435 224 462 251 471C260 474 271 469 277 459C281 450 282 438 279 428C274 410 265 397 253 389C209 360 174 349 146 354C144 354 143 354 143 355C138 356 138 359 140 370C141 377 148 386 159 397Z"/>
<path id="z28191d3" d="M149 752C141 756 136 761 139 775C150 828 168 867 192 881C196 884 202 886 210 885C215 883 217 874 219 856C222 821 261 709 335 522C339 511 341 502 341 498C340 490 337 490 331 495C321 501 272 576 194 704C184 719 171 737 149 752Z"/>
<path id="z28191d4" d="M601 98Q623 120 645 146Q658 161 675 161Q687 161 693 147Q699 132 691 100Q687 82 659 67Q587 40 576 45Q570 49 571 62Q575 74 601 98Z"/>
<path id="z28191d5" d="M472 221Q444 225 466 241Q500 265 524 258Q644 231 807 208Q817 209 825 197Q826 187 804 176Q777 155 679 185Q666 186 654 191Q632 195 472 221Z"/>
<path id="z28191d6" d="M537 314Q527 310 506 309Q496 308 492 312Q488 318 496 332Q518 366 536 426Q540 444 553 455Q569 473 574 459Q575 452 575 440C572 421 572 421 571 411Q559 354 557 338C555 328 547 318 537 314Z"/>
<path id="z28191d7" d="M742 388Q758 349 775 337Q797 315 776 300Q760 288 735 271Q719 261 700 269Q652 297 537 314C527 316 547 340 557 338Q564 337 573 336Q625 324 668 315Q698 308 705 320Q709 324 703 347Q697 365 691 386C688 403 736 404 742 388Z"/>
<path id="z28191d8" d="M575 440Q579 440 585 439Q637 427 753 418Q763 417 764 410Q764 403 742 388C729 377 708 383 691 386Q624 401 571 411C561 413 565 440 575 440Z"/>
<path id="z28191d9" d="M462 517Q447 492 435 485Q432 481 426 484Q422 488 420 498Q423 525 399 580Q389 596 389 614Q392 633 401 646Q408 658 414 650Q426 647 440 606Q455 567 462 554Q465 550 467 545C472 537 468 525 462 517Z"/>
<path id="z28191d10" d="M467 545Q489 555 558 535Q690 499 817 489Q829 488 836 489Q848 499 846 504Q846 507 822 566Q815 579 821 583Q828 587 844 577Q895 546 935 537Q969 530 969 521Q968 511 900 462Q876 444 794 462Q731 471 549 503Q506 510 463 516Q462 516 462 517C453 521 458 541 467 545Z"/>
<path id="z28191d11" d="M658 622Q719 612 785 615Q797 616 800 608Q804 599 793 588Q754 561 717 571Q626 593 490 615Q468 619 484 630Q511 648 588 633Q598 630 613 628C643 624 643 624 658 622Z"/>
<path id="z28191d12" d="M577 869Q561 866 540 864Q528 861 529 868Q530 875 540 885Q595 928 633 967Q645 977 658 960Q700 896 690 777Q690 774 690 772Q689 727 690 686Q697 659 691 649Q684 637 658 622C645 614 610 613 613 628Q626 685 628 696Q628 700 628 706Q634 850 620 870Q607 877 577 869Z"/>
<defs>
	<clipPath id="z28191c1"><use href="#z28191d1"/></clipPath>
	<clipPath id="z28191c2"><use href="#z28191d2"/></clipPath>
	<clipPath id="z28191c3"><use href="#z28191d3"/></clipPath>
	<clipPath id="z28191c4"><use href="#z28191d4"/></clipPath>
	<clipPath id="z28191c5"><use href="#z28191d5"/></clipPath>
	<clipPath id="z28191c6"><use href="#z28191d6"/></clipPath>
	<clipPath id="z28191c7"><use href="#z28191d7"/></clipPath>
	<clipPath id="z28191c8"><use href="#z28191d8"/></clipPath>
	<clipPath id="z28191c9"><use href="#z28191d9"/></clipPath>
	<clipPath id="z28191c10"><use href="#z28191d10"/></clipPath>
	<clipPath id="z28191c11"><use href="#z28191d11"/></clipPath>
	<clipPath id="z28191c12"><use href="#z28191d12"/></clipPath>
</defs>
<path style="--d:1s;" pathLength="3333" clip-path="url(#z28191c1)" d="M222 137L329 193L354 244"/>
<path style="--d:2s;" pathLength="3333" clip-path="url(#z28191c2)" d="M146 362L271 462"/>
<path style="--d:3s;" pathLength="3333" clip-path="url(#z28191c3)" d="M143 764L200 831L335 498"/>
<path style="--d:4s;" pathLength="3333" clip-path="url(#z28191c4)" d="M579 53L653 103L679 156"/>
<path style="--d:5s;" pathLength="3333" clip-path="url(#z28191c5)" d="M465 231L820 194"/>
<path style="--d:6s;" pathLength="3333" clip-path="url(#z28191c6)" d="M498 316L533 346L565 459"/>
<path style="--d:7s;" pathLength="3333" clip-path="url(#z28191c7)" d="M544 321L716 292L746 319L710 397"/>
<path style="--d:8s;" pathLength="3333" clip-path="url(#z28191c8)" d="M572 426L757 407"/>
<path style="--d:9s;" pathLength="3333" clip-path="url(#z28191c9)" d="M431 488L443 532L410 645"/>
<path style="--d:10s;" pathLength="3333" clip-path="url(#z28191c10)" d="M460 524L835 471L875 481L913 533L828 578"/>
<path style="--d:11s;" pathLength="3333" clip-path="url(#z28191c11)" d="M485 621L732 591L796 601"/>
<path style="--d:12s;" pathLength="3333" clip-path="url(#z28191c12)" d="M619 624L659 671L648 895L625 922L535 872"/>
</svg>