<!--
AnimCJK 2016-2018 Copyright Francois Mizessyn, https://github.com/parsimonhi/animCJK
Derived from:
    MakeMeAHanzi project - https://github.com/skishore/makemeahanzi
    Arphic PL KaitiM GB - https://apps.ubuntu.com/cat/applications/precise/fonts-arphic-gkai00mp/
    Arphic PL UKai - https://apps.ubuntu.com/cat/applications/fonts-arphic-ukai/
You can redistribute and/or modify this file under the terms of the Arphic Public License
as published by Arphic Technology Co., Ltd.
You should have received a copy of this license (the directory "APL") along with this file;
if not, see http://ftp.gnu.org/non-gnu/chinese-fonts-truetype/LICENSE.
-->
<svg id="z28207" class="acjk" version="1.1" viewBox="0 0 1024 1024" xmlns="http://www.w3.org/2000/svg" xmlns:xlink="http://www.w3.org/1999/xlink">
<style>
<![CDATA[
@keyframes z28207k {
	from {
		stroke:#c00;
		stroke-dashoffset:3334;
	}
	75% {
		stroke:#c00;
		stroke-dashoffset:0;
	}
	to {
		stroke:#000;
	}
}
#z28207 path[clip-path] {
	animation:z28207k 1s linear both;
	stroke-dasharray:3334;
	stroke-width:128;
	stroke-linecap:round;
	fill:none;
}
#z28207 path[clip-path="url(#z28207c1)"] {animation-delay:1s;}
#z28207 path[clip-path="url(#z28207c2)"] {animation-delay:2s;}
#z28207 path[clip-path="url(#z28207c3)"] {animation-delay:3s;}
#z28207 path[clip-path="url(#z28207c4)"] {animation-delay:4s;}
#z28207 path[clip-path="url(#z28207c5)"] {animation-delay:5s;}
#z28207 path[clip-path="url(#z28207c6)"] {animation-delay:6s;}
#z28207 path[clip-path="url(#z28207c7)"] {animation-delay:7s;}
#z28207 path[clip-path="url(#z28207c8)"] {animation-delay:8s;}
#z28207 path[clip-path="url(#z28207c9)"] {animation-delay:9s;}
#z28207 path[clip-path="url(#z28207c10)"] {animation-delay:10s;}
#z28207 path[clip-path="url(#z28207c11)"] {animation-delay:11s;}
#z28207 path[clip-path="url(#z28207c12)"] {animation-delay:12s;}
#z28207 path {fill:#ccc;}
]]>
</style>
<path id="z28207d1" d="M242 198Q261 216 283 238Q298 251 315 251Q327 250 332 236Q338 220 327 187Q318 162 236 145Q220 141 212 145Q206 149 208 163Q212 176 242 198 Z"/>
<path id="z28207d2" d="M151 372Q190 423 226 438Q242 441 251 427Q257 414 255 397Q243 355 164 333Q148 329 137 332Q131 333 133 346Q134 358 151 372 Z"/>
<path id="z28207d3" d="M125 709Q115 712 115 728Q128 800 156 816Q163 823 172 821Q179 820 181 797Q188 751 292 522Q299 507 298 502Q298 492 289 498Q277 505 165 671Q152 690 125 709 Z"/>
<path id="z28207d4" d="M678 243Q691 239 707 237Q762 225 770 218Q779 211 775 203Q768 193 742 185Q715 179 692 188L632 206Q569 222 512 235L463 243Q429 247 393 250Q359 254 383 271Q414 292 469 284L513 276Q567 264 625 253L678 243 Z"/>
<path id="z28207d5" d="M512 235Q512 195 514 184Q515 162 502 151Q480 135 454 126Q441 122 432 127Q425 134 431 148Q458 193 463 243L469 284Q473 324 481 391L519 385Q515 321 513 276L512 235 Z"/>
<path id="z28207d6" d="M647 363Q662 302 678 243L692 188Q696 167 719 116Q725 107 708 90Q680 66 657 59Q642 53 634 60Q625 64 631 81Q644 109 642 126Q638 165 632 206L625 253Q615 308 603 371L647 363 Z"/>
<path id="z28207d7" d="M489 422Q540 410 589 406L615 403Q696 393 815 389Q872 389 880 379Q884 369 869 357Q812 318 765 338Q716 348 647 363L603 371Q590 372 579 375Q548 379 519 385L481 391Q403 401 322 416Q304 417 318 433Q331 445 347 449Q366 453 380 449Q410 439 445 432L489 422 Z"/>
<path id="z28207d8" d="M443 564Q516 452 517 451Q514 438 489 422L445 432Q451 501 348 623Q345 624 344 628Q313 664 233 734Q226 738 235 741Q307 726 422 593L443 564 Z"/>
<path id="z28207d9" d="M589 406Q590 412 597 418Q682 527 792 640Q825 670 974 635Q983 632 984 627Q984 623 970 616Q817 567 755 517Q689 468 615 403L589 406 Z"/>
<path id="z28207d10" d="M651 664C663 632 676 610 689 599C703 583 703 571 689 561C650 537 628 526 623 526C618 526 613 528 608 531C580 548 514 563 477 569C389 582 433 607 466 604C487 601 558 589 584 581C602 577 613 578 617 585C619 588 618 598 614 615C609 632 603 650 596 670 Z"/>
<path id="z28207d11" d="M469 728C469 728 469 728 469 728L468 698C468 698 468 698 468 698C504 692 550 682 596 670L651 664C652 665 654 666 656 666C675 678 684 687 684 691C683 697 679 700 673 700C590 710 533 719 492 725C488 726 477 728 469 728 Z"/>
<path id="z28207d12" d="M823 826C814 812 803 782 789 737C788 727 785 721 781 718C777 716 774 721 772 732C757 781 745 813 735 829C726 840 709 849 683 856C621 871 565 868 515 848C494 838 481 827 477 815C465 791 466 758 469 728L468 698C461 692 433 682 420 682C407 687 411 702 415 714C422 741 427 780 427 813C428 839 437 849 453 870C467 885 492 898 527 909C627 937 722 924 814 870C814 868 816 867 819 866C831 856 832 842 823 826 Z"/>
<defs>
	<clipPath id="z28207c1"><use xlink:href="#z28207d1"/></clipPath>
	<clipPath id="z28207c2"><use xlink:href="#z28207d2"/></clipPath>
	<clipPath id="z28207c3"><use xlink:href="#z28207d3"/></clipPath>
	<clipPath id="z28207c4"><use xlink:href="#z28207d4"/></clipPath>
	<clipPath id="z28207c5"><use xlink:href="#z28207d5"/></clipPath>
	<clipPath id="z28207c6"><use xlink:href="#z28207d6"/></clipPath>
	<clipPath id="z28207c7"><use xlink:href="#z28207d7"/></clipPath>
	<clipPath id="z28207c8"><use xlink:href="#z28207d8"/></clipPath>
	<clipPath id="z28207c9"><use xlink:href="#z28207d9"/></clipPath>
	<clipPath id="z28207c10"><use xlink:href="#z28207d10"/></clipPath>
	<clipPath id="z28207c11"><use xlink:href="#z28207d11"/></clipPath>
	<clipPath id="z28207c12"><use xlink:href="#z28207d12"/></clipPath>
</defs>
<path pathLength="3333" clip-path="url(#z28207c1)" d="M211 151L326 241"/>
<path pathLength="3333" clip-path="url(#z28207c2)" d="M140 336L244 429"/>
<path pathLength="3333" clip-path="url(#z28207c3)" d="M169 815L157 731L289 506"/>
<path pathLength="3333" clip-path="url(#z28207c4)" d="M382 260L469 263L772 205"/>
<path pathLength="3333" clip-path="url(#z28207c5)" d="M435 131L484 188L495 388"/>
<path pathLength="3333" clip-path="url(#z28207c6)" d="M635 66L681 117L619 367"/>
<path pathLength="3333" clip-path="url(#z28207c7)" d="M319 422L779 361L876 370"/>
<path pathLength="3333" clip-path="url(#z28207c8)" d="M509 449L468 463L390 601L239 736"/>
<path pathLength="3333" clip-path="url(#z28207c9)" d="M597 410L818 605L976 628"/>
<path pathLength="3333" clip-path="url(#z28207c10)" d="M431 590L626 557L658 584L608 666"/>
<path pathLength="3333" clip-path="url(#z28207c11)" d="M477 719L676 688"/>
<path pathLength="3333" clip-path="url(#z28207c12)" d="M420 688L469 848L590 893L690 886L777 845L778 724"/>
</svg>