<!--
AnimCJK 2016-2019 Copyright Francois Mizessyn - https://github.com/parsimonhi/animCJK
Derived from:
    MakeMeAHanzi project - https://github.com/skishore/makemeahanzi
    Arphic PL KaitiM GB font
    Arphic PL UKai font
You can redistribute and/or modify this file under the terms of the Arphic Public License
as published by Arphic Technology Co., Ltd.
You should have received a copy of this license along with this file.
If not, see http://ftp.gnu.org/non-gnu/chinese-fonts-truetype/LICENSE.
-->
<svg id="z28263" class="acjk" version="1.1" viewBox="0 0 1024 1024" xmlns="http://www.w3.org/2000/svg" xmlns:xlink="http://www.w3.org/1999/xlink">
<style>
<![CDATA[
@keyframes zk {
	to {
		stroke-dashoffset:0;
	}
}
svg.acjk path[clip-path] {
	--t:0.8s;
	animation:zk var(--t) linear forwards var(--d);
	stroke-dasharray:3337;
	stroke-dashoffset:3339;
	stroke-width:128;
	stroke-linecap:round;
	fill:none;
	stroke:#000;
}
svg.acjk path[id] {fill:#ccc;}
]]>
</style>
<path id="z28263d1" d="M253 168C272 184 291 202 313 222C322 230 333 234 344 234C352 233 358 229 361 220C364 209 362 193 356 173C348 152 311 133 247 117C236 114 228 114 224 117C219 119 217 125 220 135C221 142 234 152 253 168Z"/>
<path id="z28263d2" d="M142 377C184 422 215 452 238 461C247 464 256 460 263 451C268 442 269 432 267 421C259 386 221 359 156 338C145 334 136 334 130 336C125 337 124 341 125 350C126 358 132 366 142 377Z"/>
<path id="z28263d3" d="M147 770C139 774 134 780 137 792C148 844 167 875 189 888C194 891 199 893 207 892C211 891 213 881 215 864C217 833 256 723 329 533C333 522 335 514 335 510C334 503 331 502 325 507C317 512 271 583 191 722C181 737 169 756 147 770Z"/>
<path id="z28263d4" d="M655 199Q772 123 800 117Q819 111 815 95Q812 79 751 41Q733 31 711 38Q644 60 544 86Q519 93 455 90Q433 89 440 109Q447 121 466 132Q494 150 527 131Q690 73 708 82Q718 88 714 100Q680 140 640 187C636 192 650 203 655 199Z"/>
<path id="z28263d5" d="M665 238C667 231 666 225 662 211C660 206 657 202 655 199C652 194 646 189 640 187C633 183 612 176 576 166C568 164 562 164 560 166C557 168 556 172 557 178C559 182 566 190 580 201C604 219 623 231 636 244C643 251 663 248 665 238Z"/>
<path id="z28263d6" d="M459 281C447 276 434 271 422 268C418 268 414 269 412 271C407 274 408 278 414 285C438 321 454 363 462 449C464 484 477 510 500 525C500 525 501 526 503 527C513 529 518 522 518 507C518 491 518 491 518 483C516 471 512 458 508 443C496 374 489 343 489 313C489 311 488 310 488 309C486 296 471 286 459 281Z"/>
<path id="z28263d7" d="M730 477C742 495 753 505 765 512C771 515 781 513 790 500C801 481 815 439 839 339C843 319 854 302 870 287C877 278 880 271 872 262C859 248 829 231 814 223C789 210 749 220 665 238C646 242 646 242 636 244C601 251 486 276 459 281C446 283 475 313 488 309C512 301 564 294 602 286C626 281 626 281 638 278C706 262 767 257 779 268C789 278 791 291 790 301C769 408 754 447 742 454C736 460 725 470 730 477Z"/>
<path id="z28263d8" d="M648 455C648 427 650 420 653 395C655 371 655 371 656 359C656 346 657 333 659 317C663 304 656 292 638 278C628 270 597 275 602 286C608 297 611 327 611 374C611 394 611 394 611 404C611 445 611 445 611 465C611 478 648 468 648 455Z"/>
<path id="z28263d9" d="M653 386C673 382 711 378 729 376C743 373 747 369 741 362C734 354 723 348 709 347C700 345 668 346 656 350C626 359 626 359 611 364C590 370 551 376 534 382C524 385 525 390 538 398C542 400 567 402 611 394C639 389 639 389 653 386Z"/>
<path id="z28263d10" d="M518 507C520 507 524 507 528 506C588 494 682 485 730 477C738 475 749 458 742 454C737 451 731 449 723 448C710 446 672 449 649 454C648 454 648 455 648 455C623 462 623 462 611 465C584 471 540 477 518 483C510 485 510 507 518 507Z"/>
<path id="z28263d11" d="M611 644C660 632 710 624 761 619C773 617 781 621 785 628C788 634 789 648 787 669C778 741 765 796 751 835C742 859 734 874 726 882C717 889 705 889 689 884C674 879 660 877 648 873C632 867 629 871 639 887C659 918 678 944 688 969C692 981 700 987 712 986C722 985 732 977 747 966C784 935 817 851 844 713C849 682 859 658 873 641C885 626 888 616 882 609C870 595 853 583 830 571C812 562 795 560 776 568C733 584 683 600 625 610C582 617 582 617 560 621C497 631 448 635 412 634C397 633 391 634 391 642C390 648 397 657 412 668C430 680 448 684 466 679C492 670 520 664 550 658C591 649 591 649 611 644Z"/>
<path id="z28263d12" d="M550 658C525 749 446 844 323 950C318 954 317 959 322 961C326 962 333 961 341 958C383 939 421 912 458 882C518 830 566 751 611 644C620 621 620 621 625 610C629 599 634 590 640 581C644 574 644 568 641 562C636 555 625 546 605 536C590 528 579 525 573 527C564 529 560 536 562 546C564 570 566 595 560 621C553 646 553 646 550 658Z"/>
<defs>
	<clipPath id="z28263c1"><use xlink:href="#z28263d1"/></clipPath>
	<clipPath id="z28263c2"><use xlink:href="#z28263d2"/></clipPath>
	<clipPath id="z28263c3"><use xlink:href="#z28263d3"/></clipPath>
	<clipPath id="z28263c4"><use xlink:href="#z28263d4"/></clipPath>
	<clipPath id="z28263c5"><use xlink:href="#z28263d5"/></clipPath>
	<clipPath id="z28263c6"><use xlink:href="#z28263d6"/></clipPath>
	<clipPath id="z28263c7"><use xlink:href="#z28263d7"/></clipPath>
	<clipPath id="z28263c8"><use xlink:href="#z28263d8"/></clipPath>
	<clipPath id="z28263c9"><use xlink:href="#z28263d9"/></clipPath>
	<clipPath id="z28263c10"><use xlink:href="#z28263d10"/></clipPath>
	<clipPath id="z28263c11"><use xlink:href="#z28263d11"/></clipPath>
	<clipPath id="z28263c12"><use xlink:href="#z28263d12"/></clipPath>
</defs>
<path style="--d:1s;" pathLength="3333" clip-path="url(#z28263c1)" d="M223 123L357 223"/>
<path style="--d:2s;" pathLength="3333" clip-path="url(#z28263c2)" d="M131 343L257 453"/>
<path style="--d:3s;" pathLength="3333" clip-path="url(#z28263c3)" d="M 148,783 186,826 328,513"/>
<path style="--d:4s;" pathLength="3333" clip-path="url(#z28263c4)" d="M444 100L511 114L731 62L760 107L647 189"/>
<path style="--d:5s;" pathLength="3333" clip-path="url(#z28263c5)" d="M564 176L658 239"/>
<path style="--d:6s;" pathLength="3333" clip-path="url(#z28263c6)" d="M415 275L462 320L505 521"/>
<path style="--d:7s;" pathLength="3333" clip-path="url(#z28263c7)" d="M469 282L741 243L809 254L834 283L750 500"/>
<path style="--d:8s;" pathLength="3333" clip-path="url(#z28263c8)" d="M609 292L635 323L621 461"/>
<path style="--d:9s;" pathLength="3333" clip-path="url(#z28263c9)" d="M535 390L737 367"/>
<path style="--d:10s;" pathLength="3333" clip-path="url(#z28263c10)" d="M527 498L736 461"/>
<path style="--d:11s;" pathLength="3333" clip-path="url(#z28263c11)" d="M399 644L450 657L776 593L825 611L836 634L796 791L746 913L703 937L642 878"/>
<path style="--d:12s;" pathLength="3333" clip-path="url(#z28263c12)" d="M570 535L603 575L534 752L449 861L328 954"/>
</svg>