<!--
AnimCJK 2016-2019 Copyright Francois Mizessyn - https://github.com/parsimonhi/animCJK
Derived from:
    MakeMeAHanzi project - https://github.com/skishore/makemeahanzi
    Arphic PL KaitiM GB font
    Arphic PL UKai font
You can redistribute and/or modify this file under the terms of the Arphic Public License
as published by Arphic Technology Co., Ltd.
You should have received a copy of this license along with this file.
If not, see http://ftp.gnu.org/non-gnu/chinese-fonts-truetype/LICENSE.
-->
<svg id="z28331" class="acjk" version="1.1" viewBox="0 0 1024 1024" xmlns="http://www.w3.org/2000/svg" xmlns:xlink="http://www.w3.org/1999/xlink">
<style>
<![CDATA[
@keyframes zk {
	to {
		stroke-dashoffset:0;
	}
}
svg.acjk path[clip-path] {
	--t:0.8s;
	animation:zk var(--t) linear forwards var(--d);
	stroke-dasharray:3337;
	stroke-dashoffset:3339;
	stroke-width:128;
	stroke-linecap:round;
	fill:none;
	stroke:#000;
}
svg.acjk path[id] {fill:#ccc;}
]]>
</style>
<path id="z28331d1" d="M223 185Q247 212 271 243Q284 259 302 260Q314 261 321 247Q328 231 322 198Q315 165 224 133Q208 127 200 129Q194 133 194 147Q197 160 223 185Z"/>
<path id="z28331d2" d="M114 388Q162 445 198 461Q214 465 223 451Q230 438 227 421Q215 375 130 350Q129 349 128 349Q112 345 101 348Q95 349 97 362Q98 374 114 388Z"/>
<path id="z28331d3" d="M112 734Q99 738 102 756Q114 834 153 852Q160 859 171 857Q178 856 179 829Q188 775 289 513Q296 497 295 490Q294 480 285 487Q275 493 154 689Q141 711 112 734Z"/>
<path id="z28331d4" d="M454 168Q442 161 408 155Q396 152 393 157Q386 164 395 180Q429 256 448 379Q451 416 472 441Q490 463 495 447Q496 441 498 434C499 418 499 418 499 410Q498 391 494 366Q470 242 464 201C462 190 464 173 454 168Z"/>
<path id="z28331d5" d="M674 414C686 432 697 444 708 451C715 456 724 453 735 438C747 419 764 356 791 251C796 229 808 211 825 195C833 186 834 177 827 168C817 155 798 140 769 123C756 115 744 115 734 118C715 123 691 127 663 132C628 137 588 144 544 152C509 158 480 164 454 168C443 170 453 201 464 201C466 201 470 201 474 200C500 193 530 186 567 181C584 178 584 178 593 177C671 164 716 158 729 169C739 177 742 189 739 205C718 303 703 359 696 374C692 380 688 385 681 389C674 393 669 407 674 414Z"/>
<path id="z28331d6" d="M567 181Q567 184 572 190Q581 247 508 362Q504 366 504 371Q505 374 508 373Q532 367 586 287C593 276 593 276 596 270Q605 254 611 241Q618 225 623 216Q627 209 621 199Q608 183 595 177Q594 176 593 177C585 174 564 173 567 181Z"/>
<path id="z28331d7" d="M586 287Q590 291 601 298Q667 347 673 348Q679 347 682 339Q683 330 678 313Q672 291 597 270C596 270 596 270 596 270C590 269 581 283 586 287Z"/>
<path id="z28331d8" d="M498 434Q504 435 514 434Q605 421 674 414C682 412 688 393 681 389Q674 383 661 381Q640 377 603 385Q546 398 499 410C491 412 490 434 498 434Z"/>
<path id="z28331d9" d="M412 553Q402 546 364 539Q352 536 349 541Q342 547 351 563Q382 633 398 747Q399 769 409 787C416 798 448 797 448 784Q449 763 444 736Q425 624 420 585C418 574 422 558 412 553Z"/>
<path id="z28331d10" d="M785 752C791 724 798 696 806 670C816 631 834 599 859 572C873 556 870 542 851 530C832 517 814 505 797 494C786 487 759 494 713 505C696 508 596 521 412 553C401 555 409 587 420 585C450 577 476 569 499 566C515 563 515 563 523 562C551 557 584 551 620 548C641 546 641 546 652 545C678 542 709 537 743 535C753 534 759 536 763 541C771 553 771 570 767 592C758 636 744 692 723 760C715 779 781 772 785 752Z"/>
<path id="z28331d11" d="M547 777Q547 776 548 774Q555 735 531 584Q530 571 523 562C519 555 499 558 499 566Q505 641 505 662Q505 749 523 779C526 786 545 785 547 777Z"/>
<path id="z28331d12" d="M647 768Q666 642 683 601Q690 583 680 571Q667 555 652 545C643 539 618 537 620 548Q629 617 627 649Q623 689 611 772C609 784 645 780 647 768Z"/>
<path id="z28331d13" d="M409 787C371 789 332 792 294 795C279 796 276 802 287 814C295 823 305 829 318 834C331 839 344 839 355 837C502 804 691 796 920 811C932 811 941 809 945 804C949 796 945 787 935 778C899 747 861 739 820 747C808 749 796 750 785 752C744 757 744 757 723 760C699 763 673 765 647 768C623 771 623 771 611 772C606 772 564 775 547 777C531 778 531 778 523 779C498 781 473 782 448 784C422 786 422 786 409 787Z"/>
<defs>
	<clipPath id="z28331c1"><use xlink:href="#z28331d1"/></clipPath>
	<clipPath id="z28331c2"><use xlink:href="#z28331d2"/></clipPath>
	<clipPath id="z28331c3"><use xlink:href="#z28331d3"/></clipPath>
	<clipPath id="z28331c4"><use xlink:href="#z28331d4"/></clipPath>
	<clipPath id="z28331c5"><use xlink:href="#z28331d5"/></clipPath>
	<clipPath id="z28331c6"><use xlink:href="#z28331d6"/></clipPath>
	<clipPath id="z28331c7"><use xlink:href="#z28331d7"/></clipPath>
	<clipPath id="z28331c8"><use xlink:href="#z28331d8"/></clipPath>
	<clipPath id="z28331c9"><use xlink:href="#z28331d9"/></clipPath>
	<clipPath id="z28331c10"><use xlink:href="#z28331d10"/></clipPath>
	<clipPath id="z28331c11"><use xlink:href="#z28331d11"/></clipPath>
	<clipPath id="z28331c12"><use xlink:href="#z28331d12"/></clipPath>
	<clipPath id="z28331c13"><use xlink:href="#z28331d13"/></clipPath>
</defs>
<path style="--d:1s;" pathLength="3333" clip-path="url(#z28331c1)" d="M202 137L287 205L311 252"/>
<path style="--d:2s;" pathLength="3333" clip-path="url(#z28331c2)" d="M104 355L217 451"/>
<path style="--d:3s;" pathLength="3333" clip-path="url(#z28331c3)" d="M168 850L150 752L288 492"/>
<path style="--d:4s;" pathLength="3333" clip-path="url(#z28331c4)" d="M397 162L437 210L484 446"/>
<path style="--d:5s;" pathLength="3333" clip-path="url(#z28331c5)" d="M462 173L729 141L778 171L694 438"/>
<path style="--d:6s;" pathLength="3333" clip-path="url(#z28331c6)" d="M577 187L595 226L511 365"/>
<path style="--d:7s;" pathLength="3333" clip-path="url(#z28331c7)" d="M590 283L674 338"/>
<path style="--d:8s;" pathLength="3333" clip-path="url(#z28331c8)" d="M505 427L677 400"/>
<path style="--d:9s;" pathLength="3333" clip-path="url(#z28331c9)" d="M353 545L389 578L429 785"/>
<path style="--d:10s;" pathLength="3333" clip-path="url(#z28331c10)" d="M420 560L784 522L818 564L758 744L732 752"/>
<path style="--d:11s;" pathLength="3333" clip-path="url(#z28331c11)" d="M518 568L536 775"/>
<path style="--d:12s;" pathLength="3333" clip-path="url(#z28331c12)" d="M628 553L655 595L623 769"/>
<path style="--d:13s;" pathLength="3333" clip-path="url(#z28331c13)" d="M288 804L827 775L941 796"/>
</svg>