<!--
AnimCJK 2016-2018 Copyright Francois Mizessyn, https://github.com/parsimonhi/animCJK
Derived from:
    MakeMeAHanzi project - https://github.com/skishore/makemeahanzi
    Arphic PL KaitiM GB - https://apps.ubuntu.com/cat/applications/precise/fonts-arphic-gkai00mp/
    Arphic PL UKai - https://apps.ubuntu.com/cat/applications/fonts-arphic-ukai/
You can redistribute and/or modify this file under the terms of the Arphic Public License
as published by Arphic Technology Co., Ltd.
You should have received a copy of this license (the directory "APL") along with this file;
if not, see http://ftp.gnu.org/non-gnu/chinese-fonts-truetype/LICENSE.
-->
<svg id="z28500" class="acjk" version="1.1" viewBox="0 0 1024 1024" xmlns="http://www.w3.org/2000/svg" xmlns:xlink="http://www.w3.org/1999/xlink">
<style>
<![CDATA[
@keyframes z28500k {
	from {
		stroke:#c00;
		stroke-dashoffset:3334;
	}
	75% {
		stroke:#c00;
		stroke-dashoffset:0;
	}
	to {
		stroke:#000;
	}
}
#z28500 path[clip-path] {
	animation:z28500k 1s linear both;
	stroke-dasharray:3334;
	stroke-width:128;
	stroke-linecap:round;
	fill:none;
}
#z28500 path[clip-path="url(#z28500c1)"] {animation-delay:1s;}
#z28500 path[clip-path="url(#z28500c2)"] {animation-delay:2s;}
#z28500 path[clip-path="url(#z28500c3)"] {animation-delay:3s;}
#z28500 path[clip-path="url(#z28500c4)"] {animation-delay:4s;}
#z28500 path[clip-path="url(#z28500c5)"] {animation-delay:5s;}
#z28500 path[clip-path="url(#z28500c6)"] {animation-delay:6s;}
#z28500 path[clip-path="url(#z28500c7)"] {animation-delay:7s;}
#z28500 path[clip-path="url(#z28500c8)"] {animation-delay:8s;}
#z28500 path[clip-path="url(#z28500c9)"] {animation-delay:9s;}
#z28500 path[clip-path="url(#z28500c10)"] {animation-delay:10s;}
#z28500 path[clip-path="url(#z28500c11)"] {animation-delay:11s;}
#z28500 path[clip-path="url(#z28500c12)"] {animation-delay:12s;}
#z28500 path[clip-path="url(#z28500c13)"] {animation-delay:13s;}
#z28500 path[clip-path="url(#z28500c14)"] {animation-delay:14s;}
#z28500 path[clip-path="url(#z28500c15)"] {animation-delay:15s;}
#z28500 path {fill:#ccc;}
]]>
</style>
<path id="z28500d1" d="M223 182Q245 204 271 229Q284 242 301 241Q311 241 317 227Q321 212 313 183Q304 155 218 134Q202 130 196 133Q192 137 192 150Q196 160 223 182 Z"/>
<path id="z28500d2" d="M141 377Q183 432 210 444Q225 448 235 435Q242 422 240 405Q236 380 218 366Q197 351 156 339Q140 332 130 336Q123 337 125 350Q126 362 141 377 Z"/>
<path id="z28500d3" d="M138 730Q125 733 127 751Q139 827 176 849Q183 856 194 854Q201 853 203 826Q212 774 305 541Q312 525 311 518Q310 508 301 515Q292 521 176 692Q164 711 138 730 Z"/>
<path id="z28500d4" d="M490 184Q589 148 590 147Q596 140 592 133Q585 124 561 121Q533 120 489 144L446 161Q410 171 371 181Q343 190 365 200Q398 212 451 197L490 184 Z"/>
<path id="z28500d5" d="M461 347L460 327C459 312 458 296 458 279L455 246C453 228 451 212 451 197L446 161C442 127 432 96 416 69C407 61 406 55 413 50C424 44 436 42 449 46C465 52 477 59 486 65C492 71 494 80 492 90C490 102 489 120 489 144L490 184C490 200 491 216 492 232L493 268C493 284 494 300 495 316L495 336C495 336 495 336 495 336L461 347 Z"/>
<path id="z28500d6" d="M493 278Q517 269 546 261Q570 254 573 250Q579 243 575 238Q569 231 548 227Q521 226 492 242L455 256Q454 256 452 257Q421 267 383 275Q358 282 377 292Q399 299 458 289L493 278 Z"/>
<path id="z28500d7" d="M496 368Q521 355 551 343Q593 322 597 310Q593 306 583 307Q541 320 495 336L460 347Q412 360 362 376Q346 380 321 380Q311 381 309 389Q308 399 315 406Q333 419 358 433Q367 436 376 429Q419 395 462 383L496 368 Z"/>
<path id="z28500d8" d="M705 184Q757 168 800 161Q813 158 817 163Q824 173 819 198Q812 268 796 298Q780 326 754 321Q735 317 717 311Q695 304 711 325Q745 359 761 386Q774 402 788 390Q840 357 869 217Q876 183 890 165Q900 155 895 146Q888 136 845 117Q827 110 811 121Q795 131 732 148Q668 167 614 173Q599 174 597 181Q596 187 616 196Q635 208 651 201Q661 197 675 194L705 184 Z"/>
<path id="z28500d9" d="M675 194Q687 245 612 358Q608 362 608 367Q609 370 613 369Q646 356 713 247Q720 229 727 221Q731 212 724 204Q714 191 705 184L675 194 Z"/>
<path id="z28500d10" d="M577 533Q565 529 544 528Q514 525 497 522Q493 518 493 515Q493 512 571 455Q596 445 585 422Q569 389 550 379Q537 372 529 376Q522 380 525 392Q537 425 480 484Q477 485 476 487Q457 506 445 508Q423 511 415 524Q403 548 407 559Q410 575 425 568Q441 553 552 553L577 533 Z"/>
<path id="z28500d11" d="M590 639Q648 623 709 614L698 597Q614 606 515 626Q508 627 513 622Q553 591 644 532Q678 507 705 494Q718 488 715 478Q711 459 686 435Q676 422 666 423Q656 423 655 437Q646 473 577 533L552 553Q429 638 429 642Q429 643 429 647Q428 659 447 680Q454 692 468 684Q513 662 561 648L590 639 Z"/>
<path id="z28500d12" d="M709 614Q736 654 747 658Q754 659 761 651Q768 641 768 617Q768 599 746 579Q691 539 680 542Q676 543 674 553Q674 557 698 597L709 614 Z"/>
<path id="z28500d13" d="M561 648Q561 651 563 655Q576 689 576 797Q575 834 571 844Q568 857 544 854L496 846Q484 845 483 852Q482 858 492 866Q552 915 571 944Q584 957 595 955Q607 951 618 918Q634 885 631 825Q628 749 629 721Q636 681 619 661Q603 646 590 639L561 648 Z"/>
<path id="z28500d14" d="M407 718Q380 764 345 803Q323 833 335 866Q339 885 361 875Q412 844 425 776Q434 745 430 721Q426 712 421 710Q412 710 407 718 Z"/>
<path id="z28500d15" d="M723 722Q769 768 825 836Q838 857 853 861Q862 862 869 854Q882 841 871 800Q864 752 729 694Q728 693 726 693Q717 687 715 699Q714 712 723 722 Z"/>
<defs>
	<clipPath id="z28500c1"><use xlink:href="#z28500d1"/></clipPath>
	<clipPath id="z28500c2"><use xlink:href="#z28500d2"/></clipPath>
	<clipPath id="z28500c3"><use xlink:href="#z28500d3"/></clipPath>
	<clipPath id="z28500c4"><use xlink:href="#z28500d4"/></clipPath>
	<clipPath id="z28500c5"><use xlink:href="#z28500d5"/></clipPath>
	<clipPath id="z28500c6"><use xlink:href="#z28500d6"/></clipPath>
	<clipPath id="z28500c7"><use xlink:href="#z28500d7"/></clipPath>
	<clipPath id="z28500c8"><use xlink:href="#z28500d8"/></clipPath>
	<clipPath id="z28500c9"><use xlink:href="#z28500d9"/></clipPath>
	<clipPath id="z28500c10"><use xlink:href="#z28500d10"/></clipPath>
	<clipPath id="z28500c11"><use xlink:href="#z28500d11"/></clipPath>
	<clipPath id="z28500c12"><use xlink:href="#z28500d12"/></clipPath>
	<clipPath id="z28500c13"><use xlink:href="#z28500d13"/></clipPath>
	<clipPath id="z28500c14"><use xlink:href="#z28500d14"/></clipPath>
	<clipPath id="z28500c15"><use xlink:href="#z28500d15"/></clipPath>
</defs>
<path pathLength="3333" clip-path="url(#z28500c1)" d="M199 137L309 233"/>
<path pathLength="3333" clip-path="url(#z28500c2)" d="M131 343L230 437"/>
<path pathLength="3333" clip-path="url(#z28500c3)" d="M190 849L175 750L304 518"/>
<path pathLength="3333" clip-path="url(#z28500c4)" d="M362 190L585 138"/>
<path pathLength="3333" clip-path="url(#z28500c5)" d="M416 58L463 98L474 341"/>
<path pathLength="3333" clip-path="url(#z28500c6)" d="M374 284L571 240"/>
<path pathLength="3333" clip-path="url(#z28500c7)" d="M316 390L368 403L586 312"/>
<path pathLength="3333" clip-path="url(#z28500c8)" d="M608 183L818 137L857 157L803 333L772 358L713 315"/>
<path pathLength="3333" clip-path="url(#z28500c9)" d="M683 197L699 232L614 363"/>
<path pathLength="3333" clip-path="url(#z28500c10)" d="M534 383L554 435L451 539L565 533"/>
<path pathLength="3333" clip-path="url(#z28500c11)" d="M666 427L677 476L474 638L490 655L699 610"/>
<path pathLength="3333" clip-path="url(#z28500c12)" d="M683 551L739 610L750 653"/>
<path pathLength="3333" clip-path="url(#z28500c13)" d="M567 653L602 706L594 878L574 904L491 854"/>
<path pathLength="3333" clip-path="url(#z28500c14)" d="M419 718L347 873"/>
<path pathLength="3333" clip-path="url(#z28500c15)" d="M722 702L825 785L866 854"/>
</svg>