<!--
AnimCJK 2016-2017 Copyright Francois Mizessyn, http://gooo.free.fr/animCJK/
Derived from:
    MakeMeAHanzi project - https://github.com/skishore/makemeahanzi
    Arphic PL KaitiM GB - https://apps.ubuntu.com/cat/applications/precise/fonts-arphic-gkai00mp/
    Arphic PL UKai - https://apps.ubuntu.com/cat/applications/fonts-arphic-ukai/
You can redistribute and/or modify this file under the terms of the Arphic Public License
as published by Arphic Technology Co., Ltd.
You should have received a copy of this license (the directory "APL") along with this file;
if not, see http://ftp.gnu.org/non-gnu/chinese-fonts-truetype/LICENSE.
-->
<svg id="z28528" class="acjk" version="1.1" viewBox="0 0 1024 1024" xmlns="http://www.w3.org/2000/svg" xmlns:xlink="http://www.w3.org/1999/xlink">
<style>
<![CDATA[
	@keyframes z28528k {
		from {
			stroke:#c00;
			stroke-dashoffset:3000;
		}
		75% {
			stroke:#c00;
			stroke-dashoffset:0;
		}
		to {
			stroke:#000;
		}
	}
	#z28528 path[clip-path] {
		animation:z28528k 1s linear both;
		stroke-dasharray:3000;
		stroke-width:128;
		stroke-linecap:round;
		fill:none;
	}
	#z28528 path[clip-path="url(#z28528c1)"] {animation-delay:1s;}
	#z28528 path[clip-path="url(#z28528c2)"] {animation-delay:2s;}
	#z28528 path[clip-path="url(#z28528c3)"] {animation-delay:3s;}
	#z28528 path[clip-path="url(#z28528c4)"] {animation-delay:4s;}
	#z28528 path[clip-path="url(#z28528c5)"] {animation-delay:5s;}
	#z28528 path[clip-path="url(#z28528c6)"] {animation-delay:6s;}
	#z28528 path[clip-path="url(#z28528c7)"] {animation-delay:7s;}
	#z28528 path[clip-path="url(#z28528c8)"] {animation-delay:8s;}
	#z28528 path[clip-path="url(#z28528c9)"] {animation-delay:9s;}
	#z28528 path[clip-path="url(#z28528c10)"] {animation-delay:10s;}
	#z28528 path[clip-path="url(#z28528c11)"] {animation-delay:11s;}
	#z28528 path[clip-path="url(#z28528c12)"] {animation-delay:12s;}
	#z28528 path[clip-path="url(#z28528c13)"] {animation-delay:13s;}
	#z28528 path[clip-path="url(#z28528c14)"] {animation-delay:14s;}
	#z28528 path[clip-path="url(#z28528c15)"] {animation-delay:15s;}
	#z28528 path {fill:#ccc;}
]]>
</style>
<g transform="scale(1,-1) translate(0,-900)">
	<path id="z28528d1" d="M247 715Q274 693 301 664Q316 651 332 650Q342 651 349 665Q353 680 345 711Q339 732 308 746Q235 774 220 767Q214 763 216 750Q220 738 247 715Z"/>
	<path id="z28528d2" d="M135 508Q178 457 214 442Q230 439 239 453Q245 466 242 483Q230 523 148 547Q130 553 121 548Q115 547 118 534Q119 522 135 508Z"/>
	<path id="z28528d3" d="M146 141Q133 137 136 117Q157 36 196 16Q203 9 215 13Q224 14 223 43Q229 109 311 357Q317 375 316 382Q315 392 305 385Q286 372 190 196Q163 157 146 141Z"/>
	<path id="z28528d4" d="M465 732Q455 736 422 738Q412 739 409 734Q405 727 414 714Q436 684 459 630Q463 614 476 604Q495 588 497 602Q498 606 498 612L493 640Q480 686 477 705L465 732Z"/>
	<path id="z28528d5" d="M753 677Q772 716 796 726Q811 741 799 756Q786 768 742 791Q727 798 709 792Q669 777 630 764L574 751Q519 741 465 732L477 705Q480 708 575 726L628 737Q655 744 683 749Q708 756 719 745Q725 736 708 683L753 677Z"/>
	<path id="z28528d6" d="M621 632Q678 642 761 650Q771 651 772 658Q772 664 753 677L708 683Q707 684 705 683Q662 673 623 663L577 654Q534 647 493 640L498 612Q508 611 517 613Q541 620 578 625L621 632Z"/>
	<path id="z28528d7" d="M616 569Q617 602 621 632L623 663Q624 702 628 737L630 764Q633 788 636 803Q640 816 643 827Q646 837 628 851Q597 867 574 871Q559 874 552 866Q545 859 553 846Q569 822 574 751L575 726Q576 692 577 654L578 625Q578 595 577 563L616 569Z"/>
	<path id="z28528d8" d="M577 563Q459 544 323 522Q304 519 319 503Q332 490 350 486Q371 482 386 486Q623 561 921 560Q925 561 933 561Q952 561 956 570Q960 582 945 594Q894 628 857 620Q769 598 617 570Q616 570 616 569L577 563Z"/>
	<path id="z28528d9" d="M480 462Q464 469 452 468Q442 464 446 454Q486 376 456 247Q438 187 465 159Q472 147 480 153Q487 159 493 173L502 206Q505 225 506 267L506 290Q506 324 506 348L506 372Q506 402 508 434L480 462Z"/>
	<path id="z28528d10" d="M711 187Q712 177 720 165Q733 137 742 138Q755 139 771 171Q784 195 780 244Q768 403 792 441Q802 456 795 466Q719 529 668 499Q581 472 480 462L508 434Q524 443 672 466Q696 470 703 458Q716 443 716 389Q720 251 714 214L711 187Z"/>
	<path id="z28528d11" d="M506 348Q510 348 515 348Q596 361 656 370Q677 374 669 385Q659 398 637 402Q612 405 506 372L506 348Z"/>
	<path id="z28528d12" d="M506 267Q512 266 520 267Q605 280 667 287Q688 290 681 301Q671 314 649 319Q622 322 506 290L506 267Z"/>
	<path id="z28528d13" d="M493 173Q497 173 503 173Q570 185 711 187L714 214Q708 218 700 225Q685 234 657 229Q572 213 502 206L493 173Z"/>
	<path id="z28528d14" d="M510 116Q492 58 346 -45Q324 -57 351 -56Q405 -59 529 35Q530 39 577 75Q589 85 587 95Q586 108 561 118Q534 131 522 129Q515 128 510 116Z"/>
	<path id="z28528d15" d="M666 95Q717 37 775 -48Q788 -70 804 -76Q813 -79 821 -70Q836 -58 828 -12Q824 49 671 126Q662 133 659 120Q656 107 666 95Z"/>
	<defs>
		<clipPath id="z28528c1"><use xlink:href="#z28528d1"/></clipPath>
		<clipPath id="z28528c2"><use xlink:href="#z28528d2"/></clipPath>
		<clipPath id="z28528c3"><use xlink:href="#z28528d3"/></clipPath>
		<clipPath id="z28528c4"><use xlink:href="#z28528d4"/></clipPath>
		<clipPath id="z28528c5"><use xlink:href="#z28528d5"/></clipPath>
		<clipPath id="z28528c6"><use xlink:href="#z28528d6"/></clipPath>
		<clipPath id="z28528c7"><use xlink:href="#z28528d7"/></clipPath>
		<clipPath id="z28528c8"><use xlink:href="#z28528d8"/></clipPath>
		<clipPath id="z28528c9"><use xlink:href="#z28528d9"/></clipPath>
		<clipPath id="z28528c10"><use xlink:href="#z28528d10"/></clipPath>
		<clipPath id="z28528c11"><use xlink:href="#z28528d11"/></clipPath>
		<clipPath id="z28528c12"><use xlink:href="#z28528d12"/></clipPath>
		<clipPath id="z28528c13"><use xlink:href="#z28528d13"/></clipPath>
		<clipPath id="z28528c14"><use xlink:href="#z28528d14"/></clipPath>
		<clipPath id="z28528c15"><use xlink:href="#z28528d15"/></clipPath>
	</defs>
	<path pathLength="2999" clip-path="url(#z28528c1)" d="M223 762L306 708L339 659"/>
	<path pathLength="2999" clip-path="url(#z28528c2)" d="M125 541L234 454"/>
	<path pathLength="2999" clip-path="url(#z28528c3)" d="M211 15L186 121L310 379"/>
	<path pathLength="2999" clip-path="url(#z28528c4)" d="M416 730L447 711L490 603"/>
	<path pathLength="2999" clip-path="url(#z28528c5)" d="M473 729L728 770L761 732L725 681"/>
	<path pathLength="2999" clip-path="url(#z28528c6)" d="M500 638L761 661"/>
	<path pathLength="2999" clip-path="url(#z28528c7)" d="M556 863L605 818L589 566"/>
	<path pathLength="2999" clip-path="url(#z28528c8)" d="M322 510L836 588L953 576"/>
	<path pathLength="2999" clip-path="url(#z28528c9)" d="M454 461L485 418L474 157"/>
	<path pathLength="2999" clip-path="url(#z28528c10)" d="M491 460L681 487L745 460L736 143"/>
	<path pathLength="2999" clip-path="url(#z28528c11)" d="M512 356L664 384"/>
	<path pathLength="2999" clip-path="url(#z28528c12)" d="M515 275L677 298"/>
	<path pathLength="2999" clip-path="url(#z28528c13)" d="M500 180L711 199"/>
	<path pathLength="2999" clip-path="url(#z28528c14)" d="M582 97L535 92L452 8L346 -49"/>
	<path pathLength="2999" clip-path="url(#z28528c15)" d="M666 121L777 12L813 -69"/>
</g>
</svg>