<!--
AnimCJK 2016-2026 Copyright FM-SH - https://github.com/parsimonhi/animCJK
Derived from:
    MakeMeAHanzi project - https://github.com/skishore/makemeahanzi
    Arphic PL KaitiM GB font
    Arphic PL KaitiM Big5 font
You can redistribute and/or modify this file under the terms of the Arphic Public License
as published by Arphic Technology Co., Ltd.
You should have received a copy of this license along with this file.
If not, see https://ftp.gnu.org/non-gnu/chinese-fonts-truetype/LICENSE.
-->
<svg id="z28673" class="acjk" viewBox="0 0 1024 1024" xmlns="http://www.w3.org/2000/svg">
<style>
<![CDATA[
@keyframes zk {
	to {
		stroke-dashoffset:0;
	}
}
svg.acjk path[clip-path] {
	--t:0.8s;
	animation:zk var(--t) linear forwards var(--d);
	stroke-dasharray:3337;
	stroke-dashoffset:3339;
	stroke-width:128;
	stroke-linecap:round;
	fill:none;
	stroke:#000;
}
svg.acjk path[id] {fill:#ccc;}
]]>
</style>
<path id="z28673d1" d="M240 198C256 214 273 231 291 251C299 259 309 264 321 265C329 265 335 260 339 251C343 241 342 225 336 204C333 191 321 179 301 169C255 148 226 140 214 145C210 147 208 153 209 162C211 170 222 182 240 198Z"/>
<path id="z28673d2" d="M161 403C195 445 222 470 242 478C252 480 260 477 267 469C271 460 273 450 272 439C266 411 234 386 176 364C165 360 156 359 150 362C145 362 143 367 145 376C145 384 151 393 161 403Z"/>
<path id="z28673d3" d="M143 769C135 772 130 777 132 789C139 837 154 867 173 881C177 884 194 887 200 861C205 834 243 742 316 583C332 547 311 557 293 579C272 606 235 656 183 732C174 744 162 758 143 769Z"/>
<path id="z28673d4" d="M507 170C520 180 532 192 545 204C552 210 560 212 568 212C573 211 576 208 579 202C581 194 580 183 575 169C569 154 544 142 502 134C494 133 488 133 485 134C482 135 481 140 483 147C484 152 493 160 507 170Z"/>
<path id="z28673d5" d="M651 198C646 206 649 212 657 207C703 174 725 156 751 139C775 122 742 105 725 97C705 87 687 88 692 104C698 129 662 177 651 198Z"/>
<path id="z28673d6" d="M617 269C654 262 695 257 737 249C763 243 782 240 799 234C816 227 807 206 778 204C757 201 709 216 659 227C591 241 520 251 444 257C428 258 423 268 436 275C477 296 534 282 580 275C605 271 605 271 617 269Z"/>
<path id="z28673d7" d="M624 387C626 371 627 360 629 347C632 324 632 324 633 312C636 284 640 285 617 269C606 263 578 263 580 275C581 280 584 293 585 323C586 344 586 344 586 354C586 365 586 376 587 393C587 405 622 399 624 387Z"/>
<path id="z28673d8" d="M629 347C709 333 744 324 755 321C769 315 764 297 733 293C719 290 686 299 633 312C601 319 601 319 585 323C553 330 520 329 485 333C468 334 465 341 478 350C497 362 526 363 586 354C615 349 615 349 629 347Z"/>
<path id="z28673d9" d="M515 433C549 424 618 418 645 416C662 415 662 415 671 414C718 410 775 407 844 406C863 405 870 393 853 380C827 360 804 351 787 356C745 365 691 376 624 387C599 391 599 391 587 393C519 403 446 414 367 425C357 426 355 433 364 443C379 459 403 459 415 457C434 452 451 448 474 443C501 436 501 436 515 433Z"/>
<path id="z28673d10" d="M490 530C512 505 502 514 521 494C530 483 530 483 535 478C557 452 532 445 515 433C503 426 476 429 474 443C472 486 392 592 292 689C270 709 278 719 295 710C374 665 439 585 466 556C482 539 482 539 490 530Z"/>
<path id="z28673d11" d="M645 416C671 451 725 512 831 606C844 618 862 624 885 625C925 625 951 618 980 612C1003 606 1002 599 986 593C968 586 943 575 923 568C809 528 751 475 671 414C664 409 640 409 645 416Z"/>
<path id="z28673d12" d="M618 487C652 479 663 463 632 454C610 447 567 466 535 478C528 480 516 489 521 494C532 511 593 493 618 487Z"/>
<path id="z28673d13" d="M641 677C653 692 666 705 679 686C684 676 693 644 706 592C709 578 716 564 727 553C732 547 733 540 728 535C720 526 706 517 688 506C666 492 668 501 509 543C500 545 517 570 526 566C537 561 575 552 642 538C662 533 669 545 668 557C659 602 652 636 644 653C641 660 636 671 641 677Z"/>
<path id="z28673d14" d="M523 628C533 628 599 614 628 610C638 607 641 601 637 595C631 587 623 583 611 583C596 581 568 590 523 608C517 610 516 628 523 628Z"/>
<path id="z28673d15" d="M523 696C543 694 589 682 641 677C649 676 651 656 644 653C635 649 617 647 605 651C574 660 546 667 523 672C515 674 515 698 523 696Z"/>
<path id="z28673d16" d="M509 543C503 537 496 533 490 530C479 526 462 545 466 556C484 602 490 677 481 779C478 805 466 830 445 857C439 864 437 874 442 887C446 901 451 912 459 918C465 922 472 920 479 911C490 896 538 860 626 802C635 795 643 791 646 787C648 782 647 778 642 778C637 777 600 790 533 817C523 821 518 818 519 809C520 767 523 732 523 696C523 680 523 680 523 672C523 643 523 643 523 628C523 615 523 615 523 608C523 593 524 580 526 566C528 557 517 549 509 543Z"/>
<path id="z28673d17" d="M707 739C730 722 778 685 803 666C825 647 798 635 780 626C759 615 751 616 749 630C743 657 725 685 690 734C686 739 702 743 707 739Z"/>
<path id="z28673d18" d="M690 734C664 726 645 720 629 717C620 715 617 734 635 743C691 771 755 808 827 854C845 865 854 877 866 854C869 846 865 831 855 812C839 786 791 763 707 739C696 736 696 736 690 734Z"/>
<defs>
	<clipPath id="z28673c1"><use href="#z28673d1"/></clipPath>
	<clipPath id="z28673c2"><use href="#z28673d2"/></clipPath>
	<clipPath id="z28673c3"><use href="#z28673d3"/></clipPath>
	<clipPath id="z28673c4"><use href="#z28673d4"/></clipPath>
	<clipPath id="z28673c5"><use href="#z28673d5"/></clipPath>
	<clipPath id="z28673c6"><use href="#z28673d6"/></clipPath>
	<clipPath id="z28673c7"><use href="#z28673d7"/></clipPath>
	<clipPath id="z28673c8"><use href="#z28673d8"/></clipPath>
	<clipPath id="z28673c9"><use href="#z28673d9"/></clipPath>
	<clipPath id="z28673c10"><use href="#z28673d10"/></clipPath>
	<clipPath id="z28673c11"><use href="#z28673d11"/></clipPath>
	<clipPath id="z28673c12"><use href="#z28673d12"/></clipPath>
	<clipPath id="z28673c13"><use href="#z28673d13"/></clipPath>
	<clipPath id="z28673c14"><use href="#z28673d14"/></clipPath>
	<clipPath id="z28673c15"><use href="#z28673d15"/></clipPath>
	<clipPath id="z28673c16"><use href="#z28673d16"/></clipPath>
	<clipPath id="z28673c17"><use href="#z28673d17"/></clipPath>
	<clipPath id="z28673c18"><use href="#z28673d18"/></clipPath>
</defs>
<path style="--d:1s;" pathLength="3333" clip-path="url(#z28673c1)" d="M216 153L292 202L327 259"/>
<path style="--d:2s;" pathLength="3333" clip-path="url(#z28673c2)" d="M151 368L259 471"/>
<path style="--d:3s;" pathLength="3333" clip-path="url(#z28673c3)" d="M136 780L185 819L314 564"/>
<path style="--d:4s;" pathLength="3333" clip-path="url(#z28673c4)" d="M491 143L574 201"/>
<path style="--d:5s;" pathLength="3333" clip-path="url(#z28673c5)" d="M699 94L722 132L655 203"/>
<path style="--d:6s;" pathLength="3333" clip-path="url(#z28673c6)" d="M434 266L803 222"/>
<path style="--d:7s;" pathLength="3333" clip-path="url(#z28673c7)" d="M588 273L610 303L603 396"/>
<path style="--d:8s;" pathLength="3333" clip-path="url(#z28673c8)" d="M477 341L754 311"/>
<path style="--d:9s;" pathLength="3333" clip-path="url(#z28673c9)" d="M364 432L797 380L855 389"/>
<path style="--d:10s;" pathLength="3333" clip-path="url(#z28673c10)" d="M484 434L504 469L472 513L284 707"/>
<path style="--d:11s;" pathLength="3333" clip-path="url(#z28673c11)" d="M652 415L855 580L992 600"/>
<path style="--d:12s;" pathLength="3333" clip-path="url(#z28673c12)" d="M524 491L644 465"/>
<path style="--d:13s;" pathLength="3333" clip-path="url(#z28673c13)" d="M512 550L654 519L695 540L657 688"/>
<path style="--d:14s;" pathLength="3333" clip-path="url(#z28673c14)" d="M526 619L632 603"/>
<path style="--d:15s;" pathLength="3333" clip-path="url(#z28673c15)" d="M521 686L642 661"/>
<path style="--d:16s;" pathLength="3333" clip-path="url(#z28673c16)" d="M485 532L504 674L484 863L639 784"/>
<path style="--d:17s;" pathLength="3333" clip-path="url(#z28673c17)" d="M759 623L772 661L697 733"/>
<path style="--d:18s;" pathLength="3333" clip-path="url(#z28673c18)" d="M629 723L811 809L859 859"/>
</svg>