<!--
AnimCJK 2016-2018 Copyright Francois Mizessyn, https://github.com/parsimonhi/animCJK
Derived from:
    MakeMeAHanzi project - https://github.com/skishore/makemeahanzi
    Arphic PL KaitiM GB - https://apps.ubuntu.com/cat/applications/precise/fonts-arphic-gkai00mp/
    Arphic PL UKai - https://apps.ubuntu.com/cat/applications/fonts-arphic-ukai/
You can redistribute and/or modify this file under the terms of the Arphic Public License
as published by Arphic Technology Co., Ltd.
You should have received a copy of this license (the directory "APL") along with this file;
if not, see http://ftp.gnu.org/non-gnu/chinese-fonts-truetype/LICENSE.
-->
<svg id="z28779" class="acjk" version="1.1" viewBox="0 0 1024 1024" xmlns="http://www.w3.org/2000/svg" xmlns:xlink="http://www.w3.org/1999/xlink">
<style>
<![CDATA[
@keyframes z28779k {
	from {
		stroke:#c00;
		stroke-dashoffset:3334;
	}
	75% {
		stroke:#c00;
		stroke-dashoffset:0;
	}
	to {
		stroke:#000;
	}
}
#z28779 path[clip-path] {
	animation:z28779k 1s linear both;
	stroke-dasharray:3334;
	stroke-width:128;
	stroke-linecap:round;
	fill:none;
}
#z28779 path[clip-path="url(#z28779c1)"] {animation-delay:1s;}
#z28779 path[clip-path="url(#z28779c2)"] {animation-delay:2s;}
#z28779 path[clip-path="url(#z28779c3)"] {animation-delay:3s;}
#z28779 path[clip-path="url(#z28779c4)"] {animation-delay:4s;}
#z28779 path {fill:#ccc;}
]]>
</style>
<path id="z28779d1" d="M226 417Q254 457 285 507Q295 525 312 528Q324 531 333 519Q342 504 342 470Q342 428 235 364Q220 357 213 357Q206 360 204 374Q205 387 226 417 Z"/>
<path id="z28779d2" d="M690 332Q677 353 584 459Q571 478 592 475Q638 451 738 387Q762 368 791 357Q816 347 805 325Q789 303 759 285Q731 267 715 271Q700 272 704 288Q708 310 690 332 Z"/>
<path id="z28779d3" d="M511 518Q520 461 529 282Q530 231 548 172Q554 159 543 150Q521 131 479 115Q454 105 434 111Q410 121 430 141Q464 175 465 210Q469 400 448 526Q427 691 284 794Q244 819 186 851Q170 857 167 861Q160 868 179 871Q197 872 258 852Q301 839 365 799Q414 769 442 728Q484 668 504 559L511 518 Z"/>
<path id="z28779d4" d="M504 559Q597 725 715 860Q740 891 767 891Q843 887 911 883Q939 882 940 875Q941 868 910 852Q753 783 709 743Q592 632 511 518L504 559 Z"/>
<defs>
	<clipPath id="z28779c1"><use xlink:href="#z28779d1"/></clipPath>
	<clipPath id="z28779c2"><use xlink:href="#z28779d2"/></clipPath>
	<clipPath id="z28779c3"><use xlink:href="#z28779d3"/></clipPath>
	<clipPath id="z28779c4"><use xlink:href="#z28779d4"/></clipPath>
</defs>
<path pathLength="3333" clip-path="url(#z28779c1)" d="M215 363L304 467L325 522"/>
<path pathLength="3333" clip-path="url(#z28779c2)" d="M712 278L753 341L587 470"/>
<path pathLength="3333" clip-path="url(#z28779c3)" d="M427 124L504 172L485 483L454 630L362 766L171 864"/>
<path pathLength="3333" clip-path="url(#z28779c4)" d="M512 531L607 678L728 811L784 847L930 872"/>
</svg>