<!--
AnimCJK 2016-2026 Copyright FM-SH - https://github.com/parsimonhi/animCJK
Derived from:
    MakeMeAHanzi project - https://github.com/skishore/makemeahanzi
    Arphic PL KaitiM GB font
    Arphic PL KaitiM Big5 font
You can redistribute and/or modify this file under the terms of the Arphic Public License
as published by Arphic Technology Co., Ltd.
You should have received a copy of this license along with this file.
If not, see https://ftp.gnu.org/non-gnu/chinese-fonts-truetype/LICENSE.
-->
<svg id="z28771" class="acjk" viewBox="0 0 1024 1024" xmlns="http://www.w3.org/2000/svg">
<style>
<![CDATA[
@keyframes zk {
	to {
		stroke-dashoffset:0;
	}
}
svg.acjk path[clip-path] {
	--t:0.8s;
	animation:zk var(--t) linear forwards var(--d);
	stroke-dasharray:3337;
	stroke-dashoffset:3339;
	stroke-width:128;
	stroke-linecap:round;
	fill:none;
	stroke:#000;
}
svg.acjk path[id] {fill:#ccc;}
]]>
</style>
<path id="z28771d1" d="M185 174Q210 193 238 216Q251 228 267 226Q277 225 281 212Q284 197 274 169Q261 139 177 128Q161 127 156 129Q152 133 154 145Q158 155 185 174Z"/>
<path id="z28771d2" d="M111 362Q153 407 188 422Q203 425 211 411Q217 399 213 383Q206 361 188 348Q176 339 122 324Q106 320 97 324Q91 325 94 337Q95 349 111 362Z"/>
<path id="z28771d3" d="M112 751Q100 755 105 772Q126 842 164 855Q171 861 181 857Q188 854 185 830Q185 790 241 547Q245 531 244 525Q243 516 234 523Q228 527 143 709Q134 730 112 751Z"/>
<path id="z28771d4" d="M528 59Q573 113 595 111Q607 112 612 96Q613 84 603 67Q588 43 531 36Q522 35 522 45Q521 52 528 59Z"/>
<path id="z28771d5" d="M490 154Q460 160 482 172Q512 187 573 176Q609 167 651 159Q673 155 676 151Q683 144 679 137Q672 128 649 123Q634 120 552 144Q524 151 490 154Z"/>
<path id="z28771d6" d="M503 229Q478 236 497 246Q527 256 589 242Q605 238 625 233Q638 229 640 228Q646 221 643 216Q637 209 616 204Q610 204 543 222Q525 226 503 229Z"/>
<path id="z28771d7" d="M500 294Q475 298 494 310Q521 325 623 301Q638 297 640 296Q646 290 642 284Q638 277 617 272Q605 269 542 287Q523 291 500 294Z"/>
<path id="z28771d8" d="M510 368Q503 364 481 361Q472 358 470 362Q466 366 472 379Q488 407 500 456Q503 471 512 480Q525 496 529 484Q530 478 531 469C530 454 530 454 529 447Q522 404 522 389C522 381 517 371 510 368Z"/>
<path id="z28771d9" d="M638 433Q651 396 665 387Q681 368 665 358Q652 349 632 336Q619 327 583 347Q559 356 510 368C502 370 515 393 522 389Q510 390 527 387Q560 378 587 372Q606 368 610 375Q614 379 609 394Q605 409 599 428C594 440 633 445 638 433Z"/>
<path id="z28771d10" d="M531 469Q537 470 547 468Q577 461 644 454Q651 453 652 447Q652 443 638 433C627 426 612 426 599 428Q596 428 595 428Q555 441 529 447C522 448 524 469 531 469Z"/>
<path id="z28771d11" d="M381 262Q334 262 333 262Q309 263 321 248Q358 188 393 144Q403 131 402 126Q401 116 371 93Q359 83 346 86Q339 89 343 100Q355 137 292 239Q283 246 274 257Q261 267 262 277Q266 290 276 303Q283 310 293 305Q329 281 367 281C375 281 389 262 381 262Z"/>
<path id="z28771d12" d="M427 333Q394 339 361 349Q342 356 354 341Q429 245 465 215Q474 208 469 201Q462 188 438 173Q426 166 419 168Q412 171 413 182Q414 207 381 262C372 275 372 275 367 281Q316 350 298 360Q288 367 291 377Q292 387 310 400Q317 409 329 400Q368 370 432 347C437 345 432 332 427 333Z"/>
<path id="z28771d13" d="M432 347Q438 360 448 365Q455 369 464 360Q468 353 467 338Q464 314 428 293Q424 289 420 296Q416 300 419 307Q422 320 427 333C430 342 430 342 432 347Z"/>
<path id="z28771d14" d="M284 433Q281 470 272 505Q268 532 285 550Q295 560 306 547Q328 510 315 465Q311 443 300 427Q296 423 291 423Q285 426 284 433Z"/>
<path id="z28771d15" d="M348 432Q358 490 371 499Q378 505 389 496Q393 489 396 473Q393 446 360 418Q356 414 351 420Q347 424 348 432Z"/>
<path id="z28771d16" d="M418 404Q430 458 443 464Q450 468 460 460Q464 453 465 437Q462 416 429 389Q423 385 419 392Q416 396 418 404Z"/>
<path id="z28771d17" d="M781 218Q730 218 729 218Q705 219 717 204Q748 158 777 124Q787 111 785 106Q784 96 755 73Q743 63 730 66Q721 69 726 80Q744 116 681 203Q675 207 670 213Q657 223 658 233Q662 246 672 259Q676 263 707 253Q741 237 767 237C775 237 789 218 781 218Z"/>
<path id="z28771d18" d="M827 291Q793 294 763 301Q741 307 756 291Q837 203 859 188Q868 181 864 174Q857 159 834 144Q824 137 816 139Q809 140 809 152Q810 171 781 218C772 231 772 231 767 237Q716 300 699 307Q689 313 690 323Q690 333 708 348Q715 358 727 349Q772 322 835 304C840 302 832 291 827 291Z"/>
<path id="z28771d19" d="M835 304Q848 328 859 331Q868 334 874 323Q877 316 874 301Q865 273 824 255Q818 254 816 260Q813 266 827 291C832 300 832 300 835 304Z"/>
<path id="z28771d20" d="M694 399Q703 451 720 460Q727 464 736 456Q740 449 741 435Q738 413 704 385Q700 381 695 388Q692 392 694 399Z"/>
<path id="z28771d21" d="M756 386Q771 437 790 445Q799 449 808 438Q812 431 810 413Q804 388 765 368Q759 365 756 373Q753 377 756 386Z"/>
<path id="z28771d22" d="M828 370Q846 395 866 431Q873 444 882 450Q886 451 893 446Q902 440 900 412Q897 385 865 368Q844 356 833 351Q829 347 825 354Q824 361 828 370Z"/>
<path id="z28771d23" d="M693 576Q711 549 732 537Q747 524 736 508Q672 459 628 484Q526 514 445 525Q432 526 433 534Q434 541 450 545Q471 554 499 544Q569 531 637 515Q653 511 662 518Q666 522 663 532Q656 554 649 573C644 587 684 588 693 576Z"/>
<path id="z28771d24" d="M473 640Q469 641 477 639Q549 621 705 606Q715 605 716 598Q716 591 693 576C680 568 663 570 649 573Q546 598 469 610C459 612 464 645 473 640Z"/>
<path id="z28771d25" d="M469 610Q460 600 450 593Q431 583 423 586Q416 590 420 602Q438 660 384 714Q374 727 380 738Q387 748 406 764Q416 771 432 762Q507 720 684 698Q702 695 710 703Q719 716 710 741Q668 867 638 879Q626 888 547 876Q531 872 531 879Q531 886 549 898Q580 923 594 946Q601 971 623 963Q674 944 703 891Q775 729 782 725Q785 721 791 718Q806 705 799 694Q789 682 746 658Q724 645 696 650Q665 660 630 665Q545 681 468 704Q449 716 447 701Q462 658 473 640C478 631 475 618 469 610Z"/>
<defs>
	<clipPath id="z28771c1"><use href="#z28771d1"/></clipPath>
	<clipPath id="z28771c2"><use href="#z28771d2"/></clipPath>
	<clipPath id="z28771c3"><use href="#z28771d3"/></clipPath>
	<clipPath id="z28771c4"><use href="#z28771d4"/></clipPath>
	<clipPath id="z28771c5"><use href="#z28771d5"/></clipPath>
	<clipPath id="z28771c6"><use href="#z28771d6"/></clipPath>
	<clipPath id="z28771c7"><use href="#z28771d7"/></clipPath>
	<clipPath id="z28771c8"><use href="#z28771d8"/></clipPath>
	<clipPath id="z28771c9"><use href="#z28771d9"/></clipPath>
	<clipPath id="z28771c10"><use href="#z28771d10"/></clipPath>
	<clipPath id="z28771c11"><use href="#z28771d11"/></clipPath>
	<clipPath id="z28771c12"><use href="#z28771d12"/></clipPath>
	<clipPath id="z28771c13"><use href="#z28771d13"/></clipPath>
	<clipPath id="z28771c14"><use href="#z28771d14"/></clipPath>
	<clipPath id="z28771c15"><use href="#z28771d15"/></clipPath>
	<clipPath id="z28771c16"><use href="#z28771d16"/></clipPath>
	<clipPath id="z28771c17"><use href="#z28771d17"/></clipPath>
	<clipPath id="z28771c18"><use href="#z28771d18"/></clipPath>
	<clipPath id="z28771c19"><use href="#z28771d19"/></clipPath>
	<clipPath id="z28771c20"><use href="#z28771d20"/></clipPath>
	<clipPath id="z28771c21"><use href="#z28771d21"/></clipPath>
	<clipPath id="z28771c22"><use href="#z28771d22"/></clipPath>
	<clipPath id="z28771c23"><use href="#z28771d23"/></clipPath>
	<clipPath id="z28771c24"><use href="#z28771d24"/></clipPath>
	<clipPath id="z28771c25"><use href="#z28771d25"/></clipPath>
</defs>
<path style="--d:1s;" pathLength="3333" clip-path="url(#z28771c1)" d="M159 135L240 177L270 222"/>
<path style="--d:2s;" pathLength="3333" clip-path="url(#z28771c2)" d="M100 327L209 409"/>
<path style="--d:3s;" pathLength="3333" clip-path="url(#z28771c3)" d="M107 763L163 800L239 527"/>
<path style="--d:4s;" pathLength="3333" clip-path="url(#z28771c4)" d="M529 44L606 102"/>
<path style="--d:5s;" pathLength="3333" clip-path="url(#z28771c5)" d="M483 165L673 140"/>
<path style="--d:6s;" pathLength="3333" clip-path="url(#z28771c6)" d="M493 238L637 216"/>
<path style="--d:7s;" pathLength="3333" clip-path="url(#z28771c7)" d="M494 300L636 287"/>
<path style="--d:8s;" pathLength="3333" clip-path="url(#z28771c8)" d="M474 365L499 384L522 480"/>
<path style="--d:9s;" pathLength="3333" clip-path="url(#z28771c9)" d="M512 373L633 363L613 437"/>
<path style="--d:10s;" pathLength="3333" clip-path="url(#z28771c10)" d="M526 456L645 443"/>
<path style="--d:11s;" pathLength="3333" clip-path="url(#z28771c11)" d="M349 94L371 134L293 266L304 284L377 268"/>
<path style="--d:12s;" pathLength="3333" clip-path="url(#z28771c12)" d="M423 171L438 210L320 365L336 376L428 341"/>
<path style="--d:13s;" pathLength="3333" clip-path="url(#z28771c13)" d="M425 297L450 361"/>
<path style="--d:14s;" pathLength="3333" clip-path="url(#z28771c14)" d="M293 427L293 550"/>
<path style="--d:15s;" pathLength="3333" clip-path="url(#z28771c15)" d="M358 422L377 495"/>
<path style="--d:16s;" pathLength="3333" clip-path="url(#z28771c16)" d="M424 393L446 461"/>
<path style="--d:17s;" pathLength="3333" clip-path="url(#z28771c17)" d="M730 69L756 111L685 224L775 226"/>
<path style="--d:18s;" pathLength="3333" clip-path="url(#z28771c18)" d="M818 146L832 183L720 310L732 326L828 298"/>
<path style="--d:19s;" pathLength="3333" clip-path="url(#z28771c19)" d="M823 262L871 324"/>
<path style="--d:20s;" pathLength="3333" clip-path="url(#z28771c20)" d="M701 393L728 456"/>
<path style="--d:21s;" pathLength="3333" clip-path="url(#z28771c21)" d="M761 376L798 442"/>
<path style="--d:22s;" pathLength="3333" clip-path="url(#z28771c22)" d="M831 359L874 401L884 445"/>
<path style="--d:23s;" pathLength="3333" clip-path="url(#z28771c23)" d="M439 531L654 494L702 523L656 579"/>
<path style="--d:24s;" pathLength="3333" clip-path="url(#z28771c24)" d="M465 626L708 594"/>
<path style="--d:25s;" pathLength="3333" clip-path="url(#z28771c25)" d="M427 591L450 628L413 715L427 735L697 673L757 708L658 904L608 923L536 882"/>
</svg>