<!--
AnimCJK 2016-2026 Copyright FM-SH - https://github.com/parsimonhi/animCJK
Derived from:
    MakeMeAHanzi project - https://github.com/skishore/makemeahanzi
    Arphic PL KaitiM GB font
    Arphic PL KaitiM Big5 font
You can redistribute and/or modify this file under the terms of the Arphic Public License
as published by Arphic Technology Co., Ltd.
You should have received a copy of this license along with this file.
If not, see https://ftp.gnu.org/non-gnu/chinese-fonts-truetype/LICENSE.
-->
<svg id="z28953" class="acjk" viewBox="0 0 1024 1024" xmlns="http://www.w3.org/2000/svg">
<style>
<![CDATA[
@keyframes zk {
	to {
		stroke-dashoffset:0;
	}
}
svg.acjk path[clip-path] {
	--t:0.8s;
	animation:zk var(--t) linear forwards var(--d);
	stroke-dasharray:3337;
	stroke-dashoffset:3339;
	stroke-width:128;
	stroke-linecap:round;
	fill:none;
	stroke:#000;
}
svg.acjk path[id] {fill:#ccc;}
]]>
</style>
<path id="z28953d1" d="M131 386C126 420 117 454 108 488C101 510 107 529 123 547C130 555 139 555 149 545C174 515 177 477 168 431C163 410 162 392 152 381C137 364 131 385 131 386Z"/>
<path id="z28953d2" d="M287 394C347 357 385 333 405 327C416 323 419 315 414 307C408 298 399 288 387 280C375 271 366 269 360 270C353 271 351 274 352 281C352 293 330 322 288 367C282 373 280 399 287 394Z"/>
<path id="z28953d3" d="M267 653C272 625 284 462 287 394C288 376 288 376 288 367C291 268 296 205 308 179C312 168 311 160 303 154C288 141 267 132 240 126C203 117 194 133 205 148C221 171 240 207 238 255C228 515 260 720 102 873C41 931 107 907 132 891C182 856 239 790 261 683C265 663 265 663 267 653Z"/>
<path id="z28953d4" d="M261 683C283 705 305 731 331 760C347 779 374 778 367 729C361 688 288 662 267 653C258 649 254 676 261 683Z"/>
<path id="z28953d5" d="M558 88C540 85 536 97 548 112C589 164 622 190 643 196C666 201 673 166 664 140C654 112 616 95 558 88Z"/>
<path id="z28953d6" d="M489 286C464 289 460 299 479 310C506 325 544 326 590 316C642 304 697 293 753 281C779 275 794 268 799 265C809 257 811 236 766 229C744 225 704 237 629 260C591 271 544 277 489 286Z"/>
<path id="z28953d7" d="M501 420C527 457 543 479 556 481C580 483 578 443 577 428C576 417 568 405 553 397C515 375 491 366 484 369C480 369 478 375 478 384C477 392 488 402 501 420Z"/>
<path id="z28953d8" d="M673 509C720 434 728 415 758 381C766 370 770 365 765 357C757 344 743 331 723 317C712 309 701 307 689 312C682 314 682 319 685 329C698 371 653 469 640 514C636 525 666 518 673 509Z"/>
<path id="z28953d9" d="M640 514C619 517 546 528 353 553C338 554 335 562 347 573C368 593 393 600 419 593C541 559 709 542 923 542C950 543 964 525 940 507C901 476 856 473 808 484C770 492 725 501 673 509C651 512 651 512 640 514Z"/>
<path id="z28953d10" d="M473 663C439 652 411 650 430 685C451 724 466 777 478 843C481 862 487 879 499 892C523 920 521 890 526 873C529 860 524 846 523 834C516 782 503 719 501 699C498 684 488 666 473 663Z"/>
<path id="z28953d11" d="M764 818C784 758 806 720 829 701C842 689 843 675 832 663C821 652 797 638 761 620C748 613 734 614 719 620C633 651 558 658 473 663C458 663 486 699 501 699C524 698 632 681 698 672C737 665 736 693 735 705C729 741 722 775 714 805C711 822 758 834 764 818Z"/>
<path id="z28953d12" d="M526 873C543 871 594 860 772 854C784 853 801 843 764 818C749 809 731 802 714 805C680 811 633 821 523 834C510 837 513 876 526 873Z"/>
<defs>
	<clipPath id="z28953c1"><use href="#z28953d1"/></clipPath>
	<clipPath id="z28953c2"><use href="#z28953d2"/></clipPath>
	<clipPath id="z28953c3"><use href="#z28953d3"/></clipPath>
	<clipPath id="z28953c4"><use href="#z28953d4"/></clipPath>
	<clipPath id="z28953c5"><use href="#z28953d5"/></clipPath>
	<clipPath id="z28953c6"><use href="#z28953d6"/></clipPath>
	<clipPath id="z28953c7"><use href="#z28953d7"/></clipPath>
	<clipPath id="z28953c8"><use href="#z28953d8"/></clipPath>
	<clipPath id="z28953c9"><use href="#z28953d9"/></clipPath>
	<clipPath id="z28953c10"><use href="#z28953d10"/></clipPath>
	<clipPath id="z28953c11"><use href="#z28953d11"/></clipPath>
	<clipPath id="z28953c12"><use href="#z28953d12"/></clipPath>
</defs>
<path style="--d:1s;" pathLength="3333" clip-path="url(#z28953c1)" d="M141 378L130 547"/>
<path style="--d:2s;" pathLength="3333" clip-path="url(#z28953c2)" d="M361 274L378 311L289 388"/>
<path style="--d:3s;" pathLength="3333" clip-path="url(#z28953c3)" d="M208 134L271 186L242 654L183 809L84 905"/>
<path style="--d:4s;" pathLength="3333" clip-path="url(#z28953c4)" d="M264 657L354 766"/>
<path style="--d:5s;" pathLength="3333" clip-path="url(#z28953c5)" d="M546 94L662 183"/>
<path style="--d:6s;" pathLength="3333" clip-path="url(#z28953c6)" d="M475 296L553 299L801 249"/>
<path style="--d:7s;" pathLength="3333" clip-path="url(#z28953c7)" d="M487 377L567 474"/>
<path style="--d:8s;" pathLength="3333" clip-path="url(#z28953c8)" d="M690 315L725 365L648 513"/>
<path style="--d:9s;" pathLength="3333" clip-path="url(#z28953c9)" d="M347 561L405 571L844 510L947 523"/>
<path style="--d:10s;" pathLength="3333" clip-path="url(#z28953c10)" d="M431 661L472 705L511 898"/>
<path style="--d:11s;" pathLength="3333" clip-path="url(#z28953c11)" d="M476 671L751 652L787 689L733 822"/>
<path style="--d:12s;" pathLength="3333" clip-path="url(#z28953c12)" d="M519 857L719 830L780 844"/>
</svg>