<!--
AnimCJK 2016-2017 Copyright Francois Mizessyn, http://gooo.free.fr/animCJK/
Derived from:
    MakeMeAHanzi project - https://github.com/skishore/makemeahanzi
    Arphic PL KaitiM GB - https://apps.ubuntu.com/cat/applications/precise/fonts-arphic-gkai00mp/
    Arphic PL UKai - https://apps.ubuntu.com/cat/applications/fonts-arphic-ukai/
You can redistribute and/or modify this file under the terms of the Arphic Public License
as published by Arphic Technology Co., Ltd.
You should have received a copy of this license (the directory "APL") along with this file;
if not, see http://ftp.gnu.org/non-gnu/chinese-fonts-truetype/LICENSE.
-->
<svg id="z28966" class="acjk" version="1.1" viewBox="0 0 1024 1024" xmlns="http://www.w3.org/2000/svg" xmlns:xlink="http://www.w3.org/1999/xlink">
<style>
<![CDATA[
	@keyframes z28966k {
		from {
			stroke:#c00;
			stroke-dashoffset:3000;
		}
		75% {
			stroke:#c00;
			stroke-dashoffset:0;
		}
		to {
			stroke:#000;
		}
	}
	#z28966 path[clip-path] {
		animation:z28966k 1s linear both;
		stroke-dasharray:3000;
		stroke-width:128;
		stroke-linecap:round;
		fill:none;
	}
	#z28966 path[clip-path="url(#z28966c1)"] {animation-delay:1s;}
	#z28966 path[clip-path="url(#z28966c2)"] {animation-delay:2s;}
	#z28966 path[clip-path="url(#z28966c3)"] {animation-delay:3s;}
	#z28966 path[clip-path="url(#z28966c4)"] {animation-delay:4s;}
	#z28966 path[clip-path="url(#z28966c5)"] {animation-delay:5s;}
	#z28966 path[clip-path="url(#z28966c6)"] {animation-delay:6s;}
	#z28966 path[clip-path="url(#z28966c7)"] {animation-delay:7s;}
	#z28966 path[clip-path="url(#z28966c8)"] {animation-delay:8s;}
	#z28966 path[clip-path="url(#z28966c9)"] {animation-delay:9s;}
	#z28966 path[clip-path="url(#z28966c10)"] {animation-delay:10s;}
	#z28966 path[clip-path="url(#z28966c11)"] {animation-delay:11s;}
	#z28966 path[clip-path="url(#z28966c12)"] {animation-delay:12s;}
	#z28966 path {fill:#ccc;}
]]>
</style>
<g transform="scale(1,-1) translate(0,-900)">
	<path id="z28966d1" d="M331 575Q362 617 397 668Q424 714 448 736Q458 746 453 760Q449 773 422 796Q397 815 377 815Q359 814 366 792Q379 761 366 735Q303 594 140 406Q130 396 127 390Q123 380 137 382Q173 388 305 541L331 575Z"/>
	<path id="z28966d2" d="M363 256Q363 440 371 499Q378 526 349 557Q340 566 331 575L305 541Q306 541 307 539Q338 469 303 286Q282 213 322 171Q338 156 350 181Q357 205 361 230L363 256Z"/>
	<path id="z28966d3" d="M577 797Q605 772 635 741Q648 728 664 727Q674 728 681 741Q685 756 678 785Q672 807 641 823Q568 854 552 847Q548 843 548 830Q551 820 577 797Z"/>
	<path id="z28966d4" d="M587 607Q647 620 710 630Q756 640 762 646Q771 653 767 661Q760 671 734 679Q709 685 586 649Q454 628 437 626Q403 622 427 605Q463 581 519 594Q529 597 541 597L587 607Z"/>
	<path id="z28966d5" d="M599 288Q600 333 603 373L605 415Q606 451 608 483L610 525Q610 528 611 530Q614 581 612 585Q599 598 587 607L541 597Q553 570 554 512L555 474Q555 446 555 404L555 365Q555 329 555 282L599 288Z"/>
	<path id="z28966d6" d="M608 483Q672 496 729 503Q754 506 745 520Q735 536 707 541Q674 547 610 525L554 512Q491 499 436 486Q418 482 440 466Q452 457 555 474L608 483Z"/>
	<path id="z28966d7" d="M603 373Q675 386 737 395Q762 398 753 412Q743 428 715 433Q682 439 605 415L555 404Q491 391 432 378Q414 374 436 358Q451 348 481 353Q518 360 555 365L603 373Z"/>
	<path id="z28966d8" d="M555 282Q464 270 363 256L361 230Q388 215 412 221Q544 257 809 257Q827 257 831 265Q835 275 821 287Q770 326 709 309Q663 302 599 288L555 282Z"/>
	<path id="z28966d9" d="M269 166Q239 114 201 67Q174 37 190 -1Q196 -20 219 -10Q276 21 289 103Q298 137 294 163Q290 173 284 174Q274 174 269 166Z"/>
	<path id="z28966d10" d="M407 130Q423 90 441 49Q451 27 468 20Q481 13 494 29Q500 42 498 66Q494 88 472 109Q438 145 422 155Q413 159 408 149Q404 142 407 130Z"/>
	<path id="z28966d11" d="M570 142Q619 42 643 34Q656 30 669 46Q673 59 669 82Q663 106 638 125Q601 159 582 168Q572 172 569 161Q565 154 570 142Z"/>
	<path id="z28966d12" d="M738 155Q787 101 843 24Q856 2 872 -5Q881 -6 889 2Q902 15 895 60Q889 109 743 187Q734 193 731 180Q730 167 738 155Z"/>
	<defs>
		<clipPath id="z28966c1"><use xlink:href="#z28966d1"/></clipPath>
		<clipPath id="z28966c2"><use xlink:href="#z28966d2"/></clipPath>
		<clipPath id="z28966c3"><use xlink:href="#z28966d3"/></clipPath>
		<clipPath id="z28966c4"><use xlink:href="#z28966d4"/></clipPath>
		<clipPath id="z28966c5"><use xlink:href="#z28966d5"/></clipPath>
		<clipPath id="z28966c6"><use xlink:href="#z28966d6"/></clipPath>
		<clipPath id="z28966c7"><use xlink:href="#z28966d7"/></clipPath>
		<clipPath id="z28966c8"><use xlink:href="#z28966d8"/></clipPath>
		<clipPath id="z28966c9"><use xlink:href="#z28966d9"/></clipPath>
		<clipPath id="z28966c10"><use xlink:href="#z28966d10"/></clipPath>
		<clipPath id="z28966c11"><use xlink:href="#z28966d11"/></clipPath>
		<clipPath id="z28966c12"><use xlink:href="#z28966d12"/></clipPath>
	</defs>
	<path pathLength="2999" clip-path="url(#z28966c1)" d="M372 810L412 758L404 735L279 545L131 390"/>
	<path pathLength="2999" clip-path="url(#z28966c2)" d="M333 561L332 170"/>
	<path pathLength="2999" clip-path="url(#z28966c3)" d="M556 838L641 784L662 731"/>
	<path pathLength="2999" clip-path="url(#z28966c4)" d="M424 617L764 655"/>
	<path pathLength="2999" clip-path="url(#z28966c5)" d="M548 592L582 567L574 285"/>
	<path pathLength="2999" clip-path="url(#z28966c6)" d="M434 481L740 516"/>
	<path pathLength="2999" clip-path="url(#z28966c7)" d="M431 372L749 405"/>
	<path pathLength="2999" clip-path="url(#z28966c8)" d="M366 235L727 285L826 277"/>
	<path pathLength="2999" clip-path="url(#z28966c9)" d="M282 168L207 -9"/>
	<path pathLength="2999" clip-path="url(#z28966c10)" d="M417 150L474 23"/>
	<path pathLength="2999" clip-path="url(#z28966c11)" d="M576 161L659 40"/>
	<path pathLength="2999" clip-path="url(#z28966c12)" d="M739 181L844 80L882 3"/>
</g>
</svg>