<!--
AnimCJK 2016-2019 Copyright Francois Mizessyn - https://github.com/parsimonhi/animCJK
Derived from:
    MakeMeAHanzi project - https://github.com/skishore/makemeahanzi
    Arphic PL KaitiM GB font
    Arphic PL UKai font
You can redistribute and/or modify this file under the terms of the Arphic Public License
as published by Arphic Technology Co., Ltd.
You should have received a copy of this license along with this file.
If not, see http://ftp.gnu.org/non-gnu/chinese-fonts-truetype/LICENSE.
-->
<svg id="z29243" class="acjk" version="1.1" viewBox="0 0 1024 1024" xmlns="http://www.w3.org/2000/svg" xmlns:xlink="http://www.w3.org/1999/xlink">
<style>
<![CDATA[
@keyframes zk {
	to {
		stroke-dashoffset:0;
	}
}
svg.acjk path[clip-path] {
	--t:0.8s;
	animation:zk var(--t) linear forwards var(--d);
	stroke-dasharray:3337;
	stroke-dashoffset:3339;
	stroke-width:128;
	stroke-linecap:round;
	fill:none;
	stroke:#000;
}
svg.acjk path[id] {fill:#ccc;}
]]>
</style>
<path id="z29243d1" d="M549 263Q576 230 606 188Q624 163 645 141Q655 134 652 122Q648 110 622 86Q603 68 593 69Q578 70 577 85Q565 164 496 244C475 267 475 267 464 278Q394 347 240 422Q230 428 236 433Q264 449 390 390Q453 362 499 315Q505 309 512 303C537 276 537 276 549 263Z"/>
<path id="z29243d2" d="M512 303Q597 346 671 398Q689 414 704 417Q717 420 723 401Q727 385 715 357Q702 318 549 263C514 250 514 250 496 244Q313 178 301 186Q295 187 299 200Q302 209 320 215Q396 245 464 278C496 295 496 295 512 303Z"/>
<path id="z29243d3" d="M525 709Q567 649 598 554Q607 523 618 502Q625 489 618 480Q602 455 578 440Q557 424 546 426Q536 429 536 442Q548 556 482 669C469 691 469 691 463 702Q403 789 244 834Q195 844 125 856Q115 855 109 859Q102 862 111 869Q117 872 132 873Q247 877 336 850Q426 823 498 744C516 721 516 721 525 709Z"/>
<path id="z29243d4" d="M498 744Q645 912 693 917Q819 917 880 909Q923 905 919 893Q918 887 876 875Q717 833 681 816Q626 789 525 709C496 682 496 682 482 669Q427 615 371 553Q335 513 301 512Q283 511 279 515Q278 522 293 533Q347 566 463 702C486 730 486 730 498 744Z"/>
<defs>
	<clipPath id="z29243c1"><use xlink:href="#z29243d1"/></clipPath>
	<clipPath id="z29243c2"><use xlink:href="#z29243d2"/></clipPath>
	<clipPath id="z29243c3"><use xlink:href="#z29243d3"/></clipPath>
	<clipPath id="z29243c4"><use xlink:href="#z29243d4"/></clipPath>
</defs>
<path style="--d:1s;" pathLength="3333" clip-path="url(#z29243c1)" d="M591 72L608 133L497 281L383 369L240 431"/>
<path style="--d:2s;" pathLength="3333" clip-path="url(#z29243c2)" d="M303 193L608 319L679 362L711 411"/>
<path style="--d:3s;" pathLength="3333" clip-path="url(#z29243c3)" d="M545 437L579 494L564 550L530 643L455 751L315 833L116 863"/>
<path style="--d:4s;" pathLength="3333" clip-path="url(#z29243c4)" d="M290 520L665 855L913 896"/>
</svg>