<!--
AnimCJK 2016-2018 Copyright Francois Mizessyn, https://github.com/parsimonhi/animCJK
Derived from:
    MakeMeAHanzi project - https://github.com/skishore/makemeahanzi
    Arphic PL KaitiM GB - https://apps.ubuntu.com/cat/applications/precise/fonts-arphic-gkai00mp/
    Arphic PL UKai - https://apps.ubuntu.com/cat/applications/fonts-arphic-ukai/
You can redistribute and/or modify this file under the terms of the Arphic Public License
as published by Arphic Technology Co., Ltd.
You should have received a copy of this license (the directory "APL") along with this file;
if not, see http://ftp.gnu.org/non-gnu/chinese-fonts-truetype/LICENSE.
-->
<svg id="z29275" class="acjk" version="1.1" viewBox="0 0 1024 1024" xmlns="http://www.w3.org/2000/svg" xmlns:xlink="http://www.w3.org/1999/xlink">
<style>
<![CDATA[
@keyframes z29275k {
	from {
		stroke:#c00;
		stroke-dashoffset:3334;
	}
	75% {
		stroke:#c00;
		stroke-dashoffset:0;
	}
	to {
		stroke:#000;
	}
}
#z29275 path[clip-path] {
	animation:z29275k 1s linear both;
	stroke-dasharray:3334;
	stroke-width:128;
	stroke-linecap:round;
	fill:none;
}
#z29275 path[clip-path="url(#z29275c1)"] {animation-delay:1s;}
#z29275 path[clip-path="url(#z29275c2)"] {animation-delay:2s;}
#z29275 path[clip-path="url(#z29275c3)"] {animation-delay:3s;}
#z29275 path[clip-path="url(#z29275c4)"] {animation-delay:4s;}
#z29275 path {fill:#ccc;}
]]>
</style>
<path id="z29275d1" d="M343 325Q344 324 345 323Q369 283 390 251Q400 238 385 222Q337 189 311 194Q299 197 303 212Q321 285 236 402Q227 406 197 451Q188 467 204 462Q220 459 242 442Q297 399 331 346L343 325 Z"/>
<path id="z29275d2" d="M559 341Q736 304 742 299Q752 290 747 281Q740 268 708 260Q677 253 643 265Q601 278 561 290L504 303Q431 318 347 324Q343 324 343 325L331 346Q364 379 441 363Q471 357 503 352L559 341 Z"/>
<path id="z29275d3" d="M556 557Q676 544 843 544Q877 544 906 543Q931 543 936 532Q943 519 923 501Q853 449 786 471Q692 489 556 513L501 521Q326 546 119 573Q94 576 113 597Q129 613 152 619Q177 626 197 620Q318 586 455 569Q476 565 501 563L556 557 Z"/>
<path id="z29275d4" d="M501 563Q491 935 512 968Q527 984 536 962Q557 914 556 557L556 513Q557 414 559 341L561 290Q564 154 584 122Q593 101 573 85Q548 66 503 53Q482 47 469 62Q459 71 472 83Q503 110 505 147Q505 208 504 303L503 352Q502 442 501 521L501 563 Z"/>
<defs>
	<clipPath id="z29275c1"><use xlink:href="#z29275d1"/></clipPath>
	<clipPath id="z29275c2"><use xlink:href="#z29275d2"/></clipPath>
	<clipPath id="z29275c3"><use xlink:href="#z29275d3"/></clipPath>
	<clipPath id="z29275c4"><use xlink:href="#z29275d4"/></clipPath>
</defs>
<path pathLength="3333" clip-path="url(#z29275c1)" d="M310 200L349 238L338 273L274 385L202 455"/>
<path pathLength="3333" clip-path="url(#z29275c2)" d="M335 343L744 286"/>
<path pathLength="3333" clip-path="url(#z29275c3)" d="M110 581L182 594L813 504L933 517"/>
<path pathLength="3333" clip-path="url(#z29275c4)" d="M470 70L545 122L525 967"/>
</svg>