<!--
AnimCJK 2016-2026 Copyright FM-SH, https://github.com/parsimonhi/animCJK
Derived from:
    MakeMeAHanzi project - https://github.com/skishore/makemeahanzi
    Arphic PL KaitiM GB font
    Arphic PL KaitiM Big5 font
You can redistribute and/or modify this file under the terms of the Arphic Public License
as published by Arphic Technology Co., Ltd.
You should have received a copy of this license along with this file.
If not, see https://ftp.gnu.org/non-gnu/chinese-fonts-truetype/LICENSE.
-->
<svg id="z29314" class="acjk" viewBox="0 0 1024 1024" xmlns="http://www.w3.org/2000/svg">
<style>
<![CDATA[
@keyframes zk {
	to {
		stroke-dashoffset:0;
	}
}
svg.acjk path[clip-path] {
	--t:0.8s;
	animation:zk var(--t) linear forwards var(--d);
	stroke-dasharray:3337;
	stroke-dashoffset:3339;
	stroke-width:128;
	stroke-linecap:round;
	fill:none;
	stroke:#000;
}
svg.acjk path[id] {fill:#ccc;}
]]>
</style>
<path id="z29314d1" d="M363 142C390 135 427 126 464 118C489 112 492 101 455 77C431 60 412 52 400 53C395 53 393 57 392 64C387 87 326 116 211 159C204 161 205 168 210 169C247 172 290 159 329 150C352 145 352 145 363 142Z"/>
<path id="z29314d2" d="M390 261C421 254 453 247 486 243C510 239 499 223 484 216C462 206 434 212 394 221C364 228 364 228 349 231C258 251 181 263 149 267C120 270 120 282 144 295C177 313 212 299 326 275C369 266 369 266 390 261Z"/>
<path id="z29314d3" d="M349 324C349 350 346 376 345 402C344 411 348 424 357 441C361 450 367 452 375 447C383 440 383 414 384 369C384 317 388 277 390 261C393 234 393 234 394 221C399 163 426 170 363 142C352 138 321 142 329 150C341 162 349 189 349 231C349 293 349 293 349 324Z"/>
<path id="z29314d4" d="M326 275C294 331 239 384 165 437C146 450 167 451 177 449C247 435 313 366 349 324C384 289 356 236 326 275Z"/>
<path id="z29314d5" d="M404 315C427 340 461 368 474 369C481 369 492 361 489 347C482 321 460 310 445 303C415 287 382 291 404 315Z"/>
<path id="z29314d6" d="M629 183C638 173 671 136 681 125C696 106 676 88 661 77C632 54 602 53 614 81C623 102 603 177 545 237C535 246 523 264 554 249C571 239 586 225 613 199C624 188 624 188 629 183Z"/>
<path id="z29314d7" d="M613 199C630 207 653 209 671 206C692 202 692 202 702 200C778 185 838 172 831 241C825 287 818 324 809 351C795 387 781 413 768 428C754 444 743 449 702 437C665 426 672 431 692 457C699 465 709 484 725 511C735 528 748 525 765 516C781 506 798 488 817 462C841 426 868 354 891 245C894 230 900 215 914 202C926 189 928 185 913 172C894 154 868 139 845 132C833 128 823 129 811 136C752 164 693 177 629 183C622 184 606 196 613 199Z"/>
<path id="z29314d8" d="M671 206C683 272 653 333 572 419C552 439 557 445 582 435C613 421 663 386 712 301C723 280 731 259 740 242C750 222 735 215 702 200C692 196 669 196 671 206Z"/>
<path id="z29314d9" d="M375 549C383 538 391 529 398 522C404 514 403 505 396 498C372 477 354 470 341 472C335 472 331 475 333 484C338 519 326 561 280 609C271 617 224 678 291 633C331 604 348 584 363 565C371 554 371 554 375 549Z"/>
<path id="z29314d10" d="M363 565C371 573 380 578 391 582C409 588 441 587 486 582C524 577 524 577 543 575C627 564 662 553 671 549C698 535 656 514 635 512C618 510 589 518 545 527C506 535 506 535 486 539C412 554 390 547 375 549C368 549 358 561 363 565Z"/>
<path id="z29314d11" d="M486 680C371 694 143 716 143 716C129 717 126 724 137 736C155 755 180 767 210 759C295 735 387 723 486 716C522 713 522 713 540 712C643 704 768 702 866 706C903 707 902 685 882 671C843 643 811 630 786 635C724 646 643 660 541 673C504 678 504 678 486 680Z"/>
<path id="z29314d12" d="M486 716C486 809 482 877 487 921C495 987 520 1001 531 919C537 875 537 806 540 712C541 686 541 686 541 673C541 637 541 605 543 575C544 543 544 543 545 527C545 511 550 496 553 482C558 454 544 451 511 434C496 426 451 420 466 453C477 478 486 506 486 539C486 568 486 568 486 582C486 647 486 647 486 680C486 704 486 704 486 716Z"/>
<defs>
	<clipPath id="z29314c1"><use href="#z29314d1"/></clipPath>
	<clipPath id="z29314c2"><use href="#z29314d2"/></clipPath>
	<clipPath id="z29314c3"><use href="#z29314d3"/></clipPath>
	<clipPath id="z29314c4"><use href="#z29314d4"/></clipPath>
	<clipPath id="z29314c5"><use href="#z29314d5"/></clipPath>
	<clipPath id="z29314c6"><use href="#z29314d6"/></clipPath>
	<clipPath id="z29314c7"><use href="#z29314d7"/></clipPath>
	<clipPath id="z29314c8"><use href="#z29314d8"/></clipPath>
	<clipPath id="z29314c9"><use href="#z29314d9"/></clipPath>
	<clipPath id="z29314c10"><use href="#z29314d10"/></clipPath>
	<clipPath id="z29314c11"><use href="#z29314d11"/></clipPath>
	<clipPath id="z29314c12"><use href="#z29314d12"/></clipPath>
</defs>
<path style="--d:1s;" pathLength="3333" clip-path="url(#z29314c1)" d="M400 59L422 105L214 163"/>
<path style="--d:2s;" pathLength="3333" clip-path="url(#z29314c2)" d="M132 277L495 226"/>
<path style="--d:3s;" pathLength="3333" clip-path="url(#z29314c3)" d="M336 149L375 184L364 443"/>
<path style="--d:4s;" pathLength="3333" clip-path="url(#z29314c4)" d="M350 265L285 362L168 443"/>
<path style="--d:5s;" pathLength="3333" clip-path="url(#z29314c5)" d="M405 302L482 358"/>
<path style="--d:6s;" pathLength="3333" clip-path="url(#z29314c6)" d="M619 65L650 113L542 247"/>
<path style="--d:7s;" pathLength="3333" clip-path="url(#z29314c7)" d="M617 196L823 162L876 201L788 451L742 483L685 437"/>
<path style="--d:8s;" pathLength="3333" clip-path="url(#z29314c8)" d="M679 202L707 237L689 292L569 434"/>
<path style="--d:9s;" pathLength="3333" clip-path="url(#z29314c9)" d="M341 477L366 519L262 643"/>
<path style="--d:10s;" pathLength="3333" clip-path="url(#z29314c10)" d="M366 560L673 533"/>
<path style="--d:11s;" pathLength="3333" clip-path="url(#z29314c11)" d="M140 724L195 736L789 669L891 690"/>
<path style="--d:12s;" pathLength="3333" clip-path="url(#z29314c12)" d="M470 434L517 481L510 969"/>
</svg>