<!--
AnimCJK 2016-2018 Copyright Francois Mizessyn, https://github.com/parsimonhi/animCJK
Derived from:
    MakeMeAHanzi project - https://github.com/skishore/makemeahanzi
    Arphic PL KaitiM GB - https://apps.ubuntu.com/cat/applications/precise/fonts-arphic-gkai00mp/
    Arphic PL UKai - https://apps.ubuntu.com/cat/applications/fonts-arphic-ukai/
You can redistribute and/or modify this file under the terms of the Arphic Public License
as published by Arphic Technology Co., Ltd.
You should have received a copy of this license (the directory "APL") along with this file;
if not, see http://ftp.gnu.org/non-gnu/chinese-fonts-truetype/LICENSE.
-->
<svg id="z29378" class="acjk" version="1.1" viewBox="0 0 1024 1024" xmlns="http://www.w3.org/2000/svg" xmlns:xlink="http://www.w3.org/1999/xlink">
<style>
<![CDATA[
@keyframes z29378k {
	from {
		stroke:#c00;
		stroke-dashoffset:3334;
	}
	75% {
		stroke:#c00;
		stroke-dashoffset:0;
	}
	to {
		stroke:#000;
	}
}
#z29378 path[clip-path] {
	animation:z29378k 1s linear both;
	stroke-dasharray:3334;
	stroke-width:128;
	stroke-linecap:round;
	fill:none;
}
#z29378 path[clip-path="url(#z29378c1)"] {animation-delay:1s;}
#z29378 path[clip-path="url(#z29378c2)"] {animation-delay:2s;}
#z29378 path[clip-path="url(#z29378c3)"] {animation-delay:3s;}
#z29378 path[clip-path="url(#z29378c4)"] {animation-delay:4s;}
#z29378 path[clip-path="url(#z29378c5)"] {animation-delay:5s;}
#z29378 path[clip-path="url(#z29378c6)"] {animation-delay:6s;}
#z29378 path[clip-path="url(#z29378c7)"] {animation-delay:7s;}
#z29378 path {fill:#ccc;}
]]>
</style>
<path id="z29378d1" d="M328 281Q359 232 432 150Q445 137 431 119Q386 74 359 76Q346 77 347 94Q347 158 301 229L270 272Q204 350 158 385Q113 418 91 439Q79 455 97 452Q167 449 290 323L328 281 Z"/>
<path id="z29378d2" d="M318 485Q327 645 286 763Q277 782 266 786Q253 786 218 771Q187 758 182 764Q178 770 187 784Q223 823 244 859Q266 892 278 891Q288 891 310 867Q380 771 375 542Q366 377 328 281L301 229Q265 172 166 143Q163 142 162 142Q146 138 144 150Q144 165 155 183Q168 201 187 201Q232 210 270 272L290 323Q299 354 306 388L318 485 Z"/>
<path id="z29378d3" d="M306 388Q243 541 67 698Q61 702 55 708Q42 721 52 723Q62 727 74 721Q194 672 308 500Q312 491 318 485L306 388 Z"/>
<path id="z29378d4" d="M651 307Q838 270 846 264Q856 255 851 246Q844 233 811 223Q772 214 690 244Q572 271 484 279Q442 285 472 304Q520 331 594 317L651 307 Z"/>
<path id="z29378d5" d="M659 717Q663 614 666 527L668 477Q671 372 673 357Q682 330 651 307L594 317Q606 368 609 440Q609 461 609 493L609 539Q608 612 608 723L659 717 Z"/>
<path id="z29378d6" d="M666 527Q712 515 766 505Q809 495 815 489Q824 482 819 472Q812 460 782 453Q752 447 668 477L609 493Q554 503 494 510Q457 517 483 534Q522 555 594 541Q600 540 609 539L666 527 Z"/>
<path id="z29378d7" d="M608 723Q511 733 402 748Q380 749 396 769Q412 785 431 791Q455 797 472 792Q617 756 896 756Q912 756 927 757Q949 758 955 748Q961 735 943 720Q886 677 844 685Q775 698 659 717L608 723 Z"/>
<defs>
	<clipPath id="z29378c1"><use xlink:href="#z29378d1"/></clipPath>
	<clipPath id="z29378c2"><use xlink:href="#z29378d2"/></clipPath>
	<clipPath id="z29378c3"><use xlink:href="#z29378d3"/></clipPath>
	<clipPath id="z29378c4"><use xlink:href="#z29378d4"/></clipPath>
	<clipPath id="z29378c5"><use xlink:href="#z29378d5"/></clipPath>
	<clipPath id="z29378c6"><use xlink:href="#z29378d6"/></clipPath>
	<clipPath id="z29378c7"><use xlink:href="#z29378d7"/></clipPath>
</defs>
<path pathLength="3333" clip-path="url(#z29378c1)" d="M355 82L389 138L312 258L213 366L96 447"/>
<path pathLength="3333" clip-path="url(#z29378c2)" d="M152 147L290 259L346 514L338 688L298 814L264 836L188 769"/>
<path pathLength="3333" clip-path="url(#z29378c3)" d="M305 399L292 476L251 537L157 643L54 716"/>
<path pathLength="3333" clip-path="url(#z29378c4)" d="M470 292L549 297L847 247"/>
<path pathLength="3333" clip-path="url(#z29378c5)" d="M602 324L639 355L627 720"/>
<path pathLength="3333" clip-path="url(#z29378c6)" d="M478 521L814 481"/>
<path pathLength="3333" clip-path="url(#z29378c7)" d="M397 757L463 767L846 720L951 739"/>
</svg>