<!--
AnimCJK 2016-2025 Copyright FM-SH - https://github.com/parsimonhi/animCJK
Derived from:
    MakeMeAHanzi project - https://github.com/skishore/makemeahanzi
    Arphic PL KaitiM GB font
    Arphic PL UKai font
You can redistribute and/or modify this file under the terms of the Arphic Public License
as published by Arphic Technology Co., Ltd.
You should have received a copy of this license along with this file.
If not, see https://ftp.gnu.org/non-gnu/chinese-fonts-truetype/LICENSE.
-->
<svg id="z29495" class="acjk" viewBox="0 0 1024 1024" xmlns="http://www.w3.org/2000/svg">
<style>
<![CDATA[
@keyframes zk {
	to {
		stroke-dashoffset:0;
	}
}
svg.acjk path[clip-path] {
	--t:0.8s;
	animation:zk var(--t) linear forwards var(--d);
	stroke-dasharray:3337;
	stroke-dashoffset:3339;
	stroke-width:128;
	stroke-linecap:round;
	fill:none;
	stroke:#000;
}
svg.acjk path[id] {fill:#ccc;}
]]>
</style>
<path id="z29495d1" d="M240 141C231 177 173 227 113 273C91 289 111 292 130 282C217 237 265 201 302 167C327 144 313 136 291 117C280 107 267 101 255 102C237 104 245 118 240 141Z"/>
<path id="z29495d2" d="M359 113C401 149 453 201 462 211C471 224 510 221 525 219C610 215 568 198 507 171C489 161 450 138 440 131C427 122 400 100 371 90C356 85 332 80 331 86C329 90 339 101 359 113Z"/>
<path id="z29495d3" d="M368 317C399 310 439 303 546 290C552 289 561 287 565 278C567 270 557 265 543 257C519 243 484 245 429 261C359 280 245 301 152 312C132 314 106 321 126 336C166 365 203 351 244 343C269 338 269 338 282 335C316 327 244 343 340 323C359 319 359 319 368 317Z"/>
<path id="z29495d4" d="M186 449C173 439 160 429 145 427C128 424 130 437 135 449C161 522 163 617 145 729C135 783 126 798 129 815C131 831 140 848 150 860C157 868 162 868 169 860C176 850 180 837 186 819C190 805 191 796 192 785C195 689 195 516 203 478C205 467 195 456 186 449Z"/>
<path id="z29495d5" d="M523 766C508 578 509 472 526 450C530 442 530 435 526 429C514 417 492 404 461 390C450 385 440 385 430 390C417 394 404 400 391 406C368 413 368 413 356 417C337 421 319 425 302 430C275 435 275 435 262 438C231 442 206 446 186 449C175 451 192 480 203 478C223 474 242 468 262 466C287 461 287 461 300 458C318 453 336 449 355 446C376 442 376 442 386 440C404 433 435 430 450 441C465 453 469 542 461 706C460 724 456 745 449 766C445 776 442 789 446 799C469 845 478 902 510 842C514 831 518 820 520 808C522 793 522 793 523 786C523 773 523 773 523 766Z"/>
<path id="z29495d6" d="M244 343C256 355 262 386 262 438C262 447 263 456 262 466C255 520 246 549 226 606C224 610 228 613 233 611C278 583 296 502 300 458C301 439 301 439 302 430C307 354 324 364 282 335C271 328 236 333 244 343Z"/>
<path id="z29495d7" d="M391 406C400 343 417 343 368 317C360 312 335 315 340 323C356 353 356 389 356 417C355 436 355 436 355 446C353 485 345 546 376 572C381 576 396 579 422 579C438 578 450 574 456 566C460 561 461 556 458 552C416 544 392 534 389 524C382 506 380 477 386 440C389 417 389 417 391 406Z"/>
<path id="z29495d8" d="M235 675Q219 679 239 693Q246 699 262 696Q335 684 391 677Q413 673 405 660Q395 645 369 641Q345 638 235 675Z"/>
<path id="z29495d9" d="M186 819C210 818 369 802 446 799C457 799 459 769 449 766C369 733 421 758 192 785C181 787 174 819 186 819Z"/>
<path id="z29495d10" d="M694 468C732 459 770 449 810 441C834 435 847 430 851 427C856 422 858 416 855 411C850 404 838 398 820 394C802 389 763 406 697 421C666 428 666 428 650 431C625 436 599 439 572 444C549 447 546 456 563 466C584 478 613 484 646 478C678 471 678 471 694 468Z"/>
<path id="z29495d11" d="M687 549C689 523 692 496 694 468C696 437 696 437 697 421C706 277 711 188 727 156C731 145 730 135 723 128C708 114 687 105 659 98C641 93 629 93 624 98C617 102 616 109 622 118C650 162 664 265 650 431C647 462 647 462 646 478C635 602 605 705 523 786C518 791 513 811 520 808C611 779 667 668 680 593C685 564 685 564 687 549Z"/>
<path id="z29495d12" d="M680 593C722 681 766 756 812 822C823 838 834 848 849 849C887 849 922 848 955 848C969 848 975 846 976 843C976 838 970 830 956 822C884 778 830 742 800 706C744 638 707 585 687 549C679 536 674 579 680 593Z"/>
<path id="z29495d13" d="M814 235C830 249 847 265 866 282C874 290 884 293 894 293C900 292 906 288 909 280C912 270 910 255 904 237C900 224 889 213 870 206C826 188 798 183 788 189C784 190 783 197 785 205C786 212 797 221 814 235Z"/>
<defs>
	<clipPath id="z29495c1"><use href="#z29495d1"/></clipPath>
	<clipPath id="z29495c2"><use href="#z29495d2"/></clipPath>
	<clipPath id="z29495c3"><use href="#z29495d3"/></clipPath>
	<clipPath id="z29495c4"><use href="#z29495d4"/></clipPath>
	<clipPath id="z29495c5"><use href="#z29495d5"/></clipPath>
	<clipPath id="z29495c6"><use href="#z29495d6"/></clipPath>
	<clipPath id="z29495c7"><use href="#z29495d7"/></clipPath>
	<clipPath id="z29495c8"><use href="#z29495d8"/></clipPath>
	<clipPath id="z29495c9"><use href="#z29495d9"/></clipPath>
	<clipPath id="z29495c10"><use href="#z29495d10"/></clipPath>
	<clipPath id="z29495c11"><use href="#z29495d11"/></clipPath>
	<clipPath id="z29495c12"><use href="#z29495d12"/></clipPath>
	<clipPath id="z29495c13"><use href="#z29495d13"/></clipPath>
</defs>
<path style="--d:1s;" pathLength="3333" clip-path="url(#z29495c1)" d="M250 111L274 154L113 280"/>
<path style="--d:2s;" pathLength="3333" clip-path="url(#z29495c2)" d="M341 91L491 195L568 205"/>
<path style="--d:3s;" pathLength="3333" clip-path="url(#z29495c3)" d="M124 325L558 272"/>
<path style="--d:4s;" pathLength="3333" clip-path="url(#z29495c4)" d="M139 434L175 482L155 859"/>
<path style="--d:5s;" pathLength="3333" clip-path="url(#z29495c5)" d="M188 455L429 412L490 443L486 862"/>
<path style="--d:6s;" pathLength="3333" clip-path="url(#z29495c6)" d="M252 340L283 370L281 448L233 603"/>
<path style="--d:7s;" pathLength="3333" clip-path="url(#z29495c7)" d="M347 323L376 351L373 533L391 555L453 560"/>
<path style="--d:8s;" pathLength="3333" clip-path="url(#z29495c8)" d="M235 684L399 663"/>
<path style="--d:9s;" pathLength="3333" clip-path="url(#z29495c9)" d="M187 809L453 784"/>
<path style="--d:10s;" pathLength="3333" clip-path="url(#z29495c10)" d="M560 454L851 413"/>
<path style="--d:11s;" pathLength="3333" clip-path="url(#z29495c11)" d="M625 104L685 159L662 550L610 706L526 800"/>
<path style="--d:12s;" pathLength="3333" clip-path="url(#z29495c12)" d="M684 559L847 801L969 840"/>
<path style="--d:13s;" pathLength="3333" clip-path="url(#z29495c13)" d="M789 195L904 284"/>
</svg>