<!--
AnimCJK 2016-2026 Copyright FM-SH - https://github.com/parsimonhi/animCJK
Derived from:
    MakeMeAHanzi project - https://github.com/skishore/makemeahanzi
    Arphic PL KaitiM GB font
    Arphic PL KaitiM Big5 font
You can redistribute and/or modify this file under the terms of the Arphic Public License
as published by Arphic Technology Co., Ltd.
You should have received a copy of this license along with this file.
If not, see https://ftp.gnu.org/non-gnu/chinese-fonts-truetype/LICENSE.
-->
<svg id="z29678" class="acjk" viewBox="0 0 1024 1024" xmlns="http://www.w3.org/2000/svg">
<style>
<![CDATA[
@keyframes zk {
	to {
		stroke-dashoffset:0;
	}
}
svg.acjk path[clip-path] {
	--t:0.8s;
	animation:zk var(--t) linear forwards var(--d);
	stroke-dasharray:3337;
	stroke-dashoffset:3339;
	stroke-width:128;
	stroke-linecap:round;
	fill:none;
	stroke:#000;
}
svg.acjk path[id] {fill:#ccc;}
]]>
</style>
<path id="z29678d1" d="M240 274C292 256 343 239 356 233C376 222 351 204 319 201C298 199 279 205 259 215C221 233 180 243 139 253C114 258 111 268 131 277C144 283 166 289 199 286C213 286 227 279 240 274Z"/>
<path id="z29678d2" d="M262 632C262 574 264 520 266 471C267 435 267 435 268 417C272 297 295 293 240 274C227 269 194 273 199 286C209 308 214 359 216 440C217 471 217 471 217 486C218 542 217 655 217 655C217 672 262 649 262 632Z"/>
<path id="z29678d3" d="M266 471C288 464 337 452 352 439C370 420 334 411 317 409C300 406 284 409 268 417C233 432 233 432 216 440C192 450 136 464 119 467C95 470 93 481 111 490C149 507 179 497 217 486C250 476 250 476 266 471Z"/>
<path id="z29678d4" d="M217 655C165 681 126 702 69 713C48 716 53 741 67 748C84 757 105 765 130 773C137 775 145 770 152 763C168 744 217 707 321 637C365 606 371 577 322 601C307 608 287 618 262 632C232 647 232 647 217 655Z"/>
<path id="z29678d5" d="M448 217C420 199 399 192 387 198C380 202 379 209 383 218C397 232 404 262 404 309C404 385 402 438 399 470C387 580 348 692 284 807C281 811 279 815 279 819C278 825 281 828 287 826C307 822 340 777 386 691C390 679 396 666 402 653C434 562 452 460 456 347C458 287 461 253 465 246C469 236 457 224 448 217Z"/>
<path id="z29678d6" d="M451 246C463 244 559 226 740 188C758 184 773 192 771 225C748 585 790 798 928 868C946 877 965 884 985 878C993 875 993 865 992 851C983 793 982 733 985 672C985 653 975 640 970 663C957 709 947 743 937 764C925 786 916 786 900 772C867 743 848 694 828 618C806 537 807 426 819 285C821 256 836 228 864 199C873 188 872 179 861 170C851 161 828 149 792 131C777 123 765 125 752 136C714 163 608 187 434 217C445 236 445 236 451 246Z"/>
<path id="z29678d7" d="M599 344C678 322 700 315 710 306C730 287 687 278 677 277C658 275 643 280 625 289C577 311 556 314 512 325C491 329 488 339 505 347C518 352 535 361 559 355C586 348 586 348 599 344Z"/>
<path id="z29678d8" d="M505 469C492 462 481 459 472 459C466 461 464 465 467 471C485 513 485 563 467 620C455 642 458 664 476 686C480 692 484 694 489 692C501 683 509 657 513 614C515 550 517 511 519 497C521 487 514 474 505 469Z"/>
<path id="z29678d9" d="M624 475C641 471 686 459 689 480C701 565 692 615 681 628C676 632 666 631 642 629C617 626 631 638 635 641C659 657 675 673 691 686C697 691 704 692 710 685C722 669 730 637 729 591C727 544 727 505 733 475C734 465 732 457 728 453C714 440 704 432 695 428C688 425 683 427 675 431C659 437 644 443 625 447C596 453 596 453 581 456C562 459 539 463 505 469C495 471 509 501 519 497C525 493 543 489 581 483C610 478 610 478 624 475Z"/>
<path id="z29678d10" d="M625 447C625 433 628 411 635 381C637 371 634 363 626 358C615 351 606 346 599 344C586 340 554 342 559 355C573 383 580 416 581 456C581 474 581 474 581 483C577 767 577 914 583 926C583 928 585 931 587 934C589 938 593 939 598 937C602 935 606 930 609 922C617 892 621 813 622 687C621 639 622 568 624 475C625 456 625 456 625 447Z"/>
<defs>
	<clipPath id="z29678c1"><use href="#z29678d1"/></clipPath>
	<clipPath id="z29678c2"><use href="#z29678d2"/></clipPath>
	<clipPath id="z29678c3"><use href="#z29678d3"/></clipPath>
	<clipPath id="z29678c4"><use href="#z29678d4"/></clipPath>
	<clipPath id="z29678c5"><use href="#z29678d5"/></clipPath>
	<clipPath id="z29678c6"><use href="#z29678d6"/></clipPath>
	<clipPath id="z29678c7"><use href="#z29678d7"/></clipPath>
	<clipPath id="z29678c8"><use href="#z29678d8"/></clipPath>
	<clipPath id="z29678c9"><use href="#z29678d9"/></clipPath>
	<clipPath id="z29678c10"><use href="#z29678d10"/></clipPath>
</defs>
<path style="--d:1s;" pathLength="3333" clip-path="url(#z29678c1)" d="M125 263L357 220"/>
<path style="--d:2s;" pathLength="3333" clip-path="url(#z29678c2)" d="M205 282L241 311L226 657"/>
<path style="--d:3s;" pathLength="3333" clip-path="url(#z29678c3)" d="M106 475L351 430"/>
<path style="--d:4s;" pathLength="3333" clip-path="url(#z29678c4)" d="M61 723L135 733L348 599"/>
<path style="--d:5s;" pathLength="3333" clip-path="url(#z29678c5)" d="M386 204L431 243L417 505L368 679L285 820"/>
<path style="--d:6s;" pathLength="3333" clip-path="url(#z29678c6)" d="M442 220L765 157L800 175L820 195L794 270L788 474L820 680L867 778L953 830L978 658"/>
<path style="--d:7s;" pathLength="3333" clip-path="url(#z29678c7)" d="M500 336L711 296"/>
<path style="--d:8s;" pathLength="3333" clip-path="url(#z29678c8)" d="M473 464L498 513L483 687"/>
<path style="--d:9s;" pathLength="3333" clip-path="url(#z29678c9)" d="M508 478L686 448L709 467L698 651L636 634"/>
<path style="--d:10s;" pathLength="3333" clip-path="url(#z29678c10)" d="M567 350L603 378L593 932"/>
</svg>