<!--
AnimCJK 2016-2026 Copyright FM-SH - https://github.com/parsimonhi/animCJK
Derived from:
    MakeMeAHanzi project - https://github.com/skishore/makemeahanzi
    Arphic PL KaitiM GB font
    Arphic PL KaitiM Big5 font
You can redistribute and/or modify this file under the terms of the Arphic Public License
as published by Arphic Technology Co., Ltd.
You should have received a copy of this license along with this file.
If not, see https://ftp.gnu.org/non-gnu/chinese-fonts-truetype/LICENSE.
-->
<svg id="z29964" class="acjk" viewBox="0 0 1024 1024" xmlns="http://www.w3.org/2000/svg">
<style>
<![CDATA[
@keyframes zk {
	to {
		stroke-dashoffset:0;
	}
}
svg.acjk path[clip-path] {
	--t:0.8s;
	animation:zk var(--t) linear forwards var(--d);
	stroke-dasharray:3337;
	stroke-dashoffset:3339;
	stroke-width:128;
	stroke-linecap:round;
	fill:none;
	stroke:#000;
}
svg.acjk path[id] {fill:#ccc;}
]]>
</style>
<path id="z29964d1" d="M175 260C199 264 222 264 244 259C398 221 477 201 482 199C482 198 493 192 487 183C482 176 471 169 453 166C437 162 397 176 331 196C257 217 201 225 166 230C156 232 165 258 175 260Z"/>
<path id="z29964d2" d="M271 341C266 338 255 335 238 333C219 330 228 348 234 358C242 373 254 406 263 441C265 451 269 461 276 469C284 477 290 478 292 472C292 468 293 463 294 458C296 449 292 439 290 430C283 399 279 377 278 364C277 356 278 344 271 341Z"/>
<path id="z29964d3" d="M416 417C426 388 437 370 448 360C461 346 461 334 449 327C438 320 425 311 411 302C392 290 367 317 271 341C263 343 271 368 278 364C280 361 306 353 358 343C372 339 381 341 386 347C386 347 382 367 374 406C371 420 411 430 416 417Z"/>
<path id="z29964d4" d="M294 458C310 460 306 452 419 439C438 436 424 423 416 417C406 407 388 404 374 406C360 407 337 417 290 430C281 432 285 458 294 458Z"/>
<path id="z29964d5" d="M227 566C222 563 211 560 195 557C185 555 180 560 188 573C198 595 208 624 217 661C217 671 221 681 229 689C237 697 242 698 244 692C244 687 245 681 246 675C247 668 244 660 243 653C236 620 232 597 231 585C230 579 233 568 227 566Z"/>
<path id="z29964d6" d="M310 640C314 611 321 592 330 582C338 571 337 562 327 557C318 552 308 545 296 541C282 536 260 552 227 566C221 568 225 586 231 585C245 582 256 578 267 576C281 573 284 577 282 601C280 613 278 626 277 641C277 652 308 651 310 640Z"/>
<path id="z29964d7" d="M246 675C258 670 278 666 319 659C335 655 315 642 310 640C301 634 288 639 277 641C263 645 251 649 243 653C236 656 239 678 246 675Z"/>
<path id="z29964d8" d="M379 518Q372 514 347 509Q338 506 336 510Q332 514 337 525Q355 561 365 619Q366 635 377 648Q389 663 393 652Q394 646 395 637C394 622 394 622 394 614Q387 562 384 541C382 533 386 521 379 518Z"/>
<path id="z29964d9" d="M479 603C487 569 496 547 507 537C518 524 517 514 506 508C496 502 484 496 471 488C462 482 452 482 444 489C421 505 386 515 379 518C372 521 377 544 384 541C396 537 413 532 436 527C455 522 456 533 451 557C448 569 445 584 442 600C440 612 477 615 479 603Z"/>
<path id="z29964d10" d="M395 637Q401 638 411 636Q435 632 488 626Q495 625 496 619Q496 613 479 603C468 597 454 598 442 600Q441 599 439 600Q414 607 394 614C387 617 387 637 395 637Z"/>
<path id="z29964d11" d="M166 230C159 224 147 217 132 209C105 195 96 207 106 227C121 257 129 357 127 526C125 674 115 763 97 795C91 805 92 815 98 828C103 840 108 849 115 854C121 858 130 857 140 849C189 805 293 773 454 758C467 756 474 753 474 746C473 738 465 726 446 720C425 713 226 762 183 777C169 781 161 775 162 760C165 635 168 494 170 336C170 305 171 280 175 260C177 250 174 236 166 230Z"/>
<path id="z29964d12" d="M590 283C634 274 825 226 831 222C843 212 837 198 802 190C784 185 741 203 670 222C566 248 511 253 508 254C485 258 482 265 499 275C513 283 529 286 547 288C561 289 575 285 590 283Z"/>
<path id="z29964d13" d="M594 529C596 509 599 457 600 440C601 424 601 424 601 416C605 302 625 309 590 283C579 274 542 275 547 288C571 352 566 487 535 693C530 720 528 744 505 771C490 790 571 763 571 738C568 738 588 575 591 553C593 537 593 537 594 529Z"/>
<path id="z29964d14" d="M505 771C482 782 482 815 508 841C513 845 522 843 529 834C540 817 590 773 683 707C702 692 728 664 672 690C652 698 612 717 571 738C527 760 527 760 505 771Z"/>
<path id="z29964d15" d="M600 440C620 440 650 431 694 421C704 418 711 423 716 428C721 434 727 476 730 556C736 729 799 825 921 838C939 839 956 835 972 830C994 822 1002 808 994 786C982 757 974 720 972 675C970 640 957 650 952 662C946 675 938 692 931 716C923 739 914 772 884 766C859 760 837 746 818 724C779 678 765 598 778 488C782 451 794 422 812 404C828 386 826 376 806 370C795 366 777 361 754 356C737 352 723 355 710 367C691 382 655 399 601 416C594 419 592 440 600 440Z"/>
<path id="z29964d16" d="M591 553C607 564 645 592 659 604C665 609 673 612 682 611C687 610 691 606 693 600C694 591 693 580 687 566C670 530 615 529 594 529C586 529 585 548 591 553Z"/>
<defs>
	<clipPath id="z29964c1"><use href="#z29964d1"/></clipPath>
	<clipPath id="z29964c2"><use href="#z29964d2"/></clipPath>
	<clipPath id="z29964c3"><use href="#z29964d3"/></clipPath>
	<clipPath id="z29964c4"><use href="#z29964d4"/></clipPath>
	<clipPath id="z29964c5"><use href="#z29964d5"/></clipPath>
	<clipPath id="z29964c6"><use href="#z29964d6"/></clipPath>
	<clipPath id="z29964c7"><use href="#z29964d7"/></clipPath>
	<clipPath id="z29964c8"><use href="#z29964d8"/></clipPath>
	<clipPath id="z29964c9"><use href="#z29964d9"/></clipPath>
	<clipPath id="z29964c10"><use href="#z29964d10"/></clipPath>
	<clipPath id="z29964c11"><use href="#z29964d11"/></clipPath>
	<clipPath id="z29964c12"><use href="#z29964d12"/></clipPath>
	<clipPath id="z29964c13"><use href="#z29964d13"/></clipPath>
	<clipPath id="z29964c14"><use href="#z29964d14"/></clipPath>
	<clipPath id="z29964c15"><use href="#z29964d15"/></clipPath>
	<clipPath id="z29964c16"><use href="#z29964d16"/></clipPath>
</defs>
<path style="--d:1s;" pathLength="3333" clip-path="url(#z29964c1)" d="M169 238L484 182"/>
<path style="--d:2s;" pathLength="3333" clip-path="url(#z29964c2)" d="M233 339L259 361L283 468"/>
<path style="--d:3s;" pathLength="3333" clip-path="url(#z29964c3)" d="M270 348L398 323L420 349L388 419"/>
<path style="--d:4s;" pathLength="3333" clip-path="url(#z29964c4)" d="M288 445L424 427"/>
<path style="--d:5s;" pathLength="3333" clip-path="url(#z29964c5)" d="M191 565L215 589L236 689"/>
<path style="--d:6s;" pathLength="3333" clip-path="url(#z29964c6)" d="M227 575L280 558L308 574L293 646"/>
<path style="--d:7s;" pathLength="3333" clip-path="url(#z29964c7)" d="M244 665L318 651"/>
<path style="--d:8s;" pathLength="3333" clip-path="url(#z29964c8)" d="M342 518L366 541L382 652"/>
<path style="--d:9s;" pathLength="3333" clip-path="url(#z29964c9)" d="M380 527L448 505L483 524L453 606"/>
<path style="--d:10s;" pathLength="3333" clip-path="url(#z29964c10)" d="M397 627L490 617"/>
<path style="--d:11s;" pathLength="3333" clip-path="url(#z29964c11)" d="M108 207L146 262L135 808L339 754L469 743"/>
<path style="--d:12s;" pathLength="3333" clip-path="url(#z29964c12)" d="M494 262L598 260L829 206"/>
<path style="--d:13s;" pathLength="3333" clip-path="url(#z29964c13)" d="M553 284L583 314L574 537L549 732L510 771"/>
<path style="--d:14s;" pathLength="3333" clip-path="url(#z29964c14)" d="M490 805L696 687"/>
<path style="--d:15s;" pathLength="3333" clip-path="url(#z29964c15)" d="M601 432L726 390L778 411L752 463L758 635L785 717L848 784L904 801L952 786L964 657"/>
<path style="--d:16s;" pathLength="3333" clip-path="url(#z29964c16)" d="M592 538L684 605"/>
</svg>