<!--
AnimCJK 2016-2026 Copyright FM-SH, https://github.com/parsimonhi/animCJK
Derived from:
    MakeMeAHanzi project - https://github.com/skishore/makemeahanzi
    Arphic PL KaitiM GB font
    Arphic PL KaitiM Big5 font
You can redistribute and/or modify this file under the terms of the Arphic Public License
as published by Arphic Technology Co., Ltd.
You should have received a copy of this license along with this file.
If not, see https://ftp.gnu.org/non-gnu/chinese-fonts-truetype/LICENSE.
-->
<svg id="z29965" class="acjk" viewBox="0 0 1024 1024" xmlns="http://www.w3.org/2000/svg">
<style>
<![CDATA[
@keyframes zk {
	to {
		stroke-dashoffset:0;
	}
}
svg.acjk path[clip-path] {
	--t:0.8s;
	animation:zk var(--t) linear forwards var(--d);
	stroke-dasharray:3337;
	stroke-dashoffset:3339;
	stroke-width:128;
	stroke-linecap:round;
	fill:none;
	stroke:#000;
}
svg.acjk path[id] {fill:#ccc;}
]]>
</style>
<path id="z29965d1" d="M611 165C657 163 713 164 783 169C810 170 806 148 795 137C748 96 690 111 636 121C597 127 597 127 578 130C529 137 478 143 424 149C393 152 393 152 377 154C326 159 273 162 218 168C199 169 197 176 210 185C264 219 328 195 387 186C414 182 414 182 427 180C459 175 515 167 568 166C597 165 597 165 611 165Z"/>
<path id="z29965d2" d="M424 149C421 126 428 94 403 85C377 75 359 68 346 75C334 80 334 89 344 101C358 117 370 134 377 154C384 175 384 175 387 186C394 210 401 227 412 237C419 243 425 243 428 236C432 222 429 203 427 180C425 159 425 159 424 149Z"/>
<path id="z29965d3" d="M636 121C648 99 665 91 657 77C650 66 636 55 617 43C603 34 574 33 584 55C588 64 588 90 578 130C571 154 571 154 568 166C561 188 551 208 552 225C552 233 557 235 567 229C571 225 589 202 611 165C628 136 628 136 636 121Z"/>
<path id="z29965d4" d="M328 274Q319 270 286 265Q276 262 272 267Q268 273 275 287Q299 329 316 399Q320 421 333 434Q349 453 354 439Q355 433 356 425C358 417 356 409 354 401Q353 397 353 393Q343 333 338 307C336 296 339 278 328 274Z"/>
<path id="z29965d5" d="M632 392C637 411 650 408 666 395C673 388 680 383 689 365C702 335 716 312 738 296C748 287 749 278 741 269C731 258 711 245 684 228C675 222 653 224 617 232C609 233 512 246 328 274C317 276 328 313 338 307C342 303 368 295 418 289C433 287 433 287 441 286C467 282 499 276 537 272C563 269 563 269 576 267C598 264 669 244 658 288C646 330 640 356 636 365C633 373 629 384 632 392Z"/>
<path id="z29965d6" d="M457 385C460 363 445 291 441 286C438 279 418 281 418 289C418 301 418 368 436 388C440 394 457 392 457 385Z"/>
<path id="z29965d7" d="M554 368C592 282 612 294 576 267C566 259 532 260 537 272C545 285 536 343 529 373C528 381 551 376 554 368Z"/>
<path id="z29965d8" d="M356 425C376 425 468 407 632 392C641 392 644 370 636 365C628 359 617 355 554 368C537 371 537 371 529 373C512 376 470 383 457 385C443 387 443 387 436 388C407 392 372 399 354 401C346 402 348 425 356 425Z"/>
<path id="z29965d9" d="M231 478C224 463 217 454 210 449C196 439 187 442 189 460C190 484 175 515 139 554C124 569 127 596 147 633C156 651 168 650 182 632C192 617 200 598 208 575C216 548 224 527 231 511C235 501 236 488 231 478Z"/>
<path id="z29965d10" d="M231 511C245 517 263 518 285 513C377 488 509 468 681 455C734 450 769 450 753 489C747 501 741 518 736 531C724 564 735 561 756 548C790 525 822 512 850 506C882 497 891 490 865 467C853 457 835 444 812 426C796 414 753 414 681 425C530 441 381 464 231 478C220 480 221 507 231 511Z"/>
<path id="z29965d11" d="M401 594C449 586 532 571 652 561C662 560 688 549 651 528C628 515 596 512 546 525C465 544 383 550 301 560C282 562 280 567 294 580C327 612 345 603 358 601C387 596 387 596 401 594Z"/>
<path id="z29965d12" d="M413 647C424 620 413 614 401 594C394 582 358 586 358 601C362 649 348 707 320 778C308 805 289 830 258 851C234 869 336 863 347 835C371 765 396 685 403 670C410 655 410 655 413 647Z"/>
<path id="z29965d13" d="M258 851C233 855 235 889 254 921C258 928 268 928 278 920C293 906 352 875 460 837C476 830 522 809 457 817C433 820 377 829 347 835C288 846 288 846 258 851Z"/>
<path id="z29965d14" d="M403 670C429 676 451 672 471 666C500 656 524 650 540 648C567 645 561 651 563 673C565 711 555 781 559 817C562 850 581 882 622 911C660 937 721 947 805 943C855 939 902 928 943 904C958 894 960 880 952 864C931 824 918 781 910 736C909 730 896 715 891 742C880 798 877 834 870 847C861 860 845 869 822 876C798 882 746 885 699 879C630 869 613 830 608 800C599 756 606 716 625 682C629 673 634 667 641 660C658 640 648 627 598 606C582 599 569 599 559 606C534 620 485 633 413 647C405 648 395 668 403 670Z"/>
<path id="z29965d15" d="M424 727C454 762 476 779 491 779C498 778 520 770 499 735C489 718 465 708 427 704C416 702 414 716 424 727Z"/>
<defs>
	<clipPath id="z29965c1"><use href="#z29965d1"/></clipPath>
	<clipPath id="z29965c2"><use href="#z29965d2"/></clipPath>
	<clipPath id="z29965c3"><use href="#z29965d3"/></clipPath>
	<clipPath id="z29965c4"><use href="#z29965d4"/></clipPath>
	<clipPath id="z29965c5"><use href="#z29965d5"/></clipPath>
	<clipPath id="z29965c6"><use href="#z29965d6"/></clipPath>
	<clipPath id="z29965c7"><use href="#z29965d7"/></clipPath>
	<clipPath id="z29965c8"><use href="#z29965d8"/></clipPath>
	<clipPath id="z29965c9"><use href="#z29965d9"/></clipPath>
	<clipPath id="z29965c10"><use href="#z29965d10"/></clipPath>
	<clipPath id="z29965c11"><use href="#z29965d11"/></clipPath>
	<clipPath id="z29965c12"><use href="#z29965d12"/></clipPath>
	<clipPath id="z29965c13"><use href="#z29965d13"/></clipPath>
	<clipPath id="z29965c14"><use href="#z29965d14"/></clipPath>
	<clipPath id="z29965c15"><use href="#z29965d15"/></clipPath>
</defs>
<path style="--d:1s;" pathLength="3333" clip-path="url(#z29965c1)" d="M211 177L702 137L799 151"/>
<path style="--d:2s;" pathLength="3333" clip-path="url(#z29965c2)" d="M341 85L392 115L416 237"/>
<path style="--d:3s;" pathLength="3333" clip-path="url(#z29965c3)" d="M591 46L621 93L558 225"/>
<path style="--d:4s;" pathLength="3333" clip-path="url(#z29965c4)" d="M278 272L311 296L343 436"/>
<path style="--d:5s;" pathLength="3333" clip-path="url(#z29965c5)" d="M330 282L665 246L702 283L642 399"/>
<path style="--d:6s;" pathLength="3333" clip-path="url(#z29965c6)" d="M429 285L447 388"/>
<path style="--d:7s;" pathLength="3333" clip-path="url(#z29965c7)" d="M545 272L566 301L537 370"/>
<path style="--d:8s;" pathLength="3333" clip-path="url(#z29965c8)" d="M352 413L638 378"/>
<path style="--d:9s;" pathLength="3333" clip-path="url(#z29965c9)" d="M198 452L207 499L159 640"/>
<path style="--d:10s;" pathLength="3333" clip-path="url(#z29965c10)" d="M227 490L766 438L825 489L739 550"/>
<path style="--d:11s;" pathLength="3333" clip-path="url(#z29965c11)" d="M293 567L346 579L664 546"/>
<path style="--d:12s;" pathLength="3333" clip-path="url(#z29965c12)" d="M364 596L387 635L336 797L310 837L263 853"/>
<path style="--d:13s;" pathLength="3333" clip-path="url(#z29965c13)" d="M244 861L282 885L482 821"/>
<path style="--d:14s;" pathLength="3333" clip-path="url(#z29965c14)" d="M404 664L586 632L605 650L583 732L589 833L634 886L711 910L829 908L907 875L901 734"/>
<path style="--d:15s;" pathLength="3333" clip-path="url(#z29965c15)" d="M425 710L498 771"/>
</svg>