<!--
AnimCJK 2016-2026 Copyright FM-SH, https://github.com/parsimonhi/animCJK
Derived from:
    MakeMeAHanzi project - https://github.com/skishore/makemeahanzi
    Arphic PL KaitiM GB font
    Arphic PL KaitiM Big5 font
You can redistribute and/or modify this file under the terms of the Arphic Public License
as published by Arphic Technology Co., Ltd.
You should have received a copy of this license along with this file.
If not, see https://ftp.gnu.org/non-gnu/chinese-fonts-truetype/LICENSE.
-->
<svg id="z29971" class="acjk" viewBox="0 0 1024 1024" xmlns="http://www.w3.org/2000/svg">
<style>
<![CDATA[
@keyframes zk {
	to {
		stroke-dashoffset:0;
	}
}
svg.acjk path[clip-path] {
	--t:0.8s;
	animation:zk var(--t) linear forwards var(--d);
	stroke-dasharray:3337;
	stroke-dashoffset:3339;
	stroke-width:128;
	stroke-linecap:round;
	fill:none;
	stroke:#000;
}
svg.acjk path[id] {fill:#ccc;}
]]>
</style>
<path id="z29971d1" d="M443 236C461 200 479 179 493 169C503 160 503 148 495 140C487 131 467 121 439 108C415 96 428 107 282 150C273 154 278 181 287 178C291 176 328 166 400 150C425 143 422 164 421 170C414 192 407 213 400 232C395 246 437 249 443 236Z"/>
<path id="z29971d2" d="M264 290C276 294 285 295 293 293C327 283 381 274 455 263C480 258 461 244 443 236C430 231 414 229 400 232C381 235 347 249 269 267C261 269 256 288 264 290Z"/>
<path id="z29971d3" d="M249 350C255 329 259 309 264 290C267 275 267 275 269 267C275 238 276 204 287 178C291 169 289 156 282 150C250 121 205 108 217 139C221 152 225 175 225 211C223 339 176 445 107 550C105 552 83 585 123 557C176 520 219 449 241 377C246 359 246 359 249 350Z"/>
<path id="z29971d4" d="M289 362C277 355 262 350 249 350C240 350 235 369 241 377C251 387 260 421 267 482C268 495 272 507 279 517C288 530 304 532 303 490C302 471 302 471 302 462C300 423 299 398 299 386C299 377 297 366 289 362Z"/>
<path id="z29971d5" d="M440 443C450 413 461 394 471 385C485 371 484 358 471 350C460 343 447 334 431 324C419 316 402 326 374 338C351 347 323 354 289 362C281 364 291 389 299 386C325 379 350 373 374 368C390 364 400 365 404 372C405 374 402 395 394 436C391 451 434 457 440 443Z"/>
<path id="z29971d6" d="M303 490C321 492 311 487 447 467C469 463 449 448 440 443C427 435 409 433 394 436C380 439 360 447 302 462C293 464 294 490 303 490Z"/>
<path id="z29971d7" d="M648 76C658 85 667 97 678 108C689 119 705 124 713 107C716 100 715 88 711 73C708 64 700 56 687 51C656 38 634 31 628 37C613 49 638 67 648 76Z"/>
<path id="z29971d8" d="M743 159C758 155 801 149 811 141C818 133 818 121 787 114C772 110 757 112 742 117C665 140 621 148 547 156C528 157 524 165 538 173C587 199 660 176 714 165C733 161 733 161 743 159Z"/>
<path id="z29971d9" d="M570 226C584 249 596 267 611 275C627 283 633 264 634 251C634 240 629 231 622 224C606 208 588 200 569 199C566 198 562 201 562 207C562 211 564 217 570 226Z"/>
<path id="z29971d10" d="M705 278C764 189 798 202 743 159C735 153 712 155 714 165C721 193 684 264 681 283C679 291 700 285 705 278Z"/>
<path id="z29971d11" d="M695 316C729 310 777 301 840 296C848 295 873 282 839 267C812 254 796 258 705 278C689 281 689 281 681 283C639 291 580 300 504 308C487 309 484 314 498 325C516 339 538 344 563 339C589 333 618 328 652 323C681 318 681 318 695 316Z"/>
<path id="z29971d12" d="M694 415C723 410 770 410 833 409C860 408 853 391 842 383C812 362 780 359 746 368C731 371 714 376 695 380C664 386 664 386 648 389C613 395 576 400 537 407C526 408 524 413 533 422C548 438 572 438 585 435C601 430 625 425 647 422C678 417 678 417 694 415Z"/>
<path id="z29971d13" d="M675 496C687 469 690 438 694 415C695 403 694 391 695 380C695 358 695 316 695 316C695 301 654 309 652 323C650 343 649 360 648 389C647 399 646 411 647 422C647 440 650 457 657 491C658 497 673 502 675 496Z"/>
<path id="z29971d14" d="M385 581C461 566 563 547 694 535C714 533 723 517 675 496C669 494 663 491 657 491C653 490 605 500 513 520C482 526 389 539 273 553C254 555 252 561 266 573C298 600 316 594 349 588C373 583 373 583 385 581Z"/>
<path id="z29971d15" d="M403 652C415 605 421 608 385 581C375 573 347 576 349 588C364 674 311 825 288 868C279 884 334 873 341 856C367 780 385 713 396 677C401 660 401 660 403 652Z"/>
<path id="z29971d16" d="M288 868C242 878 240 880 246 905C253 938 266 959 287 942C311 921 355 896 469 847C484 840 532 812 461 828C438 833 402 842 341 856C306 864 306 864 288 868Z"/>
<path id="z29971d17" d="M396 677C412 679 427 675 442 670C489 652 524 643 545 641C558 639 568 656 567 663C565 707 560 752 560 798C557 911 639 964 799 955C848 952 914 931 929 911C936 900 939 891 933 876C917 837 909 802 902 772C893 733 885 730 879 763C873 791 867 818 859 845C853 862 839 873 823 885C792 905 746 911 683 898C662 893 647 885 636 875C605 845 599 792 618 719C625 688 637 663 655 644C664 633 668 623 660 615C652 606 638 600 621 595C592 584 572 586 557 596C515 620 463 637 403 652C395 654 387 677 396 677Z"/>
<path id="z29971d18" d="M435 740Q489 789 497 790Q504 789 509 779Q513 769 507 745Q501 723 433 703Q421 700 416 702Q412 705 413 714Q414 723 435 740Z"/>
<defs>
	<clipPath id="z29971c1"><use href="#z29971d1"/></clipPath>
	<clipPath id="z29971c2"><use href="#z29971d2"/></clipPath>
	<clipPath id="z29971c3"><use href="#z29971d3"/></clipPath>
	<clipPath id="z29971c4"><use href="#z29971d4"/></clipPath>
	<clipPath id="z29971c5"><use href="#z29971d5"/></clipPath>
	<clipPath id="z29971c6"><use href="#z29971d6"/></clipPath>
	<clipPath id="z29971c7"><use href="#z29971d7"/></clipPath>
	<clipPath id="z29971c8"><use href="#z29971d8"/></clipPath>
	<clipPath id="z29971c9"><use href="#z29971d9"/></clipPath>
	<clipPath id="z29971c10"><use href="#z29971d10"/></clipPath>
	<clipPath id="z29971c11"><use href="#z29971d11"/></clipPath>
	<clipPath id="z29971c12"><use href="#z29971d12"/></clipPath>
	<clipPath id="z29971c13"><use href="#z29971d13"/></clipPath>
	<clipPath id="z29971c14"><use href="#z29971d14"/></clipPath>
	<clipPath id="z29971c15"><use href="#z29971d15"/></clipPath>
	<clipPath id="z29971c16"><use href="#z29971d16"/></clipPath>
	<clipPath id="z29971c17"><use href="#z29971d17"/></clipPath>
	<clipPath id="z29971c18"><use href="#z29971d18"/></clipPath>
</defs>
<path style="--d:1s;" pathLength="3333" clip-path="url(#z29971c1)" d="M281 167L434 132L461 162L408 239"/>
<path style="--d:2s;" pathLength="3333" clip-path="url(#z29971c2)" d="M263 282L460 250"/>
<path style="--d:3s;" pathLength="3333" clip-path="url(#z29971c3)" d="M223 130L256 169L228 344L172 478L107 561"/>
<path style="--d:4s;" pathLength="3333" clip-path="url(#z29971c4)" d="M247 359L274 383L287 521"/>
<path style="--d:5s;" pathLength="3333" clip-path="url(#z29971c5)" d="M290 370L419 350L442 373L410 447"/>
<path style="--d:6s;" pathLength="3333" clip-path="url(#z29971c6)" d="M302 481L450 460"/>
<path style="--d:7s;" pathLength="3333" clip-path="url(#z29971c7)" d="M629 44L676 70L701 114"/>
<path style="--d:8s;" pathLength="3333" clip-path="url(#z29971c8)" d="M535 164L810 133"/>
<path style="--d:9s;" pathLength="3333" clip-path="url(#z29971c9)" d="M571 208L626 267"/>
<path style="--d:10s;" pathLength="3333" clip-path="url(#z29971c10)" d="M723 164L738 204L689 280"/>
<path style="--d:11s;" pathLength="3333" clip-path="url(#z29971c11)" d="M499 315L851 283"/>
<path style="--d:12s;" pathLength="3333" clip-path="url(#z29971c12)" d="M538 416L775 386L844 398"/>
<path style="--d:13s;" pathLength="3333" clip-path="url(#z29971c13)" d="M684 312L665 494"/>
<path style="--d:14s;" pathLength="3333" clip-path="url(#z29971c14)" d="M263 559L320 570L706 520"/>
<path style="--d:15s;" pathLength="3333" clip-path="url(#z29971c15)" d="M356 587L381 620L376 653L325 836L297 870"/>
<path style="--d:16s;" pathLength="3333" clip-path="url(#z29971c16)" d="M248 887L290 906L492 828"/>
<path style="--d:17s;" pathLength="3333" clip-path="url(#z29971c17)" d="M395 669L563 616L610 634L584 768L592 853L645 910L723 929L826 920L891 884L890 747"/>
<path style="--d:18s;" pathLength="3333" clip-path="url(#z29971c18)" d="M419 711L501 784"/>
</svg>