<!--
AnimCJK 2016-2025 Copyright FM-SH - https://github.com/parsimonhi/animCJK
Derived from:
    MakeMeAHanzi project - https://github.com/skishore/makemeahanzi
    Arphic PL KaitiM GB font
    Arphic PL KaitiM Big5 font
You can redistribute and/or modify this file under the terms of the Arphic Public License
as published by Arphic Technology Co., Ltd.
You should have received a copy of this license along with this file.
If not, see https://ftp.gnu.org/non-gnu/chinese-fonts-truetype/LICENSE.
-->
<svg id="z29995" class="acjk" viewBox="0 0 1024 1024" xmlns="http://www.w3.org/2000/svg">
<style>
<![CDATA[
@keyframes zk {
	to {
		stroke-dashoffset:0;
	}
}
svg.acjk path[clip-path] {
	--t:0.8s;
	animation:zk var(--t) linear forwards var(--d);
	stroke-dasharray:3337;
	stroke-dashoffset:3339;
	stroke-width:128;
	stroke-linecap:round;
	fill:none;
	stroke:#000;
}
svg.acjk path[id] {fill:#ccc;}
]]>
</style>
<path id="z29995d1" d="M538 294Q646 282 856 282Q878 282 884 272Q890 259 871 244Q811 201 771 211Q683 230 540 253C499 259 499 259 478 262Q330 281 162 303Q138 306 156 325Q190 356 233 347Q395 302 478 301C518 296 518 296 538 294Z"/>
<path id="z29995d2" d="M327 423Q294 407 273 407Q258 411 264 425Q316 534 266 740Q232 824 268 869Q275 884 288 878Q325 848 332 725Q341 511 346 465C349 450 341 429 327 423Z"/>
<path id="z29995d3" d="M533 428Q581 419 635 413Q660 409 672 423Q682 427 685 470Q698 609 692 771Q692 793 683 801Q668 811 594 798Q576 795 578 805Q579 812 593 819Q660 864 696 899Q718 918 731 916Q744 913 755 883Q770 835 764 718Q743 484 763 444Q776 422 765 408Q753 392 704 368Q685 358 664 363Q621 376 534 395C497 402 497 402 478 405Q403 415 327 423C312 426 333 473 346 465Q352 458 478 438C515 431 515 431 533 428Z"/>
<path id="z29995d4" d="M530 566Q573 559 613 553Q638 550 629 536Q619 520 591 515Q569 511 531 521C495 530 495 530 477 535Q425 547 380 558Q362 562 384 578Q394 585 418 583Q448 577 476 574C512 569 512 569 530 566Z"/>
<path id="z29995d5" d="M529 682Q578 675 621 669Q646 666 637 652Q627 636 600 631Q575 627 531 637Q530 637 529 638C492 647 492 647 474 652Q420 662 372 674Q354 678 375 694Q385 701 473 690C510 685 510 685 529 682Z"/>
<path id="z29995d6" d="M473 690Q470 849 488 876Q503 892 512 871Q525 835 529 682C529 653 529 653 529 638Q530 604 530 566C531 536 531 536 531 521Q532 470 533 428C534 406 534 406 534 395Q535 337 538 294C539 267 539 267 540 253Q543 183 560 156Q567 140 547 124Q523 105 480 93Q461 89 447 102Q437 109 450 122Q475 144 478 176Q478 212 478 262C478 288 478 288 478 301Q478 347 478 405C478 427 478 427 478 438Q478 486 477 535C476 561 476 561 476 574Q475 617 474 652C473 677 473 677 473 690Z"/>
<path id="z29995d7" d="M679 127Q707 149 738 178Q751 190 766 189Q776 188 781 176Q785 161 776 133Q764 100 673 81Q658 78 652 81Q648 85 649 97Q653 107 679 127Z"/>
<defs>
	<clipPath id="z29995c1"><use href="#z29995d1"/></clipPath>
	<clipPath id="z29995c2"><use href="#z29995d2"/></clipPath>
	<clipPath id="z29995c3"><use href="#z29995d3"/></clipPath>
	<clipPath id="z29995c4"><use href="#z29995d4"/></clipPath>
	<clipPath id="z29995c5"><use href="#z29995d5"/></clipPath>
	<clipPath id="z29995c6"><use href="#z29995d6"/></clipPath>
	<clipPath id="z29995c7"><use href="#z29995d7"/></clipPath>
</defs>
<path style="--d:1s;" pathLength="3333" clip-path="url(#z29995c1)" d="M154 312L211 323L791 245L881 266"/>
<path style="--d:2s;" pathLength="3333" clip-path="url(#z29995c2)" d="M270 418L306 450L316 514L285 872"/>
<path style="--d:3s;" pathLength="3333" clip-path="url(#z29995c3)" d="M337 430L667 387L717 415L718 841L703 864L586 805"/>
<path style="--d:4s;" pathLength="3333" clip-path="url(#z29995c4)" d="M380 565L625 539"/>
<path style="--d:5s;" pathLength="3333" clip-path="url(#z29995c5)" d="M372 681L633 656"/>
<path style="--d:6s;" pathLength="3333" clip-path="url(#z29995c6)" d="M451 107L518 152L499 877"/>
<path style="--d:7s;" pathLength="3333" clip-path="url(#z29995c7)" d="M657 90L776 180"/>
</svg>