<!--
AnimCJK 2016-2026 Copyright FM-SH, https://github.com/parsimonhi/animCJK
Derived from:
    MakeMeAHanzi project - https://github.com/skishore/makemeahanzi
    Arphic PL KaitiM GB font
    Arphic PL KaitiM Big5 font
You can redistribute and/or modify this file under the terms of the Arphic Public License
as published by Arphic Technology Co., Ltd.
You should have received a copy of this license along with this file.
If not, see https://ftp.gnu.org/non-gnu/chinese-fonts-truetype/LICENSE.
-->
<svg id="z29990" class="acjk" viewBox="0 0 1024 1024" xmlns="http://www.w3.org/2000/svg">
<style>
<![CDATA[
@keyframes zk {
	to {
		stroke-dashoffset:0;
	}
}
svg.acjk path[clip-path] {
	--t:0.8s;
	animation:zk var(--t) linear forwards var(--d);
	stroke-dasharray:3337;
	stroke-dashoffset:3339;
	stroke-width:128;
	stroke-linecap:round;
	fill:none;
	stroke:#000;
}
svg.acjk path[id] {fill:#ccc;}
]]>
</style>
<path id="z29990d1" d="M343 173Q391 160 442 148Q467 141 472 137Q481 128 476 120Q469 108 438 102Q407 98 377 111Q347 121 314 131Q278 141 236 146Q199 153 226 169Q250 181 289 185C307 189 325 177 343 173Z"/>
<path id="z29990d2" d="M199 292Q189 286 154 281Q144 278 140 283Q136 289 143 303Q174 364 195 467Q199 498 217 518Q233 537 238 523Q239 519 239 515C240 496 240 496 240 487Q239 472 235 455Q213 361 207 325C205 314 210 296 199 292Z"/>
<path id="z29990d3" d="M418 490Q419 494 421 501Q427 517 440 515Q453 514 461 498Q474 480 497 392Q513 340 548 309Q567 293 551 277Q532 261 481 235Q469 228 396 245Q384 245 365 252C332 259 332 259 315 263Q291 267 271 274Q228 286 199 292C188 294 196 325 207 325Q217 326 225 323Q256 310 316 298C345 292 345 292 360 289Q429 268 450 278Q460 285 455 317Q433 441 422 466C421 470 421 470 420 472C418 478 417 484 418 490Z"/>
<path id="z29990d4" d="M357 388Q384 382 408 379Q430 375 421 363Q411 350 387 346Q374 345 358 349C329 356 329 356 315 360Q287 370 262 380Q246 384 266 397Q270 400 313 396C342 391 342 391 357 388Z"/>
<path id="z29990d5" d="M350 499Q380 493 418 490C424 490 425 476 420 472Q414 466 402 458Q380 446 354 460C340 468 324 469 308 472Q271 479 240 487C231 489 230 517 239 515C283 508 283 508 305 505C335 501 335 501 350 499Z"/>
<path id="z29990d6" d="M326 639Q341 587 350 499C353 473 353 473 354 460Q355 423 357 388C358 362 358 362 358 349C359 309 359 309 360 289C363 264 363 264 365 252Q368 230 375 207Q379 197 372 190Q360 180 343 173C326 166 276 172 289 185Q314 209 315 235Q315 248 315 263C316 286 316 286 316 298Q316 329 315 360C314 384 314 384 313 396Q312 435 308 472C306 494 306 494 305 505Q296 580 287 613C278 636 278 636 274 648Q235 735 88 808Q76 812 74 815Q70 819 83 822Q96 823 146 807Q182 797 233 766Q282 735 313 676C322 651 322 651 326 639Z"/>
<path id="z29990d7" d="M313 676Q511 815 638 881Q716 917 744 918Q765 917 943 856Q962 849 979 837Q986 822 966 817Q941 813 754 818Q646 818 515 751Q425 705 326 639C300 622 300 622 287 613Q260 594 233 574Q190 541 132 545Q119 546 112 555Q109 562 120 568Q133 574 148 578Q179 584 204 601Q238 625 274 648C300 667 300 667 313 676Z"/>
<path id="z29990d8" d="M622 334Q635 301 649 283Q655 273 650 264Q646 255 620 241Q598 231 584 234Q571 238 579 253Q594 272 565 357Q552 396 529 440Q523 449 522 454Q521 463 531 459Q559 447 609 357C618 342 618 342 622 334Z"/>
<path id="z29990d9" d="M754 357Q791 347 834 341Q865 334 870 330Q879 323 875 315Q868 305 842 297Q818 293 755 311C725 319 725 319 710 323Q668 330 622 334C613 335 601 352 609 357Q640 375 710 364C739 359 739 359 754 357Z"/>
<path id="z29990d10" d="M746 641Q747 571 750 503C751 475 751 475 751 461Q752 407 754 357C755 326 755 326 755 311Q758 181 778 97Q782 84 760 69Q723 50 696 45Q678 42 670 51Q663 60 671 76Q705 125 705 158Q709 237 710 323C710 350 710 350 710 364Q709 416 708 470C707 496 707 496 707 509Q706 575 702 647C702 662 746 656 746 641Z"/>
<path id="z29990d11" d="M750 503Q801 496 844 493Q869 490 861 476Q851 460 824 454Q799 450 755 459Q752 459 751 461C722 467 722 467 708 470Q650 480 601 490Q582 494 603 510Q615 520 639 516Q673 512 707 509C736 505 736 505 750 503Z"/>
<path id="z29990d12" d="M702 647Q620 657 527 669Q509 670 522 686Q534 698 549 702Q568 706 581 703Q689 676 921 677Q937 677 942 670Q946 660 933 648Q884 612 825 627Q791 633 746 641C717 645 717 645 702 647Z"/>
<defs>
	<clipPath id="z29990c1"><use href="#z29990d1"/></clipPath>
	<clipPath id="z29990c2"><use href="#z29990d2"/></clipPath>
	<clipPath id="z29990c3"><use href="#z29990d3"/></clipPath>
	<clipPath id="z29990c4"><use href="#z29990d4"/></clipPath>
	<clipPath id="z29990c5"><use href="#z29990d5"/></clipPath>
	<clipPath id="z29990c6"><use href="#z29990d6"/></clipPath>
	<clipPath id="z29990c7"><use href="#z29990d7"/></clipPath>
	<clipPath id="z29990c8"><use href="#z29990d8"/></clipPath>
	<clipPath id="z29990c9"><use href="#z29990d9"/></clipPath>
	<clipPath id="z29990c10"><use href="#z29990d10"/></clipPath>
	<clipPath id="z29990c11"><use href="#z29990d11"/></clipPath>
	<clipPath id="z29990c12"><use href="#z29990d12"/></clipPath>
</defs>
<path style="--d:1s;" pathLength="3333" clip-path="url(#z29990c1)" d="M220 157L473 128"/>
<path style="--d:2s;" pathLength="3333" clip-path="url(#z29990c2)" d="M146 288L180 315L228 520"/>
<path style="--d:3s;" pathLength="3333" clip-path="url(#z29990c3)" d="M197 305L437 255L494 278L506 304L433 511"/>
<path style="--d:4s;" pathLength="3333" clip-path="url(#z29990c4)" d="M262 386L418 368"/>
<path style="--d:5s;" pathLength="3333" clip-path="url(#z29990c5)" d="M239 506L388 472L419 483"/>
<path style="--d:6s;" pathLength="3333" clip-path="url(#z29990c6)" d="M298 184L345 213L305 631L219 750L80 815"/>
<path style="--d:7s;" pathLength="3333" clip-path="url(#z29990c7)" d="M117 558L203 578L442 738L666 850L744 868L975 832"/>
<path style="--d:8s;" pathLength="3333" clip-path="url(#z29990c8)" d="M583 239L618 277L528 452"/>
<path style="--d:9s;" pathLength="3333" clip-path="url(#z29990c9)" d="M613 353L872 318"/>
<path style="--d:10s;" pathLength="3333" clip-path="url(#z29990c10)" d="M673 55L739 111L730 653"/>
<path style="--d:11s;" pathLength="3333" clip-path="url(#z29990c11)" d="M601 498L858 477"/>
<path style="--d:12s;" pathLength="3333" clip-path="url(#z29990c12)" d="M520 674L857 650L938 664"/>
</svg>