<!--
AnimCJK 2016-2026 Copyright FM-SH - https://github.com/parsimonhi/animCJK
Derived from:
    MakeMeAHanzi project - https://github.com/skishore/makemeahanzi
    Arphic PL KaitiM GB font
    Arphic PL KaitiM Big5 font
You can redistribute and/or modify this file under the terms of the Arphic Public License
as published by Arphic Technology Co., Ltd.
You should have received a copy of this license along with this file.
If not, see https://ftp.gnu.org/non-gnu/chinese-fonts-truetype/LICENSE.
-->
<svg id="z30009" class="acjk" viewBox="0 0 1024 1024" xmlns="http://www.w3.org/2000/svg">
<style>
<![CDATA[
@keyframes zk {
	to {
		stroke-dashoffset:0;
	}
}
svg.acjk path[clip-path] {
	--t:0.8s;
	animation:zk var(--t) linear forwards var(--d);
	stroke-dasharray:3337;
	stroke-dashoffset:3339;
	stroke-width:128;
	stroke-linecap:round;
	fill:none;
	stroke:#000;
}
svg.acjk path[id] {fill:#ccc;}
]]>
</style>
<path id="z30009d1" d="M334 221C314 208 244 184 272 233C298 280 316 345 330 425C334 449 342 468 356 485C379 512 380 489 382 468C382 458 381 448 380 439C372 398 353 326 343 260C341 247 345 229 334 221Z"/>
<path id="z30009d2" d="M474 196Q446 200 424 205Q370 215 334 221C321 224 330 260 343 260Q347 260 354 259Q397 246 476 233C510 228 510 228 527 226Q638 208 654 219Q664 225 657 259Q632 383 619 408Q618 408 618 409C612 419 609 432 614 442Q615 443 616 446Q622 464 636 463Q652 462 661 445Q674 429 701 347Q720 289 762 257Q784 239 766 221Q747 202 691 171Q676 161 610 175Q574 178 529 187C492 193 492 193 474 196Z"/>
<path id="z30009d3" d="M530 187C531 161 538 135 545 110C546 103 542 94 529 86C507 72 487 67 473 65C454 61 437 71 451 91C475 125 471 156 474 196C475 221 475 221 476 233C477 256 478 281 478 307C478 332 478 332 478 345C478 369 477 395 477 423C477 436 516 428 516 415C518 388 519 362 521 339C523 309 523 309 524 294C525 278 527 240 528 226C529 200 529 200 530 187Z"/>
<path id="z30009d4" d="M521 339C550 334 576 329 602 326C637 321 615 293 579 288C564 285 545 287 524 294C493 303 493 303 478 307C449 315 422 323 396 330C384 333 383 343 400 350C422 358 458 347 478 345C507 341 507 341 521 339Z"/>
<path id="z30009d5" d="M382 468C405 475 400 456 614 442C625 442 628 413 618 409C599 400 565 404 516 415C490 420 490 420 477 423C442 430 410 435 380 439C370 441 372 466 382 468Z"/>
<path id="z30009d6" d="M442 561C488 555 628 544 864 544C901 543 898 521 879 507C838 475 797 470 754 479C628 504 429 526 158 556C143 557 141 565 152 577C157 583 186 609 226 600C280 586 337 573 399 566C428 563 428 563 442 561Z"/>
<path id="z30009d7" d="M399 566C405 590 408 606 406 614C402 628 393 643 382 660C377 666 367 673 354 683C340 692 336 702 338 712C339 722 344 733 356 744C364 752 375 754 386 748C423 724 474 700 540 679C576 666 606 664 626 677C640 686 643 703 639 726C629 765 613 799 590 828C574 846 562 858 550 862C536 866 520 859 501 855C469 847 469 847 453 843C432 837 424 838 447 862C473 890 493 918 511 944C517 953 524 956 532 957C542 957 554 954 568 946C616 914 661 852 694 758C702 734 705 714 717 704C725 696 727 687 720 677C710 664 690 652 663 637C649 629 635 626 619 631C578 642 524 657 456 672C442 675 437 668 445 656C458 632 470 620 476 615C500 588 464 571 442 561C429 556 396 552 399 566Z"/>
<defs>
	<clipPath id="z30009c1"><use href="#z30009d1"/></clipPath>
	<clipPath id="z30009c2"><use href="#z30009d2"/></clipPath>
	<clipPath id="z30009c3"><use href="#z30009d3"/></clipPath>
	<clipPath id="z30009c4"><use href="#z30009d4"/></clipPath>
	<clipPath id="z30009c5"><use href="#z30009d5"/></clipPath>
	<clipPath id="z30009c6"><use href="#z30009d6"/></clipPath>
	<clipPath id="z30009c7"><use href="#z30009d7"/></clipPath>
</defs>
<path style="--d:1s;" pathLength="3333" clip-path="url(#z30009c1)" d="M273 212L315 253L365 492"/>
<path style="--d:2s;" pathLength="3333" clip-path="url(#z30009c2)" d="M332 231L684 201L719 245L625 457"/>
<path style="--d:3s;" pathLength="3333" clip-path="url(#z30009c3)" d="M453 73L506 118L497 426"/>
<path style="--d:4s;" pathLength="3333" clip-path="url(#z30009c4)" d="M393 340L614 310"/>
<path style="--d:5s;" pathLength="3333" clip-path="url(#z30009c5)" d="M378 455L621 424"/>
<path style="--d:6s;" pathLength="3333" clip-path="url(#z30009c6)" d="M154 564L228 574L775 510L889 525"/>
<path style="--d:7s;" pathLength="3333" clip-path="url(#z30009c7)" d="M407 562L445 600L393 685L401 712L613 650L682 693L634 820L569 897L528 908L441 846"/>
</svg>