<!--
AnimCJK 2016-2026 Copyright FM-SH, https://github.com/parsimonhi/animCJK
Derived from:
    MakeMeAHanzi project - https://github.com/skishore/makemeahanzi
    Arphic PL KaitiM GB font
    Arphic PL KaitiM Big5 font
You can redistribute and/or modify this file under the terms of the Arphic Public License
as published by Arphic Technology Co., Ltd.
You should have received a copy of this license along with this file.
If not, see https://ftp.gnu.org/non-gnu/chinese-fonts-truetype/LICENSE.
-->
<svg id="z30014" class="acjk" viewBox="0 0 1024 1024" xmlns="http://www.w3.org/2000/svg">
<style>
<![CDATA[
@keyframes zk {
	to {
		stroke-dashoffset:0;
	}
}
svg.acjk path[clip-path] {
	--t:0.8s;
	animation:zk var(--t) linear forwards var(--d);
	stroke-dasharray:3337;
	stroke-dashoffset:3339;
	stroke-width:128;
	stroke-linecap:round;
	fill:none;
	stroke:#000;
}
svg.acjk path[id] {fill:#ccc;}
]]>
</style>
<path id="z30014d1" d="M292 182C281 242 260 299 223 351C215 361 207 368 207 378C206 386 215 397 232 412C255 432 283 462 313 506C323 521 330 528 339 528C349 526 359 521 365 508C372 490 373 474 369 463C363 446 328 423 267 392C245 381 255 353 286 306C297 288 344 220 364 202C387 179 371 161 354 144C338 128 324 118 309 117C279 114 275 124 285 138C292 148 295 162 292 182Z"/>
<path id="z30014d2" d="M486 155C481 177 470 207 453 245C433 287 416 317 403 333C396 340 391 346 391 354C389 361 399 372 417 388C443 410 475 442 509 488C519 502 526 510 536 509C546 507 555 501 561 488C568 470 567 455 563 443C556 425 518 403 452 370C428 358 440 321 483 268C516 226 545 194 572 165C580 155 566 137 550 120C534 104 520 92 506 91C487 89 468 89 482 112C488 122 489 136 486 155Z"/>
<path id="z30014d3" d="M679 143C667 188 642 240 598 294C589 304 581 312 581 321C579 329 589 341 608 356C640 380 682 414 729 464C741 477 749 484 758 483C768 481 776 474 781 460C786 441 784 426 780 415C773 399 728 376 645 342C625 333 622 319 631 303C636 292 654 269 686 235C716 201 733 184 749 172C780 147 751 118 746 112C731 95 718 83 704 80C685 75 666 77 678 99C683 110 683 124 679 143Z"/>
<path id="z30014d4" d="M271 569C216 540 211 559 223 576C253 619 273 701 281 818C283 849 286 863 299 885C318 917 338 920 344 876C345 863 342 852 341 840C337 801 316 692 309 609C309 591 287 577 271 569Z"/>
<path id="z30014d5" d="M655 850C663 893 696 971 729 912C752 869 753 832 759 779C762 744 764 708 769 669C772 636 782 609 799 589C810 574 813 562 805 554C790 538 766 526 734 510C720 503 703 502 681 510C579 543 442 562 271 569C253 569 291 609 309 609C336 607 411 594 462 587C494 582 494 582 510 580C552 573 600 567 652 560C676 556 694 558 702 572C717 597 714 651 695 764C692 781 688 808 677 828C673 838 653 840 655 850Z"/>
<path id="z30014d6" d="M523 817C523 782 526 750 528 721C529 691 529 691 530 676C533 597 548 606 510 580C496 572 459 571 462 587C468 609 473 642 475 689C476 715 476 715 476 728C476 753 476 786 478 824C478 839 523 832 523 817Z"/>
<path id="z30014d7" d="M528 721C558 716 588 712 617 709C652 704 630 677 596 671C579 668 557 669 530 676C493 685 493 685 475 689C440 697 407 702 376 710C364 712 363 721 379 730C393 737 449 731 476 728C511 723 511 723 528 721Z"/>
<path id="z30014d8" d="M344 876C364 876 448 859 655 850C665 850 684 835 677 828C640 797 592 806 523 817C493 822 493 822 478 824C428 831 382 836 341 840C329 842 332 876 344 876Z"/>
<defs>
	<clipPath id="z30014c1"><use href="#z30014d1"/></clipPath>
	<clipPath id="z30014c2"><use href="#z30014d2"/></clipPath>
	<clipPath id="z30014c3"><use href="#z30014d3"/></clipPath>
	<clipPath id="z30014c4"><use href="#z30014d4"/></clipPath>
	<clipPath id="z30014c5"><use href="#z30014d5"/></clipPath>
	<clipPath id="z30014c6"><use href="#z30014d6"/></clipPath>
	<clipPath id="z30014c7"><use href="#z30014d7"/></clipPath>
	<clipPath id="z30014c8"><use href="#z30014d8"/></clipPath>
</defs>
<path style="--d:1s;" pathLength="3333" clip-path="url(#z30014c1)" d="M287 125L334 180L232 383L335 474L354 520"/>
<path style="--d:2s;" pathLength="3333" clip-path="url(#z30014c2)" d="M484 98L528 164L416 354L528 455L542 504"/>
<path style="--d:3s;" pathLength="3333" clip-path="url(#z30014c3)" d="M684 86L717 157L604 323L749 433L763 479"/>
<path style="--d:4s;" pathLength="3333" clip-path="url(#z30014c4)" d="M224 560L277 612L324 904"/>
<path style="--d:5s;" pathLength="3333" clip-path="url(#z30014c5)" d="M275 575L343 585L682 533L746 560L759 579L697 929"/>
<path style="--d:6s;" pathLength="3333" clip-path="url(#z30014c6)" d="M469 587L503 622L502 830"/>
<path style="--d:7s;" pathLength="3333" clip-path="url(#z30014c7)" d="M376 716L630 694"/>
<path style="--d:8s;" pathLength="3333" clip-path="url(#z30014c8)" d="M336 860L674 836"/>
</svg>