<!--
AnimCJK 2016-2025 Copyright FM-SH - https://github.com/parsimonhi/animCJK
Derived from:
    MakeMeAHanzi project - https://github.com/skishore/makemeahanzi
    Arphic PL KaitiM GB font
    Arphic PL KaitiM Big5 font
You can redistribute and/or modify this file under the terms of the Arphic Public License
as published by Arphic Technology Co., Ltd.
You should have received a copy of this license along with this file.
If not, see https://ftp.gnu.org/non-gnu/chinese-fonts-truetype/LICENSE.
-->
<svg id="z30031" class="acjk" viewBox="0 0 1024 1024" xmlns="http://www.w3.org/2000/svg">
<style>
<![CDATA[
@keyframes zk {
	to {
		stroke-dashoffset:0;
	}
}
svg.acjk path[clip-path] {
	--t:0.8s;
	animation:zk var(--t) linear forwards var(--d);
	stroke-dasharray:3337;
	stroke-dashoffset:3339;
	stroke-width:128;
	stroke-linecap:round;
	fill:none;
	stroke:#000;
}
svg.acjk path[id] {fill:#ccc;}
]]>
</style>
<path id="z30031d1" d="M321 127Q308 123 288 120Q276 117 273 122Q266 129 275 144Q312 222 334 349Q338 388 360 413Q378 435 383 419Q386 409 386 396C385 378 385 378 385 369Q384 353 380 335Q352 202 345 161C342 147 335 130 321 127Z"/>
<path id="z30031d2" d="M607 362Q626 393 645 403Q655 412 671 390Q689 362 724 207Q734 174 758 149Q771 136 760 122Q744 104 701 76Q685 67 591 86Q588 86 435 109Q374 119 321 127C307 130 331 164 345 161Q399 148 478 135C506 132 506 132 520 130Q562 123 611 117Q648 113 660 126Q675 142 671 161Q640 320 624 336C618 344 601 354 607 362Z"/>
<path id="z30031d3" d="M525 341Q526 298 530 261C531 234 531 234 532 221Q535 146 536 145Q529 138 520 130C509 121 473 122 478 135Q484 150 485 234C485 257 485 257 485 268Q485 301 485 349C485 363 525 355 525 341Z"/>
<path id="z30031d4" d="M530 261Q573 252 611 247Q633 243 625 231Q615 218 591 213Q569 210 532 221C501 230 501 230 485 234Q442 246 403 256Q387 260 406 273Q416 280 485 268C515 263 515 263 530 261Z"/>
<path id="z30031d5" d="M386 396Q446 381 607 362C617 360 634 340 624 336Q617 332 607 329Q576 325 525 341C498 346 498 346 485 349Q433 358 385 369C376 371 377 398 386 396Z"/>
<path id="z30031d6" d="M478 497Q614 478 824 476Q905 479 912 467Q918 454 900 439Q837 394 772 414Q543 454 125 508Q103 511 120 529Q135 544 154 549Q176 555 194 550Q239 537 289 527C320 521 320 521 336 518Q379 508 430 503C462 499 462 499 478 497Z"/>
<path id="z30031d7" d="M289 527Q322 560 306 753Q303 763 302 773Q296 806 283 824Q268 848 278 871Q290 907 309 920Q321 929 334 907Q371 859 495 740Q514 724 515 715Q516 700 494 713Q371 791 360 786Q353 782 352 762Q359 611 368 572Q374 545 336 518C323 508 279 514 289 527Z"/>
<path id="z30031d8" d="M620 642Q654 627 676 615Q743 576 768 571Q790 564 781 545Q771 526 747 509Q726 493 713 494Q700 494 703 507Q704 537 646 586Q625 605 602 626C596 632 613 645 620 642Z"/>
<path id="z30031d9" d="M602 626Q541 562 478 497C467 486 416 495 430 503Q467 524 492 559Q726 853 767 863Q818 870 943 850Q962 847 969 838Q973 829 961 826Q786 772 736 737Q688 706 620 642C608 631 608 631 602 626Z"/>
<defs>
	<clipPath id="z30031c1"><use href="#z30031d1"/></clipPath>
	<clipPath id="z30031c2"><use href="#z30031d2"/></clipPath>
	<clipPath id="z30031c3"><use href="#z30031d3"/></clipPath>
	<clipPath id="z30031c4"><use href="#z30031d4"/></clipPath>
	<clipPath id="z30031c5"><use href="#z30031d5"/></clipPath>
	<clipPath id="z30031c6"><use href="#z30031d6"/></clipPath>
	<clipPath id="z30031c7"><use href="#z30031d7"/></clipPath>
	<clipPath id="z30031c8"><use href="#z30031d8"/></clipPath>
	<clipPath id="z30031c9"><use href="#z30031d9"/></clipPath>
</defs>
<path style="--d:1s;" pathLength="3333" clip-path="url(#z30031c1)" d="M277 127L319 173L372 420"/>
<path style="--d:2s;" pathLength="3333" clip-path="url(#z30031c2)" d="M333 132L636 96L691 109L718 147L638 397"/>
<path style="--d:3s;" pathLength="3333" clip-path="url(#z30031c3)" d="M486 143L509 170L499 345"/>
<path style="--d:4s;" pathLength="3333" clip-path="url(#z30031c4)" d="M402 263L619 234"/>
<path style="--d:5s;" pathLength="3333" clip-path="url(#z30031c5)" d="M391 387L618 343"/>
<path style="--d:6s;" pathLength="3333" clip-path="url(#z30031c6)" d="M119 515L175 527L797 442L909 454"/>
<path style="--d:7s;" pathLength="3333" clip-path="url(#z30031c7)" d="M300 531L337 569L322 797L332 871L508 715"/>
<path style="--d:8s;" pathLength="3333" clip-path="url(#z30031c8)" d="M711 499L729 559L609 630"/>
<path style="--d:9s;" pathLength="3333" clip-path="url(#z30031c9)" d="M440 503L764 805L965 835"/>
</svg>