<!--
AnimCJK 2016-2019 Copyright Francois Mizessyn - https://github.com/parsimonhi/animCJK
Derived from:
    MakeMeAHanzi project - https://github.com/skishore/makemeahanzi
    Arphic PL KaitiM GB font
    Arphic PL UKai font
You can redistribute and/or modify this file under the terms of the Arphic Public License
as published by Arphic Technology Co., Ltd.
You should have received a copy of this license along with this file.
If not, see http://ftp.gnu.org/non-gnu/chinese-fonts-truetype/LICENSE.
-->
<svg id="z30050" class="acjk" version="1.1" viewBox="0 0 1024 1024" xmlns="http://www.w3.org/2000/svg" xmlns:xlink="http://www.w3.org/1999/xlink">
<style>
<![CDATA[
@keyframes zk {
	to {
		stroke-dashoffset:0;
	}
}
svg.acjk path[clip-path] {
	--t:0.8s;
	animation:zk var(--t) linear forwards var(--d);
	stroke-dasharray:3337;
	stroke-dashoffset:3339;
	stroke-width:128;
	stroke-linecap:round;
	fill:none;
	stroke:#000;
}
svg.acjk path[id] {fill:#ccc;}
]]>
</style>
<path id="z30050d1" d="M314 109C304 104 293 101 283 100C278 99 275 101 272 104C267 108 269 112 275 119C300 148 318 201 329 275C335 317 349 345 375 354C383 356 391 348 390 336C388 319 388 319 387 310C385 295 378 281 375 266C361 204 349 152 351 137C351 122 328 115 314 109Z"/>
<path id="z30050d2" d="M661 316C674 295 688 247 711 179C717 159 729 141 746 127C754 119 756 110 749 101C740 90 723 74 696 56C685 49 660 52 620 59C518 76 416 91 314 109C299 112 336 142 351 137C377 129 408 122 446 116C485 109 485 109 504 106C534 100 569 96 608 91C630 88 647 90 658 99C666 105 668 115 665 129C640 218 622 268 610 276C602 284 595 298 601 307C609 321 618 331 628 338C634 342 643 342 651 331C658 321 658 321 661 316Z"/>
<path id="z30050d3" d="M524 282C524 275 524 268 525 262C525 243 525 228 526 216C527 191 527 191 528 179C530 139 538 130 526 119C518 112 513 110 504 106C486 99 436 99 446 116C445 116 446 117 447 118C470 147 475 164 477 192C477 202 478 213 479 224C479 269 479 269 479 292C479 307 524 297 524 282Z"/>
<path id="z30050d4" d="M526 216C546 212 567 208 588 206C602 203 606 198 601 191C594 182 583 176 569 174C558 172 542 175 528 179C494 188 494 188 477 192C450 198 425 205 402 213C392 215 393 220 406 229C412 233 421 234 433 232C447 229 463 226 479 224C510 219 510 219 526 216Z"/>
<path id="z30050d5" d="M390 336C394 334 424 332 479 324C509 319 509 319 524 317C550 312 576 309 601 307C612 307 619 282 610 276C603 269 583 270 549 277C540 278 532 280 524 282C494 289 494 289 479 292C446 299 415 304 387 310C378 312 381 338 390 336Z"/>
<path id="z30050d6" d="M699 449C745 446 794 445 847 446C869 446 891 446 913 446C927 445 935 443 939 437C943 429 939 419 928 411C888 380 848 374 806 385C778 391 748 397 715 402C674 408 674 408 654 411C614 416 571 424 524 431C493 435 493 435 478 437C437 442 395 447 353 452C318 456 318 456 300 458C235 465 169 473 101 481C86 482 83 488 95 501C104 511 116 517 128 521C142 525 155 525 167 522C213 509 261 498 311 490C342 485 342 485 357 482C403 473 443 468 477 465C509 462 509 462 525 460C561 456 602 454 648 452C682 450 682 450 699 449Z"/>
<path id="z30050d7" d="M353 452C348 421 345 403 337 398C322 389 305 384 288 381C279 379 272 380 268 385C263 389 263 396 269 404C282 422 293 439 300 458C307 479 307 479 311 490C318 511 326 542 337 582C339 594 377 593 375 580C367 540 360 507 357 482C354 462 354 462 353 452Z"/>
<path id="z30050d8" d="M672 530C680 502 690 475 699 449C710 418 710 418 715 402C721 384 728 375 731 372C734 366 731 357 722 348C706 332 690 323 677 318C670 315 665 314 661 316C655 317 647 326 651 331C659 341 661 360 660 370C658 382 656 396 654 411C650 438 650 438 648 452C644 478 638 507 632 537C630 550 669 543 672 530Z"/>
<path id="z30050d9" d="M526 598C579 589 645 581 724 577C730 576 739 575 744 566C747 558 736 551 723 543C706 532 690 526 672 530C645 535 645 535 632 537C597 543 542 555 525 559C492 565 492 565 476 568C442 574 408 578 375 580C350 581 350 581 337 582C314 583 291 585 269 588C250 589 248 594 262 608C280 625 300 633 322 630C368 621 419 614 475 606C509 601 509 601 526 598Z"/>
<path id="z30050d10" d="M530 726C557 722 653 722 817 722C831 721 839 719 843 713C847 705 842 696 831 687C796 659 765 648 739 654C686 664 616 677 529 688C492 693 492 693 473 695C386 705 293 714 193 725C178 726 175 732 187 745C196 755 207 762 220 766C234 770 247 769 259 767C322 750 448 735 472 733C511 728 511 728 530 726Z"/>
<path id="z30050d11" d="M472 733C468 875 475 955 490 973C493 977 498 980 503 978C523 965 534 880 530 726C529 701 529 701 529 688C528 665 527 636 526 598C525 572 525 572 525 559C524 530 526 497 525 460C525 460 524 440 524 431C523 393 524 355 524 317C524 302 479 309 479 324C478 358 479 396 478 437C477 456 477 456 477 465C475 497 476 532 476 568C475 593 475 593 475 606C474 634 473 664 473 695C472 720 472 720 472 733Z"/>
<defs>
	<clipPath id="z30050c1"><use xlink:href="#z30050d1"/></clipPath>
	<clipPath id="z30050c2"><use xlink:href="#z30050d2"/></clipPath>
	<clipPath id="z30050c3"><use xlink:href="#z30050d3"/></clipPath>
	<clipPath id="z30050c4"><use xlink:href="#z30050d4"/></clipPath>
	<clipPath id="z30050c5"><use xlink:href="#z30050d5"/></clipPath>
	<clipPath id="z30050c6"><use xlink:href="#z30050d6"/></clipPath>
	<clipPath id="z30050c7"><use xlink:href="#z30050d7"/></clipPath>
	<clipPath id="z30050c8"><use xlink:href="#z30050d8"/></clipPath>
	<clipPath id="z30050c9"><use xlink:href="#z30050d9"/></clipPath>
	<clipPath id="z30050c10"><use xlink:href="#z30050d10"/></clipPath>
	<clipPath id="z30050c11"><use xlink:href="#z30050d11"/></clipPath>
</defs>
<path style="--d:1s;" pathLength="3333" clip-path="url(#z30050c1)" d="M281 110L327 157L375 349"/>
<path style="--d:2s;" pathLength="3333" clip-path="url(#z30050c2)" d="M323 109L679 80L709 120L622 331"/>
<path style="--d:3s;" pathLength="3333" clip-path="url(#z30050c3)" d="M454 119L504 162L487 280"/>
<path style="--d:4s;" pathLength="3333" clip-path="url(#z30050c4)" d="M402 218L596 194"/>
<path style="--d:5s;" pathLength="3333" clip-path="url(#z30050c5)" d="M395 327L606 287"/>
<path style="--d:6s;" pathLength="3333" clip-path="url(#z30050c6)" d="M95 489L164 498L826 413L935 426"/>
<path style="--d:7s;" pathLength="3333" clip-path="url(#z30050c7)" d="M272 391L321 430L359 580"/>
<path style="--d:8s;" pathLength="3333" clip-path="url(#z30050c8)" d="M664 319L695 369L638 530"/>
<path style="--d:9s;" pathLength="3333" clip-path="url(#z30050c9)" d="M263 597L329 606L739 560"/>
<path style="--d:10s;" pathLength="3333" clip-path="url(#z30050c10)" d="M186 732L239 744L749 687L839 699"/>
<path style="--d:11s;" pathLength="3333" clip-path="url(#z30050c11)" d="M503 334L499 972"/>
</svg>