<!--
AnimCJK 2016-2025 Copyright FM-SH - https://github.com/parsimonhi/animCJK
Derived from:
    MakeMeAHanzi project - https://github.com/skishore/makemeahanzi
    Arphic PL KaitiM GB font
    Arphic PL UKai font
You can redistribute and/or modify this file under the terms of the Arphic Public License
as published by Arphic Technology Co., Ltd.
You should have received a copy of this license along with this file.
If not, see http://ftp.gnu.org/non-gnu/chinese-fonts-truetype/LICENSE.
-->
<svg id="z30246" class="acjk" version="1.1" viewBox="0 0 1024 1024" xmlns="http://www.w3.org/2000/svg" xmlns:xlink="http://www.w3.org/1999/xlink">
<style>
<![CDATA[
@keyframes zk {
	to {
		stroke-dashoffset:0;
	}
}
svg.acjk path[clip-path] {
	--t:0.8s;
	animation:zk var(--t) linear forwards var(--d);
	stroke-dasharray:3337;
	stroke-dashoffset:3339;
	stroke-width:128;
	stroke-linecap:round;
	fill:none;
	stroke:#000;
}
svg.acjk path[id] {fill:#ccc;}
]]>
</style>
<path id="z30246d1" d="M527 87C548 100 569 116 594 133C604 140 615 142 626 141C634 139 639 133 641 124C642 113 637 97 629 78C623 65 609 53 586 48C532 34 500 33 491 41C488 43 487 49 491 59C493 65 506 74 527 87Z"/>
<path id="z30246d2" d="M361 238C385 248 417 250 459 244C665 214 776 195 791 188C797 184 800 177 798 172C793 163 782 156 764 151C745 146 726 147 706 153C656 167 604 179 552 190C497 200 410 207 353 211C344 211 352 235 361 238Z"/>
<path id="z30246d3" d="M263 536C244 640 201 734 149 821C131 849 116 878 99 905C95 910 92 914 92 918C90 924 92 927 100 927C114 925 151 887 205 811C222 786 238 757 252 727C298 623 330 490 345 328C348 286 351 256 361 238C364 229 360 217 353 211C342 201 328 192 311 185C298 178 286 175 278 179C269 182 267 191 273 200C286 221 294 251 291 293C282 399 275 467 270 497C265 523 265 523 263 536Z"/>
<path id="z30246d4" d="M149 350C183 388 205 409 217 411C223 411 229 407 233 399C237 390 237 375 233 356C228 337 200 320 149 304C139 300 131 299 128 301C124 302 122 309 123 317C123 323 134 333 149 350Z"/>
<path id="z30246d5" d="M270 497C146 575 72 617 49 624C40 626 37 631 38 638C38 646 42 653 50 656C66 662 86 669 110 674C116 675 123 670 129 663C148 636 192 594 263 536C273 528 281 489 270 497Z"/>
<path id="z30246d6" d="M422 379C456 358 481 337 514 323C524 318 526 312 522 304C516 296 507 288 496 282C485 275 477 272 471 273C465 273 463 277 465 283C462 306 451 321 408 367C404 371 417 383 422 379Z"/>
<path id="z30246d7" d="M448 528C444 508 440 481 437 463C434 447 434 447 433 439C429 420 423 389 422 379C421 373 414 369 408 367C399 364 387 362 374 360C366 358 362 358 360 362C357 366 358 372 363 382C381 418 395 464 406 525C408 542 414 558 425 570C445 592 449 573 450 553C450 544 449 536 448 528Z"/>
<path id="z30246d8" d="M437 463C469 454 498 447 523 442C535 439 538 433 533 428C527 420 516 417 504 416C481 414 458 421 433 439C426 443 429 465 437 463Z"/>
<path id="z30246d9" d="M518 514C496 518 484 521 448 528C440 530 442 553 450 553C475 554 502 546 524 542C549 536 550 507 518 514Z"/>
<path id="z30246d10" d="M705 529C715 549 733 554 746 544C756 535 768 512 776 476C787 418 801 376 826 351C836 340 837 329 830 320C820 307 806 294 789 282C780 276 769 275 760 278C731 283 702 288 671 288C659 288 653 291 655 297C657 303 661 313 672 314C719 318 746 315 751 320C755 323 756 334 753 352C750 364 746 379 744 393C740 411 740 411 738 420C732 442 719 497 715 503C712 512 701 521 705 529Z"/>
<path id="z30246d11" d="M744 393C735 384 712 382 677 391C664 393 654 397 643 402C634 405 630 417 645 418C707 419 707 419 738 420C747 420 751 399 744 393Z"/>
<path id="z30246d12" d="M654 531C664 532 685 531 705 529C714 529 723 508 715 503C702 492 670 497 638 502C607 506 623 525 654 531Z"/>
<path id="z30246d13" d="M599 610C602 512 605 330 626 279C628 272 623 264 611 257C590 245 572 239 559 237C550 235 543 236 538 242C533 246 533 253 539 261C552 281 559 298 560 312C567 423 564 514 562 619C562 632 599 623 599 610Z"/>
<path id="z30246d14" d="M614 807C646 768 668 737 694 691C703 674 715 659 730 649C742 639 745 631 739 622C732 613 719 603 699 594C684 587 667 588 649 595C634 600 617 605 599 610C574 616 574 616 562 619C528 627 483 632 428 635C419 635 412 636 409 642C405 646 410 651 423 657C445 667 473 667 507 659C575 641 616 634 629 636C641 637 645 645 641 658C627 698 611 732 575 779C566 787 557 796 548 805C500 851 421 876 326 897C316 899 314 903 322 909C326 912 344 912 376 911C450 899 522 876 581 836C592 826 604 818 614 807Z"/>
<path id="z30246d15" d="M581 836C617 870 666 909 729 951C749 964 773 965 801 957C837 945 869 937 895 930C903 927 912 924 919 919C924 914 921 909 913 905C902 899 856 892 776 879C729 871 673 850 614 807C601 797 588 788 575 779C547 759 519 734 489 708C474 695 456 688 434 687C427 686 420 688 417 693C413 697 416 701 422 705C426 707 431 710 438 713C455 719 490 751 548 805C559 815 570 825 581 836Z"/>
<defs>
	<clipPath id="z30246c1"><use xlink:href="#z30246d1"/></clipPath>
	<clipPath id="z30246c2"><use xlink:href="#z30246d2"/></clipPath>
	<clipPath id="z30246c3"><use xlink:href="#z30246d3"/></clipPath>
	<clipPath id="z30246c4"><use xlink:href="#z30246d4"/></clipPath>
	<clipPath id="z30246c5"><use xlink:href="#z30246d5"/></clipPath>
	<clipPath id="z30246c6"><use xlink:href="#z30246d6"/></clipPath>
	<clipPath id="z30246c7"><use xlink:href="#z30246d7"/></clipPath>
	<clipPath id="z30246c8"><use xlink:href="#z30246d8"/></clipPath>
	<clipPath id="z30246c9"><use xlink:href="#z30246d9"/></clipPath>
	<clipPath id="z30246c10"><use xlink:href="#z30246d10"/></clipPath>
	<clipPath id="z30246c11"><use xlink:href="#z30246d11"/></clipPath>
	<clipPath id="z30246c12"><use xlink:href="#z30246d12"/></clipPath>
	<clipPath id="z30246c13"><use xlink:href="#z30246d13"/></clipPath>
	<clipPath id="z30246c14"><use xlink:href="#z30246d14"/></clipPath>
	<clipPath id="z30246c15"><use xlink:href="#z30246d15"/></clipPath>
</defs>
<path style="--d:1s;" pathLength="3333" clip-path="url(#z30246c1)" d="M493 47L636 127"/>
<path style="--d:2s;" pathLength="3333" clip-path="url(#z30246c2)" d="M355 217L439 225L794 176"/>
<path style="--d:3s;" pathLength="3333" clip-path="url(#z30246c3)" d="M275 185L325 238L279 576L214 751L99 920"/>
<path style="--d:4s;" pathLength="3333" clip-path="url(#z30246c4)" d="M130 309L206 365L220 404"/>
<path style="--d:5s;" pathLength="3333" clip-path="url(#z30246c5)" d="M43 635L104 638L268 506"/>
<path style="--d:6s;" pathLength="3333" clip-path="url(#z30246c6)" d="M473 277L490 311L414 372"/>
<path style="--d:7s;" pathLength="3333" clip-path="url(#z30246c7)" d="M366 367L397 390L441 574"/>
<path style="--d:8s;" pathLength="3333" clip-path="url(#z30246c8)" d="M435 453L529 432"/>
<path style="--d:9s;" pathLength="3333" clip-path="url(#z30246c9)" d="M445 541L537 524"/>
<path style="--d:10s;" pathLength="3333" clip-path="url(#z30246c10)" d="M664 298L762 299L794 334L717 542"/>
<path style="--d:11s;" pathLength="3333" clip-path="url(#z30246c11)" d="M645 410L742 403"/>
<path style="--d:12s;" pathLength="3333" clip-path="url(#z30246c12)" d="M627 511L713 508"/>
<path style="--d:13s;" pathLength="3333" clip-path="url(#z30246c13)" d="M541 244L592 294L573 621"/>
<path style="--d:14s;" pathLength="3333" clip-path="url(#z30246c14)" d="M413 644L650 615L692 640L560 824L459 876L324 903"/>
<path style="--d:15s;" pathLength="3333" clip-path="url(#z30246c15)" d="M421 695L746 915L911 915"/>
</svg>