<!--
AnimCJK 2016-2026 Copyright FM-SH, https://github.com/parsimonhi/animCJK
Derived from:
    MakeMeAHanzi project - https://github.com/skishore/makemeahanzi
    Arphic PL KaitiM GB font
    Arphic PL KaitiM Big5 font
You can redistribute and/or modify this file under the terms of the Arphic Public License
as published by Arphic Technology Co., Ltd.
You should have received a copy of this license along with this file.
If not, see https://ftp.gnu.org/non-gnu/chinese-fonts-truetype/LICENSE.
-->
<svg id="z30322" class="acjk" viewBox="0 0 1024 1024" xmlns="http://www.w3.org/2000/svg">
<style>
<![CDATA[
@keyframes zk {
	to {
		stroke-dashoffset:0;
	}
}
svg.acjk path[clip-path] {
	--t:0.8s;
	animation:zk var(--t) linear forwards var(--d);
	stroke-dasharray:3337;
	stroke-dashoffset:3339;
	stroke-width:128;
	stroke-linecap:round;
	fill:none;
	stroke:#000;
}
svg.acjk path[id] {fill:#ccc;}
]]>
</style>
<path id="z30322d1" d="M526 85C540 95 554 107 570 121C582 131 606 138 613 116C615 106 612 91 605 74C597 57 567 45 517 40C506 38 498 39 496 41C492 43 491 49 494 57C495 63 507 72 526 85Z"/>
<path id="z30322d2" d="M328 215C356 227 399 229 457 221C669 187 779 167 789 161C802 152 797 134 759 123C738 117 718 118 697 125C644 140 590 154 534 165C409 187 341 186 326 189C317 190 320 212 328 215Z"/>
<path id="z30322d3" d="M243 533C221 649 172 764 94 897C74 930 100 918 113 906C292 747 314 366 316 334C319 236 323 224 328 215C331 207 332 195 326 189C293 156 221 140 243 178C255 199 264 228 265 271C265 380 256 456 249 500C245 522 245 522 243 533Z"/>
<path id="z30322d4" d="M108 361C133 399 152 424 169 432C184 438 200 427 199 402C196 373 169 350 124 330C115 325 108 323 102 325C98 325 96 329 97 336C97 342 101 350 108 361Z"/>
<path id="z30322d5" d="M249 500C137 566 70 601 49 608C30 613 37 635 50 640C66 646 86 653 110 658C116 659 123 654 129 647C137 634 234 541 243 533C251 525 258 493 249 500Z"/>
<path id="z30322d6" d="M409 326C456 327 515 305 547 295C561 290 554 281 544 272C537 266 501 241 498 260C494 274 466 292 410 315C407 316 405 326 409 326Z"/>
<path id="z30322d7" d="M410 315C410 304 414 297 417 291C422 279 415 269 407 264C354 225 363 257 364 259C372 273 376 291 376 313C375 358 385 390 409 403C441 420 491 412 524 407C552 402 570 396 581 390C591 383 595 375 590 365C584 354 577 339 574 319C572 309 567 297 562 315C553 341 538 358 521 364C487 373 463 379 429 373C407 368 407 344 409 326C410 319 410 319 410 315Z"/>
<path id="z30322d8" d="M415 464C378 438 376 449 384 477C394 511 395 551 386 597C381 617 384 636 399 653C406 662 416 652 417 641C418 626 418 626 418 619C418 608 418 599 418 589C418 576 418 576 418 570C418 545 418 545 418 533C418 520 418 520 418 514C418 494 418 494 418 484C418 477 420 468 415 464Z"/>
<path id="z30322d9" d="M510 627C519 651 530 652 543 630C548 620 549 603 548 576C544 518 549 482 557 470C561 463 561 458 558 455C547 446 532 438 512 431C506 428 498 429 489 434C465 444 428 458 415 464C409 467 412 487 418 484C422 479 446 471 491 459C500 456 512 451 513 501C513 619 512 595 510 610C509 616 508 622 510 627Z"/>
<path id="z30322d10" d="M418 533C438 526 466 521 489 515C508 509 496 496 474 495C458 493 439 501 418 514C413 517 412 535 418 533Z"/>
<path id="z30322d11" d="M418 589C446 583 471 577 493 571C511 565 500 552 478 551C468 550 448 557 418 570C412 572 412 590 418 589Z"/>
<path id="z30322d12" d="M417 641C437 636 468 631 510 627C516 627 515 613 510 610C486 593 443 613 418 619C411 620 410 642 417 641Z"/>
<path id="z30322d13" d="M363 572C365 561 363 550 355 541C340 525 327 519 317 519C308 518 304 523 309 533C321 558 327 581 325 606C319 655 314 684 309 692C302 700 302 708 307 716C314 728 320 735 327 735C331 735 338 731 350 728C425 704 501 696 577 698C590 698 611 689 568 666C553 658 534 662 507 668C480 672 435 681 386 690C344 697 347 682 348 679C351 644 355 608 363 572Z"/>
<path id="z30322d14" d="M368 768C363 793 332 833 272 886C261 894 262 895 277 895C321 892 388 832 425 796C427 793 445 773 408 762C393 757 382 755 376 756C371 756 369 760 368 768Z"/>
<path id="z30322d15" d="M491 784C503 800 515 818 527 839C531 847 538 852 547 854C551 854 556 852 561 847C565 840 567 829 567 813C566 801 560 788 545 777C509 750 487 739 480 742C477 742 474 746 474 754C473 760 480 769 491 784Z"/>
<path id="z30322d16" d="M705 300C743 291 795 275 863 267C870 266 892 256 860 240C842 231 807 235 750 253C705 266 659 271 614 281C599 283 598 289 610 298C626 309 645 313 669 308C693 303 693 303 705 300Z"/>
<path id="z30322d17" d="M667 422C728 319 752 321 705 300C694 295 667 296 669 308C680 340 659 392 650 425C649 425 649 425 650 426C649 432 664 427 667 422Z"/>
<path id="z30322d18" d="M646 427C640 421 596 396 605 427C614 464 622 506 621 553C618 661 613 708 617 727C620 745 638 768 652 728C654 719 654 709 655 700C655 685 656 670 656 628C656 612 656 612 656 604C656 583 655 563 656 543C657 529 657 529 657 522C658 498 657 474 659 450C659 441 653 432 646 427Z"/>
<path id="z30322d19" d="M813 713C827 761 848 762 869 722C877 705 881 691 880 680C873 631 870 569 869 494C868 471 873 451 886 433C891 424 893 415 888 411C845 376 805 374 769 391C746 401 711 409 667 422C661 424 655 423 650 426C648 426 646 426 646 427C637 429 651 453 659 450C674 446 710 432 781 414C791 411 799 412 803 417C811 427 816 452 818 492C820 597 819 662 814 686C813 704 813 704 813 713Z"/>
<path id="z30322d20" d="M769 528C796 524 779 502 751 499C729 496 697 504 657 522C650 525 649 544 656 543C731 533 731 533 769 528Z"/>
<path id="z30322d21" d="M656 628C665 628 694 622 769 612C796 608 779 587 751 583C732 580 700 587 656 604C649 607 648 628 656 628Z"/>
<path id="z30322d22" d="M652 728C665 728 683 719 813 713C822 713 822 691 814 686C784 665 788 680 655 700C646 702 643 728 652 728Z"/>
<path id="z30322d23" d="M649 782C635 822 589 873 509 933C495 942 496 944 514 944C596 936 653 868 714 819C719 814 739 794 697 778C680 771 667 768 659 769C654 769 651 774 649 782Z"/>
<path id="z30322d24" d="M776 810C800 842 828 879 857 925C864 937 871 946 881 951C885 953 890 951 897 946C905 939 907 922 905 894C902 870 882 844 842 818C816 801 795 790 781 782C775 778 771 779 770 787C768 795 771 803 776 810Z"/>
<defs>
	<clipPath id="z30322c1"><use href="#z30322d1"/></clipPath>
	<clipPath id="z30322c2"><use href="#z30322d2"/></clipPath>
	<clipPath id="z30322c3"><use href="#z30322d3"/></clipPath>
	<clipPath id="z30322c4"><use href="#z30322d4"/></clipPath>
	<clipPath id="z30322c5"><use href="#z30322d5"/></clipPath>
	<clipPath id="z30322c6"><use href="#z30322d6"/></clipPath>
	<clipPath id="z30322c7"><use href="#z30322d7"/></clipPath>
	<clipPath id="z30322c8"><use href="#z30322d8"/></clipPath>
	<clipPath id="z30322c9"><use href="#z30322d9"/></clipPath>
	<clipPath id="z30322c10"><use href="#z30322d10"/></clipPath>
	<clipPath id="z30322c11"><use href="#z30322d11"/></clipPath>
	<clipPath id="z30322c12"><use href="#z30322d12"/></clipPath>
	<clipPath id="z30322c13"><use href="#z30322d13"/></clipPath>
	<clipPath id="z30322c14"><use href="#z30322d14"/></clipPath>
	<clipPath id="z30322c15"><use href="#z30322d15"/></clipPath>
	<clipPath id="z30322c16"><use href="#z30322d16"/></clipPath>
	<clipPath id="z30322c17"><use href="#z30322d17"/></clipPath>
	<clipPath id="z30322c18"><use href="#z30322d18"/></clipPath>
	<clipPath id="z30322c19"><use href="#z30322d19"/></clipPath>
	<clipPath id="z30322c20"><use href="#z30322d20"/></clipPath>
	<clipPath id="z30322c21"><use href="#z30322d21"/></clipPath>
	<clipPath id="z30322c22"><use href="#z30322d22"/></clipPath>
	<clipPath id="z30322c23"><use href="#z30322d23"/></clipPath>
	<clipPath id="z30322c24"><use href="#z30322d24"/></clipPath>
</defs>
<path style="--d:1s;" pathLength="3333" clip-path="url(#z30322c1)" d="M497 50L572 82L605 124"/>
<path style="--d:2s;" pathLength="3333" clip-path="url(#z30322c2)" d="M327 197L443 201L791 146"/>
<path style="--d:3s;" pathLength="3333" clip-path="url(#z30322c3)" d="M246 162L294 209L264 544L195 754L94 911"/>
<path style="--d:4s;" pathLength="3333" clip-path="url(#z30322c4)" d="M105 333L187 429"/>
<path style="--d:5s;" pathLength="3333" clip-path="url(#z30322c5)" d="M40 623L109 620L247 507"/>
<path style="--d:6s;" pathLength="3333" clip-path="url(#z30322c6)" d="M506 259L513 288L415 320"/>
<path style="--d:7s;" pathLength="3333" clip-path="url(#z30322c7)" d="M369 250L396 283L395 358L419 388L551 376L569 313"/>
<path style="--d:8s;" pathLength="3333" clip-path="url(#z30322c8)" d="M387 459L401 651"/>
<path style="--d:9s;" pathLength="3333" clip-path="url(#z30322c9)" d="M414 475L503 444L535 467L528 639"/>
<path style="--d:10s;" pathLength="3333" clip-path="url(#z30322c10)" d="M419 525L493 506"/>
<path style="--d:11s;" pathLength="3333" clip-path="url(#z30322c11)" d="M419 579L492 563"/>
<path style="--d:12s;" pathLength="3333" clip-path="url(#z30322c12)" d="M415 631L510 618"/>
<path style="--d:13s;" pathLength="3333" clip-path="url(#z30322c13)" d="M315 524L342 562L337 711L589 688"/>
<path style="--d:14s;" pathLength="3333" clip-path="url(#z30322c14)" d="M377 760L391 794L272 890"/>
<path style="--d:15s;" pathLength="3333" clip-path="url(#z30322c15)" d="M482 749L538 807L549 849"/>
<path style="--d:16s;" pathLength="3333" clip-path="url(#z30322c16)" d="M609 288L869 257"/>
<path style="--d:17s;" pathLength="3333" clip-path="url(#z30322c17)" d="M676 305L700 335L657 420"/>
<path style="--d:18s;" pathLength="3333" clip-path="url(#z30322c18)" d="M611 421L636 460L632 743"/>
<path style="--d:19s;" pathLength="3333" clip-path="url(#z30322c19)" d="M648 433L787 398L845 421L846 747"/>
<path style="--d:20s;" pathLength="3333" clip-path="url(#z30322c20)" d="M655 535L778 517"/>
<path style="--d:21s;" pathLength="3333" clip-path="url(#z30322c21)" d="M653 618L777 602"/>
<path style="--d:22s;" pathLength="3333" clip-path="url(#z30322c22)" d="M651 718L815 695"/>
<path style="--d:23s;" pathLength="3333" clip-path="url(#z30322c23)" d="M660 774L678 810L510 939"/>
<path style="--d:24s;" pathLength="3333" clip-path="url(#z30322c24)" d="M774 787L866 881L886 947"/>
</svg>