<!--
AnimCJK 2016-2026 Copyright FM-SH, https://github.com/parsimonhi/animCJK
Derived from:
    MakeMeAHanzi project - https://github.com/skishore/makemeahanzi
    Arphic PL KaitiM GB font
    Arphic PL KaitiM Big5 font
You can redistribute and/or modify this file under the terms of the Arphic Public License
as published by Arphic Technology Co., Ltd.
You should have received a copy of this license along with this file.
If not, see https://ftp.gnu.org/non-gnu/chinese-fonts-truetype/LICENSE.
-->
<svg id="z30320" class="acjk" viewBox="0 0 1024 1024" xmlns="http://www.w3.org/2000/svg">
<style>
<![CDATA[
@keyframes zk {
	to {
		stroke-dashoffset:0;
	}
}
svg.acjk path[clip-path] {
	--t:0.8s;
	animation:zk var(--t) linear forwards var(--d);
	stroke-dasharray:3337;
	stroke-dashoffset:3339;
	stroke-width:128;
	stroke-linecap:round;
	fill:none;
	stroke:#000;
}
svg.acjk path[id] {fill:#ccc;}
]]>
</style>
<path id="z30320d1" d="M519 79Q541 98 566 122Q579 134 594 133Q604 132 609 120Q613 105 604 77Q594 50 513 33Q498 30 492 33Q488 37 489 49Q493 59 519 79Z"/>
<path id="z30320d2" d="M308 220Q339 229 372 224Q741 173 778 164Q788 161 793 158Q802 151 798 143Q792 131 766 123Q739 116 711 124Q518 178 298 187C287 187 297 218 308 220Z"/>
<path id="z30320d3" d="M221 526Q185 691 74 878Q70 884 67 890Q66 900 76 898Q106 892 180 773Q199 739 218 698Q287 521 300 261Q301 242 307 222Q307 221 308 220C312 209 307 194 298 187Q283 175 260 165Q241 155 228 161Q216 168 223 181Q244 211 244 276Q243 291 243 310Q240 436 227 493C223 515 223 515 221 526Z"/>
<path id="z30320d4" d="M111 355Q141 409 164 423Q177 429 187 418Q196 408 196 392Q193 355 132 324Q131 323 130 323Q117 316 106 317Q100 317 101 329Q100 339 111 355Z"/>
<path id="z30320d5" d="M227 493Q65 574 37 580Q27 583 26 592Q26 604 36 609Q58 619 89 629Q99 630 107 621Q128 594 221 526C230 519 237 488 227 493Z"/>
<path id="z30320d6" d="M379 287Q363 345 336 373Q330 380 329 386Q328 393 345 408Q361 421 384 449Q394 462 402 461Q412 461 417 448Q421 432 417 420Q411 402 364 392Q352 388 360 376Q364 367 389 338Q414 310 423 303Q430 300 432 295Q436 283 419 266Q406 251 393 247Q380 246 375 250Q374 253 377 260Q384 270 379 287Z"/>
<path id="z30320d7" d="M473 273Q458 318 433 350Q427 356 426 362Q425 369 441 382Q457 397 478 424Q487 437 494 436Q504 436 509 424Q513 408 509 398Q508 391 496 382Q483 376 459 369Q452 365 452 362Q452 340 514 288Q521 287 523 281Q526 271 511 254Q499 239 487 236Q474 235 470 238Q469 241 472 247Q478 257 473 273Z"/>
<path id="z30320d8" d="M571 270Q558 309 530 338Q524 344 523 350Q522 357 537 370Q555 385 578 413Q587 426 595 424Q604 424 609 412Q613 396 609 386Q603 371 555 358Q543 354 551 343Q555 336 579 315Q601 294 611 289Q618 288 620 282Q624 272 611 255Q601 239 588 235Q576 232 572 235Q569 238 572 244Q576 254 571 270Z"/>
<path id="z30320d9" d="M359 500Q349 496 325 494Q316 493 314 497Q310 501 317 513Q336 541 353 592Q357 608 367 617Q382 632 385 619Q386 615 386 609C384 594 384 594 383 587Q374 544 369 524C367 516 367 503 359 500Z"/>
<path id="z30320d10" d="M519 564Q535 533 558 520Q570 507 560 494Q550 484 513 465Q501 459 485 464Q440 483 359 500C350 501 361 527 369 524Q375 521 477 502Q489 499 494 504Q498 508 496 518Q489 543 480 564C475 576 513 576 519 564Z"/>
<path id="z30320d11" d="M386 609Q470 597 529 590Q547 589 541 578Q534 568 519 564C507 560 493 564 480 564Q473 564 463 567Q420 577 383 587C376 588 379 610 386 609Z"/>
<path id="z30320d12" d="M550 713Q565 680 587 667Q600 654 590 641Q536 595 497 618Q431 639 327 655C319 656 331 677 339 677Q349 677 362 673C395 668 395 668 412 665C438 660 438 660 451 657Q514 645 522 651Q526 655 525 665Q519 689 512 709C507 721 545 725 550 713Z"/>
<path id="z30320d13" d="M412 729C412 742 451 734 451 721C451 678 451 678 451 657C451 644 412 652 412 665C412 708 412 708 412 729Z"/>
<path id="z30320d14" d="M330 767Q340 768 356 767Q471 749 556 740Q575 737 568 726Q562 717 550 713C538 708 525 709 512 709Q499 709 485 713Q467 716 451 721C425 726 425 726 412 729Q370 735 332 744C324 745 322 767 330 767Z"/>
<path id="z30320d15" d="M327 655Q320 648 305 643Q295 640 289 644Q283 647 288 661Q298 691 297 719Q294 878 339 909Q352 916 374 924Q495 955 582 890Q595 878 586 861Q576 845 562 793Q561 781 556 779Q552 776 550 789Q534 844 522 862Q513 875 486 882Q423 897 369 875Q347 865 341 850Q331 829 330 767C331 752 331 752 332 744Q333 713 339 680Q339 679 339 677C339 669 334 660 327 655Z"/>
<path id="z30320d16" d="M631 495Q703 362 712 340Q722 309 735 292Q741 282 735 273Q729 263 704 250Q682 240 666 242Q653 246 661 262Q691 307 585 523Q582 526 581 531Q574 541 574 545Q573 555 583 551Q592 547 608 527Q611 523 615 518C626 503 626 503 631 495Z"/>
<path id="z30320d17" d="M671 812Q671 526 672 524Q668 509 632 495C631 495 631 495 631 495C622 492 613 509 615 518Q648 626 629 822Q608 919 634 953Q635 956 639 959Q649 971 658 960Q670 941 671 841C671 822 671 822 671 812Z"/>
<path id="z30320d18" d="M776 325Q803 377 827 381Q839 382 846 368Q849 356 842 338Q836 326 820 319Q795 304 783 302Q776 299 773 309Q772 316 776 325Z"/>
<path id="z30320d19" d="M800 478Q905 448 908 445Q915 439 911 433Q905 424 883 420Q861 417 838 427Q810 439 779 448Q745 458 704 464Q677 470 698 481Q723 493 759 488C786 481 786 481 800 478Z"/>
<path id="z30320d20" d="M812 782Q812 736 813 695C814 671 814 671 814 659Q814 623 816 592C816 569 816 569 816 557Q816 536 818 516Q825 494 800 478C788 471 757 474 759 488Q766 515 771 571C772 592 772 592 772 603Q772 630 772 669C773 692 773 692 773 703Q773 740 773 791C773 804 812 795 812 782Z"/>
<path id="z30320d21" d="M816 592Q892 571 896 568Q902 561 898 556Q894 549 872 544Q854 541 816 557C786 566 786 566 771 571Q744 577 716 582Q691 586 709 598Q734 610 772 603C801 596 801 596 816 592Z"/>
<path id="z30320d22" d="M813 695Q844 688 880 682Q904 676 907 673Q914 667 910 661Q906 652 883 646Q856 640 814 659C786 666 786 666 772 669Q744 673 714 676Q686 680 706 693Q734 711 773 703C800 698 800 698 813 695Z"/>
<path id="z30320d23" d="M773 791Q724 800 671 812C662 814 661 839 671 841Q692 847 708 842Q799 812 945 811Q961 810 964 803Q968 793 954 783Q906 753 853 772Q834 775 812 782C786 788 786 788 773 791Z"/>
<defs>
	<clipPath id="z30320c1"><use href="#z30320d1"/></clipPath>
	<clipPath id="z30320c2"><use href="#z30320d2"/></clipPath>
	<clipPath id="z30320c3"><use href="#z30320d3"/></clipPath>
	<clipPath id="z30320c4"><use href="#z30320d4"/></clipPath>
	<clipPath id="z30320c5"><use href="#z30320d5"/></clipPath>
	<clipPath id="z30320c6"><use href="#z30320d6"/></clipPath>
	<clipPath id="z30320c7"><use href="#z30320d7"/></clipPath>
	<clipPath id="z30320c8"><use href="#z30320d8"/></clipPath>
	<clipPath id="z30320c9"><use href="#z30320d9"/></clipPath>
	<clipPath id="z30320c10"><use href="#z30320d10"/></clipPath>
	<clipPath id="z30320c11"><use href="#z30320d11"/></clipPath>
	<clipPath id="z30320c12"><use href="#z30320d12"/></clipPath>
	<clipPath id="z30320c13"><use href="#z30320d13"/></clipPath>
	<clipPath id="z30320c14"><use href="#z30320d14"/></clipPath>
	<clipPath id="z30320c15"><use href="#z30320d15"/></clipPath>
	<clipPath id="z30320c16"><use href="#z30320d16"/></clipPath>
	<clipPath id="z30320c17"><use href="#z30320d17"/></clipPath>
	<clipPath id="z30320c18"><use href="#z30320d18"/></clipPath>
	<clipPath id="z30320c19"><use href="#z30320d19"/></clipPath>
	<clipPath id="z30320c20"><use href="#z30320d20"/></clipPath>
	<clipPath id="z30320c21"><use href="#z30320d21"/></clipPath>
	<clipPath id="z30320c22"><use href="#z30320d22"/></clipPath>
	<clipPath id="z30320c23"><use href="#z30320d23"/></clipPath>
</defs>
<path style="--d:1s;" pathLength="3333" clip-path="url(#z30320c1)" d="M494 38L578 90L598 127"/>
<path style="--d:2s;" pathLength="3333" clip-path="url(#z30320c2)" d="M297 192L355 205L794 147"/>
<path style="--d:3s;" pathLength="3333" clip-path="url(#z30320c3)" d="M226 167L274 215L248 508L188 707L76 894"/>
<path style="--d:4s;" pathLength="3333" clip-path="url(#z30320c4)" d="M109 321L186 416"/>
<path style="--d:5s;" pathLength="3333" clip-path="url(#z30320c5)" d="M31 589L88 596L228 502"/>
<path style="--d:6s;" pathLength="3333" clip-path="url(#z30320c6)" d="M380 250L405 292L345 391L411 454"/>
<path style="--d:7s;" pathLength="3333" clip-path="url(#z30320c7)" d="M478 241L495 282L439 359L499 431"/>
<path style="--d:8s;" pathLength="3333" clip-path="url(#z30320c8)" d="M580 240L594 281L536 350L594 419"/>
<path style="--d:9s;" pathLength="3333" clip-path="url(#z30320c9)" d="M320 503L348 522L374 620"/>
<path style="--d:10s;" pathLength="3333" clip-path="url(#z30320c10)" d="M361 509L503 484L530 514L491 570"/>
<path style="--d:11s;" pathLength="3333" clip-path="url(#z30320c11)" d="M386 599L534 578"/>
<path style="--d:12s;" pathLength="3333" clip-path="url(#z30320c12)" d="M332 660L532 631L559 659L525 717"/>
<path style="--d:13s;" pathLength="3333" clip-path="url(#z30320c13)" d="M442 654L429 734"/>
<path style="--d:14s;" pathLength="3333" clip-path="url(#z30320c14)" d="M330 758L563 727"/>
<path style="--d:15s;" pathLength="3333" clip-path="url(#z30320c15)" d="M294 647L316 678L319 831L350 890L430 910L518 897L559 864L554 787"/>
<path style="--d:16s;" pathLength="3333" clip-path="url(#z30320c16)" d="M665 250L701 293L582 545"/>
<path style="--d:17s;" pathLength="3333" clip-path="url(#z30320c17)" d="M628 502L652 605L651 960"/>
<path style="--d:18s;" pathLength="3333" clip-path="url(#z30320c18)" d="M780 306L839 375"/>
<path style="--d:19s;" pathLength="3333" clip-path="url(#z30320c19)" d="M697 471L905 434"/>
<path style="--d:20s;" pathLength="3333" clip-path="url(#z30320c20)" d="M766 486L793 519L789 795"/>
<path style="--d:21s;" pathLength="3333" clip-path="url(#z30320c21)" d="M709 588L894 562"/>
<path style="--d:22s;" pathLength="3333" clip-path="url(#z30320c22)" d="M705 684L904 666"/>
<path style="--d:23s;" pathLength="3333" clip-path="url(#z30320c23)" d="M668 830L959 793"/>
</svg>