<!--
AnimCJK 2016-2026 Copyright FM-SH, https://github.com/parsimonhi/animCJK
Derived from:
    MakeMeAHanzi project - https://github.com/skishore/makemeahanzi
    Arphic PL KaitiM GB font
    Arphic PL KaitiM Big5 font
You can redistribute and/or modify this file under the terms of the Arphic Public License
as published by Arphic Technology Co., Ltd.
You should have received a copy of this license along with this file.
If not, see https://ftp.gnu.org/non-gnu/chinese-fonts-truetype/LICENSE.
-->
<svg id="z30393" class="acjk" viewBox="0 0 1024 1024" xmlns="http://www.w3.org/2000/svg">
<style>
<![CDATA[
@keyframes zk {
	to {
		stroke-dashoffset:0;
	}
}
svg.acjk path[clip-path] {
	--t:0.8s;
	animation:zk var(--t) linear forwards var(--d);
	stroke-dasharray:3337;
	stroke-dashoffset:3339;
	stroke-width:128;
	stroke-linecap:round;
	fill:none;
	stroke:#000;
}
svg.acjk path[id] {fill:#ccc;}
]]>
</style>
<path id="z30393d1" d="M208 284C175 259 122 256 143 284C152 297 164 320 163 354C159 506 142 644 63 806C48 838 57 851 82 818C190 674 210 483 218 350C218 339 219 329 222 319C224 307 218 292 208 284Z"/>
<path id="z30393d2" d="M335 279C347 274 357 270 373 267C392 262 405 264 406 274C407 283 400 308 382 350C373 368 374 385 400 358C421 334 452 305 470 291C500 265 502 262 483 247C473 238 456 227 440 221C425 215 415 216 400 222C377 230 356 239 337 246C305 257 305 257 289 263C261 272 231 278 208 284C196 286 210 324 222 319C238 311 254 307 289 295C320 284 320 284 335 279Z"/>
<path id="z30393d3" d="M324 465C328 400 331 338 335 279C336 257 336 257 337 246C339 206 343 160 356 111C357 104 354 94 341 86C319 72 299 67 285 65C274 63 267 64 262 70C257 74 257 81 263 91C277 113 284 131 285 146C286 182 289 221 289 263C289 284 289 284 289 295C289 353 287 414 285 479C285 493 324 479 324 465Z"/>
<path id="z30393d4" d="M379 635C392 610 405 579 414 547C420 523 431 503 448 487C458 476 459 466 449 460C436 451 421 447 404 443C387 439 356 453 324 465C298 474 298 474 285 479C231 498 218 490 211 495C209 501 214 507 228 515C242 523 257 526 291 512C325 496 354 483 359 483C363 483 367 488 366 500C361 542 351 572 336 609C330 621 325 635 318 647C294 685 241 738 179 776C170 781 168 784 174 788C177 790 186 787 200 782C269 755 333 702 351 679C361 665 370 650 379 635Z"/>
<path id="z30393d5" d="M351 679C404 730 432 759 437 761C441 762 446 759 451 754C457 746 456 730 450 706C443 682 419 659 379 635C350 618 350 618 336 609C307 591 283 580 266 572C261 569 257 571 257 578C255 586 259 592 265 598C281 612 299 628 318 647C340 668 340 668 351 679Z"/>
<path id="z30393d6" d="M575 177C566 155 538 131 539 163C540 177 535 204 518 240C513 250 508 259 509 271C510 282 514 291 519 300C523 306 526 306 531 304C538 300 547 288 556 263C571 219 570 232 583 199C586 192 578 184 575 177Z"/>
<path id="z30393d7" d="M710 179C783 154 832 148 859 148C870 147 883 154 879 169C878 170 871 189 854 230C842 258 857 252 875 239C895 223 918 206 951 194C971 186 984 180 983 175C981 167 967 153 930 124C868 77 896 95 575 177C567 179 576 196 583 199C596 205 636 203 665 194C695 184 695 184 710 179Z"/>
<path id="z30393d8" d="M739 299C756 294 776 288 799 282C868 264 813 248 802 246C781 243 764 252 744 259C709 270 709 270 691 276C670 283 638 284 613 289C595 293 592 299 606 307C625 317 655 321 692 311C723 303 723 303 739 299Z"/>
<path id="z30393d9" d="M585 386C558 374 516 359 534 396C551 431 567 477 577 536C580 553 587 567 596 579C607 593 616 586 618 568C619 561 618 553 617 546C613 510 601 458 593 415C591 405 594 390 585 386Z"/>
<path id="z30393d10" d="M810 542C818 553 826 562 836 567C842 571 849 567 859 556C866 545 878 507 896 445C901 427 910 412 922 397C929 389 931 383 924 375C916 364 902 349 877 337C856 326 794 346 736 357C707 363 707 363 692 366C674 370 635 377 585 386C575 388 583 418 593 415C619 407 652 399 692 391C721 385 721 385 736 382C795 371 830 366 843 376C849 379 852 387 850 397C837 466 825 505 816 513C810 521 804 534 810 542Z"/>
<path id="z30393d11" d="M735 470C754 466 772 464 789 461C822 455 791 433 771 431C761 429 749 430 735 434C706 443 706 443 691 448C672 454 655 458 639 464C630 467 628 477 643 479C652 480 671 481 691 477C720 472 720 472 735 470Z"/>
<path id="z30393d12" d="M734 552C759 548 785 544 810 542C820 542 825 517 816 513C791 499 756 516 734 521C705 527 705 527 690 530C664 536 640 540 617 546C610 547 611 568 618 568C633 568 656 565 689 560C719 555 719 555 734 552Z"/>
<path id="z30393d13" d="M734 679C756 676 885 656 953 657C980 657 993 645 965 627C909 591 878 622 734 641C702 645 702 645 686 647C650 651 518 667 473 671C455 672 458 683 467 692C485 713 511 716 529 714C553 710 635 691 685 685C718 681 718 681 734 679Z"/>
<path id="z30393d14" d="M685 685C683 747 676 843 685 903C687 918 692 929 696 935C699 939 704 942 709 940C720 934 725 910 728 876C737 784 734 722 734 679C734 654 734 654 734 641C734 582 734 582 734 552C734 531 734 531 734 521C734 505 735 488 735 470C735 446 735 446 735 434C735 417 736 399 736 382C736 365 736 365 736 357C736 345 737 317 739 299C742 272 742 272 744 259C749 213 753 201 710 179C696 171 657 180 665 194C680 221 691 245 691 276C692 299 692 299 692 311C693 328 692 346 692 366C692 383 692 383 692 391C692 408 691 427 691 448C691 467 691 467 691 477C691 494 690 511 690 530C689 550 689 550 689 560C688 586 687 616 686 647C685 672 685 672 685 685Z"/>
<defs>
	<clipPath id="z30393c1"><use href="#z30393d1"/></clipPath>
	<clipPath id="z30393c2"><use href="#z30393d2"/></clipPath>
	<clipPath id="z30393c3"><use href="#z30393d3"/></clipPath>
	<clipPath id="z30393c4"><use href="#z30393d4"/></clipPath>
	<clipPath id="z30393c5"><use href="#z30393d5"/></clipPath>
	<clipPath id="z30393c6"><use href="#z30393d6"/></clipPath>
	<clipPath id="z30393c7"><use href="#z30393d7"/></clipPath>
	<clipPath id="z30393c8"><use href="#z30393d8"/></clipPath>
	<clipPath id="z30393c9"><use href="#z30393d9"/></clipPath>
	<clipPath id="z30393c10"><use href="#z30393d10"/></clipPath>
	<clipPath id="z30393c11"><use href="#z30393d11"/></clipPath>
	<clipPath id="z30393c12"><use href="#z30393d12"/></clipPath>
	<clipPath id="z30393c13"><use href="#z30393d13"/></clipPath>
	<clipPath id="z30393c14"><use href="#z30393d14"/></clipPath>
</defs>
<path style="--d:1s;" pathLength="3333" clip-path="url(#z30393c1)" d="M145 270L191 317L176 516L133 687L61 831"/>
<path style="--d:2s;" pathLength="3333" clip-path="url(#z30393c2)" d="M208 292L423 244L451 267L382 364"/>
<path style="--d:3s;" pathLength="3333" clip-path="url(#z30393c3)" d="M265 73L319 122L301 481"/>
<path style="--d:4s;" pathLength="3333" clip-path="url(#z30393c4)" d="M217 497L270 502L371 464L411 483L329 670L177 782"/>
<path style="--d:5s;" pathLength="3333" clip-path="url(#z30393c5)" d="M263 579L410 695L440 754"/>
<path style="--d:6s;" pathLength="3333" clip-path="url(#z30393c6)" d="M547 155L558 197L524 300"/>
<path style="--d:7s;" pathLength="3333" clip-path="url(#z30393c7)" d="M579 183L879 124L929 175L858 244"/>
<path style="--d:8s;" pathLength="3333" clip-path="url(#z30393c8)" d="M608 298L827 261"/>
<path style="--d:9s;" pathLength="3333" clip-path="url(#z30393c9)" d="M537 381L567 406L604 581"/>
<path style="--d:10s;" pathLength="3333" clip-path="url(#z30393c10)" d="M584 397L798 357L871 363L888 390L836 564"/>
<path style="--d:11s;" pathLength="3333" clip-path="url(#z30393c11)" d="M636 471L799 451"/>
<path style="--d:12s;" pathLength="3333" clip-path="url(#z30393c12)" d="M615 558L817 528"/>
<path style="--d:13s;" pathLength="3333" clip-path="url(#z30393c13)" d="M468 679L523 690L911 634L975 645"/>
<path style="--d:14s;" pathLength="3333" clip-path="url(#z30393c14)" d="M671 191L717 240L705 936"/>
</svg>