<!--
AnimCJK 2016-2026 Copyright FM-SH - https://github.com/parsimonhi/animCJK
Derived from:
    MakeMeAHanzi project - https://github.com/skishore/makemeahanzi
    Arphic PL KaitiM GB font
    Arphic PL KaitiM Big5 font
You can redistribute and/or modify this file under the terms of the Arphic Public License
as published by Arphic Technology Co., Ltd.
You should have received a copy of this license along with this file.
If not, see https://ftp.gnu.org/non-gnu/chinese-fonts-truetype/LICENSE.
-->
<svg id="z30391" class="acjk" viewBox="0 0 1024 1024" xmlns="http://www.w3.org/2000/svg">
<style>
<![CDATA[
@keyframes zk {
	to {
		stroke-dashoffset:0;
	}
}
svg.acjk path[clip-path] {
	--t:0.8s;
	animation:zk var(--t) linear forwards var(--d);
	stroke-dasharray:3337;
	stroke-dashoffset:3339;
	stroke-width:128;
	stroke-linecap:round;
	fill:none;
	stroke:#000;
}
svg.acjk path[id] {fill:#ccc;}
]]>
</style>
<path id="z30391d1" d="M347 288C435 272 479 258 480 258C501 241 459 227 452 225C434 220 401 229 350 243C314 252 314 252 296 257C290 258 251 267 159 275C136 276 132 284 149 295C173 311 203 314 238 307C256 302 276 300 297 297C330 291 330 291 347 288Z"/>
<path id="z30391d2" d="M339 381C341 349 344 318 347 288C349 258 349 258 350 243C352 204 356 166 368 128C370 121 365 111 351 103C329 89 309 84 294 81C277 77 255 86 271 108C296 142 294 181 296 257C297 284 297 284 297 297C297 328 297 392 297 392C297 406 339 395 339 381Z"/>
<path id="z30391d3" d="M297 392C248 404 217 403 209 405C194 407 192 413 204 422C222 435 239 439 254 436C325 419 386 407 436 403C443 402 468 390 434 376C408 364 367 373 339 381C311 388 311 388 297 392Z"/>
<path id="z30391d4" d="M217 489C210 485 197 483 179 480C166 477 156 482 167 503C181 531 195 569 206 618C209 632 214 643 223 653C249 684 244 649 247 626C247 616 243 607 242 598C235 559 232 532 232 518C232 507 227 493 217 489Z"/>
<path id="z30391d5" d="M415 574C431 543 448 527 462 518C474 509 474 496 465 486C456 476 436 464 406 449C395 443 383 443 371 448C338 460 287 474 217 489C206 491 221 520 232 518C246 516 279 507 361 492C369 490 376 490 381 495C385 500 380 525 367 567C361 582 408 588 415 574Z"/>
<path id="z30391d6" d="M247 626C264 624 286 615 421 599C441 595 429 581 415 574C401 566 383 564 367 567C349 570 320 579 242 598C233 600 238 628 247 626Z"/>
<path id="z30391d7" d="M170 716C192 758 209 788 228 801C242 810 257 796 259 776C260 750 242 726 209 703C169 675 163 678 163 692C162 698 164 706 170 716Z"/>
<path id="z30391d8" d="M356 808C377 781 405 712 430 683C437 673 439 667 435 661C427 650 414 640 395 627C379 616 353 619 362 639C378 679 328 795 328 815C326 824 350 816 356 808Z"/>
<path id="z30391d9" d="M328 815C278 827 225 836 172 850C157 853 137 853 112 852C103 851 98 856 96 863C93 871 94 879 102 886C116 898 134 912 157 926C163 929 171 927 180 922C212 901 247 886 283 873C349 848 408 822 460 805C486 795 494 774 457 784C412 795 376 802 356 808C337 813 337 813 328 815Z"/>
<path id="z30391d10" d="M587 331C561 318 538 311 530 313C517 315 517 322 526 337C535 351 542 371 544 397C551 562 545 738 441 859C397 906 432 893 454 879C523 835 574 736 590 541C591 532 591 532 591 528C594 487 598 441 601 390C601 378 603 369 605 363C610 352 598 336 587 331Z"/>
<path id="z30391d11" d="M725 327C764 317 820 297 823 321C825 336 816 350 791 387C782 400 785 415 814 399C850 379 872 366 901 361C924 356 936 350 936 345C935 336 920 318 877 285C845 259 839 276 726 300C695 307 695 307 679 310C647 316 624 324 587 331C575 333 595 369 605 363C607 360 658 342 679 338C710 331 710 331 725 327Z"/>
<path id="z30391d12" d="M718 495C720 437 723 381 725 327C725 318 724 361 726 300C728 230 733 168 745 117C746 110 741 99 728 91C706 77 684 71 669 69C647 65 635 79 647 98C686 158 678 239 679 310C679 319 679 328 679 338C679 392 678 448 678 508C678 522 718 509 718 495Z"/>
<path id="z30391d13" d="M766 719C784 680 803 627 819 579C827 556 831 539 843 528C852 518 851 507 840 499C825 487 807 479 789 473C778 469 757 482 718 495C691 504 691 504 678 508C657 514 612 517 591 528C587 530 586 539 590 541C610 551 632 551 656 544C687 535 710 530 743 522C756 518 763 523 764 539C765 582 742 656 728 684C722 696 716 709 709 721C678 767 630 814 565 840C502 866 535 868 569 862C645 847 702 805 740 760C750 747 759 733 766 719Z"/>
<path id="z30391d14" d="M740 760C777 806 810 844 845 884C855 894 869 902 886 900C940 891 984 882 998 870C1002 866 997 861 992 860C863 827 846 793 766 719C741 696 741 696 728 684C703 660 668 626 651 609C642 599 634 591 624 591C603 591 590 600 605 610C623 622 682 687 709 721C730 747 730 747 740 760Z"/>
<defs>
	<clipPath id="z30391c1"><use href="#z30391d1"/></clipPath>
	<clipPath id="z30391c2"><use href="#z30391d2"/></clipPath>
	<clipPath id="z30391c3"><use href="#z30391d3"/></clipPath>
	<clipPath id="z30391c4"><use href="#z30391d4"/></clipPath>
	<clipPath id="z30391c5"><use href="#z30391d5"/></clipPath>
	<clipPath id="z30391c6"><use href="#z30391d6"/></clipPath>
	<clipPath id="z30391c7"><use href="#z30391d7"/></clipPath>
	<clipPath id="z30391c8"><use href="#z30391d8"/></clipPath>
	<clipPath id="z30391c9"><use href="#z30391d9"/></clipPath>
	<clipPath id="z30391c10"><use href="#z30391d10"/></clipPath>
	<clipPath id="z30391c11"><use href="#z30391d11"/></clipPath>
	<clipPath id="z30391c12"><use href="#z30391d12"/></clipPath>
	<clipPath id="z30391c13"><use href="#z30391d13"/></clipPath>
	<clipPath id="z30391c14"><use href="#z30391d14"/></clipPath>
</defs>
<path style="--d:1s;" pathLength="3333" clip-path="url(#z30391c1)" d="M147 285L481 249"/>
<path style="--d:2s;" pathLength="3333" clip-path="url(#z30391c2)" d="M272 88L329 138L316 395"/>
<path style="--d:3s;" pathLength="3333" clip-path="url(#z30391c3)" d="M202 411L445 386"/>
<path style="--d:4s;" pathLength="3333" clip-path="url(#z30391c4)" d="M171 489L202 512L235 658"/>
<path style="--d:5s;" pathLength="3333" clip-path="url(#z30391c5)" d="M220 495L404 477L426 507L385 580"/>
<path style="--d:6s;" pathLength="3333" clip-path="url(#z30391c6)" d="M241 612L428 588"/>
<path style="--d:7s;" pathLength="3333" clip-path="url(#z30391c7)" d="M169 690L250 795"/>
<path style="--d:8s;" pathLength="3333" clip-path="url(#z30391c8)" d="M369 629L399 677L337 813"/>
<path style="--d:9s;" pathLength="3333" clip-path="url(#z30391c9)" d="M100 864L166 888L476 790"/>
<path style="--d:10s;" pathLength="3333" clip-path="url(#z30391c10)" d="M526 318L573 366L552 664L509 791L430 885"/>
<path style="--d:11s;" pathLength="3333" clip-path="url(#z30391c11)" d="M591 339L824 292L879 346L795 398"/>
<path style="--d:12s;" pathLength="3333" clip-path="url(#z30391c12)" d="M650 79L706 133L694 511"/>
<path style="--d:13s;" pathLength="3333" clip-path="url(#z30391c13)" d="M595 535L771 498L806 526L712 756L636 821L538 861"/>
<path style="--d:14s;" pathLength="3333" clip-path="url(#z30391c14)" d="M603 600L875 859L992 867"/>
</svg>