<!--
AnimCJK 2016-2026 Copyright FM-SH - https://github.com/parsimonhi/animCJK
Derived from:
    MakeMeAHanzi project - https://github.com/skishore/makemeahanzi
    Arphic PL KaitiM GB font
    Arphic PL KaitiM Big5 font
You can redistribute and/or modify this file under the terms of the Arphic Public License
as published by Arphic Technology Co., Ltd.
You should have received a copy of this license along with this file.
If not, see https://ftp.gnu.org/non-gnu/chinese-fonts-truetype/LICENSE.
-->
<svg id="z30413" class="acjk" viewBox="0 0 1024 1024" xmlns="http://www.w3.org/2000/svg">
<style>
<![CDATA[
@keyframes zk {
	to {
		stroke-dashoffset:0;
	}
}
svg.acjk path[clip-path] {
	--t:0.8s;
	animation:zk var(--t) linear forwards var(--d);
	stroke-dasharray:3337;
	stroke-dashoffset:3339;
	stroke-width:128;
	stroke-linecap:round;
	fill:none;
	stroke:#000;
}
svg.acjk path[id] {fill:#ccc;}
]]>
</style>
<path id="z30413d1" d="M527 257C620 241 669 229 674 226C692 209 659 195 646 192C627 186 609 188 591 195C571 201 551 208 532 212C493 220 493 220 473 224C436 231 396 235 354 239C331 240 327 248 343 259C385 286 430 273 474 266C509 260 509 260 527 257Z"/>
<path id="z30413d2" d="M518 338C520 309 524 282 527 257C530 227 530 227 532 212C533 202 537 168 550 111C551 102 548 92 534 84C510 69 489 63 474 60C458 56 435 63 450 88C473 126 471 180 473 224C474 252 474 252 474 266C474 291 474 344 474 344C474 359 518 353 518 338Z"/>
<path id="z30413d3" d="M502 374C560 366 666 362 823 363C849 363 857 348 836 330C804 302 774 295 750 300C691 311 614 324 518 338C489 342 489 342 474 344C383 356 286 367 184 379C171 380 169 386 179 397C189 408 212 424 245 417C306 402 371 391 441 382C482 377 482 377 502 374Z"/>
<path id="z30413d4" d="M613 485C547 493 480 504 412 516C407 516 402 511 406 508C456 453 491 420 509 405C530 385 511 379 502 374C484 363 441 361 441 382C445 406 420 444 375 490C362 502 344 514 321 524C303 531 294 537 294 543C292 553 293 566 300 580C305 592 313 600 321 604C325 606 332 607 339 603C387 573 484 538 631 502C639 500 621 483 613 485Z"/>
<path id="z30413d5" d="M631 502C664 533 682 554 694 554C717 553 711 516 709 502C704 474 664 444 588 416C566 408 560 413 563 428C565 439 579 453 613 485C625 496 625 496 631 502Z"/>
<path id="z30413d6" d="M284 657C273 651 261 647 247 646C238 644 231 645 226 650C221 654 222 661 228 671C240 687 251 704 260 722C266 740 280 784 301 856C305 869 345 866 342 853C324 769 315 715 315 694C314 692 314 690 314 690C311 675 297 664 284 657Z"/>
<path id="z30413d7" d="M710 818C734 741 755 690 777 663C782 655 786 648 784 640C780 628 756 613 717 593C706 587 695 586 685 589C564 616 430 638 284 657C269 660 300 695 314 690C340 683 367 678 395 673C411 670 411 670 419 668C438 663 503 650 526 647C557 642 557 642 573 639C633 628 670 624 684 634C689 637 691 646 689 658C681 704 666 760 647 826C640 846 706 839 710 818Z"/>
<path id="z30413d8" d="M450 844C459 803 431 680 419 668C415 661 395 665 395 673C401 765 411 822 428 846C432 852 449 851 450 844Z"/>
<path id="z30413d9" d="M539 836C593 661 623 670 573 639C559 631 523 631 526 647C538 691 532 740 517 838C516 845 538 843 539 836Z"/>
<path id="z30413d10" d="M917 879C960 885 951 857 943 849C924 830 902 808 871 802C829 793 803 806 710 818C668 823 668 823 647 826C623 829 568 833 539 836C524 837 524 837 517 838C500 839 468 842 450 844C435 845 435 845 428 846C395 848 366 851 342 853C315 855 315 855 301 856C274 857 196 862 115 864C106 864 100 866 100 874C98 882 104 892 117 902C135 917 164 934 193 924C204 919 237 916 288 907C344 896 686 846 917 879Z"/>
<defs>
	<clipPath id="z30413c1"><use href="#z30413d1"/></clipPath>
	<clipPath id="z30413c2"><use href="#z30413d2"/></clipPath>
	<clipPath id="z30413c3"><use href="#z30413d3"/></clipPath>
	<clipPath id="z30413c4"><use href="#z30413d4"/></clipPath>
	<clipPath id="z30413c5"><use href="#z30413d5"/></clipPath>
	<clipPath id="z30413c6"><use href="#z30413d6"/></clipPath>
	<clipPath id="z30413c7"><use href="#z30413d7"/></clipPath>
	<clipPath id="z30413c8"><use href="#z30413d8"/></clipPath>
	<clipPath id="z30413c9"><use href="#z30413d9"/></clipPath>
	<clipPath id="z30413c10"><use href="#z30413d10"/></clipPath>
</defs>
<path style="--d:1s;" pathLength="3333" clip-path="url(#z30413c1)" d="M343 250L676 212"/>
<path style="--d:2s;" pathLength="3333" clip-path="url(#z30413c2)" d="M452 67L507 114L491 350"/>
<path style="--d:3s;" pathLength="3333" clip-path="url(#z30413c3)" d="M181 387L769 330L843 342"/>
<path style="--d:4s;" pathLength="3333" clip-path="url(#z30413c4)" d="M450 376L474 407L346 532L356 565L624 497"/>
<path style="--d:5s;" pathLength="3333" clip-path="url(#z30413c5)" d="M569 418L704 547"/>
<path style="--d:6s;" pathLength="3333" clip-path="url(#z30413c6)" d="M228 651L283 698L332 859"/>
<path style="--d:7s;" pathLength="3333" clip-path="url(#z30413c7)" d="M289 663L689 609L736 649L663 836"/>
<path style="--d:8s;" pathLength="3333" clip-path="url(#z30413c8)" d="M406 668L438 846"/>
<path style="--d:9s;" pathLength="3333" clip-path="url(#z30413c9)" d="M533 646L565 683L526 836"/>
<path style="--d:10s;" pathLength="3333" clip-path="url(#z30413c10)" d="M104 876L177 894L813 835L945 862"/>
</svg>