<!--
AnimCJK 2016-2018 Copyright Francois Mizessyn, https://github.com/parsimonhi/animCJK
Derived from:
    MakeMeAHanzi project - https://github.com/skishore/makemeahanzi
    Arphic PL KaitiM GB - https://apps.ubuntu.com/cat/applications/precise/fonts-arphic-gkai00mp/
    Arphic PL UKai - https://apps.ubuntu.com/cat/applications/fonts-arphic-ukai/
You can redistribute and/or modify this file under the terms of the Arphic Public License
as published by Arphic Technology Co., Ltd.
You should have received a copy of this license (the directory "APL") along with this file;
if not, see http://ftp.gnu.org/non-gnu/chinese-fonts-truetype/LICENSE.
-->
<svg id="z30427" class="acjk" version="1.1" viewBox="0 0 1024 1024" xmlns="http://www.w3.org/2000/svg" xmlns:xlink="http://www.w3.org/1999/xlink">
<style>
<![CDATA[
@keyframes z30427k {
	from {
		stroke:#c00;
		stroke-dashoffset:3334;
	}
	75% {
		stroke:#c00;
		stroke-dashoffset:0;
	}
	to {
		stroke:#000;
	}
}
#z30427 path[clip-path] {
	animation:z30427k 1s linear both;
	stroke-dasharray:3334;
	stroke-width:128;
	stroke-linecap:round;
	fill:none;
}
#z30427 path[clip-path="url(#z30427c1)"] {animation-delay:1s;}
#z30427 path[clip-path="url(#z30427c2)"] {animation-delay:2s;}
#z30427 path[clip-path="url(#z30427c3)"] {animation-delay:3s;}
#z30427 path[clip-path="url(#z30427c4)"] {animation-delay:4s;}
#z30427 path[clip-path="url(#z30427c5)"] {animation-delay:5s;}
#z30427 path[clip-path="url(#z30427c6)"] {animation-delay:6s;}
#z30427 path[clip-path="url(#z30427c7)"] {animation-delay:7s;}
#z30427 path[clip-path="url(#z30427c8)"] {animation-delay:8s;}
#z30427 path[clip-path="url(#z30427c9)"] {animation-delay:9s;}
#z30427 path[clip-path="url(#z30427c10)"] {animation-delay:10s;}
#z30427 path[clip-path="url(#z30427c11)"] {animation-delay:11s;}
#z30427 path {fill:#ccc;}
]]>
</style>
<path id="z30427d1" d="M331 272Q328 268 323 264Q283 239 268 239Q250 240 263 262Q285 307 252 457Q242 491 221 531Q202 568 133 629Q120 639 116 644Q115 651 124 651Q155 654 213 606Q273 549 305 427L310 402Q317 365 325 319Q329 303 332 294L331 272 Z"/>
<path id="z30427d2" d="M572 265Q710 226 711 226Q718 219 715 211Q708 201 682 194Q654 188 627 200Q593 212 558 224L519 235Q507 236 498 241Q423 260 336 270Q333 270 331 272L332 294Q375 309 416 300Q471 287 532 274L572 265 Z"/>
<path id="z30427d3" d="M305 427Q320 434 333 430Q417 406 425 413Q431 420 428 441Q425 498 413 524Q400 548 378 544Q357 538 339 531Q320 525 334 543Q368 577 384 602Q394 615 407 606Q450 579 473 458Q479 428 490 414Q500 404 495 396Q488 387 449 370Q434 363 419 373Q409 379 370 389Q337 396 310 402L305 427 Z"/>
<path id="z30427d4" d="M632 491Q702 596 810 657Q825 664 838 665Q854 661 849 638Q848 596 857 477Q858 455 851 453Q850 453 810 536Q797 569 772 562Q765 559 757 555Q700 513 661 456L639 419Q603 356 572 265L558 224Q543 179 540 119Q544 85 495 75Q465 68 450 76Q434 85 445 99Q488 126 494 154Q507 197 519 235L532 274Q572 391 613 458L632 491 Z"/>
<path id="z30427d5" d="M613 458Q558 519 497 574Q490 578 499 581Q557 565 632 491L661 456Q689 422 728 365Q734 355 739 351Q745 347 744 338Q743 331 732 321Q708 297 680 301Q673 302 675 313Q681 346 639 419L613 458 Z"/>
<path id="z30427d6" d="M666 121Q690 140 716 163Q729 173 743 173Q753 172 757 160Q761 147 751 119Q742 94 660 77Q645 74 640 77Q636 81 637 93Q641 103 666 121 Z"/>
<path id="z30427d7" d="M293 690Q280 683 264 679Q251 676 243 682Q236 689 244 702Q260 726 270 753Q277 778 299 879L337 875Q325 782 325 726L293 690 Z"/>
<path id="z30427d8" d="M694 838Q725 741 753 704Q763 694 760 681Q753 665 696 636Q680 629 666 632Q497 666 293 690L325 726Q329 720 404 709L427 704Q476 694 528 687L568 680Q643 664 664 678Q670 682 669 699Q659 760 636 845L694 838 Z"/>
<path id="z30427d9" d="M449 865Q458 841 436 729Q435 726 435 725Q434 713 427 704L404 709Q408 743 409 773Q409 845 431 867L449 865 Z"/>
<path id="z30427d10" d="M546 855Q558 833 579 758Q583 739 594 716Q603 703 595 697Q586 687 568 680L528 687Q540 735 534 794Q525 851 526 858L546 855 Z"/>
<path id="z30427d11" d="M299 879Q212 883 122 893Q100 894 116 913Q131 929 149 935Q171 942 189 938Q478 869 895 891Q896 890 899 891Q920 892 926 883Q932 870 915 855Q857 807 781 825Q741 831 694 838L636 845Q591 849 546 855L526 858Q516 857 506 859Q478 860 449 865L431 867Q385 870 337 875L299 879 Z"/>
<defs>
	<clipPath id="z30427c1"><use xlink:href="#z30427d1"/></clipPath>
	<clipPath id="z30427c2"><use xlink:href="#z30427d2"/></clipPath>
	<clipPath id="z30427c3"><use xlink:href="#z30427d3"/></clipPath>
	<clipPath id="z30427c4"><use xlink:href="#z30427d4"/></clipPath>
	<clipPath id="z30427c5"><use xlink:href="#z30427d5"/></clipPath>
	<clipPath id="z30427c6"><use xlink:href="#z30427d6"/></clipPath>
	<clipPath id="z30427c7"><use xlink:href="#z30427d7"/></clipPath>
	<clipPath id="z30427c8"><use xlink:href="#z30427d8"/></clipPath>
	<clipPath id="z30427c9"><use xlink:href="#z30427d9"/></clipPath>
	<clipPath id="z30427c10"><use xlink:href="#z30427d10"/></clipPath>
	<clipPath id="z30427c11"><use xlink:href="#z30427d11"/></clipPath>
</defs>
<path pathLength="3333" clip-path="url(#z30427c1)" d="M264 245L301 293L273 462L215 574L125 644"/>
<path pathLength="3333" clip-path="url(#z30427c2)" d="M339 276L405 281L709 213"/>
<path pathLength="3333" clip-path="url(#z30427c3)" d="M310 420L428 389L461 409L415 560L391 575L335 538"/>
<path pathLength="3333" clip-path="url(#z30427c4)" d="M445 88L508 113L599 388L718 557L824 612L852 463"/>
<path pathLength="3333" clip-path="url(#z30427c5)" d="M682 309L706 349L654 433L502 576"/>
<path pathLength="3333" clip-path="url(#z30427c6)" d="M645 82L748 166"/>
<path pathLength="3333" clip-path="url(#z30427c7)" d="M247 685L296 738L325 875"/>
<path pathLength="3333" clip-path="url(#z30427c8)" d="M302 692L340 703L678 656L715 694L668 828L644 838"/>
<path pathLength="3333" clip-path="url(#z30427c9)" d="M424 710L435 863"/>
<path pathLength="3333" clip-path="url(#z30427c10)" d="M536 693L566 723L534 850"/>
<path pathLength="3333" clip-path="url(#z30427c11)" d="M114 900L174 914L800 854L921 877"/>
</svg>