<!--
AnimCJK 2016-2018 Copyright Francois Mizessyn, https://github.com/parsimonhi/animCJK
Derived from:
    MakeMeAHanzi project - https://github.com/skishore/makemeahanzi
    Arphic PL KaitiM GB - https://apps.ubuntu.com/cat/applications/precise/fonts-arphic-gkai00mp/
    Arphic PL UKai - https://apps.ubuntu.com/cat/applications/fonts-arphic-ukai/
You can redistribute and/or modify this file under the terms of the Arphic Public License
as published by Arphic Technology Co., Ltd.
You should have received a copy of this license (the directory "APL") along with this file;
if not, see http://ftp.gnu.org/non-gnu/chinese-fonts-truetype/LICENSE.
-->
<svg id="z30431" class="acjk" version="1.1" viewBox="0 0 1024 1024" xmlns="http://www.w3.org/2000/svg" xmlns:xlink="http://www.w3.org/1999/xlink">
<style>
<![CDATA[
@keyframes z30431k {
	from {
		stroke:#c00;
		stroke-dashoffset:3334;
	}
	75% {
		stroke:#c00;
		stroke-dashoffset:0;
	}
	to {
		stroke:#000;
	}
}
#z30431 path[clip-path] {
	animation:z30431k 1s linear both;
	stroke-dasharray:3334;
	stroke-width:128;
	stroke-linecap:round;
	fill:none;
}
#z30431 path[clip-path="url(#z30431c1)"] {animation-delay:1s;}
#z30431 path[clip-path="url(#z30431c2)"] {animation-delay:2s;}
#z30431 path[clip-path="url(#z30431c3)"] {animation-delay:3s;}
#z30431 path[clip-path="url(#z30431c4)"] {animation-delay:4s;}
#z30431 path[clip-path="url(#z30431c5)"] {animation-delay:5s;}
#z30431 path[clip-path="url(#z30431c6)"] {animation-delay:6s;}
#z30431 path[clip-path="url(#z30431c7)"] {animation-delay:7s;}
#z30431 path[clip-path="url(#z30431c8)"] {animation-delay:8s;}
#z30431 path[clip-path="url(#z30431c9)"] {animation-delay:9s;}
#z30431 path[clip-path="url(#z30431c10)"] {animation-delay:10s;}
#z30431 path[clip-path="url(#z30431c11)"] {animation-delay:11s;}
#z30431 path[clip-path="url(#z30431c12)"] {animation-delay:12s;}
#z30431 path[clip-path="url(#z30431c13)"] {animation-delay:13s;}
#z30431 path {fill:#ccc;}
]]>
</style>
<path id="z30431d1" d="M272 180Q253 165 232 160Q225 159 219 166Q216 170 223 179Q257 263 235 399Q223 445 228 462Q237 490 247 501Q257 513 264 501Q271 491 276 476L281 447Q284 425 284 342L283 308Q283 229 286 206L272 180 Z"/>
<path id="z30431d2" d="M378 461Q388 477 398 495Q414 519 421 516Q428 515 439 494Q449 472 449 440Q449 224 467 195Q477 177 470 166Q463 156 414 141Q390 132 373 142Q318 169 272 180L286 206Q289 205 296 203Q323 196 354 185Q382 175 393 185Q411 203 398 412Q399 427 393 431L378 461 Z"/>
<path id="z30431d3" d="M284 342Q332 330 369 324Q391 318 382 307Q370 294 346 292Q325 292 283 308L284 342 Z"/>
<path id="z30431d4" d="M276 476Q331 466 378 461L393 431Q386 427 377 426Q340 420 281 447L276 476 Z"/>
<path id="z30431d5" d="M579 367Q583 346 589 282L591 252Q594 162 596 155L585 126Q585 125 584 125Q542 106 530 108Q514 112 527 130Q549 166 543 322Q540 383 510 458Q489 513 418 585Q406 595 403 602Q402 608 412 607Q445 607 503 542Q554 485 574 396L579 367 Z"/>
<path id="z30431d6" d="M596 155L703 129Q722 125 727 134Q748 186 739 431Q738 462 728 477Q722 484 699 478Q639 478 641 485Q696 521 726 547Q739 563 755 568Q764 571 771 561Q807 513 803 460Q776 190 800 146Q812 127 800 118Q781 100 745 86Q729 79 713 86Q662 111 585 126L596 155 Z"/>
<path id="z30431d7" d="M589 282Q590 282 593 282Q651 269 693 260Q715 254 706 243Q694 230 670 228Q639 228 591 252L589 282 Z"/>
<path id="z30431d8" d="M574 396Q577 396 696 377Q718 373 709 360Q699 345 673 342Q628 339 579 367L574 396 Z"/>
<path id="z30431d9" d="M296 647Q284 641 251 635Q238 631 235 637Q228 644 237 660Q264 715 280 806Q281 827 292 843L327 841Q328 825 325 800Q313 715 310 683L296 647 Z"/>
<path id="z30431d10" d="M722 801Q753 704 781 667Q793 657 788 644Q782 628 723 598Q707 588 693 593Q513 626 296 647L310 683Q329 677 392 666L422 662Q480 650 543 643L594 636Q661 618 690 636Q697 640 695 659Q683 722 659 809L722 801 Z"/>
<path id="z30431d11" d="M446 831Q456 801 426 677Q425 668 422 662L392 666Q392 801 424 833L446 831 Z"/>
<path id="z30431d12" d="M555 820Q561 811 592 724Q599 703 613 675Q625 662 615 653Q608 644 594 636L543 643Q550 659 551 683Q547 737 525 815Q524 819 523 824L555 820 Z"/>
<path id="z30431d13" d="M292 843Q204 847 111 856Q87 857 104 877Q119 893 139 900Q161 907 180 903Q462 839 909 861Q931 862 937 852Q944 839 926 823Q866 774 802 789Q765 793 722 801L659 809Q608 813 555 820L523 824Q514 823 506 825Q476 826 446 831L424 833Q376 834 327 841L292 843 Z"/>
<defs>
	<clipPath id="z30431c1"><use xlink:href="#z30431d1"/></clipPath>
	<clipPath id="z30431c2"><use xlink:href="#z30431d2"/></clipPath>
	<clipPath id="z30431c3"><use xlink:href="#z30431d3"/></clipPath>
	<clipPath id="z30431c4"><use xlink:href="#z30431d4"/></clipPath>
	<clipPath id="z30431c5"><use xlink:href="#z30431d5"/></clipPath>
	<clipPath id="z30431c6"><use xlink:href="#z30431d6"/></clipPath>
	<clipPath id="z30431c7"><use xlink:href="#z30431d7"/></clipPath>
	<clipPath id="z30431c8"><use xlink:href="#z30431d8"/></clipPath>
	<clipPath id="z30431c9"><use xlink:href="#z30431d9"/></clipPath>
	<clipPath id="z30431c10"><use xlink:href="#z30431d10"/></clipPath>
	<clipPath id="z30431c11"><use xlink:href="#z30431d11"/></clipPath>
	<clipPath id="z30431c12"><use xlink:href="#z30431d12"/></clipPath>
	<clipPath id="z30431c13"><use xlink:href="#z30431d13"/></clipPath>
</defs>
<path pathLength="3333" clip-path="url(#z30431c1)" d="M227 170L260 214L253 502"/>
<path pathLength="3333" clip-path="url(#z30431c2)" d="M279 182L393 159L434 184L410 507"/>
<path pathLength="3333" clip-path="url(#z30431c3)" d="M287 334L379 315"/>
<path pathLength="3333" clip-path="url(#z30431c4)" d="M285 468L385 435"/>
<path pathLength="3333" clip-path="url(#z30431c5)" d="M528 116L567 174L551 401L503 512L412 599"/>
<path pathLength="3333" clip-path="url(#z30431c6)" d="M592 130L720 105L768 136L760 501L735 524L650 484"/>
<path pathLength="3333" clip-path="url(#z30431c7)" d="M595 275L702 248"/>
<path pathLength="3333" clip-path="url(#z30431c8)" d="M579 389L707 360"/>
<path pathLength="3333" clip-path="url(#z30431c9)" d="M240 639L283 697L308 841"/>
<path pathLength="3333" clip-path="url(#z30431c10)" d="M305 652L707 617L740 661L693 794L667 802"/>
<path pathLength="3333" clip-path="url(#z30431c11)" d="M416 670L435 831"/>
<path pathLength="3333" clip-path="url(#z30431c12)" d="M550 645L585 670L529 817"/>
<path pathLength="3333" clip-path="url(#z30431c13)" d="M106 865L164 877L776 823L934 838"/>
</svg>