<!--
AnimCJK 2016-2018 Copyright Francois Mizessyn, https://github.com/parsimonhi/animCJK
Derived from:
    MakeMeAHanzi project - https://github.com/skishore/makemeahanzi
    Arphic PL KaitiM GB - https://apps.ubuntu.com/cat/applications/precise/fonts-arphic-gkai00mp/
    Arphic PL UKai - https://apps.ubuntu.com/cat/applications/fonts-arphic-ukai/
You can redistribute and/or modify this file under the terms of the Arphic Public License
as published by Arphic Technology Co., Ltd.
You should have received a copy of this license (the directory "APL") along with this file;
if not, see http://ftp.gnu.org/non-gnu/chinese-fonts-truetype/LICENSE.
-->
<svg id="z30473" class="acjk" version="1.1" viewBox="0 0 1024 1024" xmlns="http://www.w3.org/2000/svg" xmlns:xlink="http://www.w3.org/1999/xlink">
<style>
<![CDATA[
@keyframes z30473k {
	from {
		stroke:#c00;
		stroke-dashoffset:3334;
	}
	75% {
		stroke:#c00;
		stroke-dashoffset:0;
	}
	to {
		stroke:#000;
	}
}
#z30473 path[clip-path] {
	animation:z30473k 1s linear both;
	stroke-dasharray:3334;
	stroke-width:128;
	stroke-linecap:round;
	fill:none;
}
#z30473 path[clip-path="url(#z30473c1)"] {animation-delay:1s;}
#z30473 path[clip-path="url(#z30473c2)"] {animation-delay:2s;}
#z30473 path[clip-path="url(#z30473c3)"] {animation-delay:3s;}
#z30473 path[clip-path="url(#z30473c4)"] {animation-delay:4s;}
#z30473 path[clip-path="url(#z30473c5)"] {animation-delay:5s;}
#z30473 path[clip-path="url(#z30473c6)"] {animation-delay:6s;}
#z30473 path[clip-path="url(#z30473c7)"] {animation-delay:7s;}
#z30473 path[clip-path="url(#z30473c8)"] {animation-delay:8s;}
#z30473 path[clip-path="url(#z30473c9)"] {animation-delay:9s;}
#z30473 path {fill:#ccc;}
]]>
</style>
<path id="z30473d1" d="M730 248Q760 179 796 154Q815 135 800 115Q731 52 686 67Q548 116 375 134L390 170Q481 152 515 147L551 141Q600 131 651 122Q682 115 694 128Q701 137 699 154Q686 203 672 244L730 248 Z"/>
<path id="z30473d2" d="M515 147Q518 159 506 280L548 272Q563 194 567 187Q577 169 551 141L515 147 Z"/>
<path id="z30473d3" d="M353 331Q366 340 390 337Q502 309 743 284Q753 283 756 274Q756 265 730 248L672 244Q606 259 548 272L506 280Q425 293 359 303L353 331 Z"/>
<path id="z30473d4" d="M375 134Q362 122 342 112Q323 99 309 103Q296 110 302 124Q320 152 314 215Q280 455 222 586Q173 694 69 829Q63 835 61 841Q57 853 69 851Q105 845 199 723Q218 693 239 659Q312 527 353 331L359 303Q359 297 361 292Q376 195 390 170L375 134 Z"/>
<path id="z30473d5" d="M442 434Q435 425 405 411Q395 407 384 410Q377 414 382 427Q403 500 398 645Q395 664 395 688Q394 736 378 792Q363 846 398 890Q408 903 419 892Q432 876 432 854L436 818Q437 802 437 783Q438 750 439 722L440 693Q441 639 444 600L445 572Q448 470 451 468L442 434 Z"/>
<path id="z30473d6" d="M619 836Q647 873 668 907Q678 926 688 925Q704 924 721 890Q739 853 735 806Q728 700 723 503Q722 472 738 450Q748 437 739 427Q720 408 668 384Q650 375 635 384Q569 414 442 434L451 468Q464 465 483 461Q556 448 618 434Q642 430 655 439Q682 466 664 803Q658 819 646 815L619 836 Z"/>
<path id="z30473d7" d="M444 600Q448 600 454 600Q539 584 603 573Q627 569 617 556Q607 541 581 538Q550 535 445 572L444 600 Z"/>
<path id="z30473d8" d="M439 722Q454 716 610 696Q634 692 625 680Q615 665 589 660Q568 657 440 693L439 722 Z"/>
<path id="z30473d9" d="M432 854Q435 854 439 854Q497 841 619 836L646 815Q639 808 622 796Q606 786 575 793Q499 809 436 818L432 854 Z"/>
<defs>
	<clipPath id="z30473c1"><use xlink:href="#z30473d1"/></clipPath>
	<clipPath id="z30473c2"><use xlink:href="#z30473d2"/></clipPath>
	<clipPath id="z30473c3"><use xlink:href="#z30473d3"/></clipPath>
	<clipPath id="z30473c4"><use xlink:href="#z30473d4"/></clipPath>
	<clipPath id="z30473c5"><use xlink:href="#z30473d5"/></clipPath>
	<clipPath id="z30473c6"><use xlink:href="#z30473d6"/></clipPath>
	<clipPath id="z30473c7"><use xlink:href="#z30473d7"/></clipPath>
	<clipPath id="z30473c8"><use xlink:href="#z30473d8"/></clipPath>
	<clipPath id="z30473c9"><use xlink:href="#z30473d9"/></clipPath>
</defs>
<path pathLength="3333" clip-path="url(#z30473c1)" d="M382 136L421 147L701 93L752 141L705 235L683 242"/>
<path pathLength="3333" clip-path="url(#z30473c2)" d="M521 153L541 190L516 277"/>
<path pathLength="3333" clip-path="url(#z30473c3)" d="M359 327L749 270"/>
<path pathLength="3333" clip-path="url(#z30473c4)" d="M306 106L352 171L279 505L193 690L66 844"/>
<path pathLength="3333" clip-path="url(#z30473c5)" d="M390 417L422 504L408 890"/>
<path pathLength="3333" clip-path="url(#z30473c6)" d="M449 437L648 407L703 449L699 817L658 891"/>
<path pathLength="3333" clip-path="url(#z30473c7)" d="M454 592L613 561"/>
<path pathLength="3333" clip-path="url(#z30473c8)" d="M447 712L619 684"/>
<path pathLength="3333" clip-path="url(#z30473c9)" d="M439 846L636 815"/>
</svg>