<!--
AnimCJK 2016-2018 Copyright Francois Mizessyn, https://github.com/parsimonhi/animCJK
Derived from:
    MakeMeAHanzi project - https://github.com/skishore/makemeahanzi
    Arphic PL KaitiM GB - https://apps.ubuntu.com/cat/applications/precise/fonts-arphic-gkai00mp/
    Arphic PL UKai - https://apps.ubuntu.com/cat/applications/fonts-arphic-ukai/
You can redistribute and/or modify this file under the terms of the Arphic Public License
as published by Arphic Technology Co., Ltd.
You should have received a copy of this license (the directory "APL") along with this file;
if not, see http://ftp.gnu.org/non-gnu/chinese-fonts-truetype/LICENSE.
-->
<svg id="z30494" class="acjk" version="1.1" viewBox="0 0 1024 1024" xmlns="http://www.w3.org/2000/svg" xmlns:xlink="http://www.w3.org/1999/xlink">
<style>
<![CDATA[
@keyframes z30494k {
	from {
		stroke:#c00;
		stroke-dashoffset:3334;
	}
	75% {
		stroke:#c00;
		stroke-dashoffset:0;
	}
	to {
		stroke:#000;
	}
}
#z30494 path[clip-path] {
	animation:z30494k 1s linear both;
	stroke-dasharray:3334;
	stroke-width:128;
	stroke-linecap:round;
	fill:none;
}
#z30494 path[clip-path="url(#z30494c1)"] {animation-delay:1s;}
#z30494 path[clip-path="url(#z30494c2)"] {animation-delay:2s;}
#z30494 path[clip-path="url(#z30494c3)"] {animation-delay:3s;}
#z30494 path[clip-path="url(#z30494c4)"] {animation-delay:4s;}
#z30494 path[clip-path="url(#z30494c5)"] {animation-delay:5s;}
#z30494 path[clip-path="url(#z30494c6)"] {animation-delay:6s;}
#z30494 path[clip-path="url(#z30494c7)"] {animation-delay:7s;}
#z30494 path[clip-path="url(#z30494c8)"] {animation-delay:8s;}
#z30494 path[clip-path="url(#z30494c9)"] {animation-delay:9s;}
#z30494 path[clip-path="url(#z30494c10)"] {animation-delay:10s;}
#z30494 path {fill:#ccc;}
]]>
</style>
<path id="z30494d1" d="M377 209C433 205 563 180 628 150C636 145 645 142 655 140C663 137 667 133 666 127C665 122 660 116 650 109C629 94 611 86 597 86C591 85 587 88 587 96C580 120 463 158 377 195 Z"/>
<path id="z30494d2" d="M377 195C377 175 379 152 383 128C385 118 383 110 377 106C369 99 358 93 346 89C339 87 333 87 329 90C325 92 325 98 329 108C337 128 340 149 339 170C339 212 341 240 345 252C347 266 356 278 371 288C421 322 565 318 663 294C667 292 673 290 680 289C702 281 725 268 749 251C757 242 758 231 750 219C743 210 733 190 720 159C719 151 716 146 712 144C709 143 707 147 706 156C696 192 687 215 681 226C673 236 657 244 634 251C576 267 457 275 417 261C399 254 388 245 384 235C380 228 377 219 377 209 Z"/>
<path id="z30494d3" d="M406 365C401 360 391 354 377 348C372 345 366 344 360 348C356 349 357 354 360 361C361 364 362 368 364 372C376 393 378 453 373 549C370 592 366 624 387 650C392 656 397 656 403 650C406 646 407 642 409 638C412 628 413 625 413 607C413 589 412 571 412 553C411 535 412 537 412 529L412 469L412 445C412 427 412 409 413 391 Z"/>
<path id="z30494d4" d="M642 612C642 616 644 621 648 626C656 640 662 647 666 647C672 646 680 637 689 621C695 608 698 596 698 586C682 479 683 411 703 382C709 373 709 366 705 361C690 347 670 334 644 323C635 320 624 321 612 325C586 335 470 354 406 365L413 391L432 391C512 373 625 360 631 369C639 377 643 398 644 431C648 521 647 575 643 593 Z"/>
<path id="z30494d5" d="M412 469C450 463 555 450 585 446C597 444 601 439 597 432C591 424 581 419 567 417C544 415 446 429 412 445 Z"/>
<path id="z30494d6" d="M412 553L418 553C458 545 563 531 593 527C605 524 609 519 605 512C598 504 588 499 575 498C554 496 453 511 412 529 Z"/>
<path id="z30494d7" d="M409 638C411 638 415 637 419 637C451 631 572 617 642 612L643 593C639 589 633 584 626 579C616 574 602 574 585 578C548 586 444 601 413 607 Z"/>
<path id="z30494d8" d="M307 520C308 508 306 498 299 491C288 479 273 472 256 467C241 462 235 463 233 470C231 476 232 481 238 488C268 525 271 598 244 665C237 681 225 700 210 717C200 728 194 738 198 749C201 757 210 767 224 777C235 785 247 782 261 770C298 737 477 713 595 706C641 703 737 700 824 715C836 716 846 716 854 712C860 709 863 702 859 693C853 680 844 674 831 668C816 661 793 654 767 654C740 653 720 654 690 656C620 658 422 685 297 709C285 711 279 705 283 691C292 647 300 575 307 520 Z"/>
<path id="z30494d9" d="M368 777C355 814 301 865 204 927C189 935 191 938 209 939C247 940 308 916 386 857C391 853 404 839 433 820C442 813 444 806 444 800C442 791 434 783 419 776C400 767 388 763 380 764C375 764 370 768 368 777 Z"/>
<path id="z30494d10" d="M626 791C656 825 688 866 723 914C731 928 741 938 752 943C758 943 763 941 769 936C779 927 781 908 775 878C773 850 748 822 701 796C671 779 647 767 631 759C625 755 621 757 619 766C618 774 620 783 626 791 Z"/>
<defs>
	<clipPath id="z30494c1"><use xlink:href="#z30494d1"/></clipPath>
	<clipPath id="z30494c2"><use xlink:href="#z30494d2"/></clipPath>
	<clipPath id="z30494c3"><use xlink:href="#z30494d3"/></clipPath>
	<clipPath id="z30494c4"><use xlink:href="#z30494d4"/></clipPath>
	<clipPath id="z30494c5"><use xlink:href="#z30494d5"/></clipPath>
	<clipPath id="z30494c6"><use xlink:href="#z30494d6"/></clipPath>
	<clipPath id="z30494c7"><use xlink:href="#z30494d7"/></clipPath>
	<clipPath id="z30494c8"><use xlink:href="#z30494d8"/></clipPath>
	<clipPath id="z30494c9"><use xlink:href="#z30494d9"/></clipPath>
	<clipPath id="z30494c10"><use xlink:href="#z30494d10"/></clipPath>
</defs>
<path pathLength="3333" clip-path="url(#z30494c1)" d="M662 130L604 121L383 200"/>
<path pathLength="3333" clip-path="url(#z30494c2)" d="M335 96L361 131L369 254L425 287L588 284L685 258L722 223L712 155"/>
<path pathLength="3333" clip-path="url(#z30494c3)" d="M365 353L393 402L393 649"/>
<path pathLength="3333" clip-path="url(#z30494c4)" d="M414 371L632 344L672 372L660 641"/>
<path pathLength="3333" clip-path="url(#z30494c5)" d="M420 460L592 435"/>
<path pathLength="3333" clip-path="url(#z30494c6)" d="M420 544L603 514"/>
<path pathLength="3333" clip-path="url(#z30494c7)" d="M413 631L638 601"/>
<path pathLength="3333" clip-path="url(#z30494c8)" d="M239 469L283 526L240 723L259 743L605 685L856 699"/>
<path pathLength="3333" clip-path="url(#z30494c9)" d="M439 799L393 800L320 873L204 931"/>
<path pathLength="3333" clip-path="url(#z30494c10)" d="M626 765L721 852L762 936"/>
</svg>