<!--
AnimCJK 2016-2017 Copyright Francois Mizessyn, http://gooo.free.fr/animCJK/
Derived from:
    MakeMeAHanzi project - https://github.com/skishore/makemeahanzi
    Arphic PL KaitiM GB - https://apps.ubuntu.com/cat/applications/precise/fonts-arphic-gkai00mp/
    Arphic PL UKai - https://apps.ubuntu.com/cat/applications/fonts-arphic-ukai/
You can redistribute and/or modify this file under the terms of the Arphic Public License
as published by Arphic Technology Co., Ltd.
You should have received a copy of this license (the directory "APL") along with this file;
if not, see http://ftp.gnu.org/non-gnu/chinese-fonts-truetype/LICENSE.
-->
<svg id="z30566" class="acjk" version="1.1" viewBox="0 0 1024 1024" xmlns="http://www.w3.org/2000/svg" xmlns:xlink="http://www.w3.org/1999/xlink">
<style>
<![CDATA[
	@keyframes z30566k {
		from {
			stroke:#c00;
			stroke-dashoffset:3000;
		}
		75% {
			stroke:#c00;
			stroke-dashoffset:0;
		}
		to {
			stroke:#000;
		}
	}
	#z30566 path[clip-path] {
		animation:z30566k 1s linear both;
		stroke-dasharray:3000;
		stroke-width:128;
		stroke-linecap:round;
		fill:none;
	}
	#z30566 path[clip-path="url(#z30566c1)"] {animation-delay:1s;}
	#z30566 path[clip-path="url(#z30566c2)"] {animation-delay:2s;}
	#z30566 path[clip-path="url(#z30566c3)"] {animation-delay:3s;}
	#z30566 path[clip-path="url(#z30566c4)"] {animation-delay:4s;}
	#z30566 path[clip-path="url(#z30566c5)"] {animation-delay:5s;}
	#z30566 path[clip-path="url(#z30566c6)"] {animation-delay:6s;}
	#z30566 path[clip-path="url(#z30566c7)"] {animation-delay:7s;}
	#z30566 path[clip-path="url(#z30566c8)"] {animation-delay:8s;}
	#z30566 path[clip-path="url(#z30566c9)"] {animation-delay:9s;}
	#z30566 path[clip-path="url(#z30566c10)"] {animation-delay:10s;}
	#z30566 path[clip-path="url(#z30566c11)"] {animation-delay:11s;}
	#z30566 path[clip-path="url(#z30566c12)"] {animation-delay:12s;}
	#z30566 path[clip-path="url(#z30566c13)"] {animation-delay:13s;}
	#z30566 path {fill:#ccc;}
]]>
</style>
<g transform="scale(1,-1) translate(0,-900)">
	<path id="z30566d1" d="M181 635Q168 648 145 656Q135 660 124 657Q117 653 123 640Q126 627 131 616Q159 559 141 267Q137 225 124 176Q112 121 146 77Q156 64 167 77Q176 89 178 102L181 132Q184 160 184 287L185 322Q185 386 187 435L188 472Q188 598 193 607L181 635Z"/>
	<path id="z30566d2" d="M278 110Q288 92 301 74Q317 49 325 52Q338 55 354 92Q370 134 365 187Q358 293 354 526Q353 586 369 617Q381 636 372 647Q365 657 313 673Q288 682 270 671Q221 646 181 635L193 607Q194 608 198 609Q223 616 254 625Q282 634 291 625Q307 610 307 549Q310 299 298 161Q301 140 286 140L278 110Z"/>
	<path id="z30566d3" d="M187 435Q232 447 266 454Q288 461 278 473Q265 486 240 486Q219 486 188 472L187 435Z"/>
	<path id="z30566d4" d="M184 287Q230 296 266 302Q288 309 278 321Q265 334 240 335Q218 335 185 322L184 287Z"/>
	<path id="z30566d5" d="M178 102Q233 109 278 110L286 140Q280 143 274 144Q244 150 181 132L178 102Z"/>
	<path id="z30566d6" d="M657 606Q789 636 795 641Q804 648 799 657Q792 667 764 675Q734 679 706 668Q684 661 661 653L610 639Q564 630 509 624Q473 618 499 602Q538 578 595 593Q601 594 610 596L657 606Z"/>
	<path id="z30566d7" d="M648 502Q652 557 657 606L661 653Q664 713 680 769Q683 779 664 793Q631 812 609 816Q593 819 586 811Q579 804 586 790Q605 765 605 747Q608 695 610 639L610 596Q610 548 609 495L648 502Z"/>
	<path id="z30566d8" d="M609 495Q509 477 394 456Q375 453 390 439Q403 427 420 423Q439 419 453 424Q603 472 855 486Q873 487 891 488Q909 489 912 497Q916 507 901 519Q853 553 792 535Q734 522 648 502L609 495Z"/>
	<path id="z30566d9" d="M493 377Q483 359 389 247Q382 234 395 237Q434 267 526 345Q539 358 558 366Q574 375 565 387Q555 400 534 410Q515 420 506 417Q496 416 500 406Q503 391 493 377Z"/>
	<path id="z30566d10" d="M792 297C772 297 751 300 733 310C721 314 712 323 707 335C698 355 703 378 702 399C704 414 699 429 692 443C695 450 704 451 710 451C724 451 736 446 748 439C754 436 757 428 754 422C747 403 739 383 744 362C744 351 752 341 763 338C780 331 800 331 818 335C828 336 837 340 843 348C856 361 865 376 874 392C877 395 883 393 883 388C886 381 886 373 889 365C892 352 897 339 903 328C905 319 895 316 889 314C860 303 829 298 798 297C796 296 794 297 792 297Z"/>
	<path id="z30566d11" d="M656 180Q783 204 790 209Q799 216 795 224Q788 236 760 244Q727 253 659 227L605 214Q604 215 602 214Q545 204 478 199Q442 195 467 178Q506 151 564 165Q583 169 606 171L656 180Z"/>
	<path id="z30566d12" d="M644 56Q650 120 656 180L659 227Q662 260 675 303Q678 313 660 326Q629 344 606 348Q591 351 584 343Q577 336 584 323Q602 298 602 282Q603 249 605 214L606 171Q606 114 605 51L644 56Z"/>
	<path id="z30566d13" d="M605 51Q503 42 388 29Q369 28 383 11Q396 -2 413 -9Q434 -13 449 -10Q581 23 882 23Q898 23 914 22Q933 22 938 30Q944 40 928 55Q874 94 842 86Q769 73 644 56L605 51Z"/>
	<defs>
		<clipPath id="z30566c1"><use xlink:href="#z30566d1"/></clipPath>
		<clipPath id="z30566c2"><use xlink:href="#z30566d2"/></clipPath>
		<clipPath id="z30566c3"><use xlink:href="#z30566d3"/></clipPath>
		<clipPath id="z30566c4"><use xlink:href="#z30566d4"/></clipPath>
		<clipPath id="z30566c5"><use xlink:href="#z30566d5"/></clipPath>
		<clipPath id="z30566c6"><use xlink:href="#z30566d6"/></clipPath>
		<clipPath id="z30566c7"><use xlink:href="#z30566d7"/></clipPath>
		<clipPath id="z30566c8"><use xlink:href="#z30566d8"/></clipPath>
		<clipPath id="z30566c9"><use xlink:href="#z30566d9"/></clipPath>
		<clipPath id="z30566c10"><use xlink:href="#z30566d10"/></clipPath>
		<clipPath id="z30566c11"><use xlink:href="#z30566d11"/></clipPath>
		<clipPath id="z30566c12"><use xlink:href="#z30566d12"/></clipPath>
		<clipPath id="z30566c13"><use xlink:href="#z30566d13"/></clipPath>
	</defs>
	<path pathLength="2999" clip-path="url(#z30566c1)" d="M128 651L166 578L151 77"/>
	<path pathLength="2999" clip-path="url(#z30566c2)" d="M187 633L285 653L337 626L332 155L314 58"/>
	<path pathLength="2999" clip-path="url(#z30566c3)" d="M192 444L274 468"/>
	<path pathLength="2999" clip-path="url(#z30566c4)" d="M194 297L275 314"/>
	<path pathLength="2999" clip-path="url(#z30566c5)" d="M185 111L281 127"/>
	<path pathLength="2999" clip-path="url(#z30566c6)" d="M496 616L575 611L795 654"/>
	<path pathLength="2999" clip-path="url(#z30566c7)" d="M591 805L641 767L621 498"/>
	<path pathLength="2999" clip-path="url(#z30566c8)" d="M393 449L811 512L907 505"/>
	<path pathLength="2999" clip-path="url(#z30566c9)" d="M507 410L527 373L395 244"/>
	<path pathLength="2999" clip-path="url(#z30566c10)" d="M701 442L728 411L728 341L758 320L854 326L879 342L878 383"/>
	<path pathLength="2999" clip-path="url(#z30566c11)" d="M466 189L792 221"/>
	<path pathLength="2999" clip-path="url(#z30566c12)" d="M589 342L637 300L617 54"/>
	<path pathLength="2999" clip-path="url(#z30566c13)" d="M384 22L444 12L845 55L935 41"/>
</g>
</svg>