<!--
AnimCJK 2016-2019 Copyright Francois Mizessyn - https://github.com/parsimonhi/animCJK
Derived from:
    MakeMeAHanzi project - https://github.com/skishore/makemeahanzi
    Arphic PL KaitiM GB font
    Arphic PL UKai font
You can redistribute and/or modify this file under the terms of the Arphic Public License
as published by Arphic Technology Co., Ltd.
You should have received a copy of this license along with this file.
If not, see http://ftp.gnu.org/non-gnu/chinese-fonts-truetype/LICENSE.
-->
<svg id="z30636" class="acjk" version="1.1" viewBox="0 0 1024 1024" xmlns="http://www.w3.org/2000/svg" xmlns:xlink="http://www.w3.org/1999/xlink">
<style>
<![CDATA[
@keyframes zk {
	to {
		stroke-dashoffset:0;
	}
}
svg.acjk path[clip-path] {
	--t:0.8s;
	animation:zk var(--t) linear forwards var(--d);
	stroke-dasharray:3337;
	stroke-dashoffset:3339;
	stroke-width:128;
	stroke-linecap:round;
	fill:none;
	stroke:#000;
}
svg.acjk path[id] {fill:#ccc;}
]]>
</style>
<path id="z30636d1" d="M164 224C154 214 142 207 130 203C124 200 117 200 110 202C105 204 104 210 108 219C120 265 127 297 128 317C134 453 124 562 106 651C102 667 94 681 100 711C104 729 112 743 122 755C128 763 135 764 142 756C146 748 150 740 153 732C156 714 156 714 157 705C161 599 161 599 163 546C163 528 163 528 163 519C163 480 165 446 167 417C168 396 168 396 168 386C170 312 172 271 174 263C174 257 175 252 175 249C176 240 171 229 164 224Z"/>
<path id="z30636d2" d="M263 719C274 749 300 770 305 768C313 766 322 753 332 730C340 704 342 674 340 642C321 408 320 273 338 240C343 228 345 220 341 213C336 206 318 199 287 190C272 185 259 185 249 191C217 205 188 216 164 224C155 227 166 251 175 249C214 238 214 238 234 233C250 228 262 227 268 233C278 242 282 267 283 305C286 461 286 596 279 670C277 681 270 685 264 689C255 694 259 710 263 719Z"/>
<path id="z30636d3" d="M167 417Q216 404 255 395Q274 389 266 378Q254 368 232 366Q199 366 168 386C159 391 157 419 167 417Z"/>
<path id="z30636d4" d="M163 546Q217 534 258 527Q279 521 270 511Q260 498 236 497Q203 494 163 519C155 524 154 548 163 546Z"/>
<path id="z30636d5" d="M153 732C182 728 233 721 263 719C273 719 273 693 264 689C260 687 250 686 241 686C219 684 193 689 157 705C149 708 144 734 153 732Z"/>
<path id="z30636d6" d="M627 95C597 120 544 149 469 189C464 191 465 199 469 200C501 202 549 180 635 150C651 144 677 129 722 122C732 120 739 118 741 114C743 107 741 100 733 94C720 83 700 74 673 64C663 60 655 55 647 58C641 59 640 65 640 72C640 80 635 87 627 95Z"/>
<path id="z30636d7" d="M461 280Q476 298 492 320Q502 332 515 333Q524 333 529 323Q535 311 531 287Q527 265 462 240Q449 236 444 237Q440 240 439 251Q440 260 461 280Z"/>
<path id="z30636d8" d="M555 216Q592 282 616 288Q626 291 634 277Q637 267 632 248Q626 232 606 220Q576 199 563 194Q556 193 553 201Q550 208 555 216Z"/>
<path id="z30636d9" d="M742 195Q730 213 666 292Q659 305 672 303Q718 276 777 232Q793 219 813 210Q831 201 822 187Q810 174 789 161Q770 149 758 152Q748 153 751 164Q754 180 742 195Z"/>
<path id="z30636d10" d="M427 374Q411 347 402 341Q399 337 394 341Q390 344 388 354Q389 381 364 438Q354 453 355 469Q358 485 365 498Q372 508 377 502Q386 499 403 458Q422 404 428 399C433 392 432 381 427 374Z"/>
<path id="z30636d11" d="M428 399C442 407 458 410 474 405C544 381 633 361 742 346C766 342 782 338 790 342C801 347 805 354 804 359C803 361 797 381 784 420C781 428 781 433 785 435C789 437 795 433 805 427C833 405 860 391 886 383C906 376 915 370 915 365C914 359 892 342 850 313C835 303 805 305 757 315C607 343 525 357 511 360C455 369 455 369 427 374C419 376 421 395 428 399Z"/>
<path id="z30636d12" d="M416 599C429 584 446 564 456 551C464 540 464 540 468 534C496 494 511 476 511 468C510 460 505 453 494 444C483 435 469 432 461 433C454 433 451 438 455 447C468 475 437 537 360 633C356 637 352 640 352 643C350 647 353 649 359 648C365 646 383 634 407 609C413 602 413 602 416 599Z"/>
<path id="z30636d13" d="M456 551Q465 557 487 553Q520 546 522 551Q526 563 511 609Q498 658 447 728Q398 801 314 874Q296 886 312 884Q375 880 463 770Q518 700 558 610Q577 567 591 554Q601 547 596 537Q592 528 550 511Q540 507 523 517Q505 524 468 534C461 536 450 548 456 551Z"/>
<path id="z30636d14" d="M407 609Q407 612 433 656Q440 669 451 671Q460 674 466 663Q469 656 466 641Q457 617 416 599C412 597 405 605 407 609Z"/>
<path id="z30636d15" d="M758 553C778 547 798 541 819 536C835 531 845 527 848 525C852 520 853 517 851 513C847 507 837 503 823 500C806 496 787 505 760 514C727 525 727 525 711 530C689 537 664 539 640 544C621 547 619 553 634 561C655 571 678 573 711 565C742 557 742 557 758 553Z"/>
<path id="z30636d16" d="M615 706C621 691 618 617 604 588C600 577 603 572 614 572C625 572 639 581 655 599C665 611 667 623 663 635C660 647 656 687 654 698C652 711 612 719 615 706Z"/>
<path id="z30636d17" d="M886 704C898 704 905 701 905 694C905 688 896 679 876 669C859 659 835 659 818 664C776 676 681 692 654 698C628 703 628 703 615 706C598 709 584 713 576 717C540 724 582 750 604 743C639 729 825 701 886 704Z"/>
<path id="z30636d18" d="M713 908Q717 930 723 938Q727 944 734 941Q741 938 745 926Q755 890 756 711C756 686 756 686 756 674Q756 625 758 553C759 527 759 527 760 514Q764 487 767 473Q770 458 758 450Q730 432 718 430Q708 426 694 433Q687 440 692 449Q710 480 711 530C711 553 711 553 711 565Q711 617 710 683C710 706 710 706 710 717Q710 885 713 908Z"/>
<defs>
	<clipPath id="z30636c1"><use xlink:href="#z30636d1"/></clipPath>
	<clipPath id="z30636c2"><use xlink:href="#z30636d2"/></clipPath>
	<clipPath id="z30636c3"><use xlink:href="#z30636d3"/></clipPath>
	<clipPath id="z30636c4"><use xlink:href="#z30636d4"/></clipPath>
	<clipPath id="z30636c5"><use xlink:href="#z30636d5"/></clipPath>
	<clipPath id="z30636c6"><use xlink:href="#z30636d6"/></clipPath>
	<clipPath id="z30636c7"><use xlink:href="#z30636d7"/></clipPath>
	<clipPath id="z30636c8"><use xlink:href="#z30636d8"/></clipPath>
	<clipPath id="z30636c9"><use xlink:href="#z30636d9"/></clipPath>
	<clipPath id="z30636c10"><use xlink:href="#z30636d10"/></clipPath>
	<clipPath id="z30636c11"><use xlink:href="#z30636d11"/></clipPath>
	<clipPath id="z30636c12"><use xlink:href="#z30636d12"/></clipPath>
	<clipPath id="z30636c13"><use xlink:href="#z30636d13"/></clipPath>
	<clipPath id="z30636c14"><use xlink:href="#z30636d14"/></clipPath>
	<clipPath id="z30636c15"><use xlink:href="#z30636d15"/></clipPath>
	<clipPath id="z30636c16"><use xlink:href="#z30636d16"/></clipPath>
	<clipPath id="z30636c17"><use xlink:href="#z30636d17"/></clipPath>
	<clipPath id="z30636c18"><use xlink:href="#z30636d18"/></clipPath>
</defs>
<path style="--d:1s;" pathLength="3333" clip-path="url(#z30636c1)" d="M115 210L149 296L128 756"/>
<path style="--d:2s;" pathLength="3333" clip-path="url(#z30636c2)" d="M170 226L258 208L310 236L310 677L289 756"/>
<path style="--d:3s;" pathLength="3333" clip-path="url(#z30636c3)" d="M173 408L262 381"/>
<path style="--d:4s;" pathLength="3333" clip-path="url(#z30636c4)" d="M167 537L265 514"/>
<path style="--d:5s;" pathLength="3333" clip-path="url(#z30636c5)" d="M159 724L258 702"/>
<path style="--d:6s;" pathLength="3333" clip-path="url(#z30636c6)" d="M 656,69 684,102 476,193"/>
<path style="--d:7s;" pathLength="3333" clip-path="url(#z30636c7)" d="M447 244L519 327"/>
<path style="--d:8s;" pathLength="3333" clip-path="url(#z30636c8)" d="M560 200L619 284"/>
<path style="--d:9s;" pathLength="3333" clip-path="url(#z30636c9)" d="M757 156L782 198L671 295"/>
<path style="--d:10s;" pathLength="3333" clip-path="url(#z30636c10)" d="M399 346L404 396L370 496"/>
<path style="--d:11s;" pathLength="3333" clip-path="url(#z30636c11)" d="M434 379L800 325L861 369L789 430"/>
<path style="--d:12s;" pathLength="3333" clip-path="url(#z30636c12)" d="M463 441L480 481L360 639"/>
<path style="--d:13s;" pathLength="3333" clip-path="url(#z30636c13)" d="M464 548L519 532L560 548L522 638L433 778L316 878"/>
<path style="--d:14s;" pathLength="3333" clip-path="url(#z30636c14)" d="M416 607L457 667"/>
<path style="--d:15s;" pathLength="3333" clip-path="url(#z30636c15)" d="M635 553L846 515"/>
<path style="--d:16s;" pathLength="3333" clip-path="url(#z30636c16)" d="M612 579L640 627L629 702"/>
<path style="--d:17s;" pathLength="3333" clip-path="url(#z30636c17)" d="M566 727L832 684L899 692"/>
<path style="--d:18s;" pathLength="3333" clip-path="url(#z30636c18)" d="M697 438L736 475L730 937"/>
</svg>