<!--
AnimCJK 2016-2026 Copyright FM-SH - https://github.com/parsimonhi/animCJK
Derived from:
    MakeMeAHanzi project - https://github.com/skishore/makemeahanzi
    Arphic PL KaitiM GB font
    Arphic PL KaitiM Big5 font
You can redistribute and/or modify this file under the terms of the Arphic Public License
as published by Arphic Technology Co., Ltd.
You should have received a copy of this license along with this file.
If not, see https://ftp.gnu.org/non-gnu/chinese-fonts-truetype/LICENSE.
-->
<svg id="z30653" class="acjk" viewBox="0 0 1024 1024" xmlns="http://www.w3.org/2000/svg">
<style>
<![CDATA[
@keyframes zk {
	to {
		stroke-dashoffset:0;
	}
}
svg.acjk path[clip-path] {
	--t:0.8s;
	animation:zk var(--t) linear forwards var(--d);
	stroke-dasharray:3337;
	stroke-dashoffset:3339;
	stroke-width:128;
	stroke-linecap:round;
	fill:none;
	stroke:#000;
}
svg.acjk path[id] {fill:#ccc;}
]]>
</style>
<path id="z30653d1" d="M387 180C407 176 429 172 452 169C478 165 487 163 498 156C517 141 481 126 472 124C452 118 427 126 394 135C359 144 359 144 341 148C289 160 244 161 209 165C188 167 183 175 199 184C243 208 295 194 343 187C372 182 372 182 387 180Z"/>
<path id="z30653d2" d="M381 214C381 202 385 191 387 180C392 150 392 150 394 135C396 118 402 105 406 93C408 87 404 79 393 72C374 60 358 54 346 51C331 47 315 55 326 73C332 83 338 107 341 148C342 174 342 174 343 187C343 199 343 224 343 224C343 237 381 227 381 214Z"/>
<path id="z30653d3" d="M343 224C311 232 278 236 246 242C231 244 230 249 242 258C258 270 273 274 289 270C320 261 376 249 456 237C462 235 483 226 453 212C437 204 415 205 381 214C356 221 356 221 343 224Z"/>
<path id="z30653d4" d="M257 308C255 307 187 287 212 322C224 339 237 363 248 394C251 402 255 409 262 416C275 429 281 424 282 410C282 400 278 391 277 382C272 361 269 342 267 332C265 324 265 310 257 308Z"/>
<path id="z30653d5" d="M438 354C448 337 458 329 467 324C476 317 476 305 468 297C460 289 443 280 418 269C409 264 399 264 389 269C362 280 319 294 257 308C248 309 259 334 267 332C304 323 343 315 381 306C390 303 404 303 402 320C400 330 397 341 395 352C392 366 429 365 438 354Z"/>
<path id="z30653d6" d="M406 390C420 388 435 385 451 383C477 378 456 361 438 354C425 349 409 350 395 352C378 355 343 367 277 382C268 384 273 412 282 410C299 407 322 401 376 394C396 391 396 391 406 390Z"/>
<path id="z30653d7" d="M295 497C297 490 297 481 296 469C295 461 289 452 278 446C250 430 233 424 228 426C225 426 223 430 224 437C224 440 255 490 270 502C276 508 293 505 295 497Z"/>
<path id="z30653d8" d="M387 480C431 416 451 424 406 390C397 385 374 384 376 394C383 424 371 443 356 486C352 496 381 488 387 480Z"/>
<path id="z30653d9" d="M356 486C335 489 315 492 295 497C278 500 278 500 270 502C244 507 183 511 163 511C142 511 143 532 152 540C164 551 179 563 199 577C204 580 212 578 220 574C240 562 307 536 423 501C501 476 486 460 433 471C420 474 405 476 387 480C366 484 366 484 356 486Z"/>
<path id="z30653d10" d="M653 205C753 187 807 174 814 170C834 154 800 141 786 137C767 131 749 134 731 141C707 148 683 156 658 162C625 169 625 169 608 173C579 179 548 178 517 182C494 184 491 191 507 203C538 226 573 219 608 213C638 208 638 208 653 205Z"/>
<path id="z30653d11" d="M645 265C647 244 650 224 653 205C656 176 656 176 658 162C660 143 661 122 669 100C674 83 673 69 662 61C643 47 625 41 612 39C595 35 582 44 592 62C606 89 608 130 608 173C608 200 608 200 608 213C608 231 607 252 607 274C607 287 645 278 645 265Z"/>
<path id="z30653d12" d="M676 424C700 397 715 373 734 339C742 322 753 308 766 299C778 289 781 281 774 273C767 265 754 257 736 249C723 243 695 253 645 265C620 271 620 271 607 274C555 286 527 286 527 287C524 291 528 296 539 301C559 309 584 311 614 303C647 293 666 286 672 287C684 288 686 297 682 312C669 351 657 373 638 399C630 408 622 417 612 424C577 446 552 456 522 465C463 483 501 487 529 486C570 483 599 471 640 450C653 443 665 434 676 424Z"/>
<path id="z30653d13" d="M640 450C713 518 762 554 794 552C842 547 886 539 925 530C964 520 950 509 920 503C807 480 725 456 676 424C651 407 651 407 638 399C617 385 597 368 577 351C554 331 533 322 513 325C502 326 495 327 495 330C493 333 498 339 509 344C528 353 563 379 612 424C631 441 631 441 640 450Z"/>
<path id="z30653d14" d="M375 572C332 545 320 555 331 577C355 629 356 706 340 804C332 846 329 863 330 877C331 898 342 911 349 920C355 928 362 928 369 920C375 911 379 899 385 883C388 872 390 860 391 849C392 827 393 810 393 780C393 761 393 761 393 752C393 738 393 711 394 695C395 677 395 677 395 668C396 636 396 614 400 604C405 591 386 580 375 572Z"/>
<path id="z30653d15" d="M608 871C620 933 643 997 679 924C691 900 696 873 694 844C678 694 678 608 696 587C702 578 703 571 697 565C684 552 661 538 628 523C615 517 606 518 596 523C532 552 458 567 375 572C361 572 387 607 400 604C414 602 473 591 578 573C594 570 608 570 616 578C633 593 636 670 627 806C625 818 625 841 611 852C606 857 607 865 608 871Z"/>
<path id="z30653d16" d="M394 695C413 694 457 687 577 676C612 672 589 645 558 639C542 635 487 646 395 668C386 670 385 695 394 695Z"/>
<path id="z30653d17" d="M393 780C455 777 518 767 581 763C614 760 593 733 562 726C544 721 487 730 393 752C384 754 384 780 393 780Z"/>
<path id="z30653d18" d="M385 883C399 884 486 872 608 871C614 871 616 856 611 852C556 798 582 827 391 849C380 851 373 883 385 883Z"/>
<defs>
	<clipPath id="z30653c1"><use href="#z30653d1"/></clipPath>
	<clipPath id="z30653c2"><use href="#z30653d2"/></clipPath>
	<clipPath id="z30653c3"><use href="#z30653d3"/></clipPath>
	<clipPath id="z30653c4"><use href="#z30653d4"/></clipPath>
	<clipPath id="z30653c5"><use href="#z30653d5"/></clipPath>
	<clipPath id="z30653c6"><use href="#z30653d6"/></clipPath>
	<clipPath id="z30653c7"><use href="#z30653d7"/></clipPath>
	<clipPath id="z30653c8"><use href="#z30653d8"/></clipPath>
	<clipPath id="z30653c9"><use href="#z30653d9"/></clipPath>
	<clipPath id="z30653c10"><use href="#z30653d10"/></clipPath>
	<clipPath id="z30653c11"><use href="#z30653d11"/></clipPath>
	<clipPath id="z30653c12"><use href="#z30653d12"/></clipPath>
	<clipPath id="z30653c13"><use href="#z30653d13"/></clipPath>
	<clipPath id="z30653c14"><use href="#z30653d14"/></clipPath>
	<clipPath id="z30653c15"><use href="#z30653d15"/></clipPath>
	<clipPath id="z30653c16"><use href="#z30653d16"/></clipPath>
	<clipPath id="z30653c17"><use href="#z30653d17"/></clipPath>
	<clipPath id="z30653c18"><use href="#z30653d18"/></clipPath>
</defs>
<path style="--d:1s;" pathLength="3333" clip-path="url(#z30653c1)" d="M196 175L498 144"/>
<path style="--d:2s;" pathLength="3333" clip-path="url(#z30653c2)" d="M328 56L371 97L354 227"/>
<path style="--d:3s;" pathLength="3333" clip-path="url(#z30653c3)" d="M242 249L461 228"/>
<path style="--d:4s;" pathLength="3333" clip-path="url(#z30653c4)" d="M213 306L242 325L271 419"/>
<path style="--d:5s;" pathLength="3333" clip-path="url(#z30653c5)" d="M260 318L405 287L437 319L409 360"/>
<path style="--d:6s;" pathLength="3333" clip-path="url(#z30653c6)" d="M277 397L454 372"/>
<path style="--d:7s;" pathLength="3333" clip-path="url(#z30653c7)" d="M231 433L278 502"/>
<path style="--d:8s;" pathLength="3333" clip-path="url(#z30653c8)" d="M383 392L403 427L364 484"/>
<path style="--d:9s;" pathLength="3333" clip-path="url(#z30653c9)" d="M150 524L212 543L470 473"/>
<path style="--d:10s;" pathLength="3333" clip-path="url(#z30653c10)" d="M506 191L812 160"/>
<path style="--d:11s;" pathLength="3333" clip-path="url(#z30653c11)" d="M595 46L637 87L624 277"/>
<path style="--d:12s;" pathLength="3333" clip-path="url(#z30653c12)" d="M538 292L702 270L730 294L632 433L500 478"/>
<path style="--d:13s;" pathLength="3333" clip-path="url(#z30653c13)" d="M505 334L777 509L941 516"/>
<path style="--d:14s;" pathLength="3333" clip-path="url(#z30653c14)" d="M332 560L372 605L355 919"/>
<path style="--d:15s;" pathLength="3333" clip-path="url(#z30653c15)" d="M380 578L610 545L661 583L642 952"/>
<path style="--d:16s;" pathLength="3333" clip-path="url(#z30653c16)" d="M397 686L590 664"/>
<path style="--d:17s;" pathLength="3333" clip-path="url(#z30653c17)" d="M389 770L593 749"/>
<path style="--d:18s;" pathLength="3333" clip-path="url(#z30653c18)" d="M386 874L610 855"/>
</svg>