<!--
AnimCJK 2016-2026 Copyright FM-SH, https://github.com/parsimonhi/animCJK
Derived from:
    MakeMeAHanzi project - https://github.com/skishore/makemeahanzi
    Arphic PL KaitiM GB font
    Arphic PL KaitiM Big5 font
You can redistribute and/or modify this file under the terms of the Arphic Public License
as published by Arphic Technology Co., Ltd.
You should have received a copy of this license along with this file.
If not, see https://ftp.gnu.org/non-gnu/chinese-fonts-truetype/LICENSE.
-->
<svg id="z30686" class="acjk" viewBox="0 0 1024 1024" xmlns="http://www.w3.org/2000/svg">
<style>
<![CDATA[
@keyframes zk {
	to {
		stroke-dashoffset:0;
	}
}
svg.acjk path[clip-path] {
	--t:0.8s;
	animation:zk var(--t) linear forwards var(--d);
	stroke-dasharray:3337;
	stroke-dashoffset:3339;
	stroke-width:128;
	stroke-linecap:round;
	fill:none;
	stroke:#000;
}
svg.acjk path[id] {fill:#ccc;}
]]>
</style>
<path id="z30686d1" d="M537 219C615 173 666 150 690 147C702 145 706 137 705 126C703 115 684 96 643 70C631 62 617 60 603 65C552 80 490 98 415 116C396 120 363 121 315 118C300 117 294 124 300 137C303 145 312 152 325 160C344 172 363 166 387 159C517 115 589 103 598 108C604 111 610 119 606 125C584 152 561 173 525 209C521 213 533 222 537 219Z"/>
<path id="z30686d2" d="M544 257C547 241 541 223 537 219C534 215 529 212 525 209C510 199 499 196 476 189C457 184 444 194 460 210C486 237 505 255 517 261C525 266 542 266 544 257Z"/>
<path id="z30686d3" d="M533 289C634 275 698 263 729 269C764 277 739 298 707 351C695 370 703 375 728 362C765 341 800 328 830 323C850 318 877 314 857 293C846 282 826 263 797 239C784 228 769 220 753 223C685 235 578 251 544 257C526 260 526 260 517 261C485 265 302 298 171 313C148 315 143 321 157 333C179 351 202 358 226 351C314 323 392 308 460 299C509 292 509 292 533 289Z"/>
<path id="z30686d4" d="M516 302C528 330 533 364 528 404C524 432 526 436 458 422C433 416 442 424 456 436C481 458 499 478 515 496C532 515 547 501 555 487C561 478 566 466 571 451C576 430 575 403 574 370C572 336 562 306 533 289C527 285 513 295 516 302Z"/>
<path id="z30686d5" d="M460 299C401 355 352 389 261 438C187 477 248 468 276 458C398 413 454 357 516 302C569 249 520 254 460 299Z"/>
<path id="z30686d6" d="M297 538C269 518 221 506 236 535C270 603 267 708 238 811C228 842 220 869 241 900C254 919 264 919 277 898C292 874 297 840 299 785C301 677 303 607 306 577C306 564 308 546 297 538Z"/>
<path id="z30686d7" d="M306 577C324 577 435 550 683 527C722 523 726 546 729 578C737 699 736 782 731 826C730 876 694 874 653 870C633 868 632 876 653 889C690 911 713 938 734 958C764 987 778 975 791 942C801 912 806 874 804 831C797 728 791 659 791 621C791 594 795 574 804 559C812 544 813 533 807 525C799 515 781 501 750 485C738 478 710 482 666 491C546 514 423 529 297 538C284 538 293 577 306 577Z"/>
<path id="z30686d8" d="M410 595Q406 626 336 691Q320 701 340 699Q377 699 440 643Q456 628 463 622Q472 613 470 606Q467 596 448 590Q427 583 418 584Q412 585 410 595Z"/>
<path id="z30686d9" d="M585 592Q591 577 580 568Q562 555 543 551Q533 550 528 554Q524 558 531 568Q532 572 541 634Q542 650 551 659Q582 692 676 676Q703 672 711 664Q720 655 713 648Q704 639 679 629Q666 625 653 634Q617 661 583 646Q577 642 577 629Q576 607 585 592Z"/>
<path id="z30686d10" d="M414 727C404 723 356 706 372 740C383 766 395 800 404 843C406 855 410 865 418 874C434 892 439 880 441 860C441 850 440 839 439 830C433 796 429 763 429 751C429 742 423 731 414 727Z"/>
<path id="z30686d11" d="M601 805C615 775 629 758 641 750C651 741 652 728 643 721C605 689 570 686 539 698C497 713 455 720 414 727C405 729 420 753 429 751C468 742 508 736 548 729C570 724 573 740 572 749C568 769 563 788 559 805C556 819 596 818 601 805Z"/>
<path id="z30686d12" d="M441 860C463 857 503 851 621 840C644 837 626 814 601 805C588 800 573 803 559 805C514 815 474 824 439 830C429 832 431 862 441 860Z"/>
<defs>
	<clipPath id="z30686c1"><use href="#z30686d1"/></clipPath>
	<clipPath id="z30686c2"><use href="#z30686d2"/></clipPath>
	<clipPath id="z30686c3"><use href="#z30686d3"/></clipPath>
	<clipPath id="z30686c4"><use href="#z30686d4"/></clipPath>
	<clipPath id="z30686c5"><use href="#z30686d5"/></clipPath>
	<clipPath id="z30686c6"><use href="#z30686d6"/></clipPath>
	<clipPath id="z30686c7"><use href="#z30686d7"/></clipPath>
	<clipPath id="z30686c8"><use href="#z30686d8"/></clipPath>
	<clipPath id="z30686c9"><use href="#z30686d9"/></clipPath>
	<clipPath id="z30686c10"><use href="#z30686d10"/></clipPath>
	<clipPath id="z30686c11"><use href="#z30686d11"/></clipPath>
	<clipPath id="z30686c12"><use href="#z30686d12"/></clipPath>
</defs>
<path style="--d:1s;" pathLength="3333" clip-path="url(#z30686c1)" d="M302 129L368 142L617 88L650 137L530 213"/>
<path style="--d:2s;" pathLength="3333" clip-path="url(#z30686c2)" d="M460 197L539 257"/>
<path style="--d:3s;" pathLength="3333" clip-path="url(#z30686c3)" d="M161 324L738 247L785 274L810 312L706 361"/>
<path style="--d:4s;" pathLength="3333" clip-path="url(#z30686c4)" d="M524 295L550 346L542 450L517 466L453 426"/>
<path style="--d:5s;" pathLength="3333" clip-path="url(#z30686c5)" d="M533 270L373 393L234 461"/>
<path style="--d:6s;" pathLength="3333" clip-path="url(#z30686c6)" d="M240 522L280 587L261 909"/>
<path style="--d:7s;" pathLength="3333" clip-path="url(#z30686c7)" d="M295 548L704 505L761 532L760 882L737 924L647 876"/>
<path style="--d:8s;" pathLength="3333" clip-path="url(#z30686c8)" d="M419 587L433 618L338 694"/>
<path style="--d:9s;" pathLength="3333" clip-path="url(#z30686c9)" d="M534 558L561 588L569 655L711 656"/>
<path style="--d:10s;" pathLength="3333" clip-path="url(#z30686c10)" d="M374 726L403 750L426 878"/>
<path style="--d:11s;" pathLength="3333" clip-path="url(#z30686c11)" d="M418 734L589 716L610 742L574 813"/>
<path style="--d:12s;" pathLength="3333" clip-path="url(#z30686c12)" d="M439 847L627 827"/>
</svg>