<!--
AnimCJK 2016-2026 Copyright FM-SH - https://github.com/parsimonhi/animCJK
Derived from:
    MakeMeAHanzi project - https://github.com/skishore/makemeahanzi
    Arphic PL KaitiM GB font
    Arphic PL KaitiM Big5 font
You can redistribute and/or modify this file under the terms of the Arphic Public License
as published by Arphic Technology Co., Ltd.
You should have received a copy of this license along with this file.
If not, see https://ftp.gnu.org/non-gnu/chinese-fonts-truetype/LICENSE.
-->
<svg id="z30682" class="acjk" viewBox="0 0 1024 1024" xmlns="http://www.w3.org/2000/svg">
<style>
<![CDATA[
@keyframes zk {
	to {
		stroke-dashoffset:0;
	}
}
svg.acjk path[clip-path] {
	--t:0.8s;
	animation:zk var(--t) linear forwards var(--d);
	stroke-dasharray:3337;
	stroke-dashoffset:3339;
	stroke-width:128;
	stroke-linecap:round;
	fill:none;
	stroke:#000;
}
svg.acjk path[id] {fill:#ccc;}
]]>
</style>
<path id="z30682d1" d="M150 141C123 114 81 106 92 135C107 177 113 212 115 238C122 388 115 507 94 596C85 631 92 663 114 691C120 699 127 700 134 692C140 683 144 674 145 665C147 645 147 645 148 635C149 616 148 564 151 480C152 459 152 459 152 449C153 408 154 372 154 342C154 321 154 321 154 311C154 220 158 173 160 168C162 159 158 147 150 141Z"/>
<path id="z30682d2" d="M241 651C259 694 280 726 305 665C315 638 316 608 314 575C295 336 295 198 314 164C319 152 321 144 317 137C312 130 294 123 264 113C248 107 236 108 225 114C198 126 173 135 150 141C141 143 151 170 160 168C185 166 221 141 244 157C255 164 258 191 259 230C260 377 259 494 253 580C251 596 250 613 245 625C242 633 238 643 241 651Z"/>
<path id="z30682d3" d="M154 342C182 337 206 335 226 331C255 323 233 302 204 301C191 300 174 303 154 311C144 315 144 344 154 342Z"/>
<path id="z30682d4" d="M151 480C179 473 205 469 227 463C256 454 233 435 204 434C190 433 172 439 152 449C142 453 141 482 151 480Z"/>
<path id="z30682d5" d="M145 665C155 659 192 654 241 651C250 651 252 630 245 625C221 607 172 627 148 635C139 639 136 669 145 665Z"/>
<path id="z30682d6" d="M760 154C772 129 788 116 804 106C816 97 815 84 807 74C798 64 778 52 748 37C737 31 725 31 713 36C660 57 588 76 496 92C486 94 495 125 504 121C506 119 568 106 692 80C706 76 717 76 723 83C727 87 722 109 710 149C705 165 753 169 760 154Z"/>
<path id="z30682d7" d="M485 224C500 224 536 206 769 182C778 181 792 176 760 154C747 144 726 146 710 149C628 169 554 183 489 193C479 195 475 224 485 224Z"/>
<path id="z30682d8" d="M496 92C464 60 407 48 424 81C450 133 441 182 436 237C408 502 327 701 183 899C162 929 188 922 205 907C350 778 440 568 485 224C488 203 488 203 489 193C491 170 496 134 504 121C509 112 504 98 496 92Z"/>
<path id="z30682d9" d="M612 224C618 244 621 275 616 318C614 328 617 339 628 353C631 357 636 358 640 353C647 341 651 313 654 272C654 263 655 253 658 244C660 235 657 228 649 223C642 218 635 213 629 210C624 207 619 207 615 211C611 213 610 218 612 224Z"/>
<path id="z30682d10" d="M523 275C545 274 574 270 590 266C603 263 610 245 583 237C564 231 521 244 501 255C493 259 490 276 523 275Z"/>
<path id="z30682d11" d="M522 342C539 341 565 337 585 333C604 329 604 308 578 301C559 297 526 307 506 315C481 325 489 343 522 342Z"/>
<path id="z30682d12" d="M701 249C724 248 752 246 779 239C793 235 794 221 777 214C755 204 727 212 688 228C664 238 676 250 701 249Z"/>
<path id="z30682d13" d="M700 315C730 313 751 310 773 306C787 303 792 287 772 278C755 270 711 278 688 290C659 306 681 315 700 315Z"/>
<path id="z30682d14" d="M532 505Q532 504 533 504Q533 503 533 501C536 497 534 490 534 485Q534 479 533 472Q526 430 523 413C521 403 516 390 506 386Q496 382 481 381Q472 380 470 383Q466 387 472 399Q490 427 503 476Q504 486 510 494C514 501 530 513 532 505Z"/>
<path id="z30682d15" d="M771 473C773 479 776 483 782 483C788 483 803 473 816 448C827 424 837 403 855 390C863 383 865 375 858 368C849 358 833 348 810 336C802 331 777 337 734 344C703 348 646 358 506 386C496 388 513 417 523 413C537 408 554 403 577 399C590 396 590 396 596 395C617 390 642 386 673 380C689 377 689 377 697 375C747 364 778 364 790 370C792 371 793 377 791 387C782 421 775 440 772 450C769 457 768 466 771 473Z"/>
<path id="z30682d16" d="M617 470C620 443 610 416 596 395C593 389 577 393 577 399C577 431 585 455 601 472C605 476 617 475 617 470Z"/>
<path id="z30682d17" d="M686 457C714 389 739 398 697 375C690 371 671 372 673 380C680 407 674 420 665 461C664 468 683 464 686 457Z"/>
<path id="z30682d18" d="M533 501C541 503 551 504 565 502C643 489 712 479 771 473C779 471 779 454 772 450C760 438 726 449 686 457C672 460 672 460 665 461C648 464 632 468 617 470C606 471 606 471 601 472C570 475 543 479 534 485C529 488 528 500 533 501Z"/>
<path id="z30682d19" d="M532 549C550 530 548 524 532 505C527 499 518 491 510 494C505 494 502 498 504 505C508 520 489 553 438 604C430 611 419 623 447 612C466 605 487 593 519 562C528 553 528 553 532 549Z"/>
<path id="z30682d20" d="M580 573C649 566 737 548 816 543C826 543 833 545 835 549C843 565 847 617 844 707C841 777 828 830 812 868C804 883 796 893 786 897C778 899 757 895 721 885C706 879 690 878 709 896C736 921 756 945 768 965C775 977 781 982 790 982C814 979 839 956 862 909C883 863 898 763 909 609C910 591 914 575 925 564C933 554 937 548 937 543C936 538 929 532 917 523C900 510 880 497 857 495C818 491 775 506 738 515C672 530 603 541 532 549C526 550 515 558 519 562C521 566 532 570 546 573C557 575 568 574 580 573Z"/>
<path id="z30682d21" d="M468 635C447 627 412 618 429 648C441 668 454 696 465 731C468 741 472 750 479 757C491 769 497 761 498 747C498 738 496 729 494 721C487 699 481 667 480 657C478 649 476 638 468 635Z"/>
<path id="z30682d22" d="M695 695C707 665 721 648 734 640C742 633 742 622 736 616C707 588 675 584 643 597C629 602 615 606 602 610C573 617 573 617 559 621C529 628 498 630 468 635C460 637 472 660 480 657C496 651 522 648 559 641C586 636 586 636 600 633C641 624 664 619 672 626C674 628 676 633 675 641C671 657 666 673 662 687C658 698 691 706 695 695Z"/>
<path id="z30682d23" d="M596 733C624 729 660 725 702 720C724 717 703 700 695 695C686 688 673 685 662 687C649 690 634 693 597 702C597 702 572 707 560 710C538 714 494 721 494 721C485 722 489 747 498 747C519 747 539 740 560 738C584 735 584 735 596 733Z"/>
<path id="z30682d24" d="M593 801C593 776 595 753 596 733C597 712 597 712 597 702C597 677 598 654 600 633C601 618 601 618 602 610C603 590 608 587 580 573C570 567 542 562 546 573C546 579 559 588 559 621C559 634 559 634 559 641C559 655 560 678 560 710C560 729 560 729 560 738C560 785 560 785 560 808C560 819 593 812 593 801Z"/>
<path id="z30682d25" d="M674 784C647 788 620 795 593 801C571 806 571 806 560 808C513 817 469 828 421 825C405 823 403 841 412 850C422 860 435 871 453 882C457 884 463 883 470 879C509 855 651 814 684 801C690 799 680 783 674 784Z"/>
<path id="z30682d26" d="M684 801C692 815 701 830 710 846C713 852 725 868 738 855C742 850 744 841 745 827C745 809 724 780 677 747C662 736 659 743 659 751C658 753 658 757 674 784C681 795 681 795 684 801Z"/>
<defs>
	<clipPath id="z30682c1"><use href="#z30682d1"/></clipPath>
	<clipPath id="z30682c2"><use href="#z30682d2"/></clipPath>
	<clipPath id="z30682c3"><use href="#z30682d3"/></clipPath>
	<clipPath id="z30682c4"><use href="#z30682d4"/></clipPath>
	<clipPath id="z30682c5"><use href="#z30682d5"/></clipPath>
	<clipPath id="z30682c6"><use href="#z30682d6"/></clipPath>
	<clipPath id="z30682c7"><use href="#z30682d7"/></clipPath>
	<clipPath id="z30682c8"><use href="#z30682d8"/></clipPath>
	<clipPath id="z30682c9"><use href="#z30682d9"/></clipPath>
	<clipPath id="z30682c10"><use href="#z30682d10"/></clipPath>
	<clipPath id="z30682c11"><use href="#z30682d11"/></clipPath>
	<clipPath id="z30682c12"><use href="#z30682d12"/></clipPath>
	<clipPath id="z30682c13"><use href="#z30682d13"/></clipPath>
	<clipPath id="z30682c14"><use href="#z30682d14"/></clipPath>
	<clipPath id="z30682c15"><use href="#z30682d15"/></clipPath>
	<clipPath id="z30682c16"><use href="#z30682d16"/></clipPath>
	<clipPath id="z30682c17"><use href="#z30682d17"/></clipPath>
	<clipPath id="z30682c18"><use href="#z30682d18"/></clipPath>
	<clipPath id="z30682c19"><use href="#z30682d19"/></clipPath>
	<clipPath id="z30682c20"><use href="#z30682d20"/></clipPath>
	<clipPath id="z30682c21"><use href="#z30682d21"/></clipPath>
	<clipPath id="z30682c22"><use href="#z30682d22"/></clipPath>
	<clipPath id="z30682c23"><use href="#z30682d23"/></clipPath>
	<clipPath id="z30682c24"><use href="#z30682d24"/></clipPath>
	<clipPath id="z30682c25"><use href="#z30682d25"/></clipPath>
	<clipPath id="z30682c26"><use href="#z30682d26"/></clipPath>
</defs>
<path style="--d:1s;" pathLength="3333" clip-path="url(#z30682c1)" d="M98 126L133 176L128 693"/>
<path style="--d:2s;" pathLength="3333" clip-path="url(#z30682c2)" d="M151 151L232 130L283 150L271 694"/>
<path style="--d:3s;" pathLength="3333" clip-path="url(#z30682c3)" d="M148 330L235 318"/>
<path style="--d:4s;" pathLength="3333" clip-path="url(#z30682c4)" d="M148 470L234 452"/>
<path style="--d:5s;" pathLength="3333" clip-path="url(#z30682c5)" d="M143 658L245 634"/>
<path style="--d:6s;" pathLength="3333" clip-path="url(#z30682c6)" d="M494 104L730 58L768 90L721 159"/>
<path style="--d:7s;" pathLength="3333" clip-path="url(#z30682c7)" d="M481 214L775 171"/>
<path style="--d:8s;" pathLength="3333" clip-path="url(#z30682c8)" d="M428 71L472 124L402 521L328 708L185 913"/>
<path style="--d:9s;" pathLength="3333" clip-path="url(#z30682c9)" d="M621 213L633 349"/>
<path style="--d:10s;" pathLength="3333" clip-path="url(#z30682c10)" d="M500 263L595 252"/>
<path style="--d:11s;" pathLength="3333" clip-path="url(#z30682c11)" d="M497 328L594 315"/>
<path style="--d:12s;" pathLength="3333" clip-path="url(#z30682c12)" d="M679 239L785 224"/>
<path style="--d:13s;" pathLength="3333" clip-path="url(#z30682c13)" d="M679 302L781 294"/>
<path style="--d:14s;" pathLength="3333" clip-path="url(#z30682c14)" d="M474 387L502 412L523 502"/>
<path style="--d:15s;" pathLength="3333" clip-path="url(#z30682c15)" d="M513 394L798 352L826 383L778 476"/>
<path style="--d:16s;" pathLength="3333" clip-path="url(#z30682c16)" d="M587 397L610 470"/>
<path style="--d:17s;" pathLength="3333" clip-path="url(#z30682c17)" d="M685 378L696 406L672 458"/>
<path style="--d:18s;" pathLength="3333" clip-path="url(#z30682c18)" d="M532 493L773 464"/>
<path style="--d:19s;" pathLength="3333" clip-path="url(#z30682c19)" d="M512 500L517 538L438 612"/>
<path style="--d:20s;" pathLength="3333" clip-path="url(#z30682c20)" d="M526 560L821 519L882 545L840 882L785 939L708 886"/>
<path style="--d:21s;" pathLength="3333" clip-path="url(#z30682c21)" d="M432 634L458 657L485 755"/>
<path style="--d:22s;" pathLength="3333" clip-path="url(#z30682c22)" d="M473 644L686 609L707 635L670 695"/>
<path style="--d:23s;" pathLength="3333" clip-path="url(#z30682c23)" d="M492 734L705 714"/>
<path style="--d:24s;" pathLength="3333" clip-path="url(#z30682c24)" d="M554 574L580 601L571 810"/>
<path style="--d:25s;" pathLength="3333" clip-path="url(#z30682c25)" d="M413 836L463 853L679 793"/>
<path style="--d:26s;" pathLength="3333" clip-path="url(#z30682c26)" d="M666 748L730 855"/>
</svg>