<!--
AnimCJK 2016-2017 Copyright Francois Mizessyn, http://gooo.free.fr/animCJK/
Derived from:
    MakeMeAHanzi project - https://github.com/skishore/makemeahanzi
    Arphic PL KaitiM GB - https://apps.ubuntu.com/cat/applications/precise/fonts-arphic-gkai00mp/
    Arphic PL UKai - https://apps.ubuntu.com/cat/applications/fonts-arphic-ukai/
You can redistribute and/or modify this file under the terms of the Arphic Public License
as published by Arphic Technology Co., Ltd.
You should have received a copy of this license (the directory "APL") along with this file;
if not, see http://ftp.gnu.org/non-gnu/chinese-fonts-truetype/LICENSE.
-->
<svg id="z30693" class="acjk" version="1.1" viewBox="0 0 1024 1024" xmlns="http://www.w3.org/2000/svg" xmlns:xlink="http://www.w3.org/1999/xlink">
<style>
<![CDATA[
	@keyframes z30693k {
		from {
			stroke:#c00;
			stroke-dashoffset:3000;
		}
		75% {
			stroke:#c00;
			stroke-dashoffset:0;
		}
		to {
			stroke:#000;
		}
	}
	#z30693 path[clip-path] {
		animation:z30693k 1s linear both;
		stroke-dasharray:3000;
		stroke-width:128;
		stroke-linecap:round;
		fill:none;
	}
	#z30693 path[clip-path="url(#z30693c1)"] {animation-delay:1s;}
	#z30693 path[clip-path="url(#z30693c2)"] {animation-delay:2s;}
	#z30693 path[clip-path="url(#z30693c3)"] {animation-delay:3s;}
	#z30693 path[clip-path="url(#z30693c4)"] {animation-delay:4s;}
	#z30693 path[clip-path="url(#z30693c5)"] {animation-delay:5s;}
	#z30693 path[clip-path="url(#z30693c6)"] {animation-delay:6s;}
	#z30693 path[clip-path="url(#z30693c7)"] {animation-delay:7s;}
	#z30693 path[clip-path="url(#z30693c8)"] {animation-delay:8s;}
	#z30693 path {fill:#ccc;}
]]>
</style>
<g transform="scale(1,-1) translate(0,-900)">
	<path id="z30693d1" d="M271 565Q304 608 327 654Q354 709 380 754Q390 767 373 782Q327 815 299 809Q287 805 291 790Q312 679 194 529Q188 526 144 469Q137 453 152 458Q188 468 259 549L271 565Z"/>
	<path id="z30693d2" d="M373 537Q535 579 540 583Q549 592 544 600Q537 612 506 618Q475 622 444 609Q410 596 370 584Q327 574 276 566Q273 566 271 565L259 549Q278 530 326 529L373 537Z"/>
	<path id="z30693d3" d="M387 342Q454 358 535 369Q553 370 554 379Q555 392 536 403Q500 418 395 388L338 376Q191 345 98 334Q85 333 81 324Q77 312 94 300Q139 270 181 285Q268 315 329 329L387 342Z"/>
	<path id="z30693d4" d="M329 329Q293 152 119 41Q106 31 119 28Q134 28 169 43Q224 68 264 108Q310 148 333 193Q343 214 353 233Q377 284 387 342L395 388Q407 460 421 486Q430 505 413 514Q398 524 373 537L326 529Q326 526 329 520Q350 484 338 376L329 329Z"/>
	<path id="z30693d5" d="M410 240Q447 197 492 135Q505 113 520 107Q529 106 537 114Q550 126 543 170Q537 212 476 242Q436 261 414 271Q407 277 403 265Q402 252 410 240Z"/>
	<path id="z30693d6" d="M601 466Q591 472 564 478Q551 482 547 477Q540 470 548 453Q582 362 596 218Q597 175 620 145Q636 121 643 137Q652 159 649 197L645 235Q623 392 619 434L601 466Z"/>
	<path id="z30693d7" d="M848 260Q869 398 912 442Q930 463 913 481Q826 541 775 510Q706 485 601 466L619 434Q635 434 656 440Q798 467 805 460Q821 447 819 419Q810 335 796 267L848 260Z"/>
	<path id="z30693d8" d="M649 197Q658 196 670 198Q731 211 862 221Q874 222 876 233Q876 242 848 260L796 267Q792 268 788 266Q709 245 645 235L649 197Z"/>
	<defs>
		<clipPath id="z30693c1"><use xlink:href="#z30693d1"/></clipPath>
		<clipPath id="z30693c2"><use xlink:href="#z30693d2"/></clipPath>
		<clipPath id="z30693c3"><use xlink:href="#z30693d3"/></clipPath>
		<clipPath id="z30693c4"><use xlink:href="#z30693d4"/></clipPath>
		<clipPath id="z30693c5"><use xlink:href="#z30693d5"/></clipPath>
		<clipPath id="z30693c6"><use xlink:href="#z30693d6"/></clipPath>
		<clipPath id="z30693c7"><use xlink:href="#z30693d7"/></clipPath>
		<clipPath id="z30693c8"><use xlink:href="#z30693d8"/></clipPath>
	</defs>
	<path pathLength="2999" clip-path="url(#z30693c1)" d="M297 804L338 755L312 684L230 545L148 466"/>
	<path pathLength="2999" clip-path="url(#z30693c2)" d="M265 551L540 591"/>
	<path pathLength="2999" clip-path="url(#z30693c3)" d="M84 320L149 310L546 388"/>
	<path pathLength="2999" clip-path="url(#z30693c4)" d="M333 527L382 489L337 261L249 123L121 35"/>
	<path pathLength="2999" clip-path="url(#z30693c5)" d="M411 260L497 187L526 113"/>
	<path pathLength="2999" clip-path="url(#z30693c6)" d="M551 471L592 416L634 137"/>
	<path pathLength="2999" clip-path="url(#z30693c7)" d="M611 463L811 490L864 460L829 263"/>
	<path pathLength="2999" clip-path="url(#z30693c8)" d="M652 229L870 234"/>
</g>
</svg>