<!--
AnimCJK 2016-2017 Copyright Francois Mizessyn, http://gooo.free.fr/animCJK/
Derived from:
    MakeMeAHanzi project - https://github.com/skishore/makemeahanzi
    Arphic PL KaitiM GB - https://apps.ubuntu.com/cat/applications/precise/fonts-arphic-gkai00mp/
    Arphic PL UKai - https://apps.ubuntu.com/cat/applications/fonts-arphic-ukai/
You can redistribute and/or modify this file under the terms of the Arphic Public License
as published by Arphic Technology Co., Ltd.
You should have received a copy of this license (the directory "APL") along with this file;
if not, see http://ftp.gnu.org/non-gnu/chinese-fonts-truetype/LICENSE.
-->
<svg id="z30772" class="acjk" version="1.1" viewBox="0 0 1024 1024" xmlns="http://www.w3.org/2000/svg" xmlns:xlink="http://www.w3.org/1999/xlink">
<style>
<![CDATA[
	@keyframes z30772k {
		from {
			stroke:#c00;
			stroke-dashoffset:3000;
		}
		75% {
			stroke:#c00;
			stroke-dashoffset:0;
		}
		to {
			stroke:#000;
		}
	}
	#z30772 path[clip-path] {
		animation:z30772k 1s linear both;
		stroke-dasharray:3000;
		stroke-width:128;
		stroke-linecap:round;
		fill:none;
	}
	#z30772 path[clip-path="url(#z30772c1)"] {animation-delay:1s;}
	#z30772 path[clip-path="url(#z30772c2)"] {animation-delay:2s;}
	#z30772 path[clip-path="url(#z30772c3)"] {animation-delay:3s;}
	#z30772 path[clip-path="url(#z30772c4)"] {animation-delay:4s;}
	#z30772 path[clip-path="url(#z30772c5)"] {animation-delay:5s;}
	#z30772 path[clip-path="url(#z30772c6)"] {animation-delay:6s;}
	#z30772 path[clip-path="url(#z30772c7)"] {animation-delay:7s;}
	#z30772 path[clip-path="url(#z30772c8)"] {animation-delay:8s;}
	#z30772 path[clip-path="url(#z30772c9)"] {animation-delay:9s;}
	#z30772 path[clip-path="url(#z30772c10)"] {animation-delay:10s;}
	#z30772 path {fill:#ccc;}
]]>
</style>
<g transform="scale(1,-1) translate(0,-900)">
	<path id="z30772d1" d="M289 597Q422 630 428 635Q437 644 432 652Q423 664 394 670Q363 674 332 662Q295 647 255 636Q209 626 156 618Q119 611 147 595Q183 577 236 584L289 597Z"/>
	<path id="z30772d2" d="M240 393Q268 450 302 538Q317 571 316 575Q309 590 289 597L236 584Q254 524 194 392L171 347Q134 283 51 175Q44 168 54 168Q99 183 187 298L240 393Z"/>
	<path id="z30772d3" d="M194 392Q185 395 173 397Q163 400 159 395Q152 389 161 374Q165 362 171 347L187 298Q197 259 205 210Q208 179 225 159Q241 138 246 153Q253 172 248 207L243 238Q227 332 225 361L194 392Z"/>
	<path id="z30772d4" d="M374 261Q390 345 412 371Q433 396 410 408Q391 418 366 434Q345 444 307 417Q271 404 240 393L223 362L225 361Q240 365 309 384Q333 391 339 381Q346 375 341 340Q335 306 328 267L374 261Z"/>
	<path id="z30772d5" d="M248 207Q255 206 265 209Q302 221 384 235Q394 236 394 245Q394 252 374 261L328 267Q324 266 320 264Q277 248 243 238L248 207Z"/>
	<path id="z30772d6" d="M504 579Q470 595 459 593Q440 589 455 569Q489 506 463 311Q454 259 428 196Q398 126 319 53Q306 41 303 35Q302 28 312 29Q349 29 415 101Q488 180 509 313Q522 395 526 516Q527 535 530 544L504 579Z"/>
	<path id="z30772d7" d="M675 585Q721 598 769 609Q803 615 805 600Q806 588 787 539Q780 524 787 521Q794 517 806 530Q872 581 899 591Q920 597 918 609Q917 622 844 654Q822 663 797 655Q731 634 677 618L627 606Q572 594 504 579L530 544Q545 551 627 572L675 585Z"/>
	<path id="z30772d8" d="M665 421Q669 506 675 585L677 618Q678 705 699 790Q703 800 682 816Q646 835 622 839Q606 843 598 834Q591 827 599 811Q623 777 623 753Q626 683 627 606L627 572Q627 496 623 411L665 421Z"/>
	<path id="z30772d9" d="M713 195Q747 259 779 355Q789 383 808 401Q826 417 813 429Q800 439 770 449Q748 456 722 442Q697 432 665 421L623 411Q539 396 538 393Q534 386 551 379Q585 366 631 381Q694 403 705 402Q729 401 723 374Q707 289 677 229L655 191Q589 98 459 55Q446 51 458 44Q464 38 505 41Q604 53 685 152L713 195Z"/>
	<path id="z30772d10" d="M685 152Q737 88 786 33Q802 14 829 14Q970 26 982 38Q986 45 975 49Q810 112 747 166Q731 181 713 195L677 229Q632 272 581 330Q569 346 552 348Q530 348 525 341Q522 337 529 332Q565 313 587 279Q621 233 655 191L685 152Z"/>
	<defs>
		<clipPath id="z30772c1"><use xlink:href="#z30772d1"/></clipPath>
		<clipPath id="z30772c2"><use xlink:href="#z30772d2"/></clipPath>
		<clipPath id="z30772c3"><use xlink:href="#z30772d3"/></clipPath>
		<clipPath id="z30772c4"><use xlink:href="#z30772d4"/></clipPath>
		<clipPath id="z30772c5"><use xlink:href="#z30772d5"/></clipPath>
		<clipPath id="z30772c6"><use xlink:href="#z30772d6"/></clipPath>
		<clipPath id="z30772c7"><use xlink:href="#z30772d7"/></clipPath>
		<clipPath id="z30772c8"><use xlink:href="#z30772d8"/></clipPath>
		<clipPath id="z30772c9"><use xlink:href="#z30772d9"/></clipPath>
		<clipPath id="z30772c10"><use xlink:href="#z30772d10"/></clipPath>
	</defs>
	<path pathLength="2999" clip-path="url(#z30772c1)" d="M143 609L428 649"/>
	<path pathLength="2999" clip-path="url(#z30772c2)" d="M242 580L277 554L221 401L57 174"/>
	<path pathLength="2999" clip-path="url(#z30772c3)" d="M164 388L199 349L235 152"/>
	<path pathLength="2999" clip-path="url(#z30772c4)" d="M232 369L329 409L376 391L341 266"/>
	<path pathLength="2999" clip-path="url(#z30772c5)" d="M254 214L328 246L387 243"/>
	<path pathLength="2999" clip-path="url(#z30772c6)" d="M454 585L499 529L474 258L411 127L312 35"/>
	<path pathLength="2999" clip-path="url(#z30772c7)" d="M513 575L821 631L863 599L792 527"/>
	<path pathLength="2999" clip-path="url(#z30772c8)" d="M602 830L660 782L634 415"/>
	<path pathLength="2999" clip-path="url(#z30772c9)" d="M543 391L735 424L770 399L648 145L567 81L459 48"/>
	<path pathLength="2999" clip-path="url(#z30772c10)" d="M533 339L822 63L975 45"/>
</g>
</svg>