<!--
AnimCJK 2016-2018 Copyright Francois Mizessyn, https://github.com/parsimonhi/animCJK
Derived from:
    MakeMeAHanzi project - https://github.com/skishore/makemeahanzi
    Arphic PL KaitiM GB - https://apps.ubuntu.com/cat/applications/precise/fonts-arphic-gkai00mp/
    Arphic PL UKai - https://apps.ubuntu.com/cat/applications/fonts-arphic-ukai/
You can redistribute and/or modify this file under the terms of the Arphic Public License
as published by Arphic Technology Co., Ltd.
You should have received a copy of this license (the directory "APL") along with this file;
if not, see http://ftp.gnu.org/non-gnu/chinese-fonts-truetype/LICENSE.
-->
<svg id="z30977" class="acjk" version="1.1" viewBox="0 0 1024 1024" xmlns="http://www.w3.org/2000/svg" xmlns:xlink="http://www.w3.org/1999/xlink">
<style>
<![CDATA[
@keyframes z30977k {
	from {
		stroke:#c00;
		stroke-dashoffset:3334;
	}
	75% {
		stroke:#c00;
		stroke-dashoffset:0;
	}
	to {
		stroke:#000;
	}
}
#z30977 path[clip-path] {
	animation:z30977k 1s linear both;
	stroke-dasharray:3334;
	stroke-width:128;
	stroke-linecap:round;
	fill:none;
}
#z30977 path[clip-path="url(#z30977c1)"] {animation-delay:1s;}
#z30977 path[clip-path="url(#z30977c2)"] {animation-delay:2s;}
#z30977 path[clip-path="url(#z30977c3)"] {animation-delay:3s;}
#z30977 path[clip-path="url(#z30977c4)"] {animation-delay:4s;}
#z30977 path[clip-path="url(#z30977c5)"] {animation-delay:5s;}
#z30977 path[clip-path="url(#z30977c6)"] {animation-delay:6s;}
#z30977 path[clip-path="url(#z30977c7)"] {animation-delay:7s;}
#z30977 path[clip-path="url(#z30977c8)"] {animation-delay:8s;}
#z30977 path[clip-path="url(#z30977c9)"] {animation-delay:9s;}
#z30977 path[clip-path="url(#z30977c10)"] {animation-delay:10s;}
#z30977 path[clip-path="url(#z30977c11)"] {animation-delay:11s;}
#z30977 path[clip-path="url(#z30977c12)"] {animation-delay:12s;}
#z30977 path[clip-path="url(#z30977c13)"] {animation-delay:13s;}
#z30977 path[clip-path="url(#z30977c14)"] {animation-delay:14s;}
#z30977 path[clip-path="url(#z30977c15)"] {animation-delay:15s;}
#z30977 path[clip-path="url(#z30977c16)"] {animation-delay:16s;}
#z30977 path[clip-path="url(#z30977c17)"] {animation-delay:17s;}
#z30977 path {fill:#ccc;}
]]>
</style>
<path id="z30977d1" d="M242 271Q303 252 372 234Q405 224 409 219Q416 212 412 203Q405 193 375 187Q356 184 253 222Q163 243 146 247Q112 256 138 270Q168 283 203 281L242 271 Z"/>
<path id="z30977d2" d="M212 473Q237 418 271 331Q283 298 283 295Q280 288 267 279Q254 272 242 271L203 281Q210 299 211 323Q202 392 169 469L154 501Q88 606 43 666Q37 672 46 672Q91 657 170 547L212 473 Z"/>
<path id="z30977d3" d="M169 469Q168 468 163 467Q153 464 149 469Q143 473 150 489Q151 493 154 501L170 547Q183 593 191 657Q192 688 210 709Q225 730 230 715Q237 693 232 649L227 620Q212 527 211 501L169 469 Z"/>
<path id="z30977d4" d="M352 590Q364 517 385 492Q404 467 382 455Q363 445 337 430Q319 421 302 433Q283 448 257 457Q236 464 212 473L200 494L211 501Q220 500 233 496Q264 487 290 481Q308 477 312 484Q319 490 314 524Q310 557 304 594L352 590 Z"/>
<path id="z30977d5" d="M232 649Q239 648 245 646Q284 634 368 619Q378 618 378 610Q377 603 352 590L304 594Q258 609 227 620L232 649 Z"/>
<path id="z30977d6" d="M479 316Q516 271 560 205Q579 172 596 157Q603 147 600 136Q596 124 571 104Q547 88 531 88Q515 89 522 109Q540 148 461 273Q424 330 374 393Q365 402 363 407Q360 417 372 415Q393 412 456 343L479 316 Z"/>
<path id="z30977d7" d="M517 626Q518 619 518 613Q517 432 521 391Q528 367 519 358Q503 340 492 328Q486 321 479 316L456 343Q496 412 460 601Q439 628 471 684Q474 693 480 698Q496 711 506 688Q513 666 516 640L517 626 Z"/>
<path id="z30977d8" d="M667 136Q691 161 715 189Q728 202 744 204Q754 204 761 191Q767 176 760 146Q754 118 666 88Q650 84 644 85Q638 89 639 102Q642 112 667 136 Z"/>
<path id="z30977d9" d="M691 306Q832 270 835 268Q842 261 839 254Q832 244 807 238Q782 234 756 244Q719 257 679 268Q636 278 583 284Q552 290 574 304Q605 322 652 314L691 306 Z"/>
<path id="z30977d10" d="M709 593Q710 551 712 514L713 477Q714 443 716 411L718 374Q721 332 717 327Q704 314 691 306L652 314Q664 347 665 391L666 423Q666 450 666 490L667 522Q667 556 667 601L709 593 Z"/>
<path id="z30977d11" d="M716 411Q758 401 797 394Q818 390 809 379Q799 366 777 363Q755 362 719 373Q718 373 718 374L665 391Q616 404 574 416Q559 420 578 433Q588 440 611 435Q636 428 666 423L716 411 Z"/>
<path id="z30977d12" d="M712 514Q758 504 800 498Q821 494 813 483Q803 470 781 466Q757 463 713 477L666 490Q617 502 574 513Q559 516 578 529Q588 536 611 533Q639 527 667 522L712 514 Z"/>
<path id="z30977d13" d="M667 601Q519 623 517 626L516 640Q547 664 575 656Q693 620 870 620Q888 620 892 612Q896 602 882 592Q834 561 779 577Q749 583 709 593L667 601 Z"/>
<path id="z30977d14" d="M428 731Q400 785 365 832Q343 862 358 895Q364 913 385 902Q436 871 448 788Q455 757 450 733Q446 724 441 723Q432 724 428 731 Z"/>
<path id="z30977d15" d="M536 764Q570 846 589 853Q601 859 613 843Q617 833 616 810Q612 791 592 776Q562 748 548 740Q541 736 536 746Q532 753 536 764 Z"/>
<path id="z30977d16" d="M656 747Q707 828 729 832Q742 835 751 819Q754 806 748 786Q741 767 717 753Q680 728 664 722Q655 719 653 730Q650 737 656 747 Z"/>
<path id="z30977d17" d="M794 723Q840 774 894 846Q907 867 921 872Q928 875 937 866Q950 854 942 812Q935 758 798 693Q789 687 787 699Q786 712 794 723 Z"/>
<defs>
	<clipPath id="z30977c1"><use xlink:href="#z30977d1"/></clipPath>
	<clipPath id="z30977c2"><use xlink:href="#z30977d2"/></clipPath>
	<clipPath id="z30977c3"><use xlink:href="#z30977d3"/></clipPath>
	<clipPath id="z30977c4"><use xlink:href="#z30977d4"/></clipPath>
	<clipPath id="z30977c5"><use xlink:href="#z30977d5"/></clipPath>
	<clipPath id="z30977c6"><use xlink:href="#z30977d6"/></clipPath>
	<clipPath id="z30977c7"><use xlink:href="#z30977d7"/></clipPath>
	<clipPath id="z30977c8"><use xlink:href="#z30977d8"/></clipPath>
	<clipPath id="z30977c9"><use xlink:href="#z30977d9"/></clipPath>
	<clipPath id="z30977c10"><use xlink:href="#z30977d10"/></clipPath>
	<clipPath id="z30977c11"><use xlink:href="#z30977d11"/></clipPath>
	<clipPath id="z30977c12"><use xlink:href="#z30977d12"/></clipPath>
	<clipPath id="z30977c13"><use xlink:href="#z30977d13"/></clipPath>
	<clipPath id="z30977c14"><use xlink:href="#z30977d14"/></clipPath>
	<clipPath id="z30977c15"><use xlink:href="#z30977d15"/></clipPath>
	<clipPath id="z30977c16"><use xlink:href="#z30977d16"/></clipPath>
	<clipPath id="z30977c17"><use xlink:href="#z30977d17"/></clipPath>
</defs>
<path pathLength="3333" clip-path="url(#z30977c1)" d="M134 258L405 202"/>
<path pathLength="3333" clip-path="url(#z30977c2)" d="M210 285L246 313L195 460L48 665"/>
<path pathLength="3333" clip-path="url(#z30977c3)" d="M154 470L187 516L223 715"/>
<path pathLength="3333" clip-path="url(#z30977c4)" d="M207 492L317 454L349 472L315 590"/>
<path pathLength="3333" clip-path="url(#z30977c5)" d="M239 640L370 610"/>
<path pathLength="3333" clip-path="url(#z30977c6)" d="M527 92L561 148L480 282L369 406"/>
<path pathLength="3333" clip-path="url(#z30977c7)" d="M478 324L498 435L485 698"/>
<path pathLength="3333" clip-path="url(#z30977c8)" d="M646 94L754 194"/>
<path pathLength="3333" clip-path="url(#z30977c9)" d="M572 294L835 259"/>
<path pathLength="3333" clip-path="url(#z30977c10)" d="M659 320L691 345L686 597"/>
<path pathLength="3333" clip-path="url(#z30977c11)" d="M577 422L804 378"/>
<path pathLength="3333" clip-path="url(#z30977c12)" d="M574 519L808 485"/>
<path pathLength="3333" clip-path="url(#z30977c13)" d="M523 635L795 597L886 606"/>
<path pathLength="3333" clip-path="url(#z30977c14)" d="M441 726L365 900"/>
<path pathLength="3333" clip-path="url(#z30977c15)" d="M543 744L598 850"/>
<path pathLength="3333" clip-path="url(#z30977c16)" d="M659 730L739 828"/>
<path pathLength="3333" clip-path="url(#z30977c17)" d="M795 702L883 778L934 867"/>
</svg>