<!--
AnimCJK 2016-2026 Copyright FM-SH - https://github.com/parsimonhi/animCJK
Derived from:
    MakeMeAHanzi project - https://github.com/skishore/makemeahanzi
    Arphic PL KaitiM GB font
    Arphic PL KaitiM Big5 font
You can redistribute and/or modify this file under the terms of the Arphic Public License
as published by Arphic Technology Co., Ltd.
You should have received a copy of this license along with this file.
If not, see https://ftp.gnu.org/non-gnu/chinese-fonts-truetype/LICENSE.
-->
<svg id="z31001" class="acjk" viewBox="0 0 1024 1024" xmlns="http://www.w3.org/2000/svg">
<style>
<![CDATA[
@keyframes zk {
	to {
		stroke-dashoffset:0;
	}
}
svg.acjk path[clip-path] {
	--t:0.8s;
	animation:zk var(--t) linear forwards var(--d);
	stroke-dasharray:3337;
	stroke-dashoffset:3339;
	stroke-width:128;
	stroke-linecap:round;
	fill:none;
	stroke:#000;
}
svg.acjk path[id] {fill:#ccc;}
]]>
</style>
<path id="z31001d1" d="M240 258Q369 219 373 216Q380 209 375 202Q368 192 343 188Q318 185 292 197Q262 210 229 221Q192 231 149 239Q118 246 142 260Q161 269 199 269C213 269 226 261 240 258Z"/>
<path id="z31001d2" d="M203 451C224 410 240 376 265 318C273 297 278 286 278 284C275 271 261 263 240 258C226 255 195 256 199 269C203 279 206 292 205 308C200 350 186 397 160 447C153 459 146 471 140 484C109 540 68 587 31 634C27 637 27 640 34 640C58 637 107 591 153 531C164 515 171 501 184 484C189 475 198 459 203 451Z"/>
<path id="z31001d3" d="M165 608C166 627 171 645 183 662C191 674 198 676 202 668C206 656 208 638 205 617C202 598 202 598 201 588C194 539 186 502 184 484C181 470 173 455 160 447C147 440 134 434 130 444C124 456 135 471 140 484C146 499 149 515 153 531C158 559 163 591 165 608Z"/>
<path id="z31001d4" d="M314 561C320 516 331 488 343 474C354 460 353 447 341 442C306 425 287 418 285 419C281 419 277 421 273 424C252 435 238 442 203 451C185 455 171 450 160 447C146 442 170 489 184 484C206 477 234 471 255 465C287 454 286 474 283 499C279 517 277 538 274 560C272 573 311 574 314 561Z"/>
<path id="z31001d5" d="M205 617C231 607 271 597 326 585C348 579 321 564 314 561C302 556 286 555 274 560C262 564 246 572 201 588C192 592 196 621 205 617Z"/>
<path id="z31001d6" d="M430 273C477 250 542 219 565 213C590 205 569 182 552 167C530 148 518 153 519 164C519 177 489 208 430 254C425 258 424 276 430 273Z"/>
<path id="z31001d7" d="M430 254C430 223 436 188 444 151C446 140 444 133 438 128C430 121 421 115 409 110C406 109 381 101 390 128C397 149 399 170 398 191C391 288 399 344 420 366C447 394 533 408 609 361C617 355 618 345 612 334C607 326 597 312 590 288C586 277 583 266 578 284C569 311 558 328 552 336C548 340 540 345 529 348C501 354 476 351 456 341C447 336 441 331 439 326C432 312 430 294 430 273C430 260 430 260 430 254Z"/>
<path id="z31001d8" d="M410 496C417 485 434 456 445 436C448 429 445 420 438 416C417 403 400 398 389 401C384 402 383 407 385 414C393 443 380 488 345 547C335 562 341 564 355 556C368 548 377 540 394 518C405 503 405 503 410 496Z"/>
<path id="z31001d9" d="M452 525C458 522 487 514 541 502C582 492 565 473 533 468C519 465 482 475 453 485C439 489 422 492 410 496C402 499 386 515 394 518C398 520 405 523 415 525C427 527 441 530 452 525Z"/>
<path id="z31001d10" d="M459 649C469 646 500 637 553 630C563 628 582 615 549 604C527 596 499 600 467 611C435 621 435 621 419 626C393 633 348 641 286 654C271 656 270 663 282 672C298 683 307 683 329 681C347 678 380 667 412 660C443 653 443 653 459 649Z"/>
<path id="z31001d11" d="M412 660C400 713 354 761 298 805C282 818 276 830 305 820C348 804 432 772 459 649C464 624 464 624 467 611C470 592 475 576 484 562C494 543 470 533 452 525C441 520 410 514 415 525C418 538 437 534 419 626C414 649 414 649 412 660Z"/>
<path id="z31001d12" d="M478 709C502 738 518 754 526 755C528 755 545 756 539 717C536 704 516 690 479 676C467 671 459 671 460 685C460 689 467 696 478 709Z"/>
<path id="z31001d13" d="M742 338C802 284 842 252 864 245C875 240 878 234 875 225C871 216 852 201 813 181C802 175 790 175 778 181C749 193 715 207 674 222C663 225 644 228 617 229C604 229 599 236 605 247C608 254 617 261 629 267C647 276 666 273 685 262C734 229 766 216 779 222C786 225 789 232 785 240C767 267 746 296 726 329C723 334 737 342 742 338Z"/>
<path id="z31001d14" d="M726 329C694 311 672 306 664 310C661 310 660 314 661 321C661 325 668 333 681 344C697 358 713 373 731 391C737 397 743 400 751 400C755 399 760 397 762 391C764 379 768 352 742 338C731 332 731 332 726 329Z"/>
<path id="z31001d15" d="M730 457C758 448 786 440 816 433C832 428 843 429 845 437C846 444 836 464 820 495C810 513 820 516 836 505C877 474 908 458 926 453C938 449 945 445 945 438C944 431 923 415 881 395C869 389 854 388 840 393C802 404 769 416 737 425C700 434 657 443 607 454C591 457 589 463 602 476C612 486 630 487 656 479C666 475 679 472 693 468C718 461 718 461 730 457Z"/>
<path id="z31001d16" d="M748 732C748 689 748 649 750 613C751 595 751 595 751 586C755 468 763 481 730 457C719 450 691 455 693 468C712 541 706 634 709 711C709 726 748 747 748 732Z"/>
<path id="z31001d17" d="M750 613C773 613 839 599 858 594C871 589 865 569 835 568C815 567 788 576 751 586C742 589 741 613 750 613Z"/>
<path id="z31001d18" d="M634 664C642 643 651 624 661 608C665 599 664 591 654 585C626 567 605 564 593 569C586 571 584 575 587 584C610 677 551 751 503 824C476 866 516 839 523 835C566 805 606 731 626 684C631 671 631 671 634 664Z"/>
<path id="z31001d19" d="M626 684C742 788 813 844 841 846C879 848 926 836 982 820C1007 812 998 805 986 802C869 774 820 763 809 759C782 748 762 739 748 732C722 718 722 718 709 711C695 703 664 684 634 664C628 660 620 680 626 684Z"/>
<defs>
	<clipPath id="z31001c1"><use href="#z31001d1"/></clipPath>
	<clipPath id="z31001c2"><use href="#z31001d2"/></clipPath>
	<clipPath id="z31001c3"><use href="#z31001d3"/></clipPath>
	<clipPath id="z31001c4"><use href="#z31001d4"/></clipPath>
	<clipPath id="z31001c5"><use href="#z31001d5"/></clipPath>
	<clipPath id="z31001c6"><use href="#z31001d6"/></clipPath>
	<clipPath id="z31001c7"><use href="#z31001d7"/></clipPath>
	<clipPath id="z31001c8"><use href="#z31001d8"/></clipPath>
	<clipPath id="z31001c9"><use href="#z31001d9"/></clipPath>
	<clipPath id="z31001c10"><use href="#z31001d10"/></clipPath>
	<clipPath id="z31001c11"><use href="#z31001d11"/></clipPath>
	<clipPath id="z31001c12"><use href="#z31001d12"/></clipPath>
	<clipPath id="z31001c13"><use href="#z31001d13"/></clipPath>
	<clipPath id="z31001c14"><use href="#z31001d14"/></clipPath>
	<clipPath id="z31001c15"><use href="#z31001d15"/></clipPath>
	<clipPath id="z31001c16"><use href="#z31001d16"/></clipPath>
	<clipPath id="z31001c17"><use href="#z31001d17"/></clipPath>
	<clipPath id="z31001c18"><use href="#z31001d18"/></clipPath>
	<clipPath id="z31001c19"><use href="#z31001d19"/></clipPath>
</defs>
<path style="--d:1s;" pathLength="3333" clip-path="url(#z31001c1)" d="M138 250L371 201"/>
<path style="--d:2s;" pathLength="3333" clip-path="url(#z31001c2)" d="M204 265L241 296L201 408L144 513L39 634"/>
<path style="--d:3s;" pathLength="3333" clip-path="url(#z31001c3)" d="M136 443L163 486L195 666"/>
<path style="--d:4s;" pathLength="3333" clip-path="url(#z31001c4)" d="M161 453L190 468L285 443L315 460L295 568"/>
<path style="--d:5s;" pathLength="3333" clip-path="url(#z31001c5)" d="M198 605L328 574"/>
<path style="--d:6s;" pathLength="3333" clip-path="url(#z31001c6)" d="M528 158L541 195L431 263"/>
<path style="--d:7s;" pathLength="3333" clip-path="url(#z31001c7)" d="M395 112L420 146L412 271L434 351L491 371L564 357L589 335L584 284"/>
<path style="--d:8s;" pathLength="3333" clip-path="url(#z31001c8)" d="M394 410L414 446L347 555"/>
<path style="--d:9s;" pathLength="3333" clip-path="url(#z31001c9)" d="M398 511L560 487"/>
<path style="--d:10s;" pathLength="3333" clip-path="url(#z31001c10)" d="M280 661L561 622"/>
<path style="--d:11s;" pathLength="3333" clip-path="url(#z31001c11)" d="M423 526L456 560L420 699L293 820"/>
<path style="--d:12s;" pathLength="3333" clip-path="url(#z31001c12)" d="M468 682L528 750"/>
<path style="--d:13s;" pathLength="3333" clip-path="url(#z31001c13)" d="M607 239L663 247L783 200L819 215L828 239L734 334"/>
<path style="--d:14s;" pathLength="3333" clip-path="url(#z31001c14)" d="M666 316L754 394"/>
<path style="--d:15s;" pathLength="3333" clip-path="url(#z31001c15)" d="M599 464L840 410L893 441L824 505"/>
<path style="--d:16s;" pathLength="3333" clip-path="url(#z31001c16)" d="M699 461L727 493L734 733"/>
<path style="--d:17s;" pathLength="3333" clip-path="url(#z31001c17)" d="M749 604L858 585"/>
<path style="--d:18s;" pathLength="3333" clip-path="url(#z31001c18)" d="M593 575L628 608L605 682L500 841"/>
<path style="--d:19s;" pathLength="3333" clip-path="url(#z31001c19)" d="M631 670L829 803L991 810"/>
</svg>