<!--
AnimCJK 2016-2019 Copyright Francois Mizessyn - https://github.com/parsimonhi/animCJK
Derived from:
    MakeMeAHanzi project - https://github.com/skishore/makemeahanzi
    Arphic PL KaitiM GB font
    Arphic PL UKai font
You can redistribute and/or modify this file under the terms of the Arphic Public License
as published by Arphic Technology Co., Ltd.
You should have received a copy of this license along with this file.
If not, see http://ftp.gnu.org/non-gnu/chinese-fonts-truetype/LICENSE.
-->
<svg id="z31034" class="acjk" version="1.1" viewBox="0 0 1024 1024" xmlns="http://www.w3.org/2000/svg" xmlns:xlink="http://www.w3.org/1999/xlink">
<style>
<![CDATA[
@keyframes zk {
	to {
		stroke-dashoffset:0;
	}
}
svg.acjk path[clip-path] {
	--t:0.8s;
	animation:zk var(--t) linear forwards var(--d);
	stroke-dasharray:3337;
	stroke-dashoffset:3339;
	stroke-width:128;
	stroke-linecap:round;
	fill:none;
	stroke:#000;
}
svg.acjk path[id] {fill:#ccc;}
]]>
</style>
<path id="z31034d1" d="M353 225C324 228 319 238 340 251C374 272 412 274 456 266C516 253 579 245 644 233C672 227 689 221 694 218C701 211 702 204 699 198C694 189 680 180 657 175C634 169 589 184 517 200C424 220 368 222 353 225Z"/>
<path id="z31034d2" d="M515 473C593 465 691 459 808 461C860 461 890 460 896 451C900 442 896 431 883 421C837 386 792 381 747 391C587 423 382 448 135 478C118 480 115 488 128 501C138 512 151 518 166 523C182 527 197 527 210 524C285 503 373 486 472 477C501 474 501 474 515 473Z"/>
<path id="z31034d3" d="M438 815C421 810 402 805 381 800C372 797 368 799 369 804C369 808 372 815 380 821C424 856 461 887 492 915C499 921 508 919 517 908C545 868 555 813 551 744C546 668 544 598 551 537C552 518 555 506 551 500C546 492 534 483 515 473C502 468 465 465 472 477C485 501 488 532 489 558C489 600 491 671 491 769C491 791 487 808 479 816C472 822 457 820 438 815Z"/>
<path id="z31034d4" d="M276 616C251 650 223 683 193 714C174 732 168 755 175 784C178 797 187 802 204 796C246 778 273 739 290 683C297 659 303 639 301 621C300 614 296 609 292 609C285 607 279 610 276 616Z"/>
<path id="z31034d5" d="M686 633C724 668 768 711 815 764C827 777 836 788 848 791C853 792 859 787 865 781C873 771 871 752 865 721C858 691 828 664 772 638C734 620 706 608 687 600C679 597 675 598 675 607C673 617 678 625 686 633Z"/>
<defs>
	<clipPath id="z31034c1"><use xlink:href="#z31034d1"/></clipPath>
	<clipPath id="z31034c2"><use xlink:href="#z31034d2"/></clipPath>
	<clipPath id="z31034c3"><use xlink:href="#z31034d3"/></clipPath>
	<clipPath id="z31034c4"><use xlink:href="#z31034d4"/></clipPath>
	<clipPath id="z31034c5"><use xlink:href="#z31034d5"/></clipPath>
</defs>
<path style="--d:1s;" pathLength="3333" clip-path="url(#z31034c1)" d="M336 237L414 244L693 200"/>
<path style="--d:2s;" pathLength="3333" clip-path="url(#z31034c2)" d="M128 486L198 498L778 423L892 439"/>
<path style="--d:3s;" pathLength="3333" clip-path="url(#z31034c3)" d="M481 481L520 520L509 840L485 867L379 805"/>
<path style="--d:4s;" pathLength="3333" clip-path="url(#z31034c4)" d="M291 613L180 790"/>
<path style="--d:5s;" pathLength="3333" clip-path="url(#z31034c5)" d="M682 607L806 699L860 781"/>
</svg>