<!--
AnimCJK 2016-2018 Copyright Francois Mizessyn, https://github.com/parsimonhi/animCJK
Derived from:
    MakeMeAHanzi project - https://github.com/skishore/makemeahanzi
    Arphic PL KaitiM GB - https://apps.ubuntu.com/cat/applications/precise/fonts-arphic-gkai00mp/
    Arphic PL UKai - https://apps.ubuntu.com/cat/applications/fonts-arphic-ukai/
You can redistribute and/or modify this file under the terms of the Arphic Public License
as published by Arphic Technology Co., Ltd.
You should have received a copy of this license (the directory "APL") along with this file;
if not, see http://ftp.gnu.org/non-gnu/chinese-fonts-truetype/LICENSE.
-->
<svg id="z31049" class="acjk" version="1.1" viewBox="0 0 1024 1024" xmlns="http://www.w3.org/2000/svg" xmlns:xlink="http://www.w3.org/1999/xlink">
<style>
<![CDATA[
@keyframes z31049k {
	from {
		stroke:#c00;
		stroke-dashoffset:3334;
	}
	75% {
		stroke:#c00;
		stroke-dashoffset:0;
	}
	to {
		stroke:#000;
	}
}
#z31049 path[clip-path] {
	animation:z31049k 1s linear both;
	stroke-dasharray:3334;
	stroke-width:128;
	stroke-linecap:round;
	fill:none;
}
#z31049 path[clip-path="url(#z31049c1)"] {animation-delay:1s;}
#z31049 path[clip-path="url(#z31049c2)"] {animation-delay:2s;}
#z31049 path[clip-path="url(#z31049c3)"] {animation-delay:3s;}
#z31049 path[clip-path="url(#z31049c4)"] {animation-delay:4s;}
#z31049 path[clip-path="url(#z31049c5)"] {animation-delay:5s;}
#z31049 path[clip-path="url(#z31049c6)"] {animation-delay:6s;}
#z31049 path[clip-path="url(#z31049c7)"] {animation-delay:7s;}
#z31049 path[clip-path="url(#z31049c8)"] {animation-delay:8s;}
#z31049 path {fill:#ccc;}
]]>
</style>
<path id="z31049d1" d="M311 147Q342 169 375 195Q391 208 409 205Q421 204 425 188Q428 172 415 140Q400 107 300 95Q282 94 276 97Q270 101 274 115Q278 127 311 147 Z"/>
<path id="z31049d2" d="M283 540Q316 497 352 443Q388 388 436 352Q452 340 439 325Q420 309 391 299Q369 290 351 301Q266 362 114 370Q101 369 99 376Q96 386 111 397Q151 424 186 415Q324 354 332 365Q338 374 324 397Q243 551 68 713Q53 723 56 727Q59 730 72 725Q166 680 257 571L283 540 Z"/>
<path id="z31049d3" d="M257 571Q285 631 255 794Q230 866 270 912L271 913Q287 928 298 903Q311 866 311 825Q315 653 322 614Q329 589 320 580Q290 544 283 540L257 571 Z"/>
<path id="z31049d4" d="M357 527Q402 597 425 601Q438 604 446 587Q449 574 442 554Q427 521 364 502Q355 499 353 510Q352 517 357 527 Z"/>
<path id="z31049d5" d="M699 698Q703 568 706 445L707 413Q710 272 729 192Q733 179 710 163Q670 142 642 138Q623 134 614 144Q605 154 616 170Q647 216 648 248Q661 459 652 704L699 698 Z"/>
<path id="z31049d6" d="M706 445Q748 451 883 418Q883 417 885 417Q892 408 888 400Q881 388 850 383Q829 380 753 403Q750 403 707 413L706 445 Z"/>
<path id="z31049d7" d="M563 716Q557 509 564 470Q568 445 552 432Q527 413 498 402Q483 396 474 403Q465 410 472 426Q493 465 501 507Q508 550 520 721L563 716 Z"/>
<path id="z31049d8" d="M520 721Q468 725 413 733Q391 734 407 753Q422 768 440 773Q462 779 479 774Q624 738 901 737Q917 737 933 738Q954 738 959 729Q965 717 948 703Q894 661 829 675Q774 685 699 698L652 704Q609 708 563 716L520 721 Z"/>
<defs>
	<clipPath id="z31049c1"><use xlink:href="#z31049d1"/></clipPath>
	<clipPath id="z31049c2"><use xlink:href="#z31049d2"/></clipPath>
	<clipPath id="z31049c3"><use xlink:href="#z31049d3"/></clipPath>
	<clipPath id="z31049c4"><use xlink:href="#z31049d4"/></clipPath>
	<clipPath id="z31049c5"><use xlink:href="#z31049d5"/></clipPath>
	<clipPath id="z31049c6"><use xlink:href="#z31049d6"/></clipPath>
	<clipPath id="z31049c7"><use xlink:href="#z31049d7"/></clipPath>
	<clipPath id="z31049c8"><use xlink:href="#z31049d8"/></clipPath>
</defs>
<path pathLength="3333" clip-path="url(#z31049c1)" d="M280 105L377 150L415 198"/>
<path pathLength="3333" clip-path="url(#z31049c2)" d="M107 380L183 389L351 329L390 358L217 587L62 722"/>
<path pathLength="3333" clip-path="url(#z31049c3)" d="M281 548L296 604L281 914"/>
<path pathLength="3333" clip-path="url(#z31049c4)" d="M360 510L435 596"/>
<path pathLength="3333" clip-path="url(#z31049c5)" d="M617 147L687 206L665 701"/>
<path pathLength="3333" clip-path="url(#z31049c6)" d="M709 438L885 402"/>
<path pathLength="3333" clip-path="url(#z31049c7)" d="M477 411L529 467L541 718"/>
<path pathLength="3333" clip-path="url(#z31049c8)" d="M408 742L855 704L956 719"/>
</svg>