<!--
AnimCJK 2016-2017 Copyright Francois Mizessyn, http://gooo.free.fr/animCJK/
Derived from:
    MakeMeAHanzi project - https://github.com/skishore/makemeahanzi
    Arphic PL KaitiM GB - https://apps.ubuntu.com/cat/applications/precise/fonts-arphic-gkai00mp/
    Arphic PL UKai - https://apps.ubuntu.com/cat/applications/fonts-arphic-ukai/
You can redistribute and/or modify this file under the terms of the Arphic Public License
as published by Arphic Technology Co., Ltd.
You should have received a copy of this license (the directory "APL") along with this file;
if not, see http://ftp.gnu.org/non-gnu/chinese-fonts-truetype/LICENSE.
-->
<svg id="z31056" class="acjk" version="1.1" viewBox="0 0 1024 1024" xmlns="http://www.w3.org/2000/svg" xmlns:xlink="http://www.w3.org/1999/xlink">
<style>
<![CDATA[
@keyframes z31056k {
	from {
		stroke:#c00;
		stroke-dashoffset:3334;
	}
	75% {
		stroke:#c00;
		stroke-dashoffset:0;
	}
	to {
		stroke:#000;
	}
}
#z31056 path[clip-path] {
	animation:z31056k 1s linear both;
	stroke-dasharray:3334;
	stroke-width:128;
	stroke-linecap:round;
	fill:none;
}
#z31056 path[clip-path="url(#z31056c1)"] {animation-delay:1s;}
#z31056 path[clip-path="url(#z31056c2)"] {animation-delay:2s;}
#z31056 path[clip-path="url(#z31056c3)"] {animation-delay:3s;}
#z31056 path[clip-path="url(#z31056c4)"] {animation-delay:4s;}
#z31056 path[clip-path="url(#z31056c5)"] {animation-delay:5s;}
#z31056 path[clip-path="url(#z31056c6)"] {animation-delay:6s;}
#z31056 path[clip-path="url(#z31056c7)"] {animation-delay:7s;}
#z31056 path[clip-path="url(#z31056c8)"] {animation-delay:8s;}
#z31056 path[clip-path="url(#z31056c9)"] {animation-delay:9s;}
#z31056 path {fill:#ccc;}
]]>
</style>
<path id="z31056d1" d="M323 141Q357 172 393 208Q406 221 424 221Q434 221 441 207Q445 192 438 160Q426 121 319 90Q303 86 296 89Q290 93 292 106Q295 118 323 141 Z"/>
<path id="z31056d2" d="M300 540Q391 402 432 371Q448 358 435 344Q416 329 385 319Q363 312 345 323Q269 384 121 398Q108 397 106 405Q103 415 118 425Q158 450 175 446Q193 443 310 386Q326 379 330 386Q336 395 323 418Q245 571 76 737Q61 747 64 751Q67 754 80 748Q176 699 277 571L300 540 Z"/>
<path id="z31056d3" d="M277 571Q292 604 294 663Q294 753 278 821Q266 870 301 911L302 913Q318 928 330 903Q343 864 343 821Q342 658 347 621Q354 596 345 586Q312 547 300 540L277 571 Z"/>
<path id="z31056d4" d="M372 531Q427 586 447 588Q460 588 464 572Q464 560 455 543Q433 515 375 508Q366 507 366 517Q365 524 372 531 Z"/>
<path id="z31056d5" d="M 668,393 C 752,376 819,377 929,377 945,377 954,373 957,367 961,358 956,349 944,341 906,316 874,307 850,314 800,326 763,332 679,351 L 619,362 C 556,372 509,377 438,390 423,392 421,399 433,411 455,429 482,434 514,425 548,413 566,409 608,403 Z"/>
<path id="z31056d6" d="M 592,591 C 614,554 655,442 668,393 L 679,351 C 685,325 688,294 701,256 708,234 714,209 728,186 732,179 732,172 728,166 717,151 700,138 677,124 662,115 650,111 638,114 623,116 620,125 630,140 645,163 652,184 649,206 640,264 631,316 619,362 L 608,403 C 591,466 569,530 537,592 L 511,641 C 480,697 450,755 387,814 379,820 373,822 371,826 368,830 372,832 384,832 416,831 449,790 523,704 524,701 526,699 528,697 Z"/>
<path id="z31056d7" d="M 537,592 C 530,590 522,588 513,587 504,584 499,585 497,589 492,593 493,600 499,612 503,620 507,630 511,641 L 528,697 C 536,731 544,769 550,813 552,837 559,858 573,876 585,890 593,893 597,883 601,868 603,848 601,824 L 595,785 571,629 Z"/>
<path id="z31056d8" d="M 830,756 C 844,690 865,645 891,623 903,608 904,594 892,582 879,572 853,558 814,542 800,536 785,536 769,544 720,564 668,577 592,591 L 569,628 571,629 C 577,629 631,621 754,597 766,594 776,595 782,600 790,606 793,618 792,635 787,679 780,719 772,755 Z"/>
<path id="z31056d9" d="M 601,824 C 605,824 610,823 615,822 667,811 738,806 850,798 858,797 862,793 863,787 863,781 852,770 830,756 L 772,755 C 703,769 651,777 595,785 Z"/>
<defs>
	<clipPath id="z31056c1"><use xlink:href="#z31056d1"/></clipPath>
	<clipPath id="z31056c2"><use xlink:href="#z31056d2"/></clipPath>
	<clipPath id="z31056c3"><use xlink:href="#z31056d3"/></clipPath>
	<clipPath id="z31056c4"><use xlink:href="#z31056d4"/></clipPath>
	<clipPath id="z31056c5"><use xlink:href="#z31056d5"/></clipPath>
	<clipPath id="z31056c6"><use xlink:href="#z31056d6"/></clipPath>
	<clipPath id="z31056c7"><use xlink:href="#z31056d7"/></clipPath>
	<clipPath id="z31056c8"><use xlink:href="#z31056d8"/></clipPath>
	<clipPath id="z31056c9"><use xlink:href="#z31056d9"/></clipPath>
</defs>
<path pathLength="3333" clip-path="url(#z31056c1)" d="M299 94L398 163L425 216"/>
<path pathLength="3333" clip-path="url(#z31056c2)" d="M112 410L188 415L346 352L388 370L234 592L69 746"/>
<path pathLength="3333" clip-path="url(#z31056c3)" d="M300 551L320 611L311 914"/>
<path pathLength="3333" clip-path="url(#z31056c4)" d="M372 519L453 582"/>
<path pathLength="3333" clip-path="url(#z31056c5)" d="M 437,401 845,347 954,359"/>
<path pathLength="3333" clip-path="url(#z31056c6)" d="M 632,120 690,185 611,481 502,695 380,825"/>
<path pathLength="3333" clip-path="url(#z31056c7)" d="M 502,591 544,644 585,884"/>
<path pathLength="3333" clip-path="url(#z31056c8)" d="M 578,622 781,567 813,579 848,612 793,755"/>
<path pathLength="3333" clip-path="url(#z31056c9)" d="M 603,790 858,780"/>
</svg>