<!--
AnimCJK 2016-2019 Copyright Francois Mizessyn - https://github.com/parsimonhi/animCJK
Derived from:
    MakeMeAHanzi project - https://github.com/skishore/makemeahanzi
    Arphic PL KaitiM GB font
    Arphic PL UKai font
You can redistribute and/or modify this file under the terms of the Arphic Public License
as published by Arphic Technology Co., Ltd.
You should have received a copy of this license along with this file.
If not, see http://ftp.gnu.org/non-gnu/chinese-fonts-truetype/LICENSE.
-->
<svg id="z31062" class="acjk" version="1.1" viewBox="0 0 1024 1024" xmlns="http://www.w3.org/2000/svg" xmlns:xlink="http://www.w3.org/1999/xlink">
<style>
<![CDATA[
@keyframes zk {
	to {
		stroke-dashoffset:0;
	}
}
svg.acjk path[clip-path] {
	--t:0.8s;
	animation:zk var(--t) linear forwards var(--d);
	stroke-dasharray:3337;
	stroke-dashoffset:3339;
	stroke-width:128;
	stroke-linecap:round;
	fill:none;
	stroke:#000;
}
svg.acjk path[id] {fill:#ccc;}
]]>
</style>
<path id="z31062d1" d="M295 126Q356 183 396 197Q414 200 422 184Q428 169 424 150Q406 105 306 82Q287 78 277 83Q270 84 274 98Q277 111 295 126Z"/>
<path id="z31062d2" d="M301 527Q326 491 352 450Q388 392 436 355Q452 343 440 328Q421 312 391 302Q369 293 351 305Q258 368 98 374Q86 371 83 380Q80 390 95 400Q134 428 151 425Q154 425 306 369Q325 362 329 370Q336 380 322 404Q246 557 68 733Q53 743 56 747Q59 750 72 745Q172 696 278 559C293 538 293 538 301 527Z"/>
<path id="z31062d3" d="M278 559Q312 628 278 806Q262 854 296 902Q297 903 299 905Q315 920 326 895Q339 858 339 817Q338 642 342 602Q349 577 340 568Q313 535 301 527C290 519 273 547 278 559Z"/>
<path id="z31062d4" d="M388 531Q407 549 430 570Q442 580 456 580Q465 579 469 568Q473 555 465 529Q459 513 435 503Q375 485 364 489Q360 493 361 504Q365 514 388 531Z"/>
<path id="z31062d5" d="M553 248Q540 238 527 232Q515 229 507 233Q500 237 503 247Q527 299 529 338Q532 381 535 745C535 759 577 755 577 741Q576 662 575 591C574 570 574 570 574 559Q574 504 574 454C573 434 573 434 573 424Q573 352 575 281C575 268 564 256 553 248Z"/>
<path id="z31062d6" d="M794 711Q793 485 803 333Q804 294 823 269Q835 253 821 237Q811 225 761 198Q743 186 681 216Q591 240 553 248C540 250 562 284 575 281Q582 280 592 276Q727 234 739 245Q746 258 746 288Q746 534 743 719C743 736 794 728 794 711Z"/>
<path id="z31062d7" d="M574 454Q644 439 696 429Q718 425 710 412Q698 399 672 395Q636 392 573 424C564 429 564 456 574 454Z"/>
<path id="z31062d8" d="M575 591Q642 576 692 569Q714 565 705 552Q695 537 668 535Q634 532 574 559C564 563 565 593 575 591Z"/>
<path id="z31062d9" d="M535 745Q474 751 408 759Q389 760 403 777Q416 790 433 796Q454 802 469 798Q617 762 898 761Q914 761 930 762Q949 763 954 754Q960 744 944 730Q889 688 825 705Q809 706 794 711C760 716 760 716 743 719Q703 723 656 731Q617 735 577 741C549 744 549 744 535 745Z"/>
<defs>
	<clipPath id="z31062c1"><use xlink:href="#z31062d1"/></clipPath>
	<clipPath id="z31062c2"><use xlink:href="#z31062d2"/></clipPath>
	<clipPath id="z31062c3"><use xlink:href="#z31062d3"/></clipPath>
	<clipPath id="z31062c4"><use xlink:href="#z31062d4"/></clipPath>
	<clipPath id="z31062c5"><use xlink:href="#z31062d5"/></clipPath>
	<clipPath id="z31062c6"><use xlink:href="#z31062d6"/></clipPath>
	<clipPath id="z31062c7"><use xlink:href="#z31062d7"/></clipPath>
	<clipPath id="z31062c8"><use xlink:href="#z31062d8"/></clipPath>
	<clipPath id="z31062c9"><use xlink:href="#z31062d9"/></clipPath>
</defs>
<path style="--d:1s;" pathLength="3333" clip-path="url(#z31062c1)" d="M277 88L419 183"/>
<path style="--d:2s;" pathLength="3333" clip-path="url(#z31062c2)" d="M89 384L155 396L351 333L393 359L221 596L61 741"/>
<path style="--d:3s;" pathLength="3333" clip-path="url(#z31062c3)" d="M301 534L318 596L305 904"/>
<path style="--d:4s;" pathLength="3333" clip-path="url(#z31062c4)" d="M367 496L460 574"/>
<path style="--d:5s;" pathLength="3333" clip-path="url(#z31062c5)" d="M508 235L550 306L550 743"/>
<path style="--d:6s;" pathLength="3333" clip-path="url(#z31062c6)" d="M562 253L731 219L785 257L763 715"/>
<path style="--d:7s;" pathLength="3333" clip-path="url(#z31062c7)" d="M580 445L707 417"/>
<path style="--d:8s;" pathLength="3333" clip-path="url(#z31062c8)" d="M579 582L703 554"/>
<path style="--d:9s;" pathLength="3333" clip-path="url(#z31062c9)" d="M404 766L469 775L859 730L951 746"/>
</svg>