<!--
AnimCJK 2016-2018 Copyright Francois Mizessyn, https://github.com/parsimonhi/animCJK
Derived from:
    MakeMeAHanzi project - https://github.com/skishore/makemeahanzi
    Arphic PL KaitiM GB - https://apps.ubuntu.com/cat/applications/precise/fonts-arphic-gkai00mp/
    Arphic PL UKai - https://apps.ubuntu.com/cat/applications/fonts-arphic-ukai/
You can redistribute and/or modify this file under the terms of the Arphic Public License
as published by Arphic Technology Co., Ltd.
You should have received a copy of this license (the directory "APL") along with this file;
if not, see http://ftp.gnu.org/non-gnu/chinese-fonts-truetype/LICENSE.
-->
<svg id="z31077" class="acjk" version="1.1" viewBox="0 0 1024 1024" xmlns="http://www.w3.org/2000/svg" xmlns:xlink="http://www.w3.org/1999/xlink">
<style>
<![CDATA[
@keyframes z31077k {
	from {
		stroke:#c00;
		stroke-dashoffset:3334;
	}
	75% {
		stroke:#c00;
		stroke-dashoffset:0;
	}
	to {
		stroke:#000;
	}
}
#z31077 path[clip-path] {
	animation:z31077k 1s linear both;
	stroke-dasharray:3334;
	stroke-width:128;
	stroke-linecap:round;
	fill:none;
}
#z31077 path[clip-path="url(#z31077c1)"] {animation-delay:1s;}
#z31077 path[clip-path="url(#z31077c2)"] {animation-delay:2s;}
#z31077 path[clip-path="url(#z31077c3)"] {animation-delay:3s;}
#z31077 path[clip-path="url(#z31077c4)"] {animation-delay:4s;}
#z31077 path[clip-path="url(#z31077c5)"] {animation-delay:5s;}
#z31077 path[clip-path="url(#z31077c6)"] {animation-delay:6s;}
#z31077 path[clip-path="url(#z31077c7)"] {animation-delay:7s;}
#z31077 path[clip-path="url(#z31077c8)"] {animation-delay:8s;}
#z31077 path[clip-path="url(#z31077c9)"] {animation-delay:9s;}
#z31077 path[clip-path="url(#z31077c10)"] {animation-delay:10s;}
#z31077 path {fill:#ccc;}
]]>
</style>
<path id="z31077d1" d="M281 121Q327 182 362 200Q377 204 387 191Q394 178 393 161Q383 116 296 83Q280 76 270 80Q263 81 265 94Q266 106 281 121 Z"/>
<path id="z31077d2" d="M270 521Q306 473 345 413Q381 355 430 318Q445 308 433 293Q414 278 386 268Q365 259 348 271Q258 332 110 339Q98 338 96 345Q93 355 107 365Q144 390 161 387Q167 386 304 331Q320 324 325 332Q332 341 318 365Q234 527 59 693Q46 703 48 707Q51 710 63 705Q150 662 247 550L270 521 Z"/>
<path id="z31077d3" d="M247 550Q262 598 263 647Q263 729 244 804Q234 846 263 888Q264 891 267 893Q283 908 294 883Q307 846 307 805Q308 636 314 598Q321 573 312 564Q282 528 270 521L247 550 Z"/>
<path id="z31077d4" d="M356 516Q380 534 404 555Q416 565 429 564Q438 563 441 552Q444 539 436 515Q424 488 350 477Q337 476 332 477Q328 481 330 491Q333 500 356 516 Z"/>
<path id="z31077d5" d="M522 162Q544 184 566 210Q578 223 593 223Q603 224 609 211Q615 198 608 168Q601 140 521 116Q506 112 500 113Q496 117 496 129Q497 139 522 162 Z"/>
<path id="z31077d6" d="M742 96Q715 147 658 226Q652 235 659 241Q668 242 675 236Q774 146 823 111Q842 104 836 93Q829 77 806 58Q784 42 759 41Q743 42 746 64Q750 79 742 96 Z"/>
<path id="z31077d7" d="M666 319Q721 306 786 295Q832 285 839 278Q846 271 843 263Q836 253 810 245Q786 239 690 270Q597 294 509 302Q475 308 499 323Q535 347 591 333Q595 332 604 331L666 319 Z"/>
<path id="z31077d8" d="M676 464Q805 437 810 434Q819 427 815 419Q808 409 782 401Q761 395 677 420L624 433Q572 442 513 446Q479 450 503 467Q540 491 603 476Q612 473 624 473L676 464 Z"/>
<path id="z31077d9" d="M674 601Q761 589 891 587Q948 590 956 578Q960 568 945 554Q893 518 857 526Q788 542 674 563L623 571Q524 584 412 602Q391 605 407 621Q420 634 438 639Q459 643 474 639Q543 618 622 608L674 601 Z"/>
<path id="z31077d10" d="M622 935Q628 960 634 969Q640 976 647 974Q665 962 668 907Q669 889 674 601L674 563Q674 518 676 464L677 420Q680 381 688 353Q691 335 677 326Q671 322 666 319L604 331Q623 370 624 433L624 473Q624 518 623 571L622 608Q616 875 622 935 Z"/>
<defs>
	<clipPath id="z31077c1"><use xlink:href="#z31077d1"/></clipPath>
	<clipPath id="z31077c2"><use xlink:href="#z31077d2"/></clipPath>
	<clipPath id="z31077c3"><use xlink:href="#z31077d3"/></clipPath>
	<clipPath id="z31077c4"><use xlink:href="#z31077d4"/></clipPath>
	<clipPath id="z31077c5"><use xlink:href="#z31077d5"/></clipPath>
	<clipPath id="z31077c6"><use xlink:href="#z31077d6"/></clipPath>
	<clipPath id="z31077c7"><use xlink:href="#z31077d7"/></clipPath>
	<clipPath id="z31077c8"><use xlink:href="#z31077d8"/></clipPath>
	<clipPath id="z31077c9"><use xlink:href="#z31077d9"/></clipPath>
	<clipPath id="z31077c10"><use xlink:href="#z31077d10"/></clipPath>
</defs>
<path pathLength="3333" clip-path="url(#z31077c1)" d="M271 84L387 186"/>
<path pathLength="3333" clip-path="url(#z31077c2)" d="M102 348L169 359L345 299L383 323L219 551L56 703"/>
<path pathLength="3333" clip-path="url(#z31077c3)" d="M272 528L280 893"/>
<path pathLength="3333" clip-path="url(#z31077c4)" d="M337 484L436 551"/>
<path pathLength="3333" clip-path="url(#z31077c5)" d="M504 120L574 172L591 220"/>
<path pathLength="3333" clip-path="url(#z31077c6)" d="M755 46L789 99L661 232"/>
<path pathLength="3333" clip-path="url(#z31077c7)" d="M497 311L553 318L837 265"/>
<path pathLength="3333" clip-path="url(#z31077c8)" d="M501 455L812 422"/>
<path pathLength="3333" clip-path="url(#z31077c9)" d="M411 615L856 557L952 565"/>
<path pathLength="3333" clip-path="url(#z31077c10)" d="M613 334L652 358L648 968"/>
</svg>