<!--
AnimCJK 2016-2019 Copyright Francois Mizessyn - https://github.com/parsimonhi/animCJK
Derived from:
    MakeMeAHanzi project - https://github.com/skishore/makemeahanzi
    Arphic PL KaitiM GB font
    Arphic PL UKai font
You can redistribute and/or modify this file under the terms of the Arphic Public License
as published by Arphic Technology Co., Ltd.
You should have received a copy of this license along with this file.
If not, see http://ftp.gnu.org/non-gnu/chinese-fonts-truetype/LICENSE.
-->
<svg id="z31118" class="acjk" version="1.1" viewBox="0 0 1024 1024" xmlns="http://www.w3.org/2000/svg" xmlns:xlink="http://www.w3.org/1999/xlink">
<style>
<![CDATA[
@keyframes zk {
	to {
		stroke-dashoffset:0;
	}
}
svg.acjk path[clip-path] {
	--t:0.8s;
	animation:zk var(--t) linear forwards var(--d);
	stroke-dasharray:3337;
	stroke-dashoffset:3339;
	stroke-width:128;
	stroke-linecap:round;
	fill:none;
	stroke:#000;
}
svg.acjk path[id] {fill:#ccc;}
]]>
</style>
<path id="z31118d1" d="M323 141Q357 172 393 208Q406 221 424 221Q434 221 441 207Q445 192 438 160Q426 121 319 90Q303 86 296 89Q290 93 292 106Q295 118 323 141Z"/>
<path id="z31118d2" d="M300 540Q391 402 432 371Q448 358 435 344Q416 329 385 319Q363 312 345 323Q269 384 121 398Q108 397 106 405Q103 415 118 425Q158 450 175 446Q193 443 310 386Q326 379 330 386Q336 395 323 418Q245 571 76 737Q61 747 64 751Q67 754 80 748Q176 699 277 571C292 550 292 550 300 540Z"/>
<path id="z31118d3" d="M277 571Q292 604 294 663Q294 753 278 821Q266 870 301 911C302 912 302 912 302 913Q318 928 330 903Q343 864 343 821Q342 658 347 621Q354 596 345 586Q312 547 300 540C289 533 272 559 277 571Z"/>
<path id="z31118d4" d="M372 531Q427 586 447 588Q460 588 464 572Q464 560 455 543Q433 515 375 508Q366 507 366 517Q365 524 372 531Z"/>
<path id="z31118d5" d="M684 306Q690 242 696 183C698 159 698 159 699 147Q702 129 705 117Q709 105 711 97Q714 87 696 74Q665 56 642 53Q627 49 620 57Q613 64 621 78Q636 97 637 113Q646 207 645 316C645 329 684 319 684 306Z"/>
<path id="z31118d6" d="M696 183Q723 183 835 153Q847 149 862 143Q869 136 864 127Q857 117 827 112Q803 109 730 138Q715 141 699 147C688 151 684 183 696 183Z"/>
<path id="z31118d7" d="M550 333Q514 308 498 315Q491 319 497 331Q498 338 501 346Q525 388 510 559Q498 652 498 656Q498 672 522 703Q532 716 542 704Q549 695 552 685C556 675 555 664 555 653Q556 632 557 570C557 551 557 551 557 542Q558 500 559 469C560 451 560 451 560 442Q560 372 564 365C566 354 559 340 550 333Z"/>
<path id="z31118d8" d="M807 663Q808 667 813 673Q828 704 838 702Q853 701 869 665Q885 637 883 616Q871 535 871 410Q870 373 889 342Q899 326 892 315Q811 249 749 284Q718 296 684 306C658 313 658 313 645 316Q593 326 550 333C539 335 553 367 564 365Q570 364 575 363Q678 333 755 317Q782 310 791 324Q807 343 808 407Q815 590 805 625C804 629 804 629 803 631C799 641 803 653 807 663Z"/>
<path id="z31118d9" d="M559 469Q565 470 576 468Q667 449 735 437Q759 433 749 420Q739 405 713 402Q689 399 560 442C552 445 550 469 559 469Z"/>
<path id="z31118d10" d="M557 570Q563 571 573 569Q670 551 743 540Q765 536 757 524Q747 509 721 505Q696 502 557 542C548 545 548 570 557 570Z"/>
<path id="z31118d11" d="M552 685Q562 689 575 686Q648 671 807 663C818 663 811 638 803 631Q799 627 794 624Q778 614 747 621Q641 643 555 653C544 655 541 683 552 685Z"/>
<path id="z31118d12" d="M576 730Q558 793 414 900Q392 913 419 912Q476 912 599 813Q602 806 647 771Q659 759 657 750Q656 737 629 726Q601 713 588 716Q581 717 576 730Z"/>
<path id="z31118d13" d="M729 765Q783 817 847 895Q863 917 880 922Q889 923 897 913Q910 900 899 853Q889 790 731 732Q721 726 719 739Q718 754 729 765Z"/>
<defs>
	<clipPath id="z31118c1"><use xlink:href="#z31118d1"/></clipPath>
	<clipPath id="z31118c2"><use xlink:href="#z31118d2"/></clipPath>
	<clipPath id="z31118c3"><use xlink:href="#z31118d3"/></clipPath>
	<clipPath id="z31118c4"><use xlink:href="#z31118d4"/></clipPath>
	<clipPath id="z31118c5"><use xlink:href="#z31118d5"/></clipPath>
	<clipPath id="z31118c6"><use xlink:href="#z31118d6"/></clipPath>
	<clipPath id="z31118c7"><use xlink:href="#z31118d7"/></clipPath>
	<clipPath id="z31118c8"><use xlink:href="#z31118d8"/></clipPath>
	<clipPath id="z31118c9"><use xlink:href="#z31118d9"/></clipPath>
	<clipPath id="z31118c10"><use xlink:href="#z31118d10"/></clipPath>
	<clipPath id="z31118c11"><use xlink:href="#z31118d11"/></clipPath>
	<clipPath id="z31118c12"><use xlink:href="#z31118d12"/></clipPath>
	<clipPath id="z31118c13"><use xlink:href="#z31118d13"/></clipPath>
</defs>
<path style="--d:1s;" pathLength="3333" clip-path="url(#z31118c1)" d="M299 94L398 163L425 216"/>
<path style="--d:2s;" pathLength="3333" clip-path="url(#z31118c2)" d="M112 410L188 415L346 352L388 370L234 592L69 746"/>
<path style="--d:3s;" pathLength="3333" clip-path="url(#z31118c3)" d="M300 551L320 611L311 914"/>
<path style="--d:4s;" pathLength="3333" clip-path="url(#z31118c4)" d="M372 519L453 582"/>
<path style="--d:5s;" pathLength="3333" clip-path="url(#z31118c5)" d="M624 59L674 103L663 310"/>
<path style="--d:6s;" pathLength="3333" clip-path="url(#z31118c6)" d="M704 176L862 134"/>
<path style="--d:7s;" pathLength="3333" clip-path="url(#z31118c7)" d="M503 321L537 378L525 703"/>
<path style="--d:8s;" pathLength="3333" clip-path="url(#z31118c8)" d="M558 336L788 294L848 338L833 694"/>
<path style="--d:9s;" pathLength="3333" clip-path="url(#z31118c9)" d="M565 462L745 426"/>
<path style="--d:10s;" pathLength="3333" clip-path="url(#z31118c10)" d="M561 562L751 526"/>
<path style="--d:11s;" pathLength="3333" clip-path="url(#z31118c11)" d="M560 678L803 651"/>
<path style="--d:12s;" pathLength="3333" clip-path="url(#z31118c12)" d="M649 749L601 755L513 849L415 907"/>
<path style="--d:13s;" pathLength="3333" clip-path="url(#z31118c13)" d="M726 739L842 830L884 917"/>
</svg>