<!--
AnimCJK 2016-2018 Copyright Francois Mizessyn, http://gooo.free.fr/animCJK/
Derived from:
    MakeMeAHanzi project - https://github.com/skishore/makemeahanzi
    Arphic PL KaitiM GB - https://apps.ubuntu.com/cat/applications/precise/fonts-arphic-gkai00mp/
    Arphic PL UKai - https://apps.ubuntu.com/cat/applications/fonts-arphic-ukai/
You can redistribute and/or modify this file under the terms of the Arphic Public License
as published by Arphic Technology Co., Ltd.
You should have received a copy of this license (the directory "APL") along with this file;
if not, see http://ftp.gnu.org/non-gnu/chinese-fonts-truetype/LICENSE.
-->
<svg id="z31166" class="acjk" version="1.1" viewBox="0 0 1024 1024" xmlns="http://www.w3.org/2000/svg" xmlns:xlink="http://www.w3.org/1999/xlink">
<style>
<![CDATA[
@keyframes z31166k {
	from {
		stroke:#ccc;
		stroke-dashoffset:3334;
	}
	1% {
		stroke:#c00;
		stroke-dashoffset:3334;
	}
	75% {
		stroke:#c00;
		stroke-dashoffset:0;
	}
	to {
		stroke:#000;
	}
}
#z31166 path[clip-path] {
	animation:z31166k 1s linear both;
	stroke-dasharray:3334;
	stroke-width:128;
	stroke-linecap:round;
	fill:none;
}
#z31166 path[clip-path="url(#z31166c1)"] {animation-delay:1s;}
#z31166 path[clip-path="url(#z31166c2)"] {animation-delay:2s;}
#z31166 path[clip-path="url(#z31166c3)"] {animation-delay:3s;}
#z31166 path[clip-path="url(#z31166c4)"] {animation-delay:4s;}
#z31166 path[clip-path="url(#z31166c5)"] {animation-delay:5s;}
#z31166 path {fill:#ccc;}
]]>
</style>
<path id="z31166d1" d="M 510,179 C 569,163 615,146 654,144 666,143 675,142 679,137 683,129 681,120 672,111 657,96 633,82 602,66 590,60 580,53 570,55 563,55 560,62 559,71 554,103 463,143 290,207 282,209 279,220 290,220 346,217 401,207 456,193 Z"/>
<path id="z31166d2" d="M 537,395 C 601,384 686,370 792,361 800,360 811,358 816,347 819,339 807,330 790,321 759,304 721,304 673,318 630,330 571,342 539,349 L 487,359 C 415,372 320,380 202,394 179,396 175,405 193,419 217,438 239,448 256,445 272,441 336,426 450,409 L 488,403 Z"/>
<path id="z31166d3" d="M 536,420 C 536,411 536,403 537,395 L 539,349 C 540,308 544,272 555,244 559,233 564,223 561,215 558,208 539,197 510,179 L 456,193 C 474,219 484,247 485,277 485,303 487,330 487,359 L 488,403 487,475 C 484,623 482,711 478,738 465,810 459,849 460,854 460,862 466,880 479,910 484,921 489,927 494,931 499,934 501,934 508,929 512,925 519,918 526,904 533,887 535,868 535,847 534,820 536,693 536,467 Z"/>
<path id="z31166d4" d="M 450,409 C 396,527 288,648 128,775 117,783 117,788 125,791 143,797 183,778 249,735 307,696 387,610 488,475 L 488,403 450,408 Z"/>
<path id="z31166d5" d="M 536,467 C 598,555 669,645 750,738 764,754 784,761 809,761 893,758 948,756 975,752 983,750 988,747 989,743 989,738 983,732 972,728 873,692 796,660 747,621 680,568 612,499 536,420 Z"/>
<defs>
	<clipPath id="z31166c1"><use xlink:href="#z31166d1"/></clipPath>
	<clipPath id="z31166c2"><use xlink:href="#z31166d2"/></clipPath>
	<clipPath id="z31166c3"><use xlink:href="#z31166d3"/></clipPath>
	<clipPath id="z31166c4"><use xlink:href="#z31166d4"/></clipPath>
	<clipPath id="z31166c5"><use xlink:href="#z31166d5"/></clipPath>
</defs>
<path pathLength="3333" clip-path="url(#z31166c1)" d="M676 129L575 107L494 156L296 212"/>
<path pathLength="3333" clip-path="url(#z31166c2)" d="M191 404L254 416L707 339L807 345"/>
<path pathLength="3333" clip-path="url(#z31166c3)" d="M463 194L522 237L498 926"/>
<path pathLength="3333" clip-path="url(#z31166c4)" d="M479 412L309 650L126 783"/>
<path pathLength="3333" clip-path="url(#z31166c5)" d="M538 433L789 706L980 741"/>
</svg>