<!--
AnimCJK 2016-2018 Copyright Francois Mizessyn, https://github.com/parsimonhi/animCJK
Derived from:
    MakeMeAHanzi project - https://github.com/skishore/makemeahanzi
    Arphic PL KaitiM GB - https://apps.ubuntu.com/cat/applications/precise/fonts-arphic-gkai00mp/
    Arphic PL UKai - https://apps.ubuntu.com/cat/applications/fonts-arphic-ukai/
You can redistribute and/or modify this file under the terms of the Arphic Public License
as published by Arphic Technology Co., Ltd.
You should have received a copy of this license (the directory "APL") along with this file;
if not, see http://ftp.gnu.org/non-gnu/chinese-fonts-truetype/LICENSE.
-->
<svg id="z31204" class="acjk" version="1.1" viewBox="0 0 1024 1024" xmlns="http://www.w3.org/2000/svg" xmlns:xlink="http://www.w3.org/1999/xlink">
<style>
<![CDATA[
@keyframes z31204k {
	from {
		stroke:#c00;
		stroke-dashoffset:3334;
	}
	75% {
		stroke:#c00;
		stroke-dashoffset:0;
	}
	to {
		stroke:#000;
	}
}
#z31204 path[clip-path] {
	animation:z31204k 1s linear both;
	stroke-dasharray:3334;
	stroke-width:128;
	stroke-linecap:round;
	fill:none;
}
#z31204 path[clip-path="url(#z31204c1)"] {animation-delay:1s;}
#z31204 path[clip-path="url(#z31204c2)"] {animation-delay:2s;}
#z31204 path[clip-path="url(#z31204c3)"] {animation-delay:3s;}
#z31204 path[clip-path="url(#z31204c4)"] {animation-delay:4s;}
#z31204 path[clip-path="url(#z31204c5)"] {animation-delay:5s;}
#z31204 path[clip-path="url(#z31204c6)"] {animation-delay:6s;}
#z31204 path[clip-path="url(#z31204c7)"] {animation-delay:7s;}
#z31204 path[clip-path="url(#z31204c8)"] {animation-delay:8s;}
#z31204 path[clip-path="url(#z31204c9)"] {animation-delay:9s;}
#z31204 path[clip-path="url(#z31204c10)"] {animation-delay:10s;}
#z31204 path {fill:#ccc;}
]]>
</style>
<path id="z31204d1" d="M309 225C369 200 409 175 436 170C447 167 455 166 457 160C459 153 456 145 447 139C432 128 409 120 380 111C368 107 359 103 351 106C345 107 343 114 344 122C344 150 278 194 152 268C145 271 149 279 154 280C164 280 197 268 256 246C264 242 273 239 282 236 Z"/>
<path id="z31204d2" d="M338 400C344 398 376 389 436 379C442 377 451 376 455 366C457 358 447 351 432 346C403 335 373 337 341 351C340 351 339 351 339 352L297 365C292 366 288 367 286 368C261 375 205 387 118 407C99 411 97 417 113 428C137 443 157 448 176 442C204 432 238 424 278 415 Z"/>
<path id="z31204d3" d="M337 489C337 459 337 429 338 400L339 352C339 314 343 285 347 267C348 258 345 252 342 249C329 238 319 230 309 225L282 236C281 236 281 236 282 237C292 253 297 295 297 365L296 482C295 592 294 679 274 737C270 748 269 766 284 802C287 810 291 818 297 828C304 840 309 848 316 850C322 851 328 847 332 839C340 818 340 798 340 778C336 685 337 598 337 518C337 508 337 498 337 489 Z"/>
<path id="z31204d4" d="M278 415C242 493 174 591 79 711C74 717 76 721 84 722C88 722 92 720 99 715C182 648 248 570 296 482L297 406 Z"/>
<path id="z31204d5" d="M337 518C383 562 411 585 421 586C425 586 429 582 433 575C435 568 434 557 431 541C428 529 418 517 401 510C365 494 343 489 337 489 Z"/>
<path id="z31204d6" d="M663 182C777 163 832 137 836 135C842 128 843 122 840 117C833 108 820 101 800 98C778 94 756 98 735 107C710 117 684 125 658 133C628 141 595 146 561 152C534 156 530 165 551 177C566 186 586 194 609 191 Z"/>
<path id="z31204d7" d="M521 327C511 356 495 392 472 438C470 443 470 450 476 452C480 453 486 450 490 445C538 390 572 349 597 328C607 321 611 317 607 310C600 300 590 290 574 282C558 273 542 270 528 273C518 275 514 283 519 295C522 305 524 315 521 327 Z"/>
<path id="z31204d8" d="M769 325C802 370 821 396 836 398C844 400 848 395 850 386C853 375 854 360 851 336C850 323 837 308 818 297C773 271 750 256 743 263C735 269 737 277 742 287C747 298 754 303 769 325 Z"/>
<path id="z31204d9" d="M695 510C739 504 818 501 932 501C944 501 952 498 955 493C957 486 955 477 945 469C909 441 872 437 834 447C796 455 749 461 695 471L642 480C586 489 526 494 463 503C450 504 448 511 458 521C466 529 476 536 488 539C500 542 512 542 523 540C559 530 599 520 642 516 Z"/>
<path id="z31204d10" d="M644 901C646 918 651 930 657 937C661 942 666 944 671 942C681 936 688 912 693 870C699 810 701 750 698 692C696 659 695 598 695 510C695 497 695 484 695 471C695 344 699 263 707 228C709 215 705 205 695 199C682 190 671 185 663 182L609 191C619 215 631 238 639 265C644 282 642 354 642 480L642 516C642 726 637 854 644 901 Z"/>
<defs>
	<clipPath id="z31204c1"><use xlink:href="#z31204d1"/></clipPath>
	<clipPath id="z31204c2"><use xlink:href="#z31204d2"/></clipPath>
	<clipPath id="z31204c3"><use xlink:href="#z31204d3"/></clipPath>
	<clipPath id="z31204c4"><use xlink:href="#z31204d4"/></clipPath>
	<clipPath id="z31204c5"><use xlink:href="#z31204d5"/></clipPath>
	<clipPath id="z31204c6"><use xlink:href="#z31204d6"/></clipPath>
	<clipPath id="z31204c7"><use xlink:href="#z31204d7"/></clipPath>
	<clipPath id="z31204c8"><use xlink:href="#z31204d8"/></clipPath>
	<clipPath id="z31204c9"><use xlink:href="#z31204d9"/></clipPath>
	<clipPath id="z31204c10"><use xlink:href="#z31204d10"/></clipPath>
</defs>
<path pathLength="3333" clip-path="url(#z31204c1)" d="M450 156L363 149L295 208L156 273"/>
<path pathLength="3333" clip-path="url(#z31204c2)" d="M113 416L448 367"/>
<path pathLength="3333" clip-path="url(#z31204c3)" d="M289 238L319 269L317 845"/>
<path pathLength="3333" clip-path="url(#z31204c4)" d="M290 417L232 542L83 714"/>
<path pathLength="3333" clip-path="url(#z31204c5)" d="M343 495L426 580"/>
<path pathLength="3333" clip-path="url(#z31204c6)" d="M544 163L836 121"/>
<path pathLength="3333" clip-path="url(#z31204c7)" d="M524 277L562 319L478 436"/>
<path pathLength="3333" clip-path="url(#z31204c8)" d="M748 270L829 345L839 393"/>
<path pathLength="3333" clip-path="url(#z31204c9)" d="M459 512L951 479"/>
<path pathLength="3333" clip-path="url(#z31204c10)" d="M617 195L666 223L671 249L668 935"/>
</svg>