<!--
AnimCJK 2016-2025 Copyright FM-SH - https://github.com/parsimonhi/animCJK
Derived from:
    MakeMeAHanzi project - https://github.com/skishore/makemeahanzi
    Arphic PL KaitiM GB font
    Arphic PL UKai font
You can redistribute and/or modify this file under the terms of the Arphic Public License
as published by Arphic Technology Co., Ltd.
You should have received a copy of this license along with this file.
If not, see https://ftp.gnu.org/non-gnu/chinese-fonts-truetype/LICENSE.
-->
<svg id="z31204" class="acjk" viewBox="0 0 1024 1024" xmlns="http://www.w3.org/2000/svg">
<style>
<![CDATA[
@keyframes zk {
	to {
		stroke-dashoffset:0;
	}
}
svg.acjk path[clip-path] {
	--t:0.8s;
	animation:zk var(--t) linear forwards var(--d);
	stroke-dasharray:3337;
	stroke-dashoffset:3339;
	stroke-width:128;
	stroke-linecap:round;
	fill:none;
	stroke:#000;
}
svg.acjk path[id] {fill:#ccc;}
]]>
</style>
<path id="z31204d1" d="M309 225C369 200 398 186 436 174C463 164 462 149 447 139C431 127 408 117 380 109C361 103 341 97 342 122C342 149 278 194 152 268C145 271 148 281 154 280C207 269 236 254 282 236C300 229 300 229 309 225Z"/>
<path id="z31204d2" d="M338 400C356 395 376 389 436 379C442 377 451 376 455 366C457 358 445 350 432 346C396 332 376 341 339 352C311 360 311 360 297 364C239 380 182 394 118 407C98 410 95 416 113 428C129 439 148 444 168 442C182 439 238 424 278 415C318 405 318 405 338 400Z"/>
<path id="z31204d3" d="M337 489C337 459 337 429 338 400C339 368 339 368 339 352C339 314 343 285 347 267C348 258 344 251 342 249C328 237 319 230 309 225C301 220 280 226 282 236C295 286 297 322 297 364C296 443 296 443 296 482C295 592 294 679 274 737C270 748 267 765 284 802C304 847 320 862 332 839C341 818 340 797 340 778C336 684 337 598 337 518C337 499 337 499 337 489Z"/>
<path id="z31204d4" d="M278 415C243 489 183 585 91 695C74 715 78 731 99 715C182 649 248 570 296 482C329 426 302 355 278 415Z"/>
<path id="z31204d5" d="M337 518C365 545 387 564 401 575C415 585 425 592 433 575C435 568 435 555 431 541C427 528 417 516 401 510C364 493 343 489 337 489C327 489 329 512 337 518Z"/>
<path id="z31204d6" d="M663 182C777 162 832 137 836 135C842 128 843 122 840 117C833 108 820 101 800 98C778 94 756 98 735 107C710 117 684 125 658 133C628 141 595 146 561 152C534 156 530 165 551 177C566 186 586 194 609 191C645 185 645 185 663 182Z"/>
<path id="z31204d7" d="M472 438C464 456 480 453 490 445C552 391 574 361 597 328C614 302 590 290 574 282C534 260 522 265 527 295C532 336 512 360 472 438Z"/>
<path id="z31204d8" d="M769 325C801 369 820 395 836 398C843 399 847 394 850 386C852 374 853 359 851 336C849 322 837 307 818 297C773 270 750 256 743 263C735 269 736 276 742 287C746 297 753 302 769 325Z"/>
<path id="z31204d9" d="M695 510C771 499 837 498 932 501C943 501 952 498 955 493C957 486 955 476 945 469C909 440 872 441 834 447C811 450 749 461 695 471C660 477 660 477 642 480C586 489 526 494 463 503C450 504 448 511 458 521C466 529 476 536 488 539C500 542 512 542 523 540C559 530 599 522 642 517C677 512 677 512 695 510Z"/>
<path id="z31204d10" d="M644 901C646 917 651 930 657 937C661 942 666 944 671 942C681 936 688 912 693 870C699 810 699 785 698 712C697 679 695 598 695 510C695 484 695 484 695 471C695 344 701 263 707 228C711 200 694 196 663 182C646 175 598 176 609 191C640 235 642 300 642 480C642 505 642 505 642 517C642 727 637 854 644 901Z"/>
<defs>
	<clipPath id="z31204c1"><use href="#z31204d1"/></clipPath>
	<clipPath id="z31204c2"><use href="#z31204d2"/></clipPath>
	<clipPath id="z31204c3"><use href="#z31204d3"/></clipPath>
	<clipPath id="z31204c4"><use href="#z31204d4"/></clipPath>
	<clipPath id="z31204c5"><use href="#z31204d5"/></clipPath>
	<clipPath id="z31204c6"><use href="#z31204d6"/></clipPath>
	<clipPath id="z31204c7"><use href="#z31204d7"/></clipPath>
	<clipPath id="z31204c8"><use href="#z31204d8"/></clipPath>
	<clipPath id="z31204c9"><use href="#z31204d9"/></clipPath>
	<clipPath id="z31204c10"><use href="#z31204d10"/></clipPath>
</defs>
<path style="--d:1s;" pathLength="3333" clip-path="url(#z31204c1)" d="M353 108L398 161L157 273"/>
<path style="--d:2s;" pathLength="3333" clip-path="url(#z31204c2)" d="M107 415L448 361"/>
<path style="--d:3s;" pathLength="3333" clip-path="url(#z31204c3)" d="M288 231L318 266L312 844"/>
<path style="--d:4s;" pathLength="3333" clip-path="url(#z31204c4)" d="M295 398L243 526L89 713"/>
<path style="--d:5s;" pathLength="3333" clip-path="url(#z31204c5)" d="M337 499L405 544L422 580"/>
<path style="--d:6s;" pathLength="3333" clip-path="url(#z31204c6)" d="M547 164L835 116"/>
<path style="--d:7s;" pathLength="3333" clip-path="url(#z31204c7)" d="M534 273L565 314L478 444"/>
<path style="--d:8s;" pathLength="3333" clip-path="url(#z31204c8)" d="M745 266L826 349L839 394"/>
<path style="--d:9s;" pathLength="3333" clip-path="url(#z31204c9)" d="M459 511L860 472L952 483"/>
<path style="--d:10s;" pathLength="3333" clip-path="url(#z31204c10)" d="M616 188L665 218L670 248L668 936"/>
</svg>