<!--
AnimCJK 2016-2026 Copyright FM-SH - https://github.com/parsimonhi/animCJK
Derived from:
    MakeMeAHanzi project - https://github.com/skishore/makemeahanzi
    Arphic PL KaitiM GB font
    Arphic PL KaitiM Big5 font
You can redistribute and/or modify this file under the terms of the Arphic Public License
as published by Arphic Technology Co., Ltd.
You should have received a copy of this license along with this file.
If not, see https://ftp.gnu.org/non-gnu/chinese-fonts-truetype/LICENSE.
-->
<svg id="z31256" class="acjk" viewBox="0 0 1024 1024" xmlns="http://www.w3.org/2000/svg">
<style>
<![CDATA[
@keyframes zk {
	to {
		stroke-dashoffset:0;
	}
}
svg.acjk path[clip-path] {
	--t:0.8s;
	animation:zk var(--t) linear forwards var(--d);
	stroke-dasharray:3337;
	stroke-dashoffset:3339;
	stroke-width:128;
	stroke-linecap:round;
	fill:none;
	stroke:#000;
}
svg.acjk path[id] {fill:#ccc;}
]]>
</style>
<path id="z31256d1" d="M313 226C335 217 409 184 451 170C469 163 481 152 462 139C405 99 360 90 360 119C360 145 290 190 156 264C150 267 152 275 158 276C176 277 241 252 283 237C303 230 303 230 313 226Z"/>
<path id="z31256d2" d="M344 404C372 396 405 390 441 383C478 375 449 353 440 350C418 341 388 346 345 358C330 362 371 351 302 370C202 397 131 408 91 415C74 417 64 430 89 448C115 466 145 470 173 459C217 441 256 427 289 419C326 409 326 409 344 404Z"/>
<path id="z31256d3" d="M345 358C347 245 372 256 313 226C304 221 279 227 283 237C297 276 302 327 302 370C301 455 301 455 301 498C299 629 298 725 280 781C270 809 277 843 314 893C328 913 336 899 341 890C350 868 349 846 349 827C344 713 343 618 343 514C343 492 343 492 343 481C343 455 343 429 344 404C345 373 345 373 345 358Z"/>
<path id="z31256d4" d="M289 419C248 499 173 598 67 718C61 723 63 728 72 730C81 731 206 650 301 498C340 432 323 351 289 419Z"/>
<path id="z31256d5" d="M343 514C395 566 421 591 423 593C427 595 455 601 445 545C441 527 410 497 343 481C332 479 335 506 343 514Z"/>
<path id="z31256d6" d="M777 285C807 279 847 272 870 259C891 246 860 229 840 224C821 219 802 222 779 230C744 241 744 241 727 246C674 262 629 270 593 276C560 281 560 281 543 283C523 285 493 287 476 290C451 293 448 300 465 312C483 323 518 332 547 327C576 322 576 322 590 319C634 310 680 300 728 293C761 288 761 288 777 285Z"/>
<path id="z31256d7" d="M593 276C594 249 596 230 599 220C602 205 599 192 590 183C576 169 558 160 539 152C530 148 522 147 516 152C509 155 508 163 513 174C527 208 539 244 543 283C546 312 546 312 547 327C551 379 547 478 545 624C545 638 586 633 586 619C586 558 586 558 586 527C586 509 586 509 586 500C586 472 586 446 587 423C588 404 588 404 588 394C589 358 589 333 590 319C592 290 592 290 593 276Z"/>
<path id="z31256d8" d="M762 596C768 488 775 337 777 285C778 248 778 248 779 230C779 205 785 160 801 97C803 88 798 79 784 70C759 55 737 48 720 45C707 42 699 43 694 50C689 55 688 64 695 75C714 106 725 131 725 152C725 182 726 214 727 246C728 277 728 277 728 293C729 348 725 492 719 602C719 616 762 610 762 596Z"/>
<path id="z31256d9" d="M587 423C629 414 682 405 689 404C703 400 708 394 702 387C694 378 682 373 666 372C641 370 615 377 588 394C580 399 578 425 587 423Z"/>
<path id="z31256d10" d="M586 527C608 522 654 517 688 512C702 509 707 503 701 495C694 486 682 480 666 479C644 476 617 484 586 500C578 505 577 529 586 527Z"/>
<path id="z31256d11" d="M545 624C502 629 448 635 403 640C388 641 386 647 397 659C405 668 416 674 429 679C442 683 455 682 466 680C567 653 727 639 924 639C934 639 946 639 958 640C970 640 980 638 983 632C986 624 982 614 972 606C932 575 892 570 854 580C827 586 797 591 762 596C733 600 733 600 719 602C703 604 687 605 671 608C643 611 614 615 586 619C559 622 559 622 545 624Z"/>
<path id="z31256d12" d="M540 714C530 749 485 802 398 868C384 878 385 880 403 880C485 870 549 806 611 755C619 747 636 728 593 710C550 692 543 700 540 714Z"/>
<path id="z31256d13" d="M716 725C752 763 792 810 836 865C846 879 855 889 867 893C872 895 878 891 885 885C894 875 895 855 889 825C880 786 822 744 719 693C711 689 708 690 707 700C705 708 708 716 716 725Z"/>
<defs>
	<clipPath id="z31256c1"><use href="#z31256d1"/></clipPath>
	<clipPath id="z31256c2"><use href="#z31256d2"/></clipPath>
	<clipPath id="z31256c3"><use href="#z31256d3"/></clipPath>
	<clipPath id="z31256c4"><use href="#z31256d4"/></clipPath>
	<clipPath id="z31256c5"><use href="#z31256d5"/></clipPath>
	<clipPath id="z31256c6"><use href="#z31256d6"/></clipPath>
	<clipPath id="z31256c7"><use href="#z31256d7"/></clipPath>
	<clipPath id="z31256c8"><use href="#z31256d8"/></clipPath>
	<clipPath id="z31256c9"><use href="#z31256d9"/></clipPath>
	<clipPath id="z31256c10"><use href="#z31256d10"/></clipPath>
	<clipPath id="z31256c11"><use href="#z31256d11"/></clipPath>
	<clipPath id="z31256c12"><use href="#z31256d12"/></clipPath>
	<clipPath id="z31256c13"><use href="#z31256d13"/></clipPath>
</defs>
<path style="--d:1s;" pathLength="3333" clip-path="url(#z31256c1)" d="M372 106L412 152L159 270"/>
<path style="--d:2s;" pathLength="3333" clip-path="url(#z31256c2)" d="M78 428L155 434L455 367"/>
<path style="--d:3s;" pathLength="3333" clip-path="url(#z31256c3)" d="M290 234L323 279L324 898"/>
<path style="--d:4s;" pathLength="3333" clip-path="url(#z31256c4)" d="M312 397L245 536L69 722"/>
<path style="--d:5s;" pathLength="3333" clip-path="url(#z31256c5)" d="M343 491L421 553L430 591"/>
<path style="--d:6s;" pathLength="3333" clip-path="url(#z31256c6)" d="M460 299L543 305L872 249"/>
<path style="--d:7s;" pathLength="3333" clip-path="url(#z31256c7)" d="M518 159L566 222L570 629"/>
<path style="--d:8s;" pathLength="3333" clip-path="url(#z31256c8)" d="M697 54L761 110L737 607"/>
<path style="--d:9s;" pathLength="3333" clip-path="url(#z31256c9)" d="M585 413L699 393"/>
<path style="--d:10s;" pathLength="3333" clip-path="url(#z31256c10)" d="M589 518L698 502"/>
<path style="--d:11s;" pathLength="3333" clip-path="url(#z31256c11)" d="M396 646L462 657L892 607L980 619"/>
<path style="--d:12s;" pathLength="3333" clip-path="url(#z31256c12)" d="M549 706L569 748L397 876"/>
<path style="--d:13s;" pathLength="3333" clip-path="url(#z31256c13)" d="M714 701L832 803L879 888"/>
</svg>