<!--
AnimCJK 2016-2025 Copyright FM-SH - https://github.com/parsimonhi/animCJK
Derived from:
    MakeMeAHanzi project - https://github.com/skishore/makemeahanzi
    Arphic PL KaitiM GB font
    Arphic PL UKai font
You can redistribute and/or modify this file under the terms of the Arphic Public License
as published by Arphic Technology Co., Ltd.
You should have received a copy of this license along with this file.
If not, see http://ftp.gnu.org/non-gnu/chinese-fonts-truetype/LICENSE.
-->
<svg id="z31263" class="acjk" version="1.1" viewBox="0 0 1024 1024" xmlns="http://www.w3.org/2000/svg" xmlns:xlink="http://www.w3.org/1999/xlink">
<style>
<![CDATA[
@keyframes zk {
	to {
		stroke-dashoffset:0;
	}
}
svg.acjk path[clip-path] {
	--t:0.8s;
	animation:zk var(--t) linear forwards var(--d);
	stroke-dasharray:3337;
	stroke-dashoffset:3339;
	stroke-width:128;
	stroke-linecap:round;
	fill:none;
	stroke:#000;
}
svg.acjk path[id] {fill:#ccc;}
]]>
</style>
<path id="z31263d1" d="M476 67C491 76 505 88 522 100C531 107 541 108 552 107C558 105 563 101 565 92C566 82 562 67 554 50C549 39 538 31 520 28C476 19 450 18 443 25C440 27 440 33 443 41C445 47 457 55 476 67Z"/>
<path id="z31263d2" d="M243 179C230 180 228 187 238 197C246 205 256 212 268 215C280 218 292 218 303 215C425 179 584 161 781 161C782 161 783 161 784 161C796 161 804 158 807 153C810 146 808 137 797 129C765 104 737 96 713 102C630 120 473 145 243 179Z"/>
<path id="z31263d3" d="M315 257C306 253 291 250 270 248C261 246 256 247 253 251C248 256 250 263 257 275C279 315 299 369 314 438C318 458 325 474 338 488C355 508 360 502 365 482C366 473 365 464 365 455C364 446 363 436 361 427C346 358 337 313 333 291C331 278 327 262 315 257Z"/>
<path id="z31263d4" d="M664 445C665 456 673 467 684 467C692 466 699 460 706 451C713 439 726 407 744 353C755 318 774 291 799 272C811 261 812 250 802 240C790 228 767 213 735 195C724 189 694 194 645 202C585 210 520 221 432 237C387 245 348 252 315 257C302 259 321 295 333 291C444 259 560 243 649 233C690 226 712 238 705 275C688 351 676 397 669 415C666 425 662 435 664 445Z"/>
<path id="z31263d5" d="M432 307C427 304 416 302 401 302C394 301 391 302 390 304C387 308 388 313 393 320C405 337 416 361 426 391C428 399 432 407 439 413C453 426 459 416 458 403C456 394 455 385 454 377C449 354 446 338 445 329C444 321 440 310 432 307Z"/>
<path id="z31263d6" d="M589 368C601 347 615 336 627 330C637 323 637 313 630 305C623 297 607 288 584 275C575 270 566 269 557 273C515 291 472 299 432 307C424 308 437 330 445 329C519 311 559 304 565 310C567 312 563 327 554 355C549 367 582 378 589 368Z"/>
<path id="z31263d7" d="M458 403C469 404 480 399 590 388C596 387 599 384 600 380C600 377 596 373 589 368C579 361 566 353 554 355C533 360 484 371 454 377C445 378 449 403 458 403Z"/>
<path id="z31263d8" d="M365 482C379 485 393 475 664 445C674 443 678 420 669 415C636 397 617 416 365 455C356 457 356 480 365 482Z"/>
<path id="z31263d9" d="M498 563C576 545 627 534 650 534C660 533 666 533 669 530C673 524 672 516 666 510C636 479 610 461 590 461C584 460 582 466 581 473C576 494 495 529 335 571C305 578 317 585 343 585C397 584 444 575 467 570C488 565 488 565 498 563Z"/>
<path id="z31263d10" d="M532 671C604 662 693 657 799 657C847 656 874 654 879 648C883 640 879 630 868 622C826 589 794 586 765 595C704 611 623 622 525 637C492 642 492 642 476 644C382 657 280 669 172 682C158 683 156 689 167 701C175 709 186 716 199 720C212 724 225 723 236 721C297 703 392 686 433 682C499 675 499 675 532 671Z"/>
<path id="z31263d11" d="M525 637C525 620 527 609 529 601C531 593 529 587 525 584C514 575 506 568 498 563C489 558 462 561 467 570C473 578 476 604 476 644C475 690 475 690 475 713C473 799 467 855 459 882C452 901 460 929 480 962C487 974 493 983 499 986C505 988 511 983 515 975C523 955 524 935 524 917C522 891 518 817 523 697C524 657 524 657 525 637Z"/>
<path id="z31263d12" d="M433 682C408 726 347 784 305 818C274 842 226 871 163 905C150 911 150 916 161 919C229 913 271 889 325 854C383 818 413 785 476 713C508 681 460 646 433 682Z"/>
<path id="z31263d13" d="M523 697C651 833 743 913 766 915C833 920 885 910 924 903C935 900 941 898 943 895C944 890 940 886 931 883C812 842 740 816 716 801C645 757 584 722 532 671C518 657 511 681 523 697Z"/>
<defs>
	<clipPath id="z31263c1"><use xlink:href="#z31263d1"/></clipPath>
	<clipPath id="z31263c2"><use xlink:href="#z31263d2"/></clipPath>
	<clipPath id="z31263c3"><use xlink:href="#z31263d3"/></clipPath>
	<clipPath id="z31263c4"><use xlink:href="#z31263d4"/></clipPath>
	<clipPath id="z31263c5"><use xlink:href="#z31263d5"/></clipPath>
	<clipPath id="z31263c6"><use xlink:href="#z31263d6"/></clipPath>
	<clipPath id="z31263c7"><use xlink:href="#z31263d7"/></clipPath>
	<clipPath id="z31263c8"><use xlink:href="#z31263d8"/></clipPath>
	<clipPath id="z31263c9"><use xlink:href="#z31263d9"/></clipPath>
	<clipPath id="z31263c10"><use xlink:href="#z31263d10"/></clipPath>
	<clipPath id="z31263c11"><use xlink:href="#z31263d11"/></clipPath>
	<clipPath id="z31263c12"><use xlink:href="#z31263d12"/></clipPath>
	<clipPath id="z31263c13"><use xlink:href="#z31263d13"/></clipPath>
</defs>
<path style="--d:1s;" pathLength="3333" clip-path="url(#z31263c1)" d="M448 29L559 95"/>
<path style="--d:2s;" pathLength="3333" clip-path="url(#z31263c2)" d="M237 185L293 194L732 130L804 142"/>
<path style="--d:3s;" pathLength="3333" clip-path="url(#z31263c3)" d="M259 255L303 297L353 494"/>
<path style="--d:4s;" pathLength="3333" clip-path="url(#z31263c4)" d="M318 264L643 217L723 223L755 268L676 460"/>
<path style="--d:5s;" pathLength="3333" clip-path="url(#z31263c5)" d="M396 309L423 328L449 414"/>
<path style="--d:6s;" pathLength="3333" clip-path="url(#z31263c6)" d="M440 316L573 293L599 317L566 367"/>
<path style="--d:7s;" pathLength="3333" clip-path="url(#z31263c7)" d="M453 387L594 379"/>
<path style="--d:8s;" pathLength="3333" clip-path="url(#z31263c8)" d="M361 468L670 430"/>
<path style="--d:9s;" pathLength="3333" clip-path="url(#z31263c9)" d="M589 470L616 513L329 580"/>
<path style="--d:10s;" pathLength="3333" clip-path="url(#z31263c10)" d="M168 690L223 699L766 625L874 634"/>
<path style="--d:11s;" pathLength="3333" clip-path="url(#z31263c11)" d="M474 570L502 608L501 980"/>
<path style="--d:12s;" pathLength="3333" clip-path="url(#z31263c12)" d="M479 679L318 834L161 912"/>
<path style="--d:13s;" pathLength="3333" clip-path="url(#z31263c13)" d="M524 672L752 862L935 891"/>
</svg>