<!--
AnimCJK 2016-2019 Copyright Francois Mizessyn - https://github.com/parsimonhi/animCJK
Derived from:
    MakeMeAHanzi project - https://github.com/skishore/makemeahanzi
    Arphic PL KaitiM GB font
    Arphic PL UKai font
You can redistribute and/or modify this file under the terms of the Arphic Public License
as published by Arphic Technology Co., Ltd.
You should have received a copy of this license along with this file.
If not, see http://ftp.gnu.org/non-gnu/chinese-fonts-truetype/LICENSE.
-->
<svg id="z31291" class="acjk" version="1.1" viewBox="0 0 1024 1024" xmlns="http://www.w3.org/2000/svg" xmlns:xlink="http://www.w3.org/1999/xlink">
<style>
<![CDATA[
@keyframes zk {
	to {
		stroke-dashoffset:0;
	}
}
svg.acjk path[clip-path] {
	--t:0.8s;
	animation:zk var(--t) linear forwards var(--d);
	stroke-dasharray:3337;
	stroke-dashoffset:3339;
	stroke-width:128;
	stroke-linecap:round;
	fill:none;
	stroke:#000;
}
svg.acjk path[id] {fill:#ccc;}
]]>
</style>
<path id="z31291d1" d="M283 230Q361 199 408 191Q424 191 428 184Q432 174 421 163Q402 147 359 129Q346 122 332 122Q325 126 324 136Q324 175 125 257Q121 264 125 268Q137 271 227 246Q240 242 253 240C273 233 273 233 283 230Z"/>
<path id="z31291d2" d="M311 406Q357 393 414 381Q430 378 431 371Q431 358 413 350Q380 338 312 361C285 368 285 368 271 372Q150 399 95 409Q82 410 80 419Q77 429 93 440Q135 467 179 447Q221 429 256 420C293 411 293 411 311 406Z"/>
<path id="z31291d3" d="M310 472Q310 439 311 406C312 376 312 376 312 361Q313 300 319 271Q320 258 314 253Q298 238 283 230C274 225 248 231 253 240Q271 265 271 372C270 456 270 456 270 498Q270 687 250 769Q235 779 260 834Q272 870 292 882Q302 883 308 870Q320 839 316 810Q310 644 310 502C310 482 310 482 310 472Z"/>
<path id="z31291d4" d="M256 420Q202 552 42 755Q38 765 48 766Q54 767 63 758Q192 649 271 498C308 436 279 350 256 419C256 420 256 420 256 420Z"/>
<path id="z31291d5" d="M310 502Q355 559 373 561Q383 562 389 549Q390 539 385 523Q376 505 355 494Q327 478 310 472C301 468 304 494 310 502Z"/>
<path id="z31291d6" d="M695 119C655 147 599 171 528 202C522 204 524 212 527 214C543 221 607 204 687 184C712 177 751 164 775 163C785 162 791 162 794 156C797 150 797 141 791 133C761 96 735 79 718 81C714 82 711 87 709 95C707 105 703 113 695 119Z"/>
<path id="z31291d7" d="M526 257C520 258 512 261 513 268C515 275 518 281 516 289C514 301 507 312 501 324C484 356 464 386 445 417C442 422 444 432 451 429C459 428 463 420 468 416C498 388 527 360 556 331C565 321 576 314 586 307C593 302 596 293 591 286C583 277 572 272 561 266C550 261 538 256 526 257Z"/>
<path id="z31291d8" d="M655 297C671 333 688 358 705 374C712 377 720 376 728 371C734 365 737 356 739 346C738 322 716 296 675 268C667 262 659 260 653 260C650 260 648 264 647 271C645 278 648 287 655 297Z"/>
<path id="z31291d9" d="M774 229C767 230 766 239 766 245C766 257 774 268 781 278C804 309 826 340 845 374C851 387 866 398 881 395C895 390 899 374 897 361C894 332 879 305 857 285C837 267 815 251 793 237C787 233 781 230 774 229Z"/>
<path id="z31291d10" d="M480 539Q504 526 520 515Q571 482 589 475Q605 468 599 454Q589 441 571 429Q553 417 543 419Q533 419 536 429Q537 450 495 495Q480 510 466 526C462 531 474 542 480 539Z"/>
<path id="z31291d11" d="M466 526Q456 520 429 514Q417 510 413 515Q406 521 414 537Q445 622 456 755Q456 795 477 824Q493 846 499 831Q503 821 505 808C506 784 506 784 506 772Q500 723 493 670C490 649 490 649 489 638Q482 568 481 550Q481 543 480 539C479 533 472 529 466 526Z"/>
<path id="z31291d12" d="M493 670Q551 657 596 649Q618 643 610 632Q598 619 572 615Q532 612 489 638C480 644 482 672 493 670Z"/>
<path id="z31291d13" d="M760 789Q769 814 789 860Q796 876 807 876Q822 875 832 850Q866 786 874 700Q883 646 890 584Q897 541 921 516Q937 500 927 487Q909 466 870 445Q854 435 824 443Q797 453 766 461Q736 467 691 472Q684 471 682 475Q681 481 690 488Q717 504 752 499Q827 483 833 494Q837 507 839 521Q836 561 831 604C828 629 828 629 826 641Q819 695 806 748Q803 767 794 770Q793 770 791 770C779 772 755 778 760 789Z"/>
<path id="z31291d14" d="M831 604Q803 589 697 619Q679 620 699 639Q706 645 720 644Q778 641 826 641C838 641 843 609 831 604Z"/>
<path id="z31291d15" d="M505 808Q512 809 522 808Q598 793 760 789C772 789 800 779 791 770Q784 760 764 746Q748 736 714 742Q599 763 506 772C494 772 493 808 505 808Z"/>
<defs>
	<clipPath id="z31291c1"><use xlink:href="#z31291d1"/></clipPath>
	<clipPath id="z31291c2"><use xlink:href="#z31291d2"/></clipPath>
	<clipPath id="z31291c3"><use xlink:href="#z31291d3"/></clipPath>
	<clipPath id="z31291c4"><use xlink:href="#z31291d4"/></clipPath>
	<clipPath id="z31291c5"><use xlink:href="#z31291d5"/></clipPath>
	<clipPath id="z31291c6"><use xlink:href="#z31291d6"/></clipPath>
	<clipPath id="z31291c7"><use xlink:href="#z31291d7"/></clipPath>
	<clipPath id="z31291c8"><use xlink:href="#z31291d8"/></clipPath>
	<clipPath id="z31291c9"><use xlink:href="#z31291d9"/></clipPath>
	<clipPath id="z31291c10"><use xlink:href="#z31291d10"/></clipPath>
	<clipPath id="z31291c11"><use xlink:href="#z31291d11"/></clipPath>
	<clipPath id="z31291c12"><use xlink:href="#z31291d12"/></clipPath>
	<clipPath id="z31291c13"><use xlink:href="#z31291d13"/></clipPath>
	<clipPath id="z31291c14"><use xlink:href="#z31291d14"/></clipPath>
	<clipPath id="z31291c15"><use xlink:href="#z31291d15"/></clipPath>
</defs>
<path style="--d:1s;" pathLength="3333" clip-path="url(#z31291c1)" d="M423 181L338 165L277 209L131 261"/>
<path style="--d:2s;" pathLength="3333" clip-path="url(#z31291c2)" d="M86 419L140 428L425 366"/>
<path style="--d:3s;" pathLength="3333" clip-path="url(#z31291c3)" d="M261 246L293 279L294 874"/>
<path style="--d:4s;" pathLength="3333" clip-path="url(#z31291c4)" d="M264 425L209 559L48 756"/>
<path style="--d:5s;" pathLength="3333" clip-path="url(#z31291c5)" d="M315 484L383 554"/>
<path style="--d:6s;" pathLength="3333" clip-path="url(#z31291c6)" d="M794 150L722 125L677 161L534 206"/>
<path style="--d:7s;" pathLength="3333" clip-path="url(#z31291c7)" d="M518 262L545 304L448 418"/>
<path style="--d:8s;" pathLength="3333" clip-path="url(#z31291c8)" d="M655 266L717 371"/>
<path style="--d:9s;" pathLength="3333" clip-path="url(#z31291c9)" d="M777 236L855 318L875 390"/>
<path style="--d:10s;" pathLength="3333" clip-path="url(#z31291c10)" d="M545 422L562 461L472 531"/>
<path style="--d:11s;" pathLength="3333" clip-path="url(#z31291c11)" d="M416 520L453 560L490 831"/>
<path style="--d:12s;" pathLength="3333" clip-path="url(#z31291c12)" d="M495 663L603 634"/>
<path style="--d:13s;" pathLength="3333" clip-path="url(#z31291c13)" d="M689 477L835 465L883 500L797 869"/>
<path style="--d:14s;" pathLength="3333" clip-path="url(#z31291c14)" d="M697 629L829 615"/>
<path style="--d:15s;" pathLength="3333" clip-path="url(#z31291c15)" d="M515 800L783 773"/>
</svg>