<!--
AnimCJK 2016-2018 Copyright Francois Mizessyn, https://github.com/parsimonhi/animCJK
Derived from:
    MakeMeAHanzi project - https://github.com/skishore/makemeahanzi
    Arphic PL KaitiM GB - https://apps.ubuntu.com/cat/applications/precise/fonts-arphic-gkai00mp/
    Arphic PL UKai - https://apps.ubuntu.com/cat/applications/fonts-arphic-ukai/
You can redistribute and/or modify this file under the terms of the Arphic Public License
as published by Arphic Technology Co., Ltd.
You should have received a copy of this license (the directory "APL") along with this file;
if not, see http://ftp.gnu.org/non-gnu/chinese-fonts-truetype/LICENSE.
-->
<svg id="z31309" class="acjk" version="1.1" viewBox="0 0 1024 1024" xmlns="http://www.w3.org/2000/svg" xmlns:xlink="http://www.w3.org/1999/xlink">
<style>
<![CDATA[
@keyframes z31309k {
	from {
		stroke:#c00;
		stroke-dashoffset:3334;
	}
	75% {
		stroke:#c00;
		stroke-dashoffset:0;
	}
	to {
		stroke:#000;
	}
}
#z31309 path[clip-path] {
	animation:z31309k 1s linear both;
	stroke-dasharray:3334;
	stroke-width:128;
	stroke-linecap:round;
	fill:none;
}
#z31309 path[clip-path="url(#z31309c1)"] {animation-delay:1s;}
#z31309 path[clip-path="url(#z31309c2)"] {animation-delay:2s;}
#z31309 path[clip-path="url(#z31309c3)"] {animation-delay:3s;}
#z31309 path[clip-path="url(#z31309c4)"] {animation-delay:4s;}
#z31309 path[clip-path="url(#z31309c5)"] {animation-delay:5s;}
#z31309 path[clip-path="url(#z31309c6)"] {animation-delay:6s;}
#z31309 path[clip-path="url(#z31309c7)"] {animation-delay:7s;}
#z31309 path[clip-path="url(#z31309c8)"] {animation-delay:8s;}
#z31309 path[clip-path="url(#z31309c9)"] {animation-delay:9s;}
#z31309 path[clip-path="url(#z31309c10)"] {animation-delay:10s;}
#z31309 path[clip-path="url(#z31309c11)"] {animation-delay:11s;}
#z31309 path[clip-path="url(#z31309c12)"] {animation-delay:12s;}
#z31309 path[clip-path="url(#z31309c13)"] {animation-delay:13s;}
#z31309 path[clip-path="url(#z31309c14)"] {animation-delay:14s;}
#z31309 path[clip-path="url(#z31309c15)"] {animation-delay:15s;}
#z31309 path[clip-path="url(#z31309c16)"] {animation-delay:16s;}
#z31309 path {fill:#ccc;}
]]>
</style>
<path id="z31309d1" d="M316 219Q397 174 427 166Q443 165 445 156Q446 146 435 137Q414 125 372 114Q357 108 345 111Q339 115 340 125Q341 159 188 257Q184 266 189 268Q201 268 273 237Q279 234 285 232L316 219 Z"/>
<path id="z31309d2" d="M341 379Q377 369 423 360Q439 357 439 350Q439 337 421 331Q394 319 343 337L299 350Q134 395 78 403Q66 404 64 413Q61 423 76 433Q116 457 153 441Q225 414 277 397L341 379 Z"/>
<path id="z31309d3" d="M338 481Q338 442 341 379L343 337Q344 288 351 261Q354 248 347 242Q331 227 316 219L285 232Q298 253 299 350L297 463Q281 761 268 793Q259 832 292 883Q304 902 312 906Q324 907 329 894Q342 863 338 831Q335 654 337 503L338 481 Z"/>
<path id="z31309d4" d="M277 397Q222 533 54 743Q50 753 60 754Q66 755 75 746Q214 632 297 463L298 392L277 397 Z"/>
<path id="z31309d5" d="M337 503Q344 510 361 522Q386 543 414 567Q427 577 440 576Q449 575 453 564Q457 551 448 525Q435 497 355 481Q342 480 338 481L337 503 Z"/>
<path id="z31309d6" d="M698 184Q741 171 787 161Q830 149 836 143Q843 136 839 129Q832 120 809 115Q784 111 761 122Q731 132 701 144L648 159Q596 172 534 182Q504 188 526 200Q559 218 608 205Q627 199 649 195L698 184 Z"/>
<path id="z31309d7" d="M687 348Q688 314 691 281L694 241Q695 211 698 184L701 144Q704 114 714 83Q717 73 699 61Q668 45 647 41Q634 38 626 45Q619 52 627 65Q643 89 648 159L649 195Q650 223 650 255L650 291Q650 321 650 354L687 348 Z"/>
<path id="z31309d8" d="M691 281Q728 271 768 263Q799 256 804 251Q811 244 807 237Q800 228 777 223Q755 219 694 241L650 255Q610 264 562 270Q532 276 554 288Q593 307 648 291L650 291L691 281 Z"/>
<path id="z31309d9" d="M650 354Q548 370 433 389Q417 392 430 405Q457 429 487 420Q688 357 949 356Q950 356 952 356Q968 355 972 348Q976 338 962 328Q917 298 887 306Q812 322 687 348L650 354 Z"/>
<path id="z31309d10" d="M562 459Q546 449 529 444Q522 443 517 449Q514 453 520 462Q553 546 529 667Q520 694 525 713Q534 740 543 750Q553 760 560 749Q564 742 568 733L576 701Q577 688 578 641L578 618Q578 591 578 562L578 537Q578 498 581 485L562 459 Z"/>
<path id="z31309d11" d="M762 713Q762 728 772 743Q785 771 794 770Q807 769 823 737Q833 716 835 683Q813 530 844 479Q854 464 847 456Q822 434 778 415Q765 409 743 417Q692 438 562 459L581 485Q581 484 582 484Q667 465 728 454Q749 450 756 461Q768 476 769 527Q772 651 766 690L762 713 Z"/>
<path id="z31309d12" d="M578 562Q647 562 723 537Q723 536 724 536Q730 530 726 524Q722 517 701 511Q679 508 659 517Q650 520 578 537L578 562 Z"/>
<path id="z31309d13" d="M578 641Q593 644 697 628Q701 627 707 626Q725 622 727 620Q733 614 730 608Q726 601 705 595Q684 591 663 599Q644 606 621 611Q600 615 578 618L578 641 Z"/>
<path id="z31309d14" d="M568 733Q574 734 584 732Q639 720 762 713L766 690Q759 684 748 677Q732 668 704 675Q634 691 576 701L568 733 Z"/>
<path id="z31309d15" d="M565 776Q550 833 394 941Q372 953 398 952Q450 955 580 857Q583 850 628 815Q638 805 638 796Q637 783 613 774Q588 762 576 764Q569 764 565 776 Z"/>
<path id="z31309d16" d="M713 809Q755 861 804 935Q817 957 831 964Q840 967 849 958Q864 946 858 900Q855 846 719 778Q710 771 707 784Q704 797 713 809 Z"/>
<defs>
	<clipPath id="z31309c1"><use xlink:href="#z31309d1"/></clipPath>
	<clipPath id="z31309c2"><use xlink:href="#z31309d2"/></clipPath>
	<clipPath id="z31309c3"><use xlink:href="#z31309d3"/></clipPath>
	<clipPath id="z31309c4"><use xlink:href="#z31309d4"/></clipPath>
	<clipPath id="z31309c5"><use xlink:href="#z31309d5"/></clipPath>
	<clipPath id="z31309c6"><use xlink:href="#z31309d6"/></clipPath>
	<clipPath id="z31309c7"><use xlink:href="#z31309d7"/></clipPath>
	<clipPath id="z31309c8"><use xlink:href="#z31309d8"/></clipPath>
	<clipPath id="z31309c9"><use xlink:href="#z31309d9"/></clipPath>
	<clipPath id="z31309c10"><use xlink:href="#z31309d10"/></clipPath>
	<clipPath id="z31309c11"><use xlink:href="#z31309d11"/></clipPath>
	<clipPath id="z31309c12"><use xlink:href="#z31309d12"/></clipPath>
	<clipPath id="z31309c13"><use xlink:href="#z31309d13"/></clipPath>
	<clipPath id="z31309c14"><use xlink:href="#z31309d14"/></clipPath>
	<clipPath id="z31309c15"><use xlink:href="#z31309d15"/></clipPath>
	<clipPath id="z31309c16"><use xlink:href="#z31309d16"/></clipPath>
</defs>
<path pathLength="3333" clip-path="url(#z31309c1)" d="M439 152L362 149L194 261"/>
<path pathLength="3333" clip-path="url(#z31309c2)" d="M71 414L130 420L431 346"/>
<path pathLength="3333" clip-path="url(#z31309c3)" d="M293 235L323 266L314 901"/>
<path pathLength="3333" clip-path="url(#z31309c4)" d="M291 401L213 563L63 748"/>
<path pathLength="3333" clip-path="url(#z31309c5)" d="M345 491L443 571"/>
<path pathLength="3333" clip-path="url(#z31309c6)" d="M528 192L834 135"/>
<path pathLength="3333" clip-path="url(#z31309c7)" d="M630 48L676 87L661 350"/>
<path pathLength="3333" clip-path="url(#z31309c8)" d="M556 280L801 240"/>
<path pathLength="3333" clip-path="url(#z31309c9)" d="M432 394L882 332L969 340"/>
<path pathLength="3333" clip-path="url(#z31309c10)" d="M524 451L556 496L543 747"/>
<path pathLength="3333" clip-path="url(#z31309c11)" d="M571 462L762 434L807 475L792 765"/>
<path pathLength="3333" clip-path="url(#z31309c12)" d="M586 554L722 528"/>
<path pathLength="3333" clip-path="url(#z31309c13)" d="M588 633L726 612"/>
<path pathLength="3333" clip-path="url(#z31309c14)" d="M576 727L762 699"/>
<path pathLength="3333" clip-path="url(#z31309c15)" d="M634 797L588 800L514 877L393 945"/>
<path pathLength="3333" clip-path="url(#z31309c16)" d="M714 781L817 889L841 958"/>
</svg>