<!--
AnimCJK 2016-2018 Copyright Francois Mizessyn, https://github.com/parsimonhi/animCJK
Derived from:
    MakeMeAHanzi project - https://github.com/skishore/makemeahanzi
    Arphic PL KaitiM GB - https://apps.ubuntu.com/cat/applications/precise/fonts-arphic-gkai00mp/
    Arphic PL UKai - https://apps.ubuntu.com/cat/applications/fonts-arphic-ukai/
You can redistribute and/or modify this file under the terms of the Arphic Public License
as published by Arphic Technology Co., Ltd.
You should have received a copy of this license (the directory "APL") along with this file;
if not, see http://ftp.gnu.org/non-gnu/chinese-fonts-truetype/LICENSE.
-->
<svg id="z31331" class="acjk" version="1.1" viewBox="0 0 1024 1024" xmlns="http://www.w3.org/2000/svg" xmlns:xlink="http://www.w3.org/1999/xlink">
<style>
<![CDATA[
@keyframes z31331k {
	from {
		stroke:#c00;
		stroke-dashoffset:3334;
	}
	75% {
		stroke:#c00;
		stroke-dashoffset:0;
	}
	to {
		stroke:#000;
	}
}
#z31331 path[clip-path] {
	animation:z31331k 1s linear both;
	stroke-dasharray:3334;
	stroke-width:128;
	stroke-linecap:round;
	fill:none;
}
#z31331 path[clip-path="url(#z31331c1)"] {animation-delay:1s;}
#z31331 path[clip-path="url(#z31331c2)"] {animation-delay:2s;}
#z31331 path[clip-path="url(#z31331c3)"] {animation-delay:3s;}
#z31331 path[clip-path="url(#z31331c4)"] {animation-delay:4s;}
#z31331 path[clip-path="url(#z31331c5)"] {animation-delay:5s;}
#z31331 path[clip-path="url(#z31331c6)"] {animation-delay:6s;}
#z31331 path[clip-path="url(#z31331c7)"] {animation-delay:7s;}
#z31331 path[clip-path="url(#z31331c8)"] {animation-delay:8s;}
#z31331 path[clip-path="url(#z31331c9)"] {animation-delay:9s;}
#z31331 path[clip-path="url(#z31331c10)"] {animation-delay:10s;}
#z31331 path[clip-path="url(#z31331c11)"] {animation-delay:11s;}
#z31331 path[clip-path="url(#z31331c12)"] {animation-delay:12s;}
#z31331 path[clip-path="url(#z31331c13)"] {animation-delay:13s;}
#z31331 path[clip-path="url(#z31331c14)"] {animation-delay:14s;}
#z31331 path[clip-path="url(#z31331c15)"] {animation-delay:15s;}
#z31331 path[clip-path="url(#z31331c16)"] {animation-delay:16s;}
#z31331 path[clip-path="url(#z31331c17)"] {animation-delay:17s;}
#z31331 path[clip-path="url(#z31331c18)"] {animation-delay:18s;}
#z31331 path {fill:#ccc;}
]]>
</style>
<path id="z31331d1" d="M297 234Q375 198 423 186Q439 185 443 176Q447 166 434 155Q412 140 368 125Q352 118 340 120Q333 124 332 135Q335 174 156 264Q152 273 158 276Q179 276 251 249Q257 248 266 245L297 234 Z"/>
<path id="z31331d2" d="M325 409Q356 399 392 390Q408 386 408 379Q408 366 389 359Q352 347 327 363L281 378Q130 427 61 441Q48 444 46 452Q45 462 60 472Q105 496 141 477Q247 429 270 426L325 409 Z"/>
<path id="z31331d3" d="M278 516Q277 528 277 542Q265 764 247 808Q238 850 272 902Q284 921 292 927Q304 928 310 914Q323 880 320 848Q319 662 321 505L322 488Q322 461 325 409L327 363Q330 308 336 279Q339 266 331 260Q312 244 297 234L266 245Q281 269 281 378L278 516 Z"/>
<path id="z31331d4" d="M270 426Q222 546 70 739Q66 749 76 750Q82 751 91 742Q202 652 278 516L280 423L270 426 Z"/>
<path id="z31331d5" d="M321 505Q372 556 402 553Q412 552 415 537Q414 527 404 513Q383 488 325 487Q322 487 322 488L321 505 Z"/>
<path id="z31331d6" d="M596 112Q657 148 674 145Q684 142 685 128Q686 113 670 88Q655 66 580 69Q564 69 559 73Q555 77 560 89Q566 99 596 112 Z"/>
<path id="z31331d7" d="M401 225Q385 228 398 241Q422 262 473 248Q653 194 854 193L856 193Q872 192 876 184Q880 174 866 164Q821 133 763 150Q640 180 401 225 Z"/>
<path id="z31331d8" d="M508 292Q500 309 416 417Q410 429 423 425Q459 395 544 318Q555 305 574 296Q589 287 579 277Q568 266 546 259Q526 251 517 255Q508 256 512 265Q517 278 508 292 Z"/>
<path id="z31331d9" d="M707 252Q758 287 818 341Q835 357 848 359Q855 360 862 351Q873 340 859 304Q844 259 706 227Q697 222 696 233Q696 245 707 252 Z"/>
<path id="z31331d10" d="M721 425Q772 415 815 410Q822 411 830 401Q831 391 813 384Q809 380 796 376Q781 370 728 388L674 403Q670 403 667 404Q631 413 597 422L548 430Q511 434 471 440Q449 444 466 457Q487 474 526 468Q538 465 554 461L595 452Q629 443 674 434L721 425 Z"/>
<path id="z31331d11" d="M597 422Q597 421 598 419Q601 401 589 390Q571 374 550 367Q540 363 532 368Q526 372 531 385Q541 405 548 430L554 461Q555 478 558 511L560 544Q561 568 564 599L597 592Q596 562 595 537L595 502Q595 477 595 452L597 422 Z"/>
<path id="z31331d12" d="M702 569Q705 539 710 513L715 472Q716 447 721 425L728 388Q732 377 735 369Q738 362 723 348Q698 332 680 328Q668 325 662 331Q656 338 661 349Q673 368 674 403L674 434Q674 457 674 482L673 520Q672 547 670 576L702 569 Z"/>
<path id="z31331d13" d="M710 513Q752 503 792 498Q813 495 805 484Q795 470 773 465Q752 461 715 472L674 482Q632 492 595 502L558 511Q518 518 482 528Q467 531 486 544Q501 555 532 550Q544 547 560 544L595 537Q635 528 673 520L710 513 Z"/>
<path id="z31331d14" d="M563 627Q608 612 870 586Q885 585 888 578Q892 569 879 559Q833 528 785 547Q748 556 702 569L670 576Q648 580 628 585Q612 586 597 592L564 599Q488 613 404 631Q388 632 401 645Q411 656 426 659Q442 662 454 658Q491 644 533 634L563 627 Z"/>
<path id="z31331d15" d="M590 642C587 633 575 631 563 627L533 634C518 694 491 730 358 813C345 821 346 824 362 824C422 824 495 763 523 737L555 705C569 690 581 680 590 673C593 670 598 667 597 664 Z"/>
<path id="z31331d16" d="M523 737Q548 818 510 884Q482 927 527 970Q528 971 531 973Q541 980 553 961Q580 922 673 824Q689 810 690 802Q691 788 672 800Q584 854 575 852Q569 848 569 830Q575 766 579 750Q583 731 571 719Q564 709 555 705L523 737 Z"/>
<path id="z31331d17" d="M747 747Q814 703 849 688Q865 684 862 675Q858 661 842 642Q827 625 808 622Q795 622 795 639Q796 658 733 737L747 747 Z"/>
<path id="z31331d18" d="M733 737C707 718 684 694 660 671C637 649 616 639 597 640C594 640 592 640 590 642L597 664C623 679 659 719 712 778C776 849 813 884 836 885C884 887 907 876 948 869C967 865 977 861 975 855C973 850 945 843 894 828C819 806 790 778 747 747 Z"/>
<defs>
	<clipPath id="z31331c1"><use xlink:href="#z31331d1"/></clipPath>
	<clipPath id="z31331c2"><use xlink:href="#z31331d2"/></clipPath>
	<clipPath id="z31331c3"><use xlink:href="#z31331d3"/></clipPath>
	<clipPath id="z31331c4"><use xlink:href="#z31331d4"/></clipPath>
	<clipPath id="z31331c5"><use xlink:href="#z31331d5"/></clipPath>
	<clipPath id="z31331c6"><use xlink:href="#z31331d6"/></clipPath>
	<clipPath id="z31331c7"><use xlink:href="#z31331d7"/></clipPath>
	<clipPath id="z31331c8"><use xlink:href="#z31331d8"/></clipPath>
	<clipPath id="z31331c9"><use xlink:href="#z31331d9"/></clipPath>
	<clipPath id="z31331c10"><use xlink:href="#z31331d10"/></clipPath>
	<clipPath id="z31331c11"><use xlink:href="#z31331d11"/></clipPath>
	<clipPath id="z31331c12"><use xlink:href="#z31331d12"/></clipPath>
	<clipPath id="z31331c13"><use xlink:href="#z31331d13"/></clipPath>
	<clipPath id="z31331c14"><use xlink:href="#z31331d14"/></clipPath>
	<clipPath id="z31331c15"><use xlink:href="#z31331d15"/></clipPath>
	<clipPath id="z31331c16"><use xlink:href="#z31331d16"/></clipPath>
	<clipPath id="z31331c17"><use xlink:href="#z31331d17"/></clipPath>
	<clipPath id="z31331c18"><use xlink:href="#z31331d18"/></clipPath>
</defs>
<path pathLength="3333" clip-path="url(#z31331c1)" d="M438 170L354 163L163 270"/>
<path pathLength="3333" clip-path="url(#z31331c2)" d="M53 454L113 457L355 376L403 378"/>
<path pathLength="3333" clip-path="url(#z31331c3)" d="M276 249L307 282L287 920"/>
<path pathLength="3333" clip-path="url(#z31331c4)" d="M274 432L220 568L74 743"/>
<path pathLength="3333" clip-path="url(#z31331c5)" d="M329 495L409 544"/>
<path pathLength="3333" clip-path="url(#z31331c6)" d="M563 80L682 130"/>
<path pathLength="3333" clip-path="url(#z31331c7)" d="M400 231L791 169L873 180"/>
<path pathLength="3333" clip-path="url(#z31331c8)" d="M520 262L541 296L422 418"/>
<path pathLength="3333" clip-path="url(#z31331c9)" d="M703 236L811 295L855 353"/>
<path pathLength="3333" clip-path="url(#z31331c10)" d="M469 449L823 398"/>
<path pathLength="3333" clip-path="url(#z31331c11)" d="M536 374L571 412L578 595"/>
<path pathLength="3333" clip-path="url(#z31331c12)" d="M666 337L703 373L678 570"/>
<path pathLength="3333" clip-path="url(#z31331c13)" d="M482 534L800 484"/>
<path pathLength="3333" clip-path="url(#z31331c14)" d="M404 637L809 566L885 573"/>
<path pathLength="3333" clip-path="url(#z31331c15)" d="M592 660L544 670L440 780L363 817"/>
<path pathLength="3333" clip-path="url(#z31331c16)" d="M553 715L541 885L553 923L683 801"/>
<path pathLength="3333" clip-path="url(#z31331c17)" d="M807 626L823 671L740 737"/>
<path pathLength="3333" clip-path="url(#z31331c18)" d="M599 650L833 842L959 855"/>
</svg>