<!--
AnimCJK 2016-2017 Copyright Francois Mizessyn, http://gooo.free.fr/animCJK/
Derived from:
    MakeMeAHanzi project - https://github.com/skishore/makemeahanzi
    Arphic PL KaitiM GB - https://apps.ubuntu.com/cat/applications/precise/fonts-arphic-gkai00mp/
    Arphic PL UKai - https://apps.ubuntu.com/cat/applications/fonts-arphic-ukai/
You can redistribute and/or modify this file under the terms of the Arphic Public License
as published by Arphic Technology Co., Ltd.
You should have received a copy of this license (the directory "APL") along with this file;
if not, see http://ftp.gnu.org/non-gnu/chinese-fonts-truetype/LICENSE.
-->
<svg id="z31359" class="acjk" version="1.1" viewBox="0 0 1024 1024" xmlns="http://www.w3.org/2000/svg" xmlns:xlink="http://www.w3.org/1999/xlink">
<style>
<![CDATA[
@keyframes z31359k {
	from {
		stroke:#c00;
		stroke-dashoffset:3334;
	}
	75% {
		stroke:#c00;
		stroke-dashoffset:0;
	}
	to {
		stroke:#000;
	}
}
#z31359 path[clip-path] {
	animation:z31359k 1s linear both;
	stroke-dasharray:3334;
	stroke-width:128;
	stroke-linecap:round;
	fill:none;
}
#z31359 path[clip-path="url(#z31359c1)"] {animation-delay:1s;}
#z31359 path[clip-path="url(#z31359c2)"] {animation-delay:2s;}
#z31359 path[clip-path="url(#z31359c3)"] {animation-delay:3s;}
#z31359 path[clip-path="url(#z31359c4)"] {animation-delay:4s;}
#z31359 path[clip-path="url(#z31359c5)"] {animation-delay:5s;}
#z31359 path[clip-path="url(#z31359c6)"] {animation-delay:6s;}
#z31359 path[clip-path="url(#z31359c7)"] {animation-delay:7s;}
#z31359 path[clip-path="url(#z31359c8)"] {animation-delay:8s;}
#z31359 path[clip-path="url(#z31359c9)"] {animation-delay:9s;}
#z31359 path {fill:#ccc;}
]]>
</style>
<path id="z31359d1" d="M 460,82 C 490,112 514,128 540,139 550,139 557,136 563,128 565,119 566,109 565,99 553,68 525,52 473,44 L 470,43 C 459,41 451,41 445,44 441,44 440,49 442,58 444,64 450,72 460,82 Z"/>
<path id="z31359d2" d="M 250,207 C 244,197 238,190 233,187 220,178 214,182 214,200 218,222 205,252 174,290 153,308 153,338 175,379 185,395 197,395 210,377 226,331 242,285 260,240 Z"/>
<path id="z31359d3" d="M 260,240 C 276,248 296,249 320,244 424,213 559,193 723,183 733,183 741,183 747,184 759,190 764,196 763,202 763,202 759,219 740,265 735,273 735,279 739,283 743,285 751,283 763,276 799,254 827,245 857,239 881,232 893,226 893,221 892,214 868,192 820,154 805,143 790,139 774,141 725,147 670,154 609,163 546,169 466,179 369,193 331,199 293,203 256,206 253,206 251,206 250,207 Z"/>
<path id="z31359d4" d="M 392,222 C 392,222 392,224 393,226 393,270 360,324 295,390 291,392 289,395 289,399 289,401 290,403 293,403 327,403 372,367 429,297 435,287 441,279 447,275 451,270 452,263 449,255 440,235 430,222 419,217 Z"/>
<path id="z31359d5" d="M 549,199 C 553,209 556,238 557,294 557,338 584,363 640,370 672,374 712,372 759,364 783,360 798,354 805,348 813,341 814,334 808,328 800,319 785,310 763,302 751,297 739,299 729,309 715,319 696,326 673,330 650,334 630,332 613,324 607,319 604,310 604,296 604,273 610,258 621,244 627,232 626,221 617,212 609,204 600,198 592,194 Z"/>
<path id="z31359d6" d="M 594,440 C 622,435 649,431 677,427 693,425 699,419 693,410 686,399 673,392 655,389 638,386 615,388 587,396 519,412 455,427 396,440 384,442 385,449 399,460 407,466 421,468 441,465 477,458 513,452 549,447 Z"/>
<path id="z31359d7" d="M 620,593 C 634,591 695,588 805,593 819,593 829,590 835,584 839,577 834,570 822,562 785,536 750,529 715,539 691,545 660,550 622,556 L 564,564 C 489,574 416,584 347,601 328,605 322,600 328,585 338,556 345,535 354,525 359,517 362,511 359,505 355,498 342,489 321,477 310,470 301,468 294,473 287,477 287,484 292,494 299,509 297,535 289,570 286,582 276,596 260,611 253,617 250,625 251,633 251,641 257,649 269,658 277,664 285,661 295,656 346,627 419,611 513,603 Z"/>
<path id="z31359d8" d="M 562,632 C 560,686 561,744 560,825 559,849 557,868 548,877 540,883 524,880 503,876 488,872 471,869 452,867 444,865 440,868 441,872 441,876 445,882 453,888 497,919 533,947 563,972 570,978 579,976 588,965 615,927 624,883 622,833 617,725 616,651 620,593 L 622,556 C 623,537 622,522 626,504 629,485 631,473 627,467 622,459 611,450 594,440 L 549,447 C 559,477 564,501 564,519 564,534 564,549 564,564 563,586 562,632 562,632 Z"/>
<path id="z31359d9" d="M 513,603 C 507,617 496,632 482,649 439,697 395,728 350,760 311,788 253,822 176,861 163,867 162,872 173,875 179,877 197,875 227,867 267,858 307,842 347,819 429,768 492,723 537,663 545,650 554,640 562,632 L 565,595 Z"/>
<defs>
	<clipPath id="z31359c1"><use xlink:href="#z31359d1"/></clipPath>
	<clipPath id="z31359c2"><use xlink:href="#z31359d2"/></clipPath>
	<clipPath id="z31359c3"><use xlink:href="#z31359d3"/></clipPath>
	<clipPath id="z31359c4"><use xlink:href="#z31359d4"/></clipPath>
	<clipPath id="z31359c5"><use xlink:href="#z31359d5"/></clipPath>
	<clipPath id="z31359c6"><use xlink:href="#z31359d6"/></clipPath>
	<clipPath id="z31359c7"><use xlink:href="#z31359d7"/></clipPath>
	<clipPath id="z31359c8"><use xlink:href="#z31359d8"/></clipPath>
	<clipPath id="z31359c9"><use xlink:href="#z31359d9"/></clipPath>
</defs>
<path pathLength="3333" clip-path="url(#z31359c1)" d="M 449,53 547,126"/>
<path pathLength="3333" clip-path="url(#z31359c2)" d="M 224,188 235,233 194,319 190,386"/>
<path pathLength="3333" clip-path="url(#z31359c3)" d="M 257,210 302,224 757,164 807,188 838,230 742,277"/>
<path pathLength="3333" clip-path="url(#z31359c4)" d="M 399,230 416,269 301,392"/>
<path pathLength="3333" clip-path="url(#z31359c5)" d="M 557,207 588,235 580,302 603,344 805,338"/>
<path pathLength="3333" clip-path="url(#z31359c6)" d="M 394,445 689,412"/>
<path pathLength="3333" clip-path="url(#z31359c7)" d="M 299,476 328,511 299,595 308,631 648,570 830,574"/>
<path pathLength="3333" clip-path="url(#z31359c8)" d="M 558,451 596,494 589,867 552,927 449,873"/>
<path pathLength="3333" clip-path="url(#z31359c9)" d="M 557,606 355,786 172,869"/>
</svg>