<!--
AnimCJK 2016-2019 Copyright Francois Mizessyn - https://github.com/parsimonhi/animCJK
Derived from:
    MakeMeAHanzi project - https://github.com/skishore/makemeahanzi
    Arphic PL KaitiM GB font
    Arphic PL UKai font
You can redistribute and/or modify this file under the terms of the Arphic Public License
as published by Arphic Technology Co., Ltd.
You should have received a copy of this license along with this file.
If not, see http://ftp.gnu.org/non-gnu/chinese-fonts-truetype/LICENSE.
-->
<svg id="z31379" class="acjk" version="1.1" viewBox="0 0 1024 1024" xmlns="http://www.w3.org/2000/svg" xmlns:xlink="http://www.w3.org/1999/xlink">
<style>
<![CDATA[
@keyframes zk {
	to {
		stroke-dashoffset:0;
	}
}
svg.acjk path[clip-path] {
	--t:0.8s;
	animation:zk var(--t) linear forwards var(--d);
	stroke-dasharray:3337;
	stroke-dashoffset:3339;
	stroke-width:128;
	stroke-linecap:round;
	fill:none;
	stroke:#000;
}
svg.acjk path[id] {fill:#ccc;}
]]>
</style>
<path id="z31379d1" d="M474 101C492 113 510 127 530 143C540 151 551 153 562 152C568 151 574 146 577 136C579 125 575 110 567 90C559 71 524 58 463 51C452 49 444 50 440 53C436 55 435 61 438 71C439 77 453 87 474 101Z"/>
<path id="z31379d2" d="M268 218C262 202 254 191 246 184C233 173 224 176 225 194C226 218 207 253 163 302C148 317 150 344 167 381C175 399 187 399 202 381C215 364 225 343 235 319C245 290 255 267 264 249C268 239 272 228 268 218Z"/>
<path id="z31379d3" d="M264 249C280 257 298 259 320 253C412 226 540 207 704 195C728 193 746 190 755 195C764 199 766 206 765 211C739 279 730 294 734 299C738 302 746 299 758 293C796 271 831 257 861 251C885 245 899 239 899 234C899 227 874 204 826 167C809 154 781 154 740 160C689 166 567 179 373 206C338 210 303 214 268 218C258 220 254 245 264 249Z"/>
<path id="z31379d4" d="M353 297C354 305 354 313 350 320C329 353 294 394 241 440C236 443 232 445 230 449C227 453 229 456 236 457C264 457 311 428 376 369C386 359 394 352 402 348C408 344 410 338 409 332C408 326 403 315 393 303C382 290 372 284 364 283C355 282 350 287 353 297Z"/>
<path id="z31379d5" d="M606 255C605 264 612 288 613 335C613 371 635 392 682 398C709 402 742 399 781 393C801 389 814 384 819 380C826 374 826 368 822 363C815 355 802 348 784 342C774 337 764 339 757 347C745 356 729 362 710 364C690 368 673 367 660 360C654 356 652 348 652 336C652 317 658 305 666 292C672 283 670 273 662 267C656 260 647 254 641 251C613 235 607 246 606 255Z"/>
<path id="z31379d6" d="M362 644C353 643 345 635 339 630C329 622 319 612 319 600C319 587 333 580 342 574C362 560 381 545 397 527C424 491 453 456 469 414C475 397 478 378 472 361C468 353 472 343 481 340C494 334 508 342 520 348C535 354 550 360 562 372C567 378 567 389 561 395C543 411 527 430 513 449C482 485 452 523 424 561C422 563 418 569 422 571C431 574 452 568 463 566C532 553 591 543 661 536C671 534 688 558 678 560C609 574 489 596 422 619C404 624 388 631 372 642C369 643 366 644 362 644Z"/>
<path id="z31379d7" d="M678 560C713 607 728 634 735 637C739 638 745 636 752 632C760 626 762 609 762 583C760 551 715 507 623 453C617 449 613 450 611 457C608 464 610 472 615 479C628 496 644 513 661 536C672 552 672 552 678 560Z"/>
<path id="z31379d8" d="M230 681C211 725 191 768 166 809C152 831 152 853 164 879C169 891 179 894 194 884C209 873 221 856 232 834C246 801 254 770 257 741C259 718 260 697 255 681C252 674 247 671 243 671C237 671 232 674 230 681Z"/>
<path id="z31379d9" d="M335 715C345 786 376 842 431 880C503 929 607 948 741 938C763 936 784 929 805 921C822 913 831 905 834 895C835 888 823 878 799 858C758 825 725 788 697 753C688 742 683 739 681 744C678 748 678 754 682 764C691 788 701 814 709 841C712 853 711 863 708 869C703 875 688 879 663 880C548 881 468 857 421 813C399 793 383 767 375 733C371 718 365 709 358 705C349 700 342 699 338 701C334 702 333 706 335 715Z"/>
<path id="z31379d10" d="M485 693C517 730 543 755 565 764C573 767 581 763 587 755C592 747 592 738 591 728C586 703 555 679 497 658C487 654 479 655 473 657C469 658 468 661 470 669C471 675 476 683 485 693Z"/>
<path id="z31379d11" d="M735 693C770 718 811 749 856 787C867 797 877 804 887 805C893 805 897 801 901 795C906 786 904 769 894 744C880 712 826 687 732 666C726 664 724 666 724 674C724 681 727 687 735 693Z"/>
<defs>
	<clipPath id="z31379c1"><use xlink:href="#z31379d1"/></clipPath>
	<clipPath id="z31379c2"><use xlink:href="#z31379d2"/></clipPath>
	<clipPath id="z31379c3"><use xlink:href="#z31379d3"/></clipPath>
	<clipPath id="z31379c4"><use xlink:href="#z31379d4"/></clipPath>
	<clipPath id="z31379c5"><use xlink:href="#z31379d5"/></clipPath>
	<clipPath id="z31379c6"><use xlink:href="#z31379d6"/></clipPath>
	<clipPath id="z31379c7"><use xlink:href="#z31379d7"/></clipPath>
	<clipPath id="z31379c8"><use xlink:href="#z31379d8"/></clipPath>
	<clipPath id="z31379c9"><use xlink:href="#z31379d9"/></clipPath>
	<clipPath id="z31379c10"><use xlink:href="#z31379d10"/></clipPath>
	<clipPath id="z31379c11"><use xlink:href="#z31379d11"/></clipPath>
</defs>
<path style="--d:1s;" pathLength="3333" clip-path="url(#z31379c1)" d="M444 57L570 144"/>
<path style="--d:2s;" pathLength="3333" clip-path="url(#z31379c2)" d="M234 185L242 234L172 386"/>
<path style="--d:3s;" pathLength="3333" clip-path="url(#z31379c3)" d="M269 244L757 175L811 201L844 241L740 294"/>
<path style="--d:4s;" pathLength="3333" clip-path="url(#z31379c4)" d="M361 287L378 332L237 451"/>
<path style="--d:5s;" pathLength="3333" clip-path="url(#z31379c5)" d="M613 262L639 285L632 342L651 376L819 371"/>
<path style="--d:6s;" pathLength="3333" clip-path="url(#z31379c6)" d="M479 344L519 393L375 594L394 607L670 553"/>
<path style="--d:7s;" pathLength="3333" clip-path="url(#z31379c7)" d="M616 458L711 554L741 633"/>
<path style="--d:8s;" pathLength="3333" clip-path="url(#z31379c8)" d="M242 681L175 885"/>
<path style="--d:9s;" pathLength="3333" clip-path="url(#z31379c9)" d="M343 706L426 847L588 906L709 907L782 881L686 747"/>
<path style="--d:10s;" pathLength="3333" clip-path="url(#z31379c10)" d="M475 661L580 758"/>
<path style="--d:11s;" pathLength="3333" clip-path="url(#z31379c11)" d="M729 673L837 731L896 797"/>
</svg>