<!--
AnimCJK 2016-2017 Copyright Francois Mizessyn, http://gooo.free.fr/animCJK/
Derived from:
    MakeMeAHanzi project - https://github.com/skishore/makemeahanzi
    Arphic PL KaitiM GB - https://apps.ubuntu.com/cat/applications/precise/fonts-arphic-gkai00mp/
    Arphic PL UKai - https://apps.ubuntu.com/cat/applications/fonts-arphic-ukai/
You can redistribute and/or modify this file under the terms of the Arphic Public License
as published by Arphic Technology Co., Ltd.
You should have received a copy of this license (the directory "APL") along with this file;
if not, see http://ftp.gnu.org/non-gnu/chinese-fonts-truetype/LICENSE.
-->
<svg id="z31402" class="acjk" version="1.1" viewBox="0 0 1024 1024" xmlns="http://www.w3.org/2000/svg" xmlns:xlink="http://www.w3.org/1999/xlink">
<style>
<![CDATA[
@keyframes z31402k {
	from {
		stroke:#c00;
		stroke-dashoffset:3334;
	}
	75% {
		stroke:#c00;
		stroke-dashoffset:0;
	}
	to {
		stroke:#000;
	}
}
#z31402 path[clip-path] {
	animation:z31402k 1s linear both;
	stroke-dasharray:3334;
	stroke-width:128;
	stroke-linecap:round;
	fill:none;
}
#z31402 path[clip-path="url(#z31402c1)"] {animation-delay:1s;}
#z31402 path[clip-path="url(#z31402c2)"] {animation-delay:2s;}
#z31402 path[clip-path="url(#z31402c3)"] {animation-delay:3s;}
#z31402 path[clip-path="url(#z31402c4)"] {animation-delay:4s;}
#z31402 path[clip-path="url(#z31402c5)"] {animation-delay:5s;}
#z31402 path[clip-path="url(#z31402c6)"] {animation-delay:6s;}
#z31402 path[clip-path="url(#z31402c7)"] {animation-delay:7s;}
#z31402 path[clip-path="url(#z31402c8)"] {animation-delay:8s;}
#z31402 path[clip-path="url(#z31402c9)"] {animation-delay:9s;}
#z31402 path[clip-path="url(#z31402c10)"] {animation-delay:10s;}
#z31402 path[clip-path="url(#z31402c11)"] {animation-delay:11s;}
#z31402 path[clip-path="url(#z31402c12)"] {animation-delay:12s;}
#z31402 path[clip-path="url(#z31402c13)"] {animation-delay:13s;}
#z31402 path[clip-path="url(#z31402c14)"] {animation-delay:14s;}
#z31402 path {fill:#ccc;}
]]>
</style>
<path id="z31402d1" d="M 460,82 C 490,112 514,128 540,139 550,139 557,136 563,128 565,119 566,109 565,99 553,68 525,52 473,44 L 470,43 C 459,41 451,41 445,44 441,44 440,49 442,58 444,64 450,72 460,82 Z"/>
<path id="z31402d2" d="M 250,207 C 244,197 238,190 233,187 220,178 214,182 214,200 218,222 205,252 174,290 153,308 153,338 175,379 185,395 197,395 210,377 226,331 242,285 260,240 Z"/>
<path id="z31402d3" d="M 260,240 C 276,248 296,249 320,244 424,213 559,193 723,183 733,183 741,183 747,184 759,190 764,196 763,202 763,202 759,219 740,265 735,273 735,279 739,283 743,285 751,283 763,276 799,254 827,245 857,239 881,232 893,226 893,221 892,214 868,192 820,154 805,143 790,139 774,141 725,147 670,154 609,163 546,169 466,179 369,193 331,199 293,203 256,206 253,206 251,206 250,207 Z"/>
<path id="z31402d4" d="M 392,222 C 392,222 392,224 393,226 393,270 360,324 295,390 291,392 289,395 289,399 289,401 290,403 293,403 327,403 372,367 429,297 435,287 441,279 447,275 451,270 452,263 449,255 440,235 430,222 419,217 Z"/>
<path id="z31402d5" d="M 549,199 C 553,209 556,238 557,294 557,338 584,363 640,370 672,374 712,372 759,364 783,360 798,354 805,348 813,341 814,334 808,328 800,319 785,310 763,302 751,297 739,299 729,309 715,319 696,326 673,330 650,334 630,332 613,324 607,319 604,310 604,296 604,273 610,258 621,244 627,232 626,221 617,212 609,204 600,198 592,194 Z"/>
<path id="z31402d6" d="M 271,485 C 283,497 296,511 310,527 318,535 327,540 337,540 343,540 349,535 353,527 355,518 355,504 351,485 348,474 338,464 322,456 284,440 259,433 248,437 245,439 244,445 244,453 246,459 255,470 271,485 Z"/>
<path id="z31402d7" d="M 186,593 C 212,625 235,645 255,655 265,657 273,653 279,645 283,637 285,627 283,617 279,601 271,589 260,581 242,568 221,560 198,556 187,552 179,551 173,554 169,554 168,559 170,567 170,575 176,583 186,593 Z"/>
<path id="z31402d8" d="M 161,860 C 154,862 151,868 151,878 153,920 165,949 187,965 189,969 194,971 202,970 206,969 209,961 211,947 215,925 249,845 315,708 319,699 322,693 322,689 322,683 319,682 314,686 306,690 266,738 196,830 188,840 176,850 161,860 Z"/>
<path id="z31402d9" d="M 594,509 C 620,502 647,496 676,491 698,485 711,480 715,478 721,473 722,468 719,463 714,456 703,450 686,446 667,443 638,449 598,463 L 540,480 C 511,484 480,489 448,494 425,498 422,505 439,515 461,527 495,528 542,520 Z"/>
<path id="z31402d10" d="M 585,610 C 587,579 590,539 594,509 L 598,463 C 598,462 598,462 599,462 601,449 603,439 605,431 607,424 609,418 611,413 613,406 608,398 596,390 575,378 557,371 542,369 532,366 524,367 520,373 515,377 515,384 521,394 531,408 537,436 540,480 L 542,520 C 542,546 543,585 544,617 Z"/>
<path id="z31402d11" d="M 574,649 C 574,648 575,648 577,648 627,641 693,637 777,637 807,639 825,636 831,629 833,622 830,615 821,607 787,579 751,572 715,586 680,592 637,600 585,610 L 544,617 C 495,623 443,630 387,638 374,638 372,644 382,655 390,663 400,669 411,672 423,674 434,675 444,673 472,665 501,658 533,654 Z"/>
<path id="z31402d12" d="M 605,779 C 689,764 733,755 737,753 743,748 745,743 742,738 738,730 726,723 708,717 689,712 655,717 607,732 L 549,745 C 514,749 477,753 439,755 415,757 411,765 428,777 452,793 483,798 523,792 531,789 540,788 551,788 Z"/>
<path id="z31402d13" d="M 600,878 C 600,846 602,806 605,779 L 607,732 C 607,723 607,714 609,705 615,686 603,667 574,649 L 533,654 C 541,670 546,701 549,745 L 551,788 C 551,810 552,848 554,882 Z"/>
<path id="z31402d14" d="M 554,882 C 483,888 407,894 326,902 311,902 309,909 319,921 329,931 340,938 352,943 366,947 379,947 390,945 522,915 680,907 864,921 864,920 865,920 867,921 881,921 890,919 894,913 898,905 894,896 883,886 847,858 816,846 791,851 743,859 679,868 600,878 Z"/>
<defs>
	<clipPath id="z31402c1"><use xlink:href="#z31402d1"/></clipPath>
	<clipPath id="z31402c2"><use xlink:href="#z31402d2"/></clipPath>
	<clipPath id="z31402c3"><use xlink:href="#z31402d3"/></clipPath>
	<clipPath id="z31402c4"><use xlink:href="#z31402d4"/></clipPath>
	<clipPath id="z31402c5"><use xlink:href="#z31402d5"/></clipPath>
	<clipPath id="z31402c6"><use xlink:href="#z31402d6"/></clipPath>
	<clipPath id="z31402c7"><use xlink:href="#z31402d7"/></clipPath>
	<clipPath id="z31402c8"><use xlink:href="#z31402d8"/></clipPath>
	<clipPath id="z31402c9"><use xlink:href="#z31402d9"/></clipPath>
	<clipPath id="z31402c10"><use xlink:href="#z31402d10"/></clipPath>
	<clipPath id="z31402c11"><use xlink:href="#z31402d11"/></clipPath>
	<clipPath id="z31402c12"><use xlink:href="#z31402d12"/></clipPath>
	<clipPath id="z31402c13"><use xlink:href="#z31402d13"/></clipPath>
	<clipPath id="z31402c14"><use xlink:href="#z31402d14"/></clipPath>
</defs>
<path pathLength="3333" clip-path="url(#z31402c1)" d="M 449,53 547,126"/>
<path pathLength="3333" clip-path="url(#z31402c2)" d="M 224,188 235,233 194,319 190,386"/>
<path pathLength="3333" clip-path="url(#z31402c3)" d="M 257,210 302,224 757,164 807,188 838,230 742,277"/>
<path pathLength="3333" clip-path="url(#z31402c4)" d="M 399,230 416,269 301,392"/>
<path pathLength="3333" clip-path="url(#z31402c5)" d="M 557,207 588,235 580,302 603,344 805,338"/>
<path pathLength="3333" clip-path="url(#z31402c6)" d="M 251,444 346,530"/>
<path pathLength="3333" clip-path="url(#z31402c7)" d="M 175,558 273,646"/>
<path pathLength="3333" clip-path="url(#z31402c8)" d="M 199,964 191,880 315,693"/>
<path pathLength="3333" clip-path="url(#z31402c9)" d="M 441,505 715,468"/>
<path pathLength="3333" clip-path="url(#z31402c10)" d="M 525,379 573,422 556,614"/>
<path pathLength="3333" clip-path="url(#z31402c11)" d="M 385,646 748,608 827,618"/>
<path pathLength="3333" clip-path="url(#z31402c12)" d="M 424,763 739,743"/>
<path pathLength="3333" clip-path="url(#z31402c13)" d="M 541,656 578,705 566,880"/>
<path pathLength="3333" clip-path="url(#z31402c14)" d="M 319,910 370,922 788,883 891,902"/>
</svg>