<!--
AnimCJK 2016-2026 Copyright FM-SH - https://github.com/parsimonhi/animCJK
Derived from:
    MakeMeAHanzi project - https://github.com/skishore/makemeahanzi
    Arphic PL KaitiM GB font
    Arphic PL KaitiM Big5 font
You can redistribute and/or modify this file under the terms of the Arphic Public License
as published by Arphic Technology Co., Ltd.
You should have received a copy of this license along with this file.
If not, see https://ftp.gnu.org/non-gnu/chinese-fonts-truetype/LICENSE.
-->
<svg id="z31450" class="acjk" viewBox="0 0 1024 1024" xmlns="http://www.w3.org/2000/svg">
<style>
<![CDATA[
@keyframes zk {
	to {
		stroke-dashoffset:0;
	}
}
svg.acjk path[clip-path] {
	--t:0.8s;
	animation:zk var(--t) linear forwards var(--d);
	stroke-dasharray:3337;
	stroke-dashoffset:3339;
	stroke-width:128;
	stroke-linecap:round;
	fill:none;
	stroke:#000;
}
svg.acjk path[id] {fill:#ccc;}
]]>
</style>
<path id="z31450d1" d="M257 171C272 186 289 204 306 225C317 237 345 251 356 226C360 215 359 198 354 177C351 163 340 150 319 141C272 118 241 111 231 116C225 117 224 123 226 134C227 141 238 154 257 171Z"/>
<path id="z31450d2" d="M170 347C143 351 141 361 161 371C187 385 221 386 262 375C302 363 345 352 390 340C409 334 421 330 424 327C435 316 429 299 389 293C368 289 347 294 328 303C260 329 225 337 170 347Z"/>
<path id="z31450d3" d="M166 497C177 515 186 537 197 560C205 576 222 584 232 573C238 566 241 553 242 537C242 516 219 490 176 459C168 454 162 451 160 452C154 452 153 456 152 464C151 469 156 479 166 497Z"/>
<path id="z31450d4" d="M323 622C361 534 375 488 394 462C400 453 401 446 397 440C388 430 375 421 357 411C336 400 322 406 326 425C334 466 314 555 290 633C286 644 319 633 323 622Z"/>
<path id="z31450d5" d="M290 633C228 653 152 681 103 684C82 685 83 708 97 719C112 730 132 741 156 752C162 754 169 751 179 745C245 697 319 662 392 619C412 607 413 590 372 605C357 610 338 617 323 622C301 629 301 629 290 633Z"/>
<path id="z31450d6" d="M648 111C668 129 689 150 711 173C719 181 729 186 741 187C749 187 755 182 759 173C762 163 761 147 756 126C750 101 713 80 645 61C634 58 626 56 622 59C617 61 616 67 618 76C619 84 630 95 648 111Z"/>
<path id="z31450d7" d="M543 276C544 267 544 258 539 250C529 235 519 226 511 222C497 215 490 220 493 237C498 271 486 307 458 350C447 365 453 392 479 424C491 439 504 434 511 416C513 409 524 371 538 302C541 285 541 285 543 276Z"/>
<path id="z31450d8" d="M538 302C550 308 574 309 607 299C651 285 724 268 814 251C835 246 870 235 863 261C859 272 857 283 838 325C824 353 845 345 861 336C896 314 925 302 954 296C983 289 990 276 969 260C953 248 936 231 922 220C875 184 904 203 543 276C534 278 530 299 538 302Z"/>
<path id="z31450d9" d="M705 476C743 469 794 463 858 461C943 458 911 437 895 426C853 398 816 398 780 411C756 419 703 431 521 470C507 472 505 477 517 489C528 500 554 512 585 503C605 496 628 489 655 485C688 479 688 479 705 476Z"/>
<path id="z31450d10" d="M655 485C671 513 677 541 678 574C680 723 677 803 665 814C660 817 652 818 646 816C622 807 600 797 577 790C557 783 564 800 574 811C619 861 648 900 663 928C670 940 682 943 694 934C721 910 739 872 738 826C733 662 732 565 746 532C752 516 752 502 705 476C690 467 647 470 655 485Z"/>
<defs>
	<clipPath id="z31450c1"><use href="#z31450d1"/></clipPath>
	<clipPath id="z31450c2"><use href="#z31450d2"/></clipPath>
	<clipPath id="z31450c3"><use href="#z31450d3"/></clipPath>
	<clipPath id="z31450c4"><use href="#z31450d4"/></clipPath>
	<clipPath id="z31450c5"><use href="#z31450d5"/></clipPath>
	<clipPath id="z31450c6"><use href="#z31450d6"/></clipPath>
	<clipPath id="z31450c7"><use href="#z31450d7"/></clipPath>
	<clipPath id="z31450c8"><use href="#z31450d8"/></clipPath>
	<clipPath id="z31450c9"><use href="#z31450d9"/></clipPath>
	<clipPath id="z31450c10"><use href="#z31450d10"/></clipPath>
</defs>
<path style="--d:1s;" pathLength="3333" clip-path="url(#z31450c1)" d="M232 123L317 181L346 233"/>
<path style="--d:2s;" pathLength="3333" clip-path="url(#z31450c2)" d="M157 361L424 313"/>
<path style="--d:3s;" pathLength="3333" clip-path="url(#z31450c3)" d="M159 459L222 573"/>
<path style="--d:4s;" pathLength="3333" clip-path="url(#z31450c4)" d="M333 414L363 457L297 632"/>
<path style="--d:5s;" pathLength="3333" clip-path="url(#z31450c5)" d="M90 699L162 712L397 605"/>
<path style="--d:6s;" pathLength="3333" clip-path="url(#z31450c6)" d="M623 62L710 122L748 182"/>
<path style="--d:7s;" pathLength="3333" clip-path="url(#z31450c7)" d="M501 223L518 272L487 427"/>
<path style="--d:8s;" pathLength="3333" clip-path="url(#z31450c8)" d="M537 293L875 224L927 281L842 339"/>
<path style="--d:9s;" pathLength="3333" clip-path="url(#z31450c9)" d="M518 478L821 432L909 438"/>
<path style="--d:10s;" pathLength="3333" clip-path="url(#z31450c10)" d="M662 481L711 529L700 839L663 882L572 794"/>
</svg>