<!--
AnimCJK 2016-2026 Copyright FM-SH - https://github.com/parsimonhi/animCJK
Derived from:
    MakeMeAHanzi project - https://github.com/skishore/makemeahanzi
    Arphic PL KaitiM GB font
    Arphic PL KaitiM Big5 font
You can redistribute and/or modify this file under the terms of the Arphic Public License
as published by Arphic Technology Co., Ltd.
You should have received a copy of this license along with this file.
If not, see https://ftp.gnu.org/non-gnu/chinese-fonts-truetype/LICENSE.
-->
<svg id="z31469" class="acjk" viewBox="0 0 1024 1024" xmlns="http://www.w3.org/2000/svg">
<style>
<![CDATA[
@keyframes zk {
	to {
		stroke-dashoffset:0;
	}
}
svg.acjk path[clip-path] {
	--t:0.8s;
	animation:zk var(--t) linear forwards var(--d);
	stroke-dasharray:3337;
	stroke-dashoffset:3339;
	stroke-width:128;
	stroke-linecap:round;
	fill:none;
	stroke:#000;
}
svg.acjk path[id] {fill:#ccc;}
]]>
</style>
<path id="z31469d1" d="M254 176C270 191 286 210 303 230C314 243 341 256 353 231C357 220 356 204 351 182C348 169 337 156 316 146C269 124 239 116 228 121C223 122 221 129 223 139C224 147 236 159 254 176Z"/>
<path id="z31469d2" d="M167 353C141 357 139 367 158 377C185 391 219 392 259 381C300 369 343 358 387 346C407 340 418 335 421 333C432 321 427 305 386 299C365 295 345 300 325 309C258 335 223 343 167 353Z"/>
<path id="z31469d3" d="M163 503C174 522 183 544 194 566C202 583 218 590 229 579C234 572 238 560 239 543C239 523 217 496 173 465C166 460 160 457 157 458C152 458 150 462 149 470C148 475 153 486 163 503Z"/>
<path id="z31469d4" d="M320 628C358 540 372 493 391 468C397 458 399 452 394 446C386 436 373 427 354 417C334 406 317 414 323 431C338 480 311 561 287 639C283 650 316 639 320 628Z"/>
<path id="z31469d5" d="M287 639C242 653 194 668 145 685C134 688 119 690 100 691C80 691 80 715 94 726C109 737 129 748 153 759C159 761 167 758 176 752C243 704 316 668 389 625C409 613 411 597 369 611C354 617 335 622 320 628C298 635 298 635 287 639Z"/>
<path id="z31469d6" d="M549 352C549 351 549 351 550 351C550 346 553 340 553 334C553 326 553 319 553 312C550 290 547 272 543 248C540 233 540 233 539 226C533 195 531 174 529 162C527 151 525 137 515 133C514 132 442 103 465 147C484 184 499 235 509 298C511 315 518 332 531 348C535 353 548 358 549 352Z"/>
<path id="z31469d7" d="M700 319C706 343 726 346 738 324C743 313 754 285 768 238C776 207 792 183 815 164C826 154 826 144 817 136C806 125 784 114 755 97C731 83 740 88 515 133C504 135 518 164 529 162C543 160 658 138 698 134C723 131 734 133 729 169C718 235 710 277 704 293C701 301 698 310 700 319Z"/>
<path id="z31469d8" d="M543 248C555 247 593 240 672 230C703 225 679 202 653 198C634 195 596 205 539 226C532 229 536 249 543 248Z"/>
<path id="z31469d9" d="M553 334C568 332 611 326 700 319C709 319 712 298 704 293C696 287 687 282 553 312C546 313 546 335 553 334Z"/>
<path id="z31469d10" d="M549 442C560 428 570 412 586 399C595 390 589 378 580 369C570 358 554 352 549 352C543 351 537 347 531 348C530 348 530 348 529 348C524 348 522 352 523 360C526 400 489 459 409 535C405 538 405 542 411 541C472 523 514 481 530 464C543 449 543 449 549 442Z"/>
<path id="z31469d11" d="M627 462C717 449 774 437 798 437C815 437 818 440 821 475C824 506 826 557 822 628C817 702 802 764 780 812C766 840 755 847 726 840C712 836 693 831 669 822C660 818 651 819 670 839C698 868 716 895 728 918C735 931 742 938 751 939C763 939 774 933 787 922C828 886 856 827 871 740C880 681 889 606 894 516C895 496 901 478 915 463C923 453 928 445 928 440C927 433 919 427 906 418C886 404 865 393 842 386C823 380 809 381 796 387C782 392 758 399 724 407C637 426 588 432 549 442C539 444 520 462 530 464C545 469 572 469 598 466C617 463 617 463 627 462Z"/>
<path id="z31469d12" d="M634 543C646 525 650 523 656 511C665 490 643 471 627 462C619 456 596 456 598 466C608 524 563 581 527 627C508 648 509 659 538 642C564 628 587 603 622 560C630 549 630 549 634 543Z"/>
<path id="z31469d13" d="M622 560C646 578 674 599 703 627C727 650 750 644 732 595C723 571 690 553 634 543C627 542 616 556 622 560Z"/>
<path id="z31469d14" d="M488 617C491 608 489 601 483 594C471 581 458 570 440 565C418 558 414 569 424 587C433 603 439 623 437 646C433 680 423 704 410 720C402 728 400 736 403 743C407 755 414 765 424 775C430 781 439 781 450 774C502 739 599 727 739 741C746 741 782 749 770 723C766 715 755 699 730 689C683 669 561 695 484 710C471 712 469 707 471 696C477 655 482 628 488 617Z"/>
<defs>
	<clipPath id="z31469c1"><use href="#z31469d1"/></clipPath>
	<clipPath id="z31469c2"><use href="#z31469d2"/></clipPath>
	<clipPath id="z31469c3"><use href="#z31469d3"/></clipPath>
	<clipPath id="z31469c4"><use href="#z31469d4"/></clipPath>
	<clipPath id="z31469c5"><use href="#z31469d5"/></clipPath>
	<clipPath id="z31469c6"><use href="#z31469d6"/></clipPath>
	<clipPath id="z31469c7"><use href="#z31469d7"/></clipPath>
	<clipPath id="z31469c8"><use href="#z31469d8"/></clipPath>
	<clipPath id="z31469c9"><use href="#z31469d9"/></clipPath>
	<clipPath id="z31469c10"><use href="#z31469d10"/></clipPath>
	<clipPath id="z31469c11"><use href="#z31469d11"/></clipPath>
	<clipPath id="z31469c12"><use href="#z31469d12"/></clipPath>
	<clipPath id="z31469c13"><use href="#z31469d13"/></clipPath>
	<clipPath id="z31469c14"><use href="#z31469d14"/></clipPath>
</defs>
<path style="--d:1s;" pathLength="3333" clip-path="url(#z31469c1)" d="M229 128L312 186L339 240"/>
<path style="--d:2s;" pathLength="3333" clip-path="url(#z31469c2)" d="M151 362L422 324"/>
<path style="--d:3s;" pathLength="3333" clip-path="url(#z31469c3)" d="M158 464L219 580"/>
<path style="--d:4s;" pathLength="3333" clip-path="url(#z31469c4)" d="M330 420L362 459L295 638"/>
<path style="--d:5s;" pathLength="3333" clip-path="url(#z31469c5)" d="M90 705L156 721L392 613"/>
<path style="--d:6s;" pathLength="3333" clip-path="url(#z31469c6)" d="M468 132L504 169L539 348"/>
<path style="--d:7s;" pathLength="3333" clip-path="url(#z31469c7)" d="M518 140L717 112L764 135L776 157L720 335"/>
<path style="--d:8s;" pathLength="3333" clip-path="url(#z31469c8)" d="M539 237L680 219"/>
<path style="--d:9s;" pathLength="3333" clip-path="url(#z31469c9)" d="M554 324L703 308"/>
<path style="--d:10s;" pathLength="3333" clip-path="url(#z31469c10)" d="M532 353L552 395L412 536"/>
<path style="--d:11s;" pathLength="3333" clip-path="url(#z31469c11)" d="M535 460L810 410L875 453L843 713L802 845L750 890L668 825"/>
<path style="--d:12s;" pathLength="3333" clip-path="url(#z31469c12)" d="M607 464L625 512L521 644"/>
<path style="--d:13s;" pathLength="3333" clip-path="url(#z31469c13)" d="M625 552L696 588L724 635"/>
<path style="--d:14s;" pathLength="3333" clip-path="url(#z31469c14)" d="M426 569L462 610L438 725L452 744L646 709L769 726"/>
</svg>