<!--
AnimCJK 2016-2018 Copyright Francois Mizessyn - https://github.com/parsimonhi/animCJK
Derived from:
    MakeMeAHanzi project - https://github.com/skishore/makemeahanzi
    Arphic PL KaitiM GB font
    Arphic PL UKai font
You can redistribute and/or modify this file under the terms of the Arphic Public License
as published by Arphic Technology Co., Ltd.
You should have received a copy of this license along with this file.
If not, see http://ftp.gnu.org/non-gnu/chinese-fonts-truetype/LICENSE.
-->
<svg id="z31461" class="acjk" version="1.1" viewBox="0 0 1024 1024" xmlns="http://www.w3.org/2000/svg" xmlns:xlink="http://www.w3.org/1999/xlink">
<style>
<![CDATA[
@keyframes zk {
	to {
		stroke-dashoffset:0;
	}
}
svg.acjk path[clip-path] {
	--t:0.8s;
	animation:zk var(--t) linear forwards calc(var(--d) * 1.25 * var(--t));
	stroke-dasharray:3337;
	stroke-dashoffset:3339;
	stroke-width:128;
	stroke-linecap:round;
	fill:none;
	stroke:#000;
}
svg.acjk path[id] {fill:#ccc;}
]]>
</style>
<path id="z31461d1" d="M481 93Q505 109 530 131Q546 143 562 140Q572 139 577 124Q580 108 567 78Q560 62 531 52Q459 37 448 45Q444 49 446 63Q450 73 481 93Z"/>
<path id="z31461d2" d="M618 211Q634 207 654 205Q706 195 713 189Q723 182 719 172Q712 159 682 151Q651 144 549 173Q426 194 348 199Q311 203 336 222Q381 249 435 238Q507 228 581 216C606 213 606 213 618 211Z"/>
<path id="z31461d3" d="M364 290Q397 353 422 360Q434 363 443 347Q446 335 440 316Q425 283 372 266Q363 263 361 274Q358 281 364 290Z"/>
<path id="z31461d4" d="M561 363Q588 335 618 292Q627 280 641 266Q656 256 648 245Q641 230 618 211C608 203 579 204 581 216Q588 240 548 335Q539 353 537 365Q536 366 537 367C535 375 556 369 561 363Z"/>
<path id="z31461d5" d="M537 367Q521 368 506 371Q325 395 109 421Q87 424 103 441Q136 471 175 462Q454 383 906 382Q907 382 910 382Q931 382 935 373Q941 361 924 347Q864 302 801 321Q704 339 561 363C545 366 545 366 537 367Z"/>
<path id="z31461d6" d="M343 486Q342 485 341 484Q329 477 292 472Q280 469 277 474Q270 481 280 496Q310 557 330 656Q334 686 352 705Q370 727 375 711Q376 704 378 694C377 675 377 675 377 666Q376 656 373 645Q355 552 349 518C347 507 352 493 343 486Z"/>
<path id="z31461d7" d="M624 666Q637 690 652 699Q662 708 680 688Q693 669 732 564Q742 533 768 510Q783 500 772 484Q759 466 717 436Q698 426 605 445Q581 445 343 486C332 488 338 520 349 518Q397 505 465 494C495 489 495 489 510 486Q559 477 624 470Q664 464 676 479Q686 492 683 504Q650 627 632 634C623 640 619 656 624 666Z"/>
<path id="z31461d8" d="M407 576Q391 580 410 593Q419 600 438 597Q459 593 480 590C512 585 512 585 528 582Q564 575 595 571Q617 567 609 555Q599 542 575 537Q557 534 530 541C497 551 497 551 480 556Q440 566 407 576Z"/>
<path id="z31461d9" d="M524 677Q576 670 624 666C635 666 641 641 632 634Q617 619 526 644C495 649 495 649 480 651Q426 658 377 666C368 668 369 694 378 694Q384 694 393 693Q438 686 480 682C509 679 509 679 524 677Z"/>
<path id="z31461d10" d="M517 879Q518 836 520 797C521 768 521 768 521 754Q522 714 524 677C525 655 525 655 526 644Q526 611 528 582C529 555 529 555 530 541Q530 534 531 529Q538 511 510 486C499 475 459 480 465 494Q480 524 480 556C480 579 480 579 480 590Q480 612 480 651C480 672 480 672 480 682Q479 716 478 764C477 791 477 791 477 805Q476 839 476 883C476 897 517 893 517 879Z"/>
<path id="z31461d11" d="M520 797Q655 776 662 770Q669 763 666 755Q660 743 634 736Q613 730 521 754C492 761 492 761 478 764Q426 771 366 775Q332 779 355 795Q391 819 446 809Q461 805 477 805C506 800 506 800 520 797Z"/>
<path id="z31461d12" d="M476 883Q355 890 218 902Q196 903 211 921Q226 937 244 943Q265 950 282 946Q493 898 831 921Q852 922 857 913Q864 901 847 886Q792 843 756 850Q666 863 517 879C490 882 490 882 476 883Z"/>
<defs>
	<clipPath id="z31461c1"><use xlink:href="#z31461d1"/></clipPath>
	<clipPath id="z31461c2"><use xlink:href="#z31461d2"/></clipPath>
	<clipPath id="z31461c3"><use xlink:href="#z31461d3"/></clipPath>
	<clipPath id="z31461c4"><use xlink:href="#z31461d4"/></clipPath>
	<clipPath id="z31461c5"><use xlink:href="#z31461d5"/></clipPath>
	<clipPath id="z31461c6"><use xlink:href="#z31461d6"/></clipPath>
	<clipPath id="z31461c7"><use xlink:href="#z31461d7"/></clipPath>
	<clipPath id="z31461c8"><use xlink:href="#z31461d8"/></clipPath>
	<clipPath id="z31461c9"><use xlink:href="#z31461d9"/></clipPath>
	<clipPath id="z31461c10"><use xlink:href="#z31461d10"/></clipPath>
	<clipPath id="z31461c11"><use xlink:href="#z31461d11"/></clipPath>
	<clipPath id="z31461c12"><use xlink:href="#z31461d12"/></clipPath>
</defs>
<path style="--d:1;" pathLength="3333" clip-path="url(#z31461c1)" d="M452 48L538 93L567 135"/>
<path style="--d:2;" pathLength="3333" clip-path="url(#z31461c2)" d="M337 212L715 179"/>
<path style="--d:3;" pathLength="3333" clip-path="url(#z31461c3)" d="M368 273L435 354"/>
<path style="--d:4;" pathLength="3333" clip-path="url(#z31461c4)" d="M587 222L611 262L547 363"/>
<path style="--d:5;" pathLength="3333" clip-path="url(#z31461c5)" d="M105 429L162 439L815 350L932 361"/>
<path style="--d:6;" pathLength="3333" clip-path="url(#z31461c6)" d="M281 478L315 500L365 713"/>
<path style="--d:7;" pathLength="3333" clip-path="url(#z31461c7)" d="M351 491L698 460L729 501L644 691"/>
<path style="--d:8;" pathLength="3333" clip-path="url(#z31461c8)" d="M407 583L603 557"/>
<path style="--d:9;" pathLength="3333" clip-path="url(#z31461c9)" d="M384 686L628 642"/>
<path style="--d:10;" pathLength="3333" clip-path="url(#z31461c10)" d="M475 499L505 530L493 881"/>
<path style="--d:11;" pathLength="3333" clip-path="url(#z31461c11)" d="M353 782L433 790L661 757"/>
<path style="--d:12;" pathLength="3333" clip-path="url(#z31461c12)" d="M214 913L756 883L855 906"/>
</svg>