<!--
AnimCJK 2016-2025 Copyright FM-SH - https://github.com/parsimonhi/animCJK
Derived from:
    MakeMeAHanzi project - https://github.com/skishore/makemeahanzi
    Arphic PL KaitiM GB font
    Arphic PL KaitiM Big5 font
You can redistribute and/or modify this file under the terms of the Arphic Public License
as published by Arphic Technology Co., Ltd.
You should have received a copy of this license along with this file.
If not, see https://ftp.gnu.org/non-gnu/chinese-fonts-truetype/LICENSE.
-->
<svg id="z31505" class="acjk" viewBox="0 0 1024 1024" xmlns="http://www.w3.org/2000/svg">
<style>
<![CDATA[
@keyframes zk {
	to {
		stroke-dashoffset:0;
	}
}
svg.acjk path[clip-path] {
	--t:0.8s;
	animation:zk var(--t) linear forwards var(--d);
	stroke-dasharray:3337;
	stroke-dashoffset:3339;
	stroke-width:128;
	stroke-linecap:round;
	fill:none;
	stroke:#000;
}
svg.acjk path[id] {fill:#ccc;}
]]>
</style>
<path id="z31505d1" d="M334 209C356 174 367 152 373 148C377 143 378 139 377 133C375 127 371 120 363 114C340 96 320 89 301 96C296 97 294 102 296 110C304 148 286 203 237 273C210 310 180 342 156 369C151 373 152 377 159 376C205 367 260 321 317 235C328 218 328 218 334 209Z"/>
<path id="z31505d2" d="M317 235C339 241 371 242 414 233C443 226 472 218 504 212C520 208 530 204 532 202C536 197 538 192 535 187C530 180 519 174 501 171C482 167 464 171 447 179C428 186 409 192 390 197C372 201 353 205 334 209C324 211 307 233 317 235Z"/>
<path id="z31505d3" d="M367 329C377 339 386 352 398 366C405 375 414 379 425 380C431 380 437 375 441 367C445 358 445 343 440 324C436 309 410 296 365 283C355 280 347 278 344 281C340 282 338 289 340 297C340 303 351 313 367 329Z"/>
<path id="z31505d4" d="M656 162C680 116 691 91 691 91C689 84 683 78 675 73C653 58 631 52 612 59C606 60 604 67 608 74C618 99 608 147 570 219C550 253 527 284 508 309C504 313 504 317 511 316C553 305 601 261 644 184C652 169 652 169 656 162Z"/>
<path id="z31505d5" d="M644 184C676 200 709 201 747 193C824 174 868 166 876 161C882 155 883 149 880 144C875 136 862 129 842 126C821 122 801 126 781 134C763 140 744 146 726 151C705 156 682 159 656 162C648 163 636 181 644 184Z"/>
<path id="z31505d6" d="M665 310C679 320 694 333 710 348C718 356 728 359 739 358C745 357 750 352 753 344C755 334 754 319 746 301C738 284 708 271 657 264C646 262 638 263 636 265C632 267 631 273 633 281C634 288 646 297 665 310Z"/>
<path id="z31505d7" d="M469 456C501 450 535 440 573 428C583 424 596 421 610 419C620 417 625 412 625 406C624 400 619 391 609 382C586 361 567 350 552 347C545 345 541 348 539 356C527 388 451 419 313 453C304 454 305 460 316 464C319 465 353 475 415 465C451 459 451 459 469 456Z"/>
<path id="z31505d8" d="M477 589C567 572 666 565 769 565C783 565 793 562 797 556C801 547 796 537 785 530C748 505 717 497 693 504C642 516 573 533 486 549C449 556 449 556 430 559C361 571 287 584 208 597C193 599 191 606 203 617C222 635 252 639 292 628C332 616 376 607 422 599C459 592 459 592 477 589Z"/>
<path id="z31505d9" d="M474 605C475 599 475 594 477 589C483 562 483 562 486 549C492 520 496 502 502 494C507 485 506 478 500 472C493 465 483 460 469 456C452 449 409 448 415 465C429 497 435 530 430 559C427 572 424 585 422 599C401 701 322 788 184 860C169 867 153 873 138 882C126 888 128 893 143 893C235 890 313 854 379 791C412 758 445 707 466 634C471 615 471 615 474 605Z"/>
<path id="z31505d10" d="M466 634C624 806 723 898 764 906C807 913 868 908 945 894C958 891 965 888 967 885C968 880 964 875 953 871C813 819 737 792 726 786C671 753 597 708 474 605C467 598 460 626 466 634Z"/>
<defs>
	<clipPath id="z31505c1"><use href="#z31505d1"/></clipPath>
	<clipPath id="z31505c2"><use href="#z31505d2"/></clipPath>
	<clipPath id="z31505c3"><use href="#z31505d3"/></clipPath>
	<clipPath id="z31505c4"><use href="#z31505d4"/></clipPath>
	<clipPath id="z31505c5"><use href="#z31505d5"/></clipPath>
	<clipPath id="z31505c6"><use href="#z31505d6"/></clipPath>
	<clipPath id="z31505c7"><use href="#z31505d7"/></clipPath>
	<clipPath id="z31505c8"><use href="#z31505d8"/></clipPath>
	<clipPath id="z31505c9"><use href="#z31505d9"/></clipPath>
	<clipPath id="z31505c10"><use href="#z31505d10"/></clipPath>
</defs>
<path style="--d:1s;" pathLength="3333" clip-path="url(#z31505c1)" d="M308 106L341 147L307 224L167 370"/>
<path style="--d:2s;" pathLength="3333" clip-path="url(#z31505c2)" d="M332 231L525 194"/>
<path style="--d:3s;" pathLength="3333" clip-path="url(#z31505c3)" d="M353 294L420 367"/>
<path style="--d:4s;" pathLength="3333" clip-path="url(#z31505c4)" d="M616 64L651 98L646 124L603 222L517 308"/>
<path style="--d:5s;" pathLength="3333" clip-path="url(#z31505c5)" d="M655 182L877 151"/>
<path style="--d:6s;" pathLength="3333" clip-path="url(#z31505c6)" d="M641 273L737 351"/>
<path style="--d:7s;" pathLength="3333" clip-path="url(#z31505c7)" d="M553 359L577 397L321 456"/>
<path style="--d:8s;" pathLength="3333" clip-path="url(#z31505c8)" d="M208 608L281 615L683 540L786 548"/>
<path style="--d:9s;" pathLength="3333" clip-path="url(#z31505c9)" d="M439 471L483 510L455 633L402 735L297 828L150 885"/>
<path style="--d:10s;" pathLength="3333" clip-path="url(#z31505c10)" d="M480 622L742 845L950 884"/>
</svg>