<!--
AnimCJK 2016-2018 Copyright Francois Mizessyn, https://github.com/parsimonhi/animCJK
Derived from:
    MakeMeAHanzi project - https://github.com/skishore/makemeahanzi
    Arphic PL KaitiM GB - https://apps.ubuntu.com/cat/applications/precise/fonts-arphic-gkai00mp/
    Arphic PL UKai - https://apps.ubuntu.com/cat/applications/fonts-arphic-ukai/
You can redistribute and/or modify this file under the terms of the Arphic Public License
as published by Arphic Technology Co., Ltd.
You should have received a copy of this license (the directory "APL") along with this file;
if not, see http://ftp.gnu.org/non-gnu/chinese-fonts-truetype/LICENSE.
-->
<svg id="z31574" class="acjk" version="1.1" viewBox="0 0 1024 1024" xmlns="http://www.w3.org/2000/svg" xmlns:xlink="http://www.w3.org/1999/xlink">
<style>
<![CDATA[
@keyframes z31574k {
	from {
		stroke:#c00;
		stroke-dashoffset:3334;
	}
	75% {
		stroke:#c00;
		stroke-dashoffset:0;
	}
	to {
		stroke:#000;
	}
}
#z31574 path[clip-path] {
	animation:z31574k 1s linear both;
	stroke-dasharray:3334;
	stroke-width:128;
	stroke-linecap:round;
	fill:none;
}
#z31574 path[clip-path="url(#z31574c1)"] {animation-delay:1s;}
#z31574 path[clip-path="url(#z31574c2)"] {animation-delay:2s;}
#z31574 path[clip-path="url(#z31574c3)"] {animation-delay:3s;}
#z31574 path[clip-path="url(#z31574c4)"] {animation-delay:4s;}
#z31574 path[clip-path="url(#z31574c5)"] {animation-delay:5s;}
#z31574 path[clip-path="url(#z31574c6)"] {animation-delay:6s;}
#z31574 path[clip-path="url(#z31574c7)"] {animation-delay:7s;}
#z31574 path[clip-path="url(#z31574c8)"] {animation-delay:8s;}
#z31574 path[clip-path="url(#z31574c9)"] {animation-delay:9s;}
#z31574 path[clip-path="url(#z31574c10)"] {animation-delay:10s;}
#z31574 path[clip-path="url(#z31574c11)"] {animation-delay:11s;}
#z31574 path[clip-path="url(#z31574c12)"] {animation-delay:12s;}
#z31574 path {fill:#ccc;}
]]>
</style>
<path id="z31574d1" d="M333 183Q346 158 360 136Q369 124 354 112Q315 84 290 89Q280 92 283 105Q301 180 208 306Q196 321 188 333Q181 348 195 342Q210 339 229 322Q289 270 320 207L333 183 Z"/>
<path id="z31574d2" d="M320 207Q353 217 409 205Q443 196 482 188Q501 184 504 180Q511 173 507 166Q500 156 475 151Q453 147 382 172Q358 176 333 183L320 207 Z"/>
<path id="z31574d3" d="M351 293Q390 332 405 331Q414 330 417 320Q421 307 413 283Q409 271 388 263Q342 248 328 253Q324 257 325 267Q329 277 351 293 Z"/>
<path id="z31574d4" d="M622 156Q637 125 651 100Q658 87 644 75Q596 48 576 55Q566 59 569 72Q590 144 522 250Q507 271 500 284Q493 300 507 293Q520 290 538 274Q584 231 611 180L622 156 Z"/>
<path id="z31574d5" d="M611 180Q650 201 701 190Q747 183 797 175Q819 171 822 167Q831 160 827 152Q820 140 792 132Q764 126 734 137Q709 144 682 150Q654 154 622 156L611 180 Z"/>
<path id="z31574d6" d="M661 271Q716 314 732 314Q742 313 745 300Q748 285 737 260Q725 236 652 228Q637 227 632 229Q628 233 630 245Q634 255 661 271 Z"/>
<path id="z31574d7" d="M515 406Q654 379 662 374Q671 367 666 359Q660 349 634 341Q606 334 579 344Q548 354 516 363L469 374Q409 386 341 391Q307 395 331 411Q362 432 436 420Q452 417 470 414L515 406 Z"/>
<path id="z31574d8" d="M325 506Q315 500 285 495Q275 492 271 497Q264 503 273 518Q295 563 309 636Q312 658 325 673Q341 694 346 679Q353 664 349 632Q340 572 338 545L325 506 Z"/>
<path id="z31574d9" d="M516 500Q660 470 681 489Q687 495 684 505Q669 584 661 594Q655 604 643 598Q621 591 595 584Q570 577 585 597Q631 654 649 691Q653 701 663 697Q684 685 716 603Q732 537 754 521Q769 502 764 495Q757 482 711 450Q696 435 639 451Q579 455 516 469L470 476Q463 476 325 506L338 545Q348 545 361 541Q400 525 470 509L516 500 Z"/>
<path id="z31574d10" d="M516 598Q516 549 516 500L516 469Q516 438 515 406L516 363Q516 326 512 322Q500 312 475 299Q466 295 460 301Q456 307 460 314Q469 329 469 374L470 414Q470 444 470 476L470 509Q470 536 469 564L469 651Q469 801 459 887Q456 926 480 958Q492 971 501 955Q526 907 519 864Q516 837 516 641L516 598 Z"/>
<path id="z31574d11" d="M469 564Q468 565 468 566Q387 711 168 855Q155 865 164 867Q171 871 184 868Q314 829 450 673Q460 660 469 651L469 564 Z"/>
<path id="z31574d12" d="M516 641Q681 848 722 863Q785 881 893 866Q912 865 914 860Q917 853 902 846Q853 824 794 801Q662 744 516 598L516 641 Z"/>
<defs>
	<clipPath id="z31574c1"><use xlink:href="#z31574d1"/></clipPath>
	<clipPath id="z31574c2"><use xlink:href="#z31574d2"/></clipPath>
	<clipPath id="z31574c3"><use xlink:href="#z31574d3"/></clipPath>
	<clipPath id="z31574c4"><use xlink:href="#z31574d4"/></clipPath>
	<clipPath id="z31574c5"><use xlink:href="#z31574d5"/></clipPath>
	<clipPath id="z31574c6"><use xlink:href="#z31574d6"/></clipPath>
	<clipPath id="z31574c7"><use xlink:href="#z31574d7"/></clipPath>
	<clipPath id="z31574c8"><use xlink:href="#z31574d8"/></clipPath>
	<clipPath id="z31574c9"><use xlink:href="#z31574d9"/></clipPath>
	<clipPath id="z31574c10"><use xlink:href="#z31574d10"/></clipPath>
	<clipPath id="z31574c11"><use xlink:href="#z31574d11"/></clipPath>
	<clipPath id="z31574c12"><use xlink:href="#z31574d12"/></clipPath>
</defs>
<path pathLength="3333" clip-path="url(#z31574c1)" d="M291 95L324 131L310 169L260 264L192 335"/>
<path pathLength="3333" clip-path="url(#z31574c2)" d="M331 203L502 170"/>
<path pathLength="3333" clip-path="url(#z31574c3)" d="M333 262L409 325"/>
<path pathLength="3333" clip-path="url(#z31574c4)" d="M575 61L612 104L574 199L504 289"/>
<path pathLength="3333" clip-path="url(#z31574c5)" d="M618 176L820 153"/>
<path pathLength="3333" clip-path="url(#z31574c6)" d="M636 235L739 306"/>
<path pathLength="3333" clip-path="url(#z31574c7)" d="M327 398L415 403L662 363"/>
<path pathLength="3333" clip-path="url(#z31574c8)" d="M275 501L308 535L336 680"/>
<path pathLength="3333" clip-path="url(#z31574c9)" d="M332 511L682 464L723 507L677 624L652 649L588 587"/>
<path pathLength="3333" clip-path="url(#z31574c10)" d="M466 306L492 359L490 959"/>
<path pathLength="3333" clip-path="url(#z31574c11)" d="M466 576L447 639L371 724L168 863"/>
<path pathLength="3333" clip-path="url(#z31574c12)" d="M518 607L727 816L907 856"/>
</svg>