<!--
AnimCJK 2016-2026 Copyright FM-SH, https://github.com/parsimonhi/animCJK
Derived from:
    MakeMeAHanzi project - https://github.com/skishore/makemeahanzi
    Arphic PL KaitiM GB font
    Arphic PL KaitiM Big5 font
You can redistribute and/or modify this file under the terms of the Arphic Public License
as published by Arphic Technology Co., Ltd.
You should have received a copy of this license along with this file.
If not, see https://ftp.gnu.org/non-gnu/chinese-fonts-truetype/LICENSE.
-->
<svg id="z31600" class="acjk" viewBox="0 0 1024 1024" xmlns="http://www.w3.org/2000/svg">
<style>
<![CDATA[
@keyframes zk {
	to {
		stroke-dashoffset:0;
	}
}
svg.acjk path[clip-path] {
	--t:0.8s;
	animation:zk var(--t) linear forwards var(--d);
	stroke-dasharray:3337;
	stroke-dashoffset:3339;
	stroke-width:128;
	stroke-linecap:round;
	fill:none;
	stroke:#000;
}
svg.acjk path[id] {fill:#ccc;}
]]>
</style>
<path id="z31600d1" d="M326 192C335 175 344 159 355 145C360 136 360 127 350 120C324 100 302 92 286 95C279 95 277 102 279 111C288 169 248 243 186 322C140 379 180 360 202 344C252 305 286 264 310 221C321 202 321 202 326 192Z"/>
<path id="z31600d2" d="M310 221C332 227 375 225 439 209C455 204 478 201 496 194C506 189 513 172 465 163C446 159 414 168 368 183C354 187 340 188 326 192C315 194 299 219 310 221Z"/>
<path id="z31600d3" d="M362 303C376 314 389 328 404 343C411 350 420 353 428 353C434 352 438 348 441 341C443 333 442 321 438 305C435 294 425 285 409 279C372 264 348 258 340 263C336 264 335 270 337 277C338 283 347 291 362 303Z"/>
<path id="z31600d4" d="M609 174C620 151 631 130 643 112C648 103 646 93 637 87C607 67 585 62 572 66C565 68 563 73 565 82C579 161 538 217 493 286C466 328 487 322 518 297C551 268 586 218 598 196C605 181 605 181 609 174Z"/>
<path id="z31600d5" d="M598 196C618 206 652 208 700 198C731 191 762 183 796 176C807 173 838 169 829 151C825 143 813 137 795 134C776 130 758 134 741 142C722 149 702 155 681 161C658 166 634 170 609 174C601 176 590 193 598 196Z"/>
<path id="z31600d6" d="M648 274C669 289 692 306 716 325C723 330 732 333 741 333C747 332 751 329 753 321C755 313 752 302 747 285C741 272 730 259 708 252C658 235 628 231 623 236C619 238 618 243 621 250C622 256 632 264 648 274Z"/>
<path id="z31600d7" d="M300 509C323 480 341 459 374 412C391 388 364 366 348 353C320 331 282 324 294 358C300 431 225 551 120 654C94 680 107 689 135 670C196 630 261 559 281 534C294 517 294 517 300 509Z"/>
<path id="z31600d8" d="M281 534C287 550 294 566 296 581C304 645 300 745 283 831C276 862 282 888 303 912C314 927 324 924 332 908C342 884 345 858 344 831C342 672 345 622 348 577C350 538 337 538 300 509C292 503 277 524 281 534Z"/>
<path id="z31600d9" d="M557 476C595 427 617 398 641 368C657 346 646 327 603 300C582 287 565 289 568 315C572 367 505 479 422 573C375 625 403 621 436 595C471 568 524 516 541 496C552 483 552 483 557 476Z"/>
<path id="z31600d10" d="M637 507C708 495 784 478 832 466C870 457 920 433 855 417C841 413 799 426 729 444C644 466 584 474 557 476C549 476 534 491 541 495C552 502 576 509 598 511C611 511 624 509 637 507Z"/>
<path id="z31600d11" d="M656 614C656 585 659 562 663 541C664 532 655 521 637 507C628 498 595 498 598 511C622 647 614 717 596 839C593 862 591 898 608 924C617 939 631 961 643 935C651 916 656 899 657 875C658 836 656 792 656 775C656 756 656 756 656 746C656 678 656 678 656 644C656 624 656 624 656 614Z"/>
<path id="z31600d12" d="M656 644C671 639 723 629 815 616C830 613 834 608 829 600C822 590 809 583 793 581C776 578 730 590 656 614C647 618 646 646 656 644Z"/>
<path id="z31600d13" d="M656 775C660 775 665 776 670 775C731 763 785 754 831 749C848 746 853 740 847 731C840 721 827 713 809 711C792 707 741 720 656 746C647 750 646 775 656 775Z"/>
<defs>
	<clipPath id="z31600c1"><use href="#z31600d1"/></clipPath>
	<clipPath id="z31600c2"><use href="#z31600d2"/></clipPath>
	<clipPath id="z31600c3"><use href="#z31600d3"/></clipPath>
	<clipPath id="z31600c4"><use href="#z31600d4"/></clipPath>
	<clipPath id="z31600c5"><use href="#z31600d5"/></clipPath>
	<clipPath id="z31600c6"><use href="#z31600d6"/></clipPath>
	<clipPath id="z31600c7"><use href="#z31600d7"/></clipPath>
	<clipPath id="z31600c8"><use href="#z31600d8"/></clipPath>
	<clipPath id="z31600c9"><use href="#z31600d9"/></clipPath>
	<clipPath id="z31600c10"><use href="#z31600d10"/></clipPath>
	<clipPath id="z31600c11"><use href="#z31600d11"/></clipPath>
	<clipPath id="z31600c12"><use href="#z31600d12"/></clipPath>
	<clipPath id="z31600c13"><use href="#z31600d13"/></clipPath>
</defs>
<path style="--d:1s;" pathLength="3333" clip-path="url(#z31600c1)" d="M287 101L317 146L264 250L170 353"/>
<path style="--d:2s;" pathLength="3333" clip-path="url(#z31600c2)" d="M313 215L497 182"/>
<path style="--d:3s;" pathLength="3333" clip-path="url(#z31600c3)" d="M343 271L408 308L429 348"/>
<path style="--d:4s;" pathLength="3333" clip-path="url(#z31600c4)" d="M572 69L606 115L488 308"/>
<path style="--d:5s;" pathLength="3333" clip-path="url(#z31600c5)" d="M598 190L825 159"/>
<path style="--d:6s;" pathLength="3333" clip-path="url(#z31600c6)" d="M623 241L746 324"/>
<path style="--d:7s;" pathLength="3333" clip-path="url(#z31600c7)" d="M299 342L335 390L317 434L225 566L115 674"/>
<path style="--d:8s;" pathLength="3333" clip-path="url(#z31600c8)" d="M294 512L322 573L314 917"/>
<path style="--d:9s;" pathLength="3333" clip-path="url(#z31600c9)" d="M578 296L603 357L523 481L406 606"/>
<path style="--d:10s;" pathLength="3333" clip-path="url(#z31600c10)" d="M547 490L883 438"/>
<path style="--d:11s;" pathLength="3333" clip-path="url(#z31600c11)" d="M605 508L633 546L626 940"/>
<path style="--d:12s;" pathLength="3333" clip-path="url(#z31600c12)" d="M651 633L827 605"/>
<path style="--d:13s;" pathLength="3333" clip-path="url(#z31600c13)" d="M652 765L844 733"/>
</svg>