<!--
AnimCJK 2016-2026 Copyright FM-SH - https://github.com/parsimonhi/animCJK
Derived from:
    MakeMeAHanzi project - https://github.com/skishore/makemeahanzi
    Arphic PL KaitiM GB font
    Arphic PL KaitiM Big5 font
You can redistribute and/or modify this file under the terms of the Arphic Public License
as published by Arphic Technology Co., Ltd.
You should have received a copy of this license along with this file.
If not, see https://ftp.gnu.org/non-gnu/chinese-fonts-truetype/LICENSE.
-->
<svg id="z31686" class="acjk" viewBox="0 0 1024 1024" xmlns="http://www.w3.org/2000/svg">
<style>
<![CDATA[
@keyframes zk {
	to {
		stroke-dashoffset:0;
	}
}
svg.acjk path[clip-path] {
	--t:0.8s;
	animation:zk var(--t) linear forwards var(--d);
	stroke-dasharray:3337;
	stroke-dashoffset:3339;
	stroke-width:128;
	stroke-linecap:round;
	fill:none;
	stroke:#000;
}
svg.acjk path[id] {fill:#ccc;}
]]>
</style>
<path id="z31686d1" d="M334 168C343 153 352 139 363 128C368 121 369 112 360 104C337 83 316 76 302 78C295 78 293 83 294 92C301 157 266 213 189 293C154 330 195 313 202 309C254 281 288 235 320 189C329 175 329 175 334 168Z"/>
<path id="z31686d2" d="M320 189C346 201 373 201 402 195C427 189 454 184 482 179C534 167 500 147 475 142C458 138 441 142 424 148C402 154 379 160 334 168C326 170 312 186 320 189Z"/>
<path id="z31686d3" d="M324 246C344 278 360 295 373 297C379 297 399 290 386 259C382 250 373 245 364 241C347 233 336 227 330 226C321 224 316 234 324 246Z"/>
<path id="z31686d4" d="M611 142C621 122 631 103 642 88C646 81 645 73 636 66C612 48 593 43 579 47C573 48 571 52 573 61C586 133 549 181 507 239C484 272 513 257 524 249C549 231 573 210 599 164C607 149 607 149 611 142Z"/>
<path id="z31686d5" d="M599 164C623 174 662 175 714 165C736 160 760 154 785 150C838 139 818 118 781 110C763 106 745 110 727 117C689 130 650 137 611 142C603 143 591 161 599 164Z"/>
<path id="z31686d6" d="M639 249C654 259 669 271 686 285C695 292 719 302 725 280C727 271 723 258 717 242C712 231 702 223 685 218C645 205 619 202 612 209C598 221 624 239 639 249Z"/>
<path id="z31686d7" d="M468 298C475 291 480 282 480 278C479 270 469 257 451 239C437 225 412 221 419 242C426 265 395 332 351 365C340 372 334 378 336 385C337 395 342 406 349 416C353 422 354 425 367 420C387 411 442 402 542 390C548 389 557 372 550 372C501 372 455 374 414 375C399 375 395 369 404 360C420 341 436 324 453 311C463 302 463 302 468 298Z"/>
<path id="z31686d8" d="M540 447C576 402 606 352 652 317C661 309 664 302 657 296C650 290 640 282 624 274C596 261 600 270 508 292C496 294 482 296 468 298C461 299 447 308 453 311C459 315 467 319 480 322C486 323 512 319 557 313C567 311 570 314 567 327C563 339 556 357 550 372C545 384 545 384 542 390C535 403 514 446 514 450C511 458 535 454 540 447Z"/>
<path id="z31686d9" d="M455 488C541 475 655 468 796 472C816 472 913 475 868 438C834 410 803 401 778 407C717 419 638 435 540 447C523 449 523 449 514 450C513 450 464 457 137 494C122 495 119 501 131 513C154 537 183 538 200 534C268 516 341 503 419 493C443 490 443 490 455 488Z"/>
<path id="z31686d10" d="M463 546C480 536 472 511 455 488C449 478 423 482 419 493C414 519 360 562 254 617C226 630 237 635 258 633C322 627 420 565 435 559C454 550 454 550 463 546Z"/>
<path id="z31686d11" d="M549 635C523 596 498 567 463 546C454 541 427 553 435 559C437 561 441 563 446 568C464 584 479 598 491 613C496 619 501 626 506 635C517 655 525 673 530 694C539 735 529 785 517 824C502 866 474 858 437 851C397 843 376 843 402 867C438 899 466 923 482 945C502 973 526 954 540 935C553 915 561 887 569 853C579 804 582 765 579 735C576 717 575 702 571 687C565 668 559 650 549 635Z"/>
<path id="z31686d12" d="M446 568C400 645 318 689 240 730C208 744 220 751 249 747C345 734 440 655 491 613C506 598 459 551 446 568Z"/>
<path id="z31686d13" d="M506 635C505 635 505 635 505 637C425 749 289 823 234 853C206 867 210 883 238 875C370 836 497 740 530 694C543 677 515 616 506 635Z"/>
<path id="z31686d14" d="M565 647C633 610 683 582 718 573C748 564 724 536 714 522C696 498 661 481 660 514C659 529 623 570 549 635C544 640 559 650 565 647Z"/>
<path id="z31686d15" d="M571 687C619 737 670 784 724 831C740 844 760 851 785 851C830 850 876 842 923 831C957 822 936 813 929 811C808 776 742 754 731 750C674 727 604 676 565 647C519 619 539 644 571 687Z"/>
<defs>
	<clipPath id="z31686c1"><use href="#z31686d1"/></clipPath>
	<clipPath id="z31686c2"><use href="#z31686d2"/></clipPath>
	<clipPath id="z31686c3"><use href="#z31686d3"/></clipPath>
	<clipPath id="z31686c4"><use href="#z31686d4"/></clipPath>
	<clipPath id="z31686c5"><use href="#z31686d5"/></clipPath>
	<clipPath id="z31686c6"><use href="#z31686d6"/></clipPath>
	<clipPath id="z31686c7"><use href="#z31686d7"/></clipPath>
	<clipPath id="z31686c8"><use href="#z31686d8"/></clipPath>
	<clipPath id="z31686c9"><use href="#z31686d9"/></clipPath>
	<clipPath id="z31686c10"><use href="#z31686d10"/></clipPath>
	<clipPath id="z31686c11"><use href="#z31686d11"/></clipPath>
	<clipPath id="z31686c12"><use href="#z31686d12"/></clipPath>
	<clipPath id="z31686c13"><use href="#z31686d13"/></clipPath>
	<clipPath id="z31686c14"><use href="#z31686d14"/></clipPath>
	<clipPath id="z31686c15"><use href="#z31686d15"/></clipPath>
</defs>
<path style="--d:1s;" pathLength="3333" clip-path="url(#z31686c1)" d="M301 84L328 130L256 244L184 310"/>
<path style="--d:2s;" pathLength="3333" clip-path="url(#z31686c2)" d="M322 183L504 160"/>
<path style="--d:3s;" pathLength="3333" clip-path="url(#z31686c3)" d="M327 230L384 284"/>
<path style="--d:4s;" pathLength="3333" clip-path="url(#z31686c4)" d="M580 51L608 92L569 179L504 254"/>
<path style="--d:5s;" pathLength="3333" clip-path="url(#z31686c5)" d="M600 156L810 133"/>
<path style="--d:6s;" pathLength="3333" clip-path="url(#z31686c6)" d="M612 216L721 280"/>
<path style="--d:7s;" pathLength="3333" clip-path="url(#z31686c7)" d="M427 230L447 277L372 368L378 395L544 381"/>
<path style="--d:8s;" pathLength="3333" clip-path="url(#z31686c8)" d="M456 306L587 293L614 309L520 448"/>
<path style="--d:9s;" pathLength="3333" clip-path="url(#z31686c9)" d="M131 503L198 511L745 441L876 451"/>
<path style="--d:10s;" pathLength="3333" clip-path="url(#z31686c10)" d="M437 485L436 529L244 626"/>
<path style="--d:11s;" pathLength="3333" clip-path="url(#z31686c11)" d="M442 556L537 652L551 802L499 906L398 856"/>
<path style="--d:12s;" pathLength="3333" clip-path="url(#z31686c12)" d="M452 572L457 607L391 663L228 742"/>
<path style="--d:13s;" pathLength="3333" clip-path="url(#z31686c13)" d="M512 636L510 675L444 741L223 870"/>
<path style="--d:14s;" pathLength="3333" clip-path="url(#z31686c14)" d="M671 501L684 556L555 638"/>
<path style="--d:15s;" pathLength="3333" clip-path="url(#z31686c15)" d="M547 645L763 805L936 816"/>
</svg>