<!--
AnimCJK 2016-2026 Copyright FM-SH, https://github.com/parsimonhi/animCJK
Derived from:
    MakeMeAHanzi project - https://github.com/skishore/makemeahanzi
    Arphic PL KaitiM GB font
    Arphic PL KaitiM Big5 font
You can redistribute and/or modify this file under the terms of the Arphic Public License
as published by Arphic Technology Co., Ltd.
You should have received a copy of this license along with this file.
If not, see https://ftp.gnu.org/non-gnu/chinese-fonts-truetype/LICENSE.
-->
<svg id="z31783" class="acjk" viewBox="0 0 1024 1024" xmlns="http://www.w3.org/2000/svg">
<style>
<![CDATA[
@keyframes zk {
	to {
		stroke-dashoffset:0;
	}
}
svg.acjk path[clip-path] {
	--t:0.8s;
	animation:zk var(--t) linear forwards var(--d);
	stroke-dasharray:3337;
	stroke-dashoffset:3339;
	stroke-width:128;
	stroke-linecap:round;
	fill:none;
	stroke:#000;
}
svg.acjk path[id] {fill:#ccc;}
]]>
</style>
<path id="z31783d1" d="M349 164C361 144 374 127 387 112C392 105 392 97 384 89C361 68 341 59 326 61C319 61 316 66 318 76C323 126 293 178 241 245C233 254 221 262 205 282C198 289 202 292 211 291C219 289 230 284 245 275C282 248 314 218 337 183C345 170 345 170 349 164Z"/>
<path id="z31783d2" d="M337 183C345 187 357 196 371 194C475 173 475 173 527 163C532 161 539 153 535 146C530 139 519 133 503 131C489 128 457 137 408 152C390 157 370 160 349 164C342 165 330 180 337 183Z"/>
<path id="z31783d3" d="M373 235C404 259 426 270 439 269C445 268 460 257 439 231C433 223 423 219 412 218C393 215 380 214 372 215C363 215 364 228 373 235Z"/>
<path id="z31783d4" d="M622 133C632 114 641 96 653 82C658 74 658 66 649 59C623 40 602 33 590 36C583 37 581 42 583 51C590 98 569 148 529 206C523 214 512 226 500 242C494 249 497 251 507 250C531 245 569 219 607 158C617 141 617 141 622 133Z"/>
<path id="z31783d5" d="M607 158C633 166 675 165 732 153C750 149 771 144 793 139C804 136 831 132 823 115C819 107 807 101 789 98C770 94 752 99 735 106C693 121 656 128 622 133C612 135 597 156 607 158Z"/>
<path id="z31783d6" d="M658 232C686 254 704 266 711 266C729 264 720 235 716 223C711 210 690 201 652 197C644 195 638 195 636 198C623 210 650 225 658 232Z"/>
<path id="z31783d7" d="M613 365C655 359 694 355 731 353C737 352 769 345 730 321C702 304 658 311 628 318C586 327 586 327 565 332C538 337 467 348 444 351C411 354 411 354 395 356C363 359 329 359 295 363C277 364 274 370 288 383C319 412 364 400 403 394C431 389 431 389 445 387C481 380 520 376 563 371C596 367 596 367 613 365Z"/>
<path id="z31783d8" d="M444 351C443 327 440 312 434 308C421 299 407 292 392 288C378 284 361 288 372 307C381 322 391 338 395 356C400 381 400 381 403 394C408 422 408 457 419 473C434 497 442 484 447 469C449 459 448 450 448 439C446 424 445 397 445 387C444 363 444 363 444 351Z"/>
<path id="z31783d9" d="M603 424C603 424 608 381 613 365C617 349 622 329 628 318C636 299 641 294 625 279C609 265 593 258 580 254C569 250 548 251 558 274C562 284 566 303 565 332C564 358 564 358 563 371C562 384 560 405 560 415C560 430 600 438 603 424Z"/>
<path id="z31783d10" d="M614 452C623 451 634 444 603 424C590 416 574 413 560 415C521 425 480 433 448 439C438 441 437 469 447 469C468 468 497 457 614 452Z"/>
<path id="z31783d11" d="M509 530C565 524 694 519 896 521C930 521 932 501 911 485C874 456 842 445 815 451C592 492 367 512 142 535C127 536 124 542 136 555C159 579 190 581 209 578C293 560 381 542 469 534C496 531 496 531 509 530Z"/>
<path id="z31783d12" d="M352 615C334 608 277 588 299 630C318 667 333 697 344 760C347 778 353 794 364 807C381 828 390 815 390 797C389 787 390 778 389 769C384 744 377 710 368 650C366 637 364 620 352 615Z"/>
<path id="z31783d13" d="M629 783C629 783 630 785 631 788C633 796 639 801 647 801C655 800 662 795 667 786C673 776 683 756 698 707C707 674 724 659 747 640C758 630 758 619 749 610C738 599 716 587 685 571C664 560 671 563 538 585C501 591 501 591 483 594C453 598 438 603 352 615C339 618 357 657 368 650C374 644 412 636 484 627C519 622 519 622 536 620C576 614 607 610 628 610C658 610 666 615 660 649C647 717 638 739 632 755C629 764 626 774 629 783Z"/>
<path id="z31783d14" d="M538 585C539 551 550 550 509 530C497 525 464 522 469 534C477 552 482 572 483 594C484 616 484 616 484 627C484 641 484 651 485 675C486 695 486 695 486 705C486 723 486 734 487 758C487 772 529 766 529 752C529 729 531 718 532 699C533 676 533 676 533 664C533 645 535 637 536 620C537 597 537 597 538 585Z"/>
<path id="z31783d15" d="M532 699C553 696 575 694 596 692C622 688 607 667 579 661C568 658 553 659 533 664C501 671 501 671 485 675C460 680 437 684 415 690C405 692 403 701 417 706C428 709 442 710 486 705C517 701 517 701 532 699Z"/>
<path id="z31783d16" d="M390 797C401 800 462 787 629 783C638 783 639 761 632 755C608 732 592 742 529 752C501 756 501 756 487 758C451 763 418 766 389 769C380 771 381 797 390 797Z"/>
<path id="z31783d17" d="M394 832C379 865 331 910 239 961C223 969 224 971 243 973C323 978 401 912 457 879C464 874 485 856 445 834C427 824 404 807 394 832Z"/>
<path id="z31783d18" d="M585 842C615 870 649 905 686 946C698 959 716 981 733 961C740 951 741 933 733 905C725 876 699 856 659 839C643 832 619 823 586 812C579 809 576 810 575 819C574 827 577 835 585 842Z"/>
<defs>
	<clipPath id="z31783c1"><use href="#z31783d1"/></clipPath>
	<clipPath id="z31783c2"><use href="#z31783d2"/></clipPath>
	<clipPath id="z31783c3"><use href="#z31783d3"/></clipPath>
	<clipPath id="z31783c4"><use href="#z31783d4"/></clipPath>
	<clipPath id="z31783c5"><use href="#z31783d5"/></clipPath>
	<clipPath id="z31783c6"><use href="#z31783d6"/></clipPath>
	<clipPath id="z31783c7"><use href="#z31783d7"/></clipPath>
	<clipPath id="z31783c8"><use href="#z31783d8"/></clipPath>
	<clipPath id="z31783c9"><use href="#z31783d9"/></clipPath>
	<clipPath id="z31783c10"><use href="#z31783d10"/></clipPath>
	<clipPath id="z31783c11"><use href="#z31783d11"/></clipPath>
	<clipPath id="z31783c12"><use href="#z31783d12"/></clipPath>
	<clipPath id="z31783c13"><use href="#z31783d13"/></clipPath>
	<clipPath id="z31783c14"><use href="#z31783d14"/></clipPath>
	<clipPath id="z31783c15"><use href="#z31783d15"/></clipPath>
	<clipPath id="z31783c16"><use href="#z31783d16"/></clipPath>
	<clipPath id="z31783c17"><use href="#z31783d17"/></clipPath>
	<clipPath id="z31783c18"><use href="#z31783d18"/></clipPath>
</defs>
<path style="--d:1s;" pathLength="3333" clip-path="url(#z31783c1)" d="M324 68L351 112L294 206L209 286"/>
<path style="--d:2s;" pathLength="3333" clip-path="url(#z31783c2)" d="M342 179L527 145"/>
<path style="--d:3s;" pathLength="3333" clip-path="url(#z31783c3)" d="M371 222L446 256"/>
<path style="--d:4s;" pathLength="3333" clip-path="url(#z31783c4)" d="M590 45L619 85L506 245"/>
<path style="--d:5s;" pathLength="3333" clip-path="url(#z31783c5)" d="M612 153L820 118"/>
<path style="--d:6s;" pathLength="3333" clip-path="url(#z31783c6)" d="M639 203L711 260"/>
<path style="--d:7s;" pathLength="3333" clip-path="url(#z31783c7)" d="M288 371L744 343"/>
<path style="--d:8s;" pathLength="3333" clip-path="url(#z31783c8)" d="M376 291L416 332L434 480"/>
<path style="--d:9s;" pathLength="3333" clip-path="url(#z31783c9)" d="M563 261L599 300L585 429"/>
<path style="--d:10s;" pathLength="3333" clip-path="url(#z31783c10)" d="M445 459L619 441"/>
<path style="--d:11s;" pathLength="3333" clip-path="url(#z31783c11)" d="M135 544L202 554L827 485L920 504"/>
<path style="--d:12s;" pathLength="3333" clip-path="url(#z31783c12)" d="M300 610L341 651L378 812"/>
<path style="--d:13s;" pathLength="3333" clip-path="url(#z31783c13)" d="M355 624L669 592L708 633L646 797"/>
<path style="--d:14s;" pathLength="3333" clip-path="url(#z31783c14)" d="M476 535L510 567L504 764"/>
<path style="--d:15s;" pathLength="3333" clip-path="url(#z31783c15)" d="M411 697L602 680"/>
<path style="--d:16s;" pathLength="3333" clip-path="url(#z31783c16)" d="M385 782L633 764"/>
<path style="--d:17s;" pathLength="3333" clip-path="url(#z31783c17)" d="M406 824L419 866L237 969"/>
<path style="--d:18s;" pathLength="3333" clip-path="url(#z31783c18)" d="M581 820L691 899L728 963"/>
</svg>