<!--
AnimCJK 2016-2018 Copyright Francois Mizessyn, https://github.com/parsimonhi/animCJK
Derived from:
    MakeMeAHanzi project - https://github.com/skishore/makemeahanzi
    Arphic PL KaitiM GB - https://apps.ubuntu.com/cat/applications/precise/fonts-arphic-gkai00mp/
    Arphic PL UKai - https://apps.ubuntu.com/cat/applications/fonts-arphic-ukai/
You can redistribute and/or modify this file under the terms of the Arphic Public License
as published by Arphic Technology Co., Ltd.
You should have received a copy of this license (the directory "APL") along with this file;
if not, see http://ftp.gnu.org/non-gnu/chinese-fonts-truetype/LICENSE.
-->
<svg id="z31807" class="acjk" version="1.1" viewBox="0 0 1024 1024" xmlns="http://www.w3.org/2000/svg" xmlns:xlink="http://www.w3.org/1999/xlink">
<style>
<![CDATA[
@keyframes z31807k {
	from {
		stroke:#c00;
		stroke-dashoffset:3334;
	}
	75% {
		stroke:#c00;
		stroke-dashoffset:0;
	}
	to {
		stroke:#000;
	}
}
#z31807 path[clip-path] {
	animation:z31807k 1s linear both;
	stroke-dasharray:3334;
	stroke-width:128;
	stroke-linecap:round;
	fill:none;
}
#z31807 path[clip-path="url(#z31807c1)"] {animation-delay:1s;}
#z31807 path[clip-path="url(#z31807c2)"] {animation-delay:2s;}
#z31807 path[clip-path="url(#z31807c3)"] {animation-delay:3s;}
#z31807 path[clip-path="url(#z31807c4)"] {animation-delay:4s;}
#z31807 path[clip-path="url(#z31807c5)"] {animation-delay:5s;}
#z31807 path[clip-path="url(#z31807c6)"] {animation-delay:6s;}
#z31807 path[clip-path="url(#z31807c7)"] {animation-delay:7s;}
#z31807 path[clip-path="url(#z31807c8)"] {animation-delay:8s;}
#z31807 path[clip-path="url(#z31807c9)"] {animation-delay:9s;}
#z31807 path[clip-path="url(#z31807c10)"] {animation-delay:10s;}
#z31807 path[clip-path="url(#z31807c11)"] {animation-delay:11s;}
#z31807 path[clip-path="url(#z31807c12)"] {animation-delay:12s;}
#z31807 path[clip-path="url(#z31807c13)"] {animation-delay:13s;}
#z31807 path[clip-path="url(#z31807c14)"] {animation-delay:14s;}
#z31807 path[clip-path="url(#z31807c15)"] {animation-delay:15s;}
#z31807 path[clip-path="url(#z31807c16)"] {animation-delay:16s;}
#z31807 path[clip-path="url(#z31807c17)"] {animation-delay:17s;}
#z31807 path[clip-path="url(#z31807c18)"] {animation-delay:18s;}
#z31807 path[clip-path="url(#z31807c19)"] {animation-delay:19s;}
#z31807 path {fill:#ccc;}
]]>
</style>
<path id="z31807d1" d="M351 172Q367 148 385 129Q395 119 383 105Q352 74 327 76Q317 77 318 90Q324 160 243 244Q239 244 209 278Q202 290 215 287Q228 286 247 274Q302 238 336 192L351 172 Z"/>
<path id="z31807d2" d="M336 192Q367 207 403 197Q446 190 491 180Q512 176 515 173Q522 167 518 161Q514 152 491 146L351 172L336 192 Z"/>
<path id="z31807d3" d="M361 267Q400 306 413 306Q422 306 425 295Q429 285 422 261Q416 243 357 230Q344 227 340 230Q336 233 337 243Q340 250 361 267 Z"/>
<path id="z31807d4" d="M605 149Q612 134 640 91Q647 81 635 70Q605 46 581 50Q572 53 575 64Q587 127 535 191Q522 207 516 218Q510 231 522 226Q546 223 592 167L605 149 Z"/>
<path id="z31807d5" d="M592 167Q629 185 672 171Q721 158 771 145Q793 138 797 135Q804 128 799 121Q792 112 769 108Q744 105 721 116Q696 126 668 135Q638 142 605 149L592 167 Z"/>
<path id="z31807d6" d="M657 233Q696 266 708 266Q715 265 718 256Q719 246 712 226Q708 214 689 208Q644 196 636 202Q632 205 634 213Q637 220 657 233 Z"/>
<path id="z31807d7" d="M248 398Q267 416 288 437Q300 449 315 448Q325 448 329 435Q333 422 325 395Q321 379 296 368Q233 350 224 353Q220 357 221 369Q224 379 248 398 Z"/>
<path id="z31807d8" d="M160 522Q194 567 221 580Q234 583 243 571Q250 559 248 544Q244 522 227 509Q173 473 149 485Q145 486 146 497Q147 507 160 522 Z"/>
<path id="z31807d9" d="M154 776Q144 779 144 795Q157 864 183 880Q189 887 199 885Q206 884 207 861Q213 825 312 605Q319 592 318 585Q318 576 310 582Q304 585 191 742Q179 760 154 776 Z"/>
<path id="z31807d10" d="M589 351Q706 321 707 321Q714 315 710 309Q706 300 683 294Q665 291 593 314L542 328Q500 335 454 340Q426 344 446 357Q473 372 531 362Q537 361 546 360L589 351 Z"/>
<path id="z31807d11" d="M419 426Q403 416 386 412Q380 411 377 415Q370 419 378 428Q402 462 409 545Q412 599 443 618Q456 622 458 597Q459 572 450 541Q447 490 443 454L419 426 Z"/>
<path id="z31807d12" d="M587 422C659 408 701 405 714 411C718 414 719 423 716 438C702 493 692 526 687 537C682 547 681 557 684 566C686 575 691 580 699 580C707 580 713 575 718 566C724 560 733 541 747 508C757 480 772 457 794 440C804 432 805 423 797 414C787 404 768 391 741 375C721 364 625 386 587 394L548 401C535 403 524 406 515 408C476 416 444 422 419 426L443 454C471 444 506 436 549 429 Z"/>
<path id="z31807d13" d="M584 501Q614 494 642 489Q661 485 653 474Q643 462 622 460Q607 459 585 465L549 478Q518 488 493 497Q480 501 497 513Q504 517 519 514Q532 510 549 508L584 501 Z"/>
<path id="z31807d14" d="M457 599C456 592 457 585 456 577C475 572 527 560 546 553L581 544C615 535 653 531 663 531C670 532 680 535 686 539C683 547 681 552 682 562C617 575 530 586 457 599 Z"/>
<path id="z31807d15" d="M582 544C582 530 583 513 584 501L585 465C585 451 585 436 587 422L587 394C587 378 587 364 589 351L593 314C595 290 595 275 592 271C584 265 572 257 557 249C544 245 532 245 520 250C513 255 514 262 522 270C532 290 539 310 542 328L546 360C546 373 547 387 548 401L549 429L549 478L549 508L547 552 Z"/>
<path id="z31807d16" d="M788 309C798 320 808 332 818 345C824 354 833 358 843 358C849 358 853 355 857 347C859 339 859 327 857 309C852 293 829 279 787 268C778 266 772 265 768 265C765 267 764 272 764 280C764 287 772 297 788 309 Z"/>
<path id="z31807d17" d="M696 668Q766 661 855 660Q916 660 923 651Q927 641 913 629Q864 592 801 610Q756 619 699 631L632 643Q619 644 604 647Q475 666 323 688Q304 689 318 705Q331 717 347 722Q366 726 380 722Q515 683 639 673L696 668 Z"/>
<path id="z31807d18" d="M603 867Q581 866 558 864Q545 863 547 870Q548 876 559 883Q617 932 637 964Q652 980 666 966Q700 929 694 843Q688 698 696 668L699 631Q686 610 641 594Q623 587 616 595Q610 601 620 616Q627 629 632 643L639 673Q648 733 640 834Q639 856 626 864Q617 871 603 867 Z"/>
<path id="z31807d19" d="M473 787Q489 800 506 818Q519 828 532 828Q541 827 545 816Q549 803 540 777Q536 764 513 755Q461 740 448 745Q444 749 445 760Q449 770 473 787 Z"/>
<defs>
	<clipPath id="z31807c1"><use xlink:href="#z31807d1"/></clipPath>
	<clipPath id="z31807c2"><use xlink:href="#z31807d2"/></clipPath>
	<clipPath id="z31807c3"><use xlink:href="#z31807d3"/></clipPath>
	<clipPath id="z31807c4"><use xlink:href="#z31807d4"/></clipPath>
	<clipPath id="z31807c5"><use xlink:href="#z31807d5"/></clipPath>
	<clipPath id="z31807c6"><use xlink:href="#z31807d6"/></clipPath>
	<clipPath id="z31807c7"><use xlink:href="#z31807d7"/></clipPath>
	<clipPath id="z31807c8"><use xlink:href="#z31807d8"/></clipPath>
	<clipPath id="z31807c9"><use xlink:href="#z31807d9"/></clipPath>
	<clipPath id="z31807c10"><use xlink:href="#z31807d10"/></clipPath>
	<clipPath id="z31807c11"><use xlink:href="#z31807d11"/></clipPath>
	<clipPath id="z31807c12"><use xlink:href="#z31807d12"/></clipPath>
	<clipPath id="z31807c13"><use xlink:href="#z31807d13"/></clipPath>
	<clipPath id="z31807c14"><use xlink:href="#z31807d14"/></clipPath>
	<clipPath id="z31807c15"><use xlink:href="#z31807d15"/></clipPath>
	<clipPath id="z31807c16"><use xlink:href="#z31807d16"/></clipPath>
	<clipPath id="z31807c17"><use xlink:href="#z31807d17"/></clipPath>
	<clipPath id="z31807c18"><use xlink:href="#z31807d18"/></clipPath>
	<clipPath id="z31807c19"><use xlink:href="#z31807d19"/></clipPath>
</defs>
<path pathLength="3333" clip-path="url(#z31807c1)" d="M326 80L352 125L292 215L212 281"/>
<path pathLength="3333" clip-path="url(#z31807c2)" d="M342 188L514 163"/>
<path pathLength="3333" clip-path="url(#z31807c3)" d="M342 238L417 299"/>
<path pathLength="3333" clip-path="url(#z31807c4)" d="M583 57L608 97L521 220"/>
<path pathLength="3333" clip-path="url(#z31807c5)" d="M598 162L793 129"/>
<path pathLength="3333" clip-path="url(#z31807c6)" d="M642 209L714 255"/>
<path pathLength="3333" clip-path="url(#z31807c7)" d="M229 361L320 443"/>
<path pathLength="3333" clip-path="url(#z31807c8)" d="M152 493L239 570"/>
<path pathLength="3333" clip-path="url(#z31807c9)" d="M195 881L188 790L312 589"/>
<path pathLength="3333" clip-path="url(#z31807c10)" d="M445 347L703 311"/>
<path pathLength="3333" clip-path="url(#z31807c11)" d="M380 419L420 463L446 614"/>
<path pathLength="3333" clip-path="url(#z31807c12)" d="M428 428L726 393L759 426L698 575"/>
<path pathLength="3333" clip-path="url(#z31807c13)" d="M494 501L648 479"/>
<path pathLength="3333" clip-path="url(#z31807c14)" d="M465 591L680 543"/>
<path pathLength="3333" clip-path="url(#z31807c15)" d="M522 253L565 294L556 545"/>
<path pathLength="3333" clip-path="url(#z31807c16)" d="M771 271L844 353"/>
<path pathLength="3333" clip-path="url(#z31807c17)" d="M322 698L828 632L919 645"/>
<path pathLength="3333" clip-path="url(#z31807c18)" d="M622 598L665 643L663 870L639 921L554 870"/>
<path pathLength="3333" clip-path="url(#z31807c19)" d="M453 754L511 784L531 823"/>
</svg>