<!--
AnimCJK 2016-2026 Copyright FM-SH - https://github.com/parsimonhi/animCJK
Derived from:
    MakeMeAHanzi project - https://github.com/skishore/makemeahanzi
    Arphic PL KaitiM GB font
    Arphic PL KaitiM Big5 font
You can redistribute and/or modify this file under the terms of the Arphic Public License
as published by Arphic Technology Co., Ltd.
You should have received a copy of this license along with this file.
If not, see https://ftp.gnu.org/non-gnu/chinese-fonts-truetype/LICENSE.
-->
<svg id="z31828" class="acjk" viewBox="0 0 1024 1024" xmlns="http://www.w3.org/2000/svg">
<style>
<![CDATA[
@keyframes zk {
	to {
		stroke-dashoffset:0;
	}
}
svg.acjk path[clip-path] {
	--t:0.8s;
	animation:zk var(--t) linear forwards var(--d);
	stroke-dasharray:3337;
	stroke-dashoffset:3339;
	stroke-width:128;
	stroke-linecap:round;
	fill:none;
	stroke:#000;
}
svg.acjk path[id] {fill:#ccc;}
]]>
</style>
<path id="z31828d1" d="M342 114C352 98 369 88 352 72C329 51 308 44 294 46C287 46 285 51 286 61C293 136 248 185 203 236C177 262 193 271 220 253C271 219 302 171 327 136C337 121 337 121 342 114Z"/>
<path id="z31828d2" d="M327 136C353 146 397 145 421 141C458 133 498 130 511 123C533 110 505 95 485 94C460 91 401 107 342 114C333 115 319 133 327 136Z"/>
<path id="z31828d3" d="M332 202C358 233 377 248 390 248C415 247 415 224 398 205C392 197 384 193 372 189C354 184 342 179 335 179C325 179 323 191 332 202Z"/>
<path id="z31828d4" d="M637 112C649 95 672 83 654 65C632 43 612 35 597 37C590 37 587 42 588 51C593 108 556 150 522 193C487 238 520 228 543 212C578 188 599 162 622 132C632 119 632 119 637 112Z"/>
<path id="z31828d5" d="M622 132C642 144 673 146 717 138C745 132 774 126 806 121C846 114 842 90 805 82C788 78 771 81 754 87C719 98 680 106 637 112C629 114 615 128 622 132Z"/>
<path id="z31828d6" d="M645 210C661 220 678 232 695 245C696 246 721 262 728 240C730 232 725 221 720 208C715 198 705 189 689 185C650 175 627 173 621 178C618 179 618 184 621 190C622 194 631 201 645 210Z"/>
<path id="z31828d7" d="M241 347Q229 341 200 337Q190 336 188 340Q184 344 191 357Q207 385 221 429C226 448 226 448 229 458Q233 468 236 481Q240 505 255 520Q270 536 273 523Q274 519 274 516C274 502 274 502 274 495Q271 474 264 450C260 433 260 433 258 424Q249 390 247 373C245 364 249 350 241 347Z"/>
<path id="z31828d8" d="M408 489Q421 511 433 517Q440 523 452 507Q462 491 482 414C484 402 485 389 491 379Q498 363 511 349Q520 339 512 329Q500 317 469 298Q450 289 379 312Q375 313 372 315C340 322 340 322 324 326Q303 327 241 347C233 350 239 376 247 373Q280 361 326 351C353 344 353 344 367 341Q433 326 444 334Q454 341 451 357Q447 373 444 388C439 409 439 409 437 420Q428 453 423 466C420 474 403 482 408 489Z"/>
<path id="z31828d9" d="M482 414Q510 410 546 407Q559 406 560 400Q561 390 548 381Q526 371 491 379C460 385 460 385 444 388Q398 395 362 404C339 409 339 409 328 411Q288 417 258 424C233 427 233 427 221 429Q193 432 179 434Q121 441 72 445Q62 446 59 452Q56 461 68 470Q99 494 133 484Q185 469 229 458C252 453 252 453 264 450Q315 437 328 437C351 433 351 433 362 431Q396 424 437 420C467 416 467 416 482 414Z"/>
<path id="z31828d10" d="M361 499Q385 492 408 489C417 487 431 471 423 466Q407 454 361 468C340 475 340 475 329 478Q299 487 274 495C268 498 267 516 274 516Q278 516 285 515Q307 509 329 506C350 501 350 501 361 499Z"/>
<path id="z31828d11" d="M221 584Q212 580 186 579Q179 578 176 581Q172 585 180 596Q199 624 217 674Q221 689 232 698Q245 711 248 700Q249 694 248 688C245 671 245 671 243 662Q233 625 229 609C227 600 229 587 221 584Z"/>
<path id="z31828d12" d="M475 632Q488 602 508 590Q521 577 510 563Q498 553 460 534Q447 528 431 534Q394 547 359 559C338 564 338 564 328 566Q276 576 221 584C212 585 221 612 229 609Q274 597 327 590C348 585 348 585 358 583Q430 567 440 576Q444 580 443 591Q439 610 435 628C433 641 470 644 475 632Z"/>
<path id="z31828d13" d="M326 677Q387 667 486 660Q493 659 495 652Q495 646 475 632C464 625 448 625 435 628Q392 637 356 645C335 649 335 649 325 651Q282 657 243 662C234 663 239 688 248 688Q252 689 261 687Q277 683 299 681C317 678 317 678 326 677Z"/>
<path id="z31828d14" d="M359 559Q360 528 361 499C361 478 361 478 361 468Q361 449 362 431C362 413 362 413 362 404Q362 391 363 379Q364 357 367 341C370 324 370 324 372 315Q375 302 377 292Q380 285 365 273Q338 260 320 257Q308 254 302 261Q296 267 303 278Q322 305 324 326C325 343 325 343 326 351Q327 379 328 411C328 428 328 428 328 437Q328 456 329 478C329 497 329 497 329 506Q329 534 328 566C327 582 327 582 327 590Q326 618 325 651C325 662 356 656 356 645C357 604 357 604 358 583C359 567 359 567 359 559Z"/>
<path id="z31828d15" d="M340 734Q344 724 350 716Q357 710 354 703Q350 694 326 677C318 672 294 673 299 681Q300 682 301 684Q307 699 296 742C289 765 289 765 285 777Q275 804 263 822Q256 835 258 845Q261 852 274 854Q302 861 332 878C355 891 355 891 366 897Q403 919 456 962Q475 977 489 976Q505 976 505 961Q504 945 482 912Q467 888 394 866C367 857 367 857 354 852Q327 842 307 838Q291 835 299 820Q314 787 323 768C334 745 334 745 340 734Z"/>
<path id="z31828d16" d="M332 878Q248 933 203 949Q193 953 201 958Q243 970 308 937Q341 922 366 897C385 876 385 876 394 866Q397 862 447 777Q456 758 470 742Q480 730 470 720Q442 683 421 685Q409 685 411 698Q414 708 413 721C413 730 409 739 406 747Q384 814 354 852C339 869 339 869 332 878Z"/>
<path id="z31828d17" d="M413 721Q377 727 340 734C311 739 311 739 296 742Q133 766 111 765Q90 759 85 771Q82 781 89 789Q105 805 130 824Q137 828 149 822Q206 794 285 777C310 771 310 771 323 768Q357 758 398 749Q401 748 406 747C415 745 422 719 413 721Z"/>
<path id="z31828d18" d="M651 442Q664 414 678 380Q690 344 703 326Q709 316 702 304Q696 294 667 278Q640 266 624 270Q608 274 618 293Q633 312 629 332Q617 398 593 463Q569 524 533 595Q526 607 525 612Q524 622 536 618Q540 617 546 610C554 601 554 601 558 597Q559 593 564 590Q586 563 640 464C647 449 647 449 651 442Z"/>
<path id="z31828d19" d="M734 468Q789 452 848 438Q876 431 880 426Q887 419 883 411Q876 401 849 395Q821 391 795 403Q764 416 729 425Q693 435 651 442C643 444 632 461 640 464Q664 476 703 474C724 470 724 470 734 468Z"/>
<path id="z31828d20" d="M716 745Q758 675 779 544Q783 522 788 511Q795 504 789 494Q783 487 755 476Q745 470 734 468C724 466 701 464 703 474Q702 478 707 487Q740 580 681 706C668 729 668 729 661 740Q622 797 508 855Q484 868 513 867Q594 871 681 792Q685 786 691 781C708 757 708 757 716 745Z"/>
<path id="z31828d21" d="M691 781Q803 929 863 933Q875 930 976 923Q989 922 1002 917Q1009 910 998 902Q985 893 869 852Q803 833 716 745C693 719 693 719 681 706Q650 670 618 629Q599 604 567 597Q563 596 558 597C552 597 542 606 546 610Q555 619 564 625Q589 638 661 740C681 767 681 767 691 781Z"/>
<defs>
	<clipPath id="z31828c1"><use href="#z31828d1"/></clipPath>
	<clipPath id="z31828c2"><use href="#z31828d2"/></clipPath>
	<clipPath id="z31828c3"><use href="#z31828d3"/></clipPath>
	<clipPath id="z31828c4"><use href="#z31828d4"/></clipPath>
	<clipPath id="z31828c5"><use href="#z31828d5"/></clipPath>
	<clipPath id="z31828c6"><use href="#z31828d6"/></clipPath>
	<clipPath id="z31828c7"><use href="#z31828d7"/></clipPath>
	<clipPath id="z31828c8"><use href="#z31828d8"/></clipPath>
	<clipPath id="z31828c9"><use href="#z31828d9"/></clipPath>
	<clipPath id="z31828c10"><use href="#z31828d10"/></clipPath>
	<clipPath id="z31828c11"><use href="#z31828d11"/></clipPath>
	<clipPath id="z31828c12"><use href="#z31828d12"/></clipPath>
	<clipPath id="z31828c13"><use href="#z31828d13"/></clipPath>
	<clipPath id="z31828c14"><use href="#z31828d14"/></clipPath>
	<clipPath id="z31828c15"><use href="#z31828d15"/></clipPath>
	<clipPath id="z31828c16"><use href="#z31828d16"/></clipPath>
	<clipPath id="z31828c17"><use href="#z31828d17"/></clipPath>
	<clipPath id="z31828c18"><use href="#z31828d18"/></clipPath>
	<clipPath id="z31828c19"><use href="#z31828d19"/></clipPath>
	<clipPath id="z31828c20"><use href="#z31828d20"/></clipPath>
	<clipPath id="z31828c21"><use href="#z31828d21"/></clipPath>
</defs>
<path style="--d:1s;" pathLength="3333" clip-path="url(#z31828c1)" d="M293 51L320 96L270 183L195 256"/>
<path style="--d:2s;" pathLength="3333" clip-path="url(#z31828c2)" d="M330 130L514 113"/>
<path style="--d:3s;" pathLength="3333" clip-path="url(#z31828c3)" d="M333 183L404 238"/>
<path style="--d:4s;" pathLength="3333" clip-path="url(#z31828c4)" d="M595 41L623 81L515 220"/>
<path style="--d:5s;" pathLength="3333" clip-path="url(#z31828c5)" d="M628 127L830 101"/>
<path style="--d:6s;" pathLength="3333" clip-path="url(#z31828c6)" d="M625 184L722 241"/>
<path style="--d:7s;" pathLength="3333" clip-path="url(#z31828c7)" d="M195 345L223 365L266 522"/>
<path style="--d:8s;" pathLength="3333" clip-path="url(#z31828c8)" d="M239 358L419 315L471 327L482 349L428 513"/>
<path style="--d:9s;" pathLength="3333" clip-path="url(#z31828c9)" d="M64 455L113 464L555 394"/>
<path style="--d:10s;" pathLength="3333" clip-path="url(#z31828c10)" d="M277 507L419 472"/>
<path style="--d:11s;" pathLength="3333" clip-path="url(#z31828c11)" d="M182 585L210 605L239 700"/>
<path style="--d:12s;" pathLength="3333" clip-path="url(#z31828c12)" d="M222 595L448 554L479 581L448 636"/>
<path style="--d:13s;" pathLength="3333" clip-path="url(#z31828c13)" d="M245 675L489 653"/>
<path style="--d:14s;" pathLength="3333" clip-path="url(#z31828c14)" d="M303 264L348 297L336 652"/>
<path style="--d:15s;" pathLength="3333" clip-path="url(#z31828c15)" d="M306 678L328 712L278 838L423 903L500 967"/>
<path style="--d:16s;" pathLength="3333" clip-path="url(#z31828c16)" d="M418 690L443 732L371 862L294 924L206 952"/>
<path style="--d:17s;" pathLength="3333" clip-path="url(#z31828c17)" d="M92 770L145 793L412 727"/>
<path style="--d:18s;" pathLength="3333" clip-path="url(#z31828c18)" d="M621 275L667 321L532 611"/>
<path style="--d:19s;" pathLength="3333" clip-path="url(#z31828c19)" d="M641 458L880 418"/>
<path style="--d:20s;" pathLength="3333" clip-path="url(#z31828c20)" d="M711 477L753 511L698 727L622 811L506 860"/>
<path style="--d:21s;" pathLength="3333" clip-path="url(#z31828c21)" d="M551 605L594 628L811 865L872 895L1000 907"/>
</svg>