<!--
AnimCJK 2016-2019 Copyright Francois Mizessyn - https://github.com/parsimonhi/animCJK
Derived from:
    MakeMeAHanzi project - https://github.com/skishore/makemeahanzi
    Arphic PL KaitiM GB font
    Arphic PL UKai font
You can redistribute and/or modify this file under the terms of the Arphic Public License
as published by Arphic Technology Co., Ltd.
You should have received a copy of this license along with this file.
If not, see http://ftp.gnu.org/non-gnu/chinese-fonts-truetype/LICENSE.
-->
<svg id="z31899" class="acjk" version="1.1" viewBox="0 0 1024 1024" xmlns="http://www.w3.org/2000/svg" xmlns:xlink="http://www.w3.org/1999/xlink">
<style>
<![CDATA[
@keyframes zk {
	to {
		stroke-dashoffset:0;
	}
}
svg.acjk path[clip-path] {
	--t:0.8s;
	animation:zk var(--t) linear forwards var(--d);
	stroke-dasharray:3337;
	stroke-dashoffset:3339;
	stroke-width:128;
	stroke-linecap:round;
	fill:none;
	stroke:#000;
}
svg.acjk path[id] {fill:#ccc;}
]]>
</style>
<path id="z31899d1" d="M655 375C665 344 673 318 683 300C700 269 700 269 708 253C716 237 729 227 739 219C752 207 755 191 743 181C694 136 648 129 609 146C581 157 553 165 528 171C493 178 493 178 476 182C428 192 380 197 332 202C320 203 314 206 316 213C317 219 325 223 338 229C355 236 375 235 401 229C425 222 451 220 477 215C508 209 508 209 524 206C593 192 631 186 641 195C649 202 648 226 638 265C631 290 631 290 628 303C621 328 611 351 603 374C597 390 649 391 655 375Z"/>
<path id="z31899d2" d="M683 300C733 297 790 295 853 295C875 294 897 294 918 294C932 293 940 290 943 285C946 276 943 267 932 259C893 229 852 223 807 234C777 240 744 246 708 253C661 261 661 261 638 265C600 271 561 277 521 283C493 287 493 287 479 289C370 304 253 317 129 333C114 334 111 342 123 353C144 373 169 380 195 373C279 349 374 330 479 318C506 315 506 315 520 313C552 309 588 305 628 303C665 301 665 301 683 300Z"/>
<path id="z31899d3" d="M520 429C564 422 614 416 672 410C678 409 683 406 684 401C684 395 674 386 655 375C640 366 620 371 603 374C574 380 547 388 520 394C493 399 493 399 479 402C413 414 351 425 294 433C281 434 278 440 287 452C291 458 297 462 304 464C310 466 318 466 327 464C365 454 416 444 479 435C506 431 506 431 520 429Z"/>
<path id="z31899d4" d="M520 394C520 367 519 340 520 313C521 293 521 293 521 283C521 255 521 229 524 206C527 183 527 183 528 171C530 151 532 132 539 116C544 104 548 95 545 87C541 79 519 66 482 43C465 32 450 30 437 42C433 45 433 53 439 63C461 98 474 137 476 182C477 204 477 204 477 215C477 237 479 262 479 289C479 308 479 308 479 318C479 374 479 374 479 402C479 424 479 424 479 435C479 499 479 592 476 635C471 696 471 696 468 727C465 756 458 788 451 816C443 844 448 877 467 918C472 929 477 935 482 939C487 942 490 942 496 937C499 933 507 926 514 912C521 895 522 876 522 855C521 835 520 772 520 667C520 640 520 640 520 627C520 495 520 495 520 429C520 406 520 406 520 394Z"/>
<path id="z31899d5" d="M375 561C384 570 393 581 404 594C411 602 419 606 429 606C435 606 440 603 443 595C446 586 446 573 442 557C438 542 414 530 373 519C364 516 357 514 354 517C350 518 349 524 350 532C351 538 361 547 375 561Z"/>
<path id="z31899d6" d="M601 504C590 522 573 545 553 574C549 578 548 584 553 587C557 589 562 587 567 584C611 553 644 530 667 521C677 516 681 513 679 507C675 497 667 487 656 477C644 466 631 459 618 459C609 458 604 465 606 477C607 485 606 494 601 504Z"/>
<path id="z31899d7" d="M520 667C582 656 640 647 693 641C709 638 714 633 709 624C702 613 690 605 672 602C650 597 600 612 520 627C491 632 491 632 476 635C425 644 375 652 328 662C315 664 316 671 331 682C342 690 361 692 386 689C404 686 425 683 443 680C494 671 494 671 520 667Z"/>
<path id="z31899d8" d="M443 680C416 732 350 787 246 848C235 854 234 858 244 860C250 861 266 858 291 851C315 843 339 831 365 817C396 798 445 760 468 727C494 684 465 636 443 680Z"/>
<path id="z31899d9" d="M568 714C592 734 621 760 652 791C662 801 670 808 679 810C683 811 688 808 693 802C699 794 697 778 690 754C681 727 641 706 568 688C562 686 559 687 559 694C558 702 561 708 568 714Z"/>
<path id="z31899d10" d="M263 747C272 716 282 671 287 612C287 603 288 595 289 587C290 571 293 556 299 543C303 532 299 525 291 520C262 502 241 496 226 504C219 507 217 514 222 521C238 545 254 597 230 709C213 782 163 850 90 915C83 920 83 925 90 925C126 922 161 895 201 852C221 828 256 769 263 747Z"/>
<path id="z31899d11" d="M741 800C732 876 729 917 730 923C732 943 740 962 755 979C761 986 769 986 775 978C796 944 803 903 800 855C792 757 792 654 796 548C796 521 797 494 803 468C806 451 802 441 789 433C776 425 765 417 754 413C745 409 737 410 731 414C724 418 722 426 726 437C733 458 744 479 747 504C749 523 749 523 750 532C752 558 756 625 753 697C751 728 743 780 741 800Z"/>
<defs>
	<clipPath id="z31899c1"><use xlink:href="#z31899d1"/></clipPath>
	<clipPath id="z31899c2"><use xlink:href="#z31899d2"/></clipPath>
	<clipPath id="z31899c3"><use xlink:href="#z31899d3"/></clipPath>
	<clipPath id="z31899c4"><use xlink:href="#z31899d4"/></clipPath>
	<clipPath id="z31899c5"><use xlink:href="#z31899d5"/></clipPath>
	<clipPath id="z31899c6"><use xlink:href="#z31899d6"/></clipPath>
	<clipPath id="z31899c7"><use xlink:href="#z31899d7"/></clipPath>
	<clipPath id="z31899c8"><use xlink:href="#z31899d8"/></clipPath>
	<clipPath id="z31899c9"><use xlink:href="#z31899d9"/></clipPath>
	<clipPath id="z31899c10"><use xlink:href="#z31899d10"/></clipPath>
	<clipPath id="z31899c11"><use xlink:href="#z31899d11"/></clipPath>
</defs>
<path style="--d:1s;" pathLength="3333" clip-path="url(#z31899c1)" d="M325 210L668 172L697 212L615 371"/>
<path style="--d:2s;" pathLength="3333" clip-path="url(#z31899c2)" d="M123 344L822 263L940 278"/>
<path style="--d:3s;" pathLength="3333" clip-path="url(#z31899c3)" d="M287 441L677 397"/>
<path style="--d:4s;" pathLength="3333" clip-path="url(#z31899c4)" d="M442 49L507 112L489 936"/>
<path style="--d:5s;" pathLength="3333" clip-path="url(#z31899c5)" d="M357 524L435 598"/>
<path style="--d:6s;" pathLength="3333" clip-path="url(#z31899c6)" d="M614 468L637 512L558 579"/>
<path style="--d:7s;" pathLength="3333" clip-path="url(#z31899c7)" d="M331 670L660 622L704 632"/>
<path style="--d:8s;" pathLength="3333" clip-path="url(#z31899c8)" d="M468 682L364 795L250 855"/>
<path style="--d:9s;" pathLength="3333" clip-path="url(#z31899c9)" d="M565 693L649 747L680 806"/>
<path style="--d:10s;" pathLength="3333" clip-path="url(#z31899c10)" d="M227 511L267 539L249 720L193 832L95 918"/>
<path style="--d:11s;" pathLength="3333" clip-path="url(#z31899c11)" d="M736 417L773 486L760 979"/>
</svg>