<!--
AnimCJK 2016-2017 Copyright Francois Mizessyn, http://gooo.free.fr/animCJK/
Derived from:
    MakeMeAHanzi project - https://github.com/skishore/makemeahanzi
    Arphic PL KaitiM GB - https://apps.ubuntu.com/cat/applications/precise/fonts-arphic-gkai00mp/
    Arphic PL UKai - https://apps.ubuntu.com/cat/applications/fonts-arphic-ukai/
You can redistribute and/or modify this file under the terms of the Arphic Public License
as published by Arphic Technology Co., Ltd.
You should have received a copy of this license (the directory "APL") along with this file;
if not, see http://ftp.gnu.org/non-gnu/chinese-fonts-truetype/LICENSE.
-->
<svg id="z31998" class="acjk" version="1.1" viewBox="0 0 1024 1024" xmlns="http://www.w3.org/2000/svg" xmlns:xlink="http://www.w3.org/1999/xlink">
<style>
<![CDATA[
	@keyframes z31998k {
		from {
			stroke:#c00;
			stroke-dashoffset:3000;
		}
		75% {
			stroke:#c00;
			stroke-dashoffset:0;
		}
		to {
			stroke:#000;
		}
	}
	#z31998 path[clip-path] {
		animation:z31998k 1s linear both;
		stroke-dasharray:3000;
		stroke-width:128;
		stroke-linecap:round;
		fill:none;
	}
	#z31998 path[clip-path="url(#z31998c1)"] {animation-delay:1s;}
	#z31998 path[clip-path="url(#z31998c2)"] {animation-delay:2s;}
	#z31998 path[clip-path="url(#z31998c3)"] {animation-delay:3s;}
	#z31998 path[clip-path="url(#z31998c4)"] {animation-delay:4s;}
	#z31998 path[clip-path="url(#z31998c5)"] {animation-delay:5s;}
	#z31998 path[clip-path="url(#z31998c6)"] {animation-delay:6s;}
	#z31998 path[clip-path="url(#z31998c7)"] {animation-delay:7s;}
	#z31998 path[clip-path="url(#z31998c8)"] {animation-delay:8s;}
	#z31998 path[clip-path="url(#z31998c9)"] {animation-delay:9s;}
	#z31998 path {fill:#ccc;}
]]>
</style>
<g transform="scale(1,-1) translate(0,-900)">
	<path id="z31998d1" d="M347 551Q295 551 251 549Q218 548 235 569Q299 671 360 746Q375 764 372 772Q371 787 330 820Q314 833 294 830Q282 827 289 811Q307 769 222 622Q204 588 167 557Q148 541 150 529Q154 510 169 491Q179 481 193 487Q220 503 309 522Q319 523 328 524L347 551Z"/>
	<path id="z31998d2" d="M400 425Q345 410 281 386Q265 379 275 394Q317 452 415 567Q443 606 470 627Q483 637 476 648Q466 667 432 687Q416 697 406 694Q396 691 398 675Q399 642 347 551L328 524Q216 376 196 366Q183 356 186 342Q187 329 215 310Q225 298 241 311Q307 365 409 407L400 425Z"/>
	<path id="z31998d3" d="M409 407Q418 395 430 383Q442 377 452 386Q459 395 462 408Q462 429 451 443Q439 458 411 471Q399 478 391 478Q385 478 385 468Q384 459 400 425L409 407Z"/>
	<path id="z31998d4" d="M137 184Q162 145 189 101Q199 85 214 81Q224 78 233 89Q242 102 242 133Q242 172 145 232Q132 239 125 239Q118 236 116 224Q117 212 137 184Z"/>
	<path id="z31998d5" d="M278 241Q306 199 331 186Q344 183 352 193Q358 203 357 217Q350 248 291 272Q278 276 269 275Q265 274 265 264Q266 254 278 241Z"/>
	<path id="z31998d6" d="M399 296Q432 248 458 237Q471 234 480 245Q486 255 484 270Q480 292 465 304Q432 331 399 332Q393 332 389 331Q385 330 385 319Q386 309 399 296Z"/>
	<path id="z31998d7" d="M610 396C599 392 594 396 596 410C598 468 601 529 604 592C604 610 601 624 594 634C582 646 566 656 548 665C539 669 531 669 524 667C516 663 515 654 523 641C549 588 560 534 555 479C552 426 540 388 520 364C548 372 572 379 610 396Z"/>
	<path id="z31998d8" d="M748 447C695 432 649 415 610 396C584 387 554 377 520 364C508 349 505 337 513 328C523 317 534 309 548 303C558 298 567 299 574 307C586 327 629 353 704 387C722 395 737 400 747 401Z"/>
	<path id="z31998d9" d="M747 401Q740 -20 757 -56Q760 -63 764 -69Q771 -78 780 -74Q789 -70 795 -51Q804 -26 813 119Q814 174 813 228Q810 274 810 689Q810 722 825 798Q828 820 811 832Q771 857 752 861Q736 867 717 856Q705 846 715 833Q748 773 749 696Q749 590 748 447L747 401Z"/>
	<defs>
		<clipPath id="z31998c1"><use xlink:href="#z31998d1"/></clipPath>
		<clipPath id="z31998c2"><use xlink:href="#z31998d2"/></clipPath>
		<clipPath id="z31998c3"><use xlink:href="#z31998d3"/></clipPath>
		<clipPath id="z31998c4"><use xlink:href="#z31998d4"/></clipPath>
		<clipPath id="z31998c5"><use xlink:href="#z31998d5"/></clipPath>
		<clipPath id="z31998c6"><use xlink:href="#z31998d6"/></clipPath>
		<clipPath id="z31998c7"><use xlink:href="#z31998d7"/></clipPath>
		<clipPath id="z31998c8"><use xlink:href="#z31998d8"/></clipPath>
		<clipPath id="z31998c9"><use xlink:href="#z31998d9"/></clipPath>
	</defs>
	<path pathLength="2999" clip-path="url(#z31998c1)" d="M295 824L331 771L194 537L207 518L337 547"/>
	<path pathLength="2999" clip-path="url(#z31998c2)" d="M406 688L434 640L230 366L252 345L403 414"/>
	<path pathLength="2999" clip-path="url(#z31998c3)" d="M391 472L441 384"/>
	<path pathLength="2999" clip-path="url(#z31998c4)" d="M124 234L198 150L224 85"/>
	<path pathLength="2999" clip-path="url(#z31998c5)" d="M274 265L343 192"/>
	<path pathLength="2999" clip-path="url(#z31998c6)" d="M393 325L475 246"/>
	<path pathLength="2999" clip-path="url(#z31998c7)" d="M526 658L569 613L578 541L572 397L529 370"/>
	<path pathLength="2999" clip-path="url(#z31998c8)" d="M513 343L561 340L741 440"/>
	<path pathLength="2999" clip-path="url(#z31998c9)" d="M719 847L782 786L776 -70"/>
</g>
</svg>