<!--
AnimCJK 2016-2019 Copyright Francois Mizessyn - https://github.com/parsimonhi/animCJK
Derived from:
    MakeMeAHanzi project - https://github.com/skishore/makemeahanzi
    Arphic PL KaitiM GB font
    Arphic PL UKai font
You can redistribute and/or modify this file under the terms of the Arphic Public License
as published by Arphic Technology Co., Ltd.
You should have received a copy of this license along with this file.
If not, see http://ftp.gnu.org/non-gnu/chinese-fonts-truetype/LICENSE.
-->
<svg id="z32005" class="acjk" version="1.1" viewBox="0 0 1024 1024" xmlns="http://www.w3.org/2000/svg" xmlns:xlink="http://www.w3.org/1999/xlink">
<style>
<![CDATA[
@keyframes zk {
	to {
		stroke-dashoffset:0;
	}
}
svg.acjk path[clip-path] {
	--t:0.8s;
	animation:zk var(--t) linear forwards var(--d);
	stroke-dasharray:3337;
	stroke-dashoffset:3339;
	stroke-width:128;
	stroke-linecap:round;
	fill:none;
	stroke:#000;
}
svg.acjk path[id] {fill:#ccc;}
]]>
</style>
<path id="z32005d1" d="M339 393Q285 396 240 399Q209 400 224 382Q299 261 369 172Q384 153 381 145Q380 129 338 96Q320 81 300 85Q288 88 295 104Q311 149 218 319Q197 356 155 394Q136 410 137 423Q141 444 158 462Q168 474 183 466Q222 442 319 422C331 420 351 393 339 393Z"/>
<path id="z32005d2" d="M408 519Q347 532 275 557Q254 564 267 547Q393 385 453 337Q466 327 460 317Q450 296 416 276Q400 266 390 269Q380 272 382 288Q383 321 339 393C326 412 326 412 319 422Q210 563 188 574Q175 583 177 597Q178 610 205 630Q215 643 231 630Q303 576 416 537C417 537 417 537 418 537C425 536 415 518 408 519Z"/>
<path id="z32005d3" d="M418 537Q425 562 449 570Q462 574 472 559Q476 547 473 526Q461 490 404 464Q397 460 392 470Q389 476 408 519C415 531 415 531 418 537Z"/>
<path id="z32005d4" d="M114 758Q136 804 159 856Q166 875 183 881Q193 885 205 874Q215 861 220 828Q224 801 197 767Q124 698 109 697Q102 698 98 712Q97 725 114 758Z"/>
<path id="z32005d5" d="M269 715Q285 737 301 766Q310 781 324 783Q334 784 341 775Q348 763 348 735Q345 708 276 671Q263 664 256 665Q252 668 249 679Q250 689 269 715Z"/>
<path id="z32005d6" d="M371 649Q399 703 419 708Q431 711 439 696Q442 686 437 666Q425 641 379 627Q372 624 369 633Q366 640 371 649Z"/>
<path id="z32005d7" d="M687 433Q876 390 883 384Q893 375 888 365Q879 352 846 344Q819 340 711 374Q611 398 547 406Q505 413 535 432Q583 459 646 442C673 436 673 436 687 433Z"/>
<path id="z32005d8" d="M646 442Q658 461 653 550Q650 599 645 689C645 707 695 699 698 682Q714 549 725 501Q735 482 725 469Q706 447 687 433C676 425 640 429 646 442Z"/>
<path id="z32005d9" d="M645 689Q564 698 477 709Q455 710 471 729Q486 744 504 749Q526 755 543 750Q670 717 961 718Q982 718 987 709Q993 697 976 683Q922 641 883 650Q816 665 700 681Q699 681 698 682C663 687 663 687 645 689Z"/>
<defs>
	<clipPath id="z32005c1"><use xlink:href="#z32005d1"/></clipPath>
	<clipPath id="z32005c2"><use xlink:href="#z32005d2"/></clipPath>
	<clipPath id="z32005c3"><use xlink:href="#z32005d3"/></clipPath>
	<clipPath id="z32005c4"><use xlink:href="#z32005d4"/></clipPath>
	<clipPath id="z32005c5"><use xlink:href="#z32005d5"/></clipPath>
	<clipPath id="z32005c6"><use xlink:href="#z32005d6"/></clipPath>
	<clipPath id="z32005c7"><use xlink:href="#z32005d7"/></clipPath>
	<clipPath id="z32005c8"><use xlink:href="#z32005d8"/></clipPath>
	<clipPath id="z32005c9"><use xlink:href="#z32005d9"/></clipPath>
</defs>
<path style="--d:1s;" pathLength="3333" clip-path="url(#z32005c1)" d="M300 92L337 150L179 411L208 431L331 400"/>
<path style="--d:2s;" pathLength="3333" clip-path="url(#z32005c2)" d="M390 275L419 322L223 575L243 598L411 528"/>
<path style="--d:3s;" pathLength="3333" clip-path="url(#z32005c3)" d="M399 468L450 566"/>
<path style="--d:4s;" pathLength="3333" clip-path="url(#z32005c4)" d="M107 707L175 801L196 875"/>
<path style="--d:5s;" pathLength="3333" clip-path="url(#z32005c5)" d="M259 672L328 778"/>
<path style="--d:6s;" pathLength="3333" clip-path="url(#z32005c6)" d="M376 632L427 702"/>
<path style="--d:7s;" pathLength="3333" clip-path="url(#z32005c7)" d="M530 416L603 423L884 370"/>
<path style="--d:8s;" pathLength="3333" clip-path="url(#z32005c8)" d="M654 449L692 490L673 685"/>
<path style="--d:9s;" pathLength="3333" clip-path="url(#z32005c9)" d="M474 720L896 683L984 699"/>
</svg>