<!--
AnimCJK 2016-2018 Copyright Francois Mizessyn, https://github.com/parsimonhi/animCJK
Derived from:
    MakeMeAHanzi project - https://github.com/skishore/makemeahanzi
    Arphic PL KaitiM GB - https://apps.ubuntu.com/cat/applications/precise/fonts-arphic-gkai00mp/
    Arphic PL UKai - https://apps.ubuntu.com/cat/applications/fonts-arphic-ukai/
You can redistribute and/or modify this file under the terms of the Arphic Public License
as published by Arphic Technology Co., Ltd.
You should have received a copy of this license (the directory "APL") along with this file;
if not, see http://ftp.gnu.org/non-gnu/chinese-fonts-truetype/LICENSE.
-->
<svg id="z32011" class="acjk" version="1.1" viewBox="0 0 1024 1024" xmlns="http://www.w3.org/2000/svg" xmlns:xlink="http://www.w3.org/1999/xlink">
<style>
<![CDATA[
@keyframes z32011k {
	from {
		stroke:#c00;
		stroke-dashoffset:3334;
	}
	75% {
		stroke:#c00;
		stroke-dashoffset:0;
	}
	to {
		stroke:#000;
	}
}
#z32011 path[clip-path] {
	animation:z32011k 1s linear both;
	stroke-dasharray:3334;
	stroke-width:128;
	stroke-linecap:round;
	fill:none;
}
#z32011 path[clip-path="url(#z32011c1)"] {animation-delay:1s;}
#z32011 path[clip-path="url(#z32011c2)"] {animation-delay:2s;}
#z32011 path[clip-path="url(#z32011c3)"] {animation-delay:3s;}
#z32011 path[clip-path="url(#z32011c4)"] {animation-delay:4s;}
#z32011 path[clip-path="url(#z32011c5)"] {animation-delay:5s;}
#z32011 path[clip-path="url(#z32011c6)"] {animation-delay:6s;}
#z32011 path[clip-path="url(#z32011c7)"] {animation-delay:7s;}
#z32011 path[clip-path="url(#z32011c8)"] {animation-delay:8s;}
#z32011 path[clip-path="url(#z32011c9)"] {animation-delay:9s;}
#z32011 path[clip-path="url(#z32011c10)"] {animation-delay:10s;}
#z32011 path {fill:#ccc;}
]]>
</style>
<path id="z32011d1" d="M319 402Q274 398 237 393Q194 392 218 367Q282 258 345 177Q360 159 357 151Q354 136 314 105Q298 92 278 95Q266 98 273 114Q291 156 207 311Q189 345 151 380Q132 393 133 406Q136 425 150 444Q160 456 173 449Q194 437 304 425L319 402 Z"/>
<path id="z32011d2" d="M365 524Q317 537 263 559Q244 568 255 551Q297 490 395 365Q422 328 446 306Q459 296 452 287Q442 268 408 250Q392 241 383 244Q373 248 376 263Q379 305 319 402L304 425Q205 566 181 580Q168 589 171 603Q172 616 199 633Q211 643 224 632Q281 583 375 542L365 524 Z"/>
<path id="z32011d3" d="M375 542Q399 584 415 591Q425 595 435 580Q439 570 436 550Q426 520 367 487Q360 484 356 494Q352 501 365 524L375 542 Z"/>
<path id="z32011d4" d="M122 771Q144 811 168 856Q177 874 192 878Q202 882 213 870Q223 857 225 825Q226 786 134 722Q121 713 113 713Q106 714 103 728Q103 741 122 771 Z"/>
<path id="z32011d5" d="M254 724Q270 746 287 772Q296 785 309 788Q319 789 325 779Q332 767 330 741Q327 714 259 682Q246 676 240 677Q236 680 234 691Q235 701 254 724 Z"/>
<path id="z32011d6" d="M361 665Q397 710 412 713Q421 713 425 703Q429 693 426 669Q422 648 361 628Q349 624 344 626Q340 627 340 638Q341 647 361 665 Z"/>
<path id="z32011d7" d="M603 184Q634 211 668 243Q686 259 705 257Q718 256 724 240Q730 221 718 185Q711 161 673 145Q586 118 568 124Q562 130 564 145Q568 158 603 184 Z"/>
<path id="z32011d8" d="M697 407Q743 397 793 389Q850 376 858 369Q868 362 863 352Q856 340 826 332Q799 326 694 358Q592 386 463 398Q426 404 451 422Q494 444 565 432Q608 423 655 415L697 407 Z"/>
<path id="z32011d9" d="M671 669Q710 606 731 505Q735 477 742 460Q748 447 739 439Q720 417 697 407L655 415Q679 514 630 632L606 670Q528 743 452 775Q419 787 375 802Q365 803 360 807Q353 811 363 817Q369 818 384 817Q478 810 548 776Q602 754 635 714Q636 713 639 710L671 669 Z"/>
<path id="z32011d10" d="M639 710Q691 770 780 846Q811 870 857 860Q918 848 962 840Q975 837 989 831Q996 824 984 815Q968 806 839 768Q761 746 671 669L630 632Q594 598 556 556Q534 532 500 528Q488 527 479 533Q475 540 484 548Q491 554 499 558Q523 570 606 670L639 710 Z"/>
<defs>
	<clipPath id="z32011c1"><use xlink:href="#z32011d1"/></clipPath>
	<clipPath id="z32011c2"><use xlink:href="#z32011d2"/></clipPath>
	<clipPath id="z32011c3"><use xlink:href="#z32011d3"/></clipPath>
	<clipPath id="z32011c4"><use xlink:href="#z32011d4"/></clipPath>
	<clipPath id="z32011c5"><use xlink:href="#z32011d5"/></clipPath>
	<clipPath id="z32011c6"><use xlink:href="#z32011d6"/></clipPath>
	<clipPath id="z32011c7"><use xlink:href="#z32011d7"/></clipPath>
	<clipPath id="z32011c8"><use xlink:href="#z32011d8"/></clipPath>
	<clipPath id="z32011c9"><use xlink:href="#z32011d9"/></clipPath>
	<clipPath id="z32011c10"><use xlink:href="#z32011d10"/></clipPath>
</defs>
<path pathLength="3333" clip-path="url(#z32011c1)" d="M279 102L313 162L172 396L189 419L310 407"/>
<path pathLength="3333" clip-path="url(#z32011c2)" d="M385 251L409 303L214 577L237 599L369 532"/>
<path pathLength="3333" clip-path="url(#z32011c3)" d="M363 490L429 584"/>
<path pathLength="3333" clip-path="url(#z32011c4)" d="M114 719L182 808L200 875"/>
<path pathLength="3333" clip-path="url(#z32011c5)" d="M242 686L315 782"/>
<path pathLength="3333" clip-path="url(#z32011c6)" d="M348 633L413 708"/>
<path pathLength="3333" clip-path="url(#z32011c7)" d="M571 131L671 189L706 253"/>
<path pathLength="3333" clip-path="url(#z32011c8)" d="M452 411L858 354"/>
<path pathLength="3333" clip-path="url(#z32011c9)" d="M664 421L703 457L678 585L628 682L509 770L365 812"/>
<path pathLength="3333" clip-path="url(#z32011c10)" d="M484 536L804 806L982 824"/>
</svg>