<!--
AnimCJK 2016-2018 Copyright Francois Mizessyn, https://github.com/parsimonhi/animCJK
Derived from:
    MakeMeAHanzi project - https://github.com/skishore/makemeahanzi
    Arphic PL KaitiM GB - https://apps.ubuntu.com/cat/applications/precise/fonts-arphic-gkai00mp/
    Arphic PL UKai - https://apps.ubuntu.com/cat/applications/fonts-arphic-ukai/
You can redistribute and/or modify this file under the terms of the Arphic Public License
as published by Arphic Technology Co., Ltd.
You should have received a copy of this license (the directory "APL") along with this file;
if not, see http://ftp.gnu.org/non-gnu/chinese-fonts-truetype/LICENSE.
-->
<svg id="z32024" class="acjk" version="1.1" viewBox="0 0 1024 1024" xmlns="http://www.w3.org/2000/svg" xmlns:xlink="http://www.w3.org/1999/xlink">
<style>
<![CDATA[
@keyframes z32024k {
	from {
		stroke:#c00;
		stroke-dashoffset:3334;
	}
	75% {
		stroke:#c00;
		stroke-dashoffset:0;
	}
	to {
		stroke:#000;
	}
}
#z32024 path[clip-path] {
	animation:z32024k 1s linear both;
	stroke-dasharray:3334;
	stroke-width:128;
	stroke-linecap:round;
	fill:none;
}
#z32024 path[clip-path="url(#z32024c1)"] {animation-delay:1s;}
#z32024 path[clip-path="url(#z32024c2)"] {animation-delay:2s;}
#z32024 path[clip-path="url(#z32024c3)"] {animation-delay:3s;}
#z32024 path[clip-path="url(#z32024c4)"] {animation-delay:4s;}
#z32024 path[clip-path="url(#z32024c5)"] {animation-delay:5s;}
#z32024 path[clip-path="url(#z32024c6)"] {animation-delay:6s;}
#z32024 path[clip-path="url(#z32024c7)"] {animation-delay:7s;}
#z32024 path[clip-path="url(#z32024c8)"] {animation-delay:8s;}
#z32024 path[clip-path="url(#z32024c9)"] {animation-delay:9s;}
#z32024 path[clip-path="url(#z32024c10)"] {animation-delay:10s;}
#z32024 path {fill:#ccc;}
]]>
</style>
<path id="z32024d1" d="M336 398Q332 397 329 398Q287 394 253 392Q213 391 234 367Q303 252 369 165Q384 147 381 140Q378 124 338 93Q322 78 302 83Q290 86 297 102Q315 144 226 307Q207 344 167 380Q148 393 149 406Q153 425 167 444Q177 456 190 449Q224 431 318 421L336 398 Z"/>
<path id="z32024d2" d="M385 509Q339 519 284 538Q265 545 277 529Q316 478 406 376Q434 339 460 319Q473 309 467 300Q457 281 425 261Q409 251 400 254Q390 257 392 273Q395 309 336 398L318 421Q218 547 201 555Q188 564 191 577Q192 590 218 609Q228 621 243 609Q307 560 396 527L385 509 Z"/>
<path id="z32024d3" d="M396 527Q408 552 427 555Q437 559 447 544Q450 534 445 514Q433 486 383 467Q376 464 373 473Q372 476 385 509L396 527 Z"/>
<path id="z32024d4" d="M127 744Q148 784 169 833Q176 851 192 857Q202 861 213 850Q223 838 227 806Q231 781 204 749Q141 686 121 685Q114 686 111 700Q110 713 127 744 Z"/>
<path id="z32024d5" d="M259 708Q269 723 279 741Q288 754 301 756Q311 757 317 747Q324 735 321 708Q320 695 302 684Q254 659 244 661Q240 664 238 675Q239 685 259 708 Z"/>
<path id="z32024d6" d="M360 661Q373 676 386 694Q396 706 411 706Q420 706 425 695Q429 682 424 657Q421 644 401 633Q350 614 340 617Q336 621 336 632Q337 642 360 661 Z"/>
<path id="z32024d7" d="M692 412C721 405 815 393 846 389C859 386 878 384 892 380C934 366 895 340 865 332C839 325 823 335 706 362L648 375C611 383 550 394 507 402C484 405 481 418 498 427C521 439 565 440 609 430C615 428 624 427 634 425 Z"/>
<path id="z32024d8" d="M634 425C597 554 509 692 360 866C356 870 354 875 356 880C356 884 359 885 363 884C391 870 491 774 539 710C612 611 658 533 692 412L706 362C723 298 742 245 757 215C761 206 759 196 751 187C735 169 715 159 702 153C689 147 678 144 667 147C656 149 654 157 661 171C663 175 666 180 670 187C676 200 677 224 673 256C666 300 657 340 648 375 Z"/>
<path id="z32024d9" d="M834 745C779 758 701 780 654 792C649 794 646 795 645 794C643 791 643 786 647 779C707 676 773 575 787 557C793 550 795 543 791 537C786 530 769 521 739 509C728 505 716 504 711 508C704 512 703 521 707 533C723 567 671 671 611 763C599 779 583 795 563 813C556 821 558 828 560 834C564 844 575 858 591 869C597 875 605 874 613 867C631 846 748 804 844 768 Z"/>
<path id="z32024d10" d="M845 770C856 796 875 843 882 846C887 848 892 847 897 843C902 837 906 827 909 811C914 780 891 712 821 651C814 646 809 643 806 643C803 644 800 647 798 653C797 658 800 669 808 685C813 697 827 731 834 745 Z"/>
<defs>
	<clipPath id="z32024c1"><use xlink:href="#z32024d1"/></clipPath>
	<clipPath id="z32024c2"><use xlink:href="#z32024d2"/></clipPath>
	<clipPath id="z32024c3"><use xlink:href="#z32024d3"/></clipPath>
	<clipPath id="z32024c4"><use xlink:href="#z32024d4"/></clipPath>
	<clipPath id="z32024c5"><use xlink:href="#z32024d5"/></clipPath>
	<clipPath id="z32024c6"><use xlink:href="#z32024d6"/></clipPath>
	<clipPath id="z32024c7"><use xlink:href="#z32024d7"/></clipPath>
	<clipPath id="z32024c8"><use xlink:href="#z32024d8"/></clipPath>
	<clipPath id="z32024c9"><use xlink:href="#z32024d9"/></clipPath>
	<clipPath id="z32024c10"><use xlink:href="#z32024d10"/></clipPath>
</defs>
<path pathLength="3333" clip-path="url(#z32024c1)" d="M301 87L339 143L190 395L206 420L327 403"/>
<path pathLength="3333" clip-path="url(#z32024c2)" d="M403 257L425 312L232 555L253 576L389 523"/>
<path pathLength="3333" clip-path="url(#z32024c3)" d="M381 472L433 550"/>
<path pathLength="3333" clip-path="url(#z32024c4)" d="M120 693L192 796L199 853"/>
<path pathLength="3333" clip-path="url(#z32024c5)" d="M246 667L304 750"/>
<path pathLength="3333" clip-path="url(#z32024c6)" d="M343 626L396 662L410 702"/>
<path pathLength="3333" clip-path="url(#z32024c7)" d="M499 414L893 361"/>
<path pathLength="3333" clip-path="url(#z32024c8)" d="M664 155L715 209L655 430L557 643L365 873"/>
<path pathLength="3333" clip-path="url(#z32024c9)" d="M720 511L750 563L604 816L624 831L839 762"/>
<path pathLength="3333" clip-path="url(#z32024c10)" d="M808 651L888 837"/>
</svg>