<!--
AnimCJK 2016-2026 Copyright FM-SH, https://github.com/parsimonhi/animCJK
Derived from:
    MakeMeAHanzi project - https://github.com/skishore/makemeahanzi
    Arphic PL KaitiM GB font
    Arphic PL KaitiM Big5 font
You can redistribute and/or modify this file under the terms of the Arphic Public License
as published by Arphic Technology Co., Ltd.
You should have received a copy of this license along with this file.
If not, see https://ftp.gnu.org/non-gnu/chinese-fonts-truetype/LICENSE.
-->
<svg id="z32046" class="acjk" viewBox="0 0 1024 1024" xmlns="http://www.w3.org/2000/svg">
<style>
<![CDATA[
@keyframes zk {
	to {
		stroke-dashoffset:0;
	}
}
svg.acjk path[clip-path] {
	--t:0.8s;
	animation:zk var(--t) linear forwards var(--d);
	stroke-dasharray:3337;
	stroke-dashoffset:3339;
	stroke-width:128;
	stroke-linecap:round;
	fill:none;
	stroke:#000;
}
svg.acjk path[id] {fill:#ccc;}
]]>
</style>
<path id="z32046d1" d="M369 217Q403 208 439 202Q484 192 491 186Q498 179 495 171Q488 161 462 153Q432 147 375 169C344 178 344 178 329 183Q215 204 165 210Q131 216 155 231Q188 252 247 240Q269 234 297 231C345 222 345 222 369 217Z"/>
<path id="z32046d2" d="M365 268Q366 241 369 217C373 185 373 185 375 169Q375 168 376 168Q377 143 394 110Q400 101 390 88Q341 49 315 58Q303 62 309 75Q327 108 329 183C328 238 328 238 327 265Q324 359 316 394Q315 406 330 442Q339 457 352 449Q362 440 363 307Q363 298 364 292C365 276 365 276 365 268Z"/>
<path id="z32046d3" d="M297 231Q264 327 104 454Q91 464 104 465Q113 466 143 451Q183 435 218 403Q287 340 327 265C348 230 312 193 297 231Z"/>
<path id="z32046d4" d="M364 292Q373 295 426 330Q436 336 445 334Q452 333 454 324Q455 314 446 296Q440 283 416 275Q391 271 365 268C357 267 357 289 364 292Z"/>
<path id="z32046d5" d="M585 163Q575 299 583 328Q589 353 606 369Q660 420 811 412Q878 408 905 392Q933 379 922 351Q909 306 905 231Q904 215 898 210Q891 206 885 224Q861 315 846 330Q828 352 728 353Q674 353 652 346Q633 339 629 327Q622 302 625 236Q634 164 649 132Q662 104 644 87Q598 48 583 52Q568 56 575 74Q591 111 585 163Z"/>
<path id="z32046d6" d="M514 505Q504 504 488 504Q424 505 386 504Q385 501 386 499Q387 498 508 406Q536 396 525 371Q509 337 490 325Q477 316 467 320Q460 324 463 338Q478 383 372 471Q369 471 368 473Q347 495 335 497Q311 500 303 513Q293 538 296 551Q300 567 315 560Q336 542 484 532C497 532 527 505 514 505Z"/>
<path id="z32046d7" d="M488 655Q503 645 645 619C653 617 638 599 630 601Q519 616 389 646Q386 647 388 645Q442 603 565 522Q602 495 632 482Q647 476 644 465Q640 444 613 417Q601 404 591 403Q581 404 578 419Q575 440 514 505C494 523 494 523 484 532Q340 641 310 651Q295 657 296 670Q295 683 315 706Q322 719 338 711Q402 678 469 660C482 657 482 657 488 655Z"/>
<path id="z32046d8" d="M645 619Q681 655 687 656Q696 657 701 647Q707 635 703 611Q702 590 674 571Q608 532 596 537Q592 540 591 551Q591 555 630 601C640 613 640 613 645 619Z"/>
<path id="z32046d9" d="M469 660Q468 664 471 675Q484 709 484 817Q483 859 479 868Q475 881 453 876Q429 872 404 866Q392 865 391 871Q390 878 400 887Q458 938 478 968Q491 981 502 979Q512 975 525 942Q541 909 539 849Q536 770 537 741Q544 701 527 681Q502 659 488 655C482 653 469 653 469 660Z"/>
<path id="z32046d10" d="M315 744Q284 792 243 832Q218 856 228 894Q232 912 254 904Q308 880 328 803Q340 773 338 749Q334 739 329 738Q322 737 315 744Z"/>
<path id="z32046d11" d="M628 750Q682 792 747 853Q765 872 781 876Q790 876 797 865Q809 850 792 807Q779 768 708 743Q657 725 626 719Q616 715 616 727Q616 740 628 750Z"/>
<defs>
	<clipPath id="z32046c1"><use href="#z32046d1"/></clipPath>
	<clipPath id="z32046c2"><use href="#z32046d2"/></clipPath>
	<clipPath id="z32046c3"><use href="#z32046d3"/></clipPath>
	<clipPath id="z32046c4"><use href="#z32046d4"/></clipPath>
	<clipPath id="z32046c5"><use href="#z32046d5"/></clipPath>
	<clipPath id="z32046c6"><use href="#z32046d6"/></clipPath>
	<clipPath id="z32046c7"><use href="#z32046d7"/></clipPath>
	<clipPath id="z32046c8"><use href="#z32046d8"/></clipPath>
	<clipPath id="z32046c9"><use href="#z32046d9"/></clipPath>
	<clipPath id="z32046c10"><use href="#z32046d10"/></clipPath>
	<clipPath id="z32046c11"><use href="#z32046d11"/></clipPath>
</defs>
<path style="--d:1s;" pathLength="3333" clip-path="url(#z32046c1)" d="M152 220L488 174"/>
<path style="--d:2s;" pathLength="3333" clip-path="url(#z32046c2)" d="M314 65L359 111L343 446"/>
<path style="--d:3s;" pathLength="3333" clip-path="url(#z32046c3)" d="M317 220L252 341L103 459"/>
<path style="--d:4s;" pathLength="3333" clip-path="url(#z32046c4)" d="M363 275L446 329"/>
<path style="--d:5s;" pathLength="3333" clip-path="url(#z32046c5)" d="M581 58L620 116L605 324L646 369L801 381L878 359L896 216"/>
<path style="--d:6s;" pathLength="3333" clip-path="url(#z32046c6)" d="M471 328L492 383L342 528L507 508"/>
<path style="--d:7s;" pathLength="3333" clip-path="url(#z32046c7)" d="M590 409L601 463L343 659L362 678L641 611"/>
<path style="--d:8s;" pathLength="3333" clip-path="url(#z32046c8)" d="M599 543L692 650"/>
<path style="--d:9s;" pathLength="3333" clip-path="url(#z32046c9)" d="M475 662L508 710L507 886L476 928L398 877"/>
<path style="--d:10s;" pathLength="3333" clip-path="url(#z32046c10)" d="M327 747L233 895"/>
<path style="--d:11s;" pathLength="3333" clip-path="url(#z32046c11)" d="M624 727L752 808L791 869"/>
</svg>