<!--
AnimCJK 2016-2017 Copyright Francois Mizessyn, http://gooo.free.fr/animCJK/
Derived from:
    MakeMeAHanzi project - https://github.com/skishore/makemeahanzi
    Arphic PL KaitiM GB - https://apps.ubuntu.com/cat/applications/precise/fonts-arphic-gkai00mp/
    Arphic PL UKai - https://apps.ubuntu.com/cat/applications/fonts-arphic-ukai/
You can redistribute and/or modify this file under the terms of the Arphic Public License
as published by Arphic Technology Co., Ltd.
You should have received a copy of this license (the directory "APL") along with this file;
if not, see http://ftp.gnu.org/non-gnu/chinese-fonts-truetype/LICENSE.
-->
<svg id="z32067" class="acjk" version="1.1" viewBox="0 0 1024 1024" xmlns="http://www.w3.org/2000/svg" xmlns:xlink="http://www.w3.org/1999/xlink">
<style>
<![CDATA[
@keyframes z32067k {
	from {
		stroke:#c00;
		stroke-dashoffset:3334;
	}
	75% {
		stroke:#c00;
		stroke-dashoffset:0;
	}
	to {
		stroke:#000;
	}
}
#z32067 path[clip-path] {
	animation:z32067k 1s linear both;
	stroke-dasharray:3334;
	stroke-width:128;
	stroke-linecap:round;
	fill:none;
}
#z32067 path[clip-path="url(#z32067c1)"] {animation-delay:1s;}
#z32067 path[clip-path="url(#z32067c2)"] {animation-delay:2s;}
#z32067 path[clip-path="url(#z32067c3)"] {animation-delay:3s;}
#z32067 path[clip-path="url(#z32067c4)"] {animation-delay:4s;}
#z32067 path[clip-path="url(#z32067c5)"] {animation-delay:5s;}
#z32067 path[clip-path="url(#z32067c6)"] {animation-delay:6s;}
#z32067 path[clip-path="url(#z32067c7)"] {animation-delay:7s;}
#z32067 path[clip-path="url(#z32067c8)"] {animation-delay:8s;}
#z32067 path[clip-path="url(#z32067c9)"] {animation-delay:9s;}
#z32067 path[clip-path="url(#z32067c10)"] {animation-delay:10s;}
#z32067 path[clip-path="url(#z32067c11)"] {animation-delay:11s;}
#z32067 path {fill:#ccc;}
]]>
</style>
<path id="z32067d1" d="M 286,452 C 278,451 225,446 203,446 176,444 172,438 184,421 232,345 274,276 319,219 328,206 332,198 331,194 328,183 313,167 288,147 276,137 265,133 252,137 244,139 242,144 247,156 259,183 235,252 176,361 163,385 144,411 117,434 105,443 97,451 99,460 100,472 107,485 117,498 123,506 131,507 140,503 162,491 205,481 268,475 Z"/>
<path id="z32067d2" d="M 335,563 C 304,569 270,579 234,592 221,596 219,593 227,583 253,549 297,499 356,430 375,406 392,386 410,373 418,366 420,360 417,354 409,341 395,328 375,315 363,308 356,306 350,308 343,310 340,315 342,327 344,350 330,395 286,452 L 268,475 C 201,559 161,602 151,609 141,614 139,622 141,631 141,639 151,648 168,663 175,669 182,670 193,663 234,629 286,603 346,581 Z"/>
<path id="z32067d3" d="M 346,581 C 355,596 364,606 377,609 383,610 391,608 397,598 400,591 399,580 395,568 388,548 365,533 333,521 327,519 325,521 323,527 322,529 322,542 335,563 Z"/>
<path id="z32067d4" d="M 107,776 C 121,801 135,831 149,865 153,876 161,885 172,889 178,891 185,889 193,882 199,874 204,869 207,848 209,831 203,801 184,781 143,738 114,717 101,717 96,717 92,721 91,732 89,740 95,754 107,776 Z"/>
<path id="z32067d5" d="M 239,750 C 246,759 251,771 259,783 264,791 271,796 281,798 286,798 293,795 297,789 301,781 303,768 301,750 300,741 294,732 282,726 250,708 229,700 224,703 220,704 218,709 218,717 217,723 226,733 239,750 Z"/>
<path id="z32067d6" d="M 340,703 C 349,711 357,724 366,736 372,744 381,748 391,748 397,748 402,744 405,737 408,728 407,715 404,699 402,690 394,680 381,675 347,660 325,656 320,659 316,660 316,666 316,674 316,680 325,688 340,703 Z"/>
<path id="z32067d7" d="M 595,188 C 615,204 635,223 657,245 667,255 678,259 690,259 698,259 704,253 708,243 712,232 710,215 703,193 698,178 684,165 662,155 608,134 575,127 564,133 560,135 558,142 560,152 562,160 574,172 595,188 Z"/>
<path id="z32067d8" d="M 644,373 C 739,355 778,350 900,350 914,350 922,346 925,340 927,332 924,323 913,316 876,291 841,287 807,296 717,318 630,339 465,364 452,365 450,372 461,383 469,391 480,397 493,400 505,402 517,402 528,399 554,390 573,385 606,380 Z"/>
<path id="z32067d9" d="M 668,601 551,601 C 534,600 530,595 540,585 582,530 624,483 665,444 675,434 680,426 679,422 679,414 667,397 644,373 L 606,380 C 612,406 586,458 530,538 518,556 500,573 477,589 464,597 458,606 458,614 460,626 465,638 473,651 479,657 487,659 495,656 517,645 563,635 633,627 639,626 644,626 650,626 Z"/>
<path id="z32067d10" d="M 762,767 C 705,771 643,781 575,795 552,801 549,795 565,778 599,737 657,675 737,592 759,567 780,548 799,534 809,527 811,520 807,513 801,499 786,484 764,469 753,461 744,458 738,460 730,460 726,467 728,479 728,503 708,544 668,601 L 650,626 C 649,626 649,626 649,627 557,735 500,792 479,800 468,806 463,814 465,824 465,834 474,846 492,862 498,870 507,871 519,864 585,830 670,803 774,785 Z"/>
<path id="z32067d11" d="M 774,785 C 816,853 840,889 848,893 854,895 859,893 865,888 875,881 878,863 876,835 873,795 823,742 726,677 721,672 717,673 714,681 712,689 713,697 719,705 731,723 746,744 762,767 Z"/>
<defs>
	<clipPath id="z32067c1"><use xlink:href="#z32067d1"/></clipPath>
	<clipPath id="z32067c2"><use xlink:href="#z32067d2"/></clipPath>
	<clipPath id="z32067c3"><use xlink:href="#z32067d3"/></clipPath>
	<clipPath id="z32067c4"><use xlink:href="#z32067d4"/></clipPath>
	<clipPath id="z32067c5"><use xlink:href="#z32067d5"/></clipPath>
	<clipPath id="z32067c6"><use xlink:href="#z32067d6"/></clipPath>
	<clipPath id="z32067c7"><use xlink:href="#z32067d7"/></clipPath>
	<clipPath id="z32067c8"><use xlink:href="#z32067d8"/></clipPath>
	<clipPath id="z32067c9"><use xlink:href="#z32067d9"/></clipPath>
	<clipPath id="z32067c10"><use xlink:href="#z32067d10"/></clipPath>
	<clipPath id="z32067c11"><use xlink:href="#z32067d11"/></clipPath>
</defs>
<path pathLength="3333" clip-path="url(#z32067c1)" d="M 251,141 289,197 140,449 156,474 277,457"/>
<path pathLength="3333" clip-path="url(#z32067c2)" d="M 353,311 375,366 182,609 203,630 339,577"/>
<path pathLength="3333" clip-path="url(#z32067c3)" d="M 331,526 383,604"/>
<path pathLength="3333" clip-path="url(#z32067c4)" d="M 100,725 172,828 179,885"/>
<path pathLength="3333" clip-path="url(#z32067c5)" d="M 226,709 284,792"/>
<path pathLength="3333" clip-path="url(#z32067c6)" d="M 323,668 376,704 390,744"/>
<path pathLength="3333" clip-path="url(#z32067c7)" d="M 563,140 664,199 689,255"/>
<path pathLength="3333" clip-path="url(#z32067c8)" d="M 460,371 508,379 827,321 922,335"/>
<path pathLength="3333" clip-path="url(#z32067c9)" d="M 614,382 639,422 501,610 515,629 657,605"/>
<path pathLength="3333" clip-path="url(#z32067c10)" d="M 738,467 764,519 511,810 532,833 767,778"/>
<path pathLength="3333" clip-path="url(#z32067c11)" d="M 720,681 831,812 858,889"/>
</svg>