<!--
AnimCJK 2016-2019 Copyright Francois Mizessyn - https://github.com/parsimonhi/animCJK
Derived from:
    MakeMeAHanzi project - https://github.com/skishore/makemeahanzi
    Arphic PL KaitiM GB font
    Arphic PL UKai font
You can redistribute and/or modify this file under the terms of the Arphic Public License
as published by Arphic Technology Co., Ltd.
You should have received a copy of this license along with this file.
If not, see http://ftp.gnu.org/non-gnu/chinese-fonts-truetype/LICENSE.
-->
<svg id="z32080" class="acjk" version="1.1" viewBox="0 0 1024 1024" xmlns="http://www.w3.org/2000/svg" xmlns:xlink="http://www.w3.org/1999/xlink">
<style>
<![CDATA[
@keyframes zk {
	to {
		stroke-dashoffset:0;
	}
}
svg.acjk path[clip-path] {
	--t:0.8s;
	animation:zk var(--t) linear forwards var(--d);
	stroke-dasharray:3337;
	stroke-dashoffset:3339;
	stroke-width:128;
	stroke-linecap:round;
	fill:none;
	stroke:#000;
}
svg.acjk path[id] {fill:#ccc;}
]]>
</style>
<path id="z32080d1" d="M340 364Q291 363 251 364Q214 365 233 342Q297 231 358 149Q373 131 369 123Q366 108 326 77Q308 64 290 68Q278 71 285 87Q303 126 221 286Q205 320 166 356Q147 371 149 383Q153 402 169 421Q179 433 193 425Q230 403 325 389C335 387 350 364 340 364Z"/>
<path id="z32080d2" d="M387 500Q336 513 279 538Q260 547 271 530Q311 469 409 347Q437 305 464 282Q477 272 470 260Q458 241 422 221Q406 211 395 215Q385 219 387 235Q388 271 340 364C330 381 330 381 325 389Q214 548 191 562Q178 572 181 587Q184 602 212 620Q224 632 239 618Q293 570 392 519C393 519 393 519 394 519C401 518 394 499 387 500Z"/>
<path id="z32080d3" d="M394 519Q394 520 395 523Q404 545 418 551Q428 558 442 544Q448 534 448 511Q442 478 392 446Q385 440 379 450Q376 456 387 500C392 513 392 513 394 519Z"/>
<path id="z32080d4" d="M120 743Q136 776 152 814Q161 832 176 838Q186 841 197 830Q207 818 210 785Q211 752 134 695Q121 685 113 685Q106 686 103 700Q102 713 120 743Z"/>
<path id="z32080d5" d="M257 698Q275 746 288 752Q297 755 305 747Q314 737 317 710Q318 697 303 682Q261 648 253 650Q247 651 244 662Q243 672 257 698Z"/>
<path id="z32080d6" d="M373 651Q385 667 398 687Q408 700 422 701Q431 702 437 691Q443 679 439 652Q438 639 417 627Q369 602 356 605Q352 608 351 619Q352 629 373 651Z"/>
<path id="z32080d7" d="M704 397Q773 381 848 367Q912 351 923 343Q932 334 927 325Q920 312 888 304Q857 297 823 310Q766 329 707 348C674 356 674 356 657 360Q572 378 475 388Q435 395 463 413Q505 440 580 422Q616 413 656 407C688 400 688 400 704 397Z"/>
<path id="z32080d8" d="M695 509Q699 451 704 397C706 364 706 364 707 348Q716 180 737 114Q741 102 719 86Q682 65 656 60Q638 56 630 66Q621 73 630 90Q655 127 656 154Q659 251 657 360C656 391 656 391 656 407Q653 461 651 518C651 533 695 524 695 509Z"/>
<path id="z32080d9" d="M651 518Q581 531 517 545Q498 549 520 566Q536 578 568 572Q722 547 836 531Q861 527 853 513Q841 497 814 490Q772 484 695 509C666 515 666 515 651 518Z"/>
<path id="z32080d10" d="M557 672Q547 665 507 660Q494 657 491 663Q484 670 494 686Q525 741 545 835Q549 863 567 881Q586 903 591 886Q594 877 594 864C591 838 591 838 590 825Q572 737 567 705C565 694 567 677 557 672Z"/>
<path id="z32080d11" d="M816 801Q852 723 883 707Q902 688 888 669Q872 653 819 624Q800 615 777 622Q696 652 557 672C546 674 556 707 567 705Q568 705 756 672Q778 668 787 677Q799 695 760 797C753 814 809 818 816 801Z"/>
<path id="z32080d12" d="M594 864Q601 865 613 863Q683 850 833 842Q845 841 847 831Q847 822 816 801C800 791 778 793 760 797Q664 816 590 825C577 828 581 864 594 864Z"/>
<defs>
	<clipPath id="z32080c1"><use xlink:href="#z32080d1"/></clipPath>
	<clipPath id="z32080c2"><use xlink:href="#z32080d2"/></clipPath>
	<clipPath id="z32080c3"><use xlink:href="#z32080d3"/></clipPath>
	<clipPath id="z32080c4"><use xlink:href="#z32080d4"/></clipPath>
	<clipPath id="z32080c5"><use xlink:href="#z32080d5"/></clipPath>
	<clipPath id="z32080c6"><use xlink:href="#z32080d6"/></clipPath>
	<clipPath id="z32080c7"><use xlink:href="#z32080d7"/></clipPath>
	<clipPath id="z32080c8"><use xlink:href="#z32080d8"/></clipPath>
	<clipPath id="z32080c9"><use xlink:href="#z32080d9"/></clipPath>
	<clipPath id="z32080c10"><use xlink:href="#z32080d10"/></clipPath>
	<clipPath id="z32080c11"><use xlink:href="#z32080d11"/></clipPath>
	<clipPath id="z32080c12"><use xlink:href="#z32080d12"/></clipPath>
</defs>
<path style="--d:1s;" pathLength="3333" clip-path="url(#z32080c1)" d="M289 74L328 127L198 370L216 396L331 371"/>
<path style="--d:2s;" pathLength="3333" clip-path="url(#z32080c2)" d="M398 220L426 270L224 560L249 581L388 510"/>
<path style="--d:3s;" pathLength="3333" clip-path="url(#z32080c3)" d="M387 450L427 549"/>
<path style="--d:4s;" pathLength="3333" clip-path="url(#z32080c4)" d="M113 690L191 832"/>
<path style="--d:5s;" pathLength="3333" clip-path="url(#z32080c5)" d="M254 655L303 745"/>
<path style="--d:6s;" pathLength="3333" clip-path="url(#z32080c6)" d="M360 614L408 652L420 697"/>
<path style="--d:7s;" pathLength="3333" clip-path="url(#z32080c7)" d="M458 398L539 404L923 328"/>
<path style="--d:8s;" pathLength="3333" clip-path="url(#z32080c8)" d="M632 68L695 126L662 514"/>
<path style="--d:9s;" pathLength="3333" clip-path="url(#z32080c9)" d="M516 551L850 514"/>
<path style="--d:10s;" pathLength="3333" clip-path="url(#z32080c10)" d="M497 669L531 690L578 888"/>
<path style="--d:11s;" pathLength="3333" clip-path="url(#z32080c11)" d="M566 677L810 654L841 696L772 796"/>
<path style="--d:12s;" pathLength="3333" clip-path="url(#z32080c12)" d="M596 828L840 825"/>
</svg>