<!--
AnimCJK 2016-2017 Copyright Francois Mizessyn, http://gooo.free.fr/animCJK/
Derived from:
    MakeMeAHanzi project - https://github.com/skishore/makemeahanzi
    Arphic PL KaitiM GB - https://apps.ubuntu.com/cat/applications/precise/fonts-arphic-gkai00mp/
    Arphic PL UKai - https://apps.ubuntu.com/cat/applications/fonts-arphic-ukai/
You can redistribute and/or modify this file under the terms of the Arphic Public License
as published by Arphic Technology Co., Ltd.
You should have received a copy of this license (the directory "APL") along with this file;
if not, see http://ftp.gnu.org/non-gnu/chinese-fonts-truetype/LICENSE.
-->
<svg id="z32080" class="acjk" version="1.1" viewBox="0 0 1024 1024" xmlns="http://www.w3.org/2000/svg" xmlns:xlink="http://www.w3.org/1999/xlink">
<style>
<![CDATA[
	@keyframes z32080k {
		from {
			stroke:#c00;
			stroke-dashoffset:3000;
		}
		75% {
			stroke:#c00;
			stroke-dashoffset:0;
		}
		to {
			stroke:#000;
		}
	}
	#z32080 path[clip-path] {
		animation:z32080k 1s linear both;
		stroke-dasharray:3000;
		stroke-width:128;
		stroke-linecap:round;
		fill:none;
	}
	#z32080 path[clip-path="url(#z32080c1)"] {animation-delay:1s;}
	#z32080 path[clip-path="url(#z32080c2)"] {animation-delay:2s;}
	#z32080 path[clip-path="url(#z32080c3)"] {animation-delay:3s;}
	#z32080 path[clip-path="url(#z32080c4)"] {animation-delay:4s;}
	#z32080 path[clip-path="url(#z32080c5)"] {animation-delay:5s;}
	#z32080 path[clip-path="url(#z32080c6)"] {animation-delay:6s;}
	#z32080 path[clip-path="url(#z32080c7)"] {animation-delay:7s;}
	#z32080 path[clip-path="url(#z32080c8)"] {animation-delay:8s;}
	#z32080 path[clip-path="url(#z32080c9)"] {animation-delay:9s;}
	#z32080 path[clip-path="url(#z32080c10)"] {animation-delay:10s;}
	#z32080 path[clip-path="url(#z32080c11)"] {animation-delay:11s;}
	#z32080 path[clip-path="url(#z32080c12)"] {animation-delay:12s;}
	#z32080 path {fill:#ccc;}
]]>
</style>
<g transform="scale(1,-1) translate(0,-900)">
	<path id="z32080d1" d="M340 536Q291 537 251 536Q214 535 233 558Q297 669 358 751Q373 769 369 777Q366 792 326 823Q308 836 290 832Q278 829 285 813Q303 774 221 614Q205 580 166 544Q147 529 149 517Q153 498 169 479Q179 467 193 475Q230 497 325 511L340 536Z"/>
	<path id="z32080d2" d="M387 400Q336 387 279 362Q260 353 271 370Q311 431 409 553Q437 595 464 618Q477 628 470 640Q458 659 422 679Q406 689 395 685Q385 681 387 665Q388 629 340 536L325 511Q214 352 191 338Q178 328 181 313Q184 298 212 280Q224 268 239 282Q293 330 392 381L394 381L387 400Z"/>
	<path id="z32080d3" d="M394 381Q394 380 395 377Q404 355 418 349Q428 342 442 356Q448 366 448 389Q442 422 392 454Q385 460 379 450Q376 444 387 400L394 381Z"/>
	<path id="z32080d4" d="M120 157Q136 124 152 86Q161 68 176 62Q186 59 197 70Q207 82 210 115Q211 148 134 205Q121 215 113 215Q106 214 103 200Q102 187 120 157Z"/>
	<path id="z32080d5" d="M257 202Q275 154 288 148Q297 145 305 153Q314 163 317 190Q318 203 303 218Q261 252 253 250Q247 249 244 238Q243 228 257 202Z"/>
	<path id="z32080d6" d="M373 249Q385 233 398 213Q408 200 422 199Q431 198 437 209Q443 221 439 248Q438 261 417 273Q369 298 356 295Q352 292 351 281Q352 271 373 249Z"/>
	<path id="z32080d7" d="M704 503Q773 519 848 533Q912 549 923 557Q932 566 927 575Q920 588 888 596Q857 603 823 590Q766 571 707 552L657 540Q572 522 475 512Q435 505 463 487Q505 460 580 478Q616 487 656 493L704 503Z"/>
	<path id="z32080d8" d="M695 391Q699 449 704 503L707 552Q716 720 737 786Q741 798 719 814Q682 835 656 840Q638 844 630 834Q621 827 630 810Q655 773 656 746Q659 649 657 540L656 493Q653 439 651 382L695 391Z"/>
	<path id="z32080d9" d="M651 382Q581 369 517 355Q498 351 520 334Q536 322 568 328Q722 353 836 369Q861 373 853 387Q841 403 814 410Q772 416 695 391L651 382Z"/>
	<path id="z32080d10" d="M557 228Q547 235 507 240Q494 243 491 237Q484 230 494 214Q525 159 545 65Q549 37 567 19Q586 -3 591 14Q594 23 594 36L590 75Q572 163 567 195L557 228Z"/>
	<path id="z32080d11" d="M816 99Q852 177 883 193Q902 212 888 231Q872 247 819 276Q800 285 777 278Q696 248 557 228L567 195Q568 195 756 228Q778 232 787 223Q799 205 760 103L816 99Z"/>
	<path id="z32080d12" d="M594 36Q601 35 613 37Q683 50 833 58Q845 59 847 69Q847 78 816 99L760 103Q664 84 590 75L594 36Z"/>
	<defs>
		<clipPath id="z32080c1"><use xlink:href="#z32080d1"/></clipPath>
		<clipPath id="z32080c2"><use xlink:href="#z32080d2"/></clipPath>
		<clipPath id="z32080c3"><use xlink:href="#z32080d3"/></clipPath>
		<clipPath id="z32080c4"><use xlink:href="#z32080d4"/></clipPath>
		<clipPath id="z32080c5"><use xlink:href="#z32080d5"/></clipPath>
		<clipPath id="z32080c6"><use xlink:href="#z32080d6"/></clipPath>
		<clipPath id="z32080c7"><use xlink:href="#z32080d7"/></clipPath>
		<clipPath id="z32080c8"><use xlink:href="#z32080d8"/></clipPath>
		<clipPath id="z32080c9"><use xlink:href="#z32080d9"/></clipPath>
		<clipPath id="z32080c10"><use xlink:href="#z32080d10"/></clipPath>
		<clipPath id="z32080c11"><use xlink:href="#z32080d11"/></clipPath>
		<clipPath id="z32080c12"><use xlink:href="#z32080d12"/></clipPath>
	</defs>
	<path pathLength="2999" clip-path="url(#z32080c1)" d="M289 826L328 773L198 530L216 504L331 529"/>
	<path pathLength="2999" clip-path="url(#z32080c2)" d="M398 680L426 630L224 340L249 319L388 390"/>
	<path pathLength="2999" clip-path="url(#z32080c3)" d="M387 450L427 351"/>
	<path pathLength="2999" clip-path="url(#z32080c4)" d="M113 210L191 68"/>
	<path pathLength="2999" clip-path="url(#z32080c5)" d="M254 245L303 155"/>
	<path pathLength="2999" clip-path="url(#z32080c6)" d="M360 286L408 248L420 203"/>
	<path pathLength="2999" clip-path="url(#z32080c7)" d="M458 502L539 496L923 572"/>
	<path pathLength="2999" clip-path="url(#z32080c8)" d="M632 832L695 774L662 386"/>
	<path pathLength="2999" clip-path="url(#z32080c9)" d="M516 349L850 386"/>
	<path pathLength="2999" clip-path="url(#z32080c10)" d="M497 231L531 210L578 12"/>
	<path pathLength="2999" clip-path="url(#z32080c11)" d="M566 223L810 246L841 204L772 104"/>
	<path pathLength="2999" clip-path="url(#z32080c12)" d="M596 72L840 75"/>
</g>
</svg>