<!--
AnimCJK 2016-2018 Copyright Francois Mizessyn, https://github.com/parsimonhi/animCJK
Derived from:
    MakeMeAHanzi project - https://github.com/skishore/makemeahanzi
    Arphic PL KaitiM GB - https://apps.ubuntu.com/cat/applications/precise/fonts-arphic-gkai00mp/
    Arphic PL UKai - https://apps.ubuntu.com/cat/applications/fonts-arphic-ukai/
You can redistribute and/or modify this file under the terms of the Arphic Public License
as published by Arphic Technology Co., Ltd.
You should have received a copy of this license (the directory "APL") along with this file;
if not, see http://ftp.gnu.org/non-gnu/chinese-fonts-truetype/LICENSE.
-->
<svg id="z32094" class="acjk" version="1.1" viewBox="0 0 1024 1024" xmlns="http://www.w3.org/2000/svg" xmlns:xlink="http://www.w3.org/1999/xlink">
<style>
<![CDATA[
@keyframes z32094k {
	from {
		stroke:#c00;
		stroke-dashoffset:3334;
	}
	75% {
		stroke:#c00;
		stroke-dashoffset:0;
	}
	to {
		stroke:#000;
	}
}
#z32094 path[clip-path] {
	animation:z32094k 1s linear both;
	stroke-dasharray:3334;
	stroke-width:128;
	stroke-linecap:round;
	fill:none;
}
#z32094 path[clip-path="url(#z32094c1)"] {animation-delay:1s;}
#z32094 path[clip-path="url(#z32094c2)"] {animation-delay:2s;}
#z32094 path[clip-path="url(#z32094c3)"] {animation-delay:3s;}
#z32094 path[clip-path="url(#z32094c4)"] {animation-delay:4s;}
#z32094 path[clip-path="url(#z32094c5)"] {animation-delay:5s;}
#z32094 path[clip-path="url(#z32094c6)"] {animation-delay:6s;}
#z32094 path[clip-path="url(#z32094c7)"] {animation-delay:7s;}
#z32094 path[clip-path="url(#z32094c8)"] {animation-delay:8s;}
#z32094 path[clip-path="url(#z32094c9)"] {animation-delay:9s;}
#z32094 path[clip-path="url(#z32094c10)"] {animation-delay:10s;}
#z32094 path[clip-path="url(#z32094c11)"] {animation-delay:11s;}
#z32094 path[clip-path="url(#z32094c12)"] {animation-delay:12s;}
#z32094 path {fill:#ccc;}
]]>
</style>
<path id="z32094d1" d="M318 414Q275 413 240 413Q204 413 223 391Q295 271 364 181Q380 163 377 156Q374 141 334 108Q318 95 298 98Q286 101 293 117Q311 160 218 328Q197 367 155 403Q136 418 138 430Q142 449 156 469Q165 478 183 471Q219 450 302 440L318 414 Z"/>
<path id="z32094d2" d="M372 547Q324 557 268 580Q246 590 259 569Q296 514 386 399Q414 357 441 334Q454 322 447 312Q434 293 398 273Q382 264 371 267Q361 271 363 288Q367 322 318 414L302 440Q203 587 178 602Q163 612 168 627Q169 642 199 660Q211 673 226 658Q265 622 381 565L372 547 Z"/>
<path id="z32094d3" d="M381 565Q393 584 409 590Q422 594 432 579Q436 567 432 546Q423 516 368 491Q361 487 356 498Q353 504 372 547L381 565 Z"/>
<path id="z32094d4" d="M138 776Q148 798 157 825Q164 843 180 849Q190 853 201 842Q211 830 215 798Q216 774 154 727Q141 717 133 717Q126 718 122 732Q121 745 138 776 Z"/>
<path id="z32094d5" d="M262 722Q305 777 316 780Q323 781 329 771Q335 761 332 737Q331 721 310 707Q259 679 248 682Q244 683 243 694Q244 703 262 722 Z"/>
<path id="z32094d6" d="M377 680Q390 696 404 716Q414 728 427 729Q436 729 441 719Q447 707 442 683Q441 670 420 657Q369 633 360 637Q356 640 355 651Q356 660 377 680 Z"/>
<path id="z32094d7" d="M631 171Q653 189 677 212Q693 225 709 223Q719 222 725 208Q729 192 718 161Q706 133 623 121Q607 117 600 121Q594 125 597 139Q601 149 631 171 Z"/>
<path id="z32094d8" d="M540 326Q503 333 531 349Q574 373 631 357Q728 333 831 308Q877 295 884 289Q893 280 888 272Q881 260 850 254Q820 250 717 288Q572 321 540 326 Z"/>
<path id="z32094d9" d="M544 430Q544 470 455 573Q439 588 462 582Q510 573 602 463Q606 457 611 453Q618 441 616 434Q612 422 588 418Q563 412 552 416Q545 417 544 430 Z"/>
<path id="z32094d10" d="M754 441Q793 462 835 487Q851 496 865 492Q875 489 877 476Q878 461 864 435Q854 414 816 405Q729 390 719 401Q715 405 719 417Q725 427 754 441 Z"/>
<path id="z32094d11" d="M699 685Q721 645 732 601Q742 559 753 547Q762 535 753 526Q743 513 717 505Q698 496 680 500Q668 504 675 518Q699 566 660 654L643 687Q588 768 454 818Q435 824 415 831Q399 840 418 842Q535 849 624 783Q655 758 677 724L699 685 Z"/>
<path id="z32094d12" d="M677 724Q792 847 822 857Q874 872 984 856Q1003 855 1004 850Q1007 843 992 837Q794 750 786 744Q759 728 699 685L660 654Q641 636 620 617Q562 559 545 546Q535 539 534 553Q534 568 643 687L677 724 Z"/>
<defs>
	<clipPath id="z32094c1"><use xlink:href="#z32094d1"/></clipPath>
	<clipPath id="z32094c2"><use xlink:href="#z32094d2"/></clipPath>
	<clipPath id="z32094c3"><use xlink:href="#z32094d3"/></clipPath>
	<clipPath id="z32094c4"><use xlink:href="#z32094d4"/></clipPath>
	<clipPath id="z32094c5"><use xlink:href="#z32094d5"/></clipPath>
	<clipPath id="z32094c6"><use xlink:href="#z32094d6"/></clipPath>
	<clipPath id="z32094c7"><use xlink:href="#z32094d7"/></clipPath>
	<clipPath id="z32094c8"><use xlink:href="#z32094d8"/></clipPath>
	<clipPath id="z32094c9"><use xlink:href="#z32094d9"/></clipPath>
	<clipPath id="z32094c10"><use xlink:href="#z32094d10"/></clipPath>
	<clipPath id="z32094c11"><use xlink:href="#z32094d11"/></clipPath>
	<clipPath id="z32094c12"><use xlink:href="#z32094d12"/></clipPath>
</defs>
<path pathLength="3333" clip-path="url(#z32094c1)" d="M298 102L335 156L180 421L194 442L307 418"/>
<path pathLength="3333" clip-path="url(#z32094c2)" d="M373 269L400 329L212 604L236 624L376 557"/>
<path pathLength="3333" clip-path="url(#z32094c3)" d="M365 495L419 584"/>
<path pathLength="3333" clip-path="url(#z32094c4)" d="M131 726L180 793L184 846"/>
<path pathLength="3333" clip-path="url(#z32094c5)" d="M250 687L324 773"/>
<path pathLength="3333" clip-path="url(#z32094c6)" d="M361 643L434 723"/>
<path pathLength="3333" clip-path="url(#z32094c7)" d="M604 128L680 169L714 217"/>
<path pathLength="3333" clip-path="url(#z32094c8)" d="M526 335L601 338L885 278"/>
<path pathLength="3333" clip-path="url(#z32094c9)" d="M610 436L570 447L456 579"/>
<path pathLength="3333" clip-path="url(#z32094c10)" d="M724 407L829 444L867 485"/>
<path pathLength="3333" clip-path="url(#z32094c11)" d="M679 505L720 544L645 725L548 800L416 835"/>
<path pathLength="3333" clip-path="url(#z32094c12)" d="M541 552L799 794L995 847"/>
</svg>