<!--
AnimCJK 2016-2017 Copyright Francois Mizessyn, http://gooo.free.fr/animCJK/
Derived from:
    MakeMeAHanzi project - https://github.com/skishore/makemeahanzi
    Arphic PL KaitiM GB - https://apps.ubuntu.com/cat/applications/precise/fonts-arphic-gkai00mp/
    Arphic PL UKai - https://apps.ubuntu.com/cat/applications/fonts-arphic-ukai/
You can redistribute and/or modify this file under the terms of the Arphic Public License
as published by Arphic Technology Co., Ltd.
You should have received a copy of this license (the directory "APL") along with this file;
if not, see http://ftp.gnu.org/non-gnu/chinese-fonts-truetype/LICENSE.
-->
<svg id="z32102" class="acjk" version="1.1" viewBox="0 0 1024 1024" xmlns="http://www.w3.org/2000/svg" xmlns:xlink="http://www.w3.org/1999/xlink">
<style>
<![CDATA[
	@keyframes z32102k {
		from {
			stroke:#c00;
			stroke-dashoffset:3000;
		}
		75% {
			stroke:#c00;
			stroke-dashoffset:0;
		}
		to {
			stroke:#000;
		}
	}
	#z32102 path[clip-path] {
		animation:z32102k 1s linear both;
		stroke-dasharray:3000;
		stroke-width:128;
		stroke-linecap:round;
		fill:none;
	}
	#z32102 path[clip-path="url(#z32102c1)"] {animation-delay:1s;}
	#z32102 path[clip-path="url(#z32102c2)"] {animation-delay:2s;}
	#z32102 path[clip-path="url(#z32102c3)"] {animation-delay:3s;}
	#z32102 path[clip-path="url(#z32102c4)"] {animation-delay:4s;}
	#z32102 path[clip-path="url(#z32102c5)"] {animation-delay:5s;}
	#z32102 path[clip-path="url(#z32102c6)"] {animation-delay:6s;}
	#z32102 path[clip-path="url(#z32102c7)"] {animation-delay:7s;}
	#z32102 path[clip-path="url(#z32102c8)"] {animation-delay:8s;}
	#z32102 path[clip-path="url(#z32102c9)"] {animation-delay:9s;}
	#z32102 path[clip-path="url(#z32102c10)"] {animation-delay:10s;}
	#z32102 path[clip-path="url(#z32102c11)"] {animation-delay:11s;}
	#z32102 path[clip-path="url(#z32102c12)"] {animation-delay:12s;}
	#z32102 path {fill:#ccc;}
]]>
</style>
<g transform="scale(1,-1) translate(0,-900)">
	<path id="z32102d1" d="M319 535Q270 532 229 529Q201 526 215 545Q276 645 336 719Q352 737 349 744Q346 759 306 792Q290 805 270 802Q258 799 265 783Q281 741 200 597Q184 564 147 533Q128 517 131 504Q135 485 151 467Q163 455 175 464Q220 495 301 507L319 535Z"/>
	<path id="z32102d2" d="M340 380Q295 371 245 354Q224 345 237 364Q373 544 438 597Q451 607 445 618Q435 639 399 660Q383 670 372 668Q362 664 363 647Q364 614 319 535L301 507Q300 506 300 505Q183 352 155 335Q142 325 144 311Q145 296 174 276Q184 263 201 277Q252 319 351 361L340 380Z"/>
	<path id="z32102d3" d="M351 361Q363 342 378 338Q390 334 400 348Q404 360 400 380Q387 416 332 441Q325 444 320 434Q317 430 340 380L351 361Z"/>
	<path id="z32102d4" d="M102 165Q123 129 144 88Q153 70 168 65Q178 62 189 73Q199 86 200 119Q201 141 175 169Q108 226 93 223Q86 222 83 207Q83 195 102 165Z"/>
	<path id="z32102d5" d="M231 210Q244 194 258 175Q268 163 282 162Q292 162 297 173Q303 185 297 212Q293 231 231 252Q218 256 212 255Q208 252 208 240Q209 230 231 210Z"/>
	<path id="z32102d6" d="M333 261Q375 207 383 205Q392 204 397 213Q403 223 401 247Q398 269 337 298Q325 304 320 302Q316 301 315 290Q316 281 333 261Z"/>
	<path id="z32102d7" d="M618 654Q648 730 659 746Q666 759 659 772Q652 784 618 802Q587 815 567 811Q548 805 561 784Q582 756 575 728Q545 569 429 353Q420 340 419 334Q418 321 432 327Q489 348 604 619Q605 625 609 630L618 654Z"/>
	<path id="z32102d8" d="M609 630Q699 518 798 417Q820 393 857 391Q924 385 997 396Q1015 397 1016 402Q1019 409 1005 415Q825 490 812 499Q722 559 623 650Q620 653 618 654L609 630Z"/>
	<path id="z32102d9" d="M526 399Q493 392 518 377Q557 359 608 373Q653 385 700 397Q722 403 725 406Q732 413 727 421Q720 431 693 437Q678 438 592 412Q562 405 526 399Z"/>
	<path id="z32102d10" d="M505 258Q493 264 460 268Q448 271 445 265Q439 258 448 243Q478 189 498 99Q502 72 519 55Q538 33 543 50Q544 59 546 70L541 105Q541 106 517 227L505 258Z"/>
	<path id="z32102d11" d="M755 134Q783 212 815 232Q833 251 818 270Q745 330 687 302Q612 275 505 258L517 227Q529 228 543 232Q619 247 692 261Q711 265 718 258Q733 242 700 137L755 134Z"/>
	<path id="z32102d12" d="M546 70Q553 70 562 71Q628 84 771 96Q781 97 783 106Q783 115 755 134L700 137Q612 116 541 105L546 70Z"/>
	<defs>
		<clipPath id="z32102c1"><use xlink:href="#z32102d1"/></clipPath>
		<clipPath id="z32102c2"><use xlink:href="#z32102d2"/></clipPath>
		<clipPath id="z32102c3"><use xlink:href="#z32102d3"/></clipPath>
		<clipPath id="z32102c4"><use xlink:href="#z32102d4"/></clipPath>
		<clipPath id="z32102c5"><use xlink:href="#z32102d5"/></clipPath>
		<clipPath id="z32102c6"><use xlink:href="#z32102d6"/></clipPath>
		<clipPath id="z32102c7"><use xlink:href="#z32102d7"/></clipPath>
		<clipPath id="z32102c8"><use xlink:href="#z32102d8"/></clipPath>
		<clipPath id="z32102c9"><use xlink:href="#z32102d9"/></clipPath>
		<clipPath id="z32102c10"><use xlink:href="#z32102d10"/></clipPath>
		<clipPath id="z32102c11"><use xlink:href="#z32102d11"/></clipPath>
		<clipPath id="z32102c12"><use xlink:href="#z32102d12"/></clipPath>
	</defs>
	<path pathLength="2999" clip-path="url(#z32102c1)" d="M270 796L307 743L171 520L188 496L309 531"/>
	<path pathLength="2999" clip-path="url(#z32102c2)" d="M374 664L399 604L192 335L215 312L344 371"/>
	<path pathLength="2999" clip-path="url(#z32102c3)" d="M329 432L386 341"/>
	<path pathLength="2999" clip-path="url(#z32102c4)" d="M92 214L164 125L177 69"/>
	<path pathLength="2999" clip-path="url(#z32102c5)" d="M215 250L288 167"/>
	<path pathLength="2999" clip-path="url(#z32102c6)" d="M322 295L387 212"/>
	<path pathLength="2999" clip-path="url(#z32102c7)" d="M562 801L618 745L511 469L426 333"/>
	<path pathLength="2999" clip-path="url(#z32102c8)" d="M619 645L829 444L1010 406"/>
	<path pathLength="2999" clip-path="url(#z32102c9)" d="M517 387L720 415"/>
	<path pathLength="2999" clip-path="url(#z32102c10)" d="M452 259L488 224L529 50"/>
	<path pathLength="2999" clip-path="url(#z32102c11)" d="M514 252L743 280L773 241L719 137"/>
	<path pathLength="2999" clip-path="url(#z32102c12)" d="M549 97L775 112"/>
</g>
</svg>