<!--
AnimCJK 2016-2017 Copyright Francois Mizessyn, http://gooo.free.fr/animCJK/
Derived from:
    MakeMeAHanzi project - https://github.com/skishore/makemeahanzi
    Arphic PL KaitiM GB - https://apps.ubuntu.com/cat/applications/precise/fonts-arphic-gkai00mp/
    Arphic PL UKai - https://apps.ubuntu.com/cat/applications/fonts-arphic-ukai/
You can redistribute and/or modify this file under the terms of the Arphic Public License
as published by Arphic Technology Co., Ltd.
You should have received a copy of this license (the directory "APL") along with this file;
if not, see http://ftp.gnu.org/non-gnu/chinese-fonts-truetype/LICENSE.
-->
<svg id="z32113" class="acjk" version="1.1" viewBox="0 0 1024 1024" xmlns="http://www.w3.org/2000/svg" xmlns:xlink="http://www.w3.org/1999/xlink">
<style>
<![CDATA[
	@keyframes z32113k {
		from {
			stroke:#c00;
			stroke-dashoffset:3000;
		}
		75% {
			stroke:#c00;
			stroke-dashoffset:0;
		}
		to {
			stroke:#000;
		}
	}
	#z32113 path[clip-path] {
		animation:z32113k 1s linear both;
		stroke-dasharray:3000;
		stroke-width:128;
		stroke-linecap:round;
		fill:none;
	}
	#z32113 path[clip-path="url(#z32113c1)"] {animation-delay:1s;}
	#z32113 path[clip-path="url(#z32113c2)"] {animation-delay:2s;}
	#z32113 path[clip-path="url(#z32113c3)"] {animation-delay:3s;}
	#z32113 path[clip-path="url(#z32113c4)"] {animation-delay:4s;}
	#z32113 path[clip-path="url(#z32113c5)"] {animation-delay:5s;}
	#z32113 path[clip-path="url(#z32113c6)"] {animation-delay:6s;}
	#z32113 path[clip-path="url(#z32113c7)"] {animation-delay:7s;}
	#z32113 path[clip-path="url(#z32113c8)"] {animation-delay:8s;}
	#z32113 path[clip-path="url(#z32113c9)"] {animation-delay:9s;}
	#z32113 path[clip-path="url(#z32113c10)"] {animation-delay:10s;}
	#z32113 path[clip-path="url(#z32113c11)"] {animation-delay:11s;}
	#z32113 path[clip-path="url(#z32113c12)"] {animation-delay:12s;}
	#z32113 path {fill:#ccc;}
]]>
</style>
<g transform="scale(1,-1) translate(0,-900)">
	<path id="z32113d1" d="M293 506Q242 509 200 509Q166 510 184 531Q262 648 334 734Q350 750 347 759Q346 775 307 808Q291 823 271 820Q259 817 265 801Q284 750 165 569Q146 547 117 522Q96 507 98 495Q101 476 115 456Q125 444 139 451Q170 466 272 479Q273 480 275 479L293 506Z"/>
	<path id="z32113d2" d="M343 364Q291 354 232 334Q204 324 222 347Q264 408 364 531Q392 570 419 592Q432 602 425 612Q415 631 380 651Q364 660 353 657Q343 654 345 638Q348 599 293 506L275 479Q167 329 143 318Q128 308 132 294Q133 281 161 261Q171 248 187 262Q253 310 354 344L343 364Z"/>
	<path id="z32113d3" d="M354 344Q366 314 389 306Q402 302 412 317Q416 329 413 350Q407 369 386 383Q355 410 340 417Q333 421 328 410Q325 403 343 364L354 344Z"/>
	<path id="z32113d4" d="M89 144Q111 98 133 44Q140 26 156 20Q166 16 177 26Q187 38 193 70Q197 97 170 131Q104 203 85 203Q78 202 74 188Q73 176 89 144Z"/>
	<path id="z32113d5" d="M222 186Q235 164 249 138Q256 125 270 122Q277 121 285 129Q292 139 292 165Q292 181 273 197Q225 233 212 230Q208 229 206 218Q206 208 222 186Z"/>
	<path id="z32113d6" d="M327 226Q366 178 376 176Q383 175 389 185Q395 195 391 219Q390 232 370 245Q324 269 312 266Q308 265 307 254Q308 245 327 226Z"/>
	<path id="z32113d7" d="M593 767Q620 746 650 722Q665 710 681 712Q693 713 697 728Q700 744 688 774Q681 793 649 804Q571 822 560 815Q556 811 558 797Q562 787 593 767Z"/>
	<path id="z32113d8" d="M581 591Q791 643 795 646Q804 653 799 661Q792 671 766 678Q739 682 634 646Q477 616 472 614Q438 608 463 593Q496 575 539 582L581 591Z"/>
	<path id="z32113d9" d="M644 422Q678 434 726 446L711 467Q624 449 533 421Q523 417 519 419Q518 422 522 429Q598 528 614 544Q624 554 619 565Q613 575 581 591L539 582Q539 581 540 576Q558 525 477 435Q432 395 431 391Q425 381 461 353Q471 343 482 353Q521 386 617 413L644 422Z"/>
	<path id="z32113d10" d="M726 446Q756 406 768 403Q778 402 785 413Q792 426 789 454Q788 470 765 486Q711 519 696 515Q692 512 690 500Q691 490 711 467L726 446Z"/>
	<path id="z32113d11" d="M498 330Q505 203 316 56Q309 49 315 47Q339 38 419 93Q492 142 545 256Q555 275 567 292Q574 301 570 310Q564 320 537 336Q518 349 509 347Q497 344 498 330Z"/>
	<path id="z32113d12" d="M617 413Q617 409 620 401Q632 362 629 325Q616 127 632 73Q636 51 655 34Q718 -20 866 1Q879 4 895 7Q931 17 966 41Q987 57 972 85Q957 112 937 197Q937 213 929 218Q922 221 918 203Q893 112 875 83Q851 53 765 56Q732 57 707 67Q685 77 679 92Q646 155 685 373Q691 404 644 422L617 413Z"/>
	<defs>
		<clipPath id="z32113c1"><use xlink:href="#z32113d1"/></clipPath>
		<clipPath id="z32113c2"><use xlink:href="#z32113d2"/></clipPath>
		<clipPath id="z32113c3"><use xlink:href="#z32113d3"/></clipPath>
		<clipPath id="z32113c4"><use xlink:href="#z32113d4"/></clipPath>
		<clipPath id="z32113c5"><use xlink:href="#z32113d5"/></clipPath>
		<clipPath id="z32113c6"><use xlink:href="#z32113d6"/></clipPath>
		<clipPath id="z32113c7"><use xlink:href="#z32113d7"/></clipPath>
		<clipPath id="z32113c8"><use xlink:href="#z32113d8"/></clipPath>
		<clipPath id="z32113c9"><use xlink:href="#z32113d9"/></clipPath>
		<clipPath id="z32113c10"><use xlink:href="#z32113d10"/></clipPath>
		<clipPath id="z32113c11"><use xlink:href="#z32113d11"/></clipPath>
		<clipPath id="z32113c12"><use xlink:href="#z32113d12"/></clipPath>
	</defs>
	<path pathLength="2999" clip-path="url(#z32113c1)" d="M271 814L304 754L140 501L153 481L284 501"/>
	<path pathLength="2999" clip-path="url(#z32113c2)" d="M354 648L381 599L176 316L199 294L348 354"/>
	<path pathLength="2999" clip-path="url(#z32113c3)" d="M336 411L398 311"/>
	<path pathLength="2999" clip-path="url(#z32113c4)" d="M84 195L144 108L169 25"/>
	<path pathLength="2999" clip-path="url(#z32113c5)" d="M216 224L276 127"/>
	<path pathLength="2999" clip-path="url(#z32113c6)" d="M316 258L366 217L376 181"/>
	<path pathLength="2999" clip-path="url(#z32113c7)" d="M565 807L652 765L690 721"/>
	<path pathLength="2999" clip-path="url(#z32113c8)" d="M464 603L795 656"/>
	<path pathLength="2999" clip-path="url(#z32113c9)" d="M546 576L578 541L478 407L492 385L717 452"/>
	<path pathLength="2999" clip-path="url(#z32113c10)" d="M701 509L774 409"/>
	<path pathLength="2999" clip-path="url(#z32113c11)" d="M506 342L533 299L474 182L321 53"/>
	<path pathLength="2999" clip-path="url(#z32113c12)" d="M623 408L656 377L644 144L678 51L771 26L900 50L933 90L928 210"/>
</g>
</svg>