<!--
AnimCJK 2016-2019 Copyright Francois Mizessyn - https://github.com/parsimonhi/animCJK
Derived from:
    MakeMeAHanzi project - https://github.com/skishore/makemeahanzi
    Arphic PL KaitiM GB font
    Arphic PL UKai font
You can redistribute and/or modify this file under the terms of the Arphic Public License
as published by Arphic Technology Co., Ltd.
You should have received a copy of this license along with this file.
If not, see http://ftp.gnu.org/non-gnu/chinese-fonts-truetype/LICENSE.
-->
<svg id="z32118" class="acjk" version="1.1" viewBox="0 0 1024 1024" xmlns="http://www.w3.org/2000/svg" xmlns:xlink="http://www.w3.org/1999/xlink">
<style>
<![CDATA[
@keyframes zk {
	to {
		stroke-dashoffset:0;
	}
}
svg.acjk path[clip-path] {
	--t:0.8s;
	animation:zk var(--t) linear forwards var(--d);
	stroke-dasharray:3337;
	stroke-dashoffset:3339;
	stroke-width:128;
	stroke-linecap:round;
	fill:none;
	stroke:#000;
}
svg.acjk path[id] {fill:#ccc;}
]]>
</style>
<path id="z32118d1" d="M280 394Q232 391 192 391Q160 390 177 369Q251 252 319 166Q335 150 332 141Q331 125 294 92Q278 77 259 80Q248 83 254 99Q272 150 159 331Q141 353 113 378Q93 393 95 405Q98 424 111 444Q121 456 134 449Q164 434 260 421Q261 420 263 421C274 421 291 394 280 394Z"/>
<path id="z32118d2" d="M328 536Q278 546 222 566Q196 576 213 553Q253 492 348 369Q374 330 400 308Q412 298 406 288Q396 269 363 249Q348 240 337 243Q328 246 330 262Q333 301 280 394C269 412 269 412 263 421Q161 571 138 582Q124 592 127 606Q128 619 155 639Q164 652 180 638Q242 590 338 556C345 553 335 535 328 536Z"/>
<path id="z32118d3" d="M338 556Q350 586 372 594Q384 598 393 583Q397 571 394 550Q389 531 369 517Q339 490 325 483Q318 479 314 490Q311 497 328 536C335 549 335 549 338 556Z"/>
<path id="z32118d4" d="M87 756Q107 802 128 856Q135 874 150 880Q160 884 170 874Q180 862 185 830Q189 803 164 769Q101 697 83 697Q76 698 72 712Q71 724 87 756Z"/>
<path id="z32118d5" d="M213 714Q225 736 239 762Q245 775 259 778Q265 779 273 771Q279 761 279 735Q279 719 261 703Q216 667 203 670Q200 671 198 682Q198 692 213 714Z"/>
<path id="z32118d6" d="M313 674Q350 722 359 724Q366 725 372 715Q377 705 373 681Q373 668 354 655Q310 631 298 634Q295 635 294 646Q295 655 313 674Z"/>
<path id="z32118d7" d="M573 219Q606 167 626 147Q635 138 631 127Q627 115 603 96Q581 80 565 80Q549 81 556 100Q571 133 506 237Q476 285 434 338Q425 347 423 352Q420 361 432 359Q465 355 558 239C568 226 568 226 573 219Z"/>
<path id="z32118d8" d="M625 401Q644 379 690 319Q729 264 768 234Q786 222 773 209Q760 197 720 177Q704 171 689 182Q680 186 610 210Q594 214 573 219C565 220 550 236 558 239Q576 249 650 235Q662 229 668 233Q672 237 668 248Q634 339 611 382Q604 398 602 407C600 415 620 407 625 401Z"/>
<path id="z32118d9" d="M778 512Q803 449 831 432Q847 413 832 396Q816 383 765 360Q747 353 726 361Q674 383 625 401C610 405 610 405 602 407Q535 425 466 437C454 439 474 469 486 467Q492 466 503 461Q542 451 581 442C603 436 603 436 614 433Q659 420 703 410Q728 403 740 412Q747 419 745 434Q735 477 724 514C717 531 771 529 778 512Z"/>
<path id="z32118d10" d="M581 442Q584 451 586 552C586 565 621 555 624 542Q628 508 631 480Q638 456 632 449Q623 439 614 433C605 426 579 431 581 442Z"/>
<path id="z32118d11" d="M473 599Q491 605 504 602Q595 575 794 545Q804 544 805 535Q805 528 778 512C763 503 742 510 724 514Q670 529 624 542C599 549 599 549 586 552Q525 564 475 574C467 576 465 597 473 599Z"/>
<path id="z32118d12" d="M923 756Q907 728 885 641Q884 626 877 622Q871 619 868 636Q850 730 835 761Q819 785 767 798Q713 813 646 809Q589 806 543 786Q503 765 490 739Q469 700 473 599C474 582 474 582 475 574Q478 526 486 474Q486 470 486 467C486 455 476 443 466 437Q456 430 442 426Q429 422 421 427Q414 431 420 448Q433 487 432 524Q426 708 443 760Q450 791 479 817Q584 898 788 859Q803 855 820 851Q871 835 919 798Q938 782 923 756Z"/>
<defs>
	<clipPath id="z32118c1"><use xlink:href="#z32118d1"/></clipPath>
	<clipPath id="z32118c2"><use xlink:href="#z32118d2"/></clipPath>
	<clipPath id="z32118c3"><use xlink:href="#z32118d3"/></clipPath>
	<clipPath id="z32118c4"><use xlink:href="#z32118d4"/></clipPath>
	<clipPath id="z32118c5"><use xlink:href="#z32118d5"/></clipPath>
	<clipPath id="z32118c6"><use xlink:href="#z32118d6"/></clipPath>
	<clipPath id="z32118c7"><use xlink:href="#z32118d7"/></clipPath>
	<clipPath id="z32118c8"><use xlink:href="#z32118d8"/></clipPath>
	<clipPath id="z32118c9"><use xlink:href="#z32118d9"/></clipPath>
	<clipPath id="z32118c10"><use xlink:href="#z32118d10"/></clipPath>
	<clipPath id="z32118c11"><use xlink:href="#z32118d11"/></clipPath>
	<clipPath id="z32118c12"><use xlink:href="#z32118d12"/></clipPath>
</defs>
<path style="--d:1s;" pathLength="3333" clip-path="url(#z32118c1)" d="M261 87L292 145L134 396L147 418L272 401"/>
<path style="--d:2s;" pathLength="3333" clip-path="url(#z32118c2)" d="M337 252L363 303L170 585L191 606L331 548"/>
<path style="--d:3s;" pathLength="3333" clip-path="url(#z32118c3)" d="M322 492L375 591"/>
<path style="--d:4s;" pathLength="3333" clip-path="url(#z32118c4)" d="M83 702L142 798L156 876"/>
<path style="--d:5s;" pathLength="3333" clip-path="url(#z32118c5)" d="M207 675L262 773"/>
<path style="--d:6s;" pathLength="3333" clip-path="url(#z32118c6)" d="M303 642L362 717"/>
<path style="--d:7s;" pathLength="3333" clip-path="url(#z32118c7)" d="M561 84L593 137L431 352"/>
<path style="--d:8s;" pathLength="3333" clip-path="url(#z32118c8)" d="M567 236L685 205L724 226L609 402"/>
<path style="--d:9s;" pathLength="3333" clip-path="url(#z32118c9)" d="M477 442L748 384L792 417L754 502L732 508"/>
<path style="--d:10s;" pathLength="3333" clip-path="url(#z32118c10)" d="M612 438L598 548"/>
<path style="--d:11s;" pathLength="3333" clip-path="url(#z32118c11)" d="M478 594L799 534"/>
<path style="--d:12s;" pathLength="3333" clip-path="url(#z32118c12)" d="M425 433L457 475L465 746L530 814L672 841L824 814L886 760L875 629"/>
</svg>