<!--
AnimCJK 2016-2019 Copyright Francois Mizessyn - https://github.com/parsimonhi/animCJK
Derived from:
    MakeMeAHanzi project - https://github.com/skishore/makemeahanzi
    Arphic PL KaitiM GB font
    Arphic PL UKai font
You can redistribute and/or modify this file under the terms of the Arphic Public License
as published by Arphic Technology Co., Ltd.
You should have received a copy of this license along with this file.
If not, see http://ftp.gnu.org/non-gnu/chinese-fonts-truetype/LICENSE.
-->
<svg id="z32186" class="acjk" version="1.1" viewBox="0 0 1024 1024" xmlns="http://www.w3.org/2000/svg" xmlns:xlink="http://www.w3.org/1999/xlink">
<style>
<![CDATA[
@keyframes zk {
	to {
		stroke-dashoffset:0;
	}
}
svg.acjk path[clip-path] {
	--t:0.8s;
	animation:zk var(--t) linear forwards var(--d);
	stroke-dasharray:3337;
	stroke-dashoffset:3339;
	stroke-width:128;
	stroke-linecap:round;
	fill:none;
	stroke:#000;
}
svg.acjk path[id] {fill:#ccc;}
]]>
</style>
<path id="z32186d1" d="M327 337Q281 338 244 342Q213 343 228 324Q292 218 353 139Q366 123 364 114Q361 101 323 69Q307 56 288 60Q278 63 283 78Q299 117 218 270Q202 304 164 337Q145 352 148 364Q152 383 167 400Q177 410 190 403Q227 381 311 364C321 362 337 337 327 337Z"/>
<path id="z32186d2" d="M362 481Q317 490 263 509Q242 518 255 499Q294 442 386 329Q414 292 438 271Q450 261 444 251Q434 232 400 214Q384 205 375 208Q365 211 368 226Q369 259 327 337C316 355 316 355 311 364Q200 517 180 527Q167 537 171 550Q172 563 198 581Q210 593 223 580Q271 541 367 498C372 496 368 480 362 481Z"/>
<path id="z32186d3" d="M367 498Q374 513 380 522Q389 531 401 526Q410 520 415 507Q421 470 380 427Q371 417 364 415Q360 414 356 423Q352 429 362 481C365 492 365 492 367 498Z"/>
<path id="z32186d4" d="M122 707Q138 747 154 791Q160 809 174 815Q183 819 193 810Q203 800 209 771Q215 734 139 664Q127 654 121 653Q115 654 110 666Q109 678 122 707Z"/>
<path id="z32186d5" d="M237 658Q261 712 271 716Q278 717 286 711Q293 702 295 680Q296 667 281 651Q241 618 232 618Q228 619 225 628Q225 637 237 658Z"/>
<path id="z32186d6" d="M327 608Q342 633 356 664Q363 677 374 681Q381 682 390 675Q397 665 398 641Q399 625 380 605Q331 563 320 566Q316 567 313 577Q313 586 327 608Z"/>
<path id="z32186d7" d="M660 226Q816 187 819 186Q826 179 823 171Q816 161 790 154Q766 150 669 180C632 189 632 189 614 194Q571 201 528 206Q494 212 519 227Q555 246 605 237C642 230 642 230 660 226Z"/>
<path id="z32186d8" d="M605 237Q584 309 498 386Q486 396 498 397Q549 391 600 335Q630 302 660 226C666 195 666 195 669 180Q669 128 685 86Q692 68 676 62Q628 35 606 44Q594 48 601 62Q626 102 614 194C608 223 608 223 605 237Z"/>
<path id="z32186d9" d="M702 307Q730 340 763 354Q776 355 784 344Q788 332 785 318Q773 285 711 272Q696 269 689 273Q683 274 686 285Q687 295 702 307Z"/>
<path id="z32186d10" d="M767 435Q831 428 916 428Q974 428 980 418Q984 408 969 394Q917 358 881 366Q776 390 440 442Q419 445 435 461Q448 474 466 479Q487 483 502 479Q619 445 717 439C750 436 750 436 767 435Z"/>
<path id="z32186d11" d="M501 548Q491 544 466 540Q456 537 452 542Q448 548 455 562Q476 601 490 666Q494 685 505 698Q521 717 526 703Q529 696 529 683C527 664 527 664 526 654Q516 591 516 573C516 563 510 552 501 548Z"/>
<path id="z32186d12" d="M663 635Q678 589 694 575Q716 551 694 537Q676 527 651 510Q633 500 616 510Q586 528 501 548C491 550 507 576 516 573Q519 570 594 556Q616 552 621 561Q627 565 622 590Q618 609 613 631C610 647 657 651 663 635Z"/>
<path id="z32186d13" d="M529 683Q536 684 548 682Q588 673 674 665Q684 664 684 655Q684 648 663 635C649 626 629 628 613 631C612 631 612 631 612 631Q564 644 526 654C516 656 519 683 529 683Z"/>
<path id="z32186d14" d="M717 439Q718 445 725 455Q737 480 736 523Q739 611 741 812Q740 848 729 861Q717 868 687 860Q668 856 645 852Q632 848 633 856Q633 865 644 874Q705 925 742 965Q755 975 769 958Q814 903 806 819Q794 629 801 500Q808 472 801 461Q794 449 767 435C753 426 714 423 717 439Z"/>
<defs>
	<clipPath id="z32186c1"><use xlink:href="#z32186d1"/></clipPath>
	<clipPath id="z32186c2"><use xlink:href="#z32186d2"/></clipPath>
	<clipPath id="z32186c3"><use xlink:href="#z32186d3"/></clipPath>
	<clipPath id="z32186c4"><use xlink:href="#z32186d4"/></clipPath>
	<clipPath id="z32186c5"><use xlink:href="#z32186d5"/></clipPath>
	<clipPath id="z32186c6"><use xlink:href="#z32186d6"/></clipPath>
	<clipPath id="z32186c7"><use xlink:href="#z32186d7"/></clipPath>
	<clipPath id="z32186c8"><use xlink:href="#z32186d8"/></clipPath>
	<clipPath id="z32186c9"><use xlink:href="#z32186d9"/></clipPath>
	<clipPath id="z32186c10"><use xlink:href="#z32186d10"/></clipPath>
	<clipPath id="z32186c11"><use xlink:href="#z32186d11"/></clipPath>
	<clipPath id="z32186c12"><use xlink:href="#z32186d12"/></clipPath>
	<clipPath id="z32186c13"><use xlink:href="#z32186d13"/></clipPath>
	<clipPath id="z32186c14"><use xlink:href="#z32186d14"/></clipPath>
</defs>
<path style="--d:1s;" pathLength="3333" clip-path="url(#z32186c1)" d="M289 65L323 119L194 355L213 373L316 341"/>
<path style="--d:2s;" pathLength="3333" clip-path="url(#z32186c2)" d="M375 212L404 257L210 528L229 547L358 489"/>
<path style="--d:3s;" pathLength="3333" clip-path="url(#z32186c3)" d="M363 422L400 521"/>
<path style="--d:4s;" pathLength="3333" clip-path="url(#z32186c4)" d="M121 660L183 811"/>
<path style="--d:5s;" pathLength="3333" clip-path="url(#z32186c5)" d="M233 625L279 711"/>
<path style="--d:6s;" pathLength="3333" clip-path="url(#z32186c6)" d="M323 571L380 675"/>
<path style="--d:7s;" pathLength="3333" clip-path="url(#z32186c7)" d="M518 215L820 176"/>
<path style="--d:8s;" pathLength="3333" clip-path="url(#z32186c8)" d="M606 49L650 83L631 233L585 321L501 390"/>
<path style="--d:9s;" pathLength="3333" clip-path="url(#z32186c9)" d="M691 282L775 347"/>
<path style="--d:10s;" pathLength="3333" clip-path="url(#z32186c10)" d="M437 453L860 399L975 404"/>
<path style="--d:11s;" pathLength="3333" clip-path="url(#z32186c11)" d="M458 547L493 585L520 702"/>
<path style="--d:12s;" pathLength="3333" clip-path="url(#z32186c12)" d="M509 551L638 536L664 563L635 632"/>
<path style="--d:13s;" pathLength="3333" clip-path="url(#z32186c13)" d="M532 676L680 655"/>
<path style="--d:14s;" pathLength="3333" clip-path="url(#z32186c14)" d="M725 442L769 479L768 870L737 917L640 860"/>
</svg>