<!--
AnimCJK 2016-2018 Copyright Francois Mizessyn, https://github.com/parsimonhi/animCJK
Derived from:
    MakeMeAHanzi project - https://github.com/skishore/makemeahanzi
    Arphic PL KaitiM GB - https://apps.ubuntu.com/cat/applications/precise/fonts-arphic-gkai00mp/
    Arphic PL UKai - https://apps.ubuntu.com/cat/applications/fonts-arphic-ukai/
You can redistribute and/or modify this file under the terms of the Arphic Public License
as published by Arphic Technology Co., Ltd.
You should have received a copy of this license (the directory "APL") along with this file;
if not, see http://ftp.gnu.org/non-gnu/chinese-fonts-truetype/LICENSE.
-->
<svg id="z32187" class="acjk" version="1.1" viewBox="0 0 1024 1024" xmlns="http://www.w3.org/2000/svg" xmlns:xlink="http://www.w3.org/1999/xlink">
<style>
<![CDATA[
@keyframes z32187k {
	from {
		stroke:#c00;
		stroke-dashoffset:3334;
	}
	75% {
		stroke:#c00;
		stroke-dashoffset:0;
	}
	to {
		stroke:#000;
	}
}
#z32187 path[clip-path] {
	animation:z32187k 1s linear both;
	stroke-dasharray:3334;
	stroke-width:128;
	stroke-linecap:round;
	fill:none;
}
#z32187 path[clip-path="url(#z32187c1)"] {animation-delay:1s;}
#z32187 path[clip-path="url(#z32187c2)"] {animation-delay:2s;}
#z32187 path[clip-path="url(#z32187c3)"] {animation-delay:3s;}
#z32187 path[clip-path="url(#z32187c4)"] {animation-delay:4s;}
#z32187 path[clip-path="url(#z32187c5)"] {animation-delay:5s;}
#z32187 path[clip-path="url(#z32187c6)"] {animation-delay:6s;}
#z32187 path[clip-path="url(#z32187c7)"] {animation-delay:7s;}
#z32187 path[clip-path="url(#z32187c8)"] {animation-delay:8s;}
#z32187 path[clip-path="url(#z32187c9)"] {animation-delay:9s;}
#z32187 path[clip-path="url(#z32187c10)"] {animation-delay:10s;}
#z32187 path[clip-path="url(#z32187c11)"] {animation-delay:11s;}
#z32187 path[clip-path="url(#z32187c12)"] {animation-delay:12s;}
#z32187 path[clip-path="url(#z32187c13)"] {animation-delay:13s;}
#z32187 path[clip-path="url(#z32187c14)"] {animation-delay:14s;}
#z32187 path {fill:#ccc;}
]]>
</style>
<path id="z32187d1" d="M296 365Q256 366 223 368Q192 371 206 350Q261 247 315 170Q328 152 326 145Q322 132 282 102Q266 89 247 94Q237 98 243 113Q264 164 176 326Q161 345 142 366Q126 382 127 393Q133 412 148 429Q158 439 171 431Q213 401 279 392L296 365 Z"/>
<path id="z32187d2" d="M342 488Q296 500 243 523Q227 530 237 516Q273 462 359 354Q387 315 412 292Q424 282 417 271Q407 252 371 234Q355 224 345 228Q335 232 338 247Q339 278 296 365L279 392Q185 531 160 547Q147 557 151 571Q152 584 181 602Q193 614 206 600Q254 552 349 505L342 488 Z"/>
<path id="z32187d3" d="M349 505Q370 541 380 545Q390 549 400 537Q404 527 403 509Q394 476 343 444Q336 440 332 449Q328 455 332 464Q336 476 342 488L349 505 Z"/>
<path id="z32187d4" d="M106 711Q119 751 132 797Q136 813 149 821Q159 825 169 818Q181 808 188 780Q195 758 175 726Q121 657 109 658Q103 658 98 670Q95 680 106 711 Z"/>
<path id="z32187d5" d="M229 682Q241 698 253 720Q262 733 274 735Q283 736 289 727Q296 717 294 691Q291 670 234 642Q222 636 216 637Q212 640 210 650Q211 660 229 682 Z"/>
<path id="z32187d6" d="M321 627Q334 645 350 667Q360 680 374 681Q383 682 389 671Q395 659 391 632Q390 619 368 605Q314 578 304 581Q300 584 299 595Q300 605 321 627 Z"/>
<path id="z32187d7" d="M577 112Q604 134 633 162Q648 175 664 174Q676 174 681 159Q685 144 675 113Q669 94 637 79Q562 54 548 61Q542 65 545 79Q549 89 577 112 Z"/>
<path id="z32187d8" d="M491 273Q490 272 490 269Q480 250 469 243Q453 233 452 254Q458 275 446 296Q436 315 418 335Q405 353 429 398Q445 417 456 395Q466 376 475 347Q482 316 488 298L491 273 Z"/>
<path id="z32187d9" d="M488 298Q516 311 540 303Q615 267 762 238Q769 237 775 237Q791 246 786 255Q776 298 765 343L767 344Q776 347 791 333Q840 293 881 278Q915 265 914 256Q910 246 838 203Q813 185 704 218Q701 218 556 256Q523 266 491 273L488 298 Z"/>
<path id="z32187d10" d="M641 439Q690 426 744 415Q775 406 780 402Q787 395 783 387Q776 377 749 370Q724 366 635 397Q535 416 527 418Q494 424 518 439Q551 455 601 448L641 439 Z"/>
<path id="z32187d11" d="M653 689Q657 620 661 564L663 531Q669 465 665 459Q653 447 641 439L601 448Q610 478 611 666L653 689 Z"/>
<path id="z32187d12" d="M661 564Q682 567 776 551Q786 550 788 547Q797 540 792 531Q785 521 756 515Q720 509 675 529Q669 529 663 531L661 564 Z"/>
<path id="z32187d13" d="M532 616Q542 597 551 587Q558 577 549 562Q533 535 516 525Q503 513 487 514Q471 514 477 534Q492 594 405 729Q366 787 314 844Q307 850 307 856Q308 860 313 861Q358 852 450 740Q451 737 454 735Q493 683 519 639L532 616 Z"/>
<path id="z32187d14" d="M519 639Q750 837 807 844Q877 844 978 810Q997 804 998 799Q999 792 983 788Q926 775 862 764Q769 746 653 689L611 666Q589 650 532 616L519 639 Z"/>
<defs>
	<clipPath id="z32187c1"><use xlink:href="#z32187d1"/></clipPath>
	<clipPath id="z32187c2"><use xlink:href="#z32187d2"/></clipPath>
	<clipPath id="z32187c3"><use xlink:href="#z32187d3"/></clipPath>
	<clipPath id="z32187c4"><use xlink:href="#z32187d4"/></clipPath>
	<clipPath id="z32187c5"><use xlink:href="#z32187d5"/></clipPath>
	<clipPath id="z32187c6"><use xlink:href="#z32187d6"/></clipPath>
	<clipPath id="z32187c7"><use xlink:href="#z32187d7"/></clipPath>
	<clipPath id="z32187c8"><use xlink:href="#z32187d8"/></clipPath>
	<clipPath id="z32187c9"><use xlink:href="#z32187d9"/></clipPath>
	<clipPath id="z32187c10"><use xlink:href="#z32187d10"/></clipPath>
	<clipPath id="z32187c11"><use xlink:href="#z32187d11"/></clipPath>
	<clipPath id="z32187c12"><use xlink:href="#z32187d12"/></clipPath>
	<clipPath id="z32187c13"><use xlink:href="#z32187d13"/></clipPath>
	<clipPath id="z32187c14"><use xlink:href="#z32187d14"/></clipPath>
</defs>
<path pathLength="3333" clip-path="url(#z32187c1)" d="M247 103L285 152L168 379L185 401L288 371"/>
<path pathLength="3333" clip-path="url(#z32187c2)" d="M347 233L375 280L195 544L216 566L343 497"/>
<path pathLength="3333" clip-path="url(#z32187c3)" d="M338 451L390 542"/>
<path pathLength="3333" clip-path="url(#z32187c4)" d="M110 662L154 757L153 817"/>
<path pathLength="3333" clip-path="url(#z32187c5)" d="M218 645L276 729"/>
<path pathLength="3333" clip-path="url(#z32187c6)" d="M307 588L380 676"/>
<path pathLength="3333" clip-path="url(#z32187c7)" d="M552 71L637 119L669 168"/>
<path pathLength="3333" clip-path="url(#z32187c8)" d="M460 247L470 285L440 402"/>
<path pathLength="3333" clip-path="url(#z32187c9)" d="M491 292L791 218L860 264L773 339"/>
<path pathLength="3333" clip-path="url(#z32187c10)" d="M515 426L778 385"/>
<path pathLength="3333" clip-path="url(#z32187c11)" d="M607 451L636 481L641 682"/>
<path pathLength="3333" clip-path="url(#z32187c12)" d="M668 557L790 536"/>
<path pathLength="3333" clip-path="url(#z32187c13)" d="M484 522L516 575L480 652L314 856"/>
<path pathLength="3333" clip-path="url(#z32187c14)" d="M533 623L793 793L989 798"/>
</svg>