<!--
AnimCJK 2016-2019 Copyright Francois Mizessyn - https://github.com/parsimonhi/animCJK
Derived from:
    MakeMeAHanzi project - https://github.com/skishore/makemeahanzi
    Arphic PL KaitiM GB font
    Arphic PL UKai font
You can redistribute and/or modify this file under the terms of the Arphic Public License
as published by Arphic Technology Co., Ltd.
You should have received a copy of this license along with this file.
If not, see http://ftp.gnu.org/non-gnu/chinese-fonts-truetype/LICENSE.
-->
<svg id="z32203" class="acjk" version="1.1" viewBox="0 0 1024 1024" xmlns="http://www.w3.org/2000/svg" xmlns:xlink="http://www.w3.org/1999/xlink">
<style>
<![CDATA[
@keyframes zk {
	to {
		stroke-dashoffset:0;
	}
}
svg.acjk path[clip-path] {
	--t:0.8s;
	animation:zk var(--t) linear forwards var(--d);
	stroke-dasharray:3337;
	stroke-dashoffset:3339;
	stroke-width:128;
	stroke-linecap:round;
	fill:none;
	stroke:#000;
}
svg.acjk path[id] {fill:#ccc;}
]]>
</style>
<path id="z32203d1" d="M288 395Q242 395 205 393Q171 394 189 372Q256 260 320 175Q335 159 332 150Q329 137 291 105Q275 92 256 95Q246 99 251 114Q269 153 167 338Q149 360 124 385Q105 398 107 411Q111 430 125 447Q135 459 148 451Q193 427 272 418C281 416 297 395 288 395Z"/>
<path id="z32203d2" d="M344 522Q298 529 246 545Q215 555 235 531Q269 482 351 381Q378 344 402 322Q415 312 408 303Q398 284 364 266Q348 257 339 260Q329 264 332 279Q335 315 288 395C277 410 277 410 272 418Q185 547 159 559Q146 568 148 582Q149 595 176 614Q186 626 201 613Q255 574 352 540C358 538 350 521 344 522Z"/>
<path id="z32203d3" d="M352 540Q364 564 379 570Q389 574 400 561Q404 551 402 531Q398 515 381 502Q356 478 343 472Q336 468 332 478Q328 484 332 493Q336 506 344 522C349 534 349 534 352 540Z"/>
<path id="z32203d4" d="M121 759Q140 799 161 846Q168 862 182 868Q192 872 201 862Q211 852 215 822Q219 798 194 768Q134 705 117 705Q111 706 107 719Q106 729 121 759Z"/>
<path id="z32203d5" d="M229 708Q266 768 275 770Q282 771 289 763Q296 753 296 729Q296 707 236 671Q226 665 220 666Q216 667 214 677Q214 687 229 708Z"/>
<path id="z32203d6" d="M299 648Q335 714 356 720Q366 723 375 709Q378 699 373 680Q367 664 348 653Q320 632 307 627Q300 624 297 633Q294 640 299 648Z"/>
<path id="z32203d7" d="M599 586C615 493 612 421 611 246C610 233 608 223 595 218C563 204 542 200 533 202C521 204 520 212 531 227C548 250 560 307 562 356C563 379 563 379 563 390C563 410 564 455 564 474C563 497 563 497 563 508C562 522 560 565 548 607C538 641 538 641 533 658C520 699 472 781 409 850C400 859 394 864 394 869C392 873 396 875 404 875C432 872 467 840 515 782C545 745 585 665 593 620C597 597 597 597 599 586Z"/>
<path id="z32203d8" d="M561 355C553 353 526 358 480 370C465 373 449 375 434 378C413 381 411 388 426 396C448 408 474 409 505 402C522 397 542 394 563 390C575 388 573 355 561 355Z"/>
<path id="z32203d9" d="M564 474C550 472 523 480 478 494C462 498 445 501 428 505C409 509 406 517 421 524C444 535 474 533 508 523C526 517 544 512 563 508C574 506 575 474 564 474Z"/>
<path id="z32203d10" d="M593 620C615 606 630 594 638 588C644 582 649 578 648 573C646 569 640 569 633 572C622 575 611 581 599 586C565 600 565 600 548 607C469 639 420 650 409 652C401 653 397 656 397 663C396 671 398 677 405 681C418 689 435 696 456 704C462 706 469 702 475 697C494 678 525 663 533 658C573 633 573 633 593 620Z"/>
<path id="z32203d11" d="M745 612C743 568 745 524 745 480C745 462 745 462 745 453C745 413 745 373 745 333C745 311 745 311 745 300C745 249 748 206 760 172C763 160 769 151 766 143C762 135 739 122 702 99C685 88 670 88 657 99C654 101 652 109 659 120C675 147 693 189 695 251C703 504 700 664 692 730C689 752 683 774 678 796C671 824 677 857 695 898C700 909 705 915 710 919C715 922 718 922 724 918C741 902 750 875 749 835C748 815 749 752 746 646C745 623 745 623 745 612Z"/>
<path id="z32203d12" d="M745 333C767 335 811 329 877 313C885 311 894 310 902 305C908 300 907 293 904 288C899 280 886 275 866 272C855 270 825 278 774 293C764 295 754 296 745 300C735 303 734 333 745 333Z"/>
<path id="z32203d13" d="M745 480C775 486 800 484 824 479C869 467 894 463 896 462C900 457 902 452 899 447C894 440 883 434 865 431C855 428 826 435 780 448C769 450 757 451 745 453C736 454 736 478 745 480Z"/>
<path id="z32203d14" d="M746 646C772 646 805 641 848 637C877 633 907 633 935 631C943 630 948 628 949 624C949 617 944 606 930 597C906 581 874 583 837 596C820 601 805 604 791 606C775 607 759 608 745 612C734 614 735 646 746 646Z"/>
<defs>
	<clipPath id="z32203c1"><use xlink:href="#z32203d1"/></clipPath>
	<clipPath id="z32203c2"><use xlink:href="#z32203d2"/></clipPath>
	<clipPath id="z32203c3"><use xlink:href="#z32203d3"/></clipPath>
	<clipPath id="z32203c4"><use xlink:href="#z32203d4"/></clipPath>
	<clipPath id="z32203c5"><use xlink:href="#z32203d5"/></clipPath>
	<clipPath id="z32203c6"><use xlink:href="#z32203d6"/></clipPath>
	<clipPath id="z32203c7"><use xlink:href="#z32203d7"/></clipPath>
	<clipPath id="z32203c8"><use xlink:href="#z32203d8"/></clipPath>
	<clipPath id="z32203c9"><use xlink:href="#z32203d9"/></clipPath>
	<clipPath id="z32203c10"><use xlink:href="#z32203d10"/></clipPath>
	<clipPath id="z32203c11"><use xlink:href="#z32203d11"/></clipPath>
	<clipPath id="z32203c12"><use xlink:href="#z32203d12"/></clipPath>
	<clipPath id="z32203c13"><use xlink:href="#z32203d13"/></clipPath>
	<clipPath id="z32203c14"><use xlink:href="#z32203d14"/></clipPath>
</defs>
<path style="--d:1s;" pathLength="3333" clip-path="url(#z32203c1)" d="M259 102L289 158L145 397L164 420L278 399"/>
<path style="--d:2s;" pathLength="3333" clip-path="url(#z32203c2)" d="M341 263L366 316L188 564L209 581L343 535"/>
<path style="--d:3s;" pathLength="3333" clip-path="url(#z32203c3)" d="M338 478L393 564"/>
<path style="--d:4s;" pathLength="3333" clip-path="url(#z32203c4)" d="M118 711L183 814L183 864"/>
<path style="--d:5s;" pathLength="3333" clip-path="url(#z32203c5)" d="M223 676L281 765"/>
<path style="--d:6s;" pathLength="3333" clip-path="url(#z32203c6)" d="M305 632L367 714"/>
<path style="--d:7s;" pathLength="3333" clip-path="url(#z32203c7)" d="M531 209L576 243L583 289L572 601L519 740L401 869"/>
<path style="--d:8s;" pathLength="3333" clip-path="url(#z32203c8)" d="M424 386L562 373"/>
<path style="--d:9s;" pathLength="3333" clip-path="url(#z32203c9)" d="M422 515L561 495"/>
<path style="--d:10s;" pathLength="3333" clip-path="url(#z32203c10)" d="M403 663L462 670L639 579"/>
<path style="--d:11s;" pathLength="3333" clip-path="url(#z32203c11)" d="M661 100L724 160L715 916"/>
<path style="--d:12s;" pathLength="3333" clip-path="url(#z32203c12)" d="M752 325L901 295"/>
<path style="--d:13s;" pathLength="3333" clip-path="url(#z32203c13)" d="M753 474L895 449"/>
<path style="--d:14s;" pathLength="3333" clip-path="url(#z32203c14)" d="M756 638L866 612L943 619"/>
</svg>