<!--
AnimCJK 2016-2026 Copyright FM-SH, https://github.com/parsimonhi/animCJK
Derived from:
    MakeMeAHanzi project - https://github.com/skishore/makemeahanzi
    Arphic PL KaitiM GB font
    Arphic PL KaitiM Big5 font
You can redistribute and/or modify this file under the terms of the Arphic Public License
as published by Arphic Technology Co., Ltd.
You should have received a copy of this license along with this file.
If not, see https://ftp.gnu.org/non-gnu/chinese-fonts-truetype/LICENSE.
-->
<svg id="z32267" class="acjk" viewBox="0 0 1024 1024" xmlns="http://www.w3.org/2000/svg">
<style>
<![CDATA[
@keyframes zk {
	to {
		stroke-dashoffset:0;
	}
}
svg.acjk path[clip-path] {
	--t:0.8s;
	animation:zk var(--t) linear forwards var(--d);
	stroke-dasharray:3337;
	stroke-dashoffset:3339;
	stroke-width:128;
	stroke-linecap:round;
	fill:none;
	stroke:#000;
}
svg.acjk path[id] {fill:#ccc;}
]]>
</style>
<path id="z32267d1" d="M205 380C182 380 178 375 188 360C232 290 272 227 313 175C321 164 325 155 324 150C322 141 308 126 283 105C272 96 260 92 248 96C241 97 239 104 243 114C253 140 231 203 178 306C166 328 149 351 124 373C111 383 105 391 107 399C109 411 115 424 126 436C132 443 139 442 149 439C195 420 221 410 266 406C276 404 295 380 284 380C231 380 231 380 205 380Z"/>
<path id="z32267d2" d="M325 505C298 509 270 517 241 529C226 535 221 530 232 518C298 436 381 325 408 302C416 294 418 288 414 281C405 267 390 253 367 241C354 234 345 231 339 234C332 236 329 243 331 255C333 280 315 334 284 380C272 397 272 397 266 406C206 492 166 539 150 550C140 555 138 564 140 575C141 583 151 593 170 608C179 615 186 616 197 607C224 580 270 553 334 524C341 521 332 504 325 505Z"/>
<path id="z32267d3" d="M334 524C341 540 350 550 360 554C366 556 374 554 380 545C383 538 384 528 382 517C376 494 356 477 327 464C322 461 318 463 316 469C314 473 315 485 325 505C331 518 331 518 334 524Z"/>
<path id="z32267d4" d="M95 725C106 757 119 793 130 832C133 843 138 853 148 858C154 861 161 859 169 854C177 847 183 834 189 814C195 786 170 742 115 682C107 674 102 669 97 669C92 669 87 673 85 682C83 689 87 704 95 725Z"/>
<path id="z32267d5" d="M219 691C228 707 236 726 246 747C250 755 256 762 265 765C270 766 276 763 281 759C287 752 290 740 291 723C291 712 286 699 273 687C241 656 220 643 212 646C209 646 206 650 205 658C204 663 210 674 219 691Z"/>
<path id="z32267d6" d="M319 652C338 688 349 710 358 713C363 714 369 712 374 707C379 700 381 688 382 673C382 664 378 653 366 643C336 619 317 609 312 610C309 610 306 614 305 621C304 626 310 636 319 652Z"/>
<path id="z32267d7" d="M685 332C755 249 780 215 809 193C821 183 822 173 812 164C801 155 786 148 767 144C749 139 736 139 729 143C721 146 720 150 725 160C722 229 697 266 667 331C665 337 681 337 685 332Z"/>
<path id="z32267d8" d="M683 539C683 519 682 498 682 477C682 457 682 457 682 447C681 405 682 376 684 362C686 350 676 338 667 331C654 321 640 314 626 310C620 309 615 311 611 317C609 319 610 324 616 332C648 408 652 509 629 635C621 669 618 692 621 704C627 724 634 739 641 747C647 755 654 754 661 746C671 734 676 718 677 700C680 675 680 675 682 663C682 654 682 622 683 567C683 548 683 548 683 539Z"/>
<path id="z32267d9" d="M851 418C863 386 879 366 894 354C905 344 905 332 895 323C885 314 865 303 835 291C812 281 762 323 685 332C679 332 667 331 667 331C655 331 672 364 684 362C702 358 732 351 794 334C815 328 815 341 814 356C813 370 810 389 804 415C801 430 845 433 851 418Z"/>
<path id="z32267d10" d="M682 477C702 478 718 464 864 449C891 441 879 427 851 418C836 412 819 412 804 415C761 426 717 439 682 447C672 449 672 477 682 477Z"/>
<path id="z32267d11" d="M867 638C881 604 898 582 915 569C926 559 927 545 917 536C874 498 853 488 799 509C765 521 733 528 683 539C674 541 674 569 683 567C685 567 721 561 811 545C830 541 836 552 834 568C829 590 824 612 818 633C813 649 861 653 867 638Z"/>
<path id="z32267d12" d="M677 700C696 704 714 690 884 679C919 670 896 653 867 638C853 630 834 630 818 633C772 641 721 655 682 663C670 665 665 698 677 700Z"/>
<path id="z32267d13" d="M527 195C540 207 552 221 566 237C573 245 583 250 593 250C599 250 605 245 609 237C612 228 611 214 607 195C604 184 595 173 578 166C540 149 514 142 504 147C500 148 498 155 500 163C500 169 511 180 527 195Z"/>
<path id="z32267d14" d="M497 329C510 341 522 355 536 371C543 379 553 384 563 384C569 384 575 379 579 371C582 362 581 348 577 329C574 318 565 307 548 300C510 283 484 276 474 281C470 282 468 289 470 297C470 303 481 314 497 329Z"/>
<path id="z32267d15" d="M494 581C493 595 497 608 504 621C523 659 537 715 530 746C529 753 546 753 551 748C559 743 566 729 569 718C575 694 565 657 543 618C527 589 543 538 589 494C600 482 601 474 592 465C580 455 564 446 546 437C534 431 520 438 495 451C452 472 427 479 423 479C410 478 414 487 420 491C438 502 464 495 503 485C526 478 522 519 515 528C503 541 494 565 494 581Z"/>
<path id="z32267d16" d="M530 746C499 746 479 746 451 756C436 760 417 763 393 765C389 765 386 768 384 774C382 778 383 784 389 790C399 800 413 809 429 817C435 820 445 818 457 809C497 773 545 772 616 807C637 817 660 827 690 844C800 903 852 924 898 910C923 901 941 885 974 864C987 855 987 849 974 849C855 841 811 833 782 827C729 814 694 799 618 767C595 757 576 753 551 748C544 746 537 745 530 746Z"/>
<defs>
	<clipPath id="z32267c1"><use href="#z32267d1"/></clipPath>
	<clipPath id="z32267c2"><use href="#z32267d2"/></clipPath>
	<clipPath id="z32267c3"><use href="#z32267d3"/></clipPath>
	<clipPath id="z32267c4"><use href="#z32267d4"/></clipPath>
	<clipPath id="z32267c5"><use href="#z32267d5"/></clipPath>
	<clipPath id="z32267c6"><use href="#z32267d6"/></clipPath>
	<clipPath id="z32267c7"><use href="#z32267d7"/></clipPath>
	<clipPath id="z32267c8"><use href="#z32267d8"/></clipPath>
	<clipPath id="z32267c9"><use href="#z32267d9"/></clipPath>
	<clipPath id="z32267c10"><use href="#z32267d10"/></clipPath>
	<clipPath id="z32267c11"><use href="#z32267d11"/></clipPath>
	<clipPath id="z32267c12"><use href="#z32267d12"/></clipPath>
	<clipPath id="z32267c13"><use href="#z32267d13"/></clipPath>
	<clipPath id="z32267c14"><use href="#z32267d14"/></clipPath>
	<clipPath id="z32267c15"><use href="#z32267d15"/></clipPath>
	<clipPath id="z32267c16"><use href="#z32267d16"/></clipPath>
</defs>
<path style="--d:1s;" pathLength="3333" clip-path="url(#z32267c1)" d="M249 98L282 154L148 386L160 409L282 389"/>
<path style="--d:2s;" pathLength="3333" clip-path="url(#z32267c2)" d="M339 240L369 292L191 542L217 570L329 514"/>
<path style="--d:3s;" pathLength="3333" clip-path="url(#z32267c3)" d="M323 469L366 550"/>
<path style="--d:4s;" pathLength="3333" clip-path="url(#z32267c4)" d="M97 672L149 780L152 855"/>
<path style="--d:5s;" pathLength="3333" clip-path="url(#z32267c5)" d="M215 653L274 761"/>
<path style="--d:6s;" pathLength="3333" clip-path="url(#z32267c6)" d="M314 621L365 708"/>
<path style="--d:7s;" pathLength="3333" clip-path="url(#z32267c7)" d="M728 152L769 192L676 330"/>
<path style="--d:8s;" pathLength="3333" clip-path="url(#z32267c8)" d="M616 317L659 391L649 746"/>
<path style="--d:9s;" pathLength="3333" clip-path="url(#z32267c9)" d="M670 336L837 320L858 343L822 426"/>
<path style="--d:10s;" pathLength="3333" clip-path="url(#z32267c10)" d="M678 465L871 436"/>
<path style="--d:11s;" pathLength="3333" clip-path="url(#z32267c11)" d="M678 555L851 526L878 560L834 645"/>
<path style="--d:12s;" pathLength="3333" clip-path="url(#z32267c12)" d="M675 689L894 661"/>
<path style="--d:13s;" pathLength="3333" clip-path="url(#z32267c13)" d="M506 151L570 195L590 247"/>
<path style="--d:14s;" pathLength="3333" clip-path="url(#z32267c14)" d="M476 285L540 329L560 381"/>
<path style="--d:15s;" pathLength="3333" clip-path="url(#z32267c15)" d="M423 486L526 461L557 482L515 585L549 696L541 747"/>
<path style="--d:16s;" pathLength="3333" clip-path="url(#z32267c16)" d="M389 777L563 768L841 874L975 856"/>
</svg>