<!--
AnimCJK 2016-2018 Copyright Francois Mizessyn, https://github.com/parsimonhi/animCJK
Derived from:
    MakeMeAHanzi project - https://github.com/skishore/makemeahanzi
    Arphic PL KaitiM GB - https://apps.ubuntu.com/cat/applications/precise/fonts-arphic-gkai00mp/
    Arphic PL UKai - https://apps.ubuntu.com/cat/applications/fonts-arphic-ukai/
You can redistribute and/or modify this file under the terms of the Arphic Public License
as published by Arphic Technology Co., Ltd.
You should have received a copy of this license (the directory "APL") along with this file;
if not, see http://ftp.gnu.org/non-gnu/chinese-fonts-truetype/LICENSE.
-->
<svg id="z32294" class="acjk" version="1.1" viewBox="0 0 1024 1024" xmlns="http://www.w3.org/2000/svg" xmlns:xlink="http://www.w3.org/1999/xlink">
<style>
<![CDATA[
@keyframes z32294k {
	from {
		stroke:#c00;
		stroke-dashoffset:3334;
	}
	75% {
		stroke:#c00;
		stroke-dashoffset:0;
	}
	to {
		stroke:#000;
	}
}
#z32294 path[clip-path] {
	animation:z32294k 1s linear both;
	stroke-dasharray:3334;
	stroke-width:128;
	stroke-linecap:round;
	fill:none;
}
#z32294 path[clip-path="url(#z32294c1)"] {animation-delay:1s;}
#z32294 path[clip-path="url(#z32294c2)"] {animation-delay:2s;}
#z32294 path[clip-path="url(#z32294c3)"] {animation-delay:3s;}
#z32294 path[clip-path="url(#z32294c4)"] {animation-delay:4s;}
#z32294 path[clip-path="url(#z32294c5)"] {animation-delay:5s;}
#z32294 path[clip-path="url(#z32294c6)"] {animation-delay:6s;}
#z32294 path[clip-path="url(#z32294c7)"] {animation-delay:7s;}
#z32294 path[clip-path="url(#z32294c8)"] {animation-delay:8s;}
#z32294 path[clip-path="url(#z32294c9)"] {animation-delay:9s;}
#z32294 path[clip-path="url(#z32294c10)"] {animation-delay:10s;}
#z32294 path[clip-path="url(#z32294c11)"] {animation-delay:11s;}
#z32294 path[clip-path="url(#z32294c12)"] {animation-delay:12s;}
#z32294 path[clip-path="url(#z32294c13)"] {animation-delay:13s;}
#z32294 path[clip-path="url(#z32294c14)"] {animation-delay:14s;}
#z32294 path[clip-path="url(#z32294c15)"] {animation-delay:15s;}
#z32294 path[clip-path="url(#z32294c16)"] {animation-delay:16s;}
#z32294 path {fill:#ccc;}
]]>
</style>
<path id="z32294d1" d="M238 400Q195 406 161 412Q136 415 147 397Q201 291 255 210Q267 194 264 186Q261 173 223 147Q207 137 191 140Q181 144 187 158Q206 200 122 372Q109 391 88 413Q72 428 75 438Q81 456 95 471Q105 480 117 472Q139 456 219 429Q220 428 224 428L238 400 Z"/>
<path id="z32294d2" d="M274 539Q231 551 185 570Q164 580 176 561Q209 509 286 402Q310 366 331 346Q341 336 335 327Q325 311 293 296Q278 289 270 292Q261 295 264 309Q267 333 238 400L224 428Q221 431 220 435Q133 576 109 590Q97 600 101 612Q104 624 128 639Q138 649 151 636Q214 582 280 556L274 539 Z"/>
<path id="z32294d3" d="M280 556Q286 574 297 579Q306 585 317 575Q323 566 323 548Q320 515 278 486Q272 482 267 489Q263 492 274 539L280 556 Z"/>
<path id="z32294d4" d="M72 750Q82 789 93 833Q96 849 108 856Q115 860 126 854Q136 847 145 820Q152 801 135 769Q92 706 77 702Q71 702 66 712Q63 722 72 750 Z"/>
<path id="z32294d5" d="M172 710Q202 761 212 765Q219 766 226 759Q232 749 232 727Q232 708 179 675Q169 669 164 670Q160 671 158 681Q158 688 172 710 Z"/>
<path id="z32294d6" d="M266 647Q293 705 313 711Q323 714 331 701Q334 692 331 675Q322 648 274 627Q267 624 264 633Q263 639 266 647 Z"/>
<path id="z32294d7" d="M440 139Q452 163 410 252Q389 292 359 337Q352 344 351 350Q350 357 359 355Q395 349 482 208Q492 186 504 175Q510 168 506 157Q502 148 481 133Q460 120 446 122Q433 123 440 139 Z"/>
<path id="z32294d8" d="M431 484Q447 459 466 428Q479 403 491 390Q497 383 493 372Q490 363 469 349Q450 337 436 338Q423 339 429 355Q439 371 433 386Q409 465 331 578Q324 585 323 590Q322 597 331 596Q352 593 408 516L431 484 Z"/>
<path id="z32294d9" d="M408 516Q421 579 422 592Q410 736 399 784Q380 856 416 894Q432 907 442 884Q455 850 454 809Q461 601 469 555Q476 531 467 522Q451 504 440 492Q436 488 431 484L408 516 Z"/>
<path id="z32294d10" d="M547 256Q573 288 601 325Q613 340 629 344Q640 346 645 334Q652 320 644 288Q641 266 609 243Q539 196 523 199Q519 202 519 216Q521 227 547 256 Z"/>
<path id="z32294d11" d="M765 189Q756 213 695 335Q688 357 704 347Q746 304 815 224Q832 199 855 181Q875 163 862 147Q845 133 817 127Q790 120 778 127Q765 134 772 146Q778 165 765 189 Z"/>
<path id="z32294d12" d="M682 424Q729 416 800 421Q832 425 836 416Q838 407 828 394Q797 360 779 366Q718 383 529 416Q518 416 527 432Q536 444 545 449Q557 455 565 451Q606 434 655 427L682 424 Z"/>
<path id="z32294d13" d="M697 713L655 694C654 632 654 585 654 552C651 496 646 457 638 437C636 435 636 433 636 431C639 430 642 430 645 429L667 426C679 433 692 443 705 455C711 462 711 471 707 481C705 493 705 505 705 517L704 548C701 598 699 653 697 713 Z"/>
<path id="z32294d14" d="M704 548Q707 547 711 547Q772 537 819 530Q844 526 834 512Q821 497 795 494Q744 491 705 517L704 548 Z"/>
<path id="z32294d15" d="M565 646Q571 616 595 560Q599 548 586 539Q546 521 526 529Q517 533 522 544Q552 619 489 732Q473 759 466 774Q463 787 474 781Q516 762 558 665L565 646 Z"/>
<path id="z32294d16" d="M558 665Q588 695 785 827Q809 837 842 834Q909 824 976 795Q994 789 994 784Q995 777 979 775Q930 768 875 762Q811 755 761 736Q730 726 697 713L655 694Q645 690 636 684Q584 654 565 646L558 665 Z"/>
<defs>
	<clipPath id="z32294c1"><use xlink:href="#z32294d1"/></clipPath>
	<clipPath id="z32294c2"><use xlink:href="#z32294d2"/></clipPath>
	<clipPath id="z32294c3"><use xlink:href="#z32294d3"/></clipPath>
	<clipPath id="z32294c4"><use xlink:href="#z32294d4"/></clipPath>
	<clipPath id="z32294c5"><use xlink:href="#z32294d5"/></clipPath>
	<clipPath id="z32294c6"><use xlink:href="#z32294d6"/></clipPath>
	<clipPath id="z32294c7"><use xlink:href="#z32294d7"/></clipPath>
	<clipPath id="z32294c8"><use xlink:href="#z32294d8"/></clipPath>
	<clipPath id="z32294c9"><use xlink:href="#z32294d9"/></clipPath>
	<clipPath id="z32294c10"><use xlink:href="#z32294d10"/></clipPath>
	<clipPath id="z32294c11"><use xlink:href="#z32294d11"/></clipPath>
	<clipPath id="z32294c12"><use xlink:href="#z32294d12"/></clipPath>
	<clipPath id="z32294c13"><use xlink:href="#z32294d13"/></clipPath>
	<clipPath id="z32294c14"><use xlink:href="#z32294d14"/></clipPath>
	<clipPath id="z32294c15"><use xlink:href="#z32294d15"/></clipPath>
	<clipPath id="z32294c16"><use xlink:href="#z32294d16"/></clipPath>
</defs>
<path pathLength="3333" clip-path="url(#z32294c1)" d="M192 144L226 194L112 427L128 444L228 406"/>
<path pathLength="3333" clip-path="url(#z32294c2)" d="M271 297L298 338L140 592L160 607L275 547"/>
<path pathLength="3333" clip-path="url(#z32294c3)" d="M273 490L308 575"/>
<path pathLength="3333" clip-path="url(#z32294c4)" d="M75 709L119 851"/>
<path pathLength="3333" clip-path="url(#z32294c5)" d="M167 678L220 757"/>
<path pathLength="3333" clip-path="url(#z32294c6)" d="M271 634L318 705"/>
<path pathLength="3333" clip-path="url(#z32294c7)" d="M448 131L473 173L359 346"/>
<path pathLength="3333" clip-path="url(#z32294c8)" d="M437 346L461 390L331 590"/>
<path pathLength="3333" clip-path="url(#z32294c9)" d="M429 493L444 588L425 895"/>
<path pathLength="3333" clip-path="url(#z32294c10)" d="M528 203L634 338"/>
<path pathLength="3333" clip-path="url(#z32294c11)" d="M777 135L817 172L701 341"/>
<path pathLength="3333" clip-path="url(#z32294c12)" d="M530 422L784 392L832 408"/>
<path pathLength="3333" clip-path="url(#z32294c13)" d="M644 436L678 472L682 706"/>
<path pathLength="3333" clip-path="url(#z32294c14)" d="M712 539L830 518"/>
<path pathLength="3333" clip-path="url(#z32294c15)" d="M527 538L563 572L531 682L473 777"/>
<path pathLength="3333" clip-path="url(#z32294c16)" d="M568 655L800 790L986 783"/>
</svg>