<!--
AnimCJK 2016-2017 Copyright Francois Mizessyn, http://gooo.free.fr/animCJK/
Derived from:
    MakeMeAHanzi project - https://github.com/skishore/makemeahanzi
    Arphic PL KaitiM GB - https://apps.ubuntu.com/cat/applications/precise/fonts-arphic-gkai00mp/
    Arphic PL UKai - https://apps.ubuntu.com/cat/applications/fonts-arphic-ukai/
You can redistribute and/or modify this file under the terms of the Arphic Public License
as published by Arphic Technology Co., Ltd.
You should have received a copy of this license (the directory "APL") along with this file;
if not, see http://ftp.gnu.org/non-gnu/chinese-fonts-truetype/LICENSE.
-->
<svg id="z32294" class="acjk" version="1.1" viewBox="0 0 1024 1024" xmlns="http://www.w3.org/2000/svg" xmlns:xlink="http://www.w3.org/1999/xlink">
<style>
<![CDATA[
	@keyframes z32294k {
		from {
			stroke:#c00;
			stroke-dashoffset:3000;
		}
		75% {
			stroke:#c00;
			stroke-dashoffset:0;
		}
		to {
			stroke:#000;
		}
	}
	#z32294 path[clip-path] {
		animation:z32294k 1s linear both;
		stroke-dasharray:3000;
		stroke-width:128;
		stroke-linecap:round;
		fill:none;
	}
	#z32294 path[clip-path="url(#z32294c1)"] {animation-delay:1s;}
	#z32294 path[clip-path="url(#z32294c2)"] {animation-delay:2s;}
	#z32294 path[clip-path="url(#z32294c3)"] {animation-delay:3s;}
	#z32294 path[clip-path="url(#z32294c4)"] {animation-delay:4s;}
	#z32294 path[clip-path="url(#z32294c5)"] {animation-delay:5s;}
	#z32294 path[clip-path="url(#z32294c6)"] {animation-delay:6s;}
	#z32294 path[clip-path="url(#z32294c7)"] {animation-delay:7s;}
	#z32294 path[clip-path="url(#z32294c8)"] {animation-delay:8s;}
	#z32294 path[clip-path="url(#z32294c9)"] {animation-delay:9s;}
	#z32294 path[clip-path="url(#z32294c10)"] {animation-delay:10s;}
	#z32294 path[clip-path="url(#z32294c11)"] {animation-delay:11s;}
	#z32294 path[clip-path="url(#z32294c12)"] {animation-delay:12s;}
	#z32294 path[clip-path="url(#z32294c13)"] {animation-delay:13s;}
	#z32294 path[clip-path="url(#z32294c14)"] {animation-delay:14s;}
	#z32294 path[clip-path="url(#z32294c15)"] {animation-delay:15s;}
	#z32294 path[clip-path="url(#z32294c16)"] {animation-delay:16s;}
	#z32294 path {fill:#ccc;}
]]>
</style>
<g transform="scale(1,-1) translate(0,-900)">
	<path id="z32294d1" d="M238 500Q195 494 161 488Q136 485 147 503Q201 609 255 690Q267 706 264 714Q261 727 223 753Q207 763 191 760Q181 756 187 742Q206 700 122 528Q109 509 88 487Q72 472 75 462Q81 444 95 429Q105 420 117 428Q139 444 219 471Q220 472 224 472L238 500Z"/>
	<path id="z32294d2" d="M274 361Q231 349 185 330Q164 320 176 339Q209 391 286 498Q310 534 331 554Q341 564 335 573Q325 589 293 604Q278 611 270 608Q261 605 264 591Q267 567 238 500L224 472Q221 469 220 465Q133 324 109 310Q97 300 101 288Q104 276 128 261Q138 251 151 264Q214 318 280 344L274 361Z"/>
	<path id="z32294d3" d="M280 344Q286 326 297 321Q306 315 317 325Q323 334 323 352Q320 385 278 414Q272 418 267 411Q263 408 274 361L280 344Z"/>
	<path id="z32294d4" d="M72 150Q82 111 93 67Q96 51 108 44Q115 40 126 46Q136 53 145 80Q152 99 135 131Q92 194 77 198Q71 198 66 188Q63 178 72 150Z"/>
	<path id="z32294d5" d="M172 190Q202 139 212 135Q219 134 226 141Q232 151 232 173Q232 192 179 225Q169 231 164 230Q160 229 158 219Q158 212 172 190Z"/>
	<path id="z32294d6" d="M266 253Q293 195 313 189Q323 186 331 199Q334 208 331 225Q322 252 274 273Q267 276 264 267Q263 261 266 253Z"/>
	<path id="z32294d7" d="M440 761Q452 737 410 648Q389 608 359 563Q352 556 351 550Q350 543 359 545Q395 551 482 692Q492 714 504 725Q510 732 506 743Q502 752 481 767Q460 780 446 778Q433 777 440 761Z"/>
	<path id="z32294d8" d="M431 416Q447 441 466 472Q479 497 491 510Q497 517 493 528Q490 537 469 551Q450 563 436 562Q423 561 429 545Q439 529 433 514Q409 435 331 322Q324 315 323 310Q322 303 331 304Q352 307 408 384L431 416Z"/>
	<path id="z32294d9" d="M408 384Q421 321 422 308Q410 164 399 116Q380 44 416 6Q432 -7 442 16Q455 50 454 91Q461 299 469 345Q476 369 467 378Q451 396 440 408Q436 412 431 416L408 384Z"/>
	<path id="z32294d10" d="M547 644Q573 612 601 575Q613 560 629 556Q640 554 645 566Q652 580 644 612Q641 634 609 657Q539 704 523 701Q519 698 519 684Q521 673 547 644Z"/>
	<path id="z32294d11" d="M765 711Q756 687 695 565Q688 543 704 553Q746 596 815 676Q832 701 855 719Q875 737 862 753Q845 767 817 773Q790 780 778 773Q765 766 772 754Q778 735 765 711Z"/>
	<path id="z32294d12" d="M682 476Q729 484 800 479Q832 475 836 484Q838 493 828 506Q797 540 779 534Q718 517 529 484Q518 484 527 468Q536 456 545 451Q557 445 565 449Q606 466 655 473L682 476Z"/>
	<path id="z32294d13" d="M697 187L655 206C654 268 654 315 654 348C651 404 646 443 638 463C636 465 636 467 636 469C639 470 642 470 645 471L667 474C679 467 692 457 705 445C711 438 711 429 707 419C705 407 705 395 705 383L704 352C701 302 699 247 697 187Z"/>
	<path id="z32294d14" d="M704 352Q707 353 711 353Q772 363 819 370Q844 374 834 388Q821 403 795 406Q744 409 705 383L704 352Z"/>
	<path id="z32294d15" d="M565 254Q571 284 595 340Q599 352 586 361Q546 379 526 371Q517 367 522 356Q552 281 489 168Q473 141 466 126Q463 113 474 119Q516 138 558 235L565 254Z"/>
	<path id="z32294d16" d="M558 235Q588 205 785 73Q809 63 842 66Q909 76 976 105Q994 111 994 116Q995 123 979 125Q930 132 875 138Q811 145 761 164Q730 174 697 187L655 206Q645 210 636 216Q584 246 565 254L558 235Z"/>
	<defs>
		<clipPath id="z32294c1"><use xlink:href="#z32294d1"/></clipPath>
		<clipPath id="z32294c2"><use xlink:href="#z32294d2"/></clipPath>
		<clipPath id="z32294c3"><use xlink:href="#z32294d3"/></clipPath>
		<clipPath id="z32294c4"><use xlink:href="#z32294d4"/></clipPath>
		<clipPath id="z32294c5"><use xlink:href="#z32294d5"/></clipPath>
		<clipPath id="z32294c6"><use xlink:href="#z32294d6"/></clipPath>
		<clipPath id="z32294c7"><use xlink:href="#z32294d7"/></clipPath>
		<clipPath id="z32294c8"><use xlink:href="#z32294d8"/></clipPath>
		<clipPath id="z32294c9"><use xlink:href="#z32294d9"/></clipPath>
		<clipPath id="z32294c10"><use xlink:href="#z32294d10"/></clipPath>
		<clipPath id="z32294c11"><use xlink:href="#z32294d11"/></clipPath>
		<clipPath id="z32294c12"><use xlink:href="#z32294d12"/></clipPath>
		<clipPath id="z32294c13"><use xlink:href="#z32294d13"/></clipPath>
		<clipPath id="z32294c14"><use xlink:href="#z32294d14"/></clipPath>
		<clipPath id="z32294c15"><use xlink:href="#z32294d15"/></clipPath>
		<clipPath id="z32294c16"><use xlink:href="#z32294d16"/></clipPath>
	</defs>
	<path pathLength="2999" clip-path="url(#z32294c1)" d="M192 756L226 706L112 473L128 456L228 494"/>
	<path pathLength="2999" clip-path="url(#z32294c2)" d="M271 603L298 562L140 308L160 293L275 353"/>
	<path pathLength="2999" clip-path="url(#z32294c3)" d="M273 410L308 325"/>
	<path pathLength="2999" clip-path="url(#z32294c4)" d="M75 191L119 49"/>
	<path pathLength="2999" clip-path="url(#z32294c5)" d="M167 222L220 143"/>
	<path pathLength="2999" clip-path="url(#z32294c6)" d="M271 266L318 195"/>
	<path pathLength="2999" clip-path="url(#z32294c7)" d="M448 769L473 727L359 554"/>
	<path pathLength="2999" clip-path="url(#z32294c8)" d="M437 554L461 510L331 310"/>
	<path pathLength="2999" clip-path="url(#z32294c9)" d="M429 407L444 312L425 5"/>
	<path pathLength="2999" clip-path="url(#z32294c10)" d="M528 697L634 562"/>
	<path pathLength="2999" clip-path="url(#z32294c11)" d="M777 765L817 728L701 559"/>
	<path pathLength="2999" clip-path="url(#z32294c12)" d="M530 478L784 508L832 492"/>
	<path pathLength="2999" clip-path="url(#z32294c13)" d="M644 464L678 428L682 194"/>
	<path pathLength="2999" clip-path="url(#z32294c14)" d="M712 361L830 382"/>
	<path pathLength="2999" clip-path="url(#z32294c15)" d="M527 362L563 328L531 218L473 123"/>
	<path pathLength="2999" clip-path="url(#z32294c16)" d="M568 245L800 110L986 117"/>
</g>
</svg>