<!--
AnimCJK 2016-2026 Copyright FM-SH - https://github.com/parsimonhi/animCJK
Derived from:
    MakeMeAHanzi project - https://github.com/skishore/makemeahanzi
    Arphic PL KaitiM GB font
    Arphic PL KaitiM Big5 font
You can redistribute and/or modify this file under the terms of the Arphic Public License
as published by Arphic Technology Co., Ltd.
You should have received a copy of this license along with this file.
If not, see https://ftp.gnu.org/non-gnu/chinese-fonts-truetype/LICENSE.
-->
<svg id="z32315" class="acjk" viewBox="0 0 1024 1024" xmlns="http://www.w3.org/2000/svg">
<style>
<![CDATA[
@keyframes zk {
	to {
		stroke-dashoffset:0;
	}
}
svg.acjk path[clip-path] {
	--t:0.8s;
	animation:zk var(--t) linear forwards var(--d);
	stroke-dasharray:3337;
	stroke-dashoffset:3339;
	stroke-width:128;
	stroke-linecap:round;
	fill:none;
	stroke:#000;
}
svg.acjk path[id] {fill:#ccc;}
]]>
</style>
<path id="z32315d1" d="M535 124C542 131 575 149 584 120C586 109 585 91 577 71C569 51 536 40 484 32C458 28 452 32 457 51C461 67 468 63 535 124Z"/>
<path id="z32315d2" d="M306 216C330 222 375 222 441 213C643 183 751 164 767 155C787 141 774 123 742 120C714 116 685 125 620 140C420 185 321 184 299 188C290 190 297 214 306 216Z"/>
<path id="z32315d3" d="M299 188C288 178 274 167 254 161C221 150 203 157 215 177C227 200 234 229 234 268C230 489 182 664 51 872C38 891 44 910 77 877C192 760 263 599 288 335C295 258 302 219 306 216C310 207 307 194 299 188Z"/>
<path id="z32315d4" d="M446 343C462 339 480 334 500 330C516 326 525 323 528 321C532 316 533 311 531 307C525 300 515 295 501 293C474 288 460 297 448 301C423 308 423 308 410 311C369 321 341 325 326 328C305 331 302 338 318 346C342 357 386 355 412 350C435 345 435 345 446 343Z"/>
<path id="z32315d5" d="M412 350C414 403 409 462 404 482C399 496 402 514 413 541C414 543 420 559 429 552C437 543 445 529 445 505C445 492 440 451 446 343C447 315 447 315 448 301C449 259 458 261 421 238C408 229 387 229 396 249C404 267 408 281 410 311C411 337 411 337 412 350Z"/>
<path id="z32315d6" d="M335 386C349 429 301 512 279 537C259 557 292 560 334 508C358 477 371 457 382 434C391 417 396 401 361 380C343 369 330 371 335 386Z"/>
<path id="z32315d7" d="M477 379C481 392 486 405 483 456C482 466 485 476 496 491C499 494 504 496 508 491C514 479 518 471 520 427C520 417 520 407 523 398C525 387 521 380 514 376C477 356 472 363 477 379Z"/>
<path id="z32315d8" d="M696 322C722 316 749 309 777 304C797 299 808 295 812 292C829 274 794 262 781 260C769 257 741 265 697 277C669 284 669 284 655 288C628 294 598 299 567 304C544 307 542 314 558 325C589 345 623 338 656 331C683 325 683 325 696 322Z"/>
<path id="z32315d9" d="M656 331C656 370 655 409 649 446C645 466 641 491 659 512C677 533 681 523 689 508C693 498 693 449 696 322C697 292 697 292 697 277C698 225 714 225 667 198C651 189 628 190 639 210C645 220 653 237 655 288C656 317 656 317 656 331Z"/>
<path id="z32315d10" d="M577 370C592 399 558 457 545 483C528 512 556 498 575 475C591 454 618 418 631 396C638 382 627 373 610 363C592 353 567 350 577 370Z"/>
<path id="z32315d11" d="M744 405C739 466 743 486 759 500C785 524 827 535 879 521C906 513 938 501 922 468C915 455 904 429 895 393C891 379 888 364 881 388C868 429 861 457 852 470C850 472 841 474 834 476C817 479 802 478 791 472C779 466 774 451 775 428C775 405 778 398 785 369C786 360 785 353 780 349C772 341 763 336 754 333C737 327 732 332 737 349C742 367 745 386 744 405Z"/>
<path id="z32315d12" d="M519 506C498 495 492 501 493 517C493 543 477 571 430 603C410 616 400 616 383 622C371 626 364 631 363 646C363 654 364 658 367 668C370 678 375 683 385 678C400 669 428 667 508 667C518 667 543 653 533 649C526 646 514 643 496 642C477 640 462 638 451 636C437 635 435 635 450 626C463 618 478 604 529 580C545 571 553 564 547 549C539 530 525 509 519 506Z"/>
<path id="z32315d13" d="M508 667C437 717 398 738 387 742C378 744 374 750 374 758C373 764 379 774 389 789C394 797 399 799 409 795C448 776 482 766 521 757C540 752 540 752 549 750C565 745 626 735 670 729C677 728 664 714 657 714C595 718 529 727 458 740C447 742 445 743 456 735C471 725 614 636 654 622C662 618 665 614 664 608C661 595 653 581 640 565C623 544 613 551 610 565C605 585 579 615 533 649C516 661 516 661 508 667Z"/>
<path id="z32315d14" d="M670 729C690 752 701 767 708 769C712 770 718 767 722 761C725 754 726 743 725 729C723 710 697 687 648 663C641 659 635 659 632 660C629 660 624 664 627 671C630 682 648 704 657 714C666 724 666 724 670 729Z"/>
<path id="z32315d15" d="M521 757C529 765 533 795 532 868C531 892 527 900 505 898C487 896 464 889 439 883C433 881 416 883 437 900C479 933 498 948 517 966C537 985 558 962 566 945C574 926 579 917 578 884C576 860 577 842 578 816C578 781 590 773 549 750C541 745 515 749 521 757Z"/>
<path id="z32315d16" d="M361 809C344 831 333 845 314 866C299 882 295 901 302 923C305 933 313 938 326 932C356 917 366 897 375 862C379 842 386 826 382 812C377 795 365 802 361 809Z"/>
<path id="z32315d17" d="M660 824C686 848 710 871 743 908C753 919 762 927 772 930C776 931 781 928 787 922C793 913 792 896 786 870C780 846 764 833 722 817C695 806 674 800 661 796C654 793 651 795 651 803C650 810 653 817 660 824Z"/>
<defs>
	<clipPath id="z32315c1"><use href="#z32315d1"/></clipPath>
	<clipPath id="z32315c2"><use href="#z32315d2"/></clipPath>
	<clipPath id="z32315c3"><use href="#z32315d3"/></clipPath>
	<clipPath id="z32315c4"><use href="#z32315d4"/></clipPath>
	<clipPath id="z32315c5"><use href="#z32315d5"/></clipPath>
	<clipPath id="z32315c6"><use href="#z32315d6"/></clipPath>
	<clipPath id="z32315c7"><use href="#z32315d7"/></clipPath>
	<clipPath id="z32315c8"><use href="#z32315d8"/></clipPath>
	<clipPath id="z32315c9"><use href="#z32315d9"/></clipPath>
	<clipPath id="z32315c10"><use href="#z32315d10"/></clipPath>
	<clipPath id="z32315c11"><use href="#z32315d11"/></clipPath>
	<clipPath id="z32315c12"><use href="#z32315d12"/></clipPath>
	<clipPath id="z32315c13"><use href="#z32315d13"/></clipPath>
	<clipPath id="z32315c14"><use href="#z32315d14"/></clipPath>
	<clipPath id="z32315c15"><use href="#z32315d15"/></clipPath>
	<clipPath id="z32315c16"><use href="#z32315d16"/></clipPath>
	<clipPath id="z32315c17"><use href="#z32315d17"/></clipPath>
</defs>
<path style="--d:1s;" pathLength="3333" clip-path="url(#z32315c1)" d="M459 41L544 85L568 132"/>
<path style="--d:2s;" pathLength="3333" clip-path="url(#z32315c2)" d="M300 198L772 141"/>
<path style="--d:3s;" pathLength="3333" clip-path="url(#z32315c3)" d="M220 167L268 213L231 525L158 728L51 887"/>
<path style="--d:4s;" pathLength="3333" clip-path="url(#z32315c4)" d="M316 335L528 310"/>
<path style="--d:5s;" pathLength="3333" clip-path="url(#z32315c5)" d="M401 238L428 280L425 548"/>
<path style="--d:6s;" pathLength="3333" clip-path="url(#z32315c6)" d="M343 381L359 428L282 544"/>
<path style="--d:7s;" pathLength="3333" clip-path="url(#z32315c7)" d="M482 372L503 399L502 485"/>
<path style="--d:8s;" pathLength="3333" clip-path="url(#z32315c8)" d="M556 315L812 282"/>
<path style="--d:9s;" pathLength="3333" clip-path="url(#z32315c9)" d="M642 197L676 242L669 519"/>
<path style="--d:10s;" pathLength="3333" clip-path="url(#z32315c10)" d="M583 361L605 399L545 492"/>
<path style="--d:11s;" pathLength="3333" clip-path="url(#z32315c11)" d="M743 338L764 371L760 463L794 497L890 477L888 384"/>
<path style="--d:12s;" pathLength="3333" clip-path="url(#z32315c12)" d="M502 503L515 558L401 644L525 653"/>
<path style="--d:13s;" pathLength="3333" clip-path="url(#z32315c13)" d="M621 556L627 606L419 751L435 767L662 724"/>
<path style="--d:14s;" pathLength="3333" clip-path="url(#z32315c14)" d="M632 665L712 764"/>
<path style="--d:15s;" pathLength="3333" clip-path="url(#z32315c15)" d="M528 756L555 790L544 922L521 935L435 888"/>
<path style="--d:16s;" pathLength="3333" clip-path="url(#z32315c16)" d="M371 808L313 930"/>
<path style="--d:17s;" pathLength="3333" clip-path="url(#z32315c17)" d="M659 806L786 916"/>
</svg>