<!--
AnimCJK 2016-2018 Copyright Francois Mizessyn - https://github.com/parsimonhi/animCJK
Derived from:
    MakeMeAHanzi project - https://github.com/skishore/makemeahanzi
    Arphic PL KaitiM GB - https://apps.ubuntu.com/cat/applications/precise/fonts-arphic-gkai00mp/
    Arphic PL UKai - https://apps.ubuntu.com/cat/applications/fonts-arphic-ukai/
You can redistribute and/or modify this file under the terms of the Arphic Public License
as published by Arphic Technology Co., Ltd.
You should have received a copy of this license (the directory "APL") along with this file;
if not, see http://ftp.gnu.org/non-gnu/chinese-fonts-truetype/LICENSE.
-->
<svg id="z32318" class="acjk" version="1.1" viewBox="0 0 1024 1024" xmlns="http://www.w3.org/2000/svg" xmlns:xlink="http://www.w3.org/1999/xlink">
<style>
<![CDATA[
@keyframes z32318k {
	from {
		stroke:#ccc;
		stroke-dashoffset:3334;
	}
	1% {
		stroke:#c00;
		stroke-dashoffset:3334;
	}
	75% {
		stroke:#c00;
		stroke-dashoffset:0;
	}
	to {
		stroke:#000;
	}
}
#z32318 path[clip-path] {
	animation:z32318k 1s linear both;
	stroke-dasharray:3334;
	stroke-width:128;
	stroke-linecap:round;
	fill:none;
}
#z32318 path[clip-path="url(#z32318c1)"] {animation-delay:1s;}
#z32318 path[clip-path="url(#z32318c2)"] {animation-delay:2s;}
#z32318 path[clip-path="url(#z32318c3)"] {animation-delay:3s;}
#z32318 path[clip-path="url(#z32318c4)"] {animation-delay:4s;}
#z32318 path[clip-path="url(#z32318c5)"] {animation-delay:5s;}
#z32318 path[clip-path="url(#z32318c6)"] {animation-delay:6s;}
#z32318 path[clip-path="url(#z32318c7)"] {animation-delay:7s;}
#z32318 path[clip-path="url(#z32318c8)"] {animation-delay:8s;}
#z32318 path[clip-path="url(#z32318c9)"] {animation-delay:9s;}
#z32318 path[clip-path="url(#z32318c10)"] {animation-delay:10s;}
#z32318 path[clip-path="url(#z32318c11)"] {animation-delay:11s;}
#z32318 path[clip-path="url(#z32318c12)"] {animation-delay:12s;}
#z32318 path[clip-path="url(#z32318c13)"] {animation-delay:13s;}
#z32318 path[clip-path="url(#z32318c14)"] {animation-delay:14s;}
#z32318 path[clip-path="url(#z32318c15)"] {animation-delay:15s;}
#z32318 path[clip-path="url(#z32318c16)"] {animation-delay:16s;}
#z32318 path[clip-path="url(#z32318c17)"] {animation-delay:17s;}
#z32318 path {fill:#ccc;}
]]>
</style>
<path id="z32318d1" d="M317 342Q263 349 220 355Q198 358 207 342Q271 239 331 161Q344 145 343 137Q340 124 303 94Q288 81 270 84Q260 87 265 101Q281 138 199 288Q183 322 145 354Q129 369 130 380Q134 399 150 415Q160 425 173 417Q197 401 281 373Q291 370 301 368C311 366 327 340 317 342Z"/>
<path id="z32318d2" d="M366 489Q314 499 249 519Q224 529 240 508Q280 450 377 333Q405 296 430 275Q442 265 436 255Q426 236 393 218Q377 208 368 211Q358 215 360 230Q361 260 317 342C306 359 306 359 301 368Q190 521 164 535Q151 544 154 558Q155 571 181 589Q191 601 206 589Q285 528 372 506C378 505 372 488 366 489Z"/>
<path id="z32318d3" d="M372 506Q381 536 395 543Q405 550 418 537Q424 527 424 508Q423 490 407 473Q383 443 371 434Q364 430 359 438Q355 442 366 489C370 500 370 500 372 506Z"/>
<path id="z32318d4" d="M118 688Q137 740 154 798Q158 814 171 821Q178 825 189 818Q199 809 208 782Q220 740 137 649Q127 639 121 638Q115 638 110 649Q109 659 118 688Z"/>
<path id="z32318d5" d="M242 657Q254 678 264 703Q271 716 282 720Q289 723 297 715Q304 705 307 681Q308 668 291 650Q249 611 236 614Q232 615 229 625Q229 634 242 657Z"/>
<path id="z32318d6" d="M341 608Q369 662 383 665Q390 668 397 659Q404 649 405 625Q402 603 348 571Q338 565 332 566Q328 567 326 577Q326 587 341 608Z"/>
<path id="z32318d7" d="M686 205Q824 172 831 168Q838 161 835 154Q828 144 803 138Q781 132 689 163C650 173 650 173 631 178Q576 188 512 196Q481 200 503 216Q533 232 601 222Q614 219 632 216C668 209 668 209 686 205Z"/>
<path id="z32318d8" d="M673 367Q674 333 678 301C680 275 680 275 681 262Q682 232 686 205C688 177 688 177 689 163Q689 136 705 81Q709 71 689 55Q655 36 632 33Q616 29 608 37Q601 44 609 59Q628 87 628 105Q629 139 631 178C632 203 632 203 632 216Q632 244 632 277C632 299 632 299 632 310Q632 340 632 374C632 388 673 381 673 367Z"/>
<path id="z32318d9" d="M678 301Q778 277 783 273Q790 267 786 261Q782 252 759 247Q735 243 681 262C648 272 648 272 632 277Q586 287 534 292Q506 296 526 309Q556 327 610 314Q620 311 632 310C663 304 663 304 678 301Z"/>
<path id="z32318d10" d="M632 374Q538 387 431 404Q412 405 426 421Q439 433 455 438Q474 442 488 438Q668 384 938 384Q956 383 960 375Q964 365 949 353Q901 320 868 328Q796 344 673 367C646 372 646 372 632 374Z"/>
<path id="z32318d11" d="M546 478Q540 469 518 463Q511 459 501 463Q495 467 500 477Q501 483 504 488Q525 525 516 672Q498 727 532 772Q541 782 549 772Q555 763 557 753C558 734 558 734 559 724Q559 699 558 672C557 658 557 658 557 651Q557 617 557 592C557 577 557 577 557 570Q556 516 557 511Q557 507 557 504C557 495 552 486 546 478Z"/>
<path id="z32318d12" d="M750 735Q751 741 757 748Q770 775 778 774Q791 773 805 743Q814 725 815 683Q800 535 826 494Q835 479 828 471Q803 449 761 431Q746 427 726 434Q669 459 546 478C537 480 548 504 557 504Q563 504 570 503Q729 460 742 477Q754 490 754 540Q758 681 751 707Q750 707 750 708C747 716 747 727 750 735Z"/>
<path id="z32318d13" d="M557 592Q563 592 571 591Q644 578 697 568Q716 565 709 554Q700 542 679 539Q652 536 557 570C550 573 550 592 557 592Z"/>
<path id="z32318d14" d="M558 672Q562 673 572 672Q645 659 701 652Q720 649 713 638Q704 626 683 622Q655 619 557 651C550 654 551 672 558 672Z"/>
<path id="z32318d15" d="M557 753Q563 754 572 752Q629 742 750 735C759 735 756 714 750 708Q747 704 742 701Q729 692 701 698Q622 714 559 724C549 726 547 753 557 753Z"/>
<path id="z32318d16" d="M550 803Q532 854 398 945Q376 957 403 957Q466 961 574 877Q602 855 616 846Q628 836 626 826Q625 813 601 802Q574 789 562 790Q555 790 550 803Z"/>
<path id="z32318d17" d="M714 826Q760 875 813 943Q826 964 841 969Q848 970 857 962Q870 950 861 908Q852 866 792 835Q783 826 718 797Q709 791 707 803Q706 816 714 826Z"/>
<defs>
	<clipPath id="z32318c1"><use xlink:href="#z32318d1"></use></clipPath>
	<clipPath id="z32318c2"><use xlink:href="#z32318d2"></use></clipPath>
	<clipPath id="z32318c3"><use xlink:href="#z32318d3"></use></clipPath>
	<clipPath id="z32318c4"><use xlink:href="#z32318d4"></use></clipPath>
	<clipPath id="z32318c5"><use xlink:href="#z32318d5"></use></clipPath>
	<clipPath id="z32318c6"><use xlink:href="#z32318d6"></use></clipPath>
	<clipPath id="z32318c7"><use xlink:href="#z32318d7"></use></clipPath>
	<clipPath id="z32318c8"><use xlink:href="#z32318d8"></use></clipPath>
	<clipPath id="z32318c9"><use xlink:href="#z32318d9"></use></clipPath>
	<clipPath id="z32318c10"><use xlink:href="#z32318d10"></use></clipPath>
	<clipPath id="z32318c11"><use xlink:href="#z32318d11"></use></clipPath>
	<clipPath id="z32318c12"><use xlink:href="#z32318d12"></use></clipPath>
	<clipPath id="z32318c13"><use xlink:href="#z32318d13"></use></clipPath>
	<clipPath id="z32318c14"><use xlink:href="#z32318d14"></use></clipPath>
	<clipPath id="z32318c15"><use xlink:href="#z32318d15"></use></clipPath>
	<clipPath id="z32318c16"><use xlink:href="#z32318d16"></use></clipPath>
	<clipPath id="z32318c17"><use xlink:href="#z32318d17"></use></clipPath>
</defs>
<path pathLength="3333" clip-path="url(#z32318c1)" d="M271 90L303 144L170 366L188 387L309 350"/>
<path pathLength="3333" clip-path="url(#z32318c2)" d="M367 217L394 265L198 538L218 558L363 501"/>
<path pathLength="3333" clip-path="url(#z32318c3)" d="M367 436L408 538"/>
<path pathLength="3333" clip-path="url(#z32318c4)" d="M122 642L180 775L175 818"/>
<path pathLength="3333" clip-path="url(#z32318c5)" d="M237 621L280 675L284 715"/>
<path pathLength="3333" clip-path="url(#z32318c6)" d="M334 571L389 659"/>
<path pathLength="3333" clip-path="url(#z32318c7)" d="M503 203L832 157"/>
<path pathLength="3333" clip-path="url(#z32318c8)" d="M611 42L666 88L645 371"/>
<path pathLength="3333" clip-path="url(#z32318c9)" d="M525 299L779 263"/>
<path pathLength="3333" clip-path="url(#z32318c10)" d="M429 413L870 356L956 366"/>
<path pathLength="3333" clip-path="url(#z32318c11)" d="M504 470L535 512L537 770"/>
<path pathLength="3333" clip-path="url(#z32318c12)" d="M554 480L743 451L788 484L775 768"/>
<path pathLength="3333" clip-path="url(#z32318c13)" d="M565 584L703 558"/>
<path pathLength="3333" clip-path="url(#z32318c14)" d="M563 664L708 643"/>
<path pathLength="3333" clip-path="url(#z32318c15)" d="M562 745L748 722"/>
<path pathLength="3333" clip-path="url(#z32318c16)" d="M622 825L573 829L510 892L400 951"/>
<path pathLength="3333" clip-path="url(#z32318c17)" d="M714 801L818 895L854 963"/>
</svg>