<!--
AnimCJK 2016-2017 Copyright Francois Mizessyn, http://gooo.free.fr/animCJK/
Derived from:
    MakeMeAHanzi project - https://github.com/skishore/makemeahanzi
    Arphic PL KaitiM GB - https://apps.ubuntu.com/cat/applications/precise/fonts-arphic-gkai00mp/
    Arphic PL UKai - https://apps.ubuntu.com/cat/applications/fonts-arphic-ukai/
You can redistribute and/or modify this file under the terms of the Arphic Public License
as published by Arphic Technology Co., Ltd.
You should have received a copy of this license (the directory "APL") along with this file;
if not, see http://ftp.gnu.org/non-gnu/chinese-fonts-truetype/LICENSE.
-->
<svg id="z32629" class="acjk" version="1.1" viewBox="0 0 1024 1024" xmlns="http://www.w3.org/2000/svg" xmlns:xlink="http://www.w3.org/1999/xlink">
<style>
<![CDATA[
	@keyframes z32629k {
		from {
			stroke:#c00;
			stroke-dashoffset:3000;
		}
		75% {
			stroke:#c00;
			stroke-dashoffset:0;
		}
		to {
			stroke:#000;
		}
	}
	#z32629 path[clip-path] {
		animation:z32629k 1s linear both;
		stroke-dasharray:3000;
		stroke-width:128;
		stroke-linecap:round;
		fill:none;
	}
	#z32629 path[clip-path="url(#z32629c1)"] {animation-delay:1s;}
	#z32629 path[clip-path="url(#z32629c2)"] {animation-delay:2s;}
	#z32629 path[clip-path="url(#z32629c3)"] {animation-delay:3s;}
	#z32629 path[clip-path="url(#z32629c4)"] {animation-delay:4s;}
	#z32629 path[clip-path="url(#z32629c5)"] {animation-delay:5s;}
	#z32629 path[clip-path="url(#z32629c6)"] {animation-delay:6s;}
	#z32629 path[clip-path="url(#z32629c7)"] {animation-delay:7s;}
	#z32629 path[clip-path="url(#z32629c8)"] {animation-delay:8s;}
	#z32629 path[clip-path="url(#z32629c9)"] {animation-delay:9s;}
	#z32629 path[clip-path="url(#z32629c10)"] {animation-delay:10s;}
	#z32629 path[clip-path="url(#z32629c11)"] {animation-delay:11s;}
	#z32629 path[clip-path="url(#z32629c12)"] {animation-delay:12s;}
	#z32629 path[clip-path="url(#z32629c13)"] {animation-delay:13s;}
	#z32629 path[clip-path="url(#z32629c14)"] {animation-delay:14s;}
	#z32629 path[clip-path="url(#z32629c15)"] {animation-delay:15s;}
	#z32629 path {fill:#ccc;}
]]>
</style>
<g transform="scale(1,-1) translate(0,-900)">
	<path id="z32629d1" d="M280 783Q270 787 232 791Q219 792 217 787Q211 780 221 765Q249 722 274 646Q280 624 295 610Q314 591 318 606Q319 612 319 618L316 649Q315 653 315 656Q299 725 292 751L280 783Z"/>
	<path id="z32629d2" d="M687 660Q687 659 688 656Q692 640 704 640Q723 643 755 693Q776 742 813 767Q832 780 818 796Q802 814 757 844Q741 854 667 839Q568 833 410 803Q334 790 280 783L292 751Q329 763 385 772L410 777Q468 787 544 797L590 802Q698 820 726 806Q732 802 726 780Q702 704 694 689Q691 686 690 682L687 660Z"/>
	<path id="z32629d3" d="M447 665Q447 666 448 668Q448 704 415 771Q412 775 410 777L385 772L386 771Q392 734 394 730Q397 687 422 661L447 665Z"/>
	<path id="z32629d4" d="M556 684Q560 691 566 701Q578 717 591 738Q595 748 606 759Q619 771 612 780Q605 790 590 802L544 797Q548 770 531 701Q525 689 523 678L556 684Z"/>
	<path id="z32629d5" d="M319 618Q325 618 332 619Q444 643 687 660L690 682Q683 689 672 696Q656 705 556 684L523 678Q483 672 447 665L422 661Q365 657 316 649L319 618Z"/>
	<path id="z32629d6" d="M358 547Q342 557 327 562Q303 566 295 561Q288 555 296 543Q323 510 311 318Q308 302 281 265Q271 249 281 237Q291 227 315 212Q328 205 344 218L355 295Q354 449 369 518L358 547Z"/>
	<path id="z32629d7" d="M532 534Q583 544 635 552Q683 562 690 568Q697 575 694 582Q688 592 664 599Q643 605 560 581Q448 556 358 547L369 518Q387 512 470 523Q480 526 491 526L532 534Z"/>
	<path id="z32629d8" d="M552 403Q553 428 555 452L558 487Q564 505 557 513Q544 526 532 534L491 526Q500 511 502 472L502 441Q502 422 502 391L502 360Q503 335 503 304L547 312Q548 342 550 369L552 403Z"/>
	<path id="z32629d9" d="M555 452Q583 459 617 465Q647 472 651 476Q657 482 654 488Q650 495 629 501Q611 504 558 487L502 472Q465 466 429 462Q404 458 422 446Q449 431 492 440Q495 441 502 441L555 452Z"/>
	<path id="z32629d10" d="M550 369Q583 376 617 381Q650 388 654 392Q661 398 658 404Q654 411 633 418Q614 422 552 403L502 391Q462 385 418 382Q393 378 410 366Q437 348 481 358Q488 361 502 360L550 369Z"/>
	<path id="z32629d11" d="M344 218Q440 272 680 291Q728 298 744 285Q772 257 724 61Q717 39 701 28Q695 25 626 38Q608 47 607 38Q606 28 625 12Q656 -28 667 -59Q683 -87 706 -71Q758 -37 775 6Q787 46 820 211Q826 251 845 269Q861 285 853 297Q840 310 788 337Q763 350 730 343Q684 330 630 325Q587 319 547 312L503 304Q442 295 385 281Q351 271 355 295L344 218Z"/>
	<path id="z32629d12" d="M199 187Q177 139 148 96Q127 65 145 29Q152 11 173 23Q222 60 224 129Q230 162 223 187Q217 196 212 197Q203 196 199 187Z"/>
	<path id="z32629d13" d="M309 169Q327 87 350 73Q360 66 374 80Q381 90 381 112Q380 131 362 149Q337 180 324 190Q317 196 311 186Q307 179 309 169Z"/>
	<path id="z32629d14" d="M443 188Q461 119 485 108Q497 102 509 116Q515 128 514 149Q505 180 456 211Q449 215 444 206Q440 199 443 188Z"/>
	<path id="z32629d15" d="M578 188Q600 160 623 124Q632 111 645 108Q655 107 661 117Q668 129 666 155Q663 185 583 230Q570 236 564 235Q560 232 558 221Q559 211 578 188Z"/>
	<defs>
		<clipPath id="z32629c1"><use xlink:href="#z32629d1"/></clipPath>
		<clipPath id="z32629c2"><use xlink:href="#z32629d2"/></clipPath>
		<clipPath id="z32629c3"><use xlink:href="#z32629d3"/></clipPath>
		<clipPath id="z32629c4"><use xlink:href="#z32629d4"/></clipPath>
		<clipPath id="z32629c5"><use xlink:href="#z32629d5"/></clipPath>
		<clipPath id="z32629c6"><use xlink:href="#z32629d6"/></clipPath>
		<clipPath id="z32629c7"><use xlink:href="#z32629d7"/></clipPath>
		<clipPath id="z32629c8"><use xlink:href="#z32629d8"/></clipPath>
		<clipPath id="z32629c9"><use xlink:href="#z32629d9"/></clipPath>
		<clipPath id="z32629c10"><use xlink:href="#z32629d10"/></clipPath>
		<clipPath id="z32629c11"><use xlink:href="#z32629d11"/></clipPath>
		<clipPath id="z32629c12"><use xlink:href="#z32629d12"/></clipPath>
		<clipPath id="z32629c13"><use xlink:href="#z32629d13"/></clipPath>
		<clipPath id="z32629c14"><use xlink:href="#z32629d14"/></clipPath>
		<clipPath id="z32629c15"><use xlink:href="#z32629d15"/></clipPath>
	</defs>
	<path pathLength="2999" clip-path="url(#z32629c1)" d="M222 785L260 756L311 609"/>
	<path pathLength="2999" clip-path="url(#z32629c2)" d="M287 781L735 827L773 777L701 644"/>
	<path pathLength="2999" clip-path="url(#z32629c3)" d="M394 771L437 665"/>
	<path pathLength="2999" clip-path="url(#z32629c4)" d="M552 793L577 761L530 685"/>
	<path pathLength="2999" clip-path="url(#z32629c5)" d="M326 626L684 670"/>
	<path pathLength="2999" clip-path="url(#z32629c6)" d="M300 556L338 510L316 214"/>
	<path pathLength="2999" clip-path="url(#z32629c7)" d="M366 543L688 581"/>
	<path pathLength="2999" clip-path="url(#z32629c8)" d="M500 524L531 491L515 307"/>
	<path pathLength="2999" clip-path="url(#z32629c9)" d="M421 456L650 483"/>
	<path pathLength="2999" clip-path="url(#z32629c10)" d="M412 374L651 403"/>
	<path pathLength="2999" clip-path="url(#z32629c11)" d="M349 226L408 280L728 318L780 302L804 271L738 11L685 -24L615 34"/>
	<path pathLength="2999" clip-path="url(#z32629c12)" d="M214 193L146 30"/>
	<path pathLength="2999" clip-path="url(#z32629c13)" d="M318 186L364 78"/>
	<path pathLength="2999" clip-path="url(#z32629c14)" d="M451 203L496 113"/>
	<path pathLength="2999" clip-path="url(#z32629c15)" d="M568 230L635 157L647 112"/>
</g>
</svg>