<!--
AnimCJK 2016-2017 Copyright Francois Mizessyn, http://gooo.free.fr/animCJK/
Derived from:
    MakeMeAHanzi project - https://github.com/skishore/makemeahanzi
    Arphic PL KaitiM GB - https://apps.ubuntu.com/cat/applications/precise/fonts-arphic-gkai00mp/
    Arphic PL UKai - https://apps.ubuntu.com/cat/applications/fonts-arphic-ukai/
You can redistribute and/or modify this file under the terms of the Arphic Public License
as published by Arphic Technology Co., Ltd.
You should have received a copy of this license (the directory "APL") along with this file;
if not, see http://ftp.gnu.org/non-gnu/chinese-fonts-truetype/LICENSE.
-->
<svg id="z32631" class="acjk" version="1.1" viewBox="0 0 1024 1024" xmlns="http://www.w3.org/2000/svg" xmlns:xlink="http://www.w3.org/1999/xlink">
<style>
<![CDATA[
	@keyframes z32631k {
		from {
			stroke:#c00;
			stroke-dashoffset:3000;
		}
		75% {
			stroke:#c00;
			stroke-dashoffset:0;
		}
		to {
			stroke:#000;
		}
	}
	#z32631 path[clip-path] {
		animation:z32631k 1s linear both;
		stroke-dasharray:3000;
		stroke-width:128;
		stroke-linecap:round;
		fill:none;
	}
	#z32631 path[clip-path="url(#z32631c1)"] {animation-delay:1s;}
	#z32631 path[clip-path="url(#z32631c2)"] {animation-delay:2s;}
	#z32631 path[clip-path="url(#z32631c3)"] {animation-delay:3s;}
	#z32631 path[clip-path="url(#z32631c4)"] {animation-delay:4s;}
	#z32631 path[clip-path="url(#z32631c5)"] {animation-delay:5s;}
	#z32631 path[clip-path="url(#z32631c6)"] {animation-delay:6s;}
	#z32631 path[clip-path="url(#z32631c7)"] {animation-delay:7s;}
	#z32631 path[clip-path="url(#z32631c8)"] {animation-delay:8s;}
	#z32631 path[clip-path="url(#z32631c9)"] {animation-delay:9s;}
	#z32631 path[clip-path="url(#z32631c10)"] {animation-delay:10s;}
	#z32631 path[clip-path="url(#z32631c11)"] {animation-delay:11s;}
	#z32631 path[clip-path="url(#z32631c12)"] {animation-delay:12s;}
	#z32631 path[clip-path="url(#z32631c13)"] {animation-delay:13s;}
	#z32631 path[clip-path="url(#z32631c14)"] {animation-delay:14s;}
	#z32631 path[clip-path="url(#z32631c15)"] {animation-delay:15s;}
	#z32631 path {fill:#ccc;}
]]>
</style>
<g transform="scale(1,-1) translate(0,-900)">
	<path id="z32631d1" d="M316 784Q301 790 272 791Q259 792 257 787Q251 780 261 765Q289 722 314 646Q320 624 335 610Q354 591 358 606Q358 609 359 611L358 641Q357 648 355 656Q339 720 333 748L316 784Z"/>
	<path id="z32631d2" d="M678 648Q678 645 680 640Q684 624 696 624Q715 627 749 685Q768 734 806 761Q825 774 811 791Q795 809 748 838Q733 848 653 833Q607 833 440 802Q368 790 316 784L333 748Q337 748 344 749Q372 758 416 766L439 770Q491 780 563 789L606 795Q693 810 718 797Q724 791 718 770Q694 688 685 673Q684 670 681 666L678 648Z"/>
	<path id="z32631d3" d="M473 657Q473 705 446 760Q443 766 439 770L416 766L417 764Q420 749 423 722Q426 680 444 653L473 657Z"/>
	<path id="z32631d4" d="M575 676Q576 679 578 682Q591 703 605 729Q611 741 622 755Q635 765 627 775Q620 785 606 795L563 789Q572 767 542 673Q541 672 541 670L575 676Z"/>
	<path id="z32631d5" d="M359 611Q366 610 376 611Q469 632 678 648L681 666Q675 673 660 684Q641 696 575 676L541 670Q507 664 473 657L444 653Q398 649 358 641L359 611Z"/>
	<path id="z32631d6" d="M435 501Q251 461 250 460Q249 461 253 466Q317 535 341 552Q356 564 348 573Q339 583 309 593Q290 599 279 595Q272 594 273 574Q280 520 193 461Q183 457 172 452Q148 440 148 431Q147 415 157 397Q167 379 178 375Q185 372 195 378Q258 423 439 483Q443 484 448 486L435 501Z"/>
	<path id="z32631d7" d="M448 486Q478 447 490 444Q499 443 505 453Q512 465 509 492Q508 511 482 529Q424 566 408 563Q404 560 402 549Q403 539 423 517Q429 510 435 501L448 486Z"/>
	<path id="z32631d8" d="M268 171Q269 211 274 241L277 269Q280 303 283 317Q283 320 283 322L271 349Q252 368 225 366Q212 363 217 352Q256 259 210 103Q180 34 209 -3Q215 -16 224 -11Q257 10 264 111L266 143L268 171Z"/>
	<path id="z32631d9" d="M283 322Q289 323 297 326Q339 338 379 349Q394 353 401 347Q408 341 408 320Q417 155 411 56Q410 34 404 23Q398 19 338 34Q320 41 321 32Q369 -14 394 -47Q406 -63 419 -68Q428 -72 435 -63Q474 -12 472 29Q450 297 469 335Q479 353 469 362Q450 378 417 391Q399 400 354 373Q318 358 271 349L283 322Z"/>
	<path id="z32631d10" d="M274 241Q329 248 369 254Q388 258 381 269Q371 282 349 285Q303 288 277 269L274 241Z"/>
	<path id="z32631d11" d="M266 143Q326 150 371 155Q392 158 385 169Q375 182 353 187Q323 191 268 171L266 143Z"/>
	<path id="z32631d12" d="M620 488Q641 494 739 526Q758 535 780 537Q799 540 795 556Q774 604 745 609Q735 610 734 599Q731 580 652 526Q636 517 621 506L620 488Z"/>
	<path id="z32631d13" d="M621 506Q622 537 630 576Q634 591 623 599Q613 611 592 618Q580 621 574 617Q568 614 572 598Q584 565 582 533Q576 404 620 381Q633 374 656 367Q782 334 868 401Q884 414 872 436Q862 449 844 493Q843 506 837 510Q831 511 828 497Q798 431 771 420Q647 396 627 440Q621 455 620 488L621 506Z"/>
	<path id="z32631d14" d="M620 181Q665 193 782 234Q804 244 830 246Q852 247 848 268Q841 287 821 309Q803 330 791 331Q778 332 778 319Q775 292 692 243Q658 224 621 202L620 181Z"/>
	<path id="z32631d15" d="M621 202Q622 250 633 306Q637 325 624 336Q611 349 585 359Q572 363 562 358Q555 354 561 334Q576 292 574 252Q570 119 581 81Q588 53 612 30Q693 -39 852 -17Q871 -13 891 -8Q931 5 970 36Q991 52 977 78Q964 106 948 188Q948 204 941 210Q935 214 930 195Q899 107 880 81Q868 65 831 55Q744 36 670 68Q619 95 620 181L621 202Z"/>
	<defs>
		<clipPath id="z32631c1"><use xlink:href="#z32631d1"/></clipPath>
		<clipPath id="z32631c2"><use xlink:href="#z32631d2"/></clipPath>
		<clipPath id="z32631c3"><use xlink:href="#z32631d3"/></clipPath>
		<clipPath id="z32631c4"><use xlink:href="#z32631d4"/></clipPath>
		<clipPath id="z32631c5"><use xlink:href="#z32631d5"/></clipPath>
		<clipPath id="z32631c6"><use xlink:href="#z32631d6"/></clipPath>
		<clipPath id="z32631c7"><use xlink:href="#z32631d7"/></clipPath>
		<clipPath id="z32631c8"><use xlink:href="#z32631d8"/></clipPath>
		<clipPath id="z32631c9"><use xlink:href="#z32631d9"/></clipPath>
		<clipPath id="z32631c10"><use xlink:href="#z32631d10"/></clipPath>
		<clipPath id="z32631c11"><use xlink:href="#z32631d11"/></clipPath>
		<clipPath id="z32631c12"><use xlink:href="#z32631d12"/></clipPath>
		<clipPath id="z32631c13"><use xlink:href="#z32631d13"/></clipPath>
		<clipPath id="z32631c14"><use xlink:href="#z32631d14"/></clipPath>
		<clipPath id="z32631c15"><use xlink:href="#z32631d15"/></clipPath>
	</defs>
	<path pathLength="2999" clip-path="url(#z32631c1)" d="M263 786L304 746L350 607"/>
	<path pathLength="2999" clip-path="url(#z32631c2)" d="M325 780L732 818L767 774L693 631"/>
	<path pathLength="2999" clip-path="url(#z32631c3)" d="M423 763L458 655"/>
	<path pathLength="2999" clip-path="url(#z32631c4)" d="M570 785L594 751L550 675"/>
	<path pathLength="2999" clip-path="url(#z32631c5)" d="M365 619L677 663"/>
	<path pathLength="2999" clip-path="url(#z32631c6)" d="M345 568L295 561L275 514L200 449L210 418L440 488"/>
	<path pathLength="2999" clip-path="url(#z32631c7)" d="M411 558L496 452"/>
	<path pathLength="2999" clip-path="url(#z32631c8)" d="M222 360L256 295L218 -7"/>
	<path pathLength="2999" clip-path="url(#z32631c9)" d="M278 347L393 371L441 341L437 12L410 -23L329 32"/>
	<path pathLength="2999" clip-path="url(#z32631c10)" d="M278 249L376 264"/>
	<path pathLength="2999" clip-path="url(#z32631c11)" d="M274 152L380 165"/>
	<path pathLength="2999" clip-path="url(#z32631c12)" d="M791 550L744 570L624 498"/>
	<path pathLength="2999" clip-path="url(#z32631c13)" d="M578 614L604 582L606 440L639 398L795 397L841 433L837 500"/>
	<path pathLength="2999" clip-path="url(#z32631c14)" d="M789 326L803 273L626 190"/>
	<path pathLength="2999" clip-path="url(#z32631c15)" d="M568 354L601 313L605 101L675 30L804 14L908 46L938 83L939 205"/>
</g>
</svg>