<!--
AnimCJK 2016-2019 Copyright Francois Mizessyn - https://github.com/parsimonhi/animCJK
Derived from:
    MakeMeAHanzi project - https://github.com/skishore/makemeahanzi
    Arphic PL KaitiM GB font
    Arphic PL UKai font
You can redistribute and/or modify this file under the terms of the Arphic Public License
as published by Arphic Technology Co., Ltd.
You should have received a copy of this license along with this file.
If not, see http://ftp.gnu.org/non-gnu/chinese-fonts-truetype/LICENSE.
-->
<svg id="z32631" class="acjk" version="1.1" viewBox="0 0 1024 1024" xmlns="http://www.w3.org/2000/svg" xmlns:xlink="http://www.w3.org/1999/xlink">
<style>
<![CDATA[
@keyframes zk {
	to {
		stroke-dashoffset:0;
	}
}
svg.acjk path[clip-path] {
	--t:0.8s;
	animation:zk var(--t) linear forwards var(--d);
	stroke-dasharray:3337;
	stroke-dashoffset:3339;
	stroke-width:128;
	stroke-linecap:round;
	fill:none;
	stroke:#000;
}
svg.acjk path[id] {fill:#ccc;}
]]>
</style>
<path id="z32631d1" d="M316 116C306 112 291 109 272 109C263 108 259 110 257 113C253 118 254 124 261 135C279 163 297 203 314 254C318 268 325 280 335 290C347 302 355 304 358 294C358 292 359 290 359 289C359 279 358 269 358 259C357 254 356 249 355 244C344 201 337 170 333 152C331 139 328 121 316 116Z"/>
<path id="z32631d2" d="M678 252C679 266 688 276 696 276C708 274 727 254 749 215C765 185 786 158 806 139C816 128 820 120 811 109C800 96 779 81 748 62C737 55 706 60 653 67C622 70 521 83 440 98C392 106 350 112 316 116C303 119 320 152 333 152C347 152 386 139 416 134C431 131 431 131 439 130C473 124 515 117 563 111C592 107 592 107 606 105C664 96 702 93 718 103C722 106 721 115 718 130C708 170 690 222 681 234C678 239 677 246 678 252Z"/>
<path id="z32631d3" d="M473 243C473 211 460 158 439 130C435 123 414 126 416 134C419 149 421 160 423 178C425 206 432 229 444 247C449 255 473 253 473 243Z"/>
<path id="z32631d4" d="M575 224C607 164 613 153 622 145C629 137 632 131 627 125C622 118 615 111 606 105C594 96 560 97 563 111C569 125 562 165 541 232C537 243 570 234 575 224Z"/>
<path id="z32631d5" d="M359 289C363 289 369 290 376 289C438 275 538 262 678 252C684 252 685 239 681 234C677 229 670 222 660 216C647 207 620 213 575 224C552 229 552 229 541 232C522 236 497 239 473 243C454 246 454 246 444 247C413 251 384 253 358 259C348 261 349 289 359 289Z"/>
<path id="z32631d6" d="M435 399C312 425 250 440 250 440C249 440 250 437 253 434C295 387 325 359 341 348C351 340 353 333 348 327C342 320 329 313 309 307C296 302 286 302 279 305C274 306 271 312 273 326C276 362 251 400 193 439C187 442 179 444 172 448C155 455 148 463 148 469C147 479 150 491 157 503C163 515 170 522 178 525C182 526 188 526 195 522C237 492 319 457 448 414C454 412 441 398 435 399Z"/>
<path id="z32631d7" d="M448 414C469 438 481 454 490 456C495 457 501 453 505 447C509 439 510 426 509 408C507 395 499 382 482 371C443 345 418 333 408 337C404 338 402 343 402 351C401 357 415 376 435 399C444 409 444 409 448 414Z"/>
<path id="z32631d8" d="M268 729C269 702 271 679 274 659C276 640 276 640 277 631C279 608 281 587 283 578C285 568 278 558 271 551C258 538 242 531 225 534C216 535 213 540 217 548C243 609 235 702 210 797C196 845 191 877 209 903C214 910 218 914 224 911C246 897 259 856 264 789C264 778 265 767 266 757C267 738 267 738 268 729Z"/>
<path id="z32631d9" d="M283 578C295 577 352 558 379 551C389 548 396 549 401 553C405 557 407 566 408 580C413 690 414 778 411 844C410 858 409 870 404 877C401 880 377 877 338 866C325 862 317 863 321 868C350 901 377 925 394 947C402 957 410 964 419 968C425 970 430 969 435 963C461 929 474 898 472 871C458 692 456 590 469 565C475 552 475 543 469 538C456 527 438 518 417 509C404 503 385 510 354 527C330 539 302 545 271 551C261 553 273 580 283 578Z"/>
<path id="z32631d10" d="M274 659Q329 652 369 646Q388 642 381 631Q371 618 349 615Q303 612 277 631C269 636 265 661 274 659Z"/>
<path id="z32631d11" d="M266 757Q326 750 371 745Q392 742 385 731Q375 718 353 713Q323 709 268 729C259 732 257 759 266 757Z"/>
<path id="z32631d12" d="M620 412C737 373 764 365 780 363C792 360 799 354 795 344C782 311 764 294 745 291C738 290 735 293 734 301C732 313 704 338 621 394C616 397 614 414 620 412Z"/>
<path id="z32631d13" d="M621 394C622 373 624 349 630 324C632 313 629 307 623 301C615 293 606 286 592 282C584 279 578 280 574 283C570 285 568 291 572 302C579 324 583 345 582 367C577 453 590 495 620 519C629 526 640 531 656 535C709 547 810 543 868 499C878 490 880 478 872 464C866 454 854 437 844 407C841 398 841 391 837 390C833 388 831 394 828 403C809 447 789 474 771 480C719 495 640 489 627 460C622 450 618 434 620 412C621 400 621 400 621 394Z"/>
<path id="z32631d14" d="M620 719C650 711 703 692 782 666C790 663 811 656 830 654C844 652 851 645 848 632C844 619 834 605 821 591C808 577 799 569 791 569C782 568 778 572 778 581C776 599 746 623 621 698C615 702 613 720 620 719Z"/>
<path id="z32631d15" d="M621 698C622 666 625 631 633 594C635 581 632 571 624 564C615 555 602 547 585 541C576 537 568 538 562 542C557 544 556 552 561 566C570 594 574 621 574 648C570 736 574 793 581 819C586 837 595 855 612 870C665 916 746 932 852 917C864 915 877 911 891 908C917 899 943 884 970 864C983 853 985 839 977 822C967 803 957 767 948 712C946 701 945 693 941 690C937 687 934 692 930 705C910 764 892 801 880 819C872 829 855 839 831 845C773 858 718 854 670 832C635 815 617 776 620 719C621 705 621 705 621 698Z"/>
<defs>
	<clipPath id="z32631c1"><use xlink:href="#z32631d1"/></clipPath>
	<clipPath id="z32631c2"><use xlink:href="#z32631d2"/></clipPath>
	<clipPath id="z32631c3"><use xlink:href="#z32631d3"/></clipPath>
	<clipPath id="z32631c4"><use xlink:href="#z32631d4"/></clipPath>
	<clipPath id="z32631c5"><use xlink:href="#z32631d5"/></clipPath>
	<clipPath id="z32631c6"><use xlink:href="#z32631d6"/></clipPath>
	<clipPath id="z32631c7"><use xlink:href="#z32631d7"/></clipPath>
	<clipPath id="z32631c8"><use xlink:href="#z32631d8"/></clipPath>
	<clipPath id="z32631c9"><use xlink:href="#z32631d9"/></clipPath>
	<clipPath id="z32631c10"><use xlink:href="#z32631d10"/></clipPath>
	<clipPath id="z32631c11"><use xlink:href="#z32631d11"/></clipPath>
	<clipPath id="z32631c12"><use xlink:href="#z32631d12"/></clipPath>
	<clipPath id="z32631c13"><use xlink:href="#z32631d13"/></clipPath>
	<clipPath id="z32631c14"><use xlink:href="#z32631d14"/></clipPath>
	<clipPath id="z32631c15"><use xlink:href="#z32631d15"/></clipPath>
</defs>
<path style="--d:1s;" pathLength="3333" clip-path="url(#z32631c1)" d="M263 114L304 154L350 293"/>
<path style="--d:2s;" pathLength="3333" clip-path="url(#z32631c2)" d="M325 120L732 82L767 126L693 269"/>
<path style="--d:3s;" pathLength="3333" clip-path="url(#z32631c3)" d="M423 137L458 245"/>
<path style="--d:4s;" pathLength="3333" clip-path="url(#z32631c4)" d="M570 115L594 149L550 225"/>
<path style="--d:5s;" pathLength="3333" clip-path="url(#z32631c5)" d="M365 281L677 237"/>
<path style="--d:6s;" pathLength="3333" clip-path="url(#z32631c6)" d="M 283,310 314,338 200,451 210,482 440,412"/>
<path style="--d:7s;" pathLength="3333" clip-path="url(#z32631c7)" d="M411 342L496 448"/>
<path style="--d:8s;" pathLength="3333" clip-path="url(#z32631c8)" d="M222 540L256 605L218 907"/>
<path style="--d:9s;" pathLength="3333" clip-path="url(#z32631c9)" d="M278 553L393 529L441 559L437 888L410 923L329 868"/>
<path style="--d:10s;" pathLength="3333" clip-path="url(#z32631c10)" d="M278 651L376 636"/>
<path style="--d:11s;" pathLength="3333" clip-path="url(#z32631c11)" d="M274 748L380 735"/>
<path style="--d:12s;" pathLength="3333" clip-path="url(#z32631c12)" d="M 744,299 757,341 624,402"/>
<path style="--d:13s;" pathLength="3333" clip-path="url(#z32631c13)" d="M578 286L604 318L606 460L639 502L795 503L841 467L837 400"/>
<path style="--d:14s;" pathLength="3333" clip-path="url(#z32631c14)" d="M789 574L803 627L626 710"/>
<path style="--d:15s;" pathLength="3333" clip-path="url(#z32631c15)" d="M568 546L601 587L605 799L675 870L804 886L908 854L938 817L939 695"/>
</svg>