<!--
AnimCJK 2016-2019 Copyright Francois Mizessyn - https://github.com/parsimonhi/animCJK
Derived from:
    MakeMeAHanzi project - https://github.com/skishore/makemeahanzi
    Arphic PL KaitiM GB font
    Arphic PL UKai font
You can redistribute and/or modify this file under the terms of the Arphic Public License
as published by Arphic Technology Co., Ltd.
You should have received a copy of this license along with this file.
If not, see http://ftp.gnu.org/non-gnu/chinese-fonts-truetype/LICENSE.
-->
<svg id="z32645" class="acjk" version="1.1" viewBox="0 0 1024 1024" xmlns="http://www.w3.org/2000/svg" xmlns:xlink="http://www.w3.org/1999/xlink">
<style>
<![CDATA[
@keyframes zk {
	to {
		stroke-dashoffset:0;
	}
}
svg.acjk path[clip-path] {
	--t:0.8s;
	animation:zk var(--t) linear forwards var(--d);
	stroke-dasharray:3337;
	stroke-dashoffset:3339;
	stroke-width:128;
	stroke-linecap:round;
	fill:none;
	stroke:#000;
}
svg.acjk path[id] {fill:#ccc;}
]]>
</style>
<path id="z32645d1" d="M322 115Q309 111 281 110Q269 109 267 114Q261 121 272 134Q300 177 326 251Q332 273 347 287Q366 306 370 290Q370 286 371 281C373 273 370 264 368 256Q365 238 340 150C337 137 335 118 322 115Z"/>
<path id="z32645d2" d="M687 236Q687 240 689 245Q692 260 703 260Q721 257 753 204Q771 156 807 131Q825 118 811 102Q795 84 750 57Q735 48 661 63Q562 72 436 96Q372 108 322 115C309 118 327 153 340 150Q374 140 427 130C444 127 444 127 452 125Q501 115 567 107C595 104 595 104 609 102Q702 87 723 100Q729 104 724 124Q705 188 695 209C692 218 685 227 687 236Z"/>
<path id="z32645d3" d="M479 238Q479 237 480 235Q483 205 462 150Q459 144 457 137Q456 130 452 125C448 118 425 122 427 130Q433 154 438 203Q441 227 459 242C464 247 478 245 479 238Z"/>
<path id="z32645d4" d="M584 219Q585 215 588 211Q618 145 625 136Q635 126 627 118Q621 109 609 102C597 95 563 94 567 107Q579 131 556 224C554 233 580 228 584 219Z"/>
<path id="z32645d5" d="M371 281Q383 282 401 280Q564 252 687 236C696 234 704 211 695 209Q691 208 685 206Q672 203 584 219C565 222 565 222 556 224Q516 230 479 238C466 241 466 241 459 242Q411 246 368 256C360 258 363 281 371 281Z"/>
<path id="z32645d6" d="M335 509Q298 510 267 513Q242 514 255 499Q300 430 342 379Q354 364 352 358Q351 345 317 319Q304 309 288 311Q278 312 284 326Q296 359 238 464Q225 486 200 509Q184 522 186 532Q190 548 202 563Q212 572 222 566Q241 553 310 535Q313 534 316 535C327 535 346 509 335 509Z"/>
<path id="z32645d7" d="M399 608Q345 618 283 641Q267 648 277 634Q311 591 389 507Q414 474 439 456Q449 447 445 438Q436 420 407 402Q392 393 384 395Q375 398 376 412Q377 440 335 509C322 526 322 526 316 535Q226 644 208 656Q195 663 198 677Q199 689 222 706Q232 716 245 706Q302 661 405 624C410 622 405 607 399 608Z"/>
<path id="z32645d8" d="M405 624Q406 630 421 649Q428 655 437 650Q444 646 447 635Q450 607 409 564Q402 557 395 556Q391 555 389 562Q386 571 399 608C403 619 403 619 405 624Z"/>
<path id="z32645d9" d="M186 827Q202 858 217 895Q224 911 238 917Q248 920 257 910Q267 900 270 870Q271 839 200 782Q187 773 181 773Q175 774 171 787Q170 797 186 827Z"/>
<path id="z32645d10" d="M295 779Q331 836 343 838Q350 839 357 831Q364 821 363 797Q360 775 300 742Q290 738 284 738Q280 739 278 750Q279 759 295 779Z"/>
<path id="z32645d11" d="M395 729Q408 747 421 769Q428 779 440 782Q447 783 454 775Q458 765 458 743Q455 722 400 694Q390 690 384 690Q380 691 379 701Q380 710 395 729Z"/>
<path id="z32645d12" d="M543 455Q565 428 593 391Q606 369 618 360Q625 351 622 340Q618 330 596 312Q575 297 560 298Q545 299 551 316Q563 341 514 428Q490 468 457 512Q450 519 448 525Q445 534 456 531Q465 530 517 483C534 464 534 464 543 455Z"/>
<path id="z32645d13" d="M571 801Q575 530 578 511Q582 492 577 483Q573 467 543 455C531 450 509 473 517 483Q544 510 527 787Q523 818 514 856Q501 910 534 951Q544 964 554 952Q569 928 571 822C571 808 571 808 571 801Z"/>
<path id="z32645d14" d="M700 340Q752 385 765 384Q774 383 777 372Q781 359 772 335Q763 314 694 301Q681 300 676 301Q672 305 674 315Q677 324 700 340Z"/>
<path id="z32645d15" d="M726 470Q853 437 856 435Q863 428 859 421Q852 412 829 407Q816 404 734 430Q656 448 622 454Q592 460 614 472Q642 487 687 480C713 473 713 473 726 470Z"/>
<path id="z32645d16" d="M745 775Q746 730 747 690C747 666 747 666 747 654Q748 618 749 586C749 561 749 561 749 548Q749 532 751 514Q758 495 726 470C716 462 682 468 687 480Q697 501 702 564C702 587 702 587 702 599Q702 627 702 667C703 690 703 690 703 701Q703 737 704 782C704 796 745 789 745 775Z"/>
<path id="z32645d17" d="M749 586Q839 558 840 557Q847 551 843 545Q837 536 815 532Q794 529 749 548C718 559 718 559 702 564Q668 573 628 579Q601 586 622 597Q652 612 697 599Q698 599 702 599C718 599 733 589 749 586Z"/>
<path id="z32645d18" d="M747 690Q849 663 852 661Q858 655 854 649Q850 640 827 635Q800 629 747 654C717 663 717 663 702 667Q665 674 625 680Q598 684 618 697Q648 715 693 702Q696 701 703 701C732 694 732 694 747 690Z"/>
<path id="z32645d19" d="M704 782Q641 789 571 801C564 802 565 818 571 822Q598 841 625 834Q712 810 918 810Q934 809 939 802Q943 792 929 780Q881 744 822 761Q789 765 745 775C718 780 718 780 704 782Z"/>
<defs>
	<clipPath id="z32645c1"><use xlink:href="#z32645d1"/></clipPath>
	<clipPath id="z32645c2"><use xlink:href="#z32645d2"/></clipPath>
	<clipPath id="z32645c3"><use xlink:href="#z32645d3"/></clipPath>
	<clipPath id="z32645c4"><use xlink:href="#z32645d4"/></clipPath>
	<clipPath id="z32645c5"><use xlink:href="#z32645d5"/></clipPath>
	<clipPath id="z32645c6"><use xlink:href="#z32645d6"/></clipPath>
	<clipPath id="z32645c7"><use xlink:href="#z32645d7"/></clipPath>
	<clipPath id="z32645c8"><use xlink:href="#z32645d8"/></clipPath>
	<clipPath id="z32645c9"><use xlink:href="#z32645d9"/></clipPath>
	<clipPath id="z32645c10"><use xlink:href="#z32645d10"/></clipPath>
	<clipPath id="z32645c11"><use xlink:href="#z32645d11"/></clipPath>
	<clipPath id="z32645c12"><use xlink:href="#z32645d12"/></clipPath>
	<clipPath id="z32645c13"><use xlink:href="#z32645d13"/></clipPath>
	<clipPath id="z32645c14"><use xlink:href="#z32645d14"/></clipPath>
	<clipPath id="z32645c15"><use xlink:href="#z32645d15"/></clipPath>
	<clipPath id="z32645c16"><use xlink:href="#z32645d16"/></clipPath>
	<clipPath id="z32645c17"><use xlink:href="#z32645d17"/></clipPath>
	<clipPath id="z32645c18"><use xlink:href="#z32645d18"/></clipPath>
	<clipPath id="z32645c19"><use xlink:href="#z32645d19"/></clipPath>
</defs>
<path style="--d:1s;" pathLength="3333" clip-path="url(#z32645c1)" d="M274 119L316 159L365 290"/>
<path style="--d:2s;" pathLength="3333" clip-path="url(#z32645c2)" d="M333 120L732 76L771 119L701 255"/>
<path style="--d:3s;" pathLength="3333" clip-path="url(#z32645c3)" d="M443 131L465 238"/>
<path style="--d:4s;" pathLength="3333" clip-path="url(#z32645c4)" d="M574 110L600 137L563 217"/>
<path style="--d:5s;" pathLength="3333" clip-path="url(#z32645c5)" d="M374 262L689 216"/>
<path style="--d:6s;" pathLength="3333" clip-path="url(#z32645c6)" d="M291 320L316 367L221 522L237 539L328 515"/>
<path style="--d:7s;" pathLength="3333" clip-path="url(#z32645c7)" d="M386 400L408 441L237 661L257 676L400 616"/>
<path style="--d:8s;" pathLength="3333" clip-path="url(#z32645c8)" d="M396 566L435 646"/>
<path style="--d:9s;" pathLength="3333" clip-path="url(#z32645c9)" d="M179 782L236 861L244 913"/>
<path style="--d:10s;" pathLength="3333" clip-path="url(#z32645c10)" d="M287 743L353 831"/>
<path style="--d:11s;" pathLength="3333" clip-path="url(#z32645c11)" d="M387 699L444 774"/>
<path style="--d:12s;" pathLength="3333" clip-path="url(#z32645c12)" d="M557 307L585 352L455 524"/>
<path style="--d:13s;" pathLength="3333" clip-path="url(#z32645c13)" d="M526 480L555 509L543 953"/>
<path style="--d:14s;" pathLength="3333" clip-path="url(#z32645c14)" d="M680 309L769 378"/>
<path style="--d:15s;" pathLength="3333" clip-path="url(#z32645c15)" d="M615 464L854 426"/>
<path style="--d:16s;" pathLength="3333" clip-path="url(#z32645c16)" d="M694 483L724 513L717 779"/>
<path style="--d:17s;" pathLength="3333" clip-path="url(#z32645c17)" d="M622 587L837 545"/>
<path style="--d:18s;" pathLength="3333" clip-path="url(#z32645c18)" d="M615 687L850 652"/>
<path style="--d:19s;" pathLength="3333" clip-path="url(#z32645c19)" d="M577 808L856 783L936 798"/>
</svg>