<!--
AnimCJK 2016-2026 Copyright FM-SH, https://github.com/parsimonhi/animCJK
Derived from:
    MakeMeAHanzi project - https://github.com/skishore/makemeahanzi
    Arphic PL KaitiM GB font
    Arphic PL KaitiM Big5 font
You can redistribute and/or modify this file under the terms of the Arphic Public License
as published by Arphic Technology Co., Ltd.
You should have received a copy of this license along with this file.
If not, see https://ftp.gnu.org/non-gnu/chinese-fonts-truetype/LICENSE.
-->
<svg id="z32643" class="acjk" viewBox="0 0 1024 1024" xmlns="http://www.w3.org/2000/svg">
<style>
<![CDATA[
@keyframes zk {
	to {
		stroke-dashoffset:0;
	}
}
svg.acjk path[clip-path] {
	--t:0.8s;
	animation:zk var(--t) linear forwards var(--d);
	stroke-dasharray:3337;
	stroke-dashoffset:3339;
	stroke-width:128;
	stroke-linecap:round;
	fill:none;
	stroke:#000;
}
svg.acjk path[id] {fill:#ccc;}
]]>
</style>
<path id="z32643d1" d="M244 127C219 123 191 125 216 153C243 183 255 202 271 253C274 267 282 279 293 289C305 301 314 298 318 279C320 266 316 259 314 251C308 227 296 211 286 164C282 146 262 131 244 127Z"/>
<path id="z32643d2" d="M690 233C691 257 706 263 724 245C739 233 747 222 758 201C774 170 788 162 813 145C826 136 827 125 819 116C807 103 785 88 756 69C747 61 722 65 676 71C547 88 320 126 244 127C225 127 269 171 286 164C308 157 355 146 390 141C404 138 404 138 411 137C447 131 507 121 557 115C579 112 579 112 590 110C639 103 674 101 698 102C728 104 732 107 726 133C716 170 703 186 690 225C689 227 690 230 690 233Z"/>
<path id="z32643d3" d="M448 234C444 190 433 165 411 137C407 131 389 134 390 141C395 173 395 209 422 237C427 244 448 243 448 234Z"/>
<path id="z32643d4" d="M573 213C589 186 597 172 615 151C620 143 622 139 618 134C612 125 603 117 590 110C580 104 553 105 557 115C570 147 559 168 544 218C540 227 567 221 573 213Z"/>
<path id="z32643d5" d="M318 279C325 280 666 238 690 233C693 233 692 227 690 225C663 186 634 201 573 213C554 216 554 216 544 218C516 223 472 230 448 234C431 236 431 236 422 237C389 241 341 246 314 251C305 253 309 279 318 279Z"/>
<path id="z32643d6" d="M608 351C628 350 678 349 752 349C771 348 780 337 763 323C742 306 720 296 629 311C592 317 592 317 573 320C542 324 468 335 427 340C396 343 396 343 380 345C338 349 299 354 255 360C244 361 242 364 251 375C265 391 287 395 304 391C331 384 359 377 391 372C416 368 416 368 429 366C460 360 543 354 568 353C595 352 595 352 608 351Z"/>
<path id="z32643d7" d="M427 340C424 305 433 304 408 294C341 265 340 296 353 310C365 323 373 327 380 345C387 363 387 363 391 372C398 389 410 411 414 415C420 421 426 420 429 413C431 402 430 390 429 366C428 349 428 349 427 340Z"/>
<path id="z32643d8" d="M577 403C589 383 601 364 608 351C622 324 622 324 629 311C634 300 639 293 642 287C651 271 622 262 602 255C579 246 564 252 570 269C576 287 576 295 573 320C570 342 570 342 568 353C565 370 559 391 558 407C557 413 573 408 577 403Z"/>
<path id="z32643d9" d="M374 437C349 430 314 412 331 448C344 477 359 495 368 544C370 556 374 569 383 580C395 595 403 590 405 573C405 566 404 560 404 554C401 539 398 528 397 520C394 507 394 507 393 500C388 478 387 472 387 463C387 453 384 439 374 437Z"/>
<path id="z32643d10" d="M565 556C569 578 583 598 604 577C611 568 622 547 640 496C645 479 654 474 669 462C676 455 677 448 671 440C662 430 647 417 625 402C612 394 596 398 577 403C564 406 564 406 558 407C513 416 447 424 374 437C364 439 378 466 387 463C429 451 517 437 559 432C594 427 599 442 597 456C592 480 578 516 568 535C564 541 564 549 565 556Z"/>
<path id="z32643d11" d="M397 520C409 519 498 505 538 501C562 498 549 476 522 474C502 472 466 481 393 500C386 501 390 521 397 520Z"/>
<path id="z32643d12" d="M462 567C493 561 535 557 565 556C572 556 575 538 568 535C519 518 453 544 404 554C398 555 399 573 405 573C409 573 418 574 427 573C450 569 450 569 462 567Z"/>
<path id="z32643d13" d="M448 642C467 640 514 632 595 630C616 629 616 629 626 629C667 627 715 626 766 629C821 631 870 631 830 599C791 568 763 566 736 573C677 588 528 604 476 610C431 615 431 615 408 617C339 624 267 630 192 638C179 639 177 644 187 656C202 675 233 678 249 675C292 664 338 653 390 648C429 644 429 644 448 642Z"/>
<path id="z32643d14" d="M374 721C397 700 439 653 448 642C467 621 467 621 476 610C497 588 485 582 462 567C452 561 429 561 427 573C423 591 418 599 408 617C393 638 393 638 386 648C364 681 286 753 144 820C105 838 113 849 149 839C243 815 324 765 355 739C368 727 368 727 374 721Z"/>
<path id="z32643d15" d="M595 630C642 684 690 727 742 779C754 791 771 798 793 799C832 800 873 797 913 790C948 783 931 778 920 774C816 735 774 719 760 712C715 687 659 654 626 629C618 623 589 622 595 630Z"/>
<path id="z32643d16" d="M388 737C386 734 381 730 374 721C369 714 351 732 355 739C364 751 367 772 359 818C355 840 355 860 374 879C375 880 386 890 393 873C399 856 400 837 402 819C402 801 405 796 402 763C400 753 392 745 388 737Z"/>
<path id="z32643d17" d="M525 744C547 740 568 738 590 738C606 738 614 743 615 756C616 774 616 795 616 811C617 845 589 829 566 823C545 817 548 828 555 836C580 861 599 885 616 904C623 913 633 913 642 904C658 885 669 858 668 824C666 790 665 773 670 749C672 738 669 729 664 724C648 711 636 699 626 694C617 689 607 694 595 700C583 705 555 715 526 719C496 723 496 723 481 725C460 727 426 731 388 737C378 739 392 763 402 763C424 763 439 755 482 750C511 746 511 746 525 744Z"/>
<path id="z32643d18" d="M485 956C487 975 511 1014 520 935C521 921 523 779 525 744C526 727 526 727 526 719C526 701 541 680 524 667C479 633 458 653 467 666C475 679 479 698 481 725C482 742 482 742 482 750C485 844 481 925 485 956Z"/>
<defs>
	<clipPath id="z32643c1"><use href="#z32643d1"/></clipPath>
	<clipPath id="z32643c2"><use href="#z32643d2"/></clipPath>
	<clipPath id="z32643c3"><use href="#z32643d3"/></clipPath>
	<clipPath id="z32643c4"><use href="#z32643d4"/></clipPath>
	<clipPath id="z32643c5"><use href="#z32643d5"/></clipPath>
	<clipPath id="z32643c6"><use href="#z32643d6"/></clipPath>
	<clipPath id="z32643c7"><use href="#z32643d7"/></clipPath>
	<clipPath id="z32643c8"><use href="#z32643d8"/></clipPath>
	<clipPath id="z32643c9"><use href="#z32643d9"/></clipPath>
	<clipPath id="z32643c10"><use href="#z32643d10"/></clipPath>
	<clipPath id="z32643c11"><use href="#z32643d11"/></clipPath>
	<clipPath id="z32643c12"><use href="#z32643d12"/></clipPath>
	<clipPath id="z32643c13"><use href="#z32643d13"/></clipPath>
	<clipPath id="z32643c14"><use href="#z32643d14"/></clipPath>
	<clipPath id="z32643c15"><use href="#z32643d15"/></clipPath>
	<clipPath id="z32643c16"><use href="#z32643d16"/></clipPath>
	<clipPath id="z32643c17"><use href="#z32643d17"/></clipPath>
	<clipPath id="z32643c18"><use href="#z32643d18"/></clipPath>
</defs>
<path style="--d:1s;" pathLength="3333" clip-path="url(#z32643c1)" d="M211 136L261 169L307 290"/>
<path style="--d:2s;" pathLength="3333" clip-path="url(#z32643c2)" d="M248 134L739 88L773 137L702 249"/>
<path style="--d:3s;" pathLength="3333" clip-path="url(#z32643c3)" d="M400 141L434 238"/>
<path style="--d:4s;" pathLength="3333" clip-path="url(#z32643c4)" d="M567 115L589 149L551 218"/>
<path style="--d:5s;" pathLength="3333" clip-path="url(#z32643c5)" d="M311 265L686 222"/>
<path style="--d:6s;" pathLength="3333" clip-path="url(#z32643c6)" d="M254 367L767 331"/>
<path style="--d:7s;" pathLength="3333" clip-path="url(#z32643c7)" d="M351 292L399 319L417 412"/>
<path style="--d:8s;" pathLength="3333" clip-path="url(#z32643c8)" d="M576 258L609 291L565 403"/>
<path style="--d:9s;" pathLength="3333" clip-path="url(#z32643c9)" d="M335 434L363 459L394 582"/>
<path style="--d:10s;" pathLength="3333" clip-path="url(#z32643c10)" d="M376 444L611 422L635 457L580 580"/>
<path style="--d:11s;" pathLength="3333" clip-path="url(#z32643c11)" d="M393 508L545 489"/>
<path style="--d:12s;" pathLength="3333" clip-path="url(#z32643c12)" d="M407 565L567 542"/>
<path style="--d:13s;" pathLength="3333" clip-path="url(#z32643c13)" d="M187 646L750 599L840 615"/>
<path style="--d:14s;" pathLength="3333" clip-path="url(#z32643c14)" d="M437 567L449 602L337 727L127 836"/>
<path style="--d:15s;" pathLength="3333" clip-path="url(#z32643c15)" d="M602 628L768 755L925 782"/>
<path style="--d:16s;" pathLength="3333" clip-path="url(#z32643c16)" d="M368 724L379 878"/>
<path style="--d:17s;" pathLength="3333" clip-path="url(#z32643c17)" d="M390 744L617 719L642 746L634 854L612 870L556 828"/>
<path style="--d:18s;" pathLength="3333" clip-path="url(#z32643c18)" d="M471 656L504 686L501 977"/>
</svg>