<!--
AnimCJK 2016-2026 Copyright FM-SH, https://github.com/parsimonhi/animCJK
Derived from:
    MakeMeAHanzi project - https://github.com/skishore/makemeahanzi
    Arphic PL KaitiM GB font
    Arphic PL KaitiM Big5 font
You can redistribute and/or modify this file under the terms of the Arphic Public License
as published by Arphic Technology Co., Ltd.
You should have received a copy of this license along with this file.
If not, see https://ftp.gnu.org/non-gnu/chinese-fonts-truetype/LICENSE.
-->
<svg id="z32647" class="acjk" viewBox="0 0 1024 1024" xmlns="http://www.w3.org/2000/svg">
<style>
<![CDATA[
@keyframes zk {
	to {
		stroke-dashoffset:0;
	}
}
svg.acjk path[clip-path] {
	--t:0.8s;
	animation:zk var(--t) linear forwards var(--d);
	stroke-dasharray:3337;
	stroke-dashoffset:3339;
	stroke-width:128;
	stroke-linecap:round;
	fill:none;
	stroke:#000;
}
svg.acjk path[id] {fill:#ccc;}
]]>
</style>
<path id="z32647d1" d="M244 127C219 123 191 125 216 153C243 183 255 202 271 253C274 267 282 279 293 289C305 301 314 298 318 279C320 266 316 259 314 251C308 227 296 211 286 164C282 146 262 131 244 127Z"/>
<path id="z32647d2" d="M690 233C691 257 706 263 724 245C739 233 747 222 758 201C774 170 788 162 813 145C826 136 827 125 819 116C807 103 785 88 756 69C747 61 722 65 676 71C547 88 320 126 244 127C225 127 269 171 286 164C308 157 355 146 390 141C404 138 404 138 411 137C447 131 507 121 557 115C579 112 579 112 590 110C639 103 674 101 698 102C728 104 732 107 726 133C716 170 703 186 690 225C689 227 690 230 690 233Z"/>
<path id="z32647d3" d="M448 234C444 190 433 165 411 137C407 131 389 134 390 141C395 173 395 209 422 237C427 244 448 243 448 234Z"/>
<path id="z32647d4" d="M573 213C589 186 597 172 615 151C620 143 622 139 618 134C612 125 603 117 590 110C580 104 553 105 557 115C570 147 559 168 544 218C540 227 567 221 573 213Z"/>
<path id="z32647d5" d="M318 279C325 280 666 238 690 233C693 233 692 227 690 225C663 186 634 201 573 213C554 216 554 216 544 218C516 223 472 230 448 234C431 236 431 236 422 237C389 241 341 246 314 251C305 253 309 279 318 279Z"/>
<path id="z32647d6" d="M400 407C422 402 454 395 476 393C481 392 505 387 474 369C458 360 432 362 409 369C380 377 380 377 365 381C347 385 289 402 273 406C247 411 247 411 234 414C211 418 176 422 152 428C139 431 136 435 148 443C173 461 212 451 240 444C263 438 263 438 275 435C300 428 328 421 361 415C387 410 387 410 400 407Z"/>
<path id="z32647d7" d="M273 406C269 362 284 351 233 337C194 325 188 342 204 358C220 374 227 382 234 414C238 434 238 434 240 444C248 484 253 504 256 523C264 569 279 548 279 518C279 501 279 501 279 492C279 469 276 457 275 435C274 416 274 416 273 406Z"/>
<path id="z32647d8" d="M381 471C383 456 396 423 400 407C406 382 406 382 409 369C420 320 457 314 384 285C372 280 354 283 363 303C373 328 367 361 365 381C362 404 362 404 361 415C359 427 353 455 350 470C348 480 379 481 381 471Z"/>
<path id="z32647d9" d="M310 513C328 507 356 501 395 497C399 496 403 493 403 489C403 484 396 478 381 471C371 467 360 468 350 470C336 473 301 486 279 492C248 504 279 525 310 513Z"/>
<path id="z32647d10" d="M176 605C154 597 148 607 158 623C172 646 185 665 196 706C198 718 205 728 213 736C228 751 231 742 232 728C232 719 231 711 229 703C223 685 213 652 211 632C208 618 190 610 176 605Z"/>
<path id="z32647d11" d="M425 668C434 648 452 622 464 611C473 602 472 591 465 584C457 577 439 568 413 557C403 552 377 565 331 578C306 585 306 585 293 588C239 602 199 606 176 605C161 605 197 637 211 632C234 624 262 620 294 613C318 608 318 608 330 605C341 602 353 599 367 596C382 591 401 593 399 615C397 628 392 644 388 663C386 675 420 680 425 668Z"/>
<path id="z32647d12" d="M329 709C358 702 396 696 434 693C448 691 448 677 425 668C413 663 400 661 388 663C388 663 348 674 329 680C317 683 316 684 295 689C270 694 249 699 229 703C221 704 224 728 232 728C252 727 274 720 295 716C318 711 318 711 329 709Z"/>
<path id="z32647d13" d="M330 807C367 795 432 781 482 773C505 768 495 751 481 745C467 738 448 737 436 741C403 749 354 763 329 770C304 777 304 777 292 780C170 812 126 818 113 820C94 822 106 836 118 843C135 852 166 860 197 850C231 838 260 827 289 819C316 811 316 811 330 807Z"/>
<path id="z32647d14" d="M329 770C328 755 329 720 329 709C329 690 329 690 329 680C329 660 329 620 330 605C331 587 331 587 331 578C332 547 343 525 310 513C300 509 275 508 279 518C283 524 291 549 293 588C294 605 294 605 294 613C294 627 295 665 295 689C295 707 295 707 295 716C295 725 293 757 292 780C290 806 290 806 289 819C287 841 280 883 285 904C298 964 333 958 334 890C334 867 330 825 330 807C329 782 329 782 329 770Z"/>
<path id="z32647d15" d="M680 399C710 393 740 386 772 380C795 375 810 369 814 366C816 363 830 345 791 340C771 337 744 350 687 364C657 371 657 371 642 375C613 382 571 385 541 389C521 390 518 397 533 406C558 419 602 414 634 408C665 402 665 402 680 399Z"/>
<path id="z32647d16" d="M634 408C621 439 592 492 555 521C518 548 531 555 569 537C632 505 669 432 680 399C683 387 684 375 687 364C692 339 697 320 704 308C708 297 705 292 698 287C687 280 675 274 663 271C638 264 628 272 636 285C648 304 648 333 642 375C640 386 638 397 634 408Z"/>
<path id="z32647d17" d="M699 464C714 476 731 490 749 505C776 526 780 496 774 476C771 466 762 455 746 449C727 440 711 436 700 433C691 432 675 429 680 444C681 447 685 454 699 464Z"/>
<path id="z32647d18" d="M779 560C807 556 841 554 879 553C890 552 902 551 913 551C949 547 931 533 922 526C892 504 861 504 829 513C746 534 633 554 491 578C481 579 480 583 489 592C504 605 525 608 548 602C601 585 693 570 740 565C766 562 766 562 779 560Z"/>
<path id="z32647d19" d="M564 654C544 644 513 634 527 663C538 686 548 717 556 757C561 787 595 816 587 768C584 752 584 752 583 744C577 710 574 689 573 677C571 669 572 657 564 654Z"/>
<path id="z32647d20" d="M680 727C687 701 697 685 706 676C718 663 716 652 706 646C696 640 685 633 673 625C664 619 648 624 626 636C613 642 592 646 564 654C556 656 565 680 573 677C585 672 604 668 631 663C668 655 645 709 641 728C639 741 677 740 680 727Z"/>
<path id="z32647d21" d="M587 768C597 770 622 761 694 756C704 755 713 748 680 727C670 719 654 725 641 728C619 734 600 739 583 744C575 747 579 768 587 768Z"/>
<path id="z32647d22" d="M740 565C749 585 756 585 756 643C755 673 754 785 749 826C749 883 712 873 667 865C649 861 656 874 668 884C694 904 717 922 737 940C750 952 761 969 776 949C802 912 805 870 806 830C806 791 806 654 810 618C813 585 805 575 779 560C768 553 735 553 740 565Z"/>
<defs>
	<clipPath id="z32647c1"><use href="#z32647d1"/></clipPath>
	<clipPath id="z32647c2"><use href="#z32647d2"/></clipPath>
	<clipPath id="z32647c3"><use href="#z32647d3"/></clipPath>
	<clipPath id="z32647c4"><use href="#z32647d4"/></clipPath>
	<clipPath id="z32647c5"><use href="#z32647d5"/></clipPath>
	<clipPath id="z32647c6"><use href="#z32647d6"/></clipPath>
	<clipPath id="z32647c7"><use href="#z32647d7"/></clipPath>
	<clipPath id="z32647c8"><use href="#z32647d8"/></clipPath>
	<clipPath id="z32647c9"><use href="#z32647d9"/></clipPath>
	<clipPath id="z32647c10"><use href="#z32647d10"/></clipPath>
	<clipPath id="z32647c11"><use href="#z32647d11"/></clipPath>
	<clipPath id="z32647c12"><use href="#z32647d12"/></clipPath>
	<clipPath id="z32647c13"><use href="#z32647d13"/></clipPath>
	<clipPath id="z32647c14"><use href="#z32647d14"/></clipPath>
	<clipPath id="z32647c15"><use href="#z32647d15"/></clipPath>
	<clipPath id="z32647c16"><use href="#z32647d16"/></clipPath>
	<clipPath id="z32647c17"><use href="#z32647d17"/></clipPath>
	<clipPath id="z32647c18"><use href="#z32647d18"/></clipPath>
	<clipPath id="z32647c19"><use href="#z32647d19"/></clipPath>
	<clipPath id="z32647c20"><use href="#z32647d20"/></clipPath>
	<clipPath id="z32647c21"><use href="#z32647d21"/></clipPath>
	<clipPath id="z32647c22"><use href="#z32647d22"/></clipPath>
</defs>
<path style="--d:1s;" pathLength="3333" clip-path="url(#z32647c1)" d="M211 136L261 169L307 290"/>
<path style="--d:2s;" pathLength="3333" clip-path="url(#z32647c2)" d="M248 134L739 88L773 137L702 249"/>
<path style="--d:3s;" pathLength="3333" clip-path="url(#z32647c3)" d="M400 141L434 238"/>
<path style="--d:4s;" pathLength="3333" clip-path="url(#z32647c4)" d="M567 115L589 149L551 218"/>
<path style="--d:5s;" pathLength="3333" clip-path="url(#z32647c5)" d="M311 265L686 222"/>
<path style="--d:6s;" pathLength="3333" clip-path="url(#z32647c6)" d="M151 434L482 381"/>
<path style="--d:7s;" pathLength="3333" clip-path="url(#z32647c7)" d="M204 344L249 377L269 540"/>
<path style="--d:8s;" pathLength="3333" clip-path="url(#z32647c8)" d="M370 294L398 328L363 475"/>
<path style="--d:9s;" pathLength="3333" clip-path="url(#z32647c9)" d="M272 503L396 487"/>
<path style="--d:10s;" pathLength="3333" clip-path="url(#z32647c10)" d="M161 610L188 632L221 738"/>
<path style="--d:11s;" pathLength="3333" clip-path="url(#z32647c11)" d="M182 610L403 577L434 603L398 670"/>
<path style="--d:12s;" pathLength="3333" clip-path="url(#z32647c12)" d="M227 716L437 680"/>
<path style="--d:13s;" pathLength="3333" clip-path="url(#z32647c13)" d="M111 826L174 832L491 756"/>
<path style="--d:14s;" pathLength="3333" clip-path="url(#z32647c14)" d="M286 518L312 552L308 939"/>
<path style="--d:15s;" pathLength="3333" clip-path="url(#z32647c15)" d="M532 398L814 356"/>
<path style="--d:16s;" pathLength="3333" clip-path="url(#z32647c16)" d="M640 277L675 306L654 411L614 480L543 541"/>
<path style="--d:17s;" pathLength="3333" clip-path="url(#z32647c17)" d="M687 441L771 504"/>
<path style="--d:18s;" pathLength="3333" clip-path="url(#z32647c18)" d="M492 584L856 530L930 540"/>
<path style="--d:19s;" pathLength="3333" clip-path="url(#z32647c19)" d="M531 650L580 788"/>
<path style="--d:20s;" pathLength="3333" clip-path="url(#z32647c20)" d="M565 664L675 655L654 735"/>
<path style="--d:21s;" pathLength="3333" clip-path="url(#z32647c21)" d="M581 754L698 747"/>
<path style="--d:22s;" pathLength="3333" clip-path="url(#z32647c22)" d="M747 563L783 610L772 870L741 914L663 869"/>
</svg>