<!--
AnimCJK 2016-2017 Copyright Francois Mizessyn, http://gooo.free.fr/animCJK/
Derived from:
    MakeMeAHanzi project - https://github.com/skishore/makemeahanzi
    Arphic PL KaitiM GB - https://apps.ubuntu.com/cat/applications/precise/fonts-arphic-gkai00mp/
    Arphic PL UKai - https://apps.ubuntu.com/cat/applications/fonts-arphic-ukai/
You can redistribute and/or modify this file under the terms of the Arphic Public License
as published by Arphic Technology Co., Ltd.
You should have received a copy of this license (the directory "APL") along with this file;
if not, see http://ftp.gnu.org/non-gnu/chinese-fonts-truetype/LICENSE.
-->
<svg id="z32705" class="acjk" version="1.1" viewBox="0 0 1024 1024" xmlns="http://www.w3.org/2000/svg" xmlns:xlink="http://www.w3.org/1999/xlink">
<style>
<![CDATA[
	@keyframes z32705k {
		from {
			stroke:#c00;
			stroke-dashoffset:3000;
		}
		75% {
			stroke:#c00;
			stroke-dashoffset:0;
		}
		to {
			stroke:#000;
		}
	}
	#z32705 path[clip-path] {
		animation:z32705k 1s linear both;
		stroke-dasharray:3000;
		stroke-width:128;
		stroke-linecap:round;
		fill:none;
	}
	#z32705 path[clip-path="url(#z32705c1)"] {animation-delay:1s;}
	#z32705 path[clip-path="url(#z32705c2)"] {animation-delay:2s;}
	#z32705 path[clip-path="url(#z32705c3)"] {animation-delay:3s;}
	#z32705 path[clip-path="url(#z32705c4)"] {animation-delay:4s;}
	#z32705 path[clip-path="url(#z32705c5)"] {animation-delay:5s;}
	#z32705 path[clip-path="url(#z32705c6)"] {animation-delay:6s;}
	#z32705 path[clip-path="url(#z32705c7)"] {animation-delay:7s;}
	#z32705 path[clip-path="url(#z32705c8)"] {animation-delay:8s;}
	#z32705 path[clip-path="url(#z32705c9)"] {animation-delay:9s;}
	#z32705 path[clip-path="url(#z32705c10)"] {animation-delay:10s;}
	#z32705 path {fill:#ccc;}
]]>
</style>
<g transform="scale(1,-1) translate(0,-900)">
	<path id="z32705d1" d="M382 798Q382 746 279 659Q276 658 275 656Q247 634 175 590Q168 587 176 583Q206 577 306 630Q390 693 430 731Q439 738 443 742Q450 745 452 754Q452 763 443 776Q419 809 390 809Q383 809 382 798Z"/>
	<path id="z32705d2" d="M531 827Q555 827 602 769Q711 612 778 613Q860 612 928 620Q938 624 942 631Q945 638 927 641Q780 690 778 691Q706 733 609 822Q573 858 520 847Q511 843 516 835Q520 828 531 827Z"/>
	<path id="z32705d3" d="M613 552Q519 543 420 523Q408 520 405 523Q404 527 410 533Q501 624 521 640Q534 647 529 660Q525 673 483 700Q468 710 459 707Q446 703 449 683Q459 614 348 535Q336 529 323 521Q308 511 311 500Q314 484 336 462Q345 452 358 460Q410 494 626 529Q627 530 631 529L613 552Z"/>
	<path id="z32705d4" d="M631 529Q658 498 670 495Q679 494 685 505Q692 517 688 544Q685 574 595 619Q582 623 576 623Q572 620 571 609Q571 606 613 552L631 529Z"/>
	<path id="z32705d5" d="M345 77Q320 84 294 91Q275 97 277 88Q329 42 358 8Q370 -8 384 -14Q391 -18 400 -9Q437 42 439 83Q426 341 448 378Q460 394 449 405Q431 421 399 437Q383 444 368 437Q319 410 235 402Q222 401 229 393Q236 383 250 378Q260 375 359 396Q375 402 381 392Q387 368 385 223Q382 94 368 77Q364 71 345 77Z"/>
	<path id="z32705d6" d="M221 298Q239 283 258 265Q271 255 284 256Q294 257 297 268Q301 281 291 307Q287 320 263 329Q209 344 196 339Q192 335 194 324Q197 314 221 298Z"/>
	<path id="z32705d7" d="M134 153Q121 149 121 139Q121 126 132 121Q156 109 190 97Q200 96 210 106Q234 133 321 198Q334 208 343 219Q353 228 352 237Q346 241 335 236Q167 157 134 153Z"/>
	<path id="z32705d8" d="M677 60Q650 64 624 70Q603 77 604 67Q661 18 693 -20Q706 -41 723 -46Q733 -50 742 -40Q787 15 785 69Q761 370 787 410Q800 429 787 441Q765 460 727 477Q708 484 691 478Q636 445 530 433Q514 432 524 422Q533 412 548 405Q564 402 681 429Q700 435 707 424Q725 376 715 117Q703 63 703 60Q697 54 677 60Z"/>
	<path id="z32705d9" d="M537 322Q556 306 578 285Q591 275 604 276Q613 277 617 288Q621 301 612 327Q603 351 531 363Q518 364 512 363Q508 359 509 348Q513 338 537 322Z"/>
	<path id="z32705d10" d="M480 175Q470 171 469 161Q470 149 479 144Q503 134 535 123Q545 122 554 132Q573 154 597 174Q633 201 668 229Q681 239 691 251Q701 260 700 268Q694 272 684 268Q513 178 480 175Z"/>
	<defs>
		<clipPath id="z32705c1"><use xlink:href="#z32705d1"/></clipPath>
		<clipPath id="z32705c2"><use xlink:href="#z32705d2"/></clipPath>
		<clipPath id="z32705c3"><use xlink:href="#z32705d3"/></clipPath>
		<clipPath id="z32705c4"><use xlink:href="#z32705d4"/></clipPath>
		<clipPath id="z32705c5"><use xlink:href="#z32705d5"/></clipPath>
		<clipPath id="z32705c6"><use xlink:href="#z32705d6"/></clipPath>
		<clipPath id="z32705c7"><use xlink:href="#z32705d7"/></clipPath>
		<clipPath id="z32705c8"><use xlink:href="#z32705d8"/></clipPath>
		<clipPath id="z32705c9"><use xlink:href="#z32705d9"/></clipPath>
		<clipPath id="z32705c10"><use xlink:href="#z32705d10"/></clipPath>
	</defs>
	<path pathLength="2999" clip-path="url(#z32705c1)" d="M391 804L412 759L380 722L294 646L180 588"/>
	<path pathLength="2999" clip-path="url(#z32705c2)" d="M523 839L580 821L759 658L934 630"/>
	<path pathLength="2999" clip-path="url(#z32705c3)" d="M458 703L486 646L361 517L370 494L621 534"/>
	<path pathLength="2999" clip-path="url(#z32705c4)" d="M579 614L677 501"/>
	<path pathLength="2999" clip-path="url(#z32705c5)" d="M237 394L381 418L418 388L401 66L373 31L289 89"/>
	<path pathLength="2999" clip-path="url(#z32705c6)" d="M200 333L288 262"/>
	<path pathLength="2999" clip-path="url(#z32705c7)" d="M126 144L193 135L342 232"/>
	<path pathLength="2999" clip-path="url(#z32705c8)" d="M532 424L705 455L751 420L737 33L713 4L611 68"/>
	<path pathLength="2999" clip-path="url(#z32705c9)" d="M517 357L585 317L605 280"/>
	<path pathLength="2999" clip-path="url(#z32705c10)" d="M474 165L535 158L693 263"/>
</g>
</svg>