<!--
AnimCJK 2016-2018 Copyright Francois Mizessyn, https://github.com/parsimonhi/animCJK
Derived from:
    MakeMeAHanzi project - https://github.com/skishore/makemeahanzi
    Arphic PL KaitiM GB - https://apps.ubuntu.com/cat/applications/precise/fonts-arphic-gkai00mp/
    Arphic PL UKai - https://apps.ubuntu.com/cat/applications/fonts-arphic-ukai/
You can redistribute and/or modify this file under the terms of the Arphic Public License
as published by Arphic Technology Co., Ltd.
You should have received a copy of this license (the directory "APL") along with this file;
if not, see http://ftp.gnu.org/non-gnu/chinese-fonts-truetype/LICENSE.
-->
<svg id="z32716" class="acjk" version="1.1" viewBox="0 0 1024 1024" xmlns="http://www.w3.org/2000/svg" xmlns:xlink="http://www.w3.org/1999/xlink">
<style>
<![CDATA[
@keyframes z32716k {
	from {
		stroke:#c00;
		stroke-dashoffset:3334;
	}
	75% {
		stroke:#c00;
		stroke-dashoffset:0;
	}
	to {
		stroke:#000;
	}
}
#z32716 path[clip-path] {
	animation:z32716k 1s linear both;
	stroke-dasharray:3334;
	stroke-width:128;
	stroke-linecap:round;
	fill:none;
}
#z32716 path[clip-path="url(#z32716c1)"] {animation-delay:1s;}
#z32716 path[clip-path="url(#z32716c2)"] {animation-delay:2s;}
#z32716 path[clip-path="url(#z32716c3)"] {animation-delay:3s;}
#z32716 path[clip-path="url(#z32716c4)"] {animation-delay:4s;}
#z32716 path[clip-path="url(#z32716c5)"] {animation-delay:5s;}
#z32716 path[clip-path="url(#z32716c6)"] {animation-delay:6s;}
#z32716 path[clip-path="url(#z32716c7)"] {animation-delay:7s;}
#z32716 path[clip-path="url(#z32716c8)"] {animation-delay:8s;}
#z32716 path[clip-path="url(#z32716c9)"] {animation-delay:9s;}
#z32716 path[clip-path="url(#z32716c10)"] {animation-delay:10s;}
#z32716 path[clip-path="url(#z32716c11)"] {animation-delay:11s;}
#z32716 path {fill:#ccc;}
]]>
</style>
<path id="z32716d1" d="M222 164Q207 165 205 170Q202 174 218 184Q243 194 277 187Q373 154 401 162Q414 169 410 213Q389 375 377 408Q373 424 378 439Q384 452 395 451Q408 448 414 435Q432 404 449 262Q461 213 492 184Q508 168 493 154Q475 141 428 119Q410 110 362 128Q319 137 282 149Q245 159 222 164 Z"/>
<path id="z32716d2" d="M242 262Q263 277 285 294Q297 303 310 301Q319 300 321 288Q324 275 313 252Q307 239 283 231Q223 219 216 225Q212 229 214 239Q218 248 242 262 Z"/>
<path id="z32716d3" d="M164 426Q154 430 154 440Q155 452 166 457Q190 464 224 472Q234 472 242 461Q260 433 341 357Q353 345 360 333Q369 323 367 315Q357 309 283 361Q184 421 164 426 Z"/>
<path id="z32716d4" d="M555 123Q539 123 537 128Q533 132 549 144Q576 156 610 149Q707 121 724 131Q739 138 732 184Q707 353 692 387Q685 406 692 424Q699 440 712 439Q725 436 734 420Q753 390 777 251Q793 196 831 163Q850 145 833 130Q814 112 760 86Q744 77 690 92Q648 98 612 110Q578 119 555 123 Z"/>
<path id="z32716d5" d="M568 233Q587 246 607 264Q617 273 630 271Q639 270 641 260Q644 248 635 226Q626 205 560 197Q548 196 544 197Q540 201 542 211Q546 218 568 233 Z"/>
<path id="z32716d6" d="M502 358Q492 359 491 371Q491 381 503 386Q534 399 547 403Q562 406 577 393Q590 377 661 319Q674 312 678 304Q682 297 674 295Q670 295 540 351Q525 357 502 358 Z"/>
<path id="z32716d7" d="M537 519Q544 501 537 473Q531 457 507 447Q447 429 436 433Q432 437 433 448Q433 449 502 514Q509 520 515 523L537 519 Z"/>
<path id="z32716d8" d="M515 523Q502 524 486 528Q404 541 309 543Q272 547 296 566Q339 593 395 584Q521 568 651 550Q712 540 721 533Q730 526 726 516Q719 503 691 494Q660 485 629 495Q584 508 537 519L515 523 Z"/>
<path id="z32716d9" d="M336 662Q381 764 404 773Q417 779 429 762Q435 749 432 726Q423 684 350 636Q341 632 336 643Q332 650 336 662 Z"/>
<path id="z32716d10" d="M539 810Q587 741 612 700Q625 678 648 650Q664 637 656 626Q646 607 615 584Q600 572 582 578Q570 582 577 595Q586 640 515 785Q508 800 505 812L539 810 Z"/>
<path id="z32716d11" d="M510 857Q559 856 606 852Q726 842 861 859Q885 863 891 854Q898 841 887 829Q859 801 815 780Q800 773 775 781Q720 790 539 810L505 812Q474 812 312 829Q249 836 155 836Q142 835 139 847Q138 859 157 874Q173 887 204 899Q214 903 233 896Q249 892 315 882Q403 864 510 857 Z"/>
<defs>
	<clipPath id="z32716c1"><use xlink:href="#z32716d1"/></clipPath>
	<clipPath id="z32716c2"><use xlink:href="#z32716d2"/></clipPath>
	<clipPath id="z32716c3"><use xlink:href="#z32716d3"/></clipPath>
	<clipPath id="z32716c4"><use xlink:href="#z32716d4"/></clipPath>
	<clipPath id="z32716c5"><use xlink:href="#z32716d5"/></clipPath>
	<clipPath id="z32716c6"><use xlink:href="#z32716d6"/></clipPath>
	<clipPath id="z32716c7"><use xlink:href="#z32716d7"/></clipPath>
	<clipPath id="z32716c8"><use xlink:href="#z32716d8"/></clipPath>
	<clipPath id="z32716c9"><use xlink:href="#z32716d9"/></clipPath>
	<clipPath id="z32716c10"><use xlink:href="#z32716d10"/></clipPath>
	<clipPath id="z32716c11"><use xlink:href="#z32716d11"/></clipPath>
</defs>
<path pathLength="3333" clip-path="url(#z32716c1)" d="M211 170L405 138L453 172L393 447"/>
<path pathLength="3333" clip-path="url(#z32716c2)" d="M221 233L311 294"/>
<path pathLength="3333" clip-path="url(#z32716c3)" d="M157 438L216 439L360 321"/>
<path pathLength="3333" clip-path="url(#z32716c4)" d="M544 131L736 107L786 147L707 432"/>
<path pathLength="3333" clip-path="url(#z32716c5)" d="M548 204L628 265"/>
<path pathLength="3333" clip-path="url(#z32716c6)" d="M495 370L557 373L671 303"/>
<path pathLength="3333" clip-path="url(#z32716c7)" d="M440 441L530 517"/>
<path pathLength="3333" clip-path="url(#z32716c8)" d="M295 553L381 563L722 521"/>
<path pathLength="3333" clip-path="url(#z32716c9)" d="M346 639L420 767"/>
<path pathLength="3333" clip-path="url(#z32716c10)" d="M582 583L616 633L515 806"/>
<path pathLength="3333" clip-path="url(#z32716c11)" d="M142 846L224 867L776 815L889 838"/>
</svg>