<!--
AnimCJK 2016-2019 Copyright Francois Mizessyn - https://github.com/parsimonhi/animCJK
Derived from:
    MakeMeAHanzi project - https://github.com/skishore/makemeahanzi
    Arphic PL KaitiM GB font
    Arphic PL UKai font
You can redistribute and/or modify this file under the terms of the Arphic Public License
as published by Arphic Technology Co., Ltd.
You should have received a copy of this license along with this file.
If not, see http://ftp.gnu.org/non-gnu/chinese-fonts-truetype/LICENSE.
-->
<svg id="z32822" class="acjk" version="1.1" viewBox="0 0 1024 1024" xmlns="http://www.w3.org/2000/svg" xmlns:xlink="http://www.w3.org/1999/xlink">
<style>
<![CDATA[
@keyframes zk {
	to {
		stroke-dashoffset:0;
	}
}
svg.acjk path[clip-path] {
	--t:0.8s;
	animation:zk var(--t) linear forwards var(--d);
	stroke-dasharray:3337;
	stroke-dashoffset:3339;
	stroke-width:128;
	stroke-linecap:round;
	fill:none;
	stroke:#000;
}
svg.acjk path[id] {fill:#ccc;}
]]>
</style>
<path id="z32822d1" d="M411 152C433 148 456 142 480 141C486 140 494 138 498 129C500 122 491 116 477 109C454 97 412 101 347 122C341 123 335 125 329 127C292 136 257 144 225 149C201 152 176 156 151 161C133 164 130 171 145 181C166 194 183 202 193 200C220 194 220 194 233 191C274 181 321 167 377 158C400 154 400 154 411 152Z"/>
<path id="z32822d2" d="M193 200C203 226 209 249 210 270C210 294 210 406 208 606C208 621 249 606 249 591C249 545 250 501 252 461C253 440 253 440 253 430C254 395 255 362 256 330C257 309 257 309 257 299C257 278 255 257 260 237C263 220 257 205 233 191C221 184 188 187 193 200Z"/>
<path id="z32822d3" d="M256 330Q256 329 259 329Q311 316 350 308Q372 302 362 291Q350 278 326 277Q290 277 257 299C248 304 246 332 256 330Z"/>
<path id="z32822d4" d="M252 461Q253 460 256 460Q310 447 351 436Q372 429 362 419Q350 407 326 406Q284 406 253 430C244 435 242 463 252 461Z"/>
<path id="z32822d5" d="M385 541C340 557 295 574 249 591C222 601 222 601 208 606C187 613 166 618 146 627C131 632 110 635 84 637C75 637 69 641 69 650C67 660 70 668 77 673C93 684 113 697 139 708C146 711 155 706 163 700C199 671 272 631 384 580C396 575 397 536 385 541Z"/>
<path id="z32822d6" d="M435 521C435 282 436 195 439 184C442 169 438 157 411 152C400 150 373 147 377 158C383 170 388 240 388 369C388 425 386 482 385 541C384 567 384 567 384 580C380 724 375 805 384 821C386 825 390 831 395 837C403 847 410 846 417 834C430 807 437 771 437 725C437 707 435 650 435 555C435 532 435 532 435 521Z"/>
<path id="z32822d7" d="M628 240C634 238 643 235 653 232C705 214 735 208 744 214C750 218 751 229 745 245C721 303 704 336 699 346C693 355 692 364 692 370C692 387 737 370 740 353C740 346 745 340 750 332C755 322 770 304 795 276C809 259 823 246 840 238C861 228 862 214 846 200C821 177 800 161 784 154C772 148 760 150 750 157C733 167 677 188 622 205C611 209 617 244 628 240Z"/>
<path id="z32822d8" d="M692 370C691 378 700 381 714 391C786 440 822 500 827 565C828 583 822 597 813 606C804 613 791 613 773 610C746 604 721 600 699 597C693 596 690 598 691 603C691 607 696 614 708 622C757 653 788 675 798 693C803 702 809 708 819 709C827 709 838 707 847 698C876 665 889 625 890 584C890 519 847 450 759 380C747 370 740 362 740 353C737 336 689 353 692 370Z"/>
<path id="z32822d9" d="M569 894Q575 919 582 929Q588 936 595 934Q610 925 616 864Q625 776 621 688Q618 640 618 318Q618 294 628 240C630 228 630 213 622 205Q601 184 569 178Q556 174 540 183Q531 192 539 202Q566 248 566 286Q570 443 565 689Q564 843 569 894Z"/>
<defs>
	<clipPath id="z32822c1"><use xlink:href="#z32822d1"/></clipPath>
	<clipPath id="z32822c2"><use xlink:href="#z32822d2"/></clipPath>
	<clipPath id="z32822c3"><use xlink:href="#z32822d3"/></clipPath>
	<clipPath id="z32822c4"><use xlink:href="#z32822d4"/></clipPath>
	<clipPath id="z32822c5"><use xlink:href="#z32822d5"/></clipPath>
	<clipPath id="z32822c6"><use xlink:href="#z32822d6"/></clipPath>
	<clipPath id="z32822c7"><use xlink:href="#z32822d7"/></clipPath>
	<clipPath id="z32822c8"><use xlink:href="#z32822d8"/></clipPath>
	<clipPath id="z32822c9"><use xlink:href="#z32822d9"/></clipPath>
</defs>
<path style="--d:1s;" pathLength="3333" clip-path="url(#z32822c1)" d="M146 172L493 123"/>
<path style="--d:2s;" pathLength="3333" clip-path="url(#z32822c2)" d="M199 202L233 233L223 599"/>
<path style="--d:3s;" pathLength="3333" clip-path="url(#z32822c3)" d="M264 320L360 297"/>
<path style="--d:4s;" pathLength="3333" clip-path="url(#z32822c4)" d="M259 452L359 420"/>
<path style="--d:5s;" pathLength="3333" clip-path="url(#z32822c5)" d="M73 652L148 666L377 558"/>
<path style="--d:6s;" pathLength="3333" clip-path="url(#z32822c6)" d="M386 164L411 196L404 836"/>
<path style="--d:7s;" pathLength="3333" clip-path="url(#z32822c7)" d="M633 231L742 184L802 222L715 356"/>
<path style="--d:8s;" pathLength="3333" clip-path="url(#z32822c8)" d="M717 376L832 489L853 609L812 660L697 605"/>
<path style="--d:9s;" pathLength="3333" clip-path="url(#z32822c9)" d="M542 188L595 248L592 929"/>
</svg>