<!--
AnimCJK 2016-2017 Copyright Francois Mizessyn, http://gooo.free.fr/animCJK/
Derived from:
    MakeMeAHanzi project - https://github.com/skishore/makemeahanzi
    Arphic PL KaitiM GB - https://apps.ubuntu.com/cat/applications/precise/fonts-arphic-gkai00mp/
    Arphic PL UKai - https://apps.ubuntu.com/cat/applications/fonts-arphic-ukai/
You can redistribute and/or modify this file under the terms of the Arphic Public License
as published by Arphic Technology Co., Ltd.
You should have received a copy of this license (the directory "APL") along with this file;
if not, see http://ftp.gnu.org/non-gnu/chinese-fonts-truetype/LICENSE.
-->
<svg id="z32854" class="acjk" version="1.1" viewBox="0 0 1024 1024" xmlns="http://www.w3.org/2000/svg" xmlns:xlink="http://www.w3.org/1999/xlink">
<style>
<![CDATA[
	@keyframes z32854k {
		from {
			stroke:#c00;
			stroke-dashoffset:3000;
		}
		75% {
			stroke:#c00;
			stroke-dashoffset:0;
		}
		to {
			stroke:#000;
		}
	}
	#z32854 path[clip-path] {
		animation:z32854k 1s linear both;
		stroke-dasharray:3000;
		stroke-width:128;
		stroke-linecap:round;
		fill:none;
	}
	#z32854 path[clip-path="url(#z32854c1)"] {animation-delay:1s;}
	#z32854 path[clip-path="url(#z32854c2)"] {animation-delay:2s;}
	#z32854 path[clip-path="url(#z32854c3)"] {animation-delay:3s;}
	#z32854 path[clip-path="url(#z32854c4)"] {animation-delay:4s;}
	#z32854 path[clip-path="url(#z32854c5)"] {animation-delay:5s;}
	#z32854 path[clip-path="url(#z32854c6)"] {animation-delay:6s;}
	#z32854 path[clip-path="url(#z32854c7)"] {animation-delay:7s;}
	#z32854 path[clip-path="url(#z32854c8)"] {animation-delay:8s;}
	#z32854 path[clip-path="url(#z32854c9)"] {animation-delay:9s;}
	#z32854 path[clip-path="url(#z32854c10)"] {animation-delay:10s;}
	#z32854 path[clip-path="url(#z32854c11)"] {animation-delay:11s;}
	#z32854 path[clip-path="url(#z32854c12)"] {animation-delay:12s;}
	#z32854 path[clip-path="url(#z32854c13)"] {animation-delay:13s;}
	#z32854 path {fill:#ccc;}
]]>
</style>
<g transform="scale(1,-1) translate(0,-900)">
	<path id="z32854d1" d="M467 753Q599 783 602 785Q611 792 606 800Q600 812 572 820Q547 826 442 796Q309 766 206 759Q172 755 195 738Q219 723 259 721L301 725Q359 735 421 745L467 753Z"/>
	<path id="z32854d2" d="M259 721Q272 691 276 594Q276 534 277 426L316 436Q317 484 318 526L318 559Q319 590 320 619L320 652Q320 667 322 684Q328 705 301 725L259 721Z"/>
	<path id="z32854d3" d="M320 619Q365 629 398 636Q420 642 410 653Q398 666 374 666Q352 666 320 652L320 619Z"/>
	<path id="z32854d4" d="M318 526Q366 535 401 540Q423 546 414 557Q402 570 378 572Q356 573 318 559L318 526Z"/>
	<path id="z32854d5" d="M277 426Q237 419 196 407Q180 403 151 404Q138 403 136 393Q133 380 143 370Q165 354 200 333Q210 329 223 338Q245 356 407 430Q420 436 432 443L437 470Q379 455 316 436L277 426Z"/>
	<path id="z32854d6" d="M432 443Q417 416 443 360Q449 347 455 345Q459 341 465 346Q486 362 484 407Q483 429 484 640Q484 683 492 712Q498 724 496 734Q492 740 467 753L421 745Q436 720 438 477Q437 474 437 470L432 443Z"/>
	<path id="z32854d7" d="M601 626Q589 632 561 637Q548 641 545 635Q538 629 547 613Q569 565 584 487Q587 463 600 448Q618 426 623 441Q626 450 627 463L625 494Q615 570 615 595L601 626Z"/>
	<path id="z32854d8" d="M809 513Q834 576 866 595Q882 613 868 631Q793 691 746 663Q683 642 601 626L615 595Q651 602 753 621Q768 625 774 618Q781 611 779 596Q769 556 759 521L809 513Z"/>
	<path id="z32854d9" d="M627 463Q633 463 640 464Q695 476 816 484Q826 485 827 493Q827 500 809 513L759 521Q758 522 756 521Q684 505 625 494L627 463Z"/>
	<path id="z32854d10" d="M534 282Q594 291 652 297Q707 306 717 313Q726 320 722 328Q716 341 688 350Q660 357 630 349Q489 310 332 307Q296 304 320 285Q354 261 434 270Q453 273 477 274L534 282Z"/>
	<path id="z32854d11" d="M533 47L533 152L534 191L534 282L477 274L477 180L475 143L475 41L533 47Z"/>
	<path id="z32854d12" d="M533 152Q540 153 666 167Q676 166 684 176Q685 186 665 197Q647 215 612 209Q573 202 534 191L477 180Q438 176 406 172Q369 171 329 166Q304 163 322 147Q343 129 383 129Q423 138 475 143L533 152Z"/>
	<path id="z32854d13" d="M475 41Q352 32 288 25Q215 15 107 16Q94 17 91 5Q90 -7 109 -22Q125 -35 156 -47Q166 -51 185 -44Q230 -29 387 -8Q442 -1 505 3Q560 6 615 11Q775 23 909 5Q933 1 939 10Q946 23 935 35Q907 63 863 84Q848 91 823 83Q750 68 674 60Q589 53 533 47L475 41Z"/>
	<defs>
		<clipPath id="z32854c1"><use xlink:href="#z32854d1"/></clipPath>
		<clipPath id="z32854c2"><use xlink:href="#z32854d2"/></clipPath>
		<clipPath id="z32854c3"><use xlink:href="#z32854d3"/></clipPath>
		<clipPath id="z32854c4"><use xlink:href="#z32854d4"/></clipPath>
		<clipPath id="z32854c5"><use xlink:href="#z32854d5"/></clipPath>
		<clipPath id="z32854c6"><use xlink:href="#z32854d6"/></clipPath>
		<clipPath id="z32854c7"><use xlink:href="#z32854d7"/></clipPath>
		<clipPath id="z32854c8"><use xlink:href="#z32854d8"/></clipPath>
		<clipPath id="z32854c9"><use xlink:href="#z32854d9"/></clipPath>
		<clipPath id="z32854c10"><use xlink:href="#z32854d10"/></clipPath>
		<clipPath id="z32854c11"><use xlink:href="#z32854d11"/></clipPath>
		<clipPath id="z32854c12"><use xlink:href="#z32854d12"/></clipPath>
		<clipPath id="z32854c13"><use xlink:href="#z32854d13"/></clipPath>
	</defs>
	<path pathLength="2999" clip-path="url(#z32854c1)" d="M194 749L284 745L601 795"/>
	<path pathLength="2999" clip-path="url(#z32854c2)" d="M268 717L296 684L295 431"/>
	<path pathLength="2999" clip-path="url(#z32854c3)" d="M323 627L408 647"/>
	<path pathLength="2999" clip-path="url(#z32854c4)" d="M323 535L409 554"/>
	<path pathLength="2999" clip-path="url(#z32854c5)" d="M142 390L205 371L432 460"/>
	<path pathLength="2999" clip-path="url(#z32854c6)" d="M429 741L463 710L463 350"/>
	<path pathLength="2999" clip-path="url(#z32854c7)" d="M551 629L583 598L614 441"/>
	<path pathLength="2999" clip-path="url(#z32854c8)" d="M610 620L771 647L810 631L825 601L781 518"/>
	<path pathLength="2999" clip-path="url(#z32854c9)" d="M634 472L822 499"/>
	<path pathLength="2999" clip-path="url(#z32854c10)" d="M321 296L717 328"/>
	<path pathLength="2999" clip-path="url(#z32854c11)" d="M524 273L505 248L503 45"/>
	<path pathLength="2999" clip-path="url(#z32854c12)" d="M323 157L676 183"/>
	<path pathLength="2999" clip-path="url(#z32854c13)" d="M97 2L169 -16L835 50L937 29"/>
</g>
</svg>