<!--
AnimCJK 2016-2017 Copyright Francois Mizessyn, http://gooo.free.fr/animCJK/
Derived from:
    MakeMeAHanzi project - https://github.com/skishore/makemeahanzi
    Arphic PL KaitiM GB - https://apps.ubuntu.com/cat/applications/precise/fonts-arphic-gkai00mp/
    Arphic PL UKai - https://apps.ubuntu.com/cat/applications/fonts-arphic-ukai/
You can redistribute and/or modify this file under the terms of the Arphic Public License
as published by Arphic Technology Co., Ltd.
You should have received a copy of this license (the directory "APL") along with this file;
if not, see http://ftp.gnu.org/non-gnu/chinese-fonts-truetype/LICENSE.
-->
<svg id="z32865" class="acjk" version="1.1" viewBox="0 0 1024 1024" xmlns="http://www.w3.org/2000/svg" xmlns:xlink="http://www.w3.org/1999/xlink">
<style>
<![CDATA[
@keyframes z32865k {
	from {
		stroke:#c00;
		stroke-dashoffset:3334;
	}
	75% {
		stroke:#c00;
		stroke-dashoffset:0;
	}
	to {
		stroke:#000;
	}
}
#z32865 path[clip-path] {
	animation:z32865k 1s linear both;
	stroke-dasharray:3334;
	stroke-width:128;
	stroke-linecap:round;
	fill:none;
}
#z32865 path[clip-path="url(#z32865c1)"] {animation-delay:1s;}
#z32865 path[clip-path="url(#z32865c2)"] {animation-delay:2s;}
#z32865 path[clip-path="url(#z32865c3)"] {animation-delay:3s;}
#z32865 path[clip-path="url(#z32865c4)"] {animation-delay:4s;}
#z32865 path[clip-path="url(#z32865c5)"] {animation-delay:5s;}
#z32865 path[clip-path="url(#z32865c6)"] {animation-delay:6s;}
#z32865 path[clip-path="url(#z32865c7)"] {animation-delay:7s;}
#z32865 path[clip-path="url(#z32865c8)"] {animation-delay:8s;}
#z32865 path[clip-path="url(#z32865c9)"] {animation-delay:9s;}
#z32865 path[clip-path="url(#z32865c10)"] {animation-delay:10s;}
#z32865 path[clip-path="url(#z32865c11)"] {animation-delay:11s;}
#z32865 path[clip-path="url(#z32865c12)"] {animation-delay:12s;}
#z32865 path[clip-path="url(#z32865c13)"] {animation-delay:13s;}
#z32865 path[clip-path="url(#z32865c14)"] {animation-delay:14s;}
#z32865 path {fill:#ccc;}
]]>
</style>
<path id="z32865d1" d="M381 218Q391 214 404 213Q450 204 458 198Q467 191 462 183Q456 173 430 164Q402 158 375 168Q321 184 264 197Q200 210 125 215Q92 219 115 235Q119 238 157 251L208 248Q272 235 341 224L381 218 Z"/>
<path id="z32865d2" d="M157 251Q178 293 178 326Q179 363 180 679L222 665Q222 604 223 549L224 513Q224 461 226 414L226 382Q227 354 228 328Q231 268 219 256Q213 252 208 248L157 251 Z"/>
<path id="z32865d3" d="M226 414Q278 402 317 396Q339 390 330 379Q318 366 294 364Q248 361 226 382L226 414 Z"/>
<path id="z32865d4" d="M223 549Q275 536 313 530Q335 523 326 511Q313 498 288 497Q264 496 225 512Q224 512 224 513L223 549 Z"/>
<path id="z32865d5" d="M 345,622 C 305,636 264,650 222,665 L 180,679 C 116,695 77,703 65,705 56,705 51,709 50,717 49,725 52,732 58,738 72,748 91,759 114,771 120,773 128,771 136,765 162,744 231,708 344,656 Z"/>
<path id="z32865d6" d="M396 839Q392 821 391 631L391 606Q392 474 392 335Q391 253 394 240Q397 230 388 222Q385 219 381 218L341 224Q353 266 345 622L344 656Q335 887 345 906Q348 913 356 922Q368 935 377 919Q389 895 396 856L396 839 Z"/>
<path id="z32865d7" d="M 441,443 C 435,445 429,436 434,432 501,374 564,246 565,210 565,197 564,190 563,178 562,171 571,163 579,164 600,164 620,175 632,192 637,199 633,208 628,216 608,239 593,280 582,302 567,330 523,388 489,416 472,429 458,436 441,443 Z"/>
<path id="z32865d8" d="M 817,372 C 806,367 794,354 787,346 739,290 716,224 682,160 668,135 646,116 624,100 617,95 624,84 634,84 657,83 679,94 691,114 726,172 754,231 804,278 837,309 871,324 912,342 927,348 942,353 957,361 960,363 963,370 958,373 946,377 933,376 912,379 864,383 852,385 817,372 Z"/>
<path id="z32865d9" d="M 540,589 C 530,588 523,579 517,573 508,565 499,554 503,544 507,530 518,525 528,517 543,504 556,490 568,474 590,442 612,410 622,372 624,360 623,348 620,336 617,327 626,316 636,316 648,314 659,323 670,329 681,334 695,340 700,353 703,360 696,368 692,374 655,415 628,456 596,500 588,510 581,517 585,522 589,528 655,509 684,503 713,496 719,494 749,491 755,499 760,507 765,515 748,523 737,523 719,528 662,540 609,556 576,571 562,577 548,589 540,589 Z"/>
<path id="z32865d10" d="M 817,586 C 808,586 804,576 799,570 769,529 747,486 718,447 711,438 707,422 718,416 724,411 731,419 737,423 771,445 802,465 826,500 834,511 841,531 841,546 840,560 839,575 827,583 823,584 821,586 817,586 Z"/>
<path id="z32865d11" d="M 488,698 C 475,738 458,778 438,817 426,837 426,859 440,881 446,891 455,892 468,884 502,852 518,808 517,752 519,731 517,713 511,697 507,692 503,689 500,688 495,688 491,692 488,698 Z"/>
<path id="z32865d12" d="M 555,726 C 565,786 591,832 635,865 699,907 759,923 871,915 887,912 903,908 919,902 933,897 941,890 943,881 945,875 936,863 914,845 880,810 851,775 828,741 821,730 816,727 813,731 810,735 810,741 812,751 818,773 824,797 829,823 831,837 831,846 828,852 822,858 806,862 781,862 693,860 660,841 626,806 610,791 599,770 593,744 590,729 585,720 577,717 569,712 562,711 558,713 555,713 554,718 555,726 Z"/>
<path id="z32865d13" d="M 673,690 Q 697,709 722,731 735,741 748,740 758,739 761,728 765,715 755,689 749,673 723,662 660,644 648,649 644,653 646,664 649,674 673,690 Z"/>
<path id="z32865d14" d="M821 644Q867 680 921 734Q936 750 950 754Q959 755 965 745Q975 733 961 694Q948 649 821 615Q812 611 811 623Q811 635 821 644 Z"/>
<defs>
	<clipPath id="z32865c1"><use xlink:href="#z32865d1"/></clipPath>
	<clipPath id="z32865c2"><use xlink:href="#z32865d2"/></clipPath>
	<clipPath id="z32865c3"><use xlink:href="#z32865d3"/></clipPath>
	<clipPath id="z32865c4"><use xlink:href="#z32865d4"/></clipPath>
	<clipPath id="z32865c5"><use xlink:href="#z32865d5"/></clipPath>
	<clipPath id="z32865c6"><use xlink:href="#z32865d6"/></clipPath>
	<clipPath id="z32865c7"><use xlink:href="#z32865d7"/></clipPath>
	<clipPath id="z32865c8"><use xlink:href="#z32865d8"/></clipPath>
	<clipPath id="z32865c9"><use xlink:href="#z32865d9"/></clipPath>
	<clipPath id="z32865c10"><use xlink:href="#z32865d10"/></clipPath>
	<clipPath id="z32865c11"><use xlink:href="#z32865d11"/></clipPath>
	<clipPath id="z32865c12"><use xlink:href="#z32865d12"/></clipPath>
	<clipPath id="z32865c13"><use xlink:href="#z32865d13"/></clipPath>
	<clipPath id="z32865c14"><use xlink:href="#z32865d14"/></clipPath>
</defs>
<path pathLength="3333" clip-path="url(#z32865c1)" d="M113 223L197 228L459 185"/>
<path pathLength="3333" clip-path="url(#z32865c2)" d="M166 254L202 295L188 675"/>
<path pathLength="3333" clip-path="url(#z32865c3)" d="M229 406L325 382"/>
<path pathLength="3333" clip-path="url(#z32865c4)" d="M226 541L321 514"/>
<path pathLength="3333" clip-path="url(#z32865c5)" d="M 54,719 122,732 335,644"/>
<path pathLength="3333" clip-path="url(#z32865c6)" d="M350 231L370 257L365 923"/>
<path pathLength="3333" clip-path="url(#z32865c7)" d="M 575,174 598,212 546,337 437,435"/>
<path pathLength="3333" clip-path="url(#z32865c8)" d="M 628,93 666,110 817,330 953,367"/>
<path pathLength="3333" clip-path="url(#z32865c9)" d="M 630,323 662,364 546,543 561,556 749,508"/>
<path pathLength="3333" clip-path="url(#z32865c10)" d="M 720,424 806,524 823,581"/>
<path pathLength="3333" clip-path="url(#z32865c11)" d="M 500,693 452,886"/>
<path pathLength="3333" clip-path="url(#z32865c12)" d="M 564,721 640,843 761,888 892,865 816,739"/>
<path pathLength="3333" clip-path="url(#z32865c13)" d="M 652,655 754,732"/>
<path pathLength="3333" clip-path="url(#z32865c14)" d="M820 626L922 691L955 747"/>
</svg>