<!--
AnimCJK 2016-2019 Copyright Francois Mizessyn - https://github.com/parsimonhi/animCJK
Derived from:
    MakeMeAHanzi project - https://github.com/skishore/makemeahanzi
    Arphic PL KaitiM GB font
    Arphic PL UKai font
You can redistribute and/or modify this file under the terms of the Arphic Public License
as published by Arphic Technology Co., Ltd.
You should have received a copy of this license along with this file.
If not, see http://ftp.gnu.org/non-gnu/chinese-fonts-truetype/LICENSE.
-->
<svg id="z32903" class="acjk" version="1.1" viewBox="0 0 1024 1024" xmlns="http://www.w3.org/2000/svg" xmlns:xlink="http://www.w3.org/1999/xlink">
<style>
<![CDATA[
@keyframes zk {
	to {
		stroke-dashoffset:0;
	}
}
svg.acjk path[clip-path] {
	--t:0.8s;
	animation:zk var(--t) linear forwards var(--d);
	stroke-dasharray:3337;
	stroke-dashoffset:3339;
	stroke-width:128;
	stroke-linecap:round;
	fill:none;
	stroke:#000;
}
svg.acjk path[id] {fill:#ccc;}
]]>
</style>
<path id="z32903d1" d="M258 101C240 103 239 113 253 122C272 134 298 136 332 129C362 122 394 114 428 105C444 101 453 96 456 93C460 89 461 83 458 78C453 71 443 65 429 61C415 58 385 67 341 84C317 93 289 95 258 101Z"/>
<path id="z32903d2" d="M460 288C472 253 486 232 501 221C510 213 511 201 502 194C466 164 432 163 400 178C373 189 337 195 295 207C286 210 299 235 308 232C322 227 358 219 415 208C423 206 428 207 432 210C435 213 438 218 437 227C433 247 428 266 424 284C422 296 456 299 460 288Z"/>
<path id="z32903d3" d="M284 343Q293 343 305 342Q357 330 474 318Q483 317 484 310Q484 303 460 288C450 282 436 282 424 284Q420 284 417 285Q347 304 288 315C279 317 275 343 284 343Z"/>
<path id="z32903d4" d="M295 207C288 200 280 197 273 194C259 188 248 185 238 189C230 191 227 197 232 206C251 238 252 299 227 390C205 464 159 517 101 563C84 576 84 576 75 583C67 588 68 592 75 593C109 593 146 570 190 529C237 483 272 423 284 343C287 324 287 324 288 315C289 304 292 294 294 283C297 265 300 248 308 232C311 223 303 213 295 207Z"/>
<path id="z32903d5" d="M620 153Q623 141 658 95Q665 85 654 74Q624 50 603 53Q594 54 596 66Q606 133 541 206Q525 224 517 235Q510 245 522 243Q553 239 604 176C615 161 615 161 620 153Z"/>
<path id="z32903d6" d="M716 167C718 166 757 159 834 147C840 145 844 144 845 140C845 134 840 125 828 119C806 106 776 112 738 126C719 132 702 137 687 140C664 144 642 147 620 153C611 156 595 174 604 176C620 178 658 176 692 171C708 168 708 168 716 167Z"/>
<path id="z32903d7" d="M686 284C699 270 711 252 725 232C729 224 735 216 743 209C747 205 748 200 746 195C742 184 732 175 716 167C709 163 692 163 692 171C692 195 683 228 655 262C642 277 642 277 636 284C617 305 587 324 553 347C548 349 548 353 552 355C569 361 607 344 662 309C662 308 663 308 664 307C679 292 679 292 686 284Z"/>
<path id="z32903d8" d="M664 307C751 378 802 416 825 413C867 407 905 399 939 389C955 383 966 376 962 375C899 356 833 346 768 330C762 328 759 325 756 324C733 312 708 300 686 284C665 269 665 269 655 262C617 235 591 223 577 225C568 226 563 227 562 231C561 233 565 238 574 242C586 247 607 260 636 284C655 299 655 299 664 307Z"/>
<path id="z32903d9" d="M666 573Q675 536 684 512C697 485 697 485 703 471Q713 455 725 446Q741 430 727 412Q712 399 664 375Q648 368 628 375Q588 388 550 397C507 404 507 404 485 408Q427 415 370 418Q355 418 356 427Q357 434 374 441Q396 451 429 444Q457 440 488 437C525 432 525 432 544 429Q572 425 604 420Q626 416 635 425Q645 434 643 453Q640 466 638 481C634 504 634 504 632 515Q626 540 621 565C618 580 663 588 666 573Z"/>
<path id="z32903d10" d="M684 512C814 512 883 510 889 505C889 504 889 503 890 503C894 496 891 488 881 480C849 454 814 449 777 457C754 461 730 466 703 471C660 478 660 478 638 481C582 489 549 493 539 495C505 499 505 499 488 501C411 510 329 518 243 528C230 529 228 534 238 545C246 554 256 560 267 563C279 566 290 566 300 564C358 548 421 538 488 529C521 524 521 524 538 522C565 518 597 517 632 515C649 514 615 512 684 512Z"/>
<path id="z32903d11" d="M537 615C577 611 623 607 675 604C681 603 686 600 687 595C687 590 682 576 666 573C636 568 636 568 621 565C618 564 617 564 616 565C589 570 563 576 537 581C504 586 504 586 488 589C444 596 403 599 366 603C353 604 350 609 359 621C366 631 386 634 416 630C436 626 459 622 487 620C520 617 520 617 537 615Z"/>
<path id="z32903d12" d="M536 708C548 706 592 700 671 695C677 694 684 693 688 686C690 679 682 674 671 667C650 654 615 654 563 667C554 669 545 670 536 672C502 677 502 677 485 680C462 683 441 685 423 686C399 687 374 689 349 692C332 693 330 698 342 709C358 723 381 729 411 725C433 721 458 718 485 715C519 710 519 710 536 708Z"/>
<path id="z32903d13" d="M537 809C598 803 674 803 763 808C805 809 829 808 834 801C838 793 834 783 823 774C787 745 756 735 731 740C682 749 618 759 538 768C502 772 502 772 484 774C407 782 325 789 238 797C223 798 220 804 231 817C240 827 252 834 264 838C278 842 291 842 302 840C358 826 419 820 484 814C519 811 519 811 537 809Z"/>
<path id="z32903d14" d="M487 928C489 944 493 955 498 961C501 965 506 968 511 966C525 957 534 903 537 809C538 782 538 782 538 768C538 758 536 738 536 708C536 708 536 684 536 672C536 655 537 636 537 615C537 615 537 592 537 581C537 562 537 542 538 522C539 504 539 504 539 495C539 487 539 479 540 471C540 455 541 441 544 429C548 408 548 408 550 397C550 396 550 395 551 395C553 384 549 375 540 369C519 354 504 348 495 346C486 344 477 344 468 350C461 354 462 359 466 367C477 389 483 403 485 408C490 421 487 427 488 437C489 458 488 479 488 501C488 510 488 529 488 529C488 547 488 567 488 589C487 610 487 610 487 620C486 638 485 658 485 680C485 680 485 703 485 715C485 733 484 753 484 774C484 801 484 801 484 814C484 868 484 906 487 928Z"/>
<defs>
	<clipPath id="z32903c1"><use xlink:href="#z32903d1"/></clipPath>
	<clipPath id="z32903c2"><use xlink:href="#z32903d2"/></clipPath>
	<clipPath id="z32903c3"><use xlink:href="#z32903d3"/></clipPath>
	<clipPath id="z32903c4"><use xlink:href="#z32903d4"/></clipPath>
	<clipPath id="z32903c5"><use xlink:href="#z32903d5"/></clipPath>
	<clipPath id="z32903c6"><use xlink:href="#z32903d6"/></clipPath>
	<clipPath id="z32903c7"><use xlink:href="#z32903d7"/></clipPath>
	<clipPath id="z32903c8"><use xlink:href="#z32903d8"/></clipPath>
	<clipPath id="z32903c9"><use xlink:href="#z32903d9"/></clipPath>
	<clipPath id="z32903c10"><use xlink:href="#z32903d10"/></clipPath>
	<clipPath id="z32903c11"><use xlink:href="#z32903d11"/></clipPath>
	<clipPath id="z32903c12"><use xlink:href="#z32903d12"/></clipPath>
	<clipPath id="z32903c13"><use xlink:href="#z32903d13"/></clipPath>
	<clipPath id="z32903c14"><use xlink:href="#z32903d14"/></clipPath>
</defs>
<path style="--d:1s;" pathLength="3333" clip-path="url(#z32903c1)" d="M252 110L453 78"/>
<path style="--d:2s;" pathLength="3333" clip-path="url(#z32903c2)" d="M303 208L444 190L471 213L440 285"/>
<path style="--d:3s;" pathLength="3333" clip-path="url(#z32903c3)" d="M292 337L479 305"/>
<path style="--d:4s;" pathLength="3333" clip-path="url(#z32903c4)" d="M238 196L275 237L242 413L189 505L81 589"/>
<path style="--d:5s;" pathLength="3333" clip-path="url(#z32903c5)" d="M604 61L626 102L524 236"/>
<path style="--d:6s;" pathLength="3333" clip-path="url(#z32903c6)" d="M612 172L837 135"/>
<path style="--d:7s;" pathLength="3333" clip-path="url(#z32903c7)" d="M697 177L713 211L673 270L561 349"/>
<path style="--d:8s;" pathLength="3333" clip-path="url(#z32903c8)" d="M570 232L793 369L952 379"/>
<path style="--d:9s;" pathLength="3333" clip-path="url(#z32903c9)" d="M365 427L651 400L688 437L650 569"/>
<path style="--d:10s;" pathLength="3333" clip-path="url(#z32903c10)" d="M240 535L804 482L886 495"/>
<path style="--d:11s;" pathLength="3333" clip-path="url(#z32903c11)" d="M363 613L680 597"/>
<path style="--d:12s;" pathLength="3333" clip-path="url(#z32903c12)" d="M344 699L683 679"/>
<path style="--d:13s;" pathLength="3333" clip-path="url(#z32903c13)" d="M231 803L287 817L730 773L829 795"/>
<path style="--d:14s;" pathLength="3333" clip-path="url(#z32903c14)" d="M472 357L517 398L508 961"/>
</svg>