<!--
AnimCJK 2016-2018 Copyright Francois Mizessyn, https://github.com/parsimonhi/animCJK
Derived from:
    MakeMeAHanzi project - https://github.com/skishore/makemeahanzi
    Arphic PL KaitiM GB - https://apps.ubuntu.com/cat/applications/precise/fonts-arphic-gkai00mp/
    Arphic PL UKai - https://apps.ubuntu.com/cat/applications/fonts-arphic-ukai/
You can redistribute and/or modify this file under the terms of the Arphic Public License
as published by Arphic Technology Co., Ltd.
You should have received a copy of this license (the directory "APL") along with this file;
if not, see http://ftp.gnu.org/non-gnu/chinese-fonts-truetype/LICENSE.
-->
<svg id="z32918" class="acjk" version="1.1" viewBox="0 0 1024 1024" xmlns="http://www.w3.org/2000/svg" xmlns:xlink="http://www.w3.org/1999/xlink">
<style>
<![CDATA[
@keyframes z32918k {
	from {
		stroke:#c00;
		stroke-dashoffset:3334;
	}
	75% {
		stroke:#c00;
		stroke-dashoffset:0;
	}
	to {
		stroke:#000;
	}
}
#z32918 path[clip-path] {
	animation:z32918k 1s linear both;
	stroke-dasharray:3334;
	stroke-width:128;
	stroke-linecap:round;
	fill:none;
}
#z32918 path[clip-path="url(#z32918c1)"] {animation-delay:1s;}
#z32918 path[clip-path="url(#z32918c2)"] {animation-delay:2s;}
#z32918 path[clip-path="url(#z32918c3)"] {animation-delay:3s;}
#z32918 path[clip-path="url(#z32918c4)"] {animation-delay:4s;}
#z32918 path[clip-path="url(#z32918c5)"] {animation-delay:5s;}
#z32918 path[clip-path="url(#z32918c6)"] {animation-delay:6s;}
#z32918 path[clip-path="url(#z32918c7)"] {animation-delay:7s;}
#z32918 path {fill:#ccc;}
]]>
</style>
<path id="z32918d1" d="M501 362Q522 137 533 122Q536 112 517 95Q483 76 460 72Q444 69 436 77Q429 84 436 99Q452 123 454 139Q461 245 460 371L501 362 Z"/>
<path id="z32918d2" d="M269 243Q297 268 327 299Q340 312 356 313Q366 312 373 299Q377 284 370 255Q364 233 333 217Q260 186 244 193Q240 197 240 210Q243 220 269 243 Z"/>
<path id="z32918d3" d="M672 152Q653 179 572 261Q559 277 579 276Q634 251 666 232Q732 190 763 180Q787 171 777 151Q764 132 737 113Q712 97 699 98Q684 98 688 113Q689 134 672 152 Z"/>
<path id="z32918d4" d="M346 655Q350 591 355 546L357 520Q360 451 367 426L353 389Q334 370 299 369Q284 373 290 387Q336 499 281 728Q272 753 260 773Q241 807 267 857Q268 860 273 865Q280 880 292 874Q332 847 342 713Q343 694 344 678L346 655 Z"/>
<path id="z32918d5" d="M367 426Q368 425 373 424Q467 396 584 375Q602 372 611 383Q621 389 626 438Q642 604 635 794Q635 822 625 830Q610 843 528 836Q512 835 514 845Q515 852 530 856Q605 893 645 924Q667 942 680 939Q693 935 702 906Q715 860 709 793Q688 553 687 464Q687 427 697 404Q709 383 699 372Q689 359 643 336Q624 326 606 332Q572 344 501 362L460 371Q406 381 353 389L367 426 Z"/>
<path id="z32918d6" d="M355 546Q382 556 456 544Q496 537 540 529Q567 525 571 520Q578 513 574 506Q568 496 543 489Q518 485 492 494Q462 503 430 510Q396 517 357 520L355 546 Z"/>
<path id="z32918d7" d="M344 678Q380 696 443 684Q492 675 543 667Q570 661 574 658Q583 651 579 643Q572 633 546 625Q518 618 491 629Q460 638 428 645Q391 652 349 654Q345 654 346 655L344 678 Z"/>
<defs>
	<clipPath id="z32918c1"><use xlink:href="#z32918d1"/></clipPath>
	<clipPath id="z32918c2"><use xlink:href="#z32918d2"/></clipPath>
	<clipPath id="z32918c3"><use xlink:href="#z32918d3"/></clipPath>
	<clipPath id="z32918c4"><use xlink:href="#z32918d4"/></clipPath>
	<clipPath id="z32918c5"><use xlink:href="#z32918d5"/></clipPath>
	<clipPath id="z32918c6"><use xlink:href="#z32918d6"/></clipPath>
	<clipPath id="z32918c7"><use xlink:href="#z32918d7"/></clipPath>
</defs>
<path pathLength="3333" clip-path="url(#z32918c1)" d="M440 81L493 126L472 367"/>
<path pathLength="3333" clip-path="url(#z32918c2)" d="M247 197L333 257L354 309"/>
<path pathLength="3333" clip-path="url(#z32918c3)" d="M695 105L724 162L574 268"/>
<path pathLength="3333" clip-path="url(#z32918c4)" d="M295 377L329 410L335 460L288 871"/>
<path pathLength="3333" clip-path="url(#z32918c5)" d="M362 395L609 353L661 391L670 842L650 890L521 845"/>
<path pathLength="3333" clip-path="url(#z32918c6)" d="M364 540L570 510"/>
<path pathLength="3333" clip-path="url(#z32918c7)" d="M349 673L572 648"/>
</svg>