<!--
AnimCJK 2016-2026 Copyright FM-SH, https://github.com/parsimonhi/animCJK
Derived from:
    MakeMeAHanzi project - https://github.com/skishore/makemeahanzi
    Arphic PL KaitiM GB font
    Arphic PL KaitiM Big5 font
You can redistribute and/or modify this file under the terms of the Arphic Public License
as published by Arphic Technology Co., Ltd.
You should have received a copy of this license along with this file.
If not, see https://ftp.gnu.org/non-gnu/chinese-fonts-truetype/LICENSE.
-->
<svg id="z32915" class="acjk" viewBox="0 0 1024 1024" xmlns="http://www.w3.org/2000/svg">
<style>
<![CDATA[
@keyframes zk {
	to {
		stroke-dashoffset:0;
	}
}
svg.acjk path[clip-path] {
	--t:0.8s;
	animation:zk var(--t) linear forwards var(--d);
	stroke-dasharray:3337;
	stroke-dashoffset:3339;
	stroke-width:128;
	stroke-linecap:round;
	fill:none;
	stroke:#000;
}
svg.acjk path[id] {fill:#ccc;}
]]>
</style>
<path id="z32915d1" d="M467 96C502 126 528 148 550 153C560 155 570 150 575 140C579 130 579 118 575 108C564 79 529 62 476 54C463 52 455 51 449 55C444 57 443 61 446 70C448 78 455 86 467 96Z"/>
<path id="z32915d2" d="M364 268C482 248 619 228 778 214C784 213 794 212 799 203C802 195 792 187 778 179C749 164 715 165 673 175C539 204 409 220 284 232C266 234 248 235 230 238C210 239 207 246 222 259C238 273 262 281 292 280C299 279 318 275 327 274C352 270 352 270 364 268Z"/>
<path id="z32915d3" d="M327 274C333 285 337 299 337 330C337 362 321 410 357 423C411 445 538 404 674 392C713 389 731 371 689 347C677 340 661 336 648 340C609 352 486 381 413 385C382 387 378 370 379 354C379 326 384 315 388 304C392 288 382 280 364 268C353 262 321 263 327 274Z"/>
<path id="z32915d4" d="M380 706C382 676 385 650 388 629C391 608 391 608 392 597C394 576 394 551 400 532C402 522 396 510 388 504C366 482 319 477 329 501C355 564 355 655 317 773C303 812 294 833 295 838C296 859 301 877 311 893C321 911 333 902 347 881C372 842 372 781 377 738C379 717 379 717 380 706Z"/>
<path id="z32915d5" d="M400 532C420 527 502 508 565 503C604 500 616 504 620 538C631 653 631 757 626 848C623 894 594 876 567 860C521 832 547 868 554 876C576 901 594 927 610 952C618 964 628 973 641 973C651 972 663 952 678 921C693 887 701 855 699 822C692 741 686 665 680 592C677 563 679 536 693 514C699 502 701 492 691 483C678 471 658 462 632 452C619 446 597 455 560 466C451 495 392 502 388 504C378 506 390 534 400 532Z"/>
<path id="z32915d6" d="M388 629C408 633 450 629 515 618C538 613 560 609 571 606C590 598 566 575 542 573C504 569 442 589 392 597C381 599 377 627 388 629Z"/>
<path id="z32915d7" d="M377 738C397 742 435 739 493 731C547 722 567 720 578 714C601 700 557 682 550 681C531 676 513 680 495 685C465 692 418 702 380 706C369 708 366 736 377 738Z"/>
<defs>
	<clipPath id="z32915c1"><use href="#z32915d1"/></clipPath>
	<clipPath id="z32915c2"><use href="#z32915d2"/></clipPath>
	<clipPath id="z32915c3"><use href="#z32915d3"/></clipPath>
	<clipPath id="z32915c4"><use href="#z32915d4"/></clipPath>
	<clipPath id="z32915c5"><use href="#z32915d5"/></clipPath>
	<clipPath id="z32915c6"><use href="#z32915d6"/></clipPath>
	<clipPath id="z32915c7"><use href="#z32915d7"/></clipPath>
</defs>
<path style="--d:1s;" pathLength="3333" clip-path="url(#z32915c1)" d="M450 64L573 140"/>
<path style="--d:2s;" pathLength="3333" clip-path="url(#z32915c2)" d="M221 247L293 255L794 195"/>
<path style="--d:3s;" pathLength="3333" clip-path="url(#z32915c3)" d="M334 271L362 305L360 387L385 406L708 369"/>
<path style="--d:4s;" pathLength="3333" clip-path="url(#z32915c4)" d="M333 490L368 524L369 609L322 899"/>
<path style="--d:5s;" pathLength="3333" clip-path="url(#z32915c5)" d="M390 510L596 478L657 508L655 881L617 924L550 857"/>
<path style="--d:6s;" pathLength="3333" clip-path="url(#z32915c6)" d="M388 619L573 593"/>
<path style="--d:7s;" pathLength="3333" clip-path="url(#z32915c7)" d="M374 727L577 705"/>
</svg>