<!--
AnimCJK 2016-2017 Copyright Francois Mizessyn, http://gooo.free.fr/animCJK/
Derived from:
    MakeMeAHanzi project - https://github.com/skishore/makemeahanzi
    Arphic PL KaitiM GB - https://apps.ubuntu.com/cat/applications/precise/fonts-arphic-gkai00mp/
    Arphic PL UKai - https://apps.ubuntu.com/cat/applications/fonts-arphic-ukai/
You can redistribute and/or modify this file under the terms of the Arphic Public License
as published by Arphic Technology Co., Ltd.
You should have received a copy of this license (the directory "APL") along with this file;
if not, see http://ftp.gnu.org/non-gnu/chinese-fonts-truetype/LICENSE.
-->
<svg id="z32930" class="acjk" version="1.1" viewBox="0 0 1024 1024" xmlns="http://www.w3.org/2000/svg" xmlns:xlink="http://www.w3.org/1999/xlink">
<style>
<![CDATA[
	@keyframes z32930k {
		from {
			stroke:#c00;
			stroke-dashoffset:3000;
		}
		75% {
			stroke:#c00;
			stroke-dashoffset:0;
		}
		to {
			stroke:#000;
		}
	}
	#z32930 path[clip-path] {
		animation:z32930k 1s linear both;
		stroke-dasharray:3000;
		stroke-width:128;
		stroke-linecap:round;
		fill:none;
	}
	#z32930 path[clip-path="url(#z32930c1)"] {animation-delay:1s;}
	#z32930 path[clip-path="url(#z32930c2)"] {animation-delay:2s;}
	#z32930 path[clip-path="url(#z32930c3)"] {animation-delay:3s;}
	#z32930 path[clip-path="url(#z32930c4)"] {animation-delay:4s;}
	#z32930 path[clip-path="url(#z32930c5)"] {animation-delay:5s;}
	#z32930 path[clip-path="url(#z32930c6)"] {animation-delay:6s;}
	#z32930 path[clip-path="url(#z32930c7)"] {animation-delay:7s;}
	#z32930 path[clip-path="url(#z32930c8)"] {animation-delay:8s;}
	#z32930 path {fill:#ccc;}
]]>
</style>
<g transform="scale(1,-1) translate(0,-900)">
	<path id="z32930d1" d="M212 346Q221 383 226 466L228 503Q229 521 230 538Q233 628 236 642Q236 643 237 644L224 676Q209 686 188 694Q169 703 157 697Q147 690 154 677Q169 659 177 604Q177 376 148 266Q115 155 48 34Q44 27 43 21Q42 11 51 14Q69 17 99 67Q166 154 205 313L212 346Z"/>
	<path id="z32930d2" d="M237 644Q243 647 304 663Q323 667 329 657Q353 596 339 223Q332 121 324 108Q323 108 255 111Q236 117 237 107Q288 64 316 32Q329 13 345 8Q355 4 363 14Q402 65 401 118Q377 587 406 644Q419 663 406 674Q385 693 349 708Q330 715 315 709Q287 693 270 687Q254 683 224 676L237 644Z"/>
	<path id="z32930d3" d="M226 466Q274 475 309 481Q333 488 322 500Q309 513 282 516Q260 516 228 503L226 466Z"/>
	<path id="z32930d4" d="M205 313Q206 313 209 313Q266 322 308 327Q330 331 321 344Q311 359 285 362Q231 365 212 346L205 313Z"/>
	<path id="z32930d5" d="M651 555Q709 571 771 584Q817 597 824 603Q833 612 828 620Q821 632 790 639Q760 643 655 605L605 591Q548 578 485 570Q448 563 475 546Q520 527 584 541Q593 544 604 544L651 555Z"/>
	<path id="z32930d6" d="M641 416Q645 488 651 555L655 605Q655 684 678 782Q682 792 662 808Q626 827 602 832Q586 835 578 827Q571 820 578 804Q602 770 601 747Q605 672 605 591L604 544Q603 477 599 403L641 416Z"/>
	<path id="z32930d7" d="M667 159Q712 226 752 340Q764 371 784 391Q803 407 789 421Q774 434 742 444Q717 451 689 436Q667 426 641 416L599 403Q557 393 494 383Q481 382 476 374Q472 367 491 359Q530 346 579 363Q657 391 671 391Q696 390 690 363Q672 270 627 195L602 161Q535 86 416 49Q401 43 414 35Q420 31 463 33Q547 39 634 121L667 159Z"/>
	<path id="z32930d8" d="M634 121Q683 64 765 -7Q795 -31 840 -22Q900 -13 943 -7Q956 -4 969 2Q976 9 965 18Q949 25 824 64Q760 82 667 159L627 195Q588 234 546 282Q525 307 491 312Q481 313 471 307Q467 300 475 294Q482 288 491 283Q519 270 602 161L634 121Z"/>
	<defs>
		<clipPath id="z32930c1"><use xlink:href="#z32930d1"/></clipPath>
		<clipPath id="z32930c2"><use xlink:href="#z32930d2"/></clipPath>
		<clipPath id="z32930c3"><use xlink:href="#z32930d3"/></clipPath>
		<clipPath id="z32930c4"><use xlink:href="#z32930d4"/></clipPath>
		<clipPath id="z32930c5"><use xlink:href="#z32930d5"/></clipPath>
		<clipPath id="z32930c6"><use xlink:href="#z32930d6"/></clipPath>
		<clipPath id="z32930c7"><use xlink:href="#z32930d7"/></clipPath>
		<clipPath id="z32930c8"><use xlink:href="#z32930d8"/></clipPath>
	</defs>
	<path pathLength="2999" clip-path="url(#z32930c1)" d="M157 693L204 635L189 356L139 178L49 21"/>
	<path pathLength="2999" clip-path="url(#z32930c2)" d="M233 671L320 688L373 648L361 96L334 58L246 106"/>
	<path pathLength="2999" clip-path="url(#z32930c3)" d="M232 475L320 495"/>
	<path pathLength="2999" clip-path="url(#z32930c4)" d="M214 320L318 341"/>
	<path pathLength="2999" clip-path="url(#z32930c5)" d="M473 558L823 615"/>
	<path pathLength="2999" clip-path="url(#z32930c6)" d="M582 820L639 772L607 408"/>
	<path pathLength="2999" clip-path="url(#z32930c7)" d="M479 372L701 415L742 390L616 139L509 64L417 42"/>
	<path pathLength="2999" clip-path="url(#z32930c8)" d="M479 302L788 30L965 10"/>
</g>
</svg>