<!--
AnimCJK 2016-2025 Copyright FM-SH - https://github.com/parsimonhi/animCJK
Derived from:
    MakeMeAHanzi project - https://github.com/skishore/makemeahanzi
    Arphic PL KaitiM GB font
    Arphic PL UKai font
You can redistribute and/or modify this file under the terms of the Arphic Public License
as published by Arphic Technology Co., Ltd.
You should have received a copy of this license along with this file.
If not, see http://ftp.gnu.org/non-gnu/chinese-fonts-truetype/LICENSE.
-->
<svg id="z32945" class="acjk" version="1.1" viewBox="0 0 1024 1024" xmlns="http://www.w3.org/2000/svg" xmlns:xlink="http://www.w3.org/1999/xlink">
<style>
<![CDATA[
@keyframes zk {
	to {
		stroke-dashoffset:0;
	}
}
svg.acjk path[clip-path] {
	--t:0.8s;
	animation:zk var(--t) linear forwards var(--d);
	stroke-dasharray:3337;
	stroke-dashoffset:3339;
	stroke-width:128;
	stroke-linecap:round;
	fill:none;
	stroke:#000;
}
svg.acjk path[id] {fill:#ccc;}
]]>
</style>
<path id="z32945d1" d="M232 197C221 189 207 182 192 178C164 169 144 174 158 196C169 214 182 241 184 278C194 556 160 677 73 846C30 928 63 905 108 846C160 775 201 676 221 547C224 524 224 524 226 513C232 470 234 428 236 386C237 366 237 366 237 356C239 288 238 245 241 228C243 217 241 203 232 197Z"/>
<path id="z32945d2" d="M401 747C393 654 395 530 396 305C396 268 398 241 408 226C415 213 415 204 408 198C394 186 376 175 353 165C342 160 331 159 321 165C295 179 266 191 232 197C221 199 230 230 241 228C251 226 274 218 311 209C344 200 344 244 345 265C350 461 346 619 339 739C336 769 329 787 302 782C286 779 270 777 255 776C224 772 244 786 256 795C284 816 307 834 323 852C332 863 341 870 351 874C357 876 362 874 368 868C392 836 405 803 403 772C402 755 402 755 401 747Z"/>
<path id="z32945d3" d="M236 386Q248 386 313 376Q335 370 326 359Q314 346 290 344Q269 343 237 356C228 360 226 386 236 386Z"/>
<path id="z32945d4" d="M221 547Q273 537 313 532Q335 528 325 515Q315 502 290 499Q268 498 230 511Q229 512 226 513C215 517 210 549 221 547Z"/>
<path id="z32945d5" d="M589 351C566 356 470 370 440 375C417 378 416 386 433 399C459 418 472 426 494 420C515 413 550 407 577 401C615 392 615 392 634 388C674 378 751 362 864 344C897 338 889 321 860 306C845 298 829 293 809 294C778 296 739 316 645 338C608 347 608 347 589 351Z"/>
<path id="z32945d6" d="M645 338C660 265 665 217 690 170C693 162 694 157 689 151C678 138 662 125 640 114C606 96 583 103 596 129C620 181 601 275 589 351C586 367 581 384 577 401C544 536 481 653 401 747C395 753 396 776 403 772C504 710 591 565 634 388C638 371 641 354 645 338Z"/>
<path id="z32945d7" d="M790 749C730 759 667 772 605 792C585 798 589 785 595 776C665 659 708 591 725 573C732 564 734 557 730 549C725 540 706 525 670 515C634 505 627 521 636 542C653 584 627 660 549 766C536 782 518 795 499 812C488 820 486 828 490 837C494 848 505 861 524 875C532 881 541 881 550 873C584 841 668 808 804 774C813 772 799 747 790 749Z"/>
<path id="z32945d8" d="M804 774C849 855 870 901 876 905C880 907 889 908 895 902C905 888 909 878 910 848C910 807 861 742 762 652C757 647 752 648 750 656C746 664 747 673 752 681C764 701 776 724 790 749C799 766 799 766 804 774Z"/>
<defs>
	<clipPath id="z32945c1"><use xlink:href="#z32945d1"/></clipPath>
	<clipPath id="z32945c2"><use xlink:href="#z32945d2"/></clipPath>
	<clipPath id="z32945c3"><use xlink:href="#z32945d3"/></clipPath>
	<clipPath id="z32945c4"><use xlink:href="#z32945d4"/></clipPath>
	<clipPath id="z32945c5"><use xlink:href="#z32945d5"/></clipPath>
	<clipPath id="z32945c6"><use xlink:href="#z32945d6"/></clipPath>
	<clipPath id="z32945c7"><use xlink:href="#z32945d7"/></clipPath>
	<clipPath id="z32945c8"><use xlink:href="#z32945d8"/></clipPath>
</defs>
<path style="--d:1s;" pathLength="3333" clip-path="url(#z32945c1)" d="M160 183L209 229L200 529L151 725L60 889"/>
<path style="--d:2s;" pathLength="3333" clip-path="url(#z32945c2)" d="M230 208L326 185L376 218L366 786L337 828L251 782"/>
<path style="--d:3s;" pathLength="3333" clip-path="url(#z32945c3)" d="M236 378L322 364"/>
<path style="--d:4s;" pathLength="3333" clip-path="url(#z32945c4)" d="M217 539L323 519"/>
<path style="--d:5s;" pathLength="3333" clip-path="url(#z32945c5)" d="M429 384L483 395L783 328L880 327"/>
<path style="--d:6s;" pathLength="3333" clip-path="url(#z32945c6)" d="M600 111L648 170L591 447L515 621L405 766"/>
<path style="--d:7s;" pathLength="3333" clip-path="url(#z32945c7)" d="M642 520L686 565L541 816L565 836L802 764"/>
<path style="--d:8s;" pathLength="3333" clip-path="url(#z32945c8)" d="M757 656L864 814L886 900"/>
</svg>