<!--
AnimCJK 2016-2017 Copyright Francois Mizessyn, http://gooo.free.fr/animCJK/
Derived from:
    MakeMeAHanzi project - https://github.com/skishore/makemeahanzi
    Arphic PL KaitiM GB - https://apps.ubuntu.com/cat/applications/precise/fonts-arphic-gkai00mp/
    Arphic PL UKai - https://apps.ubuntu.com/cat/applications/fonts-arphic-ukai/
You can redistribute and/or modify this file under the terms of the Arphic Public License
as published by Arphic Technology Co., Ltd.
You should have received a copy of this license (the directory "APL") along with this file;
if not, see http://ftp.gnu.org/non-gnu/chinese-fonts-truetype/LICENSE.
-->
<svg id="z32943" class="acjk" version="1.1" viewBox="0 0 1024 1024" xmlns="http://www.w3.org/2000/svg" xmlns:xlink="http://www.w3.org/1999/xlink">
<style>
<![CDATA[
	@keyframes z32943k {
		from {
			stroke:#c00;
			stroke-dashoffset:3000;
		}
		75% {
			stroke:#c00;
			stroke-dashoffset:0;
		}
		to {
			stroke:#000;
		}
	}
	#z32943 path[clip-path] {
		animation:z32943k 1s linear both;
		stroke-dasharray:3000;
		stroke-width:128;
		stroke-linecap:round;
		fill:none;
	}
	#z32943 path[clip-path="url(#z32943c1)"] {animation-delay:1s;}
	#z32943 path[clip-path="url(#z32943c2)"] {animation-delay:2s;}
	#z32943 path[clip-path="url(#z32943c3)"] {animation-delay:3s;}
	#z32943 path[clip-path="url(#z32943c4)"] {animation-delay:4s;}
	#z32943 path[clip-path="url(#z32943c5)"] {animation-delay:5s;}
	#z32943 path[clip-path="url(#z32943c6)"] {animation-delay:6s;}
	#z32943 path[clip-path="url(#z32943c7)"] {animation-delay:7s;}
	#z32943 path[clip-path="url(#z32943c8)"] {animation-delay:8s;}
	#z32943 path {fill:#ccc;}
]]>
</style>
<g transform="scale(1,-1) translate(0,-900)">
	<path id="z32943d1" d="M539 558Q543 625 550 687L553 714Q556 762 570 807Q573 819 552 835Q515 854 488 859Q470 863 462 853Q455 846 463 829Q481 805 482 788Q492 679 493 551L539 558Z"/>
	<path id="z32943d2" d="M550 687Q601 671 643 684Q686 693 732 703Q753 707 756 711Q765 720 760 728Q751 740 722 746Q695 749 615 725Q585 718 553 714L550 687Z"/>
	<path id="z32943d3" d="M385 537Q376 633 380 664Q381 688 366 699Q341 717 312 724Q297 728 288 722Q281 715 288 700Q304 676 314 650Q321 626 340 532L385 537Z"/>
	<path id="z32943d4" d="M340 532Q222 520 94 504Q70 503 88 483Q124 450 164 460Q438 533 916 534Q938 534 943 544Q950 557 931 572Q868 620 801 601Q695 582 539 558L493 551Q441 545 385 537L340 532Z"/>
	<path id="z32943d5" d="M384 207Q387 262 391 300L392 321Q396 370 399 388Q399 391 399 393L392 421Q388 427 381 430Q350 446 331 446Q316 442 322 429Q374 303 311 98Q275 29 313 -17Q320 -32 332 -26Q371 1 382 180L384 207Z"/>
	<path id="z32943d6" d="M399 393Q412 394 429 398Q576 428 599 418Q614 411 614 379Q632 201 624 60Q623 32 607 27Q597 23 547 34Q534 38 534 28Q535 19 552 9Q586 -25 612 -58Q627 -74 643 -74Q659 -70 681 -20Q708 32 702 84Q692 210 681 324Q677 370 695 406Q708 422 692 439Q673 455 630 471Q612 480 543 454Q468 439 392 421L399 393Z"/>
	<path id="z32943d7" d="M391 300Q421 290 481 298Q565 313 571 317Q578 324 574 331Q568 340 545 346Q521 350 497 341Q475 334 451 329Q426 325 395 322Q392 322 392 321L391 300Z"/>
	<path id="z32943d8" d="M382 180Q425 173 517 187Q574 197 578 200Q585 207 582 214Q576 224 552 231Q527 237 500 228Q473 221 445 214Q417 210 384 207L382 180Z"/>
	<defs>
		<clipPath id="z32943c1"><use xlink:href="#z32943d1"/></clipPath>
		<clipPath id="z32943c2"><use xlink:href="#z32943d2"/></clipPath>
		<clipPath id="z32943c3"><use xlink:href="#z32943d3"/></clipPath>
		<clipPath id="z32943c4"><use xlink:href="#z32943d4"/></clipPath>
		<clipPath id="z32943c5"><use xlink:href="#z32943d5"/></clipPath>
		<clipPath id="z32943c6"><use xlink:href="#z32943d6"/></clipPath>
		<clipPath id="z32943c7"><use xlink:href="#z32943d7"/></clipPath>
		<clipPath id="z32943c8"><use xlink:href="#z32943d8"/></clipPath>
	</defs>
	<path pathLength="2999" clip-path="url(#z32943c1)" d="M464 850L525 802L511 554"/>
	<path pathLength="2999" clip-path="url(#z32943c2)" d="M558 693L757 720"/>
	<path pathLength="2999" clip-path="url(#z32943c3)" d="M292 715L347 662L357 535"/>
	<path pathLength="2999" clip-path="url(#z32943c4)" d="M85 497L143 484L834 570L940 554"/>
	<path pathLength="2999" clip-path="url(#z32943c5)" d="M327 439L363 407L369 349L322 -21"/>
	<path pathLength="2999" clip-path="url(#z32943c6)" d="M399 417L601 446L657 409L658 28L627 -23L539 26"/>
	<path pathLength="2999" clip-path="url(#z32943c7)" d="M399 306L567 326"/>
	<path pathLength="2999" clip-path="url(#z32943c8)" d="M390 187L577 209"/>
</g>
</svg>