<!--
AnimCJK 2016-2017 Copyright Francois Mizessyn, http://gooo.free.fr/animCJK/
Derived from:
    MakeMeAHanzi project - https://github.com/skishore/makemeahanzi
    Arphic PL KaitiM GB - https://apps.ubuntu.com/cat/applications/precise/fonts-arphic-gkai00mp/
    Arphic PL UKai - https://apps.ubuntu.com/cat/applications/fonts-arphic-ukai/
You can redistribute and/or modify this file under the terms of the Arphic Public License
as published by Arphic Technology Co., Ltd.
You should have received a copy of this license (the directory "APL") along with this file;
if not, see http://ftp.gnu.org/non-gnu/chinese-fonts-truetype/LICENSE.
-->
<svg id="z33026" class="acjk" version="1.1" viewBox="0 0 1024 1024" xmlns="http://www.w3.org/2000/svg" xmlns:xlink="http://www.w3.org/1999/xlink">
<style>
<![CDATA[
	@keyframes z33026k {
		from {
			stroke:#c00;
			stroke-dashoffset:3000;
		}
		75% {
			stroke:#c00;
			stroke-dashoffset:0;
		}
		to {
			stroke:#000;
		}
	}
	#z33026 path[clip-path] {
		animation:z33026k 1s linear both;
		stroke-dasharray:3000;
		stroke-width:128;
		stroke-linecap:round;
		fill:none;
	}
	#z33026 path[clip-path="url(#z33026c1)"] {animation-delay:1s;}
	#z33026 path[clip-path="url(#z33026c2)"] {animation-delay:2s;}
	#z33026 path[clip-path="url(#z33026c3)"] {animation-delay:3s;}
	#z33026 path[clip-path="url(#z33026c4)"] {animation-delay:4s;}
	#z33026 path[clip-path="url(#z33026c5)"] {animation-delay:5s;}
	#z33026 path[clip-path="url(#z33026c6)"] {animation-delay:6s;}
	#z33026 path[clip-path="url(#z33026c7)"] {animation-delay:7s;}
	#z33026 path[clip-path="url(#z33026c8)"] {animation-delay:8s;}
	#z33026 path[clip-path="url(#z33026c9)"] {animation-delay:9s;}
	#z33026 path[clip-path="url(#z33026c10)"] {animation-delay:10s;}
	#z33026 path {fill:#ccc;}
]]>
</style>
<g transform="scale(1,-1) translate(0,-900)">
	<path id="z33026d1" d="M237 390Q244 448 249 507L250 543Q251 559 251 576Q254 631 257 688L240 719Q200 746 179 737Q169 730 176 717Q195 687 201 624Q200 611 201 596Q205 424 173 290Q142 179 72 49Q68 42 67 37Q66 27 75 30Q91 33 122 84Q194 177 231 358L237 390Z"/>
	<path id="z33026d2" d="M257 688Q257 689 262 690Q293 697 323 704Q345 708 349 696Q364 657 364 371Q364 145 348 118Q344 112 323 117Q295 124 267 131Q248 137 248 127Q306 78 339 41Q352 22 368 17Q377 13 386 23Q426 74 425 127Q415 308 414 601Q413 659 427 685Q440 704 428 715Q406 734 370 750Q351 757 335 750Q296 729 240 719L257 688Z"/>
	<path id="z33026d3" d="M249 507Q295 520 331 527Q352 534 342 545Q330 557 306 558Q284 558 250 543L249 507Z"/>
	<path id="z33026d4" d="M231 358Q240 358 333 375Q355 381 346 392Q334 405 308 408Q277 409 237 390L231 358Z"/>
	<path id="z33026d5" d="M572 607Q704 643 780 684Q795 694 814 699Q827 703 825 713Q824 720 807 732Q771 754 749 755Q739 756 739 745Q732 703 573 630L572 607Z"/>
	<path id="z33026d6" d="M532 612Q531 611 532 609Q533 596 533 578Q533 512 568 486Q607 455 739 462Q869 472 885 502Q889 509 880 528Q864 556 846 620Q843 633 836 637Q832 638 829 627Q819 591 810 560Q801 533 785 524Q751 502 640 505Q610 506 599 514Q572 532 572 607L573 630Q573 699 591 748Q598 763 591 773Q581 785 549 799Q524 809 514 801Q507 795 518 777Q534 752 532 714Q532 666 532 612Z"/>
	<path id="z33026d7" d="M560 371Q541 387 519 393Q510 394 505 387Q502 381 509 372Q542 278 515 141Q502 102 507 80Q516 50 526 39Q536 27 545 40Q554 50 559 74L565 107Q568 143 568 211L569 240Q570 313 574 339L560 371Z"/>
	<path id="z33026d8" d="M721 87Q746 53 766 20Q773 4 785 4Q800 5 816 36Q828 64 829 134Q811 318 836 348Q846 361 837 370Q819 389 768 413Q752 423 736 414Q694 396 560 371L574 339Q595 339 727 363Q746 366 756 358Q780 330 762 120Q758 101 740 110Q736 113 732 115L721 87Z"/>
	<path id="z33026d9" d="M568 211Q569 211 574 211Q647 221 702 228Q726 232 717 244Q707 259 681 264Q651 267 569 240L568 211Z"/>
	<path id="z33026d10" d="M559 74Q565 74 572 75Q620 84 721 87L732 115Q723 122 720 124Q705 133 676 127Q615 114 565 107L559 74Z"/>
	<defs>
		<clipPath id="z33026c1"><use xlink:href="#z33026d1"/></clipPath>
		<clipPath id="z33026c2"><use xlink:href="#z33026d2"/></clipPath>
		<clipPath id="z33026c3"><use xlink:href="#z33026d3"/></clipPath>
		<clipPath id="z33026c4"><use xlink:href="#z33026d4"/></clipPath>
		<clipPath id="z33026c5"><use xlink:href="#z33026d5"/></clipPath>
		<clipPath id="z33026c6"><use xlink:href="#z33026d6"/></clipPath>
		<clipPath id="z33026c7"><use xlink:href="#z33026d7"/></clipPath>
		<clipPath id="z33026c8"><use xlink:href="#z33026d8"/></clipPath>
		<clipPath id="z33026c9"><use xlink:href="#z33026d9"/></clipPath>
		<clipPath id="z33026c10"><use xlink:href="#z33026d10"/></clipPath>
	</defs>
	<path pathLength="2999" clip-path="url(#z33026c1)" d="M181 734L226 670L213 383L164 201L73 36"/>
	<path pathLength="2999" clip-path="url(#z33026c2)" d="M247 717L354 728L393 690L386 110L357 66L257 128"/>
	<path pathLength="2999" clip-path="url(#z33026c3)" d="M251 515L338 542"/>
	<path pathLength="2999" clip-path="url(#z33026c4)" d="M239 366L342 385"/>
	<path pathLength="2999" clip-path="url(#z33026c5)" d="M821 709L755 715L577 615"/>
	<path pathLength="2999" clip-path="url(#z33026c6)" d="M518 797L562 754L554 566L592 495L703 483L817 505L845 527L837 630"/>
	<path pathLength="2999" clip-path="url(#z33026c7)" d="M510 387L547 329L533 41"/>
	<path pathLength="2999" clip-path="url(#z33026c8)" d="M570 365L754 390L803 348L791 94L768 56L734 107"/>
	<path pathLength="2999" clip-path="url(#z33026c9)" d="M573 219L710 243"/>
	<path pathLength="2999" clip-path="url(#z33026c10)" d="M564 82L727 107"/>
</g>
</svg>