<!--
AnimCJK 2016-2026 Copyright FM-SH, https://github.com/parsimonhi/animCJK
Derived from:
    MakeMeAHanzi project - https://github.com/skishore/makemeahanzi
    Arphic PL KaitiM GB font
    Arphic PL KaitiM Big5 font
You can redistribute and/or modify this file under the terms of the Arphic Public License
as published by Arphic Technology Co., Ltd.
You should have received a copy of this license along with this file.
If not, see https://ftp.gnu.org/non-gnu/chinese-fonts-truetype/LICENSE.
-->
<svg id="z33094" class="acjk" viewBox="0 0 1024 1024" xmlns="http://www.w3.org/2000/svg">
<style>
<![CDATA[
@keyframes zk {
	to {
		stroke-dashoffset:0;
	}
}
svg.acjk path[clip-path] {
	--t:0.8s;
	animation:zk var(--t) linear forwards var(--d);
	stroke-dasharray:3337;
	stroke-dashoffset:3339;
	stroke-width:128;
	stroke-linecap:round;
	fill:none;
	stroke:#000;
}
svg.acjk path[id] {fill:#ccc;}
]]>
</style>
<path id="z33094d1" d="M198 538C204 502 207 460 209 414C210 391 210 391 210 380C211 332 212 283 215 234C215 222 202 212 192 206C152 182 116 187 132 212C153 246 157 285 159 324C169 563 129 690 51 839C40 858 48 871 72 842C103 805 162 718 191 574C196 550 196 550 198 538Z"/>
<path id="z33094d2" d="M215 234C233 227 251 220 276 212C288 207 296 208 299 215C309 240 315 350 314 542C313 694 306 778 297 794C295 796 270 794 223 785C209 782 218 799 225 805C251 827 274 847 290 866C296 873 317 903 334 883C359 851 371 817 370 784C364 647 360 479 360 278C360 255 363 237 371 226C378 213 379 204 371 198C357 187 338 176 316 167C304 162 271 179 246 189C228 195 214 199 192 206C181 210 204 238 215 234Z"/>
<path id="z33094d3" d="M209 414C231 409 252 407 270 403C301 395 277 375 248 373C237 372 224 374 210 380C199 384 198 416 209 414Z"/>
<path id="z33094d4" d="M191 574C219 568 245 565 269 560C302 552 275 530 246 528C233 527 217 530 198 538C186 542 179 576 191 574Z"/>
<path id="z33094d5" d="M471 350C437 326 387 321 408 354C431 390 454 474 475 608C477 620 514 616 512 604C496 488 488 415 488 386C488 373 482 358 471 350Z"/>
<path id="z33094d6" d="M821 565C827 531 834 497 841 465C849 424 865 389 890 361C903 344 900 332 881 320C862 308 844 297 827 287C815 280 803 280 787 286C761 294 732 301 714 305C683 311 683 311 668 314C642 319 616 323 589 329C564 334 564 334 551 337C520 343 493 346 471 350C458 352 475 389 488 386C500 383 518 376 554 369C578 364 578 364 590 361C602 358 627 355 666 350C696 346 696 346 711 344C731 341 752 336 777 335C792 333 801 337 801 371C801 409 789 476 765 574C762 593 817 584 821 565Z"/>
<path id="z33094d7" d="M589 329C587 273 589 238 590 224C591 209 586 197 578 191C563 179 547 171 530 166C513 160 496 166 507 188C531 237 546 286 551 337C553 358 553 358 554 369C556 394 558 427 561 467C562 485 562 485 563 494C565 524 565 559 569 598C571 610 607 607 607 594C604 556 602 520 599 489C597 470 597 470 596 460C592 423 590 390 590 361C589 340 589 340 589 329Z"/>
<path id="z33094d8" d="M714 305C717 255 724 195 745 124C747 115 742 106 729 97C706 82 686 74 670 71C652 67 633 75 646 98C661 127 671 150 671 170C671 216 670 264 668 314C667 338 667 338 666 350C664 380 661 412 660 445C659 468 659 468 658 479C655 513 650 550 647 589C647 603 690 598 690 584C692 546 697 508 701 472C703 448 703 448 704 436C706 405 708 374 711 344C713 318 713 318 714 305Z"/>
<path id="z33094d9" d="M701 472C719 468 738 465 756 464C784 460 767 439 739 434C730 432 718 432 704 436C675 442 675 442 660 445C637 449 616 455 596 460C573 465 573 465 561 467C548 469 536 471 526 474C517 476 517 482 529 489C539 494 551 495 563 494C587 491 587 491 599 489C617 486 637 482 658 479C687 474 687 474 701 472Z"/>
<path id="z33094d10" d="M475 608C445 611 414 613 384 616C371 617 368 623 378 634C396 653 418 658 440 653C556 623 708 609 898 614C920 614 989 618 953 584C919 552 866 557 821 565C784 571 784 571 765 574C741 577 716 580 690 584C661 587 661 587 647 589C634 590 621 592 607 594C582 597 582 597 569 598C550 599 531 601 512 604C487 607 487 607 475 608Z"/>
<path id="z33094d11" d="M519 695C513 728 474 783 396 856C384 866 385 869 403 867C446 861 497 827 555 763C570 745 583 734 590 727C608 705 593 693 569 686C549 680 523 667 519 695Z"/>
<path id="z33094d12" d="M706 717C738 757 777 802 815 860C843 903 878 899 868 824C862 785 813 750 725 693C693 672 687 694 706 717Z"/>
<defs>
	<clipPath id="z33094c1"><use href="#z33094d1"/></clipPath>
	<clipPath id="z33094c2"><use href="#z33094d2"/></clipPath>
	<clipPath id="z33094c3"><use href="#z33094d3"/></clipPath>
	<clipPath id="z33094c4"><use href="#z33094d4"/></clipPath>
	<clipPath id="z33094c5"><use href="#z33094d5"/></clipPath>
	<clipPath id="z33094c6"><use href="#z33094d6"/></clipPath>
	<clipPath id="z33094c7"><use href="#z33094d7"/></clipPath>
	<clipPath id="z33094c8"><use href="#z33094d8"/></clipPath>
	<clipPath id="z33094c9"><use href="#z33094d9"/></clipPath>
	<clipPath id="z33094c10"><use href="#z33094d10"/></clipPath>
	<clipPath id="z33094c11"><use href="#z33094d11"/></clipPath>
	<clipPath id="z33094c12"><use href="#z33094d12"/></clipPath>
</defs>
<path style="--d:1s;" pathLength="3333" clip-path="url(#z33094c1)" d="M136 200L182 242L176 532L136 694L55 849"/>
<path style="--d:2s;" pathLength="3333" clip-path="url(#z33094c2)" d="M195 209L306 189L339 217L332 807L304 841L222 789"/>
<path style="--d:3s;" pathLength="3333" clip-path="url(#z33094c3)" d="M205 403L279 390"/>
<path style="--d:4s;" pathLength="3333" clip-path="url(#z33094c4)" d="M188 565L279 547"/>
<path style="--d:5s;" pathLength="3333" clip-path="url(#z33094c5)" d="M410 339L454 376L495 612"/>
<path style="--d:6s;" pathLength="3333" clip-path="url(#z33094c6)" d="M470 355L820 319L849 358L785 582"/>
<path style="--d:7s;" pathLength="3333" clip-path="url(#z33094c7)" d="M511 168L559 230L584 602"/>
<path style="--d:8s;" pathLength="3333" clip-path="url(#z33094c8)" d="M650 80L706 133L666 595"/>
<path style="--d:9s;" pathLength="3333" clip-path="url(#z33094c9)" d="M530 481L765 450"/>
<path style="--d:10s;" pathLength="3333" clip-path="url(#z33094c10)" d="M378 623L836 587L958 596"/>
<path style="--d:11s;" pathLength="3333" clip-path="url(#z33094c11)" d="M528 685L552 722L394 862"/>
<path style="--d:12s;" pathLength="3333" clip-path="url(#z33094c12)" d="M702 691L816 800L854 881"/>
</svg>