<!--
AnimCJK 2016-2025 Copyright FM-SH - https://github.com/parsimonhi/animCJK
Derived from:
    MakeMeAHanzi project - https://github.com/skishore/makemeahanzi
    Arphic PL KaitiM GB font
    Arphic PL UKai font
You can redistribute and/or modify this file under the terms of the Arphic Public License
as published by Arphic Technology Co., Ltd.
You should have received a copy of this license along with this file.
If not, see https://ftp.gnu.org/non-gnu/chinese-fonts-truetype/LICENSE.
-->
<svg id="z33108" class="acjk" viewBox="0 0 1024 1024" xmlns="http://www.w3.org/2000/svg">
<style>
<![CDATA[
@keyframes zk {
	to {
		stroke-dashoffset:0;
	}
}
svg.acjk path[clip-path] {
	--t:0.8s;
	animation:zk var(--t) linear forwards var(--d);
	stroke-dasharray:3337;
	stroke-dashoffset:3339;
	stroke-width:128;
	stroke-linecap:round;
	fill:none;
	stroke:#000;
}
svg.acjk path[id] {fill:#ccc;}
]]>
</style>
<path id="z33108d1" d="M206 550C214 506 217 463 219 421C220 398 220 398 220 387C222 303 220 253 222 238C224 228 227 213 219 207C208 198 194 191 177 186C150 177 133 184 146 203C158 220 170 251 172 300C179 494 156 673 71 829C13 933 66 881 100 832C143 766 180 684 200 582C204 561 204 561 206 550Z"/>
<path id="z33108d2" d="M222 238C245 231 271 224 296 216C326 205 325 247 327 264C337 338 343 481 333 690C331 723 339 786 297 779C280 775 263 772 247 769C214 761 235 777 247 787C272 808 298 831 314 850C325 864 343 883 358 867C382 838 395 805 394 768C380 515 374 347 382 264C383 249 387 238 392 230C398 217 398 207 392 202C378 189 358 180 336 171C304 157 306 182 219 207C209 210 212 240 222 238Z"/>
<path id="z33108d3" d="M219 421C243 416 267 413 289 410C303 407 306 402 301 395C294 386 283 381 269 380C256 379 240 381 220 387C209 391 208 423 219 421Z"/>
<path id="z33108d4" d="M200 582C234 575 263 570 289 566C303 563 306 558 301 551C294 542 285 535 270 534C240 531 224 538 206 550C197 556 189 584 200 582Z"/>
<path id="z33108d5" d="M583 163C603 176 622 193 644 210C653 217 664 219 674 219C680 218 686 213 689 204C691 193 687 178 680 160C674 147 662 134 641 129C588 114 558 112 552 117C548 119 547 125 550 134C551 140 563 150 583 163Z"/>
<path id="z33108d6" d="M481 312C473 296 462 285 451 278C440 271 436 286 437 293C439 311 435 340 419 380C414 391 409 402 411 414C413 426 418 437 425 447C429 453 432 453 438 449C441 446 445 442 451 432C453 427 455 417 462 402C466 390 473 364 483 344C487 334 486 322 481 312Z"/>
<path id="z33108d7" d="M483 344C493 348 514 346 545 337C609 316 684 301 771 293C783 291 801 299 798 310C791 332 784 355 772 377C753 413 775 398 790 388C823 364 852 348 880 340C902 332 913 325 913 321C912 314 890 295 847 266C820 248 816 253 723 271C641 286 573 300 481 312C470 314 473 342 483 344Z"/>
<path id="z33108d8" d="M539 399C546 447 520 483 459 562C436 588 456 583 472 576C496 564 536 531 581 468C589 455 605 435 602 422C600 415 593 406 579 395C566 386 556 382 547 382C538 383 536 388 539 399Z"/>
<path id="z33108d9" d="M742 518C724 518 704 510 694 496C681 480 676 461 677 442C677 425 677 413 677 397C677 389 671 377 672 369C673 356 684 355 692 358C703 362 715 366 726 372C734 375 732 386 729 394C719 413 715 435 721 459C723 467 727 479 744 483C771 488 799 463 821 462C841 461 853 469 863 483C866 489 860 499 853 501C816 508 779 517 742 518Z"/>
<path id="z33108d10" d="M632 650C730 632 772 621 783 614C803 599 780 585 754 581C726 576 691 607 492 630C469 632 466 641 483 651C523 673 561 662 593 657C619 652 619 652 632 650Z"/>
<path id="z33108d11" d="M639 813C652 667 682 685 632 650C622 642 590 644 593 657C602 697 600 755 597 818C597 832 639 827 639 813Z"/>
<path id="z33108d12" d="M597 818C536 825 471 831 401 838C387 839 384 845 395 857C403 867 414 873 427 877C441 881 453 881 464 879C599 848 744 840 897 852C925 854 943 844 912 818C878 789 847 779 823 785C777 794 715 803 639 813C611 816 611 816 597 818Z"/>
<defs>
	<clipPath id="z33108c1"><use href="#z33108d1"/></clipPath>
	<clipPath id="z33108c2"><use href="#z33108d2"/></clipPath>
	<clipPath id="z33108c3"><use href="#z33108d3"/></clipPath>
	<clipPath id="z33108c4"><use href="#z33108d4"/></clipPath>
	<clipPath id="z33108c5"><use href="#z33108d5"/></clipPath>
	<clipPath id="z33108c6"><use href="#z33108d6"/></clipPath>
	<clipPath id="z33108c7"><use href="#z33108d7"/></clipPath>
	<clipPath id="z33108c8"><use href="#z33108d8"/></clipPath>
	<clipPath id="z33108c9"><use href="#z33108d9"/></clipPath>
	<clipPath id="z33108c10"><use href="#z33108d10"/></clipPath>
	<clipPath id="z33108c11"><use href="#z33108d11"/></clipPath>
	<clipPath id="z33108c12"><use href="#z33108d12"/></clipPath>
</defs>
<path style="--d:1s;" pathLength="3333" clip-path="url(#z33108c1)" d="M149 187L192 224L186 533L136 727L52 882"/>
<path style="--d:2s;" pathLength="3333" clip-path="url(#z33108c2)" d="M216 226L313 192L359 220L360 774L331 825L240 772"/>
<path style="--d:3s;" pathLength="3333" clip-path="url(#z33108c3)" d="M214 410L297 400"/>
<path style="--d:4s;" pathLength="3333" clip-path="url(#z33108c4)" d="M202 573L297 555"/>
<path style="--d:5s;" pathLength="3333" clip-path="url(#z33108c5)" d="M555 122L645 167L679 212"/>
<path style="--d:6s;" pathLength="3333" clip-path="url(#z33108c6)" d="M448 280L460 328L432 447"/>
<path style="--d:7s;" pathLength="3333" clip-path="url(#z33108c7)" d="M478 322L813 279L849 310L857 336L772 392"/>
<path style="--d:8s;" pathLength="3333" clip-path="url(#z33108c8)" d="M546 390L565 442L457 576"/>
<path style="--d:9s;" pathLength="3333" clip-path="url(#z33108c9)" d="M679 366L703 393L698 453L721 493L858 484"/>
<path style="--d:10s;" pathLength="3333" clip-path="url(#z33108c10)" d="M479 637L549 643L785 601"/>
<path style="--d:11s;" pathLength="3333" clip-path="url(#z33108c11)" d="M601 656L629 690L611 823"/>
<path style="--d:12s;" pathLength="3333" clip-path="url(#z33108c12)" d="M395 846L453 856L818 816L922 839"/>
</svg>