<!--
AnimCJK 2016-2026 Copyright FM-SH, https://github.com/parsimonhi/animCJK
Derived from:
    MakeMeAHanzi project - https://github.com/skishore/makemeahanzi
    Arphic PL KaitiM GB font
    Arphic PL KaitiM Big5 font
You can redistribute and/or modify this file under the terms of the Arphic Public License
as published by Arphic Technology Co., Ltd.
You should have received a copy of this license along with this file.
If not, see https://ftp.gnu.org/non-gnu/chinese-fonts-truetype/LICENSE.
-->
<svg id="z33187" class="acjk" viewBox="0 0 1024 1024" xmlns="http://www.w3.org/2000/svg">
<style>
<![CDATA[
@keyframes zk {
	to {
		stroke-dashoffset:0;
	}
}
svg.acjk path[clip-path] {
	--t:0.8s;
	animation:zk var(--t) linear forwards var(--d);
	stroke-dasharray:3337;
	stroke-dashoffset:3339;
	stroke-width:128;
	stroke-linecap:round;
	fill:none;
	stroke:#000;
}
svg.acjk path[id] {fill:#ccc;}
]]>
</style>
<path id="z33187d1" d="M213 382C215 329 212 257 218 235C220 225 224 212 217 205C188 179 120 164 142 198C150 211 164 233 165 271C169 542 153 620 50 822C38 846 40 870 66 837C143 740 173 652 189 573C193 553 193 553 195 543C202 504 208 462 211 417C212 394 212 394 213 382Z"/>
<path id="z33187d2" d="M218 235C224 233 246 226 283 217C315 208 315 248 316 272C324 467 321 625 315 744C313 769 310 787 282 782C265 778 248 775 230 772C204 766 212 775 229 788C258 811 282 831 300 850C314 865 330 879 342 865C366 834 377 802 376 771C369 652 365 498 364 307C363 272 366 247 375 232C381 219 381 210 375 205C362 194 344 184 322 175C311 170 300 169 292 175C268 189 243 197 217 205C208 209 209 239 218 235Z"/>
<path id="z33187d3" d="M211 417C237 411 261 408 282 404C313 396 288 374 258 373C245 372 230 375 213 382C202 386 200 419 211 417Z"/>
<path id="z33187d4" d="M189 573C216 574 249 566 278 560C309 552 284 530 254 529C239 528 219 533 195 543C186 547 179 573 189 573Z"/>
<path id="z33187d5" d="M572 135C586 146 602 160 618 175C636 191 679 195 655 129C648 110 616 98 565 89C542 85 538 89 541 105C542 112 554 121 572 135Z"/>
<path id="z33187d6" d="M452 244C436 218 409 198 411 229C412 249 409 278 394 315C389 326 386 336 388 348C391 389 415 392 426 365C427 359 431 349 436 334C445 297 452 277 456 275C463 267 458 252 452 244Z"/>
<path id="z33187d7" d="M456 275C468 279 493 278 530 268C572 255 616 245 662 238C673 236 683 234 692 233C716 229 732 227 757 225C807 219 776 277 765 302C751 332 771 319 781 313C811 291 840 277 867 270C891 263 906 257 885 237C874 228 858 213 834 197C798 173 805 189 452 244C442 246 446 273 456 275Z"/>
<path id="z33187d8" d="M433 436C423 441 419 431 429 422C484 368 514 333 520 300C523 279 523 271 546 282C548 283 592 306 572 335C559 352 506 394 433 436Z"/>
<path id="z33187d9" d="M734 392C715 391 693 382 684 368C669 346 668 317 669 285C669 277 666 267 662 258C657 248 676 246 692 253C707 259 723 272 719 286C706 321 706 349 734 355C760 360 779 341 801 340C835 338 857 373 833 379C813 383 763 393 734 392Z"/>
<path id="z33187d10" d="M602 476C622 472 667 462 740 454C749 452 772 443 738 424C718 413 685 414 633 428C576 442 517 448 460 458C443 460 441 467 454 477C490 504 512 492 552 485C585 479 585 479 602 476Z"/>
<path id="z33187d11" d="M704 570C649 576 593 584 536 594C524 595 525 593 529 588C565 540 591 512 606 500C616 491 616 483 602 476C587 467 552 468 552 485C554 509 537 538 503 574C493 583 480 593 461 602C447 608 440 613 440 618C439 626 441 636 446 647C450 657 456 663 462 666C466 667 471 668 477 665C532 630 673 595 717 586C724 585 711 569 704 570Z"/>
<path id="z33187d12" d="M717 586C731 604 756 646 771 651C793 658 791 617 790 601C787 579 768 558 733 538C710 525 692 516 680 510C670 504 664 519 676 535C684 546 693 557 704 570C713 581 713 581 717 586Z"/>
<path id="z33187d13" d="M635 741C657 737 682 733 709 729C781 715 760 696 722 684C703 678 676 685 638 695C601 704 601 704 582 709C549 717 514 716 478 719C455 720 451 728 467 739C506 764 543 755 584 749C618 744 618 744 635 741Z"/>
<path id="z33187d14" d="M630 825C630 794 633 766 635 741C637 710 637 710 638 695C638 683 646 671 637 661C623 645 608 635 594 631C576 625 563 631 569 645C573 655 580 676 582 709C583 736 583 736 584 749C585 769 585 797 587 831C587 845 630 839 630 825Z"/>
<path id="z33187d15" d="M587 831C525 839 439 846 389 851C375 852 372 858 383 869C408 895 435 893 449 890C544 866 667 857 817 865C840 866 901 865 864 833C818 794 801 801 630 825C601 829 601 829 587 831Z"/>
<defs>
	<clipPath id="z33187c1"><use href="#z33187d1"/></clipPath>
	<clipPath id="z33187c2"><use href="#z33187d2"/></clipPath>
	<clipPath id="z33187c3"><use href="#z33187d3"/></clipPath>
	<clipPath id="z33187c4"><use href="#z33187d4"/></clipPath>
	<clipPath id="z33187c5"><use href="#z33187d5"/></clipPath>
	<clipPath id="z33187c6"><use href="#z33187d6"/></clipPath>
	<clipPath id="z33187c7"><use href="#z33187d7"/></clipPath>
	<clipPath id="z33187c8"><use href="#z33187d8"/></clipPath>
	<clipPath id="z33187c9"><use href="#z33187d9"/></clipPath>
	<clipPath id="z33187c10"><use href="#z33187d10"/></clipPath>
	<clipPath id="z33187c11"><use href="#z33187d11"/></clipPath>
	<clipPath id="z33187c12"><use href="#z33187d12"/></clipPath>
	<clipPath id="z33187c13"><use href="#z33187d13"/></clipPath>
	<clipPath id="z33187c14"><use href="#z33187d14"/></clipPath>
	<clipPath id="z33187c15"><use href="#z33187d15"/></clipPath>
</defs>
<path style="--d:1s;" pathLength="3333" clip-path="url(#z33187c1)" d="M143 185L189 223L177 524L140 672L49 844"/>
<path style="--d:2s;" pathLength="3333" clip-path="url(#z33187c2)" d="M218 227L298 193L346 232L341 788L315 825L222 777"/>
<path style="--d:3s;" pathLength="3333" clip-path="url(#z33187c3)" d="M206 407L290 387"/>
<path style="--d:4s;" pathLength="3333" clip-path="url(#z33187c4)" d="M192 565L286 550"/>
<path style="--d:5s;" pathLength="3333" clip-path="url(#z33187c5)" d="M546 98L622 137L649 180"/>
<path style="--d:6s;" pathLength="3333" clip-path="url(#z33187c6)" d="M419 218L434 262L410 378"/>
<path style="--d:7s;" pathLength="3333" clip-path="url(#z33187c7)" d="M453 254L796 208L841 255L768 314"/>
<path style="--d:8s;" pathLength="3333" clip-path="url(#z33187c8)" d="M531 282L544 326L432 427"/>
<path style="--d:9s;" pathLength="3333" clip-path="url(#z33187c9)" d="M670 257L711 366L839 368"/>
<path style="--d:10s;" pathLength="3333" clip-path="url(#z33187c10)" d="M454 465L750 444"/>
<path style="--d:11s;" pathLength="3333" clip-path="url(#z33187c11)" d="M558 482L575 510L489 603L496 628L712 581"/>
<path style="--d:12s;" pathLength="3333" clip-path="url(#z33187c12)" d="M675 514L757 593L778 646"/>
<path style="--d:13s;" pathLength="3333" clip-path="url(#z33187c13)" d="M467 729L751 706"/>
<path style="--d:14s;" pathLength="3333" clip-path="url(#z33187c14)" d="M574 636L611 680L601 837"/>
<path style="--d:15s;" pathLength="3333" clip-path="url(#z33187c15)" d="M386 860L770 834L869 848"/>
</svg>