<!--
AnimCJK 2016-2018 Copyright Francois Mizessyn, https://github.com/parsimonhi/animCJK
Derived from:
    MakeMeAHanzi project - https://github.com/skishore/makemeahanzi
    Arphic PL KaitiM GB - https://apps.ubuntu.com/cat/applications/precise/fonts-arphic-gkai00mp/
    Arphic PL UKai - https://apps.ubuntu.com/cat/applications/fonts-arphic-ukai/
You can redistribute and/or modify this file under the terms of the Arphic Public License
as published by Arphic Technology Co., Ltd.
You should have received a copy of this license (the directory "APL") along with this file;
if not, see http://ftp.gnu.org/non-gnu/chinese-fonts-truetype/LICENSE.
-->
<svg id="z33222" class="acjk" version="1.1" viewBox="0 0 1024 1024" xmlns="http://www.w3.org/2000/svg" xmlns:xlink="http://www.w3.org/1999/xlink">
<style>
<![CDATA[
@keyframes z33222k {
	from {
		stroke:#c00;
		stroke-dashoffset:3334;
	}
	75% {
		stroke:#c00;
		stroke-dashoffset:0;
	}
	to {
		stroke:#000;
	}
}
#z33222 path[clip-path] {
	animation:z33222k 1s linear both;
	stroke-dasharray:3334;
	stroke-width:128;
	stroke-linecap:round;
	fill:none;
}
#z33222 path[clip-path="url(#z33222c1)"] {animation-delay:1s;}
#z33222 path[clip-path="url(#z33222c2)"] {animation-delay:2s;}
#z33222 path[clip-path="url(#z33222c3)"] {animation-delay:3s;}
#z33222 path[clip-path="url(#z33222c4)"] {animation-delay:4s;}
#z33222 path[clip-path="url(#z33222c5)"] {animation-delay:5s;}
#z33222 path[clip-path="url(#z33222c6)"] {animation-delay:6s;}
#z33222 path[clip-path="url(#z33222c7)"] {animation-delay:7s;}
#z33222 path[clip-path="url(#z33222c8)"] {animation-delay:8s;}
#z33222 path[clip-path="url(#z33222c9)"] {animation-delay:9s;}
#z33222 path[clip-path="url(#z33222c10)"] {animation-delay:10s;}
#z33222 path[clip-path="url(#z33222c11)"] {animation-delay:11s;}
#z33222 path[clip-path="url(#z33222c12)"] {animation-delay:12s;}
#z33222 path[clip-path="url(#z33222c13)"] {animation-delay:13s;}
#z33222 path[clip-path="url(#z33222c14)"] {animation-delay:14s;}
#z33222 path[clip-path="url(#z33222c15)"] {animation-delay:15s;}
#z33222 path[clip-path="url(#z33222c16)"] {animation-delay:16s;}
#z33222 path[clip-path="url(#z33222c17)"] {animation-delay:17s;}
#z33222 path {fill:#ccc;}
]]>
</style>
<path id="z33222d1" d="M195 514Q201 492 205 403L206 369Q206 212 209 209L195 181Q156 154 133 164Q123 171 130 183Q149 210 156 262Q156 280 158 302Q167 473 137 604Q112 706 43 844Q39 850 38 856Q37 866 46 862Q61 859 92 808Q161 715 190 550L195 514 Z"/>
<path id="z33222d2" d="M209 209Q239 202 267 193Q285 189 290 197Q302 236 304 527Q301 756 286 779Q282 785 264 780Q239 776 214 769Q195 763 197 772Q249 815 279 849Q291 865 305 870Q314 873 321 864Q357 816 356 771Q346 585 347 283Q346 231 359 208Q369 190 359 181Q340 165 307 151Q291 144 276 151Q240 172 195 181L209 209 Z"/>
<path id="z33222d3" d="M205 403Q242 396 270 391Q291 385 282 375Q272 363 248 361Q232 360 206 369L205 403 Z"/>
<path id="z33222d4" d="M190 550Q236 540 273 536Q295 530 286 519Q274 506 250 504Q229 503 195 514L190 550 Z"/>
<path id="z33222d5" d="M586 85Q608 101 634 122Q649 132 663 131Q673 130 677 116Q680 101 668 74Q656 49 577 40Q561 39 556 41Q552 45 554 57Q558 67 586 85 Z"/>
<path id="z33222d6" d="M707 184Q723 180 743 177Q788 167 794 162Q803 155 798 147Q792 137 766 129Q736 120 649 151Q526 175 473 179Q439 183 463 199Q494 220 568 208Q617 199 672 190L707 184 Z"/>
<path id="z33222d7" d="M497 256Q522 316 544 323Q554 326 563 313Q567 303 564 285Q560 270 543 260Q518 241 507 235Q500 232 496 241Q493 248 497 256 Z"/>
<path id="z33222d8" d="M667 320Q671 313 679 304Q695 285 711 260Q718 250 730 236Q743 226 737 216Q730 201 707 184L672 190Q679 214 646 301Q639 314 637 326L667 320 Z"/>
<path id="z33222d9" d="M637 326L386 369Q368 370 382 385Q395 397 410 400Q428 404 442 400Q640 339 888 338Q889 338 891 338Q907 337 912 330Q916 320 902 308Q851 275 798 292Q743 304 667 320L637 326 Z"/>
<path id="z33222d10" d="M507 441Q497 437 470 432Q460 429 456 434Q452 440 459 454Q486 506 502 594Q506 621 521 638Q537 657 542 643Q543 636 544 629L544 607Q541 589 534 548L530 526Q523 486 521 469L507 441 Z"/>
<path id="z33222d11" d="M675 612Q688 631 701 638Q710 645 724 626Q734 608 760 508Q767 481 789 459Q799 449 790 436Q777 421 739 398Q726 392 659 407Q656 407 655 408Q619 414 507 441L521 469Q576 453 677 436Q699 432 707 440Q716 450 714 463Q696 571 680 584L675 612 Z"/>
<path id="z33222d12" d="M534 548Q535 548 539 548Q609 535 661 528Q680 525 673 514Q664 502 643 499Q612 495 530 526L534 548 Z"/>
<path id="z33222d13" d="M544 629Q547 629 552 629Q619 619 675 612L680 584Q676 583 673 582Q658 579 544 607L544 629 Z"/>
<path id="z33222d14" d="M420 693Q404 744 380 790Q365 817 382 842Q389 855 405 845Q447 806 444 737Q445 712 439 692Q435 685 430 685Q423 686 420 693 Z"/>
<path id="z33222d15" d="M483 710Q495 798 558 845Q648 908 819 897Q840 893 859 887Q881 880 883 866Q887 857 854 830Q803 781 768 729Q758 713 753 719Q750 722 769 807Q778 846 721 844Q604 841 551 788Q529 766 521 729Q517 707 505 701Q493 694 487 697Q481 698 483 710 Z"/>
<path id="z33222d16" d="M592 685Q653 749 674 751Q687 752 692 735Q693 723 684 705Q674 689 649 679Q612 663 595 660Q586 659 586 669Q585 676 592 685 Z"/>
<path id="z33222d17" d="M821 669Q860 699 900 734Q913 746 927 744Q937 744 941 731Q945 718 936 691Q924 655 816 626Q801 622 796 625Q792 629 793 641Q797 651 821 669 Z"/>
<defs>
	<clipPath id="z33222c1"><use xlink:href="#z33222d1"/></clipPath>
	<clipPath id="z33222c2"><use xlink:href="#z33222d2"/></clipPath>
	<clipPath id="z33222c3"><use xlink:href="#z33222d3"/></clipPath>
	<clipPath id="z33222c4"><use xlink:href="#z33222d4"/></clipPath>
	<clipPath id="z33222c5"><use xlink:href="#z33222d5"/></clipPath>
	<clipPath id="z33222c6"><use xlink:href="#z33222d6"/></clipPath>
	<clipPath id="z33222c7"><use xlink:href="#z33222d7"/></clipPath>
	<clipPath id="z33222c8"><use xlink:href="#z33222d8"/></clipPath>
	<clipPath id="z33222c9"><use xlink:href="#z33222d9"/></clipPath>
	<clipPath id="z33222c10"><use xlink:href="#z33222d10"/></clipPath>
	<clipPath id="z33222c11"><use xlink:href="#z33222d11"/></clipPath>
	<clipPath id="z33222c12"><use xlink:href="#z33222d12"/></clipPath>
	<clipPath id="z33222c13"><use xlink:href="#z33222d13"/></clipPath>
	<clipPath id="z33222c14"><use xlink:href="#z33222d14"/></clipPath>
	<clipPath id="z33222c15"><use xlink:href="#z33222d15"/></clipPath>
	<clipPath id="z33222c16"><use xlink:href="#z33222d16"/></clipPath>
	<clipPath id="z33222c17"><use xlink:href="#z33222d17"/></clipPath>
</defs>
<path pathLength="3333" clip-path="url(#z33222c1)" d="M135 169L180 227L177 492L134 684L44 857"/>
<path pathLength="3333" clip-path="url(#z33222c2)" d="M204 186L287 170L329 205L320 788L297 826L204 771"/>
<path pathLength="3333" clip-path="url(#z33222c3)" d="M213 394L277 380"/>
<path pathLength="3333" clip-path="url(#z33222c4)" d="M196 543L282 524"/>
<path pathLength="3333" clip-path="url(#z33222c5)" d="M561 49L632 82L666 126"/>
<path pathLength="3333" clip-path="url(#z33222c6)" d="M460 188L795 149"/>
<path pathLength="3333" clip-path="url(#z33222c7)" d="M503 244L547 319"/>
<path pathLength="3333" clip-path="url(#z33222c8)" d="M679 197L701 236L644 318"/>
<path pathLength="3333" clip-path="url(#z33222c9)" d="M387 378L801 315L908 324"/>
<path pathLength="3333" clip-path="url(#z33222c10)" d="M463 442L499 483L533 644"/>
<path pathLength="3333" clip-path="url(#z33222c11)" d="M515 446L695 417L742 434L753 455L699 633"/>
<path pathLength="3333" clip-path="url(#z33222c12)" d="M538 531L668 520"/>
<path pathLength="3333" clip-path="url(#z33222c13)" d="M552 621L676 598"/>
<path pathLength="3333" clip-path="url(#z33222c14)" d="M432 692L384 841"/>
<path pathLength="3333" clip-path="url(#z33222c15)" d="M491 703L560 822L694 868L831 848L758 725"/>
<path pathLength="3333" clip-path="url(#z33222c16)" d="M593 666L685 741"/>
<path pathLength="3333" clip-path="url(#z33222c17)" d="M801 630L896 690L931 740"/>
</svg>