<!--
AnimCJK 2016-2019 Copyright Francois Mizessyn - https://github.com/parsimonhi/animCJK
Derived from:
    MakeMeAHanzi project - https://github.com/skishore/makemeahanzi
    Arphic PL KaitiM GB font
    Arphic PL UKai font
You can redistribute and/or modify this file under the terms of the Arphic Public License
as published by Arphic Technology Co., Ltd.
You should have received a copy of this license along with this file.
If not, see http://ftp.gnu.org/non-gnu/chinese-fonts-truetype/LICENSE.
-->
<svg id="z33222" class="acjk" version="1.1" viewBox="0 0 1024 1024" xmlns="http://www.w3.org/2000/svg" xmlns:xlink="http://www.w3.org/1999/xlink">
<style>
<![CDATA[
@keyframes zk {
	to {
		stroke-dashoffset:0;
	}
}
svg.acjk path[clip-path] {
	--t:0.8s;
	animation:zk var(--t) linear forwards var(--d);
	stroke-dasharray:3337;
	stroke-dashoffset:3339;
	stroke-width:128;
	stroke-linecap:round;
	fill:none;
	stroke:#000;
}
svg.acjk path[id] {fill:#ccc;}
]]>
</style>
<path id="z33222d1" d="M195 514C199 499 202 462 205 403C206 380 206 380 206 369C206 264 207 211 209 209C211 199 204 186 195 181C169 163 147 156 133 164C125 167 124 175 130 183C142 201 147 213 155 262C156 273 157 287 158 302C164 416 157 516 137 604C120 672 89 752 43 844C40 848 38 852 38 856C37 862 40 864 46 862C56 860 71 842 92 808C138 746 170 660 190 550C193 526 193 526 195 514Z"/>
<path id="z33222d2" d="M209 209C229 204 248 198 267 193C278 189 287 191 290 197C299 222 304 333 304 527C303 679 296 763 286 779C283 783 276 782 264 780C247 776 230 773 214 769C201 765 192 767 197 772C229 803 259 825 279 849C287 859 295 866 305 870C311 872 316 870 321 864C345 832 357 801 356 771C350 647 347 484 347 283C347 248 350 223 359 208C365 196 365 186 359 181C346 170 329 160 307 151C296 146 285 145 276 151C251 164 225 175 195 181C185 183 199 211 209 209Z"/>
<path id="z33222d3" d="M205 403C229 398 251 395 270 391C284 387 287 381 282 375C275 367 264 362 248 361C237 360 223 363 206 369C195 373 194 405 205 403Z"/>
<path id="z33222d4" d="M190 550C220 543 248 540 273 536C288 533 292 526 286 519C278 510 266 505 250 504C236 503 217 506 195 514C184 518 178 552 190 550Z"/>
<path id="z33222d5" d="M586 85C601 95 616 108 634 122C643 129 653 131 663 131C669 130 674 125 677 116C679 106 676 91 668 74C660 57 629 45 577 40C566 38 559 39 556 41C552 43 551 49 554 57C555 63 567 72 586 85Z"/>
<path id="z33222d6" d="M707 184C717 182 729 179 743 177C773 171 789 165 794 162C799 157 801 152 798 147C793 140 783 134 766 129C746 122 708 135 649 151C568 172 508 175 473 179C450 181 447 188 463 199C483 212 518 216 568 208C600 202 635 196 672 190C695 186 695 186 707 184Z"/>
<path id="z33222d7" d="M497 256C514 295 529 318 544 323C550 325 557 322 563 313C566 306 566 296 564 285C561 274 553 267 543 260C525 248 514 238 507 235C502 232 498 235 496 241C494 245 494 250 497 256Z"/>
<path id="z33222d8" d="M667 320C669 315 699 276 711 260C726 237 742 228 737 216C732 205 722 195 707 184C697 178 670 178 672 190C676 206 669 244 637 326C633 335 661 328 667 320Z"/>
<path id="z33222d9" d="M386 369Q368 370 382 385Q395 397 410 400Q428 404 442 400Q640 339 888 338Q889 338 891 338Q907 337 912 330Q916 320 902 308Q851 275 798 292Q743 304 667 320C647 324 647 324 637 326C470 355 470 355 386 369Z"/>
<path id="z33222d10" d="M507 441Q497 437 470 432Q460 429 456 434Q452 440 459 454Q486 506 502 594Q506 621 521 638Q537 657 542 643Q543 636 544 629C544 614 544 614 544 607Q541 589 534 548C531 533 531 533 530 526Q523 486 521 469C519 459 517 445 507 441Z"/>
<path id="z33222d11" d="M675 612C683 624 692 633 701 638C707 642 714 638 724 626C730 614 742 574 760 508C764 490 774 473 789 459C795 452 796 444 790 436C781 425 764 412 739 398C730 393 703 396 659 407C633 413 581 423 507 441C497 443 511 473 521 469C557 458 609 447 677 436C691 433 701 434 707 440C713 446 715 454 714 463C702 535 690 575 680 584C674 591 669 604 675 612Z"/>
<path id="z33222d12" d="M534 548C544 549 626 532 661 528C673 526 678 521 673 514C667 505 657 500 643 499C622 496 584 505 530 526C523 529 527 548 534 548Z"/>
<path id="z33222d13" d="M544 629C553 630 637 616 675 612C684 610 689 586 680 584C667 578 620 588 544 607C537 608 537 629 544 629Z"/>
<path id="z33222d14" d="M420 693C408 726 396 759 380 790C370 808 371 825 382 842C387 850 395 853 405 845C434 820 445 783 444 737C443 720 443 705 439 692C437 687 433 684 430 685C425 685 421 688 420 693Z"/>
<path id="z33222d15" d="M483 710C491 768 515 814 558 845C617 887 709 909 817 898C831 896 847 893 859 887C871 880 880 875 883 866C884 859 875 849 854 830C819 798 791 763 768 729C761 718 756 715 753 719C751 721 756 750 769 807C774 833 759 847 721 847C658 846 586 823 551 788C536 773 526 753 521 729C518 714 512 705 505 701C496 696 491 695 487 697C483 698 481 702 483 710Z"/>
<path id="z33222d16" d="M592 685C632 728 660 749 674 751C682 751 689 746 692 735C693 727 690 716 684 705C677 694 665 685 649 679C624 668 606 661 595 660C589 659 585 662 585 669C584 673 586 679 592 685Z"/>
<path id="z33222d17" d="M821 669C847 688 873 710 900 734C908 741 917 744 927 744C933 743 938 739 941 731C943 722 942 709 936 691C928 667 888 645 816 626C806 623 799 622 796 625C793 627 791 633 793 641C794 648 805 656 821 669Z"/>
<defs>
	<clipPath id="z33222c1"><use xlink:href="#z33222d1"/></clipPath>
	<clipPath id="z33222c2"><use xlink:href="#z33222d2"/></clipPath>
	<clipPath id="z33222c3"><use xlink:href="#z33222d3"/></clipPath>
	<clipPath id="z33222c4"><use xlink:href="#z33222d4"/></clipPath>
	<clipPath id="z33222c5"><use xlink:href="#z33222d5"/></clipPath>
	<clipPath id="z33222c6"><use xlink:href="#z33222d6"/></clipPath>
	<clipPath id="z33222c7"><use xlink:href="#z33222d7"/></clipPath>
	<clipPath id="z33222c8"><use xlink:href="#z33222d8"/></clipPath>
	<clipPath id="z33222c9"><use xlink:href="#z33222d9"/></clipPath>
	<clipPath id="z33222c10"><use xlink:href="#z33222d10"/></clipPath>
	<clipPath id="z33222c11"><use xlink:href="#z33222d11"/></clipPath>
	<clipPath id="z33222c12"><use xlink:href="#z33222d12"/></clipPath>
	<clipPath id="z33222c13"><use xlink:href="#z33222d13"/></clipPath>
	<clipPath id="z33222c14"><use xlink:href="#z33222d14"/></clipPath>
	<clipPath id="z33222c15"><use xlink:href="#z33222d15"/></clipPath>
	<clipPath id="z33222c16"><use xlink:href="#z33222d16"/></clipPath>
	<clipPath id="z33222c17"><use xlink:href="#z33222d17"/></clipPath>
</defs>
<path style="--d:1s;" pathLength="3333" clip-path="url(#z33222c1)" d="M135 169L180 227L177 492L134 684L44 857"/>
<path style="--d:2s;" pathLength="3333" clip-path="url(#z33222c2)" d="M204 186L287 170L329 205L320 788L297 826L204 771"/>
<path style="--d:3s;" pathLength="3333" clip-path="url(#z33222c3)" d="M213 394L277 380"/>
<path style="--d:4s;" pathLength="3333" clip-path="url(#z33222c4)" d="M196 543L282 524"/>
<path style="--d:5s;" pathLength="3333" clip-path="url(#z33222c5)" d="M561 49L632 82L666 126"/>
<path style="--d:6s;" pathLength="3333" clip-path="url(#z33222c6)" d="M460 188L795 149"/>
<path style="--d:7s;" pathLength="3333" clip-path="url(#z33222c7)" d="M503 244L547 319"/>
<path style="--d:8s;" pathLength="3333" clip-path="url(#z33222c8)" d="M679 197L701 236L644 318"/>
<path style="--d:9s;" pathLength="3333" clip-path="url(#z33222c9)" d="M387 378L801 315L908 324"/>
<path style="--d:10s;" pathLength="3333" clip-path="url(#z33222c10)" d="M463 442L499 483L533 644"/>
<path style="--d:11s;" pathLength="3333" clip-path="url(#z33222c11)" d="M515 446L695 417L742 434L753 455L699 633"/>
<path style="--d:12s;" pathLength="3333" clip-path="url(#z33222c12)" d="M538 531L668 520"/>
<path style="--d:13s;" pathLength="3333" clip-path="url(#z33222c13)" d="M552 621L676 598"/>
<path style="--d:14s;" pathLength="3333" clip-path="url(#z33222c14)" d="M432 692L384 841"/>
<path style="--d:15s;" pathLength="3333" clip-path="url(#z33222c15)" d="M491 703L560 822L694 868L831 848L758 725"/>
<path style="--d:16s;" pathLength="3333" clip-path="url(#z33222c16)" d="M593 666L685 741"/>
<path style="--d:17s;" pathLength="3333" clip-path="url(#z33222c17)" d="M801 630L896 690L931 740"/>
</svg>