<!--
AnimCJK 2016-2025 Copyright FM-SH - https://github.com/parsimonhi/animCJK
Derived from:
    MakeMeAHanzi project - https://github.com/skishore/makemeahanzi
    Arphic PL KaitiM GB font
    Arphic PL UKai font
You can redistribute and/or modify this file under the terms of the Arphic Public License
as published by Arphic Technology Co., Ltd.
You should have received a copy of this license along with this file.
If not, see https://ftp.gnu.org/non-gnu/chinese-fonts-truetype/LICENSE.
-->
<svg id="z33225" class="acjk" viewBox="0 0 1024 1024" xmlns="http://www.w3.org/2000/svg">
<style>
<![CDATA[
@keyframes zk {
	to {
		stroke-dashoffset:0;
	}
}
svg.acjk path[clip-path] {
	--t:0.8s;
	animation:zk var(--t) linear forwards var(--d);
	stroke-dasharray:3337;
	stroke-dashoffset:3339;
	stroke-width:128;
	stroke-linecap:round;
	fill:none;
	stroke:#000;
}
svg.acjk path[id] {fill:#ccc;}
]]>
</style>
<path id="z33225d1" d="M190 209C181 203 170 198 157 194C145 189 135 189 129 193C122 197 121 204 126 212C171 283 162 514 136 637C121 703 89 784 43 880C40 884 38 887 38 892C37 898 40 902 46 898C135 825 181 659 192 564C195 540 195 540 196 528C199 496 202 465 203 435C204 412 204 412 204 401C205 346 201 258 205 237C207 227 198 215 190 209Z"/>
<path id="z33225d2" d="M338 478C338 331 340 250 348 236C355 221 356 211 350 206C337 195 319 185 297 176C286 171 276 170 268 176C247 188 222 201 190 209C180 211 195 241 205 237C209 235 226 227 259 218C291 208 291 255 292 272C296 476 293 640 283 764C281 778 280 790 275 797C271 800 250 798 214 790C200 786 192 787 197 792C224 822 250 845 266 867C274 877 282 885 292 889C296 891 301 889 307 884C333 854 345 822 344 791C340 706 338 603 338 483C338 480 338 480 338 478Z"/>
<path id="z33225d3" d="M203 435Q237 428 266 423Q287 417 278 407Q268 395 244 393Q228 393 204 401C193 405 192 437 203 435Z"/>
<path id="z33225d4" d="M192 564Q232 557 264 555Q286 551 277 539Q267 526 243 522Q224 521 196 528C184 530 180 566 192 564Z"/>
<path id="z33225d5" d="M612 159C614 153 618 143 629 131C632 126 635 121 633 115C631 108 625 101 616 94C592 75 568 69 547 77C540 79 539 84 542 93C547 109 549 128 543 150C509 284 422 384 338 478C337 479 336 483 338 483C338 483 340 483 343 484C474 422 544 294 601 181C608 166 608 166 612 159Z"/>
<path id="z33225d6" d="M601 181C657 249 718 314 782 378C796 392 816 400 841 402C885 404 931 400 980 394C992 392 999 391 1000 387C1000 383 996 378 988 375C900 341 825 314 773 279C727 249 683 217 612 159C606 153 596 174 601 181Z"/>
<path id="z33225d7" d="M505 377C482 381 480 390 497 399C518 409 555 407 607 393C649 381 675 374 682 370C688 365 687 358 684 354C679 347 667 337 649 338C629 338 591 360 505 377Z"/>
<path id="z33225d8" d="M408 519C402 516 392 513 379 512C372 511 367 511 366 514C363 517 364 524 369 533C381 557 393 590 403 632C405 644 410 654 418 663C428 674 435 676 438 667C439 662 440 657 440 651C439 641 438 631 437 622C432 591 426 554 426 542C426 532 417 523 408 519Z"/>
<path id="z33225d9" d="M546 612C556 578 567 556 578 546C591 532 590 520 578 513C567 506 555 497 540 488C529 481 518 482 508 488C487 499 427 513 408 519C399 523 417 545 426 542C428 540 450 535 492 529C504 527 510 528 513 534C514 536 511 559 503 605C500 619 543 626 546 612Z"/>
<path id="z33225d10" d="M494 644C510 641 530 639 554 638C560 637 563 634 564 630C564 626 558 620 546 612C534 605 517 602 503 605C479 610 457 617 437 622C427 624 430 653 440 651C446 650 454 649 463 648C484 645 484 645 494 644Z"/>
<path id="z33225d11" d="M639 481C632 478 620 474 602 472C595 470 590 472 588 475C585 477 585 484 591 494C605 520 618 556 629 601C632 614 637 625 645 634C661 650 669 642 668 627C667 617 667 608 666 599C659 566 654 537 652 506C652 497 648 484 639 481Z"/>
<path id="z33225d12" d="M792 582C802 543 815 518 828 505C841 490 840 478 828 470C792 447 771 438 767 439C762 439 758 440 754 443C732 457 693 469 639 481C630 483 643 508 652 506C679 500 708 493 734 488C765 481 763 505 759 524C754 540 750 558 746 578C743 593 789 597 792 582Z"/>
<path id="z33225d13" d="M711 622C733 617 764 613 802 610C808 609 811 606 812 602C812 597 805 590 792 582C779 574 761 575 746 578C718 585 690 593 666 599C657 601 659 627 668 627C672 627 678 627 685 626C702 623 702 623 711 622Z"/>
<path id="z33225d14" d="M487 755C505 728 519 709 530 698C548 676 523 661 494 644C485 639 461 638 463 648C480 711 406 808 369 856C348 881 373 874 388 864C414 845 451 804 477 769C484 760 484 760 487 755Z"/>
<path id="z33225d15" d="M477 769C494 795 519 826 535 846C540 852 545 857 553 858C571 858 573 830 569 821C551 785 528 773 487 755C482 753 474 764 477 769Z"/>
<path id="z33225d16" d="M722 723C732 705 742 687 752 676C756 669 755 662 750 655C736 638 724 630 711 622C703 617 684 617 685 626C700 704 625 800 593 843C577 863 593 859 610 850C635 835 672 801 710 742C718 729 718 729 722 723Z"/>
<path id="z33225d17" d="M710 742C752 789 801 837 835 880C845 893 854 903 865 906C869 907 874 903 881 897C889 888 889 870 883 841C873 799 820 759 722 723C715 720 706 736 710 742Z"/>
<defs>
	<clipPath id="z33225c1"><use href="#z33225d1"/></clipPath>
	<clipPath id="z33225c2"><use href="#z33225d2"/></clipPath>
	<clipPath id="z33225c3"><use href="#z33225d3"/></clipPath>
	<clipPath id="z33225c4"><use href="#z33225d4"/></clipPath>
	<clipPath id="z33225c5"><use href="#z33225d5"/></clipPath>
	<clipPath id="z33225c6"><use href="#z33225d6"/></clipPath>
	<clipPath id="z33225c7"><use href="#z33225d7"/></clipPath>
	<clipPath id="z33225c8"><use href="#z33225d8"/></clipPath>
	<clipPath id="z33225c9"><use href="#z33225d9"/></clipPath>
	<clipPath id="z33225c10"><use href="#z33225d10"/></clipPath>
	<clipPath id="z33225c11"><use href="#z33225d11"/></clipPath>
	<clipPath id="z33225c12"><use href="#z33225d12"/></clipPath>
	<clipPath id="z33225c13"><use href="#z33225d13"/></clipPath>
	<clipPath id="z33225c14"><use href="#z33225d14"/></clipPath>
	<clipPath id="z33225c15"><use href="#z33225d15"/></clipPath>
	<clipPath id="z33225c16"><use href="#z33225d16"/></clipPath>
	<clipPath id="z33225c17"><use href="#z33225d17"/></clipPath>
</defs>
<path style="--d:1s;" pathLength="3333" clip-path="url(#z33225c1)" d="M131 201L173 241L169 573L130 729L45 891"/>
<path style="--d:2s;" pathLength="3333" clip-path="url(#z33225c2)" d="M192 220L281 196L321 227L310 802L282 843L202 793"/>
<path style="--d:3s;" pathLength="3333" clip-path="url(#z33225c3)" d="M199 425L276 407"/>
<path style="--d:4s;" pathLength="3333" clip-path="url(#z33225c4)" d="M189 553L274 544"/>
<path style="--d:5s;" pathLength="3333" clip-path="url(#z33225c5)" d="M548 83L589 130L538 243L458 368L346 479"/>
<path style="--d:6s;" pathLength="3333" clip-path="url(#z33225c6)" d="M608 164L823 355L991 386"/>
<path style="--d:7s;" pathLength="3333" clip-path="url(#z33225c7)" d="M494 387L679 356"/>
<path style="--d:8s;" pathLength="3333" clip-path="url(#z33225c8)" d="M373 517L403 550L432 665"/>
<path style="--d:9s;" pathLength="3333" clip-path="url(#z33225c9)" d="M413 525L541 520L518 615"/>
<path style="--d:10s;" pathLength="3333" clip-path="url(#z33225c10)" d="M433 636L555 626"/>
<path style="--d:11s;" pathLength="3333" clip-path="url(#z33225c11)" d="M594 481L625 503L660 635"/>
<path style="--d:12s;" pathLength="3333" clip-path="url(#z33225c12)" d="M644 486L783 475L799 495L757 586"/>
<path style="--d:13s;" pathLength="3333" clip-path="url(#z33225c13)" d="M662 611L802 599"/>
<path style="--d:14s;" pathLength="3333" clip-path="url(#z33225c14)" d="M471 648L498 692L368 864"/>
<path style="--d:15s;" pathLength="3333" clip-path="url(#z33225c15)" d="M486 763L558 854"/>
<path style="--d:16s;" pathLength="3333" clip-path="url(#z33225c16)" d="M694 626L717 675L595 851"/>
<path style="--d:17s;" pathLength="3333" clip-path="url(#z33225c17)" d="M715 732L840 830L870 899"/>
</svg>