<!--
AnimCJK 2016-2026 Copyright FM-SH, https://github.com/parsimonhi/animCJK
Derived from:
    MakeMeAHanzi project - https://github.com/skishore/makemeahanzi
    Arphic PL KaitiM GB font
    Arphic PL KaitiM Big5 font
You can redistribute and/or modify this file under the terms of the Arphic Public License
as published by Arphic Technology Co., Ltd.
You should have received a copy of this license along with this file.
If not, see https://ftp.gnu.org/non-gnu/chinese-fonts-truetype/LICENSE.
-->
<svg id="z33240" class="acjk" viewBox="0 0 1024 1024" xmlns="http://www.w3.org/2000/svg">
<style>
<![CDATA[
@keyframes zk {
	to {
		stroke-dashoffset:0;
	}
}
svg.acjk path[clip-path] {
	--t:0.8s;
	animation:zk var(--t) linear forwards var(--d);
	stroke-dasharray:3337;
	stroke-dashoffset:3339;
	stroke-width:128;
	stroke-linecap:round;
	fill:none;
	stroke:#000;
}
svg.acjk path[id] {fill:#ccc;}
]]>
</style>
<path id="z33240d1" d="M205 498Q211 443 211 390C211 367 211 367 211 356Q211 212 214 208C216 197 206 186 197 180Q154 156 137 165Q127 172 134 184Q156 209 162 273Q162 288 164 305Q174 477 145 614Q121 714 51 860Q47 866 46 872Q45 882 54 878Q70 875 100 822Q175 719 201 531C204 509 204 509 205 498Z"/>
<path id="z33240d2" d="M214 208Q218 207 224 205Q252 198 278 191Q294 188 301 197Q314 209 312 249Q319 562 303 752Q302 777 294 788Q290 794 272 789Q250 785 226 781Q207 775 209 784Q260 827 288 857Q300 873 314 878Q321 882 329 873Q365 825 364 779Q357 590 359 283Q358 231 371 208Q381 190 371 181Q352 165 319 150Q301 141 257 166Q214 175 197 180C187 184 203 210 214 208Z"/>
<path id="z33240d3" d="M211 390Q247 383 274 379Q293 373 286 363Q276 350 252 349Q236 348 211 356C200 360 200 392 211 390Z"/>
<path id="z33240d4" d="M201 531Q246 522 281 518Q302 514 293 503Q283 490 261 488Q239 487 205 498C194 502 190 533 201 531Z"/>
<path id="z33240d5" d="M450 132Q440 174 413 215Q406 227 411 237Q414 246 429 254Q460 273 488 295Q504 307 516 305Q526 301 526 282Q525 261 511 250Q504 243 468 240Q452 239 445 230Q439 224 447 212Q460 196 484 160Q499 138 512 128Q525 119 518 105Q503 75 482 65Q470 58 460 61Q450 62 456 79Q463 100 450 132Z"/>
<path id="z33240d6" d="M590 116Q580 147 558 178Q551 188 553 199Q554 209 569 218Q597 242 622 269Q635 284 648 283Q658 282 661 262Q662 243 651 229Q645 219 609 211Q593 207 586 197Q582 190 592 177Q602 168 622 146Q638 127 652 117Q665 110 660 94Q648 63 628 52Q616 45 606 46Q596 47 600 64Q607 85 590 116Z"/>
<path id="z33240d7" d="M741 104Q729 137 707 167Q700 177 703 187Q706 196 720 205Q754 227 785 252Q800 265 811 263Q821 260 822 242Q821 223 809 211Q802 201 757 194Q744 193 736 184Q732 177 739 167Q749 157 770 134Q786 115 799 106Q812 99 806 85Q796 57 777 44Q767 37 756 39Q747 40 751 55Q755 76 741 104Z"/>
<path id="z33240d8" d="M411 338Q401 337 398 342Q394 348 403 360Q431 403 456 480Q462 502 477 516Q495 532 497 519Q498 510 498 500C495 484 495 484 493 476C492 471 492 471 491 468Q469 395 462 369C458 349 431 338 411 338Z"/>
<path id="z33240d9" d="M746 467Q747 468 748 473Q752 488 763 488Q782 485 815 424Q833 379 867 355Q885 342 871 327Q856 311 814 284Q802 275 726 291Q684 291 548 321Q467 336 411 338C391 338 444 376 462 369Q462 368 464 368Q525 349 646 329C665 326 665 326 674 325Q764 306 784 318Q791 322 785 345Q758 438 750 446C746 452 743 460 746 467Z"/>
<path id="z33240d10" d="M646 329Q639 351 615 378C602 391 602 391 595 398Q564 423 514 454Q510 455 514 458Q538 465 611 419Q611 416 621 410C640 395 640 395 649 387Q676 360 684 356Q688 355 689 348Q689 336 674 325C667 319 650 320 646 329Z"/>
<path id="z33240d11" d="M615 378Q555 360 535 365Q531 366 533 370C574 389 574 389 595 398C612 406 612 406 621 410Q649 420 675 432Q687 438 694 437Q701 436 704 432Q705 425 699 415Q689 399 649 387C626 381 626 381 615 378Z"/>
<path id="z33240d12" d="M498 500Q505 500 517 499Q647 478 746 467C753 466 756 450 750 446Q744 440 733 438Q718 435 493 476C485 477 490 500 498 500Z"/>
<path id="z33240d13" d="M454 688Q455 678 457 671Q457 643 462 619C465 606 465 606 466 600Q467 591 461 586Q442 570 423 560Q408 553 399 557Q389 563 400 580Q437 649 393 832Q384 850 370 873Q360 891 367 901Q374 913 396 923Q411 930 422 915Q434 887 500 838Q525 822 535 806Q541 796 533 796Q524 796 457 831Q450 835 444 833Q435 830 438 810Q447 749 452 708C453 695 453 695 454 688Z"/>
<path id="z33240d14" d="M462 619Q517 652 533 649Q540 648 542 635Q541 626 530 616Q509 595 466 600C460 601 457 615 462 619Z"/>
<path id="z33240d15" d="M452 708Q509 747 528 745Q537 744 538 730Q537 721 527 709Q517 697 495 694Q468 687 454 688C447 688 447 704 452 708Z"/>
<path id="z33240d16" d="M616 663Q619 615 623 591C625 580 625 580 626 575Q630 557 618 547Q596 523 579 520Q569 519 563 522Q553 528 563 540Q579 573 579 601Q582 811 555 852Q543 871 551 891Q561 919 578 931Q588 937 598 920Q622 884 703 795Q718 780 719 773Q719 761 701 773Q625 821 618 818Q611 815 611 800Q612 728 616 679C616 668 616 668 616 663Z"/>
<path id="z33240d17" d="M623 591Q686 627 697 625Q704 624 706 611Q705 602 695 592Q685 582 665 580Q638 574 626 575C621 575 618 589 623 591Z"/>
<path id="z33240d18" d="M616 679Q616 680 618 681Q676 717 692 714Q701 713 702 698Q701 689 690 678Q666 657 616 663C611 664 612 676 616 679Z"/>
<path id="z33240d19" d="M782 546Q789 527 766 508Q741 487 729 487Q713 488 714 501Q726 532 729 570Q735 765 798 833Q843 878 888 896Q940 920 965 913Q987 907 978 874Q971 837 970 781Q969 736 965 730Q958 723 954 733Q948 746 942 775Q935 830 916 836Q898 843 861 817Q782 760 775 656Q771 580 782 546Z"/>
<defs>
	<clipPath id="z33240c1"><use href="#z33240d1"/></clipPath>
	<clipPath id="z33240c2"><use href="#z33240d2"/></clipPath>
	<clipPath id="z33240c3"><use href="#z33240d3"/></clipPath>
	<clipPath id="z33240c4"><use href="#z33240d4"/></clipPath>
	<clipPath id="z33240c5"><use href="#z33240d5"/></clipPath>
	<clipPath id="z33240c6"><use href="#z33240d6"/></clipPath>
	<clipPath id="z33240c7"><use href="#z33240d7"/></clipPath>
	<clipPath id="z33240c8"><use href="#z33240d8"/></clipPath>
	<clipPath id="z33240c9"><use href="#z33240d9"/></clipPath>
	<clipPath id="z33240c10"><use href="#z33240d10"/></clipPath>
	<clipPath id="z33240c11"><use href="#z33240d11"/></clipPath>
	<clipPath id="z33240c12"><use href="#z33240d12"/></clipPath>
	<clipPath id="z33240c13"><use href="#z33240d13"/></clipPath>
	<clipPath id="z33240c14"><use href="#z33240d14"/></clipPath>
	<clipPath id="z33240c15"><use href="#z33240d15"/></clipPath>
	<clipPath id="z33240c16"><use href="#z33240d16"/></clipPath>
	<clipPath id="z33240c17"><use href="#z33240d17"/></clipPath>
	<clipPath id="z33240c18"><use href="#z33240d18"/></clipPath>
	<clipPath id="z33240c19"><use href="#z33240d19"/></clipPath>
</defs>
<path style="--d:1s;" pathLength="3333" clip-path="url(#z33240c1)" d="M139 170L183 212L177 552L131 726L53 870"/>
<path style="--d:2s;" pathLength="3333" clip-path="url(#z33240c2)" d="M199 184L303 170L342 203L333 775L304 835L216 784"/>
<path style="--d:3s;" pathLength="3333" clip-path="url(#z33240c3)" d="M205 378L282 370"/>
<path style="--d:4s;" pathLength="3333" clip-path="url(#z33240c4)" d="M198 520L291 507"/>
<path style="--d:5s;" pathLength="3333" clip-path="url(#z33240c5)" d="M463 70L488 114L426 227L521 296"/>
<path style="--d:6s;" pathLength="3333" clip-path="url(#z33240c6)" d="M606 51L629 101L569 195L651 276"/>
<path style="--d:7s;" pathLength="3333" clip-path="url(#z33240c7)" d="M758 47L776 94L719 184L818 253"/>
<path style="--d:8s;" pathLength="3333" clip-path="url(#z33240c8)" d="M404 344L439 375L484 519"/>
<path style="--d:9s;" pathLength="3333" clip-path="url(#z33240c9)" d="M414 342L463 351L795 299L831 341L756 482"/>
<path style="--d:10s;" pathLength="3333" clip-path="url(#z33240c10)" d="M666 325L619 394L521 453"/>
<path style="--d:11s;" pathLength="3333" clip-path="url(#z33240c11)" d="M542 368L699 428"/>
<path style="--d:12s;" pathLength="3333" clip-path="url(#z33240c12)" d="M493 488L750 452"/>
<path style="--d:13s;" pathLength="3333" clip-path="url(#z33240c13)" d="M401 562L438 605L405 867L428 876L531 803"/>
<path style="--d:14s;" pathLength="3333" clip-path="url(#z33240c14)" d="M463 609L535 641"/>
<path style="--d:15s;" pathLength="3333" clip-path="url(#z33240c15)" d="M454 695L534 733"/>
<path style="--d:16s;" pathLength="3333" clip-path="url(#z33240c16)" d="M564 527L601 574L591 870L712 774"/>
<path style="--d:17s;" pathLength="3333" clip-path="url(#z33240c17)" d="M624 582L700 617"/>
<path style="--d:18s;" pathLength="3333" clip-path="url(#z33240c18)" d="M618 669L697 705"/>
<path style="--d:19s;" pathLength="3333" clip-path="url(#z33240c19)" d="M721 492L753 533L769 731L818 815L876 859L946 871L959 733"/>
</svg>