<!--
AnimCJK 2016-2025 Copyright FM-SH - https://github.com/parsimonhi/animCJK
Derived from:
    MakeMeAHanzi project - https://github.com/skishore/makemeahanzi
    Arphic PL KaitiM GB font
    Arphic PL KaitiM Big5 font
You can redistribute and/or modify this file under the terms of the Arphic Public License
as published by Arphic Technology Co., Ltd.
You should have received a copy of this license along with this file.
If not, see https://ftp.gnu.org/non-gnu/chinese-fonts-truetype/LICENSE.
-->
<svg id="z33258" class="acjk" viewBox="0 0 1024 1024" xmlns="http://www.w3.org/2000/svg">
<style>
<![CDATA[
@keyframes zk {
	to {
		stroke-dashoffset:0;
	}
}
svg.acjk path[clip-path] {
	--t:0.8s;
	animation:zk var(--t) linear forwards var(--d);
	stroke-dasharray:3337;
	stroke-dashoffset:3339;
	stroke-width:128;
	stroke-linecap:round;
	fill:none;
	stroke:#000;
}
svg.acjk path[id] {fill:#ccc;}
]]>
</style>
<path id="z33258d1" d="M427 274C501 169 523 133 553 109C566 98 565 85 554 76C541 66 524 61 503 57C482 53 469 53 461 58C452 62 451 68 457 77C466 92 454 141 422 222C414 240 405 259 397 280C393 289 421 282 427 274Z"/>
<path id="z33258d2" d="M361 286C332 263 310 252 297 259C291 261 291 268 295 278C318 346 314 420 314 478C313 583 307 661 301 697C291 751 291 794 311 824C318 835 330 842 339 833C343 827 345 824 349 813C352 800 354 787 355 774C357 724 359 682 359 635C359 616 359 616 359 606C359 559 361 519 363 486C364 467 364 467 364 458C365 412 365 346 369 321C371 309 371 293 361 286Z"/>
<path id="z33258d3" d="M654 792C659 816 665 852 684 882C691 894 700 901 708 901C720 900 732 886 744 860C756 831 762 798 759 762C750 665 742 526 734 347C732 322 737 302 750 285C756 275 756 266 749 259C734 244 706 228 667 211C652 204 640 205 628 212C596 227 519 255 427 274C407 278 407 278 397 280C382 282 370 284 361 286C349 288 357 321 369 321C385 321 463 304 605 271C625 266 642 266 653 275C679 296 686 448 676 728C675 744 678 763 667 772C661 778 652 784 654 792Z"/>
<path id="z33258d4" d="M363 486C365 486 437 474 581 451C597 448 603 441 597 433C589 421 574 414 557 412C538 409 474 425 364 458C355 461 354 488 363 486Z"/>
<path id="z33258d5" d="M359 635C377 637 515 616 584 607C602 604 607 597 601 589C593 577 577 567 552 566C501 562 422 590 359 606C350 608 349 635 359 635Z"/>
<path id="z33258d6" d="M349 813C373 814 562 795 654 792C662 792 673 778 667 772C607 716 601 749 355 774C342 776 336 813 349 813Z"/>
<defs>
	<clipPath id="z33258c1"><use href="#z33258d1"/></clipPath>
	<clipPath id="z33258c2"><use href="#z33258d2"/></clipPath>
	<clipPath id="z33258c3"><use href="#z33258d3"/></clipPath>
	<clipPath id="z33258c4"><use href="#z33258d4"/></clipPath>
	<clipPath id="z33258c5"><use href="#z33258d5"/></clipPath>
	<clipPath id="z33258c6"><use href="#z33258d6"/></clipPath>
</defs>
<path style="--d:1s;" pathLength="3333" clip-path="url(#z33258c1)" d="M459 63L509 102L406 279"/>
<path style="--d:2s;" pathLength="3333" clip-path="url(#z33258c2)" d="M300 266L338 313L328 833"/>
<path style="--d:3s;" pathLength="3333" clip-path="url(#z33258c3)" d="M360 297L643 237L708 281L703 895"/>
<path style="--d:4s;" pathLength="3333" clip-path="url(#z33258c4)" d="M359 475L591 437"/>
<path style="--d:5s;" pathLength="3333" clip-path="url(#z33258c5)" d="M359 623L598 592"/>
<path style="--d:6s;" pathLength="3333" clip-path="url(#z33258c6)" d="M344 802L664 775"/>
</svg>