<!--
AnimCJK 2016-2019 Copyright Francois Mizessyn - https://github.com/parsimonhi/animCJK
Derived from:
    MakeMeAHanzi project - https://github.com/skishore/makemeahanzi
    Arphic PL KaitiM GB font
    Arphic PL UKai font
You can redistribute and/or modify this file under the terms of the Arphic Public License
as published by Arphic Technology Co., Ltd.
You should have received a copy of this license along with this file.
If not, see http://ftp.gnu.org/non-gnu/chinese-fonts-truetype/LICENSE.
-->
<svg id="z33258" class="acjk" version="1.1" viewBox="0 0 1024 1024" xmlns="http://www.w3.org/2000/svg" xmlns:xlink="http://www.w3.org/1999/xlink">
<style>
<![CDATA[
@keyframes zk {
	to {
		stroke-dashoffset:0;
	}
}
svg.acjk path[clip-path] {
	--t:0.8s;
	animation:zk var(--t) linear forwards var(--d);
	stroke-dasharray:3337;
	stroke-dashoffset:3339;
	stroke-width:128;
	stroke-linecap:round;
	fill:none;
	stroke:#000;
}
svg.acjk path[id] {fill:#ccc;}
]]>
</style>
<path id="z33258d1" d="M427 274Q433 267 517 150Q530 128 553 109Q571 91 554 76Q535 63 503 57Q473 51 461 58Q448 65 457 77Q469 101 422 222Q409 249 397 280C393 289 421 282 427 274Z"/>
<path id="z33258d2" d="M361 286Q318 252 297 259Q290 265 295 278Q314 360 316 364Q316 628 301 697Q282 779 311 822Q314 825 317 830Q327 845 339 831Q345 822 349 813C353 787 353 787 355 774Q358 746 358 703Q358 667 359 635C359 616 359 616 359 606Q360 536 363 486C364 467 364 467 364 458Q367 340 369 327Q369 323 369 321C369 309 371 293 361 286Z"/>
<path id="z33258d3" d="M618 792Q657 838 684 882Q696 901 708 901Q727 900 744 860Q763 817 759 762Q746 617 734 347Q731 311 750 285Q760 270 749 259Q727 237 667 211Q645 201 628 212Q580 234 427 274C407 278 407 278 397 280Q375 283 361 286C349 288 357 321 369 321Q393 321 605 271Q636 264 653 275Q692 309 676 751Q675 755 675 761Q671 779 657 776C643 776 610 781 618 792Z"/>
<path id="z33258d4" d="M363 486Q366 486 581 451Q606 447 597 433Q585 417 557 412Q530 409 364 458C355 461 354 488 363 486Z"/>
<path id="z33258d5" d="M359 635Q369 636 384 635Q499 617 584 607Q611 603 601 589Q589 573 562 566Q535 562 489 574Q419 592 359 606C349 608 349 635 359 635Z"/>
<path id="z33258d6" d="M349 813Q358 814 369 813Q450 798 618 792C632 792 664 788 657 776Q654 766 626 746Q608 734 573 741Q453 765 355 774C342 774 336 813 349 813Z"/>
<defs>
	<clipPath id="z33258c1"><use xlink:href="#z33258d1"/></clipPath>
	<clipPath id="z33258c2"><use xlink:href="#z33258d2"/></clipPath>
	<clipPath id="z33258c3"><use xlink:href="#z33258d3"/></clipPath>
	<clipPath id="z33258c4"><use xlink:href="#z33258d4"/></clipPath>
	<clipPath id="z33258c5"><use xlink:href="#z33258d5"/></clipPath>
	<clipPath id="z33258c6"><use xlink:href="#z33258d6"/></clipPath>
</defs>
<path style="--d:1s;" pathLength="3333" clip-path="url(#z33258c1)" d="M459 65L510 101L406 276"/>
<path style="--d:2s;" pathLength="3333" clip-path="url(#z33258c2)" d="M302 268L332 300L341 366L328 831"/>
<path style="--d:3s;" pathLength="3333" clip-path="url(#z33258c3)" d="M368 290L643 238L710 284L714 792L687 851L630 805"/>
<path style="--d:4s;" pathLength="3333" clip-path="url(#z33258c4)" d="M369 478L592 430"/>
<path style="--d:5s;" pathLength="3333" clip-path="url(#z33258c5)" d="M363 627L597 594"/>
<path style="--d:6s;" pathLength="3333" clip-path="url(#z33258c6)" d="M355 806L650 769"/>
</svg>