<!--
AnimCJK 2016-2026 Copyright FM-SH, https://github.com/parsimonhi/animCJK
Derived from:
    MakeMeAHanzi project - https://github.com/skishore/makemeahanzi
    Arphic PL KaitiM GB font
    Arphic PL KaitiM Big5 font
You can redistribute and/or modify this file under the terms of the Arphic Public License
as published by Arphic Technology Co., Ltd.
You should have received a copy of this license along with this file.
If not, see https://ftp.gnu.org/non-gnu/chinese-fonts-truetype/LICENSE.
-->
<svg id="z33281" class="acjk" viewBox="0 0 1024 1024" xmlns="http://www.w3.org/2000/svg">
<style>
<![CDATA[
@keyframes zk {
	to {
		stroke-dashoffset:0;
	}
}
svg.acjk path[clip-path] {
	--t:0.8s;
	animation:zk var(--t) linear forwards var(--d);
	stroke-dasharray:3337;
	stroke-dashoffset:3339;
	stroke-width:128;
	stroke-linecap:round;
	fill:none;
	stroke:#000;
}
svg.acjk path[id] {fill:#ccc;}
]]>
</style>
<path id="z33281d1" d="M309 219Q334 204 432 141Q451 125 476 116Q498 107 488 88Q476 70 450 54Q426 39 414 42Q401 43 404 56Q407 86 345 150Q323 172 298 198C292 204 303 224 309 219Z"/>
<path id="z33281d2" d="M345 402Q344 390 341 378Q334 348 329 325C326 306 326 306 324 297Q311 236 310 220C309 219 309 219 309 219C307 211 305 201 298 198Q285 192 251 188Q238 185 235 191Q228 197 238 214Q272 281 294 390Q298 423 319 444Q338 466 343 450Q344 443 346 433C345 412 345 412 345 402Z"/>
<path id="z33281d3" d="M329 325Q392 309 441 300Q463 294 454 283Q442 270 418 268Q381 265 324 297C316 302 320 327 329 325Z"/>
<path id="z33281d4" d="M640 407Q639 414 642 423Q646 439 660 440Q675 439 684 424Q703 402 738 288Q760 236 801 209Q822 194 807 176Q791 157 741 125Q725 113 671 122Q629 125 592 131Q556 135 534 136Q519 135 516 140Q512 144 526 155Q550 171 589 166Q682 153 699 163Q711 172 701 211Q694 238 687 261C680 282 680 282 677 293Q658 357 648 381C645 389 640 398 640 407Z"/>
<path id="z33281d5" d="M687 261Q663 246 557 264Q554 264 553 265Q537 266 554 283Q560 289 574 289Q632 289 677 293C688 293 697 266 687 261Z"/>
<path id="z33281d6" d="M648 381Q621 354 583 364Q450 392 345 402C335 404 336 431 346 433Q356 436 371 434Q456 418 640 407C649 407 655 386 648 381Z"/>
<path id="z33281d7" d="M650 582Q747 573 903 585Q928 588 934 579Q941 566 929 553Q898 525 853 504Q838 497 811 506Q739 522 666 532Q659 532 651 534C617 538 617 538 600 540Q486 547 416 560C375 565 375 565 354 567Q314 570 288 574Q216 584 109 586Q94 586 93 598Q93 611 112 626Q130 639 162 651Q174 655 192 647Q225 635 355 614C392 609 392 609 410 606Q417 605 600 587C633 584 633 584 650 582Z"/>
<path id="z33281d8" d="M416 560Q419 544 426 528Q433 510 417 503Q368 473 344 483Q331 489 339 502Q348 514 354 567C355 598 355 598 355 614Q351 767 213 883Q207 887 202 893Q190 903 202 904Q251 904 320 833Q392 754 410 606C414 575 414 575 416 560Z"/>
<path id="z33281d9" d="M600 587Q600 801 583 853Q568 890 618 957Q622 963 628 966Q640 967 645 954Q651 935 652 853Q651 771 650 582C651 550 651 550 651 534Q652 509 656 493Q657 480 651 474Q627 453 607 444Q595 440 586 448Q580 452 588 462Q600 480 600 540C600 571 600 571 600 587Z"/>
<defs>
	<clipPath id="z33281c1"><use href="#z33281d1"/></clipPath>
	<clipPath id="z33281c2"><use href="#z33281d2"/></clipPath>
	<clipPath id="z33281c3"><use href="#z33281d3"/></clipPath>
	<clipPath id="z33281c4"><use href="#z33281d4"/></clipPath>
	<clipPath id="z33281c5"><use href="#z33281d5"/></clipPath>
	<clipPath id="z33281c6"><use href="#z33281d6"/></clipPath>
	<clipPath id="z33281c7"><use href="#z33281d7"/></clipPath>
	<clipPath id="z33281c8"><use href="#z33281d8"/></clipPath>
	<clipPath id="z33281c9"><use href="#z33281d9"/></clipPath>
</defs>
<path style="--d:1s;" pathLength="3333" clip-path="url(#z33281c1)" d="M412 46L441 98L302 212"/>
<path style="--d:2s;" pathLength="3333" clip-path="url(#z33281c2)" d="M239 194L279 226L328 451"/>
<path style="--d:3s;" pathLength="3333" clip-path="url(#z33281c3)" d="M327 315L450 285"/>
<path style="--d:4s;" pathLength="3333" clip-path="url(#z33281c4)" d="M523 141L711 141L759 187L649 432"/>
<path style="--d:5s;" pathLength="3333" clip-path="url(#z33281c5)" d="M553 268L687 279"/>
<path style="--d:6s;" pathLength="3333" clip-path="url(#z33281c6)" d="M340 420L648 394"/>
<path style="--d:7s;" pathLength="3333" clip-path="url(#z33281c7)" d="M97 596L169 618L824 541L933 573"/>
<path style="--d:8s;" pathLength="3333" clip-path="url(#z33281c8)" d="M342 487L389 529L362 714L295 829L207 899"/>
<path style="--d:9s;" pathLength="3333" clip-path="url(#z33281c9)" d="M590 451L626 487L625 961"/>
</svg>