<!--
AnimCJK 2016-2026 Copyright FM-SH, https://github.com/parsimonhi/animCJK
Derived from:
    MakeMeAHanzi project - https://github.com/skishore/makemeahanzi
    Arphic PL KaitiM GB font
    Arphic PL KaitiM Big5 font
You can redistribute and/or modify this file under the terms of the Arphic Public License
as published by Arphic Technology Co., Ltd.
You should have received a copy of this license along with this file.
If not, see https://ftp.gnu.org/non-gnu/chinese-fonts-truetype/LICENSE.
-->
<svg id="z33314" class="acjk" viewBox="0 0 1024 1024" xmlns="http://www.w3.org/2000/svg">
<style>
<![CDATA[
@keyframes zk {
	to {
		stroke-dashoffset:0;
	}
}
svg.acjk path[clip-path] {
	--t:0.8s;
	animation:zk var(--t) linear forwards var(--d);
	stroke-dasharray:3337;
	stroke-dashoffset:3339;
	stroke-width:128;
	stroke-linecap:round;
	fill:none;
	stroke:#000;
}
svg.acjk path[id] {fill:#ccc;}
]]>
</style>
<path id="z33314d1" d="M255 272C270 256 358 148 395 121C431 93 364 70 352 67C331 60 294 51 306 82C314 102 290 168 234 266C229 274 249 280 255 272Z"/>
<path id="z33314d2" d="M234 266C212 250 193 245 179 251C172 255 171 262 176 271C186 281 194 308 198 353C202 413 201 465 195 523C192 554 192 554 190 569C180 657 142 753 88 859C85 863 83 867 83 871C82 877 84 879 91 878C98 875 112 858 135 828C181 766 226 653 239 553C242 526 242 526 244 512C248 473 251 435 251 398C251 354 252 322 256 303C258 292 243 273 234 266Z"/>
<path id="z33314d3" d="M256 303C288 294 319 286 349 277C361 273 370 272 373 279C378 290 385 356 385 478C385 496 385 496 385 505C385 629 381 720 376 763C367 812 361 803 287 800C269 799 267 804 290 822C318 844 343 860 362 879C374 892 394 912 409 895C435 861 446 826 445 790C439 667 435 566 435 489C435 474 435 474 435 467C435 367 438 308 448 292C455 278 455 269 448 263C433 250 414 239 391 230C369 222 351 235 324 249C308 256 275 267 255 272C250 273 248 273 244 274C234 276 246 305 256 303Z"/>
<path id="z33314d4" d="M277 378C293 417 307 440 322 446C329 448 338 446 344 436C348 428 347 417 345 404C343 395 335 387 324 380C307 367 295 359 288 356C283 353 279 355 276 362C273 366 274 371 277 378Z"/>
<path id="z33314d5" d="M307 758C292 757 296 732 296 728C295 699 298 671 300 644C300 633 300 621 296 613C292 605 285 603 285 595C285 588 290 582 297 582C312 580 330 596 335 614C338 624 336 634 335 650C333 675 336 702 330 726C328 733 319 758 307 758Z"/>
<path id="z33314d6" d="M239 553C270 542 363 511 385 505C418 494 418 494 435 489C499 468 501 452 435 467C402 474 402 474 385 478C343 487 289 501 244 512C211 519 211 519 195 523C145 534 85 538 49 537C30 536 28 556 38 566C49 576 61 593 85 603C100 609 156 579 190 569C223 558 223 558 239 553Z"/>
<path id="z33314d7" d="M699 633C705 535 708 441 714 353C715 330 719 310 723 295C726 280 729 269 732 260C734 251 729 241 715 233C691 219 669 212 653 209C642 206 633 207 628 214C623 219 622 228 629 238C644 262 653 282 654 298C659 404 660 519 655 643C655 658 699 648 699 633Z"/>
<path id="z33314d8" d="M838 607C788 613 741 623 699 633C670 640 670 640 655 643C621 650 590 659 561 669C548 673 545 665 547 651C551 619 552 586 557 554C558 539 557 526 550 517C540 505 527 496 512 488C505 484 498 482 491 485C484 487 483 495 489 507C505 543 509 578 505 614C500 647 492 672 478 688C467 698 463 709 469 718C475 728 484 736 496 743C504 747 513 748 519 742C537 720 608 691 737 660C782 648 814 644 830 646C843 646 851 604 838 607Z"/>
<path id="z33314d9" d="M830 646C824 672 826 702 845 736C851 747 859 747 868 739C884 723 890 684 893 623C896 550 906 506 913 492C918 481 917 470 909 462C896 450 876 440 853 428C844 423 835 423 826 428C821 430 817 437 822 447C843 489 848 554 838 607C833 633 833 633 830 646Z"/>
<defs>
	<clipPath id="z33314c1"><use href="#z33314d1"/></clipPath>
	<clipPath id="z33314c2"><use href="#z33314d2"/></clipPath>
	<clipPath id="z33314c3"><use href="#z33314d3"/></clipPath>
	<clipPath id="z33314c4"><use href="#z33314d4"/></clipPath>
	<clipPath id="z33314c5"><use href="#z33314d5"/></clipPath>
	<clipPath id="z33314c6"><use href="#z33314d6"/></clipPath>
	<clipPath id="z33314c7"><use href="#z33314d7"/></clipPath>
	<clipPath id="z33314c8"><use href="#z33314d8"/></clipPath>
	<clipPath id="z33314c9"><use href="#z33314d9"/></clipPath>
</defs>
<path style="--d:1s;" pathLength="3333" clip-path="url(#z33314c1)" d="M314 69L354 111L240 268"/>
<path style="--d:2s;" pathLength="3333" clip-path="url(#z33314c2)" d="M179 258L224 310L215 557L168 729L89 870"/>
<path style="--d:3s;" pathLength="3333" clip-path="url(#z33314c3)" d="M243 282L376 251L415 283L404 812L376 852L282 805"/>
<path style="--d:4s;" pathLength="3333" clip-path="url(#z33314c4)" d="M283 364L332 443"/>
<path style="--d:5s;" pathLength="3333" clip-path="url(#z33314c5)" d="M293 589L317 623L310 754"/>
<path style="--d:6s;" pathLength="3333" clip-path="url(#z33314c6)" d="M37 549L94 570L477 467"/>
<path style="--d:7s;" pathLength="3333" clip-path="url(#z33314c7)" d="M632 219L691 266L672 648"/>
<path style="--d:8s;" pathLength="3333" clip-path="url(#z33314c8)" d="M494 494L529 542L509 691L530 708L839 614"/>
<path style="--d:9s;" pathLength="3333" clip-path="url(#z33314c9)" d="M826 435L877 491L855 741"/>
</svg>