<!--
AnimCJK 2016-2018 Copyright Francois Mizessyn - https://github.com/parsimonhi/animCJK
Derived from:
    MakeMeAHanzi project - https://github.com/skishore/makemeahanzi
    Arphic PL KaitiM GB - https://apps.ubuntu.com/cat/applications/precise/fonts-arphic-gkai00mp/
    Arphic PL UKai - https://apps.ubuntu.com/cat/applications/fonts-arphic-ukai/
You can redistribute and/or modify this file under the terms of the Arphic Public License
as published by Arphic Technology Co., Ltd.
You should have received a copy of this license (the directory "APL") along with this file;
if not, see http://ftp.gnu.org/non-gnu/chinese-fonts-truetype/LICENSE.
-->
<svg id="z33310" class="acjk" version="1.1" viewBox="0 0 1024 1024" xmlns="http://www.w3.org/2000/svg" xmlns:xlink="http://www.w3.org/1999/xlink">
<style>
<![CDATA[
@keyframes z33310k {
	from {
		stroke:#ccc;
		stroke-dashoffset:3334;
	}
	1% {
		stroke:#c00;
		stroke-dashoffset:3334;
	}
	75% {
		stroke:#c00;
		stroke-dashoffset:0;
	}
	to {
		stroke:#000;
	}
}
#z33310 path[clip-path] {
	animation:z33310k 1s linear both;
	stroke-dasharray:3334;
	stroke-width:128;
	stroke-linecap:round;
	fill:none;
}
#z33310 path[clip-path="url(#z33310c1)"] {animation-delay:1s;}
#z33310 path[clip-path="url(#z33310c2)"] {animation-delay:2s;}
#z33310 path[clip-path="url(#z33310c3)"] {animation-delay:3s;}
#z33310 path[clip-path="url(#z33310c4)"] {animation-delay:4s;}
#z33310 path[clip-path="url(#z33310c5)"] {animation-delay:5s;}
#z33310 path[clip-path="url(#z33310c6)"] {animation-delay:6s;}
#z33310 path[clip-path="url(#z33310c7)"] {animation-delay:7s;}
#z33310 path[clip-path="url(#z33310c8)"] {animation-delay:8s;}
#z33310 path[clip-path="url(#z33310c9)"] {animation-delay:9s;}
#z33310 path[clip-path="url(#z33310c10)"] {animation-delay:10s;}
#z33310 path[clip-path="url(#z33310c11)"] {animation-delay:11s;}
#z33310 path[clip-path="url(#z33310c12)"] {animation-delay:12s;}
#z33310 path[clip-path="url(#z33310c13)"] {animation-delay:13s;}
#z33310 path[clip-path="url(#z33310c14)"] {animation-delay:14s;}
#z33310 path[clip-path="url(#z33310c15)"] {animation-delay:15s;}
#z33310 path {fill:#ccc;}
]]>
</style>
<path id="z33310d1" d="M399 147C413 132 423 118 436 109C442 104 443 98 442 90C440 83 434 72 420 59C407 47 396 41 386 41C376 40 371 47 375 59C379 73 366 106 331 158C314 181 295 204 272 228C266 233 262 236 261 240C258 246 260 248 268 248C290 245 328 217 381 165 Z"/>
<path id="z33310d2" d="M381 165C407 183 437 187 472 182C536 171 602 162 669 152C699 146 716 141 721 138C726 133 728 128 726 123C722 115 711 108 694 104C680 100 638 110 567 125C494 140 438 144 399 147 Z"/>
<path id="z33310d3" d="M713 318C749 314 783 309 816 310C823 310 830 310 835 301C837 294 828 287 816 279C793 263 765 263 727 271L673 281C646 285 620 291 596 295L554 301C527 304 502 309 479 311L443 314C401 317 389 317 380 318L336 321C311 322 286 323 262 325C243 326 241 331 254 344C271 360 299 367 345 361L383 356C403 353 424 350 446 347L479 342C503 338 527 334 553 332L591 328C629 324 653 323 666 322 Z"/>
<path id="z33310d4" d="M380 318Q379 297 380 290Q380 272 368 264Q349 251 327 246Q315 243 309 249Q303 253 310 266Q326 290 335 317Q335 318 336 321L345 361Q351 392 362 446L394 442Q387 393 383 356L380 318 Z"/>
<path id="z33310d5" d="M479 311Q479 266 481 254Q484 238 473 228Q457 215 436 208Q426 204 418 209Q412 213 418 225Q433 255 443 314L446 347Q447 381 452 437L484 433Q480 381 479 342L479 311 Z"/>
<path id="z33310d6" d="M596 295C598 269 603 245 613 225C615 220 611 214 602 206C586 196 572 189 561 187C554 184 548 185 544 189C540 193 539 198 543 205C551 219 555 251 554 301L553 332C552 362 550 392 547 426L578 422C582 389 586 358 591 328 Z"/>
<path id="z33310d7" d="M684 408Q699 362 713 318L727 271Q727 270 728 269Q741 236 750 222Q754 215 741 199Q716 177 698 170Q686 164 678 170Q671 174 675 188Q685 210 682 224Q678 251 673 281L666 322Q657 365 647 413L684 408 Z"/>
<path id="z33310d8" d="M335 483C495 457 687 444 911 455C929 455 939 452 942 447C946 438 943 428 931 419C889 387 845 380 799 390C764 396 726 402 684 408L647 413C624 416 601 419 578 422L547 426C535 427 492 432 484 433L452 437C433 439 414 439 394 442L362 446C283 455 200 460 114 469C99 470 97 476 108 489C117 499 128 507 141 511C155 515 169 516 181 513C219 502 260 494 303 488 Z"/>
<path id="z33310d9" d="M263 622Q285 601 312 572L325 559Q341 540 354 530Q361 524 359 514Q356 493 335 483L303 488Q310 513 246 593Q216 629 175 668Q168 674 165 678Q162 685 172 685Q193 681 247 636L263 622 Z"/>
<path id="z33310d10" d="M312 572C318 580 331 584 352 581C384 575 402 572 404 577C407 585 398 604 384 637C347 720 269 806 141 890C127 899 125 901 138 902C184 903 242 870 315 801C360 756 402 705 440 645C457 616 472 598 483 590C491 584 493 577 490 570C487 563 469 552 438 536C431 532 420 532 406 539C389 546 362 553 325 559 Z"/>
<path id="z33310d11" d="M247 636Q250 642 259 652Q302 709 310 710Q317 711 322 703Q326 694 325 675Q322 651 263 622L247 636 Z"/>
<path id="z33310d12" d="M694 581C772 563 813 553 815 552C819 547 821 542 819 538C814 531 803 526 787 522C767 517 736 523 698 539L642 553C615 557 586 561 556 564C535 566 532 573 547 584C571 598 600 601 642 592 Z"/>
<path id="z33310d13" d="M525 735C528 716 533 658 514 618C509 607 513 602 524 602C535 602 549 610 565 629C575 640 576 652 573 665C569 676 566 716 564 727 Z"/>
<path id="z33310d14" d="M689 739C764 723 806 717 856 714C868 713 875 711 875 704C875 698 865 689 846 679C828 669 804 668 788 674C717 697 588 721 564 727L525 735C510 737 496 742 486 747C452 761 491 779 514 777C553 773 612 754 640 749 Z"/>
<path id="z33310d15" d="M641 930C642 946 646 955 651 961C654 965 658 968 663 966C680 955 686 897 688 771C688 764 688 745 689 739L690 702C690 669 689 628 694 581L698 539C699 528 702 520 704 513C706 502 702 493 694 488C674 475 661 467 653 465C645 462 636 463 627 469C620 473 620 479 625 486C635 503 640 526 642 553C643 576 642 579 642 592C642 626 640 666 640 710L640 749C640 819 635 877 641 930 Z"/>
<defs>
	<clipPath id="z33310c1"><use xlink:href="#z33310d1"/></clipPath>
	<clipPath id="z33310c2"><use xlink:href="#z33310d2"/></clipPath>
	<clipPath id="z33310c3"><use xlink:href="#z33310d3"/></clipPath>
	<clipPath id="z33310c4"><use xlink:href="#z33310d4"/></clipPath>
	<clipPath id="z33310c5"><use xlink:href="#z33310d5"/></clipPath>
	<clipPath id="z33310c6"><use xlink:href="#z33310d6"/></clipPath>
	<clipPath id="z33310c7"><use xlink:href="#z33310d7"/></clipPath>
	<clipPath id="z33310c8"><use xlink:href="#z33310d8"/></clipPath>
	<clipPath id="z33310c9"><use xlink:href="#z33310d9"/></clipPath>
	<clipPath id="z33310c10"><use xlink:href="#z33310d10"/></clipPath>
	<clipPath id="z33310c11"><use xlink:href="#z33310d11"/></clipPath>
	<clipPath id="z33310c12"><use xlink:href="#z33310d12"/></clipPath>
	<clipPath id="z33310c13"><use xlink:href="#z33310d13"/></clipPath>
	<clipPath id="z33310c14"><use xlink:href="#z33310d14"/></clipPath>
	<clipPath id="z33310c15"><use xlink:href="#z33310d15"/></clipPath>
</defs>
<path pathLength="3333" clip-path="url(#z33310c1)" d="M383 52L406 94L267 241"/>
<path pathLength="3333" clip-path="url(#z33310c2)" d="M392 160L721 124"/>
<path pathLength="3333" clip-path="url(#z33310c3)" d="M253 333L830 295"/>
<path pathLength="3333" clip-path="url(#z33310c4)" d="M312 252L353 289L380 443"/>
<path pathLength="3333" clip-path="url(#z33310c5)" d="M422 212L456 251L463 432"/>
<path pathLength="3333" clip-path="url(#z33310c6)" d="M548 193L582 226L555 421"/>
<path pathLength="3333" clip-path="url(#z33310c7)" d="M682 172L716 220L654 407"/>
<path pathLength="3333" clip-path="url(#z33310c8)" d="M109 479L163 489L807 419L939 433"/>
<path pathLength="3333" clip-path="url(#z33310c9)" d="M310 495L323 529L169 679"/>
<path pathLength="3333" clip-path="url(#z33310c10)" d="M322 568L419 558L444 590L314 774L139 897"/>
<path pathLength="3333" clip-path="url(#z33310c11)" d="M256 637L316 704"/>
<path pathLength="3333" clip-path="url(#z33310c12)" d="M547 572L815 539"/>
<path pathLength="3333" clip-path="url(#z33310c13)" d="M522 609L550 657L539 732"/>
<path pathLength="3333" clip-path="url(#z33310c14)" d="M477 757L817 694L868 703"/>
<path pathLength="3333" clip-path="url(#z33310c15)" d="M628 475L671 512L661 961"/>
</svg>