<!--
AnimCJK 2016-2018 Copyright Francois Mizessyn, https://github.com/parsimonhi/animCJK
Derived from:
    MakeMeAHanzi project - https://github.com/skishore/makemeahanzi
    Arphic PL KaitiM GB - https://apps.ubuntu.com/cat/applications/precise/fonts-arphic-gkai00mp/
    Arphic PL UKai - https://apps.ubuntu.com/cat/applications/fonts-arphic-ukai/
You can redistribute and/or modify this file under the terms of the Arphic Public License
as published by Arphic Technology Co., Ltd.
You should have received a copy of this license (the directory "APL") along with this file;
if not, see http://ftp.gnu.org/non-gnu/chinese-fonts-truetype/LICENSE.
-->
<svg id="z33324" class="acjk" version="1.1" viewBox="0 0 1024 1024" xmlns="http://www.w3.org/2000/svg" xmlns:xlink="http://www.w3.org/1999/xlink">
<style>
<![CDATA[
@keyframes z33324k {
	from {
		stroke:#c00;
		stroke-dashoffset:3334;
	}
	75% {
		stroke:#c00;
		stroke-dashoffset:0;
	}
	to {
		stroke:#000;
	}
}
#z33324 path[clip-path] {
	animation:z33324k 1s linear both;
	stroke-dasharray:3334;
	stroke-width:128;
	stroke-linecap:round;
	fill:none;
}
#z33324 path[clip-path="url(#z33324c1)"] {animation-delay:1s;}
#z33324 path[clip-path="url(#z33324c2)"] {animation-delay:2s;}
#z33324 path[clip-path="url(#z33324c3)"] {animation-delay:3s;}
#z33324 path[clip-path="url(#z33324c4)"] {animation-delay:4s;}
#z33324 path[clip-path="url(#z33324c5)"] {animation-delay:5s;}
#z33324 path[clip-path="url(#z33324c6)"] {animation-delay:6s;}
#z33324 path[clip-path="url(#z33324c7)"] {animation-delay:7s;}
#z33324 path[clip-path="url(#z33324c8)"] {animation-delay:8s;}
#z33324 path[clip-path="url(#z33324c9)"] {animation-delay:9s;}
#z33324 path[clip-path="url(#z33324c10)"] {animation-delay:10s;}
#z33324 path {fill:#ccc;}
]]>
</style>
<path id="z33324d1" d="M286 259Q319 217 338 188Q383 113 406 96Q422 80 407 66Q389 56 361 50Q334 44 323 51Q313 55 320 67Q335 95 270 240Q266 250 260 264L286 259 Z"/>
<path id="z33324d2" d="M250 266Q237 256 217 250Q198 243 187 248Q177 255 184 267Q220 312 208 518L204 561Q188 699 100 875Q96 882 94 887Q93 897 103 894Q115 891 147 843Q217 747 252 548L256 509Q260 446 261 334Q262 316 264 300Q265 297 265 295L250 266 Z"/>
<path id="z33324d3" d="M389 505Q390 781 372 808Q368 814 347 809Q325 808 303 804Q284 800 285 809Q337 849 367 880Q380 898 395 902Q404 905 412 896Q448 848 447 796Q437 633 436 365Q435 310 448 286Q458 267 448 258Q427 240 393 227Q374 218 328 244Q318 247 286 259L260 264Q256 264 250 266L265 295Q280 292 352 271Q370 265 375 274Q387 307 388 482L389 505 Z"/>
<path id="z33324d4" d="M285 375Q315 441 333 446Q343 450 351 438Q355 428 352 411Q348 395 331 383Q306 361 294 356Q287 352 284 361Q281 367 285 375 Z"/>
<path id="z33324d5" d="M307 758C293 758 296 734 296 728C295 701 298 661 300 634C300 623 300 613 296 603C292 597 285 593 285 585C285 578 290 572 297 572C312 570 329 588 335 604C337 616 336 624 335 640C333 665 336 702 330 726C328 733 320 759 307 758 Z"/>
<path id="z33324d6" d="M252 548Q384 506 389 505L388 482Q325 495 256 509L208 518Q162 525 112 535Q91 539 59 535Q46 535 44 544Q40 556 48 564Q67 580 95 601Q104 605 116 598Q158 574 204 561L252 548 Z"/>
<path id="z33324d7" d="M593 177Q586 173 579 171Q560 164 546 171Q536 175 543 187Q564 208 562 299Q561 300 561 304Q551 379 481 449Q472 458 482 458Q521 452 561 403Q606 343 608 256Q608 226 612 211L593 177 Z"/>
<path id="z33324d8" d="M612 211Q627 208 666 192Q685 185 693 188Q700 192 699 206Q695 338 697 349Q697 376 726 397Q757 416 818 416Q878 415 909 399Q924 395 916 379Q903 361 885 351Q873 344 851 353Q817 366 777 364Q752 363 744 343Q732 324 741 267Q742 233 776 197Q792 182 777 169Q755 150 729 139Q719 133 702 143Q654 162 593 177L612 211 Z"/>
<path id="z33324d9" d="M700 736Q737 675 772 580Q785 550 804 531Q823 515 809 501Q796 488 763 478Q739 471 712 485Q687 495 653 507Q619 517 563 527Q550 528 545 535Q541 542 559 549Q595 562 643 546Q686 527 694 527Q719 531 710 557Q694 639 663 696Q662 697 661 700L636 735Q575 807 464 843Q449 849 462 857Q468 861 507 859Q591 852 668 775L700 736 Z"/>
<path id="z33324d10" d="M668 775Q710 826 763 878Q779 897 807 898Q892 904 961 897Q997 894 994 884Q991 878 826 818Q757 787 700 736L661 700Q622 661 583 616Q550 577 517 576Q501 575 497 579Q494 585 509 596Q551 626 636 735L668 775 Z"/>
<defs>
	<clipPath id="z33324c1"><use xlink:href="#z33324d1"/></clipPath>
	<clipPath id="z33324c2"><use xlink:href="#z33324d2"/></clipPath>
	<clipPath id="z33324c3"><use xlink:href="#z33324d3"/></clipPath>
	<clipPath id="z33324c4"><use xlink:href="#z33324d4"/></clipPath>
	<clipPath id="z33324c5"><use xlink:href="#z33324d5"/></clipPath>
	<clipPath id="z33324c6"><use xlink:href="#z33324d6"/></clipPath>
	<clipPath id="z33324c7"><use xlink:href="#z33324d7"/></clipPath>
	<clipPath id="z33324c8"><use xlink:href="#z33324d8"/></clipPath>
	<clipPath id="z33324c9"><use xlink:href="#z33324d9"/></clipPath>
	<clipPath id="z33324c10"><use xlink:href="#z33324d10"/></clipPath>
</defs>
<path pathLength="3333" clip-path="url(#z33324c1)" d="M325 61L365 98L268 259"/>
<path pathLength="3333" clip-path="url(#z33324c2)" d="M190 254L232 300L228 550L184 730L101 887"/>
<path pathLength="3333" clip-path="url(#z33324c3)" d="M259 271L377 248L415 277L408 819L380 856L295 808"/>
<path pathLength="3333" clip-path="url(#z33324c4)" d="M291 360L341 443"/>
<path pathLength="3333" clip-path="url(#z33324c5)" d="M295 579L318 618L307 753"/>
<path pathLength="3333" clip-path="url(#z33324c6)" d="M51 544L108 568L386 494"/>
<path pathLength="3333" clip-path="url(#z33324c7)" d="M548 177L584 216L580 314L545 396L485 450"/>
<path pathLength="3333" clip-path="url(#z33324c8)" d="M600 179L734 178L716 311L746 380L913 381"/>
<path pathLength="3333" clip-path="url(#z33324c9)" d="M549 535L716 507L763 528L645 762L556 826L462 852"/>
<path pathLength="3333" clip-path="url(#z33324c10)" d="M506 583L796 851L985 884"/>
</svg>