<!--
AnimCJK 2016-2026 Copyright FM-SH, https://github.com/parsimonhi/animCJK
Derived from:
    MakeMeAHanzi project - https://github.com/skishore/makemeahanzi
    Arphic PL KaitiM GB font
    Arphic PL KaitiM Big5 font
You can redistribute and/or modify this file under the terms of the Arphic Public License
as published by Arphic Technology Co., Ltd.
You should have received a copy of this license along with this file.
If not, see https://ftp.gnu.org/non-gnu/chinese-fonts-truetype/LICENSE.
-->
<svg id="z33321" class="acjk" viewBox="0 0 1024 1024" xmlns="http://www.w3.org/2000/svg">
<style>
<![CDATA[
@keyframes zk {
	to {
		stroke-dashoffset:0;
	}
}
svg.acjk path[clip-path] {
	--t:0.8s;
	animation:zk var(--t) linear forwards var(--d);
	stroke-dasharray:3337;
	stroke-dashoffset:3339;
	stroke-width:128;
	stroke-linecap:round;
	fill:none;
	stroke:#000;
}
svg.acjk path[id] {fill:#ccc;}
]]>
</style>
<path id="z33321d1" d="M230 263C250 241 284 200 333 140C341 128 352 117 364 108C374 99 375 91 367 83C357 75 343 68 327 64C312 60 301 59 294 63C287 65 286 70 290 78C298 94 274 153 219 255C218 255 218 257 218 259C216 263 227 266 230 263Z"/>
<path id="z33321d2" d="M218 259C194 247 177 242 169 247C161 251 160 258 166 266C175 277 184 301 188 342C188 352 191 460 188 500C185 528 185 528 184 542C174 646 134 754 76 868C73 872 71 876 71 880C70 886 72 887 78 886C86 883 100 866 123 836C180 756 216 654 230 528C233 503 233 503 234 491C238 454 238 401 239 332C239 310 241 295 245 289C251 275 231 266 218 259Z"/>
<path id="z33321d3" d="M254 286C272 279 331 259 351 253C359 250 366 251 372 257C378 263 381 279 382 304C382 356 383 405 385 452C386 471 386 471 386 481C390 616 382 781 372 798C369 802 362 801 350 799C336 796 322 795 309 793C296 790 289 792 293 796C322 824 348 844 365 864C373 874 381 881 390 884C394 885 399 884 405 878C427 852 438 822 437 790C433 703 427 596 427 469C427 452 427 452 427 443C427 337 430 278 437 267C443 256 443 247 436 241C424 230 407 222 387 214C376 209 366 208 359 213C336 226 266 254 230 263C220 265 236 292 245 289C251 287 251 287 254 286Z"/>
<path id="z33321d4" d="M281 363C299 403 314 425 326 429C332 431 337 428 343 421C345 415 345 407 343 397C337 379 319 361 289 345C285 344 282 346 280 350C279 354 279 358 281 363Z"/>
<path id="z33321d5" d="M297 742C283 742 286 715 286 708C288 677 288 654 290 624C290 612 290 601 286 590C282 583 275 579 275 570C275 562 280 555 287 555C302 553 319 573 325 591C327 604 326 613 325 631C323 658 322 682 320 706C318 714 310 743 297 742Z"/>
<path id="z33321d6" d="M230 528C267 516 347 492 386 481C413 473 413 473 427 469C441 464 455 458 469 451C476 446 483 442 482 438C480 433 474 431 467 433C454 435 441 439 427 443C399 449 399 449 385 452C349 459 272 483 234 491C203 497 203 497 188 500C164 504 135 510 115 512C100 513 81 514 58 513C51 512 45 515 44 521C41 528 43 535 48 540C60 551 74 563 93 576C98 579 105 578 113 574C135 561 159 549 184 542C215 533 215 533 230 528Z"/>
<path id="z33321d7" d="M553 321C562 342 549 385 516 449C516 449 515 450 515 452C504 469 486 494 460 527C456 531 457 533 463 534C511 518 562 462 618 364C621 358 623 354 626 352C630 348 631 344 629 339C628 333 623 328 615 322C594 307 575 302 557 308C553 309 552 314 553 321Z"/>
<path id="z33321d8" d="M614 183C632 197 646 214 655 235C701 327 745 404 785 468C792 480 803 487 819 490C872 496 910 499 931 499C940 499 947 498 951 494C953 490 952 486 947 483C876 445 828 410 800 378C764 335 720 272 670 187C666 177 659 170 649 167C630 163 616 163 610 169C607 173 609 178 614 183Z"/>
<path id="z33321d9" d="M749 700C690 711 637 727 572 746C566 749 562 749 559 747C557 745 558 740 562 733C627 631 667 571 682 554C689 547 691 540 686 531C681 523 662 512 629 499C617 494 609 493 603 496C595 500 593 509 597 523C609 556 585 619 527 712C513 729 494 747 471 765C463 774 460 782 462 789C467 801 478 813 496 825C503 832 511 831 519 823C548 799 621 766 757 726C757 725 759 725 762 725C771 723 758 698 749 700Z"/>
<path id="z33321d10" d="M762 725C774 747 787 772 800 800C806 815 813 826 822 832C827 834 833 833 840 828C850 822 856 804 856 775C856 739 815 690 735 629C730 624 726 625 723 632C720 640 729 663 749 700C758 717 758 717 762 725Z"/>
<defs>
	<clipPath id="z33321c1"><use href="#z33321d1"/></clipPath>
	<clipPath id="z33321c2"><use href="#z33321d2"/></clipPath>
	<clipPath id="z33321c3"><use href="#z33321d3"/></clipPath>
	<clipPath id="z33321c4"><use href="#z33321d4"/></clipPath>
	<clipPath id="z33321c5"><use href="#z33321d5"/></clipPath>
	<clipPath id="z33321c6"><use href="#z33321d6"/></clipPath>
	<clipPath id="z33321c7"><use href="#z33321d7"/></clipPath>
	<clipPath id="z33321c8"><use href="#z33321d8"/></clipPath>
	<clipPath id="z33321c9"><use href="#z33321d9"/></clipPath>
	<clipPath id="z33321c10"><use href="#z33321d10"/></clipPath>
</defs>
<path style="--d:1s;" pathLength="3333" clip-path="url(#z33321c1)" d="M294 67L328 105L223 255"/>
<path style="--d:2s;" pathLength="3333" clip-path="url(#z33321c2)" d="M168 251L213 293L204 561L161 725L77 879"/>
<path style="--d:3s;" pathLength="3333" clip-path="url(#z33321c3)" d="M232 270L369 231L409 258L404 806L385 841L303 796"/>
<path style="--d:4s;" pathLength="3333" clip-path="url(#z33321c4)" d="M286 349L328 425"/>
<path style="--d:5s;" pathLength="3333" clip-path="url(#z33321c5)" d="M286 560L308 613L296 736"/>
<path style="--d:6s;" pathLength="3333" clip-path="url(#z33321c6)" d="M50 523L109 544L475 440"/>
<path style="--d:7s;" pathLength="3333" clip-path="url(#z33321c7)" d="M560 310L592 347L532 459L466 528"/>
<path style="--d:8s;" pathLength="3333" clip-path="url(#z33321c8)" d="M617 174L650 191L823 452L946 490"/>
<path style="--d:9s;" pathLength="3333" clip-path="url(#z33321c9)" d="M602 504L644 547L517 777L537 787L759 709"/>
<path style="--d:10s;" pathLength="3333" clip-path="url(#z33321c10)" d="M729 631L818 760L833 829"/>
</svg>