<!--
AnimCJK 2016-2026 Copyright FM-SH, https://github.com/parsimonhi/animCJK
Derived from:
    MakeMeAHanzi project - https://github.com/skishore/makemeahanzi
    Arphic PL KaitiM GB font
    Arphic PL KaitiM Big5 font
You can redistribute and/or modify this file under the terms of the Arphic Public License
as published by Arphic Technology Co., Ltd.
You should have received a copy of this license along with this file.
If not, see https://ftp.gnu.org/non-gnu/chinese-fonts-truetype/LICENSE.
-->
<svg id="z33378" class="acjk" viewBox="0 0 1024 1024" xmlns="http://www.w3.org/2000/svg">
<style>
<![CDATA[
@keyframes zk {
	to {
		stroke-dashoffset:0;
	}
}
svg.acjk path[clip-path] {
	--t:0.8s;
	animation:zk var(--t) linear forwards var(--d);
	stroke-dasharray:3337;
	stroke-dashoffset:3339;
	stroke-width:128;
	stroke-linecap:round;
	fill:none;
	stroke:#000;
}
svg.acjk path[id] {fill:#ccc;}
]]>
</style>
<path id="z33378d1" d="M227 317C246 296 279 257 325 200C334 188 343 178 355 169C365 161 366 153 358 145C348 138 335 132 320 127C306 124 295 123 288 126C282 129 281 134 284 141C292 156 270 212 217 309C216 310 216 311 216 313C215 317 225 320 227 317Z"/>
<path id="z33378d2" d="M216 313C193 301 177 297 169 301C162 305 161 312 166 319C175 330 184 353 187 392C187 401 190 504 187 542C185 569 185 569 184 582C174 681 136 784 81 892C78 896 76 900 76 903C75 909 77 910 83 909C90 906 104 890 126 861C180 785 214 688 227 569C230 545 230 545 231 533C235 498 235 448 236 382C236 361 238 347 242 341C247 329 228 319 216 313Z"/>
<path id="z33378d3" d="M250 338C267 332 285 328 304 322C312 319 319 320 324 326C330 332 333 347 334 371C334 420 335 467 337 512C338 530 338 530 338 539C341 667 334 824 324 841C321 844 315 843 303 842C290 839 277 838 264 836C252 833 245 835 249 839C277 865 302 884 318 903C325 913 333 919 341 922C345 923 350 922 356 917C377 892 387 863 386 833C382 750 377 648 377 528C377 511 377 511 377 503C377 402 380 346 386 336C392 325 392 317 385 311C374 300 358 293 339 285C328 280 319 279 312 284C290 297 262 308 227 317C218 319 233 345 242 341C247 339 247 339 250 338Z"/>
<path id="z33378d4" d="M257 421C274 459 288 480 300 484C305 486 311 483 316 476C318 471 318 463 316 454C310 436 293 420 264 404C261 403 258 405 256 409C255 413 256 417 257 421Z"/>
<path id="z33378d5" d="M272 782C259 782 262 756 262 749C263 720 263 698 265 669C265 658 265 648 262 637C258 630 251 627 251 618C251 610 256 604 263 604C277 602 293 621 299 638C301 650 300 659 299 676C297 702 296 725 294 747C292 755 284 783 272 782Z"/>
<path id="z33378d6" d="M227 569C263 557 301 550 338 539C364 532 364 532 377 528C390 523 403 517 417 511C423 506 430 502 429 498C427 493 421 492 415 493C402 495 390 499 377 503C350 509 350 509 337 512C302 518 267 526 231 533C202 539 202 539 187 542C165 546 147 548 127 550C113 551 95 551 73 551C67 550 61 552 60 558C57 565 59 571 64 576C75 587 89 598 107 610C111 613 118 612 126 609C147 596 160 589 184 582C213 573 213 573 227 569Z"/>
<path id="z33378d7" d="M684 267C764 246 804 231 806 230C810 225 812 220 809 215C804 208 793 202 775 199C755 195 726 208 685 221C649 232 649 232 631 237C596 247 558 255 517 262C494 265 490 275 508 283C555 302 592 290 633 280C667 271 667 271 684 267Z"/>
<path id="z33378d8" d="M675 489C677 412 682 338 684 267C685 236 685 236 685 221C685 203 690 168 702 117C703 110 699 99 685 91C662 77 640 71 624 69C613 67 605 69 600 75C595 79 594 88 601 98C631 140 628 192 631 237C632 266 632 266 633 280C636 347 633 419 633 495C633 509 675 503 675 489Z"/>
<path id="z33378d9" d="M517 408C549 373 561 350 563 349C568 342 569 336 567 331C564 324 555 320 542 318C527 315 516 315 510 317C506 317 503 321 503 330C502 359 476 407 420 470C411 479 411 480 426 478C441 475 469 458 504 422C513 413 513 413 517 408Z"/>
<path id="z33378d10" d="M504 422C524 443 552 479 583 484C587 484 590 480 592 475C596 451 580 431 563 423C548 415 533 411 517 408C511 407 500 417 504 422Z"/>
<path id="z33378d11" d="M774 371C792 350 807 332 823 311C837 291 820 284 798 278C757 267 764 278 761 304C759 328 728 379 712 399C686 430 695 439 725 418C735 411 747 401 760 387C769 376 769 376 774 371Z"/>
<path id="z33378d12" d="M760 387C802 421 825 439 831 441C837 442 843 436 844 432C846 407 835 388 815 381C802 376 788 373 774 371C767 370 754 383 760 387Z"/>
<path id="z33378d13" d="M633 495C562 505 488 517 408 529C396 530 394 535 404 545C411 553 421 558 432 561C443 563 454 563 464 561C591 524 821 498 928 506C939 506 947 502 949 498C951 491 948 483 939 476C908 453 882 446 862 452C815 463 753 477 675 489C647 493 647 493 633 495Z"/>
<path id="z33378d14" d="M473 616C461 609 448 604 436 601C421 597 421 610 427 619C454 662 468 733 471 831C472 868 481 901 508 913C521 918 525 896 526 887C526 874 524 865 523 854C512 788 505 717 501 649C501 635 486 622 473 616Z"/>
<path id="z33378d15" d="M787 867C796 909 821 978 845 918C857 886 869 814 878 700C880 669 888 643 904 624C914 610 916 600 908 592C894 577 871 564 842 551C829 544 812 545 792 553C708 583 601 604 473 616C459 618 487 652 501 649C593 626 689 609 766 598C794 593 815 605 816 630C818 704 808 817 799 837C795 847 785 856 787 867Z"/>
<path id="z33378d16" d="M593 681C586 678 574 676 559 673C542 669 546 682 550 690C560 711 571 740 578 777C579 787 583 795 590 803C606 820 606 807 609 790C610 782 607 774 607 766C604 735 600 715 600 704C600 696 600 684 593 681Z"/>
<path id="z33378d17" d="M716 760C724 728 734 708 743 699C755 685 754 674 742 668C731 662 719 653 705 646C695 640 685 641 676 647C649 664 620 673 593 681C586 684 593 707 600 704C606 701 626 694 662 687C687 681 687 695 684 713C681 723 679 735 677 749C675 762 713 773 716 760Z"/>
<path id="z33378d18" d="M609 790C646 786 686 780 717 778C732 773 731 768 716 760C704 753 690 747 677 749C653 754 628 761 607 766C599 768 601 792 609 790Z"/>
<path id="z33378d19" d="M526 887C611 879 718 870 787 867C798 867 807 844 799 837C760 804 748 835 523 854C512 854 515 887 526 887Z"/>
<defs>
	<clipPath id="z33378c1"><use href="#z33378d1"/></clipPath>
	<clipPath id="z33378c2"><use href="#z33378d2"/></clipPath>
	<clipPath id="z33378c3"><use href="#z33378d3"/></clipPath>
	<clipPath id="z33378c4"><use href="#z33378d4"/></clipPath>
	<clipPath id="z33378c5"><use href="#z33378d5"/></clipPath>
	<clipPath id="z33378c6"><use href="#z33378d6"/></clipPath>
	<clipPath id="z33378c7"><use href="#z33378d7"/></clipPath>
	<clipPath id="z33378c8"><use href="#z33378d8"/></clipPath>
	<clipPath id="z33378c9"><use href="#z33378d9"/></clipPath>
	<clipPath id="z33378c10"><use href="#z33378d10"/></clipPath>
	<clipPath id="z33378c11"><use href="#z33378d11"/></clipPath>
	<clipPath id="z33378c12"><use href="#z33378d12"/></clipPath>
	<clipPath id="z33378c13"><use href="#z33378d13"/></clipPath>
	<clipPath id="z33378c14"><use href="#z33378d14"/></clipPath>
	<clipPath id="z33378c15"><use href="#z33378d15"/></clipPath>
	<clipPath id="z33378c16"><use href="#z33378d16"/></clipPath>
	<clipPath id="z33378c17"><use href="#z33378d17"/></clipPath>
	<clipPath id="z33378c18"><use href="#z33378d18"/></clipPath>
	<clipPath id="z33378c19"><use href="#z33378d19"/></clipPath>
</defs>
<path style="--d:1s;" pathLength="3333" clip-path="url(#z33378c1)" d="M291 132L320 169L222 312"/>
<path style="--d:2s;" pathLength="3333" clip-path="url(#z33378c2)" d="M169 308L212 351L204 590L160 761L82 901"/>
<path style="--d:3s;" pathLength="3333" clip-path="url(#z33378c3)" d="M228 324L324 302L359 325L355 845L333 882L258 838"/>
<path style="--d:4s;" pathLength="3333" clip-path="url(#z33378c4)" d="M263 413L307 478"/>
<path style="--d:5s;" pathLength="3333" clip-path="url(#z33378c5)" d="M261 609L281 642L273 776"/>
<path style="--d:6s;" pathLength="3333" clip-path="url(#z33378c6)" d="M64 564L125 580L423 499"/>
<path style="--d:7s;" pathLength="3333" clip-path="url(#z33378c7)" d="M504 273L807 218"/>
<path style="--d:8s;" pathLength="3333" clip-path="url(#z33378c8)" d="M603 80L661 128L647 500"/>
<path style="--d:9s;" pathLength="3333" clip-path="url(#z33378c9)" d="M511 322L531 352L422 474"/>
<path style="--d:10s;" pathLength="3333" clip-path="url(#z33378c10)" d="M508 418L586 474"/>
<path style="--d:11s;" pathLength="3333" clip-path="url(#z33378c11)" d="M769 282L790 316L704 425"/>
<path style="--d:12s;" pathLength="3333" clip-path="url(#z33378c12)" d="M767 383L840 430"/>
<path style="--d:13s;" pathLength="3333" clip-path="url(#z33378c13)" d="M402 535L855 478L946 492"/>
<path style="--d:14s;" pathLength="3333" clip-path="url(#z33378c14)" d="M431 606L476 663L508 909"/>
<path style="--d:15s;" pathLength="3333" clip-path="url(#z33378c15)" d="M479 623L788 575L852 598L820 937"/>
<path style="--d:16s;" pathLength="3333" clip-path="url(#z33378c16)" d="M553 680L579 701L597 806"/>
<path style="--d:17s;" pathLength="3333" clip-path="url(#z33378c17)" d="M593 691L699 670L718 690L703 763"/>
<path style="--d:18s;" pathLength="3333" clip-path="url(#z33378c18)" d="M604 778L722 768"/>
<path style="--d:19s;" pathLength="3333" clip-path="url(#z33378c19)" d="M517 871L798 851"/>
</svg>