<!--
AnimCJK 2016-2025 Copyright FM-SH - https://github.com/parsimonhi/animCJK
Derived from:
    MakeMeAHanzi project - https://github.com/skishore/makemeahanzi
    Arphic PL KaitiM GB font
    Arphic PL UKai font
You can redistribute and/or modify this file under the terms of the Arphic Public License
as published by Arphic Technology Co., Ltd.
You should have received a copy of this license along with this file.
If not, see https://ftp.gnu.org/non-gnu/chinese-fonts-truetype/LICENSE.
-->
<svg id="z33398" class="acjk" viewBox="0 0 1024 1024" xmlns="http://www.w3.org/2000/svg">
<style>
<![CDATA[
@keyframes zk {
	to {
		stroke-dashoffset:0;
	}
}
svg.acjk path[clip-path] {
	--t:0.8s;
	animation:zk var(--t) linear forwards var(--d);
	stroke-dasharray:3337;
	stroke-dashoffset:3339;
	stroke-width:128;
	stroke-linecap:round;
	fill:none;
	stroke:#000;
}
svg.acjk path[id] {fill:#ccc;}
]]>
</style>
<path id="z33398d1" d="M177 299C170 297 159 295 144 293C137 291 132 292 130 295C126 298 127 305 132 315C149 351 164 400 173 463C175 481 181 497 192 509C202 521 209 522 212 513C213 508 215 503 215 497C215 478 215 478 215 468C215 443 197 372 193 328C191 317 188 301 177 299Z"/>
<path id="z33398d2" d="M437 460C451 472 472 478 486 463C497 449 505 419 525 337C529 318 539 301 554 287C562 278 562 269 556 263C547 252 530 239 504 226C494 221 464 229 416 241C385 248 385 248 369 252C346 257 323 263 299 269C271 276 271 276 257 279C227 286 200 292 177 299C167 302 183 332 193 328C211 321 234 314 261 307C286 300 286 300 299 297C319 291 341 285 368 280C398 273 398 273 413 270C439 264 458 262 472 272C480 277 482 286 480 299C465 370 454 417 445 435C442 443 430 455 437 460Z"/>
<path id="z33398d3" d="M299 269C299 246 299 232 300 224C301 211 296 202 289 197C276 187 262 181 247 177C238 174 233 175 228 180C224 183 223 188 228 197C236 214 251 240 257 279C260 298 260 298 261 307C263 323 265 343 268 370C270 388 270 388 271 397C272 412 273 433 276 455C278 466 312 458 310 446C308 426 306 405 305 389C304 370 304 370 303 360C301 337 299 317 299 297C299 278 299 278 299 269Z"/>
<path id="z33398d4" d="M416 241C418 221 422 190 436 149C437 142 434 135 423 128C404 116 387 110 374 108C364 106 358 107 354 112C349 117 348 123 353 131C364 149 370 165 370 177C370 201 369 226 369 252C368 271 368 271 368 280C367 300 365 322 364 344C363 366 363 366 362 377C360 395 359 414 358 433C358 445 393 439 395 427C397 409 399 387 401 370C404 346 404 346 405 334C407 312 410 290 413 270C415 251 415 251 416 241Z"/>
<path id="z33398d5" d="M401 370C413 367 422 364 436 362C448 359 453 353 449 347C435 332 421 329 405 334C378 341 378 341 364 344C350 347 313 357 303 360C280 367 280 367 268 370C253 374 234 379 222 383C213 385 213 391 225 398C240 406 256 400 271 397C294 392 294 392 305 389C323 384 341 380 362 377C388 372 388 372 401 370Z"/>
<path id="z33398d6" d="M215 497C219 498 225 497 231 496C271 484 410 460 437 460C446 460 452 440 445 435C436 425 420 424 395 427C370 431 370 431 358 433C341 437 329 439 310 444C287 450 287 450 276 453C254 457 233 463 215 468C206 471 205 497 215 497Z"/>
<path id="z33398d7" d="M221 546C208 548 207 552 218 560C234 571 248 574 262 571C335 550 397 535 446 530C450 529 456 528 459 522C460 516 453 509 443 506C421 498 388 506 344 520C302 532 257 539 221 546Z"/>
<path id="z33398d8" d="M225 617C216 612 190 606 180 616C177 618 178 624 184 633C197 651 211 676 223 709C226 718 231 726 238 732C249 741 257 742 257 734C257 734 257 728 257 726C256 716 257 717 253 699C246 673 242 654 240 643C238 633 234 621 225 617Z"/>
<path id="z33398d9" d="M425 680C435 660 448 649 461 640C471 632 471 619 464 611C456 603 437 593 410 578C401 573 390 572 378 577C326 597 265 611 225 617C215 619 231 646 240 643C253 639 284 632 367 616C377 613 384 613 388 618C390 621 392 626 391 634C388 647 384 660 380 672C374 686 418 694 425 680Z"/>
<path id="z33398d10" d="M257 726C261 726 265 726 270 725C292 719 323 714 364 710C382 708 382 708 391 707C403 705 416 703 431 702C435 701 439 698 440 694C440 691 435 686 425 680C412 672 395 669 380 672C336 681 291 692 253 699C244 701 248 726 257 726Z"/>
<path id="z33398d11" d="M208 774C226 807 242 825 256 828C262 829 270 825 274 816C276 809 275 799 271 787C268 779 258 774 249 769C232 760 221 754 215 752C210 750 206 752 205 759C203 763 205 768 208 774Z"/>
<path id="z33398d12" d="M364 710C364 718 366 727 366 736C365 754 353 792 335 833C331 844 363 836 369 826C392 788 400 774 418 757C425 750 427 743 424 738C418 729 391 707 391 707C385 701 364 701 364 710Z"/>
<path id="z33398d13" d="M335 833C284 843 223 853 179 860C164 862 145 861 122 860C114 859 109 863 108 869C105 876 106 883 112 889C124 899 139 911 159 925C164 928 171 927 180 923C215 903 299 877 429 842C461 833 481 823 492 818C500 813 507 810 506 805C505 800 497 798 490 800C451 806 411 817 369 826C346 831 346 831 335 833Z"/>
<path id="z33398d14" d="M682 260C697 233 713 203 728 168C737 146 744 129 753 119C757 112 758 104 754 97C750 90 738 80 719 70C701 60 686 57 676 60C665 62 662 70 670 83C684 106 677 159 642 243C625 281 605 323 581 367C576 374 573 379 573 384C572 390 576 393 584 390C623 358 649 315 669 282C678 267 678 267 682 260Z"/>
<path id="z33398d15" d="M698 461C712 445 735 418 766 380C795 342 822 311 852 292C863 284 866 276 859 268C850 258 834 246 809 233C802 229 782 234 750 244C720 252 697 257 682 260C674 262 661 279 669 282C681 288 706 288 744 283C757 280 752 293 751 300C741 332 706 401 670 469C665 477 692 469 698 461Z"/>
<path id="z33398d16" d="M819 607C837 553 859 519 882 500C894 489 894 475 884 466C837 425 795 420 758 439C738 449 717 455 698 461C679 466 679 466 670 469C635 478 601 484 567 490C556 492 572 522 583 520C593 518 613 510 662 500C687 495 687 495 699 492C720 487 741 481 764 476C778 472 787 472 793 478C798 484 801 494 798 507C789 541 780 573 770 601C764 616 813 622 819 607Z"/>
<path id="z33398d17" d="M662 500C662 510 659 553 654 628C654 642 692 632 694 619C700 573 706 543 712 532C716 521 717 513 714 508C709 501 704 496 699 492C689 484 662 487 662 500Z"/>
<path id="z33398d18" d="M565 664C575 670 586 674 600 671C648 659 724 647 829 636C835 635 839 632 840 627C840 622 833 615 819 607C805 599 786 598 770 601C743 606 716 613 694 619C667 625 667 625 654 628C631 633 589 641 567 643C560 644 559 661 565 664Z"/>
<path id="z33398d19" d="M567 490C560 485 552 481 543 478C535 475 528 475 524 479C520 481 519 487 523 498C530 522 533 544 532 567C523 703 527 790 538 828C543 848 552 867 570 883C625 932 718 949 846 934C860 932 875 928 891 924C923 914 954 898 986 876C1000 865 1002 850 993 832C984 817 972 785 961 736C958 725 957 717 953 714C949 711 946 716 942 729C924 781 907 815 895 832C884 845 863 857 832 865C759 882 690 879 628 853C602 842 588 826 581 811C567 782 558 733 565 664C566 650 566 650 567 643C572 590 576 546 583 520C585 509 576 497 567 490Z"/>
<defs>
	<clipPath id="z33398c1"><use href="#z33398d1"/></clipPath>
	<clipPath id="z33398c2"><use href="#z33398d2"/></clipPath>
	<clipPath id="z33398c3"><use href="#z33398d3"/></clipPath>
	<clipPath id="z33398c4"><use href="#z33398d4"/></clipPath>
	<clipPath id="z33398c5"><use href="#z33398d5"/></clipPath>
	<clipPath id="z33398c6"><use href="#z33398d6"/></clipPath>
	<clipPath id="z33398c7"><use href="#z33398d7"/></clipPath>
	<clipPath id="z33398c8"><use href="#z33398d8"/></clipPath>
	<clipPath id="z33398c9"><use href="#z33398d9"/></clipPath>
	<clipPath id="z33398c10"><use href="#z33398d10"/></clipPath>
	<clipPath id="z33398c11"><use href="#z33398d11"/></clipPath>
	<clipPath id="z33398c12"><use href="#z33398d12"/></clipPath>
	<clipPath id="z33398c13"><use href="#z33398d13"/></clipPath>
	<clipPath id="z33398c14"><use href="#z33398d14"/></clipPath>
	<clipPath id="z33398c15"><use href="#z33398d15"/></clipPath>
	<clipPath id="z33398c16"><use href="#z33398d16"/></clipPath>
	<clipPath id="z33398c17"><use href="#z33398d17"/></clipPath>
	<clipPath id="z33398c18"><use href="#z33398d18"/></clipPath>
	<clipPath id="z33398c19"><use href="#z33398d19"/></clipPath>
</defs>
<path style="--d:1s;" pathLength="3333" clip-path="url(#z33398c1)" d="M135 302L167 330L203 512"/>
<path style="--d:2s;" pathLength="3333" clip-path="url(#z33398c2)" d="M181 302L494 253L519 279L448 466"/>
<path style="--d:3s;" pathLength="3333" clip-path="url(#z33398c3)" d="M231 185L270 217L289 457"/>
<path style="--d:4s;" pathLength="3333" clip-path="url(#z33398c4)" d="M357 115L401 151L375 437"/>
<path style="--d:5s;" pathLength="3333" clip-path="url(#z33398c5)" d="M223 388L441 353"/>
<path style="--d:6s;" pathLength="3333" clip-path="url(#z33398c6)" d="M210 485L444 446"/>
<path style="--d:7s;" pathLength="3333" clip-path="url(#z33398c7)" d="M219 551L452 518"/>
<path style="--d:8s;" pathLength="3333" clip-path="url(#z33398c8)" d="M185 621L216 641L245 734"/>
<path style="--d:9s;" pathLength="3333" clip-path="url(#z33398c9)" d="M229 621L398 597L430 630L394 683"/>
<path style="--d:10s;" pathLength="3333" clip-path="url(#z33398c10)" d="M252 712L435 694"/>
<path style="--d:11s;" pathLength="3333" clip-path="url(#z33398c11)" d="M213 761L259 823"/>
<path style="--d:12s;" pathLength="3333" clip-path="url(#z33398c12)" d="M374 712L393 749L342 832"/>
<path style="--d:13s;" pathLength="3333" clip-path="url(#z33398c13)" d="M110 867L181 891L498 806"/>
<path style="--d:14s;" pathLength="3333" clip-path="url(#z33398c14)" d="M671 66L716 114L579 384"/>
<path style="--d:15s;" pathLength="3333" clip-path="url(#z33398c15)" d="M674 277L761 260L808 284L678 468"/>
<path style="--d:16s;" pathLength="3333" clip-path="url(#z33398c16)" d="M569 496L808 455L845 492L778 609"/>
<path style="--d:17s;" pathLength="3333" clip-path="url(#z33398c17)" d="M673 493L687 529L670 632"/>
<path style="--d:18s;" pathLength="3333" clip-path="url(#z33398c18)" d="M566 656L834 625"/>
<path style="--d:19s;" pathLength="3333" clip-path="url(#z33398c19)" d="M527 487L556 520L554 804L610 877L740 907L893 882L954 833L952 721"/>
</svg>