<!--
AnimCJK 2016-2025 Copyright FM-SH - https://github.com/parsimonhi/animCJK
Derived from:
    MakeMeAHanzi project - https://github.com/skishore/makemeahanzi
    Arphic PL KaitiM GB font
    Arphic PL UKai font
You can redistribute and/or modify this file under the terms of the Arphic Public License
as published by Arphic Technology Co., Ltd.
You should have received a copy of this license along with this file.
If not, see https://ftp.gnu.org/non-gnu/chinese-fonts-truetype/LICENSE.
-->
<svg id="z33491" class="acjk" viewBox="0 0 1024 1024" xmlns="http://www.w3.org/2000/svg">
<style>
<![CDATA[
@keyframes zk {
	to {
		stroke-dashoffset:0;
	}
}
svg.acjk path[clip-path] {
	--t:0.8s;
	animation:zk var(--t) linear forwards var(--d);
	stroke-dasharray:3337;
	stroke-dashoffset:3339;
	stroke-width:128;
	stroke-linecap:round;
	fill:none;
	stroke:#000;
}
svg.acjk path[id] {fill:#ccc;}
]]>
</style>
<path id="z33491d1" d="M652 220C678 218 734 215 821 221C848 222 860 205 834 186C779 146 720 162 674 170C631 177 631 177 610 180C550 189 487 198 421 207C388 211 388 211 372 213C319 219 264 223 208 230C187 232 183 239 199 249C221 263 240 272 277 268C303 266 350 252 379 249C408 245 408 245 423 243C452 239 556 225 600 223C635 221 635 221 652 220Z"/>
<path id="z33491d2" d="M421 207C419 184 419 164 419 146C419 133 412 126 400 120C373 107 352 100 337 106C323 110 322 121 333 135C352 160 366 187 372 213C377 237 377 237 379 249C385 280 392 302 403 312C411 319 418 318 422 311C426 298 424 277 423 243C422 219 422 219 421 207Z"/>
<path id="z33491d3" d="M674 170C680 155 685 139 698 124C707 112 708 105 702 97C692 85 676 72 653 60C640 53 628 52 616 59C608 62 610 68 614 77C623 96 621 131 610 180C603 209 603 209 600 223C589 268 581 297 582 308C582 318 588 319 600 311C610 303 629 272 652 220C667 187 667 187 674 170Z"/>
<path id="z33491d4" d="M534 336C540 329 546 320 544 312C541 303 530 296 513 290C492 282 477 279 469 282C464 283 460 287 458 298C433 389 315 515 101 675C86 685 88 689 108 687C182 676 324 565 414 473C450 435 482 390 517 354C528 342 528 342 534 336Z"/>
<path id="z33491d5" d="M517 354C591 436 675 520 769 606C783 619 802 625 826 623C904 614 956 608 980 600C1002 592 995 583 975 579C864 553 788 530 749 504C681 458 610 402 534 336C528 331 512 347 517 354Z"/>
<path id="z33491d6" d="M472 511C486 522 502 536 518 551C526 558 535 562 546 561C552 560 558 556 561 548C564 538 562 523 555 505C547 486 516 473 465 465C454 463 447 462 444 465C440 467 439 473 441 481C442 488 454 497 472 511Z"/>
<path id="z33491d7" d="M522 804C608 717 663 667 689 657C702 651 706 644 703 632C699 621 676 602 630 578C616 570 601 571 586 577C538 593 478 608 407 627C388 631 356 633 311 631C294 629 288 637 295 651C299 659 308 668 322 677C343 690 365 687 390 676C407 667 465 653 559 625C581 618 604 635 594 654C568 697 536 743 505 795C502 800 517 809 522 804Z"/>
<path id="z33491d8" d="M505 795C492 788 464 770 415 748C408 745 404 746 403 755C401 764 405 773 413 781C451 819 494 866 540 922C551 936 560 947 571 950C577 951 583 947 589 941C597 931 598 912 592 881C586 853 564 826 522 804C511 798 511 798 505 795Z"/>
<defs>
	<clipPath id="z33491c1"><use href="#z33491d1"/></clipPath>
	<clipPath id="z33491c2"><use href="#z33491d2"/></clipPath>
	<clipPath id="z33491c3"><use href="#z33491d3"/></clipPath>
	<clipPath id="z33491c4"><use href="#z33491d4"/></clipPath>
	<clipPath id="z33491c5"><use href="#z33491d5"/></clipPath>
	<clipPath id="z33491c6"><use href="#z33491d6"/></clipPath>
	<clipPath id="z33491c7"><use href="#z33491d7"/></clipPath>
	<clipPath id="z33491c8"><use href="#z33491d8"/></clipPath>
</defs>
<path style="--d:1s;" pathLength="3333" clip-path="url(#z33491c1)" d="M196 237L289 244L730 189L844 202"/>
<path style="--d:2s;" pathLength="3333" clip-path="url(#z33491c2)" d="M332 115L387 155L412 312"/>
<path style="--d:3s;" pathLength="3333" clip-path="url(#z33491c3)" d="M618 66L662 112L589 307"/>
<path style="--d:4s;" pathLength="3333" clip-path="url(#z33491c4)" d="M469 287L494 325L390 458L223 607L100 680"/>
<path style="--d:5s;" pathLength="3333" clip-path="url(#z33491c5)" d="M522 343L795 573L986 590"/>
<path style="--d:6s;" pathLength="3333" clip-path="url(#z33491c6)" d="M447 472L526 516L546 557"/>
<path style="--d:7s;" pathLength="3333" clip-path="url(#z33491c7)" d="M296 640L374 657L573 601L621 611L649 650L514 798"/>
<path style="--d:8s;" pathLength="3333" clip-path="url(#z33491c8)" d="M409 754L541 864L583 943"/>
</svg>