<!--
AnimCJK 2016-2026 Copyright FM-SH, https://github.com/parsimonhi/animCJK
Derived from:
    MakeMeAHanzi project - https://github.com/skishore/makemeahanzi
    Arphic PL KaitiM GB font
    Arphic PL KaitiM Big5 font
You can redistribute and/or modify this file under the terms of the Arphic Public License
as published by Arphic Technology Co., Ltd.
You should have received a copy of this license along with this file.
If not, see https://ftp.gnu.org/non-gnu/chinese-fonts-truetype/LICENSE.
-->
<svg id="z33497" class="acjk" viewBox="0 0 1024 1024" xmlns="http://www.w3.org/2000/svg">
<style>
<![CDATA[
@keyframes zk {
	to {
		stroke-dashoffset:0;
	}
}
svg.acjk path[clip-path] {
	--t:0.8s;
	animation:zk var(--t) linear forwards var(--d);
	stroke-dasharray:3337;
	stroke-dashoffset:3339;
	stroke-width:128;
	stroke-linecap:round;
	fill:none;
	stroke:#000;
}
svg.acjk path[id] {fill:#ccc;}
]]>
</style>
<path id="z33497d1" d="M640 287C692 284 755 276 830 281C840 281 848 279 851 273C854 265 852 254 843 246C822 228 796 221 765 220C741 220 696 230 657 237C617 244 617 244 597 247C552 254 463 268 391 278C357 283 357 283 340 285C284 292 226 297 167 305C147 307 143 315 158 325C187 344 222 349 259 341C288 334 317 324 348 320C379 315 379 315 394 313C449 304 526 293 588 290C623 288 623 288 640 287Z"/>
<path id="z33497d2" d="M391 278C388 245 384 215 383 189C382 174 376 166 362 161C333 148 310 141 294 148C279 153 279 164 291 179C323 218 333 255 340 285C345 308 345 308 348 320C358 365 363 397 378 411C387 419 394 418 398 410C402 398 398 367 394 313C392 290 392 290 391 278Z"/>
<path id="z33497d3" d="M657 237C667 205 675 172 695 142C703 128 705 121 698 114C686 102 669 89 643 77C630 70 617 70 604 79C597 83 597 89 602 98C611 116 614 137 612 159C609 185 603 214 597 247C591 276 591 276 588 290C576 343 567 376 569 391C569 401 576 403 589 394C599 386 618 350 640 287C651 254 651 254 657 237Z"/>
<path id="z33497d4" d="M466 437C487 462 507 481 529 489C537 492 545 488 551 479C555 471 556 461 554 452C546 427 526 411 494 405C469 400 455 399 453 400C449 400 448 404 450 413C451 419 457 426 466 437Z"/>
<path id="z33497d5" d="M308 547C283 548 278 558 296 570C324 589 357 593 395 588C482 575 572 564 664 551C706 544 730 538 737 533C743 528 745 522 742 516C737 507 726 499 707 494C686 488 665 490 645 496C596 509 546 521 495 530C437 539 374 543 308 547Z"/>
<path id="z33497d6" d="M357 697Q375 724 394 754Q404 770 421 773Q433 774 441 763Q448 748 447 716Q446 697 419 678Q356 638 340 641Q334 644 333 657Q334 670 357 697Z"/>
<path id="z33497d7" d="M552 825C568 811 594 773 633 711C641 697 652 680 668 664C677 654 680 647 676 639C668 626 655 612 634 596C623 587 612 584 600 589C592 591 592 596 595 606C603 635 581 697 536 791C529 805 525 817 524 827C523 827 523 827 523 828C520 837 544 831 552 825Z"/>
<path id="z33497d8" d="M529 870C563 868 598 866 633 864C719 856 811 859 909 871C925 873 935 872 939 866C944 857 942 848 935 841C916 822 892 806 863 792C854 787 841 789 823 793C777 803 730 810 683 814C630 818 586 821 552 825C533 827 533 827 523 828C505 829 437 831 321 845C276 850 219 853 151 852C142 851 136 854 136 862C134 870 140 880 153 890C163 898 179 906 200 915C206 917 216 916 229 912C239 908 269 905 318 896C380 884 450 873 529 870Z"/>
<defs>
	<clipPath id="z33497c1"><use href="#z33497d1"/></clipPath>
	<clipPath id="z33497c2"><use href="#z33497d2"/></clipPath>
	<clipPath id="z33497c3"><use href="#z33497d3"/></clipPath>
	<clipPath id="z33497c4"><use href="#z33497d4"/></clipPath>
	<clipPath id="z33497c5"><use href="#z33497d5"/></clipPath>
	<clipPath id="z33497c6"><use href="#z33497d6"/></clipPath>
	<clipPath id="z33497c7"><use href="#z33497d7"/></clipPath>
	<clipPath id="z33497c8"><use href="#z33497d8"/></clipPath>
</defs>
<path style="--d:1s;" pathLength="3333" clip-path="url(#z33497c1)" d="M155 314L248 319L734 251L849 265"/>
<path style="--d:2s;" pathLength="3333" clip-path="url(#z33497c2)" d="M288 156L346 193L390 410"/>
<path style="--d:3s;" pathLength="3333" clip-path="url(#z33497c3)" d="M605 85L657 129L578 393"/>
<path style="--d:4s;" pathLength="3333" clip-path="url(#z33497c4)" d="M458 408L546 481"/>
<path style="--d:5s;" pathLength="3333" clip-path="url(#z33497c5)" d="M292 555L384 566L739 517"/>
<path style="--d:6s;" pathLength="3333" clip-path="url(#z33497c6)" d="M342 650L434 767"/>
<path style="--d:7s;" pathLength="3333" clip-path="url(#z33497c7)" d="M603 594L634 649L532 826"/>
<path style="--d:8s;" pathLength="3333" clip-path="url(#z33497c8)" d="M141 863L202 884L833 826L937 857"/>
</svg>