<!--
AnimCJK 2016-2018 Copyright Francois Mizessyn - https://github.com/parsimonhi/animCJK
Derived from:
    MakeMeAHanzi project - https://github.com/skishore/makemeahanzi
    Arphic PL KaitiM GB - https://apps.ubuntu.com/cat/applications/precise/fonts-arphic-gkai00mp/
    Arphic PL UKai - https://apps.ubuntu.com/cat/applications/fonts-arphic-ukai/
You can redistribute and/or modify this file under the terms of the Arphic Public License
as published by Arphic Technology Co., Ltd.
You should have received a copy of this license (the directory "APL") along with this file;
if not, see http://ftp.gnu.org/non-gnu/chinese-fonts-truetype/LICENSE.
-->
<svg id="z33509" class="acjk" version="1.1" viewBox="0 0 1024 1024" xmlns="http://www.w3.org/2000/svg" xmlns:xlink="http://www.w3.org/1999/xlink">
<style>
<![CDATA[
@keyframes z33509k {
	from {
		stroke:#ccc;
		stroke-dashoffset:3334;
	}
	1% {
		stroke:#c00;
		stroke-dashoffset:3334;
	}
	75% {
		stroke:#c00;
		stroke-dashoffset:0;
	}
	to {
		stroke:#000;
	}
}
#z33509 path[clip-path] {
	animation:z33509k 1s linear both;
	stroke-dasharray:3334;
	stroke-width:128;
	stroke-linecap:round;
	fill:none;
}
#z33509 path[clip-path="url(#z33509c1)"] {animation-delay:1s;}
#z33509 path[clip-path="url(#z33509c2)"] {animation-delay:2s;}
#z33509 path[clip-path="url(#z33509c3)"] {animation-delay:3s;}
#z33509 path[clip-path="url(#z33509c4)"] {animation-delay:4s;}
#z33509 path[clip-path="url(#z33509c5)"] {animation-delay:5s;}
#z33509 path[clip-path="url(#z33509c6)"] {animation-delay:6s;}
#z33509 path[clip-path="url(#z33509c7)"] {animation-delay:7s;}
#z33509 path[clip-path="url(#z33509c8)"] {animation-delay:8s;}
#z33509 path {fill:#ccc;}
]]>
</style>
<path id="z33509d1" d="M624 245Q718 236 810 243Q826 244 831 235Q835 225 823 210Q775 168 678 192Q660 193 644 198C605 204 605 204 586 207Q505 217 418 229C385 233 385 233 369 235Q293 242 211 251Q183 254 202 269Q247 299 309 284Q342 275 376 270C405 265 405 265 419 263Q447 254 574 248C607 246 607 246 624 245 Z"/>
<path id="z33509d2" d="M418 229Q417 198 417 173Q418 154 399 147Q360 126 338 133Q320 140 334 160Q359 194 369 235C374 258 374 258 376 270Q388 339 400 352Q413 364 418 352Q422 337 419 263C418 240 418 240 418 229 Z"/>
<path id="z33509d3" d="M644 198Q650 179 680 130Q695 115 685 104Q672 86 638 67Q622 57 603 65Q593 72 600 83Q609 108 604 136Q597 167 586 207C578 234 578 234 574 248Q549 311 551 336Q551 351 568 340Q580 331 624 245C637 214 637 214 644 198 Z"/>
<path id="z33509d4" d="M373 635Q410 586 458 512C474 487 474 487 482 475Q497 442 520 420Q527 414 526 403Q525 393 511 380Q478 350 442 354Q433 357 436 370Q442 406 409 482C397 507 397 507 391 519Q313 654 162 789Q128 819 85 856Q76 860 88 864Q100 863 131 844Q183 819 231 781Q283 741 336 680C361 650 361 650 373 635 Z"/>
<path id="z33509d5" d="M458 512Q552 502 891 501Q913 502 918 492Q925 479 907 464Q850 419 808 427Q693 449 493 473Q487 473 482 475C459 484 433 482 409 482Q267 495 106 512Q84 513 100 533Q115 549 135 555Q157 562 176 557Q278 532 391 519C436 514 436 514 458 512 Z"/>
<path id="z33509d6" d="M385 640Q381 637 373 635C354 631 329 662 336 680Q355 735 368 813Q371 844 387 864Q406 886 411 871Q415 861 416 844C415 821 415 821 414 810Q414 809 414 806Q401 709 397 675C395 663 396 646 385 640 Z"/>
<path id="z33509d7" d="M687 782Q717 701 752 674Q771 655 756 634Q681 571 622 594Q532 622 385 640C373 642 385 677 397 675Q413 672 613 640Q638 636 648 646Q658 656 655 676Q642 734 627 782C620 801 680 801 687 782 Z"/>
<path id="z33509d8" d="M416 844Q422 844 431 843Q518 828 706 822Q716 821 718 812Q719 805 690 783Q689 782 687 782C668 775 647 779 627 782Q509 801 414 810C403 810 405 844 416 844 Z"/>
<defs>
	<clipPath id="z33509c1"><use xlink:href="#z33509d1"/></clipPath>
	<clipPath id="z33509c2"><use xlink:href="#z33509d2"/></clipPath>
	<clipPath id="z33509c3"><use xlink:href="#z33509d3"/></clipPath>
	<clipPath id="z33509c4"><use xlink:href="#z33509d4"/></clipPath>
	<clipPath id="z33509c5"><use xlink:href="#z33509d5"/></clipPath>
	<clipPath id="z33509c6"><use xlink:href="#z33509d6"/></clipPath>
	<clipPath id="z33509c7"><use xlink:href="#z33509d7"/></clipPath>
	<clipPath id="z33509c8"><use xlink:href="#z33509d8"/></clipPath>
</defs>
<path pathLength="3333" clip-path="url(#z33509c1)" d="M203 260L720 212L828 229"/>
<path pathLength="3333" clip-path="url(#z33509c2)" d="M336 142L385 179L410 351"/>
<path pathLength="3333" clip-path="url(#z33509c3)" d="M607 67L647 113L562 338"/>
<path pathLength="3333" clip-path="url(#z33509c4)" d="M443 360L479 412L375 591L250 736L89 859"/>
<path pathLength="3333" clip-path="url(#z33509c5)" d="M100 520L161 533L820 463L915 484"/>
<path pathLength="3333" clip-path="url(#z33509c6)" d="M374 642L404 870"/>
<path pathLength="3333" clip-path="url(#z33509c7)" d="M393 642L669 619L709 658L640 779"/>
<path pathLength="3333" clip-path="url(#z33509c8)" d="M419 836L625 803L710 813"/>
</svg>