<!--
AnimCJK 2016-2017 Copyright Francois Mizessyn, http://gooo.free.fr/animCJK/
Derived from:
    MakeMeAHanzi project - https://github.com/skishore/makemeahanzi
    Arphic PL KaitiM GB - https://apps.ubuntu.com/cat/applications/precise/fonts-arphic-gkai00mp/
    Arphic PL UKai - https://apps.ubuntu.com/cat/applications/fonts-arphic-ukai/
You can redistribute and/or modify this file under the terms of the Arphic Public License
as published by Arphic Technology Co., Ltd.
You should have received a copy of this license (the directory "APL") along with this file;
if not, see http://ftp.gnu.org/non-gnu/chinese-fonts-truetype/LICENSE.
-->
<svg id="z33609" class="acjk" version="1.1" viewBox="0 0 1024 1024" xmlns="http://www.w3.org/2000/svg" xmlns:xlink="http://www.w3.org/1999/xlink">
<style>
<![CDATA[
	@keyframes z33609k {
		from {
			stroke:#c00;
			stroke-dashoffset:3000;
		}
		75% {
			stroke:#c00;
			stroke-dashoffset:0;
		}
		to {
			stroke:#000;
		}
	}
	#z33609 path[clip-path] {
		animation:z33609k 1s linear both;
		stroke-dasharray:3000;
		stroke-width:128;
		stroke-linecap:round;
		fill:none;
	}
	#z33609 path[clip-path="url(#z33609c1)"] {animation-delay:1s;}
	#z33609 path[clip-path="url(#z33609c2)"] {animation-delay:2s;}
	#z33609 path[clip-path="url(#z33609c3)"] {animation-delay:3s;}
	#z33609 path[clip-path="url(#z33609c4)"] {animation-delay:4s;}
	#z33609 path[clip-path="url(#z33609c5)"] {animation-delay:5s;}
	#z33609 path[clip-path="url(#z33609c6)"] {animation-delay:6s;}
	#z33609 path[clip-path="url(#z33609c7)"] {animation-delay:7s;}
	#z33609 path[clip-path="url(#z33609c8)"] {animation-delay:8s;}
	#z33609 path[clip-path="url(#z33609c9)"] {animation-delay:9s;}
	#z33609 path {fill:#ccc;}
]]>
</style>
<g transform="scale(1,-1) translate(0,-900)">
	<path id="z33609d1" d="M627 692Q703 701 803 691Q816 690 822 698Q826 708 815 723Q770 763 669 741Q657 740 648 737L587 729Q517 720 438 711L389 706Q310 699 226 692Q199 689 218 675Q258 648 339 663Q367 669 397 674L440 680Q446 687 578 690L627 692Z"/>
	<path id="z33609d2" d="M438 711Q435 742 435 768Q436 787 416 793Q379 814 355 805Q336 796 352 777Q379 746 389 706L397 674Q410 619 423 604Q436 594 441 605Q445 618 440 680L438 711Z"/>
	<path id="z33609d3" d="M578 690Q563 633 562 616Q563 601 580 613Q595 623 627 692L648 737Q657 756 673 782Q688 797 677 808Q665 826 630 844Q614 854 594 846Q584 839 592 828Q602 800 587 729L578 690Z"/>
	<path id="z33609d4" d="M349 555Q337 561 307 564Q294 567 291 561Q284 554 294 538Q325 477 348 377Q352 347 371 327Q390 305 395 322Q398 332 398 345L397 362Q396 374 393 388Q387 413 383 434L379 457Q370 500 368 519L349 555Z"/>
	<path id="z33609d5" d="M618 361Q618 354 621 345Q627 329 640 329Q655 330 663 346Q675 359 697 424Q716 479 756 510Q777 526 760 544Q741 563 689 592Q674 601 600 588Q569 588 440 568Q388 561 349 555L368 519Q371 519 375 520Q448 539 612 551Q640 552 651 546Q660 540 655 512Q633 403 623 381Q622 381 622 380L618 361Z"/>
	<path id="z33609d6" d="M383 434Q392 433 404 434Q501 449 574 457Q596 461 589 473Q579 486 555 492Q525 495 379 457L383 434Z"/>
	<path id="z33609d7" d="M518 350Q570 357 615 361Q616 362 618 361L622 380Q615 389 600 392Q581 396 545 389Q466 373 397 362L398 345Q408 339 458 343L518 350Z"/>
	<path id="z33609d8" d="M539 212Q680 224 889 213Q911 213 918 222Q925 235 906 252Q846 300 777 285Q683 272 540 253L477 246Q326 233 151 217Q127 216 144 195Q178 161 223 169Q379 208 475 208Q476 208 479 207L539 212Z"/>
	<path id="z33609d9" d="M532 1Q532 4 539 212L540 253Q540 256 548 311Q551 330 518 350L458 343Q476 313 477 246L479 207Q485 -39 496 -58Q496 -59 498 -61Q504 -68 511 -66Q529 -54 532 1Z"/>
	<defs>
		<clipPath id="z33609c1"><use xlink:href="#z33609d1"/></clipPath>
		<clipPath id="z33609c2"><use xlink:href="#z33609d2"/></clipPath>
		<clipPath id="z33609c3"><use xlink:href="#z33609d3"/></clipPath>
		<clipPath id="z33609c4"><use xlink:href="#z33609d4"/></clipPath>
		<clipPath id="z33609c5"><use xlink:href="#z33609d5"/></clipPath>
		<clipPath id="z33609c6"><use xlink:href="#z33609d6"/></clipPath>
		<clipPath id="z33609c7"><use xlink:href="#z33609d7"/></clipPath>
		<clipPath id="z33609c8"><use xlink:href="#z33609d8"/></clipPath>
		<clipPath id="z33609c9"><use xlink:href="#z33609d9"/></clipPath>
	</defs>
	<path pathLength="2999" clip-path="url(#z33609c1)" d="M220 683L725 723L818 703"/>
	<path pathLength="2999" clip-path="url(#z33609c2)" d="M349 795L405 759L433 606"/>
	<path pathLength="2999" clip-path="url(#z33609c3)" d="M598 843L638 795L570 616"/>
	<path pathLength="2999" clip-path="url(#z33609c4)" d="M298 554L341 505L385 321"/>
	<path pathLength="2999" clip-path="url(#z33609c5)" d="M359 551L638 573L685 558L711 512L633 336"/>
	<path pathLength="2999" clip-path="url(#z33609c6)" d="M386 450L586 472"/>
	<path pathLength="2999" clip-path="url(#z33609c7)" d="M404 357L618 370"/>
	<path pathLength="2999" clip-path="url(#z33609c8)" d="M142 210L202 195L799 253L915 230"/>
	<path pathLength="2999" clip-path="url(#z33609c9)" d="M468 336L510 308L507 -61"/>
</g>
</svg>