<!--
AnimCJK 2016-2026 Copyright FM-SH, https://github.com/parsimonhi/animCJK
Derived from:
    MakeMeAHanzi project - https://github.com/skishore/makemeahanzi
    Arphic PL KaitiM GB font
    Arphic PL KaitiM Big5 font
You can redistribute and/or modify this file under the terms of the Arphic Public License
as published by Arphic Technology Co., Ltd.
You should have received a copy of this license along with this file.
If not, see https://ftp.gnu.org/non-gnu/chinese-fonts-truetype/LICENSE.
-->
<svg id="z33671" class="acjk" viewBox="0 0 1024 1024" xmlns="http://www.w3.org/2000/svg">
<style>
<![CDATA[
@keyframes zk {
	to {
		stroke-dashoffset:0;
	}
}
svg.acjk path[clip-path] {
	--t:0.8s;
	animation:zk var(--t) linear forwards var(--d);
	stroke-dasharray:3337;
	stroke-dashoffset:3339;
	stroke-width:128;
	stroke-linecap:round;
	fill:none;
	stroke:#000;
}
svg.acjk path[id] {fill:#ccc;}
]]>
</style>
<path id="z33671d1" d="M662 255C713 251 784 245 860 249C894 250 889 224 873 212C851 194 826 186 795 186C771 185 716 200 677 207C637 214 637 214 617 217C572 224 483 238 411 248C377 253 377 253 360 255C304 262 216 271 157 279C137 281 132 289 148 299C176 318 212 325 249 317C278 310 337 296 368 292C399 287 399 287 414 285C445 280 574 261 610 259C645 256 645 256 662 255Z"/>
<path id="z33671d2" d="M411 248C408 214 406 194 405 169C404 153 397 146 384 141C354 128 332 121 316 128C301 133 300 144 313 159C344 198 353 224 360 255C365 280 365 280 368 292C377 337 380 357 396 371C404 379 412 378 416 370C420 358 418 338 414 285C412 260 412 260 411 248Z"/>
<path id="z33671d3" d="M677 207C685 180 691 162 711 132C719 118 721 111 714 104C702 92 684 79 659 67C637 56 606 64 618 88C638 128 624 174 617 217C612 245 612 245 610 259C601 312 593 335 595 351C595 360 602 363 615 354C625 346 642 318 662 255C672 223 672 223 677 207Z"/>
<path id="z33671d4" d="M263 431C251 421 239 412 226 409C214 405 194 408 201 422C214 449 223 483 225 532C226 582 226 670 227 812C227 827 270 817 270 802C270 725 270 725 270 687C270 674 270 674 270 668C270 635 271 608 271 579C271 563 271 563 271 555C271 489 272 459 274 457C276 448 271 437 263 431Z"/>
<path id="z33671d5" d="M447 757C451 563 461 469 477 451C485 441 486 431 478 423C472 417 453 408 423 391C406 382 354 411 263 431C254 433 266 462 274 457C284 449 334 440 387 428C406 424 407 430 407 457C409 498 406 606 400 769C400 785 447 773 447 757Z"/>
<path id="z33671d6" d="M271 579C284 579 311 573 366 566C395 562 378 541 345 537C321 535 297 542 271 555C264 558 263 579 271 579Z"/>
<path id="z33671d7" d="M270 687C287 689 315 684 370 675C401 670 377 649 348 647C327 645 301 652 270 668C265 671 264 687 270 687Z"/>
<path id="z33671d8" d="M227 812C197 819 162 827 131 827C113 827 110 848 123 857C137 869 156 880 179 891C185 894 193 892 202 887C296 834 400 802 501 762C521 754 521 736 497 742C483 746 460 754 447 757C416 765 416 765 400 769C357 780 314 791 270 802C241 809 241 809 227 812Z"/>
<path id="z33671d9" d="M656 509C601 518 558 522 527 522C513 521 507 523 507 530C506 536 513 543 528 551C545 562 563 565 579 560C601 554 623 549 646 543C685 535 685 535 705 531C740 523 775 517 809 513C819 512 825 514 828 519C832 528 833 545 831 571C821 663 807 723 787 771C777 802 766 822 754 831C746 839 733 840 716 836C696 832 677 827 659 822C644 818 641 822 652 835C681 862 702 886 717 908C723 920 733 924 745 920C757 919 771 910 787 896C831 856 861 767 882 610C886 575 896 547 911 527C923 514 925 505 919 498C909 487 892 477 868 467C851 460 834 460 816 467C787 478 753 487 714 497C675 505 675 505 656 509Z"/>
<path id="z33671d10" d="M646 543C603 699 538 806 413 906C393 921 390 935 429 917C591 845 673 662 705 531C711 508 711 508 714 497C720 471 728 447 746 413C749 406 751 401 745 395C734 383 717 373 694 360C680 353 667 351 656 353C642 355 639 363 648 375C663 395 668 414 669 433C670 452 667 469 656 509C649 532 649 532 646 543Z"/>
<defs>
	<clipPath id="z33671c1"><use href="#z33671d1"/></clipPath>
	<clipPath id="z33671c2"><use href="#z33671d2"/></clipPath>
	<clipPath id="z33671c3"><use href="#z33671d3"/></clipPath>
	<clipPath id="z33671c4"><use href="#z33671d4"/></clipPath>
	<clipPath id="z33671c5"><use href="#z33671d5"/></clipPath>
	<clipPath id="z33671c6"><use href="#z33671d6"/></clipPath>
	<clipPath id="z33671c7"><use href="#z33671d7"/></clipPath>
	<clipPath id="z33671c8"><use href="#z33671d8"/></clipPath>
	<clipPath id="z33671c9"><use href="#z33671d9"/></clipPath>
	<clipPath id="z33671c10"><use href="#z33671d10"/></clipPath>
</defs>
<path style="--d:1s;" pathLength="3333" clip-path="url(#z33671c1)" d="M144 288L232 295L761 219L882 226"/>
<path style="--d:2s;" pathLength="3333" clip-path="url(#z33671c2)" d="M308 138L370 176L404 373"/>
<path style="--d:3s;" pathLength="3333" clip-path="url(#z33671c3)" d="M621 70L673 124L609 355"/>
<path style="--d:4s;" pathLength="3333" clip-path="url(#z33671c4)" d="M207 415L245 457L249 816"/>
<path style="--d:5s;" pathLength="3333" clip-path="url(#z33671c5)" d="M263 437L396 409L440 432L421 774"/>
<path style="--d:6s;" pathLength="3333" clip-path="url(#z33671c6)" d="M272 569L376 554"/>
<path style="--d:7s;" pathLength="3333" clip-path="url(#z33671c7)" d="M269 679L379 665"/>
<path style="--d:8s;" pathLength="3333" clip-path="url(#z33671c8)" d="M121 841L185 857L508 747"/>
<path style="--d:9s;" pathLength="3333" clip-path="url(#z33671c9)" d="M517 532L568 541L820 489L875 518L787 844L735 880L654 825"/>
<path style="--d:10s;" pathLength="3333" clip-path="url(#z33671c10)" d="M648 360L708 418L633 659L535 817L407 919"/>
</svg>