<!--
AnimCJK 2016-2019 Copyright Francois Mizessyn - https://github.com/parsimonhi/animCJK
Derived from:
    MakeMeAHanzi project - https://github.com/skishore/makemeahanzi
    Arphic PL KaitiM GB font
    Arphic PL UKai font
You can redistribute and/or modify this file under the terms of the Arphic Public License
as published by Arphic Technology Co., Ltd.
You should have received a copy of this license along with this file.
If not, see http://ftp.gnu.org/non-gnu/chinese-fonts-truetype/LICENSE.
-->
<svg id="z33738" class="acjk" version="1.1" viewBox="0 0 1024 1024" xmlns="http://www.w3.org/2000/svg" xmlns:xlink="http://www.w3.org/1999/xlink">
<style>
<![CDATA[
@keyframes zk {
	to {
		stroke-dashoffset:0;
	}
}
svg.acjk path[clip-path] {
	--t:0.8s;
	animation:zk var(--t) linear forwards var(--d);
	stroke-dasharray:3337;
	stroke-dashoffset:3339;
	stroke-width:128;
	stroke-linecap:round;
	fill:none;
	stroke:#000;
}
svg.acjk path[id] {fill:#ccc;}
]]>
</style>
<path id="z33738d1" d="M622 218C646 217 742 206 860 215C870 215 879 213 883 206C886 198 883 187 874 179C839 147 793 143 737 155C705 161 672 167 639 172C603 177 603 177 585 180C563 183 463 195 439 199C408 203 408 203 392 205C327 213 259 217 189 225C168 227 164 234 179 245C206 264 247 270 299 260C332 253 364 244 398 240C425 236 425 236 439 234C462 230 546 221 576 220C607 219 607 219 622 218Z"/>
<path id="z33738d2" d="M439 199C439 178 438 159 440 142C441 129 435 122 423 116C397 102 377 94 362 100C349 104 348 113 358 127C374 148 386 174 392 205C396 228 396 228 398 240C402 264 411 279 416 284C424 292 431 292 434 284C437 276 439 259 439 234C439 234 439 210 439 199Z"/>
<path id="z33738d3" d="M639 172C646 151 653 128 667 107C674 95 676 88 670 82C660 71 645 60 622 49C611 43 599 42 588 50C581 54 582 59 587 67C597 86 597 125 585 180C579 207 579 207 576 220C566 264 561 291 562 301C562 309 568 311 579 303C591 293 605 263 622 218C633 187 633 187 639 172Z"/>
<path id="z33738d4" d="M414 366C431 346 441 334 440 327C438 318 427 313 412 310C395 305 383 304 376 306C371 307 369 311 368 320C362 352 334 395 283 449C272 459 274 462 290 459C311 454 365 421 394 389C407 374 407 374 414 366Z"/>
<path id="z33738d5" d="M394 389C418 401 440 404 460 399C484 391 556 379 674 364C692 361 705 365 714 375C725 387 731 410 733 442C736 540 735 622 728 687C715 787 698 843 677 855C673 857 641 854 585 841C568 837 560 834 558 839C556 843 561 849 572 859C605 886 629 913 647 939C659 957 671 965 683 962C691 959 703 949 717 931C735 907 752 872 765 828C780 774 792 659 799 484C800 438 806 407 819 392C830 377 830 363 814 353C766 321 724 311 692 319C594 342 501 357 414 366C404 368 385 385 394 389Z"/>
<path id="z33738d6" d="M309 525C318 534 327 545 338 558C345 566 353 570 363 570C369 570 374 567 377 559C380 550 380 537 376 521C372 506 348 494 307 483C298 480 291 478 288 481C284 482 283 488 284 496C285 502 295 511 309 525Z"/>
<path id="z33738d7" d="M563 458C552 476 535 499 515 528C511 532 510 538 515 541C519 543 524 541 529 538C573 507 606 484 629 475C639 470 643 467 641 461C637 451 629 441 618 431C606 420 593 413 580 413C571 412 566 419 568 431C569 439 568 448 563 458Z"/>
<path id="z33738d8" d="M472 617C526 608 587 602 655 598C665 597 671 594 672 590C672 582 668 574 658 569C641 559 625 556 611 559C558 567 512 575 472 582C441 587 441 587 425 590C364 600 283 608 187 612C179 612 173 615 171 620C168 626 172 633 181 641C202 659 231 665 266 657C310 646 351 636 391 630C445 621 445 621 472 617Z"/>
<path id="z33738d9" d="M421 669C418 725 414 760 410 774C403 795 410 823 431 854C432 856 432 856 433 857C440 867 445 876 451 878C457 880 463 875 467 867C475 847 476 827 475 809C471 740 472 676 472 617C472 594 472 594 472 582C472 533 475 499 478 481C479 473 477 466 473 463C458 450 445 440 434 436C426 432 419 434 414 439C410 442 410 445 415 452C423 464 429 510 425 590C422 643 422 643 421 669Z"/>
<path id="z33738d10" d="M391 630C364 682 298 737 194 798C183 804 182 808 192 810C198 811 214 808 239 801C263 793 288 784 313 769C334 755 356 737 381 714C397 698 410 683 421 669C448 633 411 590 391 630Z"/>
<path id="z33738d11" d="M516 678C540 698 569 724 600 755C610 765 618 772 627 774C631 775 636 772 641 766C647 758 645 742 638 718C629 691 589 670 516 652C510 650 507 651 507 658C506 666 509 672 516 678Z"/>
<defs>
	<clipPath id="z33738c1"><use xlink:href="#z33738d1"/></clipPath>
	<clipPath id="z33738c2"><use xlink:href="#z33738d2"/></clipPath>
	<clipPath id="z33738c3"><use xlink:href="#z33738d3"/></clipPath>
	<clipPath id="z33738c4"><use xlink:href="#z33738d4"/></clipPath>
	<clipPath id="z33738c5"><use xlink:href="#z33738d5"/></clipPath>
	<clipPath id="z33738c6"><use xlink:href="#z33738d6"/></clipPath>
	<clipPath id="z33738c7"><use xlink:href="#z33738d7"/></clipPath>
	<clipPath id="z33738c8"><use xlink:href="#z33738d8"/></clipPath>
	<clipPath id="z33738c9"><use xlink:href="#z33738d9"/></clipPath>
	<clipPath id="z33738c10"><use xlink:href="#z33738d10"/></clipPath>
	<clipPath id="z33738c11"><use xlink:href="#z33738d11"/></clipPath>
</defs>
<path style="--d:1s;" pathLength="3333" clip-path="url(#z33738c1)" d="M178 233L272 240L774 179L879 193"/>
<path style="--d:2s;" pathLength="3333" clip-path="url(#z33738c2)" d="M358 111L408 146L427 283"/>
<path style="--d:3s;" pathLength="3333" clip-path="url(#z33738c3)" d="M590 56L633 104L570 301"/>
<path style="--d:4s;" pathLength="3333" clip-path="url(#z33738c4)" d="M 381,314 401,340 286,455"/>
<path style="--d:5s;" pathLength="3333" clip-path="url(#z33738c5)" d="M403 385L699 340L777 386L726 843L671 909L566 841"/>
<path style="--d:6s;" pathLength="3333" clip-path="url(#z33738c6)" d="M291 490L354 535L362 565"/>
<path style="--d:7s;" pathLength="3333" clip-path="url(#z33738c7)" d="M577 421L601 462L520 533"/>
<path style="--d:8s;" pathLength="3333" clip-path="url(#z33738c8)" d="M176 621L247 634L667 586"/>
<path style="--d:9s;" pathLength="3333" clip-path="url(#z33738c9)" d="M420 439L450 481L451 874"/>
<path style="--d:10s;" pathLength="3333" clip-path="url(#z33738c10)" d="M416 633L316 742L196 803"/>
<path style="--d:11s;" pathLength="3333" clip-path="url(#z33738c11)" d="M512 660L604 718L632 769"/>
</svg>