<!--
AnimCJK 2016-2025 Copyright FM-SH - https://github.com/parsimonhi/animCJK
Derived from:
    MakeMeAHanzi project - https://github.com/skishore/makemeahanzi
    Arphic PL KaitiM GB font
    Arphic PL UKai font
You can redistribute and/or modify this file under the terms of the Arphic Public License
as published by Arphic Technology Co., Ltd.
You should have received a copy of this license along with this file.
If not, see http://ftp.gnu.org/non-gnu/chinese-fonts-truetype/LICENSE.
-->
<svg id="z33870" class="acjk" version="1.1" viewBox="0 0 1024 1024" xmlns="http://www.w3.org/2000/svg" xmlns:xlink="http://www.w3.org/1999/xlink">
<style>
<![CDATA[
@keyframes zk {
	to {
		stroke-dashoffset:0;
	}
}
svg.acjk path[clip-path] {
	--t:0.8s;
	animation:zk var(--t) linear forwards var(--d);
	stroke-dasharray:3337;
	stroke-dashoffset:3339;
	stroke-width:128;
	stroke-linecap:round;
	fill:none;
	stroke:#000;
}
svg.acjk path[id] {fill:#ccc;}
]]>
</style>
<path id="z33870d1" d="M638 182C704 177 764 171 819 175C829 175 836 173 839 168C842 161 839 150 831 142C801 114 738 124 658 137C623 142 623 142 606 145C564 152 469 161 435 167C404 170 404 170 388 172C337 177 263 185 206 192C187 194 184 201 198 211C224 229 255 236 290 228C319 221 367 213 396 209C423 205 423 205 437 203C468 201 561 186 596 185C624 183 624 183 638 182Z"/>
<path id="z33870d2" d="M435 167C433 147 433 129 433 114C433 101 426 94 415 90C385 79 366 73 356 78C344 83 343 93 353 105C368 123 382 145 388 172C393 197 393 197 396 209C402 238 409 252 420 261C427 268 434 267 437 260C441 247 438 231 437 203C436 179 436 179 435 167Z"/>
<path id="z33870d3" d="M658 137C663 125 668 105 684 84C691 74 693 66 688 60C679 48 664 39 644 28C632 22 623 21 613 28C606 31 606 35 610 44C617 59 618 96 606 145C599 172 599 172 596 185C575 266 622 216 638 182C651 152 651 152 658 137Z"/>
<path id="z33870d4" d="M332 286C337 308 316 348 268 406C245 433 219 462 187 490C181 495 177 498 175 502C172 507 175 510 182 510C210 510 266 470 351 387C366 372 383 352 397 342C402 338 406 331 404 322C403 315 395 303 381 289C368 275 355 269 344 268C333 267 328 273 332 286Z"/>
<path id="z33870d5" d="M298 622C331 584 362 544 394 506C399 500 402 493 399 485C397 477 388 466 372 453C357 440 345 434 333 434C321 433 318 440 322 454C328 472 328 488 320 502C278 584 209 672 115 767C84 799 129 783 144 772C176 750 225 708 274 650C290 631 290 631 298 622Z"/>
<path id="z33870d6" d="M274 650C296 672 294 748 282 828C271 886 274 927 298 951C307 960 317 958 324 942C333 918 337 892 337 865C335 763 336 719 341 697C344 679 345 668 339 663C315 637 301 624 298 622C288 615 267 640 274 650Z"/>
<path id="z33870d7" d="M785 414C801 381 839 375 817 353C808 343 784 332 751 317C738 311 726 312 713 318C686 328 659 338 634 345C599 354 599 354 581 358C542 367 501 369 462 375C435 378 456 395 469 399C505 408 545 394 581 388C615 381 615 381 632 378C685 367 745 357 725 426C718 450 718 450 714 462C706 484 702 498 695 520C690 534 738 539 740 524C747 493 754 476 763 458C778 429 778 429 785 414Z"/>
<path id="z33870d8" d="M763 458C795 455 840 454 900 454C911 454 917 450 920 445C922 439 919 432 910 426C889 410 867 403 845 402C821 401 803 409 785 414C745 422 745 422 725 426C690 432 661 436 630 442C597 447 597 447 580 449C531 455 479 465 425 472C413 473 411 477 421 487C428 494 437 500 448 503C459 505 469 504 478 503C510 493 545 485 580 480C613 475 613 475 629 472C658 466 688 464 714 462C747 459 747 459 763 458Z"/>
<path id="z33870d9" d="M579 546C533 555 488 559 450 568C427 572 436 591 460 596C485 600 521 586 579 578C612 573 612 573 628 571C663 565 705 559 753 555C779 547 758 530 740 524C726 518 710 518 695 520C671 525 647 531 628 536C595 543 595 543 579 546Z"/>
<path id="z33870d10" d="M579 645C541 651 500 658 466 664C450 666 448 672 462 681C504 706 538 688 578 681C611 675 611 675 628 672C652 667 693 657 753 650C779 646 765 629 751 622C739 615 722 614 702 617C686 619 652 631 628 636C595 642 595 642 579 645Z"/>
<path id="z33870d11" d="M576 744C517 754 457 761 393 770C380 772 378 777 388 787C396 794 405 801 417 803C429 806 441 805 450 803C489 792 530 782 575 777C610 773 610 773 628 771C684 764 757 755 848 756C883 756 904 755 909 748C912 742 908 734 899 726C867 703 838 696 817 701C770 711 708 724 628 736C593 741 593 741 576 744Z"/>
<path id="z33870d12" d="M634 345C635 326 641 306 654 285C658 275 654 265 642 256C626 244 604 234 578 228C566 224 556 228 549 236C542 242 542 248 551 255C587 287 581 337 581 358C581 378 581 378 581 388C581 408 580 422 580 449C580 470 580 470 580 480C580 505 579 521 579 546C579 567 579 567 579 578C579 603 579 626 579 645C578 669 578 669 578 681C577 696 576 722 576 744C575 766 575 766 575 777C572 848 578 949 590 964C597 974 606 973 612 960C619 940 628 854 628 771C628 748 628 748 628 736C628 693 628 693 628 672C628 648 628 648 628 636C628 593 628 593 628 571C628 548 628 548 628 536C628 511 628 496 629 472C630 452 630 452 630 442C630 414 630 399 632 378C633 356 633 356 634 345Z"/>
<defs>
	<clipPath id="z33870c1"><use xlink:href="#z33870d1"/></clipPath>
	<clipPath id="z33870c2"><use xlink:href="#z33870d2"/></clipPath>
	<clipPath id="z33870c3"><use xlink:href="#z33870d3"/></clipPath>
	<clipPath id="z33870c4"><use xlink:href="#z33870d4"/></clipPath>
	<clipPath id="z33870c5"><use xlink:href="#z33870d5"/></clipPath>
	<clipPath id="z33870c6"><use xlink:href="#z33870d6"/></clipPath>
	<clipPath id="z33870c7"><use xlink:href="#z33870d7"/></clipPath>
	<clipPath id="z33870c8"><use xlink:href="#z33870d8"/></clipPath>
	<clipPath id="z33870c9"><use xlink:href="#z33870d9"/></clipPath>
	<clipPath id="z33870c10"><use xlink:href="#z33870d10"/></clipPath>
	<clipPath id="z33870c11"><use xlink:href="#z33870d11"/></clipPath>
	<clipPath id="z33870c12"><use xlink:href="#z33870d12"/></clipPath>
</defs>
<path style="--d:1s;" pathLength="3333" clip-path="url(#z33870c1)" d="M196 199L258 209L745 149L836 159"/>
<path style="--d:2s;" pathLength="3333" clip-path="url(#z33870c2)" d="M351 87L403 122L430 259"/>
<path style="--d:3s;" pathLength="3333" clip-path="url(#z33870c3)" d="M614 34L653 73L600 223"/>
<path style="--d:4s;" pathLength="3333" clip-path="url(#z33870c4)" d="M339 272L363 329L181 503"/>
<path style="--d:5s;" pathLength="3333" clip-path="url(#z33870c5)" d="M329 439L359 499L230 670L113 779"/>
<path style="--d:6s;" pathLength="3333" clip-path="url(#z33870c6)" d="M291 628L315 677L304 949"/>
<path style="--d:7s;" pathLength="3333" clip-path="url(#z33870c7)" d="M459 383L746 353L775 384L708 529"/>
<path style="--d:8s;" pathLength="3333" clip-path="url(#z33870c8)" d="M424 480L829 428L915 439"/>
<path style="--d:9s;" pathLength="3333" clip-path="url(#z33870c9)" d="M445 578L760 545"/>
<path style="--d:10s;" pathLength="3333" clip-path="url(#z33870c10)" d="M463 672L762 638"/>
<path style="--d:11s;" pathLength="3333" clip-path="url(#z33870c11)" d="M388 776L816 728L902 738"/>
<path style="--d:12s;" pathLength="3333" clip-path="url(#z33870c12)" d="M550 242L616 290L598 966"/>
</svg>