<!--
AnimCJK 2016-2026 Copyright FM-SH, https://github.com/parsimonhi/animCJK
Derived from:
    MakeMeAHanzi project - https://github.com/skishore/makemeahanzi
    Arphic PL KaitiM GB font
    Arphic PL KaitiM Big5 font
You can redistribute and/or modify this file under the terms of the Arphic Public License
as published by Arphic Technology Co., Ltd.
You should have received a copy of this license along with this file.
If not, see https://ftp.gnu.org/non-gnu/chinese-fonts-truetype/LICENSE.
-->
<svg id="z33902" class="acjk" viewBox="0 0 1024 1024" xmlns="http://www.w3.org/2000/svg">
<style>
<![CDATA[
@keyframes zk {
	to {
		stroke-dashoffset:0;
	}
}
svg.acjk path[clip-path] {
	--t:0.8s;
	animation:zk var(--t) linear forwards var(--d);
	stroke-dasharray:3337;
	stroke-dashoffset:3339;
	stroke-width:128;
	stroke-linecap:round;
	fill:none;
	stroke:#000;
}
svg.acjk path[id] {fill:#ccc;}
]]>
</style>
<path id="z33902d1" d="M635 186C649 185 781 177 823 180C866 182 859 158 843 145C793 105 709 130 653 139C615 145 615 145 596 148C541 156 483 164 421 171C388 174 388 174 372 176C317 181 240 190 181 197C164 198 160 205 173 214C200 230 239 239 288 229C312 223 356 215 381 211C409 208 409 208 423 206C474 197 557 190 588 189C619 187 619 187 635 186Z"/>
<path id="z33902d2" d="M421 171C419 151 417 136 418 122C418 109 411 102 400 98C371 87 352 81 340 87C328 91 327 102 338 114C353 133 364 153 372 176C378 199 378 199 381 211C392 246 398 265 408 273C415 280 422 279 425 272C427 263 425 246 423 206C422 183 422 183 421 171Z"/>
<path id="z33902d3" d="M653 139C658 126 664 112 676 98C683 88 685 80 680 74C671 62 655 52 635 40C615 28 590 36 600 56C607 70 606 103 596 148C591 175 591 175 588 189C578 229 570 248 571 261C571 268 577 271 587 264C594 258 613 236 635 186C647 155 647 155 653 139Z"/>
<path id="z33902d4" d="M306 420C373 385 422 361 443 351C477 333 432 304 418 296C389 279 382 281 378 298C370 343 337 368 296 406C292 410 301 423 306 420Z"/>
<path id="z33902d5" d="M303 712C303 677 302 654 302 620C302 602 302 602 302 593C302 556 301 534 302 507C303 491 303 491 303 483C304 459 304 437 306 420C307 414 300 410 296 406C280 391 219 357 238 403C269 479 271 649 264 724C261 755 261 755 260 770C257 803 248 835 238 869C229 901 235 930 257 954C264 962 272 966 276 956C306 877 303 820 303 753C303 726 303 726 303 712Z"/>
<path id="z33902d6" d="M302 507C321 509 348 507 385 499C427 488 441 486 453 478C472 465 450 452 426 452C389 454 347 473 303 483C295 484 294 507 302 507Z"/>
<path id="z33902d7" d="M302 620C322 620 379 606 419 600C454 595 469 571 423 564C396 560 344 580 302 593C294 596 293 620 302 620Z"/>
<path id="z33902d8" d="M303 751C353 728 420 698 453 679C478 664 470 653 449 660C410 674 353 695 303 712C277 720 277 720 264 724C211 742 167 758 118 760C101 761 100 780 112 789C124 799 141 810 161 820C166 822 174 820 181 815C205 797 232 783 260 770C289 757 289 757 303 751Z"/>
<path id="z33902d9" d="M565 324C548 311 528 302 512 306C502 309 505 314 510 325C540 398 530 490 473 546C454 565 461 569 483 559C563 525 558 440 569 357C571 346 574 331 565 324Z"/>
<path id="z33902d10" d="M847 512C872 500 841 474 824 468C816 465 807 466 794 471C775 479 754 482 731 482C717 481 708 475 703 465C697 453 698 432 703 401C706 382 714 362 734 343C745 333 744 324 734 317C720 306 706 297 691 290C685 286 678 288 667 294C646 305 612 313 565 324C554 326 558 359 569 357C574 357 596 350 636 337C653 331 668 329 665 349C662 373 662 396 660 417C657 440 657 461 662 476C666 490 673 503 686 511C704 523 731 528 768 528C802 527 828 521 847 512Z"/>
<path id="z33902d11" d="M653 781C680 738 699 695 712 655C719 635 725 620 737 610C746 602 746 591 735 582C724 572 707 564 688 556C676 551 663 553 650 559C615 577 572 589 523 596C518 597 464 604 498 619C514 626 532 625 556 619C585 613 615 606 644 599C655 597 662 599 662 612C663 656 644 708 618 750C611 761 605 773 596 782C536 844 460 866 402 883C396 884 375 900 428 895C517 887 576 862 623 818C635 807 644 794 653 781Z"/>
<path id="z33902d12" d="M623 818C648 850 684 885 728 924C745 938 767 941 792 936C826 930 856 926 880 922C890 920 919 914 900 901C891 894 851 879 779 855C741 843 697 820 653 781C630 760 630 760 618 750C594 729 570 702 546 675C536 663 520 655 501 652C490 650 478 657 490 665C497 671 505 675 513 681C525 692 547 718 596 782C614 806 614 806 623 818Z"/>
<defs>
	<clipPath id="z33902c1"><use href="#z33902d1"/></clipPath>
	<clipPath id="z33902c2"><use href="#z33902d2"/></clipPath>
	<clipPath id="z33902c3"><use href="#z33902d3"/></clipPath>
	<clipPath id="z33902c4"><use href="#z33902d4"/></clipPath>
	<clipPath id="z33902c5"><use href="#z33902d5"/></clipPath>
	<clipPath id="z33902c6"><use href="#z33902d6"/></clipPath>
	<clipPath id="z33902c7"><use href="#z33902d7"/></clipPath>
	<clipPath id="z33902c8"><use href="#z33902d8"/></clipPath>
	<clipPath id="z33902c9"><use href="#z33902d9"/></clipPath>
	<clipPath id="z33902c10"><use href="#z33902d10"/></clipPath>
	<clipPath id="z33902c11"><use href="#z33902d11"/></clipPath>
	<clipPath id="z33902c12"><use href="#z33902d12"/></clipPath>
</defs>
<path style="--d:1s;" pathLength="3333" clip-path="url(#z33902c1)" d="M173 204L245 212L742 152L852 161"/>
<path style="--d:2s;" pathLength="3333" clip-path="url(#z33902c2)" d="M338 98L386 127L418 272"/>
<path style="--d:3s;" pathLength="3333" clip-path="url(#z33902c3)" d="M604 43L643 85L581 263"/>
<path style="--d:4s;" pathLength="3333" clip-path="url(#z33902c4)" d="M390 287L408 339L301 415"/>
<path style="--d:5s;" pathLength="3333" clip-path="url(#z33902c5)" d="M241 385L272 418L281 483L265 952"/>
<path style="--d:6s;" pathLength="3333" clip-path="url(#z33902c6)" d="M302 498L455 468"/>
<path style="--d:7s;" pathLength="3333" clip-path="url(#z33902c7)" d="M297 608L445 578"/>
<path style="--d:8s;" pathLength="3333" clip-path="url(#z33902c8)" d="M109 771L163 787L462 664"/>
<path style="--d:9s;" pathLength="3333" clip-path="url(#z33902c9)" d="M513 315L544 343L541 448L521 507L471 557"/>
<path style="--d:10s;" pathLength="3333" clip-path="url(#z33902c10)" d="M560 343L679 315L702 338L678 442L692 488L852 496"/>
<path style="--d:11s;" pathLength="3333" clip-path="url(#z33902c11)" d="M491 608L669 577L703 605L605 804L519 859L401 889"/>
<path style="--d:12s;" pathLength="3333" clip-path="url(#z33902c12)" d="M494 658L750 890L901 909"/>
</svg>