<!--
AnimCJK 2016-2026 Copyright FM-SH, https://github.com/parsimonhi/animCJK
Derived from:
    MakeMeAHanzi project - https://github.com/skishore/makemeahanzi
    Arphic PL KaitiM GB font
    Arphic PL KaitiM Big5 font
You can redistribute and/or modify this file under the terms of the Arphic Public License
as published by Arphic Technology Co., Ltd.
You should have received a copy of this license along with this file.
If not, see https://ftp.gnu.org/non-gnu/chinese-fonts-truetype/LICENSE.
-->
<svg id="z33903" class="acjk" viewBox="0 0 1024 1024" xmlns="http://www.w3.org/2000/svg">
<style>
<![CDATA[
@keyframes zk {
	to {
		stroke-dashoffset:0;
	}
}
svg.acjk path[clip-path] {
	--t:0.8s;
	animation:zk var(--t) linear forwards var(--d);
	stroke-dasharray:3337;
	stroke-dashoffset:3339;
	stroke-width:128;
	stroke-linecap:round;
	fill:none;
	stroke:#000;
}
svg.acjk path[id] {fill:#ccc;}
]]>
</style>
<path id="z33903d1" d="M635 186C649 185 781 177 823 180C866 182 859 158 843 145C793 105 709 130 653 139C615 145 615 145 596 148C541 156 483 164 421 171C388 174 388 174 372 176C317 181 240 190 181 197C164 198 160 205 173 214C200 230 239 239 288 229C312 223 356 215 381 211C409 208 409 208 423 206C474 197 557 190 588 189C619 187 619 187 635 186Z"/>
<path id="z33903d2" d="M421 171C419 151 417 136 418 122C418 109 411 102 400 98C371 87 352 81 340 87C328 91 327 102 338 114C353 133 364 153 372 176C378 199 378 199 381 211C392 246 398 265 408 273C415 280 422 279 425 272C427 263 425 246 423 206C422 183 422 183 421 171Z"/>
<path id="z33903d3" d="M653 139C658 126 664 112 676 98C683 88 685 80 680 74C671 62 655 52 635 40C615 28 590 36 600 56C607 70 606 103 596 148C591 175 591 175 588 189C578 229 570 248 571 261C571 268 577 271 587 264C594 258 613 236 635 186C647 155 647 155 653 139Z"/>
<path id="z33903d4" d="M277 533C260 533 257 528 264 518C312 454 354 398 396 352C405 342 409 335 408 330C407 321 396 306 373 285C357 269 329 265 336 290C345 315 319 374 261 465C247 486 229 507 204 525C192 533 185 541 187 549C188 561 194 572 203 584C208 591 217 594 225 589C246 577 283 565 335 557C345 555 364 533 354 533C303 533 303 533 277 533Z"/>
<path id="z33903d5" d="M411 632C377 639 340 651 302 664C292 669 290 666 297 657C322 623 365 572 424 505C440 483 456 466 472 454C480 448 481 442 479 437C472 425 460 414 441 401C431 396 424 393 418 395C412 397 409 402 410 411C412 437 394 477 354 533C341 549 341 549 335 557C278 633 242 674 228 681C221 686 218 692 219 700C220 708 227 718 244 729C249 736 257 736 265 728C305 697 356 671 420 648C426 646 417 631 411 632Z"/>
<path id="z33903d6" d="M420 648C426 663 436 672 447 676C456 678 462 675 468 666C471 659 471 649 468 636C462 618 443 602 410 587C407 584 403 586 400 593C398 597 402 610 411 632C417 643 417 643 420 648Z"/>
<path id="z33903d7" d="M173 836C186 862 198 890 209 922C214 933 221 941 230 944C237 946 243 945 249 939C256 932 261 919 263 899C266 885 260 867 245 846C206 805 180 783 171 783C166 783 163 788 160 797C160 804 164 817 173 836Z"/>
<path id="z33903d8" d="M303 812C319 847 333 867 342 871C348 871 353 869 357 864C363 858 366 847 366 830C366 816 348 798 312 775C304 771 299 769 297 769C293 769 290 773 289 780C289 786 294 797 303 812Z"/>
<path id="z33903d9" d="M389 754C405 785 421 806 437 817C444 821 451 819 458 814C461 808 464 800 464 791C462 768 443 746 404 727C396 723 389 722 384 722C381 722 380 726 379 732C378 738 382 745 389 754Z"/>
<path id="z33903d10" d="M589 497C624 458 693 364 717 329C734 306 707 286 690 273C652 247 632 252 637 280C639 296 641 313 637 326C612 399 571 463 502 554C486 576 489 592 521 566C534 556 553 539 575 514C584 503 584 503 589 497Z"/>
<path id="z33903d11" d="M575 514C588 526 607 531 624 527C680 513 721 506 746 503C790 494 787 533 787 568C785 676 781 720 771 775C760 837 740 865 699 854C674 847 653 839 632 833C617 828 614 834 626 847C656 879 687 910 710 932C725 947 737 970 782 913C824 861 835 787 840 606C841 567 847 533 862 509C871 495 873 487 868 481C858 470 844 461 823 452C808 446 785 452 748 464C678 488 624 495 589 497C582 497 569 510 575 514Z"/>
<path id="z33903d12" d="M549 662C567 682 587 705 606 729C614 738 623 744 632 744C640 745 645 741 649 733C654 724 654 711 651 691C647 668 614 642 551 616C540 613 534 611 530 613C526 615 524 620 524 628C526 635 534 646 549 662Z"/>
<defs>
	<clipPath id="z33903c1"><use href="#z33903d1"/></clipPath>
	<clipPath id="z33903c2"><use href="#z33903d2"/></clipPath>
	<clipPath id="z33903c3"><use href="#z33903d3"/></clipPath>
	<clipPath id="z33903c4"><use href="#z33903d4"/></clipPath>
	<clipPath id="z33903c5"><use href="#z33903d5"/></clipPath>
	<clipPath id="z33903c6"><use href="#z33903d6"/></clipPath>
	<clipPath id="z33903c7"><use href="#z33903d7"/></clipPath>
	<clipPath id="z33903c8"><use href="#z33903d8"/></clipPath>
	<clipPath id="z33903c9"><use href="#z33903d9"/></clipPath>
	<clipPath id="z33903c10"><use href="#z33903d10"/></clipPath>
	<clipPath id="z33903c11"><use href="#z33903d11"/></clipPath>
	<clipPath id="z33903c12"><use href="#z33903d12"/></clipPath>
</defs>
<path style="--d:1s;" pathLength="3333" clip-path="url(#z33903c1)" d="M173 204L245 212L742 152L852 161"/>
<path style="--d:2s;" pathLength="3333" clip-path="url(#z33903c2)" d="M338 98L386 127L418 272"/>
<path style="--d:3s;" pathLength="3333" clip-path="url(#z33903c3)" d="M604 43L643 85L581 263"/>
<path style="--d:4s;" pathLength="3333" clip-path="url(#z33903c4)" d="M343 276L369 333L227 542L245 561L351 539"/>
<path style="--d:5s;" pathLength="3333" clip-path="url(#z33903c5)" d="M417 403L439 449L260 672L279 699L417 639"/>
<path style="--d:6s;" pathLength="3333" clip-path="url(#z33903c6)" d="M407 595L447 673"/>
<path style="--d:7s;" pathLength="3333" clip-path="url(#z33903c7)" d="M169 789L227 878L233 940"/>
<path style="--d:8s;" pathLength="3333" clip-path="url(#z33903c8)" d="M298 775L354 864"/>
<path style="--d:9s;" pathLength="3333" clip-path="url(#z33903c9)" d="M387 728L450 814"/>
<path style="--d:10s;" pathLength="3333" clip-path="url(#z33903c10)" d="M645 265L680 310L670 339L500 573"/>
<path style="--d:11s;" pathLength="3333" clip-path="url(#z33903c11)" d="M580 509L776 479L826 502L801 772L772 865L714 899L626 837"/>
<path style="--d:12s;" pathLength="3333" clip-path="url(#z33903c12)" d="M531 620L616 691L635 739"/>
</svg>