<!--
AnimCJK 2016-2025 Copyright FM-SH - https://github.com/parsimonhi/animCJK
Derived from:
    MakeMeAHanzi project - https://github.com/skishore/makemeahanzi
    Arphic PL KaitiM GB font
    Arphic PL KaitiM Big5 font
You can redistribute and/or modify this file under the terms of the Arphic Public License
as published by Arphic Technology Co., Ltd.
You should have received a copy of this license along with this file.
If not, see https://ftp.gnu.org/non-gnu/chinese-fonts-truetype/LICENSE.
-->
<svg id="z34109" class="acjk" viewBox="0 0 1024 1024" xmlns="http://www.w3.org/2000/svg">
<style>
<![CDATA[
@keyframes zk {
	to {
		stroke-dashoffset:0;
	}
}
svg.acjk path[clip-path] {
	--t:0.8s;
	animation:zk var(--t) linear forwards var(--d);
	stroke-dasharray:3337;
	stroke-dashoffset:3339;
	stroke-width:128;
	stroke-linecap:round;
	fill:none;
	stroke:#000;
}
svg.acjk path[id] {fill:#ccc;}
]]>
</style>
<path id="z34109d1" d="M760 217C804 223 829 216 834 210C838 203 834 195 824 185C786 158 749 149 713 158C689 160 521 186 491 191C464 193 250 215 188 223C175 223 173 229 183 241C191 249 201 256 213 261C227 263 239 264 249 262C289 251 414 230 478 223C568 212 705 208 760 217Z"/>
<path id="z34109d2" d="M410 200Q404 166 402 139Q403 120 384 116Q344 101 326 108Q310 118 325 134Q355 167 367 205C373 227 373 227 376 238Q388 287 403 302Q416 311 420 300Q420 293 415 233C412 211 412 211 410 200Z"/>
<path id="z34109d3" d="M635 172Q636 169 638 166Q647 142 665 112Q680 97 669 87Q657 69 622 52Q606 42 589 51Q579 57 586 68Q596 95 579 180C572 206 572 206 569 219Q548 288 550 301Q551 314 568 304Q586 286 615 218C628 187 628 187 635 172Z"/>
<path id="z34109d4" d="M349 519C349 519 356 405 364 378C367 365 367 355 360 348C350 339 337 329 319 321C305 315 289 315 276 322C268 325 271 334 278 345C283 354 288 362 292 369C299 381 304 404 307 438C308 464 308 495 310 527C310 540 349 532 349 519Z"/>
<path id="z34109d5" d="M205 413Q195 434 147 499Q140 512 154 510Q190 486 210 470Q247 436 273 423Q289 413 280 400Q268 387 247 377Q228 367 217 370Q207 371 211 383Q215 396 205 413Z"/>
<path id="z34109d6" d="M415 422Q433 440 451 461Q461 473 475 473Q484 473 488 462Q492 450 487 426Q480 402 413 382Q400 378 395 380Q391 383 391 394Q394 404 415 422Z"/>
<path id="z34109d7" d="M189 550C187 547 184 545 181 544C162 535 148 530 137 532C128 533 125 540 130 548C156 600 154 677 137 778C129 821 122 850 145 880C151 887 153 891 160 887C180 871 191 831 193 769C195 665 197 602 199 580C199 576 199 576 199 574C199 565 194 557 189 550Z"/>
<path id="z34109d8" d="M349 547C391 539 418 538 431 543C437 545 445 552 447 567C456 659 454 742 450 816C449 830 444 840 436 842C429 843 407 838 372 828C365 826 361 826 362 831C362 835 368 840 376 847C398 866 417 887 434 907C442 917 452 922 463 921C471 919 478 904 491 879C504 851 511 825 509 798C503 733 500 671 496 611C494 588 497 566 508 548C513 537 514 528 506 520C495 510 479 503 455 494C441 488 431 489 420 496C406 503 350 518 349 519C323 524 323 524 310 527C255 538 215 545 189 550C180 551 190 574 199 574C207 574 218 572 231 570C259 563 286 558 310 554C336 549 336 549 349 547Z"/>
<path id="z34109d9" d="M346 568C322 552 276 549 299 580C311 596 300 747 298 850C297 870 300 887 306 900C310 907 314 909 321 905C329 896 339 863 340 806C340 687 347 625 353 604C359 586 357 576 346 568Z"/>
<path id="z34109d10" d="M237 633Q256 664 210 769Q206 773 213 773Q253 749 289 651Q290 647 292 644Q296 640 293 634Q290 628 280 624Q270 620 257 619Q244 619 238 623Q234 626 237 633Z"/>
<path id="z34109d11" d="M370 630Q388 699 406 708Q415 712 424 703Q430 694 429 678Q426 645 381 613Q375 609 371 617Q368 621 370 630Z"/>
<path id="z34109d12" d="M630 484C646 457 664 426 681 390C690 369 698 353 708 341C712 334 712 326 709 318C706 311 695 301 675 290C656 280 643 277 632 279C621 281 618 289 626 302C638 323 629 376 593 463C576 502 551 543 526 587C521 594 517 598 517 603C515 609 520 612 528 610C548 602 576 568 613 511C624 493 624 493 630 484Z"/>
<path id="z34109d13" d="M739 507C825 483 868 469 869 469C873 463 874 457 872 452C867 443 854 438 834 435C815 432 782 442 733 459C701 469 666 476 630 484C620 486 603 507 613 511C637 521 665 527 695 519C724 511 724 511 739 507Z"/>
<path id="z34109d14" d="M712 729C737 692 753 598 758 567C760 546 769 539 768 528C766 517 757 513 739 507C725 501 693 504 695 519C705 577 707 639 678 692C665 716 665 716 658 728C637 764 590 795 527 828C512 835 514 839 532 840C568 841 615 823 672 782C676 778 681 773 686 767C703 742 703 742 712 729Z"/>
<path id="z34109d15" d="M686 767C708 798 738 834 779 875C794 890 816 893 841 890C873 885 902 882 927 880C935 879 942 878 949 874C954 870 953 864 947 860C938 853 900 845 832 818C804 806 757 778 712 729C689 704 689 704 678 692C659 672 641 648 623 626C612 613 599 604 582 601C575 599 568 600 564 604C560 607 562 611 567 616C571 619 574 623 578 626C593 634 616 670 658 728C677 754 677 754 686 767Z"/>
<defs>
	<clipPath id="z34109c1"><use href="#z34109d1"/></clipPath>
	<clipPath id="z34109c2"><use href="#z34109d2"/></clipPath>
	<clipPath id="z34109c3"><use href="#z34109d3"/></clipPath>
	<clipPath id="z34109c4"><use href="#z34109d4"/></clipPath>
	<clipPath id="z34109c5"><use href="#z34109d5"/></clipPath>
	<clipPath id="z34109c6"><use href="#z34109d6"/></clipPath>
	<clipPath id="z34109c7"><use href="#z34109d7"/></clipPath>
	<clipPath id="z34109c8"><use href="#z34109d8"/></clipPath>
	<clipPath id="z34109c9"><use href="#z34109d9"/></clipPath>
	<clipPath id="z34109c10"><use href="#z34109d10"/></clipPath>
	<clipPath id="z34109c11"><use href="#z34109d11"/></clipPath>
	<clipPath id="z34109c12"><use href="#z34109d12"/></clipPath>
	<clipPath id="z34109c13"><use href="#z34109d13"/></clipPath>
	<clipPath id="z34109c14"><use href="#z34109d14"/></clipPath>
	<clipPath id="z34109c15"><use href="#z34109d15"/></clipPath>
</defs>
<path style="--d:1s;" pathLength="3333" clip-path="url(#z34109c1)" d="M184 230L238 240L735 185L831 201"/>
<path style="--d:2s;" pathLength="3333" clip-path="url(#z34109c2)" d="M323 120L377 150L411 300"/>
<path style="--d:3s;" pathLength="3333" clip-path="url(#z34109c3)" d="M591 54L630 105L560 303"/>
<path style="--d:4s;" pathLength="3333" clip-path="url(#z34109c4)" d="M279 327L331 371L330 522"/>
<path style="--d:5s;" pathLength="3333" clip-path="url(#z34109c5)" d="M217 380L241 417L153 502"/>
<path style="--d:6s;" pathLength="3333" clip-path="url(#z34109c6)" d="M398 387L456 426L475 467"/>
<path style="--d:7s;" pathLength="3333" clip-path="url(#z34109c7)" d="M134 540L172 601L155 885"/>
<path style="--d:8s;" pathLength="3333" clip-path="url(#z34109c8)" d="M198 553L432 516L477 540L476 841L445 881L370 834"/>
<path style="--d:9s;" pathLength="3333" clip-path="url(#z34109c9)" d="M306 568L335 597L316 901"/>
<path style="--d:10s;" pathLength="3333" clip-path="url(#z34109c10)" d="M243 629L267 656L217 766"/>
<path style="--d:11s;" pathLength="3333" clip-path="url(#z34109c11)" d="M378 618L415 702"/>
<path style="--d:12s;" pathLength="3333" clip-path="url(#z34109c12)" d="M628 285L670 334L613 470L525 603"/>
<path style="--d:13s;" pathLength="3333" clip-path="url(#z34109c13)" d="M621 508L868 459"/>
<path style="--d:14s;" pathLength="3333" clip-path="url(#z34109c14)" d="M701 524L735 549L692 716L639 780L527 833"/>
<path style="--d:15s;" pathLength="3333" clip-path="url(#z34109c15)" d="M570 607L793 834L947 866"/>
</svg>