<!--
AnimCJK 2016-2018 Copyright Francois Mizessyn, https://github.com/parsimonhi/animCJK
Derived from:
    MakeMeAHanzi project - https://github.com/skishore/makemeahanzi
    Arphic PL KaitiM GB - https://apps.ubuntu.com/cat/applications/precise/fonts-arphic-gkai00mp/
    Arphic PL UKai - https://apps.ubuntu.com/cat/applications/fonts-arphic-ukai/
You can redistribute and/or modify this file under the terms of the Arphic Public License
as published by Arphic Technology Co., Ltd.
You should have received a copy of this license (the directory "APL") along with this file;
if not, see http://ftp.gnu.org/non-gnu/chinese-fonts-truetype/LICENSE.
-->
<svg id="z34224" class="acjk" version="1.1" viewBox="0 0 1024 1024" xmlns="http://www.w3.org/2000/svg" xmlns:xlink="http://www.w3.org/1999/xlink">
<style>
<![CDATA[
@keyframes z34224k {
	from {
		stroke:#c00;
		stroke-dashoffset:3334;
	}
	75% {
		stroke:#c00;
		stroke-dashoffset:0;
	}
	to {
		stroke:#000;
	}
}
#z34224 path[clip-path] {
	animation:z34224k 1s linear both;
	stroke-dasharray:3334;
	stroke-width:128;
	stroke-linecap:round;
	fill:none;
}
#z34224 path[clip-path="url(#z34224c1)"] {animation-delay:1s;}
#z34224 path[clip-path="url(#z34224c2)"] {animation-delay:2s;}
#z34224 path[clip-path="url(#z34224c3)"] {animation-delay:3s;}
#z34224 path[clip-path="url(#z34224c4)"] {animation-delay:4s;}
#z34224 path[clip-path="url(#z34224c5)"] {animation-delay:5s;}
#z34224 path[clip-path="url(#z34224c6)"] {animation-delay:6s;}
#z34224 path[clip-path="url(#z34224c7)"] {animation-delay:7s;}
#z34224 path[clip-path="url(#z34224c8)"] {animation-delay:8s;}
#z34224 path[clip-path="url(#z34224c9)"] {animation-delay:9s;}
#z34224 path[clip-path="url(#z34224c10)"] {animation-delay:10s;}
#z34224 path[clip-path="url(#z34224c11)"] {animation-delay:11s;}
#z34224 path[clip-path="url(#z34224c12)"] {animation-delay:12s;}
#z34224 path[clip-path="url(#z34224c13)"] {animation-delay:13s;}
#z34224 path[clip-path="url(#z34224c14)"] {animation-delay:14s;}
#z34224 path[clip-path="url(#z34224c15)"] {animation-delay:15s;}
#z34224 path[clip-path="url(#z34224c16)"] {animation-delay:16s;}
#z34224 path[clip-path="url(#z34224c17)"] {animation-delay:17s;}
#z34224 path {fill:#ccc;}
]]>
</style>
<path id="z34224d1" d="M646 171Q655 162 779 168Q803 168 807 162Q811 152 799 137Q750 98 673 119L618 128Q534 140 440 154L397 160Q324 167 246 176Q218 179 238 193Q277 220 355 203Q379 197 406 193L443 187Q473 177 609 172L646 171 Z"/>
<path id="z34224d2" d="M440 154Q437 124 436 102Q437 84 419 80Q383 62 364 71Q348 78 362 96Q386 121 396 154Q396 157 397 160L406 193Q410 220 428 238Q440 247 444 236Q450 211 443 187L440 154 Z"/>
<path id="z34224d3" d="M673 119Q679 109 689 94Q702 81 694 72Q684 56 653 40Q640 30 623 38Q613 42 620 53Q627 71 618 128L609 172Q603 191 603 206Q604 219 618 209Q631 199 646 171L673 119 Z"/>
<path id="z34224d4" d="M512 282Q545 267 607 265Q622 266 626 260Q630 253 622 241Q577 196 549 196Q542 197 540 207Q534 243 330 298Q324 305 329 308Q341 309 472 291L512 282 Z"/>
<path id="z34224d5" d="M538 361Q640 349 843 349Q862 348 867 340Q873 328 856 314Q805 277 766 285Q679 304 541 326L489 334Q336 355 160 378Q139 379 155 397Q168 410 187 416Q209 420 224 417Q330 386 449 372Q468 368 491 366L538 361 Z"/>
<path id="z34224d6" d="M290 439Q286 438 274 439Q264 438 261 443Q257 450 266 463Q299 506 328 581Q335 603 352 616Q371 632 373 618L372 593Q369 581 364 567Q340 500 331 472L290 439 Z"/>
<path id="z34224d7" d="M664 583Q668 596 679 596Q698 593 728 536Q746 488 781 463Q800 450 785 434Q769 418 725 391Q710 382 646 394Q625 395 536 407L491 413Q460 416 433 422Q348 435 296 439Q293 438 290 439L331 472Q335 472 341 471Q393 455 491 444L536 438Q671 417 695 431Q702 435 697 457Q691 476 665 557L664 583 Z"/>
<path id="z34224d8" d="M390 510Q426 553 445 555Q455 555 460 541Q461 531 453 515Q440 496 394 489Q387 488 386 496Q385 503 390 510 Z"/>
<path id="z34224d9" d="M589 481Q579 499 556 526Q552 532 555 536Q559 537 566 535Q617 508 641 499Q654 496 651 488Q647 476 634 463Q621 450 605 447Q595 446 595 460Q596 470 589 481 Z"/>
<path id="z34224d10" d="M532 599Q602 589 664 583L665 557Q644 542 532 568L490 575Q429 584 372 593L373 618Q383 619 399 617Q445 610 490 604L532 599 Z"/>
<path id="z34224d11" d="M529 711Q529 692 530 675L530 637Q530 618 532 599L532 568Q533 499 536 438L536 407Q537 380 538 361L541 326Q545 310 538 302Q525 290 512 282L472 291Q487 321 489 334L491 366Q491 376 491 413L491 444Q491 493 490 575L490 604Q489 623 489 644L488 679Q488 697 488 717L529 711 Z"/>
<path id="z34224d12" d="M530 675Q591 666 645 662Q667 661 660 647Q651 634 628 627Q592 620 530 637L489 644Q420 654 360 664Q344 667 362 682Q375 692 404 689Q447 683 488 679L530 675 Z"/>
<path id="z34224d13" d="M488 717Q400 726 298 738Q282 739 294 754Q304 764 320 770Q336 774 350 771Q458 744 717 743Q733 743 738 737Q742 727 729 715Q683 681 620 695Q581 701 529 711L488 717 Z"/>
<path id="z34224d14" d="M243 787Q218 835 185 876Q161 907 178 942Q184 961 206 950Q260 914 264 847Q271 814 266 789Q262 780 256 779Q247 779 243 787 Z"/>
<path id="z34224d15" d="M371 844Q387 869 403 898Q412 911 425 915Q434 916 441 907Q448 895 448 869Q448 851 426 833Q377 797 360 797Q356 800 354 811Q354 821 371 844 Z"/>
<path id="z34224d16" d="M556 840Q575 862 596 888Q606 901 621 902Q631 903 637 891Q643 878 638 850Q631 823 556 796Q543 792 536 793Q532 796 531 808Q534 818 556 840 Z"/>
<path id="z34224d17" d="M721 808Q772 856 833 925Q849 946 864 950Q873 951 881 941Q894 928 882 883Q869 828 723 776Q713 770 711 783Q710 796 721 808 Z"/>
<defs>
	<clipPath id="z34224c1"><use xlink:href="#z34224d1"/></clipPath>
	<clipPath id="z34224c2"><use xlink:href="#z34224d2"/></clipPath>
	<clipPath id="z34224c3"><use xlink:href="#z34224d3"/></clipPath>
	<clipPath id="z34224c4"><use xlink:href="#z34224d4"/></clipPath>
	<clipPath id="z34224c5"><use xlink:href="#z34224d5"/></clipPath>
	<clipPath id="z34224c6"><use xlink:href="#z34224d6"/></clipPath>
	<clipPath id="z34224c7"><use xlink:href="#z34224d7"/></clipPath>
	<clipPath id="z34224c8"><use xlink:href="#z34224d8"/></clipPath>
	<clipPath id="z34224c9"><use xlink:href="#z34224d9"/></clipPath>
	<clipPath id="z34224c10"><use xlink:href="#z34224d10"/></clipPath>
	<clipPath id="z34224c11"><use xlink:href="#z34224d11"/></clipPath>
	<clipPath id="z34224c12"><use xlink:href="#z34224d12"/></clipPath>
	<clipPath id="z34224c13"><use xlink:href="#z34224d13"/></clipPath>
	<clipPath id="z34224c14"><use xlink:href="#z34224d14"/></clipPath>
	<clipPath id="z34224c15"><use xlink:href="#z34224d15"/></clipPath>
	<clipPath id="z34224c16"><use xlink:href="#z34224d16"/></clipPath>
	<clipPath id="z34224c17"><use xlink:href="#z34224d17"/></clipPath>
</defs>
<path pathLength="3333" clip-path="url(#z34224c1)" d="M239 183L707 139L802 152"/>
<path pathLength="3333" clip-path="url(#z34224c2)" d="M362 80L408 107L436 235"/>
<path pathLength="3333" clip-path="url(#z34224c3)" d="M624 42L660 84L610 205"/>
<path pathLength="3333" clip-path="url(#z34224c4)" d="M618 254L556 232L491 267L334 301"/>
<path pathLength="3333" clip-path="url(#z34224c5)" d="M156 386L226 393L777 316L864 332"/>
<path pathLength="3333" clip-path="url(#z34224c6)" d="M267 445L311 488L366 617"/>
<path pathLength="3333" clip-path="url(#z34224c7)" d="M304 443L709 411L744 452L681 591"/>
<path pathLength="3333" clip-path="url(#z34224c8)" d="M394 498L455 544"/>
<path pathLength="3333" clip-path="url(#z34224c9)" d="M604 454L616 493L560 529"/>
<path pathLength="3333" clip-path="url(#z34224c10)" d="M381 610L663 569"/>
<path pathLength="3333" clip-path="url(#z34224c11)" d="M479 293L515 324L501 714"/>
<path pathLength="3333" clip-path="url(#z34224c12)" d="M362 670L653 648"/>
<path pathLength="3333" clip-path="url(#z34224c13)" d="M296 745L656 717L733 729"/>
<path pathLength="3333" clip-path="url(#z34224c14)" d="M257 784L180 942"/>
<path pathLength="3333" clip-path="url(#z34224c15)" d="M363 802L430 909"/>
<path pathLength="3333" clip-path="url(#z34224c16)" d="M540 802L607 855L627 898"/>
<path pathLength="3333" clip-path="url(#z34224c17)" d="M717 779L838 876L866 946"/>
</svg>