<!--
AnimCJK 2016-2019 Copyright Francois Mizessyn - https://github.com/parsimonhi/animCJK
Derived from:
    MakeMeAHanzi project - https://github.com/skishore/makemeahanzi
    Arphic PL KaitiM GB font
    Arphic PL UKai font
You can redistribute and/or modify this file under the terms of the Arphic Public License
as published by Arphic Technology Co., Ltd.
You should have received a copy of this license along with this file.
If not, see http://ftp.gnu.org/non-gnu/chinese-fonts-truetype/LICENSE.
-->
<svg id="z34269" class="acjk" version="1.1" viewBox="0 0 1024 1024" xmlns="http://www.w3.org/2000/svg" xmlns:xlink="http://www.w3.org/1999/xlink">
<style>
<![CDATA[
@keyframes zk {
	to {
		stroke-dashoffset:0;
	}
}
svg.acjk path[clip-path] {
	--t:0.8s;
	animation:zk var(--t) linear forwards var(--d);
	stroke-dasharray:3337;
	stroke-dashoffset:3339;
	stroke-width:128;
	stroke-linecap:round;
	fill:none;
	stroke:#000;
}
svg.acjk path[id] {fill:#ccc;}
]]>
</style>
<path id="z34269d1" d="M625 215C659 213 760 205 842 211C852 211 860 209 863 203C866 195 863 185 854 178C816 147 753 149 648 170C645 170 650 169 648 170C611 175 611 175 593 178C533 186 490 193 426 200C394 203 394 203 378 205C324 210 248 215 192 222C171 224 166 230 182 241C208 257 247 261 287 255C308 251 369 241 386 239C415 235 415 235 429 233C447 230 560 217 580 217C610 216 610 216 625 215Z"/>
<path id="z34269d2" d="M426 200C423 178 419 150 419 139C417 124 412 118 399 112C369 99 351 93 335 101C321 106 319 117 332 131C350 152 370 169 378 205C380 217 386 239 386 239C391 263 403 313 414 322C422 329 427 328 431 320C433 311 433 265 429 233C426 212 427 210 426 200Z"/>
<path id="z34269d3" d="M648 170C657 151 667 134 685 110C693 97 704 93 700 81C694 64 657 47 643 43C627 38 618 37 606 44C599 47 599 51 604 62C613 83 611 117 593 176C584 203 584 203 580 217C575 230 568 271 570 288C570 298 574 299 586 291C596 283 618 228 625 215C640 185 640 185 648 170Z"/>
<path id="z34269d4" d="M367 397C386 392 407 386 432 381C450 376 461 372 464 369C467 364 469 360 467 357C463 350 453 345 439 343C423 340 401 348 372 358C342 368 342 368 327 373C301 381 273 384 245 388C226 390 223 396 238 405C258 417 279 416 306 412C306 412 328 406 329 406C341 404 367 397 367 397Z"/>
<path id="z34269d5" d="M362 434C362 419 365 409 367 397C370 371 370 371 372 358C374 339 378 334 383 322C384 317 381 309 371 303C355 293 340 288 329 286C322 284 316 284 312 289C307 292 307 298 312 306C318 316 324 331 327 373C328 395 328 395 329 406C329 418 329 442 329 442C329 453 362 445 362 434Z"/>
<path id="z34269d6" d="M242 499C289 482 365 463 472 444C480 442 485 439 486 436C486 429 481 422 472 418C453 409 418 420 362 434C340 439 340 439 329 442C226 466 150 484 98 492C91 492 87 495 86 500C84 506 86 512 96 518C117 530 142 532 169 524C184 518 199 513 216 508C233 502 233 502 242 499Z"/>
<path id="z34269d7" d="M216 508C216 540 191 581 143 633C142 633 141 635 141 638C140 640 142 642 145 642C183 628 216 599 246 557C251 548 257 543 260 540C263 535 263 529 260 524C254 513 248 505 242 499C236 493 216 499 216 508Z"/>
<path id="z34269d8" d="M434 451C421 453 408 455 396 458C396 458 396 458 397 459C403 471 405 499 413 519C420 539 452 542 468 540C490 536 511 529 516 524C520 519 519 499 501 499C483 498 468 511 450 504C436 498 435 473 434 451Z"/>
<path id="z34269d9" d="M363 592C407 581 430 573 432 572C436 568 436 564 434 560C431 555 423 550 409 548C394 545 380 548 367 554C366 554 366 554 366 555C337 565 337 565 322 570C302 576 281 578 260 582C243 584 240 591 253 598C273 609 296 608 322 602C349 595 349 595 363 592Z"/>
<path id="z34269d10" d="M359 635C359 616 361 608 363 592C365 567 365 567 366 555C366 550 367 545 368 540C371 519 372 518 369 515C356 502 345 492 334 487C327 484 321 485 317 487C312 489 309 492 312 498C317 511 322 528 322 570C322 591 322 591 322 602C322 616 322 646 322 646C322 659 359 648 359 635Z"/>
<path id="z34269d11" d="M322 646C289 654 256 663 223 673C213 675 200 676 185 676C178 676 174 679 174 685C173 691 175 697 179 701C189 709 203 717 220 727C224 729 230 727 236 723C244 717 298 691 398 646C410 641 421 635 430 628C436 625 440 621 440 616C437 613 433 612 427 614C405 620 382 627 359 635C334 642 334 642 322 646Z"/>
<path id="z34269d12" d="M616 509C626 483 634 455 642 397C644 376 644 376 645 365C645 363 646 353 649 340C653 329 649 321 639 316C615 303 605 303 598 304C588 304 586 311 594 323C600 333 599 342 600 378C598 401 598 401 597 413C593 455 587 471 581 490C574 509 574 509 571 518C569 520 567 524 566 530C552 560 528 579 495 608C487 614 482 619 481 622C480 626 482 628 488 628C508 628 532 613 562 584C576 569 589 563 599 546C610 521 610 521 616 509Z"/>
<path id="z34269d13" d="M642 397C686 379 710 371 716 375C720 377 722 384 720 394C682 600 744 679 908 679C918 678 926 677 932 675C944 669 947 657 941 640C929 614 918 585 910 555C907 538 904 527 900 523C895 520 892 523 890 532C881 578 872 607 864 618C854 622 843 622 833 618C814 612 797 601 781 586C757 560 746 530 748 478C750 427 765 403 793 377C801 370 804 364 800 358C795 351 778 341 748 329C739 325 731 326 723 332C706 342 680 353 645 365C615 374 615 374 600 378C564 388 531 394 503 396C495 396 493 401 497 409C499 415 507 421 520 425C532 429 545 430 559 426C571 421 583 417 597 413C627 402 627 402 642 397Z"/>
<path id="z34269d14" d="M599 546C629 576 646 592 650 594C654 594 657 592 660 588C664 583 664 571 660 553C654 537 639 522 616 509C593 496 593 496 581 490C564 481 551 475 541 471C537 469 534 470 534 476C533 480 545 494 571 518C590 537 590 537 599 546Z"/>
<path id="z34269d15" d="M422 674C403 678 400 684 414 692C436 704 466 705 505 696C531 690 558 684 586 679C600 676 609 673 611 671C615 666 617 661 615 657C610 651 600 646 585 643C573 641 540 648 486 664C466 668 444 672 422 674Z"/>
<path id="z34269d16" d="M455 769C489 764 583 744 748 744C760 744 768 741 772 736C775 729 771 721 761 714C729 693 703 686 684 691C609 709 462 736 242 771C230 772 228 777 238 787C246 795 255 800 266 803C277 805 288 805 298 802C334 789 375 780 420 774C443 771 443 771 455 769Z"/>
<path id="z34269d17" d="M621 849C539 861 454 883 371 896C364 897 356 898 355 897C354 896 362 887 366 885C422 845 461 826 481 817C491 811 495 804 492 797C488 788 477 780 459 770C458 769 457 769 455 769C444 765 422 762 420 774C419 776 419 778 419 781C416 819 348 856 312 873C272 891 254 898 249 910C245 917 250 928 254 940C258 954 265 964 274 969C278 971 285 972 293 969C362 937 470 907 634 867C641 866 628 848 621 849Z"/>
<path id="z34269d18" d="M634 867C690 941 712 968 714 970C720 972 725 970 731 964C741 956 743 937 739 908C736 869 692 832 594 778C589 773 585 775 582 783C581 791 583 800 589 808C599 820 609 834 621 849C630 861 630 861 634 867Z"/>
<defs>
	<clipPath id="z34269c1"><use xlink:href="#z34269d1"/></clipPath>
	<clipPath id="z34269c2"><use xlink:href="#z34269d2"/></clipPath>
	<clipPath id="z34269c3"><use xlink:href="#z34269d3"/></clipPath>
	<clipPath id="z34269c4"><use xlink:href="#z34269d4"/></clipPath>
	<clipPath id="z34269c5"><use xlink:href="#z34269d5"/></clipPath>
	<clipPath id="z34269c6"><use xlink:href="#z34269d6"/></clipPath>
	<clipPath id="z34269c7"><use xlink:href="#z34269d7"/></clipPath>
	<clipPath id="z34269c8"><use xlink:href="#z34269d8"/></clipPath>
	<clipPath id="z34269c9"><use xlink:href="#z34269d9"/></clipPath>
	<clipPath id="z34269c10"><use xlink:href="#z34269d10"/></clipPath>
	<clipPath id="z34269c11"><use xlink:href="#z34269d11"/></clipPath>
	<clipPath id="z34269c12"><use xlink:href="#z34269d12"/></clipPath>
	<clipPath id="z34269c13"><use xlink:href="#z34269d13"/></clipPath>
	<clipPath id="z34269c14"><use xlink:href="#z34269d14"/></clipPath>
	<clipPath id="z34269c15"><use xlink:href="#z34269d15"/></clipPath>
	<clipPath id="z34269c16"><use xlink:href="#z34269d16"/></clipPath>
	<clipPath id="z34269c17"><use xlink:href="#z34269d17"/></clipPath>
	<clipPath id="z34269c18"><use xlink:href="#z34269d18"/></clipPath>
</defs>
<path style="--d:1s;" pathLength="3333" clip-path="url(#z34269c1)" d="M186 233L750 180L860 196"/>
<path style="--d:2s;" pathLength="3333" clip-path="url(#z34269c2)" d="M328 110L386 144L422 321"/>
<path style="--d:3s;" pathLength="3333" clip-path="url(#z34269c3)" d="M611 46L656 95L582 288"/>
<path style="--d:4s;" pathLength="3333" clip-path="url(#z34269c4)" d="M239 396L458 363"/>
<path style="--d:5s;" pathLength="3333" clip-path="url(#z34269c5)" d="M318 291L352 328L338 437"/>
<path style="--d:6s;" pathLength="3333" clip-path="url(#z34269c6)" d="M88 502L164 503L478 431"/>
<path style="--d:7s;" pathLength="3333" clip-path="url(#z34269c7)" d="M235 505L217 566L149 635"/>
<path style="--d:8s;" pathLength="3333" clip-path="url(#z34269c8)" d="M411 464L434 526L509 516"/>
<path style="--d:9s;" pathLength="3333" clip-path="url(#z34269c9)" d="M254 589L429 564"/>
<path style="--d:10s;" pathLength="3333" clip-path="url(#z34269c10)" d="M322 495L345 531L333 642"/>
<path style="--d:11s;" pathLength="3333" clip-path="url(#z34269c11)" d="M178 686L232 698L431 620"/>
<path style="--d:12s;" pathLength="3333" clip-path="url(#z34269c12)" d="M597 309L622 337L603 484L559 563L487 622"/>
<path style="--d:13s;" pathLength="3333" clip-path="url(#z34269c13)" d="M505 404L562 406L734 353L761 376L736 430L730 520L766 602L839 648L892 647L909 630L897 532"/>
<path style="--d:14s;" pathLength="3333" clip-path="url(#z34269c14)" d="M542 478L655 585"/>
<path style="--d:15s;" pathLength="3333" clip-path="url(#z34269c15)" d="M416 683L611 661"/>
<path style="--d:16s;" pathLength="3333" clip-path="url(#z34269c16)" d="M245 781L685 717L768 727"/>
<path style="--d:17s;" pathLength="3333" clip-path="url(#z34269c17)" d="M453 776L458 801L289 907L306 936L626 861"/>
<path style="--d:18s;" pathLength="3333" clip-path="url(#z34269c18)" d="M590 787L697 894L730 963"/>
</svg>