<!--
AnimCJK 2016-2018 Copyright Francois Mizessyn, https://github.com/parsimonhi/animCJK
Derived from:
    MakeMeAHanzi project - https://github.com/skishore/makemeahanzi
    Arphic PL KaitiM GB - https://apps.ubuntu.com/cat/applications/precise/fonts-arphic-gkai00mp/
    Arphic PL UKai - https://apps.ubuntu.com/cat/applications/fonts-arphic-ukai/
You can redistribute and/or modify this file under the terms of the Arphic Public License
as published by Arphic Technology Co., Ltd.
You should have received a copy of this license (the directory "APL") along with this file;
if not, see http://ftp.gnu.org/non-gnu/chinese-fonts-truetype/LICENSE.
-->
<svg id="z34277" class="acjk" version="1.1" viewBox="0 0 1024 1024" xmlns="http://www.w3.org/2000/svg" xmlns:xlink="http://www.w3.org/1999/xlink">
<style>
<![CDATA[
@keyframes z34277k {
	from {
		stroke:#c00;
		stroke-dashoffset:3334;
	}
	75% {
		stroke:#c00;
		stroke-dashoffset:0;
	}
	to {
		stroke:#000;
	}
}
#z34277 path[clip-path] {
	animation:z34277k 1s linear both;
	stroke-dasharray:3334;
	stroke-width:128;
	stroke-linecap:round;
	fill:none;
}
#z34277 path[clip-path="url(#z34277c1)"] {animation-delay:1s;}
#z34277 path[clip-path="url(#z34277c2)"] {animation-delay:2s;}
#z34277 path[clip-path="url(#z34277c3)"] {animation-delay:3s;}
#z34277 path[clip-path="url(#z34277c4)"] {animation-delay:4s;}
#z34277 path[clip-path="url(#z34277c5)"] {animation-delay:5s;}
#z34277 path[clip-path="url(#z34277c6)"] {animation-delay:6s;}
#z34277 path[clip-path="url(#z34277c7)"] {animation-delay:7s;}
#z34277 path[clip-path="url(#z34277c8)"] {animation-delay:8s;}
#z34277 path[clip-path="url(#z34277c9)"] {animation-delay:9s;}
#z34277 path[clip-path="url(#z34277c10)"] {animation-delay:10s;}
#z34277 path[clip-path="url(#z34277c11)"] {animation-delay:11s;}
#z34277 path[clip-path="url(#z34277c12)"] {animation-delay:12s;}
#z34277 path[clip-path="url(#z34277c13)"] {animation-delay:13s;}
#z34277 path[clip-path="url(#z34277c14)"] {animation-delay:14s;}
#z34277 path[clip-path="url(#z34277c15)"] {animation-delay:15s;}
#z34277 path[clip-path="url(#z34277c16)"] {animation-delay:16s;}
#z34277 path[clip-path="url(#z34277c17)"] {animation-delay:17s;}
#z34277 path[clip-path="url(#z34277c18)"] {animation-delay:18s;}
#z34277 path {fill:#ccc;}
]]>
</style>
<path id="z34277d1" d="M638 173C647 172 714 164 810 171C818 171 825 169 828 164C831 157 829 148 821 141C790 113 768 99 711 114C701 116 674 120 660 123L601 133C543 142 491 148 426 156L381 161C334 166 265 171 213 177C196 178 193 187 205 196C231 211 261 218 308 210C327 206 367 199 389 196L429 190C445 187 492 179 591 175 Z"/>
<path id="z34277d2" d="M426 158C425 141 422 133 422 120C423 109 417 104 405 99C380 90 362 83 348 88C337 93 337 101 347 112C362 129 376 139 381 161L388 193C394 224 403 237 413 245C420 250 426 251 429 244C431 238 430 223 428 189 Z"/>
<path id="z34277d3" d="M659 123C664 112 667 109 678 98C686 89 688 83 682 77C674 67 660 58 637 47C626 41 616 41 605 47C598 50 598 53 603 61C609 72 611 92 601 134L592 172C584 200 584 214 586 224C586 231 592 233 602 226C612 219 621 204 639 169 Z"/>
<path id="z34277d4" d="M469 319Q515 262 539 239Q551 232 546 226Q539 216 522 207Q506 198 490 201Q480 204 484 217Q491 232 453 319Q452 319 452 320L469 319 Z"/>
<path id="z34277d5" d="M452 320Q449 319 448 318Q430 305 418 309Q414 313 417 321Q439 403 422 485Q413 527 438 552Q445 561 452 553Q458 544 460 534L462 506Q462 473 462 441L463 414Q464 356 465 351Q465 345 465 342L452 320 Z"/>
<path id="z34277d6" d="M543 525Q550 535 556 544Q566 562 573 560Q577 559 585 544Q588 538 592 454Q592 349 603 331Q610 318 605 310Q599 303 563 292Q545 286 533 293Q499 309 469 319L452 320L465 342Q492 333 519 325Q540 318 548 325Q563 335 554 482Q557 500 543 497L543 525 Z"/>
<path id="z34277d7" d="M462 441Q502 435 532 428Q548 424 541 414Q532 404 512 402Q493 402 463 414L462 441 Z"/>
<path id="z34277d8" d="M460 534Q464 534 470 533Q492 529 543 525L543 497Q542 496 540 495Q528 489 462 506L460 534 Z"/>
<path id="z34277d9" d="M322 412Q285 413 255 418Q236 421 245 408Q282 348 317 304Q327 291 326 286Q325 276 295 253Q283 243 270 246Q263 249 267 260Q279 297 216 399Q207 406 198 417Q185 429 187 437Q191 450 202 464Q209 471 219 465Q246 447 310 431L322 412 Z"/>
<path id="z34277d10" d="M354 522Q314 531 271 546Q255 553 265 538Q361 409 401 377Q411 370 406 362Q399 347 373 332Q360 325 353 327Q346 330 347 342Q348 360 322 412L310 431Q235 543 206 559Q196 566 198 577Q199 587 219 602Q228 611 239 601Q293 561 359 536L354 522 Z"/>
<path id="z34277d11" d="M359 536Q365 558 379 565Q386 569 396 559Q400 552 400 536Q399 523 385 510Q366 488 357 481Q351 477 347 484Q344 488 354 522L359 536 Z"/>
<path id="z34277d12" d="M748 354Q717 353 689 354Q664 355 677 339Q710 287 742 248Q752 235 750 230Q749 220 719 197Q707 188 694 191Q685 192 690 204Q700 229 658 314Q649 332 630 349Q617 359 618 369Q622 382 632 395Q636 399 660 392Q690 377 739 371L748 354 Z"/>
<path id="z34277d13" d="M770 483Q736 486 699 493Q671 502 690 480Q715 447 777 381Q801 353 820 338Q830 331 826 323Q819 307 793 292Q781 285 774 286Q767 289 767 301Q767 307 748 354L739 371Q658 486 629 498Q617 504 619 515Q620 525 639 542Q646 552 659 543Q722 510 780 500L770 483 Z"/>
<path id="z34277d14" d="M780 500Q802 542 814 544Q820 545 826 539Q832 532 832 511Q833 495 815 477Q770 443 760 442Q756 443 755 452Q755 459 767 477Q768 478 770 483L780 500 Z"/>
<path id="z34277d15" d="M546 661Q618 655 866 654Q885 655 890 646Q896 636 880 621Q826 582 767 596Q676 611 536 631L482 637Q329 653 152 671Q133 672 147 689Q160 702 177 708Q198 714 213 710Q319 682 438 671L546 661 Z"/>
<path id="z34277d16" d="M536 631Q537 621 539 615Q540 602 534 597Q512 578 493 568Q481 564 472 572Q466 575 474 585Q481 598 482 637L482 701Q482 827 469 874Q459 914 501 972Q505 979 512 982Q522 983 528 971Q540 940 536 910Q535 838 534 686L536 631 Z"/>
<path id="z34277d17" d="M438 671Q371 785 116 890Q97 899 112 903Q139 915 238 880Q304 852 382 795Q428 761 459 726Q472 710 482 701L482 667L438 671 Z"/>
<path id="z34277d18" d="M534 686Q621 785 714 875Q739 900 780 900Q855 903 932 886Q953 883 954 878Q955 871 940 865Q744 799 669 753Q632 729 597 702Q566 675 546 661L534 663L534 686 Z"/>
<defs>
	<clipPath id="z34277c1"><use xlink:href="#z34277d1"/></clipPath>
	<clipPath id="z34277c2"><use xlink:href="#z34277d2"/></clipPath>
	<clipPath id="z34277c3"><use xlink:href="#z34277d3"/></clipPath>
	<clipPath id="z34277c4"><use xlink:href="#z34277d4"/></clipPath>
	<clipPath id="z34277c5"><use xlink:href="#z34277d5"/></clipPath>
	<clipPath id="z34277c6"><use xlink:href="#z34277d6"/></clipPath>
	<clipPath id="z34277c7"><use xlink:href="#z34277d7"/></clipPath>
	<clipPath id="z34277c8"><use xlink:href="#z34277d8"/></clipPath>
	<clipPath id="z34277c9"><use xlink:href="#z34277d9"/></clipPath>
	<clipPath id="z34277c10"><use xlink:href="#z34277d10"/></clipPath>
	<clipPath id="z34277c11"><use xlink:href="#z34277d11"/></clipPath>
	<clipPath id="z34277c12"><use xlink:href="#z34277d12"/></clipPath>
	<clipPath id="z34277c13"><use xlink:href="#z34277d13"/></clipPath>
	<clipPath id="z34277c14"><use xlink:href="#z34277d14"/></clipPath>
	<clipPath id="z34277c15"><use xlink:href="#z34277d15"/></clipPath>
	<clipPath id="z34277c16"><use xlink:href="#z34277d16"/></clipPath>
	<clipPath id="z34277c17"><use xlink:href="#z34277d17"/></clipPath>
	<clipPath id="z34277c18"><use xlink:href="#z34277d18"/></clipPath>
</defs>
<path pathLength="3333" clip-path="url(#z34277c1)" d="M205 187L707 144L815 153"/>
<path pathLength="3333" clip-path="url(#z34277c2)" d="M346 99L393 124L417 242"/>
<path pathLength="3333" clip-path="url(#z34277c3)" d="M606 51L646 90L595 225"/>
<path pathLength="3333" clip-path="url(#z34277c4)" d="M491 209L513 241L462 315"/>
<path pathLength="3333" clip-path="url(#z34277c5)" d="M424 314L444 348L445 550"/>
<path pathLength="3333" clip-path="url(#z34277c6)" d="M462 325L549 306L580 326L571 551"/>
<path pathLength="3333" clip-path="url(#z34277c7)" d="M470 433L537 420"/>
<path pathLength="3333" clip-path="url(#z34277c8)" d="M467 526L541 508"/>
<path pathLength="3333" clip-path="url(#z34277c9)" d="M275 254L296 293L220 430L314 419"/>
<path pathLength="3333" clip-path="url(#z34277c10)" d="M357 338L371 377L233 561L251 576L353 529"/>
<path pathLength="3333" clip-path="url(#z34277c11)" d="M353 488L385 561"/>
<path pathLength="3333" clip-path="url(#z34277c12)" d="M695 195L720 234L649 362L737 359"/>
<path pathLength="3333" clip-path="url(#z34277c13)" d="M776 292L791 331L654 504L670 521L772 494"/>
<path pathLength="3333" clip-path="url(#z34277c14)" d="M762 450L818 537"/>
<path pathLength="3333" clip-path="url(#z34277c15)" d="M148 678L201 689L787 623L886 635"/>
<path pathLength="3333" clip-path="url(#z34277c16)" d="M475 574L510 615L513 976"/>
<path pathLength="3333" clip-path="url(#z34277c17)" d="M471 675L332 804L112 897"/>
<path pathLength="3333" clip-path="url(#z34277c18)" d="M540 667L751 845L946 877"/>
</svg>