<!--
AnimCJK 2016-2026 Copyright FM-SH, https://github.com/parsimonhi/animCJK
Derived from:
    MakeMeAHanzi project - https://github.com/skishore/makemeahanzi
    Arphic PL KaitiM GB font
    Arphic PL KaitiM Big5 font
You can redistribute and/or modify this file under the terms of the Arphic Public License
as published by Arphic Technology Co., Ltd.
You should have received a copy of this license along with this file.
If not, see https://ftp.gnu.org/non-gnu/chinese-fonts-truetype/LICENSE.
-->
<svg id="z34297" class="acjk" viewBox="0 0 1024 1024" xmlns="http://www.w3.org/2000/svg">
<style>
<![CDATA[
@keyframes zk {
	to {
		stroke-dashoffset:0;
	}
}
svg.acjk path[clip-path] {
	--t:0.8s;
	animation:zk var(--t) linear forwards var(--d);
	stroke-dasharray:3337;
	stroke-dashoffset:3339;
	stroke-width:128;
	stroke-linecap:round;
	fill:none;
	stroke:#000;
}
svg.acjk path[id] {fill:#ccc;}
]]>
</style>
<path id="z34297d1" d="M611 168C644 165 749 159 834 165C841 165 852 163 855 157C858 149 853 138 846 132C806 100 738 106 634 124C597 130 597 130 579 133C519 142 487 144 424 152C395 155 395 155 381 157C327 163 240 169 184 176C163 178 156 183 174 195C198 210 239 215 279 209C300 205 371 193 388 191C414 187 414 187 427 185C445 182 527 173 566 171C596 169 596 169 611 168Z"/>
<path id="z34297d2" d="M424 152C419 100 422 88 402 81C377 71 361 68 350 73C339 77 337 85 348 97C360 111 376 136 381 157C386 180 386 180 388 191C394 221 403 243 414 252C420 257 427 257 429 251C430 244 430 222 427 185C425 163 425 163 424 152Z"/>
<path id="z34297d3" d="M634 124C649 93 665 80 658 69C650 58 637 47 620 37C607 28 579 24 588 49C592 61 592 92 579 133C570 158 570 158 566 171C554 205 544 233 545 245C545 249 550 255 558 251C566 245 590 206 611 168C626 139 626 139 634 124Z"/>
<path id="z34297d4" d="M290 323C302 333 315 345 330 358C351 376 377 368 361 321C358 312 349 304 333 298C313 290 297 286 286 284C268 282 262 284 266 299C267 303 276 311 290 323Z"/>
<path id="z34297d5" d="M70 459C55 461 50 473 68 485C91 500 114 502 137 495C226 462 313 440 396 425C419 420 410 404 395 398C379 391 364 390 352 394C225 427 132 450 70 459Z"/>
<path id="z34297d6" d="M191 533C172 538 170 545 185 552C204 560 234 558 272 547C290 541 309 535 329 530C339 527 344 524 346 523C353 513 351 500 317 498C307 497 280 505 237 521C223 525 207 528 191 533Z"/>
<path id="z34297d7" d="M191 619C172 622 170 631 185 637C209 646 234 643 259 636C302 622 332 617 342 609C356 596 329 584 315 585C301 585 282 592 235 608C222 612 207 615 191 619Z"/>
<path id="z34297d8" d="M191 709C174 702 129 687 144 720C159 753 173 794 182 847C184 862 189 875 198 886C224 917 222 869 219 849C216 830 216 830 214 820C206 775 203 746 201 733C200 724 199 712 191 709Z"/>
<path id="z34297d9" d="M344 796C352 755 361 728 373 716C385 701 383 690 370 683C359 677 346 668 330 661C320 656 302 664 275 679C253 690 225 699 191 709C183 711 193 736 201 733C211 729 237 720 282 707C312 698 314 711 310 740C307 756 304 773 301 793C299 807 341 810 344 796Z"/>
<path id="z34297d10" d="M219 849C235 849 258 842 356 823C380 818 359 801 344 796C331 791 315 791 301 793C287 796 264 806 214 820C204 822 209 849 219 849Z"/>
<path id="z34297d11" d="M493 296C477 289 421 265 441 305C458 339 473 385 484 444C487 461 493 477 506 491C511 496 524 490 524 484C523 476 524 468 523 459C521 441 517 420 514 404C511 391 511 391 510 385C504 359 502 339 500 327C498 317 503 300 493 296Z"/>
<path id="z34297d12" d="M662 469C670 491 688 505 708 484C717 473 731 434 754 369C759 352 770 336 785 323C792 315 794 308 788 300C779 289 763 274 739 259C711 240 726 253 493 296C483 298 490 331 500 327C540 315 598 303 673 293C707 288 716 305 712 321C698 370 681 427 670 440C664 448 658 460 662 469Z"/>
<path id="z34297d13" d="M640 392C668 389 651 367 623 362C610 359 572 367 510 385C504 386 508 405 514 404C598 396 598 396 640 392Z"/>
<path id="z34297d14" d="M524 484C574 478 624 471 662 469C672 469 680 442 670 440C629 431 562 450 523 459C515 461 516 486 524 484Z"/>
<path id="z34297d15" d="M506 491C506 515 474 559 408 621C384 642 400 638 416 632C436 624 477 597 495 582C507 571 507 571 513 566C524 556 534 543 551 532C573 515 536 492 524 484C518 481 506 485 506 491Z"/>
<path id="z34297d16" d="M607 580C703 566 757 558 769 558C786 558 789 561 791 586C794 610 797 652 794 712C788 794 775 843 765 862C742 902 709 882 676 869C662 862 653 864 668 881C693 908 710 934 721 955C732 979 746 977 766 963C781 953 796 934 811 906C832 863 849 769 861 623C862 606 866 592 877 581C884 572 888 565 888 561C887 556 880 549 869 541C852 528 832 520 811 513C789 505 799 508 513 566C505 568 487 579 495 582C523 591 551 587 579 584C598 581 598 581 607 580Z"/>
<path id="z34297d17" d="M607 640C611 634 617 629 624 620C633 607 613 585 607 580C600 573 577 575 579 584C587 622 526 694 502 719C492 728 496 733 511 725C536 712 574 682 594 657C603 646 603 646 607 640Z"/>
<path id="z34297d18" d="M671 714C677 718 709 735 694 686C688 668 672 654 607 640C600 639 588 653 594 657C645 695 645 695 671 714Z"/>
<path id="z34297d19" d="M465 678C461 672 453 666 442 659C426 649 418 653 423 669C437 718 429 763 399 801C393 807 392 816 396 827C399 837 402 845 406 849C410 853 417 853 426 848C468 819 552 803 678 805C710 805 707 776 675 766C612 745 533 778 467 784C444 785 462 726 465 708C466 696 472 689 465 678Z"/>
<defs>
	<clipPath id="z34297c1"><use href="#z34297d1"/></clipPath>
	<clipPath id="z34297c2"><use href="#z34297d2"/></clipPath>
	<clipPath id="z34297c3"><use href="#z34297d3"/></clipPath>
	<clipPath id="z34297c4"><use href="#z34297d4"/></clipPath>
	<clipPath id="z34297c5"><use href="#z34297d5"/></clipPath>
	<clipPath id="z34297c6"><use href="#z34297d6"/></clipPath>
	<clipPath id="z34297c7"><use href="#z34297d7"/></clipPath>
	<clipPath id="z34297c8"><use href="#z34297d8"/></clipPath>
	<clipPath id="z34297c9"><use href="#z34297d9"/></clipPath>
	<clipPath id="z34297c10"><use href="#z34297d10"/></clipPath>
	<clipPath id="z34297c11"><use href="#z34297d11"/></clipPath>
	<clipPath id="z34297c12"><use href="#z34297d12"/></clipPath>
	<clipPath id="z34297c13"><use href="#z34297d13"/></clipPath>
	<clipPath id="z34297c14"><use href="#z34297d14"/></clipPath>
	<clipPath id="z34297c15"><use href="#z34297d15"/></clipPath>
	<clipPath id="z34297c16"><use href="#z34297d16"/></clipPath>
	<clipPath id="z34297c17"><use href="#z34297d17"/></clipPath>
	<clipPath id="z34297c18"><use href="#z34297d18"/></clipPath>
	<clipPath id="z34297c19"><use href="#z34297d19"/></clipPath>
</defs>
<path style="--d:1s;" pathLength="3333" clip-path="url(#z34297c1)" d="M170 184L709 137L851 147"/>
<path style="--d:2s;" pathLength="3333" clip-path="url(#z34297c2)" d="M348 82L393 111L419 250"/>
<path style="--d:3s;" pathLength="3333" clip-path="url(#z34297c3)" d="M594 39L624 83L554 248"/>
<path style="--d:4s;" pathLength="3333" clip-path="url(#z34297c4)" d="M273 292L356 359"/>
<path style="--d:5s;" pathLength="3333" clip-path="url(#z34297c5)" d="M64 469L117 475L404 412"/>
<path style="--d:6s;" pathLength="3333" clip-path="url(#z34297c6)" d="M184 544L345 515"/>
<path style="--d:7s;" pathLength="3333" clip-path="url(#z34297c7)" d="M182 629L338 598"/>
<path style="--d:8s;" pathLength="3333" clip-path="url(#z34297c8)" d="M147 707L177 735L206 886"/>
<path style="--d:9s;" pathLength="3333" clip-path="url(#z34297c9)" d="M194 720L304 683L338 695L321 803"/>
<path style="--d:10s;" pathLength="3333" clip-path="url(#z34297c10)" d="M211 831L360 814"/>
<path style="--d:11s;" pathLength="3333" clip-path="url(#z34297c11)" d="M444 291L475 315L508 487"/>
<path style="--d:12s;" pathLength="3333" clip-path="url(#z34297c12)" d="M492 313L684 274L735 288L750 321L675 488"/>
<path style="--d:13s;" pathLength="3333" clip-path="url(#z34297c13)" d="M509 393L648 381"/>
<path style="--d:14s;" pathLength="3333" clip-path="url(#z34297c14)" d="M522 474L671 451"/>
<path style="--d:15s;" pathLength="3333" clip-path="url(#z34297c15)" d="M516 488L524 525L401 631"/>
<path style="--d:16s;" pathLength="3333" clip-path="url(#z34297c16)" d="M504 579L778 534L838 575L787 884L734 929L667 872"/>
<path style="--d:17s;" pathLength="3333" clip-path="url(#z34297c17)" d="M587 580L598 621L505 724"/>
<path style="--d:18s;" pathLength="3333" clip-path="url(#z34297c18)" d="M599 653L690 715"/>
<path style="--d:19s;" pathLength="3333" clip-path="url(#z34297c19)" d="M429 663L448 695L434 815L573 786L696 790"/>
</svg>