<!--
AnimCJK 2016-2026 Copyright FM-SH, https://github.com/parsimonhi/animCJK
Derived from:
    MakeMeAHanzi project - https://github.com/skishore/makemeahanzi
    Arphic PL KaitiM GB font
    Arphic PL KaitiM Big5 font
You can redistribute and/or modify this file under the terms of the Arphic Public License
as published by Arphic Technology Co., Ltd.
You should have received a copy of this license along with this file.
If not, see https://ftp.gnu.org/non-gnu/chinese-fonts-truetype/LICENSE.
-->
<svg id="z34351" class="acjk" viewBox="0 0 1024 1024" xmlns="http://www.w3.org/2000/svg">
<style>
<![CDATA[
@keyframes zk {
	to {
		stroke-dashoffset:0;
	}
}
svg.acjk path[clip-path] {
	--t:0.8s;
	animation:zk var(--t) linear forwards var(--d);
	stroke-dasharray:3337;
	stroke-dashoffset:3339;
	stroke-width:128;
	stroke-linecap:round;
	fill:none;
	stroke:#000;
}
svg.acjk path[id] {fill:#ccc;}
]]>
</style>
<path id="z34351d1" d="M622 174C690 172 810 168 863 169C884 169 903 158 877 136C838 103 740 117 645 131C606 136 606 136 587 139C538 145 477 150 424 155C393 158 393 158 378 159C323 163 225 173 165 179C146 180 142 187 156 197C181 215 214 223 252 217C285 211 356 197 388 193C414 189 414 189 427 187C462 181 549 175 578 175C607 174 607 174 622 174Z"/>
<path id="z34351d2" d="M424 155C422 138 422 123 422 110C422 97 416 91 405 87C379 76 360 70 348 76C336 80 336 90 346 102C359 118 371 136 378 159C385 182 385 182 388 193C393 212 398 228 410 239C418 246 424 245 426 238C426 236 429 218 427 187C425 166 425 166 424 155Z"/>
<path id="z34351d3" d="M645 131C659 102 680 93 670 78C663 67 649 56 628 43C610 32 584 36 594 56C601 71 596 99 587 139C581 163 581 163 578 175C571 201 567 212 567 223C567 231 573 233 583 227C591 221 604 207 622 174C637 145 637 145 645 131Z"/>
<path id="z34351d4" d="M316 306C352 337 372 354 381 353C402 352 397 320 391 303C386 286 359 274 312 264C292 260 288 264 290 278C291 284 302 292 316 306Z"/>
<path id="z34351d5" d="M229 432C257 457 280 476 302 480C322 484 327 460 321 444C313 420 283 404 235 399C223 397 206 395 212 412C214 418 220 424 229 432Z"/>
<path id="z34351d6" d="M223 631C216 635 212 639 214 648C221 690 234 714 249 725C266 738 269 721 270 708C273 686 298 625 344 517C346 511 362 470 327 512C312 530 286 559 250 608C244 616 235 625 223 631Z"/>
<path id="z34351d7" d="M496 268C481 261 445 243 456 275C467 305 477 338 483 387C484 401 489 413 495 424C502 435 510 430 514 415C516 409 515 402 515 396C515 394 514 377 511 355C509 348 509 341 508 334C505 314 504 302 504 293C504 284 504 271 496 268Z"/>
<path id="z34351d8" d="M613 403C626 421 633 447 652 420C659 410 669 376 683 315C686 300 694 290 705 278C711 271 712 265 706 259C699 250 685 240 664 229C655 224 646 223 639 226C621 233 554 250 496 268C488 271 496 298 504 293C508 287 546 277 616 260C645 253 645 274 644 282C633 349 624 379 617 383C612 388 609 398 613 403Z"/>
<path id="z34351d9" d="M511 355C544 349 573 345 598 340C623 335 604 319 583 316C567 313 542 320 508 334C501 337 504 356 511 355Z"/>
<path id="z34351d10" d="M514 415C527 415 559 408 613 403C620 402 623 386 617 383C589 368 542 387 515 396C509 398 508 415 514 415Z"/>
<path id="z34351d11" d="M469 495C547 475 653 464 787 464C809 464 811 450 797 439C768 418 742 416 717 422C631 442 523 457 395 475C385 476 383 481 391 489C400 498 416 507 442 502C460 497 460 497 469 495Z"/>
<path id="z34351d12" d="M478 534C493 517 484 508 469 495C462 488 442 493 442 502C444 518 423 552 374 608C362 621 361 628 386 615C409 604 430 589 464 549C473 539 473 539 478 534Z"/>
<path id="z34351d13" d="M608 539C639 535 668 526 701 528C710 528 716 529 717 533C725 562 720 598 698 647C689 667 682 669 624 651C618 649 612 651 625 663C646 681 660 698 668 712C671 719 677 732 699 721C720 710 743 674 764 605C773 576 779 559 787 552C793 547 796 541 796 537C794 522 773 509 737 495C717 487 727 493 478 534C471 535 457 548 464 549C472 551 480 553 489 552C509 551 509 551 519 550C543 549 566 544 587 541C601 540 601 540 608 539Z"/>
<path id="z34351d14" d="M489 552C489 583 466 611 402 671C394 678 395 683 407 677C468 651 510 610 533 581C542 569 529 556 519 550C510 545 489 542 489 552Z"/>
<path id="z34351d15" d="M587 541C595 614 503 691 456 731C448 739 450 742 461 739C555 704 613 618 633 587C650 562 636 550 608 539C601 536 587 534 587 541Z"/>
<path id="z34351d16" d="M346 776C326 766 277 753 300 791C330 845 339 891 346 916C350 927 383 925 381 914C381 912 375 879 363 807C361 795 357 780 346 776Z"/>
<path id="z34351d17" d="M718 882C735 837 750 809 764 793C770 786 773 780 771 774C768 764 750 750 716 733C707 729 699 727 691 729C588 747 473 763 346 776C334 778 351 809 363 807C387 801 410 797 432 794C448 791 448 791 456 790C486 786 516 780 548 776C579 771 579 771 594 769C626 765 695 741 689 793C686 813 678 841 667 887C664 904 712 898 718 882Z"/>
<path id="z34351d18" d="M480 905C483 885 476 850 456 790C453 782 430 786 432 794C440 857 450 892 463 907C467 911 479 911 480 905Z"/>
<path id="z34351d19" d="M567 897C609 776 632 797 594 769C582 760 540 763 548 776C564 800 547 871 543 899C542 907 564 904 567 897Z"/>
<path id="z34351d20" d="M346 916C298 919 248 922 197 926C184 927 181 933 191 943C209 962 235 968 252 964C404 929 603 919 849 933C878 935 879 918 862 903C816 864 773 876 718 882C684 885 684 885 667 887C648 889 590 895 567 897C551 898 551 898 543 899C538 899 503 903 480 905C469 906 469 906 463 907C436 910 409 913 381 914C358 915 358 915 346 916Z"/>
<defs>
	<clipPath id="z34351c1"><use href="#z34351d1"/></clipPath>
	<clipPath id="z34351c2"><use href="#z34351d2"/></clipPath>
	<clipPath id="z34351c3"><use href="#z34351d3"/></clipPath>
	<clipPath id="z34351c4"><use href="#z34351d4"/></clipPath>
	<clipPath id="z34351c5"><use href="#z34351d5"/></clipPath>
	<clipPath id="z34351c6"><use href="#z34351d6"/></clipPath>
	<clipPath id="z34351c7"><use href="#z34351d7"/></clipPath>
	<clipPath id="z34351c8"><use href="#z34351d8"/></clipPath>
	<clipPath id="z34351c9"><use href="#z34351d9"/></clipPath>
	<clipPath id="z34351c10"><use href="#z34351d10"/></clipPath>
	<clipPath id="z34351c11"><use href="#z34351d11"/></clipPath>
	<clipPath id="z34351c12"><use href="#z34351d12"/></clipPath>
	<clipPath id="z34351c13"><use href="#z34351d13"/></clipPath>
	<clipPath id="z34351c14"><use href="#z34351d14"/></clipPath>
	<clipPath id="z34351c15"><use href="#z34351d15"/></clipPath>
	<clipPath id="z34351c16"><use href="#z34351d16"/></clipPath>
	<clipPath id="z34351c17"><use href="#z34351d17"/></clipPath>
	<clipPath id="z34351c18"><use href="#z34351d18"/></clipPath>
	<clipPath id="z34351c19"><use href="#z34351d19"/></clipPath>
	<clipPath id="z34351c20"><use href="#z34351d20"/></clipPath>
</defs>
<path style="--d:1s;" pathLength="3333" clip-path="url(#z34351c1)" d="M154 188L885 149"/>
<path style="--d:2s;" pathLength="3333" clip-path="url(#z34351c2)" d="M346 86L393 115L416 239"/>
<path style="--d:3s;" pathLength="3333" clip-path="url(#z34351c3)" d="M600 41L635 82L577 225"/>
<path style="--d:4s;" pathLength="3333" clip-path="url(#z34351c4)" d="M296 272L368 314L385 347"/>
<path style="--d:5s;" pathLength="3333" clip-path="url(#z34351c5)" d="M216 406L317 470"/>
<path style="--d:6s;" pathLength="3333" clip-path="url(#z34351c6)" d="M218 642L261 674L344 500"/>
<path style="--d:7s;" pathLength="3333" clip-path="url(#z34351c7)" d="M463 263L502 422"/>
<path style="--d:8s;" pathLength="3333" clip-path="url(#z34351c8)" d="M495 280L641 242L676 267L635 425"/>
<path style="--d:9s;" pathLength="3333" clip-path="url(#z34351c9)" d="M507 345L603 332"/>
<path style="--d:10s;" pathLength="3333" clip-path="url(#z34351c10)" d="M515 406L616 392"/>
<path style="--d:11s;" pathLength="3333" clip-path="url(#z34351c11)" d="M396 482L801 449"/>
<path style="--d:12s;" pathLength="3333" clip-path="url(#z34351c12)" d="M461 495L452 536L372 616"/>
<path style="--d:13s;" pathLength="3333" clip-path="url(#z34351c13)" d="M474 545L741 520L758 548L698 688L625 656"/>
<path style="--d:14s;" pathLength="3333" clip-path="url(#z34351c14)" d="M498 551L504 585L407 672"/>
<path style="--d:15s;" pathLength="3333" clip-path="url(#z34351c15)" d="M593 546L609 580L581 627L458 734"/>
<path style="--d:16s;" pathLength="3333" clip-path="url(#z34351c16)" d="M301 772L337 807L363 920"/>
<path style="--d:17s;" pathLength="3333" clip-path="url(#z34351c17)" d="M349 780L694 748L730 780L681 895"/>
<path style="--d:18s;" pathLength="3333" clip-path="url(#z34351c18)" d="M443 792L469 905"/>
<path style="--d:19s;" pathLength="3333" clip-path="url(#z34351c19)" d="M553 774L583 807L550 897"/>
<path style="--d:20s;" pathLength="3333" clip-path="url(#z34351c20)" d="M191 932L761 902L868 919"/>
</svg>