<!--
AnimCJK 2016-2018 Copyright Francois Mizessyn - https://github.com/parsimonhi/animCJK
Derived from:
    MakeMeAHanzi project - https://github.com/skishore/makemeahanzi
    Arphic PL KaitiM GB - https://apps.ubuntu.com/cat/applications/precise/fonts-arphic-gkai00mp/
    Arphic PL UKai - https://apps.ubuntu.com/cat/applications/fonts-arphic-ukai/
You can redistribute and/or modify this file under the terms of the Arphic Public License
as published by Arphic Technology Co., Ltd.
You should have received a copy of this license (the directory "APL") along with this file;
if not, see http://ftp.gnu.org/non-gnu/chinese-fonts-truetype/LICENSE.
-->
<svg id="z34509" class="acjk" version="1.1" viewBox="0 0 1024 1024" xmlns="http://www.w3.org/2000/svg" xmlns:xlink="http://www.w3.org/1999/xlink">
<style>
<![CDATA[
@keyframes z34509k {
	from {
		stroke:#ccc;
		stroke-dashoffset:3334;
	}
	1% {
		stroke:#c00;
		stroke-dashoffset:3334;
	}
	75% {
		stroke:#c00;
		stroke-dashoffset:0;
	}
	to {
		stroke:#000;
	}
}
#z34509 path[clip-path] {
	animation:z34509k 1s linear both;
	stroke-dasharray:3334;
	stroke-width:128;
	stroke-linecap:round;
	fill:none;
}
#z34509 path[clip-path="url(#z34509c1)"] {animation-delay:1s;}
#z34509 path[clip-path="url(#z34509c2)"] {animation-delay:2s;}
#z34509 path[clip-path="url(#z34509c3)"] {animation-delay:3s;}
#z34509 path[clip-path="url(#z34509c4)"] {animation-delay:4s;}
#z34509 path[clip-path="url(#z34509c5)"] {animation-delay:5s;}
#z34509 path[clip-path="url(#z34509c6)"] {animation-delay:6s;}
#z34509 path[clip-path="url(#z34509c7)"] {animation-delay:7s;}
#z34509 path[clip-path="url(#z34509c8)"] {animation-delay:8s;}
#z34509 path[clip-path="url(#z34509c9)"] {animation-delay:9s;}
#z34509 path[clip-path="url(#z34509c10)"] {animation-delay:10s;}
#z34509 path[clip-path="url(#z34509c11)"] {animation-delay:11s;}
#z34509 path {fill:#ccc;}
]]>
</style>
<path id="z34509d1" d="M304 232C318 246 334 263 351 282C359 291 369 295 380 296C386 296 392 291 397 283C401 273 399 258 395 238C391 225 381 214 362 205C321 185 293 175 280 181C275 182 274 189 276 198C277 204 287 215 304 232 Z"/>
<path id="z34509d2" d="M437 151C454 166 470 184 487 203C495 212 505 216 516 216C522 216 529 212 533 203C536 193 534 178 530 158C527 145 516 133 496 124C449 103 420 95 412 101C408 103 406 109 408 118C408 124 420 135 437 151 Z"/>
<path id="z34509d3" d="M623 314C687 233 735 174 772 143C781 135 786 130 782 124C776 114 765 104 750 95C733 85 718 80 703 83C692 84 690 93 694 106C696 114 697 125 693 137C673 184 639 244 595 318C590 326 617 322 623 314 Z"/>
<path id="z34509d4" d="M245 365C237 351 230 339 224 335C210 325 199 329 201 348C202 375 186 411 143 456C128 471 130 500 151 543C160 562 177 563 189 541C209 500 224 454 243 411C249 397 252 379 245 365 Z"/>
<path id="z34509d5" d="M807 294C794 294 674 306 623 314C604 317 604 317 595 318C521 329 437 339 344 354C311 359 278 363 245 365C230 365 228 408 243 411C256 413 269 411 283 408C401 374 547 352 721 340C748 338 767 336 779 340C790 343 795 350 795 355C795 362 777 385 742 443C736 453 735 460 740 464C743 467 753 465 767 458C813 430 854 414 890 407C921 400 936 391 936 385C934 376 907 352 857 309C845 299 829 294 807 294 Z"/>
<path id="z34509d6" d="M344 555C337 551 327 546 315 546C306 545 297 546 295 550C291 556 292 564 298 576C314 609 330 655 342 714C345 731 350 745 360 756C372 770 377 771 382 762C385 753 387 742 384 724C380 703 380 703 378 693C367 637 362 603 361 585C361 574 354 560 344 555 Z"/>
<path id="z34509d7" d="M666 652C682 614 700 590 715 578C727 566 728 550 719 537C710 525 689 509 658 489C648 482 634 482 621 488C586 502 553 516 519 524C484 532 484 532 467 536C427 545 386 551 344 555C333 557 350 587 361 585C400 577 451 566 467 563C499 556 499 556 515 553C540 547 565 540 591 535C609 530 622 535 629 545C633 550 635 559 633 570C627 599 620 625 612 649C605 666 659 669 666 652 Z"/>
<path id="z34509d8" d="M513 699C551 694 628 683 676 684C688 684 702 670 666 652C649 645 630 646 612 649C577 655 543 662 513 668C486 673 486 673 472 676C449 680 410 688 378 693C368 695 374 726 384 724C388 724 393 722 400 721C418 716 441 707 472 704C499 701 499 701 513 699 Z"/>
<path id="z34509d9" d="M511 839C514 733 517 558 520 524C520 514 523 492 531 458C532 449 528 440 516 432C495 418 477 412 463 410C454 408 447 409 442 416C437 421 437 429 443 439C454 459 462 491 468 536C473 579 475 735 474 846C474 859 511 852 511 839 Z"/>
<path id="z34509d10" d="M648 814C603 821 557 830 511 839C486 844 486 844 474 846C417 856 359 864 301 874C282 877 258 876 230 873C220 872 214 875 212 883C209 891 210 898 217 905C231 918 248 933 271 948C277 951 286 949 296 945C336 925 412 902 526 874C606 853 652 840 665 838C675 836 658 812 648 814 Z"/>
<path id="z34509d11" d="M665 838C685 865 706 895 727 930C736 945 745 955 755 960C761 962 766 961 773 956C783 947 787 929 785 899C782 863 730 818 635 752C626 745 621 746 618 755C615 761 626 781 648 814C659 830 659 830 665 838 Z"/>
<defs>
	<clipPath id="z34509c1"><use xlink:href="#z34509d1"/></clipPath>
	<clipPath id="z34509c2"><use xlink:href="#z34509d2"/></clipPath>
	<clipPath id="z34509c3"><use xlink:href="#z34509d3"/></clipPath>
	<clipPath id="z34509c4"><use xlink:href="#z34509d4"/></clipPath>
	<clipPath id="z34509c5"><use xlink:href="#z34509d5"/></clipPath>
	<clipPath id="z34509c6"><use xlink:href="#z34509d6"/></clipPath>
	<clipPath id="z34509c7"><use xlink:href="#z34509d7"/></clipPath>
	<clipPath id="z34509c8"><use xlink:href="#z34509d8"/></clipPath>
	<clipPath id="z34509c9"><use xlink:href="#z34509d9"/></clipPath>
	<clipPath id="z34509c10"><use xlink:href="#z34509d10"/></clipPath>
	<clipPath id="z34509c11"><use xlink:href="#z34509d11"/></clipPath>
</defs>
<path pathLength="3333" clip-path="url(#z34509c1)" d="M284 185L392 286"/>
<path pathLength="3333" clip-path="url(#z34509c2)" d="M415 106L490 158L522 211"/>
<path pathLength="3333" clip-path="url(#z34509c3)" d="M699 88L737 133L604 311"/>
<path pathLength="3333" clip-path="url(#z34509c4)" d="M211 337L222 391L175 474L162 551"/>
<path pathLength="3333" clip-path="url(#z34509c5)" d="M257 375L808 321L891 372L760 436"/>
<path pathLength="3333" clip-path="url(#z34509c6)" d="M301 556L336 595L371 763"/>
<path pathLength="3333" clip-path="url(#z34509c7)" d="M352 558L637 513L679 554L643 636L620 645"/>
<path pathLength="3333" clip-path="url(#z34509c8)" d="M386 693L683 675"/>
<path pathLength="3333" clip-path="url(#z34509c9)" d="M447 420L494 463L484 842"/>
<path pathLength="3333" clip-path="url(#z34509c10)" d="M216 883L282 912L659 830"/>
<path pathLength="3333" clip-path="url(#z34509c11)" d="M626 757L744 889L768 956"/>
</svg>