<!--
AnimCJK 2016-2026 Copyright FM-SH - https://github.com/parsimonhi/animCJK
Derived from:
    MakeMeAHanzi project - https://github.com/skishore/makemeahanzi
    Arphic PL KaitiM GB font
    Arphic PL KaitiM Big5 font
You can redistribute and/or modify this file under the terms of the Arphic Public License
as published by Arphic Technology Co., Ltd.
You should have received a copy of this license along with this file.
If not, see https://ftp.gnu.org/non-gnu/chinese-fonts-truetype/LICENSE.
-->
<svg id="z34578" class="acjk" viewBox="0 0 1024 1024" xmlns="http://www.w3.org/2000/svg">
<style>
<![CDATA[
@keyframes zk {
	to {
		stroke-dashoffset:0;
	}
}
svg.acjk path[clip-path] {
	--t:0.8s;
	animation:zk var(--t) linear forwards var(--d);
	stroke-dasharray:3337;
	stroke-dashoffset:3339;
	stroke-width:128;
	stroke-linecap:round;
	fill:none;
	stroke:#000;
}
svg.acjk path[id] {fill:#ccc;}
]]>
</style>
<path id="z34578d1" d="M106 362C86 356 51 344 67 378C82 411 99 454 111 510C114 525 119 538 129 550C150 575 151 553 152 534C152 523 150 512 149 502C142 460 130 405 128 388C126 377 117 364 106 362Z"/>
<path id="z34578d2" d="M329 469C339 418 357 384 378 365C387 355 388 342 378 334C361 319 342 314 325 309C299 300 265 318 241 326C214 335 214 335 200 339C169 348 138 354 106 362C95 364 117 390 128 388C142 386 147 382 201 370C227 364 227 364 240 361C264 355 307 334 303 377C299 407 294 436 288 463C285 477 326 483 329 469Z"/>
<path id="z34578d3" d="M236 516C262 510 296 501 339 497C349 495 362 483 329 469C316 464 302 460 288 463C269 468 253 474 237 479C212 486 212 486 200 490C182 495 165 498 149 502C138 504 141 536 152 534C154 534 169 530 199 524C224 519 224 519 236 516Z"/>
<path id="z34578d4" d="M232 638C232 596 234 555 236 516C237 491 237 491 237 479C238 438 238 399 240 361C241 338 241 338 241 326C242 273 247 219 261 166C262 159 258 149 245 142C223 129 203 124 189 121C171 117 152 126 167 148C197 194 197 259 200 339C201 360 201 360 201 370C202 408 201 448 200 490C199 513 199 513 199 524C197 564 196 607 193 653C193 667 232 652 232 638Z"/>
<path id="z34578d5" d="M295 613C274 621 253 629 232 638C206 648 206 648 193 653C146 670 96 692 46 697C25 698 31 721 41 728C55 737 72 747 94 756C100 758 107 754 114 749C150 716 280 651 304 632C310 628 302 610 295 613Z"/>
<path id="z34578d6" d="M304 632C322 670 333 692 340 695C357 702 363 670 364 662C366 642 346 611 302 573C289 561 281 564 281 575C280 588 289 600 295 613C301 626 301 626 304 632Z"/>
<path id="z34578d7" d="M711 255C734 243 805 201 836 190C869 177 845 161 844 161C804 139 773 130 753 137C748 138 747 144 748 151C749 177 689 224 575 301C569 304 572 313 577 312C607 304 639 288 673 273C698 261 698 261 711 255Z"/>
<path id="z34578d8" d="M730 600C732 547 737 496 739 447C740 426 740 426 740 416C744 270 785 294 711 255C699 248 665 262 673 273C704 322 690 328 695 607C695 619 730 612 730 600Z"/>
<path id="z34578d9" d="M739 447Q739 446 741 446Q810 431 860 421Q884 415 874 404Q862 391 836 387Q797 384 740 416C731 421 730 452 739 447Z"/>
<path id="z34578d10" d="M695 607C657 614 636 612 635 612C628 609 626 603 627 594C630 551 633 506 641 461C643 446 640 433 629 422C610 403 594 395 580 396C568 396 564 402 571 414C588 445 596 475 594 506C589 566 584 602 578 613C571 623 570 633 576 643C584 657 593 665 602 665C606 665 615 660 629 656C704 632 781 623 857 626C871 626 899 618 846 589C829 579 816 580 807 582C780 586 755 594 730 600C707 605 707 605 695 607Z"/>
<path id="z34578d11" d="M447 462C443 457 446 441 456 415C469 376 485 342 502 314C513 294 525 282 537 275C549 266 550 256 540 247C522 232 502 225 485 223C474 221 464 225 453 236C444 243 429 250 407 259C382 268 365 271 355 270C340 268 332 278 347 287C372 302 404 303 443 283C460 273 461 279 454 308C448 333 433 373 415 430C410 442 405 455 394 467C383 481 454 478 447 462Z"/>
<path id="z34578d12" d="M500 641C536 556 552 507 564 499C568 495 569 488 565 480C561 473 546 466 525 455C518 451 497 453 462 463C455 464 449 465 447 462C430 456 407 454 394 467C386 474 383 480 387 488C389 494 393 499 397 503C405 509 413 508 424 502C460 480 485 476 494 490C502 503 494 548 468 618C459 641 459 641 455 652C431 712 380 775 313 821C277 846 281 861 324 840C407 797 456 743 485 676C495 653 495 653 500 641Z"/>
<path id="z34578d13" d="M485 676C595 764 669 844 739 879C765 892 837 888 955 864C968 861 983 845 952 841C912 835 872 825 830 817C658 784 568 690 500 641C479 626 479 626 468 618C433 592 399 580 361 592C354 594 351 599 356 606C359 611 366 613 374 614C397 616 425 628 455 652C475 668 475 668 485 676Z"/>
<defs>
	<clipPath id="z34578c1"><use href="#z34578d1"/></clipPath>
	<clipPath id="z34578c2"><use href="#z34578d2"/></clipPath>
	<clipPath id="z34578c3"><use href="#z34578d3"/></clipPath>
	<clipPath id="z34578c4"><use href="#z34578d4"/></clipPath>
	<clipPath id="z34578c5"><use href="#z34578d5"/></clipPath>
	<clipPath id="z34578c6"><use href="#z34578d6"/></clipPath>
	<clipPath id="z34578c7"><use href="#z34578d7"/></clipPath>
	<clipPath id="z34578c8"><use href="#z34578d8"/></clipPath>
	<clipPath id="z34578c9"><use href="#z34578d9"/></clipPath>
	<clipPath id="z34578c10"><use href="#z34578d10"/></clipPath>
	<clipPath id="z34578c11"><use href="#z34578d11"/></clipPath>
	<clipPath id="z34578c12"><use href="#z34578d12"/></clipPath>
	<clipPath id="z34578c13"><use href="#z34578d13"/></clipPath>
</defs>
<path style="--d:1s;" pathLength="3333" clip-path="url(#z34578c1)" d="M70 360L102 393L139 553"/>
<path style="--d:2s;" pathLength="3333" clip-path="url(#z34578c2)" d="M110 368L317 333L344 362L300 472"/>
<path style="--d:3s;" pathLength="3333" clip-path="url(#z34578c3)" d="M144 520L345 486"/>
<path style="--d:4s;" pathLength="3333" clip-path="url(#z34578c4)" d="M168 133L224 179L202 655"/>
<path style="--d:5s;" pathLength="3333" clip-path="url(#z34578c5)" d="M37 709L95 722L300 623"/>
<path style="--d:6s;" pathLength="3333" clip-path="url(#z34578c6)" d="M289 574L346 690"/>
<path style="--d:7s;" pathLength="3333" clip-path="url(#z34578c7)" d="M754 140L791 184L579 304"/>
<path style="--d:8s;" pathLength="3333" clip-path="url(#z34578c8)" d="M678 268L722 308L704 609"/>
<path style="--d:9s;" pathLength="3333" clip-path="url(#z34578c9)" d="M736 438L870 402"/>
<path style="--d:10s;" pathLength="3333" clip-path="url(#z34578c10)" d="M575 403L614 449L611 635L811 603L869 616"/>
<path style="--d:11s;" pathLength="3333" clip-path="url(#z34578c11)" d="M346 276L469 251L501 267L425 459L401 470"/>
<path style="--d:12s;" pathLength="3333" clip-path="url(#z34578c12)" d="M390 483L505 470L531 501L432 731L293 843"/>
<path style="--d:13s;" pathLength="3333" clip-path="url(#z34578c13)" d="M357 599L437 618L737 834L963 853"/>
</svg>