<!--
AnimCJK 2016-2026 Copyright FM-SH, https://github.com/parsimonhi/animCJK
Derived from:
    MakeMeAHanzi project - https://github.com/skishore/makemeahanzi
    Arphic PL KaitiM GB font
    Arphic PL KaitiM Big5 font
You can redistribute and/or modify this file under the terms of the Arphic Public License
as published by Arphic Technology Co., Ltd.
You should have received a copy of this license along with this file.
If not, see https://ftp.gnu.org/non-gnu/chinese-fonts-truetype/LICENSE.
-->
<svg id="z34636" class="acjk" viewBox="0 0 1024 1024" xmlns="http://www.w3.org/2000/svg">
<style>
<![CDATA[
@keyframes zk {
	to {
		stroke-dashoffset:0;
	}
}
svg.acjk path[clip-path] {
	--t:0.8s;
	animation:zk var(--t) linear forwards var(--d);
	stroke-dasharray:3337;
	stroke-dashoffset:3339;
	stroke-width:128;
	stroke-linecap:round;
	fill:none;
	stroke:#000;
}
svg.acjk path[id] {fill:#ccc;}
]]>
</style>
<path id="z34636d1" d="M102 346C84 340 45 326 62 361C76 391 89 431 98 480C100 494 105 507 114 518C134 542 138 520 138 498C137 488 136 478 135 469C129 428 123 386 123 372C123 361 112 350 102 346Z"/>
<path id="z34636d2" d="M316 436C328 396 345 371 362 357C372 347 371 335 363 327C355 319 335 310 307 297C298 292 274 302 233 315C204 324 204 324 190 328C159 337 130 340 102 346C91 348 113 376 123 372C143 366 165 361 191 356C218 350 218 350 232 347C242 344 252 342 263 340C273 337 281 338 286 343C292 349 289 378 277 431C274 444 313 449 316 436Z"/>
<path id="z34636d3" d="M228 480C254 474 287 469 327 463C352 458 324 440 316 436C305 429 290 429 277 431C265 434 246 440 229 445C203 452 203 452 190 456C170 461 151 465 135 469C125 471 128 500 138 498C138 498 172 491 190 488C202 485 228 480 228 480Z"/>
<path id="z34636d4" d="M224 594C224 555 226 517 228 480C229 457 229 457 229 445C229 412 230 379 232 347C233 326 233 326 233 315C235 246 242 193 253 158C254 151 250 141 237 134C215 121 195 116 181 113C163 109 144 118 159 140C196 196 187 262 190 328C191 347 191 347 191 356C192 387 190 421 190 456C190 477 190 477 190 488C190 526 187 565 185 606C185 620 224 608 224 594Z"/>
<path id="z34636d5" d="M291 573C268 579 246 587 224 594C198 602 198 602 185 606C158 614 136 621 104 628C93 629 80 631 65 632C43 632 49 656 58 663C72 673 90 684 112 695C118 697 126 695 133 690C164 663 284 606 303 594C310 590 299 571 291 573Z"/>
<path id="z34636d6" d="M303 594Q309 612 325 617Q332 618 338 611Q344 602 344 581Q344 557 286 523Q277 517 272 518Q268 519 267 528Q267 529 291 573C299 587 299 587 303 594Z"/>
<path id="z34636d7" d="M477 239C522 218 556 200 583 188C604 178 605 168 591 160C551 137 521 130 505 136C499 137 498 142 499 149C500 171 448 211 352 277C346 280 349 287 353 288C368 289 440 255 452 250C469 243 469 243 477 239Z"/>
<path id="z34636d8" d="M500 407C518 401 537 395 557 390C576 384 586 378 589 376C599 365 592 352 559 348C542 345 523 352 500 362C472 373 472 373 458 378C438 385 406 393 357 403C336 406 333 415 350 424C386 443 410 432 444 423C481 412 481 412 500 407Z"/>
<path id="z34636d9" d="M497 558C497 539 500 430 500 407C500 377 500 377 500 362C500 252 526 262 477 239C469 236 450 241 452 250C456 260 459 302 458 378C456 487 456 487 455 542C451 732 445 820 449 839C452 855 470 871 480 856C493 835 498 801 498 753C498 745 497 687 497 579C497 565 497 565 497 558Z"/>
<path id="z34636d10" d="M444 423C422 519 370 622 271 746C251 771 257 785 286 765C383 699 443 567 455 542C514 444 466 311 444 423Z"/>
<path id="z34636d11" d="M497 579C500 584 567 646 577 646C595 645 590 615 587 601C580 576 516 556 497 558C490 558 493 573 497 579Z"/>
<path id="z34636d12" d="M640 279C652 289 665 302 678 316C686 325 707 333 713 315C715 308 714 296 710 281C705 266 681 253 637 242C629 239 622 239 620 242C606 254 631 271 640 279Z"/>
<path id="z34636d13" d="M623 408C637 420 651 435 666 451C669 454 690 473 701 451C704 444 703 432 700 417C695 398 669 383 621 371C613 368 607 368 604 370C599 372 592 382 623 408Z"/>
<path id="z34636d14" d="M805 516C837 510 877 508 923 506C953 504 996 497 962 473C940 457 917 452 894 452C867 451 833 464 805 471C772 479 772 479 755 483C734 487 693 496 578 519C565 521 563 528 574 537C593 553 614 556 637 551C673 541 733 527 756 524C789 519 789 519 805 516Z"/>
<path id="z34636d15" d="M756 524C762 777 759 914 769 932C776 945 791 949 795 931C821 804 805 653 805 516C805 486 805 486 805 471C805 350 807 262 810 206C811 183 817 163 827 145C832 134 827 124 814 114C797 101 775 93 748 86C726 80 701 97 721 114C739 129 751 149 752 173C753 241 751 345 755 483C756 510 756 510 756 524Z"/>
<defs>
	<clipPath id="z34636c1"><use href="#z34636d1"/></clipPath>
	<clipPath id="z34636c2"><use href="#z34636d2"/></clipPath>
	<clipPath id="z34636c3"><use href="#z34636d3"/></clipPath>
	<clipPath id="z34636c4"><use href="#z34636d4"/></clipPath>
	<clipPath id="z34636c5"><use href="#z34636d5"/></clipPath>
	<clipPath id="z34636c6"><use href="#z34636d6"/></clipPath>
	<clipPath id="z34636c7"><use href="#z34636d7"/></clipPath>
	<clipPath id="z34636c8"><use href="#z34636d8"/></clipPath>
	<clipPath id="z34636c9"><use href="#z34636d9"/></clipPath>
	<clipPath id="z34636c10"><use href="#z34636d10"/></clipPath>
	<clipPath id="z34636c11"><use href="#z34636d11"/></clipPath>
	<clipPath id="z34636c12"><use href="#z34636d12"/></clipPath>
	<clipPath id="z34636c13"><use href="#z34636d13"/></clipPath>
	<clipPath id="z34636c14"><use href="#z34636d14"/></clipPath>
	<clipPath id="z34636c15"><use href="#z34636d15"/></clipPath>
</defs>
<path style="--d:1s;" pathLength="3333" clip-path="url(#z34636c1)" d="M65 342L98 379L126 523"/>
<path style="--d:2s;" pathLength="3333" clip-path="url(#z34636c2)" d="M107 353L304 323L328 347L287 438"/>
<path style="--d:3s;" pathLength="3333" clip-path="url(#z34636c3)" d="M134 488L285 449L329 457"/>
<path style="--d:4s;" pathLength="3333" clip-path="url(#z34636c4)" d="M158 122L216 168L202 609"/>
<path style="--d:5s;" pathLength="3333" clip-path="url(#z34636c5)" d="M53 642L112 661L298 579"/>
<path style="--d:6s;" pathLength="3333" clip-path="url(#z34636c6)" d="M275 524L332 609"/>
<path style="--d:7s;" pathLength="3333" clip-path="url(#z34636c7)" d="M506 140L540 185L355 281"/>
<path style="--d:8s;" pathLength="3333" clip-path="url(#z34636c8)" d="M346 411L589 368"/>
<path style="--d:9s;" pathLength="3333" clip-path="url(#z34636c9)" d="M458 243L481 277L465 856"/>
<path style="--d:10s;" pathLength="3333" clip-path="url(#z34636c10)" d="M464 386L457 469L417 566L268 767"/>
<path style="--d:11s;" pathLength="3333" clip-path="url(#z34636c11)" d="M501 567L586 637"/>
<path style="--d:12s;" pathLength="3333" clip-path="url(#z34636c12)" d="M620 249L702 320"/>
<path style="--d:13s;" pathLength="3333" clip-path="url(#z34636c13)" d="M606 379L665 412L689 457"/>
<path style="--d:14s;" pathLength="3333" clip-path="url(#z34636c14)" d="M575 526L968 484"/>
<path style="--d:15s;" pathLength="3333" clip-path="url(#z34636c15)" d="M718 98L789 144L784 938"/>
</svg>