<!--
AnimCJK 2016-2026 Copyright FM-SH, https://github.com/parsimonhi/animCJK
Derived from:
    MakeMeAHanzi project - https://github.com/skishore/makemeahanzi
    Arphic PL KaitiM GB font
    Arphic PL KaitiM Big5 font
You can redistribute and/or modify this file under the terms of the Arphic Public License
as published by Arphic Technology Co., Ltd.
You should have received a copy of this license along with this file.
If not, see https://ftp.gnu.org/non-gnu/chinese-fonts-truetype/LICENSE.
-->
<svg id="z34690" class="acjk" viewBox="0 0 1024 1024" xmlns="http://www.w3.org/2000/svg">
<style>
<![CDATA[
@keyframes zk {
	to {
		stroke-dashoffset:0;
	}
}
svg.acjk path[clip-path] {
	--t:0.8s;
	animation:zk var(--t) linear forwards var(--d);
	stroke-dasharray:3337;
	stroke-dashoffset:3339;
	stroke-width:128;
	stroke-linecap:round;
	fill:none;
	stroke:#000;
}
svg.acjk path[id] {fill:#ccc;}
]]>
</style>
<path id="z34690d1" d="M120 352Q108 348 87 345Q77 342 74 347Q70 353 77 365Q102 413 120 492Q124 516 138 531Q154 549 157 535Q161 525 159 506C156 487 156 487 155 478Q137 399 134 376C132 367 129 354 120 352Z"/>
<path id="z34690d2" d="M341 442Q359 376 384 355Q397 339 384 325Q371 315 327 297Q312 293 295 300Q271 310 251 319C222 327 222 327 207 331Q165 341 120 352C111 354 125 376 134 376Q147 376 163 371Q185 365 208 361C236 354 236 354 250 350Q266 346 284 342Q300 338 306 344Q313 350 313 365Q309 405 302 440C300 453 338 455 341 442Z"/>
<path id="z34690d3" d="M248 489Q291 479 355 471Q364 470 365 462Q365 455 341 442C330 435 315 440 302 440Q299 439 297 440Q270 447 248 455C222 462 222 462 209 466Q179 472 155 478C146 480 150 508 159 506Q163 506 209 497C235 492 235 492 248 489Z"/>
<path id="z34690d4" d="M244 603Q245 545 248 489C248 466 248 466 248 455Q249 401 250 350C251 329 251 329 251 319Q251 277 269 178Q272 168 253 154Q219 138 197 133Q181 130 174 139Q167 146 175 160Q203 200 203 227Q206 276 207 331C208 351 208 351 208 361Q209 412 209 466C209 487 209 487 209 497Q208 554 205 616C205 630 244 617 244 603Z"/>
<path id="z34690d5" d="M317 577Q281 589 244 603C218 612 218 612 205 616Q160 629 113 646Q97 650 72 651Q59 652 58 663Q57 676 66 683Q88 698 120 714Q130 715 141 708Q180 674 327 600C334 596 325 574 317 577Z"/>
<path id="z34690d6" d="M327 600Q340 633 352 639Q359 642 366 635Q373 628 376 606Q377 578 322 533Q313 526 308 526Q304 527 302 535Q302 538 317 577C324 592 324 592 327 600Z"/>
<path id="z34690d7" d="M469 100C517 144 550 164 568 162C578 162 584 155 587 141C586 131 581 119 572 105C563 94 549 87 531 83C502 74 481 70 469 70C462 69 459 73 460 82C459 88 462 94 469 100Z"/>
<path id="z34690d8" d="M542 464C554 492 567 490 579 474C588 465 594 448 597 420C602 359 608 322 627 286C633 274 635 264 627 256C616 245 603 235 588 226C578 221 570 222 562 226C521 242 480 254 432 262C422 264 442 289 451 285C477 276 550 259 561 265C564 267 567 276 566 290C557 374 549 438 545 442C542 449 539 457 542 464Z"/>
<path id="z34690d9" d="M448 384C478 378 499 373 521 369C532 366 534 362 530 356C524 349 514 344 503 343C485 341 465 346 448 360C442 365 440 386 448 384Z"/>
<path id="z34690d10" d="M447 479C484 473 513 468 542 464C549 463 550 447 545 442C542 438 536 435 530 435C511 433 486 440 448 457C441 460 440 480 447 479Z"/>
<path id="z34690d11" d="M396 244C393 244 390 245 389 247C382 251 382 256 388 265C414 322 416 495 400 638C398 658 389 678 373 699C367 707 365 717 370 731C374 744 379 757 389 764C393 769 401 766 407 756C417 739 436 711 526 640C531 636 519 620 513 624C495 633 476 646 456 656C446 659 443 658 444 650C444 607 445 517 447 479C448 464 448 464 448 457C448 408 448 408 448 384C448 368 448 368 448 360C448 339 450 297 451 285C451 275 440 268 432 262C425 256 416 251 410 248C404 245 399 244 396 244Z"/>
<path id="z34690d12" d="M596 514C588 514 587 524 585 541C582 558 570 582 544 601C538 606 555 620 561 615C594 591 605 588 629 578C661 564 645 549 621 527C610 518 602 514 596 514Z"/>
<path id="z34690d13" d="M526 640C535 652 555 676 575 712C586 732 605 706 602 679C599 662 584 634 561 615C550 606 550 606 544 601C532 590 514 579 501 572C459 549 460 563 479 583C487 591 502 610 513 624C522 635 522 635 526 640Z"/>
<path id="z34690d14" d="M726 275C775 247 791 236 800 246C821 268 796 329 788 358C779 391 772 409 773 413C770 428 806 405 814 392C844 335 877 269 890 261C907 249 906 235 891 223C865 202 847 188 831 183C820 178 810 181 800 189C780 205 753 225 712 242C701 246 715 280 726 275Z"/>
<path id="z34690d15" d="M773 413C774 430 791 431 801 440C835 467 865 526 865 588C866 599 861 627 819 618C795 612 777 607 757 605C751 604 749 605 749 611C750 615 754 622 765 630C806 657 830 679 841 701C845 708 850 715 859 717C865 718 876 716 884 707C908 682 920 650 923 615C928 563 901 480 834 420C818 405 810 402 814 392C817 377 770 398 773 413Z"/>
<path id="z34690d16" d="M674 923C676 939 680 949 685 955C689 959 692 962 697 960C706 954 710 932 715 895C718 844 720 755 719 705C718 686 717 560 717 366C717 352 720 308 726 275C728 263 722 248 712 242C695 229 682 223 674 222C666 220 658 219 650 226C643 229 643 236 649 244C661 267 670 312 670 337C672 427 671 564 670 707C668 795 670 893 674 923Z"/>
<defs>
	<clipPath id="z34690c1"><use href="#z34690d1"/></clipPath>
	<clipPath id="z34690c2"><use href="#z34690d2"/></clipPath>
	<clipPath id="z34690c3"><use href="#z34690d3"/></clipPath>
	<clipPath id="z34690c4"><use href="#z34690d4"/></clipPath>
	<clipPath id="z34690c5"><use href="#z34690d5"/></clipPath>
	<clipPath id="z34690c6"><use href="#z34690d6"/></clipPath>
	<clipPath id="z34690c7"><use href="#z34690d7"/></clipPath>
	<clipPath id="z34690c8"><use href="#z34690d8"/></clipPath>
	<clipPath id="z34690c9"><use href="#z34690d9"/></clipPath>
	<clipPath id="z34690c10"><use href="#z34690d10"/></clipPath>
	<clipPath id="z34690c11"><use href="#z34690d11"/></clipPath>
	<clipPath id="z34690c12"><use href="#z34690d12"/></clipPath>
	<clipPath id="z34690c13"><use href="#z34690d13"/></clipPath>
	<clipPath id="z34690c14"><use href="#z34690d14"/></clipPath>
	<clipPath id="z34690c15"><use href="#z34690d15"/></clipPath>
	<clipPath id="z34690c16"><use href="#z34690d16"/></clipPath>
</defs>
<path style="--d:1s;" pathLength="3333" clip-path="url(#z34690c1)" d="M81 353L108 374L153 532"/>
<path style="--d:2s;" pathLength="3333" clip-path="url(#z34690c2)" d="M123 356L320 322L351 348L320 448"/>
<path style="--d:3s;" pathLength="3333" clip-path="url(#z34690c3)" d="M154 494L360 462"/>
<path style="--d:4s;" pathLength="3333" clip-path="url(#z34690c4)" d="M178 141L234 191L220 619"/>
<path style="--d:5s;" pathLength="3333" clip-path="url(#z34690c5)" d="M64 664L125 678L323 583"/>
<path style="--d:6s;" pathLength="3333" clip-path="url(#z34690c6)" d="M310 534L359 634"/>
<path style="--d:7s;" pathLength="3333" clip-path="url(#z34690c7)" d="M466 79L582 146"/>
<path style="--d:8s;" pathLength="3333" clip-path="url(#z34690c8)" d="M437 265L570 244L592 261L554 480"/>
<path style="--d:9s;" pathLength="3333" clip-path="url(#z34690c9)" d="M448 376L526 359"/>
<path style="--d:10s;" pathLength="3333" clip-path="url(#z34690c10)" d="M448 470L545 452"/>
<path style="--d:11s;" pathLength="3333" clip-path="url(#z34690c11)" d="M389 253L426 319L410 704L420 717L519 631"/>
<path style="--d:12s;" pathLength="3333" clip-path="url(#z34690c12)" d="M596 522L612 563L550 607"/>
<path style="--d:13s;" pathLength="3333" clip-path="url(#z34690c13)" d="M475 567L569 658L586 712"/>
<path style="--d:14s;" pathLength="3333" clip-path="url(#z34690c14)" d="M711 257L806 212L855 251L780 408"/>
<path style="--d:15s;" pathLength="3333" clip-path="url(#z34690c15)" d="M781 411L807 414L859 479L894 603L851 668L756 613"/>
<path style="--d:16s;" pathLength="3333" clip-path="url(#z34690c16)" d="M651 232L694 281L694 954"/>
</svg>