<!--
AnimCJK 2016-2018 Copyright Francois Mizessyn, https://github.com/parsimonhi/animCJK
Derived from:
    MakeMeAHanzi project - https://github.com/skishore/makemeahanzi
    Arphic PL KaitiM GB - https://apps.ubuntu.com/cat/applications/precise/fonts-arphic-gkai00mp/
    Arphic PL UKai - https://apps.ubuntu.com/cat/applications/fonts-arphic-ukai/
You can redistribute and/or modify this file under the terms of the Arphic Public License
as published by Arphic Technology Co., Ltd.
You should have received a copy of this license (the directory "APL") along with this file;
if not, see http://ftp.gnu.org/non-gnu/chinese-fonts-truetype/LICENSE.
-->
<svg id="z34701" class="acjk" version="1.1" viewBox="0 0 1024 1024" xmlns="http://www.w3.org/2000/svg" xmlns:xlink="http://www.w3.org/1999/xlink">
<style>
<![CDATA[
@keyframes z34701k {
	from {
		stroke:#c00;
		stroke-dashoffset:3334;
	}
	75% {
		stroke:#c00;
		stroke-dashoffset:0;
	}
	to {
		stroke:#000;
	}
}
#z34701 path[clip-path] {
	animation:z34701k 1s linear both;
	stroke-dasharray:3334;
	stroke-width:128;
	stroke-linecap:round;
	fill:none;
}
#z34701 path[clip-path="url(#z34701c1)"] {animation-delay:1s;}
#z34701 path[clip-path="url(#z34701c2)"] {animation-delay:2s;}
#z34701 path[clip-path="url(#z34701c3)"] {animation-delay:3s;}
#z34701 path[clip-path="url(#z34701c4)"] {animation-delay:4s;}
#z34701 path[clip-path="url(#z34701c5)"] {animation-delay:5s;}
#z34701 path[clip-path="url(#z34701c6)"] {animation-delay:6s;}
#z34701 path[clip-path="url(#z34701c7)"] {animation-delay:7s;}
#z34701 path[clip-path="url(#z34701c8)"] {animation-delay:8s;}
#z34701 path[clip-path="url(#z34701c9)"] {animation-delay:9s;}
#z34701 path[clip-path="url(#z34701c10)"] {animation-delay:10s;}
#z34701 path[clip-path="url(#z34701c11)"] {animation-delay:11s;}
#z34701 path[clip-path="url(#z34701c12)"] {animation-delay:12s;}
#z34701 path[clip-path="url(#z34701c13)"] {animation-delay:13s;}
#z34701 path[clip-path="url(#z34701c14)"] {animation-delay:14s;}
#z34701 path[clip-path="url(#z34701c15)"] {animation-delay:15s;}
#z34701 path[clip-path="url(#z34701c16)"] {animation-delay:16s;}
#z34701 path {fill:#ccc;}
]]>
</style>
<path id="z34701d1" d="M205 186Q168 193 195 209Q241 233 295 217Q373 199 453 180Q490 170 496 165Q505 156 500 148Q493 136 462 130Q431 124 400 138Q360 153 314 166Q263 179 205 186 Z"/>
<path id="z34701d2" d="M230 299Q220 295 198 292Q188 289 185 294Q179 300 187 314Q208 351 222 415Q226 434 237 446Q253 465 258 451Q259 447 260 439L259 410Q249 341 248 323L230 299 Z"/>
<path id="z34701d3" d="M422 385Q440 328 463 312Q476 296 464 283Q451 273 409 255Q396 249 378 256Q320 280 230 299L248 323Q269 317 369 296Q382 292 388 298Q395 304 394 317Q388 353 382 382L422 385 Z"/>
<path id="z34701d4" d="M260 439Q264 439 269 438Q321 426 434 414Q443 413 444 406Q444 399 422 385L382 382Q379 381 377 382Q313 398 259 410L260 439 Z"/>
<path id="z34701d5" d="M164 520C146 508 128 501 113 504C104 505 102 511 106 519C132 583 135 656 116 757C107 799 103 829 124 856C130 863 134 867 140 863C160 848 170 808 171 744C171 642 171 578 173 554 Z"/>
<path id="z34701d6" d="M173 554C177 553 183 551 189 550C250 530 330 505 427 495C435 494 443 496 450 502C454 505 455 511 456 520C458 542 456 782 445 794C440 798 437 801 431 801C414 799 397 797 380 796C365 794 363 801 375 809C412 832 439 852 456 871C465 881 475 881 484 872C494 859 504 843 508 822C511 800 506 732 504 615C503 572 499 539 512 517C519 504 521 497 518 493C512 486 496 475 469 460C458 454 443 455 420 463C408 466 271 494 164 520 Z"/>
<path id="z34701d7" d="M246 544C250 555 236 573 218 598C208 611 197 624 185 638C181 641 179 643 178 645C176 651 178 651 183 651C199 650 227 632 265 596C270 591 278 582 286 576C291 572 293 568 292 562C291 557 287 554 277 544C268 537 261 532 254 531C247 530 244 537 246 544 Z"/>
<path id="z34701d8" d="M371 606C349 604 338 598 331 589C321 576 326 543 326 531C326 527 321 521 323 518C323 510 334 510 342 511C349 514 367 518 362 529C356 543 354 571 366 575C383 580 406 572 416 567C423 564 452 576 449 585C441 607 382 606 371 606 Z"/>
<path id="z34701d9" d="M325 685C357 680 387 674 415 671C429 669 434 662 429 655C422 646 411 640 395 637C380 634 359 636 334 643C287 655 243 667 203 676C192 678 192 686 206 694C216 699 232 699 279 692 Z"/>
<path id="z34701d10" d="M279 692Q273 824 294 842Q303 852 312 832Q336 778 325 685L279 692 Z"/>
<path id="z34701d11" d="M586 394Q576 388 546 384Q536 381 532 386Q528 392 535 406Q562 458 578 546Q582 573 597 590Q613 609 618 595Q619 588 621 576L618 545Q612 529 597 425L586 394 Z"/>
<path id="z34701d12" d="M861 506C877 452 895 417 915 399C926 387 927 373 916 364C865 323 824 321 790 340C772 349 754 354 737 360L693 373C659 383 621 386 586 394L597 425C605 424 614 421 623 419C645 412 670 409 693 404L736 393C786 380 814 375 823 383C828 387 832 396 831 408C827 442 820 473 814 501 Z"/>
<path id="z34701d13" d="M733 556Q791 546 873 537Q883 536 884 527Q884 520 861 506L814 501Q771 510 734 521L692 531Q652 538 618 545L621 576Q625 577 636 575Q658 568 691 563L733 556 Z"/>
<path id="z34701d14" d="M729 699C729 650 731 602 733 556L734 521C735 477 734 434 736 393L737 360C738 297 743 236 757 179C759 170 754 160 739 152C715 138 693 132 677 130C666 128 658 129 652 136C647 140 646 149 653 159C673 191 685 217 686 239C687 281 693 326 693 373L693 404C693 444 693 487 692 531L691 563C689 609 688 658 686 710 Z"/>
<path id="z34701d15" d="M839 670Q787 683 729 699L686 710Q637 720 586 733Q567 739 536 736Q523 737 521 746Q520 759 527 767Q548 783 579 803Q588 806 600 799Q646 768 807 709Q819 705 850 691L839 670 Z"/>
<path id="z34701d16" d="M850 691Q916 818 918 821Q925 824 933 818Q946 811 948 773Q949 719 832 616Q826 610 821 619Q817 629 823 641Q830 654 839 670L850 691 Z"/>
<defs>
	<clipPath id="z34701c1"><use xlink:href="#z34701d1"/></clipPath>
	<clipPath id="z34701c2"><use xlink:href="#z34701d2"/></clipPath>
	<clipPath id="z34701c3"><use xlink:href="#z34701d3"/></clipPath>
	<clipPath id="z34701c4"><use xlink:href="#z34701d4"/></clipPath>
	<clipPath id="z34701c5"><use xlink:href="#z34701d5"/></clipPath>
	<clipPath id="z34701c6"><use xlink:href="#z34701d6"/></clipPath>
	<clipPath id="z34701c7"><use xlink:href="#z34701d7"/></clipPath>
	<clipPath id="z34701c8"><use xlink:href="#z34701d8"/></clipPath>
	<clipPath id="z34701c9"><use xlink:href="#z34701d9"/></clipPath>
	<clipPath id="z34701c10"><use xlink:href="#z34701d10"/></clipPath>
	<clipPath id="z34701c11"><use xlink:href="#z34701d11"/></clipPath>
	<clipPath id="z34701c12"><use xlink:href="#z34701d12"/></clipPath>
	<clipPath id="z34701c13"><use xlink:href="#z34701d13"/></clipPath>
	<clipPath id="z34701c14"><use xlink:href="#z34701d14"/></clipPath>
	<clipPath id="z34701c15"><use xlink:href="#z34701d15"/></clipPath>
	<clipPath id="z34701c16"><use xlink:href="#z34701d16"/></clipPath>
</defs>
<path pathLength="3333" clip-path="url(#z34701c1)" d="M191 196L256 201L495 149"/>
<path pathLength="3333" clip-path="url(#z34701c2)" d="M189 296L226 341L246 450"/>
<path pathLength="3333" clip-path="url(#z34701c3)" d="M239 302L405 280L431 306L401 382"/>
<path pathLength="3333" clip-path="url(#z34701c4)" d="M265 430L437 405"/>
<path pathLength="3333" clip-path="url(#z34701c5)" d="M112 510L149 569L131 857"/>
<path pathLength="3333" clip-path="url(#z34701c6)" d="M177 542L441 476L487 505L477 806L455 839L374 801"/>
<path pathLength="3333" clip-path="url(#z34701c7)" d="M250 540L268 566L191 639"/>
<path pathLength="3333" clip-path="url(#z34701c8)" d="M338 515L350 583L445 583"/>
<path pathLength="3333" clip-path="url(#z34701c9)" d="M205 685L423 661"/>
<path pathLength="3333" clip-path="url(#z34701c10)" d="M320 693L300 834"/>
<path pathLength="3333" clip-path="url(#z34701c11)" d="M539 393L573 430L611 595"/>
<path pathLength="3333" clip-path="url(#z34701c12)" d="M592 395L843 359L877 392L828 502"/>
<path pathLength="3333" clip-path="url(#z34701c13)" d="M626 569L876 523"/>
<path pathLength="3333" clip-path="url(#z34701c14)" d="M656 137L719 192L696 704"/>
<path pathLength="3333" clip-path="url(#z34701c15)" d="M527 743L590 767L842 679"/>
<path pathLength="3333" clip-path="url(#z34701c16)" d="M828 621L916 755L925 817"/>
</svg>