<!--
AnimCJK 2016-2026 Copyright FM-SH, https://github.com/parsimonhi/animCJK
Derived from:
    MakeMeAHanzi project - https://github.com/skishore/makemeahanzi
    Arphic PL KaitiM GB font
    Arphic PL KaitiM Big5 font
You can redistribute and/or modify this file under the terms of the Arphic Public License
as published by Arphic Technology Co., Ltd.
You should have received a copy of this license along with this file.
If not, see https://ftp.gnu.org/non-gnu/chinese-fonts-truetype/LICENSE.
-->
<svg id="z34833" class="acjk" viewBox="0 0 1024 1024" xmlns="http://www.w3.org/2000/svg">
<style>
<![CDATA[
@keyframes zk {
	to {
		stroke-dashoffset:0;
	}
}
svg.acjk path[clip-path] {
	--t:0.8s;
	animation:zk var(--t) linear forwards var(--d);
	stroke-dasharray:3337;
	stroke-dashoffset:3339;
	stroke-width:128;
	stroke-linecap:round;
	fill:none;
	stroke:#000;
}
svg.acjk path[id] {fill:#ccc;}
]]>
</style>
<path id="z34833d1" d="M133 360Q121 356 94 353Q84 350 80 355Q76 361 83 375Q111 424 130 506Q134 531 149 546Q165 565 170 551Q173 539 172 522C169 503 169 503 167 494Q149 415 146 388C144 378 143 362 133 360Z"/>
<path id="z34833d2" d="M347 459Q372 384 397 366Q410 350 397 335Q328 287 278 319Q272 320 266 324C237 333 237 333 222 338Q179 350 133 360C123 362 136 390 146 388Q158 387 169 382Q194 375 222 369C251 362 251 362 265 359Q278 355 294 352Q310 348 316 353Q328 365 306 456C303 469 342 472 347 459Z"/>
<path id="z34833d3" d="M261 504Q301 494 359 487Q368 486 369 478Q369 471 347 459C335 452 320 454 306 456Q302 456 301 457Q279 463 262 469C235 477 235 477 222 481Q191 488 167 494C158 496 163 524 172 522Q175 522 221 512C248 507 248 507 261 504Z"/>
<path id="z34833d4" d="M256 629Q257 565 261 504C262 481 262 481 262 469Q263 412 265 359C266 336 266 336 266 324Q269 260 286 168Q290 158 270 143Q236 125 212 121Q196 118 188 127Q181 134 189 149Q217 191 218 220Q221 277 222 338C222 359 222 359 222 369Q222 423 222 481C221 502 221 502 221 512Q220 575 216 643C216 657 256 643 256 629Z"/>
<path id="z34833d5" d="M323 604Q290 616 256 629C229 638 229 638 216 643Q93 682 71 683Q58 686 57 695Q56 708 65 715Q87 728 120 745Q130 748 141 739Q165 717 301 643Q319 633 332 622C337 618 329 602 323 604Z"/>
<path id="z34833d6" d="M332 622Q357 679 367 683Q374 686 382 679Q389 670 392 648Q393 621 335 573Q325 566 320 566Q316 567 313 576Q312 583 323 604C329 616 329 616 332 622Z"/>
<path id="z34833d7" d="M390 211Q423 272 441 275Q451 279 458 265Q462 255 457 239Q450 212 398 191Q391 188 389 197Q386 203 390 211Z"/>
<path id="z34833d8" d="M533 232Q532 231 534 231Q597 195 627 183Q640 182 638 173Q635 161 622 147Q610 132 594 130Q584 129 583 143Q584 156 536 209C531 215 527 236 533 232Z"/>
<path id="z34833d9" d="M524 279Q530 245 533 232C535 217 535 217 536 209Q536 200 545 151Q549 135 534 128Q497 109 486 111Q471 112 482 130Q498 155 489 255Q485 277 475 304Q463 334 426 372Q416 382 412 386Q411 392 420 392Q444 392 480 357Q501 338 518 298C522 285 522 285 524 279Z"/>
<path id="z34833d10" d="M518 298Q566 346 580 346Q589 347 592 335Q593 326 586 314Q571 290 524 279C517 278 513 293 518 298Z"/>
<path id="z34833d11" d="M600 236Q630 278 647 281Q656 282 661 270Q662 261 657 247Q651 237 636 231Q614 221 605 218Q598 217 597 224Q596 230 600 236Z"/>
<path id="z34833d12" d="M813 151Q801 173 775 209Q771 215 775 221Q782 222 788 218Q846 182 876 169Q891 165 887 156Q883 143 866 127Q850 111 831 109Q818 110 819 126Q820 138 813 151Z"/>
<path id="z34833d13" d="M737 257Q743 242 759 152Q759 133 766 117Q772 101 758 96Q742 86 730 83Q711 73 696 80Q686 84 692 97Q713 118 704 215Q703 218 703 221Q691 285 617 361Q613 364 610 368Q600 377 610 378Q655 372 697 325Q718 301 731 273C735 262 735 262 737 257Z"/>
<path id="z34833d14" d="M731 273Q732 274 735 277Q772 304 818 343Q831 356 842 357Q848 358 852 350Q859 340 847 311Q843 295 829 286Q802 268 737 257C731 256 727 269 731 273Z"/>
<path id="z34833d15" d="M458 442Q445 415 428 405Q425 401 420 405Q416 409 414 419Q418 449 390 511Q380 527 382 543Q385 561 393 574Q400 584 405 578Q417 575 432 530Q451 473 458 466C462 459 462 449 458 442Z"/>
<path id="z34833d16" d="M458 466Q482 479 532 464Q604 437 732 421Q754 418 762 418Q778 424 776 434Q766 470 755 508Q762 511 777 500Q820 469 858 459Q888 452 887 443Q884 433 822 390Q798 372 723 391Q708 392 530 428Q494 435 459 441Q458 441 458 442C451 445 451 463 458 466Z"/>
<path id="z34833d17" d="M642 604Q706 591 804 578Q814 579 821 568Q822 558 802 548Q775 529 668 560Q658 561 648 565Q645 565 644 566C613 573 613 573 598 577Q564 581 532 587Q495 591 452 598Q427 602 446 617Q473 636 514 630Q539 624 573 618C619 609 619 609 642 604Z"/>
<path id="z34833d18" d="M641 607Q641 606 642 604C643 579 643 579 644 566Q645 541 649 525Q652 513 645 508Q623 489 606 480Q594 476 586 483Q580 486 587 495Q593 504 598 577C596 637 596 637 595 667Q595 784 577 856Q565 911 613 961C614 962 614 962 615 962Q625 963 631 951Q643 923 640 893Q639 758 641 646Q641 643 641 641C641 618 641 618 641 607Z"/>
<path id="z34833d19" d="M573 618Q516 726 343 847Q333 857 340 859Q347 863 358 859Q487 817 595 667C620 626 595 575 573 618Z"/>
<path id="z34833d20" d="M641 641Q708 734 794 832Q824 862 962 834Q971 831 972 827Q972 823 960 816Q822 762 746 700Q697 658 641 607C632 600 634 632 641 641Z"/>
<defs>
	<clipPath id="z34833c1"><use href="#z34833d1"/></clipPath>
	<clipPath id="z34833c2"><use href="#z34833d2"/></clipPath>
	<clipPath id="z34833c3"><use href="#z34833d3"/></clipPath>
	<clipPath id="z34833c4"><use href="#z34833d4"/></clipPath>
	<clipPath id="z34833c5"><use href="#z34833d5"/></clipPath>
	<clipPath id="z34833c6"><use href="#z34833d6"/></clipPath>
	<clipPath id="z34833c7"><use href="#z34833d7"/></clipPath>
	<clipPath id="z34833c8"><use href="#z34833d8"/></clipPath>
	<clipPath id="z34833c9"><use href="#z34833d9"/></clipPath>
	<clipPath id="z34833c10"><use href="#z34833d10"/></clipPath>
	<clipPath id="z34833c11"><use href="#z34833d11"/></clipPath>
	<clipPath id="z34833c12"><use href="#z34833d12"/></clipPath>
	<clipPath id="z34833c13"><use href="#z34833d13"/></clipPath>
	<clipPath id="z34833c14"><use href="#z34833d14"/></clipPath>
	<clipPath id="z34833c15"><use href="#z34833d15"/></clipPath>
	<clipPath id="z34833c16"><use href="#z34833d16"/></clipPath>
	<clipPath id="z34833c17"><use href="#z34833d17"/></clipPath>
	<clipPath id="z34833c18"><use href="#z34833d18"/></clipPath>
	<clipPath id="z34833c19"><use href="#z34833d19"/></clipPath>
	<clipPath id="z34833c20"><use href="#z34833d20"/></clipPath>
</defs>
<path style="--d:1s;" pathLength="3333" clip-path="url(#z34833c1)" d="M86 361L117 381L159 548"/>
<path style="--d:2s;" pathLength="3333" clip-path="url(#z34833c2)" d="M137 369L343 336L362 358L318 464"/>
<path style="--d:3s;" pathLength="3333" clip-path="url(#z34833c3)" d="M166 509L363 474"/>
<path style="--d:4s;" pathLength="3333" clip-path="url(#z34833c4)" d="M190 129L248 175L230 645"/>
<path style="--d:5s;" pathLength="3333" clip-path="url(#z34833c5)" d="M61 697L123 709L327 614"/>
<path style="--d:6s;" pathLength="3333" clip-path="url(#z34833c6)" d="M321 574L376 678"/>
<path style="--d:7s;" pathLength="3333" clip-path="url(#z34833c7)" d="M394 195L450 268"/>
<path style="--d:8s;" pathLength="3333" clip-path="url(#z34833c8)" d="M592 138L601 176L535 223"/>
<path style="--d:9s;" pathLength="3333" clip-path="url(#z34833c9)" d="M484 119L518 156L505 272L479 333L419 386"/>
<path style="--d:10s;" pathLength="3333" clip-path="url(#z34833c10)" d="M523 286L588 336"/>
<path style="--d:11s;" pathLength="3333" clip-path="url(#z34833c11)" d="M604 226L653 275"/>
<path style="--d:12s;" pathLength="3333" clip-path="url(#z34833c12)" d="M830 114L848 159L781 216"/>
<path style="--d:13s;" pathLength="3333" clip-path="url(#z34833c13)" d="M697 88L735 115L718 248L675 321L612 372"/>
<path style="--d:14s;" pathLength="3333" clip-path="url(#z34833c14)" d="M732 265L806 301L847 348"/>
<path style="--d:15s;" pathLength="3333" clip-path="url(#z34833c15)" d="M424 408L436 449L398 573"/>
<path style="--d:16s;" pathLength="3333" clip-path="url(#z34833c16)" d="M457 454L781 401L834 456L763 501"/>
<path style="--d:17s;" pathLength="3333" clip-path="url(#z34833c17)" d="M446 606L815 561"/>
<path style="--d:18s;" pathLength="3333" clip-path="url(#z34833c18)" d="M591 490L621 525L618 958"/>
<path style="--d:19s;" pathLength="3333" clip-path="url(#z34833c19)" d="M591 607L508 738L345 852"/>
<path style="--d:20s;" pathLength="3333" clip-path="url(#z34833c20)" d="M642 616L821 799L965 828"/>
</svg>