<!--
AnimCJK 2016-2017 Copyright Francois Mizessyn, http://gooo.free.fr/animCJK/
Derived from:
    MakeMeAHanzi project - https://github.com/skishore/makemeahanzi
    Arphic PL KaitiM GB - https://apps.ubuntu.com/cat/applications/precise/fonts-arphic-gkai00mp/
    Arphic PL UKai - https://apps.ubuntu.com/cat/applications/fonts-arphic-ukai/
You can redistribute and/or modify this file under the terms of the Arphic Public License
as published by Arphic Technology Co., Ltd.
You should have received a copy of this license (the directory "APL") along with this file;
if not, see http://ftp.gnu.org/non-gnu/chinese-fonts-truetype/LICENSE.
-->
<svg id="z34880" class="acjk" version="1.1" viewBox="0 0 1024 1024" xmlns="http://www.w3.org/2000/svg" xmlns:xlink="http://www.w3.org/1999/xlink">
<style>
<![CDATA[
	@keyframes z34880k {
		from {
			stroke:#c00;
			stroke-dashoffset:3000;
		}
		75% {
			stroke:#c00;
			stroke-dashoffset:0;
		}
		to {
			stroke:#000;
		}
	}
	#z34880 path[clip-path] {
		animation:z34880k 1s linear both;
		stroke-dasharray:3000;
		stroke-width:128;
		stroke-linecap:round;
		fill:none;
	}
	#z34880 path[clip-path="url(#z34880c1)"] {animation-delay:1s;}
	#z34880 path[clip-path="url(#z34880c2)"] {animation-delay:2s;}
	#z34880 path[clip-path="url(#z34880c3)"] {animation-delay:3s;}
	#z34880 path[clip-path="url(#z34880c4)"] {animation-delay:4s;}
	#z34880 path[clip-path="url(#z34880c5)"] {animation-delay:5s;}
	#z34880 path[clip-path="url(#z34880c6)"] {animation-delay:6s;}
	#z34880 path {fill:#ccc;}
]]>
</style>
<g transform="scale(1,-1) translate(0,-900)">
	<path id="z34880d1" d="M349 442Q398 506 507 665Q523 690 546 710Q567 729 549 745Q527 760 492 768Q461 775 447 767Q432 761 442 747Q460 714 398 585Q364 516 326 441Q325 440 325 439L349 442Z"/>
	<path id="z34880d2" d="M274 432Q252 445 227 451Q211 455 203 448Q196 441 204 425Q229 385 244 339Q256 294 286 112L329 116Q296 341 299 388L274 432Z"/>
	<path id="z34880d3" d="M744 161Q781 354 825 430Q838 443 832 456Q825 475 755 505Q736 515 720 509Q549 472 349 442L325 439Q298 438 274 432L299 388Q306 389 314 393Q351 402 391 410L412 414Q470 427 534 438L589 447Q691 471 719 455Q729 448 729 417Q716 308 681 152L744 161Z"/>
	<path id="z34880d4" d="M443 126Q473 159 430 377Q429 398 415 412Q414 413 412 414L391 410Q391 401 397 356Q401 320 400 279Q397 162 431 125L443 126Z"/>
	<path id="z34880d5" d="M555 137Q568 176 603 329Q624 413 624 414Q620 427 589 447L534 438Q535 437 537 434Q561 385 527 174Q524 152 526 133L555 137Z"/>
	<path id="z34880d6" d="M286 112Q204 108 117 99Q90 98 109 75Q125 57 148 49Q175 42 195 47Q472 110 910 88Q935 87 942 98Q949 113 929 130Q857 187 785 168Q764 167 744 161L681 152Q623 146 555 137L526 133Q514 134 503 132Q473 131 443 126L431 125Q380 122 329 116L286 112Z"/>
	<defs>
		<clipPath id="z34880c1"><use xlink:href="#z34880d1"/></clipPath>
		<clipPath id="z34880c2"><use xlink:href="#z34880d2"/></clipPath>
		<clipPath id="z34880c3"><use xlink:href="#z34880d3"/></clipPath>
		<clipPath id="z34880c4"><use xlink:href="#z34880d4"/></clipPath>
		<clipPath id="z34880c5"><use xlink:href="#z34880d5"/></clipPath>
		<clipPath id="z34880c6"><use xlink:href="#z34880d6"/></clipPath>
	</defs>
	<path pathLength="2999" clip-path="url(#z34880c1)" d="M444 760L503 720L334 444"/>
	<path pathLength="2999" clip-path="url(#z34880c2)" d="M205 446L268 374L306 115"/>
	<path pathLength="2999" clip-path="url(#z34880c3)" d="M285 428L322 415L706 484L755 469L781 434L718 180L689 157"/>
	<path pathLength="2999" clip-path="url(#z34880c4)" d="M408 408L438 130"/>
	<path pathLength="2999" clip-path="url(#z34880c5)" d="M543 434L585 397L540 136"/>
	<path pathLength="2999" clip-path="url(#z34880c6)" d="M109 91L179 75L804 132L939 114"/>
</g>
</svg>