<!--
AnimCJK 2016-2017 Copyright Francois Mizessyn, http://gooo.free.fr/animCJK/
Derived from:
    MakeMeAHanzi project - https://github.com/skishore/makemeahanzi
    Arphic PL KaitiM GB - https://apps.ubuntu.com/cat/applications/precise/fonts-arphic-gkai00mp/
    Arphic PL UKai - https://apps.ubuntu.com/cat/applications/fonts-arphic-ukai/
You can redistribute and/or modify this file under the terms of the Arphic Public License
as published by Arphic Technology Co., Ltd.
You should have received a copy of this license (the directory "APL") along with this file;
if not, see http://ftp.gnu.org/non-gnu/chinese-fonts-truetype/LICENSE.
-->
<svg id="z34909" class="acjk" version="1.1" viewBox="0 0 1024 1024" xmlns="http://www.w3.org/2000/svg" xmlns:xlink="http://www.w3.org/1999/xlink">
<style>
<![CDATA[
	@keyframes z34909k {
		from {
			stroke:#c00;
			stroke-dashoffset:3000;
		}
		75% {
			stroke:#c00;
			stroke-dashoffset:0;
		}
		to {
			stroke:#000;
		}
	}
	#z34909 path[clip-path] {
		animation:z34909k 1s linear both;
		stroke-dasharray:3000;
		stroke-width:128;
		stroke-linecap:round;
		fill:none;
	}
	#z34909 path[clip-path="url(#z34909c1)"] {animation-delay:1s;}
	#z34909 path[clip-path="url(#z34909c2)"] {animation-delay:2s;}
	#z34909 path[clip-path="url(#z34909c3)"] {animation-delay:3s;}
	#z34909 path[clip-path="url(#z34909c4)"] {animation-delay:4s;}
	#z34909 path[clip-path="url(#z34909c5)"] {animation-delay:5s;}
	#z34909 path[clip-path="url(#z34909c6)"] {animation-delay:6s;}
	#z34909 path[clip-path="url(#z34909c7)"] {animation-delay:7s;}
	#z34909 path[clip-path="url(#z34909c8)"] {animation-delay:8s;}
	#z34909 path[clip-path="url(#z34909c9)"] {animation-delay:9s;}
	#z34909 path[clip-path="url(#z34909c10)"] {animation-delay:10s;}
	#z34909 path[clip-path="url(#z34909c11)"] {animation-delay:11s;}
	#z34909 path[clip-path="url(#z34909c12)"] {animation-delay:12s;}
	#z34909 path[clip-path="url(#z34909c13)"] {animation-delay:13s;}
	#z34909 path[clip-path="url(#z34909c14)"] {animation-delay:14s;}
	#z34909 path[clip-path="url(#z34909c15)"] {animation-delay:15s;}
	#z34909 path {fill:#ccc;}
]]>
</style>
<g transform="scale(1,-1) translate(0,-900)">
	<path id="z34909d1" d="M246 817Q253 799 245 784Q206 703 113 602Q103 595 100 589Q96 579 109 581Q151 581 271 715Q286 740 314 762Q323 769 320 783Q319 793 295 817Q273 835 257 837Q241 837 246 817Z"/>
	<path id="z34909d2" d="M203 443Q234 480 270 527Q295 563 315 580Q324 587 320 600Q319 610 295 632Q274 650 258 651Q242 651 247 632Q271 569 57 335Q51 331 48 326Q38 317 36 313Q32 303 45 305Q69 308 175 413L203 443Z"/>
	<path id="z34909d3" d="M175 413Q190 380 192 308Q192 209 170 123Q158 74 193 33L194 31Q210 16 222 41Q235 80 235 123Q236 322 243 367Q250 392 241 402Q225 421 203 443L175 413Z"/>
	<path id="z34909d4" d="M474 723Q538 757 581 770Q596 771 598 778Q601 788 590 796Q539 827 508 823Q502 819 503 810Q503 777 360 694Q356 687 361 684Q373 684 438 709L474 723Z"/>
	<path id="z34909d5" d="M502 618Q632 652 635 653Q642 660 639 667Q632 676 609 682Q590 685 504 657L458 644Q406 634 346 626Q318 622 338 607Q371 589 420 601Q436 605 460 609L502 618Z"/>
	<path id="z34909d6" d="M347 522Q337 525 320 527Q310 530 308 525Q304 521 310 508Q335 457 353 374Q356 349 371 333Q386 317 389 328Q390 332 391 338L390 365Q389 374 387 383Q369 465 365 493L347 522Z"/>
	<path id="z34909d7" d="M554 365Q566 349 577 342Q586 335 600 353Q612 369 641 467Q648 494 670 515Q682 525 672 538Q659 553 622 576Q604 585 536 565Q533 565 500 556L460 548Q444 545 428 541Q382 529 347 522L365 493Q374 502 460 519L500 528Q575 547 591 537Q601 530 597 514Q572 403 556 396L554 365Z"/>
	<path id="z34909d8" d="M499 448Q524 455 550 459Q569 463 561 474Q551 484 530 488Q517 489 500 484L460 470Q433 460 409 451Q396 447 413 436Q414 436 459 439L499 448Z"/>
	<path id="z34909d9" d="M498 356Q523 362 554 365L556 396L556 397Q543 404 518 396Q506 395 498 390L458 379Q422 372 390 365L391 338Q398 337 406 339Q425 345 458 350L498 356Z"/>
	<path id="z34909d10" d="M497 182Q497 222 497 258L497 300Q497 328 498 356L498 390Q498 420 499 448L500 484L500 528L500 556L502 618L504 657Q504 667 505 675Q511 693 502 702Q487 715 474 723L438 709Q456 669 458 644L460 609Q460 591 460 548L460 519Q460 497 460 470L459 439Q458 412 458 379L458 350Q457 322 457 289L456 249Q456 215 456 174L497 182Z"/>
	<path id="z34909d11" d="M497 258Q590 279 596 284Q603 291 599 298Q592 308 567 314Q531 320 497 300L457 289Q421 280 379 276Q348 270 370 256Q406 238 456 249L497 258Z"/>
	<path id="z34909d12" d="M456 174Q327 150 293 151Q283 151 280 143Q276 131 284 124Q303 108 329 89Q338 85 349 92Q398 119 601 179Q631 188 653 201Q665 207 666 214Q662 220 651 218Q578 202 497 182L456 174Z"/>
	<path id="z34909d13" d="M695 649Q656 639 686 623Q734 604 792 620Q837 632 885 644Q906 650 909 653Q918 663 912 672Q903 684 872 689Q839 693 808 678Q784 668 758 661Q730 654 695 649Z"/>
	<path id="z34909d14" d="M788 452Q839 470 964 471Q982 472 986 481Q990 491 974 503Q919 536 864 514Q833 507 789 494Q731 481 661 465Q643 461 658 447Q671 437 688 433Q707 429 721 435Q734 439 751 443L788 452Z"/>
	<path id="z34909d15" d="M751 443Q766 395 768 374Q768 233 771 89Q770 59 760 48Q751 42 688 61Q657 70 657 64Q657 57 667 48Q731 -6 771 -47Q781 -56 795 -41Q828 10 829 104Q819 251 826 390Q832 415 826 425Q819 437 788 452L751 443Z"/>
	<defs>
		<clipPath id="z34909c1"><use xlink:href="#z34909d1"/></clipPath>
		<clipPath id="z34909c2"><use xlink:href="#z34909d2"/></clipPath>
		<clipPath id="z34909c3"><use xlink:href="#z34909d3"/></clipPath>
		<clipPath id="z34909c4"><use xlink:href="#z34909d4"/></clipPath>
		<clipPath id="z34909c5"><use xlink:href="#z34909d5"/></clipPath>
		<clipPath id="z34909c6"><use xlink:href="#z34909d6"/></clipPath>
		<clipPath id="z34909c7"><use xlink:href="#z34909d7"/></clipPath>
		<clipPath id="z34909c8"><use xlink:href="#z34909d8"/></clipPath>
		<clipPath id="z34909c9"><use xlink:href="#z34909d9"/></clipPath>
		<clipPath id="z34909c10"><use xlink:href="#z34909d10"/></clipPath>
		<clipPath id="z34909c11"><use xlink:href="#z34909d11"/></clipPath>
		<clipPath id="z34909c12"><use xlink:href="#z34909d12"/></clipPath>
		<clipPath id="z34909c13"><use xlink:href="#z34909d13"/></clipPath>
		<clipPath id="z34909c14"><use xlink:href="#z34909d14"/></clipPath>
		<clipPath id="z34909c15"><use xlink:href="#z34909d15"/></clipPath>
	</defs>
	<path pathLength="2999" clip-path="url(#z34909c1)" d="M254 831L283 779L108 588"/>
	<path pathLength="2999" clip-path="url(#z34909c2)" d="M254 645L280 586L172 438L41 312"/>
	<path pathLength="2999" clip-path="url(#z34909c3)" d="M203 429L203 30"/>
	<path pathLength="2999" clip-path="url(#z34909c4)" d="M593 784L522 788L367 691"/>
	<path pathLength="2999" clip-path="url(#z34909c5)" d="M337 619L631 668"/>
	<path pathLength="2999" clip-path="url(#z34909c6)" d="M314 521L345 482L385 333"/>
	<path pathLength="2999" clip-path="url(#z34909c7)" d="M354 520L612 553L636 521L583 345"/>
	<path pathLength="2999" clip-path="url(#z34909c8)" d="M411 445L554 469"/>
	<path pathLength="2999" clip-path="url(#z34909c9)" d="M398 346L554 386"/>
	<path pathLength="2999" clip-path="url(#z34909c10)" d="M446 705L481 672L475 179"/>
	<path pathLength="2999" clip-path="url(#z34909c11)" d="M368 266L595 293"/>
	<path pathLength="2999" clip-path="url(#z34909c12)" d="M284 137L338 122L657 213"/>
	<path pathLength="2999" clip-path="url(#z34909c13)" d="M680 638L910 665"/>
	<path pathLength="2999" clip-path="url(#z34909c14)" d="M656 459L980 491"/>
	<path pathLength="2999" clip-path="url(#z34909c15)" d="M759 437L796 408L793 42L765 -1L665 60"/>
</g>
</svg>