<!--
AnimCJK 2016-2026 Copyright FM-SH - https://github.com/parsimonhi/animCJK
Derived from:
    MakeMeAHanzi project - https://github.com/skishore/makemeahanzi
    Arphic PL KaitiM GB font
    Arphic PL KaitiM Big5 font
You can redistribute and/or modify this file under the terms of the Arphic Public License
as published by Arphic Technology Co., Ltd.
You should have received a copy of this license along with this file.
If not, see https://ftp.gnu.org/non-gnu/chinese-fonts-truetype/LICENSE.
-->
<svg id="z34957" class="acjk" viewBox="0 0 1024 1024" xmlns="http://www.w3.org/2000/svg">
<style>
<![CDATA[
@keyframes zk {
	to {
		stroke-dashoffset:0;
	}
}
svg.acjk path[clip-path] {
	--t:0.8s;
	animation:zk var(--t) linear forwards var(--d);
	stroke-dasharray:3337;
	stroke-dashoffset:3339;
	stroke-width:128;
	stroke-linecap:round;
	fill:none;
	stroke:#000;
}
svg.acjk path[id] {fill:#ccc;}
]]>
</style>
<path id="z34957d1" d="M269 142Q294 166 321 195Q336 211 354 210Q366 210 372 195Q379 179 369 144Q360 111 265 87Q247 83 240 85Q234 89 235 104Q239 117 269 142Z"/>
<path id="z34957d2" d="M260 522Q287 483 316 436Q346 384 389 349Q402 337 390 324Q371 311 342 302Q320 295 304 307Q238 358 109 377Q97 376 95 384Q94 393 107 402Q146 426 183 413Q286 361 290 363C291 364 291 364 291 364Q297 373 286 394Q217 536 67 692Q54 704 56 707Q59 710 71 704Q146 667 235 557C252 534 252 534 260 522Z"/>
<path id="z34957d3" d="M235 557Q263 623 229 795Q208 823 243 887Q246 891 250 897Q266 912 278 887Q291 848 291 805Q292 636 299 597Q306 572 297 562Q267 526 260 522C250 512 230 544 235 557Z"/>
<path id="z34957d4" d="M359 524Q408 481 432 463Q445 457 441 450Q434 438 418 427Q402 415 385 416Q373 417 377 433Q380 445 345 516C343 521 355 527 359 524Z"/>
<path id="z34957d5" d="M345 516Q315 500 308 502Q304 503 304 513C349 568 349 568 371 596Q378 606 390 607Q397 608 402 599Q406 589 403 569Q402 550 377 533Q368 527 359 524C350 519 350 519 345 516Z"/>
<path id="z34957d6" d="M578 300Q579 297 582 295Q619 253 661 188Q679 158 695 143Q704 133 699 119Q695 106 666 85Q639 67 621 67Q602 68 611 91Q629 127 560 246Q527 301 482 361Q472 371 470 378Q467 388 481 386Q496 383 558 323C571 308 571 308 578 300Z"/>
<path id="z34957d7" d="M558 323Q591 339 608 333Q785 275 801 289Q811 305 806 346Q796 461 770 512Q754 543 727 539Q711 536 695 531Q670 522 688 547Q722 587 736 617Q758 639 776 619Q807 597 827 555Q851 509 864 363Q868 311 886 286Q898 273 892 263Q882 253 832 233Q811 226 794 239Q775 251 702 272Q635 291 578 300C568 302 549 319 558 323Z"/>
<path id="z34957d8" d="M652 565Q670 498 691 477Q712 455 691 442Q675 432 650 416Q635 407 592 431Q544 446 528 451C519 454 529 480 538 477Q565 468 603 461Q621 457 624 465Q631 471 623 500Q616 530 605 565C599 580 649 580 652 565Z"/>
<path id="z34957d9" d="M518 609Q530 618 549 613Q586 603 667 595Q676 594 677 586Q677 579 652 565C639 557 620 560 605 565Q557 580 521 587C514 588 512 605 518 609Z"/>
<path id="z34957d10" d="M957 797Q942 766 925 676Q924 660 917 654Q911 650 906 669Q878 766 859 795Q820 846 675 837Q620 833 577 815Q540 796 529 771Q508 729 518 609C520 594 520 594 521 587Q527 536 538 479Q538 478 538 477C540 468 535 458 528 451Q518 441 500 434Q488 430 480 434Q474 437 479 453Q489 489 486 523Q470 730 486 788Q490 818 518 843Q599 915 794 898Q821 894 850 887Q899 874 950 840Q971 824 957 797Z"/>
<defs>
	<clipPath id="z34957c1"><use href="#z34957d1"/></clipPath>
	<clipPath id="z34957c2"><use href="#z34957d2"/></clipPath>
	<clipPath id="z34957c3"><use href="#z34957d3"/></clipPath>
	<clipPath id="z34957c4"><use href="#z34957d4"/></clipPath>
	<clipPath id="z34957c5"><use href="#z34957d5"/></clipPath>
	<clipPath id="z34957c6"><use href="#z34957d6"/></clipPath>
	<clipPath id="z34957c7"><use href="#z34957d7"/></clipPath>
	<clipPath id="z34957c8"><use href="#z34957d8"/></clipPath>
	<clipPath id="z34957c9"><use href="#z34957d9"/></clipPath>
	<clipPath id="z34957c10"><use href="#z34957d10"/></clipPath>
</defs>
<path style="--d:1s;" pathLength="3333" clip-path="url(#z34957c1)" d="M242 94L327 148L358 205"/>
<path style="--d:2s;" pathLength="3333" clip-path="url(#z34957c2)" d="M102 387L179 388L307 331L346 354L205 562L63 702"/>
<path style="--d:3s;" pathLength="3333" clip-path="url(#z34957c3)" d="M255 524L273 594L255 897"/>
<path style="--d:4s;" pathLength="3333" clip-path="url(#z34957c4)" d="M384 424L404 460L354 520"/>
<path style="--d:5s;" pathLength="3333" clip-path="url(#z34957c5)" d="M314 511L377 564L390 603"/>
<path style="--d:6s;" pathLength="3333" clip-path="url(#z34957c6)" d="M618 76L655 132L563 284L476 381"/>
<path style="--d:7s;" pathLength="3333" clip-path="url(#z34957c7)" d="M564 317L804 258L849 283L792 545L747 583L688 534"/>
<path style="--d:8s;" pathLength="3333" clip-path="url(#z34957c8)" d="M529 461L615 438L662 460L618 573"/>
<path style="--d:9s;" pathLength="3333" clip-path="url(#z34957c9)" d="M519 601L671 581"/>
<path style="--d:10s;" pathLength="3333" clip-path="url(#z34957c10)" d="M486 438L511 473L504 771L567 842L721 870L868 841L917 797L913 659"/>
</svg>