<!--
AnimCJK 2016-2018 Copyright Francois Mizessyn, https://github.com/parsimonhi/animCJK
Derived from:
    MakeMeAHanzi project - https://github.com/skishore/makemeahanzi
    Arphic PL KaitiM GB - https://apps.ubuntu.com/cat/applications/precise/fonts-arphic-gkai00mp/
    Arphic PL UKai - https://apps.ubuntu.com/cat/applications/fonts-arphic-ukai/
You can redistribute and/or modify this file under the terms of the Arphic Public License
as published by Arphic Technology Co., Ltd.
You should have received a copy of this license (the directory "APL") along with this file;
if not, see http://ftp.gnu.org/non-gnu/chinese-fonts-truetype/LICENSE.
-->
<svg id="z34996" class="acjk" version="1.1" viewBox="0 0 1024 1024" xmlns="http://www.w3.org/2000/svg" xmlns:xlink="http://www.w3.org/1999/xlink">
<style>
<![CDATA[
@keyframes z34996k {
	from {
		stroke:#c00;
		stroke-dashoffset:3334;
	}
	75% {
		stroke:#c00;
		stroke-dashoffset:0;
	}
	to {
		stroke:#000;
	}
}
#z34996 path[clip-path] {
	animation:z34996k 1s linear both;
	stroke-dasharray:3334;
	stroke-width:128;
	stroke-linecap:round;
	fill:none;
}
#z34996 path[clip-path="url(#z34996c1)"] {animation-delay:1s;}
#z34996 path[clip-path="url(#z34996c2)"] {animation-delay:2s;}
#z34996 path[clip-path="url(#z34996c3)"] {animation-delay:3s;}
#z34996 path[clip-path="url(#z34996c4)"] {animation-delay:4s;}
#z34996 path[clip-path="url(#z34996c5)"] {animation-delay:5s;}
#z34996 path[clip-path="url(#z34996c6)"] {animation-delay:6s;}
#z34996 path[clip-path="url(#z34996c7)"] {animation-delay:7s;}
#z34996 path[clip-path="url(#z34996c8)"] {animation-delay:8s;}
#z34996 path[clip-path="url(#z34996c9)"] {animation-delay:9s;}
#z34996 path[clip-path="url(#z34996c10)"] {animation-delay:10s;}
#z34996 path[clip-path="url(#z34996c11)"] {animation-delay:11s;}
#z34996 path {fill:#ccc;}
]]>
</style>
<path id="z34996d1" d="M384 204Q396 204 402 189Q406 174 398 140Q390 109 293 83Q280 80 269 83Q264 86 265 96L266 101Q270 114 297 136L358 193Q370 204 384 204 Z"/>
<path id="z34996d2" d="M75 361L75 362Q74 369 78 376Q82 381 94 387Q125 408 143 406Q165 402 274 356Q289 350 293 356Q299 365 286 386Q213 535 52 690Q38 701 40 706Q43 710 57 704Q145 660 241 543L265 512Q299 462 319 431Q343 394 368 369L398 342Q410 332 406 322L406 320Q399 306 368 294Q327 277 308 290Q227 349 90 356Q87 355 84 356Q80 357 75 361 Z"/>
<path id="z34996d3" d="M241 543Q274 612 239 786Q224 808 249 868Q254 880 261 886Q271 894 278 887Q282 884 286 875Q300 845 300 796Q302 657 308 592Q310 565 310 563Q308 557 296 543Q274 518 265 512L241 543 Z"/>
<path id="z34996d4" d="M392 432Q394 439 380 471L361 510L380 519Q416 484 449 457Q455 452 455 448Q455 444 447 437Q423 416 400 416Q397 416 395 418Q392 421 392 432 Z"/>
<path id="z34996d5" d="M361 510Q343 502 333 504Q332 504 331 506Q321 515 349 539Q353 541 357 545L394 583Q406 594 416 594L419 594Q431 588 429 568Q427 557 423 550Q418 537 400 526L380 519L361 510 Z"/>
<path id="z34996d6" d="M619 276Q649 267 665 264L686 259L815 235Q819 236 825 232Q841 222 825 210L811 202Q786 192 746 200Q743 200 737 202Q686 214 666 223Q650 226 632 232L578 243Q568 243 493 259Q465 263 486 279Q519 298 544 294Q563 290 564 290L619 276 Z"/>
<path id="z34996d7" d="M540 443Q589 365 619 276L632 232Q647 181 668 140Q674 130 670 124Q662 109 641 98Q612 83 592 88L582 91Q575 98 577 103Q578 106 582 110Q594 124 598 136Q600 148 592 184L578 243L564 290Q545 347 523 392Q497 443 429 527Q423 537 426 541Q429 544 438 540Q457 532 525 463L540 443 Z"/>
<path id="z34996d8" d="M665 264Q671 295 809 484Q825 501 853 500Q938 500 969 496Q990 492 969 479Q841 414 770 343L686 259L665 264 Z"/>
<path id="z34996d9" d="M714 441Q714 440 715 440Q719 436 719 432Q722 416 684 410Q670 410 635 420L592 433Q566 439 540 443L525 463Q544 481 605 471Q637 465 714 441 Z"/>
<path id="z34996d10" d="M604 566Q653 551 776 541Q815 537 821 531Q823 521 809 510Q800 504 790 500Q758 488 708 500Q707 500 617 526L474 560Q459 564 470 576Q491 590 524 585L568 575L604 566 Z"/>
<path id="z34996d11" d="M568 575Q580 617 559 654Q558 656 556 659L531 680Q512 700 539 728Q549 737 564 730Q588 710 627 693Q684 669 710 673Q715 673 721 676Q741 686 738 716Q731 783 700 829Q683 854 667 857Q647 861 589 839Q582 835 578 835Q568 833 576 847L583 856Q592 867 600 876L639 929Q649 943 659 943Q682 945 706 922Q756 873 787 743Q790 714 805 696Q811 686 809 679Q809 677 808 677Q804 662 753 637Q737 630 714 635Q680 649 624 665Q610 669 610 659Q609 654 615 641Q627 619 637 611Q646 602 643 592Q641 581 604 566L568 575 Z"/>
<defs>
	<clipPath id="z34996c1"><use xlink:href="#z34996d1"/></clipPath>
	<clipPath id="z34996c2"><use xlink:href="#z34996d2"/></clipPath>
	<clipPath id="z34996c3"><use xlink:href="#z34996d3"/></clipPath>
	<clipPath id="z34996c4"><use xlink:href="#z34996d4"/></clipPath>
	<clipPath id="z34996c5"><use xlink:href="#z34996d5"/></clipPath>
	<clipPath id="z34996c6"><use xlink:href="#z34996d6"/></clipPath>
	<clipPath id="z34996c7"><use xlink:href="#z34996d7"/></clipPath>
	<clipPath id="z34996c8"><use xlink:href="#z34996d8"/></clipPath>
	<clipPath id="z34996c9"><use xlink:href="#z34996d9"/></clipPath>
	<clipPath id="z34996c10"><use xlink:href="#z34996d10"/></clipPath>
	<clipPath id="z34996c11"><use xlink:href="#z34996d11"/></clipPath>
</defs>
<path pathLength="3333" clip-path="url(#z34996c1)" d="M273 91L356 143L391 196"/>
<path pathLength="3333" clip-path="url(#z34996c2)" d="M80 364L145 378L312 322L354 340L204 554L48 702"/>
<path pathLength="3333" clip-path="url(#z34996c3)" d="M266 518L281 580L271 883"/>
<path pathLength="3333" clip-path="url(#z34996c4)" d="M451 447L407 450L371 514"/>
<path pathLength="3333" clip-path="url(#z34996c5)" d="M337 513L423 586"/>
<path pathLength="3333" clip-path="url(#z34996c6)" d="M484 268L828 220"/>
<path pathLength="3333" clip-path="url(#z34996c7)" d="M580 97L634 135L589 289L522 434L431 534"/>
<path pathLength="3333" clip-path="url(#z34996c8)" d="M672 267L844 457L973 485"/>
<path pathLength="3333" clip-path="url(#z34996c9)" d="M532 461L713 430"/>
<path pathLength="3333" clip-path="url(#z34996c10)" d="M472 566L817 523"/>
<path pathLength="3333" clip-path="url(#z34996c11)" d="M574 577L607 610L578 697L726 654L773 693L742 806L689 888L648 897L581 841"/>
</svg>