<!--
AnimCJK 2016-2017 Copyright Francois Mizessyn, http://gooo.free.fr/animCJK/
Derived from:
    MakeMeAHanzi project - https://github.com/skishore/makemeahanzi
    Arphic PL KaitiM GB - https://apps.ubuntu.com/cat/applications/precise/fonts-arphic-gkai00mp/
    Arphic PL UKai - https://apps.ubuntu.com/cat/applications/fonts-arphic-ukai/
You can redistribute and/or modify this file under the terms of the Arphic Public License
as published by Arphic Technology Co., Ltd.
You should have received a copy of this license (the directory "APL") along with this file;
if not, see http://ftp.gnu.org/non-gnu/chinese-fonts-truetype/LICENSE.
-->
<svg id="z35023" class="acjk" version="1.1" viewBox="0 0 1024 1024" xmlns="http://www.w3.org/2000/svg" xmlns:xlink="http://www.w3.org/1999/xlink">
<style>
<![CDATA[
	@keyframes z35023k {
		from {
			stroke:#c00;
			stroke-dashoffset:3000;
		}
		75% {
			stroke:#c00;
			stroke-dashoffset:0;
		}
		to {
			stroke:#000;
		}
	}
	#z35023 path[clip-path] {
		animation:z35023k 1s linear both;
		stroke-dasharray:3000;
		stroke-width:128;
		stroke-linecap:round;
		fill:none;
	}
	#z35023 path[clip-path="url(#z35023c1)"] {animation-delay:1s;}
	#z35023 path[clip-path="url(#z35023c2)"] {animation-delay:2s;}
	#z35023 path[clip-path="url(#z35023c3)"] {animation-delay:3s;}
	#z35023 path[clip-path="url(#z35023c4)"] {animation-delay:4s;}
	#z35023 path[clip-path="url(#z35023c5)"] {animation-delay:5s;}
	#z35023 path[clip-path="url(#z35023c6)"] {animation-delay:6s;}
	#z35023 path[clip-path="url(#z35023c7)"] {animation-delay:7s;}
	#z35023 path[clip-path="url(#z35023c8)"] {animation-delay:8s;}
	#z35023 path[clip-path="url(#z35023c9)"] {animation-delay:9s;}
	#z35023 path[clip-path="url(#z35023c10)"] {animation-delay:10s;}
	#z35023 path[clip-path="url(#z35023c11)"] {animation-delay:11s;}
	#z35023 path[clip-path="url(#z35023c12)"] {animation-delay:12s;}
	#z35023 path[clip-path="url(#z35023c13)"] {animation-delay:13s;}
	#z35023 path {fill:#ccc;}
]]>
</style>
<g transform="scale(1,-1) translate(0,-900)">
	<path id="z35023d1" d="M464 810Q488 791 514 768Q527 756 543 758Q553 759 557 772Q561 787 550 815Q544 831 516 843Q446 861 436 855Q432 851 433 839Q437 829 464 810Z"/>
	<path id="z35023d2" d="M208 689Q189 688 203 671Q216 658 234 652Q253 648 269 651Q447 702 766 702Q784 702 803 701Q822 701 827 710Q831 720 816 734Q767 773 730 764Q618 742 208 689Z"/>
	<path id="z35023d3" d="M319 619Q309 623 293 623Q281 624 279 620Q273 613 283 599Q310 554 332 479Q336 455 352 442Q371 423 374 438Q375 442 375 447L374 470Q362 527 349 584L319 619Z"/>
	<path id="z35023d4" d="M634 472L635 471Q639 456 652 457Q670 460 698 514Q714 565 751 593Q770 609 755 625Q737 641 688 668Q675 677 608 663Q502 651 427 636Q364 626 319 619L349 584Q352 584 356 585Q398 598 471 608L511 614Q637 635 658 623Q665 619 660 598Q645 520 635 501L634 472Z"/>
	<path id="z35023d5" d="M531 537Q565 543 597 546Q615 547 608 558Q601 570 581 574Q563 577 532 569L484 558Q441 549 402 541Q389 540 404 527Q414 520 433 522Q458 526 484 529L531 537Z"/>
	<path id="z35023d6" d="M528 462Q585 469 634 472L635 501Q625 511 529 493L485 486Q427 479 374 470L375 447Q384 447 485 457L528 462Z"/>
	<path id="z35023d7" d="M524 348L524 386L526 423Q526 444 528 462L529 493L531 537L532 569Q533 570 533 572Q540 588 531 597Q521 607 511 614L471 608Q474 602 478 595Q481 583 484 558L484 529Q484 513 485 486L485 457Q485 438 485 415L485 382Q485 364 485 342L524 348Z"/>
	<path id="z35023d8" d="M524 386Q587 395 642 399Q663 400 656 413Q649 426 626 433Q599 439 526 423L485 415Q410 405 343 395Q328 392 345 378Q360 366 390 370Q439 377 485 382L524 386Z"/>
	<path id="z35023d9" d="M472 308Q556 321 776 321Q794 321 798 329Q804 339 789 352Q740 386 709 379Q639 366 524 348L485 342Q367 329 227 312Q208 311 222 295Q235 282 251 277Q270 273 284 276Q348 294 421 303L472 308Z"/>
	<path id="z35023d10" d="M479 271Q479 272 480 272Q490 279 490 288Q489 298 472 308L421 303Q373 204 110 66Q91 56 113 55Q194 52 360 173L391 198Q400 205 409 213Q437 238 457 254L479 271Z"/>
	<path id="z35023d11" d="M360 173Q378 124 368 69Q361 41 348 27Q335 8 342 -14Q349 -45 366 -57Q376 -64 388 -48Q422 -14 533 67Q552 79 554 86Q557 99 536 90Q496 74 452 57Q427 44 417 50Q410 57 411 80Q415 137 420 151Q424 170 412 181Q402 191 391 198L360 173Z"/>
	<path id="z35023d12" d="M597 193Q708 245 725 249Q744 253 738 270Q729 286 710 302Q692 317 682 316Q672 316 673 305Q673 280 621 239Q600 223 580 205L597 193Z"/>
	<path id="z35023d13" d="M580 205Q511 269 479 271L457 254Q532 203 611 124Q728 12 785 10Q860 14 921 30Q955 37 952 46Q951 50 916 59Q889 66 858 72Q714 108 635 165Q616 178 597 193L580 205Z"/>
	<defs>
		<clipPath id="z35023c1"><use xlink:href="#z35023d1"/></clipPath>
		<clipPath id="z35023c2"><use xlink:href="#z35023d2"/></clipPath>
		<clipPath id="z35023c3"><use xlink:href="#z35023d3"/></clipPath>
		<clipPath id="z35023c4"><use xlink:href="#z35023d4"/></clipPath>
		<clipPath id="z35023c5"><use xlink:href="#z35023d5"/></clipPath>
		<clipPath id="z35023c6"><use xlink:href="#z35023d6"/></clipPath>
		<clipPath id="z35023c7"><use xlink:href="#z35023d7"/></clipPath>
		<clipPath id="z35023c8"><use xlink:href="#z35023d8"/></clipPath>
		<clipPath id="z35023c9"><use xlink:href="#z35023d9"/></clipPath>
		<clipPath id="z35023c10"><use xlink:href="#z35023d10"/></clipPath>
		<clipPath id="z35023c11"><use xlink:href="#z35023d11"/></clipPath>
		<clipPath id="z35023c12"><use xlink:href="#z35023d12"/></clipPath>
		<clipPath id="z35023c13"><use xlink:href="#z35023d13"/></clipPath>
	</defs>
	<path pathLength="2999" clip-path="url(#z35023c1)" d="M441 845L513 810L544 763"/>
	<path pathLength="2999" clip-path="url(#z35023c2)" d="M203 683L259 673L741 734L823 718"/>
	<path pathLength="2999" clip-path="url(#z35023c3)" d="M285 618L322 578L362 438"/>
	<path pathLength="2999" clip-path="url(#z35023c4)" d="M329 618L672 645L710 606L647 461"/>
	<path pathLength="2999" clip-path="url(#z35023c5)" d="M404 535L603 556"/>
	<path pathLength="2999" clip-path="url(#z35023c6)" d="M383 454L633 485"/>
	<path pathLength="2999" clip-path="url(#z35023c7)" d="M481 604L510 572L500 345"/>
	<path pathLength="2999" clip-path="url(#z35023c8)" d="M346 388L653 412"/>
	<path pathLength="2999" clip-path="url(#z35023c9)" d="M226 304L726 351L794 336"/>
	<path pathLength="2999" clip-path="url(#z35023c10)" d="M485 289L436 276L251 124L109 62"/>
	<path pathLength="2999" clip-path="url(#z35023c11)" d="M391 191L392 -9L544 84"/>
	<path pathLength="2999" clip-path="url(#z35023c12)" d="M683 312L697 264L589 202"/>
	<path pathLength="2999" clip-path="url(#z35023c13)" d="M464 255L742 67L944 46"/>
</g>
</svg>