<!--
AnimCJK 2016-2019 Copyright Francois Mizessyn - https://github.com/parsimonhi/animCJK
Derived from:
    MakeMeAHanzi project - https://github.com/skishore/makemeahanzi
    Arphic PL KaitiM GB font
    Arphic PL UKai font
You can redistribute and/or modify this file under the terms of the Arphic Public License
as published by Arphic Technology Co., Ltd.
You should have received a copy of this license along with this file.
If not, see http://ftp.gnu.org/non-gnu/chinese-fonts-truetype/LICENSE.
-->
<svg id="z35158" class="acjk" version="1.1" viewBox="0 0 1024 1024" xmlns="http://www.w3.org/2000/svg" xmlns:xlink="http://www.w3.org/1999/xlink">
<style>
<![CDATA[
@keyframes zk {
	to {
		stroke-dashoffset:0;
	}
}
svg.acjk path[clip-path] {
	--t:0.8s;
	animation:zk var(--t) linear forwards var(--d);
	stroke-dasharray:3337;
	stroke-dashoffset:3339;
	stroke-width:128;
	stroke-linecap:round;
	fill:none;
	stroke:#000;
}
svg.acjk path[id] {fill:#ccc;}
]]>
</style>
<path id="z35158d1" d="M300 134Q331 156 365 185Q381 198 397 195Q409 194 413 180Q416 164 405 133Q390 100 291 84Q275 81 268 85Q264 89 265 103Q269 113 300 134Z"/>
<path id="z35158d2" d="M269 507Q297 464 330 412Q360 360 403 325Q416 313 405 300Q386 287 359 277Q337 270 322 281Q246 332 110 345Q100 344 97 350Q94 360 108 369Q144 393 159 390Q175 387 287 341Q302 335 305 341Q311 350 300 371Q234 510 83 669Q70 679 72 683Q75 686 87 680Q166 637 245 539C261 518 261 518 269 507Z"/>
<path id="z35158d3" d="M245 539Q273 567 253 743Q237 827 242 852Q242 876 263 897Q279 912 290 887Q303 850 303 809Q304 623 310 582Q317 557 308 548Q281 515 269 507C258 500 237 528 245 539Z"/>
<path id="z35158d4" d="M367 506Q406 467 427 452Q437 448 434 441Q428 432 414 423Q401 414 387 415Q377 416 380 429Q386 439 355 501C353 505 364 509 367 506Z"/>
<path id="z35158d5" d="M355 501Q322 486 312 490Q308 491 309 501Q309 505 375 567Q384 577 395 576Q402 576 406 567Q409 557 404 537Q400 521 377 509Q373 506 367 506C359 503 359 503 355 501Z"/>
<path id="z35158d6" d="M562 225Q592 197 610 177Q656 120 676 108Q694 95 680 81Q664 68 638 60Q613 53 602 57Q590 61 597 73Q606 98 539 226Q538 227 538 229C535 237 556 230 562 225Z"/>
<path id="z35158d7" d="M501 232Q498 228 492 226Q485 219 472 215Q463 211 453 214Q447 218 452 230Q453 237 457 244Q481 292 462 473Q443 549 475 587Q485 599 494 588Q507 569 508 501Q511 267 514 261C516 251 509 238 501 232Z"/>
<path id="z35158d8" d="M514 261Q521 261 528 260Q649 230 736 216Q767 209 777 225Q792 244 791 310Q794 496 784 531Q777 552 789 572Q802 599 810 598Q823 597 838 567Q851 543 850 524Q840 442 841 311Q841 274 862 242Q872 226 864 217Q837 195 791 174Q776 170 754 178Q685 206 562 225C546 228 546 228 538 229Q519 230 501 232C491 234 503 261 514 261Z"/>
<path id="z35158d9" d="M641 311Q677 299 701 297Q711 297 714 292Q717 286 710 279Q680 252 657 252Q653 253 652 261Q646 282 561 317Q557 321 561 324Q586 321 614 317C632 313 632 313 641 311Z"/>
<path id="z35158d10" d="M544 354Q572 393 588 397Q595 398 601 387Q602 380 597 367Q584 345 547 338Q543 337 541 343Q540 347 544 354Z"/>
<path id="z35158d11" d="M720 325Q711 341 691 365Q688 369 691 372C734 347 734 347 756 335Q765 334 763 328Q760 321 751 311Q741 302 730 301Q723 301 724 311Q725 318 720 325Z"/>
<path id="z35158d12" d="M655 432Q670 428 687 426Q750 417 754 411Q755 404 742 399Q724 387 660 407Q659 407 657 408C638 412 638 412 629 414Q607 418 587 421Q566 424 542 428Q526 429 538 439Q556 454 576 448Q586 444 600 444C637 436 637 436 655 432Z"/>
<path id="z35158d13" d="M628 463Q625 533 626 537Q630 541 633 549Q639 559 648 554Q657 544 654 491Q654 460 655 432C656 416 656 416 657 408Q660 363 672 342Q676 336 669 328Q656 318 641 311C633 306 609 309 614 317Q629 341 629 414C628 447 628 447 628 463Z"/>
<path id="z35158d14" d="M600 444Q588 480 527 532Q517 541 527 541Q548 544 587 512Q612 490 628 463C644 437 611 415 600 444Z"/>
<path id="z35158d15" d="M677 468Q714 513 731 514Q740 515 744 502Q745 493 739 479Q721 455 680 449Q674 448 673 456Q672 462 677 468Z"/>
<path id="z35158d16" d="M645 678Q720 669 912 669Q930 669 935 661Q939 651 925 637Q876 601 841 609Q769 624 652 642C610 648 610 648 589 651Q495 661 388 675Q369 678 382 693Q395 706 412 711Q431 715 447 712Q511 694 586 685C625 680 625 680 645 678Z"/>
<path id="z35158d17" d="M644 681Q644 680 645 678C650 654 650 654 652 642Q656 629 660 623Q667 616 661 606Q655 599 627 588Q596 572 581 578Q571 584 579 599Q588 623 589 651C587 674 587 674 586 685Q562 805 459 865Q428 881 377 903Q352 913 381 916Q445 919 539 865Q554 853 569 838Q614 790 637 707C642 690 642 690 644 681Z"/>
<path id="z35158d18" d="M637 707Q638 708 641 711Q747 879 791 894Q852 910 961 899Q980 898 982 893Q985 887 970 880Q826 820 797 803Q761 785 697 729Q658 692 644 681C637 675 631 701 637 707Z"/>
<defs>
	<clipPath id="z35158c1"><use xlink:href="#z35158d1"/></clipPath>
	<clipPath id="z35158c2"><use xlink:href="#z35158d2"/></clipPath>
	<clipPath id="z35158c3"><use xlink:href="#z35158d3"/></clipPath>
	<clipPath id="z35158c4"><use xlink:href="#z35158d4"/></clipPath>
	<clipPath id="z35158c5"><use xlink:href="#z35158d5"/></clipPath>
	<clipPath id="z35158c6"><use xlink:href="#z35158d6"/></clipPath>
	<clipPath id="z35158c7"><use xlink:href="#z35158d7"/></clipPath>
	<clipPath id="z35158c8"><use xlink:href="#z35158d8"/></clipPath>
	<clipPath id="z35158c9"><use xlink:href="#z35158d9"/></clipPath>
	<clipPath id="z35158c10"><use xlink:href="#z35158d10"/></clipPath>
	<clipPath id="z35158c11"><use xlink:href="#z35158d11"/></clipPath>
	<clipPath id="z35158c12"><use xlink:href="#z35158d12"/></clipPath>
	<clipPath id="z35158c13"><use xlink:href="#z35158d13"/></clipPath>
	<clipPath id="z35158c14"><use xlink:href="#z35158d14"/></clipPath>
	<clipPath id="z35158c15"><use xlink:href="#z35158d15"/></clipPath>
	<clipPath id="z35158c16"><use xlink:href="#z35158d16"/></clipPath>
	<clipPath id="z35158c17"><use xlink:href="#z35158d17"/></clipPath>
	<clipPath id="z35158c18"><use xlink:href="#z35158d18"/></clipPath>
</defs>
<path style="--d:1s;" pathLength="3333" clip-path="url(#z35158c1)" d="M274 95L373 146L399 192"/>
<path style="--d:2s;" pathLength="3333" clip-path="url(#z35158c2)" d="M106 354L158 364L326 310L358 331L224 534L80 678"/>
<path style="--d:3s;" pathLength="3333" clip-path="url(#z35158c3)" d="M270 513L285 595L269 896"/>
<path style="--d:4s;" pathLength="3333" clip-path="url(#z35158c4)" d="M426 439L391 446L364 499"/>
<path style="--d:5s;" pathLength="3333" clip-path="url(#z35158c5)" d="M319 498L401 565"/>
<path style="--d:6s;" pathLength="3333" clip-path="url(#z35158c6)" d="M603 65L639 101L545 221"/>
<path style="--d:7s;" pathLength="3333" clip-path="url(#z35158c7)" d="M458 220L490 268L481 588"/>
<path style="--d:8s;" pathLength="3333" clip-path="url(#z35158c8)" d="M510 236L767 194L810 216L827 241L812 592"/>
<path style="--d:9s;" pathLength="3333" clip-path="url(#z35158c9)" d="M708 287L657 279L569 319"/>
<path style="--d:10s;" pathLength="3333" clip-path="url(#z35158c10)" d="M549 346L594 388"/>
<path style="--d:11s;" pathLength="3333" clip-path="url(#z35158c11)" d="M756 324L695 365"/>
<path style="--d:12s;" pathLength="3333" clip-path="url(#z35158c12)" d="M541 432L748 407"/>
<path style="--d:13s;" pathLength="3333" clip-path="url(#z35158c13)" d="M622 321L650 349L641 549"/>
<path style="--d:14s;" pathLength="3333" clip-path="url(#z35158c14)" d="M623 445L535 533"/>
<path style="--d:15s;" pathLength="3333" clip-path="url(#z35158c15)" d="M682 457L734 508"/>
<path style="--d:16s;" pathLength="3333" clip-path="url(#z35158c16)" d="M387 685L842 638L932 652"/>
<path style="--d:17s;" pathLength="3333" clip-path="url(#z35158c17)" d="M584 582L626 626L573 790L496 865L375 909"/>
<path style="--d:18s;" pathLength="3333" clip-path="url(#z35158c18)" d="M645 689L794 848L976 888"/>
</svg>