<!--
AnimCJK 2016-2026 Copyright FM-SH, https://github.com/parsimonhi/animCJK
Derived from:
    MakeMeAHanzi project - https://github.com/skishore/makemeahanzi
    Arphic PL KaitiM GB font
    Arphic PL KaitiM Big5 font
You can redistribute and/or modify this file under the terms of the Arphic Public License
as published by Arphic Technology Co., Ltd.
You should have received a copy of this license along with this file.
If not, see https://ftp.gnu.org/non-gnu/chinese-fonts-truetype/LICENSE.
-->
<svg id="z35208" class="acjk" viewBox="0 0 1024 1024" xmlns="http://www.w3.org/2000/svg">
<style>
<![CDATA[
@keyframes zk {
	to {
		stroke-dashoffset:0;
	}
}
svg.acjk path[clip-path] {
	--t:0.8s;
	animation:zk var(--t) linear forwards var(--d);
	stroke-dasharray:3337;
	stroke-dashoffset:3339;
	stroke-width:128;
	stroke-linecap:round;
	fill:none;
	stroke:#000;
}
svg.acjk path[id] {fill:#ccc;}
]]>
</style>
<path id="z35208d1" d="M586 106C622 99 680 94 693 84C710 68 684 55 666 50C649 45 605 54 531 72C471 85 406 91 338 97C315 98 311 105 328 117C342 128 362 137 387 135C418 132 418 132 433 130C469 126 499 121 541 114C571 109 571 109 586 106Z"/>
<path id="z35208d2" d="M291 221C272 216 216 199 241 240C257 265 268 290 281 334C284 346 290 356 299 366C317 386 324 372 324 354C323 323 317 286 311 258C309 244 305 224 291 221Z"/>
<path id="z35208d3" d="M686 313C683 345 717 337 746 289C762 261 767 245 790 229C802 220 803 210 794 201C784 190 763 177 736 159C715 145 716 149 607 169C569 176 569 176 550 179C527 183 477 192 456 196C423 201 423 201 407 204C361 211 322 216 291 221C277 223 299 265 311 258C315 254 348 246 411 234C442 228 442 228 457 225C485 219 515 215 550 211C583 206 583 206 600 204C633 199 663 195 683 195C705 195 718 198 713 222C705 251 688 278 686 313Z"/>
<path id="z35208d4" d="M387 135C395 143 402 166 407 204C410 224 410 224 411 234C414 256 418 275 423 312C428 355 453 365 462 334C464 326 462 317 462 305C460 272 457 252 457 225C456 206 456 206 456 196C454 147 463 149 433 130C420 122 378 123 387 135Z"/>
<path id="z35208d5" d="M607 169C614 131 627 131 586 106C573 98 535 100 541 114C550 134 550 157 550 179C550 200 550 200 550 211C550 229 548 261 546 286C546 299 582 295 585 282C589 257 594 232 600 204C605 181 605 181 607 169Z"/>
<path id="z35208d6" d="M462 334C495 329 542 325 584 321C620 318 628 297 585 282C573 277 558 281 546 286C522 295 478 302 462 305C453 307 453 336 462 334Z"/>
<path id="z35208d7" d="M349 347C349 366 325 417 304 451C299 459 323 451 330 446C399 389 387 393 408 381C417 374 420 367 413 360C406 353 393 345 384 342C365 334 348 330 349 347Z"/>
<path id="z35208d8" d="M245 463C231 458 179 442 199 475C215 503 231 538 244 587C247 601 253 613 263 622C277 634 282 626 282 610C281 602 281 595 280 588C274 569 269 549 269 547C266 534 266 534 264 528C259 509 257 497 255 489C253 480 254 466 245 463Z"/>
<path id="z35208d9" d="M304 451C281 455 261 459 245 463C236 465 246 492 255 489C283 481 338 469 420 455C441 451 454 458 451 478C446 501 427 568 417 576C413 580 413 587 414 593C419 617 430 636 450 614C457 605 468 575 488 520C493 503 502 491 515 480C521 473 523 466 518 460C510 450 496 438 475 425C463 417 445 423 330 446C313 449 313 449 304 451Z"/>
<path id="z35208d10" d="M269 547C279 547 306 540 390 527C417 522 396 503 373 500C357 497 320 508 264 528C258 530 262 547 269 547Z"/>
<path id="z35208d11" d="M282 610C292 611 304 609 315 608C328 605 328 605 334 604C352 599 385 595 414 593C420 593 421 580 417 576C393 553 388 565 280 588C273 589 275 610 282 610Z"/>
<path id="z35208d12" d="M315 608C315 612 342 659 349 665C355 671 375 668 375 659C379 629 354 614 334 604C328 602 313 602 315 608Z"/>
<path id="z35208d13" d="M349 665C255 686 190 698 154 702C143 703 134 711 152 726C169 740 190 743 213 736C247 724 278 714 307 707C332 700 332 700 345 697C383 686 428 676 480 670C501 667 494 652 480 646C466 639 431 645 375 659C358 663 358 663 349 665Z"/>
<path id="z35208d14" d="M351 742C369 749 407 744 417 765C423 778 409 805 384 853C362 893 339 892 301 880C244 861 276 886 280 889C303 908 317 926 322 941C329 964 342 965 369 949C392 934 417 899 442 840C451 816 459 796 473 788C486 780 486 774 469 752C455 734 431 728 401 727C388 726 376 722 363 719C354 718 343 740 351 742Z"/>
<path id="z35208d15" d="M307 707C288 759 228 817 126 880C122 882 121 885 127 886C179 887 254 838 351 742C357 736 366 727 363 719C360 709 354 701 345 697C334 690 312 695 307 707Z"/>
<path id="z35208d16" d="M595 537C599 529 626 491 649 437C655 421 661 409 666 401C669 394 667 387 662 381C651 367 640 358 630 353C618 346 590 340 601 365C624 419 549 557 508 614C503 620 500 636 519 620C548 596 582 555 584 553C591 542 591 542 595 537Z"/>
<path id="z35208d17" d="M707 558C751 546 810 533 848 520C863 514 856 495 817 488C803 485 771 494 720 510C640 533 612 535 595 537C589 538 579 548 584 553C600 569 629 577 671 567C695 561 695 561 707 558Z"/>
<path id="z35208d18" d="M676 758C695 716 722 630 741 606C756 585 714 561 707 558C696 552 669 555 671 567C681 599 674 648 643 726C637 738 632 751 624 762C586 809 548 842 475 887C454 900 461 908 482 903C531 891 591 867 652 795C661 783 669 771 676 758Z"/>
<path id="z35208d19" d="M652 795C694 844 729 889 766 930C776 941 790 947 806 946C865 939 905 931 926 925C950 920 945 910 927 903C835 870 746 826 676 758C654 737 654 737 643 726C622 705 600 684 579 661C570 651 562 646 552 646C537 646 528 648 525 653C523 655 524 659 530 662C549 672 578 707 624 762C643 784 643 784 652 795Z"/>
<defs>
	<clipPath id="z35208c1"><use href="#z35208d1"/></clipPath>
	<clipPath id="z35208c2"><use href="#z35208d2"/></clipPath>
	<clipPath id="z35208c3"><use href="#z35208d3"/></clipPath>
	<clipPath id="z35208c4"><use href="#z35208d4"/></clipPath>
	<clipPath id="z35208c5"><use href="#z35208d5"/></clipPath>
	<clipPath id="z35208c6"><use href="#z35208d6"/></clipPath>
	<clipPath id="z35208c7"><use href="#z35208d7"/></clipPath>
	<clipPath id="z35208c8"><use href="#z35208d8"/></clipPath>
	<clipPath id="z35208c9"><use href="#z35208d9"/></clipPath>
	<clipPath id="z35208c10"><use href="#z35208d10"/></clipPath>
	<clipPath id="z35208c11"><use href="#z35208d11"/></clipPath>
	<clipPath id="z35208c12"><use href="#z35208d12"/></clipPath>
	<clipPath id="z35208c13"><use href="#z35208d13"/></clipPath>
	<clipPath id="z35208c14"><use href="#z35208d14"/></clipPath>
	<clipPath id="z35208c15"><use href="#z35208d15"/></clipPath>
	<clipPath id="z35208c16"><use href="#z35208d16"/></clipPath>
	<clipPath id="z35208c17"><use href="#z35208d17"/></clipPath>
	<clipPath id="z35208c18"><use href="#z35208d18"/></clipPath>
	<clipPath id="z35208c19"><use href="#z35208d19"/></clipPath>
</defs>
<path style="--d:1s;" pathLength="3333" clip-path="url(#z35208c1)" d="M326 104L404 112L694 71"/>
<path style="--d:2s;" pathLength="3333" clip-path="url(#z35208c2)" d="M241 220L283 257L308 371"/>
<path style="--d:3s;" pathLength="3333" clip-path="url(#z35208c3)" d="M291 229L713 174L757 213L696 328"/>
<path style="--d:4s;" pathLength="3333" clip-path="url(#z35208c4)" d="M394 133L428 163L445 348"/>
<path style="--d:5s;" pathLength="3333" clip-path="url(#z35208c5)" d="M547 108L581 137L555 290"/>
<path style="--d:6s;" pathLength="3333" clip-path="url(#z35208c6)" d="M461 325L609 299"/>
<path style="--d:7s;" pathLength="3333" clip-path="url(#z35208c7)" d="M359 340L377 376L309 448"/>
<path style="--d:8s;" pathLength="3333" clip-path="url(#z35208c8)" d="M200 460L229 480L272 621"/>
<path style="--d:9s;" pathLength="3333" clip-path="url(#z35208c9)" d="M245 472L439 439L474 452L485 474L427 616"/>
<path style="--d:10s;" pathLength="3333" clip-path="url(#z35208c10)" d="M268 536L397 515"/>
<path style="--d:11s;" pathLength="3333" clip-path="url(#z35208c11)" d="M277 597L414 586"/>
<path style="--d:12s;" pathLength="3333" clip-path="url(#z35208c12)" d="M323 610L364 664"/>
<path style="--d:13s;" pathLength="3333" clip-path="url(#z35208c13)" d="M149 711L487 661"/>
<path style="--d:14s;" pathLength="3333" clip-path="url(#z35208c14)" d="M355 736L415 741L449 775L401 871L339 923L276 877"/>
<path style="--d:15s;" pathLength="3333" clip-path="url(#z35208c15)" d="M327 696L330 727L285 778L133 881"/>
<path style="--d:16s;" pathLength="3333" clip-path="url(#z35208c16)" d="M606 351L636 393L619 446L512 621"/>
<path style="--d:17s;" pathLength="3333" clip-path="url(#z35208c17)" d="M590 547L851 508"/>
<path style="--d:18s;" pathLength="3333" clip-path="url(#z35208c18)" d="M678 565L709 606L645 769L559 852L470 900"/>
<path style="--d:19s;" pathLength="3333" clip-path="url(#z35208c19)" d="M530 653L798 898L935 917"/>
</svg>