<!--
AnimCJK 2016-2018 Copyright Francois Mizessyn, https://github.com/parsimonhi/animCJK
Derived from:
    MakeMeAHanzi project - https://github.com/skishore/makemeahanzi
    Arphic PL KaitiM GB - https://apps.ubuntu.com/cat/applications/precise/fonts-arphic-gkai00mp/
    Arphic PL UKai - https://apps.ubuntu.com/cat/applications/fonts-arphic-ukai/
You can redistribute and/or modify this file under the terms of the Arphic Public License
as published by Arphic Technology Co., Ltd.
You should have received a copy of this license (the directory "APL") along with this file;
if not, see http://ftp.gnu.org/non-gnu/chinese-fonts-truetype/LICENSE.
-->
<svg id="z35207" class="acjk" version="1.1" viewBox="0 0 1024 1024" xmlns="http://www.w3.org/2000/svg" xmlns:xlink="http://www.w3.org/1999/xlink">
<style>
<![CDATA[
@keyframes z35207k {
	from {
		stroke:#c00;
		stroke-dashoffset:3334;
	}
	75% {
		stroke:#c00;
		stroke-dashoffset:0;
	}
	to {
		stroke:#000;
	}
}
#z35207 path[clip-path] {
	animation:z35207k 1s linear both;
	stroke-dasharray:3334;
	stroke-width:128;
	stroke-linecap:round;
	fill:none;
}
#z35207 path[clip-path="url(#z35207c1)"] {animation-delay:1s;}
#z35207 path[clip-path="url(#z35207c2)"] {animation-delay:2s;}
#z35207 path[clip-path="url(#z35207c3)"] {animation-delay:3s;}
#z35207 path[clip-path="url(#z35207c4)"] {animation-delay:4s;}
#z35207 path[clip-path="url(#z35207c5)"] {animation-delay:5s;}
#z35207 path[clip-path="url(#z35207c6)"] {animation-delay:6s;}
#z35207 path[clip-path="url(#z35207c7)"] {animation-delay:7s;}
#z35207 path[clip-path="url(#z35207c8)"] {animation-delay:8s;}
#z35207 path[clip-path="url(#z35207c9)"] {animation-delay:9s;}
#z35207 path[clip-path="url(#z35207c10)"] {animation-delay:10s;}
#z35207 path[clip-path="url(#z35207c11)"] {animation-delay:11s;}
#z35207 path[clip-path="url(#z35207c12)"] {animation-delay:12s;}
#z35207 path[clip-path="url(#z35207c13)"] {animation-delay:13s;}
#z35207 path[clip-path="url(#z35207c14)"] {animation-delay:14s;}
#z35207 path[clip-path="url(#z35207c15)"] {animation-delay:15s;}
#z35207 path[clip-path="url(#z35207c16)"] {animation-delay:16s;}
#z35207 path[clip-path="url(#z35207c17)"] {animation-delay:17s;}
#z35207 path[clip-path="url(#z35207c18)"] {animation-delay:18s;}
#z35207 path[clip-path="url(#z35207c19)"] {animation-delay:19s;}
#z35207 path {fill:#ccc;}
]]>
</style>
<path id="z35207d1" d="M602 116C614 114 629 111 645 109C679 103 698 98 703 94C709 90 710 85 708 79C704 71 693 65 676 60C660 56 615 64 541 82C481 94 416 103 348 107C325 110 322 117 338 127C352 139 372 145 397 145L443 140C479 134 517 128 559 122 Z"/>
<path id="z35207d2" d="M301 231C293 229 280 227 262 225C254 223 249 224 247 228C243 233 244 240 251 250C267 276 281 311 295 354C297 367 303 378 313 386C325 400 333 402 336 390C336 386 337 380 338 374L335 343C328 309 323 284 321 268 Z"/>
<path id="z35207d3" d="M690 333C690 334 690 335 691 337C693 347 698 352 705 352C715 350 733 335 744 317C761 287 777 255 800 239C812 231 813 221 804 211C794 201 774 187 746 169C736 163 725 161 713 165C687 171 658 176 628 180C627 180 626 181 625 181L566 189C531 192 498 197 466 204L417 214C371 221 332 227 301 231L321 268C325 264 358 256 421 244L467 235C495 231 527 226 562 221L614 214C670 204 706 203 723 211C725 214 725 221 723 232C710 275 701 301 696 309C695 309 695 310 695 310 Z"/>
<path id="z35207d4" d="M397 145C405 154 412 177 417 214L421 244C423 267 427 296 433 332L472 325C470 293 468 263 467 235L466 204C466 170 460 150 448 144C446 142 444 141 443 140 Z"/>
<path id="z35207d5" d="M625 181C625 177 627 174 629 171C637 157 636 145 628 134C618 128 609 122 602 116L559 122C565 129 568 151 566 189L562 221C558 250 553 280 548 312L587 304C595 272 604 242 614 214 Z"/>
<path id="z35207d6" d="M338 374C344 375 351 375 358 373C428 359 538 345 690 333L695 310C691 306 685 301 678 296C670 292 639 294 587 304L548 312C521 316 496 321 472 325L433 332C398 335 365 339 335 343 Z"/>
<path id="z35207d7" d="M480 486C494 484 509 482 525 481C533 481 538 479 538 475C538 469 534 463 526 457C514 451 503 449 493 451L443 460C403 466 369 472 343 478L300 484C281 485 268 486 260 488C233 491 208 493 186 495C179 495 175 497 174 501C172 506 174 512 182 518C198 530 223 534 257 528C273 524 291 519 309 515L344 507C358 503 389 497 438 491 Z"/>
<path id="z35207d8" d="M343 478C343 468 343 460 344 456C346 446 343 439 337 435C329 431 318 426 305 422C294 420 284 423 275 429C270 434 272 439 280 444C290 458 296 472 300 484L309 515C309 535 315 561 329 592C329 595 331 598 334 601C336 606 340 606 344 602C346 600 347 595 349 585L348 563C347 553 346 544 346 536C345 526 344 516 344 507 Z"/>
<path id="z35207d9" d="M459 548C465 526 472 506 480 486L493 451C493 447 495 444 498 442C504 432 503 421 497 411C483 399 471 391 461 387C454 385 448 385 444 387C440 390 439 395 441 402C445 412 447 420 447 426C446 437 445 448 443 460L438 491C435 507 432 524 428 542 Z"/>
<path id="z35207d10" d="M384 581C402 577 430 574 466 570C470 570 473 567 474 563C474 561 469 556 459 548L428 542C424 542 420 543 417 544C392 552 369 559 348 563L349 585L358 585 Z"/>
<path id="z35207d11" d="M230 650C223 650 219 651 218 653C215 657 216 663 222 670C234 688 246 712 258 742C260 751 265 758 272 764C282 775 289 776 291 767C291 765 292 762 292 759L288 734C281 706 277 687 277 677 Z"/>
<path id="z35207d12" d="M494 711C508 685 522 670 534 666C542 658 543 649 537 640C502 610 470 603 440 617C429 620 419 623 409 627L368 636C367 636 366 636 365 636C319 645 274 650 230 650L277 677C293 671 324 666 368 661L407 654C417 652 429 649 442 647C454 645 463 646 469 651C471 654 472 658 472 663C469 678 465 692 461 704 Z"/>
<path id="z35207d13" d="M404 743C432 739 464 736 500 734C504 734 507 731 509 727C509 725 504 719 494 711L461 704C456 702 437 706 404 715L367 722C338 727 312 731 288 734L292 759L300 759C316 755 338 751 366 748 Z"/>
<path id="z35207d14" d="M403 825C439 819 489 815 533 812C543 812 548 809 548 805C548 797 544 791 535 785C517 775 466 777 403 791L361 799C270 812 186 820 130 823C122 824 117 827 116 831C113 837 116 844 125 850C145 866 176 870 216 860C288 842 342 832 358 832 Z"/>
<path id="z35207d15" d="M403 791C403 775 403 759 404 743L404 715C404 713 404 710 405 706C405 686 405 668 407 654L409 627C411 611 410 602 408 599C399 591 391 585 384 581L358 585C364 591 367 608 368 636L368 661C368 679 367 700 367 722L366 748C365 767 363 784 361 799L358 832C357 835 357 838 357 840C356 853 354 863 352 869C348 891 354 913 370 936C376 946 381 952 385 954C391 954 395 951 397 945C403 929 405 889 403 825 Z"/>
<path id="z35207d16" d="M643 690C643 690 643 688 644 686C646 664 648 630 650 603L652 575C652 553 653 519 653 493C653 485 654 479 656 473L647 444C619 432 600 426 591 427C580 429 579 436 589 448C613 486 617 582 603 695C598 723 589 764 577 797C567 825 537 867 489 922C482 928 477 934 475 938C474 942 477 943 484 943C492 943 502 938 513 930C537 913 557 897 571 879C605 837 628 776 640 714 Z"/>
<path id="z35207d17" d="M656 473C668 471 698 463 748 449C760 445 767 446 771 452C775 468 779 559 783 683C783 786 779 853 771 863C768 866 761 866 751 864C736 860 721 856 706 851C694 847 688 847 688 852C718 886 742 914 759 938C767 950 775 958 785 962C789 964 795 963 802 957C828 927 841 890 842 846C827 638 827 491 843 465C851 453 851 443 843 436C830 424 812 414 788 405C777 401 766 401 756 405C736 417 719 425 707 429C693 434 673 439 647 444 Z"/>
<path id="z35207d18" d="M650 603C682 597 712 593 738 589C750 587 754 582 749 574C742 566 732 562 718 560C697 558 675 563 652 575 Z"/>
<path id="z35207d19" d="M640 714C642 715 646 715 651 714C687 710 720 706 748 704C762 702 766 697 761 689C754 681 743 675 729 672C706 670 677 676 643 690 Z"/>
<defs>
	<clipPath id="z35207c1"><use xlink:href="#z35207d1"/></clipPath>
	<clipPath id="z35207c2"><use xlink:href="#z35207d2"/></clipPath>
	<clipPath id="z35207c3"><use xlink:href="#z35207d3"/></clipPath>
	<clipPath id="z35207c4"><use xlink:href="#z35207d4"/></clipPath>
	<clipPath id="z35207c5"><use xlink:href="#z35207d5"/></clipPath>
	<clipPath id="z35207c6"><use xlink:href="#z35207d6"/></clipPath>
	<clipPath id="z35207c7"><use xlink:href="#z35207d7"/></clipPath>
	<clipPath id="z35207c8"><use xlink:href="#z35207d8"/></clipPath>
	<clipPath id="z35207c9"><use xlink:href="#z35207d9"/></clipPath>
	<clipPath id="z35207c10"><use xlink:href="#z35207d10"/></clipPath>
	<clipPath id="z35207c11"><use xlink:href="#z35207d11"/></clipPath>
	<clipPath id="z35207c12"><use xlink:href="#z35207d12"/></clipPath>
	<clipPath id="z35207c13"><use xlink:href="#z35207d13"/></clipPath>
	<clipPath id="z35207c14"><use xlink:href="#z35207d14"/></clipPath>
	<clipPath id="z35207c15"><use xlink:href="#z35207d15"/></clipPath>
	<clipPath id="z35207c16"><use xlink:href="#z35207d16"/></clipPath>
	<clipPath id="z35207c17"><use xlink:href="#z35207d17"/></clipPath>
	<clipPath id="z35207c18"><use xlink:href="#z35207d18"/></clipPath>
	<clipPath id="z35207c19"><use xlink:href="#z35207d19"/></clipPath>
</defs>
<path pathLength="3333" clip-path="url(#z35207c1)" d="M335 116L703 83"/>
<path pathLength="3333" clip-path="url(#z35207c2)" d="M253 232L293 273L331 390"/>
<path pathLength="3333" clip-path="url(#z35207c3)" d="M310 235L726 187L766 229L704 345"/>
<path pathLength="3333" clip-path="url(#z35207c4)" d="M407 147L437 175L455 327"/>
<path pathLength="3333" clip-path="url(#z35207c5)" d="M567 128L600 167L557 309"/>
<path pathLength="3333" clip-path="url(#z35207c6)" d="M342 345L691 316"/>
<path pathLength="3333" clip-path="url(#z35207c7)" d="M179 504L529 474"/>
<path pathLength="3333" clip-path="url(#z35207c8)" d="M277 434L320 459L341 598"/>
<path pathLength="3333" clip-path="url(#z35207c9)" d="M451 395L474 432L440 543"/>
<path pathLength="3333" clip-path="url(#z35207c10)" d="M356 578L466 559"/>
<path pathLength="3333" clip-path="url(#z35207c11)" d="M222 654L256 688L282 767"/>
<path pathLength="3333" clip-path="url(#z35207c12)" d="M242 652L474 630L506 653L473 706"/>
<path pathLength="3333" clip-path="url(#z35207c13)" d="M295 739L500 723"/>
<path pathLength="3333" clip-path="url(#z35207c14)" d="M120 834L541 801"/>
<path pathLength="3333" clip-path="url(#z35207c15)" d="M368 590L389 624L386 949"/>
<path pathLength="3333" clip-path="url(#z35207c16)" d="M592 435L629 476L618 723L564 858L483 937"/>
<path pathLength="3333" clip-path="url(#z35207c17)" d="M655 451L767 424L810 456L803 879L774 913L696 852"/>
<path pathLength="3333" clip-path="url(#z35207c18)" d="M655 594L744 579"/>
<path pathLength="3333" clip-path="url(#z35207c19)" d="M644 708L758 691"/>
</svg>