<!--
AnimCJK 2016-2019 Copyright Francois Mizessyn - https://github.com/parsimonhi/animCJK
Derived from:
    MakeMeAHanzi project - https://github.com/skishore/makemeahanzi
    Arphic PL KaitiM GB font
    Arphic PL UKai font
You can redistribute and/or modify this file under the terms of the Arphic Public License
as published by Arphic Technology Co., Ltd.
You should have received a copy of this license along with this file.
If not, see http://ftp.gnu.org/non-gnu/chinese-fonts-truetype/LICENSE.
-->
<svg id="z35207" class="acjk" version="1.1" viewBox="0 0 1024 1024" xmlns="http://www.w3.org/2000/svg" xmlns:xlink="http://www.w3.org/1999/xlink">
<style>
<![CDATA[
@keyframes zk {
	to {
		stroke-dashoffset:0;
	}
}
svg.acjk path[clip-path] {
	--t:0.8s;
	animation:zk var(--t) linear forwards var(--d);
	stroke-dasharray:3337;
	stroke-dashoffset:3339;
	stroke-width:128;
	stroke-linecap:round;
	fill:none;
	stroke:#000;
}
svg.acjk path[id] {fill:#ccc;}
]]>
</style>
<path id="z35207d1" d="M602 116C614 114 629 111 645 109C679 103 697 97 703 94C708 89 710 84 708 79C704 70 693 64 676 60C660 55 615 65 541 82C481 95 415 101 348 107C324 108 322 115 338 127C352 137 372 147 397 145C428 142 428 142 443 140C479 136 517 127 559 122C588 118 588 118 602 116Z"/>
<path id="z35207d2" d="M301 231C293 229 279 227 262 225C253 223 249 224 247 228C243 233 244 239 251 250C267 275 282 310 295 354C298 366 303 376 313 386C326 399 333 402 336 390C336 386 338 380 338 374C338 363 336 353 335 343C328 308 323 284 321 268C318 254 315 234 301 231Z"/>
<path id="z35207d3" d="M690 333C690 334 690 335 691 337C693 347 698 352 705 352C715 350 733 335 744 317C761 287 776 254 800 239C811 230 813 220 804 211C794 200 774 186 746 169C736 162 725 161 713 165C687 171 626 179 625 180C586 186 586 186 566 189C552 191 498 199 466 205C433 211 433 211 417 214C371 222 332 227 301 231C287 233 308 274 321 268C325 264 358 256 421 244C452 238 452 238 467 235C494 229 527 225 562 221C597 216 597 216 614 214C670 206 706 201 723 211C726 212 726 221 723 232C711 275 701 301 696 309C695 309 695 310 695 310C691 317 688 325 690 333Z"/>
<path id="z35207d4" d="M397 145C405 154 412 177 417 214C420 234 420 234 421 244C424 266 427 296 433 332C435 345 472 338 472 325C470 293 467 263 467 235C466 215 466 215 466 205C464 171 461 147 443 140C430 132 388 133 397 145Z"/>
<path id="z35207d5" d="M625 180C630 163 641 146 628 134C619 126 609 122 602 116C591 107 552 110 559 122C565 129 570 151 566 189C563 210 563 210 562 221C558 250 553 280 548 312C545 325 584 317 587 304C595 272 604 242 614 214C621 191 621 191 625 180Z"/>
<path id="z35207d6" d="M338 374C344 375 350 374 358 373C427 358 538 345 690 333C698 333 701 316 695 310C691 306 684 299 676 296C664 291 638 293 587 304C561 309 561 309 548 312C521 317 495 320 472 325C446 330 446 330 433 332C398 338 356 343 335 343C325 343 328 374 338 374Z"/>
<path id="z35207d7" d="M480 486C494 484 509 481 525 481C533 480 538 479 538 475C538 469 534 462 526 457C514 450 503 449 493 451C460 457 460 457 443 460C403 467 369 474 343 478C314 482 314 482 300 484C281 486 208 493 186 495C179 495 175 497 174 501C172 506 174 512 182 518C198 530 223 534 257 528C273 524 291 519 309 515C332 510 332 510 344 507C358 503 389 496 438 491C466 488 466 488 480 486Z"/>
<path id="z35207d8" d="M343 478C342 468 343 460 344 456C346 446 343 438 337 435C329 430 318 425 305 422C294 419 283 422 275 429C269 433 273 437 280 444C291 456 296 471 300 484C306 505 306 505 309 515C314 534 316 560 329 592C330 594 331 597 334 601C336 605 340 606 344 602C346 600 349 595 349 585C348 570 348 570 348 563C347 553 344 523 344 507C343 488 343 488 343 478Z"/>
<path id="z35207d9" d="M459 548C465 526 472 506 480 486C489 463 489 463 493 451C496 441 507 424 497 411C485 396 471 390 461 387C454 384 447 384 444 387C439 389 438 395 441 402C444 412 447 420 447 426C446 437 444 448 443 460C440 481 440 481 438 491C435 507 432 524 428 542C426 552 457 558 459 548Z"/>
<path id="z35207d10" d="M384 581C402 578 430 573 466 570C470 569 473 567 474 563C474 561 469 556 459 548C451 542 438 539 428 542C420 544 369 559 348 563C341 564 342 585 349 585C349 585 355 585 358 585C375 582 375 582 384 581Z"/>
<path id="z35207d11" d="M240 650C233 650 219 651 218 653C215 657 216 663 222 670C234 688 246 712 258 742C260 751 265 758 272 764C282 775 289 776 291 767C291 765 292 762 292 759C294 751 290 742 288 734C281 706 277 687 277 677C277 662 255 650 240 650Z"/>
<path id="z35207d12" d="M494 711C508 685 523 672 534 666C543 660 544 647 537 640C503 608 470 604 440 617C429 621 419 624 409 627C382 633 382 633 368 636C341 641 284 650 240 650C225 650 263 683 277 677C293 671 324 668 368 661C394 656 394 656 407 654C417 652 429 649 442 647C454 645 463 645 469 651C471 653 472 658 472 663C469 678 465 692 461 704C457 714 489 721 494 711Z"/>
<path id="z35207d13" d="M404 743C432 739 464 735 500 734C504 733 507 731 509 727C509 725 504 719 494 711C485 704 472 702 461 704C450 705 437 708 404 715C379 720 379 720 367 722C338 727 312 731 288 734C280 735 284 759 292 759C301 759 338 751 366 748C391 745 391 745 404 743Z"/>
<path id="z35207d14" d="M403 825C439 819 489 814 533 812C543 811 548 809 548 805C548 797 544 790 535 785C517 774 466 778 403 791C375 796 375 796 361 799C270 816 186 819 130 823C122 823 117 827 116 831C113 837 116 843 125 850C145 865 176 870 216 860C288 842 342 834 358 832C388 827 388 827 403 825Z"/>
<path id="z35207d15" d="M403 791C403 775 404 759 404 743C404 724 404 724 404 715C404 713 406 668 407 654C408 636 408 636 409 627C410 610 410 601 408 599C399 590 391 585 384 581C376 576 353 577 358 585C364 591 368 608 368 636C368 653 368 653 368 661C368 679 367 700 367 722C366 739 366 739 366 748C365 767 362 783 361 799C359 821 359 821 358 832C356 846 353 862 352 869C347 890 352 912 368 936C374 945 380 953 385 954C390 955 394 950 397 945C402 928 403 889 403 825C403 802 403 802 403 791Z"/>
<path id="z35207d16" d="M643 690C647 656 648 630 650 603C651 584 651 584 652 575C653 553 653 519 653 493C653 485 654 479 656 473C660 464 656 448 647 444C619 432 600 426 591 427C580 429 579 436 589 448C613 486 620 582 605 695C601 723 591 763 577 797C565 824 537 867 489 922C482 928 476 933 475 938C473 941 477 943 484 943C492 943 501 937 513 930C536 912 556 896 571 879C604 836 633 765 640 714C642 698 642 698 643 690Z"/>
<path id="z35207d17" d="M656 473C668 471 698 463 748 449C760 445 768 445 771 452C776 467 780 559 783 683C784 786 779 853 771 863C768 866 760 866 751 864C735 860 721 856 706 851C694 847 685 848 688 852C715 887 742 913 759 938C767 949 775 957 785 962C789 963 795 963 802 957C828 927 844 889 842 846C830 637 826 490 843 465C850 452 850 443 843 436C829 424 812 413 788 405C777 400 765 399 756 405C735 416 719 424 707 429C693 433 673 439 647 444C637 446 646 475 656 473Z"/>
<path id="z35207d18" d="M650 603C682 597 712 593 738 589C750 587 754 581 749 574C742 565 732 561 718 560C697 557 675 563 652 575C644 580 641 605 650 603Z"/>
<path id="z35207d19" d="M640 714C656 715 720 706 748 704C762 702 766 696 761 689C754 680 743 673 729 672C706 668 677 676 643 690C635 693 632 714 640 714Z"/>
<defs>
	<clipPath id="z35207c1"><use xlink:href="#z35207d1"/></clipPath>
	<clipPath id="z35207c2"><use xlink:href="#z35207d2"/></clipPath>
	<clipPath id="z35207c3"><use xlink:href="#z35207d3"/></clipPath>
	<clipPath id="z35207c4"><use xlink:href="#z35207d4"/></clipPath>
	<clipPath id="z35207c5"><use xlink:href="#z35207d5"/></clipPath>
	<clipPath id="z35207c6"><use xlink:href="#z35207d6"/></clipPath>
	<clipPath id="z35207c7"><use xlink:href="#z35207d7"/></clipPath>
	<clipPath id="z35207c8"><use xlink:href="#z35207d8"/></clipPath>
	<clipPath id="z35207c9"><use xlink:href="#z35207d9"/></clipPath>
	<clipPath id="z35207c10"><use xlink:href="#z35207d10"/></clipPath>
	<clipPath id="z35207c11"><use xlink:href="#z35207d11"/></clipPath>
	<clipPath id="z35207c12"><use xlink:href="#z35207d12"/></clipPath>
	<clipPath id="z35207c13"><use xlink:href="#z35207d13"/></clipPath>
	<clipPath id="z35207c14"><use xlink:href="#z35207d14"/></clipPath>
	<clipPath id="z35207c15"><use xlink:href="#z35207d15"/></clipPath>
	<clipPath id="z35207c16"><use xlink:href="#z35207d16"/></clipPath>
	<clipPath id="z35207c17"><use xlink:href="#z35207d17"/></clipPath>
	<clipPath id="z35207c18"><use xlink:href="#z35207d18"/></clipPath>
	<clipPath id="z35207c19"><use xlink:href="#z35207d19"/></clipPath>
</defs>
<path style="--d:1s;" pathLength="3333" clip-path="url(#z35207c1)" d="M335 116L703 83"/>
<path style="--d:2s;" pathLength="3333" clip-path="url(#z35207c2)" d="M253 232L293 273L331 390"/>
<path style="--d:3s;" pathLength="3333" clip-path="url(#z35207c3)" d="M310 235L726 187L766 229L704 345"/>
<path style="--d:4s;" pathLength="3333" clip-path="url(#z35207c4)" d="M407 147L437 175L455 327"/>
<path style="--d:5s;" pathLength="3333" clip-path="url(#z35207c5)" d="M567 128L600 167L557 309"/>
<path style="--d:6s;" pathLength="3333" clip-path="url(#z35207c6)" d="M342 345L691 316"/>
<path style="--d:7s;" pathLength="3333" clip-path="url(#z35207c7)" d="M179 504L529 474"/>
<path style="--d:8s;" pathLength="3333" clip-path="url(#z35207c8)" d="M277 434L320 459L341 598"/>
<path style="--d:9s;" pathLength="3333" clip-path="url(#z35207c9)" d="M451 395L474 432L440 543"/>
<path style="--d:10s;" pathLength="3333" clip-path="url(#z35207c10)" d="M356 578L466 559"/>
<path style="--d:11s;" pathLength="3333" clip-path="url(#z35207c11)" d="M222 654L256 688L282 767"/>
<path style="--d:12s;" pathLength="3333" clip-path="url(#z35207c12)" d="M242 652L474 630L506 653L473 706"/>
<path style="--d:13s;" pathLength="3333" clip-path="url(#z35207c13)" d="M295 739L500 723"/>
<path style="--d:14s;" pathLength="3333" clip-path="url(#z35207c14)" d="M120 834L541 801"/>
<path style="--d:15s;" pathLength="3333" clip-path="url(#z35207c15)" d="M368 590L389 624L386 949"/>
<path style="--d:16s;" pathLength="3333" clip-path="url(#z35207c16)" d="M592 435L629 476L618 723L564 858L483 937"/>
<path style="--d:17s;" pathLength="3333" clip-path="url(#z35207c17)" d="M655 451L767 424L810 456L803 879L774 913L696 852"/>
<path style="--d:18s;" pathLength="3333" clip-path="url(#z35207c18)" d="M655 594L744 579"/>
<path style="--d:19s;" pathLength="3333" clip-path="url(#z35207c19)" d="M644 708L758 691"/>
</svg>