<!--
AnimCJK 2016-2019 Copyright Francois Mizessyn - https://github.com/parsimonhi/animCJK
Derived from:
    MakeMeAHanzi project - https://github.com/skishore/makemeahanzi
    Arphic PL KaitiM GB font
    Arphic PL UKai font
You can redistribute and/or modify this file under the terms of the Arphic Public License
as published by Arphic Technology Co., Ltd.
You should have received a copy of this license along with this file.
If not, see http://ftp.gnu.org/non-gnu/chinese-fonts-truetype/LICENSE.
-->
<svg id="z35211" class="acjk" version="1.1" viewBox="0 0 1024 1024" xmlns="http://www.w3.org/2000/svg" xmlns:xlink="http://www.w3.org/1999/xlink">
<style>
<![CDATA[
@keyframes zk {
	to {
		stroke-dashoffset:0;
	}
}
svg.acjk path[clip-path] {
	--t:0.8s;
	animation:zk var(--t) linear forwards var(--d);
	stroke-dasharray:3337;
	stroke-dashoffset:3339;
	stroke-width:128;
	stroke-linecap:round;
	fill:none;
	stroke:#000;
}
svg.acjk path[id] {fill:#ccc;}
]]>
</style>
<path id="z35211d1" d="M372 109Q353 90 318 93Q305 97 311 109Q366 221 329 415Q323 437 314 456Q299 496 332 538C333 539 333 539 334 540Q341 553 352 546Q356 542 363 531C370 521 373 508 375 496Q384 462 384 390C384 369 384 369 384 359Q383 308 383 269C383 254 383 254 383 246Q383 168 385 138Q385 137 386 137C388 127 380 115 372 109Z"/>
<path id="z35211d2" d="M618 507Q619 519 628 531Q644 564 654 562Q670 561 687 524Q705 496 702 472Q689 372 691 216Q690 171 715 133Q727 117 718 106Q690 81 641 59Q625 53 601 62Q519 95 372 109C362 109 376 139 386 137Q497 112 577 101Q605 97 614 111Q632 133 631 213Q632 433 621 479C619 488 616 498 618 507Z"/>
<path id="z35211d3" d="M383 269Q413 276 489 260Q514 254 544 247Q565 243 568 239Q575 232 571 225Q564 216 541 211Q529 208 443 234Q415 241 383 246C375 247 375 267 383 269Z"/>
<path id="z35211d4" d="M384 390Q450 390 566 361Q566 360 567 360Q574 353 571 346Q564 336 539 330Q518 327 438 350Q435 350 384 359C374 361 374 390 384 390Z"/>
<path id="z35211d5" d="M552 511Q582 508 618 507C627 507 628 486 621 479Q615 473 606 467Q590 458 559 464Q459 486 375 496C363 498 351 531 363 531Q370 531 379 530Q422 521 497 515C534 512 534 512 552 511Z"/>
<path id="z35211d6" d="M376 573Q372 675 261 769Q258 769 257 772Q226 800 150 846Q141 853 148 857Q175 867 266 819Q348 779 421 660Q434 641 449 623Q458 616 454 604Q450 592 421 570Q402 554 391 555Q378 556 376 573Z"/>
<path id="z35211d7" d="M497 515Q518 554 514 613Q508 790 531 827Q577 927 824 907Q912 897 947 876Q978 860 966 826Q945 768 936 668Q933 652 926 646Q917 640 913 662Q900 786 882 809Q872 828 834 836Q785 845 716 845Q637 842 605 829Q575 814 568 796Q547 741 567 637Q573 598 582 577Q597 538 552 511C536 502 489 499 497 515Z"/>
<defs>
	<clipPath id="z35211c1"><use xlink:href="#z35211d1"/></clipPath>
	<clipPath id="z35211c2"><use xlink:href="#z35211d2"/></clipPath>
	<clipPath id="z35211c3"><use xlink:href="#z35211d3"/></clipPath>
	<clipPath id="z35211c4"><use xlink:href="#z35211d4"/></clipPath>
	<clipPath id="z35211c5"><use xlink:href="#z35211d5"/></clipPath>
	<clipPath id="z35211c6"><use xlink:href="#z35211d6"/></clipPath>
	<clipPath id="z35211c7"><use xlink:href="#z35211d7"/></clipPath>
</defs>
<path style="--d:1s;" pathLength="3333" clip-path="url(#z35211c1)" d="M317 101L355 139L362 214L335 539"/>
<path style="--d:2s;" pathLength="3333" clip-path="url(#z35211c2)" d="M382 113L619 80L673 130L655 558"/>
<path style="--d:3s;" pathLength="3333" clip-path="url(#z35211c3)" d="M390 262L568 227"/>
<path style="--d:4s;" pathLength="3333" clip-path="url(#z35211c4)" d="M390 382L568 349"/>
<path style="--d:5s;" pathLength="3333" clip-path="url(#z35211c5)" d="M370 523L618 488"/>
<path style="--d:6s;" pathLength="3333" clip-path="url(#z35211c6)" d="M387 562L412 616L346 719L258 799L152 850"/>
<path style="--d:7s;" pathLength="3333" clip-path="url(#z35211c7)" d="M506 517L548 556L545 802L605 859L763 877L904 850L927 818L921 653"/>
</svg>