<!--
AnimCJK 2016-2026 Copyright FM-SH - https://github.com/parsimonhi/animCJK
Derived from:
    MakeMeAHanzi project - https://github.com/skishore/makemeahanzi
    Arphic PL KaitiM GB font
    Arphic PL KaitiM Big5 font
You can redistribute and/or modify this file under the terms of the Arphic Public License
as published by Arphic Technology Co., Ltd.
You should have received a copy of this license along with this file.
If not, see https://ftp.gnu.org/non-gnu/chinese-fonts-truetype/LICENSE.
-->
<svg id="z35290" class="acjk" viewBox="0 0 1024 1024" xmlns="http://www.w3.org/2000/svg">
<style>
<![CDATA[
@keyframes zk {
	to {
		stroke-dashoffset:0;
	}
}
svg.acjk path[clip-path] {
	--t:0.8s;
	animation:zk var(--t) linear forwards var(--d);
	stroke-dasharray:3337;
	stroke-dashoffset:3339;
	stroke-width:128;
	stroke-linecap:round;
	fill:none;
	stroke:#000;
}
svg.acjk path[id] {fill:#ccc;}
]]>
</style>
<path id="z35290d1" d="M242 213C273 174 291 147 304 136C320 119 304 103 284 88C250 62 233 69 239 90C249 133 211 202 110 316C92 335 97 342 119 330C144 316 175 293 228 230C237 219 237 219 242 213Z"/>
<path id="z35290d2" d="M286 364C342 306 381 258 418 232C428 224 431 217 424 210C415 201 400 190 377 179C367 174 358 177 348 182C314 196 278 205 242 213C235 214 221 227 228 230C240 236 271 235 320 227C335 224 329 235 328 239C309 282 293 317 270 369C268 374 283 368 286 364Z"/>
<path id="z35290d3" d="M156 389C119 363 92 373 103 392C112 409 120 435 122 473C128 649 95 748 39 858C26 882 45 879 62 859C151 758 166 562 168 458C168 444 168 431 170 421C172 410 165 396 156 389Z"/>
<path id="z35290d4" d="M426 765C418 546 415 426 427 404C436 386 422 367 383 347C372 341 361 340 352 343C335 348 313 355 286 364C275 367 275 367 270 369C253 374 203 381 156 389C145 391 159 425 170 421C176 417 197 413 232 405C257 399 257 399 270 396C322 383 351 379 359 386C365 391 370 408 372 440C378 544 377 656 370 777C368 794 365 805 359 811C351 816 330 817 293 814C275 812 280 823 294 830C329 848 354 869 372 887C382 897 391 902 399 900C405 898 412 889 418 874C425 852 427 825 427 796C426 775 426 775 426 765Z"/>
<path id="z35290d5" d="M232 405C242 427 246 457 246 510C246 530 246 530 246 540C246 564 244 598 244 628C244 641 282 629 282 616C282 594 283 562 284 532C285 508 285 508 285 496C287 409 312 421 270 396C259 389 227 393 232 405Z"/>
<path id="z35290d6" d="M246 510C224 517 203 524 185 531C176 534 178 544 189 547C197 548 210 547 246 540C271 535 271 535 284 532C304 527 323 522 342 519C354 516 358 511 353 504C346 495 336 491 322 490C311 489 298 491 285 496C259 505 259 505 246 510Z"/>
<path id="z35290d7" d="M244 628C217 636 178 644 156 651C146 653 145 661 160 667C171 670 199 667 243 660C269 655 269 655 282 653C304 648 340 643 362 640C376 637 380 632 375 625C368 616 357 609 343 608C331 606 300 610 282 616C257 624 257 624 244 628Z"/>
<path id="z35290d8" d="M606 274C645 259 763 212 804 196C831 184 828 173 815 164C775 137 741 124 716 129C710 129 708 137 709 145C709 167 654 210 542 276C536 279 547 294 553 292C557 290 564 288 572 286C595 278 595 278 606 274Z"/>
<path id="z35290d9" d="M542 276C508 250 457 246 476 275C483 285 544 524 426 765C422 775 420 803 427 796C499 737 554 570 549 384C548 369 548 310 553 292C554 286 547 280 542 276Z"/>
<path id="z35290d10" d="M647 359C652 318 657 302 606 274C596 268 566 276 572 286C586 313 596 347 597 365C599 504 604 720 579 816C576 836 632 808 632 788C633 659 639 419 644 383C646 367 646 367 647 359Z"/>
<path id="z35290d11" d="M579 816C554 829 559 843 565 859C573 881 584 897 597 905C604 909 612 905 621 892C639 863 681 813 747 741C752 736 739 718 733 723C691 748 664 770 632 788C597 807 597 807 579 816Z"/>
<path id="z35290d12" d="M747 741C771 772 783 792 792 794C811 796 811 763 811 755C810 731 781 697 719 662C703 653 699 657 699 669C698 674 709 693 733 723C742 735 742 735 747 741Z"/>
<path id="z35290d13" d="M644 383C658 395 668 412 677 431C724 532 771 616 812 688C819 701 830 710 847 713C904 721 945 725 968 726C993 726 995 716 986 711C892 654 828 601 794 553C762 508 722 453 684 383C673 364 663 355 647 359C639 361 638 378 644 383Z"/>
<defs>
	<clipPath id="z35290c1"><use href="#z35290d1"/></clipPath>
	<clipPath id="z35290c2"><use href="#z35290d2"/></clipPath>
	<clipPath id="z35290c3"><use href="#z35290d3"/></clipPath>
	<clipPath id="z35290c4"><use href="#z35290d4"/></clipPath>
	<clipPath id="z35290c5"><use href="#z35290d5"/></clipPath>
	<clipPath id="z35290c6"><use href="#z35290d6"/></clipPath>
	<clipPath id="z35290c7"><use href="#z35290d7"/></clipPath>
	<clipPath id="z35290c8"><use href="#z35290d8"/></clipPath>
	<clipPath id="z35290c9"><use href="#z35290d9"/></clipPath>
	<clipPath id="z35290c10"><use href="#z35290d10"/></clipPath>
	<clipPath id="z35290c11"><use href="#z35290d11"/></clipPath>
	<clipPath id="z35290c12"><use href="#z35290d12"/></clipPath>
	<clipPath id="z35290c13"><use href="#z35290d13"/></clipPath>
</defs>
<path style="--d:1s;" pathLength="3333" clip-path="url(#z35290c1)" d="M246 76L268 135L107 330"/>
<path style="--d:2s;" pathLength="3333" clip-path="url(#z35290c2)" d="M231 224L347 203L378 221L276 363"/>
<path style="--d:3s;" pathLength="3333" clip-path="url(#z35290c3)" d="M107 382L143 422L137 610L107 743L42 870"/>
<path style="--d:4s;" pathLength="3333" clip-path="url(#z35290c4)" d="M158 399L352 362L398 398L394 818L375 856L290 820"/>
<path style="--d:5s;" pathLength="3333" clip-path="url(#z35290c5)" d="M239 403L268 431L263 630"/>
<path style="--d:6s;" pathLength="3333" clip-path="url(#z35290c6)" d="M185 537L347 506"/>
<path style="--d:7s;" pathLength="3333" clip-path="url(#z35290c7)" d="M154 657L369 626"/>
<path style="--d:8s;" pathLength="3333" clip-path="url(#z35290c8)" d="M717 134L765 187L547 282"/>
<path style="--d:9s;" pathLength="3333" clip-path="url(#z35290c9)" d="M480 263L518 298L518 519L489 658L428 788"/>
<path style="--d:10s;" pathLength="3333" clip-path="url(#z35290c10)" d="M578 282L622 342L611 761L590 819"/>
<path style="--d:11s;" pathLength="3333" clip-path="url(#z35290c11)" d="M563 835L606 854L743 730"/>
<path style="--d:12s;" pathLength="3333" clip-path="url(#z35290c12)" d="M705 666L798 788"/>
<path style="--d:13s;" pathLength="3333" clip-path="url(#z35290c13)" d="M649 364L837 656L985 715"/>
</svg>