<!--
AnimCJK 2016-2018 Copyright Francois Mizessyn, https://github.com/parsimonhi/animCJK
Derived from:
    MakeMeAHanzi project - https://github.com/skishore/makemeahanzi
    Arphic PL KaitiM GB - https://apps.ubuntu.com/cat/applications/precise/fonts-arphic-gkai00mp/
    Arphic PL UKai - https://apps.ubuntu.com/cat/applications/fonts-arphic-ukai/
You can redistribute and/or modify this file under the terms of the Arphic Public License
as published by Arphic Technology Co., Ltd.
You should have received a copy of this license (the directory "APL") along with this file;
if not, see http://ftp.gnu.org/non-gnu/chinese-fonts-truetype/LICENSE.
-->
<svg id="z35330" class="acjk" version="1.1" viewBox="0 0 1024 1024" xmlns="http://www.w3.org/2000/svg" xmlns:xlink="http://www.w3.org/1999/xlink">
<style>
<![CDATA[
@keyframes z35330k {
	from {
		stroke:#c00;
		stroke-dashoffset:3334;
	}
	75% {
		stroke:#c00;
		stroke-dashoffset:0;
	}
	to {
		stroke:#000;
	}
}
#z35330 path[clip-path] {
	animation:z35330k 1s linear both;
	stroke-dasharray:3334;
	stroke-width:128;
	stroke-linecap:round;
	fill:none;
}
#z35330 path[clip-path="url(#z35330c1)"] {animation-delay:1s;}
#z35330 path[clip-path="url(#z35330c2)"] {animation-delay:2s;}
#z35330 path[clip-path="url(#z35330c3)"] {animation-delay:3s;}
#z35330 path[clip-path="url(#z35330c4)"] {animation-delay:4s;}
#z35330 path[clip-path="url(#z35330c5)"] {animation-delay:5s;}
#z35330 path[clip-path="url(#z35330c6)"] {animation-delay:6s;}
#z35330 path[clip-path="url(#z35330c7)"] {animation-delay:7s;}
#z35330 path[clip-path="url(#z35330c8)"] {animation-delay:8s;}
#z35330 path[clip-path="url(#z35330c9)"] {animation-delay:9s;}
#z35330 path {fill:#ccc;}
]]>
</style>
<path id="z35330d1" d="M373 115Q395 134 421 159Q437 174 455 172Q467 171 472 156Q476 138 465 105Q458 86 428 75Q353 53 340 61Q334 65 337 80Q341 93 373 115 Z"/>
<path id="z35330d2" d="M96 292Q83 293 80 302Q77 312 93 324Q136 351 177 336Q304 285 477 255Q493 251 494 244Q495 231 476 222Q448 212 424 217Q187 280 96 292 Z"/>
<path id="z35330d3" d="M250 385Q234 391 256 405Q265 409 283 406Q368 384 432 371Q456 364 446 352Q433 337 406 335Q381 334 339 350Q291 369 250 385 Z"/>
<path id="z35330d4" d="M258 478Q242 484 263 496Q272 502 288 498Q367 479 425 465Q447 459 438 448Q426 435 400 432Q376 431 336 446Q294 464 258 478 Z"/>
<path id="z35330d5" d="M236 591Q224 587 200 584Q188 581 185 587Q178 593 188 609Q216 660 235 744Q239 769 255 785Q274 807 279 790Q283 777 280 754L275 722Q259 641 256 618L236 591 Z"/>
<path id="z35330d6" d="M417 701Q439 625 464 605Q486 578 463 564Q444 552 416 535Q395 523 350 552Q284 579 236 591L256 618Q257 615 352 588Q380 581 388 591Q394 597 385 626Q376 657 364 694L417 701 Z"/>
<path id="z35330d7" d="M280 754Q287 753 293 752Q333 739 423 725Q433 724 433 715Q433 709 417 701L364 694Q361 694 360 695Q311 711 275 722L280 754 Z"/>
<path id="z35330d8" d="M739 316Q817 301 959 287Q971 288 980 276Q981 263 958 252Q921 230 854 249Q722 274 531 300Q524 300 517 302Q487 306 510 324Q544 354 574 345Q626 335 691 324L739 316 Z"/>
<path id="z35330d9" d="M691 324Q692 331 698 340Q710 367 709 411Q710 511 709 739Q708 770 696 782Q689 786 624 768Q602 762 601 768Q600 777 610 788Q668 849 703 897Q716 907 732 890Q781 827 775 697Q769 517 778 388Q785 357 778 346Q769 333 739 316L691 324 Z"/>
<defs>
	<clipPath id="z35330c1"><use xlink:href="#z35330d1"/></clipPath>
	<clipPath id="z35330c2"><use xlink:href="#z35330d2"/></clipPath>
	<clipPath id="z35330c3"><use xlink:href="#z35330d3"/></clipPath>
	<clipPath id="z35330c4"><use xlink:href="#z35330d4"/></clipPath>
	<clipPath id="z35330c5"><use xlink:href="#z35330d5"/></clipPath>
	<clipPath id="z35330c6"><use xlink:href="#z35330d6"/></clipPath>
	<clipPath id="z35330c7"><use xlink:href="#z35330d7"/></clipPath>
	<clipPath id="z35330c8"><use xlink:href="#z35330d8"/></clipPath>
	<clipPath id="z35330c9"><use xlink:href="#z35330d9"/></clipPath>
</defs>
<path pathLength="3333" clip-path="url(#z35330c1)" d="M344 66L466 162"/>
<path pathLength="3333" clip-path="url(#z35330c2)" d="M85 305L152 312L432 239L489 242"/>
<path pathLength="3333" clip-path="url(#z35330c3)" d="M249 391L445 354"/>
<path pathLength="3333" clip-path="url(#z35330c4)" d="M258 485L432 449"/>
<path pathLength="3333" clip-path="url(#z35330c5)" d="M187 592L228 627L266 792"/>
<path pathLength="3333" clip-path="url(#z35330c6)" d="M244 594L413 570L432 592L375 694"/>
<path pathLength="3333" clip-path="url(#z35330c7)" d="M289 746L360 715L426 716"/>
<path pathLength="3333" clip-path="url(#z35330c8)" d="M511 313L973 274"/>
<path pathLength="3333" clip-path="url(#z35330c9)" d="M701 330L744 371L739 773L703 846L608 773"/>
</svg>