<!--
AnimCJK 2016-2019 Copyright Francois Mizessyn - https://github.com/parsimonhi/animCJK
Derived from:
    MakeMeAHanzi project - https://github.com/skishore/makemeahanzi
    Arphic PL KaitiM GB font
    Arphic PL UKai font
You can redistribute and/or modify this file under the terms of the Arphic Public License
as published by Arphic Technology Co., Ltd.
You should have received a copy of this license along with this file.
If not, see http://ftp.gnu.org/non-gnu/chinese-fonts-truetype/LICENSE.
-->
<svg id="z35351" class="acjk" version="1.1" viewBox="0 0 1024 1024" xmlns="http://www.w3.org/2000/svg" xmlns:xlink="http://www.w3.org/1999/xlink">
<style>
<![CDATA[
@keyframes zk {
	to {
		stroke-dashoffset:0;
	}
}
svg.acjk path[clip-path] {
	--t:0.8s;
	animation:zk var(--t) linear forwards var(--d);
	stroke-dasharray:3337;
	stroke-dashoffset:3339;
	stroke-width:128;
	stroke-linecap:round;
	fill:none;
	stroke:#000;
}
svg.acjk path[id] {fill:#ccc;}
]]>
</style>
<path id="z35351d1" d="M329 151C344 162 359 178 377 195C387 205 399 209 411 208C419 207 425 202 428 192C431 180 428 162 421 141C416 128 404 117 384 111C334 95 304 91 296 97C291 99 290 106 293 116C295 124 308 135 329 151Z"/>
<path id="z35351d2" d="M67 349C59 350 53 353 52 359C49 365 54 372 65 380C91 398 118 401 145 391C233 357 330 332 434 313C444 311 449 307 450 303C450 294 445 286 433 282C414 274 397 274 383 278C235 316 129 340 67 349Z"/>
<path id="z35351d3" d="M223 435C202 439 201 447 217 455C237 464 270 462 318 448C340 441 363 434 387 426C399 421 407 418 410 416C414 411 415 406 412 402C407 395 396 390 379 389C365 387 292 420 223 435Z"/>
<path id="z35351d4" d="M224 539C203 544 200 553 217 560C244 571 273 569 302 560C329 550 358 543 387 534C399 529 407 526 410 524C414 519 415 514 412 510C407 503 396 499 379 497C363 495 334 511 285 524C262 529 244 534 224 539Z"/>
<path id="z35351d5" d="M203 658C194 653 178 651 156 649C147 648 143 648 141 652C137 657 138 664 144 674C164 708 183 755 197 814C201 831 207 846 219 858C231 870 239 872 242 862C244 852 246 838 243 821C239 802 239 802 237 792C226 741 217 706 214 688C212 678 213 662 203 658Z"/>
<path id="z35351d6" d="M381 765C395 720 410 691 424 677C440 659 439 645 424 636C381 610 357 602 346 603C343 603 340 604 338 606C313 622 268 639 203 658C193 661 204 693 214 688C222 683 255 673 312 659C330 654 341 655 347 662C351 667 351 679 345 699C339 719 332 741 326 765C323 783 374 782 381 765Z"/>
<path id="z35351d7" d="M243 821C254 820 328 801 392 791C398 790 401 787 401 782C401 777 394 771 381 765C364 758 343 758 326 765C292 775 262 784 237 792C228 796 233 823 243 821Z"/>
<path id="z35351d8" d="M600 304C640 280 673 254 703 232C730 210 758 196 785 186C795 181 802 177 804 172C805 163 800 156 790 151C773 142 748 137 715 132C702 130 692 127 684 132C678 134 677 142 679 150C683 180 618 247 481 351C477 353 472 354 470 359C466 365 469 373 474 372C496 366 530 345 578 317C593 308 593 308 600 304Z"/>
<path id="z35351d9" d="M631 509C727 474 808 454 873 449C883 448 888 444 890 437C891 430 888 421 877 415C841 393 798 399 746 424C712 439 674 453 635 468C602 480 602 480 586 486C539 503 489 518 437 536C419 541 417 549 432 555C459 565 498 561 545 542C557 536 570 531 584 526C615 515 615 515 631 509Z"/>
<path id="z35351d10" d="M584 526C577 666 588 755 624 790C683 847 774 867 893 850C899 849 905 846 913 845C941 837 969 822 997 802C1012 791 1014 775 1005 756C996 737 984 702 973 648C970 637 969 629 965 626C961 623 957 628 954 641C935 699 920 736 908 754C899 766 882 774 857 780C797 792 739 785 686 755C645 731 625 680 625 606C625 575 627 543 631 509C634 482 634 482 635 468C638 433 642 396 651 358C654 345 651 336 644 329C628 313 614 304 600 304C592 303 578 308 578 317C578 319 578 323 580 329C588 357 592 384 591 411C589 437 587 462 586 486C585 513 585 513 584 526Z"/>
<defs>
	<clipPath id="z35351c1"><use xlink:href="#z35351d1"/></clipPath>
	<clipPath id="z35351c2"><use xlink:href="#z35351d2"/></clipPath>
	<clipPath id="z35351c3"><use xlink:href="#z35351d3"/></clipPath>
	<clipPath id="z35351c4"><use xlink:href="#z35351d4"/></clipPath>
	<clipPath id="z35351c5"><use xlink:href="#z35351d5"/></clipPath>
	<clipPath id="z35351c6"><use xlink:href="#z35351d6"/></clipPath>
	<clipPath id="z35351c7"><use xlink:href="#z35351d7"/></clipPath>
	<clipPath id="z35351c8"><use xlink:href="#z35351d8"/></clipPath>
	<clipPath id="z35351c9"><use xlink:href="#z35351d9"/></clipPath>
	<clipPath id="z35351c10"><use xlink:href="#z35351d10"/></clipPath>
</defs>
<path style="--d:1s;" pathLength="3333" clip-path="url(#z35351c1)" d="M300 102L422 198"/>
<path style="--d:2s;" pathLength="3333" clip-path="url(#z35351c2)" d="M56 361L108 370L444 300"/>
<path style="--d:3s;" pathLength="3333" clip-path="url(#z35351c3)" d="M215 445L405 409"/>
<path style="--d:4s;" pathLength="3333" clip-path="url(#z35351c4)" d="M 215,550 409,511"/>
<path style="--d:5s;" pathLength="3333" clip-path="url(#z35351c5)" d="M147 653L177 672L232 864"/>
<path style="--d:6s;" pathLength="3333" clip-path="url(#z35351c6)" d="M208 659L344 630L382 647L392 667L355 758L335 759"/>
<path style="--d:7s;" pathLength="3333" clip-path="url(#z35351c7)" d="M244 800L396 777"/>
<path style="--d:8s;" pathLength="3333" clip-path="url(#z35351c8)" d="M 687,140 748,172 478,365"/>
<path style="--d:9s;" pathLength="3333" clip-path="url(#z35351c9)" d="M427 545L792 434L886 435"/>
<path style="--d:10s;" pathLength="3333" clip-path="url(#z35351c10)" d="M583 319L619 350L607 663L651 770L775 818L908 805L961 766L963 636"/>
</svg>