<!--
AnimCJK 2016-2026 Copyright FM-SH, https://github.com/parsimonhi/animCJK
Derived from:
    MakeMeAHanzi project - https://github.com/skishore/makemeahanzi
    Arphic PL KaitiM GB font
    Arphic PL KaitiM Big5 font
You can redistribute and/or modify this file under the terms of the Arphic Public License
as published by Arphic Technology Co., Ltd.
You should have received a copy of this license along with this file.
If not, see https://ftp.gnu.org/non-gnu/chinese-fonts-truetype/LICENSE.
-->
<svg id="z35365" class="acjk" viewBox="0 0 1024 1024" xmlns="http://www.w3.org/2000/svg">
<style>
<![CDATA[
@keyframes zk {
	to {
		stroke-dashoffset:0;
	}
}
svg.acjk path[clip-path] {
	--t:0.8s;
	animation:zk var(--t) linear forwards var(--d);
	stroke-dasharray:3337;
	stroke-dashoffset:3339;
	stroke-width:128;
	stroke-linecap:round;
	fill:none;
	stroke:#000;
}
svg.acjk path[id] {fill:#ccc;}
]]>
</style>
<path id="z35365d1" d="M324 162C338 176 353 193 369 211C379 221 390 226 402 226C410 226 416 221 420 211C424 200 424 183 418 160C414 147 402 136 383 127C337 107 308 99 296 105C292 107 290 114 291 124C293 132 304 145 324 162Z"/>
<path id="z35365d2" d="M65 360C56 360 50 364 48 370C46 376 50 384 61 392C89 410 117 415 145 405C237 373 336 348 444 330C456 328 462 324 462 320C462 311 456 304 444 298C425 290 408 288 393 292C247 328 137 350 65 360Z"/>
<path id="z35365d3" d="M223 453C198 459 195 467 214 477C238 489 279 488 339 475C351 472 363 469 376 467C386 464 391 462 393 461C399 455 400 449 396 444C391 436 378 430 358 427C345 425 314 431 266 446C252 448 237 451 223 453Z"/>
<path id="z35365d4" d="M209 563C188 567 186 574 202 584C224 594 259 593 308 581C326 576 347 571 370 565C382 561 390 558 393 556C397 551 398 546 395 542C390 535 379 530 363 528C355 526 322 534 266 552C249 556 230 560 209 563Z"/>
<path id="z35365d5" d="M182 669C174 666 161 663 144 659C136 657 131 657 129 661C124 665 125 673 131 683C149 723 164 775 176 840C178 858 184 874 196 888C208 902 215 905 219 895C223 881 224 861 220 835C217 815 217 815 215 805C206 749 201 713 199 697C197 686 192 673 182 669Z"/>
<path id="z35365d6" d="M364 784C374 738 387 708 402 695C418 677 418 663 402 653C388 645 372 635 354 624C342 616 320 621 288 639C262 649 226 659 182 669C171 671 189 701 199 697C201 695 231 688 289 676C307 672 318 673 322 681C326 683 326 695 322 717C318 735 314 756 310 780C306 798 360 802 364 784Z"/>
<path id="z35365d7" d="M220 835C224 835 230 835 236 834C264 827 310 820 374 813C380 812 384 809 384 803C384 798 377 792 364 784C349 775 328 776 310 780C273 790 241 799 215 805C205 807 210 835 220 835Z"/>
<path id="z35365d8" d="M518 380C472 342 440 341 456 375C486 438 488 536 467 686C457 748 446 783 448 797C450 820 460 834 468 843C476 852 482 852 490 843C507 822 519 782 519 681C519 674 519 674 519 670C519 558 522 475 528 420C530 406 529 388 518 380Z"/>
<path id="z35365d9" d="M686 380C791 355 838 327 846 418C855 521 856 679 851 799C849 835 841 847 755 825C735 820 732 831 754 845C796 873 826 902 850 926C863 939 875 944 883 943C891 941 900 930 907 912C918 881 923 842 921 801C907 577 904 412 917 387C924 371 923 360 918 354C909 343 891 331 861 316C847 309 834 308 822 312C796 320 713 337 674 348C647 355 647 355 633 359C588 371 545 377 518 380C505 383 514 422 528 420C542 418 594 401 631 393C668 384 668 384 686 380Z"/>
<path id="z35365d10" d="M639 372C619 474 598 590 519 670C512 674 513 679 519 681C537 685 555 670 567 658C631 597 651 511 664 440C669 416 644 348 639 372Z"/>
<path id="z35365d11" d="M664 440C710 561 733 645 751 655C759 660 790 663 839 672C863 675 846 656 834 643C809 616 791 597 770 572C760 560 738 518 686 380C678 359 678 359 674 348C659 310 600 136 578 118C560 103 540 99 526 104C506 109 506 118 527 132C553 149 606 288 633 359C654 413 654 413 664 440Z"/>
<defs>
	<clipPath id="z35365c1"><use href="#z35365d1"/></clipPath>
	<clipPath id="z35365c2"><use href="#z35365d2"/></clipPath>
	<clipPath id="z35365c3"><use href="#z35365d3"/></clipPath>
	<clipPath id="z35365c4"><use href="#z35365d4"/></clipPath>
	<clipPath id="z35365c5"><use href="#z35365d5"/></clipPath>
	<clipPath id="z35365c6"><use href="#z35365d6"/></clipPath>
	<clipPath id="z35365c7"><use href="#z35365d7"/></clipPath>
	<clipPath id="z35365c8"><use href="#z35365d8"/></clipPath>
	<clipPath id="z35365c9"><use href="#z35365d9"/></clipPath>
	<clipPath id="z35365c10"><use href="#z35365d10"/></clipPath>
	<clipPath id="z35365c11"><use href="#z35365d11"/></clipPath>
</defs>
<path style="--d:1s;" pathLength="3333" clip-path="url(#z35365c1)" d="M298 111L380 167L411 219"/>
<path style="--d:2s;" pathLength="3333" clip-path="url(#z35365c2)" d="M52 372L117 381L457 313"/>
<path style="--d:3s;" pathLength="3333" clip-path="url(#z35365c3)" d="M207 465L394 450"/>
<path style="--d:4s;" pathLength="3333" clip-path="url(#z35365c4)" d="M201 574L390 545"/>
<path style="--d:5s;" pathLength="3333" clip-path="url(#z35365c5)" d="M134 664L169 698L206 893"/>
<path style="--d:6s;" pathLength="3333" clip-path="url(#z35365c6)" d="M184 673L342 653L368 686L334 793"/>
<path style="--d:7s;" pathLength="3333" clip-path="url(#z35365c7)" d="M212 819L380 801"/>
<path style="--d:8s;" pathLength="3333" clip-path="url(#z35365c8)" d="M460 361L501 425L479 845"/>
<path style="--d:9s;" pathLength="3333" clip-path="url(#z35365c9)" d="M514 393L828 334L881 374L876 865L853 891L746 829"/>
<path style="--d:10s;" pathLength="3333" clip-path="url(#z35365c10)" d="M642 375L616 547L525 673"/>
<path style="--d:11s;" pathLength="3333" clip-path="url(#z35365c11)" d="M516 113L576 160L745 587L775 631L843 665"/>
</svg>