<!--
AnimCJK 2016-2018 Copyright Francois Mizessyn, https://github.com/parsimonhi/animCJK
Derived from:
    MakeMeAHanzi project - https://github.com/skishore/makemeahanzi
    Arphic PL KaitiM GB - https://apps.ubuntu.com/cat/applications/precise/fonts-arphic-gkai00mp/
    Arphic PL UKai - https://apps.ubuntu.com/cat/applications/fonts-arphic-ukai/
You can redistribute and/or modify this file under the terms of the Arphic Public License
as published by Arphic Technology Co., Ltd.
You should have received a copy of this license (the directory "APL") along with this file;
if not, see http://ftp.gnu.org/non-gnu/chinese-fonts-truetype/LICENSE.
-->
<svg id="z35379" class="acjk" version="1.1" viewBox="0 0 1024 1024" xmlns="http://www.w3.org/2000/svg" xmlns:xlink="http://www.w3.org/1999/xlink">
<style>
<![CDATA[
@keyframes z35379k {
	from {
		stroke:#c00;
		stroke-dashoffset:3334;
	}
	75% {
		stroke:#c00;
		stroke-dashoffset:0;
	}
	to {
		stroke:#000;
	}
}
#z35379 path[clip-path] {
	animation:z35379k 1s linear both;
	stroke-dasharray:3334;
	stroke-width:128;
	stroke-linecap:round;
	fill:none;
}
#z35379 path[clip-path="url(#z35379c1)"] {animation-delay:1s;}
#z35379 path[clip-path="url(#z35379c2)"] {animation-delay:2s;}
#z35379 path[clip-path="url(#z35379c3)"] {animation-delay:3s;}
#z35379 path[clip-path="url(#z35379c4)"] {animation-delay:4s;}
#z35379 path[clip-path="url(#z35379c5)"] {animation-delay:5s;}
#z35379 path[clip-path="url(#z35379c6)"] {animation-delay:6s;}
#z35379 path[clip-path="url(#z35379c7)"] {animation-delay:7s;}
#z35379 path[clip-path="url(#z35379c8)"] {animation-delay:8s;}
#z35379 path[clip-path="url(#z35379c9)"] {animation-delay:9s;}
#z35379 path[clip-path="url(#z35379c10)"] {animation-delay:10s;}
#z35379 path[clip-path="url(#z35379c11)"] {animation-delay:11s;}
#z35379 path {fill:#ccc;}
]]>
</style>
<path id="z35379d1" d="M326 84Q356 106 388 133Q401 145 418 143Q428 142 433 128Q437 112 425 83Q413 53 318 36Q302 35 296 37Q292 41 293 54Q297 64 326 84 Z"/>
<path id="z35379d2" d="M73 268Q60 269 56 278Q53 288 69 300Q108 327 153 314Q282 269 424 246Q442 243 442 236Q443 223 424 214Q396 202 373 208Q189 251 73 268 Z"/>
<path id="z35379d3" d="M211 373Q183 382 205 392Q242 407 284 391Q384 358 390 355Q396 348 392 341Q385 332 361 329Q340 328 271 357Q244 366 211 373 Z"/>
<path id="z35379d4" d="M216 469Q188 476 209 488Q239 504 288 491Q387 464 397 459Q404 452 399 445Q392 436 369 432Q351 429 278 456Q248 463 216 469 Z"/>
<path id="z35379d5" d="M194 581Q182 577 156 571Q144 568 141 573Q134 579 143 595Q171 656 188 758Q191 788 208 808Q226 830 231 815Q238 793 232 751L227 719Q212 631 211 607Q210 606 212 606L194 581 Z"/>
<path id="z35379d6" d="M373 696Q391 623 412 600Q434 575 412 561Q349 528 346 528Q337 528 329 534Q287 559 194 581L212 606Q260 593 301 583Q329 576 336 587Q343 593 336 624Q330 655 323 691L373 696 Z"/>
<path id="z35379d7" d="M232 751Q242 752 256 749Q296 739 386 727Q396 726 397 716Q397 709 373 696L323 691Q319 691 318 692Q267 708 227 719L232 751 Z"/>
<path id="z35379d8" d="M798 394C781 392 765 389 748 386C760 346 771 304 778 263C779 252 779 239 771 230C759 223 745 231 734 233C682 248 630 264 578 277C572 279 573 270 570 267C567 258 563 248 560 239C631 224 702 205 766 172C780 165 796 167 808 177C827 190 847 203 864 219C872 231 871 248 863 260C858 267 851 272 846 279C824 312 812 351 801 388C800 390 801 396 798 394 Z"/>
<path id="z35379d9" d="M590 467Q658 445 805 429Q815 428 816 417Q816 410 796 392L749 384Q745 384 745 385Q642 418 560 432L554 479L590 467 Z"/>
<path id="z35379d10" d="M350 902C342 902 337 892 343 886C363 856 388 830 407 800C435 761 459 719 472 672C494 606 508 537 511 468C515 402 519 335 511 269C509 254 504 239 498 224C495 216 498 205 507 203C520 200 533 208 544 214C555 220 567 228 573 240C574 253 573 265 572 278C568 301 570 325 567 349C562 412 558 474 550 537C542 595 532 653 512 709C492 762 462 811 422 852C406 869 388 884 369 897C364 900 357 902 350 902 Z"/>
<path id="z35379d11" d="M893 869C872 868 851 868 831 867C814 864 801 850 795 835C743 738 695 638 649 538C640 518 629 499 615 483C616 474 617 464 618 454C629 450 642 454 650 463C658 474 662 486 669 497C700 554 732 611 768 665C819 738 889 797 963 844C969 848 970 857 964 861C955 867 943 866 933 867C920 868 906 869 893 869 Z"/>
<defs>
	<clipPath id="z35379c1"><use xlink:href="#z35379d1"/></clipPath>
	<clipPath id="z35379c2"><use xlink:href="#z35379d2"/></clipPath>
	<clipPath id="z35379c3"><use xlink:href="#z35379d3"/></clipPath>
	<clipPath id="z35379c4"><use xlink:href="#z35379d4"/></clipPath>
	<clipPath id="z35379c5"><use xlink:href="#z35379d5"/></clipPath>
	<clipPath id="z35379c6"><use xlink:href="#z35379d6"/></clipPath>
	<clipPath id="z35379c7"><use xlink:href="#z35379d7"/></clipPath>
	<clipPath id="z35379c8"><use xlink:href="#z35379d8"/></clipPath>
	<clipPath id="z35379c9"><use xlink:href="#z35379d9"/></clipPath>
	<clipPath id="z35379c10"><use xlink:href="#z35379d10"/></clipPath>
	<clipPath id="z35379c11"><use xlink:href="#z35379d11"/></clipPath>
</defs>
<path pathLength="3333" clip-path="url(#z35379c1)" d="M300 45L394 95L421 137"/>
<path pathLength="3333" clip-path="url(#z35379c2)" d="M63 281L119 290L437 230"/>
<path pathLength="3333" clip-path="url(#z35379c3)" d="M205 383L385 346"/>
<path pathLength="3333" clip-path="url(#z35379c4)" d="M210 479L397 450"/>
<path pathLength="3333" clip-path="url(#z35379c5)" d="M147 581L184 617L222 814"/>
<path pathLength="3333" clip-path="url(#z35379c6)" d="M202 583L337 555L364 569L380 591L336 692"/>
<path pathLength="3333" clip-path="url(#z35379c7)" d="M233 725L390 712"/>
<path pathLength="3333" clip-path="url(#z35379c8)" d="M567 242L593 252L772 199L800 211L823 252L760 387"/>
<path pathLength="3333" clip-path="url(#z35379c9)" d="M559 471L587 446L810 413"/>
<path pathLength="3333" clip-path="url(#z35379c10)" d="M507 208L542 276L515 609L448 782L347 896"/>
<path pathLength="3333" clip-path="url(#z35379c11)" d="M625 460L835 810L963 851"/>
</svg>