<!--
AnimCJK 2016-2026 Copyright FM-SH, https://github.com/parsimonhi/animCJK
Derived from:
    MakeMeAHanzi project - https://github.com/skishore/makemeahanzi
    Arphic PL KaitiM GB font
    Arphic PL KaitiM Big5 font
You can redistribute and/or modify this file under the terms of the Arphic Public License
as published by Arphic Technology Co., Ltd.
You should have received a copy of this license along with this file.
If not, see https://ftp.gnu.org/non-gnu/chinese-fonts-truetype/LICENSE.
-->
<svg id="z35382" class="acjk" viewBox="0 0 1024 1024" xmlns="http://www.w3.org/2000/svg">
<style>
<![CDATA[
@keyframes zk {
	to {
		stroke-dashoffset:0;
	}
}
svg.acjk path[clip-path] {
	--t:0.8s;
	animation:zk var(--t) linear forwards var(--d);
	stroke-dasharray:3337;
	stroke-dashoffset:3339;
	stroke-width:128;
	stroke-linecap:round;
	fill:none;
	stroke:#000;
}
svg.acjk path[id] {fill:#ccc;}
]]>
</style>
<path id="z35382d1" d="M353 92Q375 113 401 138Q416 151 432 150Q444 150 449 136Q453 120 444 89Q434 62 347 41Q331 38 324 41Q318 45 320 59Q324 69 353 92Z"/>
<path id="z35382d2" d="M81 272Q66 273 63 283Q60 296 78 307Q123 338 169 320Q313 269 464 241Q482 238 483 230Q484 215 463 206Q432 193 407 200Q184 258 81 272Z"/>
<path id="z35382d3" d="M214 397Q196 403 220 416Q227 422 244 418Q320 399 376 387Q401 380 390 368Q377 355 350 352Q323 351 214 397Z"/>
<path id="z35382d4" d="M222 513Q204 519 228 532Q235 536 251 533Q323 515 377 503Q401 496 390 484Q377 471 350 468Q320 467 222 513Z"/>
<path id="z35382d5" d="M197 620Q185 616 160 612Q148 609 145 614Q138 621 147 636Q177 694 195 789Q199 817 216 837Q234 859 239 843Q246 822 238 780Q237 776 236 774C232 753 232 753 230 742Q217 669 216 647C216 636 208 622 197 620Z"/>
<path id="z35382d6" d="M380 712Q396 655 415 639Q437 611 413 597Q352 564 347 564Q337 564 326 570Q289 595 197 620C186 622 206 651 216 647Q219 643 303 623Q328 616 335 626Q341 630 336 658Q332 683 325 712C321 730 376 730 380 712Z"/>
<path id="z35382d7" d="M236 774Q245 775 256 772Q299 759 395 743Q405 742 406 732Q406 725 380 712C363 705 342 706 325 712Q271 731 230 742C220 745 225 774 236 774Z"/>
<path id="z35382d8" d="M761 308Q821 302 959 301Q978 300 984 292Q988 280 972 266Q918 230 882 238Q803 256 464 310Q443 311 459 329Q489 356 539 345Q620 321 714 313C745 310 745 310 761 308Z"/>
<path id="z35382d9" d="M495 466Q483 460 452 456Q440 452 437 458Q430 464 439 480Q463 525 479 600Q482 622 496 637Q514 659 519 643Q520 636 522 623C520 602 520 602 519 592Q509 517 507 494C505 484 504 470 495 466Z"/>
<path id="z35382d10" d="M662 568Q680 507 706 489Q719 471 706 456Q637 408 586 437Q550 449 495 466C486 470 498 498 507 494Q511 493 518 490Q561 481 604 471Q616 468 620 473Q632 485 614 568C611 584 659 584 662 568Z"/>
<path id="z35382d11" d="M522 623Q528 623 536 622Q581 612 678 601Q688 600 688 591Q688 584 662 568C648 560 629 563 614 568Q559 583 519 592C509 594 512 623 522 623Z"/>
<path id="z35382d12" d="M714 313Q715 320 723 333Q735 360 735 404Q750 833 731 859Q719 866 689 858Q664 849 630 840Q617 836 617 844Q617 853 628 863Q700 924 743 971Q756 981 772 963Q817 906 811 818Q793 551 804 379Q810 349 803 338Q793 325 761 308C747 300 711 298 714 313Z"/>
<defs>
	<clipPath id="z35382c1"><use href="#z35382d1"/></clipPath>
	<clipPath id="z35382c2"><use href="#z35382d2"/></clipPath>
	<clipPath id="z35382c3"><use href="#z35382d3"/></clipPath>
	<clipPath id="z35382c4"><use href="#z35382d4"/></clipPath>
	<clipPath id="z35382c5"><use href="#z35382d5"/></clipPath>
	<clipPath id="z35382c6"><use href="#z35382d6"/></clipPath>
	<clipPath id="z35382c7"><use href="#z35382d7"/></clipPath>
	<clipPath id="z35382c8"><use href="#z35382d8"/></clipPath>
	<clipPath id="z35382c9"><use href="#z35382d9"/></clipPath>
	<clipPath id="z35382c10"><use href="#z35382d10"/></clipPath>
	<clipPath id="z35382c11"><use href="#z35382d11"/></clipPath>
	<clipPath id="z35382c12"><use href="#z35382d12"/></clipPath>
</defs>
<path style="--d:1s;" pathLength="3333" clip-path="url(#z35382c1)" d="M324 51L415 104L430 147"/>
<path style="--d:2s;" pathLength="3333" clip-path="url(#z35382c2)" d="M67 287L131 296L478 220"/>
<path style="--d:3s;" pathLength="3333" clip-path="url(#z35382c3)" d="M211 402L387 373"/>
<path style="--d:4s;" pathLength="3333" clip-path="url(#z35382c4)" d="M220 520L387 488"/>
<path style="--d:5s;" pathLength="3333" clip-path="url(#z35382c5)" d="M150 620L188 654L228 844"/>
<path style="--d:6s;" pathLength="3333" clip-path="url(#z35382c6)" d="M199 624L326 595L377 615L344 724"/>
<path style="--d:7s;" pathLength="3333" clip-path="url(#z35382c7)" d="M227 755L402 729"/>
<path style="--d:8s;" pathLength="3333" clip-path="url(#z35382c8)" d="M460 315L515 325L892 269L981 285"/>
<path style="--d:9s;" pathLength="3333" clip-path="url(#z35382c9)" d="M441 463L475 486L513 643"/>
<path style="--d:10s;" pathLength="3333" clip-path="url(#z35382c10)" d="M496 472L613 448L664 470L632 578"/>
<path style="--d:11s;" pathLength="3333" clip-path="url(#z35382c11)" d="M516 606L682 589"/>
<path style="--d:12s;" pathLength="3333" clip-path="url(#z35382c12)" d="M721 308L769 356L771 866L739 923L623 847"/>
</svg>