<!--
AnimCJK 2016-2026 Copyright FM-SH, https://github.com/parsimonhi/animCJK
Derived from:
    MakeMeAHanzi project - https://github.com/skishore/makemeahanzi
    Arphic PL KaitiM GB font
    Arphic PL KaitiM Big5 font
You can redistribute and/or modify this file under the terms of the Arphic Public License
as published by Arphic Technology Co., Ltd.
You should have received a copy of this license along with this file.
If not, see https://ftp.gnu.org/non-gnu/chinese-fonts-truetype/LICENSE.
-->
<svg id="z35393" class="acjk" viewBox="0 0 1024 1024" xmlns="http://www.w3.org/2000/svg">
<style>
<![CDATA[
@keyframes zk {
	to {
		stroke-dashoffset:0;
	}
}
svg.acjk path[clip-path] {
	--t:0.8s;
	animation:zk var(--t) linear forwards var(--d);
	stroke-dasharray:3337;
	stroke-dashoffset:3339;
	stroke-width:128;
	stroke-linecap:round;
	fill:none;
	stroke:#000;
}
svg.acjk path[id] {fill:#ccc;}
]]>
</style>
<path id="z35393d1" d="M353 112C368 125 383 141 401 158C418 173 468 188 444 109C438 90 405 74 347 61C322 55 316 61 320 79C321 86 334 95 353 112Z"/>
<path id="z35393d2" d="M81 292C59 294 54 311 78 327C108 346 138 351 169 340C264 305 363 279 464 261C496 255 483 234 463 226C442 217 423 215 407 220C258 258 149 283 81 292Z"/>
<path id="z35393d3" d="M214 417C196 423 216 444 244 438C294 425 338 416 376 407C413 397 383 374 350 372C332 370 287 387 214 417Z"/>
<path id="z35393d4" d="M222 533C206 540 220 559 251 553C299 542 341 532 377 523C412 513 384 490 350 488C330 486 288 503 222 533Z"/>
<path id="z35393d5" d="M197 640C184 635 124 616 147 656C168 694 183 725 195 789C198 807 208 843 220 857C232 871 239 873 243 863C247 848 242 807 240 794C236 773 236 773 234 762C230 742 217 687 216 667C216 656 207 644 197 640Z"/>
<path id="z35393d6" d="M380 732C390 694 403 671 415 659C431 641 429 625 413 617C372 594 350 584 347 584C340 584 333 585 326 590C300 606 258 623 197 640C186 642 207 673 216 667C218 664 247 657 303 643C343 632 339 655 336 678C333 694 329 712 325 732C321 750 376 750 380 732Z"/>
<path id="z35393d7" d="M240 794C261 796 259 787 395 763C425 757 389 736 380 732C364 723 342 726 325 732C289 744 261 754 234 762C224 765 229 794 240 794Z"/>
<path id="z35393d8" d="M695 443C719 438 791 426 912 411C927 409 951 397 910 376C883 361 845 364 791 379C733 394 702 399 699 400C664 407 664 407 647 410C563 426 521 426 465 434C444 436 441 443 458 456C477 472 503 479 535 473C561 467 612 458 646 452C679 446 679 446 695 443Z"/>
<path id="z35393d9" d="M681 606C685 550 690 495 695 443C698 414 698 414 699 400C707 307 714 227 733 160C735 151 730 141 715 131C691 115 668 107 651 104C628 99 610 110 624 134C670 215 649 319 647 410C646 438 646 438 646 452C644 504 639 558 634 616C631 632 681 622 681 606Z"/>
<path id="z35393d10" d="M547 629C527 621 462 591 485 640C505 684 520 744 530 819C532 840 539 860 551 875C573 906 578 875 580 848C580 834 577 821 576 809C567 744 558 686 556 662C556 651 558 633 547 629Z"/>
<path id="z35393d11" d="M817 787C837 719 860 678 883 660C896 649 896 633 885 621C874 609 848 595 812 578C798 572 785 573 769 579C738 589 709 600 681 606C650 613 650 613 634 616C605 622 576 625 547 629C536 631 545 664 556 662C596 657 699 638 749 629C763 626 773 627 779 633C791 645 786 693 764 775C761 793 813 805 817 787Z"/>
<path id="z35393d12" d="M580 848C594 847 670 836 825 822C849 819 838 804 817 787C804 774 782 772 764 775C739 781 671 795 576 809C563 812 567 848 580 848Z"/>
<defs>
	<clipPath id="z35393c1"><use href="#z35393d1"/></clipPath>
	<clipPath id="z35393c2"><use href="#z35393d2"/></clipPath>
	<clipPath id="z35393c3"><use href="#z35393d3"/></clipPath>
	<clipPath id="z35393c4"><use href="#z35393d4"/></clipPath>
	<clipPath id="z35393c5"><use href="#z35393d5"/></clipPath>
	<clipPath id="z35393c6"><use href="#z35393d6"/></clipPath>
	<clipPath id="z35393c7"><use href="#z35393d7"/></clipPath>
	<clipPath id="z35393c8"><use href="#z35393d8"/></clipPath>
	<clipPath id="z35393c9"><use href="#z35393d9"/></clipPath>
	<clipPath id="z35393c10"><use href="#z35393d10"/></clipPath>
	<clipPath id="z35393c11"><use href="#z35393d11"/></clipPath>
	<clipPath id="z35393c12"><use href="#z35393d12"/></clipPath>
</defs>
<path style="--d:1s;" pathLength="3333" clip-path="url(#z35393c1)" d="M322 65L441 162"/>
<path style="--d:2s;" pathLength="3333" clip-path="url(#z35393c2)" d="M67 306L137 314L479 245"/>
<path style="--d:3s;" pathLength="3333" clip-path="url(#z35393c3)" d="M213 426L385 396"/>
<path style="--d:4s;" pathLength="3333" clip-path="url(#z35393c4)" d="M221 543L388 508"/>
<path style="--d:5s;" pathLength="3333" clip-path="url(#z35393c5)" d="M148 639L186 666L237 862"/>
<path style="--d:6s;" pathLength="3333" clip-path="url(#z35393c6)" d="M199 649L359 623L381 647L337 742"/>
<path style="--d:7s;" pathLength="3333" clip-path="url(#z35393c7)" d="M230 773L398 752"/>
<path style="--d:8s;" pathLength="3333" clip-path="url(#z35393c8)" d="M455 443L524 451L927 394"/>
<path style="--d:9s;" pathLength="3333" clip-path="url(#z35393c9)" d="M626 111L688 166L655 621"/>
<path style="--d:10s;" pathLength="3333" clip-path="url(#z35393c10)" d="M486 619L524 652L563 879"/>
<path style="--d:11s;" pathLength="3333" clip-path="url(#z35393c11)" d="M545 636L778 601L810 613L839 648L787 792"/>
<path style="--d:12s;" pathLength="3333" clip-path="url(#z35393c12)" d="M570 829L834 807"/>
</svg>