<!--
AnimCJK 2016-2018 Copyright Francois Mizessyn, https://github.com/parsimonhi/animCJK
Derived from:
    MakeMeAHanzi project - https://github.com/skishore/makemeahanzi
    Arphic PL KaitiM GB - https://apps.ubuntu.com/cat/applications/precise/fonts-arphic-gkai00mp/
    Arphic PL UKai - https://apps.ubuntu.com/cat/applications/fonts-arphic-ukai/
You can redistribute and/or modify this file under the terms of the Arphic Public License
as published by Arphic Technology Co., Ltd.
You should have received a copy of this license (the directory "APL") along with this file;
if not, see http://ftp.gnu.org/non-gnu/chinese-fonts-truetype/LICENSE.
-->
<svg id="z35408" class="acjk" version="1.1" viewBox="0 0 1024 1024" xmlns="http://www.w3.org/2000/svg" xmlns:xlink="http://www.w3.org/1999/xlink">
<style>
<![CDATA[
@keyframes z35408k {
	from {
		stroke:#c00;
		stroke-dashoffset:3334;
	}
	75% {
		stroke:#c00;
		stroke-dashoffset:0;
	}
	to {
		stroke:#000;
	}
}
#z35408 path[clip-path] {
	animation:z35408k 1s linear both;
	stroke-dasharray:3334;
	stroke-width:128;
	stroke-linecap:round;
	fill:none;
}
#z35408 path[clip-path="url(#z35408c1)"] {animation-delay:1s;}
#z35408 path[clip-path="url(#z35408c2)"] {animation-delay:2s;}
#z35408 path[clip-path="url(#z35408c3)"] {animation-delay:3s;}
#z35408 path[clip-path="url(#z35408c4)"] {animation-delay:4s;}
#z35408 path[clip-path="url(#z35408c5)"] {animation-delay:5s;}
#z35408 path[clip-path="url(#z35408c6)"] {animation-delay:6s;}
#z35408 path[clip-path="url(#z35408c7)"] {animation-delay:7s;}
#z35408 path[clip-path="url(#z35408c8)"] {animation-delay:8s;}
#z35408 path[clip-path="url(#z35408c9)"] {animation-delay:9s;}
#z35408 path[clip-path="url(#z35408c10)"] {animation-delay:10s;}
#z35408 path[clip-path="url(#z35408c11)"] {animation-delay:11s;}
#z35408 path[clip-path="url(#z35408c12)"] {animation-delay:12s;}
#z35408 path {fill:#ccc;}
]]>
</style>
<path id="z35408d1" d="M320 118Q354 143 389 173Q405 185 421 183Q433 182 437 168Q441 152 429 121Q422 99 385 85Q301 60 288 69Q282 73 285 87Q289 97 320 118 Z"/>
<path id="z35408d2" d="M88 330Q75 331 71 341Q68 353 85 364Q130 391 173 375Q309 323 449 296Q467 293 467 285Q468 270 447 262Q417 252 393 258Q171 318 88 330 Z"/>
<path id="z35408d3" d="M251 425Q220 435 245 447Q287 463 335 443Q366 433 401 422Q417 416 419 414Q426 405 420 398Q413 388 385 386Q364 385 298 412Q277 419 251 425 Z"/>
<path id="z35408d4" d="M247 540Q214 552 241 563Q283 578 330 558Q363 546 398 534Q413 528 415 526Q422 517 417 510Q408 500 381 498Q366 498 295 527Q271 534 247 540 Z"/>
<path id="z35408d5" d="M228 650Q218 644 180 641Q167 640 165 645Q159 652 169 667Q200 716 225 798Q229 823 247 838Q266 857 270 842Q274 829 270 806L263 775Q244 702 239 677L228 650 Z"/>
<path id="z35408d6" d="M406 751Q425 682 447 661Q469 636 446 622Q386 589 381 590Q372 590 364 596Q324 626 228 650L239 677Q252 671 340 647Q367 640 374 649Q377 652 357 744L406 751 Z"/>
<path id="z35408d7" d="M270 806Q280 807 292 804Q331 792 415 779Q425 778 426 768Q426 761 406 751L357 744Q350 745 346 747Q300 765 263 775L270 806 Z"/>
<path id="z35408d8" d="M572 343Q573 340 576 338Q619 277 666 187Q685 144 704 123Q713 113 706 98Q702 85 670 65Q642 49 622 51Q603 55 613 76Q653 148 471 425Q467 429 464 436Q455 448 453 454Q450 466 465 462Q492 450 560 361L572 343 Z"/>
<path id="z35408d9" d="M666 375Q665 374 667 374Q925 314 935 305Q945 296 939 288Q932 276 902 269Q871 265 841 277Q784 298 724 315Q657 331 577 342Q574 342 572 343L560 361Q599 379 630 380L666 375 Z"/>
<path id="z35408d10" d="M697 635Q697 574 698 511L699 487Q700 442 705 419Q708 406 700 399Q682 384 666 375L630 380Q663 413 642 720Q639 756 635 784Q634 814 629 828Q620 868 655 922Q668 941 676 947Q688 948 694 934Q707 900 703 868Q699 759 698 664L697 635 Z"/>
<path id="z35408d11" d="M698 511Q743 529 794 512Q827 505 860 495Q875 491 877 489Q886 480 880 472Q873 460 842 455Q811 452 781 467Q765 473 746 478Q727 482 703 485Q699 485 699 487L698 511 Z"/>
<path id="z35408d12" d="M698 664Q734 676 821 662Q855 655 891 649Q915 645 919 641Q928 634 923 624Q916 612 886 605Q855 598 824 611Q797 618 768 625Q737 632 698 634Q697 634 697 635L698 664 Z"/>
<defs>
	<clipPath id="z35408c1"><use xlink:href="#z35408d1"/></clipPath>
	<clipPath id="z35408c2"><use xlink:href="#z35408d2"/></clipPath>
	<clipPath id="z35408c3"><use xlink:href="#z35408d3"/></clipPath>
	<clipPath id="z35408c4"><use xlink:href="#z35408d4"/></clipPath>
	<clipPath id="z35408c5"><use xlink:href="#z35408d5"/></clipPath>
	<clipPath id="z35408c6"><use xlink:href="#z35408d6"/></clipPath>
	<clipPath id="z35408c7"><use xlink:href="#z35408d7"/></clipPath>
	<clipPath id="z35408c8"><use xlink:href="#z35408d8"/></clipPath>
	<clipPath id="z35408c9"><use xlink:href="#z35408d9"/></clipPath>
	<clipPath id="z35408c10"><use xlink:href="#z35408d10"/></clipPath>
	<clipPath id="z35408c11"><use xlink:href="#z35408d11"/></clipPath>
	<clipPath id="z35408c12"><use xlink:href="#z35408d12"/></clipPath>
</defs>
<path pathLength="3333" clip-path="url(#z35408c1)" d="M292 74L389 126L429 176"/>
<path pathLength="3333" clip-path="url(#z35408c2)" d="M76 345L150 349L461 280"/>
<path pathLength="3333" clip-path="url(#z35408c3)" d="M240 437L416 403"/>
<path pathLength="3333" clip-path="url(#z35408c4)" d="M235 553L412 517"/>
<path pathLength="3333" clip-path="url(#z35408c5)" d="M172 649L209 680L265 838"/>
<path pathLength="3333" clip-path="url(#z35408c6)" d="M237 655L369 618L408 636L370 745"/>
<path pathLength="3333" clip-path="url(#z35408c7)" d="M270 779L421 769"/>
<path pathLength="3333" clip-path="url(#z35408c8)" d="M618 55L664 118L572 303L462 457"/>
<path pathLength="3333" clip-path="url(#z35408c9)" d="M567 358L933 293"/>
<path pathLength="3333" clip-path="url(#z35408c10)" d="M638 383L675 418L664 840L679 940"/>
<path pathLength="3333" clip-path="url(#z35408c11)" d="M704 506L877 472"/>
<path pathLength="3333" clip-path="url(#z35408c12)" d="M703 638L921 630"/>
</svg>