<!--
AnimCJK 2016-2019 Copyright Francois Mizessyn - https://github.com/parsimonhi/animCJK
Derived from:
    MakeMeAHanzi project - https://github.com/skishore/makemeahanzi
    Arphic PL KaitiM GB font
    Arphic PL UKai font
You can redistribute and/or modify this file under the terms of the Arphic Public License
as published by Arphic Technology Co., Ltd.
You should have received a copy of this license along with this file.
If not, see http://ftp.gnu.org/non-gnu/chinese-fonts-truetype/LICENSE.
-->
<svg id="z35412" class="acjk" version="1.1" viewBox="0 0 1024 1024" xmlns="http://www.w3.org/2000/svg" xmlns:xlink="http://www.w3.org/1999/xlink">
<style>
<![CDATA[
@keyframes zk {
	to {
		stroke-dashoffset:0;
	}
}
svg.acjk path[clip-path] {
	--t:0.8s;
	animation:zk var(--t) linear forwards var(--d);
	stroke-dasharray:3337;
	stroke-dashoffset:3339;
	stroke-width:128;
	stroke-linecap:round;
	fill:none;
	stroke:#000;
}
svg.acjk path[id] {fill:#ccc;}
]]>
</style>
<path id="z35412d1" d="M332 102C348 114 366 129 385 145C395 153 406 156 417 155C424 153 430 149 433 140C435 129 432 113 424 93C416 74 382 61 323 52C312 50 304 49 300 53C297 55 295 61 298 71C299 77 312 87 332 102Z"/>
<path id="z35412d2" d="M73 278C64 279 58 281 56 288C53 295 58 304 69 312C97 332 127 336 157 325C245 291 338 266 436 252C448 250 453 246 454 241C454 231 448 223 435 218C416 210 398 207 382 212C246 245 143 268 73 278Z"/>
<path id="z35412d3" d="M226 379C205 382 202 391 218 400C241 413 269 412 302 404C331 396 362 389 392 381C406 377 414 374 416 372C420 367 421 362 419 358C414 351 403 346 387 343C375 340 343 350 290 367C270 373 248 374 226 379Z"/>
<path id="z35412d4" d="M222 491C201 494 198 503 214 512C237 525 265 524 298 516C327 508 358 501 388 493C402 489 410 486 412 484C416 479 417 474 415 470C410 463 399 458 383 455C371 452 339 462 286 479C266 485 244 486 222 491Z"/>
<path id="z35412d5" d="M207 627C199 623 184 619 164 615C155 613 151 614 149 617C144 622 145 628 151 639C170 678 185 731 196 796C199 814 204 830 216 844C228 858 235 860 239 851C243 838 245 819 241 794C237 773 237 773 235 762C229 730 219 665 219 652C219 643 216 630 207 627Z"/>
<path id="z35412d6" d="M380 729C388 684 400 655 413 640C426 623 424 611 410 603C398 596 383 587 366 578C356 572 335 580 302 596C282 605 250 614 207 627C198 630 210 655 219 652C223 650 252 642 308 628C324 623 333 625 339 631C342 634 344 645 341 667C338 687 335 709 331 733C328 749 377 745 380 729Z"/>
<path id="z35412d7" d="M241 794C261 793 314 775 399 761C405 759 409 757 409 751C409 746 399 739 380 729C365 723 346 727 331 733C294 745 262 754 235 762C225 766 230 794 241 794Z"/>
<path id="z35412d8" d="M644 244C694 232 740 222 781 217C795 215 803 216 806 221C811 231 811 247 807 271C795 337 782 385 764 414C751 432 736 441 719 437C704 433 691 426 679 421C663 413 658 420 670 436C692 467 708 494 720 515C729 531 742 529 756 521C791 497 826 450 846 372C866 292 877 242 892 226C900 216 903 209 899 202C893 193 873 181 839 165C825 158 811 159 798 168C782 177 743 187 683 201C622 214 566 223 514 226C502 226 495 230 494 236C493 240 500 246 516 256C532 266 547 269 561 265C576 259 593 255 610 252C633 247 633 247 644 244Z"/>
<path id="z35412d9" d="M610 252C619 296 598 351 536 440C510 476 480 514 446 550C442 553 440 556 440 561C440 563 441 565 445 565C493 556 563 486 647 351C650 345 663 322 677 302C681 295 681 287 676 279C666 262 655 251 644 244C635 237 608 241 610 252Z"/>
<path id="z35412d10" d="M544 617C535 613 521 610 504 606C495 604 490 604 487 608C482 612 483 619 489 631C508 675 522 741 532 808C535 829 539 848 551 863C563 878 571 881 575 871C578 860 582 845 580 827C577 802 577 802 576 789C568 716 560 670 560 649C560 637 555 621 544 617Z"/>
<path id="z35412d11" d="M817 757C839 695 863 657 888 638C902 626 903 611 892 599C881 587 855 573 818 555C804 548 772 558 722 576C668 594 608 605 544 617C532 619 548 651 560 649C576 645 627 634 755 604C770 600 780 600 787 607C793 613 795 624 792 640C781 682 769 720 757 754C750 773 810 776 817 757Z"/>
<path id="z35412d12" d="M580 827C597 825 713 807 834 798C842 797 846 793 847 787C847 781 837 771 817 757C801 745 777 750 757 754C688 770 628 781 576 789C563 791 568 829 580 827Z"/>
<defs>
	<clipPath id="z35412c1"><use xlink:href="#z35412d1"/></clipPath>
	<clipPath id="z35412c2"><use xlink:href="#z35412d2"/></clipPath>
	<clipPath id="z35412c3"><use xlink:href="#z35412d3"/></clipPath>
	<clipPath id="z35412c4"><use xlink:href="#z35412d4"/></clipPath>
	<clipPath id="z35412c5"><use xlink:href="#z35412d5"/></clipPath>
	<clipPath id="z35412c6"><use xlink:href="#z35412d6"/></clipPath>
	<clipPath id="z35412c7"><use xlink:href="#z35412d7"/></clipPath>
	<clipPath id="z35412c8"><use xlink:href="#z35412d8"/></clipPath>
	<clipPath id="z35412c9"><use xlink:href="#z35412d9"/></clipPath>
	<clipPath id="z35412c10"><use xlink:href="#z35412d10"/></clipPath>
	<clipPath id="z35412c11"><use xlink:href="#z35412d11"/></clipPath>
	<clipPath id="z35412c12"><use xlink:href="#z35412d12"/></clipPath>
</defs>
<path style="--d:1s;" pathLength="3333" clip-path="url(#z35412c1)" d="M305 58L394 108L420 152"/>
<path style="--d:2s;" pathLength="3333" clip-path="url(#z35412c2)" d="M61 288L128 300L450 234"/>
<path style="--d:3s;" pathLength="3333" clip-path="url(#z35412c3)" d="M216 391L413 365"/>
<path style="--d:4s;" pathLength="3333" clip-path="url(#z35412c4)" d="M212 503L409 477"/>
<path style="--d:5s;" pathLength="3333" clip-path="url(#z35412c5)" d="M154 624L190 657L230 850"/>
<path style="--d:6s;" pathLength="3333" clip-path="url(#z35412c6)" d="M213 630L341 602L379 621L345 731"/>
<path style="--d:7s;" pathLength="3333" clip-path="url(#z35412c7)" d="M244 788L403 750"/>
<path style="--d:8s;" pathLength="3333" clip-path="url(#z35412c8)" d="M499 237L553 245L807 189L844 206L854 227L782 443L735 482L672 424"/>
<path style="--d:9s;" pathLength="3333" clip-path="url(#z35412c9)" d="M618 258L644 298L613 360L449 556"/>
<path style="--d:10s;" pathLength="3333" clip-path="url(#z35412c10)" d="M491 613L531 661L564 870"/>
<path style="--d:11s;" pathLength="3333" clip-path="url(#z35412c11)" d="M553 618L814 588L844 630L791 745L766 751"/>
<path style="--d:12s;" pathLength="3333" clip-path="url(#z35412c12)" d="M584 794L843 788"/>
</svg>