<!--
AnimCJK 2016-2026 Copyright FM-SH, https://github.com/parsimonhi/animCJK
Derived from:
    MakeMeAHanzi project - https://github.com/skishore/makemeahanzi
    Arphic PL KaitiM GB font
    Arphic PL KaitiM Big5 font
You can redistribute and/or modify this file under the terms of the Arphic Public License
as published by Arphic Technology Co., Ltd.
You should have received a copy of this license along with this file.
If not, see https://ftp.gnu.org/non-gnu/chinese-fonts-truetype/LICENSE.
-->
<svg id="z35410" class="acjk" viewBox="0 0 1024 1024" xmlns="http://www.w3.org/2000/svg">
<style>
<![CDATA[
@keyframes zk {
	to {
		stroke-dashoffset:0;
	}
}
svg.acjk path[clip-path] {
	--t:0.8s;
	animation:zk var(--t) linear forwards var(--d);
	stroke-dasharray:3337;
	stroke-dashoffset:3339;
	stroke-width:128;
	stroke-linecap:round;
	fill:none;
	stroke:#000;
}
svg.acjk path[id] {fill:#ccc;}
]]>
</style>
<path id="z35410d1" d="M324 159Q355 178 390 202Q406 212 423 209Q433 208 437 192Q438 176 424 147Q406 114 310 110Q294 109 287 113Q283 117 287 131Q293 141 324 159Z"/>
<path id="z35410d2" d="M95 355Q82 358 79 366Q78 376 93 388Q138 415 177 398Q312 347 454 319Q470 315 471 308Q471 295 452 286Q424 276 400 282Q183 342 95 355Z"/>
<path id="z35410d3" d="M224 457Q193 466 217 479Q256 491 327 472Q387 456 406 446Q413 437 408 430Q401 420 373 417Q358 416 280 443Q253 450 224 457Z"/>
<path id="z35410d4" d="M240 565Q207 575 233 587Q269 600 341 578Q365 571 392 562Q408 556 410 554Q417 545 412 538Q405 528 377 525Q361 525 286 553Q265 560 240 565Z"/>
<path id="z35410d5" d="M225 689Q224 688 224 687Q212 681 177 676Q165 673 163 678Q157 685 165 699Q193 754 212 845Q216 872 232 890Q250 909 254 895Q260 879 255 849C251 827 251 827 249 816Q234 743 231 716C229 707 232 696 225 689Z"/>
<path id="z35410d6" d="M395 783Q408 717 428 697Q447 672 426 660Q407 650 381 635Q365 626 322 653Q279 671 225 689C216 692 222 719 231 716Q243 710 324 686Q349 679 356 688Q363 692 357 721Q353 748 347 780C344 796 392 799 395 783Z"/>
<path id="z35410d7" d="M255 849Q319 828 405 810Q414 807 414 799Q414 792 395 783C380 777 363 777 347 780Q343 780 340 782Q291 801 249 816C239 820 245 853 255 849Z"/>
<path id="z35410d8" d="M805 400Q696 421 581 453Q568 457 564 454Q560 450 569 433Q722 213 754 177Q767 167 761 152Q754 139 702 112Q683 103 673 108Q658 115 665 137Q677 173 609 300Q534 423 468 469Q452 482 457 494Q463 513 491 535Q503 547 517 534Q571 491 822 427C826 426 826 426 828 425C839 421 816 398 805 400Z"/>
<path id="z35410d9" d="M828 425Q847 449 870 477Q880 492 896 493Q906 494 913 483Q920 470 916 440Q915 407 872 373Q776 309 756 313Q752 316 750 328Q750 335 805 400C820 417 820 417 828 425Z"/>
<path id="z35410d10" d="M544 622Q532 616 504 611Q491 607 487 612Q480 619 489 636Q519 706 534 821Q537 855 555 879Q574 903 579 887Q586 869 585 839C582 814 582 814 580 801Q564 692 560 657C557 644 556 627 544 622Z"/>
<path id="z35410d11" d="M820 768Q847 665 884 639Q902 617 885 598Q801 540 741 569Q656 600 544 622C531 625 547 660 560 657Q573 656 591 650Q670 634 748 616Q767 610 776 619Q794 637 764 762C760 780 816 786 820 768Z"/>
<path id="z35410d12" d="M585 839Q594 840 606 837Q678 821 834 807Q847 806 848 795Q848 786 820 768C804 758 782 758 764 762Q761 762 760 763Q661 788 580 801C567 804 572 839 585 839Z"/>
<defs>
	<clipPath id="z35410c1"><use href="#z35410d1"/></clipPath>
	<clipPath id="z35410c2"><use href="#z35410d2"/></clipPath>
	<clipPath id="z35410c3"><use href="#z35410d3"/></clipPath>
	<clipPath id="z35410c4"><use href="#z35410d4"/></clipPath>
	<clipPath id="z35410c5"><use href="#z35410d5"/></clipPath>
	<clipPath id="z35410c6"><use href="#z35410d6"/></clipPath>
	<clipPath id="z35410c7"><use href="#z35410d7"/></clipPath>
	<clipPath id="z35410c8"><use href="#z35410d8"/></clipPath>
	<clipPath id="z35410c9"><use href="#z35410d9"/></clipPath>
	<clipPath id="z35410c10"><use href="#z35410d10"/></clipPath>
	<clipPath id="z35410c11"><use href="#z35410d11"/></clipPath>
	<clipPath id="z35410c12"><use href="#z35410d12"/></clipPath>
</defs>
<path style="--d:1s;" pathLength="3333" clip-path="url(#z35410c1)" d="M290 121L390 160L429 201"/>
<path style="--d:2s;" pathLength="3333" clip-path="url(#z35410c2)" d="M83 367L161 373L466 299"/>
<path style="--d:3s;" pathLength="3333" clip-path="url(#z35410c3)" d="M214 470L404 434"/>
<path style="--d:4s;" pathLength="3333" clip-path="url(#z35410c4)" d="M225 577L409 545"/>
<path style="--d:5s;" pathLength="3333" clip-path="url(#z35410c5)" d="M168 683L201 707L246 894"/>
<path style="--d:6s;" pathLength="3333" clip-path="url(#z35410c6)" d="M222 700L375 664L398 684L365 792"/>
<path style="--d:7s;" pathLength="3333" clip-path="url(#z35410c7)" d="M249 838L408 797"/>
<path style="--d:8s;" pathLength="3333" clip-path="url(#z35410c8)" d="M671 114L712 170L510 480L543 496L826 413"/>
<path style="--d:9s;" pathLength="3333" clip-path="url(#z35410c9)" d="M758 318L860 408L906 486"/>
<path style="--d:10s;" pathLength="3333" clip-path="url(#z35410c10)" d="M492 619L531 661L567 886"/>
<path style="--d:11s;" pathLength="3333" clip-path="url(#z35410c11)" d="M544 628L770 587L825 608L839 632L778 774"/>
<path style="--d:12s;" pathLength="3333" clip-path="url(#z35410c12)" d="M576 821L775 786L844 793"/>
</svg>