<!--
AnimCJK 2016-2025 Copyright FM-SH - https://github.com/parsimonhi/animCJK
Derived from:
    MakeMeAHanzi project - https://github.com/skishore/makemeahanzi
    Arphic PL KaitiM GB font
    Arphic PL KaitiM Big5 font
You can redistribute and/or modify this file under the terms of the Arphic Public License
as published by Arphic Technology Co., Ltd.
You should have received a copy of this license along with this file.
If not, see https://ftp.gnu.org/non-gnu/chinese-fonts-truetype/LICENSE.
-->
<svg id="z35427" class="acjk" viewBox="0 0 1024 1024" xmlns="http://www.w3.org/2000/svg">
<style>
<![CDATA[
@keyframes zk {
	to {
		stroke-dashoffset:0;
	}
}
svg.acjk path[clip-path] {
	--t:0.8s;
	animation:zk var(--t) linear forwards var(--d);
	stroke-dasharray:3337;
	stroke-dashoffset:3339;
	stroke-width:128;
	stroke-linecap:round;
	fill:none;
	stroke:#000;
}
svg.acjk path[id] {fill:#ccc;}
]]>
</style>
<path id="z35427d1" d="M316 144C338 162 361 183 385 205C394 213 405 218 416 218C424 217 430 212 433 203C436 192 434 176 428 157C420 130 380 110 311 94C300 91 292 90 288 93C283 95 281 101 284 111C285 117 297 128 316 144Z"/>
<path id="z35427d2" d="M77 338C68 338 62 341 60 348C57 355 62 364 74 372C99 390 136 394 181 380C259 354 345 333 439 320C451 318 457 314 458 309C458 300 453 291 440 285C420 275 402 275 386 279C239 313 136 332 77 338Z"/>
<path id="z35427d3" d="M252 447C231 452 228 461 245 468C266 477 301 473 349 461C365 456 382 450 403 444C413 440 419 438 422 436C426 431 427 426 424 422C419 415 408 410 391 409C378 407 348 417 301 435C286 440 269 442 252 447Z"/>
<path id="z35427d4" d="M248 541C225 546 223 556 241 563C268 573 304 569 349 556C364 551 381 546 400 541C410 538 416 535 418 534C422 527 423 522 420 518C415 511 403 506 385 505C377 504 348 513 298 529C282 533 265 536 248 541Z"/>
<path id="z35427d5" d="M216 673Q204 667 176 664Q164 661 161 666Q154 673 163 688Q193 746 211 841Q215 869 232 889Q250 911 255 895Q262 874 254 832C253 831 253 831 253 831C250 810 250 810 248 799Q233 724 232 701C232 690 226 677 216 673Z"/>
<path id="z35427d6" d="M395 779Q414 712 437 692Q459 665 436 651Q417 639 388 621Q370 612 324 637Q278 658 216 673C205 675 221 703 232 701Q238 700 246 697Q289 684 327 675Q352 668 359 678Q365 684 358 712Q351 739 342 770C335 787 391 797 395 779Z"/>
<path id="z35427d7" d="M253 831Q260 832 272 829Q312 819 402 807Q412 806 413 796Q413 790 395 779C380 770 360 766 342 770Q338 770 334 772Q286 788 248 799C238 802 242 831 253 831Z"/>
<path id="z35427d8" d="M575 270C720 228 782 210 819 210C837 209 844 200 841 185C836 168 826 153 812 136C798 120 787 112 778 110C769 108 764 111 763 122C749 164 681 192 576 248C569 251 568 271 575 270Z"/>
<path id="z35427d9" d="M576 248C577 209 583 182 591 164C599 143 596 126 583 117C548 92 525 81 515 86C504 89 502 98 509 110C522 134 528 165 528 202C527 309 536 374 551 397C568 426 603 446 658 454C693 459 741 458 801 451C851 444 884 431 904 420C921 409 927 397 920 378C911 356 902 326 897 288C895 277 894 269 890 266C885 261 881 267 877 281C861 325 846 348 839 357C831 365 820 374 801 380C723 400 661 404 616 390C567 374 573 302 575 270C576 255 576 255 576 248Z"/>
<path id="z35427d10" d="M563 552C551 540 533 535 511 537C502 539 500 545 504 553C530 601 529 678 518 774C513 811 504 831 506 838C509 855 516 870 527 884C546 908 559 879 566 852C568 840 569 828 571 817C573 791 574 761 574 700C574 683 574 683 574 674C574 627 574 597 576 583C578 572 572 559 563 552Z"/>
<path id="z35427d11" d="M764 843C769 871 777 896 791 922C811 959 829 936 846 905C859 878 861 848 859 816C855 769 850 704 847 619C846 598 852 580 864 566C870 557 870 549 864 542C851 529 827 514 792 497C779 491 769 491 759 497C719 516 653 534 563 552C552 554 565 585 576 583C596 581 651 568 743 548C757 544 769 545 777 551C792 563 794 630 788 748C787 763 786 800 777 825C774 832 763 836 764 843Z"/>
<path id="z35427d12" d="M574 700C592 702 628 701 681 696C702 693 728 691 742 683C747 679 748 673 746 670C742 663 732 654 717 654C697 653 678 657 627 667C609 670 591 672 574 674C565 675 565 700 574 700Z"/>
<path id="z35427d13" d="M566 852C584 856 615 846 764 843C771 843 781 831 777 825C773 819 764 811 752 803C741 796 725 794 706 798C659 806 607 813 571 817C559 819 554 850 566 852Z"/>
<defs>
	<clipPath id="z35427c1"><use href="#z35427d1"/></clipPath>
	<clipPath id="z35427c2"><use href="#z35427d2"/></clipPath>
	<clipPath id="z35427c3"><use href="#z35427d3"/></clipPath>
	<clipPath id="z35427c4"><use href="#z35427d4"/></clipPath>
	<clipPath id="z35427c5"><use href="#z35427d5"/></clipPath>
	<clipPath id="z35427c6"><use href="#z35427d6"/></clipPath>
	<clipPath id="z35427c7"><use href="#z35427d7"/></clipPath>
	<clipPath id="z35427c8"><use href="#z35427d8"/></clipPath>
	<clipPath id="z35427c9"><use href="#z35427d9"/></clipPath>
	<clipPath id="z35427c10"><use href="#z35427d10"/></clipPath>
	<clipPath id="z35427c11"><use href="#z35427d11"/></clipPath>
	<clipPath id="z35427c12"><use href="#z35427d12"/></clipPath>
	<clipPath id="z35427c13"><use href="#z35427d13"/></clipPath>
</defs>
<path style="--d:1s;" pathLength="3333" clip-path="url(#z35427c1)" d="M287 100L429 205"/>
<path style="--d:2s;" pathLength="3333" clip-path="url(#z35427c2)" d="M64 350L143 358L453 305"/>
<path style="--d:3s;" pathLength="3333" clip-path="url(#z35427c3)" d="M241 460L419 426"/>
<path style="--d:4s;" pathLength="3333" clip-path="url(#z35427c4)" d="M236 552L417 525"/>
<path style="--d:5s;" pathLength="3333" clip-path="url(#z35427c5)" d="M165 670L203 702L246 895"/>
<path style="--d:6s;" pathLength="3333" clip-path="url(#z35427c6)" d="M218 677L351 647L388 658L405 679L352 782"/>
<path style="--d:7s;" pathLength="3333" clip-path="url(#z35427c7)" d="M245 819L406 796"/>
<path style="--d:8s;" pathLength="3333" clip-path="url(#z35427c8)" d="M773 113L782 183L577 259"/>
<path style="--d:9s;" pathLength="3333" clip-path="url(#z35427c9)" d="M510 91L558 139L558 353L604 412L706 427L851 400L883 375L887 271"/>
<path style="--d:10s;" pathLength="3333" clip-path="url(#z35427c10)" d="M510 545L547 584L536 886"/>
<path style="--d:11s;" pathLength="3333" clip-path="url(#z35427c11)" d="M566 559L775 520L828 565L805 936"/>
<path style="--d:12s;" pathLength="3333" clip-path="url(#z35427c12)" d="M574 687L741 671"/>
<path style="--d:13s;" pathLength="3333" clip-path="url(#z35427c13)" d="M565 841L770 831"/>
</svg>