<!--
AnimCJK 2016-2019 Copyright Francois Mizessyn - https://github.com/parsimonhi/animCJK
Derived from:
    MakeMeAHanzi project - https://github.com/skishore/makemeahanzi
    Arphic PL KaitiM GB font
    Arphic PL UKai font
You can redistribute and/or modify this file under the terms of the Arphic Public License
as published by Arphic Technology Co., Ltd.
You should have received a copy of this license along with this file.
If not, see http://ftp.gnu.org/non-gnu/chinese-fonts-truetype/LICENSE.
-->
<svg id="z35424" class="acjk" version="1.1" viewBox="0 0 1024 1024" xmlns="http://www.w3.org/2000/svg" xmlns:xlink="http://www.w3.org/1999/xlink">
<style>
<![CDATA[
@keyframes zk {
	to {
		stroke-dashoffset:0;
	}
}
svg.acjk path[clip-path] {
	--t:0.8s;
	animation:zk var(--t) linear forwards var(--d);
	stroke-dasharray:3337;
	stroke-dashoffset:3339;
	stroke-width:128;
	stroke-linecap:round;
	fill:none;
	stroke:#000;
}
svg.acjk path[id] {fill:#ccc;}
]]>
</style>
<path id="z35424d1" d="M272 154Q302 176 334 204Q347 216 363 214Q373 213 377 200Q381 185 370 157Q358 126 265 109Q249 106 244 109Q240 113 241 125Q245 135 272 154Z"/>
<path id="z35424d2" d="M53 348Q40 349 36 358Q33 368 49 380Q91 408 133 393Q236 356 384 330Q402 327 402 320Q403 307 384 298Q356 286 333 292Q129 340 53 348Z"/>
<path id="z35424d3" d="M176 449Q148 456 169 468Q202 480 268 463Q295 456 325 447Q343 441 345 439Q352 432 347 425Q340 416 317 413Q292 410 269 422Q250 431 228 437Q204 444 176 449Z"/>
<path id="z35424d4" d="M172 545Q144 552 165 564Q198 576 264 559Q291 552 321 543Q339 537 341 535Q348 528 343 521Q336 512 313 509Q288 506 265 518Q246 527 224 533Q200 540 172 545Z"/>
<path id="z35424d5" d="M163 647Q151 643 129 640Q117 637 115 643Q109 649 117 663Q144 712 162 793Q166 818 180 834Q198 853 202 839Q206 824 204 798C200 777 200 777 198 766Q183 688 182 670C182 660 173 649 163 647Z"/>
<path id="z35424d6" d="M322 746Q340 683 359 665Q380 643 359 630Q343 620 319 604Q301 592 260 618Q202 639 163 647C153 649 173 674 182 670Q224 657 260 649Q285 642 292 652Q295 655 276 741C273 756 319 761 322 746Z"/>
<path id="z35424d7" d="M204 798Q211 798 221 795Q255 785 332 773Q341 772 342 763Q342 756 322 746C308 740 291 738 276 741Q270 741 268 743Q231 756 198 766C188 770 193 798 204 798Z"/>
<path id="z35424d8" d="M554 94Q614 155 652 169Q668 170 678 156Q685 141 681 122Q665 73 566 51Q547 47 537 51Q530 52 534 66Q535 79 554 94Z"/>
<path id="z35424d9" d="M652 474Q652 336 666 311Q678 293 666 283Q647 265 612 252Q590 243 554 268Q500 284 482 289Q467 290 476 299Q485 309 499 313Q520 317 572 296Q587 290 595 298Q605 308 605 345Q608 631 592 803Q591 828 582 839Q578 845 559 840Q537 836 514 830Q495 823 496 832Q545 880 572 912Q585 931 599 936Q608 940 616 930Q655 885 656 833Q650 700 652 504C652 484 652 484 652 474Z"/>
<path id="z35424d10" d="M373 484Q363 485 362 492Q361 498 374 504Q414 523 435 513Q489 491 494 491Q507 492 500 518Q446 686 352 784Q340 796 350 796Q357 796 374 786Q425 755 467 698Q507 647 558 514Q565 495 574 485Q586 475 578 466Q569 456 536 448Q515 439 501 450Q485 460 456 469Q422 478 373 484Z"/>
<path id="z35424d11" d="M674 495Q698 479 802 403Q821 387 844 375Q866 365 854 347Q841 329 813 316Q789 303 776 306Q763 307 768 321Q774 348 721 415Q667 478 663 486C661 490 669 497 673 495C674 495 674 495 674 495Z"/>
<path id="z35424d12" d="M663 486Q660 480 652 474C644 468 647 495 652 504Q719 600 805 702Q821 718 848 717Q938 711 967 706Q974 703 976 699Q976 695 965 688Q842 640 772 584Q726 544 673 495C666 489 666 489 663 486Z"/>
<defs>
	<clipPath id="z35424c1"><use xlink:href="#z35424d1"/></clipPath>
	<clipPath id="z35424c2"><use xlink:href="#z35424d2"/></clipPath>
	<clipPath id="z35424c3"><use xlink:href="#z35424d3"/></clipPath>
	<clipPath id="z35424c4"><use xlink:href="#z35424d4"/></clipPath>
	<clipPath id="z35424c5"><use xlink:href="#z35424d5"/></clipPath>
	<clipPath id="z35424c6"><use xlink:href="#z35424d6"/></clipPath>
	<clipPath id="z35424c7"><use xlink:href="#z35424d7"/></clipPath>
	<clipPath id="z35424c8"><use xlink:href="#z35424d8"/></clipPath>
	<clipPath id="z35424c9"><use xlink:href="#z35424d9"/></clipPath>
	<clipPath id="z35424c10"><use xlink:href="#z35424d10"/></clipPath>
	<clipPath id="z35424c11"><use xlink:href="#z35424d11"/></clipPath>
	<clipPath id="z35424c12"><use xlink:href="#z35424d12"/></clipPath>
</defs>
<path style="--d:1s;" pathLength="3333" clip-path="url(#z35424c1)" d="M250 118L331 160L366 208"/>
<path style="--d:2s;" pathLength="3333" clip-path="url(#z35424c2)" d="M43 361L115 368L397 312"/>
<path style="--d:3s;" pathLength="3333" clip-path="url(#z35424c3)" d="M171 459L344 431"/>
<path style="--d:4s;" pathLength="3333" clip-path="url(#z35424c4)" d="M167 555L340 527"/>
<path style="--d:5s;" pathLength="3333" clip-path="url(#z35424c5)" d="M120 645L157 683L191 840"/>
<path style="--d:6s;" pathLength="3333" clip-path="url(#z35424c6)" d="M172 648L286 624L325 640L288 742"/>
<path style="--d:7s;" pathLength="3333" clip-path="url(#z35424c7)" d="M211 791L337 760"/>
<path style="--d:8s;" pathLength="3333" clip-path="url(#z35424c8)" d="M539 60L671 159"/>
<path style="--d:9s;" pathLength="3333" clip-path="url(#z35424c9)" d="M481 294L589 272L637 303L620 844L590 889L504 832"/>
<path style="--d:10s;" pathLength="3333" clip-path="url(#z35424c10)" d="M370 493L499 470L540 488L460 670L353 790"/>
<path style="--d:11s;" pathLength="3333" clip-path="url(#z35424c11)" d="M775 313L809 357L672 486"/>
<path style="--d:12s;" pathLength="3333" clip-path="url(#z35424c12)" d="M654 484L834 673L968 699"/>
</svg>