<!--
AnimCJK 2016-2019 Copyright Francois Mizessyn - https://github.com/parsimonhi/animCJK
Derived from:
    MakeMeAHanzi project - https://github.com/skishore/makemeahanzi
    Arphic PL KaitiM GB font
    Arphic PL UKai font
You can redistribute and/or modify this file under the terms of the Arphic Public License
as published by Arphic Technology Co., Ltd.
You should have received a copy of this license along with this file.
If not, see http://ftp.gnu.org/non-gnu/chinese-fonts-truetype/LICENSE.
-->
<svg id="z35422" class="acjk" version="1.1" viewBox="0 0 1024 1024" xmlns="http://www.w3.org/2000/svg" xmlns:xlink="http://www.w3.org/1999/xlink">
<style>
<![CDATA[
@keyframes zk {
	to {
		stroke-dashoffset:0;
	}
}
svg.acjk path[clip-path] {
	--t:0.8s;
	animation:zk var(--t) linear forwards var(--d);
	stroke-dasharray:3337;
	stroke-dashoffset:3339;
	stroke-width:128;
	stroke-linecap:round;
	fill:none;
	stroke:#000;
}
svg.acjk path[id] {fill:#ccc;}
]]>
</style>
<path id="z35422d1" d="M326 84Q356 106 388 133Q401 145 418 143Q428 142 433 128Q437 112 425 83Q413 53 318 36Q302 35 296 37Q292 41 293 54Q297 64 326 84Z"/>
<path id="z35422d2" d="M73 268Q60 269 56 278Q53 288 69 300Q108 327 153 314Q282 269 424 246Q442 243 442 236Q443 223 424 214Q396 202 373 208Q189 251 73 268Z"/>
<path id="z35422d3" d="M211 373Q183 382 205 392Q242 407 284 391Q384 358 390 355Q396 348 392 341Q385 332 361 329Q340 328 271 357Q244 366 211 373Z"/>
<path id="z35422d4" d="M216 469Q188 476 209 488Q239 504 288 491Q387 464 397 459Q404 452 399 445Q392 436 369 432Q351 429 278 456Q248 463 216 469Z"/>
<path id="z35422d5" d="M194 581Q182 577 156 571Q144 568 141 573Q134 579 143 595Q171 656 188 758Q191 788 208 808Q226 830 231 815Q238 793 232 751C229 730 229 730 227 719Q212 631 211 607Q210 606 212 606C214 596 204 585 194 581Z"/>
<path id="z35422d6" d="M373 696Q391 623 412 600Q434 575 412 561Q349 528 346 528Q337 528 329 534Q287 559 194 581C184 583 202 609 212 606Q260 593 301 583Q329 576 336 587Q343 593 336 624Q330 655 323 691C320 708 370 712 373 696Z"/>
<path id="z35422d7" d="M232 751Q242 752 256 749Q296 739 386 727Q396 726 397 716Q397 709 373 696C359 687 339 688 323 691Q319 691 318 692Q267 708 227 719C217 723 221 751 232 751Z"/>
<path id="z35422d8" d="M513 187Q491 190 491 202Q494 212 517 225Q542 240 555 238Q565 238 576 232Q675 187 802 166Q811 162 827 173Q831 180 824 326Q815 549 818 688Q819 791 811 803Q808 810 800 809Q787 808 727 788Q714 781 711 787Q707 794 734 818Q774 855 801 888Q823 919 835 918Q845 919 853 902Q889 845 885 806Q863 445 883 282Q886 216 908 191Q915 179 915 174Q915 162 883 142Q829 108 782 127Q638 178 513 187Z"/>
<path id="z35422d9" d="M508 330Q471 337 499 353Q544 377 599 360Q641 351 685 341Q704 337 708 333Q717 324 712 316Q705 304 674 298Q643 294 612 307Q558 325 508 330Z"/>
<path id="z35422d10" d="M503 467Q493 460 462 456Q452 453 448 458Q444 462 450 477Q474 526 489 606Q492 630 506 646Q522 665 526 651Q530 639 529 619C526 598 526 598 525 588Q513 518 511 494C509 485 511 471 503 467Z"/>
<path id="z35422d11" d="M673 566Q689 505 710 487Q731 463 709 450Q691 440 666 423Q648 411 606 437Q546 458 503 467C494 469 502 496 511 494Q517 493 525 490Q568 478 606 470Q631 464 638 474Q644 478 638 507Q632 532 625 562C622 578 670 582 673 566Z"/>
<path id="z35422d12" d="M529 619Q533 619 540 618Q586 608 686 597Q696 596 696 587Q696 580 673 566C659 558 641 559 625 562C624 562 624 562 624 562Q569 578 525 588C515 590 519 619 529 619Z"/>
<defs>
	<clipPath id="z35422c1"><use xlink:href="#z35422d1"/></clipPath>
	<clipPath id="z35422c2"><use xlink:href="#z35422d2"/></clipPath>
	<clipPath id="z35422c3"><use xlink:href="#z35422d3"/></clipPath>
	<clipPath id="z35422c4"><use xlink:href="#z35422d4"/></clipPath>
	<clipPath id="z35422c5"><use xlink:href="#z35422d5"/></clipPath>
	<clipPath id="z35422c6"><use xlink:href="#z35422d6"/></clipPath>
	<clipPath id="z35422c7"><use xlink:href="#z35422d7"/></clipPath>
	<clipPath id="z35422c8"><use xlink:href="#z35422d8"/></clipPath>
	<clipPath id="z35422c9"><use xlink:href="#z35422d9"/></clipPath>
	<clipPath id="z35422c10"><use xlink:href="#z35422d10"/></clipPath>
	<clipPath id="z35422c11"><use xlink:href="#z35422d11"/></clipPath>
	<clipPath id="z35422c12"><use xlink:href="#z35422d12"/></clipPath>
</defs>
<path style="--d:1s;" pathLength="3333" clip-path="url(#z35422c1)" d="M301 45L389 91L423 135"/>
<path style="--d:2s;" pathLength="3333" clip-path="url(#z35422c2)" d="M63 281L118 290L437 230"/>
<path style="--d:3s;" pathLength="3333" clip-path="url(#z35422c3)" d="M201 383L389 346"/>
<path style="--d:4s;" pathLength="3333" clip-path="url(#z35422c4)" d="M211 480L396 449"/>
<path style="--d:5s;" pathLength="3333" clip-path="url(#z35422c5)" d="M146 580L184 617L223 814"/>
<path style="--d:6s;" pathLength="3333" clip-path="url(#z35422c6)" d="M203 584L338 555L373 575L344 692"/>
<path style="--d:7s;" pathLength="3333" clip-path="url(#z35422c7)" d="M234 726L390 713"/>
<path style="--d:8s;" pathLength="3333" clip-path="url(#z35422c8)" d="M495 200L565 209L811 142L871 177L847 415L848 815L812 864L719 791"/>
<path style="--d:9s;" pathLength="3333" clip-path="url(#z35422c9)" d="M494 340L709 320"/>
<path style="--d:10s;" pathLength="3333" clip-path="url(#z35422c10)" d="M454 464L483 487L517 651"/>
<path style="--d:11s;" pathLength="3333" clip-path="url(#z35422c11)" d="M512 474L659 453L680 479L643 563"/>
<path style="--d:12s;" pathLength="3333" clip-path="url(#z35422c12)" d="M537 611L626 583L691 588"/>
</svg>