<!--
AnimCJK 2016-2018 Copyright Francois Mizessyn, https://github.com/parsimonhi/animCJK
Derived from:
    MakeMeAHanzi project - https://github.com/skishore/makemeahanzi
    Arphic PL KaitiM GB - https://apps.ubuntu.com/cat/applications/precise/fonts-arphic-gkai00mp/
    Arphic PL UKai - https://apps.ubuntu.com/cat/applications/fonts-arphic-ukai/
You can redistribute and/or modify this file under the terms of the Arphic Public License
as published by Arphic Technology Co., Ltd.
You should have received a copy of this license (the directory "APL") along with this file;
if not, see http://ftp.gnu.org/non-gnu/chinese-fonts-truetype/LICENSE.
-->
<svg id="z35441" class="acjk" version="1.1" viewBox="0 0 1024 1024" xmlns="http://www.w3.org/2000/svg" xmlns:xlink="http://www.w3.org/1999/xlink">
<style>
<![CDATA[
@keyframes z35441k {
	from {
		stroke:#c00;
		stroke-dashoffset:3334;
	}
	75% {
		stroke:#c00;
		stroke-dashoffset:0;
	}
	to {
		stroke:#000;
	}
}
#z35441 path[clip-path] {
	animation:z35441k 1s linear both;
	stroke-dasharray:3334;
	stroke-width:128;
	stroke-linecap:round;
	fill:none;
}
#z35441 path[clip-path="url(#z35441c1)"] {animation-delay:1s;}
#z35441 path[clip-path="url(#z35441c2)"] {animation-delay:2s;}
#z35441 path[clip-path="url(#z35441c3)"] {animation-delay:3s;}
#z35441 path[clip-path="url(#z35441c4)"] {animation-delay:4s;}
#z35441 path[clip-path="url(#z35441c5)"] {animation-delay:5s;}
#z35441 path[clip-path="url(#z35441c6)"] {animation-delay:6s;}
#z35441 path[clip-path="url(#z35441c7)"] {animation-delay:7s;}
#z35441 path[clip-path="url(#z35441c8)"] {animation-delay:8s;}
#z35441 path[clip-path="url(#z35441c9)"] {animation-delay:9s;}
#z35441 path[clip-path="url(#z35441c10)"] {animation-delay:10s;}
#z35441 path[clip-path="url(#z35441c11)"] {animation-delay:11s;}
#z35441 path[clip-path="url(#z35441c12)"] {animation-delay:12s;}
#z35441 path[clip-path="url(#z35441c13)"] {animation-delay:13s;}
#z35441 path {fill:#ccc;}
]]>
</style>
<path id="z35441d1" d="M338 126Q365 151 393 183Q406 196 423 197Q435 197 441 183Q447 168 439 136Q430 103 335 75Q319 71 312 73Q306 77 307 90Q311 102 338 126 Z"/>
<path id="z35441d2" d="M86 316Q73 317 69 325Q66 337 81 348Q123 376 165 364Q294 321 448 302Q464 301 465 292Q466 279 448 269Q420 256 397 262Q187 307 86 316 Z"/>
<path id="z35441d3" d="M225 421Q192 430 218 443Q257 462 307 444Q341 435 378 425Q394 421 397 418Q404 411 400 402Q393 392 365 388Q350 387 276 411Q252 417 225 421 Z"/>
<path id="z35441d4" d="M206 529Q173 536 198 551Q237 569 288 555Q373 534 381 530Q388 523 383 515Q376 505 349 499Q328 496 258 520Q234 524 206 529 Z"/>
<path id="z35441d5" d="M189 645Q179 641 149 636Q137 635 135 639Q129 645 138 660Q165 709 185 793Q189 818 204 834Q222 853 226 839Q230 826 228 802L222 771Q206 695 202 670L189 645 Z"/>
<path id="z35441d6" d="M365 748Q386 687 407 669Q429 647 409 632Q391 620 367 603Q349 593 305 616Q253 634 189 645L202 670Q253 660 305 648Q332 642 337 653Q343 659 335 686Q328 713 317 745L365 748 Z"/>
<path id="z35441d7" d="M228 802Q234 795 375 775Q384 774 385 766Q385 760 365 748L317 745Q265 761 222 771L228 802 Z"/>
<path id="z35441d8" d="M650 281Q735 233 787 216Q806 212 808 204Q811 191 797 181Q772 166 721 152Q703 146 689 149Q682 155 682 166Q683 211 488 331Q484 341 490 344Q503 344 596 304Q600 303 607 300L650 281 Z"/>
<path id="z35441d9" d="M673 475Q757 462 891 457Q948 453 953 446Q957 434 941 422Q884 383 825 403Q765 418 678 436L623 446Q533 461 435 478Q416 481 431 497Q444 510 462 514Q483 518 498 513Q555 495 621 484L673 475 Z"/>
<path id="z35441d10" d="M652 628Q662 549 673 475L678 436Q678 420 702 327Q706 317 688 300Q669 287 650 281L607 300Q626 331 625 352Q625 397 623 446L621 484Q617 557 609 637L652 628 Z"/>
<path id="z35441d11" d="M533 649Q523 642 483 635Q470 631 467 637Q460 643 469 660Q497 723 515 825Q518 855 535 876Q554 898 559 883Q563 868 563 845L559 806Q544 712 541 680L533 649 Z"/>
<path id="z35441d12" d="M807 783Q834 699 867 676Q885 657 869 637Q796 577 734 604Q691 619 652 628L609 637Q570 643 533 649L541 680L733 644Q757 640 766 649Q776 659 773 679Q764 731 752 775L807 783 Z"/>
<path id="z35441d13" d="M563 845Q572 845 581 844Q657 829 821 822Q833 821 835 811Q835 802 807 783L752 775Q751 774 749 775Q643 797 559 806L563 845 Z"/>
<defs>
	<clipPath id="z35441c1"><use xlink:href="#z35441d1"/></clipPath>
	<clipPath id="z35441c2"><use xlink:href="#z35441d2"/></clipPath>
	<clipPath id="z35441c3"><use xlink:href="#z35441d3"/></clipPath>
	<clipPath id="z35441c4"><use xlink:href="#z35441d4"/></clipPath>
	<clipPath id="z35441c5"><use xlink:href="#z35441d5"/></clipPath>
	<clipPath id="z35441c6"><use xlink:href="#z35441d6"/></clipPath>
	<clipPath id="z35441c7"><use xlink:href="#z35441d7"/></clipPath>
	<clipPath id="z35441c8"><use xlink:href="#z35441d8"/></clipPath>
	<clipPath id="z35441c9"><use xlink:href="#z35441d9"/></clipPath>
	<clipPath id="z35441c10"><use xlink:href="#z35441d10"/></clipPath>
	<clipPath id="z35441c11"><use xlink:href="#z35441d11"/></clipPath>
	<clipPath id="z35441c12"><use xlink:href="#z35441d12"/></clipPath>
	<clipPath id="z35441c13"><use xlink:href="#z35441d13"/></clipPath>
</defs>
<path pathLength="3333" clip-path="url(#z35441c1)" d="M314 79L406 145L432 192"/>
<path pathLength="3333" clip-path="url(#z35441c2)" d="M74 325L147 338L460 285"/>
<path pathLength="3333" clip-path="url(#z35441c3)" d="M215 431L394 409"/>
<path pathLength="3333" clip-path="url(#z35441c4)" d="M195 539L376 520"/>
<path pathLength="3333" clip-path="url(#z35441c5)" d="M141 642L179 683L216 840"/>
<path pathLength="3333" clip-path="url(#z35441c6)" d="M198 647L359 632L378 655L345 746"/>
<path pathLength="3333" clip-path="url(#z35441c7)" d="M228 775L379 765"/>
<path pathLength="3333" clip-path="url(#z35441c8)" d="M804 202L701 198L655 248L494 336"/>
<path pathLength="3333" clip-path="url(#z35441c9)" d="M434 490L849 428L950 440"/>
<path pathLength="3333" clip-path="url(#z35441c10)" d="M615 303L663 332L619 634"/>
<path pathLength="3333" clip-path="url(#z35441c11)" d="M472 640L505 665L547 884"/>
<path pathLength="3333" clip-path="url(#z35441c12)" d="M541 655L792 628L824 662L771 777"/>
<path pathLength="3333" clip-path="url(#z35441c13)" d="M566 810L829 810"/>
</svg>