<!--
AnimCJK 2016-2026 Copyright FM-SH, https://github.com/parsimonhi/animCJK
Derived from:
    MakeMeAHanzi project - https://github.com/skishore/makemeahanzi
    Arphic PL KaitiM GB font
    Arphic PL KaitiM Big5 font
You can redistribute and/or modify this file under the terms of the Arphic Public License
as published by Arphic Technology Co., Ltd.
You should have received a copy of this license along with this file.
If not, see https://ftp.gnu.org/non-gnu/chinese-fonts-truetype/LICENSE.
-->
<svg id="z35466" class="acjk" viewBox="0 0 1024 1024" xmlns="http://www.w3.org/2000/svg">
<style>
<![CDATA[
@keyframes zk {
	to {
		stroke-dashoffset:0;
	}
}
svg.acjk path[clip-path] {
	--t:0.8s;
	animation:zk var(--t) linear forwards var(--d);
	stroke-dasharray:3337;
	stroke-dashoffset:3339;
	stroke-width:128;
	stroke-linecap:round;
	fill:none;
	stroke:#000;
}
svg.acjk path[id] {fill:#ccc;}
]]>
</style>
<path id="z35466d1" d="M322 181Q341 196 360 215Q373 225 387 225Q397 224 401 212Q405 199 395 171Q386 150 316 137Q301 134 296 137Q292 141 293 153Q297 163 322 181Z"/>
<path id="z35466d2" d="M568 180C560 188 563 195 572 192C651 159 670 149 703 137C715 132 721 124 716 114C710 102 698 93 685 83C658 63 647 66 646 81C641 120 593 152 568 180Z"/>
<path id="z35466d3" d="M474 286C484 284 491 283 502 281C529 276 529 276 543 273C592 263 683 250 698 242C719 230 683 211 670 208C651 202 633 205 615 211C572 224 531 236 487 244C450 250 450 250 431 253C388 259 345 263 298 267C275 268 271 277 287 287C338 318 389 299 419 295C456 289 456 289 474 286Z"/>
<path id="z35466d4" d="M437 386C463 382 548 370 583 369C620 368 620 368 639 367C681 365 738 365 811 367C837 367 845 352 824 334C790 306 752 300 712 309C685 314 634 323 601 329C570 334 570 334 554 337C543 338 461 350 451 352C414 357 414 357 395 359C322 368 246 377 168 387C155 388 152 394 163 405C183 427 210 430 230 425C277 412 326 399 380 393C418 388 418 388 437 386Z"/>
<path id="z35466d5" d="M340 538C364 511 412 444 437 386C446 363 446 363 451 352C458 332 466 310 474 286C483 258 483 258 487 244C507 176 522 132 535 113C542 101 539 92 530 84C501 57 477 44 457 49C446 51 444 57 448 68C462 109 454 171 431 253C423 281 423 281 419 295C413 315 404 336 395 359C385 382 385 382 380 393C338 486 252 574 112 651C68 674 60 693 116 680C187 660 267 610 320 559C333 545 333 545 340 538Z"/>
<path id="z35466d6" d="M867 632C842 633 821 629 804 612C741 550 604 393 583 369C564 348 564 348 554 337C534 315 521 303 502 281C492 271 533 263 543 273C559 288 579 308 600 329C626 354 626 354 639 367C748 475 839 550 975 604C996 612 982 619 968 622C932 627 904 630 867 632Z"/>
<path id="z35466d7" d="M448 440C480 477 503 495 519 495C527 494 533 490 536 480C537 472 534 461 528 451C522 441 510 436 497 431C474 422 459 417 451 416C445 415 442 418 442 425C441 429 443 434 448 440Z"/>
<path id="z35466d8" d="M320 559C340 573 357 578 373 575C446 560 540 545 655 534C661 533 668 532 673 524C675 517 667 509 654 503C630 490 602 492 569 500C481 518 404 528 340 538C331 540 312 553 320 559Z"/>
<path id="z35466d9" d="M383 620C372 622 373 628 386 638C392 642 403 644 418 642C486 631 545 622 595 615C609 612 614 606 609 599C602 590 591 584 575 581C560 578 539 580 514 587C467 599 423 611 383 620Z"/>
<path id="z35466d10" d="M375 697C365 699 365 704 378 714C384 718 395 720 411 718C483 706 546 696 599 689C613 687 618 682 613 675C606 666 595 659 581 657C567 654 547 657 523 663C470 675 421 687 375 697Z"/>
<path id="z35466d11" d="M368 771C339 762 300 754 319 788C335 816 348 854 359 902C362 915 367 927 376 937C396 961 404 945 402 920C399 897 399 897 398 886C393 845 388 817 388 803C388 790 380 773 368 771Z"/>
<path id="z35466d12" d="M638 870C652 838 670 819 687 807C699 798 701 782 691 772C647 731 607 727 574 735C529 744 448 763 368 771C356 773 376 805 388 803C476 788 536 780 569 779C600 778 600 781 598 804C596 817 593 837 587 863C584 880 632 886 638 870Z"/>
<path id="z35466d13" d="M402 920C417 919 477 908 649 905C654 904 680 903 638 870C624 860 604 860 587 863C516 873 453 881 398 886C387 886 391 920 402 920Z"/>
<defs>
	<clipPath id="z35466c1"><use href="#z35466d1"/></clipPath>
	<clipPath id="z35466c2"><use href="#z35466d2"/></clipPath>
	<clipPath id="z35466c3"><use href="#z35466d3"/></clipPath>
	<clipPath id="z35466c4"><use href="#z35466d4"/></clipPath>
	<clipPath id="z35466c5"><use href="#z35466d5"/></clipPath>
	<clipPath id="z35466c6"><use href="#z35466d6"/></clipPath>
	<clipPath id="z35466c7"><use href="#z35466d7"/></clipPath>
	<clipPath id="z35466c8"><use href="#z35466d8"/></clipPath>
	<clipPath id="z35466c9"><use href="#z35466d9"/></clipPath>
	<clipPath id="z35466c10"><use href="#z35466d10"/></clipPath>
	<clipPath id="z35466c11"><use href="#z35466d11"/></clipPath>
	<clipPath id="z35466c12"><use href="#z35466d12"/></clipPath>
	<clipPath id="z35466c13"><use href="#z35466d13"/></clipPath>
</defs>
<path style="--d:1s;" pathLength="3333" clip-path="url(#z35466c1)" d="M298 144L393 218"/>
<path style="--d:2s;" pathLength="3333" clip-path="url(#z35466c2)" d="M655 76L668 127L569 186"/>
<path style="--d:3s;" pathLength="3333" clip-path="url(#z35466c3)" d="M283 275L360 283L700 230"/>
<path style="--d:4s;" pathLength="3333" clip-path="url(#z35466c4)" d="M164 395L717 336L832 347"/>
<path style="--d:5s;" pathLength="3333" clip-path="url(#z35466c5)" d="M452 54L494 116L378 447L261 578L85 679"/>
<path style="--d:6s;" pathLength="3333" clip-path="url(#z35466c6)" d="M505 276L828 578L981 613"/>
<path style="--d:7s;" pathLength="3333" clip-path="url(#z35466c7)" d="M448 423L525 489"/>
<path style="--d:8s;" pathLength="3333" clip-path="url(#z35466c8)" d="M322 553L667 516"/>
<path style="--d:9s;" pathLength="3333" clip-path="url(#z35466c9)" d="M382 627L604 601"/>
<path style="--d:10s;" pathLength="3333" clip-path="url(#z35466c10)" d="M376 703L610 673"/>
<path style="--d:11s;" pathLength="3333" clip-path="url(#z35466c11)" d="M319 770L357 797L388 945"/>
<path style="--d:12s;" pathLength="3333" clip-path="url(#z35466c12)" d="M372 775L622 763L648 794L608 877"/>
<path style="--d:13s;" pathLength="3333" clip-path="url(#z35466c13)" d="M397 899L655 895"/>
</svg>