<!--
AnimCJK 2016-2017 Copyright Francois Mizessyn, http://gooo.free.fr/animCJK/
Derived from:
    MakeMeAHanzi project - https://github.com/skishore/makemeahanzi
    Arphic PL KaitiM GB - https://apps.ubuntu.com/cat/applications/precise/fonts-arphic-gkai00mp/
    Arphic PL UKai - https://apps.ubuntu.com/cat/applications/fonts-arphic-ukai/
You can redistribute and/or modify this file under the terms of the Arphic Public License
as published by Arphic Technology Co., Ltd.
You should have received a copy of this license (the directory "APL") along with this file;
if not, see http://ftp.gnu.org/non-gnu/chinese-fonts-truetype/LICENSE.
-->
<svg id="z35480" class="acjk" version="1.1" viewBox="0 0 1024 1024" xmlns="http://www.w3.org/2000/svg" xmlns:xlink="http://www.w3.org/1999/xlink">
<style>
<![CDATA[
	@keyframes z35480k {
		from {
			stroke:#c00;
			stroke-dashoffset:3000;
		}
		75% {
			stroke:#c00;
			stroke-dashoffset:0;
		}
		to {
			stroke:#000;
		}
	}
	#z35480 path[clip-path] {
		animation:z35480k 1s linear both;
		stroke-dasharray:3000;
		stroke-width:128;
		stroke-linecap:round;
		fill:none;
	}
	#z35480 path[clip-path="url(#z35480c1)"] {animation-delay:1s;}
	#z35480 path[clip-path="url(#z35480c2)"] {animation-delay:2s;}
	#z35480 path[clip-path="url(#z35480c3)"] {animation-delay:3s;}
	#z35480 path[clip-path="url(#z35480c4)"] {animation-delay:4s;}
	#z35480 path[clip-path="url(#z35480c5)"] {animation-delay:5s;}
	#z35480 path[clip-path="url(#z35480c6)"] {animation-delay:6s;}
	#z35480 path[clip-path="url(#z35480c7)"] {animation-delay:7s;}
	#z35480 path[clip-path="url(#z35480c8)"] {animation-delay:8s;}
	#z35480 path[clip-path="url(#z35480c9)"] {animation-delay:9s;}
	#z35480 path[clip-path="url(#z35480c10)"] {animation-delay:10s;}
	#z35480 path[clip-path="url(#z35480c11)"] {animation-delay:11s;}
	#z35480 path[clip-path="url(#z35480c12)"] {animation-delay:12s;}
	#z35480 path[clip-path="url(#z35480c13)"] {animation-delay:13s;}
	#z35480 path[clip-path="url(#z35480c14)"] {animation-delay:14s;}
	#z35480 path {fill:#ccc;}
]]>
</style>
<g transform="scale(1,-1) translate(0,-900)">
	<path id="z35480d1" d="M293 754Q320 730 347 703Q362 688 379 689Q391 690 397 705Q401 721 392 753Q380 786 288 806Q272 810 264 807Q258 803 260 789Q264 776 293 754Z"/>
	<path id="z35480d2" d="M73 580Q60 579 56 570Q53 560 69 548Q108 521 170 541Q263 574 388 594Q406 597 406 604Q407 617 388 626Q360 638 337 632Q150 590 73 580Z"/>
	<path id="z35480d3" d="M199 479Q168 469 193 457Q235 441 283 461Q314 471 349 482Q365 488 367 490Q374 499 368 506Q361 516 333 518Q312 519 246 492Q225 485 199 479Z"/>
	<path id="z35480d4" d="M196 371Q163 361 189 349Q231 333 279 352Q310 361 342 371Q355 375 358 378Q365 387 360 394Q353 404 325 407Q312 407 238 381Q219 375 196 371Z"/>
	<path id="z35480d5" d="M174 259Q162 263 136 269Q124 272 121 267Q114 260 123 244Q148 192 165 106Q169 81 184 63Q202 41 207 57Q213 73 209 103L203 139Q193 212 191 233L174 259Z"/>
	<path id="z35480d6" d="M342 161Q361 218 381 236Q403 261 381 276Q318 315 304 308Q300 308 296 305Q254 280 174 259L191 233Q195 239 274 255Q299 262 305 252Q311 246 303 217Q297 195 289 167L342 161Z"/>
	<path id="z35480d7" d="M209 103Q254 116 351 133Q361 134 362 144Q362 151 342 161L289 167Q285 167 282 165Q240 150 203 139L209 103Z"/>
	<path id="z35480d8" d="M626 721Q719 761 762 770Q778 771 781 778Q784 788 773 798Q754 813 713 828Q700 835 687 834Q680 830 679 820Q679 780 473 687Q469 678 473 676Q494 676 587 707L626 721Z"/>
	<path id="z35480d9" d="M654 610Q717 623 814 629Q860 633 866 641Q870 651 854 663Q799 696 740 674Q706 665 659 651L605 638Q532 625 449 605Q431 601 446 587Q459 577 476 573Q495 569 509 575Q539 585 576 594L654 610Z"/>
	<path id="z35480d10" d="M653 605Q653 608 654 610L659 651Q662 664 670 678Q676 687 665 698Q647 713 626 721L587 707Q605 682 605 638L607 554Q608 493 604 467Q603 458 618 421Q627 408 640 415Q649 422 649 497Q648 537 650 575L653 605Z"/>
	<path id="z35480d11" d="M576 594Q528 501 407 405Q397 395 404 393Q411 389 422 393Q504 424 584 524Q600 548 607 554L605 600L576 594Z"/>
	<path id="z35480d12" d="M650 575Q699 514 755 456Q776 437 810 436Q871 435 935 448Q951 449 953 454Q954 461 942 465Q770 514 653 605L650 575Z"/>
	<path id="z35480d13" d="M532 327Q532 326 533 323Q537 272 450 125Q447 124 447 121Q416 79 350 18Q343 14 340 9Q334 -1 344 -2Q383 -2 457 65Q458 68 461 69Q518 129 582 256Q586 265 592 273Q605 283 602 298Q592 319 568 340L532 327Z"/>
	<path id="z35480d14" d="M568 340Q634 361 686 371Q699 374 702 369Q706 365 701 354Q673 294 645 273Q635 266 635 253Q636 231 646 223Q656 216 670 223Q710 242 747 245Q766 246 772 239Q782 223 777 193Q768 115 739 54Q730 32 712 26Q697 23 632 49Q605 62 625 34Q656 -12 679 -51Q695 -73 719 -62Q773 -34 801 37Q841 190 859 211Q877 227 866 240Q853 253 814 278Q792 288 769 282Q733 272 724 273Q705 272 713 295Q750 349 777 364Q802 376 796 388Q792 398 746 421Q730 430 714 422Q657 389 428 345Q419 345 417 340Q416 333 440 317Q465 301 491 314Q512 321 532 327L568 340Z"/>
	<defs>
		<clipPath id="z35480c1"><use xlink:href="#z35480d1"/></clipPath>
		<clipPath id="z35480c2"><use xlink:href="#z35480d2"/></clipPath>
		<clipPath id="z35480c3"><use xlink:href="#z35480d3"/></clipPath>
		<clipPath id="z35480c4"><use xlink:href="#z35480d4"/></clipPath>
		<clipPath id="z35480c5"><use xlink:href="#z35480d5"/></clipPath>
		<clipPath id="z35480c6"><use xlink:href="#z35480d6"/></clipPath>
		<clipPath id="z35480c7"><use xlink:href="#z35480d7"/></clipPath>
		<clipPath id="z35480c8"><use xlink:href="#z35480d8"/></clipPath>
		<clipPath id="z35480c9"><use xlink:href="#z35480d9"/></clipPath>
		<clipPath id="z35480c10"><use xlink:href="#z35480d10"/></clipPath>
		<clipPath id="z35480c11"><use xlink:href="#z35480d11"/></clipPath>
		<clipPath id="z35480c12"><use xlink:href="#z35480d12"/></clipPath>
		<clipPath id="z35480c13"><use xlink:href="#z35480d13"/></clipPath>
		<clipPath id="z35480c14"><use xlink:href="#z35480d14"/></clipPath>
	</defs>
	<path pathLength="2999" clip-path="url(#z35480c1)" d="M264 797L354 746L379 694"/>
	<path pathLength="2999" clip-path="url(#z35480c2)" d="M62 568L137 562L401 611"/>
	<path pathLength="2999" clip-path="url(#z35480c3)" d="M188 468L365 504"/>
	<path pathLength="2999" clip-path="url(#z35480c4)" d="M185 361L358 390"/>
	<path pathLength="2999" clip-path="url(#z35480c5)" d="M126 261L163 221L199 56"/>
	<path pathLength="2999" clip-path="url(#z35480c6)" d="M182 257L305 283L335 268L348 244L300 169"/>
	<path pathLength="2999" clip-path="url(#z35480c7)" d="M214 111L291 145L356 141"/>
	<path pathLength="2999" clip-path="url(#z35480c8)" d="M775 784L702 795L480 684"/>
	<path pathLength="2999" clip-path="url(#z35480c9)" d="M447 598L767 654L861 644"/>
	<path pathLength="2999" clip-path="url(#z35480c10)" d="M596 707L637 671L631 417"/>
	<path pathLength="2999" clip-path="url(#z35480c11)" d="M596 592L513 475L408 397"/>
	<path pathLength="2999" clip-path="url(#z35480c12)" d="M657 596L791 479L947 457"/>
	<path pathLength="2999" clip-path="url(#z35480c13)" d="M539 321L562 279L492 148L345 4"/>
	<path pathLength="2999" clip-path="url(#z35480c14)" d="M426 339L484 334L708 398L749 376L675 262L686 248L773 264L817 231L776 62L748 8L706 -19L625 46"/>
</g>
</svg>