<!--
AnimCJK 2016-2019 Copyright Francois Mizessyn - https://github.com/parsimonhi/animCJK
Derived from:
    MakeMeAHanzi project - https://github.com/skishore/makemeahanzi
    Arphic PL KaitiM GB font
    Arphic PL UKai font
You can redistribute and/or modify this file under the terms of the Arphic Public License
as published by Arphic Technology Co., Ltd.
You should have received a copy of this license along with this file.
If not, see http://ftp.gnu.org/non-gnu/chinese-fonts-truetype/LICENSE.
-->
<svg id="z35516" class="acjk" version="1.1" viewBox="0 0 1024 1024" xmlns="http://www.w3.org/2000/svg" xmlns:xlink="http://www.w3.org/1999/xlink">
<style>
<![CDATA[
@keyframes zk {
	to {
		stroke-dashoffset:0;
	}
}
svg.acjk path[clip-path] {
	--t:0.8s;
	animation:zk var(--t) linear forwards var(--d);
	stroke-dasharray:3337;
	stroke-dashoffset:3339;
	stroke-width:128;
	stroke-linecap:round;
	fill:none;
	stroke:#000;
}
svg.acjk path[id] {fill:#ccc;}
]]>
</style>
<path id="z35516d1" d="M327 149Q349 170 375 195Q391 208 408 207Q420 206 424 191Q428 175 419 143Q407 113 320 97Q304 93 296 97Q290 101 293 115Q297 128 327 149Z"/>
<path id="z35516d2" d="M72 340Q59 341 56 350Q53 360 69 372Q106 396 171 376Q267 337 409 311Q427 307 427 300Q427 287 408 278Q380 268 356 274Q167 325 72 340Z"/>
<path id="z35516d3" d="M219 433Q188 443 213 455Q255 471 302 451Q338 439 376 427Q392 420 395 418Q402 409 396 402Q389 392 361 390Q346 390 269 419Q247 426 219 433Z"/>
<path id="z35516d4" d="M216 529Q183 539 209 551Q245 563 318 543Q342 536 371 526Q387 520 390 518Q397 509 392 502Q385 492 357 489Q341 489 265 517Q243 524 216 529Z"/>
<path id="z35516d5" d="M194 643Q184 637 154 631Q142 628 139 633Q132 637 140 654Q165 712 179 805Q180 833 197 853Q213 874 219 859Q226 840 221 798Q220 797 220 796C217 772 217 772 215 760Q205 696 204 672C204 662 203 648 194 643Z"/>
<path id="z35516d6" d="M362 740Q381 683 402 666Q424 641 402 626Q339 593 338 592Q328 591 318 597Q288 618 194 643C184 645 194 675 204 672Q204 671 294 649Q319 643 326 653Q332 657 325 684Q319 706 312 734C309 751 356 756 362 740Z"/>
<path id="z35516d7" d="M220 796Q241 784 373 771Q383 770 385 760Q385 753 362 740C348 731 328 731 312 734Q308 734 307 735Q256 751 215 760C203 762 209 800 220 796Z"/>
<path id="z35516d8" d="M625 109Q653 134 681 164Q696 179 714 179Q726 178 732 163Q738 147 729 112Q717 78 621 54Q603 50 596 53Q590 57 592 72Q596 85 625 109Z"/>
<path id="z35516d9" d="M513 276Q501 252 483 242Q479 238 474 241Q470 245 469 256Q473 284 448 344Q438 360 440 378Q444 397 453 411Q460 421 466 413Q476 410 491 366Q503 327 515 304C520 296 517 284 513 276Z"/>
<path id="z35516d10" d="M515 304Q539 314 592 298Q601 294 780 249Q814 242 825 244Q838 248 837 257Q838 264 831 274Q794 349 799 352Q808 356 825 344Q880 307 926 294Q963 284 963 273Q960 263 890 213Q863 191 778 216Q742 220 587 259Q550 269 514 275Q513 275 513 276C504 279 506 301 515 304Z"/>
<path id="z35516d11" d="M566 438Q551 425 538 420Q526 416 517 420Q508 424 512 435Q528 474 532 571Q532 649 532 816C532 830 574 825 574 811Q575 757 576 708C577 689 577 689 577 680Q578 631 580 587C581 568 581 568 581 558Q581 489 587 470C590 457 576 446 566 438Z"/>
<path id="z35516d12" d="M794 782Q795 494 820 461Q833 445 819 428Q809 416 755 387Q740 378 664 410Q582 434 566 438C553 440 576 477 587 470Q632 446 713 433Q726 430 732 434Q738 446 736 791C736 811 794 802 794 782Z"/>
<path id="z35516d13" d="M580 587Q646 575 692 568Q714 564 705 551Q695 538 671 535Q638 532 581 558C572 562 571 589 580 587Z"/>
<path id="z35516d14" d="M576 708Q579 708 583 708Q647 698 695 693Q717 689 709 676Q699 661 673 657Q624 654 577 680C569 685 567 708 576 708Z"/>
<path id="z35516d15" d="M532 816Q454 823 373 833Q351 834 367 853Q382 868 400 874Q422 880 439 875Q605 833 932 833Q950 833 969 834Q990 834 995 825Q1001 813 983 799Q923 754 868 769Q834 773 794 782C755 788 755 788 736 791Q699 795 658 801Q618 805 574 811C546 814 546 814 532 816Z"/>
<defs>
	<clipPath id="z35516c1"><use xlink:href="#z35516d1"/></clipPath>
	<clipPath id="z35516c2"><use xlink:href="#z35516d2"/></clipPath>
	<clipPath id="z35516c3"><use xlink:href="#z35516d3"/></clipPath>
	<clipPath id="z35516c4"><use xlink:href="#z35516d4"/></clipPath>
	<clipPath id="z35516c5"><use xlink:href="#z35516d5"/></clipPath>
	<clipPath id="z35516c6"><use xlink:href="#z35516d6"/></clipPath>
	<clipPath id="z35516c7"><use xlink:href="#z35516d7"/></clipPath>
	<clipPath id="z35516c8"><use xlink:href="#z35516d8"/></clipPath>
	<clipPath id="z35516c9"><use xlink:href="#z35516d9"/></clipPath>
	<clipPath id="z35516c10"><use xlink:href="#z35516d10"/></clipPath>
	<clipPath id="z35516c11"><use xlink:href="#z35516d11"/></clipPath>
	<clipPath id="z35516c12"><use xlink:href="#z35516d12"/></clipPath>
	<clipPath id="z35516c13"><use xlink:href="#z35516d13"/></clipPath>
	<clipPath id="z35516c14"><use xlink:href="#z35516d14"/></clipPath>
	<clipPath id="z35516c15"><use xlink:href="#z35516d15"/></clipPath>
</defs>
<path style="--d:1s;" pathLength="3333" clip-path="url(#z35516c1)" d="M299 106L420 195"/>
<path style="--d:2s;" pathLength="3333" clip-path="url(#z35516c2)" d="M61 354L132 357L422 295"/>
<path style="--d:3s;" pathLength="3333" clip-path="url(#z35516c3)" d="M207 444L394 411"/>
<path style="--d:4s;" pathLength="3333" clip-path="url(#z35516c4)" d="M204 540L387 508"/>
<path style="--d:5s;" pathLength="3333" clip-path="url(#z35516c5)" d="M143 639L175 669L209 858"/>
<path style="--d:6s;" pathLength="3333" clip-path="url(#z35516c6)" d="M200 645L323 620L360 638L370 657L324 735"/>
<path style="--d:7s;" pathLength="3333" clip-path="url(#z35516c7)" d="M223 787L308 756L380 758"/>
<path style="--d:8s;" pathLength="3333" clip-path="url(#z35516c8)" d="M599 57L724 169"/>
<path style="--d:9s;" pathLength="3333" clip-path="url(#z35516c9)" d="M477 249L490 296L454 408"/>
<path style="--d:10s;" pathLength="3333" clip-path="url(#z35516c10)" d="M519 283L854 228L892 264L909 292L807 347"/>
<path style="--d:11s;" pathLength="3333" clip-path="url(#z35516c11)" d="M516 424L554 476L548 814"/>
<path style="--d:12s;" pathLength="3333" clip-path="url(#z35516c12)" d="M575 440L732 408L780 449L763 786"/>
<path style="--d:13s;" pathLength="3333" clip-path="url(#z35516c13)" d="M588 578L701 556"/>
<path style="--d:14s;" pathLength="3333" clip-path="url(#z35516c14)" d="M584 700L706 677"/>
<path style="--d:15s;" pathLength="3333" clip-path="url(#z35516c15)" d="M367 841L424 852L886 799L992 814"/>
</svg>