<!--
AnimCJK 2016-2019 Copyright Francois Mizessyn - https://github.com/parsimonhi/animCJK
Derived from:
    MakeMeAHanzi project - https://github.com/skishore/makemeahanzi
    Arphic PL KaitiM GB font
    Arphic PL UKai font
You can redistribute and/or modify this file under the terms of the Arphic Public License
as published by Arphic Technology Co., Ltd.
You should have received a copy of this license along with this file.
If not, see http://ftp.gnu.org/non-gnu/chinese-fonts-truetype/LICENSE.
-->
<svg id="z35578" class="acjk" version="1.1" viewBox="0 0 1024 1024" xmlns="http://www.w3.org/2000/svg" xmlns:xlink="http://www.w3.org/1999/xlink">
<style>
<![CDATA[
@keyframes zk {
	to {
		stroke-dashoffset:0;
	}
}
svg.acjk path[clip-path] {
	--t:0.8s;
	animation:zk var(--t) linear forwards var(--d);
	stroke-dasharray:3337;
	stroke-dashoffset:3339;
	stroke-width:128;
	stroke-linecap:round;
	fill:none;
	stroke:#000;
}
svg.acjk path[id] {fill:#ccc;}
]]>
</style>
<path id="z35578d1" d="M339 110Q364 131 393 156Q409 169 425 167Q435 166 441 152Q445 136 433 105Q421 75 331 60Q315 57 308 61Q302 65 305 79Q309 89 339 110Z"/>
<path id="z35578d2" d="M64 309Q51 310 49 319Q46 329 61 340Q97 367 141 353Q282 302 437 277Q453 274 454 267Q455 254 437 246Q410 236 388 241Q172 295 64 309Z"/>
<path id="z35578d3" d="M232 391Q201 400 225 412Q264 427 319 409Q347 400 379 392Q395 388 398 384Q405 377 400 370Q393 360 367 357Q340 354 282 380Q258 386 232 391Z"/>
<path id="z35578d4" d="M240 493Q212 500 233 512Q260 524 322 509Q352 500 386 491Q402 485 405 483Q412 476 407 469Q400 460 377 457Q358 456 290 482Q268 489 240 493Z"/>
<path id="z35578d5" d="M197 609Q185 605 158 600Q148 597 144 602Q140 608 147 622Q174 677 190 768Q194 796 209 814Q225 833 230 819Q236 800 231 766C227 745 227 745 225 734Q210 661 208 636C206 626 207 611 197 609Z"/>
<path id="z35578d6" d="M353 705Q369 644 387 626Q408 601 385 589Q367 579 341 563Q325 554 277 583Q226 601 197 609C187 611 200 641 208 636Q217 629 288 613Q310 606 315 615Q322 621 316 649Q310 676 303 709C300 725 350 721 353 705Z"/>
<path id="z35578d7" d="M231 766Q306 747 371 737Q381 736 382 727Q381 720 353 705C339 696 319 703 303 709Q258 724 225 734C215 738 220 768 231 766Z"/>
<path id="z35578d8" d="M625 74Q644 90 666 111Q679 121 692 120Q701 119 705 108Q709 95 700 69Q691 45 619 33Q606 32 600 33Q596 37 597 48Q601 58 625 74Z"/>
<path id="z35578d9" d="M747 187Q784 180 819 175Q826 176 834 165Q835 156 816 148Q792 132 722 155Q596 182 515 197Q491 201 510 214Q537 233 560 227Q627 211 721 192C738 189 738 189 747 187Z"/>
<path id="z35578d10" d="M723 281Q765 233 772 232Q778 229 778 222Q775 201 747 187C739 182 721 183 721 192Q721 219 684 266Q681 267 680 271C665 287 665 287 658 295Q601 343 558 372Q551 375 559 378Q602 378 681 319Q685 315 692 310C713 291 713 291 723 281Z"/>
<path id="z35578d11" d="M692 310Q726 323 763 343Q776 350 785 350Q789 349 792 342Q796 332 780 311Q767 293 723 281C694 274 694 274 680 271Q625 258 595 254Q589 253 590 261Q591 265 658 295C681 305 681 305 692 310Z"/>
<path id="z35578d12" d="M545 450Q587 462 618 453Q724 431 833 407Q884 395 891 388Q898 381 895 374Q888 364 863 358Q842 354 750 384Q627 415 543 424C534 425 536 448 545 450Z"/>
<path id="z35578d13" d="M543 424Q542 423 539 422Q494 394 472 403Q460 407 467 420Q500 468 469 612Q468 616 467 621Q434 738 310 834Q300 844 310 845Q368 839 430 772Q514 687 526 558Q535 471 545 450C548 442 551 428 543 424Z"/>
<path id="z35578d14" d="M691 464Q685 509 580 601Q561 614 586 611Q631 611 720 529Q720 522 755 496Q764 486 762 477Q759 465 737 458Q712 449 701 451Q694 452 691 464Z"/>
<path id="z35578d15" d="M718 575Q697 638 568 734Q550 746 573 744Q643 737 738 643Q763 618 776 606Q786 597 784 589Q783 577 761 570Q737 560 727 563Q720 564 718 575Z"/>
<path id="z35578d16" d="M740 681Q744 756 602 882Q599 883 597 886Q557 920 459 985Q450 989 460 993Q530 993 662 889Q665 885 669 883Q717 843 795 755Q805 743 812 739Q819 735 820 724Q816 694 779 677Q760 667 748 668Q739 669 740 681Z"/>
<defs>
	<clipPath id="z35578c1"><use xlink:href="#z35578d1"/></clipPath>
	<clipPath id="z35578c2"><use xlink:href="#z35578d2"/></clipPath>
	<clipPath id="z35578c3"><use xlink:href="#z35578d3"/></clipPath>
	<clipPath id="z35578c4"><use xlink:href="#z35578d4"/></clipPath>
	<clipPath id="z35578c5"><use xlink:href="#z35578d5"/></clipPath>
	<clipPath id="z35578c6"><use xlink:href="#z35578d6"/></clipPath>
	<clipPath id="z35578c7"><use xlink:href="#z35578d7"/></clipPath>
	<clipPath id="z35578c8"><use xlink:href="#z35578d8"/></clipPath>
	<clipPath id="z35578c9"><use xlink:href="#z35578d9"/></clipPath>
	<clipPath id="z35578c10"><use xlink:href="#z35578d10"/></clipPath>
	<clipPath id="z35578c11"><use xlink:href="#z35578d11"/></clipPath>
	<clipPath id="z35578c12"><use xlink:href="#z35578d12"/></clipPath>
	<clipPath id="z35578c13"><use xlink:href="#z35578d13"/></clipPath>
	<clipPath id="z35578c14"><use xlink:href="#z35578d14"/></clipPath>
	<clipPath id="z35578c15"><use xlink:href="#z35578d15"/></clipPath>
	<clipPath id="z35578c16"><use xlink:href="#z35578d16"/></clipPath>
</defs>
<path style="--d:1s;" pathLength="3333" clip-path="url(#z35578c1)" d="M312 66L433 158"/>
<path style="--d:2s;" pathLength="3333" clip-path="url(#z35578c2)" d="M55 319L111 330L448 263"/>
<path style="--d:3s;" pathLength="3333" clip-path="url(#z35578c3)" d="M222 403L397 378"/>
<path style="--d:4s;" pathLength="3333" clip-path="url(#z35578c4)" d="M233 502L405 472"/>
<path style="--d:5s;" pathLength="3333" clip-path="url(#z35578c5)" d="M150 607L182 640L220 819"/>
<path style="--d:6s;" pathLength="3333" clip-path="url(#z35578c6)" d="M204 612L341 596L357 617L318 707"/>
<path style="--d:7s;" pathLength="3333" clip-path="url(#z35578c7)" d="M235 759L306 728L377 727"/>
<path style="--d:8s;" pathLength="3333" clip-path="url(#z35578c8)" d="M605 41L695 115"/>
<path style="--d:9s;" pathLength="3333" clip-path="url(#z35578c9)" d="M508 203L826 159"/>
<path style="--d:10s;" pathLength="3333" clip-path="url(#z35578c10)" d="M743 191L743 225L693 284L565 372"/>
<path style="--d:11s;" pathLength="3333" clip-path="url(#z35578c11)" d="M599 259L786 341"/>
<path style="--d:12s;" pathLength="3333" clip-path="url(#z35578c12)" d="M550 427L604 435L891 377"/>
<path style="--d:13s;" pathLength="3333" clip-path="url(#z35578c13)" d="M472 405L513 452L481 653L414 761L315 839"/>
<path style="--d:14s;" pathLength="3333" clip-path="url(#z35578c14)" d="M758 478L712 485L672 542L582 607"/>
<path style="--d:15s;" pathLength="3333" clip-path="url(#z35578c15)" d="M780 590L735 599L686 662L569 740"/>
<path style="--d:16s;" pathLength="3333" clip-path="url(#z35578c16)" d="M748 674L775 726L698 822L577 927L464 987"/>
</svg>