<!--
AnimCJK 2016-2019 Copyright Francois Mizessyn - https://github.com/parsimonhi/animCJK
Derived from:
    MakeMeAHanzi project - https://github.com/skishore/makemeahanzi
    Arphic PL KaitiM GB font
    Arphic PL UKai font
You can redistribute and/or modify this file under the terms of the Arphic Public License
as published by Arphic Technology Co., Ltd.
You should have received a copy of this license along with this file.
If not, see http://ftp.gnu.org/non-gnu/chinese-fonts-truetype/LICENSE.
-->
<svg id="z35617" class="acjk" version="1.1" viewBox="0 0 1024 1024" xmlns="http://www.w3.org/2000/svg" xmlns:xlink="http://www.w3.org/1999/xlink">
<style>
<![CDATA[
@keyframes zk {
	to {
		stroke-dashoffset:0;
	}
}
svg.acjk path[clip-path] {
	--t:0.8s;
	animation:zk var(--t) linear forwards var(--d);
	stroke-dasharray:3337;
	stroke-dashoffset:3339;
	stroke-width:128;
	stroke-linecap:round;
	fill:none;
	stroke:#000;
}
svg.acjk path[id] {fill:#ccc;}
]]>
</style>
<path id="z35617d1" d="M281 141C304 156 328 174 354 194C364 202 375 205 386 204C392 203 398 198 401 188C403 177 399 162 391 142C381 119 342 101 271 91C260 89 252 90 248 93C244 95 243 101 246 111C247 118 260 127 281 141Z"/>
<path id="z35617d2" d="M48 332C39 333 33 336 32 342C29 348 34 356 45 364C71 382 99 386 129 376C217 344 305 321 393 307C403 305 409 300 410 296C410 287 404 279 392 274C373 265 356 265 341 269C211 301 113 322 48 332Z"/>
<path id="z35617d3" d="M196 421C175 425 172 436 189 443C216 453 250 450 288 439C308 433 329 428 351 422C362 418 368 415 370 414C375 408 375 402 372 398C367 391 355 387 337 385C320 383 246 410 196 421Z"/>
<path id="z35617d4" d="M183 535C162 539 161 547 177 555C197 564 230 562 278 548C300 541 323 534 347 526C359 521 367 518 370 516C374 511 375 506 372 502C367 495 356 487 339 489C313 491 256 519 183 535Z"/>
<path id="z35617d5" d="M167 649C158 646 144 642 124 640C116 638 111 640 109 643C105 647 106 654 112 665C133 703 151 754 165 818C168 836 175 852 187 865C200 879 207 881 211 870C215 856 214 835 208 809C205 799 203 789 201 779C188 724 182 689 180 674C178 665 176 652 167 649Z"/>
<path id="z35617d6" d="M330 752C342 707 355 678 370 663C384 647 383 634 369 626C330 604 309 595 307 595C301 595 295 597 290 601C264 619 223 635 167 649C158 651 171 677 180 674C238 657 238 657 267 649C283 644 293 645 299 651C303 655 303 667 298 688C293 707 287 729 281 752C278 768 327 768 330 752Z"/>
<path id="z35617d7" d="M208 809C228 805 289 789 344 781C350 779 354 777 354 771C354 766 346 760 330 752C316 744 297 749 281 752C280 752 280 752 280 752C250 762 223 771 201 779C191 783 198 811 208 809Z"/>
<path id="z35617d8" d="M647 131C614 158 556 188 477 229C471 232 474 239 477 240C509 241 559 225 654 187C670 180 707 168 742 158C752 155 759 154 761 150C763 143 760 136 753 130C740 119 720 111 693 100C683 96 675 91 667 94C661 95 660 101 660 108C659 116 654 124 647 131Z"/>
<path id="z35617d9" d="M481 328C496 344 511 363 528 384C534 392 542 396 551 397C557 397 561 393 565 387C569 379 569 367 567 351C564 338 555 325 538 315C498 291 473 281 464 285C460 286 459 291 459 299C459 305 467 314 481 328Z"/>
<path id="z35617d10" d="M587 277C609 320 628 344 643 348C649 349 657 346 663 336C666 329 665 319 661 306C657 295 648 287 637 280C617 267 604 258 595 255C590 253 587 255 585 261C583 265 583 270 587 277Z"/>
<path id="z35617d11" d="M800 250C776 284 739 327 691 379C686 383 685 389 691 393C695 395 701 393 706 390C781 334 834 291 872 272C882 266 888 264 886 257C882 246 874 234 862 222C849 209 835 202 821 202C811 201 805 208 807 221C808 229 807 239 800 250Z"/>
<path id="z35617d12" d="M659 497C749 477 840 463 859 456C868 452 870 443 865 438C858 431 841 412 814 413C783 413 757 427 729 436C672 453 606 472 474 489C453 491 435 490 456 510C484 537 529 524 617 506C645 500 645 500 659 497Z"/>
<path id="z35617d13" d="M679 650C728 641 785 637 857 637C893 636 913 634 916 628C918 620 915 611 906 604C886 588 866 578 845 579C811 582 729 604 681 612C648 617 648 617 631 620C568 630 491 641 421 653C409 654 408 660 418 672C425 680 435 686 446 689C458 691 469 692 478 690C525 675 584 665 631 658C663 653 663 653 679 650Z"/>
<path id="z35617d14" d="M673 812C675 778 675 713 679 650C680 625 680 625 681 612C682 587 686 560 689 541C690 526 679 513 659 497C648 488 610 494 617 506C623 515 631 555 631 620C631 645 631 645 631 658C631 765 631 765 631 819C631 833 673 826 673 812Z"/>
<path id="z35617d15" d="M828 793C772 797 720 804 673 812C645 817 645 817 631 819C588 826 548 835 512 845C501 847 498 841 501 828C510 784 513 757 508 750C500 738 488 728 475 719C468 714 461 712 455 714C448 715 447 723 451 735C459 759 460 784 455 809C450 831 443 847 433 857C422 866 417 876 422 885C427 895 436 904 447 911C454 916 462 916 468 911C482 897 529 882 610 861C724 830 795 818 825 830C825 829 826 829 828 830C840 832 840 793 828 793Z"/>
<path id="z35617d16" d="M828 830C828 855 829 881 848 908C854 916 861 916 866 909C877 891 876 859 874 814C871 770 875 743 879 734C881 725 880 715 873 710C862 701 845 696 825 689C817 686 810 687 804 692C800 694 798 700 803 707C811 718 828 745 828 793C828 818 828 818 828 830Z"/>
<defs>
	<clipPath id="z35617c1"><use xlink:href="#z35617d1"/></clipPath>
	<clipPath id="z35617c2"><use xlink:href="#z35617d2"/></clipPath>
	<clipPath id="z35617c3"><use xlink:href="#z35617d3"/></clipPath>
	<clipPath id="z35617c4"><use xlink:href="#z35617d4"/></clipPath>
	<clipPath id="z35617c5"><use xlink:href="#z35617d5"/></clipPath>
	<clipPath id="z35617c6"><use xlink:href="#z35617d6"/></clipPath>
	<clipPath id="z35617c7"><use xlink:href="#z35617d7"/></clipPath>
	<clipPath id="z35617c8"><use xlink:href="#z35617d8"/></clipPath>
	<clipPath id="z35617c9"><use xlink:href="#z35617d9"/></clipPath>
	<clipPath id="z35617c10"><use xlink:href="#z35617d10"/></clipPath>
	<clipPath id="z35617c11"><use xlink:href="#z35617d11"/></clipPath>
	<clipPath id="z35617c12"><use xlink:href="#z35617d12"/></clipPath>
	<clipPath id="z35617c13"><use xlink:href="#z35617d13"/></clipPath>
	<clipPath id="z35617c14"><use xlink:href="#z35617d14"/></clipPath>
	<clipPath id="z35617c15"><use xlink:href="#z35617d15"/></clipPath>
	<clipPath id="z35617c16"><use xlink:href="#z35617d16"/></clipPath>
</defs>
<path style="--d:1s;" pathLength="3333" clip-path="url(#z35617c1)" d="M252 98L395 195"/>
<path style="--d:2s;" pathLength="3333" clip-path="url(#z35617c2)" d="M35 343L103 352L405 293"/>
<path style="--d:3s;" pathLength="3333" clip-path="url(#z35617c3)" d="M186 431L368 407"/>
<path style="--d:4s;" pathLength="3333" clip-path="url(#z35617c4)" d="M174 545L368 506"/>
<path style="--d:5s;" pathLength="3333" clip-path="url(#z35617c5)" d="M115 650L151 680L200 871"/>
<path style="--d:6s;" pathLength="3333" clip-path="url(#z35617c6)" d="M176 654L299 623L334 641L298 751"/>
<path style="--d:7s;" pathLength="3333" clip-path="url(#z35617c7)" d="M206 782L347 773"/>
<path style="--d:8s;" pathLength="3333" clip-path="url(#z35617c8)" d="M 669,101 694,141 484,232"/>
<path style="--d:9s;" pathLength="3333" clip-path="url(#z35617c9)" d="M467 292L561 388"/>
<path style="--d:10s;" pathLength="3333" clip-path="url(#z35617c10)" d="M594 260L654 342"/>
<path style="--d:11s;" pathLength="3333" clip-path="url(#z35617c11)" d="M818 206L841 256L694 387"/>
<path style="--d:12s;" pathLength="3333" clip-path="url(#z35617c12)" d="M 460,503 861,439"/>
<path style="--d:13s;" pathLength="3333" clip-path="url(#z35617c13)" d="M420 662L911 613"/>
<path style="--d:14s;" pathLength="3333" clip-path="url(#z35617c14)" d="M624 511L655 547L642 815"/>
<path style="--d:15s;" pathLength="3333" clip-path="url(#z35617c15)" d="M458 722L483 757L466 858L482 879L825 804"/>
<path style="--d:16s;" pathLength="3333" clip-path="url(#z35617c16)" d="M808 698L848 731L855 907"/>
</svg>