<!--
AnimCJK 2016-2026 Copyright FM-SH, https://github.com/parsimonhi/animCJK
Derived from:
    MakeMeAHanzi project - https://github.com/skishore/makemeahanzi
    Arphic PL KaitiM GB font
    Arphic PL KaitiM Big5 font
You can redistribute and/or modify this file under the terms of the Arphic Public License
as published by Arphic Technology Co., Ltd.
You should have received a copy of this license along with this file.
If not, see https://ftp.gnu.org/non-gnu/chinese-fonts-truetype/LICENSE.
-->
<svg id="z35610" class="acjk" viewBox="0 0 1024 1024" xmlns="http://www.w3.org/2000/svg">
<style>
<![CDATA[
@keyframes zk {
	to {
		stroke-dashoffset:0;
	}
}
svg.acjk path[clip-path] {
	--t:0.8s;
	animation:zk var(--t) linear forwards var(--d);
	stroke-dasharray:3337;
	stroke-dashoffset:3339;
	stroke-width:128;
	stroke-linecap:round;
	fill:none;
	stroke:#000;
}
svg.acjk path[id] {fill:#ccc;}
]]>
</style>
<path id="z35610d1" d="M311 154Q332 172 353 192Q369 205 385 203Q395 202 401 188Q405 172 393 141Q381 117 303 104Q287 101 280 105Q274 109 277 123Q281 133 311 154Z"/>
<path id="z35610d2" d="M91 351Q78 354 75 362Q72 372 89 384Q134 411 173 393Q308 338 442 311Q458 307 459 300Q460 287 440 278Q412 268 388 275Q169 339 91 351Z"/>
<path id="z35610d3" d="M223 441Q192 451 217 463Q251 475 323 452Q345 445 370 437Q385 433 387 430Q394 421 388 414Q381 404 353 402Q331 401 266 430Q247 436 223 441Z"/>
<path id="z35610d4" d="M226 560Q195 572 220 583Q265 595 310 576Q343 563 378 550Q394 544 396 542Q403 533 397 526Q388 516 361 515Q337 515 275 546Q251 553 226 560Z"/>
<path id="z35610d5" d="M199 677Q199 676 198 675Q188 669 154 664Q144 663 140 667Q136 673 143 686Q171 740 189 827Q193 852 209 870Q225 889 230 875Q236 857 229 824C224 803 224 803 222 793Q209 726 205 701C203 693 205 683 199 677Z"/>
<path id="z35610d6" d="M348 767Q363 703 381 684Q399 660 378 649Q323 622 313 624Q307 625 302 629Q266 656 199 677C191 680 198 705 205 701Q208 697 284 673Q306 666 313 674Q319 678 313 703Q309 731 301 764C298 779 345 782 348 767Z"/>
<path id="z35610d7" d="M229 824Q229 823 233 822Q272 809 357 791Q366 790 366 781Q366 775 348 767C333 761 316 758 301 764Q298 764 297 765Q255 781 222 793C212 797 220 829 229 824Z"/>
<path id="z35610d8" d="M579 179C577 207 528 261 473 313C448 335 450 347 483 333C530 313 597 254 630 226C658 201 647 188 613 169C592 156 580 155 579 179Z"/>
<path id="z35610d9" d="M737 193C765 217 805 253 836 283C848 295 869 302 877 283C880 274 878 261 875 243C868 214 815 175 734 149C712 141 708 148 710 162C710 168 720 179 737 193Z"/>
<path id="z35610d10" d="M540 350C518 354 515 361 531 371C553 385 583 389 620 381C674 370 690 367 746 356C772 350 787 345 791 342C795 337 797 332 795 327C790 320 779 314 762 309C746 306 725 310 660 330C608 342 581 346 540 350Z"/>
<path id="z35610d11" d="M551 439C552 457 516 517 460 568C437 584 444 592 468 582C523 560 565 514 598 482C627 452 605 445 581 433C567 425 549 423 551 439Z"/>
<path id="z35610d12" d="M727 459C755 483 785 509 816 539C828 551 849 558 857 539C860 530 858 517 855 499C848 470 805 441 724 415C702 407 698 414 700 428C700 434 710 445 727 459Z"/>
<path id="z35610d13" d="M486 643Q476 639 455 636Q445 635 442 638Q438 644 444 657Q469 706 485 789Q486 808 497 824C502 832 526 830 524 821Q524 814 503 676C501 664 497 648 486 643Z"/>
<path id="z35610d14" d="M811 785Q838 686 865 648Q875 638 870 628Q864 613 809 588Q794 581 781 585Q648 618 486 643C474 645 491 678 503 676Q510 675 519 672Q537 668 557 663C570 660 570 660 576 659Q615 649 657 640C680 636 680 636 692 634Q762 615 781 626Q788 630 787 647Q777 708 756 793C752 811 807 803 811 785Z"/>
<path id="z35610d15" d="M615 811Q615 810 616 807Q619 741 582 666Q579 662 576 659C571 654 556 657 557 663Q557 664 558 666Q559 678 563 690Q567 708 569 730Q575 793 595 813C599 818 614 818 615 811Z"/>
<path id="z35610d16" d="M672 804Q681 792 708 707Q712 691 721 670Q730 658 722 652Q712 642 692 634C681 630 653 629 657 640Q669 676 667 713Q658 794 659 806C659 810 669 808 672 804Z"/>
<path id="z35610d17" d="M497 824Q433 828 364 836Q345 837 358 854Q388 881 420 873Q643 813 924 835Q925 834 927 835Q946 835 950 828Q954 818 940 804Q889 765 829 781Q820 782 811 785C774 790 774 790 756 793Q716 797 672 804C663 805 663 805 659 806Q647 806 637 808Q627 809 615 811C602 812 602 812 595 813Q561 816 524 821C506 823 506 823 497 824Z"/>
<defs>
	<clipPath id="z35610c1"><use href="#z35610d1"/></clipPath>
	<clipPath id="z35610c2"><use href="#z35610d2"/></clipPath>
	<clipPath id="z35610c3"><use href="#z35610d3"/></clipPath>
	<clipPath id="z35610c4"><use href="#z35610d4"/></clipPath>
	<clipPath id="z35610c5"><use href="#z35610d5"/></clipPath>
	<clipPath id="z35610c6"><use href="#z35610d6"/></clipPath>
	<clipPath id="z35610c7"><use href="#z35610d7"/></clipPath>
	<clipPath id="z35610c8"><use href="#z35610d8"/></clipPath>
	<clipPath id="z35610c9"><use href="#z35610d9"/></clipPath>
	<clipPath id="z35610c10"><use href="#z35610d10"/></clipPath>
	<clipPath id="z35610c11"><use href="#z35610d11"/></clipPath>
	<clipPath id="z35610c12"><use href="#z35610d12"/></clipPath>
	<clipPath id="z35610c13"><use href="#z35610d13"/></clipPath>
	<clipPath id="z35610c14"><use href="#z35610d14"/></clipPath>
	<clipPath id="z35610c15"><use href="#z35610d15"/></clipPath>
	<clipPath id="z35610c16"><use href="#z35610d16"/></clipPath>
	<clipPath id="z35610c17"><use href="#z35610d17"/></clipPath>
</defs>
<path style="--d:1s;" pathLength="3333" clip-path="url(#z35610c1)" d="M284 109L393 196"/>
<path style="--d:2s;" pathLength="3333" clip-path="url(#z35610c2)" d="M83 367L157 368L454 297"/>
<path style="--d:3s;" pathLength="3333" clip-path="url(#z35610c3)" d="M212 454L384 419"/>
<path style="--d:4s;" pathLength="3333" clip-path="url(#z35610c4)" d="M216 574L394 532"/>
<path style="--d:5s;" pathLength="3333" clip-path="url(#z35610c5)" d="M146 670L177 694L218 872"/>
<path style="--d:6s;" pathLength="3333" clip-path="url(#z35610c6)" d="M197 685L314 648L351 668L322 775"/>
<path style="--d:7s;" pathLength="3333" clip-path="url(#z35610c7)" d="M220 812L361 781"/>
<path style="--d:8s;" pathLength="3333" clip-path="url(#z35610c8)" d="M590 165L606 207L464 333"/>
<path style="--d:9s;" pathLength="3333" clip-path="url(#z35610c9)" d="M716 150L828 231L865 289"/>
<path style="--d:10s;" pathLength="3333" clip-path="url(#z35610c10)" d="M526 359L792 330"/>
<path style="--d:11s;" pathLength="3333" clip-path="url(#z35610c11)" d="M561 432L573 470L454 579"/>
<path style="--d:12s;" pathLength="3333" clip-path="url(#z35610c12)" d="M706 418L805 485L846 545"/>
<path style="--d:13s;" pathLength="3333" clip-path="url(#z35610c13)" d="M447 644L477 670L509 826"/>
<path style="--d:14s;" pathLength="3333" clip-path="url(#z35610c14)" d="M490 650L803 611L828 647L772 801"/>
<path style="--d:15s;" pathLength="3333" clip-path="url(#z35610c15)" d="M566 660L601 813"/>
<path style="--d:16s;" pathLength="3333" clip-path="url(#z35610c16)" d="M664 638L695 670L665 801"/>
<path style="--d:17s;" pathLength="3333" clip-path="url(#z35610c17)" d="M360 846L859 803L946 816"/>
</svg>