<!--
AnimCJK 2016-2026 Copyright FM-SH, https://github.com/parsimonhi/animCJK
Derived from:
    MakeMeAHanzi project - https://github.com/skishore/makemeahanzi
    Arphic PL KaitiM GB font
    Arphic PL KaitiM Big5 font
You can redistribute and/or modify this file under the terms of the Arphic Public License
as published by Arphic Technology Co., Ltd.
You should have received a copy of this license along with this file.
If not, see https://ftp.gnu.org/non-gnu/chinese-fonts-truetype/LICENSE.
-->
<svg id="z35624" class="acjk" viewBox="0 0 1024 1024" xmlns="http://www.w3.org/2000/svg">
<style>
<![CDATA[
@keyframes zk {
	to {
		stroke-dashoffset:0;
	}
}
svg.acjk path[clip-path] {
	--t:0.8s;
	animation:zk var(--t) linear forwards var(--d);
	stroke-dasharray:3337;
	stroke-dashoffset:3339;
	stroke-width:128;
	stroke-linecap:round;
	fill:none;
	stroke:#000;
}
svg.acjk path[id] {fill:#ccc;}
]]>
</style>
<path id="z35624d1" d="M302 162Q326 184 351 209Q366 224 383 223Q395 222 401 207Q405 191 396 159Q384 131 296 110Q280 106 272 109Q266 113 268 127Q272 140 302 162Z"/>
<path id="z35624d2" d="M52 349Q39 350 36 359Q33 369 49 380Q91 407 129 392Q258 344 401 321Q417 318 418 311Q419 298 401 290Q374 280 352 285Q130 340 52 349Z"/>
<path id="z35624d3" d="M193 457Q160 466 185 479Q225 497 275 479Q315 467 356 455Q375 449 378 446Q385 437 380 430Q373 420 345 417Q333 416 248 444Q223 451 193 457Z"/>
<path id="z35624d4" d="M205 557Q172 566 197 579Q230 594 307 573Q371 555 382 550Q389 541 384 534Q377 524 349 520Q322 519 258 545Q234 552 205 557Z"/>
<path id="z35624d5" d="M174 675Q161 671 141 668Q129 667 127 671Q121 677 130 692Q158 747 179 837Q183 865 200 882Q218 901 222 887Q228 868 221 833C216 812 216 812 214 802Q198 721 194 699C192 689 184 677 174 675Z"/>
<path id="z35624d6" d="M342 773Q358 709 378 687Q399 662 376 649Q357 639 330 624Q306 612 272 641Q214 663 174 675C164 678 184 702 194 699Q227 689 276 674Q298 667 304 676Q311 682 304 713Q300 741 292 773C289 789 339 789 342 773Z"/>
<path id="z35624d7" d="M221 833Q228 832 237 830Q274 817 356 802Q366 799 366 791Q366 784 342 773C327 767 307 767 292 773Q249 791 214 802C204 805 211 835 221 833Z"/>
<path id="z35624d8" d="M726 219C742 217 810 215 855 217C884 217 880 198 865 188C830 163 775 171 741 179C706 187 706 187 689 191C656 198 622 203 585 210C556 215 556 215 542 217C513 221 483 224 451 230C435 232 432 238 444 246C476 265 515 260 550 251C575 244 575 244 587 241C602 236 663 226 682 224C711 221 711 221 726 219Z"/>
<path id="z35624d9" d="M585 210C583 193 582 177 582 163C581 150 576 144 566 140C541 129 524 124 512 130C501 134 500 143 509 155C523 173 536 193 542 217C547 240 547 240 550 251C556 278 562 299 572 310C578 317 586 315 588 309C590 299 589 276 587 241C586 220 586 220 585 210Z"/>
<path id="z35624d10" d="M741 179C747 161 754 139 769 119C775 108 778 103 772 96C763 85 749 75 728 65C717 59 706 58 696 65C689 68 691 73 695 81C703 96 701 133 689 191C684 213 684 213 682 224C674 259 665 285 667 297C667 305 672 306 682 300C692 291 709 262 726 219C736 192 736 192 741 179Z"/>
<path id="z35624d11" d="M508 370Q498 364 465 361Q453 358 451 363Q445 369 454 384Q482 438 503 526Q507 553 524 570Q542 589 546 575Q547 568 549 557C551 547 548 537 546 527Q540 500 534 474C531 458 531 458 529 450Q522 416 520 400C518 389 518 374 508 370Z"/>
<path id="z35624d12" d="M715 543Q730 567 744 575Q754 582 770 562Q783 546 812 446Q822 418 845 395Q858 383 847 370Q834 354 794 327Q779 318 712 333Q694 336 589 355Q543 364 508 370C497 372 510 404 520 400Q550 385 719 362Q744 359 755 367Q765 376 762 391Q743 487 734 502Q730 514 716 516C707 518 710 536 715 543Z"/>
<path id="z35624d13" d="M534 474Q538 474 545 474Q636 461 703 453Q724 450 717 439Q707 426 685 421Q669 418 529 450C521 451 526 474 534 474Z"/>
<path id="z35624d14" d="M605 550Q648 544 715 543C724 543 722 522 716 516Q712 512 706 508Q693 501 666 506Q599 519 546 527C536 529 539 559 549 557Q564 554 583 553C598 551 598 551 605 550Z"/>
<path id="z35624d15" d="M647 676Q719 664 928 665Q946 665 951 657Q955 647 940 633Q892 597 857 604Q785 620 662 637Q655 638 649 639C612 644 612 644 594 647Q513 656 424 667Q405 668 418 685Q431 698 448 703Q467 709 483 704Q532 691 587 683C627 678 627 678 647 676Z"/>
<path id="z35624d16" d="M649 639Q653 606 662 593Q669 587 663 577Q659 570 631 560Q616 553 605 550C598 547 586 546 583 553Q577 559 585 571Q597 598 594 647C589 671 589 671 587 683Q560 776 471 833Q435 852 369 880Q345 890 373 892Q466 896 561 820Q564 816 568 812Q607 772 633 698C644 659 644 659 649 639Z"/>
<path id="z35624d17" d="M633 698Q702 797 791 903Q809 922 838 920Q938 913 970 906Q979 905 980 899Q981 895 968 887Q818 827 748 765Q700 725 647 676C635 664 623 685 633 698Z"/>
<defs>
	<clipPath id="z35624c1"><use href="#z35624d1"/></clipPath>
	<clipPath id="z35624c2"><use href="#z35624d2"/></clipPath>
	<clipPath id="z35624c3"><use href="#z35624d3"/></clipPath>
	<clipPath id="z35624c4"><use href="#z35624d4"/></clipPath>
	<clipPath id="z35624c5"><use href="#z35624d5"/></clipPath>
	<clipPath id="z35624c6"><use href="#z35624d6"/></clipPath>
	<clipPath id="z35624c7"><use href="#z35624d7"/></clipPath>
	<clipPath id="z35624c8"><use href="#z35624d8"/></clipPath>
	<clipPath id="z35624c9"><use href="#z35624d9"/></clipPath>
	<clipPath id="z35624c10"><use href="#z35624d10"/></clipPath>
	<clipPath id="z35624c11"><use href="#z35624d11"/></clipPath>
	<clipPath id="z35624c12"><use href="#z35624d12"/></clipPath>
	<clipPath id="z35624c13"><use href="#z35624d13"/></clipPath>
	<clipPath id="z35624c14"><use href="#z35624d14"/></clipPath>
	<clipPath id="z35624c15"><use href="#z35624d15"/></clipPath>
	<clipPath id="z35624c16"><use href="#z35624d16"/></clipPath>
	<clipPath id="z35624c17"><use href="#z35624d17"/></clipPath>
</defs>
<path style="--d:1s;" pathLength="3333" clip-path="url(#z35624c1)" d="M274 115L363 171L386 218"/>
<path style="--d:2s;" pathLength="3333" clip-path="url(#z35624c2)" d="M41 362L96 371L414 305"/>
<path style="--d:3s;" pathLength="3333" clip-path="url(#z35624c3)" d="M181 467L377 436"/>
<path style="--d:4s;" pathLength="3333" clip-path="url(#z35624c4)" d="M194 568L381 541"/>
<path style="--d:5s;" pathLength="3333" clip-path="url(#z35624c5)" d="M131 676L166 703L212 888"/>
<path style="--d:6s;" pathLength="3333" clip-path="url(#z35624c6)" d="M177 681L292 648L341 664L304 781"/>
<path style="--d:7s;" pathLength="3333" clip-path="url(#z35624c7)" d="M211 815L362 789"/>
<path style="--d:8s;" pathLength="3333" clip-path="url(#z35624c8)" d="M442 236L768 195L872 202"/>
<path style="--d:9s;" pathLength="3333" clip-path="url(#z35624c9)" d="M510 135L554 169L575 309"/>
<path style="--d:10s;" pathLength="3333" clip-path="url(#z35624c10)" d="M699 69L737 106L677 296"/>
<path style="--d:11s;" pathLength="3333" clip-path="url(#z35624c11)" d="M456 367L492 399L537 576"/>
<path style="--d:12s;" pathLength="3333" clip-path="url(#z35624c12)" d="M507 378L737 344L786 356L803 396L757 522L721 551"/>
<path style="--d:13s;" pathLength="3333" clip-path="url(#z35624c13)" d="M527 459L714 441"/>
<path style="--d:14s;" pathLength="3333" clip-path="url(#z35624c14)" d="M541 539L716 531"/>
<path style="--d:15s;" pathLength="3333" clip-path="url(#z35624c15)" d="M419 675L864 634L947 645"/>
<path style="--d:16s;" pathLength="3333" clip-path="url(#z35624c16)" d="M588 556L628 594L573 768L487 846L368 886"/>
<path style="--d:17s;" pathLength="3333" clip-path="url(#z35624c17)" d="M637 681L829 874L970 898"/>
</svg>