<!--
AnimCJK 2016-2018 Copyright Francois Mizessyn - https://github.com/parsimonhi/animCJK
Derived from:
    MakeMeAHanzi project - https://github.com/skishore/makemeahanzi
    Arphic PL KaitiM GB - https://apps.ubuntu.com/cat/applications/precise/fonts-arphic-gkai00mp/
    Arphic PL UKai - https://apps.ubuntu.com/cat/applications/fonts-arphic-ukai/
You can redistribute and/or modify this file under the terms of the Arphic Public License
as published by Arphic Technology Co., Ltd.
You should have received a copy of this license (the directory "APL") along with this file;
if not, see http://ftp.gnu.org/non-gnu/chinese-fonts-truetype/LICENSE.
-->
<svg id="z35698" class="acjk" version="1.1" viewBox="0 0 1024 1024" xmlns="http://www.w3.org/2000/svg" xmlns:xlink="http://www.w3.org/1999/xlink">
<style>
<![CDATA[
@keyframes z35698k {
	from {
		stroke:#ccc;
		stroke-dashoffset:3334;
	}
	1% {
		stroke:#c00;
		stroke-dashoffset:3334;
	}
	75% {
		stroke:#c00;
		stroke-dashoffset:0;
	}
	to {
		stroke:#000;
	}
}
#z35698 path[clip-path] {
	animation:z35698k 1s linear both;
	stroke-dasharray:3334;
	stroke-width:128;
	stroke-linecap:round;
	fill:none;
}
#z35698 path[clip-path="url(#z35698c1)"] {animation-delay:1s;}
#z35698 path[clip-path="url(#z35698c2)"] {animation-delay:2s;}
#z35698 path[clip-path="url(#z35698c3)"] {animation-delay:3s;}
#z35698 path[clip-path="url(#z35698c4)"] {animation-delay:4s;}
#z35698 path[clip-path="url(#z35698c5)"] {animation-delay:5s;}
#z35698 path[clip-path="url(#z35698c6)"] {animation-delay:6s;}
#z35698 path[clip-path="url(#z35698c7)"] {animation-delay:7s;}
#z35698 path[clip-path="url(#z35698c8)"] {animation-delay:8s;}
#z35698 path[clip-path="url(#z35698c9)"] {animation-delay:9s;}
#z35698 path[clip-path="url(#z35698c10)"] {animation-delay:10s;}
#z35698 path[clip-path="url(#z35698c11)"] {animation-delay:11s;}
#z35698 path[clip-path="url(#z35698c12)"] {animation-delay:12s;}
#z35698 path[clip-path="url(#z35698c13)"] {animation-delay:13s;}
#z35698 path[clip-path="url(#z35698c14)"] {animation-delay:14s;}
#z35698 path[clip-path="url(#z35698c15)"] {animation-delay:15s;}
#z35698 path[clip-path="url(#z35698c16)"] {animation-delay:16s;}
#z35698 path[clip-path="url(#z35698c17)"] {animation-delay:17s;}
#z35698 path[clip-path="url(#z35698c18)"] {animation-delay:18s;}
#z35698 path[clip-path="url(#z35698c19)"] {animation-delay:19s;}
#z35698 path[clip-path="url(#z35698c20)"] {animation-delay:20s;}
#z35698 path {fill:#ccc;}
]]>
</style>
<path id="z35698d1" d="M261 121Q286 140 311 164Q326 176 342 174Q352 173 357 160Q361 144 350 115Q338 85 254 73Q238 70 232 73Q228 77 229 90Q233 100 261 121Z"/>
<path id="z35698d2" d="M66 303Q54 304 52 313Q49 323 64 333Q103 355 141 342Q249 299 363 276Q379 273 379 266Q379 254 361 246Q336 237 314 243Q146 289 66 303Z"/>
<path id="z35698d3" d="M167 407Q137 416 161 427Q192 442 254 423Q282 414 316 404Q332 400 334 396Q341 389 336 382Q329 372 303 369Q276 368 218 394Q194 401 167 407Z"/>
<path id="z35698d4" d="M165 515Q134 522 157 536Q190 548 252 534Q283 525 317 516Q335 512 337 508Q344 501 340 494Q333 484 307 480Q282 477 219 503Q192 510 165 515Z"/>
<path id="z35698d5" d="M151 634Q141 630 122 628Q112 627 108 631Q104 635 111 650Q136 699 155 782Q158 806 173 822Q189 841 194 827Q198 811 194 781C190 760 190 760 188 750Q173 677 172 657Q171 656 173 656C176 646 161 638 151 634Z"/>
<path id="z35698d6" d="M308 725Q323 667 341 648Q360 624 339 612Q321 602 296 587Q283 580 236 605Q170 629 151 634C141 637 163 659 173 656Q210 646 244 637Q266 630 271 639Q278 643 272 672Q268 696 262 724C259 739 305 740 308 725Z"/>
<path id="z35698d7" d="M194 781Q215 771 321 751Q330 750 330 742Q330 735 308 725C294 719 276 718 262 724C261 724 261 724 261 724Q221 739 188 750C178 754 184 785 194 781Z"/>
<path id="z35698d8" d="M556 112Q617 148 634 145Q644 142 645 128Q646 113 630 88Q615 66 540 69Q524 69 519 73Q515 77 520 89Q526 99 556 112Z"/>
<path id="z35698d9" d="M421 205C410 207 409 213 418 221C434 235 459 238 493 228C613 192 650 194 784 193C785 193 785 193 786 193C796 193 803 190 806 184C808 178 805 171 796 164C766 144 731 139 693 150C611 170 580 175 421 205Z"/>
<path id="z35698d10" d="M468 292Q460 309 376 417Q370 429 383 425Q419 395 504 318Q515 305 534 296Q549 287 539 277Q528 266 506 259Q486 251 477 255Q468 256 472 265Q477 278 468 292Z"/>
<path id="z35698d11" d="M667 252Q718 287 778 341Q795 357 808 359Q815 360 822 351Q833 340 819 304Q804 259 666 227Q657 222 656 233Q656 245 667 252Z"/>
<path id="z35698d12" d="M681 425Q732 415 775 410Q782 411 790 401Q791 391 773 384Q769 380 756 376Q741 370 688 388C652 398 652 398 634 403Q630 403 627 404Q591 413 557 422C524 427 524 427 508 430Q471 434 431 440Q409 444 426 457Q447 474 486 468Q498 465 514 461C541 455 541 455 555 452Q589 443 634 434C665 428 665 428 681 425Z"/>
<path id="z35698d13" d="M557 422Q557 421 558 419Q561 401 549 390Q531 374 510 367Q500 363 492 368Q486 372 491 385Q501 405 508 430C512 451 512 451 514 461Q515 478 518 511C519 533 519 533 520 544Q521 568 524 599C526 610 557 603 557 592Q556 562 555 537C555 514 555 514 555 502Q555 477 555 452C556 432 556 432 557 422Z"/>
<path id="z35698d14" d="M662 569Q665 539 670 513C673 486 673 486 675 472Q676 447 681 425C686 400 686 400 688 388Q692 377 695 369Q698 362 683 348Q658 332 640 328Q628 325 622 331Q616 338 621 349Q633 368 634 403C634 424 634 424 634 434Q634 457 634 482C633 507 633 507 633 520Q632 547 630 576C630 587 660 580 662 569Z"/>
<path id="z35698d15" d="M670 513Q712 503 752 498Q773 495 765 484Q755 470 733 465Q712 461 675 472C648 479 648 479 634 482Q592 492 555 502C530 508 530 508 518 511Q478 518 442 528Q427 531 446 544Q461 555 492 550Q504 547 520 544C543 539 543 539 555 537Q595 528 633 520C658 515 658 515 670 513Z"/>
<path id="z35698d16" d="M523 627Q568 612 830 586Q845 585 848 578Q852 569 839 559Q793 528 745 547Q708 556 662 569C641 574 641 574 630 576Q608 580 588 585Q572 586 557 592C535 597 535 597 524 599Q448 613 364 631Q348 632 361 645Q371 656 386 659Q402 662 414 658Q451 644 493 634C513 629 513 629 523 627Z"/>
<path id="z35698d17" d="M550 642Q541 633 523 627C513 623 495 624 493 634Q471 725 217 881Q198 892 221 892Q312 892 483 737C504 716 504 716 515 705Q537 683 550 673Q554 668 557 664C562 658 556 647 550 642Z"/>
<path id="z35698d18" d="M483 737Q508 818 470 884Q442 927 487 970Q488 971 491 973Q501 980 513 961Q540 922 633 824Q649 810 650 802Q651 788 632 800Q544 854 535 852Q529 848 529 830Q535 766 539 750Q543 731 531 719Q524 709 515 705C501 699 480 722 483 737Z"/>
<path id="z35698d19" d="M707 747Q774 703 809 688Q825 684 822 675Q818 661 802 642Q787 625 768 622Q755 622 755 639Q756 658 693 737C690 742 702 750 707 747Z"/>
<path id="z35698d20" d="M693 737Q657 707 620 671Q586 639 557 640Q553 640 550 642C543 645 550 660 557 664Q596 687 672 778Q772 883 806 885Q878 881 938 869Q968 865 965 855Q962 848 884 828Q773 793 707 747C698 740 698 740 693 737Z"/>
<defs>
	<clipPath id="z35698c1"><use xlink:href="#z35698d1"></use></clipPath>
	<clipPath id="z35698c2"><use xlink:href="#z35698d2"></use></clipPath>
	<clipPath id="z35698c3"><use xlink:href="#z35698d3"></use></clipPath>
	<clipPath id="z35698c4"><use xlink:href="#z35698d4"></use></clipPath>
	<clipPath id="z35698c5"><use xlink:href="#z35698d5"></use></clipPath>
	<clipPath id="z35698c6"><use xlink:href="#z35698d6"></use></clipPath>
	<clipPath id="z35698c7"><use xlink:href="#z35698d7"></use></clipPath>
	<clipPath id="z35698c8"><use xlink:href="#z35698d8"></use></clipPath>
	<clipPath id="z35698c9"><use xlink:href="#z35698d9"></use></clipPath>
	<clipPath id="z35698c10"><use xlink:href="#z35698d10"></use></clipPath>
	<clipPath id="z35698c11"><use xlink:href="#z35698d11"></use></clipPath>
	<clipPath id="z35698c12"><use xlink:href="#z35698d12"></use></clipPath>
	<clipPath id="z35698c13"><use xlink:href="#z35698d13"></use></clipPath>
	<clipPath id="z35698c14"><use xlink:href="#z35698d14"></use></clipPath>
	<clipPath id="z35698c15"><use xlink:href="#z35698d15"></use></clipPath>
	<clipPath id="z35698c16"><use xlink:href="#z35698d16"></use></clipPath>
	<clipPath id="z35698c17"><use xlink:href="#z35698d17"></use></clipPath>
	<clipPath id="z35698c18"><use xlink:href="#z35698d18"></use></clipPath>
	<clipPath id="z35698c19"><use xlink:href="#z35698d19"></use></clipPath>
	<clipPath id="z35698c20"><use xlink:href="#z35698d20"></use></clipPath>
</defs>
<path pathLength="3333" clip-path="url(#z35698c1)" d="M237 83L319 126L342 169"/>
<path pathLength="3333" clip-path="url(#z35698c2)" d="M58 313L127 318L373 260"/>
<path pathLength="3333" clip-path="url(#z35698c3)" d="M159 417L332 383"/>
<path pathLength="3333" clip-path="url(#z35698c4)" d="M156 528L335 496"/>
<path pathLength="3333" clip-path="url(#z35698c5)" d="M115 635L147 664L184 826"/>
<path pathLength="3333" clip-path="url(#z35698c6)" d="M158 635L299 622L311 645L274 722"/>
<path pathLength="3333" clip-path="url(#z35698c7)" d="M196 774L324 737"/>
<path pathLength="3333" clip-path="url(#z35698c8)" d="M523 80L642 130"/>
<path pathLength="3333" clip-path="url(#z35698c9)" d="M419 212L706 170L802 175"/>
<path pathLength="3333" clip-path="url(#z35698c10)" d="M480 262L501 296L382 418"/>
<path pathLength="3333" clip-path="url(#z35698c11)" d="M663 236L771 295L815 353"/>
<path pathLength="3333" clip-path="url(#z35698c12)" d="M429 449L783 398"/>
<path pathLength="3333" clip-path="url(#z35698c13)" d="M496 374L531 412L538 595"/>
<path pathLength="3333" clip-path="url(#z35698c14)" d="M626 337L663 373L638 570"/>
<path pathLength="3333" clip-path="url(#z35698c15)" d="M442 534L760 484"/>
<path pathLength="3333" clip-path="url(#z35698c16)" d="M364 637L769 566L845 573"/>
<path pathLength="3333" clip-path="url(#z35698c17)" d="M552 660L504 670L400 780L217 888"/>
<path pathLength="3333" clip-path="url(#z35698c18)" d="M513 715L501 885L513 923L643 801"/>
<path pathLength="3333" clip-path="url(#z35698c19)" d="M767 626L783 671L700 737"/>
<path pathLength="3333" clip-path="url(#z35698c20)" d="M559 650L803 842L957 857"/>
</svg>