<!--
AnimCJK 2016-2019 Copyright Francois Mizessyn - https://github.com/parsimonhi/animCJK
Derived from:
    MakeMeAHanzi project - https://github.com/skishore/makemeahanzi
    Arphic PL KaitiM GB font
    Arphic PL UKai font
You can redistribute and/or modify this file under the terms of the Arphic Public License
as published by Arphic Technology Co., Ltd.
You should have received a copy of this license along with this file.
If not, see http://ftp.gnu.org/non-gnu/chinese-fonts-truetype/LICENSE.
-->
<svg id="z35696" class="acjk" version="1.1" viewBox="0 0 1024 1024" xmlns="http://www.w3.org/2000/svg" xmlns:xlink="http://www.w3.org/1999/xlink">
<style>
<![CDATA[
@keyframes zk {
	to {
		stroke-dashoffset:0;
	}
}
svg.acjk path[clip-path] {
	--t:0.8s;
	animation:zk var(--t) linear forwards var(--d);
	stroke-dasharray:3337;
	stroke-dashoffset:3339;
	stroke-width:128;
	stroke-linecap:round;
	fill:none;
	stroke:#000;
}
svg.acjk path[id] {fill:#ccc;}
]]>
</style>
<path id="z35696d1" d="M273 158C290 171 310 186 330 204C338 210 348 215 359 214C365 213 370 208 373 200C375 190 373 174 366 157C358 137 324 122 265 112C254 110 247 111 244 113C240 115 239 120 241 129C242 135 253 144 273 158Z"/>
<path id="z35696d2" d="M63 333C54 334 49 337 48 343C46 349 49 356 61 364C84 380 113 385 141 375C207 349 283 325 370 309C380 307 385 303 386 299C386 290 380 282 369 278C349 270 333 270 319 274C190 308 105 328 63 333Z"/>
<path id="z35696d3" d="M178 437C159 442 157 449 173 456C191 464 223 461 269 447C283 442 299 437 317 431C327 427 332 424 334 423C338 418 338 413 336 409C330 402 320 396 305 398C289 399 259 415 223 425C208 428 193 432 178 437Z"/>
<path id="z35696d4" d="M182 537C163 542 160 550 177 556C195 562 228 558 271 545C285 540 299 535 315 530C323 527 328 524 331 522C334 517 335 512 332 509C327 502 317 499 301 499C296 498 270 507 222 525C209 529 196 532 182 537Z"/>
<path id="z35696d5" d="M157 657C150 654 136 651 117 648C108 646 105 647 103 651C99 655 100 661 106 672C123 702 138 744 150 798C153 814 158 828 168 838C180 850 187 852 190 843C192 834 194 822 192 809C189 788 189 788 187 778C178 725 171 693 170 680C168 671 165 660 157 657Z"/>
<path id="z35696d6" d="M314 752C324 709 337 681 349 668C362 652 359 640 347 633C335 626 322 617 306 608C297 603 278 611 247 626C210 642 179 650 157 657C149 660 162 683 170 680C198 670 226 662 253 656C267 652 276 652 282 658C285 661 286 671 282 691C278 709 273 729 268 751C265 766 311 767 314 752Z"/>
<path id="z35696d7" d="M192 809C196 809 202 808 209 807C228 802 273 789 328 781C334 779 338 777 338 771C338 766 330 760 314 752C301 744 283 746 268 751C255 755 209 771 187 778C177 782 182 809 192 809Z"/>
<path id="z35696d8" d="M485 123C509 158 529 181 547 189C553 192 562 190 568 183C572 176 574 168 573 159C569 132 540 117 500 94C492 89 483 87 478 89C474 89 472 92 473 100C473 106 477 113 485 123Z"/>
<path id="z35696d9" d="M713 84C703 101 686 129 661 167C654 176 659 182 668 178C686 168 715 150 753 121C764 112 774 102 788 95C800 88 802 79 796 71C786 60 774 52 760 46C744 39 734 36 727 38C720 38 718 42 721 52C723 61 719 72 713 84Z"/>
<path id="z35696d10" d="M621 261C720 238 771 220 776 217C780 213 780 208 778 205C774 198 766 194 751 191C736 188 721 190 706 197C641 222 570 240 493 252C475 254 471 260 486 269C502 279 532 281 582 270C608 264 608 264 621 261Z"/>
<path id="z35696d11" d="M628 401C630 381 631 363 633 347C635 324 635 324 636 313C636 303 645 283 637 274C633 269 627 264 621 261C610 254 580 257 582 270C582 272 585 291 587 327C588 348 588 348 588 358C588 372 588 389 589 410C589 423 628 414 628 401Z"/>
<path id="z35696d12" d="M633 347C656 341 681 334 708 328C726 323 737 319 740 316C743 311 744 307 742 304C739 298 731 295 717 292C703 289 676 301 636 313C603 322 603 322 587 327C567 332 546 333 524 338C507 341 504 346 518 354C534 364 559 365 588 358C618 351 618 351 633 347Z"/>
<path id="z35696d13" d="M647 426C697 415 752 404 811 397C815 396 826 396 826 388C825 377 805 367 792 365C764 360 698 384 628 401C602 407 602 407 589 410C564 415 508 423 419 438C404 440 402 445 414 454C430 466 445 471 461 467C507 455 559 444 618 432C637 428 637 428 647 426Z"/>
<path id="z35696d14" d="M528 532C537 528 566 518 586 515C592 513 597 512 599 510C601 505 599 500 595 496C571 477 548 458 537 469C512 490 476 524 405 556C400 558 401 563 405 564C414 565 475 551 495 544C517 536 517 536 528 532Z"/>
<path id="z35696d15" d="M699 580C702 579 748 567 843 549C848 548 856 547 859 539C861 532 851 526 839 521C815 511 780 515 730 534C717 538 707 543 695 547C666 556 666 556 652 560C621 569 584 579 553 586C520 593 520 593 504 596C470 602 436 607 402 615C386 618 384 623 398 633C415 645 437 649 461 643C473 639 488 635 505 631C536 622 536 622 551 618C582 609 618 599 658 590C685 583 685 583 699 580Z"/>
<path id="z35696d16" d="M553 586C553 573 557 556 554 552C549 545 540 539 528 532C518 526 491 533 495 544C501 558 503 575 504 596C505 619 505 619 505 631C505 649 506 672 506 698C506 723 506 723 506 736C506 804 505 844 498 857C497 857 476 855 435 852C428 851 424 852 425 856C425 860 429 864 435 869C465 893 489 915 509 933C515 938 522 935 529 927C551 897 558 862 555 824C552 798 552 765 550 727C549 720 549 713 549 706C549 687 549 687 549 678C549 657 549 637 551 618C552 597 552 597 553 586Z"/>
<path id="z35696d17" d="M506 698C417 739 372 759 371 763C369 767 372 773 380 781C387 789 398 797 410 801C413 802 425 800 438 790C470 761 492 745 506 736C535 716 535 716 549 706C564 695 598 672 617 658C623 653 620 648 614 648C609 648 588 659 549 678C520 691 520 691 506 698Z"/>
<path id="z35696d18" d="M725 774C799 896 866 973 942 988C958 991 969 975 966 954C962 931 957 874 960 778C960 769 958 764 954 763C950 762 947 766 944 776C936 798 928 819 921 841C911 869 901 882 891 882C866 880 820 836 761 747C753 735 748 724 742 712C718 665 709 625 699 580C696 569 696 558 695 547C691 519 694 498 701 480C705 468 694 454 672 440C660 433 653 428 647 426C638 422 620 422 618 432C617 434 616 436 619 441C630 457 640 480 644 510C646 526 649 536 652 560C653 570 655 580 658 590C663 614 676 675 709 742C714 752 718 763 725 774Z"/>
<path id="z35696d19" d="M709 742C683 760 672 767 599 814C591 819 593 825 603 825C631 822 673 805 725 774C737 766 749 757 761 747C803 709 835 676 857 659C864 653 866 645 860 636C842 609 825 597 811 596C804 595 801 599 800 608C796 638 782 670 742 712C731 722 721 733 709 742Z"/>
<path id="z35696d20" d="M852 459C868 472 885 488 902 505C908 511 916 514 925 514C931 513 934 510 937 503C939 496 938 485 934 469C931 458 920 447 904 440C865 423 841 416 832 421C828 422 827 428 829 435C830 439 838 446 852 459Z"/>
<defs>
	<clipPath id="z35696c1"><use xlink:href="#z35696d1"/></clipPath>
	<clipPath id="z35696c2"><use xlink:href="#z35696d2"/></clipPath>
	<clipPath id="z35696c3"><use xlink:href="#z35696d3"/></clipPath>
	<clipPath id="z35696c4"><use xlink:href="#z35696d4"/></clipPath>
	<clipPath id="z35696c5"><use xlink:href="#z35696d5"/></clipPath>
	<clipPath id="z35696c6"><use xlink:href="#z35696d6"/></clipPath>
	<clipPath id="z35696c7"><use xlink:href="#z35696d7"/></clipPath>
	<clipPath id="z35696c8"><use xlink:href="#z35696d8"/></clipPath>
	<clipPath id="z35696c9"><use xlink:href="#z35696d9"/></clipPath>
	<clipPath id="z35696c10"><use xlink:href="#z35696d10"/></clipPath>
	<clipPath id="z35696c11"><use xlink:href="#z35696d11"/></clipPath>
	<clipPath id="z35696c12"><use xlink:href="#z35696d12"/></clipPath>
	<clipPath id="z35696c13"><use xlink:href="#z35696d13"/></clipPath>
	<clipPath id="z35696c14"><use xlink:href="#z35696d14"/></clipPath>
	<clipPath id="z35696c15"><use xlink:href="#z35696d15"/></clipPath>
	<clipPath id="z35696c16"><use xlink:href="#z35696d16"/></clipPath>
	<clipPath id="z35696c17"><use xlink:href="#z35696d17"/></clipPath>
	<clipPath id="z35696c18"><use xlink:href="#z35696d18"/></clipPath>
	<clipPath id="z35696c19"><use xlink:href="#z35696d19"/></clipPath>
	<clipPath id="z35696c20"><use xlink:href="#z35696d20"/></clipPath>
</defs>
<path style="--d:1s;" pathLength="3333" clip-path="url(#z35696c1)" d="M248 121L368 203"/>
<path style="--d:2s;" pathLength="3333" clip-path="url(#z35696c2)" d="M55 345L111 352L380 296"/>
<path style="--d:3s;" pathLength="3333" clip-path="url(#z35696c3)" d="M168 448L329 416"/>
<path style="--d:4s;" pathLength="3333" clip-path="url(#z35696c4)" d="M176 548L329 513"/>
<path style="--d:5s;" pathLength="3333" clip-path="url(#z35696c5)" d="M108 651L145 692L179 844"/>
<path style="--d:6s;" pathLength="3333" clip-path="url(#z35696c6)" d="M163 659L271 633L316 648L280 750"/>
<path style="--d:7s;" pathLength="3333" clip-path="url(#z35696c7)" d="M195 802L330 770"/>
<path style="--d:8s;" pathLength="3333" clip-path="url(#z35696c8)" d="M481 97L558 184"/>
<path style="--d:9s;" pathLength="3333" clip-path="url(#z35696c9)" d="M728 45L756 82L665 172"/>
<path style="--d:10s;" pathLength="3333" clip-path="url(#z35696c10)" d="M486 262L773 207"/>
<path style="--d:11s;" pathLength="3333" clip-path="url(#z35696c11)" d="M 593,272 615,285 601,408"/>
<path style="--d:12s;" pathLength="3333" clip-path="url(#z35696c12)" d="M519 346L737 306"/>
<path style="--d:13s;" pathLength="3333" clip-path="url(#z35696c13)" d="M414 445L820 382"/>
<path style="--d:14s;" pathLength="3333" clip-path="url(#z35696c14)" d="M 544,474 552,501 412,558"/>
<path style="--d:15s;" pathLength="3333" clip-path="url(#z35696c15)" d="M 397,623 851,538"/>
<path style="--d:16s;" pathLength="3333" clip-path="url(#z35696c16)" d="M503 545L530 576L529 850L503 895L434 858"/>
<path style="--d:17s;" pathLength="3333" clip-path="url(#z35696c17)" d="M377 764L428 764L611 654"/>
<path style="--d:18s;" pathLength="3333" clip-path="url(#z35696c18)" d="M625 436L668 473L679 595L719 713L827 876L875 916L934 934L952 772"/>
<path style="--d:19s;" pathLength="3333" clip-path="url(#z35696c19)" d="M808 606L827 644L778 703L607 819"/>
<path style="--d:20s;" pathLength="3333" clip-path="url(#z35696c20)" d="M838 430L903 469L926 510"/>
</svg>