<!--
AnimCJK 2016-2026 Copyright FM-SH - https://github.com/parsimonhi/animCJK
Derived from:
    MakeMeAHanzi project - https://github.com/skishore/makemeahanzi
    Arphic PL KaitiM GB font
    Arphic PL KaitiM Big5 font
You can redistribute and/or modify this file under the terms of the Arphic Public License
as published by Arphic Technology Co., Ltd.
You should have received a copy of this license along with this file.
If not, see https://ftp.gnu.org/non-gnu/chinese-fonts-truetype/LICENSE.
-->
<svg id="z35728" class="acjk" viewBox="0 0 1024 1024" xmlns="http://www.w3.org/2000/svg">
<style>
<![CDATA[
@keyframes zk {
	to {
		stroke-dashoffset:0;
	}
}
svg.acjk path[clip-path] {
	--t:0.8s;
	animation:zk var(--t) linear forwards var(--d);
	stroke-dasharray:3337;
	stroke-dashoffset:3339;
	stroke-width:128;
	stroke-linecap:round;
	fill:none;
	stroke:#000;
}
svg.acjk path[id] {fill:#ccc;}
]]>
</style>
<path id="z35728d1" d="M255 242C281 208 304 166 334 137C339 130 341 124 339 116C336 108 327 96 311 84C281 61 251 59 262 88C272 116 255 165 196 252C168 292 137 327 99 369C74 394 90 400 121 379C146 363 186 330 234 269C248 251 248 251 255 242Z"/>
<path id="z35728d2" d="M276 476C282 376 282 322 286 300C290 277 273 254 255 242C245 236 230 258 234 269C250 303 251 362 229 460C218 504 219 538 243 563C251 571 259 568 265 555C272 534 273 513 275 492C276 481 276 481 276 476Z"/>
<path id="z35728d3" d="M403 119C415 126 428 136 443 146C449 150 456 152 465 151C469 150 472 146 474 140C474 133 473 122 466 110C459 97 433 90 394 88C382 87 373 88 379 101C381 105 389 111 403 119Z"/>
<path id="z35728d4" d="M402 225C456 211 485 203 488 200C500 186 479 178 464 176C450 173 436 176 423 183C406 190 389 195 372 200C351 205 330 210 308 214C291 216 288 218 301 226C316 234 339 241 367 234C390 228 390 228 402 225Z"/>
<path id="z35728d5" d="M412 442C412 421 413 405 415 386C416 364 416 364 417 353C418 335 419 322 420 307C421 284 421 284 422 272C423 243 431 242 402 225C392 219 363 223 367 234C371 244 374 257 375 286C375 304 375 308 375 319C375 350 375 350 375 365C375 386 375 386 375 397C375 434 375 434 375 452C375 465 412 455 412 442Z"/>
<path id="z35728d6" d="M420 307C462 295 482 287 484 286C489 279 490 269 462 265C451 263 432 268 422 272C391 281 391 281 375 286C359 290 341 296 323 300C307 302 304 309 317 315C334 323 354 324 375 319C405 311 405 311 420 307Z"/>
<path id="z35728d7" d="M415 386C465 372 490 363 492 362C497 355 498 345 470 341C459 339 442 345 417 353C389 361 389 361 375 365C360 369 345 373 331 376C315 379 312 384 325 391C338 397 356 402 375 397C402 390 402 390 415 386Z"/>
<path id="z35728d8" d="M375 452C343 460 310 466 276 476C271 478 270 490 275 492C287 498 306 501 329 495C389 477 451 466 516 466C530 465 543 455 523 442C509 432 494 428 477 427C449 426 429 437 412 442C387 449 387 449 375 452Z"/>
<path id="z35728d9" d="M569 179C586 158 604 127 631 82C640 65 644 58 628 47C609 34 594 31 581 36C577 37 575 40 578 47C587 75 574 112 540 168C530 183 514 208 488 239C484 242 484 245 490 245C506 242 527 227 549 202C562 187 562 187 569 179Z"/>
<path id="z35728d10" d="M602 427C602 415 593 283 601 237C603 223 604 215 599 210C582 191 573 181 569 179C561 173 543 194 549 202C571 224 570 302 554 411C551 429 548 450 565 482C566 485 582 510 593 483C597 472 600 460 601 448C602 434 602 434 602 427Z"/>
<path id="z35728d11" d="M707 86C717 94 728 104 739 114C745 120 752 121 759 121C763 120 768 118 770 112C771 105 770 94 765 81C760 68 738 59 703 54C689 51 682 53 686 65C687 69 695 76 707 86Z"/>
<path id="z35728d12" d="M724 188C748 182 773 176 799 170C815 166 825 162 828 160C841 146 815 138 805 136C790 133 776 135 763 141C744 148 724 154 703 160C680 166 655 170 628 174C611 176 608 182 622 190C641 201 664 200 690 195C713 190 713 190 724 188Z"/>
<path id="z35728d13" d="M736 398C736 377 737 362 739 344C740 323 740 323 741 313C742 296 743 284 744 268C745 246 745 246 746 235C747 205 756 208 724 188C714 182 688 184 690 195C694 211 697 224 698 248C698 248 698 269 699 280C699 294 699 307 699 322C699 343 699 343 699 354C699 389 699 389 699 406C699 419 736 411 736 398Z"/>
<path id="z35728d14" d="M744 268C781 257 815 252 820 246C827 236 820 227 798 224C783 221 767 229 746 235C714 244 714 244 698 248C680 252 661 256 643 260C628 262 625 269 637 275C654 284 676 285 699 280C729 272 729 272 744 268Z"/>
<path id="z35728d15" d="M739 344C796 329 830 323 836 318C848 305 823 297 814 296C803 293 780 304 741 313C713 319 713 319 699 322C682 325 665 329 648 332C631 334 629 340 641 347C658 356 678 359 699 354C726 347 726 347 739 344Z"/>
<path id="z35728d16" d="M699 406C668 412 636 417 602 427C595 428 594 445 601 448C611 454 634 454 668 446C714 433 779 421 865 418C882 417 926 413 895 391C865 370 833 370 801 380C782 385 761 392 736 398C711 403 711 403 699 406Z"/>
<path id="z35728d17" d="M558 554C560 547 560 536 558 525C556 514 548 505 534 498C502 481 481 475 472 478C469 478 468 482 468 490C467 492 523 558 523 558C530 567 556 566 558 554Z"/>
<path id="z35728d18" d="M523 558C437 567 280 587 153 601C138 602 134 607 147 621C155 630 167 637 180 641C193 645 207 646 219 643C371 602 574 581 827 581C843 581 857 581 873 582C909 582 904 559 888 547C851 517 821 508 795 514C734 526 655 542 558 554C535 557 535 557 523 558Z"/>
<path id="z35728d19" d="M399 652C380 653 375 660 390 669C406 678 438 682 481 676C519 670 558 664 598 656C618 652 630 647 634 645C648 632 628 622 611 618C596 614 581 616 566 621C542 628 488 643 399 652Z"/>
<path id="z35728d20" d="M415 728C396 729 392 735 406 745C422 755 453 758 495 752C527 746 562 739 598 734C616 731 627 728 630 725C643 708 621 701 607 698C590 694 577 696 562 701C541 707 491 721 415 728Z"/>
<path id="z35728d21" d="M377 804C368 800 353 795 341 797C320 799 321 806 330 820C347 848 362 879 374 930C377 944 382 956 392 966C404 978 411 980 414 971C416 962 418 952 416 941C412 921 412 921 410 911C401 869 397 848 395 833C393 822 388 808 377 804Z"/>
<path id="z35728d22" d="M665 886C681 852 700 840 717 829C729 820 731 805 722 795C713 784 691 772 660 755C649 748 636 748 623 753C562 774 480 792 377 804C366 806 384 835 395 833C530 809 530 809 598 797C613 794 625 795 632 803C637 808 630 829 613 881C607 897 657 902 665 886Z"/>
<path id="z35728d23" d="M416 941C436 942 468 929 678 922C705 919 683 899 665 886C651 875 630 878 613 881C483 902 433 906 410 911C400 913 406 941 416 941Z"/>
<defs>
	<clipPath id="z35728c1"><use href="#z35728d1"/></clipPath>
	<clipPath id="z35728c2"><use href="#z35728d2"/></clipPath>
	<clipPath id="z35728c3"><use href="#z35728d3"/></clipPath>
	<clipPath id="z35728c4"><use href="#z35728d4"/></clipPath>
	<clipPath id="z35728c5"><use href="#z35728d5"/></clipPath>
	<clipPath id="z35728c6"><use href="#z35728d6"/></clipPath>
	<clipPath id="z35728c7"><use href="#z35728d7"/></clipPath>
	<clipPath id="z35728c8"><use href="#z35728d8"/></clipPath>
	<clipPath id="z35728c9"><use href="#z35728d9"/></clipPath>
	<clipPath id="z35728c10"><use href="#z35728d10"/></clipPath>
	<clipPath id="z35728c11"><use href="#z35728d11"/></clipPath>
	<clipPath id="z35728c12"><use href="#z35728d12"/></clipPath>
	<clipPath id="z35728c13"><use href="#z35728d13"/></clipPath>
	<clipPath id="z35728c14"><use href="#z35728d14"/></clipPath>
	<clipPath id="z35728c15"><use href="#z35728d15"/></clipPath>
	<clipPath id="z35728c16"><use href="#z35728d16"/></clipPath>
	<clipPath id="z35728c17"><use href="#z35728d17"/></clipPath>
	<clipPath id="z35728c18"><use href="#z35728d18"/></clipPath>
	<clipPath id="z35728c19"><use href="#z35728d19"/></clipPath>
	<clipPath id="z35728c20"><use href="#z35728d20"/></clipPath>
	<clipPath id="z35728c21"><use href="#z35728d21"/></clipPath>
	<clipPath id="z35728c22"><use href="#z35728d22"/></clipPath>
	<clipPath id="z35728c23"><use href="#z35728d23"/></clipPath>
</defs>
<path style="--d:1s;" pathLength="3333" clip-path="url(#z35728c1)" d="M267 75L297 131L204 275L92 384"/>
<path style="--d:2s;" pathLength="3333" clip-path="url(#z35728c2)" d="M251 245L265 301L250 563"/>
<path style="--d:3s;" pathLength="3333" clip-path="url(#z35728c3)" d="M384 94L470 140"/>
<path style="--d:4s;" pathLength="3333" clip-path="url(#z35728c4)" d="M305 221L484 193"/>
<path style="--d:5s;" pathLength="3333" clip-path="url(#z35728c5)" d="M373 230L399 260L386 455"/>
<path style="--d:6s;" pathLength="3333" clip-path="url(#z35728c6)" d="M319 306L481 281"/>
<path style="--d:7s;" pathLength="3333" clip-path="url(#z35728c7)" d="M323 382L488 353"/>
<path style="--d:8s;" pathLength="3333" clip-path="url(#z35728c8)" d="M274 483L458 448L528 457"/>
<path style="--d:9s;" pathLength="3333" clip-path="url(#z35728c9)" d="M585 41L607 80L493 240"/>
<path style="--d:10s;" pathLength="3333" clip-path="url(#z35728c10)" d="M564 182L582 230L580 491"/>
<path style="--d:11s;" pathLength="3333" clip-path="url(#z35728c11)" d="M690 59L761 115"/>
<path style="--d:12s;" pathLength="3333" clip-path="url(#z35728c12)" d="M620 180L826 148"/>
<path style="--d:13s;" pathLength="3333" clip-path="url(#z35728c13)" d="M697 193L722 226L718 409"/>
<path style="--d:14s;" pathLength="3333" clip-path="url(#z35728c14)" d="M635 266L818 236"/>
<path style="--d:15s;" pathLength="3333" clip-path="url(#z35728c15)" d="M642 340L833 310"/>
<path style="--d:16s;" pathLength="3333" clip-path="url(#z35728c16)" d="M600 437L900 402"/>
<path style="--d:17s;" pathLength="3333" clip-path="url(#z35728c17)" d="M476 485L548 560"/>
<path style="--d:18s;" pathLength="3333" clip-path="url(#z35728c18)" d="M144 608L212 619L806 546L896 562"/>
<path style="--d:19s;" pathLength="3333" clip-path="url(#z35728c19)" d="M389 661L632 634"/>
<path style="--d:20s;" pathLength="3333" clip-path="url(#z35728c20)" d="M405 736L629 712"/>
<path style="--d:21s;" pathLength="3333" clip-path="url(#z35728c21)" d="M329 804L365 827L404 972"/>
<path style="--d:22s;" pathLength="3333" clip-path="url(#z35728c22)" d="M378 809L637 774L679 815L621 890"/>
<path style="--d:23s;" pathLength="3333" clip-path="url(#z35728c23)" d="M410 923L626 901L685 913"/>
</svg>