<!--
AnimCJK 2016-2026 Copyright FM-SH - https://github.com/parsimonhi/animCJK
Derived from:
    MakeMeAHanzi project - https://github.com/skishore/makemeahanzi
    Arphic PL KaitiM GB font
    Arphic PL KaitiM Big5 font
You can redistribute and/or modify this file under the terms of the Arphic Public License
as published by Arphic Technology Co., Ltd.
You should have received a copy of this license along with this file.
If not, see https://ftp.gnu.org/non-gnu/chinese-fonts-truetype/LICENSE.
-->
<svg id="z35962" class="acjk" viewBox="0 0 1024 1024" xmlns="http://www.w3.org/2000/svg">
<style>
<![CDATA[
@keyframes zk {
	to {
		stroke-dashoffset:0;
	}
}
svg.acjk path[clip-path] {
	--t:0.8s;
	animation:zk var(--t) linear forwards var(--d);
	stroke-dasharray:3337;
	stroke-dashoffset:3339;
	stroke-width:128;
	stroke-linecap:round;
	fill:none;
	stroke:#000;
}
svg.acjk path[id] {fill:#ccc;}
]]>
</style>
<path id="z35962d1" d="M251 227C277 216 364 173 423 154C444 146 449 129 432 118C417 108 394 101 364 93C353 89 343 87 335 90C329 91 328 97 329 106C329 128 280 165 190 230C166 248 170 255 192 249C202 246 212 242 226 237C243 230 243 230 251 227Z"/>
<path id="z35962d2" d="M141 327C152 339 162 354 174 371C180 379 188 384 198 385C204 385 209 382 213 375C217 367 217 354 215 336C213 326 206 315 191 307C155 286 132 277 124 281C120 282 119 287 119 295C119 301 127 311 141 327Z"/>
<path id="z35962d3" d="M226 237C243 258 266 301 296 306C319 309 313 278 308 265C302 252 283 240 251 227C243 224 221 230 226 237Z"/>
<path id="z35962d4" d="M280 418C340 374 412 314 476 278C490 269 496 259 481 249C463 236 448 227 434 222C425 219 415 221 412 231C388 291 241 413 113 489C79 509 87 513 119 506C162 497 233 451 255 436C272 424 272 424 280 418Z"/>
<path id="z35962d5" d="M363 589C373 636 358 716 346 756C338 780 327 797 314 802C302 806 280 800 258 795C224 787 200 785 226 811C258 843 283 867 297 888C304 900 313 904 323 903C335 900 351 891 363 872C399 811 417 727 414 646C411 583 394 545 386 530C359 481 325 444 280 418C271 413 246 431 255 436C263 442 271 448 279 455C294 468 308 481 320 497C328 508 334 516 340 527C349 546 358 567 363 589Z"/>
<path id="z35962d6" d="M279 455C248 519 193 551 125 595C101 610 106 616 132 610C215 593 279 534 320 497C327 490 283 447 279 455Z"/>
<path id="z35962d7" d="M340 527C294 607 223 682 112 756C81 777 82 797 121 780C235 730 332 635 363 589C369 581 346 519 340 527Z"/>
<path id="z35962d8" d="M717 396C747 391 797 387 825 386C854 384 902 376 865 350C842 333 819 324 790 328C768 330 761 333 717 345C682 354 682 354 665 358C576 380 523 390 454 406C441 408 440 415 451 425C472 445 501 442 519 438C547 431 640 406 661 404C698 399 698 399 717 396Z"/>
<path id="z35962d9" d="M717 345C717 265 719 205 733 168C740 146 729 131 692 115C667 104 649 98 637 104C624 108 623 118 636 134C650 152 659 173 661 197C661 207 663 261 665 358C667 459 667 459 668 509C669 584 671 676 672 783C672 820 635 826 587 818C544 810 545 817 580 840C623 867 649 892 661 910C674 930 687 941 697 941C707 941 716 929 725 905C736 873 738 832 734 782C722 653 717 524 717 396C717 362 717 362 717 345Z"/>
<path id="z35962d10" d="M661 404C616 532 531 621 438 721C429 730 431 745 455 732C535 686 616 594 668 509C716 429 696 317 661 404Z"/>
<defs>
	<clipPath id="z35962c1"><use href="#z35962d1"/></clipPath>
	<clipPath id="z35962c2"><use href="#z35962d2"/></clipPath>
	<clipPath id="z35962c3"><use href="#z35962d3"/></clipPath>
	<clipPath id="z35962c4"><use href="#z35962d4"/></clipPath>
	<clipPath id="z35962c5"><use href="#z35962d5"/></clipPath>
	<clipPath id="z35962c6"><use href="#z35962d6"/></clipPath>
	<clipPath id="z35962c7"><use href="#z35962d7"/></clipPath>
	<clipPath id="z35962c8"><use href="#z35962d8"/></clipPath>
	<clipPath id="z35962c9"><use href="#z35962d9"/></clipPath>
	<clipPath id="z35962c10"><use href="#z35962d10"/></clipPath>
</defs>
<path style="--d:1s;" pathLength="3333" clip-path="url(#z35962c1)" d="M337 93L378 153L181 244"/>
<path style="--d:2s;" pathLength="3333" clip-path="url(#z35962c2)" d="M126 287L185 336L201 381"/>
<path style="--d:3s;" pathLength="3333" clip-path="url(#z35962c3)" d="M234 234L302 301"/>
<path style="--d:4s;" pathLength="3333" clip-path="url(#z35962c4)" d="M423 223L437 268L227 434L102 504"/>
<path style="--d:5s;" pathLength="3333" clip-path="url(#z35962c5)" d="M260 429L323 473L369 542L388 686L336 841L306 851L222 798"/>
<path style="--d:6s;" pathLength="3333" clip-path="url(#z35962c6)" d="M281 462L287 495L257 523L119 608"/>
<path style="--d:7s;" pathLength="3333" clip-path="url(#z35962c7)" d="M341 535L336 582L269 657L96 778"/>
<path style="--d:8s;" pathLength="3333" clip-path="url(#z35962c8)" d="M448 413L786 358L871 364"/>
<path style="--d:9s;" pathLength="3333" clip-path="url(#z35962c9)" d="M634 111L696 167L703 800L672 893L561 821"/>
<path style="--d:10s;" pathLength="3333" clip-path="url(#z35962c10)" d="M682 379L624 533L442 731"/>
</svg>