<!--
AnimCJK 2016-2019 Copyright Francois Mizessyn - https://github.com/parsimonhi/animCJK
Derived from:
    MakeMeAHanzi project - https://github.com/skishore/makemeahanzi
    Arphic PL KaitiM GB font
    Arphic PL UKai font
You can redistribute and/or modify this file under the terms of the Arphic Public License
as published by Arphic Technology Co., Ltd.
You should have received a copy of this license along with this file.
If not, see http://ftp.gnu.org/non-gnu/chinese-fonts-truetype/LICENSE.
-->
<svg id="z35998" class="acjk" version="1.1" viewBox="0 0 1024 1024" xmlns="http://www.w3.org/2000/svg" xmlns:xlink="http://www.w3.org/1999/xlink">
<style>
<![CDATA[
@keyframes zk {
	to {
		stroke-dashoffset:0;
	}
}
svg.acjk path[clip-path] {
	--t:0.8s;
	animation:zk var(--t) linear forwards var(--d);
	stroke-dasharray:3337;
	stroke-dashoffset:3339;
	stroke-width:128;
	stroke-linecap:round;
	fill:none;
	stroke:#000;
}
svg.acjk path[id] {fill:#ccc;}
]]>
</style>
<path id="z35998d1" d="M538 277C542 241 546 206 550 174C552 153 552 153 553 143C554 130 558 107 561 100C563 93 565 87 567 82C568 75 564 65 550 56C527 41 505 36 490 33C479 30 471 32 466 38C461 42 460 51 467 61C481 82 492 156 494 287C494 302 535 292 538 277Z"/>
<path id="z35998d2" d="M550 174C572 178 615 174 677 160C715 151 734 144 736 143C741 138 743 132 740 127C735 120 723 114 704 111C689 108 655 118 601 133C585 137 569 139 553 143C543 145 540 172 550 174Z"/>
<path id="z35998d3" d="M367 305C360 298 349 292 336 288C329 285 321 284 315 288C309 291 310 297 313 306C324 337 334 385 334 450C333 548 326 606 322 625C312 661 319 694 345 727C351 735 359 736 367 727C373 718 377 708 378 698C380 672 380 672 381 659C381 653 382 622 382 568C382 548 382 548 382 538C382 505 383 477 383 453C383 436 383 436 383 427C383 382 383 356 386 339C389 326 377 313 367 305Z"/>
<path id="z35998d4" d="M685 678C685 686 690 695 696 707C707 728 715 738 722 738C732 736 742 724 755 700C764 680 772 663 770 648C747 473 749 363 780 316C788 303 788 293 782 287C761 268 732 251 695 237C683 232 668 233 651 241C618 254 580 267 538 277C509 284 509 284 494 287C449 297 407 301 367 305C354 308 373 339 386 339C394 339 402 338 409 337C495 314 569 298 632 287C654 283 667 286 676 297C687 312 693 344 694 396C695 522 695 605 690 643C688 655 683 666 685 678Z"/>
<path id="z35998d5" d="M383 453C389 453 398 455 410 453C484 439 548 426 602 418C618 415 623 409 617 400C609 389 596 383 579 380C565 377 499 393 383 427C375 430 374 453 383 453Z"/>
<path id="z35998d6" d="M382 568C386 568 393 568 401 567C481 554 552 544 613 537C629 535 634 529 629 520C622 509 610 502 592 499C575 496 552 497 523 505C472 517 425 528 382 538C372 540 372 568 382 568Z"/>
<path id="z35998d7" d="M378 698Q385 699 393 698Q486 682 685 678C697 678 698 651 690 643Q686 639 678 633Q660 621 625 628Q490 650 381 659C368 659 365 698 378 698Z"/>
<path id="z35998d8" d="M422 751C400 805 325 873 195 952C178 961 180 964 200 965C254 966 331 929 430 849C441 840 461 822 493 798C501 791 505 784 505 776C504 767 494 759 477 750C458 740 444 736 435 737C429 737 425 742 422 751Z"/>
<path id="z35998d9" d="M607 766C646 812 692 866 741 932C751 946 760 957 771 961C776 962 782 958 789 953C798 944 800 925 795 893C788 850 727 798 611 733C604 729 600 730 599 740C597 748 600 758 607 766Z"/>
<defs>
	<clipPath id="z35998c1"><use xlink:href="#z35998d1"/></clipPath>
	<clipPath id="z35998c2"><use xlink:href="#z35998d2"/></clipPath>
	<clipPath id="z35998c3"><use xlink:href="#z35998d3"/></clipPath>
	<clipPath id="z35998c4"><use xlink:href="#z35998d4"/></clipPath>
	<clipPath id="z35998c5"><use xlink:href="#z35998d5"/></clipPath>
	<clipPath id="z35998c6"><use xlink:href="#z35998d6"/></clipPath>
	<clipPath id="z35998c7"><use xlink:href="#z35998d7"/></clipPath>
	<clipPath id="z35998c8"><use xlink:href="#z35998d8"/></clipPath>
	<clipPath id="z35998c9"><use xlink:href="#z35998d9"/></clipPath>
</defs>
<path style="--d:1s;" pathLength="3333" clip-path="url(#z35998c1)" d="M469 41L524 89L505 284"/>
<path style="--d:2s;" pathLength="3333" clip-path="url(#z35998c2)" d="M559 167L732 127"/>
<path style="--d:3s;" pathLength="3333" clip-path="url(#z35998c3)" d="M319 295L355 346L356 729"/>
<path style="--d:4s;" pathLength="3333" clip-path="url(#z35998c4)" d="M376 307L421 317L678 262L737 308L714 733"/>
<path style="--d:5s;" pathLength="3333" clip-path="url(#z35998c5)" d="M393 445L615 405"/>
<path style="--d:6s;" pathLength="3333" clip-path="url(#z35998c6)" d="M390 560L626 524"/>
<path style="--d:7s;" pathLength="3333" clip-path="url(#z35998c7)" d="M382 690L687 659"/>
<path style="--d:8s;" pathLength="3333" clip-path="url(#z35998c8)" d="M 435,746 458,786 316,900 193,960"/>
<path style="--d:9s;" pathLength="3333" clip-path="url(#z35998c9)" d="M607 737L740 869L784 953"/>
</svg>