<!--
AnimCJK 2016-2019 Copyright Francois Mizessyn - https://github.com/parsimonhi/animCJK
Derived from:
    MakeMeAHanzi project - https://github.com/skishore/makemeahanzi
    Arphic PL KaitiM GB font
    Arphic PL UKai font
You can redistribute and/or modify this file under the terms of the Arphic Public License
as published by Arphic Technology Co., Ltd.
You should have received a copy of this license along with this file.
If not, see http://ftp.gnu.org/non-gnu/chinese-fonts-truetype/LICENSE.
-->
<svg id="z36015" class="acjk" version="1.1" viewBox="0 0 1024 1024" xmlns="http://www.w3.org/2000/svg" xmlns:xlink="http://www.w3.org/1999/xlink">
<style>
<![CDATA[
@keyframes zk {
	to {
		stroke-dashoffset:0;
	}
}
svg.acjk path[clip-path] {
	--t:0.8s;
	animation:zk var(--t) linear forwards var(--d);
	stroke-dasharray:3337;
	stroke-dashoffset:3339;
	stroke-width:128;
	stroke-linecap:round;
	fill:none;
	stroke:#000;
}
svg.acjk path[id] {fill:#ccc;}
]]>
</style>
<path id="z36015d1" d="M184 144C178 138 167 133 154 128C147 125 141 124 134 127C129 128 130 134 133 144C134 149 136 155 139 161C152 190 152 389 150 415C148 435 144 463 141 481C134 515 140 546 162 575C168 583 175 583 182 575C186 569 190 563 191 557C195 546 195 534 195 522C195 514 196 478 196 416C196 393 196 393 196 381C196 352 197 327 197 306C197 287 197 287 197 277C197 222 198 192 199 186C199 180 200 175 200 172C200 161 193 150 184 144Z"/>
<path id="z36015d2" d="M334 543C334 549 338 556 343 565C352 584 359 594 366 594C376 593 385 581 397 560C406 542 412 527 411 513C403 445 401 358 404 254C404 223 413 195 430 170C437 159 438 150 433 145C415 128 389 114 359 101C349 96 323 107 278 122C233 136 200 140 184 144C173 146 189 172 200 172C206 172 212 172 218 171C292 150 331 143 337 150C349 165 353 200 353 252C351 402 349 494 337 520C334 527 332 535 334 543Z"/>
<path id="z36015d3" d="M197 306C231 301 265 296 300 291C316 286 320 280 314 272C305 262 292 256 274 255C257 254 235 259 207 270C204 272 201 274 197 277C189 283 188 308 197 306Z"/>
<path id="z36015d4" d="M196 416Q254 406 298 402Q323 398 313 384Q301 369 275 365Q250 362 207 376Q201 377 196 381C186 387 185 418 196 416Z"/>
<path id="z36015d5" d="M191 557Q197 558 207 556Q247 549 334 543C342 543 342 525 337 520Q331 513 318 505Q302 496 271 504Q228 514 195 522C183 524 179 557 191 557Z"/>
<path id="z36015d6" d="M187 600C173 644 124 701 37 768C23 778 25 781 43 780C91 775 148 738 215 674C233 655 248 644 256 636C263 628 264 621 264 615C262 606 254 599 237 594C218 587 205 584 197 586C192 586 189 591 187 600Z"/>
<path id="z36015d7" d="M327 677C342 697 358 720 375 746C382 756 389 762 399 764C405 764 412 762 417 755C422 746 424 732 423 712C421 687 390 660 333 631C324 626 317 623 312 625C308 626 305 631 305 640C304 648 313 659 327 677Z"/>
<path id="z36015d8" d="M638 101C658 119 679 140 701 163C709 171 719 176 731 177C739 177 745 172 749 163C752 153 751 137 746 116C740 91 703 70 635 51C624 48 616 46 612 49C607 51 606 57 608 66C609 74 620 85 638 101Z"/>
<path id="z36015d9" d="M533 266C534 257 534 248 529 240C519 225 509 216 501 212C487 205 480 210 483 227C488 261 476 297 448 340C437 355 443 382 469 414C481 429 494 424 501 406C503 399 514 361 528 292C531 275 531 275 533 266Z"/>
<path id="z36015d10" d="M528 292C540 298 564 299 597 289C641 275 713 256 814 239C836 235 851 231 858 235C864 238 865 244 863 249C862 249 856 271 838 313C833 324 830 329 835 332C840 334 849 331 861 324C896 302 929 289 958 284C982 279 994 273 993 267C991 260 966 241 922 208C905 195 872 195 821 207C803 211 784 214 766 218C710 229 632 244 533 266C524 268 520 289 528 292Z"/>
<path id="z36015d11" d="M695 476C733 469 784 463 848 461C876 460 894 457 898 450C901 442 896 433 885 426C843 399 806 398 770 411C743 420 708 426 668 436C620 447 567 458 511 470C497 472 495 478 507 489C515 497 526 502 539 505C553 507 564 506 575 503C595 495 618 489 645 485C678 479 678 479 695 476Z"/>
<path id="z36015d12" d="M645 485C661 513 667 542 668 574C670 724 667 803 655 814C650 817 643 818 636 816C613 807 590 798 567 790C558 787 554 788 555 794C555 798 558 804 564 811C610 861 638 901 653 928C660 941 672 943 684 934C711 910 729 873 728 826C723 663 722 565 736 532C741 519 739 507 728 498C717 489 706 482 695 476C680 467 637 470 645 485Z"/>
<defs>
	<clipPath id="z36015c1"><use xlink:href="#z36015d1"/></clipPath>
	<clipPath id="z36015c2"><use xlink:href="#z36015d2"/></clipPath>
	<clipPath id="z36015c3"><use xlink:href="#z36015d3"/></clipPath>
	<clipPath id="z36015c4"><use xlink:href="#z36015d4"/></clipPath>
	<clipPath id="z36015c5"><use xlink:href="#z36015d5"/></clipPath>
	<clipPath id="z36015c6"><use xlink:href="#z36015d6"/></clipPath>
	<clipPath id="z36015c7"><use xlink:href="#z36015d7"/></clipPath>
	<clipPath id="z36015c8"><use xlink:href="#z36015d8"/></clipPath>
	<clipPath id="z36015c9"><use xlink:href="#z36015d9"/></clipPath>
	<clipPath id="z36015c10"><use xlink:href="#z36015d10"/></clipPath>
	<clipPath id="z36015c11"><use xlink:href="#z36015d11"/></clipPath>
	<clipPath id="z36015c12"><use xlink:href="#z36015d12"/></clipPath>
</defs>
<path style="--d:1s;" pathLength="3333" clip-path="url(#z36015c1)" d="M139 133L172 176L171 576"/>
<path style="--d:2s;" pathLength="3333" clip-path="url(#z36015c2)" d="M192 148L345 124L391 164L358 584"/>
<path style="--d:3s;" pathLength="3333" clip-path="url(#z36015c3)" d="M206 297L308 276"/>
<path style="--d:4s;" pathLength="3333" clip-path="url(#z36015c4)" d="M201 407L246 387L309 394"/>
<path style="--d:5s;" pathLength="3333" clip-path="url(#z36015c5)" d="M201 550L334 528"/>
<path style="--d:6s;" pathLength="3333" clip-path="url(#z36015c6)" d="M199 596L222 621L137 711L36 774"/>
<path style="--d:7s;" pathLength="3333" clip-path="url(#z36015c7)" d="M316 629L411 756"/>
<path style="--d:8s;" pathLength="3333" clip-path="url(#z36015c8)" d="M615 56L712 123L729 173"/>
<path style="--d:9s;" pathLength="3333" clip-path="url(#z36015c9)" d="M490 217L508 258L476 417"/>
<path style="--d:10s;" pathLength="3333" clip-path="url(#z36015c10)" d="M537 286L862 216L900 230L939 276L841 326"/>
<path style="--d:11s;" pathLength="3333" clip-path="url(#z36015c11)" d="M510 480L805 432L893 447"/>
<path style="--d:12s;" pathLength="3333" clip-path="url(#z36015c12)" d="M654 486L701 529L690 837L651 885L562 798"/>
</svg>