<!--
AnimCJK 2016-2017 Copyright Francois Mizessyn, http://gooo.free.fr/animCJK/
Derived from:
    MakeMeAHanzi project - https://github.com/skishore/makemeahanzi
    Arphic PL KaitiM GB - https://apps.ubuntu.com/cat/applications/precise/fonts-arphic-gkai00mp/
    Arphic PL UKai - https://apps.ubuntu.com/cat/applications/fonts-arphic-ukai/
You can redistribute and/or modify this file under the terms of the Arphic Public License
as published by Arphic Technology Co., Ltd.
You should have received a copy of this license (the directory "APL") along with this file;
if not, see http://ftp.gnu.org/non-gnu/chinese-fonts-truetype/LICENSE.
-->
<svg id="z36011" class="acjk" version="1.1" viewBox="0 0 1024 1024" xmlns="http://www.w3.org/2000/svg" xmlns:xlink="http://www.w3.org/1999/xlink">
<style>
<![CDATA[
	@keyframes z36011k {
		from {
			stroke:#c00;
			stroke-dashoffset:3000;
		}
		75% {
			stroke:#c00;
			stroke-dashoffset:0;
		}
		to {
			stroke:#000;
		}
	}
	#z36011 path[clip-path] {
		animation:z36011k 1s linear both;
		stroke-dasharray:3000;
		stroke-width:128;
		stroke-linecap:round;
		fill:none;
	}
	#z36011 path[clip-path="url(#z36011c1)"] {animation-delay:1s;}
	#z36011 path[clip-path="url(#z36011c2)"] {animation-delay:2s;}
	#z36011 path[clip-path="url(#z36011c3)"] {animation-delay:3s;}
	#z36011 path[clip-path="url(#z36011c4)"] {animation-delay:4s;}
	#z36011 path[clip-path="url(#z36011c5)"] {animation-delay:5s;}
	#z36011 path[clip-path="url(#z36011c6)"] {animation-delay:6s;}
	#z36011 path[clip-path="url(#z36011c7)"] {animation-delay:7s;}
	#z36011 path[clip-path="url(#z36011c8)"] {animation-delay:8s;}
	#z36011 path[clip-path="url(#z36011c9)"] {animation-delay:9s;}
	#z36011 path[clip-path="url(#z36011c10)"] {animation-delay:10s;}
	#z36011 path[clip-path="url(#z36011c11)"] {animation-delay:11s;}
	#z36011 path {fill:#ccc;}
]]>
</style>
<g transform="scale(1,-1) translate(0,-900)">
	<path id="z36011d1" d="M386 789Q371 807 347 818Q331 827 327 817Q323 810 329 801Q345 774 342 742Q338 702 329 664L320 632Q304 584 272 548Q256 535 260 521Q264 508 281 494Q296 481 314 499Q353 535 486 547Q543 553 602 548Q606 547 613 548L620 583Q596 607 537 597Q530 597 523 595Q516 595 507 592L468 586Q413 576 342 556Q333 555 335 566Q347 600 358 637L366 668Q376 710 386 756L386 789Z"/>
	<path id="z36011d2" d="M715 708Q721 751 750 781Q763 793 751 807Q736 823 694 849Q676 858 611 839Q569 835 386 789L386 756Q393 756 402 758Q438 770 488 780L530 790Q641 814 659 803Q675 790 670 766Q663 730 656 700L648 662Q632 596 620 583L613 548Q626 529 641 521Q651 514 666 534Q679 558 705 664L715 708Z"/>
	<path id="z36011d3" d="M480 652Q476 624 468 586L507 592Q514 628 523 656L530 684Q543 729 548 739Q555 758 547 771Q540 781 530 790L488 780Q492 755 492 729Q491 716 484 679L480 652Z"/>
	<path id="z36011d4" d="M705 664Q834 667 932 662Q953 662 958 671Q964 683 947 698Q890 743 822 725Q773 719 715 708L656 700Q598 693 530 684L484 679Q426 675 366 668L329 664Q218 654 98 643Q76 642 91 623Q106 608 124 602Q146 596 163 600Q236 619 320 632L358 637Q409 646 480 652L523 656Q580 660 648 662L705 664Z"/>
	<path id="z36011d5" d="M376 441Q364 453 343 461Q334 465 323 462Q317 458 322 446Q322 440 328 430Q346 384 329 239Q308 164 343 125Q352 113 362 124Q365 128 368 133L374 164Q377 180 377 230L378 255Q379 292 380 318L381 344Q382 399 385 404Q385 407 385 409L376 441Z"/>
	<path id="z36011d6" d="M628 157Q629 154 632 150Q645 122 654 122Q667 123 684 154Q699 179 694 227Q682 374 712 420Q722 436 715 446Q687 471 639 492Q623 498 600 489Q518 455 376 441L385 409Q433 425 585 448Q613 454 622 439Q634 423 634 371Q635 221 627 193Q626 192 625 189L628 157Z"/>
	<path id="z36011d7" d="M380 318Q386 317 396 318Q492 333 562 341Q584 345 577 357Q567 370 543 376Q518 379 381 344L380 318Z"/>
	<path id="z36011d8" d="M377 230Q384 229 396 230Q493 245 566 253Q588 257 581 269Q571 282 547 288Q526 291 378 255L377 230Z"/>
	<path id="z36011d9" d="M368 133Q372 133 381 134Q523 150 628 157L625 189Q619 192 612 194Q590 198 550 192Q456 176 374 164L368 133Z"/>
	<path id="z36011d10" d="M377 93Q377 39 206 -68Q199 -75 213 -77Q306 -56 432 40Q445 53 463 60Q475 67 472 77Q468 84 450 93Q408 109 386 106Q376 105 377 93Z"/>
	<path id="z36011d11" d="M579 81Q633 26 695 -51Q710 -72 725 -77Q732 -78 741 -70Q754 -57 744 -13Q732 44 586 109Q583 110 582 111Q573 117 571 105Q570 92 579 81Z"/>
	<defs>
		<clipPath id="z36011c1"><use xlink:href="#z36011d1"/></clipPath>
		<clipPath id="z36011c2"><use xlink:href="#z36011d2"/></clipPath>
		<clipPath id="z36011c3"><use xlink:href="#z36011d3"/></clipPath>
		<clipPath id="z36011c4"><use xlink:href="#z36011d4"/></clipPath>
		<clipPath id="z36011c5"><use xlink:href="#z36011d5"/></clipPath>
		<clipPath id="z36011c6"><use xlink:href="#z36011d6"/></clipPath>
		<clipPath id="z36011c7"><use xlink:href="#z36011d7"/></clipPath>
		<clipPath id="z36011c8"><use xlink:href="#z36011d8"/></clipPath>
		<clipPath id="z36011c9"><use xlink:href="#z36011d9"/></clipPath>
		<clipPath id="z36011c10"><use xlink:href="#z36011d10"/></clipPath>
		<clipPath id="z36011c11"><use xlink:href="#z36011d11"/></clipPath>
	</defs>
	<path pathLength="2999" clip-path="url(#z36011c1)" d="M333 817L363 749L302 532L522 573L615 566"/>
	<path pathLength="2999" clip-path="url(#z36011c2)" d="M390 764L623 825L701 806L714 788L631 530"/>
	<path pathLength="2999" clip-path="url(#z36011c3)" d="M494 773L521 737L477 591"/>
	<path pathLength="2999" clip-path="url(#z36011c4)" d="M91 636L150 623L858 698L955 679"/>
	<path pathLength="2999" clip-path="url(#z36011c5)" d="M329 453L360 399L352 123"/>
	<path pathLength="2999" clip-path="url(#z36011c6)" d="M385 438L609 471L671 432L656 130"/>
	<path pathLength="2999" clip-path="url(#z36011c7)" d="M389 326L571 352"/>
	<path pathLength="2999" clip-path="url(#z36011c8)" d="M386 238L578 268"/>
	<path pathLength="2999" clip-path="url(#z36011c9)" d="M377 141L626 173"/>
	<path pathLength="2999" clip-path="url(#z36011c10)" d="M466 75L399 66L337 -1L214 -70"/>
	<path pathLength="2999" clip-path="url(#z36011c11)" d="M579 101L685 14L738 -68"/>
</g>
</svg>