<!--
AnimCJK 2016-2026 Copyright FM-SH, https://github.com/parsimonhi/animCJK
Derived from:
    MakeMeAHanzi project - https://github.com/skishore/makemeahanzi
    Arphic PL KaitiM GB font
    Arphic PL KaitiM Big5 font
You can redistribute and/or modify this file under the terms of the Arphic Public License
as published by Arphic Technology Co., Ltd.
You should have received a copy of this license along with this file.
If not, see https://ftp.gnu.org/non-gnu/chinese-fonts-truetype/LICENSE.
-->
<svg id="z36014" class="acjk" viewBox="0 0 1024 1024" xmlns="http://www.w3.org/2000/svg">
<style>
<![CDATA[
@keyframes zk {
	to {
		stroke-dashoffset:0;
	}
}
svg.acjk path[clip-path] {
	--t:0.8s;
	animation:zk var(--t) linear forwards var(--d);
	stroke-dasharray:3337;
	stroke-dashoffset:3339;
	stroke-width:128;
	stroke-linecap:round;
	fill:none;
	stroke:#000;
}
svg.acjk path[id] {fill:#ccc;}
]]>
</style>
<path id="z36014d1" d="M251 227C222 231 215 246 249 261C266 268 299 266 325 259C373 244 423 234 486 224C512 219 501 196 486 190C467 182 452 182 438 186C258 234 314 217 251 227Z"/>
<path id="z36014d2" d="M614 320C638 315 726 298 761 293C807 285 833 278 838 274C840 271 840 261 836 257C818 241 792 233 768 235C744 236 666 258 606 275C572 284 572 284 555 289C508 301 182 368 120 365C105 364 100 369 103 382C104 387 120 403 152 421C159 425 170 426 183 422C264 396 514 340 564 330C597 323 597 323 614 320Z"/>
<path id="z36014d3" d="M280 468C271 459 262 455 246 450C231 444 222 450 227 465C246 524 249 616 239 678C232 712 238 740 261 764C267 770 274 771 280 764C283 758 286 751 287 745C289 727 289 727 290 718C290 700 289 678 289 662C288 643 288 643 288 633C287 616 288 591 288 578C288 561 288 561 288 553C288 537 287 514 289 495C289 486 288 474 280 468Z"/>
<path id="z36014d4" d="M458 717C474 760 506 811 524 763C533 736 535 678 533 611C530 546 530 487 535 473C539 460 537 451 532 446C526 439 512 432 492 421C480 414 469 417 443 427C394 445 325 458 280 468C271 470 280 497 289 495C319 488 404 468 445 459C470 452 474 461 476 482C478 503 480 561 478 617C477 634 474 679 468 697C466 704 455 710 458 717Z"/>
<path id="z36014d5" d="M428 551C442 547 445 541 440 535C433 526 422 521 406 521C390 520 337 531 288 553C280 556 280 580 288 578C381 560 381 560 428 551Z"/>
<path id="z36014d6" d="M289 662C325 650 395 642 431 636C445 633 448 628 443 621C436 612 425 607 410 606C396 605 341 614 288 633C279 637 280 666 289 662Z"/>
<path id="z36014d7" d="M287 745C337 734 410 724 458 717C465 716 474 701 468 697C444 681 385 693 290 718C281 721 278 747 287 745Z"/>
<path id="z36014d8" d="M170 919C162 924 163 932 172 931C241 921 311 866 350 833C358 826 364 818 361 810C357 800 345 789 327 775C306 760 301 769 300 784C295 837 215 890 170 919Z"/>
<path id="z36014d9" d="M442 817C458 835 483 867 501 891C510 904 541 921 537 865C535 843 517 815 446 782C432 775 405 774 442 817Z"/>
<path id="z36014d10" d="M564 330C608 490 628 603 775 815C816 875 861 917 898 945C935 974 991 1002 972 895C963 848 962 800 963 749C963 694 947 703 936 742C915 808 899 837 887 831C856 812 813 770 771 700C693 571 655 484 614 320C610 305 608 290 606 275C570 73 597 135 584 111C578 100 525 68 507 70C467 71 478 92 490 106C504 123 520 133 555 289C558 302 560 316 564 330Z"/>
<path id="z36014d11" d="M726 134C748 148 770 165 794 184C802 190 811 193 820 193C826 192 831 188 833 180C835 171 832 158 826 142C820 128 808 116 787 109C737 92 707 87 700 93C696 95 695 100 698 108C699 114 710 123 726 134Z"/>
<defs>
	<clipPath id="z36014c1"><use href="#z36014d1"/></clipPath>
	<clipPath id="z36014c2"><use href="#z36014d2"/></clipPath>
	<clipPath id="z36014c3"><use href="#z36014d3"/></clipPath>
	<clipPath id="z36014c4"><use href="#z36014d4"/></clipPath>
	<clipPath id="z36014c5"><use href="#z36014d5"/></clipPath>
	<clipPath id="z36014c6"><use href="#z36014d6"/></clipPath>
	<clipPath id="z36014c7"><use href="#z36014d7"/></clipPath>
	<clipPath id="z36014c8"><use href="#z36014d8"/></clipPath>
	<clipPath id="z36014c9"><use href="#z36014d9"/></clipPath>
	<clipPath id="z36014c10"><use href="#z36014d10"/></clipPath>
	<clipPath id="z36014c11"><use href="#z36014d11"/></clipPath>
</defs>
<path style="--d:1s;" pathLength="3333" clip-path="url(#z36014c1)" d="M233 240L497 206"/>
<path style="--d:2s;" pathLength="3333" clip-path="url(#z36014c2)" d="M107 375L166 393L724 271L835 264"/>
<path style="--d:3s;" pathLength="3333" clip-path="url(#z36014c3)" d="M234 457L262 496L268 763"/>
<path style="--d:4s;" pathLength="3333" clip-path="url(#z36014c4)" d="M279 478L469 437L504 459L503 779"/>
<path style="--d:5s;" pathLength="3333" clip-path="url(#z36014c5)" d="M287 568L438 536"/>
<path style="--d:6s;" pathLength="3333" clip-path="url(#z36014c6)" d="M286 652L436 627"/>
<path style="--d:7s;" pathLength="3333" clip-path="url(#z36014c7)" d="M284 734L463 700"/>
<path style="--d:8s;" pathLength="3333" clip-path="url(#z36014c8)" d="M311 772L320 822L172 922"/>
<path style="--d:9s;" pathLength="3333" clip-path="url(#z36014c9)" d="M431 785L498 844L523 900"/>
<path style="--d:10s;" pathLength="3333" clip-path="url(#z36014c10)" d="M482 83L550 129L643 508L800 796L899 896L943 919L952 717"/>
<path style="--d:11s;" pathLength="3333" clip-path="url(#z36014c11)" d="M700 97L795 147L823 187"/>
</svg>