<!--
AnimCJK 2016-2018 Copyright Francois Mizessyn - https://github.com/parsimonhi/animCJK
Derived from:
    MakeMeAHanzi project - https://github.com/skishore/makemeahanzi
    Arphic PL KaitiM GB - https://apps.ubuntu.com/cat/applications/precise/fonts-arphic-gkai00mp/
    Arphic PL UKai - https://apps.ubuntu.com/cat/applications/fonts-arphic-ukai/
You can redistribute and/or modify this file under the terms of the Arphic Public License
as published by Arphic Technology Co., Ltd.
You should have received a copy of this license (the directory "APL") along with this file;
if not, see http://ftp.gnu.org/non-gnu/chinese-fonts-truetype/LICENSE.
-->
<svg id="z36027" class="acjk" version="1.1" viewBox="0 0 1024 1024" xmlns="http://www.w3.org/2000/svg" xmlns:xlink="http://www.w3.org/1999/xlink">
<style>
<![CDATA[
@keyframes z36027k {
	from {
		stroke:#ccc;
		stroke-dashoffset:3334;
	}
	1% {
		stroke:#c00;
		stroke-dashoffset:3334;
	}
	75% {
		stroke:#c00;
		stroke-dashoffset:0;
	}
	to {
		stroke:#000;
	}
}
#z36027 path[clip-path] {
	animation:z36027k 1s linear both;
	stroke-dasharray:3334;
	stroke-width:128;
	stroke-linecap:round;
	fill:none;
}
#z36027 path[clip-path="url(#z36027c1)"] {animation-delay:1s;}
#z36027 path[clip-path="url(#z36027c2)"] {animation-delay:2s;}
#z36027 path[clip-path="url(#z36027c3)"] {animation-delay:3s;}
#z36027 path[clip-path="url(#z36027c4)"] {animation-delay:4s;}
#z36027 path[clip-path="url(#z36027c5)"] {animation-delay:5s;}
#z36027 path[clip-path="url(#z36027c6)"] {animation-delay:6s;}
#z36027 path[clip-path="url(#z36027c7)"] {animation-delay:7s;}
#z36027 path[clip-path="url(#z36027c8)"] {animation-delay:8s;}
#z36027 path[clip-path="url(#z36027c9)"] {animation-delay:9s;}
#z36027 path[clip-path="url(#z36027c10)"] {animation-delay:10s;}
#z36027 path[clip-path="url(#z36027c11)"] {animation-delay:11s;}
#z36027 path[clip-path="url(#z36027c12)"] {animation-delay:12s;}
#z36027 path {fill:#ccc;}
]]>
</style>
<path id="z36027d1" d="M763 204Q785 173 804 163Q826 142 800 124Q776 103 752 87Q737 75 674 97Q640 103 617 110C578 117 578 117 558 121Q506 130 453 144C417 151 417 151 399 155Q347 165 310 168Q297 168 295 176Q294 183 315 194Q334 207 364 198Q385 191 403 186C437 177 437 177 454 173Q496 163 559 153C595 147 595 147 613 144Q653 137 702 131Q718 130 723 137Q726 144 700 210C692 230 750 221 763 204Z"/>
<path id="z36027d2" d="M604 263Q685 250 784 240Q794 239 796 231Q796 224 768 205Q765 204 763 204C742 200 721 206 700 210Q651 220 606 231C575 238 575 238 559 241Q504 251 452 262C421 267 421 267 405 270Q336 280 275 289C264 291 275 323 285 320Q334 307 404 294C434 289 434 289 449 287Q498 277 559 269C589 265 589 265 604 263Z"/>
<path id="z36027d3" d="M595 369Q806 339 837 346Q850 349 853 360Q857 373 841 404Q834 414 826 421Q820 434 806 430Q788 426 765 419Q740 404 753 434Q778 485 781 506Q785 522 800 523Q813 526 832 516Q844 509 874 473Q904 412 930 390Q951 372 939 358Q917 330 883 304Q870 291 849 296Q789 312 667 330Q630 334 597 341C568 346 568 346 554 348Q484 358 428 370C400 375 400 375 386 378Q278 397 271 398Q264 397 266 381Q273 330 285 320C293 312 283 297 275 289Q260 276 238 264Q225 257 216 264Q207 271 217 288Q229 315 220 352Q205 392 193 406Q183 422 192 440Q202 465 216 473Q226 479 250 461Q284 431 376 408C403 401 403 401 417 398Q469 386 552 375C581 371 581 371 595 369Z"/>
<path id="z36027d4" d="M453 144Q453 81 452 80C451 79 451 79 451 79Q435 66 406 59Q387 52 377 58Q367 67 375 77Q384 86 399 155C402 176 402 176 403 186Q406 246 405 270C404 286 404 286 404 294C403 306 403 306 402 312Q396 346 386 378C379 398 379 398 376 408Q370 430 362 452Q358 458 358 464Q357 474 366 470Q379 464 417 398C424 379 424 379 428 370Q446 306 449 287C451 270 451 270 452 262Q455 216 454 173C453 154 453 154 453 144Z"/>
<path id="z36027d5" d="M552 375Q552 412 559 436Q565 448 574 442Q586 432 595 369C596 350 596 350 597 341Q600 301 604 263C605 242 605 242 606 231Q609 197 612 164Q612 154 613 144C616 121 616 121 617 110Q620 85 624 72Q633 53 621 41Q606 28 578 13Q557 4 534 13Q522 20 536 36Q546 58 558 121C559 142 559 142 559 153Q560 193 559 241C559 260 559 260 559 269C559 270 559 270 559 270Q558 312 554 348C553 366 553 366 552 375Z"/>
<path id="z36027d6" d="M384 498Q368 485 347 479Q338 478 333 485Q330 491 337 500Q367 605 339 711Q327 723 336 756Q343 786 354 797Q364 809 373 796Q379 789 383 778C388 758 388 758 390 748Q396 718 396 683C396 664 396 664 396 655Q396 628 397 602C398 582 398 582 399 572Q399 539 403 526C405 515 393 505 384 498Z"/>
<path id="z36027d7" d="M632 758Q633 765 640 775Q653 803 662 802Q675 801 691 769Q704 744 701 699Q689 552 716 516Q726 500 719 491Q692 467 647 448Q632 442 609 450Q542 478 384 498C373 500 392 530 403 526Q403 525 406 525Q512 500 591 488Q619 482 627 497Q639 512 639 562Q642 704 634 731C632 740 630 749 632 758Z"/>
<path id="z36027d8" d="M397 602Q494 587 566 579Q588 575 581 563Q571 550 547 544Q520 541 399 572C389 574 387 604 397 602Z"/>
<path id="z36027d9" d="M396 683Q399 683 403 683Q500 670 570 662Q592 659 585 647Q575 634 551 628Q527 624 396 655C387 657 387 683 396 683Z"/>
<path id="z36027d10" d="M383 778Q387 778 392 778Q468 765 632 758C641 758 640 737 634 731Q630 727 626 724Q613 715 586 720Q477 739 390 748C380 750 373 778 383 778Z"/>
<path id="z36027d11" d="M404 804Q386 861 246 960Q224 973 251 972Q306 975 426 886Q426 883 474 847Q486 837 484 827Q483 812 457 802Q429 789 416 790Q409 791 404 804Z"/>
<path id="z36027d12" d="M584 841Q632 889 688 958Q704 980 720 986Q729 987 737 977Q750 964 740 917Q730 857 591 809Q588 808 587 808Q578 802 575 815Q574 830 584 841Z"/>
<defs>
	<clipPath id="z36027c1"><use xlink:href="#z36027d1"/></clipPath>
	<clipPath id="z36027c2"><use xlink:href="#z36027d2"/></clipPath>
	<clipPath id="z36027c3"><use xlink:href="#z36027d3"/></clipPath>
	<clipPath id="z36027c4"><use xlink:href="#z36027d4"/></clipPath>
	<clipPath id="z36027c5"><use xlink:href="#z36027d5"/></clipPath>
	<clipPath id="z36027c6"><use xlink:href="#z36027d6"/></clipPath>
	<clipPath id="z36027c7"><use xlink:href="#z36027d7"/></clipPath>
	<clipPath id="z36027c8"><use xlink:href="#z36027d8"/></clipPath>
	<clipPath id="z36027c9"><use xlink:href="#z36027d9"/></clipPath>
	<clipPath id="z36027c10"><use xlink:href="#z36027d10"/></clipPath>
	<clipPath id="z36027c11"><use xlink:href="#z36027d11"/></clipPath>
	<clipPath id="z36027c12"><use xlink:href="#z36027d12"/></clipPath>
</defs>
<path pathLength="3333" clip-path="url(#z36027c1)" d="M299 175L354 181L731 109L766 152L709 205"/>
<path pathLength="3333" clip-path="url(#z36027c2)" d="M284 294L789 230"/>
<path pathLength="3333" clip-path="url(#z36027c3)" d="M221 270L253 317L231 397L247 436L459 376L853 322L898 372L832 467L789 469L755 421"/>
<path pathLength="3333" clip-path="url(#z36027c4)" d="M381 65L422 106L428 266L365 463"/>
<path pathLength="3333" clip-path="url(#z36027c5)" d="M537 16L588 67L567 438"/>
<path pathLength="3333" clip-path="url(#z36027c6)" d="M339 488L374 536L359 795"/>
<path pathLength="3333" clip-path="url(#z36027c7)" d="M392 501L616 466L668 494L665 798"/>
<path pathLength="3333" clip-path="url(#z36027c8)" d="M403 594L578 565"/>
<path pathLength="3333" clip-path="url(#z36027c9)" d="M406 674L582 648"/>
<path pathLength="3333" clip-path="url(#z36027c10)" d="M390 771L631 741"/>
<path pathLength="3333" clip-path="url(#z36027c11)" d="M480 826L433 827L346 912L246 968"/>
<path pathLength="3333" clip-path="url(#z36027c12)" d="M582 815L700 913L728 981"/>
</svg>