<!--
AnimCJK 2016-2026 Copyright FM-SH, https://github.com/parsimonhi/animCJK
Derived from:
    MakeMeAHanzi project - https://github.com/skishore/makemeahanzi
    Arphic PL KaitiM GB font
    Arphic PL KaitiM Big5 font
You can redistribute and/or modify this file under the terms of the Arphic Public License
as published by Arphic Technology Co., Ltd.
You should have received a copy of this license along with this file.
If not, see https://ftp.gnu.org/non-gnu/chinese-fonts-truetype/LICENSE.
-->
<svg id="z36022" class="acjk" viewBox="0 0 1024 1024" xmlns="http://www.w3.org/2000/svg">
<style>
<![CDATA[
@keyframes zk {
	to {
		stroke-dashoffset:0;
	}
}
svg.acjk path[clip-path] {
	--t:0.8s;
	animation:zk var(--t) linear forwards var(--d);
	stroke-dasharray:3337;
	stroke-dashoffset:3339;
	stroke-width:128;
	stroke-linecap:round;
	fill:none;
	stroke:#000;
}
svg.acjk path[id] {fill:#ccc;}
]]>
</style>
<path id="z36022d1" d="M172 214C151 193 106 181 118 211C140 267 143 377 131 498C124 559 119 600 143 627C149 634 155 635 162 628C169 618 171 606 173 594C175 571 175 571 176 560C176 554 177 524 177 471C177 452 177 452 177 442C177 409 179 381 179 358C179 339 179 339 179 330C179 228 180 263 183 239C184 230 179 219 172 214Z"/>
<path id="z36022d2" d="M309 579C320 610 341 657 367 607C375 587 378 564 377 539C374 487 372 404 374 292C374 263 379 241 388 226C394 214 395 204 390 198C385 191 366 183 334 172C317 166 305 167 294 173C249 193 208 205 172 214C163 216 174 241 183 239C211 232 239 224 267 216C317 200 323 222 324 269C324 325 325 376 324 420C322 503 319 525 309 552C306 560 306 571 309 579Z"/>
<path id="z36022d3" d="M179 358C214 353 250 344 285 336C318 327 291 305 262 304C237 302 209 312 179 330C172 336 170 360 179 358Z"/>
<path id="z36022d4" d="M177 471C179 467 217 461 289 448C322 441 295 418 266 416C241 413 211 422 177 442C169 447 168 475 177 471Z"/>
<path id="z36022d5" d="M173 594C199 588 251 583 309 579C318 579 316 558 309 552C272 522 239 547 176 560C165 562 162 596 173 594Z"/>
<path id="z36022d6" d="M173 657C164 696 117 754 29 828C16 838 17 841 34 839C75 833 183 755 240 689C253 672 249 659 221 650C178 635 175 645 173 657Z"/>
<path id="z36022d7" d="M293 718C307 736 321 757 337 780C351 801 382 807 378 751C377 738 369 723 353 711C337 699 318 688 298 678C280 668 275 672 274 686C273 692 281 703 293 718Z"/>
<path id="z36022d8" d="M530 264C648 218 712 176 776 146C801 133 797 122 784 114C769 105 746 96 716 90C699 86 679 79 681 104C683 135 588 205 518 248C479 272 489 280 530 264Z"/>
<path id="z36022d9" d="M566 334C579 343 591 355 606 368C624 382 661 387 639 325C633 308 605 299 559 293C537 289 534 295 538 308C539 314 550 322 566 334Z"/>
<path id="z36022d10" d="M491 655C520 642 641 578 758 474C781 452 809 431 843 413C857 404 860 396 855 389C847 378 825 365 788 349C773 342 748 351 708 371C625 410 542 436 463 453C448 456 443 460 449 469C454 477 467 483 486 488C506 492 525 489 545 479C596 451 656 424 725 398C733 394 737 398 735 407C670 510 557 582 459 649C450 655 481 659 491 655Z"/>
<path id="z36022d11" d="M459 649C450 647 438 647 429 649C412 651 399 651 385 648C374 645 368 647 366 653C363 659 367 666 377 676C389 687 412 690 449 685C472 681 510 694 560 722C620 755 687 793 759 836C781 849 809 849 843 838C886 822 929 808 970 795C975 793 1028 772 940 768C819 762 756 755 749 754C708 743 516 663 491 655C480 651 469 651 459 649Z"/>
<defs>
	<clipPath id="z36022c1"><use href="#z36022d1"/></clipPath>
	<clipPath id="z36022c2"><use href="#z36022d2"/></clipPath>
	<clipPath id="z36022c3"><use href="#z36022d3"/></clipPath>
	<clipPath id="z36022c4"><use href="#z36022d4"/></clipPath>
	<clipPath id="z36022c5"><use href="#z36022d5"/></clipPath>
	<clipPath id="z36022c6"><use href="#z36022d6"/></clipPath>
	<clipPath id="z36022c7"><use href="#z36022d7"/></clipPath>
	<clipPath id="z36022c8"><use href="#z36022d8"/></clipPath>
	<clipPath id="z36022c9"><use href="#z36022d9"/></clipPath>
	<clipPath id="z36022c10"><use href="#z36022d10"/></clipPath>
	<clipPath id="z36022c11"><use href="#z36022d11"/></clipPath>
</defs>
<path style="--d:1s;" pathLength="3333" clip-path="url(#z36022c1)" d="M124 200L155 249L155 627"/>
<path style="--d:2s;" pathLength="3333" clip-path="url(#z36022c2)" d="M173 223L298 191L356 218L344 624"/>
<path style="--d:3s;" pathLength="3333" clip-path="url(#z36022c3)" d="M178 348L294 320"/>
<path style="--d:4s;" pathLength="3333" clip-path="url(#z36022c4)" d="M175 461L299 436"/>
<path style="--d:5s;" pathLength="3333" clip-path="url(#z36022c5)" d="M170 584L312 564"/>
<path style="--d:6s;" pathLength="3333" clip-path="url(#z36022c6)" d="M183 646L206 677L188 701L27 833"/>
<path style="--d:7s;" pathLength="3333" clip-path="url(#z36022c7)" d="M281 678L346 743L363 790"/>
<path style="--d:8s;" pathLength="3333" clip-path="url(#z36022c8)" d="M690 95L738 133L499 267"/>
<path style="--d:9s;" pathLength="3333" clip-path="url(#z36022c9)" d="M541 298L611 334L634 373"/>
<path style="--d:10s;" pathLength="3333" clip-path="url(#z36022c10)" d="M452 463L535 459L738 375L792 392L796 415L646 538L466 648"/>
<path style="--d:11s;" pathLength="3333" clip-path="url(#z36022c11)" d="M370 657L500 676L782 800L982 779"/>
</svg>