<!--
AnimCJK 2016-2017 Copyright Francois Mizessyn, http://gooo.free.fr/animCJK/
Derived from:
    MakeMeAHanzi project - https://github.com/skishore/makemeahanzi
    Arphic PL KaitiM GB - https://apps.ubuntu.com/cat/applications/precise/fonts-arphic-gkai00mp/
    Arphic PL UKai - https://apps.ubuntu.com/cat/applications/fonts-arphic-ukai/
You can redistribute and/or modify this file under the terms of the Arphic Public License
as published by Arphic Technology Co., Ltd.
You should have received a copy of this license (the directory "APL") along with this file;
if not, see http://ftp.gnu.org/non-gnu/chinese-fonts-truetype/LICENSE.
-->
<svg id="z36023" class="acjk" version="1.1" viewBox="0 0 1024 1024" xmlns="http://www.w3.org/2000/svg" xmlns:xlink="http://www.w3.org/1999/xlink">
<style>
<![CDATA[
	@keyframes z36023k {
		from {
			stroke:#c00;
			stroke-dashoffset:3000;
		}
		75% {
			stroke:#c00;
			stroke-dashoffset:0;
		}
		to {
			stroke:#000;
		}
	}
	#z36023 path[clip-path] {
		animation:z36023k 1s linear both;
		stroke-dasharray:3000;
		stroke-width:128;
		stroke-linecap:round;
		fill:none;
	}
	#z36023 path[clip-path="url(#z36023c1)"] {animation-delay:1s;}
	#z36023 path[clip-path="url(#z36023c2)"] {animation-delay:2s;}
	#z36023 path[clip-path="url(#z36023c3)"] {animation-delay:3s;}
	#z36023 path[clip-path="url(#z36023c4)"] {animation-delay:4s;}
	#z36023 path[clip-path="url(#z36023c5)"] {animation-delay:5s;}
	#z36023 path[clip-path="url(#z36023c6)"] {animation-delay:6s;}
	#z36023 path[clip-path="url(#z36023c7)"] {animation-delay:7s;}
	#z36023 path[clip-path="url(#z36023c8)"] {animation-delay:8s;}
	#z36023 path[clip-path="url(#z36023c9)"] {animation-delay:9s;}
	#z36023 path[clip-path="url(#z36023c10)"] {animation-delay:10s;}
	#z36023 path[clip-path="url(#z36023c11)"] {animation-delay:11s;}
	#z36023 path[clip-path="url(#z36023c12)"] {animation-delay:12s;}
	#z36023 path {fill:#ccc;}
]]>
</style>
<g transform="scale(1,-1) translate(0,-900)">
	<path id="z36023d1" d="M257 798Q248 799 238 799Q225 800 221 794Q215 787 226 770Q259 722 285 639Q292 614 309 599Q331 577 335 595Q336 602 337 610L333 641Q321 678 304 757L257 798Z"/>
	<path id="z36023d2" d="M709 653Q709 650 711 646Q715 628 728 628Q749 631 785 688Q807 742 848 770Q870 785 854 803Q836 822 785 855Q772 865 696 852Q486 827 424 815Q297 794 257 798L304 757Q341 769 399 779L422 783Q482 795 564 804L601 809Q731 824 751 812Q758 808 751 784Q726 699 716 682Q710 672 709 662L709 653Z"/>
	<path id="z36023d3" d="M461 656Q461 710 430 773Q426 779 422 783L399 779Q400 778 401 776Q402 766 405 757Q414 670 432 652L461 656Z"/>
	<path id="z36023d4" d="M580 675Q581 679 585 684Q598 706 611 735Q617 748 628 764Q640 774 632 783Q623 796 601 809L564 804Q585 783 549 673Q548 672 548 669L580 675Z"/>
	<path id="z36023d5" d="M337 610Q341 610 347 610Q459 632 699 648Q706 649 709 653L709 662Q705 671 684 684Q669 693 580 675L548 669Q502 662 461 656L432 652Q378 648 333 641L337 610Z"/>
	<path id="z36023d6" d="M383 531Q367 544 347 549Q338 550 333 543Q330 537 337 528Q373 443 344 279Q331 234 335 216Q344 186 354 175Q364 163 373 176Q377 183 382 193L391 227Q395 258 396 314L396 340Q396 349 397 407L398 433Q398 484 403 504L383 531Z"/>
	<path id="z36023d7" d="M638 213Q639 201 649 187Q664 156 674 158Q689 159 705 195Q721 223 718 245Q705 324 704 448Q703 484 722 515Q732 531 724 541Q696 565 648 585Q632 589 609 581Q533 550 383 531L403 504Q509 529 588 542Q615 546 624 532Q639 514 641 451Q648 270 641 235Q640 232 639 228L638 213Z"/>
	<path id="z36023d8" d="M397 407Q401 406 415 407Q506 423 574 432Q598 436 589 448Q579 463 553 467Q532 471 398 433L397 407Z"/>
	<path id="z36023d9" d="M396 314Q402 313 412 314Q508 327 578 336Q600 339 593 352Q583 367 557 372Q533 376 396 340L396 314Z"/>
	<path id="z36023d10" d="M382 193Q388 192 395 193Q470 206 630 210Q634 211 638 213L639 228Q632 237 614 249Q598 259 568 253Q471 237 391 227L382 193Z"/>
	<path id="z36023d11" d="M402 159Q369 84 199 -16Q174 -28 204 -29Q276 -32 415 67Q418 76 472 110Q485 120 484 131Q483 146 457 158Q429 174 415 172Q408 172 402 159Z"/>
	<path id="z36023d12" d="M619 100Q659 51 706 -21Q722 -46 738 -53Q748 -56 758 -45Q774 -32 766 19Q759 80 628 133Q627 134 625 134Q615 141 611 128Q608 113 619 100Z"/>
	<defs>
		<clipPath id="z36023c1"><use xlink:href="#z36023d1"/></clipPath>
		<clipPath id="z36023c2"><use xlink:href="#z36023d2"/></clipPath>
		<clipPath id="z36023c3"><use xlink:href="#z36023d3"/></clipPath>
		<clipPath id="z36023c4"><use xlink:href="#z36023d4"/></clipPath>
		<clipPath id="z36023c5"><use xlink:href="#z36023d5"/></clipPath>
		<clipPath id="z36023c6"><use xlink:href="#z36023d6"/></clipPath>
		<clipPath id="z36023c7"><use xlink:href="#z36023d7"/></clipPath>
		<clipPath id="z36023c8"><use xlink:href="#z36023d8"/></clipPath>
		<clipPath id="z36023c9"><use xlink:href="#z36023d9"/></clipPath>
		<clipPath id="z36023c10"><use xlink:href="#z36023d10"/></clipPath>
		<clipPath id="z36023c11"><use xlink:href="#z36023d11"/></clipPath>
		<clipPath id="z36023c12"><use xlink:href="#z36023d12"/></clipPath>
	</defs>
	<path pathLength="2999" clip-path="url(#z36023c1)" d="M225 792L278 741L330 596"/>
	<path pathLength="2999" clip-path="url(#z36023c2)" d="M267 794L315 779L764 835L805 786L719 636"/>
	<path pathLength="2999" clip-path="url(#z36023c3)" d="M407 777L450 659"/>
	<path pathLength="2999" clip-path="url(#z36023c4)" d="M571 803L602 766L558 677"/>
	<path pathLength="2999" clip-path="url(#z36023c5)" d="M341 633L703 660"/>
	<path pathLength="2999" clip-path="url(#z36023c6)" d="M340 539L375 497L365 174"/>
	<path pathLength="2999" clip-path="url(#z36023c7)" d="M393 527L627 563L675 526L665 164"/>
	<path pathLength="2999" clip-path="url(#z36023c8)" d="M401 415L586 444"/>
	<path pathLength="2999" clip-path="url(#z36023c9)" d="M405 322L590 349"/>
	<path pathLength="2999" clip-path="url(#z36023c10)" d="M389 200L556 230L633 221"/>
	<path pathLength="2999" clip-path="url(#z36023c11)" d="M480 131L424 129L307 26L196 -22"/>
	<path pathLength="2999" clip-path="url(#z36023c12)" d="M618 128L718 32L740 -49"/>
</g>
</svg>