<!--
AnimCJK 2016-2018 Copyright Francois Mizessyn, https://github.com/parsimonhi/animCJK
Derived from:
    MakeMeAHanzi project - https://github.com/skishore/makemeahanzi
    Arphic PL KaitiM GB - https://apps.ubuntu.com/cat/applications/precise/fonts-arphic-gkai00mp/
    Arphic PL UKai - https://apps.ubuntu.com/cat/applications/fonts-arphic-ukai/
You can redistribute and/or modify this file under the terms of the Arphic Public License
as published by Arphic Technology Co., Ltd.
You should have received a copy of this license (the directory "APL") along with this file;
if not, see http://ftp.gnu.org/non-gnu/chinese-fonts-truetype/LICENSE.
-->
<svg id="z36032" class="acjk" version="1.1" viewBox="0 0 1024 1024" xmlns="http://www.w3.org/2000/svg" xmlns:xlink="http://www.w3.org/1999/xlink">
<style>
<![CDATA[
@keyframes z36032k {
	from {
		stroke:#c00;
		stroke-dashoffset:3334;
	}
	75% {
		stroke:#c00;
		stroke-dashoffset:0;
	}
	to {
		stroke:#000;
	}
}
#z36032 path[clip-path] {
	animation:z36032k 1s linear both;
	stroke-dasharray:3334;
	stroke-width:128;
	stroke-linecap:round;
	fill:none;
}
#z36032 path[clip-path="url(#z36032c1)"] {animation-delay:1s;}
#z36032 path[clip-path="url(#z36032c2)"] {animation-delay:2s;}
#z36032 path[clip-path="url(#z36032c3)"] {animation-delay:3s;}
#z36032 path[clip-path="url(#z36032c4)"] {animation-delay:4s;}
#z36032 path[clip-path="url(#z36032c5)"] {animation-delay:5s;}
#z36032 path[clip-path="url(#z36032c6)"] {animation-delay:6s;}
#z36032 path[clip-path="url(#z36032c7)"] {animation-delay:7s;}
#z36032 path[clip-path="url(#z36032c8)"] {animation-delay:8s;}
#z36032 path[clip-path="url(#z36032c9)"] {animation-delay:9s;}
#z36032 path[clip-path="url(#z36032c10)"] {animation-delay:10s;}
#z36032 path[clip-path="url(#z36032c11)"] {animation-delay:11s;}
#z36032 path[clip-path="url(#z36032c12)"] {animation-delay:12s;}
#z36032 path {fill:#ccc;}
]]>
</style>
<path id="z36032d1" d="M342 170Q376 160 409 156Q428 153 432 159Q438 169 433 195Q423 265 405 297Q384 327 357 320Q336 314 319 308Q295 299 311 323Q345 363 361 392Q374 411 390 399Q441 372 480 247Q492 186 513 166Q526 154 520 144Q513 134 464 110Q445 101 427 113Q408 123 354 138L294 153Q221 168 162 173Q146 174 143 182Q142 189 164 200Q186 213 204 207Q243 194 281 185L342 170 Z"/>
<path id="z36032d2" d="M281 185Q226 293 99 403Q92 410 98 413Q134 419 220 343Q289 289 342 170L354 138Q369 98 383 76Q390 66 384 57Q378 47 349 32Q328 22 319 23Q306 27 308 42Q315 88 299 139Q296 145 294 153L281 185 Z"/>
<path id="z36032d3" d="M617 135Q602 126 563 120Q550 117 547 122Q540 129 550 146Q577 195 596 276Q600 301 615 316Q634 338 639 322Q642 315 642 302L639 266Q626 193 623 165L617 135 Z"/>
<path id="z36032d4" d="M834 247Q870 180 899 167Q917 149 903 130Q887 115 834 86Q813 76 746 103Q674 122 617 135L623 165Q635 164 648 159Q717 146 781 131Q797 127 805 133Q812 142 807 157Q792 202 775 238L834 247 Z"/>
<path id="z36032d5" d="M642 302Q651 303 662 301Q720 289 843 280Q853 279 856 270Q856 263 834 247L775 238L774 238Q698 257 639 266L642 302 Z"/>
<path id="z36032d6" d="M391 428Q372 415 350 408Q341 407 336 415Q332 421 340 430Q373 503 356 658Q344 707 348 727Q358 758 369 769Q381 781 389 768Q393 761 398 750L405 717Q408 693 409 646L409 621Q408 594 407 548L407 526Q406 472 410 456Q410 455 411 455L391 428 Z"/>
<path id="z36032d7" d="M644 727Q645 737 653 748Q668 779 678 778Q693 777 710 742Q726 714 725 692Q715 617 718 501Q718 467 737 439Q747 423 739 413Q711 389 663 369Q647 363 624 372Q552 405 391 428L411 455Q520 425 602 410Q630 404 640 419Q658 440 653 633Q652 685 644 709L644 727 Z"/>
<path id="z36032d8" d="M407 548Q417 549 433 548Q530 529 604 515Q626 511 617 499Q607 486 583 482Q558 479 407 526L407 548 Z"/>
<path id="z36032d9" d="M409 646Q410 646 615 611Q637 607 629 595Q619 582 595 577Q564 574 409 621L409 646 Z"/>
<path id="z36032d10" d="M398 750Q404 751 412 750Q484 737 639 728Q640 727 644 727L644 709Q638 702 624 692Q609 683 580 689Q483 708 405 717L398 750 Z"/>
<path id="z36032d11" d="M406 788Q378 860 191 964Q166 976 196 977Q284 981 420 878Q457 850 475 839Q488 829 488 818Q487 803 461 790Q433 774 419 775Q412 775 406 788 Z"/>
<path id="z36032d12" d="M600 824Q651 878 709 955Q725 980 742 986Q752 987 761 977Q777 964 766 913Q760 867 682 826Q633 801 604 789Q594 782 591 796Q590 811 600 824 Z"/>
<defs>
	<clipPath id="z36032c1"><use xlink:href="#z36032d1"/></clipPath>
	<clipPath id="z36032c2"><use xlink:href="#z36032d2"/></clipPath>
	<clipPath id="z36032c3"><use xlink:href="#z36032d3"/></clipPath>
	<clipPath id="z36032c4"><use xlink:href="#z36032d4"/></clipPath>
	<clipPath id="z36032c5"><use xlink:href="#z36032d5"/></clipPath>
	<clipPath id="z36032c6"><use xlink:href="#z36032d6"/></clipPath>
	<clipPath id="z36032c7"><use xlink:href="#z36032d7"/></clipPath>
	<clipPath id="z36032c8"><use xlink:href="#z36032d8"/></clipPath>
	<clipPath id="z36032c9"><use xlink:href="#z36032d9"/></clipPath>
	<clipPath id="z36032c10"><use xlink:href="#z36032d10"/></clipPath>
	<clipPath id="z36032c11"><use xlink:href="#z36032d11"/></clipPath>
	<clipPath id="z36032c12"><use xlink:href="#z36032d12"/></clipPath>
</defs>
<path pathLength="3333" clip-path="url(#z36032c1)" d="M152 183L428 133L468 147L409 337L373 362L314 312"/>
<path pathLength="3333" clip-path="url(#z36032c2)" d="M317 31L348 70L292 216L220 314L101 407"/>
<path pathLength="3333" clip-path="url(#z36032c3)" d="M553 130L589 152L630 323"/>
<path pathLength="3333" clip-path="url(#z36032c4)" d="M624 138L824 111L857 154L806 237L786 238"/>
<path pathLength="3333" clip-path="url(#z36032c5)" d="M650 294L759 264L849 268"/>
<path pathLength="3333" clip-path="url(#z36032c6)" d="M344 419L381 461L380 766"/>
<path pathLength="3333" clip-path="url(#z36032c7)" d="M402 432L629 390L690 426L674 772"/>
<path pathLength="3333" clip-path="url(#z36032c8)" d="M415 540L613 502"/>
<path pathLength="3333" clip-path="url(#z36032c9)" d="M416 637L626 597"/>
<path pathLength="3333" clip-path="url(#z36032c10)" d="M409 744L642 716"/>
<path pathLength="3333" clip-path="url(#z36032c11)" d="M484 817L431 817L326 910L189 970"/>
<path pathLength="3333" clip-path="url(#z36032c12)" d="M598 793L720 903L753 978"/>
</svg>