<!--
AnimCJK 2016-2026 Copyright FM-SH, https://github.com/parsimonhi/animCJK
Derived from:
    MakeMeAHanzi project - https://github.com/skishore/makemeahanzi
    Arphic PL KaitiM GB font
    Arphic PL KaitiM Big5 font
You can redistribute and/or modify this file under the terms of the Arphic Public License
as published by Arphic Technology Co., Ltd.
You should have received a copy of this license along with this file.
If not, see https://ftp.gnu.org/non-gnu/chinese-fonts-truetype/LICENSE.
-->
<svg id="z36101" class="acjk" viewBox="0 0 1024 1024" xmlns="http://www.w3.org/2000/svg">
<style>
<![CDATA[
@keyframes zk {
	to {
		stroke-dashoffset:0;
	}
}
svg.acjk path[clip-path] {
	--t:0.8s;
	animation:zk var(--t) linear forwards var(--d);
	stroke-dasharray:3337;
	stroke-dashoffset:3339;
	stroke-width:128;
	stroke-linecap:round;
	fill:none;
	stroke:#000;
}
svg.acjk path[id] {fill:#ccc;}
]]>
</style>
<path id="z36101d1" d="M388 129Q484 105 487 103Q494 96 491 89Q484 80 461 75Q425 69 395 87C360 98 360 98 343 103Q303 112 254 118Q226 124 246 137Q280 155 341 139Q342 139 344 139C373 132 373 132 388 129Z"/>
<path id="z36101d2" d="M380 184Q384 156 388 129C393 101 393 101 395 87Q395 84 403 62Q406 53 392 42Q367 27 348 23Q336 20 330 27Q324 31 330 44Q339 56 343 103C344 127 344 127 344 139Q344 164 344 193C344 205 378 196 380 184Z"/>
<path id="z36101d3" d="M308 238Q317 228 503 194Q518 193 518 185Q519 173 502 166Q477 156 457 162Q415 172 380 184C356 190 356 190 344 193Q185 233 87 249Q75 250 73 258Q70 268 84 277Q120 299 157 287Q221 263 271 248C284 245 298 246 308 238Z"/>
<path id="z36101d4" d="M349 290Q349 289 350 288Q351 278 345 257Q341 247 323 241Q316 238 308 238C295 238 263 238 271 248Q275 255 292 266Q305 276 319 290C324 294 324 294 327 296C334 300 348 297 349 290Z"/>
<path id="z36101d5" d="M319 331Q334 319 466 291Q478 288 478 283Q478 273 464 267Q443 260 426 265Q381 278 349 290C334 294 334 294 327 296Q200 332 160 338Q151 339 149 346Q148 353 159 362Q195 380 222 368Q250 355 276 346C290 340 307 340 319 331Z"/>
<path id="z36101d6" d="M380 489Q390 470 404 441Q413 414 430 398Q437 395 439 389Q440 383 426 365Q405 343 354 343Q353 343 325 338C317 336 316 362 324 363Q372 369 378 378Q387 396 351 452Q330 480 313 482Q309 482 295 480Q270 470 266 474Q263 481 275 489Q290 501 297 528Q300 540 307 544Q316 548 340 535Q352 526 362 516C374 498 374 498 380 489Z"/>
<path id="z36101d7" d="M325 338Q322 334 319 331C310 319 282 332 276 346Q249 433 98 508Q92 512 96 515Q111 525 183 494Q247 466 305 385Q312 373 324 363C330 357 330 345 325 338Z"/>
<path id="z36101d8" d="M616 162Q667 81 669 77Q668 73 667 71Q663 61 640 45Q618 32 603 32Q588 33 596 51Q609 78 563 170Q541 212 508 259Q501 268 499 273Q498 282 508 279Q517 278 546 249C554 241 554 241 558 237Q580 209 604 180C612 168 612 168 616 162Z"/>
<path id="z36101d9" d="M705 185Q748 172 795 160Q817 153 821 150Q828 143 824 134Q817 124 789 120Q761 116 735 129Q710 139 683 148Q653 155 618 161Q615 161 616 162C609 164 597 177 604 180Q628 192 671 193C694 188 694 188 705 185Z"/>
<path id="z36101d10" d="M688 318Q730 243 735 238Q747 225 735 214Q717 190 705 185C695 179 669 182 671 193Q677 227 645 295C634 314 634 314 628 323Q583 375 504 408Q491 412 500 417Q539 430 600 400Q615 393 663 353C680 330 680 330 688 318Z"/>
<path id="z36101d11" d="M663 353Q750 422 772 428Q838 428 910 406Q925 402 926 398Q927 392 914 389Q766 353 688 318C659 303 659 303 645 295Q630 285 615 276Q575 248 558 237C553 234 542 245 546 249Q564 267 628 323C651 343 651 343 663 353Z"/>
<path id="z36101d12" d="M385 492Q384 491 380 489C371 483 358 506 362 516Q384 585 364 698Q345 752 375 789Q385 799 392 789Q396 783 400 775C406 765 406 753 408 742Q411 724 412 692C412 675 412 675 412 666Q412 639 413 611C413 594 413 594 413 585Q413 540 416 524C418 509 397 501 385 492Z"/>
<path id="z36101d13" d="M637 761Q638 767 643 773Q653 798 662 797Q675 796 688 769Q700 747 697 703Q685 558 711 520Q721 505 714 496Q689 471 643 451Q628 445 605 453Q524 483 385 492C370 492 401 526 416 524Q417 523 422 523Q522 504 596 495Q621 491 630 504Q640 519 641 568Q645 707 638 735C637 752 637 752 637 761Z"/>
<path id="z36101d14" d="M413 611Q420 611 428 611Q515 601 578 594Q600 593 593 579Q583 566 560 560Q539 556 413 585C405 587 404 611 413 611Z"/>
<path id="z36101d15" d="M412 692Q416 692 425 692Q515 682 581 678Q603 677 596 663Q587 650 564 643Q531 637 412 666C403 667 403 692 412 692Z"/>
<path id="z36101d16" d="M400 775Q404 775 411 775Q483 763 637 761C646 761 645 740 638 735Q632 729 624 723Q609 713 581 719Q485 735 408 742C397 744 389 775 400 775Z"/>
<path id="z36101d17" d="M422 818Q407 875 246 973Q224 983 251 985Q308 988 436 901Q437 895 487 862Q499 852 498 843Q497 830 473 818Q448 805 435 805Q428 806 422 818Z"/>
<path id="z36101d18" d="M597 860Q640 903 693 964Q709 985 724 990Q733 991 741 981Q754 968 742 923Q738 899 720 882Q704 869 666 853Q623 835 599 828Q589 822 587 835Q586 848 597 860Z"/>
<defs>
	<clipPath id="z36101c1"><use href="#z36101d1"/></clipPath>
	<clipPath id="z36101c2"><use href="#z36101d2"/></clipPath>
	<clipPath id="z36101c3"><use href="#z36101d3"/></clipPath>
	<clipPath id="z36101c4"><use href="#z36101d4"/></clipPath>
	<clipPath id="z36101c5"><use href="#z36101d5"/></clipPath>
	<clipPath id="z36101c6"><use href="#z36101d6"/></clipPath>
	<clipPath id="z36101c7"><use href="#z36101d7"/></clipPath>
	<clipPath id="z36101c8"><use href="#z36101d8"/></clipPath>
	<clipPath id="z36101c9"><use href="#z36101d9"/></clipPath>
	<clipPath id="z36101c10"><use href="#z36101d10"/></clipPath>
	<clipPath id="z36101c11"><use href="#z36101d11"/></clipPath>
	<clipPath id="z36101c12"><use href="#z36101d12"/></clipPath>
	<clipPath id="z36101c13"><use href="#z36101d13"/></clipPath>
	<clipPath id="z36101c14"><use href="#z36101d14"/></clipPath>
	<clipPath id="z36101c15"><use href="#z36101d15"/></clipPath>
	<clipPath id="z36101c16"><use href="#z36101d16"/></clipPath>
	<clipPath id="z36101c17"><use href="#z36101d17"/></clipPath>
	<clipPath id="z36101c18"><use href="#z36101d18"/></clipPath>
</defs>
<path style="--d:1s;" pathLength="3333" clip-path="url(#z36101c1)" d="M243 127L488 95"/>
<path style="--d:2s;" pathLength="3333" clip-path="url(#z36101c2)" d="M334 30L370 61L358 196"/>
<path style="--d:3s;" pathLength="3333" clip-path="url(#z36101c3)" d="M77 261L150 263L511 184"/>
<path style="--d:4s;" pathLength="3333" clip-path="url(#z36101c4)" d="M275 246L340 293"/>
<path style="--d:5s;" pathLength="3333" clip-path="url(#z36101c5)" d="M155 347L472 282"/>
<path style="--d:6s;" pathLength="3333" clip-path="url(#z36101c6)" d="M323 346L409 387L335 504L305 511L275 478"/>
<path style="--d:7s;" pathLength="3333" clip-path="url(#z36101c7)" d="M313 331L222 450L104 511"/>
<path style="--d:8s;" pathLength="3333" clip-path="url(#z36101c8)" d="M602 40L630 84L507 274"/>
<path style="--d:9s;" pathLength="3333" clip-path="url(#z36101c9)" d="M611 175L822 138"/>
<path style="--d:10s;" pathLength="3333" clip-path="url(#z36101c10)" d="M676 191L703 233L646 338L570 394L504 413"/>
<path style="--d:11s;" pathLength="3333" clip-path="url(#z36101c11)" d="M552 244L780 391L918 397"/>
<path style="--d:12s;" pathLength="3333" clip-path="url(#z36101c12)" d="M377 492L393 568L377 788"/>
<path style="--d:13s;" pathLength="3333" clip-path="url(#z36101c13)" d="M390 496L619 471L666 497L660 791"/>
<path style="--d:14s;" pathLength="3333" clip-path="url(#z36101c14)" d="M412 600L591 582"/>
<path style="--d:15s;" pathLength="3333" clip-path="url(#z36101c15)" d="M412 681L594 668"/>
<path style="--d:16s;" pathLength="3333" clip-path="url(#z36101c16)" d="M400 765L640 749"/>
<path style="--d:17s;" pathLength="3333" clip-path="url(#z36101c17)" d="M436 808L448 853L245 978"/>
<path style="--d:18s;" pathLength="3333" clip-path="url(#z36101c18)" d="M594 834L693 907L732 984"/>
</svg>