<!--
AnimCJK 2016-2017 Copyright Francois Mizessyn, http://gooo.free.fr/animCJK/
Derived from:
    MakeMeAHanzi project - https://github.com/skishore/makemeahanzi
    Arphic PL KaitiM GB - https://apps.ubuntu.com/cat/applications/precise/fonts-arphic-gkai00mp/
    Arphic PL UKai - https://apps.ubuntu.com/cat/applications/fonts-arphic-ukai/
You can redistribute and/or modify this file under the terms of the Arphic Public License
as published by Arphic Technology Co., Ltd.
You should have received a copy of this license (the directory "APL") along with this file;
if not, see http://ftp.gnu.org/non-gnu/chinese-fonts-truetype/LICENSE.
-->
<svg id="z36104" class="acjk" version="1.1" viewBox="0 0 1024 1024" xmlns="http://www.w3.org/2000/svg" xmlns:xlink="http://www.w3.org/1999/xlink">
<style>
<![CDATA[
	@keyframes z36104k {
		from {
			stroke:#c00;
			stroke-dashoffset:3000;
		}
		75% {
			stroke:#c00;
			stroke-dashoffset:0;
		}
		to {
			stroke:#000;
		}
	}
	#z36104 path[clip-path] {
		animation:z36104k 1s linear both;
		stroke-dasharray:3000;
		stroke-width:128;
		stroke-linecap:round;
		fill:none;
	}
	#z36104 path[clip-path="url(#z36104c1)"] {animation-delay:1s;}
	#z36104 path[clip-path="url(#z36104c2)"] {animation-delay:2s;}
	#z36104 path[clip-path="url(#z36104c3)"] {animation-delay:3s;}
	#z36104 path[clip-path="url(#z36104c4)"] {animation-delay:4s;}
	#z36104 path[clip-path="url(#z36104c5)"] {animation-delay:5s;}
	#z36104 path[clip-path="url(#z36104c6)"] {animation-delay:6s;}
	#z36104 path[clip-path="url(#z36104c7)"] {animation-delay:7s;}
	#z36104 path[clip-path="url(#z36104c8)"] {animation-delay:8s;}
	#z36104 path[clip-path="url(#z36104c9)"] {animation-delay:9s;}
	#z36104 path[clip-path="url(#z36104c10)"] {animation-delay:10s;}
	#z36104 path[clip-path="url(#z36104c11)"] {animation-delay:11s;}
	#z36104 path[clip-path="url(#z36104c12)"] {animation-delay:12s;}
	#z36104 path[clip-path="url(#z36104c13)"] {animation-delay:13s;}
	#z36104 path[clip-path="url(#z36104c14)"] {animation-delay:14s;}
	#z36104 path[clip-path="url(#z36104c15)"] {animation-delay:15s;}
	#z36104 path[clip-path="url(#z36104c16)"] {animation-delay:16s;}
	#z36104 path[clip-path="url(#z36104c17)"] {animation-delay:17s;}
	#z36104 path[clip-path="url(#z36104c18)"] {animation-delay:18s;}
	#z36104 path {fill:#ccc;}
]]>
</style>
<g transform="scale(1,-1) translate(0,-900)">
	<path id="z36104d1" d="M199 699Q189 709 168 717Q159 721 149 718Q143 714 148 702Q149 693 154 685Q181 630 161 404Q139 314 171 277Q181 265 190 276Q197 288 200 301L203 330Q203 342 204 414L204 438Q205 496 205 538L206 564Q206 666 210 672L199 699Z"/>
	<path id="z36104d2" d="M305 312Q320 288 334 265Q350 241 357 244Q367 245 380 274Q389 295 389 371Q380 644 400 678Q410 696 403 706Q396 716 347 733Q323 742 307 732Q246 708 199 699L210 672Q214 673 220 674Q248 680 284 689Q315 696 325 686Q337 676 337 631Q340 448 332 348Q333 335 327 329L305 312Z"/>
	<path id="z36104d3" d="M205 538Q259 551 299 557Q317 561 309 570Q300 580 280 583Q261 584 206 564L205 538Z"/>
	<path id="z36104d4" d="M204 414Q205 413 213 414Q262 424 298 430Q317 434 309 445Q299 458 276 460Q237 463 204 438L204 414Z"/>
	<path id="z36104d5" d="M200 301Q207 300 217 302Q245 309 305 312L327 329Q321 336 306 346Q291 353 203 330L200 301Z"/>
	<path id="z36104d6" d="M198 226Q192 166 67 36Q49 20 74 26Q135 32 268 201Q277 213 273 221Q269 234 244 238Q217 245 206 241Q199 240 198 226Z"/>
	<path id="z36104d7" d="M331 170Q356 142 383 109Q392 97 404 96Q411 95 417 105Q423 115 419 139Q418 158 391 178Q331 214 316 210Q312 209 311 198Q312 189 331 170Z"/>
	<path id="z36104d8" d="M500 723Q525 698 554 669Q566 656 581 656Q591 656 597 669Q601 682 595 711Q589 739 497 769Q482 773 476 771Q472 767 472 755Q475 745 500 723Z"/>
	<path id="z36104d9" d="M759 813Q744 783 669 674Q662 658 677 662Q731 704 760 732Q817 790 844 804Q863 816 851 832Q836 847 809 858Q785 870 773 865Q760 862 766 850Q770 832 759 813Z"/>
	<path id="z36104d10" d="M469 586Q457 590 442 591Q432 594 428 589Q424 583 431 569Q459 517 477 432Q481 407 497 390Q513 371 518 385Q518 388 519 391L519 422Q518 431 516 441Q498 529 493 557L469 586Z"/>
	<path id="z36104d11" d="M804 426Q805 422 807 415Q811 400 824 401Q837 402 844 416Q857 431 880 506Q896 555 931 583Q949 598 934 613Q918 629 870 655Q857 664 785 647Q709 640 582 608Q518 595 469 586L493 557Q539 573 619 589L655 595Q811 631 839 616Q848 609 842 580Q818 469 806 442L804 426Z"/>
	<path id="z36104d12" d="M669 444Q673 498 678 539Q682 575 667 586Q660 592 655 595L619 589Q625 577 629 437L669 444Z"/>
	<path id="z36104d13" d="M551 506Q535 503 555 490Q561 487 626 494L674 501Q716 507 753 513Q776 516 768 528Q758 541 733 545Q712 546 675 537L625 525Q587 516 551 506Z"/>
	<path id="z36104d14" d="M519 391Q531 404 801 426Q802 427 804 426L806 442Q800 449 786 459Q770 468 669 444L629 437Q569 430 519 422L519 391Z"/>
	<path id="z36104d15" d="M563 300Q556 309 529 321Q520 325 511 322Q505 318 510 307Q511 301 514 296Q535 260 520 108Q496 60 536 12Q545 2 553 12Q562 27 564 48L565 80Q565 81 566 165L566 192Q566 264 569 271L563 300Z"/>
	<path id="z36104d16" d="M715 68Q746 28 769 -8Q778 -26 789 -25Q804 -24 819 8Q835 45 832 89Q826 144 818 250Q817 278 832 298Q839 310 831 319Q815 337 766 357Q750 366 736 357Q681 327 563 300L569 271Q584 272 722 312Q743 316 754 310Q769 298 767 145Q768 105 764 91Q760 72 742 81L715 68Z"/>
	<path id="z36104d17" d="M566 165Q597 165 702 191Q702 192 704 192Q710 198 706 204Q702 211 681 217Q659 220 639 211Q620 204 597 199Q582 196 566 192L566 165Z"/>
	<path id="z36104d18" d="M564 48Q564 49 565 49Q613 61 715 68L742 81Q739 82 737 84Q730 91 714 102Q699 109 673 103Q613 90 565 80L564 48Z"/>
	<defs>
		<clipPath id="z36104c1"><use xlink:href="#z36104d1"/></clipPath>
		<clipPath id="z36104c2"><use xlink:href="#z36104d2"/></clipPath>
		<clipPath id="z36104c3"><use xlink:href="#z36104d3"/></clipPath>
		<clipPath id="z36104c4"><use xlink:href="#z36104d4"/></clipPath>
		<clipPath id="z36104c5"><use xlink:href="#z36104d5"/></clipPath>
		<clipPath id="z36104c6"><use xlink:href="#z36104d6"/></clipPath>
		<clipPath id="z36104c7"><use xlink:href="#z36104d7"/></clipPath>
		<clipPath id="z36104c8"><use xlink:href="#z36104d8"/></clipPath>
		<clipPath id="z36104c9"><use xlink:href="#z36104d9"/></clipPath>
		<clipPath id="z36104c10"><use xlink:href="#z36104d10"/></clipPath>
		<clipPath id="z36104c11"><use xlink:href="#z36104d11"/></clipPath>
		<clipPath id="z36104c12"><use xlink:href="#z36104d12"/></clipPath>
		<clipPath id="z36104c13"><use xlink:href="#z36104d13"/></clipPath>
		<clipPath id="z36104c14"><use xlink:href="#z36104d14"/></clipPath>
		<clipPath id="z36104c15"><use xlink:href="#z36104d15"/></clipPath>
		<clipPath id="z36104c16"><use xlink:href="#z36104d16"/></clipPath>
		<clipPath id="z36104c17"><use xlink:href="#z36104d17"/></clipPath>
		<clipPath id="z36104c18"><use xlink:href="#z36104d18"/></clipPath>
	</defs>
	<path pathLength="2999" clip-path="url(#z36104c1)" d="M155 708L186 661L178 276"/>
	<path pathLength="2999" clip-path="url(#z36104c2)" d="M205 698L319 714L369 686L348 250"/>
	<path pathLength="2999" clip-path="url(#z36104c3)" d="M210 547L307 569"/>
	<path pathLength="2999" clip-path="url(#z36104c4)" d="M208 422L303 442"/>
	<path pathLength="2999" clip-path="url(#z36104c5)" d="M209 309L319 330"/>
	<path pathLength="2999" clip-path="url(#z36104c6)" d="M206 234L230 201L146 93L66 31"/>
	<path pathLength="2999" clip-path="url(#z36104c7)" d="M318 205L392 140L406 100"/>
	<path pathLength="2999" clip-path="url(#z36104c8)" d="M479 766L566 701L580 660"/>
	<path pathLength="2999" clip-path="url(#z36104c9)" d="M771 858L807 814L675 668"/>
	<path pathLength="2999" clip-path="url(#z36104c10)" d="M435 582L468 548L509 386"/>
	<path pathLength="2999" clip-path="url(#z36104c11)" d="M478 586L859 633L892 593L821 407"/>
	<path pathLength="2999" clip-path="url(#z36104c12)" d="M627 584L652 548L645 441"/>
	<path pathLength="2999" clip-path="url(#z36104c13)" d="M548 501L763 525"/>
	<path pathLength="2999" clip-path="url(#z36104c14)" d="M525 401L800 438"/>
	<path pathLength="2999" clip-path="url(#z36104c15)" d="M516 314L545 272L542 12"/>
	<path pathLength="2999" clip-path="url(#z36104c16)" d="M570 292L748 337L795 306L792 52L775 27L721 63"/>
	<path pathLength="2999" clip-path="url(#z36104c17)" d="M571 173L701 200"/>
	<path pathLength="2999" clip-path="url(#z36104c18)" d="M570 58L732 82"/>
</g>
</svg>