<!--
AnimCJK 2016-2026 Copyright FM-SH, https://github.com/parsimonhi/animCJK
Derived from:
    MakeMeAHanzi project - https://github.com/skishore/makemeahanzi
    Arphic PL KaitiM GB font
    Arphic PL KaitiM Big5 font
You can redistribute and/or modify this file under the terms of the Arphic Public License
as published by Arphic Technology Co., Ltd.
You should have received a copy of this license along with this file.
If not, see https://ftp.gnu.org/non-gnu/chinese-fonts-truetype/LICENSE.
-->
<svg id="z36112" class="acjk" viewBox="0 0 1024 1024" xmlns="http://www.w3.org/2000/svg">
<style>
<![CDATA[
@keyframes zk {
	to {
		stroke-dashoffset:0;
	}
}
svg.acjk path[clip-path] {
	--t:0.8s;
	animation:zk var(--t) linear forwards var(--d);
	stroke-dasharray:3337;
	stroke-dashoffset:3339;
	stroke-width:128;
	stroke-linecap:round;
	fill:none;
	stroke:#000;
}
svg.acjk path[id] {fill:#ccc;}
]]>
</style>
<path id="z36112d1" d="M194 208C162 185 136 181 156 227C173 268 173 406 160 497C150 559 148 599 171 627C185 643 193 626 200 607C203 596 203 585 204 575C204 559 204 505 205 482C206 464 206 464 206 455C207 420 207 390 208 366C209 348 209 348 209 339C209 314 209 253 214 232C216 222 202 214 194 208Z"/>
<path id="z36112d2" d="M320 594C349 648 365 654 384 617C389 605 393 571 391 520C383 340 382 239 396 213C402 200 402 191 397 185C391 177 372 170 341 162C323 157 311 158 300 165C262 185 226 199 194 208C184 210 204 236 214 232C249 219 276 210 294 206C322 200 332 199 334 261C335 333 336 383 335 450C334 488 335 543 322 565C318 574 316 585 320 594Z"/>
<path id="z36112d3" d="M208 366C210 368 236 364 301 352C334 345 307 322 278 320C254 318 231 324 209 339C201 344 199 366 208 366Z"/>
<path id="z36112d4" d="M205 482C221 482 237 479 297 468C330 461 303 437 274 436C262 435 230 436 206 455C198 460 196 482 205 482Z"/>
<path id="z36112d5" d="M200 607C216 609 215 601 320 594C330 594 330 571 322 565C312 555 297 549 204 575C193 577 189 607 200 607Z"/>
<path id="z36112d6" d="M192 670C183 710 140 764 64 829C52 838 53 841 70 839C152 825 217 744 256 699C274 677 254 666 236 662C218 657 197 644 192 670Z"/>
<path id="z36112d7" d="M313 733C325 748 338 767 353 788C368 810 397 812 394 759C392 739 365 718 318 694C304 687 295 684 295 702C295 708 301 717 313 733Z"/>
<path id="z36112d8" d="M806 369C810 344 816 323 823 306C833 281 833 281 838 268C843 255 857 238 866 229C876 217 876 204 866 195C855 186 832 176 799 162C788 157 775 157 762 164C737 174 713 186 690 193C653 204 653 204 635 209C596 220 556 226 515 233C504 234 498 237 501 244C502 249 510 252 522 257C538 262 557 260 579 254C597 248 617 244 637 240C672 231 672 231 689 227C707 222 725 218 745 213C759 209 768 210 775 216C782 222 784 243 778 281C775 300 775 300 773 310C770 326 765 343 762 360C760 375 803 384 806 369Z"/>
<path id="z36112d9" d="M823 306C877 301 935 296 968 297C1004 297 995 280 982 271C964 259 941 251 924 251C887 250 871 260 838 268C798 277 798 277 778 281C756 285 707 295 686 299C654 304 654 304 638 307C563 319 504 327 421 342C410 343 408 348 417 357C428 368 450 377 472 371C528 353 570 341 638 330C669 325 669 325 685 322C709 317 755 311 773 310C806 307 806 307 823 306Z"/>
<path id="z36112d10" d="M680 417C718 410 762 405 813 397C837 392 826 380 806 369C793 361 777 357 762 360C745 365 705 375 682 381C652 388 652 388 637 392C596 401 557 408 521 414C508 416 505 422 514 432C518 436 523 440 530 443C536 445 543 444 552 442C573 435 602 429 637 424C666 419 666 419 680 417Z"/>
<path id="z36112d11" d="M635 479C592 488 546 494 499 504C490 505 488 511 496 518C507 528 529 533 557 525C626 504 713 489 821 489C826 488 836 487 839 483C842 477 838 471 831 466C802 446 776 444 748 454C728 460 704 464 677 470C649 476 649 476 635 479Z"/>
<path id="z36112d12" d="M677 470C677 452 679 434 680 417C681 393 681 393 682 381C683 361 684 341 685 322C686 307 686 307 686 299C687 274 688 250 689 227C690 204 690 204 690 193C690 178 694 145 707 94C708 85 704 76 690 68C666 54 645 47 630 45C619 43 611 45 606 51C601 55 600 63 607 73C637 114 632 164 635 209C636 230 636 230 637 240C638 260 638 282 638 307C638 322 638 322 638 330C638 350 637 370 637 392C637 413 637 413 637 424C637 440 635 459 635 479C635 493 677 484 677 470Z"/>
<path id="z36112d13" d="M464 547C453 567 440 587 425 605C412 619 411 635 420 657C423 665 430 669 442 663C468 647 478 622 481 593C482 575 487 559 483 548C479 536 468 537 464 547Z"/>
<path id="z36112d14" d="M560 576C571 595 584 612 602 621C613 626 627 611 625 594C622 573 607 561 589 553C579 549 567 546 557 546C548 545 549 551 550 556C550 559 553 566 560 576Z"/>
<path id="z36112d15" d="M676 564C690 584 703 603 722 613C733 619 750 610 745 586C742 573 736 564 730 558C721 550 711 542 699 538C685 532 663 522 666 544C666 547 669 553 676 564Z"/>
<path id="z36112d16" d="M814 558C828 570 842 584 857 599C865 607 901 627 888 567C884 549 857 536 812 523C801 519 790 518 793 534C793 537 800 546 814 558Z"/>
<path id="z36112d17" d="M505 687C478 678 447 669 463 702C487 737 495 787 511 864C513 875 547 872 545 861C539 820 529 766 524 717C522 705 516 691 505 687Z"/>
<path id="z36112d18" d="M827 832C849 766 869 725 888 707C901 693 897 680 881 669C864 656 847 646 832 636C822 630 800 637 759 645C661 662 596 673 505 687C493 689 513 721 524 717C526 715 544 711 579 705C592 702 592 702 599 701C617 697 644 692 680 688C711 684 711 684 727 682C784 674 808 661 804 708C801 735 789 778 769 839C762 857 820 850 827 832Z"/>
<path id="z36112d19" d="M629 853C625 811 625 737 599 701C596 695 578 698 579 705C591 753 576 813 606 855C611 861 629 861 629 853Z"/>
<path id="z36112d20" d="M689 848C738 700 757 711 727 682C716 671 677 673 680 688C691 727 685 750 674 849C673 854 687 853 689 848Z"/>
<path id="z36112d21" d="M511 864C472 867 434 868 396 873C383 874 380 878 390 890C401 903 424 916 451 910C605 873 780 864 980 878C1004 879 1021 870 996 848C973 829 948 819 919 819C887 819 856 828 827 832C788 837 788 837 769 839C744 842 717 846 689 848C679 849 679 849 674 849C658 850 643 851 629 853C614 854 614 854 606 855C585 856 565 859 545 861C522 863 522 863 511 864Z"/>
<defs>
	<clipPath id="z36112c1"><use href="#z36112d1"/></clipPath>
	<clipPath id="z36112c2"><use href="#z36112d2"/></clipPath>
	<clipPath id="z36112c3"><use href="#z36112d3"/></clipPath>
	<clipPath id="z36112c4"><use href="#z36112d4"/></clipPath>
	<clipPath id="z36112c5"><use href="#z36112d5"/></clipPath>
	<clipPath id="z36112c6"><use href="#z36112d6"/></clipPath>
	<clipPath id="z36112c7"><use href="#z36112d7"/></clipPath>
	<clipPath id="z36112c8"><use href="#z36112d8"/></clipPath>
	<clipPath id="z36112c9"><use href="#z36112d9"/></clipPath>
	<clipPath id="z36112c10"><use href="#z36112d10"/></clipPath>
	<clipPath id="z36112c11"><use href="#z36112d11"/></clipPath>
	<clipPath id="z36112c12"><use href="#z36112d12"/></clipPath>
	<clipPath id="z36112c13"><use href="#z36112d13"/></clipPath>
	<clipPath id="z36112c14"><use href="#z36112d14"/></clipPath>
	<clipPath id="z36112c15"><use href="#z36112d15"/></clipPath>
	<clipPath id="z36112c16"><use href="#z36112d16"/></clipPath>
	<clipPath id="z36112c17"><use href="#z36112d17"/></clipPath>
	<clipPath id="z36112c18"><use href="#z36112d18"/></clipPath>
	<clipPath id="z36112c19"><use href="#z36112d19"/></clipPath>
	<clipPath id="z36112c20"><use href="#z36112d20"/></clipPath>
	<clipPath id="z36112c21"><use href="#z36112d21"/></clipPath>
</defs>
<path style="--d:1s;" pathLength="3333" clip-path="url(#z36112c1)" d="M156 199L187 235L181 626"/>
<path style="--d:2s;" pathLength="3333" clip-path="url(#z36112c2)" d="M196 212L316 181L363 202L359 636"/>
<path style="--d:3s;" pathLength="3333" clip-path="url(#z36112c3)" d="M210 358L309 339"/>
<path style="--d:4s;" pathLength="3333" clip-path="url(#z36112c4)" d="M208 473L306 455"/>
<path style="--d:5s;" pathLength="3333" clip-path="url(#z36112c5)" d="M197 597L324 581"/>
<path style="--d:6s;" pathLength="3333" clip-path="url(#z36112c6)" d="M204 660L222 691L191 733L63 833"/>
<path style="--d:7s;" pathLength="3333" clip-path="url(#z36112c7)" d="M302 694L387 794"/>
<path style="--d:8s;" pathLength="3333" clip-path="url(#z36112c8)" d="M508 242L792 191L827 224L775 371"/>
<path style="--d:9s;" pathLength="3333" clip-path="url(#z36112c9)" d="M420 350L894 276L988 285"/>
<path style="--d:10s;" pathLength="3333" clip-path="url(#z36112c10)" d="M515 423L821 382"/>
<path style="--d:11s;" pathLength="3333" clip-path="url(#z36112c11)" d="M497 509L760 470L834 478"/>
<path style="--d:12s;" pathLength="3333" clip-path="url(#z36112c12)" d="M608 55L666 101L649 484"/>
<path style="--d:13s;" pathLength="3333" clip-path="url(#z36112c13)" d="M474 543L422 657"/>
<path style="--d:14s;" pathLength="3333" clip-path="url(#z36112c14)" d="M557 551L614 614"/>
<path style="--d:15s;" pathLength="3333" clip-path="url(#z36112c15)" d="M672 538L738 609"/>
<path style="--d:16s;" pathLength="3333" clip-path="url(#z36112c16)" d="M800 528L880 603"/>
<path style="--d:17s;" pathLength="3333" clip-path="url(#z36112c17)" d="M465 682L499 717L529 868"/>
<path style="--d:18s;" pathLength="3333" clip-path="url(#z36112c18)" d="M508 690L815 658L849 702L784 848"/>
<path style="--d:19s;" pathLength="3333" clip-path="url(#z36112c19)" d="M591 701L614 856"/>
<path style="--d:20s;" pathLength="3333" clip-path="url(#z36112c20)" d="M686 685L713 717L679 844"/>
<path style="--d:21s;" pathLength="3333" clip-path="url(#z36112c21)" d="M392 880L908 846L1002 860"/>
</svg>