<!--
AnimCJK 2016-2017 Copyright Francois Mizessyn, http://gooo.free.fr/animCJK/
Derived from:
    MakeMeAHanzi project - https://github.com/skishore/makemeahanzi
    Arphic PL KaitiM GB - https://apps.ubuntu.com/cat/applications/precise/fonts-arphic-gkai00mp/
    Arphic PL UKai - https://apps.ubuntu.com/cat/applications/fonts-arphic-ukai/
You can redistribute and/or modify this file under the terms of the Arphic Public License
as published by Arphic Technology Co., Ltd.
You should have received a copy of this license (the directory "APL") along with this file;
if not, see http://ftp.gnu.org/non-gnu/chinese-fonts-truetype/LICENSE.
-->
<svg id="z36198" class="acjk" version="1.1" viewBox="0 0 1024 1024" xmlns="http://www.w3.org/2000/svg" xmlns:xlink="http://www.w3.org/1999/xlink">
<style>
<![CDATA[
	@keyframes z36198k {
		from {
			stroke:#c00;
			stroke-dashoffset:3000;
		}
		75% {
			stroke:#c00;
			stroke-dashoffset:0;
		}
		to {
			stroke:#000;
		}
	}
	#z36198 path[clip-path] {
		animation:z36198k 1s linear both;
		stroke-dasharray:3000;
		stroke-width:128;
		stroke-linecap:round;
		fill:none;
	}
	#z36198 path[clip-path="url(#z36198c1)"] {animation-delay:1s;}
	#z36198 path[clip-path="url(#z36198c2)"] {animation-delay:2s;}
	#z36198 path[clip-path="url(#z36198c3)"] {animation-delay:3s;}
	#z36198 path[clip-path="url(#z36198c4)"] {animation-delay:4s;}
	#z36198 path[clip-path="url(#z36198c5)"] {animation-delay:5s;}
	#z36198 path[clip-path="url(#z36198c6)"] {animation-delay:6s;}
	#z36198 path[clip-path="url(#z36198c7)"] {animation-delay:7s;}
	#z36198 path[clip-path="url(#z36198c8)"] {animation-delay:8s;}
	#z36198 path[clip-path="url(#z36198c9)"] {animation-delay:9s;}
	#z36198 path[clip-path="url(#z36198c10)"] {animation-delay:10s;}
	#z36198 path[clip-path="url(#z36198c11)"] {animation-delay:11s;}
	#z36198 path {fill:#ccc;}
]]>
</style>
<g transform="scale(1,-1) translate(0,-900)">
	<path id="z36198d1" d="M382 604Q412 613 444 619Q478 628 484 633Q491 640 487 649Q480 659 452 666Q419 672 386 656L333 639Q321 638 313 634Q267 622 212 616Q178 609 203 594Q242 570 299 587Q315 591 333 594L382 604Z"/>
	<path id="z36198d2" d="M373 497Q377 552 382 604L386 656Q389 728 405 783Q409 793 389 809Q355 828 332 831Q316 835 308 827Q301 820 309 805Q328 777 328 759Q332 702 333 639L333 594Q333 545 332 488L373 497Z"/>
	<path id="z36198d3" d="M396 464Q447 474 505 481Q521 482 521 490Q522 502 506 511Q481 521 459 517Q410 507 373 497L332 488Q167 455 93 449Q80 448 78 440Q75 430 89 419Q126 392 165 405Q199 417 234 426L267 435Q301 447 366 458L396 464Z"/>
	<path id="z36198d4" d="M234 426Q255 405 242 280Q230 157 140 91Q127 81 124 75Q123 69 132 69Q159 66 211 113Q274 180 306 395Q312 411 295 422Q279 431 267 435L234 426Z"/>
	<path id="z36198d5" d="M430 359Q430 375 432 386Q439 423 422 443Q407 458 396 464L366 458Q384 416 379 185Q375 137 368 117Q365 104 341 107Q316 111 291 114Q281 115 279 109Q278 103 288 95Q349 49 369 21Q382 9 393 11Q403 15 414 47Q429 78 426 136Q426 263 428 333L430 359Z"/>
	<path id="z36198d6" d="M166 337Q144 291 112 250Q94 217 107 192Q113 176 131 186Q180 219 185 285Q191 313 186 336Q182 343 177 345Q170 344 166 337Z"/>
	<path id="z36198d7" d="M428 333Q432 327 442 319Q464 298 486 274Q496 264 509 263Q516 263 521 273Q525 283 520 307Q513 334 441 357Q434 358 430 359L428 333Z"/>
	<path id="z36198d8" d="M604 519Q668 633 699 707Q712 746 728 766Q735 778 728 790Q721 802 691 818Q663 831 644 827Q628 823 639 803Q666 763 607 614Q579 544 537 466Q530 456 528 449Q527 437 540 443Q549 447 589 497L604 519Z"/>
	<path id="z36198d9" d="M711 498Q856 540 865 547Q874 556 868 564Q861 576 830 580Q806 583 716 548Q632 526 604 519L589 497Q590 497 594 495Q630 479 678 487L711 498Z"/>
	<path id="z36198d10" d="M684 252Q691 265 738 395Q742 422 757 445Q767 461 753 471Q723 495 711 498L678 487Q678 486 679 483Q703 432 653 294Q652 293 650 289L630 250Q573 172 477 114Q464 107 475 103Q556 94 655 206Q656 209 658 210L684 252Z"/>
	<path id="z36198d11" d="M658 210Q713 134 764 71Q780 50 807 49Q954 49 966 62Q970 69 959 73Q797 139 724 211Q705 230 684 252L650 289Q613 332 571 386Q561 404 542 407Q518 408 511 401Q508 397 516 391Q552 369 573 333Q601 290 630 250L658 210Z"/>
	<defs>
		<clipPath id="z36198c1"><use xlink:href="#z36198d1"/></clipPath>
		<clipPath id="z36198c2"><use xlink:href="#z36198d2"/></clipPath>
		<clipPath id="z36198c3"><use xlink:href="#z36198d3"/></clipPath>
		<clipPath id="z36198c4"><use xlink:href="#z36198d4"/></clipPath>
		<clipPath id="z36198c5"><use xlink:href="#z36198d5"/></clipPath>
		<clipPath id="z36198c6"><use xlink:href="#z36198d6"/></clipPath>
		<clipPath id="z36198c7"><use xlink:href="#z36198d7"/></clipPath>
		<clipPath id="z36198c8"><use xlink:href="#z36198d8"/></clipPath>
		<clipPath id="z36198c9"><use xlink:href="#z36198d9"/></clipPath>
		<clipPath id="z36198c10"><use xlink:href="#z36198d10"/></clipPath>
		<clipPath id="z36198c11"><use xlink:href="#z36198d11"/></clipPath>
	</defs>
	<path pathLength="2999" clip-path="url(#z36198c1)" d="M203 605L480 642"/>
	<path pathLength="2999" clip-path="url(#z36198c2)" d="M311 824L366 779L345 492"/>
	<path pathLength="2999" clip-path="url(#z36198c3)" d="M82 438L137 427L516 492"/>
	<path pathLength="2999" clip-path="url(#z36198c4)" d="M243 421L277 392L250 225L206 133L133 75"/>
	<path pathLength="2999" clip-path="url(#z36198c5)" d="M375 453L405 400L394 95L371 59L285 106"/>
	<path pathLength="2999" clip-path="url(#z36198c6)" d="M177 338L114 189"/>
	<path pathLength="2999" clip-path="url(#z36198c7)" d="M436 352L508 267"/>
	<path pathLength="2999" clip-path="url(#z36198c8)" d="M641 822L689 767L617 584L533 449"/>
	<path pathLength="2999" clip-path="url(#z36198c9)" d="M597 500L865 559"/>
	<path pathLength="2999" clip-path="url(#z36198c10)" d="M684 482L724 447L666 269L592 174L481 107"/>
	<path pathLength="2999" clip-path="url(#z36198c11)" d="M519 399L555 382L799 100L959 68"/>
</g>
</svg>