<!--
AnimCJK 2016-2025 Copyright FM-SH - https://github.com/parsimonhi/animCJK
Derived from:
    MakeMeAHanzi project - https://github.com/skishore/makemeahanzi
    Arphic PL KaitiM GB font
    Arphic PL KaitiM Big5 font
You can redistribute and/or modify this file under the terms of the Arphic Public License
as published by Arphic Technology Co., Ltd.
You should have received a copy of this license along with this file.
If not, see https://ftp.gnu.org/non-gnu/chinese-fonts-truetype/LICENSE.
-->
<svg id="z36234" class="acjk" viewBox="0 0 1024 1024" xmlns="http://www.w3.org/2000/svg">
<style>
<![CDATA[
@keyframes zk {
	to {
		stroke-dashoffset:0;
	}
}
svg.acjk path[clip-path] {
	--t:0.8s;
	animation:zk var(--t) linear forwards var(--d);
	stroke-dasharray:3337;
	stroke-dashoffset:3339;
	stroke-width:128;
	stroke-linecap:round;
	fill:none;
	stroke:#000;
}
svg.acjk path[id] {fill:#ccc;}
]]>
</style>
<path id="z36234d1" d="M370 294C390 288 410 282 432 276C452 270 465 265 469 262C474 257 475 252 472 247C467 240 455 235 437 232C426 230 404 233 373 245C340 258 340 258 323 264C302 272 247 283 214 289C191 293 188 301 206 311C230 323 269 320 324 306C355 298 355 298 370 294Z"/>
<path id="z36234d2" d="M364 400C366 363 367 328 370 294C372 261 372 261 373 245C373 234 377 193 389 122C390 115 385 105 373 98C350 85 330 80 317 77C305 74 299 77 294 83C289 87 288 95 295 104C326 150 321 213 323 264C324 292 324 292 324 306C324 340 324 411 324 411C324 425 364 414 364 400Z"/>
<path id="z36234d3" d="M353 443C396 433 442 421 494 413C504 411 509 407 510 403C510 394 504 386 493 382C473 374 457 374 443 378C414 386 388 393 364 400C337 407 337 407 324 411C202 444 116 459 68 465C59 466 53 469 52 475C49 481 53 488 65 496C89 512 118 517 145 508C215 482 271 461 314 452C340 446 340 446 353 443Z"/>
<path id="z36234d4" d="M365 703C367 654 370 610 373 570C374 549 374 549 375 539C380 460 390 466 353 443C342 436 312 439 314 452C320 470 323 545 323 678C323 694 365 719 365 703Z"/>
<path id="z36234d5" d="M373 570C409 563 441 558 469 552C483 548 488 541 482 535C474 525 461 521 446 520C419 517 396 524 375 539C366 544 363 572 373 570Z"/>
<path id="z36234d6" d="M242 625C249 610 265 584 276 571C282 562 279 551 270 544C241 523 220 515 206 519C199 520 197 525 199 535C207 603 160 688 97 773C80 795 57 814 45 833C39 841 42 844 51 842C64 838 79 830 97 816C147 775 196 705 229 648C238 633 238 633 242 625Z"/>
<path id="z36234d7" d="M229 648C283 694 367 753 484 822C611 897 692 935 724 934C754 932 817 913 915 884C933 878 944 871 948 865C951 858 946 856 936 856C871 852 818 849 779 849C662 847 525 798 365 703C337 686 337 686 323 678C295 661 270 643 242 625C234 620 222 643 229 648Z"/>
<path id="z36234d8" d="M577 366C568 361 555 355 536 351C527 349 520 350 517 353C512 356 513 364 521 374C544 406 556 468 542 560C535 599 518 627 502 647C495 654 495 662 499 675C504 691 510 703 519 710C525 714 534 714 541 705C559 679 593 636 650 583C657 575 663 570 664 566C664 562 663 560 660 561C657 561 635 571 595 594C592 595 590 595 588 595C585 593 584 590 585 583C586 487 586 427 588 403C588 390 589 372 577 366Z"/>
<path id="z36234d9" d="M699 368C729 358 758 348 789 343C795 341 802 339 804 331C805 324 797 319 784 315C761 307 731 313 691 329C667 338 667 338 655 343C637 349 585 362 577 366C565 371 575 406 588 403C592 403 616 393 663 379C687 372 687 372 699 368Z"/>
<path id="z36234d10" d="M753 624C773 658 800 696 843 730C877 757 903 770 919 768C929 766 931 756 929 741C924 715 926 664 926 589C926 576 923 570 919 570C916 570 904 594 885 643C875 666 861 675 844 661C816 638 800 619 783 591C776 579 768 568 762 557C743 525 717 456 699 368C696 355 693 342 691 329C676 249 669 181 678 128C682 103 671 87 640 75C619 67 603 64 592 69C581 73 575 82 584 92C608 117 623 136 625 156C632 226 643 289 655 343C657 355 660 367 663 379C682 465 707 536 735 591C740 602 745 610 753 624Z"/>
<path id="z36234d11" d="M735 591C697 635 654 667 632 686C627 689 627 693 631 694C658 700 700 677 753 624C763 613 774 603 783 591C821 535 832 506 845 482C854 462 851 464 868 436C871 430 872 426 870 421C867 416 858 409 842 400C831 393 823 392 819 393C812 394 809 398 810 407C812 451 803 488 762 557C754 569 744 580 735 591Z"/>
<path id="z36234d12" d="M769 226C782 235 794 249 810 263C818 270 827 272 836 272C842 271 846 267 849 260C851 251 850 238 844 221C838 204 811 192 763 185C754 183 747 183 744 185C740 186 739 192 741 200C742 207 753 214 769 226Z"/>
<defs>
	<clipPath id="z36234c1"><use href="#z36234d1"/></clipPath>
	<clipPath id="z36234c2"><use href="#z36234d2"/></clipPath>
	<clipPath id="z36234c3"><use href="#z36234d3"/></clipPath>
	<clipPath id="z36234c4"><use href="#z36234d4"/></clipPath>
	<clipPath id="z36234c5"><use href="#z36234d5"/></clipPath>
	<clipPath id="z36234c6"><use href="#z36234d6"/></clipPath>
	<clipPath id="z36234c7"><use href="#z36234d7"/></clipPath>
	<clipPath id="z36234c8"><use href="#z36234d8"/></clipPath>
	<clipPath id="z36234c9"><use href="#z36234d9"/></clipPath>
	<clipPath id="z36234c10"><use href="#z36234d10"/></clipPath>
	<clipPath id="z36234c11"><use href="#z36234d11"/></clipPath>
	<clipPath id="z36234c12"><use href="#z36234d12"/></clipPath>
</defs>
<path style="--d:1s;" pathLength="3333" clip-path="url(#z36234c1)" d="M203 300L466 249"/>
<path style="--d:2s;" pathLength="3333" clip-path="url(#z36234c2)" d="M294 87L351 134L336 413"/>
<path style="--d:3s;" pathLength="3333" clip-path="url(#z36234c3)" d="M57 479L119 485L503 399"/>
<path style="--d:4s;" pathLength="3333" clip-path="url(#z36234c4)" d="M320 446L349 476L348 703"/>
<path style="--d:5s;" pathLength="3333" clip-path="url(#z36234c5)" d="M373 562L479 538"/>
<path style="--d:6s;" pathLength="3333" clip-path="url(#z36234c6)" d="M206 527L238 566L211 628L138 748L51 837"/>
<path style="--d:7s;" pathLength="3333" clip-path="url(#z36234c7)" d="M236 633L470 787L662 874L757 889L940 861"/>
<path style="--d:8s;" pathLength="3333" clip-path="url(#z36234c8)" d="M520 357L563 403L544 658L656 570"/>
<path style="--d:9s;" pathLength="3333" clip-path="url(#z36234c9)" d="M583 396L795 330"/>
<path style="--d:10s;" pathLength="3333" clip-path="url(#z36234c10)" d="M585 81L647 122L694 429L786 636L897 718L918 579"/>
<path style="--d:11s;" pathLength="3333" clip-path="url(#z36234c11)" d="M819 397L839 435L782 559L638 690"/>
<path style="--d:12s;" pathLength="3333" clip-path="url(#z36234c12)" d="M746 194L811 226L836 268"/>
</svg>