<!--
AnimCJK 2016-2026 Copyright FM-SH, https://github.com/parsimonhi/animCJK
Derived from:
    MakeMeAHanzi project - https://github.com/skishore/makemeahanzi
    Arphic PL KaitiM GB font
    Arphic PL KaitiM Big5 font
You can redistribute and/or modify this file under the terms of the Arphic Public License
as published by Arphic Technology Co., Ltd.
You should have received a copy of this license along with this file.
If not, see https://ftp.gnu.org/non-gnu/chinese-fonts-truetype/LICENSE.
-->
<svg id="z36331" class="acjk" viewBox="0 0 1024 1024" xmlns="http://www.w3.org/2000/svg">
<style>
<![CDATA[
@keyframes zk {
	to {
		stroke-dashoffset:0;
	}
}
svg.acjk path[clip-path] {
	--t:0.8s;
	animation:zk var(--t) linear forwards var(--d);
	stroke-dasharray:3337;
	stroke-dashoffset:3339;
	stroke-width:128;
	stroke-linecap:round;
	fill:none;
	stroke:#000;
}
svg.acjk path[id] {fill:#ccc;}
]]>
</style>
<path id="z36331d1" d="M318 191Q355 181 394 174Q419 167 424 163Q431 156 427 147Q420 137 392 130Q362 126 334 137Q304 147 273 155Q237 164 196 168Q162 175 187 190Q227 214 281 198Q282 197 285 198C307 193 307 193 318 191Z"/>
<path id="z36331d2" d="M330 327Q337 243 341 235Q350 214 318 191C308 185 283 187 285 198Q289 202 290 338C290 352 330 341 330 327Z"/>
<path id="z36331d3" d="M290 338Q239 350 187 364Q171 368 143 368Q130 369 128 379Q127 391 135 399Q156 415 187 433Q197 436 208 428Q229 412 395 338Q417 328 433 316Q445 309 446 300Q442 296 429 297Q381 312 330 327C303 334 303 334 290 338Z"/>
<path id="z36331d4" d="M536 234Q540 206 543 171Q546 158 547 149C548 140 545 127 537 124Q501 105 490 106Q475 109 486 126Q510 163 490 275Q484 299 472 327Q460 357 414 404Q404 414 400 418Q399 424 408 424Q435 424 474 385Q517 339 532 258C535 242 535 242 536 234Z"/>
<path id="z36331d5" d="M547 149Q571 145 634 125Q650 121 655 126Q662 133 657 165Q639 313 655 363Q671 396 738 411Q799 421 854 409Q891 399 917 378Q930 368 923 354Q901 309 887 256Q877 225 868 256Q858 329 843 341Q834 356 789 362Q740 369 706 348Q685 332 688 250Q689 189 745 124Q758 111 741 96Q716 80 684 71Q662 64 649 79Q613 103 538 123Q537 123 537 124C529 127 538 151 547 149Z"/>
<path id="z36331d6" d="M532 258Q550 270 591 306Q601 313 611 313Q618 313 622 304Q625 294 618 273Q614 258 589 248Q565 239 539 234Q538 233 536 234C528 234 526 253 532 258Z"/>
<path id="z36331d7" d="M360 463Q350 459 326 457Q316 456 312 460Q308 466 316 479Q341 519 359 589Q363 610 377 623Q393 641 398 627Q399 618 399 605C396 585 396 585 394 575Q381 511 378 490C376 479 370 467 360 463Z"/>
<path id="z36331d8" d="M608 551Q632 497 660 482Q676 466 664 450Q649 437 604 413Q583 404 530 426Q442 451 360 463C349 465 367 492 378 490Q565 453 574 456Q575 456 579 459Q588 469 562 542C556 557 602 566 608 551Z"/>
<path id="z36331d9" d="M499 592Q547 585 616 580Q626 579 627 571Q627 564 608 551C596 542 577 539 562 542Q558 542 556 543Q466 565 394 575C384 577 389 605 399 605Q408 606 420 604Q436 600 462 597C487 594 487 594 499 592Z"/>
<path id="z36331d10" d="M513 801Q514 756 518 718C519 697 519 697 520 686Q521 670 523 654Q523 644 524 636Q531 617 499 592C489 585 457 585 462 597Q469 610 473 695Q473 726 473 778C473 793 513 816 513 801Z"/>
<path id="z36331d11" d="M518 718Q522 718 529 718Q608 708 668 701Q696 697 685 681Q673 665 643 659Q610 653 520 686C510 690 507 718 518 718Z"/>
<path id="z36331d12" d="M333 686Q337 680 342 675Q349 666 346 656Q340 646 313 627Q294 614 285 615Q272 618 272 632Q273 719 180 815Q177 815 176 818Q151 846 85 891Q78 898 83 901Q107 910 188 861Q258 819 318 710C328 694 328 694 333 686Z"/>
<path id="z36331d13" d="M318 710Q477 842 682 950Q712 966 783 950Q829 940 880 925Q910 916 916 906Q920 896 903 895Q824 886 774 886Q648 880 528 808Q521 804 513 801C486 786 486 786 473 778Q403 738 333 686C325 680 310 704 318 710Z"/>
<defs>
	<clipPath id="z36331c1"><use href="#z36331d1"/></clipPath>
	<clipPath id="z36331c2"><use href="#z36331d2"/></clipPath>
	<clipPath id="z36331c3"><use href="#z36331d3"/></clipPath>
	<clipPath id="z36331c4"><use href="#z36331d4"/></clipPath>
	<clipPath id="z36331c5"><use href="#z36331d5"/></clipPath>
	<clipPath id="z36331c6"><use href="#z36331d6"/></clipPath>
	<clipPath id="z36331c7"><use href="#z36331d7"/></clipPath>
	<clipPath id="z36331c8"><use href="#z36331d8"/></clipPath>
	<clipPath id="z36331c9"><use href="#z36331d9"/></clipPath>
	<clipPath id="z36331c10"><use href="#z36331d10"/></clipPath>
	<clipPath id="z36331c11"><use href="#z36331d11"/></clipPath>
	<clipPath id="z36331c12"><use href="#z36331d12"/></clipPath>
	<clipPath id="z36331c13"><use href="#z36331d13"/></clipPath>
</defs>
<path style="--d:1s;" pathLength="3333" clip-path="url(#z36331c1)" d="M184 179L422 152"/>
<path style="--d:2s;" pathLength="3333" clip-path="url(#z36331c2)" d="M292 196L315 230L306 341"/>
<path style="--d:3s;" pathLength="3333" clip-path="url(#z36331c3)" d="M135 381L190 399L440 304"/>
<path style="--d:4s;" pathLength="3333" clip-path="url(#z36331c4)" d="M489 114L521 145L508 281L477 354L407 418"/>
<path style="--d:5s;" pathLength="3333" clip-path="url(#z36331c5)" d="M536 132L659 97L702 118L668 308L679 355L720 381L809 387L873 364L888 347L879 248"/>
<path style="--d:6s;" pathLength="3333" clip-path="url(#z36331c6)" d="M534 244L615 305"/>
<path style="--d:7s;" pathLength="3333" clip-path="url(#z36331c7)" d="M318 463L350 488L392 626"/>
<path style="--d:8s;" pathLength="3333" clip-path="url(#z36331c8)" d="M363 470L591 436L624 471L575 554"/>
<path style="--d:9s;" pathLength="3333" clip-path="url(#z36331c9)" d="M393 591L620 567"/>
<path style="--d:10s;" pathLength="3333" clip-path="url(#z36331c10)" d="M469 596L497 637L501 800"/>
<path style="--d:11s;" pathLength="3333" clip-path="url(#z36331c11)" d="M515 707L683 684"/>
<path style="--d:12s;" pathLength="3333" clip-path="url(#z36331c12)" d="M281 624L307 667L248 772L165 854L89 893"/>
<path style="--d:13s;" pathLength="3333" clip-path="url(#z36331c13)" d="M325 694L474 803L674 907L756 920L909 902"/>
</svg>