<!--
AnimCJK 2016-2026 Copyright FM-SH, https://github.com/parsimonhi/animCJK
Derived from:
    MakeMeAHanzi project - https://github.com/skishore/makemeahanzi
    Arphic PL KaitiM GB font
    Arphic PL KaitiM Big5 font
You can redistribute and/or modify this file under the terms of the Arphic Public License
as published by Arphic Technology Co., Ltd.
You should have received a copy of this license along with this file.
If not, see https://ftp.gnu.org/non-gnu/chinese-fonts-truetype/LICENSE.
-->
<svg id="z36448" class="acjk" viewBox="0 0 1024 1024" xmlns="http://www.w3.org/2000/svg">
<style>
<![CDATA[
@keyframes zk {
	to {
		stroke-dashoffset:0;
	}
}
svg.acjk path[clip-path] {
	--t:0.8s;
	animation:zk var(--t) linear forwards var(--d);
	stroke-dasharray:3337;
	stroke-dashoffset:3339;
	stroke-width:128;
	stroke-linecap:round;
	fill:none;
	stroke:#000;
}
svg.acjk path[id] {fill:#ccc;}
]]>
</style>
<path id="z36448d1" d="M210 206C194 200 139 178 158 217C175 253 190 302 199 364C201 382 207 397 218 410C238 434 243 409 242 390C241 379 240 369 239 359C231 304 222 253 220 233C218 224 219 210 210 206Z"/>
<path id="z36448d2" d="M375 334C385 281 399 246 415 230C429 214 430 200 415 192C402 184 388 175 371 165C359 158 339 166 309 180C277 194 243 200 210 206C201 208 211 236 220 233C232 229 251 224 309 212C344 204 349 218 342 257C337 281 332 306 327 334C324 350 372 350 375 334Z"/>
<path id="z36448d3" d="M297 381C321 375 353 370 391 365C413 361 390 338 375 334C360 328 342 329 327 334C293 344 263 353 239 359C229 361 232 390 242 390C246 390 252 390 260 389C285 384 285 384 297 381Z"/>
<path id="z36448d4" d="M316 654C316 613 319 574 319 538C319 517 319 517 319 506C319 400 335 409 297 381C287 373 258 377 260 389C282 474 275 576 277 666C277 680 316 668 316 654Z"/>
<path id="z36448d5" d="M319 538C351 532 378 529 401 524C434 516 407 493 378 492C362 491 343 496 319 506C309 510 309 540 319 538Z"/>
<path id="z36448d6" d="M214 685C204 597 201 543 203 524C204 509 199 498 191 492C176 481 160 475 144 471C129 467 110 471 123 493C138 520 158 587 178 696C180 708 216 697 214 685Z"/>
<path id="z36448d7" d="M178 696C122 712 101 711 89 713C68 715 72 738 82 746C95 757 114 768 138 780C144 782 152 780 160 774C193 746 353 669 393 649C413 638 411 620 388 629C364 637 340 646 316 654C290 662 290 662 277 666C256 672 235 678 214 685C190 692 190 692 178 696Z"/>
<path id="z36448d8" d="M618 147C634 159 652 174 671 190C681 198 693 202 705 200C713 199 718 194 721 184C723 173 719 157 711 136C706 123 693 113 672 107C621 95 592 91 584 97C580 99 579 105 582 115C584 123 596 133 618 147Z"/>
<path id="z36448d9" d="M535 333C556 341 572 340 605 334C744 305 835 288 850 280C874 266 841 248 820 245C794 240 756 257 670 276C567 298 514 300 514 302C502 304 523 328 535 333Z"/>
<path id="z36448d10" d="M514 302C464 267 444 285 455 304C472 334 470 371 470 405C465 623 407 744 344 840C308 894 354 864 364 854C478 730 507 560 524 399C527 369 529 347 535 333C540 321 524 309 514 302Z"/>
<path id="z36448d11" d="M777 491C822 484 863 478 883 475C894 473 893 458 875 451C853 442 827 441 783 451C750 458 750 458 733 462C709 467 675 473 644 477C615 480 615 480 601 482C582 484 562 485 540 488C523 489 520 495 534 505C556 521 580 525 606 520C631 515 631 515 644 512C670 506 699 502 731 498C762 493 762 493 777 491Z"/>
<path id="z36448d12" d="M644 477C644 458 644 441 646 426C647 415 642 408 632 402C589 376 557 381 574 410C586 432 597 456 601 482C604 507 604 507 606 520C610 552 606 583 608 612C608 624 614 636 621 645C626 652 633 652 637 646C640 640 641 634 642 628C643 607 643 607 644 597C645 568 644 540 644 512C644 489 644 489 644 477Z"/>
<path id="z36448d13" d="M761 580C765 549 772 519 777 491C781 464 781 464 783 451C785 433 790 407 805 373C807 366 804 358 793 350C774 336 757 329 744 326C728 321 712 329 723 348C741 381 735 425 733 462C732 486 732 486 731 498C729 524 726 551 724 580C724 592 759 592 761 580Z"/>
<path id="z36448d14" d="M642 628C662 629 698 622 781 616C797 614 797 599 761 580C750 574 736 578 724 580C706 583 673 592 644 597C634 599 632 628 642 628Z"/>
<path id="z36448d15" d="M514 721C502 750 489 779 473 807C460 826 462 845 473 865C478 875 487 878 499 869C528 844 538 810 539 771C539 750 540 733 535 720C529 707 518 710 514 721Z"/>
<path id="z36448d16" d="M597 736C608 786 620 815 632 823C632 823 661 836 660 790C659 768 640 750 626 734C616 717 590 706 597 736Z"/>
<path id="z36448d17" d="M696 725C718 780 737 811 751 817C753 818 778 826 775 779C771 759 748 740 728 719C704 692 684 697 696 725Z"/>
<path id="z36448d18" d="M801 711C828 746 862 786 895 837C920 876 952 876 944 804C941 780 923 756 889 732C869 718 841 702 806 682C794 675 786 692 801 711Z"/>
<defs>
	<clipPath id="z36448c1"><use href="#z36448d1"/></clipPath>
	<clipPath id="z36448c2"><use href="#z36448d2"/></clipPath>
	<clipPath id="z36448c3"><use href="#z36448d3"/></clipPath>
	<clipPath id="z36448c4"><use href="#z36448d4"/></clipPath>
	<clipPath id="z36448c5"><use href="#z36448d5"/></clipPath>
	<clipPath id="z36448c6"><use href="#z36448d6"/></clipPath>
	<clipPath id="z36448c7"><use href="#z36448d7"/></clipPath>
	<clipPath id="z36448c8"><use href="#z36448d8"/></clipPath>
	<clipPath id="z36448c9"><use href="#z36448d9"/></clipPath>
	<clipPath id="z36448c10"><use href="#z36448d10"/></clipPath>
	<clipPath id="z36448c11"><use href="#z36448d11"/></clipPath>
	<clipPath id="z36448c12"><use href="#z36448d12"/></clipPath>
	<clipPath id="z36448c13"><use href="#z36448d13"/></clipPath>
	<clipPath id="z36448c14"><use href="#z36448d14"/></clipPath>
	<clipPath id="z36448c15"><use href="#z36448d15"/></clipPath>
	<clipPath id="z36448c16"><use href="#z36448d16"/></clipPath>
	<clipPath id="z36448c17"><use href="#z36448d17"/></clipPath>
	<clipPath id="z36448c18"><use href="#z36448d18"/></clipPath>
</defs>
<path style="--d:1s;" pathLength="3333" clip-path="url(#z36448c1)" d="M163 205L194 230L227 410"/>
<path style="--d:2s;" pathLength="3333" clip-path="url(#z36448c2)" d="M210 215L346 187L376 204L346 344"/>
<path style="--d:3s;" pathLength="3333" clip-path="url(#z36448c3)" d="M236 371L396 352"/>
<path style="--d:4s;" pathLength="3333" clip-path="url(#z36448c4)" d="M266 388L295 420L291 669"/>
<path style="--d:5s;" pathLength="3333" clip-path="url(#z36448c5)" d="M319 527L408 511"/>
<path style="--d:6s;" pathLength="3333" clip-path="url(#z36448c6)" d="M125 476L168 512L197 698"/>
<path style="--d:7s;" pathLength="3333" clip-path="url(#z36448c7)" d="M77 727L146 742L401 633"/>
<path style="--d:8s;" pathLength="3333" clip-path="url(#z36448c8)" d="M584 103L667 140L711 192"/>
<path style="--d:9s;" pathLength="3333" clip-path="url(#z36448c9)" d="M518 308L574 316L853 266"/>
<path style="--d:10s;" pathLength="3333" clip-path="url(#z36448c10)" d="M458 288L501 337L470 599L425 732L338 865"/>
<path style="--d:11s;" pathLength="3333" clip-path="url(#z36448c11)" d="M535 496L882 466"/>
<path style="--d:12s;" pathLength="3333" clip-path="url(#z36448c12)" d="M575 390L618 431L627 646"/>
<path style="--d:13s;" pathLength="3333" clip-path="url(#z36448c13)" d="M726 333L769 375L739 587"/>
<path style="--d:14s;" pathLength="3333" clip-path="url(#z36448c14)" d="M637 617L787 605"/>
<path style="--d:15s;" pathLength="3333" clip-path="url(#z36448c15)" d="M525 718L483 869"/>
<path style="--d:16s;" pathLength="3333" clip-path="url(#z36448c16)" d="M603 721L641 821"/>
<path style="--d:17s;" pathLength="3333" clip-path="url(#z36448c17)" d="M700 710L761 814"/>
<path style="--d:18s;" pathLength="3333" clip-path="url(#z36448c18)" d="M800 687L901 787L930 859"/>
</svg>