<!--
AnimCJK 2016-2026 Copyright FM-SH - https://github.com/parsimonhi/animCJK
Derived from:
    MakeMeAHanzi project - https://github.com/skishore/makemeahanzi
    Arphic PL KaitiM GB font
    Arphic PL KaitiM Big5 font
You can redistribute and/or modify this file under the terms of the Arphic Public License
as published by Arphic Technology Co., Ltd.
You should have received a copy of this license along with this file.
If not, see https://ftp.gnu.org/non-gnu/chinese-fonts-truetype/LICENSE.
-->
<svg id="z36493" class="acjk" viewBox="0 0 1024 1024" xmlns="http://www.w3.org/2000/svg">
<style>
<![CDATA[
@keyframes zk {
	to {
		stroke-dashoffset:0;
	}
}
svg.acjk path[clip-path] {
	--t:0.8s;
	animation:zk var(--t) linear forwards var(--d);
	stroke-dasharray:3337;
	stroke-dashoffset:3339;
	stroke-width:128;
	stroke-linecap:round;
	fill:none;
	stroke:#000;
}
svg.acjk path[id] {fill:#ccc;}
]]>
</style>
<path id="z36493d1" d="M191 229C182 226 168 222 148 220C140 218 135 220 133 223C129 227 130 235 136 245C154 275 171 317 184 371C187 386 193 399 203 409C216 423 224 425 227 414C228 410 229 405 229 400C229 391 228 382 227 374C218 335 209 296 205 256C203 246 200 233 191 229Z"/>
<path id="z36493d2" d="M359 348C369 294 383 259 398 243C412 226 411 212 396 204C383 196 367 188 349 178C336 171 323 171 312 180C285 198 245 215 191 229C181 231 196 260 205 256C223 250 252 242 293 231C307 226 316 227 322 233C326 237 326 249 323 271C318 293 314 318 309 346C306 362 356 364 359 348Z"/>
<path id="z36493d3" d="M284 387C304 380 331 374 365 369C371 368 374 365 374 360C373 357 368 353 359 348C345 339 324 340 309 346C277 356 249 366 227 374C219 377 220 400 229 400C233 400 239 400 247 398C272 391 272 391 284 387Z"/>
<path id="z36493d4" d="M309 697C309 640 311 588 313 541C314 518 314 518 314 507C314 494 315 452 319 437C322 421 311 405 284 387C273 380 242 386 247 398C255 412 261 447 267 711C267 726 309 712 309 697Z"/>
<path id="z36493d5" d="M313 541C345 533 374 527 399 521C413 517 416 510 410 503C402 494 390 490 374 490C359 489 339 495 314 507C303 511 302 543 313 541Z"/>
<path id="z36493d6" d="M206 730C193 673 192 605 194 586C195 571 190 560 180 553C165 542 148 536 131 532C120 529 113 529 109 534C104 538 103 546 109 555C120 572 131 589 137 608C142 625 151 670 167 742C170 755 209 743 206 730Z"/>
<path id="z36493d7" d="M167 742C110 759 79 758 77 759C68 760 62 763 62 772C60 780 63 788 70 794C85 805 104 817 128 828C135 831 143 828 151 822C171 804 235 770 342 718C357 710 369 700 381 693C389 687 396 682 394 676C392 670 383 670 376 673C353 679 331 689 309 697C281 706 281 706 267 711C246 717 226 723 206 730C180 738 180 738 167 742Z"/>
<path id="z36493d8" d="M463 138C444 139 440 145 458 156C470 162 491 165 515 160C537 154 556 147 570 145C590 141 604 144 605 169C604 200 597 292 593 314C590 324 591 335 595 343C604 362 618 356 626 339C632 324 636 285 645 222C648 193 662 177 680 158C689 147 688 138 679 132C667 122 646 114 619 103C608 99 573 107 506 127C488 132 473 137 463 138Z"/>
<path id="z36493d9" d="M564 250C547 255 524 263 496 266C456 269 428 248 493 229C513 224 539 216 556 213C620 204 598 241 564 250Z"/>
<path id="z36493d10" d="M595 343C564 350 505 370 469 372C449 373 427 360 470 337C500 321 576 306 593 314C602 318 605 341 595 343Z"/>
<path id="z36493d11" d="M711 100C695 102 682 105 706 120C719 127 741 130 763 125C779 121 795 116 808 114C839 106 843 128 839 155C825 241 813 273 807 291C802 301 801 308 806 320C807 323 819 350 842 318C852 302 861 256 873 214C881 181 901 157 923 138C934 127 932 116 924 109C912 98 891 86 861 71C851 66 834 69 806 76C762 86 748 93 711 100Z"/>
<path id="z36493d12" d="M794 218C777 224 747 229 728 232C692 237 661 215 717 196C734 191 766 181 787 180C822 179 846 202 794 218Z"/>
<path id="z36493d13" d="M806 320C773 327 739 334 718 338C656 347 664 315 715 300C750 289 789 284 807 291C816 295 815 318 806 320Z"/>
<path id="z36493d14" d="M522 530C529 523 552 496 594 448C599 441 602 435 600 430C597 423 588 418 574 414C557 409 546 408 540 410C536 410 532 414 532 423C527 460 484 519 401 597C390 606 392 608 407 607C428 604 456 586 493 555C512 538 512 538 522 530Z"/>
<path id="z36493d15" d="M493 555C505 594 509 631 509 672C508 728 500 783 486 840C478 867 485 895 505 924C505 924 522 951 536 919C545 896 547 871 548 846C549 826 549 826 549 816C552 701 554 629 560 602C563 585 563 574 558 568C545 554 530 536 522 530C513 521 490 542 493 555Z"/>
<path id="z36493d16" d="M675 417C687 426 700 438 715 451C722 457 739 466 746 450C748 443 746 433 742 419C739 410 731 401 716 396C684 384 663 379 656 384C644 390 663 408 675 417Z"/>
<path id="z36493d17" d="M720 525C803 505 848 495 853 491C869 474 841 465 827 463C811 459 795 462 779 468C754 476 728 485 701 493C672 500 639 505 604 510C585 512 582 519 596 528C626 547 652 541 682 534C707 528 707 528 720 525Z"/>
<path id="z36493d18" d="M730 790C730 764 731 739 733 716C734 692 734 692 735 680C736 659 736 639 738 620C740 595 740 595 741 583C743 551 747 543 720 525C710 517 677 522 682 534C688 544 692 562 692 593C692 617 692 617 692 629C692 669 692 669 692 689C692 712 692 712 692 724C692 772 692 772 692 796C692 809 730 803 730 790Z"/>
<path id="z36493d19" d="M738 620C760 615 781 610 802 607C820 603 830 599 833 597C840 590 840 577 809 570C792 565 771 576 741 583C708 590 708 590 692 593C669 597 645 601 620 604C601 605 598 612 612 621C640 639 663 634 692 629C723 623 723 623 738 620Z"/>
<path id="z36493d20" d="M733 716C809 701 847 689 849 689C857 682 856 667 825 662C806 658 781 670 735 680C706 686 706 686 692 689C668 693 642 696 616 700C597 702 594 708 608 717C637 736 662 729 692 724C719 719 719 719 733 716Z"/>
<path id="z36493d21" d="M548 846C566 848 590 848 622 843C688 830 787 821 919 821C950 820 945 802 931 792C897 766 862 762 827 772C800 778 768 783 730 790C705 794 705 794 692 796C646 803 598 807 549 816C539 818 538 846 548 846Z"/>
<defs>
	<clipPath id="z36493c1"><use href="#z36493d1"/></clipPath>
	<clipPath id="z36493c2"><use href="#z36493d2"/></clipPath>
	<clipPath id="z36493c3"><use href="#z36493d3"/></clipPath>
	<clipPath id="z36493c4"><use href="#z36493d4"/></clipPath>
	<clipPath id="z36493c5"><use href="#z36493d5"/></clipPath>
	<clipPath id="z36493c6"><use href="#z36493d6"/></clipPath>
	<clipPath id="z36493c7"><use href="#z36493d7"/></clipPath>
	<clipPath id="z36493c8"><use href="#z36493d8"/></clipPath>
	<clipPath id="z36493c9"><use href="#z36493d9"/></clipPath>
	<clipPath id="z36493c10"><use href="#z36493d10"/></clipPath>
	<clipPath id="z36493c11"><use href="#z36493d11"/></clipPath>
	<clipPath id="z36493c12"><use href="#z36493d12"/></clipPath>
	<clipPath id="z36493c13"><use href="#z36493d13"/></clipPath>
	<clipPath id="z36493c14"><use href="#z36493d14"/></clipPath>
	<clipPath id="z36493c15"><use href="#z36493d15"/></clipPath>
	<clipPath id="z36493c16"><use href="#z36493d16"/></clipPath>
	<clipPath id="z36493c17"><use href="#z36493d17"/></clipPath>
	<clipPath id="z36493c18"><use href="#z36493d18"/></clipPath>
	<clipPath id="z36493c19"><use href="#z36493d19"/></clipPath>
	<clipPath id="z36493c20"><use href="#z36493d20"/></clipPath>
	<clipPath id="z36493c21"><use href="#z36493d21"/></clipPath>
</defs>
<path style="--d:1s;" pathLength="3333" clip-path="url(#z36493c1)" d="M140 229L175 255L218 416"/>
<path style="--d:2s;" pathLength="3333" clip-path="url(#z36493c2)" d="M193 236L318 201L357 219L322 355"/>
<path style="--d:3s;" pathLength="3333" clip-path="url(#z36493c3)" d="M226 390L365 361"/>
<path style="--d:4s;" pathLength="3333" clip-path="url(#z36493c4)" d="M254 396L288 438L283 714"/>
<path style="--d:5s;" pathLength="3333" clip-path="url(#z36493c5)" d="M313 531L406 512"/>
<path style="--d:6s;" pathLength="3333" clip-path="url(#z36493c6)" d="M112 537L163 585L180 745"/>
<path style="--d:7s;" pathLength="3333" clip-path="url(#z36493c7)" d="M64 767L132 790L390 679"/>
<path style="--d:8s;" pathLength="3333" clip-path="url(#z36493c8)" d="M454 145L595 124L636 142L612 347"/>
<path style="--d:9s;" pathLength="3333" clip-path="url(#z36493c9)" d="M459 252L591 226"/>
<path style="--d:10s;" pathLength="3333" clip-path="url(#z36493c10)" d="M448 360L598 330"/>
<path style="--d:11s;" pathLength="3333" clip-path="url(#z36493c11)" d="M702 110L840 91L882 123L818 330"/>
<path style="--d:12s;" pathLength="3333" clip-path="url(#z36493c12)" d="M691 218L818 200"/>
<path style="--d:13s;" pathLength="3333" clip-path="url(#z36493c13)" d="M678 328L811 308"/>
<path style="--d:14s;" pathLength="3333" clip-path="url(#z36493c14)" d="M539 413L561 445L403 603"/>
<path style="--d:15s;" pathLength="3333" clip-path="url(#z36493c15)" d="M515 531L533 598L516 930"/>
<path style="--d:16s;" pathLength="3333" clip-path="url(#z36493c16)" d="M658 388L739 452"/>
<path style="--d:17s;" pathLength="3333" clip-path="url(#z36493c17)" d="M595 517L851 478"/>
<path style="--d:18s;" pathLength="3333" clip-path="url(#z36493c18)" d="M689 527L717 565L707 801"/>
<path style="--d:19s;" pathLength="3333" clip-path="url(#z36493c19)" d="M611 610L832 585"/>
<path style="--d:20s;" pathLength="3333" clip-path="url(#z36493c20)" d="M607 708L847 677"/>
<path style="--d:21s;" pathLength="3333" clip-path="url(#z36493c21)" d="M543 835L852 794L937 805"/>
</svg>