<!--
AnimCJK 2016-2026 Copyright FM-SH, https://github.com/parsimonhi/animCJK
Derived from:
    MakeMeAHanzi project - https://github.com/skishore/makemeahanzi
    Arphic PL KaitiM GB font
    Arphic PL KaitiM Big5 font
You can redistribute and/or modify this file under the terms of the Arphic Public License
as published by Arphic Technology Co., Ltd.
You should have received a copy of this license along with this file.
If not, see https://ftp.gnu.org/non-gnu/chinese-fonts-truetype/LICENSE.
-->
<svg id="z36542" class="acjk" viewBox="0 0 1024 1024" xmlns="http://www.w3.org/2000/svg">
<style>
<![CDATA[
@keyframes zk {
	to {
		stroke-dashoffset:0;
	}
}
svg.acjk path[clip-path] {
	--t:0.8s;
	animation:zk var(--t) linear forwards var(--d);
	stroke-dasharray:3337;
	stroke-dashoffset:3339;
	stroke-width:128;
	stroke-linecap:round;
	fill:none;
	stroke:#000;
}
svg.acjk path[id] {fill:#ccc;}
]]>
</style>
<path id="z36542d1" d="M256 268C278 243 361 140 378 128C389 119 389 107 381 100C369 89 355 83 338 80C320 76 293 68 297 95C305 157 258 219 231 274C227 281 251 275 256 268Z"/>
<path id="z36542d2" d="M209 278C199 269 188 262 180 259C172 256 167 256 162 259C157 261 155 265 158 272C166 293 172 311 174 328C175 343 175 427 177 575C177 588 216 579 216 566C216 539 215 514 217 490C218 476 218 476 218 469C219 446 220 425 220 405C220 392 220 392 220 386C220 357 222 329 224 301C224 292 216 283 209 278Z"/>
<path id="z36542d3" d="M366 639C363 719 363 769 358 798C356 824 347 838 324 833C288 825 288 825 270 821C256 818 247 819 253 824C286 855 317 877 339 901C347 911 355 919 365 923C369 925 376 923 381 917C403 886 416 846 416 800C415 737 415 664 415 583C415 527 415 527 415 499C415 454 416 408 417 360C417 325 419 300 428 286C434 274 433 264 428 259C414 248 396 239 376 230C362 224 343 234 309 251C294 258 272 264 256 268C239 272 239 272 231 274C223 275 215 275 209 278C200 281 215 303 224 301C232 301 271 293 340 272C366 263 365 287 367 303C371 344 373 418 370 528C367 602 367 602 366 639Z"/>
<path id="z36542d4" d="M330 385C342 382 346 376 341 370C334 362 324 358 310 357C295 355 265 366 220 386C214 388 214 406 220 405C293 392 293 392 330 385Z"/>
<path id="z36542d5" d="M217 490C234 490 295 475 330 469C342 466 346 460 341 454C334 446 324 442 310 441C296 439 265 449 218 469C211 472 210 490 217 490Z"/>
<path id="z36542d6" d="M177 575C112 589 84 590 65 590C55 589 51 594 50 600C48 608 48 614 56 620C67 630 84 643 104 655C109 658 117 656 125 651C222 608 303 579 369 557C378 553 379 526 370 528C320 540 268 553 216 566C190 572 190 572 177 575Z"/>
<path id="z36542d7" d="M369 557C279 670 162 776 70 840C58 847 58 853 69 854C188 810 311 701 366 639C399 602 399 602 415 583C427 569 440 557 454 543C464 532 453 514 446 501C433 477 424 486 415 499C384 538 384 538 369 557Z"/>
<path id="z36542d8" d="M522 168C545 204 563 228 581 236C597 242 609 227 608 207C607 194 602 183 594 174C584 163 564 152 537 138C528 133 521 132 516 134C512 134 510 137 511 144C511 150 515 158 522 168Z"/>
<path id="z36542d9" d="M655 231C649 240 654 248 663 242C737 180 779 137 805 120C833 101 801 82 773 70C742 56 731 62 733 79C739 133 681 186 655 231Z"/>
<path id="z36542d10" d="M645 313C683 304 722 297 763 288C861 264 793 244 781 242C764 238 747 240 730 247C641 277 581 287 513 296C492 298 489 307 505 316C525 327 559 332 605 322C632 316 632 316 645 313Z"/>
<path id="z36542d11" d="M654 492C654 465 656 440 658 418C659 394 659 394 660 382C662 331 675 336 645 313C634 305 602 309 605 322C607 330 610 353 612 393C613 416 613 416 613 427C613 445 613 469 615 499C615 512 654 505 654 492Z"/>
<path id="z36542d12" d="M658 418C678 413 715 405 772 399C779 398 804 386 770 372C740 359 691 374 660 382C628 389 628 389 612 393C598 396 563 400 509 409C494 411 492 417 504 426C539 450 575 434 613 427C643 421 643 421 658 418Z"/>
<path id="z36542d13" d="M615 499C566 507 534 509 480 519C468 521 466 525 476 535C502 560 529 551 536 550C633 521 728 514 859 514C881 514 894 500 872 484C836 458 804 461 772 467C743 472 674 488 654 492C628 497 628 497 615 499Z"/>
<path id="z36542d14" d="M662 656C694 650 740 646 802 645C826 644 829 628 812 616C763 582 711 604 659 616C619 625 619 625 599 629C566 636 531 641 495 649C484 651 482 657 492 665C520 689 559 672 593 667C639 660 639 660 662 656Z"/>
<path id="z36542d15" d="M659 616C668 573 687 576 637 552C616 541 600 537 591 542C583 545 584 552 589 563C596 580 603 603 599 629C595 654 595 654 593 667C580 743 534 818 421 873C404 880 405 888 425 886C577 862 628 756 646 675C655 636 655 636 659 616Z"/>
<path id="z36542d16" d="M646 675C688 739 737 807 795 876C804 887 820 892 839 892C901 889 941 887 960 882C977 877 969 868 959 864C867 822 802 786 765 753C732 724 698 692 662 656C651 645 637 662 646 675Z"/>
<defs>
	<clipPath id="z36542c1"><use href="#z36542d1"/></clipPath>
	<clipPath id="z36542c2"><use href="#z36542d2"/></clipPath>
	<clipPath id="z36542c3"><use href="#z36542d3"/></clipPath>
	<clipPath id="z36542c4"><use href="#z36542d4"/></clipPath>
	<clipPath id="z36542c5"><use href="#z36542d5"/></clipPath>
	<clipPath id="z36542c6"><use href="#z36542d6"/></clipPath>
	<clipPath id="z36542c7"><use href="#z36542d7"/></clipPath>
	<clipPath id="z36542c8"><use href="#z36542d8"/></clipPath>
	<clipPath id="z36542c9"><use href="#z36542d9"/></clipPath>
	<clipPath id="z36542c10"><use href="#z36542d10"/></clipPath>
	<clipPath id="z36542c11"><use href="#z36542d11"/></clipPath>
	<clipPath id="z36542c12"><use href="#z36542d12"/></clipPath>
	<clipPath id="z36542c13"><use href="#z36542d13"/></clipPath>
	<clipPath id="z36542c14"><use href="#z36542d14"/></clipPath>
	<clipPath id="z36542c15"><use href="#z36542d15"/></clipPath>
	<clipPath id="z36542c16"><use href="#z36542d16"/></clipPath>
</defs>
<path style="--d:1s;" pathLength="3333" clip-path="url(#z36542c1)" d="M305 83L341 122L237 271"/>
<path style="--d:2s;" pathLength="3333" clip-path="url(#z36542c2)" d="M166 266L198 315L191 579"/>
<path style="--d:3s;" pathLength="3333" clip-path="url(#z36542c3)" d="M213 284L362 249L398 279L381 835L350 877L263 825"/>
<path style="--d:4s;" pathLength="3333" clip-path="url(#z36542c4)" d="M219 396L336 373"/>
<path style="--d:5s;" pathLength="3333" clip-path="url(#z36542c5)" d="M220 481L338 457"/>
<path style="--d:6s;" pathLength="3333" clip-path="url(#z36542c6)" d="M54 601L114 621L373 539"/>
<path style="--d:7s;" pathLength="3333" clip-path="url(#z36542c7)" d="M430 491L430 526L304 668L68 847"/>
<path style="--d:8s;" pathLength="3333" clip-path="url(#z36542c8)" d="M519 141L595 230"/>
<path style="--d:9s;" pathLength="3333" clip-path="url(#z36542c9)" d="M742 70L772 111L659 238"/>
<path style="--d:10s;" pathLength="3333" clip-path="url(#z36542c10)" d="M500 303L582 306L809 257"/>
<path style="--d:11s;" pathLength="3333" clip-path="url(#z36542c11)" d="M612 317L637 353L628 502"/>
<path style="--d:12s;" pathLength="3333" clip-path="url(#z36542c12)" d="M504 416L781 389"/>
<path style="--d:13s;" pathLength="3333" clip-path="url(#z36542c13)" d="M476 525L880 496"/>
<path style="--d:14s;" pathLength="3333" clip-path="url(#z36542c14)" d="M493 656L741 622L818 630"/>
<path style="--d:15s;" pathLength="3333" clip-path="url(#z36542c15)" d="M591 546L634 584L596 742L525 829L419 880"/>
<path style="--d:16s;" pathLength="3333" clip-path="url(#z36542c16)" d="M652 658L824 845L965 874"/>
</svg>