<!--
AnimCJK 2016-2026 Copyright FM-SH, https://github.com/parsimonhi/animCJK
Derived from:
    MakeMeAHanzi project - https://github.com/skishore/makemeahanzi
    Arphic PL KaitiM GB font
    Arphic PL KaitiM Big5 font
You can redistribute and/or modify this file under the terms of the Arphic Public License
as published by Arphic Technology Co., Ltd.
You should have received a copy of this license along with this file.
If not, see https://ftp.gnu.org/non-gnu/chinese-fonts-truetype/LICENSE.
-->
<svg id="z36603" class="acjk" viewBox="0 0 1024 1024" xmlns="http://www.w3.org/2000/svg">
<style>
<![CDATA[
@keyframes zk {
	to {
		stroke-dashoffset:0;
	}
}
svg.acjk path[clip-path] {
	--t:0.8s;
	animation:zk var(--t) linear forwards var(--d);
	stroke-dasharray:3337;
	stroke-dashoffset:3339;
	stroke-width:128;
	stroke-linecap:round;
	fill:none;
	stroke:#000;
}
svg.acjk path[id] {fill:#ccc;}
]]>
</style>
<path id="z36603d1" d="M325 285Q356 275 391 265Q415 258 418 254Q425 245 420 238Q413 228 385 225Q357 222 331 236Q328 237 328 238C297 250 297 250 282 256Q278 256 277 257Q246 266 209 273Q176 282 201 295Q235 310 283 299C311 290 311 290 325 285Z"/>
<path id="z36603d2" d="M175 396Q162 392 136 388Q124 385 121 390Q114 397 124 413Q152 467 171 556Q175 584 192 601Q210 623 215 606Q218 597 218 585C216 564 216 564 215 554Q212 547 192 425C190 414 186 398 175 396Z"/>
<path id="z36603d3" d="M367 553Q385 581 401 590Q411 597 425 578Q437 559 465 453Q472 425 494 402Q506 392 495 378Q482 363 443 340Q425 331 355 352Q348 352 323 360C298 366 298 366 285 369Q266 373 248 378Q208 388 175 396C164 398 182 429 192 425Q228 412 285 398C310 392 310 392 323 389Q393 370 409 380Q421 389 417 405Q395 522 378 533C373 538 362 547 367 553Z"/>
<path id="z36603d4" d="M365 476Q387 470 378 459Q366 446 342 444Q333 443 323 446C297 453 297 453 284 456Q254 468 230 479Q214 483 234 497Q241 501 254 498Q267 494 284 492C310 487 310 487 323 484C351 479 351 479 365 476Z"/>
<path id="z36603d5" d="M323 561Q342 557 367 553C375 552 384 538 378 533Q350 509 323 520C296 529 296 529 283 534Q246 544 215 554C205 558 208 589 218 585Q231 578 282 569C309 564 309 564 323 561Z"/>
<path id="z36603d6" d="M323 691Q380 676 449 665Q465 662 466 655Q467 642 449 634Q416 621 323 649C296 656 296 656 282 660Q141 691 68 701Q55 702 52 711Q49 721 65 732Q107 759 145 744Q224 716 281 701C309 694 309 694 323 691Z"/>
<path id="z36603d7" d="M281 701Q277 779 257 852Q245 894 272 951Q279 967 287 971Q293 978 300 970Q327 948 325 890Q324 859 323 691C323 663 323 663 323 649Q323 607 323 561C323 534 323 534 323 520C323 496 323 496 323 484C323 459 323 459 323 446Q323 418 323 389C323 370 323 370 323 360Q323 315 325 285C327 254 327 254 328 238Q332 195 342 161Q351 146 348 133Q341 124 287 91Q263 75 243 90Q239 96 245 110Q281 162 281 214Q281 233 282 256C283 285 283 285 283 299Q283 332 285 369C285 388 285 388 285 398Q284 426 284 456C284 480 284 480 284 492Q283 511 283 534C282 557 282 557 282 569Q282 612 282 660C281 687 281 687 281 701Z"/>
<path id="z36603d8" d="M818 323Q866 317 928 314Q980 310 986 302Q990 290 973 278Q916 244 859 262Q765 286 519 338Q498 341 515 357Q528 369 547 373Q568 377 583 371Q671 341 761 330C799 325 799 325 818 323Z"/>
<path id="z36603d9" d="M542 476Q532 472 511 468Q499 464 496 469Q492 475 498 489Q523 541 537 627Q538 652 554 670Q570 689 574 675Q578 665 578 646C575 625 575 625 574 614Q561 527 559 502C559 492 552 480 542 476Z"/>
<path id="z36603d10" d="M692 597Q711 525 734 503Q755 479 734 466Q673 433 672 433Q663 433 655 438Q624 459 542 476C532 478 549 504 559 502Q571 499 636 485Q657 481 662 489Q669 495 661 527Q654 558 645 593C642 609 689 612 692 597Z"/>
<path id="z36603d11" d="M578 646Q585 646 593 644Q627 635 703 625Q713 624 713 615Q713 608 692 597C679 589 660 590 645 593Q641 593 640 594Q603 606 574 614C564 618 567 646 578 646Z"/>
<path id="z36603d12" d="M761 330Q762 334 767 340Q779 367 778 411Q781 534 780 815Q779 845 768 855Q761 858 690 837Q677 831 677 839Q676 849 686 860Q741 924 773 971Q786 981 802 965Q850 905 848 823Q836 541 847 387Q853 357 847 346Q840 336 818 323C802 313 754 312 761 330Z"/>
<defs>
	<clipPath id="z36603c1"><use href="#z36603d1"/></clipPath>
	<clipPath id="z36603c2"><use href="#z36603d2"/></clipPath>
	<clipPath id="z36603c3"><use href="#z36603d3"/></clipPath>
	<clipPath id="z36603c4"><use href="#z36603d4"/></clipPath>
	<clipPath id="z36603c5"><use href="#z36603d5"/></clipPath>
	<clipPath id="z36603c6"><use href="#z36603d6"/></clipPath>
	<clipPath id="z36603c7"><use href="#z36603d7"/></clipPath>
	<clipPath id="z36603c8"><use href="#z36603d8"/></clipPath>
	<clipPath id="z36603c9"><use href="#z36603d9"/></clipPath>
	<clipPath id="z36603c10"><use href="#z36603d10"/></clipPath>
	<clipPath id="z36603c11"><use href="#z36603d11"/></clipPath>
	<clipPath id="z36603c12"><use href="#z36603d12"/></clipPath>
</defs>
<path style="--d:1s;" pathLength="3333" clip-path="url(#z36603c1)" d="M198 283L417 244"/>
<path style="--d:2s;" pathLength="3333" clip-path="url(#z36603c2)" d="M126 395L164 429L204 608"/>
<path style="--d:3s;" pathLength="3333" clip-path="url(#z36603c3)" d="M177 403L390 359L437 369L459 391L396 585"/>
<path style="--d:4s;" pathLength="3333" clip-path="url(#z36603c4)" d="M228 485L374 462"/>
<path style="--d:5s;" pathLength="3333" clip-path="url(#z36603c5)" d="M212 576L374 540"/>
<path style="--d:6s;" pathLength="3333" clip-path="url(#z36603c6)" d="M59 716L134 719L462 650"/>
<path style="--d:7s;" pathLength="3333" clip-path="url(#z36603c7)" d="M246 92L311 152L294 970"/>
<path style="--d:8s;" pathLength="3333" clip-path="url(#z36603c8)" d="M512 344L564 352L882 287L981 292"/>
<path style="--d:9s;" pathLength="3333" clip-path="url(#z36603c9)" d="M500 472L532 501L566 675"/>
<path style="--d:10s;" pathLength="3333" clip-path="url(#z36603c10)" d="M545 480L663 459L695 478L661 604"/>
<path style="--d:11s;" pathLength="3333" clip-path="url(#z36603c11)" d="M572 633L707 615"/>
<path style="--d:12s;" pathLength="3333" clip-path="url(#z36603c12)" d="M767 325L812 360L812 843L769 920L684 842"/>
</svg>