<!--
AnimCJK 2016-2017 Copyright Francois Mizessyn, http://gooo.free.fr/animCJK/
Derived from:
    MakeMeAHanzi project - https://github.com/skishore/makemeahanzi
    Arphic PL KaitiM GB - https://apps.ubuntu.com/cat/applications/precise/fonts-arphic-gkai00mp/
    Arphic PL UKai - https://apps.ubuntu.com/cat/applications/fonts-arphic-ukai/
You can redistribute and/or modify this file under the terms of the Arphic Public License
as published by Arphic Technology Co., Ltd.
You should have received a copy of this license (the directory "APL") along with this file;
if not, see http://ftp.gnu.org/non-gnu/chinese-fonts-truetype/LICENSE.
-->
<svg id="z36617" class="acjk" version="1.1" viewBox="0 0 1024 1024" xmlns="http://www.w3.org/2000/svg" xmlns:xlink="http://www.w3.org/1999/xlink">
<style>
<![CDATA[
	@keyframes z36617k {
		from {
			stroke:#c00;
			stroke-dashoffset:3000;
		}
		75% {
			stroke:#c00;
			stroke-dashoffset:0;
		}
		to {
			stroke:#000;
		}
	}
	#z36617 path[clip-path] {
		animation:z36617k 1s linear both;
		stroke-dasharray:3000;
		stroke-width:128;
		stroke-linecap:round;
		fill:none;
	}
	#z36617 path[clip-path="url(#z36617c1)"] {animation-delay:1s;}
	#z36617 path[clip-path="url(#z36617c2)"] {animation-delay:2s;}
	#z36617 path[clip-path="url(#z36617c3)"] {animation-delay:3s;}
	#z36617 path[clip-path="url(#z36617c4)"] {animation-delay:4s;}
	#z36617 path[clip-path="url(#z36617c5)"] {animation-delay:5s;}
	#z36617 path[clip-path="url(#z36617c6)"] {animation-delay:6s;}
	#z36617 path[clip-path="url(#z36617c7)"] {animation-delay:7s;}
	#z36617 path[clip-path="url(#z36617c8)"] {animation-delay:8s;}
	#z36617 path[clip-path="url(#z36617c9)"] {animation-delay:9s;}
	#z36617 path[clip-path="url(#z36617c10)"] {animation-delay:10s;}
	#z36617 path[clip-path="url(#z36617c11)"] {animation-delay:11s;}
	#z36617 path[clip-path="url(#z36617c12)"] {animation-delay:12s;}
	#z36617 path[clip-path="url(#z36617c13)"] {animation-delay:13s;}
	#z36617 path {fill:#ccc;}
]]>
</style>
<g transform="scale(1,-1) translate(0,-900)">
	<path id="z36617d1" d="M387 636Q477 658 484 664Q491 671 487 678Q480 688 455 693Q425 699 391 681L339 663Q335 664 332 662Q292 652 242 644Q211 638 234 624Q264 608 328 622Q332 623 340 624L387 636Z"/>
	<path id="z36617d2" d="M379 553Q383 596 387 636L391 681Q391 693 407 771Q410 781 392 794Q361 812 338 815Q323 819 316 811Q309 804 317 790Q332 769 333 755Q337 712 339 663L340 624Q340 587 340 545L379 553Z"/>
	<path id="z36617d3" d="M622 555Q673 561 770 566Q789 567 794 576Q798 589 781 601Q720 640 665 620Q641 614 614 606L569 594Q508 581 434 564Q406 560 379 553L340 545Q234 526 119 503Q98 499 115 483Q130 470 148 466Q170 462 185 468Q243 489 311 504L355 514Q421 535 577 550L622 555Z"/>
	<path id="z36617d4" d="M334 441Q297 431 256 425Q229 418 250 407Q280 392 325 405Q328 406 335 407L379 418Q407 428 438 435Q465 442 468 447Q475 453 471 459Q465 468 443 472Q416 475 386 460L334 441Z"/>
	<path id="z36617d5" d="M222 333Q210 337 190 339Q180 342 176 337Q172 331 179 317Q203 275 220 205Q224 183 237 170Q253 151 258 165Q259 169 260 175L259 197Q249 251 241 305L222 333Z"/>
	<path id="z36617d6" d="M336 363Q312 359 293 352Q251 342 222 333L241 305Q277 318 337 333L376 343Q455 364 470 356Q477 352 473 332Q460 257 453 243L451 214L452 213Q456 200 467 201Q479 202 485 215Q492 222 508 260Q521 305 552 330Q568 345 554 357Q538 372 495 393Q482 402 416 382Q410 382 377 373L336 363Z"/>
	<path id="z36617d7" d="M376 268Q397 275 419 279Q438 283 430 294Q420 304 398 306Q388 307 376 303L337 290Q309 278 284 267Q271 263 289 252Q292 251 337 258L376 268Z"/>
	<path id="z36617d8" d="M260 175Q270 175 282 177Q310 184 337 189L376 198Q413 208 451 214L453 243Q452 244 449 244Q412 247 376 229L337 218Q294 208 259 197L260 175Z"/>
	<path id="z36617d9" d="M336 127Q189 91 127 83Q114 82 112 73Q109 63 125 52Q165 25 205 41Q278 69 332 84L376 96Q430 111 498 123Q514 126 514 133Q515 146 497 154Q463 166 376 138L336 127Z"/>
	<path id="z36617d10" d="M311 504Q333 473 334 441L335 407Q335 386 336 363L337 333Q337 312 337 290L337 258Q337 239 337 218L337 189Q337 159 336 127L332 84Q314 -6 332 -38Q332 -39 334 -43Q340 -56 346 -59Q350 -63 357 -58Q375 -42 376 34Q376 58 376 96L376 138Q376 166 376 198L376 229Q376 248 376 268L376 303Q376 322 376 343L377 373Q377 398 379 418L386 460Q392 484 393 488Q387 495 355 514L311 504Z"/>
	<path id="z36617d11" d="M690 184Q747 64 842 -14Q903 -60 933 -59Q952 -53 944 -26Q940 19 939 148Q939 170 931 170Q924 170 918 150Q903 116 890 87Q878 59 867 58Q854 57 826 80Q760 143 719 224L693 283Q651 394 622 555L614 606Q604 690 610 762Q622 805 564 825Q527 840 507 831Q486 824 497 804Q546 762 547 728Q557 658 569 594L577 550Q613 363 666 238L690 184Z"/>
	<path id="z36617d12" d="M666 238Q603 157 499 71Q492 64 498 60Q507 57 518 62Q582 90 637 135Q665 157 690 184L719 224Q752 258 798 377Q810 405 825 431Q834 441 827 452Q820 462 788 481Q766 494 755 491Q740 487 743 471Q752 386 693 283L666 238Z"/>
	<path id="z36617d13" d="M703 741Q736 716 770 685Q783 673 798 675Q808 676 813 688Q817 703 807 731Q794 767 697 787Q682 790 676 787Q672 783 673 771Q677 761 703 741Z"/>
	<defs>
		<clipPath id="z36617c1"><use xlink:href="#z36617d1"/></clipPath>
		<clipPath id="z36617c2"><use xlink:href="#z36617d2"/></clipPath>
		<clipPath id="z36617c3"><use xlink:href="#z36617d3"/></clipPath>
		<clipPath id="z36617c4"><use xlink:href="#z36617d4"/></clipPath>
		<clipPath id="z36617c5"><use xlink:href="#z36617d5"/></clipPath>
		<clipPath id="z36617c6"><use xlink:href="#z36617d6"/></clipPath>
		<clipPath id="z36617c7"><use xlink:href="#z36617d7"/></clipPath>
		<clipPath id="z36617c8"><use xlink:href="#z36617d8"/></clipPath>
		<clipPath id="z36617c9"><use xlink:href="#z36617d9"/></clipPath>
		<clipPath id="z36617c10"><use xlink:href="#z36617d10"/></clipPath>
		<clipPath id="z36617c11"><use xlink:href="#z36617d11"/></clipPath>
		<clipPath id="z36617c12"><use xlink:href="#z36617d12"/></clipPath>
		<clipPath id="z36617c13"><use xlink:href="#z36617d13"/></clipPath>
	</defs>
	<path pathLength="2999" clip-path="url(#z36617c1)" d="M231 636L482 672"/>
	<path pathLength="2999" clip-path="url(#z36617c2)" d="M321 805L370 765L359 550"/>
	<path pathLength="2999" clip-path="url(#z36617c3)" d="M117 496L177 491L677 592L789 585"/>
	<path pathLength="2999" clip-path="url(#z36617c4)" d="M253 415L464 458"/>
	<path pathLength="2999" clip-path="url(#z36617c5)" d="M182 331L218 294L249 166"/>
	<path pathLength="2999" clip-path="url(#z36617c6)" d="M229 330L486 371L517 342L463 207"/>
	<path pathLength="2999" clip-path="url(#z36617c7)" d="M286 261L424 291"/>
	<path pathLength="2999" clip-path="url(#z36617c8)" d="M268 182L451 229"/>
	<path pathLength="2999" clip-path="url(#z36617c9)" d="M118 74L175 63L509 142"/>
	<path pathLength="2999" clip-path="url(#z36617c10)" d="M320 500L360 473L350 -55"/>
	<path pathLength="2999" clip-path="url(#z36617c11)" d="M498 820L574 774L629 416L745 134L820 46L907 -9L928 162"/>
	<path pathLength="2999" clip-path="url(#z36617c12)" d="M752 485L786 434L715 265L646 175L504 65"/>
	<path pathLength="2999" clip-path="url(#z36617c13)" d="M681 778L808 684"/>
</g>
</svg>