<!--
AnimCJK 2016-2018 Copyright Francois Mizessyn, https://github.com/parsimonhi/animCJK
Derived from:
    MakeMeAHanzi project - https://github.com/skishore/makemeahanzi
    Arphic PL KaitiM GB - https://apps.ubuntu.com/cat/applications/precise/fonts-arphic-gkai00mp/
    Arphic PL UKai - https://apps.ubuntu.com/cat/applications/fonts-arphic-ukai/
You can redistribute and/or modify this file under the terms of the Arphic Public License
as published by Arphic Technology Co., Ltd.
You should have received a copy of this license (the directory "APL") along with this file;
if not, see http://ftp.gnu.org/non-gnu/chinese-fonts-truetype/LICENSE.
-->
<svg id="z36628" class="acjk" version="1.1" viewBox="0 0 1024 1024" xmlns="http://www.w3.org/2000/svg" xmlns:xlink="http://www.w3.org/1999/xlink">
<style>
<![CDATA[
@keyframes z36628k {
	from {
		stroke:#c00;
		stroke-dashoffset:3334;
	}
	75% {
		stroke:#c00;
		stroke-dashoffset:0;
	}
	to {
		stroke:#000;
	}
}
#z36628 path[clip-path] {
	animation:z36628k 1s linear both;
	stroke-dasharray:3334;
	stroke-width:128;
	stroke-linecap:round;
	fill:none;
}
#z36628 path[clip-path="url(#z36628c1)"] {animation-delay:1s;}
#z36628 path[clip-path="url(#z36628c2)"] {animation-delay:2s;}
#z36628 path[clip-path="url(#z36628c3)"] {animation-delay:3s;}
#z36628 path[clip-path="url(#z36628c4)"] {animation-delay:4s;}
#z36628 path[clip-path="url(#z36628c5)"] {animation-delay:5s;}
#z36628 path[clip-path="url(#z36628c6)"] {animation-delay:6s;}
#z36628 path[clip-path="url(#z36628c7)"] {animation-delay:7s;}
#z36628 path[clip-path="url(#z36628c8)"] {animation-delay:8s;}
#z36628 path[clip-path="url(#z36628c9)"] {animation-delay:9s;}
#z36628 path[clip-path="url(#z36628c10)"] {animation-delay:10s;}
#z36628 path[clip-path="url(#z36628c11)"] {animation-delay:11s;}
#z36628 path[clip-path="url(#z36628c12)"] {animation-delay:12s;}
#z36628 path[clip-path="url(#z36628c13)"] {animation-delay:13s;}
#z36628 path[clip-path="url(#z36628c14)"] {animation-delay:14s;}
#z36628 path {fill:#ccc;}
]]>
</style>
<path id="z36628d1" d="M334 281Q430 251 434 247Q441 240 436 231Q429 221 399 216Q369 213 342 228Q339 229 337 230L293 248Q286 249 280 252Q244 262 201 271Q167 281 194 294Q236 312 289 295Q290 294 294 294L334 281 Z"/>
<path id="z36628d2" d="M190 391Q178 384 144 380Q132 377 129 382Q122 389 131 404Q161 462 179 557Q183 585 200 605Q218 627 223 611Q224 607 225 600L226 575Q225 562 222 548Q204 455 201 423L190 391 Z"/>
<path id="z36628d3" d="M380 567Q395 588 409 594Q419 601 433 581Q445 560 469 444Q476 416 496 391Q508 379 496 366Q481 351 441 329Q423 322 371 340Q353 341 332 351L294 362Q272 366 249 374Q218 383 190 391L201 423Q237 408 293 393L332 383Q393 364 409 374Q422 383 419 400Q400 529 381 540L380 567 Z"/>
<path id="z36628d4" d="M332 478Q353 471 375 467Q394 461 386 451Q376 439 352 438Q343 437 332 441L292 454Q262 467 236 480Q223 484 242 496Q243 496 292 489L332 478 Z"/>
<path id="z36628d5" d="M330 577Q355 571 380 567L381 540Q365 528 331 541L290 554Q256 564 226 575L225 600Q244 594 289 586L330 577 Z"/>
<path id="z36628d6" d="M329 697Q378 682 439 670Q455 666 455 659Q455 646 437 639Q407 627 329 654L288 668Q134 711 58 725Q45 728 43 735Q42 745 57 756Q102 781 137 764Q248 716 284 710L329 697 Z"/>
<path id="z36628d7" d="M284 710Q277 770 262 828Q252 864 276 926Q283 944 291 947Q297 954 304 945Q311 941 321 921Q331 896 330 866Q329 838 329 697L329 654Q329 618 330 577L331 541Q331 510 332 478L332 441Q332 413 332 383L332 351Q333 321 334 281L337 230Q341 175 354 134Q363 119 359 106Q353 96 298 63Q276 47 255 62Q251 66 257 82Q291 134 292 186Q292 216 293 248L294 294Q294 327 294 362L293 393Q292 423 292 454L292 489Q291 520 290 554L289 586Q288 626 288 668L284 710 Z"/>
<path id="z36628d8" d="M714 317Q783 299 903 279Q913 280 922 266Q923 256 900 246Q866 225 791 253Q743 265 715 275L663 288Q603 297 531 311Q503 315 525 332Q561 356 596 345Q626 336 662 329L714 317 Z"/>
<path id="z36628d9" d="M545 443Q527 425 495 428Q482 432 488 443Q539 551 494 736Q463 802 499 843Q506 856 516 851Q550 824 551 713Q554 521 558 478L545 443 Z"/>
<path id="z36628d10" d="M712 443Q757 433 808 426Q824 423 832 433Q842 439 844 482Q853 629 842 795Q841 820 832 826Q822 833 771 824Q753 820 754 829Q755 836 767 844Q813 890 835 924Q857 945 870 943Q883 940 896 911Q914 865 916 795Q906 596 907 522Q908 485 921 461Q934 440 924 429Q914 413 868 389Q849 379 831 383Q792 396 712 415L662 425Q604 434 545 443L558 478Q609 466 662 454L712 443 Z"/>
<path id="z36628d11" d="M712 554Q749 544 784 539Q806 535 797 523Q787 510 763 507Q744 506 712 514L661 531Q628 541 598 551Q582 555 602 569Q612 575 630 571Q645 567 660 565L712 554 Z"/>
<path id="z36628d12" d="M711 662Q753 652 791 646Q815 642 805 628Q793 613 767 609Q745 608 712 618L658 635Q621 647 587 658Q569 662 592 677Q602 684 622 680Q638 676 657 673L711 662 Z"/>
<path id="z36628d13" d="M657 673Q657 872 672 897Q687 912 695 891Q710 855 711 662L712 618Q712 587 712 554L712 514Q712 477 712 443L712 415Q712 361 714 317L715 275Q716 137 739 101Q746 86 726 71Q702 52 660 41Q642 37 630 50Q620 57 632 69Q660 94 663 129Q663 190 663 288L662 329Q662 372 662 425L662 454Q662 491 661 531L660 565Q659 602 658 635L657 673 Z"/>
<path id="z36628d14" d="M812 127Q842 149 874 178Q886 188 900 188Q909 187 913 176Q917 163 908 137Q902 118 872 104Q802 80 788 85Q784 89 785 100Q789 110 812 127 Z"/>
<defs>
	<clipPath id="z36628c1"><use xlink:href="#z36628d1"/></clipPath>
	<clipPath id="z36628c2"><use xlink:href="#z36628d2"/></clipPath>
	<clipPath id="z36628c3"><use xlink:href="#z36628d3"/></clipPath>
	<clipPath id="z36628c4"><use xlink:href="#z36628d4"/></clipPath>
	<clipPath id="z36628c5"><use xlink:href="#z36628d5"/></clipPath>
	<clipPath id="z36628c6"><use xlink:href="#z36628d6"/></clipPath>
	<clipPath id="z36628c7"><use xlink:href="#z36628d7"/></clipPath>
	<clipPath id="z36628c8"><use xlink:href="#z36628d8"/></clipPath>
	<clipPath id="z36628c9"><use xlink:href="#z36628d9"/></clipPath>
	<clipPath id="z36628c10"><use xlink:href="#z36628d10"/></clipPath>
	<clipPath id="z36628c11"><use xlink:href="#z36628d11"/></clipPath>
	<clipPath id="z36628c12"><use xlink:href="#z36628d12"/></clipPath>
	<clipPath id="z36628c13"><use xlink:href="#z36628d13"/></clipPath>
	<clipPath id="z36628c14"><use xlink:href="#z36628d14"/></clipPath>
</defs>
<path pathLength="3333" clip-path="url(#z36628c1)" d="M194 283L429 236"/>
<path pathLength="3333" clip-path="url(#z36628c2)" d="M134 388L171 424L214 612"/>
<path pathLength="3333" clip-path="url(#z36628c3)" d="M202 416L385 353L452 370L404 589"/>
<path pathLength="3333" clip-path="url(#z36628c4)" d="M238 486L379 452"/>
<path pathLength="3333" clip-path="url(#z36628c5)" d="M230 591L378 549"/>
<path pathLength="3333" clip-path="url(#z36628c6)" d="M47 735L103 744L448 653"/>
<path pathLength="3333" clip-path="url(#z36628c7)" d="M259 63L323 132L297 944"/>
<path pathLength="3333" clip-path="url(#z36628c8)" d="M523 319L914 262"/>
<path pathLength="3333" clip-path="url(#z36628c9)" d="M493 433L521 455L534 528L508 846"/>
<path pathLength="3333" clip-path="url(#z36628c10)" d="M554 447L826 404L883 442L871 845L849 892L761 830"/>
<path pathLength="3333" clip-path="url(#z36628c11)" d="M599 560L793 530"/>
<path pathLength="3333" clip-path="url(#z36628c12)" d="M590 666L802 637"/>
<path pathLength="3333" clip-path="url(#z36628c13)" d="M633 52L701 105L682 897"/>
<path pathLength="3333" clip-path="url(#z36628c14)" d="M792 92L865 132L904 182"/>
</svg>