<!--
AnimCJK 2016-2026 Copyright FM-SH, https://github.com/parsimonhi/animCJK
Derived from:
    MakeMeAHanzi project - https://github.com/skishore/makemeahanzi
    Arphic PL KaitiM GB font
    Arphic PL KaitiM Big5 font
You can redistribute and/or modify this file under the terms of the Arphic Public License
as published by Arphic Technology Co., Ltd.
You should have received a copy of this license along with this file.
If not, see https://ftp.gnu.org/non-gnu/chinese-fonts-truetype/LICENSE.
-->
<svg id="z36639" class="acjk" viewBox="0 0 1024 1024" xmlns="http://www.w3.org/2000/svg">
<style>
<![CDATA[
@keyframes zk {
	to {
		stroke-dashoffset:0;
	}
}
svg.acjk path[clip-path] {
	--t:0.8s;
	animation:zk var(--t) linear forwards var(--d);
	stroke-dasharray:3337;
	stroke-dashoffset:3339;
	stroke-width:128;
	stroke-linecap:round;
	fill:none;
	stroke:#000;
}
svg.acjk path[id] {fill:#ccc;}
]]>
</style>
<path id="z36639d1" d="M313 295Q421 265 424 262Q431 255 427 247Q420 237 393 231Q366 227 317 248C288 258 288 258 274 263Q271 263 270 264Q230 274 182 281Q149 288 174 303Q208 319 275 304C300 298 300 298 313 295Z"/>
<path id="z36639d2" d="M152 410Q139 406 121 405Q109 402 107 408Q101 414 110 428Q141 483 162 573Q166 601 184 618Q202 637 206 623Q207 619 208 614C207 595 207 595 207 586Q206 576 203 563Q181 464 175 437C173 425 164 412 152 410Z"/>
<path id="z36639d3" d="M358 587Q374 611 389 618Q399 625 413 606Q426 584 454 461Q461 433 483 410Q495 398 484 386Q469 370 431 347Q410 340 360 357Q336 360 312 369C288 375 288 375 276 378Q270 378 152 410C140 412 164 441 175 437Q215 421 275 407C299 402 299 402 311 399Q380 378 397 389Q410 398 407 416Q383 551 366 562C360 568 353 580 358 587Z"/>
<path id="z36639d4" d="M311 498Q333 494 357 490Q378 486 369 475Q359 462 337 459Q324 458 311 461C286 468 286 468 274 471Q243 481 218 492Q203 496 222 509C256 506 256 506 273 505C298 500 298 500 311 498Z"/>
<path id="z36639d5" d="M310 594Q331 590 358 587C367 585 373 567 366 562Q362 558 356 555Q343 549 318 556Q314 556 310 559C283 567 283 567 270 571Q236 578 207 586C198 589 199 614 208 614Q212 614 218 613Q237 606 270 601C297 596 297 596 310 594Z"/>
<path id="z36639d6" d="M309 700Q367 684 439 671Q454 668 454 661Q455 649 438 642Q413 633 393 639Q347 652 309 663C282 670 282 670 269 674Q119 710 54 721Q44 722 41 730Q38 740 52 749Q88 771 125 758Q207 727 266 711C295 704 295 704 309 700Z"/>
<path id="z36639d7" d="M266 711Q260 775 243 836Q234 872 257 931Q264 947 271 951Q277 957 284 950Q291 946 301 925Q310 903 309 873Q308 845 309 700C309 675 309 675 309 663Q309 630 310 594C310 571 310 571 310 559Q310 529 311 498C311 473 311 473 311 461C311 420 311 420 311 399C312 379 312 379 312 369Q312 333 313 295C316 264 316 264 317 248Q321 197 333 159Q340 146 338 132Q332 123 279 91Q257 75 238 90Q234 94 239 109Q273 160 274 210Q274 235 274 263C275 290 275 290 275 304Q275 335 277 370Q276 373 276 378C275 397 275 397 275 407Q274 438 274 471C273 494 273 494 273 505Q272 536 270 571C270 591 270 591 270 601Q269 635 269 674C267 699 267 699 266 711Z"/>
<path id="z36639d8" d="M602 399Q621 360 635 307Q642 283 660 266Q670 257 669 250Q668 240 642 232Q612 220 601 222Q592 223 585 232Q540 262 498 276Q470 280 468 287Q468 290 474 293Q486 300 510 300Q529 296 560 274Q576 264 586 268Q593 271 585 318Q582 342 565 385C555 406 555 406 550 416Q517 468 471 504Q465 508 467 512Q468 516 473 514Q527 502 578 438C594 412 594 412 602 399Z"/>
<path id="z36639d9" d="M578 438Q603 463 621 467Q631 467 636 464Q642 455 635 438Q626 411 602 399C577 390 577 390 565 385Q520 366 505 365Q498 366 501 372Q502 378 512 383Q531 399 550 416C569 431 569 431 578 438Z"/>
<path id="z36639d10" d="M810 370Q832 328 850 268Q860 243 879 224Q891 215 890 208Q887 198 861 187Q830 174 817 175Q808 176 800 184Q766 208 720 224Q689 227 688 235Q687 238 693 241Q706 250 732 251Q747 247 771 228Q790 218 799 222Q806 226 796 277Q793 298 771 353C759 376 759 376 753 387Q705 450 660 483Q653 489 655 492Q656 496 662 494Q723 479 784 410C801 383 801 383 810 370Z"/>
<path id="z36639d11" d="M784 410Q871 476 877 478Q884 478 888 470Q897 458 882 427Q870 397 810 370C784 359 784 359 771 353Q722 332 694 323Q687 320 687 330Q687 340 697 347Q724 365 753 387C774 402 774 402 784 410Z"/>
<path id="z36639d12" d="M582 703Q598 672 614 628Q624 606 642 589Q652 582 652 574Q651 564 627 554Q597 541 587 542Q578 543 571 550Q540 571 482 589Q454 592 452 599Q452 602 457 605Q470 612 494 614Q512 611 543 591Q559 582 568 587Q574 590 564 634Q560 658 546 683C535 704 535 704 530 714Q500 765 436 808Q429 812 431 816Q432 820 437 818Q491 815 557 741C574 716 574 716 582 703Z"/>
<path id="z36639d13" d="M557 741Q596 780 608 782Q620 783 624 780Q630 773 625 755Q618 728 582 703C558 690 558 690 546 683Q495 656 481 653Q474 654 477 660C512 696 512 696 530 714C548 732 548 732 557 741Z"/>
<path id="z36639d14" d="M792 730Q819 684 837 611Q841 580 857 564Q870 551 853 539Q834 526 805 517Q786 513 769 523Q748 539 717 551Q695 554 685 561Q678 567 694 574Q721 586 765 562Q783 555 784 576Q784 630 757 695C744 720 744 720 737 733Q692 790 599 824Q586 828 595 834Q602 838 626 833Q687 824 724 804Q745 791 763 771C782 744 782 744 792 730Z"/>
<path id="z36639d15" d="M763 771Q794 811 842 864Q864 883 900 878Q946 872 980 867Q990 866 1001 862Q1008 856 999 848Q987 841 892 797Q862 785 792 730C769 707 769 707 757 695Q730 667 702 631Q689 613 665 609Q656 608 649 612Q645 616 651 623Q655 627 662 632Q680 642 737 733C754 758 754 758 763 771Z"/>
<defs>
	<clipPath id="z36639c1"><use href="#z36639d1"/></clipPath>
	<clipPath id="z36639c2"><use href="#z36639d2"/></clipPath>
	<clipPath id="z36639c3"><use href="#z36639d3"/></clipPath>
	<clipPath id="z36639c4"><use href="#z36639d4"/></clipPath>
	<clipPath id="z36639c5"><use href="#z36639d5"/></clipPath>
	<clipPath id="z36639c6"><use href="#z36639d6"/></clipPath>
	<clipPath id="z36639c7"><use href="#z36639d7"/></clipPath>
	<clipPath id="z36639c8"><use href="#z36639d8"/></clipPath>
	<clipPath id="z36639c9"><use href="#z36639d9"/></clipPath>
	<clipPath id="z36639c10"><use href="#z36639d10"/></clipPath>
	<clipPath id="z36639c11"><use href="#z36639d11"/></clipPath>
	<clipPath id="z36639c12"><use href="#z36639d12"/></clipPath>
	<clipPath id="z36639c13"><use href="#z36639d13"/></clipPath>
	<clipPath id="z36639c14"><use href="#z36639d14"/></clipPath>
	<clipPath id="z36639c15"><use href="#z36639d15"/></clipPath>
</defs>
<path style="--d:1s;" pathLength="3333" clip-path="url(#z36639c1)" d="M171 292L424 252"/>
<path style="--d:2s;" pathLength="3333" clip-path="url(#z36639c2)" d="M113 407L147 439L199 623"/>
<path style="--d:3s;" pathLength="3333" clip-path="url(#z36639c3)" d="M155 416L422 373L448 408L383 613"/>
<path style="--d:4s;" pathLength="3333" clip-path="url(#z36639c4)" d="M220 498L363 480"/>
<path style="--d:5s;" pathLength="3333" clip-path="url(#z36639c5)" d="M206 604L364 567"/>
<path style="--d:6s;" pathLength="3333" clip-path="url(#z36639c6)" d="M46 733L449 658"/>
<path style="--d:7s;" pathLength="3333" clip-path="url(#z36639c7)" d="M241 93L303 159L278 948"/>
<path style="--d:8s;" pathLength="3333" clip-path="url(#z36639c8)" d="M473 286L595 245L629 265L563 428L475 508"/>
<path style="--d:9s;" pathLength="3333" clip-path="url(#z36639c9)" d="M507 370L634 456"/>
<path style="--d:10s;" pathLength="3333" clip-path="url(#z36639c10)" d="M697 234L811 199L845 225L765 402L659 488"/>
<path style="--d:11s;" pathLength="3333" clip-path="url(#z36639c11)" d="M694 331L833 413L881 471"/>
<path style="--d:12s;" pathLength="3333" clip-path="url(#z36639c12)" d="M459 597L579 566L611 588L543 729L438 812"/>
<path style="--d:13s;" pathLength="3333" clip-path="url(#z36639c13)" d="M485 659L619 775"/>
<path style="--d:14s;" pathLength="3333" clip-path="url(#z36639c14)" d="M689 566L781 538L810 548L823 563L798 655L731 772L600 826"/>
<path style="--d:15s;" pathLength="3333" clip-path="url(#z36639c15)" d="M654 616L871 834L998 852"/>
</svg>