<!--
AnimCJK 2016-2019 Copyright Francois Mizessyn - https://github.com/parsimonhi/animCJK
Derived from:
    MakeMeAHanzi project - https://github.com/skishore/makemeahanzi
    Arphic PL KaitiM GB font
    Arphic PL UKai font
You can redistribute and/or modify this file under the terms of the Arphic Public License
as published by Arphic Technology Co., Ltd.
You should have received a copy of this license along with this file.
If not, see http://ftp.gnu.org/non-gnu/chinese-fonts-truetype/LICENSE.
-->
<svg id="z36637" class="acjk" version="1.1" viewBox="0 0 1024 1024" xmlns="http://www.w3.org/2000/svg" xmlns:xlink="http://www.w3.org/1999/xlink">
<style>
<![CDATA[
@keyframes zk {
	to {
		stroke-dashoffset:0;
	}
}
svg.acjk path[clip-path] {
	--t:0.8s;
	animation:zk var(--t) linear forwards var(--d);
	stroke-dasharray:3337;
	stroke-dashoffset:3339;
	stroke-width:128;
	stroke-linecap:round;
	fill:none;
	stroke:#000;
}
svg.acjk path[id] {fill:#ccc;}
]]>
</style>
<path id="z36637d1" d="M300 391Q318 157 329 133Q332 123 315 109Q284 93 263 88Q250 85 242 93Q235 100 242 113Q260 138 260 155Q267 269 262 402C262 415 300 404 300 391Z"/>
<path id="z36637d2" d="M142 293Q187 353 198 356Q207 357 213 347Q220 337 217 311Q216 295 194 279Q140 246 128 250Q124 251 123 263Q124 272 142 293Z"/>
<path id="z36637d3" d="M366 239Q353 266 326 310Q322 316 327 321Q333 321 338 317Q395 268 423 248Q436 242 432 234Q426 224 410 211Q394 199 377 199Q367 200 368 216Q372 226 366 239Z"/>
<path id="z36637d4" d="M267 441C309 426 359 415 415 404C425 401 431 398 431 394C431 385 424 379 413 375C390 366 354 375 300 391C275 398 275 398 262 402C168 429 104 442 70 447C62 448 57 451 56 457C54 463 57 470 68 477C95 493 123 494 151 482C178 469 206 461 231 453C255 445 255 445 267 441Z"/>
<path id="z36637d5" d="M278 498C293 474 300 463 299 456C297 449 282 444 267 441C255 439 231 440 231 453C231 505 168 596 43 725C32 735 34 737 49 734C99 721 195 618 259 526C272 507 272 507 278 498Z"/>
<path id="z36637d6" d="M259 526C275 562 274 609 263 670C259 689 255 705 249 716C232 741 236 775 272 793C273 794 273 794 274 794C281 797 287 795 295 783C313 753 353 700 417 624C425 613 430 605 431 601C431 593 425 593 414 602C348 652 313 678 310 678C307 677 303 673 304 665C307 604 313 566 317 551C319 540 317 531 310 523C298 510 287 502 278 498C268 492 255 516 259 526Z"/>
<path id="z36637d7" d="M532 149C520 132 512 123 509 121C506 118 503 117 500 120C497 122 493 127 494 134C494 148 489 176 471 215C465 225 460 235 462 247C463 259 467 269 473 278C477 284 480 284 485 282C492 278 501 265 511 239C520 212 528 195 534 187C536 182 538 177 540 172C543 164 537 155 532 149Z"/>
<path id="z36637d8" d="M653 159C686 150 744 137 830 129C836 128 841 127 844 129C853 134 854 140 852 146C851 148 843 172 825 215C821 224 819 229 823 232C827 234 836 231 847 224C880 200 910 184 938 177C960 170 972 163 971 157C969 150 946 133 905 103C888 91 851 93 791 105C771 108 711 116 611 135C586 139 566 143 532 149C524 151 532 169 540 172C554 178 575 178 605 171C637 163 637 163 653 159Z"/>
<path id="z36637d9" d="M683 287C701 281 722 275 746 270C764 265 773 261 776 259C780 254 782 249 779 245C774 238 764 234 749 232C727 228 709 237 688 245C653 257 653 257 635 263C613 270 587 271 561 277C542 280 539 288 554 296C574 307 597 310 636 300C667 291 667 291 683 287Z"/>
<path id="z36637d10" d="M521 379Q511 373 478 368Q468 367 464 371Q460 375 467 390Q495 445 513 537Q517 564 533 582Q549 601 554 587Q555 580 556 571C555 555 555 555 555 547Q543 478 529 410C527 400 531 384 521 379Z"/>
<path id="z36637d11" d="M758 543C766 555 775 564 785 570C791 574 799 570 809 558C817 546 829 506 848 441C853 422 863 404 878 391C886 383 887 376 880 367C871 356 855 340 828 327C806 316 741 337 680 349C649 355 649 355 634 358C615 361 574 370 521 379C511 381 519 414 529 410C557 401 591 392 634 384C665 378 665 378 680 375C742 362 779 358 793 368C799 372 802 380 800 391C786 463 774 504 764 513C758 521 752 535 758 543Z"/>
<path id="z36637d12" d="M679 467C699 463 718 460 736 458C750 455 754 450 749 443C742 434 731 427 717 426C706 424 693 425 679 430C648 439 648 439 633 444C613 450 595 455 578 461C568 464 569 468 582 477C584 478 601 480 633 475C664 470 664 470 679 467Z"/>
<path id="z36637d13" d="M678 554C704 549 731 545 758 543C768 543 773 517 764 513C738 498 701 516 678 521C647 528 647 528 631 531C604 536 579 541 555 547C547 548 548 571 556 571C562 571 568 571 576 570C576 570 612 565 630 562C662 557 662 557 678 554Z"/>
<path id="z36637d14" d="M678 683C733 675 821 673 940 673C952 673 960 670 963 665C965 658 963 649 953 641C921 615 892 608 869 613C821 623 757 636 678 647C644 652 644 652 627 654C563 662 495 668 424 679C411 680 409 687 418 697C426 706 436 712 448 715C460 718 472 718 483 716C527 704 575 696 626 690C661 685 661 685 678 683Z"/>
<path id="z36637d15" d="M626 690C624 755 616 860 626 923C628 939 633 951 638 957C641 961 646 964 651 962C663 955 668 931 672 895C680 798 678 728 678 683C678 659 678 659 678 647C678 585 678 585 678 554C678 532 678 532 678 521C678 504 679 486 679 467C679 442 679 442 679 430C679 412 680 393 680 375C680 358 680 358 680 349C680 336 682 293 683 287C686 259 686 259 688 245C689 230 693 217 696 205C698 193 694 184 685 178C672 169 661 163 653 159C639 151 597 157 605 171C605 171 606 173 608 176C626 212 634 241 635 263C636 288 636 288 636 300C636 318 634 337 634 358C634 375 634 375 634 384C634 402 633 422 633 444C633 465 633 465 633 475C633 493 631 511 631 531C630 552 630 552 630 562C629 590 627 621 627 654C626 678 626 678 626 690Z"/>
<defs>
	<clipPath id="z36637c1"><use xlink:href="#z36637d1"/></clipPath>
	<clipPath id="z36637c2"><use xlink:href="#z36637d2"/></clipPath>
	<clipPath id="z36637c3"><use xlink:href="#z36637d3"/></clipPath>
	<clipPath id="z36637c4"><use xlink:href="#z36637d4"/></clipPath>
	<clipPath id="z36637c5"><use xlink:href="#z36637d5"/></clipPath>
	<clipPath id="z36637c6"><use xlink:href="#z36637d6"/></clipPath>
	<clipPath id="z36637c7"><use xlink:href="#z36637d7"/></clipPath>
	<clipPath id="z36637c8"><use xlink:href="#z36637d8"/></clipPath>
	<clipPath id="z36637c9"><use xlink:href="#z36637d9"/></clipPath>
	<clipPath id="z36637c10"><use xlink:href="#z36637d10"/></clipPath>
	<clipPath id="z36637c11"><use xlink:href="#z36637d11"/></clipPath>
	<clipPath id="z36637c12"><use xlink:href="#z36637d12"/></clipPath>
	<clipPath id="z36637c13"><use xlink:href="#z36637d13"/></clipPath>
	<clipPath id="z36637c14"><use xlink:href="#z36637d14"/></clipPath>
	<clipPath id="z36637c15"><use xlink:href="#z36637d15"/></clipPath>
</defs>
<path style="--d:1s;" pathLength="3333" clip-path="url(#z36637c1)" d="M246 97L294 138L272 398"/>
<path style="--d:2s;" pathLength="3333" clip-path="url(#z36637c2)" d="M132 258L208 346"/>
<path style="--d:3s;" pathLength="3333" clip-path="url(#z36637c3)" d="M380 202L398 242L332 314"/>
<path style="--d:4s;" pathLength="3333" clip-path="url(#z36637c4)" d="M64 459L126 463L424 389"/>
<path style="--d:5s;" pathLength="3333" clip-path="url(#z36637c5)" d="M241 455L264 471L160 625L46 728"/>
<path style="--d:6s;" pathLength="3333" clip-path="url(#z36637c6)" d="M279 507L290 742L424 603"/>
<path style="--d:7s;" pathLength="3333" clip-path="url(#z36637c7)" d="M503 128L514 170L480 277"/>
<path style="--d:8s;" pathLength="3333" clip-path="url(#z36637c8)" d="M539 151L861 113L914 164L830 228"/>
<path style="--d:9s;" pathLength="3333" clip-path="url(#z36637c9)" d="M556 288L773 248"/>
<path style="--d:10s;" pathLength="3333" clip-path="url(#z36637c10)" d="M469 374L500 399L542 587"/>
<path style="--d:11s;" pathLength="3333" clip-path="url(#z36637c11)" d="M528 385L772 346L825 358L841 386L786 567"/>
<path style="--d:12s;" pathLength="3333" clip-path="url(#z36637c12)" d="M580 467L744 446"/>
<path style="--d:13s;" pathLength="3333" clip-path="url(#z36637c13)" d="M562 563L760 525"/>
<path style="--d:14s;" pathLength="3333" clip-path="url(#z36637c14)" d="M423 689L883 642L959 653"/>
<path style="--d:15s;" pathLength="3333" clip-path="url(#z36637c15)" d="M613 175L662 213L643 956"/>
</svg>