<!--
AnimCJK 2016-2017 Copyright Francois Mizessyn, http://gooo.free.fr/animCJK/
Derived from:
    MakeMeAHanzi project - https://github.com/skishore/makemeahanzi
    Arphic PL KaitiM GB - https://apps.ubuntu.com/cat/applications/precise/fonts-arphic-gkai00mp/
    Arphic PL UKai - https://apps.ubuntu.com/cat/applications/fonts-arphic-ukai/
You can redistribute and/or modify this file under the terms of the Arphic Public License
as published by Arphic Technology Co., Ltd.
You should have received a copy of this license (the directory "APL") along with this file;
if not, see http://ftp.gnu.org/non-gnu/chinese-fonts-truetype/LICENSE.
-->
<svg id="z36637" class="acjk" version="1.1" viewBox="0 0 1024 1024" xmlns="http://www.w3.org/2000/svg" xmlns:xlink="http://www.w3.org/1999/xlink">
<style>
<![CDATA[
	@keyframes z36637k {
		from {
			stroke:#c00;
			stroke-dashoffset:3000;
		}
		75% {
			stroke:#c00;
			stroke-dashoffset:0;
		}
		to {
			stroke:#000;
		}
	}
	#z36637 path[clip-path] {
		animation:z36637k 1s linear both;
		stroke-dasharray:3000;
		stroke-width:128;
		stroke-linecap:round;
		fill:none;
	}
	#z36637 path[clip-path="url(#z36637c1)"] {animation-delay:1s;}
	#z36637 path[clip-path="url(#z36637c2)"] {animation-delay:2s;}
	#z36637 path[clip-path="url(#z36637c3)"] {animation-delay:3s;}
	#z36637 path[clip-path="url(#z36637c4)"] {animation-delay:4s;}
	#z36637 path[clip-path="url(#z36637c5)"] {animation-delay:5s;}
	#z36637 path[clip-path="url(#z36637c6)"] {animation-delay:6s;}
	#z36637 path[clip-path="url(#z36637c7)"] {animation-delay:7s;}
	#z36637 path[clip-path="url(#z36637c8)"] {animation-delay:8s;}
	#z36637 path[clip-path="url(#z36637c9)"] {animation-delay:9s;}
	#z36637 path[clip-path="url(#z36637c10)"] {animation-delay:10s;}
	#z36637 path[clip-path="url(#z36637c11)"] {animation-delay:11s;}
	#z36637 path[clip-path="url(#z36637c12)"] {animation-delay:12s;}
	#z36637 path[clip-path="url(#z36637c13)"] {animation-delay:13s;}
	#z36637 path[clip-path="url(#z36637c14)"] {animation-delay:14s;}
	#z36637 path[clip-path="url(#z36637c15)"] {animation-delay:15s;}
	#z36637 path {fill:#ccc;}
]]>
</style>
<g transform="scale(1,-1) translate(0,-900)">
	<path id="z36637d1" d="M300 509Q318 743 329 767Q332 777 315 791Q284 807 263 812Q250 815 242 807Q235 800 242 787Q260 762 260 745Q267 631 262 498L300 509Z"/>
	<path id="z36637d2" d="M142 607Q187 547 198 544Q207 543 213 553Q220 563 217 589Q216 605 194 621Q140 654 128 650Q124 649 123 637Q124 628 142 607Z"/>
	<path id="z36637d3" d="M366 661Q353 634 326 590Q322 584 327 579Q333 579 338 583Q395 632 423 652Q436 658 432 666Q426 676 410 689Q394 701 377 701Q367 700 368 684Q372 674 366 661Z"/>
	<path id="z36637d4" d="M267 459Q331 478 415 496Q431 499 431 506Q431 519 413 525Q380 538 300 509L262 498Q121 461 70 453Q58 452 56 443Q53 433 68 423Q110 399 151 418Q193 436 231 447L267 459Z"/>
	<path id="z36637d5" d="M278 402Q299 439 299 444Q295 454 272 458Q269 459 267 459L231 447Q231 368 43 175Q27 160 49 166Q125 184 247 354Q248 361 259 374L278 402Z"/>
	<path id="z36637d6" d="M259 374Q283 320 263 230Q260 200 249 184Q225 145 272 107L274 106Q284 99 295 117Q322 162 417 276Q430 292 431 299Q431 311 414 298Q315 222 310 222Q306 223 304 235Q311 326 317 349Q321 365 310 377Q292 396 278 402L259 374Z"/>
	<path id="z36637d7" d="M532 751Q514 776 509 779Q505 783 500 780Q496 776 494 766Q497 744 471 685Q461 670 462 653Q465 635 473 622Q480 612 485 618Q497 621 511 661Q526 700 534 713Q538 720 540 728L532 751Z"/>
	<path id="z36637d8" d="M653 741Q701 759 830 771Q839 772 844 771Q857 762 852 754Q852 750 825 685Q818 672 823 668Q830 665 847 676Q896 712 938 723Q972 733 971 743Q968 752 905 797Q881 815 791 795Q761 792 611 765Q575 758 539 753Q535 753 532 751L540 728Q561 718 605 729L653 741Z"/>
	<path id="z36637d9" d="M683 613Q711 622 746 630Q773 637 776 641Q783 648 779 655Q772 664 749 668Q716 674 688 655L635 637Q601 630 561 623Q533 616 554 604Q585 588 633 600Q634 601 636 600L683 613Z"/>
	<path id="z36637d10" d="M521 521Q511 527 478 532Q468 533 464 529Q460 525 467 510Q495 455 513 363Q517 336 533 318Q549 299 554 313Q555 320 556 329L555 353Q543 422 529 490L521 521Z"/>
	<path id="z36637d11" d="M758 357Q771 338 785 330Q795 323 809 342Q821 360 848 459Q857 487 878 509Q891 519 880 533Q867 549 828 573Q813 580 730 561Q718 561 680 551L634 542Q619 542 521 521L529 490Q571 503 634 516L680 525Q773 546 793 532Q803 525 800 509Q779 400 764 387L758 357Z"/>
	<path id="z36637d12" d="M679 433Q709 439 736 442Q757 446 749 457Q739 470 717 474Q701 475 679 470L633 456Q603 449 578 439Q563 436 582 423Q585 420 633 425L679 433Z"/>
	<path id="z36637d13" d="M678 346Q718 353 758 357L764 387Q734 402 685 382Q681 382 678 379L631 369Q591 362 555 353L556 329Q565 329 576 330L630 338L678 346Z"/>
	<path id="z36637d14" d="M678 217Q762 227 940 227Q959 227 963 235Q967 245 953 259Q904 295 869 287Q797 272 678 253L627 246Q531 236 424 221Q405 218 418 203Q431 190 448 185Q467 181 483 184Q550 203 626 210L678 217Z"/>
	<path id="z36637d15" d="M626 210Q626 206 626 198Q622 32 626 -23Q632 -48 638 -57Q644 -64 651 -62Q669 -50 672 5Q687 149 678 217L678 253Q677 292 678 346L678 379Q678 404 679 433L679 470Q679 497 680 525L680 551Q681 570 682 591Q682 603 683 613L688 655Q691 677 696 695Q699 713 685 722Q666 735 653 741L605 729Q606 728 608 724Q635 670 635 637L636 600Q635 573 634 542L634 516Q633 488 633 456L633 425Q632 398 631 369L630 338Q629 295 627 246L626 210Z"/>
	<defs>
		<clipPath id="z36637c1"><use xlink:href="#z36637d1"/></clipPath>
		<clipPath id="z36637c2"><use xlink:href="#z36637d2"/></clipPath>
		<clipPath id="z36637c3"><use xlink:href="#z36637d3"/></clipPath>
		<clipPath id="z36637c4"><use xlink:href="#z36637d4"/></clipPath>
		<clipPath id="z36637c5"><use xlink:href="#z36637d5"/></clipPath>
		<clipPath id="z36637c6"><use xlink:href="#z36637d6"/></clipPath>
		<clipPath id="z36637c7"><use xlink:href="#z36637d7"/></clipPath>
		<clipPath id="z36637c8"><use xlink:href="#z36637d8"/></clipPath>
		<clipPath id="z36637c9"><use xlink:href="#z36637d9"/></clipPath>
		<clipPath id="z36637c10"><use xlink:href="#z36637d10"/></clipPath>
		<clipPath id="z36637c11"><use xlink:href="#z36637d11"/></clipPath>
		<clipPath id="z36637c12"><use xlink:href="#z36637d12"/></clipPath>
		<clipPath id="z36637c13"><use xlink:href="#z36637d13"/></clipPath>
		<clipPath id="z36637c14"><use xlink:href="#z36637d14"/></clipPath>
		<clipPath id="z36637c15"><use xlink:href="#z36637d15"/></clipPath>
	</defs>
	<path pathLength="2999" clip-path="url(#z36637c1)" d="M246 803L294 762L272 502"/>
	<path pathLength="2999" clip-path="url(#z36637c2)" d="M132 642L208 554"/>
	<path pathLength="2999" clip-path="url(#z36637c3)" d="M380 698L398 658L332 586"/>
	<path pathLength="2999" clip-path="url(#z36637c4)" d="M64 441L126 437L424 511"/>
	<path pathLength="2999" clip-path="url(#z36637c5)" d="M295 443L254 422L160 275L46 172"/>
	<path pathLength="2999" clip-path="url(#z36637c6)" d="M279 393L290 158L424 297"/>
	<path pathLength="2999" clip-path="url(#z36637c7)" d="M503 772L514 730L480 623"/>
	<path pathLength="2999" clip-path="url(#z36637c8)" d="M539 749L861 787L914 736L830 672"/>
	<path pathLength="2999" clip-path="url(#z36637c9)" d="M556 612L773 652"/>
	<path pathLength="2999" clip-path="url(#z36637c10)" d="M469 526L500 501L542 313"/>
	<path pathLength="2999" clip-path="url(#z36637c11)" d="M528 515L772 554L825 542L841 514L786 333"/>
	<path pathLength="2999" clip-path="url(#z36637c12)" d="M580 433L744 454"/>
	<path pathLength="2999" clip-path="url(#z36637c13)" d="M562 337L760 375"/>
	<path pathLength="2999" clip-path="url(#z36637c14)" d="M423 211L883 258L959 247"/>
	<path pathLength="2999" clip-path="url(#z36637c15)" d="M613 725L662 687L643 -56"/>
</g>
</svg>