<!--
AnimCJK 2016-2026 Copyright FM-SH - https://github.com/parsimonhi/animCJK
Derived from:
    MakeMeAHanzi project - https://github.com/skishore/makemeahanzi
    Arphic PL KaitiM GB font
    Arphic PL KaitiM Big5 font
You can redistribute and/or modify this file under the terms of the Arphic Public License
as published by Arphic Technology Co., Ltd.
You should have received a copy of this license along with this file.
If not, see https://ftp.gnu.org/non-gnu/chinese-fonts-truetype/LICENSE.
-->
<svg id="z36667" class="acjk" viewBox="0 0 1024 1024" xmlns="http://www.w3.org/2000/svg">
<style>
<![CDATA[
@keyframes zk {
	to {
		stroke-dashoffset:0;
	}
}
svg.acjk path[clip-path] {
	--t:0.8s;
	animation:zk var(--t) linear forwards var(--d);
	stroke-dasharray:3337;
	stroke-dashoffset:3339;
	stroke-width:128;
	stroke-linecap:round;
	fill:none;
	stroke:#000;
}
svg.acjk path[id] {fill:#ccc;}
]]>
</style>
<path id="z36667d1" d="M340 230C411 210 436 204 449 194C460 185 470 164 417 164C392 163 371 173 345 182C312 193 312 193 295 199C270 207 244 210 217 217C194 222 192 230 210 239C231 249 260 251 296 242C325 234 325 234 340 230Z"/>
<path id="z36667d2" d="M178 351C159 346 105 330 129 370C152 409 172 462 187 529C191 548 197 565 211 578C235 601 233 581 236 561C237 551 235 542 233 533C224 497 210 432 198 380C196 368 190 353 178 351Z"/>
<path id="z36667d3" d="M386 524C401 544 421 569 441 542C450 528 462 478 480 396C484 377 493 359 507 343C514 334 515 326 508 319C498 308 479 296 453 282C431 269 373 295 337 305C310 312 310 312 297 316C261 325 228 336 178 351C167 355 187 384 198 380C224 369 256 357 297 347C324 340 324 340 337 337C382 325 408 317 421 326C429 332 433 341 431 353C415 443 402 491 392 499C387 506 381 517 386 524Z"/>
<path id="z36667d4" d="M336 432C358 424 387 415 398 407C406 399 398 389 372 386C359 384 348 389 336 395C310 406 310 406 297 412C284 417 269 420 253 425C236 429 234 436 248 442C260 447 277 452 296 446C323 437 323 437 336 432Z"/>
<path id="z36667d5" d="M334 535C348 531 366 527 386 524C394 522 399 504 392 499C381 488 366 488 335 500C308 510 308 510 294 515C271 523 251 527 233 533C224 536 227 564 236 561C258 554 277 549 294 545C321 538 321 538 334 535Z"/>
<path id="z36667d6" d="M333 659C359 652 389 645 423 638C452 630 435 612 421 606C400 597 371 603 333 615C305 624 305 624 291 628C170 665 86 680 42 689C20 693 24 707 41 720C66 738 93 740 121 729C194 698 250 679 289 670C318 663 318 663 333 659Z"/>
<path id="z36667d7" d="M289 670C286 720 279 768 266 816C259 839 264 872 280 914C293 949 312 935 325 909C332 892 334 874 334 854C333 833 333 768 333 659C333 630 333 630 333 615C333 590 333 563 334 535C335 512 335 512 335 500C335 478 336 455 336 432C336 407 336 407 336 395C336 376 337 357 337 337C337 316 337 316 337 305C337 283 337 252 340 230C343 198 343 198 345 182C352 114 370 112 363 94C360 86 338 73 302 51C285 40 243 36 261 70C279 106 293 147 295 199C296 228 296 228 296 242C296 264 297 289 297 316C297 337 297 337 297 347C297 367 297 389 297 412C296 435 296 435 296 446C295 468 294 491 294 515C294 535 294 535 294 545C294 571 292 599 291 628C290 656 290 656 289 670Z"/>
<path id="z36667d8" d="M567 175C540 181 537 192 558 201C591 215 630 213 673 201C715 188 759 177 804 165C826 158 838 153 841 151C847 144 847 138 844 133C837 124 824 117 804 115C786 112 747 127 685 147C617 167 576 172 567 175Z"/>
<path id="z36667d9" d="M587 342C570 337 508 317 532 356C549 385 568 424 581 475C584 489 591 500 601 511C615 525 623 519 623 495C622 485 620 475 618 466C610 433 600 392 596 373C594 362 598 344 587 342Z"/>
<path id="z36667d10" d="M806 441C824 402 845 380 863 367C875 357 876 342 867 332C857 321 835 310 803 293C791 286 761 297 711 313C645 332 603 338 587 342C576 344 585 375 596 373C647 359 700 350 753 338C764 335 787 333 780 363C772 390 762 413 754 435C748 451 800 457 806 441Z"/>
<path id="z36667d11" d="M623 495C637 495 652 486 814 466C837 463 814 446 806 441C791 432 771 432 754 435C703 447 658 458 618 466C608 468 613 495 623 495Z"/>
<path id="z36667d12" d="M517 600C468 585 453 585 467 615C489 664 505 730 514 811C516 835 522 855 536 872C552 891 558 888 563 854C564 842 563 831 562 820C554 762 540 697 535 637C533 623 530 603 517 600Z"/>
<path id="z36667d13" d="M810 829C803 865 836 964 869 891C884 856 898 788 910 685C913 652 922 627 938 608C948 595 950 584 943 576C929 561 906 548 876 534C863 528 847 526 826 535C743 566 641 588 517 600C503 602 521 639 535 637C542 637 570 630 640 615C665 610 665 610 677 607C775 585 830 577 844 589C848 592 851 599 851 612C849 671 833 785 819 808C813 822 813 822 810 829Z"/>
<path id="z36667d14" d="M697 798C697 772 699 748 701 726C702 701 702 701 703 688C705 632 723 636 677 607C666 601 634 604 640 615C646 623 651 652 653 703C654 726 654 726 654 737C654 755 654 778 655 806C655 820 697 812 697 798Z"/>
<path id="z36667d15" d="M701 726C757 712 788 704 792 701C808 686 773 675 767 675C747 672 726 680 703 688C670 698 670 698 653 703C635 708 616 708 597 712C579 714 576 720 590 729C606 739 628 743 654 737C685 730 685 730 701 726Z"/>
<path id="z36667d16" d="M563 854C591 854 594 842 810 829C818 829 824 813 819 808C785 776 780 782 697 798C669 803 669 803 655 806C621 812 590 815 562 820C551 822 552 854 563 854Z"/>
<defs>
	<clipPath id="z36667c1"><use href="#z36667d1"/></clipPath>
	<clipPath id="z36667c2"><use href="#z36667d2"/></clipPath>
	<clipPath id="z36667c3"><use href="#z36667d3"/></clipPath>
	<clipPath id="z36667c4"><use href="#z36667d4"/></clipPath>
	<clipPath id="z36667c5"><use href="#z36667d5"/></clipPath>
	<clipPath id="z36667c6"><use href="#z36667d6"/></clipPath>
	<clipPath id="z36667c7"><use href="#z36667d7"/></clipPath>
	<clipPath id="z36667c8"><use href="#z36667d8"/></clipPath>
	<clipPath id="z36667c9"><use href="#z36667d9"/></clipPath>
	<clipPath id="z36667c10"><use href="#z36667d10"/></clipPath>
	<clipPath id="z36667c11"><use href="#z36667d11"/></clipPath>
	<clipPath id="z36667c12"><use href="#z36667d12"/></clipPath>
	<clipPath id="z36667c13"><use href="#z36667d13"/></clipPath>
	<clipPath id="z36667c14"><use href="#z36667d14"/></clipPath>
	<clipPath id="z36667c15"><use href="#z36667d15"/></clipPath>
	<clipPath id="z36667c16"><use href="#z36667d16"/></clipPath>
</defs>
<path style="--d:1s;" pathLength="3333" clip-path="url(#z36667c1)" d="M209 228L453 184"/>
<path style="--d:2s;" pathLength="3333" clip-path="url(#z36667c2)" d="M130 354L171 386L221 584"/>
<path style="--d:3s;" pathLength="3333" clip-path="url(#z36667c3)" d="M181 359L398 304L450 313L472 337L409 547"/>
<path style="--d:4s;" pathLength="3333" clip-path="url(#z36667c4)" d="M242 433L395 399"/>
<path style="--d:5s;" pathLength="3333" clip-path="url(#z36667c5)" d="M231 552L391 507"/>
<path style="--d:6s;" pathLength="3333" clip-path="url(#z36667c6)" d="M31 699L105 705L432 623"/>
<path style="--d:7s;" pathLength="3333" clip-path="url(#z36667c7)" d="M263 48L324 122L302 930"/>
<path style="--d:8s;" pathLength="3333" clip-path="url(#z36667c8)" d="M552 189L839 135"/>
<path style="--d:9s;" pathLength="3333" clip-path="url(#z36667c9)" d="M534 341L568 364L610 513"/>
<path style="--d:10s;" pathLength="3333" clip-path="url(#z36667c10)" d="M584 354L790 317L826 357L770 448"/>
<path style="--d:11s;" pathLength="3333" clip-path="url(#z36667c11)" d="M614 476L817 454"/>
<path style="--d:12s;" pathLength="3333" clip-path="url(#z36667c12)" d="M471 601L506 635L547 879"/>
<path style="--d:13s;" pathLength="3333" clip-path="url(#z36667c13)" d="M520 610L840 557L886 579L899 600L842 913"/>
<path style="--d:14s;" pathLength="3333" clip-path="url(#z36667c14)" d="M646 613L679 652L671 810"/>
<path style="--d:15s;" pathLength="3333" clip-path="url(#z36667c15)" d="M589 720L792 691"/>
<path style="--d:16s;" pathLength="3333" clip-path="url(#z36667c16)" d="M558 841L816 815"/>
</svg>