<!--
AnimCJK 2016-2026 Copyright FM-SH, https://github.com/parsimonhi/animCJK
Derived from:
    MakeMeAHanzi project - https://github.com/skishore/makemeahanzi
    Arphic PL KaitiM GB font
    Arphic PL KaitiM Big5 font
You can redistribute and/or modify this file under the terms of the Arphic Public License
as published by Arphic Technology Co., Ltd.
You should have received a copy of this license along with this file.
If not, see https://ftp.gnu.org/non-gnu/chinese-fonts-truetype/LICENSE.
-->
<svg id="z36677" class="acjk" viewBox="0 0 1024 1024" xmlns="http://www.w3.org/2000/svg">
<style>
<![CDATA[
@keyframes zk {
	to {
		stroke-dashoffset:0;
	}
}
svg.acjk path[clip-path] {
	--t:0.8s;
	animation:zk var(--t) linear forwards var(--d);
	stroke-dasharray:3337;
	stroke-dashoffset:3339;
	stroke-width:128;
	stroke-linecap:round;
	fill:none;
	stroke:#000;
}
svg.acjk path[id] {fill:#ccc;}
]]>
</style>
<path id="z36677d1" d="M312 232Q346 222 385 214Q416 207 420 202Q427 195 423 187Q416 177 389 171Q350 165 317 185C285 195 285 195 269 200Q265 200 264 201Q224 211 175 218Q141 225 166 239Q208 260 259 244Q263 243 270 242C298 235 298 235 312 232Z"/>
<path id="z36677d2" d="M174 348Q164 341 129 336Q119 333 115 338Q109 344 117 359Q147 420 164 522Q167 553 185 573Q201 594 206 579Q210 569 210 554C209 535 209 535 208 525Q189 426 182 379C180 368 184 353 174 348Z"/>
<path id="z36677d3" d="M360 529Q378 554 393 562Q403 569 415 550Q428 526 451 403Q458 376 478 353Q488 343 478 330Q465 315 426 294Q408 287 346 306Q334 306 310 315C285 321 285 321 272 324Q262 324 174 348C164 350 172 384 182 379Q182 378 186 377Q220 365 272 353C297 348 297 348 310 345Q379 327 395 337Q408 346 405 364Q387 493 372 508C367 514 355 523 360 529Z"/>
<path id="z36677d4" d="M310 439Q337 433 362 429Q381 425 373 414Q363 404 342 400Q327 399 310 405C284 414 284 414 271 418Q243 428 217 437Q204 441 221 453C254 450 254 450 270 448C297 442 297 442 310 439Z"/>
<path id="z36677d5" d="M309 536Q331 532 360 529C368 527 378 513 372 508Q366 502 353 495Q340 488 313 496Q310 496 309 498C282 506 282 506 268 510Q235 519 208 525C198 527 200 554 210 554Q216 555 225 553Q241 547 268 543C295 538 295 538 309 536Z"/>
<path id="z36677d6" d="M308 658Q378 639 470 621Q486 618 487 611Q487 598 469 590Q441 580 419 586Q356 602 308 618C281 625 281 625 267 628Q99 667 59 673Q46 674 44 683Q41 693 57 704Q90 725 147 711Q213 686 266 670C294 662 294 662 308 658Z"/>
<path id="z36677d7" d="M266 670Q262 748 241 820Q229 862 256 919Q263 935 271 939Q277 946 284 937Q291 933 301 912Q311 888 310 858Q309 827 308 658C308 631 308 631 308 618Q308 579 309 536C309 511 309 511 309 498Q309 470 310 439C310 416 310 416 310 405C310 365 310 365 310 345C310 325 310 325 310 315Q310 270 312 232C315 201 315 201 317 185Q321 148 330 117Q339 102 336 89Q329 80 275 47Q251 31 232 46Q226 50 233 66Q269 117 269 200C270 228 270 228 270 242Q270 281 272 324C272 343 272 343 272 353Q271 384 271 418C270 438 270 438 270 448Q269 478 268 510C268 532 268 532 268 543Q267 583 267 628C266 656 266 656 266 670Z"/>
<path id="z36677d8" d="M683 244Q713 234 749 225Q777 216 781 212Q788 205 783 198Q776 188 751 184Q729 181 685 199C650 212 650 212 633 218Q594 228 553 235Q522 242 546 256Q588 274 633 257C634 257 634 257 635 257C667 248 667 248 683 244Z"/>
<path id="z36677d9" d="M676 331Q679 285 683 244C684 214 684 214 685 199Q685 198 701 86Q704 76 685 62Q651 46 629 41Q613 38 606 47Q599 54 607 68Q625 90 625 107Q629 159 633 218C634 244 634 244 635 257Q636 297 636 341C636 355 676 345 676 331Z"/>
<path id="z36677d10" d="M636 341Q567 357 488 377Q472 380 485 393Q510 412 552 400Q651 363 882 337Q898 336 902 328Q906 318 891 308Q840 278 785 300Q739 312 676 331C649 338 649 338 636 341Z"/>
<path id="z36677d11" d="M593 586Q594 579 595 571C597 562 592 553 590 544Q577 493 572 472C570 462 570 448 561 444Q551 440 518 438Q508 437 505 442Q499 448 509 461Q534 495 555 555Q558 573 573 585C578 590 592 593 593 586Z"/>
<path id="z36677d12" d="M756 518Q777 470 800 458Q815 442 802 427Q787 415 742 394Q727 388 653 418Q568 442 561 444C551 447 562 474 572 472Q581 471 701 440Q714 436 720 441Q726 447 724 459Q717 489 710 514C704 528 750 532 756 518Z"/>
<path id="z36677d13" d="M595 571Q602 572 613 570Q661 558 766 546Q775 545 776 538Q776 531 756 518C743 510 725 511 710 514C709 514 709 514 709 514Q643 533 590 544C581 546 586 571 595 571Z"/>
<path id="z36677d14" d="M631 620Q624 596 593 586C587 584 574 578 573 585Q572 586 572 592Q572 649 466 738Q462 739 458 744Q427 769 351 815Q344 818 351 821Q420 830 544 720C564 702 564 702 574 693Q616 647 628 641C634 637 634 627 631 620Z"/>
<path id="z36677d15" d="M544 720Q574 793 539 875Q509 927 554 969C555 970 555 970 556 970Q566 977 578 959Q605 920 698 824Q714 809 715 802Q715 789 696 801Q606 855 599 853Q593 849 592 833Q599 760 604 741Q608 722 595 711Q585 699 574 693C562 686 539 708 544 720Z"/>
<path id="z36677d16" d="M741 700Q826 634 869 609Q885 605 882 594Q876 579 858 562Q839 546 819 544Q806 545 806 563Q807 576 800 591Q775 628 726 687C721 692 736 704 741 700Z"/>
<path id="z36677d17" d="M726 687Q696 662 664 631Q654 619 640 619Q633 619 631 620C624 621 622 637 628 641Q650 654 668 676Q833 869 864 876Q910 876 977 852Q990 849 994 842Q997 836 988 834Q832 776 748 706Q744 702 741 700C731 691 731 691 726 687Z"/>
<defs>
	<clipPath id="z36677c1"><use href="#z36677d1"/></clipPath>
	<clipPath id="z36677c2"><use href="#z36677d2"/></clipPath>
	<clipPath id="z36677c3"><use href="#z36677d3"/></clipPath>
	<clipPath id="z36677c4"><use href="#z36677d4"/></clipPath>
	<clipPath id="z36677c5"><use href="#z36677d5"/></clipPath>
	<clipPath id="z36677c6"><use href="#z36677d6"/></clipPath>
	<clipPath id="z36677c7"><use href="#z36677d7"/></clipPath>
	<clipPath id="z36677c8"><use href="#z36677d8"/></clipPath>
	<clipPath id="z36677c9"><use href="#z36677d9"/></clipPath>
	<clipPath id="z36677c10"><use href="#z36677d10"/></clipPath>
	<clipPath id="z36677c11"><use href="#z36677d11"/></clipPath>
	<clipPath id="z36677c12"><use href="#z36677d12"/></clipPath>
	<clipPath id="z36677c13"><use href="#z36677d13"/></clipPath>
	<clipPath id="z36677c14"><use href="#z36677d14"/></clipPath>
	<clipPath id="z36677c15"><use href="#z36677d15"/></clipPath>
	<clipPath id="z36677c16"><use href="#z36677d16"/></clipPath>
	<clipPath id="z36677c17"><use href="#z36677d17"/></clipPath>
</defs>
<path style="--d:1s;" pathLength="3333" clip-path="url(#z36677c1)" d="M164 230L420 189"/>
<path style="--d:2s;" pathLength="3333" clip-path="url(#z36677c2)" d="M119 342L153 366L195 577"/>
<path style="--d:3s;" pathLength="3333" clip-path="url(#z36677c3)" d="M171 359L367 316L430 329L444 351L387 557"/>
<path style="--d:4s;" pathLength="3333" clip-path="url(#z36677c4)" d="M219 445L369 418"/>
<path style="--d:5s;" pathLength="3333" clip-path="url(#z36677c5)" d="M207 542L368 515"/>
<path style="--d:6s;" pathLength="3333" clip-path="url(#z36677c6)" d="M46 684L129 687L482 608"/>
<path style="--d:7s;" pathLength="3333" clip-path="url(#z36677c7)" d="M234 48L298 106L275 936"/>
<path style="--d:8s;" pathLength="3333" clip-path="url(#z36677c8)" d="M542 245L780 201"/>
<path style="--d:9s;" pathLength="3333" clip-path="url(#z36677c9)" d="M610 51L663 96L649 344"/>
<path style="--d:10s;" pathLength="3333" clip-path="url(#z36677c10)" d="M488 384L821 317L898 323"/>
<path style="--d:11s;" pathLength="3333" clip-path="url(#z36677c11)" d="M510 444L546 470L581 587"/>
<path style="--d:12s;" pathLength="3333" clip-path="url(#z36677c12)" d="M560 454L733 418L765 453L726 524"/>
<path style="--d:13s;" pathLength="3333" clip-path="url(#z36677c13)" d="M589 558L770 536"/>
<path style="--d:14s;" pathLength="3333" clip-path="url(#z36677c14)" d="M579 591L596 632L556 680L451 771L357 816"/>
<path style="--d:15s;" pathLength="3333" clip-path="url(#z36677c15)" d="M566 695L569 912L707 802"/>
<path style="--d:16s;" pathLength="3333" clip-path="url(#z36677c16)" d="M815 548L842 593L732 694"/>
<path style="--d:17s;" pathLength="3333" clip-path="url(#z36677c17)" d="M631 626L865 828L987 841"/>
</svg>