<!--
AnimCJK 2016-2019 Copyright Francois Mizessyn - https://github.com/parsimonhi/animCJK
Derived from:
    MakeMeAHanzi project - https://github.com/skishore/makemeahanzi
    Arphic PL KaitiM GB font
    Arphic PL UKai font
You can redistribute and/or modify this file under the terms of the Arphic Public License
as published by Arphic Technology Co., Ltd.
You should have received a copy of this license along with this file.
If not, see http://ftp.gnu.org/non-gnu/chinese-fonts-truetype/LICENSE.
-->
<svg id="z36786" class="acjk" version="1.1" viewBox="0 0 1024 1024" xmlns="http://www.w3.org/2000/svg" xmlns:xlink="http://www.w3.org/1999/xlink">
<style>
<![CDATA[
@keyframes zk {
	to {
		stroke-dashoffset:0;
	}
}
svg.acjk path[clip-path] {
	--t:0.8s;
	animation:zk var(--t) linear forwards var(--d);
	stroke-dasharray:3337;
	stroke-dashoffset:3339;
	stroke-width:128;
	stroke-linecap:round;
	fill:none;
	stroke:#000;
}
svg.acjk path[id] {fill:#ccc;}
]]>
</style>
<path id="z36786d1" d="M316 168C303 162 289 159 275 158C271 157 267 158 265 162C261 166 263 170 269 177C293 202 312 250 328 318C332 338 340 355 353 372C362 384 371 392 379 394C387 395 393 388 392 377C390 360 390 360 389 351C387 336 366 278 361 260C354 239 350 220 348 202C345 187 330 174 316 168Z"/>
<path id="z36786d2" d="M657 341C660 353 666 359 676 360C692 358 714 331 739 277C755 241 774 214 801 195C815 184 815 173 806 162C794 149 772 132 738 111C725 102 698 106 653 114C633 117 619 119 610 121C577 126 577 126 560 128C527 132 497 138 468 143C437 148 437 148 421 151C379 158 344 163 316 168C301 171 334 208 348 202C368 195 395 190 427 183C454 177 454 177 468 174C494 168 524 164 558 160C589 156 589 156 604 154C654 147 686 142 703 152C708 155 709 167 704 185C684 251 677 276 660 314C657 322 655 332 657 341Z"/>
<path id="z36786d3" d="M468 143C468 134 468 127 469 123C471 110 467 101 459 95C446 85 432 77 417 73C409 70 402 70 398 74C393 77 393 84 398 92C407 110 417 130 421 151C425 172 425 172 427 183C429 197 431 218 434 246C436 264 436 264 437 273C439 292 439 316 443 342C445 353 479 347 477 336C474 311 473 288 472 267C471 248 471 248 470 238C468 217 468 196 468 174C468 153 468 153 468 143Z"/>
<path id="z36786d4" d="M610 121C612 110 615 101 618 94C621 85 624 77 627 71C629 64 626 56 616 49C598 36 582 29 570 26C561 23 554 24 550 28C545 32 544 38 549 46C558 64 562 91 560 128C559 149 559 149 558 160C556 178 554 198 553 219C551 242 551 242 550 253C548 275 544 299 541 324C539 336 578 329 578 316C580 292 585 269 589 247C593 223 593 223 595 211C598 191 600 172 604 154C608 132 608 132 610 121Z"/>
<path id="z36786d5" d="M589 247C603 244 618 242 632 240C644 238 649 232 645 226C639 216 629 212 615 210C609 209 602 209 595 211C567 216 567 216 553 219C523 224 495 232 470 238C446 243 446 243 434 246C420 249 406 250 394 254C385 256 386 260 397 269C405 274 421 275 437 273C460 269 460 269 472 267C498 262 524 257 550 253C576 249 576 249 589 247Z"/>
<path id="z36786d6" d="M392 377C398 377 405 377 413 376C505 361 612 343 657 341C666 341 668 319 660 314C657 311 653 310 647 309C636 307 613 308 578 316C553 321 553 321 541 324C518 328 497 332 477 336C454 340 454 340 443 342C424 345 406 347 389 351C380 352 383 377 392 377Z"/>
<path id="z36786d7" d="M383 471C385 471 387 471 391 472C407 474 455 468 536 454C628 436 676 424 682 420C686 415 688 410 686 406C682 399 672 393 656 389C639 384 622 386 604 393C570 404 535 413 499 422C460 430 418 436 372 440C361 440 372 471 383 471Z"/>
<path id="z36786d8" d="M372 440C348 416 329 405 316 409C307 411 304 418 309 427C330 473 292 643 237 748C209 799 171 855 121 913C118 915 114 918 113 923C110 929 113 932 120 932C142 931 180 899 232 834C239 824 246 815 253 805C298 731 335 630 369 505C372 492 377 481 383 471C389 462 380 448 372 440Z"/>
<path id="z36786d9" d="M426 524C405 527 402 535 418 544C435 554 468 555 516 545C546 538 578 530 611 523C627 519 637 514 640 512C644 507 645 502 643 498C638 491 627 486 611 483C594 480 577 483 560 490C541 497 521 503 501 510C478 516 453 519 426 524Z"/>
<path id="z36786d10" d="M488 640C582 624 667 607 745 597C761 594 766 589 761 580C754 569 742 562 724 559C707 556 684 558 655 565C545 589 442 608 348 626C335 628 337 635 351 646C353 648 357 650 363 652C378 657 396 656 412 653C426 650 441 647 457 645C478 642 478 642 488 640Z"/>
<path id="z36786d11" d="M363 652C381 688 384 752 367 840C360 871 351 888 348 893C330 916 332 944 359 971C363 975 363 975 365 977C370 982 378 978 388 968C412 940 465 894 547 830C558 820 565 814 566 810C566 801 560 800 548 807C466 849 422 868 417 865C412 862 410 854 411 842C417 763 424 714 430 694C433 682 426 668 412 653C400 641 357 637 363 652Z"/>
<path id="z36786d12" d="M628 744C672 721 706 704 730 698C740 695 746 693 744 686C734 655 717 637 693 633C685 631 680 637 680 648C679 660 657 688 612 734C608 738 622 747 628 744Z"/>
<path id="z36786d13" d="M612 734C592 722 552 690 488 640C480 634 450 638 457 645C527 715 623 798 744 895C760 908 780 914 805 914C851 913 896 906 943 895C955 891 961 890 962 887C962 882 958 878 949 875C806 826 763 815 727 800C681 780 649 757 628 744C617 737 617 737 612 734Z"/>
<defs>
	<clipPath id="z36786c1"><use xlink:href="#z36786d1"/></clipPath>
	<clipPath id="z36786c2"><use xlink:href="#z36786d2"/></clipPath>
	<clipPath id="z36786c3"><use xlink:href="#z36786d3"/></clipPath>
	<clipPath id="z36786c4"><use xlink:href="#z36786d4"/></clipPath>
	<clipPath id="z36786c5"><use xlink:href="#z36786d5"/></clipPath>
	<clipPath id="z36786c6"><use xlink:href="#z36786d6"/></clipPath>
	<clipPath id="z36786c7"><use xlink:href="#z36786d7"/></clipPath>
	<clipPath id="z36786c8"><use xlink:href="#z36786d8"/></clipPath>
	<clipPath id="z36786c9"><use xlink:href="#z36786d9"/></clipPath>
	<clipPath id="z36786c10"><use xlink:href="#z36786d10"/></clipPath>
	<clipPath id="z36786c11"><use xlink:href="#z36786d11"/></clipPath>
	<clipPath id="z36786c12"><use xlink:href="#z36786d12"/></clipPath>
	<clipPath id="z36786c13"><use xlink:href="#z36786d13"/></clipPath>
</defs>
<path style="--d:1s;" pathLength="3333" clip-path="url(#z36786c1)" d="M270 164L324 216L378 390"/>
<path style="--d:2s;" pathLength="3333" clip-path="url(#z36786c2)" d="M325 170L718 131L757 184L672 355"/>
<path style="--d:3s;" pathLength="3333" clip-path="url(#z36786c3)" d="M402 78L440 114L461 338"/>
<path style="--d:4s;" pathLength="3333" clip-path="url(#z36786c4)" d="M554 33L593 78L547 318"/>
<path style="--d:5s;" pathLength="3333" clip-path="url(#z36786c5)" d="M397 259L641 230"/>
<path style="--d:6s;" pathLength="3333" clip-path="url(#z36786c6)" d="M397 359L655 322"/>
<path style="--d:7s;" pathLength="3333" clip-path="url(#z36786c7)" d="M381 444L430 452L682 405"/>
<path style="--d:8s;" pathLength="3333" clip-path="url(#z36786c8)" d="M315 415L349 479L290 679L221 816L118 924"/>
<path style="--d:9s;" pathLength="3333" clip-path="url(#z36786c9)" d="M415 532L638 502"/>
<path style="--d:10s;" pathLength="3333" clip-path="url(#z36786c10)" d="M351 634L756 584"/>
<path style="--d:11s;" pathLength="3333" clip-path="url(#z36786c11)" d="M373 658L402 688L377 890L387 927L559 811"/>
<path style="--d:12s;" pathLength="3333" clip-path="url(#z36786c12)" d="M 690,641 704,680 622,738"/>
<path style="--d:13s;" pathLength="3333" clip-path="url(#z36786c13)" d="M467 647L766 859L955 882"/>
</svg>