<!--
AnimCJK 2016-2018 Copyright Francois Mizessyn, https://github.com/parsimonhi/animCJK
Derived from:
    MakeMeAHanzi project - https://github.com/skishore/makemeahanzi
    Arphic PL KaitiM GB - https://apps.ubuntu.com/cat/applications/precise/fonts-arphic-gkai00mp/
    Arphic PL UKai - https://apps.ubuntu.com/cat/applications/fonts-arphic-ukai/
You can redistribute and/or modify this file under the terms of the Arphic Public License
as published by Arphic Technology Co., Ltd.
You should have received a copy of this license (the directory "APL") along with this file;
if not, see http://ftp.gnu.org/non-gnu/chinese-fonts-truetype/LICENSE.
-->
<svg id="z36794" class="acjk" version="1.1" viewBox="0 0 1024 1024" xmlns="http://www.w3.org/2000/svg" xmlns:xlink="http://www.w3.org/1999/xlink">
<style>
<![CDATA[
@keyframes z36794k {
	from {
		stroke:#c00;
		stroke-dashoffset:3334;
	}
	75% {
		stroke:#c00;
		stroke-dashoffset:0;
	}
	to {
		stroke:#000;
	}
}
#z36794 path[clip-path] {
	animation:z36794k 1s linear both;
	stroke-dasharray:3334;
	stroke-width:128;
	stroke-linecap:round;
	fill:none;
}
#z36794 path[clip-path="url(#z36794c1)"] {animation-delay:1s;}
#z36794 path[clip-path="url(#z36794c2)"] {animation-delay:2s;}
#z36794 path[clip-path="url(#z36794c3)"] {animation-delay:3s;}
#z36794 path[clip-path="url(#z36794c4)"] {animation-delay:4s;}
#z36794 path[clip-path="url(#z36794c5)"] {animation-delay:5s;}
#z36794 path {fill:#ccc;}
]]>
</style>
<path id="z36794d1" d="M663 268Q712 254 765 247Q781 246 786 254Q792 270 789 313Q779 468 754 552Q741 603 727 620Q715 635 689 627Q658 619 631 609Q609 602 625 626Q668 680 691 721Q700 743 719 737Q735 736 757 709Q817 638 844 362Q850 300 870 264Q886 241 878 228Q862 207 829 189Q805 173 779 188Q733 210 670 230L611 245Q523 266 471 266Q453 265 453 275Q452 286 472 302Q497 321 519 311Q562 296 605 284L663 268 Z"/>
<path id="z36794d2" d="M371 712C364 712 362 710 365 705C367 702 370 699 373 696C450 631 505 562 535 489L544 466C558 428 567 395 570 368C577 334 576 309 567 295C578 291 589 288 601 285C602 286 604 286 605 287C626 297 642 306 651 317C655 324 654 331 646 337C642 344 634 366 623 403C617 423 610 444 603 465L593 487C573 531 548 571 517 609C508 620 499 630 490 639C433 688 394 713 372 712C371 712 371 712 371 712 Z"/>
<path id="z36794d3" d="M271 211Q299 239 329 273Q344 289 361 290Q374 290 380 275Q387 259 379 224Q375 202 341 183Q263 146 244 153Q238 157 239 172Q242 185 271 211 Z"/>
<path id="z36794d4" d="M313 722Q329 712 335 693Q347 651 300 579Q266 522 346 419Q368 400 348 385Q327 370 292 357Q270 344 252 363Q219 387 178 404Q121 429 103 427Q96 426 94 431Q93 437 101 441Q143 459 244 417Q254 413 263 424Q285 446 264 477Q212 531 263 597Q293 660 295 684Q295 706 290 718Q289 718 289 719L313 722 Z"/>
<path id="z36794d5" d="M289 719Q243 715 192 730Q155 743 97 746Q90 746 86 754Q83 761 91 772Q107 791 131 803Q143 810 162 797Q237 746 308 763Q372 778 502 836Q728 941 808 914Q871 892 924 855Q948 840 923 840Q706 849 544 799Q469 777 381 743Q348 727 313 722L289 719 Z"/>
<defs>
	<clipPath id="z36794c1"><use xlink:href="#z36794d1"/></clipPath>
	<clipPath id="z36794c2"><use xlink:href="#z36794d2"/></clipPath>
	<clipPath id="z36794c3"><use xlink:href="#z36794d3"/></clipPath>
	<clipPath id="z36794c4"><use xlink:href="#z36794d4"/></clipPath>
	<clipPath id="z36794c5"><use xlink:href="#z36794d5"/></clipPath>
</defs>
<path pathLength="3333" clip-path="url(#z36794c1)" d="M459 275L511 288L792 215L833 245L759 634L712 684L625 614"/>
<path pathLength="3333" clip-path="url(#z36794c2)" d="M573 298L613 331L555 507L468 632L373 707"/>
<path pathLength="3333" clip-path="url(#z36794c3)" d="M246 157L345 234L368 283"/>
<path pathLength="3333" clip-path="url(#z36794c4)" d="M103 433L267 384L313 415L264 539L312 654L303 719"/>
<path pathLength="3333" clip-path="url(#z36794c5)" d="M90 757L145 773L228 743L322 745L735 876L927 847"/>
</svg>