<!--
AnimCJK 2016-2017 Copyright Francois Mizessyn, http://gooo.free.fr/animCJK/
Derived from:
    MakeMeAHanzi project - https://github.com/skishore/makemeahanzi
    Arphic PL KaitiM GB - https://apps.ubuntu.com/cat/applications/precise/fonts-arphic-gkai00mp/
    Arphic PL UKai - https://apps.ubuntu.com/cat/applications/fonts-arphic-ukai/
You can redistribute and/or modify this file under the terms of the Arphic Public License
as published by Arphic Technology Co., Ltd.
You should have received a copy of this license (the directory "APL") along with this file;
if not, see http://ftp.gnu.org/non-gnu/chinese-fonts-truetype/LICENSE.
-->
<svg id="z36814" class="acjk" version="1.1" viewBox="0 0 1024 1024" xmlns="http://www.w3.org/2000/svg" xmlns:xlink="http://www.w3.org/1999/xlink">
<style>
<![CDATA[
	@keyframes z36814k {
		from {
			stroke:#c00;
			stroke-dashoffset:3000;
		}
		75% {
			stroke:#c00;
			stroke-dashoffset:0;
		}
		to {
			stroke:#000;
		}
	}
	#z36814 path[clip-path] {
		animation:z36814k 1s linear both;
		stroke-dasharray:3000;
		stroke-width:128;
		stroke-linecap:round;
		fill:none;
	}
	#z36814 path[clip-path="url(#z36814c1)"] {animation-delay:1s;}
	#z36814 path[clip-path="url(#z36814c2)"] {animation-delay:2s;}
	#z36814 path[clip-path="url(#z36814c3)"] {animation-delay:3s;}
	#z36814 path[clip-path="url(#z36814c4)"] {animation-delay:4s;}
	#z36814 path[clip-path="url(#z36814c5)"] {animation-delay:5s;}
	#z36814 path[clip-path="url(#z36814c6)"] {animation-delay:6s;}
	#z36814 path[clip-path="url(#z36814c7)"] {animation-delay:7s;}
	#z36814 path {fill:#ccc;}
]]>
</style>
<g transform="scale(1,-1) translate(0,-900)">
	<path id="z36814d1" d="M457 618Q503 643 533 663Q603 711 631 720Q653 729 644 747Q631 766 606 782Q584 798 570 796Q557 795 560 781Q561 747 499 689Q472 664 443 634L457 618Z"/>
	<path id="z36814d2" d="M443 634Q421 653 405 656Q392 657 386 654Q376 647 388 633Q421 573 408 423Q401 375 389 357Q376 336 385 314Q397 283 414 270Q424 263 437 282Q467 322 568 423Q586 439 587 446Q588 459 567 447Q530 425 487 401Q468 388 459 392Q452 396 451 416Q452 561 459 598Q460 610 457 618L443 634Z"/>
	<path id="z36814d3" d="M680 581Q750 605 802 614Q815 615 817 613Q827 600 823 562Q817 460 795 414Q782 384 755 387Q731 391 710 398Q688 404 704 383Q747 347 767 319Q786 300 802 317Q851 359 868 458Q883 602 894 618Q904 630 899 638Q890 647 845 664Q827 671 811 658Q787 640 670 613L680 581Z"/>
	<path id="z36814d4" d="M627 126Q633 104 639 94Q643 88 651 90Q663 99 670 153Q676 213 674 273Q671 324 674 522Q674 538 680 581L670 613Q642 632 628 634Q616 638 602 630Q595 623 601 613Q620 580 621 539Q625 128 627 126Z"/>
	<path id="z36814d5" d="M238 718Q262 696 287 671Q302 656 319 657Q331 658 337 673Q341 689 332 721Q320 749 232 770Q216 774 208 771Q202 767 204 753Q208 740 238 718Z"/>
	<path id="z36814d6" d="M296 187Q309 191 314 212Q320 245 284 309Q254 370 335 452Q335 453 337 454Q359 470 340 487Q321 503 287 520Q265 533 247 517Q213 495 169 482Q111 461 93 466Q86 467 83 462Q82 456 89 452Q126 431 235 464Q245 467 253 454Q272 432 251 406Q203 360 253 278Q280 214 278 194Q277 193 276 189L296 187Z"/>
	<path id="z36814d7" d="M276 189Q236 192 192 179Q149 164 85 162Q79 162 75 154Q71 147 79 137Q95 118 119 104Q129 97 149 111Q233 162 308 144Q374 128 505 66Q734 -48 816 -21Q879 -2 933 35Q957 50 932 51Q697 51 529 107Q462 129 381 163Q339 182 296 187L276 189Z"/>
	<defs>
		<clipPath id="z36814c1"><use xlink:href="#z36814d1"/></clipPath>
		<clipPath id="z36814c2"><use xlink:href="#z36814d2"/></clipPath>
		<clipPath id="z36814c3"><use xlink:href="#z36814d3"/></clipPath>
		<clipPath id="z36814c4"><use xlink:href="#z36814d4"/></clipPath>
		<clipPath id="z36814c5"><use xlink:href="#z36814d5"/></clipPath>
		<clipPath id="z36814c6"><use xlink:href="#z36814d6"/></clipPath>
		<clipPath id="z36814c7"><use xlink:href="#z36814d7"/></clipPath>
	</defs>
	<path pathLength="2999" clip-path="url(#z36814c1)" d="M568 787L593 733L448 632"/>
	<path pathLength="2999" clip-path="url(#z36814c2)" d="M388 648L431 602L429 328L581 445"/>
	<path pathLength="2999" clip-path="url(#z36814c3)" d="M681 590L813 637L861 615L807 374L773 348L705 392"/>
	<path pathLength="2999" clip-path="url(#z36814c4)" d="M605 625L649 566L645 94"/>
	<path pathLength="2999" clip-path="url(#z36814c5)" d="M207 764L292 714L326 665"/>
	<path pathLength="2999" clip-path="url(#z36814c6)" d="M92 460L253 493L296 469L305 452L252 349L288 190"/>
	<path pathLength="2999" clip-path="url(#z36814c7)" d="M80 150L131 135L231 167L319 163L605 53L771 16L936 45"/>
</g>
</svg>