<!--
AnimCJK 2016-2018 Copyright Francois Mizessyn, https://github.com/parsimonhi/animCJK
Derived from:
    MakeMeAHanzi project - https://github.com/skishore/makemeahanzi
    Arphic PL KaitiM GB - https://apps.ubuntu.com/cat/applications/precise/fonts-arphic-gkai00mp/
    Arphic PL UKai - https://apps.ubuntu.com/cat/applications/fonts-arphic-ukai/
You can redistribute and/or modify this file under the terms of the Arphic Public License
as published by Arphic Technology Co., Ltd.
You should have received a copy of this license (the directory "APL") along with this file;
if not, see http://ftp.gnu.org/non-gnu/chinese-fonts-truetype/LICENSE.
-->
<svg id="z36883" class="acjk" version="1.1" viewBox="0 0 1024 1024" xmlns="http://www.w3.org/2000/svg" xmlns:xlink="http://www.w3.org/1999/xlink">
<style>
<![CDATA[
@keyframes z36883k {
	from {
		stroke:#c00;
		stroke-dashoffset:3334;
	}
	75% {
		stroke:#c00;
		stroke-dashoffset:0;
	}
	to {
		stroke:#000;
	}
}
#z36883 path[clip-path] {
	animation:z36883k 1s linear both;
	stroke-dasharray:3334;
	stroke-width:128;
	stroke-linecap:round;
	fill:none;
}
#z36883 path[clip-path="url(#z36883c1)"] {animation-delay:1s;}
#z36883 path[clip-path="url(#z36883c2)"] {animation-delay:2s;}
#z36883 path[clip-path="url(#z36883c3)"] {animation-delay:3s;}
#z36883 path[clip-path="url(#z36883c4)"] {animation-delay:4s;}
#z36883 path[clip-path="url(#z36883c5)"] {animation-delay:5s;}
#z36883 path[clip-path="url(#z36883c6)"] {animation-delay:6s;}
#z36883 path[clip-path="url(#z36883c7)"] {animation-delay:7s;}
#z36883 path[clip-path="url(#z36883c8)"] {animation-delay:8s;}
#z36883 path[clip-path="url(#z36883c9)"] {animation-delay:9s;}
#z36883 path[clip-path="url(#z36883c10)"] {animation-delay:10s;}
#z36883 path {fill:#ccc;}
]]>
</style>
<path id="z36883d1" d="M517 236L506 210C602 151 670 109 671 91C671 83 674 78 679 75C689 73 700 74 711 78C745 87 770 97 786 107C795 114 798 121 796 129C792 136 784 139 773 140C743 148 712 159 679 174C652 188 620 200 584 212C565 218 531 231 517 236 Z"/>
<path id="z36883d2" d="M345 704C340 705 337 701 340 696C347 684 356 673 364 662C390 625 417 587 431 544C444 501 453 457 454 412C456 360 458 307 450 255C447 240 443 225 434 212C430 206 428 195 435 190C446 183 460 189 471 193C483 198 496 203 507 211C511 219 515 227 518 236C514 258 513 281 513 304C511 355 508 407 501 458C492 522 472 585 434 637C415 659 393 680 368 695C360 699 354 704 345 704 Z"/>
<path id="z36883d3" d="M708 309Q822 285 827 280Q834 273 831 265Q824 255 802 246Q778 240 755 249Q732 257 711 264L663 277Q611 288 552 292Q523 297 544 312Q570 332 635 323Q649 320 664 318L708 309 Z"/>
<path id="z36883d4" d="M734 417Q872 388 878 383Q888 376 883 368Q876 358 849 351Q820 345 792 355Q764 364 738 372L680 387Q617 400 546 405Q510 412 535 427Q566 445 645 434Q661 431 680 428L734 417 Z"/>
<path id="z36883d5" d="M552 513Q527 501 512 501Q500 505 505 515Q535 587 505 671Q487 708 518 743Q524 753 532 749Q559 728 560 653Q563 575 566 550L552 513 Z"/>
<path id="z36883d6" d="M720 527C746 523 750 524 776 522C796 518 808 523 811 536C817 625 813 678 801 694C795 696 791 701 762 696C753 695 755 695 751 696C748 698 743 703 751 710C779 736 790 753 808 772C816 781 825 781 835 772C857 746 867 718 865 686C863 614 865 562 871 530C873 518 871 508 865 501C847 485 831 473 819 466C810 462 803 464 797 470C793 475 782 480 720 494L668 502C641 505 598 510 552 514L565 551C580 547 619 542 668 535 Z"/>
<path id="z36883d7" d="M667 822C664 821 661 820 658 816C654 810 650 799 646 783C644 763 645 645 649 429L649 397C649 367 650 339 651 313L651 273C650 244 643 218 631 195C648 189 664 182 679 174C679 174 679 174 679 174C685 178 698 187 705 192C714 198 718 207 716 218C713 230 709 239 707 253C707 246 705 263 705 264L703 304C701 333 700 361 700 388L700 420C698 514 698 576 700 606C700 655 698 705 692 755C690 791 683 813 671 821C669 821 668 822 667 822 Z"/>
<path id="z36883d8" d="M257 182Q282 206 309 235Q324 251 342 250Q354 250 360 235Q367 219 357 184Q348 151 253 127Q235 123 228 125Q222 129 223 144Q227 157 257 182 Z"/>
<path id="z36883d9" d="M299 710Q312 701 319 684Q331 645 292 579Q262 519 345 430Q367 412 348 396Q329 380 294 365Q272 352 254 368Q221 390 179 405Q122 426 104 422Q97 422 95 427Q94 431 101 436Q143 457 243 421Q253 418 261 430Q282 452 259 480Q211 525 253 596Q280 651 279 676Q279 694 273 708L299 710 Z"/>
<path id="z36883d10" d="M273 708Q233 707 192 719Q149 734 85 738Q78 738 74 747Q70 754 79 764Q95 783 119 795Q131 802 150 788Q231 734 308 752Q374 768 506 832Q722 940 816 922Q817 921 820 921Q883 902 937 865Q961 850 936 850Q707 850 530 791Q461 767 381 733Q341 714 299 710L273 708 Z"/>
<defs>
	<clipPath id="z36883c1"><use xlink:href="#z36883d1"/></clipPath>
	<clipPath id="z36883c2"><use xlink:href="#z36883d2"/></clipPath>
	<clipPath id="z36883c3"><use xlink:href="#z36883d3"/></clipPath>
	<clipPath id="z36883c4"><use xlink:href="#z36883d4"/></clipPath>
	<clipPath id="z36883c5"><use xlink:href="#z36883d5"/></clipPath>
	<clipPath id="z36883c6"><use xlink:href="#z36883d6"/></clipPath>
	<clipPath id="z36883c7"><use xlink:href="#z36883d7"/></clipPath>
	<clipPath id="z36883c8"><use xlink:href="#z36883d8"/></clipPath>
	<clipPath id="z36883c9"><use xlink:href="#z36883d9"/></clipPath>
	<clipPath id="z36883c10"><use xlink:href="#z36883d10"/></clipPath>
</defs>
<path pathLength="3333" clip-path="url(#z36883c1)" d="M791 122L700 116L511 218"/>
<path pathLength="3333" clip-path="url(#z36883c2)" d="M438 193L482 240L473 475L429 604L347 699"/>
<path pathLength="3333" clip-path="url(#z36883c3)" d="M543 299L828 268"/>
<path pathLength="3333" clip-path="url(#z36883c4)" d="M532 415L880 373"/>
<path pathLength="3333" clip-path="url(#z36883c5)" d="M511 508L542 564L528 740"/>
<path pathLength="3333" clip-path="url(#z36883c6)" d="M561 519L827 506L831 708L806 738L751 705"/>
<path pathLength="3333" clip-path="url(#z36883c7)" d="M639 197L680 223L666 817"/>
<path pathLength="3333" clip-path="url(#z36883c8)" d="M230 133L325 198L341 247"/>
<path pathLength="3333" clip-path="url(#z36883c9)" d="M105 429L261 391L310 420L260 523L300 666L280 703"/>
<path pathLength="3333" clip-path="url(#z36883c10)" d="M77 750L129 765L287 728L719 875L825 884L940 856"/>
</svg>