<!--
AnimCJK 2016-2017 Copyright Francois Mizessyn, http://gooo.free.fr/animCJK/
Derived from:
    MakeMeAHanzi project - https://github.com/skishore/makemeahanzi
    Arphic PL KaitiM GB - https://apps.ubuntu.com/cat/applications/precise/fonts-arphic-gkai00mp/
    Arphic PL UKai - https://apps.ubuntu.com/cat/applications/fonts-arphic-ukai/
You can redistribute and/or modify this file under the terms of the Arphic Public License
as published by Arphic Technology Co., Ltd.
You should have received a copy of this license (the directory "APL") along with this file;
if not, see http://ftp.gnu.org/non-gnu/chinese-fonts-truetype/LICENSE.
-->
<svg id="z36884" class="acjk" version="1.1" viewBox="0 0 1024 1024" xmlns="http://www.w3.org/2000/svg" xmlns:xlink="http://www.w3.org/1999/xlink">
<style>
<![CDATA[
	@keyframes z36884k {
		from {
			stroke:#c00;
			stroke-dashoffset:3000;
		}
		75% {
			stroke:#c00;
			stroke-dashoffset:0;
		}
		to {
			stroke:#000;
		}
	}
	#z36884 path[clip-path] {
		animation:z36884k 1s linear both;
		stroke-dasharray:3000;
		stroke-width:128;
		stroke-linecap:round;
		fill:none;
	}
	#z36884 path[clip-path="url(#z36884c1)"] {animation-delay:1s;}
	#z36884 path[clip-path="url(#z36884c2)"] {animation-delay:2s;}
	#z36884 path[clip-path="url(#z36884c3)"] {animation-delay:3s;}
	#z36884 path[clip-path="url(#z36884c4)"] {animation-delay:4s;}
	#z36884 path[clip-path="url(#z36884c5)"] {animation-delay:5s;}
	#z36884 path[clip-path="url(#z36884c6)"] {animation-delay:6s;}
	#z36884 path[clip-path="url(#z36884c7)"] {animation-delay:7s;}
	#z36884 path[clip-path="url(#z36884c8)"] {animation-delay:8s;}
	#z36884 path[clip-path="url(#z36884c9)"] {animation-delay:9s;}
	#z36884 path[clip-path="url(#z36884c10)"] {animation-delay:10s;}
	#z36884 path {fill:#ccc;}
]]>
</style>
<g transform="scale(1,-1) translate(0,-900)">
	<path id="z36884d1" d="M598 721Q629 781 630 783Q624 807 583 818Q562 822 553 820Q544 817 548 806Q567 730 463 587Q459 583 455 576Q424 534 344 451Q337 445 347 444Q408 457 506 576Q548 636 586 700L598 721Z"/>
	<path id="z36884d2" d="M586 700Q757 514 801 502Q900 502 944 511Q960 512 961 518Q962 524 950 528Q791 585 753 607Q663 667 637 688Q615 709 598 721L586 700Z"/>
	<path id="z36884d3" d="M590 487Q624 497 665 508Q689 515 693 518Q700 525 695 533Q688 543 661 549Q633 552 607 540Q580 530 552 521Q521 512 482 507Q449 500 474 485Q507 469 559 479L590 487Z"/>
	<path id="z36884d4" d="M619 363Q673 370 746 373Q762 373 775 374Q793 375 796 382Q800 392 786 404Q734 437 682 420Q654 414 620 404L574 395Q567 395 563 393Q482 377 386 360Q368 357 382 343Q412 321 442 329Q553 362 575 357L619 363Z"/>
	<path id="z36884d5" d="M541 177Q519 186 491 195Q481 198 481 192Q482 186 489 178Q543 133 578 96Q587 89 598 101Q629 152 624 243Q620 327 619 363L620 404Q620 419 622 435Q626 457 622 465Q615 474 590 487L559 479Q574 434 574 395L575 357Q578 189 570 176Q561 172 541 177Z"/>
	<path id="z36884d6" d="M460 294Q432 260 398 230Q376 209 382 180Q383 165 403 170Q448 188 467 244Q477 268 478 288Q477 295 471 298Q464 299 460 294Z"/>
	<path id="z36884d7" d="M680 280Q725 240 777 181Q792 162 806 158Q813 157 821 166Q831 179 820 218Q811 264 681 308Q672 312 671 301Q670 289 680 280Z"/>
	<path id="z36884d8" d="M235 699Q263 674 293 644Q306 631 324 630Q334 631 341 645Q345 660 337 691Q331 713 299 728Q226 759 208 751Q202 747 204 734Q208 722 235 699Z"/>
	<path id="z36884d9" d="M300 150Q313 160 320 179Q333 224 284 301Q251 356 318 446Q321 453 327 458Q349 477 328 492Q309 507 273 521Q251 533 233 515Q199 493 156 477Q98 455 80 458Q73 458 70 453Q69 449 77 444Q119 423 223 462Q233 465 243 451Q267 430 246 401Q203 350 238 297Q280 231 279 188Q278 166 271 151L300 150Z"/>
	<path id="z36884d10" d="M271 151Q225 152 180 135Q147 122 98 117Q91 117 88 108Q85 101 94 91Q112 73 136 62Q148 56 166 71Q223 120 297 110Q363 98 497 45Q719 -48 805 -21Q806 -20 809 -20Q870 5 922 44Q944 60 921 59Q702 50 584 73Q491 92 369 134Q335 147 300 150L271 151Z"/>
	<defs>
		<clipPath id="z36884c1"><use xlink:href="#z36884d1"/></clipPath>
		<clipPath id="z36884c2"><use xlink:href="#z36884d2"/></clipPath>
		<clipPath id="z36884c3"><use xlink:href="#z36884d3"/></clipPath>
		<clipPath id="z36884c4"><use xlink:href="#z36884d4"/></clipPath>
		<clipPath id="z36884c5"><use xlink:href="#z36884d5"/></clipPath>
		<clipPath id="z36884c6"><use xlink:href="#z36884d6"/></clipPath>
		<clipPath id="z36884c7"><use xlink:href="#z36884d7"/></clipPath>
		<clipPath id="z36884c8"><use xlink:href="#z36884d8"/></clipPath>
		<clipPath id="z36884c9"><use xlink:href="#z36884d9"/></clipPath>
		<clipPath id="z36884c10"><use xlink:href="#z36884d10"/></clipPath>
	</defs>
	<path pathLength="2999" clip-path="url(#z36884c1)" d="M555 817L590 778L553 690L465 557L349 451"/>
	<path pathLength="2999" clip-path="url(#z36884c2)" d="M599 712L787 551L954 522"/>
	<path pathLength="2999" clip-path="url(#z36884c3)" d="M472 496L689 528"/>
	<path pathLength="2999" clip-path="url(#z36884c4)" d="M385 350L790 395"/>
	<path pathLength="2999" clip-path="url(#z36884c5)" d="M566 476L597 447L592 159L576 135L489 190"/>
	<path pathLength="2999" clip-path="url(#z36884c6)" d="M469 289L388 176"/>
	<path pathLength="2999" clip-path="url(#z36884c7)" d="M678 304L778 227L814 167"/>
	<path pathLength="2999" clip-path="url(#z36884c8)" d="M207 743L284 700L334 638"/>
	<path pathLength="2999" clip-path="url(#z36884c9)" d="M80 451L244 494L292 464L248 351L296 227L282 154"/>
	<path pathLength="2999" clip-path="url(#z36884c10)" d="M95 104L140 93L299 130L721 17L808 18L926 53"/>
</g>
</svg>