<!--
AnimCJK 2016-2018 Copyright Francois Mizessyn, https://github.com/parsimonhi/animCJK
Derived from:
    MakeMeAHanzi project - https://github.com/skishore/makemeahanzi
    Arphic PL KaitiM GB - https://apps.ubuntu.com/cat/applications/precise/fonts-arphic-gkai00mp/
    Arphic PL UKai - https://apps.ubuntu.com/cat/applications/fonts-arphic-ukai/
You can redistribute and/or modify this file under the terms of the Arphic Public License
as published by Arphic Technology Co., Ltd.
You should have received a copy of this license (the directory "APL") along with this file;
if not, see http://ftp.gnu.org/non-gnu/chinese-fonts-truetype/LICENSE.
-->
<svg id="z36894" class="acjk" version="1.1" viewBox="0 0 1024 1024" xmlns="http://www.w3.org/2000/svg" xmlns:xlink="http://www.w3.org/1999/xlink">
<style>
<![CDATA[
@keyframes z36894k {
	from {
		stroke:#c00;
		stroke-dashoffset:3334;
	}
	75% {
		stroke:#c00;
		stroke-dashoffset:0;
	}
	to {
		stroke:#000;
	}
}
#z36894 path[clip-path] {
	animation:z36894k 1s linear both;
	stroke-dasharray:3334;
	stroke-width:128;
	stroke-linecap:round;
	fill:none;
}
#z36894 path[clip-path="url(#z36894c1)"] {animation-delay:1s;}
#z36894 path[clip-path="url(#z36894c2)"] {animation-delay:2s;}
#z36894 path[clip-path="url(#z36894c3)"] {animation-delay:3s;}
#z36894 path[clip-path="url(#z36894c4)"] {animation-delay:4s;}
#z36894 path[clip-path="url(#z36894c5)"] {animation-delay:5s;}
#z36894 path[clip-path="url(#z36894c6)"] {animation-delay:6s;}
#z36894 path[clip-path="url(#z36894c7)"] {animation-delay:7s;}
#z36894 path[clip-path="url(#z36894c8)"] {animation-delay:8s;}
#z36894 path[clip-path="url(#z36894c9)"] {animation-delay:9s;}
#z36894 path[clip-path="url(#z36894c10)"] {animation-delay:10s;}
#z36894 path[clip-path="url(#z36894c11)"] {animation-delay:11s;}
#z36894 path {fill:#ccc;}
]]>
</style>
<path id="z36894d1" d="M507 144Q495 140 468 136Q456 135 453 139Q447 146 456 161Q486 213 506 299Q510 324 527 341Q546 363 551 346Q552 337 553 324L549 293Q531 203 526 174L507 144 Z"/>
<path id="z36894d2" d="M754 269Q781 188 812 171Q828 153 814 136Q798 123 749 98Q733 92 652 118Q571 134 507 144L526 174Q709 138 719 146L720 147Q729 156 726 172Q717 221 706 260L754 269 Z"/>
<path id="z36894d3" d="M553 324Q560 324 568 323Q629 310 761 296Q771 295 772 287Q772 280 754 269L706 260Q700 260 700 261Q618 283 549 293L553 324 Z"/>
<path id="z36894d4" d="M629 435Q774 405 778 402Q787 395 783 387Q776 377 750 369Q726 363 627 393Q555 408 485 414Q451 418 475 435Q512 459 575 444Q581 443 589 442L629 435 Z"/>
<path id="z36894d5" d="M646 655Q647 601 651 555L653 514Q653 498 655 481Q664 457 629 435L589 442Q596 466 600 527L601 564Q601 603 603 662L646 655 Z"/>
<path id="z36894d6" d="M651 555Q666 549 764 538Q774 539 781 528Q782 518 762 508Q734 487 660 512Q656 512 653 514L600 527Q551 534 468 546Q443 550 462 565Q495 589 517 581Q554 572 601 564L651 555 Z"/>
<path id="z36894d7" d="M603 662Q525 672 435 684Q416 685 430 701Q443 714 459 718Q478 722 492 719Q594 692 821 691Q839 691 843 683Q847 673 833 661Q785 624 722 640Q689 646 646 655L603 662 Z"/>
<path id="z36894d8" d="M283 104C298 120 315 137 331 155C340 164 350 170 362 170C368 170 375 164 380 155C382 144 381 130 377 109C373 96 362 84 342 74C293 55 264 47 257 52C254 55 253 61 253 70C255 77 264 88 283 104 Z"/>
<path id="z36894d9" d="M198 226C223 258 246 279 267 287C276 289 284 286 291 277C295 268 297 259 295 247C291 231 283 218 271 209C244 193 217 184 191 183C188 183 186 184 184 185C180 186 179 191 181 199C181 207 187 217 198 226 Z"/>
<path id="z36894d10" d="M316 706Q328 699 333 681Q340 642 300 575Q267 518 348 424Q349 420 353 418Q375 399 356 384Q335 368 301 353Q279 340 261 358Q230 380 190 395Q138 417 120 414Q113 414 110 419Q109 423 117 428Q159 449 251 411Q261 408 269 418Q291 442 268 472Q217 524 264 597Q297 673 294 702Q293 703 293 704L316 706 Z"/>
<path id="z36894d11" d="M293 704Q250 700 204 713Q164 728 101 730Q94 730 91 738Q87 745 95 756Q111 775 135 788Q145 795 165 781Q246 730 320 748Q384 764 511 826Q719 932 812 914Q813 913 816 913Q879 894 933 857Q957 842 933 842Q699 842 521 779Q461 758 393 729Q356 711 316 706L293 704 Z"/>
<defs>
	<clipPath id="z36894c1"><use xlink:href="#z36894d1"/></clipPath>
	<clipPath id="z36894c2"><use xlink:href="#z36894d2"/></clipPath>
	<clipPath id="z36894c3"><use xlink:href="#z36894d3"/></clipPath>
	<clipPath id="z36894c4"><use xlink:href="#z36894d4"/></clipPath>
	<clipPath id="z36894c5"><use xlink:href="#z36894d5"/></clipPath>
	<clipPath id="z36894c6"><use xlink:href="#z36894d6"/></clipPath>
	<clipPath id="z36894c7"><use xlink:href="#z36894d7"/></clipPath>
	<clipPath id="z36894c8"><use xlink:href="#z36894d8"/></clipPath>
	<clipPath id="z36894c9"><use xlink:href="#z36894d9"/></clipPath>
	<clipPath id="z36894c10"><use xlink:href="#z36894d10"/></clipPath>
	<clipPath id="z36894c11"><use xlink:href="#z36894d11"/></clipPath>
</defs>
<path pathLength="3333" clip-path="url(#z36894c1)" d="M458 141L498 183L542 346"/>
<path pathLength="3333" clip-path="url(#z36894c2)" d="M515 146L743 127L773 163L724 263"/>
<path pathLength="3333" clip-path="url(#z36894c3)" d="M556 298L766 285"/>
<path pathLength="3333" clip-path="url(#z36894c4)" d="M472 423L780 392"/>
<path pathLength="3333" clip-path="url(#z36894c5)" d="M597 446L627 479L619 658"/>
<path pathLength="3333" clip-path="url(#z36894c6)" d="M461 555L773 526"/>
<path pathLength="3333" clip-path="url(#z36894c7)" d="M432 691L743 664L840 678"/>
<path pathLength="3333" clip-path="url(#z36894c8)" d="M263 63L335 109L365 160"/>
<path pathLength="3333" clip-path="url(#z36894c9)" d="M190 195L283 277"/>
<path pathLength="3333" clip-path="url(#z36894c10)" d="M123 422L272 382L321 415L266 530L308 703"/>
<path pathLength="3333" clip-path="url(#z36894c11)" d="M95 740L146 758L242 726L330 729L602 836L758 874L938 849"/>
</svg>