<!--
AnimCJK 2016-2018 Copyright Francois Mizessyn - https://github.com/parsimonhi/animCJK
Derived from:
    MakeMeAHanzi project - https://github.com/skishore/makemeahanzi
    Arphic PL KaitiM GB - https://apps.ubuntu.com/cat/applications/precise/fonts-arphic-gkai00mp/
    Arphic PL UKai - https://apps.ubuntu.com/cat/applications/fonts-arphic-ukai/
You can redistribute and/or modify this file under the terms of the Arphic Public License
as published by Arphic Technology Co., Ltd.
You should have received a copy of this license (the directory "APL") along with this file;
if not, see http://ftp.gnu.org/non-gnu/chinese-fonts-truetype/LICENSE.
-->
<svg id="z36913" class="acjk" version="1.1" viewBox="0 0 1024 1024" xmlns="http://www.w3.org/2000/svg" xmlns:xlink="http://www.w3.org/1999/xlink">
<style>
<![CDATA[
@keyframes z36913k {
	from {
		stroke:#c00;
		stroke-dashoffset:3334;
	}
	75% {
		stroke:#c00;
		stroke-dashoffset:0;
	}
	to {
		stroke:#000;
	}
}
#z36913 path[clip-path] {
	animation:z36913k 1s linear both;
	stroke-dasharray:3334;
	stroke-width:128;
	stroke-linecap:round;
	fill:none;
}
#z36913 path[clip-path="url(#z36913c1)"] {animation-delay:1s;}
#z36913 path[clip-path="url(#z36913c2)"] {animation-delay:2s;}
#z36913 path[clip-path="url(#z36913c3)"] {animation-delay:3s;}
#z36913 path[clip-path="url(#z36913c4)"] {animation-delay:4s;}
#z36913 path[clip-path="url(#z36913c5)"] {animation-delay:5s;}
#z36913 path[clip-path="url(#z36913c6)"] {animation-delay:6s;}
#z36913 path[clip-path="url(#z36913c7)"] {animation-delay:7s;}
#z36913 path[clip-path="url(#z36913c8)"] {animation-delay:8s;}
#z36913 path[clip-path="url(#z36913c9)"] {animation-delay:9s;}
#z36913 path[clip-path="url(#z36913c10)"] {animation-delay:10s;}
#z36913 path[clip-path="url(#z36913c11)"] {animation-delay:11s;}
#z36913 path {fill:#ccc;}
]]>
</style>
<path id="z36913d1" d="M451 165Q441 158 425 154Q407 147 397 153Q387 160 394 172Q431 209 418 438Q414 471 408 502Q390 586 339 692Q335 698 334 704Q333 714 342 710Q351 709 382 664Q475 528 471 284Q468 230 471 203L451 165 Z"/>
<path id="z36913d2" d="M471 203C513 189 597 172 724 154C736 152 744 156 752 162C759 168 766 188 769 226C777 354 777 492 770 638C768 660 764 673 757 679C749 684 727 685 690 679C679 677 673 678 674 685C674 689 680 693 688 700C723 727 746 755 765 777C778 792 791 797 800 795C808 793 817 782 825 763C837 731 844 692 842 646C833 453 827 321 829 250C829 223 833 202 842 187C850 172 850 161 844 153C836 143 818 130 787 113C772 105 741 110 691 124C612 144 532 155 451 165 Z"/>
<path id="z36913d3" d="M618 319C637 314 657 308 679 304C695 300 705 295 708 293C712 289 713 284 711 281C707 274 697 270 683 268C663 264 644 273 621 281L578 295C554 302 529 303 505 308C486 311 484 317 498 325C518 336 542 336 580 328 Z"/>
<path id="z36913d4" d="M613 377Q614 347 618 319L621 281Q624 248 632 223Q633 216 620 205Q595 192 577 189Q565 186 560 193Q554 197 561 209Q573 225 578 295L580 328Q581 356 581 386L613 377 Z"/>
<path id="z36913d5" d="M581 386C568 389 556 390 546 392C533 394 520 395 506 398C491 400 490 405 502 414C515 423 534 428 561 423C607 413 653 402 700 397C704 396 710 395 714 388C716 382 708 378 697 372C682 363 655 365 613 377 Z"/>
<path id="z36913d6" d="M532 491Q525 487 504 484Q495 483 492 486Q488 490 494 503Q515 545 528 613Q531 634 543 647Q556 663 561 652Q565 640 563 619L559 592Q549 534 548 515L532 491 Z"/>
<path id="z36913d7" d="M685 582C695 551 707 531 718 522C733 507 733 495 720 486C709 479 696 469 680 459C670 452 650 458 621 470C600 478 570 483 532 491L548 515C556 512 581 507 625 501C639 498 649 500 651 506C656 522 643 550 639 573 Z"/>
<path id="z36913d8" d="M563 619C584 618 635 609 690 606C696 605 699 602 700 598C700 594 695 588 685 582L639 573C624 576 580 586 559 592 Z"/>
<path id="z36913d9" d="M226 192Q250 217 275 246Q288 261 306 261Q318 261 325 247Q331 231 323 198Q319 179 288 162Q218 131 200 137Q194 141 195 155Q198 168 226 192 Z"/>
<path id="z36913d10" d="M244 711Q245 710 249 706Q271 693 279 669Q288 629 244 575Q213 530 288 445Q292 438 300 432Q322 413 303 398Q282 382 248 367Q226 354 189 384Q111 432 79 431Q72 430 70 436Q69 440 77 445Q116 461 200 425Q207 421 216 429Q234 450 212 485Q161 542 201 583Q237 643 237 668Q238 687 234 698Q230 705 233 711L244 711 Z"/>
<path id="z36913d11" d="M233 711Q182 711 140 724Q100 737 72 741Q57 742 60 753Q63 763 105 786Q124 793 153 774Q184 738 252 745Q327 757 495 830Q540 848 580 869Q724 941 778 929Q868 907 970 850Q977 847 975 841Q974 837 958 836Q616 842 374 749Q272 701 244 711L233 711 Z"/>
<defs>
	<clipPath id="z36913c1"><use xlink:href="#z36913d1"/></clipPath>
	<clipPath id="z36913c2"><use xlink:href="#z36913d2"/></clipPath>
	<clipPath id="z36913c3"><use xlink:href="#z36913d3"/></clipPath>
	<clipPath id="z36913c4"><use xlink:href="#z36913d4"/></clipPath>
	<clipPath id="z36913c5"><use xlink:href="#z36913d5"/></clipPath>
	<clipPath id="z36913c6"><use xlink:href="#z36913d6"/></clipPath>
	<clipPath id="z36913c7"><use xlink:href="#z36913d7"/></clipPath>
	<clipPath id="z36913c8"><use xlink:href="#z36913d8"/></clipPath>
	<clipPath id="z36913c9"><use xlink:href="#z36913d9"/></clipPath>
	<clipPath id="z36913c10"><use xlink:href="#z36913d10"/></clipPath>
	<clipPath id="z36913c11"><use xlink:href="#z36913d11"/></clipPath>
</defs>
<path pathLength="3333" clip-path="url(#z36913c1)" d="M398 159L441 209L441 430L404 584L340 703"/>
<path pathLength="3333" clip-path="url(#z36913c2)" d="M459 166L497 179L747 132L806 173L801 686L775 743L683 685"/>
<path pathLength="3333" clip-path="url(#z36913c3)" d="M500 317L707 283"/>
<path pathLength="3333" clip-path="url(#z36913c4)" d="M565 197L601 229L592 382"/>
<path pathLength="3333" clip-path="url(#z36913c5)" d="M502 404L705 385"/>
<path pathLength="3333" clip-path="url(#z36913c6)" d="M499 493L526 521L553 649"/>
<path pathLength="3333" clip-path="url(#z36913c7)" d="M542 493L671 485L689 506L661 576"/>
<path pathLength="3333" clip-path="url(#z36913c8)" d="M565 595L692 598"/>
<path pathLength="3333" clip-path="url(#z36913c9)" d="M203 146L274 193L312 255"/>
<path pathLength="3333" clip-path="url(#z36913c10)" d="M81 438L214 395L267 428L209 544L255 639L240 706"/>
<path pathLength="3333" clip-path="url(#z36913c11)" d="M66 748L117 759L192 730L280 731L743 879L966 842"/>
</svg>