<!--
AnimCJK 2016-2017 Copyright Francois Mizessyn, http://gooo.free.fr/animCJK/
Derived from:
    MakeMeAHanzi project - https://github.com/skishore/makemeahanzi
    Arphic PL KaitiM GB - https://apps.ubuntu.com/cat/applications/precise/fonts-arphic-gkai00mp/
    Arphic PL UKai - https://apps.ubuntu.com/cat/applications/fonts-arphic-ukai/
You can redistribute and/or modify this file under the terms of the Arphic Public License
as published by Arphic Technology Co., Ltd.
You should have received a copy of this license (the directory "APL") along with this file;
if not, see http://ftp.gnu.org/non-gnu/chinese-fonts-truetype/LICENSE.
-->
<svg id="z36938" class="acjk" version="1.1" viewBox="0 0 1024 1024" xmlns="http://www.w3.org/2000/svg" xmlns:xlink="http://www.w3.org/1999/xlink">
<style>
<![CDATA[
	@keyframes z36938k {
		from {
			stroke:#c00;
			stroke-dashoffset:3000;
		}
		75% {
			stroke:#c00;
			stroke-dashoffset:0;
		}
		to {
			stroke:#000;
		}
	}
	#z36938 path[clip-path] {
		animation:z36938k 1s linear both;
		stroke-dasharray:3000;
		stroke-width:128;
		stroke-linecap:round;
		fill:none;
	}
	#z36938 path[clip-path="url(#z36938c1)"] {animation-delay:1s;}
	#z36938 path[clip-path="url(#z36938c2)"] {animation-delay:2s;}
	#z36938 path[clip-path="url(#z36938c3)"] {animation-delay:3s;}
	#z36938 path[clip-path="url(#z36938c4)"] {animation-delay:4s;}
	#z36938 path[clip-path="url(#z36938c5)"] {animation-delay:5s;}
	#z36938 path[clip-path="url(#z36938c6)"] {animation-delay:6s;}
	#z36938 path[clip-path="url(#z36938c7)"] {animation-delay:7s;}
	#z36938 path[clip-path="url(#z36938c8)"] {animation-delay:8s;}
	#z36938 path[clip-path="url(#z36938c9)"] {animation-delay:9s;}
	#z36938 path[clip-path="url(#z36938c10)"] {animation-delay:10s;}
	#z36938 path[clip-path="url(#z36938c11)"] {animation-delay:11s;}
	#z36938 path[clip-path="url(#z36938c12)"] {animation-delay:12s;}
	#z36938 path {fill:#ccc;}
]]>
</style>
<g transform="scale(1,-1) translate(0,-900)">
	<path id="z36938d1" d="M483 728Q508 710 534 689Q549 679 563 681Q573 682 577 696Q580 711 568 738Q561 754 532 764Q463 779 452 771Q448 767 450 755Q454 745 483 728Z"/>
	<path id="z36938d2" d="M484 544Q583 575 585 577Q592 584 588 593Q581 603 551 609Q533 610 451 582Q361 561 346 557Q312 548 338 534Q383 516 447 535L449 535L484 544Z"/>
	<path id="z36938d3" d="M497 476Q503 470 514 467Q538 460 545 444Q551 420 494 288Q488 282 485 275Q467 262 435 269Q405 282 402 278Q398 271 412 261Q439 230 442 209Q446 196 455 190Q465 186 493 202Q535 235 567 348Q582 403 601 415Q611 418 613 425Q614 432 599 455Q572 488 537 487Q530 490 514 496L497 476Z"/>
	<path id="z36938d4" d="M514 496Q520 503 517 513Q511 535 484 544L449 535Q464 499 393 388Q359 336 313 280Q306 273 304 267Q301 258 312 261Q360 270 476 442Q477 451 497 476L514 496Z"/>
	<path id="z36938d5" d="M685 675Q703 705 722 746Q729 768 739 780Q745 790 739 800Q735 809 708 822Q684 832 670 829Q657 825 666 809Q681 788 653 698Q638 656 616 609Q610 599 609 595Q608 585 619 590Q634 596 674 656L685 675Z"/>
	<path id="z36938d6" d="M674 656Q675 656 678 654Q723 633 773 648Q812 657 851 665Q870 669 872 673Q881 680 876 689Q869 699 840 706Q810 710 782 697Q761 690 740 685Q716 679 687 676Q684 676 685 675L674 656Z"/>
	<path id="z36938d7" d="M741 431Q820 506 853 518Q868 524 863 536Q859 549 807 575Q791 584 704 548Q620 533 618 531Q599 531 607 516Q613 506 628 498Q653 485 678 502Q691 508 757 539Q767 543 776 538Q786 532 782 522Q757 485 727 438L741 431Z"/>
	<path id="z36938d8" d="M768 394Q759 419 741 431L727 438Q723 441 717 443Q699 449 691 443Q681 439 692 427Q714 411 725 384L732 353Q744 265 719 222Q707 200 679 205Q654 209 631 214Q621 215 625 207Q629 200 644 191Q678 163 689 142Q698 127 711 130Q721 131 744 153Q804 216 776 361L768 394Z"/>
	<path id="z36938d9" d="M776 361Q827 370 901 374Q940 374 944 383Q948 392 935 401Q887 428 832 410Q804 404 768 394L725 384Q662 372 592 357Q576 356 589 343Q599 333 614 330Q630 327 642 331Q684 346 732 353L776 361Z"/>
	<path id="z36938d10" d="M211 712Q242 684 275 649Q290 634 307 634Q319 634 325 649Q331 665 322 698Q316 720 282 739Q201 773 184 767Q178 763 179 749Q183 736 211 712Z"/>
	<path id="z36938d11" d="M252 202Q252 203 253 203Q277 216 283 242Q295 284 244 341Q211 383 280 462Q283 466 286 468Q308 487 287 502Q266 518 232 531Q210 543 171 510Q102 468 79 469Q72 470 70 464Q69 460 77 455Q114 440 184 471Q193 475 202 464Q218 448 204 423Q168 381 204 328Q240 274 241 243Q242 222 238 210Q235 206 235 201L252 202Z"/>
	<path id="z36938d12" d="M235 201Q190 202 151 192Q109 179 80 177Q65 177 67 165Q71 155 113 129Q134 119 164 140Q213 185 294 160Q429 127 590 46Q731 -23 787 -11Q871 10 987 74Q994 77 992 83Q991 87 974 88Q629 73 391 166Q295 208 252 202L235 201Z"/>
	<defs>
		<clipPath id="z36938c1"><use xlink:href="#z36938d1"/></clipPath>
		<clipPath id="z36938c2"><use xlink:href="#z36938d2"/></clipPath>
		<clipPath id="z36938c3"><use xlink:href="#z36938d3"/></clipPath>
		<clipPath id="z36938c4"><use xlink:href="#z36938d4"/></clipPath>
		<clipPath id="z36938c5"><use xlink:href="#z36938d5"/></clipPath>
		<clipPath id="z36938c6"><use xlink:href="#z36938d6"/></clipPath>
		<clipPath id="z36938c7"><use xlink:href="#z36938d7"/></clipPath>
		<clipPath id="z36938c8"><use xlink:href="#z36938d8"/></clipPath>
		<clipPath id="z36938c9"><use xlink:href="#z36938d9"/></clipPath>
		<clipPath id="z36938c10"><use xlink:href="#z36938d10"/></clipPath>
		<clipPath id="z36938c11"><use xlink:href="#z36938d11"/></clipPath>
		<clipPath id="z36938c12"><use xlink:href="#z36938d12"/></clipPath>
	</defs>
	<path pathLength="2999" clip-path="url(#z36938c1)" d="M456 767L572 689"/>
	<path pathLength="2999" clip-path="url(#z36938c2)" d="M333 546L584 589"/>
	<path pathLength="2999" clip-path="url(#z36938c3)" d="M504 479L553 467L578 426L521 288L460 229L410 273"/>
	<path pathLength="2999" clip-path="url(#z36938c4)" d="M455 532L481 496L310 269"/>
	<path pathLength="2999" clip-path="url(#z36938c5)" d="M669 825L706 785L615 596"/>
	<path pathLength="2999" clip-path="url(#z36938c6)" d="M684 658L867 682"/>
	<path pathLength="2999" clip-path="url(#z36938c7)" d="M613 521L657 516L778 558L814 543L822 523L736 436"/>
	<path pathLength="2999" clip-path="url(#z36938c8)" d="M693 438L746 390L751 225L699 167L631 208"/>
	<path pathLength="2999" clip-path="url(#z36938c9)" d="M590 353L859 394L940 386"/>
	<path pathLength="2999" clip-path="url(#z36938c10)" d="M186 763L287 690L308 638"/>
	<path pathLength="2999" clip-path="url(#z36938c11)" d="M75 464L196 500L253 470L210 377L260 268L243 207"/>
	<path pathLength="2999" clip-path="url(#z36938c12)" d="M75 166L126 155L279 183L752 39L984 81"/>
</g>
</svg>