<!--
AnimCJK 2016-2026 Copyright FM-SH, https://github.com/parsimonhi/animCJK
Derived from:
    MakeMeAHanzi project - https://github.com/skishore/makemeahanzi
    Arphic PL KaitiM GB font
    Arphic PL KaitiM Big5 font
You can redistribute and/or modify this file under the terms of the Arphic Public License
as published by Arphic Technology Co., Ltd.
You should have received a copy of this license along with this file.
If not, see https://ftp.gnu.org/non-gnu/chinese-fonts-truetype/LICENSE.
-->
<svg id="z36982" class="acjk" viewBox="0 0 1024 1024" xmlns="http://www.w3.org/2000/svg">
<style>
<![CDATA[
@keyframes zk {
	to {
		stroke-dashoffset:0;
	}
}
svg.acjk path[clip-path] {
	--t:0.8s;
	animation:zk var(--t) linear forwards var(--d);
	stroke-dasharray:3337;
	stroke-dashoffset:3339;
	stroke-width:128;
	stroke-linecap:round;
	fill:none;
	stroke:#000;
}
svg.acjk path[id] {fill:#ccc;}
]]>
</style>
<path id="z36982d1" d="M652 181C674 175 697 168 721 163C730 160 764 154 755 138C751 130 739 126 723 124C708 121 687 129 657 138C622 147 622 147 605 152C580 159 553 165 526 169C505 172 502 180 518 189C546 206 577 199 606 192C637 185 637 185 652 181Z"/>
<path id="z36982d2" d="M644 239C646 218 649 201 652 181C655 152 655 152 657 138C661 97 687 89 661 67C648 56 625 49 607 45C590 42 574 49 586 68C594 81 603 92 605 152C606 179 606 179 606 192C606 212 606 249 606 249C606 262 641 252 644 239Z"/>
<path id="z36982d3" d="M606 249C564 259 518 270 471 282C460 284 460 290 469 296C488 311 511 309 522 305C624 265 772 253 792 252C812 250 817 237 799 226C771 210 739 209 705 220C687 226 667 233 644 239C619 246 619 246 606 249Z"/>
<path id="z36982d4" d="M519 414C531 410 546 405 563 401C570 398 596 390 587 379C583 374 573 369 559 368C546 366 534 369 523 374C492 385 492 385 477 390C456 397 434 402 411 408C392 412 390 419 405 425C426 435 451 433 480 425C506 418 506 418 519 414Z"/>
<path id="z36982d5" d="M513 468C513 448 517 433 519 414C522 387 522 387 523 374C524 355 540 350 519 337C503 327 489 325 478 323C466 320 453 326 463 341C468 348 474 361 477 390C479 413 479 413 480 425C481 442 481 457 482 478C482 489 513 479 513 468Z"/>
<path id="z36982d6" d="M482 478C438 492 372 509 356 510C342 510 340 526 353 533C369 543 382 549 391 552C399 554 409 553 419 548C436 535 485 508 569 465C591 454 602 436 560 450C548 454 533 460 513 468C492 475 492 475 482 478Z"/>
<path id="z36982d7" d="M757 368C781 363 806 357 832 351C839 349 870 344 862 330C858 325 850 320 835 317C820 313 801 323 763 331C728 339 728 339 711 343C695 345 678 349 661 352C643 354 640 360 654 368C667 376 688 382 713 378C742 371 742 371 757 368Z"/>
<path id="z36982d8" d="M748 428C750 406 753 388 757 368C761 343 761 343 763 331C766 309 782 306 760 290C744 278 728 274 716 272C700 269 688 277 698 291C703 299 709 311 711 343C712 366 712 366 713 378C714 398 713 435 713 435C713 447 748 440 748 428Z"/>
<path id="z36982d9" d="M713 435C697 437 639 442 623 446C607 449 605 454 618 463C637 476 655 481 670 478C703 472 770 459 869 447C878 445 899 435 867 420C857 416 846 412 829 412C810 412 798 417 748 428C725 433 725 433 713 435Z"/>
<path id="z36982d10" d="M665 555C700 547 736 541 772 537C778 536 809 526 769 507C748 496 712 501 657 515C587 532 551 539 439 560C421 563 419 568 433 579C457 597 483 595 510 589C527 585 527 585 536 583C563 577 593 569 627 563C652 558 652 558 665 555Z"/>
<path id="z36982d11" d="M510 589C510 652 465 704 369 767C329 792 371 786 378 784C470 748 526 688 570 629C583 613 560 590 536 583C528 580 510 580 510 589Z"/>
<path id="z36982d12" d="M627 563C632 574 641 596 640 638C636 707 639 742 644 762C647 775 654 789 669 801C717 841 792 850 893 832C933 824 953 811 972 796C984 786 985 771 976 754C967 738 950 708 938 661C932 642 925 631 920 657C908 709 895 743 884 758C858 791 761 789 719 770C703 762 694 754 689 744C676 720 676 676 692 593C694 577 687 564 665 555C653 550 622 551 627 563Z"/>
<path id="z36982d13" d="M232 154C245 167 258 184 273 201C281 210 291 215 303 216C309 216 316 212 321 203C325 193 324 177 320 156C317 143 307 132 289 124C244 104 217 96 208 101C203 102 201 109 203 118C204 126 215 137 232 154Z"/>
<path id="z36982d14" d="M175 304C186 316 198 331 211 346C219 354 228 359 238 360C244 360 250 356 255 348C258 339 257 325 254 306C251 294 242 284 226 277C185 259 161 252 153 256C148 257 147 263 148 271C149 279 159 289 175 304Z"/>
<path id="z36982d15" d="M286 791C294 784 301 775 305 764C313 734 297 698 270 650C243 603 272 527 312 493C325 480 326 470 313 461C300 451 282 443 260 434C244 427 234 429 222 440C202 456 177 467 151 479C115 493 91 499 79 499C71 498 65 506 77 513C102 526 148 517 214 491C220 488 226 492 233 499C248 514 250 531 235 551C205 587 207 627 240 676C259 705 266 732 266 755C265 769 263 781 259 791C256 799 279 796 286 791Z"/>
<path id="z36982d16" d="M259 791C229 792 198 798 172 807C150 813 124 820 91 823C85 823 71 833 86 849C97 861 112 870 128 878C136 881 145 879 158 870C198 839 242 826 290 833C336 839 409 859 507 896C662 954 772 978 838 959C842 957 892 939 953 890C967 878 966 873 951 875C802 886 682 885 591 868C524 855 447 836 361 808C335 799 314 795 286 791C277 789 267 790 259 791Z"/>
<defs>
	<clipPath id="z36982c1"><use href="#z36982d1"/></clipPath>
	<clipPath id="z36982c2"><use href="#z36982d2"/></clipPath>
	<clipPath id="z36982c3"><use href="#z36982d3"/></clipPath>
	<clipPath id="z36982c4"><use href="#z36982d4"/></clipPath>
	<clipPath id="z36982c5"><use href="#z36982d5"/></clipPath>
	<clipPath id="z36982c6"><use href="#z36982d6"/></clipPath>
	<clipPath id="z36982c7"><use href="#z36982d7"/></clipPath>
	<clipPath id="z36982c8"><use href="#z36982d8"/></clipPath>
	<clipPath id="z36982c9"><use href="#z36982d9"/></clipPath>
	<clipPath id="z36982c10"><use href="#z36982d10"/></clipPath>
	<clipPath id="z36982c11"><use href="#z36982d11"/></clipPath>
	<clipPath id="z36982c12"><use href="#z36982d12"/></clipPath>
	<clipPath id="z36982c13"><use href="#z36982d13"/></clipPath>
	<clipPath id="z36982c14"><use href="#z36982d14"/></clipPath>
	<clipPath id="z36982c15"><use href="#z36982d15"/></clipPath>
	<clipPath id="z36982c16"><use href="#z36982d16"/></clipPath>
</defs>
<path style="--d:1s;" pathLength="3333" clip-path="url(#z36982c1)" d="M513 176L750 144"/>
<path style="--d:2s;" pathLength="3333" clip-path="url(#z36982c2)" d="M589 53L636 97L620 252"/>
<path style="--d:3s;" pathLength="3333" clip-path="url(#z36982c3)" d="M471 290L803 236"/>
<path style="--d:4s;" pathLength="3333" clip-path="url(#z36982c4)" d="M399 416L582 381"/>
<path style="--d:5s;" pathLength="3333" clip-path="url(#z36982c5)" d="M467 328L501 355L493 479"/>
<path style="--d:6s;" pathLength="3333" clip-path="url(#z36982c6)" d="M349 520L413 524L583 451"/>
<path style="--d:7s;" pathLength="3333" clip-path="url(#z36982c7)" d="M654 360L859 334"/>
<path style="--d:8s;" pathLength="3333" clip-path="url(#z36982c8)" d="M703 281L740 314L731 438"/>
<path style="--d:9s;" pathLength="3333" clip-path="url(#z36982c9)" d="M618 453L876 435"/>
<path style="--d:10s;" pathLength="3333" clip-path="url(#z36982c10)" d="M432 568L783 526"/>
<path style="--d:11s;" pathLength="3333" clip-path="url(#z36982c11)" d="M516 590L538 627L499 681L362 779"/>
<path style="--d:12s;" pathLength="3333" clip-path="url(#z36982c12)" d="M632 558L664 587L667 755L732 804L842 809L931 772L926 648"/>
<path style="--d:13s;" pathLength="3333" clip-path="url(#z36982c13)" d="M209 110L280 157L309 210"/>
<path style="--d:14s;" pathLength="3333" clip-path="url(#z36982c14)" d="M154 263L212 300L245 353"/>
<path style="--d:15s;" pathLength="3333" clip-path="url(#z36982c15)" d="M77 503L233 464L280 489L237 594L286 743L266 789"/>
<path style="--d:16s;" pathLength="3333" clip-path="url(#z36982c16)" d="M84 833L135 848L281 811L752 923L837 920L955 880"/>
</svg>