<!--
AnimCJK 2016-2025 Copyright FM-SH - https://github.com/parsimonhi/animCJK
Derived from:
    MakeMeAHanzi project - https://github.com/skishore/makemeahanzi
    Arphic PL KaitiM GB font
    Arphic PL KaitiM Big5 font
You can redistribute and/or modify this file under the terms of the Arphic Public License
as published by Arphic Technology Co., Ltd.
You should have received a copy of this license along with this file.
If not, see https://ftp.gnu.org/non-gnu/chinese-fonts-truetype/LICENSE.
-->
<svg id="z37048" class="acjk" viewBox="0 0 1024 1024" xmlns="http://www.w3.org/2000/svg">
<style>
<![CDATA[
@keyframes zk {
	to {
		stroke-dashoffset:0;
	}
}
svg.acjk path[clip-path] {
	--t:0.8s;
	animation:zk var(--t) linear forwards var(--d);
	stroke-dasharray:3337;
	stroke-dashoffset:3339;
	stroke-width:128;
	stroke-linecap:round;
	fill:none;
	stroke:#000;
}
svg.acjk path[id] {fill:#ccc;}
]]>
</style>
<path id="z37048d1" d="M328 200Q361 184 388 166Q430 142 467 130Q483 127 487 119Q488 109 476 98Q454 85 408 74Q392 68 379 72Q372 76 373 87Q374 126 205 235C200 238 207 253 212 251Q240 241 289 218Q292 217 296 215C317 205 317 205 328 200Z"/>
<path id="z37048d2" d="M205 235C196 227 177 217 147 210C136 207 129 209 125 213C120 217 121 225 130 237C148 261 161 317 164 405C164 417 163 432 164 449C164 555 145 632 107 680C99 689 98 699 104 714C111 732 119 746 130 754C138 760 147 757 155 747C183 706 240 641 329 555C338 546 343 540 344 534C344 530 343 528 339 529C332 529 292 558 219 613C212 617 208 617 206 616C201 612 199 606 200 595C205 392 208 262 212 251C213 245 210 238 205 235Z"/>
<path id="z37048d3" d="M396 392C469 368 504 351 506 350C510 344 511 338 508 334C503 327 491 322 473 321C457 319 428 330 385 349C360 360 360 360 348 365C332 371 283 384 248 393C225 398 223 408 241 415C266 424 306 420 358 404C383 396 383 396 396 392Z"/>
<path id="z37048d4" d="M358 404C378 483 409 547 447 597C461 615 479 636 505 655C521 667 534 673 543 674C549 674 555 671 561 664C564 659 563 644 559 620C555 598 555 553 560 487C561 470 560 461 555 461C550 460 544 466 541 481C522 551 506 580 491 566C460 537 435 496 414 443C408 430 401 413 396 392C389 363 389 363 385 349C373 304 368 273 370 257C372 229 368 213 328 200C317 196 289 206 296 215C313 232 326 282 348 365C355 391 355 391 358 404Z"/>
<path id="z37048d5" d="M205 769C193 769 191 776 200 790C217 814 236 823 259 817C368 791 429 782 543 798C554 798 560 795 563 790C567 781 563 771 554 759C525 728 500 714 478 719C410 739 357 755 205 769Z"/>
<path id="z37048d6" d="M781 371C781 352 796 324 826 288C836 276 853 253 871 242C891 230 892 217 874 204C847 184 825 170 809 163C796 159 784 161 774 169C760 182 721 201 659 225C658 225 657 226 657 226C646 230 661 263 672 259C676 257 682 255 689 251C713 241 730 233 751 225C757 223 765 222 774 226C780 231 781 241 777 256C746 340 731 384 732 388C729 405 781 388 781 371Z"/>
<path id="z37048d7" d="M836 602C827 609 814 611 797 608C770 604 745 600 722 596C717 596 715 598 715 603C717 608 723 614 733 621C783 651 813 674 823 690C827 699 834 704 843 705C851 706 859 703 869 695C897 665 912 630 914 590C916 530 878 466 799 396C785 386 779 381 781 371C781 354 729 371 732 388C732 397 738 402 754 407C799 434 844 506 850 566C850 582 845 594 836 602Z"/>
<path id="z37048d8" d="M657 226C637 214 622 208 614 206C605 204 595 204 586 211C579 215 580 221 585 229C598 252 611 287 614 333C619 431 614 557 612 710C610 850 616 928 630 945C634 949 638 952 643 950C654 944 660 921 663 883C667 824 670 766 667 709C664 654 661 528 662 328C662 309 665 286 672 259C674 247 667 233 657 226Z"/>
<defs>
	<clipPath id="z37048c1"><use href="#z37048d1"/></clipPath>
	<clipPath id="z37048c2"><use href="#z37048d2"/></clipPath>
	<clipPath id="z37048c3"><use href="#z37048d3"/></clipPath>
	<clipPath id="z37048c4"><use href="#z37048d4"/></clipPath>
	<clipPath id="z37048c5"><use href="#z37048d5"/></clipPath>
	<clipPath id="z37048c6"><use href="#z37048d6"/></clipPath>
	<clipPath id="z37048c7"><use href="#z37048d7"/></clipPath>
	<clipPath id="z37048c8"><use href="#z37048d8"/></clipPath>
</defs>
<path style="--d:1s;" pathLength="3333" clip-path="url(#z37048c1)" d="M385 81L427 116L209 241"/>
<path style="--d:2s;" pathLength="3333" clip-path="url(#z37048c2)" d="M130 218L176 255L182 298L148 692L171 705L336 536"/>
<path style="--d:3s;" pathLength="3333" clip-path="url(#z37048c3)" d="M236 404L504 338"/>
<path style="--d:4s;" pathLength="3333" clip-path="url(#z37048c4)" d="M306 219L344 250L397 461L472 586L538 614L552 470"/>
<path style="--d:5s;" pathLength="3333" clip-path="url(#z37048c5)" d="M201 775L253 791L488 755L562 781"/>
<path style="--d:6s;" pathLength="3333" clip-path="url(#z37048c6)" d="M664 227L778 193L824 217L832 238L741 381"/>
<path style="--d:7s;" pathLength="3333" clip-path="url(#z37048c7)" d="M742 391L774 396L839 467L881 587L838 656L722 603"/>
<path style="--d:8s;" pathLength="3333" clip-path="url(#z37048c8)" d="M589 217L637 267L641 945"/>
</svg>