<!--
AnimCJK 2016-2026 Copyright FM-SH - https://github.com/parsimonhi/animCJK
Derived from:
    MakeMeAHanzi project - https://github.com/skishore/makemeahanzi
    Arphic PL KaitiM GB font
    Arphic PL KaitiM Big5 font
You can redistribute and/or modify this file under the terms of the Arphic Public License
as published by Arphic Technology Co., Ltd.
You should have received a copy of this license along with this file.
If not, see https://ftp.gnu.org/non-gnu/chinese-fonts-truetype/LICENSE.
-->
<svg id="z37195" class="acjk" viewBox="0 0 1024 1024" xmlns="http://www.w3.org/2000/svg">
<style>
<![CDATA[
@keyframes zk {
	to {
		stroke-dashoffset:0;
	}
}
svg.acjk path[clip-path] {
	--t:0.8s;
	animation:zk var(--t) linear forwards var(--d);
	stroke-dasharray:3337;
	stroke-dashoffset:3339;
	stroke-width:128;
	stroke-linecap:round;
	fill:none;
	stroke:#000;
}
svg.acjk path[id] {fill:#ccc;}
]]>
</style>
<path id="z37195d1" d="M342 94C336 159 237 243 185 288C112 353 164 336 213 304C291 254 347 206 423 144C451 122 451 109 423 89C406 77 398 72 375 67C354 62 344 68 342 94Z"/>
<path id="z37195d2" d="M585 63C574 61 569 64 573 71C584 85 604 97 620 109C670 146 712 180 754 227C768 242 779 263 797 281C810 294 838 294 860 295C888 297 896 295 924 294C944 294 968 288 941 273C881 242 840 217 791 182C744 149 682 94 629 75C613 68 599 64 585 63Z"/>
<path id="z37195d3" d="M593 297C619 294 654 295 704 300C751 304 737 279 728 272C686 238 652 236 610 244C511 262 402 277 352 282C267 289 291 307 313 320C329 329 350 327 365 324C379 321 393 318 408 317C437 313 437 313 452 311C480 307 506 304 531 302C572 299 572 299 593 297Z"/>
<path id="z37195d4" d="M315 447C302 436 288 425 271 423C253 420 253 433 259 446C285 501 290 599 265 735C255 786 245 816 248 828C253 850 260 866 268 875C276 884 282 884 290 875C296 866 300 857 307 840C311 828 313 816 314 805C318 720 324 618 333 482C333 469 325 455 315 447Z"/>
<path id="z37195d5" d="M677 818C681 848 686 873 702 902C723 940 742 921 759 883C771 854 777 822 775 789C769 726 763 636 759 519C758 496 764 477 776 461C783 451 783 442 777 435C763 419 734 405 705 388C692 380 684 378 672 384C643 395 611 405 577 413C554 418 554 418 542 421C514 427 491 429 466 433C439 436 439 436 425 438C382 443 339 447 315 447C302 447 320 485 333 482C351 477 396 473 423 469C449 465 449 465 462 463C486 459 512 454 540 450C562 447 562 447 573 445C634 435 673 431 692 447C711 463 708 559 699 728C698 748 692 782 680 801C677 806 676 812 677 818Z"/>
<path id="z37195d6" d="M408 317C422 331 429 368 425 438C424 459 424 459 423 469C419 515 403 564 373 636C372 640 374 642 379 641C434 595 450 546 462 463C465 443 465 443 466 433C468 415 470 379 472 363C477 325 478 326 452 311C439 303 399 305 408 317Z"/>
<path id="z37195d7" d="M577 413C587 326 606 321 593 297C582 279 520 284 531 302C541 314 546 351 542 421C541 440 541 440 540 450C534 530 543 577 565 596C574 604 599 611 642 612C660 612 673 608 681 601C686 594 688 589 685 586C681 581 657 575 613 569C580 564 563 523 573 445C576 424 576 424 577 413Z"/>
<path id="z37195d8" d="M392 686C379 688 380 695 395 706C401 710 412 713 426 712C492 704 550 697 600 693C616 691 622 685 617 676C610 665 598 657 580 654C563 650 540 652 511 659C468 668 428 678 392 686Z"/>
<path id="z37195d9" d="M307 840C326 845 412 828 677 818C683 818 684 805 680 801C631 745 640 780 314 805C302 805 295 838 307 840Z"/>
<defs>
	<clipPath id="z37195c1"><use href="#z37195d1"/></clipPath>
	<clipPath id="z37195c2"><use href="#z37195d2"/></clipPath>
	<clipPath id="z37195c3"><use href="#z37195d3"/></clipPath>
	<clipPath id="z37195c4"><use href="#z37195d4"/></clipPath>
	<clipPath id="z37195c5"><use href="#z37195d5"/></clipPath>
	<clipPath id="z37195c6"><use href="#z37195d6"/></clipPath>
	<clipPath id="z37195c7"><use href="#z37195d7"/></clipPath>
	<clipPath id="z37195c8"><use href="#z37195d8"/></clipPath>
	<clipPath id="z37195c9"><use href="#z37195d9"/></clipPath>
</defs>
<path style="--d:1s;" pathLength="3333" clip-path="url(#z37195c1)" d="M355 70L383 102L387 134L157 327"/>
<path style="--d:2s;" pathLength="3333" clip-path="url(#z37195c2)" d="M580 69L674 122L824 252L946 282"/>
<path style="--d:3s;" pathLength="3333" clip-path="url(#z37195c3)" d="M296 298L632 268L733 286"/>
<path style="--d:4s;" pathLength="3333" clip-path="url(#z37195c4)" d="M262 432L304 504L279 874"/>
<path style="--d:5s;" pathLength="3333" clip-path="url(#z37195c5)" d="M316 453L675 409L735 446L724 918"/>
<path style="--d:6s;" pathLength="3333" clip-path="url(#z37195c6)" d="M412 311L448 338L445 441L421 559L378 635"/>
<path style="--d:7s;" pathLength="3333" clip-path="url(#z37195c7)" d="M537 297L569 325L554 497L570 568L681 595"/>
<path style="--d:8s;" pathLength="3333" clip-path="url(#z37195c8)" d="M391 693L613 677"/>
<path style="--d:9s;" pathLength="3333" clip-path="url(#z37195c9)" d="M303 829L677 803"/>
</svg>