<!--
AnimCJK 2016-2026 Copyright FM-SH, https://github.com/parsimonhi/animCJK
Derived from:
    MakeMeAHanzi project - https://github.com/skishore/makemeahanzi
    Arphic PL KaitiM GB font
    Arphic PL KaitiM Big5 font
You can redistribute and/or modify this file under the terms of the Arphic Public License
as published by Arphic Technology Co., Ltd.
You should have received a copy of this license along with this file.
If not, see https://ftp.gnu.org/non-gnu/chinese-fonts-truetype/LICENSE.
-->
<svg id="z37208" class="acjk" viewBox="0 0 1024 1024" xmlns="http://www.w3.org/2000/svg">
<style>
<![CDATA[
@keyframes zk {
	to {
		stroke-dashoffset:0;
	}
}
svg.acjk path[clip-path] {
	--t:0.8s;
	animation:zk var(--t) linear forwards var(--d);
	stroke-dasharray:3337;
	stroke-dashoffset:3339;
	stroke-width:128;
	stroke-linecap:round;
	fill:none;
	stroke:#000;
}
svg.acjk path[id] {fill:#ccc;}
]]>
</style>
<path id="z37208d1" d="M335 203C349 198 364 194 381 192C401 187 413 183 417 180C421 175 423 170 421 165C416 158 405 152 388 148C373 146 338 153 284 170C227 182 178 191 156 194C133 198 130 205 147 215C165 225 186 230 212 230C234 225 234 225 245 222C257 219 281 214 297 211C322 206 322 206 335 203Z"/>
<path id="z37208d2" d="M162 377C141 356 91 340 117 390C134 424 133 530 122 661C116 721 109 761 131 787C137 794 144 795 150 788C157 776 160 760 162 741C163 721 163 721 164 711C165 690 163 495 173 401C175 392 169 382 162 377Z"/>
<path id="z37208d3" d="M375 723C384 750 404 827 428 774C438 750 440 721 440 691C437 500 439 396 445 379C449 366 448 359 443 354C437 348 425 339 405 329C392 322 371 330 335 341C316 346 316 346 307 349C296 351 275 356 263 359C240 364 240 364 229 367C208 371 186 373 162 377C153 378 165 404 173 401C187 397 212 389 228 386C250 381 250 381 261 378C271 375 293 369 306 368C324 366 324 366 333 365C339 364 374 356 385 369C390 375 396 412 394 481C393 501 393 501 393 511C389 631 384 694 379 700C376 707 372 716 375 723Z"/>
<path id="z37208d4" d="M212 230C229 247 229 350 229 367C228 380 228 380 228 386C226 416 212 478 186 535C179 548 186 557 206 533C230 503 255 432 261 378C262 365 262 365 263 359C264 345 262 314 265 267C266 243 269 230 245 222C234 218 205 221 212 230Z"/>
<path id="z37208d5" d="M335 341C337 306 343 268 356 228C360 212 349 208 335 203C323 198 288 202 297 211C312 226 312 249 312 265C311 290 308 318 307 349C306 362 306 362 306 368C302 440 305 487 330 504C343 512 366 512 393 511C403 511 404 483 394 481C380 478 363 481 352 473C331 459 329 403 333 365C334 349 334 349 335 341Z"/>
<path id="z37208d6" d="M202 620C186 625 200 643 226 640C268 634 314 626 346 621C377 615 356 591 325 588C306 585 259 600 202 620Z"/>
<path id="z37208d7" d="M162 741C180 743 246 730 375 723C383 723 386 704 379 700C335 666 329 686 164 711C154 713 152 741 162 741Z"/>
<path id="z37208d8" d="M593 177C565 160 528 167 543 187C551 198 606 293 493 424C471 445 476 452 505 440C529 429 606 374 608 256C608 236 609 221 612 211C615 198 605 183 593 177Z"/>
<path id="z37208d9" d="M612 211C622 209 638 201 666 192C685 184 699 182 699 206C695 293 696 330 697 339C697 355 705 373 726 387C745 400 777 406 818 406C858 405 887 398 909 389C918 384 922 378 916 369C908 355 895 347 885 341C875 336 865 337 851 343C828 351 802 355 777 354C759 353 750 345 744 333C737 319 736 305 741 267C743 244 752 220 776 197C786 186 786 177 777 169C761 156 745 147 729 139C720 135 714 137 702 143C670 157 633 167 593 177C580 180 599 214 612 211Z"/>
<path id="z37208d10" d="M772 570C779 549 786 535 800 523C812 511 814 502 805 493C796 484 779 474 761 464C747 457 740 465 712 477C690 485 609 509 563 517C544 519 533 529 559 539C581 546 611 548 643 536C672 524 686 516 694 517C708 519 711 527 710 547C706 582 694 636 661 691C653 702 646 713 637 725C606 762 562 799 501 828C451 851 448 871 507 859C576 844 627 809 667 764C677 751 687 738 697 725C728 678 751 624 772 570Z"/>
<path id="z37208d11" d="M667 764C693 798 727 842 763 878C773 889 787 896 807 898C862 901 914 902 961 897C1004 892 994 882 961 869C933 858 888 842 826 818C777 799 733 759 697 725C673 702 673 702 661 691C633 665 608 635 583 606C560 579 537 566 517 566C505 565 499 565 497 569C494 572 498 577 509 586C536 605 580 651 637 725C657 751 657 751 667 764Z"/>
<defs>
	<clipPath id="z37208c1"><use href="#z37208d1"/></clipPath>
	<clipPath id="z37208c2"><use href="#z37208d2"/></clipPath>
	<clipPath id="z37208c3"><use href="#z37208d3"/></clipPath>
	<clipPath id="z37208c4"><use href="#z37208d4"/></clipPath>
	<clipPath id="z37208c5"><use href="#z37208d5"/></clipPath>
	<clipPath id="z37208c6"><use href="#z37208d6"/></clipPath>
	<clipPath id="z37208c7"><use href="#z37208d7"/></clipPath>
	<clipPath id="z37208c8"><use href="#z37208d8"/></clipPath>
	<clipPath id="z37208c9"><use href="#z37208d9"/></clipPath>
	<clipPath id="z37208c10"><use href="#z37208d10"/></clipPath>
	<clipPath id="z37208c11"><use href="#z37208d11"/></clipPath>
</defs>
<path style="--d:1s;" pathLength="3333" clip-path="url(#z37208c1)" d="M143 203L418 170"/>
<path style="--d:2s;" pathLength="3333" clip-path="url(#z37208c2)" d="M118 366L148 401L137 786"/>
<path style="--d:3s;" pathLength="3333" clip-path="url(#z37208c3)" d="M164 386L380 344L414 362L408 786"/>
<path style="--d:4s;" pathLength="3333" clip-path="url(#z37208c4)" d="M217 226L243 250L244 383L189 540"/>
<path style="--d:5s;" pathLength="3333" clip-path="url(#z37208c5)" d="M304 210L334 235L324 461L343 489L398 493"/>
<path style="--d:6s;" pathLength="3333" clip-path="url(#z37208c6)" d="M200 628L356 610"/>
<path style="--d:7s;" pathLength="3333" clip-path="url(#z37208c7)" d="M161 731L379 713"/>
<path style="--d:8s;" pathLength="3333" clip-path="url(#z37208c8)" d="M547 178L584 208L581 301L550 376L488 440"/>
<path style="--d:9s;" pathLength="3333" clip-path="url(#z37208c9)" d="M595 187L731 177L717 322L743 368L913 366"/>
<path style="--d:10s;" pathLength="3333" clip-path="url(#z37208c10)" d="M549 527L727 493L760 522L652 745L559 820L470 856"/>
<path style="--d:11s;" pathLength="3333" clip-path="url(#z37208c11)" d="M506 572L792 849L981 887"/>
</svg>