<!--
AnimCJK 2016-2018 Copyright Francois Mizessyn, https://github.com/parsimonhi/animCJK
Derived from:
    MakeMeAHanzi project - https://github.com/skishore/makemeahanzi
    Arphic PL KaitiM GB - https://apps.ubuntu.com/cat/applications/precise/fonts-arphic-gkai00mp/
    Arphic PL UKai - https://apps.ubuntu.com/cat/applications/fonts-arphic-ukai/
You can redistribute and/or modify this file under the terms of the Arphic Public License
as published by Arphic Technology Co., Ltd.
You should have received a copy of this license (the directory "APL") along with this file;
if not, see http://ftp.gnu.org/non-gnu/chinese-fonts-truetype/LICENSE.
-->
<svg id="z37276" class="acjk" version="1.1" viewBox="0 0 1024 1024" xmlns="http://www.w3.org/2000/svg" xmlns:xlink="http://www.w3.org/1999/xlink">
<style>
<![CDATA[
@keyframes z37276k {
	from {
		stroke:#c00;
		stroke-dashoffset:3334;
	}
	75% {
		stroke:#c00;
		stroke-dashoffset:0;
	}
	to {
		stroke:#000;
	}
}
#z37276 path[clip-path] {
	animation:z37276k 1s linear both;
	stroke-dasharray:3334;
	stroke-width:128;
	stroke-linecap:round;
	fill:none;
}
#z37276 path[clip-path="url(#z37276c1)"] {animation-delay:1s;}
#z37276 path[clip-path="url(#z37276c2)"] {animation-delay:2s;}
#z37276 path[clip-path="url(#z37276c3)"] {animation-delay:3s;}
#z37276 path[clip-path="url(#z37276c4)"] {animation-delay:4s;}
#z37276 path[clip-path="url(#z37276c5)"] {animation-delay:5s;}
#z37276 path[clip-path="url(#z37276c6)"] {animation-delay:6s;}
#z37276 path[clip-path="url(#z37276c7)"] {animation-delay:7s;}
#z37276 path[clip-path="url(#z37276c8)"] {animation-delay:8s;}
#z37276 path[clip-path="url(#z37276c9)"] {animation-delay:9s;}
#z37276 path[clip-path="url(#z37276c10)"] {animation-delay:10s;}
#z37276 path[clip-path="url(#z37276c11)"] {animation-delay:11s;}
#z37276 path[clip-path="url(#z37276c12)"] {animation-delay:12s;}
#z37276 path[clip-path="url(#z37276c13)"] {animation-delay:13s;}
#z37276 path[clip-path="url(#z37276c14)"] {animation-delay:14s;}
#z37276 path[clip-path="url(#z37276c15)"] {animation-delay:15s;}
#z37276 path[clip-path="url(#z37276c16)"] {animation-delay:16s;}
#z37276 path[clip-path="url(#z37276c17)"] {animation-delay:17s;}
#z37276 path {fill:#ccc;}
]]>
</style>
<path id="z37276d1" d="M311 235Q431 211 438 206Q447 199 442 191Q436 181 410 173Q386 167 287 197Q146 219 121 222Q87 226 111 243Q144 264 192 257L227 251Q252 245 278 242L311 235 Z"/>
<path id="z37276d2" d="M132 386Q120 374 100 367Q91 363 81 366Q75 370 80 381Q81 390 86 399Q111 450 90 683Q66 773 99 811Q109 823 118 812Q127 797 129 777L132 746Q133 730 133 711Q139 440 141 421Q141 417 141 415L132 386 Z"/>
<path id="z37276d3" d="M434 777Q438 758 437 735Q415 425 440 391Q447 379 439 371Q423 353 376 333Q360 326 346 334Q334 338 322 344L293 354Q268 360 243 367L208 374Q156 381 132 386L141 415Q162 415 206 406L240 400Q264 394 291 389L318 383Q351 371 368 385Q383 397 384 523L384 552Q384 706 376 733Q372 745 363 744L340 763Q362 794 380 822Q387 837 397 836Q410 835 424 807L430 793L434 777 Z"/>
<path id="z37276d4" d="M192 257Q211 293 208 374L206 406Q203 472 158 571Q155 575 155 579Q154 586 160 584Q184 580 219 493Q219 490 221 488Q224 475 240 400L243 367Q243 297 246 278Q250 269 245 261Q238 255 227 251L192 257 Z"/>
<path id="z37276d5" d="M322 344Q326 304 338 262Q342 252 335 245Q326 239 311 235L278 242Q279 245 284 250Q296 265 293 354L291 389Q290 413 288 439Q282 520 317 546Q326 556 369 554Q376 553 384 552L384 523L352 521Q343 520 337 515Q307 491 318 383L322 344 Z"/>
<path id="z37276d6" d="M186 643Q170 647 190 661Q194 664 316 644Q338 640 329 627Q319 614 294 611Q270 610 186 643 Z"/>
<path id="z37276d7" d="M129 777L131 778Q141 781 155 778Q213 768 340 763L363 744Q356 735 338 723Q322 713 291 720Q203 738 132 746L129 777 Z"/>
<path id="z37276d8" d="M547 284Q577 253 656 164Q671 145 692 130Q711 117 697 102Q681 89 653 79Q628 72 616 76Q604 80 611 92Q623 119 574 200Q550 240 524 286Q523 287 523 289L547 284 Z"/>
<path id="z37276d9" d="M538 514L540 506L540 486Q539 471 536 454Q515 354 511 321L498 293Q488 289 463 284Q453 283 450 286Q446 292 452 305Q480 366 498 465Q501 505 529 524L538 514 Z"/>
<path id="z37276d10" d="M721 483Q722 486 723 490Q727 503 739 503Q752 502 759 489Q772 471 798 383Q814 337 847 311Q863 298 850 283Q834 267 790 243Q777 234 722 248Q616 263 547 284L523 289Q510 290 498 293L511 321Q520 322 528 320Q555 310 602 301L635 294Q740 270 761 279Q771 286 764 317Q737 435 726 459Q725 459 725 460L721 483 Z"/>
<path id="z37276d11" d="M657 358Q657 343 659 335Q665 317 635 294L602 301Q603 305 607 308Q608 314 612 371L613 403Q613 430 614 469L651 461Q652 425 655 395L657 358 Z"/>
<path id="z37276d12" d="M655 395Q685 389 712 386Q733 382 725 371Q715 358 693 354Q678 353 657 358L612 371Q581 380 554 389Q539 392 558 405Q561 406 613 403L655 395 Z"/>
<path id="z37276d13" d="M540 506Q550 507 561 506Q652 491 721 483L725 460Q707 448 656 459Q653 459 651 461L614 469Q575 476 540 486L540 506 Z"/>
<path id="z37276d14" d="M529 524Q529 527 535 537Q553 595 438 771Q435 772 434 777L430 793Q460 793 531 686Q559 640 575 602Q585 577 593 566Q597 556 590 546Q560 510 538 514L529 524 Z"/>
<path id="z37276d15" d="M627 590Q614 761 627 808Q631 830 650 848Q719 905 875 882Q879 879 886 879Q922 869 957 845Q975 832 962 807Q949 783 932 709Q931 694 925 690Q919 687 916 703Q894 784 879 809Q851 840 761 835Q727 832 699 820Q674 808 668 793Q644 741 676 549Q682 522 640 506Q630 502 622 506Q616 509 620 525Q630 559 627 590 Z"/>
<path id="z37276d16" d="M828 686Q780 693 743 701Q725 704 733 691Q767 634 802 592Q812 579 810 574Q809 564 779 541Q767 532 754 535Q745 536 750 548Q762 575 716 663Q706 682 686 701Q673 713 675 722Q679 735 691 748Q698 755 708 749Q756 718 835 702L828 686 Z"/>
<path id="z37276d17" d="M835 702Q847 733 858 738Q864 741 870 735Q876 728 879 710Q880 686 828 640Q821 634 816 634Q812 635 810 642Q810 643 828 686L835 702 Z"/>
<defs>
	<clipPath id="z37276c1"><use xlink:href="#z37276d1"/></clipPath>
	<clipPath id="z37276c2"><use xlink:href="#z37276d2"/></clipPath>
	<clipPath id="z37276c3"><use xlink:href="#z37276d3"/></clipPath>
	<clipPath id="z37276c4"><use xlink:href="#z37276d4"/></clipPath>
	<clipPath id="z37276c5"><use xlink:href="#z37276d5"/></clipPath>
	<clipPath id="z37276c6"><use xlink:href="#z37276d6"/></clipPath>
	<clipPath id="z37276c7"><use xlink:href="#z37276d7"/></clipPath>
	<clipPath id="z37276c8"><use xlink:href="#z37276d8"/></clipPath>
	<clipPath id="z37276c9"><use xlink:href="#z37276d9"/></clipPath>
	<clipPath id="z37276c10"><use xlink:href="#z37276d10"/></clipPath>
	<clipPath id="z37276c11"><use xlink:href="#z37276d11"/></clipPath>
	<clipPath id="z37276c12"><use xlink:href="#z37276d12"/></clipPath>
	<clipPath id="z37276c13"><use xlink:href="#z37276d13"/></clipPath>
	<clipPath id="z37276c14"><use xlink:href="#z37276d14"/></clipPath>
	<clipPath id="z37276c15"><use xlink:href="#z37276d15"/></clipPath>
	<clipPath id="z37276c16"><use xlink:href="#z37276d16"/></clipPath>
	<clipPath id="z37276c17"><use xlink:href="#z37276d17"/></clipPath>
</defs>
<path pathLength="3333" clip-path="url(#z37276c1)" d="M109 231L438 194"/>
<path pathLength="3333" clip-path="url(#z37276c2)" d="M86 370L118 429L109 812"/>
<path pathLength="3333" clip-path="url(#z37276c3)" d="M142 392L357 354L409 389L406 748L366 800"/>
<path pathLength="3333" clip-path="url(#z37276c4)" d="M201 262L226 284L223 399L161 576"/>
<path pathLength="3333" clip-path="url(#z37276c5)" d="M288 247L316 275L309 506L329 532L381 539"/>
<path pathLength="3333" clip-path="url(#z37276c6)" d="M186 651L325 629"/>
<path pathLength="3333" clip-path="url(#z37276c7)" d="M136 770L355 745"/>
<path pathLength="3333" clip-path="url(#z37276c8)" d="M617 82L655 125L531 284"/>
<path pathLength="3333" clip-path="url(#z37276c9)" d="M455 291L489 331L526 517"/>
<path pathLength="3333" clip-path="url(#z37276c10)" d="M505 295L758 259L798 278L810 306L742 499"/>
<path pathLength="3333" clip-path="url(#z37276c11)" d="M610 305L635 339L631 465"/>
<path pathLength="3333" clip-path="url(#z37276c12)" d="M556 396L720 373"/>
<path pathLength="3333" clip-path="url(#z37276c13)" d="M550 498L721 472"/>
<path pathLength="3333" clip-path="url(#z37276c14)" d="M540 520L565 556L553 597L438 786"/>
<path pathLength="3333" clip-path="url(#z37276c15)" d="M627 512L651 544L644 787L683 841L786 862L903 836L928 808L925 701"/>
<path pathLength="3333" clip-path="url(#z37276c16)" d="M755 538L779 580L706 718L827 698"/>
<path pathLength="3333" clip-path="url(#z37276c17)" d="M817 639L863 734"/>
</svg>