<!--
AnimCJK 2016-2026 Copyright FM-SH, https://github.com/parsimonhi/animCJK
Derived from:
    MakeMeAHanzi project - https://github.com/skishore/makemeahanzi
    Arphic PL KaitiM GB font
    Arphic PL KaitiM Big5 font
You can redistribute and/or modify this file under the terms of the Arphic Public License
as published by Arphic Technology Co., Ltd.
You should have received a copy of this license along with this file.
If not, see https://ftp.gnu.org/non-gnu/chinese-fonts-truetype/LICENSE.
-->
<svg id="z37295" class="acjk" viewBox="0 0 1024 1024" xmlns="http://www.w3.org/2000/svg">
<style>
<![CDATA[
@keyframes zk {
	to {
		stroke-dashoffset:0;
	}
}
svg.acjk path[clip-path] {
	--t:0.8s;
	animation:zk var(--t) linear forwards var(--d);
	stroke-dasharray:3337;
	stroke-dashoffset:3339;
	stroke-width:128;
	stroke-linecap:round;
	fill:none;
	stroke:#000;
}
svg.acjk path[id] {fill:#ccc;}
]]>
</style>
<path id="z37295d1" d="M316 237C392 221 434 211 439 207C455 191 424 180 413 178C397 174 381 176 365 182C274 212 214 222 139 230C118 231 115 240 130 249C143 256 161 263 183 261C206 258 206 258 218 257C236 254 255 249 277 245C303 240 303 240 316 237Z"/>
<path id="z37295d2" d="M130 394C110 374 63 362 90 411C107 442 110 549 94 688C86 748 81 788 103 815C109 822 115 823 122 816C131 804 133 789 134 775C135 753 135 753 136 742C142 635 142 449 146 422C148 411 139 400 130 394Z"/>
<path id="z37295d3" d="M437 643C437 588 436 522 435 447C434 428 439 412 449 400C455 392 454 385 449 380C437 368 417 354 387 340C377 335 356 344 321 355C300 361 300 361 290 364C275 368 259 372 243 376C218 381 218 381 206 383C174 389 148 391 130 394C119 396 135 424 146 422C164 418 184 414 205 410C229 405 229 405 241 403C255 400 271 396 288 393C307 389 307 389 317 387C345 381 364 379 375 388C383 395 391 443 388 529C387 544 387 544 387 551C381 675 376 712 365 727C359 736 358 748 360 759C369 798 393 862 426 798C437 775 441 749 441 722C440 701 437 680 437 656C437 647 437 647 437 643Z"/>
<path id="z37295d4" d="M183 261C194 272 208 312 206 383C205 401 205 401 205 410C203 444 197 484 171 554C154 598 164 610 191 565C211 529 235 477 241 403C242 385 242 385 243 376C247 320 247 299 248 288C249 272 244 267 218 257C207 253 176 252 183 261Z"/>
<path id="z37295d5" d="M321 355C324 326 329 295 340 264C346 245 329 241 316 237C304 232 269 235 277 245C293 261 292 326 290 364C289 383 289 383 288 393C282 477 286 529 312 552C316 556 332 559 358 559C370 558 380 555 387 551C394 548 395 532 388 529C385 527 380 526 375 526C350 523 336 520 334 518C316 503 307 459 317 387C320 366 320 366 321 355Z"/>
<path id="z37295d6" d="M173 649C161 652 169 671 199 667C245 659 286 650 321 644C349 638 329 616 303 615C287 614 252 626 173 649Z"/>
<path id="z37295d7" d="M134 775C154 776 167 765 360 759C371 759 373 735 365 727C334 698 330 717 136 742C125 744 123 775 134 775Z"/>
<path id="z37295d8" d="M610 108C649 144 672 166 683 167C705 167 697 127 695 117C692 105 681 94 664 86C648 78 628 72 613 68C586 62 582 63 584 80C584 86 595 94 610 108Z"/>
<path id="z37295d9" d="M620 253C674 241 808 216 839 198C858 185 828 170 810 166C791 161 773 164 755 171C653 207 592 219 504 230C481 232 478 241 495 251C520 265 551 267 586 260C609 255 609 255 620 253Z"/>
<path id="z37295d10" d="M749 332C696 340 642 350 587 360C583 360 575 361 581 355C613 319 636 296 648 288C666 274 651 260 620 253C609 251 586 248 586 260C586 329 525 358 507 367C492 373 484 379 484 385C483 394 485 405 491 416C495 426 502 433 510 437C514 438 519 438 525 435C609 379 757 348 763 348C770 347 756 331 749 332Z"/>
<path id="z37295d11" d="M763 348C781 369 795 383 804 384C823 385 820 353 819 341C816 322 790 302 741 284C721 276 719 284 720 294C724 309 738 320 749 332C758 343 758 343 763 348Z"/>
<path id="z37295d12" d="M437 656C513 634 543 594 562 504C563 497 564 484 566 478C569 461 552 456 544 453C529 446 518 443 511 447C506 449 507 453 510 461C530 535 494 598 437 643C434 646 433 657 437 656Z"/>
<path id="z37295d13" d="M613 435C620 462 624 505 617 566C615 580 619 595 631 610C635 615 641 614 645 609C653 595 657 557 660 498C660 483 661 470 664 457C666 446 663 438 655 433C644 426 603 400 613 435Z"/>
<path id="z37295d14" d="M945 536C938 524 928 502 922 466C919 453 915 441 909 461C896 500 884 525 875 537C870 542 862 546 850 549C821 555 795 555 773 549C764 546 759 541 757 536C750 521 750 485 761 427C763 412 754 399 730 391C714 385 708 391 713 407C718 425 721 444 720 463C715 524 721 563 737 575C772 601 825 605 894 588C910 583 925 575 941 565C949 558 951 548 945 536Z"/>
<path id="z37295d15" d="M519 676C500 669 460 650 476 689C510 755 508 817 524 843C529 851 552 850 552 841C554 808 540 760 534 705C532 694 529 680 519 676Z"/>
<path id="z37295d16" d="M814 813C829 767 836 729 870 693C882 679 880 667 864 657C847 645 831 635 816 626C793 612 804 621 519 676C508 678 525 711 534 705C536 703 550 697 579 692C594 689 594 689 601 688C609 686 643 680 664 678C693 674 693 674 707 672C725 669 747 665 773 663C786 661 791 669 789 693C787 718 777 761 759 821C753 839 807 830 814 813Z"/>
<path id="z37295d17" d="M624 835C631 787 621 731 601 688C598 681 579 685 579 692C585 778 594 827 604 837C608 842 623 842 624 835Z"/>
<path id="z37295d18" d="M685 829C718 684 739 696 707 672C696 663 659 665 664 678C682 710 664 792 662 831C662 839 683 837 685 829Z"/>
<path id="z37295d19" d="M524 843C495 845 465 846 435 850C423 851 421 855 430 866C450 890 481 885 486 884C623 853 772 847 932 859C965 861 953 838 945 831C904 798 862 806 814 813C777 818 777 818 759 821C736 824 711 826 685 829C670 830 670 830 662 831C649 832 636 833 624 835C611 836 611 836 604 837C587 838 570 839 552 841C533 842 533 842 524 843Z"/>
<defs>
	<clipPath id="z37295c1"><use href="#z37295d1"/></clipPath>
	<clipPath id="z37295c2"><use href="#z37295d2"/></clipPath>
	<clipPath id="z37295c3"><use href="#z37295d3"/></clipPath>
	<clipPath id="z37295c4"><use href="#z37295d4"/></clipPath>
	<clipPath id="z37295c5"><use href="#z37295d5"/></clipPath>
	<clipPath id="z37295c6"><use href="#z37295d6"/></clipPath>
	<clipPath id="z37295c7"><use href="#z37295d7"/></clipPath>
	<clipPath id="z37295c8"><use href="#z37295d8"/></clipPath>
	<clipPath id="z37295c9"><use href="#z37295d9"/></clipPath>
	<clipPath id="z37295c10"><use href="#z37295d10"/></clipPath>
	<clipPath id="z37295c11"><use href="#z37295d11"/></clipPath>
	<clipPath id="z37295c12"><use href="#z37295d12"/></clipPath>
	<clipPath id="z37295c13"><use href="#z37295d13"/></clipPath>
	<clipPath id="z37295c14"><use href="#z37295d14"/></clipPath>
	<clipPath id="z37295c15"><use href="#z37295d15"/></clipPath>
	<clipPath id="z37295c16"><use href="#z37295d16"/></clipPath>
	<clipPath id="z37295c17"><use href="#z37295d17"/></clipPath>
	<clipPath id="z37295c18"><use href="#z37295d18"/></clipPath>
	<clipPath id="z37295c19"><use href="#z37295d19"/></clipPath>
</defs>
<path style="--d:1s;" pathLength="3333" clip-path="url(#z37295c1)" d="M127 237L435 195"/>
<path style="--d:2s;" pathLength="3333" clip-path="url(#z37295c2)" d="M88 382L122 438L112 813"/>
<path style="--d:3s;" pathLength="3333" clip-path="url(#z37295c3)" d="M131 400L362 361L415 392L392 821"/>
<path style="--d:4s;" pathLength="3333" clip-path="url(#z37295c4)" d="M192 260L222 285L223 410L171 583"/>
<path style="--d:5s;" pathLength="3333" clip-path="url(#z37295c5)" d="M282 240L314 267L305 502L327 536L389 540"/>
<path style="--d:6s;" pathLength="3333" clip-path="url(#z37295c6)" d="M171 654L327 633"/>
<path style="--d:7s;" pathLength="3333" clip-path="url(#z37295c7)" d="M131 762L367 739"/>
<path style="--d:8s;" pathLength="3333" clip-path="url(#z37295c8)" d="M590 74L666 121L688 161"/>
<path style="--d:9s;" pathLength="3333" clip-path="url(#z37295c9)" d="M489 237L568 242L838 187"/>
<path style="--d:10s;" pathLength="3333" clip-path="url(#z37295c10)" d="M593 255L618 284L536 370L548 398L757 344"/>
<path style="--d:11s;" pathLength="3333" clip-path="url(#z37295c11)" d="M728 288L809 378"/>
<path style="--d:12s;" pathLength="3333" clip-path="url(#z37295c12)" d="M513 449L541 485L523 564L440 648"/>
<path style="--d:13s;" pathLength="3333" clip-path="url(#z37295c13)" d="M618 423L641 457L635 607"/>
<path style="--d:14s;" pathLength="3333" clip-path="url(#z37295c14)" d="M719 398L740 432L738 537L782 573L905 551L914 457"/>
<path style="--d:15s;" pathLength="3333" clip-path="url(#z37295c15)" d="M479 669L508 700L535 845"/>
<path style="--d:16s;" pathLength="3333" clip-path="url(#z37295c16)" d="M520 682L796 643L833 680L768 827"/>
<path style="--d:17s;" pathLength="3333" clip-path="url(#z37295c17)" d="M590 690L613 837"/>
<path style="--d:18s;" pathLength="3333" clip-path="url(#z37295c18)" d="M671 674L697 705L673 832"/>
<path style="--d:19s;" pathLength="3333" clip-path="url(#z37295c19)" d="M433 858L949 840"/>
</svg>