<!--
AnimCJK 2016-2019 Copyright Francois Mizessyn - https://github.com/parsimonhi/animCJK
Derived from:
    MakeMeAHanzi project - https://github.com/skishore/makemeahanzi
    Arphic PL KaitiM GB font
    Arphic PL UKai font
You can redistribute and/or modify this file under the terms of the Arphic Public License
as published by Arphic Technology Co., Ltd.
You should have received a copy of this license along with this file.
If not, see http://ftp.gnu.org/non-gnu/chinese-fonts-truetype/LICENSE.
-->
<svg id="z37326" class="acjk" version="1.1" viewBox="0 0 1024 1024" xmlns="http://www.w3.org/2000/svg" xmlns:xlink="http://www.w3.org/1999/xlink">
<style>
<![CDATA[
@keyframes zk {
	to {
		stroke-dashoffset:0;
	}
}
svg.acjk path[clip-path] {
	--t:0.8s;
	animation:zk var(--t) linear forwards var(--d);
	stroke-dasharray:3337;
	stroke-dashoffset:3339;
	stroke-width:128;
	stroke-linecap:round;
	fill:none;
	stroke:#000;
}
svg.acjk path[id] {fill:#ccc;}
]]>
</style>
<path id="z37326d1" d="M161 144C153 141 140 139 124 136C115 134 111 135 109 139C105 143 106 149 112 161C136 209 156 273 170 353C174 377 181 396 196 413C208 426 216 429 219 418C220 414 220 409 221 405C222 388 222 388 222 380C222 368 214 343 211 329C191 242 184 197 180 173C178 162 172 148 161 144Z"/>
<path id="z37326d2" d="M390 376C400 390 410 400 421 406C427 410 436 406 445 393C456 374 467 313 485 212C488 191 499 174 514 159C521 150 522 141 515 134C505 122 486 109 460 95C448 89 417 96 363 106C355 107 287 118 161 144C150 146 169 175 180 173C204 166 235 159 271 154C300 149 300 149 314 147C376 136 413 130 425 142C435 152 438 163 437 175C426 247 415 304 402 345C398 356 383 367 390 376Z"/>
<path id="z37326d3" d="M337 273C373 264 393 258 396 256C400 252 400 247 398 244C395 239 387 234 373 232C360 229 348 231 337 236C307 247 307 247 292 252C281 255 254 259 236 262C219 264 217 270 230 278C245 287 267 290 292 284C322 277 322 277 337 273Z"/>
<path id="z37326d4" d="M334 386C353 382 371 378 390 376C401 374 413 347 402 345C388 340 353 343 331 350C304 358 304 358 291 362C266 369 243 374 222 380C214 382 213 406 221 405C237 402 270 396 291 393C320 388 320 388 334 386Z"/>
<path id="z37326d5" d="M329 608C329 576 329 545 330 517C331 488 331 488 331 474C331 457 333 397 334 386C335 362 335 362 335 350C335 323 337 297 337 273C337 248 337 248 337 236C337 205 343 173 339 167C330 157 322 152 314 147C302 140 264 142 271 154C275 162 280 169 285 180C290 191 292 216 292 252C292 273 292 273 292 284C292 304 291 330 291 362C291 383 291 383 291 393C291 404 289 477 289 486C289 513 289 513 289 526C289 552 288 583 288 617C288 631 329 622 329 608Z"/>
<path id="z37326d6" d="M330 517C397 502 427 498 435 492C440 488 441 481 439 478C434 470 422 465 407 462C388 457 364 464 331 474C303 482 303 482 289 486C268 491 224 496 192 500C171 502 166 510 183 520C207 535 243 536 289 526C316 520 316 520 330 517Z"/>
<path id="z37326d7" d="M288 617C265 622 206 636 146 651C131 654 111 655 86 654C74 653 70 658 69 665C67 675 68 683 75 689C90 702 108 716 133 730C138 733 147 731 157 725C191 703 273 671 403 623C451 604 476 590 480 589C488 584 496 577 495 572C493 565 484 565 476 568C429 580 381 596 329 608C302 614 302 614 288 617Z"/>
<path id="z37326d8" d="M697 299C767 234 816 197 844 188C856 183 860 177 857 166C854 155 831 138 790 116C776 109 765 108 751 114C714 128 667 142 610 158C595 162 570 163 535 162C520 161 514 167 520 181C523 188 532 196 546 204C562 214 584 211 610 201C693 165 740 153 751 160C758 165 761 173 757 181C735 214 709 250 682 290C679 295 692 302 697 299Z"/>
<path id="z37326d9" d="M682 290C640 265 611 265 604 270C601 271 599 275 601 282C602 285 610 293 624 305C644 320 666 337 689 357C696 363 702 366 710 366C714 365 719 361 722 355C724 348 724 336 718 323C714 314 707 305 697 299C687 293 687 293 682 290Z"/>
<path id="z37326d10" d="M683 427C725 417 768 409 813 403C834 399 847 403 848 413C848 423 836 449 816 489C811 497 810 503 815 507C819 509 825 506 834 499C883 459 918 436 939 430C955 424 962 418 962 410C960 401 935 385 889 361C873 353 840 359 787 373C701 395 600 411 484 427C466 429 464 435 478 452C488 463 508 466 539 458C570 449 603 444 637 437C668 430 668 430 683 427Z"/>
<path id="z37326d11" d="M613 832C591 824 570 816 545 808C536 805 532 805 533 812C533 816 535 822 543 829C591 867 629 903 662 934C668 940 678 938 687 927C714 889 725 845 723 796C715 661 710 558 716 489C717 470 720 457 716 452C711 444 700 437 683 427C670 419 629 424 637 437C637 439 640 441 643 447C651 461 654 484 655 511C656 567 659 660 661 790C661 810 657 825 650 833C644 838 629 838 613 832Z"/>
<defs>
	<clipPath id="z37326c1"><use xlink:href="#z37326d1"/></clipPath>
	<clipPath id="z37326c2"><use xlink:href="#z37326d2"/></clipPath>
	<clipPath id="z37326c3"><use xlink:href="#z37326d3"/></clipPath>
	<clipPath id="z37326c4"><use xlink:href="#z37326d4"/></clipPath>
	<clipPath id="z37326c5"><use xlink:href="#z37326d5"/></clipPath>
	<clipPath id="z37326c6"><use xlink:href="#z37326d6"/></clipPath>
	<clipPath id="z37326c7"><use xlink:href="#z37326d7"/></clipPath>
	<clipPath id="z37326c8"><use xlink:href="#z37326d8"/></clipPath>
	<clipPath id="z37326c9"><use xlink:href="#z37326d9"/></clipPath>
	<clipPath id="z37326c10"><use xlink:href="#z37326d10"/></clipPath>
	<clipPath id="z37326c11"><use xlink:href="#z37326d11"/></clipPath>
</defs>
<path style="--d:1s;" pathLength="3333" clip-path="url(#z37326c1)" d="M116 144L155 187L209 420"/>
<path style="--d:2s;" pathLength="3333" clip-path="url(#z37326c2)" d="M171 146L425 116L473 144L420 402"/>
<path style="--d:3s;" pathLength="3333" clip-path="url(#z37326c3)" d="M231 270L393 248"/>
<path style="--d:4s;" pathLength="3333" clip-path="url(#z37326c4)" d="M229 396L394 349"/>
<path style="--d:5s;" pathLength="3333" clip-path="url(#z37326c5)" d="M279 157L314 185L302 613"/>
<path style="--d:6s;" pathLength="3333" clip-path="url(#z37326c6)" d="M183 507L435 479"/>
<path style="--d:7s;" pathLength="3333" clip-path="url(#z37326c7)" d="M75 664L140 691L487 575"/>
<path style="--d:8s;" pathLength="3333" clip-path="url(#z37326c8)" d="M522 172L574 187L754 134L779 143L805 182L689 287"/>
<path style="--d:9s;" pathLength="3333" clip-path="url(#z37326c9)" d="M605 276L686 322L710 360"/>
<path style="--d:10s;" pathLength="3333" clip-path="url(#z37326c10)" d="M476 438L852 380L907 423L819 503"/>
<path style="--d:11s;" pathLength="3333" clip-path="url(#z37326c11)" d="M646 442L686 476L689 831L658 886L543 813"/>
</svg>