<!--
AnimCJK 2016-2025 Copyright FM-SH - https://github.com/parsimonhi/animCJK
Derived from:
    MakeMeAHanzi project - https://github.com/skishore/makemeahanzi
    Arphic PL KaitiM GB font
    Arphic PL KaitiM Big5 font
You can redistribute and/or modify this file under the terms of the Arphic Public License
as published by Arphic Technology Co., Ltd.
You should have received a copy of this license along with this file.
If not, see https://ftp.gnu.org/non-gnu/chinese-fonts-truetype/LICENSE.
-->
<svg id="z37350" class="acjk" viewBox="0 0 1024 1024" xmlns="http://www.w3.org/2000/svg">
<style>
<![CDATA[
@keyframes zk {
	to {
		stroke-dashoffset:0;
	}
}
svg.acjk path[clip-path] {
	--t:0.8s;
	animation:zk var(--t) linear forwards var(--d);
	stroke-dasharray:3337;
	stroke-dashoffset:3339;
	stroke-width:128;
	stroke-linecap:round;
	fill:none;
	stroke:#000;
}
svg.acjk path[id] {fill:#ccc;}
]]>
</style>
<path id="z37350d1" d="M367 210Q380 189 393 177Q402 165 396 152Q392 139 362 117Q334 99 315 100Q296 103 305 125Q321 159 309 190Q246 362 74 580Q64 590 62 598Q59 608 73 606Q112 596 214 456Q259 398 351 237C362 219 362 219 367 210Z"/>
<path id="z37350d2" d="M351 237Q387 258 466 323Q479 333 492 332Q502 331 505 320Q509 307 499 281Q492 254 450 235Q410 220 367 210C357 208 343 231 351 237Z"/>
<path id="z37350d3" d="M359 463Q438 433 443 430Q450 421 444 414Q437 404 409 402Q388 401 322 431Q253 452 239 457Q208 467 233 479Q267 492 316 478C345 468 345 468 359 463Z"/>
<path id="z37350d4" d="M372 582Q457 546 459 546Q466 537 460 530Q453 520 425 518Q397 517 373 532C340 547 340 547 323 554Q290 569 219 589Q188 599 213 611Q255 627 303 607Q312 603 324 600C356 588 356 588 372 582Z"/>
<path id="z37350d5" d="M365 769Q368 666 372 582C373 549 373 549 373 532Q373 529 374 528Q377 480 373 475Q366 468 359 463C347 454 313 463 316 478Q319 485 323 554C324 585 324 585 324 600Q324 664 324 782C324 796 365 783 365 769Z"/>
<path id="z37350d6" d="M200 708Q239 757 253 758Q263 759 269 747Q275 734 269 706Q266 693 245 681Q197 657 180 661Q176 664 175 676Q178 686 200 708Z"/>
<path id="z37350d7" d="M428 630Q416 661 389 710Q386 717 391 721Q397 721 402 716Q457 658 486 635Q499 628 494 621Q470 587 436 590Q426 591 429 607Q433 617 428 630Z"/>
<path id="z37350d8" d="M324 782Q248 804 166 829Q144 836 106 835Q93 836 91 847Q88 860 98 870Q122 886 156 906Q166 909 179 900Q219 870 405 792Q481 753 488 749Q501 742 502 732Q496 726 484 729Q426 748 365 769C338 778 338 778 324 782Z"/>
<path id="z37350d9" d="M557 478Q538 466 517 461Q510 458 504 464Q495 470 506 482Q542 540 549 680Q549 737 584 772Q587 775 591 777Q610 783 611 750Q611 746 611 740C608 713 608 713 607 700Q592 562 591 519Q591 515 590 510C587 495 569 487 557 478Z"/>
<path id="z37350d10" d="M830 674Q866 542 912 511Q931 489 915 469Q896 453 836 423Q814 413 789 423Q696 462 557 478C542 481 575 513 590 510Q605 509 621 504Q699 491 774 476Q793 472 801 480Q814 493 809 519Q791 604 768 671C760 690 826 694 830 674Z"/>
<path id="z37350d11" d="M611 740Q615 740 621 739Q693 724 845 714Q858 713 859 703Q859 694 830 674C814 661 788 668 768 671Q680 690 607 700C594 702 598 740 611 740Z"/>
<defs>
	<clipPath id="z37350c1"><use href="#z37350d1"/></clipPath>
	<clipPath id="z37350c2"><use href="#z37350d2"/></clipPath>
	<clipPath id="z37350c3"><use href="#z37350d3"/></clipPath>
	<clipPath id="z37350c4"><use href="#z37350d4"/></clipPath>
	<clipPath id="z37350c5"><use href="#z37350d5"/></clipPath>
	<clipPath id="z37350c6"><use href="#z37350d6"/></clipPath>
	<clipPath id="z37350c7"><use href="#z37350d7"/></clipPath>
	<clipPath id="z37350c8"><use href="#z37350d8"/></clipPath>
	<clipPath id="z37350c9"><use href="#z37350d9"/></clipPath>
	<clipPath id="z37350c10"><use href="#z37350d10"/></clipPath>
	<clipPath id="z37350c11"><use href="#z37350d11"/></clipPath>
</defs>
<path style="--d:1s;" pathLength="3333" clip-path="url(#z37350c1)" d="M310 105L356 168L208 429L68 599"/>
<path style="--d:2s;" pathLength="3333" clip-path="url(#z37350c2)" d="M355 228L442 264L497 325"/>
<path style="--d:3s;" pathLength="3333" clip-path="url(#z37350c3)" d="M228 469L442 419"/>
<path style="--d:4s;" pathLength="3333" clip-path="url(#z37350c4)" d="M208 601L457 532"/>
<path style="--d:5s;" pathLength="3333" clip-path="url(#z37350c5)" d="M322 471L347 502L338 784"/>
<path style="--d:6s;" pathLength="3333" clip-path="url(#z37350c6)" d="M183 668L263 751"/>
<path style="--d:7s;" pathLength="3333" clip-path="url(#z37350c7)" d="M437 598L460 632L394 715"/>
<path style="--d:8s;" pathLength="3333" clip-path="url(#z37350c8)" d="M93 845L163 868L495 735"/>
<path style="--d:9s;" pathLength="3333" clip-path="url(#z37350c9)" d="M505 468L558 521L588 772"/>
<path style="--d:10s;" pathLength="3333" clip-path="url(#z37350c10)" d="M560 483L805 448L844 468L862 511L784 683"/>
<path style="--d:11s;" pathLength="3333" clip-path="url(#z37350c11)" d="M600 717L854 696"/>
</svg>