<!--
AnimCJK 2016-2019 Copyright Francois Mizessyn - https://github.com/parsimonhi/animCJK
Derived from:
    MakeMeAHanzi project - https://github.com/skishore/makemeahanzi
    Arphic PL KaitiM GB font
    Arphic PL UKai font
You can redistribute and/or modify this file under the terms of the Arphic Public License
as published by Arphic Technology Co., Ltd.
You should have received a copy of this license along with this file.
If not, see http://ftp.gnu.org/non-gnu/chinese-fonts-truetype/LICENSE.
-->
<svg id="z37351" class="acjk" version="1.1" viewBox="0 0 1024 1024" xmlns="http://www.w3.org/2000/svg" xmlns:xlink="http://www.w3.org/1999/xlink">
<style>
<![CDATA[
@keyframes zk {
	to {
		stroke-dashoffset:0;
	}
}
svg.acjk path[clip-path] {
	--t:0.8s;
	animation:zk var(--t) linear forwards var(--d);
	stroke-dasharray:3337;
	stroke-dashoffset:3339;
	stroke-width:128;
	stroke-linecap:round;
	fill:none;
	stroke:#000;
}
svg.acjk path[id] {fill:#ccc;}
]]>
</style>
<path id="z37351d1" d="M338 188Q353 160 369 146Q379 136 373 121Q369 108 338 85Q310 66 289 67Q270 70 279 93Q295 126 283 155Q217 323 58 528Q48 538 46 545Q42 557 57 554Q93 545 189 420Q192 414 196 410Q247 346 330 201C335 192 335 192 338 188Z"/>
<path id="z37351d2" d="M330 201Q330 202 331 204Q335 213 362 227Q396 246 435 272Q448 281 462 278Q471 277 473 264Q474 251 463 227Q454 208 420 197Q356 182 338 188C333 189 328 196 330 201Z"/>
<path id="z37351d3" d="M324 420Q361 407 406 394Q430 385 434 382Q441 373 436 366Q429 356 401 353Q380 350 310 380Q234 401 217 405Q184 414 209 427Q236 439 281 433C310 424 310 424 324 420Z"/>
<path id="z37351d4" d="M340 543Q433 509 434 508Q441 501 436 494Q429 484 403 481Q367 480 341 497C308 511 308 511 291 518Q287 519 285 520Q246 533 200 543Q169 552 193 564Q233 579 278 563Q284 560 291 559C324 548 324 548 340 543Z"/>
<path id="z37351d5" d="M333 737Q336 631 340 543C341 512 341 512 341 497Q341 482 344 461Q350 442 324 420C313 409 275 419 281 433Q287 439 291 518C291 545 291 545 291 559Q291 626 291 748C291 762 333 751 333 737Z"/>
<path id="z37351d6" d="M177 672Q190 687 204 705Q216 718 230 719Q240 719 245 707Q251 694 244 666Q241 653 220 642Q166 623 156 625Q152 629 152 640Q153 650 177 672Z"/>
<path id="z37351d7" d="M413 595Q398 620 367 661Q363 667 367 673Q373 674 379 670Q442 627 472 611Q487 607 483 598Q479 585 462 571Q446 556 428 555Q416 556 418 571Q419 581 413 595Z"/>
<path id="z37351d8" d="M291 748Q213 767 131 788Q109 794 73 792Q60 793 57 803Q54 816 63 826Q85 844 119 864Q129 868 142 860Q190 829 242 809Q321 781 400 751Q430 739 452 725Q465 718 467 708Q461 702 448 704Q393 720 333 737C305 744 305 744 291 748Z"/>
<path id="z37351d9" d="M526 303Q562 360 549 551Q543 603 522 664Q501 724 426 809Q413 822 410 829Q409 836 420 835Q456 832 519 759Q597 657 604 462Q605 413 604 355Q607 336 608 324Q612 303 591 295Q542 274 528 278Q509 282 526 303Z"/>
<path id="z37351d10" d="M655 273Q697 364 667 600Q660 642 691 683Q701 693 711 682Q736 640 732 584Q720 475 727 354Q728 329 732 304Q739 280 717 268Q701 258 682 249Q669 245 659 250Q650 257 655 273Z"/>
<path id="z37351d11" d="M786 117Q822 168 822 225Q828 360 828 587Q828 741 807 820Q795 865 824 926Q831 947 841 951Q848 958 855 949Q864 945 874 922Q880 904 881 804Q868 278 894 173Q904 157 900 142Q893 132 832 96Q807 78 785 95Q779 101 786 117Z"/>
<defs>
	<clipPath id="z37351c1"><use xlink:href="#z37351d1"/></clipPath>
	<clipPath id="z37351c2"><use xlink:href="#z37351d2"/></clipPath>
	<clipPath id="z37351c3"><use xlink:href="#z37351d3"/></clipPath>
	<clipPath id="z37351c4"><use xlink:href="#z37351d4"/></clipPath>
	<clipPath id="z37351c5"><use xlink:href="#z37351d5"/></clipPath>
	<clipPath id="z37351c6"><use xlink:href="#z37351d6"/></clipPath>
	<clipPath id="z37351c7"><use xlink:href="#z37351d7"/></clipPath>
	<clipPath id="z37351c8"><use xlink:href="#z37351d8"/></clipPath>
	<clipPath id="z37351c9"><use xlink:href="#z37351d9"/></clipPath>
	<clipPath id="z37351c10"><use xlink:href="#z37351d10"/></clipPath>
	<clipPath id="z37351c11"><use xlink:href="#z37351d11"/></clipPath>
</defs>
<path style="--d:1s;" pathLength="3333" clip-path="url(#z37351c1)" d="M284 74L330 139L194 375L54 546"/>
<path style="--d:2s;" pathLength="3333" clip-path="url(#z37351c2)" d="M337 200L425 231L462 273"/>
<path style="--d:3s;" pathLength="3333" clip-path="url(#z37351c3)" d="M207 417L433 372"/>
<path style="--d:4s;" pathLength="3333" clip-path="url(#z37351c4)" d="M191 554L433 496"/>
<path style="--d:5s;" pathLength="3333" clip-path="url(#z37351c5)" d="M287 439L317 467L301 745"/>
<path style="--d:6s;" pathLength="3333" clip-path="url(#z37351c6)" d="M159 631L234 713"/>
<path style="--d:7s;" pathLength="3333" clip-path="url(#z37351c7)" d="M427 559L445 603L373 666"/>
<path style="--d:8s;" pathLength="3333" clip-path="url(#z37351c8)" d="M61 802L123 828L461 713"/>
<path style="--d:9s;" pathLength="3333" clip-path="url(#z37351c9)" d="M527 289L574 327L566 588L516 725L418 827"/>
<path style="--d:10s;" pathLength="3333" clip-path="url(#z37351c10)" d="M664 255L700 302L694 681"/>
<path style="--d:11s;" pathLength="3333" clip-path="url(#z37351c11)" d="M788 98L858 161L850 947"/>
</svg>