<!--
AnimCJK 2016-2026 Copyright FM-SH, https://github.com/parsimonhi/animCJK
Derived from:
    MakeMeAHanzi project - https://github.com/skishore/makemeahanzi
    Arphic PL KaitiM GB font
    Arphic PL KaitiM Big5 font
You can redistribute and/or modify this file under the terms of the Arphic Public License
as published by Arphic Technology Co., Ltd.
You should have received a copy of this license along with this file.
If not, see https://ftp.gnu.org/non-gnu/chinese-fonts-truetype/LICENSE.
-->
<svg id="z37375" class="acjk" viewBox="0 0 1024 1024" xmlns="http://www.w3.org/2000/svg">
<style>
<![CDATA[
@keyframes zk {
	to {
		stroke-dashoffset:0;
	}
}
svg.acjk path[clip-path] {
	--t:0.8s;
	animation:zk var(--t) linear forwards var(--d);
	stroke-dasharray:3337;
	stroke-dashoffset:3339;
	stroke-width:128;
	stroke-linecap:round;
	fill:none;
	stroke:#000;
}
svg.acjk path[id] {fill:#ccc;}
]]>
</style>
<path id="z37375d1" d="M375 197C380 185 385 173 396 164C400 159 407 145 384 127C343 94 303 99 310 123C339 230 162 459 66 548C35 577 46 587 80 565C144 523 247 439 365 216C372 203 372 203 375 197Z"/>
<path id="z37375d2" d="M365 216Q371 222 387 233Q424 258 463 288Q473 297 486 295Q493 294 497 284Q500 272 491 250Q479 217 381 197Q377 196 375 197C368 197 359 212 365 216Z"/>
<path id="z37375d3" d="M325 462C359 451 423 435 439 419C457 399 417 390 403 390C383 388 364 394 346 404C304 426 257 435 236 442C212 448 212 455 229 466C245 477 269 478 287 473C312 466 312 466 325 462Z"/>
<path id="z37375d4" d="M347 578C371 569 425 549 438 540C447 532 442 516 407 514C391 512 371 519 349 530C316 545 316 545 300 553C270 566 230 577 183 591C162 597 160 604 177 611C218 624 261 609 300 595C331 584 331 584 347 578Z"/>
<path id="z37375d5" d="M341 762C343 694 344 632 347 578C348 546 348 546 349 530C350 497 352 479 325 462C314 454 282 461 287 473C293 487 300 526 300 553C300 581 300 581 300 595C300 715 300 715 300 775C300 789 341 776 341 762Z"/>
<path id="z37375d6" d="M188 694C198 704 207 718 219 732C235 752 262 750 254 701C250 679 207 662 195 658C168 649 167 654 168 666C168 672 175 681 188 694Z"/>
<path id="z37375d7" d="M374 687C368 696 379 698 385 693C415 664 435 651 455 635C468 623 457 613 442 603C429 594 407 585 406 608C404 636 383 668 374 687Z"/>
<path id="z37375d8" d="M300 775C243 792 189 816 129 817C108 817 112 842 122 850C135 861 154 872 178 884C184 886 191 883 200 878C249 846 376 784 465 741C490 728 484 713 460 721C421 733 382 748 341 762C314 771 314 771 300 775Z"/>
<path id="z37375d9" d="M633 287C710 241 785 196 815 184C830 177 836 168 829 155C820 141 807 128 789 117C776 109 745 85 740 118C734 150 714 178 620 269C615 274 627 291 633 287Z"/>
<path id="z37375d10" d="M626 410C629 352 631 300 633 287C634 280 626 273 620 269C595 250 535 224 554 273C587 360 587 642 476 798C441 847 456 856 497 814C614 690 616 559 624 440C625 420 625 420 626 410Z"/>
<path id="z37375d11" d="M772 427C891 398 937 383 952 377C968 370 965 345 918 342C900 340 856 352 781 376C735 390 683 400 626 410C616 412 614 438 624 440C660 448 694 445 717 440C754 431 754 431 772 427Z"/>
<path id="z37375d12" d="M717 440C731 464 738 500 739 551C739 732 740 855 743 919C747 1027 779 999 789 917C793 881 795 838 796 793C796 757 795 673 799 538C799 517 803 495 809 471C812 452 806 446 772 427C756 417 709 423 717 440Z"/>
<defs>
	<clipPath id="z37375c1"><use href="#z37375d1"/></clipPath>
	<clipPath id="z37375c2"><use href="#z37375d2"/></clipPath>
	<clipPath id="z37375c3"><use href="#z37375d3"/></clipPath>
	<clipPath id="z37375c4"><use href="#z37375d4"/></clipPath>
	<clipPath id="z37375c5"><use href="#z37375d5"/></clipPath>
	<clipPath id="z37375c6"><use href="#z37375d6"/></clipPath>
	<clipPath id="z37375c7"><use href="#z37375d7"/></clipPath>
	<clipPath id="z37375c8"><use href="#z37375d8"/></clipPath>
	<clipPath id="z37375c9"><use href="#z37375d9"/></clipPath>
	<clipPath id="z37375c10"><use href="#z37375d10"/></clipPath>
	<clipPath id="z37375c11"><use href="#z37375d11"/></clipPath>
	<clipPath id="z37375c12"><use href="#z37375d12"/></clipPath>
</defs>
<path style="--d:1s;" pathLength="3333" clip-path="url(#z37375c1)" d="M317 110L356 156L295 289L183 449L56 570"/>
<path style="--d:2s;" pathLength="3333" clip-path="url(#z37375c2)" d="M368 209L444 241L490 288"/>
<path style="--d:3s;" pathLength="3333" clip-path="url(#z37375c3)" d="M223 451L435 405"/>
<path style="--d:4s;" pathLength="3333" clip-path="url(#z37375c4)" d="M172 601L435 530"/>
<path style="--d:5s;" pathLength="3333" clip-path="url(#z37375c5)" d="M293 467L324 529L314 778"/>
<path style="--d:6s;" pathLength="3333" clip-path="url(#z37375c6)" d="M174 662L245 738"/>
<path style="--d:7s;" pathLength="3333" clip-path="url(#z37375c7)" d="M415 599L428 634L379 690"/>
<path style="--d:8s;" pathLength="3333" clip-path="url(#z37375c8)" d="M118 826L191 845L474 726"/>
<path style="--d:9s;" pathLength="3333" clip-path="url(#z37375c9)" d="M753 107L776 165L623 278"/>
<path style="--d:10s;" pathLength="3333" clip-path="url(#z37375c10)" d="M558 255L598 299L588 559L549 704L463 830"/>
<path style="--d:11s;" pathLength="3333" clip-path="url(#z37375c11)" d="M624 430L954 362"/>
<path style="--d:12s;" pathLength="3333" clip-path="url(#z37375c12)" d="M722 433L770 473L760 984"/>
</svg>