<!--
AnimCJK 2016-2017 Copyright Francois Mizessyn, http://gooo.free.fr/animCJK/
Derived from:
    MakeMeAHanzi project - https://github.com/skishore/makemeahanzi
    Arphic PL KaitiM GB - https://apps.ubuntu.com/cat/applications/precise/fonts-arphic-gkai00mp/
    Arphic PL UKai - https://apps.ubuntu.com/cat/applications/fonts-arphic-ukai/
You can redistribute and/or modify this file under the terms of the Arphic Public License
as published by Arphic Technology Co., Ltd.
You should have received a copy of this license (the directory "APL") along with this file;
if not, see http://ftp.gnu.org/non-gnu/chinese-fonts-truetype/LICENSE.
-->
<svg id="z37389" class="acjk" version="1.1" viewBox="0 0 1024 1024" xmlns="http://www.w3.org/2000/svg" xmlns:xlink="http://www.w3.org/1999/xlink">
<style>
<![CDATA[
@keyframes z37389k {
	from {
		stroke:#c00;
		stroke-dashoffset:3000;
	}
	75% {
		stroke:#c00;
		stroke-dashoffset:0;
	}
	to {
		stroke:#000;
	}
}
#z37389 path[clip-path] {
	animation:z37389k 1s linear both;
	stroke-dasharray:3000;
	stroke-width:128;
	stroke-linecap:round;
	fill:none;
}
#z37389 path[clip-path="url(#z37389c1)"] {animation-delay:1s;}
#z37389 path[clip-path="url(#z37389c2)"] {animation-delay:2s;}
#z37389 path[clip-path="url(#z37389c3)"] {animation-delay:3s;}
#z37389 path[clip-path="url(#z37389c4)"] {animation-delay:4s;}
#z37389 path[clip-path="url(#z37389c5)"] {animation-delay:5s;}
#z37389 path[clip-path="url(#z37389c6)"] {animation-delay:6s;}
#z37389 path[clip-path="url(#z37389c7)"] {animation-delay:7s;}
#z37389 path[clip-path="url(#z37389c8)"] {animation-delay:8s;}
#z37389 path[clip-path="url(#z37389c9)"] {animation-delay:9s;}
#z37389 path[clip-path="url(#z37389c10)"] {animation-delay:10s;}
#z37389 path[clip-path="url(#z37389c11)"] {animation-delay:11s;}
#z37389 path[clip-path="url(#z37389c12)"] {animation-delay:12s;}
#z37389 path {fill:#ccc;}
]]>
</style>
<path id="z37389d1" d="M363 193Q379 168 395 153Q405 141 400 127Q396 114 365 89Q337 70 316 69Q297 70 305 95Q318 126 307 152Q271 240 217 324Q163 403 91 491Q81 501 78 509Q74 521 90 518Q142 512 297 297Q336 240 349 215L363 193 Z"/>
<path id="z37389d2" d="M349 215Q356 222 373 234Q410 262 450 295Q463 305 476 304Q485 303 489 292Q493 279 484 253Q472 217 367 193Q364 192 363 193L349 215 Z"/>
<path id="z37389d3" d="M327 433Q436 402 441 398Q448 391 444 382Q437 372 409 368Q381 365 355 378Q328 388 299 398Q268 407 229 413Q196 422 222 435Q246 447 288 444L327 433 Z"/>
<path id="z37389d4" d="M350 557Q380 547 413 537Q444 527 450 522Q457 513 452 506Q445 496 417 492Q383 489 353 508L301 529Q294 530 288 533Q245 546 193 557Q160 566 185 579Q225 595 301 572L350 557 Z"/>
<path id="z37389d5" d="M342 727Q346 633 350 557L353 508Q354 492 355 481Q362 465 353 455Q340 442 327 433L288 444Q300 460 301 529L301 572Q301 630 300 740L342 727 Z"/>
<path id="z37389d6" d="M176 651Q215 717 237 720Q250 724 258 707Q262 694 255 674Q242 646 184 626Q175 623 173 634Q172 641 176 651 Z"/>
<path id="z37389d7" d="M406 607Q396 632 370 674Q366 680 371 685Q377 685 382 681Q437 635 464 615Q477 611 472 602Q466 592 450 579Q434 567 417 568Q407 569 408 584Q412 594 406 607 Z"/>
<path id="z37389d8" d="M300 740Q239 756 176 776Q157 782 126 781Q113 782 110 794Q109 809 118 817Q143 833 178 854Q190 857 202 847Q232 823 410 739Q435 727 452 714Q465 705 466 695Q460 689 447 692Q396 708 342 727L300 740 Z"/>
<path id="z37389d9" d="M683 403Q794 364 798 361Q807 351 801 344Q792 332 761 329Q713 325 688 349L636 370Q587 385 537 397Q500 407 529 421Q574 439 633 420L683 403 Z"/>
<path id="z37389d10" d="M675 620Q730 596 769 596L771 563Q719 573 675 585L627 599Q590 609 559 622Q546 626 548 609Q560 521 552 508Q522 474 500 478Q490 482 497 498Q515 541 508 582Q504 622 486 640Q471 656 478 668Q488 681 503 689Q516 696 524 688Q542 667 628 637L675 620 Z"/>
<path id="z37389d11" d="M769 596Q770 618 777 634Q784 650 797 641Q824 619 838 539Q857 485 866 476Q876 463 867 448Q851 432 822 409Q810 400 798 405Q791 408 791 421Q800 433 796 498Q787 535 774 557Q773 558 771 563L769 596 Z"/>
<path id="z37389d12" d="M628 637Q628 812 666 852Q673 858 684 866Q750 914 890 896Q897 893 905 892Q942 882 958 867Q977 854 959 821Q941 766 938 696Q938 686 930 677Q920 670 916 694Q871 820 870 822Q866 832 846 835Q816 844 763 839Q733 838 718 829Q694 819 687 787Q678 754 675 620L675 585Q675 518 683 403L688 349Q700 207 722 172Q729 150 711 136Q683 109 645 100Q626 96 618 105Q609 114 617 123Q644 150 644 222Q644 330 636 370L633 420Q627 514 627 599L628 637 Z"/>
<defs>
	<clipPath id="z37389c1"><use xlink:href="#z37389d1"/></clipPath>
	<clipPath id="z37389c2"><use xlink:href="#z37389d2"/></clipPath>
	<clipPath id="z37389c3"><use xlink:href="#z37389d3"/></clipPath>
	<clipPath id="z37389c4"><use xlink:href="#z37389d4"/></clipPath>
	<clipPath id="z37389c5"><use xlink:href="#z37389d5"/></clipPath>
	<clipPath id="z37389c6"><use xlink:href="#z37389d6"/></clipPath>
	<clipPath id="z37389c7"><use xlink:href="#z37389d7"/></clipPath>
	<clipPath id="z37389c8"><use xlink:href="#z37389d8"/></clipPath>
	<clipPath id="z37389c9"><use xlink:href="#z37389d9"/></clipPath>
	<clipPath id="z37389c10"><use xlink:href="#z37389d10"/></clipPath>
	<clipPath id="z37389c11"><use xlink:href="#z37389d11"/></clipPath>
	<clipPath id="z37389c12"><use xlink:href="#z37389d12"/></clipPath>
</defs>
<path pathLength="2999" clip-path="url(#z37389c1)" d="M310 77L353 145L221 360L83 510"/>
<path pathLength="2999" clip-path="url(#z37389c2)" d="M355 213L443 250L481 298"/>
<path pathLength="2999" clip-path="url(#z37389c3)" d="M218 422L440 388"/>
<path pathLength="2999" clip-path="url(#z37389c4)" d="M184 569L449 507"/>
<path pathLength="2999" clip-path="url(#z37389c5)" d="M296 448L328 475L310 735"/>
<path pathLength="2999" clip-path="url(#z37389c6)" d="M181 635L248 716"/>
<path pathLength="2999" clip-path="url(#z37389c7)" d="M417 579L436 616L376 678"/>
<path pathLength="2999" clip-path="url(#z37389c8)" d="M113 793L182 814L456 699"/>
<path pathLength="2999" clip-path="url(#z37389c9)" d="M522 410L795 350"/>
<path pathLength="2999" clip-path="url(#z37389c10)" d="M501 484L532 530L513 638L527 655L766 584"/>
<path pathLength="2999" clip-path="url(#z37389c11)" d="M799 412L834 465L794 639"/>
<path pathLength="2999" clip-path="url(#z37389c12)" d="M619 107L682 166L651 552L677 826L728 860L799 871L911 847L927 685"/>
</svg>