<!--
AnimCJK 2016-2017 Copyright Francois Mizessyn, http://gooo.free.fr/animCJK/
Derived from:
    MakeMeAHanzi project - https://github.com/skishore/makemeahanzi
    Arphic PL KaitiM GB - https://apps.ubuntu.com/cat/applications/precise/fonts-arphic-gkai00mp/
    Arphic PL UKai - https://apps.ubuntu.com/cat/applications/fonts-arphic-ukai/
You can redistribute and/or modify this file under the terms of the Arphic Public License
as published by Arphic Technology Co., Ltd.
You should have received a copy of this license (the directory "APL") along with this file;
if not, see http://ftp.gnu.org/non-gnu/chinese-fonts-truetype/LICENSE.
-->
<svg id="z37428" class="acjk" version="1.1" viewBox="0 0 1024 1024" xmlns="http://www.w3.org/2000/svg" xmlns:xlink="http://www.w3.org/1999/xlink">
<style>
<![CDATA[
	@keyframes z37428k {
		from {
			stroke:#c00;
			stroke-dashoffset:3000;
		}
		75% {
			stroke:#c00;
			stroke-dashoffset:0;
		}
		to {
			stroke:#000;
		}
	}
	#z37428 path[clip-path] {
		animation:z37428k 1s linear both;
		stroke-dasharray:3000;
		stroke-width:128;
		stroke-linecap:round;
		fill:none;
	}
	#z37428 path[clip-path="url(#z37428c1)"] {animation-delay:1s;}
	#z37428 path[clip-path="url(#z37428c2)"] {animation-delay:2s;}
	#z37428 path[clip-path="url(#z37428c3)"] {animation-delay:3s;}
	#z37428 path[clip-path="url(#z37428c4)"] {animation-delay:4s;}
	#z37428 path[clip-path="url(#z37428c5)"] {animation-delay:5s;}
	#z37428 path[clip-path="url(#z37428c6)"] {animation-delay:6s;}
	#z37428 path[clip-path="url(#z37428c7)"] {animation-delay:7s;}
	#z37428 path[clip-path="url(#z37428c8)"] {animation-delay:8s;}
	#z37428 path[clip-path="url(#z37428c9)"] {animation-delay:9s;}
	#z37428 path[clip-path="url(#z37428c10)"] {animation-delay:10s;}
	#z37428 path[clip-path="url(#z37428c11)"] {animation-delay:11s;}
	#z37428 path[clip-path="url(#z37428c12)"] {animation-delay:12s;}
	#z37428 path[clip-path="url(#z37428c13)"] {animation-delay:13s;}
	#z37428 path {fill:#ccc;}
]]>
</style>
<g transform="scale(1,-1) translate(0,-900)">
	<path id="z37428d1" d="M223 514Q295 628 335 707L346 728Q349 743 365 760Q372 767 369 777Q366 787 352 798Q336 810 316 814Q294 818 283 815Q274 812 278 799Q303 709 173 520Q170 517 168 513Q129 461 32 356Q25 350 35 348Q107 369 210 497L223 514Z"/>
	<path id="z37428d2" d="M335 707Q342 700 361 686Q395 662 430 633Q443 623 456 624Q466 625 469 636Q473 649 463 675Q451 708 355 727Q349 728 346 728L335 707Z"/>
	<path id="z37428d3" d="M317 497Q413 528 414 530Q421 539 416 546Q409 556 381 559Q356 560 285 530Q255 523 224 515Q223 515 223 514L210 497Q222 485 278 485L317 497Z"/>
	<path id="z37428d4" d="M340 381Q364 390 391 397Q418 406 422 410Q429 419 424 426Q417 436 389 439Q364 442 342 431L290 409Q209 387 193 383Q160 374 185 361Q222 346 283 364Q286 365 291 366L340 381Z"/>
	<path id="z37428d5" d="M333 207Q336 304 340 381L342 431Q346 470 341 477Q329 489 317 497L278 485Q284 476 290 409L291 366Q291 306 291 194L333 207Z"/>
	<path id="z37428d6" d="M175 271Q191 250 209 226Q218 213 231 212Q238 211 245 221Q251 231 248 257Q247 273 225 288Q168 318 160 315Q156 312 155 301Q156 292 175 271Z"/>
	<path id="z37428d7" d="M388 319Q381 297 362 262Q358 256 363 251Q369 251 374 256Q422 296 445 313Q458 319 453 327Q447 337 430 349Q414 361 396 359Q386 358 389 342Q392 332 388 319Z"/>
	<path id="z37428d8" d="M291 194Q222 176 148 155Q129 149 95 150Q82 149 80 139Q77 126 87 118Q109 102 141 82Q151 79 164 87Q209 120 394 194Q421 204 441 219Q454 226 454 236Q450 240 437 239Q388 224 333 207L291 194Z"/>
	<path id="z37428d9" d="M644 679Q659 728 680 757Q687 769 680 781Q674 793 642 810Q614 823 595 820Q577 814 589 794Q607 769 600 743Q570 599 461 403Q454 391 452 385Q451 373 464 379Q524 406 634 655L644 679Z"/>
	<path id="z37428d10" d="M634 655Q635 654 637 651Q787 429 831 416Q876 407 978 426Q987 429 988 433Q989 437 976 445Q829 505 746 581Q704 618 644 679L634 655Z"/>
	<path id="z37428d11" d="M611 429Q632 411 654 390Q667 377 682 379Q692 380 697 392Q701 407 692 435Q686 451 660 462Q594 480 584 475Q580 471 581 459Q585 449 611 429Z"/>
	<path id="z37428d12" d="M662 137Q779 255 812 269Q831 276 824 293Q820 309 751 342Q732 351 710 341Q659 319 582 292Q563 285 513 283Q489 283 499 263Q506 250 527 240Q558 224 591 246Q607 253 687 294Q700 300 713 292Q726 285 720 270Q684 215 645 147L662 137Z"/>
	<path id="z37428d13" d="M645 147Q614 168 594 178Q587 185 582 172Q581 159 588 148Q628 97 674 25Q686 3 700 -4Q707 -5 717 2Q732 12 726 58Q723 100 662 137L645 147Z"/>
	<defs>
		<clipPath id="z37428c1"><use xlink:href="#z37428d1"/></clipPath>
		<clipPath id="z37428c2"><use xlink:href="#z37428d2"/></clipPath>
		<clipPath id="z37428c3"><use xlink:href="#z37428d3"/></clipPath>
		<clipPath id="z37428c4"><use xlink:href="#z37428d4"/></clipPath>
		<clipPath id="z37428c5"><use xlink:href="#z37428d5"/></clipPath>
		<clipPath id="z37428c6"><use xlink:href="#z37428d6"/></clipPath>
		<clipPath id="z37428c7"><use xlink:href="#z37428d7"/></clipPath>
		<clipPath id="z37428c8"><use xlink:href="#z37428d8"/></clipPath>
		<clipPath id="z37428c9"><use xlink:href="#z37428d9"/></clipPath>
		<clipPath id="z37428c10"><use xlink:href="#z37428d10"/></clipPath>
		<clipPath id="z37428c11"><use xlink:href="#z37428d11"/></clipPath>
		<clipPath id="z37428c12"><use xlink:href="#z37428d12"/></clipPath>
		<clipPath id="z37428c13"><use xlink:href="#z37428d13"/></clipPath>
	</defs>
	<path pathLength="2999" clip-path="url(#z37428c1)" d="M285 809L325 771L262 622L170 481L37 355"/>
	<path pathLength="2999" clip-path="url(#z37428c2)" d="M340 710L424 676L463 634"/>
	<path pathLength="2999" clip-path="url(#z37428c3)" d="M216 500L411 541"/>
	<path pathLength="2999" clip-path="url(#z37428c4)" d="M183 372L421 420"/>
	<path pathLength="2999" clip-path="url(#z37428c5)" d="M284 481L315 450L308 201"/>
	<path pathLength="2999" clip-path="url(#z37428c6)" d="M163 307L236 220"/>
	<path pathLength="2999" clip-path="url(#z37428c7)" d="M398 350L418 314L368 258"/>
	<path pathLength="2999" clip-path="url(#z37428c8)" d="M85 141L148 118L444 232"/>
	<path pathLength="2999" clip-path="url(#z37428c9)" d="M590 814L641 757L549 528L459 384"/>
	<path pathLength="2999" clip-path="url(#z37428c10)" d="M648 666L837 463L983 435"/>
	<path pathLength="2999" clip-path="url(#z37428c11)" d="M588 470L693 390"/>
	<path pathLength="2999" clip-path="url(#z37428c12)" d="M501 271L558 260L702 318L762 297L770 269L653 145"/>
	<path pathLength="2999" clip-path="url(#z37428c13)" d="M589 174L681 78L706 1"/>
</g>
</svg>