<!--
AnimCJK 2016-2017 Copyright Francois Mizessyn, http://gooo.free.fr/animCJK/
Derived from:
    MakeMeAHanzi project - https://github.com/skishore/makemeahanzi
    Arphic PL KaitiM GB - https://apps.ubuntu.com/cat/applications/precise/fonts-arphic-gkai00mp/
    Arphic PL UKai - https://apps.ubuntu.com/cat/applications/fonts-arphic-ukai/
You can redistribute and/or modify this file under the terms of the Arphic Public License
as published by Arphic Technology Co., Ltd.
You should have received a copy of this license (the directory "APL") along with this file;
if not, see http://ftp.gnu.org/non-gnu/chinese-fonts-truetype/LICENSE.
-->
<svg id="z37467" class="acjk" version="1.1" viewBox="0 0 1024 1024" xmlns="http://www.w3.org/2000/svg" xmlns:xlink="http://www.w3.org/1999/xlink">
<style>
<![CDATA[
	@keyframes z37467k {
		from {
			stroke:#c00;
			stroke-dashoffset:3000;
		}
		75% {
			stroke:#c00;
			stroke-dashoffset:0;
		}
		to {
			stroke:#000;
		}
	}
	#z37467 path[clip-path] {
		animation:z37467k 1s linear both;
		stroke-dasharray:3000;
		stroke-width:128;
		stroke-linecap:round;
		fill:none;
	}
	#z37467 path[clip-path="url(#z37467c1)"] {animation-delay:1s;}
	#z37467 path[clip-path="url(#z37467c2)"] {animation-delay:2s;}
	#z37467 path[clip-path="url(#z37467c3)"] {animation-delay:3s;}
	#z37467 path[clip-path="url(#z37467c4)"] {animation-delay:4s;}
	#z37467 path[clip-path="url(#z37467c5)"] {animation-delay:5s;}
	#z37467 path[clip-path="url(#z37467c6)"] {animation-delay:6s;}
	#z37467 path[clip-path="url(#z37467c7)"] {animation-delay:7s;}
	#z37467 path[clip-path="url(#z37467c8)"] {animation-delay:8s;}
	#z37467 path[clip-path="url(#z37467c9)"] {animation-delay:9s;}
	#z37467 path[clip-path="url(#z37467c10)"] {animation-delay:10s;}
	#z37467 path[clip-path="url(#z37467c11)"] {animation-delay:11s;}
	#z37467 path[clip-path="url(#z37467c12)"] {animation-delay:12s;}
	#z37467 path[clip-path="url(#z37467c13)"] {animation-delay:13s;}
	#z37467 path {fill:#ccc;}
]]>
</style>
<g transform="scale(1,-1) translate(0,-900)">
	<path id="z37467d1" d="M375 703Q381 721 396 736Q403 742 400 752Q399 762 384 773Q348 803 315 793Q306 789 310 777Q334 692 199 500Q193 494 188 486Q148 434 44 328Q37 322 47 320Q90 326 214 449Q284 533 365 684L375 703Z"/>
	<path id="z37467d2" d="M365 684Q371 678 387 667Q424 642 463 612Q473 603 486 605Q493 606 497 616Q500 628 491 650Q479 683 381 703Q377 704 375 703L365 684Z"/>
	<path id="z37467d3" d="M325 438Q368 454 415 469Q436 476 439 481Q446 490 441 497Q432 507 403 510Q373 511 346 496Q324 484 298 475Q270 465 236 458Q202 446 229 434Q259 425 287 427L325 438Z"/>
	<path id="z37467d4" d="M347 322Q437 359 438 360Q445 367 440 374Q433 384 407 386Q383 387 349 370L300 347Q254 329 183 309Q152 299 177 289Q207 277 276 298Q286 302 300 305L347 322Z"/>
	<path id="z37467d5" d="M341 138Q344 240 347 322L349 370Q352 413 348 419Q336 431 325 438L287 427Q290 421 294 416Q294 412 300 347L300 305Q300 242 300 125L341 138Z"/>
	<path id="z37467d6" d="M188 206Q203 190 219 168Q228 158 240 156Q247 155 253 165Q259 175 254 199Q253 212 232 225Q184 250 172 246Q168 245 168 234Q169 225 188 206Z"/>
	<path id="z37467d7" d="M404 272Q395 250 374 213Q371 207 375 204Q381 203 385 207Q431 249 455 265Q465 269 462 277Q458 287 442 297Q429 307 413 306Q403 305 406 292Q409 283 404 272Z"/>
	<path id="z37467d8" d="M300 125Q242 109 181 89Q162 82 129 83Q116 82 115 71Q114 58 122 50Q144 34 178 16Q188 13 200 22Q240 52 285 72Q352 102 420 133Q445 145 465 159Q478 166 478 176Q472 182 460 179Q402 160 341 138L300 125Z"/>
	<path id="z37467d9" d="M506 355C500 354 505 363 508 368C529 395 545 425 561 455C571 475 582 497 585 519C587 527 584 535 582 542C581 550 588 557 596 555C615 553 632 540 643 526C650 519 651 507 644 500C629 486 622 467 610 452C587 420 558 391 527 367C520 362 514 358 506 355Z"/>
	<path id="z37467d10" d="M893 414C859 415 825 414 791 416C772 420 757 436 745 450C714 486 693 530 673 572C655 610 640 651 608 679C604 684 596 686 594 692C592 700 599 707 607 706C630 707 655 694 665 672C694 621 722 569 761 525C796 487 843 460 890 440C901 435 914 432 922 423C925 417 914 417 908 415C904 415 897 415 893 414Z"/>
	<path id="z37467d11" d="M571 264Q561 271 529 277Q516 281 513 276Q506 270 514 254Q544 182 556 67Q557 33 576 8Q592 -14 599 1Q605 16 605 40L601 78Q585 192 582 230L571 264Z"/>
	<path id="z37467d12" d="M829 108Q856 202 896 234Q915 253 899 274Q881 289 824 316Q805 325 780 316Q699 283 571 264L582 230Q591 231 602 235Q684 251 763 265Q784 269 792 262Q810 241 769 106L829 108Z"/>
	<path id="z37467d13" d="M605 40Q615 39 629 41Q699 54 853 62Q865 63 867 73Q868 82 834 106Q833 107 829 108L769 106Q675 87 601 78L605 40Z"/>
	<defs>
		<clipPath id="z37467c1"><use xlink:href="#z37467d1"/></clipPath>
		<clipPath id="z37467c2"><use xlink:href="#z37467d2"/></clipPath>
		<clipPath id="z37467c3"><use xlink:href="#z37467d3"/></clipPath>
		<clipPath id="z37467c4"><use xlink:href="#z37467d4"/></clipPath>
		<clipPath id="z37467c5"><use xlink:href="#z37467d5"/></clipPath>
		<clipPath id="z37467c6"><use xlink:href="#z37467d6"/></clipPath>
		<clipPath id="z37467c7"><use xlink:href="#z37467d7"/></clipPath>
		<clipPath id="z37467c8"><use xlink:href="#z37467d8"/></clipPath>
		<clipPath id="z37467c9"><use xlink:href="#z37467d9"/></clipPath>
		<clipPath id="z37467c10"><use xlink:href="#z37467d10"/></clipPath>
		<clipPath id="z37467c11"><use xlink:href="#z37467d11"/></clipPath>
		<clipPath id="z37467c12"><use xlink:href="#z37467d12"/></clipPath>
		<clipPath id="z37467c13"><use xlink:href="#z37467d13"/></clipPath>
	</defs>
	<path pathLength="2999" clip-path="url(#z37467c1)" d="M315 785L356 746L296 610L196 462L49 327"/>
	<path pathLength="2999" clip-path="url(#z37467c2)" d="M370 688L492 618"/>
	<path pathLength="2999" clip-path="url(#z37467c3)" d="M223 444L438 490"/>
	<path pathLength="2999" clip-path="url(#z37467c4)" d="M172 297L437 367"/>
	<path pathLength="2999" clip-path="url(#z37467c5)" d="M294 426L324 377L308 129"/>
	<path pathLength="2999" clip-path="url(#z37467c6)" d="M175 240L248 163"/>
	<path pathLength="2999" clip-path="url(#z37467c7)" d="M412 302L430 266L382 212"/>
	<path pathLength="2999" clip-path="url(#z37467c8)" d="M119 72L189 54L469 171"/>
	<path pathLength="2999" clip-path="url(#z37467c9)" d="M591 546L615 506L511 363"/>
	<path pathLength="2999" clip-path="url(#z37467c10)" d="M598 697L643 671L780 462L910 422"/>
	<path pathLength="2999" clip-path="url(#z37467c11)" d="M518 267L555 221L588 0"/>
	<path pathLength="2999" clip-path="url(#z37467c12)" d="M580 256L782 292L836 272L851 244L798 114L778 113"/>
	<path pathLength="2999" clip-path="url(#z37467c13)" d="M607 72L859 75"/>
</g>
</svg>