<!--
AnimCJK 2016-2018 Copyright Francois Mizessyn, https://github.com/parsimonhi/animCJK
Derived from:
    MakeMeAHanzi project - https://github.com/skishore/makemeahanzi
    Arphic PL KaitiM GB - https://apps.ubuntu.com/cat/applications/precise/fonts-arphic-gkai00mp/
    Arphic PL UKai - https://apps.ubuntu.com/cat/applications/fonts-arphic-ukai/
You can redistribute and/or modify this file under the terms of the Arphic Public License
as published by Arphic Technology Co., Ltd.
You should have received a copy of this license (the directory "APL") along with this file;
if not, see http://ftp.gnu.org/non-gnu/chinese-fonts-truetype/LICENSE.
-->
<svg id="z37507" class="acjk" version="1.1" viewBox="0 0 1024 1024" xmlns="http://www.w3.org/2000/svg" xmlns:xlink="http://www.w3.org/1999/xlink">
<style>
<![CDATA[
@keyframes z37507k {
	from {
		stroke:#c00;
		stroke-dashoffset:3334;
	}
	75% {
		stroke:#c00;
		stroke-dashoffset:0;
	}
	to {
		stroke:#000;
	}
}
#z37507 path[clip-path] {
	animation:z37507k 1s linear both;
	stroke-dasharray:3334;
	stroke-width:128;
	stroke-linecap:round;
	fill:none;
}
#z37507 path[clip-path="url(#z37507c1)"] {animation-delay:1s;}
#z37507 path[clip-path="url(#z37507c2)"] {animation-delay:2s;}
#z37507 path[clip-path="url(#z37507c3)"] {animation-delay:3s;}
#z37507 path[clip-path="url(#z37507c4)"] {animation-delay:4s;}
#z37507 path[clip-path="url(#z37507c5)"] {animation-delay:5s;}
#z37507 path[clip-path="url(#z37507c6)"] {animation-delay:6s;}
#z37507 path[clip-path="url(#z37507c7)"] {animation-delay:7s;}
#z37507 path[clip-path="url(#z37507c8)"] {animation-delay:8s;}
#z37507 path[clip-path="url(#z37507c9)"] {animation-delay:9s;}
#z37507 path[clip-path="url(#z37507c10)"] {animation-delay:10s;}
#z37507 path[clip-path="url(#z37507c11)"] {animation-delay:11s;}
#z37507 path[clip-path="url(#z37507c12)"] {animation-delay:12s;}
#z37507 path[clip-path="url(#z37507c13)"] {animation-delay:13s;}
#z37507 path[clip-path="url(#z37507c14)"] {animation-delay:14s;}
#z37507 path {fill:#ccc;}
]]>
</style>
<path id="z37507d1" d="M217 407Q254 368 349 213L360 194Q375 169 390 155Q400 145 395 131Q391 118 362 97Q335 79 317 79Q298 80 306 103Q321 134 309 162Q272 255 216 340Q161 422 86 513Q76 523 74 530Q71 540 85 538Q116 534 206 422L217 407 Z"/>
<path id="z37507d2" d="M349 213Q353 220 369 231Q400 256 434 285Q444 295 457 294Q466 294 469 284Q473 272 466 249Q457 218 365 194Q362 193 360 194L349 213 Z"/>
<path id="z37507d3" d="M318 424Q423 391 425 390Q432 381 428 374Q421 364 393 360Q365 357 339 371Q314 381 287 390Q257 399 221 405Q217 405 217 407L206 422Q219 435 274 436L318 424 Z"/>
<path id="z37507d4" d="M331 552Q361 543 393 536Q424 527 428 523Q435 516 431 509Q424 500 401 495Q374 491 332 511L285 526Q282 526 281 527Q238 539 189 546Q161 552 182 564Q212 579 285 563L331 552 Z"/>
<path id="z37507d5" d="M325 740Q328 637 331 552L332 511Q332 486 335 462Q342 440 318 424L274 436Q280 451 285 526L285 563Q285 627 285 751L325 740 Z"/>
<path id="z37507d6" d="M169 670Q209 715 224 714Q233 714 237 703Q241 691 235 667Q231 654 210 644Q159 626 148 629Q144 633 145 643Q146 653 169 670 Z"/>
<path id="z37507d7" d="M401 610Q388 641 358 691Q355 697 359 700Q365 701 369 697Q424 639 452 615Q462 609 459 603Q453 593 438 583Q423 573 408 575Q399 576 402 589Q405 598 401 610 Z"/>
<path id="z37507d8" d="M285 751Q221 767 154 786Q135 790 103 790Q90 791 88 801Q85 814 95 822Q117 838 149 858Q159 862 172 853Q212 825 255 807Q322 780 388 752Q413 742 432 729Q445 722 446 712Q442 708 429 709Q380 724 325 740L285 751 Z"/>
<path id="z37507d9" d="M624 111Q652 133 682 159Q695 171 710 169Q720 168 725 156Q729 141 719 113Q707 80 617 65Q602 62 596 65Q592 69 593 81Q597 91 624 111 Z"/>
<path id="z37507d10" d="M648 296Q840 253 847 246Q854 239 851 231Q844 221 818 214Q794 210 702 240Q615 264 532 274Q498 280 523 295Q557 313 606 306L648 296 Z"/>
<path id="z37507d11" d="M760 430Q675 452 588 486Q579 490 576 489Q575 485 579 478Q664 363 682 344Q692 334 687 323Q681 313 648 296L606 306Q607 307 608 312Q620 355 561 439Q542 470 498 502Q486 514 490 523Q494 539 519 556Q529 565 540 555Q576 519 771 452Q772 451 773 451L760 430 Z"/>
<path id="z37507d12" d="M773 451Q803 499 814 502Q821 503 829 495Q836 485 837 459Q837 425 757 376Q747 369 740 370Q736 371 734 382Q734 392 750 414Q754 421 760 430L773 451 Z"/>
<path id="z37507d13" d="M556 594Q574 654 485 778Q484 779 482 782Q457 816 392 886Q385 890 395 892Q491 871 617 644Q623 634 628 628Q634 624 632 615Q629 606 618 597Q587 573 560 581Q553 582 556 594 Z"/>
<path id="z37507d14" d="M696 630Q683 778 693 819Q697 840 713 858Q773 918 903 901Q906 900 912 899Q942 892 970 870Q988 857 976 833Q964 809 948 736Q947 723 941 718Q935 717 932 731Q913 809 898 833Q891 843 866 847Q812 856 763 829Q727 804 729 736Q733 670 750 585Q754 569 744 559Q732 546 711 537Q699 533 691 537Q684 541 689 558Q699 595 696 630 Z"/>
<defs>
	<clipPath id="z37507c1"><use xlink:href="#z37507d1"/></clipPath>
	<clipPath id="z37507c2"><use xlink:href="#z37507d2"/></clipPath>
	<clipPath id="z37507c3"><use xlink:href="#z37507d3"/></clipPath>
	<clipPath id="z37507c4"><use xlink:href="#z37507d4"/></clipPath>
	<clipPath id="z37507c5"><use xlink:href="#z37507d5"/></clipPath>
	<clipPath id="z37507c6"><use xlink:href="#z37507d6"/></clipPath>
	<clipPath id="z37507c7"><use xlink:href="#z37507d7"/></clipPath>
	<clipPath id="z37507c8"><use xlink:href="#z37507d8"/></clipPath>
	<clipPath id="z37507c9"><use xlink:href="#z37507d9"/></clipPath>
	<clipPath id="z37507c10"><use xlink:href="#z37507d10"/></clipPath>
	<clipPath id="z37507c11"><use xlink:href="#z37507d11"/></clipPath>
	<clipPath id="z37507c12"><use xlink:href="#z37507d12"/></clipPath>
	<clipPath id="z37507c13"><use xlink:href="#z37507d13"/></clipPath>
	<clipPath id="z37507c14"><use xlink:href="#z37507d14"/></clipPath>
</defs>
<path pathLength="3333" clip-path="url(#z37507c1)" d="M311 86L354 146L233 353L79 530"/>
<path pathLength="3333" clip-path="url(#z37507c2)" d="M357 214L422 241L463 287"/>
<path pathLength="3333" clip-path="url(#z37507c3)" d="M214 418L424 381"/>
<path pathLength="3333" clip-path="url(#z37507c4)" d="M184 555L425 513"/>
<path pathLength="3333" clip-path="url(#z37507c5)" d="M281 439L308 464L301 746"/>
<path pathLength="3333" clip-path="url(#z37507c6)" d="M154 639L229 705"/>
<path pathLength="3333" clip-path="url(#z37507c7)" d="M410 581L428 611L365 692"/>
<path pathLength="3333" clip-path="url(#z37507c8)" d="M93 801L162 821L436 717"/>
<path pathLength="3333" clip-path="url(#z37507c9)" d="M600 73L681 117L717 162"/>
<path pathLength="3333" clip-path="url(#z37507c10)" d="M523 284L848 236"/>
<path pathLength="3333" clip-path="url(#z37507c11)" d="M613 309L647 345L541 491L546 517L766 443"/>
<path pathLength="3333" clip-path="url(#z37507c12)" d="M742 376L822 496"/>
<path pathLength="3333" clip-path="url(#z37507c13)" d="M562 589L594 627L562 693L485 808L402 883"/>
<path pathLength="3333" clip-path="url(#z37507c14)" d="M697 541L722 576L711 791L743 848L814 875L917 863L942 839L941 726"/>
</svg>