<!--
AnimCJK 2016-2017 Copyright Francois Mizessyn, http://gooo.free.fr/animCJK/
Derived from:
    MakeMeAHanzi project - https://github.com/skishore/makemeahanzi
    Arphic PL KaitiM GB - https://apps.ubuntu.com/cat/applications/precise/fonts-arphic-gkai00mp/
    Arphic PL UKai - https://apps.ubuntu.com/cat/applications/fonts-arphic-ukai/
You can redistribute and/or modify this file under the terms of the Arphic Public License
as published by Arphic Technology Co., Ltd.
You should have received a copy of this license (the directory "APL") along with this file;
if not, see http://ftp.gnu.org/non-gnu/chinese-fonts-truetype/LICENSE.
-->
<svg id="z37509" class="acjk" version="1.1" viewBox="0 0 1024 1024" xmlns="http://www.w3.org/2000/svg" xmlns:xlink="http://www.w3.org/1999/xlink">
<style>
<![CDATA[
	@keyframes z37509k {
		from {
			stroke:#c00;
			stroke-dashoffset:3000;
		}
		75% {
			stroke:#c00;
			stroke-dashoffset:0;
		}
		to {
			stroke:#000;
		}
	}
	#z37509 path[clip-path] {
		animation:z37509k 1s linear both;
		stroke-dasharray:3000;
		stroke-width:128;
		stroke-linecap:round;
		fill:none;
	}
	#z37509 path[clip-path="url(#z37509c1)"] {animation-delay:1s;}
	#z37509 path[clip-path="url(#z37509c2)"] {animation-delay:2s;}
	#z37509 path[clip-path="url(#z37509c3)"] {animation-delay:3s;}
	#z37509 path[clip-path="url(#z37509c4)"] {animation-delay:4s;}
	#z37509 path[clip-path="url(#z37509c5)"] {animation-delay:5s;}
	#z37509 path[clip-path="url(#z37509c6)"] {animation-delay:6s;}
	#z37509 path[clip-path="url(#z37509c7)"] {animation-delay:7s;}
	#z37509 path[clip-path="url(#z37509c8)"] {animation-delay:8s;}
	#z37509 path[clip-path="url(#z37509c9)"] {animation-delay:9s;}
	#z37509 path[clip-path="url(#z37509c10)"] {animation-delay:10s;}
	#z37509 path[clip-path="url(#z37509c11)"] {animation-delay:11s;}
	#z37509 path[clip-path="url(#z37509c12)"] {animation-delay:12s;}
	#z37509 path[clip-path="url(#z37509c13)"] {animation-delay:13s;}
	#z37509 path[clip-path="url(#z37509c14)"] {animation-delay:14s;}
	#z37509 path {fill:#ccc;}
]]>
</style>
<g transform="scale(1,-1) translate(0,-900)">
	<path id="z37509d1" d="M201 509Q261 584 328 703L340 726Q358 768 373 782Q380 789 377 799Q374 809 360 821Q324 851 290 841Q280 837 284 825Q308 740 178 553Q172 547 168 540Q128 488 28 385Q21 378 31 376Q95 397 188 495L201 509Z"/>
	<path id="z37509d2" d="M328 703Q332 696 346 687Q373 665 400 639Q412 629 424 629Q433 630 437 641Q441 653 433 677Q429 695 401 708Q374 717 340 726L328 703Z"/>
	<path id="z37509d3" d="M328 501Q416 531 422 534Q429 543 424 550Q417 560 389 563Q368 566 298 536Q222 515 205 511Q201 511 201 509L188 495Q198 485 233 481Q260 480 287 489L328 501Z"/>
	<path id="z37509d4" d="M341 379Q429 407 433 410Q440 417 436 426Q429 436 401 440Q361 444 343 427L295 408Q285 407 279 403Q240 391 193 383Q160 374 186 361Q225 342 275 360Q282 363 295 365L341 379Z"/>
	<path id="z37509d5" d="M333 205Q337 301 341 379L343 427Q343 439 346 461Q353 479 328 501L287 489Q294 482 295 408L295 365Q294 304 293 194L333 205Z"/>
	<path id="z37509d6" d="M180 267Q193 252 206 234Q216 222 231 222Q240 222 245 233Q249 246 244 271Q241 284 221 295Q170 314 160 311Q156 307 156 296Q157 286 180 267Z"/>
	<path id="z37509d7" d="M386 325Q377 304 358 270Q354 264 359 259Q365 259 370 263Q419 302 443 316Q456 322 452 330Q446 340 430 353Q414 365 397 365Q387 364 388 349Q392 339 386 325Z"/>
	<path id="z37509d8" d="M293 194Q226 178 155 158Q136 152 103 154Q90 153 88 143Q87 130 95 122Q117 106 149 86Q159 82 172 90Q212 118 256 137Q325 164 392 192Q417 202 436 216Q449 223 450 232Q446 238 433 235Q384 222 333 205L293 194Z"/>
	<path id="z37509d9" d="M528 677Q506 693 482 700Q472 701 466 693Q462 687 470 676Q525 541 487 265Q480 220 465 173Q458 145 462 126Q472 90 484 77Q496 62 506 77Q537 116 538 331Q538 578 546 636L528 677Z"/>
	<path id="z37509d10" d="M546 636Q585 655 784 689Q803 693 814 681Q827 674 833 611Q849 403 840 166Q840 130 827 121Q817 114 768 127Q750 133 750 123Q750 114 763 106Q806 57 828 21Q850 -1 864 1Q877 4 891 34Q910 83 911 154Q895 473 895 590Q896 630 908 656Q921 678 910 691Q900 707 850 732Q826 744 762 723Q603 687 528 677L546 636Z"/>
	<path id="z37509d11" d="M597 551Q561 541 590 527Q636 506 690 528Q724 537 760 548Q776 552 778 555Q787 565 781 572Q772 584 741 588Q722 588 647 562Q623 556 597 551Z"/>
	<path id="z37509d12" d="M607 420Q595 424 575 429Q565 432 561 427Q555 423 562 408Q583 362 595 285Q596 263 610 247Q625 226 630 241Q633 250 634 264L632 296Q622 375 622 395L607 420Z"/>
	<path id="z37509d13" d="M749 305Q765 372 785 392Q804 414 785 428Q767 438 744 453Q731 462 679 438Q652 429 607 420L622 395Q625 398 691 409Q710 413 715 405Q722 401 716 373Q712 345 704 313L749 305Z"/>
	<path id="z37509d14" d="M634 264Q640 264 648 265Q682 272 757 276Q767 277 768 285Q768 292 749 305L704 313Q700 313 696 311Q659 302 632 296L634 264Z"/>
	<defs>
		<clipPath id="z37509c1"><use xlink:href="#z37509d1"/></clipPath>
		<clipPath id="z37509c2"><use xlink:href="#z37509d2"/></clipPath>
		<clipPath id="z37509c3"><use xlink:href="#z37509d3"/></clipPath>
		<clipPath id="z37509c4"><use xlink:href="#z37509d4"/></clipPath>
		<clipPath id="z37509c5"><use xlink:href="#z37509d5"/></clipPath>
		<clipPath id="z37509c6"><use xlink:href="#z37509d6"/></clipPath>
		<clipPath id="z37509c7"><use xlink:href="#z37509d7"/></clipPath>
		<clipPath id="z37509c8"><use xlink:href="#z37509d8"/></clipPath>
		<clipPath id="z37509c9"><use xlink:href="#z37509d9"/></clipPath>
		<clipPath id="z37509c10"><use xlink:href="#z37509d10"/></clipPath>
		<clipPath id="z37509c11"><use xlink:href="#z37509d11"/></clipPath>
		<clipPath id="z37509c12"><use xlink:href="#z37509d12"/></clipPath>
		<clipPath id="z37509c13"><use xlink:href="#z37509d13"/></clipPath>
		<clipPath id="z37509c14"><use xlink:href="#z37509d14"/></clipPath>
	</defs>
	<path pathLength="2999" clip-path="url(#z37509c1)" d="M288 836L332 790L265 645L176 514L32 382"/>
	<path pathLength="2999" clip-path="url(#z37509c2)" d="M336 703L395 682L432 639"/>
	<path pathLength="2999" clip-path="url(#z37509c3)" d="M197 501L419 545"/>
	<path pathLength="2999" clip-path="url(#z37509c4)" d="M183 372L432 426"/>
	<path pathLength="2999" clip-path="url(#z37509c5)" d="M294 486L320 458L309 199"/>
	<path pathLength="2999" clip-path="url(#z37509c6)" d="M163 302L216 266L230 226"/>
	<path pathLength="2999" clip-path="url(#z37509c7)" d="M396 358L416 319L363 267"/>
	<path pathLength="2999" clip-path="url(#z37509c8)" d="M94 143L159 123L441 229"/>
	<path pathLength="2999" clip-path="url(#z37509c9)" d="M472 690L514 635L520 550L490 76"/>
	<path pathLength="2999" clip-path="url(#z37509c10)" d="M538 673L563 661L802 713L870 667L871 120L838 54L757 124"/>
	<path pathLength="2999" clip-path="url(#z37509c11)" d="M586 537L775 564"/>
	<path pathLength="2999" clip-path="url(#z37509c12)" d="M565 423L599 379L621 241"/>
	<path pathLength="2999" clip-path="url(#z37509c13)" d="M616 415L727 431L754 410L717 313"/>
	<path pathLength="2999" clip-path="url(#z37509c14)" d="M637 272L702 293L760 283"/>
</g>
</svg>