<!--
AnimCJK 2016-2019 Copyright Francois Mizessyn - https://github.com/parsimonhi/animCJK
Derived from:
    MakeMeAHanzi project - https://github.com/skishore/makemeahanzi
    Arphic PL KaitiM GB font
    Arphic PL UKai font
You can redistribute and/or modify this file under the terms of the Arphic Public License
as published by Arphic Technology Co., Ltd.
You should have received a copy of this license along with this file.
If not, see http://ftp.gnu.org/non-gnu/chinese-fonts-truetype/LICENSE.
-->
<svg id="z37521" class="acjk" version="1.1" viewBox="0 0 1024 1024" xmlns="http://www.w3.org/2000/svg" xmlns:xlink="http://www.w3.org/1999/xlink">
<style>
<![CDATA[
@keyframes zk {
	to {
		stroke-dashoffset:0;
	}
}
svg.acjk path[clip-path] {
	--t:0.8s;
	animation:zk var(--t) linear forwards var(--d);
	stroke-dasharray:3337;
	stroke-dashoffset:3339;
	stroke-width:128;
	stroke-linecap:round;
	fill:none;
	stroke:#000;
}
svg.acjk path[id] {fill:#ccc;}
]]>
</style>
<path id="z37521d1" d="M210 405Q279 303 325 212C333 195 333 195 337 186Q349 159 361 143Q368 137 366 127Q354 100 312 90Q290 86 279 89Q270 93 274 105Q298 192 185 365Q178 374 170 385Q133 437 40 540Q33 546 43 548Q91 533 195 424C205 411 205 411 210 405Z"/>
<path id="z37521d2" d="M325 212Q329 216 339 222Q373 246 411 275Q421 285 434 283Q441 282 445 272Q448 260 440 237Q427 203 337 186C328 184 317 206 325 212Z"/>
<path id="z37521d3" d="M310 418Q395 390 398 386Q405 377 400 370Q393 360 365 357Q344 356 269 388Q239 397 210 405C202 407 189 418 195 424Q214 443 272 431C297 422 297 422 310 418Z"/>
<path id="z37521d4" d="M328 538Q346 531 369 526Q397 516 401 512Q408 505 404 498Q397 488 371 484Q349 481 331 490C298 503 298 503 281 510Q203 532 169 539Q138 546 162 560Q198 575 262 556Q269 553 281 551C312 542 312 542 328 538Z"/>
<path id="z37521d5" d="M317 723Q323 620 328 538C330 506 330 506 331 490Q334 439 326 431Q317 422 310 418C299 411 270 418 272 431Q282 468 281 510C281 537 281 537 281 551Q280 614 277 736C277 750 317 737 317 723Z"/>
<path id="z37521d6" d="M152 639Q197 705 216 709Q226 710 234 697Q235 687 230 668Q223 652 203 642Q172 623 158 618Q151 615 149 625Q148 632 152 639Z"/>
<path id="z37521d7" d="M393 592Q380 617 354 659Q351 663 355 669Q361 669 366 665Q420 619 446 602Q459 598 455 589Q449 579 434 567Q419 555 403 556Q393 557 395 571Q398 581 393 592Z"/>
<path id="z37521d8" d="M277 736Q213 755 145 777Q126 784 93 783Q80 784 78 796Q77 809 86 818Q110 834 144 852Q156 855 167 846Q206 816 385 732Q410 720 429 705Q442 698 442 688Q436 682 424 685Q372 703 317 723C290 732 290 732 277 736Z"/>
<path id="z37521d9" d="M538 341Q553 313 567 289Q574 277 561 266Q522 242 501 247Q491 250 495 262Q513 325 453 414Q449 414 428 450Q422 463 435 458Q447 455 462 441Q504 404 529 359C535 347 535 347 538 341Z"/>
<path id="z37521d10" d="M671 356Q789 323 793 319Q800 312 796 303Q789 293 759 287Q734 283 673 307C639 318 639 318 622 324Q538 339 538 341C532 343 524 355 529 359Q538 368 572 373Q596 374 623 368C655 360 655 360 671 356Z"/>
<path id="z37521d11" d="M665 468Q668 410 671 356C672 323 672 323 673 307Q673 211 692 133Q695 123 675 108Q639 89 614 85Q598 82 590 91Q583 98 591 114Q613 145 614 166Q620 241 622 324C623 353 623 353 623 368Q623 420 623 477C623 491 665 482 665 468Z"/>
<path id="z37521d12" d="M658 507Q680 503 880 484Q898 483 901 475Q905 465 890 453Q836 420 793 436Q741 449 665 468C637 474 637 474 623 477Q542 493 454 511Q435 515 450 529Q463 539 480 544Q481 544 529 537C550 531 550 531 561 528Q591 518 627 513C648 509 648 509 658 507Z"/>
<path id="z37521d13" d="M529 537Q542 597 467 733Q461 740 457 749Q429 794 367 856Q361 860 359 864Q355 873 363 873Q397 876 471 797Q525 731 564 639Q580 597 587 588Q597 578 594 565Q585 547 561 528C553 520 527 526 529 537Z"/>
<path id="z37521d14" d="M627 513Q627 517 630 527Q643 567 639 607Q626 779 639 826Q642 848 662 865Q734 922 887 897Q896 894 905 893Q942 883 978 859Q999 843 984 816Q969 786 949 695Q948 679 941 674Q934 671 930 689Q905 786 887 817Q865 845 775 843Q742 842 716 832Q694 822 688 807Q661 750 697 557Q706 526 658 507C648 503 625 503 627 513Z"/>
<defs>
	<clipPath id="z37521c1"><use xlink:href="#z37521d1"/></clipPath>
	<clipPath id="z37521c2"><use xlink:href="#z37521d2"/></clipPath>
	<clipPath id="z37521c3"><use xlink:href="#z37521d3"/></clipPath>
	<clipPath id="z37521c4"><use xlink:href="#z37521d4"/></clipPath>
	<clipPath id="z37521c5"><use xlink:href="#z37521d5"/></clipPath>
	<clipPath id="z37521c6"><use xlink:href="#z37521d6"/></clipPath>
	<clipPath id="z37521c7"><use xlink:href="#z37521d7"/></clipPath>
	<clipPath id="z37521c8"><use xlink:href="#z37521d8"/></clipPath>
	<clipPath id="z37521c9"><use xlink:href="#z37521d9"/></clipPath>
	<clipPath id="z37521c10"><use xlink:href="#z37521d10"/></clipPath>
	<clipPath id="z37521c11"><use xlink:href="#z37521d11"/></clipPath>
	<clipPath id="z37521c12"><use xlink:href="#z37521d12"/></clipPath>
	<clipPath id="z37521c13"><use xlink:href="#z37521d13"/></clipPath>
	<clipPath id="z37521c14"><use xlink:href="#z37521d14"/></clipPath>
</defs>
<path style="--d:1s;" pathLength="3333" clip-path="url(#z37521c1)" d="M279 94L322 138L255 292L172 418L45 541"/>
<path style="--d:2s;" pathLength="3333" clip-path="url(#z37521c2)" d="M332 210L399 232L434 276"/>
<path style="--d:3s;" pathLength="3333" clip-path="url(#z37521c3)" d="M203 422L395 376"/>
<path style="--d:4s;" pathLength="3333" clip-path="url(#z37521c4)" d="M159 548L399 505"/>
<path style="--d:5s;" pathLength="3333" clip-path="url(#z37521c5)" d="M280 433L306 466L285 727"/>
<path style="--d:6s;" pathLength="3333" clip-path="url(#z37521c6)" d="M156 627L226 702"/>
<path style="--d:7s;" pathLength="3333" clip-path="url(#z37521c7)" d="M405 559L423 596L359 661"/>
<path style="--d:8s;" pathLength="3333" clip-path="url(#z37521c8)" d="M83 799L147 815L432 689"/>
<path style="--d:9s;" pathLength="3333" clip-path="url(#z37521c9)" d="M502 251L534 287L436 451"/>
<path style="--d:10s;" pathLength="3333" clip-path="url(#z37521c10)" d="M538 357L791 314"/>
<path style="--d:11s;" pathLength="3333" clip-path="url(#z37521c11)" d="M594 96L651 144L636 474"/>
<path style="--d:12s;" pathLength="3333" clip-path="url(#z37521c12)" d="M451 519L812 461L897 468"/>
<path style="--d:13s;" pathLength="3333" clip-path="url(#z37521c13)" d="M535 545L560 583L507 705L367 869"/>
<path style="--d:14s;" pathLength="3333" clip-path="url(#z37521c14)" d="M636 519L668 554L657 785L694 853L823 873L921 844L943 816L938 679"/>
</svg>