<!--
AnimCJK 2016-2026 Copyright FM-SH, https://github.com/parsimonhi/animCJK
Derived from:
    MakeMeAHanzi project - https://github.com/skishore/makemeahanzi
    Arphic PL KaitiM GB font
    Arphic PL KaitiM Big5 font
You can redistribute and/or modify this file under the terms of the Arphic Public License
as published by Arphic Technology Co., Ltd.
You should have received a copy of this license along with this file.
If not, see https://ftp.gnu.org/non-gnu/chinese-fonts-truetype/LICENSE.
-->
<svg id="z37657" class="acjk" viewBox="0 0 1024 1024" xmlns="http://www.w3.org/2000/svg">
<style>
<![CDATA[
@keyframes zk {
	to {
		stroke-dashoffset:0;
	}
}
svg.acjk path[clip-path] {
	--t:0.8s;
	animation:zk var(--t) linear forwards var(--d);
	stroke-dasharray:3337;
	stroke-dashoffset:3339;
	stroke-width:128;
	stroke-linecap:round;
	fill:none;
	stroke:#000;
}
svg.acjk path[id] {fill:#ccc;}
]]>
</style>
<path id="z37657d1" d="M339 193C348 179 355 168 365 160C385 140 356 113 338 100C300 73 269 76 282 106C317 189 116 443 51 518C24 548 49 549 73 530C192 433 313 229 325 213C334 200 334 200 339 193Z"/>
<path id="z37657d2" d="M325 213C338 226 362 239 415 283C432 298 463 294 444 245C436 219 405 209 339 193C331 191 318 208 325 213Z"/>
<path id="z37657d3" d="M309 424C371 401 394 393 406 388C417 382 410 364 375 361C357 359 340 364 324 373C283 394 247 403 203 415C182 420 180 428 197 435C218 443 245 446 273 437C297 428 297 428 309 424Z"/>
<path id="z37657d4" d="M336 540C358 532 391 524 414 511C423 505 417 488 385 485C368 483 353 488 338 495C303 510 303 510 286 517C260 527 222 537 175 549C156 553 153 561 169 568C207 583 249 568 287 556C320 545 320 545 336 540Z"/>
<path id="z37657d5" d="M329 732C331 661 333 597 336 540C337 510 337 510 338 495C340 446 350 448 309 424C298 417 268 425 273 437C281 455 285 481 286 517C287 543 287 543 287 556C288 618 287 744 287 744C287 759 329 747 329 732Z"/>
<path id="z37657d6" d="M175 671C186 682 195 696 208 710C221 724 256 737 245 675C242 660 217 645 174 632C156 626 151 627 152 643C152 649 161 657 175 671Z"/>
<path id="z37657d7" d="M358 663C352 672 362 674 369 669C397 644 418 626 434 619C451 610 436 598 422 587C409 577 388 567 386 591C384 609 381 625 358 663Z"/>
<path id="z37657d8" d="M287 744C222 762 158 789 91 790C70 790 71 813 83 822C97 832 115 845 138 858C144 861 151 857 160 852C222 807 387 742 429 721C452 708 446 694 424 701C393 709 362 722 329 732C301 740 301 740 287 744Z"/>
<path id="z37657d9" d="M524 202C515 257 475 321 449 368C434 393 443 400 459 413C473 424 500 444 519 472C527 484 534 488 541 488C562 486 569 452 563 436C557 423 533 409 493 393C476 386 484 367 489 355C499 332 520 299 551 255C562 243 570 230 582 217C594 202 595 191 573 171C560 159 551 153 537 150C517 145 510 154 518 167C523 176 526 186 524 202Z"/>
<path id="z37657d10" d="M672 186C663 238 629 291 601 339C591 354 590 365 610 388C621 401 645 421 660 450C666 461 670 469 679 470C699 471 711 440 707 421C704 407 683 390 644 367C628 357 636 339 642 325C651 304 669 276 697 240C707 230 717 215 730 201C743 185 745 178 721 155C707 142 696 134 685 134C669 133 656 134 666 151C671 159 674 170 672 186Z"/>
<path id="z37657d11" d="M735 316C720 339 735 353 749 364C772 382 793 404 814 427C824 438 835 445 845 445C863 444 866 402 850 379C844 371 828 362 798 356C786 353 755 344 776 313C794 283 826 237 839 220C851 202 862 189 873 182C882 174 886 167 881 155C870 130 856 114 839 105C823 96 796 93 807 122C815 188 768 262 735 316Z"/>
<path id="z37657d12" d="M510 552C495 544 439 517 458 560C480 611 494 679 501 762C502 786 508 807 522 825C534 841 542 840 545 821C546 810 547 799 547 789C542 731 528 653 519 586C517 574 520 557 510 552Z"/>
<path id="z37657d13" d="M779 798C795 879 822 899 844 863C862 832 868 757 880 644C883 613 893 588 908 570C918 557 920 546 913 538C900 523 878 510 848 496C835 490 819 488 798 496C725 521 630 540 510 552C498 554 507 586 519 586C536 586 544 582 627 567C652 562 652 562 664 560C752 543 801 539 813 549C817 552 820 559 821 574C822 691 800 771 792 780C788 786 778 791 779 798Z"/>
<path id="z37657d14" d="M680 767C680 736 684 707 685 681C686 655 686 655 686 642C686 604 694 582 664 560C654 552 622 555 627 567C633 577 639 606 639 657C639 680 639 680 639 692C639 714 639 742 641 775C641 788 680 780 680 767Z"/>
<path id="z37657d15" d="M685 681C709 675 738 669 756 661C776 651 737 636 731 635C716 632 701 636 686 642C655 652 655 652 639 657C620 662 599 664 577 668C558 670 556 676 570 685C586 694 609 699 639 692C670 685 670 685 685 681Z"/>
<path id="z37657d16" d="M545 821C561 821 635 807 779 798C786 798 797 785 792 780C771 753 749 752 680 767C654 772 654 772 641 775C607 781 575 784 547 789C537 791 534 821 545 821Z"/>
<defs>
	<clipPath id="z37657c1"><use href="#z37657d1"/></clipPath>
	<clipPath id="z37657c2"><use href="#z37657d2"/></clipPath>
	<clipPath id="z37657c3"><use href="#z37657d3"/></clipPath>
	<clipPath id="z37657c4"><use href="#z37657d4"/></clipPath>
	<clipPath id="z37657c5"><use href="#z37657d5"/></clipPath>
	<clipPath id="z37657c6"><use href="#z37657d6"/></clipPath>
	<clipPath id="z37657c7"><use href="#z37657d7"/></clipPath>
	<clipPath id="z37657c8"><use href="#z37657d8"/></clipPath>
	<clipPath id="z37657c9"><use href="#z37657d9"/></clipPath>
	<clipPath id="z37657c10"><use href="#z37657d10"/></clipPath>
	<clipPath id="z37657c11"><use href="#z37657d11"/></clipPath>
	<clipPath id="z37657c12"><use href="#z37657d12"/></clipPath>
	<clipPath id="z37657c13"><use href="#z37657d13"/></clipPath>
	<clipPath id="z37657c14"><use href="#z37657d14"/></clipPath>
	<clipPath id="z37657c15"><use href="#z37657d15"/></clipPath>
	<clipPath id="z37657c16"><use href="#z37657d16"/></clipPath>
</defs>
<path style="--d:1s;" pathLength="3333" clip-path="url(#z37657c1)" d="M285 86L327 150L190 373L45 536"/>
<path style="--d:2s;" pathLength="3333" clip-path="url(#z37657c2)" d="M327 204L417 249L436 286"/>
<path style="--d:3s;" pathLength="3333" clip-path="url(#z37657c3)" d="M192 425L403 376"/>
<path style="--d:4s;" pathLength="3333" clip-path="url(#z37657c4)" d="M166 557L411 501"/>
<path style="--d:5s;" pathLength="3333" clip-path="url(#z37657c5)" d="M280 433L311 464L301 748"/>
<path style="--d:6s;" pathLength="3333" clip-path="url(#z37657c6)" d="M160 638L234 717"/>
<path style="--d:7s;" pathLength="3333" clip-path="url(#z37657c7)" d="M397 579L410 615L363 666"/>
<path style="--d:8s;" pathLength="3333" clip-path="url(#z37657c8)" d="M78 802L141 822L437 705"/>
<path style="--d:9s;" pathLength="3333" clip-path="url(#z37657c9)" d="M523 157L557 200L462 385L530 440L546 482"/>
<path style="--d:10s;" pathLength="3333" clip-path="url(#z37657c10)" d="M671 141L706 183L615 359L694 462"/>
<path style="--d:11s;" pathLength="3333" clip-path="url(#z37657c11)" d="M812 106L843 168L749 336L851 437"/>
<path style="--d:12s;" pathLength="3333" clip-path="url(#z37657c12)" d="M462 545L492 575L532 828"/>
<path style="--d:13s;" pathLength="3333" clip-path="url(#z37657c13)" d="M510 559L811 518L860 543L814 874"/>
<path style="--d:14s;" pathLength="3333" clip-path="url(#z37657c14)" d="M634 564L661 601L655 778"/>
<path style="--d:15s;" pathLength="3333" clip-path="url(#z37657c15)" d="M567 673L755 655"/>
<path style="--d:16s;" pathLength="3333" clip-path="url(#z37657c16)" d="M540 810L787 779"/>
</svg>