<!--
AnimCJK 2016-2018 Copyright Francois Mizessyn, https://github.com/parsimonhi/animCJK
Derived from:
    MakeMeAHanzi project - https://github.com/skishore/makemeahanzi
    Arphic PL KaitiM GB - https://apps.ubuntu.com/cat/applications/precise/fonts-arphic-gkai00mp/
    Arphic PL UKai - https://apps.ubuntu.com/cat/applications/fonts-arphic-ukai/
You can redistribute and/or modify this file under the terms of the Arphic Public License
as published by Arphic Technology Co., Ltd.
You should have received a copy of this license (the directory "APL") along with this file;
if not, see http://ftp.gnu.org/non-gnu/chinese-fonts-truetype/LICENSE.
-->
<svg id="z37678" class="acjk" version="1.1" viewBox="0 0 1024 1024" xmlns="http://www.w3.org/2000/svg" xmlns:xlink="http://www.w3.org/1999/xlink">
<style>
<![CDATA[
@keyframes z37678k {
	from {
		stroke:#c00;
		stroke-dashoffset:3334;
	}
	75% {
		stroke:#c00;
		stroke-dashoffset:0;
	}
	to {
		stroke:#000;
	}
}
#z37678 path[clip-path] {
	animation:z37678k 1s linear both;
	stroke-dasharray:3334;
	stroke-width:128;
	stroke-linecap:round;
	fill:none;
}
#z37678 path[clip-path="url(#z37678c1)"] {animation-delay:1s;}
#z37678 path[clip-path="url(#z37678c2)"] {animation-delay:2s;}
#z37678 path[clip-path="url(#z37678c3)"] {animation-delay:3s;}
#z37678 path[clip-path="url(#z37678c4)"] {animation-delay:4s;}
#z37678 path[clip-path="url(#z37678c5)"] {animation-delay:5s;}
#z37678 path[clip-path="url(#z37678c6)"] {animation-delay:6s;}
#z37678 path[clip-path="url(#z37678c7)"] {animation-delay:7s;}
#z37678 path[clip-path="url(#z37678c8)"] {animation-delay:8s;}
#z37678 path[clip-path="url(#z37678c9)"] {animation-delay:9s;}
#z37678 path[clip-path="url(#z37678c10)"] {animation-delay:10s;}
#z37678 path[clip-path="url(#z37678c11)"] {animation-delay:11s;}
#z37678 path[clip-path="url(#z37678c12)"] {animation-delay:12s;}
#z37678 path[clip-path="url(#z37678c13)"] {animation-delay:13s;}
#z37678 path[clip-path="url(#z37678c14)"] {animation-delay:14s;}
#z37678 path[clip-path="url(#z37678c15)"] {animation-delay:15s;}
#z37678 path[clip-path="url(#z37678c16)"] {animation-delay:16s;}
#z37678 path {fill:#ccc;}
]]>
</style>
<path id="z37678d1" d="M341 170Q351 155 362 146Q371 136 366 122Q362 110 334 89Q309 71 290 72Q272 73 280 95Q295 128 283 156Q246 250 187 337Q132 422 54 514Q44 524 42 530Q39 540 53 538Q108 529 269 290Q288 257 311 221Q320 202 329 188L341 170 Z"/>
<path id="z37678d2" d="M329 188Q335 194 348 205Q372 223 397 246Q407 255 418 254Q425 253 429 244Q433 232 426 211Q417 187 344 170Q343 169 341 170L329 188 Z"/>
<path id="z37678d3" d="M315 419Q348 407 384 396Q403 389 406 386Q413 377 408 370Q401 360 373 357Q352 356 277 388Q247 397 216 405Q183 415 209 427Q236 437 277 432L315 419 Z"/>
<path id="z37678d4" d="M335 546Q360 536 390 528Q421 518 426 512Q433 505 428 498Q421 488 395 485Q370 482 336 499L288 520Q189 547 176 551Q145 560 169 572Q211 588 254 572Q270 566 289 561L335 546 Z"/>
<path id="z37678d5" d="M329 728Q332 628 335 546L336 499Q336 487 339 462Q345 441 315 419L277 432Q286 465 288 520L289 561Q289 625 289 741L329 728 Z"/>
<path id="z37678d6" d="M174 658Q217 713 228 716Q235 717 241 707Q247 697 244 673Q243 657 222 643Q171 615 160 618Q156 619 155 630Q156 639 174 658 Z"/>
<path id="z37678d7" d="M392 601Q385 623 366 660Q363 664 367 668Q371 669 376 665Q419 622 440 604Q450 600 446 593Q440 584 426 575Q413 566 398 568Q389 569 392 582Q396 589 392 601 Z"/>
<path id="z37678d8" d="M289 741Q225 759 155 780Q136 786 106 785Q93 786 91 797Q90 810 98 818Q120 834 154 852Q164 856 176 847Q213 819 255 799Q319 771 383 741Q407 731 425 717Q438 710 438 700Q432 694 420 697Q375 712 329 728L289 741 Z"/>
<path id="z37678d9" d="M505 266Q498 259 478 252Q469 248 458 251Q451 255 457 268Q460 280 465 291Q495 351 477 635Q473 677 461 725Q449 776 482 819Q492 832 502 820Q511 808 513 794L516 758Q517 731 518 694Q521 334 523 310Q524 301 524 295L505 266 Z"/>
<path id="z37678d10" d="M777 764Q810 807 834 846Q844 865 856 865Q874 864 891 827Q912 785 908 734Q898 592 894 327Q894 296 911 273Q921 260 912 250Q893 229 841 203Q822 193 806 202Q742 230 642 247Q551 263 505 266L524 295Q536 294 559 288Q587 282 616 277L651 271Q709 258 764 248Q801 241 820 256Q833 269 840 377Q844 480 838 614Q837 702 828 730Q824 752 803 742L777 764 Z"/>
<path id="z37678d11" d="M628 392Q594 399 557 406Q529 412 550 424Q580 440 626 430L664 420Q770 390 776 387Q783 380 779 373Q772 364 749 360Q724 356 670 379L628 392 Z"/>
<path id="z37678d12" d="M616 277Q629 325 630 343Q629 365 628 392L626 430Q622 472 618 518L649 510Q656 464 664 420L670 379Q673 346 682 324Q692 297 678 286Q663 276 651 271L616 277 Z"/>
<path id="z37678d13" d="M577 523Q567 519 549 517Q540 516 538 519Q534 523 540 535Q559 572 574 636Q575 655 588 668Q601 684 605 672Q606 665 607 653L604 626Q592 565 590 545L577 523 Z"/>
<path id="z37678d14" d="M618 518Q599 519 577 523L590 545Q590 544 675 527Q700 521 707 531Q710 534 698 596L738 604Q753 558 768 544Q786 525 768 513Q753 503 733 489Q718 480 703 488Q679 501 649 510L618 518 Z"/>
<path id="z37678d15" d="M607 653Q614 654 625 651Q662 641 744 627Q753 626 753 618Q753 612 738 604L698 596Q691 596 685 599Q640 615 604 626L607 653 Z"/>
<path id="z37678d16" d="M513 794Q595 775 777 764L803 742Q800 739 778 724Q762 714 731 721Q613 746 516 758L513 794 Z"/>
<defs>
	<clipPath id="z37678c1"><use xlink:href="#z37678d1"/></clipPath>
	<clipPath id="z37678c2"><use xlink:href="#z37678d2"/></clipPath>
	<clipPath id="z37678c3"><use xlink:href="#z37678d3"/></clipPath>
	<clipPath id="z37678c4"><use xlink:href="#z37678d4"/></clipPath>
	<clipPath id="z37678c5"><use xlink:href="#z37678d5"/></clipPath>
	<clipPath id="z37678c6"><use xlink:href="#z37678d6"/></clipPath>
	<clipPath id="z37678c7"><use xlink:href="#z37678d7"/></clipPath>
	<clipPath id="z37678c8"><use xlink:href="#z37678d8"/></clipPath>
	<clipPath id="z37678c9"><use xlink:href="#z37678d9"/></clipPath>
	<clipPath id="z37678c10"><use xlink:href="#z37678d10"/></clipPath>
	<clipPath id="z37678c11"><use xlink:href="#z37678d11"/></clipPath>
	<clipPath id="z37678c12"><use xlink:href="#z37678d12"/></clipPath>
	<clipPath id="z37678c13"><use xlink:href="#z37678d13"/></clipPath>
	<clipPath id="z37678c14"><use xlink:href="#z37678d14"/></clipPath>
	<clipPath id="z37678c15"><use xlink:href="#z37678d15"/></clipPath>
	<clipPath id="z37678c16"><use xlink:href="#z37678d16"/></clipPath>
</defs>
<path pathLength="3333" clip-path="url(#z37678c1)" d="M283 81L318 109L324 144L168 400L47 530"/>
<path pathLength="3333" clip-path="url(#z37678c2)" d="M336 186L422 247"/>
<path pathLength="3333" clip-path="url(#z37678c3)" d="M206 416L403 376"/>
<path pathLength="3333" clip-path="url(#z37678c4)" d="M164 561L426 503"/>
<path pathLength="3333" clip-path="url(#z37678c5)" d="M286 439L312 468L297 737"/>
<path pathLength="3333" clip-path="url(#z37678c6)" d="M162 623L236 709"/>
<path pathLength="3333" clip-path="url(#z37678c7)" d="M401 578L414 611L374 660"/>
<path pathLength="3333" clip-path="url(#z37678c8)" d="M95 800L159 816L431 702"/>
<path pathLength="3333" clip-path="url(#z37678c9)" d="M462 257L499 318L495 819"/>
<path pathLength="3333" clip-path="url(#z37678c10)" d="M513 268L809 224L872 271L868 741L841 813L785 760"/>
<path pathLength="3333" clip-path="url(#z37678c11)" d="M551 415L774 379"/>
<path pathLength="3333" clip-path="url(#z37678c12)" d="M624 280L656 312L625 512"/>
<path pathLength="3333" clip-path="url(#z37678c13)" d="M544 522L571 555L596 669"/>
<path pathLength="3333" clip-path="url(#z37678c14)" d="M588 528L719 508L741 537L716 599"/>
<path pathLength="3333" clip-path="url(#z37678c15)" d="M615 644L747 618"/>
<path pathLength="3333" clip-path="url(#z37678c16)" d="M520 786L796 741"/>
</svg>