<!--
AnimCJK 2016-2026 Copyright FM-SH, https://github.com/parsimonhi/animCJK
Derived from:
    MakeMeAHanzi project - https://github.com/skishore/makemeahanzi
    Arphic PL KaitiM GB font
    Arphic PL KaitiM Big5 font
You can redistribute and/or modify this file under the terms of the Arphic Public License
as published by Arphic Technology Co., Ltd.
You should have received a copy of this license along with this file.
If not, see https://ftp.gnu.org/non-gnu/chinese-fonts-truetype/LICENSE.
-->
<svg id="z37846" class="acjk" viewBox="0 0 1024 1024" xmlns="http://www.w3.org/2000/svg">
<style>
<![CDATA[
@keyframes zk {
	to {
		stroke-dashoffset:0;
	}
}
svg.acjk path[clip-path] {
	--t:0.8s;
	animation:zk var(--t) linear forwards var(--d);
	stroke-dasharray:3337;
	stroke-dashoffset:3339;
	stroke-width:128;
	stroke-linecap:round;
	fill:none;
	stroke:#000;
}
svg.acjk path[id] {fill:#ccc;}
]]>
</style>
<path id="z37846d1" d="M480 68C497 78 516 91 535 106C548 116 569 118 573 100C574 91 571 78 564 62C559 51 548 41 529 37C484 25 458 23 452 29C439 40 463 57 480 68Z"/>
<path id="z37846d2" d="M598 159C629 153 736 134 749 127C767 116 741 100 726 96C714 92 670 101 594 120C508 140 418 153 324 159C313 159 324 189 335 189C353 191 393 189 422 186C446 183 446 183 458 181C488 176 520 171 554 166C583 161 583 161 598 159Z"/>
<path id="z37846d3" d="M324 159C297 132 229 114 251 151C262 171 270 200 267 243C245 519 194 653 63 850C36 889 73 869 81 861C236 714 295 493 314 309C321 235 327 195 335 189C340 180 333 165 324 159Z"/>
<path id="z37846d4" d="M658 346C658 346 658 348 659 351C659 359 663 364 671 364C679 363 691 352 708 331C718 305 732 284 752 271C761 264 763 255 756 247C747 237 732 223 706 211C678 198 688 206 604 220C574 225 574 225 559 227C530 231 504 236 480 241C452 246 452 246 438 249C412 253 390 257 372 258C343 259 357 268 366 276C377 284 393 289 406 287C416 285 430 279 442 277C468 271 468 271 481 268C502 262 528 257 558 254C585 251 585 251 598 249C640 243 669 238 684 245C687 246 687 253 685 263C677 287 671 304 667 316C663 326 656 336 658 346Z"/>
<path id="z37846d5" d="M422 186C426 203 433 218 438 249C441 268 441 268 442 277C444 294 446 318 450 346C452 357 484 352 484 340C483 314 481 290 481 268C480 250 480 250 480 241C478 212 482 194 458 181C448 175 420 174 422 186Z"/>
<path id="z37846d6" d="M604 220C609 191 629 181 598 159C586 150 549 152 554 166C562 180 559 206 559 227C558 245 558 245 558 254C557 276 553 301 551 328C551 338 579 332 581 322C585 297 592 273 598 249C602 230 602 230 604 220Z"/>
<path id="z37846d7" d="M576 354C601 351 628 346 658 346C668 346 675 322 667 316C653 306 638 310 581 322C561 326 561 326 551 328C534 331 498 337 484 340C461 344 461 344 450 346C424 350 399 351 376 354C365 355 362 360 369 369C376 379 388 381 401 379C439 370 494 361 565 355C572 354 572 354 576 354Z"/>
<path id="z37846d8" d="M380 471C391 471 417 463 507 443C533 437 513 420 488 417C472 415 437 425 383 448C376 450 372 471 380 471Z"/>
<path id="z37846d9" d="M383 448C385 426 388 418 380 408C368 393 356 387 346 386C338 384 322 384 333 403C360 450 346 505 329 535C324 542 319 560 322 569C326 585 332 597 340 604C344 608 350 604 359 596C376 578 417 548 480 507C508 488 498 483 483 489C422 511 388 522 383 520C380 518 376 501 380 471C382 456 382 456 383 448Z"/>
<path id="z37846d10" d="M606 480C708 442 728 432 766 421C801 410 762 376 755 370C731 348 723 352 720 365C707 413 644 438 605 466C601 469 601 482 606 480Z"/>
<path id="z37846d11" d="M879 503C872 490 860 466 851 429C847 415 842 405 838 425C828 465 819 493 810 506C793 527 754 533 697 530C675 528 655 525 638 517C619 508 610 498 606 480C604 475 604 470 605 466C605 443 606 423 614 393C620 367 594 358 576 354C572 353 567 352 565 355C561 357 560 362 563 372C569 392 572 411 571 431C566 496 581 538 615 555C635 565 657 572 692 577C760 587 822 574 876 535C885 527 885 515 879 503Z"/>
<path id="z37846d12" d="M539 556C551 543 558 531 529 518C514 511 503 508 497 510C493 510 490 514 488 521C464 591 363 681 185 791C173 798 174 803 189 800C350 763 462 627 524 570C534 561 534 561 539 556Z"/>
<path id="z37846d13" d="M524 570Q554 600 756 726Q798 750 832 746Q896 736 960 707Q976 701 977 697Q977 690 963 688Q764 660 682 626Q643 610 603 590Q563 566 539 556C533 553 519 566 524 570Z"/>
<path id="z37846d14" d="M528 695C585 683 613 673 615 673C622 666 623 651 591 647C577 644 555 652 498 666C479 670 458 673 437 676C418 678 416 684 430 693C443 701 460 704 489 703C502 702 515 697 528 695Z"/>
<path id="z37846d15" d="M544 786C610 776 644 766 646 765C656 756 651 744 623 737C606 732 582 742 547 749C514 755 514 755 497 758C470 762 441 766 411 769C392 770 390 775 403 785C431 805 465 797 497 793C528 788 528 788 544 786Z"/>
<path id="z37846d16" d="M537 898C539 857 541 819 544 786C546 761 546 761 547 749C549 714 557 720 528 695C518 687 482 692 489 703C495 711 497 721 497 758C497 781 497 781 497 793C497 865 497 865 497 901C497 914 537 911 537 898Z"/>
<path id="z37846d17" d="M385 847C397 857 410 870 423 884C426 888 445 903 454 883C456 876 454 866 451 853C448 844 441 834 427 829C393 815 373 812 368 814C366 814 352 818 385 847Z"/>
<path id="z37846d18" d="M584 862C577 868 575 879 594 871C632 853 653 840 676 831C697 823 680 805 670 795C651 776 632 771 631 791C628 818 601 842 584 862Z"/>
<path id="z37846d19" d="M497 901C416 907 329 913 237 919C224 919 221 926 231 938C249 959 272 965 296 961C442 931 622 922 837 937C862 938 876 924 855 905C825 878 796 867 771 871C712 879 634 890 537 898C510 900 510 900 497 901Z"/>
<defs>
	<clipPath id="z37846c1"><use href="#z37846d1"/></clipPath>
	<clipPath id="z37846c2"><use href="#z37846d2"/></clipPath>
	<clipPath id="z37846c3"><use href="#z37846d3"/></clipPath>
	<clipPath id="z37846c4"><use href="#z37846d4"/></clipPath>
	<clipPath id="z37846c5"><use href="#z37846d5"/></clipPath>
	<clipPath id="z37846c6"><use href="#z37846d6"/></clipPath>
	<clipPath id="z37846c7"><use href="#z37846d7"/></clipPath>
	<clipPath id="z37846c8"><use href="#z37846d8"/></clipPath>
	<clipPath id="z37846c9"><use href="#z37846d9"/></clipPath>
	<clipPath id="z37846c10"><use href="#z37846d10"/></clipPath>
	<clipPath id="z37846c11"><use href="#z37846d11"/></clipPath>
	<clipPath id="z37846c12"><use href="#z37846d12"/></clipPath>
	<clipPath id="z37846c13"><use href="#z37846d13"/></clipPath>
	<clipPath id="z37846c14"><use href="#z37846d14"/></clipPath>
	<clipPath id="z37846c15"><use href="#z37846d15"/></clipPath>
	<clipPath id="z37846c16"><use href="#z37846d16"/></clipPath>
	<clipPath id="z37846c17"><use href="#z37846d17"/></clipPath>
	<clipPath id="z37846c18"><use href="#z37846d18"/></clipPath>
	<clipPath id="z37846c19"><use href="#z37846d19"/></clipPath>
</defs>
<path style="--d:1s;" pathLength="3333" clip-path="url(#z37846c1)" d="M452 35L534 69L567 107"/>
<path style="--d:2s;" pathLength="3333" clip-path="url(#z37846c2)" d="M325 167L749 112"/>
<path style="--d:3s;" pathLength="3333" clip-path="url(#z37846c3)" d="M254 137L300 186L256 493L190 676L60 867"/>
<path style="--d:4s;" pathLength="3333" clip-path="url(#z37846c4)" d="M364 265L681 224L720 268L665 357"/>
<path style="--d:5s;" pathLength="3333" clip-path="url(#z37846c5)" d="M427 183L454 211L464 350"/>
<path style="--d:6s;" pathLength="3333" clip-path="url(#z37846c6)" d="M562 161L586 198L560 326"/>
<path style="--d:7s;" pathLength="3333" clip-path="url(#z37846c7)" d="M372 360L667 328"/>
<path style="--d:8s;" pathLength="3333" clip-path="url(#z37846c8)" d="M385 462L512 430"/>
<path style="--d:9s;" pathLength="3333" clip-path="url(#z37846c9)" d="M336 391L364 421L366 561L489 491"/>
<path style="--d:10s;" pathLength="3333" clip-path="url(#z37846c10)" d="M730 357L743 400L606 472"/>
<path style="--d:11s;" pathLength="3333" clip-path="url(#z37846c11)" d="M570 358L591 391L597 509L658 547L760 554L827 531L850 503L843 424"/>
<path style="--d:12s;" pathLength="3333" clip-path="url(#z37846c12)" d="M498 514L510 548L402 660L185 795"/>
<path style="--d:13s;" pathLength="3333" clip-path="url(#z37846c13)" d="M528 567L784 697L971 697"/>
<path style="--d:14s;" pathLength="3333" clip-path="url(#z37846c14)" d="M429 683L613 663"/>
<path style="--d:15s;" pathLength="3333" clip-path="url(#z37846c15)" d="M402 777L646 756"/>
<path style="--d:16s;" pathLength="3333" clip-path="url(#z37846c16)" d="M498 702L523 735L518 907"/>
<path style="--d:17s;" pathLength="3333" clip-path="url(#z37846c17)" d="M370 819L447 885"/>
<path style="--d:18s;" pathLength="3333" clip-path="url(#z37846c18)" d="M641 782L653 819L585 867"/>
<path style="--d:19s;" pathLength="3333" clip-path="url(#z37846c19)" d="M234 926L290 938L772 901L861 917"/>
</svg>