<!--
AnimCJK 2016-2018 Copyright Francois Mizessyn, https://github.com/parsimonhi/animCJK
Derived from:
    MakeMeAHanzi project - https://github.com/skishore/makemeahanzi
    Arphic PL KaitiM GB - https://apps.ubuntu.com/cat/applications/precise/fonts-arphic-gkai00mp/
    Arphic PL UKai - https://apps.ubuntu.com/cat/applications/fonts-arphic-ukai/
You can redistribute and/or modify this file under the terms of the Arphic Public License
as published by Arphic Technology Co., Ltd.
You should have received a copy of this license (the directory "APL") along with this file;
if not, see http://ftp.gnu.org/non-gnu/chinese-fonts-truetype/LICENSE.
-->
<svg id="z37969" class="acjk" version="1.1" viewBox="0 0 1024 1024" xmlns="http://www.w3.org/2000/svg" xmlns:xlink="http://www.w3.org/1999/xlink">
<style>
<![CDATA[
@keyframes z37969k {
	from {
		stroke:#c00;
		stroke-dashoffset:3334;
	}
	75% {
		stroke:#c00;
		stroke-dashoffset:0;
	}
	to {
		stroke:#000;
	}
}
#z37969 path[clip-path] {
	animation:z37969k 1s linear both;
	stroke-dasharray:3334;
	stroke-width:128;
	stroke-linecap:round;
	fill:none;
}
#z37969 path[clip-path="url(#z37969c1)"] {animation-delay:1s;}
#z37969 path[clip-path="url(#z37969c2)"] {animation-delay:2s;}
#z37969 path[clip-path="url(#z37969c3)"] {animation-delay:3s;}
#z37969 path[clip-path="url(#z37969c4)"] {animation-delay:4s;}
#z37969 path[clip-path="url(#z37969c5)"] {animation-delay:5s;}
#z37969 path[clip-path="url(#z37969c6)"] {animation-delay:6s;}
#z37969 path[clip-path="url(#z37969c7)"] {animation-delay:7s;}
#z37969 path[clip-path="url(#z37969c8)"] {animation-delay:8s;}
#z37969 path[clip-path="url(#z37969c9)"] {animation-delay:9s;}
#z37969 path[clip-path="url(#z37969c10)"] {animation-delay:10s;}
#z37969 path[clip-path="url(#z37969c11)"] {animation-delay:11s;}
#z37969 path[clip-path="url(#z37969c12)"] {animation-delay:12s;}
#z37969 path[clip-path="url(#z37969c13)"] {animation-delay:13s;}
#z37969 path[clip-path="url(#z37969c14)"] {animation-delay:14s;}
#z37969 path[clip-path="url(#z37969c15)"] {animation-delay:15s;}
#z37969 path[clip-path="url(#z37969c16)"] {animation-delay:16s;}
#z37969 path[clip-path="url(#z37969c17)"] {animation-delay:17s;}
#z37969 path[clip-path="url(#z37969c18)"] {animation-delay:18s;}
#z37969 path[clip-path="url(#z37969c19)"] {animation-delay:19s;}
#z37969 path[clip-path="url(#z37969c20)"] {animation-delay:20s;}
#z37969 path[clip-path="url(#z37969c21)"] {animation-delay:21s;}
#z37969 path[clip-path="url(#z37969c22)"] {animation-delay:22s;}
#z37969 path[clip-path="url(#z37969c23)"] {animation-delay:23s;}
#z37969 path {fill:#ccc;}
]]>
</style>
<path id="z37969d1" d="M329 178Q345 150 362 135Q372 125 367 111Q363 98 334 77Q307 58 289 59Q270 60 278 83Q293 114 281 141Q245 232 189 315Q137 397 62 485Q52 495 50 502Q47 512 61 510Q113 501 265 284Q310 212 316 200L329 178 Z"/>
<path id="z37969d2" d="M316 200Q323 206 335 214Q366 236 399 263Q409 272 422 271Q429 270 433 260Q436 248 428 225Q416 194 329 178L316 200 Z"/>
<path id="z37969d3" d="M295 404Q329 392 369 381Q390 374 393 371Q400 364 395 357Q388 348 365 345Q341 342 270 373Q240 382 204 389Q176 396 197 408Q221 417 255 415L295 404 Z"/>
<path id="z37969d4" d="M317 524Q344 514 374 505Q402 495 406 491Q412 484 408 477Q401 468 377 465Q344 464 318 481L268 503Q229 515 183 525Q155 532 177 544Q213 559 256 544Q260 541 269 540L317 524 Z"/>
<path id="z37969d5" d="M313 690Q316 599 317 524L318 481Q318 466 320 449Q327 428 296 405L295 404L255 415Q264 448 268 503L269 540Q269 598 271 704L313 690 Z"/>
<path id="z37969d6" d="M145 615Q179 678 205 681Q218 684 226 667Q229 654 222 634Q215 619 195 610Q165 594 152 590Q143 587 141 598Q140 605 145 615 Z"/>
<path id="z37969d7" d="M364 569Q357 590 338 623Q335 629 339 632Q345 633 349 629Q392 590 415 575Q425 571 422 563Q418 553 402 543Q389 533 373 534Q363 535 366 548Q369 557 364 569 Z"/>
<path id="z37969d8" d="M271 704C234 715 196 727 157 741C146 745 131 747 112 747C103 748 98 752 98 759C97 768 100 775 106 779C120 789 138 800 160 810C166 812 173 810 181 804C199 788 262 754 368 701C382 695 398 685 406 679C412 673 417 667 417 660C414 658 408 657 400 658C371 668 342 679 313 690 Z"/>
<path id="z37969d9" d="M458 596C461 603 463 607 467 610C470 613 475 614 479 612C488 608 496 590 496 557C497 527 498 417 497 327C497 293 499 236 499 232C497 226 494 221 487 212C473 205 462 202 454 208C450 212 449 218 454 225C466 242 464 273 466 289C469 397 463 483 455 546C447 567 453 583 458 596 Z"/>
<path id="z37969d10" d="M530 236C519 236 508 234 499 232C496 226 494 221 487 212C486 212 486 212 486 212C499 208 539 200 557 195C597 177 626 169 645 169C660 171 670 175 675 181C678 186 678 191 674 195C672 197 664 200 652 204C630 210 609 217 590 223L563 232C552 235 541 236 530 236 Z"/>
<path id="z37969d11" d="M598 316C599 287 605 255 608 244C608 233 596 229 590 223L563 232C563 236 564 269 563 330 Z"/>
<path id="z37969d12" d="M656 423C667 391 679 370 691 360C703 346 703 335 690 327C682 321 664 311 653 304C642 298 631 298 621 304C614 308 606 312 598 316L563 330C547 335 520 342 496 347L496 369C498 369 533 361 600 344C616 340 626 341 630 347C632 350 631 358 627 372C623 386 619 401 614 417 Z"/>
<path id="z37969d13" d="M586 456C606 452 622 447 652 442C656 442 661 439 663 435C663 433 664 429 656 423L614 417C613 417 530 440 495 448L496 473C500 474 505 474 512 472C526 468 544 463 567 459 Z"/>
<path id="z37969d14" d="M597 540C598 519 603 485 606 478C608 466 597 457 590 455L567 459C566 459 566 460 567 460C570 475 568 495 565 546 Z"/>
<path id="z37969d15" d="M492 591L492 591C494 583 494 577 496 566C496 566 496 565 497 564C534 554 540 549 579 542C588 540 634 531 658 532C669 532 683 535 685 550C684 566 634 569 595 575C564 579 534 583 492 591 Z"/>
<path id="z37969d16" d="M757 349C772 319 799 263 817 213C823 191 831 173 839 160C843 152 843 145 839 138C834 132 822 124 804 114C786 108 771 106 761 108C750 112 749 120 757 130C781 162 757 262 684 428C679 435 676 441 676 445C676 452 679 454 687 450C699 444 718 418 746 370 Z"/>
<path id="z37969d17" d="M746 370Q791 388 839 371Q938 341 942 338Q949 329 944 322Q937 312 909 309Q897 308 812 336Q787 343 757 349L746 370 Z"/>
<path id="z37969d18" d="M780 483Q802 507 826 536Q838 549 852 551Q862 551 869 539Q875 526 870 496Q863 463 781 436Q766 432 760 433Q756 436 755 449Q756 459 780 483 Z"/>
<path id="z37969d19" d="M493 666Q484 662 466 660Q456 657 452 662Q448 668 455 682Q477 728 493 804Q494 823 505 838L533 835Q534 820 531 798Q518 720 515 695L493 666 Z"/>
<path id="z37969d20" d="M834 794Q858 703 882 669Q892 659 888 648Q881 632 823 607Q807 600 794 604Q658 638 493 666L515 695Q521 694 526 691Q550 684 576 679L600 673Q634 663 673 655L706 649Q770 628 794 641Q800 645 799 661Q790 721 770 805L834 794 Z"/>
<path id="z37969d21" d="M626 824Q633 772 604 681Q603 677 600 673L576 679Q576 790 600 827L626 824 Z"/>
<path id="z37969d22" d="M695 815Q696 808 700 800Q712 767 722 728Q726 710 737 686Q746 674 738 668Q728 658 706 649L673 655Q685 695 683 728Q680 765 669 819L695 815 Z"/>
<path id="z37969d23" d="M505 838C460 841 414 846 368 852C355 853 353 859 362 869C370 878 380 884 392 888C404 891 416 891 427 889C547 859 712 844 922 844C934 844 946 845 959 845C971 845 979 843 982 837C986 831 982 823 972 813C934 785 893 778 849 791C843 791 838 792 834 794L770 805C742 809 716 812 695 815L669 819C655 821 638 822 626 824L600 827C577 830 557 832 533 835 Z"/>
<defs>
	<clipPath id="z37969c1"><use xlink:href="#z37969d1"/></clipPath>
	<clipPath id="z37969c2"><use xlink:href="#z37969d2"/></clipPath>
	<clipPath id="z37969c3"><use xlink:href="#z37969d3"/></clipPath>
	<clipPath id="z37969c4"><use xlink:href="#z37969d4"/></clipPath>
	<clipPath id="z37969c5"><use xlink:href="#z37969d5"/></clipPath>
	<clipPath id="z37969c6"><use xlink:href="#z37969d6"/></clipPath>
	<clipPath id="z37969c7"><use xlink:href="#z37969d7"/></clipPath>
	<clipPath id="z37969c8"><use xlink:href="#z37969d8"/></clipPath>
	<clipPath id="z37969c9"><use xlink:href="#z37969d9"/></clipPath>
	<clipPath id="z37969c10"><use xlink:href="#z37969d10"/></clipPath>
	<clipPath id="z37969c11"><use xlink:href="#z37969d11"/></clipPath>
	<clipPath id="z37969c12"><use xlink:href="#z37969d12"/></clipPath>
	<clipPath id="z37969c13"><use xlink:href="#z37969d13"/></clipPath>
	<clipPath id="z37969c14"><use xlink:href="#z37969d14"/></clipPath>
	<clipPath id="z37969c15"><use xlink:href="#z37969d15"/></clipPath>
	<clipPath id="z37969c16"><use xlink:href="#z37969d16"/></clipPath>
	<clipPath id="z37969c17"><use xlink:href="#z37969d17"/></clipPath>
	<clipPath id="z37969c18"><use xlink:href="#z37969d18"/></clipPath>
	<clipPath id="z37969c19"><use xlink:href="#z37969d19"/></clipPath>
	<clipPath id="z37969c20"><use xlink:href="#z37969d20"/></clipPath>
	<clipPath id="z37969c21"><use xlink:href="#z37969d21"/></clipPath>
	<clipPath id="z37969c22"><use xlink:href="#z37969d22"/></clipPath>
	<clipPath id="z37969c23"><use xlink:href="#z37969d23"/></clipPath>
</defs>
<path pathLength="3333" clip-path="url(#z37969c1)" d="M284 69L327 124L180 366L57 504"/>
<path pathLength="3333" clip-path="url(#z37969c2)" d="M321 197L386 219L428 263"/>
<path pathLength="3333" clip-path="url(#z37969c3)" d="M197 399L392 361"/>
<path pathLength="3333" clip-path="url(#z37969c4)" d="M176 533L405 480"/>
<path pathLength="3333" clip-path="url(#z37969c5)" d="M262 421L293 455L284 698"/>
<path pathLength="3333" clip-path="url(#z37969c6)" d="M149 600L212 677"/>
<path pathLength="3333" clip-path="url(#z37969c7)" d="M372 538L390 576L344 623"/>
<path pathLength="3333" clip-path="url(#z37969c8)" d="M105 760L166 774L411 666"/>
<path pathLength="3333" clip-path="url(#z37969c9)" d="M461 212L482 280L473 607"/>
<path pathLength="3333" clip-path="url(#z37969c10)" d="M496 214L672 185"/>
<path pathLength="3333" clip-path="url(#z37969c11)" d="M592 227L577 323"/>
<path pathLength="3333" clip-path="url(#z37969c12)" d="M501 360L640 324L665 351L626 418"/>
<path pathLength="3333" clip-path="url(#z37969c13)" d="M503 465L657 435"/>
<path pathLength="3333" clip-path="url(#z37969c14)" d="M587 460L575 541"/>
<path pathLength="3333" clip-path="url(#z37969c15)" d="M500 583L680 546"/>
<path pathLength="3333" clip-path="url(#z37969c16)" d="M759 116L804 158L682 443"/>
<path pathLength="3333" clip-path="url(#z37969c17)" d="M752 366L940 327"/>
<path pathLength="3333" clip-path="url(#z37969c18)" d="M764 439L841 505L852 547"/>
<path pathLength="3333" clip-path="url(#z37969c19)" d="M459 670L493 708L519 836"/>
<path pathLength="3333" clip-path="url(#z37969c20)" d="M503 670L809 624L843 661L805 786L780 800"/>
<path pathLength="3333" clip-path="url(#z37969c21)" d="M596 680L611 823"/>
<path pathLength="3333" clip-path="url(#z37969c22)" d="M681 658L711 689L676 813"/>
<path pathLength="3333" clip-path="url(#z37969c23)" d="M363 857L420 868L879 814L979 832"/>
</svg>