<!--
AnimCJK 2016-2019 Copyright Francois Mizessyn - https://github.com/parsimonhi/animCJK
Derived from:
    MakeMeAHanzi project - https://github.com/skishore/makemeahanzi
    Arphic PL KaitiM GB font
    Arphic PL UKai font
You can redistribute and/or modify this file under the terms of the Arphic Public License
as published by Arphic Technology Co., Ltd.
You should have received a copy of this license along with this file.
If not, see http://ftp.gnu.org/non-gnu/chinese-fonts-truetype/LICENSE.
-->
<svg id="z38291" class="acjk" version="1.1" viewBox="0 0 1024 1024" xmlns="http://www.w3.org/2000/svg" xmlns:xlink="http://www.w3.org/1999/xlink">
<style>
<![CDATA[
@keyframes zk {
	to {
		stroke-dashoffset:0;
	}
}
svg.acjk path[clip-path] {
	--t:0.8s;
	animation:zk var(--t) linear forwards var(--d);
	stroke-dasharray:3337;
	stroke-dashoffset:3339;
	stroke-width:128;
	stroke-linecap:round;
	fill:none;
	stroke:#000;
}
svg.acjk path[id] {fill:#ccc;}
]]>
</style>
<path id="z38291d1" d="M246 169Q221 148 193 140Q183 137 176 147Q172 153 180 164Q225 269 203 558Q202 564 202 571Q195 662 166 750Q156 778 161 800Q171 837 183 851Q196 866 206 851Q239 817 244 660Q247 477 247 407C248 386 248 386 248 375Q249 338 251 308C252 285 252 285 253 273Q256 222 261 197C263 187 255 178 248 171C247 170 247 170 246 169Z"/>
<path id="z38291d2" d="M351 394Q352 395 355 400Q376 430 396 405Q408 390 414 343Q417 234 443 197Q455 179 441 166Q425 151 395 136Q380 130 365 137Q310 159 248 171C238 173 252 200 261 197Q261 196 264 196Q352 172 366 179Q373 183 373 211Q364 359 357 370C354 378 346 387 351 394Z"/>
<path id="z38291d3" d="M251 308Q293 298 326 292Q348 286 338 275Q326 262 302 261Q283 261 253 273C242 277 240 310 251 308Z"/>
<path id="z38291d4" d="M247 407C251 407 257 407 264 405C282 400 311 396 351 394C359 394 364 375 357 370C352 367 345 360 337 359C318 355 298 359 248 375C238 379 236 407 247 407Z"/>
<path id="z38291d5" d="M609 137Q585 119 561 110Q554 107 549 112Q542 116 549 128Q577 182 575 312Q572 370 604 398Q605 399 608 401Q624 408 627 379Q627 378 627 376C628 355 628 355 628 344Q624 295 622 275C621 254 621 254 621 244Q621 201 622 167C622 156 618 144 609 137Z"/>
<path id="z38291d6" d="M774 358Q786 785 762 821Q758 828 738 823Q711 817 684 810Q663 803 664 813Q722 865 753 903Q766 924 783 928Q793 932 801 922Q844 873 843 814Q828 597 824 245Q823 184 836 157Q849 136 836 125Q812 106 774 91Q753 84 707 109Q668 125 609 137C598 139 611 169 622 167Q631 167 729 141Q745 137 755 145Q770 158 769 204Q770 267 773 326C774 347 774 347 774 358Z"/>
<path id="z38291d7" d="M622 275Q683 265 728 257Q750 253 742 240Q730 225 704 223Q668 220 621 244C612 249 612 277 622 275Z"/>
<path id="z38291d8" d="M627 376Q634 377 644 375Q686 365 774 358C785 358 781 334 773 326Q772 325 768 322Q752 313 724 321Q670 336 628 344C617 346 616 376 627 376Z"/>
<path id="z38291d9" d="M396 475C383 468 366 464 357 464C350 466 348 471 352 478C378 532 367 611 357 675C354 689 347 705 361 734C362 738 366 741 370 746C375 752 380 755 385 752C391 747 400 732 403 713C406 696 406 696 407 687C408 674 409 649 409 611C409 592 409 592 409 583C409 541 409 514 411 502C413 492 405 480 396 475Z"/>
<path id="z38291d10" d="M521 702Q546 736 563 768Q570 784 581 784Q596 783 610 754Q628 720 626 679Q622 631 618 543Q618 516 633 498Q642 488 634 478Q618 460 574 438Q559 429 545 437Q512 450 396 475C386 477 401 504 411 502Q424 501 442 497Q550 478 559 483Q574 498 565 627Q565 669 557 683C553 696 513 691 521 702Z"/>
<path id="z38291d11" d="M409 611C441 606 473 601 505 596C520 593 523 586 517 579C510 570 498 564 482 563C449 560 425 567 409 583C402 590 400 613 409 611Z"/>
<path id="z38291d12" d="M413 713C453 708 502 701 521 702C535 702 567 693 557 683C550 674 539 668 523 664C505 662 466 669 407 687C399 690 394 713 403 713C410 713 410 713 413 713Z"/>
<defs>
	<clipPath id="z38291c1"><use xlink:href="#z38291d1"/></clipPath>
	<clipPath id="z38291c2"><use xlink:href="#z38291d2"/></clipPath>
	<clipPath id="z38291c3"><use xlink:href="#z38291d3"/></clipPath>
	<clipPath id="z38291c4"><use xlink:href="#z38291d4"/></clipPath>
	<clipPath id="z38291c5"><use xlink:href="#z38291d5"/></clipPath>
	<clipPath id="z38291c6"><use xlink:href="#z38291d6"/></clipPath>
	<clipPath id="z38291c7"><use xlink:href="#z38291d7"/></clipPath>
	<clipPath id="z38291c8"><use xlink:href="#z38291d8"/></clipPath>
	<clipPath id="z38291c9"><use xlink:href="#z38291d9"/></clipPath>
	<clipPath id="z38291c10"><use xlink:href="#z38291d10"/></clipPath>
	<clipPath id="z38291c11"><use xlink:href="#z38291d11"/></clipPath>
	<clipPath id="z38291c12"><use xlink:href="#z38291d12"/></clipPath>
</defs>
<path style="--d:1s;" pathLength="3333" clip-path="url(#z38291c1)" d="M183 149L227 199L229 272L222 608L188 852"/>
<path style="--d:2s;" pathLength="3333" clip-path="url(#z38291c2)" d="M256 175L374 157L409 188L367 409"/>
<path style="--d:3s;" pathLength="3333" clip-path="url(#z38291c3)" d="M257 299L336 280"/>
<path style="--d:4s;" pathLength="3333" clip-path="url(#z38291c4)" d="M252 399L352 376"/>
<path style="--d:5s;" pathLength="3333" clip-path="url(#z38291c5)" d="M552 117L592 166L610 397"/>
<path style="--d:6s;" pathLength="3333" clip-path="url(#z38291c6)" d="M617 143L759 115L804 157L805 815L770 876L670 813"/>
<path style="--d:7s;" pathLength="3333" clip-path="url(#z38291c7)" d="M626 267L736 245"/>
<path style="--d:8s;" pathLength="3333" clip-path="url(#z38291c8)" d="M633 368L771 345"/>
<path style="--d:9s;" pathLength="3333" clip-path="url(#z38291c9)" d="M357 469L388 509L378 745"/>
<path style="--d:10s;" pathLength="3333" clip-path="url(#z38291c10)" d="M404 479L550 458L600 492L593 681L562 735L568 773"/>
<path style="--d:11s;" pathLength="3333" clip-path="url(#z38291c11)" d="M413 603L515 582"/>
<path style="--d:12s;" pathLength="3333" clip-path="url(#z38291c12)" d="M411 705L548 680"/>
</svg>