<!--
AnimCJK 2016-2017 Copyright Francois Mizessyn, http://gooo.free.fr/animCJK/
Derived from:
    MakeMeAHanzi project - https://github.com/skishore/makemeahanzi
    Arphic PL KaitiM GB - https://apps.ubuntu.com/cat/applications/precise/fonts-arphic-gkai00mp/
    Arphic PL UKai - https://apps.ubuntu.com/cat/applications/fonts-arphic-ukai/
You can redistribute and/or modify this file under the terms of the Arphic Public License
as published by Arphic Technology Co., Ltd.
You should have received a copy of this license (the directory "APL") along with this file;
if not, see http://ftp.gnu.org/non-gnu/chinese-fonts-truetype/LICENSE.
-->
<svg id="z38309" class="acjk" version="1.1" viewBox="0 0 1024 1024" xmlns="http://www.w3.org/2000/svg" xmlns:xlink="http://www.w3.org/1999/xlink">
<style>
<![CDATA[
	@keyframes z38309k {
		from {
			stroke:#c00;
			stroke-dashoffset:3000;
		}
		75% {
			stroke:#c00;
			stroke-dashoffset:0;
		}
		to {
			stroke:#000;
		}
	}
	#z38309 path[clip-path] {
		animation:z38309k 1s linear both;
		stroke-dasharray:3000;
		stroke-width:128;
		stroke-linecap:round;
		fill:none;
	}
	#z38309 path[clip-path="url(#z38309c1)"] {animation-delay:1s;}
	#z38309 path[clip-path="url(#z38309c2)"] {animation-delay:2s;}
	#z38309 path[clip-path="url(#z38309c3)"] {animation-delay:3s;}
	#z38309 path[clip-path="url(#z38309c4)"] {animation-delay:4s;}
	#z38309 path[clip-path="url(#z38309c5)"] {animation-delay:5s;}
	#z38309 path[clip-path="url(#z38309c6)"] {animation-delay:6s;}
	#z38309 path[clip-path="url(#z38309c7)"] {animation-delay:7s;}
	#z38309 path[clip-path="url(#z38309c8)"] {animation-delay:8s;}
	#z38309 path[clip-path="url(#z38309c9)"] {animation-delay:9s;}
	#z38309 path[clip-path="url(#z38309c10)"] {animation-delay:10s;}
	#z38309 path[clip-path="url(#z38309c11)"] {animation-delay:11s;}
	#z38309 path[clip-path="url(#z38309c12)"] {animation-delay:12s;}
	#z38309 path[clip-path="url(#z38309c13)"] {animation-delay:13s;}
	#z38309 path[clip-path="url(#z38309c14)"] {animation-delay:14s;}
	#z38309 path {fill:#ccc;}
]]>
</style>
<g transform="scale(1,-1) translate(0,-900)">
	<path id="z38309d1" d="M250 722Q229 743 194 752Q184 753 178 745Q174 739 182 728Q242 587 203 258Q194 206 177 153Q170 125 174 105Q184 71 196 57Q208 42 218 57Q249 94 251 316Q251 394 252 474L252 506Q252 552 253 586L254 616Q255 671 259 695L250 722Z"/>
	<path id="z38309d2" d="M350 489Q351 488 355 483Q376 455 395 480Q404 492 412 537Q412 657 439 700Q451 716 437 731Q419 744 390 760Q375 764 361 758Q309 736 250 722L259 695Q259 696 319 713Q350 722 362 716Q371 712 370 682Q366 600 362 532Q361 516 352 509L350 489Z"/>
	<path id="z38309d3" d="M253 586Q298 592 330 598Q349 602 341 613Q331 626 308 628Q287 629 254 616L253 586Z"/>
	<path id="z38309d4" d="M252 474Q273 481 350 489L352 509Q345 515 333 521Q321 527 252 506L252 474Z"/>
	<path id="z38309d5" d="M635 792Q616 808 595 815Q589 818 585 814Q578 810 584 799Q609 750 604 630Q601 567 632 546Q645 542 649 564L651 594Q650 630 648 665L648 699Q648 732 651 759L635 792Z"/>
	<path id="z38309d6" d="M807 581Q828 118 804 71Q801 68 729 75Q707 82 708 71Q766 22 796 -15Q812 -34 829 -40Q839 -44 848 -33Q893 22 888 82Q870 305 860 670Q857 734 872 763Q885 785 872 796Q847 817 807 833Q786 840 770 833Q721 806 635 792L651 759Q661 759 676 762Q716 772 757 782Q776 785 786 773Q801 760 806 606L807 581Z"/>
	<path id="z38309d7" d="M648 665Q700 674 740 679Q762 683 754 696Q742 711 716 713Q694 714 652 701Q651 700 648 699L648 665Z"/>
	<path id="z38309d8" d="M649 564Q653 564 661 565Q707 575 807 581L806 606Q802 610 794 615Q779 622 753 616Q698 603 651 594L649 564Z"/>
	<path id="z38309d9" d="M383 337Q399 353 418 375Q430 391 440 398Q447 405 445 414Q444 424 425 441Q409 454 395 456Q382 455 387 440Q394 419 349 352Q328 322 298 288Q291 282 289 278Q286 271 296 272Q314 275 363 318L383 337Z"/>
	<path id="z38309d10" d="M363 318Q387 261 362 161Q350 124 379 93L380 92Q393 82 400 100Q410 128 410 160Q411 257 416 278Q420 297 414 304Q402 319 393 328Q389 334 383 337L363 318Z"/>
	<path id="z38309d11" d="M568 344Q638 377 640 378Q646 385 640 391Q633 400 609 400Q575 400 557 383L526 367Q471 346 452 340Q425 330 448 320Q487 308 536 331L537 331L568 344Z"/>
	<path id="z38309d12" d="M602 193Q629 145 690 104Q745 76 760 86Q773 93 769 120Q763 141 758 216Q758 231 754 234Q751 235 747 221Q726 167 713 158Q706 155 686 169Q652 194 631 220L608 254Q596 275 568 344L557 383Q542 446 550 483Q554 502 523 517Q498 530 485 526Q472 523 480 505Q499 478 506 447Q513 407 526 367L537 331Q549 282 582 225L602 193Z"/>
	<path id="z38309d13" d="M582 225Q549 192 470 149Q463 145 468 142Q472 138 482 140Q554 153 602 193L631 220Q653 242 679 278Q689 291 701 304Q708 310 706 319Q703 328 683 345Q670 357 661 357Q651 356 650 345Q646 302 608 254L582 225Z"/>
	<path id="z38309d14" d="M636 463Q655 450 675 432Q685 423 698 425Q707 426 709 436Q712 448 703 470Q694 491 628 499Q616 500 612 499Q608 495 610 485Q614 478 636 463Z"/>
	<defs>
		<clipPath id="z38309c1"><use xlink:href="#z38309d1"/></clipPath>
		<clipPath id="z38309c2"><use xlink:href="#z38309d2"/></clipPath>
		<clipPath id="z38309c3"><use xlink:href="#z38309d3"/></clipPath>
		<clipPath id="z38309c4"><use xlink:href="#z38309d4"/></clipPath>
		<clipPath id="z38309c5"><use xlink:href="#z38309d5"/></clipPath>
		<clipPath id="z38309c6"><use xlink:href="#z38309d6"/></clipPath>
		<clipPath id="z38309c7"><use xlink:href="#z38309d7"/></clipPath>
		<clipPath id="z38309c8"><use xlink:href="#z38309d8"/></clipPath>
		<clipPath id="z38309c9"><use xlink:href="#z38309d9"/></clipPath>
		<clipPath id="z38309c10"><use xlink:href="#z38309d10"/></clipPath>
		<clipPath id="z38309c11"><use xlink:href="#z38309d11"/></clipPath>
		<clipPath id="z38309c12"><use xlink:href="#z38309d12"/></clipPath>
		<clipPath id="z38309c13"><use xlink:href="#z38309d13"/></clipPath>
		<clipPath id="z38309c14"><use xlink:href="#z38309d14"/></clipPath>
	</defs>
	<path pathLength="2999" clip-path="url(#z38309c1)" d="M183 746L224 704L234 572L207 57"/>
	<path pathLength="2999" clip-path="url(#z38309c2)" d="M257 718L371 739L404 712L366 477"/>
	<path pathLength="2999" clip-path="url(#z38309c3)" d="M259 595L338 609"/>
	<path pathLength="2999" clip-path="url(#z38309c4)" d="M259 483L347 504"/>
	<path pathLength="2999" clip-path="url(#z38309c5)" d="M588 810L625 752L630 551"/>
	<path pathLength="2999" clip-path="url(#z38309c6)" d="M645 789L779 809L835 772L847 68L820 11L719 71"/>
	<path pathLength="2999" clip-path="url(#z38309c7)" d="M656 674L748 691"/>
	<path pathLength="2999" clip-path="url(#z38309c8)" d="M657 572L803 593"/>
	<path pathLength="2999" clip-path="url(#z38309c9)" d="M394 445L412 404L299 279"/>
	<path pathLength="2999" clip-path="url(#z38309c10)" d="M378 326L395 283L387 93"/>
	<path pathLength="2999" clip-path="url(#z38309c11)" d="M447 329L637 391"/>
	<path pathLength="2999" clip-path="url(#z38309c12)" d="M482 519L523 484L554 332L635 182L690 135L740 125L753 224"/>
	<path pathLength="2999" clip-path="url(#z38309c13)" d="M661 354L674 314L623 241L476 146"/>
	<path pathLength="2999" clip-path="url(#z38309c14)" d="M616 492L696 431"/>
</g>
</svg>