<!--
AnimCJK 2016-2025 Copyright FM-SH - https://github.com/parsimonhi/animCJK
Derived from:
    MakeMeAHanzi project - https://github.com/skishore/makemeahanzi
    Arphic PL KaitiM GB font
    Arphic PL UKai font
You can redistribute and/or modify this file under the terms of the Arphic Public License
as published by Arphic Technology Co., Ltd.
You should have received a copy of this license along with this file.
If not, see https://ftp.gnu.org/non-gnu/chinese-fonts-truetype/LICENSE.
-->
<svg id="z38358" class="acjk" viewBox="0 0 1024 1024" xmlns="http://www.w3.org/2000/svg">
<style>
<![CDATA[
@keyframes zk {
	to {
		stroke-dashoffset:0;
	}
}
svg.acjk path[clip-path] {
	--t:0.8s;
	animation:zk var(--t) linear forwards var(--d);
	stroke-dasharray:3337;
	stroke-dashoffset:3339;
	stroke-width:128;
	stroke-linecap:round;
	fill:none;
	stroke:#000;
}
svg.acjk path[id] {fill:#ccc;}
]]>
</style>
<path id="z38358d1" d="M247 147C232 134 216 123 198 120C179 116 180 130 186 143C208 192 214 244 215 295C217 501 204 655 171 759C165 777 163 792 167 806C173 830 180 846 188 855C196 864 202 864 210 855C231 829 244 765 247 660C248 595 249 531 250 468C250 431 251 398 251 368C251 351 251 351 251 343C251 318 252 296 254 277C255 258 255 258 256 249C257 223 261 185 263 171C265 162 255 153 247 147Z"/>
<path id="z38358d2" d="M353 350C365 368 378 369 391 354C399 344 407 317 412 273C417 223 425 188 439 169C446 158 446 147 438 139C428 129 413 119 395 110C386 105 376 107 367 111C330 125 290 137 247 147C238 149 254 173 263 171C325 155 347 147 360 148C374 149 373 170 373 178C365 268 359 316 355 321C351 330 347 342 353 350Z"/>
<path id="z38358d3" d="M254 277C286 269 314 262 339 257C351 254 355 248 350 242C343 234 332 230 318 230C296 229 275 236 256 249C248 254 245 279 254 277Z"/>
<path id="z38358d4" d="M251 368C283 360 322 354 353 350C363 348 365 323 355 321C325 313 270 334 251 343C243 346 243 370 251 368Z"/>
<path id="z38358d5" d="M620 91C609 83 598 76 587 73C573 68 572 81 576 89C590 118 598 171 596 246C594 288 601 319 624 330C636 335 641 313 642 305C642 295 643 286 643 277C640 251 640 235 640 212C640 195 640 195 640 187C640 164 644 142 644 122C644 109 630 99 620 91Z"/>
<path id="z38358d6" d="M799 298C811 641 805 831 786 864C783 868 757 865 712 857C681 851 697 865 709 877C738 902 761 924 778 945C787 956 796 965 808 969C814 971 821 970 827 963C855 924 868 887 867 854C857 691 851 477 849 212C848 171 852 141 863 124C871 109 871 99 863 92C848 78 827 65 801 55C788 50 776 49 766 54C727 71 679 85 620 91C607 94 631 125 644 122C664 117 719 107 752 103C764 101 772 106 779 113C788 123 794 145 795 179C795 209 796 239 798 270C799 289 799 289 799 298Z"/>
<path id="z38358d7" d="M640 212C674 208 705 204 733 200C745 198 749 193 745 186C739 177 728 173 715 171C692 167 668 172 640 187C632 190 632 214 640 212Z"/>
<path id="z38358d8" d="M642 305C695 302 751 298 799 298C808 298 806 275 798 270C751 245 677 269 643 277C634 279 633 305 642 305Z"/>
<path id="z38358d9" d="M428 419C412 403 396 393 382 393C368 392 369 404 375 413C389 433 390 485 383 563C379 601 371 623 371 631C369 640 373 650 379 658C391 673 408 674 415 659C419 647 418 633 419 621C423 556 423 456 435 440C438 433 434 423 428 419Z"/>
<path id="z38358d10" d="M545 428C604 415 633 404 635 404C640 400 640 396 638 392C635 387 627 382 613 379C598 375 584 378 571 384C527 402 480 410 428 419C421 420 428 439 435 440C447 442 472 443 507 436C532 431 532 431 545 428Z"/>
<path id="z38358d11" d="M545 534C545 520 546 507 548 496C550 475 550 475 551 465C553 435 560 441 545 428C535 420 505 423 507 436C509 447 509 456 509 477C509 494 509 494 509 503C509 531 509 531 509 545C509 562 509 562 509 570C509 595 509 595 509 607C509 618 541 613 541 602C541 589 542 576 543 564C544 544 544 544 545 534Z"/>
<path id="z38358d12" d="M548 496C566 492 584 489 602 486C612 483 616 478 613 473C608 466 599 461 587 460C578 458 566 460 551 465C523 473 523 473 509 477C492 481 476 486 461 491C453 493 453 498 464 505C465 506 481 507 509 503C535 498 535 498 548 496Z"/>
<path id="z38358d13" d="M543 564C565 560 586 556 606 553C616 551 620 546 617 541C612 534 603 529 591 528C580 526 564 527 545 534C521 541 521 541 509 545C488 551 470 555 453 560C445 561 445 565 456 573C456 573 474 576 509 570C532 566 532 566 543 564Z"/>
<path id="z38358d14" d="M415 659C437 643 493 629 584 620C605 617 655 609 654 641C652 664 653 673 645 724C640 752 633 773 627 784C621 793 613 795 604 793C591 789 577 785 564 781C540 772 548 782 557 793C587 828 599 853 602 865C603 869 607 872 612 873C619 873 632 867 648 852C662 837 676 809 683 767C696 683 705 638 717 631C721 627 722 623 722 620C722 617 714 610 698 598C667 574 661 584 643 587C608 592 571 597 541 602C520 605 520 605 509 607C482 611 436 616 419 621C407 623 405 667 415 659Z"/>
<path id="z38358d15" d="M318 688C312 716 305 744 296 771C289 788 293 805 305 820C311 827 318 828 327 819C347 796 352 765 347 725C344 708 342 694 336 684C333 679 330 678 326 679C322 679 318 682 318 688Z"/>
<path id="z38358d16" d="M393 711C401 751 410 774 420 780C424 782 430 782 436 776C439 771 442 764 442 755C441 734 427 715 404 697C401 694 398 695 395 700C392 702 392 706 393 711Z"/>
<path id="z38358d17" d="M478 697C485 729 494 747 503 752C507 754 514 753 520 747C523 742 525 734 525 724C525 717 519 710 512 703C501 692 493 684 489 681C485 678 481 679 479 684C477 686 476 691 478 697Z"/>
<path id="z38358d18" d="M562 692C576 717 584 733 592 735C594 735 598 735 602 731C605 726 607 718 608 707C608 699 594 684 567 666C562 662 558 661 556 662C553 662 551 665 551 670C550 674 556 681 562 692Z"/>
<defs>
	<clipPath id="z38358c1"><use href="#z38358d1"/></clipPath>
	<clipPath id="z38358c2"><use href="#z38358d2"/></clipPath>
	<clipPath id="z38358c3"><use href="#z38358d3"/></clipPath>
	<clipPath id="z38358c4"><use href="#z38358d4"/></clipPath>
	<clipPath id="z38358c5"><use href="#z38358d5"/></clipPath>
	<clipPath id="z38358c6"><use href="#z38358d6"/></clipPath>
	<clipPath id="z38358c7"><use href="#z38358d7"/></clipPath>
	<clipPath id="z38358c8"><use href="#z38358d8"/></clipPath>
	<clipPath id="z38358c9"><use href="#z38358d9"/></clipPath>
	<clipPath id="z38358c10"><use href="#z38358d10"/></clipPath>
	<clipPath id="z38358c11"><use href="#z38358d11"/></clipPath>
	<clipPath id="z38358c12"><use href="#z38358d12"/></clipPath>
	<clipPath id="z38358c13"><use href="#z38358d13"/></clipPath>
	<clipPath id="z38358c14"><use href="#z38358d14"/></clipPath>
	<clipPath id="z38358c15"><use href="#z38358d15"/></clipPath>
	<clipPath id="z38358c16"><use href="#z38358d16"/></clipPath>
	<clipPath id="z38358c17"><use href="#z38358d17"/></clipPath>
	<clipPath id="z38358c18"><use href="#z38358d18"/></clipPath>
</defs>
<path style="--d:1s;" pathLength="3333" clip-path="url(#z38358c1)" d="M188 127L231 172L234 236L200 857"/>
<path style="--d:2s;" pathLength="3333" clip-path="url(#z38358c2)" d="M251 154L370 128L406 153L372 359"/>
<path style="--d:3s;" pathLength="3333" clip-path="url(#z38358c3)" d="M257 267L342 246"/>
<path style="--d:4s;" pathLength="3333" clip-path="url(#z38358c4)" d="M250 358L357 339"/>
<path style="--d:5s;" pathLength="3333" clip-path="url(#z38358c5)" d="M582 79L616 123L625 326"/>
<path style="--d:6s;" pathLength="3333" clip-path="url(#z38358c6)" d="M623 96L776 78L827 116L829 856L802 917L704 862"/>
<path style="--d:7s;" pathLength="3333" clip-path="url(#z38358c7)" d="M640 202L741 189"/>
<path style="--d:8s;" pathLength="3333" clip-path="url(#z38358c8)" d="M639 294L802 286"/>
<path style="--d:9s;" pathLength="3333" clip-path="url(#z38358c9)" d="M379 400L410 441L397 666"/>
<path style="--d:10s;" pathLength="3333" clip-path="url(#z38358c10)" d="M431 424L632 395"/>
<path style="--d:11s;" pathLength="3333" clip-path="url(#z38358c11)" d="M523 426L527 609"/>
<path style="--d:12s;" pathLength="3333" clip-path="url(#z38358c12)" d="M463 497L609 476"/>
<path style="--d:13s;" pathLength="3333" clip-path="url(#z38358c13)" d="M461 566L611 545"/>
<path style="--d:14s;" pathLength="3333" clip-path="url(#z38358c14)" d="M411 652L500 619L671 610L687 626L641 812L612 833L556 784"/>
<path style="--d:15s;" pathLength="3333" clip-path="url(#z38358c15)" d="M325 686L310 820"/>
<path style="--d:16s;" pathLength="3333" clip-path="url(#z38358c16)" d="M401 703L425 776"/>
<path style="--d:17s;" pathLength="3333" clip-path="url(#z38358c17)" d="M484 685L510 748"/>
<path style="--d:18s;" pathLength="3333" clip-path="url(#z38358c18)" d="M558 669L593 731"/>
</svg>