<!--
AnimCJK 2016-2019 Copyright Francois Mizessyn - https://github.com/parsimonhi/animCJK
Derived from:
    MakeMeAHanzi project - https://github.com/skishore/makemeahanzi
    Arphic PL KaitiM GB font
    Arphic PL UKai font
You can redistribute and/or modify this file under the terms of the Arphic Public License
as published by Arphic Technology Co., Ltd.
You should have received a copy of this license along with this file.
If not, see http://ftp.gnu.org/non-gnu/chinese-fonts-truetype/LICENSE.
-->
<svg id="z38442" class="acjk" version="1.1" viewBox="0 0 1024 1024" xmlns="http://www.w3.org/2000/svg" xmlns:xlink="http://www.w3.org/1999/xlink">
<style>
<![CDATA[
@keyframes zk {
	to {
		stroke-dashoffset:0;
	}
}
svg.acjk path[clip-path] {
	--t:0.8s;
	animation:zk var(--t) linear forwards var(--d);
	stroke-dasharray:3337;
	stroke-dashoffset:3339;
	stroke-width:128;
	stroke-linecap:round;
	fill:none;
	stroke:#000;
}
svg.acjk path[id] {fill:#ccc;}
]]>
</style>
<path id="z38442d1" d="M309 357C312 336 344 280 398 227C410 219 413 210 407 201C398 189 381 176 356 163C342 157 330 159 320 167C286 192 244 211 196 224C185 226 194 257 205 255C233 249 261 239 290 226C302 220 312 220 320 226C324 231 322 240 316 252C289 311 275 350 275 368C275 380 307 369 309 357Z"/>
<path id="z38442d2" d="M318 489C313 496 304 498 291 495C273 493 254 491 236 489C220 489 220 493 238 503C272 522 304 543 334 567C342 576 351 576 361 568C369 562 376 550 382 534C392 496 379 449 335 398C318 380 310 371 309 357C307 345 275 356 275 368C274 379 280 385 285 391C310 437 328 477 318 489Z"/>
<path id="z38442d3" d="M196 224C190 212 170 201 137 192C130 191 124 194 120 200C117 204 119 209 125 217C153 281 164 404 158 585C151 681 139 755 123 807C118 825 117 842 120 857C126 881 134 898 143 907C151 917 159 917 166 907C188 879 199 814 200 714C196 466 197 313 205 255C207 244 202 233 196 224Z"/>
<path id="z38442d4" d="M525 274C552 276 591 266 645 252C744 224 795 207 801 202C806 196 807 191 804 186C799 178 787 171 767 168C747 165 727 169 708 179C653 204 570 228 507 239C494 241 512 274 525 274Z"/>
<path id="z38442d5" d="M505 440C512 400 512 354 518 305C520 282 524 278 525 274C530 262 518 246 507 239C475 221 456 216 446 218C433 220 433 228 442 244C461 279 467 372 442 516C431 574 420 594 402 637C379 686 339 736 281 784C270 793 263 798 262 803C260 807 264 809 272 810C296 811 336 789 386 738C465 655 478 583 502 456C504 445 504 445 505 440Z"/>
<path id="z38442d6" d="M684 665C713 619 736 557 753 482C757 460 765 443 777 432C786 422 784 411 773 403C760 393 743 385 721 378C707 373 693 376 680 384C639 407 590 424 532 433C519 434 514 437 505 440C500 442 497 454 502 456C515 464 542 463 567 456C602 444 639 437 675 427C688 423 695 427 696 443C697 497 687 562 649 628C634 653 634 653 627 666C591 727 511 769 407 806C398 809 396 813 403 818C407 821 419 820 437 818C499 809 548 795 584 774C610 758 636 737 656 708C675 679 675 679 684 665Z"/>
<path id="z38442d7" d="M656 708C716 795 764 836 790 839C844 844 894 846 939 844C963 842 973 839 972 833C971 830 961 823 940 814C830 768 748 724 696 676C691 672 687 668 684 665C661 640 661 640 649 628C631 609 615 589 598 567C577 540 555 526 533 524C522 522 515 522 513 526C510 529 514 536 524 544C547 562 583 602 627 666C646 694 646 694 656 708Z"/>
<defs>
	<clipPath id="z38442c1"><use xlink:href="#z38442d1"/></clipPath>
	<clipPath id="z38442c2"><use xlink:href="#z38442d2"/></clipPath>
	<clipPath id="z38442c3"><use xlink:href="#z38442d3"/></clipPath>
	<clipPath id="z38442c4"><use xlink:href="#z38442d4"/></clipPath>
	<clipPath id="z38442c5"><use xlink:href="#z38442d5"/></clipPath>
	<clipPath id="z38442c6"><use xlink:href="#z38442d6"/></clipPath>
	<clipPath id="z38442c7"><use xlink:href="#z38442d7"/></clipPath>
</defs>
<path style="--d:1s;" pathLength="3333" clip-path="url(#z38442c1)" d="M208 247L326 192L364 218L281 359"/>
<path style="--d:2s;" pathLength="3333" clip-path="url(#z38442c2)" d="M307 358L349 471L346 519L325 534L233 492"/>
<path style="--d:3s;" pathLength="3333" clip-path="url(#z38442c3)" d="M125 200L173 263L178 603L153 909"/>
<path style="--d:4s;" pathLength="3333" clip-path="url(#z38442c4)" d="M515 241L570 248L801 190"/>
<path style="--d:5s;" pathLength="3333" clip-path="url(#z38442c5)" d="M443 229L488 277L451 575L386 706L272 802"/>
<path style="--d:6s;" pathLength="3333" clip-path="url(#z38442c6)" d="M509 450L714 408L739 433L711 535L673 635L607 724L502 787L407 810"/>
<path style="--d:7s;" pathLength="3333" clip-path="url(#z38442c7)" d="M522 529L771 780L965 833"/>
</svg>