<!--
AnimCJK 2016-2017 Copyright Francois Mizessyn, http://gooo.free.fr/animCJK/
Derived from:
    MakeMeAHanzi project - https://github.com/skishore/makemeahanzi
    Arphic PL KaitiM GB - https://apps.ubuntu.com/cat/applications/precise/fonts-arphic-gkai00mp/
    Arphic PL UKai - https://apps.ubuntu.com/cat/applications/fonts-arphic-ukai/
You can redistribute and/or modify this file under the terms of the Arphic Public License
as published by Arphic Technology Co., Ltd.
You should have received a copy of this license (the directory "APL") along with this file;
if not, see http://ftp.gnu.org/non-gnu/chinese-fonts-truetype/LICENSE.
-->
<svg id="z38519" class="acjk" version="1.1" viewBox="0 0 1024 1024" xmlns="http://www.w3.org/2000/svg" xmlns:xlink="http://www.w3.org/1999/xlink">
<style>
<![CDATA[
@keyframes z38519k {
	from {
		stroke:#c00;
		stroke-dashoffset:3334;
	}
	75% {
		stroke:#c00;
		stroke-dashoffset:0;
	}
	to {
		stroke:#000;
	}
}
#z38519 path[clip-path] {
	animation:z38519k 1s linear both;
	stroke-dasharray:3334;
	stroke-width:128;
	stroke-linecap:round;
	fill:none;
}
#z38519 path[clip-path="url(#z38519c1)"] {animation-delay:1s;}
#z38519 path[clip-path="url(#z38519c2)"] {animation-delay:2s;}
#z38519 path[clip-path="url(#z38519c3)"] {animation-delay:3s;}
#z38519 path[clip-path="url(#z38519c4)"] {animation-delay:4s;}
#z38519 path[clip-path="url(#z38519c5)"] {animation-delay:5s;}
#z38519 path[clip-path="url(#z38519c6)"] {animation-delay:6s;}
#z38519 path[clip-path="url(#z38519c7)"] {animation-delay:7s;}
#z38519 path[clip-path="url(#z38519c8)"] {animation-delay:8s;}
#z38519 path[clip-path="url(#z38519c9)"] {animation-delay:9s;}
#z38519 path[clip-path="url(#z38519c10)"] {animation-delay:10s;}
#z38519 path[clip-path="url(#z38519c11)"] {animation-delay:11s;}
#z38519 path {fill:#ccc;}
]]>
</style>
<path id="z38519d1" d="M 217,262 C 243,257 271,250 299,238 311,232 319,232 326,240 329,244 328,251 323,263 311,287 302,312 292,336 288,344 285,351 285,358 L 322,352 C 322,344 325,338 330,332 363,284 387,254 405,244 419,235 422,226 416,218 407,205 390,191 365,178 351,171 339,173 329,181 292,207 251,223 206,230 Z"/>
<path id="z38519d2" d="M 285,358 C 285,366 288,373 293,380 329,435 341,469 330,482 325,487 316,490 303,488 285,485 266,485 248,485 232,485 233,488 251,498 283,516 316,535 346,559 355,566 362,566 372,559 380,552 387,542 393,527 397,512 394,492 385,466 374,436 359,410 339,388 327,375 322,362 322,352 Z"/>
<path id="z38519d3" d="M206 230Q205 229 203 228Q178 209 149 200Q139 199 132 208Q128 214 137 225Q165 298 166 363Q178 645 135 787Q128 815 132 837Q142 874 155 887Q168 902 178 887Q208 845 210 654Q210 315 217 262L206 230 Z"/>
<path id="z38519d4" d="M598 256Q652 172 670 156Q679 146 675 132Q671 119 642 96Q615 78 597 79Q578 80 586 102Q598 124 589 144Q565 211 527 272Q490 332 439 398Q429 408 426 414Q423 424 437 422Q476 418 588 270L598 256 Z"/>
<path id="z38519d5" d="M588 270Q604 286 675 276Q720 263 724 269Q728 273 722 286Q670 388 637 435Q625 454 623 463Q620 473 634 468Q650 459 728 366Q776 308 823 274Q842 264 830 249Q815 236 777 214Q761 208 745 218Q735 222 654 247Q629 254 598 256L588 270 Z"/>
<path id="z38519d6" d="M456 579Q480 567 542 527Q558 514 579 506Q597 499 589 484Q579 469 557 456Q538 444 527 446Q517 447 519 458Q522 482 478 528Q462 546 443 566L456 579 Z"/>
<path id="z38519d7" d="M482 824Q479 781 469 711L466 683Q457 610 457 590Q457 583 456 579L443 566Q430 560 405 554Q393 550 389 555Q382 561 390 577Q421 664 431 801Q432 843 453 871Q469 895 475 879Q478 870 480 859L482 824 Z"/>
<path id="z38519d8" d="M469 711Q542 695 596 687Q618 683 609 671Q599 658 575 654Q539 651 466 683L469 711 Z"/>
<path id="z38519d9" d="M 753,841 C 759,855 769,877 782,905 786,915 792,921 799,920 807,918 814,909 822,894 844,849 856,795 862,734 865,695 870,653 876,610 879,581 889,557 904,541 914,529 917,520 910,512 898,498 877,486 851,472 840,465 824,464 805,471 786,477 765,484 742,489 720,493 692,496 659,498 654,498 650,497 649,501 647,505 650,511 658,516 671,525 690,533 714,531 776,524 810,517 817,522 833,532 825,576 820,637 L 817,671 C 813,711 804,753 796,797 793,810 790,818 784,820 782,820 777,819 771,817 Z"/>
<path id="z38519d10" d="M820 637Q807 624 670 655Q666 655 664 656Q648 659 666 674Q673 681 691 680Q760 674 817 671L820 637 Z"/>
<path id="z38519d11" d="M771 817Q738 784 698 794Q578 816 482 824L480 859Q490 862 506 860Q585 845 753 841L771 817 Z"/>
<defs>
	<clipPath id="z38519c1"><use xlink:href="#z38519d1"/></clipPath>
	<clipPath id="z38519c2"><use xlink:href="#z38519d2"/></clipPath>
	<clipPath id="z38519c3"><use xlink:href="#z38519d3"/></clipPath>
	<clipPath id="z38519c4"><use xlink:href="#z38519d4"/></clipPath>
	<clipPath id="z38519c5"><use xlink:href="#z38519d5"/></clipPath>
	<clipPath id="z38519c6"><use xlink:href="#z38519d6"/></clipPath>
	<clipPath id="z38519c7"><use xlink:href="#z38519d7"/></clipPath>
	<clipPath id="z38519c8"><use xlink:href="#z38519d8"/></clipPath>
	<clipPath id="z38519c9"><use xlink:href="#z38519d9"/></clipPath>
	<clipPath id="z38519c10"><use xlink:href="#z38519d10"/></clipPath>
	<clipPath id="z38519c11"><use xlink:href="#z38519d11"/></clipPath>
</defs>
<path pathLength="3333" clip-path="url(#z38519c1)" d="M 215,235 337,205 373,239 304,347"/>
<path pathLength="3333" clip-path="url(#z38519c2)" d="M 304,368 355,452 358,511 342,525 248,490"/>
<path pathLength="3333" clip-path="url(#z38519c3)" d="M138 209L177 244L187 293L166 889"/>
<path pathLength="3333" clip-path="url(#z38519c4)" d="M591 87L633 143L529 310L432 416"/>
<path pathLength="3333" clip-path="url(#z38519c5)" d="M596 268L744 242L780 265L630 463"/>
<path pathLength="3333" clip-path="url(#z38519c6)" d="M583 492L534 486L451 573"/>
<path pathLength="3333" clip-path="url(#z38519c7)" d="M394 563L426 590L467 877"/>
<path pathLength="3333" clip-path="url(#z38519c8)" d="M475 703L605 671"/>
<path pathLength="3333" clip-path="url(#z38519c9)" d="M658 506L824 493L868 540L822 811L789 865L794 916"/>
<path pathLength="3333" clip-path="url(#z38519c10)" d="M666 662L818 652"/>
<path pathLength="3333" clip-path="url(#z38519c11)" d="M486 852L762 817"/>
</svg>