<!--
AnimCJK 2016-2017 Copyright Francois Mizessyn, http://gooo.free.fr/animCJK/
Derived from:
    MakeMeAHanzi project - https://github.com/skishore/makemeahanzi
    Arphic PL KaitiM GB - https://apps.ubuntu.com/cat/applications/precise/fonts-arphic-gkai00mp/
    Arphic PL UKai - https://apps.ubuntu.com/cat/applications/fonts-arphic-ukai/
You can redistribute and/or modify this file under the terms of the Arphic Public License
as published by Arphic Technology Co., Ltd.
You should have received a copy of this license (the directory "APL") along with this file;
if not, see http://ftp.gnu.org/non-gnu/chinese-fonts-truetype/LICENSE.
-->
<svg id="z38520" class="acjk" version="1.1" viewBox="0 0 1024 1024" xmlns="http://www.w3.org/2000/svg" xmlns:xlink="http://www.w3.org/1999/xlink">
<style>
<![CDATA[
@keyframes z38520k {
	from {
		stroke:#c00;
		stroke-dashoffset:3000;
	}
	75% {
		stroke:#c00;
		stroke-dashoffset:0;
	}
	to {
		stroke:#000;
	}
}
#z38520 path[clip-path] {
	animation:z38520k 1s linear both;
	stroke-dasharray:3000;
	stroke-width:128;
	stroke-linecap:round;
	fill:none;
}
#z38520 path[clip-path="url(#z38520c1)"] {animation-delay:1s;}
#z38520 path[clip-path="url(#z38520c2)"] {animation-delay:2s;}
#z38520 path[clip-path="url(#z38520c3)"] {animation-delay:3s;}
#z38520 path[clip-path="url(#z38520c4)"] {animation-delay:4s;}
#z38520 path[clip-path="url(#z38520c5)"] {animation-delay:5s;}
#z38520 path[clip-path="url(#z38520c6)"] {animation-delay:6s;}
#z38520 path[clip-path="url(#z38520c7)"] {animation-delay:7s;}
#z38520 path[clip-path="url(#z38520c8)"] {animation-delay:8s;}
#z38520 path[clip-path="url(#z38520c9)"] {animation-delay:9s;}
#z38520 path[clip-path="url(#z38520c10)"] {animation-delay:10s;}
#z38520 path[clip-path="url(#z38520c11)"] {animation-delay:11s;}
#z38520 path {fill:#ccc;}
]]>
</style>
<path id="z38520d1" d="M216 258C240 252 266 242 294 230C306 224 316 224 324 230C326 234 325 242 320 253C292 313 280 348 284 358L320 338C320 328 324 319 332 311C360 269 383 242 401 232C413 224 417 215 411 206C402 194 385 181 360 167C346 161 334 162 325 170C288 199 245 218 197 228 Z"/>
<path id="z38520d2" d="M284 358C284 361 285 365 289 369C329 429 344 466 333 478C329 485 319 488 305 486C286 484 267 484 248 485C232 485 233 489 251 498C285 515 319 534 352 555C362 564 371 564 379 555C387 549 394 537 399 519C407 483 392 439 350 390C331 370 320 353 320 338 Z"/>
<path id="z38520d3" d="M197 228Q172 209 144 201Q134 198 126 208Q122 215 131 227Q161 297 162 367Q177 653 133 799Q124 829 130 851Q140 888 154 903Q167 918 178 902Q214 863 211 712Q205 343 216 258L197 228 Z"/>
<path id="z38520d4" d="M681 286Q807 255 812 251Q819 244 815 235Q808 225 780 218Q750 212 684 239L630 254Q581 264 524 272Q490 279 515 294Q551 315 619 299Q623 298 631 297L681 286 Z"/>
<path id="z38520d5" d="M673 396Q677 339 681 286L684 239Q687 158 703 102Q707 90 686 76Q650 57 626 53Q610 50 602 58Q595 65 603 81Q622 109 623 127Q627 188 630 254L631 297Q631 349 631 405L673 396 Z"/>
<path id="z38520d6" d="M631 405Q532 421 418 444Q399 447 414 461Q427 473 444 477Q463 481 477 476Q627 428 871 414L907 412Q925 411 929 403Q933 393 918 381Q861 348 810 365Q755 377 673 396L631 405 Z"/>
<path id="z38520d7" d="M520 505C517 540 481 595 411 669C400 679 402 682 418 678C454 674 497 638 551 571C559 559 573 541 587 529C591 523 593 516 592 510C589 502 580 497 564 494C547 490 535 489 528 491C523 492 520 497 520 505 Z"/>
<path id="z38520d8" d="M812 613C792 613 771 610 753 600C741 596 732 587 727 575C718 555 723 532 722 511C724 496 719 481 712 467C715 460 724 459 730 459C744 459 756 464 768 471C774 474 777 482 774 488C767 507 759 527 764 548C764 559 772 569 783 572C800 579 820 579 838 575C848 574 857 570 863 562C876 549 885 534 894 518C897 515 903 517 903 522C906 529 906 537 909 545C912 558 917 571 923 582C925 591 915 594 909 596C880 607 849 612 818 613C816 614 814 613 812 613 Z"/>
<path id="z38520d9" d="M673 714Q775 690 779 686Q788 679 783 671Q776 661 750 654Q720 650 678 666L618 685Q617 684 615 685Q569 695 516 702Q482 708 507 723Q543 742 606 728Q612 727 620 726L673 714 Z"/>
<path id="z38520d10" d="M661 818Q667 764 673 714L678 666Q678 665 679 663Q682 632 692 611Q695 601 676 587Q643 568 621 564Q605 561 598 569Q591 576 598 590Q613 609 618 685L620 726Q620 772 620 824L661 818 Z"/>
<path id="z38520d11" d="M620 824Q505 837 369 854Q347 855 363 873Q376 886 395 893Q416 897 432 894Q588 852 918 852Q937 852 943 844Q949 832 932 818Q874 775 802 795Q742 804 661 818L620 824 Z"/>
<defs>
	<clipPath id="z38520c1"><use xlink:href="#z38520d1"/></clipPath>
	<clipPath id="z38520c2"><use xlink:href="#z38520d2"/></clipPath>
	<clipPath id="z38520c3"><use xlink:href="#z38520d3"/></clipPath>
	<clipPath id="z38520c4"><use xlink:href="#z38520d4"/></clipPath>
	<clipPath id="z38520c5"><use xlink:href="#z38520d5"/></clipPath>
	<clipPath id="z38520c6"><use xlink:href="#z38520d6"/></clipPath>
	<clipPath id="z38520c7"><use xlink:href="#z38520d7"/></clipPath>
	<clipPath id="z38520c8"><use xlink:href="#z38520d8"/></clipPath>
	<clipPath id="z38520c9"><use xlink:href="#z38520d9"/></clipPath>
	<clipPath id="z38520c10"><use xlink:href="#z38520d10"/></clipPath>
	<clipPath id="z38520c11"><use xlink:href="#z38520d11"/></clipPath>
</defs>
<path pathLength="2999" clip-path="url(#z38520c1)" d="M206 231L321 198L365 217L288 350"/>
<path pathLength="2999" clip-path="url(#z38520c2)" d="M314 347L363 454L362 509L341 523L244 489"/>
<path pathLength="2999" clip-path="url(#z38520c3)" d="M131 209L182 266L167 903"/>
<path pathLength="2999" clip-path="url(#z38520c4)" d="M513 281L809 236"/>
<path pathLength="2999" clip-path="url(#z38520c5)" d="M605 63L663 113L650 400"/>
<path pathLength="2999" clip-path="url(#z38520c6)" d="M415 450L842 387L926 396"/>
<path pathLength="2999" clip-path="url(#z38520c7)" d="M589 514L542 525L497 601L413 671"/>
<path pathLength="2999" clip-path="url(#z38520c8)" d="M721 468L748 499L748 569L778 590L874 584L899 568L898 527"/>
<path pathLength="2999" clip-path="url(#z38520c9)" d="M508 712L778 677"/>
<path pathLength="2999" clip-path="url(#z38520c10)" d="M603 575L652 618L632 820"/>
<path pathLength="2999" clip-path="url(#z38520c11)" d="M362 861L432 870L832 821L939 830"/>
</svg>