<!--
AnimCJK 2016-2018 Copyright Francois Mizessyn, https://github.com/parsimonhi/animCJK
Derived from:
    MakeMeAHanzi project - https://github.com/skishore/makemeahanzi
    Arphic PL KaitiM GB - https://apps.ubuntu.com/cat/applications/precise/fonts-arphic-gkai00mp/
    Arphic PL UKai - https://apps.ubuntu.com/cat/applications/fonts-arphic-ukai/
You can redistribute and/or modify this file under the terms of the Arphic Public License
as published by Arphic Technology Co., Ltd.
You should have received a copy of this license (the directory "APL") along with this file;
if not, see http://ftp.gnu.org/non-gnu/chinese-fonts-truetype/LICENSE.
-->
<svg id="z38593" class="acjk" version="1.1" viewBox="0 0 1024 1024" xmlns="http://www.w3.org/2000/svg" xmlns:xlink="http://www.w3.org/1999/xlink">
<style>
<![CDATA[
@keyframes z38593k {
	from {
		stroke:#c00;
		stroke-dashoffset:3334;
	}
	75% {
		stroke:#c00;
		stroke-dashoffset:0;
	}
	to {
		stroke:#000;
	}
}
#z38593 path[clip-path] {
	animation:z38593k 1s linear both;
	stroke-dasharray:3334;
	stroke-width:128;
	stroke-linecap:round;
	fill:none;
}
#z38593 path[clip-path="url(#z38593c1)"] {animation-delay:1s;}
#z38593 path[clip-path="url(#z38593c2)"] {animation-delay:2s;}
#z38593 path[clip-path="url(#z38593c3)"] {animation-delay:3s;}
#z38593 path[clip-path="url(#z38593c4)"] {animation-delay:4s;}
#z38593 path[clip-path="url(#z38593c5)"] {animation-delay:5s;}
#z38593 path[clip-path="url(#z38593c6)"] {animation-delay:6s;}
#z38593 path[clip-path="url(#z38593c7)"] {animation-delay:7s;}
#z38593 path[clip-path="url(#z38593c8)"] {animation-delay:8s;}
#z38593 path[clip-path="url(#z38593c9)"] {animation-delay:9s;}
#z38593 path[clip-path="url(#z38593c10)"] {animation-delay:10s;}
#z38593 path[clip-path="url(#z38593c11)"] {animation-delay:11s;}
#z38593 path[clip-path="url(#z38593c12)"] {animation-delay:12s;}
#z38593 path {fill:#ccc;}
]]>
</style>
<path id="z38593d1" d="M323 186Q366 201 413 193Q771 132 795 120Q795 119 797 119Q807 110 803 101Q796 88 765 79Q728 70 645 98Q476 141 320 153Q319 153 319 154L323 186 Z"/>
<path id="z38593d2" d="M319 154Q303 138 274 125Q255 113 241 118Q228 125 235 140Q257 170 250 253Q249 259 249 268Q233 464 186 584Q140 701 56 824Q50 831 48 837Q45 849 56 847Q89 841 168 726Q189 693 209 654Q281 498 304 298Q311 229 322 187Q322 186 323 186L319 154 Z"/>
<path id="z38593d3" d="M364 451Q424 376 449 335Q465 307 479 293Q486 284 483 273Q479 263 456 244Q434 231 418 230Q402 231 410 250Q425 284 362 393Q331 442 289 499Q282 506 279 512Q276 522 288 519Q300 518 343 475L364 451 Z"/>
<path id="z38593d4" d="M343 475Q361 535 362 577Q361 587 361 600Q360 682 337 768Q325 808 357 851Q358 852 360 854Q376 867 386 844Q399 810 398 769Q402 571 409 527Q416 503 407 494Q391 476 380 464Q373 455 364 451L343 475 Z"/>
<path id="z38593d5" d="M516 430Q522 421 530 412Q564 369 601 305Q617 274 631 260Q638 250 634 238Q630 228 603 209Q579 194 562 195Q546 198 554 217Q581 269 440 481Q433 490 430 496Q429 506 440 503Q450 500 495 456L516 430 Z"/>
<path id="z38593d6" d="M559 748Q559 559 567 513Q574 488 565 478Q549 459 536 446Q527 436 516 430L495 456Q519 520 520 579Q520 705 494 809Q482 858 517 899L518 901Q534 916 546 891Q558 854 559 776L559 748 Z"/>
<path id="z38593d7" d="M694 264Q713 282 734 304Q746 316 759 315Q769 315 773 303Q777 290 770 265Q764 243 691 222Q678 219 672 221Q668 225 669 236Q672 246 694 264 Z"/>
<path id="z38593d8" d="M728 414Q876 375 879 374Q888 367 883 359Q876 349 849 342Q822 338 795 349Q755 364 710 375Q661 387 604 394Q570 400 594 415Q634 434 684 423Q685 422 690 422L728 414 Z"/>
<path id="z38593d9" d="M740 719Q741 671 745 629L746 588Q747 554 750 524L752 482Q753 469 754 459Q761 443 752 433Q740 421 728 414L690 422Q702 443 703 496L703 533Q703 560 702 601L702 637Q701 676 701 726L740 719 Z"/>
<path id="z38593d10" d="M750 524Q795 515 835 509Q857 505 849 492Q839 477 813 473Q791 470 752 482L703 496Q658 508 619 519Q603 523 623 537Q629 541 703 533L750 524 Z"/>
<path id="z38593d11" d="M745 629Q794 619 839 612Q861 608 853 596Q843 581 817 577Q793 574 752 586Q748 587 746 588L702 601Q657 611 619 623Q603 627 623 641Q629 645 702 637L745 629 Z"/>
<path id="z38593d12" d="M701 726Q634 735 559 748L559 776Q581 789 608 782Q722 751 901 751Q916 752 929 751Q947 751 951 743Q955 733 941 721Q890 682 833 701Q794 708 740 719L701 726 Z"/>
<defs>
	<clipPath id="z38593c1"><use xlink:href="#z38593d1"/></clipPath>
	<clipPath id="z38593c2"><use xlink:href="#z38593d2"/></clipPath>
	<clipPath id="z38593c3"><use xlink:href="#z38593d3"/></clipPath>
	<clipPath id="z38593c4"><use xlink:href="#z38593d4"/></clipPath>
	<clipPath id="z38593c5"><use xlink:href="#z38593d5"/></clipPath>
	<clipPath id="z38593c6"><use xlink:href="#z38593d6"/></clipPath>
	<clipPath id="z38593c7"><use xlink:href="#z38593d7"/></clipPath>
	<clipPath id="z38593c8"><use xlink:href="#z38593d8"/></clipPath>
	<clipPath id="z38593c9"><use xlink:href="#z38593d9"/></clipPath>
	<clipPath id="z38593c10"><use xlink:href="#z38593d10"/></clipPath>
	<clipPath id="z38593c11"><use xlink:href="#z38593d11"/></clipPath>
	<clipPath id="z38593c12"><use xlink:href="#z38593d12"/></clipPath>
</defs>
<path pathLength="3333" clip-path="url(#z38593c1)" d="M327 160L409 169L799 99"/>
<path pathLength="3333" clip-path="url(#z38593c2)" d="M239 126L286 184L233 522L167 683L55 839"/>
<path pathLength="3333" clip-path="url(#z38593c3)" d="M417 238L446 275L435 307L284 512"/>
<path pathLength="3333" clip-path="url(#z38593c4)" d="M362 460L384 518L365 854"/>
<path pathLength="3333" clip-path="url(#z38593c5)" d="M561 201L590 263L436 496"/>
<path pathLength="3333" clip-path="url(#z38593c6)" d="M517 437L541 515L527 902"/>
<path pathLength="3333" clip-path="url(#z38593c7)" d="M675 228L744 274L757 311"/>
<path pathLength="3333" clip-path="url(#z38593c8)" d="M591 402L879 361"/>
<path pathLength="3333" clip-path="url(#z38593c9)" d="M697 425L729 456L715 723"/>
<path pathLength="3333" clip-path="url(#z38593c10)" d="M619 527L844 494"/>
<path pathLength="3333" clip-path="url(#z38593c11)" d="M617 629L847 600"/>
<path pathLength="3333" clip-path="url(#z38593c12)" d="M565 755L865 723L946 737"/>
</svg>