<!--
AnimCJK 2016-2017 Copyright Francois Mizessyn, http://gooo.free.fr/animCJK/
Derived from:
    MakeMeAHanzi project - https://github.com/skishore/makemeahanzi
    Arphic PL KaitiM GB - https://apps.ubuntu.com/cat/applications/precise/fonts-arphic-gkai00mp/
    Arphic PL UKai - https://apps.ubuntu.com/cat/applications/fonts-arphic-ukai/
You can redistribute and/or modify this file under the terms of the Arphic Public License
as published by Arphic Technology Co., Ltd.
You should have received a copy of this license (the directory "APL") along with this file;
if not, see http://ftp.gnu.org/non-gnu/chinese-fonts-truetype/LICENSE.
-->
<svg id="z38598" class="acjk" version="1.1" viewBox="0 0 1024 1024" xmlns="http://www.w3.org/2000/svg" xmlns:xlink="http://www.w3.org/1999/xlink">
<style>
<![CDATA[
	@keyframes z38598k {
		from {
			stroke:#c00;
			stroke-dashoffset:3000;
		}
		75% {
			stroke:#c00;
			stroke-dashoffset:0;
		}
		to {
			stroke:#000;
		}
	}
	#z38598 path[clip-path] {
		animation:z38598k 1s linear both;
		stroke-dasharray:3000;
		stroke-width:128;
		stroke-linecap:round;
		fill:none;
	}
	#z38598 path[clip-path="url(#z38598c1)"] {animation-delay:1s;}
	#z38598 path[clip-path="url(#z38598c2)"] {animation-delay:2s;}
	#z38598 path[clip-path="url(#z38598c3)"] {animation-delay:3s;}
	#z38598 path[clip-path="url(#z38598c4)"] {animation-delay:4s;}
	#z38598 path[clip-path="url(#z38598c5)"] {animation-delay:5s;}
	#z38598 path[clip-path="url(#z38598c6)"] {animation-delay:6s;}
	#z38598 path[clip-path="url(#z38598c7)"] {animation-delay:7s;}
	#z38598 path[clip-path="url(#z38598c8)"] {animation-delay:8s;}
	#z38598 path[clip-path="url(#z38598c9)"] {animation-delay:9s;}
	#z38598 path[clip-path="url(#z38598c10)"] {animation-delay:10s;}
	#z38598 path[clip-path="url(#z38598c11)"] {animation-delay:11s;}
	#z38598 path[clip-path="url(#z38598c12)"] {animation-delay:12s;}
	#z38598 path {fill:#ccc;}
]]>
</style>
<g transform="scale(1,-1) translate(0,-900)">
	<path id="z38598d1" d="M328 670Q352 695 380 726Q404 757 424 772Q434 779 431 793Q430 805 407 829Q385 848 368 851Q352 852 356 831Q363 807 352 788Q316 727 268 670Q220 616 158 559Q148 552 145 546Q141 536 153 536Q189 542 304 646L328 670Z"/>
	<path id="z38598d2" d="M361 410Q362 420 362 431Q363 567 369 597Q376 621 367 630Q351 648 340 660Q334 667 328 670L304 646Q317 600 318 569Q317 565 317 558Q317 495 301 432Q289 392 321 349Q322 348 324 346Q340 333 350 356Q356 372 359 390L361 410Z"/>
	<path id="z38598d3" d="M527 816Q548 797 570 775Q582 765 595 765Q605 765 609 777Q613 790 606 815Q597 839 523 858Q510 861 504 859Q500 855 501 844Q504 834 527 816Z"/>
	<path id="z38598d4" d="M560 706Q729 739 734 744Q741 751 738 758Q732 768 708 775Q683 781 656 771Q604 755 548 742Q485 729 412 724Q381 720 403 704Q442 683 488 693Q503 697 519 698L560 706Z"/>
	<path id="z38598d5" d="M574 441Q575 475 577 506L579 546Q580 574 582 598L585 640Q589 679 585 685Q572 698 560 706L519 698Q531 683 531 625L532 589Q532 567 532 535L532 499Q532 471 532 434L574 441Z"/>
	<path id="z38598d6" d="M582 598Q637 610 686 616Q710 620 701 632Q691 647 665 652Q653 653 585 640L531 625Q477 612 431 601Q415 597 435 582Q448 573 473 578Q501 584 532 589L582 598Z"/>
	<path id="z38598d7" d="M577 506Q641 518 698 524Q720 527 713 540Q703 555 677 561Q644 565 579 546L532 535Q475 525 424 513Q408 510 427 494Q440 484 468 489Q499 495 532 499L577 506Z"/>
	<path id="z38598d8" d="M532 434Q453 424 361 410L359 390Q383 371 411 378Q537 412 766 412Q782 412 787 419Q791 429 777 440Q732 476 674 459Q632 452 574 441L532 434Z"/>
	<path id="z38598d9" d="M566 276Q648 283 892 284Q914 284 919 293Q925 306 907 321Q852 364 784 349Q693 333 553 310L505 304Q345 286 158 264Q136 261 152 243Q167 228 186 222Q208 216 226 221Q332 251 453 263L566 276Z"/>
	<path id="z38598d10" d="M553 310Q554 329 557 339Q560 351 553 356Q531 375 513 384Q503 388 494 381Q488 378 495 368Q498 362 505 304L504 241Q503 222 503 199Q496 67 487 46Q478 10 510 -37Q520 -55 527 -58Q537 -59 543 -47Q555 -17 552 11Q552 50 551 255L553 310Z"/>
	<path id="z38598d11" d="M453 263Q387 149 175 28Q156 16 173 13Q203 7 302 53Q359 86 423 146Q465 185 489 221Q496 233 504 241L504 268L453 263Z"/>
	<path id="z38598d12" d="M551 255Q636 150 730 53Q752 29 789 27Q856 21 928 32Q947 33 948 38Q951 45 936 51Q734 132 653 199Q640 208 566 276L551 274L551 255Z"/>
	<defs>
		<clipPath id="z38598c1"><use xlink:href="#z38598d1"/></clipPath>
		<clipPath id="z38598c2"><use xlink:href="#z38598d2"/></clipPath>
		<clipPath id="z38598c3"><use xlink:href="#z38598d3"/></clipPath>
		<clipPath id="z38598c4"><use xlink:href="#z38598d4"/></clipPath>
		<clipPath id="z38598c5"><use xlink:href="#z38598d5"/></clipPath>
		<clipPath id="z38598c6"><use xlink:href="#z38598d6"/></clipPath>
		<clipPath id="z38598c7"><use xlink:href="#z38598d7"/></clipPath>
		<clipPath id="z38598c8"><use xlink:href="#z38598d8"/></clipPath>
		<clipPath id="z38598c9"><use xlink:href="#z38598d9"/></clipPath>
		<clipPath id="z38598c10"><use xlink:href="#z38598d10"/></clipPath>
		<clipPath id="z38598c11"><use xlink:href="#z38598d11"/></clipPath>
		<clipPath id="z38598c12"><use xlink:href="#z38598d12"/></clipPath>
	</defs>
	<path pathLength="2999" clip-path="url(#z38598c1)" d="M364 847L392 787L271 643L151 542"/>
	<path pathLength="2999" clip-path="url(#z38598c2)" d="M321 657L342 617L328 347"/>
	<path pathLength="2999" clip-path="url(#z38598c3)" d="M508 854L599 771"/>
	<path pathLength="2999" clip-path="url(#z38598c4)" d="M403 717L460 709L732 757"/>
	<path pathLength="2999" clip-path="url(#z38598c5)" d="M528 697L558 665L550 438"/>
	<path pathLength="2999" clip-path="url(#z38598c6)" d="M432 597L698 631"/>
	<path pathLength="2999" clip-path="url(#z38598c7)" d="M425 506L709 537"/>
	<path pathLength="2999" clip-path="url(#z38598c8)" d="M361 397L697 438L781 423"/>
	<path pathLength="2999" clip-path="url(#z38598c9)" d="M151 255L207 244L816 319L916 304"/>
	<path pathLength="2999" clip-path="url(#z38598c10)" d="M500 376L529 339L520 -51"/>
	<path pathLength="2999" clip-path="url(#z38598c11)" d="M497 260L323 95L173 19"/>
	<path pathLength="2999" clip-path="url(#z38598c12)" d="M557 269L763 80L940 41"/>
</g>
</svg>