<!--
AnimCJK 2016-2017 Copyright Francois Mizessyn, http://gooo.free.fr/animCJK/
Derived from:
    MakeMeAHanzi project - https://github.com/skishore/makemeahanzi
    Arphic PL KaitiM GB - https://apps.ubuntu.com/cat/applications/precise/fonts-arphic-gkai00mp/
    Arphic PL UKai - https://apps.ubuntu.com/cat/applications/fonts-arphic-ukai/
You can redistribute and/or modify this file under the terms of the Arphic Public License
as published by Arphic Technology Co., Ltd.
You should have received a copy of this license (the directory "APL") along with this file;
if not, see http://ftp.gnu.org/non-gnu/chinese-fonts-truetype/LICENSE.
-->
<svg id="z38609" class="acjk" version="1.1" viewBox="0 0 1024 1024" xmlns="http://www.w3.org/2000/svg" xmlns:xlink="http://www.w3.org/1999/xlink">
<style>
<![CDATA[
	@keyframes z38609k {
		from {
			stroke:#c00;
			stroke-dashoffset:3000;
		}
		75% {
			stroke:#c00;
			stroke-dashoffset:0;
		}
		to {
			stroke:#000;
		}
	}
	#z38609 path[clip-path] {
		animation:z38609k 1s linear both;
		stroke-dasharray:3000;
		stroke-width:128;
		stroke-linecap:round;
		fill:none;
	}
	#z38609 path[clip-path="url(#z38609c1)"] {animation-delay:1s;}
	#z38609 path[clip-path="url(#z38609c2)"] {animation-delay:2s;}
	#z38609 path[clip-path="url(#z38609c3)"] {animation-delay:3s;}
	#z38609 path[clip-path="url(#z38609c4)"] {animation-delay:4s;}
	#z38609 path[clip-path="url(#z38609c5)"] {animation-delay:5s;}
	#z38609 path[clip-path="url(#z38609c6)"] {animation-delay:6s;}
	#z38609 path[clip-path="url(#z38609c7)"] {animation-delay:7s;}
	#z38609 path[clip-path="url(#z38609c8)"] {animation-delay:8s;}
	#z38609 path[clip-path="url(#z38609c9)"] {animation-delay:9s;}
	#z38609 path[clip-path="url(#z38609c10)"] {animation-delay:10s;}
	#z38609 path[clip-path="url(#z38609c11)"] {animation-delay:11s;}
	#z38609 path[clip-path="url(#z38609c12)"] {animation-delay:12s;}
	#z38609 path[clip-path="url(#z38609c13)"] {animation-delay:13s;}
	#z38609 path[clip-path="url(#z38609c14)"] {animation-delay:14s;}
	#z38609 path {fill:#ccc;}
]]>
</style>
<g transform="scale(1,-1) translate(0,-900)">
	<path id="z38609d1" d="M145 407C137 408 137 420 141 426C156 454 167 483 179 513C203 576 221 643 228 710C232 746 238 782 233 817C231 826 229 839 238 845C248 849 256 840 261 833C271 821 283 808 283 791C281 778 274 766 274 753C265 703 258 653 244 604C232 555 217 507 193 462C183 444 173 425 157 411C154 409 149 407 145 407Z"/>
	<path id="z38609d2" d="M395 416C365 416 333 426 315 452C297 478 296 512 296 543C296 588 305 632 312 676C312 682 306 689 299 687C277 683 261 666 242 657C226 648 212 637 199 626C188 619 171 618 162 627C152 633 144 645 149 656C155 667 170 667 180 672C229 690 276 715 322 740C334 743 343 732 349 724C357 713 371 702 370 687C369 672 355 663 350 650C339 625 334 598 330 571C326 543 326 512 339 485C350 472 369 471 385 475C398 476 413 481 419 494C430 520 433 549 437 576C438 586 438 596 442 604C446 609 452 605 454 600C461 585 458 568 461 552C465 519 471 486 479 453C479 441 469 433 458 429C439 419 417 415 395 416Z"/>
	<path id="z38609d3" d="M187 230C166 230 143 233 127 248C124 250 121 256 127 258C141 263 156 261 170 263C203 266 237 271 270 278C278 281 286 280 294 283C316 288 338 295 359 301C380 306 401 312 422 308C433 304 447 300 453 289C456 282 449 275 442 275C396 262 349 254 302 245C278 240 253 239 229 233C215 231 201 230 187 230Z"/>
	<path id="z38609d4" d="M292 -43C280 -41 278 -28 271 -20C251 8 226 34 201 60C199 62 195 69 200 69C221 65 241 59 262 55C274 52 284 63 286 75C288 95 288 116 289 136C290 187 290 238 287 288C286 318 284 350 269 377C266 382 260 391 266 396C275 401 285 395 294 392C311 386 326 375 338 362C345 353 340 343 336 334C326 306 330 276 329 247C330 181 331 116 335 50C334 19 327 -15 303 -38C300 -41 296 -43 292 -43Z"/>
	<path id="z38609d5" d="M103 16C94 17 93 27 92 34C90 50 95 65 103 78C110 89 121 97 130 107C146 123 161 141 175 159C178 162 186 165 188 159C193 150 189 140 188 131C185 114 178 98 172 82C161 53 140 26 109 17C107 17 105 16 103 16Z"/>
	<path id="z38609d6" d="M495 21C478 27 469 44 458 57C429 93 399 127 367 160C362 167 358 178 364 186C368 187 372 182 377 182C415 165 454 147 486 119C498 108 508 94 510 78C513 63 517 47 511 33C508 27 503 21 495 21Z"/>
	<path id="z38609d7" d="M579 504Q644 607 681 686Q698 729 714 749Q720 759 717 772Q713 784 687 803Q663 818 647 816Q631 813 640 793Q652 768 646 744Q624 665 587 590Q551 517 501 437Q493 427 492 421Q489 411 501 414Q515 418 557 473L579 504Z"/>
	<path id="z38609d8" d="M627 118Q621 356 629 413Q635 441 626 452Q610 474 597 488Q589 498 579 504L557 473Q561 460 567 450Q581 420 587 344Q587 166 563 47Q549 -2 583 -50Q584 -53 587 -56Q604 -72 615 -44Q626 -5 628 83L627 118Z"/>
	<path id="z38609d9" d="M740 665Q797 602 809 601Q818 601 822 613Q826 626 821 653Q816 680 738 709Q727 713 720 711Q717 707 717 696Q719 686 740 665Z"/>
	<path id="z38609d10" d="M791 504Q830 517 875 528Q906 537 911 542Q917 549 914 557Q908 567 883 573Q858 577 835 566Q800 550 761 538Q719 526 669 518Q639 511 661 497Q700 476 750 493L791 504Z"/>
	<path id="z38609d11" d="M797 146Q798 210 799 268L799 306Q800 349 800 387L800 429Q800 444 803 470Q807 485 791 504L750 493Q755 481 760 415L760 378Q760 345 760 294L760 259Q760 208 760 139L797 146Z"/>
	<path id="z38609d12" d="M800 387Q845 400 885 407Q907 411 898 424Q889 439 865 442Q844 445 807 432Q803 431 800 429L760 415Q719 402 683 389Q669 385 687 371Q695 365 760 378L800 387Z"/>
	<path id="z38609d13" d="M799 268Q848 281 893 289Q913 293 905 305Q896 318 874 322Q842 326 799 306L760 294Q714 281 675 268Q661 264 679 251Q690 244 711 248Q734 254 760 259L799 268Z"/>
	<path id="z38609d14" d="M760 139Q697 130 627 118L628 83Q631 83 633 82Q650 78 663 81Q763 108 944 109Q961 109 964 117Q968 127 955 139Q909 179 858 160Q831 154 797 146L760 139Z"/>
	<defs>
		<clipPath id="z38609c1"><use xlink:href="#z38609d1"/></clipPath>
		<clipPath id="z38609c2"><use xlink:href="#z38609d2"/></clipPath>
		<clipPath id="z38609c3"><use xlink:href="#z38609d3"/></clipPath>
		<clipPath id="z38609c4"><use xlink:href="#z38609d4"/></clipPath>
		<clipPath id="z38609c5"><use xlink:href="#z38609d5"/></clipPath>
		<clipPath id="z38609c6"><use xlink:href="#z38609d6"/></clipPath>
		<clipPath id="z38609c7"><use xlink:href="#z38609d7"/></clipPath>
		<clipPath id="z38609c8"><use xlink:href="#z38609d8"/></clipPath>
		<clipPath id="z38609c9"><use xlink:href="#z38609d9"/></clipPath>
		<clipPath id="z38609c10"><use xlink:href="#z38609d10"/></clipPath>
		<clipPath id="z38609c11"><use xlink:href="#z38609d11"/></clipPath>
		<clipPath id="z38609c12"><use xlink:href="#z38609d12"/></clipPath>
		<clipPath id="z38609c13"><use xlink:href="#z38609d13"/></clipPath>
		<clipPath id="z38609c14"><use xlink:href="#z38609d14"/></clipPath>
	</defs>
	<path pathLength="2999" clip-path="url(#z38609c1)" d="M242 840L259 789L234 635L148 414"/>
	<path pathLength="2999" clip-path="url(#z38609c2)" d="M155 652L326 708L340 678L313 513L327 469L365 446L447 467L447 597"/>
	<path pathLength="2999" clip-path="url(#z38609c3)" d="M132 254L214 250L446 294"/>
	<path pathLength="2999" clip-path="url(#z38609c4)" d="M272 391L311 349L309 57L282 7L206 64"/>
	<path pathLength="2999" clip-path="url(#z38609c5)" d="M181 154L100 24"/>
	<path pathLength="2999" clip-path="url(#z38609c6)" d="M368 178L470 91L501 28"/>
	<path pathLength="2999" clip-path="url(#z38609c7)" d="M646 804L681 767L671 729L593 561L499 422"/>
	<path pathLength="2999" clip-path="url(#z38609c8)" d="M579 495L605 380L594 -55"/>
	<path pathLength="2999" clip-path="url(#z38609c9)" d="M725 703L815 609"/>
	<path pathLength="2999" clip-path="url(#z38609c10)" d="M661 507L909 548"/>
	<path pathLength="2999" clip-path="url(#z38609c11)" d="M790 499L771 142"/>
	<path pathLength="2999" clip-path="url(#z38609c12)" d="M687 380L895 421"/>
	<path pathLength="2999" clip-path="url(#z38609c13)" d="M677 260L898 300"/>
	<path pathLength="2999" clip-path="url(#z38609c14)" d="M634 90L864 135L958 124"/>
</g>
</svg>