<!--
AnimCJK 2016-2019 Copyright Francois Mizessyn - https://github.com/parsimonhi/animCJK
Derived from:
    MakeMeAHanzi project - https://github.com/skishore/makemeahanzi
    Arphic PL KaitiM GB font
    Arphic PL UKai font
You can redistribute and/or modify this file under the terms of the Arphic Public License
as published by Arphic Technology Co., Ltd.
You should have received a copy of this license along with this file.
If not, see http://ftp.gnu.org/non-gnu/chinese-fonts-truetype/LICENSE.
-->
<svg id="z38619" class="acjk" version="1.1" viewBox="0 0 1024 1024" xmlns="http://www.w3.org/2000/svg" xmlns:xlink="http://www.w3.org/1999/xlink">
<style>
<![CDATA[
@keyframes zk {
	to {
		stroke-dashoffset:0;
	}
}
svg.acjk path[clip-path] {
	--t:0.8s;
	animation:zk var(--t) linear forwards var(--d);
	stroke-dasharray:3337;
	stroke-dashoffset:3339;
	stroke-width:128;
	stroke-linecap:round;
	fill:none;
	stroke:#000;
}
svg.acjk path[id] {fill:#ccc;}
]]>
</style>
<path id="z38619d1" d="M303 208Q322 186 343 154Q353 136 363 128Q369 119 365 110Q362 100 341 84Q320 72 307 72Q294 75 299 90Q320 126 232 257Q225 264 223 269Q222 278 231 275Q249 272 289 225C298 214 298 214 303 208Z"/>
<path id="z38619d2" d="M289 225Q316 231 413 218Q458 212 462 219Q465 223 466 240Q469 310 461 350Q455 375 449 388Q443 401 435 404Q429 407 394 406Q387 405 387 408Q387 411 395 417Q416 441 425 458Q429 468 436 469Q460 466 481 429Q502 389 520 256Q521 241 531 231Q541 221 540 215Q534 194 480 177Q468 174 404 189Q361 199 329 204Q314 205 303 208C296 209 282 224 289 225Z"/>
<path id="z38619d3" d="M299 371Q336 355 368 352C376 351 381 327 373 328Q337 335 306 345C280 352 280 352 267 356Q239 363 216 374Q209 374 212 368Q221 332 218 322Q211 310 197 300Q190 296 184 296Q177 297 180 310Q187 334 180 355Q176 376 165 384Q153 394 158 404Q165 414 175 420Q181 423 200 412Q215 400 261 385C286 376 286 376 299 371Z"/>
<path id="z38619d4" d="M369 354Q370 367 376 376Q380 383 388 378Q398 366 410 328Q409 328 409 330Q410 323 412 321Q415 311 419 303Q426 290 415 280Q391 261 383 262Q377 265 378 275Q379 290 373 328C372 337 367 345 369 354Z"/>
<path id="z38619d5" d="M253 466Q280 424 299 371C304 354 304 354 306 345Q318 302 320 291Q326 278 314 270Q286 251 276 251Q263 252 271 267Q280 286 267 356C263 375 263 375 261 385Q239 448 183 493Q173 500 171 503Q170 507 176 508Q197 511 238 480C248 471 248 471 253 466Z"/>
<path id="z38619d6" d="M234 561Q237 557 241 554Q251 542 263 527C269 518 269 518 272 514Q278 507 282 504Q286 498 284 491Q283 484 266 472Q260 468 253 466C247 463 238 473 238 480Q241 501 197 578Q194 581 193 584Q192 590 198 589Q205 588 218 575Q219 574 223 571C230 564 230 564 234 561Z"/>
<path id="z38619d7" d="M263 527Q266 527 268 528Q292 535 381 527Q420 524 424 531Q428 537 428 560Q431 657 419 712Q401 778 381 786Q372 789 323 774Q316 771 315 776Q314 780 324 787Q352 821 366 846Q373 862 382 861Q395 861 407 849Q458 809 479 648Q486 564 501 549Q511 539 511 532Q505 508 449 490Q437 486 375 499Q327 506 272 514C267 515 258 526 263 527Z"/>
<path id="z38619d8" d="M268 695Q272 692 280 691Q316 678 332 678C342 678 350 648 340 650Q304 657 273 667C244 676 244 676 230 681Q202 688 177 700Q173 699 175 695Q188 647 186 640Q179 627 164 614Q158 610 151 609Q144 610 146 624Q158 684 124 710Q111 722 116 731Q123 741 135 749Q144 753 150 749Q159 737 226 711C254 700 254 700 268 695Z"/>
<path id="z38619d9" d="M332 678Q329 690 340 712Q344 719 352 714Q362 698 377 645Q378 635 384 622Q390 609 379 600Q370 593 361 585Q354 581 347 583Q341 586 342 596Q348 626 340 650C335 669 335 669 332 678Z"/>
<path id="z38619d10" d="M226 711Q210 807 131 874Q121 881 117 886Q116 892 124 892Q148 895 194 854Q246 806 268 695C271 676 271 676 273 667Q274 649 285 603Q291 588 276 580Q245 561 234 561C229 560 221 566 223 571Q238 604 230 681C227 701 227 701 226 711Z"/>
<path id="z38619d11" d="M589 350Q661 230 687 173Q702 136 717 117Q724 107 718 94Q712 82 683 66Q655 53 638 55Q622 59 632 79Q657 119 594 259Q566 325 522 399Q515 409 513 415Q512 425 524 422Q527 421 561 387C580 362 580 362 589 350Z"/>
<path id="z38619d12" d="M617 765Q621 495 633 432Q640 404 621 383Q612 374 589 350C579 338 555 373 561 387Q562 393 567 399Q585 435 585 521Q570 702 566 732Q544 834 546 853Q555 898 573 916Q591 932 603 905Q615 868 617 790C617 773 617 773 617 765Z"/>
<path id="z38619d13" d="M750 230Q771 246 794 267Q807 277 820 276Q830 275 833 264Q837 251 827 225Q818 201 743 189Q730 186 724 189Q720 193 722 204Q726 214 750 230Z"/>
<path id="z38619d14" d="M774 390Q933 354 935 352Q942 345 939 338Q932 328 907 322Q883 316 793 346Q726 362 660 368Q629 372 651 388Q684 406 730 398C759 393 759 393 774 390Z"/>
<path id="z38619d15" d="M787 735Q788 686 791 640C792 615 792 615 792 602Q793 554 797 512C798 486 798 486 798 473Q798 470 799 468Q800 452 801 439Q808 420 799 410Q786 397 774 390C762 381 725 384 730 398Q742 431 743 486C743 511 743 511 743 523Q743 557 743 612C743 636 743 636 743 648Q743 688 743 743C743 758 787 750 787 735Z"/>
<path id="z38619d16" d="M797 512Q897 490 903 487Q910 480 906 473Q900 464 877 458Q859 455 798 473C761 482 761 482 743 486Q712 490 679 494Q649 498 670 513Q701 531 743 523C779 516 779 516 797 512Z"/>
<path id="z38619d17" d="M791 640Q905 619 910 615Q917 608 914 602Q908 592 885 585Q858 579 792 602C759 609 759 609 743 612Q712 616 676 618Q646 622 667 637Q697 655 743 648C775 643 775 643 791 640Z"/>
<path id="z38619d18" d="M743 743Q682 753 617 765C609 766 609 787 617 790Q641 799 677 792Q768 764 937 761Q950 761 963 760Q979 760 984 752Q988 742 974 732Q923 696 867 717Q833 723 787 735C758 740 758 740 743 743Z"/>
<defs>
	<clipPath id="z38619c1"><use xlink:href="#z38619d1"/></clipPath>
	<clipPath id="z38619c2"><use xlink:href="#z38619d2"/></clipPath>
	<clipPath id="z38619c3"><use xlink:href="#z38619d3"/></clipPath>
	<clipPath id="z38619c4"><use xlink:href="#z38619d4"/></clipPath>
	<clipPath id="z38619c5"><use xlink:href="#z38619d5"/></clipPath>
	<clipPath id="z38619c6"><use xlink:href="#z38619d6"/></clipPath>
	<clipPath id="z38619c7"><use xlink:href="#z38619d7"/></clipPath>
	<clipPath id="z38619c8"><use xlink:href="#z38619d8"/></clipPath>
	<clipPath id="z38619c9"><use xlink:href="#z38619d9"/></clipPath>
	<clipPath id="z38619c10"><use xlink:href="#z38619d10"/></clipPath>
	<clipPath id="z38619c11"><use xlink:href="#z38619d11"/></clipPath>
	<clipPath id="z38619c12"><use xlink:href="#z38619d12"/></clipPath>
	<clipPath id="z38619c13"><use xlink:href="#z38619d13"/></clipPath>
	<clipPath id="z38619c14"><use xlink:href="#z38619d14"/></clipPath>
	<clipPath id="z38619c15"><use xlink:href="#z38619d15"/></clipPath>
	<clipPath id="z38619c16"><use xlink:href="#z38619d16"/></clipPath>
	<clipPath id="z38619c17"><use xlink:href="#z38619d17"/></clipPath>
	<clipPath id="z38619c18"><use xlink:href="#z38619d18"/></clipPath>
</defs>
<path style="--d:1s;" pathLength="3333" clip-path="url(#z38619c1)" d="M305 75L330 129L231 269"/>
<path style="--d:2s;" pathLength="3333" clip-path="url(#z38619c2)" d="M298 221L461 196L502 222L465 408L428 437L399 409"/>
<path style="--d:3s;" pathLength="3333" clip-path="url(#z38619c3)" d="M187 303L193 396L367 340"/>
<path style="--d:4s;" pathLength="3333" clip-path="url(#z38619c4)" d="M386 268L381 373"/>
<path style="--d:5s;" pathLength="3333" clip-path="url(#z38619c5)" d="M276 257L298 291L273 396L239 458L180 500"/>
<path style="--d:6s;" pathLength="3333" clip-path="url(#z38619c6)" d="M250 479L254 512L198 581"/>
<path style="--d:7s;" pathLength="3333" clip-path="url(#z38619c7)" d="M273 523L430 509L469 537L419 785L384 823L323 779"/>
<path style="--d:8s;" pathLength="3333" clip-path="url(#z38619c8)" d="M153 613L157 725L333 656"/>
<path style="--d:9s;" pathLength="3333" clip-path="url(#z38619c9)" d="M352 591L348 708"/>
<path style="--d:10s;" pathLength="3333" clip-path="url(#z38619c10)" d="M235 569L259 600L232 759L191 834L126 884"/>
<path style="--d:11s;" pathLength="3333" clip-path="url(#z38619c11)" d="M635 61L677 100L674 126L520 415"/>
<path style="--d:12s;" pathLength="3333" clip-path="url(#z38619c12)" d="M592 362L605 514L585 918"/>
<path style="--d:13s;" pathLength="3333" clip-path="url(#z38619c13)" d="M729 197L826 268"/>
<path style="--d:14s;" pathLength="3333" clip-path="url(#z38619c14)" d="M652 376L934 337"/>
<path style="--d:15s;" pathLength="3333" clip-path="url(#z38619c15)" d="M739 404L772 439L755 740"/>
<path style="--d:16s;" pathLength="3333" clip-path="url(#z38619c16)" d="M671 503L900 473"/>
<path style="--d:17s;" pathLength="3333" clip-path="url(#z38619c17)" d="M672 629L907 602"/>
<path style="--d:18s;" pathLength="3333" clip-path="url(#z38619c18)" d="M623 784L903 735L980 744"/>
</svg>