<!--
AnimCJK 2016-2017 Copyright Francois Mizessyn, http://gooo.free.fr/animCJK/
Derived from:
    MakeMeAHanzi project - https://github.com/skishore/makemeahanzi
    Arphic PL KaitiM GB - https://apps.ubuntu.com/cat/applications/precise/fonts-arphic-gkai00mp/
    Arphic PL UKai - https://apps.ubuntu.com/cat/applications/fonts-arphic-ukai/
You can redistribute and/or modify this file under the terms of the Arphic Public License
as published by Arphic Technology Co., Ltd.
You should have received a copy of this license (the directory "APL") along with this file;
if not, see http://ftp.gnu.org/non-gnu/chinese-fonts-truetype/LICENSE.
-->
<svg id="z38627" class="acjk" version="1.1" viewBox="0 0 1024 1024" xmlns="http://www.w3.org/2000/svg" xmlns:xlink="http://www.w3.org/1999/xlink">
<style>
<![CDATA[
	@keyframes z38627k {
		from {
			stroke:#c00;
			stroke-dashoffset:3000;
		}
		75% {
			stroke:#c00;
			stroke-dashoffset:0;
		}
		to {
			stroke:#000;
		}
	}
	#z38627 path[clip-path] {
		animation:z38627k 1s linear both;
		stroke-dasharray:3000;
		stroke-width:128;
		stroke-linecap:round;
		fill:none;
	}
	#z38627 path[clip-path="url(#z38627c1)"] {animation-delay:1s;}
	#z38627 path[clip-path="url(#z38627c2)"] {animation-delay:2s;}
	#z38627 path[clip-path="url(#z38627c3)"] {animation-delay:3s;}
	#z38627 path[clip-path="url(#z38627c4)"] {animation-delay:4s;}
	#z38627 path[clip-path="url(#z38627c5)"] {animation-delay:5s;}
	#z38627 path[clip-path="url(#z38627c6)"] {animation-delay:6s;}
	#z38627 path[clip-path="url(#z38627c7)"] {animation-delay:7s;}
	#z38627 path[clip-path="url(#z38627c8)"] {animation-delay:8s;}
	#z38627 path[clip-path="url(#z38627c9)"] {animation-delay:9s;}
	#z38627 path[clip-path="url(#z38627c10)"] {animation-delay:10s;}
	#z38627 path[clip-path="url(#z38627c11)"] {animation-delay:11s;}
	#z38627 path[clip-path="url(#z38627c12)"] {animation-delay:12s;}
	#z38627 path[clip-path="url(#z38627c13)"] {animation-delay:13s;}
	#z38627 path[clip-path="url(#z38627c14)"] {animation-delay:14s;}
	#z38627 path[clip-path="url(#z38627c15)"] {animation-delay:15s;}
	#z38627 path[clip-path="url(#z38627c16)"] {animation-delay:16s;}
	#z38627 path[clip-path="url(#z38627c17)"] {animation-delay:17s;}
	#z38627 path[clip-path="url(#z38627c18)"] {animation-delay:18s;}
	#z38627 path {fill:#ccc;}
]]>
</style>
<g transform="scale(1,-1) translate(0,-900)">
	<path id="z38627d1" d="M445 712Q506 722 560 728Q570 727 579 739Q580 749 558 760Q528 782 455 758L395 743Q386 743 287 721L239 715Q191 712 138 703Q111 700 132 683Q160 659 200 668Q221 674 247 677L288 685Q334 695 393 704L445 712Z"/>
	<path id="z38627d2" d="M287 738C287 770 286 782 283 788C280 792 274 795 268 797C260 799 257 800 243 802C230 804 218 802 207 798C201 795 202 790 211 784C221 773 231 756 239 733L247 706C257 656 265 618 271 610C275 606 280 605 284 609C286 611 288 614 290 619L290 677C289 689 288 701 288 711Z"/>
	<path id="z38627d3" d="M423 675C429 694 438 713 445 731L455 765C455 767 463 784 475 803C477 808 473 814 463 821C443 832 426 838 412 842C403 844 396 843 390 840C385 837 384 833 388 826C394 817 398 809 398 802C397 787 396 771 395 754L393 725C390 709 388 691 386 673C382 624 400 622 423 675Z"/>
	<path id="z38627d4" d="M188 545C183 547 171 549 152 549C145 549 141 548 140 546C137 542 139 536 145 529C159 510 172 465 186 434C188 424 194 416 202 411C212 401 219 400 221 409C221 411 221 415 221 419L217 442C209 468 203 508 201 520Z"/>
	<path id="z38627d5" d="M437 482C449 508 458 545 472 552C480 560 481 569 473 579C465 585 452 595 426 608C417 612 407 611 396 607C372 597 359 588 337 580L279 564C249 557 218 551 188 545L201 520C215 526 242 533 284 542L340 556C382 570 397 573 407 566C409 564 406 525 399 489Z"/>
	<path id="z38627d6" d="M333 442C365 448 395 455 442 462C446 462 449 465 450 469C450 471 445 476 437 482L399 489C396 489 394 488 393 488C368 481 355 475 334 469L288 457C262 452 238 447 217 442L221 419C225 418 229 418 235 420C249 424 266 429 288 433Z"/>
	<path id="z38627d7" d="M318 331C346 339 377 348 410 357C430 363 443 368 447 371C451 375 451 380 449 385C444 391 434 395 419 398C405 400 373 391 323 372L279 357C253 351 226 345 199 341C179 336 176 330 192 322C212 311 239 310 271 318C271 318 318 331 318 331Z"/>
	<path id="z38627d8" d="M314 221Q390 243 491 262Q506 265 506 272Q507 284 490 292Q463 302 442 295Q373 276 322 260L277 247Q150 216 71 203Q58 202 56 193Q55 183 69 173Q108 149 145 164Q212 191 266 207L314 221Z"/>
	<path id="z38627d9" d="M121 -35C116 -35 114 -33 115 -29C117 -25 122 -19 130 -13C141 -3 152 7 163 18C199 55 226 93 243 132C251 154 259 176 266 197L277 237C280 255 283 272 285 289L289 327C290 349 291 388 292 405L292 429C292 444 291 457 291 468C291 477 290 496 288 504L283 526C280 531 277 536 275 541C279 542 283 543 288 544L318 552C321 551 324 549 328 548C331 546 334 544 337 542C343 535 340 526 340 518C338 512 336 504 336 496C335 480 334 455 334 441L333 414C331 396 329 358 329 342L324 301C322 285 321 270 319 256C318 254 318 252 318 250L310 211C292 139 267 82 227 38C182 -10 148 -35 124 -35C123 -35 122 -35 121 -35Z"/>
	<path id="z38627d10" d="M388 147Q413 122 442 90Q452 78 467 78Q476 78 481 89Q485 101 480 127Q473 160 387 188Q374 192 368 191Q364 187 364 176Q365 166 388 147Z"/>
	<path id="z38627d11" d="M570 604C612 654 643 694 665 726C675 744 686 758 696 768C702 774 703 781 701 790C698 796 688 807 671 822C654 832 640 838 630 838C618 837 614 830 620 816C630 795 614 747 571 672C558 648 485 538 484 535C482 528 485 525 493 527C495 527 513 548 539 573Z"/>
	<path id="z38627d12" d="M604 179C603 367 606 474 613 522C617 540 613 557 601 571C589 583 578 594 570 604L539 573C541 564 545 556 550 550C560 528 568 497 574 438C568 300 563 217 559 191C541 94 532 44 533 42C537 9 547 -14 561 -28C573 -38 583 -35 591 -17C601 9 605 38 605 70C604 100 604 129 604 157Z"/>
	<path id="z38627d13" d="M738 688Q760 667 786 643Q799 630 814 631Q824 632 829 645Q833 658 825 687Q816 714 733 734Q718 738 712 735Q708 731 709 719Q712 709 738 688Z"/>
	<path id="z38627d14" d="M778 530Q922 564 927 568Q934 575 931 582Q924 592 899 598Q875 602 785 572Q716 556 651 548Q620 542 642 528Q678 507 728 521Q729 521 734 521L778 530Z"/>
	<path id="z38627d15" d="M781 207Q784 256 786 300L788 339Q789 381 793 418L796 459Q799 510 788 522Q782 526 778 530L734 521Q743 506 745 443L744 406Q743 375 742 327L741 291Q740 251 740 200L781 207Z"/>
	<path id="z38627d16" d="M793 418Q886 440 892 445Q899 452 895 459Q888 468 865 473Q840 477 796 459L745 443Q708 436 666 430Q636 424 658 412Q692 394 737 405Q738 406 744 406L793 418Z"/>
	<path id="z38627d17" d="M786 300Q826 310 869 318Q899 325 903 329Q910 336 906 343Q900 352 877 358Q850 362 788 339L742 327Q708 323 671 318Q641 314 662 299Q695 281 741 291L786 300Z"/>
	<path id="z38627d18" d="M740 200Q676 191 604 179L604 157Q629 139 658 147Q775 178 970 178Q986 179 991 186Q995 196 981 208Q930 244 870 224Q831 218 781 207L740 200Z"/>
	<defs>
		<clipPath id="z38627c1"><use xlink:href="#z38627d1"/></clipPath>
		<clipPath id="z38627c2"><use xlink:href="#z38627d2"/></clipPath>
		<clipPath id="z38627c3"><use xlink:href="#z38627d3"/></clipPath>
		<clipPath id="z38627c4"><use xlink:href="#z38627d4"/></clipPath>
		<clipPath id="z38627c5"><use xlink:href="#z38627d5"/></clipPath>
		<clipPath id="z38627c6"><use xlink:href="#z38627d6"/></clipPath>
		<clipPath id="z38627c7"><use xlink:href="#z38627d7"/></clipPath>
		<clipPath id="z38627c8"><use xlink:href="#z38627d8"/></clipPath>
		<clipPath id="z38627c9"><use xlink:href="#z38627d9"/></clipPath>
		<clipPath id="z38627c10"><use xlink:href="#z38627d10"/></clipPath>
		<clipPath id="z38627c11"><use xlink:href="#z38627d11"/></clipPath>
		<clipPath id="z38627c12"><use xlink:href="#z38627d12"/></clipPath>
		<clipPath id="z38627c13"><use xlink:href="#z38627d13"/></clipPath>
		<clipPath id="z38627c14"><use xlink:href="#z38627d14"/></clipPath>
		<clipPath id="z38627c15"><use xlink:href="#z38627d15"/></clipPath>
		<clipPath id="z38627c16"><use xlink:href="#z38627d16"/></clipPath>
		<clipPath id="z38627c17"><use xlink:href="#z38627d17"/></clipPath>
		<clipPath id="z38627c18"><use xlink:href="#z38627d18"/></clipPath>
	</defs>
	<path pathLength="2999" clip-path="url(#z38627c1)" d="M135 693L573 745"/>
	<path pathLength="2999" clip-path="url(#z38627c2)" d="M216 790L257 767L277 611"/>
	<path pathLength="2999" clip-path="url(#z38627c3)" d="M393 832L435 799L394 642"/>
	<path pathLength="2999" clip-path="url(#z38627c4)" d="M146 542L175 522L214 412"/>
	<path pathLength="2999" clip-path="url(#z38627c5)" d="M196 540L412 589L442 559L420 486"/>
	<path pathLength="2999" clip-path="url(#z38627c6)" d="M223 438L442 473"/>
	<path pathLength="2999" clip-path="url(#z38627c7)" d="M192 330L445 382"/>
	<path pathLength="2999" clip-path="url(#z38627c8)" d="M64 192L121 185L454 277L501 273"/>
	<path pathLength="2999" clip-path="url(#z38627c9)" d="M283 539L314 518L286 195L230 70L123 -29"/>
	<path pathLength="2999" clip-path="url(#z38627c10)" d="M372 181L450 124L469 83"/>
	<path pathLength="2999" clip-path="url(#z38627c11)" d="M625 833L661 781L492 533"/>
	<path pathLength="2999" clip-path="url(#z38627c12)" d="M565 595L590 471L573 -28"/>
	<path pathLength="2999" clip-path="url(#z38627c13)" d="M716 728L794 679L813 635"/>
	<path pathLength="2999" clip-path="url(#z38627c14)" d="M641 537L926 582"/>
	<path pathLength="2999" clip-path="url(#z38627c15)" d="M776 525L753 203"/>
	<path pathLength="2999" clip-path="url(#z38627c16)" d="M660 420L890 453"/>
	<path pathLength="2999" clip-path="url(#z38627c17)" d="M665 308L900 343"/>
	<path pathLength="2999" clip-path="url(#z38627c18)" d="M610 173L894 204L985 193"/>
</g>
</svg>