<!--
AnimCJK 2016-2017 Copyright Francois Mizessyn, http://gooo.free.fr/animCJK/
Derived from:
    MakeMeAHanzi project - https://github.com/skishore/makemeahanzi
    Arphic PL KaitiM GB - https://apps.ubuntu.com/cat/applications/precise/fonts-arphic-gkai00mp/
    Arphic PL UKai - https://apps.ubuntu.com/cat/applications/fonts-arphic-ukai/
You can redistribute and/or modify this file under the terms of the Arphic Public License
as published by Arphic Technology Co., Ltd.
You should have received a copy of this license (the directory "APL") along with this file;
if not, see http://ftp.gnu.org/non-gnu/chinese-fonts-truetype/LICENSE.
-->
<svg id="z38626" class="acjk" version="1.1" viewBox="0 0 1024 1024" xmlns="http://www.w3.org/2000/svg" xmlns:xlink="http://www.w3.org/1999/xlink">
<style>
<![CDATA[
	@keyframes z38626k {
		from {
			stroke:#c00;
			stroke-dashoffset:3000;
		}
		75% {
			stroke:#c00;
			stroke-dashoffset:0;
		}
		to {
			stroke:#000;
		}
	}
	#z38626 path[clip-path] {
		animation:z38626k 1s linear both;
		stroke-dasharray:3000;
		stroke-width:128;
		stroke-linecap:round;
		fill:none;
	}
	#z38626 path[clip-path="url(#z38626c1)"] {animation-delay:1s;}
	#z38626 path[clip-path="url(#z38626c2)"] {animation-delay:2s;}
	#z38626 path[clip-path="url(#z38626c3)"] {animation-delay:3s;}
	#z38626 path[clip-path="url(#z38626c4)"] {animation-delay:4s;}
	#z38626 path[clip-path="url(#z38626c5)"] {animation-delay:5s;}
	#z38626 path[clip-path="url(#z38626c6)"] {animation-delay:6s;}
	#z38626 path[clip-path="url(#z38626c7)"] {animation-delay:7s;}
	#z38626 path[clip-path="url(#z38626c8)"] {animation-delay:8s;}
	#z38626 path[clip-path="url(#z38626c9)"] {animation-delay:9s;}
	#z38626 path[clip-path="url(#z38626c10)"] {animation-delay:10s;}
	#z38626 path[clip-path="url(#z38626c11)"] {animation-delay:11s;}
	#z38626 path[clip-path="url(#z38626c12)"] {animation-delay:12s;}
	#z38626 path[clip-path="url(#z38626c13)"] {animation-delay:13s;}
	#z38626 path[clip-path="url(#z38626c14)"] {animation-delay:14s;}
	#z38626 path[clip-path="url(#z38626c15)"] {animation-delay:15s;}
	#z38626 path[clip-path="url(#z38626c16)"] {animation-delay:16s;}
	#z38626 path[clip-path="url(#z38626c17)"] {animation-delay:17s;}
	#z38626 path[clip-path="url(#z38626c18)"] {animation-delay:18s;}
	#z38626 path {fill:#ccc;}
]]>
</style>
<g transform="scale(1,-1) translate(0,-900)">
	<path id="z38626d1" d="M354 785Q376 770 403 752Q416 743 430 746Q439 747 441 760Q442 773 431 797Q424 812 397 819Q334 831 323 823Q320 819 323 808Q327 799 354 785Z"/>
	<path id="z38626d2" d="M374 659Q480 689 484 692Q491 699 487 706Q480 716 455 721Q428 725 348 695Q261 670 190 660Q159 654 182 640Q218 621 266 634Q303 643 344 652L374 659Z"/>
	<path id="z38626d3" d="M352 550Q365 568 380 589Q390 608 400 617Q406 624 403 633Q400 642 381 656Q377 659 374 659L344 652L345 651Q355 633 320 563L305 537Q289 510 268 480Q261 473 260 469Q259 462 267 464Q280 467 329 521L352 550Z"/>
	<path id="z38626d4" d="M329 521Q348 509 369 493Q379 484 388 483Q392 484 396 490Q400 497 390 520Q383 539 352 550L320 563Q278 578 255 584Q249 585 250 579Q250 573 305 537L329 521Z"/>
	<path id="z38626d5" d="M297 407Q394 437 422 433L422 463Q301 444 212 413Q197 410 201 427Q208 503 202 513Q175 543 156 540Q147 536 153 522Q169 485 164 449Q160 413 146 398Q133 385 138 374Q147 362 160 354Q170 348 179 355Q194 374 267 397L297 407Z"/>
	<path id="z38626d6" d="M422 433Q423 420 428 410Q434 398 443 405Q464 423 472 481Q488 545 496 554Q503 564 497 575Q484 588 462 603Q455 610 445 606Q439 605 440 594Q449 576 440 511Q437 495 422 463L422 433Z"/>
	<path id="z38626d7" d="M163 297Q136 307 122 306Q112 302 117 292Q153 228 134 116Q116 89 141 53Q144 47 150 41Q157 31 164 36Q182 51 182 155Q176 237 177 263L163 297Z"/>
	<path id="z38626d8" d="M309 300Q429 331 446 319Q462 315 464 290Q468 232 455 124Q455 102 434 102Q403 105 377 108Q362 109 367 101Q370 92 396 76Q433 51 456 20Q468 11 478 17Q487 21 499 51Q515 88 516 166Q509 298 522 319Q531 329 524 340Q514 350 476 366Q466 370 408 354Q386 353 319 333L280 324Q222 312 163 297L177 263Q184 264 191 268Q222 280 276 292L309 300Z"/>
	<path id="z38626d9" d="M368 242Q332 230 295 214Q291 213 290 213Q287 214 289 224Q299 267 309 300L319 333Q329 370 335 381Q339 391 333 397Q326 404 297 407L267 397Q266 393 272 384Q287 369 280 324L276 292Q261 223 233 184Q226 172 231 166Q238 156 260 148Q270 144 276 153Q288 174 372 224Q373 227 377 227L368 242Z"/>
	<path id="z38626d10" d="M377 227Q386 208 402 192Q409 188 417 193Q423 199 425 209Q425 240 373 282L372 283Q365 289 358 288Q354 289 353 282Q353 279 368 242L377 227Z"/>
	<path id="z38626d11" d="M581 561Q653 691 662 711Q669 742 694 775Q701 787 694 798Q688 810 659 826Q631 839 614 836Q598 832 608 812Q633 775 576 637Q549 573 509 501Q502 491 501 484Q500 474 512 478Q519 481 556 524L581 561Z"/>
	<path id="z38626d12" d="M623 163Q620 413 629 476Q636 504 617 525Q589 556 581 561L556 524Q586 461 587 384Q587 195 554 63Q544 18 578 -33Q579 -33 581 -36Q599 -52 611 -25Q627 21 623 137L623 163Z"/>
	<path id="z38626d13" d="M745 701Q767 683 790 662Q803 652 816 652Q825 653 829 664Q833 677 824 703Q815 727 739 743Q726 744 720 743Q716 739 717 728Q721 718 745 701Z"/>
	<path id="z38626d14" d="M776 532Q912 569 916 572Q923 579 919 586Q912 596 887 601Q862 605 836 594Q799 579 759 568Q714 555 662 548Q631 542 654 528Q684 512 736 522L776 532Z"/>
	<path id="z38626d15" d="M789 195Q790 244 791 287L792 326Q793 368 795 404L796 444Q796 462 799 490Q805 511 776 532L736 522Q748 495 749 430L749 394Q749 363 749 314L749 277Q749 238 749 187L789 195Z"/>
	<path id="z38626d16" d="M795 404Q829 414 868 422Q896 429 900 433Q907 440 903 447Q896 456 873 461Q846 465 796 444L749 430Q715 423 678 418Q648 412 670 400Q703 382 749 394L795 404Z"/>
	<path id="z38626d17" d="M791 287Q831 297 873 306Q903 313 907 317Q914 324 911 331Q904 340 881 345Q857 349 792 326L749 314Q715 307 674 302Q646 296 666 283Q699 265 745 277Q746 278 749 277L791 287Z"/>
	<path id="z38626d18" d="M749 187Q689 177 623 163L623 137Q641 127 704 141Q807 165 959 166Q975 167 980 174Q984 184 970 196Q919 229 863 212Q830 205 789 195L749 187Z"/>
	<defs>
		<clipPath id="z38626c1"><use xlink:href="#z38626d1"/></clipPath>
		<clipPath id="z38626c2"><use xlink:href="#z38626d2"/></clipPath>
		<clipPath id="z38626c3"><use xlink:href="#z38626d3"/></clipPath>
		<clipPath id="z38626c4"><use xlink:href="#z38626d4"/></clipPath>
		<clipPath id="z38626c5"><use xlink:href="#z38626d5"/></clipPath>
		<clipPath id="z38626c6"><use xlink:href="#z38626d6"/></clipPath>
		<clipPath id="z38626c7"><use xlink:href="#z38626d7"/></clipPath>
		<clipPath id="z38626c8"><use xlink:href="#z38626d8"/></clipPath>
		<clipPath id="z38626c9"><use xlink:href="#z38626d9"/></clipPath>
		<clipPath id="z38626c10"><use xlink:href="#z38626d10"/></clipPath>
		<clipPath id="z38626c11"><use xlink:href="#z38626d11"/></clipPath>
		<clipPath id="z38626c12"><use xlink:href="#z38626d12"/></clipPath>
		<clipPath id="z38626c13"><use xlink:href="#z38626d13"/></clipPath>
		<clipPath id="z38626c14"><use xlink:href="#z38626d14"/></clipPath>
		<clipPath id="z38626c15"><use xlink:href="#z38626d15"/></clipPath>
		<clipPath id="z38626c16"><use xlink:href="#z38626d16"/></clipPath>
		<clipPath id="z38626c17"><use xlink:href="#z38626d17"/></clipPath>
		<clipPath id="z38626c18"><use xlink:href="#z38626d18"/></clipPath>
	</defs>
	<path pathLength="2999" clip-path="url(#z38626c1)" d="M329 815L437 758"/>
	<path pathLength="2999" clip-path="url(#z38626c2)" d="M183 649L482 704"/>
	<path pathLength="2999" clip-path="url(#z38626c3)" d="M352 650L369 612L269 472"/>
	<path pathLength="2999" clip-path="url(#z38626c4)" d="M262 575L387 491"/>
	<path pathLength="2999" clip-path="url(#z38626c5)" d="M160 534L183 502L169 396L183 384L419 451"/>
	<path pathLength="2999" clip-path="url(#z38626c6)" d="M447 600L471 558L438 407"/>
	<path pathLength="2999" clip-path="url(#z38626c7)" d="M123 298L158 226L153 41"/>
	<path pathLength="2999" clip-path="url(#z38626c8)" d="M170 294L425 341L480 333L494 315L472 75L452 59L373 100"/>
	<path pathLength="2999" clip-path="url(#z38626c9)" d="M276 394L309 373L266 195L288 184L367 236"/>
	<path pathLength="2999" clip-path="url(#z38626c10)" d="M361 281L410 194"/>
	<path pathLength="2999" clip-path="url(#z38626c11)" d="M610 829L656 778L580 598L506 486"/>
	<path pathLength="2999" clip-path="url(#z38626c12)" d="M580 553L605 425L589 -37"/>
	<path pathLength="2999" clip-path="url(#z38626c13)" d="M725 735L825 663"/>
	<path pathLength="2999" clip-path="url(#z38626c14)" d="M654 537L914 582"/>
	<path pathLength="2999" clip-path="url(#z38626c15)" d="M743 520L772 491L760 193"/>
	<path pathLength="2999" clip-path="url(#z38626c16)" d="M670 408L898 442"/>
	<path pathLength="2999" clip-path="url(#z38626c17)" d="M665 295L907 329"/>
	<path pathLength="2999" clip-path="url(#z38626c18)" d="M626 144L878 190L976 181"/>
</g>
</svg>