<!--
AnimCJK 2016-2018 Copyright Francois Mizessyn, https://github.com/parsimonhi/animCJK
Derived from:
    MakeMeAHanzi project - https://github.com/skishore/makemeahanzi
    Arphic PL KaitiM GB - https://apps.ubuntu.com/cat/applications/precise/fonts-arphic-gkai00mp/
    Arphic PL UKai - https://apps.ubuntu.com/cat/applications/fonts-arphic-ukai/
You can redistribute and/or modify this file under the terms of the Arphic Public License
as published by Arphic Technology Co., Ltd.
You should have received a copy of this license (the directory "APL") along with this file;
if not, see http://ftp.gnu.org/non-gnu/chinese-fonts-truetype/LICENSE.
-->
<svg id="z38634" class="acjk" version="1.1" viewBox="0 0 1024 1024" xmlns="http://www.w3.org/2000/svg" xmlns:xlink="http://www.w3.org/1999/xlink">
<style>
<![CDATA[
@keyframes z38634k {
	from {
		stroke:#c00;
		stroke-dashoffset:3334;
	}
	75% {
		stroke:#c00;
		stroke-dashoffset:0;
	}
	to {
		stroke:#000;
	}
}
#z38634 path[clip-path] {
	animation:z38634k 1s linear both;
	stroke-dasharray:3334;
	stroke-width:128;
	stroke-linecap:round;
	fill:none;
}
#z38634 path[clip-path="url(#z38634c1)"] {animation-delay:1s;}
#z38634 path[clip-path="url(#z38634c2)"] {animation-delay:2s;}
#z38634 path[clip-path="url(#z38634c3)"] {animation-delay:3s;}
#z38634 path[clip-path="url(#z38634c4)"] {animation-delay:4s;}
#z38634 path[clip-path="url(#z38634c5)"] {animation-delay:5s;}
#z38634 path[clip-path="url(#z38634c6)"] {animation-delay:6s;}
#z38634 path[clip-path="url(#z38634c7)"] {animation-delay:7s;}
#z38634 path[clip-path="url(#z38634c8)"] {animation-delay:8s;}
#z38634 path[clip-path="url(#z38634c9)"] {animation-delay:9s;}
#z38634 path[clip-path="url(#z38634c10)"] {animation-delay:10s;}
#z38634 path[clip-path="url(#z38634c11)"] {animation-delay:11s;}
#z38634 path {fill:#ccc;}
]]>
</style>
<path id="z38634d1" d="M513 186Q574 174 644 164Q687 157 693 151Q703 142 699 133Q692 120 661 111Q631 105 529 132Q415 150 368 153Q328 157 356 177Q401 204 461 193Q464 192 469 193L513 186 Z"/>
<path id="z38634d2" d="M257 313Q247 291 236 283Q217 267 214 295Q220 337 149 411Q125 436 155 497Q170 525 193 497Q212 469 227 429Q257 350 261 346L257 313 Z"/>
<path id="z38634d3" d="M532 307Q706 274 761 283Q777 292 776 299Q754 344 731 392Q731 393 733 395Q740 399 757 389Q815 352 863 341Q903 329 902 320Q901 310 831 254Q809 235 723 250Q611 262 534 276L487 282Q432 288 371 299Q313 308 257 313L261 346Q286 358 318 349Q420 318 489 313L532 307 Z"/>
<path id="z38634d4" d="M489 313Q489 400 472 508Q460 550 492 586Q501 596 510 586Q531 556 531 458Q531 383 532 307L534 276Q535 251 540 228Q547 206 527 195Q520 191 513 186L469 193Q469 194 470 198Q486 237 487 282L489 313 Z"/>
<path id="z38634d5" d="M331 422Q368 455 395 463Q407 463 412 452Q415 442 411 429Q404 411 389 403Q364 391 325 390Q319 390 316 393Q312 394 315 404Q316 413 331 422 Z"/>
<path id="z38634d6" d="M316 535Q353 568 378 572Q391 572 396 560Q399 550 394 535Q385 517 369 509Q321 493 300 505Q296 506 299 517Q302 526 316 535 Z"/>
<path id="z38634d7" d="M597 388Q648 419 676 425Q688 424 692 412Q693 402 689 389Q668 358 599 357Q586 357 579 361Q575 364 579 372Q583 381 597 388 Z"/>
<path id="z38634d8" d="M587 494Q635 530 659 535Q671 536 676 524Q679 514 675 501Q660 474 592 463Q579 462 572 465Q568 466 571 476Q574 485 587 494 Z"/>
<path id="z38634d9" d="M687 840Q718 710 764 675Q783 654 767 634Q748 618 690 589Q671 579 645 589Q513 632 325 643Q306 644 307 655Q310 664 330 672Q358 687 398 675Q510 660 617 644Q645 640 655 651Q668 664 665 690Q652 769 634 833L687 840 Z"/>
<path id="z38634d10" d="M293 757Q265 760 286 777Q316 802 344 796Q467 774 597 763Q607 764 616 753Q617 743 596 731Q566 709 490 731Q474 732 456 737Q405 747 360 751Q329 752 293 757 Z"/>
<path id="z38634d11" d="M634 833Q631 832 628 833Q445 867 299 877Q275 878 289 900Q296 910 308 916Q321 920 336 917Q453 895 703 884Q716 883 718 873Q719 863 687 840L634 833 Z"/>
<defs>
	<clipPath id="z38634c1"><use xlink:href="#z38634d1"/></clipPath>
	<clipPath id="z38634c2"><use xlink:href="#z38634d2"/></clipPath>
	<clipPath id="z38634c3"><use xlink:href="#z38634d3"/></clipPath>
	<clipPath id="z38634c4"><use xlink:href="#z38634d4"/></clipPath>
	<clipPath id="z38634c5"><use xlink:href="#z38634d5"/></clipPath>
	<clipPath id="z38634c6"><use xlink:href="#z38634d6"/></clipPath>
	<clipPath id="z38634c7"><use xlink:href="#z38634d7"/></clipPath>
	<clipPath id="z38634c8"><use xlink:href="#z38634d8"/></clipPath>
	<clipPath id="z38634c9"><use xlink:href="#z38634d9"/></clipPath>
	<clipPath id="z38634c10"><use xlink:href="#z38634d10"/></clipPath>
	<clipPath id="z38634c11"><use xlink:href="#z38634d11"/></clipPath>
</defs>
<path pathLength="3333" clip-path="url(#z38634c1)" d="M352 162L424 172L694 137"/>
<path pathLength="3333" clip-path="url(#z38634c2)" d="M225 282L234 336L166 506"/>
<path pathLength="3333" clip-path="url(#z38634c3)" d="M265 316L308 329L770 264L818 290L849 332L740 389"/>
<path pathLength="3333" clip-path="url(#z38634c4)" d="M477 198L511 223L499 581"/>
<path pathLength="3333" clip-path="url(#z38634c5)" d="M322 399L408 449"/>
<path pathLength="3333" clip-path="url(#z38634c6)" d="M306 511L391 563"/>
<path pathLength="3333" clip-path="url(#z38634c7)" d="M584 364L688 411"/>
<path pathLength="3333" clip-path="url(#z38634c8)" d="M579 471L673 520"/>
<path pathLength="3333" clip-path="url(#z38634c9)" d="M313 651L378 659L666 616L720 665L656 835"/>
<path pathLength="3333" clip-path="url(#z38634c10)" d="M288 768L609 751"/>
<path pathLength="3333" clip-path="url(#z38634c11)" d="M291 886L713 870"/>
</svg>