<!--
AnimCJK 2016-2025 Copyright FM-SH - https://github.com/parsimonhi/animCJK
Derived from:
    MakeMeAHanzi project - https://github.com/skishore/makemeahanzi
    Arphic PL KaitiM GB font
    Arphic PL KaitiM Big5 font
You can redistribute and/or modify this file under the terms of the Arphic Public License
as published by Arphic Technology Co., Ltd.
You should have received a copy of this license along with this file.
If not, see https://ftp.gnu.org/non-gnu/chinese-fonts-truetype/LICENSE.
-->
<svg id="z38656" class="acjk" viewBox="0 0 1024 1024" xmlns="http://www.w3.org/2000/svg">
<style>
<![CDATA[
@keyframes zk {
	to {
		stroke-dashoffset:0;
	}
}
svg.acjk path[clip-path] {
	--t:0.8s;
	animation:zk var(--t) linear forwards var(--d);
	stroke-dasharray:3337;
	stroke-dashoffset:3339;
	stroke-width:128;
	stroke-linecap:round;
	fill:none;
	stroke:#000;
}
svg.acjk path[id] {fill:#ccc;}
]]>
</style>
<path id="z38656d1" d="M514 142C629 119 691 112 698 107C704 102 704 96 702 92C697 82 685 76 668 72C648 67 629 68 610 75C535 98 458 107 387 113C362 114 358 123 376 135C400 152 446 155 478 149C502 144 502 144 514 142Z"/>
<path id="z38656d2" d="M264 259C256 244 248 233 242 228C229 217 220 221 221 239C221 259 204 298 178 328C157 350 150 377 171 421C179 439 195 440 206 421C236 364 241 331 265 284C269 277 268 266 264 259Z"/>
<path id="z38656d3" d="M540 250C660 231 732 219 759 228C770 231 774 240 773 246C772 246 763 272 741 322C737 331 735 336 741 339C744 341 753 338 764 331C800 305 834 289 864 280C888 272 900 264 900 259C899 251 876 228 828 198C782 168 772 186 541 221C510 226 510 226 494 228C414 239 337 251 264 259C256 260 258 280 265 284C281 294 302 298 328 292C396 273 452 263 495 257C525 252 525 252 540 250Z"/>
<path id="z38656d4" d="M495 257Q495 314 482 399Q473 435 500 466Q509 476 518 466Q539 433 538 390Q537 359 540 264Q540 257 540 250C541 231 541 231 541 221Q542 202 546 185Q553 164 534 154Q524 147 514 142C504 136 476 137 478 149Q478 152 479 156Q488 174 494 228C495 247 495 247 495 257Z"/>
<path id="z38656d5" d="M328 345C367 373 394 385 409 383C416 381 421 375 421 364C420 355 416 346 407 338C389 322 361 319 326 322C320 322 317 325 319 332C319 336 322 341 328 345Z"/>
<path id="z38656d6" d="M316 441C359 469 388 481 401 479C408 477 413 471 413 460C412 451 407 443 398 434C389 425 377 422 363 421C338 418 322 416 314 417C307 417 305 421 307 428C307 432 310 437 316 441Z"/>
<path id="z38656d7" d="M599 311C643 332 672 341 686 337C692 334 697 327 696 316C694 308 687 301 677 293C661 280 633 279 593 288C587 289 585 292 588 300C589 304 592 307 599 311Z"/>
<path id="z38656d8" d="M601 405C647 433 678 445 693 443C700 441 705 435 705 424C704 415 699 407 689 398C680 389 667 386 651 385C624 382 606 379 597 381C592 381 591 385 592 392C592 396 594 401 601 405Z"/>
<path id="z38656d9" d="M479 553C526 544 575 535 627 526C655 521 672 515 678 511C684 506 685 500 683 496C678 486 665 481 648 476C631 471 588 483 514 501C446 516 392 521 354 525C330 527 325 534 343 546C368 563 393 568 440 560C466 555 466 555 479 553Z"/>
<path id="z38656d10" d="M431 647C494 576 513 597 479 553C471 542 440 547 440 560C439 586 422 608 399 652C393 661 425 656 431 647Z"/>
<path id="z38656d11" d="M269 674C251 663 237 657 229 656C224 655 221 656 220 660C217 664 217 670 221 678C237 706 247 756 245 828C244 842 244 856 252 868C259 880 269 889 280 896C288 901 291 898 295 893C299 885 303 860 299 815C294 766 291 733 291 715C291 699 281 683 269 674Z"/>
<path id="z38656d12" d="M565 661C611 655 660 650 716 651C740 651 746 665 744 684C731 779 723 833 715 847C711 852 706 853 698 851C681 847 664 843 649 839C629 834 625 840 638 854C673 894 699 926 713 953C718 962 726 965 734 959C752 945 771 911 781 857C798 761 809 706 822 693C833 680 835 669 832 664C827 654 806 640 775 616C761 606 741 601 731 604C651 621 489 637 431 647C410 650 410 650 399 652C364 657 296 670 269 674C254 677 277 721 291 715C310 709 348 697 374 692C397 687 397 687 409 684C443 676 480 670 520 666C550 663 550 663 565 661Z"/>
<path id="z38656d13" d="M374 692C384 702 390 743 393 817C393 831 396 844 403 856C411 870 418 873 423 864C427 855 431 840 432 818C432 694 458 711 409 684C399 678 367 682 374 692Z"/>
<path id="z38656d14" d="M535 885C542 933 559 922 567 881C572 857 577 821 582 773C590 678 618 687 565 661C551 655 514 652 520 666C534 705 532 776 533 821C533 852 533 874 535 885Z"/>
<defs>
	<clipPath id="z38656c1"><use href="#z38656d1"/></clipPath>
	<clipPath id="z38656c2"><use href="#z38656d2"/></clipPath>
	<clipPath id="z38656c3"><use href="#z38656d3"/></clipPath>
	<clipPath id="z38656c4"><use href="#z38656d4"/></clipPath>
	<clipPath id="z38656c5"><use href="#z38656d5"/></clipPath>
	<clipPath id="z38656c6"><use href="#z38656d6"/></clipPath>
	<clipPath id="z38656c7"><use href="#z38656d7"/></clipPath>
	<clipPath id="z38656c8"><use href="#z38656d8"/></clipPath>
	<clipPath id="z38656c9"><use href="#z38656d9"/></clipPath>
	<clipPath id="z38656c10"><use href="#z38656d10"/></clipPath>
	<clipPath id="z38656c11"><use href="#z38656d11"/></clipPath>
	<clipPath id="z38656c12"><use href="#z38656d12"/></clipPath>
	<clipPath id="z38656c13"><use href="#z38656d13"/></clipPath>
	<clipPath id="z38656c14"><use href="#z38656d14"/></clipPath>
</defs>
<path style="--d:1s;" pathLength="3333" clip-path="url(#z38656c1)" d="M375 123L698 93"/>
<path style="--d:2s;" pathLength="3333" clip-path="url(#z38656c2)" d="M231 226L240 274L183 428"/>
<path style="--d:3s;" pathLength="3333" clip-path="url(#z38656c3)" d="M264 268L762 205L802 219L845 267L745 333"/>
<path style="--d:4s;" pathLength="3333" clip-path="url(#z38656c4)" d="M486 148L518 182L507 467"/>
<path style="--d:5s;" pathLength="3333" clip-path="url(#z38656c5)" d="M325 329L414 373"/>
<path style="--d:6s;" pathLength="3333" clip-path="url(#z38656c6)" d="M312 426L408 464"/>
<path style="--d:7s;" pathLength="3333" clip-path="url(#z38656c7)" d="M595 295L692 319"/>
<path style="--d:8s;" pathLength="3333" clip-path="url(#z38656c8)" d="M599 389L699 429"/>
<path style="--d:9s;" pathLength="3333" clip-path="url(#z38656c9)" d="M341 533L401 542L679 499"/>
<path style="--d:10s;" pathLength="3333" clip-path="url(#z38656c10)" d="M450 551L464 585L405 649"/>
<path style="--d:11s;" pathLength="3333" clip-path="url(#z38656c11)" d="M225 661L263 712L283 894"/>
<path style="--d:12s;" pathLength="3333" clip-path="url(#z38656c12)" d="M270 682L748 632L788 676L732 890L715 908L637 844"/>
<path style="--d:13s;" pathLength="3333" clip-path="url(#z38656c13)" d="M380 688L411 714L413 860"/>
<path style="--d:14s;" pathLength="3333" clip-path="url(#z38656c14)" d="M529 665L562 699L548 910"/>
</svg>