<!--
AnimCJK 2016-2026 Copyright FM-SH, https://github.com/parsimonhi/animCJK
Derived from:
    MakeMeAHanzi project - https://github.com/skishore/makemeahanzi
    Arphic PL KaitiM GB font
    Arphic PL KaitiM Big5 font
You can redistribute and/or modify this file under the terms of the Arphic Public License
as published by Arphic Technology Co., Ltd.
You should have received a copy of this license along with this file.
If not, see https://ftp.gnu.org/non-gnu/chinese-fonts-truetype/LICENSE.
-->
<svg id="z38752" class="acjk" viewBox="0 0 1024 1024" xmlns="http://www.w3.org/2000/svg">
<style>
<![CDATA[
@keyframes zk {
	to {
		stroke-dashoffset:0;
	}
}
svg.acjk path[clip-path] {
	--t:0.8s;
	animation:zk var(--t) linear forwards var(--d);
	stroke-dasharray:3337;
	stroke-dashoffset:3339;
	stroke-width:128;
	stroke-linecap:round;
	fill:none;
	stroke:#000;
}
svg.acjk path[id] {fill:#ccc;}
]]>
</style>
<path id="z38752d1" d="M383 182C393 169 404 156 416 145C422 138 422 128 415 122C390 99 372 90 360 90C353 90 350 93 351 104C352 147 328 203 272 250C237 278 229 298 278 276C317 257 348 225 368 201C378 188 378 188 383 182Z"/>
<path id="z38752d2" d="M540 202C571 197 602 190 635 184C661 178 677 173 682 170C688 165 689 159 686 155C681 147 670 139 654 137C631 134 568 152 546 157C507 164 507 164 488 168C463 172 419 178 383 182C375 184 361 198 368 201C413 222 449 216 489 210C523 205 523 205 540 202Z"/>
<path id="z38752d3" d="M489 281C378 294 258 310 129 325C114 326 111 332 123 345C132 355 143 361 156 365C170 369 183 369 195 366C276 343 376 326 490 315C501 313 512 312 524 311C626 301 738 298 865 298C874 297 890 296 895 289C899 281 895 272 884 263C847 234 806 225 763 236C719 246 565 271 529 276C502 279 502 279 489 281Z"/>
<path id="z38752d4" d="M529 276C533 248 536 227 540 202C544 172 544 172 546 157C549 129 553 104 563 84C565 77 560 67 548 59C525 45 506 38 493 36C469 31 459 44 470 61C488 93 487 134 488 168C489 196 489 196 489 210C489 234 489 250 489 281C488 294 489 305 490 315C494 380 509 384 524 311C526 301 526 289 529 276Z"/>
<path id="z38752d5" d="M381 375C362 370 317 356 338 392C351 416 365 447 376 488C379 500 384 509 392 518C409 537 410 529 416 505C418 495 414 484 413 475C407 440 402 414 402 402C402 391 392 377 381 375Z"/>
<path id="z38752d6" d="M644 452C660 424 676 408 689 400C701 391 701 378 693 369C684 358 664 347 636 332C625 326 614 325 602 330C545 349 471 365 381 375C370 377 391 404 402 402C532 381 599 371 606 374C612 376 610 386 610 392C608 403 605 421 598 445C595 460 635 464 644 452Z"/>
<path id="z38752d7" d="M416 505C436 507 531 495 656 484C683 481 664 463 644 452C631 444 613 442 598 445C529 459 467 469 413 475C403 477 406 505 416 505Z"/>
<path id="z38752d8" d="M468 609C468 588 481 563 458 552C427 536 407 532 399 534C386 536 386 542 396 558C403 568 408 583 410 600C412 623 412 623 413 634C414 650 413 671 413 696C412 716 412 716 412 726C411 742 409 760 404 780C397 804 397 804 394 816C379 868 347 908 314 941C284 969 309 964 332 953C463 877 462 742 468 609Z"/>
<path id="z38752d9" d="M410 600C379 590 334 605 313 609C293 611 272 611 253 613C232 614 228 621 243 631C261 643 296 643 343 641C363 639 390 636 413 634C424 632 421 602 410 600Z"/>
<path id="z38752d10" d="M413 696C401 688 368 691 316 703C300 706 282 706 264 708C243 709 239 717 255 727C273 739 312 738 367 732C380 730 401 723 412 726C422 728 422 700 413 696Z"/>
<path id="z38752d11" d="M404 780C359 790 273 810 215 823C203 825 186 824 169 824C152 823 147 843 160 854C171 864 187 876 208 889C213 891 221 890 229 885C259 865 314 842 394 816C406 811 416 778 404 780Z"/>
<path id="z38752d12" d="M620 692C620 655 621 627 621 607C621 588 621 588 621 579C621 567 624 553 620 544C606 512 526 487 556 546C570 574 575 621 572 708C568 850 555 897 557 915C560 941 570 959 585 977C591 985 599 986 607 977C615 965 620 916 620 832C620 814 620 814 620 805C620 746 620 746 620 717C620 700 620 700 620 692Z"/>
<path id="z38752d13" d="M621 607C675 596 754 589 785 580C806 573 775 553 753 550C723 545 719 561 621 579C612 581 612 609 621 607Z"/>
<path id="z38752d14" d="M620 717C642 721 702 712 731 709C749 707 775 704 783 697C800 681 765 669 757 668C737 665 715 678 620 692C612 693 612 715 620 717Z"/>
<path id="z38752d15" d="M620 832C639 840 717 829 755 826C787 822 819 821 851 819C881 816 867 798 845 783C817 764 794 770 751 781C717 789 670 796 620 805C611 807 611 830 620 832Z"/>
<defs>
	<clipPath id="z38752c1"><use href="#z38752d1"/></clipPath>
	<clipPath id="z38752c2"><use href="#z38752d2"/></clipPath>
	<clipPath id="z38752c3"><use href="#z38752d3"/></clipPath>
	<clipPath id="z38752c4"><use href="#z38752d4"/></clipPath>
	<clipPath id="z38752c5"><use href="#z38752d5"/></clipPath>
	<clipPath id="z38752c6"><use href="#z38752d6"/></clipPath>
	<clipPath id="z38752c7"><use href="#z38752d7"/></clipPath>
	<clipPath id="z38752c8"><use href="#z38752d8"/></clipPath>
	<clipPath id="z38752c9"><use href="#z38752d9"/></clipPath>
	<clipPath id="z38752c10"><use href="#z38752d10"/></clipPath>
	<clipPath id="z38752c11"><use href="#z38752d11"/></clipPath>
	<clipPath id="z38752c12"><use href="#z38752d12"/></clipPath>
	<clipPath id="z38752c13"><use href="#z38752d13"/></clipPath>
	<clipPath id="z38752c14"><use href="#z38752d14"/></clipPath>
	<clipPath id="z38752c15"><use href="#z38752d15"/></clipPath>
</defs>
<path style="--d:1s;" pathLength="3333" clip-path="url(#z38752c1)" d="M358 95L380 146L250 278"/>
<path style="--d:2s;" pathLength="3333" clip-path="url(#z38752c2)" d="M372 197L680 152"/>
<path style="--d:3s;" pathLength="3333" clip-path="url(#z38752c3)" d="M122 334L186 343L789 265L893 282"/>
<path style="--d:4s;" pathLength="3333" clip-path="url(#z38752c4)" d="M472 44L523 88L505 355"/>
<path style="--d:5s;" pathLength="3333" clip-path="url(#z38752c5)" d="M340 377L372 399L404 520"/>
<path style="--d:6s;" pathLength="3333" clip-path="url(#z38752c6)" d="M386 380L614 351L654 390L618 457"/>
<path style="--d:7s;" pathLength="3333" clip-path="url(#z38752c7)" d="M409 486L662 471"/>
<path style="--d:8s;" pathLength="3333" clip-path="url(#z38752c8)" d="M397 544L439 580L429 776L387 881L308 955"/>
<path style="--d:9s;" pathLength="3333" clip-path="url(#z38752c9)" d="M243 621L417 618"/>
<path style="--d:10s;" pathLength="3333" clip-path="url(#z38752c10)" d="M252 715L416 715"/>
<path style="--d:11s;" pathLength="3333" clip-path="url(#z38752c11)" d="M155 837L220 855L407 792"/>
<path style="--d:12s;" pathLength="3333" clip-path="url(#z38752c12)" d="M557 518L594 575L591 979"/>
<path style="--d:13s;" pathLength="3333" clip-path="url(#z38752c13)" d="M619 596L785 573"/>
<path style="--d:14s;" pathLength="3333" clip-path="url(#z38752c14)" d="M618 706L783 691"/>
<path style="--d:15s;" pathLength="3333" clip-path="url(#z38752c15)" d="M616 819L861 802"/>
</svg>