<!--
AnimCJK 2016-2019 Copyright Francois Mizessyn - https://github.com/parsimonhi/animCJK
Derived from:
    MakeMeAHanzi project - https://github.com/skishore/makemeahanzi
    Arphic PL KaitiM GB font
    Arphic PL UKai font
You can redistribute and/or modify this file under the terms of the Arphic Public License
as published by Arphic Technology Co., Ltd.
You should have received a copy of this license along with this file.
If not, see http://ftp.gnu.org/non-gnu/chinese-fonts-truetype/LICENSE.
-->
<svg id="z38750" class="acjk" version="1.1" viewBox="0 0 1024 1024" xmlns="http://www.w3.org/2000/svg" xmlns:xlink="http://www.w3.org/1999/xlink">
<style>
<![CDATA[
@keyframes zk {
	to {
		stroke-dashoffset:0;
	}
}
svg.acjk path[clip-path] {
	--t:0.8s;
	animation:zk var(--t) linear forwards var(--d);
	stroke-dasharray:3337;
	stroke-dashoffset:3339;
	stroke-width:128;
	stroke-linecap:round;
	fill:none;
	stroke:#000;
}
svg.acjk path[id] {fill:#ccc;}
]]>
</style>
<path id="z38750d1" d="M245 921C245 917 248 914 270 891C314 846 327 827 346 786C361 753 380 708 387 649C390 619 390 619 392 604C396 568 398 532 398 496C399 469 399 469 399 456C399 418 399 381 397 343C396 314 396 314 395 300C394 281 388 261 385 247C379 227 377 219 369 202C361 185 361 182 368 177C379 170 412 177 443 192C459 200 465 204 468 210C471 216 471 221 465 237C458 256 453 278 451 296C450 305 449 334 448 371C446 443 444 552 442 583C440 610 440 610 439 623C437 659 429 708 421 739C399 824 357 878 294 911C276 921 269 923 256 923C246 923 245 923 245 921Z"/>
<path id="z38750d2" d="M397 343C355 354 288 371 247 382C215 391 166 364 173 346C175 341 180 339 193 337C226 333 373 304 395 300C409 297 411 340 397 343Z"/>
<path id="z38750d3" d="M398 496C369 502 340 511 306 522C281 530 274 533 260 533C247 533 236 531 224 525C211 519 204 513 201 507C200 502 200 501 201 498C203 493 207 491 223 489C248 485 373 460 399 456C412 453 411 493 398 496Z"/>
<path id="z38750d4" d="M387 647C322 678 254 717 222 741C202 756 199 756 179 746C153 733 135 723 131 718C122 709 121 695 130 689C133 687 136 687 149 686C177 684 169 686 299 638C299 638 361 617 392 604C425 590 425 590 442 583C474 569 504 559 511 560C518 561 519 562 516 567C512 574 504 584 488 594C474 603 467 610 439 623C404 639 404 639 387 647Z"/>
<path id="z38750d5" d="M646 619Q646 556 646 478C646 459 646 459 646 449Q646 377 645 305C646 286 646 286 646 276Q647 198 663 143Q673 127 669 111Q662 101 599 64Q574 45 550 63Q544 69 552 86Q588 137 588 195Q606 666 570 804Q558 849 588 916Q595 935 604 939Q611 946 619 937Q649 916 648 847Q647 817 646 652C646 630 646 630 646 619Z"/>
<path id="z38750d6" d="M645 305Q655 309 674 308Q777 295 853 288Q884 284 873 266Q860 247 826 240Q787 233 646 276C637 279 636 301 645 305Z"/>
<path id="z38750d7" d="M646 478Q649 478 842 463Q872 459 861 442Q848 423 816 416Q777 410 646 449C637 451 636 478 646 478Z"/>
<path id="z38750d8" d="M646 652Q658 656 678 656Q807 646 901 642Q935 639 925 620Q912 598 875 587Q833 578 646 619C635 621 635 650 646 652Z"/>
<defs>
	<clipPath id="z38750c1"><use xlink:href="#z38750d1"/></clipPath>
	<clipPath id="z38750c2"><use xlink:href="#z38750d2"/></clipPath>
	<clipPath id="z38750c3"><use xlink:href="#z38750d3"/></clipPath>
	<clipPath id="z38750c4"><use xlink:href="#z38750d4"/></clipPath>
	<clipPath id="z38750c5"><use xlink:href="#z38750d5"/></clipPath>
	<clipPath id="z38750c6"><use xlink:href="#z38750d6"/></clipPath>
	<clipPath id="z38750c7"><use xlink:href="#z38750d7"/></clipPath>
	<clipPath id="z38750c8"><use xlink:href="#z38750d8"/></clipPath>
</defs>
<path style="--d:1s;" pathLength="3333" clip-path="url(#z38750c1)" d="M369 185L430 241L412 663L369 815L252 919"/>
<path style="--d:2s;" pathLength="3333" clip-path="url(#z38750c2)" d="M181 351L390 333"/>
<path style="--d:3s;" pathLength="3333" clip-path="url(#z38750c3)" d="M210 502L393 483"/>
<path style="--d:4s;" pathLength="3333" clip-path="url(#z38750c4)" d="M131 702L195 719L507 568"/>
<path style="--d:5s;" pathLength="3333" clip-path="url(#z38750c5)" d="M554 67L626 133L606 936"/>
<path style="--d:6s;" pathLength="3333" clip-path="url(#z38750c6)" d="M649 298L871 268"/>
<path style="--d:7s;" pathLength="3333" clip-path="url(#z38750c7)" d="M653 470L781 442L859 448"/>
<path style="--d:8s;" pathLength="3333" clip-path="url(#z38750c8)" d="M653 646L854 614L921 627"/>
</svg>