<!--
AnimCJK 2016-2018 Copyright Francois Mizessyn - https://github.com/parsimonhi/animCJK
Derived from:
    MakeMeAHanzi project - https://github.com/skishore/makemeahanzi
    Arphic PL KaitiM GB font
    Arphic PL UKai font
You can redistribute and/or modify this file under the terms of the Arphic Public License
as published by Arphic Technology Co., Ltd.
You should have received a copy of this license along with this file.
If not, see http://ftp.gnu.org/non-gnu/chinese-fonts-truetype/LICENSE.
-->
<svg id="z38917" class="acjk" version="1.1" viewBox="0 0 1024 1024" xmlns="http://www.w3.org/2000/svg" xmlns:xlink="http://www.w3.org/1999/xlink">
<style>
<![CDATA[
@keyframes zk {
	to {
		stroke-dashoffset:0;
	}
}
svg.acjk path[clip-path] {
	--t:0.8s;
	animation:zk var(--t) linear forwards calc(var(--d) * 1.25 * var(--t));
	stroke-dasharray:3337;
	stroke-dashoffset:3339;
	stroke-width:128;
	stroke-linecap:round;
	fill:none;
	stroke:#000;
}
svg.acjk path[id] {fill:#ccc;}
]]>
</style>
<path id="z38917d1" d="M305 268Q342 256 383 246Q416 236 421 231Q428 224 424 215Q417 205 387 199Q362 195 279 229Q216 250 154 259Q120 268 146 282Q191 301 249 283Q256 280 268 279C293 272 293 272 305 268Z"/>
<path id="z38917d2" d="M316 485Q331 293 332 293Q319 278 305 268C295 260 264 267 268 279Q277 297 272 500C272 515 316 500 316 485Z"/>
<path id="z38917d3" d="M272 500Q203 521 134 544Q115 551 81 551Q68 552 66 564Q65 577 74 586Q98 602 133 620Q143 623 155 614Q198 580 376 497Q401 484 421 469Q434 462 434 452Q428 446 416 449Q367 465 316 485C287 495 287 495 272 500Z"/>
<path id="z38917d4" d="M624 185Q688 167 855 161Q903 161 908 151Q912 141 897 129Q852 98 792 112Q693 133 470 176Q451 179 466 193Q479 205 496 209Q515 213 529 208Q557 199 588 193C612 188 612 188 624 185Z"/>
<path id="z38917d5" d="M578 330Q602 297 625 263Q632 251 646 236Q659 226 653 216Q646 201 624 185C614 178 586 181 588 193Q594 221 558 309Q551 322 548 335C546 345 572 338 578 330Z"/>
<path id="z38917d6" d="M512 340Q499 333 484 328Q477 327 471 334Q468 338 475 347Q511 437 488 596Q476 647 480 662Q489 690 499 701Q509 713 516 701Q522 694 526 681C530 662 530 662 532 652Q535 627 536 569C536 552 536 552 536 543Q536 509 535 473C535 456 535 456 535 448Q534 390 538 372Q538 369 538 368C538 355 523 346 512 340Z"/>
<path id="z38917d7" d="M751 659Q752 668 759 677Q772 707 782 706Q797 705 813 672Q828 645 826 624Q799 413 838 349Q848 333 841 324Q813 300 766 281Q750 277 728 285Q689 303 578 330C558 333 558 333 548 335Q527 336 512 340C499 342 525 370 538 368Q539 367 543 367Q640 339 712 324Q737 317 746 330Q761 349 760 414Q761 592 753 630C751 640 749 649 751 659Z"/>
<path id="z38917d8" d="M535 473Q541 474 550 473Q638 457 703 447Q725 443 717 431Q707 418 683 413Q659 412 535 448C527 451 527 473 535 473Z"/>
<path id="z38917d9" d="M536 569Q540 569 546 569Q636 556 703 547Q725 543 717 531Q707 518 683 513Q665 510 536 543C527 544 527 569 536 569Z"/>
<path id="z38917d10" d="M526 681Q530 681 539 681Q660 666 751 659C761 659 761 635 753 630Q746 626 736 623Q717 620 532 652C522 654 516 681 526 681Z"/>
<path id="z38917d11" d="M536 733Q518 800 338 924Q316 937 343 936Q410 940 551 824Q554 818 606 775Q618 765 617 754Q614 741 589 730Q561 717 548 719Q541 720 536 733Z"/>
<path id="z38917d12" d="M703 761Q758 822 822 909Q837 931 852 937Q861 938 869 930Q882 917 875 872Q869 815 707 729Q698 723 695 735Q694 748 703 761Z"/>
<defs>
	<clipPath id="z38917c1"><use xlink:href="#z38917d1"/></clipPath>
	<clipPath id="z38917c2"><use xlink:href="#z38917d2"/></clipPath>
	<clipPath id="z38917c3"><use xlink:href="#z38917d3"/></clipPath>
	<clipPath id="z38917c4"><use xlink:href="#z38917d4"/></clipPath>
	<clipPath id="z38917c5"><use xlink:href="#z38917d5"/></clipPath>
	<clipPath id="z38917c6"><use xlink:href="#z38917d6"/></clipPath>
	<clipPath id="z38917c7"><use xlink:href="#z38917d7"/></clipPath>
	<clipPath id="z38917c8"><use xlink:href="#z38917d8"/></clipPath>
	<clipPath id="z38917c9"><use xlink:href="#z38917d9"/></clipPath>
	<clipPath id="z38917c10"><use xlink:href="#z38917d10"/></clipPath>
	<clipPath id="z38917c11"><use xlink:href="#z38917d11"/></clipPath>
	<clipPath id="z38917c12"><use xlink:href="#z38917d12"/></clipPath>
</defs>
<path style="--d:1;" pathLength="3333" clip-path="url(#z38917c1)" d="M140 269L421 217"/>
<path style="--d:2;" pathLength="3333" clip-path="url(#z38917c2)" d="M273 283L302 310L281 491"/>
<path style="--d:3;" pathLength="3333" clip-path="url(#z38917c3)" d="M71 567L141 581L425 453"/>
<path style="--d:4;" pathLength="3333" clip-path="url(#z38917c4)" d="M465 183L803 136L905 144"/>
<path style="--d:5;" pathLength="3333" clip-path="url(#z38917c5)" d="M594 196L619 229L558 329"/>
<path style="--d:6;" pathLength="3333" clip-path="url(#z38917c6)" d="M479 337L512 377L506 702"/>
<path style="--d:7;" pathLength="3333" clip-path="url(#z38917c7)" d="M521 341L550 350L737 301L788 328L778 697"/>
<path style="--d:8;" pathLength="3333" clip-path="url(#z38917c8)" d="M543 465L711 437"/>
<path style="--d:9;" pathLength="3333" clip-path="url(#z38917c9)" d="M544 561L713 536"/>
<path style="--d:10;" pathLength="3333" clip-path="url(#z38917c10)" d="M531 675L751 645"/>
<path style="--d:11;" pathLength="3333" clip-path="url(#z38917c11)" d="M612 754L563 758L470 855L338 930"/>
<path style="--d:12;" pathLength="3333" clip-path="url(#z38917c12)" d="M701 736L823 850L866 930"/>
</svg>