<!--
AnimCJK 2016-2017 Copyright Francois Mizessyn, http://gooo.free.fr/animCJK/
Derived from:
    MakeMeAHanzi project - https://github.com/skishore/makemeahanzi
    Arphic PL KaitiM GB - https://apps.ubuntu.com/cat/applications/precise/fonts-arphic-gkai00mp/
    Arphic PL UKai - https://apps.ubuntu.com/cat/applications/fonts-arphic-ukai/
You can redistribute and/or modify this file under the terms of the Arphic Public License
as published by Arphic Technology Co., Ltd.
You should have received a copy of this license (the directory "APL") along with this file;
if not, see http://ftp.gnu.org/non-gnu/chinese-fonts-truetype/LICENSE.
-->
<svg id="z38915" class="acjk" version="1.1" viewBox="0 0 1024 1024" xmlns="http://www.w3.org/2000/svg" xmlns:xlink="http://www.w3.org/1999/xlink">
<style>
<![CDATA[
	@keyframes z38915k {
		from {
			stroke:#c00;
			stroke-dashoffset:3000;
		}
		75% {
			stroke:#c00;
			stroke-dashoffset:0;
		}
		to {
			stroke:#000;
		}
	}
	#z38915 path[clip-path] {
		animation:z38915k 1s linear both;
		stroke-dasharray:3000;
		stroke-width:128;
		stroke-linecap:round;
		fill:none;
	}
	#z38915 path[clip-path="url(#z38915c1)"] {animation-delay:1s;}
	#z38915 path[clip-path="url(#z38915c2)"] {animation-delay:2s;}
	#z38915 path[clip-path="url(#z38915c3)"] {animation-delay:3s;}
	#z38915 path[clip-path="url(#z38915c4)"] {animation-delay:4s;}
	#z38915 path[clip-path="url(#z38915c5)"] {animation-delay:5s;}
	#z38915 path[clip-path="url(#z38915c6)"] {animation-delay:6s;}
	#z38915 path[clip-path="url(#z38915c7)"] {animation-delay:7s;}
	#z38915 path[clip-path="url(#z38915c8)"] {animation-delay:8s;}
	#z38915 path[clip-path="url(#z38915c9)"] {animation-delay:9s;}
	#z38915 path[clip-path="url(#z38915c10)"] {animation-delay:10s;}
	#z38915 path[clip-path="url(#z38915c11)"] {animation-delay:11s;}
	#z38915 path {fill:#ccc;}
]]>
</style>
<g transform="scale(1,-1) translate(0,-900)">
	<path id="z38915d1" d="M263 529Q305 525 377 543Q395 549 415 553Q431 557 434 561Q441 570 436 577Q429 587 399 592Q380 593 308 568Q287 564 264 558L263 529Z"/>
	<path id="z38915d2" d="M264 558Q265 640 269 655Q273 674 260 683Q248 695 202 707Q186 710 179 704Q172 697 183 678Q213 636 216 531Q216 351 162 279Q156 275 152 268Q139 255 147 233Q156 203 171 189Q184 179 198 194Q250 254 409 374Q425 384 428 394Q431 400 424 400Q412 399 279 329Q269 325 264 328Q258 331 259 347Q260 458 263 529L264 558Z"/>
	<path id="z38915d3" d="M619 708Q688 732 889 732Q908 733 913 742Q917 754 901 766Q846 805 778 782Q675 760 451 718Q432 715 447 699Q460 686 478 682Q499 678 514 683Q547 693 583 700L619 708Z"/>
	<path id="z38915d4" d="M589 589Q598 601 625 642Q629 651 640 663Q653 673 646 682Q639 695 619 708L583 700Q589 679 568 606Q562 596 560 584L589 589Z"/>
	<path id="z38915d5" d="M526 580Q517 589 495 596Q486 600 476 596Q469 592 475 581Q476 574 480 566Q492 541 493 340Q480 246 494 223Q500 213 507 205Q517 192 526 204Q532 214 535 223L538 254Q539 272 539 296Q538 324 538 347L538 373Q538 416 538 446L538 474Q538 544 540 551L526 580Z"/>
	<path id="z38915d6" d="M759 248Q760 241 767 231Q780 201 790 202Q805 203 821 236Q836 263 834 284Q824 366 826 494Q826 531 846 563Q856 579 849 588Q822 612 775 632Q759 636 737 629Q710 619 589 589L560 584Q542 583 526 580L540 551Q544 551 550 552Q649 577 720 590Q745 594 753 582Q769 563 768 497Q769 319 760 279L759 248Z"/>
	<path id="z38915d7" d="M538 446Q542 446 549 444Q594 440 714 468Q714 469 715 469Q722 476 718 483Q712 492 689 498Q674 501 593 482Q566 478 538 474L538 446Z"/>
	<path id="z38915d8" d="M538 347Q568 341 662 354Q677 357 693 359Q715 363 718 365Q725 372 722 378Q716 388 693 395Q669 401 645 392Q621 385 594 380Q567 376 538 373L538 347Z"/>
	<path id="z38915d9" d="M535 223Q539 223 545 223Q666 239 759 248L760 279Q753 283 742 286Q727 289 538 254L535 223Z"/>
	<path id="z38915d10" d="M546 179Q525 110 366 1Q342 -14 372 -12Q441 -16 566 91Q566 94 619 135Q632 147 630 157Q629 172 601 182Q571 195 558 194Q551 193 546 179Z"/>
	<path id="z38915d11" d="M699 167Q765 98 842 -1Q857 -23 872 -29Q881 -30 889 -21Q902 -9 894 37Q885 104 703 199Q694 205 691 193Q690 180 699 167Z"/>
	<defs>
		<clipPath id="z38915c1"><use xlink:href="#z38915d1"/></clipPath>
		<clipPath id="z38915c2"><use xlink:href="#z38915d2"/></clipPath>
		<clipPath id="z38915c3"><use xlink:href="#z38915d3"/></clipPath>
		<clipPath id="z38915c4"><use xlink:href="#z38915d4"/></clipPath>
		<clipPath id="z38915c5"><use xlink:href="#z38915d5"/></clipPath>
		<clipPath id="z38915c6"><use xlink:href="#z38915d6"/></clipPath>
		<clipPath id="z38915c7"><use xlink:href="#z38915d7"/></clipPath>
		<clipPath id="z38915c8"><use xlink:href="#z38915d8"/></clipPath>
		<clipPath id="z38915c9"><use xlink:href="#z38915d9"/></clipPath>
		<clipPath id="z38915c10"><use xlink:href="#z38915d10"/></clipPath>
		<clipPath id="z38915c11"><use xlink:href="#z38915d11"/></clipPath>
	</defs>
	<path pathLength="2999" clip-path="url(#z38915c1)" d="M434 571L264 544"/>
	<path pathLength="2999" clip-path="url(#z38915c2)" d="M182 701L235 647L197 239L421 393"/>
	<path pathLength="2999" clip-path="url(#z38915c3)" d="M446 711L816 761L908 746"/>
	<path pathLength="2999" clip-path="url(#z38915c4)" d="M589 695L613 663L570 588"/>
	<path pathLength="2999" clip-path="url(#z38915c5)" d="M482 591L512 545L517 203"/>
	<path pathLength="2999" clip-path="url(#z38915c6)" d="M535 579L754 611L808 568L787 211"/>
	<path pathLength="2999" clip-path="url(#z38915c7)" d="M547 453L714 478"/>
	<path pathLength="2999" clip-path="url(#z38915c8)" d="M547 354L718 374"/>
	<path pathLength="2999" clip-path="url(#z38915c9)" d="M543 231L759 264"/>
	<path pathLength="2999" clip-path="url(#z38915c10)" d="M626 158L571 152L486 61L364 -6"/>
	<path pathLength="2999" clip-path="url(#z38915c11)" d="M697 194L841 61L880 -22"/>
</g>
</svg>