<!--
AnimCJK 2016-2018 Copyright Francois Mizessyn, https://github.com/parsimonhi/animCJK
Derived from:
    MakeMeAHanzi project - https://github.com/skishore/makemeahanzi
    Arphic PL KaitiM GB - https://apps.ubuntu.com/cat/applications/precise/fonts-arphic-gkai00mp/
    Arphic PL UKai - https://apps.ubuntu.com/cat/applications/fonts-arphic-ukai/
You can redistribute and/or modify this file under the terms of the Arphic Public License
as published by Arphic Technology Co., Ltd.
You should have received a copy of this license (the directory "APL") along with this file;
if not, see http://ftp.gnu.org/non-gnu/chinese-fonts-truetype/LICENSE.
-->
<svg id="z38936" class="acjk" version="1.1" viewBox="0 0 1024 1024" xmlns="http://www.w3.org/2000/svg" xmlns:xlink="http://www.w3.org/1999/xlink">
<style>
<![CDATA[
@keyframes z38936k {
	from {
		stroke:#c00;
		stroke-dashoffset:3334;
	}
	75% {
		stroke:#c00;
		stroke-dashoffset:0;
	}
	to {
		stroke:#000;
	}
}
#z38936 path[clip-path] {
	animation:z38936k 1s linear both;
	stroke-dasharray:3334;
	stroke-width:128;
	stroke-linecap:round;
	fill:none;
}
#z38936 path[clip-path="url(#z38936c1)"] {animation-delay:1s;}
#z38936 path[clip-path="url(#z38936c2)"] {animation-delay:2s;}
#z38936 path[clip-path="url(#z38936c3)"] {animation-delay:3s;}
#z38936 path[clip-path="url(#z38936c4)"] {animation-delay:4s;}
#z38936 path[clip-path="url(#z38936c5)"] {animation-delay:5s;}
#z38936 path[clip-path="url(#z38936c6)"] {animation-delay:6s;}
#z38936 path[clip-path="url(#z38936c7)"] {animation-delay:7s;}
#z38936 path[clip-path="url(#z38936c8)"] {animation-delay:8s;}
#z38936 path[clip-path="url(#z38936c9)"] {animation-delay:9s;}
#z38936 path[clip-path="url(#z38936c10)"] {animation-delay:10s;}
#z38936 path[clip-path="url(#z38936c11)"] {animation-delay:11s;}
#z38936 path[clip-path="url(#z38936c12)"] {animation-delay:12s;}
#z38936 path[clip-path="url(#z38936c13)"] {animation-delay:13s;}
#z38936 path[clip-path="url(#z38936c14)"] {animation-delay:14s;}
#z38936 path {fill:#ccc;}
]]>
</style>
<path id="z38936d1" d="M359 171Q372 143 383 129Q390 116 380 101Q361 73 341 61Q325 49 307 51Q289 52 297 74Q330 191 124 471Q43 571 43 575Q43 581 49 580Q79 576 160 488Q161 485 164 483Q270 366 345 202Q346 198 348 195L359 171 Z"/>
<path id="z38936d2" d="M348 195Q393 226 447 274Q463 289 476 291Q483 291 488 282Q498 269 482 234Q466 194 359 171L348 195 Z"/>
<path id="z38936d3" d="M325 364Q341 383 360 405Q370 418 386 419Q396 419 401 407Q407 394 401 366Q394 341 324 320Q311 316 304 317Q300 321 300 332Q301 342 325 364 Z"/>
<path id="z38936d4" d="M336 670Q432 559 463 543Q482 534 474 519Q470 504 403 476Q382 467 288 511Q228 532 196 534Q174 535 183 554Q192 566 210 575Q241 590 272 568Q347 514 369 525Q382 534 376 547Q348 601 317 663L336 670 Z"/>
<path id="z38936d5" d="M317 663Q307 653 245 640Q236 636 235 647Q235 659 245 668Q288 704 341 757Q356 775 370 778Q377 779 385 769Q395 757 382 718Q373 685 336 670L317 663 Z"/>
<path id="z38936d6" d="M660 170Q703 154 859 147Q902 147 909 137Q913 125 897 114Q840 77 783 99Q653 129 510 159Q491 162 506 177Q521 189 537 193Q556 197 572 191Q596 184 624 177L660 170 Z"/>
<path id="z38936d7" d="M614 326Q635 301 664 255Q673 242 687 226Q700 216 694 205Q685 189 660 170L624 177L625 178Q632 206 594 303Q585 318 583 331L614 326 Z"/>
<path id="z38936d8" d="M549 335Q549 334 548 334Q541 327 528 323Q519 319 509 322Q503 326 508 338Q509 345 513 351Q532 391 520 559Q508 637 510 647Q517 671 531 687Q541 699 550 688Q554 681 557 675L562 640Q562 630 563 562L563 543Q564 497 565 464L566 445Q567 384 569 377Q570 370 570 366L549 335 Z"/>
<path id="z38936d9" d="M788 655Q789 665 797 676Q812 707 822 706Q837 705 854 670Q870 642 868 620Q858 542 861 420Q861 386 881 355Q891 339 884 328Q854 303 804 281Q788 275 763 284Q726 302 614 326L583 331Q565 332 549 335L570 366Q577 367 587 365Q681 340 750 328Q775 322 783 335Q798 354 797 416Q800 585 791 625L788 655 Z"/>
<path id="z38936d10" d="M565 464Q572 467 621 459Q678 446 724 437Q746 431 738 420Q726 407 700 403Q669 402 566 445L565 464 Z"/>
<path id="z38936d11" d="M563 562Q570 568 588 565Q670 552 730 544Q754 540 745 528Q735 513 709 509Q684 505 563 543L563 562 Z"/>
<path id="z38936d12" d="M557 675Q563 675 571 674Q640 661 788 655L791 625Q785 621 778 615Q762 605 731 612Q637 631 562 640L557 675 Z"/>
<path id="z38936d13" d="M564 720Q546 787 398 904Q376 917 403 916Q482 909 592 800Q623 770 637 758Q647 746 646 737Q643 724 617 714Q589 702 575 705Q568 706 564 720 Z"/>
<path id="z38936d14" d="M731 750Q782 807 841 888Q856 910 871 917Q880 918 889 909Q904 897 895 849Q888 789 735 717Q726 710 723 724Q722 737 731 750 Z"/>
<defs>
	<clipPath id="z38936c1"><use xlink:href="#z38936d1"/></clipPath>
	<clipPath id="z38936c2"><use xlink:href="#z38936d2"/></clipPath>
	<clipPath id="z38936c3"><use xlink:href="#z38936d3"/></clipPath>
	<clipPath id="z38936c4"><use xlink:href="#z38936d4"/></clipPath>
	<clipPath id="z38936c5"><use xlink:href="#z38936d5"/></clipPath>
	<clipPath id="z38936c6"><use xlink:href="#z38936d6"/></clipPath>
	<clipPath id="z38936c7"><use xlink:href="#z38936d7"/></clipPath>
	<clipPath id="z38936c8"><use xlink:href="#z38936d8"/></clipPath>
	<clipPath id="z38936c9"><use xlink:href="#z38936d9"/></clipPath>
	<clipPath id="z38936c10"><use xlink:href="#z38936d10"/></clipPath>
	<clipPath id="z38936c11"><use xlink:href="#z38936d11"/></clipPath>
	<clipPath id="z38936c12"><use xlink:href="#z38936d12"/></clipPath>
	<clipPath id="z38936c13"><use xlink:href="#z38936d13"/></clipPath>
	<clipPath id="z38936c14"><use xlink:href="#z38936d14"/></clipPath>
</defs>
<path pathLength="3333" clip-path="url(#z38936c1)" d="M300 60L343 118L289 256L173 440L53 573"/>
<path pathLength="3333" clip-path="url(#z38936c2)" d="M354 192L444 232L481 284"/>
<path pathLength="3333" clip-path="url(#z38936c3)" d="M309 327L372 373L385 415"/>
<path pathLength="3333" clip-path="url(#z38936c4)" d="M184 545L239 554L378 499L407 513L426 537L325 661"/>
<path pathLength="3333" clip-path="url(#z38936c5)" d="M242 650L341 711L382 765"/>
<path pathLength="3333" clip-path="url(#z38936c6)" d="M507 168L817 120L904 133"/>
<path pathLength="3333" clip-path="url(#z38936c7)" d="M631 183L657 221L593 326"/>
<path pathLength="3333" clip-path="url(#z38936c8)" d="M514 326L545 370L539 688"/>
<path pathLength="3333" clip-path="url(#z38936c9)" d="M558 337L587 347L786 304L840 347L816 700"/>
<path pathLength="3333" clip-path="url(#z38936c10)" d="M570 458L731 425"/>
<path pathLength="3333" clip-path="url(#z38936c11)" d="M567 556L739 529"/>
<path pathLength="3333" clip-path="url(#z38936c12)" d="M563 669L787 630"/>
<path pathLength="3333" clip-path="url(#z38936c13)" d="M641 737L586 749L501 847L397 910"/>
<path pathLength="3333" clip-path="url(#z38936c14)" d="M730 723L841 826L885 908"/>
</svg>