<!--
AnimCJK 2016-2017 Copyright Francois Mizessyn, http://gooo.free.fr/animCJK/
Derived from:
    MakeMeAHanzi project - https://github.com/skishore/makemeahanzi
    Arphic PL KaitiM GB - https://apps.ubuntu.com/cat/applications/precise/fonts-arphic-gkai00mp/
    Arphic PL UKai - https://apps.ubuntu.com/cat/applications/fonts-arphic-ukai/
You can redistribute and/or modify this file under the terms of the Arphic Public License
as published by Arphic Technology Co., Ltd.
You should have received a copy of this license (the directory "APL") along with this file;
if not, see http://ftp.gnu.org/non-gnu/chinese-fonts-truetype/LICENSE.
-->
<svg id="z38930" class="acjk" version="1.1" viewBox="0 0 1024 1024" xmlns="http://www.w3.org/2000/svg" xmlns:xlink="http://www.w3.org/1999/xlink">
<style>
<![CDATA[
	@keyframes z38930k {
		from {
			stroke:#c00;
			stroke-dashoffset:3000;
		}
		75% {
			stroke:#c00;
			stroke-dashoffset:0;
		}
		to {
			stroke:#000;
		}
	}
	#z38930 path[clip-path] {
		animation:z38930k 1s linear both;
		stroke-dasharray:3000;
		stroke-width:128;
		stroke-linecap:round;
		fill:none;
	}
	#z38930 path[clip-path="url(#z38930c1)"] {animation-delay:1s;}
	#z38930 path[clip-path="url(#z38930c2)"] {animation-delay:2s;}
	#z38930 path[clip-path="url(#z38930c3)"] {animation-delay:3s;}
	#z38930 path[clip-path="url(#z38930c4)"] {animation-delay:4s;}
	#z38930 path[clip-path="url(#z38930c5)"] {animation-delay:5s;}
	#z38930 path[clip-path="url(#z38930c6)"] {animation-delay:6s;}
	#z38930 path[clip-path="url(#z38930c7)"] {animation-delay:7s;}
	#z38930 path[clip-path="url(#z38930c8)"] {animation-delay:8s;}
	#z38930 path[clip-path="url(#z38930c9)"] {animation-delay:9s;}
	#z38930 path[clip-path="url(#z38930c10)"] {animation-delay:10s;}
	#z38930 path[clip-path="url(#z38930c11)"] {animation-delay:11s;}
	#z38930 path[clip-path="url(#z38930c12)"] {animation-delay:12s;}
	#z38930 path[clip-path="url(#z38930c13)"] {animation-delay:13s;}
	#z38930 path {fill:#ccc;}
]]>
</style>
<g transform="scale(1,-1) translate(0,-900)">
	<path id="z38930d1" d="M207 664Q225 570 123 443Q120 443 80 392Q73 376 88 382Q142 395 218 505Q273 602 289 628Q299 641 283 655Q241 686 215 681Q203 678 207 664Z"/>
	<path id="z38930d2" d="M343 762Q382 710 425 637Q435 615 449 609Q456 606 465 614Q478 624 475 665Q472 716 349 789Q342 796 338 785Q335 772 343 762Z"/>
	<path id="z38930d3" d="M275 410Q327 429 379 441Q388 442 391 438Q395 428 393 396Q383 282 360 223Q348 186 336 174Q324 161 297 167Q275 170 254 174Q232 178 249 160Q283 121 302 91Q309 75 326 79Q341 80 360 100Q415 152 445 357Q452 403 471 429Q486 447 477 456Q464 472 434 485Q410 495 353 469Q257 432 196 425Q181 425 182 417Q182 410 200 401Q219 389 238 396L275 410Z"/>
	<path id="z38930d4" d="M238 396Q247 308 89 126Q85 122 84 115Q84 111 89 111Q161 129 274 312Q274 327 302 358Q308 368 300 381Q287 400 275 410L238 396Z"/>
	<path id="z38930d5" d="M671 713Q779 746 915 747Q934 747 938 757Q942 767 926 779Q872 813 814 790Q679 754 533 721Q515 717 530 703Q554 684 604 695Q614 699 628 702L671 713Z"/>
	<path id="z38930d6" d="M626 586Q630 593 637 602Q652 620 668 643Q675 653 687 666Q700 676 693 687Q687 699 671 713L628 702Q628 675 602 605Q595 592 592 580L626 586Z"/>
	<path id="z38930d7" d="M557 575Q550 582 532 589Q523 593 513 590Q507 586 512 574Q513 567 517 560Q541 515 525 338Q513 248 513 247Q513 226 535 201Q545 189 554 200Q560 209 563 218L566 251Q567 272 568 342L568 369Q569 418 570 451L570 473Q571 528 573 535Q574 542 574 547L557 575Z"/>
	<path id="z38930d8" d="M785 235Q786 228 793 219Q808 188 818 190Q833 191 849 227Q865 255 863 276Q850 360 850 488Q849 525 869 558Q879 574 872 584Q844 608 796 628Q780 632 756 624Q714 605 658 593Q640 590 626 586L592 580Q573 579 557 575L574 547Q580 547 586 548Q760 594 772 577Q788 558 788 491Q794 313 785 271L785 235Z"/>
	<path id="z38930d9" d="M570 451Q595 441 675 453Q742 465 751 469Q758 476 754 483Q748 492 725 498Q701 502 677 493Q655 486 630 481Q602 477 571 474Q570 474 570 473L570 451Z"/>
	<path id="z38930d10" d="M568 342Q634 327 757 357Q764 363 762 370Q756 380 734 388Q710 394 685 386Q658 379 629 374Q601 371 568 369L568 342Z"/>
	<path id="z38930d11" d="M563 218Q633 231 785 235L785 271Q785 272 784 273Q769 282 741 276Q644 258 566 251L563 218Z"/>
	<path id="z38930d12" d="M576 182Q555 116 398 0Q376 -13 403 -12Q469 -12 595 96Q596 102 647 141Q659 153 657 162Q656 175 629 186Q601 199 588 196Q581 195 576 182Z"/>
	<path id="z38930d13" d="M753 146Q799 88 850 7Q863 -17 879 -24Q888 -27 897 -18Q913 -6 907 42Q904 102 759 178Q752 185 747 172Q744 159 753 146Z"/>
	<defs>
		<clipPath id="z38930c1"><use xlink:href="#z38930d1"/></clipPath>
		<clipPath id="z38930c2"><use xlink:href="#z38930d2"/></clipPath>
		<clipPath id="z38930c3"><use xlink:href="#z38930d3"/></clipPath>
		<clipPath id="z38930c4"><use xlink:href="#z38930d4"/></clipPath>
		<clipPath id="z38930c5"><use xlink:href="#z38930d5"/></clipPath>
		<clipPath id="z38930c6"><use xlink:href="#z38930d6"/></clipPath>
		<clipPath id="z38930c7"><use xlink:href="#z38930d7"/></clipPath>
		<clipPath id="z38930c8"><use xlink:href="#z38930d8"/></clipPath>
		<clipPath id="z38930c9"><use xlink:href="#z38930d9"/></clipPath>
		<clipPath id="z38930c10"><use xlink:href="#z38930d10"/></clipPath>
		<clipPath id="z38930c11"><use xlink:href="#z38930d11"/></clipPath>
		<clipPath id="z38930c12"><use xlink:href="#z38930d12"/></clipPath>
		<clipPath id="z38930c13"><use xlink:href="#z38930d13"/></clipPath>
	</defs>
	<path pathLength="2999" clip-path="url(#z38930c1)" d="M214 672L250 637L227 574L163 464L84 388"/>
	<path pathLength="2999" clip-path="url(#z38930c2)" d="M343 784L436 680L457 613"/>
	<path pathLength="2999" clip-path="url(#z38930c3)" d="M190 417L400 464L437 436L361 154L319 122L252 169"/>
	<path pathLength="2999" clip-path="url(#z38930c4)" d="M244 390L267 353L232 287L91 118"/>
	<path pathLength="2999" clip-path="url(#z38930c5)" d="M529 714L832 770L934 762"/>
	<path pathLength="2999" clip-path="url(#z38930c6)" d="M633 696L657 666L601 587"/>
	<path pathLength="2999" clip-path="url(#z38930c7)" d="M519 581L550 535L545 200"/>
	<path pathLength="2999" clip-path="url(#z38930c8)" d="M566 573L779 604L826 567L819 195"/>
	<path pathLength="2999" clip-path="url(#z38930c9)" d="M576 467L748 481"/>
	<path pathLength="2999" clip-path="url(#z38930c10)" d="M575 363L755 368"/>
	<path pathLength="2999" clip-path="url(#z38930c11)" d="M568 226L784 259"/>
	<path pathLength="2999" clip-path="url(#z38930c12)" d="M651 162L601 156L499 51L399 -7"/>
	<path pathLength="2999" clip-path="url(#z38930c13)" d="M754 170L854 70L890 -20"/>
</g>
</svg>