<!--
AnimCJK 2016-2025 Copyright FM-SH - https://github.com/parsimonhi/animCJK
Derived from:
    MakeMeAHanzi project - https://github.com/skishore/makemeahanzi
    Arphic PL KaitiM GB font
    Arphic PL UKai font
You can redistribute and/or modify this file under the terms of the Arphic Public License
as published by Arphic Technology Co., Ltd.
You should have received a copy of this license along with this file.
If not, see https://ftp.gnu.org/non-gnu/chinese-fonts-truetype/LICENSE.
-->
<svg id="z39003" class="acjk" viewBox="0 0 1024 1024" xmlns="http://www.w3.org/2000/svg">
<style>
<![CDATA[
@keyframes zk {
	to {
		stroke-dashoffset:0;
	}
}
svg.acjk path[clip-path] {
	--t:0.8s;
	animation:zk var(--t) linear forwards var(--d);
	stroke-dasharray:3337;
	stroke-dashoffset:3339;
	stroke-width:128;
	stroke-linecap:round;
	fill:none;
	stroke:#000;
}
svg.acjk path[id] {fill:#ccc;}
]]>
</style>
<path id="z39003d1" d="M348 265C441 247 489 235 493 232C498 227 499 221 497 217C493 209 482 203 464 201C440 198 414 209 362 221C327 229 327 229 309 233C270 241 228 246 183 252C160 254 155 265 173 273C221 295 257 282 301 274C332 268 332 268 348 265Z"/>
<path id="z39003d2" d="M317 362C327 329 338 295 348 265C357 236 357 236 362 221C369 197 378 172 392 150C395 144 392 135 383 126C367 110 351 101 339 96C330 92 323 91 318 95C313 97 310 104 314 114C328 153 315 197 309 233C304 260 304 260 301 274C295 304 287 337 279 370C277 383 314 375 317 362Z"/>
<path id="z39003d3" d="M242 376C238 370 229 366 216 362C204 358 197 362 201 373C202 376 203 381 205 385C211 397 220 453 216 554C213 604 209 637 221 654C226 661 233 669 240 661C244 654 247 646 248 638C248 628 248 618 249 608C249 592 246 574 248 559C248 544 248 544 248 536C248 501 248 501 248 483C248 467 248 467 248 459C248 425 248 405 249 401C251 393 247 383 242 376Z"/>
<path id="z39003d4" d="M384 620C391 658 410 668 428 638C432 629 437 610 436 579C430 484 433 425 452 400C457 392 458 384 454 380C442 366 422 355 398 345C390 341 380 342 369 347C358 350 336 357 317 362C292 367 292 367 279 370C266 372 256 373 242 376C233 377 241 403 249 401C278 396 323 386 361 381C401 376 395 426 395 447C394 524 393 576 389 600C388 607 383 613 384 620Z"/>
<path id="z39003d5" d="M248 483C252 480 286 474 350 465C362 462 366 457 361 450C354 441 344 436 330 436C313 434 286 443 248 459C241 462 241 486 248 483Z"/>
<path id="z39003d6" d="M248 559C258 556 293 550 354 541C366 538 370 533 365 526C358 517 348 513 334 512C309 509 280 518 248 536C241 540 240 561 248 559Z"/>
<path id="z39003d7" d="M248 638C296 631 344 623 384 620C391 620 394 604 389 600C350 566 360 591 249 608C239 610 238 640 248 638Z"/>
<path id="z39003d8" d="M125 710C97 710 102 725 117 737C140 756 164 754 191 750C217 746 233 738 326 723C366 716 437 711 498 708C547 705 524 681 488 668C461 657 380 681 327 690C236 705 177 708 125 710Z"/>
<path id="z39003d9" d="M241 781C230 819 181 870 93 933C79 942 80 944 98 944C140 943 196 913 265 853C283 837 296 826 305 819C312 812 314 806 314 800C313 791 304 784 289 778C272 770 259 766 251 768C246 768 243 773 241 781Z"/>
<path id="z39003d10" d="M399 798C410 810 421 824 434 840C440 848 448 853 458 854C464 854 469 850 473 843C476 834 478 821 474 804C470 787 444 771 399 756C390 753 383 751 380 753C376 754 374 760 375 768C375 774 385 783 399 798Z"/>
<path id="z39003d11" d="M710 226C763 213 833 201 923 201C934 200 942 198 945 192C947 185 943 178 934 172C901 150 868 150 831 161C728 189 638 205 565 221C554 223 552 229 561 237C578 252 599 255 619 249C637 243 655 238 675 234C698 229 698 229 710 226Z"/>
<path id="z39003d12" d="M666 351C732 248 763 271 710 226C700 219 675 222 675 234C676 278 661 304 640 357C637 365 661 358 666 351Z"/>
<path id="z39003d13" d="M602 363C598 359 588 353 573 347C559 341 548 346 554 361C555 365 556 370 559 375C573 403 580 477 569 596C563 657 561 694 570 709C572 713 575 718 580 724C585 730 591 730 597 724C601 718 605 711 606 705C608 685 608 685 609 675C609 668 610 641 610 593C610 576 610 576 610 568C610 542 608 517 610 492C611 477 611 477 611 470C612 444 611 418 613 392C613 382 610 369 602 363Z"/>
<path id="z39003d14" d="M807 683C825 730 844 738 866 697C874 679 880 665 879 652C870 597 866 529 866 446C865 421 871 399 885 379C891 368 893 359 887 354C869 338 843 325 813 313C803 308 790 310 776 316C766 320 729 331 666 351C649 355 649 355 640 357C624 361 613 363 602 363C592 363 603 394 613 392C650 384 714 367 765 359C816 351 811 417 812 444C815 564 814 637 808 661C807 668 804 676 807 683Z"/>
<path id="z39003d15" d="M610 492C629 493 709 477 753 472C765 470 769 465 765 458C759 449 749 443 735 442C713 439 671 449 611 470C604 473 603 492 610 492Z"/>
<path id="z39003d16" d="M610 593C659 586 711 578 756 572C768 570 773 564 769 558C763 549 753 544 739 542C727 539 684 548 610 568C602 571 602 595 610 593Z"/>
<path id="z39003d17" d="M606 705C624 703 749 686 807 683C814 683 814 665 808 661C763 629 786 648 609 675C599 677 596 707 606 705Z"/>
<path id="z39003d18" d="M611 764C604 799 557 856 465 932C451 942 452 945 471 944C517 939 574 904 641 838C659 820 672 807 680 800C687 792 690 784 689 779C687 770 677 763 661 758C642 751 629 748 621 750C616 750 612 755 611 764Z"/>
<path id="z39003d19" d="M757 780C785 813 817 852 849 900C858 914 866 924 876 928C881 930 887 927 893 922C901 913 903 895 900 866C897 840 874 813 829 786C800 769 777 758 762 750C756 746 753 746 751 755C748 763 750 772 757 780Z"/>
<defs>
	<clipPath id="z39003c1"><use href="#z39003d1"/></clipPath>
	<clipPath id="z39003c2"><use href="#z39003d2"/></clipPath>
	<clipPath id="z39003c3"><use href="#z39003d3"/></clipPath>
	<clipPath id="z39003c4"><use href="#z39003d4"/></clipPath>
	<clipPath id="z39003c5"><use href="#z39003d5"/></clipPath>
	<clipPath id="z39003c6"><use href="#z39003d6"/></clipPath>
	<clipPath id="z39003c7"><use href="#z39003d7"/></clipPath>
	<clipPath id="z39003c8"><use href="#z39003d8"/></clipPath>
	<clipPath id="z39003c9"><use href="#z39003d9"/></clipPath>
	<clipPath id="z39003c10"><use href="#z39003d10"/></clipPath>
	<clipPath id="z39003c11"><use href="#z39003d11"/></clipPath>
	<clipPath id="z39003c12"><use href="#z39003d12"/></clipPath>
	<clipPath id="z39003c13"><use href="#z39003d13"/></clipPath>
	<clipPath id="z39003c14"><use href="#z39003d14"/></clipPath>
	<clipPath id="z39003c15"><use href="#z39003d15"/></clipPath>
	<clipPath id="z39003c16"><use href="#z39003d16"/></clipPath>
	<clipPath id="z39003c17"><use href="#z39003d17"/></clipPath>
	<clipPath id="z39003c18"><use href="#z39003d18"/></clipPath>
	<clipPath id="z39003c19"><use href="#z39003d19"/></clipPath>
</defs>
<path style="--d:1s;" pathLength="3333" clip-path="url(#z39003c1)" d="M170 263L493 218"/>
<path style="--d:2s;" pathLength="3333" clip-path="url(#z39003c2)" d="M321 99L356 147L292 374"/>
<path style="--d:3s;" pathLength="3333" clip-path="url(#z39003c3)" d="M208 368L229 398L232 659"/>
<path style="--d:4s;" pathLength="3333" clip-path="url(#z39003c4)" d="M243 386L387 363L423 390L407 650"/>
<path style="--d:5s;" pathLength="3333" clip-path="url(#z39003c5)" d="M249 474L356 454"/>
<path style="--d:6s;" pathLength="3333" clip-path="url(#z39003c6)" d="M246 551L360 528"/>
<path style="--d:7s;" pathLength="3333" clip-path="url(#z39003c7)" d="M248 626L386 607"/>
<path style="--d:8s;" pathLength="3333" clip-path="url(#z39003c8)" d="M111 720L520 694"/>
<path style="--d:9s;" pathLength="3333" clip-path="url(#z39003c9)" d="M253 773L265 814L95 938"/>
<path style="--d:10s;" pathLength="3333" clip-path="url(#z39003c10)" d="M382 761L443 807L460 848"/>
<path style="--d:11s;" pathLength="3333" clip-path="url(#z39003c11)" d="M565 231L850 180L940 185"/>
<path style="--d:12s;" pathLength="3333" clip-path="url(#z39003c12)" d="M682 230L703 267L647 353"/>
<path style="--d:13s;" pathLength="3333" clip-path="url(#z39003c13)" d="M560 354L590 400L590 723"/>
<path style="--d:14s;" pathLength="3333" clip-path="url(#z39003c14)" d="M605 372L793 336L847 373L836 720"/>
<path style="--d:15s;" pathLength="3333" clip-path="url(#z39003c15)" d="M611 483L757 460"/>
<path style="--d:16s;" pathLength="3333" clip-path="url(#z39003c16)" d="M606 583L765 564"/>
<path style="--d:17s;" pathLength="3333" clip-path="url(#z39003c17)" d="M603 695L806 673"/>
<path style="--d:18s;" pathLength="3333" clip-path="url(#z39003c18)" d="M620 754L642 792L465 940"/>
<path style="--d:19s;" pathLength="3333" clip-path="url(#z39003c19)" d="M756 755L855 849L882 924"/>
</svg>