<!--
AnimCJK 2016-2025 Copyright FM-SH - https://github.com/parsimonhi/animCJK
Derived from:
    MakeMeAHanzi project - https://github.com/skishore/makemeahanzi
    Arphic PL KaitiM GB font
    Arphic PL UKai font
You can redistribute and/or modify this file under the terms of the Arphic Public License
as published by Arphic Technology Co., Ltd.
You should have received a copy of this license along with this file.
If not, see http://ftp.gnu.org/non-gnu/chinese-fonts-truetype/LICENSE.
-->
<svg id="z39136" class="acjk" version="1.1" viewBox="0 0 1024 1024" xmlns="http://www.w3.org/2000/svg" xmlns:xlink="http://www.w3.org/1999/xlink">
<style>
<![CDATA[
@keyframes zk {
	to {
		stroke-dashoffset:0;
	}
}
svg.acjk path[clip-path] {
	--t:0.8s;
	animation:zk var(--t) linear forwards var(--d);
	stroke-dasharray:3337;
	stroke-dashoffset:3339;
	stroke-width:128;
	stroke-linecap:round;
	fill:none;
	stroke:#000;
}
svg.acjk path[id] {fill:#ccc;}
]]>
</style>
<path id="z39136d1" d="M589 120Q589 112 578 102Q560 84 535 79Q519 75 510 75Q494 77 496 89Q517 163 439 290C398 349 398 349 378 379Q341 429 238 535Q232 541 241 543Q251 541 277 523Q320 498 360 463C377 446 377 446 385 437C399 423 399 423 406 416Q463 343 500 281C505 270 505 270 508 265Q527 228 553 186C557 179 563 173 564 165Q565 155 577 141Q590 128 589 120Z"/>
<path id="z39136d2" d="M553 186Q561 192 576 199C629 228 629 228 656 243Q666 249 676 247Q693 244 686 215Q681 201 672 192Q647 167 564 165C556 165 547 181 553 186Z"/>
<path id="z39136d3" d="M500 281Q502 286 557 326Q568 335 578 336Q599 339 602 318Q602 310 598 302Q586 279 556 273Q523 264 508 265C502 265 496 276 500 281Z"/>
<path id="z39136d4" d="M564 613Q566 617 568 620Q594 651 606 639Q615 630 624 606Q633 581 651 485Q659 457 676 437Q683 429 681 421Q676 406 625 377Q610 372 555 388C476 413 476 413 437 426C426 430 448 457 459 453Q466 450 475 447Q565 415 589 418Q608 422 606 443Q606 453 600 486Q584 573 576 581C570 591 559 603 564 613Z"/>
<path id="z39136d5" d="M455 547Q500 535 549 526Q551 526 553 525Q566 520 564 513Q561 507 550 501Q512 483 457 516C448 521 445 549 455 547Z"/>
<path id="z39136d6" d="M455 633Q529 618 564 613C575 611 587 585 576 581Q556 568 455 606C447 609 446 635 455 633Z"/>
<path id="z39136d7" d="M385 437Q414 476 417 586C417 611 417 611 417 624Q417 762 364 826Q345 845 374 884Q380 891 382 892Q392 900 404 888Q447 835 576 736C581 732 570 718 564 720Q541 731 485 764Q466 775 459 772Q453 770 454 757Q454 755 455 753C455 673 455 673 455 633C455 615 455 615 455 606Q455 569 455 547C456 526 456 526 457 516Q457 484 459 453C459 441 447 432 437 426Q427 420 406 416C396 414 379 429 385 437Z"/>
<path id="z39136d8" d="M576 736Q588 761 610 763Q614 765 619 763Q635 756 629 731Q629 723 625 715Q617 701 597 689Q582 680 572 675Q543 657 539 663Q537 665 537 669Q535 682 564 720C572 731 572 731 576 736Z"/>
<defs>
	<clipPath id="z39136c1"><use xlink:href="#z39136d1"/></clipPath>
	<clipPath id="z39136c2"><use xlink:href="#z39136d2"/></clipPath>
	<clipPath id="z39136c3"><use xlink:href="#z39136d3"/></clipPath>
	<clipPath id="z39136c4"><use xlink:href="#z39136d4"/></clipPath>
	<clipPath id="z39136c5"><use xlink:href="#z39136d5"/></clipPath>
	<clipPath id="z39136c6"><use xlink:href="#z39136d6"/></clipPath>
	<clipPath id="z39136c7"><use xlink:href="#z39136d7"/></clipPath>
	<clipPath id="z39136c8"><use xlink:href="#z39136d8"/></clipPath>
</defs>
<path style="--d:1s;" pathLength="3333" clip-path="url(#z39136c1)" d="M503 81L544 134L476 274L369 424L244 537"/>
<path style="--d:2s;" pathLength="3333" clip-path="url(#z39136c2)" d="M557 178L682 236"/>
<path style="--d:3s;" pathLength="3333" clip-path="url(#z39136c3)" d="M504 272L595 325"/>
<path style="--d:4s;" pathLength="3333" clip-path="url(#z39136c4)" d="M442 432L588 398L641 423L588 636"/>
<path style="--d:5s;" pathLength="3333" clip-path="url(#z39136c5)" d="M456 538L556 517"/>
<path style="--d:6s;" pathLength="3333" clip-path="url(#z39136c6)" d="M452 625L576 594"/>
<path style="--d:7s;" pathLength="3333" clip-path="url(#z39136c7)" d="M390 425L427 452L434 514L404 834L420 847L572 728"/>
<path style="--d:8s;" pathLength="3333" clip-path="url(#z39136c8)" d="M544 671L613 759"/>
</svg>