<!--
AnimCJK 2016-2017 Copyright Francois Mizessyn, http://gooo.free.fr/animCJK/
Derived from:
    MakeMeAHanzi project - https://github.com/skishore/makemeahanzi
    Arphic PL KaitiM GB - https://apps.ubuntu.com/cat/applications/precise/fonts-arphic-gkai00mp/
    Arphic PL UKai - https://apps.ubuntu.com/cat/applications/fonts-arphic-ukai/
You can redistribute and/or modify this file under the terms of the Arphic Public License
as published by Arphic Technology Co., Ltd.
You should have received a copy of this license (the directory "APL") along with this file;
if not, see http://ftp.gnu.org/non-gnu/chinese-fonts-truetype/LICENSE.
-->
<svg id="z39166" class="acjk" version="1.1" viewBox="0 0 1024 1024" xmlns="http://www.w3.org/2000/svg" xmlns:xlink="http://www.w3.org/1999/xlink">
<style>
<![CDATA[
	@keyframes z39166k {
		from {
			stroke:#c00;
			stroke-dashoffset:3000;
		}
		75% {
			stroke:#c00;
			stroke-dashoffset:0;
		}
		to {
			stroke:#000;
		}
	}
	#z39166 path[clip-path] {
		animation:z39166k 1s linear both;
		stroke-dasharray:3000;
		stroke-width:128;
		stroke-linecap:round;
		fill:none;
	}
	#z39166 path[clip-path="url(#z39166c1)"] {animation-delay:1s;}
	#z39166 path[clip-path="url(#z39166c2)"] {animation-delay:2s;}
	#z39166 path[clip-path="url(#z39166c3)"] {animation-delay:3s;}
	#z39166 path[clip-path="url(#z39166c4)"] {animation-delay:4s;}
	#z39166 path[clip-path="url(#z39166c5)"] {animation-delay:5s;}
	#z39166 path[clip-path="url(#z39166c6)"] {animation-delay:6s;}
	#z39166 path[clip-path="url(#z39166c7)"] {animation-delay:7s;}
	#z39166 path[clip-path="url(#z39166c8)"] {animation-delay:8s;}
	#z39166 path[clip-path="url(#z39166c9)"] {animation-delay:9s;}
	#z39166 path[clip-path="url(#z39166c10)"] {animation-delay:10s;}
	#z39166 path[clip-path="url(#z39166c11)"] {animation-delay:11s;}
	#z39166 path[clip-path="url(#z39166c12)"] {animation-delay:12s;}
	#z39166 path[clip-path="url(#z39166c13)"] {animation-delay:13s;}
	#z39166 path {fill:#ccc;}
]]>
</style>
<g transform="scale(1,-1) translate(0,-900)">
	<path id="z39166d1" d="M239 514Q279 572 316 639L324 654Q343 696 369 747L380 769Q392 796 393 799Q390 808 376 818Q342 843 309 834Q300 830 304 818Q331 740 221 562Q173 492 72 376Q65 369 75 368Q126 383 208 475L239 514Z"/>
	<path id="z39166d2" d="M369 747Q376 743 392 734Q423 718 459 696Q472 689 484 691Q491 692 493 704Q494 716 483 737Q474 755 444 763Q413 767 380 769L369 747Z"/>
	<path id="z39166d3" d="M316 639Q319 630 377 594Q395 584 408 586Q420 587 422 604Q421 616 408 631Q396 644 373 647Q336 654 324 654L316 639Z"/>
	<path id="z39166d4" d="M366 317Q382 296 397 290Q407 283 420 303Q432 325 452 445Q458 473 476 497Q486 509 476 520Q461 533 422 554Q404 561 357 540Q302 522 262 503L274 476Q370 522 391 514Q404 505 401 487Q386 355 372 345L366 317Z"/>
	<path id="z39166d5" d="M268 383Q272 382 278 383Q327 396 363 403Q384 410 374 421Q362 433 338 434Q293 434 269 410L268 383Z"/>
	<path id="z39166d6" d="M265 292Q361 316 366 317L372 345Q351 360 273 326Q269 326 266 324L265 292Z"/>
	<path id="z39166d7" d="M385 221Q351 202 284 158Q274 152 269 155Q262 161 265 292L266 324Q266 358 268 383L269 410Q269 464 274 476L262 503Q255 509 239 514L208 475Q245 391 220 207Q216 188 211 171Q205 137 172 98Q160 86 168 66Q177 39 191 27Q203 18 215 33Q260 91 395 204L385 221Z"/>
	<path id="z39166d8" d="M395 204Q422 170 436 161Q449 155 459 166Q468 176 468 192Q465 234 394 269Q379 276 370 275Q364 275 365 263Q365 257 385 221L395 204Z"/>
	<path id="z39166d9" d="M610 615Q641 664 677 732Q693 766 708 784Q715 796 709 808Q705 820 674 839Q647 852 629 851Q611 847 621 827Q657 767 507 522Q498 512 497 505Q496 495 508 498Q535 510 593 591L610 615Z"/>
	<path id="z39166d10" d="M700 587Q859 629 865 635Q872 644 868 652Q861 664 830 669Q799 673 769 659Q735 646 696 634Q656 624 610 615L593 591L594 591Q610 582 632 579L700 587Z"/>
	<path id="z39166d11" d="M555 426Q554 429 549 430Q522 440 506 438Q496 434 501 423Q531 374 514 280Q495 264 520 218Q524 211 532 202Q539 192 548 197Q572 215 569 282Q568 378 568 398L555 426Z"/>
	<path id="z39166d12" d="M710 432Q798 454 820 446Q830 442 833 419Q837 337 831 271Q830 258 822 256Q813 252 761 254Q749 255 750 248Q751 241 768 232Q799 204 823 176Q836 161 851 163Q861 164 876 192Q894 220 894 281Q894 419 908 440Q920 456 905 471Q886 487 845 501Q824 510 772 485Q736 476 710 465L656 450Q590 434 555 426L568 398Q583 399 604 406Q631 413 656 419L710 432Z"/>
	<path id="z39166d13" d="M710 465Q710 466 711 467Q711 489 721 554Q725 572 710 581Q706 585 700 587L632 579Q654 539 656 462Q656 458 656 450L656 419Q656 -55 664 -75Q667 -79 670 -85Q676 -92 683 -90Q701 -78 704 -20Q713 59 710 139Q707 202 710 432L710 465Z"/>
	<defs>
		<clipPath id="z39166c1"><use xlink:href="#z39166d1"/></clipPath>
		<clipPath id="z39166c2"><use xlink:href="#z39166d2"/></clipPath>
		<clipPath id="z39166c3"><use xlink:href="#z39166d3"/></clipPath>
		<clipPath id="z39166c4"><use xlink:href="#z39166d4"/></clipPath>
		<clipPath id="z39166c5"><use xlink:href="#z39166d5"/></clipPath>
		<clipPath id="z39166c6"><use xlink:href="#z39166d6"/></clipPath>
		<clipPath id="z39166c7"><use xlink:href="#z39166d7"/></clipPath>
		<clipPath id="z39166c8"><use xlink:href="#z39166d8"/></clipPath>
		<clipPath id="z39166c9"><use xlink:href="#z39166d9"/></clipPath>
		<clipPath id="z39166c10"><use xlink:href="#z39166d10"/></clipPath>
		<clipPath id="z39166c11"><use xlink:href="#z39166d11"/></clipPath>
		<clipPath id="z39166c12"><use xlink:href="#z39166d12"/></clipPath>
		<clipPath id="z39166c13"><use xlink:href="#z39166d13"/></clipPath>
	</defs>
	<path pathLength="2999" clip-path="url(#z39166c1)" d="M309 826L350 788L299 656L199 497L77 373"/>
	<path pathLength="2999" clip-path="url(#z39166c2)" d="M377 750L488 703"/>
	<path pathLength="2999" clip-path="url(#z39166c3)" d="M320 642L417 602"/>
	<path pathLength="2999" clip-path="url(#z39166c4)" d="M269 501L394 535L439 509L394 294"/>
	<path pathLength="2999" clip-path="url(#z39166c5)" d="M274 390L371 416"/>
	<path pathLength="2999" clip-path="url(#z39166c6)" d="M268 300L369 336"/>
	<path pathLength="2999" clip-path="url(#z39166c7)" d="M241 509L214 85L231 72L384 213"/>
	<path pathLength="2999" clip-path="url(#z39166c8)" d="M373 270L457 169"/>
	<path pathLength="2999" clip-path="url(#z39166c9)" d="M624 841L666 781L504 504"/>
	<path pathLength="2999" clip-path="url(#z39166c10)" d="M599 595L864 643"/>
	<path pathLength="2999" clip-path="url(#z39166c11)" d="M507 430L542 390L544 202"/>
	<path pathLength="2999" clip-path="url(#z39166c12)" d="M563 421L809 474L867 452L854 231L830 209L761 247"/>
	<path pathLength="2999" clip-path="url(#z39166c13)" d="M641 574L685 548L677 -84"/>
</g>
</svg>