<!--
AnimCJK 2016-2019 Copyright Francois Mizessyn - https://github.com/parsimonhi/animCJK
Derived from:
    MakeMeAHanzi project - https://github.com/skishore/makemeahanzi
    Arphic PL KaitiM GB font
    Arphic PL UKai font
You can redistribute and/or modify this file under the terms of the Arphic Public License
as published by Arphic Technology Co., Ltd.
You should have received a copy of this license along with this file.
If not, see http://ftp.gnu.org/non-gnu/chinese-fonts-truetype/LICENSE.
-->
<svg id="z39178" class="acjk" version="1.1" viewBox="0 0 1024 1024" xmlns="http://www.w3.org/2000/svg" xmlns:xlink="http://www.w3.org/1999/xlink">
<style>
<![CDATA[
@keyframes zk {
	to {
		stroke-dashoffset:0;
	}
}
svg.acjk path[clip-path] {
	--t:0.8s;
	animation:zk var(--t) linear forwards var(--d);
	stroke-dasharray:3337;
	stroke-dashoffset:3339;
	stroke-width:128;
	stroke-linecap:round;
	fill:none;
	stroke:#000;
}
svg.acjk path[id] {fill:#ccc;}
]]>
</style>
<path id="z39178d1" d="M377 103C392 114 406 128 422 142C430 149 439 152 448 152C454 151 458 147 461 140C463 131 462 118 456 101C450 84 421 70 371 61C362 59 355 59 352 61C348 62 347 68 349 76C350 82 361 91 377 103Z"/>
<path id="z39178d2" d="M587 59C582 68 568 93 545 135C539 145 543 150 552 146C574 133 600 115 627 93C638 83 648 73 662 67C674 60 676 51 668 42C659 32 647 25 632 18C617 11 606 9 599 12C592 14 590 18 593 26C596 36 592 47 587 59Z"/>
<path id="z39178d3" d="M505 218C549 210 596 203 645 195C687 187 711 180 718 175C723 170 724 165 722 162C718 155 708 149 693 145C680 141 635 151 555 171C476 190 392 200 304 207C285 208 281 216 295 225C316 238 354 240 408 232C424 229 442 228 462 225C491 220 491 220 505 218Z"/>
<path id="z39178d4" d="M514 361C516 342 518 325 520 309C523 284 523 284 524 271C524 263 531 246 527 238C523 231 514 224 505 218C493 211 459 211 462 225C464 231 467 250 468 283C469 306 469 306 469 317C469 331 469 348 471 368C471 383 511 375 514 361Z"/>
<path id="z39178d5" d="M520 309C614 294 663 281 666 279C671 274 672 269 670 266C666 259 658 251 641 249C624 246 587 257 524 271C487 279 487 279 468 283C431 290 392 291 352 295C332 296 328 303 343 313C366 328 400 327 469 317C503 312 503 312 520 309Z"/>
<path id="z39178d6" d="M387 410C427 401 477 392 538 389C559 388 559 388 569 387C623 383 690 378 770 378C780 377 788 375 791 370C794 363 790 355 781 348C750 325 724 319 704 324C655 335 592 348 514 361C485 366 485 366 471 368C392 380 306 392 214 405C202 406 200 411 210 421C217 429 227 434 238 437C250 439 260 439 270 437C292 430 317 424 343 419C372 413 372 413 387 410Z"/>
<path id="z39178d7" d="M357 522C388 487 405 466 411 463C415 460 419 456 419 450C418 437 406 424 387 410C375 401 346 404 343 419C336 477 284 546 198 621C156 657 115 685 47 729C41 732 40 736 48 737C93 739 161 701 250 630C264 618 292 593 329 553C348 532 348 532 357 522Z"/>
<path id="z39178d8" d="M538 389C568 429 644 502 767 611C783 625 804 632 830 633C878 633 926 627 976 616C988 613 995 611 996 608C996 603 992 599 983 596C948 583 909 574 869 562C782 535 722 504 569 387C561 381 532 381 538 389Z"/>
<path id="z39178d9" d="M453 440C486 467 508 481 522 481C528 480 534 475 535 465C535 458 531 449 524 441C512 426 487 419 453 419C448 418 446 422 446 428C446 432 448 436 453 440Z"/>
<path id="z39178d10" d="M533 692C541 702 549 709 557 714C563 717 570 714 578 702C584 691 594 655 609 595C613 578 621 562 634 549C640 542 641 535 635 528C626 519 611 506 588 494C574 486 504 502 380 538C370 540 390 566 400 562C412 556 457 545 535 529C543 527 551 527 557 531C563 535 566 542 565 552C556 610 549 644 545 653C541 659 537 664 530 666C522 669 528 685 533 692Z"/>
<path id="z39178d11" d="M396 635C408 634 485 618 518 613C530 610 534 605 529 598C522 589 512 584 498 584C481 582 448 593 396 613C389 616 389 636 396 635Z"/>
<path id="z39178d12" d="M396 714C419 711 473 698 533 692C542 691 538 669 530 666C519 661 506 659 492 664C455 674 423 682 396 688C387 689 388 716 396 714Z"/>
<path id="z39178d13" d="M380 538C373 531 365 526 357 522C344 517 324 540 329 553C351 607 357 694 347 813C344 843 330 873 305 904C298 912 296 924 301 939C306 955 312 968 321 975C328 980 337 977 345 967C357 950 413 907 516 840C527 832 536 827 539 822C542 816 540 812 535 812C529 811 486 828 408 860C396 864 390 861 391 850C393 801 396 756 396 714C396 697 396 697 396 688C396 670 396 652 396 635C396 620 396 620 396 613C396 596 397 579 400 562C402 552 388 544 380 538Z"/>
<path id="z39178d14" d="M611 766C637 747 710 687 723 681C734 674 737 666 731 658C722 648 710 641 696 634C682 627 673 625 665 627C658 628 657 631 659 639C662 651 632 703 591 760C587 766 605 770 611 766Z"/>
<path id="z39178d15" d="M591 760C562 751 538 745 520 741C513 739 511 742 512 750C513 758 517 764 526 769C592 802 668 843 751 898C764 906 774 913 784 913C788 912 792 908 796 901C800 891 796 874 783 851C766 821 708 795 611 766C598 762 598 762 591 760Z"/>
<defs>
	<clipPath id="z39178c1"><use xlink:href="#z39178d1"/></clipPath>
	<clipPath id="z39178c2"><use xlink:href="#z39178d2"/></clipPath>
	<clipPath id="z39178c3"><use xlink:href="#z39178d3"/></clipPath>
	<clipPath id="z39178c4"><use xlink:href="#z39178d4"/></clipPath>
	<clipPath id="z39178c5"><use xlink:href="#z39178d5"/></clipPath>
	<clipPath id="z39178c6"><use xlink:href="#z39178d6"/></clipPath>
	<clipPath id="z39178c7"><use xlink:href="#z39178d7"/></clipPath>
	<clipPath id="z39178c8"><use xlink:href="#z39178d8"/></clipPath>
	<clipPath id="z39178c9"><use xlink:href="#z39178d9"/></clipPath>
	<clipPath id="z39178c10"><use xlink:href="#z39178d10"/></clipPath>
	<clipPath id="z39178c11"><use xlink:href="#z39178d11"/></clipPath>
	<clipPath id="z39178c12"><use xlink:href="#z39178d12"/></clipPath>
	<clipPath id="z39178c13"><use xlink:href="#z39178d13"/></clipPath>
	<clipPath id="z39178c14"><use xlink:href="#z39178d14"/></clipPath>
	<clipPath id="z39178c15"><use xlink:href="#z39178d15"/></clipPath>
</defs>
<path style="--d:1s;" pathLength="3333" clip-path="url(#z39178c1)" d="M357 69L426 108L451 147"/>
<path style="--d:2s;" pathLength="3333" clip-path="url(#z39178c2)" d="M599 17L626 64L549 139"/>
<path style="--d:3s;" pathLength="3333" clip-path="url(#z39178c3)" d="M297 218L714 167"/>
<path style="--d:4s;" pathLength="3333" clip-path="url(#z39178c4)" d="M469 229L497 261L483 365"/>
<path style="--d:5s;" pathLength="3333" clip-path="url(#z39178c5)" d="M342 303L662 265"/>
<path style="--d:6s;" pathLength="3333" clip-path="url(#z39178c6)" d="M217 416L712 350L787 361"/>
<path style="--d:7s;" pathLength="3333" clip-path="url(#z39178c7)" d="M347 423L375 455L294 558L173 664L51 729"/>
<path style="--d:8s;" pathLength="3333" clip-path="url(#z39178c8)" d="M548 393L806 585L988 607"/>
<path style="--d:9s;" pathLength="3333" clip-path="url(#z39178c9)" d="M453 430L527 474"/>
<path style="--d:10s;" pathLength="3333" clip-path="url(#z39178c10)" d="M390 542L553 511L596 531L568 660L541 694"/>
<path style="--d:11s;" pathLength="3333" clip-path="url(#z39178c11)" d="M401 627L525 602"/>
<path style="--d:12s;" pathLength="3333" clip-path="url(#z39178c12)" d="M400 706L530 679"/>
<path style="--d:13s;" pathLength="3333" clip-path="url(#z39178c13)" d="M357 530L374 730L349 925L534 818"/>
<path style="--d:14s;" pathLength="3333" clip-path="url(#z39178c14)" d="M 672,638 686,668 600,758"/>
<path style="--d:15s;" pathLength="3333" clip-path="url(#z39178c15)" d="M518 749L717 838L790 907"/>
</svg>