<!--
AnimCJK 2016-2025 Copyright FM-SH - https://github.com/parsimonhi/animCJK
Derived from:
    MakeMeAHanzi project - https://github.com/skishore/makemeahanzi
    Arphic PL KaitiM GB font
    Arphic PL KaitiM Big5 font
You can redistribute and/or modify this file under the terms of the Arphic Public License
as published by Arphic Technology Co., Ltd.
You should have received a copy of this license along with this file.
If not, see https://ftp.gnu.org/non-gnu/chinese-fonts-truetype/LICENSE.
-->
<svg id="z39180" class="acjk" viewBox="0 0 1024 1024" xmlns="http://www.w3.org/2000/svg">
<style>
<![CDATA[
@keyframes zk {
	to {
		stroke-dashoffset:0;
	}
}
svg.acjk path[clip-path] {
	--t:0.8s;
	animation:zk var(--t) linear forwards var(--d);
	stroke-dasharray:3337;
	stroke-dashoffset:3339;
	stroke-width:128;
	stroke-linecap:round;
	fill:none;
	stroke:#000;
}
svg.acjk path[id] {fill:#ccc;}
]]>
</style>
<path id="z39180d1" d="M218 372C235 352 261 319 273 302C284 287 284 287 289 279C306 254 347 178 364 146C372 131 372 131 376 123C386 103 394 99 392 92C390 84 384 78 376 71C352 50 329 44 307 51C301 52 299 56 302 66C314 126 278 221 188 340C152 387 115 428 58 481C16 520 36 520 72 498C120 467 161 436 196 397C211 380 211 380 218 372Z"/>
<path id="z39180d2" d="M364 146C390 166 422 184 447 203C454 209 464 211 473 210C479 209 484 204 485 196C486 187 486 171 476 158C453 128 408 125 376 123C367 123 357 141 364 146Z"/>
<path id="z39180d3" d="M273 302C297 323 363 297 399 289C441 279 417 257 389 253C368 250 341 268 289 279C280 281 266 296 273 302Z"/>
<path id="z39180d4" d="M278 688C276 663 276 626 276 597C276 578 276 578 276 569C276 547 276 519 277 501C278 478 278 478 278 466C278 437 277 427 274 417C272 407 268 394 258 390C249 386 234 381 214 375C204 371 188 391 194 399C237 452 233 686 221 811C219 823 221 836 224 845C230 863 235 871 244 881C250 887 260 885 268 875C277 861 283 840 283 818C283 799 283 799 283 790C283 776 282 748 280 718C279 698 279 698 278 688Z"/>
<path id="z39180d5" d="M368 548C376 539 389 493 403 411C407 384 385 379 366 382C345 386 314 398 273 416C264 420 249 394 258 390C283 381 348 359 364 352C391 338 413 336 426 343C452 356 469 369 480 381C486 387 486 396 479 405C464 420 454 438 451 456C433 534 422 581 413 594C393 620 378 607 362 581C356 571 361 557 368 548Z"/>
<path id="z39180d6" d="M278 466C291 458 308 453 330 454C363 454 376 473 351 481C329 487 303 493 277 501C266 505 268 471 278 466Z"/>
<path id="z39180d7" d="M276 569C323 554 350 550 368 548C379 546 373 579 362 581C335 585 307 590 276 597C267 599 267 572 276 569Z"/>
<path id="z39180d8" d="M278 688C372 669 371 652 392 656C415 659 441 680 415 691C386 701 296 717 280 718C270 720 268 690 278 688Z"/>
<path id="z39180d9" d="M283 790C375 775 373 761 402 764C434 767 444 795 422 803C391 812 299 819 283 818C274 818 274 792 283 790Z"/>
<path id="z39180d10" d="M760 226C779 222 798 218 818 214C852 206 872 199 878 195C883 190 885 184 883 180C878 170 866 165 848 160C830 155 786 167 716 186C642 205 572 214 510 221C486 223 484 231 499 242C507 249 522 254 538 258C553 261 570 258 587 257C604 254 625 248 699 236C740 229 740 229 760 226Z"/>
<path id="z39180d11" d="M538 258C560 318 555 487 556 587C556 601 597 594 597 580C597 551 598 524 598 498C598 476 598 476 598 465C598 450 599 397 600 381C601 358 601 358 601 346C602 288 611 272 587 257C574 247 532 243 538 258Z"/>
<path id="z39180d12" d="M600 381C632 372 660 365 686 360C700 356 704 349 698 343C690 333 678 329 662 329C647 329 626 335 601 346C590 350 589 383 600 381Z"/>
<path id="z39180d13" d="M598 498Q647 486 685 480Q707 474 698 463Q686 450 662 448Q640 447 602 462Q599 463 598 465C589 471 587 500 598 498Z"/>
<path id="z39180d14" d="M781 588C816 583 857 579 903 579C939 578 961 576 965 569C968 561 963 551 953 545C917 519 880 515 842 527C823 532 803 537 781 542C746 550 746 550 728 554C711 557 623 575 597 580C570 585 570 585 556 587C517 593 478 599 439 607C426 609 423 615 434 625C452 641 477 646 499 640C565 619 692 599 727 595C763 590 763 590 781 588Z"/>
<path id="z39180d15" d="M781 542C781 400 786 308 795 268C797 255 792 246 783 240C774 234 766 229 760 226C742 215 688 218 699 236C737 289 730 466 728 554C727 581 727 581 727 595C721 821 720 949 740 968C744 972 750 976 755 974C767 967 772 940 777 902C789 792 781 682 781 588C781 557 781 557 781 542Z"/>
<defs>
	<clipPath id="z39180c1"><use href="#z39180d1"/></clipPath>
	<clipPath id="z39180c2"><use href="#z39180d2"/></clipPath>
	<clipPath id="z39180c3"><use href="#z39180d3"/></clipPath>
	<clipPath id="z39180c4"><use href="#z39180d4"/></clipPath>
	<clipPath id="z39180c5"><use href="#z39180d5"/></clipPath>
	<clipPath id="z39180c6"><use href="#z39180d6"/></clipPath>
	<clipPath id="z39180c7"><use href="#z39180d7"/></clipPath>
	<clipPath id="z39180c8"><use href="#z39180d8"/></clipPath>
	<clipPath id="z39180c9"><use href="#z39180d9"/></clipPath>
	<clipPath id="z39180c10"><use href="#z39180d10"/></clipPath>
	<clipPath id="z39180c11"><use href="#z39180d11"/></clipPath>
	<clipPath id="z39180c12"><use href="#z39180d12"/></clipPath>
	<clipPath id="z39180c13"><use href="#z39180d13"/></clipPath>
	<clipPath id="z39180c14"><use href="#z39180d14"/></clipPath>
	<clipPath id="z39180c15"><use href="#z39180d15"/></clipPath>
</defs>
<path style="--d:1s;" pathLength="3333" clip-path="url(#z39180c1)" d="M308 62L345 108L272 260L154 412L43 506"/>
<path style="--d:2s;" pathLength="3333" clip-path="url(#z39180c2)" d="M367 138L482 197"/>
<path style="--d:3s;" pathLength="3333" clip-path="url(#z39180c3)" d="M275 296L417 271"/>
<path style="--d:4s;" pathLength="3333" clip-path="url(#z39180c4)" d="M200 384L245 438L253 880"/>
<path style="--d:5s;" pathLength="3333" clip-path="url(#z39180c5)" d="M260 397L387 361L443 396L383 603"/>
<path style="--d:6s;" pathLength="3333" clip-path="url(#z39180c6)" d="M273 493L358 470"/>
<path style="--d:7s;" pathLength="3333" clip-path="url(#z39180c7)" d="M272 587L368 557"/>
<path style="--d:8s;" pathLength="3333" clip-path="url(#z39180c8)" d="M275 703L420 676"/>
<path style="--d:9s;" pathLength="3333" clip-path="url(#z39180c9)" d="M280 807L430 791"/>
<path style="--d:10s;" pathLength="3333" clip-path="url(#z39180c10)" d="M497 230L565 237L877 179"/>
<path style="--d:11s;" pathLength="3333" clip-path="url(#z39180c11)" d="M544 254L575 291L573 591"/>
<path style="--d:12s;" pathLength="3333" clip-path="url(#z39180c12)" d="M596 374L696 348"/>
<path style="--d:13s;" pathLength="3333" clip-path="url(#z39180c13)" d="M598 490L694 468"/>
<path style="--d:14s;" pathLength="3333" clip-path="url(#z39180c14)" d="M433 614L867 550L960 557"/>
<path style="--d:15s;" pathLength="3333" clip-path="url(#z39180c15)" d="M704 229L757 273L749 965"/>
</svg>