<!--
AnimCJK 2016-2018 Copyright Francois Mizessyn, https://github.com/parsimonhi/animCJK
Derived from:
    MakeMeAHanzi project - https://github.com/skishore/makemeahanzi
    Arphic PL KaitiM GB - https://apps.ubuntu.com/cat/applications/precise/fonts-arphic-gkai00mp/
    Arphic PL UKai - https://apps.ubuntu.com/cat/applications/fonts-arphic-ukai/
You can redistribute and/or modify this file under the terms of the Arphic Public License
as published by Arphic Technology Co., Ltd.
You should have received a copy of this license (the directory "APL") along with this file;
if not, see http://ftp.gnu.org/non-gnu/chinese-fonts-truetype/LICENSE.
-->
<svg id="z39366" class="acjk" version="1.1" viewBox="0 0 1024 1024" xmlns="http://www.w3.org/2000/svg" xmlns:xlink="http://www.w3.org/1999/xlink">
<style>
<![CDATA[
@keyframes z39366k {
	from {
		stroke:#c00;
		stroke-dashoffset:3334;
	}
	75% {
		stroke:#c00;
		stroke-dashoffset:0;
	}
	to {
		stroke:#000;
	}
}
#z39366 path[clip-path] {
	animation:z39366k 1s linear both;
	stroke-dasharray:3334;
	stroke-width:128;
	stroke-linecap:round;
	fill:none;
}
#z39366 path[clip-path="url(#z39366c1)"] {animation-delay:1s;}
#z39366 path[clip-path="url(#z39366c2)"] {animation-delay:2s;}
#z39366 path[clip-path="url(#z39366c3)"] {animation-delay:3s;}
#z39366 path[clip-path="url(#z39366c4)"] {animation-delay:4s;}
#z39366 path[clip-path="url(#z39366c5)"] {animation-delay:5s;}
#z39366 path[clip-path="url(#z39366c6)"] {animation-delay:6s;}
#z39366 path[clip-path="url(#z39366c7)"] {animation-delay:7s;}
#z39366 path[clip-path="url(#z39366c8)"] {animation-delay:8s;}
#z39366 path[clip-path="url(#z39366c9)"] {animation-delay:9s;}
#z39366 path[clip-path="url(#z39366c10)"] {animation-delay:10s;}
#z39366 path[clip-path="url(#z39366c11)"] {animation-delay:11s;}
#z39366 path[clip-path="url(#z39366c12)"] {animation-delay:12s;}
#z39366 path[clip-path="url(#z39366c13)"] {animation-delay:13s;}
#z39366 path[clip-path="url(#z39366c14)"] {animation-delay:14s;}
#z39366 path {fill:#ccc;}
]]>
</style>
<path id="z39366d1" d="M226 178C215 168 202 160 187 154C175 150 166 150 161 156C157 159 157 164 163 172C173 195 178 230 178 278C177 317 176 360 176 408C176 455 171 498 162 536C159 549 162 560 171 568C183 577 195 578 206 570L215 506C215 336 220 235 230 203 Z"/>
<path id="z39366d2" d="M335 192C359 186 395 180 422 174C440 170 451 166 454 163C458 159 459 154 457 149C452 143 442 139 427 135C413 133 372 140 326 156C288 165 254 172 226 178L230 203C252 207 277 206 303 200 Z"/>
<path id="z39366d3" d="M358 369C358 347 359 325 361 305L362 267C362 265 362 264 363 263C365 233 365 217 363 214C353 206 343 198 335 192L303 200C313 222 318 249 318 281L319 314L319 383L319 417L319 507L355 501C355 469 356 437 357 407 Z"/>
<path id="z39366d4" d="M361 305C377 301 403 297 419 294C433 292 437 287 431 279C424 271 413 266 398 264C390 264 371 265 362 267L318 281C297 289 277 297 257 304C247 307 248 313 262 321C264 321 283 319 319 314 Z"/>
<path id="z39366d5" d="M357 407C377 403 406 398 424 394C436 392 440 387 435 379C428 371 417 366 402 364C392 364 370 365 358 369L319 383C295 392 273 400 253 408C243 411 244 416 258 424C262 427 282 425 319 417 Z"/>
<path id="z39366d6" d="M206 570Q246 543 364 531Q392 527 404 539Q416 549 405 588Q401 646 393 707Q389 755 368 786Q365 789 300 776Q287 770 287 777Q286 781 294 789Q331 835 343 865Q350 884 367 875Q389 865 408 849Q429 819 433 783Q446 701 454 609Q460 576 475 548Q485 535 475 523Q459 507 427 488Q412 479 355 501L319 507Q288 511 237 524Q215 525 215 506L206 570 Z"/>
<path id="z39366d7" d="M85 635Q75 683 55 727Q43 754 61 779Q70 792 85 780Q119 741 113 677Q112 650 104 632Q98 626 94 626Q87 627 85 635 Z"/>
<path id="z39366d8" d="M154 641Q172 705 187 712Q194 716 204 707Q208 700 209 684Q206 660 165 625Q159 621 155 628Q152 632 154 641 Z"/>
<path id="z39366d9" d="M228 627Q252 684 267 690Q276 694 283 683Q286 676 284 662Q281 649 267 637Q246 618 236 612Q232 609 228 616Q225 620 228 627 Z"/>
<path id="z39366d10" d="M304 607Q328 664 343 670Q352 674 359 663Q362 656 360 642Q357 629 343 617Q322 598 312 592Q308 589 304 596Q301 600 304 607 Z"/>
<path id="z39366d11" d="M573 261Q609 276 659 265Q735 250 813 234Q850 227 855 221Q864 214 859 204Q852 192 822 185Q801 179 699 209Q636 224 570 230Q563 231 560 233L573 261 Z"/>
<path id="z39366d12" d="M768 529Q768 528 769 528Q797 480 821 399Q828 375 840 352Q847 343 840 334Q834 325 805 312Q784 303 776 306Q764 310 767 324Q783 405 733 498Q732 498 732 499L711 539Q654 617 590 680Q584 687 590 689Q621 695 702 616Q724 595 741 573L768 529 Z"/>
<path id="z39366d13" d="M741 573Q781 618 824 671Q834 687 847 692Q854 693 861 686Q871 676 864 640Q858 600 768 529L732 499Q660 441 619 413Q612 409 610 419Q609 429 617 438Q662 483 711 539L741 573 Z"/>
<path id="z39366d14" d="M560 233Q550 224 527 213Q508 201 499 209Q492 216 500 230Q516 264 518 326Q524 540 505 738Q501 777 478 812Q468 828 477 848Q484 870 494 878Q504 885 522 874Q618 810 892 812Q917 813 918 800Q918 785 889 764Q873 751 765 769Q626 782 578 792Q556 798 555 773Q562 583 566 344Q566 293 573 261L560 233 Z"/>
<defs>
	<clipPath id="z39366c1"><use xlink:href="#z39366d1"/></clipPath>
	<clipPath id="z39366c2"><use xlink:href="#z39366d2"/></clipPath>
	<clipPath id="z39366c3"><use xlink:href="#z39366d3"/></clipPath>
	<clipPath id="z39366c4"><use xlink:href="#z39366d4"/></clipPath>
	<clipPath id="z39366c5"><use xlink:href="#z39366d5"/></clipPath>
	<clipPath id="z39366c6"><use xlink:href="#z39366d6"/></clipPath>
	<clipPath id="z39366c7"><use xlink:href="#z39366d7"/></clipPath>
	<clipPath id="z39366c8"><use xlink:href="#z39366d8"/></clipPath>
	<clipPath id="z39366c9"><use xlink:href="#z39366d9"/></clipPath>
	<clipPath id="z39366c10"><use xlink:href="#z39366d10"/></clipPath>
	<clipPath id="z39366c11"><use xlink:href="#z39366d11"/></clipPath>
	<clipPath id="z39366c12"><use xlink:href="#z39366d12"/></clipPath>
	<clipPath id="z39366c13"><use xlink:href="#z39366d13"/></clipPath>
	<clipPath id="z39366c14"><use xlink:href="#z39366d14"/></clipPath>
</defs>
<path pathLength="3333" clip-path="url(#z39366c1)" d="M165 161L202 210L180 571"/>
<path pathLength="3333" clip-path="url(#z39366c2)" d="M232 181L452 153"/>
<path pathLength="3333" clip-path="url(#z39366c3)" d="M311 205L339 233L330 503"/>
<path pathLength="3333" clip-path="url(#z39366c4)" d="M257 310L426 281"/>
<path pathLength="3333" clip-path="url(#z39366c5)" d="M253 415L430 382"/>
<path pathLength="3333" clip-path="url(#z39366c6)" d="M213 561L231 533L394 509L444 541L395 804L361 832L294 778"/>
<path pathLength="3333" clip-path="url(#z39366c7)" d="M96 634L72 780"/>
<path pathLength="3333" clip-path="url(#z39366c8)" d="M160 631L193 708"/>
<path pathLength="3333" clip-path="url(#z39366c9)" d="M234 620L276 681"/>
<path pathLength="3333" clip-path="url(#z39366c10)" d="M310 600L352 661"/>
<path pathLength="3333" clip-path="url(#z39366c11)" d="M568 234L632 246L855 203"/>
<path pathLength="3333" clip-path="url(#z39366c12)" d="M774 311L807 354L765 486L708 579L595 681"/>
<path pathLength="3333" clip-path="url(#z39366c13)" d="M617 417L808 604L852 685"/>
<path pathLength="3333" clip-path="url(#z39366c14)" d="M504 217L542 266L525 829L782 790L913 796"/>
</svg>