<!--
AnimCJK 2016-2017 Copyright Francois Mizessyn, http://gooo.free.fr/animCJK/
Derived from:
    MakeMeAHanzi project - https://github.com/skishore/makemeahanzi
    Arphic PL KaitiM GB - https://apps.ubuntu.com/cat/applications/precise/fonts-arphic-gkai00mp/
    Arphic PL UKai - https://apps.ubuntu.com/cat/applications/fonts-arphic-ukai/
You can redistribute and/or modify this file under the terms of the Arphic Public License
as published by Arphic Technology Co., Ltd.
You should have received a copy of this license (the directory "APL") along with this file;
if not, see http://ftp.gnu.org/non-gnu/chinese-fonts-truetype/LICENSE.
-->
<svg id="z39438" class="acjk" version="1.1" viewBox="0 0 1024 1024" xmlns="http://www.w3.org/2000/svg" xmlns:xlink="http://www.w3.org/1999/xlink">
<style>
<![CDATA[
	@keyframes z39438k {
		from {
			stroke:#c00;
			stroke-dashoffset:3000;
		}
		75% {
			stroke:#c00;
			stroke-dashoffset:0;
		}
		to {
			stroke:#000;
		}
	}
	#z39438 path[clip-path] {
		animation:z39438k 1s linear both;
		stroke-dasharray:3000;
		stroke-width:128;
		stroke-linecap:round;
		fill:none;
	}
	#z39438 path[clip-path="url(#z39438c1)"] {animation-delay:1s;}
	#z39438 path[clip-path="url(#z39438c2)"] {animation-delay:2s;}
	#z39438 path[clip-path="url(#z39438c3)"] {animation-delay:3s;}
	#z39438 path[clip-path="url(#z39438c4)"] {animation-delay:4s;}
	#z39438 path[clip-path="url(#z39438c5)"] {animation-delay:5s;}
	#z39438 path[clip-path="url(#z39438c6)"] {animation-delay:6s;}
	#z39438 path[clip-path="url(#z39438c7)"] {animation-delay:7s;}
	#z39438 path[clip-path="url(#z39438c8)"] {animation-delay:8s;}
	#z39438 path[clip-path="url(#z39438c9)"] {animation-delay:9s;}
	#z39438 path[clip-path="url(#z39438c10)"] {animation-delay:10s;}
	#z39438 path[clip-path="url(#z39438c11)"] {animation-delay:11s;}
	#z39438 path[clip-path="url(#z39438c12)"] {animation-delay:12s;}
	#z39438 path[clip-path="url(#z39438c13)"] {animation-delay:13s;}
	#z39438 path[clip-path="url(#z39438c14)"] {animation-delay:14s;}
	#z39438 path[clip-path="url(#z39438c15)"] {animation-delay:15s;}
	#z39438 path[clip-path="url(#z39438c16)"] {animation-delay:16s;}
	#z39438 path[clip-path="url(#z39438c17)"] {animation-delay:17s;}
	#z39438 path[clip-path="url(#z39438c18)"] {animation-delay:18s;}
	#z39438 path {fill:#ccc;}
]]>
</style>
<g transform="scale(1,-1) translate(0,-900)">
	<path id="z39438d1" d="M222 728Q195 747 180 749Q170 748 167 740Q164 730 172 724Q205 672 181 418Q172 376 173 375Q174 366 186 358Q199 348 205 346L228 415Q224 440 227 570Q233 660 246 698L222 728Z"/>
	<path id="z39438d2" d="M348 717Q463 748 468 752Q475 759 471 766Q464 776 439 781Q414 785 388 774Q351 759 311 748Q269 738 222 728L246 698Q267 697 290 703Q300 706 311 708L348 717Z"/>
	<path id="z39438d3" d="M373 534Q374 568 376 599L377 640Q377 641 378 642Q381 687 377 693Q362 708 348 717L311 708Q324 681 325 618L326 583Q326 556 326 516L326 480Q326 452 327 415L369 422Q370 459 371 493L373 534Z"/>
	<path id="z39438d4" d="M376 599Q428 618 430 619Q436 626 431 632Q425 639 402 643Q389 644 377 640L325 618Q321 618 320 617Q298 610 271 605Q244 598 265 587Q292 578 326 583L376 599Z"/>
	<path id="z39438d5" d="M371 493Q392 500 417 507Q435 511 437 515Q443 522 439 528Q433 535 411 539Q392 542 373 534L326 516Q304 509 275 505Q248 498 269 487Q291 478 326 480L371 493Z"/>
	<path id="z39438d6" d="M205 346Q364 403 406 385Q419 376 418 359Q421 346 410 227Q400 157 386 129Q379 113 360 114Q332 123 302 132Q287 136 284 133Q281 129 295 118Q358 54 363 33Q367 26 375 25Q388 24 416 51Q441 79 446 114Q473 358 493 377Q500 384 500 390Q500 397 469 417Q430 439 371 422Q370 423 369 422L327 415Q323 415 320 414Q284 407 264 400Q233 393 228 415L205 346Z"/>
	<path id="z39438d7" d="M85 287Q79 233 63 182Q54 152 76 128Q86 115 100 130Q133 175 119 246Q115 274 104 292Q98 298 93 297Q86 294 85 287Z"/>
	<path id="z39438d8" d="M174 271Q175 220 186 203Q192 196 201 198Q210 202 215 211Q225 236 204 271Q191 293 183 295Q180 296 176 290Q172 284 174 271Z"/>
	<path id="z39438d9" d="M245 294Q255 246 269 228Q276 222 285 226Q292 230 296 241Q300 256 295 268Q276 313 251 320Q247 321 244 314Q243 307 245 294Z"/>
	<path id="z39438d10" d="M327 322Q336 286 353 263Q360 257 369 262Q376 266 379 278Q382 293 376 305Q372 314 345 340Q338 347 331 348Q327 349 325 342Q322 335 327 322Z"/>
	<path id="z39438d11" d="M698 677Q747 689 800 698Q840 708 847 713Q854 720 850 727Q844 736 821 742Q800 745 706 716L656 704Q608 695 555 690Q525 686 546 671Q582 653 645 667L647 667L698 677Z"/>
	<path id="z39438d12" d="M647 667Q623 589 560 542Q547 532 535 521Q525 512 535 511Q547 511 575 524Q609 540 633 565Q678 610 698 677L706 716Q706 717 707 719Q714 779 725 800Q732 816 718 823Q673 851 654 842Q642 838 649 825Q670 792 656 704L647 667Z"/>
	<path id="z39438d13" d="M719 605Q746 584 775 559Q785 550 795 551Q802 551 806 560Q809 570 802 591Q798 607 771 621Q714 642 700 638Q696 635 698 627Q699 620 719 605Z"/>
	<path id="z39438d14" d="M808 498Q857 504 919 506Q938 507 956 508Q972 508 976 516Q980 526 966 536Q917 569 863 551Q725 518 489 479Q473 476 486 463Q513 441 552 452Q640 480 764 494L808 498Z"/>
	<path id="z39438d15" d="M570 383Q561 387 537 391Q528 394 526 390Q522 386 528 373Q547 334 561 269Q564 250 576 236Q589 220 593 232Q596 242 595 257L591 284Q581 338 579 358L570 383Z"/>
	<path id="z39438d16" d="M698 302Q711 345 727 359Q746 380 727 392Q712 401 690 415Q675 424 638 403Q617 396 570 383L579 358Q600 365 644 373Q662 377 666 370Q670 366 655 301L698 302Z"/>
	<path id="z39438d17" d="M595 257Q602 256 613 258Q644 265 714 270Q723 271 724 278Q725 285 698 302L655 301Q618 292 591 284L595 257Z"/>
	<path id="z39438d18" d="M764 494Q779 433 780 424Q780 90 764 68Q751 61 720 69Q704 70 684 72Q672 75 673 68Q674 61 685 51Q743 8 778 -28Q790 -37 804 -21Q843 43 838 111Q832 312 842 434Q849 461 843 471Q836 483 808 498L764 494Z"/>
	<defs>
		<clipPath id="z39438c1"><use xlink:href="#z39438d1"/></clipPath>
		<clipPath id="z39438c2"><use xlink:href="#z39438d2"/></clipPath>
		<clipPath id="z39438c3"><use xlink:href="#z39438d3"/></clipPath>
		<clipPath id="z39438c4"><use xlink:href="#z39438d4"/></clipPath>
		<clipPath id="z39438c5"><use xlink:href="#z39438d5"/></clipPath>
		<clipPath id="z39438c6"><use xlink:href="#z39438d6"/></clipPath>
		<clipPath id="z39438c7"><use xlink:href="#z39438d7"/></clipPath>
		<clipPath id="z39438c8"><use xlink:href="#z39438d8"/></clipPath>
		<clipPath id="z39438c9"><use xlink:href="#z39438d9"/></clipPath>
		<clipPath id="z39438c10"><use xlink:href="#z39438d10"/></clipPath>
		<clipPath id="z39438c11"><use xlink:href="#z39438d11"/></clipPath>
		<clipPath id="z39438c12"><use xlink:href="#z39438d12"/></clipPath>
		<clipPath id="z39438c13"><use xlink:href="#z39438d13"/></clipPath>
		<clipPath id="z39438c14"><use xlink:href="#z39438d14"/></clipPath>
		<clipPath id="z39438c15"><use xlink:href="#z39438d15"/></clipPath>
		<clipPath id="z39438c16"><use xlink:href="#z39438d16"/></clipPath>
		<clipPath id="z39438c17"><use xlink:href="#z39438d17"/></clipPath>
		<clipPath id="z39438c18"><use xlink:href="#z39438d18"/></clipPath>
	</defs>
	<path pathLength="2999" clip-path="url(#z39438c1)" d="M174 739L214 694L197 353"/>
	<path pathLength="2999" clip-path="url(#z39438c2)" d="M229 727L465 761"/>
	<path pathLength="2999" clip-path="url(#z39438c3)" d="M317 707L350 677L338 419"/>
	<path pathLength="2999" clip-path="url(#z39438c4)" d="M266 596L428 627"/>
	<path pathLength="2999" clip-path="url(#z39438c5)" d="M271 496L436 522"/>
	<path pathLength="2999" clip-path="url(#z39438c6)" d="M230 403L249 378L405 408L458 379L403 93L371 71L291 129"/>
	<path pathLength="2999" clip-path="url(#z39438c7)" d="M94 291L83 129"/>
	<path pathLength="2999" clip-path="url(#z39438c8)" d="M182 287L197 203"/>
	<path pathLength="2999" clip-path="url(#z39438c9)" d="M252 313L282 231"/>
	<path pathLength="2999" clip-path="url(#z39438c10)" d="M331 338L368 267"/>
	<path pathLength="2999" clip-path="url(#z39438c11)" d="M550 680L844 727"/>
	<path pathLength="2999" clip-path="url(#z39438c12)" d="M654 838L692 806L669 661L622 579L538 516"/>
	<path pathLength="2999" clip-path="url(#z39438c13)" d="M705 631L775 591L792 556"/>
	<path pathLength="2999" clip-path="url(#z39438c14)" d="M489 472L877 530L972 525"/>
	<path pathLength="2999" clip-path="url(#z39438c15)" d="M533 386L586 236"/>
	<path pathLength="2999" clip-path="url(#z39438c16)" d="M577 381L670 396L700 377L663 307"/>
	<path pathLength="2999" clip-path="url(#z39438c17)" d="M597 281L717 278"/>
	<path pathLength="2999" clip-path="url(#z39438c18)" d="M773 487L810 454L798 55L764 18L679 63"/>
</g>
</svg>