<!--
AnimCJK 2016-2018 Copyright Francois Mizessyn - https://github.com/parsimonhi/animCJK
Derived from:
    MakeMeAHanzi project - https://github.com/skishore/makemeahanzi
    Arphic PL KaitiM GB - https://apps.ubuntu.com/cat/applications/precise/fonts-arphic-gkai00mp/
    Arphic PL UKai - https://apps.ubuntu.com/cat/applications/fonts-arphic-ukai/
You can redistribute and/or modify this file under the terms of the Arphic Public License
as published by Arphic Technology Co., Ltd.
You should have received a copy of this license (the directory "APL") along with this file;
if not, see http://ftp.gnu.org/non-gnu/chinese-fonts-truetype/LICENSE.
-->
<svg id="z39592" class="acjk" version="1.1" viewBox="0 0 1024 1024" xmlns="http://www.w3.org/2000/svg" xmlns:xlink="http://www.w3.org/1999/xlink">
<style>
<![CDATA[
@keyframes z39592k {
	from {
		stroke:#ccc;
		stroke-dashoffset:3334;
	}
	1% {
		stroke:#c00;
		stroke-dashoffset:3334;
	}
	75% {
		stroke:#c00;
		stroke-dashoffset:0;
	}
	to {
		stroke:#000;
	}
}
#z39592 path[clip-path] {
	animation:z39592k 1s linear both;
	stroke-dasharray:3334;
	stroke-width:128;
	stroke-linecap:round;
	fill:none;
}
#z39592 path[clip-path="url(#z39592c1)"] {animation-delay:1s;}
#z39592 path[clip-path="url(#z39592c2)"] {animation-delay:2s;}
#z39592 path[clip-path="url(#z39592c3)"] {animation-delay:3s;}
#z39592 path[clip-path="url(#z39592c4)"] {animation-delay:4s;}
#z39592 path[clip-path="url(#z39592c5)"] {animation-delay:5s;}
#z39592 path[clip-path="url(#z39592c6)"] {animation-delay:6s;}
#z39592 path[clip-path="url(#z39592c7)"] {animation-delay:7s;}
#z39592 path[clip-path="url(#z39592c8)"] {animation-delay:8s;}
#z39592 path[clip-path="url(#z39592c9)"] {animation-delay:9s;}
#z39592 path[clip-path="url(#z39592c10)"] {animation-delay:10s;}
#z39592 path {fill:#ccc;}
]]>
</style>
<path id="z39592d1" d="M388 144Q366 128 338 118Q325 114 316 120Q309 126 316 140Q346 194 369 387L407 381Q403 323 399 281L398 255Q398 251 398 247Q397 193 398 177L388 144 Z"/>
<path id="z39592d2" d="M669 342C677 246 696 182 724 150C734 136 734 123 723 112C711 103 686 92 649 78C636 73 622 74 608 82C556 104 482 125 388 144L398 177C538 145 611 130 615 132C617 132 619 134 621 136C631 144 636 158 636 178C635 187 634 197 634 207L632 239C629 279 624 316 618 350 Z"/>
<path id="z39592d3" d="M497 368C493 292 491 267 478 248C472 239 472 231 478 228C483 223 490 224 500 226C511 228 526 234 526 234L538 261C537 290 533 323 531 363 Z"/>
<path id="z39592d4" d="M538 261L526 234C551 223 616 199 634 207L632 239C603 245 565 255 538 261 Z"/>
<path id="z39592d5" d="M220 408Q208 384 197 377Q178 362 176 390Q180 420 147 470Q111 513 114 534Q120 567 131 585Q147 612 167 583Q183 556 196 516Q209 471 220 444L220 408 Z"/>
<path id="z39592d6" d="M220 444C232 450 247 451 263 447C349 421 486 396 672 372C732 364 770 359 786 364C799 368 803 377 803 382C802 384 791 411 769 461C764 470 764 475 769 479C773 481 781 479 793 471C831 445 865 427 897 418C921 410 934 403 934 397C933 390 908 368 858 332C844 321 829 317 813 320C768 325 720 334 669 342L618 350C606 351 570 357 531 363L497 368C458 373 421 378 407 381L369 387C354 389 259 403 220 408 Z"/>
<path id="z39592d7" d="M403 725Q404 682 409 648L411 624Q415 558 421 535L416 504Q395 477 356 477Q343 481 347 494Q396 608 337 803Q315 860 315 866Q315 899 334 925Q341 940 352 934Q389 913 399 788Q400 767 401 749L403 725 Z"/>
<path id="z39592d8" d="M421 535Q433 535 573 501Q594 494 599 505Q618 557 619 785Q619 845 609 860Q606 863 524 856Q502 852 505 861Q568 906 604 940Q620 959 636 964Q646 967 654 956Q694 899 691 846Q655 566 680 517Q693 496 680 485Q656 466 618 451Q599 444 582 452Q513 491 416 504L421 535 Z"/>
<path id="z39592d9" d="M409 648Q415 649 424 648Q496 635 548 627Q570 623 561 611Q551 598 527 594Q490 591 411 624L409 648 Z"/>
<path id="z39592d10" d="M401 749Q407 750 418 749Q494 737 551 731Q573 727 565 715Q555 702 531 697Q497 693 403 725L401 749 Z"/>
<defs>
	<clipPath id="z39592c1"><use xlink:href="#z39592d1"/></clipPath>
	<clipPath id="z39592c2"><use xlink:href="#z39592d2"/></clipPath>
	<clipPath id="z39592c3"><use xlink:href="#z39592d3"/></clipPath>
	<clipPath id="z39592c4"><use xlink:href="#z39592d4"/></clipPath>
	<clipPath id="z39592c5"><use xlink:href="#z39592d5"/></clipPath>
	<clipPath id="z39592c6"><use xlink:href="#z39592d6"/></clipPath>
	<clipPath id="z39592c7"><use xlink:href="#z39592d7"/></clipPath>
	<clipPath id="z39592c8"><use xlink:href="#z39592d8"/></clipPath>
	<clipPath id="z39592c9"><use xlink:href="#z39592d9"/></clipPath>
	<clipPath id="z39592c10"><use xlink:href="#z39592d10"/></clipPath>
</defs>
<path pathLength="3333" clip-path="url(#z39592c1)" d="M319 124L364 175L387 383"/>
<path pathLength="3333" clip-path="url(#z39592c2)" d="M395 147L622 104L664 123L683 144L629 347"/>
<path pathLength="3333" clip-path="url(#z39592c3)" d="M482 235L514 266L507 364"/>
<path pathLength="3333" clip-path="url(#z39592c4)" d="M535 237L629 216"/>
<path pathLength="3333" clip-path="url(#z39592c5)" d="M187 377L196 432L143 593"/>
<path pathLength="3333" clip-path="url(#z39592c6)" d="M228 439L794 343L846 369L880 403L774 474"/>
<path pathLength="3333" clip-path="url(#z39592c7)" d="M351 483L383 509L392 564L347 931"/>
<path pathLength="3333" clip-path="url(#z39592c8)" d="M424 509L594 473L643 505L649 871L619 912L515 862"/>
<path pathLength="3333" clip-path="url(#z39592c9)" d="M417 641L558 614"/>
<path pathLength="3333" clip-path="url(#z39592c10)" d="M411 742L560 716"/>
</svg>