<!--
AnimCJK 2016-2018 Copyright Francois Mizessyn, https://github.com/parsimonhi/animCJK
Derived from:
    MakeMeAHanzi project - https://github.com/skishore/makemeahanzi
    Arphic PL KaitiM GB - https://apps.ubuntu.com/cat/applications/precise/fonts-arphic-gkai00mp/
    Arphic PL UKai - https://apps.ubuntu.com/cat/applications/fonts-arphic-ukai/
You can redistribute and/or modify this file under the terms of the Arphic Public License
as published by Arphic Technology Co., Ltd.
You should have received a copy of this license (the directory "APL") along with this file;
if not, see http://ftp.gnu.org/non-gnu/chinese-fonts-truetype/LICENSE.
-->
<svg id="z39729" class="acjk" version="1.1" viewBox="0 0 1024 1024" xmlns="http://www.w3.org/2000/svg" xmlns:xlink="http://www.w3.org/1999/xlink">
<style>
<![CDATA[
@keyframes z39729k {
	from {
		stroke:#c00;
		stroke-dashoffset:3334;
	}
	75% {
		stroke:#c00;
		stroke-dashoffset:0;
	}
	to {
		stroke:#000;
	}
}
#z39729 path[clip-path] {
	animation:z39729k 1s linear both;
	stroke-dasharray:3334;
	stroke-width:128;
	stroke-linecap:round;
	fill:none;
}
#z39729 path[clip-path="url(#z39729c1)"] {animation-delay:1s;}
#z39729 path[clip-path="url(#z39729c2)"] {animation-delay:2s;}
#z39729 path[clip-path="url(#z39729c3)"] {animation-delay:3s;}
#z39729 path[clip-path="url(#z39729c4)"] {animation-delay:4s;}
#z39729 path[clip-path="url(#z39729c5)"] {animation-delay:5s;}
#z39729 path[clip-path="url(#z39729c6)"] {animation-delay:6s;}
#z39729 path[clip-path="url(#z39729c7)"] {animation-delay:7s;}
#z39729 path[clip-path="url(#z39729c8)"] {animation-delay:8s;}
#z39729 path[clip-path="url(#z39729c9)"] {animation-delay:9s;}
#z39729 path[clip-path="url(#z39729c10)"] {animation-delay:10s;}
#z39729 path[clip-path="url(#z39729c11)"] {animation-delay:11s;}
#z39729 path[clip-path="url(#z39729c12)"] {animation-delay:12s;}
#z39729 path[clip-path="url(#z39729c13)"] {animation-delay:13s;}
#z39729 path[clip-path="url(#z39729c14)"] {animation-delay:14s;}
#z39729 path[clip-path="url(#z39729c15)"] {animation-delay:15s;}
#z39729 path[clip-path="url(#z39729c16)"] {animation-delay:16s;}
#z39729 path[clip-path="url(#z39729c17)"] {animation-delay:17s;}
#z39729 path[clip-path="url(#z39729c18)"] {animation-delay:18s;}
#z39729 path[clip-path="url(#z39729c19)"] {animation-delay:19s;}
#z39729 path[clip-path="url(#z39729c20)"] {animation-delay:20s;}
#z39729 path[clip-path="url(#z39729c21)"] {animation-delay:21s;}
#z39729 path[clip-path="url(#z39729c22)"] {animation-delay:22s;}
#z39729 path[clip-path="url(#z39729c23)"] {animation-delay:23s;}
#z39729 path[clip-path="url(#z39729c24)"] {animation-delay:24s;}
#z39729 path[clip-path="url(#z39729c25)"] {animation-delay:25s;}
#z39729 path[clip-path="url(#z39729c26)"] {animation-delay:26s;}
#z39729 path[clip-path="url(#z39729c27)"] {animation-delay:27s;}
#z39729 path[clip-path="url(#z39729c28)"] {animation-delay:28s;}
#z39729 path[clip-path="url(#z39729c29)"] {animation-delay:29s;}
#z39729 path {fill:#ccc;}
]]>
</style>
<path id="z39729d1" d="M448 150Q448 147 471 110Q477 103 467 95Q443 77 427 81Q420 82 422 92Q432 132 397 185Q388 197 384 205Q380 214 388 210Q407 207 438 166L448 150 Z"/>
<path id="z39729d2" d="M438 166Q457 176 486 174L517 168Q542 161 574 154Q590 150 592 148Q598 142 594 136Q590 129 569 124Q560 123 493 141Q472 145 448 150L438 166 Z"/>
<path id="z39729d3" d="M490 217Q463 223 441 227Q420 230 398 234Q380 237 394 247Q415 259 446 253Q465 247 490 244L526 236Q538 232 595 224Q601 224 606 216Q607 209 593 203Q566 194 529 206L490 217 Z"/>
<path id="z39729d4" d="M486 174Q489 186 490 217L490 244Q490 274 490 323L520 317Q523 272 526 236L529 206Q535 187 530 180Q523 173 517 168L486 174 Z"/>
<path id="z39729d5" d="M490 323Q465 327 445 335Q435 336 438 326Q444 299 439 289Q430 279 416 269Q409 265 402 265Q395 268 400 280Q415 320 392 346Q382 356 385 366Q392 375 403 382Q410 386 417 382Q435 357 533 337Q554 334 565 334L569 309Q544 310 520 317L490 323 Z"/>
<path id="z39729d6" d="M565 334Q565 335 566 336Q567 348 572 356Q576 363 583 358Q592 348 605 296Q606 286 611 276Q617 263 607 255Q586 237 577 239Q571 242 572 251Q575 270 569 309L565 334 Z"/>
<path id="z39729d7" d="M291 209Q225 227 204 230Q179 234 197 246Q227 261 268 248Q269 248 274 248L323 236Q335 232 350 228Q369 222 372 220Q378 213 374 208Q370 201 349 196Q339 195 328 197L291 209 Z"/>
<path id="z39729d8" d="M328 197Q335 158 345 142Q349 135 341 125Q304 95 283 100Q273 104 277 114Q296 147 291 209L289 287Q280 362 291 382L292 384Q299 394 309 390Q318 381 319 291L320 274Q321 255 323 236L328 197 Z"/>
<path id="z39729d9" d="M274 248Q255 299 185 363Q178 370 184 371Q190 374 197 370Q242 352 289 287L290 245L274 248 Z"/>
<path id="z39729d10" d="M319 291Q355 327 369 326Q376 327 380 315Q380 308 373 296Q358 275 320 274L319 291 Z"/>
<path id="z39729d11" d="M717 188Q801 167 808 164Q814 158 810 152Q806 145 785 139Q761 136 722 153L685 163Q654 170 620 174Q595 178 614 190Q638 202 671 198L717 188 Z"/>
<path id="z39729d12" d="M722 153Q723 149 724 146Q725 128 737 105Q741 98 734 89Q718 76 698 67Q685 61 675 65Q665 68 670 78Q683 100 685 163L684 239Q678 326 687 342L688 344Q695 354 705 350Q714 341 714 250L714 234Q715 210 717 188L722 153 Z"/>
<path id="z39729d13" d="M671 198Q655 247 608 318Q605 324 612 324Q621 324 657 281Q670 263 684 239L684 196L671 198 Z"/>
<path id="z39729d14" d="M714 250Q744 272 781 305Q791 315 800 316Q804 316 808 310Q814 303 804 279Q791 248 714 234L714 250 Z"/>
<path id="z39729d15" d="M209 426Q199 405 188 397Q172 385 170 408Q176 442 118 516Q100 537 125 582Q141 603 154 580Q170 556 182 520Q195 480 206 455L209 426 Z"/>
<path id="z39729d16" d="M206 455Q233 470 260 463Q297 451 337 443L351 439Q394 426 692 388Q762 381 783 384Q802 388 800 400Q801 407 796 414Q768 477 771 480Q778 483 795 473Q844 442 885 433Q919 426 918 416Q917 406 850 354Q831 338 807 340Q722 353 616 369Q507 382 339 408Q273 420 209 426L206 455 Z"/>
<path id="z39729d17" d="M368 537Q346 564 293 609Q289 612 294 614Q348 596 391 553L413 529Q429 510 454 479Q458 472 462 470Q466 467 466 460Q463 445 438 434Q426 430 419 431Q415 432 415 439Q418 463 384 515L368 537 Z"/>
<path id="z39729d18" d="M391 553Q419 572 451 598Q461 607 469 608Q473 608 476 602Q480 595 471 574Q462 553 413 529L384 515Q338 494 311 485Q305 482 306 489Q306 496 312 500Q337 516 368 537L391 553 Z"/>
<path id="z39729d19" d="M337 443Q336 447 341 453Q365 486 381 486Q388 486 392 475Q393 468 387 456Q378 444 351 439L337 443 Z"/>
<path id="z39729d20" d="M257 528Q290 570 307 570Q316 571 320 558Q321 549 315 535Q300 514 260 509Q254 508 253 516Q252 522 257 528 Z"/>
<path id="z39729d21" d="M464 502Q491 538 504 541Q511 542 517 532Q518 525 513 511Q504 493 467 486Q463 485 461 491Q460 495 464 502 Z"/>
<path id="z39729d22" d="M416 635Q422 622 415 608Q406 596 371 589Q365 588 365 595Q364 599 369 605Q387 629 401 637L416 635 Z"/>
<path id="z39729d23" d="M401 637Q335 646 280 663Q262 670 265 647Q265 595 258 588Q246 578 229 570Q222 567 214 570Q207 574 214 586Q230 611 229 639Q230 666 221 678Q209 691 215 700Q222 710 234 716Q244 720 250 715Q274 685 420 658Q484 645 500 650Q501 649 504 649L507 623Q459 627 416 635L401 637 Z"/>
<path id="z39729d24" d="M504 649Q505 662 510 671Q514 681 524 675Q539 660 563 586Q567 570 574 555Q584 540 571 528Q561 518 550 508Q543 502 534 505Q527 508 527 520Q530 550 507 623L504 649 Z"/>
<path id="z39729d25" d="M328 774Q367 774 475 737Q494 730 498 727Q504 720 500 713Q493 704 469 702Q442 701 378 732Q351 739 324 747L328 774 Z"/>
<path id="z39729d26" d="M324 747Q306 725 290 720Q280 717 275 721Q266 725 275 737Q303 803 261 860Q260 860 259 861Q246 876 250 894Q254 921 266 933Q273 940 286 927Q332 896 481 827Q497 820 500 813Q504 803 486 808Q327 854 319 849Q312 842 317 821Q324 784 328 774L324 747 Z"/>
<path id="z39729d27" d="M679 428Q686 446 645 509Q626 537 598 568Q591 574 589 578Q586 585 596 584Q626 584 711 491Q723 476 732 470Q739 463 737 454Q734 445 717 427Q701 414 687 412Q675 412 679 428 Z"/>
<path id="z39729d28" d="M687 542Q694 567 639 641Q612 674 576 710Q567 717 565 721Q561 728 572 728Q611 728 716 616Q731 597 743 590Q750 583 749 572Q748 562 728 543Q712 527 697 525Q684 525 687 542 Z"/>
<path id="z39729d29" d="M715 647Q727 708 620 829Q617 830 616 833Q585 866 510 929Q501 933 511 937Q622 916 775 709Q782 699 788 694Q795 690 794 680Q793 670 781 659Q751 629 722 634Q713 635 715 647 Z"/>
<defs>
	<clipPath id="z39729c1"><use xlink:href="#z39729d1"/></clipPath>
	<clipPath id="z39729c2"><use xlink:href="#z39729d2"/></clipPath>
	<clipPath id="z39729c3"><use xlink:href="#z39729d3"/></clipPath>
	<clipPath id="z39729c4"><use xlink:href="#z39729d4"/></clipPath>
	<clipPath id="z39729c5"><use xlink:href="#z39729d5"/></clipPath>
	<clipPath id="z39729c6"><use xlink:href="#z39729d6"/></clipPath>
	<clipPath id="z39729c7"><use xlink:href="#z39729d7"/></clipPath>
	<clipPath id="z39729c8"><use xlink:href="#z39729d8"/></clipPath>
	<clipPath id="z39729c9"><use xlink:href="#z39729d9"/></clipPath>
	<clipPath id="z39729c10"><use xlink:href="#z39729d10"/></clipPath>
	<clipPath id="z39729c11"><use xlink:href="#z39729d11"/></clipPath>
	<clipPath id="z39729c12"><use xlink:href="#z39729d12"/></clipPath>
	<clipPath id="z39729c13"><use xlink:href="#z39729d13"/></clipPath>
	<clipPath id="z39729c14"><use xlink:href="#z39729d14"/></clipPath>
	<clipPath id="z39729c15"><use xlink:href="#z39729d15"/></clipPath>
	<clipPath id="z39729c16"><use xlink:href="#z39729d16"/></clipPath>
	<clipPath id="z39729c17"><use xlink:href="#z39729d17"/></clipPath>
	<clipPath id="z39729c18"><use xlink:href="#z39729d18"/></clipPath>
	<clipPath id="z39729c19"><use xlink:href="#z39729d19"/></clipPath>
	<clipPath id="z39729c20"><use xlink:href="#z39729d20"/></clipPath>
	<clipPath id="z39729c21"><use xlink:href="#z39729d21"/></clipPath>
	<clipPath id="z39729c22"><use xlink:href="#z39729d22"/></clipPath>
	<clipPath id="z39729c23"><use xlink:href="#z39729d23"/></clipPath>
	<clipPath id="z39729c24"><use xlink:href="#z39729d24"/></clipPath>
	<clipPath id="z39729c25"><use xlink:href="#z39729d25"/></clipPath>
	<clipPath id="z39729c26"><use xlink:href="#z39729d26"/></clipPath>
	<clipPath id="z39729c27"><use xlink:href="#z39729d27"/></clipPath>
	<clipPath id="z39729c28"><use xlink:href="#z39729d28"/></clipPath>
	<clipPath id="z39729c29"><use xlink:href="#z39729d29"/></clipPath>
</defs>
<path pathLength="3333" clip-path="url(#z39729c1)" d="M429 90L447 118L390 203"/>
<path pathLength="3333" clip-path="url(#z39729c2)" d="M443 162L590 140"/>
<path pathLength="3333" clip-path="url(#z39729c3)" d="M399 241L600 215"/>
<path pathLength="3333" clip-path="url(#z39729c4)" d="M515 177L501 320"/>
<path pathLength="3333" clip-path="url(#z39729c5)" d="M406 270L422 358L566 322"/>
<path pathLength="3333" clip-path="url(#z39729c6)" d="M579 244L579 352"/>
<path pathLength="3333" clip-path="url(#z39729c7)" d="M198 237L369 210"/>
<path pathLength="3333" clip-path="url(#z39729c8)" d="M283 109L317 145L305 383"/>
<path pathLength="3333" clip-path="url(#z39729c9)" d="M286 253L188 367"/>
<path pathLength="3333" clip-path="url(#z39729c10)" d="M326 279L370 322"/>
<path pathLength="3333" clip-path="url(#z39729c11)" d="M615 182L805 156"/>
<path pathLength="3333" clip-path="url(#z39729c12)" d="M676 74L709 105L698 343"/>
<path pathLength="3333" clip-path="url(#z39729c13)" d="M680 204L615 317"/>
<path pathLength="3333" clip-path="url(#z39729c14)" d="M721 241L804 308"/>
<path pathLength="3333" clip-path="url(#z39729c15)" d="M178 402L184 450L133 587"/>
<path pathLength="3333" clip-path="url(#z39729c16)" d="M211 449L800 363L836 383L864 426L777 473"/>
<path pathLength="3333" clip-path="url(#z39729c17)" d="M424 439L418 495L299 608"/>
<path pathLength="3333" clip-path="url(#z39729c18)" d="M315 494L471 598"/>
<path pathLength="3333" clip-path="url(#z39729c19)" d="M345 448L386 478"/>
<path pathLength="3333" clip-path="url(#z39729c20)" d="M261 519L311 563"/>
<path pathLength="3333" clip-path="url(#z39729c21)" d="M468 494L506 536"/>
<path pathLength="3333" clip-path="url(#z39729c22)" d="M371 596L416 623"/>
<path pathLength="3333" clip-path="url(#z39729c23)" d="M219 574L242 598L249 689L505 636"/>
<path pathLength="3333" clip-path="url(#z39729c24)" d="M537 509L551 548L518 672"/>
<path pathLength="3333" clip-path="url(#z39729c25)" d="M492 716L327 757"/>
<path pathLength="3333" clip-path="url(#z39729c26)" d="M279 727L305 766L294 890L494 813"/>
<path pathLength="3333" clip-path="url(#z39729c27)" d="M687 419L705 460L596 578"/>
<path pathLength="3333" clip-path="url(#z39729c28)" d="M695 534L714 579L572 724"/>
<path pathLength="3333" clip-path="url(#z39729c29)" d="M722 642L752 687L712 750L623 853L515 932"/>
</svg>