<!--
AnimCJK 2016-2025 Copyright FM-SH - https://github.com/parsimonhi/animCJK
Derived from:
    MakeMeAHanzi project - https://github.com/skishore/makemeahanzi
    Arphic PL KaitiM GB font
    Arphic PL UKai font
You can redistribute and/or modify this file under the terms of the Arphic Public License
as published by Arphic Technology Co., Ltd.
You should have received a copy of this license along with this file.
If not, see http://ftp.gnu.org/non-gnu/chinese-fonts-truetype/LICENSE.
-->
<svg id="z39995" class="acjk" version="1.1" viewBox="0 0 1024 1024" xmlns="http://www.w3.org/2000/svg" xmlns:xlink="http://www.w3.org/1999/xlink">
<style>
<![CDATA[
@keyframes zk {
	to {
		stroke-dashoffset:0;
	}
}
svg.acjk path[clip-path] {
	--t:0.8s;
	animation:zk var(--t) linear forwards var(--d);
	stroke-dasharray:3337;
	stroke-dashoffset:3339;
	stroke-width:128;
	stroke-linecap:round;
	fill:none;
	stroke:#000;
}
svg.acjk path[id] {fill:#ccc;}
]]>
</style>
<path id="z39995d1" d="M267 206Q291 161 314 141Q321 132 318 121Q315 111 292 92Q270 77 254 77Q239 78 246 97Q259 128 201 227Q173 272 133 323Q126 330 123 336Q120 345 132 343Q165 339 256 221C263 211 263 211 267 206Z"/>
<path id="z39995d2" d="M294 362Q397 248 423 233Q439 224 430 212Q418 202 387 181Q374 175 360 183Q353 187 298 201Q285 204 267 206C261 207 251 218 256 221Q268 233 332 224Q338 223 339 225Q343 229 337 238Q298 317 274 354Q267 363 265 370C261 379 288 370 294 362Z"/>
<path id="z39995d3" d="M158 398Q148 392 118 388Q108 385 104 390Q100 396 107 410Q138 473 156 575Q160 606 177 626Q193 645 198 631C199 622 199 622 200 617C200 599 200 599 200 590Q199 578 196 564Q174 462 169 428C167 418 168 403 158 398Z"/>
<path id="z39995d4" d="M333 592Q349 617 365 626Q374 632 386 614Q401 587 425 447Q432 420 450 398Q460 388 451 376Q438 363 400 342Q387 336 319 356Q316 356 294 362C275 367 275 367 265 370Q264 370 158 398C147 400 159 432 169 428Q200 415 247 405C268 399 268 399 279 396Q357 375 373 385Q388 395 384 416Q363 542 350 570C347 579 327 585 333 592Z"/>
<path id="z39995d5" d="M293 564Q294 528 296 498C297 475 297 475 297 463Q297 448 299 432Q305 414 279 396C270 389 241 395 247 405Q248 406 250 409Q253 418 256 476C257 497 257 497 257 507Q257 535 258 575C258 587 293 576 293 564Z"/>
<path id="z39995d6" d="M296 498Q317 492 338 489Q357 485 349 474Q339 464 318 461Q308 460 297 463C270 472 270 472 256 476Q228 486 205 497Q192 501 209 512Q215 515 257 507C283 501 283 501 296 498Z"/>
<path id="z39995d7" d="M200 617Q204 617 210 616Q250 604 333 592C342 590 357 577 350 570Q346 566 335 560Q322 553 298 561Q295 561 293 564C283 571 270 573 258 575Q227 582 200 590C191 592 191 617 200 617Z"/>
<path id="z39995d8" d="M106 700Q91 740 78 781Q68 803 77 826Q81 839 93 850Q100 857 112 855Q119 852 124 841Q133 814 133 702Q130 690 128 686Q124 682 118 682Q114 685 106 700Z"/>
<path id="z39995d9" d="M183 710Q189 774 206 786Q213 793 226 783Q233 776 235 758Q235 727 197 695Q193 689 187 697Q183 701 183 710Z"/>
<path id="z39995d10" d="M269 691Q287 745 309 754Q319 758 327 746Q331 736 329 719Q325 706 310 695Q288 677 278 672Q271 668 268 677Q265 683 269 691Z"/>
<path id="z39995d11" d="M351 672Q387 735 408 740Q418 743 426 729Q429 719 424 700Q412 670 359 650Q352 649 349 657Q346 664 351 672Z"/>
<path id="z39995d12" d="M557 132Q547 128 523 125Q513 122 510 127Q506 131 513 145Q538 197 556 281Q559 306 574 323Q590 341 594 327Q595 323 595 318C595 303 595 303 595 295Q591 262 586 247C583 232 583 232 582 225Q573 180 571 161C569 150 567 136 557 132Z"/>
<path id="z39995d13" d="M728 300Q728 304 731 310Q735 325 747 323Q760 322 766 308Q776 295 793 234Q806 188 839 160Q855 144 841 131Q825 116 778 93Q766 87 708 100Q657 107 613 120Q582 127 557 132C546 134 560 161 571 161Q578 162 584 160Q627 147 725 131Q741 130 749 133Q756 137 753 163Q740 257 731 278C729 285 727 293 728 300Z"/>
<path id="z39995d14" d="M586 247Q587 247 592 247Q653 235 697 229Q716 225 709 214Q699 202 679 200Q652 197 582 225C575 228 579 247 586 247Z"/>
<path id="z39995d15" d="M595 318Q601 319 610 317Q647 307 728 300C735 300 737 283 731 278Q727 274 722 271Q709 265 687 271Q636 286 595 295C587 296 587 318 595 318Z"/>
<path id="z39995d16" d="M503 397Q493 393 480 393Q470 392 468 395Q464 399 471 412Q493 455 510 525Q514 546 527 559Q542 575 545 563C546 555 546 555 547 551C546 533 546 533 545 524Q544 518 526 427C524 415 515 402 503 397Z"/>
<path id="z39995d17" d="M772 518Q785 539 797 546Q806 553 820 536Q830 523 856 453Q865 426 886 404Q898 394 888 381Q875 365 838 341Q823 334 737 353Q734 353 603 378Q549 388 503 397C491 399 514 431 526 427Q548 420 576 413C588 410 588 410 594 409Q634 399 688 390C712 386 712 386 724 384Q787 369 806 383Q813 389 811 400Q790 484 778 491C771 498 766 511 772 518Z"/>
<path id="z39995d18" d="M625 510Q625 509 626 509Q627 479 608 435Q605 431 603 424Q600 415 594 409C590 404 575 407 576 413Q577 420 580 428Q584 447 589 483Q593 501 607 514C611 519 624 516 625 510Z"/>
<path id="z39995d19" d="M699 494Q729 421 735 410Q744 398 724 384C714 377 686 378 688 390Q694 411 675 494C674 498 674 498 673 500C670 508 696 502 699 494Z"/>
<path id="z39995d20" d="M547 551Q598 533 772 518C781 516 785 498 778 491Q775 488 772 486Q757 479 699 494C682 498 682 498 673 500Q648 504 625 510C613 513 613 513 607 514Q574 518 545 524C536 526 539 554 547 551Z"/>
<path id="z39995d21" d="M678 779Q709 734 740 670Q753 645 772 628Q790 615 779 602Q767 589 739 577Q717 570 692 581Q667 591 635 602Q601 612 546 621Q534 622 530 628Q527 635 543 641Q576 651 618 638Q667 619 676 618Q692 625 684 642Q668 706 638 751C622 772 622 772 614 782Q550 848 417 885Q404 888 414 897Q420 901 461 899Q567 890 648 814C668 791 668 791 678 779Z"/>
<path id="z39995d22" d="M648 814Q771 937 818 932Q899 926 963 909Q997 902 993 893Q992 889 958 880Q789 847 706 797Q691 788 678 779C651 760 651 760 638 751Q614 732 588 710Q549 677 516 680Q500 681 497 686Q496 693 512 702Q546 717 614 782C637 803 637 803 648 814Z"/>
<defs>
	<clipPath id="z39995c1"><use xlink:href="#z39995d1"/></clipPath>
	<clipPath id="z39995c2"><use xlink:href="#z39995d2"/></clipPath>
	<clipPath id="z39995c3"><use xlink:href="#z39995d3"/></clipPath>
	<clipPath id="z39995c4"><use xlink:href="#z39995d4"/></clipPath>
	<clipPath id="z39995c5"><use xlink:href="#z39995d5"/></clipPath>
	<clipPath id="z39995c6"><use xlink:href="#z39995d6"/></clipPath>
	<clipPath id="z39995c7"><use xlink:href="#z39995d7"/></clipPath>
	<clipPath id="z39995c8"><use xlink:href="#z39995d8"/></clipPath>
	<clipPath id="z39995c9"><use xlink:href="#z39995d9"/></clipPath>
	<clipPath id="z39995c10"><use xlink:href="#z39995d10"/></clipPath>
	<clipPath id="z39995c11"><use xlink:href="#z39995d11"/></clipPath>
	<clipPath id="z39995c12"><use xlink:href="#z39995d12"/></clipPath>
	<clipPath id="z39995c13"><use xlink:href="#z39995d13"/></clipPath>
	<clipPath id="z39995c14"><use xlink:href="#z39995d14"/></clipPath>
	<clipPath id="z39995c15"><use xlink:href="#z39995d15"/></clipPath>
	<clipPath id="z39995c16"><use xlink:href="#z39995d16"/></clipPath>
	<clipPath id="z39995c17"><use xlink:href="#z39995d17"/></clipPath>
	<clipPath id="z39995c18"><use xlink:href="#z39995d18"/></clipPath>
	<clipPath id="z39995c19"><use xlink:href="#z39995d19"/></clipPath>
	<clipPath id="z39995c20"><use xlink:href="#z39995d20"/></clipPath>
	<clipPath id="z39995c21"><use xlink:href="#z39995d21"/></clipPath>
	<clipPath id="z39995c22"><use xlink:href="#z39995d22"/></clipPath>
</defs>
<path style="--d:1s;" pathLength="3333" clip-path="url(#z39995c1)" d="M252 82L281 131L128 335"/>
<path style="--d:2s;" pathLength="3333" clip-path="url(#z39995c2)" d="M263 217L350 204L385 227L274 367"/>
<path style="--d:3s;" pathLength="3333" clip-path="url(#z39995c3)" d="M111 398L142 422L191 631"/>
<path style="--d:4s;" pathLength="3333" clip-path="url(#z39995c4)" d="M157 409L369 362L416 385L376 569L343 605"/>
<path style="--d:5s;" pathLength="3333" clip-path="url(#z39995c5)" d="M254 402L277 437L271 577"/>
<path style="--d:6s;" pathLength="3333" clip-path="url(#z39995c6)" d="M210 504L343 480"/>
<path style="--d:7s;" pathLength="3333" clip-path="url(#z39995c7)" d="M201 608L346 578"/>
<path style="--d:8s;" pathLength="3333" clip-path="url(#z39995c8)" d="M120 692L104 851"/>
<path style="--d:9s;" pathLength="3333" clip-path="url(#z39995c9)" d="M192 700L216 783"/>
<path style="--d:10s;" pathLength="3333" clip-path="url(#z39995c10)" d="M275 677L321 749"/>
<path style="--d:11s;" pathLength="3333" clip-path="url(#z39995c11)" d="M356 658L422 730"/>
<path style="--d:12s;" pathLength="3333" clip-path="url(#z39995c12)" d="M515 130L543 151L587 328"/>
<path style="--d:13s;" pathLength="3333" clip-path="url(#z39995c13)" d="M560 137L752 111L781 124L798 163L743 317"/>
<path style="--d:14s;" pathLength="3333" clip-path="url(#z39995c14)" d="M583 234L706 219"/>
<path style="--d:15s;" pathLength="3333" clip-path="url(#z39995c15)" d="M592 306L731 291"/>
<path style="--d:16s;" pathLength="3333" clip-path="url(#z39995c16)" d="M475 401L503 428L535 563"/>
<path style="--d:17s;" pathLength="3333" clip-path="url(#z39995c17)" d="M508 403L821 364L850 400L793 541"/>
<path style="--d:18s;" pathLength="3333" clip-path="url(#z39995c18)" d="M584 410L615 512"/>
<path style="--d:19s;" pathLength="3333" clip-path="url(#z39995c19)" d="M696 387L712 417L680 497"/>
<path style="--d:20s;" pathLength="3333" clip-path="url(#z39995c20)" d="M542 539L778 506"/>
<path style="--d:21s;" pathLength="3333" clip-path="url(#z39995c21)" d="M540 631L704 600L733 628L614 813L533 863L420 893"/>
<path style="--d:22s;" pathLength="3333" clip-path="url(#z39995c22)" d="M505 688L799 884L985 893"/>
</svg>