<!--
AnimCJK 2016-2026 Copyright FM-SH, https://github.com/parsimonhi/animCJK
Derived from:
    MakeMeAHanzi project - https://github.com/skishore/makemeahanzi
    Arphic PL KaitiM GB font
    Arphic PL KaitiM Big5 font
You can redistribute and/or modify this file under the terms of the Arphic Public License
as published by Arphic Technology Co., Ltd.
You should have received a copy of this license along with this file.
If not, see https://ftp.gnu.org/non-gnu/chinese-fonts-truetype/LICENSE.
-->
<svg id="z40023" class="acjk" viewBox="0 0 1024 1024" xmlns="http://www.w3.org/2000/svg">
<style>
<![CDATA[
@keyframes zk {
	to {
		stroke-dashoffset:0;
	}
}
svg.acjk path[clip-path] {
	--t:0.8s;
	animation:zk var(--t) linear forwards var(--d);
	stroke-dasharray:3337;
	stroke-dashoffset:3339;
	stroke-width:128;
	stroke-linecap:round;
	fill:none;
	stroke:#000;
}
svg.acjk path[id] {fill:#ccc;}
]]>
</style>
<path id="z40023d1" d="M291 165C310 142 324 124 337 115C343 110 344 103 343 95C341 88 335 76 320 63C306 51 294 44 284 44C273 42 269 50 273 63C285 101 234 181 116 300C110 305 106 308 105 312C102 318 105 321 113 320C147 314 199 270 271 188C284 173 284 173 291 165Z"/>
<path id="z40023d2" d="M308 337C384 255 432 207 454 194C464 187 467 180 460 172C452 163 437 152 415 139C407 134 383 149 291 165C281 167 261 186 271 188C283 190 311 189 355 184C359 183 363 183 365 185C367 187 366 192 362 200C350 219 323 268 277 345C272 354 302 346 308 337Z"/>
<path id="z40023d3" d="M174 372C166 369 154 366 138 364C131 363 126 364 124 367C121 369 122 376 127 386C146 424 164 476 176 542C179 560 185 576 197 590C207 602 211 602 218 595C221 590 223 584 223 576C222 568 220 562 219 553C207 499 197 450 189 398C187 388 183 376 174 372Z"/>
<path id="z40023d4" d="M359 549C367 561 376 569 385 574C391 577 398 574 406 562C415 547 425 499 442 418C445 401 453 385 466 372C472 365 473 357 467 350C458 340 442 329 418 316C402 307 376 319 308 337C287 342 287 342 277 345C242 353 174 372 174 372C165 376 180 402 189 398C209 390 235 382 266 375C285 370 285 370 294 368C347 354 378 349 389 356C397 361 400 370 399 383C384 470 372 518 361 526C356 531 354 543 359 549Z"/>
<path id="z40023d5" d="M309 527C309 506 310 486 312 467C314 444 314 444 315 432C316 419 316 408 319 400C324 378 310 376 294 368C285 364 262 366 266 375C270 383 275 405 275 444C275 465 275 465 275 476C275 492 275 511 276 536C276 547 309 538 309 527Z"/>
<path id="z40023d6" d="M312 467C326 463 340 459 355 457C367 454 371 448 365 442C358 434 347 430 334 429C327 428 321 430 315 432C301 436 291 439 275 444C257 449 234 459 228 465C221 471 218 478 233 480C245 481 261 479 275 476C300 470 300 470 312 467Z"/>
<path id="z40023d7" d="M223 576C227 577 233 577 241 575C266 567 303 557 359 549C367 547 366 531 361 526C355 519 347 518 340 519C332 520 322 523 309 527C287 533 287 533 276 536C264 539 235 547 219 553C212 556 215 574 223 576Z"/>
<path id="z40023d8" d="M109 643C98 667 90 692 81 718C74 734 75 750 81 767C84 777 90 786 100 794C106 798 113 800 121 798C125 796 131 791 134 782C145 742 146 694 138 640C136 633 134 628 132 626C129 623 125 621 122 623C118 624 114 631 109 643Z"/>
<path id="z40023d9" d="M192 672C201 713 206 736 212 740C216 742 220 741 226 738C231 733 237 725 242 712C244 703 243 691 236 680C217 651 203 635 197 634C194 633 190 636 188 642C185 646 188 656 192 672Z"/>
<path id="z40023d10" d="M271 638C284 676 297 699 310 705C315 707 322 705 328 698C331 693 332 684 330 673C326 654 309 636 281 620C277 617 274 619 272 625C270 627 269 632 271 638Z"/>
<path id="z40023d11" d="M350 612C366 648 381 667 394 671C400 672 406 670 410 663C412 657 412 648 410 639C404 622 386 608 357 595C352 593 349 594 348 600C346 603 348 607 350 612Z"/>
<path id="z40023d12" d="M514 197C539 235 559 255 574 258C582 259 589 253 593 243C595 235 594 224 588 212C578 194 555 181 520 173C514 171 510 175 510 182C509 186 510 191 514 197Z"/>
<path id="z40023d13" d="M768 142C756 162 735 187 711 220C707 224 706 230 711 233C714 235 720 232 725 230C775 197 812 172 837 162C847 157 851 154 849 147C845 137 838 125 826 114C814 103 801 95 787 95C778 94 773 102 774 114C774 122 773 132 768 142Z"/>
<path id="z40023d14" d="M682 310C706 305 753 292 830 283C836 282 843 281 846 273C848 267 838 262 828 256C810 245 779 247 730 262C715 266 678 275 676 276C651 281 651 281 638 284C592 293 544 297 503 305C488 307 485 313 498 322C514 334 529 339 555 335C567 332 591 327 606 325C657 315 657 315 682 310Z"/>
<path id="z40023d15" d="M635 351C634 369 633 398 632 424C630 438 627 451 628 456C628 467 630 474 641 496C649 511 657 512 665 505C685 482 673 413 675 331C676 294 676 294 676 276C678 148 694 126 705 112C709 105 707 97 700 90C685 77 668 68 652 61C640 56 631 55 622 59C613 61 609 67 615 77C629 103 638 137 638 180C637 217 639 253 638 284C636 329 636 329 635 351Z"/>
<path id="z40023d16" d="M516 467C564 438 604 399 635 351C654 319 620 290 606 325C593 365 544 413 460 475C452 481 451 484 459 485C465 485 478 481 499 474C510 469 510 469 516 467Z"/>
<path id="z40023d17" d="M675 331C715 375 756 417 802 460C814 471 831 477 851 477C887 477 925 472 963 464C971 462 976 459 978 457C979 454 975 450 968 448C858 417 775 381 682 310C669 300 665 318 675 331Z"/>
<path id="z40023d18" d="M501 565C519 547 539 519 548 512C552 508 553 503 552 498C544 482 532 471 516 467C510 465 498 468 499 474C507 496 487 539 437 602C433 606 429 609 429 611C427 615 428 616 435 616C440 615 457 606 481 584C494 571 494 571 501 565Z"/>
<path id="z40023d19" d="M498 704C460 758 411 809 366 843C355 850 353 853 364 853C432 847 505 776 581 639C588 625 598 600 616 583C621 577 624 571 621 566C618 560 602 553 577 542C570 539 562 541 552 547C541 553 524 559 501 565C492 568 472 582 481 584C487 586 497 587 509 584C535 577 551 572 553 578C558 593 547 631 513 682C503 697 503 697 498 704Z"/>
<path id="z40023d20" d="M513 682C513 678 512 674 511 671C507 662 499 657 490 652C474 642 464 635 457 634C452 632 450 635 449 640C447 646 456 662 477 690C483 698 490 703 498 704C507 706 513 691 513 682Z"/>
<path id="z40023d21" d="M799 568C815 565 831 561 851 558C858 556 892 552 884 537C880 529 870 525 857 522C841 518 816 526 802 529C764 537 764 537 745 541C735 543 671 553 646 556C621 558 624 571 642 581C651 586 667 590 681 588C694 585 708 581 746 576C781 571 781 571 799 568Z"/>
<path id="z40023d22" d="M642 581C650 600 651 612 650 708C650 720 685 715 685 703C692 595 705 611 681 588C672 579 637 569 642 581Z"/>
<path id="z40023d23" d="M795 721C810 718 876 710 911 709C946 707 947 691 925 678C888 655 873 670 795 685C763 691 763 691 747 694C728 697 703 700 685 703C662 706 662 706 650 708C583 717 581 721 597 735C607 743 620 747 632 747C660 744 721 731 747 728C779 723 779 723 795 721Z"/>
<path id="z40023d24" d="M747 728C747 824 748 885 751 921C758 985 778 966 786 921C796 855 795 787 795 721C795 697 795 697 795 685C795 652 798 579 799 568C801 542 801 542 802 529C803 513 813 494 797 483C778 469 763 464 755 462C747 460 717 457 729 482C741 510 744 530 745 541C746 564 746 564 746 576C746 609 747 679 747 694C747 717 747 717 747 728Z"/>
<defs>
	<clipPath id="z40023c1"><use href="#z40023d1"/></clipPath>
	<clipPath id="z40023c2"><use href="#z40023d2"/></clipPath>
	<clipPath id="z40023c3"><use href="#z40023d3"/></clipPath>
	<clipPath id="z40023c4"><use href="#z40023d4"/></clipPath>
	<clipPath id="z40023c5"><use href="#z40023d5"/></clipPath>
	<clipPath id="z40023c6"><use href="#z40023d6"/></clipPath>
	<clipPath id="z40023c7"><use href="#z40023d7"/></clipPath>
	<clipPath id="z40023c8"><use href="#z40023d8"/></clipPath>
	<clipPath id="z40023c9"><use href="#z40023d9"/></clipPath>
	<clipPath id="z40023c10"><use href="#z40023d10"/></clipPath>
	<clipPath id="z40023c11"><use href="#z40023d11"/></clipPath>
	<clipPath id="z40023c12"><use href="#z40023d12"/></clipPath>
	<clipPath id="z40023c13"><use href="#z40023d13"/></clipPath>
	<clipPath id="z40023c14"><use href="#z40023d14"/></clipPath>
	<clipPath id="z40023c15"><use href="#z40023d15"/></clipPath>
	<clipPath id="z40023c16"><use href="#z40023d16"/></clipPath>
	<clipPath id="z40023c17"><use href="#z40023d17"/></clipPath>
	<clipPath id="z40023c18"><use href="#z40023d18"/></clipPath>
	<clipPath id="z40023c19"><use href="#z40023d19"/></clipPath>
	<clipPath id="z40023c20"><use href="#z40023d20"/></clipPath>
	<clipPath id="z40023c21"><use href="#z40023d21"/></clipPath>
	<clipPath id="z40023c22"><use href="#z40023d22"/></clipPath>
	<clipPath id="z40023c23"><use href="#z40023d23"/></clipPath>
	<clipPath id="z40023c24"><use href="#z40023d24"/></clipPath>
</defs>
<path style="--d:1s;" pathLength="3333" clip-path="url(#z40023c1)" d="M278 47L306 103L187 251L109 313"/>
<path style="--d:2s;" pathLength="3333" clip-path="url(#z40023c2)" d="M275 183L382 163L413 185L285 344"/>
<path style="--d:3s;" pathLength="3333" clip-path="url(#z40023c3)" d="M128 368L160 394L214 592"/>
<path style="--d:4s;" pathLength="3333" clip-path="url(#z40023c4)" d="M177 379L382 334L423 349L435 369L386 571"/>
<path style="--d:5s;" pathLength="3333" clip-path="url(#z40023c5)" d="M273 373L297 407L289 537"/>
<path style="--d:6s;" pathLength="3333" clip-path="url(#z40023c6)" d="M230 473L363 446"/>
<path style="--d:7s;" pathLength="3333" clip-path="url(#z40023c7)" d="M220 565L362 536"/>
<path style="--d:8s;" pathLength="3333" clip-path="url(#z40023c8)" d="M125 630L103 793"/>
<path style="--d:9s;" pathLength="3333" clip-path="url(#z40023c9)" d="M195 641L221 735"/>
<path style="--d:10s;" pathLength="3333" clip-path="url(#z40023c10)" d="M278 625L317 699"/>
<path style="--d:11s;" pathLength="3333" clip-path="url(#z40023c11)" d="M354 602L400 668"/>
<path style="--d:12s;" pathLength="3333" clip-path="url(#z40023c12)" d="M516 181L581 253"/>
<path style="--d:13s;" pathLength="3333" clip-path="url(#z40023c13)" d="M785 99L807 147L712 225"/>
<path style="--d:14s;" pathLength="3333" clip-path="url(#z40023c14)" d="M497 312L839 268"/>
<path style="--d:15s;" pathLength="3333" clip-path="url(#z40023c15)" d="M619 66L668 110L656 505"/>
<path style="--d:16s;" pathLength="3333" clip-path="url(#z40023c16)" d="M624 314L583 391L464 480"/>
<path style="--d:17s;" pathLength="3333" clip-path="url(#z40023c17)" d="M676 314L830 437L970 455"/>
<path style="--d:18s;" pathLength="3333" clip-path="url(#z40023c18)" d="M509 471L523 508L436 610"/>
<path style="--d:19s;" pathLength="3333" clip-path="url(#z40023c19)" d="M490 579L562 559L587 582L485 751L367 849"/>
<path style="--d:20s;" pathLength="3333" clip-path="url(#z40023c20)" d="M456 641L505 697"/>
<path style="--d:21s;" pathLength="3333" clip-path="url(#z40023c21)" d="M634 564L880 539"/>
<path style="--d:22s;" pathLength="3333" clip-path="url(#z40023c22)" d="M650 579L672 616L667 712"/>
<path style="--d:23s;" pathLength="3333" clip-path="url(#z40023c23)" d="M594 723L934 693"/>
<path style="--d:24s;" pathLength="3333" clip-path="url(#z40023c24)" d="M733 470L774 512L765 955"/>
</svg>