<!--
AnimCJK 2016-2018 Copyright Francois Mizessyn, https://github.com/parsimonhi/animCJK
Derived from:
    MakeMeAHanzi project - https://github.com/skishore/makemeahanzi
    Arphic PL KaitiM GB - https://apps.ubuntu.com/cat/applications/precise/fonts-arphic-gkai00mp/
    Arphic PL UKai - https://apps.ubuntu.com/cat/applications/fonts-arphic-ukai/
You can redistribute and/or modify this file under the terms of the Arphic Public License
as published by Arphic Technology Co., Ltd.
You should have received a copy of this license (the directory "APL") along with this file;
if not, see http://ftp.gnu.org/non-gnu/chinese-fonts-truetype/LICENSE.
-->
<svg id="z40169" class="acjk" version="1.1" viewBox="0 0 1024 1024" xmlns="http://www.w3.org/2000/svg" xmlns:xlink="http://www.w3.org/1999/xlink">
<style>
<![CDATA[
@keyframes z40169k {
	from {
		stroke:#c00;
		stroke-dashoffset:3334;
	}
	75% {
		stroke:#c00;
		stroke-dashoffset:0;
	}
	to {
		stroke:#000;
	}
}
#z40169 path[clip-path] {
	animation:z40169k 1s linear both;
	stroke-dasharray:3334;
	stroke-width:128;
	stroke-linecap:round;
	fill:none;
}
#z40169 path[clip-path="url(#z40169c1)"] {animation-delay:1s;}
#z40169 path[clip-path="url(#z40169c2)"] {animation-delay:2s;}
#z40169 path[clip-path="url(#z40169c3)"] {animation-delay:3s;}
#z40169 path[clip-path="url(#z40169c4)"] {animation-delay:4s;}
#z40169 path[clip-path="url(#z40169c5)"] {animation-delay:5s;}
#z40169 path[clip-path="url(#z40169c6)"] {animation-delay:6s;}
#z40169 path[clip-path="url(#z40169c7)"] {animation-delay:7s;}
#z40169 path[clip-path="url(#z40169c8)"] {animation-delay:8s;}
#z40169 path[clip-path="url(#z40169c9)"] {animation-delay:9s;}
#z40169 path[clip-path="url(#z40169c10)"] {animation-delay:10s;}
#z40169 path[clip-path="url(#z40169c11)"] {animation-delay:11s;}
#z40169 path[clip-path="url(#z40169c12)"] {animation-delay:12s;}
#z40169 path[clip-path="url(#z40169c13)"] {animation-delay:13s;}
#z40169 path {fill:#ccc;}
]]>
</style>
<path id="z40169d1" d="M216 385C207 462 185 527 163 580C139 635 110 683 82 727C79 731 77 735 76 739C73 745 76 748 83 747C99 744 133 708 181 635C191 619 199 601 208 582C233 526 260 453 271 362L276 320C277 308 278 296 280 285C284 239 287 207 293 192C296 182 299 173 294 166C284 154 267 146 248 137C235 131 225 128 218 132C209 136 207 144 213 152C222 164 229 192 229 238C229 244 228 250 228 258C227 286 224 314 221 342 Z"/>
<path id="z40169d2" d="M271 362C280 358 290 353 301 349C317 341 327 339 334 344C339 348 336 382 332 448C326 518 317 586 294 649C286 669 294 694 321 724C327 731 334 732 340 728C345 723 349 713 357 699C378 658 416 603 468 533C474 524 476 518 474 514C471 509 468 510 462 517C433 544 405 572 378 602C364 616 357 613 358 594C358 553 368 483 387 383C389 368 398 353 413 340C420 333 421 326 416 318C409 308 393 297 370 286C363 282 354 284 343 290C319 301 297 311 276 320L221 342C168 363 126 372 99 374C90 374 85 375 83 381C80 385 81 391 89 396C114 411 136 415 152 409C172 401 194 394 216 385 Z"/>
<path id="z40169d3" d="M556 238Q592 204 612 180Q669 113 685 102Q703 89 689 73Q673 60 645 52Q620 43 608 49Q595 53 603 65Q615 90 539 226L556 238 Z"/>
<path id="z40169d4" d="M547 490L547 432L547 407C547 395 545 360 546 351L548 328C549 306 552 285 560 267L556 238L539 226C532 221 524 217 514 213C501 209 492 210 487 216C483 220 483 225 489 233C499 253 504 324 505 446C505 506 501 554 492 591C488 605 493 616 502 628C513 643 530 644 545 626C556 612 549 594 549 574C549 558 547 528 547 513 Z"/>
<path id="z40169d5" d="M697 413C697 413 698 415 699 418C701 426 707 431 715 431C723 430 730 425 735 416C743 405 754 374 769 323C777 292 793 268 814 250C825 240 825 230 816 222C805 212 785 199 755 185C743 179 722 184 692 194C685 196 656 203 604 222C585 228 569 234 556 238L560 267C570 267 578 266 584 264C608 252 649 237 708 222C718 219 726 218 730 220C736 223 737 235 733 255C718 325 707 369 701 386 Z"/>
<path id="z40169d6" d="M546 351Q550 352 561 350Q624 335 670 326Q689 322 681 311Q671 298 648 296Q621 295 548 328L546 351 Z"/>
<path id="z40169d7" d="M547 432Q548 433 553 434Q562 435 573 433Q612 423 697 413L701 386Q680 371 606 393Q575 400 547 407L547 432 Z"/>
<path id="z40169d8" d="M547 513Q578 522 670 503Q688 499 707 495Q729 491 732 487Q739 480 735 473Q728 464 705 459Q690 456 608 480Q580 487 547 490L547 513 Z"/>
<path id="z40169d9" d="M863 520C855 520 846 522 836 526C818 532 780 542 752 546C714 551 557 589 549 574C549 594 556 612 545 626C571 607 626 598 711 587C795 575 844 573 858 584C866 590 866 608 862 639C846 744 830 811 810 841C804 848 795 856 782 854C759 850 739 841 720 835C711 832 707 833 707 837C707 839 708 844 714 849C748 882 773 908 785 932C790 944 797 947 809 942C847 923 872 893 882 849C894 791 904 729 915 666C918 641 927 617 941 596C948 584 950 575 942 567C930 554 911 540 886 526C878 521 871 520 863 520 Z"/>
<path id="z40169d10" d="M435 679Q420 734 396 784Q381 815 401 842Q410 857 426 843Q468 803 463 726Q464 698 455 676Q451 669 445 669Q438 670 435 679 Z"/>
<path id="z40169d11" d="M521 708Q540 780 548 784Q554 788 562 782Q569 776 577 756Q583 735 537 679Q530 672 525 670Q521 671 516 678Q515 685 521 708 Z"/>
<path id="z40169d12" d="M620 684Q633 708 645 736Q649 748 660 751Q667 754 674 747Q681 740 683 718Q684 696 630 652Q621 646 616 646Q612 647 610 656Q609 663 620 684 Z"/>
<path id="z40169d13" d="M729 664Q766 730 779 733Q786 734 793 727Q800 717 801 693Q801 668 736 627Q726 621 720 622Q716 623 714 633Q714 643 729 664 Z"/>
<defs>
	<clipPath id="z40169c1"><use xlink:href="#z40169d1"/></clipPath>
	<clipPath id="z40169c2"><use xlink:href="#z40169d2"/></clipPath>
	<clipPath id="z40169c3"><use xlink:href="#z40169d3"/></clipPath>
	<clipPath id="z40169c4"><use xlink:href="#z40169d4"/></clipPath>
	<clipPath id="z40169c5"><use xlink:href="#z40169d5"/></clipPath>
	<clipPath id="z40169c6"><use xlink:href="#z40169d6"/></clipPath>
	<clipPath id="z40169c7"><use xlink:href="#z40169d7"/></clipPath>
	<clipPath id="z40169c8"><use xlink:href="#z40169d8"/></clipPath>
	<clipPath id="z40169c9"><use xlink:href="#z40169d9"/></clipPath>
	<clipPath id="z40169c10"><use xlink:href="#z40169d10"/></clipPath>
	<clipPath id="z40169c11"><use xlink:href="#z40169d11"/></clipPath>
	<clipPath id="z40169c12"><use xlink:href="#z40169d12"/></clipPath>
	<clipPath id="z40169c13"><use xlink:href="#z40169d13"/></clipPath>
</defs>
<path pathLength="3333" clip-path="url(#z40169c1)" d="M220 141L260 176L234 419L178 596L81 739"/>
<path pathLength="3333" clip-path="url(#z40169c2)" d="M87 382L145 388L347 313L377 336L327 637L345 677L468 520"/>
<path pathLength="3333" clip-path="url(#z40169c3)" d="M607 54L645 98L548 231"/>
<path pathLength="3333" clip-path="url(#z40169c4)" d="M494 219L529 269L517 632"/>
<path pathLength="3333" clip-path="url(#z40169c5)" d="M565 259L720 202L768 221L777 244L706 425"/>
<path pathLength="3333" clip-path="url(#z40169c6)" d="M551 344L678 314"/>
<path pathLength="3333" clip-path="url(#z40169c7)" d="M554 425L697 399"/>
<path pathLength="3333" clip-path="url(#z40169c8)" d="M554 506L732 476"/>
<path pathLength="3333" clip-path="url(#z40169c9)" d="M555 610L566 591L857 550L905 583L835 870L792 898L715 841"/>
<path pathLength="3333" clip-path="url(#z40169c10)" d="M446 673L405 843"/>
<path pathLength="3333" clip-path="url(#z40169c11)" d="M527 676L556 780"/>
<path pathLength="3333" clip-path="url(#z40169c12)" d="M619 654L670 744"/>
<path pathLength="3333" clip-path="url(#z40169c13)" d="M723 628L784 728"/>
</svg>