<!--
AnimCJK 2016-2018 Copyright Francois Mizessyn, https://github.com/parsimonhi/animCJK
Derived from:
    MakeMeAHanzi project - https://github.com/skishore/makemeahanzi
    Arphic PL KaitiM GB - https://apps.ubuntu.com/cat/applications/precise/fonts-arphic-gkai00mp/
    Arphic PL UKai - https://apps.ubuntu.com/cat/applications/fonts-arphic-ukai/
You can redistribute and/or modify this file under the terms of the Arphic Public License
as published by Arphic Technology Co., Ltd.
You should have received a copy of this license (the directory "APL") along with this file;
if not, see http://ftp.gnu.org/non-gnu/chinese-fonts-truetype/LICENSE.
-->
<svg id="z40179" class="acjk" version="1.1" viewBox="0 0 1024 1024" xmlns="http://www.w3.org/2000/svg" xmlns:xlink="http://www.w3.org/1999/xlink">
<style>
<![CDATA[
@keyframes z40179k {
	from {
		stroke:#c00;
		stroke-dashoffset:3334;
	}
	75% {
		stroke:#c00;
		stroke-dashoffset:0;
	}
	to {
		stroke:#000;
	}
}
#z40179 path[clip-path] {
	animation:z40179k 1s linear both;
	stroke-dasharray:3334;
	stroke-width:128;
	stroke-linecap:round;
	fill:none;
}
#z40179 path[clip-path="url(#z40179c1)"] {animation-delay:1s;}
#z40179 path[clip-path="url(#z40179c2)"] {animation-delay:2s;}
#z40179 path[clip-path="url(#z40179c3)"] {animation-delay:3s;}
#z40179 path[clip-path="url(#z40179c4)"] {animation-delay:4s;}
#z40179 path[clip-path="url(#z40179c5)"] {animation-delay:5s;}
#z40179 path[clip-path="url(#z40179c6)"] {animation-delay:6s;}
#z40179 path[clip-path="url(#z40179c7)"] {animation-delay:7s;}
#z40179 path[clip-path="url(#z40179c8)"] {animation-delay:8s;}
#z40179 path[clip-path="url(#z40179c9)"] {animation-delay:9s;}
#z40179 path[clip-path="url(#z40179c10)"] {animation-delay:10s;}
#z40179 path[clip-path="url(#z40179c11)"] {animation-delay:11s;}
#z40179 path[clip-path="url(#z40179c12)"] {animation-delay:12s;}
#z40179 path[clip-path="url(#z40179c13)"] {animation-delay:13s;}
#z40179 path[clip-path="url(#z40179c14)"] {animation-delay:14s;}
#z40179 path {fill:#ccc;}
]]>
</style>
<path id="z40179d1" d="M255 149Q215 127 197 135Q185 144 193 157Q214 185 220 245Q220 444 204 557Q197 593 189 627Q156 744 77 891Q73 898 71 905Q70 917 80 914Q113 902 182 776Q200 739 217 696Q277 522 278 314Q281 209 284 194L255 149 Z"/>
<path id="z40179d2" d="M284 194Q297 193 316 186Q470 146 674 120Q686 119 693 126Q703 136 697 161Q643 647 782 829Q860 934 959 943Q984 944 988 935Q995 922 986 895Q970 823 961 750Q958 722 956 715Q955 700 947 709Q943 713 940 728Q913 836 899 838Q880 838 839 802Q746 712 734 513Q724 419 749 280Q767 160 803 139Q822 129 799 105Q771 83 731 61Q712 48 695 63Q682 67 482 112Q421 122 351 138Q285 148 255 149L284 194 Z"/>
<path id="z40179d3" d="M437 259Q501 244 568 230Q602 221 607 216Q614 209 611 202Q604 192 579 186Q554 182 528 192Q488 207 446 218Q398 230 343 236Q312 242 334 256Q361 271 401 268L437 259 Z"/>
<path id="z40179d4" d="M401 268Q405 277 380 351L406 344Q413 338 418 333Q454 296 460 292Q472 282 462 271Q452 264 437 259L401 268 Z"/>
<path id="z40179d5" d="M361 355Q349 348 335 342Q319 336 311 344Q307 348 313 359Q332 404 321 599Q318 630 311 660Q307 679 320 693Q338 708 358 695L362 632Q362 616 362 602L362 586Q362 559 363 533L363 508Q363 504 364 499Q363 480 364 463L366 439Q366 406 378 385L361 355 Z"/>
<path id="z40179d6" d="M380 351Q370 352 361 355L378 385Q384 384 388 383Q430 367 525 347Q543 344 549 347Q556 351 550 375Q523 474 517 482L515 507L516 509Q520 524 531 523Q544 522 552 510Q561 500 582 451Q598 406 632 381Q648 368 635 353Q620 337 577 312Q565 303 508 318Q424 334 406 344L380 351 Z"/>
<path id="z40179d7" d="M364 463Q368 463 375 462Q442 446 494 437Q513 433 505 422Q495 412 474 408Q458 407 366 439L364 463 Z"/>
<path id="z40179d8" d="M363 533Q372 534 382 532Q424 519 515 507L517 482Q496 467 432 489Q395 499 363 508L363 533 Z"/>
<path id="z40179d9" d="M362 602Q371 606 388 604Q476 588 541 576Q560 573 553 562Q544 550 523 547Q502 544 362 586L362 602 Z"/>
<path id="z40179d10" d="M358 695Q388 671 519 653Q585 643 603 657Q615 667 603 709Q599 751 590 795Q586 829 569 852Q562 861 541 857Q519 853 497 847Q484 843 483 849Q482 853 490 862Q530 908 541 940Q548 959 567 950Q624 925 636 854Q663 694 678 672Q678 669 680 668Q693 652 681 641Q665 622 629 602Q608 590 582 603Q549 616 519 621Q476 627 390 645Q366 652 362 632L358 695 Z"/>
<path id="z40179d11" d="M227 800Q239 831 249 869Q253 884 265 889Q272 893 282 886Q291 879 297 853Q303 825 244 764Q234 754 229 754Q223 755 219 764Q218 774 227 800 Z"/>
<path id="z40179d12" d="M312 747Q337 810 357 818Q367 822 376 810Q380 800 377 783Q368 755 322 728Q315 724 312 733Q309 739 312 747 Z"/>
<path id="z40179d13" d="M399 727Q417 785 437 793Q447 797 456 786Q460 776 459 759Q453 732 410 708Q403 705 400 713Q396 719 399 727 Z"/>
<path id="z40179d14" d="M496 732Q532 781 540 783Q547 784 554 775Q558 765 557 743Q554 724 500 698Q490 694 484 694Q480 695 479 705Q480 714 496 732 Z"/>
<defs>
	<clipPath id="z40179c1"><use xlink:href="#z40179d1"/></clipPath>
	<clipPath id="z40179c2"><use xlink:href="#z40179d2"/></clipPath>
	<clipPath id="z40179c3"><use xlink:href="#z40179d3"/></clipPath>
	<clipPath id="z40179c4"><use xlink:href="#z40179d4"/></clipPath>
	<clipPath id="z40179c5"><use xlink:href="#z40179d5"/></clipPath>
	<clipPath id="z40179c6"><use xlink:href="#z40179d6"/></clipPath>
	<clipPath id="z40179c7"><use xlink:href="#z40179d7"/></clipPath>
	<clipPath id="z40179c8"><use xlink:href="#z40179d8"/></clipPath>
	<clipPath id="z40179c9"><use xlink:href="#z40179d9"/></clipPath>
	<clipPath id="z40179c10"><use xlink:href="#z40179d10"/></clipPath>
	<clipPath id="z40179c11"><use xlink:href="#z40179d11"/></clipPath>
	<clipPath id="z40179c12"><use xlink:href="#z40179d12"/></clipPath>
	<clipPath id="z40179c13"><use xlink:href="#z40179d13"/></clipPath>
	<clipPath id="z40179c14"><use xlink:href="#z40179d14"/></clipPath>
</defs>
<path pathLength="3333" clip-path="url(#z40179c1)" d="M198 141L249 202L229 559L171 746L78 905"/>
<path pathLength="3333" clip-path="url(#z40179c2)" d="M265 152L306 168L687 92L747 119L706 439L744 698L827 834L926 890L957 888L952 716"/>
<path pathLength="3333" clip-path="url(#z40179c3)" d="M331 245L607 205"/>
<path pathLength="3333" clip-path="url(#z40179c4)" d="M461 281L419 291L386 344"/>
<path pathLength="3333" clip-path="url(#z40179c5)" d="M317 347L349 395L339 698"/>
<path pathLength="3333" clip-path="url(#z40179c6)" d="M370 358L544 328L587 349L594 376L537 519"/>
<path pathLength="3333" clip-path="url(#z40179c7)" d="M371 456L501 428"/>
<path pathLength="3333" clip-path="url(#z40179c8)" d="M370 525L514 494"/>
<path pathLength="3333" clip-path="url(#z40179c9)" d="M369 595L549 564"/>
<path pathLength="3333" clip-path="url(#z40179c10)" d="M364 644L387 667L597 624L639 647L595 875L550 905L490 850"/>
<path pathLength="3333" clip-path="url(#z40179c11)" d="M227 762L271 885"/>
<path pathLength="3333" clip-path="url(#z40179c12)" d="M317 735L373 809"/>
<path pathLength="3333" clip-path="url(#z40179c13)" d="M407 713L442 789"/>
<path pathLength="3333" clip-path="url(#z40179c14)" d="M487 703L549 776"/>
</svg>