<!--
AnimCJK 2016-2017 Copyright Francois Mizessyn, http://gooo.free.fr/animCJK/
Derived from:
    MakeMeAHanzi project - https://github.com/skishore/makemeahanzi
    Arphic PL KaitiM GB - https://apps.ubuntu.com/cat/applications/precise/fonts-arphic-gkai00mp/
    Arphic PL UKai - https://apps.ubuntu.com/cat/applications/fonts-arphic-ukai/
You can redistribute and/or modify this file under the terms of the Arphic Public License
as published by Arphic Technology Co., Ltd.
You should have received a copy of this license (the directory "APL") along with this file;
if not, see http://ftp.gnu.org/non-gnu/chinese-fonts-truetype/LICENSE.
-->
<svg id="z40180" class="acjk" version="1.1" viewBox="0 0 1024 1024" xmlns="http://www.w3.org/2000/svg" xmlns:xlink="http://www.w3.org/1999/xlink">
<style>
<![CDATA[
@keyframes z40180k {
	from {
		stroke:#c00;
		stroke-dashoffset:3000;
	}
	75% {
		stroke:#c00;
		stroke-dashoffset:0;
	}
	to {
		stroke:#000;
	}
}
#z40180 path[clip-path] {
	animation:z40180k 1s linear both;
	stroke-dasharray:3000;
	stroke-width:128;
	stroke-linecap:round;
	fill:none;
}
#z40180 path[clip-path="url(#z40180c1)"] {animation-delay:1s;}
#z40180 path[clip-path="url(#z40180c2)"] {animation-delay:2s;}
#z40180 path[clip-path="url(#z40180c3)"] {animation-delay:3s;}
#z40180 path[clip-path="url(#z40180c4)"] {animation-delay:4s;}
#z40180 path[clip-path="url(#z40180c5)"] {animation-delay:5s;}
#z40180 path[clip-path="url(#z40180c6)"] {animation-delay:6s;}
#z40180 path[clip-path="url(#z40180c7)"] {animation-delay:7s;}
#z40180 path[clip-path="url(#z40180c8)"] {animation-delay:8s;}
#z40180 path[clip-path="url(#z40180c9)"] {animation-delay:9s;}
#z40180 path[clip-path="url(#z40180c10)"] {animation-delay:10s;}
#z40180 path[clip-path="url(#z40180c11)"] {animation-delay:11s;}
#z40180 path[clip-path="url(#z40180c12)"] {animation-delay:12s;}
#z40180 path[clip-path="url(#z40180c13)"] {animation-delay:13s;}
#z40180 path[clip-path="url(#z40180c14)"] {animation-delay:14s;}
#z40180 path {fill:#ccc;}
]]>
</style>
<path id="z40180d1" d="M174 283Q162 276 133 270Q120 266 117 272Q110 278 118 294Q146 360 158 466Q159 497 176 520Q192 542 199 527Q206 511 205 483L201 449Q186 341 186 311L174 283 Z"/>
<path id="z40180d2" d="M351 429Q375 335 403 306Q427 279 403 264Q382 251 354 233Q335 221 314 233Q274 260 174 283L186 311Q187 308 285 285Q315 278 322 289Q331 296 320 336Q310 376 297 424L351 429 Z"/>
<path id="z40180d3" d="M205 483Q212 483 220 482Q263 470 361 459Q371 458 373 448Q373 441 351 429L297 424L295 424Q243 440 201 449L205 483 Z"/>
<path id="z40180d4" d="M575 178Q596 162 611 148Q659 99 683 85Q702 72 689 56Q673 40 645 30Q618 20 606 25Q593 29 600 41Q606 71 540 185Q539 186 539 188L575 178 Z"/>
<path id="z40180d5" d="M526 504Q525 462 525 422L525 392Q522 352 525 320L527 291Q531 263 538 241Q539 234 539 227L511 195Q501 189 489 185Q470 179 461 188Q454 194 463 206Q482 243 482 324Q483 388 484 468Q485 547 471 611Q465 633 481 649Q503 667 523 653L529 577Q528 552 527 528L526 504 Z"/>
<path id="z40180d6" d="M676 396L678 402Q682 420 696 420Q711 419 720 404Q735 388 766 304Q785 252 824 223Q845 208 829 191Q811 172 761 143Q743 131 684 149Q675 149 575 178L539 188Q523 191 511 195L539 227Q539 226 541 226Q590 207 701 181Q720 177 728 180Q738 187 730 220Q696 337 683 364L676 396 Z"/>
<path id="z40180d7" d="M536 319Q603 306 652 297Q674 293 666 280Q654 265 628 263Q594 260 527 291L525 320Q529 320 536 319 Z"/>
<path id="z40180d8" d="M525 422Q534 423 544 421Q587 408 676 396L683 364Q662 349 587 375Q554 384 525 392L525 422 Z"/>
<path id="z40180d9" d="M527 528Q537 532 557 530Q666 511 745 499Q770 495 761 481Q749 465 721 459Q690 456 526 504L527 528 Z"/>
<path id="z40180d10" d="M523 653Q568 623 706 600Q839 578 863 600Q875 613 858 657Q848 715 835 774Q825 820 802 849Q795 862 771 863Q749 859 730 856Q715 849 714 857Q714 863 722 872Q759 921 768 953Q775 977 796 967Q866 940 881 873Q903 788 922 692Q932 650 953 616Q969 597 956 583Q937 561 896 535Q872 522 840 534Q794 553 749 559Q688 566 561 592Q533 602 529 577L523 653 Z"/>
<path id="z40180d11" d="M324 706Q320 761 304 813Q292 849 324 883Q337 898 355 878Q391 820 370 756Q364 720 349 697Q340 690 334 691Q325 695 324 706 Z"/>
<path id="z40180d12" d="M439 720Q454 801 473 813Q485 822 499 808Q506 798 509 775Q506 742 457 699Q450 693 443 703Q437 709 439 720 Z"/>
<path id="z40180d13" d="M560 694Q587 763 606 769Q618 773 628 760Q632 750 631 729Q622 698 572 672Q565 668 560 678Q556 685 560 694 Z"/>
<path id="z40180d14" d="M679 696Q695 721 711 750Q720 763 733 767Q742 768 749 759Q756 747 756 721Q756 703 734 685Q685 649 668 649Q664 652 662 663Q662 673 679 696 Z"/>
<defs>
	<clipPath id="z40180c1"><use xlink:href="#z40180d1"/></clipPath>
	<clipPath id="z40180c2"><use xlink:href="#z40180d2"/></clipPath>
	<clipPath id="z40180c3"><use xlink:href="#z40180d3"/></clipPath>
	<clipPath id="z40180c4"><use xlink:href="#z40180d4"/></clipPath>
	<clipPath id="z40180c5"><use xlink:href="#z40180d5"/></clipPath>
	<clipPath id="z40180c6"><use xlink:href="#z40180d6"/></clipPath>
	<clipPath id="z40180c7"><use xlink:href="#z40180d7"/></clipPath>
	<clipPath id="z40180c8"><use xlink:href="#z40180d8"/></clipPath>
	<clipPath id="z40180c9"><use xlink:href="#z40180d9"/></clipPath>
	<clipPath id="z40180c10"><use xlink:href="#z40180d10"/></clipPath>
	<clipPath id="z40180c11"><use xlink:href="#z40180d11"/></clipPath>
	<clipPath id="z40180c12"><use xlink:href="#z40180d12"/></clipPath>
	<clipPath id="z40180c13"><use xlink:href="#z40180d13"/></clipPath>
	<clipPath id="z40180c14"><use xlink:href="#z40180d14"/></clipPath>
</defs>
<path pathLength="2999" clip-path="url(#z40180c1)" d="M122 277L158 320L189 526"/>
<path pathLength="2999" clip-path="url(#z40180c2)" d="M181 285L317 256L369 285L310 422"/>
<path pathLength="2999" clip-path="url(#z40180c3)" d="M209 475L300 445L367 449"/>
<path pathLength="2999" clip-path="url(#z40180c4)" d="M606 30L644 74L545 181"/>
<path pathLength="2999" clip-path="url(#z40180c5)" d="M467 195L507 246L501 656"/>
<path pathLength="2999" clip-path="url(#z40180c6)" d="M520 197L725 159L766 180L783 216L691 415"/>
<path pathLength="2999" clip-path="url(#z40180c7)" d="M529 312L660 282"/>
<path pathLength="2999" clip-path="url(#z40180c8)" d="M531 414L680 374"/>
<path pathLength="2999" clip-path="url(#z40180c9)" d="M532 521L758 479"/>
<path pathLength="2999" clip-path="url(#z40180c10)" d="M527 644L564 603L826 564L875 564L910 594L833 881L773 916L720 859"/>
<path pathLength="2999" clip-path="url(#z40180c11)" d="M335 698L334 885"/>
<path pathLength="2999" clip-path="url(#z40180c12)" d="M450 704L489 810"/>
<path pathLength="2999" clip-path="url(#z40180c13)" d="M566 678L623 763"/>
<path pathLength="2999" clip-path="url(#z40180c14)" d="M671 654L738 761"/>
</svg>