<!--
AnimCJK 2016-2023 Copyright FM&SH - https://github.com/parsimonhi/animCJK
Derived from:
    MakeMeAHanzi project - https://github.com/skishore/makemeahanzi
    Arphic PL KaitiM GB font
    Arphic PL UKai font
You can redistribute and/or modify this file under the terms of the Arphic Public License
as published by Arphic Technology Co., Ltd.
You should have received a copy of this license along with this file.
If not, see http://ftp.gnu.org/non-gnu/chinese-fonts-truetype/LICENSE.
-->
<svg id="z40565" class="acjk" version="1.1" viewBox="0 0 1024 1024" xmlns="http://www.w3.org/2000/svg" xmlns:xlink="http://www.w3.org/1999/xlink">
<style>
<![CDATA[
@keyframes zk {
	to {
		stroke-dashoffset:0;
	}
}
svg.acjk path[clip-path] {
	--t:0.8s;
	animation:zk var(--t) linear forwards var(--d);
	stroke-dasharray:3337;
	stroke-dashoffset:3339;
	stroke-width:128;
	stroke-linecap:round;
	fill:none;
	stroke:#000;
}
svg.acjk path[id] {fill:#ccc;}
]]>
</style>
<path id="z40565d1" d="M515 326C519 280 525 236 530 195C532 174 532 174 533 164C534 143 541 122 548 104C550 96 545 85 531 77C507 62 485 56 469 52C458 49 449 50 444 57C438 62 437 71 444 81C477 129 470 263 470 334C470 349 515 341 515 326Z"/>
<path id="z40565d2" d="M530 195C564 199 591 196 614 190C683 169 720 159 722 157C726 151 727 145 724 140C719 132 706 126 686 124C671 122 637 132 582 151C566 156 549 159 533 164C523 167 520 193 530 195Z"/>
<path id="z40565d3" d="M274 357C265 348 253 342 239 337C231 334 223 330 215 336C204 343 216 368 221 379C238 415 242 531 230 726C228 754 221 783 213 816C202 857 210 894 236 926C244 935 251 936 259 927C268 914 274 899 276 880C277 868 277 857 277 846C276 766 284 599 284 573C284 563 284 563 284 558C284 504 289 411 291 395C294 381 285 365 274 357Z"/>
<path id="z40565d4" d="M690 854C698 887 709 920 725 945C750 984 775 944 785 925C799 896 799 864 797 828C790 732 785 595 783 420C782 395 788 374 801 357C807 347 808 337 801 330C786 314 758 298 718 279C703 272 691 273 679 279C632 298 577 314 515 326C485 331 485 331 470 334C394 347 328 353 274 357C260 357 277 398 291 395C313 393 424 373 625 335C659 328 687 330 704 346C727 367 731 499 723 707C721 746 717 823 702 833C697 839 688 846 690 854Z"/>
<path id="z40565d5" d="M507 574C527 544 547 500 575 448C585 429 590 418 590 416C589 411 584 406 577 400C560 386 543 380 524 385C519 386 518 391 520 398C528 426 515 480 472 553C459 575 459 575 452 586C426 627 382 675 324 734C320 737 320 741 326 741C364 736 443 665 482 610C499 586 499 586 507 574Z"/>
<path id="z40565d6" d="M482 610C570 681 612 719 617 721C620 721 624 718 628 714C633 706 633 692 625 670C616 645 577 616 507 574C484 560 484 560 472 553C430 527 395 511 370 500C365 497 362 499 362 506C362 512 365 518 372 523C396 541 423 562 452 586C472 602 472 602 482 610Z"/>
<path id="z40565d7" d="M388 428C416 460 436 477 451 479C458 479 465 474 468 464C469 456 466 445 460 435C449 418 426 408 391 404C385 403 382 406 382 413C381 417 383 422 388 428Z"/>
<path id="z40565d8" d="M284 573C286 577 293 582 304 590C318 599 332 611 347 623C353 628 360 630 368 630C372 629 376 626 378 620C379 613 376 603 372 590C369 581 360 572 345 567C309 555 288 554 284 558C279 560 281 569 284 573Z"/>
<path id="z40565d9" d="M609 531C621 541 635 554 650 569C656 575 664 578 673 578C678 577 682 574 685 567C687 560 686 549 682 533C679 523 670 513 654 508C616 494 593 490 588 493C584 494 583 500 585 507C586 511 595 519 609 531Z"/>
<path id="z40565d10" d="M448 732C469 759 487 779 506 787C514 790 522 787 528 779C532 772 533 763 532 753C529 738 522 727 512 721C476 698 451 691 437 697C434 698 433 701 434 709C434 715 440 722 448 732Z"/>
<path id="z40565d11" d="M276 880C290 882 394 866 690 854C698 854 708 839 702 833C678 807 646 803 612 809C487 827 376 840 277 846C266 846 265 880 276 880Z"/>
<defs>
	<clipPath id="z40565c1"><use xlink:href="#z40565d1"/></clipPath>
	<clipPath id="z40565c2"><use xlink:href="#z40565d2"/></clipPath>
	<clipPath id="z40565c3"><use xlink:href="#z40565d3"/></clipPath>
	<clipPath id="z40565c4"><use xlink:href="#z40565d4"/></clipPath>
	<clipPath id="z40565c5"><use xlink:href="#z40565d5"/></clipPath>
	<clipPath id="z40565c6"><use xlink:href="#z40565d6"/></clipPath>
	<clipPath id="z40565c7"><use xlink:href="#z40565d7"/></clipPath>
	<clipPath id="z40565c8"><use xlink:href="#z40565d8"/></clipPath>
	<clipPath id="z40565c9"><use xlink:href="#z40565d9"/></clipPath>
	<clipPath id="z40565c10"><use xlink:href="#z40565d10"/></clipPath>
	<clipPath id="z40565c11"><use xlink:href="#z40565d11"/></clipPath>
</defs>
<path style="--d:1s;" pathLength="3333" clip-path="url(#z40565c1)" d="M444 63L504 110L491 339"/>
<path style="--d:2s;" pathLength="3333" clip-path="url(#z40565c2)" d="M530 184L719 142"/>
<path style="--d:3s;" pathLength="3333" clip-path="url(#z40565c3)" d="M217 342L260 395L250 925"/>
<path style="--d:4s;" pathLength="3333" clip-path="url(#z40565c4)" d="M275 362L344 369L692 304L752 344L745 958"/>
<path style="--d:5s;" pathLength="3333" clip-path="url(#z40565c5)" d="M528 390L554 428L499 548L330 737"/>
<path style="--d:6s;" pathLength="3333" clip-path="url(#z40565c6)" d="M368 505L568 645L619 715"/>
<path style="--d:7s;" pathLength="3333" clip-path="url(#z40565c7)" d="M390 413L461 468"/>
<path style="--d:8s;" pathLength="3333" clip-path="url(#z40565c8)" d="M290 567L371 624"/>
<path style="--d:9s;" pathLength="3333" clip-path="url(#z40565c9)" d="M589 502L675 570"/>
<path style="--d:10s;" pathLength="3333" clip-path="url(#z40565c10)" d="M441 703L524 779"/>
<path style="--d:11s;" pathLength="3333" clip-path="url(#z40565c11)" d="M271 866L699 838"/>
</svg>