<!--
AnimCJK 2016-2026 Copyright FM-SH - https://github.com/parsimonhi/animCJK
Derived from:
    MakeMeAHanzi project - https://github.com/skishore/makemeahanzi
    Arphic PL KaitiM GB font
    Arphic PL KaitiM Big5 font
You can redistribute and/or modify this file under the terms of the Arphic Public License
as published by Arphic Technology Co., Ltd.
You should have received a copy of this license along with this file.
If not, see https://ftp.gnu.org/non-gnu/chinese-fonts-truetype/LICENSE.
-->
<svg id="z40637" class="acjk" viewBox="0 0 1024 1024" xmlns="http://www.w3.org/2000/svg">
<style>
<![CDATA[
@keyframes zk {
	to {
		stroke-dashoffset:0;
	}
}
svg.acjk path[clip-path] {
	--t:0.8s;
	animation:zk var(--t) linear forwards var(--d);
	stroke-dasharray:3337;
	stroke-dashoffset:3339;
	stroke-width:128;
	stroke-linecap:round;
	fill:none;
	stroke:#000;
}
svg.acjk path[id] {fill:#ccc;}
]]>
</style>
<path id="z40637d1" d="M535 124C545 133 556 136 568 136C576 135 581 130 584 120C586 109 585 92 577 71C569 52 537 40 484 32C459 28 452 33 457 51C461 68 469 63 535 124Z"/>
<path id="z40637d2" d="M306 216C330 222 375 222 441 213C643 183 751 164 767 155C767 154 767 154 769 154C782 144 785 123 742 120C714 117 685 125 620 140C420 185 321 184 299 188C290 190 297 214 306 216Z"/>
<path id="z40637d3" d="M299 188C288 178 272 170 254 161C223 146 204 157 215 177C228 200 234 229 234 268C230 489 182 664 51 872C38 891 43 909 77 877C128 824 170 762 201 696C248 593 275 472 288 335C294 258 302 219 306 216C310 207 307 194 299 188Z"/>
<path id="z40637d4" d="M446 353C462 349 480 344 500 340C516 336 525 333 528 331C532 326 534 321 531 317C526 310 516 305 501 303C475 298 460 307 448 311C423 318 423 318 410 321C369 331 341 335 326 338C305 341 303 348 318 356C335 365 366 366 410 360C440 355 411 360 412 360C423 358 446 353 446 353Z"/>
<path id="z40637d5" d="M412 360C414 414 409 492 404 512C399 526 402 545 413 571C414 574 420 589 429 582C437 573 445 559 445 535C445 522 440 461 446 353C447 325 447 325 448 311C449 279 460 276 457 263C455 258 441 251 421 238C408 230 387 230 396 249C404 268 408 292 410 321C411 347 411 347 412 360Z"/>
<path id="z40637d6" d="M335 396C343 420 337 457 316 508C306 530 294 550 279 567C259 587 292 590 334 538C375 485 394 430 388 416C383 406 372 399 361 390C346 377 330 382 335 396Z"/>
<path id="z40637d7" d="M477 389C481 403 486 435 483 486C482 496 485 507 496 521C499 525 504 526 508 521C514 509 518 481 520 437C520 427 520 417 523 408C525 397 522 390 514 386C478 366 472 374 477 389Z"/>
<path id="z40637d8" d="M696 332C722 326 749 319 777 314C797 309 808 305 812 302C829 284 794 272 781 270C769 267 741 275 697 287C669 294 669 294 655 298C628 304 598 309 567 314C544 317 542 324 558 335C589 355 623 348 656 341C683 335 683 335 696 332Z"/>
<path id="z40637d9" d="M656 341C656 381 655 439 649 476C645 496 641 521 659 542C677 563 681 553 689 538C693 528 693 459 696 332C697 302 697 302 697 287C698 240 712 240 708 226C706 221 691 212 667 198C652 189 628 191 639 210C645 221 653 248 655 298C656 327 656 327 656 341Z"/>
<path id="z40637d10" d="M577 380C580 386 583 391 582 398C575 429 561 468 537 513C520 542 548 528 567 505C581 488 598 462 617 427C621 418 626 411 631 406C634 401 634 396 632 391C629 386 622 380 610 373C593 363 567 360 577 380Z"/>
<path id="z40637d11" d="M744 415C739 476 744 516 759 530C786 554 827 562 879 551C881 550 900 542 918 531C928 523 929 511 922 498C915 485 904 460 895 423C891 410 888 394 881 418C868 459 861 487 852 500C850 502 841 504 834 506C817 509 803 508 791 502C780 496 774 481 775 458C775 435 778 408 785 379C786 370 785 364 780 359C772 352 764 346 754 343C738 337 732 343 737 359C742 378 745 396 744 415Z"/>
<path id="z40637d12" d="M450 594C440 634 388 693 296 768C284 777 288 782 303 779C397 754 456 680 510 624C523 609 518 597 492 588C477 582 455 572 450 594Z"/>
<path id="z40637d13" d="M663 805C598 809 526 819 448 836C435 838 433 834 443 826C532 745 595 696 630 677C657 661 621 627 603 612C585 597 568 592 567 618C564 654 501 727 375 834C370 838 364 838 360 840C350 844 346 851 346 862C346 870 353 882 368 899C375 907 383 908 394 903C455 872 549 845 675 821C682 820 670 805 663 805Z"/>
<path id="z40637d14" d="M675 821C715 875 734 906 741 909C745 911 750 909 757 904C765 897 768 879 766 850C763 820 719 780 634 728C628 724 623 725 622 733C619 741 623 749 628 757C638 771 650 787 663 805C671 816 671 816 675 821Z"/>
<defs>
	<clipPath id="z40637c1"><use href="#z40637d1"/></clipPath>
	<clipPath id="z40637c2"><use href="#z40637d2"/></clipPath>
	<clipPath id="z40637c3"><use href="#z40637d3"/></clipPath>
	<clipPath id="z40637c4"><use href="#z40637d4"/></clipPath>
	<clipPath id="z40637c5"><use href="#z40637d5"/></clipPath>
	<clipPath id="z40637c6"><use href="#z40637d6"/></clipPath>
	<clipPath id="z40637c7"><use href="#z40637d7"/></clipPath>
	<clipPath id="z40637c8"><use href="#z40637d8"/></clipPath>
	<clipPath id="z40637c9"><use href="#z40637d9"/></clipPath>
	<clipPath id="z40637c10"><use href="#z40637d10"/></clipPath>
	<clipPath id="z40637c11"><use href="#z40637d11"/></clipPath>
	<clipPath id="z40637c12"><use href="#z40637d12"/></clipPath>
	<clipPath id="z40637c13"><use href="#z40637d13"/></clipPath>
	<clipPath id="z40637c14"><use href="#z40637d14"/></clipPath>
</defs>
<path style="--d:1s;" pathLength="3333" clip-path="url(#z40637c1)" d="M462 38L576 126"/>
<path style="--d:2s;" pathLength="3333" clip-path="url(#z40637c2)" d="M300 198L774 144"/>
<path style="--d:3s;" pathLength="3333" clip-path="url(#z40637c3)" d="M220 164L269 215L230 530L164 716L52 885"/>
<path style="--d:4s;" pathLength="3333" clip-path="url(#z40637c4)" d="M319 349L525 320"/>
<path style="--d:5s;" pathLength="3333" clip-path="url(#z40637c5)" d="M403 241L431 275L428 578"/>
<path style="--d:6s;" pathLength="3333" clip-path="url(#z40637c6)" d="M343 388L355 461L282 574"/>
<path style="--d:7s;" pathLength="3333" clip-path="url(#z40637c7)" d="M484 379L503 409L501 520"/>
<path style="--d:8s;" pathLength="3333" clip-path="url(#z40637c8)" d="M556 325L812 292"/>
<path style="--d:9s;" pathLength="3333" clip-path="url(#z40637c9)" d="M644 202L679 236L675 549"/>
<path style="--d:10s;" pathLength="3333" clip-path="url(#z40637c10)" d="M583 372L605 408L537 523"/>
<path style="--d:11s;" pathLength="3333" clip-path="url(#z40637c11)" d="M742 347L763 376L762 494L789 525L884 514L888 415"/>
<path style="--d:12s;" pathLength="3333" clip-path="url(#z40637c12)" d="M461 585L478 615L439 664L299 771"/>
<path style="--d:13s;" pathLength="3333" clip-path="url(#z40637c13)" d="M578 605L596 660L398 855L417 871L669 815"/>
<path style="--d:14s;" pathLength="3333" clip-path="url(#z40637c14)" d="M627 732L729 841L749 905"/>
</svg>