<!--
AnimCJK 2016-2017 Copyright Francois Mizessyn, http://gooo.free.fr/animCJK/
Derived from:
    MakeMeAHanzi project - https://github.com/skishore/makemeahanzi
    Arphic PL KaitiM GB - https://apps.ubuntu.com/cat/applications/precise/fonts-arphic-gkai00mp/
    Arphic PL UKai - https://apps.ubuntu.com/cat/applications/fonts-arphic-ukai/
You can redistribute and/or modify this file under the terms of the Arphic Public License
as published by Arphic Technology Co., Ltd.
You should have received a copy of this license (the directory "APL") along with this file;
if not, see http://ftp.gnu.org/non-gnu/chinese-fonts-truetype/LICENSE.
-->
<svg id="z40635" class="acjk" version="1.1" viewBox="0 0 1024 1024" xmlns="http://www.w3.org/2000/svg" xmlns:xlink="http://www.w3.org/1999/xlink">
<style>
<![CDATA[
	@keyframes z40635k {
		from {
			stroke:#c00;
			stroke-dashoffset:3000;
		}
		75% {
			stroke:#c00;
			stroke-dashoffset:0;
		}
		to {
			stroke:#000;
		}
	}
	#z40635 path[clip-path] {
		animation:z40635k 1s linear both;
		stroke-dasharray:3000;
		stroke-width:128;
		stroke-linecap:round;
		fill:none;
	}
	#z40635 path[clip-path="url(#z40635c1)"] {animation-delay:1s;}
	#z40635 path[clip-path="url(#z40635c2)"] {animation-delay:2s;}
	#z40635 path[clip-path="url(#z40635c3)"] {animation-delay:3s;}
	#z40635 path[clip-path="url(#z40635c4)"] {animation-delay:4s;}
	#z40635 path[clip-path="url(#z40635c5)"] {animation-delay:5s;}
	#z40635 path[clip-path="url(#z40635c6)"] {animation-delay:6s;}
	#z40635 path[clip-path="url(#z40635c7)"] {animation-delay:7s;}
	#z40635 path[clip-path="url(#z40635c8)"] {animation-delay:8s;}
	#z40635 path[clip-path="url(#z40635c9)"] {animation-delay:9s;}
	#z40635 path[clip-path="url(#z40635c10)"] {animation-delay:10s;}
	#z40635 path[clip-path="url(#z40635c11)"] {animation-delay:11s;}
	#z40635 path {fill:#ccc;}
]]>
</style>
<g transform="scale(1,-1) translate(0,-900)">
	<path id="z40635d1" d="M468 816Q519 771 562 754Q578 753 587 768Q591 783 587 800Q569 843 502 854Q462 863 448 857Q442 854 446 842Q450 829 468 816Z"/>
	<path id="z40635d2" d="M320 654Q360 632 417 643Q556 667 701 692Q768 705 777 713Q787 722 783 731Q776 744 745 753Q706 762 628 734Q469 695 324 683Q314 682 312 680L320 654Z"/>
	<path id="z40635d3" d="M312 680Q297 695 271 707Q252 719 239 714Q226 707 233 693Q254 654 247 580Q247 427 190 271Q151 171 67 43Q63 36 60 30Q57 20 68 21Q101 27 180 145Q196 173 212 205Q279 355 304 570Q305 627 320 654L312 680Z"/>
	<path id="z40635d4" d="M449 413Q465 419 539 431Q548 430 555 441Q555 451 535 459Q505 474 451 454L408 441Q407 441 407 440Q403 440 402 439Q375 435 355 430Q331 426 306 421Q282 417 302 403Q329 385 365 393Q375 396 389 399L449 413Z"/>
	<path id="z40635d5" d="M447 355Q448 383 449 413L451 454Q454 500 464 535Q471 547 469 558Q463 565 419 594Q400 607 383 595Q379 591 384 579Q406 545 407 511Q407 478 408 441L405 319Q402 166 397 140Q382 53 389 33Q392 23 398 10Q402 -3 409 -7Q415 -13 420 -6Q441 7 443 60Q442 91 447 332L447 355Z"/>
	<path id="z40635d6" d="M389 399Q347 273 210 68Q206 58 216 58Q237 58 334 191Q371 245 405 319L407.07089859851607 403.2165430063204L389 399Z"/>
	<path id="z40635d7" d="M447 332Q501 278 513 278Q523 277 528 291Q529 301 522 317Q513 330 494 338Q463 353 450 355Q447 356 447 355L447 332Z"/>
	<path id="z40635d8" d="M710 464Q725 468 830 489Q840 488 847 500Q847 510 826 519Q792 537 715 507Q712 507 711 506L662 492Q641 488 622 484Q597 480 566 474Q541 470 561 455Q592 437 628 444Q637 447 651 449L710 464Z"/>
	<path id="z40635d9" d="M709 416Q709 440 710 464L711 506Q715 549 724 580Q731 593 729 606Q723 615 672 645Q651 661 632 646Q628 642 633 627Q661 588 662 492L663 352Q660 163 655 133Q639 40 650 8Q653 -1 658 -12Q665 -28 672 -31Q678 -37 684 -30Q691 -26 700 -6Q709 16 708 45Q707 79 709 356L709 416Z"/>
	<path id="z40635d10" d="M651 449Q615 331 481 132Q477 122 488 122Q507 122 599 242Q633 288 663 352L662.2866465256798 451.8694864048338L651 449Z"/>
	<path id="z40635d11" d="M709 356Q769 227 817 153Q833 126 854 124Q912 121 962 118Q984 117 984 121Q987 127 964 143Q849 216 815 259Q751 343 709 416L709 356Z"/>
	<defs>
		<clipPath id="z40635c1"><use xlink:href="#z40635d1"/></clipPath>
		<clipPath id="z40635c2"><use xlink:href="#z40635d2"/></clipPath>
		<clipPath id="z40635c3"><use xlink:href="#z40635d3"/></clipPath>
		<clipPath id="z40635c4"><use xlink:href="#z40635d4"/></clipPath>
		<clipPath id="z40635c5"><use xlink:href="#z40635d5"/></clipPath>
		<clipPath id="z40635c6"><use xlink:href="#z40635d6"/></clipPath>
		<clipPath id="z40635c7"><use xlink:href="#z40635d7"/></clipPath>
		<clipPath id="z40635c8"><use xlink:href="#z40635d8"/></clipPath>
		<clipPath id="z40635c9"><use xlink:href="#z40635d9"/></clipPath>
		<clipPath id="z40635c10"><use xlink:href="#z40635d10"/></clipPath>
		<clipPath id="z40635c11"><use xlink:href="#z40635d11"/></clipPath>
	</defs>
	<path pathLength="2999" clip-path="url(#z40635c1)" d="M453 850L583 768"/>
	<path pathLength="2999" clip-path="url(#z40635c2)" d="M319 675L396 665L779 733"/>
	<path pathLength="2999" clip-path="url(#z40635c3)" d="M237 705L283 647L244 369L178 188L67 28"/>
	<path pathLength="2999" clip-path="url(#z40635c4)" d="M305 410L549 443"/>
	<path pathLength="2999" clip-path="url(#z40635c5)" d="M388 592L437 538L412 -5"/>
	<path pathLength="2999" clip-path="url(#z40635c6)" d="M401 395L338 236L216 64"/>
	<path pathLength="2999" clip-path="url(#z40635c7)" d="M453 348L519 283"/>
	<path pathLength="2999" clip-path="url(#z40635c8)" d="M558 467L841 503"/>
	<path pathLength="2999" clip-path="url(#z40635c9)" d="M637 642L691 585L674 -26"/>
	<path pathLength="2999" clip-path="url(#z40635c10)" d="M657 444L619 315L487 129"/>
	<path pathLength="2999" clip-path="url(#z40635c11)" d="M712 405L758 300L852 171L973 128"/>
</g>
</svg>