<!--
AnimCJK 2016-2018 Copyright Francois Mizessyn, https://github.com/parsimonhi/animCJK
Derived from:
    MakeMeAHanzi project - https://github.com/skishore/makemeahanzi
    Arphic PL KaitiM GB - https://apps.ubuntu.com/cat/applications/precise/fonts-arphic-gkai00mp/
    Arphic PL UKai - https://apps.ubuntu.com/cat/applications/fonts-arphic-ukai/
You can redistribute and/or modify this file under the terms of the Arphic Public License
as published by Arphic Technology Co., Ltd.
You should have received a copy of this license (the directory "APL") along with this file;
if not, see http://ftp.gnu.org/non-gnu/chinese-fonts-truetype/LICENSE.
-->
<svg id="z40657" class="acjk" version="1.1" viewBox="0 0 1024 1024" xmlns="http://www.w3.org/2000/svg" xmlns:xlink="http://www.w3.org/1999/xlink">
<style>
<![CDATA[
@keyframes z40657k {
	from {
		stroke:#c00;
		stroke-dashoffset:3334;
	}
	75% {
		stroke:#c00;
		stroke-dashoffset:0;
	}
	to {
		stroke:#000;
	}
}
#z40657 path[clip-path] {
	animation:z40657k 1s linear both;
	stroke-dasharray:3334;
	stroke-width:128;
	stroke-linecap:round;
	fill:none;
}
#z40657 path[clip-path="url(#z40657c1)"] {animation-delay:1s;}
#z40657 path[clip-path="url(#z40657c2)"] {animation-delay:2s;}
#z40657 path[clip-path="url(#z40657c3)"] {animation-delay:3s;}
#z40657 path[clip-path="url(#z40657c4)"] {animation-delay:4s;}
#z40657 path[clip-path="url(#z40657c5)"] {animation-delay:5s;}
#z40657 path[clip-path="url(#z40657c6)"] {animation-delay:6s;}
#z40657 path[clip-path="url(#z40657c7)"] {animation-delay:7s;}
#z40657 path[clip-path="url(#z40657c8)"] {animation-delay:8s;}
#z40657 path[clip-path="url(#z40657c9)"] {animation-delay:9s;}
#z40657 path[clip-path="url(#z40657c10)"] {animation-delay:10s;}
#z40657 path[clip-path="url(#z40657c11)"] {animation-delay:11s;}
#z40657 path[clip-path="url(#z40657c12)"] {animation-delay:12s;}
#z40657 path {fill:#ccc;}
]]>
</style>
<path id="z40657d1" d="M277 153Q264 150 246 148Q233 145 229 151Q222 158 233 175Q272 251 298 375Q302 412 326 436Q347 460 351 442Q352 435 354 426L353 394Q352 378 347 360Q317 233 309 193L277 153 Z"/>
<path id="z40657d2" d="M643 396Q643 399 645 402Q649 420 664 419Q680 418 689 402Q705 383 735 283Q756 225 798 194Q820 176 803 158Q784 139 728 107Q713 97 639 110Q537 119 414 138Q291 156 277 153L309 193Q313 193 318 192Q370 179 457 167L511 160Q661 139 689 154Q701 161 693 199Q662 337 648 364Q645 370 643 376L643 396 Z"/>
<path id="z40657d3" d="M366 272Q391 317 414 331Q424 335 432 327Q439 318 439 306Q436 276 395 255Q371 240 362 242Q358 242 357 252Q357 259 366 272 Z"/>
<path id="z40657d4" d="M593 238Q583 263 558 305Q554 312 559 317Q566 318 572 313Q629 267 657 248Q672 242 667 233Q660 220 642 207Q624 194 605 194Q592 195 595 212Q599 224 593 238 Z"/>
<path id="z40657d5" d="M525 405Q574 401 639 396Q640 395 643 396L643 376Q637 369 624 360Q605 348 526 368L476 377Q409 387 353 394L354 426Q360 426 368 425Q410 416 476 410L525 405 Z"/>
<path id="z40657d6" d="M520 609Q520 569 521 531L523 483Q523 443 525 405L526 368Q527 304 529 246Q532 182 529 176Q520 167 511 160L457 167Q461 177 467 186Q477 213 476 377L476 410Q475 447 475 494L474 538Q474 574 474 616L520 609 Z"/>
<path id="z40657d7" d="M521 531Q585 521 639 516Q667 512 657 497Q645 479 616 473Q592 470 523 483L475 494Q405 507 345 520Q326 524 349 542Q362 552 392 549Q434 542 474 538L521 531 Z"/>
<path id="z40657d8" d="M474 616Q380 629 271 643Q252 646 266 661Q279 674 296 679Q315 683 331 680Q467 641 740 641Q759 641 763 633Q767 623 753 609Q701 570 636 588Q587 597 520 609L474 616 Z"/>
<path id="z40657d9" d="M173 737Q151 789 119 834Q97 870 116 906Q123 925 147 912Q196 875 201 800Q205 764 199 737Q193 728 187 727Q177 728 173 737 Z"/>
<path id="z40657d10" d="M335 785Q368 843 394 863Q407 869 419 858Q428 848 429 831Q426 789 374 762Q346 743 331 745Q324 745 324 757Q324 769 335 785 Z"/>
<path id="z40657d11" d="M517 757Q559 824 586 840Q599 846 611 835Q618 823 620 807Q614 756 536 723L535 722Q520 715 510 717Q504 717 505 729Q504 741 517 757 Z"/>
<path id="z40657d12" d="M731 732Q788 790 854 874Q869 896 884 901Q893 902 901 893Q914 881 905 835Q893 775 735 701Q726 694 723 707Q722 720 731 732 Z"/>
<defs>
	<clipPath id="z40657c1"><use xlink:href="#z40657d1"/></clipPath>
	<clipPath id="z40657c2"><use xlink:href="#z40657d2"/></clipPath>
	<clipPath id="z40657c3"><use xlink:href="#z40657d3"/></clipPath>
	<clipPath id="z40657c4"><use xlink:href="#z40657d4"/></clipPath>
	<clipPath id="z40657c5"><use xlink:href="#z40657d5"/></clipPath>
	<clipPath id="z40657c6"><use xlink:href="#z40657d6"/></clipPath>
	<clipPath id="z40657c7"><use xlink:href="#z40657d7"/></clipPath>
	<clipPath id="z40657c8"><use xlink:href="#z40657d8"/></clipPath>
	<clipPath id="z40657c9"><use xlink:href="#z40657d9"/></clipPath>
	<clipPath id="z40657c10"><use xlink:href="#z40657d10"/></clipPath>
	<clipPath id="z40657c11"><use xlink:href="#z40657d11"/></clipPath>
	<clipPath id="z40657c12"><use xlink:href="#z40657d12"/></clipPath>
</defs>
<path pathLength="3333" clip-path="url(#z40657c1)" d="M234 154L279 201L343 444"/>
<path pathLength="3333" clip-path="url(#z40657c2)" d="M288 157L328 170L614 130L718 136L755 185L658 414"/>
<path pathLength="3333" clip-path="url(#z40657c3)" d="M364 249L430 324"/>
<path pathLength="3333" clip-path="url(#z40657c4)" d="M603 201L629 242L565 310"/>
<path pathLength="3333" clip-path="url(#z40657c5)" d="M362 418L641 384"/>
<path pathLength="3333" clip-path="url(#z40657c6)" d="M467 172L501 200L495 612"/>
<path pathLength="3333" clip-path="url(#z40657c7)" d="M345 527L651 500"/>
<path pathLength="3333" clip-path="url(#z40657c8)" d="M265 650L669 612L759 622"/>
<path pathLength="3333" clip-path="url(#z40657c9)" d="M185 734L131 913"/>
<path pathLength="3333" clip-path="url(#z40657c10)" d="M331 750L412 858"/>
<path pathLength="3333" clip-path="url(#z40657c11)" d="M513 724L606 835"/>
<path pathLength="3333" clip-path="url(#z40657c12)" d="M730 707L859 823L886 896"/>
</svg>