<!--
AnimCJK 2016-2018 Copyright Francois Mizessyn, https://github.com/parsimonhi/animCJK
Derived from:
    MakeMeAHanzi project - https://github.com/skishore/makemeahanzi
    Arphic PL KaitiM GB - https://apps.ubuntu.com/cat/applications/precise/fonts-arphic-gkai00mp/
    Arphic PL UKai - https://apps.ubuntu.com/cat/applications/fonts-arphic-ukai/
You can redistribute and/or modify this file under the terms of the Arphic Public License
as published by Arphic Technology Co., Ltd.
You should have received a copy of this license (the directory "APL") along with this file;
if not, see http://ftp.gnu.org/non-gnu/chinese-fonts-truetype/LICENSE.
-->
<svg id="z40654" class="acjk" version="1.1" viewBox="0 0 1024 1024" xmlns="http://www.w3.org/2000/svg" xmlns:xlink="http://www.w3.org/1999/xlink">
<style>
<![CDATA[
@keyframes z40654k {
	from {
		stroke:#c00;
		stroke-dashoffset:3334;
	}
	75% {
		stroke:#c00;
		stroke-dashoffset:0;
	}
	to {
		stroke:#000;
	}
}
#z40654 path[clip-path] {
	animation:z40654k 1s linear both;
	stroke-dasharray:3334;
	stroke-width:128;
	stroke-linecap:round;
	fill:none;
}
#z40654 path[clip-path="url(#z40654c1)"] {animation-delay:1s;}
#z40654 path[clip-path="url(#z40654c2)"] {animation-delay:2s;}
#z40654 path[clip-path="url(#z40654c3)"] {animation-delay:3s;}
#z40654 path[clip-path="url(#z40654c4)"] {animation-delay:4s;}
#z40654 path[clip-path="url(#z40654c5)"] {animation-delay:5s;}
#z40654 path[clip-path="url(#z40654c6)"] {animation-delay:6s;}
#z40654 path[clip-path="url(#z40654c7)"] {animation-delay:7s;}
#z40654 path[clip-path="url(#z40654c8)"] {animation-delay:8s;}
#z40654 path[clip-path="url(#z40654c9)"] {animation-delay:9s;}
#z40654 path[clip-path="url(#z40654c10)"] {animation-delay:10s;}
#z40654 path[clip-path="url(#z40654c11)"] {animation-delay:11s;}
#z40654 path[clip-path="url(#z40654c12)"] {animation-delay:12s;}
#z40654 path[clip-path="url(#z40654c13)"] {animation-delay:13s;}
#z40654 path[clip-path="url(#z40654c14)"] {animation-delay:14s;}
#z40654 path[clip-path="url(#z40654c15)"] {animation-delay:15s;}
#z40654 path {fill:#ccc;}
]]>
</style>
<path id="z40654d1" d="M358 172Q397 150 462 136Q477 135 480 128Q484 119 473 109Q419 70 390 75Q383 79 383 88Q383 122 225 197Q221 206 225 208Q244 208 308 187Q317 184 327 182L358 172 Z"/>
<path id="z40654d2" d="M381 283Q418 276 467 269Q480 268 481 261Q482 249 467 242Q439 229 386 246L343 255Q211 280 156 287Q144 288 142 295Q139 304 152 314Q188 335 221 326Q270 308 310 299L381 283 Z"/>
<path id="z40654d3" d="M377 318Q378 299 381 283L386 246Q387 230 399 212Q403 205 395 194Q379 181 358 172L327 182Q342 206 343 255L342 329Q341 387 336 412Q335 424 348 452Q355 464 366 457Q375 451 375 346Q375 339 376 333L377 318 Z"/>
<path id="z40654d4" d="M310 299Q255 387 157 454Q144 464 156 466Q165 467 196 455Q227 445 255 423Q280 404 308 372Q327 350 342 329L342 292L310 299 Z"/>
<path id="z40654d5" d="M376 333Q380 337 395 347Q437 381 448 381Q455 380 458 372Q459 362 453 344Q449 332 429 325Q381 313 377 318L376 333 Z"/>
<path id="z40654d6" d="M603 188Q634 140 643 133Q650 126 646 115Q642 105 620 88Q599 75 585 76Q572 77 578 94Q590 116 550 193Q531 229 504 268Q497 275 495 281Q494 290 504 287Q525 283 587 209L603 188 Z"/>
<path id="z40654d7" d="M636 217Q697 201 743 194Q753 193 756 197Q763 209 755 239Q739 324 715 359Q696 387 671 381Q658 378 645 375Q624 368 639 389Q664 420 675 445Q688 464 705 451Q759 421 793 302Q811 223 829 203Q839 193 835 184Q828 174 786 153Q770 144 753 155Q717 173 603 188L587 209Q594 216 609 220L636 217 Z"/>
<path id="z40654d8" d="M609 220Q610 221 611 225Q611 226 613 229Q620 268 544 374Q538 380 537 386Q537 390 541 389Q595 374 663 263Q667 256 662 245Q650 227 636 217L609 220 Z"/>
<path id="z40654d9" d="M532 421Q538 414 538 407Q537 394 513 382Q488 369 475 369Q468 370 462 382Q416 497 99 669Q77 679 103 681Q205 684 411 524Q472 467 513 437L532 421 Z"/>
<path id="z40654d10" d="M513 437Q628 539 753 630Q780 649 819 646Q889 640 962 616Q981 612 982 606Q983 599 967 595Q762 546 754 542Q642 491 532 421L513 437 Z"/>
<path id="z40654d11" d="M448 847Q417 844 385 840Q373 839 376 845Q377 852 387 858Q457 906 485 938Q498 953 512 939Q542 908 538 844Q525 646 543 597Q552 581 536 568Q514 549 487 539Q471 533 463 540Q457 546 467 560Q500 623 484 817Q481 836 471 844Q462 851 448 847 Z"/>
<path id="z40654d12" d="M342 641Q375 680 401 694Q413 697 420 687Q424 677 424 664Q418 637 353 611Q340 607 333 610Q329 611 330 620Q331 629 342 641 Z"/>
<path id="z40654d13" d="M229 805Q217 809 217 818Q218 831 228 836Q250 846 283 858Q293 859 302 849Q323 824 413 754Q426 744 435 733Q445 724 444 716Q438 712 428 716Q266 801 229 805 Z"/>
<path id="z40654d14" d="M611 610Q595 632 560 669Q556 675 559 681Q565 682 572 679Q639 645 671 634Q687 631 684 622Q681 607 666 590Q651 574 633 570Q620 569 619 585Q620 597 611 610 Z"/>
<path id="z40654d15" d="M584 753Q651 801 732 871Q751 889 766 892Q775 892 781 881Q791 868 774 825Q756 771 581 722Q572 718 571 731Q572 744 584 753 Z"/>
<defs>
	<clipPath id="z40654c1"><use xlink:href="#z40654d1"/></clipPath>
	<clipPath id="z40654c2"><use xlink:href="#z40654d2"/></clipPath>
	<clipPath id="z40654c3"><use xlink:href="#z40654d3"/></clipPath>
	<clipPath id="z40654c4"><use xlink:href="#z40654d4"/></clipPath>
	<clipPath id="z40654c5"><use xlink:href="#z40654d5"/></clipPath>
	<clipPath id="z40654c6"><use xlink:href="#z40654d6"/></clipPath>
	<clipPath id="z40654c7"><use xlink:href="#z40654d7"/></clipPath>
	<clipPath id="z40654c8"><use xlink:href="#z40654d8"/></clipPath>
	<clipPath id="z40654c9"><use xlink:href="#z40654d9"/></clipPath>
	<clipPath id="z40654c10"><use xlink:href="#z40654d10"/></clipPath>
	<clipPath id="z40654c11"><use xlink:href="#z40654d11"/></clipPath>
	<clipPath id="z40654c12"><use xlink:href="#z40654d12"/></clipPath>
	<clipPath id="z40654c13"><use xlink:href="#z40654d13"/></clipPath>
	<clipPath id="z40654c14"><use xlink:href="#z40654d14"/></clipPath>
	<clipPath id="z40654c15"><use xlink:href="#z40654d15"/></clipPath>
</defs>
<path pathLength="3333" clip-path="url(#z40654c1)" d="M473 123L402 112L229 202"/>
<path pathLength="3333" clip-path="url(#z40654c2)" d="M146 300L473 255"/>
<path pathLength="3333" clip-path="url(#z40654c3)" d="M333 183L369 209L357 453"/>
<path pathLength="3333" clip-path="url(#z40654c4)" d="M334 301L241 411L158 461"/>
<path pathLength="3333" clip-path="url(#z40654c5)" d="M386 327L452 372"/>
<path pathLength="3333" clip-path="url(#z40654c6)" d="M586 84L611 130L501 281"/>
<path pathLength="3333" clip-path="url(#z40654c7)" d="M594 207L764 172L797 200L720 396L684 418L640 380"/>
<path pathLength="3333" clip-path="url(#z40654c8)" d="M618 222L633 268L544 381"/>
<path pathLength="3333" clip-path="url(#z40654c9)" d="M534 407L486 408L293 580L98 675"/>
<path pathLength="3333" clip-path="url(#z40654c10)" d="M522 437L768 590L975 608"/>
<path pathLength="3333" clip-path="url(#z40654c11)" d="M468 545L512 586L503 868L483 896L384 847"/>
<path pathLength="3333" clip-path="url(#z40654c12)" d="M339 617L415 685"/>
<path pathLength="3333" clip-path="url(#z40654c13)" d="M222 816L286 822L437 721"/>
<path pathLength="3333" clip-path="url(#z40654c14)" d="M629 577L647 618L567 674"/>
<path pathLength="3333" clip-path="url(#z40654c15)" d="M576 730L731 823L767 888"/>
</svg>