<!--
AnimCJK 2016-2025 Copyright FM-SH - https://github.com/parsimonhi/animCJK
Derived from:
    MakeMeAHanzi project - https://github.com/skishore/makemeahanzi
    Arphic PL KaitiM GB font
    Arphic PL KaitiM Big5 font
You can redistribute and/or modify this file under the terms of the Arphic Public License
as published by Arphic Technology Co., Ltd.
You should have received a copy of this license along with this file.
If not, see https://ftp.gnu.org/non-gnu/chinese-fonts-truetype/LICENSE.
-->
<svg id="z40665" class="acjk" viewBox="0 0 1024 1024" xmlns="http://www.w3.org/2000/svg">
<style>
<![CDATA[
@keyframes zk {
	to {
		stroke-dashoffset:0;
	}
}
svg.acjk path[clip-path] {
	--t:0.8s;
	animation:zk var(--t) linear forwards var(--d);
	stroke-dasharray:3337;
	stroke-dashoffset:3339;
	stroke-width:128;
	stroke-linecap:round;
	fill:none;
	stroke:#000;
}
svg.acjk path[id] {fill:#ccc;}
]]>
</style>
<path id="z40665d1" d="M183 203C175 200 162 198 145 195C136 193 133 194 131 198C127 202 128 209 134 220C156 265 175 326 189 403C192 425 199 444 212 460C223 473 231 474 234 465C235 458 237 450 237 443C236 434 236 424 235 416C226 363 208 294 199 233C197 222 194 207 183 203Z"/>
<path id="z40665d2" d="M436 399C437 410 450 429 461 435C468 439 476 437 485 423C494 406 507 350 527 258C531 237 540 219 556 204C563 196 565 188 557 179C547 168 530 153 504 140C489 132 339 166 272 182C239 189 209 197 183 203C172 205 188 237 199 233C225 223 257 212 296 205C320 200 320 200 332 198C413 182 458 171 469 183C478 193 480 203 479 214C469 271 461 312 455 337C451 356 448 366 440 379C437 385 435 392 436 399Z"/>
<path id="z40665d3" d="M354 319C367 315 390 310 410 304C421 300 426 296 421 290C409 278 374 282 355 287C328 293 328 293 314 296C288 301 278 308 257 315C248 318 252 327 261 330C265 331 276 333 314 326C329 323 335 323 354 319Z"/>
<path id="z40665d4" d="M351 415C376 408 410 403 436 399C443 398 446 382 440 379C412 359 393 367 352 381C327 389 327 389 314 393C285 401 259 408 235 416C226 419 228 446 237 443C243 439 269 437 314 425C339 418 339 418 351 415Z"/>
<path id="z40665d5" d="M347 603C347 579 347 556 348 533C349 504 349 504 349 490C349 464 350 439 351 415C352 392 352 392 352 381C352 360 353 339 354 319C355 298 355 298 355 287C356 224 369 218 332 198C322 192 289 195 296 205C310 224 314 239 314 296C314 316 314 316 314 326C314 371 314 371 314 393C314 414 314 414 314 425C314 447 313 472 313 502C313 529 313 529 313 543C313 562 311 585 311 611C311 623 347 615 347 603Z"/>
<path id="z40665d6" d="M404 518C420 513 430 509 432 507C436 502 437 497 435 493C430 485 418 476 405 478C393 478 370 482 349 490C325 498 325 498 313 502C290 509 250 518 225 523C205 526 203 533 218 542C239 554 280 552 313 543C336 536 336 536 348 533C370 526 394 520 404 518Z"/>
<path id="z40665d7" d="M311 611C221 630 167 635 149 635C141 634 136 637 135 643C132 651 134 658 140 663C152 674 167 686 185 699C190 702 197 700 205 696C242 673 287 658 330 644C386 625 453 602 469 591C476 585 483 582 482 577C480 572 474 571 467 573C428 581 389 593 347 603C323 608 323 608 311 611Z"/>
<path id="z40665d8" d="M663 418C703 410 744 401 787 393C815 387 830 382 835 379C839 375 841 370 838 366C833 360 822 355 804 353C784 350 765 353 747 359C721 367 694 375 668 381C635 388 635 388 618 392C588 398 557 400 526 405C502 408 499 415 517 423C550 433 584 433 612 428C646 421 646 421 663 418Z"/>
<path id="z40665d9" d="M668 381C670 361 674 313 678 237C679 209 684 178 697 145C699 139 698 134 693 130C681 121 665 114 643 107C629 102 617 101 607 105C595 109 593 115 603 124C621 139 630 153 631 169C631 253 627 328 618 392C614 416 614 416 612 428C596 518 562 587 511 633C488 653 453 677 405 703C397 707 392 708 391 711C388 714 392 716 402 716C410 716 429 710 460 700C482 692 509 678 541 657C596 619 633 552 655 458C660 435 660 435 662 424C663 420 663 420 663 418C666 393 666 393 668 381Z"/>
<path id="z40665d10" d="M655 458C704 532 755 613 804 680C810 689 821 697 838 699C895 704 934 705 957 705C967 705 974 704 978 701C980 698 978 695 974 693C899 657 845 629 819 602C756 536 717 486 662 424C654 416 648 449 655 458Z"/>
<path id="z40665d11" d="M771 217C787 228 804 241 822 255C830 261 840 264 852 264C858 263 863 259 867 252C870 244 868 232 862 217C858 206 846 198 827 192C782 178 754 173 745 178C741 179 740 184 742 191C743 196 753 205 771 217Z"/>
<path id="z40665d12" d="M237 761C217 792 196 822 171 849C152 868 149 891 158 917C162 929 172 934 187 927C224 908 244 872 255 825C260 801 265 782 262 765C260 757 256 754 252 754C246 753 240 755 237 761Z"/>
<path id="z40665d13" d="M368 781C396 847 418 882 432 889C440 892 449 890 457 879C461 871 462 859 460 844C454 815 428 785 381 756C375 752 371 755 368 763C365 767 364 773 368 781Z"/>
<path id="z40665d14" d="M546 774C579 837 604 870 619 875C627 877 637 874 644 862C648 853 647 841 644 826C640 811 628 798 613 786C587 765 570 752 558 747C551 744 547 747 545 755C543 760 541 766 546 774Z"/>
<path id="z40665d15" d="M735 787C761 815 791 849 823 891C833 904 842 914 853 917C857 918 863 915 869 910C877 901 877 882 872 853C866 826 844 803 801 784C774 771 752 763 738 757C731 754 727 754 727 763C725 771 728 779 735 787Z"/>
<defs>
	<clipPath id="z40665c1"><use href="#z40665d1"/></clipPath>
	<clipPath id="z40665c2"><use href="#z40665d2"/></clipPath>
	<clipPath id="z40665c3"><use href="#z40665d3"/></clipPath>
	<clipPath id="z40665c4"><use href="#z40665d4"/></clipPath>
	<clipPath id="z40665c5"><use href="#z40665d5"/></clipPath>
	<clipPath id="z40665c6"><use href="#z40665d6"/></clipPath>
	<clipPath id="z40665c7"><use href="#z40665d7"/></clipPath>
	<clipPath id="z40665c8"><use href="#z40665d8"/></clipPath>
	<clipPath id="z40665c9"><use href="#z40665d9"/></clipPath>
	<clipPath id="z40665c10"><use href="#z40665d10"/></clipPath>
	<clipPath id="z40665c11"><use href="#z40665d11"/></clipPath>
	<clipPath id="z40665c12"><use href="#z40665d12"/></clipPath>
	<clipPath id="z40665c13"><use href="#z40665d13"/></clipPath>
	<clipPath id="z40665c14"><use href="#z40665d14"/></clipPath>
	<clipPath id="z40665c15"><use href="#z40665d15"/></clipPath>
</defs>
<path style="--d:1s;" pathLength="3333" clip-path="url(#z40665c1)" d="M136 201L168 225L224 465"/>
<path style="--d:2s;" pathLength="3333" clip-path="url(#z40665c2)" d="M183 208L495 168L520 202L462 431"/>
<path style="--d:3s;" pathLength="3333" clip-path="url(#z40665c3)" d="M262 322L417 295"/>
<path style="--d:4s;" pathLength="3333" clip-path="url(#z40665c4)" d="M236 433L438 389"/>
<path style="--d:5s;" pathLength="3333" clip-path="url(#z40665c5)" d="M303 203L335 239L325 614"/>
<path style="--d:6s;" pathLength="3333" clip-path="url(#z40665c6)" d="M220 532L432 496"/>
<path style="--d:7s;" pathLength="3333" clip-path="url(#z40665c7)" d="M142 642L195 665L474 577"/>
<path style="--d:8s;" pathLength="3333" clip-path="url(#z40665c8)" d="M513 414L831 371"/>
<path style="--d:9s;" pathLength="3333" clip-path="url(#z40665c9)" d="M604 113L663 147L615 509L549 624L399 709"/>
<path style="--d:10s;" pathLength="3333" clip-path="url(#z40665c10)" d="M659 428L836 661L971 698"/>
<path style="--d:11s;" pathLength="3333" clip-path="url(#z40665c11)" d="M746 187L861 255"/>
<path style="--d:12s;" pathLength="3333" clip-path="url(#z40665c12)" d="M251 758L162 920"/>
<path style="--d:13s;" pathLength="3333" clip-path="url(#z40665c13)" d="M375 761L446 885"/>
<path style="--d:14s;" pathLength="3333" clip-path="url(#z40665c14)" d="M552 755L631 869"/>
<path style="--d:15s;" pathLength="3333" clip-path="url(#z40665c15)" d="M734 763L828 841L855 911"/>
</svg>