<!--
AnimCJK 2016-2025 Copyright FM-SH - https://github.com/parsimonhi/animCJK
Derived from:
    MakeMeAHanzi project - https://github.com/skishore/makemeahanzi
    Arphic PL KaitiM GB font
    Arphic PL KaitiM Big5 font
You can redistribute and/or modify this file under the terms of the Arphic Public License
as published by Arphic Technology Co., Ltd.
You should have received a copy of this license along with this file.
If not, see https://ftp.gnu.org/non-gnu/chinese-fonts-truetype/LICENSE.
-->
<svg id="z40718" class="acjk" viewBox="0 0 1024 1024" xmlns="http://www.w3.org/2000/svg">
<style>
<![CDATA[
@keyframes zk {
	to {
		stroke-dashoffset:0;
	}
}
svg.acjk path[clip-path] {
	--t:0.8s;
	animation:zk var(--t) linear forwards var(--d);
	stroke-dasharray:3337;
	stroke-dashoffset:3339;
	stroke-width:128;
	stroke-linecap:round;
	fill:none;
	stroke:#000;
}
svg.acjk path[id] {fill:#ccc;}
]]>
</style>
<path id="z40718d1" d="M387 110Q363 91 338 82Q331 79 325 84Q318 90 326 102Q362 174 357 345Q356 379 370 412Q380 434 392 441Q408 448 413 417C414 395 414 395 414 384Q414 375 407 318C406 299 406 299 406 290Q405 269 404 232C404 213 404 213 404 204Q403 171 405 143Q405 139 405 137C405 126 396 116 387 110Z"/>
<path id="z40718d2" d="M579 397C579 399 581 403 584 408C592 428 600 438 606 438C616 437 626 426 638 405C648 388 654 373 654 359C646 241 654 167 677 136C684 125 685 116 680 110C664 92 639 77 608 64C598 59 552 75 511 85C468 94 414 106 387 110C376 112 394 139 405 137C509 110 572 98 585 112C593 122 594 148 594 182C593 282 586 342 580 362C579 366 579 366 578 368C575 377 575 388 579 397Z"/>
<path id="z40718d3" d="M404 232Q405 232 409 232Q479 220 531 213Q555 209 545 196Q535 181 509 178Q476 174 404 204C395 207 395 232 404 232Z"/>
<path id="z40718d4" d="M407 318Q408 318 413 318Q485 309 538 304Q562 301 553 288Q543 273 517 268Q486 262 406 290C397 293 398 318 407 318Z"/>
<path id="z40718d5" d="M413 417Q444 407 579 397C589 397 585 375 578 368Q574 364 568 361Q552 352 524 360Q463 375 414 384C403 386 402 419 413 417Z"/>
<path id="z40718d6" d="M376 682C376 734 372 782 362 827C359 839 359 853 367 868C378 890 390 914 400 918C409 921 416 915 421 898C428 873 429 851 428 831C420 687 426 577 441 559C453 543 456 531 450 523C441 514 424 505 399 495C384 490 373 491 365 498C342 510 311 521 272 529C252 531 242 527 243 517C245 483 251 457 259 439C265 424 264 414 256 408C240 395 225 387 211 383C198 380 188 381 181 386C174 390 176 399 186 412C200 426 201 461 191 518C190 528 187 538 181 547C176 557 176 566 182 575C188 585 195 592 205 597C211 599 221 595 233 585C259 568 296 554 342 542C356 539 366 541 372 547C376 553 377 583 376 639C376 668 376 668 376 682Z"/>
<path id="z40718d7" d="M260 710Q305 692 376 682C390 680 390 642 376 639Q364 636 352 640Q196 673 148 678Q135 679 133 687Q130 697 145 709Q184 733 226 721C249 714 249 714 260 710Z"/>
<path id="z40718d8" d="M227 722Q236 785 122 923Q116 927 116 933Q116 937 121 937Q181 922 267 796Q267 790 288 764Q295 754 288 742Q273 720 260 710C251 703 225 711 227 722Z"/>
<path id="z40718d9" d="M758 481Q780 445 803 412Q810 402 816 395Q822 391 825 386Q832 377 821 357Q799 327 779 314Q767 305 757 309Q747 313 748 329Q754 356 710 478C705 493 748 494 758 481Z"/>
<path id="z40718d10" d="M616 544Q623 544 634 542Q679 530 776 519Q789 518 789 507Q789 498 758 481C744 473 726 475 710 478Q706 478 700 480Q645 498 599 509C586 511 603 544 616 544Z"/>
<path id="z40718d11" d="M611 652C611 592 614 563 615 557C615 552 616 548 616 544C616 531 608 518 599 509C590 500 578 493 563 489C556 486 548 486 539 489C534 493 534 499 538 508C538 512 540 518 544 524C552 538 556 618 557 762C555 780 551 801 547 825C542 850 538 861 548 888C554 904 561 919 572 934C580 944 587 944 595 935C620 896 608 847 610 721C610 709 610 698 611 689C611 664 611 664 611 652Z"/>
<path id="z40718d12" d="M611 689C621 689 651 683 721 676C757 672 757 672 775 670C798 667 888 661 884 642C881 633 859 620 837 613C817 606 795 617 777 622C725 634 662 644 611 652C599 654 599 689 611 689Z"/>
<path id="z40718d13" d="M721 676C721 676 725 768 719 825C716 845 720 864 731 888C738 905 750 919 758 918C766 917 771 910 775 896C777 886 780 860 778 819C775 769 775 670 775 670C775 652 721 658 721 676Z"/>
<defs>
	<clipPath id="z40718c1"><use href="#z40718d1"/></clipPath>
	<clipPath id="z40718c2"><use href="#z40718d2"/></clipPath>
	<clipPath id="z40718c3"><use href="#z40718d3"/></clipPath>
	<clipPath id="z40718c4"><use href="#z40718d4"/></clipPath>
	<clipPath id="z40718c5"><use href="#z40718d5"/></clipPath>
	<clipPath id="z40718c6"><use href="#z40718d6"/></clipPath>
	<clipPath id="z40718c7"><use href="#z40718d7"/></clipPath>
	<clipPath id="z40718c8"><use href="#z40718d8"/></clipPath>
	<clipPath id="z40718c9"><use href="#z40718d9"/></clipPath>
	<clipPath id="z40718c10"><use href="#z40718d10"/></clipPath>
	<clipPath id="z40718c11"><use href="#z40718d11"/></clipPath>
	<clipPath id="z40718c12"><use href="#z40718d12"/></clipPath>
	<clipPath id="z40718c13"><use href="#z40718d13"/></clipPath>
</defs>
<path style="--d:1s;" pathLength="3333" clip-path="url(#z40718c1)" d="M330 90L375 153L395 438"/>
<path style="--d:2s;" pathLength="3333" clip-path="url(#z40718c2)" d="M399 116L590 86L628 114L606 434"/>
<path style="--d:3s;" pathLength="3333" clip-path="url(#z40718c3)" d="M409 224L543 199"/>
<path style="--d:4s;" pathLength="3333" clip-path="url(#z40718c4)" d="M413 310L546 289"/>
<path style="--d:5s;" pathLength="3333" clip-path="url(#z40718c5)" d="M422 407L577 377"/>
<path style="--d:6s;" pathLength="3333" clip-path="url(#z40718c6)" d="M183 390L228 425L224 561L365 519L411 538L405 915"/>
<path style="--d:7s;" pathLength="3333" clip-path="url(#z40718c7)" d="M136 687L207 697L371 649"/>
<path style="--d:8s;" pathLength="3333" clip-path="url(#z40718c8)" d="M235 722L256 754L239 792L122 931"/>
<path style="--d:9s;" pathLength="3333" clip-path="url(#z40718c9)" d="M760 314L785 377L723 476"/>
<path style="--d:10s;" pathLength="3333" clip-path="url(#z40718c10)" d="M607 512L782 503"/>
<path style="--d:11s;" pathLength="3333" clip-path="url(#z40718c11)" d="M541 495L583 551L583 937"/>
<path style="--d:12s;" pathLength="3333" clip-path="url(#z40718c12)" d="M621 663L877 644"/>
<path style="--d:13s;" pathLength="3333" clip-path="url(#z40718c13)" d="M750 678L757 909"/>
</svg>