<!--
AnimCJK 2016-2019 Copyright Francois Mizessyn - https://github.com/parsimonhi/animCJK
Derived from:
    MakeMeAHanzi project - https://github.com/skishore/makemeahanzi
    Arphic PL KaitiM GB font
    Arphic PL UKai font
You can redistribute and/or modify this file under the terms of the Arphic Public License
as published by Arphic Technology Co., Ltd.
You should have received a copy of this license along with this file.
If not, see http://ftp.gnu.org/non-gnu/chinese-fonts-truetype/LICENSE.
-->
<svg id="z64027" class="acjk" version="1.1" viewBox="0 0 1024 1024" xmlns="http://www.w3.org/2000/svg" xmlns:xlink="http://www.w3.org/1999/xlink">
<style>
<![CDATA[
@keyframes zk {
	to {
		stroke-dashoffset:0;
	}
}
svg.acjk path[clip-path] {
	--t:0.8s;
	animation:zk var(--t) linear forwards var(--d);
	stroke-dasharray:3337;
	stroke-dashoffset:3339;
	stroke-width:128;
	stroke-linecap:round;
	fill:none;
	stroke:#000;
}
svg.acjk path[id] {fill:#ccc;}
]]>
</style>
<path id="z64027d1" d="M349 170C321 170 316 181 253 193C208 202 178 203 132 211C125 212 116 217 118 225C120 234 133 238 146 241C165 246 177 246 198 244C227 242 269 234 309 226C332 222 355 218 379 214C385 213 395 209 393 201C391 189 380 180 369 174C363 171 356 169 349 170Z"/>
<path id="z64027d2" d="M399 300C356 302 390 320 102 350C91 351 79 353 71 361C65 367 70 375 75 378C89 386 102 396 118 398C143 400 183 385 230 378C264 373 264 373 281 370C372 355 427 358 444 358C458 358 459 354 460 346C460 331 446 316 434 309C424 303 411 299 399 300Z"/>
<path id="z64027d3" d="M230 378C247 400 256 437 256 458C257 616 255 722 248 759C244 781 240 803 233 825C227 844 237 863 244 881C249 892 254 903 263 911C269 916 277 910 281 904C302 870 310 830 307 791C303 757 302 723 302 689C302 615 303 540 304 465C304 442 309 423 312 400C314 389 297 377 281 370C265 364 220 364 230 378Z"/>
<path id="z64027d4" d="M164 457C157 456 150 462 151 469C151 483 155 497 151 511C143 541 132 572 117 600C107 620 93 639 85 661C84 665 84 673 90 673C99 671 106 662 113 656C137 630 157 601 175 571C185 553 197 535 209 518C215 507 222 493 215 481C205 467 188 460 172 457C169 457 167 456 164 457Z"/>
<path id="z64027d5" d="M330 437C322 433 314 442 321 455C330 473 364 526 386 542C395 549 406 536 407 526C413 475 372 456 330 437Z"/>
<path id="z64027d6" d="M537 150Q500 157 527 173Q572 197 627 182Q694 166 766 150Q799 141 804 137Q813 128 808 120Q801 108 770 102Q739 96 709 109Q672 122 632 133Q589 143 537 150Z"/>
<path id="z64027d7" d="M548 282Q538 276 505 272Q493 269 491 274Q485 281 493 295Q518 341 535 416Q539 438 552 453Q570 474 574 459Q577 452 577 440C576 419 576 419 575 409Q562 339 559 313C557 302 558 286 548 282Z"/>
<path id="z64027d8" d="M771 380Q793 322 819 304Q834 286 820 270Q804 257 755 234Q740 227 671 254Q614 269 548 282C537 284 548 315 559 313Q565 312 576 308Q643 295 706 282Q722 278 729 285Q736 291 735 305Q729 345 721 378C718 394 765 395 771 380Z"/>
<path id="z64027d9" d="M577 440Q584 441 596 439Q656 426 785 412Q795 411 796 403Q796 396 771 380C758 370 737 375 721 378Q639 399 575 409C565 411 567 440 577 440Z"/>
<path id="z64027d10" d="M476 525Q458 515 438 509Q431 506 426 512Q417 518 427 529Q469 596 473 748Q474 815 514 840C515 841 515 841 515 841Q533 847 535 815C535 814 535 814 535 814C534 792 534 792 533 781Q512 637 510 564C510 547 491 533 476 525Z"/>
<path id="z64027d11" d="M770 792Q780 817 804 867Q813 885 823 884Q839 881 849 855Q873 806 889 667Q899 565 923 536Q939 515 927 502Q905 480 856 459Q837 449 803 461Q677 507 476 525C459 525 493 564 510 564Q522 565 534 562Q573 553 625 544C653 539 653 539 667 536Q718 524 787 513Q815 509 827 521Q851 564 816 753Q815 769 806 772Q802 775 781 763C772 758 766 782 770 792Z"/>
<path id="z64027d12" d="M681 758Q682 710 686 670C687 641 687 641 688 626Q694 562 689 555Q679 545 667 536C655 529 620 531 625 544Q634 572 637 641C638 667 638 667 638 680Q638 716 639 766C639 780 681 772 681 758Z"/>
<path id="z64027d13" d="M686 670Q725 663 758 658Q783 654 773 640Q761 625 735 621Q716 618 688 626C654 636 654 636 637 641Q591 654 551 666Q533 670 556 685Q566 692 586 689Q611 683 638 680C670 673 670 673 686 670Z"/>
<path id="z64027d14" d="M535 814Q544 815 555 814Q622 799 770 792C780 792 790 768 781 763Q771 756 766 752Q748 742 681 758C653 763 653 763 639 766Q581 773 533 781C522 783 524 814 535 814Z"/>
<defs>
	<clipPath id="z64027c1"><use xlink:href="#z64027d1"/></clipPath>
	<clipPath id="z64027c2"><use xlink:href="#z64027d2"/></clipPath>
	<clipPath id="z64027c3"><use xlink:href="#z64027d3"/></clipPath>
	<clipPath id="z64027c4"><use xlink:href="#z64027d4"/></clipPath>
	<clipPath id="z64027c5"><use xlink:href="#z64027d5"/></clipPath>
	<clipPath id="z64027c6"><use xlink:href="#z64027d6"/></clipPath>
	<clipPath id="z64027c7"><use xlink:href="#z64027d7"/></clipPath>
	<clipPath id="z64027c8"><use xlink:href="#z64027d8"/></clipPath>
	<clipPath id="z64027c9"><use xlink:href="#z64027d9"/></clipPath>
	<clipPath id="z64027c10"><use xlink:href="#z64027d10"/></clipPath>
	<clipPath id="z64027c11"><use xlink:href="#z64027d11"/></clipPath>
	<clipPath id="z64027c12"><use xlink:href="#z64027d12"/></clipPath>
	<clipPath id="z64027c13"><use xlink:href="#z64027d13"/></clipPath>
	<clipPath id="z64027c14"><use xlink:href="#z64027d14"/></clipPath>
</defs>
<path style="--d:1s;" pathLength="3333" clip-path="url(#z64027c1)" d="M 132,227 388,197"/>
<path style="--d:2s;" pathLength="3333" clip-path="url(#z64027c2)" d="M 85,375 370,342 450,340"/>
<path style="--d:3s;" pathLength="3333" clip-path="url(#z64027c3)" d="M 266,391 286,444 271,898"/>
<path style="--d:4s;" pathLength="3333" clip-path="url(#z64027c4)" d="M 166,472 195,504 94,664"/>
<path style="--d:5s;" pathLength="3333" clip-path="url(#z64027c5)" d="M 330,454 368,492 391,530"/>
<path style="--d:6s;" pathLength="3333" clip-path="url(#z64027c6)" d="M521 159L582 166L804 124"/>
<path style="--d:7s;" pathLength="3333" clip-path="url(#z64027c7)" d="M496 282L528 307L568 456"/>
<path style="--d:8s;" pathLength="3333" clip-path="url(#z64027c8)" d="M554 283L753 265L780 299L733 376"/>
<path style="--d:9s;" pathLength="3333" clip-path="url(#z64027c9)" d="M581 432L787 398"/>
<path style="--d:10s;" pathLength="3333" clip-path="url(#z64027c10)" d="M427 515L481 579L520 835"/>
<path style="--d:11s;" pathLength="3333" clip-path="url(#z64027c11)" d="M486 528L529 541L813 485L865 504L884 535L839 787L810 828L778 772"/>
<path style="--d:12s;" pathLength="3333" clip-path="url(#z64027c12)" d="M634 548L662 577L649 763"/>
<path style="--d:13s;" pathLength="3333" clip-path="url(#z64027c13)" d="M549 671L768 644"/>
<path style="--d:14s;" pathLength="3333" clip-path="url(#z64027c14)" d="M543 806L776 773"/>
</svg>