<!--
AnimCJK 2016-2022 Copyright FM&SH - https://github.com/parsimonhi/animCJK
Derived from:
    MakeMeAHanzi project - https://github.com/skishore/makemeahanzi
    Arphic PL KaitiM GB font
    Arphic PL UKai font
You can redistribute and/or modify this file under the terms of the Arphic Public License
as published by Arphic Technology Co., Ltd.
You should have received a copy of this license along with this file.
If not, see http://ftp.gnu.org/non-gnu/chinese-fonts-truetype/LICENSE.
-->
<svg id="z64034" class="acjk" version="1.1" viewBox="0 0 1024 1024" xmlns="http://www.w3.org/2000/svg" xmlns:xlink="http://www.w3.org/1999/xlink">
<style>
<![CDATA[
@keyframes zk {
	to {
		stroke-dashoffset:0;
	}
}
svg.acjk path[clip-path] {
	--t:0.8s;
	animation:zk var(--t) linear forwards var(--d);
	stroke-dasharray:3337;
	stroke-dashoffset:3339;
	stroke-width:128;
	stroke-linecap:round;
	fill:none;
	stroke:#000;
}
svg.acjk path[id] {fill:#ccc;}
]]>
</style>
<path id="z64034d1" d="M328 152C346 166 364 184 385 203C394 212 407 216 419 216C427 215 432 210 436 200C440 188 438 170 430 149C422 128 384 111 321 97C308 94 300 94 296 97C291 99 289 105 292 116C293 123 306 136 328 152Z"/>
<path id="z64034d2" d="M93 336C84 336 78 339 76 346C73 352 77 360 89 368C113 386 143 392 173 382C249 355 334 332 428 318C440 316 445 312 446 308C446 299 439 291 428 286C408 277 392 276 377 280C239 312 144 330 93 336Z"/>
<path id="z64034d3" d="M225 433C202 437 200 446 218 455C238 465 271 464 317 453C337 447 360 441 385 434C397 430 403 427 405 426C409 421 411 414 408 410C403 402 390 398 373 396C363 394 332 404 277 422C261 427 243 429 225 433Z"/>
<path id="z64034d4" d="M220 537C199 542 195 552 213 559C239 569 274 566 312 555C332 549 353 544 375 538C386 534 392 531 394 530C399 524 398 518 396 514C390 507 378 503 361 501C343 499 315 508 272 525C256 531 238 532 220 537Z"/>
<path id="z64034d5" d="M220 640C213 635 196 632 172 628C162 626 159 627 157 631C153 635 154 641 160 653C176 683 192 726 205 781C208 796 212 810 223 821C251 851 250 813 249 790C248 778 245 767 243 757C236 725 230 683 228 668C226 658 229 644 220 640Z"/>
<path id="z64034d6" d="M376 741C390 699 404 673 416 661C431 645 429 630 415 622C372 599 351 589 349 589C343 589 337 591 332 595C310 609 272 624 220 640C211 644 219 672 228 668C238 662 266 654 311 645C327 641 336 641 341 648C344 651 340 679 328 731C325 747 370 756 376 741Z"/>
<path id="z64034d7" d="M249 790C259 790 270 782 379 765C385 763 389 761 389 755C389 751 384 746 376 741C362 733 344 728 328 731C316 734 268 749 243 757C233 761 238 792 249 790Z"/>
<path id="z64034d8" d="M637 329C695 313 725 304 728 302C732 297 734 291 731 287C726 279 714 274 697 271C677 267 660 275 640 282C607 293 607 293 590 299C574 304 527 312 498 318C475 322 472 330 490 339C512 351 547 353 589 342C621 333 621 333 637 329Z"/>
<path id="z64034d9" d="M629 428C631 394 634 360 637 329C639 298 639 298 640 282C644 208 650 148 663 102C664 95 659 85 646 76C622 61 600 56 586 53C574 50 567 52 562 58C557 62 555 70 563 81C575 101 583 118 585 132C589 174 591 240 590 299C589 328 589 328 589 342C588 372 588 403 587 436C587 450 629 442 629 428Z"/>
<path id="z64034d10" d="M724 448C730 447 813 440 973 428C985 427 994 424 997 418C1000 410 996 401 985 394C946 367 906 364 864 378C831 388 794 396 751 405C710 413 710 413 690 417C686 417 665 421 629 428C601 433 601 433 587 436C532 446 475 455 415 466C402 468 400 474 411 485C419 493 430 499 442 502C456 504 468 504 478 501C534 482 606 465 665 457C704 451 704 451 724 448Z"/>
<path id="z64034d11" d="M629 580C666 535 697 490 724 448C742 419 742 419 751 405C776 364 812 295 849 244C855 235 855 225 849 215C837 194 824 179 813 170C802 161 791 156 779 156C767 155 763 163 767 179C771 204 772 225 770 239C764 270 726 357 690 417C673 444 673 444 665 457C640 496 607 540 568 588C543 617 543 617 531 632C470 704 399 772 323 841C318 845 315 849 315 855C314 858 317 860 322 860C328 859 334 856 341 853C408 808 458 768 492 735C492 735 521 706 535 692C567 656 629 580 629 580Z"/>
<path id="z64034d12" d="M753 501C761 513 768 527 777 542C781 550 788 554 797 556C801 556 806 554 811 549C815 542 818 530 817 515C815 498 795 482 758 465C751 461 745 459 742 460C739 460 736 464 736 472C735 478 743 487 753 501Z"/>
<path id="z64034d13" d="M557 588C552 584 546 581 540 579C533 576 527 575 521 579C516 581 517 586 520 594C525 607 529 616 531 632C534 672 534 672 535 692C536 709 536 765 530 793C523 823 528 852 551 880C556 886 564 886 570 880C576 870 578 861 580 846C581 835 580 824 581 814C581 784 581 754 581 725C581 706 581 706 581 697C581 678 581 640 581 640C580 626 580 626 580 619C580 606 567 596 557 588Z"/>
<path id="z64034d14" d="M734 837C738 859 745 881 758 904C778 941 799 904 808 889C822 859 821 796 821 786C815 699 816 638 829 616C833 608 835 600 830 595C819 581 797 569 768 553C756 547 747 547 738 552C712 563 647 577 629 580C591 585 588 586 568 588C561 588 561 588 557 588C544 588 568 623 580 619C626 605 675 601 720 595C732 593 742 593 749 600C759 608 761 661 758 754C757 780 756 796 755 804C752 814 750 817 746 820C741 825 733 830 734 837Z"/>
<path id="z64034d15" d="M581 725Q656 716 710 711Q732 707 725 695Q715 682 691 676Q658 672 581 697C572 700 572 727 581 725Z"/>
<path id="z64034d16" d="M580 846C590 846 640 839 734 837C741 837 751 825 746 820C701 773 692 799 581 814C570 816 569 846 580 846Z"/>
<defs>
	<clipPath id="z64034c1"><use xlink:href="#z64034d1"/></clipPath>
	<clipPath id="z64034c2"><use xlink:href="#z64034d2"/></clipPath>
	<clipPath id="z64034c3"><use xlink:href="#z64034d3"/></clipPath>
	<clipPath id="z64034c4"><use xlink:href="#z64034d4"/></clipPath>
	<clipPath id="z64034c5"><use xlink:href="#z64034d5"/></clipPath>
	<clipPath id="z64034c6"><use xlink:href="#z64034d6"/></clipPath>
	<clipPath id="z64034c7"><use xlink:href="#z64034d7"/></clipPath>
	<clipPath id="z64034c8"><use xlink:href="#z64034d8"/></clipPath>
	<clipPath id="z64034c9"><use xlink:href="#z64034d9"/></clipPath>
	<clipPath id="z64034c10"><use xlink:href="#z64034d10"/></clipPath>
	<clipPath id="z64034c11"><use xlink:href="#z64034d11"/></clipPath>
	<clipPath id="z64034c12"><use xlink:href="#z64034d12"/></clipPath>
	<clipPath id="z64034c13"><use xlink:href="#z64034d13"/></clipPath>
	<clipPath id="z64034c14"><use xlink:href="#z64034d14"/></clipPath>
	<clipPath id="z64034c15"><use xlink:href="#z64034d15"/></clipPath>
	<clipPath id="z64034c16"><use xlink:href="#z64034d16"/></clipPath>
</defs>
<path style="--d:1s;" pathLength="3333" clip-path="url(#z64034c1)" d="M295 104L395 162L423 211"/>
<path style="--d:2s;" pathLength="3333" clip-path="url(#z64034c2)" d="M80 349L144 358L439 304"/>
<path style="--d:3s;" pathLength="3333" clip-path="url(#z64034c3)" d="M214 442L403 411"/>
<path style="--d:4s;" pathLength="3333" clip-path="url(#z64034c4)" d="M207 550L394 521"/>
<path style="--d:5s;" pathLength="3333" clip-path="url(#z64034c5)" d="M162 631L198 662L230 826"/>
<path style="--d:6s;" pathLength="3333" clip-path="url(#z64034c6)" d="M222 656L341 616L371 631L383 652L342 743"/>
<path style="--d:7s;" pathLength="3333" clip-path="url(#z64034c7)" d="M244 783L382 754"/>
<path style="--d:8s;" pathLength="3333" clip-path="url(#z64034c8)" d="M488 328L726 287"/>
<path style="--d:9s;" pathLength="3333" clip-path="url(#z64034c9)" d="M565 63L624 114L604 440"/>
<path style="--d:10s;" pathLength="3333" clip-path="url(#z64034c10)" d="M412 473L466 480L888 403L994 410"/>
<path style="--d:11s;" pathLength="3333" clip-path="url(#z64034c11)" d="M774 162L812 232L665 497L505 693L322 851"/>
<path style="--d:12s;" pathLength="3333" clip-path="url(#z64034c12)" d="M744 466L801 550"/>
<path style="--d:13s;" pathLength="3333" clip-path="url(#z64034c13)" d="M525 584L554 616L560 879"/>
<path style="--d:14s;" pathLength="3333" clip-path="url(#z64034c14)" d="M563 596L743 572L783 593L780 916"/>
<path style="--d:15s;" pathLength="3333" clip-path="url(#z64034c15)" d="M580 715L721 700"/>
<path style="--d:16s;" pathLength="3333" clip-path="url(#z64034c16)" d="M574 831L741 826"/>
</svg>