<!--
AnimCJK 2016-2019 Copyright Francois Mizessyn - https://github.com/parsimonhi/animCJK
Derived from:
    MakeMeAHanzi project - https://github.com/skishore/makemeahanzi
    Arphic PL KaitiM GB font
    Arphic PL UKai font
You can redistribute and/or modify this file under the terms of the Arphic Public License
as published by Arphic Technology Co., Ltd.
You should have received a copy of this license along with this file.
If not, see http://ftp.gnu.org/non-gnu/chinese-fonts-truetype/LICENSE.
-->
<svg id="z64058" class="acjk" version="1.1" viewBox="0 0 1024 1024" xmlns="http://www.w3.org/2000/svg" xmlns:xlink="http://www.w3.org/1999/xlink">
<style>
<![CDATA[
@keyframes zk {
	to {
		stroke-dashoffset:0;
	}
}
svg.acjk path[clip-path] {
	--t:0.8s;
	animation:zk var(--t) linear forwards var(--d);
	stroke-dasharray:3337;
	stroke-dashoffset:3339;
	stroke-width:128;
	stroke-linecap:round;
	fill:none;
	stroke:#000;
}
svg.acjk path[id] {fill:#ccc;}
]]>
</style>
<path id="z64058d1" d="M303 119Q293 115 264 114Q251 113 249 117Q243 124 254 139Q288 196 317 292Q324 320 343 338Q362 357 366 342Q367 338 367 333C366 313 366 313 365 303Q362 291 359 278Q332 184 324 151C322 138 316 122 303 119Z"/>
<path id="z64058d2" d="M619 304C627 320 635 331 643 338C650 344 659 342 672 330C683 318 705 276 738 205C747 185 760 167 779 154C788 147 791 138 784 127C775 114 758 96 732 76C720 67 694 69 654 75C605 81 488 93 303 119C290 122 311 153 324 151C362 142 407 133 460 126C485 123 485 123 497 121C537 115 611 105 633 105C663 104 684 104 692 116C698 125 698 135 695 143C669 211 651 250 644 261C639 267 634 271 626 272C615 274 614 294 619 304Z"/>
<path id="z64058d3" d="M382 205C394 226 406 243 421 251C426 254 432 252 437 247C440 242 442 236 442 229C442 218 436 210 430 204C409 184 392 176 377 179C374 179 373 181 374 187C374 191 377 197 382 205Z"/>
<path id="z64058d4" d="M587 175C578 188 565 204 548 224C545 226 544 230 547 232C549 233 553 233 557 231C591 211 615 195 632 190C638 187 642 186 641 181C639 174 634 166 627 159C619 150 610 145 601 145C595 144 591 149 592 157C592 161 591 167 587 175Z"/>
<path id="z64058d5" d="M520 312C548 309 581 305 619 304C630 304 635 279 626 272C617 263 602 263 581 268C559 272 539 275 521 279C494 284 494 284 480 287C463 290 401 298 365 303C355 305 358 337 367 333C388 324 456 318 480 316C507 313 507 313 520 312Z"/>
<path id="z64058d6" d="M516 480C516 459 516 439 517 419C518 391 518 391 518 377C518 354 519 332 520 312C521 290 521 290 521 279C521 251 522 224 524 199C525 165 529 154 524 143C518 132 506 126 497 121C486 115 454 115 460 126C472 146 480 188 480 243C480 272 480 272 480 287C480 306 480 306 480 316C480 336 479 359 479 385C478 412 478 412 478 425C477 439 478 465 478 485C478 498 516 493 516 480Z"/>
<path id="z64058d7" d="M517 419C557 412 596 408 632 405C648 403 654 397 649 388C642 377 630 369 612 366C589 361 558 368 518 377C492 382 492 382 479 385C440 392 403 398 369 406C356 408 357 415 371 426C379 432 392 435 410 433C410 433 455 428 478 425C504 421 504 421 517 419Z"/>
<path id="z64058d8" d="M478 485C409 494 335 499 255 508C242 509 239 515 250 526C269 545 290 550 312 545C392 525 524 514 706 514C714 514 724 514 736 515C748 515 755 512 758 508C761 501 759 491 749 484C716 457 680 453 644 460C608 466 565 473 516 480C491 483 491 483 478 485Z"/>
<path id="z64058d9" d="M171 588C156 616 138 642 119 668C103 687 102 710 113 735C118 746 127 749 142 741C175 719 189 687 193 647C195 624 198 605 194 589C192 582 188 579 184 579C178 579 173 582 171 588Z"/>
<path id="z64058d10" d="M332 617C354 646 371 668 388 677C395 681 403 678 408 671C412 664 414 656 413 648C411 635 405 625 398 618C385 606 367 597 345 589C336 585 330 584 326 586C322 586 320 589 321 596C321 602 325 608 332 617Z"/>
<path id="z64058d11" d="M561 589C588 622 609 645 629 654C635 656 642 654 648 647C652 640 653 632 652 624C647 601 621 580 573 560C565 556 558 556 553 558C550 558 549 562 550 568C550 574 554 580 561 589Z"/>
<path id="z64058d12" d="M766 586C799 614 837 647 877 688C888 699 898 708 909 711C914 712 919 707 925 701C932 691 931 673 922 645C913 619 886 599 843 581C831 576 806 567 766 555C759 553 755 555 755 563C754 571 758 579 766 586Z"/>
<path id="z64058d13" d="M521 764C629 749 685 740 689 738C695 733 696 728 694 723C690 715 679 707 662 703C646 698 600 707 524 722C491 728 491 728 475 731C431 739 384 737 335 739C312 739 308 747 324 759C344 774 380 780 433 774C447 772 461 772 477 770C506 766 506 766 521 764Z"/>
<path id="z64058d14" d="M514 872C516 834 518 798 521 764C523 736 523 736 524 722C525 705 527 689 530 680C534 661 534 647 522 639C504 627 487 623 474 621C465 619 458 620 454 625C449 629 449 636 455 644C464 658 472 686 475 731C476 757 476 757 477 770C478 802 478 837 479 875C479 887 514 884 514 872Z"/>
<path id="z64058d15" d="M479 875C394 882 303 886 206 895C191 896 188 902 199 914C207 923 217 929 230 934C243 939 256 939 267 937C414 904 594 897 805 911C805 911 805 910 808 911C820 912 829 909 833 904C837 896 833 887 823 878C789 849 759 838 735 843C680 852 606 864 514 872C491 874 491 874 479 875Z"/>
<defs>
	<clipPath id="z64058c1"><use xlink:href="#z64058d1"/></clipPath>
	<clipPath id="z64058c2"><use xlink:href="#z64058d2"/></clipPath>
	<clipPath id="z64058c3"><use xlink:href="#z64058d3"/></clipPath>
	<clipPath id="z64058c4"><use xlink:href="#z64058d4"/></clipPath>
	<clipPath id="z64058c5"><use xlink:href="#z64058d5"/></clipPath>
	<clipPath id="z64058c6"><use xlink:href="#z64058d6"/></clipPath>
	<clipPath id="z64058c7"><use xlink:href="#z64058d7"/></clipPath>
	<clipPath id="z64058c8"><use xlink:href="#z64058d8"/></clipPath>
	<clipPath id="z64058c9"><use xlink:href="#z64058d9"/></clipPath>
	<clipPath id="z64058c10"><use xlink:href="#z64058d10"/></clipPath>
	<clipPath id="z64058c11"><use xlink:href="#z64058d11"/></clipPath>
	<clipPath id="z64058c12"><use xlink:href="#z64058d12"/></clipPath>
	<clipPath id="z64058c13"><use xlink:href="#z64058d13"/></clipPath>
	<clipPath id="z64058c14"><use xlink:href="#z64058d14"/></clipPath>
	<clipPath id="z64058c15"><use xlink:href="#z64058d15"/></clipPath>
</defs>
<path style="--d:1s;" pathLength="3333" clip-path="url(#z64058c1)" d="M255 120L300 167L359 341"/>
<path style="--d:2s;" pathLength="3333" clip-path="url(#z64058c2)" d="M310 120L711 97L741 142L639 332"/>
<path style="--d:3s;" pathLength="3333" clip-path="url(#z64058c3)" d="M381 183L427 247"/>
<path style="--d:4s;" pathLength="3333" clip-path="url(#z64058c4)" d="M633 180L596 177L554 226"/>
<path style="--d:5s;" pathLength="3333" clip-path="url(#z64058c5)" d="M373 324L623 285"/>
<path style="--d:6s;" pathLength="3333" clip-path="url(#z64058c6)" d="M470 130L500 188L490 483"/>
<path style="--d:7s;" pathLength="3333" clip-path="url(#z64058c7)" d="M366 412L646 391"/>
<path style="--d:8s;" pathLength="3333" clip-path="url(#z64058c8)" d="M251 515L671 485L754 501"/>
<path style="--d:9s;" pathLength="3333" clip-path="url(#z64058c9)" d="M185 584L125 742"/>
<path style="--d:10s;" pathLength="3333" clip-path="url(#z64058c10)" d="M328 594L406 668"/>
<path style="--d:11s;" pathLength="3333" clip-path="url(#z64058c11)" d="M558 567L641 650"/>
<path style="--d:12s;" pathLength="3333" clip-path="url(#z64058c12)" d="M762 561L877 639L915 704"/>
<path style="--d:13s;" pathLength="3333" clip-path="url(#z64058c13)" d="M322 747L411 756L689 726"/>
<path style="--d:14s;" pathLength="3333" clip-path="url(#z64058c14)" d="M458 629L500 670L491 873"/>
<path style="--d:15s;" pathLength="3333" clip-path="url(#z64058c15)" d="M202 906L747 874L828 890"/>
</svg>