<!--
AnimCJK 2016-2019 Copyright Francois Mizessyn - https://github.com/parsimonhi/animCJK
Derived from:
    MakeMeAHanzi project - https://github.com/skishore/makemeahanzi
    Arphic PL KaitiM GB font
    Arphic PL UKai font
You can redistribute and/or modify this file under the terms of the Arphic Public License
as published by Arphic Technology Co., Ltd.
You should have received a copy of this license along with this file.
If not, see http://ftp.gnu.org/non-gnu/chinese-fonts-truetype/LICENSE.
-->
<svg id="z64076" class="acjk" version="1.1" viewBox="0 0 1024 1024" xmlns="http://www.w3.org/2000/svg" xmlns:xlink="http://www.w3.org/1999/xlink">
<style>
<![CDATA[
@keyframes zk {
	to {
		stroke-dashoffset:0;
	}
}
svg.acjk path[clip-path] {
	--t:0.8s;
	animation:zk var(--t) linear forwards var(--d);
	stroke-dasharray:3337;
	stroke-dashoffset:3339;
	stroke-width:128;
	stroke-linecap:round;
	fill:none;
	stroke:#000;
}
svg.acjk path[id] {fill:#ccc;}
]]>
</style>
<path id="z64076d1" d="M349 170C321 170 316 181 253 193C208 202 178 203 132 211C125 212 116 217 118 225C120 234 133 238 146 241C165 246 177 246 198 244C227 242 269 234 309 226C332 222 355 218 379 214C385 213 395 209 393 201C391 189 380 180 369 174C363 171 356 169 349 170Z"/>
<path id="z64076d2" d="M399 300C356 302 390 320 102 350C91 351 79 353 71 361C65 367 70 375 75 378C89 386 102 396 118 398C143 400 183 385 230 378C264 373 264 373 281 370C372 355 427 358 444 358C458 358 459 354 460 346C460 331 446 316 434 309C424 303 411 299 399 300Z"/>
<path id="z64076d3" d="M230 378C247 400 256 437 256 458C257 616 255 722 248 759C244 781 240 803 233 825C227 844 237 863 244 881C249 892 254 903 263 911C269 916 277 910 281 904C302 870 310 830 307 791C303 757 302 723 302 689C302 615 303 540 304 465C304 442 309 423 312 400C314 389 297 377 281 370C265 364 220 364 230 378Z"/>
<path id="z64076d4" d="M166 494C160 494 153 496 150 502C147 509 150 518 150 525C152 539 149 552 145 564C134 601 117 637 97 670C91 681 85 691 82 703C81 708 84 716 91 714C102 711 109 701 118 693C145 662 167 627 188 591C198 574 213 559 218 540C221 530 218 519 210 512C198 501 182 495 166 494Z"/>
<path id="z64076d5" d="M352 468C343 468 340 479 342 486C347 499 356 511 363 523C379 546 395 570 416 588C422 594 431 592 436 587C445 577 445 562 444 549C441 526 425 507 406 495C389 484 372 476 354 468C353 468 352 468 352 468Z"/>
<path id="z64076d6" d="M693 478C797 454 851 441 855 439C861 433 863 427 859 421C854 413 841 406 820 400C798 396 756 404 695 426C661 435 661 435 644 440C601 449 555 456 507 460C480 465 476 473 495 485C521 501 560 504 614 494C622 492 632 490 643 488C676 481 676 481 693 478Z"/>
<path id="z64076d7" d="M684 713C686 633 689 554 693 478C694 443 694 443 695 426C697 353 704 249 722 170C724 162 718 152 702 140C674 126 650 117 632 113C619 111 610 113 604 120C598 126 598 135 605 146C627 180 639 209 639 231C641 298 643 368 644 440C643 472 643 472 643 488C642 562 640 639 636 719C636 735 684 729 684 713Z"/>
<path id="z64076d8" d="M636 719Q533 729 414 744Q392 747 408 765Q423 780 442 786Q464 792 482 787Q656 745 910 751Q929 751 948 752Q970 752 975 743Q981 730 963 715Q908 673 867 681Q798 694 684 713C652 717 652 717 636 719Z"/>
<defs>
	<clipPath id="z64076c1"><use xlink:href="#z64076d1"/></clipPath>
	<clipPath id="z64076c2"><use xlink:href="#z64076d2"/></clipPath>
	<clipPath id="z64076c3"><use xlink:href="#z64076d3"/></clipPath>
	<clipPath id="z64076c4"><use xlink:href="#z64076d4"/></clipPath>
	<clipPath id="z64076c5"><use xlink:href="#z64076d5"/></clipPath>
	<clipPath id="z64076c6"><use xlink:href="#z64076d6"/></clipPath>
	<clipPath id="z64076c7"><use xlink:href="#z64076d7"/></clipPath>
	<clipPath id="z64076c8"><use xlink:href="#z64076d8"/></clipPath>
</defs>
<path style="--d:1s;" pathLength="3333" clip-path="url(#z64076c1)" d="M 132,227 388,197"/>
<path style="--d:2s;" pathLength="3333" clip-path="url(#z64076c2)" d="M 85,375 370,342 450,340"/>
<path style="--d:3s;" pathLength="3333" clip-path="url(#z64076c3)" d="M 266,391 286,444 271,898"/>
<path style="--d:4s;" pathLength="3333" clip-path="url(#z64076c4)" d="M 166,512 195,544 94,704"/>
<path style="--d:5s;" pathLength="3333" clip-path="url(#z64076c5)" d="M 357,490 399,533 425,575"/>
<path style="--d:6s;" pathLength="3333" clip-path="url(#z64076c6)" d="M 500,473 836,428.82353"/>
<path style="--d:7s;" pathLength="3333" clip-path="url(#z64076c7)" d="M 619,129 679,178 660,700.17647"/>
<path style="--d:8s;" pathLength="3333" clip-path="url(#z64076c8)" d="M407 754L462 764L869 715L972 730"/>
</svg>