<!--
AnimCJK 2016-2018 Copyright Francois Mizessyn, https://github.com/parsimonhi/animCJK
Derived from:
    MakeMeAHanzi project - https://github.com/skishore/makemeahanzi
    Arphic PL KaitiM GB - https://apps.ubuntu.com/cat/applications/precise/fonts-arphic-gkai00mp/
    Arphic PL UKai - https://apps.ubuntu.com/cat/applications/fonts-arphic-ukai/
You can redistribute and/or modify this file under the terms of the Arphic Public License
as published by Arphic Technology Co., Ltd.
You should have received a copy of this license (the directory "APL") along with this file;
if not, see http://ftp.gnu.org/non-gnu/chinese-fonts-truetype/LICENSE.
-->
<svg id="z64078" class="acjk" version="1.1" viewBox="0 0 1024 1024" xmlns="http://www.w3.org/2000/svg" xmlns:xlink="http://www.w3.org/1999/xlink">
<style>
<![CDATA[
@keyframes z64078k {
	from {
		stroke:#c00;
		stroke-dashoffset:3334;
	}
	75% {
		stroke:#c00;
		stroke-dashoffset:0;
	}
	to {
		stroke:#000;
	}
}
#z64078 path[clip-path] {
	animation:z64078k 1s linear both;
	stroke-dasharray:3334;
	stroke-width:128;
	stroke-linecap:round;
	fill:none;
}
#z64078 path[clip-path="url(#z64078c1)"] {animation-delay:1s;}
#z64078 path[clip-path="url(#z64078c2)"] {animation-delay:2s;}
#z64078 path[clip-path="url(#z64078c3)"] {animation-delay:3s;}
#z64078 path[clip-path="url(#z64078c4)"] {animation-delay:4s;}
#z64078 path[clip-path="url(#z64078c5)"] {animation-delay:5s;}
#z64078 path[clip-path="url(#z64078c6)"] {animation-delay:6s;}
#z64078 path[clip-path="url(#z64078c7)"] {animation-delay:7s;}
#z64078 path[clip-path="url(#z64078c8)"] {animation-delay:8s;}
#z64078 path[clip-path="url(#z64078c9)"] {animation-delay:9s;}
#z64078 path {fill:#ccc;}
]]>
</style>
<path id="z64078d1" d="M349 170C321 170 316 181 253 193C208 202 178 203 132 211C125 212 116 217 118 225C120 234 133 238 146 241C165 246 177 246 198 244C227 242 269 234 309 226C332 222 355 218 379 214C385 213 395 209 393 201C391 189 380 180 369 174C363 171 356 169 349 170 Z"/>
<path id="z64078d2" d="M399 300C356 302 390 320 102 350C91 351 79 353 71 361C65 367 70 375 75 378C89 386 102 396 118 398C143 400 183 385 230 378L281 370C372 355 427 358 444 358C458 358 459 354 460 346C460 331 446 316 434 309C424 303 411 299 399 300 Z"/>
<path id="z64078d3" d="M281 370L230 378C247 400 256 437 256 458C257 616 255 722 248 759C244 781 240 803 233 825C227 844 237 863 244 881C249 892 254 903 263 911C269 916 277 910 281 904C302 870 310 830 307 791C303 757 302 723 302 689C302 615 303 540 304 465C304 442 309 423 312 400C314 389 297 377 281 370 Z"/>
<path id="z64078d4" d="M166 494C160 494 153 496 150 502C147 509 150 518 150 525C152 539 149 552 145 564C134 601 117 637 97 670C91 681 85 691 82 703C81 708 84 716 91 714C102 711 109 701 118 693C145 662 167 627 188 591C198 574 213 559 218 540C221 530 218 519 210 512C198 501 182 495 166 494 Z"/>
<path id="z64078d5" d="M352 468C343 468 340 479 342 486C347 499 356 511 363 523C379 546 395 570 416 588C422 594 431 592 436 587C445 577 445 562 444 549C441 526 425 507 406 495C389 484 372 476 354 468C353 468 352 468 352 468 Z"/>
<path id="z64078d6" d="M599 293Q648 265 680 243Q758 189 785 180Q809 170 798 150Q785 131 757 114Q732 98 718 100Q703 101 708 115Q709 148 643 216Q615 244 586 274L599 293 Z"/>
<path id="z64078d7" d="M591 419Q594 326 598 301Q599 297 599 293L586 274Q535 250 520 252Q501 256 517 278Q547 330 533 530Q526 584 501 645Q477 709 399 789Q386 802 382 808Q381 815 392 815Q431 812 495 741Q574 648 589 450L591 419 Z"/>
<path id="z64078d8" d="M751 428Q799 415 948 395Q961 392 962 385Q963 373 940 358Q904 333 840 361Q773 383 719 394Q655 404 591 419L589 450Q592 450 595 451Q616 452 701 438L751 428 Z"/>
<path id="z64078d9" d="M726 931Q732 956 738 965Q744 972 751 970Q769 958 772 903Q776 719 782 533Q782 518 792 473Q795 455 781 446Q763 434 751 428L701 438Q711 468 724 500Q724 914 726 931 Z"/>
<defs>
	<clipPath id="z64078c1"><use xlink:href="#z64078d1"/></clipPath>
	<clipPath id="z64078c2"><use xlink:href="#z64078d2"/></clipPath>
	<clipPath id="z64078c3"><use xlink:href="#z64078d3"/></clipPath>
	<clipPath id="z64078c4"><use xlink:href="#z64078d4"/></clipPath>
	<clipPath id="z64078c5"><use xlink:href="#z64078d5"/></clipPath>
	<clipPath id="z64078c6"><use xlink:href="#z64078d6"/></clipPath>
	<clipPath id="z64078c7"><use xlink:href="#z64078d7"/></clipPath>
	<clipPath id="z64078c8"><use xlink:href="#z64078d8"/></clipPath>
	<clipPath id="z64078c9"><use xlink:href="#z64078d9"/></clipPath>
</defs>
<path pathLength="3333" clip-path="url(#z64078c1)" d="M132 227L388 197"/>
<path pathLength="3333" clip-path="url(#z64078c2)" d="M85 375L370 342L450 340"/>
<path pathLength="3333" clip-path="url(#z64078c3)" d="M266 391L286 444L271 898"/>
<path pathLength="3333" clip-path="url(#z64078c4)" d="M166 512L195 544L94 704"/>
<path pathLength="3333" clip-path="url(#z64078c5)" d="M357 490L399 533L425 575"/>
<path pathLength="3333" clip-path="url(#z64078c6)" d="M715 107L745 171L592 280"/>
<path pathLength="3333" clip-path="url(#z64078c7)" d="M515 257L564 309L547 577L482 724L389 806"/>
<path pathLength="3333" clip-path="url(#z64078c8)" d="M593 444L882 376L957 380"/>
<path pathLength="3333" clip-path="url(#z64078c9)" d="M710 442L757 489L749 966"/>
</svg>