<!--
AnimCJK 2016-2018 Copyright Francois Mizessyn - https://github.com/parsimonhi/animCJK
Derived from:
    MakeMeAHanzi project - https://github.com/skishore/makemeahanzi
    Arphic PL KaitiM GB - https://apps.ubuntu.com/cat/applications/precise/fonts-arphic-gkai00mp/
    Arphic PL UKai - https://apps.ubuntu.com/cat/applications/fonts-arphic-ukai/
You can redistribute and/or modify this file under the terms of the Arphic Public License
as published by Arphic Technology Co., Ltd.
You should have received a copy of this license (the directory "APL") along with this file;
if not, see http://ftp.gnu.org/non-gnu/chinese-fonts-truetype/LICENSE.
-->
<svg id="z64081" class="acjk" version="1.1" viewBox="0 0 1024 1024" xmlns="http://www.w3.org/2000/svg" xmlns:xlink="http://www.w3.org/1999/xlink">
<style>
<![CDATA[
@keyframes z64081k {
	from {
		stroke:#ccc;
		stroke-dashoffset:3334;
	}
	1% {
		stroke:#c00;
		stroke-dashoffset:3334;
	}
	75% {
		stroke:#c00;
		stroke-dashoffset:0;
	}
	to {
		stroke:#000;
	}
}
#z64081 path[clip-path] {
	animation:z64081k 1s linear both;
	stroke-dasharray:3334;
	stroke-width:128;
	stroke-linecap:round;
	fill:none;
}
#z64081 path[clip-path="url(#z64081c1)"] {animation-delay:1s;}
#z64081 path[clip-path="url(#z64081c2)"] {animation-delay:2s;}
#z64081 path[clip-path="url(#z64081c3)"] {animation-delay:3s;}
#z64081 path[clip-path="url(#z64081c4)"] {animation-delay:4s;}
#z64081 path[clip-path="url(#z64081c5)"] {animation-delay:5s;}
#z64081 path[clip-path="url(#z64081c6)"] {animation-delay:6s;}
#z64081 path[clip-path="url(#z64081c7)"] {animation-delay:7s;}
#z64081 path[clip-path="url(#z64081c8)"] {animation-delay:8s;}
#z64081 path[clip-path="url(#z64081c9)"] {animation-delay:9s;}
#z64081 path[clip-path="url(#z64081c10)"] {animation-delay:10s;}
#z64081 path {fill:#ccc;}
]]>
</style>
<path id="z64081d1" d="M349 170C321 170 316 180 253 193C208 201 178 203 132 211C125 212 116 217 118 225C120 234 133 237 146 241C165 245 177 245 198 244C227 241 268 233 309 226C331 221 355 218 379 214C385 213 394 209 393 201C390 189 380 179 369 174C363 170 356 169 349 170Z"></path>
<path id="z64081d2" d="M399 300C356 302 266 339 102 350C90 350 79 353 71 361C65 367 69 375 75 378C88 386 102 396 118 398C143 400 183 385 230 378C264 373 264 373 281 370C338 361 399 356 444 358C458 358 459 354 460 346C460 331 446 316 434 309C424 303 411 299 399 300Z"></path>
<path id="z64081d3" d="M230 378C247 400 255 437 256 458C256 616 254 722 248 759C243 781 240 803 233 825C227 844 236 863 244 881C248 892 253 903 263 911C268 916 277 910 281 904C302 870 310 829 307 791C303 756 302 723 302 689C302 615 303 540 304 465C304 442 308 422 312 400C313 388 297 377 281 370C265 364 220 364 230 378Z"></path>
<path id="z64081d4" d="M166 494C160 493 152 495 150 502C146 508 149 518 150 525C151 539 148 551 145 564C133 600 116 636 97 670C90 680 84 691 82 703C80 708 83 715 91 714C102 710 109 701 118 693C145 662 167 627 188 591C198 574 212 558 218 540C220 529 217 519 210 512C197 501 182 494 166 494Z"></path>
<path id="z64081d5" d="M352 468C343 466 339 479 342 486C346 499 355 511 363 523C378 546 395 569 416 588C422 593 431 592 436 587C445 577 445 562 444 549C441 525 424 508 406 495C384 479 365 470 352 468Z"></path>
<path id="z64081d6" d="M510 255C503 252 491 250 476 248C467 246 463 247 461 251C457 255 458 262 464 273C484 310 501 360 514 423C517 441 524 456 535 469C550 486 562 479 561 457C560 435 560 435 559 424C558 408 541 341 532 285C530 273 522 260 510 255Z"></path>
<path id="z64081d7" d="M763 399C781 336 802 297 823 279C836 267 836 253 825 242C815 232 791 220 755 204C743 198 729 199 715 205C660 226 592 243 510 255C498 257 520 287 532 285C654 260 719 250 725 256C726 257 726 257 726 257C732 263 735 272 734 286C728 324 720 360 712 392C709 409 760 416 763 399Z"></path>
<path id="z64081d8" d="M671 441C699 437 732 433 772 430C778 429 783 426 784 420C784 415 777 408 763 399C748 390 728 386 712 392C679 402 603 416 559 424C548 426 550 459 561 457C561 457 606 450 629 447C657 443 657 443 671 441Z"></path>
<path id="z64081d9" d="M522 522C532 584 509 652 451 727C420 765 403 781 363 820C358 824 357 828 362 829C382 833 418 815 464 771C511 724 547 673 576 593C580 579 586 565 595 553C599 546 600 540 596 535C591 528 579 521 561 512C547 505 537 503 532 505C524 507 520 513 522 522Z"></path>
<path id="z64081d10" d="M991 778C980 755 969 709 960 639C958 628 957 621 953 618C949 615 945 620 943 632C926 706 912 755 898 777C883 798 843 807 784 802C733 797 702 780 691 756C670 711 672 621 697 483C699 467 691 453 671 441C659 434 624 434 629 447C639 467 643 495 641 531C629 699 626 786 677 826C693 839 716 852 750 858C842 874 914 866 984 819C997 810 998 795 991 778Z"></path>
<defs>
	<clipPath id="z64081c1"><use xlink:href="#z64081d1"></use></clipPath>
	<clipPath id="z64081c2"><use xlink:href="#z64081d2"></use></clipPath>
	<clipPath id="z64081c3"><use xlink:href="#z64081d3"></use></clipPath>
	<clipPath id="z64081c4"><use xlink:href="#z64081d4"></use></clipPath>
	<clipPath id="z64081c5"><use xlink:href="#z64081d5"></use></clipPath>
	<clipPath id="z64081c6"><use xlink:href="#z64081d6"></use></clipPath>
	<clipPath id="z64081c7"><use xlink:href="#z64081d7"></use></clipPath>
	<clipPath id="z64081c8"><use xlink:href="#z64081d8"></use></clipPath>
	<clipPath id="z64081c9"><use xlink:href="#z64081d9"></use></clipPath>
	<clipPath id="z64081c10"><use xlink:href="#z64081d10"></use></clipPath>
</defs>
<path pathLength="3333" clip-path="url(#z64081c1)" d="M 132,227 388,197"></path>
<path pathLength="3333" clip-path="url(#z64081c2)" d="M 85,375 370,342 450,340"></path>
<path pathLength="3333" clip-path="url(#z64081c3)" d="M 266,391 286,444 271,898"></path>
<path pathLength="3333" clip-path="url(#z64081c4)" d="M 166,512 195,544 94,704"></path>
<path pathLength="3333" clip-path="url(#z64081c5)" d="M 357,490 399,533 425,575"></path>
<path pathLength="3333" clip-path="url(#z64081c6)" d="M468 255L506 298L551 475"></path>
<path pathLength="3333" clip-path="url(#z64081c7)" d="M520 258L749 236L782 273L731 394"></path>
<path pathLength="3333" clip-path="url(#z64081c8)" d="M565 449L710 414L777 419"></path>
<path pathLength="3333" clip-path="url(#z64081c9)" d="M531 515L561 555L518 666L450 758L366 824"></path>
<path pathLength="3333" clip-path="url(#z64081c10)" d="M636 448L668 480L663 742L717 816L856 833L940 796L949 624"></path>
</svg>