<!--
AnimCJK 2016-2026 Copyright FM-SH - https://github.com/parsimonhi/animCJK
Derived from:
    MakeMeAHanzi project - https://github.com/skishore/makemeahanzi
    Arphic PL KaitiM GB font
    Arphic PL KaitiM Big5 font
You can redistribute and/or modify this file under the terms of the Arphic Public License
as published by Arphic Technology Co., Ltd.
You should have received a copy of this license along with this file.
If not, see https://ftp.gnu.org/non-gnu/chinese-fonts-truetype/LICENSE.
-->
<svg id="z64082" class="acjk" viewBox="0 0 1024 1024" xmlns="http://www.w3.org/2000/svg">
<style>
<![CDATA[
@keyframes zk {
	to {
		stroke-dashoffset:0;
	}
}
svg.acjk path[clip-path] {
	--t:0.8s;
	animation:zk var(--t) linear forwards var(--d);
	stroke-dasharray:3337;
	stroke-dashoffset:3339;
	stroke-width:128;
	stroke-linecap:round;
	fill:none;
	stroke:#000;
}
svg.acjk path[id] {fill:#ccc;}
]]>
</style>
<path id="z64082d1" d="M277 206C228 221 177 232 128 242C120 244 108 248 111 257C113 264 137 275 169 272C205 268 252 253 287 244C310 238 334 231 361 226C382 222 392 211 379 200C349 175 309 195 277 206Z"/>
<path id="z64082d2" d="M287 338C225 356 174 365 112 378C98 381 83 382 74 392C58 408 105 422 114 422C151 426 192 406 230 398C265 390 265 390 283 386C320 378 366 369 393 365C491 349 412 313 381 315C353 316 321 328 287 338Z"/>
<path id="z64082d3" d="M230 398C246 429 248 465 249 511C249 586 250 693 245 746C241 780 236 811 230 837C225 855 227 878 240 903C255 931 265 935 281 902C294 877 298 853 298 827C297 795 293 766 293 734C291 659 292 546 294 500C294 478 297 455 300 432C303 409 308 398 283 386C267 377 222 382 230 398Z"/>
<path id="z64082d4" d="M149 542C152 592 135 626 91 716C76 746 93 747 113 725C159 674 171 638 209 581C224 556 223 543 192 529C173 521 147 510 149 542Z"/>
<path id="z64082d5" d="M337 486C326 482 319 492 327 506C337 525 374 580 399 597C408 604 420 590 422 578C428 521 381 504 337 486Z"/>
<path id="z64082d6" d="M555 188Q539 176 518 169Q505 165 496 170Q489 176 495 191Q516 233 525 277Q531 323 542 507C542 520 580 513 580 500Q568 278 576 226C576 221 576 221 576 218C576 206 565 195 555 188Z"/>
<path id="z64082d7" d="M796 459Q803 267 853 200Q869 181 852 163Q834 151 779 131Q760 125 738 135Q675 163 555 188C543 190 565 223 576 218Q577 215 725 184Q743 180 751 187Q770 202 771 239Q770 267 767 294C765 315 765 315 764 325Q757 401 745 467C742 484 796 476 796 459Z"/>
<path id="z64082d8" d="M682 479Q682 383 688 342C690 333 687 322 681 316Q665 300 642 291Q632 287 624 291Q618 295 622 308Q635 333 640 358Q643 383 649 485C649 496 682 490 682 479Z"/>
<path id="z64082d9" d="M688 342Q725 332 764 325C774 323 777 296 767 294Q766 293 762 293Q732 290 681 316C673 319 679 344 688 342Z"/>
<path id="z64082d10" d="M475 517C474 516 473 515 472 515C454 506 445 504 435 506C426 508 424 513 428 521C444 576 441 648 427 728C415 770 418 802 436 824C440 832 446 835 452 831C472 816 482 774 483 705C485 626 487 576 489 554C489 541 486 525 475 517Z"/>
<path id="z64082d11" d="M489 554C501 554 522 529 824 488C843 485 876 483 879 534C881 584 874 654 863 745C860 763 854 773 837 772C814 770 793 768 774 767C763 766 760 768 763 775C766 781 777 789 796 802C823 819 843 841 863 862C870 869 880 870 890 866C896 862 904 847 915 824C931 787 937 734 935 662C931 564 934 508 943 497C949 488 950 480 945 473C938 464 921 453 892 443C865 433 873 446 796 459C762 464 762 464 745 467C722 470 701 475 682 479C660 483 660 483 649 485C627 488 601 496 580 500C555 505 555 505 542 507C517 511 495 513 475 517C462 520 476 557 489 554Z"/>
<path id="z64082d12" d="M579 600Q567 596 543 593Q533 590 530 595Q526 601 533 613Q555 652 570 715Q574 734 586 747Q602 765 605 751Q608 744 607 731C604 712 604 712 603 702Q593 645 591 626C589 617 588 602 579 600Z"/>
<path id="z64082d13" d="M749 685C761 651 773 630 784 620C799 604 799 591 785 583C772 575 758 566 742 555C730 546 712 555 683 569C646 586 610 593 579 600C570 602 582 628 591 626C622 619 653 610 685 603C701 599 710 600 714 606C716 609 712 632 702 677C699 693 743 700 749 685Z"/>
<path id="z64082d14" d="M607 731Q616 732 628 730Q668 721 757 713Q767 712 768 703Q768 696 749 685C735 677 718 674 702 677Q696 677 696 678Q644 693 603 702C593 704 597 731 607 731Z"/>
<defs>
	<clipPath id="z64082c1"><use href="#z64082d1"/></clipPath>
	<clipPath id="z64082c2"><use href="#z64082d2"/></clipPath>
	<clipPath id="z64082c3"><use href="#z64082d3"/></clipPath>
	<clipPath id="z64082c4"><use href="#z64082d4"/></clipPath>
	<clipPath id="z64082c5"><use href="#z64082d5"/></clipPath>
	<clipPath id="z64082c6"><use href="#z64082d6"/></clipPath>
	<clipPath id="z64082c7"><use href="#z64082d7"/></clipPath>
	<clipPath id="z64082c8"><use href="#z64082d8"/></clipPath>
	<clipPath id="z64082c9"><use href="#z64082d9"/></clipPath>
	<clipPath id="z64082c10"><use href="#z64082d10"/></clipPath>
	<clipPath id="z64082c11"><use href="#z64082d11"/></clipPath>
	<clipPath id="z64082c12"><use href="#z64082d12"/></clipPath>
	<clipPath id="z64082c13"><use href="#z64082d13"/></clipPath>
	<clipPath id="z64082c14"><use href="#z64082d14"/></clipPath>
</defs>
<path style="--d:1s;" pathLength="3333" clip-path="url(#z64082c1)" d="M116 251L380 205"/>
<path style="--d:2s;" pathLength="3333" clip-path="url(#z64082c2)" d="M78 400L436 339"/>
<path style="--d:3s;" pathLength="3333" clip-path="url(#z64082c3)" d="M236 393L273 422L263 922"/>
<path style="--d:4s;" pathLength="3333" clip-path="url(#z64082c4)" d="M156 524L182 569L94 734"/>
<path style="--d:5s;" pathLength="3333" clip-path="url(#z64082c5)" d="M330 493L409 593"/>
<path style="--d:6s;" pathLength="3333" clip-path="url(#z64082c6)" d="M501 176L545 227L555 512"/>
<path style="--d:7s;" pathLength="3333" clip-path="url(#z64082c7)" d="M560 197L755 157L804 182L761 475"/>
<path style="--d:8s;" pathLength="3333" clip-path="url(#z64082c8)" d="M628 297L662 337L662 488"/>
<path style="--d:9s;" pathLength="3333" clip-path="url(#z64082c9)" d="M683 329L771 310"/>
<path style="--d:10s;" pathLength="3333" clip-path="url(#z64082c10)" d="M432 510L462 559L444 827"/>
<path style="--d:11s;" pathLength="3333" clip-path="url(#z64082c11)" d="M474 524L854 466L899 480L887 790L862 820L770 775"/>
<path style="--d:12s;" pathLength="3333" clip-path="url(#z64082c12)" d="M536 598L564 619L594 749"/>
<path style="--d:13s;" pathLength="3333" clip-path="url(#z64082c13)" d="M580 605L736 585L754 611L724 691"/>
<path style="--d:14s;" pathLength="3333" clip-path="url(#z64082c14)" d="M599 714L762 705"/>
</svg>