<!--
AnimCJK 2016-2026 Copyright FM-SH - https://github.com/parsimonhi/animCJK
Derived from:
    MakeMeAHanzi project - https://github.com/skishore/makemeahanzi
    Arphic PL KaitiM GB font
    Arphic PL KaitiM Big5 font
You can redistribute and/or modify this file under the terms of the Arphic Public License
as published by Arphic Technology Co., Ltd.
You should have received a copy of this license along with this file.
If not, see https://ftp.gnu.org/non-gnu/chinese-fonts-truetype/LICENSE.
-->
<svg id="z64083" class="acjk" viewBox="0 0 1024 1024" xmlns="http://www.w3.org/2000/svg">
<style>
<![CDATA[
@keyframes zk {
	to {
		stroke-dashoffset:0;
	}
}
svg.acjk path[clip-path] {
	--t:0.8s;
	animation:zk var(--t) linear forwards var(--d);
	stroke-dasharray:3337;
	stroke-dashoffset:3339;
	stroke-width:128;
	stroke-linecap:round;
	fill:none;
	stroke:#000;
}
svg.acjk path[id] {fill:#ccc;}
]]>
</style>
<path id="z64083d1" d="M349 170C321 170 315 180 253 193C207 201 178 203 132 211C125 212 116 216 118 225C120 233 133 237 146 241C165 245 176 245 198 244C226 241 268 233 309 226C331 221 355 218 379 214C385 213 394 209 393 201C390 189 380 179 369 174C363 170 356 169 349 170Z"/>
<path id="z64083d2" d="M399 300C356 302 390 320 102 350C91 351 79 353 71 361C65 367 70 375 75 378C89 386 102 396 118 398C143 400 183 385 230 378C264 373 264 373 281 370C372 355 427 358 444 358C458 358 459 354 460 346C460 331 446 316 434 309C424 303 411 299 399 300Z"/>
<path id="z64083d3" d="M230 378C247 400 256 437 256 458C257 616 255 722 248 759C244 781 240 803 233 825C227 844 237 863 244 881C249 892 254 903 263 911C269 916 277 910 281 904C302 870 310 830 307 791C303 757 302 723 302 689C302 615 303 540 304 465C304 442 309 423 312 400C314 389 297 377 281 370C265 364 220 364 230 378Z"/>
<path id="z64083d4" d="M166 494C160 494 153 496 150 502C147 509 150 518 150 525C152 539 149 552 145 564C134 601 117 637 97 670C91 681 85 691 82 703C81 708 84 716 91 714C102 711 109 701 118 693C145 662 167 627 188 591C198 574 213 559 218 540C221 530 218 519 210 512C198 501 182 495 166 494Z"/>
<path id="z64083d5" d="M342 486C346 499 355 511 363 523C378 546 399 573 420 592C426 597 435 596 440 591C449 581 450 565 448 553C440 514 401 496 374 476C354 461 334 463 342 486Z"/>
<path id="z64083d6" d="M684 306Q690 242 696 183C698 159 698 159 699 147Q702 129 705 117Q709 105 711 97Q714 87 696 74Q665 56 642 53Q627 49 620 57Q613 64 621 78Q636 97 637 113Q646 207 645 316C645 329 684 319 684 306Z"/>
<path id="z64083d7" d="M696 183C714 183 760 173 835 153C843 150 852 148 862 143C867 139 867 132 864 127C859 120 847 115 827 112C811 109 779 120 730 138C720 141 709 144 699 147C687 149 684 183 696 183Z"/>
<path id="z64083d8" d="M550 333Q514 308 498 315Q491 319 497 331Q498 338 501 346Q525 388 510 559Q498 652 498 656Q498 672 522 703Q532 716 542 704Q549 695 552 685C556 675 555 664 555 653Q556 632 557 570C557 551 557 551 557 542Q558 500 559 469C560 451 560 451 560 442Q560 372 564 365C566 354 559 340 550 333Z"/>
<path id="z64083d9" d="M807 663Q808 667 813 673Q828 704 838 702Q853 701 869 665Q885 637 883 616Q871 535 871 410Q870 373 889 342Q899 326 892 315Q811 249 749 284Q718 296 684 306C658 313 658 313 645 316Q593 326 550 333C539 335 553 367 564 365Q570 364 575 363Q678 333 755 317Q782 310 791 324Q807 343 808 407Q815 590 805 625C804 629 804 629 803 631C799 641 803 653 807 663Z"/>
<path id="z64083d10" d="M559 469Q565 470 576 468Q667 449 735 437Q759 433 749 420Q739 405 713 402Q689 399 560 442C552 445 550 469 559 469Z"/>
<path id="z64083d11" d="M557 570Q563 571 573 569Q670 551 743 540Q765 536 757 524Q747 509 721 505Q696 502 557 542C548 545 548 570 557 570Z"/>
<path id="z64083d12" d="M552 685Q562 689 575 686Q648 671 807 663C818 663 811 638 803 631Q799 627 794 624Q778 614 747 621Q641 643 555 653C544 655 541 683 552 685Z"/>
<path id="z64083d13" d="M576 730C563 771 510 829 414 900C400 910 401 912 419 912C457 911 518 880 599 813C602 809 617 795 647 771C655 763 657 756 657 750C655 741 646 733 629 726C610 717 596 714 588 716C583 716 578 721 576 730Z"/>
<path id="z64083d14" d="M729 765C764 799 805 842 847 895C858 909 868 919 880 922C885 923 891 919 897 913C905 903 905 884 899 853C891 811 835 771 731 732C723 729 719 730 719 739C717 749 721 757 729 765Z"/>
<defs>
	<clipPath id="z64083c1"><use href="#z64083d1"/></clipPath>
	<clipPath id="z64083c2"><use href="#z64083d2"/></clipPath>
	<clipPath id="z64083c3"><use href="#z64083d3"/></clipPath>
	<clipPath id="z64083c4"><use href="#z64083d4"/></clipPath>
	<clipPath id="z64083c5"><use href="#z64083d5"/></clipPath>
	<clipPath id="z64083c6"><use href="#z64083d6"/></clipPath>
	<clipPath id="z64083c7"><use href="#z64083d7"/></clipPath>
	<clipPath id="z64083c8"><use href="#z64083d8"/></clipPath>
	<clipPath id="z64083c9"><use href="#z64083d9"/></clipPath>
	<clipPath id="z64083c10"><use href="#z64083d10"/></clipPath>
	<clipPath id="z64083c11"><use href="#z64083d11"/></clipPath>
	<clipPath id="z64083c12"><use href="#z64083d12"/></clipPath>
	<clipPath id="z64083c13"><use href="#z64083d13"/></clipPath>
	<clipPath id="z64083c14"><use href="#z64083d14"/></clipPath>
</defs>
<path style="--d:1s;" pathLength="3333" clip-path="url(#z64083c1)" d="M125 222L389 197"/>
<path style="--d:2s;" pathLength="3333" clip-path="url(#z64083c2)" d="M75 366L399 329L456 344"/>
<path style="--d:3s;" pathLength="3333" clip-path="url(#z64083c3)" d="M237 374L281 417L264 909"/>
<path style="--d:4s;" pathLength="3333" clip-path="url(#z64083c4)" d="M156 504L183 545L87 709"/>
<path style="--d:5s;" pathLength="3333" clip-path="url(#z64083c5)" d="M347 471L438 588"/>
<path style="--d:6s;" pathLength="3333" clip-path="url(#z64083c6)" d="M624 59L674 103L656 318"/>
<path style="--d:7s;" pathLength="3333" clip-path="url(#z64083c7)" d="M692 172L859 132"/>
<path style="--d:8s;" pathLength="3333" clip-path="url(#z64083c8)" d="M502 319L537 372L533 705"/>
<path style="--d:9s;" pathLength="3333" clip-path="url(#z64083c9)" d="M554 342L778 294L833 316L849 344L835 698"/>
<path style="--d:10s;" pathLength="3333" clip-path="url(#z64083c10)" d="M555 459L747 419"/>
<path style="--d:11s;" pathLength="3333" clip-path="url(#z64083c11)" d="M553 560L752 530"/>
<path style="--d:12s;" pathLength="3333" clip-path="url(#z64083c12)" d="M547 672L809 645"/>
<path style="--d:13s;" pathLength="3333" clip-path="url(#z64083c13)" d="M587 722L607 762L415 906"/>
<path style="--d:14s;" pathLength="3333" clip-path="url(#z64083c14)" d="M724 737L849 838L888 917"/>
</svg>