<!--
AnimCJK 2016-2025 Copyright FM-SH - https://github.com/parsimonhi/animCJK
Derived from:
    MakeMeAHanzi project - https://github.com/skishore/makemeahanzi
    Arphic PL KaitiM GB font
    Arphic PL UKai font
You can redistribute and/or modify this file under the terms of the Arphic Public License
as published by Arphic Technology Co., Ltd.
You should have received a copy of this license along with this file.
If not, see http://ftp.gnu.org/non-gnu/chinese-fonts-truetype/LICENSE.
-->
<svg id="z64104" class="acjk" version="1.1" viewBox="0 0 1024 1024" xmlns="http://www.w3.org/2000/svg" xmlns:xlink="http://www.w3.org/1999/xlink">
<style>
<![CDATA[
@keyframes zk {
	to {
		stroke-dashoffset:0;
	}
}
svg.acjk path[clip-path] {
	--t:0.8s;
	animation:zk var(--t) linear forwards var(--d);
	stroke-dasharray:3337;
	stroke-dashoffset:3339;
	stroke-width:128;
	stroke-linecap:round;
	fill:none;
	stroke:#000;
}
svg.acjk path[id] {fill:#ccc;}
]]>
</style>
<path id="z64104d1" d="M420 224C454 217 487 210 519 207C523 206 530 205 534 197C536 191 527 186 516 180C501 171 473 171 430 184C397 194 397 194 380 199C348 208 314 216 286 222C259 227 259 227 245 230C218 235 179 239 127 249C111 251 109 256 122 266C138 277 158 282 182 276C202 270 226 265 252 260C277 255 277 255 289 252C315 246 344 237 376 232C405 227 405 227 420 224Z"/>
<path id="z64104d2" d="M286 222C282 189 280 168 283 157C285 146 283 137 275 133C266 127 253 122 237 119C225 116 213 118 204 126C197 131 200 136 209 144C222 155 234 185 245 230C250 250 250 250 252 260C264 314 274 343 278 349C282 353 286 354 290 350C292 344 292 344 293 341C296 334 295 326 295 318C295 302 291 280 289 252C287 232 287 232 286 222Z"/>
<path id="z64104d3" d="M400 301C406 274 413 248 420 224C427 197 427 197 430 184C433 171 439 144 456 105C458 98 456 90 446 82C430 68 414 60 402 56C393 53 386 53 382 57C377 59 374 66 379 75C385 89 389 100 389 110C386 138 383 168 380 199C377 221 377 221 376 232C373 252 368 275 365 300C363 311 398 312 400 301Z"/>
<path id="z64104d4" d="M293 341C311 343 329 336 412 326C416 325 419 323 420 319C420 315 413 309 400 301C390 295 376 298 365 300C341 305 316 312 295 318C287 320 285 341 293 341Z"/>
<path id="z64104d5" d="M192 423C187 420 175 419 156 419C149 418 145 419 144 422C141 426 143 431 149 439C163 457 177 482 190 514C193 523 198 531 206 537C220 548 224 550 225 529C225 521 222 513 221 506C216 478 207 460 205 448C203 439 201 426 192 423Z"/>
<path id="z64104d6" d="M451 466C463 439 477 424 490 416C500 408 499 397 491 389C483 381 466 372 440 360C431 355 421 356 410 361C385 370 363 381 341 388C302 399 302 399 283 404C253 412 222 417 192 423C183 425 196 451 205 448C219 442 247 436 288 426C325 417 325 417 344 412C386 401 411 394 421 402C423 403 420 423 413 459C411 472 446 478 451 466Z"/>
<path id="z64104d7" d="M337 506C369 499 409 492 456 486C460 485 463 483 464 479C464 476 459 472 451 466C440 459 425 454 413 459C397 464 360 473 338 479C307 487 307 487 292 491C266 497 242 500 221 506C213 508 217 531 225 529C240 526 276 518 292 515C322 509 322 509 337 506Z"/>
<path id="z64104d8" d="M328 599C356 590 387 582 420 573C440 566 453 562 457 559C461 554 462 549 459 545C454 538 444 534 429 532C415 529 383 540 333 558C304 568 304 568 289 573C263 581 236 583 209 589C188 592 185 601 202 608C231 620 260 617 285 611C314 603 314 603 328 599Z"/>
<path id="z64104d9" d="M314 689C364 674 423 660 491 648C501 646 505 642 506 638C506 629 501 622 490 618C472 610 456 610 442 615C396 628 356 640 322 650C292 659 292 659 277 663C193 687 123 698 71 707C62 708 56 710 56 717C54 723 59 730 69 737C94 753 120 755 145 746C189 727 229 713 266 703C298 694 298 694 314 689Z"/>
<path id="z64104d10" d="M266 703C247 771 206 837 163 882C152 892 141 903 130 913C122 919 116 924 115 929C113 933 117 935 124 935C147 934 182 910 227 862C267 818 299 761 314 689C319 663 319 663 322 650C325 633 326 614 328 599C331 572 331 572 333 558C335 541 336 524 337 506C338 488 338 488 338 479C338 455 345 422 344 412C344 404 346 394 341 388C336 381 329 375 314 370C296 364 283 362 278 363C266 365 265 371 274 385C277 390 281 396 283 404C286 419 286 419 288 426C292 447 292 471 292 491C292 507 292 507 292 515C292 531 291 551 289 573C286 598 286 598 285 611C283 627 281 645 277 663C270 690 270 690 266 703Z"/>
<path id="z64104d11" d="M388 753C405 768 422 788 442 810C448 817 457 822 467 822C473 822 478 818 481 811C484 803 483 790 480 773C475 750 444 730 387 712C378 709 371 707 368 709C364 710 363 716 364 724C364 730 373 739 388 753Z"/>
<path id="z64104d12" d="M570 286C597 258 644 195 665 164C676 145 686 131 696 122C702 116 703 108 701 100C698 93 689 81 671 68C655 56 640 51 630 52C617 52 613 60 620 74C629 95 615 143 571 218C551 251 526 286 498 324C492 331 488 335 487 339C484 345 487 348 496 347C497 346 515 340 539 317C560 296 560 296 570 286Z"/>
<path id="z64104d13" d="M604 721Q603 439 613 368Q620 340 601 319Q583 300 570 286C561 275 534 303 539 317Q543 330 550 340Q566 373 574 462Q565 669 559 709Q532 854 533 858Q540 907 561 928Q579 944 591 917Q606 877 605 830Q604 784 604 743C604 728 604 728 604 721Z"/>
<path id="z64104d14" d="M738 212C753 225 768 240 786 257C794 265 804 269 814 269C820 268 825 263 829 255C831 246 830 232 825 213C819 194 788 179 733 166C722 163 715 162 712 165C708 167 707 173 709 181C710 187 721 197 738 212Z"/>
<path id="z64104d15" d="M778 370C874 350 923 334 927 332C931 327 933 322 931 318C926 310 915 305 899 302C883 298 845 310 785 328C739 341 694 345 651 352C630 355 626 363 642 372C675 390 705 384 734 379C763 373 763 373 778 370Z"/>
<path id="z64104d16" d="M781 693C783 660 784 629 786 600C787 574 787 574 788 561C789 533 791 506 793 482C795 455 795 455 796 441C798 388 811 391 778 370C765 362 728 365 734 379C740 389 746 414 745 457C744 482 744 482 744 494C743 514 742 541 742 573C741 597 741 597 741 609C740 635 740 666 740 700C740 714 781 707 781 693Z"/>
<path id="z64104d17" d="M793 482C854 466 888 458 892 455C896 450 898 445 895 441C890 434 880 429 865 427C848 423 826 431 796 441C762 452 762 452 745 457C721 464 693 465 666 470C645 473 643 480 658 488C689 504 718 500 744 494C777 486 777 486 793 482Z"/>
<path id="z64104d18" d="M786 600C812 594 840 587 869 582C889 577 900 573 903 571C907 566 908 561 906 557C902 550 892 545 877 542C859 538 830 549 788 561C757 569 757 569 742 573C719 578 695 578 671 582C651 584 647 592 662 601C683 614 710 615 741 609C771 603 771 603 786 600Z"/>
<path id="z64104d19" d="M740 700C697 707 652 713 604 721C597 722 598 739 604 743C620 755 638 758 658 753C735 732 840 722 970 722C980 721 988 719 991 714C994 707 990 699 981 692C947 667 910 665 870 676C844 682 814 687 781 693C754 698 754 698 740 700Z"/>
<defs>
	<clipPath id="z64104c1"><use xlink:href="#z64104d1"/></clipPath>
	<clipPath id="z64104c2"><use xlink:href="#z64104d2"/></clipPath>
	<clipPath id="z64104c3"><use xlink:href="#z64104d3"/></clipPath>
	<clipPath id="z64104c4"><use xlink:href="#z64104d4"/></clipPath>
	<clipPath id="z64104c5"><use xlink:href="#z64104d5"/></clipPath>
	<clipPath id="z64104c6"><use xlink:href="#z64104d6"/></clipPath>
	<clipPath id="z64104c7"><use xlink:href="#z64104d7"/></clipPath>
	<clipPath id="z64104c8"><use xlink:href="#z64104d8"/></clipPath>
	<clipPath id="z64104c9"><use xlink:href="#z64104d9"/></clipPath>
	<clipPath id="z64104c10"><use xlink:href="#z64104d10"/></clipPath>
	<clipPath id="z64104c11"><use xlink:href="#z64104d11"/></clipPath>
	<clipPath id="z64104c12"><use xlink:href="#z64104d12"/></clipPath>
	<clipPath id="z64104c13"><use xlink:href="#z64104d13"/></clipPath>
	<clipPath id="z64104c14"><use xlink:href="#z64104d14"/></clipPath>
	<clipPath id="z64104c15"><use xlink:href="#z64104d15"/></clipPath>
	<clipPath id="z64104c16"><use xlink:href="#z64104d16"/></clipPath>
	<clipPath id="z64104c17"><use xlink:href="#z64104d17"/></clipPath>
	<clipPath id="z64104c18"><use xlink:href="#z64104d18"/></clipPath>
	<clipPath id="z64104c19"><use xlink:href="#z64104d19"/></clipPath>
</defs>
<path style="--d:1s;" pathLength="3333" clip-path="url(#z64104c1)" d="M121 255L528 197"/>
<path style="--d:2s;" pathLength="3333" clip-path="url(#z64104c2)" d="M206 130L254 157L286 345"/>
<path style="--d:3s;" pathLength="3333" clip-path="url(#z64104c3)" d="M383 60L423 107L376 304"/>
<path style="--d:4s;" pathLength="3333" clip-path="url(#z64104c4)" d="M292 331L413 313"/>
<path style="--d:5s;" pathLength="3333" clip-path="url(#z64104c5)" d="M151 425L181 445L218 538"/>
<path style="--d:6s;" pathLength="3333" clip-path="url(#z64104c6)" d="M197 431L425 380L458 411L426 468"/>
<path style="--d:7s;" pathLength="3333" clip-path="url(#z64104c7)" d="M224 518L453 477"/>
<path style="--d:8s;" pathLength="3333" clip-path="url(#z64104c8)" d="M199 598L457 549"/>
<path style="--d:9s;" pathLength="3333" clip-path="url(#z64104c9)" d="M61 716L126 724L439 636L499 637"/>
<path style="--d:10s;" pathLength="3333" clip-path="url(#z64104c10)" d="M276 372L313 400L316 430L288 705L211 854L123 928"/>
<path style="--d:11s;" pathLength="3333" clip-path="url(#z64104c11)" d="M371 718L475 814"/>
<path style="--d:12s;" pathLength="3333" clip-path="url(#z64104c12)" d="M624 56L660 112L493 341"/>
<path style="--d:13s;" pathLength="3333" clip-path="url(#z64104c13)" d="M564 290L590 439L571 929"/>
<path style="--d:14s;" pathLength="3333" clip-path="url(#z64104c14)" d="M715 170L821 262"/>
<path style="--d:15s;" pathLength="3333" clip-path="url(#z64104c15)" d="M638 362L927 320"/>
<path style="--d:16s;" pathLength="3333" clip-path="url(#z64104c16)" d="M741 373L771 399L759 705"/>
<path style="--d:17s;" pathLength="3333" clip-path="url(#z64104c17)" d="M657 477L889 447"/>
<path style="--d:18s;" pathLength="3333" clip-path="url(#z64104c18)" d="M662 591L900 563"/>
<path style="--d:19s;" pathLength="3333" clip-path="url(#z64104c19)" d="M605 730L889 697L985 705"/>
</svg>