<!--
AnimCJK 2016-2019 Copyright Francois Mizessyn - https://github.com/parsimonhi/animCJK
Derived from:
    MakeMeAHanzi project - https://github.com/skishore/makemeahanzi
    Arphic PL KaitiM GB font
    Arphic PL UKai font
You can redistribute and/or modify this file under the terms of the Arphic Public License
as published by Arphic Technology Co., Ltd.
You should have received a copy of this license along with this file.
If not, see http://ftp.gnu.org/non-gnu/chinese-fonts-truetype/LICENSE.
-->
<svg id="z64104" class="acjk" version="1.1" viewBox="0 0 1024 1024" xmlns="http://www.w3.org/2000/svg" xmlns:xlink="http://www.w3.org/1999/xlink">
<style>
<![CDATA[
@keyframes zk {
	to {
		stroke-dashoffset:0;
	}
}
svg.acjk path[clip-path] {
	--t:0.8s;
	animation:zk var(--t) linear forwards var(--d);
	stroke-dasharray:3337;
	stroke-dashoffset:3339;
	stroke-width:128;
	stroke-linecap:round;
	fill:none;
	stroke:#000;
}
svg.acjk path[id] {fill:#ccc;}
]]>
</style>
<path id="z64104d1" d="M420 224Q472 214 519 207Q526 208 534 197Q535 188 516 180Q495 165 430 184C397 194 397 194 380 199Q364 202 353 206Q319 215 286 222C259 227 259 227 245 230Q205 233 127 249Q103 252 122 266Q146 284 182 276Q213 267 252 260C277 255 277 255 289 252Q329 242 376 232C405 227 405 227 420 224Z"/>
<path id="z64104d2" d="M286 222Q280 174 283 157Q287 141 275 133Q262 126 237 119Q219 116 204 126Q195 135 209 144Q228 163 245 230C250 250 250 250 252 260Q273 341 278 349Q284 356 290 350Q291 347 293 341C296 334 295 326 295 318Q295 294 289 252C287 232 287 232 286 222Z"/>
<path id="z64104d3" d="M400 301Q410 261 420 224C427 197 427 197 430 184Q431 165 456 105Q460 96 446 82Q421 63 402 56Q389 52 382 57Q375 61 379 75Q391 96 389 110Q386 153 380 199C377 221 377 221 376 232Q370 263 365 300C363 311 398 312 400 301Z"/>
<path id="z64104d4" d="M293 341Q300 342 310 341Q343 334 412 326Q419 325 420 319Q420 313 400 301C391 294 377 298 365 300C364 300 364 300 364 300Q325 310 295 318C287 320 285 341 293 341Z"/>
<path id="z64104d5" d="M192 423Q185 419 156 419Q146 418 144 422Q140 428 149 439Q170 467 190 514Q194 529 206 537Q222 552 225 539Q226 535 225 529C222 514 222 514 221 506Q209 466 205 448C203 439 201 426 192 423Z"/>
<path id="z64104d6" d="M451 466Q470 426 490 416Q503 403 491 389Q479 379 440 360Q427 354 410 361Q374 376 341 388C302 399 302 399 283 404Q238 414 192 423C183 425 196 451 205 448Q226 439 288 426C325 417 325 417 344 412Q407 391 421 402Q424 405 413 459C410 472 445 478 451 466Z"/>
<path id="z64104d7" d="M337 506Q386 496 456 486Q463 485 464 479Q464 475 451 466C441 458 426 456 413 459Q409 459 407 460Q370 470 338 479C307 487 307 487 292 491Q253 498 221 506C213 508 217 529 225 529Q231 530 239 528Q260 521 292 515C322 509 322 509 337 506Z"/>
<path id="z64104d8" d="M328 599Q371 586 420 573Q451 563 457 559Q463 552 459 545Q452 536 429 532Q408 529 333 558C304 568 304 568 289 573Q250 582 209 589Q179 596 202 608Q233 624 281 612Q282 611 285 611C314 603 314 603 328 599Z"/>
<path id="z64104d9" d="M314 689Q390 667 491 648Q506 645 506 638Q507 626 490 618Q463 608 442 615Q373 634 322 650C292 659 292 659 277 663Q150 694 71 707Q58 708 56 717Q55 727 69 737Q108 761 145 746Q212 719 266 703C298 694 298 694 314 689Z"/>
<path id="z64104d10" d="M266 703Q256 734 243 768Q218 826 163 882Q147 898 130 913Q118 923 115 929Q114 936 124 935Q160 935 227 862Q287 796 314 689C319 663 319 663 322 650Q322 647 323 644Q326 622 328 599C331 572 331 572 333 558Q334 533 337 506C338 488 338 488 338 479Q339 457 340 434Q341 421 344 412C346 404 347 394 341 388Q337 384 332 382Q290 361 278 363Q260 366 274 385Q278 394 283 404C286 419 286 419 288 426Q291 438 291 452Q292 468 292 491C292 507 292 507 292 515Q291 540 289 573C286 598 286 598 285 611Q282 636 277 663C270 690 270 690 266 703Z"/>
<path id="z64104d11" d="M388 753Q413 778 442 810Q452 822 467 822Q476 822 481 811Q485 799 480 773Q473 740 387 712Q374 708 368 709Q364 713 364 724Q365 734 388 753Z"/>
<path id="z64104d12" d="M570 286Q633 211 665 164Q681 136 696 122Q705 113 701 100Q697 90 671 68Q646 52 630 52Q612 53 620 74Q636 105 571 218Q540 267 498 324Q489 334 487 339Q484 349 496 347Q499 347 539 317C560 296 560 296 570 286Z"/>
<path id="z64104d13" d="M604 721Q603 439 613 368Q620 340 601 319Q583 300 570 286C561 275 534 303 539 317Q543 330 550 340Q566 373 574 462Q565 669 559 709Q532 854 533 858Q540 907 561 928Q579 944 591 917Q606 877 605 830Q604 784 604 743C604 728 604 728 604 721Z"/>
<path id="z64104d14" d="M738 212Q760 233 786 257Q799 270 814 269Q824 268 829 255Q833 242 825 213Q816 186 733 166Q718 162 712 165Q708 169 709 181Q712 191 738 212Z"/>
<path id="z64104d15" d="M778 370Q922 336 927 332Q934 325 931 318Q924 308 899 302Q875 298 785 328Q716 344 651 352Q620 358 642 372Q678 393 728 379Q729 379 734 379C763 373 763 373 778 370Z"/>
<path id="z64104d16" d="M781 693Q784 644 786 600C787 574 787 574 788 561Q789 519 793 482C795 455 795 455 796 441Q799 390 788 378Q782 374 778 370C767 359 727 366 734 379Q743 394 745 457C744 482 744 482 744 494Q743 525 742 573C741 597 741 597 741 609Q740 649 740 700C740 714 781 707 781 693Z"/>
<path id="z64104d17" d="M793 482Q886 460 892 455Q899 448 895 441Q888 432 865 427Q840 423 796 441C762 452 762 452 745 457Q708 464 666 470Q636 476 658 488Q692 506 737 495Q738 494 744 494C777 486 777 486 793 482Z"/>
<path id="z64104d18" d="M786 600Q826 590 869 582Q899 575 903 571Q910 564 906 557Q900 548 877 542Q850 538 788 561C757 569 757 569 742 573Q708 577 671 582Q641 586 662 601Q695 619 741 609C771 603 771 603 786 600Z"/>
<path id="z64104d19" d="M740 700Q676 709 604 721C597 722 598 739 604 743Q629 761 658 753Q775 722 970 722Q986 721 991 714Q995 704 981 692Q930 656 870 676Q831 682 781 693C754 698 754 698 740 700Z"/>
<defs>
	<clipPath id="z64104c1"><use xlink:href="#z64104d1"/></clipPath>
	<clipPath id="z64104c2"><use xlink:href="#z64104d2"/></clipPath>
	<clipPath id="z64104c3"><use xlink:href="#z64104d3"/></clipPath>
	<clipPath id="z64104c4"><use xlink:href="#z64104d4"/></clipPath>
	<clipPath id="z64104c5"><use xlink:href="#z64104d5"/></clipPath>
	<clipPath id="z64104c6"><use xlink:href="#z64104d6"/></clipPath>
	<clipPath id="z64104c7"><use xlink:href="#z64104d7"/></clipPath>
	<clipPath id="z64104c8"><use xlink:href="#z64104d8"/></clipPath>
	<clipPath id="z64104c9"><use xlink:href="#z64104d9"/></clipPath>
	<clipPath id="z64104c10"><use xlink:href="#z64104d10"/></clipPath>
	<clipPath id="z64104c11"><use xlink:href="#z64104d11"/></clipPath>
	<clipPath id="z64104c12"><use xlink:href="#z64104d12"/></clipPath>
	<clipPath id="z64104c13"><use xlink:href="#z64104d13"/></clipPath>
	<clipPath id="z64104c14"><use xlink:href="#z64104d14"/></clipPath>
	<clipPath id="z64104c15"><use xlink:href="#z64104d15"/></clipPath>
	<clipPath id="z64104c16"><use xlink:href="#z64104d16"/></clipPath>
	<clipPath id="z64104c17"><use xlink:href="#z64104d17"/></clipPath>
	<clipPath id="z64104c18"><use xlink:href="#z64104d18"/></clipPath>
	<clipPath id="z64104c19"><use xlink:href="#z64104d19"/></clipPath>
</defs>
<path style="--d:1s;" pathLength="3333" clip-path="url(#z64104c1)" d="M122 256L524 195"/>
<path style="--d:2s;" pathLength="3333" clip-path="url(#z64104c2)" d="M206 132L255 158L284 344"/>
<path style="--d:3s;" pathLength="3333" clip-path="url(#z64104c3)" d="M385 59L422 107L380 300"/>
<path style="--d:4s;" pathLength="3333" clip-path="url(#z64104c4)" d="M302 334L415 317"/>
<path style="--d:5s;" pathLength="3333" clip-path="url(#z64104c5)" d="M151 427L177 441L217 539"/>
<path style="--d:6s;" pathLength="3333" clip-path="url(#z64104c6)" d="M201 428L418 378L459 409L433 462"/>
<path style="--d:7s;" pathLength="3333" clip-path="url(#z64104c7)" d="M228 513L455 477"/>
<path style="--d:8s;" pathLength="3333" clip-path="url(#z64104c8)" d="M199 597L456 551"/>
<path style="--d:9s;" pathLength="3333" clip-path="url(#z64104c9)" d="M64 718L119 725L499 632"/>
<path style="--d:10s;" pathLength="3333" clip-path="url(#z64104c10)" d="M274 369L314 409L293 685L235 822L123 928"/>
<path style="--d:11s;" pathLength="3333" clip-path="url(#z64104c11)" d="M371 714L438 764L469 817"/>
<path style="--d:12s;" pathLength="3333" clip-path="url(#z64104c12)" d="M623 58L659 115L493 340"/>
<path style="--d:13s;" pathLength="3333" clip-path="url(#z64104c13)" d="M572 298L590 465L568 929"/>
<path style="--d:14s;" pathLength="3333" clip-path="url(#z64104c14)" d="M716 174L793 221L819 263"/>
<path style="--d:15s;" pathLength="3333" clip-path="url(#z64104c15)" d="M639 361L926 318"/>
<path style="--d:16s;" pathLength="3333" clip-path="url(#z64104c16)" d="M742 386L770 419L752 696"/>
<path style="--d:17s;" pathLength="3333" clip-path="url(#z64104c17)" d="M659 480L889 443"/>
<path style="--d:18s;" pathLength="3333" clip-path="url(#z64104c18)" d="M665 592L900 561"/>
<path style="--d:19s;" pathLength="3333" clip-path="url(#z64104c19)" d="M610 728L987 702"/>
</svg>