<!--
AnimCJK 2016-2019 Copyright Francois Mizessyn, https://github.com/parsimonhi/animCJK
You can redistribute and/or modify these files under the terms of the GNU
Lesser General Public License as published by the Free Software Foundation,
either version 3 of the license, or (at your option) any later version. You
should have received a copy of this license (the file "LGPL.txt") along with
these files; if not, see <http://www.gnu.org/licenses/>.
-->
<svg id="z12393" class="acjk" version="1.1" viewBox="0 0 1024 1024" xmlns="http://www.w3.org/2000/svg" xmlns:xlink="http://www.w3.org/1999/xlink">
<style>
<![CDATA[
@keyframes zk {
	to {
		stroke-dashoffset:0;
	}
}
svg.acjk path[clip-path] {
	--t:0.8s;
	animation:zk var(--t) linear forwards var(--d);
	stroke-dasharray:3337;
	stroke-dashoffset:3339;
	stroke-width:128;
	stroke-linecap:round;
	fill:none;
	stroke:#000;
}
svg.acjk path[id] {fill:#ccc;}
]]>
</style>
<path id="z12393d1" d="M253 133C242 134 214 141 210 151C205 162 216 173 227 176C241 179 254 189 263 202C274 221 280 242 288 263C319 344 350 426 380 508C387 526 432 489 425 471C391 370 335 195 335 166C335 132 276 131 253 133Z"/>
<path id="z12393d2" d="M682 225C662 226 653 238 662 247C681 264 663 287 657 292C596 341 531 386 470 436C453 449 441 457 425 471C395 496 395 496 380 508C362 522 347 537 333 552C298 586 264 622 243 667C222 710 221 765 246 808C262 837 290 857 321 870C373 891 430 896 486 900C552 904 618 903 683 899C710 896 737 896 764 889C774 886 787 881 792 870C795 859 791 848 784 842C769 829 753 818 735 812C717 805 697 810 679 816C621 832 561 832 501 834C448 835 395 832 344 816C325 810 307 799 296 782C285 764 283 742 286 723C290 683 315 649 342 621C390 570 442 529 499 488C563 440 633 394 703 353C724 340 754 329 772 324C785 320 793 308 790 295C784 277 765 261 752 251C730 235 712 223 682 225Z"/>
<path id="z12393d3" d="M749 150C740 151 737 166 745 170C759 181 774 190 786 203C807 225 821 253 839 277C846 285 861 289 869 280C880 268 877 251 875 237C872 215 860 193 840 182C817 168 791 160 765 152C760 151 755 151 749 150Z"/>
<path id="z12393d4" d="M817 82C808 81 805 97 813 101C828 112 845 121 856 136C877 158 891 185 908 210C916 219 932 220 939 209C950 195 945 176 942 160C937 141 926 122 907 113C883 98 855 89 828 82C824 82 821 81 817 82Z"/>
<defs>
	<clipPath id="z12393c1"><use xlink:href="#z12393d1"/></clipPath>
	<clipPath id="z12393c2"><use xlink:href="#z12393d2"/></clipPath>
	<clipPath id="z12393c3"><use xlink:href="#z12393d3"/></clipPath>
	<clipPath id="z12393c4"><use xlink:href="#z12393d4"/></clipPath>
</defs>
<path style="--d:1s;" pathLength="3333" clip-path="url(#z12393c1)" d="M 221,157 299,181 407,492"/>
<path style="--d:2s;" pathLength="3333" clip-path="url(#z12393c2)" d="M 675,242 763,289 408,522 289,647 259,718 262,782 286,818 410,861 775,865"/>
<path style="--d:3s;" pathLength="3333" clip-path="url(#z12393c3)" d="M 749,159 833,218 849,282"/>
<path style="--d:4s;" pathLength="3333" clip-path="url(#z12393c4)" d="M 818,89 897,150 919,212"/>
</svg>
