<!--
AnimCJK 2016-2018 Copyright Francois Mizessyn, https://github.com/parsimonhi/animCJK
You can redistribute and/or modify these files under the terms of the GNU
Lesser General Public License as published by the Free Software Foundation,
either version 3 of the license, or (at your option) any later version. You
should have received a copy of this license (the file "LGPL.txt") along with
these files; if not, see <http://www.gnu.org/licenses/>.
-->
<svg id="z12398" class="acjk" version="1.1" viewBox="0 0 1024 1024" xmlns="http://www.w3.org/2000/svg" xmlns:xlink="http://www.w3.org/1999/xlink">
<style>
<![CDATA[
@keyframes z12398k {
	from {
		stroke:#c00;
		stroke-dashoffset:3334;
	}
	75% {
		stroke:#c00;
		stroke-dashoffset:0;
	}
	to {
		stroke:#000;
	}
}
#z12398 path[clip-path] {
	animation:z12398k 1s linear both;
	stroke-dasharray:3334;
	stroke-width:128;
	stroke-linecap:round;
	fill:none;
}
#z12398 path[clip-path="url(#z12398c1a)"] {animation-delay:1s;}
#z12398 path[clip-path="url(#z12398c1b)"] {animation-delay:1s;}
#z12398 path {fill:#ccc;}
]]>
</style>
<path id="z12398d1a" d="M 498,230 C 491,230 488,237 491,242 499,262 502,286 502,305 501,335 498,358 495,385 L 558,385 C 561,355 570,324 561,294 555,273 541,253 523,238 516,233 507,230 498,230 Z"/>
<path id="z12398d1b" d="M 590,168 586,168 C 459,168 331,211 235,295 195,329 161,370 135,416 110,457 95,504 90,552 87,614 97,677 123,733 136,759 152,785 174,804 192,820 215,831 240,832 281,836 324,823 357,799 390,774 419,745 441,710 489,638 517,554 539,471 546,440 558,385 558,385 L 495,385 C 485,438 469,490 452,541 431,602 402,663 357,711 335,735 307,758 273,762 248,766 221,757 202,740 174,715 161,678 154,642 146,602 146,561 153,521 163,480 184,442 208,407 246,351 301,310 360,277 411,249 467,233 524,225 573,219 624,220 670,238 721,258 771,287 802,333 825,371 845,412 851,457 857,512 846,567 826,619 802,675 762,724 714,762 670,798 620,826 568,851 560,856 552,867 557,876 563,886 575,885 584,882 608,875 632,865 655,855 724,825 790,785 841,730 887,679 913,613 921,546 927,504 927,461 915,420 902,367 876,317 840,276 785,213 703,178 621,170 611,169 601,168 590,168 Z"/>
<defs>
	<clipPath id="z12398c1a"><use xlink:href="#z12398d1a"/></clipPath>
	<clipPath id="z12398c1b"><use xlink:href="#z12398d1b"/></clipPath>
</defs>
<path pathLength="3333" clip-path="url(#z12398c1a)" d="M 505,239 540,274 468,605 337,772 202,791 125,651 132,491 193,384 330,264 480,207 655,199 794,266 888,446 858,668 706,804 577,864"/>
<path pathLength="3333" clip-path="url(#z12398c1b)" d="M 505,309 540,274 468,605 337,772 202,791 125,651 132,491 193,384 330,264 480,207 655,199 794,266 888,446 858,668 706,804 577,864"/>
</svg>
