<!--
AnimCJK 2016-2018 Copyright Francois Mizessyn, https://github.com/parsimonhi/animCJK
You can redistribute and/or modify these files under the terms of the GNU
Lesser General Public License as published by the Free Software Foundation,
either version 3 of the license, or (at your option) any later version. You
should have received a copy of this license (the file "LGPL.txt") along with
these files; if not, see <http://www.gnu.org/licenses/>.
-->
<svg id="z12404" class="acjk" version="1.1" viewBox="0 0 1024 1024" xmlns="http://www.w3.org/2000/svg" xmlns:xlink="http://www.w3.org/1999/xlink">
<style>
<![CDATA[
@keyframes z12404k {
	from {
		stroke:#c00;
		stroke-dashoffset:3334;
	}
	75% {
		stroke:#c00;
		stroke-dashoffset:0;
	}
	to {
		stroke:#000;
	}
}
#z12404 path[clip-path] {
	animation:z12404k 1s linear both;
	stroke-dasharray:3334;
	stroke-width:128;
	stroke-linecap:round;
	fill:none;
}
#z12404 path[clip-path="url(#z12404c1)"] {animation-delay:1s;}
#z12404 path[clip-path="url(#z12404c2)"] {animation-delay:2s;}
#z12404 path {fill:#ccc;}
]]>
</style>
<path id="z12404d1" d="M 393,148 C 380,149 371,160 359,165 317,194 268,218 216,219 196,220 175,218 154,219 147,220 142,228 145,234 149,245 162,249 171,253 206,267 245,271 281,261 304,255 326,246 347,236 288,344 231,454 194,573 175,637 166,706 184,772 200,828 248,873 304,889 339,900 377,898 413,893 479,882 541,847 581,793 625,735 648,665 663,595 683,504 695,411 704,319 706,298 707,276 709,255 740,366 781,475 849,569 862,586 875,604 891,619 902,626 917,621 923,610 931,596 936,579 935,563 934,540 918,522 904,506 875,475 852,440 830,404 789,336 759,262 736,187 731,174 721,163 709,157 698,151 684,145 672,151 661,159 664,175 664,186 662,277 654,368 636,457 622,531 602,605 573,675 549,725 516,773 468,803 434,823 394,830 355,827 322,826 286,819 262,794 240,771 228,738 226,705 222,651 240,597 260,547 287,479 320,413 358,349 378,316 398,283 421,252 433,237 447,225 461,213 467,208 467,199 463,193 456,181 445,173 434,164 422,155 408,148 393,148 Z"/>
<path id="z12404d2" d="M 885,84 C 846,87 806,113 795,153 784,191 797,237 830,261 856,282 892,285 923,275 945,268 965,253 974,232 993,198 993,153 968,123 949,99 920,84 889,84 888,84 887,83 885,84 Z M 888,129 C 910,128 935,142 941,165 947,186 942,212 923,226 896,245 854,236 840,206 834,191 836,174 841,160 848,141 867,128 888,129 Z"/>
<defs>
	<clipPath id="z12404c1"><use xlink:href="#z12404d1"/></clipPath>
	<clipPath id="z12404c2"><use xlink:href="#z12404d2"/></clipPath>
</defs>
<path pathLength="3333" clip-path="url(#z12404c1)" d="M 160,236 269,239 386,182 417,200 225,544 203,758 312,875 553,805 653,536 689,176 907,614"/>
<path pathLength="3333" clip-path="url(#z12404c2)" d="M 888,103 816,141 820,221 888,263 966,220 963,142 888,103.1"/>
</svg>
