<!--
AnimCJK 2016-2018 Copyright Francois Mizessyn, https://github.com/parsimonhi/animCJK
You can redistribute and/or modify these files under the terms of the GNU
Lesser General Public License as published by the Free Software Foundation,
either version 3 of the license, or (at your option) any later version. You
should have received a copy of this license (the file "LGPL.txt") along with
these files; if not, see <http://www.gnu.org/licenses/>.
-->
<svg id="z12409" class="acjk" version="1.1" viewBox="0 0 1024 1024" xmlns="http://www.w3.org/2000/svg" xmlns:xlink="http://www.w3.org/1999/xlink">
<style>
<![CDATA[
@keyframes z12409k {
	from {
		stroke:#c00;
		stroke-dashoffset:3334;
	}
	75% {
		stroke:#c00;
		stroke-dashoffset:0;
	}
	to {
		stroke:#000;
	}
}
#z12409 path[clip-path] {
	animation:z12409k 1s linear both;
	stroke-dasharray:3334;
	stroke-width:128;
	stroke-linecap:round;
	fill:none;
}
#z12409 path[clip-path="url(#z12409c1)"] {animation-delay:1s;}
#z12409 path[clip-path="url(#z12409c2)"] {animation-delay:2s;}
#z12409 path[clip-path="url(#z12409c3)"] {animation-delay:3s;}
#z12409 path {fill:#ccc;}
]]>
</style>
<path id="z12409d1" d="M 371,290 C 330,291 294,313 259,333 210,363 166,399 118,429 105,433 92,426 80,422 71,421 61,429 64,439 65,459 81,474 94,488 104,498 116,508 130,510 143,511 156,503 164,493 174,479 184,465 197,453 241,410 291,372 345,344 357,339 371,334 384,338 397,344 406,355 418,364 491,428 563,495 643,550 730,612 822,665 909,728 920,734 938,734 946,721 954,705 950,686 944,670 932,643 907,625 881,612 810,573 733,544 666,496 586,441 514,374 436,315 417,301 395,289 371,290 Z"/>
<path id="z12409d2" d="M 739,220 C 730,221 727,236 735,240 749,251 764,260 776,273 797,295 811,323 829,347 836,355 851,359 859,350 870,338 867,321 865,307 862,285 850,263 830,252 807,238 781,230 755,222 750,221 745,221 739,220 Z"/>
<path id="z12409d3" d="M 807,152 C 798,151 795,167 803,171 818,182 835,191 846,206 867,228 881,255 898,280 906,289 922,290 929,279 940,265 935,246 932,230 927,211 916,192 897,183 873,168 846,160 819,153 815,152 811,152 807,152 Z"/>
<defs>
	<clipPath id="z12409c1"><use xlink:href="#z12409d1"/></clipPath>
	<clipPath id="z12409c2"><use xlink:href="#z12409d2"/></clipPath>
	<clipPath id="z12409c3"><use xlink:href="#z12409d3"/></clipPath>
</defs>
<path pathLength="3333" clip-path="url(#z12409c1)" d="M 75,438 138,469 375,309 940,710"/>
<path pathLength="3333" clip-path="url(#z12409c2)" d="M 744,234 833,278 849,342"/>
<path pathLength="3333" clip-path="url(#z12409c3)" d="M 813,164 897,210 919,272"/>
</svg>
