<!--
AnimCJK 2016-2018 Copyright Francois Mizessyn, https://github.com/parsimonhi/animCJK
You can redistribute and/or modify these files under the terms of the GNU
Lesser General Public License as published by the Free Software Foundation,
either version 3 of the license, or (at your option) any later version. You
should have received a copy of this license (the file "LGPL.txt") along with
these files; if not, see <http://www.gnu.org/licenses/>.
-->
<svg id="z12436" class="acjk" version="1.1" viewBox="0 0 1024 1024" xmlns="http://www.w3.org/2000/svg" xmlns:xlink="http://www.w3.org/1999/xlink">
<style>
<![CDATA[
@keyframes z12436k {
	from {
		stroke:#c00;
		stroke-dashoffset:3334;
	}
	75% {
		stroke:#c00;
		stroke-dashoffset:0;
	}
	to {
		stroke:#000;
	}
}
#z12436 path[clip-path] {
	animation:z12436k 1s linear both;
	stroke-dasharray:3334;
	stroke-width:128;
	stroke-linecap:round;
	fill:none;
}
#z12436 path[clip-path="url(#z12436c1)"] {animation-delay:1s;}
#z12436 path[clip-path="url(#z12436c2)"] {animation-delay:2s;}
#z12436 path[clip-path="url(#z12436c3)"] {animation-delay:3s;}
#z12436 path[clip-path="url(#z12436c4)"] {animation-delay:4s;}
#z12436 path {fill:#ccc;}
]]>
</style>
<path id="z12436d1" d="M 406,101 C 399,101 389,103 388,111 390,121 400,124 406,130 444,155 485,176 527,193 562,207 598,219 635,228 650,229 668,224 674,209 680,192 669,174 656,164 640,150 619,142 597,142 544,136 491,125 439,108 429,104 418,101 406,101 Z"/>
<path id="z12436d2" d="M 581,343 C 514,344 450,367 386,385 345,398 304,415 261,416 243,415 226,410 208,411 199,414 200,426 206,431 224,453 248,472 277,475 299,478 321,470 341,460 373,443 406,427 440,416 490,397 543,383 597,381 619,382 642,391 655,410 673,436 672,469 671,500 667,576 640,650 604,717 572,778 532,834 492,890 485,898 476,907 478,919 482,928 495,927 502,922 513,913 521,901 531,892 602,818 666,737 710,644 734,595 751,540 747,485 743,443 726,400 693,372 662,347 620,342 581,343 Z"/>
<path id="z12436d3" d="M 746,255 C 739,256 729,256 727,264 725,273 735,277 740,280 757,287 773,296 786,308 807,325 824,346 843,365 852,372 867,374 874,364 883,352 878,335 874,322 867,301 854,281 833,274 805,263 776,258 747,255 L 746,255 Z"/>
<path id="z12436d4" d="M 795,176 C 788,176 781,181 782,188 783,197 793,198 799,202 811,207 823,213 833,221 858,240 879,264 900,287 909,295 927,294 932,281 939,266 932,249 926,235 918,216 904,198 884,192 857,182 829,178 800,176 798,176 796,176 795,176 Z"/>
<defs>
	<clipPath id="z12436c1"><use xlink:href="#z12436d1"/></clipPath>
	<clipPath id="z12436c2"><use xlink:href="#z12436d2"/></clipPath>
	<clipPath id="z12436c3"><use xlink:href="#z12436d3"/></clipPath>
	<clipPath id="z12436c4"><use xlink:href="#z12436d4"/></clipPath>
</defs>
<path pathLength="3333" clip-path="url(#z12436c1)" d="M 400,113 654,205"/>
<path pathLength="3333" clip-path="url(#z12436c2)" d="M 213,423 286,450 494,372 610,360 684,394 718,462 672,690 492,911"/>
<path pathLength="3333" clip-path="url(#z12436c3)" d="M 741,269 836,297 863,357.7"/>
<path pathLength="3333" clip-path="url(#z12436c4)" d="M 797,188 888,219 920,276.7"/>
</svg>
