<!--
AnimCJK 2016-2019 Copyright Francois Mizessyn, https://github.com/parsimonhi/animCJK
You can redistribute and/or modify these files under the terms of the GNU
Lesser General Public License as published by the Free Software Foundation,
either version 3 of the license, or (at your option) any later version. You
should have received a copy of this license (the file "LGPL.txt") along with
these files; if not, see <http://www.gnu.org/licenses/>.
-->
<svg id="z12436" class="acjk" version="1.1" viewBox="0 0 1024 1024" xmlns="http://www.w3.org/2000/svg" xmlns:xlink="http://www.w3.org/1999/xlink">
<style>
<![CDATA[
@keyframes zk {
	to {
		stroke-dashoffset:0;
	}
}
svg.acjk path[clip-path] {
	--t:0.8s;
	animation:zk var(--t) linear forwards var(--d);
	stroke-dasharray:3337;
	stroke-dashoffset:3339;
	stroke-width:128;
	stroke-linecap:round;
	fill:none;
	stroke:#000;
}
svg.acjk path[id] {fill:#ccc;}
]]>
</style>
<path id="z12436d1" d="M406 101C399 101 389 103 388 111C390 121 400 124 406 130C444 155 485 176 527 193C562 207 598 219 635 228C650 229 668 224 674 209C680 192 669 174 656 164C640 150 619 142 597 142C544 136 491 125 439 108C429 104 418 101 406 101Z"/>
<path id="z12436d2" d="M581 343C514 344 450 367 386 385C345 398 304 415 261 416C243 415 226 410 208 411C199 414 200 426 206 431C224 453 248 472 277 475C299 478 321 470 341 460C373 443 406 427 440 416C490 397 543 383 597 381C619 382 642 391 655 410C673 436 672 469 671 500C667 576 640 650 604 717C572 778 532 834 492 890C485 898 476 907 478 919C482 928 495 927 502 922C513 913 521 901 531 892C602 818 666 737 710 644C734 595 751 540 747 485C743 443 726 400 693 372C662 347 620 342 581 343Z"/>
<path id="z12436d3" d="M746 255C739 256 729 256 727 264C725 273 735 277 740 280C757 287 773 296 786 308C807 325 824 346 843 365C852 372 867 374 874 364C883 352 878 335 874 322C867 301 854 281 833 274C805 263 776 258 747 255C746 255 746 255 746 255Z"/>
<path id="z12436d4" d="M795 176C788 176 781 181 782 188C783 197 793 198 799 202C811 207 823 213 833 221C858 240 879 264 900 287C909 295 927 294 932 281C939 266 932 249 926 235C918 216 904 198 884 192C857 182 829 178 800 176C798 176 796 176 795 176Z"/>
<defs>
	<clipPath id="z12436c1"><use xlink:href="#z12436d1"/></clipPath>
	<clipPath id="z12436c2"><use xlink:href="#z12436d2"/></clipPath>
	<clipPath id="z12436c3"><use xlink:href="#z12436d3"/></clipPath>
	<clipPath id="z12436c4"><use xlink:href="#z12436d4"/></clipPath>
</defs>
<path style="--d:1s;" pathLength="3333" clip-path="url(#z12436c1)" d="M 400,113 654,205"/>
<path style="--d:2s;" pathLength="3333" clip-path="url(#z12436c2)" d="M 213,423 286,450 494,372 610,360 684,394 718,462 672,690 492,911"/>
<path style="--d:3s;" pathLength="3333" clip-path="url(#z12436c3)" d="M 741,269 836,297 863,357.7"/>
<path style="--d:4s;" pathLength="3333" clip-path="url(#z12436c4)" d="M 797,188 888,219 920,276.7"/>
</svg>
