<!--
AnimCJK 2016-2019 Copyright Francois Mizessyn, https://github.com/parsimonhi/animCJK
You can redistribute and/or modify these files under the terms of the GNU
Lesser General Public License as published by the Free Software Foundation,
either version 3 of the license, or (at your option) any later version. You
should have received a copy of this license (the file "LGPL.txt") along with
these files; if not, see <http://www.gnu.org/licenses/>.
-->
<svg id="z12437" class="acjk" version="1.1" viewBox="0 0 1024 1024" xmlns="http://www.w3.org/2000/svg" xmlns:xlink="http://www.w3.org/1999/xlink">
<style>
<![CDATA[
@keyframes zk {
	to {
		stroke-dashoffset:0;
	}
}
svg.acjk path[clip-path] {
	--t:0.8s;
	animation:zk var(--t) linear forwards var(--d);
	stroke-dasharray:3337;
	stroke-dashoffset:3339;
	stroke-width:128;
	stroke-linecap:round;
	fill:none;
	stroke:#000;
}
svg.acjk path[id] {fill:#ccc;}
]]>
</style>
<path id="z12437d1" d="M470 465C425 466 382 482 339 495C310 503 280 515 251 521C228 527 206 530 183 534C178 536 170 538 170 545C171 556 180 562 188 568C199 575 210 581 222 583C238 584 251 573 266 569C302 555 338 542 373 529C410 516 448 508 487 509C499 510 513 512 521 523C531 536 528 554 527 569C519 634 492 693 464 751C453 773 443 796 427 816C424 822 417 827 411 823C400 819 391 811 380 806C372 801 364 795 355 795C349 795 343 800 343 807C344 818 355 823 359 831C376 853 390 878 403 902C407 910 411 920 421 921C431 923 438 915 444 908C474 870 495 827 514 783C532 738 551 693 563 646C573 611 579 575 574 538C570 516 559 496 540 483C519 469 495 465 470 465Z"/>
<path id="z12437d2" d="M382 270C376 269 370 275 371 281C374 291 383 298 384 309C388 326 382 343 377 359C365 398 349 436 335 474C312 535 288 596 263 655C250 682 238 710 224 738C216 755 202 769 197 788C191 808 195 831 207 849C209 853 213 859 219 858C231 857 237 846 241 836C267 773 294 710 319 646C341 592 363 537 382 482C395 445 410 408 428 373C434 364 441 354 444 343C448 324 440 305 427 291C417 279 401 269 384 270C383 270 383 269 382 270Z"/>
<path id="z12437d3" d="M620 390C611 390 607 402 612 410C617 419 627 423 634 431C683 471 727 517 755 575C771 606 782 641 793 675C796 685 805 695 816 696C831 697 846 686 847 671C857 643 849 613 836 587C819 552 799 516 767 491C723 453 675 421 627 391C624 391 623 390 620 390Z"/>
<defs>
	<clipPath id="z12437c1"><use xlink:href="#z12437d1"/></clipPath>
	<clipPath id="z12437c2"><use xlink:href="#z12437d2"/></clipPath>
	<clipPath id="z12437c3"><use xlink:href="#z12437d3"/></clipPath>
</defs>
<path style="--d:1s;" pathLength="3333" clip-path="url(#z12437c1)" d="M 188,547 225,555 432,495 496,491 537,510 560,583 429,879 357,803.7"/>
<path style="--d:2s;" pathLength="3333" clip-path="url(#z12437c2)" d="M 387,284 416,334 216,842.9"/>
<path style="--d:3s;" pathLength="3333" clip-path="url(#z12437c3)" d="M 624,404 771,527 824,675.7"/>
</svg>
