<!--
AnimCJK 2016-2019 Copyright Francois Mizessyn, https://github.com/parsimonhi/animCJK
You can redistribute and/or modify these files under the terms of the GNU
Lesser General Public License as published by the Free Software Foundation,
either version 3 of the license, or (at your option) any later version. You
should have received a copy of this license (the file "LGPL.txt") along with
these files; if not, see <http://www.gnu.org/licenses/>.
-->
<svg id="z12468" class="acjk" version="1.1" viewBox="0 0 1024 1024" xmlns="http://www.w3.org/2000/svg" xmlns:xlink="http://www.w3.org/1999/xlink">
<style>
<![CDATA[
@keyframes zk {
	to {
		stroke-dashoffset:0;
	}
}
svg.acjk path[clip-path] {
	--t:0.8s;
	animation:zk var(--t) linear forwards var(--d);
	stroke-dasharray:3337;
	stroke-dashoffset:3339;
	stroke-width:128;
	stroke-linecap:round;
	fill:none;
	stroke:#000;
}
svg.acjk path[id] {fill:#ccc;}
]]>
</style>
<path id="z12468d1" d="M721 248C720 248 720 248 719 248C675 251 635 268 592 276C482 299 368 301 255 306C163 311 206 337 241 361C260 374 283 381 305 379C336 377 367 372 398 366C477 352 555 330 635 327C652 327 671 326 684 338C695 347 693 362 691 374C688 409 680 443 674 477C665 522 640 620 626 672C618 696 698 704 702 679C712 630 744 526 759 481C775 436 795 391 827 354C833 347 829 337 824 330C811 310 793 294 775 279C759 266 742 253 722 248C721 248 721 248 721 248Z"/>
<path id="z12468d2" d="M626 672C573 676 522 690 469 696C383 706 296 714 209 715C181 716 201 742 209 751C228 771 256 781 283 781C333 780 380 766 428 756C475 747 523 741 571 740C617 739 673 745 708 733C735 723 733 691 702 679C678 670 651 672 626 672Z"/>
<path id="z12468d3" d="M789 140C780 141 777 156 785 160C799 171 814 180 826 193C847 215 861 243 879 267C886 275 901 279 909 270C920 258 917 241 915 227C912 205 900 183 880 172C857 158 831 150 805 142C800 141 795 141 789 140Z"/>
<path id="z12468d4" d="M857 72C848 71 845 87 853 91C868 102 885 111 896 126C917 148 931 175 948 200C956 209 972 210 979 199C990 185 985 166 982 150C977 131 966 112 947 103C923 88 895 79 868 72C864 72 861 71 857 72Z"/>
<defs>
	<clipPath id="z12468c1"><use xlink:href="#z12468d1"/></clipPath>
	<clipPath id="z12468c2"><use xlink:href="#z12468d2"/></clipPath>
	<clipPath id="z12468c3"><use xlink:href="#z12468d3"/></clipPath>
	<clipPath id="z12468c4"><use xlink:href="#z12468d4"/></clipPath>
</defs>
<path style="--d:1s;" pathLength="3333" clip-path="url(#z12468c1)" d="M 212,320 689,298 762,343 673,664"/>
<path style="--d:2s;" pathLength="3333" clip-path="url(#z12468c2)" d="M 211,725 722,708.4"/>
<path style="--d:3s;" pathLength="3333" clip-path="url(#z12468c3)" d="M 784,154 873,198 889,262"/>
<path style="--d:4s;" pathLength="3333" clip-path="url(#z12468c4)" d="M 853,84 937,130 959,192"/>
</svg>