<!--
AnimCJK 2016-2018 Copyright Francois Mizessyn, https://github.com/parsimonhi/animCJK
You can redistribute and/or modify these files under the terms of the GNU
Lesser General Public License as published by the Free Software Foundation,
either version 3 of the license, or (at your option) any later version. You
should have received a copy of this license (the file "LGPL.txt") along with
these files; if not, see <http://www.gnu.org/licenses/>.
-->
<svg id="z12462" class="acjk" version="1.1" viewBox="0 0 1024 1024" xmlns="http://www.w3.org/2000/svg" xmlns:xlink="http://www.w3.org/1999/xlink">
<style>
<![CDATA[
@keyframes z12462k {
	from {
		stroke:#c00;
		stroke-dashoffset:3334;
	}
	75% {
		stroke:#c00;
		stroke-dashoffset:0;
	}
	to {
		stroke:#000;
	}
}
#z12462 path[clip-path] {
	animation:z12462k 1s linear both;
	stroke-dasharray:3334;
	stroke-width:128;
	stroke-linecap:round;
	fill:none;
}
#z12462 path[clip-path="url(#z12462c1)"] {animation-delay:1s;}
#z12462 path[clip-path="url(#z12462c2)"] {animation-delay:2s;}
#z12462 path[clip-path="url(#z12462c3)"] {animation-delay:3s;}
#z12462 path[clip-path="url(#z12462c4)"] {animation-delay:4s;}
#z12462 path[clip-path="url(#z12462c5)"] {animation-delay:5s;}
#z12462 path {fill:#ccc;}
]]>
</style>
<path id="z12462d1" d="M 707,258 C 659,267 646,276 601,294 546,314 429,354 288,366 235,370 240,376 271,401 291,416 316,417 339,415 476,399 671,340 758,301 765,297 776,289 773,279 768,267 755,263 743,260 732,257 718,255 707,258 Z"/>
<path id="z12462d2" d="M 824,482 C 788,484 752,498 716,506 620,526 525,549 429,572 344,592 259,604 173,621 167,623 156,625 156,634 159,643 168,649 174,657 188,671 206,686 228,685 259,683 287,667 317,657 386,631 457,615 529,599 628,576 728,559 830,554 857,552 885,552 912,550 920,549 930,543 928,534 925,521 912,514 902,506 879,492 852,482 824,482 Z"/>
<path id="z12462d3" d="M 444,109 C 429,110 424,120 426,129 432,157 452,168 456,203 469,266 477,330 485,394 495,477 503,560 511,643 515,681 513,730 511,758 507,802 508,833 526,869 533,883 545,907 563,911 573,912 579,899 582,890 589,863 583,834 581,808 572,688 557,571 544,452 536,380 527,308 525,236 526,220 524,202 533,188 538,179 546,168 540,158 531,145 516,138 504,130 486,120 466,109 444,109 Z"/>
<path id="z12462d4" d="M 789,140 C 780,141 777,156 785,160 799,171 814,180 826,193 847,215 861,243 879,267 886,275 901,279 909,270 920,258 917,241 915,227 912,205 900,183 880,172 857,158 831,150 805,142 800,141 795,141 789,140 Z"/>
<path id="z12462d5" d="M 857,72 C 848,71 845,87 853,91 868,102 885,111 896,126 917,148 931,175 948,200 956,209 972,210 979,199 990,185 985,166 982,150 977,131 966,112 947,103 923,88 895,79 868,72 864,72 861,71 857,72 Z"/>
<defs>
	<clipPath id="z12462c1"><use xlink:href="#z12462d1"/></clipPath>
	<clipPath id="z12462c2"><use xlink:href="#z12462d2"/></clipPath>
	<clipPath id="z12462c3"><use xlink:href="#z12462d3"/></clipPath>
	<clipPath id="z12462c4"><use xlink:href="#z12462d4"/></clipPath>
	<clipPath id="z12462c5"><use xlink:href="#z12462d5"/></clipPath>
</defs>
<path pathLength="3333" clip-path="url(#z12462c1)" d="M 262,382 425,372 760,271"/>
<path pathLength="3333" clip-path="url(#z12462c2)" d="M 164,634 810,519 919,534"/>
<path pathLength="3333" clip-path="url(#z12462c3)" d="M 441,126 494,161 565,902"/>
<path pathLength="3333" clip-path="url(#z12462c4)" d="M 784,154 873,198 889,262"/>
<path pathLength="3333" clip-path="url(#z12462c5)" d="M 853,84 937,130 959,192"/>
</svg>