<!--
AnimCJK 2016-2019 Copyright Francois Mizessyn, https://github.com/parsimonhi/animCJK
You can redistribute and/or modify these files under the terms of the GNU
Lesser General Public License as published by the Free Software Foundation,
either version 3 of the license, or (at your option) any later version. You
should have received a copy of this license (the file "LGPL.txt") along with
these files; if not, see <http://www.gnu.org/licenses/>.
-->
<svg id="z12466" class="acjk" version="1.1" viewBox="0 0 1024 1024" xmlns="http://www.w3.org/2000/svg" xmlns:xlink="http://www.w3.org/1999/xlink">
<style>
<![CDATA[
@keyframes zk {
	to {
		stroke-dashoffset:0;
	}
}
svg.acjk path[clip-path] {
	--t:0.8s;
	animation:zk var(--t) linear forwards var(--d);
	stroke-dasharray:3337;
	stroke-dashoffset:3339;
	stroke-width:128;
	stroke-linecap:round;
	fill:none;
	stroke:#000;
}
svg.acjk path[id] {fill:#ccc;}
]]>
</style>
<path id="z12466d1" d="M325 129C325 155 323 180 315 205C289 276 272 313 243 365C214 416 181 460 138 507C106 541 125 541 153 526C185 506 247 454 288 396C303 374 303 374 311 363C319 350 354 288 363 275C382 241 390 221 420 198C439 183 446 150 358 113C319 96 325 122 325 129Z"/>
<path id="z12466d2" d="M803 292C776 291 748 303 722 310C638 332 531 360 311 363C298 363 275 394 288 396C313 402 334 407 359 411C402 417 451 414 530 404C565 399 565 399 583 397C693 382 744 380 818 379C904 376 905 359 893 339C880 318 849 293 803 292Z"/>
<path id="z12466d3" d="M530 404C525 413 525 423 527 434C537 470 520 521 511 557C498 610 478 698 344 886C305 940 337 936 375 900C436 842 471 801 510 733C537 684 554 639 575 582C588 548 594 521 625 485C647 459 647 437 583 397C568 388 537 387 530 404Z"/>
<path id="z12466d4" d="M789 140C780 141 777 156 785 160C799 171 814 180 826 193C847 215 861 243 879 267C886 275 901 279 909 270C920 258 917 241 915 227C912 205 900 183 880 172C857 158 831 150 805 142C800 141 795 141 789 140Z"/>
<path id="z12466d5" d="M857 72C848 71 845 87 853 91C868 102 885 111 896 126C917 148 931 175 948 200C956 209 972 210 979 199C990 185 985 166 982 150C977 131 966 112 947 103C923 88 895 79 868 72C864 72 861 71 857 72Z"/>
<defs>
	<clipPath id="z12466c1"><use xlink:href="#z12466d1"/></clipPath>
	<clipPath id="z12466c2"><use xlink:href="#z12466d2"/></clipPath>
	<clipPath id="z12466c3"><use xlink:href="#z12466d3"/></clipPath>
	<clipPath id="z12466c4"><use xlink:href="#z12466d4"/></clipPath>
	<clipPath id="z12466c5"><use xlink:href="#z12466d5"/></clipPath>
</defs>
<path style="--d:1s;" pathLength="3333" clip-path="url(#z12466c1)" d="M 337,119 376,175 309,315 238,423 135,528"/>
<path style="--d:2s;" pathLength="3333" clip-path="url(#z12466c2)" d="M 303,391 813,332 885,358"/>
<path style="--d:3s;" pathLength="3333" clip-path="url(#z12466c3)" d="M 540,411 585,470 508,683 341,916"/>
<path style="--d:4s;" pathLength="3333" clip-path="url(#z12466c4)" d="M 784,154 873,198 889,262"/>
<path style="--d:5s;" pathLength="3333" clip-path="url(#z12466c5)" d="M 853,84 937,130 959,192"/>
</svg>