<!--
AnimCJK 2016-2018 Copyright Francois Mizessyn, https://github.com/parsimonhi/animCJK
You can redistribute and/or modify these files under the terms of the GNU
Lesser General Public License as published by the Free Software Foundation,
either version 3 of the license, or (at your option) any later version. You
should have received a copy of this license (the file "LGPL.txt") along with
these files; if not, see <http://www.gnu.org/licenses/>.
-->
<svg id="z12465" class="acjk" version="1.1" viewBox="0 0 1024 1024" xmlns="http://www.w3.org/2000/svg" xmlns:xlink="http://www.w3.org/1999/xlink">
<style>
<![CDATA[
@keyframes z12465k {
	from {
		stroke:#c00;
		stroke-dashoffset:3334;
	}
	75% {
		stroke:#c00;
		stroke-dashoffset:0;
	}
	to {
		stroke:#000;
	}
}
#z12465 path[clip-path] {
	animation:z12465k 1s linear both;
	stroke-dasharray:3334;
	stroke-width:128;
	stroke-linecap:round;
	fill:none;
}
#z12465 path[clip-path="url(#z12465c1)"] {animation-delay:1s;}
#z12465 path[clip-path="url(#z12465c2)"] {animation-delay:2s;}
#z12465 path[clip-path="url(#z12465c3)"] {animation-delay:3s;}
#z12465 path {fill:#ccc;}
]]>
</style>
<path id="z12465d1" d="M 325,129 C 325,155 324,180 315,205 290,276 272,313 243,365 214,416 181,460 138,507 106,541 126,542 153,526 186,507 213,485 239,456 257,437 279,405 287,396 L 312,363 C 321,349 355,289 363,275 383,242 390,221 420,198 439,183 446,151 358,113 319,97 325,122 325,129 Z"/>
<path id="z12465d2" d="M 803,292 C 776,292 748,303 722,310 638,332 532,360 312,363 L 287,396 C 312,402 335,407 359,411 403,417 451,414 530,404 L 583,397 C 693,382 744,381 818,379 904,377 905,360 893,339 880,319 849,294 803,292 Z"/>
<path id="z12465d3" d="M 583,397 530,404 C 525,413 525,423 527,434 537,470 520,521 511,557 498,610 478,698 344,886 305,940 337,936 375,900 436,842 471,801 510,733 537,684 554,639 575,582 588,548 594,521 625,485 647,459 647,437 583,397 Z"/>
<defs>
	<clipPath id="z12465c1"><use xlink:href="#z12465d1"/></clipPath>
	<clipPath id="z12465c2"><use xlink:href="#z12465d2"/></clipPath>
	<clipPath id="z12465c3"><use xlink:href="#z12465d3"/></clipPath>
</defs>
<path pathLength="3333" clip-path="url(#z12465c1)" d="M 337,119 376,175 309,315 238,423 135,528"/>
<path pathLength="3333" clip-path="url(#z12465c2)" d="M 303,391 813,332 885,358"/>
<path pathLength="3333" clip-path="url(#z12465c3)" d="M 540,411 585,470 508,683 341,916"/>
</svg>