<!--
AnimCJK 2016-2018 Copyright Francois Mizessyn, https://github.com/parsimonhi/animCJK
You can redistribute and/or modify these files under the terms of the GNU
Lesser General Public License as published by the Free Software Foundation,
either version 3 of the license, or (at your option) any later version. You
should have received a copy of this license (the file "LGPL.txt") along with
these files; if not, see <http://www.gnu.org/licenses/>.
-->
<svg id="z12478" class="acjk" version="1.1" viewBox="0 0 1024 1024" xmlns="http://www.w3.org/2000/svg" xmlns:xlink="http://www.w3.org/1999/xlink">
<style>
<![CDATA[
@keyframes z12478k {
	from {
		stroke:#c00;
		stroke-dashoffset:3334;
	}
	75% {
		stroke:#c00;
		stroke-dashoffset:0;
	}
	to {
		stroke:#000;
	}
}
#z12478 path[clip-path] {
	animation:z12478k 1s linear both;
	stroke-dasharray:3334;
	stroke-width:128;
	stroke-linecap:round;
	fill:none;
}
#z12478 path[clip-path="url(#z12478c1)"] {animation-delay:1s;}
#z12478 path[clip-path="url(#z12478c2)"] {animation-delay:2s;}
#z12478 path[clip-path="url(#z12478c3)"] {animation-delay:3s;}
#z12478 path[clip-path="url(#z12478c4)"] {animation-delay:4s;}
#z12478 path {fill:#ccc;}
]]>
</style>
<path id="z12478d1" d="M 169.4,244.7 C 164.1,244 159.8,249.4 161.8,254.4 166.9,269.8 178.2,282.1 187.4,295.2 217,334 246.6,372.9 278.1,410.1 292.8,426.2 310.5,441.7 332.4,446.4 346.7,448.4 361.3,438.3 364.5,424.2 371.2,401 362.1,376 348,357.5 319.9,322.6 280.7,299.7 243.3,276.4 222.1,264.3 200.2,252.7 176.7,245.7 174.3,245.2 171.8,244.7 169.4,244.7 Z"/>
<path id="z12478d2" d="M 749.4,175.8 C 741.1,175.3 734.5,182.9 735,190.9 736.6,225.9 731,261.1 719.2,294 688.1,386 639.1,471 582.8,549.8 503.8,659.4 406.7,754.5 304.6,842.5 289.4,856.7 272.9,870.1 261.2,887.4 258.6,890.6 258.4,897.1 263.7,897.3 275.6,896.7 286.1,889.8 296.7,885.1 400.2,831.7 493.2,759 573.5,674.9 630.6,615.6 679.1,548.8 724.4,480.3 755.7,437.1 776.7,387.7 806,343.3 818.2,324.7 832.6,307.9 848.8,292.9 857.2,282.2 851.8,267.7 845.9,257.3 829.9,230.7 806.6,209.4 782.9,189.9 773.2,182.7 761.7,176.1 749.4,175.8 Z"/>
<path id="z12478d3" d="M 811,100 C 802,101 799,116 807,120 821,131 836,140 848,153 869,175 883,203 901,227 908,235 923,239 931,230 942,218 939,201 937,187 934,165 922,143 902,132 879,118 853,110 827,102 822,101 817,101 811,100 Z"/>
<path id="z12478d4" d="M 879,32 C 870,31 867,47 875,51 890,62 907,71 918,86 939,108 953,135 970,160 978,169 994,170 1001,159 1012,145 1007,126 1004,110 999,91 988,72 969,63 945,48 917,39 890,32 886,32 883,31 879,32 Z"/>
<defs>
	<clipPath id="z12478c1"><use xlink:href="#z12478d1"/></clipPath>
	<clipPath id="z12478c2"><use xlink:href="#z12478d2"/></clipPath>
	<clipPath id="z12478c3"><use xlink:href="#z12478d3"/></clipPath>
	<clipPath id="z12478c4"><use xlink:href="#z12478d4"/></clipPath>
</defs>
<path pathLength="3333" clip-path="url(#z12478c1)" d="M 177,257 345,426"/>
<path pathLength="3333" clip-path="url(#z12478c2)" d="M 750,194 791,296 596,605 455,753 275,887"/>
<path pathLength="3333" clip-path="url(#z12478c3)" d="M 806,114 895,158 911,222"/>
<path pathLength="3333" clip-path="url(#z12478c4)" d="M 875,44 959,90 981,152"/>
</svg>