<!--
AnimCJK 2016-2018 Copyright Francois Mizessyn, https://github.com/parsimonhi/animCJK
You can redistribute and/or modify these files under the terms of the GNU
Lesser General Public License as published by the Free Software Foundation,
either version 3 of the license, or (at your option) any later version. You
should have received a copy of this license (the file "LGPL.txt") along with
these files; if not, see <http://www.gnu.org/licenses/>.
-->
<svg id="z12481" class="acjk" version="1.1" viewBox="0 0 1024 1024" xmlns="http://www.w3.org/2000/svg" xmlns:xlink="http://www.w3.org/1999/xlink">
<style>
<![CDATA[
@keyframes z12481k {
	from {
		stroke:#c00;
		stroke-dashoffset:3334;
	}
	75% {
		stroke:#c00;
		stroke-dashoffset:0;
	}
	to {
		stroke:#000;
	}
}
#z12481 path[clip-path] {
	animation:z12481k 1s linear both;
	stroke-dasharray:3334;
	stroke-width:128;
	stroke-linecap:round;
	fill:none;
}
#z12481 path[clip-path="url(#z12481c1)"] {animation-delay:1s;}
#z12481 path[clip-path="url(#z12481c2)"] {animation-delay:2s;}
#z12481 path[clip-path="url(#z12481c3)"] {animation-delay:3s;}
#z12481 path {fill:#ccc;}
]]>
</style>
<path id="z12481d1" d="M 631,99 C 607,99 596,138 576,153 526,189 446,228 321,266 237,292 296,296 325,294 372,291 424,279 473,264 L 473,264 520,251 C 595,227 659,203 689,202 746,202 669,111 641,101 638,100 634,99 631,99 Z"/>
<path id="z12481d2" d="M 259,482 C 78,497 131,517 149,531 163,541 178,550 194,555 222,563 251,553 279,546 349,531 423,509 570,489 664,476 760,477 855,486 868,488 883,490 895,484 908,478 909,458 899,448 890,439 881,430 870,423 852,411 830,409 810,410 769,411 728,417 688,422 648,427 328,476 259,482 Z"/>
<path id="z12481d3" d="M 520,251 473,264 C 496,383 493,659 393,816 282,990 365,919 425,851 554,707 558,424 558,417 559,380 558,350 575,317 587,295 541,264 520,251 Z"/>
<defs>
	<clipPath id="z12481c1"><use xlink:href="#z12481d1"/></clipPath>
	<clipPath id="z12481c2"><use xlink:href="#z12481d2"/></clipPath>
	<clipPath id="z12481c3"><use xlink:href="#z12481d3"/></clipPath>
</defs>
<path pathLength="3333" clip-path="url(#z12481c1)" d="M 629,116 660,170 443,252 288,287"/>
<path pathLength="3333" clip-path="url(#z12481c2)" d="M 139,508 230,517 772,429 888,472"/>
<path pathLength="3333" clip-path="url(#z12481c3)" d="M 500,273 533,312 487,725 349,916"/>
</svg>