<!--
AnimCJK 2016-2019 Copyright Francois Mizessyn, https://github.com/parsimonhi/animCJK
You can redistribute and/or modify these files under the terms of the GNU
Lesser General Public License as published by the Free Software Foundation,
either version 3 of the license, or (at your option) any later version. You
should have received a copy of this license (the file "LGPL.txt") along with
these files; if not, see <http://www.gnu.org/licenses/>.
-->
<svg id="z12482" class="acjk" version="1.1" viewBox="0 0 1024 1024" xmlns="http://www.w3.org/2000/svg" xmlns:xlink="http://www.w3.org/1999/xlink">
<style>
<![CDATA[
@keyframes zk {
	to {
		stroke-dashoffset:0;
	}
}
svg.acjk path[clip-path] {
	--t:0.8s;
	animation:zk var(--t) linear forwards var(--d);
	stroke-dasharray:3337;
	stroke-dashoffset:3339;
	stroke-width:128;
	stroke-linecap:round;
	fill:none;
	stroke:#000;
}
svg.acjk path[id] {fill:#ccc;}
]]>
</style>
<path id="z12482d1" d="M631 99C607 99 596 138 576 153C526 189 446 228 321 266C237 292 296 296 325 294C372 291 424 279 473 264C473 264 473 264 473 264C504 255 504 255 520 251C595 227 659 203 689 202C746 202 669 111 641 101C638 100 634 99 631 99Z"/>
<path id="z12482d2" d="M259 482C78 497 131 517 149 531C163 541 178 550 194 555C222 563 251 553 279 546C349 531 423 509 570 489C664 476 760 477 855 486C868 488 883 490 895 484C908 478 909 458 899 448C890 439 881 430 870 423C852 411 830 409 810 410C769 411 728 417 688 422C648 427 328 476 259 482Z"/>
<path id="z12482d3" d="M473 264C496 383 493 659 393 816C282 990 365 919 425 851C554 707 558 424 558 417C559 380 558 350 575 317C587 295 541 264 520 251C506 243 470 248 473 264Z"/>
<path id="z12482d4" d="M789 140C780 141 777 156 785 160C799 171 814 180 826 193C847 215 861 243 879 267C886 275 901 279 909 270C920 258 917 241 915 227C912 205 900 183 880 172C857 158 831 150 805 142C800 141 795 141 789 140Z"/>
<path id="z12482d5" d="M857 72C848 71 845 87 853 91C868 102 885 111 896 126C917 148 931 175 948 200C956 209 972 210 979 199C990 185 985 166 982 150C977 131 966 112 947 103C923 88 895 79 868 72C864 72 861 71 857 72Z"/>
<defs>
	<clipPath id="z12482c1"><use xlink:href="#z12482d1"/></clipPath>
	<clipPath id="z12482c2"><use xlink:href="#z12482d2"/></clipPath>
	<clipPath id="z12482c3"><use xlink:href="#z12482d3"/></clipPath>
	<clipPath id="z12482c4"><use xlink:href="#z12482d4"/></clipPath>
	<clipPath id="z12482c5"><use xlink:href="#z12482d5"/></clipPath>
</defs>
<path style="--d:1s;" pathLength="3333" clip-path="url(#z12482c1)" d="M 629,116 660,170 443,252 288,287"/>
<path style="--d:2s;" pathLength="3333" clip-path="url(#z12482c2)" d="M 139,508 230,517 772,429 888,472"/>
<path style="--d:3s;" pathLength="3333" clip-path="url(#z12482c3)" d="M 500,273 533,312 487,725 349,916"/>
<path style="--d:4s;" pathLength="3333" clip-path="url(#z12482c4)" d="M 784,154 873,198 889,262"/>
<path style="--d:5s;" pathLength="3333" clip-path="url(#z12482c5)" d="M 853,84 937,130 959,192"/>
</svg>