<!--
AnimCJK 2016-2018 Copyright Francois Mizessyn, https://github.com/parsimonhi/animCJK
You can redistribute and/or modify these files under the terms of the GNU
Lesser General Public License as published by the Free Software Foundation,
either version 3 of the license, or (at your option) any later version. You
should have received a copy of this license (the file "LGPL.txt") along with
these files; if not, see <http://www.gnu.org/licenses/>.
-->
<svg id="z12489" class="acjk" version="1.1" viewBox="0 0 1024 1024" xmlns="http://www.w3.org/2000/svg" xmlns:xlink="http://www.w3.org/1999/xlink">
<style>
<![CDATA[
@keyframes z12489k {
	from {
		stroke:#c00;
		stroke-dashoffset:3334;
	}
	75% {
		stroke:#c00;
		stroke-dashoffset:0;
	}
	to {
		stroke:#000;
	}
}
#z12489 path[clip-path] {
	animation:z12489k 1s linear both;
	stroke-dasharray:3334;
	stroke-width:128;
	stroke-linecap:round;
	fill:none;
}
#z12489 path[clip-path="url(#z12489c1)"] {animation-delay:1s;}
#z12489 path[clip-path="url(#z12489c2)"] {animation-delay:2s;}
#z12489 path[clip-path="url(#z12489c3)"] {animation-delay:3s;}
#z12489 path[clip-path="url(#z12489c4)"] {animation-delay:4s;}
#z12489 path {fill:#ccc;}
]]>
</style>
<path id="z12489d1" d="M 420,104 C 397,104 399,125 404,132 422,159 436,202 439,262 447,512 425,759 416,791 408,815 414,854 434,899 439,911 445,936 471,913 488,897 496,878 496,835 495,805 495,657 496,397 L 496,397 C 496,397 496,374 496,362 L 496,362 C 496,362 498,227 515,186 527,156 494,133 451,113 437,107 427,104 420,104 Z"/>
<path id="z12489d2" d="M 496,362 496,397 C 563,429 699,475 780,524 796,534 809,541 821,541 827,540 833,536 837,528 843,516 837,496 820,469 795,430 648,388 496,362 Z"/>
<path id="z12489d3" d="M 749,140 C 740,141 737,156 745,160 759,171 774,180 786,193 807,215 821,243 839,267 846,275 861,279 869,270 880,258 877,241 875,227 872,205 860,183 840,172 817,158 791,150 765,142 760,141 755,141 749,140 Z"/>
<path id="z12489d4" d="M 817,72 C 808,71 805,87 813,91 828,102 845,111 856,126 877,148 891,175 908,200 916,209 932,210 939,199 950,185 945,166 942,150 937,131 926,112 907,103 883,88 855,79 828,72 824,72 821,71 817,72 Z"/>
<defs>
	<clipPath id="z12489c1"><use xlink:href="#z12489d1"/></clipPath>
	<clipPath id="z12489c2"><use xlink:href="#z12489d2"/></clipPath>
	<clipPath id="z12489c3"><use xlink:href="#z12489d3"/></clipPath>
	<clipPath id="z12489c4"><use xlink:href="#z12489d4"/></clipPath>
</defs>
<path pathLength="3333" clip-path="url(#z12489c1)" d="M 406,113 475,175 455,919"/>
<path pathLength="3333" clip-path="url(#z12489c2)" d="M 507,375 745,460 829,534"/>
<path pathLength="3333" clip-path="url(#z12489c3)" d="M 744,154 833,198 849,262"/>
<path pathLength="3333" clip-path="url(#z12489c4)" d="M 813,84 897,130 919,192"/>
</svg>