<!--
AnimCJK 2016-2019 Copyright Francois Mizessyn, https://github.com/parsimonhi/animCJK
You can redistribute and/or modify these files under the terms of the GNU
Lesser General Public License as published by the Free Software Foundation,
either version 3 of the license, or (at your option) any later version. You
should have received a copy of this license (the file "LGPL.txt") along with
these files; if not, see <http://www.gnu.org/licenses/>.
-->
<svg id="z12487" class="acjk" version="1.1" viewBox="0 0 1024 1024" xmlns="http://www.w3.org/2000/svg" xmlns:xlink="http://www.w3.org/1999/xlink">
<style>
<![CDATA[
@keyframes zk {
	to {
		stroke-dashoffset:0;
	}
}
svg.acjk path[clip-path] {
	--t:0.8s;
	animation:zk var(--t) linear forwards var(--d);
	stroke-dasharray:3337;
	stroke-dashoffset:3339;
	stroke-width:128;
	stroke-linecap:round;
	fill:none;
	stroke:#000;
}
svg.acjk path[id] {fill:#ccc;}
]]>
</style>
<path id="z12487d1" d="M648 98C596 104 496 124 326 139C255 145 351 208 413 197C492 182 566 167 699 151C710 150 726 144 729 131C731 120 710 91 648 98Z"/>
<path id="z12487d2" d="M792 332C758 333 725 343 691 349C547 375 401 391 255 398C211 400 167 403 122 404C61 407 132 465 160 477C183 487 210 491 234 482C271 468 325 454 494 436C547 430 547 430 574 427C737 408 781 410 908 423C918 424 930 416 930 404C930 384 916 366 898 356C869 340 833 331 792 332Z"/>
<path id="z12487d3" d="M494 436C500 451 504 473 501 489C488 559 467 628 434 691C402 754 375 791 322 871C268 954 326 923 370 874C429 810 485 727 520 663C551 604 574 527 601 491C618 467 582 435 574 427C555 408 484 411 494 436Z"/>
<path id="z12487d4" d="M789 140C780 141 777 156 785 160C799 171 814 180 826 193C847 215 861 243 879 267C886 275 901 279 909 270C920 258 917 241 915 227C912 205 900 183 880 172C857 158 831 150 805 142C800 141 795 141 789 140Z"/>
<path id="z12487d5" d="M857 72C848 71 845 87 853 91C868 102 885 111 896 126C917 148 931 175 948 200C956 209 972 210 979 199C990 185 985 166 982 150C977 131 966 112 947 103C923 88 895 79 868 72C864 72 861 71 857 72Z"/>
<defs>
	<clipPath id="z12487c1"><use xlink:href="#z12487d1"/></clipPath>
	<clipPath id="z12487c2"><use xlink:href="#z12487d2"/></clipPath>
	<clipPath id="z12487c3"><use xlink:href="#z12487d3"/></clipPath>
	<clipPath id="z12487c4"><use xlink:href="#z12487d4"/></clipPath>
	<clipPath id="z12487c5"><use xlink:href="#z12487d5"/></clipPath>
</defs>
<path style="--d:1s;" pathLength="3333" clip-path="url(#z12487c1)" d="M 307,151 719,130"/>
<path style="--d:2s;" pathLength="3333" clip-path="url(#z12487c2)" d="M 109,418 274,438 768,370 926,412"/>
<path style="--d:3s;" pathLength="3333" clip-path="url(#z12487c3)" d="M 511,445 557,477 453,731 310,915"/>
<path style="--d:4s;" pathLength="3333" clip-path="url(#z12487c4)" d="M 784,154 873,198 889,262"/>
<path style="--d:5s;" pathLength="3333" clip-path="url(#z12487c5)" d="M 853,84 937,130 959,192"/>
</svg>