<!--
AnimCJK 2016-2019 Copyright Francois Mizessyn, https://github.com/parsimonhi/animCJK
You can redistribute and/or modify these files under the terms of the GNU
Lesser General Public License as published by the Free Software Foundation,
either version 3 of the license, or (at your option) any later version. You
should have received a copy of this license (the file "LGPL.txt") along with
these files; if not, see <http://www.gnu.org/licenses/>.
-->
<svg id="z12506" class="acjk" version="1.1" viewBox="0 0 1024 1024" xmlns="http://www.w3.org/2000/svg" xmlns:xlink="http://www.w3.org/1999/xlink">
<style>
<![CDATA[
@keyframes zk {
	to {
		stroke-dashoffset:0;
	}
}
svg.acjk path[clip-path] {
	--t:0.8s;
	animation:zk var(--t) linear forwards var(--d);
	stroke-dasharray:3337;
	stroke-dashoffset:3339;
	stroke-width:128;
	stroke-linecap:round;
	fill:none;
	stroke:#000;
}
svg.acjk path[id] {fill:#ccc;}
]]>
</style>
<path id="z12506d1" d="M371 290C330 290 293 313 259 333C210 362 173 399 124 427C112 434 70 412 64 439C59 459 81 475 94 488C104 498 116 508 130 510C143 512 156 503 164 493C174 479 185 466 197 453C242 411 290 372 345 344C357 339 371 333 384 338C397 343 407 354 418 364C492 427 563 494 643 550C731 611 821 667 909 728C919 735 939 734 946 721C955 706 951 686 944 670C932 643 906 626 881 612C809 574 733 543 666 496C586 440 514 374 436 315C417 301 395 289 371 290Z"/>
<path id="z12506d2" d="M859 146C826 148 795 165 777 193C756 228 760 276 788 306C805 326 830 338 856 338C887 339 920 326 937 299C954 275 961 244 952 216C942 175 900 146 859 146ZM862 186C887 186 911 205 914 231C918 250 914 272 898 285C878 302 845 304 824 286C812 277 804 263 804 247C803 225 813 201 834 191C843 187 852 186 862 186C860 159 860 159 859 146Z"/>
<defs>
	<clipPath id="z12506c1"><use xlink:href="#z12506d1"/></clipPath>
	<clipPath id="z12506c2"><use xlink:href="#z12506d2"/></clipPath>
</defs>
<path style="--d:1s;" pathLength="3333" clip-path="url(#z12506c1)" d="M 75,438 138,469 375,309 940,710"/>
<path style="--d:2s;" pathLength="3333" clip-path="url(#z12506c2)" d="M 858,163 786,201 790,281 858,324 936,280 933,202 858,163"/>
</svg>
