<!--
AnimCJK 2016-2018 Copyright Francois Mizessyn, https://github.com/parsimonhi/animCJK
You can redistribute and/or modify these files under the terms of the GNU
Lesser General Public License as published by the Free Software Foundation,
either version 3 of the license, or (at your option) any later version. You
should have received a copy of this license (the file "LGPL.txt") along with
these files; if not, see <http://www.gnu.org/licenses/>.
-->
<svg id="z12507" class="acjk" version="1.1" viewBox="0 0 1024 1024" xmlns="http://www.w3.org/2000/svg" xmlns:xlink="http://www.w3.org/1999/xlink">
<style>
<![CDATA[
@keyframes z12507k {
	from {
		stroke:#c00;
		stroke-dashoffset:3334;
	}
	75% {
		stroke:#c00;
		stroke-dashoffset:0;
	}
	to {
		stroke:#000;
	}
}
#z12507 path[clip-path] {
	animation:z12507k 1s linear both;
	stroke-dasharray:3334;
	stroke-width:128;
	stroke-linecap:round;
	fill:none;
}
#z12507 path[clip-path="url(#z12507c1)"] {animation-delay:1s;}
#z12507 path[clip-path="url(#z12507c2)"] {animation-delay:2s;}
#z12507 path[clip-path="url(#z12507c3)"] {animation-delay:3s;}
#z12507 path[clip-path="url(#z12507c4)"] {animation-delay:4s;}
#z12507 path {fill:#ccc;}
]]>
</style>
<path id="z12507d1" d="M 600,362 C 512,377 240,402 151,412 90,420 137,442 147,448 189,469 210,469 246,461 442,418 703,389 831,389 918,389 908,369 875,341 849,318 819,318 786,326 740,336 720,342 600,362 Z"/>
<path id="z12507d2" d="M 466,141 C 507,205 505,677 482,795 474,833 407,803 379,793 344,781 395,842 401,852 431,893 450,922 479,926 521,932 544,872 550,829 571,689 558,292 558,265 558,228 570,196 574,172 579,138 547,129 508,115 460,99 455,124 466,141 Z"/>
<path id="z12507d3" d="M 290,570 C 247,622 196,667 166,727 145,770 170,804 205,787 258,762 274,675 314,576 323,556 319,534 290,570 Z"/>
<path id="z12507d4" d="M 704,574 C 756,657 770,706 824,771 849,801 892,769 877,721 857,654 791,601 719,548 678,518 673,524 704,574 Z"/>
<defs>
	<clipPath id="z12507c1"><use xlink:href="#z12507d1"/></clipPath>
	<clipPath id="z12507c2"><use xlink:href="#z12507d2"/></clipPath>
	<clipPath id="z12507c3"><use xlink:href="#z12507d3"/></clipPath>
	<clipPath id="z12507c4"><use xlink:href="#z12507d4"/></clipPath>
</defs>
<path pathLength="3333" clip-path="url(#z12507c1)" d="M 134,428 613,379 890,370"/>
<path pathLength="3333" clip-path="url(#z12507c2)" d="M 472,123 537,180 528,822 487,869 376,801"/>
<path pathLength="3333" clip-path="url(#z12507c3)" d="M 308,566 178,782"/>
<path pathLength="3333" clip-path="url(#z12507c4)" d="M 693,541 861,767"/>
</svg>