<!--
AnimCJK 2016-2019 Copyright Francois Mizessyn, https://github.com/parsimonhi/animCJK
You can redistribute and/or modify these files under the terms of the GNU
Lesser General Public License as published by the Free Software Foundation,
either version 3 of the license, or (at your option) any later version. You
should have received a copy of this license (the file "LGPL.txt") along with
these files; if not, see <http://www.gnu.org/licenses/>.
-->
<svg id="z12503" class="acjk" version="1.1" viewBox="0 0 1024 1024" xmlns="http://www.w3.org/2000/svg" xmlns:xlink="http://www.w3.org/1999/xlink">
<style>
<![CDATA[
@keyframes zk {
	to {
		stroke-dashoffset:0;
	}
}
svg.acjk path[clip-path] {
	--t:0.8s;
	animation:zk var(--t) linear forwards var(--d);
	stroke-dasharray:3337;
	stroke-dashoffset:3339;
	stroke-width:128;
	stroke-linecap:round;
	fill:none;
	stroke:#000;
}
svg.acjk path[id] {fill:#ccc;}
]]>
</style>
<path id="z12503d1" d="M730 178C686 178 647 205 606 216C532 233 478 246 404 259C326 272 247 285 168 295C161 295 153 300 156 308C160 320 171 328 182 335C199 346 219 353 241 351C273 347 304 331 335 322C375 310 415 302 456 294C530 279 583 265 658 253C668 251 682 248 691 256C701 263 695 276 693 286C659 406 552 543 474 625C421 679 362 729 305 778C282 796 260 813 242 835C237 839 231 846 236 851C240 856 249 852 254 851C288 839 317 818 347 798C418 750 486 697 548 638C593 594 632 545 669 495C715 432 737 365 780 300C786 289 797 281 808 275C820 266 831 250 826 235C821 222 809 214 799 207C780 192 759 178 734 178C731 178 731 178 730 178Z"/>
<path id="z12503d2" d="M905 24C865 27 826 55 815 95C802 136 820 185 858 207C891 227 935 224 967 203C988 190 1000 167 1005 144C1012 114 1005 80 983 58C965 37 938 24 909 24C908 24 907 23 905 24ZM908 69C930 68 955 82 961 105C967 126 962 152 943 166C916 185 874 176 860 146C854 131 856 114 861 100C868 81 887 68 908 69C906 39 906 39 905 24Z"/>
<defs>
	<clipPath id="z12503c1"><use xlink:href="#z12503d1"/></clipPath>
	<clipPath id="z12503c2"><use xlink:href="#z12503d2"/></clipPath>
</defs>
<path style="--d:1s;" pathLength="3333" clip-path="url(#z12503c1)" d="M 166,304 258,303 723,209 785,253 554,584 251,841"/>
<path style="--d:2s;" pathLength="3333" clip-path="url(#z12503c2)" d="M 908,42 836,81 840,161 908,203 986,160 983,82 908,43"/>
</svg>