<!--
AnimCJK 2016-2018 Copyright Francois Mizessyn, https://github.com/parsimonhi/animCJK
You can redistribute and/or modify these files under the terms of the GNU
Lesser General Public License as published by the Free Software Foundation,
either version 3 of the license, or (at your option) any later version. You
should have received a copy of this license (the file "LGPL.txt") along with
these files; if not, see <http://www.gnu.org/licenses/>.
-->
<svg id="z12513" class="acjk" version="1.1" viewBox="0 0 1024 1024" xmlns="http://www.w3.org/2000/svg" xmlns:xlink="http://www.w3.org/1999/xlink">
<style>
<![CDATA[
@keyframes z12513k {
	from {
		stroke:#c00;
		stroke-dashoffset:3334;
	}
	75% {
		stroke:#c00;
		stroke-dashoffset:0;
	}
	to {
		stroke:#000;
	}
}
#z12513 path[clip-path] {
	animation:z12513k 1s linear both;
	stroke-dasharray:3334;
	stroke-width:128;
	stroke-linecap:round;
	fill:none;
}
#z12513 path[clip-path="url(#z12513c1)"] {animation-delay:1s;}
#z12513 path[clip-path="url(#z12513c2)"] {animation-delay:2s;}
#z12513 path {fill:#ccc;}
]]>
</style>
<path id="z12513d1" d="M 682,193 C 684,263 634,343 615,377 598,407 497,579 275,787 159,896 198,898 293,830 506,676 659,455 686,417 730,354 761,303 811,251 831,230 791,198 764,180 744,167 680,121 682,193 Z"/>
<path id="z12513d2" d="M 411,398 C 360,371 348,382 389,423 458,491 594,620 620,653 643,681 697,727 722,687 738,660 708,615 678,588 644,558 507,450 411,398 Z"/>
<defs>
	<clipPath id="z12513c1"><use xlink:href="#z12513d1"/></clipPath>
	<clipPath id="z12513c2"><use xlink:href="#z12513d2"/></clipPath>
</defs>
<path pathLength="3333" clip-path="url(#z12513c1)" d="M 706,166 751,246 470,655 222,862"/>
<path pathLength="3333" clip-path="url(#z12513c2)" d="M 379,395 656,601 701,692"/>
</svg>