<!--
AnimCJK 2016-2018 Copyright Francois Mizessyn, https://github.com/parsimonhi/animCJK
You can redistribute and/or modify these files under the terms of the GNU
Lesser General Public License as published by the Free Software Foundation,
either version 3 of the license, or (at your option) any later version. You
should have received a copy of this license (the file "LGPL.txt") along with
these files; if not, see <http://www.gnu.org/licenses/>.
-->
<svg id="z12526" class="acjk" version="1.1" viewBox="0 0 1024 1024" xmlns="http://www.w3.org/2000/svg" xmlns:xlink="http://www.w3.org/1999/xlink">
<style>
<![CDATA[
@keyframes z12526k {
	from {
		stroke:#c00;
		stroke-dashoffset:3334;
	}
	75% {
		stroke:#c00;
		stroke-dashoffset:0;
	}
	to {
		stroke:#000;
	}
}
#z12526 path[clip-path] {
	animation:z12526k 1s linear both;
	stroke-dasharray:3334;
	stroke-width:128;
	stroke-linecap:round;
	fill:none;
}
#z12526 path[clip-path="url(#z12526c1)"] {animation-delay:1s;}
#z12526 path[clip-path="url(#z12526c2)"] {animation-delay:2s;}
#z12526 path {fill:#ccc;}
]]>
</style>
<path id="z12526d1" d="M 248,373 C 243,373 236,376 236,383 237,399 244,414 247,428 255,459 259,491 261,521 264,547 269,575 285,594 291,601 299,609 307,611 313,613 319,608 319,601 323,576 318,551 314,526 306,490 300,473 295,435 L 288,399 C 276,389 263,373 248,373 Z"/>
<path id="z12526d2" d="M 681,308 C 663,312 645,321 627,328 562,350 387,393 288,399 291,411 292,422 295,435 371,433 416,421 455,411 540,391 650,370 671,379 681,383 687,390 689,400 692,416 687,432 682,447 667,492 653,531 631,574 586,664 556,729 400,896 380,917 381,932 408,914 544,824 625,696 644,662 677,605 697,549 725,489 735,468 747,447 762,430 768,423 778,414 778,404 778,388 767,374 759,363 742,342 721,323 697,312 692,310 687,307 681,308 Z"/>
<defs>
	<clipPath id="z12526c1"><use xlink:href="#z12526d1"/></clipPath>
	<clipPath id="z12526c2"><use xlink:href="#z12526d2"/></clipPath>
</defs>
<path pathLength="3333" clip-path="url(#z12526c1)" d="M 247,382 307,602.2"/>
<path pathLength="3333" clip-path="url(#z12526c2)" d="M 295,404 362,407 698,332 747,391 564,752 399,913.8"/>
</svg>
