<!--
AnimCJK 2016-2018 Copyright Francois Mizessyn, https://github.com/parsimonhi/animCJK
You can redistribute and/or modify these files under the terms of the GNU
Lesser General Public License as published by the Free Software Foundation,
either version 3 of the license, or (at your option) any later version. You
should have received a copy of this license (the file "LGPL.txt") along with
these files; if not, see <http://www.gnu.org/licenses/>.
-->
<svg id="z12532" class="acjk" version="1.1" viewBox="0 0 1024 1024" xmlns="http://www.w3.org/2000/svg" xmlns:xlink="http://www.w3.org/1999/xlink">
<style>
<![CDATA[
@keyframes z12532k {
	from {
		stroke:#ccc;
		stroke-dashoffset:3334;
	}
	1% {
		stroke:#c00;
		stroke-dashoffset:3334;
	}
	75% {
		stroke:#c00;
		stroke-dashoffset:0;
	}
	to {
		stroke:#000;
	}
}
#z12532 path[clip-path] {
	animation:z12532k 1s linear both;
	stroke-dasharray:3334;
	stroke-width:128;
	stroke-linecap:round;
	fill:none;
}
#z12532 path[clip-path="url(#z12532c1)"] {animation-delay:1s;}
#z12532 path[clip-path="url(#z12532c2)"] {animation-delay:2s;}
#z12532 path[clip-path="url(#z12532c3)"] {animation-delay:3s;}
#z12532 path[clip-path="url(#z12532c4)"] {animation-delay:4s;}
#z12532 path[clip-path="url(#z12532c5)"] {animation-delay:5s;}
#z12532 path {fill:#ccc;}
]]>
</style>
<path id="z12532d1" d="M 445,95 C 442,118 456,139 461,162 469,200 471,252 473,291 L 524,281 C 522,253 526,216 532,191 536,172 548,153 545,133 542,120 528,112 517,106 485,89 447,75 445,95 Z"/>
<path id="z12532d2" d="M 184,298 C 178,298 168,301 169,309 169,327 178,344 183,361 191,396 196,432 200,467 203,496 209,528 230,550 237,558 247,566 258,570 265,571 271,566 272,558 275,529 272,500 266,473 257,430 249,412 242,369 L 234,327 C 227,317 203,298 184,298 Z"/>
<path id="z12532d3" d="M 735,220 C 711,224 689,234 667,242 619,257 554,275 524,281 L 473,291 C 425,300 376,307 328,314 298,318 264,323 234,327 L 242,369 C 282,370 326,368 366,359 455,338 546,318 637,308 665,304 693,301 722,306 731,307 742,313 745,325 749,342 742,361 736,378 717,430 691,478 665,527 607,630 553,716 374,895 349,919 349,937 384,916 522,830 647,675 679,628 722,563 754,494 790,427 802,402 816,378 836,359 843,350 855,341 856,329 856,310 842,295 832,283 810,258 785,236 755,224 749,221 741,218 735,220 Z"/>
<path id="z12532d4" d="M 809,120 C 800,121 797,136 805,140 819,151 834,160 846,173 867,195 881,223 899,247 906,255 921,259 929,250 940,238 937,221 935,207 932,185 920,163 900,152 877,138 851,130 825,122 820,121 815,121 809,120 Z"/>
<path id="z12532d5" d="M 877,52 C 868,51 865,67 873,71 888,82 905,91 916,106 937,128 951,155 968,180 976,189 992,190 999,179 1010,165 1005,146 1002,130 997,111 986,92 967,83 943,68 915,59 888,52 884,52 881,51 877,52 Z"/>
<defs>
	<clipPath id="z12532c1"><use xlink:href="#z12532d1"/></clipPath>
	<clipPath id="z12532c2"><use xlink:href="#z12532d2"/></clipPath>
	<clipPath id="z12532c3"><use xlink:href="#z12532d3"/></clipPath>
	<clipPath id="z12532c4"><use xlink:href="#z12532d4"/></clipPath>
	<clipPath id="z12532c5"><use xlink:href="#z12532d5"/></clipPath>
</defs>
<path pathLength="3333" clip-path="url(#z12532c1)" d="M 458,99 503,151 483,281"/>
<path pathLength="3333" clip-path="url(#z12532c2)" d="M 182,308 258,559"/>
<path pathLength="3333" clip-path="url(#z12532c3)" d="M 243,333 326,336 758,251 820,318 530,776 373,915"/>
<path pathLength="3333" clip-path="url(#z12532c4)" d="M 804,134 893,178 909,242"/>
<path pathLength="3333" clip-path="url(#z12532c5)" d="M 873,64 957,110 979,172"/>
</svg>
