<!--
AnimCJK 2016-2022 Copyright FM&SH - https://github.com/parsimonhi/animCJK
You can redistribute and/or modify these files under the terms of the GNU
Lesser General Public License as published by the Free Software Foundation,
either version 3 of the license, or (at your option) any later version. You
should have received a copy of this license (the file "LGPL.txt") along with
these files; if not, see <http://www.gnu.org/licenses/>.
-->
<svg id="z12754" class="acjk" version="1.1" viewBox="0 0 1024 1024" xmlns="http://www.w3.org/2000/svg" xmlns:xlink="http://www.w3.org/1999/xlink">
<style>
<![CDATA[
@keyframes zk {
	to {
		stroke-dashoffset:0;
	}
}
svg.acjk path[clip-path] {
	--t:0.8s;
	animation:zk var(--t) linear forwards var(--d);
	stroke-dasharray:3337;
	stroke-dashoffset:3339;
	stroke-width:128;
	stroke-linecap:round;
	fill:none;
	stroke:#000;
}
svg.acjk path[id] {fill:#ccc;}
]]>
</style>
<path id="z12754d1" d="M669 487C745 398 778 335 799 317C811 306 809 293 801 282C770 240 746 220 725 221C713 221 706 225 708 240C714 287 682 366 614 452C508 586 350 687 193 754C180 759 180 767 193 767C320 766 544 635 669 487Z"/>
<defs>
	<clipPath id="z12754c1"><use xlink:href="#z12754d1"/></clipPath>
</defs>
<path style="--d:1s;" pathLength="3333" clip-path="url(#z12754c1)" d="M717 230L753 301L591 525L389 679L191 761"/>
</svg>