<!--
AnimCJK 2016-2025 Copyright FM-SH - https://github.com/parsimonhi/animCJK
Derived from:
    MakeMeAHanzi project - https://github.com/skishore/makemeahanzi
    Arphic PL KaitiM GB font
    Arphic PL UKai font
You can redistribute and/or modify this file under the terms of the Arphic Public License
as published by Arphic Technology Co., Ltd.
You should have received a copy of this license along with this file.
If not, see https://ftp.gnu.org/non-gnu/chinese-fonts-truetype/LICENSE.
-->
<svg id="z132316" class="acjk" viewBox="0 0 1024 1024" xmlns="http://www.w3.org/2000/svg">
<style>
<![CDATA[
@keyframes zk {
	to {
		stroke-dashoffset:0;
	}
}
svg.acjk path[clip-path] {
	--t:0.8s;
	animation:zk var(--t) linear forwards var(--d);
	stroke-dasharray:3337;
	stroke-dashoffset:3339;
	stroke-width:128;
	stroke-linecap:round;
	fill:none;
	stroke:#000;
}
svg.acjk path[id] {fill:#ccc;}
]]>
</style>
<path id="z132316d1" d="M288 368C242 545 200 632 100 769C83 788 97 797 117 781C221 681 283 577 329 449C340 421 294 338 288 368Z"/>
<path id="z132316d2" d="M329 449C359 508 388 586 419 675C437 728 474 676 448 571C431 504 352 337 219 193C177 149 147 158 182 206C227 267 265 322 288 368C315 422 315 422 329 449Z"/>
<path id="z132316d3" d="M636 357C564 588 482 714 379 857C364 876 377 889 395 874C515 759 609 621 668 454C679 422 643 324 636 357Z"/>
<path id="z132316d4" d="M668 454C684 503 722 639 740 702C762 784 778 827 797 839C815 849 855 861 933 873C942 874 949 875 955 871C960 867 960 862 957 856C953 850 947 845 941 840C859 771 841 717 821 682C784 615 742 502 702 380C666 269 642 197 621 175C611 163 597 156 587 153C573 148 537 150 531 155C529 156 529 159 529 163C529 165 543 176 569 204C588 223 602 251 636 357C657 422 657 422 668 454Z"/>
<defs>
	<clipPath id="z132316c1"><use href="#z132316d1"/></clipPath>
	<clipPath id="z132316c2"><use href="#z132316d2"/></clipPath>
	<clipPath id="z132316c3"><use href="#z132316d3"/></clipPath>
	<clipPath id="z132316c4"><use href="#z132316d4"/></clipPath>
</defs>
<path style="--d:1s;" pathLength="3333" clip-path="url(#z132316c1)" d="M296 369L301 434L263 539L97 782"/>
<path style="--d:2s;" pathLength="3333" clip-path="url(#z132316c2)" d="M174 172L367 456L421 588L433 691"/>
<path style="--d:3s;" pathLength="3333" clip-path="url(#z132316c3)" d="M642 357L638 447L576 592L379 871"/>
<path style="--d:4s;" pathLength="3333" clip-path="url(#z132316c4)" d="M536 159L592 187L621 233L818 781L859 822L952 861"/>
</svg>