<!--
AnimCJK 2016-2026 Copyright FM-SH, https://github.com/parsimonhi/animCJK
Derived from:
    MakeMeAHanzi project - https://github.com/skishore/makemeahanzi
    Arphic PL KaitiM GB font
    Arphic PL KaitiM Big5 font
You can redistribute and/or modify this file under the terms of the Arphic Public License
as published by Arphic Technology Co., Ltd.
You should have received a copy of this license along with this file.
If not, see https://ftp.gnu.org/non-gnu/chinese-fonts-truetype/LICENSE.
-->
<svg id="z140731" class="acjk" viewBox="0 0 1024 1024" xmlns="http://www.w3.org/2000/svg">
<style>
<![CDATA[
@keyframes zk {
	to {
		stroke-dashoffset:0;
	}
}
svg.acjk path[clip-path] {
	--t:0.8s;
	animation:zk var(--t) linear forwards var(--d);
	stroke-dasharray:3337;
	stroke-dashoffset:3339;
	stroke-width:128;
	stroke-linecap:round;
	fill:none;
	stroke:#000;
}
svg.acjk path[id] {fill:#ccc;}
]]>
</style>
<path id="z140731d1" d="M260 234C242 283 226 331 202 377C191 395 191 416 204 440C209 450 220 453 232 444C268 412 284 359 289 288C290 267 291 247 283 233C276 220 265 219 260 234Z"/>
<path id="z140731d2" d="M354 264C364 322 391 367 437 398C480 427 539 443 616 444C662 444 705 436 746 425C790 411 762 386 735 363C693 327 660 289 633 250C616 226 609 240 616 261C624 287 633 314 641 343C649 372 642 387 590 387C511 386 457 368 426 338C411 323 401 305 396 283C392 266 385 256 378 253C371 250 349 238 354 264Z"/>
<path id="z140731d3" d="M424 151C445 175 467 201 490 230C496 238 517 256 529 235C533 226 533 214 532 196C530 180 520 163 498 148C449 115 419 100 408 105C404 106 403 111 403 119C403 125 410 136 424 151Z"/>
<path id="z140731d4" d="M645 150C685 173 729 203 777 240C798 256 815 263 825 245C830 234 827 217 814 192C797 160 739 138 640 121C627 118 628 139 645 150Z"/>
<path id="z140731d5" d="M470 551C492 518 509 509 487 488C466 468 440 462 423 466C418 466 415 473 415 483C408 607 274 694 184 761C139 794 159 791 195 777C266 749 367 675 397 643C412 626 412 626 420 618C430 606 438 596 450 580C463 561 463 561 470 551Z"/>
<path id="z140731d6" d="M523 741C477 787 375 874 276 902C267 904 264 914 274 915C381 919 492 843 564 773C574 762 583 749 593 738C631 691 659 630 667 614C675 595 685 581 699 571C711 561 713 551 706 543C696 533 678 521 660 515C644 508 629 511 611 519C583 530 513 546 466 551C453 570 453 570 446 580C464 584 503 583 529 575C611 546 615 557 610 584C603 618 575 674 549 708C540 719 532 730 523 741Z"/>
<path id="z140731d7" d="M397 643C430 666 497 720 523 741C550 762 550 762 564 773C593 795 684 872 727 903C739 911 751 921 769 919C859 906 915 896 921 888C924 883 920 879 915 878C764 828 745 842 593 738C564 718 564 718 549 708C527 693 469 647 420 618C410 612 388 636 397 643Z"/>
<defs>
	<clipPath id="z140731c1"><use href="#z140731d1"/></clipPath>
	<clipPath id="z140731c2"><use href="#z140731d2"/></clipPath>
	<clipPath id="z140731c3"><use href="#z140731d3"/></clipPath>
	<clipPath id="z140731c4"><use href="#z140731d4"/></clipPath>
	<clipPath id="z140731c5"><use href="#z140731d5"/></clipPath>
	<clipPath id="z140731c6"><use href="#z140731d6"/></clipPath>
	<clipPath id="z140731c7"><use href="#z140731d7"/></clipPath>
</defs>
<path style="--d:1s;" pathLength="3333" clip-path="url(#z140731c1)" d="M274 228L207 442"/>
<path style="--d:2s;" pathLength="3333" clip-path="url(#z140731c2)" d="M362 253L436 372L512 405L615 415L719 387L619 242"/>
<path style="--d:3s;" pathLength="3333" clip-path="url(#z140731c3)" d="M410 109L502 195L520 241"/>
<path style="--d:4s;" pathLength="3333" clip-path="url(#z140731c4)" d="M637 131L757 185L820 245"/>
<path style="--d:5s;" pathLength="3333" clip-path="url(#z140731c5)" d="M424 475L452 517L381 624L168 779"/>
<path style="--d:6s;" pathLength="3333" clip-path="url(#z140731c6)" d="M453 576L625 535L660 561L613 657L548 752L465 824L275 908"/>
<path style="--d:7s;" pathLength="3333" clip-path="url(#z140731c7)" d="M401 636L760 875L915 884"/>
</svg>