<!--
AnimCJK 2016-2026 Copyright FM-SH, https://github.com/parsimonhi/animCJK
Derived from:
    MakeMeAHanzi project - https://github.com/skishore/makemeahanzi
    Arphic PL KaitiM GB font
    Arphic PL KaitiM Big5 font
You can redistribute and/or modify this file under the terms of the Arphic Public License
as published by Arphic Technology Co., Ltd.
You should have received a copy of this license along with this file.
If not, see https://ftp.gnu.org/non-gnu/chinese-fonts-truetype/LICENSE.
-->
<svg id="z143160" class="acjk" viewBox="0 0 1024 1024" xmlns="http://www.w3.org/2000/svg">
<style>
<![CDATA[
@keyframes zk {
	to {
		stroke-dashoffset:0;
	}
}
svg.acjk path[clip-path] {
	--t:0.8s;
	animation:zk var(--t) linear forwards var(--d);
	stroke-dasharray:3337;
	stroke-dashoffset:3339;
	stroke-width:128;
	stroke-linecap:round;
	fill:none;
	stroke:#000;
}
svg.acjk path[id] {fill:#ccc;}
]]>
</style>
<path id="z143160d1" d="M363 340C370 261 380 181 392 137C394 129 390 121 379 114C360 102 343 95 330 92C307 86 302 100 310 113C324 133 329 224 327 347C327 359 363 352 363 340Z"/>
<path id="z143160d2" d="M459 321C432 323 387 335 363 340C339 345 339 345 327 347C304 351 263 361 244 367C237 370 234 365 235 355C244 299 246 268 241 260C233 251 223 241 211 234C200 227 182 223 191 249C212 303 207 348 178 381C169 391 165 398 170 406C176 414 183 421 193 427C200 431 208 432 212 427C236 396 431 353 459 354C470 354 470 321 459 321Z"/>
<path id="z143160d3" d="M459 354C459 363 463 372 466 380C469 387 474 391 481 386C497 374 504 345 513 304C523 261 536 239 540 234C545 226 546 217 541 210C532 199 518 189 502 178C485 165 474 175 478 186C481 193 484 221 479 269C478 282 469 299 459 321C455 331 459 343 459 354Z"/>
<path id="z143160d4" d="M196 495C175 499 171 508 188 515C213 529 243 529 275 522C313 512 391 493 431 483C508 464 442 445 431 443C412 439 395 443 378 449C319 473 258 485 196 495Z"/>
<path id="z143160d5" d="M240 587C206 558 179 565 190 587C238 681 174 804 138 887C136 893 139 897 145 895C219 879 250 684 256 641C257 636 257 631 259 625C262 611 251 595 240 587Z"/>
<path id="z143160d6" d="M259 625C269 617 301 605 310 601C327 594 359 589 365 596C376 607 371 768 357 817C352 834 358 856 384 885C390 890 397 891 401 888C406 884 409 874 415 862C432 830 465 790 506 738C517 724 513 714 501 723C480 742 458 758 437 778C417 796 409 792 409 765C407 686 411 616 434 594C440 589 442 583 436 575C430 566 415 555 394 545C387 542 379 545 370 550C356 556 282 577 240 587C226 590 248 633 259 625Z"/>
<path id="z143160d7" d="M636 415C657 370 728 202 750 146C762 115 733 101 708 89C661 67 636 81 653 106C666 126 671 145 669 167C660 242 602 407 520 561C507 583 512 608 542 570C551 558 551 558 556 552C578 525 599 489 620 446C631 425 631 425 636 415Z"/>
<path id="z143160d8" d="M735 442C812 423 851 411 858 402C879 376 827 367 816 366C793 363 771 369 750 379C713 395 674 404 636 415C625 417 609 442 620 446C644 454 670 459 693 453C721 446 721 446 735 442Z"/>
<path id="z143160d9" d="M649 742C612 793 576 836 516 875C433 927 513 908 523 905C602 872 634 837 677 791C690 775 697 759 706 742C730 686 746 646 763 566C767 546 770 521 784 497C798 471 750 449 735 442C723 435 684 441 693 453C704 464 707 496 705 550C702 612 688 655 671 697C663 712 658 728 649 742Z"/>
<path id="z143160d10" d="M542 570C564 588 636 720 649 742C668 775 668 775 677 791C728 877 769 928 798 935C833 941 889 946 931 945C951 944 973 942 956 926C946 917 903 895 830 853C786 829 744 791 706 742C683 712 683 712 671 697C647 665 627 629 605 590C594 573 577 559 556 552C549 549 536 565 542 570Z"/>
<defs>
	<clipPath id="z143160c1"><use href="#z143160d1"/></clipPath>
	<clipPath id="z143160c2"><use href="#z143160d2"/></clipPath>
	<clipPath id="z143160c3"><use href="#z143160d3"/></clipPath>
	<clipPath id="z143160c4"><use href="#z143160d4"/></clipPath>
	<clipPath id="z143160c5"><use href="#z143160d5"/></clipPath>
	<clipPath id="z143160c6"><use href="#z143160d6"/></clipPath>
	<clipPath id="z143160c7"><use href="#z143160d7"/></clipPath>
	<clipPath id="z143160c8"><use href="#z143160d8"/></clipPath>
	<clipPath id="z143160c9"><use href="#z143160d9"/></clipPath>
	<clipPath id="z143160c10"><use href="#z143160d10"/></clipPath>
</defs>
<path style="--d:1s;" pathLength="3333" clip-path="url(#z143160c1)" d="M312 98L356 138L345 351"/>
<path style="--d:2s;" pathLength="3333" clip-path="url(#z143160c2)" d="M194 235L221 272L204 384L221 399L463 330"/>
<path style="--d:3s;" pathLength="3333" clip-path="url(#z143160c3)" d="M486 177L513 224L474 384"/>
<path style="--d:4s;" pathLength="3333" clip-path="url(#z143160c4)" d="M183 504L462 463"/>
<path style="--d:5s;" pathLength="3333" clip-path="url(#z143160c5)" d="M195 577L230 617L227 689L146 890"/>
<path style="--d:6s;" pathLength="3333" clip-path="url(#z143160c6)" d="M242 597L377 569L401 588L385 804L399 836L506 726"/>
<path style="--d:7s;" pathLength="3333" clip-path="url(#z143160c7)" d="M653 86L706 127L706 165L617 405L520 581"/>
<path style="--d:8s;" pathLength="3333" clip-path="url(#z143160c8)" d="M619 439L859 393"/>
<path style="--d:9s;" pathLength="3333" clip-path="url(#z143160c9)" d="M699 446L745 490L694 707L605 831L488 904"/>
<path style="--d:10s;" pathLength="3333" clip-path="url(#z143160c10)" d="M548 558L765 857L810 893L956 935"/>
</svg>