<!--
AnimCJK 2016-2026 Copyright FM-SH - https://github.com/parsimonhi/animCJK
Derived from:
    MakeMeAHanzi project - https://github.com/skishore/makemeahanzi
    Arphic PL KaitiM GB font
    Arphic PL KaitiM Big5 font
You can redistribute and/or modify this file under the terms of the Arphic Public License
as published by Arphic Technology Co., Ltd.
You should have received a copy of this license along with this file.
If not, see https://ftp.gnu.org/non-gnu/chinese-fonts-truetype/LICENSE.
-->
<svg id="z148848" class="acjk" viewBox="0 0 1024 1024" xmlns="http://www.w3.org/2000/svg">
<style>
<![CDATA[
@keyframes zk {
	to {
		stroke-dashoffset:0;
	}
}
svg.acjk path[clip-path] {
	--t:0.8s;
	animation:zk var(--t) linear forwards var(--d);
	stroke-dasharray:3337;
	stroke-dashoffset:3339;
	stroke-width:128;
	stroke-linecap:round;
	fill:none;
	stroke:#000;
}
svg.acjk path[id] {fill:#ccc;}
]]>
</style>
<path id="z148848d1" d="M412 307C371 311 283 330 253 337C244 339 243 334 244 323C246 243 252 205 246 185C243 176 235 163 217 153C185 135 176 144 187 172C202 212 200 290 197 307C194 324 188 332 182 342C170 359 169 372 173 381C177 389 190 398 199 404C205 408 212 408 217 404C246 374 375 351 413 344C425 342 424 305 412 307Z"/>
<path id="z148848d2" d="M412 541C405 680 390 839 392 849C394 871 402 893 418 913C424 920 433 921 439 912C462 874 468 814 465 759C457 645 457 481 461 357C461 327 461 172 468 142C471 122 465 113 454 101C443 89 426 81 417 78C388 68 379 76 388 106C395 130 408 183 412 307C413 332 413 332 413 344C413 368 415 462 414 496C413 526 413 526 412 541Z"/>
<path id="z148848d3" d="M285 569C312 562 352 552 412 541C427 538 429 494 414 496C287 520 197 534 169 537C137 541 141 557 166 568C178 574 207 580 228 579C245 578 266 573 285 569Z"/>
<path id="z148848d4" d="M228 579C240 613 224 669 114 819C94 845 102 854 133 830C217 766 258 699 300 645C329 607 305 593 285 569C273 554 224 560 228 579Z"/>
<path id="z148848d5" d="M623 509C623 460 626 380 627 360C628 337 628 337 628 326C629 287 633 227 641 182C648 145 650 140 635 128C599 99 577 96 562 106C554 109 554 117 558 125C571 157 576 205 576 252C575 762 552 849 572 903C590 953 612 955 624 900C633 858 623 729 623 541C623 520 623 520 623 509Z"/>
<path id="z148848d6" d="M846 293C856 110 885 124 862 105C847 93 831 85 822 82C807 76 788 84 794 98C807 128 807 214 809 290C809 302 846 305 846 293Z"/>
<path id="z148848d7" d="M627 360C654 356 764 340 860 327C883 323 866 299 846 293C835 288 821 288 809 290C764 300 669 314 628 326C617 330 616 362 627 360Z"/>
<path id="z148848d8" d="M623 541C651 541 741 533 791 529C803 527 815 530 818 543C820 558 821 663 814 745C811 785 808 820 815 837C832 885 853 890 864 846C871 812 862 694 866 592C866 567 868 544 877 522C883 503 879 492 856 480C824 462 817 470 805 475C762 489 650 506 623 509C612 511 612 541 623 541Z"/>
<defs>
	<clipPath id="z148848c1"><use href="#z148848d1"/></clipPath>
	<clipPath id="z148848c2"><use href="#z148848d2"/></clipPath>
	<clipPath id="z148848c3"><use href="#z148848d3"/></clipPath>
	<clipPath id="z148848c4"><use href="#z148848d4"/></clipPath>
	<clipPath id="z148848c5"><use href="#z148848d5"/></clipPath>
	<clipPath id="z148848c6"><use href="#z148848d6"/></clipPath>
	<clipPath id="z148848c7"><use href="#z148848d7"/></clipPath>
	<clipPath id="z148848c8"><use href="#z148848d8"/></clipPath>
</defs>
<path style="--d:1s;" pathLength="3333" clip-path="url(#z148848c1)" d="M188 153L221 198L219 368L419 323"/>
<path style="--d:2s;" pathLength="3333" clip-path="url(#z148848c2)" d="M392 80L434 143L425 912"/>
<path style="--d:3s;" pathLength="3333" clip-path="url(#z148848c3)" d="M151 548L229 554L422 516"/>
<path style="--d:4s;" pathLength="3333" clip-path="url(#z148848c4)" d="M234 570L268 625L111 838"/>
<path style="--d:5s;" pathLength="3333" clip-path="url(#z148848c5)" d="M562 115L608 158L598 936"/>
<path style="--d:6s;" pathLength="3333" clip-path="url(#z148848c6)" d="M802 89L836 128L828 299"/>
<path style="--d:7s;" pathLength="3333" clip-path="url(#z148848c7)" d="M625 349L866 313"/>
<path style="--d:8s;" pathLength="3333" clip-path="url(#z148848c8)" d="M618 528L809 499L844 515L844 871"/>
</svg>