<!--
AnimCJK 2016-2025 Copyright FM-SH - https://github.com/parsimonhi/animCJK
Derived from:
    MakeMeAHanzi project - https://github.com/skishore/makemeahanzi
    Arphic PL KaitiM GB font
    Arphic PL UKai font
You can redistribute and/or modify this file under the terms of the Arphic Public License
as published by Arphic Technology Co., Ltd.
You should have received a copy of this license along with this file.
If not, see https://ftp.gnu.org/non-gnu/chinese-fonts-truetype/LICENSE.
-->
<svg id="z15063" class="acjk" viewBox="0 0 1024 1024" xmlns="http://www.w3.org/2000/svg">
<style>
<![CDATA[
@keyframes zk {
	to {
		stroke-dashoffset:0;
	}
}
svg.acjk path[clip-path] {
	--t:0.8s;
	animation:zk var(--t) linear forwards var(--d);
	stroke-dasharray:3337;
	stroke-dashoffset:3339;
	stroke-width:128;
	stroke-linecap:round;
	fill:none;
	stroke:#000;
}
svg.acjk path[id] {fill:#ccc;}
]]>
</style>
<path id="z15063d1" d="M343 175C323 164 304 156 284 153C280 152 275 153 272 157C267 162 274 171 277 175C304 214 324 274 334 357C338 391 347 418 365 433C390 453 397 439 400 412C401 400 397 389 394 379C383 350 380 329 375 305C371 287 371 287 369 278C364 258 363 236 359 210C356 197 354 181 343 175Z"/>
<path id="z15063d2" d="M604 385C615 403 625 415 637 422C656 432 670 400 676 388C684 370 698 325 719 253C725 229 742 209 757 195C763 188 764 182 763 176C759 163 739 142 698 120C650 94 658 118 343 175C330 178 346 212 359 210C448 188 536 173 610 161C637 156 670 167 666 192C645 294 626 348 612 355C605 362 598 377 604 385Z"/>
<path id="z15063d3" d="M375 305C452 306 552 286 594 273C601 270 607 263 602 257C596 250 589 244 580 241C563 235 536 236 501 245C413 267 413 267 369 278C360 280 366 305 375 305Z"/>
<path id="z15063d4" d="M400 412C418 412 439 403 604 385C614 383 620 361 612 355C578 326 567 347 394 379C383 381 389 412 400 412Z"/>
<path id="z15063d5" d="M523 603C589 551 634 523 657 517C669 513 672 506 669 496C666 486 646 469 607 447C595 440 582 439 569 445C529 459 478 474 419 491C402 495 376 497 339 496C324 495 319 501 325 514C329 522 337 529 349 536C366 546 386 541 411 532C505 494 559 483 568 488C574 491 578 499 574 506C555 533 531 561 509 593C506 598 518 606 523 603Z"/>
<path id="z15063d6" d="M550 642C541 621 531 611 523 603C519 598 513 596 509 593C485 575 467 568 458 567C451 565 445 570 448 584C451 603 483 615 496 649C500 660 501 672 503 684C510 765 511 831 495 858C487 870 434 861 419 858C376 849 375 855 400 877C415 890 434 907 455 926C467 937 478 951 489 967C493 973 499 974 507 971C515 966 529 952 543 928C564 890 569 827 558 681C556 667 555 654 550 642Z"/>
<path id="z15063d7" d="M558 681C638 676 732 673 845 677C867 677 889 678 910 679C924 679 934 676 938 670C943 661 938 650 926 640C887 607 844 598 796 607C730 618 647 629 550 642C514 647 514 647 496 649C375 664 244 674 103 687C87 688 83 695 96 709C117 732 145 741 175 734C289 707 398 689 503 684C540 682 540 682 558 681Z"/>
<defs>
	<clipPath id="z15063c1"><use href="#z15063d1"/></clipPath>
	<clipPath id="z15063c2"><use href="#z15063d2"/></clipPath>
	<clipPath id="z15063c3"><use href="#z15063d3"/></clipPath>
	<clipPath id="z15063c4"><use href="#z15063d4"/></clipPath>
	<clipPath id="z15063c5"><use href="#z15063d5"/></clipPath>
	<clipPath id="z15063c6"><use href="#z15063d6"/></clipPath>
	<clipPath id="z15063c7"><use href="#z15063d7"/></clipPath>
</defs>
<path style="--d:1s;" pathLength="3333" clip-path="url(#z15063c1)" d="M279 162L325 199L380 436"/>
<path style="--d:2s;" pathLength="3333" clip-path="url(#z15063c2)" d="M345 185L630 136L690 153L714 186L631 416"/>
<path style="--d:3s;" pathLength="3333" clip-path="url(#z15063c3)" d="M368 290L599 261"/>
<path style="--d:4s;" pathLength="3333" clip-path="url(#z15063c4)" d="M391 391L609 364"/>
<path style="--d:5s;" pathLength="3333" clip-path="url(#z15063c5)" d="M331 507L383 518L591 470L621 507L515 596"/>
<path style="--d:6s;" pathLength="3333" clip-path="url(#z15063c6)" d="M455 573L525 653L529 863L488 919L392 862"/>
<path style="--d:7s;" pathLength="3333" clip-path="url(#z15063c7)" d="M93 696L168 708L785 641L936 660"/>
</svg>