<!--
AnimCJK 2016-2025 Copyright FM-SH - https://github.com/parsimonhi/animCJK
Derived from:
    MakeMeAHanzi project - https://github.com/skishore/makemeahanzi
    Arphic PL KaitiM GB font
    Arphic PL UKai font
You can redistribute and/or modify this file under the terms of the Arphic Public License
as published by Arphic Technology Co., Ltd.
You should have received a copy of this license along with this file.
If not, see https://ftp.gnu.org/non-gnu/chinese-fonts-truetype/LICENSE.
-->
<svg id="z173834" class="acjk" viewBox="0 0 1024 1024" xmlns="http://www.w3.org/2000/svg">
<style>
<![CDATA[
@keyframes zk {
	to {
		stroke-dashoffset:0;
	}
}
svg.acjk path[clip-path] {
	--t:0.8s;
	animation:zk var(--t) linear forwards var(--d);
	stroke-dasharray:3337;
	stroke-dashoffset:3339;
	stroke-width:128;
	stroke-linecap:round;
	fill:none;
	stroke:#000;
}
svg.acjk path[id] {fill:#ccc;}
]]>
</style>
<path id="z173834d1" d="M474 215C494 232 515 251 537 272C548 282 559 286 572 286C581 286 587 280 591 270C595 258 593 240 585 216C576 191 537 171 467 156C455 153 447 153 441 156C436 159 435 166 436 176C439 186 452 199 474 215Z"/>
<path id="z173834d2" d="M628 488C570 605 392 775 263 896C245 913 253 919 269 910C418 826 565 683 669 541C698 501 724 463 759 435C771 426 773 414 762 404C747 392 720 385 697 378C679 372 665 373 652 383C593 430 414 472 299 484C289 485 283 485 282 491C281 499 286 507 297 514C326 532 347 540 360 537C369 535 514 500 610 453C622 447 630 446 634 452C639 458 636 470 628 488Z"/>
<defs>
	<clipPath id="z173834c1"><use href="#z173834d1"/></clipPath>
	<clipPath id="z173834c2"><use href="#z173834d2"/></clipPath>
</defs>
<path style="--d:1s;" pathLength="3333" clip-path="url(#z173834c1)" d="M442 160L586 274"/>
<path style="--d:2s;" pathLength="3333" clip-path="url(#z173834c2)" d="M292 496L403 497L656 415L715 437L516 682L261 908"/>
</svg>