<!--
AnimCJK 2016-2026 Copyright FM-SH, https://github.com/parsimonhi/animCJK
Derived from:
    MakeMeAHanzi project - https://github.com/skishore/makemeahanzi
    Arphic PL KaitiM GB font
    Arphic PL KaitiM Big5 font
You can redistribute and/or modify this file under the terms of the Arphic Public License
as published by Arphic Technology Co., Ltd.
You should have received a copy of this license along with this file.
If not, see https://ftp.gnu.org/non-gnu/chinese-fonts-truetype/LICENSE.
-->
<svg id="z174583" class="acjk" viewBox="0 0 1024 1024" xmlns="http://www.w3.org/2000/svg">
<style>
<![CDATA[
@keyframes zk {
	to {
		stroke-dashoffset:0;
	}
}
svg.acjk path[clip-path] {
	--t:0.8s;
	animation:zk var(--t) linear forwards var(--d);
	stroke-dasharray:3337;
	stroke-dashoffset:3339;
	stroke-width:128;
	stroke-linecap:round;
	fill:none;
	stroke:#000;
}
svg.acjk path[id] {fill:#ccc;}
]]>
</style>
<path id="z174583d1" d="M371 264C391 251 454 199 477 175C488 164 488 164 493 158C505 145 518 132 532 121C540 114 542 105 535 94C513 65 492 51 476 50C468 49 465 54 464 64C448 173 352 226 271 285C241 304 254 311 284 303C300 299 323 291 352 275C365 268 365 268 371 264Z"/>
<path id="z174583d2" d="M477 175C493 193 531 194 593 185C625 180 617 200 605 219C502 363 384 438 247 523C236 529 235 535 246 536C387 538 640 277 666 250C682 232 702 214 729 199C740 192 744 186 742 179C740 172 719 159 681 136C669 129 649 136 611 145C546 158 505 157 493 158C485 158 471 170 477 175Z"/>
<path id="z174583d3" d="M352 275C368 295 394 327 411 345C425 360 455 368 446 313C440 282 396 273 371 264C364 261 348 269 352 275Z"/>
<path id="z174583d4" d="M625 559C664 553 743 548 793 543C833 538 836 517 792 498C765 486 712 484 628 505C589 514 589 514 570 519C537 526 350 558 274 569C239 573 203 575 166 580C134 583 141 595 158 609C182 628 195 632 220 628C253 621 415 586 571 566C607 561 607 561 625 559Z"/>
<path id="z174583d5" d="M455 797C438 792 439 805 454 818C507 866 541 905 561 934C570 947 581 947 592 938C616 915 630 875 630 816C629 779 626 692 625 559C623 590 627 514 628 505C629 479 651 461 628 442C610 427 590 416 570 409C549 401 529 405 547 433C562 458 569 488 570 519C571 550 571 550 571 566C574 724 572 813 557 821C528 835 484 805 455 797Z"/>
<path id="z174583d6" d="M338 685Q363 713 388 746Q398 759 413 761Q423 762 429 751Q436 738 431 710Q430 691 401 671Q335 634 320 637Q316 640 315 652Q316 662 338 685Z"/>
<defs>
	<clipPath id="z174583c1"><use href="#z174583d1"/></clipPath>
	<clipPath id="z174583c2"><use href="#z174583d2"/></clipPath>
	<clipPath id="z174583c3"><use href="#z174583d3"/></clipPath>
	<clipPath id="z174583c4"><use href="#z174583d4"/></clipPath>
	<clipPath id="z174583c5"><use href="#z174583d5"/></clipPath>
	<clipPath id="z174583c6"><use href="#z174583d6"/></clipPath>
</defs>
<path style="--d:1s;" pathLength="3333" clip-path="url(#z174583c1)" d="M473 55L497 105L462 152L365 243L263 298"/>
<path style="--d:2s;" pathLength="3333" clip-path="url(#z174583c2)" d="M480 170L628 161L687 197L471 397L247 529"/>
<path style="--d:3s;" pathLength="3333" clip-path="url(#z174583c3)" d="M357 274L443 345"/>
<path style="--d:4s;" pathLength="3333" clip-path="url(#z174583c4)" d="M149 592L212 602L667 525L820 522"/>
<path style="--d:5s;" pathLength="3333" clip-path="url(#z174583c5)" d="M547 415L601 464L591 849L556 890L449 803"/>
<path style="--d:6s;" pathLength="3333" clip-path="url(#z174583c6)" d="M322 643L419 754"/>
</svg>