<!--
AnimCJK 2016-2026 Copyright FM-SH, https://github.com/parsimonhi/animCJK
Derived from:
    MakeMeAHanzi project - https://github.com/skishore/makemeahanzi
    Arphic PL KaitiM GB font
    Arphic PL KaitiM Big5 font
You can redistribute and/or modify this file under the terms of the Arphic Public License
as published by Arphic Technology Co., Ltd.
You should have received a copy of this license along with this file.
If not, see https://ftp.gnu.org/non-gnu/chinese-fonts-truetype/LICENSE.
-->
<svg id="z196642" class="acjk" viewBox="0 0 1024 1024" xmlns="http://www.w3.org/2000/svg">
<style>
<![CDATA[
@keyframes zk {
	to {
		stroke-dashoffset:0;
	}
}
svg.acjk path[clip-path] {
	--t:0.8s;
	animation:zk var(--t) linear forwards var(--d);
	stroke-dasharray:3337;
	stroke-dashoffset:3339;
	stroke-width:128;
	stroke-linecap:round;
	fill:none;
	stroke:#000;
}
svg.acjk path[id] {fill:#ccc;}
]]>
</style>
<path id="z196642d1" d="M124 353Q151 417 129 584Q120 615 150 655Q160 667 171 654Q195 621 193 577Q189 480 203 387Q210 362 189 350Q171 338 153 328Q140 324 129 329Q120 336 124 353Z"/>
<path id="z196642d2" d="M287 791Q275 833 302 897Q309 916 317 919Q324 926 332 917Q339 913 350 891Q360 866 360 832Q359 783 365 334Q366 241 384 179Q393 163 390 149Q383 139 325 103Q300 85 279 102Q273 106 280 123Q311 171 313 235Q313 664 298 745Q292 767 287 791Z"/>
<path id="z196642d3" d="M586 476C618 421 662 355 688 313C700 292 666 263 646 253C599 228 569 237 586 269C594 283 595 317 581 366C560 436 490 543 440 625C423 650 426 671 461 637C491 606 551 533 571 501C581 484 581 484 586 476Z"/>
<path id="z196642d4" d="M571 501C578 508 597 515 626 518C634 519 696 510 768 493C861 470 909 454 912 451C918 446 935 422 869 410C848 406 808 418 746 439C665 467 615 475 586 476C576 476 563 495 571 501Z"/>
<path id="z196642d5" d="M658 675C680 693 721 732 743 753C763 771 824 782 789 698C769 650 704 629 653 620C626 615 618 617 622 640C624 649 638 660 658 675Z"/>
<defs>
	<clipPath id="z196642c1"><use href="#z196642d1"/></clipPath>
	<clipPath id="z196642c2"><use href="#z196642d2"/></clipPath>
	<clipPath id="z196642c3"><use href="#z196642d3"/></clipPath>
	<clipPath id="z196642c4"><use href="#z196642d4"/></clipPath>
	<clipPath id="z196642c5"><use href="#z196642d5"/></clipPath>
</defs>
<path style="--d:1s;" pathLength="3333" clip-path="url(#z196642c1)" d="M132 336L168 376L160 656"/>
<path style="--d:2s;" pathLength="3333" clip-path="url(#z196642c2)" d="M283 109L348 168L319 915"/>
<path style="--d:3s;" pathLength="3333" clip-path="url(#z196642c3)" d="M589 251L639 314L549 491L437 649"/>
<path style="--d:4s;" pathLength="3333" clip-path="url(#z196642c4)" d="M575 493L914 436"/>
<path style="--d:5s;" pathLength="3333" clip-path="url(#z196642c5)" d="M627 625L742 697L786 761"/>
</svg>