<!--
AnimCJK 2016-2017 Copyright Francois Mizessyn, https://github.com/parsimonhi/animCJK
Derived from:
    MakeMeAHanzi project - https://github.com/skishore/makemeahanzi
    Arphic PL KaitiM GB - https://apps.ubuntu.com/cat/applications/precise/fonts-arphic-gkai00mp/
    Arphic PL UKai - https://apps.ubuntu.com/cat/applications/fonts-arphic-ukai/
You can redistribute and/or modify this file under the terms of the Arphic Public License
as published by Arphic Technology Co., Ltd.
You should have received a copy of this license (the directory "APL") along with this file;
if not, see http://ftp.gnu.org/non-gnu/chinese-fonts-truetype/LICENSE.
-->
<svg id="z19984" class="acjk" version="1.1" viewBox="0 0 1024 1024" xmlns="http://www.w3.org/2000/svg" xmlns:xlink="http://www.w3.org/1999/xlink">
<style>
<![CDATA[
@keyframes z19984k {
	from {
		stroke:#c00;
		stroke-dashoffset:3000;
	}
	75% {
		stroke:#c00;
		stroke-dashoffset:0;
	}
	to {
		stroke:#000;
	}
}
#z19984 path[clip-path] {
	animation:z19984k 1s linear both;
	stroke-dasharray:3000;
	stroke-width:128;
	stroke-linecap:round;
	fill:none;
}
#z19984 path[clip-path="url(#z19984c1)"] {animation-delay:1s;}
#z19984 path[clip-path="url(#z19984c2)"] {animation-delay:2s;}
#z19984 path[clip-path="url(#z19984c3)"] {animation-delay:3s;}
#z19984 path[clip-path="url(#z19984c4)"] {animation-delay:4s;}
#z19984 path {fill:#ccc;}
]]>
</style>
<path id="z19984d1" d="M511 181Q610 169 821 168Q843 168 848 159Q854 146 836 131Q779 91 739 99Q580 132 205 180Q183 183 200 201Q215 216 234 221Q256 227 274 222Q359 198 457 187L511 181 Z"/>
<path id="z19984d2" d="M513 493Q516 414 521 347L523 318Q526 246 529 226Q538 202 511 181L457 187Q466 220 468 325Q467 389 466 501L513 493 Z"/>
<path id="z19984d3" d="M521 347Q566 363 611 350Q660 340 712 330Q736 324 739 321Q749 312 743 304Q736 292 706 285Q675 281 644 293Q619 300 590 308Q559 315 523 318L521 347 Z"/>
<path id="z19984d4" d="M279 590Q387 533 643 509Q674 508 686 518Q705 540 695 581Q679 672 638 792Q628 817 607 830Q598 833 511 803Q493 793 491 802Q490 812 508 830Q551 879 568 919Q587 953 613 934Q671 897 695 845Q710 805 750 605Q759 559 781 539Q797 523 790 512Q778 499 728 472Q701 457 626 476Q569 483 513 493L466 501Q387 514 316 532Q292 535 298 520Q314 421 332 380Q339 364 329 352Q313 336 296 329Q272 319 263 324Q254 330 261 344Q279 386 253 497Q246 512 221 539Q211 554 219 566Q229 578 250 594Q262 603 279 590 Z"/>
<defs>
	<clipPath id="z19984c1"><use xlink:href="#z19984d1"/></clipPath>
	<clipPath id="z19984c2"><use xlink:href="#z19984d2"/></clipPath>
	<clipPath id="z19984c3"><use xlink:href="#z19984d3"/></clipPath>
	<clipPath id="z19984c4"><use xlink:href="#z19984d4"/></clipPath>
</defs>
<path pathLength="2999" clip-path="url(#z19984c1)" d="M200 187L269 197L752 133L844 147"/>
<path pathLength="2999" clip-path="url(#z19984c2)" d="M465 190L497 220L481 497"/>
<path pathLength="2999" clip-path="url(#z19984c3)" d="M525 340L740 307"/>
<path pathLength="2999" clip-path="url(#z19984c4)" d="M266 331L301 378L256 539L283 565L664 488L711 498L743 532L644 853L592 886L498 804"/>
</svg>