<!--
AnimCJK 2016-2025 Copyright FM-SH - https://github.com/parsimonhi/animCJK
Derived from:
    MakeMeAHanzi project - https://github.com/skishore/makemeahanzi
    Arphic PL KaitiM GB font
    Arphic PL KaitiM Big5 font
You can redistribute and/or modify this file under the terms of the Arphic Public License
as published by Arphic Technology Co., Ltd.
You should have received a copy of this license along with this file.
If not, see https://ftp.gnu.org/non-gnu/chinese-fonts-truetype/LICENSE.
-->
<svg id="z19998" class="acjk" viewBox="0 0 1024 1024" xmlns="http://www.w3.org/2000/svg">
<style>
<![CDATA[
@keyframes zk {
	to {
		stroke-dashoffset:0;
	}
}
svg.acjk path[clip-path] {
	--t:0.8s;
	animation:zk var(--t) linear forwards var(--d);
	stroke-dasharray:3337;
	stroke-dashoffset:3339;
	stroke-width:128;
	stroke-linecap:round;
	fill:none;
	stroke:#000;
}
svg.acjk path[id] {fill:#ccc;}
]]>
</style>
<path id="z19998d1" d="M501 323C583 246 639 202 670 192C684 187 688 178 685 166C681 154 656 134 608 109C594 101 578 101 562 108C515 124 457 142 388 163C369 168 338 170 294 169C277 168 270 176 278 191C282 200 293 208 307 217C329 230 351 225 378 214C483 166 546 151 563 161C572 166 575 176 570 185C545 223 516 264 488 309C485 314 496 327 501 323Z"/>
<path id="z19998d2" d="M540 438C526 369 516 339 501 323C492 314 492 314 488 309C480 300 468 297 457 293C444 288 434 288 428 292C419 296 418 303 428 311C450 328 463 351 471 380C485 433 495 486 496 541C496 593 492 637 478 670C471 685 454 690 434 686C415 682 397 678 380 674C373 672 370 674 373 682C374 687 383 692 394 702C418 722 432 742 441 759C446 770 456 774 466 774C474 773 487 764 505 748C537 717 553 656 552 567C551 537 550 513 547 487C544 470 543 454 540 438Z"/>
<path id="z19998d3" d="M145 452C136 452 131 455 131 461C130 465 135 470 145 475C175 490 199 494 217 488C285 464 323 454 330 456C338 457 337 467 331 483C298 555 268 608 240 644C209 682 168 722 115 763C104 771 102 775 110 777C116 777 126 774 139 769C186 746 230 716 271 678C308 642 352 580 399 488C406 474 411 462 420 456C429 448 431 442 426 435C419 427 404 420 381 410C365 403 345 407 317 419C277 435 219 444 145 452Z"/>
<path id="z19998d4" d="M579 478C605 464 656 435 731 389C746 379 761 370 779 364C795 358 800 347 793 335C784 321 771 309 753 297C736 285 723 281 714 282C705 282 703 287 704 298C705 319 682 352 639 395C616 417 591 442 567 466C563 470 574 481 579 478Z"/>
<path id="z19998d5" d="M567 466C557 456 548 446 540 438C528 426 535 475 547 487C687 657 771 746 802 747C849 748 896 730 938 722C954 718 963 716 964 712C964 707 954 700 934 693C828 656 760 628 731 608C700 586 618 517 579 478C571 470 571 470 567 466Z"/>
<path id="z19998d6" d="M238 857C223 858 221 864 232 877C241 887 252 895 265 899C279 903 292 903 305 901C414 876 553 868 722 873C733 873 746 874 759 875C773 876 782 873 786 867C790 858 787 848 775 839C739 810 707 798 680 803C611 814 464 833 238 857Z"/>
<defs>
	<clipPath id="z19998c1"><use href="#z19998d1"/></clipPath>
	<clipPath id="z19998c2"><use href="#z19998d2"/></clipPath>
	<clipPath id="z19998c3"><use href="#z19998d3"/></clipPath>
	<clipPath id="z19998c4"><use href="#z19998d4"/></clipPath>
	<clipPath id="z19998c5"><use href="#z19998d5"/></clipPath>
	<clipPath id="z19998c6"><use href="#z19998d6"/></clipPath>
</defs>
<path style="--d:1s;" pathLength="3333" clip-path="url(#z19998c1)" d="M279 178L335 197L586 136L629 182L492 315"/>
<path style="--d:2s;" pathLength="3333" clip-path="url(#z19998c2)" d="M427 300L469 322L501 387L521 618L504 689L464 728L380 678"/>
<path style="--d:3s;" pathLength="3333" clip-path="url(#z19998c3)" d="M136 460L201 468L341 432L382 455L260 656L113 772"/>
<path style="--d:4s;" pathLength="3333" clip-path="url(#z19998c4)" d="M711 286L744 340L571 470"/>
<path style="--d:5s;" pathLength="3333" clip-path="url(#z19998c5)" d="M542 446L598 522L778 682L831 704L958 708"/>
<path style="--d:6s;" pathLength="3333" clip-path="url(#z19998c6)" d="M233 864L294 876L692 837L784 860"/>
</svg>