<!--
AnimCJK 2016-2017 Copyright Francois Mizessyn, http://gooo.free.fr/animCJK/
Derived from:
    MakeMeAHanzi project - https://github.com/skishore/makemeahanzi
    Arphic PL KaitiM GB - https://apps.ubuntu.com/cat/applications/precise/fonts-arphic-gkai00mp/
    Arphic PL UKai - https://apps.ubuntu.com/cat/applications/fonts-arphic-ukai/
You can redistribute and/or modify this file under the terms of the Arphic Public License
as published by Arphic Technology Co., Ltd.
You should have received a copy of this license (the directory "APL") along with this file;
if not, see http://ftp.gnu.org/non-gnu/chinese-fonts-truetype/LICENSE.
-->
<svg id="z20010" class="acjk" version="1.1" viewBox="0 0 1024 1024" xmlns="http://www.w3.org/2000/svg" xmlns:xlink="http://www.w3.org/1999/xlink">
<style>
<![CDATA[
@keyframes z20010k {
	from {
		stroke:#c00;
		stroke-dashoffset:3334;
	}
	75% {
		stroke:#c00;
		stroke-dashoffset:0;
	}
	to {
		stroke:#000;
	}
}
#z20010 path[clip-path] {
	animation:z20010k 1s linear both;
	stroke-dasharray:3334;
	stroke-width:128;
	stroke-linecap:round;
	fill:none;
}
#z20010 path[clip-path="url(#z20010c1)"] {animation-delay:1s;}
#z20010 path[clip-path="url(#z20010c2)"] {animation-delay:2s;}
#z20010 path[clip-path="url(#z20010c3)"] {animation-delay:3s;}
#z20010 path {fill:#ccc;}
]]>
</style>
<path id="z20010d1" d="M519 200Q531 176 551 156Q560 150 558 140Q557 130 543 116Q507 85 475 89Q465 92 468 105Q486 208 300 415Q296 418 293 422Q241 477 110 584Q100 588 112 592Q178 583 306 471Q387 396 505 221L519 200 Z"/>
<path id="z20010d2" d="M505 221Q614 362 756 509Q777 533 812 531Q933 527 971 519Q983 516 984 511Q984 505 967 498Q790 444 742 405Q639 321 519 200L505 221 Z"/>
<path id="z20010d3" d="M472 414Q500 459 475 747Q474 757 472 769Q471 797 467 809Q454 863 508 919Q509 920 512 922Q524 923 529 910Q535 892 536 808Q529 514 540 445Q541 432 535 426Q511 405 492 396Q479 392 470 400Q464 404 472 414 Z"/>
<defs>
	<clipPath id="z20010c1"><use xlink:href="#z20010d1"/></clipPath>
	<clipPath id="z20010c2"><use xlink:href="#z20010d2"/></clipPath>
	<clipPath id="z20010c3"><use xlink:href="#z20010d3"/></clipPath>
</defs>
<path pathLength="3333" clip-path="url(#z20010c1)" d="M476 95L512 150L397 334L287 459L116 585"/>
<path pathLength="3333" clip-path="url(#z20010c2)" d="M518 207L785 479L976 508"/>
<path pathLength="3333" clip-path="url(#z20010c3)" d="M476 404L511 445L509 917"/>
</svg>