<!--
AnimCJK 2016-2018 Copyright Francois Mizessyn, http://gooo.free.fr/animCJK/
Derived from:
    MakeMeAHanzi project - https://github.com/skishore/makemeahanzi
    Arphic PL KaitiM GB - https://apps.ubuntu.com/cat/applications/precise/fonts-arphic-gkai00mp/
    Arphic PL UKai - https://apps.ubuntu.com/cat/applications/fonts-arphic-ukai/
You can redistribute and/or modify this file under the terms of the Arphic Public License
as published by Arphic Technology Co., Ltd.
You should have received a copy of this license (the directory "APL") along with this file;
if not, see http://ftp.gnu.org/non-gnu/chinese-fonts-truetype/LICENSE.
-->
<svg id="z20035" class="acjk" version="1.1" viewBox="0 0 1024 1024" xmlns="http://www.w3.org/2000/svg" xmlns:xlink="http://www.w3.org/1999/xlink">
<style>
<![CDATA[
@keyframes z20035k {
	from {
		stroke:#ccc;
		stroke-dashoffset:3334;
	}
	1% {
		stroke:#c00;
		stroke-dashoffset:3334;
	}
	75% {
		stroke:#c00;
		stroke-dashoffset:0;
	}
	to {
		stroke:#000;
	}
}
#z20035 path[clip-path] {
	animation:z20035k 1s linear both;
	stroke-dasharray:3334;
	stroke-width:128;
	stroke-linecap:round;
	fill:none;
}
#z20035 path[clip-path="url(#z20035c1)"] {animation-delay:1s;}
#z20035 path[clip-path="url(#z20035c2)"] {animation-delay:2s;}
#z20035 path {fill:#ccc;}
]]>
</style>
<path id="z20035d1" d="M 731,441 C 747,441 755,443 762,450 767,456 768,467 768,485 763,579 724,690 690,762 681,781 668,795 654,804 643,810 619,804 582,789 549,774 532,769 532,773 531,777 533,782 539,790 569,825 590,851 600,872 609,890 616,902 625,906 632,909 643,907 659,898 697,874 730,845 748,803 765,759 793,673 827,523 830,507 840,493 857,481 867,473 867,464 862,457 849,442 829,427 802,409 792,403 784,405 772,407 739,410 712,410 676,410 664,409 654,408 650,404 642,398 644,390 650,381 684,322 713,273 741,236 754,218 770,208 786,202 796,197 800,191 800,185 798,171 771,154 725,130 711,123 698,124 682,131 653,142 626,151 602,157 550,169 448,190 333,211 300,216 263,221 223,224 197,225 196,238 208,250 215,258 224,263 239,269 248,273 264,273 283,268 325,255 371,242 422,231 L 461,222 C 598,190 673,180 689,190 692,192 693,198 689,209 642,312 604,378 575,405 566,412 564,419 569,431 575,446 583,456 594,460 601,462 611,460 621,455 642,442 679,439 731,441 Z"/>
<path id="z20035d2" d="M 422,231 C 424,251 421,274 415,300 395,375 338,481 314,522 261,608 187,688 95,768 90,771 86,773 84,778 79,784 81,788 89,789 111,790 167,769 235,702 L 273,664 C 342,594 404,488 446,387 461,348 474,317 490,297 497,287 503,279 500,270 494,254 478,234 461,222 Z"/>
<defs>
	<clipPath id="z20035c1"><use xlink:href="#z20035d1"/></clipPath>
	<clipPath id="z20035c2"><use xlink:href="#z20035d2"/></clipPath>
</defs>
<path pathLength="3333" clip-path="url(#z20035c1)" d="M208 238L288 242L671 160L743 188L611 415L626 434L775 427L806 450L817 473L762 673L702 807L652 851L625 853L539 779"/>
<path pathLength="3333" clip-path="url(#z20035c2)" d="M428 235L460 277L340 532L223 679L89 783"/>
</svg>