<!--
AnimCJK 2016-2025 Copyright FM-SH - https://github.com/parsimonhi/animCJK
Derived from:
    MakeMeAHanzi project - https://github.com/skishore/makemeahanzi
    Arphic PL KaitiM GB font
    Arphic PL UKai font
You can redistribute and/or modify this file under the terms of the Arphic Public License
as published by Arphic Technology Co., Ltd.
You should have received a copy of this license along with this file.
If not, see https://ftp.gnu.org/non-gnu/chinese-fonts-truetype/LICENSE.
-->
<svg id="z20058" class="acjk" viewBox="0 0 1024 1024" xmlns="http://www.w3.org/2000/svg">
<style>
<![CDATA[
@keyframes zk {
	to {
		stroke-dashoffset:0;
	}
}
svg.acjk path[clip-path] {
	--t:0.8s;
	animation:zk var(--t) linear forwards var(--d);
	stroke-dasharray:3337;
	stroke-dashoffset:3339;
	stroke-width:128;
	stroke-linecap:round;
	fill:none;
	stroke:#000;
}
svg.acjk path[id] {fill:#ccc;}
]]>
</style>
<path id="z20058d1" d="M294 451C294 389 303 317 312 278C316 258 320 239 325 220C327 210 325 202 320 196C309 184 292 175 269 167C238 155 219 154 211 163C208 165 206 168 206 171C205 174 210 182 218 195C235 222 242 252 242 285C242 340 242 395 242 451C242 603 253 692 267 721C300 792 369 823 428 835C565 862 684 864 817 850C896 841 942 826 953 805C958 794 950 780 947 773C924 730 905 678 890 616C887 607 883 601 878 596C870 588 866 591 864 607C857 642 852 677 845 712C836 749 828 767 795 773C690 792 569 793 456 775C390 764 323 730 308 671C298 635 292 575 294 451Z"/>
<defs>
	<clipPath id="z20058c1"><use href="#z20058d1"/></clipPath>
</defs>
<path style="--d:1s;" pathLength="3333" clip-path="url(#z20058c1)" d="M211 168L281 224L274 632L298 719L356 774L547 819L837 806L905 779L872 598"/>
</svg>