<!--
AnimCJK 2016-2019 Copyright Francois Mizessyn - https://github.com/parsimonhi/animCJK
Derived from:
    MakeMeAHanzi project - https://github.com/skishore/makemeahanzi
    Arphic PL KaitiM GB font
    Arphic PL UKai font
You can redistribute and/or modify this file under the terms of the Arphic Public License
as published by Arphic Technology Co., Ltd.
You should have received a copy of this license along with this file.
If not, see http://ftp.gnu.org/non-gnu/chinese-fonts-truetype/LICENSE.
-->
<svg id="z20051" class="acjk" version="1.1" viewBox="0 0 1024 1024" xmlns="http://www.w3.org/2000/svg" xmlns:xlink="http://www.w3.org/1999/xlink">
<style>
<![CDATA[
@keyframes zk {
	to {
		stroke-dashoffset:0;
	}
}
svg.acjk path[clip-path] {
	--t:0.8s;
	animation:zk var(--t) linear forwards var(--d);
	stroke-dasharray:3337;
	stroke-dashoffset:3339;
	stroke-width:128;
	stroke-linecap:round;
	fill:none;
	stroke:#000;
}
svg.acjk path[id] {fill:#ccc;}
]]>
</style>
<path id="z20051d1" d="M385 265Q508 232 594 185Q646 163 689 153Q708 152 713 143Q717 130 703 118Q637 72 595 76Q586 80 586 93Q586 133 375 244C368 248 377 267 385 265Z"/>
<path id="z20051d2" d="M385 382Q384 300 385 279Q385 272 385 265C385 257 379 251 375 244Q366 228 314 212Q298 206 288 214Q279 221 287 238Q315 286 327 338Q337 392 358 610C361 625 404 620 404 605Q394 493 387 414C386 393 386 393 385 382Z"/>
<path id="z20051d3" d="M614 386Q761 350 767 345Q776 338 771 328Q764 316 734 309Q704 302 605 338Q472 371 385 382C375 384 376 412 387 414Q427 424 497 410Q531 403 569 395C599 389 599 389 614 386Z"/>
<path id="z20051d4" d="M604 577Q637 448 650 426Q654 417 639 403Q626 393 614 386C601 378 563 381 569 395Q582 419 571 528Q568 553 565 583C563 596 601 590 604 577Z"/>
<path id="z20051d5" d="M358 610Q243 622 115 638Q90 641 108 661Q138 691 206 681Q452 617 906 617Q930 617 935 607Q942 594 923 577Q862 532 817 540Q732 556 604 577C578 581 578 581 565 583Q532 587 501 592Q453 596 404 605C373 608 373 608 358 610Z"/>
<path id="z20051d6" d="M582 723Q660 795 752 898Q770 922 787 927Q797 928 805 917Q820 902 806 853Q794 784 584 688Q574 681 572 696Q571 711 582 723Z"/>
<defs>
	<clipPath id="z20051c1"><use xlink:href="#z20051d1"/></clipPath>
	<clipPath id="z20051c2"><use xlink:href="#z20051d2"/></clipPath>
	<clipPath id="z20051c3"><use xlink:href="#z20051d3"/></clipPath>
	<clipPath id="z20051c4"><use xlink:href="#z20051d4"/></clipPath>
	<clipPath id="z20051c5"><use xlink:href="#z20051d5"/></clipPath>
	<clipPath id="z20051c6"><use xlink:href="#z20051d6"/></clipPath>
</defs>
<path style="--d:1s;" pathLength="3333" clip-path="url(#z20051c1)" d="M706 135L608 125L383 256"/>
<path style="--d:2s;" pathLength="3333" clip-path="url(#z20051c2)" d="M289 217L347 275L372 608"/>
<path style="--d:3s;" pathLength="3333" clip-path="url(#z20051c3)" d="M391 386L462 393L768 330"/>
<path style="--d:4s;" pathLength="3333" clip-path="url(#z20051c4)" d="M578 400L613 433L581 580"/>
<path style="--d:5s;" pathLength="3333" clip-path="url(#z20051c5)" d="M110 649L201 655L815 579L931 588"/>
<path style="--d:6s;" pathLength="3333" clip-path="url(#z20051c6)" d="M578 696L728 813L801 918"/>
</svg>