<!--
AnimCJK 2016-2025 Copyright FM-SH - https://github.com/parsimonhi/animCJK
Derived from:
    MakeMeAHanzi project - https://github.com/skishore/makemeahanzi
    Arphic PL KaitiM GB font
    Arphic PL KaitiM Big5 font
You can redistribute and/or modify this file under the terms of the Arphic Public License
as published by Arphic Technology Co., Ltd.
You should have received a copy of this license along with this file.
If not, see https://ftp.gnu.org/non-gnu/chinese-fonts-truetype/LICENSE.
-->
<svg id="z20105" class="acjk" viewBox="0 0 1024 1024" xmlns="http://www.w3.org/2000/svg">
<style>
<![CDATA[
@keyframes zk {
	to {
		stroke-dashoffset:0;
	}
}
svg.acjk path[clip-path] {
	--t:0.8s;
	animation:zk var(--t) linear forwards var(--d);
	stroke-dasharray:3337;
	stroke-dashoffset:3339;
	stroke-width:128;
	stroke-linecap:round;
	fill:none;
	stroke:#000;
}
svg.acjk path[id] {fill:#ccc;}
]]>
</style>
<path id="z20105d1" d="M461 165C516 118 529 125 524 102C520 88 516 79 503 62C490 46 478 37 466 35C454 32 448 39 451 54C455 80 426 123 363 184C334 211 300 241 261 270C253 275 248 278 246 282C242 288 244 291 254 292C282 294 364 245 443 180C455 170 455 170 461 165Z"/>
<path id="z20105d2" d="M443 180C451 188 476 191 518 189C532 188 612 165 593 198C566 250 523 304 499 352C496 358 514 353 519 349C583 292 638 223 695 193C707 185 710 177 702 168C693 158 676 145 651 131C640 125 630 128 619 133C606 138 567 147 514 158C498 161 480 163 461 165C453 166 437 175 443 180Z"/>
<path id="z20105d3" d="M499 352C479 354 374 370 309 374C297 374 291 378 293 385C293 390 301 394 314 400C331 407 351 406 377 402C388 399 435 392 466 387C498 382 498 382 514 379C552 372 591 367 631 359C672 350 691 378 687 411C684 427 680 442 677 459C670 490 670 490 667 505C660 534 651 560 644 586C641 603 693 607 696 590C702 555 709 526 717 504C730 468 730 468 736 450C743 429 756 409 779 388C791 375 794 359 781 349C730 306 684 301 646 316C603 332 533 346 519 349C506 351 506 351 499 352Z"/>
<path id="z20105d4" d="M480 483C366 495 242 507 110 521C95 522 92 529 104 542C114 553 126 560 139 564C154 568 168 568 180 566C265 544 366 531 480 519C516 515 516 515 534 513C558 510 649 505 667 505C700 504 700 504 717 504C761 503 809 502 861 504C883 504 905 504 927 505C941 505 950 502 954 496C958 487 955 477 943 468C903 436 861 428 817 436C791 440 764 445 736 450C697 456 697 456 677 459C633 465 585 471 535 477C498 481 498 481 480 483Z"/>
<path id="z20105d5" d="M480 615C411 625 344 633 287 637C262 638 264 647 277 660C295 678 313 680 328 677C374 666 416 661 480 655C515 652 515 652 532 650C584 644 644 640 716 636C724 635 729 631 731 625C731 618 720 606 696 590C681 581 661 583 644 586C628 590 548 604 532 607C497 612 497 612 480 615Z"/>
<path id="z20105d6" d="M466 387C474 405 480 436 480 483C480 507 480 507 480 519C480 583 480 583 480 615C480 642 480 642 480 655C480 675 480 765 479 819C477 858 463 870 432 860C407 852 381 841 352 832C344 829 340 831 341 836C341 840 344 846 351 852C402 891 446 925 480 956C486 962 495 960 504 949C526 917 538 869 537 808C534 719 532 667 532 650C532 621 532 621 532 607C532 592 533 526 534 513C535 489 535 489 535 477C537 398 554 403 514 379C500 371 460 372 466 387Z"/>
<defs>
	<clipPath id="z20105c1"><use href="#z20105d1"/></clipPath>
	<clipPath id="z20105c2"><use href="#z20105d2"/></clipPath>
	<clipPath id="z20105c3"><use href="#z20105d3"/></clipPath>
	<clipPath id="z20105c4"><use href="#z20105d4"/></clipPath>
	<clipPath id="z20105c5"><use href="#z20105d5"/></clipPath>
	<clipPath id="z20105c6"><use href="#z20105d6"/></clipPath>
</defs>
<path style="--d:1s;" pathLength="3333" clip-path="url(#z20105c1)" d="M460 40L480 107L253 284"/>
<path style="--d:2s;" pathLength="3333" clip-path="url(#z20105c2)" d="M447 177L620 161L652 190L507 350"/>
<path style="--d:3s;" pathLength="3333" clip-path="url(#z20105c3)" d="M302 383L700 342L737 382L660 598"/>
<path style="--d:4s;" pathLength="3333" clip-path="url(#z20105c4)" d="M105 530L171 541L839 468L951 482"/>
<path style="--d:5s;" pathLength="3333" clip-path="url(#z20105c5)" d="M275 646L724 619"/>
<path style="--d:6s;" pathLength="3333" clip-path="url(#z20105c6)" d="M474 384L509 427L503 862L474 910L348 840"/>
</svg>