<!--
AnimCJK 2016-2017 Copyright Francois Mizessyn, http://gooo.free.fr/animCJK/
Derived from:
    MakeMeAHanzi project - https://github.com/skishore/makemeahanzi
    Arphic PL KaitiM GB - https://apps.ubuntu.com/cat/applications/precise/fonts-arphic-gkai00mp/
    Arphic PL UKai - https://apps.ubuntu.com/cat/applications/fonts-arphic-ukai/
You can redistribute and/or modify this file under the terms of the Arphic Public License
as published by Arphic Technology Co., Ltd.
You should have received a copy of this license (the directory "APL") along with this file;
if not, see http://ftp.gnu.org/non-gnu/chinese-fonts-truetype/LICENSE.
-->
<svg id="z20113" class="acjk" version="1.1" viewBox="0 0 1024 1024" xmlns="http://www.w3.org/2000/svg" xmlns:xlink="http://www.w3.org/1999/xlink">
<style>
<![CDATA[
	@keyframes z20113k {
		from {
			stroke:#c00;
			stroke-dashoffset:3000;
		}
		75% {
			stroke:#c00;
			stroke-dashoffset:0;
		}
		to {
			stroke:#000;
		}
	}
	#z20113 path[clip-path] {
		animation:z20113k 1s linear both;
		stroke-dasharray:3000;
		stroke-width:128;
		stroke-linecap:round;
		fill:none;
	}
	#z20113 path[clip-path="url(#z20113c1)"] {animation-delay:1s;}
	#z20113 path[clip-path="url(#z20113c2)"] {animation-delay:2s;}
	#z20113 path[clip-path="url(#z20113c3)"] {animation-delay:3s;}
	#z20113 path[clip-path="url(#z20113c4)"] {animation-delay:4s;}
	#z20113 path {fill:#ccc;}
]]>
</style>
<g transform="scale(1,-1) translate(0,-900)">
	<path id="z20113d1" d="M351 652Q311 645 339 627Q382 600 444 615Q546 634 651 656Q700 666 707 673Q716 682 711 691Q704 704 672 712Q648 718 540 685Q444 661 351 652Z"/>
	<path id="z20113d2" d="M512 420Q633 436 814 438Q893 435 900 448Q906 461 887 476Q830 518 772 506Q613 473 146 409Q122 406 140 387Q156 372 176 366Q198 360 217 366Q323 397 446 411L512 420Z"/>
	<path id="z20113d3" d="M689 193Q535 174 377 151Q364 148 362 152Q359 156 367 167Q482 339 527 384Q543 399 532 409Q525 416 512 420L446 411Q446 305 322 179Q298 160 266 138Q221 122 244 75Q254 53 268 47Q277 43 288 49Q417 122 698 169Q701 170 705 171L689 193Z"/>
	<path id="z20113d4" d="M705 171Q736 128 771 75Q784 51 799 44Q808 41 817 50Q833 62 827 110Q823 176 643 294Q636 301 631 288Q627 275 637 262Q662 231 689 193L705 171Z"/>
	<defs>
		<clipPath id="z20113c1"><use xlink:href="#z20113d1"/></clipPath>
		<clipPath id="z20113c2"><use xlink:href="#z20113d2"/></clipPath>
		<clipPath id="z20113c3"><use xlink:href="#z20113d3"/></clipPath>
		<clipPath id="z20113c4"><use xlink:href="#z20113d4"/></clipPath>
	</defs>
	<path pathLength="2999" clip-path="url(#z20113c1)" d="M336 640L424 636L706 690"/>
	<path pathLength="2999" clip-path="url(#z20113c2)" d="M137 401L197 389L795 474L897 455"/>
	<path pathLength="2999" clip-path="url(#z20113c3)" d="M531 401L472 379L410 259L293 132L296 93L698 175"/>
	<path pathLength="2999" clip-path="url(#z20113c4)" d="M639 291L784 124L805 48"/>
</g>
</svg>