<!--
AnimCJK 2016-2017 Copyright Francois Mizessyn, http://gooo.free.fr/animCJK/
Derived from:
    MakeMeAHanzi project - https://github.com/skishore/makemeahanzi
    Arphic PL KaitiM GB - https://apps.ubuntu.com/cat/applications/precise/fonts-arphic-gkai00mp/
    Arphic PL UKai - https://apps.ubuntu.com/cat/applications/fonts-arphic-ukai/
You can redistribute and/or modify this file under the terms of the Arphic Public License
as published by Arphic Technology Co., Ltd.
You should have received a copy of this license (the directory "APL") along with this file;
if not, see http://ftp.gnu.org/non-gnu/chinese-fonts-truetype/LICENSE.
-->
<svg id="z20111" class="acjk" version="1.1" viewBox="0 0 1024 1024" xmlns="http://www.w3.org/2000/svg" xmlns:xlink="http://www.w3.org/1999/xlink">
<style>
<![CDATA[
	@keyframes z20111k {
		from {
			stroke:#c00;
			stroke-dashoffset:3000;
		}
		75% {
			stroke:#c00;
			stroke-dashoffset:0;
		}
		to {
			stroke:#000;
		}
	}
	#z20111 path[clip-path] {
		animation:z20111k 1s linear both;
		stroke-dasharray:3000;
		stroke-width:128;
		stroke-linecap:round;
		fill:none;
	}
	#z20111 path[clip-path="url(#z20111c1)"] {animation-delay:1s;}
	#z20111 path[clip-path="url(#z20111c2)"] {animation-delay:2s;}
	#z20111 path[clip-path="url(#z20111c3)"] {animation-delay:3s;}
	#z20111 path {fill:#ccc;}
]]>
</style>
<g transform="scale(1,-1) translate(0,-900)">
	<path id="z20111d1" d="M337 699Q294 693 324 672Q379 642 440 656Q674 698 682 702Q692 712 687 722Q680 735 645 746Q614 752 497 721Q410 705 337 699Z"/>
	<path id="z20111d2" d="M428 466Q458 476 702 498Q774 504 889 495Q914 494 919 502Q926 517 914 528Q883 556 837 575Q821 581 795 572Q524 521 220 484Q174 480 120 477Q105 477 105 465Q104 452 124 438Q142 425 175 414Q185 410 204 419Q255 437 368 455L428 466Z"/>
	<path id="z20111d3" d="M357 262Q420 302 545 322Q585 332 609 324Q633 317 635 276Q622 185 575 118Q556 87 538 81Q516 74 487 84Q454 91 430 98Q411 107 410 98Q410 91 424 78Q472 32 502 -8Q514 -21 525 -21Q543 -21 563 -7Q638 53 680 195Q701 288 712 302Q725 315 715 330Q696 349 653 369Q631 379 604 371Q568 361 541 355Q492 348 430 339Q402 335 415 363Q439 411 448 421Q461 437 449 454Q440 461 428 466L368 455Q380 443 373 404Q358 356 323 327Q304 308 308 292Q311 276 329 261Q342 249 357 262Z"/>
	<defs>
		<clipPath id="z20111c1"><use xlink:href="#z20111d1"/></clipPath>
		<clipPath id="z20111c2"><use xlink:href="#z20111d2"/></clipPath>
		<clipPath id="z20111c3"><use xlink:href="#z20111d3"/></clipPath>
	</defs>
	<path pathLength="2999" clip-path="url(#z20111c1)" d="M319 689L418 680L681 720"/>
	<path pathLength="2999" clip-path="url(#z20111c2)" d="M111 466L182 447L814 538L917 518"/>
	<path pathLength="2999" clip-path="url(#z20111c3)" d="M378 451L414 420L360 321L371 297L611 350L675 313L630 149L558 43L515 30L415 95"/>
</g>
</svg>