<!--
AnimCJK 2016-2018 Copyright Francois Mizessyn, https://github.com/parsimonhi/animCJK
Derived from:
    MakeMeAHanzi project - https://github.com/skishore/makemeahanzi
    Arphic PL KaitiM GB - https://apps.ubuntu.com/cat/applications/precise/fonts-arphic-gkai00mp/
    Arphic PL UKai - https://apps.ubuntu.com/cat/applications/fonts-arphic-ukai/
You can redistribute and/or modify this file under the terms of the Arphic Public License
as published by Arphic Technology Co., Ltd.
You should have received a copy of this license (the directory "APL") along with this file;
if not, see http://ftp.gnu.org/non-gnu/chinese-fonts-truetype/LICENSE.
-->
<svg id="z20134" class="acjk" version="1.1" viewBox="0 0 1024 1024" xmlns="http://www.w3.org/2000/svg" xmlns:xlink="http://www.w3.org/1999/xlink">
<style>
<![CDATA[
@keyframes z20134k {
	from {
		stroke:#c00;
		stroke-dashoffset:3334;
	}
	75% {
		stroke:#c00;
		stroke-dashoffset:0;
	}
	to {
		stroke:#000;
	}
}
#z20134 path[clip-path] {
	animation:z20134k 1s linear both;
	stroke-dasharray:3334;
	stroke-width:128;
	stroke-linecap:round;
	fill:none;
}
#z20134 path[clip-path="url(#z20134c1)"] {animation-delay:1s;}
#z20134 path[clip-path="url(#z20134c2)"] {animation-delay:2s;}
#z20134 path[clip-path="url(#z20134c3)"] {animation-delay:3s;}
#z20134 path[clip-path="url(#z20134c4)"] {animation-delay:4s;}
#z20134 path[clip-path="url(#z20134c5)"] {animation-delay:5s;}
#z20134 path[clip-path="url(#z20134c6)"] {animation-delay:6s;}
#z20134 path {fill:#ccc;}
]]>
</style>
<path id="z20134d1" d="M461 132Q498 160 539 193Q555 206 572 204Q584 203 589 188Q593 172 581 139Q566 100 452 80Q434 77 428 81Q422 85 425 99Q429 112 461 132 Z"/>
<path id="z20134d2" d="M609 320Q693 316 799 317Q829 318 855 317Q877 318 883 308Q889 295 871 280Q814 235 743 250Q496 290 154 328Q132 329 148 349Q164 365 183 371Q207 377 224 372Q395 327 557 323L609 320 Z"/>
<path id="z20134d3" d="M378 404Q405 455 378 621Q368 664 345 717Q321 771 250 835Q234 848 230 854Q227 861 240 862Q276 865 342 805Q433 717 457 470Q463 449 465 437Q472 415 451 403Q400 375 384 377Q362 380 378 404 Z"/>
<path id="z20134d4" d="M524 823Q496 813 461 804Q448 800 449 808Q449 817 460 826Q532 883 578 929Q590 939 605 922Q648 861 642 783Q630 543 641 384Q648 356 641 345Q634 335 609 320L557 323Q558 329 565 339Q578 372 577 742Q577 808 565 824Q553 831 524 823 Z"/>
<path id="z20134d5" d="M253 497Q217 552 173 601Q146 631 159 669Q163 688 187 680Q212 667 233 637Q261 598 269 561Q281 528 278 501Q274 491 268 489Q259 489 253 497 Z"/>
<path id="z20134d6" d="M714 494Q771 548 838 627Q854 649 871 654Q881 655 889 645Q902 632 891 583Q875 519 716 460Q706 454 703 467Q702 483 714 494 Z"/>
<defs>
	<clipPath id="z20134c1"><use xlink:href="#z20134d1"/></clipPath>
	<clipPath id="z20134c2"><use xlink:href="#z20134d2"/></clipPath>
	<clipPath id="z20134c3"><use xlink:href="#z20134d3"/></clipPath>
	<clipPath id="z20134c4"><use xlink:href="#z20134d4"/></clipPath>
	<clipPath id="z20134c5"><use xlink:href="#z20134d5"/></clipPath>
	<clipPath id="z20134c6"><use xlink:href="#z20134d6"/></clipPath>
</defs>
<path pathLength="3333" clip-path="url(#z20134c1)" d="M432 88L541 147L574 200"/>
<path pathLength="3333" clip-path="url(#z20134c2)" d="M147 336L205 348L774 281L879 294"/>
<path pathLength="3333" clip-path="url(#z20134c3)" d="M379 385L427 431L398 649L342 769L241 853"/>
<path pathLength="3333" clip-path="url(#z20134c4)" d="M568 330L607 365L606 820L571 879L456 812"/>
<path pathLength="3333" clip-path="url(#z20134c5)" d="M265 494L164 673"/>
<path pathLength="3333" clip-path="url(#z20134c6)" d="M710 469L835 565L880 649"/>
</svg>