<!--
AnimCJK 2016-2019 Copyright Francois Mizessyn - https://github.com/parsimonhi/animCJK
Derived from:
    MakeMeAHanzi project - https://github.com/skishore/makemeahanzi
    Arphic PL KaitiM GB font
    Arphic PL UKai font
You can redistribute and/or modify this file under the terms of the Arphic Public License
as published by Arphic Technology Co., Ltd.
You should have received a copy of this license along with this file.
If not, see http://ftp.gnu.org/non-gnu/chinese-fonts-truetype/LICENSE.
-->
<svg id="z20136" class="acjk" version="1.1" viewBox="0 0 1024 1024" xmlns="http://www.w3.org/2000/svg" xmlns:xlink="http://www.w3.org/1999/xlink">
<style>
<![CDATA[
@keyframes zk {
	to {
		stroke-dashoffset:0;
	}
}
svg.acjk path[clip-path] {
	--t:0.8s;
	animation:zk var(--t) linear forwards var(--d);
	stroke-dasharray:3337;
	stroke-dashoffset:3339;
	stroke-width:128;
	stroke-linecap:round;
	fill:none;
	stroke:#000;
}
svg.acjk path[id] {fill:#ccc;}
]]>
</style>
<path id="z20136d1" d="M501 81Q523 97 549 120Q567 133 584 130Q597 129 600 112Q604 94 590 62Q581 44 551 35Q476 20 464 29Q458 33 462 48Q468 61 501 81Z"/>
<path id="z20136d2" d="M154 217Q132 218 148 237Q163 252 182 259Q204 265 221 260Q437 206 848 206Q872 206 895 207Q917 208 922 199Q929 186 911 171Q847 123 784 142Q577 175 154 217Z"/>
<path id="z20136d3" d="M355 294Q349 294 344 294Q331 293 329 297Q323 304 334 319Q359 353 380 414Q386 432 399 442Q418 461 422 446Q423 442 423 435C421 416 421 416 420 407Q408 344 402 324C396 306 374 294 355 294Z"/>
<path id="z20136d4" d="M647 382Q675 339 696 329Q712 314 701 296Q688 283 642 256Q626 247 606 253Q492 292 355 294C336 294 384 328 402 324Q403 323 406 323Q497 310 583 296Q605 292 614 301Q621 311 597 375C591 391 637 395 647 382Z"/>
<path id="z20136d5" d="M423 435Q424 435 426 436Q436 439 448 436Q514 423 656 412Q666 411 667 403Q667 396 647 382C634 371 614 372 597 375Q498 396 420 407C411 409 414 433 423 435Z"/>
<path id="z20136d6" d="M573 626Q601 611 660 572Q688 551 707 548Q738 541 742 529Q743 519 709 479Q678 443 665 445Q347 502 325 505Q300 505 285 502Q267 496 260 508Q256 515 264 527Q300 573 330 575Q340 575 360 563Q399 533 587 496Q635 484 641 489Q645 493 645 499Q645 509 568 600Q561 607 555 613C550 618 566 629 573 626Z"/>
<path id="z20136d7" d="M555 613Q509 582 490 578Q480 575 480 596Q481 612 501 625Q552 667 533 839Q532 840 532 844Q529 865 522 871Q516 877 476 870Q394 854 395 860Q453 914 513 971Q514 975 519 981Q528 991 538 985Q551 978 576 940Q612 874 587 657Q586 653 585 649Q581 636 573 626C568 620 561 617 555 613Z"/>
<defs>
	<clipPath id="z20136c1"><use xlink:href="#z20136d1"/></clipPath>
	<clipPath id="z20136c2"><use xlink:href="#z20136d2"/></clipPath>
	<clipPath id="z20136c3"><use xlink:href="#z20136d3"/></clipPath>
	<clipPath id="z20136c4"><use xlink:href="#z20136d4"/></clipPath>
	<clipPath id="z20136c5"><use xlink:href="#z20136d5"/></clipPath>
	<clipPath id="z20136c6"><use xlink:href="#z20136d6"/></clipPath>
	<clipPath id="z20136c7"><use xlink:href="#z20136d7"/></clipPath>
</defs>
<path style="--d:1s;" pathLength="3333" clip-path="url(#z20136c1)" d="M467 33L546 70L593 121"/>
<path style="--d:2s;" pathLength="3333" clip-path="url(#z20136c2)" d="M148 224L206 237L810 171L920 195"/>
<path style="--d:3s;" pathLength="3333" clip-path="url(#z20136c3)" d="M335 300L377 338L410 445"/>
<path style="--d:4s;" pathLength="3333" clip-path="url(#z20136c4)" d="M369 297L620 274L660 311L607 375"/>
<path style="--d:5s;" pathLength="3333" clip-path="url(#z20136c5)" d="M428 412L661 402"/>
<path style="--d:6s;" pathLength="3333" clip-path="url(#z20136c6)" d="M262 510L333 539L657 468L687 525L563 615"/>
<path style="--d:7s;" pathLength="3333" clip-path="url(#z20136c7)" d="M487 584L557 663L557 887L517 935L406 861"/>
</svg>