<!--
AnimCJK 2016-2025 Copyright FM-SH - https://github.com/parsimonhi/animCJK
Derived from:
    MakeMeAHanzi project - https://github.com/skishore/makemeahanzi
    Arphic PL KaitiM GB font
    Arphic PL KaitiM Big5 font
You can redistribute and/or modify this file under the terms of the Arphic Public License
as published by Arphic Technology Co., Ltd.
You should have received a copy of this license along with this file.
If not, see https://ftp.gnu.org/non-gnu/chinese-fonts-truetype/LICENSE.
-->
<svg id="z20158" class="acjk" viewBox="0 0 1024 1024" xmlns="http://www.w3.org/2000/svg">
<style>
<![CDATA[
@keyframes zk {
	to {
		stroke-dashoffset:0;
	}
}
svg.acjk path[clip-path] {
	--t:0.8s;
	animation:zk var(--t) linear forwards var(--d);
	stroke-dasharray:3337;
	stroke-dashoffset:3339;
	stroke-width:128;
	stroke-linecap:round;
	fill:none;
	stroke:#000;
}
svg.acjk path[id] {fill:#ccc;}
]]>
</style>
<path id="z20158d1" d="M482 386Q497 243 508 218Q515 196 496 189Q441 155 412 167Q397 173 406 189Q438 238 425 359C419 411 419 411 416 437Q377 585 261 679Q255 682 227 708Q216 719 229 721Q245 721 278 702Q335 671 374 626Q440 558 475 428C480 400 480 400 482 386Z"/>
<path id="z20158d2" d="M475 428Q506 469 553 523Q650 635 710 686Q737 713 760 710C849 693 849 693 893 684Q919 679 919 673Q919 669 913 665Q901 657 825 631Q715 593 681 567Q578 488 482 386C472 376 466 417 475 428Z"/>
<path id="z20158d3" d="M213 190Q205 181 176 167Q123 143 108 161Q95 167 112 189Q128 207 136 353Q149 702 108 797Q103 806 94 814Q70 835 85 855Q92 875 110 888Q129 904 149 888Q161 875 198 861Q288 829 450 820Q511 815 587 814Q759 814 866 827Q921 834 923 810Q923 791 883 767Q843 743 819 744Q815 744 808 745Q597 752 367 780Q204 808 196 797Q189 790 194 663Q194 446 208 267C211 216 211 216 213 190Z"/>
<defs>
	<clipPath id="z20158c1"><use href="#z20158d1"/></clipPath>
	<clipPath id="z20158c2"><use href="#z20158d2"/></clipPath>
	<clipPath id="z20158c3"><use href="#z20158d3"/></clipPath>
</defs>
<path style="--d:1s;" pathLength="3333" clip-path="url(#z20158c1)" d="M410 174L466 219L434 470L350 620L228 713"/>
<path style="--d:2s;" pathLength="3333" clip-path="url(#z20158c2)" d="M481 395L712 633L769 663L912 673"/>
<path style="--d:3s;" pathLength="3333" clip-path="url(#z20158c3)" d="M109 163L167 210L164 657L132 820L148 850L578 786L816 783L919 808"/>
</svg>