<!--
AnimCJK 2016-2018 Copyright Francois Mizessyn - https://github.com/parsimonhi/animCJK
Derived from:
    MakeMeAHanzi project - https://github.com/skishore/makemeahanzi
    Arphic PL KaitiM GB - https://apps.ubuntu.com/cat/applications/precise/fonts-arphic-gkai00mp/
    Arphic PL UKai - https://apps.ubuntu.com/cat/applications/fonts-arphic-ukai/
You can redistribute and/or modify this file under the terms of the Arphic Public License
as published by Arphic Technology Co., Ltd.
You should have received a copy of this license (the directory "APL") along with this file;
if not, see http://ftp.gnu.org/non-gnu/chinese-fonts-truetype/LICENSE.
-->
<svg id="z20162" class="acjk" version="1.1" viewBox="0 0 1024 1024" xmlns="http://www.w3.org/2000/svg" xmlns:xlink="http://www.w3.org/1999/xlink">
<style>
<![CDATA[
@keyframes z20162k {
	from {
		stroke:#ccc;
		stroke-dashoffset:3334;
	}
	1% {
		stroke:#c00;
		stroke-dashoffset:3334;
	}
	75% {
		stroke:#c00;
		stroke-dashoffset:0;
	}
	to {
		stroke:#000;
	}
}
#z20162 path[clip-path] {
	animation:z20162k 1s linear both;
	stroke-dasharray:3334;
	stroke-width:128;
	stroke-linecap:round;
	fill:none;
}
#z20162 path[clip-path="url(#z20162c1)"] {animation-delay:1s;}
#z20162 path[clip-path="url(#z20162c2)"] {animation-delay:2s;}
#z20162 path[clip-path="url(#z20162c3)"] {animation-delay:3s;}
#z20162 path[clip-path="url(#z20162c4)"] {animation-delay:4s;}
#z20162 path {fill:#ccc;}
]]>
</style>
<path id="z20162d1" d="M250 383Q293 325 340 252Q368 200 395 175Q405 163 401 148Q397 135 365 108Q335 89 315 88Q294 89 303 114Q318 148 304 178Q264 275 201 367Q141 455 60 550Q48 562 46 568Q42 581 58 578Q100 569 209 434Q213 428 220 421L250 383 Z"/>
<path id="z20162d2" d="M220 421Q241 466 243 538Q242 556 242 576Q242 688 213 805Q198 854 235 902Q236 905 240 908Q259 924 271 896Q286 854 286 806Q285 529 294 467Q301 437 275 409Q269 403 250 383L220 421 Z"/>
<path id="z20162d3" d="M620 422Q678 409 738 400Q757 399 762 408Q771 426 768 472Q758 643 728 734Q712 792 694 809Q682 822 658 814Q619 801 584 788Q560 781 577 802Q628 856 655 897Q665 921 689 914Q710 910 734 881Q806 806 823 516Q827 452 850 413Q866 391 857 380Q841 361 802 345Q775 332 748 346Q696 368 626 386L563 401Q560 400 557 401Q457 420 399 422Q378 421 378 431Q377 441 400 456Q428 475 454 465Q505 449 556 437L620 422 Z"/>
<path id="z20162d4" d="M556 437Q508 659 430 762Q400 805 342 864Q329 871 325 877Q321 884 339 884Q387 884 493 761Q506 742 519 722Q585 605 620 422L626 386Q629 362 633 338Q652 211 674 160Q681 147 671 137Q652 116 613 97Q589 84 569 89Q547 96 563 117Q591 154 589 188Q580 306 563 401L556 437 Z"/>
<defs>
	<clipPath id="z20162c1"><use xlink:href="#z20162d1"/></clipPath>
	<clipPath id="z20162c2"><use xlink:href="#z20162d2"/></clipPath>
	<clipPath id="z20162c3"><use xlink:href="#z20162d3"/></clipPath>
	<clipPath id="z20162c4"><use xlink:href="#z20162d4"/></clipPath>
</defs>
<path pathLength="3333" clip-path="url(#z20162c1)" d="M308 96L353 147L350 173L199 410L50 568"/>
<path pathLength="3333" clip-path="url(#z20162c2)" d="M253 394L251 909"/>
<path pathLength="3333" clip-path="url(#z20162c3)" d="M382 429L448 442L765 370L812 402L771 697L732 819L678 866L579 792"/>
<path pathLength="3333" clip-path="url(#z20162c4)" d="M560 99L631 159L559 548L471 746L332 876"/>
</svg>