<!--
AnimCJK 2016-2018 Copyright Francois Mizessyn, http://gooo.free.fr/animCJK/
Derived from:
    MakeMeAHanzi project - https://github.com/skishore/makemeahanzi
    Arphic PL KaitiM GB - https://apps.ubuntu.com/cat/applications/precise/fonts-arphic-gkai00mp/
    Arphic PL UKai - https://apps.ubuntu.com/cat/applications/fonts-arphic-ukai/
You can redistribute and/or modify this file under the terms of the Arphic Public License
as published by Arphic Technology Co., Ltd.
You should have received a copy of this license (the directory "APL") along with this file;
if not, see http://ftp.gnu.org/non-gnu/chinese-fonts-truetype/LICENSE.
-->
<svg id="z20193" class="acjk" version="1.1" viewBox="0 0 1024 1024" xmlns="http://www.w3.org/2000/svg" xmlns:xlink="http://www.w3.org/1999/xlink">
<style>
<![CDATA[
@keyframes z20193k {
	from {
		stroke:#ccc;
		stroke-dashoffset:3334;
	}
	1% {
		stroke:#c00;
		stroke-dashoffset:3334;
	}
	75% {
		stroke:#c00;
		stroke-dashoffset:0;
	}
	to {
		stroke:#000;
	}
}
#z20193 path[clip-path] {
	animation:z20193k 1s linear both;
	stroke-dasharray:3334;
	stroke-width:128;
	stroke-linecap:round;
	fill:none;
}
#z20193 path[clip-path="url(#z20193c1)"] {animation-delay:1s;}
#z20193 path[clip-path="url(#z20193c2)"] {animation-delay:2s;}
#z20193 path[clip-path="url(#z20193c3)"] {animation-delay:3s;}
#z20193 path[clip-path="url(#z20193c4)"] {animation-delay:4s;}
#z20193 path[clip-path="url(#z20193c5)"] {animation-delay:5s;}
#z20193 path {fill:#ccc;}
]]>
</style>
<path id="z20193d1" d="M246 403Q289 345 334 271Q359 222 384 199Q394 187 388 173Q384 160 354 137Q326 118 305 118Q286 121 295 143Q310 174 298 202Q231 365 79 552Q69 562 66 569Q62 581 77 578Q119 568 214 444Q215 440 219 437L246 403 Z"/>
<path id="z20193d2" d="M219 437Q240 492 241 538Q240 563 240 589Q239 695 210 805Q200 850 234 901Q235 901 237 904Q255 920 267 893Q282 853 281 806Q284 547 293 488Q300 461 291 450Q249 405 246 403L219 437 Z"/>
<path id="z20193d3" d="M527 314Q599 184 611 170Q618 158 613 146Q609 133 578 113Q550 97 532 99Q513 103 523 124Q535 145 521 198Q484 309 388 453Q379 463 377 470Q376 482 389 478Q429 466 509 341L527 314 Z"/>
<path id="z20193d4" d="M509 341Q564 357 626 343Q803 297 809 291Q818 281 812 273Q803 260 772 254Q739 250 708 265Q668 281 625 294Q579 306 527 314L509 341 Z"/>
<path id="z20193d5" d="M427 527Q412 530 410 538Q409 545 417 549Q451 556 484 547Q557 519 584 510Q606 506 609 513Q609 514 596 543Q398 786 486 864Q487 864 490 867Q521 895 592 911Q757 947 932 872Q965 856 955 831Q930 771 911 672Q905 659 898 659Q892 659 888 676Q884 710 879 750Q872 805 832 828Q790 852 692 855Q595 859 558 842Q524 826 513 792Q497 717 627 583Q666 541 705 524Q730 512 721 499Q714 483 663 455Q644 443 616 457Q516 509 427 527 Z"/>
<defs>
	<clipPath id="z20193c1"><use xlink:href="#z20193d1"/></clipPath>
	<clipPath id="z20193c2"><use xlink:href="#z20193d2"/></clipPath>
	<clipPath id="z20193c3"><use xlink:href="#z20193d3"/></clipPath>
	<clipPath id="z20193c4"><use xlink:href="#z20193d4"/></clipPath>
	<clipPath id="z20193c5"><use xlink:href="#z20193d5"/></clipPath>
</defs>
<path pathLength="3333" clip-path="url(#z20193c1)" d="M301 126L342 196L214 407L71 572"/>
<path pathLength="3333" clip-path="url(#z20193c2)" d="M243 412L264 469L249 906"/>
<path pathLength="3333" clip-path="url(#z20193c3)" d="M528 105L567 171L470 361L383 469"/>
<path pathLength="3333" clip-path="url(#z20193c4)" d="M519 338L810 282"/>
<path pathLength="3333" clip-path="url(#z20193c5)" d="M417 541L619 482L657 497L668 516L563 620L488 760L499 832L579 878L737 887L882 846L911 819L899 667"/>
</svg>