<!--
AnimCJK 2016-2017 Copyright Francois Mizessyn, http://gooo.free.fr/animCJK/
Derived from:
    MakeMeAHanzi project - https://github.com/skishore/makemeahanzi
    Arphic PL KaitiM GB - https://apps.ubuntu.com/cat/applications/precise/fonts-arphic-gkai00mp/
    Arphic PL UKai - https://apps.ubuntu.com/cat/applications/fonts-arphic-ukai/
You can redistribute and/or modify this file under the terms of the Arphic Public License
as published by Arphic Technology Co., Ltd.
You should have received a copy of this license (the directory "APL") along with this file;
if not, see http://ftp.gnu.org/non-gnu/chinese-fonts-truetype/LICENSE.
-->
<svg id="z20208" class="acjk" version="1.1" viewBox="0 0 1024 1024" xmlns="http://www.w3.org/2000/svg" xmlns:xlink="http://www.w3.org/1999/xlink">
<style>
<![CDATA[
	@keyframes z20208k {
		from {
			stroke:#c00;
			stroke-dashoffset:3000;
		}
		75% {
			stroke:#c00;
			stroke-dashoffset:0;
		}
		to {
			stroke:#000;
		}
	}
	#z20208 path[clip-path] {
		animation:z20208k 1s linear both;
		stroke-dasharray:3000;
		stroke-width:128;
		stroke-linecap:round;
		fill:none;
	}
	#z20208 path[clip-path="url(#z20208c1)"] {animation-delay:1s;}
	#z20208 path[clip-path="url(#z20208c2)"] {animation-delay:2s;}
	#z20208 path[clip-path="url(#z20208c3)"] {animation-delay:3s;}
	#z20208 path[clip-path="url(#z20208c4)"] {animation-delay:4s;}
	#z20208 path[clip-path="url(#z20208c5)"] {animation-delay:5s;}
	#z20208 path[clip-path="url(#z20208c6)"] {animation-delay:6s;}
	#z20208 path {fill:#ccc;}
]]>
</style>
<g transform="scale(1,-1) translate(0,-900)">
	<path id="z20208d1" d="M235 538Q283 599 334 679Q362 728 386 753Q396 763 391 778Q387 791 357 816Q329 835 310 835Q291 834 299 810Q312 777 300 750Q236 594 67 396Q57 386 54 379Q50 367 65 370Q104 374 207 504L235 538Z"/>
	<path id="z20208d2" d="M207 504Q228 437 230 434Q229 433 230 430Q236 262 205 131Q190 82 227 34Q228 31 232 28Q251 12 263 40Q278 82 278 130Q274 394 282 453Q289 481 279 492Q261 514 247 528Q241 535 235 538L207 504Z"/>
	<path id="z20208d3" d="M432 580Q468 604 564 677Q583 693 606 702Q627 712 617 729Q604 745 578 760Q556 773 543 771Q530 770 534 757Q535 727 447 627Q432 612 417 594L432 580Z"/>
	<path id="z20208d4" d="M417 594Q404 601 374 609Q359 610 354 606Q348 600 359 584Q384 548 388 454Q387 450 388 445Q388 343 343 289Q333 277 340 258Q349 233 362 222Q372 215 385 228Q431 288 573 412Q586 422 588 430Q589 436 584 435Q572 434 448 348Q438 341 434 345Q430 346 430 358Q430 545 432 566Q433 575 432 580L417 594Z"/>
	<path id="z20208d5" d="M689 551Q688 552 690 552Q771 580 828 594Q841 595 844 592Q857 576 854 529Q850 402 823 344Q813 319 791 319Q760 329 733 341Q711 348 727 327Q778 285 802 252Q826 233 842 254Q870 279 886 323Q905 374 903 521Q903 573 917 601Q927 613 920 622Q911 631 865 646Q847 652 832 639Q814 627 685 587L689 551Z"/>
	<path id="z20208d6" d="M634 -15Q638 -40 646 -49Q652 -56 659 -54Q675 -44 679 13Q680 43 682 277Q679 469 689 551L685 587Q661 611 634 614Q621 618 606 609Q597 602 605 591Q626 546 629 518Q633 379 629 164Q628 31 634 -15Z"/>
	<defs>
		<clipPath id="z20208c1"><use xlink:href="#z20208d1"/></clipPath>
		<clipPath id="z20208c2"><use xlink:href="#z20208d2"/></clipPath>
		<clipPath id="z20208c3"><use xlink:href="#z20208d3"/></clipPath>
		<clipPath id="z20208c4"><use xlink:href="#z20208d4"/></clipPath>
		<clipPath id="z20208c5"><use xlink:href="#z20208d5"/></clipPath>
		<clipPath id="z20208c6"><use xlink:href="#z20208d6"/></clipPath>
	</defs>
	<path pathLength="2999" clip-path="url(#z20208c1)" d="M305 825L342 788L341 752L201 531L60 379"/>
	<path pathLength="2999" clip-path="url(#z20208c2)" d="M235 529L255 450L241 27"/>
	<path pathLength="2999" clip-path="url(#z20208c3)" d="M542 764L561 706L428 590"/>
	<path pathLength="2999" clip-path="url(#z20208c4)" d="M358 603L403 560L393 267L582 428"/>
	<path pathLength="2999" clip-path="url(#z20208c5)" d="M692 560L846 620L887 597L844 311L809 282L728 337"/>
	<path pathLength="2999" clip-path="url(#z20208c6)" d="M609 604L651 573L657 539L652 -47"/>
</g>
</svg>