<!--
AnimCJK 2016-2017 Copyright Francois Mizessyn, http://gooo.free.fr/animCJK/
Derived from:
    MakeMeAHanzi project - https://github.com/skishore/makemeahanzi
    Arphic PL KaitiM GB - https://apps.ubuntu.com/cat/applications/precise/fonts-arphic-gkai00mp/
    Arphic PL UKai - https://apps.ubuntu.com/cat/applications/fonts-arphic-ukai/
You can redistribute and/or modify this file under the terms of the Arphic Public License
as published by Arphic Technology Co., Ltd.
You should have received a copy of this license (the directory "APL") along with this file;
if not, see http://ftp.gnu.org/non-gnu/chinese-fonts-truetype/LICENSE.
-->
<svg id="z20214" class="acjk" version="1.1" viewBox="0 0 1024 1024" xmlns="http://www.w3.org/2000/svg" xmlns:xlink="http://www.w3.org/1999/xlink">
<style>
<![CDATA[
	@keyframes z20214k {
		from {
			stroke:#c00;
			stroke-dashoffset:3000;
		}
		75% {
			stroke:#c00;
			stroke-dashoffset:0;
		}
		to {
			stroke:#000;
		}
	}
	#z20214 path[clip-path] {
		animation:z20214k 1s linear both;
		stroke-dasharray:3000;
		stroke-width:128;
		stroke-linecap:round;
		fill:none;
	}
	#z20214 path[clip-path="url(#z20214c1)"] {animation-delay:1s;}
	#z20214 path[clip-path="url(#z20214c2)"] {animation-delay:2s;}
	#z20214 path[clip-path="url(#z20214c3)"] {animation-delay:3s;}
	#z20214 path[clip-path="url(#z20214c4)"] {animation-delay:4s;}
	#z20214 path[clip-path="url(#z20214c5)"] {animation-delay:5s;}
	#z20214 path[clip-path="url(#z20214c6)"] {animation-delay:6s;}
	#z20214 path {fill:#ccc;}
]]>
</style>
<g transform="scale(1,-1) translate(0,-900)">
	<path id="z20214d1" d="M272 555Q303 601 339 658Q366 707 389 730Q399 742 394 757Q390 770 357 795Q327 814 306 814Q285 813 295 788Q310 757 298 729Q264 638 209 552Q155 470 83 378Q73 366 70 360Q66 347 82 350Q121 360 242 514L272 555Z"/>
	<path id="z20214d2" d="M242 514Q270 450 251 257Q244 202 229 143Q214 94 251 46Q252 43 256 40Q275 24 287 52Q302 94 302 142Q301 416 310 477Q317 507 291 535Q285 541 272 555L242 514Z"/>
	<path id="z20214d3" d="M498 557Q514 587 531 611Q540 623 526 636Q486 666 462 660Q452 657 455 644Q470 572 401 485Q385 464 376 451Q369 438 383 442Q396 443 413 458Q458 495 486 537L498 557Z"/>
	<path id="z20214d4" d="M674 543Q821 577 827 583Q836 592 831 600Q824 612 794 619Q763 625 732 612Q704 602 675 593L617 577Q563 567 501 558Q498 558 498 557L486 537Q495 528 530 521Q558 517 591 525Q603 528 617 530L674 543Z"/>
	<path id="z20214d5" d="M673 352Q761 362 887 365Q912 365 933 366Q955 366 961 376Q967 389 948 404Q884 449 828 430Q765 417 673 398L617 388Q490 369 341 345Q319 342 336 323Q352 308 372 303Q396 297 413 303Q557 345 617 345L673 352Z"/>
	<path id="z20214d6" d="M617 345Q614 -18 632 -48Q647 -64 656 -42Q672 -2 673 352L673 398Q673 480 674 543L675 593Q676 734 699 770Q706 786 685 803Q660 822 615 834Q594 840 581 825Q571 816 584 804Q614 779 616 743Q617 679 617 577L617 530Q620 403 617 388L617 345Z"/>
	<defs>
		<clipPath id="z20214c1"><use xlink:href="#z20214d1"/></clipPath>
		<clipPath id="z20214c2"><use xlink:href="#z20214d2"/></clipPath>
		<clipPath id="z20214c3"><use xlink:href="#z20214d3"/></clipPath>
		<clipPath id="z20214c4"><use xlink:href="#z20214d4"/></clipPath>
		<clipPath id="z20214c5"><use xlink:href="#z20214d5"/></clipPath>
		<clipPath id="z20214c6"><use xlink:href="#z20214d6"/></clipPath>
	</defs>
	<path pathLength="2999" clip-path="url(#z20214c1)" d="M300 803L348 742L206 506L75 358"/>
	<path pathLength="2999" clip-path="url(#z20214c2)" d="M274 541L267 39"/>
	<path pathLength="2999" clip-path="url(#z20214c3)" d="M463 651L495 609L382 449"/>
	<path pathLength="2999" clip-path="url(#z20214c4)" d="M492 539L827 591"/>
	<path pathLength="2999" clip-path="url(#z20214c5)" d="M337 336L396 327L843 399L958 383"/>
	<path pathLength="2999" clip-path="url(#z20214c6)" d="M582 817L657 769L642 -50"/>
</g>
</svg>