<!--
AnimCJK 2016-2019 Copyright Francois Mizessyn - https://github.com/parsimonhi/animCJK
Derived from:
    MakeMeAHanzi project - https://github.com/skishore/makemeahanzi
    Arphic PL KaitiM GB font
    Arphic PL UKai font
You can redistribute and/or modify this file under the terms of the Arphic Public License
as published by Arphic Technology Co., Ltd.
You should have received a copy of this license along with this file.
If not, see http://ftp.gnu.org/non-gnu/chinese-fonts-truetype/LICENSE.
-->
<svg id="z20272" class="acjk" version="1.1" viewBox="0 0 1024 1024" xmlns="http://www.w3.org/2000/svg" xmlns:xlink="http://www.w3.org/1999/xlink">
<style>
<![CDATA[
@keyframes zk {
	to {
		stroke-dashoffset:0;
	}
}
svg.acjk path[clip-path] {
	--t:0.8s;
	animation:zk var(--t) linear forwards var(--d);
	stroke-dasharray:3337;
	stroke-dashoffset:3339;
	stroke-width:128;
	stroke-linecap:round;
	fill:none;
	stroke:#000;
}
svg.acjk path[id] {fill:#ccc;}
]]>
</style>
<path id="z20272d1" d="M271 391Q308 337 349 270Q376 218 401 192Q411 182 405 166Q401 153 369 129Q341 110 320 110Q299 113 309 136Q325 170 312 199Q249 361 83 571Q73 581 70 589Q66 601 81 598Q123 589 223 455Q233 442 246 426C263 403 263 403 271 391Z"/>
<path id="z20272d2" d="M246 426Q247 433 252 439Q282 506 259 688Q252 742 237 797Q222 846 259 894Q260 897 264 900Q283 916 295 888Q310 846 310 798Q313 537 322 479Q329 451 319 440Q301 418 287 404Q280 397 271 391C259 384 243 412 246 426Z"/>
<path id="z20272d3" d="M650 427Q663 424 919 405Q941 404 946 394Q950 381 932 368Q872 326 805 347Q744 362 656 383C619 390 619 390 600 394Q492 413 368 436Q346 439 363 457Q399 487 439 474Q512 450 596 436C632 430 632 430 650 427Z"/>
<path id="z20272d4" d="M625 590Q638 505 650 427C654 398 654 398 656 383Q674 242 701 175Q707 160 686 141Q649 116 622 109Q603 103 594 112Q584 119 592 138Q616 181 613 209Q609 297 600 394C597 422 597 422 596 436Q587 515 575 600C572 617 622 607 625 590Z"/>
<path id="z20272d5" d="M476 614Q466 610 446 607Q433 603 429 608Q422 615 431 633Q462 703 480 818Q483 852 502 875Q521 900 528 882Q534 866 532 837C529 811 529 811 527 798Q508 675 506 646C506 631 490 619 476 614Z"/>
<path id="z20272d6" d="M776 772Q806 667 842 641Q861 620 844 601Q826 586 768 558Q749 551 725 559Q673 578 625 590C592 597 592 597 575 600Q526 607 476 614C462 616 492 649 506 646C637 621 637 621 703 609Q725 605 735 614Q747 624 744 647Q734 713 719 767C713 785 772 791 776 772Z"/>
<path id="z20272d7" d="M532 837Q538 837 545 836Q624 821 793 814Q805 813 807 803Q807 794 776 772C761 761 738 763 719 767Q611 788 527 798C514 800 519 837 532 837Z"/>
<defs>
	<clipPath id="z20272c1"><use xlink:href="#z20272d1"/></clipPath>
	<clipPath id="z20272c2"><use xlink:href="#z20272d2"/></clipPath>
	<clipPath id="z20272c3"><use xlink:href="#z20272d3"/></clipPath>
	<clipPath id="z20272c4"><use xlink:href="#z20272d4"/></clipPath>
	<clipPath id="z20272c5"><use xlink:href="#z20272d5"/></clipPath>
	<clipPath id="z20272c6"><use xlink:href="#z20272d6"/></clipPath>
	<clipPath id="z20272c7"><use xlink:href="#z20272d7"/></clipPath>
</defs>
<path style="--d:1s;" pathLength="3333" clip-path="url(#z20272c1)" d="M312 119L358 189L236 399L74 591"/>
<path style="--d:2s;" pathLength="3333" clip-path="url(#z20272c2)" d="M270 401L294 478L268 900"/>
<path style="--d:3s;" pathLength="3333" clip-path="url(#z20272c3)" d="M364 445L421 452L831 376L941 380"/>
<path style="--d:4s;" pathLength="3333" clip-path="url(#z20272c4)" d="M596 119L656 190L602 582L585 594"/>
<path style="--d:5s;" pathLength="3333" clip-path="url(#z20272c5)" d="M433 613L476 660L518 884"/>
<path style="--d:6s;" pathLength="3333" clip-path="url(#z20272c6)" d="M483 615L756 588L798 631L731 767"/>
<path style="--d:7s;" pathLength="3333" clip-path="url(#z20272c7)" d="M534 804L801 801"/>
</svg>