<!--
AnimCJK 2016-2019 Copyright Francois Mizessyn - https://github.com/parsimonhi/animCJK
Derived from:
    MakeMeAHanzi project - https://github.com/skishore/makemeahanzi
    Arphic PL KaitiM GB font
    Arphic PL UKai font
You can redistribute and/or modify this file under the terms of the Arphic Public License
as published by Arphic Technology Co., Ltd.
You should have received a copy of this license along with this file.
If not, see http://ftp.gnu.org/non-gnu/chinese-fonts-truetype/LICENSE.
-->
<svg id="z20303" class="acjk" version="1.1" viewBox="0 0 1024 1024" xmlns="http://www.w3.org/2000/svg" xmlns:xlink="http://www.w3.org/1999/xlink">
<style>
<![CDATA[
@keyframes zk {
	to {
		stroke-dashoffset:0;
	}
}
svg.acjk path[clip-path] {
	--t:0.8s;
	animation:zk var(--t) linear forwards var(--d);
	stroke-dasharray:3337;
	stroke-dashoffset:3339;
	stroke-width:128;
	stroke-linecap:round;
	fill:none;
	stroke:#000;
}
svg.acjk path[id] {fill:#ccc;}
]]>
</style>
<path id="z20303d1" d="M255 420C288 378 323 328 359 270C379 236 395 211 412 195C419 187 420 178 417 168C414 158 402 144 381 129C361 114 344 108 331 109C317 109 312 118 319 135C328 157 329 178 321 197C294 260 262 322 223 382C185 438 139 498 87 562C80 570 75 575 74 580C70 588 75 592 86 590C114 583 159 536 228 453C246 431 246 431 255 420Z"/>
<path id="z20303d2" d="M228 453C228 457 231 460 234 465C245 486 250 523 251 575C251 661 242 738 226 809C219 838 226 871 250 905C250 905 251 906 253 908C264 919 275 915 283 897C293 870 297 841 297 810C294 643 294 541 301 504C304 485 305 473 299 466C273 437 258 422 255 420C245 410 225 439 228 453Z"/>
<path id="z20303d3" d="M569 183C591 199 613 219 637 240C647 249 659 252 671 252C679 251 685 246 688 236C690 224 688 207 681 185C676 170 662 155 637 147C581 128 546 122 536 128C531 130 530 138 533 148C535 156 548 167 569 183Z"/>
<path id="z20303d4" d="M640 376C681 369 723 360 767 352C805 344 828 337 834 333C840 328 842 322 839 316C834 307 822 300 802 295C784 290 737 304 659 323C569 344 493 352 431 359C406 361 402 369 420 382C445 400 478 404 519 396C540 391 563 388 586 385C622 379 622 379 640 376Z"/>
<path id="z20303d5" d="M648 600C668 596 713 588 785 582C791 581 800 580 805 570C808 562 797 556 783 548C771 541 754 538 730 539C710 541 674 550 649 556C616 563 616 563 600 567C576 572 522 577 440 587C421 589 419 595 434 608C452 624 476 631 508 625C534 619 565 613 600 608C632 603 632 603 648 600Z"/>
<path id="z20303d6" d="M643 772C643 711 646 654 648 600C649 571 649 571 649 556C651 445 655 393 653 389C649 382 644 378 640 376C624 367 579 368 586 385C594 399 600 459 600 567C600 594 600 594 600 608C600 654 599 710 599 778C599 793 643 787 643 772Z"/>
<path id="z20303d7" d="M599 778C524 788 442 793 354 801C339 802 336 808 347 821C356 831 368 838 380 842C394 846 407 846 419 844C564 809 725 800 900 814C912 814 930 811 934 805C938 797 934 787 923 778C887 749 856 739 831 744C783 753 720 761 643 772C614 776 614 776 599 778Z"/>
<defs>
	<clipPath id="z20303c1"><use xlink:href="#z20303d1"/></clipPath>
	<clipPath id="z20303c2"><use xlink:href="#z20303d2"/></clipPath>
	<clipPath id="z20303c3"><use xlink:href="#z20303d3"/></clipPath>
	<clipPath id="z20303c4"><use xlink:href="#z20303d4"/></clipPath>
	<clipPath id="z20303c5"><use xlink:href="#z20303d5"/></clipPath>
	<clipPath id="z20303c6"><use xlink:href="#z20303d6"/></clipPath>
	<clipPath id="z20303c7"><use xlink:href="#z20303d7"/></clipPath>
</defs>
<path style="--d:1s;" pathLength="3333" clip-path="url(#z20303c1)" d="M322 116L371 184L231 412L80 584"/>
<path style="--d:2s;" pathLength="3333" clip-path="url(#z20303c2)" d="M253 428L274 492L267 908"/>
<path style="--d:3s;" pathLength="3333" clip-path="url(#z20303c3)" d="M539 132L631 185L679 244"/>
<path style="--d:4s;" pathLength="3333" clip-path="url(#z20303c4)" d="M416 370L505 374L836 318"/>
<path style="--d:5s;" pathLength="3333" clip-path="url(#z20303c5)" d="M433 596L797 568"/>
<path style="--d:6s;" pathLength="3333" clip-path="url(#z20303c6)" d="M595 392L624 418L618 775"/>
<path style="--d:7s;" pathLength="3333" clip-path="url(#z20303c7)" d="M349 809L405 821L842 776L931 798"/>
</svg>