<!--
AnimCJK 2016-2019 Copyright Francois Mizessyn - https://github.com/parsimonhi/animCJK
Derived from:
    MakeMeAHanzi project - https://github.com/skishore/makemeahanzi
    Arphic PL KaitiM GB font
    Arphic PL UKai font
You can redistribute and/or modify this file under the terms of the Arphic Public License
as published by Arphic Technology Co., Ltd.
You should have received a copy of this license along with this file.
If not, see http://ftp.gnu.org/non-gnu/chinese-fonts-truetype/LICENSE.
-->
<svg id="z20313" class="acjk" version="1.1" viewBox="0 0 1024 1024" xmlns="http://www.w3.org/2000/svg" xmlns:xlink="http://www.w3.org/1999/xlink">
<style>
<![CDATA[
@keyframes zk {
	to {
		stroke-dashoffset:0;
	}
}
svg.acjk path[clip-path] {
	--t:0.8s;
	animation:zk var(--t) linear forwards var(--d);
	stroke-dasharray:3337;
	stroke-dashoffset:3339;
	stroke-width:128;
	stroke-linecap:round;
	fill:none;
	stroke:#000;
}
svg.acjk path[id] {fill:#ccc;}
]]>
</style>
<path id="z20313d1" d="M521 148C525 141 531 127 548 113C553 108 556 103 556 95C555 88 550 80 540 70C516 46 491 34 466 39C459 40 456 46 458 56C469 124 416 226 291 364C238 421 176 471 86 543C79 547 79 552 88 552C134 548 207 505 299 424C361 368 431 282 507 169C516 155 516 155 521 148Z"/>
<path id="z20313d2" d="M507 169C659 349 752 446 787 457C827 468 886 465 965 455C977 453 985 452 987 449C989 444 984 439 974 435C840 377 770 346 765 343C705 308 626 244 521 148C515 142 502 162 507 169Z"/>
<path id="z20313d3" d="M497 446C597 424 648 412 651 411C656 406 657 400 655 395C651 387 638 382 620 377C604 372 568 380 511 396C461 409 413 414 369 420C346 422 342 431 359 442C385 458 418 462 460 454C485 449 485 449 497 446Z"/>
<path id="z20313d4" d="M535 592C569 589 647 587 767 587C779 586 788 584 791 578C794 571 790 562 780 554C742 523 708 519 677 528C639 538 592 543 536 553C497 560 497 560 477 563C397 576 309 583 216 595C203 596 201 602 211 613C219 622 229 628 242 632C254 635 266 636 278 633C326 620 393 604 478 597C516 594 516 594 535 592Z"/>
<path id="z20313d5" d="M430 846C415 840 397 834 377 829C368 826 365 827 365 832C365 836 367 843 375 850C415 887 449 919 477 949C483 955 493 954 502 943C528 908 541 857 540 793C537 718 533 652 535 592C536 566 536 566 536 553C537 495 554 490 540 476C532 468 519 457 497 446C485 441 458 442 460 454C470 498 475 515 477 563C478 586 478 586 478 597C479 649 479 718 479 805C478 825 475 840 467 848C461 853 447 852 430 846Z"/>
<path id="z20313d6" d="M297 687C272 719 246 749 218 777C211 783 206 792 203 803C198 819 197 833 199 844C201 858 211 863 227 857C267 840 293 803 310 752C317 729 323 710 321 693C320 686 316 681 312 681C306 679 300 682 297 687Z"/>
<path id="z20313d7" d="M633 701C671 737 714 779 759 832C770 845 780 855 792 858C797 859 803 855 809 849C817 839 816 820 810 789C804 761 774 733 719 706C682 688 654 676 635 668C627 665 623 666 623 675C621 685 625 693 633 701Z"/>
<defs>
	<clipPath id="z20313c1"><use xlink:href="#z20313d1"/></clipPath>
	<clipPath id="z20313c2"><use xlink:href="#z20313d2"/></clipPath>
	<clipPath id="z20313c3"><use xlink:href="#z20313d3"/></clipPath>
	<clipPath id="z20313c4"><use xlink:href="#z20313d4"/></clipPath>
	<clipPath id="z20313c5"><use xlink:href="#z20313d5"/></clipPath>
	<clipPath id="z20313c6"><use xlink:href="#z20313d6"/></clipPath>
	<clipPath id="z20313c7"><use xlink:href="#z20313d7"/></clipPath>
</defs>
<path style="--d:1s;" pathLength="3333" clip-path="url(#z20313c1)" d="M466 43L504 107L406 263L266 421L90 546"/>
<path style="--d:2s;" pathLength="3333" clip-path="url(#z20313c2)" d="M521 154L775 397L980 444"/>
<path style="--d:3s;" pathLength="3333" clip-path="url(#z20313c3)" d="M356 428L651 403"/>
<path style="--d:4s;" pathLength="3333" clip-path="url(#z20313c4)" d="M213 603L710 554L787 570"/>
<path style="--d:5s;" pathLength="3333" clip-path="url(#z20313c5)" d="M467 461L507 499L499 865L474 901L371 837"/>
<path style="--d:6s;" pathLength="3333" clip-path="url(#z20313c6)" d="M311 685L204 851"/>
<path style="--d:7s;" pathLength="3333" clip-path="url(#z20313c7)" d="M629 672L752 768L807 847"/>
</svg>