<!--
AnimCJK 2016-2019 Copyright Francois Mizessyn - https://github.com/parsimonhi/animCJK
Derived from:
    MakeMeAHanzi project - https://github.com/skishore/makemeahanzi
    Arphic PL KaitiM GB font
    Arphic PL UKai font
You can redistribute and/or modify this file under the terms of the Arphic Public License
as published by Arphic Technology Co., Ltd.
You should have received a copy of this license along with this file.
If not, see http://ftp.gnu.org/non-gnu/chinese-fonts-truetype/LICENSE.
-->
<svg id="z20323" class="acjk" version="1.1" viewBox="0 0 1024 1024" xmlns="http://www.w3.org/2000/svg" xmlns:xlink="http://www.w3.org/1999/xlink">
<style>
<![CDATA[
@keyframes zk {
	to {
		stroke-dashoffset:0;
	}
}
svg.acjk path[clip-path] {
	--t:0.8s;
	animation:zk var(--t) linear forwards var(--d);
	stroke-dasharray:3337;
	stroke-dashoffset:3339;
	stroke-width:128;
	stroke-linecap:round;
	fill:none;
	stroke:#000;
}
svg.acjk path[id] {fill:#ccc;}
]]>
</style>
<path id="z20323d1" d="M235 367Q281 307 331 228Q358 179 383 155Q393 145 388 130Q384 117 353 92Q325 73 306 73Q287 74 295 98Q308 131 297 159Q258 252 200 338Q145 420 67 512Q57 522 54 529Q50 541 65 538Q101 535 208 400C226 378 226 378 235 367Z"/>
<path id="z20323d2" d="M208 400Q232 440 233 525Q233 664 205 773Q190 822 227 870Q228 873 232 876Q251 892 263 864Q278 822 278 774Q278 515 286 455Q293 427 283 416Q265 394 251 380Q244 373 235 367C224 358 202 387 208 400Z"/>
<path id="z20323d3" d="M457 233Q444 224 424 218Q405 211 393 216Q383 223 390 236Q406 254 414 309Q414 327 415 347Q424 506 393 627Q372 714 304 850Q300 857 298 863Q297 873 307 870Q320 867 353 818Q467 659 469 354Q469 291 473 271C476 258 468 241 457 233Z"/>
<path id="z20323d4" d="M606 240Q670 225 744 215Q765 211 775 223Q788 230 795 294Q814 508 806 752Q806 788 793 798Q780 811 704 808Q688 807 690 817Q693 824 706 828Q776 862 814 892Q836 911 849 907Q861 903 870 874Q883 828 877 761Q852 427 851 304Q851 267 862 243Q872 221 863 210Q853 195 806 173Q785 164 717 184Q578 217 457 233C444 236 460 276 473 271Q492 265 567 249C593 243 593 243 606 240Z"/>
<path id="z20323d5" d="M642 443Q688 433 730 426Q755 422 745 408Q733 393 707 389Q683 386 643 400C610 410 610 410 593 415Q550 427 515 438Q497 442 520 457Q530 464 552 460Q571 456 593 452C626 446 626 446 642 443Z"/>
<path id="z20323d6" d="M640 585Q692 573 738 566Q763 562 753 548Q741 533 715 529Q690 526 647 539Q643 540 640 542C607 551 607 551 591 556Q542 569 499 582Q481 586 504 601Q516 610 539 605Q563 599 590 595C623 588 623 588 640 585Z"/>
<path id="z20323d7" d="M591 832Q595 856 602 865Q608 872 615 870Q628 861 635 805Q639 757 640 585C640 556 640 556 640 542Q640 499 642 443C643 414 643 414 643 400Q643 331 655 287Q658 271 644 261Q620 245 606 240C594 235 562 237 567 249Q579 286 593 325Q592 326 593 329Q593 368 593 415C593 440 593 440 593 452Q592 500 591 556C590 582 590 582 590 595Q583 751 591 832Z"/>
<defs>
	<clipPath id="z20323c1"><use xlink:href="#z20323d1"/></clipPath>
	<clipPath id="z20323c2"><use xlink:href="#z20323d2"/></clipPath>
	<clipPath id="z20323c3"><use xlink:href="#z20323d3"/></clipPath>
	<clipPath id="z20323c4"><use xlink:href="#z20323d4"/></clipPath>
	<clipPath id="z20323c5"><use xlink:href="#z20323d5"/></clipPath>
	<clipPath id="z20323c6"><use xlink:href="#z20323d6"/></clipPath>
	<clipPath id="z20323c7"><use xlink:href="#z20323d7"/></clipPath>
</defs>
<path style="--d:1s;" pathLength="3333" clip-path="url(#z20323c1)" d="M300 78L345 144L209 364L61 531"/>
<path style="--d:2s;" pathLength="3333" clip-path="url(#z20323c2)" d="M235 375L257 436L240 877"/>
<path style="--d:3s;" pathLength="3333" clip-path="url(#z20323c3)" d="M395 221L440 273L433 532L396 691L307 862"/>
<path style="--d:4s;" pathLength="3333" clip-path="url(#z20323c4)" d="M467 238L762 193L827 234L837 815L817 862L700 816"/>
<path style="--d:5s;" pathLength="3333" clip-path="url(#z20323c5)" d="M517 446L741 415"/>
<path style="--d:6s;" pathLength="3333" clip-path="url(#z20323c6)" d="M498 587L749 554"/>
<path style="--d:7s;" pathLength="3333" clip-path="url(#z20323c7)" d="M576 256L621 294L610 864"/>
</svg>