<!--
AnimCJK 2016-2018 Copyright Francois Mizessyn - https://github.com/parsimonhi/animCJK
Derived from:
    MakeMeAHanzi project - https://github.com/skishore/makemeahanzi
    Arphic PL KaitiM GB - https://apps.ubuntu.com/cat/applications/precise/fonts-arphic-gkai00mp/
    Arphic PL UKai - https://apps.ubuntu.com/cat/applications/fonts-arphic-ukai/
You can redistribute and/or modify this file under the terms of the Arphic Public License
as published by Arphic Technology Co., Ltd.
You should have received a copy of this license (the directory "APL") along with this file;
if not, see http://ftp.gnu.org/non-gnu/chinese-fonts-truetype/LICENSE.
-->
<svg id="z20387" class="acjk" version="1.1" viewBox="0 0 1024 1024" xmlns="http://www.w3.org/2000/svg" xmlns:xlink="http://www.w3.org/1999/xlink">
<style>
<![CDATA[
@keyframes z20387k {
	from {
		stroke:#ccc;
		stroke-dashoffset:3334;
	}
	1% {
		stroke:#c00;
		stroke-dashoffset:3334;
	}
	75% {
		stroke:#c00;
		stroke-dashoffset:0;
	}
	to {
		stroke:#000;
	}
}
#z20387 path[clip-path] {
	animation:z20387k 1s linear both;
	stroke-dasharray:3334;
	stroke-width:128;
	stroke-linecap:round;
	fill:none;
}
#z20387 path[clip-path="url(#z20387c1)"] {animation-delay:1s;}
#z20387 path[clip-path="url(#z20387c2)"] {animation-delay:2s;}
#z20387 path[clip-path="url(#z20387c3)"] {animation-delay:3s;}
#z20387 path[clip-path="url(#z20387c4)"] {animation-delay:4s;}
#z20387 path[clip-path="url(#z20387c5)"] {animation-delay:5s;}
#z20387 path[clip-path="url(#z20387c6)"] {animation-delay:6s;}
#z20387 path[clip-path="url(#z20387c7)"] {animation-delay:7s;}
#z20387 path[clip-path="url(#z20387c8)"] {animation-delay:8s;}
#z20387 path {fill:#ccc;}
]]>
</style>
<path id="z20387d1" d="M250 381Q289 326 333 254Q360 203 385 178Q395 166 390 151Q386 138 353 113Q323 94 302 94Q281 95 291 120Q307 154 294 182Q257 279 199 368Q144 455 67 550Q57 562 54 568Q50 581 66 578Q99 569 201 446Q204 437 226 413C242 392 242 392 250 381Z"/>
<path id="z20387d2" d="M226 413Q229 422 234 429Q265 487 246 673Q239 725 226 781Q216 826 250 877Q251 877 253 880Q271 896 283 869Q298 829 297 782Q294 526 301 468Q308 441 299 430Q257 385 250 381C239 373 221 401 226 413Z"/>
<path id="z20387d3" d="M482 241Q470 237 445 231Q432 227 429 233Q422 239 431 255Q458 313 473 409Q476 437 492 456Q510 478 515 463Q518 453 519 438C518 414 518 414 517 402Q502 306 499 274C497 262 493 246 482 241Z"/>
<path id="z20387d4" d="M733 370Q763 289 793 269Q811 250 796 232Q780 219 725 192Q707 183 632 210Q541 231 482 241C470 243 487 276 499 274Q509 273 669 242Q688 238 696 246Q709 261 680 368C674 385 726 386 733 370Z"/>
<path id="z20387d5" d="M519 438Q526 439 539 437Q606 421 751 409Q763 408 764 398Q764 389 733 370C718 361 697 365 680 368Q589 390 517 402C505 404 507 438 519 438Z"/>
<path id="z20387d6" d="M417 564Q413 563 410 563Q397 559 393 565Q386 572 395 589Q429 665 447 786Q450 823 470 847Q489 872 496 854Q502 838 500 809C497 784 497 784 496 771Q474 644 471 607C467 584 440 569 417 564Z"/>
<path id="z20387d7" d="M784 740Q815 644 856 611Q877 589 860 568Q841 552 779 519Q758 509 732 519Q518 586 417 564C394 559 448 611 471 607Q474 607 706 572Q731 568 742 578Q754 591 750 615Q737 681 721 736C717 757 776 760 784 740Z"/>
<path id="z20387d8" d="M500 809Q510 810 521 808Q609 792 801 782Q813 781 815 771Q815 762 784 740C767 727 742 732 721 736Q595 761 496 771C484 773 487 809 500 809Z"/>
<defs>
	<clipPath id="z20387c1"><use xlink:href="#z20387d1"></use></clipPath>
	<clipPath id="z20387c2"><use xlink:href="#z20387d2"></use></clipPath>
	<clipPath id="z20387c3"><use xlink:href="#z20387d3"></use></clipPath>
	<clipPath id="z20387c4"><use xlink:href="#z20387d4"></use></clipPath>
	<clipPath id="z20387c5"><use xlink:href="#z20387d5"></use></clipPath>
	<clipPath id="z20387c6"><use xlink:href="#z20387d6"></use></clipPath>
	<clipPath id="z20387c7"><use xlink:href="#z20387d7"></use></clipPath>
	<clipPath id="z20387c8"><use xlink:href="#z20387d8"></use></clipPath>
</defs>
<path pathLength="3333" clip-path="url(#z20387c1)" d="M296 103L344 169L208 398L61 572"/>
<path pathLength="3333" clip-path="url(#z20387c2)" d="M251 387L275 468L262 881"/>
<path pathLength="3333" clip-path="url(#z20387c3)" d="M434 233L471 281L506 463"/>
<path pathLength="3333" clip-path="url(#z20387c4)" d="M492 246L696 216L730 230L751 256L696 368"/>
<path pathLength="3333" clip-path="url(#z20387c5)" d="M527 431L676 392L755 398"/>
<path pathLength="3333" clip-path="url(#z20387c6)" d="M399 569L441 621L485 854"/>
<path pathLength="3333" clip-path="url(#z20387c7)" d="M429 569L479 588L764 550L814 593L744 737"/>
<path pathLength="3333" clip-path="url(#z20387c8)" d="M504 776L808 768"/>
</svg>