<!--
AnimCJK 2016-2019 Copyright Francois Mizessyn - https://github.com/parsimonhi/animCJK
Derived from:
    MakeMeAHanzi project - https://github.com/skishore/makemeahanzi
    Arphic PL KaitiM GB font
    Arphic PL UKai font
You can redistribute and/or modify this file under the terms of the Arphic Public License
as published by Arphic Technology Co., Ltd.
You should have received a copy of this license along with this file.
If not, see http://ftp.gnu.org/non-gnu/chinese-fonts-truetype/LICENSE.
-->
<svg id="z20391" class="acjk" version="1.1" viewBox="0 0 1024 1024" xmlns="http://www.w3.org/2000/svg" xmlns:xlink="http://www.w3.org/1999/xlink">
<style>
<![CDATA[
@keyframes zk {
	to {
		stroke-dashoffset:0;
	}
}
svg.acjk path[clip-path] {
	--t:0.8s;
	animation:zk var(--t) linear forwards var(--d);
	stroke-dasharray:3337;
	stroke-dashoffset:3339;
	stroke-width:128;
	stroke-linecap:round;
	fill:none;
	stroke:#000;
}
svg.acjk path[id] {fill:#ccc;}
]]>
</style>
<path id="z20391d1" d="M229 364Q266 306 306 233Q331 181 354 154Q364 142 358 128Q352 115 322 93Q292 75 273 77Q254 80 263 103Q279 136 269 165Q235 262 180 356Q128 444 53 543Q43 555 41 561Q38 574 53 570Q92 560 188 422Q195 410 206 398C221 375 221 375 229 364Z"/>
<path id="z20391d2" d="M206 398Q230 459 231 514Q231 661 202 773Q192 818 226 869Q227 869 229 872Q247 888 259 861Q274 821 273 774Q273 512 281 452Q288 425 279 414Q237 369 229 364C218 356 201 385 206 398Z"/>
<path id="z20391d3" d="M399 243Q380 230 359 224Q350 223 345 230Q342 234 349 245Q391 338 365 524Q350 587 355 604Q364 634 374 645Q384 657 393 644Q417 610 413 424Q413 301 416 267C416 257 407 249 399 243Z"/>
<path id="z20391d4" d="M549 587Q542 606 554 625Q566 650 574 650Q587 649 600 620Q613 598 612 580Q599 486 600 339Q600 296 623 260Q632 247 625 238Q601 219 561 202Q548 198 529 204Q472 234 399 243C389 245 406 269 416 267Q477 255 540 242Q541 242 544 244Q556 269 560 339Q561 547 549 587Z"/>
<path id="z20391d5" d="M463 388Q475 613 419 704Q407 719 390 736Q365 761 305 796Q295 800 293 803Q289 807 302 809Q336 813 415 761Q508 695 505 475Q509 381 516 362Q520 353 512 348Q499 336 470 326Q454 320 441 325Q426 332 439 344Q461 365 463 388Z"/>
<path id="z20391d6" d="M530 730Q558 761 587 798Q596 810 608 812Q615 813 621 803Q627 793 624 769Q623 739 533 693Q521 689 516 690Q512 691 511 702Q512 711 530 730Z"/>
<path id="z20391d7" d="M670 325Q692 382 681 510Q678 537 701 566Q710 576 718 565Q731 544 732 458Q732 370 735 350Q741 331 722 320Q709 311 693 304Q683 300 674 306Q667 312 670 325Z"/>
<path id="z20391d8" d="M808 197Q812 231 819 759Q819 781 807 790Q803 793 747 790Q713 777 715 788Q716 795 738 811Q796 862 810 890Q826 923 841 924Q857 925 872 887Q891 838 888 758Q846 305 883 166Q901 133 840 110Q803 91 783 100Q764 107 782 131Q806 159 808 197Z"/>
<defs>
	<clipPath id="z20391c1"><use xlink:href="#z20391d1"/></clipPath>
	<clipPath id="z20391c2"><use xlink:href="#z20391d2"/></clipPath>
	<clipPath id="z20391c3"><use xlink:href="#z20391d3"/></clipPath>
	<clipPath id="z20391c4"><use xlink:href="#z20391d4"/></clipPath>
	<clipPath id="z20391c5"><use xlink:href="#z20391d5"/></clipPath>
	<clipPath id="z20391c6"><use xlink:href="#z20391d6"/></clipPath>
	<clipPath id="z20391c7"><use xlink:href="#z20391d7"/></clipPath>
	<clipPath id="z20391c8"><use xlink:href="#z20391d8"/></clipPath>
</defs>
<path style="--d:1s;" pathLength="3333" clip-path="url(#z20391c1)" d="M268 82L312 155L197 372L50 564"/>
<path style="--d:2s;" pathLength="3333" clip-path="url(#z20391c2)" d="M230 370L254 510L236 872"/>
<path style="--d:3s;" pathLength="3333" clip-path="url(#z20391c3)" d="M350 232L390 280L379 646"/>
<path style="--d:4s;" pathLength="3333" clip-path="url(#z20391c4)" d="M408 246L541 222L590 257L574 646"/>
<path style="--d:5s;" pathLength="3333" clip-path="url(#z20391c5)" d="M440 336L489 367L464 649L409 742L300 802"/>
<path style="--d:6s;" pathLength="3333" clip-path="url(#z20391c6)" d="M519 698L613 806"/>
<path style="--d:7s;" pathLength="3333" clip-path="url(#z20391c7)" d="M677 310L707 350L706 566"/>
<path style="--d:8s;" pathLength="3333" clip-path="url(#z20391c8)" d="M778 110L845 163L852 786L829 872L719 790"/>
</svg>