<!--
AnimCJK 2016-2018 Copyright Francois Mizessyn - https://github.com/parsimonhi/animCJK
Derived from:
    MakeMeAHanzi project - https://github.com/skishore/makemeahanzi
    Arphic PL KaitiM GB - https://apps.ubuntu.com/cat/applications/precise/fonts-arphic-gkai00mp/
    Arphic PL UKai - https://apps.ubuntu.com/cat/applications/fonts-arphic-ukai/
You can redistribute and/or modify this file under the terms of the Arphic Public License
as published by Arphic Technology Co., Ltd.
You should have received a copy of this license (the directory "APL") along with this file;
if not, see http://ftp.gnu.org/non-gnu/chinese-fonts-truetype/LICENSE.
-->
<svg id="z20393" class="acjk" version="1.1" viewBox="0 0 1024 1024" xmlns="http://www.w3.org/2000/svg" xmlns:xlink="http://www.w3.org/1999/xlink">
<style>
<![CDATA[
@keyframes z20393k {
	from {
		stroke:#ccc;
		stroke-dashoffset:3334;
	}
	1% {
		stroke:#c00;
		stroke-dashoffset:3334;
	}
	75% {
		stroke:#c00;
		stroke-dashoffset:0;
	}
	to {
		stroke:#000;
	}
}
#z20393 path[clip-path] {
	animation:z20393k 1s linear both;
	stroke-dasharray:3334;
	stroke-width:128;
	stroke-linecap:round;
	fill:none;
}
#z20393 path[clip-path="url(#z20393c1)"] {animation-delay:1s;}
#z20393 path[clip-path="url(#z20393c2)"] {animation-delay:2s;}
#z20393 path[clip-path="url(#z20393c3)"] {animation-delay:3s;}
#z20393 path[clip-path="url(#z20393c4)"] {animation-delay:4s;}
#z20393 path[clip-path="url(#z20393c5)"] {animation-delay:5s;}
#z20393 path[clip-path="url(#z20393c6)"] {animation-delay:6s;}
#z20393 path[clip-path="url(#z20393c7)"] {animation-delay:7s;}
#z20393 path[clip-path="url(#z20393c8)"] {animation-delay:8s;}
#z20393 path {fill:#ccc;}
]]>
</style>
<path id="z20393d1" d="M218 418Q273 346 334 242Q361 190 385 164Q395 152 390 138Q384 125 353 101Q325 82 304 83Q283 86 293 109Q309 143 297 172Q233 340 70 547Q60 557 58 565Q54 577 69 574Q105 565 196 447C211 428 211 428 218 418Z"></path>
<path id="z20393d2" d="M196 447Q199 459 205 468Q233 537 211 699Q204 748 190 801Q180 846 214 897Q215 897 217 900Q235 916 247 889Q262 849 261 802Q264 562 273 508Q280 481 271 470Q229 424 218 418C208 411 194 435 196 447Z"></path>
<path id="z20393d3" d="M599 208Q609 192 622 181Q632 171 627 157Q623 144 594 120Q566 101 547 102Q528 103 536 126Q551 159 538 185Q474 341 311 533Q301 543 298 549Q295 561 309 558Q363 552 529 319Q548 289 571 254Q578 239 586 227C595 214 595 214 599 208Z"></path>
<path id="z20393d4" d="M586 227Q668 342 775 464Q793 483 823 483Q925 480 957 474Q967 473 968 467Q968 463 955 455Q802 401 728 332Q667 277 599 208C594 203 581 221 586 227Z"></path>
<path id="z20393d5" d="M456 480Q422 487 447 502Q487 526 541 510Q602 497 666 483Q694 476 700 471Q707 464 703 455Q696 445 668 438Q638 432 610 445Q577 457 542 466Q502 475 456 480Z"></path>
<path id="z20393d6" d="M561 624Q664 606 801 606Q820 605 824 597Q828 585 813 573Q758 537 703 555Q528 591 363 619Q344 622 358 637Q371 649 389 654Q408 658 423 653Q463 641 509 633C544 627 544 627 561 624Z"></path>
<path id="z20393d7" d="M710 763Q604 775 495 790Q488 791 485 789Q484 786 488 780Q554 683 580 659Q593 646 585 637Q578 630 561 624C545 617 506 616 509 633Q509 636 511 642Q515 660 501 690Q485 726 455 762Q437 783 402 803Q377 813 376 823Q375 839 384 857Q393 876 405 881Q412 884 423 879Q496 833 721 781C728 780 717 762 710 763Z"></path>
<path id="z20393d8" d="M721 781Q782 880 784 882Q791 886 801 878Q816 869 814 826Q815 769 682 676Q675 669 670 680Q666 690 710 763C717 775 717 775 721 781Z"></path>
<defs>
	<clipPath id="z20393c1"><use xlink:href="#z20393d1"></use></clipPath>
	<clipPath id="z20393c2"><use xlink:href="#z20393d2"></use></clipPath>
	<clipPath id="z20393c3"><use xlink:href="#z20393d3"></use></clipPath>
	<clipPath id="z20393c4"><use xlink:href="#z20393d4"></use></clipPath>
	<clipPath id="z20393c5"><use xlink:href="#z20393d5"></use></clipPath>
	<clipPath id="z20393c6"><use xlink:href="#z20393d6"></use></clipPath>
	<clipPath id="z20393c7"><use xlink:href="#z20393d7"></use></clipPath>
	<clipPath id="z20393c8"><use xlink:href="#z20393d8"></use></clipPath>
</defs>
<path pathLength="3333" clip-path="url(#z20393c1)" d="M297 93L345 155L213 386L65 566"></path>
<path pathLength="3333" clip-path="url(#z20393c2)" d="M220 425L245 492L226 901"></path>
<path pathLength="3333" clip-path="url(#z20393c3)" d="M541 107L585 161L577 183L439 404L306 551"></path>
<path pathLength="3333" clip-path="url(#z20393c4)" d="M602 221L803 434L959 466"></path>
<path pathLength="3333" clip-path="url(#z20393c5)" d="M449 492L696 461"></path>
<path pathLength="3333" clip-path="url(#z20393c6)" d="M362 630L724 578L821 591"></path>
<path pathLength="3333" clip-path="url(#z20393c7)" d="M582 642L534 658L429 808L435 837L713 775"></path>
<path pathLength="3333" clip-path="url(#z20393c8)" d="M676 682L775 807L800 875"></path>
</svg>