<!--
AnimCJK 2016-2019 Copyright Francois Mizessyn - https://github.com/parsimonhi/animCJK
Derived from:
    MakeMeAHanzi project - https://github.com/skishore/makemeahanzi
    Arphic PL KaitiM GB font
    Arphic PL UKai font
You can redistribute and/or modify this file under the terms of the Arphic Public License
as published by Arphic Technology Co., Ltd.
You should have received a copy of this license along with this file.
If not, see http://ftp.gnu.org/non-gnu/chinese-fonts-truetype/LICENSE.
-->
<svg id="z20415" class="acjk" version="1.1" viewBox="0 0 1024 1024" xmlns="http://www.w3.org/2000/svg" xmlns:xlink="http://www.w3.org/1999/xlink">
<style>
<![CDATA[
@keyframes zk {
	to {
		stroke-dashoffset:0;
	}
}
svg.acjk path[clip-path] {
	--t:0.8s;
	animation:zk var(--t) linear forwards var(--d);
	stroke-dasharray:3337;
	stroke-dashoffset:3339;
	stroke-width:128;
	stroke-linecap:round;
	fill:none;
	stroke:#000;
}
svg.acjk path[id] {fill:#ccc;}
]]>
</style>
<path id="z20415d1" d="M227 370C255 334 283 292 312 245C331 213 347 188 363 173C370 165 371 156 368 147C365 138 354 124 333 109C314 95 298 89 284 89C271 89 266 98 273 115C280 136 282 155 275 174C250 234 219 293 181 351C144 405 101 463 51 523C44 530 39 535 38 541C35 549 39 552 50 550C76 542 143 473 202 401C219 380 219 380 227 370Z"/>
<path id="z20415d2" d="M202 401C204 407 207 413 211 419C232 457 236 542 223 673C219 709 211 746 202 785C195 814 202 847 226 881C226 881 227 882 229 884C240 895 251 891 259 873C269 846 273 817 273 786C270 606 270 495 277 456C280 437 281 425 275 418C248 389 232 373 227 370C216 362 197 389 202 401Z"/>
<path id="z20415d3" d="M600 179C701 157 756 145 763 141C769 136 770 130 767 124C762 115 750 109 730 105C713 101 671 111 603 131C555 144 509 148 466 154C441 156 437 167 455 178C476 190 504 199 535 193C578 184 578 184 600 179Z"/>
<path id="z20415d4" d="M410 322C402 319 391 318 380 316C371 314 367 315 365 319C361 323 361 330 368 341C391 383 410 440 424 512C428 533 434 551 447 565C460 579 467 581 471 570C473 562 473 562 473 558C472 537 472 537 472 526C470 488 441 377 437 355C434 341 424 325 410 322Z"/>
<path id="z20415d5" d="M722 533C724 545 730 552 740 552C750 551 758 544 766 535C775 523 791 490 813 435C827 398 849 371 877 352C891 341 893 329 883 318C871 305 847 288 813 265C802 257 771 261 720 270C704 272 671 275 621 285C586 292 586 292 568 295C513 305 443 317 410 322C396 324 425 362 437 355C443 348 486 337 569 324C602 319 602 319 619 316C709 301 760 294 774 303C780 307 781 321 775 345C772 355 755 408 723 504C720 513 720 524 722 533Z"/>
<path id="z20415d6" d="M620 432C647 426 674 423 699 419C713 416 718 410 713 403C706 394 695 387 679 385C664 382 644 386 620 394C587 403 587 403 571 408C544 415 519 421 495 428C484 430 485 436 498 445C504 449 515 451 529 449C543 446 557 444 571 442C604 435 604 435 620 432Z"/>
<path id="z20415d7" d="M618 541C648 538 682 535 722 533C732 533 731 510 723 504C709 490 674 493 618 504C585 510 585 510 568 513C533 519 501 522 472 526C461 528 462 558 473 558C475 558 480 558 488 557C508 552 535 549 567 546C601 543 601 543 618 541Z"/>
<path id="z20415d8" d="M618 541C619 456 617 372 621 285C622 262 627 238 634 215C636 206 634 200 629 196C620 189 611 183 600 179C579 172 519 177 535 193C553 211 564 229 566 249C567 263 567 279 568 295C571 378 570 475 567 546C565 571 571 654 526 709C494 747 440 797 343 843C334 846 329 848 327 851C323 854 326 857 337 859C346 860 366 860 406 847C436 837 450 830 486 811C527 788 557 755 566 744C612 686 616 622 618 541Z"/>
<path id="z20415d9" d="M566 744C687 850 758 904 768 908C783 913 830 909 908 898C912 897 916 896 922 896C946 891 963 885 972 881C984 874 985 869 973 864C963 859 909 847 811 827C768 818 694 778 590 705C561 684 561 684 546 674C469 619 418 585 390 586C378 586 366 588 356 591C347 593 342 596 343 601C343 605 348 611 359 612C392 614 435 632 485 675C499 686 513 697 526 709C553 732 553 732 566 744Z"/>
<defs>
	<clipPath id="z20415c1"><use xlink:href="#z20415d1"/></clipPath>
	<clipPath id="z20415c2"><use xlink:href="#z20415d2"/></clipPath>
	<clipPath id="z20415c3"><use xlink:href="#z20415d3"/></clipPath>
	<clipPath id="z20415c4"><use xlink:href="#z20415d4"/></clipPath>
	<clipPath id="z20415c5"><use xlink:href="#z20415d5"/></clipPath>
	<clipPath id="z20415c6"><use xlink:href="#z20415d6"/></clipPath>
	<clipPath id="z20415c7"><use xlink:href="#z20415d7"/></clipPath>
	<clipPath id="z20415c8"><use xlink:href="#z20415d8"/></clipPath>
	<clipPath id="z20415c9"><use xlink:href="#z20415d9"/></clipPath>
</defs>
<path style="--d:1s;" pathLength="3333" clip-path="url(#z20415c1)" d="M278 98L321 165L200 366L45 546"/>
<path style="--d:2s;" pathLength="3333" clip-path="url(#z20415c2)" d="M225 379L251 445L240 886"/>
<path style="--d:3s;" pathLength="3333" clip-path="url(#z20415c3)" d="M450 165L761 129"/>
<path style="--d:4s;" pathLength="3333" clip-path="url(#z20415c4)" d="M367 323L411 368L456 572"/>
<path style="--d:5s;" pathLength="3333" clip-path="url(#z20415c5)" d="M421 325L798 287L834 340L741 548"/>
<path style="--d:6s;" pathLength="3333" clip-path="url(#z20415c6)" d="M498 437L708 403"/>
<path style="--d:7s;" pathLength="3333" clip-path="url(#z20415c7)" d="M478 550L721 513"/>
<path style="--d:8s;" pathLength="3333" clip-path="url(#z20415c8)" d="M543 194L598 217L573 668L505 774L335 850"/>
<path style="--d:9s;" pathLength="3333" clip-path="url(#z20415c9)" d="M349 601L456 630L785 866L973 872"/>
</svg>