<!--
AnimCJK 2016-2019 Copyright Francois Mizessyn - https://github.com/parsimonhi/animCJK
Derived from:
    MakeMeAHanzi project - https://github.com/skishore/makemeahanzi
    Arphic PL KaitiM GB font
    Arphic PL UKai font
You can redistribute and/or modify this file under the terms of the Arphic Public License
as published by Arphic Technology Co., Ltd.
You should have received a copy of this license along with this file.
If not, see http://ftp.gnu.org/non-gnu/chinese-fonts-truetype/LICENSE.
-->
<svg id="z20454" class="acjk" version="1.1" viewBox="0 0 1024 1024" xmlns="http://www.w3.org/2000/svg" xmlns:xlink="http://www.w3.org/1999/xlink">
<style>
<![CDATA[
@keyframes zk {
	to {
		stroke-dashoffset:0;
	}
}
svg.acjk path[clip-path] {
	--t:0.8s;
	animation:zk var(--t) linear forwards var(--d);
	stroke-dasharray:3337;
	stroke-dashoffset:3339;
	stroke-width:128;
	stroke-linecap:round;
	fill:none;
	stroke:#000;
}
svg.acjk path[id] {fill:#ccc;}
]]>
</style>
<path id="z20454d1" d="M230 416C265 373 301 321 337 261C357 227 374 200 392 183C399 175 400 166 397 156C394 146 382 132 361 117C341 102 324 96 311 97C297 97 292 106 299 123C308 146 309 166 301 187C273 253 239 317 198 379C157 438 109 501 55 566C48 574 43 579 42 584C38 592 43 596 54 594C82 588 129 538 203 449C221 427 221 427 230 416Z"/>
<path id="z20454d2" d="M203 449Q227 510 228 565Q228 710 202 817Q192 862 226 913Q227 913 229 916Q247 932 259 905Q274 865 273 818Q269 559 277 500Q284 473 275 462Q236 420 230 416C220 406 198 436 203 449Z"/>
<path id="z20454d3" d="M608 263C642 255 679 248 717 241C747 235 765 228 771 223C776 218 778 212 775 207C770 200 758 193 740 189C721 184 681 199 617 215C576 225 576 225 556 230C517 239 476 241 433 248C410 251 406 259 423 270C448 286 481 290 520 281C528 279 537 277 549 275C588 267 588 267 608 263Z"/>
<path id="z20454d4" d="M581 380C595 376 645 365 732 354C738 353 746 352 750 344C752 337 743 331 730 324C707 312 668 316 610 334C604 335 596 338 592 339C553 347 553 347 533 351C485 360 451 362 431 366C414 368 412 375 426 385C448 401 483 400 524 392C562 384 562 384 581 380Z"/>
<path id="z20454d5" d="M545 494C644 473 754 466 873 466C885 465 893 462 896 457C899 449 895 440 885 433C851 410 822 402 801 408C752 420 685 435 599 450C585 452 571 455 558 458C520 465 520 465 501 468C453 476 403 482 351 491C338 493 336 499 346 509C354 517 365 523 377 526C389 528 401 528 411 525C435 517 460 511 487 506C526 498 526 498 545 494Z"/>
<path id="z20454d6" d="M558 458C567 431 574 405 581 380C588 353 588 353 592 339C598 313 603 288 608 263C614 231 614 231 617 215C625 170 631 142 637 133C642 122 646 112 641 104C631 90 614 79 594 67C581 58 570 54 561 58C551 61 548 70 554 80C565 100 570 129 566 169C564 185 560 202 558 220C557 222 556 226 556 230C551 260 551 260 549 275C545 299 538 324 533 351C527 378 527 378 524 392C518 417 510 442 501 468C492 493 492 493 487 506C449 607 384 706 305 805C301 809 298 813 297 817C294 825 296 827 305 827C315 826 335 808 369 776C436 710 499 619 545 494C554 470 554 470 558 458Z"/>
<path id="z20454d7" d="M749 637C768 634 801 628 884 621C890 620 899 619 904 610C907 602 896 596 883 588C847 566 803 580 752 591C717 598 717 598 700 602C668 608 608 614 521 624C502 626 500 631 514 644C533 661 553 669 575 665C611 657 653 650 701 644C733 639 733 639 749 637Z"/>
<path id="z20454d8" d="M602 829C593 827 590 828 591 834C591 838 595 841 602 847C647 884 676 916 695 939C704 950 715 951 724 942C746 919 757 886 756 842C755 823 748 649 749 637C751 606 751 606 752 591C752 580 756 571 761 563C767 551 764 541 754 533C737 519 719 508 701 502C689 497 680 498 676 503C671 507 673 514 680 524C695 548 699 574 700 602C701 630 701 630 701 644C703 762 698 827 686 838C681 842 674 843 664 841C623 833 623 833 602 829Z"/>
<path id="z20454d9" d="M513 722C530 736 546 753 564 772C570 778 578 782 588 782C594 782 598 778 601 771C603 763 602 751 599 735C596 723 586 711 568 703C526 684 500 676 492 681C488 682 488 688 489 695C489 701 498 710 513 722Z"/>
<defs>
	<clipPath id="z20454c1"><use xlink:href="#z20454d1"/></clipPath>
	<clipPath id="z20454c2"><use xlink:href="#z20454d2"/></clipPath>
	<clipPath id="z20454c3"><use xlink:href="#z20454d3"/></clipPath>
	<clipPath id="z20454c4"><use xlink:href="#z20454d4"/></clipPath>
	<clipPath id="z20454c5"><use xlink:href="#z20454d5"/></clipPath>
	<clipPath id="z20454c6"><use xlink:href="#z20454d6"/></clipPath>
	<clipPath id="z20454c7"><use xlink:href="#z20454d7"/></clipPath>
	<clipPath id="z20454c8"><use xlink:href="#z20454d8"/></clipPath>
	<clipPath id="z20454c9"><use xlink:href="#z20454d9"/></clipPath>
</defs>
<path style="--d:1s;" pathLength="3333" clip-path="url(#z20454c1)" d="M304 104L350 177L204 412L49 588"/>
<path style="--d:2s;" pathLength="3333" clip-path="url(#z20454c2)" d="M228 424L250 518L236 917"/>
<path style="--d:3s;" pathLength="3333" clip-path="url(#z20454c3)" d="M421 257L495 262L772 210"/>
<path style="--d:4s;" pathLength="3333" clip-path="url(#z20454c4)" d="M423 373L741 341"/>
<path style="--d:5s;" pathLength="3333" clip-path="url(#z20454c5)" d="M351 503L802 437L893 450"/>
<path style="--d:6s;" pathLength="3333" clip-path="url(#z20454c6)" d="M563 61L605 124L533 452L429 669L303 821"/>
<path style="--d:7s;" pathLength="3333" clip-path="url(#z20454c7)" d="M513 633L896 604"/>
<path style="--d:8s;" pathLength="3333" clip-path="url(#z20454c8)" d="M680 507L730 562L723 846L694 894L597 834"/>
<path style="--d:9s;" pathLength="3333" clip-path="url(#z20454c9)" d="M496 689L571 738L586 776"/>
</svg>