<!--
AnimCJK 2016-2018 Copyright Francois Mizessyn - https://github.com/parsimonhi/animCJK
Derived from:
    MakeMeAHanzi project - https://github.com/skishore/makemeahanzi
    Arphic PL KaitiM GB - https://apps.ubuntu.com/cat/applications/precise/fonts-arphic-gkai00mp/
    Arphic PL UKai - https://apps.ubuntu.com/cat/applications/fonts-arphic-ukai/
You can redistribute and/or modify this file under the terms of the Arphic Public License
as published by Arphic Technology Co., Ltd.
You should have received a copy of this license (the directory "APL") along with this file;
if not, see http://ftp.gnu.org/non-gnu/chinese-fonts-truetype/LICENSE.
-->
<svg id="z20469" class="acjk" version="1.1" viewBox="0 0 1024 1024" xmlns="http://www.w3.org/2000/svg" xmlns:xlink="http://www.w3.org/1999/xlink">
<style>
<![CDATA[
@keyframes z20469k {
	from {
		stroke:#c00;
		stroke-dashoffset:3334;
	}
	75% {
		stroke:#c00;
		stroke-dashoffset:0;
	}
	to {
		stroke:#000;
	}
}
#z20469 path[clip-path] {
	animation:z20469k 1s linear both;
	stroke-dasharray:3334;
	stroke-width:128;
	stroke-linecap:round;
	fill:none;
}
#z20469 path[clip-path="url(#z20469c1)"] {animation-delay:1s;}
#z20469 path[clip-path="url(#z20469c2)"] {animation-delay:2s;}
#z20469 path[clip-path="url(#z20469c3)"] {animation-delay:3s;}
#z20469 path[clip-path="url(#z20469c4)"] {animation-delay:4s;}
#z20469 path[clip-path="url(#z20469c5)"] {animation-delay:5s;}
#z20469 path[clip-path="url(#z20469c6)"] {animation-delay:6s;}
#z20469 path[clip-path="url(#z20469c7)"] {animation-delay:7s;}
#z20469 path[clip-path="url(#z20469c8)"] {animation-delay:8s;}
#z20469 path[clip-path="url(#z20469c9)"] {animation-delay:9s;}
#z20469 path[clip-path="url(#z20469c10)"] {animation-delay:10s;}
#z20469 path {fill:#ccc;}
]]>
</style>
<path id="z20469d1" d="M229 403C262 358 296 304 329 243C348 207 365 179 382 160C388 152 389 143 386 134C382 125 371 111 349 97C329 83 312 78 299 79C285 80 281 89 289 106C299 128 301 150 294 171C249 286 173 419 58 567C51 574 46 579 45 585C42 592 47 596 57 594C85 588 167 485 205 435 Z"/>
<path id="z20469d2" d="M205 435C207 443 210 447 213 454C232 493 235 577 225 699C221 734 215 770 207 806C198 840 206 874 229 913C230 914 231 918 235 922C247 934 259 931 267 909C278 878 282 844 282 807C281 643 280 548 287 511C290 489 290 468 284 460C256 427 239 411 229 403 Z"/>
<path id="z20469d3" d="M472 252C455 252 436 247 424 237C419 232 417 226 423 222C434 214 448 215 462 213C523 202 601 177 625 168C645 159 677 148 700 149C709 149 715 154 724 160C728 163 735 170 733 178C731 182 727 187 723 189C683 201 634 216 595 228C573 234 549 238 528 244C509 248 491 252 472 252 Z"/>
<path id="z20469d4" d="M484 373C468 372 451 362 444 351C439 343 445 339 451 338C472 332 493 328 514 323C541 316 600 298 609 295C631 287 663 273 689 280C697 282 708 288 715 295C720 300 720 306 716 312C712 316 707 319 703 320C678 325 643 331 620 338C576 349 545 357 503 371C497 372 491 373 484 373 Z"/>
<path id="z20469d5" d="M551 428C551 388 553 350 552 310C551 269 551 229 549 188C547 168 547 140 545 122C543 106 534 92 528 79C524 70 523 59 531 53C541 45 553 49 564 54C576 59 591 65 603 76C610 81 618 93 615 106C608 133 603 172 603 201C601 236 598 271 597 307C595 345 591 381 591 419 Z"/>
<path id="z20469d6" d="M374 518C356 517 336 505 330 489C327 481 334 478 340 477C410 461 481 443 551 428L591 419C632 409 697 391 738 378C762 369 790 371 812 384C824 391 838 398 842 415C843 421 838 431 830 433C815 436 799 436 783 438C718 445 639 450 576 464L518 476C475 484 430 498 399 512C390 515 383 518 374 518 Z"/>
<path id="z20469d7" d="M311 759C303 759 299 749 305 744C321 729 335 714 351 700C403 650 455 597 493 535C506 513 512 500 518 476L576 464C583 470 583 475 580 487C575 502 570 509 562 522L542 551C529 569 514 587 500 606L479 633C446 675 375 733 337 753C328 757 320 759 311 759 Z"/>
<path id="z20469d8" d="M489 964C482 963 477 955 474 951C464 935 458 918 457 901C455 886 462 872 469 860C480 837 482 812 484 787C486 752 487 717 486 682C485 665 485 649 479 633L500 606C515 613 521 623 531 638C538 648 534 663 532 676C525 721 523 769 522 815C521 822 520 835 528 835C543 835 556 820 570 812C598 795 625 777 652 759C656 756 663 755 665 762C666 772 658 781 652 788C604 837 556 886 513 939C506 946 502 958 493 963C491 964 490 964 489 964 Z"/>
<path id="z20469d9" d="M672 624L660 610C686 574 711 545 730 506C734 497 738 488 737 478C736 471 742 465 749 466C764 466 774 478 785 488C795 496 804 508 809 520C813 530 811 541 798 546C772 555 709 597 672 624 Z"/>
<path id="z20469d10" d="M832 858C814 855 796 839 786 829C738 778 630 646 580 584C568 569 551 556 542 551L562 522C570 525 578 531 585 536C599 547 635 581 660 610L672 624C707 661 769 715 817 746C866 776 922 791 980 806C985 807 991 816 986 822C977 830 962 836 942 842C902 853 871 863 832 858 Z"/>
<defs>
	<clipPath id="z20469c1"><use xlink:href="#z20469d1"/></clipPath>
	<clipPath id="z20469c2"><use xlink:href="#z20469d2"/></clipPath>
	<clipPath id="z20469c3"><use xlink:href="#z20469d3"/></clipPath>
	<clipPath id="z20469c4"><use xlink:href="#z20469d4"/></clipPath>
	<clipPath id="z20469c5"><use xlink:href="#z20469d5"/></clipPath>
	<clipPath id="z20469c6"><use xlink:href="#z20469d6"/></clipPath>
	<clipPath id="z20469c7"><use xlink:href="#z20469d7"/></clipPath>
	<clipPath id="z20469c8"><use xlink:href="#z20469d8"/></clipPath>
	<clipPath id="z20469c9"><use xlink:href="#z20469d9"/></clipPath>
	<clipPath id="z20469c10"><use xlink:href="#z20469d10"/></clipPath>
</defs>
<path pathLength="3333" clip-path="url(#z20469c1)" d="M293 84L342 152L196 410L51 587"/>
<path pathLength="3333" clip-path="url(#z20469c2)" d="M230 404L257 481L249 925"/>
<path pathLength="3333" clip-path="url(#z20469c3)" d="M424 226L492 229L729 173"/>
<path pathLength="3333" clip-path="url(#z20469c4)" d="M451 346L711 301"/>
<path pathLength="3333" clip-path="url(#z20469c5)" d="M532 55L580 108L571 427"/>
<path pathLength="3333" clip-path="url(#z20469c6)" d="M335 485L384 492L763 406L837 413"/>
<path pathLength="3333" clip-path="url(#z20469c7)" d="M579 475L542 495L431 653L310 751"/>
<path pathLength="3333" clip-path="url(#z20469c8)" d="M498 610L493 860L503 909L659 765"/>
<path pathLength="3333" clip-path="url(#z20469c9)" d="M747 471L765 527L670 620"/>
<path pathLength="3333" clip-path="url(#z20469c10)" d="M542 543L570 547L813 796L962 819"/>
</svg>