<!--
AnimCJK 2016-2019 Copyright Francois Mizessyn - https://github.com/parsimonhi/animCJK
Derived from:
    MakeMeAHanzi project - https://github.com/skishore/makemeahanzi
    Arphic PL KaitiM GB font
    Arphic PL UKai font
You can redistribute and/or modify this file under the terms of the Arphic Public License
as published by Arphic Technology Co., Ltd.
You should have received a copy of this license along with this file.
If not, see http://ftp.gnu.org/non-gnu/chinese-fonts-truetype/LICENSE.
-->
<svg id="z20698" class="acjk" version="1.1" viewBox="0 0 1024 1024" xmlns="http://www.w3.org/2000/svg" xmlns:xlink="http://www.w3.org/1999/xlink">
<style>
<![CDATA[
@keyframes zk {
	to {
		stroke-dashoffset:0;
	}
}
svg.acjk path[clip-path] {
	--t:0.8s;
	animation:zk var(--t) linear forwards var(--d);
	stroke-dasharray:3337;
	stroke-dashoffset:3339;
	stroke-width:128;
	stroke-linecap:round;
	fill:none;
	stroke:#000;
}
svg.acjk path[id] {fill:#ccc;}
]]>
</style>
<path id="z20698d1" d="M197 402Q251 339 310 246Q335 200 358 179Q368 169 363 154Q359 141 329 116Q301 97 282 97Q263 98 271 122Q284 152 273 178Q239 263 185 343Q133 419 63 504Q53 514 50 521Q46 533 61 530Q85 527 171 433C188 412 188 412 197 402Z"/>
<path id="z20698d2" d="M171 433Q192 469 194 556Q194 670 168 773Q156 824 190 863Q191 866 194 868Q210 884 222 858Q237 818 236 773Q236 538 244 485Q251 458 242 448Q203 406 197 402C187 392 165 421 171 433Z"/>
<path id="z20698d3" d="M560 229Q722 192 727 187Q736 180 731 171Q724 161 696 153Q666 149 638 160Q605 170 572 181C533 190 533 190 513 195Q473 202 429 208Q393 214 419 230Q453 251 505 242C542 233 542 233 560 229Z"/>
<path id="z20698d4" d="M430 481Q466 448 487 413Q497 392 510 372Q535 326 550 271C553 256 553 256 555 248Q555 247 556 246Q557 237 560 229C568 197 568 197 572 181Q572 178 573 177Q580 141 597 110Q607 92 591 82Q545 45 519 53Q504 57 510 72Q525 102 513 195C508 226 508 226 505 242Q445 452 288 539Q272 549 256 560Q243 569 255 572Q304 576 398 508C419 490 419 490 430 481Z"/>
<path id="z20698d5" d="M550 271Q778 502 833 509Q908 509 967 495Q983 492 985 488Q986 482 973 477Q921 458 859 439Q778 411 687 352C676 345 676 345 671 341Q617 301 555 248C549 243 544 265 550 271Z"/>
<path id="z20698d6" d="M337 330Q377 397 402 401Q415 402 422 387Q425 375 418 356Q405 326 344 306Q335 303 333 314Q332 321 337 330Z"/>
<path id="z20698d7" d="M687 352Q763 300 803 282Q819 278 817 267Q811 252 794 234Q776 216 756 214Q741 214 742 232Q743 245 735 260Q713 291 671 341C666 346 682 356 687 352Z"/>
<path id="z20698d8" d="M438 484Q437 483 430 481C417 476 393 495 398 508Q420 562 432 647Q435 675 450 693Q465 714 470 699Q473 692 474 681C474 665 474 665 474 657Q473 648 472 639Q468 615 465 596C463 582 463 582 462 575Q456 533 455 515C455 503 449 488 438 484Z"/>
<path id="z20698d9" d="M612 663Q627 687 641 694Q650 701 665 683Q678 665 710 562Q719 534 741 511Q754 501 744 487Q731 471 692 445Q677 436 605 452Q590 452 438 484C426 486 444 519 455 515Q516 497 624 482Q648 478 656 487Q666 500 663 511Q639 619 624 634C619 643 606 655 612 663Z"/>
<path id="z20698d10" d="M465 596Q469 597 479 596Q549 584 600 578Q621 574 613 563Q603 550 581 546Q548 542 462 575C455 578 458 596 465 596Z"/>
<path id="z20698d11" d="M568 669Q590 665 612 663C622 661 634 638 624 634Q618 631 611 630Q584 626 474 657C467 660 466 681 474 681Q475 681 479 681Q504 677 530 674C555 671 555 671 568 669Z"/>
<path id="z20698d12" d="M530 674Q530 675 532 679Q544 713 541 820Q540 848 536 856Q533 869 507 867Q489 866 471 865Q461 865 459 871Q458 878 468 886Q522 931 539 957Q552 969 561 967Q571 963 583 930Q599 897 597 838Q594 769 596 745Q603 705 587 685Q577 675 568 669C558 661 525 662 530 674Z"/>
<path id="z20698d13" d="M395 740Q367 782 333 818Q309 840 320 872Q324 888 343 881Q391 857 407 791Q416 766 414 744Q411 737 406 734Q399 734 395 740Z"/>
<path id="z20698d14" d="M662 761Q713 801 775 861Q791 880 806 883Q813 883 821 873Q831 860 817 819Q805 774 661 731Q652 727 651 739Q651 752 662 761Z"/>
<defs>
	<clipPath id="z20698c1"><use xlink:href="#z20698d1"/></clipPath>
	<clipPath id="z20698c2"><use xlink:href="#z20698d2"/></clipPath>
	<clipPath id="z20698c3"><use xlink:href="#z20698d3"/></clipPath>
	<clipPath id="z20698c4"><use xlink:href="#z20698d4"/></clipPath>
	<clipPath id="z20698c5"><use xlink:href="#z20698d5"/></clipPath>
	<clipPath id="z20698c6"><use xlink:href="#z20698d6"/></clipPath>
	<clipPath id="z20698c7"><use xlink:href="#z20698d7"/></clipPath>
	<clipPath id="z20698c8"><use xlink:href="#z20698d8"/></clipPath>
	<clipPath id="z20698c9"><use xlink:href="#z20698d9"/></clipPath>
	<clipPath id="z20698c10"><use xlink:href="#z20698d10"/></clipPath>
	<clipPath id="z20698c11"><use xlink:href="#z20698d11"/></clipPath>
	<clipPath id="z20698c12"><use xlink:href="#z20698d12"/></clipPath>
	<clipPath id="z20698c13"><use xlink:href="#z20698d13"/></clipPath>
	<clipPath id="z20698c14"><use xlink:href="#z20698d14"/></clipPath>
</defs>
<path style="--d:1s;" pathLength="3333" clip-path="url(#z20698c1)" d="M276 103L315 143L312 180L204 357L57 523"/>
<path style="--d:2s;" pathLength="3333" clip-path="url(#z20698c2)" d="M195 409L217 473L201 869"/>
<path style="--d:3s;" pathLength="3333" clip-path="url(#z20698c3)" d="M417 217L475 223L725 169"/>
<path style="--d:4s;" pathLength="3333" clip-path="url(#z20698c4)" d="M517 61L559 104L496 343L396 483L258 567"/>
<path style="--d:5s;" pathLength="3333" clip-path="url(#z20698c5)" d="M556 257L815 462L978 487"/>
<path style="--d:6s;" pathLength="3333" clip-path="url(#z20698c6)" d="M342 317L410 396"/>
<path style="--d:7s;" pathLength="3333" clip-path="url(#z20698c7)" d="M753 217L774 267L679 344"/>
<path style="--d:8s;" pathLength="3333" clip-path="url(#z20698c8)" d="M433 486L461 697"/>
<path style="--d:9s;" pathLength="3333" clip-path="url(#z20698c9)" d="M447 489L641 462L685 474L705 505L636 688"/>
<path style="--d:10s;" pathLength="3333" clip-path="url(#z20698c10)" d="M466 588L609 568"/>
<path style="--d:11s;" pathLength="3333" clip-path="url(#z20698c11)" d="M478 673L617 639"/>
<path style="--d:12s;" pathLength="3333" clip-path="url(#z20698c12)" d="M537 677L568 718L563 879L535 916L464 874"/>
<path style="--d:13s;" pathLength="3333" clip-path="url(#z20698c13)" d="M406 740L334 879"/>
<path style="--d:14s;" pathLength="3333" clip-path="url(#z20698c14)" d="M657 738L771 812L816 874"/>
</svg>