<!--
AnimCJK 2016-2017 Copyright Francois Mizessyn, http://gooo.free.fr/animCJK/
Derived from:
    MakeMeAHanzi project - https://github.com/skishore/makemeahanzi
    Arphic PL KaitiM GB - https://apps.ubuntu.com/cat/applications/precise/fonts-arphic-gkai00mp/
    Arphic PL UKai - https://apps.ubuntu.com/cat/applications/fonts-arphic-ukai/
You can redistribute and/or modify this file under the terms of the Arphic Public License
as published by Arphic Technology Co., Ltd.
You should have received a copy of this license (the directory "APL") along with this file;
if not, see http://ftp.gnu.org/non-gnu/chinese-fonts-truetype/LICENSE.
-->
<svg id="z20769" class="acjk" version="1.1" viewBox="0 0 1024 1024" xmlns="http://www.w3.org/2000/svg" xmlns:xlink="http://www.w3.org/1999/xlink">
<style>
<![CDATA[
	@keyframes z20769k {
		from {
			stroke:#c00;
			stroke-dashoffset:3000;
		}
		75% {
			stroke:#c00;
			stroke-dashoffset:0;
		}
		to {
			stroke:#000;
		}
	}
	#z20769 path[clip-path] {
		animation:z20769k 1s linear both;
		stroke-dasharray:3000;
		stroke-width:128;
		stroke-linecap:round;
		fill:none;
	}
	#z20769 path[clip-path="url(#z20769c1)"] {animation-delay:1s;}
	#z20769 path[clip-path="url(#z20769c2)"] {animation-delay:2s;}
	#z20769 path[clip-path="url(#z20769c3)"] {animation-delay:3s;}
	#z20769 path[clip-path="url(#z20769c4)"] {animation-delay:4s;}
	#z20769 path[clip-path="url(#z20769c5)"] {animation-delay:5s;}
	#z20769 path[clip-path="url(#z20769c6)"] {animation-delay:6s;}
	#z20769 path[clip-path="url(#z20769c7)"] {animation-delay:7s;}
	#z20769 path[clip-path="url(#z20769c8)"] {animation-delay:8s;}
	#z20769 path[clip-path="url(#z20769c9)"] {animation-delay:9s;}
	#z20769 path[clip-path="url(#z20769c10)"] {animation-delay:10s;}
	#z20769 path[clip-path="url(#z20769c11)"] {animation-delay:11s;}
	#z20769 path[clip-path="url(#z20769c12)"] {animation-delay:12s;}
	#z20769 path[clip-path="url(#z20769c13)"] {animation-delay:13s;}
	#z20769 path[clip-path="url(#z20769c14)"] {animation-delay:14s;}
	#z20769 path[clip-path="url(#z20769c15)"] {animation-delay:15s;}
	#z20769 path[clip-path="url(#z20769c16)"] {animation-delay:16s;}
	#z20769 path[clip-path="url(#z20769c17)"] {animation-delay:17s;}
	#z20769 path {fill:#ccc;}
]]>
</style>
<g transform="scale(1,-1) translate(0,-900)">
	<path id="z20769d1" d="M199 510Q248 573 302 665Q327 711 349 733Q358 745 353 759Q349 772 318 795Q290 814 269 813Q250 810 259 788Q272 761 254 709Q194 568 62 396Q52 386 50 379Q46 367 61 370Q94 379 174 478L199 510Z"/>
	<path id="z20769d2" d="M174 478Q198 417 199 362Q199 215 170 103Q160 58 194 7Q195 7 197 4Q215 -12 227 15Q242 55 241 102Q241 364 249 424Q256 451 247 462Q207 505 199 510L174 478Z"/>
	<path id="z20769d3" d="M422 731Q412 735 386 741Q374 744 371 739Q365 733 373 718Q407 636 425 502Q426 462 449 435Q465 414 470 429Q471 435 473 441L475 465Q475 487 470 517Q443 658 438 700L422 731Z"/>
	<path id="z20769d4" d="M649 459Q670 426 689 417Q699 410 715 431Q734 465 770 654Q779 685 802 710Q815 722 804 736Q789 752 746 780Q730 789 663 773Q641 773 422 731L438 700Q478 712 539 721L576 728Q690 749 705 735Q723 713 719 693Q686 512 669 485L649 459Z"/>
	<path id="z20769d5" d="M596 590Q630 597 660 601Q682 605 673 617Q663 630 639 634Q621 637 598 630L551 616Q517 606 486 596Q470 592 490 579Q499 573 516 576Q534 580 552 582L596 590Z"/>
	<path id="z20769d6" d="M592 487Q593 542 596 590L598 630Q602 703 593 714Q584 723 576 728L539 721Q548 703 551 623Q550 620 551 616L552 582Q552 542 553 479L592 487Z"/>
	<path id="z20769d7" d="M473 441Q479 440 488 441Q576 453 649 459L669 485Q662 489 652 492Q633 496 597 488Q594 488 592 487L553 479Q513 473 475 465L473 441Z"/>
	<path id="z20769d8" d="M303 329Q293 333 277 337Q267 340 264 336Q260 332 265 319Q292 241 298 120Q298 84 316 58Q329 40 334 52Q338 62 339 76L340 96Q339 112 337 132Q321 259 318 298L303 329Z"/>
	<path id="z20769d9" d="M463 93Q476 80 499 37Q509 22 522 33Q546 51 555 201Q558 282 572 309Q582 328 567 338Q512 380 477 362Q384 340 303 329L318 298Q325 298 335 300Q353 306 385 314L418 321Q481 339 499 329Q506 325 508 308Q512 217 501 119Q500 115 496 111L463 93Z"/>
	<path id="z20769d10" d="M436 204Q460 210 482 213Q500 217 493 226Q484 236 464 240Q452 241 437 237L397 224Q369 215 345 206Q332 202 348 191Q349 191 397 195L436 204Z"/>
	<path id="z20769d11" d="M433 122Q434 167 436 204L437 237Q437 261 439 284Q445 302 418 321L385 314Q394 284 397 224L397 195Q397 162 399 113L433 122Z"/>
	<path id="z20769d12" d="M339 76Q343 75 352 76Q413 86 463 93L496 111Q487 123 469 125Q454 128 433 122L399 113Q368 106 340 96L339 76Z"/>
	<path id="z20769d13" d="M641 350Q631 356 608 361Q598 365 595 360Q589 356 595 342Q595 341 596 339Q596 333 599 329Q624 250 632 123Q632 83 651 55Q664 36 670 48Q671 55 674 62L677 87Q677 109 674 136Q656 268 652 314L641 350Z"/>
	<path id="z20769d14" d="M805 75Q820 56 838 15Q848 -3 864 9Q889 25 912 177Q924 291 942 325Q954 346 938 357Q877 405 838 389Q648 352 641 350L652 314Q658 317 723 333L757 341Q842 365 863 353Q872 349 872 328Q868 220 846 108Q845 96 822 99L805 75Z"/>
	<path id="z20769d15" d="M777 214Q802 220 826 223Q845 227 837 238Q827 250 806 252Q794 253 778 249L736 236Q708 227 685 219Q672 215 689 203Q692 203 736 206L777 214Z"/>
	<path id="z20769d16" d="M774 107Q775 165 777 214L778 249Q778 276 780 302Q786 315 778 324Q768 334 757 341L723 333Q732 320 736 236L736 206Q736 164 738 100L774 107Z"/>
	<path id="z20769d17" d="M674 62Q675 62 678 62Q748 71 805 75L822 99Q813 106 803 107Q791 110 774 107L738 100Q704 94 677 87L674 62Z"/>
	<defs>
		<clipPath id="z20769c1"><use xlink:href="#z20769d1"/></clipPath>
		<clipPath id="z20769c2"><use xlink:href="#z20769d2"/></clipPath>
		<clipPath id="z20769c3"><use xlink:href="#z20769d3"/></clipPath>
		<clipPath id="z20769c4"><use xlink:href="#z20769d4"/></clipPath>
		<clipPath id="z20769c5"><use xlink:href="#z20769d5"/></clipPath>
		<clipPath id="z20769c6"><use xlink:href="#z20769d6"/></clipPath>
		<clipPath id="z20769c7"><use xlink:href="#z20769d7"/></clipPath>
		<clipPath id="z20769c8"><use xlink:href="#z20769d8"/></clipPath>
		<clipPath id="z20769c9"><use xlink:href="#z20769d9"/></clipPath>
		<clipPath id="z20769c10"><use xlink:href="#z20769d10"/></clipPath>
		<clipPath id="z20769c11"><use xlink:href="#z20769d11"/></clipPath>
		<clipPath id="z20769c12"><use xlink:href="#z20769d12"/></clipPath>
		<clipPath id="z20769c13"><use xlink:href="#z20769d13"/></clipPath>
		<clipPath id="z20769c14"><use xlink:href="#z20769d14"/></clipPath>
		<clipPath id="z20769c15"><use xlink:href="#z20769d15"/></clipPath>
		<clipPath id="z20769c16"><use xlink:href="#z20769d16"/></clipPath>
		<clipPath id="z20769c17"><use xlink:href="#z20769d17"/></clipPath>
	</defs>
	<path pathLength="2999" clip-path="url(#z20769c1)" d="M264 808L307 741L196 546L58 378"/>
	<path pathLength="2999" clip-path="url(#z20769c2)" d="M199 503L221 436L211 3"/>
	<path pathLength="2999" clip-path="url(#z20769c3)" d="M375 735L412 691L461 428"/>
	<path pathLength="2999" clip-path="url(#z20769c4)" d="M431 729L712 760L756 728L673 430"/>
	<path pathLength="2999" clip-path="url(#z20769c5)" d="M486 590L669 617"/>
	<path pathLength="2999" clip-path="url(#z20769c6)" d="M548 716L573 682L578 485"/>
	<path pathLength="2999" clip-path="url(#z20769c7)" d="M479 448L662 478"/>
	<path pathLength="2999" clip-path="url(#z20769c8)" d="M271 329L296 292L324 54"/>
	<path pathLength="2999" clip-path="url(#z20769c9)" d="M312 327L502 349L541 321L523 111L481 68"/>
	<path pathLength="2999" clip-path="url(#z20769c10)" d="M348 199L489 222"/>
	<path pathLength="2999" clip-path="url(#z20769c11)" d="M392 310L416 278L414 118"/>
	<path pathLength="2999" clip-path="url(#z20769c12)" d="M343 83L486 112"/>
	<path pathLength="2999" clip-path="url(#z20769c13)" d="M599 358L628 313L657 50"/>
	<path pathLength="2999" clip-path="url(#z20769c14)" d="M648 347L855 375L907 344L865 79L842 52L811 66"/>
	<path pathLength="2999" clip-path="url(#z20769c15)" d="M688 212L830 235"/>
	<path pathLength="2999" clip-path="url(#z20769c16)" d="M732 327L757 298L748 103"/>
	<path pathLength="2999" clip-path="url(#z20769c17)" d="M682 69L815 93"/>
</g>
</svg>