<!--
AnimCJK 2016-2019 Copyright Francois Mizessyn - https://github.com/parsimonhi/animCJK
Derived from:
    MakeMeAHanzi project - https://github.com/skishore/makemeahanzi
    Arphic PL KaitiM GB font
    Arphic PL UKai font
You can redistribute and/or modify this file under the terms of the Arphic Public License
as published by Arphic Technology Co., Ltd.
You should have received a copy of this license along with this file.
If not, see http://ftp.gnu.org/non-gnu/chinese-fonts-truetype/LICENSE.
-->
<svg id="z20821" class="acjk" version="1.1" viewBox="0 0 1024 1024" xmlns="http://www.w3.org/2000/svg" xmlns:xlink="http://www.w3.org/1999/xlink">
<style>
<![CDATA[
@keyframes zk {
	to {
		stroke-dashoffset:0;
	}
}
svg.acjk path[clip-path] {
	--t:0.8s;
	animation:zk var(--t) linear forwards var(--d);
	stroke-dasharray:3337;
	stroke-dashoffset:3339;
	stroke-width:128;
	stroke-linecap:round;
	fill:none;
	stroke:#000;
}
svg.acjk path[id] {fill:#ccc;}
]]>
</style>
<path id="z20821d1" d="M259 195Q234 179 209 174Q202 173 198 177Q191 183 200 193Q249 268 260 441Q264 502 302 524C303 525 303 525 303 525Q319 529 320 500Q320 499 319 496C317 477 317 477 316 467Q286 314 278 228C276 215 269 203 259 195Z"/>
<path id="z20821d2" d="M537 314Q506 321 474 330Q458 334 453 328Q446 318 449 229Q450 207 457 193Q469 175 452 167Q436 157 417 148Q399 139 387 151Q354 178 259 195C247 197 266 233 278 228Q383 194 395 199C396 200 396 200 396 200Q403 204 404 229Q405 323 401 345Q400 360 414 377Q424 390 432 392Q441 393 451 381Q481 342 576 340Q592 340 594 337Q595 327 577 314Q576 313 573 312C563 306 549 312 537 314Z"/>
<path id="z20821d3" d="M588 149Q575 136 561 128Q551 121 542 125Q535 129 537 142Q546 167 547 192Q547 216 537 314C535 326 571 324 573 312Q591 207 600 189Q601 185 601 183C603 171 598 156 588 149Z"/>
<path id="z20821d4" d="M644 462Q654 481 668 512Q675 530 691 520Q718 504 750 345Q769 224 789 195Q801 177 786 165Q732 114 694 130Q681 131 659 137Q625 144 588 149C576 151 589 185 601 183Q604 183 695 162Q708 159 717 164Q726 170 724 192Q712 307 681 426Q677 436 661 434C650 434 639 452 644 462Z"/>
<path id="z20821d5" d="M544 470Q589 466 644 462C655 462 669 442 661 434Q657 430 648 424Q633 415 604 421Q444 455 316 467C306 469 310 492 319 496Q320 496 322 497Q332 500 344 497Q405 484 510 474C533 471 533 471 544 470Z"/>
<path id="z20821d6" d="M358 541Q358 673 191 814Q167 832 137 855Q130 862 135 865Q165 877 256 813Q337 762 406 626Q418 604 432 584Q439 575 435 564Q429 554 401 535Q380 522 371 523Q358 526 358 541Z"/>
<path id="z20821d7" d="M964 819Q945 761 935 663Q934 647 926 642Q917 638 914 657Q901 780 884 802Q850 839 713 837Q638 833 606 820Q578 804 573 786Q563 755 565 675Q572 588 591 547Q604 517 586 499Q561 480 544 470C534 464 510 463 510 474Q509 478 512 486Q531 525 525 580Q515 752 524 787Q534 826 561 847Q616 892 818 888Q909 885 945 867Q976 851 964 819Z"/>
<defs>
	<clipPath id="z20821c1"><use xlink:href="#z20821d1"/></clipPath>
	<clipPath id="z20821c2"><use xlink:href="#z20821d2"/></clipPath>
	<clipPath id="z20821c3"><use xlink:href="#z20821d3"/></clipPath>
	<clipPath id="z20821c4"><use xlink:href="#z20821d4"/></clipPath>
	<clipPath id="z20821c5"><use xlink:href="#z20821d5"/></clipPath>
	<clipPath id="z20821c6"><use xlink:href="#z20821d6"/></clipPath>
	<clipPath id="z20821c7"><use xlink:href="#z20821d7"/></clipPath>
</defs>
<path style="--d:1s;" pathLength="3333" clip-path="url(#z20821c1)" d="M202 181L254 246L306 520"/>
<path style="--d:2s;" pathLength="3333" clip-path="url(#z20821c2)" d="M269 198L396 173L430 190L426 333L446 361L588 331"/>
<path style="--d:3s;" pathLength="3333" clip-path="url(#z20821c3)" d="M546 131L573 182L559 312"/>
<path style="--d:4s;" pathLength="3333" clip-path="url(#z20821c4)" d="M597 151L722 145L759 184L678 517"/>
<path style="--d:5s;" pathLength="3333" clip-path="url(#z20821c5)" d="M324 472L656 442"/>
<path style="--d:6s;" pathLength="3333" clip-path="url(#z20821c6)" d="M368 527L394 580L336 694L253 788L141 857"/>
<path style="--d:7s;" pathLength="3333" clip-path="url(#z20821c7)" d="M518 480L560 523L547 784L599 842L771 862L914 834L923 649"/>
</svg>