<!--
AnimCJK 2016-2017 Copyright Francois Mizessyn, http://gooo.free.fr/animCJK/
Derived from:
    MakeMeAHanzi project - https://github.com/skishore/makemeahanzi
    Arphic PL KaitiM GB - https://apps.ubuntu.com/cat/applications/precise/fonts-arphic-gkai00mp/
    Arphic PL UKai - https://apps.ubuntu.com/cat/applications/fonts-arphic-ukai/
You can redistribute and/or modify this file under the terms of the Arphic Public License
as published by Arphic Technology Co., Ltd.
You should have received a copy of this license (the directory "APL") along with this file;
if not, see http://ftp.gnu.org/non-gnu/chinese-fonts-truetype/LICENSE.
-->
<svg id="z20876" class="acjk" version="1.1" viewBox="0 0 1024 1024" xmlns="http://www.w3.org/2000/svg" xmlns:xlink="http://www.w3.org/1999/xlink">
<style>
<![CDATA[
	@keyframes z20876k {
		from {
			stroke:#c00;
			stroke-dashoffset:3000;
		}
		75% {
			stroke:#c00;
			stroke-dashoffset:0;
		}
		to {
			stroke:#000;
		}
	}
	#z20876 path[clip-path] {
		animation:z20876k 1s linear both;
		stroke-dasharray:3000;
		stroke-width:128;
		stroke-linecap:round;
		fill:none;
	}
	#z20876 path[clip-path="url(#z20876c1)"] {animation-delay:1s;}
	#z20876 path[clip-path="url(#z20876c2)"] {animation-delay:2s;}
	#z20876 path[clip-path="url(#z20876c3)"] {animation-delay:3s;}
	#z20876 path[clip-path="url(#z20876c4)"] {animation-delay:4s;}
	#z20876 path[clip-path="url(#z20876c5)"] {animation-delay:5s;}
	#z20876 path {fill:#ccc;}
]]>
</style>
<g transform="scale(1,-1) translate(0,-900)">
	<path id="z20876d1" d="M302 708Q287 718 264 726Q245 733 233 728Q223 721 230 708Q249 681 256 633Q256 612 257 588Q261 509 256 436L251 385Q230 229 136 42Q132 35 130 29Q129 19 139 22Q155 25 187 77Q265 185 298 382Q298 388 299 393L304 440Q310 504 310 637Q311 656 314 675Q315 678 315 679L302 708Z"/>
	<path id="z20876d2" d="M460 453Q460 655 475 681Q487 700 475 709Q456 727 421 742Q403 749 389 742Q361 726 344 719Q328 715 302 708L315 679Q316 680 319 681Q350 688 380 698Q398 704 403 694Q415 663 412 450L412 409Q406 154 392 133Q388 129 372 132Q345 142 318 153Q300 160 300 152Q352 97 378 59Q390 40 404 35Q413 31 421 40Q463 88 463 151Q459 262 459 414L460 453Z"/>
	<path id="z20876d3" d="M561 420Q552 249 447 31Q443 24 442 18Q441 8 451 10Q481 20 547 153Q560 184 572 220Q599 310 610 423L613 466Q616 524 615 582Q611 687 618 702L595 733Q582 740 564 745Q545 754 532 747Q522 738 529 726Q548 698 557 653Q557 631 560 602Q564 529 563 462L561 420Z"/>
	<path id="z20876d4" d="M733 429Q733 122 716 97Q712 93 693 96Q668 105 640 113Q619 122 620 111Q674 56 703 15Q716 -4 732 -11Q742 -15 751 -5Q796 44 796 101Q789 237 786 430L786 484Q786 682 799 707Q812 726 799 738Q777 757 738 773Q716 782 674 756Q632 741 595 733L618 702Q654 711 693 724Q712 730 719 720Q731 680 733 476L733 429Z"/>
	<path id="z20876d5" d="M610 423Q646 429 733 429L786 430Q883 424 936 417Q960 413 966 422Q975 435 963 447Q935 475 891 497Q879 501 786 484L733 476Q690 476 613 466L563 462Q496 461 460 453L412 450Q346 447 304 440L256 436Q189 432 99 432Q86 433 84 422Q83 409 101 394Q117 381 148 368Q158 364 177 371Q192 377 251 385L299 393Q351 403 412 409L459 414Q492 420 561 420L610 423Z"/>
	<defs>
		<clipPath id="z20876c1"><use xlink:href="#z20876d1"/></clipPath>
		<clipPath id="z20876c2"><use xlink:href="#z20876d2"/></clipPath>
		<clipPath id="z20876c3"><use xlink:href="#z20876d3"/></clipPath>
		<clipPath id="z20876c4"><use xlink:href="#z20876d4"/></clipPath>
		<clipPath id="z20876c5"><use xlink:href="#z20876d5"/></clipPath>
	</defs>
	<path pathLength="2999" clip-path="url(#z20876c1)" d="M237 719L283 664L275 386L219 178L137 31"/>
	<path pathLength="2999" clip-path="url(#z20876c2)" d="M311 704L407 721L444 681L424 117L393 83L306 150"/>
	<path pathLength="2999" clip-path="url(#z20876c3)" d="M534 740L584 687L582 386L531 173L449 17"/>
	<path pathLength="2999" clip-path="url(#z20876c4)" d="M603 732L723 749L763 715L754 82L720 41L630 111"/>
	<path pathLength="2999" clip-path="url(#z20876c5)" d="M89 420L157 400L842 461L965 436"/>
</g>
</svg>