<!--
AnimCJK 2016-2026 Copyright FM-SH, https://github.com/parsimonhi/animCJK
Derived from:
    MakeMeAHanzi project - https://github.com/skishore/makemeahanzi
    Arphic PL KaitiM GB font
    Arphic PL KaitiM Big5 font
You can redistribute and/or modify this file under the terms of the Arphic Public License
as published by Arphic Technology Co., Ltd.
You should have received a copy of this license along with this file.
If not, see https://ftp.gnu.org/non-gnu/chinese-fonts-truetype/LICENSE.
-->
<svg id="z20888" class="acjk" viewBox="0 0 1024 1024" xmlns="http://www.w3.org/2000/svg">
<style>
<![CDATA[
@keyframes zk {
	to {
		stroke-dashoffset:0;
	}
}
svg.acjk path[clip-path] {
	--t:0.8s;
	animation:zk var(--t) linear forwards var(--d);
	stroke-dasharray:3337;
	stroke-dashoffset:3339;
	stroke-width:128;
	stroke-linecap:round;
	fill:none;
	stroke:#000;
}
svg.acjk path[id] {fill:#ccc;}
]]>
</style>
<path id="z20888d1" d="M265 303Q252 278 240 268Q221 252 218 280Q224 325 153 412Q132 436 161 494Q180 519 197 492Q216 462 232 419Q248 368 262 338C266 328 268 315 265 305C265 304 265 304 265 303Z"/>
<path id="z20888d2" d="M495 301Q688 267 725 272Q740 284 733 293Q733 297 697 383Q687 399 695 404Q705 408 724 394Q787 348 839 331Q882 318 880 305Q877 295 799 240Q771 219 679 238Q592 250 501 267C459 274 459 274 438 277Q402 281 363 289Q314 298 265 305C254 307 253 332 262 338Q284 350 309 343Q369 324 433 312C474 305 474 305 495 301Z"/>
<path id="z20888d3" d="M433 312Q402 484 372 561Q296 738 172 832Q144 854 117 873Q98 886 94 893Q91 900 105 902Q156 905 268 813Q335 755 379 683Q421 610 450 502Q474 417 495 301C499 278 499 278 501 267Q508 195 524 157Q534 133 511 119Q459 85 440 85Q416 86 432 114Q451 162 438 277C435 300 435 300 433 312Z"/>
<path id="z20888d4" d="M516 539Q503 771 521 834Q527 861 551 883Q635 952 815 924C839 919 839 919 851 916Q896 903 940 872Q961 854 946 826Q930 792 910 684Q909 668 901 662Q894 658 890 678Q865 792 844 828Q811 870 693 865Q648 864 613 848Q582 833 573 813Q534 740 576 486Q582 453 529 433Q516 429 506 434Q499 438 504 457Q519 499 516 539Z"/>
<defs>
	<clipPath id="z20888c1"><use href="#z20888d1"/></clipPath>
	<clipPath id="z20888c2"><use href="#z20888d2"/></clipPath>
	<clipPath id="z20888c3"><use href="#z20888d3"/></clipPath>
	<clipPath id="z20888c4"><use href="#z20888d4"/></clipPath>
</defs>
<path style="--d:1s;" pathLength="3333" clip-path="url(#z20888c1)" d="M227 269L239 321L173 501"/>
<path style="--d:2s;" pathLength="3333" clip-path="url(#z20888c2)" d="M260 327L736 250L780 271L827 318L699 398"/>
<path style="--d:3s;" pathLength="3333" clip-path="url(#z20888c3)" d="M431 91L484 156L444 409L388 597L264 782L100 894"/>
<path style="--d:4s;" pathLength="3333" clip-path="url(#z20888c4)" d="M511 437L545 488L540 800L591 873L743 898L866 867L904 820L899 666"/>
</svg>