<!--
AnimCJK 2016-2025 Copyright FM-SH - https://github.com/parsimonhi/animCJK
Derived from:
    MakeMeAHanzi project - https://github.com/skishore/makemeahanzi
    Arphic PL KaitiM GB font
    Arphic PL UKai font
You can redistribute and/or modify this file under the terms of the Arphic Public License
as published by Arphic Technology Co., Ltd.
You should have received a copy of this license along with this file.
If not, see http://ftp.gnu.org/non-gnu/chinese-fonts-truetype/LICENSE.
-->
<svg id="z20889" class="acjk" version="1.1" viewBox="0 0 1024 1024" xmlns="http://www.w3.org/2000/svg" xmlns:xlink="http://www.w3.org/1999/xlink">
<style>
<![CDATA[
@keyframes zk {
	to {
		stroke-dashoffset:0;
	}
}
svg.acjk path[clip-path] {
	--t:0.8s;
	animation:zk var(--t) linear forwards var(--d);
	stroke-dasharray:3337;
	stroke-dashoffset:3339;
	stroke-width:128;
	stroke-linecap:round;
	fill:none;
	stroke:#000;
}
svg.acjk path[id] {fill:#ccc;}
]]>
</style>
<path id="z20889d1" d="M306 180C297 163 288 151 279 145C264 134 255 138 256 158C257 178 254 202 238 228C206 275 189 300 188 307C185 322 189 344 207 373C218 392 232 390 246 370C258 350 269 325 278 297C288 261 297 231 307 209C306 197 306 191 306 180Z"/>
<path id="z20889d2" d="M307 209C321 219 344 225 377 217C436 201 543 182 681 170C699 168 713 167 721 170C733 174 738 179 738 185C737 188 722 214 693 262C687 270 687 277 691 280C695 283 703 280 715 274C755 251 791 237 823 230C849 223 863 216 863 211C862 204 838 181 793 141C777 127 746 124 697 132C573 149 416 169 306 180C296 182 299 203 307 209Z"/>
<path id="z20889d3" d="M426 404C458 412 488 411 516 404C619 377 673 364 676 363C683 356 683 350 680 345C673 336 660 329 640 326C618 321 596 325 575 335C554 343 531 350 507 356C484 361 460 365 434 371C423 373 415 402 426 404Z"/>
<path id="z20889d4" d="M387 592C442 560 540 542 680 534C696 533 708 535 714 541C726 553 730 572 727 599C709 731 689 809 661 830C653 835 620 827 566 806C554 801 548 799 547 806C545 812 553 820 565 833C594 864 612 895 625 921C636 942 651 944 668 933C701 909 723 889 732 872C743 845 763 762 788 624C793 595 801 574 815 561C825 550 830 539 824 533C804 511 778 496 749 487C737 482 706 488 655 495C597 502 521 512 427 533C409 536 403 531 406 520C414 475 418 436 426 404C431 382 431 382 434 371C439 347 444 327 452 312C456 301 456 291 449 284C438 272 427 265 416 261C399 254 388 252 383 256C376 259 375 266 380 275C393 299 388 370 365 487C362 497 350 514 328 539C319 548 318 558 325 567C331 575 342 583 357 595C365 601 374 599 387 592Z"/>
<path id="z20889d5" d="M463 710C514 701 563 701 610 704C624 704 633 702 637 696C641 687 639 679 631 674C611 659 587 646 560 637C551 633 539 636 523 642C494 650 439 663 357 678C294 688 226 704 171 709C162 709 157 713 158 720C158 728 165 735 177 743C203 758 228 764 252 755C332 728 388 721 463 710Z"/>
<defs>
	<clipPath id="z20889c1"><use xlink:href="#z20889d1"/></clipPath>
	<clipPath id="z20889c2"><use xlink:href="#z20889d2"/></clipPath>
	<clipPath id="z20889c3"><use xlink:href="#z20889d3"/></clipPath>
	<clipPath id="z20889c4"><use xlink:href="#z20889d4"/></clipPath>
	<clipPath id="z20889c5"><use xlink:href="#z20889d5"/></clipPath>
</defs>
<path style="--d:1s;" pathLength="3333" clip-path="url(#z20889c1)" d="M266 143L280 198L219 379"/>
<path style="--d:2s;" pathLength="3333" clip-path="url(#z20889c2)" d="M305 187L363 197L754 154L806 221L695 274"/>
<path style="--d:3s;" pathLength="3333" clip-path="url(#z20889c3)" d="M428 395L675 348"/>
<path style="--d:4s;" pathLength="3333" clip-path="url(#z20889c4)" d="M385 263L420 306L364 540L376 558L704 511L777 556L698 851L640 883L555 809"/>
<path style="--d:5s;" pathLength="3333" clip-path="url(#z20889c5)" d="M164 719L236 729L549 668L635 686"/>
</svg>