<!--
AnimCJK 2016-2019 Copyright Francois Mizessyn - https://github.com/parsimonhi/animCJK
Derived from:
    MakeMeAHanzi project - https://github.com/skishore/makemeahanzi
    Arphic PL KaitiM GB font
    Arphic PL UKai font
You can redistribute and/or modify this file under the terms of the Arphic Public License
as published by Arphic Technology Co., Ltd.
You should have received a copy of this license along with this file.
If not, see http://ftp.gnu.org/non-gnu/chinese-fonts-truetype/LICENSE.
-->
<svg id="z20898" class="acjk" version="1.1" viewBox="0 0 1024 1024" xmlns="http://www.w3.org/2000/svg" xmlns:xlink="http://www.w3.org/1999/xlink">
<style>
<![CDATA[
@keyframes zk {
	to {
		stroke-dashoffset:0;
	}
}
svg.acjk path[clip-path] {
	--t:0.8s;
	animation:zk var(--t) linear forwards var(--d);
	stroke-dasharray:3337;
	stroke-dashoffset:3339;
	stroke-width:128;
	stroke-linecap:round;
	fill:none;
	stroke:#000;
}
svg.acjk path[id] {fill:#ccc;}
]]>
</style>
<path id="z20898d1" d="M275 188Q265 164 254 156Q236 141 233 167Q239 203 174 270Q153 292 179 349Q192 376 214 349Q232 325 245 288Q261 243 274 217Q277 213 277 206C278 200 277 194 275 188Z"/>
<path id="z20898d2" d="M277 206Q307 231 340 223Q475 178 653 164Q665 163 671 164Q687 174 685 183Q685 184 661 250Q654 263 661 267Q668 271 684 259Q736 225 778 213Q812 203 812 195Q811 185 739 134Q718 116 638 132Q580 138 376 174Q333 181 287 186Q280 186 275 188C269 189 272 202 277 206Z"/>
<path id="z20898d3" d="M429 341Q501 323 600 309Q610 310 618 297Q619 287 597 277Q564 258 470 290Q460 291 452 295Q398 308 350 317Q316 321 279 329Q252 333 273 349Q307 370 330 365Q357 358 390 350C416 344 416 344 429 341Z"/>
<path id="z20898d4" d="M401 426Q422 404 445 389Q452 388 453 379Q453 361 429 341C420 332 394 337 390 350Q363 428 203 515Q196 518 203 522Q234 529 329 479Q335 473 344 469Q360 459 381 442C394 431 394 431 401 426Z"/>
<path id="z20898d5" d="M548 542Q508 461 415 430Q408 427 401 426C393 424 374 437 381 442Q384 445 390 448Q409 457 426 468C456 491 456 491 471 503Q492 524 496 537C510 579 510 579 517 600Q526 678 506 765Q494 813 479 822Q470 826 385 811Q367 802 364 812Q363 819 375 832Q439 881 465 915Q478 934 495 930Q549 900 570 761Q580 662 568 606C555 563 555 563 548 542Z"/>
<path id="z20898d6" d="M426 468Q411 516 328 579C309 593 309 593 299 600Q265 622 212 655Q196 665 216 664Q253 664 321 623C346 606 346 606 359 598Q390 574 471 503C486 491 433 450 426 468Z"/>
<path id="z20898d7" d="M376 680Q357 693 338 709Q299 743 197 802Q184 812 192 815Q201 821 213 817Q339 789 475 647Q518 604 517 600C528 581 507 518 496 537Q495 538 494 540Q449 615 392 665C381 675 381 675 376 680Z"/>
<path id="z20898d8" d="M328 579Q288 555 265 545Q259 542 258 550Q257 556 299 600C314 615 314 615 321 623Q339 641 358 663Q368 676 376 680C382 684 392 672 392 665Q395 632 375 611Q369 604 359 598C338 585 338 585 328 579Z"/>
<path id="z20898d9" d="M558 552Q616 519 699 464Q720 449 744 440Q766 431 756 412Q743 394 718 378Q694 363 681 366Q668 366 672 380Q675 410 615 472Q582 506 548 542C545 545 553 554 557 552C558 552 558 552 558 552Z"/>
<path id="z20898d10" d="M568 606Q734 780 778 790Q841 799 944 778Q963 775 965 770Q966 763 951 758Q899 739 837 720Q725 683 557 552C498 504 522 545 568 606Z"/>
<defs>
	<clipPath id="z20898c1"><use xlink:href="#z20898d1"/></clipPath>
	<clipPath id="z20898c2"><use xlink:href="#z20898d2"/></clipPath>
	<clipPath id="z20898c3"><use xlink:href="#z20898d3"/></clipPath>
	<clipPath id="z20898c4"><use xlink:href="#z20898d4"/></clipPath>
	<clipPath id="z20898c5"><use xlink:href="#z20898d5"/></clipPath>
	<clipPath id="z20898c6"><use xlink:href="#z20898d6"/></clipPath>
	<clipPath id="z20898c7"><use xlink:href="#z20898d7"/></clipPath>
	<clipPath id="z20898c8"><use xlink:href="#z20898d8"/></clipPath>
	<clipPath id="z20898c9"><use xlink:href="#z20898d9"/></clipPath>
	<clipPath id="z20898c10"><use xlink:href="#z20898d10"/></clipPath>
</defs>
<path style="--d:1s;" pathLength="3333" clip-path="url(#z20898c1)" d="M242 158L252 203L185 355"/>
<path style="--d:2s;" pathLength="3333" clip-path="url(#z20898c2)" d="M281 192L336 202L676 144L716 158L758 199L665 261"/>
<path style="--d:3s;" pathLength="3333" clip-path="url(#z20898c3)" d="M273 339L613 292"/>
<path style="--d:4s;" pathLength="3333" clip-path="url(#z20898c4)" d="M450 377L405 380L323 460L209 517"/>
<path style="--d:5s;" pathLength="3333" clip-path="url(#z20898c5)" d="M391 441L510 519L542 607L545 712L497 866L469 874L371 814"/>
<path style="--d:6s;" pathLength="3333" clip-path="url(#z20898c6)" d="M427 475L438 504L375 563L212 658"/>
<path style="--d:7s;" pathLength="3333" clip-path="url(#z20898c7)" d="M494 546L488 596L390 697L195 811"/>
<path style="--d:8s;" pathLength="3333" clip-path="url(#z20898c8)" d="M264 549L348 617L377 670"/>
<path style="--d:9s;" pathLength="3333" clip-path="url(#z20898c9)" d="M678 372L708 424L560 540"/>
<path style="--d:10s;" pathLength="3333" clip-path="url(#z20898c10)" d="M552 549L610 620L775 741L957 769"/>
</svg>