<!--
AnimCJK 2016-2018 Copyright Francois Mizessyn - https://github.com/parsimonhi/animCJK
Derived from:
    MakeMeAHanzi project - https://github.com/skishore/makemeahanzi
    Arphic PL KaitiM GB - https://apps.ubuntu.com/cat/applications/precise/fonts-arphic-gkai00mp/
    Arphic PL UKai - https://apps.ubuntu.com/cat/applications/fonts-arphic-ukai/
You can redistribute and/or modify this file under the terms of the Arphic Public License
as published by Arphic Technology Co., Ltd.
You should have received a copy of this license (the directory "APL") along with this file;
if not, see http://ftp.gnu.org/non-gnu/chinese-fonts-truetype/LICENSE.
-->
<svg id="z20919" class="acjk" version="1.1" viewBox="0 0 1024 1024" xmlns="http://www.w3.org/2000/svg" xmlns:xlink="http://www.w3.org/1999/xlink">
<style>
<![CDATA[
@keyframes z20919k {
	from {
		stroke:#ccc;
		stroke-dashoffset:3334;
	}
	1% {
		stroke:#c00;
		stroke-dashoffset:3334;
	}
	75% {
		stroke:#c00;
		stroke-dashoffset:0;
	}
	to {
		stroke:#000;
	}
}
#z20919 path[clip-path] {
	animation:z20919k 1s linear both;
	stroke-dasharray:3334;
	stroke-width:128;
	stroke-linecap:round;
	fill:none;
}
#z20919 path[clip-path="url(#z20919c1)"] {animation-delay:1s;}
#z20919 path[clip-path="url(#z20919c2)"] {animation-delay:2s;}
#z20919 path[clip-path="url(#z20919c3)"] {animation-delay:3s;}
#z20919 path[clip-path="url(#z20919c4)"] {animation-delay:4s;}
#z20919 path[clip-path="url(#z20919c5)"] {animation-delay:5s;}
#z20919 path[clip-path="url(#z20919c6)"] {animation-delay:6s;}
#z20919 path[clip-path="url(#z20919c7)"] {animation-delay:7s;}
#z20919 path {fill:#ccc;}
]]>
</style>
<path id="z20919d1" d="M174 239C192 257 210 277 229 300C237 310 248 316 261 317C269 317 275 312 280 303C284 292 284 275 280 252C277 237 265 222 243 211C191 185 158 176 148 181C143 183 140 189 142 199C143 208 155 220 174 239Z"/>
<path id="z20919d2" d="M93 677C85 681 81 685 83 697C90 745 106 774 126 789C131 792 135 795 142 794C146 793 149 784 152 768C156 737 195 641 268 479C272 468 275 461 275 458C274 451 270 449 265 454C256 459 212 520 134 637C124 650 112 666 93 677Z"/>
<path id="z20919d3" d="M568 201C578 182 590 168 601 158C608 150 609 141 606 131C603 122 591 108 569 93C549 79 532 73 518 74C504 74 499 83 507 100C517 122 516 142 510 163C497 205 453 292 414 353C376 411 331 473 279 538C272 546 267 551 266 556C262 564 267 568 278 566C318 556 399 463 484 339C513 295 535 259 555 224C564 209 564 209 568 201Z"/>
<path id="z20919d4" d="M555 224C617 302 684 379 755 453C771 469 792 478 820 481C870 485 920 482 973 475C985 473 993 472 995 468C997 463 992 459 982 455C847 397 779 367 776 366C703 322 612 241 568 201C562 195 550 217 555 224Z"/>
<path id="z20919d5" d="M511 445C529 461 547 480 566 502C573 510 583 515 593 516C599 516 605 511 609 503C612 494 611 479 608 460C605 447 594 433 573 423C529 401 499 392 488 397C484 398 482 405 484 413C484 419 495 430 511 445Z"/>
<path id="z20919d6" d="M579 802C661 700 720 639 757 623C770 617 774 610 770 597C766 586 741 568 691 545C676 538 661 539 645 546C599 564 540 582 471 605C452 610 421 614 377 613C360 612 353 621 361 635C366 644 377 652 391 661C413 674 436 670 462 656C477 647 531 630 619 597C629 592 639 593 649 600C658 606 662 615 657 626C629 677 597 732 563 792C560 797 575 807 579 802Z"/>
<path id="z20919d7" d="M563 792C526 769 496 755 475 745C468 741 464 742 463 751C461 760 465 769 472 777C512 818 557 866 604 926C615 940 624 951 635 954C641 955 647 951 653 945C661 935 662 916 656 885C650 857 624 830 579 802C568 795 568 795 563 792Z"/>
<defs>
	<clipPath id="z20919c1"><use xlink:href="#z20919d1"></use></clipPath>
	<clipPath id="z20919c2"><use xlink:href="#z20919d2"></use></clipPath>
	<clipPath id="z20919c3"><use xlink:href="#z20919d3"></use></clipPath>
	<clipPath id="z20919c4"><use xlink:href="#z20919d4"></use></clipPath>
	<clipPath id="z20919c5"><use xlink:href="#z20919d5"></use></clipPath>
	<clipPath id="z20919c6"><use xlink:href="#z20919d6"></use></clipPath>
	<clipPath id="z20919c7"><use xlink:href="#z20919d7"></use></clipPath>
</defs>
<path pathLength="3333" clip-path="url(#z20919c1)" d="M149 189L236 251L266 311"/>
<path pathLength="3333" clip-path="url(#z20919c2)" d="M 96,688 131,737 268,460"/>
<path pathLength="3333" clip-path="url(#z20919c3)" d="M512 80L559 151L436 365L273 562"/>
<path pathLength="3333" clip-path="url(#z20919c4)" d="M570 212L788 422L989 467"/>
<path pathLength="3333" clip-path="url(#z20919c5)" d="M492 405L574 463L593 512"/>
<path pathLength="3333" clip-path="url(#z20919c6)" d="M363 624L433 640L635 572L693 587L716 618L571 796"/>
<path pathLength="3333" clip-path="url(#z20919c7)" d="M470 752L610 874L641 949"/>
</svg>