<!--
AnimCJK 2016-2025 Copyright FM-SH - https://github.com/parsimonhi/animCJK
Derived from:
    MakeMeAHanzi project - https://github.com/skishore/makemeahanzi
    Arphic PL KaitiM GB font
    Arphic PL UKai font
You can redistribute and/or modify this file under the terms of the Arphic Public License
as published by Arphic Technology Co., Ltd.
You should have received a copy of this license along with this file.
If not, see http://ftp.gnu.org/non-gnu/chinese-fonts-truetype/LICENSE.
-->
<svg id="z20917" class="acjk" version="1.1" viewBox="0 0 1024 1024" xmlns="http://www.w3.org/2000/svg" xmlns:xlink="http://www.w3.org/1999/xlink">
<style>
<![CDATA[
@keyframes zk {
	to {
		stroke-dashoffset:0;
	}
}
svg.acjk path[clip-path] {
	--t:0.8s;
	animation:zk var(--t) linear forwards var(--d);
	stroke-dasharray:3337;
	stroke-dashoffset:3339;
	stroke-width:128;
	stroke-linecap:round;
	fill:none;
	stroke:#000;
}
svg.acjk path[id] {fill:#ccc;}
]]>
</style>
<path id="z20917d1" d="M208 231C231 248 253 270 277 291C287 300 299 304 311 304C319 303 325 298 328 288C331 276 328 258 322 237C317 222 303 207 278 198C221 176 187 170 176 177C171 179 169 186 172 196C173 204 187 215 208 231Z"/>
<path id="z20917d2" d="M121 722C113 727 108 732 111 744C124 798 144 827 165 839C170 842 175 844 183 843C187 841 189 832 191 815C193 786 228 678 294 493C297 482 299 474 299 470C297 463 295 462 289 467C279 473 237 542 163 676C154 690 141 708 121 722Z"/>
<path id="z20917d3" d="M421 207C413 204 401 202 386 199C377 197 372 197 369 202C364 207 366 214 372 226C393 269 410 327 423 398C426 419 434 436 446 451C459 466 467 470 472 458C474 452 475 444 475 437C474 425 474 412 473 401C466 353 457 312 447 240C444 226 434 212 421 207Z"/>
<path id="z20917d4" d="M703 372C723 300 749 254 777 230C791 217 791 200 779 188C767 176 739 162 699 144C684 137 654 144 607 162C557 179 495 193 421 207C407 210 434 245 447 240C451 237 514 225 635 198C665 191 678 212 674 236C665 282 655 324 643 361C635 380 699 392 703 372Z"/>
<path id="z20917d5" d="M610 414C636 409 669 404 708 401C715 400 720 396 720 390C720 385 714 379 703 372C687 360 663 358 643 361C627 363 524 390 473 401C461 403 463 437 475 437C485 438 540 425 567 421C596 416 596 416 610 414Z"/>
<path id="z20917d6" d="M444 500C449 578 410 661 323 749C307 764 287 781 264 802C259 806 258 811 263 813C282 818 318 797 373 759C422 723 465 665 502 580C508 565 515 552 524 540C528 533 529 525 526 519C521 511 509 502 489 491C474 482 463 479 456 481C447 483 443 490 444 500Z"/>
<path id="z20917d7" d="M970 791C957 758 948 713 943 656C941 645 939 637 934 634C928 629 923 635 921 650C908 718 896 759 886 772C868 792 822 802 751 800C712 798 683 794 667 785C617 756 626 671 628 635C630 568 641 519 654 489C662 468 660 451 647 440C632 428 620 420 610 414C598 405 558 410 567 421C581 435 591 467 586 517C585 525 581 580 583 683C583 762 604 813 648 831C690 848 754 856 840 856C892 856 929 850 950 840C972 829 978 813 970 791Z"/>
<defs>
	<clipPath id="z20917c1"><use xlink:href="#z20917d1"/></clipPath>
	<clipPath id="z20917c2"><use xlink:href="#z20917d2"/></clipPath>
	<clipPath id="z20917c3"><use xlink:href="#z20917d3"/></clipPath>
	<clipPath id="z20917c4"><use xlink:href="#z20917d4"/></clipPath>
	<clipPath id="z20917c5"><use xlink:href="#z20917d5"/></clipPath>
	<clipPath id="z20917c6"><use xlink:href="#z20917d6"/></clipPath>
	<clipPath id="z20917c7"><use xlink:href="#z20917d7"/></clipPath>
</defs>
<path style="--d:1s;" pathLength="3333" clip-path="url(#z20917c1)" d="M175 187L280 241L317 297"/>
<path style="--d:2s;" pathLength="3333" clip-path="url(#z20917c2)" d="M114 736L181 784L292 473"/>
<path style="--d:3s;" pathLength="3333" clip-path="url(#z20917c3)" d="M375 208L415 245L465 458"/>
<path style="--d:4s;" pathLength="3333" clip-path="url(#z20917c4)" d="M425 215L692 178L735 221L656 376"/>
<path style="--d:5s;" pathLength="3333" clip-path="url(#z20917c5)" d="M469 426L632 386L715 388"/>
<path style="--d:6s;" pathLength="3333" clip-path="url(#z20917c6)" d="M453 489L485 534L436 647L363 739L267 808"/>
<path style="--d:7s;" pathLength="3333" clip-path="url(#z20917c7)" d="M572 417L622 465L604 689L646 802L770 827L916 806L933 775L931 639"/>
</svg>