<!--
AnimCJK 2016-2019 Copyright Francois Mizessyn - https://github.com/parsimonhi/animCJK
Derived from:
    MakeMeAHanzi project - https://github.com/skishore/makemeahanzi
    Arphic PL KaitiM GB font
    Arphic PL UKai font
You can redistribute and/or modify this file under the terms of the Arphic Public License
as published by Arphic Technology Co., Ltd.
You should have received a copy of this license along with this file.
If not, see http://ftp.gnu.org/non-gnu/chinese-fonts-truetype/LICENSE.
-->
<svg id="z20925" class="acjk" version="1.1" viewBox="0 0 1024 1024" xmlns="http://www.w3.org/2000/svg" xmlns:xlink="http://www.w3.org/1999/xlink">
<style>
<![CDATA[
@keyframes zk {
	to {
		stroke-dashoffset:0;
	}
}
svg.acjk path[clip-path] {
	--t:0.8s;
	animation:zk var(--t) linear forwards var(--d);
	stroke-dasharray:3337;
	stroke-dashoffset:3339;
	stroke-width:128;
	stroke-linecap:round;
	fill:none;
	stroke:#000;
}
svg.acjk path[id] {fill:#ccc;}
]]>
</style>
<path id="z20925d1" d="M180 237Q205 264 231 296Q244 312 262 312Q274 313 281 299Q288 283 281 250Q274 217 180 184Q164 178 156 181Q150 185 150 199Q153 212 180 237Z"/>
<path id="z20925d2" d="M117 630Q104 634 107 652Q119 727 156 749Q163 756 174 753Q183 752 183 725Q192 668 289 425Q296 409 295 402Q294 392 285 399Q275 406 262 423Q207 511 157 589Q144 608 117 630Z"/>
<path id="z20925d3" d="M452 250Q605 208 612 203Q621 196 616 187Q609 177 579 171Q551 167 522 180Q488 193 450 205Q408 217 359 223Q325 232 350 246Q375 256 409 258C438 253 438 253 452 250Z"/>
<path id="z20925d4" d="M350 496Q360 481 375 465Q385 452 395 439C407 423 407 423 413 415Q432 387 453 352Q469 319 486 304Q493 294 489 283Q485 271 459 253Q455 250 452 250C438 245 404 244 409 258Q428 297 359 418Q326 475 281 537Q272 546 271 552Q268 562 280 559Q292 556 334 514C345 502 345 502 350 496Z"/>
<path id="z20925d5" d="M395 439Q425 451 480 428Q505 416 517 423Q524 427 508 492Q466 711 241 863Q234 867 234 872Q235 876 242 875Q377 847 483 676Q486 672 489 667Q531 595 569 484Q582 456 607 437Q620 428 621 419Q620 406 590 393Q554 374 541 374Q531 375 519 384Q447 409 413 415C403 417 386 435 395 439Z"/>
<path id="z20925d6" d="M334 514Q338 521 352 536Q374 561 397 591Q406 603 419 604Q428 605 433 595Q439 583 435 559Q434 540 408 523Q357 496 350 496C342 494 329 508 334 514Z"/>
<path id="z20925d7" d="M636 337Q663 403 641 569Q634 599 659 633C660 634 660 634 660 634Q669 644 678 634Q696 609 696 518Q696 409 703 365Q709 344 691 334Q675 324 660 316Q648 312 640 317Q633 323 636 337Z"/>
<path id="z20925d8" d="M794 182Q798 218 801 761Q801 783 789 793Q779 800 751 794Q720 788 689 783Q656 773 659 783Q660 790 682 804Q760 850 781 881Q806 915 823 914Q838 915 851 880Q866 834 861 761Q843 526 848 288Q851 200 863 155Q879 124 824 103Q790 84 771 92Q753 99 770 121Q792 148 794 182Z"/>
<defs>
	<clipPath id="z20925c1"><use xlink:href="#z20925d1"/></clipPath>
	<clipPath id="z20925c2"><use xlink:href="#z20925d2"/></clipPath>
	<clipPath id="z20925c3"><use xlink:href="#z20925d3"/></clipPath>
	<clipPath id="z20925c4"><use xlink:href="#z20925d4"/></clipPath>
	<clipPath id="z20925c5"><use xlink:href="#z20925d5"/></clipPath>
	<clipPath id="z20925c6"><use xlink:href="#z20925d6"/></clipPath>
	<clipPath id="z20925c7"><use xlink:href="#z20925d7"/></clipPath>
	<clipPath id="z20925c8"><use xlink:href="#z20925d8"/></clipPath>
</defs>
<path style="--d:1s;" pathLength="3333" clip-path="url(#z20925c1)" d="M157 186L241 252L261 309"/>
<path style="--d:2s;" pathLength="3333" clip-path="url(#z20925c2)" d="M168 750L152 656L288 404"/>
<path style="--d:3s;" pathLength="3333" clip-path="url(#z20925c3)" d="M345 233L614 192"/>
<path style="--d:4s;" pathLength="3333" clip-path="url(#z20925c4)" d="M418 266L448 304L277 553"/>
<path style="--d:5s;" pathLength="3333" clip-path="url(#z20925c5)" d="M405 436L529 399L568 432L434 711L349 803L243 866"/>
<path style="--d:6s;" pathLength="3333" clip-path="url(#z20925c6)" d="M341 511L403 554L420 600"/>
<path style="--d:7s;" pathLength="3333" clip-path="url(#z20925c7)" d="M644 319L675 380L666 635"/>
<path style="--d:8s;" pathLength="3333" clip-path="url(#z20925c8)" d="M767 101L829 153L829 800L803 863L670 783"/>
</svg>