<!--
AnimCJK 2016-2025 Copyright FM-SH - https://github.com/parsimonhi/animCJK
Derived from:
    MakeMeAHanzi project - https://github.com/skishore/makemeahanzi
    Arphic PL KaitiM GB font
    Arphic PL KaitiM Big5 font
You can redistribute and/or modify this file under the terms of the Arphic Public License
as published by Arphic Technology Co., Ltd.
You should have received a copy of this license along with this file.
If not, see https://ftp.gnu.org/non-gnu/chinese-fonts-truetype/LICENSE.
-->
<svg id="z20928" class="acjk" viewBox="0 0 1024 1024" xmlns="http://www.w3.org/2000/svg">
<style>
<![CDATA[
@keyframes zk {
	to {
		stroke-dashoffset:0;
	}
}
svg.acjk path[clip-path] {
	--t:0.8s;
	animation:zk var(--t) linear forwards var(--d);
	stroke-dasharray:3337;
	stroke-dashoffset:3339;
	stroke-width:128;
	stroke-linecap:round;
	fill:none;
	stroke:#000;
}
svg.acjk path[id] {fill:#ccc;}
]]>
</style>
<path id="z20928d1" d="M177 255C197 273 218 293 239 315C247 323 257 328 268 329C274 329 281 324 285 315C288 305 286 290 282 271C276 246 240 225 174 207C163 204 155 202 152 205C148 206 146 213 148 222C148 228 159 239 177 255Z"/>
<path id="z20928d2" d="M113 675C107 680 101 683 102 694C109 745 123 775 143 788C165 802 170 784 172 768C180 723 213 643 287 478C304 439 287 441 266 470C185 581 158 636 113 675Z"/>
<path id="z20928d3" d="M527 201C558 161 575 133 587 123C593 116 593 109 591 101C588 93 580 81 563 68C547 56 533 51 522 51C511 51 506 59 512 72C520 95 503 144 455 220C432 254 407 292 375 328C356 347 358 359 386 346C412 333 452 293 506 227C520 210 520 210 527 201Z"/>
<path id="z20928d4" d="M571 367C645 287 697 237 727 220C739 212 742 204 733 195C724 186 707 173 681 159C669 153 659 158 648 163C599 182 575 188 527 201C516 205 495 227 506 227C524 229 560 226 616 214C634 209 629 221 625 230C604 266 574 314 534 375C528 386 563 377 571 367Z"/>
<path id="z20928d5" d="M747 568C753 535 761 508 770 488C783 457 783 457 790 441C797 423 809 411 822 400C834 388 836 372 824 362C773 319 728 312 691 330C651 348 608 358 571 367C546 372 546 372 534 375C489 384 445 389 403 394C392 395 386 398 388 406C389 412 397 417 410 421C448 431 482 420 518 412C547 405 547 405 561 402C601 392 643 386 684 376C718 367 734 390 731 418C729 430 726 442 724 454C718 479 718 479 715 492C708 518 701 542 695 566C692 583 744 585 747 568Z"/>
<path id="z20928d6" d="M770 488C796 486 847 484 921 484C946 483 952 470 933 453C913 436 891 428 869 427C841 425 815 435 790 441C746 450 746 450 724 454C703 458 626 470 591 476C557 481 557 481 540 484C467 495 391 505 311 516C298 517 296 522 306 533C314 541 324 547 335 550C347 553 358 552 368 550C422 533 481 523 544 514C578 509 578 509 595 506C629 500 688 493 715 492C752 489 752 489 770 488Z"/>
<path id="z20928d7" d="M552 598C535 601 445 613 397 622C365 627 370 642 405 656C417 660 430 660 440 658C470 650 504 642 554 636C587 631 587 631 604 629C634 624 706 614 766 611C802 609 779 582 747 568C731 562 712 563 695 566C675 572 632 580 602 587C569 594 569 594 552 598Z"/>
<path id="z20928d8" d="M518 412C526 424 535 447 540 484C543 504 543 504 544 514C547 540 550 567 552 598C553 623 553 623 554 636C559 731 548 795 531 827C528 830 526 833 522 835C514 837 479 829 416 820C400 817 399 824 413 835C456 871 490 902 513 929C519 937 525 940 532 940C538 938 549 933 563 920C594 890 613 832 610 748C608 710 605 656 604 629C603 601 603 601 602 587C600 546 596 520 595 506C592 486 592 486 591 476C583 420 590 414 561 402C547 397 509 400 518 412Z"/>
<defs>
	<clipPath id="z20928c1"><use href="#z20928d1"/></clipPath>
	<clipPath id="z20928c2"><use href="#z20928d2"/></clipPath>
	<clipPath id="z20928c3"><use href="#z20928d3"/></clipPath>
	<clipPath id="z20928c4"><use href="#z20928d4"/></clipPath>
	<clipPath id="z20928c5"><use href="#z20928d5"/></clipPath>
	<clipPath id="z20928c6"><use href="#z20928d6"/></clipPath>
	<clipPath id="z20928c7"><use href="#z20928d7"/></clipPath>
	<clipPath id="z20928c8"><use href="#z20928d8"/></clipPath>
</defs>
<path style="--d:1s;" pathLength="3333" clip-path="url(#z20928c1)" d="M154 211L281 315"/>
<path style="--d:2s;" pathLength="3333" clip-path="url(#z20928c2)" d="M109 688L160 735L287 456"/>
<path style="--d:3s;" pathLength="3333" clip-path="url(#z20928c3)" d="M517 56L550 112L450 263L368 343"/>
<path style="--d:4s;" pathLength="3333" clip-path="url(#z20928c4)" d="M511 221L646 187L684 209L541 374"/>
<path style="--d:5s;" pathLength="3333" clip-path="url(#z20928c5)" d="M396 404L711 348L751 359L781 394L713 577"/>
<path style="--d:6s;" pathLength="3333" clip-path="url(#z20928c6)" d="M307 521L358 530L850 456L939 468"/>
<path style="--d:7s;" pathLength="3333" clip-path="url(#z20928c7)" d="M384 634L779 596"/>
<path style="--d:8s;" pathLength="3333" clip-path="url(#z20928c8)" d="M525 410L556 431L571 523L574 810L552 866L519 887L413 826"/>
</svg>