<!--
AnimCJK 2016-2017 Copyright Francois Mizessyn, http://gooo.free.fr/animCJK/
Derived from:
    MakeMeAHanzi project - https://github.com/skishore/makemeahanzi
    Arphic PL KaitiM GB - https://apps.ubuntu.com/cat/applications/precise/fonts-arphic-gkai00mp/
    Arphic PL UKai - https://apps.ubuntu.com/cat/applications/fonts-arphic-ukai/
You can redistribute and/or modify this file under the terms of the Arphic Public License
as published by Arphic Technology Co., Ltd.
You should have received a copy of this license (the directory "APL") along with this file;
if not, see http://ftp.gnu.org/non-gnu/chinese-fonts-truetype/LICENSE.
-->
<svg id="z20937" class="acjk" version="1.1" viewBox="0 0 1024 1024" xmlns="http://www.w3.org/2000/svg" xmlns:xlink="http://www.w3.org/1999/xlink">
<style>
<![CDATA[
	@keyframes z20937k {
		from {
			stroke:#c00;
			stroke-dashoffset:3000;
		}
		75% {
			stroke:#c00;
			stroke-dashoffset:0;
		}
		to {
			stroke:#000;
		}
	}
	#z20937 path[clip-path] {
		animation:z20937k 1s linear both;
		stroke-dasharray:3000;
		stroke-width:128;
		stroke-linecap:round;
		fill:none;
	}
	#z20937 path[clip-path="url(#z20937c1)"] {animation-delay:1s;}
	#z20937 path[clip-path="url(#z20937c2)"] {animation-delay:2s;}
	#z20937 path[clip-path="url(#z20937c3)"] {animation-delay:3s;}
	#z20937 path[clip-path="url(#z20937c4)"] {animation-delay:4s;}
	#z20937 path[clip-path="url(#z20937c5)"] {animation-delay:5s;}
	#z20937 path[clip-path="url(#z20937c6)"] {animation-delay:6s;}
	#z20937 path[clip-path="url(#z20937c7)"] {animation-delay:7s;}
	#z20937 path[clip-path="url(#z20937c8)"] {animation-delay:8s;}
	#z20937 path[clip-path="url(#z20937c9)"] {animation-delay:9s;}
	#z20937 path[clip-path="url(#z20937c10)"] {animation-delay:10s;}
	#z20937 path {fill:#ccc;}
]]>
</style>
<g transform="scale(1,-1) translate(0,-900)">
	<path id="z20937d1" d="M220 656Q251 629 285 598Q301 583 319 584Q331 585 336 600Q342 618 331 651Q319 687 213 711Q195 715 188 711Q182 707 184 692Q188 679 220 656Z"/>
	<path id="z20937d2" d="M130 230Q117 229 118 210Q125 132 159 108Q166 101 177 103Q184 103 188 129Q197 165 322 424Q331 439 330 445Q331 455 321 450Q303 440 175 269Q160 250 130 230Z"/>
	<path id="z20937d3" d="M553 766Q590 739 629 706Q647 691 666 694Q679 695 684 712Q688 731 675 767Q659 806 543 825Q524 828 516 824Q510 818 513 803Q519 790 553 766Z"/>
	<path id="z20937d4" d="M371 587Q350 583 367 567Q382 554 400 550Q422 546 437 551Q590 599 841 613Q859 614 877 615Q896 616 901 624Q905 637 889 649Q834 685 797 675Q668 641 371 587Z"/>
	<path id="z20937d5" d="M468 475Q455 479 424 484Q412 485 409 481Q403 474 412 459Q440 410 460 330Q464 306 479 291Q498 269 503 286Q506 296 505 311L500 344Q484 420 481 445L468 475Z"/>
	<path id="z20937d6" d="M722 373Q750 437 780 454Q796 472 783 489Q708 550 657 521Q579 494 468 475L481 445Q490 448 660 482Q682 486 690 478Q697 471 694 454Q684 414 670 380L722 373Z"/>
	<path id="z20937d7" d="M505 311Q506 311 568 321L613 327Q662 334 732 341Q742 342 744 351Q744 358 722 373L670 380Q669 381 667 380Q573 356 500 344L505 311Z"/>
	<path id="z20937d8" d="M568 321Q581 284 579 167Q578 97 570 81Q566 68 542 74Q517 80 489 86Q476 87 475 81Q472 74 484 64Q545 6 566 -27Q581 -42 592 -40Q604 -36 618 0Q637 34 636 101Q635 210 638 249Q647 292 628 314Q621 321 613 327L568 321Z"/>
	<path id="z20937d9" d="M407 240Q382 189 347 144Q325 114 341 77Q348 59 370 70Q424 110 429 181Q436 214 430 239Q426 248 420 249Q411 248 407 240Z"/>
	<path id="z20937d10" d="M720 239Q772 184 836 106Q852 84 867 78Q877 77 885 87Q898 100 889 147Q879 207 731 268Q727 271 723 271Q714 278 711 265Q710 250 720 239Z"/>
	<defs>
		<clipPath id="z20937c1"><use xlink:href="#z20937d1"/></clipPath>
		<clipPath id="z20937c2"><use xlink:href="#z20937d2"/></clipPath>
		<clipPath id="z20937c3"><use xlink:href="#z20937d3"/></clipPath>
		<clipPath id="z20937c4"><use xlink:href="#z20937d4"/></clipPath>
		<clipPath id="z20937c5"><use xlink:href="#z20937d5"/></clipPath>
		<clipPath id="z20937c6"><use xlink:href="#z20937d6"/></clipPath>
		<clipPath id="z20937c7"><use xlink:href="#z20937d7"/></clipPath>
		<clipPath id="z20937c8"><use xlink:href="#z20937d8"/></clipPath>
		<clipPath id="z20937c9"><use xlink:href="#z20937d9"/></clipPath>
		<clipPath id="z20937c10"><use xlink:href="#z20937d10"/></clipPath>
	</defs>
	<path pathLength="2999" clip-path="url(#z20937c1)" d="M188 700L292 642L319 588"/>
	<path pathLength="2999" clip-path="url(#z20937c2)" d="M173 106L166 208L324 444"/>
	<path pathLength="2999" clip-path="url(#z20937c3)" d="M517 819L635 754L670 699"/>
	<path pathLength="2999" clip-path="url(#z20937c4)" d="M373 576L805 644L896 639"/>
	<path pathLength="2999" clip-path="url(#z20937c5)" d="M415 475L452 442L494 287"/>
	<path pathLength="2999" clip-path="url(#z20937c6)" d="M478 469L696 506L741 467L685 379"/>
	<path pathLength="2999" clip-path="url(#z20937c7)" d="M508 338L736 351"/>
	<path pathLength="2999" clip-path="url(#z20937c8)" d="M576 315L609 271L599 55L570 17L481 75"/>
	<path pathLength="2999" clip-path="url(#z20937c9)" d="M419 243L351 70"/>
	<path pathLength="2999" clip-path="url(#z20937c10)" d="M718 263L843 157L876 83"/>
</g>
</svg>