<!--
AnimCJK 2016-2019 Copyright Francois Mizessyn - https://github.com/parsimonhi/animCJK
Derived from:
    MakeMeAHanzi project - https://github.com/skishore/makemeahanzi
    Arphic PL KaitiM GB font
    Arphic PL UKai font
You can redistribute and/or modify this file under the terms of the Arphic Public License
as published by Arphic Technology Co., Ltd.
You should have received a copy of this license along with this file.
If not, see http://ftp.gnu.org/non-gnu/chinese-fonts-truetype/LICENSE.
-->
<svg id="z20935" class="acjk" version="1.1" viewBox="0 0 1024 1024" xmlns="http://www.w3.org/2000/svg" xmlns:xlink="http://www.w3.org/1999/xlink">
<style>
<![CDATA[
@keyframes zk {
	to {
		stroke-dashoffset:0;
	}
}
svg.acjk path[clip-path] {
	--t:0.8s;
	animation:zk var(--t) linear forwards var(--d);
	stroke-dasharray:3337;
	stroke-dashoffset:3339;
	stroke-width:128;
	stroke-linecap:round;
	fill:none;
	stroke:#000;
}
svg.acjk path[id] {fill:#ccc;}
]]>
</style>
<path id="z20935d1" d="M141 281Q169 312 200 347Q212 362 227 363Q237 364 245 351Q251 338 246 306Q239 270 142 233Q127 227 120 229Q114 232 115 245Q116 257 141 281Z"/>
<path id="z20935d2" d="M79 722Q69 726 71 742Q89 809 122 825Q129 831 138 828Q145 827 144 803Q148 755 223 518Q229 502 227 497Q226 488 218 495Q209 499 113 680Q103 699 79 722Z"/>
<path id="z20935d3" d="M431 394Q512 370 517 366Q524 359 520 351Q513 341 485 336Q457 332 432 345C405 356 405 356 392 361Q305 383 278 389Q245 398 270 411Q309 430 373 410C374 410 374 410 375 410C412 399 412 399 431 394Z"/>
<path id="z20935d4" d="M428 531Q429 468 431 394C432 361 432 361 432 345Q432 239 452 167Q461 154 458 140Q451 131 399 99Q377 83 358 97Q354 101 359 116Q390 165 391 213Q391 282 392 361C389 455 389 455 388 502Q379 712 379 717Q372 760 360 803Q348 843 374 899Q380 915 387 919Q393 925 400 918Q407 914 417 894Q427 870 426 841Q425 804 428 568C428 543 428 543 428 531Z"/>
<path id="z20935d5" d="M375 410Q339 536 201 744Q197 754 207 754Q228 754 320 628Q357 574 388 502C421 421 392 324 375 410Z"/>
<path id="z20935d6" d="M428 568Q465 617 487 621Q499 624 505 608Q508 596 500 578Q493 562 471 552Q443 536 428 531C417 526 421 558 428 568Z"/>
<path id="z20935d7" d="M568 339Q580 375 531 461Q518 483 480 530Q474 534 482 536Q515 536 578 458Q597 433 628 379Q638 360 639 356Q632 337 597 327Q581 324 572 327Q565 328 568 339Z"/>
<path id="z20935d8" d="M656 239Q681 258 695 287Q813 512 847 523Q925 529 956 527Q969 527 974 522Q978 518 971 513Q844 437 782 347Q749 301 712 239Q706 226 693 222Q662 215 652 224Q648 231 656 239Z"/>
<path id="z20935d9" d="M754 684Q681 693 600 710Q593 713 589 710Q588 707 592 697Q677 558 697 534Q707 524 701 513Q694 503 649 485Q634 479 625 483Q615 490 621 508Q642 557 553 688Q535 706 509 727Q497 737 501 748Q507 763 531 780Q541 789 553 779Q589 749 760 708Q761 707 766 706C774 704 762 682 754 684Z"/>
<path id="z20935d10" d="M766 706Q781 731 796 762Q803 777 816 781Q825 784 833 775Q842 765 844 737Q847 692 750 617Q738 610 733 610Q727 611 724 622Q724 628 754 684C762 699 762 699 766 706Z"/>
<defs>
	<clipPath id="z20935c1"><use xlink:href="#z20935d1"/></clipPath>
	<clipPath id="z20935c2"><use xlink:href="#z20935d2"/></clipPath>
	<clipPath id="z20935c3"><use xlink:href="#z20935d3"/></clipPath>
	<clipPath id="z20935c4"><use xlink:href="#z20935d4"/></clipPath>
	<clipPath id="z20935c5"><use xlink:href="#z20935d5"/></clipPath>
	<clipPath id="z20935c6"><use xlink:href="#z20935d6"/></clipPath>
	<clipPath id="z20935c7"><use xlink:href="#z20935d7"/></clipPath>
	<clipPath id="z20935c8"><use xlink:href="#z20935d8"/></clipPath>
	<clipPath id="z20935c9"><use xlink:href="#z20935d9"/></clipPath>
	<clipPath id="z20935c10"><use xlink:href="#z20935d10"/></clipPath>
</defs>
<path style="--d:1s;" pathLength="3333" clip-path="url(#z20935c1)" d="M123 235L209 306L234 357"/>
<path style="--d:2s;" pathLength="3333" clip-path="url(#z20935c2)" d="M134 822L114 735L221 501"/>
<path style="--d:3s;" pathLength="3333" clip-path="url(#z20935c3)" d="M268 400L516 356"/>
<path style="--d:4s;" pathLength="3333" clip-path="url(#z20935c4)" d="M363 103L421 156L388 915"/>
<path style="--d:5s;" pathLength="3333" clip-path="url(#z20935c5)" d="M383 415L344 545L208 748"/>
<path style="--d:6s;" pathLength="3333" clip-path="url(#z20935c6)" d="M432 543L500 610"/>
<path style="--d:7s;" pathLength="3333" clip-path="url(#z20935c7)" d="M575 337L600 376L486 529"/>
<path style="--d:8s;" pathLength="3333" clip-path="url(#z20935c8)" d="M657 227L691 244L852 477L967 517"/>
<path style="--d:9s;" pathLength="3333" clip-path="url(#z20935c9)" d="M626 489L664 528L555 733L573 746L759 699"/>
<path style="--d:10s;" pathLength="3333" clip-path="url(#z20935c10)" d="M732 619L809 720L823 778"/>
</svg>