<!--
AnimCJK 2016-2025 Copyright FM-SH - https://github.com/parsimonhi/animCJK
Derived from:
    MakeMeAHanzi project - https://github.com/skishore/makemeahanzi
    Arphic PL KaitiM GB font
    Arphic PL UKai font
You can redistribute and/or modify this file under the terms of the Arphic Public License
as published by Arphic Technology Co., Ltd.
You should have received a copy of this license along with this file.
If not, see https://ftp.gnu.org/non-gnu/chinese-fonts-truetype/LICENSE.
-->
<svg id="z20964" class="acjk" viewBox="0 0 1024 1024" xmlns="http://www.w3.org/2000/svg">
<style>
<![CDATA[
@keyframes zk {
	to {
		stroke-dashoffset:0;
	}
}
svg.acjk path[clip-path] {
	--t:0.8s;
	animation:zk var(--t) linear forwards var(--d);
	stroke-dasharray:3337;
	stroke-dashoffset:3339;
	stroke-width:128;
	stroke-linecap:round;
	fill:none;
	stroke:#000;
}
svg.acjk path[id] {fill:#ccc;}
]]>
</style>
<path id="z20964d1" d="M308 250C297 241 282 232 263 226C232 214 211 225 225 245C239 265 248 310 250 382C254 558 209 721 133 863C120 886 137 891 151 876C270 749 303 552 310 382C312 322 313 290 315 286C317 274 318 257 308 250Z"/>
<path id="z20964d2" d="M948 887C943 837 943 768 943 682C942 653 931 654 926 673C904 743 886 782 877 794C872 799 863 798 847 791C813 775 783 741 759 688C711 583 702 456 728 306C732 277 740 250 762 230C772 219 775 213 768 204C758 191 743 176 720 159C707 150 685 154 653 166C609 181 494 208 308 250C296 252 303 286 315 286C323 286 333 283 345 280C432 252 531 231 641 213C672 207 675 229 673 250C641 522 674 710 774 822C810 862 855 895 915 916C927 920 936 919 943 913C947 908 949 899 948 887Z"/>
<path id="z20964d3" d="M465 636C434 672 377 713 302 738C262 751 273 762 307 758C382 748 443 721 497 667C508 655 517 640 526 626C553 577 568 538 583 479C588 458 595 442 607 431C615 422 615 412 604 404C591 394 574 386 554 379C541 374 528 376 515 384C480 402 439 416 391 423C375 424 363 426 357 432C352 435 355 440 366 446C382 454 400 452 424 446C452 437 481 433 509 425C521 421 529 425 529 441C527 481 513 546 487 599C480 611 474 624 465 636Z"/>
<path id="z20964d4" d="M497 667C590 757 637 804 639 805C643 806 648 803 653 798C659 790 659 774 653 750C645 721 604 680 526 626C500 608 500 608 487 599C439 565 400 541 372 524C367 521 362 523 362 530C360 537 364 544 371 550C400 576 432 604 465 636C486 657 486 657 497 667Z"/>
<defs>
	<clipPath id="z20964c1"><use href="#z20964d1"/></clipPath>
	<clipPath id="z20964c2"><use href="#z20964d2"/></clipPath>
	<clipPath id="z20964c3"><use href="#z20964d3"/></clipPath>
	<clipPath id="z20964c4"><use href="#z20964d4"/></clipPath>
</defs>
<path style="--d:1s;" pathLength="3333" clip-path="url(#z20964c1)" d="M227 232L279 286L267 546L222 719L134 877"/>
<path style="--d:2s;" pathLength="3333" clip-path="url(#z20964c2)" d="M307 276L696 192L721 229L696 310L688 490L734 705L805 806L913 867L935 667"/>
<path style="--d:3s;" pathLength="3333" clip-path="url(#z20964c3)" d="M361 434L527 400L571 429L479 654L391 718L287 751"/>
<path style="--d:4s;" pathLength="3333" clip-path="url(#z20964c4)" d="M369 532L595 719L645 800"/>
</svg>