<!--
AnimCJK 2016-2017 Copyright Francois Mizessyn, http://gooo.free.fr/animCJK/
Derived from:
    MakeMeAHanzi project - https://github.com/skishore/makemeahanzi
    Arphic PL KaitiM GB - https://apps.ubuntu.com/cat/applications/precise/fonts-arphic-gkai00mp/
    Arphic PL UKai - https://apps.ubuntu.com/cat/applications/fonts-arphic-ukai/
You can redistribute and/or modify this file under the terms of the Arphic Public License
as published by Arphic Technology Co., Ltd.
You should have received a copy of this license (the directory "APL") along with this file;
if not, see http://ftp.gnu.org/non-gnu/chinese-fonts-truetype/LICENSE.
-->
<svg id="z20961" class="acjk" version="1.1" viewBox="0 0 1024 1024" xmlns="http://www.w3.org/2000/svg" xmlns:xlink="http://www.w3.org/1999/xlink">
<style>
<![CDATA[
	@keyframes z20961k {
		from {
			stroke:#c00;
			stroke-dashoffset:3000;
		}
		75% {
			stroke:#c00;
			stroke-dashoffset:0;
		}
		to {
			stroke:#000;
		}
	}
	#z20961 path[clip-path] {
		animation:z20961k 1s linear both;
		stroke-dasharray:3000;
		stroke-width:128;
		stroke-linecap:round;
		fill:none;
	}
	#z20961 path[clip-path="url(#z20961c1)"] {animation-delay:1s;}
	#z20961 path[clip-path="url(#z20961c2)"] {animation-delay:2s;}
	#z20961 path[clip-path="url(#z20961c3)"] {animation-delay:3s;}
	#z20961 path {fill:#ccc;}
]]>
</style>
<g transform="scale(1,-1) translate(0,-900)">
	<path id="z20961d1" d="M393 463Q394 482 395 500Q398 629 411 670L392 708Q343 735 316 721Q303 714 311 699Q347 645 342 488Q338 442 329 390Q286 206 143 84Q127 68 112 54Q99 41 114 40Q129 41 165 63Q231 105 277 162Q361 259 390 431Q390 435 391 438L393 463Z"/>
	<path id="z20961d2" d="M411 670Q426 673 560 714Q575 721 583 717Q589 711 577 528Q553 194 580 140Q580 100 674 60Q749 33 845 43Q908 49 971 78Q993 85 986 111Q973 159 967 225Q964 261 957 267Q948 273 944 260Q899 149 863 126Q841 113 792 109Q728 108 691 119Q654 131 639 151Q606 196 623 388Q633 538 659 636Q669 681 708 714Q724 735 705 750Q680 769 624 788Q602 794 580 780Q498 723 392 708L411 670Z"/>
	<path id="z20961d3" d="M391 438Q397 431 411 420Q442 392 478 360Q490 348 503 349Q513 349 517 361Q521 374 514 399Q505 433 407 462Q398 463 393 463L391 438Z"/>
	<defs>
		<clipPath id="z20961c1"><use xlink:href="#z20961d1"/></clipPath>
		<clipPath id="z20961c2"><use xlink:href="#z20961d2"/></clipPath>
		<clipPath id="z20961c3"><use xlink:href="#z20961d3"/></clipPath>
	</defs>
	<path pathLength="2999" clip-path="url(#z20961c1)" d="M312 710L358 689L370 655L347 357L270 191L115 46"/>
	<path pathLength="2999" clip-path="url(#z20961c2)" d="M400 705L436 696L599 753L662 721L616 612L592 331L598 179L628 119L745 77L878 88L947 130L951 262"/>
	<path pathLength="2999" clip-path="url(#z20961c3)" d="M399 458L511 358"/>
</g>
</svg>