<!--
AnimCJK 2016-2018 Copyright Francois Mizessyn - https://github.com/parsimonhi/animCJK
Derived from:
    MakeMeAHanzi project - https://github.com/skishore/makemeahanzi
    Arphic PL KaitiM GB - https://apps.ubuntu.com/cat/applications/precise/fonts-arphic-gkai00mp/
    Arphic PL UKai - https://apps.ubuntu.com/cat/applications/fonts-arphic-ukai/
You can redistribute and/or modify this file under the terms of the Arphic Public License
as published by Arphic Technology Co., Ltd.
You should have received a copy of this license (the directory "APL") along with this file;
if not, see http://ftp.gnu.org/non-gnu/chinese-fonts-truetype/LICENSE.
-->
<svg id="z20979" class="acjk" version="1.1" viewBox="0 0 1024 1024" xmlns="http://www.w3.org/2000/svg" xmlns:xlink="http://www.w3.org/1999/xlink">
<style>
<![CDATA[
@keyframes z20979k {
	from {
		stroke:#ccc;
		stroke-dashoffset:3334;
	}
	1% {
		stroke:#c00;
		stroke-dashoffset:3334;
	}
	75% {
		stroke:#c00;
		stroke-dashoffset:0;
	}
	to {
		stroke:#000;
	}
}
#z20979 path[clip-path] {
	animation:z20979k 1s linear both;
	stroke-dasharray:3334;
	stroke-width:128;
	stroke-linecap:round;
	fill:none;
}
#z20979 path[clip-path="url(#z20979c1)"] {animation-delay:1s;}
#z20979 path[clip-path="url(#z20979c2)"] {animation-delay:2s;}
#z20979 path[clip-path="url(#z20979c3)"] {animation-delay:3s;}
#z20979 path[clip-path="url(#z20979c4)"] {animation-delay:4s;}
#z20979 path[clip-path="url(#z20979c5)"] {animation-delay:5s;}
#z20979 path[clip-path="url(#z20979c6)"] {animation-delay:6s;}
#z20979 path[clip-path="url(#z20979c7)"] {animation-delay:7s;}
#z20979 path[clip-path="url(#z20979c8)"] {animation-delay:8s;}
#z20979 path[clip-path="url(#z20979c9)"] {animation-delay:9s;}
#z20979 path[clip-path="url(#z20979c10)"] {animation-delay:10s;}
#z20979 path[clip-path="url(#z20979c11)"] {animation-delay:11s;}
#z20979 path[clip-path="url(#z20979c12)"] {animation-delay:12s;}
#z20979 path[clip-path="url(#z20979c13)"] {animation-delay:13s;}
#z20979 path[clip-path="url(#z20979c14)"] {animation-delay:14s;}
#z20979 path {fill:#ccc;}
]]>
</style>
<path id="z20979d1" d="M340 347Q364 316 390 275L401 256Q431 196 462 173Q475 166 476 158Q476 146 451 131Q420 110 407 110Q397 110 386 117Q316 139 291 144Q258 143 256 149Q255 152 260 157Q273 169 299 174Q317 173 349 157Q370 150 379 157Q385 161 365 212Q310 383 110 476Q101 480 102 484Q103 488 109 488Q220 481 327 363L340 347 Z"/>
<path id="z20979d2" d="M221 259Q260 295 286 305Q298 306 304 296Q308 286 305 273Q292 240 228 229Q215 226 208 230Q204 231 206 240Q209 249 221 259 Z"/>
<path id="z20979d3" d="M585 159Q643 128 672 115Q687 114 684 104Q680 91 666 74Q653 58 634 56Q622 55 622 71Q623 86 571 145L585 159 Z"/>
<path id="z20979d4" d="M657 228Q691 215 711 206Q762 182 784 177Q800 173 795 159Q788 146 772 131Q757 118 748 118Q739 117 740 127Q737 151 646 218L657 228 Z"/>
<path id="z20979d5" d="M646 218Q616 190 585 159L571 145L571 144Q552 123 521 120Q512 119 505 124Q501 130 509 135Q554 160 636 259Q759 397 821 401Q932 382 951 374Q958 367 947 360Q932 353 823 327Q750 309 657 228L646 218 Z"/>
<path id="z20979d6" d="M390 275Q403 282 423 287Q441 290 533 273Q584 261 587 260Q594 253 591 246Q584 236 559 230Q540 227 463 247Q433 253 401 256L390 275 Z"/>
<path id="z20979d7" d="M377 352Q367 348 340 347L327 363Q348 384 372 465Q376 484 390 496Q406 512 409 499Q410 492 411 481L405 450Q393 404 390 382L377 352 Z"/>
<path id="z20979d8" d="M612 427Q634 379 657 369Q672 354 660 338Q647 326 602 304Q587 297 569 304Q491 334 377 352L390 382Q405 376 553 348Q571 344 579 351Q583 355 582 367Q578 395 570 418L612 427 Z"/>
<path id="z20979d9" d="M592 459Q604 456 620 456Q630 455 631 447Q631 440 612 427L570 418Q566 417 560 419Q475 440 405 450L411 481Q417 481 424 480Q470 470 561 461L592 459 Z"/>
<path id="z20979d10" d="M431 595Q434 585 433 569Q430 542 361 510Q349 504 344 506Q340 507 339 518Q340 527 357 547Q376 569 395 598Q395 599 396 600L431 595 Z"/>
<path id="z20979d11" d="M555 576Q559 570 565 565Q589 540 613 514Q628 507 622 496Q616 481 592 459L561 461Q561 462 562 465Q568 486 533 559Q526 571 523 581L555 576 Z"/>
<path id="z20979d12" d="M523 581Q459 587 431 595L396 600Q284 613 164 630Q143 631 159 649Q192 679 228 669Q432 609 799 609Q818 608 823 600Q829 588 812 574Q755 531 703 548Q642 560 555 576L523 581 Z"/>
<path id="z20979d13" d="M398 685Q365 666 351 669Q339 672 343 685Q362 724 335 806Q308 884 220 935Q210 942 219 945Q261 948 314 908Q371 863 403 751Q410 720 418 713L398 685 Z"/>
<path id="z20979d14" d="M418 713Q419 713 507 690Q525 686 530 692Q536 698 532 718Q510 907 630 937Q682 953 758 948Q830 944 887 912Q909 897 896 872Q865 817 854 752Q850 743 844 744Q840 744 835 758Q823 854 796 871Q714 904 629 877Q613 871 603 861Q587 848 581 817Q569 745 605 704Q606 701 609 700Q642 678 566 646Q542 636 527 646Q493 665 398 685L418 713 Z"/>
<defs>
	<clipPath id="z20979c1"><use xlink:href="#z20979d1"/></clipPath>
	<clipPath id="z20979c2"><use xlink:href="#z20979d2"/></clipPath>
	<clipPath id="z20979c3"><use xlink:href="#z20979d3"/></clipPath>
	<clipPath id="z20979c4"><use xlink:href="#z20979d4"/></clipPath>
	<clipPath id="z20979c5"><use xlink:href="#z20979d5"/></clipPath>
	<clipPath id="z20979c6"><use xlink:href="#z20979d6"/></clipPath>
	<clipPath id="z20979c7"><use xlink:href="#z20979d7"/></clipPath>
	<clipPath id="z20979c8"><use xlink:href="#z20979d8"/></clipPath>
	<clipPath id="z20979c9"><use xlink:href="#z20979d9"/></clipPath>
	<clipPath id="z20979c10"><use xlink:href="#z20979d10"/></clipPath>
	<clipPath id="z20979c11"><use xlink:href="#z20979d11"/></clipPath>
	<clipPath id="z20979c12"><use xlink:href="#z20979d12"/></clipPath>
	<clipPath id="z20979c13"><use xlink:href="#z20979d13"/></clipPath>
	<clipPath id="z20979c14"><use xlink:href="#z20979d14"/></clipPath>
</defs>
<path pathLength="3333" clip-path="url(#z20979c1)" d="M262 151L393 135L425 169L280 384L109 483"/>
<path pathLength="3333" clip-path="url(#z20979c2)" d="M213 239L302 295"/>
<path pathLength="3333" clip-path="url(#z20979c3)" d="M678 107L635 94L582 149"/>
<path pathLength="3333" clip-path="url(#z20979c4)" d="M749 123L757 164L652 220"/>
<path pathLength="3333" clip-path="url(#z20979c5)" d="M512 128L774 345L946 368"/>
<path pathLength="3333" clip-path="url(#z20979c6)" d="M396 272L586 250"/>
<path pathLength="3333" clip-path="url(#z20979c7)" d="M335 364L363 376L400 499"/>
<path pathLength="3333" clip-path="url(#z20979c8)" d="M386 356L588 326L623 355L581 419"/>
<path pathLength="3333" clip-path="url(#z20979c9)" d="M412 452L626 443"/>
<path pathLength="3333" clip-path="url(#z20979c10)" d="M346 511L419 596"/>
<path pathLength="3333" clip-path="url(#z20979c11)" d="M568 469L588 507L530 574"/>
<path pathLength="3333" clip-path="url(#z20979c12)" d="M159 638L215 647L737 576L819 589"/>
<path pathLength="3333" clip-path="url(#z20979c13)" d="M352 675L384 720L349 829L304 893L224 940"/>
<path pathLength="3333" clip-path="url(#z20979c14)" d="M407 689L534 665L570 683L553 779L565 851L609 899L676 917L778 913L849 883L845 750"/>
</svg>