<!--
AnimCJK 2016-2018 Copyright Francois Mizessyn, http://gooo.free.fr/animCJK/
Derived from:
    MakeMeAHanzi project - https://github.com/skishore/makemeahanzi
    Arphic PL KaitiM GB - https://apps.ubuntu.com/cat/applications/precise/fonts-arphic-gkai00mp/
    Arphic PL UKai - https://apps.ubuntu.com/cat/applications/fonts-arphic-ukai/
You can redistribute and/or modify this file under the terms of the Arphic Public License
as published by Arphic Technology Co., Ltd.
You should have received a copy of this license (the directory "APL") along with this file;
if not, see http://ftp.gnu.org/non-gnu/chinese-fonts-truetype/LICENSE.
-->
<svg id="z20982" class="acjk" version="1.1" viewBox="0 0 1024 1024" xmlns="http://www.w3.org/2000/svg" xmlns:xlink="http://www.w3.org/1999/xlink">
<style>
<![CDATA[
@keyframes z20982k {
	from {
		stroke:#ccc;
		stroke-dashoffset:3334;
	}
	1% {
		stroke:#c00;
		stroke-dashoffset:3334;
	}
	75% {
		stroke:#c00;
		stroke-dashoffset:0;
	}
	to {
		stroke:#000;
	}
}
#z20982 path[clip-path] {
	animation:z20982k 1s linear both;
	stroke-dasharray:3334;
	stroke-width:128;
	stroke-linecap:round;
	fill:none;
}
#z20982 path[clip-path="url(#z20982c1)"] {animation-delay:1s;}
#z20982 path[clip-path="url(#z20982c2)"] {animation-delay:2s;}
#z20982 path[clip-path="url(#z20982c3)"] {animation-delay:3s;}
#z20982 path[clip-path="url(#z20982c4)"] {animation-delay:4s;}
#z20982 path {fill:#ccc;}
]]>
</style>
<path id="z20982d1" d="M 482,435 C 450,479 389,540 301,620 296,624 295,628 304,628 350,623 415,573 498,486 503,480 509,473 516,466 L 553,419 C 582,381 615,328 656,262 670,238 679,224 679,222 679,215 673,207 664,200 638,179 614,171 594,176 588,177 586,181 588,191 596,245 561,325 513,392 Z"/>
<path id="z20982d2" d="M 516,466 C 560,506 608,550 657,600 668,611 676,620 686,622 690,622 695,620 701,614 707,605 705,588 699,562 691,532 646,481 553,419 L 513,392 C 430,336 367,293 321,268 315,264 311,267 311,275 310,283 314,290 321,296 371,337 425,383 482,435 Z"/>
<path id="z20982d3" d="M 807,682 C 598,690 414,712 256,747 235,751 230,742 233,718 240,655 241,591 248,526 249,507 248,491 239,481 226,466 210,455 191,445 182,440 173,438 165,441 156,444 155,454 162,469 188,527 196,585 190,644 183,699 172,741 149,766 135,779 127,791 134,803 141,816 153,826 168,836 178,842 188,843 196,836 206,825 224,812 252,805 368,772 487,750 609,734 707,720 771,718 800,726 Z"/>
<path id="z20982d4" d="M 800,726 C 793,768 791,802 803,828 805,832 807,838 811,845 817,857 827,860 837,850 869,815 868,714 870,684 876,549 886,462 893,445 895,437 897,428 902,421 908,408 908,395 898,385 883,371 861,358 834,344 823,338 813,339 803,344 796,346 791,354 797,365 820,406 817,614 807,682 Z"/>
<defs>
	<clipPath id="z20982c1"><use xlink:href="#z20982d1"/></clipPath>
	<clipPath id="z20982c2"><use xlink:href="#z20982d2"/></clipPath>
	<clipPath id="z20982c3"><use xlink:href="#z20982d3"/></clipPath>
	<clipPath id="z20982c4"><use xlink:href="#z20982d4"/></clipPath>
</defs>
<path pathLength="3333" clip-path="url(#z20982c1)" d="M595 179L632 228L548 383L432 522L305 623"/>
<path pathLength="3333" clip-path="url(#z20982c2)" d="M318 275L638 532L680 617"/>
<path pathLength="3333" clip-path="url(#z20982c3)" d="M 167,448 215,515 203,754 170,783 216,800 513,726 803,699"/>
<path pathLength="3333" clip-path="url(#z20982c4)" d="M802 351L861 417L819 851"/>
</svg>