<!--
AnimCJK 2016-2019 Copyright Francois Mizessyn - https://github.com/parsimonhi/animCJK
Derived from:
    MakeMeAHanzi project - https://github.com/skishore/makemeahanzi
    Arphic PL KaitiM GB font
    Arphic PL UKai font
You can redistribute and/or modify this file under the terms of the Arphic Public License
as published by Arphic Technology Co., Ltd.
You should have received a copy of this license along with this file.
If not, see http://ftp.gnu.org/non-gnu/chinese-fonts-truetype/LICENSE.
-->
<svg id="z21005" class="acjk" version="1.1" viewBox="0 0 1024 1024" xmlns="http://www.w3.org/2000/svg" xmlns:xlink="http://www.w3.org/1999/xlink">
<style>
<![CDATA[
@keyframes zk {
	to {
		stroke-dashoffset:0;
	}
}
svg.acjk path[clip-path] {
	--t:0.8s;
	animation:zk var(--t) linear forwards var(--d);
	stroke-dasharray:3337;
	stroke-dashoffset:3339;
	stroke-width:128;
	stroke-linecap:round;
	fill:none;
	stroke:#000;
}
svg.acjk path[id] {fill:#ccc;}
]]>
</style>
<path id="z21005d1" d="M439 236Q488 176 522 154Q532 147 531 133Q530 120 507 95Q485 73 468 70Q450 69 454 91Q466 133 361 249Q312 301 247 357Q237 364 233 370Q229 380 241 380Q286 380 422 252C433 241 433 241 439 236Z"/>
<path id="z21005d2" d="M526 434Q551 406 601 348Q652 285 702 250Q721 238 708 224Q693 211 653 188Q644 185 594 200Q456 233 439 236C431 237 415 248 422 252Q438 267 529 254Q592 241 598 246Q602 250 595 264Q565 321 494 440C488 449 519 443 526 434Z"/>
<path id="z21005d3" d="M494 440Q490 440 486 441Q366 462 240 467Q218 468 220 480Q223 490 246 500Q277 516 322 503Q479 478 629 454Q669 447 684 463Q705 482 701 523Q682 652 655 753C649 771 710 776 713 757Q746 547 809 486Q830 462 811 440Q789 422 723 392Q701 382 672 393Q596 418 526 434C505 438 505 438 494 440Z"/>
<path id="z21005d4" d="M249 633Q218 636 242 655Q278 686 308 678Q449 650 626 633Q638 634 648 621Q649 608 625 596Q586 574 504 596Q347 623 249 633Z"/>
<path id="z21005d5" d="M655 753Q427 795 247 805Q219 806 234 832Q243 845 257 850Q272 854 290 852Q432 827 740 814Q756 813 758 801Q759 791 718 759Q717 758 713 757C695 750 674 749 655 753Z"/>
<defs>
	<clipPath id="z21005c1"><use xlink:href="#z21005d1"/></clipPath>
	<clipPath id="z21005c2"><use xlink:href="#z21005d2"/></clipPath>
	<clipPath id="z21005c3"><use xlink:href="#z21005d3"/></clipPath>
	<clipPath id="z21005c4"><use xlink:href="#z21005d4"/></clipPath>
	<clipPath id="z21005c5"><use xlink:href="#z21005d5"/></clipPath>
</defs>
<path style="--d:1s;" pathLength="3333" clip-path="url(#z21005c1)" d="M464 79L488 137L374 267L242 370"/>
<path style="--d:2s;" pathLength="3333" clip-path="url(#z21005c2)" d="M430 252L620 217L658 239L502 433"/>
<path style="--d:3s;" pathLength="3333" clip-path="url(#z21005c3)" d="M229 480L381 475L676 422L719 436L768 477L669 753"/>
<path style="--d:4s;" pathLength="3333" clip-path="url(#z21005c4)" d="M238 641L293 654L643 615"/>
<path style="--d:5s;" pathLength="3333" clip-path="url(#z21005c5)" d="M233 815L281 828L649 786L752 794"/>
</svg>