<!--
AnimCJK 2016-2019 Copyright Francois Mizessyn - https://github.com/parsimonhi/animCJK
Derived from:
    MakeMeAHanzi project - https://github.com/skishore/makemeahanzi
    Arphic PL KaitiM GB font
    Arphic PL UKai font
You can redistribute and/or modify this file under the terms of the Arphic Public License
as published by Arphic Technology Co., Ltd.
You should have received a copy of this license along with this file.
If not, see http://ftp.gnu.org/non-gnu/chinese-fonts-truetype/LICENSE.
-->
<svg id="z21017" class="acjk" version="1.1" viewBox="0 0 1024 1024" xmlns="http://www.w3.org/2000/svg" xmlns:xlink="http://www.w3.org/1999/xlink">
<style>
<![CDATA[
@keyframes zk {
	to {
		stroke-dashoffset:0;
	}
}
svg.acjk path[clip-path] {
	--t:0.8s;
	animation:zk var(--t) linear forwards var(--d);
	stroke-dasharray:3337;
	stroke-dashoffset:3339;
	stroke-width:128;
	stroke-linecap:round;
	fill:none;
	stroke:#000;
}
svg.acjk path[id] {fill:#ccc;}
]]>
</style>
<path id="z21017d1" d="M239 198Q220 182 196 176Q187 175 181 182Q178 188 185 198Q231 294 195 511Q179 587 181 599Q190 632 201 644Q211 657 221 644Q248 617 249 430Q249 289 257 224C259 214 247 204 239 198Z"/>
<path id="z21017d2" d="M422 540Q415 562 428 583Q441 611 450 610Q463 609 479 577Q492 552 492 532Q479 438 481 291Q481 248 504 212Q514 196 506 187Q479 165 433 145Q418 141 396 149Q338 179 239 198C229 200 246 224 257 224Q261 224 267 223Q403 187 415 194Q427 219 432 290Q433 500 422 540Z"/>
<path id="z21017d3" d="M318 385Q327 667 253 767Q216 813 139 866Q129 870 125 875Q121 879 136 881Q190 881 286 797Q298 782 310 765Q365 672 366 485Q370 386 381 356Q385 346 377 339Q361 326 328 313Q309 306 294 311Q276 318 291 333Q316 358 318 385Z"/>
<path id="z21017d4" d="M390 720Q427 759 472 814Q485 832 498 837Q505 838 513 830Q525 820 515 780Q509 744 450 717Q413 701 392 693Q385 689 382 699Q381 711 390 720Z"/>
<path id="z21017d5" d="M581 292Q614 364 593 548Q584 584 615 619Q625 629 635 618Q657 581 653 536Q647 383 655 321Q661 299 641 287Q625 277 607 269Q594 265 585 270Q576 277 581 292Z"/>
<path id="z21017d6" d="M785 201Q789 237 796 772Q796 794 784 803Q775 812 750 807Q722 804 695 802Q659 793 663 804Q666 811 688 824Q761 869 781 897Q805 930 822 929Q837 929 849 892Q865 846 858 770Q839 541 842 312Q845 221 857 172Q873 141 816 118Q780 100 761 108Q742 115 760 138Q782 166 785 201Z"/>
<defs>
	<clipPath id="z21017c1"><use xlink:href="#z21017d1"/></clipPath>
	<clipPath id="z21017c2"><use xlink:href="#z21017d2"/></clipPath>
	<clipPath id="z21017c3"><use xlink:href="#z21017d3"/></clipPath>
	<clipPath id="z21017c4"><use xlink:href="#z21017d4"/></clipPath>
	<clipPath id="z21017c5"><use xlink:href="#z21017d5"/></clipPath>
	<clipPath id="z21017c6"><use xlink:href="#z21017d6"/></clipPath>
</defs>
<path style="--d:1s;" pathLength="3333" clip-path="url(#z21017c1)" d="M188 184L229 235L208 642"/>
<path style="--d:2s;" pathLength="3333" clip-path="url(#z21017c2)" d="M248 201L414 168L464 204L441 602"/>
<path style="--d:3s;" pathLength="3333" clip-path="url(#z21017c3)" d="M290 322L348 360L317 686L268 784L132 876"/>
<path style="--d:4s;" pathLength="3333" clip-path="url(#z21017c4)" d="M390 704L472 766L510 830"/>
<path style="--d:5s;" pathLength="3333" clip-path="url(#z21017c5)" d="M590 273L624 320L621 619"/>
<path style="--d:6s;" pathLength="3333" clip-path="url(#z21017c6)" d="M759 115L821 170L825 814L795 877L671 805"/>
</svg>