<!--
AnimCJK 2016-2017 Copyright Francois Mizessyn, http://gooo.free.fr/animCJK/
Derived from:
    MakeMeAHanzi project - https://github.com/skishore/makemeahanzi
    Arphic PL KaitiM GB - https://apps.ubuntu.com/cat/applications/precise/fonts-arphic-gkai00mp/
    Arphic PL UKai - https://apps.ubuntu.com/cat/applications/fonts-arphic-ukai/
You can redistribute and/or modify this file under the terms of the Arphic Public License
as published by Arphic Technology Co., Ltd.
You should have received a copy of this license (the directory "APL") along with this file;
if not, see http://ftp.gnu.org/non-gnu/chinese-fonts-truetype/LICENSE.
-->
<svg id="z21017" class="acjk" version="1.1" viewBox="0 0 1024 1024" xmlns="http://www.w3.org/2000/svg" xmlns:xlink="http://www.w3.org/1999/xlink">
<style>
<![CDATA[
	@keyframes z21017k {
		from {
			stroke:#c00;
			stroke-dashoffset:3000;
		}
		75% {
			stroke:#c00;
			stroke-dashoffset:0;
		}
		to {
			stroke:#000;
		}
	}
	#z21017 path[clip-path] {
		animation:z21017k 1s linear both;
		stroke-dasharray:3000;
		stroke-width:128;
		stroke-linecap:round;
		fill:none;
	}
	#z21017 path[clip-path="url(#z21017c1)"] {animation-delay:1s;}
	#z21017 path[clip-path="url(#z21017c2)"] {animation-delay:2s;}
	#z21017 path[clip-path="url(#z21017c3)"] {animation-delay:3s;}
	#z21017 path[clip-path="url(#z21017c4)"] {animation-delay:4s;}
	#z21017 path[clip-path="url(#z21017c5)"] {animation-delay:5s;}
	#z21017 path[clip-path="url(#z21017c6)"] {animation-delay:6s;}
	#z21017 path {fill:#ccc;}
]]>
</style>
<g transform="scale(1,-1) translate(0,-900)">
	<path id="z21017d1" d="M239 702Q220 718 196 724Q187 725 181 718Q178 712 185 702Q231 606 195 389Q179 313 181 301Q190 268 201 256Q211 243 221 256Q248 283 249 470Q249 611 257 676L239 702Z"/>
	<path id="z21017d2" d="M422 360Q415 338 428 317Q441 289 450 290Q463 291 479 323Q492 348 492 368Q479 462 481 609Q481 652 504 688Q514 704 506 713Q479 735 433 755Q418 759 396 751Q338 721 239 702L257 676Q261 676 267 677Q403 713 415 706Q427 681 432 610Q433 400 422 360Z"/>
	<path id="z21017d3" d="M318 515Q327 233 253 133Q216 87 139 34Q129 30 125 25Q121 21 136 19Q190 19 286 103Q298 118 310 135Q365 228 366 415Q370 514 381 544Q385 554 377 561Q361 574 328 587Q309 594 294 589Q276 582 291 567Q316 542 318 515Z"/>
	<path id="z21017d4" d="M390 180Q427 141 472 86Q485 68 498 63Q505 62 513 70Q525 80 515 120Q509 156 450 183Q413 199 392 207Q385 211 382 201Q381 189 390 180Z"/>
	<path id="z21017d5" d="M581 608Q614 536 593 352Q584 316 615 281Q625 271 635 282Q657 319 653 364Q647 517 655 579Q661 601 641 613Q625 623 607 631Q594 635 585 630Q576 623 581 608Z"/>
	<path id="z21017d6" d="M785 699Q789 663 796 128Q796 106 784 97Q775 88 750 93Q722 96 695 98Q659 107 663 96Q666 89 688 76Q761 31 781 3Q805 -30 822 -29Q837 -29 849 8Q865 54 858 130Q839 359 842 588Q845 679 857 728Q873 759 816 782Q780 800 761 792Q742 785 760 762Q782 734 785 699Z"/>
	<defs>
		<clipPath id="z21017c1"><use xlink:href="#z21017d1"/></clipPath>
		<clipPath id="z21017c2"><use xlink:href="#z21017d2"/></clipPath>
		<clipPath id="z21017c3"><use xlink:href="#z21017d3"/></clipPath>
		<clipPath id="z21017c4"><use xlink:href="#z21017d4"/></clipPath>
		<clipPath id="z21017c5"><use xlink:href="#z21017d5"/></clipPath>
		<clipPath id="z21017c6"><use xlink:href="#z21017d6"/></clipPath>
	</defs>
	<path pathLength="2999" clip-path="url(#z21017c1)" d="M188 716L229 665L208 258"/>
	<path pathLength="2999" clip-path="url(#z21017c2)" d="M248 699L414 732L464 696L441 298"/>
	<path pathLength="2999" clip-path="url(#z21017c3)" d="M290 578L348 540L317 214L268 116L132 24"/>
	<path pathLength="2999" clip-path="url(#z21017c4)" d="M390 196L472 134L510 70"/>
	<path pathLength="2999" clip-path="url(#z21017c5)" d="M590 627L624 580L621 281"/>
	<path pathLength="2999" clip-path="url(#z21017c6)" d="M759 785L821 730L825 86L795 23L671 95"/>
</g>
</svg>