<!--
AnimCJK 2016-2017 Copyright Francois Mizessyn, http://gooo.free.fr/animCJK/
Derived from:
    MakeMeAHanzi project - https://github.com/skishore/makemeahanzi
    Arphic PL KaitiM GB - https://apps.ubuntu.com/cat/applications/precise/fonts-arphic-gkai00mp/
    Arphic PL UKai - https://apps.ubuntu.com/cat/applications/fonts-arphic-ukai/
You can redistribute and/or modify this file under the terms of the Arphic Public License
as published by Arphic Technology Co., Ltd.
You should have received a copy of this license (the directory "APL") along with this file;
if not, see http://ftp.gnu.org/non-gnu/chinese-fonts-truetype/LICENSE.
-->
<svg id="z21058" class="acjk" version="1.1" viewBox="0 0 1024 1024" xmlns="http://www.w3.org/2000/svg" xmlns:xlink="http://www.w3.org/1999/xlink">
<style>
<![CDATA[
	@keyframes z21058k {
		from {
			stroke:#c00;
			stroke-dashoffset:3000;
		}
		75% {
			stroke:#c00;
			stroke-dashoffset:0;
		}
		to {
			stroke:#000;
		}
	}
	#z21058 path[clip-path] {
		animation:z21058k 1s linear both;
		stroke-dasharray:3000;
		stroke-width:128;
		stroke-linecap:round;
		fill:none;
	}
	#z21058 path[clip-path="url(#z21058c1)"] {animation-delay:1s;}
	#z21058 path[clip-path="url(#z21058c2)"] {animation-delay:2s;}
	#z21058 path[clip-path="url(#z21058c3)"] {animation-delay:3s;}
	#z21058 path[clip-path="url(#z21058c4)"] {animation-delay:4s;}
	#z21058 path[clip-path="url(#z21058c5)"] {animation-delay:5s;}
	#z21058 path[clip-path="url(#z21058c6)"] {animation-delay:6s;}
	#z21058 path[clip-path="url(#z21058c7)"] {animation-delay:7s;}
	#z21058 path[clip-path="url(#z21058c8)"] {animation-delay:8s;}
	#z21058 path {fill:#ccc;}
]]>
</style>
<g transform="scale(1,-1) translate(0,-900)">
	<path id="z21058d1" d="M350 757Q378 733 409 705Q424 692 441 693Q451 694 457 708Q461 724 451 755Q439 786 343 807Q327 810 320 807Q314 803 317 789Q321 779 350 757Z"/>
	<path id="z21058d2" d="M441 602Q498 611 544 618Q556 617 565 631Q566 644 541 654Q508 675 435 653Q347 631 172 599Q141 595 165 576Q204 549 233 558Q306 576 401 594L441 602Z"/>
	<path id="z21058d3" d="M414 456Q430 484 443 517Q456 554 466 563Q475 573 469 582Q460 595 441 602L401 594Q413 555 374 474L351 440Q312 365 115 318Q100 312 117 309Q225 291 321 349Q361 374 387 416L414 456Z"/>
	<path id="z21058d4" d="M387 416Q444 377 509 328Q524 315 537 313Q544 313 548 322Q555 335 540 367Q525 404 414 456L374 474Q301 507 259 521Q250 525 251 514Q252 504 262 497Q304 472 351 440L387 416Z"/>
	<path id="z21058d5" d="M249 279Q273 249 260 161Q244 83 193 42Q180 30 166 18Q156 9 166 7Q236 16 291 99Q291 100 292 102Q310 147 324 220Q325 236 332 253Q339 271 324 278Q276 306 254 297Q242 293 249 279Z"/>
	<path id="z21058d6" d="M419 312Q437 281 422 105Q421 104 421 101Q415 2 459 -26Q459 -25 460 -26Q470 -27 475 -15Q481 4 482 66Q476 234 482 284Q483 294 478 301Q456 320 438 328Q426 331 418 324Q412 321 419 312Z"/>
	<path id="z21058d7" d="M599 559Q629 496 612 323Q605 293 635 253Q645 243 655 254Q673 284 673 359Q669 464 676 528Q683 553 661 564Q645 574 626 583Q613 587 603 581Q594 574 599 559Z"/>
	<path id="z21058d8" d="M772 687Q776 651 778 111Q778 89 765 80Q755 74 678 95Q644 108 647 96Q648 89 669 74Q741 19 759 -12Q780 -49 797 -50Q813 -51 827 -14Q846 34 843 110Q824 342 829 577Q832 668 845 715Q861 746 804 770Q770 788 749 781Q730 774 748 750Q770 722 772 687Z"/>
	<defs>
		<clipPath id="z21058c1"><use xlink:href="#z21058d1"/></clipPath>
		<clipPath id="z21058c2"><use xlink:href="#z21058d2"/></clipPath>
		<clipPath id="z21058c3"><use xlink:href="#z21058d3"/></clipPath>
		<clipPath id="z21058c4"><use xlink:href="#z21058d4"/></clipPath>
		<clipPath id="z21058c5"><use xlink:href="#z21058d5"/></clipPath>
		<clipPath id="z21058c6"><use xlink:href="#z21058d6"/></clipPath>
		<clipPath id="z21058c7"><use xlink:href="#z21058d7"/></clipPath>
		<clipPath id="z21058c8"><use xlink:href="#z21058d8"/></clipPath>
	</defs>
	<path pathLength="2999" clip-path="url(#z21058c1)" d="M323 799L415 747L442 698"/>
	<path pathLength="2999" clip-path="url(#z21058c2)" d="M161 590L222 582L473 635L559 634"/>
	<path pathLength="2999" clip-path="url(#z21058c3)" d="M409 591L435 558L335 387L237 334L117 314"/>
	<path pathLength="2999" clip-path="url(#z21058c4)" d="M258 515L481 386L539 318"/>
	<path pathLength="2999" clip-path="url(#z21058c5)" d="M255 291L298 254L276 128L243 69L172 16"/>
	<path pathLength="2999" clip-path="url(#z21058c6)" d="M421 323L454 282L459 -21"/>
	<path pathLength="2999" clip-path="url(#z21058c7)" d="M606 575L644 532L640 255"/>
	<path pathLength="2999" clip-path="url(#z21058c8)" d="M746 776L809 714L808 77L778 3L655 96"/>
</g>
</svg>