<!--
AnimCJK 2016-2025 Copyright FM-SH - https://github.com/parsimonhi/animCJK
Derived from:
    MakeMeAHanzi project - https://github.com/skishore/makemeahanzi
    Arphic PL KaitiM GB font
    Arphic PL KaitiM Big5 font
You can redistribute and/or modify this file under the terms of the Arphic Public License
as published by Arphic Technology Co., Ltd.
You should have received a copy of this license along with this file.
If not, see https://ftp.gnu.org/non-gnu/chinese-fonts-truetype/LICENSE.
-->
<svg id="z21051" class="acjk" viewBox="0 0 1024 1024" xmlns="http://www.w3.org/2000/svg">
<style>
<![CDATA[
@keyframes zk {
	to {
		stroke-dashoffset:0;
	}
}
svg.acjk path[clip-path] {
	--t:0.8s;
	animation:zk var(--t) linear forwards var(--d);
	stroke-dasharray:3337;
	stroke-dashoffset:3339;
	stroke-width:128;
	stroke-linecap:round;
	fill:none;
	stroke:#000;
}
svg.acjk path[id] {fill:#ccc;}
]]>
</style>
<path id="z21051d1" d="M355 132C374 147 392 166 413 186C423 196 434 199 446 199C454 198 460 193 464 183C467 172 466 155 459 133C454 118 441 105 419 97C366 76 334 70 324 77C319 79 317 86 320 96C321 104 335 115 355 132Z"/>
<path id="z21051d2" d="M308 331C370 319 454 305 560 295C566 294 575 293 580 284C583 276 573 267 558 260C531 246 498 247 455 258C348 282 241 297 133 310C113 312 111 319 126 332C146 349 172 356 204 350C222 346 242 343 264 339C293 334 293 334 308 331Z"/>
<path id="z21051d3" d="M334 528C296 526 261 526 235 526C216 525 212 520 222 509C257 464 290 426 323 394C333 383 338 375 336 371C335 362 326 349 308 331C297 320 264 324 264 339C265 371 246 411 209 462C188 491 175 503 154 521C141 531 141 545 147 558C149 563 152 570 158 577C164 584 172 586 183 580C197 572 242 561 319 548C327 546 342 528 334 528Z"/>
<path id="z21051d4" d="M319 548C260 626 176 700 84 780C71 790 73 793 91 790C162 776 259 696 380 547C390 534 400 521 410 508C441 463 464 432 480 414C487 405 488 398 486 392C482 383 473 378 457 374C438 369 424 367 416 370C411 371 408 375 407 385C401 419 378 468 334 528C324 541 324 541 319 548Z"/>
<path id="z21051d5" d="M413 708C437 679 463 638 498 591C503 582 508 577 513 574C517 570 519 566 518 559C517 553 513 546 506 539C487 520 467 512 446 515C440 515 437 520 439 528C447 578 405 654 329 740C299 772 260 809 201 857C196 860 196 863 203 864C235 865 289 831 363 763C375 751 387 738 397 727C408 714 408 714 413 708Z"/>
<path id="z21051d6" d="M397 727C422 748 478 795 522 838C532 848 542 855 551 858C555 859 560 856 565 850C571 841 569 824 561 800C550 770 501 739 413 708C405 705 390 722 397 727Z"/>
<path id="z21051d7" d="M606 328C623 370 630 450 613 568C609 589 613 612 635 639C641 646 649 646 655 638C668 616 674 580 675 532C675 452 676 394 683 360C686 343 682 333 669 325C656 317 645 309 634 305C625 301 617 302 611 306C604 310 602 318 606 328Z"/>
<path id="z21051d8" d="M785 171C787 195 787 394 782 767C781 783 776 794 768 800C764 802 737 801 689 790C663 784 653 780 655 788C656 793 663 801 678 813C724 849 752 879 764 901C776 925 789 938 801 939C811 939 822 927 833 902C847 867 855 822 852 768C843 609 838 450 844 291C846 225 849 173 863 141C872 116 860 100 820 82C794 70 775 65 761 70C748 74 746 86 759 103C774 123 783 145 785 171Z"/>
<defs>
	<clipPath id="z21051c1"><use href="#z21051d1"/></clipPath>
	<clipPath id="z21051c2"><use href="#z21051d2"/></clipPath>
	<clipPath id="z21051c3"><use href="#z21051d3"/></clipPath>
	<clipPath id="z21051c4"><use href="#z21051d4"/></clipPath>
	<clipPath id="z21051c5"><use href="#z21051d5"/></clipPath>
	<clipPath id="z21051c6"><use href="#z21051d6"/></clipPath>
	<clipPath id="z21051c7"><use href="#z21051d7"/></clipPath>
	<clipPath id="z21051c8"><use href="#z21051d8"/></clipPath>
</defs>
<path style="--d:1s;" pathLength="3333" clip-path="url(#z21051c1)" d="M323 87L413 134L452 193"/>
<path style="--d:2s;" pathLength="3333" clip-path="url(#z21051c2)" d="M122 318L200 326L575 274"/>
<path style="--d:3s;" pathLength="3333" clip-path="url(#z21051c3)" d="M270 334L296 375L181 536L196 552L327 534"/>
<path style="--d:4s;" pathLength="3333" clip-path="url(#z21051c4)" d="M417 375L441 411L340 559L212 695L87 785"/>
<path style="--d:5s;" pathLength="3333" clip-path="url(#z21051c5)" d="M446 522L477 567L410 675L306 789L206 858"/>
<path style="--d:6s;" pathLength="3333" clip-path="url(#z21051c6)" d="M403 723L514 789L558 852"/>
<path style="--d:7s;" pathLength="3333" clip-path="url(#z21051c7)" d="M613 313L650 355L640 637"/>
<path style="--d:8s;" pathLength="3333" clip-path="url(#z21051c8)" d="M757 80L824 145L815 796L782 884L664 790"/>
</svg>