<!--
AnimCJK 2016-2019 Copyright Francois Mizessyn - https://github.com/parsimonhi/animCJK
Derived from:
    MakeMeAHanzi project - https://github.com/skishore/makemeahanzi
    Arphic PL KaitiM GB font
    Arphic PL UKai font
You can redistribute and/or modify this file under the terms of the Arphic Public License
as published by Arphic Technology Co., Ltd.
You should have received a copy of this license along with this file.
If not, see http://ftp.gnu.org/non-gnu/chinese-fonts-truetype/LICENSE.
-->
<svg id="z21087" class="acjk" version="1.1" viewBox="0 0 1024 1024" xmlns="http://www.w3.org/2000/svg" xmlns:xlink="http://www.w3.org/1999/xlink">
<style>
<![CDATA[
@keyframes zk {
	to {
		stroke-dashoffset:0;
	}
}
svg.acjk path[clip-path] {
	--t:0.8s;
	animation:zk var(--t) linear forwards var(--d);
	stroke-dasharray:3337;
	stroke-dashoffset:3339;
	stroke-width:128;
	stroke-linecap:round;
	fill:none;
	stroke:#000;
}
svg.acjk path[id] {fill:#ccc;}
]]>
</style>
<path id="z21087d1" d="M159 470C158 470 157 469 157 468C157 466 158 465 185 441C208 421 238 387 252 364C265 343 265 343 271 332C304 279 316 234 316 228C316 224 313 220 311 220C308 220 282 230 258 239C229 251 226 252 215 252C200 252 172 244 165 237C157 231 160 227 175 223C181 221 208 214 235 207C268 198 287 193 295 189C312 182 328 177 339 177C356 176 390 190 393 199C395 204 393 207 386 215C382 219 376 232 362 259C342 298 317 345 311 353C291 378 291 378 281 390C237 442 174 476 159 470Z"/>
<path id="z21087d2" d="M252 364C237 350 226 343 213 333C183 310 183 310 183 302C183 296 183 295 185 295C189 294 244 317 271 332C298 346 298 346 311 353C324 360 334 373 338 379C343 386 350 405 350 415C351 424 349 429 343 434C337 438 332 435 315 419C302 407 288 398 280 390C261 373 261 373 252 364Z"/>
<path id="z21087d3" d="M399 451C398 450 397 448 398 447C398 446 406 438 416 430C440 409 474 379 498 344C513 321 513 321 521 310C563 251 574 207 575 197C576 194 575 192 573 190C570 187 569 187 509 214C495 220 489 221 476 220C463 218 441 211 434 207C429 203 428 199 432 195C433 194 444 191 457 188C506 176 549 162 562 155C573 148 588 143 596 143C601 143 608 145 616 148C639 155 653 164 653 171C653 173 650 178 646 183C643 188 635 201 628 213C606 256 574 316 562 329C562 330 532 368 530 368C530 368 524 374 518 380C476 419 410 459 399 451Z"/>
<path id="z21087d4" d="M498 344C475 326 441 297 435 290C430 286 430 284 431 282C432 280 433 279 436 279C441 279 465 288 499 301C520 310 514 307 521 310C548 323 548 323 562 329C579 338 599 355 605 367C610 377 615 395 615 402C615 411 608 421 602 421C597 421 586 414 571 401C556 387 545 379 530 368C509 352 509 352 498 344Z"/>
<path id="z21087d5" d="M83 874C80 872 80 872 83 869C84 868 92 860 100 853C132 825 196 760 222 716C235 694 235 694 241 683C271 631 296 569 296 558C296 557 295 555 293 553C291 551 290 551 285 551C276 553 244 562 208 575C182 583 186 584 174 586C170 587 171 586 162 586C153 585 147 584 136 580C122 575 111 570 110 566C109 563 111 559 115 557C116 556 130 553 146 551C206 541 252 529 287 514C307 505 321 505 338 511C362 520 375 528 375 535C375 537 372 541 369 544C361 554 356 562 340 595C323 630 298 682 282 705C263 732 263 732 254 746C224 789 162 840 118 864C101 873 87 877 83 874Z"/>
<path id="z21087d6" d="M222 716C210 705 199 696 186 685C166 668 150 653 149 652C148 650 148 649 149 647C154 640 200 661 241 683C268 698 268 698 282 705C310 720 331 743 337 757C341 767 343 778 342 785C340 792 339 792 330 794C325 794 323 794 316 791C308 787 282 772 254 746C233 726 233 726 222 716Z"/>
<path id="z21087d7" d="M300 866C296 865 293 864 291 862C285 856 285 856 325 842C346 834 380 817 400 804C433 782 470 743 481 728C498 702 498 702 507 689C529 657 547 573 547 564C547 553 539 546 529 547C527 548 516 552 506 556C470 572 458 575 431 575C417 575 413 575 405 572C396 570 388 564 388 561C388 558 395 553 402 552C464 539 496 529 552 504C562 499 563 499 576 499C592 499 599 501 620 512C633 518 638 523 639 529C640 535 637 540 628 551C612 568 609 573 596 607C581 646 562 698 549 717C528 747 528 747 517 762C492 797 413 852 363 863C343 866 315 868 300 866Z"/>
<path id="z21087d8" d="M481 728C472 719 435 684 414 666C403 657 395 649 394 646C390 639 390 632 393 628C397 624 394 625 396 625C399 624 379 617 405 630C420 637 454 657 482 674C495 683 507 689 507 689C508 688 547 716 549 717C555 721 583 742 595 752C621 774 633 791 638 813C642 827 642 843 639 850C637 854 631 858 626 860C623 861 617 856 557 799C535 778 518 762 517 762C517 762 488 735 481 728Z"/>
<path id="z21087d9" d="M690 657C681 653 668 631 664 612C661 602 662 597 666 565C674 512 676 474 675 425C675 377 672 360 662 330C658 318 657 314 658 310C659 299 664 297 677 300C690 303 714 316 722 323C730 330 731 335 728 355C722 390 722 409 721 506C721 558 721 603 720 606C717 623 707 648 700 654C697 657 693 658 690 657Z"/>
<path id="z21087d10" d="M831 967C824 963 818 954 809 938C795 912 778 894 723 846C719 842 714 837 713 834C710 829 710 829 713 828C716 825 721 826 734 830C742 833 794 843 810 838C817 835 820 823 822 815C823 807 825 672 827 429C829 243 828 179 824 162C821 150 815 136 808 126C793 106 791 97 796 90C800 86 805 83 814 83C825 83 836 86 858 96C879 105 889 111 896 118C907 128 908 137 903 154C896 174 890 209 887 250C884 284 882 329 881 408C880 534 882 652 888 770C891 809 891 820 890 840C886 898 875 939 858 961C849 972 841 974 831 967Z"/>
<defs>
	<clipPath id="z21087c1"><use xlink:href="#z21087d1"/></clipPath>
	<clipPath id="z21087c2"><use xlink:href="#z21087d2"/></clipPath>
	<clipPath id="z21087c3"><use xlink:href="#z21087d3"/></clipPath>
	<clipPath id="z21087c4"><use xlink:href="#z21087d4"/></clipPath>
	<clipPath id="z21087c5"><use xlink:href="#z21087d5"/></clipPath>
	<clipPath id="z21087c6"><use xlink:href="#z21087d6"/></clipPath>
	<clipPath id="z21087c7"><use xlink:href="#z21087d7"/></clipPath>
	<clipPath id="z21087c8"><use xlink:href="#z21087d8"/></clipPath>
	<clipPath id="z21087c9"><use xlink:href="#z21087d9"/></clipPath>
	<clipPath id="z21087c10"><use xlink:href="#z21087d10"/></clipPath>
</defs>
<path style="--d:1s;" pathLength="3333" clip-path="url(#z21087c1)" d="M172 231L337 193L363 213L281 362L165 467"/>
<path style="--d:2s;" pathLength="3333" clip-path="url(#z21087c2)" d="M188 301L342 429"/>
<path style="--d:3s;" pathLength="3333" clip-path="url(#z21087c3)" d="M438 202L594 165L624 177L541 331L404 446"/>
<path style="--d:4s;" pathLength="3333" clip-path="url(#z21087c4)" d="M433 284L602 416"/>
<path style="--d:5s;" pathLength="3333" clip-path="url(#z21087c5)" d="M116 563L306 530L337 545L232 755L88 869"/>
<path style="--d:6s;" pathLength="3333" clip-path="url(#z21087c6)" d="M157 648L335 785"/>
<path style="--d:7s;" pathLength="3333" clip-path="url(#z21087c7)" d="M396 561L563 524L600 542L497 756L409 830L296 856"/>
<path style="--d:8s;" pathLength="3333" clip-path="url(#z21087c8)" d="M399 634L627 854"/>
<path style="--d:9s;" pathLength="3333" clip-path="url(#z21087c9)" d="M663 305L701 345L697 648"/>
<path style="--d:10s;" pathLength="3333" clip-path="url(#z21087c10)" d="M803 91L861 144L847 924L817 889L722 833"/>
</svg>