<!--
AnimCJK 2016-2017 Copyright Francois Mizessyn, http://gooo.free.fr/animCJK/
Derived from:
    MakeMeAHanzi project - https://github.com/skishore/makemeahanzi
    Arphic PL KaitiM GB - https://apps.ubuntu.com/cat/applications/precise/fonts-arphic-gkai00mp/
    Arphic PL UKai - https://apps.ubuntu.com/cat/applications/fonts-arphic-ukai/
You can redistribute and/or modify this file under the terms of the Arphic Public License
as published by Arphic Technology Co., Ltd.
You should have received a copy of this license (the directory "APL") along with this file;
if not, see http://ftp.gnu.org/non-gnu/chinese-fonts-truetype/LICENSE.
-->
<svg id="z21095" class="acjk" version="1.1" viewBox="0 0 1024 1024" xmlns="http://www.w3.org/2000/svg" xmlns:xlink="http://www.w3.org/1999/xlink">
<style>
<![CDATA[
	@keyframes z21095k {
		from {
			stroke:#c00;
			stroke-dashoffset:3000;
		}
		75% {
			stroke:#c00;
			stroke-dashoffset:0;
		}
		to {
			stroke:#000;
		}
	}
	#z21095 path[clip-path] {
		animation:z21095k 1s linear both;
		stroke-dasharray:3000;
		stroke-width:128;
		stroke-linecap:round;
		fill:none;
	}
	#z21095 path[clip-path="url(#z21095c1)"] {animation-delay:1s;}
	#z21095 path[clip-path="url(#z21095c2)"] {animation-delay:2s;}
	#z21095 path[clip-path="url(#z21095c3)"] {animation-delay:3s;}
	#z21095 path[clip-path="url(#z21095c4)"] {animation-delay:4s;}
	#z21095 path[clip-path="url(#z21095c5)"] {animation-delay:5s;}
	#z21095 path[clip-path="url(#z21095c6)"] {animation-delay:6s;}
	#z21095 path[clip-path="url(#z21095c7)"] {animation-delay:7s;}
	#z21095 path[clip-path="url(#z21095c8)"] {animation-delay:8s;}
	#z21095 path[clip-path="url(#z21095c9)"] {animation-delay:9s;}
	#z21095 path[clip-path="url(#z21095c10)"] {animation-delay:10s;}
	#z21095 path {fill:#ccc;}
]]>
</style>
<g transform="scale(1,-1) translate(0,-900)">
	<path id="z21095d1" d="M521 639Q545 696 568 709Q584 727 570 744Q554 757 504 781Q486 788 466 780Q399 753 286 730L300 701Q304 702 312 705Q384 718 452 734Q470 738 477 731Q484 724 483 706Q476 672 468 641L521 639Z"/>
	<path id="z21095d2" d="M279 560Q286 560 296 562Q372 583 537 605Q547 606 549 615Q549 624 521 639L468 641Q366 611 283 595L279 560Z"/>
	<path id="z21095d3" d="M252 398Q271 480 279 560L283 595Q286 626 290 655Q291 685 300 701L286 730Q273 742 252 751Q233 761 220 757Q208 750 215 736Q236 706 232 647Q214 431 182 322Q178 309 173 295Q134 187 47 54Q41 48 40 42Q37 32 48 33Q75 39 155 154Q174 187 194 227Q227 300 249 386L252 398Z"/>
	<path id="z21095d4" d="M445 393Q470 400 571 417Q581 416 590 430Q591 440 568 450Q531 472 456 442Q453 442 452 441L401 427Q371 421 263 401Q256 400 252 398L249 386Q256 379 284 363Q297 356 319 364Q355 374 399 383L445 393Z"/>
	<path id="z21095d5" d="M425 263Q435 330 445 393L452 441Q452 447 474 522Q478 532 461 546Q433 565 411 570Q398 574 390 567Q383 561 389 547Q405 522 403 504Q403 467 401 427L399 383Q395 322 387 253L425 263Z"/>
	<path id="z21095d6" d="M306 237Q296 243 261 248Q249 251 247 246Q241 239 249 225Q277 168 296 76Q300 48 316 31Q334 10 338 25Q344 41 340 69L334 99Q319 178 315 207L306 237Z"/>
	<path id="z21095d7" d="M546 129Q564 195 595 221Q611 239 597 255Q581 268 531 290Q515 297 494 288Q457 273 425 263L387 253Q347 246 306 237L315 207Q495 243 500 242Q503 242 505 239Q514 232 512 213Q506 171 498 136L546 129Z"/>
	<path id="z21095d8" d="M340 69Q341 69 344 68Q354 65 367 69Q427 84 556 97Q566 98 568 108Q568 115 546 129L498 136Q494 137 491 135Q404 110 334 99L340 69Z"/>
	<path id="z21095d9" d="M606 581Q636 512 615 334Q606 297 636 266Q645 256 654 266Q672 291 672 381Q672 519 677 553Q684 575 664 586Q648 596 631 604Q619 608 610 602Q603 596 606 581Z"/>
	<path id="z21095d10" d="M784 723Q790 686 799 98Q798 73 785 64Q776 57 696 69Q659 79 663 68Q666 61 688 46Q761 -3 782 -33Q806 -67 823 -68Q839 -68 853 -30Q869 19 864 98Q842 353 844 609Q845 703 859 754Q877 787 816 810Q779 829 759 820Q740 813 758 789Q782 761 784 723Z"/>
	<defs>
		<clipPath id="z21095c1"><use xlink:href="#z21095d1"/></clipPath>
		<clipPath id="z21095c2"><use xlink:href="#z21095d2"/></clipPath>
		<clipPath id="z21095c3"><use xlink:href="#z21095d3"/></clipPath>
		<clipPath id="z21095c4"><use xlink:href="#z21095d4"/></clipPath>
		<clipPath id="z21095c5"><use xlink:href="#z21095d5"/></clipPath>
		<clipPath id="z21095c6"><use xlink:href="#z21095d6"/></clipPath>
		<clipPath id="z21095c7"><use xlink:href="#z21095d7"/></clipPath>
		<clipPath id="z21095c8"><use xlink:href="#z21095d8"/></clipPath>
		<clipPath id="z21095c9"><use xlink:href="#z21095d9"/></clipPath>
		<clipPath id="z21095c10"><use xlink:href="#z21095d10"/></clipPath>
	</defs>
	<path pathLength="2999" clip-path="url(#z21095c1)" d="M295 725L487 758L529 723L488 641"/>
	<path pathLength="2999" clip-path="url(#z21095c2)" d="M283 567L443 613L544 614"/>
	<path pathLength="2999" clip-path="url(#z21095c3)" d="M221 748L265 691L221 376L162 212L47 39"/>
	<path pathLength="2999" clip-path="url(#z21095c4)" d="M258 388L582 433"/>
	<path pathLength="2999" clip-path="url(#z21095c5)" d="M393 560L438 514L397 257"/>
	<path pathLength="2999" clip-path="url(#z21095c6)" d="M253 238L283 218L325 26"/>
	<path pathLength="2999" clip-path="url(#z21095c7)" d="M313 234L527 261L557 225L518 134"/>
	<path pathLength="2999" clip-path="url(#z21095c8)" d="M342 96L560 107"/>
	<path pathLength="2999" clip-path="url(#z21095c9)" d="M613 600L647 555L643 271"/>
	<path pathLength="2999" clip-path="url(#z21095c10)" d="M753 811L821 759L830 74L804 -17L673 66"/>
</g>
</svg>