<!--
AnimCJK 2016-2018 Copyright Francois Mizessyn - https://github.com/parsimonhi/animCJK
Derived from:
    MakeMeAHanzi project - https://github.com/skishore/makemeahanzi
    Arphic PL KaitiM GB - https://apps.ubuntu.com/cat/applications/precise/fonts-arphic-gkai00mp/
    Arphic PL UKai - https://apps.ubuntu.com/cat/applications/fonts-arphic-ukai/
You can redistribute and/or modify this file under the terms of the Arphic Public License
as published by Arphic Technology Co., Ltd.
You should have received a copy of this license (the directory "APL") along with this file;
if not, see http://ftp.gnu.org/non-gnu/chinese-fonts-truetype/LICENSE.
-->
<svg id="z21128" class="acjk" version="1.1" viewBox="0 0 1024 1024" xmlns="http://www.w3.org/2000/svg" xmlns:xlink="http://www.w3.org/1999/xlink">
<style>
<![CDATA[
@keyframes z21128k {
	from {
		stroke:#ccc;
		stroke-dashoffset:3334;
	}
	1% {
		stroke:#c00;
		stroke-dashoffset:3334;
	}
	75% {
		stroke:#c00;
		stroke-dashoffset:0;
	}
	to {
		stroke:#000;
	}
}
#z21128 path[clip-path] {
	animation:z21128k 1s linear both;
	stroke-dasharray:3334;
	stroke-width:128;
	stroke-linecap:round;
	fill:none;
}
#z21128 path[clip-path="url(#z21128c1)"] {animation-delay:1s;}
#z21128 path[clip-path="url(#z21128c2)"] {animation-delay:2s;}
#z21128 path[clip-path="url(#z21128c3)"] {animation-delay:3s;}
#z21128 path[clip-path="url(#z21128c4)"] {animation-delay:4s;}
#z21128 path[clip-path="url(#z21128c5)"] {animation-delay:5s;}
#z21128 path[clip-path="url(#z21128c6)"] {animation-delay:6s;}
#z21128 path[clip-path="url(#z21128c7)"] {animation-delay:7s;}
#z21128 path[clip-path="url(#z21128c8)"] {animation-delay:8s;}
#z21128 path[clip-path="url(#z21128c9)"] {animation-delay:9s;}
#z21128 path[clip-path="url(#z21128c10)"] {animation-delay:10s;}
#z21128 path[clip-path="url(#z21128c11)"] {animation-delay:11s;}
#z21128 path[clip-path="url(#z21128c12)"] {animation-delay:12s;}
#z21128 path[clip-path="url(#z21128c13)"] {animation-delay:13s;}
#z21128 path[clip-path="url(#z21128c14)"] {animation-delay:14s;}
#z21128 path[clip-path="url(#z21128c15)"] {animation-delay:15s;}
#z21128 path {fill:#ccc;}
]]>
</style>
<path id="z21128d1" d="M471 228Q495 176 515 163Q528 148 517 134Q504 124 462 103Q449 97 380 123Q377 123 303 142C294 144 303 171 311 168Q314 165 422 143Q435 140 440 145Q446 151 444 163Q438 194 430 220C427 234 466 241 471 228Z"></path>
<path id="z21128d2" d="M286 283Q293 284 305 282Q360 269 478 254Q487 253 488 246Q488 240 471 228C459 221 444 217 430 220Q426 220 421 222Q351 243 292 254C282 256 276 283 286 283Z"></path>
<path id="z21128d3" d="M263 360Q276 326 286 283C290 264 290 264 292 254Q293 238 298 221Q302 193 311 168C314 160 311 147 303 142Q294 135 273 129Q251 122 243 126Q231 132 236 145Q275 268 181 431Q178 434 177 437Q152 485 80 572Q76 579 81 582Q88 583 98 576Q215 494 256 379C261 366 261 366 263 360Z"></path>
<path id="z21128d4" d="M294 367Q285 363 268 360Q265 359 263 360C256 360 253 373 256 379Q277 425 288 500Q289 522 303 538Q316 557 322 544Q326 532 325 512C323 491 323 491 322 480Q313 408 313 390C313 380 303 371 294 367Z"></path>
<path id="z21128d5" d="M470 456Q485 402 502 386Q521 364 502 352Q486 342 462 327Q447 318 401 341Q350 356 294 367C284 369 303 392 313 390Q332 386 405 370Q430 366 435 375Q441 379 436 405Q432 427 426 454C424 468 467 470 470 456Z"></path>
<path id="z21128d6" d="M325 512Q368 500 485 489Q495 488 496 479Q496 472 470 456C457 448 440 451 426 454Q425 454 424 454Q369 470 322 480C311 482 314 514 325 512Z"></path>
<path id="z21128d7" d="M648 79Q693 124 708 124Q717 123 721 111Q725 98 717 73Q713 60 690 50Q638 32 624 37Q620 41 621 52Q624 62 648 79Z"></path>
<path id="z21128d8" d="M768 175Q790 169 816 166Q856 157 862 152Q869 145 866 138Q860 128 836 121Q814 115 721 142Q610 161 569 165Q538 169 559 184Q598 205 642 196Q688 187 735 181C757 177 757 177 768 175Z"></path>
<path id="z21128d9" d="M578 239Q603 296 625 299Q635 302 643 289Q646 279 642 263Q632 239 586 219Q579 216 577 225Q574 231 578 239Z"></path>
<path id="z21128d10" d="M725 301Q744 276 767 241Q774 231 786 218Q798 208 791 200Q785 188 768 175C760 167 735 170 735 181Q738 209 709 282Q702 295 701 306C700 314 720 308 725 301Z"></path>
<path id="z21128d11" d="M708 343Q766 330 871 318Q881 319 889 308Q890 298 870 288Q843 267 743 297Q734 298 725 301C709 304 709 304 701 306Q656 315 540 330Q515 334 534 349Q564 370 603 363Q630 357 665 351C694 346 694 346 708 343Z"></path>
<path id="z21128d12" d="M711 440Q765 431 854 431Q867 430 871 424Q875 415 863 406Q818 378 773 393Q745 399 709 409C679 414 679 414 664 417Q615 424 560 436Q545 437 557 450Q578 468 625 456Q641 450 664 448C695 443 695 443 711 440Z"></path>
<path id="z21128d13" d="M695 536Q713 479 711 440C710 419 710 419 709 409Q708 376 708 343C708 328 665 336 665 351Q664 382 664 417C664 438 664 438 664 448Q664 515 681 538C683 542 694 541 695 536Z"></path>
<path id="z21128d14" d="M495 617Q583 598 655 591Q682 590 687 597Q697 615 687 656Q668 771 635 821Q616 854 587 847Q562 840 539 831Q514 824 532 847Q574 890 593 923Q612 947 633 929Q666 908 690 869Q718 823 744 677Q753 626 772 601Q787 588 780 577Q771 565 718 539Q706 532 695 536C686 537 686 537 681 538Q611 571 424 594Q370 600 323 601Q304 601 301 610Q300 619 324 632Q349 650 371 643Q411 633 451 625C480 620 480 620 495 617Z"></path>
<path id="z21128d15" d="M451 625Q433 772 195 898Q186 904 192 909Q216 924 319 874Q406 835 491 710Q506 691 522 672Q532 665 529 653Q525 641 497 618Q496 617 495 617C482 609 454 610 451 625Z"></path>
<defs>
	<clipPath id="z21128c1"><use xlink:href="#z21128d1"></use></clipPath>
	<clipPath id="z21128c2"><use xlink:href="#z21128d2"></use></clipPath>
	<clipPath id="z21128c3"><use xlink:href="#z21128d3"></use></clipPath>
	<clipPath id="z21128c4"><use xlink:href="#z21128d4"></use></clipPath>
	<clipPath id="z21128c5"><use xlink:href="#z21128d5"></use></clipPath>
	<clipPath id="z21128c6"><use xlink:href="#z21128d6"></use></clipPath>
	<clipPath id="z21128c7"><use xlink:href="#z21128d7"></use></clipPath>
	<clipPath id="z21128c8"><use xlink:href="#z21128d8"></use></clipPath>
	<clipPath id="z21128c9"><use xlink:href="#z21128d9"></use></clipPath>
	<clipPath id="z21128c10"><use xlink:href="#z21128d10"></use></clipPath>
	<clipPath id="z21128c11"><use xlink:href="#z21128d11"></use></clipPath>
	<clipPath id="z21128c12"><use xlink:href="#z21128d12"></use></clipPath>
	<clipPath id="z21128c13"><use xlink:href="#z21128d13"></use></clipPath>
	<clipPath id="z21128c14"><use xlink:href="#z21128d14"></use></clipPath>
	<clipPath id="z21128c15"><use xlink:href="#z21128d15"></use></clipPath>
</defs>
<path pathLength="3333" clip-path="url(#z21128c1)" d="M310 146L458 128L482 158L450 223"></path>
<path pathLength="3333" clip-path="url(#z21128c2)" d="M292 277L481 243"></path>
<path pathLength="3333" clip-path="url(#z21128c3)" d="M241 130L277 178L251 330L197 447L87 577"></path>
<path pathLength="3333" clip-path="url(#z21128c4)" d="M268 367L314 540"></path>
<path pathLength="3333" clip-path="url(#z21128c5)" d="M301 368L437 347L465 361L473 383L437 453"></path>
<path pathLength="3333" clip-path="url(#z21128c6)" d="M328 504L488 476"></path>
<path pathLength="3333" clip-path="url(#z21128c7)" d="M628 43L688 79L710 119"></path>
<path pathLength="3333" clip-path="url(#z21128c8)" d="M560 175L862 139"></path>
<path pathLength="3333" clip-path="url(#z21128c9)" d="M583 225L638 290"></path>
<path pathLength="3333" clip-path="url(#z21128c10)" d="M742 186L760 218L708 299"></path>
<path pathLength="3333" clip-path="url(#z21128c11)" d="M533 339L881 305"></path>
<path pathLength="3333" clip-path="url(#z21128c12)" d="M563 444L791 410L867 418"></path>
<path pathLength="3333" clip-path="url(#z21128c13)" d="M700 352L685 531"></path>
<path pathLength="3333" clip-path="url(#z21128c14)" d="M308 611L376 620L690 565L736 594L683 799L644 869L603 891L532 837"></path>
<path pathLength="3333" clip-path="url(#z21128c15)" d="M457 629L484 665L401 780L307 856L198 903"></path>
</svg>