<!--
AnimCJK 2016-2017 Copyright Francois Mizessyn, http://gooo.free.fr/animCJK/
Derived from:
    MakeMeAHanzi project - https://github.com/skishore/makemeahanzi
    Arphic PL KaitiM GB - https://apps.ubuntu.com/cat/applications/precise/fonts-arphic-gkai00mp/
    Arphic PL UKai - https://apps.ubuntu.com/cat/applications/fonts-arphic-ukai/
You can redistribute and/or modify this file under the terms of the Arphic Public License
as published by Arphic Technology Co., Ltd.
You should have received a copy of this license (the directory "APL") along with this file;
if not, see http://ftp.gnu.org/non-gnu/chinese-fonts-truetype/LICENSE.
-->
<svg id="z21128" class="acjk" version="1.1" viewBox="0 0 1024 1024" xmlns="http://www.w3.org/2000/svg" xmlns:xlink="http://www.w3.org/1999/xlink">
<style>
<![CDATA[
	@keyframes z21128k {
		from {
			stroke:#c00;
			stroke-dashoffset:3000;
		}
		75% {
			stroke:#c00;
			stroke-dashoffset:0;
		}
		to {
			stroke:#000;
		}
	}
	#z21128 path[clip-path] {
		animation:z21128k 1s linear both;
		stroke-dasharray:3000;
		stroke-width:128;
		stroke-linecap:round;
		fill:none;
	}
	#z21128 path[clip-path="url(#z21128c1)"] {animation-delay:1s;}
	#z21128 path[clip-path="url(#z21128c2)"] {animation-delay:2s;}
	#z21128 path[clip-path="url(#z21128c3)"] {animation-delay:3s;}
	#z21128 path[clip-path="url(#z21128c4)"] {animation-delay:4s;}
	#z21128 path[clip-path="url(#z21128c5)"] {animation-delay:5s;}
	#z21128 path[clip-path="url(#z21128c6)"] {animation-delay:6s;}
	#z21128 path[clip-path="url(#z21128c7)"] {animation-delay:7s;}
	#z21128 path[clip-path="url(#z21128c8)"] {animation-delay:8s;}
	#z21128 path[clip-path="url(#z21128c9)"] {animation-delay:9s;}
	#z21128 path[clip-path="url(#z21128c10)"] {animation-delay:10s;}
	#z21128 path[clip-path="url(#z21128c11)"] {animation-delay:11s;}
	#z21128 path[clip-path="url(#z21128c12)"] {animation-delay:12s;}
	#z21128 path[clip-path="url(#z21128c13)"] {animation-delay:13s;}
	#z21128 path[clip-path="url(#z21128c14)"] {animation-delay:14s;}
	#z21128 path[clip-path="url(#z21128c15)"] {animation-delay:15s;}
	#z21128 path {fill:#ccc;}
]]>
</style>
<g transform="scale(1,-1) translate(0,-900)">
	<path id="z21128d1" d="M471 672Q495 724 515 737Q528 752 517 766Q504 776 462 797Q449 803 380 777Q377 777 303 758L311 732Q314 735 422 757Q435 760 440 755Q446 749 444 737Q438 706 430 680L471 672Z"/>
	<path id="z21128d2" d="M286 617Q293 616 305 618Q360 631 478 646Q487 647 488 654Q488 660 471 672L430 680Q426 680 421 678Q351 657 292 646L286 617Z"/>
	<path id="z21128d3" d="M263 540Q276 574 286 617L292 646Q293 662 298 679Q302 707 311 732L303 758Q294 765 273 771Q251 778 243 774Q231 768 236 755Q275 632 181 469Q178 466 177 463Q152 415 80 328Q76 321 81 318Q88 317 98 324Q215 406 256 521L263 540Z"/>
	<path id="z21128d4" d="M294 533Q285 537 268 540Q265 541 263 540L256 521Q277 475 288 400Q289 378 303 362Q316 343 322 356Q326 368 325 388L322 420Q313 492 313 510L294 533Z"/>
	<path id="z21128d5" d="M470 444Q485 498 502 514Q521 536 502 548Q486 558 462 573Q447 582 401 559Q350 544 294 533L313 510Q332 514 405 530Q430 534 435 525Q441 521 436 495Q432 473 426 446L470 444Z"/>
	<path id="z21128d6" d="M325 388Q368 400 485 411Q495 412 496 421Q496 428 470 444L426 446Q425 446 424 446Q369 430 322 420L325 388Z"/>
	<path id="z21128d7" d="M648 821Q693 776 708 776Q717 777 721 789Q725 802 717 827Q713 840 690 850Q638 868 624 863Q620 859 621 848Q624 838 648 821Z"/>
	<path id="z21128d8" d="M768 725Q790 731 816 734Q856 743 862 748Q869 755 866 762Q860 772 836 779Q814 785 721 758Q610 739 569 735Q538 731 559 716Q598 695 642 704Q688 713 735 719L768 725Z"/>
	<path id="z21128d9" d="M578 661Q603 604 625 601Q635 598 643 611Q646 621 642 637Q632 661 586 681Q579 684 577 675Q574 669 578 661Z"/>
	<path id="z21128d10" d="M725 599Q744 624 767 659Q774 669 786 682Q798 692 791 700Q785 712 768 725L735 719Q738 691 709 618Q702 605 701 594L725 599Z"/>
	<path id="z21128d11" d="M708 557Q766 570 871 582Q881 581 889 592Q890 602 870 612Q843 633 743 603Q734 602 725 599L701 594Q656 585 540 570Q515 566 534 551Q564 530 603 537Q630 543 665 549L708 557Z"/>
	<path id="z21128d12" d="M711 460Q765 469 854 469Q867 470 871 476Q875 485 863 494Q818 522 773 507Q745 501 709 491L664 483Q615 476 560 464Q545 463 557 450Q578 432 625 444Q641 450 664 452L711 460Z"/>
	<path id="z21128d13" d="M695 364Q713 421 711 460L709 491Q708 524 708 557L665 549Q664 518 664 483L664 452Q664 385 681 362L695 364Z"/>
	<path id="z21128d14" d="M495 283Q583 302 655 309Q682 310 687 303Q697 285 687 244Q668 129 635 79Q616 46 587 53Q562 60 539 69Q514 76 532 53Q574 10 593 -23Q612 -47 633 -29Q666 -8 690 31Q718 77 744 223Q753 274 772 299Q787 312 780 323Q771 335 718 361Q706 368 695 364L681 362Q611 329 424 306Q370 300 323 299Q304 299 301 290Q300 281 324 268Q349 250 371 257Q411 267 451 275L495 283Z"/>
	<path id="z21128d15" d="M451 275Q433 128 195 2Q186 -4 192 -9Q216 -24 319 26Q406 65 491 190Q506 209 522 228Q532 235 529 247Q525 259 497 282Q496 283 495 283L451 275Z"/>
	<defs>
		<clipPath id="z21128c1"><use xlink:href="#z21128d1"/></clipPath>
		<clipPath id="z21128c2"><use xlink:href="#z21128d2"/></clipPath>
		<clipPath id="z21128c3"><use xlink:href="#z21128d3"/></clipPath>
		<clipPath id="z21128c4"><use xlink:href="#z21128d4"/></clipPath>
		<clipPath id="z21128c5"><use xlink:href="#z21128d5"/></clipPath>
		<clipPath id="z21128c6"><use xlink:href="#z21128d6"/></clipPath>
		<clipPath id="z21128c7"><use xlink:href="#z21128d7"/></clipPath>
		<clipPath id="z21128c8"><use xlink:href="#z21128d8"/></clipPath>
		<clipPath id="z21128c9"><use xlink:href="#z21128d9"/></clipPath>
		<clipPath id="z21128c10"><use xlink:href="#z21128d10"/></clipPath>
		<clipPath id="z21128c11"><use xlink:href="#z21128d11"/></clipPath>
		<clipPath id="z21128c12"><use xlink:href="#z21128d12"/></clipPath>
		<clipPath id="z21128c13"><use xlink:href="#z21128d13"/></clipPath>
		<clipPath id="z21128c14"><use xlink:href="#z21128d14"/></clipPath>
		<clipPath id="z21128c15"><use xlink:href="#z21128d15"/></clipPath>
	</defs>
	<path pathLength="2999" clip-path="url(#z21128c1)" d="M310 754L458 772L482 742L450 677"/>
	<path pathLength="2999" clip-path="url(#z21128c2)" d="M292 623L481 657"/>
	<path pathLength="2999" clip-path="url(#z21128c3)" d="M241 770L277 722L251 570L197 453L87 323"/>
	<path pathLength="2999" clip-path="url(#z21128c4)" d="M268 533L314 360"/>
	<path pathLength="2999" clip-path="url(#z21128c5)" d="M301 532L437 553L465 539L473 517L437 447"/>
	<path pathLength="2999" clip-path="url(#z21128c6)" d="M328 396L488 424"/>
	<path pathLength="2999" clip-path="url(#z21128c7)" d="M628 857L688 821L710 781"/>
	<path pathLength="2999" clip-path="url(#z21128c8)" d="M560 725L862 761"/>
	<path pathLength="2999" clip-path="url(#z21128c9)" d="M583 675L638 610"/>
	<path pathLength="2999" clip-path="url(#z21128c10)" d="M742 714L760 682L708 601"/>
	<path pathLength="2999" clip-path="url(#z21128c11)" d="M533 561L881 595"/>
	<path pathLength="2999" clip-path="url(#z21128c12)" d="M563 456L791 490L867 482"/>
	<path pathLength="2999" clip-path="url(#z21128c13)" d="M700 548L685 369"/>
	<path pathLength="2999" clip-path="url(#z21128c14)" d="M308 289L376 280L690 335L736 306L683 101L644 31L603 9L532 63"/>
	<path pathLength="2999" clip-path="url(#z21128c15)" d="M457 271L484 235L401 120L307 44L198 -3"/>
</g>
</svg>