<!--
AnimCJK 2016-2017 Copyright Francois Mizessyn, http://gooo.free.fr/animCJK/
Derived from:
    MakeMeAHanzi project - https://github.com/skishore/makemeahanzi
    Arphic PL KaitiM GB - https://apps.ubuntu.com/cat/applications/precise/fonts-arphic-gkai00mp/
    Arphic PL UKai - https://apps.ubuntu.com/cat/applications/fonts-arphic-ukai/
You can redistribute and/or modify this file under the terms of the Arphic Public License
as published by Arphic Technology Co., Ltd.
You should have received a copy of this license (the directory "APL") along with this file;
if not, see http://ftp.gnu.org/non-gnu/chinese-fonts-truetype/LICENSE.
-->
<svg id="z21149" class="acjk" version="1.1" viewBox="0 0 1024 1024" xmlns="http://www.w3.org/2000/svg" xmlns:xlink="http://www.w3.org/1999/xlink">
<style>
<![CDATA[
	@keyframes z21149k {
		from {
			stroke:#c00;
			stroke-dashoffset:3000;
		}
		75% {
			stroke:#c00;
			stroke-dashoffset:0;
		}
		to {
			stroke:#000;
		}
	}
	#z21149 path[clip-path] {
		animation:z21149k 1s linear both;
		stroke-dasharray:3000;
		stroke-width:128;
		stroke-linecap:round;
		fill:none;
	}
	#z21149 path[clip-path="url(#z21149c1)"] {animation-delay:1s;}
	#z21149 path[clip-path="url(#z21149c2)"] {animation-delay:2s;}
	#z21149 path[clip-path="url(#z21149c3)"] {animation-delay:3s;}
	#z21149 path[clip-path="url(#z21149c4)"] {animation-delay:4s;}
	#z21149 path {fill:#ccc;}
]]>
</style>
<g transform="scale(1,-1) translate(0,-900)">
	<path id="z21149d1" d="M350 370Q381 437 411 533Q421 563 440 582Q458 600 444 612Q429 624 397 632Q373 638 347 622Q275 592 186 577Q173 576 168 569Q165 562 183 555Q219 542 267 558Q319 580 330 580Q357 579 351 550Q335 465 308 402L285 357Q225 264 99 216Q86 210 98 204Q104 197 144 201Q240 213 320 319L350 370Z"/>
	<path id="z21149d2" d="M320 319Q392 238 399 235Q406 234 413 242Q423 252 415 290Q408 323 350 370L308 402Q305 403 303 406Q227 461 184 487Q177 491 174 481Q173 471 182 461Q231 415 285 357L320 319Z"/>
	<path id="z21149d3" d="M663 516Q721 529 780 538Q798 539 802 531Q809 515 805 470Q792 305 758 219Q742 165 723 148Q711 138 688 145Q652 158 619 172Q597 179 612 158Q658 106 683 65Q693 43 715 49Q734 50 759 78Q829 150 857 426Q863 487 886 524Q902 545 894 555Q878 574 842 589Q817 602 790 590Q739 569 672 551L615 539Q521 521 467 521Q448 522 447 512Q446 502 468 488Q495 470 520 479Q560 492 605 502L663 516Z"/>
	<path id="z21149d4" d="M605 502Q551 271 354 39Q348 33 345 27Q341 15 353 17Q386 17 490 142Q517 178 544 222Q607 333 663 516L672 551Q705 710 720 750Q730 765 725 779Q709 798 678 817Q660 830 646 827Q633 820 638 805Q659 766 645 689Q642 674 639 656Q629 595 615 539L605 502Z"/>
	<defs>
		<clipPath id="z21149c1"><use xlink:href="#z21149d1"/></clipPath>
		<clipPath id="z21149c2"><use xlink:href="#z21149d2"/></clipPath>
		<clipPath id="z21149c3"><use xlink:href="#z21149d3"/></clipPath>
		<clipPath id="z21149c4"><use xlink:href="#z21149d4"/></clipPath>
	</defs>
	<path pathLength="2999" clip-path="url(#z21149c1)" d="M178 567L365 605L400 580L284 314L197 240L100 211"/>
	<path pathLength="2999" clip-path="url(#z21149c2)" d="M181 481L341 341L408 240"/>
	<path pathLength="2999" clip-path="url(#z21149c3)" d="M457 510L513 500L790 565L850 535L805 270L760 140L706 95L615 167"/>
	<path pathLength="2999" clip-path="url(#z21149c4)" d="M648 819L688 761L600 402L483 171L348 26"/>
</g>
</svg>