<!--
AnimCJK 2016-2025 Copyright FM-SH - https://github.com/parsimonhi/animCJK
Derived from:
    MakeMeAHanzi project - https://github.com/skishore/makemeahanzi
    Arphic PL KaitiM GB font
    Arphic PL UKai font
You can redistribute and/or modify this file under the terms of the Arphic Public License
as published by Arphic Technology Co., Ltd.
You should have received a copy of this license along with this file.
If not, see http://ftp.gnu.org/non-gnu/chinese-fonts-truetype/LICENSE.
-->
<svg id="z21158" class="acjk" version="1.1" viewBox="0 0 1024 1024" xmlns="http://www.w3.org/2000/svg" xmlns:xlink="http://www.w3.org/1999/xlink">
<style>
<![CDATA[
@keyframes zk {
	to {
		stroke-dashoffset:0;
	}
}
svg.acjk path[clip-path] {
	--t:0.8s;
	animation:zk var(--t) linear forwards var(--d);
	stroke-dasharray:3337;
	stroke-dashoffset:3339;
	stroke-width:128;
	stroke-linecap:round;
	fill:none;
	stroke:#000;
}
svg.acjk path[id] {fill:#ccc;}
]]>
</style>
<path id="z21158d1" d="M495 209Q541 196 584 190Q606 187 611 194Q618 206 614 235Q607 317 586 353Q570 380 546 375Q530 369 515 362Q493 349 505 376Q535 422 546 456Q561 475 578 461Q632 428 663 302Q673 224 697 197Q710 184 704 173Q694 161 642 138Q621 128 601 142Q579 154 507 173C466 183 466 183 445 188Q367 204 302 210Q283 211 281 220Q280 229 304 240Q329 256 349 248Q392 235 435 224C475 214 475 214 495 209Z"/>
<path id="z21158d2" d="M435 224Q390 368 262 432Q246 442 229 452Q216 459 228 464Q283 470 364 410Q460 346 494 215Q494 211 495 209C503 185 503 185 507 173Q513 140 534 107Q544 91 530 79Q487 40 459 46Q446 49 450 64Q462 94 445 188C438 212 438 212 435 224Z"/>
<path id="z21158d3" d="M321 603Q355 593 388 589Q407 586 411 592Q421 610 411 654Q390 778 356 831Q341 856 320 851Q301 842 286 834Q265 822 276 847Q307 892 320 924Q339 946 360 928Q391 906 415 866Q442 818 462 671Q469 619 488 594Q501 581 495 571Q486 561 436 538Q417 529 397 542Q382 551 337 564C294 575 294 575 272 581Q202 597 142 602Q124 603 121 612Q120 621 144 632Q169 648 189 640Q225 628 262 619C301 608 301 608 321 603Z"/>
<path id="z21158d4" d="M262 619Q213 736 150 825Q119 865 75 921Q68 927 79 928Q145 904 244 757Q289 673 321 603C332 577 332 577 337 564Q343 537 358 521Q364 515 360 506Q357 497 344 488Q305 467 280 477Q273 481 277 492Q287 516 272 581C265 606 265 606 262 619Z"/>
<path id="z21158d5" d="M698 568Q744 555 784 548Q803 545 808 551Q821 573 809 626Q784 777 745 841Q732 865 710 861Q686 846 667 831Q645 816 655 845Q692 903 707 944Q731 969 754 948Q791 921 816 873Q846 816 865 643Q872 582 893 552Q906 539 900 528Q890 516 837 494Q816 485 797 499Q776 511 707 531C667 541 667 541 647 546Q583 559 529 566Q511 567 509 577Q508 584 532 596Q557 611 577 603Q608 593 639 584C678 573 678 573 698 568Z"/>
<path id="z21158d6" d="M639 584Q600 708 487 840Q472 855 457 874Q450 883 458 885Q465 886 476 880Q537 843 585 788Q661 709 698 568C704 543 704 543 707 531Q710 510 730 459Q737 449 729 438Q722 429 688 416Q664 407 655 411Q642 417 646 432Q659 484 648 545C642 571 642 571 639 584Z"/>
<defs>
	<clipPath id="z21158c1"><use xlink:href="#z21158d1"/></clipPath>
	<clipPath id="z21158c2"><use xlink:href="#z21158d2"/></clipPath>
	<clipPath id="z21158c3"><use xlink:href="#z21158d3"/></clipPath>
	<clipPath id="z21158c4"><use xlink:href="#z21158d4"/></clipPath>
	<clipPath id="z21158c5"><use xlink:href="#z21158d5"/></clipPath>
	<clipPath id="z21158c6"><use xlink:href="#z21158d6"/></clipPath>
</defs>
<path style="--d:1s;" pathLength="3333" clip-path="url(#z21158c1)" d="M287 221L347 227L614 162L650 179L600 387L557 421L508 366"/>
<path style="--d:2s;" pathLength="3333" clip-path="url(#z21158c2)" d="M456 53L496 105L426 311L341 403L230 458"/>
<path style="--d:3s;" pathLength="3333" clip-path="url(#z21158c3)" d="M125 611L179 620L414 562L452 584L380 857L334 894L281 838"/>
<path style="--d:4s;" pathLength="3333" clip-path="url(#z21158c4)" d="M284 484L320 525L268 662L166 833L81 922"/>
<path style="--d:5s;" pathLength="3333" clip-path="url(#z21158c5)" d="M516 576L571 582L813 520L856 547L772 870L733 908L711 904L660 831"/>
<path style="--d:6s;" pathLength="3333" clip-path="url(#z21158c6)" d="M653 415L692 462L647 639L575 764L462 878"/>
</svg>