<!--
AnimCJK 2016-2019 Copyright Francois Mizessyn - https://github.com/parsimonhi/animCJK
Derived from:
    MakeMeAHanzi project - https://github.com/skishore/makemeahanzi
    Arphic PL KaitiM GB font
    Arphic PL UKai font
You can redistribute and/or modify this file under the terms of the Arphic Public License
as published by Arphic Technology Co., Ltd.
You should have received a copy of this license along with this file.
If not, see http://ftp.gnu.org/non-gnu/chinese-fonts-truetype/LICENSE.
-->
<svg id="z21154" class="acjk" version="1.1" viewBox="0 0 1024 1024" xmlns="http://www.w3.org/2000/svg" xmlns:xlink="http://www.w3.org/1999/xlink">
<style>
<![CDATA[
@keyframes zk {
	to {
		stroke-dashoffset:0;
	}
}
svg.acjk path[clip-path] {
	--t:0.8s;
	animation:zk var(--t) linear forwards var(--d);
	stroke-dasharray:3337;
	stroke-dashoffset:3339;
	stroke-width:128;
	stroke-linecap:round;
	fill:none;
	stroke:#000;
}
svg.acjk path[id] {fill:#ccc;}
]]>
</style>
<path id="z21154d1" d="M326 267Q374 255 519 231Q529 232 538 218Q539 206 515 197Q488 176 400 206Q375 212 351 219Q297 232 147 259Q119 263 141 280Q178 304 212 294Q242 285 281 278C311 271 311 271 326 267Z"/>
<path id="z21154d2" d="M303 434Q304 434 305 435Q320 439 366 440Q390 441 400 453Q418 475 376 620Q355 686 328 700Q313 703 273 682Q239 664 234 670Q228 679 244 690Q286 729 298 768Q302 784 314 790Q326 794 358 774Q392 747 416 678Q428 633 441 569Q453 491 475 470Q485 463 485 455Q486 446 461 425Q428 400 375 407Q339 407 318 404C307 402 293 430 303 434Z"/>
<path id="z21154d3" d="M318 404Q322 382 358 324Q365 312 355 298Q340 277 326 267C314 258 275 264 281 278Q314 350 179 563Q124 648 49 736Q43 740 43 748Q43 754 49 752Q106 742 225 570Q228 563 234 555Q274 491 303 434C307 424 316 415 318 404Z"/>
<path id="z21154d4" d="M637 373Q562 386 519 386Q498 383 498 395Q497 405 520 420Q548 439 574 430Q599 423 626 417C666 408 666 408 686 403Q737 390 787 385Q800 384 804 391Q811 407 809 452Q796 614 765 699Q749 753 731 769Q721 779 698 772Q665 759 636 745Q614 735 627 759Q670 814 693 855Q702 879 724 874Q743 871 768 844Q838 769 863 496Q870 435 893 398Q909 376 900 365Q884 346 846 330Q819 317 792 329Q750 345 697 360C657 369 657 369 637 373Z"/>
<path id="z21154d5" d="M626 417Q593 607 406 848Q399 855 397 861Q393 873 405 871Q441 865 541 737Q563 706 584 670Q645 556 686 403C693 374 693 374 697 360Q727 189 739 163Q749 148 743 133Q727 114 694 96Q675 83 660 86Q647 93 652 109Q670 140 665 200Q652 303 637 373C630 402 630 402 626 417Z"/>
<defs>
	<clipPath id="z21154c1"><use xlink:href="#z21154d1"/></clipPath>
	<clipPath id="z21154c2"><use xlink:href="#z21154d2"/></clipPath>
	<clipPath id="z21154c3"><use xlink:href="#z21154d3"/></clipPath>
	<clipPath id="z21154c4"><use xlink:href="#z21154d4"/></clipPath>
	<clipPath id="z21154c5"><use xlink:href="#z21154d5"/></clipPath>
</defs>
<path style="--d:1s;" pathLength="3333" clip-path="url(#z21154c1)" d="M139 268L532 218"/>
<path style="--d:2s;" pathLength="3333" clip-path="url(#z21154c2)" d="M314 430L412 428L444 459L393 655L362 717L317 745L239 676"/>
<path style="--d:3s;" pathLength="3333" clip-path="url(#z21154c3)" d="M287 279L323 318L265 458L146 645L50 743"/>
<path style="--d:4s;" pathLength="3333" clip-path="url(#z21154c4)" d="M503 395L568 407L806 355L855 385L812 647L763 788L709 824L629 748"/>
<path style="--d:5s;" pathLength="3333" clip-path="url(#z21154c5)" d="M657 93L705 156L632 497L532 708L400 863"/>
</svg>