<!--
AnimCJK 2016-2018 Copyright Francois Mizessyn, https://github.com/parsimonhi/animCJK
Derived from:
    MakeMeAHanzi project - https://github.com/skishore/makemeahanzi
    Arphic PL KaitiM GB - https://apps.ubuntu.com/cat/applications/precise/fonts-arphic-gkai00mp/
    Arphic PL UKai - https://apps.ubuntu.com/cat/applications/fonts-arphic-ukai/
You can redistribute and/or modify this file under the terms of the Arphic Public License
as published by Arphic Technology Co., Ltd.
You should have received a copy of this license (the directory "APL") along with this file;
if not, see http://ftp.gnu.org/non-gnu/chinese-fonts-truetype/LICENSE.
-->
<svg id="z21163" class="acjk" version="1.1" viewBox="0 0 1024 1024" xmlns="http://www.w3.org/2000/svg" xmlns:xlink="http://www.w3.org/1999/xlink">
<style>
<![CDATA[
@keyframes z21163k {
	from {
		stroke:#c00;
		stroke-dashoffset:3334;
	}
	75% {
		stroke:#c00;
		stroke-dashoffset:0;
	}
	to {
		stroke:#000;
	}
}
#z21163 path[clip-path] {
	animation:z21163k 1s linear both;
	stroke-dasharray:3334;
	stroke-width:128;
	stroke-linecap:round;
	fill:none;
}
#z21163 path[clip-path="url(#z21163c1)"] {animation-delay:1s;}
#z21163 path[clip-path="url(#z21163c2)"] {animation-delay:2s;}
#z21163 path[clip-path="url(#z21163c3)"] {animation-delay:3s;}
#z21163 path[clip-path="url(#z21163c4)"] {animation-delay:4s;}
#z21163 path[clip-path="url(#z21163c5)"] {animation-delay:5s;}
#z21163 path[clip-path="url(#z21163c6)"] {animation-delay:6s;}
#z21163 path[clip-path="url(#z21163c7)"] {animation-delay:7s;}
#z21163 path {fill:#ccc;}
]]>
</style>
<path id="z21163d1" d="M376 356Q472 331 475 329Q485 320 479 312Q472 300 442 293Q411 287 381 300L329 318Q224 339 197 342Q160 349 187 366Q232 390 290 374Q306 370 328 366L376 356 Z"/>
<path id="z21163d2" d="M366 464Q370 409 376 356L381 300Q387 186 406 139Q410 129 390 112Q354 93 330 88Q314 84 306 93Q299 100 306 115Q327 146 327 168Q330 240 329 318L328 366Q327 417 323 474L366 464 Z"/>
<path id="z21163d3" d="M331 514Q401 498 488 486Q504 483 506 476Q507 463 488 453Q460 441 437 447Q397 456 366 464L323 474Q140 510 53 520Q40 521 37 530Q34 540 49 552Q89 580 133 567Q221 537 286 523L331 514 Z"/>
<path id="z21163d4" d="M429 664Q344 688 255 713Q248 716 247 714Q246 711 251 704Q335 586 368 556Q383 540 373 531Q363 519 331 514L286 523Q285 527 287 537Q299 603 197 705Q128 748 132 767Q133 779 144 795Q157 814 171 819Q180 822 190 814Q253 760 423 688Q432 684 440 682L429 664 Z"/>
<path id="z21163d5" d="M440 682Q461 718 474 722Q481 723 489 715Q496 705 497 679Q498 655 471 629Q407 575 392 578Q388 579 386 590Q386 591 429 664L440 682 Z"/>
<path id="z21163d6" d="M641 391Q559 407 511 407Q492 406 491 416Q490 426 512 440Q539 458 564 449Q598 439 634 431L694 418Q742 405 790 401Q805 400 809 407Q816 423 813 465Q803 619 774 702Q759 754 743 769Q730 782 705 775Q675 768 648 759Q624 752 641 774Q684 822 707 859Q716 880 736 874Q755 871 778 845Q847 772 869 509Q875 449 897 414Q913 392 904 381Q888 362 852 347Q825 334 798 346Q755 364 699 379L641 391 Z"/>
<path id="z21163d7" d="M634 431Q585 692 365 861Q347 877 329 892Q314 905 330 907Q348 906 388 885Q472 839 531 771Q601 702 631 627Q644 593 657 561Q684 494 694 418L699 379Q699 315 716 221Q720 185 734 152Q744 130 723 120Q660 81 630 95Q614 102 623 120Q669 189 641 391L634 431 Z"/>
<defs>
	<clipPath id="z21163c1"><use xlink:href="#z21163d1"/></clipPath>
	<clipPath id="z21163c2"><use xlink:href="#z21163d2"/></clipPath>
	<clipPath id="z21163c3"><use xlink:href="#z21163d3"/></clipPath>
	<clipPath id="z21163c4"><use xlink:href="#z21163d4"/></clipPath>
	<clipPath id="z21163c5"><use xlink:href="#z21163d5"/></clipPath>
	<clipPath id="z21163c6"><use xlink:href="#z21163d6"/></clipPath>
	<clipPath id="z21163c7"><use xlink:href="#z21163d7"/></clipPath>
</defs>
<path pathLength="3333" clip-path="url(#z21163c1)" d="M186 355L476 313"/>
<path pathLength="3333" clip-path="url(#z21163c2)" d="M310 98L365 142L340 469"/>
<path pathLength="3333" clip-path="url(#z21163c3)" d="M40 531L98 543L501 469"/>
<path pathLength="3333" clip-path="url(#z21163c4)" d="M370 536L312 557L186 758L210 777L434 674"/>
<path pathLength="3333" clip-path="url(#z21163c5)" d="M395 587L463 664L478 717"/>
<path pathLength="3333" clip-path="url(#z21163c6)" d="M500 417L551 428L801 372L858 401L781 778L717 825L643 763"/>
<path pathLength="3333" clip-path="url(#z21163c7)" d="M624 106L691 156L667 407L627 561L510 757L331 901"/>
</svg>