<!--
AnimCJK 2016-2025 Copyright FM-SH - https://github.com/parsimonhi/animCJK
Derived from:
    MakeMeAHanzi project - https://github.com/skishore/makemeahanzi
    Arphic PL KaitiM GB font
    Arphic PL UKai font
You can redistribute and/or modify this file under the terms of the Arphic Public License
as published by Arphic Technology Co., Ltd.
You should have received a copy of this license along with this file.
If not, see http://ftp.gnu.org/non-gnu/chinese-fonts-truetype/LICENSE.
-->
<svg id="z21191" class="acjk" version="1.1" viewBox="0 0 1024 1024" xmlns="http://www.w3.org/2000/svg" xmlns:xlink="http://www.w3.org/1999/xlink">
<style>
<![CDATA[
@keyframes zk {
	to {
		stroke-dashoffset:0;
	}
}
svg.acjk path[clip-path] {
	--t:0.8s;
	animation:zk var(--t) linear forwards var(--d);
	stroke-dasharray:3337;
	stroke-dashoffset:3339;
	stroke-width:128;
	stroke-linecap:round;
	fill:none;
	stroke:#000;
}
svg.acjk path[id] {fill:#ccc;}
]]>
</style>
<path id="z21191d1" d="M547 223C621 174 670 147 694 142C707 139 711 131 709 120C706 108 685 89 642 63C629 55 616 54 601 59C552 74 491 90 420 109C401 113 368 116 323 113C307 112 302 118 308 132C311 140 320 149 334 157C353 169 374 163 399 155C519 111 586 99 597 106C604 109 609 117 604 125C583 152 558 179 534 210C530 215 542 227 547 223Z"/>
<path id="z21191d2" d="M554 259C556 242 554 230 547 223C538 214 538 214 534 210C524 200 499 192 464 186C454 184 450 184 448 186C445 188 441 192 446 198C477 231 499 244 523 264C531 270 554 269 554 259Z"/>
<path id="z21191d3" d="M329 301C309 287 291 279 277 277C272 275 270 276 268 281C265 285 264 291 269 299C289 331 299 402 300 485C300 498 300 511 308 524C315 535 324 545 336 552C343 557 347 554 351 549C353 544 357 538 358 525C358 514 356 491 352 458C343 397 340 357 340 335C340 323 339 308 329 301Z"/>
<path id="z21191d4" d="M513 298C613 281 671 272 689 283C696 286 699 300 696 324C683 412 672 464 665 482C660 494 660 506 665 517C668 527 675 532 684 531C692 529 699 523 705 514C713 499 724 460 740 396C748 359 766 331 791 311C803 300 804 288 793 279C780 267 757 254 723 237C713 232 577 255 554 259C533 262 533 262 523 264C492 268 358 295 329 301C317 303 329 339 340 335C372 324 417 313 476 304C501 300 501 300 513 298Z"/>
<path id="z21191d5" d="M536 391C566 385 596 380 624 376C636 374 641 368 637 362C631 352 620 348 607 346C601 345 578 346 538 357C505 366 505 366 488 370C457 377 428 383 402 390C393 392 392 399 405 405C431 417 464 405 490 400C521 394 521 394 536 391Z"/>
<path id="z21191d6" d="M533 471C567 465 600 459 632 456C644 454 649 448 645 442C639 432 628 428 615 426C595 422 571 430 534 438C505 444 505 444 491 447C460 453 430 459 402 466C393 468 392 475 405 481C428 491 462 483 492 478C519 473 519 473 533 471Z"/>
<path id="z21191d7" d="M496 516C498 527 500 536 504 542C506 544 510 546 514 545C520 541 531 516 533 471C534 449 534 449 534 438C534 427 534 411 536 391C537 368 537 368 538 357C540 309 555 313 513 298C501 293 471 292 476 304C484 330 486 351 488 370C489 390 489 390 490 400C490 413 490 428 491 447C492 468 492 468 492 478C492 495 494 507 496 516Z"/>
<path id="z21191d8" d="M490 653C545 641 598 635 646 629C694 622 690 659 684 688C668 756 653 805 634 833C618 855 598 864 579 858C559 852 544 842 529 836C511 827 505 836 519 853C545 888 566 915 580 941C589 957 602 958 618 950C662 925 705 861 735 752C749 699 761 663 779 647C789 637 793 628 788 620C781 608 757 594 720 574C703 565 688 567 673 576C648 589 594 602 510 617C461 626 461 626 437 630C364 642 297 646 235 648C220 648 212 651 210 659C208 665 216 672 236 684C255 696 273 701 290 697C335 684 380 675 423 667C468 658 468 658 490 653Z"/>
<path id="z21191d9" d="M423 667C390 752 302 832 185 922C168 934 194 935 202 932C375 862 441 739 490 653C503 629 503 629 510 617C517 603 534 584 529 573C524 565 511 555 493 543C477 533 467 529 461 531C452 532 447 538 448 549C448 574 447 602 437 630C428 655 428 655 423 667Z"/>
<defs>
	<clipPath id="z21191c1"><use xlink:href="#z21191d1"/></clipPath>
	<clipPath id="z21191c2"><use xlink:href="#z21191d2"/></clipPath>
	<clipPath id="z21191c3"><use xlink:href="#z21191d3"/></clipPath>
	<clipPath id="z21191c4"><use xlink:href="#z21191d4"/></clipPath>
	<clipPath id="z21191c5"><use xlink:href="#z21191d5"/></clipPath>
	<clipPath id="z21191c6"><use xlink:href="#z21191d6"/></clipPath>
	<clipPath id="z21191c7"><use xlink:href="#z21191d7"/></clipPath>
	<clipPath id="z21191c8"><use xlink:href="#z21191d8"/></clipPath>
	<clipPath id="z21191c9"><use xlink:href="#z21191d9"/></clipPath>
</defs>
<path style="--d:1s;" pathLength="3333" clip-path="url(#z21191c1)" d="M312 123L370 138L620 85L653 132L538 215"/>
<path style="--d:2s;" pathLength="3333" clip-path="url(#z21191c2)" d="M451 193L545 262"/>
<path style="--d:3s;" pathLength="3333" clip-path="url(#z21191c3)" d="M274 283L311 325L338 550"/>
<path style="--d:4s;" pathLength="3333" clip-path="url(#z21191c4)" d="M330 311L715 264L748 303L683 526"/>
<path style="--d:5s;" pathLength="3333" clip-path="url(#z21191c5)" d="M405 397L630 367"/>
<path style="--d:6s;" pathLength="3333" clip-path="url(#z21191c6)" d="M407 473L638 446"/>
<path style="--d:7s;" pathLength="3333" clip-path="url(#z21191c7)" d="M483 302L513 333L511 538"/>
<path style="--d:8s;" pathLength="3333" clip-path="url(#z21191c8)" d="M216 659L286 671L697 602L737 639L650 868L594 906L519 839"/>
<path style="--d:9s;" pathLength="3333" clip-path="url(#z21191c9)" d="M455 538L488 581L424 719L319 840L186 925"/>
</svg>