<!--
AnimCJK 2016-2017 Copyright Francois Mizessyn, http://gooo.free.fr/animCJK/
Derived from:
    MakeMeAHanzi project - https://github.com/skishore/makemeahanzi
    Arphic PL KaitiM GB - https://apps.ubuntu.com/cat/applications/precise/fonts-arphic-gkai00mp/
    Arphic PL UKai - https://apps.ubuntu.com/cat/applications/fonts-arphic-ukai/
You can redistribute and/or modify this file under the terms of the Arphic Public License
as published by Arphic Technology Co., Ltd.
You should have received a copy of this license (the directory "APL") along with this file;
if not, see http://ftp.gnu.org/non-gnu/chinese-fonts-truetype/LICENSE.
-->
<svg id="z21195" class="acjk" version="1.1" viewBox="0 0 1024 1024" xmlns="http://www.w3.org/2000/svg" xmlns:xlink="http://www.w3.org/1999/xlink">
<style>
<![CDATA[
	@keyframes z21195k {
		from {
			stroke:#c00;
			stroke-dashoffset:3000;
		}
		75% {
			stroke:#c00;
			stroke-dashoffset:0;
		}
		to {
			stroke:#000;
		}
	}
	#z21195 path[clip-path] {
		animation:z21195k 1s linear both;
		stroke-dasharray:3000;
		stroke-width:128;
		stroke-linecap:round;
		fill:none;
	}
	#z21195 path[clip-path="url(#z21195c1)"] {animation-delay:1s;}
	#z21195 path[clip-path="url(#z21195c2)"] {animation-delay:2s;}
	#z21195 path[clip-path="url(#z21195c3)"] {animation-delay:3s;}
	#z21195 path[clip-path="url(#z21195c4)"] {animation-delay:4s;}
	#z21195 path[clip-path="url(#z21195c5)"] {animation-delay:5s;}
	#z21195 path[clip-path="url(#z21195c6)"] {animation-delay:6s;}
	#z21195 path[clip-path="url(#z21195c7)"] {animation-delay:7s;}
	#z21195 path[clip-path="url(#z21195c8)"] {animation-delay:8s;}
	#z21195 path[clip-path="url(#z21195c9)"] {animation-delay:9s;}
	#z21195 path {fill:#ccc;}
]]>
</style>
<g transform="scale(1,-1) translate(0,-900)">
	<path id="z21195d1" d="M243 754Q233 760 201 764Q191 767 187 762Q181 756 189 741Q214 695 231 617Q234 593 248 579Q266 558 270 573Q273 582 273 593L271 622Q259 700 254 726L243 754Z"/>
	<path id="z21195d2" d="M481 655Q502 706 527 724Q543 742 529 759Q457 819 407 790Q349 772 243 754L254 726Q264 727 278 731Q345 741 411 753Q427 757 434 750Q444 740 426 657L481 655Z"/>
	<path id="z21195d3" d="M273 593Q283 590 296 593Q357 609 493 623Q503 624 504 633Q504 640 481 655L426 657Q339 635 271 622L273 593Z"/>
	<path id="z21195d4" d="M233 509Q214 525 189 532Q182 533 175 526Q172 522 179 511Q215 429 186 277Q173 237 178 215Q187 184 197 172Q207 159 217 172Q241 200 242 359Q242 458 248 484L233 509Z"/>
	<path id="z21195d5" d="M440 241Q433 220 445 200Q458 173 466 174Q479 175 494 205Q507 229 506 248Q482 446 518 498Q527 513 520 522Q495 544 450 562Q437 566 415 558Q337 522 233 509L248 484Q254 484 260 485Q416 525 434 515Q443 494 447 439Q448 273 440 241Z"/>
	<path id="z21195d6" d="M322 377Q322 167 262 87Q249 74 234 59Q206 34 145 1Q133 -3 130 -7Q126 -11 140 -14Q174 -18 260 26Q356 83 371 302Q371 356 388 405Q394 415 385 423Q337 466 301 456Q282 449 297 433Q322 405 322 377Z"/>
	<path id="z21195d7" d="M391 137Q415 106 439 68Q446 56 459 54Q466 53 473 61Q480 71 479 95Q476 131 396 174Q386 178 380 178Q376 177 374 166Q375 157 391 137Z"/>
	<path id="z21195d8" d="M728 451Q774 464 819 470Q832 471 837 465Q844 449 841 404Q831 242 800 157Q784 103 767 87Q755 77 733 84Q700 96 672 107Q650 116 664 93Q707 41 730 0Q739 -22 760 -18Q779 -15 804 12Q873 88 897 360Q901 421 925 458Q941 479 932 488Q917 507 883 521Q858 533 833 521Q793 503 735 486L675 470Q603 454 562 452Q546 453 545 444Q544 435 564 424Q588 409 609 418Q637 428 668 436L728 451Z"/>
	<path id="z21195d9" d="M668 436Q629 243 477 31Q471 25 469 19Q465 7 476 9Q516 15 611 151Q623 172 636 193Q696 310 728 451L735 486Q756 618 767 648Q777 661 770 677Q754 696 722 712Q703 725 689 720Q676 713 682 699Q701 672 693 595Q675 475 675 470L668 436Z"/>
	<defs>
		<clipPath id="z21195c1"><use xlink:href="#z21195d1"/></clipPath>
		<clipPath id="z21195c2"><use xlink:href="#z21195d2"/></clipPath>
		<clipPath id="z21195c3"><use xlink:href="#z21195d3"/></clipPath>
		<clipPath id="z21195c4"><use xlink:href="#z21195d4"/></clipPath>
		<clipPath id="z21195c5"><use xlink:href="#z21195d5"/></clipPath>
		<clipPath id="z21195c6"><use xlink:href="#z21195d6"/></clipPath>
		<clipPath id="z21195c7"><use xlink:href="#z21195d7"/></clipPath>
		<clipPath id="z21195c8"><use xlink:href="#z21195d8"/></clipPath>
		<clipPath id="z21195c9"><use xlink:href="#z21195d9"/></clipPath>
	</defs>
	<path pathLength="2999" clip-path="url(#z21195c1)" d="M193 754L230 714L259 572"/>
	<path pathLength="2999" clip-path="url(#z21195c2)" d="M251 752L465 765L486 731L439 657"/>
	<path pathLength="2999" clip-path="url(#z21195c3)" d="M282 599L498 637"/>
	<path pathLength="2999" clip-path="url(#z21195c4)" d="M180 524L220 465L203 174"/>
	<path pathLength="2999" clip-path="url(#z21195c5)" d="M241 507L430 540L478 507L463 181"/>
	<path pathLength="2999" clip-path="url(#z21195c6)" d="M296 447L355 401L318 145L247 42L139 -7"/>
	<path pathLength="2999" clip-path="url(#z21195c7)" d="M381 171L469 60"/>
	<path pathLength="2999" clip-path="url(#z21195c8)" d="M551 445L600 436L832 496L887 466L844 198L797 65L747 32L665 101"/>
	<path pathLength="2999" clip-path="url(#z21195c9)" d="M686 712L733 661L681 377L595 172L477 18"/>
</g>
</svg>