<!--
AnimCJK 2016-2017 Copyright Francois Mizessyn, http://gooo.free.fr/animCJK/
Derived from:
    MakeMeAHanzi project - https://github.com/skishore/makemeahanzi
    Arphic PL KaitiM GB - https://apps.ubuntu.com/cat/applications/precise/fonts-arphic-gkai00mp/
    Arphic PL UKai - https://apps.ubuntu.com/cat/applications/fonts-arphic-ukai/
You can redistribute and/or modify this file under the terms of the Arphic Public License
as published by Arphic Technology Co., Ltd.
You should have received a copy of this license (the directory "APL") along with this file;
if not, see http://ftp.gnu.org/non-gnu/chinese-fonts-truetype/LICENSE.
-->
<svg id="z21242" class="acjk" version="1.1" viewBox="0 0 1024 1024" xmlns="http://www.w3.org/2000/svg" xmlns:xlink="http://www.w3.org/1999/xlink">
<style>
<![CDATA[
	@keyframes z21242k {
		from {
			stroke:#c00;
			stroke-dashoffset:3000;
		}
		75% {
			stroke:#c00;
			stroke-dashoffset:0;
		}
		to {
			stroke:#000;
		}
	}
	#z21242 path[clip-path] {
		animation:z21242k 1s linear both;
		stroke-dasharray:3000;
		stroke-width:128;
		stroke-linecap:round;
		fill:none;
	}
	#z21242 path[clip-path="url(#z21242c1)"] {animation-delay:1s;}
	#z21242 path[clip-path="url(#z21242c2)"] {animation-delay:2s;}
	#z21242 path[clip-path="url(#z21242c3)"] {animation-delay:3s;}
	#z21242 path {fill:#ccc;}
]]>
</style>
<g transform="scale(1,-1) translate(0,-900)">
	<path id="z21242d1" d="M377 577Q407 619 429 662Q462 726 493 777Q505 793 487 808Q436 845 406 840Q393 836 397 819Q418 698 284 531Q241 489 213 450Q204 432 221 438Q269 450 356 550L377 577Z"/>
	<path id="z21242d2" d="M356 550Q395 535 425 544Q467 560 660 600Q693 606 706 592Q725 568 722 516Q718 351 698 245Q662 80 628 63Q619 60 516 89Q501 96 498 89Q494 82 512 67Q564 21 591 -22Q610 -53 629 -49Q645 -46 669 -18Q702 19 728 92Q756 179 786 468Q793 543 814 567Q833 589 809 608Q734 659 694 647Q538 601 377 577L356 550Z"/>
	<path id="z21242d3" d="M349 364Q374 330 400 291Q410 273 428 270Q440 269 449 281Q458 296 455 330Q452 369 356 417Q340 424 333 423Q326 420 325 406Q326 393 349 364Z"/>
	<defs>
		<clipPath id="z21242c1"><use xlink:href="#z21242d1"/></clipPath>
		<clipPath id="z21242c2"><use xlink:href="#z21242d2"/></clipPath>
		<clipPath id="z21242c3"><use xlink:href="#z21242d3"/></clipPath>
	</defs>
	<path pathLength="2999" clip-path="url(#z21242c1)" d="M404 836L448 787L412 690L335 560L217 445"/>
	<path pathLength="2999" clip-path="url(#z21242c2)" d="M363 553L692 625L770 575L723 215L678 65L619 5L502 84"/>
	<path pathLength="2999" clip-path="url(#z21242c3)" d="M335 415L418 329L436 274"/>
</g>
</svg>