<!--
AnimCJK 2016-2018 Copyright Francois Mizessyn - https://github.com/parsimonhi/animCJK
Derived from:
    MakeMeAHanzi project - https://github.com/skishore/makemeahanzi
    Arphic PL KaitiM GB - https://apps.ubuntu.com/cat/applications/precise/fonts-arphic-gkai00mp/
    Arphic PL UKai - https://apps.ubuntu.com/cat/applications/fonts-arphic-ukai/
You can redistribute and/or modify this file under the terms of the Arphic Public License
as published by Arphic Technology Co., Ltd.
You should have received a copy of this license (the directory "APL") along with this file;
if not, see http://ftp.gnu.org/non-gnu/chinese-fonts-truetype/LICENSE.
-->
<svg id="z21263" class="acjk" version="1.1" viewBox="0 0 1024 1024" xmlns="http://www.w3.org/2000/svg" xmlns:xlink="http://www.w3.org/1999/xlink">
<style>
<![CDATA[
@keyframes z21263k {
	from {
		stroke:#ccc;
		stroke-dashoffset:3334;
	}
	1% {
		stroke:#c00;
		stroke-dashoffset:3334;
	}
	75% {
		stroke:#c00;
		stroke-dashoffset:0;
	}
	to {
		stroke:#000;
	}
}
#z21263 path[clip-path] {
	animation:z21263k 1s linear both;
	stroke-dasharray:3334;
	stroke-width:128;
	stroke-linecap:round;
	fill:none;
}
#z21263 path[clip-path="url(#z21263c1)"] {animation-delay:1s;}
#z21263 path[clip-path="url(#z21263c2)"] {animation-delay:2s;}
#z21263 path[clip-path="url(#z21263c3)"] {animation-delay:3s;}
#z21263 path[clip-path="url(#z21263c4)"] {animation-delay:4s;}
#z21263 path[clip-path="url(#z21263c5)"] {animation-delay:5s;}
#z21263 path[clip-path="url(#z21263c6)"] {animation-delay:6s;}
#z21263 path[clip-path="url(#z21263c7)"] {animation-delay:7s;}
#z21263 path[clip-path="url(#z21263c8)"] {animation-delay:8s;}
#z21263 path[clip-path="url(#z21263c9)"] {animation-delay:9s;}
#z21263 path[clip-path="url(#z21263c10)"] {animation-delay:10s;}
#z21263 path[clip-path="url(#z21263c11)"] {animation-delay:11s;}
#z21263 path {fill:#ccc;}
]]>
</style>
<path id="z21263d1" d="M329 265Q470 235 479 230Q486 223 483 215Q476 205 450 197Q422 191 395 202Q370 209 344 218L290 232Q230 244 165 250Q131 256 155 271Q186 292 257 279Q264 278 274 277L329 265 Z"/>
<path id="z21263d2" d="M274 277Q208 404 106 516Q84 537 58 563Q51 570 58 573Q65 574 76 569Q146 529 203 470Q278 401 329 265L344 218Q384 92 385 90Q384 87 383 87Q376 78 344 64Q322 54 313 58Q300 62 303 77Q316 149 290 232L274 277 Z"/>
<path id="z21263d3" d="M375 325Q415 352 462 392Q475 404 486 405Q492 406 496 398Q503 388 491 359Q476 320 373 304Q366 301 366 310Q367 319 375 325 Z"/>
<path id="z21263d4" d="M261 435Q230 442 254 456Q287 469 361 452Q383 445 407 439Q423 435 425 432Q432 425 427 418Q420 408 395 404Q370 401 344 414Q307 429 261 435 Z"/>
<path id="z21263d5" d="M307 565Q347 555 440 541Q450 542 458 529Q459 519 437 509Q403 488 314 521Q311 521 309 522Q266 532 228 539Q201 543 171 549Q144 553 165 569Q198 588 234 581Q243 578 255 577L307 565 Z"/>
<path id="z21263d6" d="M239 719Q261 697 311 677Q339 668 356 671Q375 675 378 705Q371 766 339 814Q326 833 314 839Q299 842 241 823Q228 816 227 822Q226 828 236 838Q266 874 286 904Q293 916 303 915Q316 916 333 906Q393 854 422 725Q423 700 433 685Q443 675 433 664Q420 651 388 638Q379 634 309 651Q300 654 290 659Q272 662 280 644Q301 601 309 591Q319 579 310 567Q309 566 307 565L255 577Q261 604 238 643Q232 655 212 671Q199 684 202 698Q205 710 218 721Q228 728 239 719 Z"/>
<path id="z21263d7" d="M601 317Q649 236 672 188Q685 157 697 141Q704 129 698 118Q692 106 663 90Q635 77 618 80Q602 84 612 103Q625 121 620 139Q604 232 526 379Q519 389 517 395Q516 407 528 402Q543 396 584 342L601 317 Z"/>
<path id="z21263d8" d="M584 342Q585 342 588 344Q610 357 630 349Q712 324 788 312Q798 311 801 316Q807 326 806 353Q803 452 788 506Q779 539 769 550Q759 560 736 555Q718 554 702 551Q681 545 696 565Q727 602 743 632Q749 648 765 645Q778 644 795 625Q843 571 861 388Q865 345 882 321Q897 302 888 293Q873 277 842 263Q820 253 795 263Q725 299 601 317L584 342 Z"/>
<path id="z21263d9" d="M664 589Q680 528 700 509Q719 487 699 473Q683 463 658 448Q643 439 599 464Q584 468 539 484L547 509Q583 500 613 494Q629 491 633 497Q636 500 617 591L664 589 Z"/>
<path id="z21263d10" d="M532 642Q541 642 553 641Q593 631 679 619Q688 618 689 610Q689 603 664 589L617 591Q571 604 535 613L532 642 Z"/>
<path id="z21263d11" d="M944 799Q931 774 912 698Q912 682 905 678Q899 675 895 692Q873 774 856 800Q840 819 794 833Q685 861 594 826Q558 810 548 786Q527 747 532 642L535 613Q538 564 547 510L547 509L539 484Q527 472 507 466Q495 462 488 467Q482 471 487 486Q500 522 497 555Q488 751 505 805Q511 833 537 855Q628 924 818 892Q831 888 847 884Q893 871 939 837Q955 822 944 799 Z"/>
<defs>
	<clipPath id="z21263c1"><use xlink:href="#z21263d1"/></clipPath>
	<clipPath id="z21263c2"><use xlink:href="#z21263d2"/></clipPath>
	<clipPath id="z21263c3"><use xlink:href="#z21263d3"/></clipPath>
	<clipPath id="z21263c4"><use xlink:href="#z21263d4"/></clipPath>
	<clipPath id="z21263c5"><use xlink:href="#z21263d5"/></clipPath>
	<clipPath id="z21263c6"><use xlink:href="#z21263d6"/></clipPath>
	<clipPath id="z21263c7"><use xlink:href="#z21263d7"/></clipPath>
	<clipPath id="z21263c8"><use xlink:href="#z21263d8"/></clipPath>
	<clipPath id="z21263c9"><use xlink:href="#z21263d9"/></clipPath>
	<clipPath id="z21263c10"><use xlink:href="#z21263d10"/></clipPath>
	<clipPath id="z21263c11"><use xlink:href="#z21263d11"/></clipPath>
</defs>
<path pathLength="3333" clip-path="url(#z21263c1)" d="M154 260L476 216"/>
<path pathLength="3333" clip-path="url(#z21263c2)" d="M378 92L337 102L310 247L252 368L64 567"/>
<path pathLength="3333" clip-path="url(#z21263c3)" d="M373 313L448 349L490 397"/>
<path pathLength="3333" clip-path="url(#z21263c4)" d="M252 444L422 425"/>
<path pathLength="3333" clip-path="url(#z21263c5)" d="M166 560L453 523"/>
<path pathLength="3333" clip-path="url(#z21263c6)" d="M308 572L277 596L243 682L385 661L406 685L390 757L320 873L296 876L234 826"/>
<path pathLength="3333" clip-path="url(#z21263c7)" d="M615 84L659 138L524 395"/>
<path pathLength="3333" clip-path="url(#z21263c8)" d="M593 340L803 285L848 314L793 568L756 600L697 558"/>
<path pathLength="3333" clip-path="url(#z21263c9)" d="M545 488L640 470L670 491L632 590"/>
<path pathLength="3333" clip-path="url(#z21263c10)" d="M536 634L684 607"/>
<path pathLength="3333" clip-path="url(#z21263c11)" d="M492 469L521 514L518 766L573 846L690 873L848 848L905 806L902 687"/>
</svg>