<!--
AnimCJK 2016-2019 Copyright Francois Mizessyn - https://github.com/parsimonhi/animCJK
Derived from:
    MakeMeAHanzi project - https://github.com/skishore/makemeahanzi
    Arphic PL KaitiM GB font
    Arphic PL UKai font
You can redistribute and/or modify this file under the terms of the Arphic Public License
as published by Arphic Technology Co., Ltd.
You should have received a copy of this license along with this file.
If not, see http://ftp.gnu.org/non-gnu/chinese-fonts-truetype/LICENSE.
-->
<svg id="z21270" class="acjk" version="1.1" viewBox="0 0 1024 1024" xmlns="http://www.w3.org/2000/svg" xmlns:xlink="http://www.w3.org/1999/xlink">
<style>
<![CDATA[
@keyframes zk {
	to {
		stroke-dashoffset:0;
	}
}
svg.acjk path[clip-path] {
	--t:0.8s;
	animation:zk var(--t) linear forwards var(--d);
	stroke-dasharray:3337;
	stroke-dashoffset:3339;
	stroke-width:128;
	stroke-linecap:round;
	fill:none;
	stroke:#000;
}
svg.acjk path[id] {fill:#ccc;}
]]>
</style>
<path id="z21270d1" d="M272 397Q318 337 367 261Q397 209 422 185Q432 175 428 159Q424 146 393 120Q365 101 344 100Q325 101 333 126Q348 160 334 189Q292 286 230 375Q169 460 88 555Q78 565 74 572Q70 585 86 582Q122 579 236 441Q240 435 247 428C264 407 264 407 272 397Z"/>
<path id="z21270d2" d="M247 428Q268 500 270 519Q270 666 245 765Q230 814 267 862Q268 865 272 868Q291 884 303 856Q318 814 318 766Q319 538 326 487Q333 459 323 448Q305 426 291 412Q282 402 272 397C261 390 244 415 247 428Z"/>
<path id="z21270d3" d="M551 545Q669 452 743 377Q782 334 812 316Q825 307 823 291Q822 278 797 246Q773 221 754 216Q733 215 737 239Q744 275 725 300Q665 384 587 457Q571 470 554 487C517 519 517 519 499 535Q459 568 414 602Q401 609 398 616Q391 626 407 627Q426 628 499 583C534 558 534 558 551 545Z"/>
<path id="z21270d4" d="M941 802Q959 786 939 754Q917 699 908 624Q907 614 899 604Q887 598 885 623Q852 750 846 759Q839 772 807 778Q698 806 614 783Q572 771 559 729Q549 696 551 545C553 506 553 506 554 487Q572 237 596 203Q605 179 585 165Q555 137 516 127Q495 123 487 132Q478 142 486 152Q501 165 508 189Q512 213 505 361Q501 452 499 535C499 567 499 567 499 583Q502 752 535 792Q545 804 566 816Q654 862 846 838Q856 835 866 833Q918 820 941 802Z"/>
<defs>
	<clipPath id="z21270c1"><use xlink:href="#z21270d1"/></clipPath>
	<clipPath id="z21270c2"><use xlink:href="#z21270d2"/></clipPath>
	<clipPath id="z21270c3"><use xlink:href="#z21270d3"/></clipPath>
	<clipPath id="z21270c4"><use xlink:href="#z21270d4"/></clipPath>
</defs>
<path style="--d:1s;" pathLength="3333" clip-path="url(#z21270c1)" d="M338 111L383 176L253 384L81 576"/>
<path style="--d:2s;" pathLength="3333" clip-path="url(#z21270c2)" d="M273 404L297 516L283 870"/>
<path style="--d:3s;" pathLength="3333" clip-path="url(#z21270c3)" d="M745 220L778 275L768 306L561 510L402 619"/>
<path style="--d:4s;" pathLength="3333" clip-path="url(#z21270c4)" d="M486 137L554 196L525 624L558 779L683 819L865 795L900 766L895 609"/>
</svg>