<!--
AnimCJK 2016-2019 Copyright Francois Mizessyn - https://github.com/parsimonhi/animCJK
Derived from:
    MakeMeAHanzi project - https://github.com/skishore/makemeahanzi
    Arphic PL KaitiM GB font
    Arphic PL UKai font
You can redistribute and/or modify this file under the terms of the Arphic Public License
as published by Arphic Technology Co., Ltd.
You should have received a copy of this license along with this file.
If not, see http://ftp.gnu.org/non-gnu/chinese-fonts-truetype/LICENSE.
-->
<svg id="z21276" class="acjk" version="1.1" viewBox="0 0 1024 1024" xmlns="http://www.w3.org/2000/svg" xmlns:xlink="http://www.w3.org/1999/xlink">
<style>
<![CDATA[
@keyframes zk {
	to {
		stroke-dashoffset:0;
	}
}
svg.acjk path[clip-path] {
	--t:0.8s;
	animation:zk var(--t) linear forwards var(--d);
	stroke-dasharray:3337;
	stroke-dashoffset:3339;
	stroke-width:128;
	stroke-linecap:round;
	fill:none;
	stroke:#000;
}
svg.acjk path[id] {fill:#ccc;}
]]>
</style>
<path id="z21276d1" d="M304 189Q343 210 391 203Q551 187 716 168Q792 158 804 149Q814 142 810 132Q804 119 775 109Q745 100 713 109Q524 157 306 160Q296 160 294 162C285 165 295 185 304 189Z"/>
<path id="z21276d2" d="M455 456C473 446 498 435 530 422C561 408 561 408 577 401C601 391 627 379 657 366C669 364 677 366 680 373C684 379 676 420 658 494C654 519 643 528 626 521C598 512 598 512 584 507C576 507 573 508 575 512C577 519 599 540 640 575C652 590 664 592 674 580C694 556 708 525 715 487C719 463 723 444 731 417C737 397 746 371 763 353C771 345 770 337 761 329C750 323 730 316 700 310C689 308 679 310 671 318C655 332 631 346 600 360C593 363 587 366 583 369C550 382 550 382 534 389C510 398 486 407 463 417C428 429 428 429 411 435C379 445 353 453 333 459C325 460 320 463 320 468C319 472 331 479 355 487C369 492 383 491 397 484C399 482 403 480 408 478C439 463 439 463 455 456Z"/>
<path id="z21276d3" d="M530 422Q529 428 529 435Q514 552 518 572Q522 582 531 578Q549 563 577 401C581 380 581 380 583 369Q593 311 603 289Q613 273 603 261Q591 246 567 232Q549 222 528 228Q518 234 528 249Q543 280 534 389C531 411 531 411 530 422Z"/>
<path id="z21276d4" d="M872 671Q859 620 857 534Q856 519 849 514Q842 510 838 527Q817 633 801 651Q762 688 609 683Q527 676 492 659Q461 641 456 620Q435 566 455 456C460 430 460 430 463 417Q466 404 472 393Q484 365 467 350Q422 314 408 317Q395 323 401 338Q417 372 412 423Q411 429 411 435C409 464 409 464 408 478Q404 593 412 622Q421 662 449 686Q512 734 719 733Q815 732 853 712Q881 700 872 671Z"/>
<path id="z21276d5" d="M294 162Q251 137 232 137Q219 134 210 142Q200 149 215 167Q243 203 232 578Q217 803 185 831Q163 849 176 867Q182 885 197 897Q212 909 235 894Q314 833 727 843Q811 844 852 852Q877 856 890 850Q902 843 902 836Q901 821 867 798Q833 777 812 778Q767 779 418 813Q283 832 274 818Q265 809 274 673Q274 529 295 267Q298 210 303 193Q304 190 304 189C306 180 303 166 294 162Z"/>
<defs>
	<clipPath id="z21276c1"><use xlink:href="#z21276d1"/></clipPath>
	<clipPath id="z21276c2"><use xlink:href="#z21276d2"/></clipPath>
	<clipPath id="z21276c3"><use xlink:href="#z21276d3"/></clipPath>
	<clipPath id="z21276c4"><use xlink:href="#z21276d4"/></clipPath>
	<clipPath id="z21276c5"><use xlink:href="#z21276d5"/></clipPath>
</defs>
<path style="--d:1s;" pathLength="3333" clip-path="url(#z21276c1)" d="M303 167L419 178L805 133"/>
<path style="--d:2s;" pathLength="3333" clip-path="url(#z21276c2)" d="M329 468L388 464L692 341L724 361L672 533L652 555L584 511"/>
<path style="--d:3s;" pathLength="3333" clip-path="url(#z21276c3)" d="M531 232L572 284L528 573"/>
<path style="--d:4s;" pathLength="3333" clip-path="url(#z21276c4)" d="M407 322L444 376L431 610L483 680L654 708L812 689L838 668L847 521"/>
<path style="--d:5s;" pathLength="3333" clip-path="url(#z21276c5)" d="M212 146L265 197L249 672L223 837L237 860L584 819L897 827"/>
</svg>