<!--
AnimCJK 2016-2019 Copyright Francois Mizessyn - https://github.com/parsimonhi/animCJK
Derived from:
    MakeMeAHanzi project - https://github.com/skishore/makemeahanzi
    Arphic PL KaitiM GB font
    Arphic PL UKai font
You can redistribute and/or modify this file under the terms of the Arphic Public License
as published by Arphic Technology Co., Ltd.
You should have received a copy of this license along with this file.
If not, see http://ftp.gnu.org/non-gnu/chinese-fonts-truetype/LICENSE.
-->
<svg id="z21286" class="acjk" version="1.1" viewBox="0 0 1024 1024" xmlns="http://www.w3.org/2000/svg" xmlns:xlink="http://www.w3.org/1999/xlink">
<style>
<![CDATA[
@keyframes zk {
	to {
		stroke-dashoffset:0;
	}
}
svg.acjk path[clip-path] {
	--t:0.8s;
	animation:zk var(--t) linear forwards var(--d);
	stroke-dasharray:3337;
	stroke-dashoffset:3339;
	stroke-width:128;
	stroke-linecap:round;
	fill:none;
	stroke:#000;
}
svg.acjk path[id] {fill:#ccc;}
]]>
</style>
<path id="z21286d1" d="M295 218Q340 234 425 223Q558 205 696 187Q769 175 780 166Q790 159 786 149Q779 136 749 126Q719 116 616 144Q429 180 294 185Q287 185 282 188C272 192 285 214 295 218Z"/>
<path id="z21286d2" d="M437 384Q545 354 548 351Q555 344 551 337Q544 328 521 324Q500 321 458 337C422 349 422 349 404 355Q370 362 333 369Q305 376 326 388Q350 401 392 396C422 388 422 388 437 384Z"/>
<path id="z21286d3" d="M481 541Q506 534 533 532Q558 529 550 518Q543 508 528 502Q515 496 482 510C455 516 455 516 442 519Q382 531 381 530Q380 529 381 519Q403 458 437 384C451 353 451 353 458 337Q471 312 479 305Q489 295 475 279Q453 257 436 246Q426 239 417 242Q410 245 415 263Q419 282 404 355C396 382 396 382 392 396Q356 498 324 532Q311 545 315 558Q322 574 331 583Q338 590 347 587Q374 572 442 551C468 544 468 544 481 541Z"/>
<path id="z21286d4" d="M482 510Q485 465 482 462Q464 447 450 440Q440 437 434 443Q430 444 435 453Q441 462 442 519C442 540 442 540 442 551Q441 587 439 624C437 649 437 649 436 662Q435 672 433 683Q433 701 430 709Q421 737 448 776Q457 791 463 794Q472 795 475 785Q485 760 482 737Q481 686 480 640C480 619 480 619 480 608Q480 575 481 541C482 520 482 520 482 510Z"/>
<path id="z21286d5" d="M439 624Q385 642 327 663Q312 669 286 670Q276 671 275 680Q274 690 282 697Q301 710 329 723Q338 724 348 717Q382 686 436 662C465 647 465 647 480 640Q493 630 513 622Q532 612 546 599Q556 592 556 585Q552 581 542 584Q512 594 480 608C453 619 453 619 439 624Z"/>
<path id="z21286d6" d="M620 433Q608 562 547 662Q532 690 517 715Q513 719 512 725Q511 734 518 732Q551 723 612 612Q612 608 615 605Q648 527 665 419C668 397 668 397 669 386Q669 335 680 306Q686 296 680 285Q667 272 643 261Q627 252 618 256Q608 262 614 273Q629 300 623 403C621 423 621 423 620 433Z"/>
<path id="z21286d7" d="M665 419Q677 415 693 409Q709 403 716 409Q720 413 717 428Q698 641 764 708Q822 766 874 757Q887 754 884 738Q877 683 889 589Q890 576 887 574Q883 574 876 585Q866 610 852 644Q843 669 827 679Q821 683 807 674Q756 641 754 574Q751 531 769 462Q776 431 790 415Q811 400 808 390Q805 377 756 356Q740 346 725 360Q706 370 669 386C638 397 638 397 623 403Q572 416 542 419Q523 420 535 431Q562 452 611 435Q614 434 620 433C650 424 650 424 665 419Z"/>
<path id="z21286d8" d="M282 188Q242 166 224 165Q211 162 202 170Q192 177 207 195Q235 231 224 598Q209 820 177 847Q156 865 169 883Q175 899 191 913Q206 926 225 912Q264 864 574 854Q761 851 825 860Q873 867 874 844Q873 829 839 807Q805 786 784 787Q741 788 404 827Q275 848 266 834Q257 825 266 693Q266 579 288 270Q291 233 294 221Q295 220 295 218C299 208 292 193 282 188Z"/>
<defs>
	<clipPath id="z21286c1"><use xlink:href="#z21286d1"/></clipPath>
	<clipPath id="z21286c2"><use xlink:href="#z21286d2"/></clipPath>
	<clipPath id="z21286c3"><use xlink:href="#z21286d3"/></clipPath>
	<clipPath id="z21286c4"><use xlink:href="#z21286d4"/></clipPath>
	<clipPath id="z21286c5"><use xlink:href="#z21286d5"/></clipPath>
	<clipPath id="z21286c6"><use xlink:href="#z21286d6"/></clipPath>
	<clipPath id="z21286c7"><use xlink:href="#z21286d7"/></clipPath>
	<clipPath id="z21286c8"><use xlink:href="#z21286d8"/></clipPath>
</defs>
<path style="--d:1s;" pathLength="3333" clip-path="url(#z21286c1)" d="M291 194L424 199L780 149"/>
<path style="--d:2s;" pathLength="3333" clip-path="url(#z21286c2)" d="M326 379L545 340"/>
<path style="--d:3s;" pathLength="3333" clip-path="url(#z21286c3)" d="M421 248L447 301L351 548L547 520"/>
<path style="--d:4s;" pathLength="3333" clip-path="url(#z21286c4)" d="M440 448L462 480L464 787"/>
<path style="--d:5s;" pathLength="3333" clip-path="url(#z21286c5)" d="M280 678L333 692L548 589"/>
<path style="--d:6s;" pathLength="3333" clip-path="url(#z21286c6)" d="M622 263L652 301L627 512L578 640L518 724"/>
<path style="--d:7s;" pathLength="3333" clip-path="url(#z21286c7)" d="M537 423L599 424L727 380L762 402L737 598L763 667L813 711L855 714L885 586"/>
<path style="--d:8s;" pathLength="3333" clip-path="url(#z21286c8)" d="M206 175L256 229L225 871L702 823L869 843"/>
</svg>