<!--
AnimCJK 2016-2017 Copyright Francois Mizessyn, http://gooo.free.fr/animCJK/
Derived from:
    MakeMeAHanzi project - https://github.com/skishore/makemeahanzi
    Arphic PL KaitiM GB - https://apps.ubuntu.com/cat/applications/precise/fonts-arphic-gkai00mp/
    Arphic PL UKai - https://apps.ubuntu.com/cat/applications/fonts-arphic-ukai/
You can redistribute and/or modify this file under the terms of the Arphic Public License
as published by Arphic Technology Co., Ltd.
You should have received a copy of this license (the directory "APL") along with this file;
if not, see http://ftp.gnu.org/non-gnu/chinese-fonts-truetype/LICENSE.
-->
<svg id="z21283" class="acjk" version="1.1" viewBox="0 0 1024 1024" xmlns="http://www.w3.org/2000/svg" xmlns:xlink="http://www.w3.org/1999/xlink">
<style>
<![CDATA[
	@keyframes z21283k {
		from {
			stroke:#c00;
			stroke-dashoffset:3000;
		}
		75% {
			stroke:#c00;
			stroke-dashoffset:0;
		}
		to {
			stroke:#000;
		}
	}
	#z21283 path[clip-path] {
		animation:z21283k 1s linear both;
		stroke-dasharray:3000;
		stroke-width:128;
		stroke-linecap:round;
		fill:none;
	}
	#z21283 path[clip-path="url(#z21283c1)"] {animation-delay:1s;}
	#z21283 path[clip-path="url(#z21283c2)"] {animation-delay:2s;}
	#z21283 path[clip-path="url(#z21283c3)"] {animation-delay:3s;}
	#z21283 path[clip-path="url(#z21283c4)"] {animation-delay:4s;}
	#z21283 path[clip-path="url(#z21283c5)"] {animation-delay:5s;}
	#z21283 path[clip-path="url(#z21283c6)"] {animation-delay:6s;}
	#z21283 path[clip-path="url(#z21283c7)"] {animation-delay:7s;}
	#z21283 path {fill:#ccc;}
]]>
</style>
<g transform="scale(1,-1) translate(0,-900)">
	<path id="z21283d1" d="M296 691Q308 690 324 693Q547 732 777 752Q789 751 799 763Q800 776 777 788Q735 813 672 794Q485 760 293 741L296 691Z"/>
	<path id="z21283d2" d="M410 616Q398 623 365 629Q352 633 349 627Q342 621 351 605Q384 527 401 403Q404 366 424 340Q442 318 447 333Q450 343 451 356L451 381Q450 397 447 415Q425 541 420 583L410 616Z"/>
	<path id="z21283d3" d="M662 383Q683 349 701 341Q711 334 727 355Q743 383 777 542Q787 573 810 599Q823 611 812 625Q796 643 753 670Q735 680 650 659Q638 659 507 635Q452 625 410 616L420 583Q438 592 529 606L575 614Q618 623 668 629Q702 633 713 622Q728 604 725 587Q698 434 680 408L662 383Z"/>
	<path id="z21283d4" d="M592 486Q620 490 648 494Q669 498 661 509Q651 522 629 526Q614 529 593 523L548 512Q508 502 474 491Q459 488 478 475Q482 472 548 479L592 486Z"/>
	<path id="z21283d5" d="M589 373Q626 380 662 383L680 408Q646 429 594 408Q591 408 590 407L546 398Q495 391 451 381L451 356Q458 356 470 357Q507 363 545 368L589 373Z"/>
	<path id="z21283d6" d="M546 147Q550 126 556 118Q560 112 566 115Q578 121 584 169Q584 170 589 373L590 407Q590 443 592 486L593 523Q594 551 602 581Q603 594 593 603Q583 610 575 614L529 606Q533 599 538 591Q547 575 548 512L548 479Q547 442 546 398L545 368Q545 155 546 147Z"/>
	<path id="z21283d7" d="M293 741Q248 765 227 767Q214 768 206 761Q196 754 211 737Q235 707 235 336Q220 87 189 60Q168 42 181 24Q187 8 203 -5Q218 -17 238 -3Q277 43 586 56Q773 60 837 52Q862 48 875 54Q885 61 886 68Q886 83 850 105Q816 126 796 125Q753 124 416 82Q287 60 277 75Q271 81 276 198Q276 411 294 672Q294 684 296 691L293 741Z"/>
	<defs>
		<clipPath id="z21283c1"><use xlink:href="#z21283d1"/></clipPath>
		<clipPath id="z21283c2"><use xlink:href="#z21283d2"/></clipPath>
		<clipPath id="z21283c3"><use xlink:href="#z21283d3"/></clipPath>
		<clipPath id="z21283c4"><use xlink:href="#z21283d4"/></clipPath>
		<clipPath id="z21283c5"><use xlink:href="#z21283d5"/></clipPath>
		<clipPath id="z21283c6"><use xlink:href="#z21283d6"/></clipPath>
		<clipPath id="z21283c7"><use xlink:href="#z21283d7"/></clipPath>
	</defs>
	<path pathLength="2999" clip-path="url(#z21283c1)" d="M304 699L324 720L693 772L793 764"/>
	<path pathLength="2999" clip-path="url(#z21283c2)" d="M354 627L391 580L441 334"/>
	<path pathLength="2999" clip-path="url(#z21283c3)" d="M418 610L710 650L759 623L770 599L692 348"/>
	<path pathLength="2999" clip-path="url(#z21283c4)" d="M474 486L656 507"/>
	<path pathLength="2999" clip-path="url(#z21283c5)" d="M457 364L674 401"/>
	<path pathLength="2999" clip-path="url(#z21283c6)" d="M538 602L573 576L563 120"/>
	<path pathLength="2999" clip-path="url(#z21283c7)" d="M210 756L257 721L260 688L234 41L754 90L881 68"/>
</g>
</svg>