<!--
AnimCJK 2016-2017 Copyright Francois Mizessyn, http://gooo.free.fr/animCJK/
Derived from:
    MakeMeAHanzi project - https://github.com/skishore/makemeahanzi
    Arphic PL KaitiM GB - https://apps.ubuntu.com/cat/applications/precise/fonts-arphic-gkai00mp/
    Arphic PL UKai - https://apps.ubuntu.com/cat/applications/fonts-arphic-ukai/
You can redistribute and/or modify this file under the terms of the Arphic Public License
as published by Arphic Technology Co., Ltd.
You should have received a copy of this license (the directory "APL") along with this file;
if not, see http://ftp.gnu.org/non-gnu/chinese-fonts-truetype/LICENSE.
-->
<svg id="z21290" class="acjk" version="1.1" viewBox="0 0 1024 1024" xmlns="http://www.w3.org/2000/svg" xmlns:xlink="http://www.w3.org/1999/xlink">
<style>
<![CDATA[
	@keyframes z21290k {
		from {
			stroke:#c00;
			stroke-dashoffset:3000;
		}
		75% {
			stroke:#c00;
			stroke-dashoffset:0;
		}
		to {
			stroke:#000;
		}
	}
	#z21290 path[clip-path] {
		animation:z21290k 1s linear both;
		stroke-dasharray:3000;
		stroke-width:128;
		stroke-linecap:round;
		fill:none;
	}
	#z21290 path[clip-path="url(#z21290c1)"] {animation-delay:1s;}
	#z21290 path[clip-path="url(#z21290c2)"] {animation-delay:2s;}
	#z21290 path[clip-path="url(#z21290c3)"] {animation-delay:3s;}
	#z21290 path[clip-path="url(#z21290c4)"] {animation-delay:4s;}
	#z21290 path[clip-path="url(#z21290c5)"] {animation-delay:5s;}
	#z21290 path[clip-path="url(#z21290c6)"] {animation-delay:6s;}
	#z21290 path[clip-path="url(#z21290c7)"] {animation-delay:7s;}
	#z21290 path[clip-path="url(#z21290c8)"] {animation-delay:8s;}
	#z21290 path[clip-path="url(#z21290c9)"] {animation-delay:9s;}
	#z21290 path[clip-path="url(#z21290c10)"] {animation-delay:10s;}
	#z21290 path {fill:#ccc;}
]]>
</style>
<g transform="scale(1,-1) translate(0,-900)">
	<path id="z21290d1" d="M304 717Q358 708 379 710Q760 755 796 769Q797 770 800 771Q810 778 806 788Q800 801 771 810Q740 820 709 810Q511 759 301 752L304 717Z"/>
	<path id="z21290d2" d="M475 328Q469 288 457 245Q442 194 474 160Q484 147 493 160Q520 190 520 379Q520 556 528 607Q529 623 515 632Q494 648 469 656Q462 657 455 650Q452 646 459 635Q477 596 478 550L479 529Q480 484 480 447L480 422Q480 386 478 350L475 328Z"/>
	<path id="z21290d3" d="M478 550Q459 557 444 553Q381 541 333 534Q326 533 323 528Q322 521 331 513Q358 495 389 506Q425 521 479 529L478 550Z"/>
	<path id="z21290d4" d="M480 447Q464 453 452 448Q380 432 345 426Q336 425 334 420Q333 413 343 405Q370 390 413 405Q440 417 480 422L480 447Z"/>
	<path id="z21290d5" d="M478 350Q327 296 302 296Q292 295 291 286Q290 276 298 270Q317 258 343 246Q352 245 360 251L475 328L478 350Z"/>
	<path id="z21290d6" d="M663 306Q663 357 663 429L663 451Q663 502 663 552L663 573Q664 616 674 647Q681 660 678 671Q672 678 627 705Q608 718 591 706Q587 702 592 689Q616 656 616 613Q619 304 616 270Q612 252 608 232Q601 204 621 149Q627 136 633 133Q639 127 644 134Q651 138 659 155Q665 173 663 287L663 306Z"/>
	<path id="z21290d7" d="M663 552Q705 537 751 553Q775 559 800 565Q812 569 814 570Q821 579 816 586Q809 596 781 600Q753 601 727 588Q696 579 669 575Q665 575 663 573L663 552Z"/>
	<path id="z21290d8" d="M663 429Q696 420 791 435Q791 436 794 436Q806 437 808 440Q815 447 811 454Q804 464 779 469Q767 472 700 456Q685 453 666 452Q663 452 663 451L663 429Z"/>
	<path id="z21290d9" d="M663 287Q664 287 667 286Q698 277 832 291Q833 291 836 291Q849 292 850 300Q850 310 829 326Q793 347 735 324Q714 321 669 309Q665 309 663 306L663 287Z"/>
	<path id="z21290d10" d="M820 129Q774 128 419 86Q292 65 274 78Q265 88 275 211Q275 376 297 640Q298 697 304 717L301 752Q256 777 236 780Q223 781 214 774Q204 767 218 749Q249 710 236 343Q221 96 186 65Q164 47 177 29Q183 13 199 0Q214 -12 236 3Q323 72 770 62Q828 61 861 56Q886 52 899 58Q909 65 910 72Q909 87 874 109Q840 130 820 129Z"/>
	<defs>
		<clipPath id="z21290c1"><use xlink:href="#z21290d1"/></clipPath>
		<clipPath id="z21290c2"><use xlink:href="#z21290d2"/></clipPath>
		<clipPath id="z21290c3"><use xlink:href="#z21290d3"/></clipPath>
		<clipPath id="z21290c4"><use xlink:href="#z21290d4"/></clipPath>
		<clipPath id="z21290c5"><use xlink:href="#z21290d5"/></clipPath>
		<clipPath id="z21290c6"><use xlink:href="#z21290d6"/></clipPath>
		<clipPath id="z21290c7"><use xlink:href="#z21290d7"/></clipPath>
		<clipPath id="z21290c8"><use xlink:href="#z21290d8"/></clipPath>
		<clipPath id="z21290c9"><use xlink:href="#z21290d9"/></clipPath>
		<clipPath id="z21290c10"><use xlink:href="#z21290d10"/></clipPath>
	</defs>
	<path pathLength="2999" clip-path="url(#z21290c1)" d="M309 748L374 733L802 784"/>
	<path pathLength="2999" clip-path="url(#z21290c2)" d="M460 648L501 581L480 160"/>
	<path pathLength="2999" clip-path="url(#z21290c3)" d="M333 523L474 539"/>
	<path pathLength="2999" clip-path="url(#z21290c4)" d="M342 417L478 435"/>
	<path pathLength="2999" clip-path="url(#z21290c5)" d="M297 286L350 277L473 340"/>
	<path pathLength="2999" clip-path="url(#z21290c6)" d="M596 703L646 647L635 139"/>
	<path pathLength="2999" clip-path="url(#z21290c7)" d="M669 558L811 581"/>
	<path pathLength="2999" clip-path="url(#z21290c8)" d="M670 436L807 449"/>
	<path pathLength="2999" clip-path="url(#z21290c9)" d="M669 293L843 302"/>
	<path pathLength="2999" clip-path="url(#z21290c10)" d="M217 771L268 713L235 40L693 91L904 75"/>
</g>
</svg>