<!--
AnimCJK 2016-2025 Copyright FM-SH - https://github.com/parsimonhi/animCJK
Derived from:
    MakeMeAHanzi project - https://github.com/skishore/makemeahanzi
    Arphic PL KaitiM GB font
    Arphic PL KaitiM Big5 font
You can redistribute and/or modify this file under the terms of the Arphic Public License
as published by Arphic Technology Co., Ltd.
You should have received a copy of this license along with this file.
If not, see https://ftp.gnu.org/non-gnu/chinese-fonts-truetype/LICENSE.
-->
<svg id="z21309" class="acjk" viewBox="0 0 1024 1024" xmlns="http://www.w3.org/2000/svg">
<style>
<![CDATA[
@keyframes zk {
	to {
		stroke-dashoffset:0;
	}
}
svg.acjk path[clip-path] {
	--t:0.8s;
	animation:zk var(--t) linear forwards var(--d);
	stroke-dasharray:3337;
	stroke-dashoffset:3339;
	stroke-width:128;
	stroke-linecap:round;
	fill:none;
	stroke:#000;
}
svg.acjk path[id] {fill:#ccc;}
]]>
</style>
<path id="z21309d1" d="M300 203Q312 210 357 204Q558 168 781 148Q793 151 803 137Q804 124 781 112Q739 87 677 106Q475 145 400 151Q348 154 292 161C278 164 287 198 300 203Z"/>
<path id="z21309d2" d="M417 284Q407 280 382 276Q372 273 368 278Q364 284 371 298Q398 350 415 435Q418 460 433 478Q449 497 454 483Q455 476 457 464C459 454 456 445 454 435Q454 432 445 388C442 374 442 374 441 367Q434 328 433 312C431 301 427 288 417 284Z"/>
<path id="z21309d3" d="M656 410Q683 323 716 298Q732 282 718 264Q702 252 653 229Q635 220 571 248Q490 270 417 284C406 286 422 314 433 312Q440 311 450 307Q526 291 600 273Q619 269 628 276Q637 286 634 305Q622 360 608 405C602 420 650 425 656 410Z"/>
<path id="z21309d4" d="M445 388Q449 388 455 388Q525 375 577 368Q596 365 589 354Q580 342 559 339Q529 335 441 367C434 370 438 388 445 388Z"/>
<path id="z21309d5" d="M514 456Q571 446 665 438Q675 437 676 430Q676 424 656 410C642 402 624 402 608 405Q520 424 454 435C444 437 447 464 457 464Q464 465 473 463Q479 462 486 461C505 458 505 458 514 456Z"/>
<path id="z21309d6" d="M511 552Q526 519 538 499Q545 492 543 485Q539 475 514 456C506 450 483 452 486 461Q495 485 470 558C461 581 461 581 456 592Q431 635 434 649Q437 656 451 659Q499 668 523 684C548 697 548 697 560 703Q597 722 648 759Q670 772 684 771Q700 770 699 754Q698 738 671 703Q658 682 592 666C563 658 563 658 549 654Q512 644 485 640Q469 637 477 623Q487 601 495 584C506 563 506 563 511 552Z"/>
<path id="z21309d7" d="M655 528Q636 503 618 502Q608 502 607 514Q608 524 607 537C607 549 600 559 596 570Q566 628 549 654C532 674 532 674 523 684Q471 736 370 763Q367 763 364 765Q352 769 361 774Q397 789 475 760Q517 745 560 703C581 678 581 678 592 666Q602 653 611 637Q648 574 659 565C668 556 662 538 655 528Z"/>
<path id="z21309d8" d="M659 565Q714 559 811 560Q827 560 831 552Q835 543 822 532Q771 499 719 514Q689 518 655 528C623 534 623 534 607 537Q583 537 511 552C484 556 484 556 470 558Q401 567 330 578Q312 579 326 593Q338 605 352 609Q370 613 383 609Q417 599 456 592C482 587 482 587 495 584Q514 580 538 577Q563 573 596 570C638 567 638 567 659 565Z"/>
<path id="z21309d9" d="M292 161Q250 137 232 137Q219 134 210 142Q200 149 215 167Q245 203 233 586Q218 818 184 843Q163 861 175 880Q181 896 197 909Q213 924 231 909Q270 861 574 856Q793 856 864 867Q904 876 913 855C913 854 913 854 913 853Q913 837 879 814Q845 793 825 793Q779 794 421 826Q283 845 274 830Q265 821 274 683Q274 539 295 256Q296 220 300 203C303 189 305 167 292 161Z"/>
<defs>
	<clipPath id="z21309c1"><use href="#z21309d1"/></clipPath>
	<clipPath id="z21309c2"><use href="#z21309d2"/></clipPath>
	<clipPath id="z21309c3"><use href="#z21309d3"/></clipPath>
	<clipPath id="z21309c4"><use href="#z21309d4"/></clipPath>
	<clipPath id="z21309c5"><use href="#z21309d5"/></clipPath>
	<clipPath id="z21309c6"><use href="#z21309d6"/></clipPath>
	<clipPath id="z21309c7"><use href="#z21309d7"/></clipPath>
	<clipPath id="z21309c8"><use href="#z21309d8"/></clipPath>
	<clipPath id="z21309c9"><use href="#z21309d9"/></clipPath>
</defs>
<path style="--d:1s;" pathLength="3333" clip-path="url(#z21309c1)" d="M291 167L336 181L704 127L796 134"/>
<path style="--d:2s;" pathLength="3333" clip-path="url(#z21309c2)" d="M373 281L406 311L445 484"/>
<path style="--d:3s;" pathLength="3333" clip-path="url(#z21309c3)" d="M420 288L616 251L660 263L678 295L619 415"/>
<path style="--d:4s;" pathLength="3333" clip-path="url(#z21309c4)" d="M441 374L583 359"/>
<path style="--d:5s;" pathLength="3333" clip-path="url(#z21309c5)" d="M450 447L671 425"/>
<path style="--d:6s;" pathLength="3333" clip-path="url(#z21309c6)" d="M493 460L513 500L457 644L633 710L695 759"/>
<path style="--d:7s;" pathLength="3333" clip-path="url(#z21309c7)" d="M617 509L632 557L543 691L455 750L363 771"/>
<path style="--d:8s;" pathLength="3333" clip-path="url(#z21309c8)" d="M328 584L739 535L827 542"/>
<path style="--d:9s;" pathLength="3333" clip-path="url(#z21309c9)" d="M212 146L264 190L231 868L715 828L908 846"/>
</svg>