<!--
AnimCJK 2016-2017 Copyright Francois Mizessyn, http://gooo.free.fr/animCJK/
Derived from:
    MakeMeAHanzi project - https://github.com/skishore/makemeahanzi
    Arphic PL KaitiM GB - https://apps.ubuntu.com/cat/applications/precise/fonts-arphic-gkai00mp/
    Arphic PL UKai - https://apps.ubuntu.com/cat/applications/fonts-arphic-ukai/
You can redistribute and/or modify this file under the terms of the Arphic Public License
as published by Arphic Technology Co., Ltd.
You should have received a copy of this license (the directory "APL") along with this file;
if not, see http://ftp.gnu.org/non-gnu/chinese-fonts-truetype/LICENSE.
-->
<svg id="z21310" class="acjk" version="1.1" viewBox="0 0 1024 1024" xmlns="http://www.w3.org/2000/svg" xmlns:xlink="http://www.w3.org/1999/xlink">
<style>
<![CDATA[
	@keyframes z21310k {
		from {
			stroke:#c00;
			stroke-dashoffset:3000;
		}
		75% {
			stroke:#c00;
			stroke-dashoffset:0;
		}
		to {
			stroke:#000;
		}
	}
	#z21310 path[clip-path] {
		animation:z21310k 1s linear both;
		stroke-dasharray:3000;
		stroke-width:128;
		stroke-linecap:round;
		fill:none;
	}
	#z21310 path[clip-path="url(#z21310c1)"] {animation-delay:1s;}
	#z21310 path[clip-path="url(#z21310c2)"] {animation-delay:2s;}
	#z21310 path[clip-path="url(#z21310c3)"] {animation-delay:3s;}
	#z21310 path[clip-path="url(#z21310c4)"] {animation-delay:4s;}
	#z21310 path[clip-path="url(#z21310c5)"] {animation-delay:5s;}
	#z21310 path[clip-path="url(#z21310c6)"] {animation-delay:6s;}
	#z21310 path[clip-path="url(#z21310c7)"] {animation-delay:7s;}
	#z21310 path[clip-path="url(#z21310c8)"] {animation-delay:8s;}
	#z21310 path[clip-path="url(#z21310c9)"] {animation-delay:9s;}
	#z21310 path[clip-path="url(#z21310c10)"] {animation-delay:10s;}
	#z21310 path[clip-path="url(#z21310c11)"] {animation-delay:11s;}
	#z21310 path {fill:#ccc;}
]]>
</style>
<g transform="scale(1,-1) translate(0,-900)">
	<path id="z21310d1" d="M289 735Q328 716 373 721Q529 737 690 754Q765 764 776 773Q786 780 782 788Q776 801 749 810Q719 820 621 795Q452 762 293 762Q290 762 288 761L289 735Z"/>
	<path id="z21310d2" d="M505 677Q566 632 577 632Q586 633 589 644Q592 657 583 680Q571 707 498 715Q485 716 480 715Q476 711 478 701Q482 692 505 677Z"/>
	<path id="z21310d3" d="M676 524Q695 564 716 574Q731 590 719 605Q704 618 659 640Q644 647 575 622Q497 603 436 592L439 563Q451 563 466 568Q539 581 609 596Q628 600 635 593Q639 589 629 528L676 524Z"/>
	<path id="z21310d4" d="M418 460Q430 454 448 456Q524 475 689 492Q699 493 700 501Q700 508 676 524L629 528L628 528Q516 500 424 486L418 460Z"/>
	<path id="z21310d5" d="M399 392Q400 393 401 395Q411 428 418 460L424 486Q434 556 439 563L436 592Q424 602 407 612Q392 622 382 618Q372 614 377 602Q389 578 383 532Q379 448 344 351Q319 291 266 217Q262 213 260 207Q259 198 266 200Q299 206 360 300Q360 303 363 306Q373 328 384 351L399 392Z"/>
	<path id="z21310d6" d="M409 385Q405 389 399 392L384 351Q394 312 378 197Q369 166 401 141Q411 134 413 142Q417 143 420 160Q424 175 422 227Q421 318 424 352L409 385Z"/>
	<path id="z21310d7" d="M612 392Q652 399 701 400Q719 399 727 390Q733 383 729 370Q736 225 728 204Q725 197 715 199Q690 202 661 207Q637 208 655 194Q715 154 740 122Q750 112 760 120Q784 144 781 273Q774 343 791 374Q803 390 797 397Q791 407 749 434Q734 444 694 432Q676 428 654 423Q576 416 409 385L424 352Q431 352 441 355Q454 361 477 366L500 372Q533 384 581 388L612 392Z"/>
	<path id="z21310d8" d="M635 282Q666 288 699 291Q720 294 712 305Q703 318 681 324Q665 327 639 321L592 312Q558 305 527 298L488 290Q466 287 447 283Q432 280 450 266Q462 257 489 261L526 266Q557 272 592 276L635 282Z"/>
	<path id="z21310d9" d="M477 366Q477 363 479 358Q486 330 488 290L489 261Q489 186 497 171Q507 152 514 163Q524 179 525 218Q525 245 526 266L527 298Q528 356 529 357Q522 364 500 372L477 366Z"/>
	<path id="z21310d10" d="M593 159Q597 141 601 134Q605 130 610 131Q614 132 619 144Q625 160 635 282L639 321Q639 334 645 358Q648 370 638 377Q622 389 612 392L581 388Q581 387 587 374Q591 367 592 312L592 276Q592 171 593 159Z"/>
	<path id="z21310d11" d="M288 761Q261 788 220 792Q207 793 198 787Q188 780 202 762Q229 729 215 342Q197 86 161 58Q139 40 151 21Q157 5 172 -9Q184 -18 210 -6Q291 57 715 36Q802 33 843 25Q868 19 881 26Q893 32 893 39Q893 54 859 78Q825 100 805 100Q759 99 398 71Q260 55 251 69Q242 78 252 206Q252 305 280 642Q283 715 289 735L288 761Z"/>
	<defs>
		<clipPath id="z21310c1"><use xlink:href="#z21310d1"/></clipPath>
		<clipPath id="z21310c2"><use xlink:href="#z21310d2"/></clipPath>
		<clipPath id="z21310c3"><use xlink:href="#z21310d3"/></clipPath>
		<clipPath id="z21310c4"><use xlink:href="#z21310d4"/></clipPath>
		<clipPath id="z21310c5"><use xlink:href="#z21310d5"/></clipPath>
		<clipPath id="z21310c6"><use xlink:href="#z21310d6"/></clipPath>
		<clipPath id="z21310c7"><use xlink:href="#z21310d7"/></clipPath>
		<clipPath id="z21310c8"><use xlink:href="#z21310d8"/></clipPath>
		<clipPath id="z21310c9"><use xlink:href="#z21310d9"/></clipPath>
		<clipPath id="z21310c10"><use xlink:href="#z21310d10"/></clipPath>
		<clipPath id="z21310c11"><use xlink:href="#z21310d11"/></clipPath>
	</defs>
	<path pathLength="2999" clip-path="url(#z21310c1)" d="M295 756L363 742L777 787"/>
	<path pathLength="2999" clip-path="url(#z21310c2)" d="M485 707L583 643"/>
	<path pathLength="2999" clip-path="url(#z21310c3)" d="M444 570L635 619L680 583L645 527"/>
	<path pathLength="2999" clip-path="url(#z21310c4)" d="M423 464L694 504"/>
	<path pathLength="2999" clip-path="url(#z21310c5)" d="M382 609L412 566L381 401L339 299L266 208"/>
	<path pathLength="2999" clip-path="url(#z21310c6)" d="M400 383L408 145"/>
	<path pathLength="2999" clip-path="url(#z21310c7)" d="M419 380L743 409L764 388L751 181L735 158L655 200"/>
	<path pathLength="2999" clip-path="url(#z21310c8)" d="M451 274L709 302"/>
	<path pathLength="2999" clip-path="url(#z21310c9)" d="M484 361L507 334L509 167"/>
	<path pathLength="2999" clip-path="url(#z21310c10)" d="M589 384L618 351L607 137"/>
	<path pathLength="2999" clip-path="url(#z21310c11)" d="M202 780L250 737L207 33L680 66L806 65L889 38"/>
</g>
</svg>