<!--
AnimCJK 2016-2017 Copyright Francois Mizessyn, http://gooo.free.fr/animCJK/
Derived from:
    MakeMeAHanzi project - https://github.com/skishore/makemeahanzi
    Arphic PL KaitiM GB - https://apps.ubuntu.com/cat/applications/precise/fonts-arphic-gkai00mp/
    Arphic PL UKai - https://apps.ubuntu.com/cat/applications/fonts-arphic-ukai/
You can redistribute and/or modify this file under the terms of the Arphic Public License
as published by Arphic Technology Co., Ltd.
You should have received a copy of this license (the directory "APL") along with this file;
if not, see http://ftp.gnu.org/non-gnu/chinese-fonts-truetype/LICENSE.
-->
<svg id="z21320" class="acjk" version="1.1" viewBox="0 0 1024 1024" xmlns="http://www.w3.org/2000/svg" xmlns:xlink="http://www.w3.org/1999/xlink">
<style>
<![CDATA[
	@keyframes z21320k {
		from {
			stroke:#c00;
			stroke-dashoffset:3000;
		}
		75% {
			stroke:#c00;
			stroke-dashoffset:0;
		}
		to {
			stroke:#000;
		}
	}
	#z21320 path[clip-path] {
		animation:z21320k 1s linear both;
		stroke-dasharray:3000;
		stroke-width:128;
		stroke-linecap:round;
		fill:none;
	}
	#z21320 path[clip-path="url(#z21320c1)"] {animation-delay:1s;}
	#z21320 path[clip-path="url(#z21320c2)"] {animation-delay:2s;}
	#z21320 path[clip-path="url(#z21320c3)"] {animation-delay:3s;}
	#z21320 path[clip-path="url(#z21320c4)"] {animation-delay:4s;}
	#z21320 path {fill:#ccc;}
]]>
</style>
<g transform="scale(1,-1) translate(0,-900)">
	<path id="z21320d1" d="M393 651Q400 663 408 675Q436 724 462 763Q474 776 457 793Q409 829 382 824Q369 821 373 805Q391 705 276 571Q266 567 229 517Q220 501 237 506Q292 515 377 627L393 651Z"/>
	<path id="z21320d2" d="M543 623Q735 659 742 665Q752 674 747 683Q740 696 708 705Q681 711 561 677Q438 656 393 651L377 627Q416 603 480 612L543 623Z"/>
	<path id="z21320d3" d="M561 379Q726 392 925 383Q949 383 955 393Q962 406 942 423Q881 471 837 462Q732 443 562 420L503 412Q325 394 115 374Q90 373 108 351Q124 335 146 328Q171 321 190 326Q349 365 503 375L561 379Z"/>
	<path id="z21320d4" d="M504 -3Q510 -31 517 -41Q523 -48 531 -46Q546 -39 555 28Q562 104 562 181Q559 230 561 379L562 420Q562 504 575 582Q579 601 563 611Q553 618 543 623L480 612Q496 578 504 507Q503 465 503 412L503 375Q497 63 504 -3Z"/>
	<defs>
		<clipPath id="z21320c1"><use xlink:href="#z21320d1"/></clipPath>
		<clipPath id="z21320c2"><use xlink:href="#z21320d2"/></clipPath>
		<clipPath id="z21320c3"><use xlink:href="#z21320d3"/></clipPath>
		<clipPath id="z21320c4"><use xlink:href="#z21320d4"/></clipPath>
	</defs>
	<path pathLength="2999" clip-path="url(#z21320c1)" d="M379 818L420 767L388 696L305 574L232 512"/>
	<path pathLength="2999" clip-path="url(#z21320c2)" d="M383 631L743 679"/>
	<path pathLength="2999" clip-path="url(#z21320c3)" d="M109 365L180 353L849 425L952 404"/>
	<path pathLength="2999" clip-path="url(#z21320c4)" d="M489 607L534 582L523 -38"/>
</g>
</svg>