<!--
AnimCJK 2016-2019 Copyright Francois Mizessyn - https://github.com/parsimonhi/animCJK
Derived from:
    MakeMeAHanzi project - https://github.com/skishore/makemeahanzi
    Arphic PL KaitiM GB font
    Arphic PL UKai font
You can redistribute and/or modify this file under the terms of the Arphic Public License
as published by Arphic Technology Co., Ltd.
You should have received a copy of this license along with this file.
If not, see http://ftp.gnu.org/non-gnu/chinese-fonts-truetype/LICENSE.
-->
<svg id="z21333" class="acjk" version="1.1" viewBox="0 0 1024 1024" xmlns="http://www.w3.org/2000/svg" xmlns:xlink="http://www.w3.org/1999/xlink">
<style>
<![CDATA[
@keyframes zk {
	to {
		stroke-dashoffset:0;
	}
}
svg.acjk path[clip-path] {
	--t:0.8s;
	animation:zk var(--t) linear forwards var(--d);
	stroke-dasharray:3337;
	stroke-dashoffset:3339;
	stroke-width:128;
	stroke-linecap:round;
	fill:none;
	stroke:#000;
}
svg.acjk path[id] {fill:#ccc;}
]]>
</style>
<path id="z21333d1" d="M347 174Q377 202 410 238Q422 251 437 251Q447 252 453 239Q459 226 452 196Q446 163 345 127Q330 123 324 125Q320 129 320 141Q321 151 347 174Z"/>
<path id="z21333d2" d="M538 268Q584 231 611 205Q665 145 698 128Q719 115 705 97Q689 81 660 69Q633 59 620 63Q607 66 613 80Q622 108 517 265Q516 269 514 272C511 280 532 273 538 268Z"/>
<path id="z21333d3" d="M309 311Q299 305 259 300Q246 299 243 303Q236 310 247 327Q283 394 308 506Q314 540 334 561Q355 583 359 566Q360 557 361 546C363 537 361 527 359 518Q358 505 354 492Q329 383 321 345C319 333 320 315 309 311Z"/>
<path id="z21333d4" d="M645 511Q651 529 664 527Q679 526 687 510Q700 494 724 411Q742 357 780 326Q799 310 783 293Q764 275 712 247Q696 237 627 254Q617 254 538 268C522 271 522 271 514 272Q459 279 411 291Q353 303 309 311C297 313 310 349 321 345Q369 329 451 314C490 307 490 307 510 303Q652 278 676 290Q686 296 680 329Q659 449 645 478C641 488 641 501 645 511Z"/>
<path id="z21333d5" d="M532 420Q569 413 603 407Q625 403 617 391Q607 378 583 373Q564 372 535 379C496 390 496 390 476 395Q427 408 383 420Q367 424 386 437Q396 444 419 441Q447 435 476 430C513 423 513 423 532 420Z"/>
<path id="z21333d6" d="M530 525Q590 516 645 511C656 509 656 480 645 478Q624 472 531 489C494 496 494 496 476 499Q415 508 359 518C350 520 352 546 361 546Q370 547 386 545Q432 538 476 532C512 527 512 527 530 525Z"/>
<path id="z21333d7" d="M530 672Q611 666 886 665Q910 665 915 655Q922 642 902 625Q841 577 768 592Q672 608 530 631C494 636 494 636 476 638Q307 657 115 678Q90 681 108 701Q142 735 190 726Q326 690 476 677C512 674 512 674 530 672Z"/>
<path id="z21333d8" d="M481 930Q487 955 494 965Q500 972 507 970Q522 961 528 900Q534 830 530 672C530 645 530 645 530 631Q530 585 530 525C531 501 531 501 531 489Q531 459 532 427Q532 423 532 420C534 393 534 393 535 379Q538 358 542 342Q545 324 530 315Q520 308 510 303C493 293 444 295 451 314Q455 324 462 332Q475 354 476 395C476 418 476 418 476 430Q476 461 476 499C476 521 476 521 476 532Q476 581 476 638C476 664 476 664 476 677Q476 890 481 930Z"/>
<defs>
	<clipPath id="z21333c1"><use xlink:href="#z21333d1"/></clipPath>
	<clipPath id="z21333c2"><use xlink:href="#z21333d2"/></clipPath>
	<clipPath id="z21333c3"><use xlink:href="#z21333d3"/></clipPath>
	<clipPath id="z21333c4"><use xlink:href="#z21333d4"/></clipPath>
	<clipPath id="z21333c5"><use xlink:href="#z21333d5"/></clipPath>
	<clipPath id="z21333c6"><use xlink:href="#z21333d6"/></clipPath>
	<clipPath id="z21333c7"><use xlink:href="#z21333d7"/></clipPath>
	<clipPath id="z21333c8"><use xlink:href="#z21333d8"/></clipPath>
</defs>
<path style="--d:1s;" pathLength="3333" clip-path="url(#z21333c1)" d="M327 130L411 193L442 245"/>
<path style="--d:2s;" pathLength="3333" clip-path="url(#z21333c2)" d="M617 67L657 115L521 265"/>
<path style="--d:3s;" pathLength="3333" clip-path="url(#z21333c3)" d="M248 306L292 352L342 567"/>
<path style="--d:4s;" pathLength="3333" clip-path="url(#z21333c4)" d="M318 314L659 266L705 276L735 316L661 524"/>
<path style="--d:5s;" pathLength="3333" clip-path="url(#z21333c5)" d="M384 427L611 397"/>
<path style="--d:6s;" pathLength="3333" clip-path="url(#z21333c6)" d="M367 539L644 494"/>
<path style="--d:7s;" pathLength="3333" clip-path="url(#z21333c7)" d="M107 685L171 700L770 628L913 646"/>
<path style="--d:8s;" pathLength="3333" clip-path="url(#z21333c8)" d="M461 318L507 350L502 964"/>
</svg>