<!--
AnimCJK 2016-2018 Copyright Francois Mizessyn, https://github.com/parsimonhi/animCJK
Derived from:
    MakeMeAHanzi project - https://github.com/skishore/makemeahanzi
    Arphic PL KaitiM GB - https://apps.ubuntu.com/cat/applications/precise/fonts-arphic-gkai00mp/
    Arphic PL UKai - https://apps.ubuntu.com/cat/applications/fonts-arphic-ukai/
You can redistribute and/or modify this file under the terms of the Arphic Public License
as published by Arphic Technology Co., Ltd.
You should have received a copy of this license (the directory "APL") along with this file;
if not, see http://ftp.gnu.org/non-gnu/chinese-fonts-truetype/LICENSE.
-->
<svg id="z21345" class="acjk" version="1.1" viewBox="0 0 1024 1024" xmlns="http://www.w3.org/2000/svg" xmlns:xlink="http://www.w3.org/1999/xlink">
<style>
<![CDATA[
@keyframes z21345k {
	from {
		stroke:#c00;
		stroke-dashoffset:3334;
	}
	75% {
		stroke:#c00;
		stroke-dashoffset:0;
	}
	to {
		stroke:#000;
	}
}
#z21345 path[clip-path] {
	animation:z21345k 1s linear both;
	stroke-dasharray:3334;
	stroke-width:128;
	stroke-linecap:round;
	fill:none;
}
#z21345 path[clip-path="url(#z21345c1)"] {animation-delay:1s;}
#z21345 path[clip-path="url(#z21345c2)"] {animation-delay:2s;}
#z21345 path[clip-path="url(#z21345c3)"] {animation-delay:3s;}
#z21345 path[clip-path="url(#z21345c4)"] {animation-delay:4s;}
#z21345 path[clip-path="url(#z21345c5)"] {animation-delay:5s;}
#z21345 path {fill:#ccc;}
]]>
</style>
<path id="z21345d1" d="M529 405Q535 329 540 259L542 230Q545 167 559 122Q563 110 542 96Q506 77 482 73Q466 69 458 78Q451 85 459 101Q478 128 479 146Q489 267 487 410L529 405 Z"/>
<path id="z21345d2" d="M540 259Q591 277 645 260Q690 250 737 237Q758 231 761 228Q771 218 765 209Q755 196 722 191Q697 188 609 217Q579 224 544 229Q541 229 542 230L540 259 Z"/>
<path id="z21345d3" d="M516 447Q610 437 898 437Q922 437 927 427Q934 414 914 397Q847 345 779 365Q679 383 529 405L487 410Q322 429 131 450Q106 453 124 473Q140 489 162 496Q187 503 206 497Q324 467 458 453Q465 452 473 452L516 447 Z"/>
<path id="z21345d4" d="M473 452Q497 495 472 769Q471 779 469 791Q468 816 464 829Q449 868 498 933Q502 939 508 942Q520 943 525 930Q538 899 534 867Q528 567 539 481Q542 468 535 462Q525 453 516 447L473 452 Z"/>
<path id="z21345d5" d="M578 570Q627 604 688 656Q709 675 725 677Q735 677 741 665Q751 649 732 605Q716 563 644 550Q598 540 574 537Q564 533 564 547Q565 560 578 570 Z"/>
<defs>
	<clipPath id="z21345c1"><use xlink:href="#z21345d1"/></clipPath>
	<clipPath id="z21345c2"><use xlink:href="#z21345d2"/></clipPath>
	<clipPath id="z21345c3"><use xlink:href="#z21345d3"/></clipPath>
	<clipPath id="z21345c4"><use xlink:href="#z21345d4"/></clipPath>
	<clipPath id="z21345c5"><use xlink:href="#z21345d5"/></clipPath>
</defs>
<path pathLength="3333" clip-path="url(#z21345c1)" d="M462 82L518 130L503 408"/>
<path pathLength="3333" clip-path="url(#z21345c2)" d="M548 254L759 212"/>
<path pathLength="3333" clip-path="url(#z21345c3)" d="M126 461L200 470L807 398L925 416"/>
<path pathLength="3333" clip-path="url(#z21345c4)" d="M482 459L511 488L509 937"/>
<path pathLength="3333" clip-path="url(#z21345c5)" d="M571 543L685 604L734 671"/>
</svg>