<!--
AnimCJK 2016-2019 Copyright Francois Mizessyn - https://github.com/parsimonhi/animCJK
Derived from:
    MakeMeAHanzi project - https://github.com/skishore/makemeahanzi
    Arphic PL KaitiM GB font
    Arphic PL UKai font
You can redistribute and/or modify this file under the terms of the Arphic Public License
as published by Arphic Technology Co., Ltd.
You should have received a copy of this license along with this file.
If not, see http://ftp.gnu.org/non-gnu/chinese-fonts-truetype/LICENSE.
-->
<svg id="z21348" class="acjk" version="1.1" viewBox="0 0 1024 1024" xmlns="http://www.w3.org/2000/svg" xmlns:xlink="http://www.w3.org/1999/xlink">
<style>
<![CDATA[
@keyframes zk {
	to {
		stroke-dashoffset:0;
	}
}
svg.acjk path[clip-path] {
	--t:0.8s;
	animation:zk var(--t) linear forwards var(--d);
	stroke-dasharray:3337;
	stroke-dashoffset:3339;
	stroke-width:128;
	stroke-linecap:round;
	fill:none;
	stroke:#000;
}
svg.acjk path[id] {fill:#ccc;}
]]>
</style>
<path id="z21348d1" d="M528 342Q532 284 539 228C540 209 540 209 541 200Q541 190 556 119Q560 109 541 94Q507 76 485 73Q469 69 462 78Q455 85 463 99Q478 120 479 134Q488 231 488 348C488 361 528 355 528 342Z"/>
<path id="z21348d2" d="M539 228Q576 237 647 222Q683 215 721 205Q745 199 748 195Q757 188 752 179Q745 169 716 162Q686 158 658 171Q633 180 603 188Q575 195 541 200C532 202 530 226 539 228Z"/>
<path id="z21348d3" d="M314 364Q301 351 275 340Q265 336 251 339Q244 345 249 358Q267 421 268 444Q268 678 250 751Q222 817 268 878Q280 893 291 879Q303 863 305 844C308 822 308 822 309 811Q310 789 312 757Q322 432 325 410Q326 403 326 398C326 386 324 371 314 364Z"/>
<path id="z21348d4" d="M668 827Q702 870 726 910Q736 929 748 929Q766 928 783 891Q802 848 799 797Q789 670 783 435Q782 401 800 377Q810 362 801 351Q780 329 723 302Q704 292 686 302Q619 326 528 342C501 346 501 346 488 348Q484 348 479 349Q368 362 314 364C302 364 314 398 326 398Q389 392 634 353Q683 346 706 365Q739 395 720 794Q714 813 697 808C686 806 661 818 668 827Z"/>
<path id="z21348d5" d="M559 587Q577 559 617 487Q638 448 639 448Q639 447 639 446Q632 425 609 403Q596 387 584 388Q571 389 572 404Q576 447 518 556C503 582 503 582 495 595Q444 667 358 736Q352 740 348 744Q342 753 352 754Q385 757 473 689Q474 686 478 684Q503 659 527 630C548 601 548 601 559 587Z"/>
<path id="z21348d6" d="M527 630Q641 751 643 753Q650 754 657 746Q667 736 659 698Q649 653 559 587C532 566 532 566 518 556Q443 501 400 473Q393 469 390 479Q389 489 398 499Q444 542 495 595C516 618 516 618 527 630Z"/>
<path id="z21348d7" d="M305 844Q320 845 338 845Q525 832 668 827C680 827 704 817 697 808Q687 793 667 788Q645 781 602 786Q445 801 309 811C298 811 294 844 305 844Z"/>
<defs>
	<clipPath id="z21348c1"><use xlink:href="#z21348d1"/></clipPath>
	<clipPath id="z21348c2"><use xlink:href="#z21348d2"/></clipPath>
	<clipPath id="z21348c3"><use xlink:href="#z21348d3"/></clipPath>
	<clipPath id="z21348c4"><use xlink:href="#z21348d4"/></clipPath>
	<clipPath id="z21348c5"><use xlink:href="#z21348d5"/></clipPath>
	<clipPath id="z21348c6"><use xlink:href="#z21348d6"/></clipPath>
	<clipPath id="z21348c7"><use xlink:href="#z21348d7"/></clipPath>
</defs>
<path style="--d:1s;" pathLength="3333" clip-path="url(#z21348c1)" d="M464 82L517 124L500 345"/>
<path style="--d:2s;" pathLength="3333" clip-path="url(#z21348c2)" d="M543 221L750 184"/>
<path style="--d:3s;" pathLength="3333" clip-path="url(#z21348c3)" d="M256 345L295 409L280 881"/>
<path style="--d:4s;" pathLength="3333" clip-path="url(#z21348c4)" d="M323 370L681 327L750 358L758 816L737 875L676 837"/>
<path style="--d:5s;" pathLength="3333" clip-path="url(#z21348c5)" d="M581 396L602 446L517 604L437 692L352 746"/>
<path style="--d:6s;" pathLength="3333" clip-path="url(#z21348c6)" d="M397 481L607 669L655 745"/>
<path style="--d:7s;" pathLength="3333" clip-path="url(#z21348c7)" d="M313 838L687 809"/>
</svg>