<!--
AnimCJK 2016-2019 Copyright Francois Mizessyn - https://github.com/parsimonhi/animCJK
Derived from:
    MakeMeAHanzi project - https://github.com/skishore/makemeahanzi
    Arphic PL KaitiM GB font
    Arphic PL UKai font
You can redistribute and/or modify this file under the terms of the Arphic Public License
as published by Arphic Technology Co., Ltd.
You should have received a copy of this license along with this file.
If not, see http://ftp.gnu.org/non-gnu/chinese-fonts-truetype/LICENSE.
-->
<svg id="z21350" class="acjk" version="1.1" viewBox="0 0 1024 1024" xmlns="http://www.w3.org/2000/svg" xmlns:xlink="http://www.w3.org/1999/xlink">
<style>
<![CDATA[
@keyframes zk {
	to {
		stroke-dashoffset:0;
	}
}
svg.acjk path[clip-path] {
	--t:0.8s;
	animation:zk var(--t) linear forwards var(--d);
	stroke-dasharray:3337;
	stroke-dashoffset:3339;
	stroke-width:128;
	stroke-linecap:round;
	fill:none;
	stroke:#000;
}
svg.acjk path[id] {fill:#ccc;}
]]>
</style>
<path id="z21350d1" d="M403 278Q527 250 530 247Q539 240 535 232Q528 220 500 213Q467 204 406 230C371 239 371 239 353 243Q349 243 347 244Q293 254 230 260Q194 266 219 282Q258 306 317 293Q333 289 355 287C387 281 387 281 403 278Z"/>
<path id="z21350d2" d="M396 389Q400 331 403 278C405 246 405 246 406 230Q406 205 422 100Q426 90 406 75Q372 57 348 53Q332 50 324 59Q317 66 325 81Q346 108 346 127Q350 182 353 243C354 272 354 272 355 287Q355 339 355 398C355 412 396 403 396 389Z"/>
<path id="z21350d3" d="M370 435Q457 416 567 402Q585 401 585 392Q586 379 568 369Q540 356 517 362Q448 377 396 389C369 395 369 395 355 398Q217 425 110 436Q97 437 93 445Q90 457 105 468Q147 496 189 484Q271 459 332 444C357 438 357 438 370 435Z"/>
<path id="z21350d4" d="M398 585Q407 582 512 565Q522 566 530 553Q531 543 509 533Q473 512 403 540Q402 540 400 541C365 550 365 550 347 555Q317 561 207 581Q180 585 201 601Q235 622 258 617Q297 607 347 596C381 589 381 589 398 585Z"/>
<path id="z21350d5" d="M391 708Q394 641 398 585C399 556 399 556 400 541Q401 526 402 512Q406 466 402 460Q386 444 370 435C359 428 327 432 332 444Q344 463 347 555C347 582 347 582 347 596Q347 645 347 718C347 733 391 723 391 708Z"/>
<path id="z21350d6" d="M347 718Q283 731 217 746Q195 752 158 748Q145 749 142 759Q138 772 148 782Q170 800 202 822Q212 826 226 818Q272 790 486 717Q517 707 540 693Q553 686 555 676Q549 670 537 672Q467 690 391 708C362 715 362 715 347 718Z"/>
<path id="z21350d7" d="M708 336Q708 206 725 142Q738 115 713 97Q695 85 665 67Q640 51 619 67Q613 71 621 88Q657 139 657 198Q672 673 637 808Q627 850 654 914Q661 932 669 935Q676 942 684 933Q691 929 702 907Q712 880 710 848Q709 797 708 361C708 344 708 344 708 336Z"/>
<path id="z21350d8" d="M708 361Q709 362 715 366Q796 409 895 474Q916 489 931 489Q940 489 944 477Q953 461 930 423Q903 369 709 336C708 336 708 336 708 336C700 334 701 356 708 361Z"/>
<defs>
	<clipPath id="z21350c1"><use xlink:href="#z21350d1"/></clipPath>
	<clipPath id="z21350c2"><use xlink:href="#z21350d2"/></clipPath>
	<clipPath id="z21350c3"><use xlink:href="#z21350d3"/></clipPath>
	<clipPath id="z21350c4"><use xlink:href="#z21350d4"/></clipPath>
	<clipPath id="z21350c5"><use xlink:href="#z21350d5"/></clipPath>
	<clipPath id="z21350c6"><use xlink:href="#z21350d6"/></clipPath>
	<clipPath id="z21350c7"><use xlink:href="#z21350d7"/></clipPath>
	<clipPath id="z21350c8"><use xlink:href="#z21350d8"/></clipPath>
</defs>
<path style="--d:1s;" pathLength="3333" clip-path="url(#z21350c1)" d="M216 268L294 275L532 234"/>
<path style="--d:2s;" pathLength="3333" clip-path="url(#z21350c2)" d="M327 61L383 106L365 393"/>
<path style="--d:3s;" pathLength="3333" clip-path="url(#z21350c3)" d="M99 447L172 458L581 385"/>
<path style="--d:4s;" pathLength="3333" clip-path="url(#z21350c4)" d="M198 588L525 549"/>
<path style="--d:5s;" pathLength="3333" clip-path="url(#z21350c5)" d="M341 449L373 478L362 714"/>
<path style="--d:6s;" pathLength="3333" clip-path="url(#z21350c6)" d="M146 759L215 784L545 677"/>
<path style="--d:7s;" pathLength="3333" clip-path="url(#z21350c7)" d="M623 73L689 131L678 933"/>
<path style="--d:8s;" pathLength="3333" clip-path="url(#z21350c8)" d="M715 344L876 419L941 479"/>
</svg>