<!--
AnimCJK 2016-2017 Copyright Francois Mizessyn, https://github.com/parsimonhi/animCJK
Derived from:
    MakeMeAHanzi project - https://github.com/skishore/makemeahanzi
    Arphic PL KaitiM GB - https://apps.ubuntu.com/cat/applications/precise/fonts-arphic-gkai00mp/
    Arphic PL UKai - https://apps.ubuntu.com/cat/applications/fonts-arphic-ukai/
You can redistribute and/or modify this file under the terms of the Arphic Public License
as published by Arphic Technology Co., Ltd.
You should have received a copy of this license (the directory "APL") along with this file;
if not, see http://ftp.gnu.org/non-gnu/chinese-fonts-truetype/LICENSE.
-->
<svg id="z21367" class="acjk" version="1.1" viewBox="0 0 1024 1024" xmlns="http://www.w3.org/2000/svg" xmlns:xlink="http://www.w3.org/1999/xlink">
<style>
<![CDATA[
@keyframes z21367k {
	from {
		stroke:#c00;
		stroke-dashoffset:3334;
	}
	75% {
		stroke:#c00;
		stroke-dashoffset:0;
	}
	to {
		stroke:#000;
	}
}
#z21367 path[clip-path] {
	animation:z21367k 1s linear both;
	stroke-dasharray:3334;
	stroke-width:128;
	stroke-linecap:round;
	fill:none;
}
#z21367 path[clip-path="url(#z21367c1)"] {animation-delay:1s;}
#z21367 path[clip-path="url(#z21367c2)"] {animation-delay:2s;}
#z21367 path[clip-path="url(#z21367c3)"] {animation-delay:3s;}
#z21367 path[clip-path="url(#z21367c4)"] {animation-delay:4s;}
#z21367 path[clip-path="url(#z21367c5)"] {animation-delay:5s;}
#z21367 path[clip-path="url(#z21367c6)"] {animation-delay:6s;}
#z21367 path[clip-path="url(#z21367c7)"] {animation-delay:7s;}
#z21367 path[clip-path="url(#z21367c8)"] {animation-delay:8s;}
#z21367 path {fill:#ccc;}
]]>
</style>
<path id="z21367d1" d="M323 212Q362 263 390 275Q403 278 412 267Q418 257 416 241Q407 204 356 186Q326 173 313 177Q309 178 310 189Q310 199 323 212 Z"/>
<path id="z21367d2" d="M632 151Q619 172 567 237Q557 255 574 251Q631 224 673 197Q692 181 717 172Q739 162 729 144Q716 126 690 111Q666 96 653 99Q640 100 644 114Q647 133 632 151 Z"/>
<path id="z21367d3" d="M497 358Q558 345 626 334Q678 322 686 315Q695 308 691 300Q684 288 656 280Q628 273 598 284Q553 297 506 312L449 324Q386 334 318 341Q282 345 307 362Q340 383 417 372Q426 371 437 369L497 358 Z"/>
<path id="z21367d4" d="M454 478Q469 471 566 463L596 460Q666 453 759 450Q825 450 832 440Q838 428 820 414Q765 377 730 387Q642 408 492 435Q482 436 471 439L409 449Q309 462 200 481Q179 484 195 501Q228 529 273 516Q327 498 389 489L454 478 Z"/>
<path id="z21367d5" d="M389 489Q311 639 163 727Q145 740 127 753Q112 763 127 767Q143 767 183 752Q262 716 322 660Q347 638 369 615L398 577Q413 553 453 480Q453 479 454 478L471 439Q486 399 497 358L506 312Q506 267 533 177Q539 144 555 116Q565 95 547 85Q493 43 462 54Q446 58 454 76Q485 139 451 317Q450 320 449 324L437 369Q422 418 409 449L389 489 Z"/>
<path id="z21367d6" d="M566 463Q605 521 752 676Q774 700 814 702Q886 706 961 694Q980 693 981 687Q984 680 969 674Q801 611 769 591Q720 561 598 462Q597 461 596 460L566 463 Z"/>
<path id="z21367d7" d="M439 623Q467 610 546 589Q553 588 558 590Q565 594 565 607Q564 637 551 692Q545 717 521 712Q490 706 466 701Q451 698 455 707Q456 716 481 734Q512 762 531 793Q535 802 545 800Q551 799 565 781Q587 756 595 724Q619 615 632 605Q642 596 638 585Q631 573 596 550Q581 541 413 587L439 623 Z"/>
<path id="z21367d8" d="M369 615Q375 840 383 856Q392 878 412 893Q466 933 650 929Q735 926 768 909Q796 894 786 865Q770 822 762 750Q761 735 753 730Q746 726 742 744Q723 832 710 847Q677 883 553 880Q484 877 454 866Q429 853 423 835Q416 810 416 746Q420 676 435 643Q439 633 439 623L413 587Q406 581 398 577L369 615 Z"/>
<defs>
	<clipPath id="z21367c1"><use xlink:href="#z21367d1"/></clipPath>
	<clipPath id="z21367c2"><use xlink:href="#z21367d2"/></clipPath>
	<clipPath id="z21367c3"><use xlink:href="#z21367d3"/></clipPath>
	<clipPath id="z21367c4"><use xlink:href="#z21367d4"/></clipPath>
	<clipPath id="z21367c5"><use xlink:href="#z21367d5"/></clipPath>
	<clipPath id="z21367c6"><use xlink:href="#z21367d6"/></clipPath>
	<clipPath id="z21367c7"><use xlink:href="#z21367d7"/></clipPath>
	<clipPath id="z21367c8"><use xlink:href="#z21367d8"/></clipPath>
</defs>
<path pathLength="3333" clip-path="url(#z21367c1)" d="M318 186L403 270"/>
<path pathLength="3333" clip-path="url(#z21367c2)" d="M651 105L677 161L570 246"/>
<path pathLength="3333" clip-path="url(#z21367c3)" d="M306 351L688 305"/>
<path pathLength="3333" clip-path="url(#z21367c4)" d="M195 490L726 419L828 430"/>
<path pathLength="3333" clip-path="url(#z21367c5)" d="M458 62L512 116L431 465L304 645L125 760"/>
<path pathLength="3333" clip-path="url(#z21367c6)" d="M576 466L784 647L972 684"/>
<path pathLength="3333" clip-path="url(#z21367c7)" d="M423 590L570 569L601 595L547 749L528 756L462 705"/>
<path pathLength="3333" clip-path="url(#z21367c8)" d="M400 584L398 820L437 882L620 904L732 881L751 860L750 735"/>
</svg>