<!--
AnimCJK 2016-2017 Copyright Francois Mizessyn, http://gooo.free.fr/animCJK/
Derived from:
    MakeMeAHanzi project - https://github.com/skishore/makemeahanzi
    Arphic PL KaitiM GB - https://apps.ubuntu.com/cat/applications/precise/fonts-arphic-gkai00mp/
    Arphic PL UKai - https://apps.ubuntu.com/cat/applications/fonts-arphic-ukai/
You can redistribute and/or modify this file under the terms of the Arphic Public License
as published by Arphic Technology Co., Ltd.
You should have received a copy of this license (the directory "APL") along with this file;
if not, see http://ftp.gnu.org/non-gnu/chinese-fonts-truetype/LICENSE.
-->
<svg id="z21375" class="acjk" version="1.1" viewBox="0 0 1024 1024" xmlns="http://www.w3.org/2000/svg" xmlns:xlink="http://www.w3.org/1999/xlink">
<style>
<![CDATA[
	@keyframes z21375k {
		from {
			stroke:#c00;
			stroke-dashoffset:3000;
		}
		75% {
			stroke:#c00;
			stroke-dashoffset:0;
		}
		to {
			stroke:#000;
		}
	}
	#z21375 path[clip-path] {
		animation:z21375k 1s linear both;
		stroke-dasharray:3000;
		stroke-width:128;
		stroke-linecap:round;
		fill:none;
	}
	#z21375 path[clip-path="url(#z21375c1)"] {animation-delay:1s;}
	#z21375 path[clip-path="url(#z21375c2)"] {animation-delay:2s;}
	#z21375 path[clip-path="url(#z21375c3)"] {animation-delay:3s;}
	#z21375 path[clip-path="url(#z21375c4)"] {animation-delay:4s;}
	#z21375 path[clip-path="url(#z21375c5)"] {animation-delay:5s;}
	#z21375 path[clip-path="url(#z21375c6)"] {animation-delay:6s;}
	#z21375 path[clip-path="url(#z21375c7)"] {animation-delay:7s;}
	#z21375 path[clip-path="url(#z21375c8)"] {animation-delay:8s;}
	#z21375 path[clip-path="url(#z21375c9)"] {animation-delay:9s;}
	#z21375 path[clip-path="url(#z21375c10)"] {animation-delay:10s;}
	#z21375 path {fill:#ccc;}
]]>
</style>
<g transform="scale(1,-1) translate(0,-900)">
	<path id="z21375d1" d="M216 636Q237 651 350 736Q368 752 391 763Q412 773 401 790Q388 806 362 820Q338 833 326 830Q313 829 318 815Q324 788 263 717Q238 689 209 655L216 636Z"/>
	<path id="z21375d2" d="M305 411Q280 399 225 369Q218 365 215 368Q211 371 211 383Q211 608 216 636L209 655Q209 656 208 657Q198 667 158 677Q143 680 138 675Q132 669 142 652Q185 600 168 426Q159 360 122 314Q112 304 118 284Q125 259 139 247Q149 240 162 252Q196 298 304 390L305 411Z"/>
	<path id="z21375d3" d="M304 390Q283 270 283 266Q243 154 151 61Q138 49 135 43Q134 36 144 37Q180 37 249 112Q322 194 343 334Q356 419 359 545Q362 563 363 573Q369 592 349 601Q304 623 291 620Q272 617 287 597Q312 557 305 411L304 390Z"/>
	<path id="z21375d4" d="M551 447Q552 444 556 440Q575 410 596 435Q611 453 617 499Q630 626 651 657Q663 673 650 688Q634 701 605 718Q590 722 576 717Q518 692 450 674L462 650Q462 651 464 651Q560 687 578 678Q587 672 584 642Q568 492 563 477L551 447Z"/>
	<path id="z21375d5" d="M452 539Q497 552 531 559Q550 563 542 574Q532 584 510 586Q470 586 453 569L452 539Z"/>
	<path id="z21375d6" d="M448 425Q452 431 551 447L563 477Q533 483 449 450L448 425Z"/>
	<path id="z21375d7" d="M545 343Q544 343 544 342Q504 314 459 284Q444 271 443 291Q446 357 448 425L449 450Q450 493 452 539L453 569Q453 632 462 650L450 674Q431 687 411 692Q386 699 376 687Q369 677 381 666Q423 629 405 324Q402 314 402 302Q398 263 380 242Q370 226 379 208Q391 190 407 184Q416 177 427 193Q437 211 555 327L545 343Z"/>
	<path id="z21375d8" d="M555 327Q585 273 597 270Q606 269 613 277Q620 287 621 315Q621 331 602 348Q557 382 540 383Q536 382 533 370Q533 361 545 343L555 327Z"/>
	<path id="z21375d9" d="M745 583Q749 584 754 586Q817 613 863 625Q873 628 876 625Q889 609 884 563Q880 436 852 380Q842 353 819 355Q788 365 761 377Q739 384 755 363Q804 321 830 288Q852 269 869 289Q897 314 914 358Q933 407 934 554Q934 605 949 632Q959 645 952 653Q943 662 896 676Q878 682 863 669Q839 648 732 617L745 583Z"/>
	<path id="z21375d10" d="M683 4Q687 -20 694 -29Q700 -36 707 -34Q720 -25 727 31Q727 40 733 298Q733 523 745 583L732 617Q704 636 691 638Q679 642 664 634Q655 627 662 617Q684 565 686 555Q686 330 681 185Q678 49 683 4Z"/>
	<defs>
		<clipPath id="z21375c1"><use xlink:href="#z21375d1"/></clipPath>
		<clipPath id="z21375c2"><use xlink:href="#z21375d2"/></clipPath>
		<clipPath id="z21375c3"><use xlink:href="#z21375d3"/></clipPath>
		<clipPath id="z21375c4"><use xlink:href="#z21375d4"/></clipPath>
		<clipPath id="z21375c5"><use xlink:href="#z21375d5"/></clipPath>
		<clipPath id="z21375c6"><use xlink:href="#z21375d6"/></clipPath>
		<clipPath id="z21375c7"><use xlink:href="#z21375d7"/></clipPath>
		<clipPath id="z21375c8"><use xlink:href="#z21375d8"/></clipPath>
		<clipPath id="z21375c9"><use xlink:href="#z21375d9"/></clipPath>
		<clipPath id="z21375c10"><use xlink:href="#z21375d10"/></clipPath>
	</defs>
	<path pathLength="2999" clip-path="url(#z21375c1)" d="M325 821L354 775L214 647"/>
	<path pathLength="2999" clip-path="url(#z21375c2)" d="M143 670L188 626L163 302L300 402"/>
	<path pathLength="2999" clip-path="url(#z21375c3)" d="M287 611L332 573L306 267L247 145L140 45"/>
	<path pathLength="2999" clip-path="url(#z21375c4)" d="M459 669L571 698L618 672L565 432"/>
	<path pathLength="2999" clip-path="url(#z21375c5)" d="M456 548L536 572"/>
	<path pathLength="2999" clip-path="url(#z21375c6)" d="M453 435L555 472"/>
	<path pathLength="2999" clip-path="url(#z21375c7)" d="M381 682L429 641L413 264L438 231L549 333"/>
	<path pathLength="2999" clip-path="url(#z21375c8)" d="M542 377L607 278"/>
	<path pathLength="2999" clip-path="url(#z21375c9)" d="M747 590L872 651L918 630L875 352L835 318L755 372"/>
	<path pathLength="2999" clip-path="url(#z21375c10)" d="M667 628L714 562L702 -29"/>
</g>
</svg>