<!--
AnimCJK 2016-2025 Copyright FM-SH - https://github.com/parsimonhi/animCJK
Derived from:
    MakeMeAHanzi project - https://github.com/skishore/makemeahanzi
    Arphic PL KaitiM GB font
    Arphic PL UKai font
You can redistribute and/or modify this file under the terms of the Arphic Public License
as published by Arphic Technology Co., Ltd.
You should have received a copy of this license along with this file.
If not, see https://ftp.gnu.org/non-gnu/chinese-fonts-truetype/LICENSE.
-->
<svg id="z21379" class="acjk" viewBox="0 0 1024 1024" xmlns="http://www.w3.org/2000/svg">
<style>
<![CDATA[
@keyframes zk {
	to {
		stroke-dashoffset:0;
	}
}
svg.acjk path[clip-path] {
	--t:0.8s;
	animation:zk var(--t) linear forwards var(--d);
	stroke-dasharray:3337;
	stroke-dashoffset:3339;
	stroke-width:128;
	stroke-linecap:round;
	fill:none;
	stroke:#000;
}
svg.acjk path[id] {fill:#ccc;}
]]>
</style>
<path id="z21379d1" d="M470 156C487 129 506 108 523 91C530 82 531 72 521 62C494 36 471 25 456 24C444 22 440 28 441 42C428 157 342 232 278 296C255 318 310 301 331 290C377 263 420 228 453 181C464 164 464 164 470 156Z"/>
<path id="z21379d2" d="M519 337C574 286 608 250 662 218C695 198 695 198 711 188C718 183 720 177 718 171C713 161 697 138 660 120C637 109 613 125 589 132C542 143 496 151 470 156C460 158 443 178 453 181C457 183 464 184 474 185C491 185 527 180 583 175C598 173 602 178 593 193C570 228 533 275 476 345C467 356 507 346 519 337Z"/>
<path id="z21379d3" d="M329 416C334 416 340 416 347 414C447 380 578 358 739 348C765 346 829 346 785 315C753 292 725 287 703 292C657 304 596 322 519 337C490 342 490 342 476 345C420 355 310 379 310 379C296 382 315 416 329 416Z"/>
<path id="z21379d4" d="M310 379C295 367 265 357 249 359C234 360 228 374 233 383C237 391 243 402 245 416C268 595 219 739 100 849C47 897 39 925 99 888C242 799 295 673 306 535C310 478 318 439 329 416C334 403 321 387 310 379Z"/>
<defs>
	<clipPath id="z21379c1"><use href="#z21379d1"/></clipPath>
	<clipPath id="z21379c2"><use href="#z21379d2"/></clipPath>
	<clipPath id="z21379c3"><use href="#z21379d3"/></clipPath>
	<clipPath id="z21379c4"><use href="#z21379d4"/></clipPath>
</defs>
<path style="--d:1s;" pathLength="3333" clip-path="url(#z21379c1)" d="M449 29L481 81L388 217L282 302"/>
<path style="--d:2s;" pathLength="3333" clip-path="url(#z21379c2)" d="M459 176L620 149L665 179L484 343"/>
<path style="--d:3s;" pathLength="3333" clip-path="url(#z21379c3)" d="M312 388L715 320L792 331"/>
<path style="--d:4s;" pathLength="3333" clip-path="url(#z21379c4)" d="M238 367L288 418L252 663L184 789L67 898"/>
</svg>