<!--
AnimCJK 2016-2019 Copyright Francois Mizessyn - https://github.com/parsimonhi/animCJK
Derived from:
    MakeMeAHanzi project - https://github.com/skishore/makemeahanzi
    Arphic PL KaitiM GB font
    Arphic PL UKai font
You can redistribute and/or modify this file under the terms of the Arphic Public License
as published by Arphic Technology Co., Ltd.
You should have received a copy of this license along with this file.
If not, see http://ftp.gnu.org/non-gnu/chinese-fonts-truetype/LICENSE.
-->
<svg id="z21380" class="acjk" version="1.1" viewBox="0 0 1024 1024" xmlns="http://www.w3.org/2000/svg" xmlns:xlink="http://www.w3.org/1999/xlink">
<style>
<![CDATA[
@keyframes zk {
	to {
		stroke-dashoffset:0;
	}
}
svg.acjk path[clip-path] {
	--t:0.8s;
	animation:zk var(--t) linear forwards var(--d);
	stroke-dasharray:3337;
	stroke-dashoffset:3339;
	stroke-width:128;
	stroke-linecap:round;
	fill:none;
	stroke:#000;
}
svg.acjk path[id] {fill:#ccc;}
]]>
</style>
<path id="z21380d1" d="M350 223Q386 235 472 221Q746 172 765 161Q765 160 766 160Q776 151 771 142Q764 129 731 119Q698 112 596 144Q445 177 340 187Q336 187 336 188C324 190 338 221 350 223Z"/>
<path id="z21380d2" d="M336 188Q321 175 298 165Q277 152 263 158Q250 165 257 180Q278 210 274 272Q256 471 229 574Q220 601 210 628Q168 742 80 871Q74 878 72 885Q69 897 81 894Q123 888 212 742Q222 721 235 699Q307 543 330 341Q339 233 350 223C356 212 346 196 336 188Z"/>
<path id="z21380d3" d="M478 426Q572 398 639 386Q655 383 658 388Q665 398 662 426Q658 502 642 538Q623 574 591 568Q566 564 544 558Q517 551 538 575Q581 615 602 646Q617 665 633 651Q682 621 713 506Q728 412 748 389Q760 376 754 366Q744 354 693 333Q674 324 654 338Q606 365 468 389C455 392 465 429 478 426Z"/>
<path id="z21380d4" d="M940 790Q919 723 912 609Q911 591 902 586Q893 580 889 602Q873 744 853 771Q810 817 631 812Q534 805 493 788Q457 767 450 743Q437 703 440 603Q450 491 473 441Q476 434 478 426C482 414 477 398 468 389Q414 346 397 349Q381 355 388 374Q407 416 400 476Q382 728 410 779Q440 837 556 858Q635 871 761 869Q873 865 919 842Q953 826 940 790Z"/>
<defs>
	<clipPath id="z21380c1"><use xlink:href="#z21380d1"/></clipPath>
	<clipPath id="z21380c2"><use xlink:href="#z21380d2"/></clipPath>
	<clipPath id="z21380c3"><use xlink:href="#z21380d3"/></clipPath>
	<clipPath id="z21380c4"><use xlink:href="#z21380d4"/></clipPath>
</defs>
<path style="--d:1s;" pathLength="3333" clip-path="url(#z21380c1)" d="M345 194L437 200L767 143"/>
<path style="--d:2s;" pathLength="3333" clip-path="url(#z21380c2)" d="M260 165L310 223L264 542L187 738L81 888"/>
<path style="--d:3s;" pathLength="3333" clip-path="url(#z21380c3)" d="M476 392L500 402L664 358L709 386L677 527L640 594L609 611L535 564"/>
<path style="--d:4s;" pathLength="3333" clip-path="url(#z21380c4)" d="M394 353L440 432L416 607L425 748L487 813L716 840L876 812L901 778L900 593"/>
</svg>