<!--
AnimCJK 2016-2018 Copyright Francois Mizessyn - https://github.com/parsimonhi/animCJK
Derived from:
    MakeMeAHanzi project - https://github.com/skishore/makemeahanzi
    Arphic PL KaitiM GB - https://apps.ubuntu.com/cat/applications/precise/fonts-arphic-gkai00mp/
    Arphic PL UKai - https://apps.ubuntu.com/cat/applications/fonts-arphic-ukai/
You can redistribute and/or modify this file under the terms of the Arphic Public License
as published by Arphic Technology Co., Ltd.
You should have received a copy of this license (the directory "APL") along with this file;
if not, see http://ftp.gnu.org/non-gnu/chinese-fonts-truetype/LICENSE.
-->
<svg id="z21411" class="acjk" version="1.1" viewBox="0 0 1024 1024" xmlns="http://www.w3.org/2000/svg" xmlns:xlink="http://www.w3.org/1999/xlink">
<style>
<![CDATA[
@keyframes z21411k {
	from {
		stroke:#ccc;
		stroke-dashoffset:3334;
	}
	1% {
		stroke:#c00;
		stroke-dashoffset:3334;
	}
	75% {
		stroke:#c00;
		stroke-dashoffset:0;
	}
	to {
		stroke:#000;
	}
}
#z21411 path[clip-path] {
	animation:z21411k 1s linear both;
	stroke-dasharray:3334;
	stroke-width:128;
	stroke-linecap:round;
	fill:none;
}
#z21411 path[clip-path="url(#z21411c1)"] {animation-delay:1s;}
#z21411 path[clip-path="url(#z21411c2)"] {animation-delay:2s;}
#z21411 path[clip-path="url(#z21411c3)"] {animation-delay:3s;}
#z21411 path[clip-path="url(#z21411c4)"] {animation-delay:4s;}
#z21411 path[clip-path="url(#z21411c5)"] {animation-delay:5s;}
#z21411 path[clip-path="url(#z21411c6)"] {animation-delay:6s;}
#z21411 path[clip-path="url(#z21411c7)"] {animation-delay:7s;}
#z21411 path[clip-path="url(#z21411c8)"] {animation-delay:8s;}
#z21411 path[clip-path="url(#z21411c9)"] {animation-delay:9s;}
#z21411 path[clip-path="url(#z21411c10)"] {animation-delay:10s;}
#z21411 path[clip-path="url(#z21411c11)"] {animation-delay:11s;}
#z21411 path {fill:#ccc;}
]]>
</style>
<path id="z21411d1" d="M539 164Q606 152 677 142Q740 132 749 123Q758 116 754 108Q748 95 720 87Q693 80 594 107Q447 138 327 145L333 176Q369 188 444 177Q469 173 499 170L539 164 Z"/>
<path id="z21411d2" d="M327 145Q312 129 286 116Q267 103 253 107Q240 114 246 129Q264 156 259 210Q229 423 188 539Q182 551 177 565Q135 661 37 797Q31 803 29 809Q25 821 37 819Q73 812 159 696Q178 668 197 636Q273 486 311 269Q323 185 333 176L327 145 Z"/>
<path id="z21411d3" d="M493 272Q444 278 364 289Q337 292 358 309Q389 330 428 324Q450 318 477 315L536 304Q557 300 580 296L609 292Q658 285 698 280Q708 281 717 269Q718 259 696 248Q668 227 581 253Q566 254 552 260L493 272 Z"/>
<path id="z21411d4" d="M477 315Q435 397 338 447Q325 453 336 457Q382 461 443 422Q506 380 536 304L552 260Q558 236 574 214Q584 199 571 189Q553 171 539 164L499 170Q509 204 493 272L477 315 Z"/>
<path id="z21411d5" d="M580 296Q581 297 586 302Q706 446 745 458Q799 467 891 448Q907 445 909 441Q910 435 897 430Q735 384 644 319Q641 316 609 292L580 296 Z"/>
<path id="z21411d6" d="M671 191Q731 243 755 242Q768 241 770 223Q770 211 758 194Q746 181 723 176Q686 166 671 166Q662 166 663 177Q663 184 671 191 Z"/>
<path id="z21411d7" d="M377 503Q350 485 321 477Q314 476 310 480Q303 486 311 496Q344 547 355 679Q356 734 391 763Q392 763 395 765Q411 769 413 741L411 711Q392 597 389 535L377 503 Z"/>
<path id="z21411d8" d="M638 714Q657 739 673 747Q683 754 698 733Q711 708 735 576Q744 545 766 520Q779 508 767 494Q751 478 709 453Q691 446 623 461Q581 462 377 503L389 535Q428 523 483 516L536 508Q654 486 670 502Q683 517 682 532Q666 658 654 681L638 714 Z"/>
<path id="z21411d9" d="M557 623Q591 617 622 615Q644 611 637 599Q627 586 603 580Q585 576 558 583L502 597Q468 604 435 612Q419 615 438 630Q441 633 503 629L557 623 Z"/>
<path id="z21411d10" d="M554 723Q591 717 638 714L654 681Q624 668 555 686L503 696Q454 705 411 711L413 741Q422 742 432 740Q459 733 503 728L554 723 Z"/>
<path id="z21411d11" d="M508 946Q512 968 519 977Q523 984 531 982Q543 973 550 920Q556 868 555 816Q554 789 554 723L555 686Q556 658 557 623L558 583Q564 553 566 545Q567 529 556 520Q546 513 536 508L483 516Q487 525 492 531Q501 549 502 597L503 629Q503 660 503 696L503 728Q504 770 504 819Q504 913 508 946 Z"/>
<defs>
	<clipPath id="z21411c1"><use xlink:href="#z21411d1"/></clipPath>
	<clipPath id="z21411c2"><use xlink:href="#z21411d2"/></clipPath>
	<clipPath id="z21411c3"><use xlink:href="#z21411d3"/></clipPath>
	<clipPath id="z21411c4"><use xlink:href="#z21411d4"/></clipPath>
	<clipPath id="z21411c5"><use xlink:href="#z21411d5"/></clipPath>
	<clipPath id="z21411c6"><use xlink:href="#z21411d6"/></clipPath>
	<clipPath id="z21411c7"><use xlink:href="#z21411d7"/></clipPath>
	<clipPath id="z21411c8"><use xlink:href="#z21411d8"/></clipPath>
	<clipPath id="z21411c9"><use xlink:href="#z21411d9"/></clipPath>
	<clipPath id="z21411c10"><use xlink:href="#z21411d10"/></clipPath>
	<clipPath id="z21411c11"><use xlink:href="#z21411d11"/></clipPath>
</defs>
<path pathLength="3333" clip-path="url(#z21411c1)" d="M335 149L392 161L751 114"/>
<path pathLength="3333" clip-path="url(#z21411c2)" d="M250 114L296 177L229 494L139 685L33 811"/>
<path pathLength="3333" clip-path="url(#z21411c3)" d="M360 299L711 265"/>
<path pathLength="3333" clip-path="url(#z21411c4)" d="M507 172L539 211L487 346L431 407L343 451"/>
<path pathLength="3333" clip-path="url(#z21411c5)" d="M590 297L744 416L899 436"/>
<path pathLength="3333" clip-path="url(#z21411c6)" d="M670 177L766 226"/>
<path pathLength="3333" clip-path="url(#z21411c7)" d="M315 486L360 538L396 761"/>
<path pathLength="3333" clip-path="url(#z21411c8)" d="M385 509L652 475L707 491L727 520L660 737"/>
<path pathLength="3333" clip-path="url(#z21411c9)" d="M438 621L630 603"/>
<path pathLength="3333" clip-path="url(#z21411c10)" d="M419 734L648 691"/>
<path pathLength="3333" clip-path="url(#z21411c11)" d="M493 520L532 550L526 974"/>
</svg>