<!--
AnimCJK 2016-2019 Copyright Francois Mizessyn - https://github.com/parsimonhi/animCJK
Derived from:
    MakeMeAHanzi project - https://github.com/skishore/makemeahanzi
    Arphic PL KaitiM GB font
    Arphic PL UKai font
You can redistribute and/or modify this file under the terms of the Arphic Public License
as published by Arphic Technology Co., Ltd.
You should have received a copy of this license along with this file.
If not, see http://ftp.gnu.org/non-gnu/chinese-fonts-truetype/LICENSE.
-->
<svg id="z21438" class="acjk" version="1.1" viewBox="0 0 1024 1024" xmlns="http://www.w3.org/2000/svg" xmlns:xlink="http://www.w3.org/1999/xlink">
<style>
<![CDATA[
@keyframes zk {
	to {
		stroke-dashoffset:0;
	}
}
svg.acjk path[clip-path] {
	--t:0.8s;
	animation:zk var(--t) linear forwards var(--d);
	stroke-dasharray:3337;
	stroke-dashoffset:3339;
	stroke-width:128;
	stroke-linecap:round;
	fill:none;
	stroke:#000;
}
svg.acjk path[id] {fill:#ccc;}
]]>
</style>
<path id="z21438d1" d="M674 149C656 150 641 160 626 165C568 180 508 191 450 200C417 204 321 212 264 215C231 216 187 216 166 220C152 222 155 233 158 238C168 255 197 269 215 275C234 281 265 269 278 266C308 259 374 251 442 243C509 235 565 226 631 214C638 212 646 215 648 223C649 236 646 248 645 260C625 493 642 645 679 744C698 795 736 895 867 902C895 903 925 898 950 881C959 873 953 859 950 850C933 803 920 756 910 707C909 705 907 698 906 700C898 706 899 719 897 729C887 758 881 789 870 818C863 833 845 838 830 835C785 825 760 788 745 757C718 706 707 657 699 594C692 541 685 425 696 340C700 304 709 267 728 236C734 225 743 217 752 210C759 204 762 192 754 186C734 171 710 161 688 152C683 149 678 148 674 149Z"/>
<path id="z21438d2" d="M499 407C472 407 448 416 422 423C359 439 285 448 221 453C214 454 201 454 201 463C200 472 210 477 216 480C246 496 291 489 323 484C396 472 470 463 543 448C552 446 559 436 554 428C547 417 533 413 522 410C515 408 507 407 499 407Z"/>
<path id="z21438d3" d="M346 271C336 271 325 281 329 291C332 303 343 312 348 324C355 341 354 359 355 377C355 398 356 515 354 575C354 590 396 583 398 568C403 511 406 453 410 395C411 367 421 340 427 312C429 302 417 293 408 289C389 279 369 271 347 271C346 271 346 271 346 271Z"/>
<path id="z21438d4" d="M563 540C537 542 511 549 487 554C457 559 427 563 398 568C369 573 369 573 354 575C285 585 129 605 114 607C99 609 103 621 111 627C120 635 150 646 173 643C191 639 206 636 224 633C260 626 295 620 331 616C360 612 360 612 375 610C478 595 556 598 600 598C611 598 624 600 633 592C640 585 635 573 629 568C616 558 603 550 590 545C581 541 572 539 563 540Z"/>
<path id="z21438d5" d="M331 616C333 628 333 637 328 648C320 682 297 708 274 733C257 752 240 771 217 783C202 793 186 800 170 809C159 816 153 830 158 843C162 855 169 868 180 875C188 881 200 882 209 876C288 837 374 817 459 798C475 794 492 791 509 789C518 787 502 763 493 765C419 773 345 784 271 793C305 753 339 711 377 674C386 665 395 657 404 649C411 644 416 635 410 627C401 617 387 612 375 610C360 607 328 601 331 616Z"/>
<path id="z21438d6" d="M463 688C440 678 445 696 455 713C462 724 485 755 493 765C504 781 504 781 509 789C526 815 546 844 566 869C571 875 580 875 587 871C597 866 602 855 603 844C604 828 603 812 595 798C581 775 560 757 539 739C517 721 485 699 463 688Z"/>
<defs>
	<clipPath id="z21438c1"><use xlink:href="#z21438d1"/></clipPath>
	<clipPath id="z21438c2"><use xlink:href="#z21438d2"/></clipPath>
	<clipPath id="z21438c3"><use xlink:href="#z21438d3"/></clipPath>
	<clipPath id="z21438c4"><use xlink:href="#z21438d4"/></clipPath>
	<clipPath id="z21438c5"><use xlink:href="#z21438d5"/></clipPath>
	<clipPath id="z21438c6"><use xlink:href="#z21438d6"/></clipPath>
</defs>
<path style="--d:1s;" pathLength="3333" clip-path="url(#z21438c1)" d="M165 231L229 249L639 188L684 195L708 206L680 310L671 506L716 729L755 827L863 869L912 847L908 710"/>
<path style="--d:2s;" pathLength="3333" clip-path="url(#z21438c2)" d="M212 465L287 467L546 433"/>
<path style="--d:3s;" pathLength="3333" clip-path="url(#z21438c3)" d="M337 283L389 324L368 576"/>
<path style="--d:4s;" pathLength="3333" clip-path="url(#z21438c4)" d="M116 618L167 629L570 571L621 580"/>
<path style="--d:5s;" pathLength="3333" clip-path="url(#z21438c5)" d="M340 623L369 647L208 810L208 839L504 780"/>
<path style="--d:6s;" pathLength="3333" clip-path="url(#z21438c6)" d="M456 694L566 814L579 866"/>
</svg>