<!--
AnimCJK 2016-2018 Copyright Francois Mizessyn - https://github.com/parsimonhi/animCJK
Derived from:
    MakeMeAHanzi project - https://github.com/skishore/makemeahanzi
    Arphic PL KaitiM GB - https://apps.ubuntu.com/cat/applications/precise/fonts-arphic-gkai00mp/
    Arphic PL UKai - https://apps.ubuntu.com/cat/applications/fonts-arphic-ukai/
You can redistribute and/or modify this file under the terms of the Arphic Public License
as published by Arphic Technology Co., Ltd.
You should have received a copy of this license (the directory "APL") along with this file;
if not, see http://ftp.gnu.org/non-gnu/chinese-fonts-truetype/LICENSE.
-->
<svg id="z21442" class="acjk" version="1.1" viewBox="0 0 1024 1024" xmlns="http://www.w3.org/2000/svg" xmlns:xlink="http://www.w3.org/1999/xlink">
<style>
<![CDATA[
@keyframes z21442k {
	from {
		stroke:#ccc;
		stroke-dashoffset:3334;
	}
	1% {
		stroke:#c00;
		stroke-dashoffset:3334;
	}
	75% {
		stroke:#c00;
		stroke-dashoffset:0;
	}
	to {
		stroke:#000;
	}
}
#z21442 path[clip-path] {
	animation:z21442k 1s linear both;
	stroke-dasharray:3334;
	stroke-width:128;
	stroke-linecap:round;
	fill:none;
}
#z21442 path[clip-path="url(#z21442c1)"] {animation-delay:1s;}
#z21442 path[clip-path="url(#z21442c2)"] {animation-delay:2s;}
#z21442 path[clip-path="url(#z21442c3)"] {animation-delay:3s;}
#z21442 path[clip-path="url(#z21442c4)"] {animation-delay:4s;}
#z21442 path[clip-path="url(#z21442c5)"] {animation-delay:5s;}
#z21442 path[clip-path="url(#z21442c6)"] {animation-delay:6s;}
#z21442 path[clip-path="url(#z21442c7)"] {animation-delay:7s;}
#z21442 path[clip-path="url(#z21442c8)"] {animation-delay:8s;}
#z21442 path {fill:#ccc;}
]]>
</style>
<path id="z21442d1" d="M462 306C512 292 580 277 632 268C642 266 623 243 613 245C541 255 466 270 389 291C380 293 374 293 373 292C371 288 374 284 380 278C466 188 518 136 537 124C546 117 550 112 547 102C544 92 527 78 498 58C486 50 478 48 472 50C463 52 459 60 461 76C466 124 426 187 335 263C321 274 303 282 285 294C274 300 271 307 273 316C275 327 283 341 299 357C305 364 314 366 324 359C346 342 375 329 414 319C446 310 446 310 462 306Z"></path>
<path id="z21442d2" d="M632 268C642 280 663 301 679 312C682 313 690 315 695 312C698 309 701 303 703 297C704 288 706 280 705 272C699 237 657 209 589 176C584 173 577 173 575 177C572 180 572 184 576 191C591 217 603 234 613 245C626 260 626 260 632 268Z"></path>
<path id="z21442d3" d="M577 429C635 425 717 421 823 421C835 421 845 418 848 412C851 404 847 394 836 386C796 357 757 353 718 363C656 378 529 399 442 411C398 417 398 417 376 420C335 425 227 439 148 450C134 451 130 456 143 469C161 486 189 493 221 485C262 474 305 464 353 457C398 450 398 450 420 447C446 443 519 432 545 431C566 430 566 430 577 429Z"></path>
<path id="z21442d4" d="M442 411C456 387 471 372 482 364C489 357 492 351 491 346C488 333 479 320 462 306C449 296 414 302 414 319C416 337 405 373 376 420C361 445 361 445 353 457C334 486 301 534 254 580C222 609 176 645 113 689C103 695 102 700 109 704C111 704 117 705 127 703C229 673 345 568 420 447C435 423 435 423 442 411Z"></path>
<path id="z21442d5" d="M545 431C578 471 671 577 736 644C763 673 833 679 945 662C957 660 963 658 965 655C966 650 962 645 953 642C832 595 770 570 769 569C720 540 657 494 577 429C569 421 539 422 545 431Z"></path>
<path id="z21442d6" d="M471 488C462 525 413 583 321 657C309 666 310 669 326 668C370 663 432 621 511 542C520 532 527 525 534 520C541 513 543 506 542 501C540 492 530 487 517 482C499 475 488 473 481 475C476 476 472 479 471 488Z"></path>
<path id="z21442d7" d="M519 582C508 627 445 693 329 777C316 785 318 789 334 788C384 784 450 745 529 667C532 663 548 645 581 616C588 609 589 602 589 598C587 588 578 583 565 578C546 571 536 568 529 570C524 570 520 574 519 582Z"></path>
<path id="z21442d8" d="M580 661C580 707 537 773 438 846C409 866 360 900 295 937C289 940 287 943 296 945C331 952 398 926 489 863C517 842 578 790 631 738C637 731 653 721 657 709C658 702 653 693 648 685C629 659 610 649 590 649C583 649 580 653 580 661Z"></path>
<defs>
	<clipPath id="z21442c1"><use xlink:href="#z21442d1"></use></clipPath>
	<clipPath id="z21442c2"><use xlink:href="#z21442d2"></use></clipPath>
	<clipPath id="z21442c3"><use xlink:href="#z21442d3"></use></clipPath>
	<clipPath id="z21442c4"><use xlink:href="#z21442d4"></use></clipPath>
	<clipPath id="z21442c5"><use xlink:href="#z21442d5"></use></clipPath>
	<clipPath id="z21442c6"><use xlink:href="#z21442d6"></use></clipPath>
	<clipPath id="z21442c7"><use xlink:href="#z21442d7"></use></clipPath>
	<clipPath id="z21442c8"><use xlink:href="#z21442d8"></use></clipPath>
</defs>
<path pathLength="3333" clip-path="url(#z21442c1)" d="M474 55L498 120L327 313L343 327L624 262"></path>
<path pathLength="3333" clip-path="url(#z21442c2)" d="M580 181L695 306"></path>
<path pathLength="3333" clip-path="url(#z21442c3)" d="M144 459L746 389L844 403"></path>
<path pathLength="3333" clip-path="url(#z21442c4)" d="M419 323L447 358L341 515L244 618L116 700"></path>
<path pathLength="3333" clip-path="url(#z21442c5)" d="M557 437L774 619L960 652"></path>
<path pathLength="3333" clip-path="url(#z21442c6)" d="M 482,486 502,510 421,596 325,663"></path>
<path pathLength="3333" clip-path="url(#z21442c7)" d="M 529,578 552,605 464,696 332,783"></path>
<path pathLength="3333" clip-path="url(#z21442c8)" d="M591 654L613 706L530 798L436 873L301 940"></path>
</svg>