<!--
AnimCJK 2016-2018 Copyright Francois Mizessyn - https://github.com/parsimonhi/animCJK
Derived from:
    MakeMeAHanzi project - https://github.com/skishore/makemeahanzi
    Arphic PL KaitiM GB - https://apps.ubuntu.com/cat/applications/precise/fonts-arphic-gkai00mp/
    Arphic PL UKai - https://apps.ubuntu.com/cat/applications/fonts-arphic-ukai/
You can redistribute and/or modify this file under the terms of the Arphic Public License
as published by Arphic Technology Co., Ltd.
You should have received a copy of this license (the directory "APL") along with this file;
if not, see http://ftp.gnu.org/non-gnu/chinese-fonts-truetype/LICENSE.
-->
<svg id="z21441" class="acjk" version="1.1" viewBox="0 0 1024 1024" xmlns="http://www.w3.org/2000/svg" xmlns:xlink="http://www.w3.org/1999/xlink">
<style>
<![CDATA[
@keyframes z21441k {
	from {
		stroke:#ccc;
		stroke-dashoffset:3334;
	}
	1% {
		stroke:#c00;
		stroke-dashoffset:3334;
	}
	75% {
		stroke:#c00;
		stroke-dashoffset:0;
	}
	to {
		stroke:#000;
	}
}
#z21441 path[clip-path] {
	animation:z21441k 1s linear both;
	stroke-dasharray:3334;
	stroke-width:128;
	stroke-linecap:round;
	fill:none;
}
#z21441 path[clip-path="url(#z21441c1)"] {animation-delay:1s;}
#z21441 path[clip-path="url(#z21441c2)"] {animation-delay:2s;}
#z21441 path[clip-path="url(#z21441c3)"] {animation-delay:3s;}
#z21441 path[clip-path="url(#z21441c4)"] {animation-delay:4s;}
#z21441 path[clip-path="url(#z21441c5)"] {animation-delay:5s;}
#z21441 path[clip-path="url(#z21441c6)"] {animation-delay:6s;}
#z21441 path[clip-path="url(#z21441c7)"] {animation-delay:7s;}
#z21441 path[clip-path="url(#z21441c8)"] {animation-delay:8s;}
#z21441 path {fill:#ccc;}
]]>
</style>
<path id="z21441d1" d="M481 305Q532 293 657 272C666 270 650 251 641 251Q526 261 403 287Q390 291 386 287Q385 283 392 274Q507 150 531 130Q544 121 539 108Q535 95 490 68Q474 58 465 61Q452 65 455 86Q468 149 348 260Q327 275 300 291Q285 301 288 312Q292 330 315 351Q325 363 338 353Q386 320 445 314C469 308 469 308 481 305Z"></path>
<path id="z21441d2" d="M657 272Q697 324 707 327Q714 328 721 319Q728 309 726 285Q726 258 694 230Q618 173 604 178Q600 179 599 190Q600 202 641 251C652 265 652 265 657 272Z"></path>
<path id="z21441d3" d="M599 438Q653 435 841 434Q862 434 867 425Q873 413 856 399Q796 351 735 372Q639 390 492 410Q486 410 480 412C438 417 438 417 417 420Q296 433 161 449Q139 450 155 469Q170 484 188 489Q210 495 227 490Q306 468 397 457C438 452 438 452 459 449Q507 442 568 439C589 438 589 438 599 438Z"></path>
<path id="z21441d4" d="M480 412Q496 387 516 362Q526 353 521 343Q512 321 481 305C470 299 445 302 445 314Q442 366 417 420C404 445 404 445 397 457Q319 583 124 701Q109 710 94 719Q85 725 92 729Q99 733 110 730Q281 681 371 571Q414 525 459 449C473 424 473 424 480 412Z"></path>
<path id="z21441d5" d="M568 439Q581 473 762 654Q810 702 981 667Q1000 666 1002 660Q1005 653 989 646Q799 583 712 525Q679 504 648 479Q617 452 599 438C591 432 564 429 568 439Z"></path>
<path id="z21441d6" d="M374 592Q338 598 363 614Q399 639 458 627Q525 615 597 602Q628 596 634 591Q643 584 639 576Q632 564 604 556Q576 550 546 561Q509 571 469 581Q426 588 374 592Z"></path>
<path id="z21441d7" d="M361 713Q333 716 354 733Q384 758 412 752Q529 733 637 723Q647 724 656 713Q657 703 636 691Q606 669 536 689Q440 704 361 713Z"></path>
<path id="z21441d8" d="M245 858Q224 859 239 877Q252 892 270 898Q292 904 308 900Q500 855 764 876Q785 876 790 868Q796 856 779 842Q728 800 691 808Q549 833 245 858Z"></path>
<defs>
	<clipPath id="z21441c1"><use xlink:href="#z21441d1"></use></clipPath>
	<clipPath id="z21441c2"><use xlink:href="#z21441d2"></use></clipPath>
	<clipPath id="z21441c3"><use xlink:href="#z21441d3"></use></clipPath>
	<clipPath id="z21441c4"><use xlink:href="#z21441d4"></use></clipPath>
	<clipPath id="z21441c5"><use xlink:href="#z21441d5"></use></clipPath>
	<clipPath id="z21441c6"><use xlink:href="#z21441d6"></use></clipPath>
	<clipPath id="z21441c7"><use xlink:href="#z21441d7"></use></clipPath>
	<clipPath id="z21441c8"><use xlink:href="#z21441d8"></use></clipPath>
</defs>
<path pathLength="3333" clip-path="url(#z21441c1)" d="M464 65L496 118L349 284L350 315L649 267"></path>
<path pathLength="3333" clip-path="url(#z21441c2)" d="M607 187L719 316"></path>
<path pathLength="3333" clip-path="url(#z21441c3)" d="M157 459L212 468L768 400L862 412"></path>
<path pathLength="3333" clip-path="url(#z21441c4)" d="M450 317L480 357L359 547L233 656L95 722"></path>
<path pathLength="3333" clip-path="url(#z21441c5)" d="M578 444L797 623L993 657"></path>
<path pathLength="3333" clip-path="url(#z21441c6)" d="M362 602L636 578"></path>
<path pathLength="3333" clip-path="url(#z21441c7)" d="M356 724L650 708"></path>
<path pathLength="3333" clip-path="url(#z21441c8)" d="M239 864L306 877L696 839L787 856"></path>
</svg>