<!--
AnimCJK 2016-2019 Copyright Francois Mizessyn - https://github.com/parsimonhi/animCJK
Derived from:
    MakeMeAHanzi project - https://github.com/skishore/makemeahanzi
    Arphic PL KaitiM GB font
    Arphic PL UKai font
You can redistribute and/or modify this file under the terms of the Arphic Public License
as published by Arphic Technology Co., Ltd.
You should have received a copy of this license along with this file.
If not, see http://ftp.gnu.org/non-gnu/chinese-fonts-truetype/LICENSE.
-->
<svg id="z21477" class="acjk" version="1.1" viewBox="0 0 1024 1024" xmlns="http://www.w3.org/2000/svg" xmlns:xlink="http://www.w3.org/1999/xlink">
<style>
<![CDATA[
@keyframes zk {
	to {
		stroke-dashoffset:0;
	}
}
svg.acjk path[clip-path] {
	--t:0.8s;
	animation:zk var(--t) linear forwards var(--d);
	stroke-dasharray:3337;
	stroke-dashoffset:3339;
	stroke-width:128;
	stroke-linecap:round;
	fill:none;
	stroke:#000;
}
svg.acjk path[id] {fill:#ccc;}
]]>
</style>
<path id="z21477d1" d="M369 317Q415 266 466 190Q488 154 507 137Q517 127 512 111Q508 98 477 72Q449 53 428 52Q409 53 417 78Q436 126 349 261Q309 325 252 395Q240 405 238 413Q234 425 250 422Q274 419 352 336C363 323 363 323 369 317Z"/>
<path id="z21477d2" d="M641 843Q626 844 549 803Q539 799 539 804Q538 808 549 819Q595 874 616 914Q628 939 643 939Q665 940 688 916Q767 850 788 682Q804 570 810 396Q811 357 835 327Q850 312 848 303Q847 294 825 279Q795 257 756 245Q734 238 646 264Q631 267 614 272Q497 299 369 317C361 318 344 333 352 336Q391 348 483 335Q556 325 619 313Q721 295 734 310Q750 344 740 556Q728 713 683 801Q665 841 641 843Z"/>
<path id="z21477d3" d="M254 487Q241 481 206 475Q193 471 189 477Q182 484 192 502Q222 565 241 668Q244 699 262 719Q281 744 288 726Q292 713 292 691C289 668 289 668 288 656Q269 550 267 518C267 507 264 491 254 487Z"/>
<path id="z21477d4" d="M467 640Q494 544 527 519Q545 500 529 482Q513 469 460 444Q441 437 419 445Q377 461 338 471Q298 480 254 487C243 489 256 520 267 518Q279 517 291 513Q352 503 409 494Q424 490 430 497Q440 506 438 526Q428 584 416 633C413 650 464 657 467 640Z"/>
<path id="z21477d5" d="M292 691Q302 692 314 690Q366 681 478 676Q490 675 491 666Q491 659 467 640C455 628 433 633 416 633Q413 632 410 633Q343 648 288 656C276 658 280 691 292 691Z"/>
<defs>
	<clipPath id="z21477c1"><use xlink:href="#z21477d1"/></clipPath>
	<clipPath id="z21477c2"><use xlink:href="#z21477d2"/></clipPath>
	<clipPath id="z21477c3"><use xlink:href="#z21477d3"/></clipPath>
	<clipPath id="z21477c4"><use xlink:href="#z21477d4"/></clipPath>
	<clipPath id="z21477c5"><use xlink:href="#z21477d5"/></clipPath>
</defs>
<path style="--d:1s;" pathLength="3333" clip-path="url(#z21477c1)" d="M422 57L465 122L357 294L245 416"/>
<path style="--d:2s;" pathLength="3333" clip-path="url(#z21477c2)" d="M361 331L724 274L795 317L755 685L712 825L646 891L545 808"/>
<path style="--d:3s;" pathLength="3333" clip-path="url(#z21477c3)" d="M194 483L237 530L278 726"/>
<path style="--d:4s;" pathLength="3333" clip-path="url(#z21477c4)" d="M263 491L426 468L463 482L487 510L434 635"/>
<path style="--d:5s;" pathLength="3333" clip-path="url(#z21477c5)" d="M296 663L485 663"/>
</svg>