<!--
AnimCJK 2016-2019 Copyright Francois Mizessyn - https://github.com/parsimonhi/animCJK
Derived from:
    MakeMeAHanzi project - https://github.com/skishore/makemeahanzi
    Arphic PL KaitiM GB font
    Arphic PL UKai font
You can redistribute and/or modify this file under the terms of the Arphic Public License
as published by Arphic Technology Co., Ltd.
You should have received a copy of this license along with this file.
If not, see http://ftp.gnu.org/non-gnu/chinese-fonts-truetype/LICENSE.
-->
<svg id="z21534" class="acjk" version="1.1" viewBox="0 0 1024 1024" xmlns="http://www.w3.org/2000/svg" xmlns:xlink="http://www.w3.org/1999/xlink">
<style>
<![CDATA[
@keyframes zk {
	to {
		stroke-dashoffset:0;
	}
}
svg.acjk path[clip-path] {
	--t:0.8s;
	animation:zk var(--t) linear forwards var(--d);
	stroke-dasharray:3337;
	stroke-dashoffset:3339;
	stroke-width:128;
	stroke-linecap:round;
	fill:none;
	stroke:#000;
}
svg.acjk path[id] {fill:#ccc;}
]]>
</style>
<path id="z21534d1" d="M476 191Q680 146 687 141Q696 134 691 124Q684 112 654 104Q623 98 525 132Q354 163 334 166Q297 173 323 190Q363 211 438 198C463 193 463 193 476 191Z"/>
<path id="z21534d2" d="M572 388Q671 379 845 380Q866 380 871 371Q877 358 859 343Q796 297 735 317Q639 335 487 357Q474 358 461 361C422 366 422 366 402 369Q282 382 149 400Q127 403 144 421Q159 436 178 442Q200 448 218 442Q296 420 383 409C422 404 422 404 442 401Q446 395 538 390C561 389 561 389 572 388Z"/>
<path id="z21534d3" d="M461 361Q488 295 519 246Q528 236 522 225Q509 201 476 191C464 186 438 185 438 198Q437 199 438 203Q441 273 402 369C389 396 389 396 383 409Q290 559 120 690Q98 705 72 725Q65 732 71 736Q78 739 91 735Q179 699 254 640Q365 559 442 401C455 374 455 374 461 361Z"/>
<path id="z21534d4" d="M538 390Q539 391 543 396Q736 634 791 650Q869 662 965 647Q984 646 987 640Q990 633 974 626Q922 604 860 583Q733 535 572 388C563 381 531 381 538 390Z"/>
<path id="z21534d5" d="M354 655Q341 649 307 643Q294 640 291 645Q284 652 293 669Q326 736 344 848Q348 882 367 904Q386 926 391 910Q395 895 395 873C392 847 392 847 390 834Q371 726 366 690C364 678 365 660 354 655Z"/>
<path id="z21534d6" d="M660 809Q687 713 726 681Q744 662 729 642Q711 627 656 601Q637 592 614 601Q515 637 354 655C342 657 354 692 366 690Q609 651 614 652Q620 653 624 658Q636 668 633 692Q623 752 609 802C604 818 657 826 660 809Z"/>
<path id="z21534d7" d="M395 873Q401 873 409 872Q494 857 676 850Q689 849 690 839Q691 830 660 809C646 799 626 802 609 802Q608 801 605 802Q484 826 390 834C377 834 382 873 395 873Z"/>
<defs>
	<clipPath id="z21534c1"><use xlink:href="#z21534d1"/></clipPath>
	<clipPath id="z21534c2"><use xlink:href="#z21534d2"/></clipPath>
	<clipPath id="z21534c3"><use xlink:href="#z21534d3"/></clipPath>
	<clipPath id="z21534c4"><use xlink:href="#z21534d4"/></clipPath>
	<clipPath id="z21534c5"><use xlink:href="#z21534d5"/></clipPath>
	<clipPath id="z21534c6"><use xlink:href="#z21534d6"/></clipPath>
	<clipPath id="z21534c7"><use xlink:href="#z21534d7"/></clipPath>
</defs>
<path style="--d:1s;" pathLength="3333" clip-path="url(#z21534c1)" d="M319 178L686 125"/>
<path style="--d:2s;" pathLength="3333" clip-path="url(#z21534c2)" d="M145 409L211 418L753 346L868 361"/>
<path style="--d:3s;" pathLength="3333" clip-path="url(#z21534c3)" d="M445 206L479 246L359 490L247 614L73 729"/>
<path style="--d:4s;" pathLength="3333" clip-path="url(#z21534c4)" d="M550 395L789 599L978 635"/>
<path style="--d:5s;" pathLength="3333" clip-path="url(#z21534c5)" d="M295 649L337 697L381 910"/>
<path style="--d:6s;" pathLength="3333" clip-path="url(#z21534c6)" d="M362 659L642 630L684 671L632 805"/>
<path style="--d:7s;" pathLength="3333" clip-path="url(#z21534c7)" d="M398 840L685 838"/>
</svg>