<!--
AnimCJK 2016-2017 Copyright Francois Mizessyn, http://gooo.free.fr/animCJK/
Derived from:
    MakeMeAHanzi project - https://github.com/skishore/makemeahanzi
    Arphic PL KaitiM GB - https://apps.ubuntu.com/cat/applications/precise/fonts-arphic-gkai00mp/
    Arphic PL UKai - https://apps.ubuntu.com/cat/applications/fonts-arphic-ukai/
You can redistribute and/or modify this file under the terms of the Arphic Public License
as published by Arphic Technology Co., Ltd.
You should have received a copy of this license (the directory "APL") along with this file;
if not, see http://ftp.gnu.org/non-gnu/chinese-fonts-truetype/LICENSE.
-->
<svg id="z21542" class="acjk" version="1.1" viewBox="0 0 1024 1024" xmlns="http://www.w3.org/2000/svg" xmlns:xlink="http://www.w3.org/1999/xlink">
<style>
<![CDATA[
	@keyframes z21542k {
		from {
			stroke:#c00;
			stroke-dashoffset:3000;
		}
		75% {
			stroke:#c00;
			stroke-dashoffset:0;
		}
		to {
			stroke:#000;
		}
	}
	#z21542 path[clip-path] {
		animation:z21542k 1s linear both;
		stroke-dasharray:3000;
		stroke-width:128;
		stroke-linecap:round;
		fill:none;
	}
	#z21542 path[clip-path="url(#z21542c1)"] {animation-delay:1s;}
	#z21542 path[clip-path="url(#z21542c2)"] {animation-delay:2s;}
	#z21542 path[clip-path="url(#z21542c3)"] {animation-delay:3s;}
	#z21542 path[clip-path="url(#z21542c4)"] {animation-delay:4s;}
	#z21542 path[clip-path="url(#z21542c5)"] {animation-delay:5s;}
	#z21542 path[clip-path="url(#z21542c6)"] {animation-delay:6s;}
	#z21542 path[clip-path="url(#z21542c7)"] {animation-delay:7s;}
	#z21542 path {fill:#ccc;}
]]>
</style>
<g transform="scale(1,-1) translate(0,-900)">
	<path id="z21542d1" d="M572 717Q635 721 848 722Q870 722 875 732Q882 745 863 760Q806 803 764 795Q622 765 210 716Q188 715 204 695Q237 662 281 672Q404 705 523 713L572 717Z"/>
	<path id="z21542d2" d="M532 589Q565 628 588 645Q609 666 572 717L523 713Q523 712 524 708Q524 692 487 631L461 595Q446 579 434 562Q391 513 317 452Q229 379 119 313Q112 309 109 302Q108 296 114 295Q145 292 253 353Q256 356 259 357Q349 412 466 520L532 589Z"/>
	<path id="z21542d3" d="M466 520Q466 469 456 416Q452 398 459 368Q469 337 479 327Q495 312 506 337Q519 374 519 415Q513 571 532 589L487 631Q477 644 461 651Q451 652 448 646Q444 636 447 626Q453 611 461 595L466 520Z"/>
	<path id="z21542d4" d="M641 507Q740 458 862 379Q884 363 902 361Q911 362 916 375Q926 393 901 436Q867 499 634 540Q624 544 624 530Q627 515 641 507Z"/>
	<path id="z21542d5" d="M363 275Q350 282 309 289Q296 293 291 287Q284 280 294 262Q328 183 349 57Q352 20 373 -7Q394 -32 400 -14Q407 5 405 38L399 79Q378 196 374 237L363 275Z"/>
	<path id="z21542d6" d="M698 105Q731 213 770 239Q791 261 774 283Q756 298 689 331Q668 340 645 331Q537 294 363 275L374 237Q384 238 398 241Q510 257 617 275Q645 279 655 268Q667 258 664 235Q654 166 637 111L698 105Z"/>
	<path id="z21542d7" d="M405 38Q409 38 416 38Q510 54 715 60Q728 61 730 71Q731 81 698 105L637 111Q504 89 399 79L405 38Z"/>
	<defs>
		<clipPath id="z21542c1"><use xlink:href="#z21542d1"/></clipPath>
		<clipPath id="z21542c2"><use xlink:href="#z21542d2"/></clipPath>
		<clipPath id="z21542c3"><use xlink:href="#z21542d3"/></clipPath>
		<clipPath id="z21542c4"><use xlink:href="#z21542d4"/></clipPath>
		<clipPath id="z21542c5"><use xlink:href="#z21542d5"/></clipPath>
		<clipPath id="z21542c6"><use xlink:href="#z21542d6"/></clipPath>
		<clipPath id="z21542c7"><use xlink:href="#z21542d7"/></clipPath>
	</defs>
	<path pathLength="2999" clip-path="url(#z21542c1)" d="M205 705L777 759L872 744"/>
	<path pathLength="2999" clip-path="url(#z21542c2)" d="M529 709L550 660L433 524L267 387L117 301"/>
	<path pathLength="2999" clip-path="url(#z21542c3)" d="M455 642L495 580L489 326"/>
	<path pathLength="2999" clip-path="url(#z21542c4)" d="M631 534L839 441L910 372"/>
	<path pathLength="2999" clip-path="url(#z21542c5)" d="M296 284L339 238L389 -17"/>
	<path pathLength="2999" clip-path="url(#z21542c6)" d="M371 270L673 300L728 251L670 116L649 112"/>
	<path pathLength="2999" clip-path="url(#z21542c7)" d="M407 71L724 77"/>
</g>
</svg>