<!--
AnimCJK 2016-2018 Copyright Francois Mizessyn - https://github.com/parsimonhi/animCJK
Derived from:
    MakeMeAHanzi project - https://github.com/skishore/makemeahanzi
    Arphic PL KaitiM GB - https://apps.ubuntu.com/cat/applications/precise/fonts-arphic-gkai00mp/
    Arphic PL UKai - https://apps.ubuntu.com/cat/applications/fonts-arphic-ukai/
You can redistribute and/or modify this file under the terms of the Arphic Public License
as published by Arphic Technology Co., Ltd.
You should have received a copy of this license (the directory "APL") along with this file;
if not, see http://ftp.gnu.org/non-gnu/chinese-fonts-truetype/LICENSE.
-->
<svg id="z21556" class="acjk" version="1.1" viewBox="0 0 1024 1024" xmlns="http://www.w3.org/2000/svg" xmlns:xlink="http://www.w3.org/1999/xlink">
<style>
<![CDATA[
@keyframes z21556k {
	from {
		stroke:#ccc;
		stroke-dashoffset:3334;
	}
	1% {
		stroke:#c00;
		stroke-dashoffset:3334;
	}
	75% {
		stroke:#c00;
		stroke-dashoffset:0;
	}
	to {
		stroke:#000;
	}
}
#z21556 path[clip-path] {
	animation:z21556k 1s linear both;
	stroke-dasharray:3334;
	stroke-width:128;
	stroke-linecap:round;
	fill:none;
}
#z21556 path[clip-path="url(#z21556c1)"] {animation-delay:1s;}
#z21556 path[clip-path="url(#z21556c2)"] {animation-delay:2s;}
#z21556 path[clip-path="url(#z21556c3)"] {animation-delay:3s;}
#z21556 path[clip-path="url(#z21556c4)"] {animation-delay:4s;}
#z21556 path[clip-path="url(#z21556c5)"] {animation-delay:5s;}
#z21556 path[clip-path="url(#z21556c6)"] {animation-delay:6s;}
#z21556 path[clip-path="url(#z21556c7)"] {animation-delay:7s;}
#z21556 path {fill:#ccc;}
]]>
</style>
<path id="z21556d1" d="M334 141Q328 140 323 140Q310 137 307 143Q300 150 310 166Q341 221 361 315Q365 343 383 361Q402 383 407 366Q408 359 410 349L407 313Q403 298 382 177L334 141 Z"/>
<path id="z21556d2" d="M660 274Q687 195 721 169Q739 151 724 133Q655 76 599 98Q413 158 334 141L382 177Q607 126 626 144Q641 160 608 268L660 274 Z"/>
<path id="z21556d3" d="M410 349Q416 349 423 348Q501 329 672 309Q682 308 684 298Q684 291 660 274L608 268Q605 267 602 268Q494 298 407 313L410 349 Z"/>
<path id="z21556d4" d="M508 471Q581 458 658 445Q716 432 726 425Q735 418 731 408Q724 396 694 387Q664 380 578 408Q436 442 319 451Q282 455 308 474Q344 498 420 485Q433 482 449 481L508 471 Z"/>
<path id="z21556d5" d="M519 626Q633 614 800 617Q830 618 855 617Q877 618 883 608Q889 595 871 580Q814 537 772 545Q678 563 519 586L458 595Q320 610 162 628Q140 629 156 649Q172 665 191 671Q215 677 232 672Q334 645 451 633L519 626 Z"/>
<path id="z21556d6" d="M519 586Q534 516 539 507Q546 500 540 489Q534 482 508 471L449 481Q467 533 458 595L451 633Q415 756 310 824Q265 851 185 885Q158 898 190 899Q211 902 252 889Q304 877 350 853Q393 834 426 795Q469 747 504 647L519 586 Z"/>
<path id="z21556d7" d="M504 647Q505 648 510 654Q666 882 719 901Q797 919 906 907Q927 906 929 901Q932 894 916 886Q867 864 808 841Q679 784 541 646Q528 633 519 626L508 628L504 647 Z"/>
<defs>
	<clipPath id="z21556c1"><use xlink:href="#z21556d1"/></clipPath>
	<clipPath id="z21556c2"><use xlink:href="#z21556d2"/></clipPath>
	<clipPath id="z21556c3"><use xlink:href="#z21556d3"/></clipPath>
	<clipPath id="z21556c4"><use xlink:href="#z21556d4"/></clipPath>
	<clipPath id="z21556c5"><use xlink:href="#z21556d5"/></clipPath>
	<clipPath id="z21556c6"><use xlink:href="#z21556d6"/></clipPath>
	<clipPath id="z21556c7"><use xlink:href="#z21556d7"/></clipPath>
</defs>
<path pathLength="3333" clip-path="url(#z21556c1)" d="M312 147L356 195L390 367"/>
<path pathLength="3333" clip-path="url(#z21556c2)" d="M344 143L394 159L643 119L680 158L638 260L618 265"/>
<path pathLength="3333" clip-path="url(#z21556c3)" d="M413 341L598 293L678 294"/>
<path pathLength="3333" clip-path="url(#z21556c4)" d="M304 460L391 466L725 411"/>
<path pathLength="3333" clip-path="url(#z21556c5)" d="M156 638L216 648L758 581L880 598"/>
<path pathLength="3333" clip-path="url(#z21556c6)" d="M456 483L501 516L435 736L335 835L181 891"/>
<path pathLength="3333" clip-path="url(#z21556c7)" d="M515 633L725 851L921 897"/>
</svg>