<!--
AnimCJK 2016-2019 Copyright Francois Mizessyn - https://github.com/parsimonhi/animCJK
Derived from:
    MakeMeAHanzi project - https://github.com/skishore/makemeahanzi
    Arphic PL KaitiM GB font
    Arphic PL UKai font
You can redistribute and/or modify this file under the terms of the Arphic Public License
as published by Arphic Technology Co., Ltd.
You should have received a copy of this license along with this file.
If not, see http://ftp.gnu.org/non-gnu/chinese-fonts-truetype/LICENSE.
-->
<svg id="z21551" class="acjk" version="1.1" viewBox="0 0 1024 1024" xmlns="http://www.w3.org/2000/svg" xmlns:xlink="http://www.w3.org/1999/xlink">
<style>
<![CDATA[
@keyframes zk {
	to {
		stroke-dashoffset:0;
	}
}
svg.acjk path[clip-path] {
	--t:0.8s;
	animation:zk var(--t) linear forwards var(--d);
	stroke-dasharray:3337;
	stroke-dashoffset:3339;
	stroke-width:128;
	stroke-linecap:round;
	fill:none;
	stroke:#000;
}
svg.acjk path[id] {fill:#ccc;}
]]>
</style>
<path id="z21551d1" d="M513 105Q544 127 578 154Q593 166 610 164Q620 163 625 148Q628 132 616 102Q601 68 503 56Q487 53 480 57Q476 61 478 75Q482 85 513 105Z"/>
<path id="z21551d2" d="M711 391Q741 297 775 271Q793 252 777 234Q761 221 706 195Q687 188 665 196Q557 238 390 263C379 265 380 300 392 298Q408 298 640 248Q667 241 678 252Q693 270 664 375C661 391 705 406 711 391Z"/>
<path id="z21551d3" d="M363 456Q378 465 398 462Q498 440 714 420Q726 419 727 410Q727 403 711 391C699 379 681 375 664 375Q654 375 646 378Q492 414 368 428C359 430 355 452 363 456Z"/>
<path id="z21551d4" d="M390 263Q387 259 382 256Q333 225 316 226Q294 227 309 253Q334 307 297 509Q284 590 231 683Q186 767 88 835Q70 848 67 854Q63 861 77 862Q116 865 206 792Q317 693 363 456C366 437 366 437 368 428Q377 379 385 324Q389 308 392 298C396 287 397 272 390 263Z"/>
<path id="z21551d5" d="M405 612Q393 605 360 599Q347 595 343 600Q336 607 345 624Q376 700 393 822Q396 859 415 883Q434 907 439 891Q446 870 444 836C441 811 441 811 439 799Q420 684 417 646C417 634 416 617 405 612Z"/>
<path id="z21551d6" d="M721 766Q745 667 782 637Q800 616 784 597Q709 540 649 563Q544 596 405 612C393 614 405 648 417 646Q450 642 641 609Q666 603 676 614Q689 624 686 648Q679 712 666 765C662 783 717 784 721 766Z"/>
<path id="z21551d7" d="M444 836Q448 836 458 835Q548 819 741 808Q753 807 755 798Q756 789 724 767Q723 766 721 766C704 759 684 762 666 765Q539 790 439 799C427 801 432 836 444 836Z"/>
<defs>
	<clipPath id="z21551c1"><use xlink:href="#z21551d1"/></clipPath>
	<clipPath id="z21551c2"><use xlink:href="#z21551d2"/></clipPath>
	<clipPath id="z21551c3"><use xlink:href="#z21551d3"/></clipPath>
	<clipPath id="z21551c4"><use xlink:href="#z21551d4"/></clipPath>
	<clipPath id="z21551c5"><use xlink:href="#z21551d5"/></clipPath>
	<clipPath id="z21551c6"><use xlink:href="#z21551d6"/></clipPath>
	<clipPath id="z21551c7"><use xlink:href="#z21551d7"/></clipPath>
</defs>
<path style="--d:1s;" pathLength="3333" clip-path="url(#z21551c1)" d="M485 60L620 152"/>
<path style="--d:2s;" pathLength="3333" clip-path="url(#z21551c2)" d="M396 291L684 220L733 260L693 384"/>
<path style="--d:3s;" pathLength="3333" clip-path="url(#z21551c3)" d="M367 450L653 401L721 411"/>
<path style="--d:4s;" pathLength="3333" clip-path="url(#z21551c4)" d="M312 236L349 267L355 303L299 598L205 761L70 853"/>
<path style="--d:5s;" pathLength="3333" clip-path="url(#z21551c5)" d="M348 608L389 659L426 889"/>
<path style="--d:6s;" pathLength="3333" clip-path="url(#z21551c6)" d="M413 616L697 587L739 629L681 765"/>
<path style="--d:7s;" pathLength="3333" clip-path="url(#z21551c7)" d="M447 807L746 799"/>
</svg>