<!--
AnimCJK 2016-2018 Copyright Francois Mizessyn - https://github.com/parsimonhi/animCJK
Derived from:
    MakeMeAHanzi project - https://github.com/skishore/makemeahanzi
    Arphic PL KaitiM GB - https://apps.ubuntu.com/cat/applications/precise/fonts-arphic-gkai00mp/
    Arphic PL UKai - https://apps.ubuntu.com/cat/applications/fonts-arphic-ukai/
You can redistribute and/or modify this file under the terms of the Arphic Public License
as published by Arphic Technology Co., Ltd.
You should have received a copy of this license (the directory "APL") along with this file;
if not, see http://ftp.gnu.org/non-gnu/chinese-fonts-truetype/LICENSE.
-->
<svg id="z21574" class="acjk" version="1.1" viewBox="0 0 1024 1024" xmlns="http://www.w3.org/2000/svg" xmlns:xlink="http://www.w3.org/1999/xlink">
<style>
<![CDATA[
@keyframes z21574k {
	from {
		stroke:#ccc;
		stroke-dashoffset:3334;
	}
	1% {
		stroke:#c00;
		stroke-dashoffset:3334;
	}
	75% {
		stroke:#c00;
		stroke-dashoffset:0;
	}
	to {
		stroke:#000;
	}
}
#z21574 path[clip-path] {
	animation:z21574k 1s linear both;
	stroke-dasharray:3334;
	stroke-width:128;
	stroke-linecap:round;
	fill:none;
}
#z21574 path[clip-path="url(#z21574c1)"] {animation-delay:1s;}
#z21574 path[clip-path="url(#z21574c2)"] {animation-delay:2s;}
#z21574 path[clip-path="url(#z21574c3)"] {animation-delay:3s;}
#z21574 path[clip-path="url(#z21574c4)"] {animation-delay:4s;}
#z21574 path[clip-path="url(#z21574c5)"] {animation-delay:5s;}
#z21574 path[clip-path="url(#z21574c6)"] {animation-delay:6s;}
#z21574 path[clip-path="url(#z21574c7)"] {animation-delay:7s;}
#z21574 path {fill:#ccc;}
]]>
</style>
<path id="z21574d1" d="M321 133Q315 132 310 132Q297 129 293 135Q286 142 297 159Q327 211 348 301Q352 328 370 344Q391 368 395 350Q396 344 397 338L395 301Q392 289 373 175L321 133 Z"/>
<path id="z21574d2" d="M641 268Q674 193 707 175Q726 156 712 135Q694 119 639 89Q620 79 596 87Q410 150 321 133L373 175Q382 172 574 142Q596 138 606 147Q615 157 611 175Q598 224 584 263L641 268 Z"/>
<path id="z21574d3" d="M479 324Q549 312 655 304Q665 303 668 294Q668 285 641 268L584 263Q479 288 395 301L397 338Q401 338 406 337Q424 333 447 330L479 324 Z"/>
<path id="z21574d4" d="M521 473Q630 458 786 457Q862 457 868 447Q874 434 856 419Q801 380 759 388Q668 409 515 435L468 443Q320 464 145 488Q123 491 140 509Q155 524 174 529Q196 535 214 529Q317 498 435 483L521 473 Z"/>
<path id="z21574d5" d="M515 435Q516 392 520 368Q523 356 515 350Q496 334 479 324L447 330Q462 364 468 443L468 536Q468 725 451 819Q439 876 492 931Q493 932 496 934Q508 935 513 922Q525 889 521 859Q515 691 514 511L515 435 Z"/>
<path id="z21574d6" d="M435 483Q348 636 132 781Q119 793 128 795Q155 805 241 754Q320 708 449 559Q461 543 468 536L468 480L435 483 Z"/>
<path id="z21574d7" d="M514 511Q611 634 734 764Q755 786 790 783Q907 776 944 767Q954 764 956 759Q956 753 940 746Q771 691 726 655Q632 580 521 473L514 474L514 511 Z"/>
<defs>
	<clipPath id="z21574c1"><use xlink:href="#z21574d1"/></clipPath>
	<clipPath id="z21574c2"><use xlink:href="#z21574d2"/></clipPath>
	<clipPath id="z21574c3"><use xlink:href="#z21574d3"/></clipPath>
	<clipPath id="z21574c4"><use xlink:href="#z21574d4"/></clipPath>
	<clipPath id="z21574c5"><use xlink:href="#z21574d5"/></clipPath>
	<clipPath id="z21574c6"><use xlink:href="#z21574d6"/></clipPath>
	<clipPath id="z21574c7"><use xlink:href="#z21574d7"/></clipPath>
</defs>
<path pathLength="3333" clip-path="url(#z21574c1)" d="M299 140L345 189L388 352"/>
<path pathLength="3333" clip-path="url(#z21574c2)" d="M332 138L382 154L627 120L664 163L595 263"/>
<path pathLength="3333" clip-path="url(#z21574c3)" d="M401 331L582 287L662 290"/>
<path pathLength="3333" clip-path="url(#z21574c4)" d="M140 495L198 506L760 422L865 441"/>
<path pathLength="3333" clip-path="url(#z21574c5)" d="M457 337L491 372L498 927"/>
<path pathLength="3333" clip-path="url(#z21574c6)" d="M462 487L314 668L133 789"/>
<path pathLength="3333" clip-path="url(#z21574c7)" d="M519 483L768 732L946 758"/>
</svg>