<!--
AnimCJK 2016-2018 Copyright Francois Mizessyn - https://github.com/parsimonhi/animCJK
Derived from:
    MakeMeAHanzi project - https://github.com/skishore/makemeahanzi
    Arphic PL KaitiM GB - https://apps.ubuntu.com/cat/applications/precise/fonts-arphic-gkai00mp/
    Arphic PL UKai - https://apps.ubuntu.com/cat/applications/fonts-arphic-ukai/
You can redistribute and/or modify this file under the terms of the Arphic Public License
as published by Arphic Technology Co., Ltd.
You should have received a copy of this license (the directory "APL") along with this file;
if not, see http://ftp.gnu.org/non-gnu/chinese-fonts-truetype/LICENSE.
-->
<svg id="z21584" class="acjk" version="1.1" viewBox="0 0 1024 1024" xmlns="http://www.w3.org/2000/svg" xmlns:xlink="http://www.w3.org/1999/xlink">
<style>
<![CDATA[
@keyframes z21584k {
	from {
		stroke:#ccc;
		stroke-dashoffset:3334;
	}
	1% {
		stroke:#c00;
		stroke-dashoffset:3334;
	}
	75% {
		stroke:#c00;
		stroke-dashoffset:0;
	}
	to {
		stroke:#000;
	}
}
#z21584 path[clip-path] {
	animation:z21584k 1s linear both;
	stroke-dasharray:3334;
	stroke-width:128;
	stroke-linecap:round;
	fill:none;
}
#z21584 path[clip-path="url(#z21584c1)"] {animation-delay:1s;}
#z21584 path[clip-path="url(#z21584c2)"] {animation-delay:2s;}
#z21584 path[clip-path="url(#z21584c3)"] {animation-delay:3s;}
#z21584 path[clip-path="url(#z21584c4)"] {animation-delay:4s;}
#z21584 path[clip-path="url(#z21584c5)"] {animation-delay:5s;}
#z21584 path[clip-path="url(#z21584c6)"] {animation-delay:6s;}
#z21584 path[clip-path="url(#z21584c7)"] {animation-delay:7s;}
#z21584 path {fill:#ccc;}
]]>
</style>
<path id="z21584d1" d="M146 375Q134 368 96 358Q83 354 79 359Q72 365 80 382Q108 458 120 578Q121 614 140 639Q156 663 164 647Q171 628 170 591C167 565 167 565 166 552Q153 443 151 406C151 396 154 382 146 376C146 375 146 375 146 375Z"></path>
<path id="z21584d2" d="M309 531Q322 429 349 396Q371 368 347 355Q325 345 297 327Q281 318 236 343Q197 361 146 376C137 380 141 408 151 406Q196 393 235 383Q259 376 266 385Q278 394 258 523C255 540 306 548 309 531Z"></path>
<path id="z21584d3" d="M170 591Q191 581 318 562Q328 559 330 550Q330 543 309 531C294 522 275 523 258 523Q251 523 245 526Q202 541 166 552C154 557 158 596 170 591Z"></path>
<path id="z21584d4" d="M444 324Q425 311 403 304Q394 303 388 311Q384 317 392 327Q443 459 406 701Q384 791 387 809Q397 843 408 856Q420 869 430 855Q458 825 459 630Q459 428 465 365C468 350 456 333 444 324Z"></path>
<path id="z21584d5" d="M644 329Q696 319 756 310Q781 303 794 317Q807 324 811 380Q824 570 814 784Q814 815 802 825Q786 832 722 805Q706 799 706 809Q706 816 718 824Q775 878 803 916Q824 937 836 935Q849 932 861 904Q877 861 880 795Q867 507 868 401Q868 361 879 337Q892 315 881 303Q871 288 822 264Q803 254 783 260Q740 273 647 295C616 300 616 300 601 303Q523 315 444 324C429 327 450 365 465 365Q471 365 480 363Q535 350 600 337C629 332 629 332 644 329Z"></path>
<path id="z21584d6" d="M627 485Q634 449 644 329C646 306 646 306 647 295Q653 196 675 146Q682 133 671 122Q650 104 613 93Q589 86 581 93Q572 99 579 111Q600 145 602 191Q603 248 601 303C600 326 600 326 600 337Q588 520 539 582Q515 607 476 634Q464 641 465 646Q466 650 477 649Q486 652 510 643Q588 616 620 516Q620 513 621 512C625 494 625 494 627 485Z"></path>
<path id="z21584d7" d="M621 512Q679 564 749 637Q762 653 775 657Q782 658 789 650Q799 638 788 602Q776 557 627 485C619 480 614 506 621 512Z"></path>
<defs>
	<clipPath id="z21584c1"><use xlink:href="#z21584d1"></use></clipPath>
	<clipPath id="z21584c2"><use xlink:href="#z21584d2"></use></clipPath>
	<clipPath id="z21584c3"><use xlink:href="#z21584d3"></use></clipPath>
	<clipPath id="z21584c4"><use xlink:href="#z21584d4"></use></clipPath>
	<clipPath id="z21584c5"><use xlink:href="#z21584d5"></use></clipPath>
	<clipPath id="z21584c6"><use xlink:href="#z21584d6"></use></clipPath>
	<clipPath id="z21584c7"><use xlink:href="#z21584d7"></use></clipPath>
</defs>
<path pathLength="3333" clip-path="url(#z21584c1)" d="M84 366L117 392L153 648"></path>
<path pathLength="3333" clip-path="url(#z21584c2)" d="M154 398L265 354L309 373L288 527"></path>
<path pathLength="3333" clip-path="url(#z21584c3)" d="M176 582L253 548L325 550"></path>
<path pathLength="3333" clip-path="url(#z21584c4)" d="M392 310L437 376L419 853"></path>
<path pathLength="3333" clip-path="url(#z21584c5)" d="M453 327L488 340L781 284L840 314L838 847L810 879L713 812"></path>
<path pathLength="3333" clip-path="url(#z21584c6)" d="M583 100L637 149L607 467L556 592L473 643"></path>
<path pathLength="3333" clip-path="url(#z21584c7)" d="M630 495L754 600L778 653"></path>
</svg>