<!--
AnimCJK 2016-2019 Copyright Francois Mizessyn - https://github.com/parsimonhi/animCJK
Derived from:
    MakeMeAHanzi project - https://github.com/skishore/makemeahanzi
    Arphic PL KaitiM GB font
    Arphic PL UKai font
You can redistribute and/or modify this file under the terms of the Arphic Public License
as published by Arphic Technology Co., Ltd.
You should have received a copy of this license along with this file.
If not, see http://ftp.gnu.org/non-gnu/chinese-fonts-truetype/LICENSE.
-->
<svg id="z21604" class="acjk" version="1.1" viewBox="0 0 1024 1024" xmlns="http://www.w3.org/2000/svg" xmlns:xlink="http://www.w3.org/1999/xlink">
<style>
<![CDATA[
@keyframes zk {
	to {
		stroke-dashoffset:0;
	}
}
svg.acjk path[clip-path] {
	--t:0.8s;
	animation:zk var(--t) linear forwards var(--d);
	stroke-dasharray:3337;
	stroke-dashoffset:3339;
	stroke-width:128;
	stroke-linecap:round;
	fill:none;
	stroke:#000;
}
svg.acjk path[id] {fill:#ccc;}
]]>
</style>
<path id="z21604d1" d="M131 332Q119 325 89 318Q76 314 73 319Q66 325 74 342Q102 412 113 523Q114 557 132 580Q148 602 155 587Q162 568 160 531C157 508 157 508 156 497Q143 394 142 361C142 351 140 337 131 332Z"/>
<path id="z21604d2" d="M298 473Q314 379 340 349Q362 322 338 308Q317 298 288 281Q266 269 226 298Q168 320 131 332C121 336 132 365 142 361Q169 349 231 336Q253 330 260 339Q269 346 261 385Q254 425 244 473C241 491 294 491 298 473Z"/>
<path id="z21604d3" d="M160 531Q167 531 176 530Q219 518 314 507Q324 506 325 496Q325 489 298 473C283 464 261 466 244 473Q195 488 156 497C145 499 149 531 160 531Z"/>
<path id="z21604d4" d="M587 218Q623 151 623 145Q620 135 605 123Q587 110 567 106Q543 100 532 104Q522 107 526 121Q556 208 415 417Q406 427 398 440Q355 498 244 615Q237 622 247 623Q298 617 419 488Q494 398 572 248C582 228 582 228 587 218Z"/>
<path id="z21604d5" d="M572 248Q585 261 597 278Q783 533 821 540Q903 540 960 528Q976 525 982 518Q986 511 975 508Q834 454 788 416Q710 359 592 224Q589 221 587 218C580 209 565 239 572 248Z"/>
<path id="z21604d6" d="M507 435Q570 498 596 497Q611 497 615 477Q615 464 603 443Q578 413 509 406Q499 406 499 418Q498 427 507 435Z"/>
<path id="z21604d7" d="M576 783Q708 630 749 611Q770 602 762 585Q758 569 682 533Q660 523 637 534Q579 559 489 588Q467 597 409 597Q384 598 393 619Q402 632 423 645Q456 663 497 638Q617 574 641 588Q656 598 649 614Q607 687 559 773C556 779 572 788 576 783Z"/>
<path id="z21604d8" d="M559 773Q507 745 478 732Q469 726 467 739Q466 752 477 763Q543 823 622 910Q638 929 653 934Q662 935 669 925Q682 912 669 869Q660 827 576 783C565 776 565 776 559 773Z"/>
<defs>
	<clipPath id="z21604c1"><use xlink:href="#z21604d1"/></clipPath>
	<clipPath id="z21604c2"><use xlink:href="#z21604d2"/></clipPath>
	<clipPath id="z21604c3"><use xlink:href="#z21604d3"/></clipPath>
	<clipPath id="z21604c4"><use xlink:href="#z21604d4"/></clipPath>
	<clipPath id="z21604c5"><use xlink:href="#z21604d5"/></clipPath>
	<clipPath id="z21604c6"><use xlink:href="#z21604d6"/></clipPath>
	<clipPath id="z21604c7"><use xlink:href="#z21604d7"/></clipPath>
	<clipPath id="z21604c8"><use xlink:href="#z21604d8"/></clipPath>
</defs>
<path style="--d:1s;" pathLength="3333" clip-path="url(#z21604c1)" d="M78 323L113 368L148 587"/>
<path style="--d:2s;" pathLength="3333" clip-path="url(#z21604c2)" d="M146 352L254 307L294 322L306 345L262 472"/>
<path style="--d:3s;" pathLength="3333" clip-path="url(#z21604c3)" d="M165 523L250 493L317 495"/>
<path style="--d:4s;" pathLength="3333" clip-path="url(#z21604c4)" d="M531 113L576 156L496 334L397 479L250 616"/>
<path style="--d:5s;" pathLength="3333" clip-path="url(#z21604c5)" d="M588 228L807 478L977 515"/>
<path style="--d:6s;" pathLength="3333" clip-path="url(#z21604c6)" d="M506 418L606 489"/>
<path style="--d:7s;" pathLength="3333" clip-path="url(#z21604c7)" d="M396 610L466 622L651 558L701 587L703 609L568 778"/>
<path style="--d:8s;" pathLength="3333" clip-path="url(#z21604c8)" d="M474 736L630 866L660 927"/>
</svg>