<!--
AnimCJK 2016-2017 Copyright Francois Mizessyn, http://gooo.free.fr/animCJK/
Derived from:
    MakeMeAHanzi project - https://github.com/skishore/makemeahanzi
    Arphic PL KaitiM GB - https://apps.ubuntu.com/cat/applications/precise/fonts-arphic-gkai00mp/
    Arphic PL UKai - https://apps.ubuntu.com/cat/applications/fonts-arphic-ukai/
You can redistribute and/or modify this file under the terms of the Arphic Public License
as published by Arphic Technology Co., Ltd.
You should have received a copy of this license (the directory "APL") along with this file;
if not, see http://ftp.gnu.org/non-gnu/chinese-fonts-truetype/LICENSE.
-->
<svg id="z21627" class="acjk" version="1.1" viewBox="0 0 1024 1024" xmlns="http://www.w3.org/2000/svg" xmlns:xlink="http://www.w3.org/1999/xlink">
<style>
<![CDATA[
@keyframes z21627k {
	from {
		stroke:#c00;
		stroke-dashoffset:3334;
	}
	75% {
		stroke:#c00;
		stroke-dashoffset:0;
	}
	to {
		stroke:#000;
	}
}
#z21627 path[clip-path] {
	animation:z21627k 1s linear both;
	stroke-dasharray:3334;
	stroke-width:128;
	stroke-linecap:round;
	fill:none;
}
#z21627 path[clip-path="url(#z21627c1)"] {animation-delay:1s;}
#z21627 path[clip-path="url(#z21627c2)"] {animation-delay:2s;}
#z21627 path[clip-path="url(#z21627c3)"] {animation-delay:3s;}
#z21627 path[clip-path="url(#z21627c4)"] {animation-delay:4s;}
#z21627 path[clip-path="url(#z21627c5)"] {animation-delay:5s;}
#z21627 path[clip-path="url(#z21627c6)"] {animation-delay:6s;}
#z21627 path[clip-path="url(#z21627c7)"] {animation-delay:7s;}
#z21627 path[clip-path="url(#z21627c8)"] {animation-delay:8s;}
#z21627 path {fill:#ccc;}
]]>
</style>
<path id="z21627d1" d="M151 314Q139 308 113 303Q100 299 97 304Q90 310 98 326Q129 401 143 520Q144 556 164 580Q180 602 187 587Q196 565 191 526L186 494Q167 373 166 341L151 314 Z"/>
<path id="z21627d2" d="M323 463Q336 363 363 330Q384 303 361 291Q342 281 313 265Q291 253 252 282Q201 301 151 314L166 341Q172 340 180 337Q220 325 255 317Q279 311 285 320Q295 327 288 369Q281 415 273 468L323 463 Z"/>
<path id="z21627d3" d="M191 526Q230 513 343 497Q353 496 353 487Q353 480 323 463L273 468Q225 483 186 494L191 526 Z"/>
<path id="z21627d4" d="M460 285Q450 278 413 271Q400 267 397 273Q390 279 399 295Q435 380 451 515Q454 557 476 584Q494 606 499 591Q502 581 503 569L504 541Q503 523 499 501Q474 369 468 322L460 285 Z"/>
<path id="z21627d5" d="M740 541Q741 542 744 545Q766 579 785 588Q797 595 812 572Q830 539 861 362Q870 328 895 301Q908 286 896 272Q880 253 832 226Q813 217 733 236Q694 240 661 249L607 258Q586 261 566 265Q508 277 460 285L468 322Q472 322 478 321Q530 306 606 294L660 285Q774 263 791 280Q807 299 805 319Q784 449 763 515L740 541 Z"/>
<path id="z21627d6" d="M658 415Q694 408 726 404Q750 400 741 388Q731 373 705 369Q686 366 658 373L605 388Q571 398 539 407Q523 411 543 425Q547 428 605 424L658 415 Z"/>
<path id="z21627d7" d="M503 569Q512 569 604 558L657 551Q700 544 740 541L763 515Q756 508 740 503Q700 494 657 512L604 523Q552 532 504 541L503 569 Z"/>
<path id="z21627d8" d="M604 558Q601 910 612 940Q613 944 616 948Q631 964 640 943Q658 901 657 551L657 512Q657 460 658 415L658 373Q658 324 660 285L661 249Q664 141 685 108Q692 92 672 76Q647 57 604 45Q585 41 572 54Q562 63 574 75Q605 100 607 137Q607 186 607 258L606 294Q605 337 605 388L605 424Q605 472 604 523L604 558 Z"/>
<defs>
	<clipPath id="z21627c1"><use xlink:href="#z21627d1"/></clipPath>
	<clipPath id="z21627c2"><use xlink:href="#z21627d2"/></clipPath>
	<clipPath id="z21627c3"><use xlink:href="#z21627d3"/></clipPath>
	<clipPath id="z21627c4"><use xlink:href="#z21627d4"/></clipPath>
	<clipPath id="z21627c5"><use xlink:href="#z21627d5"/></clipPath>
	<clipPath id="z21627c6"><use xlink:href="#z21627d6"/></clipPath>
	<clipPath id="z21627c7"><use xlink:href="#z21627d7"/></clipPath>
	<clipPath id="z21627c8"><use xlink:href="#z21627d8"/></clipPath>
</defs>
<path pathLength="3333" clip-path="url(#z21627c1)" d="M103 313L138 352L175 587"/>
<path pathLength="3333" clip-path="url(#z21627c2)" d="M160 319L287 289L330 315L299 459L280 461"/>
<path pathLength="3333" clip-path="url(#z21627c3)" d="M194 519L277 487L347 488"/>
<path pathLength="3333" clip-path="url(#z21627c4)" d="M402 274L435 304L491 591"/>
<path pathLength="3333" clip-path="url(#z21627c5)" d="M474 314L741 253L831 268L852 302L794 526L763 568"/>
<path pathLength="3333" clip-path="url(#z21627c6)" d="M539 415L735 394"/>
<path pathLength="3333" clip-path="url(#z21627c7)" d="M508 561L754 518"/>
<path pathLength="3333" clip-path="url(#z21627c8)" d="M575 65L646 114L624 950"/>
</svg>