<!--
AnimCJK 2016-2019 Copyright Francois Mizessyn - https://github.com/parsimonhi/animCJK
Derived from:
    MakeMeAHanzi project - https://github.com/skishore/makemeahanzi
    Arphic PL KaitiM GB font
    Arphic PL UKai font
You can redistribute and/or modify this file under the terms of the Arphic Public License
as published by Arphic Technology Co., Ltd.
You should have received a copy of this license along with this file.
If not, see http://ftp.gnu.org/non-gnu/chinese-fonts-truetype/LICENSE.
-->
<svg id="z21636" class="acjk" version="1.1" viewBox="0 0 1024 1024" xmlns="http://www.w3.org/2000/svg" xmlns:xlink="http://www.w3.org/1999/xlink">
<style>
<![CDATA[
@keyframes zk {
	to {
		stroke-dashoffset:0;
	}
}
svg.acjk path[clip-path] {
	--t:0.8s;
	animation:zk var(--t) linear forwards var(--d);
	stroke-dasharray:3337;
	stroke-dashoffset:3339;
	stroke-width:128;
	stroke-linecap:round;
	fill:none;
	stroke:#000;
}
svg.acjk path[id] {fill:#ccc;}
]]>
</style>
<path id="z21636d1" d="M131 373Q119 367 97 362Q85 358 81 362Q74 368 81 385Q108 455 115 569Q116 603 133 627Q149 651 155 635Q164 616 162 582C160 559 160 559 159 547Q149 429 148 400C148 389 141 377 131 373Z"/>
<path id="z21636d2" d="M298 520Q314 423 340 393Q362 366 338 352Q317 342 289 324Q265 312 226 341Q187 356 131 373C121 377 138 403 148 400Q154 397 231 379Q253 373 259 382Q268 389 261 429Q254 469 245 518C242 535 295 537 298 520Z"/>
<path id="z21636d3" d="M162 582Q204 567 311 551Q321 550 322 540Q322 533 298 520C283 511 261 511 245 518Q244 518 242 519Q196 535 159 547C148 551 151 586 162 582Z"/>
<path id="z21636d4" d="M655 491Q664 487 675 486Q745 473 772 475C785 475 796 436 783 438Q716 444 656 455C624 460 624 460 608 463Q542 473 486 491Q465 497 470 471Q480 381 470 365Q437 329 411 333Q401 337 409 356Q430 401 424 446Q420 489 402 508Q384 524 392 538Q402 554 419 564Q432 571 442 563Q463 536 608 501C639 494 639 494 655 491Z"/>
<path id="z21636d5" d="M773 477Q776 507 784 527Q791 543 804 533Q831 508 840 429Q861 348 870 335Q879 322 870 307Q852 291 822 270Q810 263 798 267Q791 270 792 283Q816 346 783 438C778 450 769 462 772 475C773 476 773 476 773 477Z"/>
<path id="z21636d6" d="M648 759Q652 621 655 491C656 467 656 467 656 455Q659 272 682 158Q686 145 662 128Q620 106 592 102Q573 98 564 108Q555 118 565 135Q602 189 603 226Q607 340 608 463C608 488 608 488 608 501Q607 628 599 770C599 787 648 776 648 759Z"/>
<path id="z21636d7" d="M826 730Q730 742 648 759C615 766 615 766 599 770Q526 783 464 804Q445 808 451 787Q466 693 458 679Q445 661 420 646Q410 640 399 642Q387 646 395 665Q413 713 403 758Q396 801 377 821Q358 839 366 853Q376 869 394 880Q407 887 418 879Q439 855 578 816Q785 756 826 771Q827 770 830 770C843 767 839 727 826 730Z"/>
<path id="z21636d8" d="M830 770Q831 794 829 812Q819 836 857 884Q869 897 878 883Q897 853 882 774Q876 672 880 651Q884 635 872 625Q850 615 815 603Q802 599 791 607Q785 611 790 624Q805 636 826 730C829 757 829 757 830 770Z"/>
<defs>
	<clipPath id="z21636c1"><use xlink:href="#z21636d1"/></clipPath>
	<clipPath id="z21636c2"><use xlink:href="#z21636d2"/></clipPath>
	<clipPath id="z21636c3"><use xlink:href="#z21636d3"/></clipPath>
	<clipPath id="z21636c4"><use xlink:href="#z21636d4"/></clipPath>
	<clipPath id="z21636c5"><use xlink:href="#z21636d5"/></clipPath>
	<clipPath id="z21636c6"><use xlink:href="#z21636d6"/></clipPath>
	<clipPath id="z21636c7"><use xlink:href="#z21636d7"/></clipPath>
	<clipPath id="z21636c8"><use xlink:href="#z21636d8"/></clipPath>
</defs>
<path style="--d:1s;" pathLength="3333" clip-path="url(#z21636c1)" d="M85 367L122 419L145 636"/>
<path style="--d:2s;" pathLength="3333" clip-path="url(#z21636c2)" d="M139 377L265 350L299 370L265 518"/>
<path style="--d:3s;" pathLength="3333" clip-path="url(#z21636c3)" d="M164 574L245 540L314 538"/>
<path style="--d:4s;" pathLength="3333" clip-path="url(#z21636c4)" d="M415 337L448 388L432 507L450 528L778 448"/>
<path style="--d:5s;" pathLength="3333" clip-path="url(#z21636c5)" d="M802 270L837 324L799 532"/>
<path style="--d:6s;" pathLength="3333" clip-path="url(#z21636c6)" d="M567 111L640 182L624 753L609 766"/>
<path style="--d:7s;" pathLength="3333" clip-path="url(#z21636c7)" d="M401 650L432 692L412 823L431 844L827 746"/>
<path style="--d:8s;" pathLength="3333" clip-path="url(#z21636c8)" d="M794 614L846 657L863 886"/>
</svg>