<!--
AnimCJK 2016-2018 Copyright Francois Mizessyn, http://gooo.free.fr/animCJK/
Derived from:
    MakeMeAHanzi project - https://github.com/skishore/makemeahanzi
    Arphic PL KaitiM GB - https://apps.ubuntu.com/cat/applications/precise/fonts-arphic-gkai00mp/
    Arphic PL UKai - https://apps.ubuntu.com/cat/applications/fonts-arphic-ukai/
You can redistribute and/or modify this file under the terms of the Arphic Public License
as published by Arphic Technology Co., Ltd.
You should have received a copy of this license (the directory "APL") along with this file;
if not, see http://ftp.gnu.org/non-gnu/chinese-fonts-truetype/LICENSE.
-->
<svg id="z21698" class="acjk" version="1.1" viewBox="0 0 1024 1024" xmlns="http://www.w3.org/2000/svg" xmlns:xlink="http://www.w3.org/1999/xlink">
<style>
<![CDATA[
@keyframes z21698k {
	from {
		stroke:#ccc;
		stroke-dashoffset:3334;
	}
	1% {
		stroke:#c00;
		stroke-dashoffset:3334;
	}
	75% {
		stroke:#c00;
		stroke-dashoffset:0;
	}
	to {
		stroke:#000;
	}
}
#z21698 path[clip-path] {
	animation:z21698k 1s linear both;
	stroke-dasharray:3334;
	stroke-width:128;
	stroke-linecap:round;
	fill:none;
}
#z21698 path[clip-path="url(#z21698c1)"] {animation-delay:1s;}
#z21698 path[clip-path="url(#z21698c2)"] {animation-delay:2s;}
#z21698 path[clip-path="url(#z21698c3)"] {animation-delay:3s;}
#z21698 path[clip-path="url(#z21698c4)"] {animation-delay:4s;}
#z21698 path[clip-path="url(#z21698c5)"] {animation-delay:5s;}
#z21698 path[clip-path="url(#z21698c6)"] {animation-delay:6s;}
#z21698 path[clip-path="url(#z21698c7)"] {animation-delay:7s;}
#z21698 path[clip-path="url(#z21698c8)"] {animation-delay:8s;}
#z21698 path[clip-path="url(#z21698c9)"] {animation-delay:9s;}
#z21698 path {fill:#ccc;}
]]>
</style>
<path id="z21698d1" d="M126 335Q113 329 85 322Q73 318 69 323Q62 329 70 345Q98 420 109 539Q110 575 129 600Q145 622 151 607Q160 585 156 543L152 506Q139 395 137 364L126 335 Z"/>
<path id="z21698d2" d="M290 486Q306 389 332 357Q354 329 330 316Q309 306 281 288Q257 276 218 305Q164 326 126 335L137 364Q200 349 223 343Q245 337 251 346Q260 353 253 394Q246 433 238 479L290 486 Z"/>
<path id="z21698d3" d="M156 543Q163 543 171 541Q211 529 302 517Q312 516 313 506Q313 499 290 486L238 479Q234 480 229 482Q186 497 152 506L156 543 Z"/>
<path id="z21698d4" d="M695 223Q702 222 714 220Q781 213 837 205Q847 206 856 194Q857 182 835 172Q804 150 735 170Q579 200 447 220Q429 221 413 224Q385 227 406 244Q436 271 478 261Q488 258 503 257L550 249Q587 240 630 234L695 223 Z"/>
<path id="z21698d5" d="M373 456Q355 446 337 441Q330 438 324 444Q317 450 326 462Q368 534 376 708Q377 775 416 803Q417 803 419 805Q438 811 439 778Q439 771 439 765L434 726Q416 606 411 497L373 456 Z"/>
<path id="z21698d6" d="M755 739Q765 764 788 815Q797 833 807 832Q823 829 833 804Q864 740 885 549Q891 498 914 466Q933 445 919 431Q897 409 847 387Q828 377 793 389Q739 405 683 420L646 429Q630 429 570 441L523 446Q456 450 373 456L411 497Q420 498 429 496Q469 489 520 480L565 473Q602 466 644 460L683 454Q798 432 818 452Q842 501 802 699Q801 718 792 720Q789 721 777 717L755 739 Z"/>
<path id="z21698d7" d="M503 257Q524 284 524 441Q523 442 523 446L520 480Q504 564 463 657Q459 663 458 668Q457 678 466 675Q494 666 543 560Q543 556 545 553Q558 516 565 473L570 441Q576 395 576 310Q580 270 577 264Q567 255 550 249L503 257 Z"/>
<path id="z21698d8" d="M683 420Q686 344 709 252Q713 237 705 228Q701 225 695 223L630 234Q648 252 649 352Q648 388 646 429L644 460Q644 470 644 481Q637 584 682 618Q697 631 761 624Q794 621 804 605Q813 593 805 587Q799 580 732 580Q683 580 683 463Q683 459 683 454L683 420 Z"/>
<path id="z21698d9" d="M439 765Q445 765 453 765Q549 746 755 739L777 717Q767 707 750 694Q732 682 697 689Q550 717 434 726L439 765 Z"/>
<defs>
	<clipPath id="z21698c1"><use xlink:href="#z21698d1"/></clipPath>
	<clipPath id="z21698c2"><use xlink:href="#z21698d2"/></clipPath>
	<clipPath id="z21698c3"><use xlink:href="#z21698d3"/></clipPath>
	<clipPath id="z21698c4"><use xlink:href="#z21698d4"/></clipPath>
	<clipPath id="z21698c5"><use xlink:href="#z21698d5"/></clipPath>
	<clipPath id="z21698c6"><use xlink:href="#z21698d6"/></clipPath>
	<clipPath id="z21698c7"><use xlink:href="#z21698d7"/></clipPath>
	<clipPath id="z21698c8"><use xlink:href="#z21698d8"/></clipPath>
	<clipPath id="z21698c9"><use xlink:href="#z21698d9"/></clipPath>
</defs>
<path pathLength="3333" clip-path="url(#z21698c1)" d="M72 328L111 379L143 606"/>
<path pathLength="3333" clip-path="url(#z21698c2)" d="M133 338L250 313L298 340L258 481"/>
<path pathLength="3333" clip-path="url(#z21698c3)" d="M159 536L232 504L305 504"/>
<path pathLength="3333" clip-path="url(#z21698c4)" d="M405 233L847 190"/>
<path pathLength="3333" clip-path="url(#z21698c5)" d="M330 451L380 509L420 800"/>
<path pathLength="3333" clip-path="url(#z21698c6)" d="M382 458L427 474L807 414L856 434L874 455L825 733L798 778L760 735"/>
<path pathLength="3333" clip-path="url(#z21698c7)" d="M511 259L546 282L545 455L511 585L464 667"/>
<path pathLength="3333" clip-path="url(#z21698c8)" d="M639 237L677 259L663 493L678 573L715 602L802 598"/>
<path pathLength="3333" clip-path="url(#z21698c9)" d="M441 731L770 718"/>
</svg>