<!--
AnimCJK 2016-2018 Copyright Francois Mizessyn - https://github.com/parsimonhi/animCJK
Derived from:
    MakeMeAHanzi project - https://github.com/skishore/makemeahanzi
    Arphic PL KaitiM GB - https://apps.ubuntu.com/cat/applications/precise/fonts-arphic-gkai00mp/
    Arphic PL UKai - https://apps.ubuntu.com/cat/applications/fonts-arphic-ukai/
You can redistribute and/or modify this file under the terms of the Arphic Public License
as published by Arphic Technology Co., Ltd.
You should have received a copy of this license (the directory "APL") along with this file;
if not, see http://ftp.gnu.org/non-gnu/chinese-fonts-truetype/LICENSE.
-->
<svg id="z21702" class="acjk" version="1.1" viewBox="0 0 1024 1024" xmlns="http://www.w3.org/2000/svg" xmlns:xlink="http://www.w3.org/1999/xlink">
<style>
<![CDATA[
@keyframes z21702k {
	from {
		stroke:#c00;
		stroke-dashoffset:3334;
	}
	75% {
		stroke:#c00;
		stroke-dashoffset:0;
	}
	to {
		stroke:#000;
	}
}
#z21702 path[clip-path] {
	animation:z21702k 1s linear both;
	stroke-dasharray:3334;
	stroke-width:128;
	stroke-linecap:round;
	fill:none;
}
#z21702 path[clip-path="url(#z21702c1)"] {animation-delay:1s;}
#z21702 path[clip-path="url(#z21702c2)"] {animation-delay:2s;}
#z21702 path[clip-path="url(#z21702c3)"] {animation-delay:3s;}
#z21702 path[clip-path="url(#z21702c4)"] {animation-delay:4s;}
#z21702 path[clip-path="url(#z21702c5)"] {animation-delay:5s;}
#z21702 path[clip-path="url(#z21702c6)"] {animation-delay:6s;}
#z21702 path[clip-path="url(#z21702c7)"] {animation-delay:7s;}
#z21702 path[clip-path="url(#z21702c8)"] {animation-delay:8s;}
#z21702 path[clip-path="url(#z21702c9)"] {animation-delay:9s;}
#z21702 path {fill:#ccc;}
]]>
</style>
<path id="z21702d1" d="M134 307Q121 303 101 299Q88 295 85 300Q78 307 86 323Q117 393 131 507Q134 541 152 564Q170 586 175 571Q182 550 179 514L174 480Q156 368 154 338L134 307 Z"/>
<path id="z21702d2" d="M319 444Q335 354 360 325Q382 297 357 282Q287 249 286 249Q274 249 265 256Q225 283 134 307L154 338Q181 329 247 314Q269 310 275 318Q284 324 278 362Q272 402 263 451L319 444 Z"/>
<path id="z21702d3" d="M179 514Q185 514 192 512Q238 497 343 479Q353 478 354 468Q354 461 321 444L319 444L263 451Q214 467 174 480L179 514 Z"/>
<path id="z21702d4" d="M590 177Q620 135 643 118Q653 108 650 96Q647 83 623 59Q599 40 582 38Q564 39 570 60Q589 120 417 304Q407 313 404 318Q400 328 413 327Q435 324 494 273L503 265Q510 258 518 251Q540 232 563 207L590 177 Z"/>
<path id="z21702d5" d="M573 361Q566 367 561 375Q506 436 398 518Q383 530 398 531Q509 515 715 268Q730 235 782 196Q797 186 792 176Q791 166 729 142Q714 133 663 158Q644 161 590 177L563 207Q584 214 651 198Q670 194 676 201Q679 208 667 228Q636 286 586 346L573 361 Z"/>
<path id="z21702d6" d="M494 273Q490 282 535 342Q550 360 573 361L586 346Q587 333 581 314Q568 284 504 265L503 265L494 273 Z"/>
<path id="z21702d7" d="M534 626Q535 623 540 621Q583 587 617 552L646 521Q676 487 693 472Q703 460 701 451Q698 438 673 430Q645 420 633 423Q626 424 623 437Q596 530 393 688Q372 703 399 699Q438 696 512 644L534 626 Z"/>
<path id="z21702d8" d="M617 552Q666 564 739 539Q761 535 769 541Q776 547 751 595Q628 847 312 951Q302 955 302 960Q302 964 310 965Q430 977 605 850Q633 826 664 798Q739 726 819 605Q838 578 867 562Q883 555 885 546Q886 533 858 512Q824 485 808 484Q796 483 784 491Q706 510 646 521L617 552 Z"/>
<path id="z21702d9" d="M512 644Q515 653 591 717Q610 733 628 733Q643 733 648 713Q648 700 637 679Q622 657 591 647Q555 631 534 626L512 644 Z"/>
<defs>
	<clipPath id="z21702c1"><use xlink:href="#z21702d1"/></clipPath>
	<clipPath id="z21702c2"><use xlink:href="#z21702d2"/></clipPath>
	<clipPath id="z21702c3"><use xlink:href="#z21702d3"/></clipPath>
	<clipPath id="z21702c4"><use xlink:href="#z21702d4"/></clipPath>
	<clipPath id="z21702c5"><use xlink:href="#z21702d5"/></clipPath>
	<clipPath id="z21702c6"><use xlink:href="#z21702d6"/></clipPath>
	<clipPath id="z21702c7"><use xlink:href="#z21702d7"/></clipPath>
	<clipPath id="z21702c8"><use xlink:href="#z21702d8"/></clipPath>
	<clipPath id="z21702c9"><use xlink:href="#z21702d9"/></clipPath>
</defs>
<path pathLength="3333" clip-path="url(#z21702c1)" d="M91 308L127 349L167 571"/>
<path pathLength="3333" clip-path="url(#z21702c2)" d="M141 308L280 283L321 306L292 438L273 447"/>
<path pathLength="3333" clip-path="url(#z21702c3)" d="M184 507L272 470L348 468"/>
<path pathLength="3333" clip-path="url(#z21702c4)" d="M576 47L607 106L413 320"/>
<path pathLength="3333" clip-path="url(#z21702c5)" d="M574 202L697 172L736 202L564 402L400 525"/>
<path pathLength="3333" clip-path="url(#z21702c6)" d="M503 276L579 349"/>
<path pathLength="3333" clip-path="url(#z21702c7)" d="M696 451L647 464L541 591L393 694"/>
<path pathLength="3333" clip-path="url(#z21702c8)" d="M630 545L785 514L828 545L708 713L513 884L311 957"/>
<path pathLength="3333" clip-path="url(#z21702c9)" d="M519 643L638 724"/>
</svg>