<!--
AnimCJK 2016-2018 Copyright Francois Mizessyn - https://github.com/parsimonhi/animCJK
Derived from:
    MakeMeAHanzi project - https://github.com/skishore/makemeahanzi
    Arphic PL KaitiM GB - https://apps.ubuntu.com/cat/applications/precise/fonts-arphic-gkai00mp/
    Arphic PL UKai - https://apps.ubuntu.com/cat/applications/fonts-arphic-ukai/
You can redistribute and/or modify this file under the terms of the Arphic Public License
as published by Arphic Technology Co., Ltd.
You should have received a copy of this license (the directory "APL") along with this file;
if not, see http://ftp.gnu.org/non-gnu/chinese-fonts-truetype/LICENSE.
-->
<svg id="z21704" class="acjk" version="1.1" viewBox="0 0 1024 1024" xmlns="http://www.w3.org/2000/svg" xmlns:xlink="http://www.w3.org/1999/xlink">
<style>
<![CDATA[
@keyframes z21704k {
	from {
		stroke:#ccc;
		stroke-dashoffset:3334;
	}
	1% {
		stroke:#c00;
		stroke-dashoffset:3334;
	}
	75% {
		stroke:#c00;
		stroke-dashoffset:0;
	}
	to {
		stroke:#000;
	}
}
#z21704 path[clip-path] {
	animation:z21704k 1s linear both;
	stroke-dasharray:3334;
	stroke-width:128;
	stroke-linecap:round;
	fill:none;
}
#z21704 path[clip-path="url(#z21704c1)"] {animation-delay:1s;}
#z21704 path[clip-path="url(#z21704c2)"] {animation-delay:2s;}
#z21704 path[clip-path="url(#z21704c3)"] {animation-delay:3s;}
#z21704 path[clip-path="url(#z21704c4)"] {animation-delay:4s;}
#z21704 path[clip-path="url(#z21704c5)"] {animation-delay:5s;}
#z21704 path[clip-path="url(#z21704c6)"] {animation-delay:6s;}
#z21704 path[clip-path="url(#z21704c7)"] {animation-delay:7s;}
#z21704 path[clip-path="url(#z21704c8)"] {animation-delay:8s;}
#z21704 path[clip-path="url(#z21704c9)"] {animation-delay:9s;}
#z21704 path {fill:#ccc;}
]]>
</style>
<path id="z21704d1" d="M116 328Q106 321 74 315Q62 311 59 316Q52 322 60 337Q88 406 102 517Q103 550 121 573Q137 594 143 579Q149 563 147 531C144 508 144 508 143 497Q127 391 124 357C122 347 125 332 116 328Z"></path>
<path id="z21704d2" d="M281 473Q297 376 324 345Q346 317 322 304Q301 294 272 277Q250 265 210 294Q153 315 116 328C107 332 114 359 124 357Q131 356 142 352Q182 340 215 332Q237 326 244 335Q253 342 245 382Q238 424 228 473C225 490 278 490 281 473Z"></path>
<path id="z21704d3" d="M147 531Q153 531 160 530Q203 518 298 507Q308 506 309 496Q309 489 281 473C266 464 245 467 228 473Q182 486 143 497C132 501 136 531 147 531Z"></path>
<path id="z21704d4" d="M575 235Q600 189 607 182Q614 175 612 164Q609 152 594 140Q546 107 516 119Q506 122 510 136Q538 236 382 465Q372 477 363 490Q314 554 188 682Q179 689 192 691Q220 685 330 597Q331 593 336 591Q445 489 563 259C571 243 571 243 575 235Z"></path>
<path id="z21704d5" d="M563 259Q659 392 781 531Q800 553 835 553Q950 552 988 547Q998 544 1000 539Q1000 533 984 526Q831 474 773 428Q682 349 575 235C569 229 558 252 563 259Z"></path>
<path id="z21704d6" d="M456 520Q420 527 447 542Q487 566 541 550Q601 537 663 523Q691 516 696 511Q703 504 699 495Q692 485 664 478Q634 474 605 485Q574 497 539 506Q502 515 456 520Z"></path>
<path id="z21704d7" d="M436 671Q423 664 390 659Q377 655 373 661Q366 668 375 685Q406 752 424 861Q428 894 446 915Q465 940 472 922Q478 906 476 875C472 850 472 850 470 838Q454 739 451 706C451 693 448 676 436 671Z"></path>
<path id="z21704d8" d="M721 799Q743 724 777 698Q795 677 779 658Q695 595 639 627Q546 655 436 671C423 673 439 708 451 706Q458 705 469 701Q557 686 642 671Q664 667 673 675Q683 684 681 703Q674 757 663 801C659 820 717 818 721 799Z"></path>
<path id="z21704d9" d="M476 875Q506 860 743 840Q753 839 755 830Q756 821 724 800Q723 799 721 799C703 792 682 798 663 801Q555 825 470 838C458 840 464 880 476 875Z"></path>
<defs>
	<clipPath id="z21704c1"><use xlink:href="#z21704d1"></use></clipPath>
	<clipPath id="z21704c2"><use xlink:href="#z21704d2"></use></clipPath>
	<clipPath id="z21704c3"><use xlink:href="#z21704d3"></use></clipPath>
	<clipPath id="z21704c4"><use xlink:href="#z21704d4"></use></clipPath>
	<clipPath id="z21704c5"><use xlink:href="#z21704d5"></use></clipPath>
	<clipPath id="z21704c6"><use xlink:href="#z21704d6"></use></clipPath>
	<clipPath id="z21704c7"><use xlink:href="#z21704d7"></use></clipPath>
	<clipPath id="z21704c8"><use xlink:href="#z21704d8"></use></clipPath>
	<clipPath id="z21704c9"><use xlink:href="#z21704d9"></use></clipPath>
</defs>
<path pathLength="3333" clip-path="url(#z21704c1)" d="M64 322L96 357L133 579"></path>
<path pathLength="3333" clip-path="url(#z21704c2)" d="M127 349L245 301L286 326L249 472"></path>
<path pathLength="3333" clip-path="url(#z21704c3)" d="M152 523L303 492"></path>
<path pathLength="3333" clip-path="url(#z21704c4)" d="M515 128L562 180L474 367L347 546L192 685"></path>
<path pathLength="3333" clip-path="url(#z21704c5)" d="M579 248L816 505L991 536"></path>
<path pathLength="3333" clip-path="url(#z21704c6)" d="M444 529L696 499"></path>
<path pathLength="3333" clip-path="url(#z21704c7)" d="M377 665L422 719L458 922"></path>
<path pathLength="3333" clip-path="url(#z21704c8)" d="M444 675L697 650L732 692L674 797"></path>
<path pathLength="3333" clip-path="url(#z21704c9)" d="M482 866L639 827L745 825"></path>
</svg>