<!--
AnimCJK 2016-2018 Copyright Francois Mizessyn - https://github.com/parsimonhi/animCJK
Derived from:
    MakeMeAHanzi project - https://github.com/skishore/makemeahanzi
    Arphic PL KaitiM GB - https://apps.ubuntu.com/cat/applications/precise/fonts-arphic-gkai00mp/
    Arphic PL UKai - https://apps.ubuntu.com/cat/applications/fonts-arphic-ukai/
You can redistribute and/or modify this file under the terms of the Arphic Public License
as published by Arphic Technology Co., Ltd.
You should have received a copy of this license (the directory "APL") along with this file;
if not, see http://ftp.gnu.org/non-gnu/chinese-fonts-truetype/LICENSE.
-->
<svg id="z21702" class="acjk" version="1.1" viewBox="0 0 1024 1024" xmlns="http://www.w3.org/2000/svg" xmlns:xlink="http://www.w3.org/1999/xlink">
<style>
<![CDATA[
@keyframes z21702k {
	from {
		stroke:#ccc;
		stroke-dashoffset:3334;
	}
	1% {
		stroke:#c00;
		stroke-dashoffset:3334;
	}
	75% {
		stroke:#c00;
		stroke-dashoffset:0;
	}
	to {
		stroke:#000;
	}
}
#z21702 path[clip-path] {
	animation:z21702k 1s linear both;
	stroke-dasharray:3334;
	stroke-width:128;
	stroke-linecap:round;
	fill:none;
}
#z21702 path[clip-path="url(#z21702c1)"] {animation-delay:1s;}
#z21702 path[clip-path="url(#z21702c2)"] {animation-delay:2s;}
#z21702 path[clip-path="url(#z21702c3)"] {animation-delay:3s;}
#z21702 path[clip-path="url(#z21702c4)"] {animation-delay:4s;}
#z21702 path[clip-path="url(#z21702c5)"] {animation-delay:5s;}
#z21702 path[clip-path="url(#z21702c6)"] {animation-delay:6s;}
#z21702 path[clip-path="url(#z21702c7)"] {animation-delay:7s;}
#z21702 path[clip-path="url(#z21702c8)"] {animation-delay:8s;}
#z21702 path[clip-path="url(#z21702c9)"] {animation-delay:9s;}
#z21702 path {fill:#ccc;}
]]>
</style>
<path id="z21702d1" d="M134 307Q121 303 101 299Q88 295 85 300Q78 307 86 323Q117 393 131 507Q134 541 152 564Q170 586 175 571Q182 550 179 514C176 491 176 491 174 480Q156 368 154 338C154 326 146 309 134 307Z"></path>
<path id="z21702d2" d="M319 444Q335 354 360 325Q382 297 357 282Q287 249 286 249Q274 249 265 256Q225 283 134 307C122 311 143 343 154 338Q181 329 247 314Q269 310 275 318Q284 324 278 362Q272 402 263 451C259 469 315 462 319 444Z"></path>
<path id="z21702d3" d="M179 514Q185 514 192 512Q238 497 343 479Q353 478 354 468Q354 461 321 444C320 444 320 444 319 444C302 437 281 445 263 451Q214 467 174 480C163 484 168 514 179 514Z"></path>
<path id="z21702d4" d="M590 177Q620 135 643 118Q653 108 650 96Q647 83 623 59Q599 40 582 38Q564 39 570 60Q589 120 417 304Q407 313 404 318Q400 328 413 327Q435 324 494 273C500 268 500 268 503 265Q510 258 518 251Q540 232 563 207C581 187 581 187 590 177Z"></path>
<path id="z21702d5" d="M573 361C545 392 469 463 398 518C387 525 388 532 398 531C472 522 582 436 715 268C730 249 747 221 782 196C791 188 794 183 792 176C790 169 769 159 729 142C718 137 698 143 663 158C651 162 634 167 590 177C577 179 550 205 563 207C577 211 606 208 651 198C663 195 672 195 676 201C678 205 674 214 667 228C645 266 620 306 586 346C577 356 577 356 573 361Z"></path>
<path id="z21702d6" d="M494 273Q490 282 535 342Q550 360 573 361C580 361 586 353 586 346Q587 333 581 314Q568 284 504 265C500 263 494 269 494 273Z"></path>
<path id="z21702d7" d="M534 626Q535 623 540 621Q583 587 617 552C636 531 636 531 646 521Q676 487 693 472Q703 460 701 451Q698 438 673 430Q645 420 633 423Q626 424 623 437Q596 530 393 688Q372 703 399 699Q438 696 512 644C527 632 527 632 534 626Z"></path>
<path id="z21702d8" d="M617 552C649 560 689 554 739 539C753 534 763 536 769 541C773 544 767 562 751 595C668 762 522 881 312 951C305 953 302 956 302 960C302 962 304 964 310 965C390 973 489 936 605 850C624 835 643 817 664 798C714 750 765 685 819 605C831 586 847 572 867 562C877 556 884 552 885 546C886 537 876 526 858 512C835 494 818 484 808 484C800 483 793 488 784 491C732 506 686 513 646 521C632 523 603 549 617 552Z"></path>
<path id="z21702d9" d="M512 644Q515 653 591 717Q610 733 628 733Q643 733 648 713Q648 700 637 679Q622 657 591 647Q555 631 534 626C525 624 506 636 512 644Z"></path>
<defs>
	<clipPath id="z21702c1"><use xlink:href="#z21702d1"></use></clipPath>
	<clipPath id="z21702c2"><use xlink:href="#z21702d2"></use></clipPath>
	<clipPath id="z21702c3"><use xlink:href="#z21702d3"></use></clipPath>
	<clipPath id="z21702c4"><use xlink:href="#z21702d4"></use></clipPath>
	<clipPath id="z21702c5"><use xlink:href="#z21702d5"></use></clipPath>
	<clipPath id="z21702c6"><use xlink:href="#z21702d6"></use></clipPath>
	<clipPath id="z21702c7"><use xlink:href="#z21702d7"></use></clipPath>
	<clipPath id="z21702c8"><use xlink:href="#z21702d8"></use></clipPath>
	<clipPath id="z21702c9"><use xlink:href="#z21702d9"></use></clipPath>
</defs>
<path pathLength="3333" clip-path="url(#z21702c1)" d="M91 308L127 349L167 571"></path>
<path pathLength="3333" clip-path="url(#z21702c2)" d="M141 308L280 283L321 306L292 438L273 447"></path>
<path pathLength="3333" clip-path="url(#z21702c3)" d="M184 507L272 470L348 468"></path>
<path pathLength="3333" clip-path="url(#z21702c4)" d="M576 47L607 106L413 320"></path>
<path pathLength="3333" clip-path="url(#z21702c5)" d="M574 202L697 172L736 202L564 402L400 525"></path>
<path pathLength="3333" clip-path="url(#z21702c6)" d="M503 276L579 349"></path>
<path pathLength="3333" clip-path="url(#z21702c7)" d="M 634,430 657,463 541,591 393,694"></path>
<path pathLength="3333" clip-path="url(#z21702c8)" d="M630 545L785 514L828 545L708 713L513 884L311 957"></path>
<path pathLength="3333" clip-path="url(#z21702c9)" d="M519 643L638 724"></path>
</svg>