<!--
AnimCJK 2016-2018 Copyright Francois Mizessyn - https://github.com/parsimonhi/animCJK
Derived from:
    MakeMeAHanzi project - https://github.com/skishore/makemeahanzi
    Arphic PL KaitiM GB - https://apps.ubuntu.com/cat/applications/precise/fonts-arphic-gkai00mp/
    Arphic PL UKai - https://apps.ubuntu.com/cat/applications/fonts-arphic-ukai/
You can redistribute and/or modify this file under the terms of the Arphic Public License
as published by Arphic Technology Co., Ltd.
You should have received a copy of this license (the directory "APL") along with this file;
if not, see http://ftp.gnu.org/non-gnu/chinese-fonts-truetype/LICENSE.
-->
<svg id="z21727" class="acjk" version="1.1" viewBox="0 0 1024 1024" xmlns="http://www.w3.org/2000/svg" xmlns:xlink="http://www.w3.org/1999/xlink">
<style>
<![CDATA[
@keyframes z21727k {
	from {
		stroke:#ccc;
		stroke-dashoffset:3334;
	}
	1% {
		stroke:#c00;
		stroke-dashoffset:3334;
	}
	75% {
		stroke:#c00;
		stroke-dashoffset:0;
	}
	to {
		stroke:#000;
	}
}
#z21727 path[clip-path] {
	animation:z21727k 1s linear both;
	stroke-dasharray:3334;
	stroke-width:128;
	stroke-linecap:round;
	fill:none;
}
#z21727 path[clip-path="url(#z21727c1)"] {animation-delay:1s;}
#z21727 path[clip-path="url(#z21727c2)"] {animation-delay:2s;}
#z21727 path[clip-path="url(#z21727c3)"] {animation-delay:3s;}
#z21727 path[clip-path="url(#z21727c4)"] {animation-delay:4s;}
#z21727 path[clip-path="url(#z21727c5)"] {animation-delay:5s;}
#z21727 path[clip-path="url(#z21727c6)"] {animation-delay:6s;}
#z21727 path[clip-path="url(#z21727c7)"] {animation-delay:7s;}
#z21727 path[clip-path="url(#z21727c8)"] {animation-delay:8s;}
#z21727 path[clip-path="url(#z21727c9)"] {animation-delay:9s;}
#z21727 path {fill:#ccc;}
]]>
</style>
<path id="z21727d1" d="M99 372Q87 368 65 363Q52 359 49 364Q42 370 50 386Q77 450 90 555Q91 586 108 608Q124 630 131 615Q138 599 136 569C134 549 134 549 133 539Q118 422 118 396C118 386 108 376 99 372Z"></path>
<path id="z21727d2" d="M257 511Q269 414 293 384Q312 359 290 346Q232 319 231 319Q219 319 210 325Q180 347 99 372C90 376 109 400 118 396Q157 383 191 374Q213 367 220 376Q229 382 223 420Q217 463 210 512C207 527 254 526 257 511Z"></path>
<path id="z21727d3" d="M136 569Q145 570 157 566Q193 556 272 541Q282 540 282 531Q282 524 257 511C244 503 225 509 210 512Q209 512 208 512Q165 528 133 539C124 543 126 569 136 569Z"></path>
<path id="z21727d4" d="M471 437Q426 436 390 437Q356 438 373 416Q439 293 502 200Q515 184 512 176Q509 163 471 134Q455 122 437 126Q427 130 433 144Q455 196 355 380Q337 405 312 431Q294 444 296 456Q300 475 315 491Q325 501 337 494Q376 470 456 460C465 458 480 437 471 437Z"></path>
<path id="z21727d5" d="M456 460Q366 592 343 603Q330 613 333 626Q334 639 361 658Q371 670 386 657Q437 615 538 577Q557 571 559 563Q562 553 542 557Q491 567 429 587Q401 597 418 574Q454 522 536 418Q563 381 587 358Q599 348 592 338Q582 320 548 302Q532 293 523 297Q513 300 516 315Q517 349 471 437C461 452 461 452 456 460Z"></path>
<path id="z21727d6" d="M280 773Q267 776 266 786Q266 799 276 807Q301 820 336 834Q346 835 357 826Q375 805 514 715Q533 703 546 689Q558 680 557 671Q550 665 436 716Q303 770 280 773Z"></path>
<path id="z21727d7" d="M671 352Q722 247 736 214Q746 180 759 162Q766 150 759 139Q752 129 723 114Q696 104 679 107Q663 111 675 130Q699 163 653 296Q631 357 596 427Q589 439 588 444Q587 454 599 450Q614 444 657 378C666 361 666 361 671 352Z"></path>
<path id="z21727d8" d="M755 829Q742 830 676 795Q667 791 667 796Q666 800 676 810Q716 859 734 893Q744 914 757 914Q778 915 797 893Q867 832 883 685Q896 585 900 431Q900 397 921 369Q933 356 931 348Q930 341 911 329Q886 310 851 302Q826 295 810 304Q797 310 764 322Q719 338 688 346Q678 347 671 352C663 357 647 378 657 378Q684 381 785 357Q828 348 832 354Q854 396 836 618Q824 720 791 792Q775 826 755 829Z"></path>
<path id="z21727d9" d="M598 550Q623 578 650 611Q660 624 674 625Q683 626 689 615Q695 603 691 576Q687 546 599 509Q586 505 580 505Q576 508 575 519Q576 529 598 550Z"></path>
<defs>
	<clipPath id="z21727c1"><use xlink:href="#z21727d1"></use></clipPath>
	<clipPath id="z21727c2"><use xlink:href="#z21727d2"></use></clipPath>
	<clipPath id="z21727c3"><use xlink:href="#z21727d3"></use></clipPath>
	<clipPath id="z21727c4"><use xlink:href="#z21727d4"></use></clipPath>
	<clipPath id="z21727c5"><use xlink:href="#z21727d5"></use></clipPath>
	<clipPath id="z21727c6"><use xlink:href="#z21727d6"></use></clipPath>
	<clipPath id="z21727c7"><use xlink:href="#z21727d7"></use></clipPath>
	<clipPath id="z21727c8"><use xlink:href="#z21727d8"></use></clipPath>
	<clipPath id="z21727c9"><use xlink:href="#z21727d9"></use></clipPath>
</defs>
<path pathLength="3333" clip-path="url(#z21727c1)" d="M55 373L88 403L117 615"></path>
<path pathLength="3333" clip-path="url(#z21727c2)" d="M105 373L222 346L260 365L222 510"></path>
<path pathLength="3333" clip-path="url(#z21727c3)" d="M140 562L273 530"></path>
<path pathLength="3333" clip-path="url(#z21727c4)" d="M438 133L474 182L332 440L353 466L462 442"></path>
<path pathLength="3333" clip-path="url(#z21727c5)" d="M523 303L552 347L373 608L392 626L550 563"></path>
<path pathLength="3333" clip-path="url(#z21727c6)" d="M271 785L339 794L549 678"></path>
<path pathLength="3333" clip-path="url(#z21727c7)" d="M678 117L720 149L718 173L595 443"></path>
<path pathLength="3333" clip-path="url(#z21727c8)" d="M669 373L827 325L885 366L855 682L821 805L754 871L675 801"></path>
<path pathLength="3333" clip-path="url(#z21727c9)" d="M583 513L658 575L674 621"></path>
</svg>