<!--
AnimCJK 2016-2017 Copyright Francois Mizessyn, http://gooo.free.fr/animCJK/
Derived from:
    MakeMeAHanzi project - https://github.com/skishore/makemeahanzi
    Arphic PL KaitiM GB - https://apps.ubuntu.com/cat/applications/precise/fonts-arphic-gkai00mp/
    Arphic PL UKai - https://apps.ubuntu.com/cat/applications/fonts-arphic-ukai/
You can redistribute and/or modify this file under the terms of the Arphic Public License
as published by Arphic Technology Co., Ltd.
You should have received a copy of this license (the directory "APL") along with this file;
if not, see http://ftp.gnu.org/non-gnu/chinese-fonts-truetype/LICENSE.
-->
<svg id="z21737" class="acjk" version="1.1" viewBox="0 0 1024 1024" xmlns="http://www.w3.org/2000/svg" xmlns:xlink="http://www.w3.org/1999/xlink">
<style>
<![CDATA[
	@keyframes z21737k {
		from {
			stroke:#c00;
			stroke-dashoffset:3000;
		}
		75% {
			stroke:#c00;
			stroke-dashoffset:0;
		}
		to {
			stroke:#000;
		}
	}
	#z21737 path[clip-path] {
		animation:z21737k 1s linear both;
		stroke-dasharray:3000;
		stroke-width:128;
		stroke-linecap:round;
		fill:none;
	}
	#z21737 path[clip-path="url(#z21737c1)"] {animation-delay:1s;}
	#z21737 path[clip-path="url(#z21737c2)"] {animation-delay:2s;}
	#z21737 path[clip-path="url(#z21737c3)"] {animation-delay:3s;}
	#z21737 path[clip-path="url(#z21737c4)"] {animation-delay:4s;}
	#z21737 path[clip-path="url(#z21737c5)"] {animation-delay:5s;}
	#z21737 path[clip-path="url(#z21737c6)"] {animation-delay:6s;}
	#z21737 path[clip-path="url(#z21737c7)"] {animation-delay:7s;}
	#z21737 path[clip-path="url(#z21737c8)"] {animation-delay:8s;}
	#z21737 path[clip-path="url(#z21737c9)"] {animation-delay:9s;}
	#z21737 path[clip-path="url(#z21737c10)"] {animation-delay:10s;}
	#z21737 path {fill:#ccc;}
]]>
</style>
<g transform="scale(1,-1) translate(0,-900)">
	<path id="z21737d1" d="M141 596Q129 603 96 609Q83 613 79 608Q72 601 81 585Q114 506 129 377Q130 340 151 313Q170 289 175 305Q184 327 180 365L175 400Q156 530 152 567L141 596Z"/>
	<path id="z21737d2" d="M320 423Q335 540 365 575Q387 603 363 617Q342 627 313 645Q294 655 274 643Q238 619 141 596L152 567Q200 579 250 591Q275 597 282 587Q292 580 285 533Q278 485 268 428L320 423Z"/>
	<path id="z21737d3" d="M180 365Q213 377 330 393Q340 394 341 404Q341 411 320 423L268 428Q264 428 262 427Q214 411 175 400L180 365Z"/>
	<path id="z21737d4" d="M447 685Q425 697 404 701Q397 702 392 698Q385 692 395 681Q437 620 454 454Q458 394 496 368Q497 368 499 367Q512 364 515 380L514 412Q513 436 503 461Q499 495 490 541Q480 602 476 651L447 685Z"/>
	<path id="z21737d5" d="M733 413Q751 382 768 372Q778 362 798 386Q820 420 872 606Q884 640 911 667Q927 680 914 696Q898 715 852 747Q833 757 774 744Q762 743 573 708Q503 695 447 685L476 651Q476 652 478 652Q521 665 581 676L630 685Q789 718 809 699Q825 677 819 656Q774 482 758 457Q754 447 741 442L733 413Z"/>
	<path id="z21737d6" d="M657 550Q696 560 731 566Q756 570 746 584Q733 599 707 602Q688 603 658 594L605 576Q571 566 543 555Q525 549 548 535Q557 529 576 533Q589 537 605 539L657 550Z"/>
	<path id="z21737d7" d="M654 401Q696 408 733 413L741 442Q716 463 654 446L604 434Q556 424 514 412L515 380Q521 380 529 381Q568 388 604 393L654 401Z"/>
	<path id="z21737d8" d="M649 132Q649 190 650 245L651 291Q652 349 654 401L654 446Q655 501 657 550L658 594Q659 616 660 633Q667 652 657 663Q644 676 630 685L581 676Q588 661 596 648Q605 624 605 576L605 539Q605 502 604 434L604 393Q603 344 602 279L602 235Q601 186 601 127L649 132Z"/>
	<path id="z21737d9" d="M650 245Q792 275 799 281Q808 288 803 297Q796 307 768 315Q743 321 651 291L602 279Q553 270 497 264Q461 258 487 242Q526 218 600 235L602 235L650 245Z"/>
	<path id="z21737d10" d="M601 127Q483 117 346 103Q324 102 340 83Q355 67 373 61Q395 54 413 59Q641 113 948 93Q948 94 951 93Q973 92 978 101Q985 114 967 129Q913 172 872 165Q790 150 649 132L601 127Z"/>
	<defs>
		<clipPath id="z21737c1"><use xlink:href="#z21737d1"/></clipPath>
		<clipPath id="z21737c2"><use xlink:href="#z21737d2"/></clipPath>
		<clipPath id="z21737c3"><use xlink:href="#z21737d3"/></clipPath>
		<clipPath id="z21737c4"><use xlink:href="#z21737d4"/></clipPath>
		<clipPath id="z21737c5"><use xlink:href="#z21737d5"/></clipPath>
		<clipPath id="z21737c6"><use xlink:href="#z21737d6"/></clipPath>
		<clipPath id="z21737c7"><use xlink:href="#z21737d7"/></clipPath>
		<clipPath id="z21737c8"><use xlink:href="#z21737d8"/></clipPath>
		<clipPath id="z21737c9"><use xlink:href="#z21737d9"/></clipPath>
		<clipPath id="z21737c10"><use xlink:href="#z21737d10"/></clipPath>
	</defs>
	<path pathLength="2999" clip-path="url(#z21737c1)" d="M84 600L124 553L166 306"/>
	<path pathLength="2999" clip-path="url(#z21737c2)" d="M147 594L282 620L319 603L331 587L294 426"/>
	<path pathLength="2999" clip-path="url(#z21737c3)" d="M184 372L267 406L333 405"/>
	<path pathLength="2999" clip-path="url(#z21737c4)" d="M397 693L448 639L505 372"/>
	<path pathLength="2999" clip-path="url(#z21737c5)" d="M457 683L787 727L839 717L869 680L752 387"/>
	<path pathLength="2999" clip-path="url(#z21737c6)" d="M541 546L742 580"/>
	<path pathLength="2999" clip-path="url(#z21737c7)" d="M523 388L737 430"/>
	<path pathLength="2999" clip-path="url(#z21737c8)" d="M592 671L631 640L614 129"/>
	<path pathLength="2999" clip-path="url(#z21737c9)" d="M485 254L576 252L798 296"/>
	<path pathLength="2999" clip-path="url(#z21737c10)" d="M340 96L397 83L869 131L976 110"/>
</g>
</svg>