<!--
AnimCJK 2016-2019 Copyright Francois Mizessyn - https://github.com/parsimonhi/animCJK
Derived from:
    MakeMeAHanzi project - https://github.com/skishore/makemeahanzi
    Arphic PL KaitiM GB font
    Arphic PL UKai font
You can redistribute and/or modify this file under the terms of the Arphic Public License
as published by Arphic Technology Co., Ltd.
You should have received a copy of this license along with this file.
If not, see http://ftp.gnu.org/non-gnu/chinese-fonts-truetype/LICENSE.
-->
<svg id="z21757" class="acjk" version="1.1" viewBox="0 0 1024 1024" xmlns="http://www.w3.org/2000/svg" xmlns:xlink="http://www.w3.org/1999/xlink">
<style>
<![CDATA[
@keyframes zk {
	to {
		stroke-dashoffset:0;
	}
}
svg.acjk path[clip-path] {
	--t:0.8s;
	animation:zk var(--t) linear forwards var(--d);
	stroke-dasharray:3337;
	stroke-dashoffset:3339;
	stroke-width:128;
	stroke-linecap:round;
	fill:none;
	stroke:#000;
}
svg.acjk path[id] {fill:#ccc;}
]]>
</style>
<path id="z21757d1" d="M140 328Q128 321 97 315Q84 311 81 316Q74 322 82 338Q110 407 125 516Q126 549 144 572Q160 594 167 579Q174 563 172 531C169 509 169 509 168 498Q152 389 150 357C150 347 149 333 140 328Z"/>
<path id="z21757d2" d="M305 475Q321 379 348 349Q370 322 346 308Q325 298 297 280Q273 268 234 297Q188 315 140 328C130 330 140 359 150 357Q228 338 239 335Q261 329 267 338Q276 345 269 384Q262 424 252 474C249 491 302 492 305 475Z"/>
<path id="z21757d3" d="M172 531Q181 522 318 505Q328 504 329 495Q329 488 305 475C290 466 269 468 252 474Q206 487 168 498C158 502 162 536 172 531Z"/>
<path id="z21757d4" d="M593 182Q753 143 760 137Q769 128 764 120Q757 108 726 102Q695 98 665 110Q625 126 581 138Q533 151 476 158Q439 165 467 181Q498 197 537 195C574 186 574 186 593 182Z"/>
<path id="z21757d5" d="M445 322Q433 316 403 311Q390 307 387 313Q380 319 389 336Q417 399 435 501Q438 531 455 552Q474 574 479 559Q482 552 483 541C483 522 483 522 483 513Q462 366 461 355C459 343 456 327 445 322Z"/>
<path id="z21757d6" d="M695 514Q714 545 732 555Q742 564 759 542Q774 518 807 391Q816 360 840 333Q853 320 842 306Q826 288 783 261Q765 252 691 271Q676 271 632 283C589 292 589 292 568 296Q558 296 445 322C433 324 450 360 461 355Q504 340 569 329C607 321 607 321 626 317Q660 310 700 304Q734 298 745 310Q757 325 754 339Q730 459 718 481C713 493 687 503 695 514Z"/>
<path id="z21757d7" d="M620 427Q653 420 683 417Q705 413 697 400Q687 385 661 381Q645 380 622 385C588 394 588 394 571 399Q537 409 507 419Q491 423 511 437Q514 440 570 435C603 430 603 430 620 427Z"/>
<path id="z21757d8" d="M614 525Q656 518 695 514C708 512 729 488 718 481Q691 459 616 486C584 493 584 493 568 496Q523 503 483 513C474 515 474 541 483 541Q492 541 504 540Q535 534 566 532C598 527 598 527 614 525Z"/>
<path id="z21757d9" d="M590 698Q605 656 614 525C615 499 615 499 616 486Q617 456 620 427C621 399 621 399 622 385Q623 361 625 338Q625 326 626 317C630 294 630 294 632 283Q638 259 649 236Q656 221 644 209Q625 193 593 182C575 175 523 181 537 195Q567 225 568 296C569 318 569 318 569 329Q570 363 571 399C570 423 570 423 570 435Q569 465 568 496C567 520 567 520 566 532Q563 622 550 666C541 693 541 693 536 706Q490 788 306 843Q291 847 290 852Q291 856 302 860Q323 863 371 853Q453 837 511 797Q547 772 569 739C583 712 583 712 590 698Z"/>
<path id="z21757d10" d="M569 739Q722 901 763 910Q779 913 891 900Q927 896 939 889Q958 882 942 873Q926 864 790 823Q730 805 590 698C563 677 563 677 550 666Q453 588 439 584Q411 575 383 584Q371 585 371 593Q372 600 384 602Q429 602 487 659Q512 683 536 706C558 728 558 728 569 739Z"/>
<defs>
	<clipPath id="z21757c1"><use xlink:href="#z21757d1"/></clipPath>
	<clipPath id="z21757c2"><use xlink:href="#z21757d2"/></clipPath>
	<clipPath id="z21757c3"><use xlink:href="#z21757d3"/></clipPath>
	<clipPath id="z21757c4"><use xlink:href="#z21757d4"/></clipPath>
	<clipPath id="z21757c5"><use xlink:href="#z21757d5"/></clipPath>
	<clipPath id="z21757c6"><use xlink:href="#z21757d6"/></clipPath>
	<clipPath id="z21757c7"><use xlink:href="#z21757d7"/></clipPath>
	<clipPath id="z21757c8"><use xlink:href="#z21757d8"/></clipPath>
	<clipPath id="z21757c9"><use xlink:href="#z21757d9"/></clipPath>
	<clipPath id="z21757c10"><use xlink:href="#z21757d10"/></clipPath>
</defs>
<path style="--d:1s;" pathLength="3333" clip-path="url(#z21757c1)" d="M86 321L118 351L155 579"/>
<path style="--d:2s;" pathLength="3333" clip-path="url(#z21757c2)" d="M146 331L272 305L313 334L271 474"/>
<path style="--d:3s;" pathLength="3333" clip-path="url(#z21757c3)" d="M178 522L324 492"/>
<path style="--d:4s;" pathLength="3333" clip-path="url(#z21757c4)" d="M463 169L761 122"/>
<path style="--d:5s;" pathLength="3333" clip-path="url(#z21757c5)" d="M392 317L431 362L468 559"/>
<path style="--d:6s;" pathLength="3333" clip-path="url(#z21757c6)" d="M453 326L729 281L771 292L799 330L720 545"/>
<path style="--d:7s;" pathLength="3333" clip-path="url(#z21757c7)" d="M508 428L692 403"/>
<path style="--d:8s;" pathLength="3333" clip-path="url(#z21757c8)" d="M492 533L710 485"/>
<path style="--d:9s;" pathLength="3333" clip-path="url(#z21757c9)" d="M545 196L607 238L569 685L477 793L296 850"/>
<path style="--d:10s;" pathLength="3333" clip-path="url(#z21757c10)" d="M379 593L458 614L755 858L941 879"/>
</svg>