<!--
AnimCJK 2016-2017 Copyright Francois Mizessyn, http://gooo.free.fr/animCJK/
Derived from:
    MakeMeAHanzi project - https://github.com/skishore/makemeahanzi
    Arphic PL KaitiM GB - https://apps.ubuntu.com/cat/applications/precise/fonts-arphic-gkai00mp/
    Arphic PL UKai - https://apps.ubuntu.com/cat/applications/fonts-arphic-ukai/
You can redistribute and/or modify this file under the terms of the Arphic Public License
as published by Arphic Technology Co., Ltd.
You should have received a copy of this license (the directory "APL") along with this file;
if not, see http://ftp.gnu.org/non-gnu/chinese-fonts-truetype/LICENSE.
-->
<svg id="z21767" class="acjk" version="1.1" viewBox="0 0 1024 1024" xmlns="http://www.w3.org/2000/svg" xmlns:xlink="http://www.w3.org/1999/xlink">
<style>
<![CDATA[
	@keyframes z21767k {
		from {
			stroke:#c00;
			stroke-dashoffset:3000;
		}
		75% {
			stroke:#c00;
			stroke-dashoffset:0;
		}
		to {
			stroke:#000;
		}
	}
	#z21767 path[clip-path] {
		animation:z21767k 1s linear both;
		stroke-dasharray:3000;
		stroke-width:128;
		stroke-linecap:round;
		fill:none;
	}
	#z21767 path[clip-path="url(#z21767c1)"] {animation-delay:1s;}
	#z21767 path[clip-path="url(#z21767c2)"] {animation-delay:2s;}
	#z21767 path[clip-path="url(#z21767c3)"] {animation-delay:3s;}
	#z21767 path[clip-path="url(#z21767c4)"] {animation-delay:4s;}
	#z21767 path[clip-path="url(#z21767c5)"] {animation-delay:5s;}
	#z21767 path[clip-path="url(#z21767c6)"] {animation-delay:6s;}
	#z21767 path[clip-path="url(#z21767c7)"] {animation-delay:7s;}
	#z21767 path[clip-path="url(#z21767c8)"] {animation-delay:8s;}
	#z21767 path[clip-path="url(#z21767c9)"] {animation-delay:9s;}
	#z21767 path[clip-path="url(#z21767c10)"] {animation-delay:10s;}
	#z21767 path {fill:#ccc;}
]]>
</style>
<g transform="scale(1,-1) translate(0,-900)">
	<path id="z21767d1" d="M337 733Q371 720 413 729Q521 750 632 771Q683 781 690 789Q699 796 695 804Q688 816 660 824Q636 828 522 795Q411 773 335 764L337 733Z"/>
	<path id="z21767d2" d="M315 516Q321 565 325 615Q331 712 337 733L335 764Q319 780 292 791Q273 801 260 796Q248 789 255 775Q274 745 276 680Q258 458 240 371Q230 337 220 302Q183 196 90 42Q86 36 83 30Q82 20 92 21Q119 25 195 142Q220 182 242 232Q291 355 312 494L315 516Z"/>
	<path id="z21767d3" d="M404 639Q385 635 408 618Q420 611 442 615Q551 636 633 649Q658 653 649 667Q637 683 609 688Q584 691 537 678Q467 656 404 639Z"/>
	<path id="z21767d4" d="M472 507Q565 532 762 532Q780 533 784 541Q788 551 773 563Q721 599 655 579Q574 563 315 516L312 494Q330 482 356 481L400 491Q419 497 442 501L472 507Z"/>
	<path id="z21767d5" d="M356 481Q386 421 370 357Q366 329 353 313Q341 294 349 272Q359 241 375 230Q385 223 398 240Q423 273 507 353Q525 366 526 374Q527 387 508 376Q426 340 421 342Q414 348 414 368Q417 473 418 475Q415 481 400 491L356 481Z"/>
	<path id="z21767d6" d="M622 397Q647 406 704 432Q720 441 740 445Q758 449 752 464Q745 479 728 493Q712 506 702 507Q692 508 693 497Q693 482 606 407L622 397Z"/>
	<path id="z21767d7" d="M606 407Q569 432 530 461Q494 491 472 507L442 501Q599 344 733 243Q784 210 932 249Q951 253 952 258Q953 265 938 270Q719 342 690 358Q656 376 622 397L606 407Z"/>
	<path id="z21767d8" d="M383 196Q370 203 335 210Q322 214 317 208Q310 201 319 183Q347 122 363 23Q366 -7 382 -27Q401 -52 408 -34Q414 -19 413 5L409 41Q396 132 394 162L383 196Z"/>
	<path id="z21767d9" d="M681 60Q706 133 743 161Q762 180 747 201Q663 273 602 238Q518 214 383 196L394 162Q619 199 630 195Q633 194 636 190Q646 181 643 161Q634 112 622 71L681 60Z"/>
	<path id="z21767d10" d="M413 5Q425 2 441 3Q520 16 692 22Q704 23 706 33Q707 40 681 60L622 71L621 71Q503 49 409 41L413 5Z"/>
	<defs>
		<clipPath id="z21767c1"><use xlink:href="#z21767d1"/></clipPath>
		<clipPath id="z21767c2"><use xlink:href="#z21767d2"/></clipPath>
		<clipPath id="z21767c3"><use xlink:href="#z21767d3"/></clipPath>
		<clipPath id="z21767c4"><use xlink:href="#z21767d4"/></clipPath>
		<clipPath id="z21767c5"><use xlink:href="#z21767d5"/></clipPath>
		<clipPath id="z21767c6"><use xlink:href="#z21767d6"/></clipPath>
		<clipPath id="z21767c7"><use xlink:href="#z21767d7"/></clipPath>
		<clipPath id="z21767c8"><use xlink:href="#z21767d8"/></clipPath>
		<clipPath id="z21767c9"><use xlink:href="#z21767d9"/></clipPath>
		<clipPath id="z21767c10"><use xlink:href="#z21767d10"/></clipPath>
	</defs>
	<path pathLength="2999" clip-path="url(#z21767c1)" d="M342 761L392 749L692 803"/>
	<path pathLength="2999" clip-path="url(#z21767c2)" d="M261 787L304 727L267 386L191 178L90 27"/>
	<path pathLength="2999" clip-path="url(#z21767c3)" d="M402 629L646 663"/>
	<path pathLength="2999" clip-path="url(#z21767c4)" d="M320 497L671 557L780 546"/>
	<path pathLength="2999" clip-path="url(#z21767c5)" d="M363 478L394 457L396 282L518 373"/>
	<path pathLength="2999" clip-path="url(#z21767c6)" d="M747 458L703 471L618 407"/>
	<path pathLength="2999" clip-path="url(#z21767c7)" d="M452 499L749 286L946 260"/>
	<path pathLength="2999" clip-path="url(#z21767c8)" d="M322 203L360 166L394 -35"/>
	<path pathLength="2999" clip-path="url(#z21767c9)" d="M390 193L658 217L698 172L651 66"/>
	<path pathLength="2999" clip-path="url(#z21767c10)" d="M417 34L699 38"/>
</g>
</svg>