<!--
AnimCJK 2016-2019 Copyright Francois Mizessyn - https://github.com/parsimonhi/animCJK
Derived from:
    MakeMeAHanzi project - https://github.com/skishore/makemeahanzi
    Arphic PL KaitiM GB font
    Arphic PL UKai font
You can redistribute and/or modify this file under the terms of the Arphic Public License
as published by Arphic Technology Co., Ltd.
You should have received a copy of this license along with this file.
If not, see http://ftp.gnu.org/non-gnu/chinese-fonts-truetype/LICENSE.
-->
<svg id="z21777" class="acjk" version="1.1" viewBox="0 0 1024 1024" xmlns="http://www.w3.org/2000/svg" xmlns:xlink="http://www.w3.org/1999/xlink">
<style>
<![CDATA[
@keyframes zk {
	to {
		stroke-dashoffset:0;
	}
}
svg.acjk path[clip-path] {
	--t:0.8s;
	animation:zk var(--t) linear forwards var(--d);
	stroke-dasharray:3337;
	stroke-dashoffset:3339;
	stroke-width:128;
	stroke-linecap:round;
	fill:none;
	stroke:#000;
}
svg.acjk path[id] {fill:#ccc;}
]]>
</style>
<path id="z21777d1" d="M136 389Q123 385 96 379Q84 376 81 381Q74 387 83 403Q111 467 128 569Q131 600 148 620Q166 642 171 627Q177 611 174 580C171 558 171 558 169 547Q153 445 151 417C151 406 146 391 136 389Z"/>
<path id="z21777d2" d="M305 535Q320 438 345 408Q367 380 342 367Q321 357 293 340Q275 331 228 358Q185 376 136 389C126 391 141 419 151 417Q158 416 170 412Q206 402 237 395Q258 391 263 399Q273 405 266 445Q262 481 254 523C251 540 302 552 305 535Z"/>
<path id="z21777d3" d="M174 580Q184 583 199 579Q235 572 312 565Q324 564 325 554Q325 547 305 535C290 526 271 520 254 523Q247 524 241 526Q201 538 169 547C158 549 163 578 174 580Z"/>
<path id="z21777d4" d="M465 463Q475 442 485 421Q504 375 524 337Q533 324 517 311Q466 284 446 291Q436 295 439 309Q466 400 379 527Q367 539 343 580Q337 596 352 589Q391 577 452 484C461 470 461 470 465 463Z"/>
<path id="z21777d5" d="M452 484Q482 505 529 549Q539 558 550 558Q557 557 561 547Q565 537 558 515Q554 496 525 482Q497 472 465 463C457 460 445 479 452 484Z"/>
<path id="z21777d6" d="M648 543Q685 534 746 453C757 438 757 438 762 430Q777 405 789 379Q810 333 830 297Q839 284 824 272Q776 244 756 250Q746 254 749 267Q771 357 682 481Q673 484 648 525C645 530 642 544 648 543Z"/>
<path id="z21777d7" d="M746 453Q752 460 766 472Q803 503 842 540Q854 552 867 551Q877 551 881 539Q885 526 878 501Q874 477 838 458Q802 443 762 430C753 427 740 446 746 453Z"/>
<path id="z21777d8" d="M642 686Q792 659 797 656Q807 647 803 638Q796 623 763 614Q729 605 694 618Q669 625 644 631C612 638 612 638 596 642Q593 641 592 642Q534 652 465 655Q423 659 452 680Q497 710 564 698Q577 694 594 694C626 689 626 689 642 686Z"/>
<path id="z21777d9" d="M637 826Q638 754 642 686C643 649 643 649 644 631Q645 586 648 543C648 531 648 531 648 525Q654 261 679 164Q683 149 659 129Q616 107 586 101Q567 97 556 108Q546 118 557 136Q597 196 596 236Q603 428 596 642C595 677 595 677 594 694Q590 761 586 832C586 849 637 843 637 826Z"/>
<path id="z21777d10" d="M586 832Q471 842 338 857Q316 858 332 877Q347 893 365 899Q387 905 405 901Q591 856 880 866Q902 866 923 867Q945 868 950 859Q957 846 939 831Q882 789 844 796Q766 809 637 826C603 830 603 830 586 832Z"/>
<defs>
	<clipPath id="z21777c1"><use xlink:href="#z21777d1"/></clipPath>
	<clipPath id="z21777c2"><use xlink:href="#z21777d2"/></clipPath>
	<clipPath id="z21777c3"><use xlink:href="#z21777d3"/></clipPath>
	<clipPath id="z21777c4"><use xlink:href="#z21777d4"/></clipPath>
	<clipPath id="z21777c5"><use xlink:href="#z21777d5"/></clipPath>
	<clipPath id="z21777c6"><use xlink:href="#z21777d6"/></clipPath>
	<clipPath id="z21777c7"><use xlink:href="#z21777d7"/></clipPath>
	<clipPath id="z21777c8"><use xlink:href="#z21777d8"/></clipPath>
	<clipPath id="z21777c9"><use xlink:href="#z21777d9"/></clipPath>
	<clipPath id="z21777c10"><use xlink:href="#z21777d10"/></clipPath>
</defs>
<path style="--d:1s;" pathLength="3333" clip-path="url(#z21777c1)" d="M85 385L121 420L162 626"/>
<path style="--d:2s;" pathLength="3333" clip-path="url(#z21777c2)" d="M145 394L265 368L302 384L286 530"/>
<path style="--d:3s;" pathLength="3333" clip-path="url(#z21777c3)" d="M175 551L319 554"/>
<path style="--d:4s;" pathLength="3333" clip-path="url(#z21777c4)" d="M445 295L485 333L463 412L348 584"/>
<path style="--d:5s;" pathLength="3333" clip-path="url(#z21777c5)" d="M459 481L513 502L553 549"/>
<path style="--d:6s;" pathLength="3333" clip-path="url(#z21777c6)" d="M755 256L793 294L777 343L656 535"/>
<path style="--d:7s;" pathLength="3333" clip-path="url(#z21777c7)" d="M756 455L825 483L870 546"/>
<path style="--d:8s;" pathLength="3333" clip-path="url(#z21777c8)" d="M449 668L549 674L797 634"/>
<path style="--d:9s;" pathLength="3333" clip-path="url(#z21777c9)" d="M555 116L633 174L599 830"/>
<path style="--d:10s;" pathLength="3333" clip-path="url(#z21777c10)" d="M332 865L394 876L855 830L948 853"/>
</svg>