<!--
AnimCJK 2016-2017 Copyright Francois Mizessyn, http://gooo.free.fr/animCJK/
Derived from:
    MakeMeAHanzi project - https://github.com/skishore/makemeahanzi
    Arphic PL KaitiM GB - https://apps.ubuntu.com/cat/applications/precise/fonts-arphic-gkai00mp/
    Arphic PL UKai - https://apps.ubuntu.com/cat/applications/fonts-arphic-ukai/
You can redistribute and/or modify this file under the terms of the Arphic Public License
as published by Arphic Technology Co., Ltd.
You should have received a copy of this license (the directory "APL") along with this file;
if not, see http://ftp.gnu.org/non-gnu/chinese-fonts-truetype/LICENSE.
-->
<svg id="z21776" class="acjk" version="1.1" viewBox="0 0 1024 1024" xmlns="http://www.w3.org/2000/svg" xmlns:xlink="http://www.w3.org/1999/xlink">
<style>
<![CDATA[
@keyframes z21776k {
	from {
		stroke:#c00;
		stroke-dashoffset:3334;
	}
	75% {
		stroke:#c00;
		stroke-dashoffset:0;
	}
	to {
		stroke:#000;
	}
}
#z21776 path[clip-path] {
	animation:z21776k 1s linear both;
	stroke-dasharray:3334;
	stroke-width:128;
	stroke-linecap:round;
	fill:none;
}
#z21776 path[clip-path="url(#z21776c1)"] {animation-delay:1s;}
#z21776 path[clip-path="url(#z21776c2)"] {animation-delay:2s;}
#z21776 path[clip-path="url(#z21776c3)"] {animation-delay:3s;}
#z21776 path[clip-path="url(#z21776c4)"] {animation-delay:4s;}
#z21776 path[clip-path="url(#z21776c5)"] {animation-delay:5s;}
#z21776 path[clip-path="url(#z21776c6)"] {animation-delay:6s;}
#z21776 path[clip-path="url(#z21776c7)"] {animation-delay:7s;}
#z21776 path[clip-path="url(#z21776c8)"] {animation-delay:8s;}
#z21776 path[clip-path="url(#z21776c9)"] {animation-delay:9s;}
#z21776 path[clip-path="url(#z21776c10)"] {animation-delay:10s;}
#z21776 path {fill:#ccc;}
]]>
</style>
<path id="z21776d1" d="M499 96Q529 115 562 140Q578 152 594 148Q604 147 609 132Q612 116 598 86Q589 67 556 57Q477 39 464 49Q460 53 462 67Q468 77 499 96 Z"/>
<path id="z21776d2" d="M350 257Q402 264 421 263Q421 262 715 217Q782 204 793 195Q803 188 798 180Q792 167 764 159Q737 152 621 185Q441 218 343 225Q342 225 342 226L350 257 Z"/>
<path id="z21776d3" d="M342 226Q327 213 303 200Q284 190 271 194Q258 201 265 215Q283 246 279 320Q252 524 227 606Q221 622 215 640Q170 754 88 869Q82 876 80 882Q77 892 88 891Q118 885 196 777Q217 744 236 707Q308 557 331 368Q340 293 348 261Q349 260 350 257L342 226 Z"/>
<path id="z21776d4" d="M723 559Q735 513 746 484L764 443Q780 410 800 395Q816 376 802 359Q729 298 672 330Q626 345 586 356L533 367Q469 377 400 385Q384 386 386 395Q389 402 406 409Q430 419 463 409Q497 402 535 395L583 386Q691 359 706 373Q718 386 704 453L696 487Q684 524 673 560L723 559 Z"/>
<path id="z21776d5" d="M534 477Q441 487 339 501Q320 502 334 517Q346 529 361 534Q380 538 393 535Q459 516 533 506L575 500Q584 494 696 487L746 484Q801 481 867 481Q927 484 935 474Q939 464 925 452Q874 415 817 432Q792 436 764 443L704 453Q625 460 577 472L534 477 Z"/>
<path id="z21776d6" d="M529 590Q459 600 399 609Q378 610 391 628Q398 637 408 641Q418 644 431 641Q468 631 526 624L565 619Q640 607 743 598Q753 597 755 588Q756 581 726 560Q725 559 723 559L673 560Q618 572 568 583L529 590 Z"/>
<path id="z21776d7" d="M535 395Q535 432 534 477L533 506Q533 510 533 518Q532 557 529 590L526 624Q526 663 532 681Q538 691 546 686Q561 674 565 619L568 583Q571 540 575 500L577 472Q578 441 581 410Q582 397 583 386L586 356Q589 331 593 316Q602 298 591 287Q578 274 551 261Q532 252 510 261Q500 268 512 283Q533 317 533 367L535 395 Z"/>
<path id="z21776d8" d="M405 729Q393 723 363 720Q350 717 347 723Q340 730 350 746Q381 801 401 895Q405 923 423 941Q442 963 447 946Q451 933 449 912L444 878Q428 793 423 763L405 729 Z"/>
<path id="z21776d9" d="M727 855Q757 779 788 758Q807 739 792 720Q720 659 661 682Q558 712 405 729L423 763Q430 762 441 759Q549 743 651 727Q678 723 688 733Q697 742 694 759Q685 808 674 847L727 855 Z"/>
<path id="z21776d10" d="M449 912Q450 911 454 911Q545 896 738 890Q748 889 750 880Q750 873 727 855L674 847Q547 869 444 878L449 912 Z"/>
<defs>
	<clipPath id="z21776c1"><use xlink:href="#z21776d1"/></clipPath>
	<clipPath id="z21776c2"><use xlink:href="#z21776d2"/></clipPath>
	<clipPath id="z21776c3"><use xlink:href="#z21776d3"/></clipPath>
	<clipPath id="z21776c4"><use xlink:href="#z21776d4"/></clipPath>
	<clipPath id="z21776c5"><use xlink:href="#z21776d5"/></clipPath>
	<clipPath id="z21776c6"><use xlink:href="#z21776d6"/></clipPath>
	<clipPath id="z21776c7"><use xlink:href="#z21776d7"/></clipPath>
	<clipPath id="z21776c8"><use xlink:href="#z21776d8"/></clipPath>
	<clipPath id="z21776c9"><use xlink:href="#z21776d9"/></clipPath>
	<clipPath id="z21776c10"><use xlink:href="#z21776d10"/></clipPath>
</defs>
<path pathLength="3333" clip-path="url(#z21776c1)" d="M467 53L604 139"/>
<path pathLength="3333" clip-path="url(#z21776c2)" d="M350 228L420 240L795 181"/>
<path pathLength="3333" clip-path="url(#z21776c3)" d="M268 201L313 253L259 585L192 742L87 883"/>
<path pathLength="3333" clip-path="url(#z21776c4)" d="M393 394L696 344L741 357L755 398L686 557"/>
<path pathLength="3333" clip-path="url(#z21776c5)" d="M338 509L820 456L931 463"/>
<path pathLength="3333" clip-path="url(#z21776c6)" d="M394 618L749 581"/>
<path pathLength="3333" clip-path="url(#z21776c7)" d="M513 269L562 316L541 683"/>
<path pathLength="3333" clip-path="url(#z21776c8)" d="M353 728L394 771L439 945"/>
<path pathLength="3333" clip-path="url(#z21776c9)" d="M414 733L697 703L746 742L689 849"/>
<path pathLength="3333" clip-path="url(#z21776c10)" d="M452 881L745 879"/>
</svg>