<!--
AnimCJK 2016-2019 Copyright Francois Mizessyn - https://github.com/parsimonhi/animCJK
Derived from:
    MakeMeAHanzi project - https://github.com/skishore/makemeahanzi
    Arphic PL KaitiM GB font
    Arphic PL UKai font
You can redistribute and/or modify this file under the terms of the Arphic Public License
as published by Arphic Technology Co., Ltd.
You should have received a copy of this license along with this file.
If not, see http://ftp.gnu.org/non-gnu/chinese-fonts-truetype/LICENSE.
-->
<svg id="z21780" class="acjk" version="1.1" viewBox="0 0 1024 1024" xmlns="http://www.w3.org/2000/svg" xmlns:xlink="http://www.w3.org/1999/xlink">
<style>
<![CDATA[
@keyframes zk {
	to {
		stroke-dashoffset:0;
	}
}
svg.acjk path[clip-path] {
	--t:0.8s;
	animation:zk var(--t) linear forwards var(--d);
	stroke-dasharray:3337;
	stroke-dashoffset:3339;
	stroke-width:128;
	stroke-linecap:round;
	fill:none;
	stroke:#000;
}
svg.acjk path[id] {fill:#ccc;}
]]>
</style>
<path id="z21780d1" d="M141 321Q131 314 97 306Q85 302 81 307Q74 313 82 330Q110 402 121 517Q122 551 141 576Q157 598 163 583Q170 565 169 532C166 509 166 509 165 497Q150 385 149 350C149 340 149 327 141 321Z"/>
<path id="z21780d2" d="M315 474Q331 380 358 352Q382 324 357 309Q336 297 307 279Q289 267 241 294Q207 307 141 321C131 323 139 352 149 350Q167 347 244 331Q268 327 273 336Q282 343 275 383Q268 423 259 473C255 491 311 492 315 474Z"/>
<path id="z21780d3" d="M169 532Q226 517 329 507Q339 506 341 496Q341 489 315 474C299 464 277 469 259 473Q207 486 165 497C153 499 157 534 169 532Z"/>
<path id="z21780d4" d="M594 181Q789 145 798 139Q807 132 803 124Q796 112 768 104Q744 98 639 128Q501 150 470 153Q434 157 459 174Q492 196 544 191C577 184 577 184 594 181Z"/>
<path id="z21780d5" d="M603 328Q603 319 637 230Q641 220 625 202Q609 189 594 181C579 172 538 175 544 191Q557 222 554 278Q550 308 545 342C542 367 542 367 540 379Q527 451 513 529C511 543 554 538 556 524Q575 443 594 368C600 341 600 341 603 328Z"/>
<path id="z21780d6" d="M731 501Q759 405 796 379Q814 358 798 339Q780 326 724 299Q705 290 681 300Q639 316 603 328C564 337 564 337 545 342Q496 352 447 358Q431 359 432 370Q435 379 454 385Q481 395 516 383Q528 380 540 379C576 372 576 372 594 368Q630 361 667 353Q686 349 694 357Q704 367 702 390Q689 456 673 509C669 528 727 520 731 501Z"/>
<path id="z21780d7" d="M513 529Q422 538 325 549Q303 550 319 569Q334 584 352 590Q374 596 391 591Q557 549 884 549Q902 549 921 550Q942 550 947 541Q953 529 935 515Q875 469 824 485Q784 491 731 501C692 506 692 506 673 509Q642 512 610 517Q583 520 556 524C527 527 527 527 513 529Z"/>
<path id="z21780d8" d="M479 668Q466 661 430 655Q417 651 413 657Q406 664 415 681Q445 742 462 841Q465 872 482 891Q501 916 508 898Q512 885 512 864C509 841 509 841 508 830Q493 734 491 702C491 690 490 672 479 668Z"/>
<path id="z21780d9" d="M752 806Q776 727 809 702Q828 681 812 662Q733 602 672 628Q593 652 479 668C467 670 479 704 491 702Q698 674 699 674Q702 675 704 678Q714 687 713 706Q706 760 695 805C691 824 748 825 752 806Z"/>
<path id="z21780d10" d="M512 864Q596 852 770 846Q780 845 782 836Q783 829 754 807Q753 806 752 806C736 796 714 802 695 805Q592 821 508 830C497 832 501 866 512 864Z"/>
<defs>
	<clipPath id="z21780c1"><use xlink:href="#z21780d1"/></clipPath>
	<clipPath id="z21780c2"><use xlink:href="#z21780d2"/></clipPath>
	<clipPath id="z21780c3"><use xlink:href="#z21780d3"/></clipPath>
	<clipPath id="z21780c4"><use xlink:href="#z21780d4"/></clipPath>
	<clipPath id="z21780c5"><use xlink:href="#z21780d5"/></clipPath>
	<clipPath id="z21780c6"><use xlink:href="#z21780d6"/></clipPath>
	<clipPath id="z21780c7"><use xlink:href="#z21780d7"/></clipPath>
	<clipPath id="z21780c8"><use xlink:href="#z21780d8"/></clipPath>
	<clipPath id="z21780c9"><use xlink:href="#z21780d9"/></clipPath>
	<clipPath id="z21780c10"><use xlink:href="#z21780d10"/></clipPath>
</defs>
<path style="--d:1s;" pathLength="3333" clip-path="url(#z21780c1)" d="M85 313L120 354L156 582"/>
<path style="--d:2s;" pathLength="3333" clip-path="url(#z21780c2)" d="M148 326L278 305L310 323L323 344L291 473"/>
<path style="--d:3s;" pathLength="3333" clip-path="url(#z21780c3)" d="M172 523L241 497L333 497"/>
<path style="--d:4s;" pathLength="3333" clip-path="url(#z21780c4)" d="M458 164L800 129"/>
<path style="--d:5s;" pathLength="3333" clip-path="url(#z21780c5)" d="M553 196L596 234L538 510L520 521"/>
<path style="--d:6s;" pathLength="3333" clip-path="url(#z21780c6)" d="M437 366L710 328L753 372L706 491L681 501"/>
<path style="--d:7s;" pathLength="3333" clip-path="url(#z21780c7)" d="M319 556L372 568L833 515L944 532"/>
<path style="--d:8s;" pathLength="3333" clip-path="url(#z21780c8)" d="M418 664L454 690L498 898"/>
<path style="--d:9s;" pathLength="3333" clip-path="url(#z21780c9)" d="M488 671L724 650L765 696L710 804"/>
<path style="--d:10s;" pathLength="3333" clip-path="url(#z21780c10)" d="M515 837L777 835"/>
</svg>