<!--
AnimCJK 2016-2019 Copyright Francois Mizessyn - https://github.com/parsimonhi/animCJK
Derived from:
    MakeMeAHanzi project - https://github.com/skishore/makemeahanzi
    Arphic PL KaitiM GB font
    Arphic PL UKai font
You can redistribute and/or modify this file under the terms of the Arphic Public License
as published by Arphic Technology Co., Ltd.
You should have received a copy of this license along with this file.
If not, see http://ftp.gnu.org/non-gnu/chinese-fonts-truetype/LICENSE.
-->
<svg id="z21792" class="acjk" version="1.1" viewBox="0 0 1024 1024" xmlns="http://www.w3.org/2000/svg" xmlns:xlink="http://www.w3.org/1999/xlink">
<style>
<![CDATA[
@keyframes zk {
	to {
		stroke-dashoffset:0;
	}
}
svg.acjk path[clip-path] {
	--t:0.8s;
	animation:zk var(--t) linear forwards var(--d);
	stroke-dasharray:3337;
	stroke-dashoffset:3339;
	stroke-width:128;
	stroke-linecap:round;
	fill:none;
	stroke:#000;
}
svg.acjk path[id] {fill:#ccc;}
]]>
</style>
<path id="z21792d1" d="M159 320Q146 313 116 306Q103 302 99 307Q92 314 100 331Q128 398 141 508Q142 541 160 563Q176 587 183 571Q192 552 188 516C185 492 185 492 184 480Q172 378 171 349C171 339 168 325 159 320Z"/>
<path id="z21792d2" d="M321 459Q339 369 364 342Q386 314 362 300Q296 267 295 267Q285 267 274 274Q246 292 159 320C149 323 161 352 171 349Q189 343 256 327Q278 321 283 330Q292 337 284 374Q277 411 269 455C266 472 318 476 321 459Z"/>
<path id="z21792d3" d="M188 516Q198 517 211 514Q251 504 337 493Q349 492 349 482Q349 473 321 459C306 450 286 452 269 455Q266 455 265 456Q220 471 184 480C172 482 176 516 188 516Z"/>
<path id="z21792d4" d="M720 243Q765 233 854 236Q867 237 872 228Q876 218 864 205Q822 169 737 195C703 202 703 202 686 205Q625 217 555 230C525 235 525 235 510 238Q464 244 416 252Q391 256 409 269Q442 290 510 277Q513 276 518 275C545 269 545 269 558 266Q586 257 676 247C705 244 705 244 720 243Z"/>
<path id="z21792d5" d="M555 230Q551 196 550 170Q551 151 532 146Q492 128 472 135Q456 144 470 162Q500 196 510 238C515 263 515 263 518 275Q531 329 543 341Q556 351 560 340Q563 328 558 266C556 242 556 242 555 230Z"/>
<path id="z21792d6" d="M737 195Q743 171 766 127Q779 114 769 104Q756 88 724 73Q708 66 692 74Q683 80 691 90Q701 112 698 138Q694 168 686 205C679 233 679 233 676 247Q661 311 662 322Q663 335 678 324Q693 309 720 243C731 211 731 211 737 195Z"/>
<path id="z21792d7" d="M446 410Q425 380 414 373Q410 369 404 373Q400 377 399 388Q403 421 375 489Q365 505 367 525Q371 544 381 558Q388 570 394 562Q401 561 409 544Q413 537 422 509Q437 461 446 442C450 432 452 419 446 410Z"/>
<path id="z21792d8" d="M446 442Q467 451 504 443Q627 401 778 389Q788 388 795 389Q813 395 812 403Q812 407 806 419Q772 482 777 487Q784 491 799 481Q851 450 895 440Q929 430 929 422Q928 412 862 360Q838 339 766 356Q709 362 522 398Q485 404 446 410C436 412 436 438 446 442Z"/>
<path id="z21792d9" d="M599 607Q645 595 685 591Q704 590 707 595Q716 608 711 641Q701 735 677 777Q658 811 629 805Q601 798 575 790Q550 783 569 807Q615 847 638 880Q656 901 673 885Q701 866 723 831Q747 791 769 663Q776 618 793 596Q806 583 800 573Q790 561 740 539Q719 529 700 543Q679 553 610 571C567 581 567 581 546 586Q488 596 438 600Q422 601 418 609Q417 616 440 628Q464 643 483 636Q508 629 538 622C579 612 579 612 599 607Z"/>
<path id="z21792d10" d="M538 622Q487 772 354 853Q345 857 337 864Q324 873 335 876Q389 880 470 821Q560 754 594 625Q595 615 599 607C606 583 606 583 610 571Q617 543 631 518Q641 502 626 491Q584 452 555 459Q542 462 546 478Q555 496 546 586C541 610 541 610 538 622Z"/>
<defs>
	<clipPath id="z21792c1"><use xlink:href="#z21792d1"/></clipPath>
	<clipPath id="z21792c2"><use xlink:href="#z21792d2"/></clipPath>
	<clipPath id="z21792c3"><use xlink:href="#z21792d3"/></clipPath>
	<clipPath id="z21792c4"><use xlink:href="#z21792d4"/></clipPath>
	<clipPath id="z21792c5"><use xlink:href="#z21792d5"/></clipPath>
	<clipPath id="z21792c6"><use xlink:href="#z21792d6"/></clipPath>
	<clipPath id="z21792c7"><use xlink:href="#z21792d7"/></clipPath>
	<clipPath id="z21792c8"><use xlink:href="#z21792d8"/></clipPath>
	<clipPath id="z21792c9"><use xlink:href="#z21792d9"/></clipPath>
	<clipPath id="z21792c10"><use xlink:href="#z21792d10"/></clipPath>
</defs>
<path style="--d:1s;" pathLength="3333" clip-path="url(#z21792c1)" d="M103 310L143 363L167 570"/>
<path style="--d:2s;" pathLength="3333" clip-path="url(#z21792c2)" d="M165 322L287 297L319 314L330 336L288 455"/>
<path style="--d:3s;" pathLength="3333" clip-path="url(#z21792c3)" d="M193 508L278 477L344 482"/>
<path style="--d:4s;" pathLength="3333" clip-path="url(#z21792c4)" d="M412 262L790 210L867 223"/>
<path style="--d:5s;" pathLength="3333" clip-path="url(#z21792c5)" d="M470 146L521 180L550 338"/>
<path style="--d:6s;" pathLength="3333" clip-path="url(#z21792c6)" d="M693 79L735 113L672 324"/>
<path style="--d:7s;" pathLength="3333" clip-path="url(#z21792c7)" d="M410 376L421 427L389 558"/>
<path style="--d:8s;" pathLength="3333" clip-path="url(#z21792c8)" d="M449 435L811 370L852 398L875 434L782 481"/>
<path style="--d:9s;" pathLength="3333" clip-path="url(#z21792c9)" d="M427 609L478 616L703 565L755 592L716 766L678 831L647 847L569 793"/>
<path style="--d:10s;" pathLength="3333" clip-path="url(#z21792c10)" d="M552 465L592 511L536 699L441 815L339 869"/>
</svg>