<!--
AnimCJK 2016-2017 Copyright Francois Mizessyn, http://gooo.free.fr/animCJK/
Derived from:
    MakeMeAHanzi project - https://github.com/skishore/makemeahanzi
    Arphic PL KaitiM GB - https://apps.ubuntu.com/cat/applications/precise/fonts-arphic-gkai00mp/
    Arphic PL UKai - https://apps.ubuntu.com/cat/applications/fonts-arphic-ukai/
You can redistribute and/or modify this file under the terms of the Arphic Public License
as published by Arphic Technology Co., Ltd.
You should have received a copy of this license (the directory "APL") along with this file;
if not, see http://ftp.gnu.org/non-gnu/chinese-fonts-truetype/LICENSE.
-->
<svg id="z21861" class="acjk" version="1.1" viewBox="0 0 1024 1024" xmlns="http://www.w3.org/2000/svg" xmlns:xlink="http://www.w3.org/1999/xlink">
<style>
<![CDATA[
	@keyframes z21861k {
		from {
			stroke:#c00;
			stroke-dashoffset:3000;
		}
		75% {
			stroke:#c00;
			stroke-dashoffset:0;
		}
		to {
			stroke:#000;
		}
	}
	#z21861 path[clip-path] {
		animation:z21861k 1s linear both;
		stroke-dasharray:3000;
		stroke-width:128;
		stroke-linecap:round;
		fill:none;
	}
	#z21861 path[clip-path="url(#z21861c1)"] {animation-delay:1s;}
	#z21861 path[clip-path="url(#z21861c2)"] {animation-delay:2s;}
	#z21861 path[clip-path="url(#z21861c3)"] {animation-delay:3s;}
	#z21861 path[clip-path="url(#z21861c4)"] {animation-delay:4s;}
	#z21861 path[clip-path="url(#z21861c5)"] {animation-delay:5s;}
	#z21861 path[clip-path="url(#z21861c6)"] {animation-delay:6s;}
	#z21861 path[clip-path="url(#z21861c7)"] {animation-delay:7s;}
	#z21861 path[clip-path="url(#z21861c8)"] {animation-delay:8s;}
	#z21861 path[clip-path="url(#z21861c9)"] {animation-delay:9s;}
	#z21861 path[clip-path="url(#z21861c10)"] {animation-delay:10s;}
	#z21861 path[clip-path="url(#z21861c11)"] {animation-delay:11s;}
	#z21861 path {fill:#ccc;}
]]>
</style>
<g transform="scale(1,-1) translate(0,-900)">
	<path id="z21861d1" d="M130 517Q120 523 90 529Q78 532 75 527Q68 521 76 506Q106 440 121 333Q122 302 141 279Q157 258 163 273Q170 292 165 330L160 360Q144 462 141 491L130 517Z"/>
	<path id="z21861d2" d="M290 384Q302 475 325 504Q344 529 323 542Q304 551 277 566Q262 573 216 547Q162 528 130 517L141 491Q165 500 225 515Q246 521 252 512Q261 506 255 468Q251 431 243 387L290 384Z"/>
	<path id="z21861d3" d="M165 330Q172 329 185 332Q222 342 303 355Q313 356 313 365Q313 372 290 384L243 387Q242 387 240 386Q195 370 160 360L165 330Z"/>
	<path id="z21861d4" d="M585 695Q597 725 615 747Q622 753 619 763Q610 787 570 798Q549 802 539 799Q530 796 534 784Q552 708 449 551Q401 488 324 403Q317 397 327 396Q375 405 471 512Q528 590 574 674L585 695Z"/>
	<path id="z21861d5" d="M574 674Q668 563 770 463Q792 439 829 438Q896 434 968 446Q987 447 988 452Q991 459 976 465Q927 484 870 504Q806 528 758 560Q700 596 641 646Q604 680 585 695L574 674Z"/>
	<path id="z21861d6" d="M573 436Q693 466 695 466Q704 473 699 481Q692 491 666 498Q638 502 611 492Q578 480 544 472Q505 462 460 458Q426 452 451 437Q479 422 524 424L573 436Z"/>
	<path id="z21861d7" d="M575 300Q650 312 770 315Q821 315 828 325Q832 335 817 347Q771 380 711 365Q657 353 580 336L532 328Q442 315 342 296Q323 293 338 279Q351 267 367 263Q386 259 401 263Q461 282 530 293L575 300Z"/>
	<path id="z21861d8" d="M557 194Q566 249 575 300L580 336Q586 370 600 405Q603 414 588 427Q581 433 573 436L524 424Q534 405 534 392Q533 361 532 328L530 293Q526 242 521 187L557 194Z"/>
	<path id="z21861d9" d="M404 180Q392 183 389 178Q382 171 391 156Q419 104 436 18Q440 -7 456 -25Q474 -47 479 -31Q483 -21 482 -3L478 30Q460 124 460 147L404 180Z"/>
	<path id="z21861d10" d="M711 46Q738 127 770 151Q786 169 772 186Q703 244 653 220Q602 204 557 194L521 187Q431 178 404 180L460 147Q463 148 646 177Q668 181 677 173Q690 160 665 57L711 46Z"/>
	<path id="z21861d11" d="M482 -3Q488 -4 495 -3Q565 9 718 14Q728 15 730 24Q731 31 711 46L665 57Q661 58 655 57Q558 38 478 30L482 -3Z"/>
	<defs>
		<clipPath id="z21861c1"><use xlink:href="#z21861d1"/></clipPath>
		<clipPath id="z21861c2"><use xlink:href="#z21861d2"/></clipPath>
		<clipPath id="z21861c3"><use xlink:href="#z21861d3"/></clipPath>
		<clipPath id="z21861c4"><use xlink:href="#z21861d4"/></clipPath>
		<clipPath id="z21861c5"><use xlink:href="#z21861d5"/></clipPath>
		<clipPath id="z21861c6"><use xlink:href="#z21861d6"/></clipPath>
		<clipPath id="z21861c7"><use xlink:href="#z21861d7"/></clipPath>
		<clipPath id="z21861c8"><use xlink:href="#z21861d8"/></clipPath>
		<clipPath id="z21861c9"><use xlink:href="#z21861d9"/></clipPath>
		<clipPath id="z21861c10"><use xlink:href="#z21861d10"/></clipPath>
		<clipPath id="z21861c11"><use xlink:href="#z21861d11"/></clipPath>
	</defs>
	<path pathLength="2999" clip-path="url(#z21861c1)" d="M79 520L114 484L154 273"/>
	<path pathLength="2999" clip-path="url(#z21861c2)" d="M138 517L259 541L285 527L261 387"/>
	<path pathLength="2999" clip-path="url(#z21861c3)" d="M166 354L308 364"/>
	<path pathLength="2999" clip-path="url(#z21861c4)" d="M540 792L577 750L522 630L449 518L328 402"/>
	<path pathLength="2999" clip-path="url(#z21861c5)" d="M585 686L801 488L981 454"/>
	<path pathLength="2999" clip-path="url(#z21861c6)" d="M451 448L695 476"/>
	<path pathLength="2999" clip-path="url(#z21861c7)" d="M339 287L734 342L823 335"/>
	<path pathLength="2999" clip-path="url(#z21861c8)" d="M532 420L567 391L530 191"/>
	<path pathLength="2999" clip-path="url(#z21861c9)" d="M395 175L433 130L469 -33"/>
	<path pathLength="2999" clip-path="url(#z21861c10)" d="M419 176L700 196L729 157L686 53"/>
	<path pathLength="2999" clip-path="url(#z21861c11)" d="M485 26L725 27"/>
</g>
</svg>