<!--
AnimCJK 2016-2017 Copyright Francois Mizessyn, https://github.com/parsimonhi/animCJK
Derived from:
    MakeMeAHanzi project - https://github.com/skishore/makemeahanzi
    Arphic PL KaitiM GB - https://apps.ubuntu.com/cat/applications/precise/fonts-arphic-gkai00mp/
    Arphic PL UKai - https://apps.ubuntu.com/cat/applications/fonts-arphic-ukai/
You can redistribute and/or modify this file under the terms of the Arphic Public License
as published by Arphic Technology Co., Ltd.
You should have received a copy of this license (the directory "APL") along with this file;
if not, see http://ftp.gnu.org/non-gnu/chinese-fonts-truetype/LICENSE.
-->
<svg id="z21884" class="acjk" version="1.1" viewBox="0 0 1024 1024" xmlns="http://www.w3.org/2000/svg" xmlns:xlink="http://www.w3.org/1999/xlink">
<style>
<![CDATA[
@keyframes z21884k {
	from {
		stroke:#c00;
		stroke-dashoffset:3000;
	}
	75% {
		stroke:#c00;
		stroke-dashoffset:0;
	}
	to {
		stroke:#000;
	}
}
#z21884 path[clip-path] {
	animation:z21884k 1s linear both;
	stroke-dasharray:3000;
	stroke-width:128;
	stroke-linecap:round;
	fill:none;
}
#z21884 path[clip-path="url(#z21884c1)"] {animation-delay:1s;}
#z21884 path[clip-path="url(#z21884c2)"] {animation-delay:2s;}
#z21884 path[clip-path="url(#z21884c3)"] {animation-delay:3s;}
#z21884 path[clip-path="url(#z21884c4)"] {animation-delay:4s;}
#z21884 path[clip-path="url(#z21884c5)"] {animation-delay:5s;}
#z21884 path[clip-path="url(#z21884c6)"] {animation-delay:6s;}
#z21884 path[clip-path="url(#z21884c7)"] {animation-delay:7s;}
#z21884 path[clip-path="url(#z21884c8)"] {animation-delay:8s;}
#z21884 path[clip-path="url(#z21884c9)"] {animation-delay:9s;}
#z21884 path[clip-path="url(#z21884c10)"] {animation-delay:10s;}
#z21884 path[clip-path="url(#z21884c11)"] {animation-delay:11s;}
#z21884 path[clip-path="url(#z21884c12)"] {animation-delay:12s;}
#z21884 path {fill:#ccc;}
]]>
</style>
<path id="z21884d1" d="M138 300Q128 296 106 291Q94 287 91 292Q84 298 92 313Q123 386 136 505Q137 539 157 565Q173 586 179 571Q188 547 181 502L176 469Q158 354 156 326L138 300 Z"/>
<path id="z21884d2" d="M307 450Q326 350 353 320Q375 295 352 281Q289 248 286 248Q276 248 268 254Q232 279 138 300L156 326Q163 325 176 322Q215 312 248 304Q270 300 276 308Q285 315 277 354Q268 396 259 444L307 450 Z"/>
<path id="z21884d3" d="M181 502Q199 493 315 477Q325 476 325 467Q325 460 307 450L259 444Q255 444 252 446Q209 459 176 469L181 502 Z"/>
<path id="z21884d4" d="M593 90Q615 103 639 121Q654 131 668 128Q678 125 681 112Q682 97 669 71Q662 56 635 50Q568 43 559 49Q555 53 559 65Q565 75 593 90 Z"/>
<path id="z21884d5" d="M705 217Q801 198 806 194Q813 187 810 179Q804 167 778 160Q757 154 641 184Q536 202 470 207Q436 211 459 227Q492 248 564 238Q616 229 674 221L705 217 Z"/>
<path id="z21884d6" d="M490 296Q520 357 540 363Q550 367 559 353Q563 343 558 324Q549 297 499 275Q492 272 489 281Q486 288 490 296 Z"/>
<path id="z21884d7" d="M669 365Q673 358 679 351Q695 329 713 300Q720 287 735 272Q748 262 741 252Q734 236 707 218Q706 217 705 217L674 221Q673 222 676 227Q683 252 645 349Q639 361 638 371L669 365 Z"/>
<path id="z21884d8" d="M411 409Q398 390 388 383Q370 373 371 395Q380 423 331 489Q313 508 342 556L343 558Q358 580 373 554Q386 532 394 498Q403 461 410 438L411 409 Z"/>
<path id="z21884d9" d="M611 402Q765 371 810 374Q823 387 820 394Q820 397 804 458Q798 471 805 475Q812 478 827 466Q873 429 912 416Q945 403 943 396Q942 387 872 344Q851 329 734 354Q683 360 669 365L638 371Q577 378 496 395Q453 402 411 409L410 438Q429 447 450 441Q504 423 562 411L611 402 Z"/>
<path id="z21884d10" d="M474 542Q450 530 436 531Q424 535 429 545Q457 603 430 691Q412 709 433 752Q436 758 442 765Q448 775 456 771Q483 750 484 678Q487 597 490 576L474 542 Z"/>
<path id="z21884d11" d="M634 552Q671 546 711 544Q741 543 742 563Q748 684 734 700Q728 704 679 705Q663 702 661 707Q658 713 670 721Q718 754 747 779Q762 791 773 777Q795 743 797 678Q794 594 802 556Q806 537 796 528Q771 504 752 494Q740 488 731 497Q725 504 635 523L585 530Q542 534 474 542L490 576Q494 576 500 575Q542 565 584 560L634 552 Z"/>
<path id="z21884d12" d="M584 930Q588 952 595 961Q599 968 607 966Q619 957 626 904Q633 840 633 775Q630 726 634 552L635 523Q635 492 645 441Q648 425 635 416Q622 407 611 402L562 411Q583 442 585 530L584 560Q578 884 584 930 Z"/>
<defs>
	<clipPath id="z21884c1"><use xlink:href="#z21884d1"/></clipPath>
	<clipPath id="z21884c2"><use xlink:href="#z21884d2"/></clipPath>
	<clipPath id="z21884c3"><use xlink:href="#z21884d3"/></clipPath>
	<clipPath id="z21884c4"><use xlink:href="#z21884d4"/></clipPath>
	<clipPath id="z21884c5"><use xlink:href="#z21884d5"/></clipPath>
	<clipPath id="z21884c6"><use xlink:href="#z21884d6"/></clipPath>
	<clipPath id="z21884c7"><use xlink:href="#z21884d7"/></clipPath>
	<clipPath id="z21884c8"><use xlink:href="#z21884d8"/></clipPath>
	<clipPath id="z21884c9"><use xlink:href="#z21884d9"/></clipPath>
	<clipPath id="z21884c10"><use xlink:href="#z21884d10"/></clipPath>
	<clipPath id="z21884c11"><use xlink:href="#z21884d11"/></clipPath>
	<clipPath id="z21884c12"><use xlink:href="#z21884d12"/></clipPath>
</defs>
<path pathLength="2999" clip-path="url(#z21884c1)" d="M95 297L129 335L169 571"/>
<path pathLength="2999" clip-path="url(#z21884c2)" d="M146 301L278 277L320 303L275 446"/>
<path pathLength="2999" clip-path="url(#z21884c3)" d="M187 494L319 465"/>
<path pathLength="2999" clip-path="url(#z21884c4)" d="M565 54L676 115"/>
<path pathLength="2999" clip-path="url(#z21884c5)" d="M457 215L805 181"/>
<path pathLength="2999" clip-path="url(#z21884c6)" d="M496 285L547 359"/>
<path pathLength="2999" clip-path="url(#z21884c7)" d="M682 228L705 271L644 363"/>
<path pathLength="2999" clip-path="url(#z21884c8)" d="M380 388L388 434L351 560"/>
<path pathLength="2999" clip-path="url(#z21884c9)" d="M414 431L825 358L889 406L809 467"/>
<path pathLength="2999" clip-path="url(#z21884c10)" d="M437 540L465 590L448 766"/>
<path pathLength="2999" clip-path="url(#z21884c11)" d="M482 544L759 533L755 733L669 712"/>
<path pathLength="2999" clip-path="url(#z21884c12)" d="M571 413L612 444L600 958"/>
</svg>