<!--
AnimCJK 2016-2018 Copyright Francois Mizessyn - https://github.com/parsimonhi/animCJK
Derived from:
    MakeMeAHanzi project - https://github.com/skishore/makemeahanzi
    Arphic PL KaitiM GB - https://apps.ubuntu.com/cat/applications/precise/fonts-arphic-gkai00mp/
    Arphic PL UKai - https://apps.ubuntu.com/cat/applications/fonts-arphic-ukai/
You can redistribute and/or modify this file under the terms of the Arphic Public License
as published by Arphic Technology Co., Ltd.
You should have received a copy of this license (the directory "APL") along with this file;
if not, see http://ftp.gnu.org/non-gnu/chinese-fonts-truetype/LICENSE.
-->
<svg id="z21924" class="acjk" version="1.1" viewBox="0 0 1024 1024" xmlns="http://www.w3.org/2000/svg" xmlns:xlink="http://www.w3.org/1999/xlink">
<style>
<![CDATA[
@keyframes z21924k {
	from {
		stroke:#ccc;
		stroke-dashoffset:3334;
	}
	1% {
		stroke:#c00;
		stroke-dashoffset:3334;
	}
	75% {
		stroke:#c00;
		stroke-dashoffset:0;
	}
	to {
		stroke:#000;
	}
}
#z21924 path[clip-path] {
	animation:z21924k 1s linear both;
	stroke-dasharray:3334;
	stroke-width:128;
	stroke-linecap:round;
	fill:none;
}
#z21924 path[clip-path="url(#z21924c1)"] {animation-delay:1s;}
#z21924 path[clip-path="url(#z21924c2)"] {animation-delay:2s;}
#z21924 path[clip-path="url(#z21924c3)"] {animation-delay:3s;}
#z21924 path[clip-path="url(#z21924c4)"] {animation-delay:4s;}
#z21924 path[clip-path="url(#z21924c5)"] {animation-delay:5s;}
#z21924 path[clip-path="url(#z21924c6)"] {animation-delay:6s;}
#z21924 path[clip-path="url(#z21924c7)"] {animation-delay:7s;}
#z21924 path[clip-path="url(#z21924c8)"] {animation-delay:8s;}
#z21924 path[clip-path="url(#z21924c9)"] {animation-delay:9s;}
#z21924 path[clip-path="url(#z21924c10)"] {animation-delay:10s;}
#z21924 path[clip-path="url(#z21924c11)"] {animation-delay:11s;}
#z21924 path[clip-path="url(#z21924c12)"] {animation-delay:12s;}
#z21924 path {fill:#ccc;}
]]>
</style>
<path id="z21924d1" d="M164 343Q151 336 120 330Q107 326 103 332Q96 338 104 355Q134 425 147 538Q148 572 168 595Q184 619 191 603Q197 588 197 564L195 529Q179 408 176 374L164 343 Z"/>
<path id="z21924d2" d="M347 498Q366 398 393 368Q418 340 392 325Q370 313 341 294Q317 282 281 307Q233 329 164 343L176 374Q255 355 276 350Q301 344 308 355Q318 362 309 404Q302 450 291 502L347 498 Z"/>
<path id="z21924d3" d="M197 564Q206 565 219 562Q265 549 369 537Q379 536 381 526Q381 517 347 498L291 502Q239 518 195 529L197 564 Z"/>
<path id="z21924d4" d="M560 244Q587 219 604 202Q649 147 675 129Q694 114 679 98Q661 85 632 75Q604 68 591 73Q578 77 586 90Q595 114 540 231Q536 238 531 249Q530 249 530 250L560 244 Z"/>
<path id="z21924d5" d="M482 259Q470 252 436 248Q424 244 421 250Q414 256 423 272Q454 336 474 443Q477 476 496 497Q514 519 519 503Q520 494 522 483L521 455Q518 431 508 383L504 363Q495 314 493 293L482 259 Z"/>
<path id="z21924d6" d="M709 465Q728 493 744 503Q754 512 771 490Q787 466 819 335Q829 304 853 279Q866 266 855 252Q839 234 797 207Q782 200 701 217Q692 217 568 242Q562 242 560 244L530 250Q502 254 482 259L493 293Q550 274 717 248Q747 244 757 253Q769 269 766 283Q739 427 721 438L709 465 Z"/>
<path id="z21924d7" d="M508 383Q515 387 533 385Q618 372 682 364Q706 360 697 348Q687 333 661 328Q637 325 504 363L508 383 Z"/>
<path id="z21924d8" d="M522 483Q523 483 526 484Q536 487 548 484Q600 472 709 465L721 438Q715 434 708 429Q692 420 664 427Q585 446 521 455L522 483 Z"/>
<path id="z21924d9" d="M623 599Q792 569 802 563Q811 556 806 548Q800 536 772 528Q745 521 638 551Q551 567 478 573Q444 577 468 594Q504 621 564 608Q567 607 575 607L623 599 Z"/>
<path id="z21924d10" d="M641 739Q651 736 773 723Q783 724 792 713Q793 703 772 691Q739 667 649 695Q646 695 644 696L586 707Q552 711 522 714Q488 717 449 721Q421 724 442 741Q472 766 500 760Q539 753 586 746L641 739 Z"/>
<path id="z21924d11" d="M633 853Q637 792 641 739L644 696Q644 671 648 650Q657 623 625 600Q624 599 623 599L575 607Q582 632 586 707L586 746Q586 789 586 856L633 853 Z"/>
<path id="z21924d12" d="M586 856Q465 866 330 878Q308 879 323 897Q338 913 356 919Q378 925 394 921Q625 872 924 893Q925 892 927 893Q948 894 953 885Q960 873 943 858Q889 816 851 823Q769 836 633 853L586 856 Z"/>
<defs>
	<clipPath id="z21924c1"><use xlink:href="#z21924d1"/></clipPath>
	<clipPath id="z21924c2"><use xlink:href="#z21924d2"/></clipPath>
	<clipPath id="z21924c3"><use xlink:href="#z21924d3"/></clipPath>
	<clipPath id="z21924c4"><use xlink:href="#z21924d4"/></clipPath>
	<clipPath id="z21924c5"><use xlink:href="#z21924d5"/></clipPath>
	<clipPath id="z21924c6"><use xlink:href="#z21924d6"/></clipPath>
	<clipPath id="z21924c7"><use xlink:href="#z21924d7"/></clipPath>
	<clipPath id="z21924c8"><use xlink:href="#z21924d8"/></clipPath>
	<clipPath id="z21924c9"><use xlink:href="#z21924d9"/></clipPath>
	<clipPath id="z21924c10"><use xlink:href="#z21924d10"/></clipPath>
	<clipPath id="z21924c11"><use xlink:href="#z21924d11"/></clipPath>
	<clipPath id="z21924c12"><use xlink:href="#z21924d12"/></clipPath>
</defs>
<path pathLength="3333" clip-path="url(#z21924c1)" d="M107 336L145 378L181 602"/>
<path pathLength="3333" clip-path="url(#z21924c2)" d="M171 345L314 320L357 349L306 500"/>
<path pathLength="3333" clip-path="url(#z21924c3)" d="M205 557L279 527L376 523"/>
<path pathLength="3333" clip-path="url(#z21924c4)" d="M591 80L632 127L539 243"/>
<path pathLength="3333" clip-path="url(#z21924c5)" d="M425 253L459 280L506 502"/>
<path pathLength="3333" clip-path="url(#z21924c6)" d="M491 267L781 232L812 277L743 500"/>
<path pathLength="3333" clip-path="url(#z21924c7)" d="M511 368L694 351"/>
<path pathLength="3333" clip-path="url(#z21924c8)" d="M527 476L715 443"/>
<path pathLength="3333" clip-path="url(#z21924c9)" d="M466 583L802 553"/>
<path pathLength="3333" clip-path="url(#z21924c10)" d="M440 729L785 709"/>
<path pathLength="3333" clip-path="url(#z21924c11)" d="M583 611L616 649L610 854"/>
<path pathLength="3333" clip-path="url(#z21924c12)" d="M322 885L380 898L863 855L951 874"/>
</svg>