<!--
AnimCJK 2016-2018 Copyright Francois Mizessyn - https://github.com/parsimonhi/animCJK
Derived from:
    MakeMeAHanzi project - https://github.com/skishore/makemeahanzi
    Arphic PL KaitiM GB - https://apps.ubuntu.com/cat/applications/precise/fonts-arphic-gkai00mp/
    Arphic PL UKai - https://apps.ubuntu.com/cat/applications/fonts-arphic-ukai/
You can redistribute and/or modify this file under the terms of the Arphic Public License
as published by Arphic Technology Co., Ltd.
You should have received a copy of this license (the directory "APL") along with this file;
if not, see http://ftp.gnu.org/non-gnu/chinese-fonts-truetype/LICENSE.
-->
<svg id="z21945" class="acjk" version="1.1" viewBox="0 0 1024 1024" xmlns="http://www.w3.org/2000/svg" xmlns:xlink="http://www.w3.org/1999/xlink">
<style>
<![CDATA[
@keyframes z21945k {
	from {
		stroke:#c00;
		stroke-dashoffset:3334;
	}
	75% {
		stroke:#c00;
		stroke-dashoffset:0;
	}
	to {
		stroke:#000;
	}
}
#z21945 path[clip-path] {
	animation:z21945k 1s linear both;
	stroke-dasharray:3334;
	stroke-width:128;
	stroke-linecap:round;
	fill:none;
}
#z21945 path[clip-path="url(#z21945c1)"] {animation-delay:1s;}
#z21945 path[clip-path="url(#z21945c2)"] {animation-delay:2s;}
#z21945 path[clip-path="url(#z21945c3)"] {animation-delay:3s;}
#z21945 path[clip-path="url(#z21945c4)"] {animation-delay:4s;}
#z21945 path[clip-path="url(#z21945c5)"] {animation-delay:5s;}
#z21945 path[clip-path="url(#z21945c6)"] {animation-delay:6s;}
#z21945 path[clip-path="url(#z21945c7)"] {animation-delay:7s;}
#z21945 path[clip-path="url(#z21945c8)"] {animation-delay:8s;}
#z21945 path[clip-path="url(#z21945c9)"] {animation-delay:9s;}
#z21945 path[clip-path="url(#z21945c10)"] {animation-delay:10s;}
#z21945 path[clip-path="url(#z21945c11)"] {animation-delay:11s;}
#z21945 path[clip-path="url(#z21945c12)"] {animation-delay:12s;}
#z21945 path {fill:#ccc;}
]]>
</style>
<path id="z21945d1" d="M133 343Q121 337 93 330Q81 326 77 331Q70 337 78 353Q106 429 117 550Q118 586 137 612Q153 634 159 619Q169 595 163 547L159 513Q146 399 145 370L133 343 Z"/>
<path id="z21945d2" d="M304 493Q320 397 346 367Q368 342 345 327Q326 317 299 300Q278 288 236 315Q185 333 133 343L145 370Q151 369 160 367Q202 357 237 350Q262 346 268 355Q275 361 256 486L304 493 Z"/>
<path id="z21945d3" d="M163 547Q170 547 180 545Q222 535 314 523Q324 522 325 512Q325 505 304 493L256 486Q250 486 247 488Q198 504 159 513L163 547 Z"/>
<path id="z21945d4" d="M648 284Q681 275 834 255Q847 256 857 242Q858 229 832 217Q793 193 713 219Q674 228 636 238Q606 245 578 251L518 262Q488 263 385 279Q352 283 377 303Q411 330 460 321Q476 318 496 314L557 302Q585 295 616 289L648 284 Z"/>
<path id="z21945d5" d="M578 251Q599 190 633 143Q640 134 635 124Q623 103 594 79Q576 63 559 64Q538 65 548 86Q566 123 556 151Q537 212 518 262L496 314Q400 491 314 568Q286 590 246 618Q233 622 230 626Q226 632 241 634Q248 635 284 621Q309 612 354 581Q388 559 419 525Q497 440 557 302L578 251 Z"/>
<path id="z21945d6" d="M616 289Q793 536 848 544Q935 544 989 534Q999 533 1000 527Q1000 523 987 515Q842 467 764 396Q709 347 648 284L616 289 Z"/>
<path id="z21945d7" d="M611 506Q645 497 684 491Q715 484 719 480Q726 473 723 466Q716 456 691 450Q663 444 616 463L563 477Q523 484 480 488Q449 492 471 508Q510 529 557 516Q560 515 565 515L611 506 Z"/>
<path id="z21945d8" d="M603 580Q607 541 611 506L616 463Q616 462 617 461Q621 440 627 420Q630 411 614 399Q586 384 566 380Q553 377 546 384Q540 391 546 403Q558 418 563 477L565 515Q566 549 567 587L603 580 Z"/>
<path id="z21945d9" d="M591 617Q654 607 755 605Q797 605 804 596Q808 586 794 576Q743 543 686 562Q650 568 603 580L567 587Q494 599 409 613Q393 616 406 629Q433 653 463 644Q505 631 551 624L591 617 Z"/>
<path id="z21945d10" d="M614 752Q762 722 766 719Q775 712 771 704Q764 692 736 684Q712 678 616 706L564 717Q512 724 454 729Q418 733 443 750Q482 777 539 764Q549 760 565 760L614 752 Z"/>
<path id="z21945d11" d="M609 840Q610 792 614 752L616 706Q622 646 617 639Q604 626 591 617L551 624Q560 645 564 717L565 760Q565 794 567 845L609 840 Z"/>
<path id="z21945d12" d="M567 845Q465 855 349 866Q328 867 343 885Q356 900 375 905Q396 912 412 907Q610 861 851 880Q851 879 853 880Q872 880 878 872Q884 860 868 846Q811 801 770 815Q707 825 609 840L567 845 Z"/>
<defs>
	<clipPath id="z21945c1"><use xlink:href="#z21945d1"/></clipPath>
	<clipPath id="z21945c2"><use xlink:href="#z21945d2"/></clipPath>
	<clipPath id="z21945c3"><use xlink:href="#z21945d3"/></clipPath>
	<clipPath id="z21945c4"><use xlink:href="#z21945d4"/></clipPath>
	<clipPath id="z21945c5"><use xlink:href="#z21945d5"/></clipPath>
	<clipPath id="z21945c6"><use xlink:href="#z21945d6"/></clipPath>
	<clipPath id="z21945c7"><use xlink:href="#z21945d7"/></clipPath>
	<clipPath id="z21945c8"><use xlink:href="#z21945d8"/></clipPath>
	<clipPath id="z21945c9"><use xlink:href="#z21945d9"/></clipPath>
	<clipPath id="z21945c10"><use xlink:href="#z21945d10"/></clipPath>
	<clipPath id="z21945c11"><use xlink:href="#z21945d11"/></clipPath>
	<clipPath id="z21945c12"><use xlink:href="#z21945d12"/></clipPath>
</defs>
<path pathLength="3333" clip-path="url(#z21945c1)" d="M81 336L117 382L151 618"/>
<path pathLength="3333" clip-path="url(#z21945c2)" d="M141 348L269 324L310 345L274 488"/>
<path pathLength="3333" clip-path="url(#z21945c3)" d="M168 539L255 508L320 512"/>
<path pathLength="3333" clip-path="url(#z21945c4)" d="M376 290L852 240"/>
<path pathLength="3333" clip-path="url(#z21945c5)" d="M553 70L597 134L500 361L376 536L237 629"/>
<path pathLength="3333" clip-path="url(#z21945c6)" d="M625 289L842 497L991 524"/>
<path pathLength="3333" clip-path="url(#z21945c7)" d="M472 497L718 472"/>
<path pathLength="3333" clip-path="url(#z21945c8)" d="M550 388L593 428L580 583"/>
<path pathLength="3333" clip-path="url(#z21945c9)" d="M406 619L800 586"/>
<path pathLength="3333" clip-path="url(#z21945c10)" d="M442 739L768 709"/>
<path pathLength="3333" clip-path="url(#z21945c11)" d="M559 628L589 657L582 843"/>
<path pathLength="3333" clip-path="url(#z21945c12)" d="M343 872L401 885L789 844L875 864"/>
</svg>