<!--
AnimCJK 2016-2019 Copyright Francois Mizessyn - https://github.com/parsimonhi/animCJK
Derived from:
    MakeMeAHanzi project - https://github.com/skishore/makemeahanzi
    Arphic PL KaitiM GB font
    Arphic PL UKai font
You can redistribute and/or modify this file under the terms of the Arphic Public License
as published by Arphic Technology Co., Ltd.
You should have received a copy of this license along with this file.
If not, see http://ftp.gnu.org/non-gnu/chinese-fonts-truetype/LICENSE.
-->
<svg id="z21947" class="acjk" version="1.1" viewBox="0 0 1024 1024" xmlns="http://www.w3.org/2000/svg" xmlns:xlink="http://www.w3.org/1999/xlink">
<style>
<![CDATA[
@keyframes zk {
	to {
		stroke-dashoffset:0;
	}
}
svg.acjk path[clip-path] {
	--t:0.8s;
	animation:zk var(--t) linear forwards var(--d);
	stroke-dasharray:3337;
	stroke-dashoffset:3339;
	stroke-width:128;
	stroke-linecap:round;
	fill:none;
	stroke:#000;
}
svg.acjk path[id] {fill:#ccc;}
]]>
</style>
<path id="z21947d1" d="M118 323Q106 319 89 315Q76 311 73 316Q66 322 74 338Q101 402 114 504Q115 535 132 556Q148 578 155 563Q162 544 159 505C156 484 156 484 155 473Q142 371 142 349Q142 348 141 347C139 336 128 327 118 323Z"/>
<path id="z21947d2" d="M285 449Q301 365 325 340Q347 313 324 300Q305 290 277 273Q256 261 217 290Q172 306 118 323C108 327 131 351 141 347Q156 338 221 325Q243 319 249 329Q256 335 250 371Q243 405 236 446C233 462 282 465 285 449Z"/>
<path id="z21947d3" d="M159 505Q165 505 173 503Q210 491 296 477Q305 476 306 467Q306 460 285 449C271 441 252 441 236 446Q233 446 232 447Q190 463 155 473C145 477 148 505 159 505Z"/>
<path id="z21947d4" d="M359 499Q441 415 464 387Q572 204 577 198C586 179 586 179 591 170Q609 133 617 125Q624 119 622 108Q619 98 605 87Q566 56 533 68Q524 71 528 84Q552 174 425 362Q413 377 402 392Q360 447 252 559Q245 566 255 568Q276 562 345 510C354 503 354 503 359 499Z"/>
<path id="z21947d5" d="M577 198Q590 210 603 227Q793 467 829 475Q862 482 969 460Q985 459 990 450Q993 443 983 440Q856 401 795 358Q716 303 598 176Q594 172 591 170C583 163 569 192 577 198Z"/>
<path id="z21947d6" d="M479 398Q445 405 470 419Q507 437 572 422Q612 413 655 403Q677 397 680 394Q687 387 683 379Q676 369 649 363Q621 359 595 370Q570 379 543 386Q515 393 479 398Z"/>
<path id="z21947d7" d="M390 702Q391 663 395 634C397 613 397 613 398 602Q402 559 405 543Q405 540 405 538C405 528 401 516 392 512Q373 502 359 499C353 498 344 504 345 510Q344 510 345 511Q379 598 339 767Q333 786 324 801Q308 834 334 872Q340 884 349 879Q386 852 387 738Q387 734 388 731C389 712 389 712 390 702Z"/>
<path id="z21947d8" d="M405 538Q424 534 479 517Q495 513 500 520Q506 533 510 689Q513 815 500 835Q497 838 437 829Q419 825 421 832Q467 871 493 900Q505 916 518 920Q525 923 533 914Q567 874 566 826Q544 568 564 531Q574 515 564 506Q545 490 515 478Q499 472 486 478Q450 500 392 512C382 514 395 540 405 538Z"/>
<path id="z21947d9" d="M395 634Q435 627 466 623Q485 617 478 607Q468 594 444 593Q425 592 398 602C388 606 384 636 395 634Z"/>
<path id="z21947d10" d="M388 731Q431 724 465 720Q484 717 477 706Q468 694 447 691Q428 690 393 700Q390 701 390 702C381 706 378 733 388 731Z"/>
<path id="z21947d11" d="M606 542Q625 591 613 721Q609 742 630 774Q637 783 645 773Q658 755 659 677Q659 596 664 565Q668 547 653 538Q640 531 626 523Q616 520 609 524Q602 530 606 542Z"/>
<path id="z21947d12" d="M742 537Q745 555 747 825Q747 837 741 841Q735 845 677 842Q649 835 651 843Q652 849 671 859Q726 896 741 917Q757 942 771 943Q783 943 794 914Q807 875 802 814Q775 609 801 514Q814 489 768 471Q740 456 723 462Q710 468 722 487Q741 509 742 537Z"/>
<defs>
	<clipPath id="z21947c1"><use xlink:href="#z21947d1"/></clipPath>
	<clipPath id="z21947c2"><use xlink:href="#z21947d2"/></clipPath>
	<clipPath id="z21947c3"><use xlink:href="#z21947d3"/></clipPath>
	<clipPath id="z21947c4"><use xlink:href="#z21947d4"/></clipPath>
	<clipPath id="z21947c5"><use xlink:href="#z21947d5"/></clipPath>
	<clipPath id="z21947c6"><use xlink:href="#z21947d6"/></clipPath>
	<clipPath id="z21947c7"><use xlink:href="#z21947d7"/></clipPath>
	<clipPath id="z21947c8"><use xlink:href="#z21947d8"/></clipPath>
	<clipPath id="z21947c9"><use xlink:href="#z21947d9"/></clipPath>
	<clipPath id="z21947c10"><use xlink:href="#z21947d10"/></clipPath>
	<clipPath id="z21947c11"><use xlink:href="#z21947d11"/></clipPath>
	<clipPath id="z21947c12"><use xlink:href="#z21947d12"/></clipPath>
</defs>
<path style="--d:1s;" pathLength="3333" clip-path="url(#z21947c1)" d="M77 321L115 362L147 562"/>
<path style="--d:2s;" pathLength="3333" clip-path="url(#z21947c2)" d="M125 325L249 298L285 315L252 446"/>
<path style="--d:3s;" pathLength="3333" clip-path="url(#z21947c3)" d="M163 498L222 470L299 467"/>
<path style="--d:4s;" pathLength="3333" clip-path="url(#z21947c4)" d="M533 74L577 117L491 298L411 415L256 562"/>
<path style="--d:5s;" pathLength="3333" clip-path="url(#z21947c5)" d="M591 178L719 331L832 428L984 445"/>
<path style="--d:6s;" pathLength="3333" clip-path="url(#z21947c6)" d="M467 406L679 379"/>
<path style="--d:7s;" pathLength="3333" clip-path="url(#z21947c7)" d="M351 513L378 542L380 584L343 876"/>
<path style="--d:8s;" pathLength="3333" clip-path="url(#z21947c8)" d="M399 515L499 495L535 523L532 844L511 878L429 832"/>
<path style="--d:9s;" pathLength="3333" clip-path="url(#z21947c9)" d="M400 626L475 610"/>
<path style="--d:10s;" pathLength="3333" clip-path="url(#z21947c10)" d="M393 722L472 707"/>
<path style="--d:11s;" pathLength="3333" clip-path="url(#z21947c11)" d="M615 532L639 562L634 772"/>
<path style="--d:12s;" pathLength="3333" clip-path="url(#z21947c12)" d="M721 466L771 510L771 866L747 892L660 843"/>
</svg>