<!--
AnimCJK 2016-2019 Copyright Francois Mizessyn - https://github.com/parsimonhi/animCJK
Derived from:
    MakeMeAHanzi project - https://github.com/skishore/makemeahanzi
    Arphic PL KaitiM GB font
    Arphic PL UKai font
You can redistribute and/or modify this file under the terms of the Arphic Public License
as published by Arphic Technology Co., Ltd.
You should have received a copy of this license along with this file.
If not, see http://ftp.gnu.org/non-gnu/chinese-fonts-truetype/LICENSE.
-->
<svg id="z21950" class="acjk" version="1.1" viewBox="0 0 1024 1024" xmlns="http://www.w3.org/2000/svg" xmlns:xlink="http://www.w3.org/1999/xlink">
<style>
<![CDATA[
@keyframes zk {
	to {
		stroke-dashoffset:0;
	}
}
svg.acjk path[clip-path] {
	--t:0.8s;
	animation:zk var(--t) linear forwards var(--d);
	stroke-dasharray:3337;
	stroke-dashoffset:3339;
	stroke-width:128;
	stroke-linecap:round;
	fill:none;
	stroke:#000;
}
svg.acjk path[id] {fill:#ccc;}
]]>
</style>
<path id="z21950d1" d="M310 196Q343 221 378 254Q391 266 406 265Q416 264 421 251Q425 238 416 209Q410 187 376 171Q295 144 284 149Q280 153 281 165Q285 175 310 196Z"/>
<path id="z21950d2" d="M446 121Q500 205 527 209Q542 212 550 193Q554 180 546 157Q525 120 454 93Q444 90 442 103Q439 110 446 121Z"/>
<path id="z21950d3" d="M615 276Q697 195 741 162Q760 155 753 144Q744 128 722 111Q698 95 674 95Q658 98 662 118Q666 133 660 151Q635 200 582 280C576 290 607 284 615 276Z"/>
<path id="z21950d4" d="M262 322Q261 321 261 318Q249 293 237 284Q218 269 216 296Q219 323 190 367Q139 415 171 477Q187 505 207 476Q223 452 235 416Q250 374 260 345C263 338 264 330 262 322Z"/>
<path id="z21950d5" d="M582 280Q497 289 378 308Q323 315 268 321Q264 321 262 322C254 323 253 341 260 345Q288 366 330 357Q474 314 699 296Q735 292 749 295Q765 307 763 314Q763 317 729 393Q722 406 729 411Q736 415 753 403Q810 363 857 350Q894 337 894 329Q893 319 820 265Q799 249 775 253Q702 263 615 276C593 279 593 279 582 280Z"/>
<path id="z21950d6" d="M362 496Q374 477 388 463Q398 451 385 438Q346 405 323 408Q313 409 314 424Q323 479 261 561Q254 564 233 593Q226 606 239 603Q284 597 347 518Q348 512 354 507C359 500 359 500 362 496Z"/>
<path id="z21950d7" d="M534 514Q684 484 690 479Q699 472 695 464Q688 452 660 444Q639 438 538 467C500 476 500 476 481 480Q430 487 374 493Q365 494 362 496C358 498 350 504 354 507Q390 543 460 526Q470 523 483 523C517 517 517 517 534 514Z"/>
<path id="z21950d8" d="M525 610Q529 561 534 514C537 483 537 483 538 467Q539 458 540 450Q543 429 546 416Q550 403 552 395Q556 385 537 370Q503 352 481 349Q465 345 458 354Q451 361 459 375Q475 397 476 412Q479 445 481 480C482 509 482 509 483 523Q484 566 484 616C484 630 525 624 525 610Z"/>
<path id="z21950d9" d="M484 616Q345 632 182 652Q158 653 176 673Q192 689 211 695Q235 701 252 696Q453 645 791 645Q812 645 831 646Q853 646 859 636Q866 623 847 608Q790 565 748 573Q663 589 525 610C498 614 498 614 484 616Z"/>
<path id="z21950d10" d="M372 749Q360 743 332 740Q320 737 317 742Q310 749 320 764Q345 813 365 896Q369 921 384 937Q402 959 407 943Q408 936 410 928C408 903 408 903 407 891Q392 812 389 783C387 771 384 754 372 749Z"/>
<path id="z21950d11" d="M658 866Q686 800 715 783Q734 764 719 745Q703 730 648 701Q629 692 607 700Q529 728 372 749C360 751 377 785 389 783Q392 783 586 752Q608 748 616 758Q623 765 622 782Q615 824 604 859C597 876 651 883 658 866Z"/>
<path id="z21950d12" d="M410 928Q420 929 433 928Q509 913 673 906Q685 905 687 895Q687 886 658 866C643 855 622 856 604 859Q603 858 601 859Q493 881 407 891C395 893 398 928 410 928Z"/>
<defs>
	<clipPath id="z21950c1"><use xlink:href="#z21950d1"/></clipPath>
	<clipPath id="z21950c2"><use xlink:href="#z21950d2"/></clipPath>
	<clipPath id="z21950c3"><use xlink:href="#z21950d3"/></clipPath>
	<clipPath id="z21950c4"><use xlink:href="#z21950d4"/></clipPath>
	<clipPath id="z21950c5"><use xlink:href="#z21950d5"/></clipPath>
	<clipPath id="z21950c6"><use xlink:href="#z21950d6"/></clipPath>
	<clipPath id="z21950c7"><use xlink:href="#z21950d7"/></clipPath>
	<clipPath id="z21950c8"><use xlink:href="#z21950d8"/></clipPath>
	<clipPath id="z21950c9"><use xlink:href="#z21950d9"/></clipPath>
	<clipPath id="z21950c10"><use xlink:href="#z21950d10"/></clipPath>
	<clipPath id="z21950c11"><use xlink:href="#z21950d11"/></clipPath>
	<clipPath id="z21950c12"><use xlink:href="#z21950d12"/></clipPath>
</defs>
<path style="--d:1s;" pathLength="3333" clip-path="url(#z21950c1)" d="M287 157L379 210L411 259"/>
<path style="--d:2s;" pathLength="3333" clip-path="url(#z21950c2)" d="M449 98L546 196"/>
<path style="--d:3s;" pathLength="3333" clip-path="url(#z21950c3)" d="M748 151L683 148L590 273"/>
<path style="--d:4s;" pathLength="3333" clip-path="url(#z21950c4)" d="M227 283L237 326L187 486"/>
<path style="--d:5s;" pathLength="3333" clip-path="url(#z21950c5)" d="M266 342L755 274L803 296L840 344L733 404"/>
<path style="--d:6s;" pathLength="3333" clip-path="url(#z21950c6)" d="M323 414L351 459L239 597"/>
<path style="--d:7s;" pathLength="3333" clip-path="url(#z21950c7)" d="M360 502L432 508L688 463"/>
<path style="--d:8s;" pathLength="3333" clip-path="url(#z21950c8)" d="M461 360L513 396L504 613"/>
<path style="--d:9s;" pathLength="3333" clip-path="url(#z21950c9)" d="M175 662L243 671L761 608L855 628"/>
<path style="--d:10s;" pathLength="3333" clip-path="url(#z21950c10)" d="M322 747L363 793L395 945"/>
<path style="--d:11s;" pathLength="3333" clip-path="url(#z21950c11)" d="M381 754L629 727L673 769L622 861"/>
<path style="--d:12s;" pathLength="3333" clip-path="url(#z21950c12)" d="M414 896L681 894"/>
</svg>