<!--
AnimCJK 2016-2019 Copyright Francois Mizessyn - https://github.com/parsimonhi/animCJK
Derived from:
    MakeMeAHanzi project - https://github.com/skishore/makemeahanzi
    Arphic PL KaitiM GB font
    Arphic PL UKai font
You can redistribute and/or modify this file under the terms of the Arphic Public License
as published by Arphic Technology Co., Ltd.
You should have received a copy of this license along with this file.
If not, see http://ftp.gnu.org/non-gnu/chinese-fonts-truetype/LICENSE.
-->
<svg id="z21972" class="acjk" version="1.1" viewBox="0 0 1024 1024" xmlns="http://www.w3.org/2000/svg" xmlns:xlink="http://www.w3.org/1999/xlink">
<style>
<![CDATA[
@keyframes zk {
	to {
		stroke-dashoffset:0;
	}
}
svg.acjk path[clip-path] {
	--t:0.8s;
	animation:zk var(--t) linear forwards var(--d);
	stroke-dasharray:3337;
	stroke-dashoffset:3339;
	stroke-width:128;
	stroke-linecap:round;
	fill:none;
	stroke:#000;
}
svg.acjk path[id] {fill:#ccc;}
]]>
</style>
<path id="z21972d1" d="M141 347Q131 340 101 335Q88 331 85 336Q78 342 86 358Q116 428 128 542Q129 576 148 600Q164 622 171 607Q178 588 176 550C173 528 173 528 171 517Q155 408 154 376C154 365 150 352 141 347Z"/>
<path id="z21972d2" d="M316 490Q329 396 353 368Q375 340 351 327Q284 294 280 294Q271 294 262 301Q222 328 141 347C131 349 144 380 154 376Q164 370 240 354Q265 348 271 358Q277 364 263 486C260 503 313 507 316 490Z"/>
<path id="z21972d3" d="M176 550Q185 551 196 547Q236 534 327 519Q337 518 338 508Q338 501 316 490C301 481 279 479 263 486Q259 487 258 488Q209 507 171 517C160 519 165 550 176 550Z"/>
<path id="z21972d4" d="M611 225Q804 189 809 185Q819 178 815 168Q808 156 778 147Q748 140 717 150Q669 163 620 177C582 184 582 184 563 188Q493 198 416 203Q379 207 404 226Q449 253 503 242Q531 238 561 233C594 228 594 228 611 225Z"/>
<path id="z21972d5" d="M592 323Q602 272 611 225C617 193 617 193 620 177Q620 164 638 118Q642 109 625 95Q597 76 575 70Q562 66 554 72Q547 78 552 92Q565 113 565 126Q565 156 563 188C562 218 562 218 561 233Q558 279 554 332C554 345 589 336 592 323Z"/>
<path id="z21972d6" d="M478 340Q462 327 446 320Q434 317 425 321Q418 325 421 336Q436 366 443 447Q444 516 451 688C451 702 494 697 494 683Q494 655 494 628C494 613 494 613 494 606Q494 575 494 548C494 532 494 532 494 524Q494 494 494 468C494 452 494 452 494 444Q494 378 497 369C499 358 487 347 478 340Z"/>
<path id="z21972d7" d="M730 650Q736 395 759 367Q772 354 759 337Q750 327 704 299Q691 289 669 298Q636 310 592 323C567 329 567 329 554 332Q518 336 478 339Q477 339 478 340C467 342 485 369 497 369Q510 370 527 366Q671 330 681 341Q690 359 680 658C680 675 730 667 730 650Z"/>
<path id="z21972d8" d="M494 468Q500 468 508 467Q578 451 629 442Q650 438 641 427Q631 414 608 412Q578 409 494 444C487 447 486 468 494 468Z"/>
<path id="z21972d9" d="M494 548Q500 548 507 547Q574 534 625 526Q644 522 637 511Q627 498 605 495Q577 494 494 524C487 527 486 548 494 548Z"/>
<path id="z21972d10" d="M494 628Q497 629 508 628Q581 616 636 610Q657 606 649 595Q639 582 617 578Q584 574 494 606C487 609 487 628 494 628Z"/>
<path id="z21972d11" d="M451 688Q376 695 297 705Q275 706 291 725Q306 740 324 745Q346 751 363 746Q555 698 874 697Q893 697 913 698Q934 698 939 689Q945 677 928 663Q870 618 803 636Q770 642 730 650C697 655 697 655 680 658Q640 662 593 670Q544 676 494 683C465 686 465 686 451 688Z"/>
<path id="z21972d12" d="M458 770Q437 830 279 928Q254 940 284 941Q348 944 475 857Q475 854 528 818Q541 808 540 797Q539 782 513 770Q485 754 471 756Q462 756 458 770Z"/>
<path id="z21972d13" d="M687 791Q733 842 788 914Q801 935 816 941Q825 942 833 934Q846 921 838 878Q828 818 690 761Q683 755 679 767Q678 780 687 791Z"/>
<defs>
	<clipPath id="z21972c1"><use xlink:href="#z21972d1"/></clipPath>
	<clipPath id="z21972c2"><use xlink:href="#z21972d2"/></clipPath>
	<clipPath id="z21972c3"><use xlink:href="#z21972d3"/></clipPath>
	<clipPath id="z21972c4"><use xlink:href="#z21972d4"/></clipPath>
	<clipPath id="z21972c5"><use xlink:href="#z21972d5"/></clipPath>
	<clipPath id="z21972c6"><use xlink:href="#z21972d6"/></clipPath>
	<clipPath id="z21972c7"><use xlink:href="#z21972d7"/></clipPath>
	<clipPath id="z21972c8"><use xlink:href="#z21972d8"/></clipPath>
	<clipPath id="z21972c9"><use xlink:href="#z21972d9"/></clipPath>
	<clipPath id="z21972c10"><use xlink:href="#z21972d10"/></clipPath>
	<clipPath id="z21972c11"><use xlink:href="#z21972d11"/></clipPath>
	<clipPath id="z21972c12"><use xlink:href="#z21972d12"/></clipPath>
	<clipPath id="z21972c13"><use xlink:href="#z21972d13"/></clipPath>
</defs>
<path style="--d:1s;" pathLength="3333" clip-path="url(#z21972c1)" d="M90 343L125 381L163 606"/>
<path style="--d:2s;" pathLength="3333" clip-path="url(#z21972c2)" d="M149 352L270 323L303 339L318 356L292 487"/>
<path style="--d:3s;" pathLength="3333" clip-path="url(#z21972c3)" d="M183 543L266 507L330 508"/>
<path style="--d:4s;" pathLength="3333" clip-path="url(#z21972c4)" d="M404 215L495 220L811 165"/>
<path style="--d:5s;" pathLength="3333" clip-path="url(#z21972c5)" d="M558 79L601 126L560 324"/>
<path style="--d:6s;" pathLength="3333" clip-path="url(#z21972c6)" d="M429 325L466 375L464 686"/>
<path style="--d:7s;" pathLength="3333" clip-path="url(#z21972c7)" d="M486 341L526 351L675 316L718 342L698 654"/>
<path style="--d:8s;" pathLength="3333" clip-path="url(#z21972c8)" d="M499 460L635 429"/>
<path style="--d:9s;" pathLength="3333" clip-path="url(#z21972c9)" d="M499 540L632 512"/>
<path style="--d:10s;" pathLength="3333" clip-path="url(#z21972c10)" d="M501 620L644 600"/>
<path style="--d:11s;" pathLength="3333" clip-path="url(#z21972c11)" d="M291 712L359 722L832 664L936 681"/>
<path style="--d:12s;" pathLength="3333" clip-path="url(#z21972c12)" d="M536 797L484 797L379 889L276 934"/>
<path style="--d:13s;" pathLength="3333" clip-path="url(#z21972c13)" d="M686 771L790 860L824 934"/>
</svg>