<!--
AnimCJK 2016-2018 Copyright Francois Mizessyn - https://github.com/parsimonhi/animCJK
Derived from:
    MakeMeAHanzi project - https://github.com/skishore/makemeahanzi
    Arphic PL KaitiM GB - https://apps.ubuntu.com/cat/applications/precise/fonts-arphic-gkai00mp/
    Arphic PL UKai - https://apps.ubuntu.com/cat/applications/fonts-arphic-ukai/
You can redistribute and/or modify this file under the terms of the Arphic Public License
as published by Arphic Technology Co., Ltd.
You should have received a copy of this license (the directory "APL") along with this file;
if not, see http://ftp.gnu.org/non-gnu/chinese-fonts-truetype/LICENSE.
-->
<svg id="z22016" class="acjk" version="1.1" viewBox="0 0 1024 1024" xmlns="http://www.w3.org/2000/svg" xmlns:xlink="http://www.w3.org/1999/xlink">
<style>
<![CDATA[
@keyframes z22016k {
	from {
		stroke:#c00;
		stroke-dashoffset:3334;
	}
	75% {
		stroke:#c00;
		stroke-dashoffset:0;
	}
	to {
		stroke:#000;
	}
}
#z22016 path[clip-path] {
	animation:z22016k 1s linear both;
	stroke-dasharray:3334;
	stroke-width:128;
	stroke-linecap:round;
	fill:none;
}
#z22016 path[clip-path="url(#z22016c1)"] {animation-delay:1s;}
#z22016 path[clip-path="url(#z22016c2)"] {animation-delay:2s;}
#z22016 path[clip-path="url(#z22016c3)"] {animation-delay:3s;}
#z22016 path[clip-path="url(#z22016c4)"] {animation-delay:4s;}
#z22016 path[clip-path="url(#z22016c5)"] {animation-delay:5s;}
#z22016 path[clip-path="url(#z22016c6)"] {animation-delay:6s;}
#z22016 path[clip-path="url(#z22016c7)"] {animation-delay:7s;}
#z22016 path[clip-path="url(#z22016c8)"] {animation-delay:8s;}
#z22016 path[clip-path="url(#z22016c9)"] {animation-delay:9s;}
#z22016 path[clip-path="url(#z22016c10)"] {animation-delay:10s;}
#z22016 path[clip-path="url(#z22016c11)"] {animation-delay:11s;}
#z22016 path[clip-path="url(#z22016c12)"] {animation-delay:12s;}
#z22016 path[clip-path="url(#z22016c13)"] {animation-delay:13s;}
#z22016 path[clip-path="url(#z22016c14)"] {animation-delay:14s;}
#z22016 path {fill:#ccc;}
]]>
</style>
<path id="z22016d1" d="M180 315Q168 308 141 302Q129 298 125 303Q118 309 126 325Q153 401 162 522Q163 558 181 583Q197 607 203 591Q213 569 210 526L206 494Q193 370 193 340L180 315 Z"/>
<path id="z22016d2" d="M338 469Q351 369 377 336Q398 311 375 298Q356 288 331 273Q312 263 295 275Q262 296 180 315L193 340Q197 339 201 338Q241 329 274 322Q296 316 302 326Q312 333 305 375Q299 418 291 470L338 469 Z"/>
<path id="z22016d3" d="M210 526Q214 526 220 525Q263 513 354 501Q364 500 365 491Q365 484 338 469L291 470Q242 483 206 494L210 526 Z"/>
<path id="z22016d4" d="M574 116Q601 138 630 166Q643 178 658 177Q668 176 673 163Q677 150 668 121Q662 102 632 88Q560 63 548 69Q544 73 545 85Q548 95 574 116 Z"/>
<path id="z22016d5" d="M719 244Q773 237 844 234Q895 230 901 223Q905 213 890 201Q833 168 781 185Q690 206 422 260Q403 263 418 277Q431 289 448 292Q467 296 481 291Q587 255 691 247L719 244 Z"/>
<path id="z22016d6" d="M514 325Q547 391 567 399Q577 403 587 388Q591 378 587 358Q583 342 564 330Q536 308 523 303Q516 300 513 310Q509 316 514 325 Z"/>
<path id="z22016d7" d="M696 414Q708 399 740 327Q746 312 758 294Q770 281 761 273Q751 260 723 245Q720 244 719 244L691 247Q687 251 693 258Q705 282 680 388Q674 407 675 419L696 414 Z"/>
<path id="z22016d8" d="M476 451Q452 427 422 430Q409 434 413 446Q462 554 404 757Q370 826 403 870Q410 883 420 878Q456 857 465 734Q478 532 484 486L476 451 Z"/>
<path id="z22016d9" d="M631 456Q689 443 756 434Q774 430 782 441Q792 445 795 492Q805 643 796 816Q795 841 786 849Q774 856 722 840Q706 836 706 845Q706 852 718 860Q764 906 788 941Q807 962 821 959Q833 958 845 929Q866 877 861 739Q848 508 867 466Q880 445 870 434Q860 419 815 396Q797 386 779 391Q749 400 696 414L675 419Q660 420 645 425Q563 440 476 451L484 486Q490 486 497 485Q540 473 590 464L631 456 Z"/>
<path id="z22016d10" d="M642 568Q670 561 703 556Q727 550 731 547Q738 540 734 533Q728 524 705 518Q677 512 648 527L602 540Q601 539 599 540Q565 547 527 550Q497 554 518 569Q554 588 597 577Q598 576 602 577L642 568 Z"/>
<path id="z22016d11" d="M628 647Q635 605 642 568L648 527Q648 526 649 524Q653 509 655 499Q659 492 661 485Q664 478 650 466Q640 460 631 456L590 464Q600 482 602 530Q602 534 602 540L602 577Q601 614 598 654L628 647 Z"/>
<path id="z22016d12" d="M555 659Q546 653 521 647Q511 644 508 648Q504 652 509 666Q527 706 535 773Q536 792 548 806Q561 824 565 812Q569 802 569 782L568 759Q562 702 562 682L555 659 Z"/>
<path id="z22016d13" d="M701 740Q717 698 733 686Q752 667 735 655Q722 645 701 630Q688 620 671 628Q652 640 628 647L598 654Q579 655 555 659L562 682Q569 679 646 666Q670 662 675 671Q679 675 673 695Q666 714 659 737L701 740 Z"/>
<path id="z22016d14" d="M569 782Q572 783 580 782Q653 773 707 769Q728 766 720 755Q713 745 701 740L659 737Q646 737 632 741Q598 751 568 759L569 782 Z"/>
<defs>
	<clipPath id="z22016c1"><use xlink:href="#z22016d1"/></clipPath>
	<clipPath id="z22016c2"><use xlink:href="#z22016d2"/></clipPath>
	<clipPath id="z22016c3"><use xlink:href="#z22016d3"/></clipPath>
	<clipPath id="z22016c4"><use xlink:href="#z22016d4"/></clipPath>
	<clipPath id="z22016c5"><use xlink:href="#z22016d5"/></clipPath>
	<clipPath id="z22016c6"><use xlink:href="#z22016d6"/></clipPath>
	<clipPath id="z22016c7"><use xlink:href="#z22016d7"/></clipPath>
	<clipPath id="z22016c8"><use xlink:href="#z22016d8"/></clipPath>
	<clipPath id="z22016c9"><use xlink:href="#z22016d9"/></clipPath>
	<clipPath id="z22016c10"><use xlink:href="#z22016d10"/></clipPath>
	<clipPath id="z22016c11"><use xlink:href="#z22016d11"/></clipPath>
	<clipPath id="z22016c12"><use xlink:href="#z22016d12"/></clipPath>
	<clipPath id="z22016c13"><use xlink:href="#z22016d13"/></clipPath>
	<clipPath id="z22016c14"><use xlink:href="#z22016d14"/></clipPath>
</defs>
<path pathLength="3333" clip-path="url(#z22016c1)" d="M129 309L164 346L195 589"/>
<path pathLength="3333" clip-path="url(#z22016c2)" d="M188 318L307 296L346 320L302 466"/>
<path pathLength="3333" clip-path="url(#z22016c3)" d="M217 518L358 490"/>
<path pathLength="3333" clip-path="url(#z22016c4)" d="M553 79L668 167"/>
<path pathLength="3333" clip-path="url(#z22016c5)" d="M422 271L796 209L896 216"/>
<path pathLength="3333" clip-path="url(#z22016c6)" d="M520 308L576 395"/>
<path pathLength="3333" clip-path="url(#z22016c7)" d="M699 250L730 285L682 410"/>
<path pathLength="3333" clip-path="url(#z22016c8)" d="M419 438L451 470L457 544L415 872"/>
<path pathLength="3333" clip-path="url(#z22016c9)" d="M483 455L781 412L822 436L825 851L796 906L715 845"/>
<path pathLength="3333" clip-path="url(#z22016c10)" d="M518 558L728 534"/>
<path pathLength="3333" clip-path="url(#z22016c11)" d="M599 466L631 495L607 648"/>
<path pathLength="3333" clip-path="url(#z22016c12)" d="M516 656L538 679L559 808"/>
<path pathLength="3333" clip-path="url(#z22016c13)" d="M564 665L690 652L709 675L671 735"/>
<path pathLength="3333" clip-path="url(#z22016c14)" d="M574 775L713 755"/>
</svg>