<!--
AnimCJK 2016-2019 Copyright Francois Mizessyn - https://github.com/parsimonhi/animCJK
Derived from:
    MakeMeAHanzi project - https://github.com/skishore/makemeahanzi
    Arphic PL KaitiM GB font
    Arphic PL UKai font
You can redistribute and/or modify this file under the terms of the Arphic Public License
as published by Arphic Technology Co., Ltd.
You should have received a copy of this license along with this file.
If not, see http://ftp.gnu.org/non-gnu/chinese-fonts-truetype/LICENSE.
-->
<svg id="z22013" class="acjk" version="1.1" viewBox="0 0 1024 1024" xmlns="http://www.w3.org/2000/svg" xmlns:xlink="http://www.w3.org/1999/xlink">
<style>
<![CDATA[
@keyframes zk {
	to {
		stroke-dashoffset:0;
	}
}
svg.acjk path[clip-path] {
	--t:0.8s;
	animation:zk var(--t) linear forwards var(--d);
	stroke-dasharray:3337;
	stroke-dashoffset:3339;
	stroke-width:128;
	stroke-linecap:round;
	fill:none;
	stroke:#000;
}
svg.acjk path[id] {fill:#ccc;}
]]>
</style>
<path id="z22013d1" d="M89 388Q79 384 59 379Q49 375 45 379Q39 385 45 399Q67 454 76 540Q77 567 90 585Q105 606 110 592Q117 577 116 550C114 529 114 529 113 518Q106 433 105 413C105 403 98 392 89 388Z"/>
<path id="z22013d2" d="M232 503Q242 425 262 403Q281 378 259 365Q240 356 213 343Q197 336 155 361Q134 373 89 388C80 392 96 416 105 413Q105 412 166 394Q184 390 188 397Q195 401 192 431Q189 459 186 495C186 511 229 518 232 503Z"/>
<path id="z22013d3" d="M116 550Q122 550 129 548Q163 539 239 529Q249 528 249 519Q249 513 232 503C219 495 201 492 186 495Q180 496 176 498Q142 510 113 518C102 520 105 550 116 550Z"/>
<path id="z22013d4" d="M453 299Q484 289 519 281Q544 274 549 270Q556 263 551 255Q544 245 517 239Q499 238 454 252C429 261 429 261 416 266Q407 267 402 270Q368 279 326 285Q293 292 318 307Q354 323 417 309C441 302 441 302 453 299Z"/>
<path id="z22013d5" d="M298 407Q294 406 288 404Q278 400 274 405Q270 409 276 423Q295 463 305 529Q306 548 319 562Q332 581 338 568Q339 561 341 552C340 533 340 533 340 524Q333 448 333 432Q332 431 332 429C329 416 311 410 298 407Z"/>
<path id="z22013d6" d="M549 495Q570 429 594 412Q607 397 595 383Q582 373 539 353Q526 347 508 354Q478 366 452 375C429 381 429 381 417 384Q362 397 305 405Q299 405 298 407C285 412 319 429 332 429Q344 429 359 424Q387 417 416 413C439 408 439 408 451 405Q511 392 518 398Q527 407 510 488C508 501 544 507 549 495Z"/>
<path id="z22013d7" d="M450 535Q495 528 558 522Q567 521 568 514Q568 508 549 495C538 487 523 488 510 488Q503 485 450 502C425 507 425 507 413 510Q373 517 340 524C331 526 332 552 341 552Q350 552 361 551Q374 547 396 544C432 538 432 538 450 535Z"/>
<path id="z22013d8" d="M449 578Q449 557 450 535C450 513 450 513 450 502Q450 456 451 405C452 385 452 385 452 375Q452 338 453 299C454 268 454 268 454 252Q457 188 472 141Q479 128 477 114Q471 107 420 75Q399 59 380 73Q376 77 381 92Q415 141 415 192Q415 226 416 266C417 295 417 295 417 309Q417 345 417 384C416 403 416 403 416 413Q415 459 413 510C412 579 412 579 411 613Q411 716 385 808Q375 844 398 900Q405 916 412 919Q418 925 424 918Q431 914 441 894Q450 872 449 843Q448 809 449 602C449 586 449 586 449 578Z"/>
<path id="z22013d9" d="M396 544Q347 661 186 791Q176 801 184 803Q191 807 202 802Q295 766 404 621Q407 617 411 613C454 570 419 487 396 544Z"/>
<path id="z22013d10" d="M449 602Q518 671 525 672C526 672 526 672 526 672Q533 672 538 663Q542 653 537 633Q534 617 510 601Q456 574 449 578C441 578 443 596 449 602Z"/>
<path id="z22013d11" d="M665 375Q708 276 723 234Q730 203 741 186Q747 176 740 165Q733 155 704 143Q676 133 661 138Q645 144 658 161Q682 188 649 311Q633 368 606 432Q600 444 600 449Q600 459 611 454Q621 448 653 397C661 382 661 382 665 375Z"/>
<path id="z22013d12" d="M653 397Q669 412 710 396Q777 368 794 371Q807 378 803 387Q803 390 767 458Q760 467 765 471Q768 475 778 466Q860 403 897 388Q906 387 906 379Q906 370 843 332Q821 320 808 326Q754 351 665 375C657 378 646 392 653 397Z"/>
<path id="z22013d13" d="M686 614Q686 613 687 611Q697 553 713 526Q722 511 708 503Q669 472 647 478Q634 481 640 494Q661 542 627 647Q602 726 488 803Q478 810 487 813Q526 817 594 766Q651 720 678 643C683 624 683 624 686 614Z"/>
<path id="z22013d14" d="M678 643Q735 733 810 827Q826 843 851 843Q939 839 967 833Q974 832 976 827Q977 823 966 816Q842 759 767 693Q728 657 686 614C679 607 672 635 678 643Z"/>
<defs>
	<clipPath id="z22013c1"><use xlink:href="#z22013d1"/></clipPath>
	<clipPath id="z22013c2"><use xlink:href="#z22013d2"/></clipPath>
	<clipPath id="z22013c3"><use xlink:href="#z22013d3"/></clipPath>
	<clipPath id="z22013c4"><use xlink:href="#z22013d4"/></clipPath>
	<clipPath id="z22013c5"><use xlink:href="#z22013d5"/></clipPath>
	<clipPath id="z22013c6"><use xlink:href="#z22013d6"/></clipPath>
	<clipPath id="z22013c7"><use xlink:href="#z22013d7"/></clipPath>
	<clipPath id="z22013c8"><use xlink:href="#z22013d8"/></clipPath>
	<clipPath id="z22013c9"><use xlink:href="#z22013d9"/></clipPath>
	<clipPath id="z22013c10"><use xlink:href="#z22013d10"/></clipPath>
	<clipPath id="z22013c11"><use xlink:href="#z22013d11"/></clipPath>
	<clipPath id="z22013c12"><use xlink:href="#z22013d12"/></clipPath>
	<clipPath id="z22013c13"><use xlink:href="#z22013d13"/></clipPath>
	<clipPath id="z22013c14"><use xlink:href="#z22013d14"/></clipPath>
</defs>
<path style="--d:1s;" pathLength="3333" clip-path="url(#z22013c1)" d="M50 386L80 421L99 592"/>
<path style="--d:2s;" pathLength="3333" clip-path="url(#z22013c2)" d="M100 391L187 368L227 387L215 499"/>
<path style="--d:3s;" pathLength="3333" clip-path="url(#z22013c3)" d="M121 542L240 519"/>
<path style="--d:4s;" pathLength="3333" clip-path="url(#z22013c4)" d="M317 296L545 257"/>
<path style="--d:5s;" pathLength="3333" clip-path="url(#z22013c5)" d="M281 408L310 444L331 565"/>
<path style="--d:6s;" pathLength="3333" clip-path="url(#z22013c6)" d="M310 409L521 373L560 402L528 490"/>
<path style="--d:7s;" pathLength="3333" clip-path="url(#z22013c7)" d="M346 544L563 510"/>
<path style="--d:8s;" pathLength="3333" clip-path="url(#z22013c8)" d="M385 78L443 136L417 917"/>
<path style="--d:9s;" pathLength="3333" clip-path="url(#z22013c9)" d="M403 551L389 605L331 680L187 797"/>
<path style="--d:10s;" pathLength="3333" clip-path="url(#z22013c10)" d="M454 583L532 663"/>
<path style="--d:11s;" pathLength="3333" clip-path="url(#z22013c11)" d="M660 146L704 188L605 445"/>
<path style="--d:12s;" pathLength="3333" clip-path="url(#z22013c12)" d="M661 394L784 353L832 360L850 391L769 466"/>
<path style="--d:13s;" pathLength="3333" clip-path="url(#z22013c13)" d="M645 482L681 528L640 675L580 753L492 808"/>
<path style="--d:14s;" pathLength="3333" clip-path="url(#z22013c14)" d="M687 623L839 797L971 826"/>
</svg>