<!--
AnimCJK 2016-2018 Copyright Francois Mizessyn, http://gooo.free.fr/animCJK/
Derived from:
    MakeMeAHanzi project - https://github.com/skishore/makemeahanzi
    Arphic PL KaitiM GB - https://apps.ubuntu.com/cat/applications/precise/fonts-arphic-gkai00mp/
    Arphic PL UKai - https://apps.ubuntu.com/cat/applications/fonts-arphic-ukai/
You can redistribute and/or modify this file under the terms of the Arphic Public License
as published by Arphic Technology Co., Ltd.
You should have received a copy of this license (the directory "APL") along with this file;
if not, see http://ftp.gnu.org/non-gnu/chinese-fonts-truetype/LICENSE.
-->
<svg id="z22024" class="acjk" version="1.1" viewBox="0 0 1024 1024" xmlns="http://www.w3.org/2000/svg" xmlns:xlink="http://www.w3.org/1999/xlink">
<style>
<![CDATA[
@keyframes z22024k {
	from {
		stroke:#ccc;
		stroke-dashoffset:3334;
	}
	1% {
		stroke:#c00;
		stroke-dashoffset:3334;
	}
	75% {
		stroke:#c00;
		stroke-dashoffset:0;
	}
	to {
		stroke:#000;
	}
}
#z22024 path[clip-path] {
	animation:z22024k 1s linear both;
	stroke-dasharray:3334;
	stroke-width:128;
	stroke-linecap:round;
	fill:none;
}
#z22024 path[clip-path="url(#z22024c1)"] {animation-delay:1s;}
#z22024 path[clip-path="url(#z22024c2)"] {animation-delay:2s;}
#z22024 path[clip-path="url(#z22024c3)"] {animation-delay:3s;}
#z22024 path[clip-path="url(#z22024c4)"] {animation-delay:4s;}
#z22024 path[clip-path="url(#z22024c5)"] {animation-delay:5s;}
#z22024 path[clip-path="url(#z22024c6)"] {animation-delay:6s;}
#z22024 path[clip-path="url(#z22024c7)"] {animation-delay:7s;}
#z22024 path[clip-path="url(#z22024c8)"] {animation-delay:8s;}
#z22024 path[clip-path="url(#z22024c9)"] {animation-delay:9s;}
#z22024 path[clip-path="url(#z22024c10)"] {animation-delay:10s;}
#z22024 path[clip-path="url(#z22024c11)"] {animation-delay:11s;}
#z22024 path[clip-path="url(#z22024c12)"] {animation-delay:12s;}
#z22024 path[clip-path="url(#z22024c13)"] {animation-delay:13s;}
#z22024 path[clip-path="url(#z22024c14)"] {animation-delay:14s;}
#z22024 path {fill:#ccc;}
]]>
</style>
<path id="z22024d1" d="M102 320Q92 316 69 311Q56 307 53 312Q46 318 54 334Q82 404 96 515Q97 549 116 572Q132 594 139 579Q146 558 143 521L139 487Q123 375 122 348L102 320 Z"/>
<path id="z22024d2" d="M273 465Q286 366 313 336Q335 308 310 295Q289 285 260 268Q241 258 221 271Q191 295 102 320L122 348Q167 333 204 324Q226 318 232 327Q239 333 220 462L273 465 Z"/>
<path id="z22024d3" d="M143 521Q143 520 145 520Q188 507 283 493Q293 492 293 483Q293 476 273 465L220 462Q174 477 139 487L143 521 Z"/>
<path id="z22024d4" d="M700 185Q716 181 735 178Q787 168 794 160Q801 153 798 146Q792 136 768 129Q726 120 709 136L654 152Q633 156 555 175L505 182Q474 185 440 188Q409 192 431 208Q471 230 514 219L555 212Q603 202 653 194L700 185 Z"/>
<path id="z22024d5" d="M409 308Q387 295 363 291Q356 290 352 295Q345 301 355 310Q388 355 406 470Q415 533 451 550Q464 551 466 534L464 507Q461 485 452 462Q434 372 432 343L409 308 Z"/>
<path id="z22024d6" d="M746 500Q746 501 747 503Q751 519 764 520Q777 519 786 504Q802 488 831 401Q850 349 888 321Q907 305 892 289Q874 271 824 242Q812 233 726 250Q702 253 692 256L649 263Q600 270 557 280L520 289Q456 301 409 308L432 343Q436 342 440 341Q471 331 522 320L558 313Q597 304 646 297L689 290Q714 286 742 282Q779 278 793 285Q803 292 795 324Q764 445 751 469Q750 470 749 473L746 500 Z"/>
<path id="z22024d7" d="M527 393Q499 397 475 404Q459 407 478 422Q490 429 514 426Q521 425 529 424L566 418Q603 411 639 406L679 401Q698 397 718 395Q740 391 733 379Q723 366 699 360Q692 359 683 360L642 365Q639 365 638 366Q598 376 563 385L527 393 Z"/>
<path id="z22024d8" d="M555 175Q558 117 546 107Q524 91 498 82Q485 78 476 83Q469 89 475 104Q494 141 505 182L514 219Q515 241 520 289L522 320Q523 351 527 393L529 424Q530 457 533 497L571 490Q568 453 566 418L563 385Q559 346 558 313L557 280Q557 238 555 212L555 175 Z"/>
<path id="z22024d9" d="M692 256Q695 219 700 185L709 136Q709 133 726 77Q730 67 711 52Q680 33 657 27Q641 23 634 30Q627 37 633 52Q654 85 654 152L653 194Q650 227 649 263L646 297Q645 330 642 365L639 406Q635 440 631 480L671 473Q674 436 679 401L683 360Q686 324 689 290L692 256 Z"/>
<path id="z22024d10" d="M466 534Q476 534 491 533Q636 511 746 500L749 473Q725 455 671 473L631 480Q600 484 571 490L533 497Q496 501 464 507L466 534 Z"/>
<path id="z22024d11" d="M491 605Q481 595 460 587Q451 583 441 587Q435 591 440 602Q441 608 444 613Q463 649 453 790Q435 866 465 905L467 907Q477 919 486 908Q495 895 496 879L498 847Q498 802 498 755L499 725Q499 640 503 632L491 605 Z"/>
<path id="z22024d12" d="M661 873Q686 907 706 940Q713 956 725 956Q740 955 756 924Q772 888 771 844Q765 780 761 659Q760 631 775 611Q784 599 775 590Q759 572 711 550Q695 541 681 550Q626 575 491 605L503 632Q513 629 531 625Q601 609 661 594Q685 588 697 597Q721 621 702 840Q698 859 680 850L661 873 Z"/>
<path id="z22024d13" d="M498 755Q501 755 505 755Q587 746 648 741Q673 738 665 724Q655 708 628 702Q600 698 499 725L498 755 Z"/>
<path id="z22024d14" d="M496 879Q499 879 503 879Q554 872 661 873L680 850Q668 843 656 835Q641 825 613 830Q550 840 498 847L496 879 Z"/>
<defs>
	<clipPath id="z22024c1"><use xlink:href="#z22024d1"/></clipPath>
	<clipPath id="z22024c2"><use xlink:href="#z22024d2"/></clipPath>
	<clipPath id="z22024c3"><use xlink:href="#z22024d3"/></clipPath>
	<clipPath id="z22024c4"><use xlink:href="#z22024d4"/></clipPath>
	<clipPath id="z22024c5"><use xlink:href="#z22024d5"/></clipPath>
	<clipPath id="z22024c6"><use xlink:href="#z22024d6"/></clipPath>
	<clipPath id="z22024c7"><use xlink:href="#z22024d7"/></clipPath>
	<clipPath id="z22024c8"><use xlink:href="#z22024d8"/></clipPath>
	<clipPath id="z22024c9"><use xlink:href="#z22024d9"/></clipPath>
	<clipPath id="z22024c10"><use xlink:href="#z22024d10"/></clipPath>
	<clipPath id="z22024c11"><use xlink:href="#z22024d11"/></clipPath>
	<clipPath id="z22024c12"><use xlink:href="#z22024d12"/></clipPath>
	<clipPath id="z22024c13"><use xlink:href="#z22024d13"/></clipPath>
	<clipPath id="z22024c14"><use xlink:href="#z22024d14"/></clipPath>
</defs>
<path pathLength="3333" clip-path="url(#z22024c1)" d="M58 318L95 364L131 578"/>
<path pathLength="3333" clip-path="url(#z22024c2)" d="M111 323L236 294L277 319L243 463"/>
<path pathLength="3333" clip-path="url(#z22024c3)" d="M149 512L217 483L288 483"/>
<path pathLength="3333" clip-path="url(#z22024c4)" d="M430 195L504 201L792 147"/>
<path pathLength="3333" clip-path="url(#z22024c5)" d="M360 301L406 354L450 544"/>
<path pathLength="3333" clip-path="url(#z22024c6)" d="M419 310L811 265L846 316L764 515"/>
<path pathLength="3333" clip-path="url(#z22024c7)" d="M479 413L727 383"/>
<path pathLength="3333" clip-path="url(#z22024c8)" d="M480 87L530 168L545 494"/>
<path pathLength="3333" clip-path="url(#z22024c9)" d="M638 35L688 84L642 477"/>
<path pathLength="3333" clip-path="url(#z22024c10)" d="M473 527L747 485"/>
<path pathLength="3333" clip-path="url(#z22024c11)" d="M444 592L477 635L476 904"/>
<path pathLength="3333" clip-path="url(#z22024c12)" d="M499 609L689 569L735 597L733 868L705 904L667 875"/>
<path pathLength="3333" clip-path="url(#z22024c13)" d="M506 747L661 724"/>
<path pathLength="3333" clip-path="url(#z22024c14)" d="M500 872L672 854"/>
</svg>