<!--
AnimCJK 2016-2019 Copyright Francois Mizessyn - https://github.com/parsimonhi/animCJK
Derived from:
    MakeMeAHanzi project - https://github.com/skishore/makemeahanzi
    Arphic PL KaitiM GB font
    Arphic PL UKai font
You can redistribute and/or modify this file under the terms of the Arphic Public License
as published by Arphic Technology Co., Ltd.
You should have received a copy of this license along with this file.
If not, see http://ftp.gnu.org/non-gnu/chinese-fonts-truetype/LICENSE.
-->
<svg id="z22073" class="acjk" version="1.1" viewBox="0 0 1024 1024" xmlns="http://www.w3.org/2000/svg" xmlns:xlink="http://www.w3.org/1999/xlink">
<style>
<![CDATA[
@keyframes zk {
	to {
		stroke-dashoffset:0;
	}
}
svg.acjk path[clip-path] {
	--t:0.8s;
	animation:zk var(--t) linear forwards var(--d);
	stroke-dasharray:3337;
	stroke-dashoffset:3339;
	stroke-width:128;
	stroke-linecap:round;
	fill:none;
	stroke:#000;
}
svg.acjk path[id] {fill:#ccc;}
]]>
</style>
<path id="z22073d1" d="M124 297Q112 290 81 282Q69 278 65 283Q58 289 66 305Q93 378 102 493Q103 527 121 551Q137 575 143 559Q150 540 149 505C147 482 147 482 146 471Q133 362 133 327C133 317 133 302 124 297Z"/>
<path id="z22073d2" d="M282 444Q298 347 324 317Q346 289 322 276Q301 266 272 249Q250 237 210 266Q147 290 124 297C114 300 123 331 133 327Q148 320 215 304Q237 298 244 307Q253 314 245 354Q238 396 228 445C224 463 278 462 282 444Z"/>
<path id="z22073d3" d="M149 505Q156 496 295 473Q305 472 305 463Q305 456 282 444C267 435 245 438 228 445Q182 460 146 471C135 475 140 512 149 505Z"/>
<path id="z22073d4" d="M563 225Q633 207 704 193Q752 180 759 174Q766 167 763 159Q756 149 730 142Q702 136 675 148Q626 164 574 180C536 189 536 189 517 194Q468 203 416 210Q382 216 407 231Q446 252 498 239Q501 238 508 238C545 229 545 229 563 225Z"/>
<path id="z22073d5" d="M421 482Q467 445 493 402Q503 381 516 361Q543 312 556 254C559 238 559 238 561 230Q562 227 563 225C570 195 570 195 574 180Q583 135 601 102Q611 84 595 74Q549 37 523 45Q508 49 514 64Q526 89 517 194C511 223 511 223 508 238Q454 433 296 527Q280 537 264 548Q251 557 263 560Q312 564 401 498C414 487 414 487 421 482Z"/>
<path id="z22073d6" d="M556 254Q557 255 563 261Q660 373 765 475Q787 497 825 499Q892 503 964 489Q983 488 984 482Q985 476 972 470Q923 451 864 432Q774 399 688 335C677 327 677 327 672 323Q651 307 631 290Q577 241 561 230C554 226 550 248 556 254Z"/>
<path id="z22073d7" d="M374 349Q408 388 420 389Q429 389 433 379Q437 369 433 345Q427 327 373 311Q361 308 356 309Q352 312 352 322Q355 331 374 349Z"/>
<path id="z22073d8" d="M688 335Q710 323 724 314Q770 281 789 274Q807 267 798 251Q786 238 765 225Q746 213 734 216Q724 217 727 228Q730 250 672 323C668 328 682 338 688 335Z"/>
<path id="z22073d9" d="M429 484Q425 483 421 482C413 480 398 490 401 498Q426 552 441 636Q442 661 458 678Q474 697 478 683Q479 676 481 666C480 649 480 649 480 641Q479 635 479 629Q475 607 472 589C470 573 470 573 469 565Q463 525 463 512C463 497 443 487 429 484Z"/>
<path id="z22073d10" d="M622 648Q638 670 653 678Q663 685 677 666Q687 648 711 552Q718 524 741 500Q753 488 742 475Q727 460 687 436Q672 430 606 445Q603 445 602 446Q452 479 430 483Q429 483 429 484C415 489 450 520 463 512Q472 503 623 477Q645 474 653 481Q662 491 661 503Q649 590 636 615C632 626 615 638 622 648Z"/>
<path id="z22073d11" d="M472 589Q476 590 485 589Q558 577 611 571Q633 567 625 555Q615 542 591 537Q567 534 469 565C462 568 464 589 472 589Z"/>
<path id="z22073d12" d="M568 655Q595 651 622 648C634 646 647 619 636 615Q635 614 631 613Q613 610 480 641C472 643 473 666 481 666Q484 666 489 666Q511 662 537 659C558 656 558 656 568 655Z"/>
<path id="z22073d13" d="M537 659Q537 663 540 670Q552 704 549 812Q548 831 544 836Q541 849 515 847Q494 844 471 841Q461 841 459 847Q458 854 468 862Q526 910 545 937Q558 950 568 947Q580 943 591 911Q607 878 605 818Q602 758 604 737Q611 697 595 677Q579 662 568 655C560 649 535 649 537 659Z"/>
<path id="z22073d14" d="M400 739Q378 778 349 811Q327 842 342 875Q348 893 369 882Q414 855 420 796Q427 765 422 741Q418 732 413 731Q404 731 400 739Z"/>
<path id="z22073d15" d="M694 773Q725 810 758 855Q768 871 786 874Q796 875 805 863Q812 848 809 816Q808 791 774 764Q696 713 676 717Q670 720 669 734Q670 746 694 773Z"/>
<defs>
	<clipPath id="z22073c1"><use xlink:href="#z22073d1"/></clipPath>
	<clipPath id="z22073c2"><use xlink:href="#z22073d2"/></clipPath>
	<clipPath id="z22073c3"><use xlink:href="#z22073d3"/></clipPath>
	<clipPath id="z22073c4"><use xlink:href="#z22073d4"/></clipPath>
	<clipPath id="z22073c5"><use xlink:href="#z22073d5"/></clipPath>
	<clipPath id="z22073c6"><use xlink:href="#z22073d6"/></clipPath>
	<clipPath id="z22073c7"><use xlink:href="#z22073d7"/></clipPath>
	<clipPath id="z22073c8"><use xlink:href="#z22073d8"/></clipPath>
	<clipPath id="z22073c9"><use xlink:href="#z22073d9"/></clipPath>
	<clipPath id="z22073c10"><use xlink:href="#z22073d10"/></clipPath>
	<clipPath id="z22073c11"><use xlink:href="#z22073d11"/></clipPath>
	<clipPath id="z22073c12"><use xlink:href="#z22073d12"/></clipPath>
	<clipPath id="z22073c13"><use xlink:href="#z22073d13"/></clipPath>
	<clipPath id="z22073c14"><use xlink:href="#z22073d14"/></clipPath>
	<clipPath id="z22073c15"><use xlink:href="#z22073d15"/></clipPath>
</defs>
<path style="--d:1s;" pathLength="3333" clip-path="url(#z22073c1)" d="M69 290L103 326L133 556"/>
<path style="--d:2s;" pathLength="3333" clip-path="url(#z22073c2)" d="M136 318L239 275L280 291L291 312L241 443"/>
<path style="--d:3s;" pathLength="3333" clip-path="url(#z22073c3)" d="M151 496L297 461"/>
<path style="--d:4s;" pathLength="3333" clip-path="url(#z22073c4)" d="M409 221L760 164"/>
<path style="--d:5s;" pathLength="3333" clip-path="url(#z22073c5)" d="M520 51L562 93L491 353L392 479L266 555"/>
<path style="--d:6s;" pathLength="3333" clip-path="url(#z22073c6)" d="M564 237L795 448L976 481"/>
<path style="--d:7s;" pathLength="3333" clip-path="url(#z22073c7)" d="M361 317L426 380"/>
<path style="--d:8s;" pathLength="3333" clip-path="url(#z22073c8)" d="M796 259L742 255L680 326"/>
<path style="--d:9s;" pathLength="3333" clip-path="url(#z22073c9)" d="M407 498L439 526L469 682"/>
<path style="--d:10s;" pathLength="3333" clip-path="url(#z22073c10)" d="M437 485L642 456L694 478L703 498L638 666"/>
<path style="--d:11s;" pathLength="3333" clip-path="url(#z22073c11)" d="M476 582L622 558"/>
<path style="--d:12s;" pathLength="3333" clip-path="url(#z22073c12)" d="M488 658L629 622"/>
<path style="--d:13s;" pathLength="3333" clip-path="url(#z22073c13)" d="M545 665L576 704L571 860L544 897L464 850"/>
<path style="--d:14s;" pathLength="3333" clip-path="url(#z22073c14)" d="M412 735L354 881"/>
<path style="--d:15s;" pathLength="3333" clip-path="url(#z22073c15)" d="M678 724L758 796L795 869"/>
</svg>