<!--
AnimCJK 2016-2019 Copyright Francois Mizessyn - https://github.com/parsimonhi/animCJK
Derived from:
    MakeMeAHanzi project - https://github.com/skishore/makemeahanzi
    Arphic PL KaitiM GB font
    Arphic PL UKai font
You can redistribute and/or modify this file under the terms of the Arphic Public License
as published by Arphic Technology Co., Ltd.
You should have received a copy of this license along with this file.
If not, see http://ftp.gnu.org/non-gnu/chinese-fonts-truetype/LICENSE.
-->
<svg id="z22116" class="acjk" version="1.1" viewBox="0 0 1024 1024" xmlns="http://www.w3.org/2000/svg" xmlns:xlink="http://www.w3.org/1999/xlink">
<style>
<![CDATA[
@keyframes zk {
	to {
		stroke-dashoffset:0;
	}
}
svg.acjk path[clip-path] {
	--t:0.8s;
	animation:zk var(--t) linear forwards var(--d);
	stroke-dasharray:3337;
	stroke-dashoffset:3339;
	stroke-width:128;
	stroke-linecap:round;
	fill:none;
	stroke:#000;
}
svg.acjk path[id] {fill:#ccc;}
]]>
</style>
<path id="z22116d1" d="M113 320Q103 316 83 311Q73 307 69 312Q63 318 70 332Q94 392 105 488Q106 516 122 537Q137 558 142 544Q148 528 147 500C144 479 144 479 143 469Q130 367 130 344C130 334 122 324 113 320Z"/>
<path id="z22116d2" d="M258 449Q273 364 296 337Q315 312 294 300Q275 290 249 275Q231 266 191 291Q160 303 113 320C104 324 120 346 130 344Q136 343 145 340Q176 331 202 325Q220 321 224 328Q231 334 225 368Q219 405 211 447C208 462 255 464 258 449Z"/>
<path id="z22116d3" d="M147 500Q147 499 149 499Q186 489 268 475Q277 474 277 466Q277 459 258 449C245 441 226 444 211 447Q210 447 209 447Q172 460 143 469C133 473 138 505 147 500Z"/>
<path id="z22116d4" d="M468 268Q544 250 547 248Q554 241 551 234Q544 224 519 218Q495 214 474 222C447 231 447 231 433 236Q421 237 412 241Q381 248 343 252Q312 258 334 272Q370 290 419 279C452 272 452 272 468 268Z"/>
<path id="z22116d5" d="M430 340Q426 404 419 431Q418 443 431 475Q438 488 451 481Q461 472 462 389Q462 326 468 268C472 237 472 237 474 222Q475 218 476 213Q477 188 494 157Q498 150 490 138Q471 122 448 112Q435 105 422 109Q412 113 416 125Q431 152 433 236C431 305 431 305 430 340Z"/>
<path id="z22116d6" d="M419 279Q383 354 304 454Q300 461 308 463Q336 463 421 354Q424 347 430 340C465 297 444 230 419 279Z"/>
<path id="z22116d7" d="M475 311Q524 353 539 352Q549 351 551 338Q551 329 542 316Q521 292 476 292Q469 292 470 300Q470 304 475 311Z"/>
<path id="z22116d8" d="M708 231Q841 201 843 200Q850 193 846 186Q840 176 815 169Q794 166 712 189C685 196 685 196 672 199Q635 203 592 208Q561 212 583 228Q616 246 658 241C691 234 691 234 708 231Z"/>
<path id="z22116d9" d="M707 237Q707 233 708 231C711 203 711 203 712 189Q718 135 733 107Q739 98 728 87Q709 71 684 61Q669 54 657 58Q645 62 651 75Q670 108 672 199C671 266 671 266 670 299Q667 374 661 405Q660 417 674 451Q683 464 696 457Q708 447 704 358Q703 310 705 266C706 247 706 247 707 237Z"/>
<path id="z22116d10" d="M658 241Q625 311 532 417Q528 426 536 427Q540 428 549 421Q621 373 670 299C697 254 677 192 658 241Z"/>
<path id="z22116d11" d="M705 266Q748 329 796 389Q812 408 843 412Q898 419 956 413Q971 412 972 408Q973 404 963 398Q815 335 759 285Q735 266 707 237C701 229 699 258 705 266Z"/>
<path id="z22116d12" d="M435 523Q398 527 424 546Q463 573 523 560Q593 548 667 536Q701 529 706 525Q716 518 711 508Q704 496 674 488Q643 481 613 492Q574 502 533 512Q488 519 435 523Z"/>
<path id="z22116d13" d="M584 655Q648 649 878 648Q897 648 903 640Q907 628 892 614Q838 575 802 582Q658 609 305 650Q283 651 299 669Q312 682 331 689Q352 695 368 690Q447 671 537 660C568 657 568 657 584 655Z"/>
<path id="z22116d14" d="M537 660Q547 697 548 797Q548 845 543 856Q539 869 517 864Q493 860 468 854Q456 853 455 859Q454 866 464 875Q522 926 542 956Q555 969 566 967Q576 963 589 930Q605 897 603 837Q600 752 601 721Q608 681 591 661Q587 657 584 655C571 646 534 645 537 660Z"/>
<path id="z22116d15" d="M387 724Q356 769 318 808Q294 835 304 870Q308 888 330 880Q381 856 401 783Q411 753 410 729Q406 719 401 718Q394 717 387 724Z"/>
<path id="z22116d16" d="M692 731Q743 779 803 849Q818 868 833 874Q840 875 849 865Q862 853 850 809Q841 761 694 700Q685 696 683 707Q682 720 692 731Z"/>
<defs>
	<clipPath id="z22116c1"><use xlink:href="#z22116d1"/></clipPath>
	<clipPath id="z22116c2"><use xlink:href="#z22116d2"/></clipPath>
	<clipPath id="z22116c3"><use xlink:href="#z22116d3"/></clipPath>
	<clipPath id="z22116c4"><use xlink:href="#z22116d4"/></clipPath>
	<clipPath id="z22116c5"><use xlink:href="#z22116d5"/></clipPath>
	<clipPath id="z22116c6"><use xlink:href="#z22116d6"/></clipPath>
	<clipPath id="z22116c7"><use xlink:href="#z22116d7"/></clipPath>
	<clipPath id="z22116c8"><use xlink:href="#z22116d8"/></clipPath>
	<clipPath id="z22116c9"><use xlink:href="#z22116d9"/></clipPath>
	<clipPath id="z22116c10"><use xlink:href="#z22116d10"/></clipPath>
	<clipPath id="z22116c11"><use xlink:href="#z22116d11"/></clipPath>
	<clipPath id="z22116c12"><use xlink:href="#z22116d12"/></clipPath>
	<clipPath id="z22116c13"><use xlink:href="#z22116d13"/></clipPath>
	<clipPath id="z22116c14"><use xlink:href="#z22116d14"/></clipPath>
	<clipPath id="z22116c15"><use xlink:href="#z22116d15"/></clipPath>
	<clipPath id="z22116c16"><use xlink:href="#z22116d16"/></clipPath>
</defs>
<path style="--d:1s;" pathLength="3333" clip-path="url(#z22116c1)" d="M75 319L105 357L134 543"/>
<path style="--d:2s;" pathLength="3333" clip-path="url(#z22116c2)" d="M122 322L226 299L258 315L222 444"/>
<path style="--d:3s;" pathLength="3333" clip-path="url(#z22116c3)" d="M150 492L272 462"/>
<path style="--d:4s;" pathLength="3333" clip-path="url(#z22116c4)" d="M332 262L547 239"/>
<path style="--d:5s;" pathLength="3333" clip-path="url(#z22116c5)" d="M421 118L461 158L444 479"/>
<path style="--d:6s;" pathLength="3333" clip-path="url(#z22116c6)" d="M428 284L406 342L309 456"/>
<path style="--d:7s;" pathLength="3333" clip-path="url(#z22116c7)" d="M478 299L543 343"/>
<path style="--d:8s;" pathLength="3333" clip-path="url(#z22116c8)" d="M584 217L840 191"/>
<path style="--d:9s;" pathLength="3333" clip-path="url(#z22116c9)" d="M657 65L699 108L691 454"/>
<path style="--d:10s;" pathLength="3333" clip-path="url(#z22116c10)" d="M664 248L646 301L539 420"/>
<path style="--d:11s;" pathLength="3333" clip-path="url(#z22116c11)" d="M709 244L824 370L962 404"/>
<path style="--d:12s;" pathLength="3333" clip-path="url(#z22116c12)" d="M419 532L707 516"/>
<path style="--d:13s;" pathLength="3333" clip-path="url(#z22116c13)" d="M300 658L359 668L808 614L898 624"/>
<path style="--d:14s;" pathLength="3333" clip-path="url(#z22116c14)" d="M546 664L573 698L566 888L545 916L463 859"/>
<path style="--d:15s;" pathLength="3333" clip-path="url(#z22116c15)" d="M401 722L317 879"/>
<path style="--d:16s;" pathLength="3333" clip-path="url(#z22116c16)" d="M690 704L808 803L841 865"/>
</svg>