<!--
AnimCJK 2016-2018 Copyright Francois Mizessyn - https://github.com/parsimonhi/animCJK
Derived from:
    MakeMeAHanzi project - https://github.com/skishore/makemeahanzi
    Arphic PL KaitiM GB - https://apps.ubuntu.com/cat/applications/precise/fonts-arphic-gkai00mp/
    Arphic PL UKai - https://apps.ubuntu.com/cat/applications/fonts-arphic-ukai/
You can redistribute and/or modify this file under the terms of the Arphic Public License
as published by Arphic Technology Co., Ltd.
You should have received a copy of this license (the directory "APL") along with this file;
if not, see http://ftp.gnu.org/non-gnu/chinese-fonts-truetype/LICENSE.
-->
<svg id="z22124" class="acjk" version="1.1" viewBox="0 0 1024 1024" xmlns="http://www.w3.org/2000/svg" xmlns:xlink="http://www.w3.org/1999/xlink">
<style>
<![CDATA[
@keyframes z22124k {
	from {
		stroke:#ccc;
		stroke-dashoffset:3334;
	}
	1% {
		stroke:#c00;
		stroke-dashoffset:3334;
	}
	75% {
		stroke:#c00;
		stroke-dashoffset:0;
	}
	to {
		stroke:#000;
	}
}
#z22124 path[clip-path] {
	animation:z22124k 1s linear both;
	stroke-dasharray:3334;
	stroke-width:128;
	stroke-linecap:round;
	fill:none;
}
#z22124 path[clip-path="url(#z22124c1)"] {animation-delay:1s;}
#z22124 path[clip-path="url(#z22124c2)"] {animation-delay:2s;}
#z22124 path[clip-path="url(#z22124c3)"] {animation-delay:3s;}
#z22124 path[clip-path="url(#z22124c4)"] {animation-delay:4s;}
#z22124 path[clip-path="url(#z22124c5)"] {animation-delay:5s;}
#z22124 path[clip-path="url(#z22124c6)"] {animation-delay:6s;}
#z22124 path[clip-path="url(#z22124c7)"] {animation-delay:7s;}
#z22124 path[clip-path="url(#z22124c8)"] {animation-delay:8s;}
#z22124 path[clip-path="url(#z22124c9)"] {animation-delay:9s;}
#z22124 path[clip-path="url(#z22124c10)"] {animation-delay:10s;}
#z22124 path[clip-path="url(#z22124c11)"] {animation-delay:11s;}
#z22124 path[clip-path="url(#z22124c12)"] {animation-delay:12s;}
#z22124 path[clip-path="url(#z22124c13)"] {animation-delay:13s;}
#z22124 path[clip-path="url(#z22124c14)"] {animation-delay:14s;}
#z22124 path[clip-path="url(#z22124c15)"] {animation-delay:15s;}
#z22124 path[clip-path="url(#z22124c16)"] {animation-delay:16s;}
#z22124 path {fill:#ccc;}
]]>
</style>
<path id="z22124d1" d="M120 327Q110 321 83 315Q73 311 69 316Q63 320 70 336Q97 405 108 513Q109 546 126 569Q141 590 146 576Q153 557 151 523C148 502 148 502 147 491Q132 386 130 354C130 344 129 331 120 327 Z"/>
<path id="z22124d2" d="M273 471Q288 377 312 349Q333 324 311 311Q292 301 266 285Q248 276 231 287Q209 302 180 311Q155 318 120 327C111 329 121 356 130 354Q139 353 212 334Q233 330 238 338Q245 344 227 467C224 482 270 486 273 471 Z"/>
<path id="z22124d3" d="M151 523Q157 523 164 521Q203 511 286 501Q296 500 297 491Q297 484 273 471C260 463 241 461 227 467C225 468 225 468 224 468Q181 481 147 491C137 494 140 523 151 523 Z"/>
<path id="z22124d4" d="M448 256Q460 226 485 176Q492 163 478 153Q435 129 417 137Q407 141 411 153Q432 231 363 337Q345 359 339 374Q335 387 346 382Q391 367 438 278C445 263 445 263 448 256 Z"/>
<path id="z22124d5" d="M438 278Q480 293 518 281Q546 275 576 269Q589 266 592 264Q599 257 595 250Q588 240 563 235Q538 231 512 242Q493 248 448 256C440 257 431 275 438 278 Z"/>
<path id="z22124d6" d="M471 367Q505 409 517 412Q524 412 530 403Q534 393 530 371Q529 358 510 348Q467 327 456 330Q452 331 452 341Q453 350 471 367 Z"/>
<path id="z22124d7" d="M687 222Q720 141 727 130Q734 117 719 106Q676 81 653 89Q643 93 647 106Q671 173 604 295Q594 299 575 341Q571 356 583 349Q623 337 674 247C683 230 683 230 687 222 Z"/>
<path id="z22124d8" d="M674 247Q708 259 788 246Q819 240 853 234Q875 230 879 226Q886 219 883 211Q876 201 850 193Q822 189 795 199Q770 206 742 213Q715 217 687 222C678 224 665 245 674 247 Z"/>
<path id="z22124d9" d="M703 332Q757 381 765 382Q772 381 777 371Q781 361 775 337Q769 315 701 295Q689 292 684 294Q680 297 681 306Q682 315 703 332 Z"/>
<path id="z22124d10" d="M598 486Q650 476 710 467Q752 460 758 454Q765 447 762 439Q756 429 730 420Q709 414 610 441Q496 459 454 463Q420 467 443 483Q482 507 534 496Q541 495 553 493C583 488 583 488 598 486 Z"/>
<path id="z22124d11" d="M605 821Q612 671 617 558Q620 509 618 504Q608 494 598 486C586 477 547 479 553 493Q565 526 566 623Q565 692 564 825C564 839 605 835 605 821 Z"/>
<path id="z22124d12" d="M436 663Q458 629 478 602Q487 592 475 580Q442 552 420 554Q411 555 412 568Q421 652 327 747Q305 769 293 782Q286 794 298 791Q314 790 334 774Q389 732 425 680C432 669 432 669 436 663 Z"/>
<path id="z22124d13" d="M425 680Q429 686 442 695Q464 714 487 736Q496 745 507 745Q514 744 518 735Q521 725 515 705Q511 690 488 678Q466 669 439 663Q438 662 436 663C429 663 421 675 425 680 Z"/>
<path id="z22124d14" d="M733 635Q752 608 783 558Q793 539 794 535Q787 517 754 507Q738 504 729 506Q723 509 726 518Q747 572 632 711Q626 715 634 717Q670 705 718 654C728 641 728 641 733 635 Z"/>
<path id="z22124d15" d="M718 654Q722 660 736 671Q770 699 806 732Q816 742 829 742Q838 742 841 731Q845 721 838 697Q834 675 801 659Q770 646 733 635C725 632 713 648 718 654 Z"/>
<path id="z22124d16" d="M564 825Q437 834 290 846Q268 847 283 865Q298 881 316 887Q337 894 354 890Q567 844 895 865Q916 866 921 857Q928 845 911 830Q857 787 819 794Q738 807 605 821C578 824 578 824 564 825 Z"/>
<defs>
	<clipPath id="z22124c1"><use xlink:href="#z22124d1"/></clipPath>
	<clipPath id="z22124c2"><use xlink:href="#z22124d2"/></clipPath>
	<clipPath id="z22124c3"><use xlink:href="#z22124d3"/></clipPath>
	<clipPath id="z22124c4"><use xlink:href="#z22124d4"/></clipPath>
	<clipPath id="z22124c5"><use xlink:href="#z22124d5"/></clipPath>
	<clipPath id="z22124c6"><use xlink:href="#z22124d6"/></clipPath>
	<clipPath id="z22124c7"><use xlink:href="#z22124d7"/></clipPath>
	<clipPath id="z22124c8"><use xlink:href="#z22124d8"/></clipPath>
	<clipPath id="z22124c9"><use xlink:href="#z22124d9"/></clipPath>
	<clipPath id="z22124c10"><use xlink:href="#z22124d10"/></clipPath>
	<clipPath id="z22124c11"><use xlink:href="#z22124d11"/></clipPath>
	<clipPath id="z22124c12"><use xlink:href="#z22124d12"/></clipPath>
	<clipPath id="z22124c13"><use xlink:href="#z22124d13"/></clipPath>
	<clipPath id="z22124c14"><use xlink:href="#z22124d14"/></clipPath>
	<clipPath id="z22124c15"><use xlink:href="#z22124d15"/></clipPath>
	<clipPath id="z22124c16"><use xlink:href="#z22124d16"/></clipPath>
</defs>
<path pathLength="3333" clip-path="url(#z22124c1)" d="M75 322L106 365L136 575"/>
<path pathLength="3333" clip-path="url(#z22124c2)" d="M128 333L239 307L272 323L250 468"/>
<path pathLength="3333" clip-path="url(#z22124c3)" d="M153 516L290 488"/>
<path pathLength="3333" clip-path="url(#z22124c4)" d="M416 146L451 179L413 285L346 374"/>
<path pathLength="3333" clip-path="url(#z22124c5)" d="M448 275L590 252"/>
<path pathLength="3333" clip-path="url(#z22124c6)" d="M460 336L521 407"/>
<path pathLength="3333" clip-path="url(#z22124c7)" d="M652 95L691 129L685 151L635 276L580 344"/>
<path pathLength="3333" clip-path="url(#z22124c8)" d="M684 243L880 217"/>
<path pathLength="3333" clip-path="url(#z22124c9)" d="M687 303L748 339L768 377"/>
<path pathLength="3333" clip-path="url(#z22124c10)" d="M441 470L754 443"/>
<path pathLength="3333" clip-path="url(#z22124c11)" d="M562 500L590 525L582 822"/>
<path pathLength="3333" clip-path="url(#z22124c12)" d="M420 561L446 600L411 666L296 784"/>
<path pathLength="3333" clip-path="url(#z22124c13)" d="M433 680L511 738"/>
<path pathLength="3333" clip-path="url(#z22124c14)" d="M734 513L756 556L637 709"/>
<path pathLength="3333" clip-path="url(#z22124c15)" d="M729 656L804 693L833 736"/>
<path pathLength="3333" clip-path="url(#z22124c16)" d="M282 853L340 866L826 827L920 849"/>
</svg>