<!--
AnimCJK 2016-2019 Copyright Francois Mizessyn - https://github.com/parsimonhi/animCJK
Derived from:
    MakeMeAHanzi project - https://github.com/skishore/makemeahanzi
    Arphic PL KaitiM GB font
    Arphic PL UKai font
You can redistribute and/or modify this file under the terms of the Arphic Public License
as published by Arphic Technology Co., Ltd.
You should have received a copy of this license along with this file.
If not, see http://ftp.gnu.org/non-gnu/chinese-fonts-truetype/LICENSE.
-->
<svg id="z22139" class="acjk" version="1.1" viewBox="0 0 1024 1024" xmlns="http://www.w3.org/2000/svg" xmlns:xlink="http://www.w3.org/1999/xlink">
<style>
<![CDATA[
@keyframes zk {
	to {
		stroke-dashoffset:0;
	}
}
svg.acjk path[clip-path] {
	--t:0.8s;
	animation:zk var(--t) linear forwards var(--d);
	stroke-dasharray:3337;
	stroke-dashoffset:3339;
	stroke-width:128;
	stroke-linecap:round;
	fill:none;
	stroke:#000;
}
svg.acjk path[id] {fill:#ccc;}
]]>
</style>
<path id="z22139d1" d="M130 376Q118 369 85 363Q72 359 69 365Q62 371 71 387Q99 454 116 562Q117 593 136 616Q154 638 159 623Q166 601 160 557C157 536 157 536 155 525Q142 435 139 405C137 395 139 381 130 376Z"/>
<path id="z22139d2" d="M292 509Q307 422 331 395Q352 368 328 355Q309 345 281 329Q260 317 221 346Q166 367 130 376C120 378 129 407 139 405Q145 404 152 401Q191 389 225 381Q247 375 253 385Q262 391 255 429Q249 463 243 504C240 520 289 525 292 509Z"/>
<path id="z22139d3" d="M160 557Q169 558 179 556Q219 549 304 543Q314 542 316 532Q316 525 292 509C279 499 259 504 243 504Q242 503 239 504Q193 517 155 525C144 527 149 557 160 557Z"/>
<path id="z22139d4" d="M560 123Q590 142 622 164Q638 174 652 171Q662 170 665 156Q666 141 654 114Q645 96 614 87Q539 72 527 81Q523 85 527 97Q531 107 560 123Z"/>
<path id="z22139d5" d="M429 237Q416 210 399 201Q396 197 390 201Q386 204 384 215Q388 248 361 308Q351 324 353 342Q356 361 365 374Q372 386 378 378Q390 375 405 329Q424 272 431 265C436 257 433 245 429 237Z"/>
<path id="z22139d6" d="M431 265Q447 272 486 266Q588 230 740 215Q761 212 770 214Q782 220 781 225Q781 226 750 288Q743 298 749 304Q755 308 771 298Q820 270 861 262Q895 255 895 247Q894 237 831 188Q810 170 725 188Q697 191 507 225Q467 232 429 237C420 239 422 262 431 265Z"/>
<path id="z22139d7" d="M686 363Q690 362 696 361Q739 352 746 347Q753 340 750 334Q744 324 721 317Q709 314 697 315C658 325 658 325 639 330Q621 333 543 352C506 357 506 357 488 359Q463 360 440 363Q410 366 431 381Q458 397 494 395C525 390 525 390 540 387Q586 378 638 371C670 366 670 366 686 363Z"/>
<path id="z22139d8" d="M671 468Q701 464 732 461Q757 458 749 444Q739 428 712 422Q697 419 678 422C650 427 650 427 636 429Q584 438 538 449C512 454 512 454 499 457Q471 461 445 466Q426 470 447 486Q453 490 500 492C525 489 525 489 538 487Q587 478 633 473C658 470 658 470 671 468Z"/>
<path id="z22139d9" d="M543 352Q543 349 544 348Q547 329 535 317Q516 301 492 292Q480 288 472 292Q465 298 470 311Q482 333 488 359C492 383 492 383 494 395Q495 417 499 457C500 480 500 480 500 492Q501 519 503 553C503 565 539 560 539 548Q538 514 538 487C538 462 538 462 538 449Q538 401 540 387C542 364 542 364 543 352Z"/>
<path id="z22139d10" d="M662 530Q666 497 671 468C676 437 676 437 678 422Q682 391 686 363C693 331 693 331 697 315Q701 303 704 294Q708 285 692 272Q665 256 646 251Q633 247 626 253Q619 259 625 272Q637 291 639 330C638 357 638 357 638 371Q637 399 636 429C634 458 634 458 633 473Q630 501 628 535C628 546 660 541 662 530Z"/>
<path id="z22139d11" d="M701 566Q752 563 857 563Q875 563 879 555Q883 545 869 533Q818 494 759 512Q717 519 662 530C639 533 639 533 628 535Q610 536 592 540Q567 543 539 548C515 551 515 551 503 553Q430 560 351 572Q332 573 346 589Q359 602 375 606Q394 610 408 607Q429 601 454 596C484 591 484 591 499 588Q578 570 669 568C690 567 690 567 701 566Z"/>
<path id="z22139d12" d="M454 596Q438 681 258 807Q251 810 259 813Q295 820 406 738Q407 735 411 734Q445 703 501 640Q519 622 520 617Q520 610 511 598Q505 591 499 588C486 580 457 581 454 596Z"/>
<path id="z22139d13" d="M669 568Q733 653 816 744Q832 759 857 756Q941 749 967 741Q974 740 976 735Q976 731 965 725Q833 677 772 625Q738 598 701 566C693 559 663 559 669 568Z"/>
<path id="z22139d14" d="M614 751Q734 727 738 726Q745 719 742 711Q736 701 710 692Q683 685 619 706C583 714 583 714 565 718Q513 728 454 731Q420 735 443 751Q482 775 534 764Q549 760 567 759C598 754 598 754 614 751Z"/>
<path id="z22139d15" d="M603 840Q607 794 614 751C617 721 617 721 619 706Q619 703 620 702Q624 672 632 654Q635 645 618 632Q588 616 568 612Q555 609 548 616Q541 623 548 635Q560 653 565 718C566 745 566 745 567 759Q567 799 567 844C567 856 603 852 603 840Z"/>
<path id="z22139d16" d="M567 844Q476 853 373 863Q352 864 367 881Q380 894 397 901Q418 907 433 903Q611 863 829 882Q848 882 854 874Q860 864 844 849Q790 807 733 821Q678 828 603 840C579 843 579 843 567 844Z"/>
<defs>
	<clipPath id="z22139c1"><use xlink:href="#z22139d1"/></clipPath>
	<clipPath id="z22139c2"><use xlink:href="#z22139d2"/></clipPath>
	<clipPath id="z22139c3"><use xlink:href="#z22139d3"/></clipPath>
	<clipPath id="z22139c4"><use xlink:href="#z22139d4"/></clipPath>
	<clipPath id="z22139c5"><use xlink:href="#z22139d5"/></clipPath>
	<clipPath id="z22139c6"><use xlink:href="#z22139d6"/></clipPath>
	<clipPath id="z22139c7"><use xlink:href="#z22139d7"/></clipPath>
	<clipPath id="z22139c8"><use xlink:href="#z22139d8"/></clipPath>
	<clipPath id="z22139c9"><use xlink:href="#z22139d9"/></clipPath>
	<clipPath id="z22139c10"><use xlink:href="#z22139d10"/></clipPath>
	<clipPath id="z22139c11"><use xlink:href="#z22139d11"/></clipPath>
	<clipPath id="z22139c12"><use xlink:href="#z22139d12"/></clipPath>
	<clipPath id="z22139c13"><use xlink:href="#z22139d13"/></clipPath>
	<clipPath id="z22139c14"><use xlink:href="#z22139d14"/></clipPath>
	<clipPath id="z22139c15"><use xlink:href="#z22139d15"/></clipPath>
	<clipPath id="z22139c16"><use xlink:href="#z22139d16"/></clipPath>
</defs>
<path style="--d:1s;" pathLength="3333" clip-path="url(#z22139c1)" d="M74 370L108 401L146 621"/>
<path style="--d:2s;" pathLength="3333" clip-path="url(#z22139c2)" d="M137 381L260 354L295 376L268 506"/>
<path style="--d:3s;" pathLength="3333" clip-path="url(#z22139c3)" d="M161 530L310 529"/>
<path style="--d:4s;" pathLength="3333" clip-path="url(#z22139c4)" d="M532 85L658 164"/>
<path style="--d:5s;" pathLength="3333" clip-path="url(#z22139c5)" d="M396 204L405 260L373 373"/>
<path style="--d:6s;" pathLength="3333" clip-path="url(#z22139c6)" d="M437 241L794 199L837 259L753 298"/>
<path style="--d:7s;" pathLength="3333" clip-path="url(#z22139c7)" d="M432 373L743 336"/>
<path style="--d:8s;" pathLength="3333" clip-path="url(#z22139c8)" d="M442 472L745 450"/>
<path style="--d:9s;" pathLength="3333" clip-path="url(#z22139c9)" d="M479 300L515 342L526 547"/>
<path style="--d:10s;" pathLength="3333" clip-path="url(#z22139c10)" d="M629 261L671 304L638 532"/>
<path style="--d:11s;" pathLength="3333" clip-path="url(#z22139c11)" d="M348 579L799 534L875 547"/>
<path style="--d:12s;" pathLength="3333" clip-path="url(#z22139c12)" d="M514 615L472 624L392 724L265 809"/>
<path style="--d:13s;" pathLength="3333" clip-path="url(#z22139c13)" d="M677 569L840 715L968 732"/>
<path style="--d:14s;" pathLength="3333" clip-path="url(#z22139c14)" d="M441 739L735 716"/>
<path style="--d:15s;" pathLength="3333" clip-path="url(#z22139c15)" d="M552 623L595 659L580 841"/>
<path style="--d:16s;" pathLength="3333" clip-path="url(#z22139c16)" d="M370 872L746 847L851 863"/>
</svg>