<!--
AnimCJK 2016-2018 Copyright Francois Mizessyn - https://github.com/parsimonhi/animCJK
Derived from:
    MakeMeAHanzi project - https://github.com/skishore/makemeahanzi
    Arphic PL KaitiM GB - https://apps.ubuntu.com/cat/applications/precise/fonts-arphic-gkai00mp/
    Arphic PL UKai - https://apps.ubuntu.com/cat/applications/fonts-arphic-ukai/
You can redistribute and/or modify this file under the terms of the Arphic Public License
as published by Arphic Technology Co., Ltd.
You should have received a copy of this license (the directory "APL") along with this file;
if not, see http://ftp.gnu.org/non-gnu/chinese-fonts-truetype/LICENSE.
-->
<svg id="z22139" class="acjk" version="1.1" viewBox="0 0 1024 1024" xmlns="http://www.w3.org/2000/svg" xmlns:xlink="http://www.w3.org/1999/xlink">
<style>
<![CDATA[
@keyframes z22139k {
	from {
		stroke:#c00;
		stroke-dashoffset:3334;
	}
	75% {
		stroke:#c00;
		stroke-dashoffset:0;
	}
	to {
		stroke:#000;
	}
}
#z22139 path[clip-path] {
	animation:z22139k 1s linear both;
	stroke-dasharray:3334;
	stroke-width:128;
	stroke-linecap:round;
	fill:none;
}
#z22139 path[clip-path="url(#z22139c1)"] {animation-delay:1s;}
#z22139 path[clip-path="url(#z22139c2)"] {animation-delay:2s;}
#z22139 path[clip-path="url(#z22139c3)"] {animation-delay:3s;}
#z22139 path[clip-path="url(#z22139c4)"] {animation-delay:4s;}
#z22139 path[clip-path="url(#z22139c5)"] {animation-delay:5s;}
#z22139 path[clip-path="url(#z22139c6)"] {animation-delay:6s;}
#z22139 path[clip-path="url(#z22139c7)"] {animation-delay:7s;}
#z22139 path[clip-path="url(#z22139c8)"] {animation-delay:8s;}
#z22139 path[clip-path="url(#z22139c9)"] {animation-delay:9s;}
#z22139 path[clip-path="url(#z22139c10)"] {animation-delay:10s;}
#z22139 path[clip-path="url(#z22139c11)"] {animation-delay:11s;}
#z22139 path[clip-path="url(#z22139c12)"] {animation-delay:12s;}
#z22139 path[clip-path="url(#z22139c13)"] {animation-delay:13s;}
#z22139 path[clip-path="url(#z22139c14)"] {animation-delay:14s;}
#z22139 path[clip-path="url(#z22139c15)"] {animation-delay:15s;}
#z22139 path[clip-path="url(#z22139c16)"] {animation-delay:16s;}
#z22139 path {fill:#ccc;}
]]>
</style>
<path id="z22139d1" d="M130 376Q118 369 85 363Q72 359 69 365Q62 371 71 387Q99 454 116 562Q117 593 136 616Q154 638 159 623Q166 601 160 557L155 525Q142 435 139 405L130 376 Z"/>
<path id="z22139d2" d="M292 509Q307 422 331 395Q352 368 328 355Q309 345 281 329Q260 317 221 346Q166 367 130 376L139 405Q145 404 152 401Q191 389 225 381Q247 375 253 385Q262 391 255 429Q249 463 243 504L292 509 Z"/>
<path id="z22139d3" d="M160 557Q169 558 179 556Q219 549 304 543Q314 542 316 532Q316 525 292 509L243 504Q242 503 239 504Q193 517 155 525L160 557 Z"/>
<path id="z22139d4" d="M560 123Q590 142 622 164Q638 174 652 171Q662 170 665 156Q666 141 654 114Q645 96 614 87Q539 72 527 81Q523 85 527 97Q531 107 560 123 Z"/>
<path id="z22139d5" d="M429 237Q416 210 399 201Q396 197 390 201Q386 204 384 215Q388 248 361 308Q351 324 353 342Q356 361 365 374Q372 386 378 378Q390 375 405 329Q424 272 431 265L429 237 Z"/>
<path id="z22139d6" d="M431 265Q447 272 486 266Q588 230 740 215Q761 212 770 214Q782 220 781 225Q781 226 750 288Q743 298 749 304Q755 308 771 298Q820 270 861 262Q895 255 895 247Q894 237 831 188Q810 170 725 188Q697 191 507 225Q467 232 429 237L431 265 Z"/>
<path id="z22139d7" d="M686 363Q690 362 696 361Q739 352 746 347Q753 340 750 334Q744 324 721 317Q709 314 697 315L639 330Q621 333 543 352L488 359Q463 360 440 363Q410 366 431 381Q458 397 494 395L540 387Q586 378 638 371L686 363 Z"/>
<path id="z22139d8" d="M671 468Q701 464 732 461Q757 458 749 444Q739 428 712 422Q697 419 678 422L636 429Q584 438 538 449L499 457Q471 461 445 466Q426 470 447 486Q453 490 500 492L538 487Q587 478 633 473L671 468 Z"/>
<path id="z22139d9" d="M543 352Q543 349 544 348Q547 329 535 317Q516 301 492 292Q480 288 472 292Q465 298 470 311Q482 333 488 359L494 395Q495 417 499 457L500 492Q501 519 503 553L539 548Q538 514 538 487L538 449Q538 401 540 387L543 352 Z"/>
<path id="z22139d10" d="M662 530Q666 497 671 468L678 422Q682 391 686 363L697 315Q701 303 704 294Q708 285 692 272Q665 256 646 251Q633 247 626 253Q619 259 625 272Q637 291 639 330L638 371Q637 399 636 429L633 473Q630 501 628 535L662 530 Z"/>
<path id="z22139d11" d="M701 566Q752 563 857 563Q875 563 879 555Q883 545 869 533Q818 494 759 512Q717 519 662 530L628 535Q610 536 592 540Q567 543 539 548L503 553Q430 560 351 572Q332 573 346 589Q359 602 375 606Q394 610 408 607Q429 601 454 596L499 588Q578 570 669 568L701 566 Z"/>
<path id="z22139d12" d="M454 596Q438 681 258 807Q251 810 259 813Q295 820 406 738Q407 735 411 734Q445 703 501 640Q519 622 520 617Q520 610 511 598Q505 591 499 588L454 596 Z"/>
<path id="z22139d13" d="M669 568Q733 653 816 744Q832 759 857 756Q941 749 967 741Q974 740 976 735Q976 731 965 725Q833 677 772 625Q738 598 701 566L669 568 Z"/>
<path id="z22139d14" d="M614 751Q734 727 738 726Q745 719 742 711Q736 701 710 692Q683 685 619 706L565 718Q513 728 454 731Q420 735 443 751Q482 775 534 764Q549 760 567 759L614 751 Z"/>
<path id="z22139d15" d="M603 840Q607 794 614 751L619 706Q619 703 620 702Q624 672 632 654Q635 645 618 632Q588 616 568 612Q555 609 548 616Q541 623 548 635Q560 653 565 718L567 759Q567 799 567 844L603 840 Z"/>
<path id="z22139d16" d="M567 844Q476 853 373 863Q352 864 367 881Q380 894 397 901Q418 907 433 903Q611 863 829 882Q848 882 854 874Q860 864 844 849Q790 807 733 821Q678 828 603 840L567 844 Z"/>
<defs>
	<clipPath id="z22139c1"><use xlink:href="#z22139d1"/></clipPath>
	<clipPath id="z22139c2"><use xlink:href="#z22139d2"/></clipPath>
	<clipPath id="z22139c3"><use xlink:href="#z22139d3"/></clipPath>
	<clipPath id="z22139c4"><use xlink:href="#z22139d4"/></clipPath>
	<clipPath id="z22139c5"><use xlink:href="#z22139d5"/></clipPath>
	<clipPath id="z22139c6"><use xlink:href="#z22139d6"/></clipPath>
	<clipPath id="z22139c7"><use xlink:href="#z22139d7"/></clipPath>
	<clipPath id="z22139c8"><use xlink:href="#z22139d8"/></clipPath>
	<clipPath id="z22139c9"><use xlink:href="#z22139d9"/></clipPath>
	<clipPath id="z22139c10"><use xlink:href="#z22139d10"/></clipPath>
	<clipPath id="z22139c11"><use xlink:href="#z22139d11"/></clipPath>
	<clipPath id="z22139c12"><use xlink:href="#z22139d12"/></clipPath>
	<clipPath id="z22139c13"><use xlink:href="#z22139d13"/></clipPath>
	<clipPath id="z22139c14"><use xlink:href="#z22139d14"/></clipPath>
	<clipPath id="z22139c15"><use xlink:href="#z22139d15"/></clipPath>
	<clipPath id="z22139c16"><use xlink:href="#z22139d16"/></clipPath>
</defs>
<path pathLength="3333" clip-path="url(#z22139c1)" d="M74 370L108 401L146 621"/>
<path pathLength="3333" clip-path="url(#z22139c2)" d="M137 381L260 354L295 376L268 506"/>
<path pathLength="3333" clip-path="url(#z22139c3)" d="M161 530L310 529"/>
<path pathLength="3333" clip-path="url(#z22139c4)" d="M532 85L658 164"/>
<path pathLength="3333" clip-path="url(#z22139c5)" d="M396 204L405 260L373 373"/>
<path pathLength="3333" clip-path="url(#z22139c6)" d="M437 241L794 199L837 259L753 298"/>
<path pathLength="3333" clip-path="url(#z22139c7)" d="M432 373L743 336"/>
<path pathLength="3333" clip-path="url(#z22139c8)" d="M442 472L745 450"/>
<path pathLength="3333" clip-path="url(#z22139c9)" d="M479 300L515 342L526 547"/>
<path pathLength="3333" clip-path="url(#z22139c10)" d="M629 261L671 304L638 532"/>
<path pathLength="3333" clip-path="url(#z22139c11)" d="M348 579L799 534L875 547"/>
<path pathLength="3333" clip-path="url(#z22139c12)" d="M514 615L472 624L392 724L265 809"/>
<path pathLength="3333" clip-path="url(#z22139c13)" d="M677 569L840 715L968 732"/>
<path pathLength="3333" clip-path="url(#z22139c14)" d="M441 739L735 716"/>
<path pathLength="3333" clip-path="url(#z22139c15)" d="M552 623L595 659L580 841"/>
<path pathLength="3333" clip-path="url(#z22139c16)" d="M370 872L746 847L851 863"/>
</svg>