<!--
AnimCJK 2016-2019 Copyright Francois Mizessyn - https://github.com/parsimonhi/animCJK
Derived from:
    MakeMeAHanzi project - https://github.com/skishore/makemeahanzi
    Arphic PL KaitiM GB font
    Arphic PL UKai font
You can redistribute and/or modify this file under the terms of the Arphic Public License
as published by Arphic Technology Co., Ltd.
You should have received a copy of this license along with this file.
If not, see http://ftp.gnu.org/non-gnu/chinese-fonts-truetype/LICENSE.
-->
<svg id="z22158" class="acjk" version="1.1" viewBox="0 0 1024 1024" xmlns="http://www.w3.org/2000/svg" xmlns:xlink="http://www.w3.org/1999/xlink">
<style>
<![CDATA[
@keyframes zk {
	to {
		stroke-dashoffset:0;
	}
}
svg.acjk path[clip-path] {
	--t:0.8s;
	animation:zk var(--t) linear forwards var(--d);
	stroke-dasharray:3337;
	stroke-dashoffset:3339;
	stroke-width:128;
	stroke-linecap:round;
	fill:none;
	stroke:#000;
}
svg.acjk path[id] {fill:#ccc;}
]]>
</style>
<path id="z22158d1" d="M124 337Q115 330 83 323Q73 319 69 324Q63 328 70 344Q97 414 108 524Q109 558 126 581Q141 602 146 588Q153 566 150 526C147 504 147 504 145 493Q132 396 130 364C130 355 131 343 124 337Z"/>
<path id="z22158d2" d="M267 470Q283 382 308 353Q327 328 306 316Q287 306 261 291Q245 282 197 311Q170 321 124 337C115 340 121 367 130 364Q139 358 209 341Q230 335 236 344Q243 350 236 387Q229 426 219 471C216 487 264 486 267 470Z"/>
<path id="z22158d3" d="M150 526Q180 516 283 501Q293 500 293 491Q293 484 267 470C253 462 234 465 219 471Q177 484 145 493C134 497 139 528 150 526Z"/>
<path id="z22158d4" d="M529 78Q553 94 578 117Q591 127 607 126Q617 125 621 112Q624 97 613 69Q601 45 521 32Q505 31 500 33Q496 37 498 49Q502 59 529 78Z"/>
<path id="z22158d5" d="M404 180Q373 184 395 200Q434 221 478 210Q589 189 703 167Q755 155 762 148Q769 141 766 134Q760 124 735 117Q714 111 619 142Q502 170 404 180Z"/>
<path id="z22158d6" d="M463 264Q453 260 426 257Q416 256 412 260Q408 266 416 279Q437 312 454 368Q458 384 469 395Q485 413 490 399Q491 393 491 386C490 367 490 367 489 357Q479 311 478 292C478 281 473 268 463 264Z"/>
<path id="z22158d7" d="M660 326Q681 286 703 275Q716 259 704 244Q691 234 645 212Q627 203 568 233Q475 260 463 264C453 268 468 294 478 292Q488 291 501 285Q555 272 606 257Q619 253 625 258Q634 270 612 326C606 341 653 340 660 326Z"/>
<path id="z22158d8" d="M491 386Q497 387 505 385Q559 370 675 355Q684 354 685 346Q685 339 660 326C646 318 628 323 612 326Q542 345 489 357C479 359 481 386 491 386Z"/>
<path id="z22158d9" d="M371 462Q356 437 343 429Q340 425 334 428Q330 432 328 443Q332 470 306 528Q296 544 297 562Q300 581 309 594Q316 606 322 598Q334 595 348 552Q363 512 371 498Q374 494 375 489C378 481 376 469 371 462Z"/>
<path id="z22158d10" d="M375 489Q396 499 418 492Q574 440 718 426Q746 422 758 423Q770 435 767 440Q767 444 744 510Q738 523 745 527Q752 531 767 518Q816 481 858 467Q892 454 891 447Q888 437 820 393Q799 378 695 402Q667 405 459 446Q416 455 371 462C362 464 367 486 375 489Z"/>
<path id="z22158d11" d="M489 559Q630 520 632 519Q639 512 635 505Q628 496 605 491Q586 488 517 512Q460 530 405 538Q377 544 398 556Q422 568 454 566C477 561 477 561 489 559Z"/>
<path id="z22158d12" d="M495 608Q502 601 509 598Q519 589 517 582Q516 572 497 562Q493 561 489 559C478 555 458 555 454 566Q432 615 325 687Q307 697 329 696Q375 700 473 626C488 614 488 614 495 608Z"/>
<path id="z22158d13" d="M592 671Q543 622 495 608C486 605 464 622 473 626Q483 630 494 637C525 658 525 658 540 668Q547 674 555 682C574 711 574 711 584 726Q599 765 572 848Q562 876 552 882Q545 886 478 879Q457 873 456 880Q455 887 466 898Q515 940 536 968Q546 984 560 981Q602 957 623 865Q639 793 630 742C628 729 601 680 592 671Z"/>
<path id="z22158d14" d="M494 637Q467 697 328 780Q312 787 331 788Q385 789 515 688Q530 676 539 670Q540 669 540 668C553 655 501 620 494 637Z"/>
<path id="z22158d15" d="M555 682Q486 787 325 879Q312 888 320 891Q327 897 340 893Q439 875 543 771Q577 740 577 737Q581 731 584 726C595 712 566 668 555 682Z"/>
<path id="z22158d16" d="M604 684Q691 626 735 606Q751 602 748 592Q744 576 726 558Q710 540 688 538Q675 537 674 556Q675 580 592 671C588 676 599 688 604 684Z"/>
<path id="z22158d17" d="M630 742Q688 800 753 857Q775 876 811 875Q877 874 943 855Q959 851 961 847Q962 840 948 836Q770 791 690 742Q672 732 655 720Q625 699 604 684C587 671 615 727 630 742Z"/>
<defs>
	<clipPath id="z22158c1"><use xlink:href="#z22158d1"/></clipPath>
	<clipPath id="z22158c2"><use xlink:href="#z22158d2"/></clipPath>
	<clipPath id="z22158c3"><use xlink:href="#z22158d3"/></clipPath>
	<clipPath id="z22158c4"><use xlink:href="#z22158d4"/></clipPath>
	<clipPath id="z22158c5"><use xlink:href="#z22158d5"/></clipPath>
	<clipPath id="z22158c6"><use xlink:href="#z22158d6"/></clipPath>
	<clipPath id="z22158c7"><use xlink:href="#z22158d7"/></clipPath>
	<clipPath id="z22158c8"><use xlink:href="#z22158d8"/></clipPath>
	<clipPath id="z22158c9"><use xlink:href="#z22158d9"/></clipPath>
	<clipPath id="z22158c10"><use xlink:href="#z22158d10"/></clipPath>
	<clipPath id="z22158c11"><use xlink:href="#z22158d11"/></clipPath>
	<clipPath id="z22158c12"><use xlink:href="#z22158d12"/></clipPath>
	<clipPath id="z22158c13"><use xlink:href="#z22158d13"/></clipPath>
	<clipPath id="z22158c14"><use xlink:href="#z22158d14"/></clipPath>
	<clipPath id="z22158c15"><use xlink:href="#z22158d15"/></clipPath>
	<clipPath id="z22158c16"><use xlink:href="#z22158d16"/></clipPath>
	<clipPath id="z22158c17"><use xlink:href="#z22158d17"/></clipPath>
</defs>
<path style="--d:1s;" pathLength="3333" clip-path="url(#z22158c1)" d="M75 330L106 373L138 587"/>
<path style="--d:2s;" pathLength="3333" clip-path="url(#z22158c2)" d="M133 354L232 315L277 339L231 468"/>
<path style="--d:3s;" pathLength="3333" clip-path="url(#z22158c3)" d="M156 518L285 490"/>
<path style="--d:4s;" pathLength="3333" clip-path="url(#z22158c4)" d="M504 37L614 118"/>
<path style="--d:5s;" pathLength="3333" clip-path="url(#z22158c5)" d="M396 189L760 137"/>
<path style="--d:6s;" pathLength="3333" clip-path="url(#z22158c6)" d="M418 263L449 288L481 399"/>
<path style="--d:7s;" pathLength="3333" clip-path="url(#z22158c7)" d="M470 267L631 234L668 268L621 320"/>
<path style="--d:8s;" pathLength="3333" clip-path="url(#z22158c8)" d="M498 379L677 343"/>
<path style="--d:9s;" pathLength="3333" clip-path="url(#z22158c9)" d="M338 433L349 487L318 594"/>
<path style="--d:10s;" pathLength="3333" clip-path="url(#z22158c10)" d="M378 466L781 408L833 459L750 519"/>
<path style="--d:11s;" pathLength="3333" clip-path="url(#z22158c11)" d="M399 547L629 509"/>
<path style="--d:12s;" pathLength="3333" clip-path="url(#z22158c12)" d="M513 582L328 692"/>
<path style="--d:13s;" pathLength="3333" clip-path="url(#z22158c13)" d="M483 624L583 689L610 785L565 924L542 931L462 885"/>
<path style="--d:14s;" pathLength="3333" clip-path="url(#z22158c14)" d="M532 668L495 670L329 782"/>
<path style="--d:15s;" pathLength="3333" clip-path="url(#z22158c15)" d="M553 694L554 724L478 800L326 885"/>
<path style="--d:16s;" pathLength="3333" clip-path="url(#z22158c16)" d="M743 596L695 580L604 672"/>
<path style="--d:17s;" pathLength="3333" clip-path="url(#z22158c17)" d="M610 692L772 824L953 844"/>
</svg>