<!--
AnimCJK 2016-2018 Copyright Francois Mizessyn, http://gooo.free.fr/animCJK/
Derived from:
    MakeMeAHanzi project - https://github.com/skishore/makemeahanzi
    Arphic PL KaitiM GB - https://apps.ubuntu.com/cat/applications/precise/fonts-arphic-gkai00mp/
    Arphic PL UKai - https://apps.ubuntu.com/cat/applications/fonts-arphic-ukai/
You can redistribute and/or modify this file under the terms of the Arphic Public License
as published by Arphic Technology Co., Ltd.
You should have received a copy of this license (the directory "APL") along with this file;
if not, see http://ftp.gnu.org/non-gnu/chinese-fonts-truetype/LICENSE.
-->
<svg id="z22170" class="acjk" version="1.1" viewBox="0 0 1024 1024" xmlns="http://www.w3.org/2000/svg" xmlns:xlink="http://www.w3.org/1999/xlink">
<style>
<![CDATA[
@keyframes z22170k {
	from {
		stroke:#ccc;
		stroke-dashoffset:3334;
	}
	1% {
		stroke:#c00;
		stroke-dashoffset:3334;
	}
	75% {
		stroke:#c00;
		stroke-dashoffset:0;
	}
	to {
		stroke:#000;
	}
}
#z22170 path[clip-path] {
	animation:z22170k 1s linear both;
	stroke-dasharray:3334;
	stroke-width:128;
	stroke-linecap:round;
	fill:none;
}
#z22170 path[clip-path="url(#z22170c1)"] {animation-delay:1s;}
#z22170 path[clip-path="url(#z22170c2)"] {animation-delay:2s;}
#z22170 path[clip-path="url(#z22170c3)"] {animation-delay:3s;}
#z22170 path[clip-path="url(#z22170c4)"] {animation-delay:4s;}
#z22170 path[clip-path="url(#z22170c5)"] {animation-delay:5s;}
#z22170 path[clip-path="url(#z22170c6)"] {animation-delay:6s;}
#z22170 path[clip-path="url(#z22170c7)"] {animation-delay:7s;}
#z22170 path[clip-path="url(#z22170c8)"] {animation-delay:8s;}
#z22170 path[clip-path="url(#z22170c9)"] {animation-delay:9s;}
#z22170 path[clip-path="url(#z22170c10)"] {animation-delay:10s;}
#z22170 path[clip-path="url(#z22170c11)"] {animation-delay:11s;}
#z22170 path[clip-path="url(#z22170c12)"] {animation-delay:12s;}
#z22170 path[clip-path="url(#z22170c13)"] {animation-delay:13s;}
#z22170 path[clip-path="url(#z22170c14)"] {animation-delay:14s;}
#z22170 path[clip-path="url(#z22170c15)"] {animation-delay:15s;}
#z22170 path[clip-path="url(#z22170c16)"] {animation-delay:16s;}
#z22170 path[clip-path="url(#z22170c17)"] {animation-delay:17s;}
#z22170 path[clip-path="url(#z22170c18)"] {animation-delay:18s;}
#z22170 path {fill:#ccc;}
]]>
</style>
<path id="z22170d1" d="M 286,129 C 279,125 266,122 246,121 239,119 234,119 232,123 229,127 230,133 236,143 250,169 264,203 276,247 278,259 284,270 293,279 303,291 310,292 314,283 314,277 315,269 316,261 L 312,235 C 303,193 298,165 297,153 Z"/>
<path id="z22170d2" d="M 440,212 C 450,178 463,157 474,147 487,133 485,121 473,113 461,106 448,98 434,88 423,81 405,88 375,102 341,116 310,123 286,129 L 297,153 C 301,152 305,151 311,150 335,143 359,137 381,133 395,129 403,130 408,136 409,138 410,147 408,162 405,176 401,193 396,211 Z"/>
<path id="z22170d3" d="M 316,261 C 320,261 324,261 330,260 354,253 395,245 452,237 456,236 459,233 461,228 461,224 454,218 440,212 L 396,211 C 364,221 336,229 312,235 Z"/>
<path id="z22170d4" d="M 539,91 C 532,89 516,87 514,91 511,93 512,99 517,109 529,133 541,165 552,205 554,217 558,227 566,235 576,247 583,248 586,239 586,235 587,230 588,226 L 586,200 C 579,159 575,132 574,119 Z"/>
<path id="z22170d5" d="M 729,176 C 739,148 750,130 762,122 776,108 776,96 763,87 752,80 739,71 724,59 713,52 702,52 691,58 649,79 604,85 539,91 L 574,119 C 586,115 616,109 664,101 680,98 691,100 695,106 697,108 697,117 693,131 689,145 684,161 680,178 Z"/>
<path id="z22170d6" d="M 588,226 C 592,226 598,226 606,225 634,218 680,211 743,204 747,203 750,200 752,196 752,192 744,185 729,176 L 680,178 C 645,186 614,194 586,200 Z"/>
<path id="z22170d7" d="M 523,336 C 556,331 618,321 709,314 717,314 726,313 730,304 733,298 723,291 709,284 683,271 646,273 594,285 510,303 444,312 400,316 373,319 346,320 318,324 L 322,359 C 333,362 347,365 362,362 398,354 440,349 485,342 Z"/>
<path id="z22170d8" d="M 533,427 C 539,397 545,379 544,364 543,349 533,343 523,336 L 485,342 C 489,357 489,352 486,435 Z"/>
<path id="z22170d9" d="M 705,504 C 718,488 745,478 763,467 776,459 777,444 767,434 758,424 735,412 701,397 690,391 676,391 662,396 634,404 559,422 533,427 L 486,435 C 463,438 373,452 311,455 L 309,479 C 325,486 344,483 368,480 436,469 583,447 633,442 652,440 665,439 672,446 677,451 678,459 677,468 675,479 666,487 656,498 Z"/>
<path id="z22170d10" d="M 523,554 C 565,549 663,539 716,535 724,535 728,532 729,526 729,522 721,515 705,504 L 656,498 C 616,508 390,543 301,551 L 299,578 C 307,582 317,583 328,581 368,573 421,566 487,558 Z"/>
<path id="z22170d11" d="M 533,644 C 533,644 545,592 544,580 543,566 533,561 523,554 L 487,558 C 492,574 492,620 488,648 Z"/>
<path id="z22170d12" d="M 318,324 C 292,311 274,303 262,302 254,302 248,304 242,307 236,311 238,317 246,327 266,354 267,415 262,501 260,548 246,636 217,670 207,682 203,689 209,700 214,708 219,716 229,723 238,730 249,731 259,723 289,698 391,681 568,677 677,675 750,676 789,681 817,685 832,681 833,668 833,660 822,650 800,638 780,627 764,622 752,622 731,623 659,633 533,644 L 488,648 C 466,650 442,651 418,655 342,666 301,668 296,660 287,646 296,624 299,578 L 301,551 C 302,540 308,491 309,479 L 311,455 C 312,445 314,378 322,359 Z"/>
<path id="z22170d13" d="M 249,786 C 242,782 230,778 212,775 204,773 199,773 197,777 192,781 192,788 198,798 212,826 223,863 232,910 234,924 239,935 247,945 257,959 265,961 269,951 271,945 272,937 272,928 L 271,898 C 266,850 263,820 263,809 Z"/>
<path id="z22170d14" d="M 420,874 C 428,837 438,814 449,802 462,787 461,775 447,767 435,760 421,751 405,742 396,736 374,747 337,762 304,775 273,780 249,786 L 263,809 C 305,799 333,791 350,788 363,784 372,786 378,792 381,795 382,804 380,822 378,838 375,856 373,875 Z"/>
<path id="z22170d15" d="M 272,928 C 274,928 278,927 283,927 315,919 366,912 436,906 442,905 445,902 446,898 446,893 437,885 420,874 L 373,875 C 336,883 302,891 271,898 Z"/>
<path id="z22170d16" d="M 559,766 C 553,763 544,761 532,760 525,758 520,758 518,762 515,766 516,772 521,782 535,812 548,851 559,901 561,915 566,928 575,938 585,950 592,952 596,943 598,936 599,927 599,917 L 595,887 C 586,835 582,802 582,790 Z"/>
<path id="z22170d17" d="M 755,865 C 765,827 776,802 789,790 803,774 803,760 789,753 748,730 732,720 727,720 721,720 715,721 710,725 681,741 631,754 559,766 L 582,790 C 602,785 617,781 680,770 698,766 708,769 715,776 718,779 719,789 716,808 713,826 709,845 705,866 Z"/>
<path id="z22170d18" d="M 599,917 C 599,917 602,916 607,916 641,909 696,903 771,898 777,897 780,894 781,890 781,885 773,877 756,865 L 755,865 705,866 C 664,874 627,881 595,887 Z"/>
<defs>
	<clipPath id="z22170c1"><use xlink:href="#z22170d1"/></clipPath>
	<clipPath id="z22170c2"><use xlink:href="#z22170d2"/></clipPath>
	<clipPath id="z22170c3"><use xlink:href="#z22170d3"/></clipPath>
	<clipPath id="z22170c4"><use xlink:href="#z22170d4"/></clipPath>
	<clipPath id="z22170c5"><use xlink:href="#z22170d5"/></clipPath>
	<clipPath id="z22170c6"><use xlink:href="#z22170d6"/></clipPath>
	<clipPath id="z22170c7"><use xlink:href="#z22170d7"/></clipPath>
	<clipPath id="z22170c8"><use xlink:href="#z22170d8"/></clipPath>
	<clipPath id="z22170c9"><use xlink:href="#z22170d9"/></clipPath>
	<clipPath id="z22170c10"><use xlink:href="#z22170d10"/></clipPath>
	<clipPath id="z22170c11"><use xlink:href="#z22170d11"/></clipPath>
	<clipPath id="z22170c12"><use xlink:href="#z22170d12"/></clipPath>
	<clipPath id="z22170c13"><use xlink:href="#z22170d13"/></clipPath>
	<clipPath id="z22170c14"><use xlink:href="#z22170d14"/></clipPath>
	<clipPath id="z22170c15"><use xlink:href="#z22170d15"/></clipPath>
	<clipPath id="z22170c16"><use xlink:href="#z22170d16"/></clipPath>
	<clipPath id="z22170c17"><use xlink:href="#z22170d17"/></clipPath>
	<clipPath id="z22170c18"><use xlink:href="#z22170d18"/></clipPath>
</defs>
<path pathLength="3333" clip-path="url(#z22170c1)" d="M 238,128 270,154 303,282"/>
<path pathLength="3333" clip-path="url(#z22170c2)" d="M 293,132 423,112 446,136 407,206"/>
<path pathLength="3333" clip-path="url(#z22170c3)" d="M 325,254 454,229"/>
<path pathLength="3333" clip-path="url(#z22170c4)" d="M 522,95 555,140 577,239"/>
<path pathLength="3333" clip-path="url(#z22170c5)" d="M 552,96 710,83 734,111 690,175"/>
<path pathLength="3333" clip-path="url(#z22170c6)" d="M 595,218 744,193"/>
<path pathLength="3333" clip-path="url(#z22170c7)" d="M 325,330 723,304"/>
<path pathLength="3333" clip-path="url(#z22170c8)" d="M 490,346 512,360 494,423"/>
<path pathLength="3333" clip-path="url(#z22170c9)" d="M 316,462 696,420 723,451 670,493"/>
<path pathLength="3333" clip-path="url(#z22170c10)" d="M 306,555 718,525"/>
<path pathLength="3333" clip-path="url(#z22170c11)" d="M 495,560 522,575 500,640"/>
<path pathLength="3333" clip-path="url(#z22170c12)" d="M 248,311 291,343 265,642 238,678 256,694 358,677 750,647 821,671"/>
<path pathLength="3333" clip-path="url(#z22170c13)" d="M 202,784 236,817 261,950"/>
<path pathLength="3333" clip-path="url(#z22170c14)" d="M 257,787 379,765 413,781 391,874"/>
<path pathLength="3333" clip-path="url(#z22170c15)" d="M 281,919 436,894"/>
<path pathLength="3333" clip-path="url(#z22170c16)" d="M 525,769 559,806 587,944"/>
<path pathLength="3333" clip-path="url(#z22170c17)" d="M 567,767 716,745 743,760 758,780 718,864"/>
<path pathLength="3333" clip-path="url(#z22170c18)" d="M 602,892 777,885"/>
</svg>