<!--
AnimCJK 2016-2017 Copyright Francois Mizessyn, http://gooo.free.fr/animCJK/
Derived from:
    MakeMeAHanzi project - https://github.com/skishore/makemeahanzi
    Arphic PL KaitiM GB - https://apps.ubuntu.com/cat/applications/precise/fonts-arphic-gkai00mp/
    Arphic PL UKai - https://apps.ubuntu.com/cat/applications/fonts-arphic-ukai/
You can redistribute and/or modify this file under the terms of the Arphic Public License
as published by Arphic Technology Co., Ltd.
You should have received a copy of this license (the directory "APL") along with this file;
if not, see http://ftp.gnu.org/non-gnu/chinese-fonts-truetype/LICENSE.
-->
<svg id="z22199" class="acjk" version="1.1" viewBox="0 0 1024 1024" xmlns="http://www.w3.org/2000/svg" xmlns:xlink="http://www.w3.org/1999/xlink">
<style>
<![CDATA[
	@keyframes z22199k {
		from {
			stroke:#c00;
			stroke-dashoffset:3000;
		}
		75% {
			stroke:#c00;
			stroke-dashoffset:0;
		}
		to {
			stroke:#000;
		}
	}
	#z22199 path[clip-path] {
		animation:z22199k 1s linear both;
		stroke-dasharray:3000;
		stroke-width:128;
		stroke-linecap:round;
		fill:none;
	}
	#z22199 path[clip-path="url(#z22199c1)"] {animation-delay:1s;}
	#z22199 path[clip-path="url(#z22199c2)"] {animation-delay:2s;}
	#z22199 path[clip-path="url(#z22199c3)"] {animation-delay:3s;}
	#z22199 path[clip-path="url(#z22199c4)"] {animation-delay:4s;}
	#z22199 path[clip-path="url(#z22199c5)"] {animation-delay:5s;}
	#z22199 path[clip-path="url(#z22199c6)"] {animation-delay:6s;}
	#z22199 path[clip-path="url(#z22199c7)"] {animation-delay:7s;}
	#z22199 path[clip-path="url(#z22199c8)"] {animation-delay:8s;}
	#z22199 path[clip-path="url(#z22199c9)"] {animation-delay:9s;}
	#z22199 path[clip-path="url(#z22199c10)"] {animation-delay:10s;}
	#z22199 path[clip-path="url(#z22199c11)"] {animation-delay:11s;}
	#z22199 path[clip-path="url(#z22199c12)"] {animation-delay:12s;}
	#z22199 path[clip-path="url(#z22199c13)"] {animation-delay:13s;}
	#z22199 path[clip-path="url(#z22199c14)"] {animation-delay:14s;}
	#z22199 path[clip-path="url(#z22199c15)"] {animation-delay:15s;}
	#z22199 path[clip-path="url(#z22199c16)"] {animation-delay:16s;}
	#z22199 path[clip-path="url(#z22199c17)"] {animation-delay:17s;}
	#z22199 path[clip-path="url(#z22199c18)"] {animation-delay:18s;}
	#z22199 path[clip-path="url(#z22199c19)"] {animation-delay:19s;}
	#z22199 path[clip-path="url(#z22199c20)"] {animation-delay:20s;}
	#z22199 path {fill:#ccc;}
]]>
</style>
<g transform="scale(1,-1) translate(0,-900)">
	<path id="z22199d1" d="M139 555Q129 562 95 568Q83 571 81 566Q75 562 83 547Q111 487 126 391Q129 361 146 342Q162 323 166 337Q172 353 169 381L164 410Q148 495 144 527L139 555Z"/>
	<path id="z22199d2" d="M286 427Q299 506 321 532Q342 557 319 569Q300 579 274 595Q256 604 239 593Q217 578 188 569Q166 562 139 555L144 527Q148 528 153 530Q190 539 220 546Q241 550 246 542Q253 536 249 502Q245 468 239 429L286 427Z"/>
	<path id="z22199d3" d="M169 381Q173 381 181 382Q218 391 298 398Q307 399 308 406Q308 413 286 427L239 429Q196 417 164 410L169 381Z"/>
	<path id="z22199d4" d="M539 816Q563 798 588 776Q601 766 616 767Q625 768 629 780Q633 793 622 821Q616 837 589 847Q520 865 512 859Q508 855 510 843Q514 833 539 816Z"/>
	<path id="z22199d5" d="M388 712Q363 709 382 695Q413 673 434 678Q602 714 748 728Q757 727 765 738Q766 748 747 757Q713 775 634 751Q612 748 592 742Q565 738 388 712Z"/>
	<path id="z22199d6" d="M399 623Q390 627 364 631Q355 632 352 629Q348 625 355 612Q373 582 386 533Q389 518 399 509Q414 493 417 505Q418 512 419 524L416 544Q409 589 408 603L399 623Z"/>
	<path id="z22199d7" d="M534 561Q544 597 556 608Q572 627 555 637Q507 661 505 661Q499 661 492 657Q473 644 399 623L408 603Q420 609 476 619Q494 623 498 616Q502 615 500 596Q497 580 494 560L534 561Z"/>
	<path id="z22199d8" d="M419 524Q426 521 442 522Q475 529 547 534Q554 535 556 541Q556 547 534 561L494 560Q451 550 418 545Q415 545 416 544L419 524Z"/>
	<path id="z22199d9" d="M624 670Q617 674 589 679Q580 682 578 678Q574 674 580 662Q596 631 608 578Q609 562 620 552Q633 536 637 548Q638 554 639 562L637 586Q630 634 630 650L624 670Z"/>
	<path id="z22199d10" d="M762 597Q775 639 790 650Q806 668 790 679Q777 688 757 701Q744 710 729 702Q698 681 624 670L630 650Q637 650 647 652Q728 670 733 662Q736 659 724 604L762 597Z"/>
	<path id="z22199d11" d="M639 562Q640 562 643 561Q650 560 662 561Q696 568 770 572Q779 573 779 580Q779 586 762 597L724 604Q720 604 718 603Q672 591 637 586L639 562Z"/>
	<path id="z22199d12" d="M659 455Q677 459 699 461Q754 471 762 479Q769 485 766 491Q762 501 739 507Q711 514 670 497L615 482Q564 475 511 461L457 455Q429 454 399 451Q371 448 391 435Q418 416 463 423Q464 424 466 423L509 430Q560 440 615 448L659 455Z"/>
	<path id="z22199d13" d="M647 367Q687 374 727 379Q748 382 740 393Q731 406 709 412Q690 416 652 407L613 399Q559 390 509 379L472 373Q430 367 391 359Q376 356 394 342Q410 330 444 336Q459 339 475 341L510 346Q562 356 612 362L647 367Z"/>
	<path id="z22199d14" d="M511 461Q511 474 502 482Q484 497 462 504Q452 508 444 503Q438 499 443 486Q450 471 457 455L466 423Q467 407 472 373L475 341Q476 317 480 284L512 289Q511 320 510 346L509 379Q509 404 509 430L511 461Z"/>
	<path id="z22199d15" d="M638 312Q642 340 647 367L652 407Q655 431 659 455L670 497Q671 501 673 503Q676 510 662 522Q638 537 621 541Q611 545 604 539Q598 533 603 523Q613 505 615 482L615 448Q614 426 613 399L612 362Q609 337 607 306L638 312Z"/>
	<path id="z22199d16" d="M511 261Q605 292 844 292Q862 292 867 300Q871 310 858 320Q807 356 750 335Q701 326 638 312L607 306Q589 305 572 300Q542 296 512 289L480 284Q401 274 314 259Q296 256 310 243Q337 219 367 228Q410 241 462 252L511 261Z"/>
	<path id="z22199d17" d="M530 245Q527 255 511 261L462 252Q426 170 241 50Q222 40 245 40Q297 40 431 141L456 163Q478 191 522 224L530 245Z"/>
	<path id="z22199d18" d="M431 141Q452 93 440 59Q436 34 425 20Q413 2 420 -17Q429 -45 444 -55Q453 -62 464 -46Q492 -15 584 65Q600 77 602 83Q603 93 585 85Q495 40 486 45Q479 49 480 69Q483 109 486 120Q490 136 478 147Q466 159 456 163L431 141Z"/>
	<path id="z22199d19" d="M668 150Q732 190 766 207Q782 210 778 220Q774 233 758 250Q742 266 723 268Q711 268 711 252Q712 234 653 161L668 150Z"/>
	<path id="z22199d20" d="M653 161Q617 189 578 226Q559 244 530 245L522 224Q546 218 644 117Q770 -12 831 -7Q837 -4 929 20Q941 23 951 29Q957 36 946 43Q933 49 823 71Q751 89 668 150L653 161Z"/>
	<defs>
		<clipPath id="z22199c1"><use xlink:href="#z22199d1"/></clipPath>
		<clipPath id="z22199c2"><use xlink:href="#z22199d2"/></clipPath>
		<clipPath id="z22199c3"><use xlink:href="#z22199d3"/></clipPath>
		<clipPath id="z22199c4"><use xlink:href="#z22199d4"/></clipPath>
		<clipPath id="z22199c5"><use xlink:href="#z22199d5"/></clipPath>
		<clipPath id="z22199c6"><use xlink:href="#z22199d6"/></clipPath>
		<clipPath id="z22199c7"><use xlink:href="#z22199d7"/></clipPath>
		<clipPath id="z22199c8"><use xlink:href="#z22199d8"/></clipPath>
		<clipPath id="z22199c9"><use xlink:href="#z22199d9"/></clipPath>
		<clipPath id="z22199c10"><use xlink:href="#z22199d10"/></clipPath>
		<clipPath id="z22199c11"><use xlink:href="#z22199d11"/></clipPath>
		<clipPath id="z22199c12"><use xlink:href="#z22199d12"/></clipPath>
		<clipPath id="z22199c13"><use xlink:href="#z22199d13"/></clipPath>
		<clipPath id="z22199c14"><use xlink:href="#z22199d14"/></clipPath>
		<clipPath id="z22199c15"><use xlink:href="#z22199d15"/></clipPath>
		<clipPath id="z22199c16"><use xlink:href="#z22199d16"/></clipPath>
		<clipPath id="z22199c17"><use xlink:href="#z22199d17"/></clipPath>
		<clipPath id="z22199c18"><use xlink:href="#z22199d18"/></clipPath>
		<clipPath id="z22199c19"><use xlink:href="#z22199d19"/></clipPath>
		<clipPath id="z22199c20"><use xlink:href="#z22199d20"/></clipPath>
	</defs>
	<path pathLength="2999" clip-path="url(#z22199c1)" d="M87 560L118 531L156 337"/>
	<path pathLength="2999" clip-path="url(#z22199c2)" d="M147 534L247 572L285 552L256 429"/>
	<path pathLength="2999" clip-path="url(#z22199c3)" d="M170 406L302 410"/>
	<path pathLength="2999" clip-path="url(#z22199c4)" d="M518 851L585 818L616 774"/>
	<path pathLength="2999" clip-path="url(#z22199c5)" d="M381 705L760 738"/>
	<path pathLength="2999" clip-path="url(#z22199c6)" d="M359 622L386 599L407 505"/>
	<path pathLength="2999" clip-path="url(#z22199c7)" d="M406 621L494 640L527 625L507 562"/>
	<path pathLength="2999" clip-path="url(#z22199c8)" d="M423 538L549 541"/>
	<path pathLength="2999" clip-path="url(#z22199c9)" d="M586 671L608 651L627 551"/>
	<path pathLength="2999" clip-path="url(#z22199c10)" d="M632 665L748 679L765 666L744 601"/>
	<path pathLength="2999" clip-path="url(#z22199c11)" d="M644 578L773 580"/>
	<path pathLength="2999" clip-path="url(#z22199c12)" d="M391 444L761 492"/>
	<path pathLength="2999" clip-path="url(#z22199c13)" d="M393 352L737 390"/>
	<path pathLength="2999" clip-path="url(#z22199c14)" d="M447 499L483 462L492 287"/>
	<path pathLength="2999" clip-path="url(#z22199c15)" d="M607 536L642 503L616 310"/>
	<path pathLength="2999" clip-path="url(#z22199c16)" d="M311 251L763 315L862 305"/>
	<path pathLength="2999" clip-path="url(#z22199c17)" d="M525 243L241 45"/>
	<path pathLength="2999" clip-path="url(#z22199c18)" d="M453 155L469 -6L594 83"/>
	<path pathLength="2999" clip-path="url(#z22199c19)" d="M773 219L726 228L663 155"/>
	<path pathLength="2999" clip-path="url(#z22199c20)" d="M530 227L775 49L947 35"/>
</g>
</svg>