<!--
AnimCJK 2016-2017 Copyright Francois Mizessyn, http://gooo.free.fr/animCJK/
Derived from:
    MakeMeAHanzi project - https://github.com/skishore/makemeahanzi
    Arphic PL KaitiM GB - https://apps.ubuntu.com/cat/applications/precise/fonts-arphic-gkai00mp/
    Arphic PL UKai - https://apps.ubuntu.com/cat/applications/fonts-arphic-ukai/
You can redistribute and/or modify this file under the terms of the Arphic Public License
as published by Arphic Technology Co., Ltd.
You should have received a copy of this license (the directory "APL") along with this file;
if not, see http://ftp.gnu.org/non-gnu/chinese-fonts-truetype/LICENSE.
-->
<svg id="z22218" class="acjk" version="1.1" viewBox="0 0 1024 1024" xmlns="http://www.w3.org/2000/svg" xmlns:xlink="http://www.w3.org/1999/xlink">
<style>
<![CDATA[
	@keyframes z22218k {
		from {
			stroke:#c00;
			stroke-dashoffset:3000;
		}
		75% {
			stroke:#c00;
			stroke-dashoffset:0;
		}
		to {
			stroke:#000;
		}
	}
	#z22218 path[clip-path] {
		animation:z22218k 1s linear both;
		stroke-dasharray:3000;
		stroke-width:128;
		stroke-linecap:round;
		fill:none;
	}
	#z22218 path[clip-path="url(#z22218c1)"] {animation-delay:1s;}
	#z22218 path[clip-path="url(#z22218c2)"] {animation-delay:2s;}
	#z22218 path[clip-path="url(#z22218c3)"] {animation-delay:3s;}
	#z22218 path[clip-path="url(#z22218c4)"] {animation-delay:4s;}
	#z22218 path[clip-path="url(#z22218c5)"] {animation-delay:5s;}
	#z22218 path[clip-path="url(#z22218c6)"] {animation-delay:6s;}
	#z22218 path[clip-path="url(#z22218c7)"] {animation-delay:7s;}
	#z22218 path[clip-path="url(#z22218c8)"] {animation-delay:8s;}
	#z22218 path[clip-path="url(#z22218c9)"] {animation-delay:9s;}
	#z22218 path[clip-path="url(#z22218c10)"] {animation-delay:10s;}
	#z22218 path[clip-path="url(#z22218c11)"] {animation-delay:11s;}
	#z22218 path[clip-path="url(#z22218c12)"] {animation-delay:12s;}
	#z22218 path[clip-path="url(#z22218c13)"] {animation-delay:13s;}
	#z22218 path[clip-path="url(#z22218c14)"] {animation-delay:14s;}
	#z22218 path[clip-path="url(#z22218c15)"] {animation-delay:15s;}
	#z22218 path[clip-path="url(#z22218c16)"] {animation-delay:16s;}
	#z22218 path[clip-path="url(#z22218c17)"] {animation-delay:17s;}
	#z22218 path[clip-path="url(#z22218c18)"] {animation-delay:18s;}
	#z22218 path[clip-path="url(#z22218c19)"] {animation-delay:19s;}
	#z22218 path[clip-path="url(#z22218c20)"] {animation-delay:20s;}
	#z22218 path[clip-path="url(#z22218c21)"] {animation-delay:21s;}
	#z22218 path[clip-path="url(#z22218c22)"] {animation-delay:22s;}
	#z22218 path {fill:#ccc;}
]]>
</style>
<g transform="scale(1,-1) translate(0,-900)">
	<path id="z22218d1" d="M517 775Q653 802 658 805Q665 812 662 818Q656 828 633 835Q612 841 524 814L464 801Q413 794 356 789Q326 786 347 771Q377 753 438 763Q451 766 467 767L517 775Z"/>
	<path id="z22218d2" d="M348 705Q338 709 312 710Q302 711 300 707Q296 701 304 690Q323 665 340 620Q344 607 354 599Q370 584 373 597Q374 601 374 608L370 628Q363 661 360 676L348 705Z"/>
	<path id="z22218d3" d="M663 667Q678 689 697 697Q715 713 694 729Q675 745 655 759Q642 771 594 753Q519 738 515 737L468 728Q443 725 418 718Q376 711 348 705L360 676Q372 689 453 700Q456 703 469 703L513 710Q556 717 616 724Q628 725 632 720Q633 713 614 671L663 667Z"/>
	<path id="z22218d4" d="M508 625Q590 640 662 649Q678 650 672 659Q669 663 663 667L614 671Q595 671 510 652L471 645Q419 638 370 628L374 608Q383 608 471 619L508 625Z"/>
	<path id="z22218d5" d="M506 589Q507 608 508 625L510 652Q511 682 513 710L515 737Q516 758 517 775L524 814Q525 821 528 828Q531 838 514 849Q486 864 466 867Q453 870 446 863Q440 856 447 844Q462 822 464 801L467 767Q468 748 468 728L469 703Q470 675 471 645L471 619Q471 603 471 584L506 589Z"/>
	<path id="z22218d6" d="M219 549Q212 561 206 566Q191 578 190 557Q190 523 150 485Q132 464 155 422Q167 401 183 423Q183 426 222 515L219 549Z"/>
	<path id="z22218d7" d="M222 515Q241 508 262 513Q376 549 691 588Q761 595 781 591Q797 587 797 580Q797 576 789 563Q747 497 753 492Q759 488 775 497Q830 530 874 538Q910 548 910 556Q909 565 846 618Q827 634 805 631Q510 591 506 589L471 584Q345 568 219 549L222 515Z"/>
	<path id="z22218d8" d="M318 492Q311 496 286 499Q279 500 276 497Q272 493 278 482Q294 454 308 406Q311 393 320 383Q333 370 336 380Q337 387 337 398L334 420Q327 456 325 471L318 492Z"/>
	<path id="z22218d9" d="M449 432Q462 469 474 478Q490 497 474 508Q426 532 423 532Q417 532 412 528Q385 510 318 492L325 471Q355 481 395 490Q411 494 418 489Q422 485 411 436L449 432Z"/>
	<path id="z22218d10" d="M337 398Q343 398 351 399Q384 406 456 412Q463 413 464 419Q464 423 449 432L411 436Q368 426 334 420L337 398Z"/>
	<path id="z22218d11" d="M547 419Q547 420 548 420Q549 424 550 431L549 453Q545 489 544 503L536 523Q529 527 506 531Q499 532 496 530Q492 526 498 515Q511 490 522 445Q525 432 533 424Q533 423 534 422L547 419Z"/>
	<path id="z22218d12" d="M675 466Q685 499 696 508Q712 527 695 537Q647 561 646 561Q639 561 633 557Q609 542 536 523L544 503Q553 506 615 520Q631 524 637 518Q638 517 635 470L675 466Z"/>
	<path id="z22218d13" d="M550 431Q551 431 553 430Q560 429 570 430Q606 437 683 442Q690 443 691 449Q691 455 675 466L635 470Q584 458 549 453L550 431Z"/>
	<path id="z22218d14" d="M574 342Q593 346 614 347Q672 356 681 363Q688 369 685 375Q681 385 659 392Q634 398 586 383L531 371Q503 367 474 361Q459 360 445 357L394 351Q348 350 300 347Q272 346 291 330Q321 309 365 316Q381 320 401 320L442 325Q485 332 530 336L574 342Z"/>
	<path id="z22218d15" d="M562 273Q652 289 657 293Q664 297 661 304Q657 313 637 319Q610 326 569 311L529 302Q496 298 442 286L405 281Q363 280 319 277Q294 276 311 262Q333 247 408 252L442 256Q482 263 527 268L562 273Z"/>
	<path id="z22218d16" d="M445 357Q444 370 436 376Q420 389 399 396Q389 400 382 395Q376 391 381 380Q388 367 394 351L401 320Q402 307 405 281L408 252Q409 236 412 211L443 216Q442 238 442 256L442 286Q442 305 442 325L445 357Z"/>
	<path id="z22218d17" d="M555 232Q558 253 562 273L569 311Q570 327 574 342L586 383Q586 384 587 384Q590 391 577 403Q561 413 547 419L534 422Q527 425 522 420Q516 416 521 404Q530 389 531 371L530 336Q529 320 529 302L527 268Q526 249 524 227L555 232Z"/>
	<path id="z22218d18" d="M515 195Q591 202 697 201Q749 198 758 207Q762 217 749 229Q700 265 648 248Q608 242 555 232L524 227Q482 226 443 216L412 211Q324 202 226 190Q210 189 222 174Q232 164 248 159Q264 155 278 158Q321 170 368 176L395 181Q434 188 485 192L515 195Z"/>
	<path id="z22218d19" d="M368 176Q347 133 260 68Q223 40 109 -15Q91 -24 112 -25Q193 -28 353 87Q354 91 380 109L410 132Q428 150 428 153Q428 163 409 174Q402 178 395 181L368 176Z"/>
	<path id="z22218d20" d="M380 109Q404 40 370 -8Q348 -41 383 -78Q384 -79 388 -83Q397 -90 408 -74Q439 -40 541 44Q557 57 558 63Q559 73 541 65Q438 14 431 17Q424 21 425 40Q429 82 433 92Q437 108 426 118Q417 127 410 132L380 109Z"/>
	<path id="z22218d21" d="M653 96Q666 111 711 120Q714 123 720 123Q736 127 732 141Q725 154 708 169Q693 182 684 181Q674 182 675 172Q675 154 640 123Q633 119 627 111L653 96Z"/>
	<path id="z22218d22" d="M627 111Q594 133 561 158Q533 180 515 195L485 192Q704 -27 753 -37Q837 -37 903 -21Q921 -18 921 -13Q922 -6 909 -2Q860 14 800 31Q734 50 684 80Q669 87 653 96L627 111Z"/>
	<defs>
		<clipPath id="z22218c1"><use xlink:href="#z22218d1"/></clipPath>
		<clipPath id="z22218c2"><use xlink:href="#z22218d2"/></clipPath>
		<clipPath id="z22218c3"><use xlink:href="#z22218d3"/></clipPath>
		<clipPath id="z22218c4"><use xlink:href="#z22218d4"/></clipPath>
		<clipPath id="z22218c5"><use xlink:href="#z22218d5"/></clipPath>
		<clipPath id="z22218c6"><use xlink:href="#z22218d6"/></clipPath>
		<clipPath id="z22218c7"><use xlink:href="#z22218d7"/></clipPath>
		<clipPath id="z22218c8"><use xlink:href="#z22218d8"/></clipPath>
		<clipPath id="z22218c9"><use xlink:href="#z22218d9"/></clipPath>
		<clipPath id="z22218c10"><use xlink:href="#z22218d10"/></clipPath>
		<clipPath id="z22218c11"><use xlink:href="#z22218d11"/></clipPath>
		<clipPath id="z22218c12"><use xlink:href="#z22218d12"/></clipPath>
		<clipPath id="z22218c13"><use xlink:href="#z22218d13"/></clipPath>
		<clipPath id="z22218c14"><use xlink:href="#z22218d14"/></clipPath>
		<clipPath id="z22218c15"><use xlink:href="#z22218d15"/></clipPath>
		<clipPath id="z22218c16"><use xlink:href="#z22218d16"/></clipPath>
		<clipPath id="z22218c17"><use xlink:href="#z22218d17"/></clipPath>
		<clipPath id="z22218c18"><use xlink:href="#z22218d18"/></clipPath>
		<clipPath id="z22218c19"><use xlink:href="#z22218d19"/></clipPath>
		<clipPath id="z22218c20"><use xlink:href="#z22218d20"/></clipPath>
		<clipPath id="z22218c21"><use xlink:href="#z22218d21"/></clipPath>
		<clipPath id="z22218c22"><use xlink:href="#z22218d22"/></clipPath>
	</defs>
	<path pathLength="2999" clip-path="url(#z22218c1)" d="M347 780L653 814"/>
	<path pathLength="2999" clip-path="url(#z22218c2)" d="M307 701L333 685L366 599"/>
	<path pathLength="2999" clip-path="url(#z22218c3)" d="M356 701L635 744L667 709L626 672"/>
	<path pathLength="2999" clip-path="url(#z22218c4)" d="M378 625L667 659"/>
	<path pathLength="2999" clip-path="url(#z22218c5)" d="M450 858L495 820L482 590"/>
	<path pathLength="2999" clip-path="url(#z22218c6)" d="M198 560L168 416"/>
	<path pathLength="2999" clip-path="url(#z22218c7)" d="M227 542L787 610L832 592L855 552L760 496"/>
	<path pathLength="2999" clip-path="url(#z22218c8)" d="M283 491L330 383"/>
	<path pathLength="2999" clip-path="url(#z22218c9)" d="M325 490L443 500L424 438"/>
	<path pathLength="2999" clip-path="url(#z22218c10)" d="M342 415L456 419"/>
	<path pathLength="2999" clip-path="url(#z22218c11)" d="M504 523L540 426"/>
	<path pathLength="2999" clip-path="url(#z22218c12)" d="M545 518L646 537L670 520L658 468"/>
	<path pathLength="2999" clip-path="url(#z22218c13)" d="M558 437L684 453"/>
	<path pathLength="2999" clip-path="url(#z22218c14)" d="M289 339L679 375"/>
	<path pathLength="2999" clip-path="url(#z22218c15)" d="M312 272L410 267L657 305"/>
	<path pathLength="2999" clip-path="url(#z22218c16)" d="M387 388L419 355L423 214"/>
	<path pathLength="2999" clip-path="url(#z22218c17)" d="M527 412L558 379L536 230"/>
	<path pathLength="2999" clip-path="url(#z22218c18)" d="M225 183L673 227L753 215"/>
	<path pathLength="2999" clip-path="url(#z22218c19)" d="M423 153L386 151L270 53L112 -21"/>
	<path pathLength="2999" clip-path="url(#z22218c20)" d="M410 125L414 -34L552 62"/>
	<path pathLength="2999" clip-path="url(#z22218c21)" d="M684 174L694 134L634 112"/>
	<path pathLength="2999" clip-path="url(#z22218c22)" d="M494 191L742 10L913 -10"/>
</g>
</svg>