<!--
AnimCJK 2016-2019 Copyright Francois Mizessyn - https://github.com/parsimonhi/animCJK
Derived from:
    MakeMeAHanzi project - https://github.com/skishore/makemeahanzi
    Arphic PL KaitiM GB font
    Arphic PL UKai font
You can redistribute and/or modify this file under the terms of the Arphic Public License
as published by Arphic Technology Co., Ltd.
You should have received a copy of this license along with this file.
If not, see http://ftp.gnu.org/non-gnu/chinese-fonts-truetype/LICENSE.
-->
<svg id="z22234" class="acjk" version="1.1" viewBox="0 0 1024 1024" xmlns="http://www.w3.org/2000/svg" xmlns:xlink="http://www.w3.org/1999/xlink">
<style>
<![CDATA[
@keyframes zk {
	to {
		stroke-dashoffset:0;
	}
}
svg.acjk path[clip-path] {
	--t:0.8s;
	animation:zk var(--t) linear forwards var(--d);
	stroke-dasharray:3337;
	stroke-dashoffset:3339;
	stroke-width:128;
	stroke-linecap:round;
	fill:none;
	stroke:#000;
}
svg.acjk path[id] {fill:#ccc;}
]]>
</style>
<path id="z22234d1" d="M268 177C240 159 219 150 208 156C201 158 202 166 206 177C222 228 233 286 235 351C239 523 227 658 203 756C191 800 199 839 227 874C235 884 243 885 252 875C262 863 265 847 267 829C269 809 269 809 270 799C272 776 273 749 274 717C280 393 283 238 289 220C292 204 281 187 268 177Z"/>
<path id="z22234d2" d="M731 815C749 837 765 862 779 891C786 906 794 914 805 914C813 913 819 904 828 891C848 855 848 777 840 653C822 384 830 238 846 215C847 213 848 211 851 209C859 200 863 193 863 187C862 178 851 165 829 150C781 117 767 114 728 123C687 132 461 155 340 174C321 176 293 178 268 177C252 177 273 223 289 220C297 219 306 218 318 215C326 212 371 204 453 193C555 178 644 169 722 166C738 165 747 169 753 177C767 196 775 302 775 498C774 616 777 690 778 719C778 740 779 769 770 784C765 791 749 796 740 793C732 791 726 809 731 815Z"/>
<path id="z22234d3" d="M518 465C519 461 535 419 566 341C577 312 585 303 584 295C581 279 561 267 544 253C533 244 523 239 514 241C505 242 501 250 505 260C517 298 505 389 447 501C422 547 378 603 332 652C328 655 323 658 322 663C319 669 321 673 328 673C348 673 407 629 451 576C484 535 500 501 510 482C515 471 515 471 518 465Z"/>
<path id="z22234d4" d="M510 482C529 502 613 571 668 626C678 636 686 644 695 646C699 647 704 643 709 638C715 630 712 614 706 590C696 554 635 512 518 465C512 463 506 478 510 482Z"/>
<path id="z22234d5" d="M267 829C275 837 289 841 308 839C396 827 537 819 731 815C739 815 745 799 740 793C735 786 726 777 713 768C700 759 681 757 657 761C514 783 325 796 270 799C260 799 259 823 267 829Z"/>
<defs>
	<clipPath id="z22234c1"><use xlink:href="#z22234d1"/></clipPath>
	<clipPath id="z22234c2"><use xlink:href="#z22234d2"/></clipPath>
	<clipPath id="z22234c3"><use xlink:href="#z22234d3"/></clipPath>
	<clipPath id="z22234c4"><use xlink:href="#z22234d4"/></clipPath>
	<clipPath id="z22234c5"><use xlink:href="#z22234d5"/></clipPath>
</defs>
<path style="--d:1s;" pathLength="3333" clip-path="url(#z22234c1)" d="M212 164L255 230L238 877"/>
<path style="--d:2s;" pathLength="3333" clip-path="url(#z22234c2)" d="M277 181L316 196L748 143L799 177L812 770L790 861L736 803"/>
<path style="--d:3s;" pathLength="3333" clip-path="url(#z22234c3)" d="M513 247L545 299L481 482L418 583L329 665"/>
<path style="--d:4s;" pathLength="3333" clip-path="url(#z22234c4)" d="M514 479L656 571L697 640"/>
<path style="--d:5s;" pathLength="3333" clip-path="url(#z22234c5)" d="M271 824L735 795"/>
</svg>