<!--
AnimCJK 2016-2018 Copyright Francois Mizessyn, https://github.com/parsimonhi/animCJK
Derived from:
    MakeMeAHanzi project - https://github.com/skishore/makemeahanzi
    Arphic PL KaitiM GB - https://apps.ubuntu.com/cat/applications/precise/fonts-arphic-gkai00mp/
    Arphic PL UKai - https://apps.ubuntu.com/cat/applications/fonts-arphic-ukai/
You can redistribute and/or modify this file under the terms of the Arphic Public License
as published by Arphic Technology Co., Ltd.
You should have received a copy of this license (the directory "APL") along with this file;
if not, see http://ftp.gnu.org/non-gnu/chinese-fonts-truetype/LICENSE.
-->
<svg id="z22238" class="acjk" version="1.1" viewBox="0 0 1024 1024" xmlns="http://www.w3.org/2000/svg" xmlns:xlink="http://www.w3.org/1999/xlink">
<style>
<![CDATA[
@keyframes z22238k {
	from {
		stroke:#c00;
		stroke-dashoffset:3334;
	}
	75% {
		stroke:#c00;
		stroke-dashoffset:0;
	}
	to {
		stroke:#000;
	}
}
#z22238 path[clip-path] {
	animation:z22238k 1s linear both;
	stroke-dasharray:3334;
	stroke-width:128;
	stroke-linecap:round;
	fill:none;
}
#z22238 path[clip-path="url(#z22238c1)"] {animation-delay:1s;}
#z22238 path[clip-path="url(#z22238c2)"] {animation-delay:2s;}
#z22238 path[clip-path="url(#z22238c3)"] {animation-delay:3s;}
#z22238 path[clip-path="url(#z22238c4)"] {animation-delay:4s;}
#z22238 path[clip-path="url(#z22238c5)"] {animation-delay:5s;}
#z22238 path[clip-path="url(#z22238c6)"] {animation-delay:6s;}
#z22238 path {fill:#ccc;}
]]>
</style>
<path id="z22238d1" d="M201 250Q177 237 153 230Q143 226 137 233Q127 240 139 255Q211 384 208 671Q209 746 256 787Q257 787 260 789Q282 796 284 756Q284 753 284 751L281 710Q278 688 273 666Q243 402 242 301L201 250 Z"/>
<path id="z22238d2" d="M700 721Q712 749 734 794Q744 813 755 812Q773 809 783 780Q832 680 837 545Q846 461 854 364Q858 304 886 268Q907 243 891 227Q864 202 807 177Q783 165 744 180Q626 216 492 234Q374 247 201 250L242 301Q260 292 706 241Q757 234 776 258Q789 280 789 304Q788 482 752 655Q748 686 736 688Q733 689 727 688L700 721 Z"/>
<path id="z22238d3" d="M416 405Q406 398 369 392Q359 389 355 394Q349 400 357 415Q382 466 399 551Q402 576 417 593Q433 614 438 599Q441 592 441 582L439 549Q439 546 439 544Q426 468 422 437L416 405 Z"/>
<path id="z22238d4" d="M614 537Q636 465 660 445Q685 418 662 402Q641 389 613 367Q594 354 572 366Q524 390 416 405L422 437Q467 430 538 420Q569 416 575 428Q582 434 575 463Q568 493 561 526L614 537 Z"/>
<path id="z22238d5" d="M441 582Q448 583 459 581Q510 571 619 566Q629 565 631 556Q631 549 614 537L561 526Q558 525 555 526Q491 541 439 549L441 582 Z"/>
<path id="z22238d6" d="M284 751Q293 752 304 751Q431 729 700 721L727 688Q694 655 625 671Q435 701 281 710L284 751 Z"/>
<defs>
	<clipPath id="z22238c1"><use xlink:href="#z22238d1"/></clipPath>
	<clipPath id="z22238c2"><use xlink:href="#z22238d2"/></clipPath>
	<clipPath id="z22238c3"><use xlink:href="#z22238d3"/></clipPath>
	<clipPath id="z22238c4"><use xlink:href="#z22238d4"/></clipPath>
	<clipPath id="z22238c5"><use xlink:href="#z22238d5"/></clipPath>
	<clipPath id="z22238c6"><use xlink:href="#z22238d6"/></clipPath>
</defs>
<path pathLength="3333" clip-path="url(#z22238c1)" d="M141 240L205 314L268 784"/>
<path pathLength="3333" clip-path="url(#z22238c2)" d="M210 252L259 274L777 209L844 251L794 626L741 802"/>
<path pathLength="3333" clip-path="url(#z22238c3)" d="M360 401L392 424L426 595"/>
<path pathLength="3333" clip-path="url(#z22238c4)" d="M425 411L603 403L625 429L579 529"/>
<path pathLength="3333" clip-path="url(#z22238c5)" d="M449 574L548 548L625 554"/>
<path pathLength="3333" clip-path="url(#z22238c6)" d="M288 716L314 729L719 690"/>
</svg>