<!--
AnimCJK 2016-2019 Copyright Francois Mizessyn - https://github.com/parsimonhi/animCJK
Derived from:
    MakeMeAHanzi project - https://github.com/skishore/makemeahanzi
    Arphic PL KaitiM GB font
    Arphic PL UKai font
You can redistribute and/or modify this file under the terms of the Arphic Public License
as published by Arphic Technology Co., Ltd.
You should have received a copy of this license along with this file.
If not, see http://ftp.gnu.org/non-gnu/chinese-fonts-truetype/LICENSE.
-->
<svg id="z22269" class="acjk" version="1.1" viewBox="0 0 1024 1024" xmlns="http://www.w3.org/2000/svg" xmlns:xlink="http://www.w3.org/1999/xlink">
<style>
<![CDATA[
@keyframes zk {
	to {
		stroke-dashoffset:0;
	}
}
svg.acjk path[clip-path] {
	--t:0.8s;
	animation:zk var(--t) linear forwards var(--d);
	stroke-dasharray:3337;
	stroke-dashoffset:3339;
	stroke-width:128;
	stroke-linecap:round;
	fill:none;
	stroke:#000;
}
svg.acjk path[id] {fill:#ccc;}
]]>
</style>
<path id="z22269d1" d="M282 180C274 166 257 155 233 145C224 141 216 139 208 143C201 146 200 153 205 164C227 221 230 252 231 298C233 500 221 648 189 763C176 808 184 848 211 881C219 891 227 892 236 883C243 874 247 865 250 856C255 843 255 828 255 814C257 789 259 758 261 722C273 423 281 257 285 224C287 209 291 192 282 180Z"/>
<path id="z22269d2" d="M751 824C765 838 782 861 799 896C806 911 814 919 825 918C833 917 840 909 847 895C866 856 863 776 852 653C826 377 829 231 841 215C843 210 845 206 849 203C857 193 860 185 860 180C859 171 847 159 825 144C786 118 753 110 724 119C710 122 691 127 668 130C567 142 456 157 335 177C316 180 298 183 282 180C268 177 271 227 285 224C348 211 368 207 450 194C550 177 640 167 718 163C734 162 743 167 749 174C764 192 775 299 782 499C785 619 790 694 792 723C794 763 790 789 780 802C774 812 744 814 751 824Z"/>
<path id="z22269d3" d="M514 346C614 325 665 311 667 310C671 305 673 300 671 295C667 287 655 281 638 277C622 273 581 284 516 302C464 315 417 320 376 326C353 328 351 336 367 347C389 360 424 364 470 355C499 349 499 349 514 346Z"/>
<path id="z22269d4" d="M530 518C540 516 550 513 562 512C588 509 612 505 634 504C640 503 648 502 653 493C655 486 645 480 632 472C614 460 582 461 531 473C499 480 499 480 483 484C461 489 440 491 422 494C403 496 384 498 364 501C346 503 343 510 358 521C380 537 399 542 416 538C436 532 459 530 483 526C514 521 514 521 530 518Z"/>
<path id="z22269d5" d="M525 646C525 600 529 557 530 518C531 488 531 488 531 473C532 402 535 378 535 370C534 358 525 354 514 346C502 337 462 342 470 355C478 367 483 410 483 484C483 512 483 512 483 526C483 568 483 611 483 654C483 668 525 660 525 646Z"/>
<path id="z22269d6" d="M483 654C432 663 377 672 319 682C306 684 304 690 315 701C323 709 334 715 346 718C360 720 372 720 382 718C460 696 556 683 672 683C682 682 691 683 701 683C713 682 721 680 724 674C727 666 723 657 713 650C675 622 634 618 590 632C571 637 549 641 525 646C497 651 497 651 483 654Z"/>
<path id="z22269d7" d="M672 555C688 569 705 584 722 601C728 607 736 610 745 610C751 609 754 606 757 599C759 592 758 581 754 565C751 554 741 543 724 536C686 519 661 512 652 517C648 518 647 524 649 531C650 535 658 543 672 555Z"/>
<path id="z22269d8" d="M250 856C380 843 530 828 751 824C763 824 787 812 780 802C775 795 766 786 753 776C740 766 721 765 697 769C533 793 385 808 255 814C241 814 236 856 250 856Z"/>
<defs>
	<clipPath id="z22269c1"><use xlink:href="#z22269d1"/></clipPath>
	<clipPath id="z22269c2"><use xlink:href="#z22269d2"/></clipPath>
	<clipPath id="z22269c3"><use xlink:href="#z22269d3"/></clipPath>
	<clipPath id="z22269c4"><use xlink:href="#z22269d4"/></clipPath>
	<clipPath id="z22269c5"><use xlink:href="#z22269d5"/></clipPath>
	<clipPath id="z22269c6"><use xlink:href="#z22269d6"/></clipPath>
	<clipPath id="z22269c7"><use xlink:href="#z22269d7"/></clipPath>
	<clipPath id="z22269c8"><use xlink:href="#z22269d8"/></clipPath>
</defs>
<path style="--d:1s;" pathLength="3333" clip-path="url(#z22269c1)" d="M212 148L248 188L256 263L225 885"/>
<path style="--d:2s;" pathLength="3333" clip-path="url(#z22269c2)" d="M291 216L309 197L724 140L798 173L828 759L803 845L817 913"/>
<path style="--d:3s;" pathLength="3333" clip-path="url(#z22269c3)" d="M364 335L665 299"/>
<path style="--d:4s;" pathLength="3333" clip-path="url(#z22269c4)" d="M358 509L648 489"/>
<path style="--d:5s;" pathLength="3333" clip-path="url(#z22269c5)" d="M477 356L507 381L493 651"/>
<path style="--d:6s;" pathLength="3333" clip-path="url(#z22269c6)" d="M314 689L629 654L721 667"/>
<path style="--d:7s;" pathLength="3333" clip-path="url(#z22269c7)" d="M657 525L727 569L741 606"/>
<path style="--d:8s;" pathLength="3333" clip-path="url(#z22269c8)" d="M258 849L288 831L772 801"/>
</svg>