<!--
AnimCJK 2016-2019 Copyright Francois Mizessyn - https://github.com/parsimonhi/animCJK
Derived from:
    MakeMeAHanzi project - https://github.com/skishore/makemeahanzi
    Arphic PL KaitiM GB font
    Arphic PL UKai font
You can redistribute and/or modify this file under the terms of the Arphic Public License
as published by Arphic Technology Co., Ltd.
You should have received a copy of this license along with this file.
If not, see http://ftp.gnu.org/non-gnu/chinese-fonts-truetype/LICENSE.
-->
<svg id="z22282" class="acjk" version="1.1" viewBox="0 0 1024 1024" xmlns="http://www.w3.org/2000/svg" xmlns:xlink="http://www.w3.org/1999/xlink">
<style>
<![CDATA[
@keyframes zk {
	to {
		stroke-dashoffset:0;
	}
}
svg.acjk path[clip-path] {
	--t:0.8s;
	animation:zk var(--t) linear forwards var(--d);
	stroke-dasharray:3337;
	stroke-dashoffset:3339;
	stroke-width:128;
	stroke-linecap:round;
	fill:none;
	stroke:#000;
}
svg.acjk path[id] {fill:#ccc;}
]]>
</style>
<path id="z22282d1" d="M251 168C242 159 227 150 208 141C199 137 190 135 182 140C175 143 176 150 180 161C197 221 205 264 206 288C207 518 192 678 167 771C154 818 162 859 190 893C198 903 207 904 216 895C223 886 229 876 231 865C234 840 234 840 236 828C239 802 239 769 241 730C252 390 260 216 264 209C267 195 262 177 251 168Z"/>
<path id="z22282d2" d="M732 846C740 854 753 874 771 908C778 922 786 930 797 930C805 929 811 921 819 907C839 868 836 786 828 657C808 376 811 218 824 200C826 195 828 191 832 188C840 179 843 172 843 166C842 157 830 145 808 130C769 102 737 94 711 103C698 107 678 110 652 114C545 127 428 143 300 165C283 167 262 169 251 168C237 168 251 214 264 209C304 194 409 176 578 157C620 152 661 148 701 146C717 145 726 150 733 158C747 175 757 287 761 497C763 623 765 701 768 731C770 763 767 786 761 801C757 809 754 813 750 814C747 814 743 814 738 813C727 811 725 837 732 846Z"/>
<path id="z22282d3" d="M520 284C537 280 555 276 577 272C597 268 608 263 611 261C615 256 616 253 614 249C610 243 602 237 587 234C571 230 551 237 525 245C490 254 490 254 473 259C456 263 406 269 386 272C367 274 364 280 378 289C399 303 422 303 475 293C505 287 505 287 520 284Z"/>
<path id="z22282d4" d="M513 364C533 360 555 355 579 351C597 347 608 343 611 341C615 336 616 333 614 329C610 323 602 317 587 314C571 310 548 318 516 327C489 334 489 334 476 337C461 340 414 345 394 348C375 350 373 356 386 365C401 375 432 379 477 371C501 366 501 366 513 364Z"/>
<path id="z22282d5" d="M509 410C509 394 511 378 513 364C515 339 515 339 516 327C517 312 518 298 520 284C523 258 523 258 525 245C526 237 530 226 532 221C533 216 530 209 520 202C503 191 488 185 476 184C468 183 461 184 458 188C453 191 453 198 458 205C467 219 471 237 473 259C474 282 474 282 475 293C475 307 475 321 476 337C477 360 477 360 477 371C477 386 477 416 477 416C477 427 509 421 509 410Z"/>
<path id="z22282d6" d="M477 416C422 426 363 434 301 445C290 446 289 452 298 461C315 477 337 481 363 473C457 443 575 428 718 428C718 428 719 428 720 428C730 428 737 425 740 420C742 413 739 406 730 400C696 377 661 375 623 386C591 394 553 401 509 410C488 414 488 414 477 416Z"/>
<path id="z22282d7" d="M416 660C417 639 419 621 420 607C421 590 421 590 421 581C422 554 422 541 426 529C429 522 430 512 424 507C408 491 387 484 379 486C371 487 371 492 373 499C389 556 381 634 368 699C360 732 357 756 372 777C376 783 379 787 385 784C406 768 412 732 415 679C416 666 416 666 416 660Z"/>
<path id="z22282d8" d="M426 529C434 529 445 526 458 523C519 507 556 502 566 507C573 510 574 520 576 536C581 596 585 651 584 700C583 710 580 715 575 718C568 720 547 719 512 715C505 714 501 716 502 720C502 724 508 727 518 734C541 749 559 767 576 785C584 793 594 797 604 796C610 795 617 784 627 765C637 744 641 724 640 704C636 655 633 608 630 563C628 545 631 528 639 514C644 504 645 496 637 489C626 479 609 472 588 465C575 460 564 461 554 467C545 471 532 477 515 482C474 493 444 501 424 507C417 508 419 529 426 529Z"/>
<path id="z22282d9" d="M420 607C460 599 495 593 525 589C537 587 542 581 537 574C530 565 520 561 507 560C485 557 456 565 421 581C413 584 411 609 420 607Z"/>
<path id="z22282d10" d="M415 679C417 679 456 676 532 668C544 666 549 661 545 654C539 645 529 640 515 638C497 635 464 642 416 660C410 662 409 679 415 679Z"/>
<path id="z22282d11" d="M231 865C237 867 246 868 256 867C356 852 515 845 732 846C743 846 747 820 738 813C732 808 727 803 723 800C711 791 693 790 670 793C509 814 364 825 236 828C224 828 219 863 231 865Z"/>
<defs>
	<clipPath id="z22282c1"><use xlink:href="#z22282d1"/></clipPath>
	<clipPath id="z22282c2"><use xlink:href="#z22282d2"/></clipPath>
	<clipPath id="z22282c3"><use xlink:href="#z22282d3"/></clipPath>
	<clipPath id="z22282c4"><use xlink:href="#z22282d4"/></clipPath>
	<clipPath id="z22282c5"><use xlink:href="#z22282d5"/></clipPath>
	<clipPath id="z22282c6"><use xlink:href="#z22282d6"/></clipPath>
	<clipPath id="z22282c7"><use xlink:href="#z22282d7"/></clipPath>
	<clipPath id="z22282c8"><use xlink:href="#z22282d8"/></clipPath>
	<clipPath id="z22282c9"><use xlink:href="#z22282d9"/></clipPath>
	<clipPath id="z22282c10"><use xlink:href="#z22282d10"/></clipPath>
	<clipPath id="z22282c11"><use xlink:href="#z22282d11"/></clipPath>
</defs>
<path style="--d:1s;" pathLength="3333" clip-path="url(#z22282c1)" d="M186 147L221 186L232 266L203 897"/>
<path style="--d:2s;" pathLength="3333" clip-path="url(#z22282c2)" d="M260 172L294 184L716 123L792 172L801 795L782 876L736 838"/>
<path style="--d:3s;" pathLength="3333" clip-path="url(#z22282c3)" d="M381 281L606 251"/>
<path style="--d:4s;" pathLength="3333" clip-path="url(#z22282c4)" d="M389 357L607 331"/>
<path style="--d:5s;" pathLength="3333" clip-path="url(#z22282c5)" d="M462 193L501 227L487 411"/>
<path style="--d:6s;" pathLength="3333" clip-path="url(#z22282c6)" d="M300 452L633 406L736 415"/>
<path style="--d:7s;" pathLength="3333" clip-path="url(#z22282c7)" d="M380 493L405 531L382 775"/>
<path style="--d:8s;" pathLength="3333" clip-path="url(#z22282c8)" d="M434 521L568 485L607 506L607 730L589 757L509 722"/>
<path style="--d:9s;" pathLength="3333" clip-path="url(#z22282c9)" d="M427 598L534 574"/>
<path style="--d:10s;" pathLength="3333" clip-path="url(#z22282c10)" d="M418 672L542 655"/>
<path style="--d:11s;" pathLength="3333" clip-path="url(#z22282c11)" d="M239 860L732 818"/>
</svg>