<!--
AnimCJK 2016-2019 Copyright Francois Mizessyn - https://github.com/parsimonhi/animCJK
Derived from:
    MakeMeAHanzi project - https://github.com/skishore/makemeahanzi
    Arphic PL KaitiM GB font
    Arphic PL UKai font
You can redistribute and/or modify this file under the terms of the Arphic Public License
as published by Arphic Technology Co., Ltd.
You should have received a copy of this license along with this file.
If not, see http://ftp.gnu.org/non-gnu/chinese-fonts-truetype/LICENSE.
-->
<svg id="z22281" class="acjk" version="1.1" viewBox="0 0 1024 1024" xmlns="http://www.w3.org/2000/svg" xmlns:xlink="http://www.w3.org/1999/xlink">
<style>
<![CDATA[
@keyframes zk {
	to {
		stroke-dashoffset:0;
	}
}
svg.acjk path[clip-path] {
	--t:0.8s;
	animation:zk var(--t) linear forwards var(--d);
	stroke-dasharray:3337;
	stroke-dashoffset:3339;
	stroke-width:128;
	stroke-linecap:round;
	fill:none;
	stroke:#000;
}
svg.acjk path[id] {fill:#ccc;}
]]>
</style>
<path id="z22281d1" d="M249 157Q234 142 209 133Q197 127 184 132Q175 138 182 152Q207 248 209 280Q209 616 175 751Q154 832 195 881Q207 897 220 883Q229 871 233 858C236 833 236 833 238 820Q244 781 244 719Q259 205 264 201C267 186 261 166 249 157Z"/>
<path id="z22281d2" d="M716 826Q740 856 759 896Q769 918 785 918Q798 917 808 895Q839 838 817 651Q799 225 817 202Q818 196 824 193Q836 178 835 170Q835 157 801 134Q737 89 705 105Q684 109 645 116Q497 128 318 155Q284 159 249 157C234 157 249 201 264 201Q277 202 298 196Q311 192 431 174Q581 155 695 150Q720 149 725 162Q750 187 751 493Q754 677 756 721Q760 770 749 789Q745 802 741 802C732 809 709 817 716 826Z"/>
<path id="z22281d3" d="M510 304Q543 295 579 289Q607 282 611 279Q618 272 614 265Q608 256 585 250Q558 244 515 263C481 272 481 272 464 276Q428 282 391 286Q361 290 382 305Q418 324 461 313Q462 312 466 313C495 307 495 307 510 304Z"/>
<path id="z22281d4" d="M503 374Q507 337 510 304C513 277 513 277 515 263Q515 262 516 260Q516 259 526 219Q527 210 513 199Q485 183 467 180Q454 177 448 184Q442 190 448 202Q460 217 464 276C465 301 465 301 466 313Q467 344 468 381C468 393 501 386 503 374Z"/>
<path id="z22281d5" d="M575 400Q620 394 675 393Q721 393 728 384Q732 374 718 364Q667 331 612 350Q566 359 503 374C480 379 480 379 468 381Q381 396 281 413Q265 416 278 429Q305 451 343 440Q437 410 540 403C563 401 563 401 575 400Z"/>
<path id="z22281d6" d="M377 454Q401 505 418 511Q427 514 435 502Q438 493 435 477Q426 453 385 435Q379 432 376 441Q375 445 377 454Z"/>
<path id="z22281d7" d="M536 501Q560 468 570 453Q576 444 585 433Q595 426 590 418Q586 409 575 400C567 392 540 391 540 403Q543 424 520 485Q514 498 513 507C512 515 531 507 536 501Z"/>
<path id="z22281d8" d="M494 546Q521 540 622 526Q629 527 637 517Q638 508 620 499Q598 484 536 501C521 505 521 505 513 507Q504 507 497 510Q473 514 351 533Q329 536 346 550Q373 569 418 559Q433 555 454 553C481 548 481 548 494 546Z"/>
<path id="z22281d9" d="M510 650Q568 641 655 639Q698 639 703 631Q707 621 694 611Q651 581 592 597Q558 604 513 615C480 621 480 621 464 624Q392 636 309 650Q293 653 305 665Q317 675 331 679Q347 683 360 679Q408 663 464 656C495 652 495 652 510 650Z"/>
<path id="z22281d10" d="M503 756Q506 734 510 650C512 627 512 627 513 615Q513 594 519 576Q520 563 511 556Q501 549 494 546C481 541 450 540 454 553Q460 565 464 624C464 645 464 645 464 656Q465 680 465 710Q466 785 475 801C477 806 490 804 492 799Q498 784 503 756Z"/>
<path id="z22281d11" d="M233 858Q237 858 245 858Q396 833 716 826C728 826 749 810 741 802Q708 763 618 781Q552 790 492 799C481 800 481 800 475 801Q348 814 238 820C225 820 220 858 233 858Z"/>
<defs>
	<clipPath id="z22281c1"><use xlink:href="#z22281d1"/></clipPath>
	<clipPath id="z22281c2"><use xlink:href="#z22281d2"/></clipPath>
	<clipPath id="z22281c3"><use xlink:href="#z22281d3"/></clipPath>
	<clipPath id="z22281c4"><use xlink:href="#z22281d4"/></clipPath>
	<clipPath id="z22281c5"><use xlink:href="#z22281d5"/></clipPath>
	<clipPath id="z22281c6"><use xlink:href="#z22281d6"/></clipPath>
	<clipPath id="z22281c7"><use xlink:href="#z22281d7"/></clipPath>
	<clipPath id="z22281c8"><use xlink:href="#z22281d8"/></clipPath>
	<clipPath id="z22281c9"><use xlink:href="#z22281d9"/></clipPath>
	<clipPath id="z22281c10"><use xlink:href="#z22281d10"/></clipPath>
	<clipPath id="z22281c11"><use xlink:href="#z22281d11"/></clipPath>
</defs>
<path style="--d:1s;" pathLength="3333" clip-path="url(#z22281c1)" d="M189 140L220 172L233 261L207 882"/>
<path style="--d:2s;" pathLength="3333" clip-path="url(#z22281c2)" d="M259 164L291 178L716 126L765 153L786 187L782 914"/>
<path style="--d:3s;" pathLength="3333" clip-path="url(#z22281c3)" d="M385 296L608 270"/>
<path style="--d:4s;" pathLength="3333" clip-path="url(#z22281c4)" d="M453 189L492 225L482 378"/>
<path style="--d:5s;" pathLength="3333" clip-path="url(#z22281c5)" d="M279 420L645 368L722 378"/>
<path style="--d:6s;" pathLength="3333" clip-path="url(#z22281c6)" d="M383 442L423 504"/>
<path style="--d:7s;" pathLength="3333" clip-path="url(#z22281c7)" d="M546 411L561 438L520 499"/>
<path style="--d:8s;" pathLength="3333" clip-path="url(#z22281c8)" d="M348 541L629 515"/>
<path style="--d:9s;" pathLength="3333" clip-path="url(#z22281c9)" d="M307 656L607 617L699 625"/>
<path style="--d:10s;" pathLength="3333" clip-path="url(#z22281c10)" d="M462 558L491 589L484 797"/>
<path style="--d:11s;" pathLength="3333" clip-path="url(#z22281c11)" d="M238 852L735 806"/>
</svg>