<!--
AnimCJK 2016-2017 Copyright Francois Mizessyn, http://gooo.free.fr/animCJK/
Derived from:
    MakeMeAHanzi project - https://github.com/skishore/makemeahanzi
    Arphic PL KaitiM GB - https://apps.ubuntu.com/cat/applications/precise/fonts-arphic-gkai00mp/
    Arphic PL UKai - https://apps.ubuntu.com/cat/applications/fonts-arphic-ukai/
You can redistribute and/or modify this file under the terms of the Arphic Public License
as published by Arphic Technology Co., Ltd.
You should have received a copy of this license (the directory "APL") along with this file;
if not, see http://ftp.gnu.org/non-gnu/chinese-fonts-truetype/LICENSE.
-->
<svg id="z22280" class="acjk" version="1.1" viewBox="0 0 1024 1024" xmlns="http://www.w3.org/2000/svg" xmlns:xlink="http://www.w3.org/1999/xlink">
<style>
<![CDATA[
	@keyframes z22280k {
		from {
			stroke:#c00;
			stroke-dashoffset:3000;
		}
		75% {
			stroke:#c00;
			stroke-dashoffset:0;
		}
		to {
			stroke:#000;
		}
	}
	#z22280 path[clip-path] {
		animation:z22280k 1s linear both;
		stroke-dasharray:3000;
		stroke-width:128;
		stroke-linecap:round;
		fill:none;
	}
	#z22280 path[clip-path="url(#z22280c1)"] {animation-delay:1s;}
	#z22280 path[clip-path="url(#z22280c2)"] {animation-delay:2s;}
	#z22280 path[clip-path="url(#z22280c3)"] {animation-delay:3s;}
	#z22280 path[clip-path="url(#z22280c4)"] {animation-delay:4s;}
	#z22280 path[clip-path="url(#z22280c5)"] {animation-delay:5s;}
	#z22280 path[clip-path="url(#z22280c6)"] {animation-delay:6s;}
	#z22280 path[clip-path="url(#z22280c7)"] {animation-delay:7s;}
	#z22280 path[clip-path="url(#z22280c8)"] {animation-delay:8s;}
	#z22280 path[clip-path="url(#z22280c9)"] {animation-delay:9s;}
	#z22280 path[clip-path="url(#z22280c10)"] {animation-delay:10s;}
	#z22280 path[clip-path="url(#z22280c11)"] {animation-delay:11s;}
	#z22280 path {fill:#ccc;}
]]>
</style>
<g transform="scale(1,-1) translate(0,-900)">
	<path id="z22280d1" d="M235 753Q205 774 185 768Q178 762 183 748Q187 732 194 715Q227 649 203 251Q196 188 176 116Q158 56 199 2Q212 -13 224 1Q231 13 236 25L242 64Q246 104 246 167Q247 222 248 271L249 283Q259 668 262 695Q263 702 263 707L235 753Z"/>
	<path id="z22280d2" d="M739 50Q763 17 776 -12Q786 -34 801 -34Q814 -33 823 -12Q854 40 834 240Q818 684 838 715Q839 719 844 723Q856 738 855 746Q854 759 820 783Q757 828 718 808Q697 804 661 798Q502 785 312 756Q272 752 235 753L263 707Q273 707 290 712Q306 716 434 735Q594 757 717 762Q744 763 750 750Q772 723 773 346L773 329Q774 199 776 161Q780 110 768 90Q764 77 758 77Q754 77 747 78L739 50Z"/>
	<path id="z22280d3" d="M347 648Q386 599 407 597Q419 596 424 612Q425 624 417 641Q402 665 351 672Q342 673 342 663Q341 656 347 648Z"/>
	<path id="z22280d4" d="M606 692Q591 671 560 639Q556 633 559 627Q565 626 571 628Q634 658 663 668Q678 671 675 680Q672 693 658 710Q645 726 627 730Q615 730 614 715Q615 703 606 692Z"/>
	<path id="z22280d5" d="M490 538Q628 568 631 569Q638 576 634 583Q628 592 605 598Q581 602 557 594Q529 585 499 577L456 567Q419 563 379 558Q349 554 370 539Q401 523 447 529L490 538Z"/>
	<path id="z22280d6" d="M453 442Q486 451 551 454L580 456Q617 459 707 460Q723 461 727 468Q731 477 718 488Q667 524 609 504Q576 498 470 477L425 470Q361 463 290 451Q272 448 286 435Q298 423 312 419Q330 415 343 419Q373 428 405 433L453 442Z"/>
	<path id="z22280d7" d="M248 271Q317 283 383 347L401 364Q422 386 453 442L470 477Q483 507 490 538L499 577Q511 649 529 684Q536 699 524 706Q487 736 464 729Q454 726 458 713Q476 671 457 571Q456 570 456 567L447 529Q444 519 425 470L405 433Q351 352 269 298Q259 291 249 283L248 271Z"/>
	<path id="z22280d8" d="M551 454Q656 322 687 314Q691 315 697 315Q746 324 773 329L773 346Q740 358 712 369Q667 387 580 456L551 454Z"/>
	<path id="z22280d9" d="M436 321Q488 339 527 345Q536 346 537 344Q541 340 541 328Q542 294 538 278Q526 257 507 260Q489 264 474 269Q458 273 470 258Q500 231 514 209Q521 199 531 206Q562 225 581 313Q585 335 594 345Q601 354 598 361Q592 368 557 382Q544 388 532 378Q514 366 430 347L436 321Z"/>
	<path id="z22280d10" d="M383 347Q393 325 391 290Q390 178 414 152Q448 136 477 131Q517 127 578 132Q633 138 655 150Q674 160 666 181Q654 208 647 255Q646 265 641 270Q635 273 633 259Q620 202 610 192Q603 182 580 174Q498 153 450 167Q434 174 429 185Q423 201 423 245Q424 291 435 315Q436 319 436 321L430 347Q412 360 401 364L383 347Z"/>
	<path id="z22280d11" d="M236 25Q237 25 240 25Q400 49 739 50L747 78Q738 87 727 96Q709 108 674 103Q434 70 242 64L236 25Z"/>
	<defs>
		<clipPath id="z22280c1"><use xlink:href="#z22280d1"/></clipPath>
		<clipPath id="z22280c2"><use xlink:href="#z22280d2"/></clipPath>
		<clipPath id="z22280c3"><use xlink:href="#z22280d3"/></clipPath>
		<clipPath id="z22280c4"><use xlink:href="#z22280d4"/></clipPath>
		<clipPath id="z22280c5"><use xlink:href="#z22280d5"/></clipPath>
		<clipPath id="z22280c6"><use xlink:href="#z22280d6"/></clipPath>
		<clipPath id="z22280c7"><use xlink:href="#z22280d7"/></clipPath>
		<clipPath id="z22280c8"><use xlink:href="#z22280d8"/></clipPath>
		<clipPath id="z22280c9"><use xlink:href="#z22280d9"/></clipPath>
		<clipPath id="z22280c10"><use xlink:href="#z22280d10"/></clipPath>
		<clipPath id="z22280c11"><use xlink:href="#z22280d11"/></clipPath>
	</defs>
	<path pathLength="2999" clip-path="url(#z22280c1)" d="M190 761L231 701L235 614L206 -1"/>
	<path pathLength="2999" clip-path="url(#z22280c2)" d="M246 748L285 731L734 788L797 751L809 120L782 23L792 -28"/>
	<path pathLength="2999" clip-path="url(#z22280c3)" d="M350 667L417 605"/>
	<path pathLength="2999" clip-path="url(#z22280c4)" d="M626 727L640 684L567 634"/>
	<path pathLength="2999" clip-path="url(#z22280c5)" d="M375 547L628 582"/>
	<path pathLength="2999" clip-path="url(#z22280c6)" d="M287 443L639 485L721 473"/>
	<path pathLength="2999" clip-path="url(#z22280c7)" d="M465 720L498 681L444 468L382 372L256 279"/>
	<path pathLength="2999" clip-path="url(#z22280c8)" d="M561 451L679 352L768 338"/>
	<path pathLength="2999" clip-path="url(#z22280c9)" d="M437 341L531 362L569 348L531 238L474 262"/>
	<path pathLength="2999" clip-path="url(#z22280c10)" d="M397 353L411 198L433 159L518 146L622 166L640 182L640 263"/>
	<path pathLength="2999" clip-path="url(#z22280c11)" d="M242 33L743 74"/>
</g>
</svg>