<!--
AnimCJK 2016-2019 Copyright Francois Mizessyn - https://github.com/parsimonhi/animCJK
Derived from:
    MakeMeAHanzi project - https://github.com/skishore/makemeahanzi
    Arphic PL KaitiM GB font
    Arphic PL UKai font
You can redistribute and/or modify this file under the terms of the Arphic Public License
as published by Arphic Technology Co., Ltd.
You should have received a copy of this license along with this file.
If not, see http://ftp.gnu.org/non-gnu/chinese-fonts-truetype/LICENSE.
-->
<svg id="z22300" class="acjk" version="1.1" viewBox="0 0 1024 1024" xmlns="http://www.w3.org/2000/svg" xmlns:xlink="http://www.w3.org/1999/xlink">
<style>
<![CDATA[
@keyframes zk {
	to {
		stroke-dashoffset:0;
	}
}
svg.acjk path[clip-path] {
	--t:0.8s;
	animation:zk var(--t) linear forwards var(--d);
	stroke-dasharray:3337;
	stroke-dashoffset:3339;
	stroke-width:128;
	stroke-linecap:round;
	fill:none;
	stroke:#000;
}
svg.acjk path[id] {fill:#ccc;}
]]>
</style>
<path id="z22300d1" d="M250 168Q240 158 217 149Q205 143 192 148Q183 154 190 168Q214 261 217 278Q217 635 192 739Q168 832 195 876Q199 885 207 894Q219 910 232 895Q242 880 246 863C249 837 249 837 251 824Q255 787 255 732Q268 254 271 223Q272 217 272 212C272 196 263 178 250 168Z"/>
<path id="z22300d2" d="M727 834Q751 865 767 900Q777 922 793 922Q806 921 816 899Q847 842 825 653Q807 220 827 199Q828 195 832 193Q842 178 843 170Q842 157 808 134Q748 89 712 107Q691 111 652 118Q502 134 323 165Q286 169 250 168C234 168 256 212 272 212Q284 212 302 206Q315 202 436 182Q587 158 703 151Q728 150 733 162Q758 187 759 495Q762 681 764 725Q768 774 757 793Q753 806 747 806Q743 807 739 806C729 806 721 826 727 834Z"/>
<path id="z22300d3" d="M389 241Q382 237 352 233Q342 232 340 235Q336 239 343 252Q362 285 377 340Q380 356 391 367Q406 383 409 371Q410 367 411 359C413 351 411 343 409 335Q400 286 398 266C396 257 397 244 389 241Z"/>
<path id="z22300d4" d="M639 303Q654 263 672 250Q685 234 666 221Q648 208 630 197Q621 191 556 209Q538 209 389 241C380 242 390 269 398 266Q428 256 450 252C462 250 462 250 468 249Q495 245 528 240C545 238 545 238 553 237Q572 233 595 231Q605 230 608 234Q612 240 599 302C597 315 634 315 639 303Z"/>
<path id="z22300d5" d="M485 324Q485 321 486 320Q486 286 468 249C465 244 449 246 450 252Q450 253 451 257Q454 306 473 326C476 329 484 328 485 324Z"/>
<path id="z22300d6" d="M541 314Q550 299 558 280Q561 273 568 262Q575 255 570 250Q566 243 553 237C545 234 523 233 528 240Q529 240 530 242Q536 254 524 313Q523 314 522 318C520 324 537 319 541 314Z"/>
<path id="z22300d7" d="M411 359Q418 360 426 359Q496 343 650 330Q657 329 659 323Q659 317 639 303C629 295 612 300 599 302Q569 308 541 314C528 317 528 317 522 318Q503 321 485 324C477 325 477 325 473 326Q439 329 409 335C401 336 403 359 411 359Z"/>
<path id="z22300d8" d="M297 415Q281 416 293 430Q303 440 317 443Q333 447 345 443Q499 401 714 400C715 400 715 400 716 400Q731 400 735 394Q739 384 726 375Q681 342 624 361Q408 397 297 415Z"/>
<path id="z22300d9" d="M433 583Q433 582 434 579C438 572 434 562 433 554C433 553 433 553 433 553Q423 507 421 492C419 483 415 471 406 470Q396 467 376 466Q366 465 364 468Q360 474 367 485Q386 512 401 558Q404 570 417 583C421 587 432 588 433 583Z"/>
<path id="z22300d10" d="M599 529Q617 493 635 483Q648 470 637 457Q582 415 533 439Q475 457 406 470C397 472 412 494 421 492Q430 491 442 488Q496 478 547 466Q560 462 566 468Q570 472 560 528C557 541 593 541 599 529Z"/>
<path id="z22300d11" d="M434 579Q441 579 450 578Q501 565 611 554Q618 553 620 547Q620 541 599 529C588 522 573 525 560 528Q490 544 433 554C425 556 426 579 434 579Z"/>
<path id="z22300d12" d="M417 583Q414 584 413 590Q398 636 272 712Q256 719 275 721Q321 721 415 656C432 642 432 642 441 635Q451 626 458 622Q467 615 466 608Q465 598 448 590Q439 586 433 583C428 581 420 579 417 583Z"/>
<path id="z22300d13" d="M415 656Q425 687 420 702Q416 724 407 735Q397 750 403 765Q410 789 422 797Q429 803 439 789Q460 764 531 703Q544 693 545 688Q546 679 532 686Q462 716 457 714Q451 710 452 694Q456 672 458 665Q461 652 451 643Q447 639 441 635C432 628 413 645 415 656Z"/>
<path id="z22300d14" d="M601 642Q652 608 678 594Q691 591 688 583Q684 573 670 559Q657 546 641 544Q631 545 631 558Q632 573 585 634C581 639 596 646 601 642Z"/>
<path id="z22300d15" d="M585 634Q585 633 584 633Q533 608 505 596Q499 593 498 602Q498 611 506 618Q564 663 635 729Q647 742 658 745Q664 745 668 738Q675 728 666 699Q659 672 601 642C590 637 590 637 585 634Z"/>
<path id="z22300d16" d="M246 863Q250 863 256 863Q407 838 727 834C737 834 747 812 739 806Q732 799 719 788Q701 776 666 782Q435 816 251 824C238 824 233 863 246 863Z"/>
<defs>
	<clipPath id="z22300c1"><use xlink:href="#z22300d1"/></clipPath>
	<clipPath id="z22300c2"><use xlink:href="#z22300d2"/></clipPath>
	<clipPath id="z22300c3"><use xlink:href="#z22300d3"/></clipPath>
	<clipPath id="z22300c4"><use xlink:href="#z22300d4"/></clipPath>
	<clipPath id="z22300c5"><use xlink:href="#z22300d5"/></clipPath>
	<clipPath id="z22300c6"><use xlink:href="#z22300d6"/></clipPath>
	<clipPath id="z22300c7"><use xlink:href="#z22300d7"/></clipPath>
	<clipPath id="z22300c8"><use xlink:href="#z22300d8"/></clipPath>
	<clipPath id="z22300c9"><use xlink:href="#z22300d9"/></clipPath>
	<clipPath id="z22300c10"><use xlink:href="#z22300d10"/></clipPath>
	<clipPath id="z22300c11"><use xlink:href="#z22300d11"/></clipPath>
	<clipPath id="z22300c12"><use xlink:href="#z22300d12"/></clipPath>
	<clipPath id="z22300c13"><use xlink:href="#z22300d13"/></clipPath>
	<clipPath id="z22300c14"><use xlink:href="#z22300d14"/></clipPath>
	<clipPath id="z22300c15"><use xlink:href="#z22300d15"/></clipPath>
	<clipPath id="z22300c16"><use xlink:href="#z22300d16"/></clipPath>
</defs>
<path style="--d:1s;" pathLength="3333" clip-path="url(#z22300c1)" d="M196 151L238 217L242 272L213 897"/>
<path style="--d:2s;" pathLength="3333" clip-path="url(#z22300c2)" d="M259 172L296 189L717 128L779 160L799 768L782 865L736 846"/>
<path style="--d:3s;" pathLength="3333" clip-path="url(#z22300c3)" d="M348 241L373 261L400 371"/>
<path style="--d:4s;" pathLength="3333" clip-path="url(#z22300c4)" d="M396 244L620 216L642 244L613 302"/>
<path style="--d:5s;" pathLength="3333" clip-path="url(#z22300c5)" d="M458 254L477 321"/>
<path style="--d:6s;" pathLength="3333" clip-path="url(#z22300c6)" d="M553 240L529 312"/>
<path style="--d:7s;" pathLength="3333" clip-path="url(#z22300c7)" d="M415 351L650 320"/>
<path style="--d:8s;" pathLength="3333" clip-path="url(#z22300c8)" d="M297 421L653 378L732 389"/>
<path style="--d:9s;" pathLength="3333" clip-path="url(#z22300c9)" d="M370 472L397 493L425 577"/>
<path style="--d:10s;" pathLength="3333" clip-path="url(#z22300c10)" d="M414 472L579 450L604 479L571 526"/>
<path style="--d:11s;" pathLength="3333" clip-path="url(#z22300c11)" d="M437 571L612 543"/>
<path style="--d:12s;" pathLength="3333" clip-path="url(#z22300c12)" d="M421 588L425 622L276 716"/>
<path style="--d:13s;" pathLength="3333" clip-path="url(#z22300c13)" d="M440 642L442 755L539 689"/>
<path style="--d:14s;" pathLength="3333" clip-path="url(#z22300c14)" d="M643 549L654 585L593 635"/>
<path style="--d:15s;" pathLength="3333" clip-path="url(#z22300c15)" d="M504 602L666 736"/>
<path style="--d:16s;" pathLength="3333" clip-path="url(#z22300c16)" d="M256 856L734 807"/>
</svg>