<!--
AnimCJK 2016-2019 Copyright Francois Mizessyn - https://github.com/parsimonhi/animCJK
Derived from:
    MakeMeAHanzi project - https://github.com/skishore/makemeahanzi
    Arphic PL KaitiM GB font
    Arphic PL UKai font
You can redistribute and/or modify this file under the terms of the Arphic Public License
as published by Arphic Technology Co., Ltd.
You should have received a copy of this license along with this file.
If not, see http://ftp.gnu.org/non-gnu/chinese-fonts-truetype/LICENSE.
-->
<svg id="z22316" class="acjk" version="1.1" viewBox="0 0 1024 1024" xmlns="http://www.w3.org/2000/svg" xmlns:xlink="http://www.w3.org/1999/xlink">
<style>
<![CDATA[
@keyframes zk {
	to {
		stroke-dashoffset:0;
	}
}
svg.acjk path[clip-path] {
	--t:0.8s;
	animation:zk var(--t) linear forwards var(--d);
	stroke-dasharray:3337;
	stroke-dashoffset:3339;
	stroke-width:128;
	stroke-linecap:round;
	fill:none;
	stroke:#000;
}
svg.acjk path[id] {fill:#ccc;}
]]>
</style>
<path id="z22316d1" d="M302 401Q380 374 382 373Q389 364 384 356Q377 344 346 340Q322 337 304 345C271 358 271 358 254 365Q194 387 126 401Q89 411 118 425Q163 446 218 426Q236 420 255 415C286 406 286 406 302 401Z"/>
<path id="z22316d2" d="M295 580Q299 487 302 401C303 364 303 364 304 345Q307 216 326 149Q330 137 308 121Q271 102 244 97Q226 94 218 103Q211 112 219 128Q247 170 249 198Q253 277 254 365C255 398 255 398 255 415Q254 503 250 599C250 615 295 596 295 580Z"/>
<path id="z22316d3" d="M250 599Q193 621 134 645Q116 652 85 655Q70 658 69 670Q69 685 80 692Q108 708 146 724Q159 727 170 715Q209 679 354 593Q376 577 401 559Q414 549 414 538Q407 534 394 537Q348 558 295 580C265 593 265 593 250 599Z"/>
<path id="z22316d4" d="M518 190Q478 197 507 216Q555 243 618 225Q682 212 749 196Q779 189 784 184Q794 175 788 165Q779 152 746 145Q712 139 678 154Q644 166 607 175Q567 185 518 190Z"/>
<path id="z22316d5" d="M588 380Q714 344 877 345Q914 339 918 334Q922 322 905 310Q851 277 817 287Q708 317 407 378Q386 381 403 397Q416 409 435 413Q456 417 471 411Q501 401 535 392C570 384 570 384 588 380Z"/>
<path id="z22316d6" d="M511 608Q559 571 656 545Q693 533 717 539Q742 546 746 585Q740 699 690 788Q674 815 659 822Q637 831 561 806Q543 799 542 806Q542 813 555 825Q598 870 628 910Q640 923 651 922Q669 923 689 908Q741 856 765 792Q789 728 805 606Q806 573 818 553Q831 538 819 525Q800 509 757 492Q735 483 709 494Q675 507 650 513Q619 520 578 530Q556 534 565 512Q596 442 611 425Q624 409 612 394Q602 387 588 380C572 371 524 378 535 392Q547 404 539 441Q518 510 476 546Q460 565 463 580Q466 596 484 610Q497 622 511 608Z"/>
<defs>
	<clipPath id="z22316c1"><use xlink:href="#z22316d1"/></clipPath>
	<clipPath id="z22316c2"><use xlink:href="#z22316d2"/></clipPath>
	<clipPath id="z22316c3"><use xlink:href="#z22316d3"/></clipPath>
	<clipPath id="z22316c4"><use xlink:href="#z22316d4"/></clipPath>
	<clipPath id="z22316c5"><use xlink:href="#z22316d5"/></clipPath>
	<clipPath id="z22316c6"><use xlink:href="#z22316d6"/></clipPath>
</defs>
<path style="--d:1s;" pathLength="3333" clip-path="url(#z22316c1)" d="M115 414L381 360"/>
<path style="--d:2s;" pathLength="3333" clip-path="url(#z22316c2)" d="M221 106L285 161L274 561L254 590"/>
<path style="--d:3s;" pathLength="3333" clip-path="url(#z22316c3)" d="M72 667L148 683L407 543"/>
<path style="--d:4s;" pathLength="3333" clip-path="url(#z22316c4)" d="M502 203L786 173"/>
<path style="--d:5s;" pathLength="3333" clip-path="url(#z22316c5)" d="M402 383L463 390L817 316L912 325"/>
<path style="--d:6s;" pathLength="3333" clip-path="url(#z22316c6)" d="M542 394L579 421L515 550L525 574L727 513L784 555L750 733L696 843L640 871L548 810"/>
</svg>