<!--
AnimCJK 2016-2019 Copyright Francois Mizessyn - https://github.com/parsimonhi/animCJK
Derived from:
    MakeMeAHanzi project - https://github.com/skishore/makemeahanzi
    Arphic PL KaitiM GB font
    Arphic PL UKai font
You can redistribute and/or modify this file under the terms of the Arphic Public License
as published by Arphic Technology Co., Ltd.
You should have received a copy of this license along with this file.
If not, see http://ftp.gnu.org/non-gnu/chinese-fonts-truetype/LICENSE.
-->
<svg id="z22329" class="acjk" version="1.1" viewBox="0 0 1024 1024" xmlns="http://www.w3.org/2000/svg" xmlns:xlink="http://www.w3.org/1999/xlink">
<style>
<![CDATA[
@keyframes zk {
	to {
		stroke-dashoffset:0;
	}
}
svg.acjk path[clip-path] {
	--t:0.8s;
	animation:zk var(--t) linear forwards var(--d);
	stroke-dasharray:3337;
	stroke-dashoffset:3339;
	stroke-width:128;
	stroke-linecap:round;
	fill:none;
	stroke:#000;
}
svg.acjk path[id] {fill:#ccc;}
]]>
</style>
<path id="z22329d1" d="M314 434Q401 409 405 405Q414 396 408 388Q401 376 370 371Q342 367 316 378C283 391 283 391 266 397Q199 416 147 425Q110 434 138 449Q174 467 248 450Q255 447 266 447C283 447 298 437 314 434Z"/>
<path id="z22329d2" d="M307 605Q310 517 314 434C315 397 315 397 316 378Q319 260 337 195Q340 183 319 168Q282 149 257 145Q241 142 232 151Q225 158 233 174Q261 214 261 241Q265 316 266 397C266 430 266 430 266 447Q265 531 262 622C262 638 307 621 307 605Z"/>
<path id="z22329d3" d="M262 622Q201 641 135 665Q116 672 83 673Q70 674 68 686Q67 701 77 709Q102 725 139 743Q151 746 163 736Q191 711 374 614Q399 601 417 586Q430 577 430 567Q424 561 411 565Q362 584 307 605C277 616 277 616 262 622Z"/>
<path id="z22329d4" d="M620 123Q660 147 702 176Q717 186 732 183Q742 182 745 168Q746 153 734 126Q718 92 608 79Q593 78 587 81Q583 85 587 97Q591 107 620 123Z"/>
<path id="z22329d5" d="M543 309Q580 324 632 312Q734 291 840 269Q888 257 895 251Q905 242 899 233Q892 220 860 212Q833 206 713 245Q548 275 538 276Q537 276 537 277C527 281 533 305 543 309Z"/>
<path id="z22329d6" d="M537 277Q521 264 496 253Q477 243 464 249Q452 256 459 269Q477 291 478 352Q478 532 438 663Q405 763 334 882Q330 888 327 894Q326 904 336 902Q372 895 449 755Q455 740 463 725Q524 578 537 344Q537 326 543 309C547 299 546 284 537 277Z"/>
<defs>
	<clipPath id="z22329c1"><use xlink:href="#z22329d1"/></clipPath>
	<clipPath id="z22329c2"><use xlink:href="#z22329d2"/></clipPath>
	<clipPath id="z22329c3"><use xlink:href="#z22329d3"/></clipPath>
	<clipPath id="z22329c4"><use xlink:href="#z22329d4"/></clipPath>
	<clipPath id="z22329c5"><use xlink:href="#z22329d5"/></clipPath>
	<clipPath id="z22329c6"><use xlink:href="#z22329d6"/></clipPath>
</defs>
<path style="--d:1s;" pathLength="3333" clip-path="url(#z22329c1)" d="M133 436L406 398"/>
<path style="--d:2s;" pathLength="3333" clip-path="url(#z22329c2)" d="M235 153L297 206L285 603L270 615"/>
<path style="--d:3s;" pathLength="3333" clip-path="url(#z22329c3)" d="M72 688L147 702L421 570"/>
<path style="--d:4s;" pathLength="3333" clip-path="url(#z22329c4)" d="M590 85L708 141L733 180"/>
<path style="--d:5s;" pathLength="3333" clip-path="url(#z22329c5)" d="M544 282L600 291L895 237"/>
<path style="--d:6s;" pathLength="3333" clip-path="url(#z22329c6)" d="M465 258L509 317L477 607L425 754L335 894"/>
</svg>