<!--
AnimCJK 2016-2018 Copyright Francois Mizessyn, https://github.com/parsimonhi/animCJK
Derived from:
    MakeMeAHanzi project - https://github.com/skishore/makemeahanzi
    Arphic PL KaitiM GB - https://apps.ubuntu.com/cat/applications/precise/fonts-arphic-gkai00mp/
    Arphic PL UKai - https://apps.ubuntu.com/cat/applications/fonts-arphic-ukai/
You can redistribute and/or modify this file under the terms of the Arphic Public License
as published by Arphic Technology Co., Ltd.
You should have received a copy of this license (the directory "APL") along with this file;
if not, see http://ftp.gnu.org/non-gnu/chinese-fonts-truetype/LICENSE.
-->
<svg id="z22352" class="acjk" version="1.1" viewBox="0 0 1024 1024" xmlns="http://www.w3.org/2000/svg" xmlns:xlink="http://www.w3.org/1999/xlink">
<style>
<![CDATA[
@keyframes z22352k {
	from {
		stroke:#c00;
		stroke-dashoffset:3334;
	}
	75% {
		stroke:#c00;
		stroke-dashoffset:0;
	}
	to {
		stroke:#000;
	}
}
#z22352 path[clip-path] {
	animation:z22352k 1s linear both;
	stroke-dasharray:3334;
	stroke-width:128;
	stroke-linecap:round;
	fill:none;
}
#z22352 path[clip-path="url(#z22352c1)"] {animation-delay:1s;}
#z22352 path[clip-path="url(#z22352c2)"] {animation-delay:2s;}
#z22352 path[clip-path="url(#z22352c3)"] {animation-delay:3s;}
#z22352 path[clip-path="url(#z22352c4)"] {animation-delay:4s;}
#z22352 path[clip-path="url(#z22352c5)"] {animation-delay:5s;}
#z22352 path[clip-path="url(#z22352c6)"] {animation-delay:6s;}
#z22352 path[clip-path="url(#z22352c7)"] {animation-delay:7s;}
#z22352 path {fill:#ccc;}
]]>
</style>
<path id="z22352d1" d="M304 432Q314 413 325 394Q350 342 376 298Q386 285 371 272Q328 242 304 248Q294 251 297 264Q313 375 198 515Q189 519 148 572Q141 588 156 582Q175 578 202 554Q254 506 291 452L304 432 Z"/>
<path id="z22352d2" d="M291 452Q292 453 295 455Q338 480 392 521Q408 534 421 535Q428 535 432 526Q439 513 423 481Q410 453 349 439Q324 435 304 432L291 452 Z"/>
<path id="z22352d3" d="M690 417Q709 386 725 353Q749 304 771 263Q780 250 764 236Q718 208 694 213Q684 217 687 231Q708 327 607 469Q594 475 564 524Q557 540 572 534Q608 522 675 438L690 417 Z"/>
<path id="z22352d4" d="M675 438Q676 439 680 441Q732 472 797 520Q813 535 828 536Q835 535 840 525Q849 512 830 477Q817 443 746 427Q712 420 690 417L675 438 Z"/>
<path id="z22352d5" d="M540 666Q598 656 660 647Q717 637 725 629Q735 622 731 612Q724 600 694 591Q664 584 633 594Q587 607 542 619L497 629Q419 642 332 647Q295 651 320 670Q360 694 434 683Q464 677 496 674L540 666 Z"/>
<path id="z22352d6" d="M536 818Q537 740 540 666L542 619Q545 459 548 308Q554 247 560 207Q569 171 574 146Q578 133 554 116Q512 94 484 90Q465 86 456 96Q447 105 457 122Q497 183 497 224Q504 416 497 629L496 674Q492 746 488 823L536 818 Z"/>
<path id="z22352d7" d="M488 823Q349 833 187 847Q163 848 180 869Q216 905 258 896Q493 839 882 862Q882 861 885 862Q907 863 914 854Q921 841 902 824Q841 773 773 789Q679 802 536 818L488 823 Z"/>
<defs>
	<clipPath id="z22352c1"><use xlink:href="#z22352d1"/></clipPath>
	<clipPath id="z22352c2"><use xlink:href="#z22352d2"/></clipPath>
	<clipPath id="z22352c3"><use xlink:href="#z22352d3"/></clipPath>
	<clipPath id="z22352c4"><use xlink:href="#z22352d4"/></clipPath>
	<clipPath id="z22352c5"><use xlink:href="#z22352d5"/></clipPath>
	<clipPath id="z22352c6"><use xlink:href="#z22352d6"/></clipPath>
	<clipPath id="z22352c7"><use xlink:href="#z22352d7"/></clipPath>
</defs>
<path pathLength="3333" clip-path="url(#z22352c1)" d="M305 252L339 296L309 374L250 476L154 576"/>
<path pathLength="3333" clip-path="url(#z22352c2)" d="M296 448L382 478L424 528"/>
<path pathLength="3333" clip-path="url(#z22352c3)" d="M694 217L731 259L711 322L651 437L567 527"/>
<path pathLength="3333" clip-path="url(#z22352c4)" d="M680 434L784 472L834 529"/>
<path pathLength="3333" clip-path="url(#z22352c5)" d="M319 658L415 663L725 608"/>
<path pathLength="3333" clip-path="url(#z22352c6)" d="M459 98L525 149L531 180L501 821"/>
<path pathLength="3333" clip-path="url(#z22352c7)" d="M178 854L244 870L801 821L912 842"/>
</svg>