<!--
AnimCJK 2016-2017 Copyright Francois Mizessyn, http://gooo.free.fr/animCJK/
Derived from:
    MakeMeAHanzi project - https://github.com/skishore/makemeahanzi
    Arphic PL KaitiM GB - https://apps.ubuntu.com/cat/applications/precise/fonts-arphic-gkai00mp/
    Arphic PL UKai - https://apps.ubuntu.com/cat/applications/fonts-arphic-ukai/
You can redistribute and/or modify this file under the terms of the Arphic Public License
as published by Arphic Technology Co., Ltd.
You should have received a copy of this license (the directory "APL") along with this file;
if not, see http://ftp.gnu.org/non-gnu/chinese-fonts-truetype/LICENSE.
-->
<svg id="z22362" class="acjk" version="1.1" viewBox="0 0 1024 1024" xmlns="http://www.w3.org/2000/svg" xmlns:xlink="http://www.w3.org/1999/xlink">
<style>
<![CDATA[
	@keyframes z22362k {
		from {
			stroke:#c00;
			stroke-dashoffset:3000;
		}
		75% {
			stroke:#c00;
			stroke-dashoffset:0;
		}
		to {
			stroke:#000;
		}
	}
	#z22362 path[clip-path] {
		animation:z22362k 1s linear both;
		stroke-dasharray:3000;
		stroke-width:128;
		stroke-linecap:round;
		fill:none;
	}
	#z22362 path[clip-path="url(#z22362c1)"] {animation-delay:1s;}
	#z22362 path[clip-path="url(#z22362c2)"] {animation-delay:2s;}
	#z22362 path[clip-path="url(#z22362c3)"] {animation-delay:3s;}
	#z22362 path[clip-path="url(#z22362c4)"] {animation-delay:4s;}
	#z22362 path[clip-path="url(#z22362c5)"] {animation-delay:5s;}
	#z22362 path[clip-path="url(#z22362c6)"] {animation-delay:6s;}
	#z22362 path[clip-path="url(#z22362c7)"] {animation-delay:7s;}
	#z22362 path {fill:#ccc;}
]]>
</style>
<g transform="scale(1,-1) translate(0,-900)">
	<path id="z22362d1" d="M200 631Q233 574 226 433Q220 393 260 364Q273 357 275 367Q282 371 283 391Q286 407 279 462Q269 559 271 593Q274 609 267 621Q240 648 209 652Q205 655 200 648Q196 642 200 631Z"/>
	<path id="z22362d2" d="M320 746Q369 679 370 383Q373 355 382 334Q389 324 398 330Q416 352 413 430Q413 710 414 717Q421 738 408 749Q392 762 362 774Q340 781 317 770Q305 760 320 746Z"/>
	<path id="z22362d3" d="M670 493Q715 551 753 647Q765 675 784 695Q803 711 790 725Q777 737 744 747Q720 754 647 722Q509 692 507 691Q492 690 488 682Q484 675 503 667Q540 654 591 670Q661 695 675 696Q699 696 695 670Q676 586 632 523L605 493Q545 439 452 412Q439 408 450 399Q456 395 494 397Q558 403 635 458L670 493Z"/>
	<path id="z22362d4" d="M635 458Q743 343 797 341Q870 342 932 353Q966 359 964 368Q961 377 872 399Q749 436 670 493L632 523Q601 550 570 581Q533 617 501 616Q483 616 481 611Q480 605 494 595Q530 574 605 493L635 458Z"/>
	<path id="z22362d5" d="M532 197Q706 225 713 230Q723 237 718 247Q711 260 681 270Q650 279 616 268Q576 258 536 248L474 236Q398 226 313 223Q273 219 300 199Q348 169 404 180Q440 184 477 189L532 197Z"/>
	<path id="z22362d6" d="M522 86Q526 144 532 197L536 248Q536 269 550 312Q553 322 533 337Q499 355 476 359Q460 363 452 354Q445 347 453 332Q469 310 474 236L477 189Q478 140 479 84L522 86Z"/>
	<path id="z22362d7" d="M479 84Q326 74 152 61Q127 60 144 39Q160 21 181 14Q206 7 225 10Q459 61 871 36Q895 35 901 45Q908 58 890 76Q821 128 758 114Q665 102 522 86L479 84Z"/>
	<defs>
		<clipPath id="z22362c1"><use xlink:href="#z22362d1"/></clipPath>
		<clipPath id="z22362c2"><use xlink:href="#z22362d2"/></clipPath>
		<clipPath id="z22362c3"><use xlink:href="#z22362d3"/></clipPath>
		<clipPath id="z22362c4"><use xlink:href="#z22362d4"/></clipPath>
		<clipPath id="z22362c5"><use xlink:href="#z22362d5"/></clipPath>
		<clipPath id="z22362c6"><use xlink:href="#z22362d6"/></clipPath>
		<clipPath id="z22362c7"><use xlink:href="#z22362d7"/></clipPath>
	</defs>
	<path pathLength="2999" clip-path="url(#z22362c1)" d="M206 644L243 602L257 368"/>
	<path pathLength="2999" clip-path="url(#z22362c2)" d="M315 763L378 717L391 333"/>
	<path pathLength="2999" clip-path="url(#z22362c3)" d="M492 680L705 719L745 696L671 538L618 474L450 404"/>
	<path pathLength="2999" clip-path="url(#z22362c4)" d="M488 611L769 393L954 368"/>
	<path pathLength="2999" clip-path="url(#z22362c5)" d="M295 212L374 202L715 243"/>
	<path pathLength="2999" clip-path="url(#z22362c6)" d="M455 352L508 305L495 85"/>
	<path pathLength="2999" clip-path="url(#z22362c7)" d="M143 54L215 37L758 79L899 59"/>
</g>
</svg>