<!--
AnimCJK 2016-2017 Copyright Francois Mizessyn, http://gooo.free.fr/animCJK/
Derived from:
    MakeMeAHanzi project - https://github.com/skishore/makemeahanzi
    Arphic PL KaitiM GB - https://apps.ubuntu.com/cat/applications/precise/fonts-arphic-gkai00mp/
    Arphic PL UKai - https://apps.ubuntu.com/cat/applications/fonts-arphic-ukai/
You can redistribute and/or modify this file under the terms of the Arphic Public License
as published by Arphic Technology Co., Ltd.
You should have received a copy of this license (the directory "APL") along with this file;
if not, see http://ftp.gnu.org/non-gnu/chinese-fonts-truetype/LICENSE.
-->
<svg id="z22427" class="acjk" version="1.1" viewBox="0 0 1024 1024" xmlns="http://www.w3.org/2000/svg" xmlns:xlink="http://www.w3.org/1999/xlink">
<style>
<![CDATA[
	@keyframes z22427k {
		from {
			stroke:#c00;
			stroke-dashoffset:3000;
		}
		75% {
			stroke:#c00;
			stroke-dashoffset:0;
		}
		to {
			stroke:#000;
		}
	}
	#z22427 path[clip-path] {
		animation:z22427k 1s linear both;
		stroke-dasharray:3000;
		stroke-width:128;
		stroke-linecap:round;
		fill:none;
	}
	#z22427 path[clip-path="url(#z22427c1)"] {animation-delay:1s;}
	#z22427 path[clip-path="url(#z22427c2)"] {animation-delay:2s;}
	#z22427 path[clip-path="url(#z22427c3)"] {animation-delay:3s;}
	#z22427 path[clip-path="url(#z22427c4)"] {animation-delay:4s;}
	#z22427 path[clip-path="url(#z22427c5)"] {animation-delay:5s;}
	#z22427 path[clip-path="url(#z22427c6)"] {animation-delay:6s;}
	#z22427 path[clip-path="url(#z22427c7)"] {animation-delay:7s;}
	#z22427 path[clip-path="url(#z22427c8)"] {animation-delay:8s;}
	#z22427 path[clip-path="url(#z22427c9)"] {animation-delay:9s;}
	#z22427 path {fill:#ccc;}
]]>
</style>
<g transform="scale(1,-1) translate(0,-900)">
	<path id="z22427d1" d="M304 468Q323 475 348 481Q376 491 381 495Q390 504 384 512Q377 524 346 528Q324 531 307 525L255 504Q198 483 130 471Q93 461 122 447Q165 429 250 453Q251 454 255 454L304 468Z"/>
	<path id="z22427d2" d="M294 290Q300 381 304 468L307 525Q310 640 330 711Q333 723 312 739Q275 758 248 763Q230 767 222 757Q215 750 223 733Q250 694 250 667Q254 589 255 504L255 454Q254 367 250 273L294 290Z"/>
	<path id="z22427d3" d="M250 273Q118 228 90 225Q77 222 76 212Q75 199 85 190Q110 175 145 159Q157 156 168 166Q270 232 373 298Q386 307 386 317Q377 323 294 290L250 273Z"/>
	<path id="z22427d4" d="M534 758Q500 774 490 773Q472 770 486 751Q507 717 492 605Q488 589 481 567Q469 534 431 495Q418 485 415 479Q414 472 424 473Q451 473 489 511Q538 565 551 701Q552 713 555 721L534 758Z"/>
	<path id="z22427d5" d="M900 510Q915 517 905 533Q889 552 869 561Q856 567 832 556Q795 537 749 535Q719 535 709 555Q693 579 701 651Q702 694 741 742Q759 758 740 773Q715 792 687 804Q677 810 658 799Q592 769 534 758L555 721Q564 722 620 745Q642 752 649 750Q659 746 657 729Q656 677 653 630Q646 575 660 539Q669 512 694 497Q731 479 799 484Q866 490 900 510Z"/>
	<path id="z22427d6" d="M627 359Q705 371 867 371Q886 372 892 380Q896 392 880 406Q820 448 772 431Q711 418 620 401L570 394Q482 381 384 366Q363 365 379 347Q410 319 449 328Q494 341 547 349L627 359Z"/>
	<path id="z22427d7" d="M620 401Q620 422 623 434Q626 446 618 451Q596 470 577 480Q565 483 556 476Q550 472 558 463Q562 456 570 394L571 291Q571 108 556 62Q549 28 581 -24Q591 -43 600 -46Q610 -47 616 -34Q622 -16 623 66Q619 172 618 328L620 401Z"/>
	<path id="z22427d8" d="M547 349Q481 223 303 91Q291 79 300 77Q309 73 321 77Q426 116 528 236Q538 251 552 266Q562 281 571 291L570.4084848484848 351.9260606060606L547 349Z"/>
	<path id="z22427d9" d="M618 328Q691 222 787 105Q803 86 834 87Q934 88 965 94Q975 95 976 101Q977 105 963 113Q810 176 759 228Q696 285 627 359L618.8213058419244 357.9776632302405L618 328Z"/>
	<defs>
		<clipPath id="z22427c1"><use xlink:href="#z22427d1"/></clipPath>
		<clipPath id="z22427c2"><use xlink:href="#z22427d2"/></clipPath>
		<clipPath id="z22427c3"><use xlink:href="#z22427d3"/></clipPath>
		<clipPath id="z22427c4"><use xlink:href="#z22427d4"/></clipPath>
		<clipPath id="z22427c5"><use xlink:href="#z22427d5"/></clipPath>
		<clipPath id="z22427c6"><use xlink:href="#z22427d6"/></clipPath>
		<clipPath id="z22427c7"><use xlink:href="#z22427d7"/></clipPath>
		<clipPath id="z22427c8"><use xlink:href="#z22427d8"/></clipPath>
		<clipPath id="z22427c9"><use xlink:href="#z22427d9"/></clipPath>
	</defs>
	<path pathLength="2999" clip-path="url(#z22427c1)" d="M118 459L380 508"/>
	<path pathLength="2999" clip-path="url(#z22427c2)" d="M225 752L289 695L273 300L257 282"/>
	<path pathLength="2999" clip-path="url(#z22427c3)" d="M80 214L146 198L377 310"/>
	<path pathLength="2999" clip-path="url(#z22427c4)" d="M488 764L526 718L511 597L478 525L423 478"/>
	<path pathLength="2999" clip-path="url(#z22427c5)" d="M543 753L655 775L696 759L674 609L703 523L774 510L903 532"/>
	<path pathLength="2999" clip-path="url(#z22427c6)" d="M380 357L792 403L888 389"/>
	<path pathLength="2999" clip-path="url(#z22427c7)" d="M563 472L594 434L597 -41"/>
	<path pathLength="2999" clip-path="url(#z22427c8)" d="M566 345L470 206L307 82"/>
	<path pathLength="2999" clip-path="url(#z22427c9)" d="M623 349L807 142L968 100"/>
</g>
</svg>