<!--
AnimCJK 2016-2026 Copyright FM-SH - https://github.com/parsimonhi/animCJK
Derived from:
    MakeMeAHanzi project - https://github.com/skishore/makemeahanzi
    Arphic PL KaitiM GB font
    Arphic PL KaitiM Big5 font
You can redistribute and/or modify this file under the terms of the Arphic Public License
as published by Arphic Technology Co., Ltd.
You should have received a copy of this license along with this file.
If not, see https://ftp.gnu.org/non-gnu/chinese-fonts-truetype/LICENSE.
-->
<svg id="z22482" class="acjk" viewBox="0 0 1024 1024" xmlns="http://www.w3.org/2000/svg">
<style>
<![CDATA[
@keyframes zk {
	to {
		stroke-dashoffset:0;
	}
}
svg.acjk path[clip-path] {
	--t:0.8s;
	animation:zk var(--t) linear forwards var(--d);
	stroke-dasharray:3337;
	stroke-dashoffset:3339;
	stroke-width:128;
	stroke-linecap:round;
	fill:none;
	stroke:#000;
}
svg.acjk path[id] {fill:#ccc;}
]]>
</style>
<path id="z22482d1" d="M322 423C348 415 386 404 401 397C415 389 407 369 366 363C351 360 337 361 325 366C290 378 290 378 273 384C223 400 180 409 147 417C122 422 119 431 138 441C180 463 250 441 273 436C306 427 306 427 322 423Z"/>
<path id="z22482d2" d="M314 599C316 538 319 479 322 423C324 385 324 385 325 366C327 311 331 249 346 181C347 172 343 162 328 153C304 138 282 132 264 129C240 124 225 138 239 159C282 225 273 308 273 384C273 419 273 419 273 436C273 494 272 554 270 617C270 633 314 615 314 599Z"/>
<path id="z22482d3" d="M270 617C232 632 190 649 153 662C140 665 124 667 105 671C82 674 89 699 101 706C117 715 137 725 162 736C168 738 176 735 184 728C219 692 365 613 409 582C434 563 413 561 392 568C374 574 348 584 314 599C285 611 285 611 270 617Z"/>
<path id="z22482d4" d="M619 123C593 146 544 175 473 216C466 219 468 227 474 228C498 229 560 208 635 180C648 174 687 161 722 150C741 146 755 135 734 119C710 102 686 92 668 87C634 77 632 85 632 97C632 107 627 114 619 123Z"/>
<path id="z22482d5" d="M450 326C489 370 511 395 522 397C545 399 539 353 539 348C537 335 527 322 509 312C467 288 441 277 432 281C428 282 427 287 427 295C427 301 436 310 450 326Z"/>
<path id="z22482d6" d="M563 274C582 305 596 327 612 335C623 340 639 331 639 309C638 296 635 284 626 277C613 267 593 254 574 245C565 241 554 236 553 252C552 257 557 264 563 274Z"/>
<path id="z22482d7" d="M765 227C753 242 725 273 683 322C674 331 679 341 690 336C770 292 808 268 847 250C861 243 865 235 859 224C851 211 838 201 823 191C793 170 774 175 778 192C780 203 774 214 765 227Z"/>
<path id="z22482d8" d="M732 514C767 509 809 508 856 508C892 508 913 504 917 497C920 488 915 479 904 471C881 454 858 446 833 443C801 442 764 454 733 461C699 468 699 468 682 472C652 478 583 490 424 517C409 519 406 526 419 537C440 555 468 560 501 552C549 538 647 524 684 520C716 516 716 516 732 514Z"/>
<path id="z22482d9" d="M647 815C625 810 603 807 582 804C567 801 567 811 583 823C631 858 662 889 681 912C690 923 701 923 710 914C728 892 739 856 738 807C737 772 728 674 732 514C733 479 733 479 733 461C733 434 757 411 734 392C717 378 699 369 681 363C657 354 646 363 661 385C676 408 680 438 682 472C683 504 683 504 684 520C689 660 684 749 677 789C674 807 670 819 647 815Z"/>
<path id="z22482d10" d="M501 643C516 657 530 673 547 691C555 699 565 705 576 705C582 705 589 700 593 691C596 681 594 666 590 647C587 634 576 622 557 614C510 594 482 588 476 593C472 595 470 601 472 610C472 616 484 627 501 643Z"/>
<defs>
	<clipPath id="z22482c1"><use href="#z22482d1"/></clipPath>
	<clipPath id="z22482c2"><use href="#z22482d2"/></clipPath>
	<clipPath id="z22482c3"><use href="#z22482d3"/></clipPath>
	<clipPath id="z22482c4"><use href="#z22482d4"/></clipPath>
	<clipPath id="z22482c5"><use href="#z22482d5"/></clipPath>
	<clipPath id="z22482c6"><use href="#z22482d6"/></clipPath>
	<clipPath id="z22482c7"><use href="#z22482d7"/></clipPath>
	<clipPath id="z22482c8"><use href="#z22482d8"/></clipPath>
	<clipPath id="z22482c9"><use href="#z22482d9"/></clipPath>
	<clipPath id="z22482c10"><use href="#z22482d10"/></clipPath>
</defs>
<path style="--d:1s;" pathLength="3333" clip-path="url(#z22482c1)" d="M134 430L403 383"/>
<path style="--d:2s;" pathLength="3333" clip-path="url(#z22482c2)" d="M241 137L302 189L287 619"/>
<path style="--d:3s;" pathLength="3333" clip-path="url(#z22482c3)" d="M96 683L168 696L413 572"/>
<path style="--d:4s;" pathLength="3333" clip-path="url(#z22482c4)" d="M639 88L682 139L477 222"/>
<path style="--d:5s;" pathLength="3333" clip-path="url(#z22482c5)" d="M434 287L507 346L528 391"/>
<path style="--d:6s;" pathLength="3333" clip-path="url(#z22482c6)" d="M560 247L623 332"/>
<path style="--d:7s;" pathLength="3333" clip-path="url(#z22482c7)" d="M786 184L813 232L686 331"/>
<path style="--d:8s;" pathLength="3333" clip-path="url(#z22482c8)" d="M418 525L475 532L796 477L913 485"/>
<path style="--d:9s;" pathLength="3333" clip-path="url(#z22482c9)" d="M661 365L709 412L704 822L677 871L579 811"/>
<path style="--d:10s;" pathLength="3333" clip-path="url(#z22482c10)" d="M478 598L559 655L576 699"/>
</svg>