<!--
AnimCJK 2016-2019 Copyright Francois Mizessyn - https://github.com/parsimonhi/animCJK
Derived from:
    MakeMeAHanzi project - https://github.com/skishore/makemeahanzi
    Arphic PL KaitiM GB font
    Arphic PL UKai font
You can redistribute and/or modify this file under the terms of the Arphic Public License
as published by Arphic Technology Co., Ltd.
You should have received a copy of this license along with this file.
If not, see http://ftp.gnu.org/non-gnu/chinese-fonts-truetype/LICENSE.
-->
<svg id="z22520" class="acjk" version="1.1" viewBox="0 0 1024 1024" xmlns="http://www.w3.org/2000/svg" xmlns:xlink="http://www.w3.org/1999/xlink">
<style>
<![CDATA[
@keyframes zk {
	to {
		stroke-dashoffset:0;
	}
}
svg.acjk path[clip-path] {
	--t:0.8s;
	animation:zk var(--t) linear forwards var(--d);
	stroke-dasharray:3337;
	stroke-dashoffset:3339;
	stroke-width:128;
	stroke-linecap:round;
	fill:none;
	stroke:#000;
}
svg.acjk path[id] {fill:#ccc;}
]]>
</style>
<path id="z22520d1" d="M305 397Q327 390 352 385Q383 376 388 371Q397 364 392 355Q385 345 355 339Q330 335 307 345C275 357 275 357 259 363Q145 388 131 391Q97 398 122 414Q170 435 220 418Q236 412 259 409C290 401 290 401 305 397Z"/>
<path id="z22520d2" d="M298 575Q301 484 305 397C306 362 306 362 307 345Q308 264 327 178Q331 166 310 152Q276 133 250 129Q234 126 226 135Q219 142 227 157Q254 196 254 221Q258 290 259 363C259 394 259 394 259 409Q259 497 255 593C255 609 298 591 298 575Z"/>
<path id="z22520d3" d="M255 593Q200 614 141 638Q125 645 96 647Q83 650 82 661Q82 674 92 682Q117 695 154 711Q164 712 176 703Q278 633 382 562Q394 552 393 543Q387 539 298 575C269 587 269 587 255 593Z"/>
<path id="z22520d4" d="M516 141Q506 137 483 131Q473 127 469 131Q463 137 469 151Q496 223 505 335Q505 369 522 393Q537 414 542 400Q548 387 548 365C547 350 547 350 547 342Q547 333 539 274C538 257 538 257 537 249Q530 195 530 173C530 161 527 145 516 141Z"/>
<path id="z22520d5" d="M656 354Q675 382 693 390Q703 397 716 377Q729 352 751 219Q758 191 779 166Q791 154 780 141Q765 126 724 103Q708 96 649 111Q556 129 516 141C505 143 520 179 530 173Q539 163 665 147Q683 144 689 150Q702 165 700 179Q687 303 674 329C670 339 650 346 656 354Z"/>
<path id="z22520d6" d="M539 274Q543 268 646 251Q667 245 658 235Q648 222 624 221Q591 218 537 249C530 253 532 278 539 274Z"/>
<path id="z22520d7" d="M548 365Q549 365 554 365Q611 358 656 354C666 352 683 334 674 329Q667 323 655 321Q631 318 547 342C540 344 540 365 548 365Z"/>
<path id="z22520d8" d="M523 489Q535 471 546 463Q553 456 550 446Q549 437 529 420Q510 407 497 406Q484 406 489 422Q496 437 490 450Q454 528 382 614Q375 621 372 625Q369 632 380 632Q422 623 508 509C518 496 518 496 523 489Z"/>
<path id="z22520d9" d="M708 488Q707 487 711 487Q756 478 782 478Q795 478 801 484Q810 508 796 647Q784 740 750 807Q737 832 721 833Q706 837 625 813Q615 810 615 816Q615 820 626 829Q672 872 693 905Q705 924 717 923Q733 926 751 910Q811 870 837 753Q855 675 871 554Q874 527 893 507Q906 494 905 487Q904 478 886 465Q861 444 826 433Q805 426 715 451Q711 451 708 453Q656 465 523 489C515 491 500 508 508 509Q521 512 536 513C547 513 558 515 568 511Q571 507 656 497C691 491 691 491 708 488Z"/>
<path id="z22520d10" d="M536 513Q536 514 537 517Q537 598 419 712Q413 716 413 721Q412 725 417 725Q462 725 569 596Q576 581 592 565Q599 556 593 545Q584 524 568 511C560 503 534 503 536 513Z"/>
<path id="z22520d11" d="M656 497Q677 563 572 716Q569 717 568 721Q537 763 460 845Q453 851 463 852Q517 839 608 734Q671 647 722 550Q729 537 734 531Q741 527 738 516Q732 498 708 488C692 481 653 480 656 497Z"/>
<defs>
	<clipPath id="z22520c1"><use xlink:href="#z22520d1"/></clipPath>
	<clipPath id="z22520c2"><use xlink:href="#z22520d2"/></clipPath>
	<clipPath id="z22520c3"><use xlink:href="#z22520d3"/></clipPath>
	<clipPath id="z22520c4"><use xlink:href="#z22520d4"/></clipPath>
	<clipPath id="z22520c5"><use xlink:href="#z22520d5"/></clipPath>
	<clipPath id="z22520c6"><use xlink:href="#z22520d6"/></clipPath>
	<clipPath id="z22520c7"><use xlink:href="#z22520d7"/></clipPath>
	<clipPath id="z22520c8"><use xlink:href="#z22520d8"/></clipPath>
	<clipPath id="z22520c9"><use xlink:href="#z22520d9"/></clipPath>
	<clipPath id="z22520c10"><use xlink:href="#z22520d10"/></clipPath>
	<clipPath id="z22520c11"><use xlink:href="#z22520d11"/></clipPath>
</defs>
<path style="--d:1s;" pathLength="3333" clip-path="url(#z22520c1)" d="M119 400L384 360"/>
<path style="--d:2s;" pathLength="3333" clip-path="url(#z22520c2)" d="M229 138L289 191L263 586"/>
<path style="--d:3s;" pathLength="3333" clip-path="url(#z22520c3)" d="M86 661L160 671L387 550"/>
<path style="--d:4s;" pathLength="3333" clip-path="url(#z22520c4)" d="M475 139L506 186L534 399"/>
<path style="--d:5s;" pathLength="3333" clip-path="url(#z22520c5)" d="M523 143L700 125L742 163L682 382"/>
<path style="--d:6s;" pathLength="3333" clip-path="url(#z22520c6)" d="M543 264L654 240"/>
<path style="--d:7s;" pathLength="3333" clip-path="url(#z22520c7)" d="M555 358L666 332"/>
<path style="--d:8s;" pathLength="3333" clip-path="url(#z22520c8)" d="M498 417L517 458L379 627"/>
<path style="--d:9s;" pathLength="3333" clip-path="url(#z22520c9)" d="M516 505L788 456L853 492L812 727L771 838L713 878L625 817"/>
<path style="--d:10s;" pathLength="3333" clip-path="url(#z22520c10)" d="M542 520L560 564L418 718"/>
<path style="--d:11s;" pathLength="3333" clip-path="url(#z22520c11)" d="M664 504L697 538L643 642L560 760L466 846"/>
</svg>