<!--
AnimCJK 2016-2019 Copyright Francois Mizessyn - https://github.com/parsimonhi/animCJK
Derived from:
    MakeMeAHanzi project - https://github.com/skishore/makemeahanzi
    Arphic PL KaitiM GB font
    Arphic PL UKai font
You can redistribute and/or modify this file under the terms of the Arphic Public License
as published by Arphic Technology Co., Ltd.
You should have received a copy of this license along with this file.
If not, see http://ftp.gnu.org/non-gnu/chinese-fonts-truetype/LICENSE.
-->
<svg id="z22541" class="acjk" version="1.1" viewBox="0 0 1024 1024" xmlns="http://www.w3.org/2000/svg" xmlns:xlink="http://www.w3.org/1999/xlink">
<style>
<![CDATA[
@keyframes zk {
	to {
		stroke-dashoffset:0;
	}
}
svg.acjk path[clip-path] {
	--t:0.8s;
	animation:zk var(--t) linear forwards var(--d);
	stroke-dasharray:3337;
	stroke-dashoffset:3339;
	stroke-width:128;
	stroke-linecap:round;
	fill:none;
	stroke:#000;
}
svg.acjk path[id] {fill:#ccc;}
]]>
</style>
<path id="z22541d1" d="M296 427Q372 400 374 399Q381 392 376 383Q369 373 339 368Q317 365 298 373C267 386 267 386 252 393Q156 421 129 427Q95 437 122 450Q161 466 244 443Q247 442 252 441C281 432 281 432 296 427Z"/>
<path id="z22541d2" d="M289 606Q293 515 296 427C297 391 297 391 298 373Q301 250 320 182Q323 170 302 156Q268 137 242 133Q226 130 218 139Q211 146 219 162Q247 202 247 229Q251 308 252 393C252 425 252 425 252 441Q251 528 247 623C247 638 289 621 289 606Z"/>
<path id="z22541d3" d="M247 623Q192 642 135 666Q119 673 89 675Q76 678 75 689Q74 702 85 710Q110 723 146 740Q156 741 168 732Q273 662 381 590Q394 580 393 571Q387 567 375 570Q333 586 289 606C261 617 261 617 247 623Z"/>
<path id="z22541d4" d="M550 222Q598 156 619 140Q628 131 625 120Q622 108 599 88Q578 70 562 70Q546 70 551 89Q558 107 552 122Q530 171 497 218Q466 261 423 310Q414 319 412 323Q408 333 421 331Q446 327 513 261Q520 252 531 243C544 229 544 229 550 222Z"/>
<path id="z22541d5" d="M610 364Q629 345 668 302Q707 257 745 233Q763 223 750 210Q737 197 699 177Q683 171 668 182Q659 186 584 213Q568 217 550 222C541 224 522 239 531 243Q552 252 639 231Q648 228 651 231Q655 234 649 243Q615 316 592 351Q585 363 583 370C580 379 603 371 610 364Z"/>
<path id="z22541d6" d="M452 391Q442 384 409 380Q399 377 395 382Q389 388 397 403Q422 452 439 536Q442 561 457 577Q473 598 478 583Q481 574 481 562C480 541 480 541 479 531Q467 450 462 421C460 411 461 396 452 391Z"/>
<path id="z22541d7" d="M780 493Q807 418 841 397Q859 379 844 361Q774 303 721 329Q663 350 610 364C592 368 592 368 583 370Q519 382 452 391C442 393 451 421 462 421Q475 421 491 416Q524 409 560 402C592 395 592 395 608 392Q660 379 711 369Q739 362 750 374Q759 383 755 401Q742 450 728 491C723 507 774 509 780 493Z"/>
<path id="z22541d8" d="M605 545Q681 535 796 528Q806 527 807 519Q808 512 780 493C765 484 745 488 728 491Q667 501 613 513C579 518 579 518 562 521Q519 525 479 531C469 533 471 562 481 562Q490 563 500 561Q524 555 556 552C589 547 589 547 605 545Z"/>
<path id="z22541d9" d="M556 552Q513 738 350 842Q335 852 320 862Q308 869 319 873Q332 873 364 862Q421 840 463 803Q563 724 599 572Q599 566 601 563Q602 554 605 545C610 524 610 524 613 513Q614 506 617 497Q623 463 639 434Q649 418 634 409Q621 399 608 392C594 384 554 387 560 402Q570 426 569 453Q569 466 562 521C558 542 558 542 556 552Z"/>
<path id="z22541d10" d="M957 819Q944 791 924 704Q923 691 917 686Q911 683 908 699Q890 792 874 822Q850 852 757 847Q723 844 696 833Q672 821 666 806Q648 764 675 629Q681 602 635 581Q623 577 615 581Q608 585 613 602Q625 639 621 674Q611 791 621 823Q625 844 644 862Q707 916 853 896Q866 893 881 890Q918 880 953 857Q971 842 957 819Z"/>
<path id="z22541d11" d="M725 655Q744 679 766 707Q776 720 790 721Q799 722 805 711Q811 699 807 672Q806 654 780 638Q720 607 708 609Q704 612 703 623Q704 633 725 655Z"/>
<defs>
	<clipPath id="z22541c1"><use xlink:href="#z22541d1"/></clipPath>
	<clipPath id="z22541c2"><use xlink:href="#z22541d2"/></clipPath>
	<clipPath id="z22541c3"><use xlink:href="#z22541d3"/></clipPath>
	<clipPath id="z22541c4"><use xlink:href="#z22541d4"/></clipPath>
	<clipPath id="z22541c5"><use xlink:href="#z22541d5"/></clipPath>
	<clipPath id="z22541c6"><use xlink:href="#z22541d6"/></clipPath>
	<clipPath id="z22541c7"><use xlink:href="#z22541d7"/></clipPath>
	<clipPath id="z22541c8"><use xlink:href="#z22541d8"/></clipPath>
	<clipPath id="z22541c9"><use xlink:href="#z22541d9"/></clipPath>
	<clipPath id="z22541c10"><use xlink:href="#z22541d10"/></clipPath>
	<clipPath id="z22541c11"><use xlink:href="#z22541d11"/></clipPath>
</defs>
<path style="--d:1s;" pathLength="3333" clip-path="url(#z22541c1)" d="M114 439L374 390"/>
<path style="--d:2s;" pathLength="3333" clip-path="url(#z22541c2)" d="M221 142L281 195L255 616"/>
<path style="--d:3s;" pathLength="3333" clip-path="url(#z22541c3)" d="M78 688L151 699L383 573"/>
<path style="--d:4s;" pathLength="3333" clip-path="url(#z22541c4)" d="M559 77L588 128L418 323"/>
<path style="--d:5s;" pathLength="3333" clip-path="url(#z22541c5)" d="M545 238L669 204L702 223L592 364"/>
<path style="--d:6s;" pathLength="3333" clip-path="url(#z22541c6)" d="M400 387L435 424L467 580"/>
<path style="--d:7s;" pathLength="3333" clip-path="url(#z22541c7)" d="M461 396L749 344L803 387L742 490"/>
<path style="--d:8s;" pathLength="3333" clip-path="url(#z22541c8)" d="M487 554L719 512L800 520"/>
<path style="--d:9s;" pathLength="3333" clip-path="url(#z22541c9)" d="M567 405L606 434L531 686L430 805L322 866"/>
<path style="--d:10s;" pathLength="3333" clip-path="url(#z22541c10)" d="M621 584L648 632L640 802L696 861L824 872L910 839L916 692"/>
<path style="--d:11s;" pathLength="3333" clip-path="url(#z22541c11)" d="M711 616L796 716"/>
</svg>