<!--
AnimCJK 2016-2018 Copyright Francois Mizessyn - https://github.com/parsimonhi/animCJK
Derived from:
    MakeMeAHanzi project - https://github.com/skishore/makemeahanzi
    Arphic PL KaitiM GB font
    Arphic PL UKai font
You can redistribute and/or modify this file under the terms of the Arphic Public License
as published by Arphic Technology Co., Ltd.
You should have received a copy of this license along with this file.
If not, see http://ftp.gnu.org/non-gnu/chinese-fonts-truetype/LICENSE.
-->
<svg id="z22570" class="acjk" version="1.1" viewBox="0 0 1024 1024" xmlns="http://www.w3.org/2000/svg" xmlns:xlink="http://www.w3.org/1999/xlink">
<style>
<![CDATA[
@keyframes zk {
	to {
		stroke-dashoffset:0;
	}
}
svg.acjk path[clip-path] {
	--t:0.8s;
	animation:zk var(--t) linear forwards calc(var(--d) * 1.25 * var(--t));
	stroke-dasharray:3337;
	stroke-dashoffset:3339;
	stroke-width:128;
	stroke-linecap:round;
	fill:none;
	stroke:#000;
}
svg.acjk path[id] {fill:#ccc;}
]]>
</style>
<path id="z22570d1" d="M296 423Q318 414 346 407Q377 397 382 391Q389 384 384 375Q377 365 347 360Q320 359 297 369C264 383 264 383 248 390Q179 414 121 427Q87 437 114 450Q156 468 209 450Q228 444 248 438C280 428 280 428 296 423Z"/>
<path id="z22570d2" d="M289 604Q293 510 296 423C297 387 297 387 297 369Q298 279 317 183Q321 171 299 156Q262 137 237 134Q221 130 212 139Q205 148 213 163Q241 200 241 228Q245 306 248 390C248 422 248 422 248 438Q248 526 246 623C246 639 289 620 289 604Z"/>
<path id="z22570d3" d="M246 623Q189 647 128 673Q112 680 83 683Q70 686 70 697Q69 710 80 718Q105 731 142 746Q152 747 164 737Q185 715 335 617Q356 604 370 590Q382 580 381 571Q375 567 363 570Q327 586 289 604C260 617 260 617 246 623Z"/>
<path id="z22570d4" d="M761 291Q777 287 798 284Q864 271 874 262Q883 255 878 247Q872 237 846 228Q819 222 763 241C728 252 728 252 710 257Q680 263 561 289C530 294 530 294 514 296Q475 299 437 303Q404 307 427 323Q466 348 516 336C545 331 545 331 560 329Q633 314 710 301C744 294 744 294 761 291Z"/>
<path id="z22570d5" d="M561 289Q565 222 569 203Q573 178 559 165Q535 144 506 133Q491 126 481 133Q472 139 479 156Q500 210 514 296C515 323 515 323 516 336Q517 420 517 601C517 615 559 608 559 594Q558 552 558 516C558 499 558 499 558 491Q558 455 559 423C559 407 559 407 559 399Q559 365 560 329C561 302 561 302 561 289Z"/>
<path id="z22570d6" d="M746 561Q755 420 761 291C762 258 762 258 763 241Q769 166 785 105Q789 93 768 78Q731 57 704 53Q686 49 678 58Q671 67 679 83Q707 125 707 153Q708 202 710 257C710 286 710 286 710 301Q710 428 702 570C702 585 746 576 746 561Z"/>
<path id="z22570d7" d="M559 423Q560 423 564 423Q625 411 669 405Q688 401 681 390Q671 378 651 376Q615 373 559 399C552 402 551 423 559 423Z"/>
<path id="z22570d8" d="M558 516Q624 504 673 496Q692 493 685 482Q676 470 655 467Q627 464 558 491C550 494 550 518 558 516Z"/>
<path id="z22570d9" d="M475 646Q677 588 939 588Q960 588 964 579Q968 569 953 557Q904 521 843 540Q800 549 746 561C717 567 717 567 702 570Q675 573 649 579Q606 586 559 594C531 599 531 599 517 601Q447 611 374 624Q356 625 370 641Q395 663 432 658C461 650 461 650 475 646Z"/>
<path id="z22570d10" d="M575 659Q581 704 504 796Q500 800 506 801Q551 801 624 695Q628 691 630 688Q634 684 634 677Q633 671 623 663Q602 645 579 649Q573 650 575 659Z"/>
<path id="z22570d11" d="M720 675Q748 711 779 753Q786 765 799 767Q808 768 813 759Q820 749 818 725Q815 689 725 638Q713 632 708 634Q704 635 703 646Q704 655 720 675Z"/>
<path id="z22570d12" d="M432 658Q448 683 448 723Q449 817 418 865Q397 887 436 923Q446 933 463 921Q512 885 670 865Q761 855 876 864Q898 867 907 861Q914 855 909 843Q903 831 865 809Q841 794 782 808Q647 818 504 850Q489 854 487 850Q480 844 483 827Q493 719 504 688Q510 675 497 663Q487 653 475 646C463 637 423 646 432 658Z"/>
<defs>
	<clipPath id="z22570c1"><use xlink:href="#z22570d1"></use></clipPath>
	<clipPath id="z22570c2"><use xlink:href="#z22570d2"></use></clipPath>
	<clipPath id="z22570c3"><use xlink:href="#z22570d3"></use></clipPath>
	<clipPath id="z22570c4"><use xlink:href="#z22570d4"></use></clipPath>
	<clipPath id="z22570c5"><use xlink:href="#z22570d5"></use></clipPath>
	<clipPath id="z22570c6"><use xlink:href="#z22570d6"></use></clipPath>
	<clipPath id="z22570c7"><use xlink:href="#z22570d7"></use></clipPath>
	<clipPath id="z22570c8"><use xlink:href="#z22570d8"></use></clipPath>
	<clipPath id="z22570c9"><use xlink:href="#z22570d9"></use></clipPath>
	<clipPath id="z22570c10"><use xlink:href="#z22570d10"></use></clipPath>
	<clipPath id="z22570c11"><use xlink:href="#z22570d11"></use></clipPath>
	<clipPath id="z22570c12"><use xlink:href="#z22570d12"></use></clipPath>
</defs>
<path style="--d:1;" pathLength="3333" clip-path="url(#z22570c1)" d="M110 437L376 382"/>
<path style="--d:2;" pathLength="3333" clip-path="url(#z22570c2)" d="M217 146L276 190L268 594L251 613"/>
<path style="--d:3;" pathLength="3333" clip-path="url(#z22570c3)" d="M73 695L144 707L372 574"/>
<path style="--d:4;" pathLength="3333" clip-path="url(#z22570c4)" d="M426 312L516 316L875 251"/>
<path style="--d:5;" pathLength="3333" clip-path="url(#z22570c5)" d="M486 141L532 195L529 598"/>
<path style="--d:6;" pathLength="3333" clip-path="url(#z22570c6)" d="M682 59L744 118L715 566"/>
<path style="--d:7;" pathLength="3333" clip-path="url(#z22570c7)" d="M563 415L675 397"/>
<path style="--d:8;" pathLength="3333" clip-path="url(#z22570c8)" d="M567 507L681 485"/>
<path style="--d:9;" pathLength="3333" clip-path="url(#z22570c9)" d="M373 631L855 563L959 571"/>
<path style="--d:10;" pathLength="3333" clip-path="url(#z22570c10)" d="M581 653L602 685L511 796"/>
<path style="--d:11;" pathLength="3333" clip-path="url(#z22570c11)" d="M710 640L802 761"/>
<path style="--d:12;" pathLength="3333" clip-path="url(#z22570c12)" d="M440 662L476 695L451 868L467 889L695 839L837 831L906 851"/>
</svg>