<!--
AnimCJK 2016-2018 Copyright Francois Mizessyn - https://github.com/parsimonhi/animCJK
Derived from:
    MakeMeAHanzi project - https://github.com/skishore/makemeahanzi
    Arphic PL KaitiM GB - https://apps.ubuntu.com/cat/applications/precise/fonts-arphic-gkai00mp/
    Arphic PL UKai - https://apps.ubuntu.com/cat/applications/fonts-arphic-ukai/
You can redistribute and/or modify this file under the terms of the Arphic Public License
as published by Arphic Technology Co., Ltd.
You should have received a copy of this license (the directory "APL") along with this file;
if not, see http://ftp.gnu.org/non-gnu/chinese-fonts-truetype/LICENSE.
-->
<svg id="z22604" class="acjk" version="1.1" viewBox="0 0 1024 1024" xmlns="http://www.w3.org/2000/svg" xmlns:xlink="http://www.w3.org/1999/xlink">
<style>
<![CDATA[
@keyframes z22604k {
	from {
		stroke:#ccc;
		stroke-dashoffset:3334;
	}
	1% {
		stroke:#c00;
		stroke-dashoffset:3334;
	}
	75% {
		stroke:#c00;
		stroke-dashoffset:0;
	}
	to {
		stroke:#000;
	}
}
#z22604 path[clip-path] {
	animation:z22604k 1s linear both;
	stroke-dasharray:3334;
	stroke-width:128;
	stroke-linecap:round;
	fill:none;
}
#z22604 path[clip-path="url(#z22604c1)"] {animation-delay:1s;}
#z22604 path[clip-path="url(#z22604c2)"] {animation-delay:2s;}
#z22604 path[clip-path="url(#z22604c3)"] {animation-delay:3s;}
#z22604 path[clip-path="url(#z22604c4)"] {animation-delay:4s;}
#z22604 path[clip-path="url(#z22604c5)"] {animation-delay:5s;}
#z22604 path[clip-path="url(#z22604c6)"] {animation-delay:6s;}
#z22604 path[clip-path="url(#z22604c7)"] {animation-delay:7s;}
#z22604 path[clip-path="url(#z22604c8)"] {animation-delay:8s;}
#z22604 path[clip-path="url(#z22604c9)"] {animation-delay:9s;}
#z22604 path[clip-path="url(#z22604c10)"] {animation-delay:10s;}
#z22604 path[clip-path="url(#z22604c11)"] {animation-delay:11s;}
#z22604 path[clip-path="url(#z22604c12)"] {animation-delay:12s;}
#z22604 path[clip-path="url(#z22604c13)"] {animation-delay:13s;}
#z22604 path {fill:#ccc;}
]]>
</style>
<path id="z22604d1" d="M281 368Q371 335 373 335Q380 328 376 319Q369 309 339 304Q311 301 283 315C250 328 250 328 234 334Q162 358 110 367Q76 376 102 390Q145 409 197 392Q215 386 235 381C266 372 266 372 281 368 Z"/>
<path id="z22604d2" d="M274 533Q278 448 281 368C282 333 282 333 283 315Q284 233 303 146Q307 134 286 120Q252 101 226 97Q210 94 202 103Q195 110 203 125Q228 162 229 188Q233 258 234 334C235 365 235 365 235 381Q234 462 231 551C231 567 274 549 274 533 Z"/>
<path id="z22604d3" d="M231 551Q176 573 117 598Q101 605 72 607Q59 610 58 621Q57 634 68 642Q93 655 130 671Q140 672 152 662Q176 637 323 545Q344 532 358 518Q370 508 369 499Q363 495 351 498Q314 514 274 533C245 545 245 545 231 551 Z"/>
<path id="z22604d4" d="M479 133Q469 127 441 124Q431 121 427 126Q421 132 429 147Q460 211 479 314Q483 345 500 365Q518 386 522 371Q525 362 525 350C524 334 524 334 524 326Q520 292 512 261C509 244 509 244 507 236Q497 188 495 167C493 155 490 139 479 133 Z"/>
<path id="z22604d5" d="M700 326Q700 329 702 333Q708 348 720 347Q733 346 740 331Q753 315 774 238Q790 187 825 158Q843 142 827 127Q811 111 761 86Q748 77 680 94Q650 94 552 118Q512 127 479 133C467 135 483 171 495 167Q549 149 701 127Q722 126 731 130Q740 136 735 165Q713 273 704 298C701 307 698 317 700 326 Z"/>
<path id="z22604d6" d="M512 261Q512 260 672 234Q693 230 685 219Q675 206 653 202Q632 199 507 236C499 239 504 263 512 261 Z"/>
<path id="z22604d7" d="M525 350Q529 350 535 350Q629 334 700 326C709 324 713 301 704 298Q698 295 691 294Q676 291 524 326C516 327 517 350 525 350 Z"/>
<path id="z22604d8" d="M490 832Q463 826 437 821Q419 817 421 824Q475 864 506 896Q516 912 530 916Q537 920 545 911Q578 872 578 809Q560 532 584 491Q594 475 585 466Q567 450 536 436Q521 430 469 453Q445 460 395 467Q382 468 389 475Q396 485 409 489Q430 493 498 475Q514 471 519 480Q534 519 523 781Q514 829 512 832Q508 836 490 832 Z"/>
<path id="z22604d9" d="M387 564Q429 618 451 619Q463 620 469 604Q470 592 461 575Q454 562 434 555Q403 542 391 540Q382 539 382 549Q381 556 387 564 Z"/>
<path id="z22604d10" d="M290 752Q280 756 280 765Q281 777 291 781Q313 790 345 798Q355 799 363 789Q379 765 471 687Q484 677 492 665Q501 655 499 648Q493 644 484 649Q328 742 290 752 Z"/>
<path id="z22604d11" d="M761 851Q733 844 703 837Q684 831 685 841Q743 887 778 922Q791 941 805 945Q814 949 822 939Q856 891 858 825Q837 501 860 458Q872 439 860 430Q841 412 806 397Q788 390 773 397Q728 424 651 433Q636 434 645 442Q652 452 666 458Q684 461 763 441Q782 437 787 446Q794 470 799 666Q799 826 785 850Q781 856 761 851 Z"/>
<path id="z22604d12" d="M619 537Q667 595 690 599Q703 600 709 583Q710 571 701 552Q692 537 671 530Q637 515 623 512Q616 511 614 521Q613 528 619 537 Z"/>
<path id="z22604d13" d="M594 719Q584 723 586 732Q587 742 598 746Q620 752 651 757Q660 757 666 746Q676 727 746 650Q755 640 761 629Q768 619 766 612Q760 609 752 615Q623 711 594 719 Z"/>
<defs>
	<clipPath id="z22604c1"><use xlink:href="#z22604d1"/></clipPath>
	<clipPath id="z22604c2"><use xlink:href="#z22604d2"/></clipPath>
	<clipPath id="z22604c3"><use xlink:href="#z22604d3"/></clipPath>
	<clipPath id="z22604c4"><use xlink:href="#z22604d4"/></clipPath>
	<clipPath id="z22604c5"><use xlink:href="#z22604d5"/></clipPath>
	<clipPath id="z22604c6"><use xlink:href="#z22604d6"/></clipPath>
	<clipPath id="z22604c7"><use xlink:href="#z22604d7"/></clipPath>
	<clipPath id="z22604c8"><use xlink:href="#z22604d8"/></clipPath>
	<clipPath id="z22604c9"><use xlink:href="#z22604d9"/></clipPath>
	<clipPath id="z22604c10"><use xlink:href="#z22604d10"/></clipPath>
	<clipPath id="z22604c11"><use xlink:href="#z22604d11"/></clipPath>
	<clipPath id="z22604c12"><use xlink:href="#z22604d12"/></clipPath>
	<clipPath id="z22604c13"><use xlink:href="#z22604d13"/></clipPath>
</defs>
<path pathLength="3333" clip-path="url(#z22604c1)" d="M97 378L373 321"/>
<path pathLength="3333" clip-path="url(#z22604c2)" d="M205 106L264 156L253 523L236 541"/>
<path pathLength="3333" clip-path="url(#z22604c3)" d="M61 621L126 635L364 506"/>
<path pathLength="3333" clip-path="url(#z22604c4)" d="M431 130L469 174L514 371"/>
<path pathLength="3333" clip-path="url(#z22604c5)" d="M488 134L734 105L764 119L784 155L717 343"/>
<path pathLength="3333" clip-path="url(#z22604c6)" d="M513 241L680 220"/>
<path pathLength="3333" clip-path="url(#z22604c7)" d="M534 342L699 305"/>
<path pathLength="3333" clip-path="url(#z22604c8)" d="M394 472L521 455L555 486L539 854L515 875L431 824"/>
<path pathLength="3333" clip-path="url(#z22604c9)" d="M389 548L457 613"/>
<path pathLength="3333" clip-path="url(#z22604c10)" d="M284 763L343 765L493 653"/>
<path pathLength="3333" clip-path="url(#z22604c11)" d="M650 438L790 418L827 449L816 870L789 898L693 840"/>
<path pathLength="3333" clip-path="url(#z22604c12)" d="M622 519L701 589"/>
<path pathLength="3333" clip-path="url(#z22604c13)" d="M591 731L645 727L760 617"/>
</svg>