<!--
AnimCJK 2016-2019 Copyright Francois Mizessyn - https://github.com/parsimonhi/animCJK
Derived from:
    MakeMeAHanzi project - https://github.com/skishore/makemeahanzi
    Arphic PL KaitiM GB font
    Arphic PL UKai font
You can redistribute and/or modify this file under the terms of the Arphic Public License
as published by Arphic Technology Co., Ltd.
You should have received a copy of this license along with this file.
If not, see http://ftp.gnu.org/non-gnu/chinese-fonts-truetype/LICENSE.
-->
<svg id="z22616" class="acjk" version="1.1" viewBox="0 0 1024 1024" xmlns="http://www.w3.org/2000/svg" xmlns:xlink="http://www.w3.org/1999/xlink">
<style>
<![CDATA[
@keyframes zk {
	to {
		stroke-dashoffset:0;
	}
}
svg.acjk path[clip-path] {
	--t:0.8s;
	animation:zk var(--t) linear forwards var(--d);
	stroke-dasharray:3337;
	stroke-dashoffset:3339;
	stroke-width:128;
	stroke-linecap:round;
	fill:none;
	stroke:#000;
}
svg.acjk path[id] {fill:#ccc;}
]]>
</style>
<path id="z22616d1" d="M288 392Q370 368 377 362Q384 355 380 346Q373 336 345 332Q317 328 291 342Q290 342 290 343C259 354 259 354 244 360Q181 381 129 389Q96 398 122 411Q162 430 211 413Q227 409 244 404C273 396 273 396 288 392Z"/>
<path id="z22616d2" d="M280 562Q284 474 288 392C289 359 289 359 290 343Q291 255 310 168Q314 158 294 143Q260 125 236 121Q220 118 212 127Q205 134 213 149Q238 186 239 211Q243 283 244 360C244 389 244 389 244 404Q244 488 240 580C240 595 280 577 280 562Z"/>
<path id="z22616d3" d="M240 580Q179 605 114 633Q98 640 68 643Q55 646 54 657Q53 670 64 678Q89 691 126 706Q136 707 148 698Q256 623 366 546Q378 536 377 527Q371 523 359 526Q322 542 280 562C253 574 253 574 240 580Z"/>
<path id="z22616d4" d="M601 90Q626 109 654 132Q667 144 683 142Q693 141 697 128Q700 113 690 85Q677 55 593 44Q577 43 572 45Q568 49 570 61Q574 71 601 90Z"/>
<path id="z22616d5" d="M483 249Q522 258 552 251Q819 203 830 194Q839 187 834 179Q828 169 802 161Q777 155 658 190Q516 214 473 219Q469 219 469 220C458 222 472 247 483 249Z"/>
<path id="z22616d6" d="M469 220Q427 187 406 195Q394 202 400 215Q421 245 417 299Q396 533 359 632Q325 720 239 859Q233 865 232 871Q229 881 239 879Q269 873 348 756Q363 729 380 697Q447 543 468 324Q471 270 483 249C489 240 478 226 469 220Z"/>
<path id="z22616d7" d="M777 564Q787 515 799 484C812 456 812 456 818 442Q830 418 845 406Q860 387 846 371Q830 359 780 338Q762 331 742 340Q703 356 668 369C634 378 634 378 617 383Q559 396 499 405Q483 406 486 416Q489 423 506 429Q530 439 563 426Q588 419 618 414C649 407 649 407 664 404Q695 395 726 389Q747 383 755 391Q767 403 764 428Q761 441 759 454C754 477 754 477 752 488Q742 528 731 565C728 580 774 579 777 564Z"/>
<path id="z22616d8" d="M617 479Q542 489 461 502Q445 503 457 517Q469 527 483 532Q499 536 512 532Q561 516 616 507C643 503 643 503 656 501Q672 495 752 488C783 485 783 485 799 484Q844 480 898 479Q917 479 936 478Q952 478 955 471Q959 461 946 451Q901 420 846 436Q833 437 818 442C779 450 779 450 759 454Q689 463 659 472C631 477 631 477 617 479Z"/>
<path id="z22616d9" d="M611 593Q548 603 494 610Q475 613 486 629Q501 644 548 634Q573 628 608 624C633 620 633 620 646 618Q709 608 797 600Q807 599 808 591Q808 584 780 565Q779 564 777 564C763 558 746 562 731 565Q688 575 649 584C624 590 624 590 611 593Z"/>
<path id="z22616d10" d="M618 414Q618 444 617 479C616 498 616 498 616 507Q616 514 616 524Q613 561 611 593C609 614 609 614 608 624Q602 649 613 681Q617 691 627 686Q642 671 646 618C648 595 648 595 649 584Q652 541 656 501C658 482 658 482 659 472Q660 445 663 421Q663 412 664 404C667 381 667 381 668 369Q671 344 676 330Q683 314 673 302Q660 289 636 277Q617 268 596 276Q586 283 597 297Q616 331 617 383C618 404 618 404 618 414Z"/>
<path id="z22616d11" d="M477 716Q474 715 472 715Q460 712 457 717Q450 723 459 739Q486 794 501 884Q504 911 520 928Q538 950 543 935Q547 922 547 900C544 875 544 875 542 863Q529 778 527 753C527 732 497 720 477 716Z"/>
<path id="z22616d12" d="M773 843Q803 768 833 749Q851 731 837 713Q758 647 717 678Q548 730 477 716C457 713 507 756 527 753C650 731 650 731 711 720Q733 716 742 724Q755 740 723 835C717 851 767 859 773 843Z"/>
<path id="z22616d13" d="M547 900Q553 900 562 899Q632 886 785 880Q797 879 799 870Q799 861 773 843C759 834 740 835 723 835Q720 834 718 835Q619 854 542 863C530 865 535 900 547 900Z"/>
<defs>
	<clipPath id="z22616c1"><use xlink:href="#z22616d1"/></clipPath>
	<clipPath id="z22616c2"><use xlink:href="#z22616d2"/></clipPath>
	<clipPath id="z22616c3"><use xlink:href="#z22616d3"/></clipPath>
	<clipPath id="z22616c4"><use xlink:href="#z22616d4"/></clipPath>
	<clipPath id="z22616c5"><use xlink:href="#z22616d5"/></clipPath>
	<clipPath id="z22616c6"><use xlink:href="#z22616d6"/></clipPath>
	<clipPath id="z22616c7"><use xlink:href="#z22616d7"/></clipPath>
	<clipPath id="z22616c8"><use xlink:href="#z22616d8"/></clipPath>
	<clipPath id="z22616c9"><use xlink:href="#z22616d9"/></clipPath>
	<clipPath id="z22616c10"><use xlink:href="#z22616d10"/></clipPath>
	<clipPath id="z22616c11"><use xlink:href="#z22616d11"/></clipPath>
	<clipPath id="z22616c12"><use xlink:href="#z22616d12"/></clipPath>
	<clipPath id="z22616c13"><use xlink:href="#z22616d13"/></clipPath>
</defs>
<path style="--d:1s;" pathLength="3333" clip-path="url(#z22616c1)" d="M118 399L377 348"/>
<path style="--d:2s;" pathLength="3333" clip-path="url(#z22616c2)" d="M216 131L272 175L261 546L245 571"/>
<path style="--d:3s;" pathLength="3333" clip-path="url(#z22616c3)" d="M58 658L129 667L372 533"/>
<path style="--d:4s;" pathLength="3333" clip-path="url(#z22616c4)" d="M576 50L689 135"/>
<path style="--d:5s;" pathLength="3333" clip-path="url(#z22616c5)" d="M480 225L831 182"/>
<path style="--d:6s;" pathLength="3333" clip-path="url(#z22616c6)" d="M408 205L449 254L403 563L333 740L238 872"/>
<path style="--d:7s;" pathLength="3333" clip-path="url(#z22616c7)" d="M494 413L779 370L808 403L740 559"/>
<path style="--d:8s;" pathLength="3333" clip-path="url(#z22616c8)" d="M460 506L858 456L951 465"/>
<path style="--d:9s;" pathLength="3333" clip-path="url(#z22616c9)" d="M490 619L801 588"/>
<path style="--d:10s;" pathLength="3333" clip-path="url(#z22616c10)" d="M597 280L644 322L621 681"/>
<path style="--d:11s;" pathLength="3333" clip-path="url(#z22616c11)" d="M463 718L502 772L534 934"/>
<path style="--d:12s;" pathLength="3333" clip-path="url(#z22616c12)" d="M488 721L534 735L754 697L794 738L749 838"/>
<path style="--d:13s;" pathLength="3333" clip-path="url(#z22616c13)" d="M549 868L793 868"/>
</svg>