<!--
AnimCJK 2016-2018 Copyright Francois Mizessyn, https://github.com/parsimonhi/animCJK
Derived from:
    MakeMeAHanzi project - https://github.com/skishore/makemeahanzi
    Arphic PL KaitiM GB - https://apps.ubuntu.com/cat/applications/precise/fonts-arphic-gkai00mp/
    Arphic PL UKai - https://apps.ubuntu.com/cat/applications/fonts-arphic-ukai/
You can redistribute and/or modify this file under the terms of the Arphic Public License
as published by Arphic Technology Co., Ltd.
You should have received a copy of this license (the directory "APL") along with this file;
if not, see http://ftp.gnu.org/non-gnu/chinese-fonts-truetype/LICENSE.
-->
<svg id="z22659" class="acjk" version="1.1" viewBox="0 0 1024 1024" xmlns="http://www.w3.org/2000/svg" xmlns:xlink="http://www.w3.org/1999/xlink">
<style>
<![CDATA[
@keyframes z22659k {
	from {
		stroke:#c00;
		stroke-dashoffset:3334;
	}
	75% {
		stroke:#c00;
		stroke-dashoffset:0;
	}
	to {
		stroke:#000;
	}
}
#z22659 path[clip-path] {
	animation:z22659k 1s linear both;
	stroke-dasharray:3334;
	stroke-width:128;
	stroke-linecap:round;
	fill:none;
}
#z22659 path[clip-path="url(#z22659c1)"] {animation-delay:1s;}
#z22659 path[clip-path="url(#z22659c2)"] {animation-delay:2s;}
#z22659 path[clip-path="url(#z22659c3)"] {animation-delay:3s;}
#z22659 path[clip-path="url(#z22659c4)"] {animation-delay:4s;}
#z22659 path[clip-path="url(#z22659c5)"] {animation-delay:5s;}
#z22659 path[clip-path="url(#z22659c6)"] {animation-delay:6s;}
#z22659 path[clip-path="url(#z22659c7)"] {animation-delay:7s;}
#z22659 path[clip-path="url(#z22659c8)"] {animation-delay:8s;}
#z22659 path[clip-path="url(#z22659c9)"] {animation-delay:9s;}
#z22659 path[clip-path="url(#z22659c10)"] {animation-delay:10s;}
#z22659 path[clip-path="url(#z22659c11)"] {animation-delay:11s;}
#z22659 path[clip-path="url(#z22659c12)"] {animation-delay:12s;}
#z22659 path[clip-path="url(#z22659c13)"] {animation-delay:13s;}
#z22659 path[clip-path="url(#z22659c14)"] {animation-delay:14s;}
#z22659 path {fill:#ccc;}
]]>
</style>
<path id="z22659d1" d="M293 400Q386 369 389 366Q396 357 392 350Q385 340 357 336Q330 333 295 351L243 372Q231 375 221 379Q173 395 117 405Q84 414 110 427Q146 445 216 422Q228 418 243 415L293 400 Z"/>
<path id="z22659d2" d="M283 595Q287 495 293 400L295 351Q296 284 316 192Q320 180 299 165Q262 146 237 141Q221 137 212 146Q205 155 213 170Q238 209 239 235Q242 301 243 372L243 415Q243 508 238 611L283 595 Z"/>
<path id="z22659d3" d="M238 611Q181 630 121 652Q105 658 75 659Q62 662 60 672Q59 685 69 694Q94 709 129 726Q139 727 152 719Q185 689 222 669Q280 638 336 607Q358 595 373 582Q386 573 386 563Q379 557 283 595L238 611 Z"/>
<path id="z22659d4" d="M574 86Q598 102 624 123Q637 133 652 130Q662 129 665 116Q668 101 656 76Q644 52 563 43Q550 42 544 45Q540 49 542 61Q546 71 574 86 Z"/>
<path id="z22659d5" d="M694 195Q709 191 728 188Q768 179 775 174Q782 167 779 159Q772 149 746 141Q722 135 622 166Q531 185 477 190Q443 196 467 211Q500 232 570 219Q615 210 663 201L694 195 Z"/>
<path id="z22659d6" d="M478 284Q503 329 526 343Q536 347 544 339Q551 330 551 318Q548 288 507 267Q483 252 474 254Q470 254 469 264Q469 271 478 284 Z"/>
<path id="z22659d7" d="M646 339Q682 296 719 252Q734 242 727 232Q720 216 696 196Q695 195 694 195L663 201L664 203Q670 230 628 317Q619 332 617 344L646 339 Z"/>
<path id="z22659d8" d="M617 344Q517 360 402 380Q383 383 398 397Q411 409 427 413Q446 417 461 413Q648 356 888 356L890 356Q908 355 912 347Q916 337 901 325Q850 289 782 310Q725 322 646 339L617 344 Z"/>
<path id="z22659d9" d="M463 466Q450 462 430 461Q420 458 416 463Q412 469 420 483Q448 535 468 623Q472 645 485 662L509 672Q509 671 510 671Q511 662 512 650L510 628Q507 609 497 572L493 551Q484 511 482 495L463 466 Z"/>
<path id="z22659d10" d="M672 632Q687 654 701 662Q710 669 724 650Q734 632 760 532Q769 505 789 483Q801 473 790 460Q777 445 740 422Q724 413 665 429Q565 447 463 466L482 495Q549 476 671 459Q698 455 706 464Q716 474 714 487Q696 592 684 604L672 632 Z"/>
<path id="z22659d11" d="M497 572Q503 573 514 572Q590 559 647 551Q669 547 661 535Q651 522 627 518Q602 515 493 551L497 572 Z"/>
<path id="z22659d12" d="M627 637Q648 633 672 632L684 604Q683 603 677 601Q659 598 510 628L512 650Q516 650 522 650Q559 644 594 641L627 637 Z"/>
<path id="z22659d13" d="M485 662Q475 663 474 676Q468 788 282 900Q275 906 280 909Q286 913 297 910Q423 888 513 752Q525 737 537 722Q546 715 542 705Q538 695 514 675Q511 672 509 672L485 662 Z"/>
<path id="z22659d14" d="M960 854Q944 829 918 746Q917 730 909 726Q902 723 900 741Q882 832 868 861Q841 891 745 888Q708 885 681 874Q656 861 650 846Q634 804 659 681Q665 657 627 637L594 641Q594 645 597 654Q609 691 605 726Q596 834 605 863Q609 885 629 904Q699 962 863 938Q872 935 881 934Q918 924 956 898Q975 880 960 854 Z"/>
<defs>
	<clipPath id="z22659c1"><use xlink:href="#z22659d1"/></clipPath>
	<clipPath id="z22659c2"><use xlink:href="#z22659d2"/></clipPath>
	<clipPath id="z22659c3"><use xlink:href="#z22659d3"/></clipPath>
	<clipPath id="z22659c4"><use xlink:href="#z22659d4"/></clipPath>
	<clipPath id="z22659c5"><use xlink:href="#z22659d5"/></clipPath>
	<clipPath id="z22659c6"><use xlink:href="#z22659d6"/></clipPath>
	<clipPath id="z22659c7"><use xlink:href="#z22659d7"/></clipPath>
	<clipPath id="z22659c8"><use xlink:href="#z22659d8"/></clipPath>
	<clipPath id="z22659c9"><use xlink:href="#z22659d9"/></clipPath>
	<clipPath id="z22659c10"><use xlink:href="#z22659d10"/></clipPath>
	<clipPath id="z22659c11"><use xlink:href="#z22659d11"/></clipPath>
	<clipPath id="z22659c12"><use xlink:href="#z22659d12"/></clipPath>
	<clipPath id="z22659c13"><use xlink:href="#z22659d13"/></clipPath>
	<clipPath id="z22659c14"><use xlink:href="#z22659d14"/></clipPath>
</defs>
<path pathLength="3333" clip-path="url(#z22659c1)" d="M107 415L388 349"/>
<path pathLength="3333" clip-path="url(#z22659c2)" d="M216 148L275 201L248 605"/>
<path pathLength="3333" clip-path="url(#z22659c3)" d="M64 675L132 687L378 569"/>
<path pathLength="3333" clip-path="url(#z22659c4)" d="M548 52L620 83L655 125"/>
<path pathLength="3333" clip-path="url(#z22659c5)" d="M466 200L772 160"/>
<path pathLength="3333" clip-path="url(#z22659c6)" d="M476 261L542 336"/>
<path pathLength="3333" clip-path="url(#z22659c7)" d="M671 203L692 244L624 336"/>
<path pathLength="3333" clip-path="url(#z22659c8)" d="M398 388L805 331L906 335"/>
<path pathLength="3333" clip-path="url(#z22659c9)" d="M422 468L457 503L502 665"/>
<path pathLength="3333" clip-path="url(#z22659c10)" d="M473 469L731 449L754 481L694 656"/>
<path pathLength="3333" clip-path="url(#z22659c11)" d="M498 554L657 540"/>
<path pathLength="3333" clip-path="url(#z22659c12)" d="M521 643L679 613"/>
<path pathLength="3333" clip-path="url(#z22659c13)" d="M482 672L505 712L455 787L394 847L285 906"/>
<path pathLength="3333" clip-path="url(#z22659c14)" d="M602 646L632 680L627 854L687 905L823 913L902 885L921 858L908 733"/>
</svg>