<!--
AnimCJK 2016-2018 Copyright Francois Mizessyn - https://github.com/parsimonhi/animCJK
Derived from:
    MakeMeAHanzi project - https://github.com/skishore/makemeahanzi
    Arphic PL KaitiM GB - https://apps.ubuntu.com/cat/applications/precise/fonts-arphic-gkai00mp/
    Arphic PL UKai - https://apps.ubuntu.com/cat/applications/fonts-arphic-ukai/
You can redistribute and/or modify this file under the terms of the Arphic Public License
as published by Arphic Technology Co., Ltd.
You should have received a copy of this license (the directory "APL") along with this file;
if not, see http://ftp.gnu.org/non-gnu/chinese-fonts-truetype/LICENSE.
-->
<svg id="z22656" class="acjk" version="1.1" viewBox="0 0 1024 1024" xmlns="http://www.w3.org/2000/svg" xmlns:xlink="http://www.w3.org/1999/xlink">
<style>
<![CDATA[
@keyframes z22656k {
	from {
		stroke:#c00;
		stroke-dashoffset:3334;
	}
	75% {
		stroke:#c00;
		stroke-dashoffset:0;
	}
	to {
		stroke:#000;
	}
}
#z22656 path[clip-path] {
	animation:z22656k 1s linear both;
	stroke-dasharray:3334;
	stroke-width:128;
	stroke-linecap:round;
	fill:none;
}
#z22656 path[clip-path="url(#z22656c1)"] {animation-delay:1s;}
#z22656 path[clip-path="url(#z22656c2)"] {animation-delay:2s;}
#z22656 path[clip-path="url(#z22656c3)"] {animation-delay:3s;}
#z22656 path[clip-path="url(#z22656c4)"] {animation-delay:4s;}
#z22656 path[clip-path="url(#z22656c5)"] {animation-delay:5s;}
#z22656 path[clip-path="url(#z22656c6)"] {animation-delay:6s;}
#z22656 path[clip-path="url(#z22656c7)"] {animation-delay:7s;}
#z22656 path[clip-path="url(#z22656c8)"] {animation-delay:8s;}
#z22656 path[clip-path="url(#z22656c9)"] {animation-delay:9s;}
#z22656 path[clip-path="url(#z22656c10)"] {animation-delay:10s;}
#z22656 path[clip-path="url(#z22656c11)"] {animation-delay:11s;}
#z22656 path[clip-path="url(#z22656c12)"] {animation-delay:12s;}
#z22656 path[clip-path="url(#z22656c13)"] {animation-delay:13s;}
#z22656 path[clip-path="url(#z22656c14)"] {animation-delay:14s;}
#z22656 path[clip-path="url(#z22656c15)"] {animation-delay:15s;}
#z22656 path {fill:#ccc;}
]]>
</style>
<path id="z22656d1" d="M285 402Q364 378 369 373Q378 364 372 356Q365 344 334 340Q309 336 287 345L238 366Q133 393 118 397Q81 407 110 421Q155 440 210 423Q223 419 239 415L285 402 Z"/>
<path id="z22656d2" d="M278 564Q282 480 285 402L287 345Q288 264 307 178Q311 166 290 152Q256 133 230 129Q214 126 206 135Q199 142 207 157Q232 194 233 219Q237 289 238 366L239 415Q238 494 235 580L278 564 Z"/>
<path id="z22656d3" d="M235 580Q180 599 119 622Q104 628 78 629Q65 632 64 642Q63 655 73 662Q97 677 131 692Q141 693 153 685Q249 622 346 557Q358 548 357 540Q351 534 339 538Q308 550 278 564L235 580 Z"/>
<path id="z22656d4" d="M769 214Q793 163 817 149Q833 133 820 116Q805 103 758 80Q742 73 722 80Q637 116 504 137L519 165Q531 165 705 126Q724 122 733 129Q740 138 723 203L769 214 Z"/>
<path id="z22656d5" d="M495 281Q510 291 531 287Q609 265 777 243Q787 242 788 232Q788 225 769 214L723 203Q531 249 499 256L495 281 Z"/>
<path id="z22656d6" d="M504 137Q491 125 471 116Q453 106 440 109Q428 116 434 130Q477 190 415 446Q397 521 372 583Q323 700 232 826Q226 833 224 838Q221 848 232 847Q265 841 353 717Q371 687 390 653Q465 500 495 286Q495 283 495 281L499 256Q500 234 505 216Q509 191 519 165L504 137 Z"/>
<path id="z22656d7" d="M631 292Q644 319 636 400Q633 418 650 442Q657 449 665 441Q675 426 680 362Q680 343 685 315Q691 299 676 290Q663 281 651 275Q641 271 634 275Q628 279 631 292 Z"/>
<path id="z22656d8" d="M525 336Q559 370 582 369Q592 368 594 353Q594 343 583 329Q576 320 559 319Q535 315 525 315Q518 315 519 324Q519 331 525 336 Z"/>
<path id="z22656d9" d="M504 425Q495 426 495 436Q496 446 512 458Q527 471 536 471Q543 471 550 458Q568 437 614 395Q618 392 617 387Q616 384 610 386Q523 425 504 425 Z"/>
<path id="z22656d10" d="M750 302Q744 311 714 351Q707 361 718 360Q742 350 755 343Q791 322 805 317Q818 311 813 299Q806 289 788 278Q773 268 765 269Q756 270 759 279Q760 291 750 302 Z"/>
<path id="z22656d11" d="M727 422Q788 467 798 467Q805 466 809 456Q812 444 804 422Q798 406 773 397Q718 381 704 385Q700 389 702 399Q705 406 727 422 Z"/>
<path id="z22656d12" d="M542 579Q552 561 565 547Q572 537 562 527Q529 502 511 504Q502 505 504 517Q514 574 460 635Q447 650 441 659Q434 669 446 667Q480 661 527 601L542 579 Z"/>
<path id="z22656d13" d="M684 600Q801 578 806 574Q815 567 810 559Q804 549 778 540Q750 534 686 555L629 568Q586 574 542 579L527 601Q555 619 630 609L684 600 Z"/>
<path id="z22656d14" d="M680 720Q729 716 899 715Q918 715 923 706Q927 696 912 682Q864 645 810 655Q756 665 681 679L629 687Q529 700 416 715Q397 716 411 733Q424 746 442 752Q461 756 478 753Q548 734 629 726L680 720 Z"/>
<path id="z22656d15" d="M632 917Q636 941 643 949Q647 956 655 954Q679 936 680 726Q680 723 680 720L681 679Q682 645 684 600L686 555Q689 542 693 521Q696 505 683 496Q653 477 640 474Q628 470 614 477Q605 484 612 494Q627 521 629 568L630 609Q630 645 629 687L629 726Q629 894 632 917 Z"/>
<defs>
	<clipPath id="z22656c1"><use xlink:href="#z22656d1"/></clipPath>
	<clipPath id="z22656c2"><use xlink:href="#z22656d2"/></clipPath>
	<clipPath id="z22656c3"><use xlink:href="#z22656d3"/></clipPath>
	<clipPath id="z22656c4"><use xlink:href="#z22656d4"/></clipPath>
	<clipPath id="z22656c5"><use xlink:href="#z22656d5"/></clipPath>
	<clipPath id="z22656c6"><use xlink:href="#z22656d6"/></clipPath>
	<clipPath id="z22656c7"><use xlink:href="#z22656d7"/></clipPath>
	<clipPath id="z22656c8"><use xlink:href="#z22656d8"/></clipPath>
	<clipPath id="z22656c9"><use xlink:href="#z22656d9"/></clipPath>
	<clipPath id="z22656c10"><use xlink:href="#z22656d10"/></clipPath>
	<clipPath id="z22656c11"><use xlink:href="#z22656d11"/></clipPath>
	<clipPath id="z22656c12"><use xlink:href="#z22656d12"/></clipPath>
	<clipPath id="z22656c13"><use xlink:href="#z22656d13"/></clipPath>
	<clipPath id="z22656c14"><use xlink:href="#z22656d14"/></clipPath>
	<clipPath id="z22656c15"><use xlink:href="#z22656d15"/></clipPath>
</defs>
<path pathLength="3333" clip-path="url(#z22656c1)" d="M103 410L369 362"/>
<path pathLength="3333" clip-path="url(#z22656c2)" d="M209 137L269 190L257 554L240 571"/>
<path pathLength="3333" clip-path="url(#z22656c3)" d="M69 640L135 654L350 542"/>
<path pathLength="3333" clip-path="url(#z22656c4)" d="M513 141L741 103L780 135L735 205"/>
<path pathLength="3333" clip-path="url(#z22656c5)" d="M501 276L727 226L782 233"/>
<path pathLength="3333" clip-path="url(#z22656c6)" d="M441 114L484 168L424 504L335 706L229 840"/>
<path pathLength="3333" clip-path="url(#z22656c7)" d="M640 284L662 319L655 440"/>
<path pathLength="3333" clip-path="url(#z22656c8)" d="M524 323L590 358"/>
<path pathLength="3333" clip-path="url(#z22656c9)" d="M500 434L543 441L608 391"/>
<path pathLength="3333" clip-path="url(#z22656c10)" d="M767 276L780 308L718 352"/>
<path pathLength="3333" clip-path="url(#z22656c11)" d="M709 392L800 461"/>
<path pathLength="3333" clip-path="url(#z22656c12)" d="M512 514L533 554L446 660"/>
<path pathLength="3333" clip-path="url(#z22656c13)" d="M535 598L807 564"/>
<path pathLength="3333" clip-path="url(#z22656c14)" d="M412 722L469 731L825 684L919 696"/>
<path pathLength="3333" clip-path="url(#z22656c15)" d="M618 483L659 523L651 947"/>
</svg>