<!--
AnimCJK 2016-2018 Copyright Francois Mizessyn - https://github.com/parsimonhi/animCJK
Derived from:
    MakeMeAHanzi project - https://github.com/skishore/makemeahanzi
    Arphic PL KaitiM GB - https://apps.ubuntu.com/cat/applications/precise/fonts-arphic-gkai00mp/
    Arphic PL UKai - https://apps.ubuntu.com/cat/applications/fonts-arphic-ukai/
You can redistribute and/or modify this file under the terms of the Arphic Public License
as published by Arphic Technology Co., Ltd.
You should have received a copy of this license (the directory "APL") along with this file;
if not, see http://ftp.gnu.org/non-gnu/chinese-fonts-truetype/LICENSE.
-->
<svg id="z22697" class="acjk" version="1.1" viewBox="0 0 1024 1024" xmlns="http://www.w3.org/2000/svg" xmlns:xlink="http://www.w3.org/1999/xlink">
<style>
<![CDATA[
@keyframes z22697k {
	from {
		stroke:#ccc;
		stroke-dashoffset:3334;
	}
	1% {
		stroke:#c00;
		stroke-dashoffset:3334;
	}
	75% {
		stroke:#c00;
		stroke-dashoffset:0;
	}
	to {
		stroke:#000;
	}
}
#z22697 path[clip-path] {
	animation:z22697k 1s linear both;
	stroke-dasharray:3334;
	stroke-width:128;
	stroke-linecap:round;
	fill:none;
}
#z22697 path[clip-path="url(#z22697c1)"] {animation-delay:1s;}
#z22697 path[clip-path="url(#z22697c2)"] {animation-delay:2s;}
#z22697 path[clip-path="url(#z22697c3)"] {animation-delay:3s;}
#z22697 path[clip-path="url(#z22697c4)"] {animation-delay:4s;}
#z22697 path[clip-path="url(#z22697c5)"] {animation-delay:5s;}
#z22697 path[clip-path="url(#z22697c6)"] {animation-delay:6s;}
#z22697 path[clip-path="url(#z22697c7)"] {animation-delay:7s;}
#z22697 path[clip-path="url(#z22697c8)"] {animation-delay:8s;}
#z22697 path[clip-path="url(#z22697c9)"] {animation-delay:9s;}
#z22697 path[clip-path="url(#z22697c10)"] {animation-delay:10s;}
#z22697 path[clip-path="url(#z22697c11)"] {animation-delay:11s;}
#z22697 path[clip-path="url(#z22697c12)"] {animation-delay:12s;}
#z22697 path[clip-path="url(#z22697c13)"] {animation-delay:13s;}
#z22697 path[clip-path="url(#z22697c14)"] {animation-delay:14s;}
#z22697 path[clip-path="url(#z22697c15)"] {animation-delay:15s;}
#z22697 path {fill:#ccc;}
]]>
</style>
<path id="z22697d1" d="M254 413Q266 409 282 404Q303 397 306 394Q313 385 308 378Q301 368 273 365Q263 364 255 365L209 381Q161 399 109 409Q76 418 101 431Q141 449 191 431Q198 428 210 426L254 413 Z"/>
<path id="z22697d2" d="M248 547Q251 478 254 413L255 365Q258 271 273 206Q276 196 257 182Q223 166 201 161Q185 158 178 167Q171 174 179 188Q201 219 203 242Q207 309 209 381L210 426Q210 490 209 563L248 547 Z"/>
<path id="z22697d3" d="M209 563Q154 584 93 608Q78 614 53 615Q40 618 40 628Q39 641 49 647Q71 660 105 675Q115 676 125 667Q155 640 279 564Q298 554 310 541Q322 532 321 524Q315 520 304 523Q276 533 248 547L209 563 Z"/>
<path id="z22697d4" d="M469 122Q496 143 526 168Q539 180 555 178Q565 177 569 164Q573 149 562 121Q550 93 461 76Q445 75 440 77Q436 81 437 93Q441 103 469 122 Z"/>
<path id="z22697d5" d="M351 238Q318 244 342 259Q384 280 432 266Q511 248 593 229Q630 219 636 214Q643 207 639 199Q632 189 605 182Q581 178 492 209Q428 227 351 238 Z"/>
<path id="z22697d6" d="M377 338Q368 335 347 333Q337 332 334 336Q330 342 338 355Q360 389 378 447Q382 465 394 475Q410 493 413 479Q414 473 415 466L411 438Q398 383 396 364L377 338 Z"/>
<path id="z22697d7" d="M559 415Q583 361 603 352Q616 336 604 322Q591 312 547 291Q532 285 515 293Q455 320 377 338L396 364Q426 354 510 335Q522 331 527 336Q533 345 516 411L559 415 Z"/>
<path id="z22697d8" d="M415 466Q422 467 433 465Q476 455 571 443Q580 442 580 434Q580 427 559 415L516 411Q515 411 513 412Q455 428 411 438L415 466 Z"/>
<path id="z22697d9" d="M480 628Q555 562 586 552Q602 545 597 532Q593 519 538 491Q523 485 447 515Q384 536 345 539Q326 539 334 556Q341 566 357 574Q382 587 409 569Q422 563 485 530Q495 526 505 530Q515 536 512 547Q490 580 465 620L480 628 Z"/>
<path id="z22697d10" d="M511 671Q502 641 480 628L465 620Q438 611 431 617Q421 621 432 633Q460 652 470 688L476 720Q488 810 466 854Q456 875 428 869Q406 866 387 862Q377 861 381 869Q384 875 398 885Q426 912 436 932Q445 947 458 945Q470 944 491 922Q548 862 519 703Q518 702 518 700L511 671 Z"/>
<path id="z22697d11" d="M518 700Q519 699 522 698Q582 668 581 652Q577 648 564 650Q539 660 511 671L470 688Q376 722 271 759Q250 766 215 767Q203 768 202 779Q201 792 210 799Q232 814 264 830Q274 831 285 824Q340 779 476 720L518 700 Z"/>
<path id="z22697d12" d="M678 415Q738 301 765 227Q777 190 789 171Q796 159 788 148Q781 138 751 122Q723 112 706 116Q690 122 701 140Q716 158 710 197Q689 315 624 454Q617 466 616 472Q615 482 627 478Q633 475 664 435L678 415 Z"/>
<path id="z22697d13" d="M760 441Q761 440 765 439Q904 400 914 391Q921 384 916 375Q909 365 879 360Q849 357 822 371Q791 384 758 396Q721 406 678 415L664 435Q688 447 727 448L760 441 Z"/>
<path id="z22697d14" d="M760 666Q788 578 798 510Q801 489 805 479Q812 473 806 464Q797 449 760 441L727 448Q727 452 731 458Q741 525 724 619Q723 620 723 623L705 670Q671 737 587 790Q578 794 570 800Q549 813 576 811Q616 814 681 772Q715 751 735 715L760 666 Z"/>
<path id="z22697d15" d="M735 715Q781 782 824 838Q837 857 861 858Q988 854 998 842Q1002 836 993 832Q845 756 780 687Q770 677 760 666L723 623Q696 592 668 555Q659 540 644 538Q619 537 611 544Q607 548 616 555Q644 573 705 670L735 715 Z"/>
<defs>
	<clipPath id="z22697c1"><use xlink:href="#z22697d1"/></clipPath>
	<clipPath id="z22697c2"><use xlink:href="#z22697d2"/></clipPath>
	<clipPath id="z22697c3"><use xlink:href="#z22697d3"/></clipPath>
	<clipPath id="z22697c4"><use xlink:href="#z22697d4"/></clipPath>
	<clipPath id="z22697c5"><use xlink:href="#z22697d5"/></clipPath>
	<clipPath id="z22697c6"><use xlink:href="#z22697d6"/></clipPath>
	<clipPath id="z22697c7"><use xlink:href="#z22697d7"/></clipPath>
	<clipPath id="z22697c8"><use xlink:href="#z22697d8"/></clipPath>
	<clipPath id="z22697c9"><use xlink:href="#z22697d9"/></clipPath>
	<clipPath id="z22697c10"><use xlink:href="#z22697d10"/></clipPath>
	<clipPath id="z22697c11"><use xlink:href="#z22697d11"/></clipPath>
	<clipPath id="z22697c12"><use xlink:href="#z22697d12"/></clipPath>
	<clipPath id="z22697c13"><use xlink:href="#z22697d13"/></clipPath>
	<clipPath id="z22697c14"><use xlink:href="#z22697d14"/></clipPath>
	<clipPath id="z22697c15"><use xlink:href="#z22697d15"/></clipPath>
</defs>
<path pathLength="3333" clip-path="url(#z22697c1)" d="M97 419L305 382"/>
<path pathLength="3333" clip-path="url(#z22697c2)" d="M180 169L237 218L217 557"/>
<path pathLength="3333" clip-path="url(#z22697c3)" d="M47 626L111 638L312 528"/>
<path pathLength="3333" clip-path="url(#z22697c4)" d="M445 87L565 166"/>
<path pathLength="3333" clip-path="url(#z22697c5)" d="M339 247L635 201"/>
<path pathLength="3333" clip-path="url(#z22697c6)" d="M341 343L374 371L407 477"/>
<path pathLength="3333" clip-path="url(#z22697c7)" d="M385 340L542 316L568 342L534 412"/>
<path pathLength="3333" clip-path="url(#z22697c8)" d="M418 441L572 437"/>
<path pathLength="3333" clip-path="url(#z22697c9)" d="M337 548L387 555L528 516L554 546L475 622"/>
<path pathLength="3333" clip-path="url(#z22697c10)" d="M432 622L490 678L503 817L465 901L389 869"/>
<path pathLength="3333" clip-path="url(#z22697c11)" d="M206 780L269 795L574 655"/>
<path pathLength="3333" clip-path="url(#z22697c12)" d="M704 125L751 172L623 472"/>
<path pathLength="3333" clip-path="url(#z22697c13)" d="M672 432L914 382"/>
<path pathLength="3333" clip-path="url(#z22697c14)" d="M734 451L771 484L726 681L665 757L568 806"/>
<path pathLength="3333" clip-path="url(#z22697c15)" d="M617 547L652 564L865 814L991 837"/>
</svg>