<!--
AnimCJK 2016-2025 Copyright FM-SH - https://github.com/parsimonhi/animCJK
Derived from:
    MakeMeAHanzi project - https://github.com/skishore/makemeahanzi
    Arphic PL KaitiM GB font
    Arphic PL UKai font
You can redistribute and/or modify this file under the terms of the Arphic Public License
as published by Arphic Technology Co., Ltd.
You should have received a copy of this license along with this file.
If not, see https://ftp.gnu.org/non-gnu/chinese-fonts-truetype/LICENSE.
-->
<svg id="z22756" class="acjk" viewBox="0 0 1024 1024" xmlns="http://www.w3.org/2000/svg">
<style>
<![CDATA[
@keyframes zk {
	to {
		stroke-dashoffset:0;
	}
}
svg.acjk path[clip-path] {
	--t:0.8s;
	animation:zk var(--t) linear forwards var(--d);
	stroke-dasharray:3337;
	stroke-dashoffset:3339;
	stroke-width:128;
	stroke-linecap:round;
	fill:none;
	stroke:#000;
}
svg.acjk path[id] {fill:#ccc;}
]]>
</style>
<path id="z22756d1" d="M267 431C326 412 356 399 358 398C363 392 363 386 360 382C355 375 343 368 325 368C303 367 284 374 268 381C237 393 237 393 221 399C181 414 142 423 105 433C82 438 78 449 97 455C145 469 184 456 222 445C252 436 252 436 267 431Z"/>
<path id="z22756d2" d="M261 601C263 542 265 485 267 431C268 398 268 398 268 381C269 317 274 252 288 189C289 182 285 172 271 164C247 149 226 143 210 141C185 137 175 152 187 170C231 238 219 330 221 399C222 430 222 430 222 445C223 499 221 558 219 621C219 637 261 617 261 601Z"/>
<path id="z22756d3" d="M219 621C167 645 121 668 71 675C62 676 59 681 59 688C58 696 61 703 68 707C83 715 102 725 125 733C131 735 138 730 146 725C213 672 274 633 354 577C370 565 363 553 348 559C319 570 291 586 261 601C233 614 233 614 219 621Z"/>
<path id="z22756d4" d="M556 92C597 114 622 127 634 125C640 123 644 117 645 108C645 98 640 84 630 68C620 53 590 47 540 49C529 49 522 50 519 53C516 55 516 61 520 69C523 75 536 81 556 92Z"/>
<path id="z22756d5" d="M361 205C350 207 348 212 358 221C373 235 399 237 433 228C553 192 680 173 814 173C837 172 850 161 826 144C796 123 761 119 723 130C641 151 520 175 361 205Z"/>
<path id="z22756d6" d="M416 281C411 279 403 277 393 277C376 275 380 287 385 296C397 316 408 342 418 376C420 385 425 393 431 400C441 410 447 412 449 404C449 401 450 397 450 392C449 384 448 376 447 369C442 341 435 309 435 300C435 291 424 284 416 281Z"/>
<path id="z22756d7" d="M548 349C554 319 563 300 573 291C584 279 583 269 572 263C563 258 552 251 539 243C530 237 521 238 512 245C493 256 462 269 416 281C407 283 427 303 435 300C443 296 464 290 498 282C508 279 514 279 518 283C520 285 518 307 512 347C510 359 546 361 548 349Z"/>
<path id="z22756d8" d="M450 392C470 390 526 375 557 371C576 364 562 355 548 349C537 345 524 345 512 347C490 352 467 362 447 369C440 372 442 394 450 392Z"/>
<path id="z22756d9" d="M649 239C632 231 624 230 613 229C595 226 600 238 604 246C614 266 625 294 632 330C633 340 637 348 644 356C659 371 660 362 663 346C664 337 662 329 661 321C655 293 654 272 654 260C654 253 656 242 649 239Z"/>
<path id="z22756d10" d="M768 306C776 279 785 262 794 254C805 242 804 231 794 225C784 218 772 211 760 204C753 199 737 206 709 218C689 225 669 231 649 239C642 242 648 264 654 260C660 256 682 250 718 242C728 239 734 239 738 243C740 245 737 265 730 303C728 316 766 318 768 306Z"/>
<path id="z22756d11" d="M663 346C679 345 745 335 779 332C802 326 787 313 768 306C756 301 743 301 730 303C716 305 680 315 661 321C653 324 655 346 663 346Z"/>
<path id="z22756d12" d="M661 455C694 448 726 445 755 441C785 436 764 415 736 409C725 406 703 410 668 420C632 429 632 429 614 434C588 440 560 448 537 452C504 457 504 457 488 460C463 463 437 466 411 470C396 472 393 478 406 486C438 505 463 496 494 490C521 484 521 484 535 481C557 475 584 469 614 464C645 458 645 458 661 455Z"/>
<path id="z22756d13" d="M650 539C678 533 705 529 732 525C767 518 736 500 713 493C699 488 679 493 655 500C628 507 628 507 614 510C586 516 559 523 535 529C510 534 510 534 498 537C471 542 446 547 422 553C412 555 412 561 426 569C452 582 475 573 500 569C523 564 523 564 535 562C561 556 587 550 613 546C638 541 638 541 650 539Z"/>
<path id="z22756d14" d="M537 452C537 440 536 427 529 422C517 411 504 404 490 400C473 394 464 403 471 417C477 429 484 443 488 460C492 480 492 480 494 490C496 500 496 516 498 537C499 558 499 558 500 569C500 583 502 601 504 621C506 632 537 625 537 614C536 595 535 578 535 562C535 540 535 540 535 529C535 513 533 496 535 481C536 462 536 462 537 452Z"/>
<path id="z22756d15" d="M642 592C644 573 647 555 650 539C653 513 653 513 655 500C657 484 658 469 661 455C666 432 666 432 668 420C672 399 679 393 663 382C647 370 632 365 620 363C602 359 593 369 601 383C607 395 614 411 614 434C614 454 614 454 614 464C614 479 614 494 614 510C613 534 613 534 613 546C612 562 611 580 610 599C610 610 640 603 642 592Z"/>
<path id="z22756d16" d="M503 648C534 641 635 624 810 609C832 606 833 592 819 583C788 562 757 560 725 571C700 578 672 585 642 592C621 597 621 597 610 599C585 604 559 609 537 614C515 619 515 619 504 621C453 631 400 640 344 651C333 652 332 656 341 665C347 671 355 676 366 678C376 680 386 679 394 677C418 668 444 659 473 654C493 650 493 650 503 648Z"/>
<path id="z22756d17" d="M530 662C524 656 515 651 503 648C493 645 477 645 473 654C458 712 366 791 197 890C184 897 185 900 201 900C261 900 371 837 463 752C484 732 484 732 495 722C509 708 525 697 537 683C542 677 536 666 530 662Z"/>
<path id="z22756d18" d="M463 752C479 804 475 851 450 892C431 920 436 947 467 975C477 984 488 973 493 967C510 942 549 896 613 835C635 813 632 800 612 812C553 846 520 864 515 862C510 860 508 852 509 841C512 800 516 775 519 765C521 753 518 743 511 735C505 729 501 724 495 722C482 714 460 738 463 752Z"/>
<path id="z22756d19" d="M687 762C731 734 757 719 789 706C799 701 803 699 802 693C799 684 792 673 782 662C772 651 760 644 748 643C739 642 734 648 735 659C735 671 715 702 673 752C669 756 682 765 687 762Z"/>
<path id="z22756d20" d="M673 752C648 734 625 711 600 690C585 677 554 657 530 662C523 663 531 679 537 683C563 697 596 738 652 791C713 849 763 893 786 893C834 892 877 885 918 878C957 871 943 861 917 853C902 849 882 844 864 839C789 817 730 792 687 762C678 755 678 755 673 752Z"/>
<defs>
	<clipPath id="z22756c1"><use href="#z22756d1"/></clipPath>
	<clipPath id="z22756c2"><use href="#z22756d2"/></clipPath>
	<clipPath id="z22756c3"><use href="#z22756d3"/></clipPath>
	<clipPath id="z22756c4"><use href="#z22756d4"/></clipPath>
	<clipPath id="z22756c5"><use href="#z22756d5"/></clipPath>
	<clipPath id="z22756c6"><use href="#z22756d6"/></clipPath>
	<clipPath id="z22756c7"><use href="#z22756d7"/></clipPath>
	<clipPath id="z22756c8"><use href="#z22756d8"/></clipPath>
	<clipPath id="z22756c9"><use href="#z22756d9"/></clipPath>
	<clipPath id="z22756c10"><use href="#z22756d10"/></clipPath>
	<clipPath id="z22756c11"><use href="#z22756d11"/></clipPath>
	<clipPath id="z22756c12"><use href="#z22756d12"/></clipPath>
	<clipPath id="z22756c13"><use href="#z22756d13"/></clipPath>
	<clipPath id="z22756c14"><use href="#z22756d14"/></clipPath>
	<clipPath id="z22756c15"><use href="#z22756d15"/></clipPath>
	<clipPath id="z22756c16"><use href="#z22756d16"/></clipPath>
	<clipPath id="z22756c17"><use href="#z22756d17"/></clipPath>
	<clipPath id="z22756c18"><use href="#z22756d18"/></clipPath>
	<clipPath id="z22756c19"><use href="#z22756d19"/></clipPath>
	<clipPath id="z22756c20"><use href="#z22756d20"/></clipPath>
</defs>
<path style="--d:1s;" pathLength="3333" clip-path="url(#z22756c1)" d="M92 445L358 386"/>
<path style="--d:2s;" pathLength="3333" clip-path="url(#z22756c2)" d="M189 147L247 196L233 622"/>
<path style="--d:3s;" pathLength="3333" clip-path="url(#z22756c3)" d="M63 684L123 699L356 563"/>
<path style="--d:4s;" pathLength="3333" clip-path="url(#z22756c4)" d="M524 55L642 108"/>
<path style="--d:5s;" pathLength="3333" clip-path="url(#z22756c5)" d="M360 212L740 150L832 160"/>
<path style="--d:6s;" pathLength="3333" clip-path="url(#z22756c6)" d="M389 285L416 308L444 399"/>
<path style="--d:7s;" pathLength="3333" clip-path="url(#z22756c7)" d="M421 287L537 268L526 355"/>
<path style="--d:8s;" pathLength="3333" clip-path="url(#z22756c8)" d="M450 381L560 362"/>
<path style="--d:9s;" pathLength="3333" clip-path="url(#z22756c9)" d="M609 234L634 257L650 355"/>
<path style="--d:10s;" pathLength="3333" clip-path="url(#z22756c10)" d="M653 250L757 227L769 246L744 310"/>
<path style="--d:11s;" pathLength="3333" clip-path="url(#z22756c11)" d="M659 333L785 320"/>
<path style="--d:12s;" pathLength="3333" clip-path="url(#z22756c12)" d="M406 477L764 429"/>
<path style="--d:13s;" pathLength="3333" clip-path="url(#z22756c13)" d="M421 557L742 512"/>
<path style="--d:14s;" pathLength="3333" clip-path="url(#z22756c14)" d="M476 408L511 448L525 620"/>
<path style="--d:15s;" pathLength="3333" clip-path="url(#z22756c15)" d="M604 370L642 402L622 601"/>
<path style="--d:16s;" pathLength="3333" clip-path="url(#z22756c16)" d="M345 656L821 591"/>
<path style="--d:17s;" pathLength="3333" clip-path="url(#z22756c17)" d="M483 652L498 684L420 761L198 893"/>
<path style="--d:18s;" pathLength="3333" clip-path="url(#z22756c18)" d="M488 724L487 924L622 814"/>
<path style="--d:19s;" pathLength="3333" clip-path="url(#z22756c19)" d="M745 648L764 688L679 756"/>
<path style="--d:20s;" pathLength="3333" clip-path="url(#z22756c20)" d="M534 669L778 850L936 867"/>
</svg>