<!--
AnimCJK 2016-2017 Copyright Francois Mizessyn, https://github.com/parsimonhi/animCJK
Derived from:
    MakeMeAHanzi project - https://github.com/skishore/makemeahanzi
    Arphic PL KaitiM GB - https://apps.ubuntu.com/cat/applications/precise/fonts-arphic-gkai00mp/
    Arphic PL UKai - https://apps.ubuntu.com/cat/applications/fonts-arphic-ukai/
You can redistribute and/or modify this file under the terms of the Arphic Public License
as published by Arphic Technology Co., Ltd.
You should have received a copy of this license (the directory "APL") along with this file;
if not, see http://ftp.gnu.org/non-gnu/chinese-fonts-truetype/LICENSE.
-->
<svg id="z22815" class="acjk" version="1.1" viewBox="0 0 1024 1024" xmlns="http://www.w3.org/2000/svg" xmlns:xlink="http://www.w3.org/1999/xlink">
<style>
<![CDATA[
@keyframes z22815k {
	from {
		stroke:#c00;
		stroke-dashoffset:3334;
	}
	75% {
		stroke:#c00;
		stroke-dashoffset:0;
	}
	to {
		stroke:#000;
	}
}
#z22815 path[clip-path] {
	animation:z22815k 1s linear both;
	stroke-dasharray:3334;
	stroke-width:128;
	stroke-linecap:round;
	fill:none;
}
#z22815 path[clip-path="url(#z22815c1)"] {animation-delay:1s;}
#z22815 path[clip-path="url(#z22815c2)"] {animation-delay:2s;}
#z22815 path[clip-path="url(#z22815c3)"] {animation-delay:3s;}
#z22815 path[clip-path="url(#z22815c4)"] {animation-delay:4s;}
#z22815 path[clip-path="url(#z22815c5)"] {animation-delay:5s;}
#z22815 path[clip-path="url(#z22815c6)"] {animation-delay:6s;}
#z22815 path[clip-path="url(#z22815c7)"] {animation-delay:7s;}
#z22815 path[clip-path="url(#z22815c8)"] {animation-delay:8s;}
#z22815 path[clip-path="url(#z22815c9)"] {animation-delay:9s;}
#z22815 path[clip-path="url(#z22815c10)"] {animation-delay:10s;}
#z22815 path[clip-path="url(#z22815c11)"] {animation-delay:11s;}
#z22815 path {fill:#ccc;}
]]>
</style>
<path id="z22815d1" d="M218 338Q260 281 303 195Q319 158 335 140Q344 128 337 116Q333 104 302 85Q275 70 257 73Q239 77 249 97Q262 119 257 140Q238 210 205 277Q174 341 127 414Q120 424 117 431Q116 441 128 438Q149 432 203 360L218 338 Z"/>
<path id="z22815d2" d="M334 782Q321 786 249 773Q239 770 240 776Q239 780 251 788Q294 827 313 856Q323 874 336 872Q355 873 374 853Q441 798 460 654Q473 557 479 411Q479 377 500 352Q513 337 511 329Q510 322 490 309Q462 290 426 281Q404 275 343 299Q339 299 334 302Q277 320 218 338L203 360Q299 347 396 333Q403 332 406 335Q427 374 409 599Q394 695 368 747Q353 780 334 782 Z"/>
<path id="z22815d3" d="M133 464Q123 460 103 455Q93 452 89 456Q83 462 90 476Q114 533 125 623Q126 651 142 669Q157 690 162 675Q168 660 167 634L163 602Q150 512 150 489L133 464 Z"/>
<path id="z22815d4" d="M287 581Q305 508 326 486Q348 462 326 449Q307 439 282 422Q266 413 221 437Q170 455 133 464L150 489Q154 488 161 486Q198 477 228 470Q249 466 254 474Q261 480 254 510Q247 541 240 577L287 581 Z"/>
<path id="z22815d5" d="M167 634Q173 634 181 632Q218 622 299 609Q309 608 309 599Q309 592 287 581L240 577Q237 577 236 578Q194 593 163 602L167 634 Z"/>
<path id="z22815d6" d="M605 311Q612 302 621 294Q640 273 660 248L676 228Q712 174 729 159Q738 152 734 139Q731 129 707 108Q685 92 669 91Q653 92 660 111Q672 147 606 249Q575 298 530 350Q521 359 520 364Q516 373 528 371Q535 370 589 327L605 311 Z"/>
<path id="z22815d7" d="M660 248Q670 257 699 251Q747 236 751 243Q754 255 736 295Q720 340 669 398Q620 462 538 521Q514 534 534 534Q633 534 771 344Q813 268 834 254Q846 244 840 232Q836 222 784 199Q772 193 750 204Q726 216 676 228L660 248 Z"/>
<path id="z22815d8" d="M589 327Q592 331 599 340Q642 397 650 398Q657 399 662 391Q666 382 665 363Q662 342 605 311L589 327 Z"/>
<path id="z22815d9" d="M635 616Q666 588 692 561L714 535Q742 501 756 487Q765 477 763 468Q760 456 736 450Q711 443 700 445Q693 446 692 458Q674 537 512 677Q493 690 518 687Q555 681 617 632L635 616 Z"/>
<path id="z22815d10" d="M692 561Q719 573 756 561Q799 543 814 552Q821 558 798 615Q723 810 499 915Q489 919 490 924Q491 928 498 928Q624 928 757 780Q760 776 764 772Q813 714 863 617Q881 590 907 573Q923 566 924 556Q924 543 895 525Q861 500 846 500Q836 500 823 508Q730 532 714 535L692 561 Z"/>
<path id="z22815d11" d="M617 632Q620 638 629 648Q654 679 681 714Q688 724 700 727Q707 728 714 719Q718 709 717 687Q716 666 689 646Q664 630 635 616L617 632 Z"/>
<defs>
	<clipPath id="z22815c1"><use xlink:href="#z22815d1"/></clipPath>
	<clipPath id="z22815c2"><use xlink:href="#z22815d2"/></clipPath>
	<clipPath id="z22815c3"><use xlink:href="#z22815d3"/></clipPath>
	<clipPath id="z22815c4"><use xlink:href="#z22815d4"/></clipPath>
	<clipPath id="z22815c5"><use xlink:href="#z22815d5"/></clipPath>
	<clipPath id="z22815c6"><use xlink:href="#z22815d6"/></clipPath>
	<clipPath id="z22815c7"><use xlink:href="#z22815d7"/></clipPath>
	<clipPath id="z22815c8"><use xlink:href="#z22815d8"/></clipPath>
	<clipPath id="z22815c9"><use xlink:href="#z22815d9"/></clipPath>
	<clipPath id="z22815c10"><use xlink:href="#z22815d10"/></clipPath>
	<clipPath id="z22815c11"><use xlink:href="#z22815d11"/></clipPath>
</defs>
<path pathLength="3333" clip-path="url(#z22815c1)" d="M252 79L298 133L208 318L124 431"/>
<path pathLength="3333" clip-path="url(#z22815c2)" d="M212 354L405 306L462 343L434 627L398 762L333 827L246 777"/>
<path pathLength="3333" clip-path="url(#z22815c3)" d="M94 462L124 494L155 674"/>
<path pathLength="3333" clip-path="url(#z22815c4)" d="M141 466L261 446L295 468L260 578"/>
<path pathLength="3333" clip-path="url(#z22815c5)" d="M172 626L304 595"/>
<path pathLength="3333" clip-path="url(#z22815c6)" d="M667 97L696 147L528 363"/>
<path pathLength="3333" clip-path="url(#z22815c7)" d="M665 244L753 220L795 251L656 447L536 528"/>
<path pathLength="3333" clip-path="url(#z22815c8)" d="M598 321L651 392"/>
<path pathLength="3333" clip-path="url(#z22815c9)" d="M760 470L717 478L627 596L512 682"/>
<path pathLength="3333" clip-path="url(#z22815c10)" d="M702 558L820 528L868 561L694 812L595 885L497 923"/>
<path pathLength="3333" clip-path="url(#z22815c11)" d="M625 631L684 675L703 723"/>
</svg>