<!--
AnimCJK 2016-2025 Copyright FM-SH - https://github.com/parsimonhi/animCJK
Derived from:
    MakeMeAHanzi project - https://github.com/skishore/makemeahanzi
    Arphic PL KaitiM GB font
    Arphic PL UKai font
You can redistribute and/or modify this file under the terms of the Arphic Public License
as published by Arphic Technology Co., Ltd.
You should have received a copy of this license along with this file.
If not, see https://ftp.gnu.org/non-gnu/chinese-fonts-truetype/LICENSE.
-->
<svg id="z22816" class="acjk" viewBox="0 0 1024 1024" xmlns="http://www.w3.org/2000/svg">
<style>
<![CDATA[
@keyframes zk {
	to {
		stroke-dashoffset:0;
	}
}
svg.acjk path[clip-path] {
	--t:0.8s;
	animation:zk var(--t) linear forwards var(--d);
	stroke-dasharray:3337;
	stroke-dashoffset:3339;
	stroke-width:128;
	stroke-linecap:round;
	fill:none;
	stroke:#000;
}
svg.acjk path[id] {fill:#ccc;}
]]>
</style>
<path id="z22816d1" d="M232 265C254 245 274 223 291 199C296 191 296 191 299 187C302 181 320 152 358 102C364 93 363 84 354 75C328 50 306 40 288 43C280 44 276 49 278 60C280 81 279 104 271 127C241 211 188 257 137 312C129 320 134 325 144 323C156 320 182 308 215 280C226 270 226 270 232 265Z"/>
<path id="z22816d2" d="M291 199C299 209 313 213 335 208C375 198 397 194 399 201C401 209 392 228 378 258C362 289 334 325 295 368C253 411 202 455 138 494C122 503 120 505 134 506C208 507 303 446 405 312C445 258 466 224 480 216C488 210 491 203 488 195C485 188 467 176 433 159C425 154 413 156 399 163C379 171 345 179 299 187C294 188 288 195 291 199Z"/>
<path id="z22816d3" d="M215 280C215 282 228 299 255 333C263 343 273 347 283 349C291 350 298 347 301 336C302 328 300 317 296 306C288 289 266 276 232 265C225 262 212 273 215 280Z"/>
<path id="z22816d4" d="M203 639C221 623 241 607 258 588C276 567 276 567 285 557C292 548 308 525 337 494C342 487 344 481 343 475C340 467 331 461 316 458C299 453 287 452 280 454C275 455 273 459 272 468C264 516 210 589 108 681C96 691 97 693 114 691C130 688 155 679 184 655C197 644 197 644 203 639Z"/>
<path id="z22816d5" d="M258 588C276 598 293 602 308 598C344 587 363 582 367 583C375 585 374 594 367 610C320 700 275 766 235 811C191 858 130 907 55 960C29 977 69 971 78 968C143 940 201 901 257 854C307 810 365 732 431 619C438 606 445 595 454 590C463 583 465 578 461 571C455 562 442 554 420 543C404 535 392 533 381 538C348 552 317 555 285 557C271 557 246 582 258 588Z"/>
<path id="z22816d6" d="M184 655C201 678 222 701 239 723C245 730 252 735 260 736C264 736 269 733 273 727C277 720 277 709 275 693C273 682 266 671 250 661C235 651 219 645 203 639C195 636 179 648 184 655Z"/>
<path id="z22816d7" d="M569 312C592 274 616 230 641 180C654 151 664 129 676 115C682 106 682 97 678 88C673 79 660 67 637 54C616 42 598 38 585 41C570 43 567 53 576 68C585 85 589 100 586 117C557 235 503 344 443 437C426 462 429 480 458 456C480 439 513 402 551 341C563 322 563 322 569 312Z"/>
<path id="z22816d8" d="M551 341C571 347 590 347 606 342C622 335 672 321 756 304C800 294 804 354 806 380C810 484 810 570 802 638C788 744 769 802 749 815C746 816 718 817 667 804C621 791 614 797 641 821C674 849 698 879 716 906C728 925 741 934 754 931C786 921 817 874 842 789C858 732 870 610 878 424C880 376 885 343 899 327C910 312 909 298 893 288C845 257 809 245 786 252C778 254 769 257 762 259C710 276 646 293 569 312C558 314 540 339 551 341Z"/>
<path id="z22816d9" d="M529 477C522 474 511 470 495 467C475 462 477 478 482 489C496 521 510 564 518 617C520 633 524 646 534 657C557 684 555 656 557 632C557 622 555 612 554 603C548 563 543 519 543 503C543 493 538 481 529 477Z"/>
<path id="z22816d10" d="M691 591C703 548 716 520 730 507C744 491 744 479 730 470C717 462 704 451 688 441C676 433 664 434 652 441C624 455 583 467 529 477C519 479 534 507 543 503C559 497 587 493 628 487C661 481 661 504 657 525C652 543 648 562 644 584C641 600 688 607 691 591Z"/>
<path id="z22816d11" d="M557 632C575 630 659 622 700 620C727 613 712 601 691 591C676 585 660 581 644 584C614 588 581 597 554 603C544 605 547 634 557 632Z"/>
<defs>
	<clipPath id="z22816c1"><use href="#z22816d1"/></clipPath>
	<clipPath id="z22816c2"><use href="#z22816d2"/></clipPath>
	<clipPath id="z22816c3"><use href="#z22816d3"/></clipPath>
	<clipPath id="z22816c4"><use href="#z22816d4"/></clipPath>
	<clipPath id="z22816c5"><use href="#z22816d5"/></clipPath>
	<clipPath id="z22816c6"><use href="#z22816d6"/></clipPath>
	<clipPath id="z22816c7"><use href="#z22816d7"/></clipPath>
	<clipPath id="z22816c8"><use href="#z22816d8"/></clipPath>
	<clipPath id="z22816c9"><use href="#z22816d9"/></clipPath>
	<clipPath id="z22816c10"><use href="#z22816d10"/></clipPath>
	<clipPath id="z22816c11"><use href="#z22816d11"/></clipPath>
</defs>
<path style="--d:1s;" pathLength="3333" clip-path="url(#z22816c1)" d="M285 53L319 94L294 146L142 317"/>
<path style="--d:2s;" pathLength="3333" clip-path="url(#z22816c2)" d="M299 197L410 178L443 210L279 416L137 501"/>
<path style="--d:3s;" pathLength="3333" clip-path="url(#z22816c3)" d="M221 278L288 343"/>
<path style="--d:4s;" pathLength="3333" clip-path="url(#z22816c4)" d="M280 462L301 492L255 557L108 685"/>
<path style="--d:5s;" pathLength="3333" clip-path="url(#z22816c5)" d="M260 583L385 560L415 591L266 812L54 967"/>
<path style="--d:6s;" pathLength="3333" clip-path="url(#z22816c6)" d="M189 650L245 689L263 729"/>
<path style="--d:7s;" pathLength="3333" clip-path="url(#z22816c7)" d="M577 47L633 106L550 296L439 460"/>
<path style="--d:8s;" pathLength="3333" clip-path="url(#z22816c8)" d="M558 335L773 279L817 289L857 328L833 640L793 821L739 877L634 803"/>
<path style="--d:9s;" pathLength="3333" clip-path="url(#z22816c9)" d="M486 475L515 500L544 662"/>
<path style="--d:10s;" pathLength="3333" clip-path="url(#z22816c10)" d="M533 484L658 462L691 482L669 597"/>
<path style="--d:11s;" pathLength="3333" clip-path="url(#z22816c11)" d="M552 620L707 610"/>
</svg>