<!--
AnimCJK 2016-2017 Copyright Francois Mizessyn, http://gooo.free.fr/animCJK/
Derived from:
    MakeMeAHanzi project - https://github.com/skishore/makemeahanzi
    Arphic PL KaitiM GB - https://apps.ubuntu.com/cat/applications/precise/fonts-arphic-gkai00mp/
    Arphic PL UKai - https://apps.ubuntu.com/cat/applications/fonts-arphic-ukai/
You can redistribute and/or modify this file under the terms of the Arphic Public License
as published by Arphic Technology Co., Ltd.
You should have received a copy of this license (the directory "APL") along with this file;
if not, see http://ftp.gnu.org/non-gnu/chinese-fonts-truetype/LICENSE.
-->
<svg id="z22829" class="acjk" version="1.1" viewBox="0 0 1024 1024" xmlns="http://www.w3.org/2000/svg" xmlns:xlink="http://www.w3.org/1999/xlink">
<style>
<![CDATA[
	@keyframes z22829k {
		from {
			stroke:#c00;
			stroke-dashoffset:3000;
		}
		75% {
			stroke:#c00;
			stroke-dashoffset:0;
		}
		to {
			stroke:#000;
		}
	}
	#z22829 path[clip-path] {
		animation:z22829k 1s linear both;
		stroke-dasharray:3000;
		stroke-width:128;
		stroke-linecap:round;
		fill:none;
	}
	#z22829 path[clip-path="url(#z22829c1)"] {animation-delay:1s;}
	#z22829 path[clip-path="url(#z22829c2)"] {animation-delay:2s;}
	#z22829 path[clip-path="url(#z22829c3)"] {animation-delay:3s;}
	#z22829 path[clip-path="url(#z22829c4)"] {animation-delay:4s;}
	#z22829 path {fill:#ccc;}
]]>
</style>
<g transform="scale(1,-1) translate(0,-900)">
	<path id="z22829d1" d="M478 650Q550 675 580 691Q619 709 663 722Q691 728 676 748Q660 764 611 790Q595 796 584 793Q575 792 581 771Q582 755 575 753Q473 692 353 647Q307 629 287 624Q277 621 284 615Q290 608 305 608Q311 605 434 634L478 650Z"/>
	<path id="z22829d2" d="M502 441Q605 457 765 460Q834 460 840 471Q846 483 828 497Q771 536 734 526Q647 505 501 479L443 470Q325 451 192 431Q170 428 187 411Q220 384 282 399Q354 420 438 431L502 441Z"/>
	<path id="z22829d3" d="M438 431Q408 247 314 160Q268 111 151 43Q126 27 157 30Q179 27 222 46Q277 64 325 98Q442 173 488 410L501 479Q513 584 523 609Q530 616 524 627Q518 634 487 647Q483 650 478 650L434 634Q438 622 442 605Q454 569 443 470L438 431Z"/>
	<path id="z22829d4" d="M488 410Q587 212 706 68Q731 34 760 32Q844 32 916 30Q947 30 948 37Q949 46 916 63Q750 138 706 185Q594 302 502 441L493.5930937937471 439.686420905273L488 410Z"/>
	<defs>
		<clipPath id="z22829c1"><use xlink:href="#z22829d1"/></clipPath>
		<clipPath id="z22829c2"><use xlink:href="#z22829d2"/></clipPath>
		<clipPath id="z22829c3"><use xlink:href="#z22829d3"/></clipPath>
		<clipPath id="z22829c4"><use xlink:href="#z22829d4"/></clipPath>
	</defs>
	<path pathLength="2999" clip-path="url(#z22829c1)" d="M674 737L595 748L474 673L290 618"/>
	<path pathLength="2999" clip-path="url(#z22829c2)" d="M193 420L743 494L835 481"/>
	<path pathLength="2999" clip-path="url(#z22829c3)" d="M442 631L486 601L460 403L409 245L323 130L148 37"/>
	<path pathLength="2999" clip-path="url(#z22829c4)" d="M497 431L718 119L777 77L943 43"/>
</g>
</svg>