<!--
AnimCJK 2016-2018 Copyright Francois Mizessyn, http://gooo.free.fr/animCJK/
Derived from:
    MakeMeAHanzi project - https://github.com/skishore/makemeahanzi
    Arphic PL KaitiM GB - https://apps.ubuntu.com/cat/applications/precise/fonts-arphic-gkai00mp/
    Arphic PL UKai - https://apps.ubuntu.com/cat/applications/fonts-arphic-ukai/
You can redistribute and/or modify this file under the terms of the Arphic Public License
as published by Arphic Technology Co., Ltd.
You should have received a copy of this license (the directory "APL") along with this file;
if not, see http://ftp.gnu.org/non-gnu/chinese-fonts-truetype/LICENSE.
-->
<svg id="z22821" class="acjk" version="1.1" viewBox="0 0 1024 1024" xmlns="http://www.w3.org/2000/svg" xmlns:xlink="http://www.w3.org/1999/xlink">
<style>
<![CDATA[
@keyframes z22821k {
	from {
		stroke:#ccc;
		stroke-dashoffset:3334;
	}
	1% {
		stroke:#c00;
		stroke-dashoffset:3334;
	}
	75% {
		stroke:#c00;
		stroke-dashoffset:0;
	}
	to {
		stroke:#000;
	}
}
#z22821 path[clip-path] {
	animation:z22821k 1s linear both;
	stroke-dasharray:3334;
	stroke-width:128;
	stroke-linecap:round;
	fill:none;
}
#z22821 path[clip-path="url(#z22821c1)"] {animation-delay:1s;}
#z22821 path[clip-path="url(#z22821c2)"] {animation-delay:2s;}
#z22821 path[clip-path="url(#z22821c3)"] {animation-delay:3s;}
#z22821 path[clip-path="url(#z22821c4)"] {animation-delay:4s;}
#z22821 path[clip-path="url(#z22821c5)"] {animation-delay:5s;}
#z22821 path[clip-path="url(#z22821c6)"] {animation-delay:6s;}
#z22821 path[clip-path="url(#z22821c7)"] {animation-delay:7s;}
#z22821 path[clip-path="url(#z22821c8)"] {animation-delay:8s;}
#z22821 path[clip-path="url(#z22821c9)"] {animation-delay:9s;}
#z22821 path[clip-path="url(#z22821c10)"] {animation-delay:10s;}
#z22821 path[clip-path="url(#z22821c11)"] {animation-delay:11s;}
#z22821 path[clip-path="url(#z22821c12)"] {animation-delay:12s;}
#z22821 path[clip-path="url(#z22821c13)"] {animation-delay:13s;}
#z22821 path[clip-path="url(#z22821c14)"] {animation-delay:14s;}
#z22821 path {fill:#ccc;}
]]>
</style>
<path id="z22821d1" d="M214 193Q202 189 176 183Q164 180 161 185Q154 191 163 207Q194 274 210 385Q214 418 232 440Q250 462 255 447Q258 438 259 426L258 397Q257 387 255 375Q236 258 231 224L214 193 Z"/>
<path id="z22821d2" d="M416 402Q431 424 445 430Q455 437 469 418Q482 394 511 265Q518 235 541 212Q553 202 542 188Q527 172 488 148Q470 141 407 156Q395 156 290 178Q250 187 214 193L231 224Q231 223 232 223Q266 213 319 204L357 198Q385 192 418 188Q443 184 452 193Q465 208 462 222Q441 354 424 372L416 402 Z"/>
<path id="z22821d3" d="M371 303Q395 299 416 295Q438 291 429 279Q419 266 395 262Q385 261 371 264L324 277Q297 286 274 296Q258 300 278 313Q281 314 325 311L371 303 Z"/>
<path id="z22821d4" d="M369 409Q390 405 416 402L424 372Q423 369 418 367Q396 355 370 369L325 382Q288 391 258 397L259 426Q265 427 273 425Q292 419 324 415L369 409 Z"/>
<path id="z22821d5" d="M367 536Q428 524 505 515Q521 514 521 506Q522 494 506 485Q481 475 459 479Q407 489 368 499L322 508Q192 532 93 544Q81 545 78 552Q75 562 89 573Q128 600 174 585Q238 564 292 552L367 536 Z"/>
<path id="z22821d6" d="M366 601Q366 568 367 536L368 499Q368 454 369 409L370 369Q370 341 371 313Q371 307 371 303L371 264Q371 210 370 208Q364 202 357 198L319 204Q323 216 324 236Q324 255 324 277L325 311Q325 345 325 382L324 415Q323 461 322 508L320 604Q308 829 315 843Q319 853 328 866Q338 879 349 863Q367 827 368 766Q367 738 366 625L366 601 Z"/>
<path id="z22821d7" d="M292 552Q261 645 70 768Q54 780 69 782Q79 785 118 769Q161 756 202 726Q280 665 320 604L321 546L292 552 Z"/>
<path id="z22821d8" d="M366 625Q370 628 378 633Q427 661 479 697Q489 704 500 702Q507 701 510 692Q511 682 503 662Q494 637 455 621Q415 609 370 601Q367 600 366 601L366 625 Z"/>
<path id="z22821d9" d="M594 273Q648 219 658 207L674 188Q692 154 719 134Q728 127 724 115Q723 105 700 84Q679 68 663 67Q648 67 653 85Q666 118 602 209Q572 252 531 299Q522 306 520 312Q516 321 528 320Q532 320 577 288L594 273 Z"/>
<path id="z22821d10" d="M658 207Q668 216 697 210Q742 197 745 203Q748 213 732 249Q719 288 675 340Q632 397 561 449Q539 462 558 462Q657 462 785 266Q806 224 824 212Q836 203 830 192Q826 182 776 160Q766 156 744 166Q722 176 674 188L658 207 Z"/>
<path id="z22821d11" d="M577 288Q581 294 593 304Q636 347 646 348Q653 348 658 339Q661 329 656 309Q653 296 633 286Q614 277 594 273L577 288 Z"/>
<path id="z22821d12" d="M609 606Q618 597 630 588Q646 573 665 555L690 528Q711 497 740 475Q749 468 747 455Q744 445 724 423Q705 407 688 404Q673 404 677 422Q684 440 676 454Q637 530 540 632Q531 639 529 644Q525 653 537 652Q546 651 592 620L609 606 Z"/>
<path id="z22821d13" d="M665 555Q695 567 735 557Q774 536 793 549Q802 556 775 619Q736 736 617 838Q512 907 485 922Q464 926 466 936Q467 940 475 941Q688 928 844 621Q863 593 892 574Q908 567 909 557Q910 544 880 523Q843 498 828 496Q815 496 803 504Q719 525 690 528L665 555 Z"/>
<path id="z22821d14" d="M592 620Q593 630 615 650Q637 672 662 701Q672 713 686 714Q696 714 701 703Q707 691 701 665Q695 635 615 608Q611 607 609 606L592 620 Z"/>
<defs>
	<clipPath id="z22821c1"><use xlink:href="#z22821d1"/></clipPath>
	<clipPath id="z22821c2"><use xlink:href="#z22821d2"/></clipPath>
	<clipPath id="z22821c3"><use xlink:href="#z22821d3"/></clipPath>
	<clipPath id="z22821c4"><use xlink:href="#z22821d4"/></clipPath>
	<clipPath id="z22821c5"><use xlink:href="#z22821d5"/></clipPath>
	<clipPath id="z22821c6"><use xlink:href="#z22821d6"/></clipPath>
	<clipPath id="z22821c7"><use xlink:href="#z22821d7"/></clipPath>
	<clipPath id="z22821c8"><use xlink:href="#z22821d8"/></clipPath>
	<clipPath id="z22821c9"><use xlink:href="#z22821d9"/></clipPath>
	<clipPath id="z22821c10"><use xlink:href="#z22821d10"/></clipPath>
	<clipPath id="z22821c11"><use xlink:href="#z22821d11"/></clipPath>
	<clipPath id="z22821c12"><use xlink:href="#z22821d12"/></clipPath>
	<clipPath id="z22821c13"><use xlink:href="#z22821d13"/></clipPath>
	<clipPath id="z22821c14"><use xlink:href="#z22821d14"/></clipPath>
</defs>
<path pathLength="3333" clip-path="url(#z22821c1)" d="M166 193L204 234L243 448"/>
<path pathLength="3333" clip-path="url(#z22821c2)" d="M223 195L441 167L492 189L504 208L441 425"/>
<path pathLength="3333" clip-path="url(#z22821c3)" d="M274 302L425 281"/>
<path pathLength="3333" clip-path="url(#z22821c4)" d="M263 418L420 380"/>
<path pathLength="3333" clip-path="url(#z22821c5)" d="M86 554L145 564L517 502"/>
<path pathLength="3333" clip-path="url(#z22821c6)" d="M327 208L348 305L335 867"/>
<path pathLength="3333" clip-path="url(#z22821c7)" d="M315 554L219 684L75 776"/>
<path pathLength="3333" clip-path="url(#z22821c8)" d="M372 607L505 691"/>
<path pathLength="3333" clip-path="url(#z22821c9)" d="M660 77L686 127L525 313"/>
<path pathLength="3333" clip-path="url(#z22821c10)" d="M667 204L757 180L787 209L679 369L557 458"/>
<path pathLength="3333" clip-path="url(#z22821c11)" d="M586 286L650 341"/>
<path pathLength="3333" clip-path="url(#z22821c12)" d="M685 413L710 462L535 645"/>
<path pathLength="3333" clip-path="url(#z22821c13)" d="M675 549L812 525L852 565L670 823L476 932"/>
<path pathLength="3333" clip-path="url(#z22821c14)" d="M600 622L668 664L692 707"/>
</svg>