<!--
AnimCJK 2016-2017 Copyright Francois Mizessyn, https://github.com/parsimonhi/animCJK
Derived from:
    MakeMeAHanzi project - https://github.com/skishore/makemeahanzi
    Arphic PL KaitiM GB - https://apps.ubuntu.com/cat/applications/precise/fonts-arphic-gkai00mp/
    Arphic PL UKai - https://apps.ubuntu.com/cat/applications/fonts-arphic-ukai/
You can redistribute and/or modify this file under the terms of the Arphic Public License
as published by Arphic Technology Co., Ltd.
You should have received a copy of this license (the directory "APL") along with this file;
if not, see http://ftp.gnu.org/non-gnu/chinese-fonts-truetype/LICENSE.
-->
<svg id="z22831" class="acjk" version="1.1" viewBox="0 0 1024 1024" xmlns="http://www.w3.org/2000/svg" xmlns:xlink="http://www.w3.org/1999/xlink">
<style>
<![CDATA[
@keyframes z22831k {
	from {
		stroke:#c00;
		stroke-dashoffset:3000;
	}
	75% {
		stroke:#c00;
		stroke-dashoffset:0;
	}
	to {
		stroke:#000;
	}
}
#z22831 path[clip-path] {
	animation:z22831k 1s linear both;
	stroke-dasharray:3000;
	stroke-width:128;
	stroke-linecap:round;
	fill:none;
}
#z22831 path[clip-path="url(#z22831c1)"] {animation-delay:1s;}
#z22831 path[clip-path="url(#z22831c2)"] {animation-delay:2s;}
#z22831 path[clip-path="url(#z22831c3)"] {animation-delay:3s;}
#z22831 path[clip-path="url(#z22831c4)"] {animation-delay:4s;}
#z22831 path[clip-path="url(#z22831c5)"] {animation-delay:5s;}
#z22831 path {fill:#ccc;}
]]>
</style>
<path id="z22831d1" d="M547 247Q553 244 746 225Q758 226 768 213Q769 200 745 188Q708 164 637 184Q498 211 480 217L421 227Q259 242 202 249Q171 252 194 271Q230 302 260 294Q326 281 405 269L464 260Q489 256 516 252L547 247 Z"/>
<path id="z22831d2" d="M480 217Q504 148 527 106Q536 96 529 84Q522 74 488 55Q463 42 453 45Q438 49 441 67Q450 140 423 221Q422 222 421 227L405 269Q335 425 161 580Q133 604 99 633Q92 640 98 644Q107 647 119 641Q314 545 398 392Q432 338 464 260L480 217 Z"/>
<path id="z22831d3" d="M516 252Q517 255 522 259Q622 401 751 549Q773 573 808 572Q929 569 967 563Q979 560 980 555Q980 549 964 541Q799 481 746 439Q653 360 547 247L516 252 Z"/>
<path id="z22831d4" d="M464 611Q525 592 578 584Q603 580 608 587Q620 606 610 654Q591 787 557 845Q538 878 509 873Q482 866 459 858Q434 851 453 875Q498 915 519 948Q541 973 562 952Q596 927 620 883Q648 831 667 672Q674 615 693 587Q706 574 699 563Q690 553 637 530Q616 521 596 535Q571 551 475 577L416 593Q338 611 273 618Q255 619 252 629Q251 636 276 648Q301 663 321 655Q364 640 405 629L464 611 Z"/>
<path id="z22831d5" d="M405 629Q342 794 213 871Q200 878 183 889Q167 899 149 908Q136 915 148 920Q209 926 303 858Q351 827 407 743Q432 701 464 611L475 577Q487 523 509 491Q521 475 505 464Q463 422 435 429Q422 432 426 448Q441 491 416 593L405 629 Z"/>
<defs>
	<clipPath id="z22831c1"><use xlink:href="#z22831d1"/></clipPath>
	<clipPath id="z22831c2"><use xlink:href="#z22831d2"/></clipPath>
	<clipPath id="z22831c3"><use xlink:href="#z22831d3"/></clipPath>
	<clipPath id="z22831c4"><use xlink:href="#z22831d4"/></clipPath>
	<clipPath id="z22831c5"><use xlink:href="#z22831d5"/></clipPath>
</defs>
<path pathLength="2999" clip-path="url(#z22831c1)" d="M193 260L246 270L665 205L760 209"/>
<path pathLength="2999" clip-path="url(#z22831c2)" d="M450 53L486 109L383 366L264 516L104 639"/>
<path pathLength="2999" clip-path="url(#z22831c3)" d="M526 255L792 522L971 553"/>
<path pathLength="2999" clip-path="url(#z22831c4)" d="M257 628L315 634L605 555L655 581L577 882L528 917L453 861"/>
<path pathLength="2999" clip-path="url(#z22831c5)" d="M433 432L472 491L388 725L301 832L150 913"/>
</svg>