<!--
AnimCJK 2016-2019 Copyright Francois Mizessyn - https://github.com/parsimonhi/animCJK
Derived from:
    MakeMeAHanzi project - https://github.com/skishore/makemeahanzi
    Arphic PL KaitiM GB font
    Arphic PL UKai font
You can redistribute and/or modify this file under the terms of the Arphic Public License
as published by Arphic Technology Co., Ltd.
You should have received a copy of this license along with this file.
If not, see http://ftp.gnu.org/non-gnu/chinese-fonts-truetype/LICENSE.
-->
<svg id="z22882" class="acjk" version="1.1" viewBox="0 0 1024 1024" xmlns="http://www.w3.org/2000/svg" xmlns:xlink="http://www.w3.org/1999/xlink">
<style>
<![CDATA[
@keyframes zk {
	to {
		stroke-dashoffset:0;
	}
}
svg.acjk path[clip-path] {
	--t:0.8s;
	animation:zk var(--t) linear forwards var(--d);
	stroke-dasharray:3337;
	stroke-dashoffset:3339;
	stroke-width:128;
	stroke-linecap:round;
	fill:none;
	stroke:#000;
}
svg.acjk path[id] {fill:#ccc;}
]]>
</style>
<path id="z22882d1" d="M592 222C593 221 640 215 739 207C745 206 755 205 760 195C763 187 752 179 738 172C713 157 677 155 629 169C576 183 511 193 481 198C443 203 443 203 424 206C405 208 387 210 369 212C332 215 294 218 254 222C233 224 230 231 246 244C262 257 284 267 314 265C339 262 366 255 397 251C436 245 436 245 456 242C489 237 523 230 561 226C582 223 582 223 592 222Z"/>
<path id="z22882d2" d="M481 198C506 152 524 115 542 93C547 86 549 80 546 73C543 66 532 56 513 43C500 34 490 29 483 30C474 30 470 36 470 47C470 91 459 146 424 206C406 236 406 236 397 251C342 341 256 406 172 466C149 481 124 496 97 515C91 518 91 522 95 525C99 527 106 527 114 525C170 506 222 479 272 446C339 401 403 335 456 242C473 213 473 213 481 198Z"/>
<path id="z22882d3" d="M561 226C689 364 769 443 805 447C868 453 919 441 956 435C966 433 973 432 974 428C975 424 970 420 962 417C842 372 778 349 771 346C710 316 651 274 592 222C585 215 555 218 561 226Z"/>
<path id="z22882d4" d="M518 419C578 407 608 398 611 396C615 391 617 385 615 382C610 374 598 368 583 365C566 361 547 366 523 373C490 382 490 382 474 387C449 394 412 398 364 404C343 406 338 414 355 424C385 441 411 438 475 427C504 422 504 422 518 419Z"/>
<path id="z22882d5" d="M507 506C511 476 515 447 518 419C521 388 521 388 523 373C523 364 528 349 531 341C532 334 534 328 536 324C538 317 535 310 524 303C506 291 491 285 479 283C470 281 464 282 460 287C455 291 455 296 460 304C468 316 472 344 474 387C475 414 475 414 475 427C475 453 474 481 473 511C473 522 505 517 507 506Z"/>
<path id="z22882d6" d="M574 534C620 529 696 527 800 527C812 526 819 523 823 518C826 511 822 502 812 494C773 465 737 460 699 471C674 477 646 481 616 487C577 494 577 494 557 498C540 501 524 503 507 506C484 509 484 509 473 511C384 524 289 536 188 550C174 551 172 558 183 569C191 577 201 584 214 587C227 590 240 590 250 588C338 562 429 547 521 539C556 536 556 536 574 534Z"/>
<path id="z22882d7" d="M480 626Q531 577 574 534C602 503 602 503 616 487Q656 441 680 420Q689 413 685 397Q669 346 640 339Q625 336 626 355Q626 397 582 463Q569 481 557 498C533 525 533 525 521 539Q458 602 423 633C398 654 398 654 385 664Q268 757 126 839Q119 842 118 848Q117 852 122 853Q129 854 139 851Q236 811 288 777Q340 744 390 705C450 652 450 652 480 626Z"/>
<path id="z22882d8" d="M423 633C413 623 398 618 380 620C372 622 370 627 374 633C378 641 382 652 385 664C388 691 388 691 390 705C392 767 385 813 371 843C363 859 366 881 381 907C381 907 383 909 386 913C390 919 395 921 401 919C407 914 413 903 419 886C424 865 424 865 426 854C428 832 429 805 429 774C430 756 430 756 430 747C430 707 432 680 434 667C436 655 433 640 423 633Z"/>
<path id="z22882d9" d="M587 874C605 896 620 918 633 940C639 951 645 957 653 957C663 956 673 945 683 924C694 899 698 872 696 843C692 810 686 763 682 702C680 683 686 666 697 652C702 643 702 637 697 631C684 618 662 605 630 590C618 584 609 584 598 590C574 601 540 611 499 621C493 623 480 626 423 633C411 635 422 669 434 667C443 665 534 649 586 638C599 634 610 636 617 642C623 647 627 711 629 832C629 845 620 850 617 853C608 862 580 864 587 874Z"/>
<path id="z22882d10" d="M429 774C467 768 525 764 574 759C588 757 594 750 589 743C582 734 571 727 555 724C543 721 501 729 430 747C421 749 420 776 429 774Z"/>
<path id="z22882d11" d="M419 886C469 880 519 876 587 874C599 874 626 862 617 853C612 848 605 842 596 836C586 829 571 829 553 833C506 842 464 848 426 854C415 856 408 888 419 886Z"/>
<defs>
	<clipPath id="z22882c1"><use xlink:href="#z22882d1"/></clipPath>
	<clipPath id="z22882c2"><use xlink:href="#z22882d2"/></clipPath>
	<clipPath id="z22882c3"><use xlink:href="#z22882d3"/></clipPath>
	<clipPath id="z22882c4"><use xlink:href="#z22882d4"/></clipPath>
	<clipPath id="z22882c5"><use xlink:href="#z22882d5"/></clipPath>
	<clipPath id="z22882c6"><use xlink:href="#z22882d6"/></clipPath>
	<clipPath id="z22882c7"><use xlink:href="#z22882d7"/></clipPath>
	<clipPath id="z22882c8"><use xlink:href="#z22882d8"/></clipPath>
	<clipPath id="z22882c9"><use xlink:href="#z22882d9"/></clipPath>
	<clipPath id="z22882c10"><use xlink:href="#z22882d10"/></clipPath>
	<clipPath id="z22882c11"><use xlink:href="#z22882d11"/></clipPath>
</defs>
<path style="--d:1s;" pathLength="3333" clip-path="url(#z22882c1)" d="M245 233L755 192"/>
<path style="--d:2s;" pathLength="3333" clip-path="url(#z22882c2)" d="M479 36L506 88L399 287L269 419L103 517"/>
<path style="--d:3s;" pathLength="3333" clip-path="url(#z22882c3)" d="M571 228L807 404L964 426"/>
<path style="--d:4s;" pathLength="3333" clip-path="url(#z22882c4)" d="M355 412L610 387"/>
<path style="--d:5s;" pathLength="3333" clip-path="url(#z22882c5)" d="M463 291L503 328L482 504"/>
<path style="--d:6s;" pathLength="3333" clip-path="url(#z22882c6)" d="M184 560L710 498L819 505"/>
<path style="--d:7s;" pathLength="3333" clip-path="url(#z22882c7)" d="M636 341L653 401L482 601L317 737L128 845"/>
<path style="--d:8s;" pathLength="3333" clip-path="url(#z22882c8)" d="M380 625L410 670L397 914"/>
<path style="--d:9s;" pathLength="3333" clip-path="url(#z22882c9)" d="M447 661L600 613L652 634L660 912L599 878"/>
<path style="--d:10s;" pathLength="3333" clip-path="url(#z22882c10)" d="M437 766L586 745"/>
<path style="--d:11s;" pathLength="3333" clip-path="url(#z22882c11)" d="M424 880L607 851"/>
</svg>