<!--
AnimCJK 2016-2017 Copyright Francois Mizessyn, http://gooo.free.fr/animCJK/
Derived from:
    MakeMeAHanzi project - https://github.com/skishore/makemeahanzi
    Arphic PL KaitiM GB - https://apps.ubuntu.com/cat/applications/precise/fonts-arphic-gkai00mp/
    Arphic PL UKai - https://apps.ubuntu.com/cat/applications/fonts-arphic-ukai/
You can redistribute and/or modify this file under the terms of the Arphic Public License
as published by Arphic Technology Co., Ltd.
You should have received a copy of this license (the directory "APL") along with this file;
if not, see http://ftp.gnu.org/non-gnu/chinese-fonts-truetype/LICENSE.
-->
<svg id="z22918" class="acjk" version="1.1" viewBox="0 0 1024 1024" xmlns="http://www.w3.org/2000/svg" xmlns:xlink="http://www.w3.org/1999/xlink">
<style>
<![CDATA[
	@keyframes z22918k {
		from {
			stroke:#c00;
			stroke-dashoffset:3000;
		}
		75% {
			stroke:#c00;
			stroke-dashoffset:0;
		}
		to {
			stroke:#000;
		}
	}
	#z22918 path[clip-path] {
		animation:z22918k 1s linear both;
		stroke-dasharray:3000;
		stroke-width:128;
		stroke-linecap:round;
		fill:none;
	}
	#z22918 path[clip-path="url(#z22918c1)"] {animation-delay:1s;}
	#z22918 path[clip-path="url(#z22918c2)"] {animation-delay:2s;}
	#z22918 path[clip-path="url(#z22918c3)"] {animation-delay:3s;}
	#z22918 path[clip-path="url(#z22918c4)"] {animation-delay:4s;}
	#z22918 path[clip-path="url(#z22918c5)"] {animation-delay:5s;}
	#z22918 path[clip-path="url(#z22918c6)"] {animation-delay:6s;}
	#z22918 path {fill:#ccc;}
]]>
</style>
<g transform="scale(1,-1) translate(0,-900)">
	<path id="z22918d1" d="M175 565Q202 537 230 501Q240 488 256 486Q266 485 273 497Q279 510 275 540Q268 576 177 611Q162 617 156 615Q152 612 151 599Q152 589 175 565Z"/>
	<path id="z22918d2" d="M335 431Q119 272 81 260Q68 254 70 243Q73 230 85 225Q113 218 151 210Q161 210 171 223Q183 245 331 392Q332 393 334 394L335 431Z"/>
	<path id="z22918d3" d="M334 394Q325 205 324 195Q318 161 308 125Q298 89 321 29Q328 13 335 9Q341 3 348 10Q355 14 365 34Q375 58 374 87Q373 133 382 555Q383 642 400 701Q409 714 406 728Q399 737 347 769Q325 785 306 771Q302 767 307 752Q337 707 337 638Q337 499 335 431L334 394Z"/>
	<path id="z22918d4" d="M642 153Q643 152 646 150Q703 114 779 49Q798 36 807 34Q816 35 822 47Q828 59 820 91Q813 119 788 132Q752 154 673 192L626 214Q593 230 553 248Q534 255 533 275Q554 333 574 391L589 437Q616 522 640 610Q650 659 671 684Q684 706 678 720Q665 739 616 770Q595 783 578 775Q565 768 574 750Q604 702 542 430L530 382Q506 307 487 277Q477 252 500 234Q552 212 599 181L642 153Z"/>
	<path id="z22918d5" d="M599 181Q548 132 429 78Q404 66 434 65Q482 62 575 105Q608 129 642 153L673 192Q721 271 744 396Q745 412 750 422L725 464Q724 465 719 467Q685 483 670 478Q657 472 668 455Q668 454 669 452L680 411Q680 405 680 398Q677 296 626 214L599 181Z"/>
	<path id="z22918d6" d="M750 422Q825 432 887 439Q899 438 908 451Q909 464 885 475Q848 497 763 474Q744 470 725 464L669 452Q626 445 589 437L542 430Q527 430 409 415Q378 411 402 392Q432 365 481 374Q503 380 530 382L574 391Q623 401 680 411L750 422Z"/>
	<defs>
		<clipPath id="z22918c1"><use xlink:href="#z22918d1"/></clipPath>
		<clipPath id="z22918c2"><use xlink:href="#z22918d2"/></clipPath>
		<clipPath id="z22918c3"><use xlink:href="#z22918d3"/></clipPath>
		<clipPath id="z22918c4"><use xlink:href="#z22918d4"/></clipPath>
		<clipPath id="z22918c5"><use xlink:href="#z22918d5"/></clipPath>
		<clipPath id="z22918c6"><use xlink:href="#z22918d6"/></clipPath>
	</defs>
	<path pathLength="2999" clip-path="url(#z22918c1)" d="M161 609L235 546L262 491"/>
	<path pathLength="2999" clip-path="url(#z22918c2)" d="M73 245L147 251L331 420"/>
	<path pathLength="2999" clip-path="url(#z22918c3)" d="M310 767L368 715L336 13"/>
	<path pathLength="2999" clip-path="url(#z22918c4)" d="M579 771L632 701L510 259L764 107L809 39"/>
	<path pathLength="2999" clip-path="url(#z22918c5)" d="M668 472L714 415L657 215L561 123L429 69"/>
	<path pathLength="2999" clip-path="url(#z22918c6)" d="M397 407L466 397L801 456L901 455"/>
</g>
</svg>