<!--
AnimCJK 2016-2018 Copyright Francois Mizessyn - https://github.com/parsimonhi/animCJK
Derived from:
    MakeMeAHanzi project - https://github.com/skishore/makemeahanzi
    Arphic PL KaitiM GB - https://apps.ubuntu.com/cat/applications/precise/fonts-arphic-gkai00mp/
    Arphic PL UKai - https://apps.ubuntu.com/cat/applications/fonts-arphic-ukai/
You can redistribute and/or modify this file under the terms of the Arphic Public License
as published by Arphic Technology Co., Ltd.
You should have received a copy of this license (the directory "APL") along with this file;
if not, see http://ftp.gnu.org/non-gnu/chinese-fonts-truetype/LICENSE.
-->
<svg id="z22935" class="acjk" version="1.1" viewBox="0 0 1024 1024" xmlns="http://www.w3.org/2000/svg" xmlns:xlink="http://www.w3.org/1999/xlink">
<style>
<![CDATA[
@keyframes z22935k {
	from {
		stroke:#ccc;
		stroke-dashoffset:3334;
	}
	1% {
		stroke:#c00;
		stroke-dashoffset:3334;
	}
	75% {
		stroke:#c00;
		stroke-dashoffset:0;
	}
	to {
		stroke:#000;
	}
}
#z22935 path[clip-path] {
	animation:z22935k 1s linear both;
	stroke-dasharray:3334;
	stroke-width:128;
	stroke-linecap:round;
	fill:none;
}
#z22935 path[clip-path="url(#z22935c1)"] {animation-delay:1s;}
#z22935 path[clip-path="url(#z22935c2)"] {animation-delay:2s;}
#z22935 path[clip-path="url(#z22935c3)"] {animation-delay:3s;}
#z22935 path[clip-path="url(#z22935c4)"] {animation-delay:4s;}
#z22935 path[clip-path="url(#z22935c5)"] {animation-delay:5s;}
#z22935 path[clip-path="url(#z22935c6)"] {animation-delay:6s;}
#z22935 path[clip-path="url(#z22935c7)"] {animation-delay:7s;}
#z22935 path {fill:#ccc;}
]]>
</style>
<path id="z22935d1" d="M245 449Q270 353 293 256Q302 208 321 183Q333 161 326 149Q311 130 265 104Q244 91 228 100Q215 107 225 124Q261 176 201 458C194 488 194 488 191 503Q190 506 190 511Q178 562 155 601Q145 623 166 640Q209 664 245 695C268 714 268 714 279 724Q309 749 347 790Q363 805 373 807Q382 806 387 796Q394 786 389 754Q383 720 308 679C282 665 282 665 269 658Q247 645 218 631Q197 621 199 600Q217 545 233 490C241 463 241 463 245 449 Z"/>
<path id="z22935d2" d="M245 695Q190 767 114 810Q99 820 85 830Q72 837 83 841Q96 842 129 831Q181 812 223 778Q257 753 279 724C298 694 298 694 308 679Q344 616 359 556Q380 463 398 434Q408 418 393 409Q350 373 327 380Q314 384 319 398Q326 413 327 431C326 450 326 450 326 460Q313 575 269 658C253 683 253 683 245 695 Z"/>
<path id="z22935d3" d="M327 431Q287 438 245 449C216 455 216 455 201 458Q150 465 96 478Q77 482 46 479Q34 479 31 488Q28 500 36 508Q55 524 83 544Q93 548 104 541Q146 517 191 503C219 494 219 494 233 490Q278 474 326 460C335 456 336 429 327 431 Z"/>
<path id="z22935d4" d="M629 229Q653 165 664 148Q670 141 667 131Q655 107 613 100Q591 99 581 102Q572 106 577 117Q607 202 503 390Q497 396 494 404Q461 459 375 568Q368 575 379 575Q439 559 539 412Q576 352 618 256C625 238 625 238 629 229 Z"/>
<path id="z22935d5" d="M618 256Q696 373 797 498Q816 519 846 518Q952 519 985 514Q995 513 996 507Q997 503 983 494Q841 436 777 381Q707 317 629 229C623 221 612 248 618 256 Z"/>
<path id="z22935d6" d="M576 509Q598 530 622 555Q634 568 649 568Q659 568 665 555Q669 542 662 513Q658 495 631 481Q567 457 552 461Q548 465 548 477Q551 487 576 509 Z"/>
<path id="z22935d7" d="M472 658Q441 658 442 665Q435 681 462 694Q490 715 507 712Q522 712 543 699Q679 636 701 657Q708 670 694 689Q684 704 662 751Q625 823 609 835Q576 860 588 911Q591 930 600 936Q609 940 622 930Q650 912 729 736Q750 687 782 666Q791 659 792 649Q793 636 760 615Q726 593 710 592Q701 593 694 599Q598 641 472 658 Z"/>
<defs>
	<clipPath id="z22935c1"><use xlink:href="#z22935d1"/></clipPath>
	<clipPath id="z22935c2"><use xlink:href="#z22935d2"/></clipPath>
	<clipPath id="z22935c3"><use xlink:href="#z22935d3"/></clipPath>
	<clipPath id="z22935c4"><use xlink:href="#z22935d4"/></clipPath>
	<clipPath id="z22935c5"><use xlink:href="#z22935d5"/></clipPath>
	<clipPath id="z22935c6"><use xlink:href="#z22935d6"/></clipPath>
	<clipPath id="z22935c7"><use xlink:href="#z22935d7"/></clipPath>
</defs>
<path pathLength="3333" clip-path="url(#z22935c1)" d="M227 106L283 167L175 612L385 793"/>
<path pathLength="3333" clip-path="url(#z22935c2)" d="M326 385L364 432L302 643L223 752L87 836"/>
<path pathLength="3333" clip-path="url(#z22935c3)" d="M34 492L93 511L322 441"/>
<path pathLength="3333" clip-path="url(#z22935c4)" d="M581 109L625 147L578 288L486 452L381 569"/>
<path pathLength="3333" clip-path="url(#z22935c5)" d="M632 240L826 467L989 503"/>
<path pathLength="3333" clip-path="url(#z22935c6)" d="M555 468L662 551"/>
<path pathLength="3333" clip-path="url(#z22935c7)" d="M445 669L504 683L694 624L746 654L604 933"/>
</svg>