<!--
AnimCJK 2016-2018 Copyright Francois Mizessyn - https://github.com/parsimonhi/animCJK
Derived from:
    MakeMeAHanzi project - https://github.com/skishore/makemeahanzi
    Arphic PL KaitiM GB font
    Arphic PL UKai font
You can redistribute and/or modify this file under the terms of the Arphic Public License
as published by Arphic Technology Co., Ltd.
You should have received a copy of this license along with this file.
If not, see http://ftp.gnu.org/non-gnu/chinese-fonts-truetype/LICENSE.
-->
<svg id="z22934" class="acjk" version="1.1" viewBox="0 0 1024 1024" xmlns="http://www.w3.org/2000/svg" xmlns:xlink="http://www.w3.org/1999/xlink">
<style>
<![CDATA[
@keyframes zk {
	to {
		stroke-dashoffset:0;
	}
}
svg.acjk path[clip-path] {
	--t:0.8s;
	animation:zk var(--t) linear forwards calc(var(--d) * 1.25 * var(--t));
	stroke-dasharray:3337;
	stroke-dashoffset:3339;
	stroke-width:128;
	stroke-linecap:round;
	fill:none;
	stroke:#000;
}
svg.acjk path[id] {fill:#ccc;}
]]>
</style>
<path id="z22934d1" d="M330 700C348 713 370 732 395 753C405 762 414 766 420 766C426 766 430 762 434 755C437 748 437 734 432 715C426 694 403 673 360 655C333 644 333 644 319 638C303 631 285 623 265 615C252 609 242 601 246 589C257 544 274 500 287 456C294 430 294 430 298 417C314 358 327 298 341 238C347 207 356 184 367 168C375 154 377 142 372 135C364 123 343 110 314 92C301 84 289 82 278 89C269 93 269 101 276 111C297 141 293 247 255 426C249 454 249 454 246 468C243 478 241 488 239 498C231 532 218 562 204 589C196 603 200 619 216 628C243 643 271 656 296 675C319 692 319 692 330 700Z"/>
<path id="z22934d2" d="M296 675C272 713 205 765 189 776C169 788 149 801 129 814C120 819 119 823 127 825C135 826 151 824 173 816C255 783 310 730 330 700C350 670 350 670 360 655C390 609 418 486 436 442C439 432 443 423 449 415C456 404 453 396 445 389C415 365 394 355 379 360C370 362 367 367 371 377C373 383 377 391 378 400C379 419 379 419 379 429C379 441 379 466 376 482C362 542 340 603 319 638C304 663 304 663 296 675Z"/>
<path id="z22934d3" d="M378 400Q338 407 298 417C269 423 269 423 255 426Q183 439 107 453Q85 457 51 453Q38 453 36 462Q32 475 40 483Q59 501 89 522Q99 526 111 519Q177 483 246 468C273 460 273 460 287 456Q362 432 379 429C388 427 387 398 378 400Z"/>
<path id="z22934d4" d="M630 257C716 233 767 208 791 205C803 203 811 202 814 197C817 189 814 180 805 173C790 160 767 149 737 136C725 131 715 126 706 129C700 130 697 136 697 144C695 174 623 214 481 279C473 282 477 290 482 292C486 293 520 287 583 270C614 261 614 261 630 257Z"/>
<path id="z22934d5" d="M654 480C719 468 794 458 881 458C893 457 902 455 905 449C908 441 904 432 893 425C853 400 814 398 775 411C742 421 703 429 657 439C623 446 623 446 606 449C559 458 508 468 454 479C441 481 439 487 450 497C466 512 492 516 527 508C550 502 574 493 601 489C636 483 636 483 654 480Z"/>
<path id="z22934d6" d="M648 521C651 506 653 492 654 480C656 453 656 453 657 439C662 358 675 313 680 303C685 290 682 282 671 276C650 264 637 257 630 257C614 254 575 256 583 270C606 306 616 365 606 449C603 476 603 476 601 489C584 619 515 742 411 817C400 824 391 835 382 844C373 851 373 855 382 856C392 856 408 850 431 838C472 816 505 786 535 754C566 719 585 691 607 649C615 633 628 601 637 567C644 536 644 536 648 521Z"/>
<path id="z22934d7" d="M637 567C729 745 789 838 816 843C835 846 902 845 940 847C956 847 963 846 964 843C965 838 958 831 941 821C852 769 801 732 784 713C737 660 692 597 648 521C640 507 630 553 637 567Z"/>
<defs>
	<clipPath id="z22934c1"><use xlink:href="#z22934d1"/></clipPath>
	<clipPath id="z22934c2"><use xlink:href="#z22934d2"/></clipPath>
	<clipPath id="z22934c3"><use xlink:href="#z22934d3"/></clipPath>
	<clipPath id="z22934c4"><use xlink:href="#z22934d4"/></clipPath>
	<clipPath id="z22934c5"><use xlink:href="#z22934d5"/></clipPath>
	<clipPath id="z22934c6"><use xlink:href="#z22934d6"/></clipPath>
	<clipPath id="z22934c7"><use xlink:href="#z22934d7"/></clipPath>
</defs>
<path style="--d:1;" pathLength="3333" clip-path="url(#z22934c1)" d="M278 94L331 158L225 603L389 707L425 760"/>
<path style="--d:2;" pathLength="3333" clip-path="url(#z22934c2)" d="M376 366L415 405L348 630L263 741L132 820"/>
<path style="--d:3;" pathLength="3333" clip-path="url(#z22934c3)" d="M43 463L102 488L378 413"/>
<path style="--d:4;" pathLength="3333" clip-path="url(#z22934c4)" d="M810 190L720 175L631 234L487 285"/>
<path style="--d:5;" pathLength="3333" clip-path="url(#z22934c5)" d="M450 488L794 433L901 440"/>
<path style="--d:6;" pathLength="3333" clip-path="url(#z22934c6)" d="M590 272L641 301L603 591L512 750L383 849"/>
<path style="--d:7;" pathLength="3333" clip-path="url(#z22934c7)" d="M650 530L676 603L791 766L831 803L955 841"/>
</svg>