<!--
AnimCJK 2016-2019 Copyright Francois Mizessyn - https://github.com/parsimonhi/animCJK
Derived from:
    MakeMeAHanzi project - https://github.com/skishore/makemeahanzi
    Arphic PL KaitiM GB font
    Arphic PL UKai font
You can redistribute and/or modify this file under the terms of the Arphic Public License
as published by Arphic Technology Co., Ltd.
You should have received a copy of this license along with this file.
If not, see http://ftp.gnu.org/non-gnu/chinese-fonts-truetype/LICENSE.
-->
<svg id="z22948" class="acjk" version="1.1" viewBox="0 0 1024 1024" xmlns="http://www.w3.org/2000/svg" xmlns:xlink="http://www.w3.org/1999/xlink">
<style>
<![CDATA[
@keyframes zk {
	to {
		stroke-dashoffset:0;
	}
}
svg.acjk path[clip-path] {
	--t:0.8s;
	animation:zk var(--t) linear forwards var(--d);
	stroke-dasharray:3337;
	stroke-dashoffset:3339;
	stroke-width:128;
	stroke-linecap:round;
	fill:none;
	stroke:#000;
}
svg.acjk path[id] {fill:#ccc;}
]]>
</style>
<path id="z22948d1" d="M306 714Q334 742 370 783Q386 799 395 801Q404 802 410 791Q417 781 414 750Q411 717 338 669C311 652 311 652 297 643Q272 625 237 606Q216 593 219 572Q237 517 253 462C261 434 261 434 265 420Q290 326 313 228Q322 180 341 155Q353 133 346 121Q331 102 285 76Q264 63 248 72Q235 79 245 96Q278 145 222 428C215 458 215 458 212 473Q184 557 175 573Q165 595 184 612Q232 643 272 681C295 703 295 703 306 714Z"/>
<path id="z22948d2" d="M272 681Q217 744 105 816Q92 825 103 828Q184 835 297 724Q301 718 306 714C320 703 331 686 338 669Q342 659 350 650Q381 598 396 536Q421 439 439 410Q449 394 434 383Q392 344 363 351Q350 354 354 370Q361 383 362 401C361 422 361 422 361 432Q360 447 357 465Q347 549 297 643C280 668 280 668 272 681Z"/>
<path id="z22948d3" d="M362 401Q314 410 265 420C236 425 236 425 222 428Q167 435 110 446Q88 450 52 445Q39 445 36 454Q33 466 41 475Q60 493 89 515Q98 519 110 512Q158 487 212 473C239 466 239 466 253 462Q305 447 361 432C371 430 372 399 362 401Z"/>
<path id="z22948d4" d="M672 315Q789 213 827 200Q849 193 842 175Q838 159 769 120Q750 110 726 118Q662 140 565 166Q540 173 479 171Q454 170 463 191Q470 204 491 217Q522 236 558 215Q580 206 699 166Q712 160 725 168Q738 177 732 191Q695 243 652 302C647 308 666 320 672 315Z"/>
<path id="z22948d5" d="M652 302Q637 293 574 284Q564 283 560 285Q556 289 558 299Q559 302 657 373Q669 382 682 380Q689 379 693 368Q696 355 686 332Q682 322 672 315C659 306 659 306 652 302Z"/>
<path id="z22948d6" d="M660 438Q787 410 821 413Q840 423 839 432Q839 436 816 502Q810 515 817 519Q824 523 839 510Q888 473 930 459Q964 446 963 439Q962 429 889 380Q865 364 792 380Q726 389 546 424Q506 431 463 437Q430 441 451 457Q479 481 529 470Q568 458 614 447C645 441 645 441 660 438Z"/>
<path id="z22948d7" d="M591 858Q567 848 537 837Q525 833 525 840Q524 847 534 859Q594 920 632 970Q644 980 659 964Q699 913 701 813Q691 644 697 504Q704 476 697 465Q688 453 660 438C647 430 608 432 614 447Q615 451 621 459Q633 484 632 527Q636 615 637 820Q636 850 625 860Q615 866 591 858Z"/>
<defs>
	<clipPath id="z22948c1"><use xlink:href="#z22948d1"/></clipPath>
	<clipPath id="z22948c2"><use xlink:href="#z22948d2"/></clipPath>
	<clipPath id="z22948c3"><use xlink:href="#z22948d3"/></clipPath>
	<clipPath id="z22948c4"><use xlink:href="#z22948d4"/></clipPath>
	<clipPath id="z22948c5"><use xlink:href="#z22948d5"/></clipPath>
	<clipPath id="z22948c6"><use xlink:href="#z22948d6"/></clipPath>
	<clipPath id="z22948c7"><use xlink:href="#z22948d7"/></clipPath>
</defs>
<path style="--d:1s;" pathLength="3333" clip-path="url(#z22948c1)" d="M250 81L302 142L197 590L408 789"/>
<path style="--d:2s;" pathLength="3333" clip-path="url(#z22948c2)" d="M361 355L402 404L336 623L250 736L108 822"/>
<path style="--d:3s;" pathLength="3333" clip-path="url(#z22948c3)" d="M39 457L96 481L357 410"/>
<path style="--d:4s;" pathLength="3333" clip-path="url(#z22948c4)" d="M468 180L526 198L749 145L787 186L661 306"/>
<path style="--d:5s;" pathLength="3333" clip-path="url(#z22948c5)" d="M563 291L636 324L682 373"/>
<path style="--d:6s;" pathLength="3333" clip-path="url(#z22948c6)" d="M450 446L833 394L889 426L909 454L823 512"/>
<path style="--d:7s;" pathLength="3333" clip-path="url(#z22948c7)" d="M622 448L665 486L666 850L627 918L533 843"/>
</svg>