<!--
AnimCJK 2016-2019 Copyright Francois Mizessyn - https://github.com/parsimonhi/animCJK
Derived from:
    MakeMeAHanzi project - https://github.com/skishore/makemeahanzi
    Arphic PL KaitiM GB font
    Arphic PL UKai font
You can redistribute and/or modify this file under the terms of the Arphic Public License
as published by Arphic Technology Co., Ltd.
You should have received a copy of this license along with this file.
If not, see http://ftp.gnu.org/non-gnu/chinese-fonts-truetype/LICENSE.
-->
<svg id="z22959" class="acjk" version="1.1" viewBox="0 0 1024 1024" xmlns="http://www.w3.org/2000/svg" xmlns:xlink="http://www.w3.org/1999/xlink">
<style>
<![CDATA[
@keyframes zk {
	to {
		stroke-dashoffset:0;
	}
}
svg.acjk path[clip-path] {
	--t:0.8s;
	animation:zk var(--t) linear forwards var(--d);
	stroke-dasharray:3337;
	stroke-dashoffset:3339;
	stroke-width:128;
	stroke-linecap:round;
	fill:none;
	stroke:#000;
}
svg.acjk path[id] {fill:#ccc;}
]]>
</style>
<path id="z22959d1" d="M316 730Q338 748 365 773Q381 786 391 788Q400 787 405 776Q411 764 404 734Q395 701 347 680C317 667 317 667 302 660Q280 650 247 636Q226 627 227 608Q243 554 259 500C267 473 267 473 271 460Q293 372 314 280Q323 232 341 207Q354 185 346 172Q333 154 285 128Q264 116 248 125Q235 132 245 148Q279 199 227 467C220 497 220 497 217 512Q187 600 183 609Q173 633 195 649Q241 671 277 701C303 720 303 720 316 730Z"/>
<path id="z22959d2" d="M277 701Q229 758 196 784Q193 785 190 789Q181 796 132 828Q119 837 131 840Q209 846 308 740Q311 734 316 730C337 697 337 697 347 680Q348 676 351 674Q372 638 405 513Q409 483 425 458Q435 440 419 430Q374 394 347 400Q332 404 338 420Q344 432 347 444C347 464 347 464 347 474Q346 487 345 504Q342 573 302 660C285 687 285 687 277 701Z"/>
<path id="z22959d3" d="M347 444Q310 451 271 460C242 465 242 465 227 467Q170 474 110 486Q91 489 59 485Q47 485 44 494Q40 507 48 515Q67 533 97 554Q107 558 119 552Q167 525 217 512C245 504 245 504 259 500Q298 487 342 474Q343 473 347 474C357 474 357 442 347 444Z"/>
<path id="z22959d4" d="M499 450Q475 434 451 428Q444 425 440 431Q431 435 441 448Q486 532 488 723Q489 786 524 810Q525 811 528 813Q544 819 546 788Q546 787 546 786C545 763 545 763 544 752Q543 736 538 719Q522 565 520 487C520 473 510 459 499 450Z"/>
<path id="z22959d5" d="M760 764Q770 789 792 835Q801 853 811 852Q827 849 837 823Q871 756 876 666Q883 611 890 545Q896 496 919 466Q935 447 924 433Q902 411 855 390Q836 380 803 391Q751 409 691 425C657 432 657 432 640 435Q580 442 499 450C485 450 506 487 520 487Q527 487 535 486Q580 476 640 466C673 460 673 460 690 457Q733 450 785 441Q812 435 823 448Q850 497 806 717Q803 738 795 740Q794 741 787 740C775 740 756 753 760 764Z"/>
<path id="z22959d6" d="M684 606Q715 600 745 598Q770 594 761 580Q751 564 723 560Q707 557 686 561C654 569 654 569 638 573Q598 585 564 594Q546 598 568 614Q575 620 594 618Q615 614 636 612C668 608 668 608 684 606Z"/>
<path id="z22959d7" d="M691 425Q694 269 718 158Q722 145 698 128Q656 106 628 101Q609 97 600 108Q591 117 601 134Q635 186 636 220Q640 323 640 435C640 456 640 456 640 466Q639 518 638 573C637 599 637 599 636 612Q635 673 631 739C631 756 680 747 680 730Q681 667 684 606C685 576 685 576 686 561Q687 509 690 457C691 436 691 436 691 425Z"/>
<path id="z22959d8" d="M546 786Q552 787 563 786Q627 773 760 764C772 764 797 747 787 740Q778 733 766 724Q747 712 680 730C647 736 647 736 631 739Q583 746 544 752C533 754 535 786 546 786Z"/>
<defs>
	<clipPath id="z22959c1"><use xlink:href="#z22959d1"/></clipPath>
	<clipPath id="z22959c2"><use xlink:href="#z22959d2"/></clipPath>
	<clipPath id="z22959c3"><use xlink:href="#z22959d3"/></clipPath>
	<clipPath id="z22959c4"><use xlink:href="#z22959d4"/></clipPath>
	<clipPath id="z22959c5"><use xlink:href="#z22959d5"/></clipPath>
	<clipPath id="z22959c6"><use xlink:href="#z22959d6"/></clipPath>
	<clipPath id="z22959c7"><use xlink:href="#z22959d7"/></clipPath>
	<clipPath id="z22959c8"><use xlink:href="#z22959d8"/></clipPath>
</defs>
<path style="--d:1s;" pathLength="3333" clip-path="url(#z22959c1)" d="M248 133L302 198L204 622L358 723L396 782"/>
<path style="--d:2s;" pathLength="3333" clip-path="url(#z22959c2)" d="M345 404L387 455L336 646L254 761L134 833"/>
<path style="--d:3s;" pathLength="3333" clip-path="url(#z22959c3)" d="M47 497L106 521L344 456"/>
<path style="--d:4s;" pathLength="3333" clip-path="url(#z22959c4)" d="M443 435L491 496L533 806"/>
<path style="--d:5s;" pathLength="3333" clip-path="url(#z22959c5)" d="M510 456L824 414L872 446L836 728L801 790L800 843"/>
<path style="--d:6s;" pathLength="3333" clip-path="url(#z22959c6)" d="M565 602L757 588"/>
<path style="--d:7s;" pathLength="3333" clip-path="url(#z22959c7)" d="M600 113L673 173L648 735"/>
<path style="--d:8s;" pathLength="3333" clip-path="url(#z22959c8)" d="M551 778L777 743"/>
</svg>