<!--
AnimCJK 2016-2019 Copyright Francois Mizessyn - https://github.com/parsimonhi/animCJK
Derived from:
    MakeMeAHanzi project - https://github.com/skishore/makemeahanzi
    Arphic PL KaitiM GB font
    Arphic PL UKai font
You can redistribute and/or modify this file under the terms of the Arphic Public License
as published by Arphic Technology Co., Ltd.
You should have received a copy of this license along with this file.
If not, see http://ftp.gnu.org/non-gnu/chinese-fonts-truetype/LICENSE.
-->
<svg id="z22962" class="acjk" version="1.1" viewBox="0 0 1024 1024" xmlns="http://www.w3.org/2000/svg" xmlns:xlink="http://www.w3.org/1999/xlink">
<style>
<![CDATA[
@keyframes zk {
	to {
		stroke-dashoffset:0;
	}
}
svg.acjk path[clip-path] {
	--t:0.8s;
	animation:zk var(--t) linear forwards var(--d);
	stroke-dasharray:3337;
	stroke-dashoffset:3339;
	stroke-width:128;
	stroke-linecap:round;
	fill:none;
	stroke:#000;
}
svg.acjk path[id] {fill:#ccc;}
]]>
</style>
<path id="z22962d1" d="M283 425Q302 349 319 272Q326 224 345 199Q358 177 350 164Q337 146 289 120Q268 108 252 117Q239 124 249 140Q282 188 235 436C229 467 229 467 226 483Q222 499 219 518Q209 567 187 605Q178 629 201 645Q247 664 287 691C312 708 312 708 325 716Q419 783 425 785Q434 784 438 772Q444 760 435 730Q426 697 351 668C323 657 323 657 309 652Q284 642 251 630Q232 623 231 604Q253 537 272 467C279 439 279 439 283 425Z"/>
<path id="z22962d2" d="M287 691Q227 770 116 849Q103 858 115 860Q128 861 162 849Q219 824 261 786Q301 753 325 716C342 684 342 684 351 668Q352 664 356 661Q378 616 412 472Q416 438 433 407Q442 391 427 381Q384 345 356 354Q343 358 349 373Q356 388 359 406C359 425 359 425 359 435Q359 543 309 652C294 678 294 678 287 691Z"/>
<path id="z22962d3" d="M359 406Q322 415 283 425C251 432 251 432 235 436Q103 461 81 460Q68 461 66 470Q63 483 72 491Q91 507 122 528Q132 531 144 524Q183 500 226 483C257 472 257 472 272 467Q312 452 354 437Q355 436 359 435C368 431 368 404 359 406Z"/>
<path id="z22962d4" d="M543 342Q533 335 497 327Q484 323 481 328Q474 334 482 350Q519 447 535 601Q536 647 560 680Q576 702 583 687Q587 677 588 662C589 639 589 639 589 628Q588 604 570 505C567 486 567 486 565 476Q553 406 551 376C551 364 553 347 543 342Z"/>
<path id="z22962d5" d="M742 651Q760 676 777 684Q789 691 804 668Q823 631 857 426Q866 393 890 367Q903 354 892 339Q876 321 830 294Q815 287 732 305Q729 305 616 327Q576 336 543 342C532 344 540 378 551 376Q623 357 751 338Q779 334 787 343Q806 365 803 388Q770 604 748 619C740 627 735 642 742 651Z"/>
<path id="z22962d6" d="M570 505Q574 506 582 505Q664 492 725 485Q752 481 741 465Q728 449 699 443Q657 439 565 476C556 480 560 505 570 505Z"/>
<path id="z22962d7" d="M588 662Q595 663 603 662Q646 653 742 651C753 651 756 627 748 619Q744 615 738 612Q722 602 691 609Q636 621 589 628C578 630 577 662 588 662Z"/>
<path id="z22962d8" d="M442 813Q420 814 436 833Q451 849 469 855Q491 861 509 857Q698 812 941 831C942 831 942 831 943 831Q965 832 970 823Q977 810 959 795Q902 753 864 760Q777 775 442 813Z"/>
<defs>
	<clipPath id="z22962c1"><use xlink:href="#z22962d1"/></clipPath>
	<clipPath id="z22962c2"><use xlink:href="#z22962d2"/></clipPath>
	<clipPath id="z22962c3"><use xlink:href="#z22962d3"/></clipPath>
	<clipPath id="z22962c4"><use xlink:href="#z22962d4"/></clipPath>
	<clipPath id="z22962c5"><use xlink:href="#z22962d5"/></clipPath>
	<clipPath id="z22962c6"><use xlink:href="#z22962d6"/></clipPath>
	<clipPath id="z22962c7"><use xlink:href="#z22962d7"/></clipPath>
	<clipPath id="z22962c8"><use xlink:href="#z22962d8"/></clipPath>
</defs>
<path style="--d:1s;" pathLength="3333" clip-path="url(#z22962c1)" d="M251 122L306 190L211 624L378 714L433 773"/>
<path style="--d:2s;" pathLength="3333" clip-path="url(#z22962c2)" d="M356 362L397 398L331 658L242 774L115 854"/>
<path style="--d:3s;" pathLength="3333" clip-path="url(#z22962c3)" d="M72 473L129 492L354 416"/>
<path style="--d:4s;" pathLength="3333" clip-path="url(#z22962c4)" d="M486 336L522 379L573 688"/>
<path style="--d:5s;" pathLength="3333" clip-path="url(#z22962c5)" d="M552 348L796 316L847 359L768 677"/>
<path style="--d:6s;" pathLength="3333" clip-path="url(#z22962c6)" d="M572 481L739 471"/>
<path style="--d:7s;" pathLength="3333" clip-path="url(#z22962c7)" d="M594 654L742 623"/>
<path style="--d:8s;" pathLength="3333" clip-path="url(#z22962c8)" d="M436 820L493 833L855 793L969 816"/>
</svg>