<!--
AnimCJK 2016-2017 Copyright Francois Mizessyn, http://gooo.free.fr/animCJK/
Derived from:
    MakeMeAHanzi project - https://github.com/skishore/makemeahanzi
    Arphic PL KaitiM GB - https://apps.ubuntu.com/cat/applications/precise/fonts-arphic-gkai00mp/
    Arphic PL UKai - https://apps.ubuntu.com/cat/applications/fonts-arphic-ukai/
You can redistribute and/or modify this file under the terms of the Arphic Public License
as published by Arphic Technology Co., Ltd.
You should have received a copy of this license (the directory "APL") along with this file;
if not, see http://ftp.gnu.org/non-gnu/chinese-fonts-truetype/LICENSE.
-->
<svg id="z22971" class="acjk" version="1.1" viewBox="0 0 1024 1024" xmlns="http://www.w3.org/2000/svg" xmlns:xlink="http://www.w3.org/1999/xlink">
<style>
<![CDATA[
	@keyframes z22971k {
		from {
			stroke:#c00;
			stroke-dashoffset:3000;
		}
		75% {
			stroke:#c00;
			stroke-dashoffset:0;
		}
		to {
			stroke:#000;
		}
	}
	#z22971 path[clip-path] {
		animation:z22971k 1s linear both;
		stroke-dasharray:3000;
		stroke-width:128;
		stroke-linecap:round;
		fill:none;
	}
	#z22971 path[clip-path="url(#z22971c1)"] {animation-delay:1s;}
	#z22971 path[clip-path="url(#z22971c2)"] {animation-delay:2s;}
	#z22971 path[clip-path="url(#z22971c3)"] {animation-delay:3s;}
	#z22971 path[clip-path="url(#z22971c4)"] {animation-delay:4s;}
	#z22971 path[clip-path="url(#z22971c5)"] {animation-delay:5s;}
	#z22971 path[clip-path="url(#z22971c6)"] {animation-delay:6s;}
	#z22971 path[clip-path="url(#z22971c7)"] {animation-delay:7s;}
	#z22971 path[clip-path="url(#z22971c8)"] {animation-delay:8s;}
	#z22971 path {fill:#ccc;}
]]>
</style>
<g transform="scale(1,-1) translate(0,-900)">
	<path id="z22971d1" d="M530 712Q683 745 686 746Q695 753 690 761Q684 771 658 780Q633 786 536 756L479 743Q422 734 357 729Q324 725 347 709Q381 687 450 699Q463 702 480 703L530 712Z"/>
	<path id="z22971d2" d="M656 457Q666 494 675 519L695 562Q708 584 722 596Q738 615 724 632Q654 689 591 658Q558 646 526 636L481 626Q414 613 344 605Q328 604 329 594Q332 585 350 579Q375 569 410 580Q444 587 481 594L525 602Q615 626 628 613Q638 603 636 579Q633 566 631 552L624 517Q617 486 608 457L656 457Z"/>
	<path id="z22971d3" d="M675 519Q714 520 856 521Q874 521 878 529Q884 539 869 551Q818 590 766 575Q733 571 695 562L631 552Q526 540 522 536L480 531Q350 518 203 500Q184 499 198 483Q211 470 227 465Q246 461 260 464Q362 492 477 504Q478 505 480 504L520 509Q566 516 624 517L675 519Z"/>
	<path id="z22971d4" d="M457 395Q542 408 675 418Q685 419 687 428Q688 435 658 456Q657 457 656 457L608 457Q559 447 516 438L477 431Q395 419 327 411Q308 410 319 392Q326 383 335 379Q345 376 359 379Q387 386 429 391L457 395Z"/>
	<path id="z22971d5" d="M526 636Q527 675 530 712L536 756Q537 766 539 775Q545 794 548 809Q552 819 533 834Q499 852 477 855Q461 859 454 850Q447 843 455 829Q479 795 478 771Q478 758 479 743L480 703Q481 666 481 626L481 594Q481 564 480 531L480 504Q479 470 477 431L516 438Q517 474 520 509L522 536Q523 570 525 602L526 636Z"/>
	<path id="z22971d6" d="M536 73Q591 39 665 -20Q690 -39 706 -39Q725 -38 726 -19Q726 0 699 43Q687 67 569 113L522 132Q464 154 423 165Q404 169 414 188Q433 227 446 254L465 290Q475 320 492 339Q501 346 498 355Q495 367 457 395L429 391Q429 388 432 382Q441 360 433 338Q424 310 416 286L402 249Q386 212 369 188Q359 172 362 159Q365 149 381 146Q417 137 490 100L536 73Z"/>
	<path id="z22971d7" d="M490 100Q405 34 240 -1Q224 -7 242 -12Q419 -42 536 73L569 113Q609 167 636 230Q646 255 654 268L652 313Q625 335 599 333Q587 332 592 317Q593 313 595 306L594 266Q591 248 580 226Q558 171 523 133Q522 133 522 132L490 100Z"/>
	<path id="z22971d8" d="M654 268Q739 272 842 269Q876 268 906 267Q928 266 934 276Q941 289 923 304Q859 355 805 337Q739 327 652 313L595 306Q487 297 465 290L416 286Q272 273 111 256Q87 255 104 235Q119 219 139 213Q161 206 180 211Q285 238 402 249L446 254Q510 263 594 266L654 268Z"/>
	<defs>
		<clipPath id="z22971c1"><use xlink:href="#z22971d1"/></clipPath>
		<clipPath id="z22971c2"><use xlink:href="#z22971d2"/></clipPath>
		<clipPath id="z22971c3"><use xlink:href="#z22971d3"/></clipPath>
		<clipPath id="z22971c4"><use xlink:href="#z22971d4"/></clipPath>
		<clipPath id="z22971c5"><use xlink:href="#z22971d5"/></clipPath>
		<clipPath id="z22971c6"><use xlink:href="#z22971d6"/></clipPath>
		<clipPath id="z22971c7"><use xlink:href="#z22971d7"/></clipPath>
		<clipPath id="z22971c8"><use xlink:href="#z22971d8"/></clipPath>
	</defs>
	<path pathLength="2999" clip-path="url(#z22971c1)" d="M349 718L687 757"/>
	<path pathLength="2999" clip-path="url(#z22971c2)" d="M337 594L645 640L683 607L620 461"/>
	<path pathLength="2999" clip-path="url(#z22971c3)" d="M201 492L746 547L875 538"/>
	<path pathLength="2999" clip-path="url(#z22971c4)" d="M323 401L682 428"/>
	<path pathLength="2999" clip-path="url(#z22971c5)" d="M456 846L511 806L491 435"/>
	<path pathLength="2999" clip-path="url(#z22971c6)" d="M437 386L466 344L389 163L608 64L716 -31"/>
	<path pathLength="2999" clip-path="url(#z22971c7)" d="M601 324L623 288L610 232L503 78L395 18L244 -7"/>
	<path pathLength="2999" clip-path="url(#z22971c8)" d="M104 249L162 235L821 306L933 283"/>
</g>
</svg>