<!--
AnimCJK 2016-2018 Copyright Francois Mizessyn, http://gooo.free.fr/animCJK/
Derived from:
    MakeMeAHanzi project - https://github.com/skishore/makemeahanzi
    Arphic PL KaitiM GB - https://apps.ubuntu.com/cat/applications/precise/fonts-arphic-gkai00mp/
    Arphic PL UKai - https://apps.ubuntu.com/cat/applications/fonts-arphic-ukai/
You can redistribute and/or modify this file under the terms of the Arphic Public License
as published by Arphic Technology Co., Ltd.
You should have received a copy of this license (the directory "APL") along with this file;
if not, see http://ftp.gnu.org/non-gnu/chinese-fonts-truetype/LICENSE.
-->
<svg id="z23000" class="acjk" version="1.1" viewBox="0 0 1024 1024" xmlns="http://www.w3.org/2000/svg" xmlns:xlink="http://www.w3.org/1999/xlink">
<style>
<![CDATA[
@keyframes z23000k {
	from {
		stroke:#ccc;
		stroke-dashoffset:3334;
	}
	1% {
		stroke:#c00;
		stroke-dashoffset:3334;
	}
	75% {
		stroke:#c00;
		stroke-dashoffset:0;
	}
	to {
		stroke:#000;
	}
}
#z23000 path[clip-path] {
	animation:z23000k 1s linear both;
	stroke-dasharray:3334;
	stroke-width:128;
	stroke-linecap:round;
	fill:none;
}
#z23000 path[clip-path="url(#z23000c1)"] {animation-delay:1s;}
#z23000 path[clip-path="url(#z23000c2)"] {animation-delay:2s;}
#z23000 path[clip-path="url(#z23000c3)"] {animation-delay:3s;}
#z23000 path[clip-path="url(#z23000c4)"] {animation-delay:4s;}
#z23000 path[clip-path="url(#z23000c5)"] {animation-delay:5s;}
#z23000 path[clip-path="url(#z23000c6)"] {animation-delay:6s;}
#z23000 path[clip-path="url(#z23000c7)"] {animation-delay:7s;}
#z23000 path[clip-path="url(#z23000c8)"] {animation-delay:8s;}
#z23000 path[clip-path="url(#z23000c9)"] {animation-delay:9s;}
#z23000 path {fill:#ccc;}
]]>
</style>
<path id="z23000d1" d="M269 412Q293 321 314 228Q323 180 341 155Q353 133 346 120Q333 102 285 76Q264 63 248 73Q235 80 245 96Q278 145 225 420L215 466Q185 553 179 565Q169 587 189 604Q240 634 279 672L315 704Q384 768 388 770Q397 770 403 759Q410 749 406 718Q400 685 345 653L303 629Q276 614 241 596Q222 586 223 564Q241 509 257 453L269 412 Z"/>
<path id="z23000d2" d="M279 672Q231 738 132 808Q119 817 131 820Q144 821 180 808Q229 786 268 752Q296 730 315 704L345 653Q367 614 395 507Q402 450 422 413Q432 395 416 386Q368 350 342 358Q329 362 335 377Q339 387 343 398L346 426Q346 525 303 629L279 672 Z"/>
<path id="z23000d3" d="M343 398Q307 404 269 412L225 420Q170 427 113 438Q94 441 63 437Q51 437 48 446Q44 459 52 467Q71 485 101 506Q111 510 123 504Q163 480 208 467Q211 466 215 466L257 453Q299 440 343 426Q344 425 346 426L343 398 Z"/>
<path id="z23000d4" d="M 501,215 C 524,251 542,276 560,285 568,289 576,286 583,279 588,272 591,263 591,252 590,237 583,224 574,215 559,200 536,186 505,177 500,175 496,176 494,177 490,177 488,181 489,189 489,195 493,203 501,215 Z"/>
<path id="z23000d5" d="M 735,141 C 725,160 702,201 665,265 657,277 663,284 674,278 706,256 728,233 746,217 790,175 816,152 826,147 840,138 843,127 834,117 823,105 808,97 788,90 770,83 756,81 748,84 739,86 738,90 742,100 747,112 742,125 735,141 Z"/>
<path id="z23000d6" d="M 721,351 C 740,347 789,340 818,338 824,337 833,335 837,326 840,318 829,313 815,305 793,293 759,296 706,308 596,332 520,341 480,347 461,349 459,356 474,368 497,386 518,391 535,387 575,377 621,369 673,360 Z"/>
<path id="z23000d7" d="M 751,557 C 789,554 834,549 885,551 921,551 943,550 948,542 951,535 948,526 937,518 899,490 860,485 820,496 799,501 777,506 752,511 L 698,521 C 679,524 640,530 579,540 L 525,548 C 492,552 458,556 424,562 410,564 408,570 419,581 427,589 437,596 450,599 460,601 485,598 523,590 L 575,579 C 603,572 644,565 698,561 Z"/>
<path id="z23000d8" d="M 579,540 C 580,521 580,494 588,461 590,448 587,438 574,432 543,416 523,408 513,411 500,413 500,420 510,435 523,454 527,492 525,548 L 523,590 C 521,626 510,680 502,705 491,737 477,765 457,792 432,824 413,839 407,846 398,854 391,860 390,864 388,868 392,871 400,871 422,871 452,851 490,812 532,768 563,690 575,579 Z"/>
<path id="z23000d9" d="M698 919Q704 944 710 953Q716 960 723 958Q741 946 744 891Q751 822 751 754Q748 708 751 557L752 511Q753 492 754 472Q754 430 764 397Q767 379 753 370Q734 357 721 351L673 360Q673 363 686 385Q698 406 698 521L698 561Q692 870 698 919 Z"/>
<defs>
	<clipPath id="z23000c1"><use xlink:href="#z23000d1"/></clipPath>
	<clipPath id="z23000c2"><use xlink:href="#z23000d2"/></clipPath>
	<clipPath id="z23000c3"><use xlink:href="#z23000d3"/></clipPath>
	<clipPath id="z23000c4"><use xlink:href="#z23000d4"/></clipPath>
	<clipPath id="z23000c5"><use xlink:href="#z23000d5"/></clipPath>
	<clipPath id="z23000c6"><use xlink:href="#z23000d6"/></clipPath>
	<clipPath id="z23000c7"><use xlink:href="#z23000d7"/></clipPath>
	<clipPath id="z23000c8"><use xlink:href="#z23000d8"/></clipPath>
	<clipPath id="z23000c9"><use xlink:href="#z23000d9"/></clipPath>
</defs>
<path pathLength="3333" clip-path="url(#z23000c1)" d="M248 78L298 123L301 155L201 582L360 702L397 762"/>
<path pathLength="3333" clip-path="url(#z23000c2)" d="M341 367L385 411L327 635L242 746L133 812"/>
<path pathLength="3333" clip-path="url(#z23000c3)" d="M50 447L108 473L343 413"/>
<path pathLength="3333" clip-path="url(#z23000c4)" d="M497 185L579 278"/>
<path pathLength="3333" clip-path="url(#z23000c5)" d="M745 88L788 134L669 271"/>
<path pathLength="3333" clip-path="url(#z23000c6)" d="M472 355L828 325"/>
<path pathLength="3333" clip-path="url(#z23000c7)" d="M421 573L840 522L944 535"/>
<path pathLength="3333" clip-path="url(#z23000c8)" d="M508 418L555 457L527 697L474 801L401 862"/>
<path pathLength="3333" clip-path="url(#z23000c9)" d="M682 363L728 398L725 952"/>
</svg>