<!--
AnimCJK 2016-2019 Copyright Francois Mizessyn - https://github.com/parsimonhi/animCJK
Derived from:
    MakeMeAHanzi project - https://github.com/skishore/makemeahanzi
    Arphic PL KaitiM GB font
    Arphic PL UKai font
You can redistribute and/or modify this file under the terms of the Arphic Public License
as published by Arphic Technology Co., Ltd.
You should have received a copy of this license along with this file.
If not, see http://ftp.gnu.org/non-gnu/chinese-fonts-truetype/LICENSE.
-->
<svg id="z23000" class="acjk" version="1.1" viewBox="0 0 1024 1024" xmlns="http://www.w3.org/2000/svg" xmlns:xlink="http://www.w3.org/1999/xlink">
<style>
<![CDATA[
@keyframes zk {
	to {
		stroke-dashoffset:0;
	}
}
svg.acjk path[clip-path] {
	--t:0.8s;
	animation:zk var(--t) linear forwards var(--d);
	stroke-dasharray:3337;
	stroke-dashoffset:3339;
	stroke-width:128;
	stroke-linecap:round;
	fill:none;
	stroke:#000;
}
svg.acjk path[id] {fill:#ccc;}
]]>
</style>
<path id="z23000d1" d="M269 412Q293 321 314 228Q323 180 341 155Q353 133 346 120Q333 102 285 76Q264 63 248 73Q235 80 245 96Q278 145 225 420C218 451 218 451 215 466Q185 553 179 565Q169 587 189 604Q240 634 279 672C303 693 303 693 315 704Q384 768 388 770Q397 770 403 759Q410 749 406 718Q400 685 345 653C317 637 317 637 303 629Q276 614 241 596Q222 586 223 564Q241 509 257 453C265 426 265 426 269 412Z"/>
<path id="z23000d2" d="M279 672Q231 738 132 808Q119 817 131 820Q144 821 180 808Q229 786 268 752Q296 730 315 704C335 670 335 670 345 653Q367 614 395 507Q402 450 422 413Q432 395 416 386Q368 350 342 358Q329 362 335 377Q339 387 343 398C346 407 346 417 346 426Q346 525 303 629C287 658 287 658 279 672Z"/>
<path id="z23000d3" d="M343 398Q307 404 269 412C240 417 240 417 225 420Q170 427 113 438Q94 441 63 437Q51 437 48 446Q44 459 52 467Q71 485 101 506Q111 510 123 504Q163 480 208 467Q211 466 215 466C243 457 243 457 257 453Q299 440 343 426Q344 425 346 426C355 424 352 396 343 398Z"/>
<path id="z23000d4" d="M501 215C524 251 542 276 560 285C568 289 576 286 583 279C588 272 591 263 591 252C590 237 583 224 574 215C559 200 536 186 505 177C500 175 496 176 494 177C490 177 488 181 489 189C489 195 493 203 501 215Z"/>
<path id="z23000d5" d="M735 141C725 160 702 201 665 265C657 277 663 284 674 278C706 256 728 233 746 217C790 175 816 152 826 147C840 138 843 127 834 117C823 105 808 97 788 90C770 83 756 81 748 84C739 86 738 90 742 100C747 112 742 125 735 141Z"/>
<path id="z23000d6" d="M721 351C740 347 789 340 818 338C824 337 833 335 837 326C840 318 829 313 815 305C793 293 759 296 706 308C596 332 520 341 480 347C461 349 459 356 474 368C497 386 518 391 535 387C575 377 621 369 673 360C705 354 705 354 721 351Z"/>
<path id="z23000d7" d="M751 557C789 554 834 549 885 551C921 551 943 550 948 542C951 535 948 526 937 518C899 490 860 485 820 496C799 501 777 506 752 511C716 518 716 518 698 521C679 524 640 530 579 540C543 545 543 545 525 548C492 552 458 556 424 562C410 564 408 570 419 581C427 589 437 596 450 599C460 601 485 598 523 590C558 583 558 583 575 579C603 572 644 565 698 561C733 558 733 558 751 557Z"/>
<path id="z23000d8" d="M579 540C580 521 580 494 588 461C590 448 587 438 574 432C543 416 523 408 513 411C500 413 500 420 510 435C523 454 527 492 525 548C524 576 524 576 523 590C521 626 510 680 502 705C491 737 477 765 457 792C432 824 413 839 407 846C398 854 391 860 390 864C388 868 392 871 400 871C422 871 452 851 490 812C532 768 563 690 575 579C578 553 578 553 579 540Z"/>
<path id="z23000d9" d="M698 919Q704 944 710 953Q716 960 723 958Q741 946 744 891Q751 822 751 754Q748 708 751 557C752 526 752 526 752 511Q753 492 754 472Q754 430 764 397Q767 379 753 370Q734 357 721 351C707 343 667 345 673 360Q673 363 686 385Q698 406 698 521C698 548 698 548 698 561Q692 870 698 919Z"/>
<defs>
	<clipPath id="z23000c1"><use xlink:href="#z23000d1"/></clipPath>
	<clipPath id="z23000c2"><use xlink:href="#z23000d2"/></clipPath>
	<clipPath id="z23000c3"><use xlink:href="#z23000d3"/></clipPath>
	<clipPath id="z23000c4"><use xlink:href="#z23000d4"/></clipPath>
	<clipPath id="z23000c5"><use xlink:href="#z23000d5"/></clipPath>
	<clipPath id="z23000c6"><use xlink:href="#z23000d6"/></clipPath>
	<clipPath id="z23000c7"><use xlink:href="#z23000d7"/></clipPath>
	<clipPath id="z23000c8"><use xlink:href="#z23000d8"/></clipPath>
	<clipPath id="z23000c9"><use xlink:href="#z23000d9"/></clipPath>
</defs>
<path style="--d:1s;" pathLength="3333" clip-path="url(#z23000c1)" d="M248 78L298 123L301 155L201 582L360 702L397 762"/>
<path style="--d:2s;" pathLength="3333" clip-path="url(#z23000c2)" d="M341 367L385 411L327 635L242 746L133 812"/>
<path style="--d:3s;" pathLength="3333" clip-path="url(#z23000c3)" d="M50 447L108 473L343 413"/>
<path style="--d:4s;" pathLength="3333" clip-path="url(#z23000c4)" d="M497 185L579 278"/>
<path style="--d:5s;" pathLength="3333" clip-path="url(#z23000c5)" d="M745 88L788 134L669 271"/>
<path style="--d:6s;" pathLength="3333" clip-path="url(#z23000c6)" d="M472 355L828 325"/>
<path style="--d:7s;" pathLength="3333" clip-path="url(#z23000c7)" d="M421 573L840 522L944 535"/>
<path style="--d:8s;" pathLength="3333" clip-path="url(#z23000c8)" d="M508 418L555 457L527 697L474 801L401 862"/>
<path style="--d:9s;" pathLength="3333" clip-path="url(#z23000c9)" d="M682 363L728 398L725 952"/>
</svg>