<!--
AnimCJK 2016-2017 Copyright Francois Mizessyn, http://gooo.free.fr/animCJK/
Derived from:
    MakeMeAHanzi project - https://github.com/skishore/makemeahanzi
    Arphic PL KaitiM GB - https://apps.ubuntu.com/cat/applications/precise/fonts-arphic-gkai00mp/
    Arphic PL UKai - https://apps.ubuntu.com/cat/applications/fonts-arphic-ukai/
You can redistribute and/or modify this file under the terms of the Arphic Public License
as published by Arphic Technology Co., Ltd.
You should have received a copy of this license (the directory "APL") along with this file;
if not, see http://ftp.gnu.org/non-gnu/chinese-fonts-truetype/LICENSE.
-->
<svg id="z23043" class="acjk" version="1.1" viewBox="0 0 1024 1024" xmlns="http://www.w3.org/2000/svg" xmlns:xlink="http://www.w3.org/1999/xlink">
<style>
<![CDATA[
	@keyframes z23043k {
		from {
			stroke:#c00;
			stroke-dashoffset:3000;
		}
		75% {
			stroke:#c00;
			stroke-dashoffset:0;
		}
		to {
			stroke:#000;
		}
	}
	#z23043 path[clip-path] {
		animation:z23043k 1s linear both;
		stroke-dasharray:3000;
		stroke-width:128;
		stroke-linecap:round;
		fill:none;
	}
	#z23043 path[clip-path="url(#z23043c1)"] {animation-delay:1s;}
	#z23043 path[clip-path="url(#z23043c2)"] {animation-delay:2s;}
	#z23043 path[clip-path="url(#z23043c3)"] {animation-delay:3s;}
	#z23043 path[clip-path="url(#z23043c4)"] {animation-delay:4s;}
	#z23043 path[clip-path="url(#z23043c5)"] {animation-delay:5s;}
	#z23043 path[clip-path="url(#z23043c6)"] {animation-delay:6s;}
	#z23043 path[clip-path="url(#z23043c7)"] {animation-delay:7s;}
	#z23043 path[clip-path="url(#z23043c8)"] {animation-delay:8s;}
	#z23043 path[clip-path="url(#z23043c9)"] {animation-delay:9s;}
	#z23043 path {fill:#ccc;}
]]>
</style>
<g transform="scale(1,-1) translate(0,-900)">
	<path id="z23043d1" d="M282 438Q306 526 326 616Q335 664 353 689Q365 711 358 724Q343 742 297 768Q276 781 260 771Q247 764 257 748Q290 699 237 428L227 382Q218 331 195 295Q183 270 232 241Q265 222 294 198L330 169Q355 150 384 120Q400 107 410 105Q419 105 424 116Q431 128 425 158Q416 192 360 219L319 239Q292 252 258 267Q239 276 239 296Q255 345 270 397L282 438Z"/>
	<path id="z23043d2" d="M294 198Q233 120 149 70Q140 66 133 59Q120 52 131 48Q144 47 179 58Q231 77 271 110Q308 138 330 169L360 219Q361 220 362 220Q387 266 421 389Q427 420 443 448Q453 464 438 474Q393 510 369 504Q356 500 361 486Q365 474 368 460L368 433Q356 316 319 239L294 198Z"/>
	<path id="z23043d3" d="M368 460Q326 450 282 438L237 428Q177 416 116 402Q97 398 65 400Q52 399 50 390Q47 377 56 369Q75 353 106 332Q116 328 128 336Q188 375 227 382L270 397Q309 412 351 426Q358 430 368 433L368 460Z"/>
	<path id="z23043d4" d="M676 540Q805 571 807 573Q816 580 811 589Q804 599 776 607Q742 613 679 588L628 574Q582 565 529 560Q493 554 519 538Q558 517 616 529Q620 530 627 530L676 540Z"/>
	<path id="z23043d5" d="M667 425Q671 483 676 540L679 588Q683 678 702 758Q706 768 686 784Q650 803 626 808Q610 811 602 803Q595 796 602 780Q624 747 625 725Q628 653 628 574L627 530Q626 478 624 418L667 425Z"/>
	<path id="z23043d6" d="M649 384Q721 396 841 396Q889 396 895 405Q899 415 885 427Q836 464 774 446Q729 437 667 425L624 418Q545 406 455 392Q436 391 450 375Q463 363 479 358Q498 354 512 358Q557 371 608 378L649 384Z"/>
	<path id="z23043d7" d="M675 211Q694 217 783 228Q793 227 801 239Q802 249 780 260Q755 279 680 258Q679 258 677 257L625 245Q607 242 504 227Q476 223 498 207Q532 183 556 190Q587 197 626 204L675 211Z"/>
	<path id="z23043d8" d="M670 84Q671 151 675 211L677 257Q677 305 681 332Q688 357 649 384L608 378Q623 339 624 275Q624 263 625 245L626 204Q626 155 627 79L670 84Z"/>
	<path id="z23043d9" d="M627 79Q530 69 417 58Q396 57 411 39Q424 24 443 19Q464 12 480 17Q687 63 917 44Q936 44 942 52Q948 64 932 78Q883 117 824 108Q763 98 670 84L627 79Z"/>
	<defs>
		<clipPath id="z23043c1"><use xlink:href="#z23043d1"/></clipPath>
		<clipPath id="z23043c2"><use xlink:href="#z23043d2"/></clipPath>
		<clipPath id="z23043c3"><use xlink:href="#z23043d3"/></clipPath>
		<clipPath id="z23043c4"><use xlink:href="#z23043d4"/></clipPath>
		<clipPath id="z23043c5"><use xlink:href="#z23043d5"/></clipPath>
		<clipPath id="z23043c6"><use xlink:href="#z23043d6"/></clipPath>
		<clipPath id="z23043c7"><use xlink:href="#z23043d7"/></clipPath>
		<clipPath id="z23043c8"><use xlink:href="#z23043d8"/></clipPath>
		<clipPath id="z23043c9"><use xlink:href="#z23043d9"/></clipPath>
	</defs>
	<path pathLength="2999" clip-path="url(#z23043c1)" d="M260 766L314 704L217 281L384 166L416 111"/>
	<path pathLength="2999" clip-path="url(#z23043c2)" d="M367 499L407 453L343 234L257 125L135 54"/>
	<path pathLength="2999" clip-path="url(#z23043c3)" d="M56 388L117 367L367 447"/>
	<path pathLength="2999" clip-path="url(#z23043c4)" d="M516 551L805 583"/>
	<path pathLength="2999" clip-path="url(#z23043c5)" d="M606 798L662 750L635 422"/>
	<path pathLength="2999" clip-path="url(#z23043c6)" d="M452 386L889 421"/>
	<path pathLength="2999" clip-path="url(#z23043c7)" d="M498 215L796 243"/>
	<path pathLength="2999" clip-path="url(#z23043c8)" d="M618 371L651 334L640 81"/>
	<path pathLength="2999" clip-path="url(#z23043c9)" d="M412 50L464 39L828 79L939 62"/>
</g>
</svg>