<!--
AnimCJK 2016-2018 Copyright Francois Mizessyn, http://gooo.free.fr/animCJK/
Derived from:
    MakeMeAHanzi project - https://github.com/skishore/makemeahanzi
    Arphic PL KaitiM GB - https://apps.ubuntu.com/cat/applications/precise/fonts-arphic-gkai00mp/
    Arphic PL UKai - https://apps.ubuntu.com/cat/applications/fonts-arphic-ukai/
You can redistribute and/or modify this file under the terms of the Arphic Public License
as published by Arphic Technology Co., Ltd.
You should have received a copy of this license (the directory "APL") along with this file;
if not, see http://ftp.gnu.org/non-gnu/chinese-fonts-truetype/LICENSE.
-->
<svg id="z23100" class="acjk" version="1.1" viewBox="0 0 1024 1024" xmlns="http://www.w3.org/2000/svg" xmlns:xlink="http://www.w3.org/1999/xlink">
<style>
<![CDATA[
@keyframes z23100k {
	from {
		stroke:#ccc;
		stroke-dashoffset:3334;
	}
	1% {
		stroke:#c00;
		stroke-dashoffset:3334;
	}
	75% {
		stroke:#c00;
		stroke-dashoffset:0;
	}
	to {
		stroke:#000;
	}
}
#z23100 path[clip-path] {
	animation:z23100k 1s linear both;
	stroke-dasharray:3334;
	stroke-width:128;
	stroke-linecap:round;
	fill:none;
}
#z23100 path[clip-path="url(#z23100c1)"] {animation-delay:1s;}
#z23100 path[clip-path="url(#z23100c2)"] {animation-delay:2s;}
#z23100 path[clip-path="url(#z23100c3)"] {animation-delay:3s;}
#z23100 path[clip-path="url(#z23100c4)"] {animation-delay:4s;}
#z23100 path[clip-path="url(#z23100c5)"] {animation-delay:5s;}
#z23100 path[clip-path="url(#z23100c6)"] {animation-delay:6s;}
#z23100 path[clip-path="url(#z23100c7)"] {animation-delay:7s;}
#z23100 path[clip-path="url(#z23100c8)"] {animation-delay:8s;}
#z23100 path[clip-path="url(#z23100c9)"] {animation-delay:9s;}
#z23100 path[clip-path="url(#z23100c10)"] {animation-delay:10s;}
#z23100 path[clip-path="url(#z23100c11)"] {animation-delay:11s;}
#z23100 path {fill:#ccc;}
]]>
</style>
<path id="z23100d1" d="M280 452Q308 349 330 245Q337 200 356 176Q366 155 360 143Q347 125 301 100Q282 90 266 97Q254 104 264 120Q300 168 240 459L231 501Q219 546 200 582Q190 603 210 619Q256 646 293 678L328 709Q359 736 397 776Q412 791 421 793Q430 793 435 782Q442 772 438 742Q434 717 412 702Q393 689 356 666L316 643Q291 628 260 611Q241 601 242 581Q255 536 269 491L280 452 Z"/>
<path id="z23100d2" d="M293 678Q218 756 125 809Q112 816 124 820Q214 829 325 713Q325 710 328 709L356 666Q393 609 409 551Q442 448 453 433Q463 417 449 407Q406 368 381 374Q368 377 372 392Q381 411 379 434L376 463Q355 581 316 643L293 678 Z"/>
<path id="z23100d3" d="M379 434Q331 441 280 452L240 459Q174 468 104 479Q82 483 48 477Q36 477 33 486Q29 498 37 507Q56 526 85 548Q94 552 106 545Q157 518 231 501L269 491Q314 478 360 467Q367 466 376 463L379 434 Z"/>
<path id="z23100d4" d="M533 183Q509 167 482 162Q476 161 472 165Q465 171 474 181Q511 235 525 368Q531 432 566 448L567 449Q583 453 583 426L581 401Q574 362 565 324L560 301Q560 300 560 297Q553 252 549 216L533 183 Z"/>
<path id="z23100d5" d="M724 412Q740 436 757 443Q767 450 783 429Q799 404 829 262Q839 231 862 205Q875 192 864 178Q848 162 804 135Q788 126 712 145Q700 145 533 183L549 216Q548 215 550 215Q616 196 731 177Q756 173 765 182Q778 198 776 214Q749 367 731 380L724 412 Z"/>
<path id="z23100d6" d="M565 324Q569 324 575 324Q653 311 711 303Q733 299 725 287Q715 274 691 269Q652 266 560 301L565 324 Z"/>
<path id="z23100d7" d="M583 426Q587 426 592 426Q665 417 724 412L731 380Q727 377 719 376Q686 370 581 401L583 426 Z"/>
<path id="z23100d8" d="M501 551Q488 547 468 543Q456 539 453 545Q446 551 455 567Q489 646 505 772Q506 809 528 836Q546 858 551 843Q554 834 555 823L555 787Q552 765 541 707L537 678Q527 617 524 591L501 551 Z"/>
<path id="z23100d9" d="M766 802Q776 827 796 871Q805 889 815 888Q831 887 841 860Q868 812 888 649Q894 600 917 571Q935 552 923 538Q901 516 855 494Q836 484 803 495Q647 550 501 551L524 591Q534 592 543 590Q637 571 786 545Q811 539 823 552Q844 588 809 758Q808 774 801 776Q798 777 792 775L766 802 Z"/>
<path id="z23100d10" d="M541 707Q548 708 557 707Q665 691 745 681Q770 678 761 664Q751 648 724 643Q700 639 537 678L541 707 Z"/>
<path id="z23100d11" d="M555 823Q562 824 574 822Q637 810 766 802L792 775Q785 768 772 759Q754 749 722 757Q631 776 555 787L555 823 Z"/>
<defs>
	<clipPath id="z23100c1"><use xlink:href="#z23100d1"/></clipPath>
	<clipPath id="z23100c2"><use xlink:href="#z23100d2"/></clipPath>
	<clipPath id="z23100c3"><use xlink:href="#z23100d3"/></clipPath>
	<clipPath id="z23100c4"><use xlink:href="#z23100d4"/></clipPath>
	<clipPath id="z23100c5"><use xlink:href="#z23100d5"/></clipPath>
	<clipPath id="z23100c6"><use xlink:href="#z23100d6"/></clipPath>
	<clipPath id="z23100c7"><use xlink:href="#z23100d7"/></clipPath>
	<clipPath id="z23100c8"><use xlink:href="#z23100d8"/></clipPath>
	<clipPath id="z23100c9"><use xlink:href="#z23100d9"/></clipPath>
	<clipPath id="z23100c10"><use xlink:href="#z23100d10"/></clipPath>
	<clipPath id="z23100c11"><use xlink:href="#z23100d11"/></clipPath>
</defs>
<path pathLength="3333" clip-path="url(#z23100c1)" d="M268 101L319 166L220 594L403 736L422 788"/>
<path pathLength="3333" clip-path="url(#z23100c2)" d="M378 380L417 431L345 640L262 740L126 812"/>
<path pathLength="3333" clip-path="url(#z23100c3)" d="M35 488L95 514L376 446"/>
<path pathLength="3333" clip-path="url(#z23100c4)" d="M478 171L525 228L572 444"/>
<path pathLength="3333" clip-path="url(#z23100c5)" d="M540 184L769 155L804 175L821 206L751 438"/>
<path pathLength="3333" clip-path="url(#z23100c6)" d="M567 304L720 287"/>
<path pathLength="3333" clip-path="url(#z23100c7)" d="M588 418L728 390"/>
<path pathLength="3333" clip-path="url(#z23100c8)" d="M457 548L498 602L543 843"/>
<path pathLength="3333" clip-path="url(#z23100c9)" d="M510 554L550 569L821 517L867 544L878 566L809 883"/>
<path pathLength="3333" clip-path="url(#z23100c10)" d="M545 686L758 667"/>
<path pathLength="3333" clip-path="url(#z23100c11)" d="M562 815L784 782"/>
</svg>