<!--
AnimCJK 2016-2019 Copyright Francois Mizessyn - https://github.com/parsimonhi/animCJK
Derived from:
    MakeMeAHanzi project - https://github.com/skishore/makemeahanzi
    Arphic PL KaitiM GB font
    Arphic PL UKai font
You can redistribute and/or modify this file under the terms of the Arphic Public License
as published by Arphic Technology Co., Ltd.
You should have received a copy of this license along with this file.
If not, see http://ftp.gnu.org/non-gnu/chinese-fonts-truetype/LICENSE.
-->
<svg id="z23134" class="acjk" version="1.1" viewBox="0 0 1024 1024" xmlns="http://www.w3.org/2000/svg" xmlns:xlink="http://www.w3.org/1999/xlink">
<style>
<![CDATA[
@keyframes zk {
	to {
		stroke-dashoffset:0;
	}
}
svg.acjk path[clip-path] {
	--t:0.8s;
	animation:zk var(--t) linear forwards var(--d);
	stroke-dasharray:3337;
	stroke-dashoffset:3339;
	stroke-width:128;
	stroke-linecap:round;
	fill:none;
	stroke:#000;
}
svg.acjk path[id] {fill:#ccc;}
]]>
</style>
<path id="z23134d1" d="M308 708Q356 745 360 746Q367 745 373 735Q379 725 372 695Q363 665 338 653C310 641 310 641 296 635Q272 625 237 612Q218 603 218 584Q231 538 244 489C251 461 251 461 255 447Q276 357 294 265Q301 219 317 195Q329 173 321 162Q308 146 261 121Q242 111 226 119Q214 126 224 141Q260 187 213 455C208 486 208 486 205 502Q195 550 175 586Q168 608 188 624Q243 651 272 679C296 698 296 698 308 708Z"/>
<path id="z23134d2" d="M272 679Q218 763 138 815Q122 825 108 837Q95 846 107 848Q120 849 154 836Q208 812 248 775Q287 744 308 708C328 671 328 671 338 653Q365 601 376 538Q391 445 409 411Q419 393 403 385Q387 372 372 366Q350 353 332 359Q319 363 325 377Q338 402 336 431C335 449 335 449 335 458Q334 464 334 472Q333 523 296 635C280 664 280 664 272 679Z"/>
<path id="z23134d3" d="M336 431Q296 437 255 447C227 452 227 452 213 455Q161 462 109 473Q91 476 63 472Q50 473 47 482Q44 495 52 503Q71 521 101 541Q111 545 123 538Q160 516 201 503Q202 502 205 502C231 493 231 493 244 489Q323 461 335 458C344 456 345 429 336 431Z"/>
<path id="z23134d4" d="M666 267C752 242 795 228 797 227C801 222 803 216 800 211C795 203 783 198 763 195C744 191 714 205 669 220C634 231 634 231 617 236C587 245 554 248 523 255C500 260 496 269 514 278C544 292 572 293 617 281C650 272 650 272 666 267Z"/>
<path id="z23134d5" d="M659 356C661 325 663 295 666 267C668 236 668 236 669 220C671 176 675 142 682 118C688 95 687 80 680 73C677 71 675 69 673 67C650 54 631 47 616 45C605 42 597 43 592 49C587 53 587 61 593 71C605 89 612 104 612 117C614 155 616 194 617 236C617 266 617 266 617 281C617 307 616 335 616 364C616 379 659 371 659 356Z"/>
<path id="z23134d6" d="M726 384C773 377 808 377 873 376C913 375 934 370 937 364C940 356 935 347 925 340C891 315 862 309 837 316C788 329 742 340 659 356C630 361 630 361 616 364C552 375 503 385 431 398C418 400 416 406 427 417C435 425 445 431 458 434C471 437 483 435 494 432C573 405 631 396 704 387C719 385 719 385 726 384Z"/>
<path id="z23134d7" d="M525 486C539 520 554 541 568 549C574 553 581 552 588 547C592 541 595 533 597 525C595 503 576 481 542 460C534 455 527 453 522 454C519 454 517 457 517 464C516 470 519 477 525 486Z"/>
<path id="z23134d8" d="M701 537C707 527 721 503 741 467C745 458 752 447 761 435C769 428 770 422 766 416C756 400 742 389 726 384C719 381 707 380 704 387C701 389 701 392 704 398C710 414 701 456 679 524C675 532 672 539 672 546C672 556 695 545 701 537Z"/>
<path id="z23134d9" d="M634 595C672 587 717 575 772 571C778 570 786 568 790 560C792 553 783 548 770 541C754 531 737 527 716 532C710 533 705 535 701 537C682 543 682 543 672 546C658 550 644 552 632 556C615 560 560 570 467 586C450 588 448 595 462 605C481 619 499 624 515 621C537 616 561 609 589 604C619 598 619 598 634 595Z"/>
<path id="z23134d10" d="M665 716C715 708 757 709 830 707C868 705 889 703 893 696C896 688 892 679 881 672C843 645 809 641 777 651C741 661 717 664 667 675C628 683 628 683 608 687C539 700 485 708 407 722C394 724 392 730 403 741C411 749 422 755 434 758C448 760 460 760 470 757C520 740 552 732 609 724C646 719 646 719 665 716Z"/>
<path id="z23134d11" d="M616 950C618 964 622 975 627 981C629 985 633 987 639 986C655 974 663 926 663 844C662 824 663 781 665 716C666 689 666 689 667 675C667 666 669 653 673 637C675 626 671 618 663 612C651 604 641 598 634 595C621 587 586 589 589 604C589 608 592 613 599 620C601 624 604 647 608 687C609 712 609 712 609 724C611 870 614 945 616 950Z"/>
<defs>
	<clipPath id="z23134c1"><use xlink:href="#z23134d1"/></clipPath>
	<clipPath id="z23134c2"><use xlink:href="#z23134d2"/></clipPath>
	<clipPath id="z23134c3"><use xlink:href="#z23134d3"/></clipPath>
	<clipPath id="z23134c4"><use xlink:href="#z23134d4"/></clipPath>
	<clipPath id="z23134c5"><use xlink:href="#z23134d5"/></clipPath>
	<clipPath id="z23134c6"><use xlink:href="#z23134d6"/></clipPath>
	<clipPath id="z23134c7"><use xlink:href="#z23134d7"/></clipPath>
	<clipPath id="z23134c8"><use xlink:href="#z23134d8"/></clipPath>
	<clipPath id="z23134c9"><use xlink:href="#z23134d9"/></clipPath>
	<clipPath id="z23134c10"><use xlink:href="#z23134d10"/></clipPath>
	<clipPath id="z23134c11"><use xlink:href="#z23134d11"/></clipPath>
</defs>
<path style="--d:1s;" pathLength="3333" clip-path="url(#z23134c1)" d="M226 123L281 187L196 596L331 686L368 734"/>
<path style="--d:2s;" pathLength="3333" clip-path="url(#z23134c2)" d="M330 365L374 406L316 646L242 753L111 841"/>
<path style="--d:3s;" pathLength="3333" clip-path="url(#z23134c3)" d="M50 483L105 508L331 441"/>
<path style="--d:4s;" pathLength="3333" clip-path="url(#z23134c4)" d="M512 267L796 212"/>
<path style="--d:5s;" pathLength="3333" clip-path="url(#z23134c5)" d="M595 52L648 97L628 361"/>
<path style="--d:6s;" pathLength="3333" clip-path="url(#z23134c6)" d="M430 410L855 344L933 359"/>
<path style="--d:7s;" pathLength="3333" clip-path="url(#z23134c7)" d="M523 462L588 542"/>
<path style="--d:8s;" pathLength="3333" clip-path="url(#z23134c8)" d="M710 393L735 433L677 538"/>
<path style="--d:9s;" pathLength="3333" clip-path="url(#z23134c9)" d="M460 594L780 558"/>
<path style="--d:10s;" pathLength="3333" clip-path="url(#z23134c10)" d="M402 729L453 737L798 677L889 691"/>
<path style="--d:11s;" pathLength="3333" clip-path="url(#z23134c11)" d="M598 607L638 638L633 978"/>
</svg>