<!--
AnimCJK 2016-2019 Copyright Francois Mizessyn - https://github.com/parsimonhi/animCJK
Derived from:
    MakeMeAHanzi project - https://github.com/skishore/makemeahanzi
    Arphic PL KaitiM GB font
    Arphic PL UKai font
You can redistribute and/or modify this file under the terms of the Arphic Public License
as published by Arphic Technology Co., Ltd.
You should have received a copy of this license along with this file.
If not, see http://ftp.gnu.org/non-gnu/chinese-fonts-truetype/LICENSE.
-->
<svg id="z23143" class="acjk" version="1.1" viewBox="0 0 1024 1024" xmlns="http://www.w3.org/2000/svg" xmlns:xlink="http://www.w3.org/1999/xlink">
<style>
<![CDATA[
@keyframes zk {
	to {
		stroke-dashoffset:0;
	}
}
svg.acjk path[clip-path] {
	--t:0.8s;
	animation:zk var(--t) linear forwards var(--d);
	stroke-dasharray:3337;
	stroke-dashoffset:3339;
	stroke-width:128;
	stroke-linecap:round;
	fill:none;
	stroke:#000;
}
svg.acjk path[id] {fill:#ccc;}
]]>
</style>
<path id="z23143d1" d="M276 411Q298 329 317 245Q326 200 343 176Q355 155 348 143Q335 127 290 100Q271 88 254 97Q242 104 252 119Q282 161 234 418C227 448 227 448 224 463Q221 472 220 482Q210 530 188 566Q178 587 198 603Q246 631 284 665C308 686 308 686 320 696Q348 721 385 760Q400 775 409 777Q418 777 423 766Q430 756 426 726Q420 695 346 651C319 635 319 635 305 627Q280 612 248 595Q229 585 230 565Q248 508 265 451C272 424 272 424 276 411Z"/>
<path id="z23143d2" d="M284 665Q238 732 124 813Q111 822 123 824Q136 825 170 813Q222 791 262 756Q298 728 320 696C337 666 337 666 346 651Q347 647 351 642Q372 602 405 467Q409 436 425 407Q434 391 419 381Q376 345 348 354Q335 358 341 372Q347 384 349 397C350 416 350 416 350 425Q350 527 305 627C291 652 291 652 284 665Z"/>
<path id="z23143d3" d="M349 397Q313 403 276 411C248 416 248 416 234 418Q182 425 130 435Q111 439 83 435Q71 435 68 444Q65 456 72 464Q91 480 119 501Q128 505 140 499Q179 477 220 464Q221 463 224 463C251 455 251 455 265 451Q302 438 346 425Q347 424 350 425C359 423 358 395 349 397Z"/>
<path id="z23143d4" d="M670 251Q796 223 798 222Q807 215 803 207Q796 197 770 189Q740 180 672 207C637 216 637 216 620 220Q566 230 505 234Q471 238 495 255Q528 276 596 264Q608 261 621 260C654 254 654 254 670 251Z"/>
<path id="z23143d5" d="M664 355Q770 331 775 328Q782 321 779 314Q772 304 747 298Q728 294 666 312C636 320 636 320 621 324Q618 324 616 325Q570 335 516 340Q485 344 507 360Q540 378 604 366Q611 365 621 364C650 358 650 358 664 355Z"/>
<path id="z23143d6" d="M660 419Q661 385 664 355C665 326 665 326 666 312Q667 281 670 251C671 222 671 222 672 207Q675 155 689 106Q692 96 673 82Q639 64 617 61Q601 58 594 66Q587 73 595 87Q616 115 616 136Q617 176 620 220C621 247 621 247 621 260Q621 291 621 324C621 351 621 351 621 364Q621 392 621 425C621 438 660 432 660 419Z"/>
<path id="z23143d7" d="M621 425Q533 438 435 452Q416 453 430 469Q443 482 459 486Q478 490 492 486Q654 440 915 439C916 439 916 439 917 439Q935 439 939 431Q943 421 929 409Q884 375 848 383Q781 399 663 418Q662 418 660 419C634 423 634 423 621 425Z"/>
<path id="z23143d8" d="M562 717Q563 683 567 655C569 636 569 636 570 626Q573 581 576 565Q576 561 576 559C576 549 571 538 564 531Q545 512 515 514Q502 518 507 529Q546 616 503 791Q481 848 482 854Q482 884 500 906Q506 919 516 914Q547 893 560 744C561 726 561 726 562 717Z"/>
<path id="z23143d9" d="M576 559Q600 556 700 530Q719 526 724 535Q728 547 737 704Q740 836 729 852Q725 858 706 853Q681 847 654 841Q635 835 637 844Q691 890 721 925Q734 944 748 948Q757 952 765 942Q804 897 802 844Q774 586 796 546Q808 527 796 517Q775 501 741 486Q722 479 677 503Q632 521 564 531C554 533 566 561 576 559Z"/>
<path id="z23143d10" d="M567 655Q634 643 684 635Q706 631 697 619Q687 606 663 602Q618 599 570 626C562 631 557 657 567 655Z"/>
<path id="z23143d11" d="M560 744Q561 744 564 744Q634 734 687 727Q709 723 701 711Q691 698 667 693Q636 689 562 717C554 720 551 744 560 744Z"/>
<defs>
	<clipPath id="z23143c1"><use xlink:href="#z23143d1"/></clipPath>
	<clipPath id="z23143c2"><use xlink:href="#z23143d2"/></clipPath>
	<clipPath id="z23143c3"><use xlink:href="#z23143d3"/></clipPath>
	<clipPath id="z23143c4"><use xlink:href="#z23143d4"/></clipPath>
	<clipPath id="z23143c5"><use xlink:href="#z23143d5"/></clipPath>
	<clipPath id="z23143c6"><use xlink:href="#z23143d6"/></clipPath>
	<clipPath id="z23143c7"><use xlink:href="#z23143d7"/></clipPath>
	<clipPath id="z23143c8"><use xlink:href="#z23143d8"/></clipPath>
	<clipPath id="z23143c9"><use xlink:href="#z23143d9"/></clipPath>
	<clipPath id="z23143c10"><use xlink:href="#z23143d10"/></clipPath>
	<clipPath id="z23143c11"><use xlink:href="#z23143d11"/></clipPath>
</defs>
<path style="--d:1s;" pathLength="3333" clip-path="url(#z23143c1)" d="M254 101L307 167L208 580L382 713L409 772"/>
<path style="--d:2s;" pathLength="3333" clip-path="url(#z23143c2)" d="M347 361L388 408L332 626L251 737L125 819"/>
<path style="--d:3s;" pathLength="3333" clip-path="url(#z23143c3)" d="M71 447L128 469L349 411"/>
<path style="--d:4s;" pathLength="3333" clip-path="url(#z23143c4)" d="M494 244L800 210"/>
<path style="--d:5s;" pathLength="3333" clip-path="url(#z23143c5)" d="M508 349L774 313"/>
<path style="--d:6s;" pathLength="3333" clip-path="url(#z23143c6)" d="M599 72L651 111L635 422"/>
<path style="--d:7s;" pathLength="3333" clip-path="url(#z23143c7)" d="M432 458L479 467L851 411L935 422"/>
<path style="--d:8s;" pathLength="3333" clip-path="url(#z23143c8)" d="M513 520L542 549L548 614L511 910"/>
<path style="--d:9s;" pathLength="3333" clip-path="url(#z23143c9)" d="M572 533L723 506L764 538L762 870L732 901L647 846"/>
<path style="--d:10s;" pathLength="3333" clip-path="url(#z23143c10)" d="M574 646L693 619"/>
<path style="--d:11s;" pathLength="3333" clip-path="url(#z23143c11)" d="M565 736L695 713"/>
</svg>