<!--
AnimCJK 2016-2017 Copyright Francois Mizessyn, http://gooo.free.fr/animCJK/
Derived from:
    MakeMeAHanzi project - https://github.com/skishore/makemeahanzi
    Arphic PL KaitiM GB - https://apps.ubuntu.com/cat/applications/precise/fonts-arphic-gkai00mp/
    Arphic PL UKai - https://apps.ubuntu.com/cat/applications/fonts-arphic-ukai/
You can redistribute and/or modify this file under the terms of the Arphic Public License
as published by Arphic Technology Co., Ltd.
You should have received a copy of this license (the directory "APL") along with this file;
if not, see http://ftp.gnu.org/non-gnu/chinese-fonts-truetype/LICENSE.
-->
<svg id="z23156" class="acjk" version="1.1" viewBox="0 0 1024 1024" xmlns="http://www.w3.org/2000/svg" xmlns:xlink="http://www.w3.org/1999/xlink">
<style>
<![CDATA[
	@keyframes z23156k {
		from {
			stroke:#c00;
			stroke-dashoffset:3000;
		}
		75% {
			stroke:#c00;
			stroke-dashoffset:0;
		}
		to {
			stroke:#000;
		}
	}
	#z23156 path[clip-path] {
		animation:z23156k 1s linear both;
		stroke-dasharray:3000;
		stroke-width:128;
		stroke-linecap:round;
		fill:none;
	}
	#z23156 path[clip-path="url(#z23156c1)"] {animation-delay:1s;}
	#z23156 path[clip-path="url(#z23156c2)"] {animation-delay:2s;}
	#z23156 path[clip-path="url(#z23156c3)"] {animation-delay:3s;}
	#z23156 path[clip-path="url(#z23156c4)"] {animation-delay:4s;}
	#z23156 path[clip-path="url(#z23156c5)"] {animation-delay:5s;}
	#z23156 path[clip-path="url(#z23156c6)"] {animation-delay:6s;}
	#z23156 path[clip-path="url(#z23156c7)"] {animation-delay:7s;}
	#z23156 path[clip-path="url(#z23156c8)"] {animation-delay:8s;}
	#z23156 path[clip-path="url(#z23156c9)"] {animation-delay:9s;}
	#z23156 path[clip-path="url(#z23156c10)"] {animation-delay:10s;}
	#z23156 path[clip-path="url(#z23156c11)"] {animation-delay:11s;}
	#z23156 path {fill:#ccc;}
]]>
</style>
<g transform="scale(1,-1) translate(0,-900)">
	<path id="z23156d1" d="M272 752Q256 764 238 769Q231 770 226 764Q225 760 230 751Q260 646 233 548Q221 511 248 478Q257 468 264 479Q282 500 283 629Q283 708 286 728L272 752Z"/>
	<path id="z23156d2" d="M421 534Q415 518 425 500Q435 478 442 479Q452 480 465 504Q477 523 476 539Q458 686 486 735Q501 759 438 787Q432 790 428 791Q419 794 345 767Q312 758 272 752L286 728Q349 738 414 750L416 749Q423 733 426 690Q427 560 421 534Z"/>
	<path id="z23156d3" d="M333 635Q334 478 273 423Q252 404 205 378Q196 375 194 372Q190 368 201 366Q223 363 291 396Q363 438 373 587Q377 636 385 658Q389 665 382 672Q369 684 343 694Q327 701 315 697Q300 691 312 679Q333 657 333 635Z"/>
	<path id="z23156d4" d="M399 442Q447 403 455 403Q462 403 466 412Q469 422 462 443Q455 462 395 474Q385 475 380 474Q376 471 378 463Q381 456 399 442Z"/>
	<path id="z23156d5" d="M568 772Q552 784 534 789Q527 790 522 784Q521 780 526 771Q556 666 529 568Q517 531 544 498Q553 488 560 499Q578 520 579 649Q580 728 583 749L568 772Z"/>
	<path id="z23156d6" d="M730 553Q724 535 735 517Q747 493 754 495Q766 496 779 522Q791 543 789 560Q770 716 797 758Q809 777 770 799Q755 808 737 815Q724 819 705 812Q654 787 568 772L583 749Q595 749 654 765Q709 780 722 772Q729 756 733 712Q737 579 730 553Z"/>
	<path id="z23156d7" d="M630 659Q639 500 578 437Q559 416 517 388Q507 384 505 380Q502 376 513 375Q567 375 623 436Q627 442 631 447Q667 498 671 610Q675 665 682 682Q686 691 679 696Q666 708 639 718Q623 725 611 720Q596 714 609 702Q630 681 630 659Z"/>
	<path id="z23156d8" d="M691 444Q719 419 750 389Q760 379 773 378Q780 378 785 389Q789 399 783 423Q777 451 689 481Q677 485 672 483Q668 479 669 470Q670 461 691 444Z"/>
	<path id="z23156d9" d="M471 296Q477 308 484 316Q494 323 491 333Q487 346 450 376Q440 385 428 381Q415 380 422 363Q429 344 413 291L395 246Q379 212 364 189Q354 171 357 159Q358 149 376 145Q422 132 471 105L519 78Q580 41 670 -33Q695 -54 713 -53Q734 -53 734 -33Q735 -14 706 33Q691 60 548 118L499 138Q454 156 421 165Q400 169 412 189Q433 229 447 253L471 296Z"/>
	<path id="z23156d10" d="M618 311Q582 342 548 335Q535 332 540 316Q543 312 545 304L547 262Q544 205 499 138L471 105Q408 39 245 -3Q226 -10 248 -15Q425 -34 519 78L548 118Q581 166 598 220Q608 251 617 268L618 311Z"/>
	<path id="z23156d11" d="M617 268Q770 280 906 265Q930 262 936 271Q943 284 931 296Q903 324 859 344Q844 350 819 342Q746 327 672 317Q644 316 618 311L545 304Q494 303 471 296L413 291Q335 285 290 279Q218 269 110 268Q97 268 95 257Q94 245 113 230Q129 217 160 205Q170 201 189 209Q243 227 395 246L447 253Q471 257 547 262L617 268Z"/>
	<defs>
		<clipPath id="z23156c1"><use xlink:href="#z23156d1"/></clipPath>
		<clipPath id="z23156c2"><use xlink:href="#z23156d2"/></clipPath>
		<clipPath id="z23156c3"><use xlink:href="#z23156d3"/></clipPath>
		<clipPath id="z23156c4"><use xlink:href="#z23156d4"/></clipPath>
		<clipPath id="z23156c5"><use xlink:href="#z23156d5"/></clipPath>
		<clipPath id="z23156c6"><use xlink:href="#z23156d6"/></clipPath>
		<clipPath id="z23156c7"><use xlink:href="#z23156d7"/></clipPath>
		<clipPath id="z23156c8"><use xlink:href="#z23156d8"/></clipPath>
		<clipPath id="z23156c9"><use xlink:href="#z23156d9"/></clipPath>
		<clipPath id="z23156c10"><use xlink:href="#z23156d10"/></clipPath>
		<clipPath id="z23156c11"><use xlink:href="#z23156d11"/></clipPath>
	</defs>
	<path pathLength="2999" clip-path="url(#z23156c1)" d="M235 764L262 722L253 482"/>
	<path pathLength="2999" clip-path="url(#z23156c2)" d="M280 750L420 769L449 750L441 486"/>
	<path pathLength="2999" clip-path="url(#z23156c3)" d="M314 690L358 657L337 495L290 416L202 373"/>
	<path pathLength="2999" clip-path="url(#z23156c4)" d="M384 466L463 416"/>
	<path pathLength="2999" clip-path="url(#z23156c5)" d="M531 782L559 740L551 503"/>
	<path pathLength="2999" clip-path="url(#z23156c6)" d="M578 770L715 796L756 776L754 501"/>
	<path pathLength="2999" clip-path="url(#z23156c7)" d="M610 715L655 682L635 501L599 435L515 381"/>
	<path pathLength="2999" clip-path="url(#z23156c8)" d="M675 478L774 385"/>
	<path pathLength="2999" clip-path="url(#z23156c9)" d="M429 373L456 324L384 164L589 69L728 -42"/>
	<path pathLength="2999" clip-path="url(#z23156c10)" d="M546 328L582 297L578 255L499 96L403 26L245 -8"/>
	<path pathLength="2999" clip-path="url(#z23156c11)" d="M99 256L169 237L833 309L933 277"/>
</g>
</svg>