<!--
AnimCJK 2016-2017 Copyright Francois Mizessyn, http://gooo.free.fr/animCJK/
Derived from:
    MakeMeAHanzi project - https://github.com/skishore/makemeahanzi
    Arphic PL KaitiM GB - https://apps.ubuntu.com/cat/applications/precise/fonts-arphic-gkai00mp/
    Arphic PL UKai - https://apps.ubuntu.com/cat/applications/fonts-arphic-ukai/
You can redistribute and/or modify this file under the terms of the Arphic Public License
as published by Arphic Technology Co., Ltd.
You should have received a copy of this license (the directory "APL") along with this file;
if not, see http://ftp.gnu.org/non-gnu/chinese-fonts-truetype/LICENSE.
-->
<svg id="z23219" class="acjk" version="1.1" viewBox="0 0 1024 1024" xmlns="http://www.w3.org/2000/svg" xmlns:xlink="http://www.w3.org/1999/xlink">
<style>
<![CDATA[
	@keyframes z23219k {
		from {
			stroke:#c00;
			stroke-dashoffset:3000;
		}
		75% {
			stroke:#c00;
			stroke-dashoffset:0;
		}
		to {
			stroke:#000;
		}
	}
	#z23219 path[clip-path] {
		animation:z23219k 1s linear both;
		stroke-dasharray:3000;
		stroke-width:128;
		stroke-linecap:round;
		fill:none;
	}
	#z23219 path[clip-path="url(#z23219c1)"] {animation-delay:1s;}
	#z23219 path[clip-path="url(#z23219c2)"] {animation-delay:2s;}
	#z23219 path[clip-path="url(#z23219c3)"] {animation-delay:3s;}
	#z23219 path[clip-path="url(#z23219c4)"] {animation-delay:4s;}
	#z23219 path[clip-path="url(#z23219c5)"] {animation-delay:5s;}
	#z23219 path[clip-path="url(#z23219c6)"] {animation-delay:6s;}
	#z23219 path[clip-path="url(#z23219c7)"] {animation-delay:7s;}
	#z23219 path[clip-path="url(#z23219c8)"] {animation-delay:8s;}
	#z23219 path[clip-path="url(#z23219c9)"] {animation-delay:9s;}
	#z23219 path[clip-path="url(#z23219c10)"] {animation-delay:10s;}
	#z23219 path[clip-path="url(#z23219c11)"] {animation-delay:11s;}
	#z23219 path[clip-path="url(#z23219c12)"] {animation-delay:12s;}
	#z23219 path[clip-path="url(#z23219c13)"] {animation-delay:13s;}
	#z23219 path {fill:#ccc;}
]]>
</style>
<g transform="scale(1,-1) translate(0,-900)">
	<path id="z23219d1" d="M307 225Q380 165 384 164Q391 164 397 174Q403 184 397 213Q390 243 335 269L297 287Q275 299 243 312Q224 321 225 338Q244 396 261 455L273 495Q294 573 312 653Q321 696 337 719Q349 738 342 750Q329 766 286 791Q268 803 253 795Q241 788 250 773Q280 731 232 489L222 445Q203 367 185 338Q176 317 196 302Q239 280 274 251L307 225Z"/>
	<path id="z23219d2" d="M274 251Q204 173 121 126Q108 119 119 115Q191 108 298 214Q302 220 307 225L335 269Q365 315 382 381Q403 468 421 495Q430 511 416 520Q377 554 353 548Q340 545 345 531Q349 521 352 508L352 479Q351 463 348 444Q341 375 297 287L274 251Z"/>
	<path id="z23219d3" d="M352 508Q313 504 273 495L232 489Q171 482 109 473Q88 469 57 475Q44 475 41 466Q37 454 45 445Q64 426 92 404Q102 400 114 406Q180 439 222 445L261 455Q301 468 348 479Q349 480 352 479L352 508Z"/>
	<path id="z23219d4" d="M569 650Q603 690 624 717Q673 789 691 801Q707 816 693 829Q677 841 649 847Q624 853 613 847Q603 843 610 831Q620 804 557 669Q551 659 547 646L569 650Z"/>
	<path id="z23219d5" d="M520 643Q499 659 478 665Q472 668 467 663Q460 659 468 648Q507 570 502 396Q502 330 536 310Q551 306 554 333Q554 334 554 337L554 365Q553 381 549 397Q548 413 546 432L544 456Q543 472 542 488Q541 504 540 520L540 543Q540 579 540 616L520 643Z"/>
	<path id="z23219d6" d="M706 354Q716 335 725 316Q741 289 749 292Q758 293 770 314Q777 330 789 454Q801 610 817 629Q830 648 821 660Q814 672 761 691Q736 701 716 692Q637 664 569 650L547 646Q532 645 520 643L540 616Q543 617 549 618Q601 630 662 647Q717 662 736 644Q743 637 742 605Q739 478 730 408Q731 381 709 387Q705 388 701 387L706 354Z"/>
	<path id="z23219d7" d="M540 520Q544 520 551 521Q621 534 673 542Q692 546 685 557Q675 570 653 573Q614 576 540 543L540 520Z"/>
	<path id="z23219d8" d="M546 432Q550 431 556 432Q626 442 679 449Q701 453 693 465Q683 478 659 483Q632 486 544 456L546 432Z"/>
	<path id="z23219d9" d="M554 337Q639 349 706 354L701 387Q700 388 698 388Q677 392 554 365L554 337Z"/>
	<path id="z23219d10" d="M434 202Q418 153 392 109Q376 81 393 51Q400 35 419 48Q462 85 460 153Q463 183 455 204Q451 211 445 211Q438 210 434 202Z"/>
	<path id="z23219d11" d="M503 198Q512 108 577 57Q655 -1 833 -3Q861 0 886 8Q908 15 911 29Q915 39 877 65Q819 116 777 168Q765 184 761 176Q758 173 791 83Q792 55 754 53Q751 53 750 53Q620 62 571 116Q549 140 540 179Q536 201 525 207Q513 214 507 211Q501 210 503 198Z"/>
	<path id="z23219d12" d="M605 240Q627 216 652 188Q662 176 675 175Q684 174 689 185Q695 197 690 221Q687 240 661 256Q601 287 588 283Q584 280 584 269Q585 260 605 240Z"/>
	<path id="z23219d13" d="M836 230Q870 202 908 167Q920 155 935 156Q945 156 949 169Q953 182 945 209Q936 245 832 274Q817 277 812 275Q808 271 809 259Q812 249 836 230Z"/>
	<defs>
		<clipPath id="z23219c1"><use xlink:href="#z23219d1"/></clipPath>
		<clipPath id="z23219c2"><use xlink:href="#z23219d2"/></clipPath>
		<clipPath id="z23219c3"><use xlink:href="#z23219d3"/></clipPath>
		<clipPath id="z23219c4"><use xlink:href="#z23219d4"/></clipPath>
		<clipPath id="z23219c5"><use xlink:href="#z23219d5"/></clipPath>
		<clipPath id="z23219c6"><use xlink:href="#z23219d6"/></clipPath>
		<clipPath id="z23219c7"><use xlink:href="#z23219d7"/></clipPath>
		<clipPath id="z23219c8"><use xlink:href="#z23219d8"/></clipPath>
		<clipPath id="z23219c9"><use xlink:href="#z23219d9"/></clipPath>
		<clipPath id="z23219c10"><use xlink:href="#z23219d10"/></clipPath>
		<clipPath id="z23219c11"><use xlink:href="#z23219d11"/></clipPath>
		<clipPath id="z23219c12"><use xlink:href="#z23219d12"/></clipPath>
		<clipPath id="z23219c13"><use xlink:href="#z23219d13"/></clipPath>
	</defs>
	<path pathLength="2999" clip-path="url(#z23219c1)" d="M254 790L303 725L205 323L358 221L392 174"/>
	<path pathLength="2999" clip-path="url(#z23219c2)" d="M351 540L388 501L320 286L236 185L123 121"/>
	<path pathLength="2999" clip-path="url(#z23219c3)" d="M44 462L106 438L350 495"/>
	<path pathLength="2999" clip-path="url(#z23219c4)" d="M613 844L653 807L557 651"/>
	<path pathLength="2999" clip-path="url(#z23219c5)" d="M472 656L512 608L540 315"/>
	<path pathLength="2999" clip-path="url(#z23219c6)" d="M529 640L730 674L782 642L743 298"/>
	<path pathLength="2999" clip-path="url(#z23219c7)" d="M549 529L681 557"/>
	<path pathLength="2999" clip-path="url(#z23219c8)" d="M549 440L688 465"/>
	<path pathLength="2999" clip-path="url(#z23219c9)" d="M559 345L703 366"/>
	<path pathLength="2999" clip-path="url(#z23219c10)" d="M447 208L403 46"/>
	<path pathLength="2999" clip-path="url(#z23219c11)" d="M511 209L574 86L709 32L794 29L861 50L766 169"/>
	<path pathLength="2999" clip-path="url(#z23219c12)" d="M592 273L660 221L678 180"/>
	<path pathLength="2999" clip-path="url(#z23219c13)" d="M816 265L915 203L936 160"/>
</g>
</svg>