<!--
AnimCJK 2016-2019 Copyright Francois Mizessyn - https://github.com/parsimonhi/animCJK
Derived from:
    MakeMeAHanzi project - https://github.com/skishore/makemeahanzi
    Arphic PL KaitiM GB font
    Arphic PL UKai font
You can redistribute and/or modify this file under the terms of the Arphic Public License
as published by Arphic Technology Co., Ltd.
You should have received a copy of this license along with this file.
If not, see http://ftp.gnu.org/non-gnu/chinese-fonts-truetype/LICENSE.
-->
<svg id="z23260" class="acjk" version="1.1" viewBox="0 0 1024 1024" xmlns="http://www.w3.org/2000/svg" xmlns:xlink="http://www.w3.org/1999/xlink">
<style>
<![CDATA[
@keyframes zk {
	to {
		stroke-dashoffset:0;
	}
}
svg.acjk path[clip-path] {
	--t:0.8s;
	animation:zk var(--t) linear forwards var(--d);
	stroke-dasharray:3337;
	stroke-dashoffset:3339;
	stroke-width:128;
	stroke-linecap:round;
	fill:none;
	stroke:#000;
}
svg.acjk path[id] {fill:#ccc;}
]]>
</style>
<path id="z23260d1" d="M290 709Q315 734 346 771Q361 787 371 789Q378 790 386 779Q393 769 391 738Q385 701 317 660C291 644 291 644 278 636Q256 623 229 606Q208 593 211 572Q227 523 243 473C251 445 251 445 255 431Q277 350 297 268Q306 220 325 195Q337 173 330 161Q315 142 269 116Q248 103 232 112Q219 119 229 136Q262 185 209 439C202 471 202 471 199 487Q198 488 198 492Q188 538 167 573Q157 595 176 611Q221 641 256 676C279 698 279 698 290 709Z"/>
<path id="z23260d2" d="M256 676Q247 688 238 702Q207 750 147 788Q129 800 113 809Q97 818 93 823Q90 829 101 831Q140 837 211 787Q259 753 290 709C308 676 308 676 317 660Q354 590 393 440Q400 422 404 413Q413 395 396 382Q359 351 344 350Q325 350 335 373Q341 392 340 415C337 434 337 434 336 444Q330 489 304 572Q294 603 278 636C263 663 263 663 256 676Z"/>
<path id="z23260d3" d="M340 415Q298 422 255 431C224 436 224 436 209 439Q94 457 67 453Q54 453 52 462Q48 475 56 483Q75 501 105 522Q115 526 127 519Q160 500 199 487C228 478 228 478 243 473Q286 460 330 446Q331 445 336 444C346 442 350 413 340 415Z"/>
<path id="z23260d4" d="M595 97Q620 115 646 137Q659 147 673 145Q682 144 685 132Q688 119 678 94Q666 69 587 56Q574 55 568 57Q564 61 566 72Q570 82 595 97Z"/>
<path id="z23260d5" d="M752 203Q755 202 759 201Q799 194 806 188Q813 182 810 174Q804 164 780 156Q755 150 728 159Q682 172 632 183Q577 193 513 197Q482 201 503 216Q540 235 603 226Q657 217 715 208C740 205 740 205 752 203Z"/>
<path id="z23260d6" d="M532 298Q563 340 576 340Q583 341 589 331Q595 321 590 297Q589 285 570 275Q525 254 516 258Q512 259 512 270Q513 279 532 298Z"/>
<path id="z23260d7" d="M702 340Q701 339 703 338Q722 313 743 282Q753 267 768 250Q781 240 775 231Q769 218 752 203C743 194 715 196 715 208Q718 238 671 335Q668 339 666 346C661 357 697 351 702 340Z"/>
<path id="z23260d8" d="M666 346Q555 361 427 380Q408 381 422 397Q435 410 451 414Q470 418 484 414Q652 368 923 367C924 367 924 367 925 367Q943 367 947 359Q951 349 937 337Q886 295 831 316Q779 325 702 340C678 344 678 344 666 346Z"/>
<path id="z23260d9" d="M526 454Q516 448 486 444Q476 441 472 446Q468 452 475 466Q502 520 518 609Q522 636 537 654Q553 673 558 659Q561 649 561 636C559 619 559 619 558 610Q557 606 557 601Q553 576 548 556C545 543 545 543 544 536Q538 502 537 484C537 473 536 459 526 454Z"/>
<path id="z23260d10" d="M718 617Q731 639 745 646Q754 653 768 635Q778 619 806 525Q815 497 836 476Q848 466 838 453Q825 438 788 414Q773 407 707 421Q698 421 601 440Q559 449 526 454C515 456 526 484 537 484Q541 484 546 483Q735 435 754 455Q763 465 761 477Q743 567 735 581Q731 590 722 593C714 596 713 611 718 617Z"/>
<path id="z23260d11" d="M548 556Q552 557 560 556Q636 543 693 536Q712 533 705 522Q696 510 675 506Q650 505 544 536C538 539 541 556 548 556Z"/>
<path id="z23260d12" d="M656 623Q681 619 718 617C726 617 728 598 722 593Q718 589 712 586Q699 579 675 585Q611 601 558 610C549 612 552 636 561 636Q568 636 577 635C630 627 630 627 656 623Z"/>
<path id="z23260d13" d="M675 739Q729 735 915 734Q934 735 939 726Q943 716 928 702Q870 657 825 675Q765 685 676 700C640 705 640 705 622 708Q528 718 420 731Q401 732 415 749Q428 762 446 768Q465 774 481 769Q548 751 623 745C658 741 658 741 675 739Z"/>
<path id="z23260d14" d="M629 936Q633 958 639 966Q643 972 650 969Q657 966 661 954Q667 935 675 739C676 713 676 713 676 700Q676 699 677 696Q678 675 683 657Q686 642 674 634Q664 627 656 623C633 609 551 639 577 635Q604 628 614 641Q621 653 622 708C623 733 623 733 623 745Q624 790 625 846Q626 913 629 936Z"/>
<defs>
	<clipPath id="z23260c1"><use xlink:href="#z23260d1"/></clipPath>
	<clipPath id="z23260c2"><use xlink:href="#z23260d2"/></clipPath>
	<clipPath id="z23260c3"><use xlink:href="#z23260d3"/></clipPath>
	<clipPath id="z23260c4"><use xlink:href="#z23260d4"/></clipPath>
	<clipPath id="z23260c5"><use xlink:href="#z23260d5"/></clipPath>
	<clipPath id="z23260c6"><use xlink:href="#z23260d6"/></clipPath>
	<clipPath id="z23260c7"><use xlink:href="#z23260d7"/></clipPath>
	<clipPath id="z23260c8"><use xlink:href="#z23260d8"/></clipPath>
	<clipPath id="z23260c9"><use xlink:href="#z23260d9"/></clipPath>
	<clipPath id="z23260c10"><use xlink:href="#z23260d10"/></clipPath>
	<clipPath id="z23260c11"><use xlink:href="#z23260d11"/></clipPath>
	<clipPath id="z23260c12"><use xlink:href="#z23260d12"/></clipPath>
	<clipPath id="z23260c13"><use xlink:href="#z23260d13"/></clipPath>
	<clipPath id="z23260c14"><use xlink:href="#z23260d14"/></clipPath>
</defs>
<path style="--d:1s;" pathLength="3333" clip-path="url(#z23260c1)" d="M231 119L285 190L188 590L335 710L381 782"/>
<path style="--d:2s;" pathLength="3333" clip-path="url(#z23260c2)" d="M341 358L373 404L300 644L219 756L98 824"/>
<path style="--d:3s;" pathLength="3333" clip-path="url(#z23260c3)" d="M60 465L114 487L337 428"/>
<path style="--d:4s;" pathLength="3333" clip-path="url(#z23260c4)" d="M572 61L678 138"/>
<path style="--d:5s;" pathLength="3333" clip-path="url(#z23260c5)" d="M505 207L805 180"/>
<path style="--d:6s;" pathLength="3333" clip-path="url(#z23260c6)" d="M520 265L583 333"/>
<path style="--d:7s;" pathLength="3333" clip-path="url(#z23260c7)" d="M720 213L740 247L676 340"/>
<path style="--d:8s;" pathLength="3333" clip-path="url(#z23260c8)" d="M424 387L861 338L944 354"/>
<path style="--d:9s;" pathLength="3333" clip-path="url(#z23260c9)" d="M479 453L509 480L549 660"/>
<path style="--d:10s;" pathLength="3333" clip-path="url(#z23260c10)" d="M533 456L777 439L801 472L737 637"/>
<path style="--d:11s;" pathLength="3333" clip-path="url(#z23260c11)" d="M549 539L701 522"/>
<path style="--d:12s;" pathLength="3333" clip-path="url(#z23260c12)" d="M566 617L718 598"/>
<path style="--d:13s;" pathLength="3333" clip-path="url(#z23260c13)" d="M416 738L857 702L935 718"/>
<path style="--d:14s;" pathLength="3333" clip-path="url(#z23260c14)" d="M606 632L651 654L651 964"/>
</svg>