<!--
AnimCJK 2016-2018 Copyright Francois Mizessyn - https://github.com/parsimonhi/animCJK
Derived from:
    MakeMeAHanzi project - https://github.com/skishore/makemeahanzi
    Arphic PL KaitiM GB - https://apps.ubuntu.com/cat/applications/precise/fonts-arphic-gkai00mp/
    Arphic PL UKai - https://apps.ubuntu.com/cat/applications/fonts-arphic-ukai/
You can redistribute and/or modify this file under the terms of the Arphic Public License
as published by Arphic Technology Co., Ltd.
You should have received a copy of this license (the directory "APL") along with this file;
if not, see http://ftp.gnu.org/non-gnu/chinese-fonts-truetype/LICENSE.
-->
<svg id="z23351" class="acjk" version="1.1" viewBox="0 0 1024 1024" xmlns="http://www.w3.org/2000/svg" xmlns:xlink="http://www.w3.org/1999/xlink">
<style>
<![CDATA[
@keyframes z23351k {
	from {
		stroke:#c00;
		stroke-dashoffset:3334;
	}
	75% {
		stroke:#c00;
		stroke-dashoffset:0;
	}
	to {
		stroke:#000;
	}
}
#z23351 path[clip-path] {
	animation:z23351k 1s linear both;
	stroke-dasharray:3334;
	stroke-width:128;
	stroke-linecap:round;
	fill:none;
}
#z23351 path[clip-path="url(#z23351c1)"] {animation-delay:1s;}
#z23351 path[clip-path="url(#z23351c2)"] {animation-delay:2s;}
#z23351 path[clip-path="url(#z23351c3)"] {animation-delay:3s;}
#z23351 path[clip-path="url(#z23351c4)"] {animation-delay:4s;}
#z23351 path[clip-path="url(#z23351c5)"] {animation-delay:5s;}
#z23351 path[clip-path="url(#z23351c6)"] {animation-delay:6s;}
#z23351 path[clip-path="url(#z23351c7)"] {animation-delay:7s;}
#z23351 path[clip-path="url(#z23351c8)"] {animation-delay:8s;}
#z23351 path[clip-path="url(#z23351c9)"] {animation-delay:9s;}
#z23351 path[clip-path="url(#z23351c10)"] {animation-delay:10s;}
#z23351 path[clip-path="url(#z23351c11)"] {animation-delay:11s;}
#z23351 path[clip-path="url(#z23351c12)"] {animation-delay:12s;}
#z23351 path[clip-path="url(#z23351c13)"] {animation-delay:13s;}
#z23351 path[clip-path="url(#z23351c14)"] {animation-delay:14s;}
#z23351 path[clip-path="url(#z23351c15)"] {animation-delay:15s;}
#z23351 path[clip-path="url(#z23351c16)"] {animation-delay:16s;}
#z23351 path[clip-path="url(#z23351c17)"] {animation-delay:17s;}
#z23351 path {fill:#ccc;}
]]>
</style>
<path id="z23351d1" d="M255 685Q306 730 311 732Q318 731 324 721Q331 711 325 683Q319 655 285 637L247 618Q225 608 194 593Q175 584 177 565Q193 514 207 463L217 424Q236 345 254 263Q261 220 278 197Q288 176 282 165Q269 149 226 125Q207 115 192 123Q182 129 191 144Q221 186 177 433L168 476Q140 560 137 566Q128 587 147 602Q195 629 224 658L255 685 Z"/>
<path id="z23351d2" d="M224 658Q220 662 215 670Q182 716 96 774Q84 783 95 785Q164 785 253 688Q253 685 255 685L285 637Q318 568 327 523Q337 451 355 415Q364 399 349 391Q309 358 284 367Q272 371 278 384Q284 394 286 408L287 435Q287 448 286 464Q283 537 247 618L224 658 Z"/>
<path id="z23351d3" d="M286 408Q252 415 217 424L177 433Q72 451 52 450Q42 451 39 459Q36 469 44 477Q62 492 87 510Q96 513 106 506Q134 488 168 476L207 463Q244 448 287 435L286 408 Z"/>
<path id="z23351d4" d="M568 102Q598 124 630 152Q643 164 659 162Q669 161 673 148Q677 133 666 105Q654 74 561 57Q545 54 540 57Q536 61 537 73Q541 83 568 102 Z"/>
<path id="z23351d5" d="M474 250Q505 259 540 252Q657 233 778 212Q833 202 842 194Q849 187 846 179Q840 169 814 160Q787 153 681 185Q557 212 462 219Q458 219 458 220L474 250 Z"/>
<path id="z23351d6" d="M458 220Q445 210 424 201Q405 191 392 197Q380 204 387 218Q408 248 408 313Q407 326 407 341Q404 521 363 648Q330 747 250 886Q246 892 243 898Q242 908 251 906Q284 899 357 776Q373 746 388 713Q452 545 465 295Q466 264 474 250L458 220 Z"/>
<path id="z23351d7" d="M586 403Q608 396 633 390Q654 384 656 381Q663 375 659 369Q653 360 631 356Q610 353 591 361L549 377Q510 386 480 391Q453 398 474 409Q501 422 538 415L586 403 Z"/>
<path id="z23351d8" d="M583 433Q584 417 586 403L591 361Q594 345 604 327Q608 320 600 310Q582 297 561 287Q548 281 538 285Q528 289 532 300Q548 324 549 377L548 476Q545 558 554 578L555 580Q562 592 574 585Q586 576 582 508Q581 483 582 460L583 433 Z"/>
<path id="z23351d9" d="M538 415Q519 472 451 576Q447 583 456 583Q460 584 466 577Q518 529 548 476L548 413L538 415 Z"/>
<path id="z23351d10" d="M582 460Q634 509 641 510Q647 510 650 503Q653 496 649 479Q648 464 626 451Q607 441 583 433L582 460 Z"/>
<path id="z23351d11" d="M788 370Q881 346 884 343Q891 336 887 329Q880 320 857 316Q824 310 792 330L746 344Q721 348 693 354Q665 360 686 372Q704 381 736 382L788 370 Z"/>
<path id="z23351d12" d="M787 376Q787 372 788 370L792 330Q795 314 805 295Q809 288 800 276Q755 242 731 251Q719 255 725 267Q744 295 746 344L748 449Q748 507 744 532Q743 544 758 575Q767 588 779 581Q789 569 786 496Q785 456 785 417L787 376 Z"/>
<path id="z23351d13" d="M736 382Q720 440 651 547Q647 554 656 555Q668 555 716 497Q732 478 748 449L746 380L736 382 Z"/>
<path id="z23351d14" d="M785 417Q813 466 850 521Q868 539 958 527Q962 526 964 523Q965 520 957 515Q866 467 787 376L785 417 Z"/>
<path id="z23351d15" d="M550 615Q546 660 443 761Q427 774 449 771Q503 764 582 674Q601 650 612 640Q619 630 618 622Q614 612 592 606Q568 599 558 602Q552 603 550 615 Z"/>
<path id="z23351d16" d="M773 806Q682 819 586 842Q576 846 573 843Q572 839 579 828Q711 687 739 664Q752 655 748 642Q744 629 697 599Q681 589 671 591Q658 595 661 617Q668 678 543 806Q519 825 484 846Q469 856 472 868Q476 886 499 909Q509 921 523 911Q571 878 768 835Q778 831 788 828L773 806 Z"/>
<path id="z23351d17" d="M788 828Q846 924 857 931Q864 934 873 926Q886 916 884 875Q884 817 745 727Q738 720 734 731Q731 743 738 754Q754 778 773 806L788 828 Z"/>
<defs>
	<clipPath id="z23351c1"><use xlink:href="#z23351d1"/></clipPath>
	<clipPath id="z23351c2"><use xlink:href="#z23351d2"/></clipPath>
	<clipPath id="z23351c3"><use xlink:href="#z23351d3"/></clipPath>
	<clipPath id="z23351c4"><use xlink:href="#z23351d4"/></clipPath>
	<clipPath id="z23351c5"><use xlink:href="#z23351d5"/></clipPath>
	<clipPath id="z23351c6"><use xlink:href="#z23351d6"/></clipPath>
	<clipPath id="z23351c7"><use xlink:href="#z23351d7"/></clipPath>
	<clipPath id="z23351c8"><use xlink:href="#z23351d8"/></clipPath>
	<clipPath id="z23351c9"><use xlink:href="#z23351d9"/></clipPath>
	<clipPath id="z23351c10"><use xlink:href="#z23351d10"/></clipPath>
	<clipPath id="z23351c11"><use xlink:href="#z23351d11"/></clipPath>
	<clipPath id="z23351c12"><use xlink:href="#z23351d12"/></clipPath>
	<clipPath id="z23351c13"><use xlink:href="#z23351d13"/></clipPath>
	<clipPath id="z23351c14"><use xlink:href="#z23351d14"/></clipPath>
	<clipPath id="z23351c15"><use xlink:href="#z23351d15"/></clipPath>
	<clipPath id="z23351c16"><use xlink:href="#z23351d16"/></clipPath>
	<clipPath id="z23351c17"><use xlink:href="#z23351d17"/></clipPath>
</defs>
<path pathLength="3333" clip-path="url(#z23351c1)" d="M194 131L243 191L156 578L289 675L318 725"/>
<path pathLength="3333" clip-path="url(#z23351c2)" d="M284 373L322 411L274 609L210 705L98 780"/>
<path pathLength="3333" clip-path="url(#z23351c3)" d="M44 463L92 478L281 418"/>
<path pathLength="3333" clip-path="url(#z23351c4)" d="M546 66L627 108L662 156"/>
<path pathLength="3333" clip-path="url(#z23351c5)" d="M469 226L838 184"/>
<path pathLength="3333" clip-path="url(#z23351c6)" d="M392 204L438 263L409 559L350 741L251 899"/>
<path pathLength="3333" clip-path="url(#z23351c7)" d="M474 399L652 370"/>
<path pathLength="3333" clip-path="url(#z23351c8)" d="M538 293L575 334L563 583"/>
<path pathLength="3333" clip-path="url(#z23351c9)" d="M542 421L522 489L457 576"/>
<path pathLength="3333" clip-path="url(#z23351c10)" d="M587 442L640 504"/>
<path pathLength="3333" clip-path="url(#z23351c11)" d="M687 363L882 334"/>
<path pathLength="3333" clip-path="url(#z23351c12)" d="M731 258L774 300L769 579"/>
<path pathLength="3333" clip-path="url(#z23351c13)" d="M740 392L725 455L658 546"/>
<path pathLength="3333" clip-path="url(#z23351c14)" d="M789 386L874 500L957 520"/>
<path pathLength="3333" clip-path="url(#z23351c15)" d="M614 625L575 632L445 768"/>
<path pathLength="3333" clip-path="url(#z23351c16)" d="M671 595L702 651L530 866L548 879L781 820"/>
<path pathLength="3333" clip-path="url(#z23351c17)" d="M739 733L839 847L865 927"/>
</svg>