<!--
AnimCJK 2016-2025 Copyright FM-SH - https://github.com/parsimonhi/animCJK
Derived from:
    MakeMeAHanzi project - https://github.com/skishore/makemeahanzi
    Arphic PL KaitiM GB font
    Arphic PL KaitiM Big5 font
You can redistribute and/or modify this file under the terms of the Arphic Public License
as published by Arphic Technology Co., Ltd.
You should have received a copy of this license along with this file.
If not, see https://ftp.gnu.org/non-gnu/chinese-fonts-truetype/LICENSE.
-->
<svg id="z23376" class="acjk" viewBox="0 0 1024 1024" xmlns="http://www.w3.org/2000/svg">
<style>
<![CDATA[
@keyframes zk {
	to {
		stroke-dashoffset:0;
	}
}
svg.acjk path[clip-path] {
	--t:0.8s;
	animation:zk var(--t) linear forwards var(--d);
	stroke-dasharray:3337;
	stroke-dashoffset:3339;
	stroke-width:128;
	stroke-linecap:round;
	fill:none;
	stroke:#000;
}
svg.acjk path[id] {fill:#ccc;}
]]>
</style>
<path id="z23376d1" d="M540 343C633 263 666 244 698 229C751 202 742 196 705 154C683 129 667 120 661 120C656 119 652 118 644 122C597 141 428 173 344 179C329 179 317 179 309 178C295 175 287 177 283 185C280 189 282 195 288 203C294 211 305 221 322 234C335 244 345 249 354 250C359 250 371 247 384 238C408 220 482 196 607 168C623 164 632 162 637 165C640 167 642 171 642 177C641 183 566 277 529 327C525 332 535 347 540 343Z"/>
<path id="z23376d2" d="M529 327C513 317 497 311 486 308C476 305 471 305 466 309C463 311 466 315 474 326C488 344 500 385 508 449C511 478 511 478 513 493C530 651 525 757 492 810C482 824 469 819 456 817C435 814 401 808 356 800C350 799 347 800 346 803C344 805 347 809 354 815C403 851 441 884 470 913C477 921 485 924 492 924C500 922 512 915 527 901C558 870 573 825 576 764C578 695 574 602 562 489C559 458 559 458 557 443C553 409 542 360 540 343C539 337 534 331 529 327Z"/>
<path id="z23376d3" d="M508 449C369 465 250 480 121 482C112 482 107 485 106 494C105 502 110 512 124 522C134 530 151 539 174 547C180 549 190 546 204 543C304 517 421 500 513 493C546 490 546 490 562 489C700 477 807 476 888 483C919 485 936 485 942 479C948 471 945 460 937 453C888 407 844 401 800 409C737 419 643 432 557 443C524 447 524 447 508 449Z"/>
<defs>
	<clipPath id="z23376c1"><use href="#z23376d1"/></clipPath>
	<clipPath id="z23376c2"><use href="#z23376d2"/></clipPath>
	<clipPath id="z23376c3"><use href="#z23376d3"/></clipPath>
</defs>
<path style="--d:1s;" pathLength="3333" clip-path="url(#z23376c1)" d="M287 190L356 213L653 143L681 199L535 334"/>
<path style="--d:2s;" pathLength="3333" clip-path="url(#z23376c2)" d="M474 314L512 346L530 425L549 649L536 804L488 870L350 806"/>
<path style="--d:3s;" pathLength="3333" clip-path="url(#z23376c3)" d="M113 495L179 514L825 442L941 464"/>
</svg>