<!--
AnimCJK 2016-2017 Copyright Francois Mizessyn, http://gooo.free.fr/animCJK/
Derived from:
    MakeMeAHanzi project - https://github.com/skishore/makemeahanzi
    Arphic PL KaitiM GB - https://apps.ubuntu.com/cat/applications/precise/fonts-arphic-gkai00mp/
    Arphic PL UKai - https://apps.ubuntu.com/cat/applications/fonts-arphic-ukai/
You can redistribute and/or modify this file under the terms of the Arphic Public License
as published by Arphic Technology Co., Ltd.
You should have received a copy of this license (the directory "APL") along with this file;
if not, see http://ftp.gnu.org/non-gnu/chinese-fonts-truetype/LICENSE.
-->
<svg id="z23385" class="acjk" version="1.1" viewBox="0 0 1024 1024" xmlns="http://www.w3.org/2000/svg" xmlns:xlink="http://www.w3.org/1999/xlink">
<style>
<![CDATA[
	@keyframes z23385k {
		from {
			stroke:#c00;
			stroke-dashoffset:3000;
		}
		75% {
			stroke:#c00;
			stroke-dashoffset:0;
		}
		to {
			stroke:#000;
		}
	}
	#z23385 path[clip-path] {
		animation:z23385k 1s linear both;
		stroke-dasharray:3000;
		stroke-width:128;
		stroke-linecap:round;
		fill:none;
	}
	#z23385 path[clip-path="url(#z23385c1)"] {animation-delay:1s;}
	#z23385 path[clip-path="url(#z23385c2)"] {animation-delay:2s;}
	#z23385 path[clip-path="url(#z23385c3)"] {animation-delay:3s;}
	#z23385 path[clip-path="url(#z23385c4)"] {animation-delay:4s;}
	#z23385 path[clip-path="url(#z23385c5)"] {animation-delay:5s;}
	#z23385 path[clip-path="url(#z23385c6)"] {animation-delay:6s;}
	#z23385 path {fill:#ccc;}
]]>
</style>
<g transform="scale(1,-1) translate(0,-900)">
	<path id="z23385d1" d="M323 533Q431 647 468 662Q487 669 480 686Q476 702 407 734Q388 743 365 733Q311 709 228 681Q206 672 153 671Q129 671 139 651Q146 638 167 628Q198 612 231 634Q249 643 343 685Q356 692 369 684Q382 677 376 662Q345 607 308 543L323 533Z"/>
	<path id="z23385d2" d="M370 421Q355 511 323 533L308 543Q304 547 297 549Q278 558 268 551Q255 547 267 532Q303 502 319 398L324 361Q339 205 302 118Q286 97 257 106Q232 113 208 121Q198 125 201 114Q204 107 218 93Q249 59 259 33Q266 15 283 17Q296 17 323 40Q407 110 375 390L370 421Z"/>
	<path id="z23385d3" d="M375 390Q397 403 414 418Q426 428 425 437Q419 441 407 438Q389 431 370 421L319 398Q226 358 119 313Q100 304 65 301Q52 298 51 287Q50 274 60 266Q85 253 122 237Q132 234 144 245Q180 278 324 361L375 390Z"/>
	<path id="z23385d4" d="M612 124Q570 134 531 143Q518 146 519 138Q520 131 531 123Q615 57 645 16Q661 -2 677 13Q713 49 711 124Q707 182 703 557Q702 606 713 641Q722 660 704 674Q677 696 646 706Q627 713 618 705Q612 698 623 682Q648 642 647 597Q666 152 635 127Q626 120 612 124Z"/>
	<path id="z23385d5" d="M505 421Q480 370 448 325Q426 295 442 264Q448 248 468 258Q516 289 525 367Q532 397 526 419Q522 428 517 429Q510 428 505 421Z"/>
	<path id="z23385d6" d="M811 425Q859 373 916 298Q929 276 944 271Q953 270 961 278Q974 291 966 334Q956 388 814 455Q807 461 803 449Q802 436 811 425Z"/>
	<defs>
		<clipPath id="z23385c1"><use xlink:href="#z23385d1"/></clipPath>
		<clipPath id="z23385c2"><use xlink:href="#z23385d2"/></clipPath>
		<clipPath id="z23385c3"><use xlink:href="#z23385d3"/></clipPath>
		<clipPath id="z23385c4"><use xlink:href="#z23385d4"/></clipPath>
		<clipPath id="z23385c5"><use xlink:href="#z23385d5"/></clipPath>
		<clipPath id="z23385c6"><use xlink:href="#z23385d6"/></clipPath>
	</defs>
	<path pathLength="2999" clip-path="url(#z23385c1)" d="M141 660L210 650L366 711L414 693L428 668L316 541"/>
	<path pathLength="2999" clip-path="url(#z23385c2)" d="M267 543L311 513L337 449L351 182L328 101L285 62L207 114"/>
	<path pathLength="2999" clip-path="url(#z23385c3)" d="M55 286L126 276L417 431"/>
	<path pathLength="2999" clip-path="url(#z23385c4)" d="M621 701L679 645L674 110L647 60L527 136"/>
	<path pathLength="2999" clip-path="url(#z23385c5)" d="M518 426L451 261"/>
	<path pathLength="2999" clip-path="url(#z23385c6)" d="M810 446L924 344L952 278"/>
</g>
</svg>