<!--
AnimCJK 2016-2017 Copyright Francois Mizessyn, http://gooo.free.fr/animCJK/
Derived from:
    MakeMeAHanzi project - https://github.com/skishore/makemeahanzi
    Arphic PL KaitiM GB - https://apps.ubuntu.com/cat/applications/precise/fonts-arphic-gkai00mp/
    Arphic PL UKai - https://apps.ubuntu.com/cat/applications/fonts-arphic-ukai/
You can redistribute and/or modify this file under the terms of the Arphic Public License
as published by Arphic Technology Co., Ltd.
You should have received a copy of this license (the directory "APL") along with this file;
if not, see http://ftp.gnu.org/non-gnu/chinese-fonts-truetype/LICENSE.
-->
<svg id="z23396" class="acjk" version="1.1" viewBox="0 0 1024 1024" xmlns="http://www.w3.org/2000/svg" xmlns:xlink="http://www.w3.org/1999/xlink">
<style>
<![CDATA[
	@keyframes z23396k {
		from {
			stroke:#c00;
			stroke-dashoffset:3000;
		}
		75% {
			stroke:#c00;
			stroke-dashoffset:0;
		}
		to {
			stroke:#000;
		}
	}
	#z23396 path[clip-path] {
		animation:z23396k 1s linear both;
		stroke-dasharray:3000;
		stroke-width:128;
		stroke-linecap:round;
		fill:none;
	}
	#z23396 path[clip-path="url(#z23396c1)"] {animation-delay:1s;}
	#z23396 path[clip-path="url(#z23396c2)"] {animation-delay:2s;}
	#z23396 path[clip-path="url(#z23396c3)"] {animation-delay:3s;}
	#z23396 path[clip-path="url(#z23396c4)"] {animation-delay:4s;}
	#z23396 path[clip-path="url(#z23396c5)"] {animation-delay:5s;}
	#z23396 path[clip-path="url(#z23396c6)"] {animation-delay:6s;}
	#z23396 path[clip-path="url(#z23396c7)"] {animation-delay:7s;}
	#z23396 path[clip-path="url(#z23396c8)"] {animation-delay:8s;}
	#z23396 path {fill:#ccc;}
]]>
</style>
<g transform="scale(1,-1) translate(0,-900)">
	<path id="z23396d1" d="M269 523Q377 632 412 645Q431 652 424 669Q420 685 352 718Q331 728 266 700Q172 666 117 663Q95 663 103 643Q110 630 130 620Q161 604 195 625Q210 632 286 671Q301 677 313 669Q326 660 320 646Q290 597 256 536L269 523Z"/>
	<path id="z23396d2" d="M311 408Q301 486 269 523L256 536Q249 543 239 548Q229 555 223 547Q219 543 226 529Q254 468 264 384L267 343Q267 336 268 327Q272 260 260 199Q251 141 236 127Q230 124 141 156Q131 160 124 157Q118 156 133 142Q190 84 221 37Q237 18 256 25Q280 35 301 91Q329 193 314 374L311 408Z"/>
	<path id="z23396d3" d="M314 374Q377 422 377 432L377 433Q370 437 359 433Q335 421 311 408L264 384Q186 347 100 304Q81 295 50 291Q37 287 37 277Q37 264 48 257Q73 245 108 232Q118 231 129 241Q168 281 267 343L314 374Z"/>
	<path id="z23396d4" d="M562 609Q565 612 571 614Q623 638 662 664Q705 692 745 706Q764 710 766 719Q767 731 753 741Q728 754 679 764Q661 768 648 765Q641 761 642 748Q643 711 500 605L509 585Q516 589 530 594L562 609Z"/>
	<path id="z23396d5" d="M500 605Q485 618 461 627Q442 636 431 630Q421 623 427 611Q445 590 445 518Q445 368 417 271Q395 193 333 81Q329 74 327 69Q326 59 335 61Q362 64 429 183Q436 199 444 217Q490 341 498 490Q501 562 509 585L500 605Z"/>
	<path id="z23396d6" d="M608 563Q607 575 598 583Q577 604 562 609L530 594Q554 570 553 519Q562 255 542 167Q538 136 525 118Q512 96 523 73Q536 39 554 27Q566 20 578 40Q603 82 694 189Q697 193 699 195L688 212Q604 158 598 159Q591 163 590 179Q593 477 607 551L608 563Z"/>
	<path id="z23396d7" d="M699 195Q718 165 738 131Q745 118 756 115Q763 114 770 121Q777 130 777 153Q778 187 695 248Q685 255 680 254Q676 253 674 243Q674 237 688 212L699 195Z"/>
	<path id="z23396d8" d="M607 551Q638 524 653 485Q779 197 811 178Q896 157 958 154Q974 153 982 158Q988 164 978 170Q840 255 775 348Q724 421 663 537Q656 556 639 562Q615 569 608 563L607 551Z"/>
	<defs>
		<clipPath id="z23396c1"><use xlink:href="#z23396d1"/></clipPath>
		<clipPath id="z23396c2"><use xlink:href="#z23396d2"/></clipPath>
		<clipPath id="z23396c3"><use xlink:href="#z23396d3"/></clipPath>
		<clipPath id="z23396c4"><use xlink:href="#z23396d4"/></clipPath>
		<clipPath id="z23396c5"><use xlink:href="#z23396d5"/></clipPath>
		<clipPath id="z23396c6"><use xlink:href="#z23396d6"/></clipPath>
		<clipPath id="z23396c7"><use xlink:href="#z23396d7"/></clipPath>
		<clipPath id="z23396c8"><use xlink:href="#z23396d8"/></clipPath>
	</defs>
	<path pathLength="2999" clip-path="url(#z23396c1)" d="M105 653L159 641L305 695L368 669L263 531"/>
	<path pathLength="2999" clip-path="url(#z23396c2)" d="M229 544L260 502L288 387L276 127L234 76L130 153"/>
	<path pathLength="2999" clip-path="url(#z23396c3)" d="M44 277L110 269L368 430"/>
	<path pathLength="2999" clip-path="url(#z23396c4)" d="M761 721L665 721L508 594"/>
	<path pathLength="2999" clip-path="url(#z23396c5)" d="M431 624L474 581L452 321L408 187L334 68"/>
	<path pathLength="2999" clip-path="url(#z23396c6)" d="M538 593L579 553L559 113L583 83L694 201"/>
	<path pathLength="2999" clip-path="url(#z23396c7)" d="M682 247L760 120"/>
	<path pathLength="2999" clip-path="url(#z23396c8)" d="M613 558L648 531L833 219L975 163"/>
</g>
</svg>