<!--
AnimCJK 2016-2019 Copyright Francois Mizessyn - https://github.com/parsimonhi/animCJK
Derived from:
    MakeMeAHanzi project - https://github.com/skishore/makemeahanzi
    Arphic PL KaitiM GB font
    Arphic PL UKai font
You can redistribute and/or modify this file under the terms of the Arphic Public License
as published by Arphic Technology Co., Ltd.
You should have received a copy of this license along with this file.
If not, see http://ftp.gnu.org/non-gnu/chinese-fonts-truetype/LICENSE.
-->
<svg id="z23395" class="acjk" version="1.1" viewBox="0 0 1024 1024" xmlns="http://www.w3.org/2000/svg" xmlns:xlink="http://www.w3.org/1999/xlink">
<style>
<![CDATA[
@keyframes zk {
	to {
		stroke-dashoffset:0;
	}
}
svg.acjk path[clip-path] {
	--t:0.8s;
	animation:zk var(--t) linear forwards var(--d);
	stroke-dasharray:3337;
	stroke-dashoffset:3339;
	stroke-width:128;
	stroke-linecap:round;
	fill:none;
	stroke:#000;
}
svg.acjk path[id] {fill:#ccc;}
]]>
</style>
<path id="z23395d1" d="M507 128C577 112 623 99 647 99C657 98 663 98 666 94C669 88 668 80 662 74C632 42 606 27 586 27C581 27 578 31 577 39C572 62 496 96 347 139C339 141 329 141 322 146C316 149 317 154 321 156C322 156 372 157 466 137C493 131 493 131 507 128Z"/>
<path id="z23395d2" d="M547 255C597 249 655 246 723 246C763 246 787 243 791 237C794 230 791 221 781 213C745 185 708 182 670 192C632 201 586 208 534 218C500 224 500 224 483 227C458 231 295 253 195 267C182 268 180 275 190 285C198 293 208 300 220 303C232 306 244 306 255 303C313 286 417 268 448 265C514 258 514 258 547 255Z"/>
<path id="z23395d3" d="M534 218C536 207 543 181 549 171C552 165 550 157 544 151C533 140 521 133 507 128C494 123 459 125 466 137C476 155 483 185 483 227C483 272 483 272 483 294C483 330 478 356 477 373C475 388 482 407 490 419C495 427 503 430 512 425C519 419 525 400 525 347C524 331 524 300 527 271C528 253 529 233 534 218Z"/>
<path id="z23395d4" d="M448 265C399 329 321 390 213 448C204 452 202 456 208 459C220 465 249 459 295 439C335 423 385 387 445 333C469 310 477 302 483 294C507 264 471 234 448 265Z"/>
<path id="z23395d5" d="M527 271C585 323 646 371 710 419C725 430 743 434 766 433C806 429 847 420 890 407C900 403 906 401 907 399C907 395 903 391 894 389C785 364 721 348 701 340C682 331 607 293 547 255C531 246 512 260 527 271Z"/>
<path id="z23395d6" d="M522 581C580 535 620 506 645 500C657 496 661 490 658 479C655 469 635 452 596 429C585 422 573 422 559 427C519 440 469 451 411 466C394 469 368 470 332 468C317 466 311 473 317 485C320 493 329 501 341 508C359 519 378 516 400 508C493 473 546 464 557 471C564 476 567 482 562 491C546 515 526 541 506 571C503 576 517 585 522 581Z"/>
<path id="z23395d7" d="M546 608C539 596 532 590 522 581C517 576 511 574 506 571C501 568 497 566 491 564C477 559 467 559 460 564C451 569 451 576 461 584C472 593 482 600 491 615C497 626 502 639 506 652C515 688 521 731 520 769C519 807 515 837 504 860C495 876 479 883 457 879C436 874 415 870 396 866C387 864 385 866 389 874C391 878 400 884 413 894C440 915 458 936 468 954C474 965 483 970 495 969C503 967 516 958 534 941C569 904 582 841 576 737C574 717 569 677 561 648C556 633 552 618 546 608Z"/>
<path id="z23395d8" d="M561 648C635 642 701 645 886 647C900 647 910 644 914 638C919 629 915 618 902 608C862 575 819 566 773 575C712 586 636 596 546 608C509 613 509 613 491 615C378 629 255 638 123 651C107 652 103 659 116 673C137 696 165 705 195 698C301 673 405 659 506 652C543 649 543 649 561 648Z"/>
<defs>
	<clipPath id="z23395c1"><use xlink:href="#z23395d1"/></clipPath>
	<clipPath id="z23395c2"><use xlink:href="#z23395d2"/></clipPath>
	<clipPath id="z23395c3"><use xlink:href="#z23395d3"/></clipPath>
	<clipPath id="z23395c4"><use xlink:href="#z23395d4"/></clipPath>
	<clipPath id="z23395c5"><use xlink:href="#z23395d5"/></clipPath>
	<clipPath id="z23395c6"><use xlink:href="#z23395d6"/></clipPath>
	<clipPath id="z23395c7"><use xlink:href="#z23395d7"/></clipPath>
	<clipPath id="z23395c8"><use xlink:href="#z23395d8"/></clipPath>
</defs>
<path style="--d:1s;" pathLength="3333" clip-path="url(#z23395c1)" d="M590 34L611 80L327 150"/>
<path style="--d:2s;" pathLength="3333" clip-path="url(#z23395c2)" d="M190 275L243 283L681 217L787 226"/>
<path style="--d:3s;" pathLength="3333" clip-path="url(#z23395c3)" d="M473 140L514 174L503 421"/>
<path style="--d:4s;" pathLength="3333" clip-path="url(#z23395c4)" d="M475 269L343 391L216 455"/>
<path style="--d:5s;" pathLength="3333" clip-path="url(#z23395c5)" d="M534 261L736 391L898 396"/>
<path style="--d:6s;" pathLength="3333" clip-path="url(#z23395c6)" d="M320 475L372 493L575 450L610 490L515 570"/>
<path style="--d:7s;" pathLength="3333" clip-path="url(#z23395c7)" d="M458 571L508 598L533 648L544 837L521 898L485 924L397 871"/>
<path style="--d:8s;" pathLength="3333" clip-path="url(#z23395c8)" d="M115 661L174 673L791 609L912 626"/>
</svg>