<!--
AnimCJK 2016-2026 Copyright FM-SH - https://github.com/parsimonhi/animCJK
Derived from:
    MakeMeAHanzi project - https://github.com/skishore/makemeahanzi
    Arphic PL KaitiM GB font
    Arphic PL KaitiM Big5 font
You can redistribute and/or modify this file under the terms of the Arphic Public License
as published by Arphic Technology Co., Ltd.
You should have received a copy of this license along with this file.
If not, see https://ftp.gnu.org/non-gnu/chinese-fonts-truetype/LICENSE.
-->
<svg id="z23400" class="acjk" viewBox="0 0 1024 1024" xmlns="http://www.w3.org/2000/svg">
<style>
<![CDATA[
@keyframes zk {
	to {
		stroke-dashoffset:0;
	}
}
svg.acjk path[clip-path] {
	--t:0.8s;
	animation:zk var(--t) linear forwards var(--d);
	stroke-dasharray:3337;
	stroke-dashoffset:3339;
	stroke-width:128;
	stroke-linecap:round;
	fill:none;
	stroke:#000;
}
svg.acjk path[id] {fill:#ccc;}
]]>
</style>
<path id="z23400d1" d="M540 241Q619 175 655 167Q673 160 666 146Q662 132 599 101Q594 99 591 98Q579 95 554 104Q461 137 427 146Q407 154 357 154Q335 154 343 173Q347 178 354 183Q391 211 430 188Q542 136 561 144Q572 150 567 163C540 207 540 207 527 229C524 234 535 245 540 241Z"/>
<path id="z23400d2" d="M550 265Q550 251 540 241C531 233 531 233 527 229Q500 202 489 212Q488 217 491 223Q504 249 508 273C511 292 511 292 512 301Q514 362 501 377Q478 377 455 375Q423 372 416 375Q412 376 425 385Q468 417 496 448Q512 463 526 453Q543 444 556 401Q556 362 557 294C552 275 552 275 550 265Z"/>
<path id="z23400d3" d="M557 294Q634 285 736 283Q788 283 794 274Q799 264 784 253Q736 224 674 240Q625 250 550 265C522 270 522 270 508 273C369 294 369 294 299 304Q293 305 291 308Q287 314 303 324Q328 340 354 333Q365 330 383 325Q493 297 512 301C542 296 542 296 557 294Z"/>
<path id="z23400d4" d="M350 581Q350 579 351 579Q435 496 458 490Q472 483 467 471Q464 458 406 434Q404 433 401 433Q387 430 327 450Q248 478 214 478Q195 478 201 494Q205 498 208 502Q243 532 278 508Q358 465 374 475Q386 482 380 493C354 545 354 545 341 571C339 575 347 585 350 581Z"/>
<path id="z23400d5" d="M341 571Q315 549 309 559Q306 562 310 572Q322 602 325 622C329 645 329 645 331 656Q346 748 316 786Q315 786 315 787Q306 792 273 790Q236 788 230 792Q226 793 241 802Q284 841 307 871Q324 885 340 877Q356 869 368 838Q398 762 379 633C372 615 372 615 369 606Q362 589 350 581C344 574 344 574 341 571Z"/>
<path id="z23400d6" d="M325 622Q116 692 75 695Q65 696 63 705Q59 717 71 727Q112 752 125 756Q137 760 150 751Q187 722 331 656C363 641 363 641 379 633Q432 606 435 590Q423 582 369 606C340 617 340 617 325 622Z"/>
<path id="z23400d7" d="M700 538Q799 459 829 449Q848 443 843 429Q839 415 775 383Q760 378 706 394Q620 422 574 427Q558 427 558 435Q560 449 586 466Q613 479 649 460Q649 459 687 436Q719 416 737 425Q749 432 744 444Q720 476 684 531C681 536 695 541 700 538Z"/>
<path id="z23400d8" d="M740 584Q732 551 700 538C689 533 689 533 684 531Q683 530 678 528Q657 521 645 528Q632 536 646 548Q674 565 686 594C693 616 693 616 697 627Q708 674 706 719Q706 769 690 800Q679 816 657 814Q649 814 604 804Q595 800 595 807Q596 817 612 830Q642 863 652 886Q667 922 718 876Q795 802 751 619C744 596 744 596 740 584Z"/>
<path id="z23400d9" d="M751 619Q820 611 906 611Q918 611 943 610Q966 610 966 598Q966 588 955 581Q906 543 818 569Q789 575 740 584C704 591 704 591 686 594Q562 612 471 628Q454 630 467 643Q498 669 531 659Q648 627 697 627C733 622 733 622 751 619Z"/>
<defs>
	<clipPath id="z23400c1"><use href="#z23400d1"/></clipPath>
	<clipPath id="z23400c2"><use href="#z23400d2"/></clipPath>
	<clipPath id="z23400c3"><use href="#z23400d3"/></clipPath>
	<clipPath id="z23400c4"><use href="#z23400d4"/></clipPath>
	<clipPath id="z23400c5"><use href="#z23400d5"/></clipPath>
	<clipPath id="z23400c6"><use href="#z23400d6"/></clipPath>
	<clipPath id="z23400c7"><use href="#z23400d7"/></clipPath>
	<clipPath id="z23400c8"><use href="#z23400d8"/></clipPath>
	<clipPath id="z23400c9"><use href="#z23400d9"/></clipPath>
</defs>
<path style="--d:1s;" pathLength="3333" clip-path="url(#z23400c1)" d="M348 165L400 175L582 124L615 163L534 234"/>
<path style="--d:2s;" pathLength="3333" clip-path="url(#z23400c2)" d="M495 216L534 295L527 394L500 416L425 377"/>
<path style="--d:3s;" pathLength="3333" clip-path="url(#z23400c3)" d="M299 312L678 261L791 266"/>
<path style="--d:4s;" pathLength="3333" clip-path="url(#z23400c4)" d="M207 489L400 460L423 487L347 573"/>
<path style="--d:5s;" pathLength="3333" clip-path="url(#z23400c5)" d="M317 566L356 649L347 800L318 834L240 794"/>
<path style="--d:6s;" pathLength="3333" clip-path="url(#z23400c6)" d="M67 706L132 720L426 593"/>
<path style="--d:7s;" pathLength="3333" clip-path="url(#z23400c7)" d="M566 436L618 444L716 407L767 410L791 443L690 531"/>
<path style="--d:8s;" pathLength="3333" clip-path="url(#z23400c8)" d="M644 536L713 588L733 770L714 825L675 857L602 808"/>
<path style="--d:9s;" pathLength="3333" clip-path="url(#z23400c9)" d="M473 637L833 588L962 593"/>
</svg>