<!--
AnimCJK 2016-2017 Copyright Francois Mizessyn, http://gooo.free.fr/animCJK/
Derived from:
    MakeMeAHanzi project - https://github.com/skishore/makemeahanzi
    Arphic PL KaitiM GB - https://apps.ubuntu.com/cat/applications/precise/fonts-arphic-gkai00mp/
    Arphic PL UKai - https://apps.ubuntu.com/cat/applications/fonts-arphic-ukai/
You can redistribute and/or modify this file under the terms of the Arphic Public License
as published by Arphic Technology Co., Ltd.
You should have received a copy of this license (the directory "APL") along with this file;
if not, see http://ftp.gnu.org/non-gnu/chinese-fonts-truetype/LICENSE.
-->
<svg id="z23435" class="acjk" version="1.1" viewBox="0 0 1024 1024" xmlns="http://www.w3.org/2000/svg" xmlns:xlink="http://www.w3.org/1999/xlink">
<style>
<![CDATA[
	@keyframes z23435k {
		from {
			stroke:#c00;
			stroke-dashoffset:3000;
		}
		75% {
			stroke:#c00;
			stroke-dashoffset:0;
		}
		to {
			stroke:#000;
		}
	}
	#z23435 path[clip-path] {
		animation:z23435k 1s linear both;
		stroke-dasharray:3000;
		stroke-width:128;
		stroke-linecap:round;
		fill:none;
	}
	#z23435 path[clip-path="url(#z23435c1)"] {animation-delay:1s;}
	#z23435 path[clip-path="url(#z23435c2)"] {animation-delay:2s;}
	#z23435 path[clip-path="url(#z23435c3)"] {animation-delay:3s;}
	#z23435 path[clip-path="url(#z23435c4)"] {animation-delay:4s;}
	#z23435 path[clip-path="url(#z23435c5)"] {animation-delay:5s;}
	#z23435 path[clip-path="url(#z23435c6)"] {animation-delay:6s;}
	#z23435 path[clip-path="url(#z23435c7)"] {animation-delay:7s;}
	#z23435 path {fill:#ccc;}
]]>
</style>
<g transform="scale(1,-1) translate(0,-900)">
	<path id="z23435d1" d="M467 764Q489 743 513 718Q529 705 546 705Q559 705 564 721Q570 737 559 771Q553 790 523 802Q451 829 436 819Q430 815 432 800Q436 787 467 764Z"/>
	<path id="z23435d2" d="M301 635Q289 659 278 668Q259 681 257 656Q261 625 217 569Q180 533 207 471Q222 444 242 472Q258 497 272 534Q287 580 299 606L301 635Z"/>
	<path id="z23435d3" d="M299 606Q326 590 353 597Q500 643 682 659Q713 663 725 660Q741 653 740 646Q740 643 695 566Q688 553 693 548Q700 544 717 554Q777 591 826 602Q866 612 865 622Q864 632 795 689Q768 710 696 694Q555 675 398 648Q349 641 301 635L299 606Z"/>
	<path id="z23435d4" d="M538 385Q559 391 728 413Q738 412 749 424Q750 437 726 448Q692 469 598 443Q568 436 540 428L487 417Q435 408 388 402Q339 398 285 390Q254 386 278 368Q311 340 342 348Q394 360 455 370L538 385Z"/>
	<path id="z23435d5" d="M540 428Q541 474 552 507Q559 522 557 534Q551 543 500 573Q479 589 460 574Q456 570 461 556Q483 523 485 489Q486 455 487 417L488 326Q488 149 474 87Q456 57 486 -12Q493 -28 500 -31Q506 -37 512 -30Q519 -26 528 -6Q537 16 536 45Q535 76 537 348L538 385L540 428Z"/>
	<path id="z23435d6" d="M455 370Q407 243 178 88Q162 75 177 74Q187 73 226 88Q281 109 331 148Q374 182 425 239Q465 285 488 326L487.45203488372096 375.86482558139534L455 370Z"/>
	<path id="z23435d7" d="M537 348Q619 230 726 102Q745 81 777 83Q886 87 921 93Q931 96 932 101Q933 107 918 114Q782 166 727 207Q643 277 544 379Q541 383 538 385L537 348Z"/>
	<defs>
		<clipPath id="z23435c1"><use xlink:href="#z23435d1"/></clipPath>
		<clipPath id="z23435c2"><use xlink:href="#z23435d2"/></clipPath>
		<clipPath id="z23435c3"><use xlink:href="#z23435d3"/></clipPath>
		<clipPath id="z23435c4"><use xlink:href="#z23435d4"/></clipPath>
		<clipPath id="z23435c5"><use xlink:href="#z23435d5"/></clipPath>
		<clipPath id="z23435c6"><use xlink:href="#z23435d6"/></clipPath>
		<clipPath id="z23435c7"><use xlink:href="#z23435d7"/></clipPath>
	</defs>
	<path pathLength="2999" clip-path="url(#z23435c1)" d="M436 808L518 765L552 712"/>
	<path pathLength="2999" clip-path="url(#z23435c2)" d="M267 664L275 615L222 464"/>
	<path pathLength="2999" clip-path="url(#z23435c3)" d="M304 612L738 680L807 619L697 555"/>
	<path pathLength="2999" clip-path="url(#z23435c4)" d="M277 381L332 371L744 430"/>
	<path pathLength="2999" clip-path="url(#z23435c5)" d="M465 570L520 513L507 -28"/>
	<path pathLength="2999" clip-path="url(#z23435c6)" d="M481 367L340 184L179 79"/>
	<path pathLength="2999" clip-path="url(#z23435c7)" d="M540 378L759 133L925 106"/>
</g>
</svg>