<!--
AnimCJK 2016-2019 Copyright Francois Mizessyn - https://github.com/parsimonhi/animCJK
Derived from:
    MakeMeAHanzi project - https://github.com/skishore/makemeahanzi
    Arphic PL KaitiM GB font
    Arphic PL UKai font
You can redistribute and/or modify this file under the terms of the Arphic Public License
as published by Arphic Technology Co., Ltd.
You should have received a copy of this license along with this file.
If not, see http://ftp.gnu.org/non-gnu/chinese-fonts-truetype/LICENSE.
-->
<svg id="z23459" class="acjk" version="1.1" viewBox="0 0 1024 1024" xmlns="http://www.w3.org/2000/svg" xmlns:xlink="http://www.w3.org/1999/xlink">
<style>
<![CDATA[
@keyframes zk {
	to {
		stroke-dashoffset:0;
	}
}
svg.acjk path[clip-path] {
	--t:0.8s;
	animation:zk var(--t) linear forwards var(--d);
	stroke-dasharray:3337;
	stroke-dashoffset:3339;
	stroke-width:128;
	stroke-linecap:round;
	fill:none;
	stroke:#000;
}
svg.acjk path[id] {fill:#ccc;}
]]>
</style>
<path id="z23459d1" d="M476 120Q504 142 533 171Q549 184 567 184Q579 183 584 168Q590 150 578 117Q566 86 469 65Q451 61 444 65Q438 69 440 84Q444 97 476 120Z"/>
<path id="z23459d2" d="M268 264Q259 237 245 228Q226 212 223 239Q227 269 188 320Q151 365 149 377Q149 402 163 437Q178 465 199 437Q218 410 234 370Q252 321 265 293C269 284 272 273 268 264Z"/>
<path id="z23459d3" d="M265 293Q290 309 332 300Q395 279 666 233Q721 226 738 229Q754 244 750 251Q751 257 720 339Q713 355 721 359Q730 363 748 348Q806 302 858 284Q898 268 897 258Q896 246 813 194Q792 179 715 192Q634 202 375 248Q321 258 268 264C258 266 257 287 265 293Z"/>
<path id="z23459d4" d="M354 384Q318 390 343 406Q379 431 437 418Q516 405 599 388Q636 381 642 375Q651 368 647 360Q640 348 612 340Q584 334 554 345Q511 358 465 369Q413 379 354 384Z"/>
<path id="z23459d5" d="M334 511Q318 502 300 499Q293 496 288 502Q281 508 291 519Q324 567 338 682Q342 742 380 768Q381 768 383 769Q399 773 399 748C398 727 398 727 397 717Q396 698 388 675Q385 659 382 642C380 624 380 624 379 615Q373 578 372 548Q372 544 371 540C368 525 348 518 334 511Z"/>
<path id="z23459d6" d="M594 721Q612 749 628 759Q638 768 655 746Q671 721 706 583Q716 552 740 526Q753 513 743 499Q727 481 683 453Q665 444 579 464Q569 464 436 491Q379 503 334 511C319 514 356 545 371 540Q455 516 599 495Q633 491 644 501Q657 517 654 533Q627 663 616 682Q612 692 601 697C594 701 589 714 594 721Z"/>
<path id="z23459d7" d="M382 642Q388 643 398 642Q497 626 569 618Q594 614 585 600Q575 584 547 579Q510 575 379 615C371 618 373 642 382 642Z"/>
<path id="z23459d8" d="M399 748Q405 748 412 747Q469 734 594 721C602 720 608 702 601 697Q594 691 584 685Q568 678 540 685Q461 706 397 717C387 719 389 748 399 748Z"/>
<path id="z23459d9" d="M512 871Q744 858 803 863Q890 869 896 865Q896 864 897 864Q906 851 893 837Q823 773 767 791Q653 809 480 825Q209 849 162 850Q156 850 150 850Q135 850 134 861Q133 874 152 890Q197 923 234 911Q348 883 512 871Z"/>
<defs>
	<clipPath id="z23459c1"><use xlink:href="#z23459d1"/></clipPath>
	<clipPath id="z23459c2"><use xlink:href="#z23459d2"/></clipPath>
	<clipPath id="z23459c3"><use xlink:href="#z23459d3"/></clipPath>
	<clipPath id="z23459c4"><use xlink:href="#z23459d4"/></clipPath>
	<clipPath id="z23459c5"><use xlink:href="#z23459d5"/></clipPath>
	<clipPath id="z23459c6"><use xlink:href="#z23459d6"/></clipPath>
	<clipPath id="z23459c7"><use xlink:href="#z23459d7"/></clipPath>
	<clipPath id="z23459c8"><use xlink:href="#z23459d8"/></clipPath>
	<clipPath id="z23459c9"><use xlink:href="#z23459d9"/></clipPath>
</defs>
<path style="--d:1s;" pathLength="3333" clip-path="url(#z23459c1)" d="M443 73L539 126L570 179"/>
<path style="--d:2s;" pathLength="3333" clip-path="url(#z23459c2)" d="M233 227L240 284L169 441"/>
<path style="--d:3s;" pathLength="3333" clip-path="url(#z23459c3)" d="M271 288L749 209L842 261L724 351"/>
<path style="--d:4s;" pathLength="3333" clip-path="url(#z23459c4)" d="M343 395L644 365"/>
<path style="--d:5s;" pathLength="3333" clip-path="url(#z23459c5)" d="M294 508L342 554L389 764"/>
<path style="--d:6s;" pathLength="3333" clip-path="url(#z23459c6)" d="M343 512L671 483L700 523L620 751"/>
<path style="--d:7s;" pathLength="3333" clip-path="url(#z23459c7)" d="M390 634L581 605"/>
<path style="--d:8s;" pathLength="3333" clip-path="url(#z23459c8)" d="M406 739L597 709"/>
<path style="--d:9s;" pathLength="3333" clip-path="url(#z23459c9)" d="M140 860L211 880L794 824L896 850"/>
</svg>