<!--
AnimCJK 2016-2017 Copyright Francois Mizessyn, https://github.com/parsimonhi/animCJK
Derived from:
    MakeMeAHanzi project - https://github.com/skishore/makemeahanzi
    Arphic PL KaitiM GB - https://apps.ubuntu.com/cat/applications/precise/fonts-arphic-gkai00mp/
    Arphic PL UKai - https://apps.ubuntu.com/cat/applications/fonts-arphic-ukai/
You can redistribute and/or modify this file under the terms of the Arphic Public License
as published by Arphic Technology Co., Ltd.
You should have received a copy of this license (the directory "APL") along with this file;
if not, see http://ftp.gnu.org/non-gnu/chinese-fonts-truetype/LICENSE.
-->
<svg id="z23528" class="acjk" version="1.1" viewBox="0 0 1024 1024" xmlns="http://www.w3.org/2000/svg" xmlns:xlink="http://www.w3.org/1999/xlink">
<style>
<![CDATA[
@keyframes z23528k {
	from {
		stroke:#c00;
		stroke-dashoffset:3334;
	}
	75% {
		stroke:#c00;
		stroke-dashoffset:0;
	}
	to {
		stroke:#000;
	}
}
#z23528 path[clip-path] {
	animation:z23528k 1s linear both;
	stroke-dasharray:3334;
	stroke-width:128;
	stroke-linecap:round;
	fill:none;
}
#z23528 path[clip-path="url(#z23528c1)"] {animation-delay:1s;}
#z23528 path[clip-path="url(#z23528c2)"] {animation-delay:2s;}
#z23528 path[clip-path="url(#z23528c3)"] {animation-delay:3s;}
#z23528 path[clip-path="url(#z23528c4)"] {animation-delay:4s;}
#z23528 path[clip-path="url(#z23528c5)"] {animation-delay:5s;}
#z23528 path[clip-path="url(#z23528c6)"] {animation-delay:6s;}
#z23528 path[clip-path="url(#z23528c7)"] {animation-delay:7s;}
#z23528 path[clip-path="url(#z23528c8)"] {animation-delay:8s;}
#z23528 path[clip-path="url(#z23528c9)"] {animation-delay:9s;}
#z23528 path[clip-path="url(#z23528c10)"] {animation-delay:10s;}
#z23528 path[clip-path="url(#z23528c11)"] {animation-delay:11s;}
#z23528 path[clip-path="url(#z23528c12)"] {animation-delay:12s;}
#z23528 path[clip-path="url(#z23528c13)"] {animation-delay:13s;}
#z23528 path[clip-path="url(#z23528c14)"] {animation-delay:14s;}
#z23528 path {fill:#ccc;}
]]>
</style>
<path id="z23528d1" d="M471 80Q501 102 532 128Q545 138 559 137Q569 136 573 124Q577 111 566 83Q554 53 464 37Q449 34 444 37Q440 41 442 53Q446 63 471 80 Z"/>
<path id="z23528d2" d="M273 190Q263 171 254 164Q235 149 233 176Q239 200 222 226Q206 247 181 270Q171 282 174 302Q178 332 187 349Q202 376 222 349Q238 327 250 292Q272 225 277 221L273 190 Z"/>
<path id="z23528d3" d="M277 221Q301 233 331 224Q454 184 677 165Q711 161 723 164Q742 174 740 182Q740 185 713 251Q707 264 713 267Q720 271 735 260Q784 224 826 213Q860 201 859 193Q858 183 790 134Q769 118 681 133Q600 142 375 177Q323 184 273 190L277 221 Z"/>
<path id="z23528d4" d="M603 321Q613 318 626 317Q678 307 686 300Q693 294 690 286Q684 276 660 268Q635 262 613 270L558 285Q521 294 484 303Q462 306 443 310L394 316Q361 317 329 321Q298 325 319 340Q350 361 399 354L442 347Q497 337 557 328L603 321 Z"/>
<path id="z23528d5" d="M589 416Q631 409 670 406Q692 405 684 391Q675 378 652 371Q631 367 596 375L554 382Q496 392 442 402L403 408Q358 412 320 420Q304 423 322 438Q338 451 374 446Q390 443 406 442L443 436Q498 427 551 421L589 416 Z"/>
<path id="z23528d6" d="M443 310Q446 271 435 261Q416 245 392 237Q380 233 372 238Q365 242 371 256Q386 284 394 316L399 354Q400 375 403 408L406 442Q407 466 410 497L446 492Q445 462 443 436L442 402Q442 375 442 347L443 310 Z"/>
<path id="z23528d7" d="M581 472Q585 444 589 416L596 375Q599 347 603 321L613 270Q614 266 616 261Q620 248 624 238Q628 231 612 216Q585 200 566 194Q553 190 546 197Q539 203 545 215Q561 243 558 285L557 328Q556 353 554 382L551 421Q548 448 545 478L581 472 Z"/>
<path id="z23528d8" d="M618 508Q675 505 796 505Q815 505 819 497Q823 487 809 473Q757 434 692 452Q644 459 581 472L545 478Q517 481 487 486Q466 487 446 492L410 497Q308 507 196 523Q177 526 190 541Q203 554 220 559Q239 563 255 560Q300 547 349 539L386 532Q452 516 585 510L618 508 Z"/>
<path id="z23528d9" d="M349 539Q337 599 231 676Q228 677 227 679Q194 704 115 747Q108 748 115 754Q163 761 279 688Q282 685 285 684Q325 656 392 594Q401 587 406 583Q413 580 414 572Q414 563 406 551Q399 538 386 532L349 539 Z"/>
<path id="z23528d10" d="M585 510Q754 697 797 710Q857 719 952 699Q968 698 970 692Q971 686 958 681Q913 665 861 650Q756 614 618 508L585 510 Z"/>
<path id="z23528d11" d="M531 696Q547 692 666 679Q676 680 684 669Q685 659 664 648Q634 624 546 651Q539 652 531 655L487 664Q441 670 317 685Q289 688 310 705Q337 727 383 721Q429 712 488 703L531 696 Z"/>
<path id="z23528d12" d="M451 856Q415 852 381 844Q371 843 371 849Q372 855 382 861Q455 910 485 943Q498 956 510 945Q538 915 534 819Q533 777 531 696L531 655Q532 627 542 607Q549 591 535 579Q513 560 488 552Q472 546 466 553Q460 557 470 571Q486 602 487 664L488 703Q489 841 473 854Q464 861 451 856 Z"/>
<path id="z23528d13" d="M325 763Q298 797 265 827Q240 851 249 883Q252 899 272 893Q323 872 335 817Q347 790 346 768Q343 761 338 758Q331 757 325 763 Z"/>
<path id="z23528d14" d="M607 765Q650 808 702 870Q715 889 730 893Q737 894 745 886Q757 874 747 834Q740 797 674 765Q632 746 609 737Q602 731 599 743Q598 755 607 765 Z"/>
<defs>
	<clipPath id="z23528c1"><use xlink:href="#z23528d1"/></clipPath>
	<clipPath id="z23528c2"><use xlink:href="#z23528d2"/></clipPath>
	<clipPath id="z23528c3"><use xlink:href="#z23528d3"/></clipPath>
	<clipPath id="z23528c4"><use xlink:href="#z23528d4"/></clipPath>
	<clipPath id="z23528c5"><use xlink:href="#z23528d5"/></clipPath>
	<clipPath id="z23528c6"><use xlink:href="#z23528d6"/></clipPath>
	<clipPath id="z23528c7"><use xlink:href="#z23528d7"/></clipPath>
	<clipPath id="z23528c8"><use xlink:href="#z23528d8"/></clipPath>
	<clipPath id="z23528c9"><use xlink:href="#z23528d9"/></clipPath>
	<clipPath id="z23528c10"><use xlink:href="#z23528d10"/></clipPath>
	<clipPath id="z23528c11"><use xlink:href="#z23528d11"/></clipPath>
	<clipPath id="z23528c12"><use xlink:href="#z23528d12"/></clipPath>
	<clipPath id="z23528c13"><use xlink:href="#z23528d13"/></clipPath>
	<clipPath id="z23528c14"><use xlink:href="#z23528d14"/></clipPath>
</defs>
<path pathLength="3333" clip-path="url(#z23528c1)" d="M449 42L566 128"/>
<path pathLength="3333" clip-path="url(#z23528c2)" d="M244 163L254 208L209 295L206 358"/>
<path pathLength="3333" clip-path="url(#z23528c3)" d="M280 197L726 145L783 172L804 212L716 261"/>
<path pathLength="3333" clip-path="url(#z23528c4)" d="M320 331L687 286"/>
<path pathLength="3333" clip-path="url(#z23528c5)" d="M322 425L678 392"/>
<path pathLength="3333" clip-path="url(#z23528c6)" d="M377 246L418 299L428 493"/>
<path pathLength="3333" clip-path="url(#z23528c7)" d="M551 199L590 241L555 474"/>
<path pathLength="3333" clip-path="url(#z23528c8)" d="M192 529L248 538L712 476L815 485"/>
<path pathLength="3333" clip-path="url(#z23528c9)" d="M409 566L365 572L265 675L121 750"/>
<path pathLength="3333" clip-path="url(#z23528c10)" d="M594 512L811 673L960 689"/>
<path pathLength="3333" clip-path="url(#z23528c11)" d="M312 696L677 665"/>
<path pathLength="3333" clip-path="url(#z23528c12)" d="M473 558L513 601L498 885L476 903L380 849"/>
<path pathLength="3333" clip-path="url(#z23528c13)" d="M336 765L257 889"/>
<path pathLength="3333" clip-path="url(#z23528c14)" d="M606 744L699 816L737 888"/>
</svg>