<!--
AnimCJK 2016-2025 Copyright FM-SH - https://github.com/parsimonhi/animCJK
Derived from:
    MakeMeAHanzi project - https://github.com/skishore/makemeahanzi
    Arphic PL KaitiM GB font
    Arphic PL UKai font
You can redistribute and/or modify this file under the terms of the Arphic Public License
as published by Arphic Technology Co., Ltd.
You should have received a copy of this license along with this file.
If not, see https://ftp.gnu.org/non-gnu/chinese-fonts-truetype/LICENSE.
-->
<svg id="z23528" class="acjk" viewBox="0 0 1024 1024" xmlns="http://www.w3.org/2000/svg">
<style>
<![CDATA[
@keyframes zk {
	to {
		stroke-dashoffset:0;
	}
}
svg.acjk path[clip-path] {
	--t:0.8s;
	animation:zk var(--t) linear forwards var(--d);
	stroke-dasharray:3337;
	stroke-dashoffset:3339;
	stroke-width:128;
	stroke-linecap:round;
	fill:none;
	stroke:#000;
}
svg.acjk path[id] {fill:#ccc;}
]]>
</style>
<path id="z23528d1" d="M471 80C491 94 511 110 532 128C540 134 549 137 559 137C565 136 570 132 573 124C575 115 573 101 566 83C558 62 523 47 464 37C453 35 447 34 444 37C441 39 439 45 442 53C443 59 454 68 471 80Z"/>
<path id="z23528d2" d="M273 190C266 177 259 168 254 164C241 154 231 158 233 176C234 192 233 209 222 226C211 240 197 253 181 270C173 277 172 288 174 302C176 321 180 337 187 349C196 367 208 367 222 349C232 334 242 315 250 292C264 247 273 223 277 221C284 213 278 199 273 190Z"/>
<path id="z23528d3" d="M277 221C293 229 311 230 331 224C413 197 528 179 677 165C689 163 740 158 740 182C739 194 730 206 713 251C702 276 713 274 735 260C768 237 798 221 826 213C849 206 859 198 859 193C858 186 835 166 790 134C775 123 739 124 681 133C522 154 417 172 273 190C263 192 267 217 277 221Z"/>
<path id="z23528d4" d="M603 321C629 316 669 314 686 300C703 284 686 274 660 268C643 263 628 265 613 270C576 280 576 280 558 285C520 295 479 305 443 310C410 314 410 314 394 316C372 318 350 318 329 321C308 323 304 330 319 340C339 354 366 359 399 354C428 349 428 349 442 347C478 341 517 334 557 328C588 323 588 323 603 321Z"/>
<path id="z23528d5" d="M589 416C617 412 644 409 670 406C707 400 682 378 652 371C638 367 619 371 596 375C568 380 568 380 554 382C515 388 478 396 442 402C416 406 416 406 403 408C373 412 345 414 320 420C309 422 308 429 322 438C350 455 376 446 406 442C431 438 431 438 443 436C479 430 515 425 551 421C576 418 576 418 589 416Z"/>
<path id="z23528d6" d="M443 310C443 283 442 267 435 261C422 250 408 241 392 237C373 231 363 240 371 256C380 275 391 294 394 316C397 341 397 341 399 354C400 367 401 385 403 408C405 431 405 431 406 442C407 457 408 476 410 497C410 509 446 504 446 492C445 472 443 453 443 436C442 413 442 413 442 402C441 383 441 365 442 347C443 322 443 322 443 310Z"/>
<path id="z23528d7" d="M581 472C581 472 585 434 589 416C594 389 594 389 596 375C599 356 599 338 603 321C610 287 610 287 613 270C615 259 620 247 624 238C626 233 623 224 612 216C595 203 578 197 566 194C547 189 537 200 545 215C555 233 558 256 558 285C557 314 557 314 557 328C556 344 555 362 554 382C552 408 552 408 551 421C549 439 547 458 545 478C543 490 579 484 581 472Z"/>
<path id="z23528d8" d="M618 508C655 505 715 504 796 505C823 505 832 491 809 473C774 446 735 442 692 452C660 458 623 464 581 472C557 476 557 476 545 478C510 483 477 487 446 492C422 495 422 495 410 497C342 506 270 512 196 523C183 524 180 531 190 541C198 549 208 556 220 559C232 562 244 562 255 560C285 552 316 545 349 539C374 534 374 534 386 532C430 523 496 515 585 510C607 509 607 509 618 508Z"/>
<path id="z23528d9" d="M349 539C303 639 219 691 130 738C109 749 109 758 132 754C239 732 316 663 392 594C399 587 414 580 414 572C413 555 400 538 386 532C375 526 354 527 349 539Z"/>
<path id="z23528d10" d="M585 510Q754 697 797 710Q857 719 952 699Q968 698 970 692Q971 686 958 681Q913 665 861 650Q756 614 618 508C609 501 578 501 585 510Z"/>
<path id="z23528d11" d="M531 696C560 691 603 685 666 679C694 676 688 658 664 648C614 627 599 640 531 655C502 661 502 661 487 664C456 670 399 675 317 685C298 687 294 695 310 705C364 740 407 716 488 703C517 698 517 698 531 696Z"/>
<path id="z23528d12" d="M451 856C427 851 404 846 381 844C362 841 367 851 382 861C431 892 464 921 485 943C493 951 502 952 510 945C529 925 536 883 534 819C532 791 531 750 531 696C531 669 531 669 531 655C531 636 535 620 542 607C546 596 544 587 535 579C520 566 504 557 488 552C465 544 459 554 470 571C481 590 485 622 487 664C488 690 488 690 488 703C490 794 483 845 473 854C467 858 460 857 451 856Z"/>
<path id="z23528d13" d="M325 763C306 785 286 806 265 827C248 842 243 861 249 883C251 893 258 897 272 893C306 879 324 853 335 817C340 798 348 782 346 768C345 762 341 759 338 758C333 756 328 758 325 763Z"/>
<path id="z23528d14" d="M607 765C635 793 668 827 702 870C711 881 719 890 730 893C734 894 739 891 745 886C753 878 752 860 747 834C741 809 718 785 674 765C646 751 623 744 609 737C603 734 600 734 599 743C597 750 600 758 607 765Z"/>
<defs>
	<clipPath id="z23528c1"><use href="#z23528d1"/></clipPath>
	<clipPath id="z23528c2"><use href="#z23528d2"/></clipPath>
	<clipPath id="z23528c3"><use href="#z23528d3"/></clipPath>
	<clipPath id="z23528c4"><use href="#z23528d4"/></clipPath>
	<clipPath id="z23528c5"><use href="#z23528d5"/></clipPath>
	<clipPath id="z23528c6"><use href="#z23528d6"/></clipPath>
	<clipPath id="z23528c7"><use href="#z23528d7"/></clipPath>
	<clipPath id="z23528c8"><use href="#z23528d8"/></clipPath>
	<clipPath id="z23528c9"><use href="#z23528d9"/></clipPath>
	<clipPath id="z23528c10"><use href="#z23528d10"/></clipPath>
	<clipPath id="z23528c11"><use href="#z23528d11"/></clipPath>
	<clipPath id="z23528c12"><use href="#z23528d12"/></clipPath>
	<clipPath id="z23528c13"><use href="#z23528d13"/></clipPath>
	<clipPath id="z23528c14"><use href="#z23528d14"/></clipPath>
</defs>
<path style="--d:1s;" pathLength="3333" clip-path="url(#z23528c1)" d="M447 47L566 128"/>
<path style="--d:2s;" pathLength="3333" clip-path="url(#z23528c2)" d="M242 168L254 214L199 355"/>
<path style="--d:3s;" pathLength="3333" clip-path="url(#z23528c3)" d="M271 199L734 146L767 156L804 198L715 262"/>
<path style="--d:4s;" pathLength="3333" clip-path="url(#z23528c4)" d="M318 329L396 335L686 288"/>
<path style="--d:5s;" pathLength="3333" clip-path="url(#z23528c5)" d="M321 426L679 393"/>
<path style="--d:6s;" pathLength="3333" clip-path="url(#z23528c6)" d="M374 241L415 284L429 501"/>
<path style="--d:7s;" pathLength="3333" clip-path="url(#z23528c7)" d="M549 200L590 243L560 481"/>
<path style="--d:8s;" pathLength="3333" clip-path="url(#z23528c8)" d="M192 530L252 538L713 476L817 487"/>
<path style="--d:9s;" pathLength="3333" clip-path="url(#z23528c9)" d="M359 536L371 575L305 642L120 748"/>
<path style="--d:10s;" pathLength="3333" clip-path="url(#z23528c10)" d="M596 513L807 671L964 689"/>
<path style="--d:11s;" pathLength="3333" clip-path="url(#z23528c11)" d="M306 692L373 701L678 664"/>
<path style="--d:12s;" pathLength="3333" clip-path="url(#z23528c12)" d="M474 559L512 602L499 880L482 902L377 849"/>
<path style="--d:13s;" pathLength="3333" clip-path="url(#z23528c13)" d="M335 764L261 890"/>
<path style="--d:14s;" pathLength="3333" clip-path="url(#z23528c14)" d="M605 741L703 821L738 886"/>
</svg>