<!--
AnimCJK 2016-2017 Copyright Francois Mizessyn, http://gooo.free.fr/animCJK/
Derived from:
    MakeMeAHanzi project - https://github.com/skishore/makemeahanzi
    Arphic PL KaitiM GB - https://apps.ubuntu.com/cat/applications/precise/fonts-arphic-gkai00mp/
    Arphic PL UKai - https://apps.ubuntu.com/cat/applications/fonts-arphic-ukai/
You can redistribute and/or modify this file under the terms of the Arphic Public License
as published by Arphic Technology Co., Ltd.
You should have received a copy of this license (the directory "APL") along with this file;
if not, see http://ftp.gnu.org/non-gnu/chinese-fonts-truetype/LICENSE.
-->
<svg id="z23547" class="acjk" version="1.1" viewBox="0 0 1024 1024" xmlns="http://www.w3.org/2000/svg" xmlns:xlink="http://www.w3.org/1999/xlink">
<style>
<![CDATA[
	@keyframes z23547k {
		from {
			stroke:#c00;
			stroke-dashoffset:3000;
		}
		75% {
			stroke:#c00;
			stroke-dashoffset:0;
		}
		to {
			stroke:#000;
		}
	}
	#z23547 path[clip-path] {
		animation:z23547k 1s linear both;
		stroke-dasharray:3000;
		stroke-width:128;
		stroke-linecap:round;
		fill:none;
	}
	#z23547 path[clip-path="url(#z23547c1)"] {animation-delay:1s;}
	#z23547 path[clip-path="url(#z23547c2)"] {animation-delay:2s;}
	#z23547 path[clip-path="url(#z23547c3)"] {animation-delay:3s;}
	#z23547 path[clip-path="url(#z23547c4)"] {animation-delay:4s;}
	#z23547 path[clip-path="url(#z23547c5)"] {animation-delay:5s;}
	#z23547 path[clip-path="url(#z23547c6)"] {animation-delay:6s;}
	#z23547 path {fill:#ccc;}
]]>
</style>
<g transform="scale(1,-1) translate(0,-900)">
	<path id="z23547d1" d="M663 538Q699 679 744 717Q760 736 746 755Q665 815 612 785Q515 752 384 738Q366 737 368 727Q371 718 390 711Q415 699 453 711Q535 726 616 741Q637 745 645 737Q658 724 654 695Q638 613 617 548L663 538Z"/>
	<path id="z23547d2" d="M346 615Q327 614 339 596Q346 587 356 584Q366 583 379 585Q449 603 601 621Q611 622 612 632Q613 639 581 659Q565 666 535 659Q430 628 346 615Z"/>
	<path id="z23547d3" d="M617 548Q607 547 600 545Q464 509 352 494Q330 491 344 472Q351 462 363 459Q375 455 390 459Q480 481 674 501Q687 502 688 513Q688 520 663 538L617 548Z"/>
	<path id="z23547d4" d="M685 319Q766 322 865 319Q899 318 930 317Q952 317 958 326Q965 339 946 356Q886 404 817 389Q759 380 686 368L630 360Q581 356 524 348Q343 329 131 309Q107 308 124 287Q158 253 203 262Q393 310 631 318L685 319Z"/>
	<path id="z23547d5" d="M589 46Q535 59 483 72Q470 73 471 66Q472 59 484 52Q587 -17 627 -61Q643 -79 659 -63Q695 -26 691 47Q688 84 685 319L686 368Q689 390 696 409Q706 428 688 442Q661 464 630 475Q611 482 602 474Q596 467 607 451Q629 414 630 360L631 318Q637 68 615 49Q605 42 589 46Z"/>
	<path id="z23547d6" d="M354 205Q379 181 407 152Q420 139 436 139Q446 139 453 153Q457 168 450 197Q441 227 350 254Q334 258 328 255Q324 251 324 238Q327 228 354 205Z"/>
	<defs>
		<clipPath id="z23547c1"><use xlink:href="#z23547d1"/></clipPath>
		<clipPath id="z23547c2"><use xlink:href="#z23547d2"/></clipPath>
		<clipPath id="z23547c3"><use xlink:href="#z23547d3"/></clipPath>
		<clipPath id="z23547c4"><use xlink:href="#z23547d4"/></clipPath>
		<clipPath id="z23547c5"><use xlink:href="#z23547d5"/></clipPath>
		<clipPath id="z23547c6"><use xlink:href="#z23547d6"/></clipPath>
	</defs>
	<path pathLength="2999" clip-path="url(#z23547c1)" d="M377 730L639 769L675 758L703 723L636 544"/>
	<path pathLength="2999" clip-path="url(#z23547c2)" d="M341 605L606 633"/>
	<path pathLength="2999" clip-path="url(#z23547c3)" d="M349 484L682 514"/>
	<path pathLength="2999" clip-path="url(#z23547c4)" d="M123 299L182 287L843 357L956 337"/>
	<path pathLength="2999" clip-path="url(#z23547c5)" d="M607 467L662 410L649 19L621 -17L480 67"/>
	<path pathLength="2999" clip-path="url(#z23547c6)" d="M331 247L415 191L443 147"/>
</g>
</svg>