<!--
AnimCJK 2016-2017 Copyright Francois Mizessyn, http://gooo.free.fr/animCJK/
Derived from:
    MakeMeAHanzi project - https://github.com/skishore/makemeahanzi
    Arphic PL KaitiM GB - https://apps.ubuntu.com/cat/applications/precise/fonts-arphic-gkai00mp/
    Arphic PL UKai - https://apps.ubuntu.com/cat/applications/fonts-arphic-ukai/
You can redistribute and/or modify this file under the terms of the Arphic Public License
as published by Arphic Technology Co., Ltd.
You should have received a copy of this license (the directory "APL") along with this file;
if not, see http://ftp.gnu.org/non-gnu/chinese-fonts-truetype/LICENSE.
-->
<svg id="z23545" class="acjk" version="1.1" viewBox="0 0 1024 1024" xmlns="http://www.w3.org/2000/svg" xmlns:xlink="http://www.w3.org/1999/xlink">
<style>
<![CDATA[
	@keyframes z23545k {
		from {
			stroke:#c00;
			stroke-dashoffset:3000;
		}
		75% {
			stroke:#c00;
			stroke-dashoffset:0;
		}
		to {
			stroke:#000;
		}
	}
	#z23545 path[clip-path] {
		animation:z23545k 1s linear both;
		stroke-dasharray:3000;
		stroke-width:128;
		stroke-linecap:round;
		fill:none;
	}
	#z23545 path[clip-path="url(#z23545c1)"] {animation-delay:1s;}
	#z23545 path[clip-path="url(#z23545c2)"] {animation-delay:2s;}
	#z23545 path[clip-path="url(#z23545c3)"] {animation-delay:3s;}
	#z23545 path[clip-path="url(#z23545c4)"] {animation-delay:4s;}
	#z23545 path[clip-path="url(#z23545c5)"] {animation-delay:5s;}
	#z23545 path {fill:#ccc;}
]]>
</style>
<g transform="scale(1,-1) translate(0,-900)">
	<path id="z23545d1" d="M367 367Q404 431 428 515Q438 558 468 590Q487 609 468 622Q444 635 414 642Q386 651 360 634Q335 624 292 609Q244 597 194 590Q175 590 170 584Q166 571 192 555Q222 536 291 560Q349 588 356 588Q375 588 375 569Q356 463 325 400L301 356Q279 323 253 293Q199 235 94 173Q79 166 88 160Q95 157 117 166Q205 199 261 237Q298 264 335 316L367 367Z"/>
	<path id="z23545d2" d="M335 316Q372 276 412 227Q425 208 438 203Q445 202 453 210Q465 220 456 260Q450 299 367 367L325 400Q246 461 201 491Q194 495 190 485Q189 473 198 464Q247 415 301 356L335 316Z"/>
	<path id="z23545d3" d="M771 530Q786 536 914 549Q926 548 936 562Q937 575 912 587Q870 612 786 586Q779 585 772 582L720 570Q657 558 481 537Q448 533 474 513Q513 483 543 490Q622 508 720 522L771 530Z"/>
	<path id="z23545d4" d="M720 522Q721 383 724 145Q724 123 711 113Q702 109 615 121Q579 131 583 120Q586 113 607 100Q683 51 705 21Q730 -13 748 -13Q763 -13 776 23Q792 71 787 146Q771 338 771 530L772 582Q772 688 789 747Q805 778 748 802Q714 820 693 813Q674 806 692 782Q714 754 716 719Q717 703 720 570L720 522Z"/>
	<path id="z23545d5" d="M510 363Q540 332 571 296Q584 281 600 281Q610 280 617 293Q623 306 617 338Q610 377 510 412Q495 416 488 415Q482 411 483 399Q486 387 510 363Z"/>
	<defs>
		<clipPath id="z23545c1"><use xlink:href="#z23545d1"/></clipPath>
		<clipPath id="z23545c2"><use xlink:href="#z23545d2"/></clipPath>
		<clipPath id="z23545c3"><use xlink:href="#z23545d3"/></clipPath>
		<clipPath id="z23545c4"><use xlink:href="#z23545d4"/></clipPath>
		<clipPath id="z23545c5"><use xlink:href="#z23545d5"/></clipPath>
	</defs>
	<path pathLength="2999" clip-path="url(#z23545c1)" d="M178 580L259 576L380 615L425 589L361 413L297 308L234 245L95 166"/>
	<path pathLength="2999" clip-path="url(#z23545c2)" d="M197 488L395 298L447 209"/>
	<path pathLength="2999" clip-path="url(#z23545c3)" d="M471 528L530 516L929 570"/>
	<path pathLength="2999" clip-path="url(#z23545c4)" d="M690 807L752 750L753 105L729 41L592 119"/>
	<path pathLength="2999" clip-path="url(#z23545c5)" d="M490 410L586 330L601 286"/>
</g>
</svg>