<!--
AnimCJK 2016-2018 Copyright Francois Mizessyn - https://github.com/parsimonhi/animCJK
Derived from:
    MakeMeAHanzi project - https://github.com/skishore/makemeahanzi
    Arphic PL KaitiM GB - https://apps.ubuntu.com/cat/applications/precise/fonts-arphic-gkai00mp/
    Arphic PL UKai - https://apps.ubuntu.com/cat/applications/fonts-arphic-ukai/
You can redistribute and/or modify this file under the terms of the Arphic Public License
as published by Arphic Technology Co., Ltd.
You should have received a copy of this license (the directory "APL") along with this file;
if not, see http://ftp.gnu.org/non-gnu/chinese-fonts-truetype/LICENSE.
-->
<svg id="z23573" class="acjk" version="1.1" viewBox="0 0 1024 1024" xmlns="http://www.w3.org/2000/svg" xmlns:xlink="http://www.w3.org/1999/xlink">
<style>
<![CDATA[
@keyframes z23573k {
	from {
		stroke:#c00;
		stroke-dashoffset:3334;
	}
	75% {
		stroke:#c00;
		stroke-dashoffset:0;
	}
	to {
		stroke:#000;
	}
}
#z23573 path[clip-path] {
	animation:z23573k 1s linear both;
	stroke-dasharray:3334;
	stroke-width:128;
	stroke-linecap:round;
	fill:none;
}
#z23573 path[clip-path="url(#z23573c1)"] {animation-delay:1s;}
#z23573 path[clip-path="url(#z23573c2)"] {animation-delay:2s;}
#z23573 path[clip-path="url(#z23573c3)"] {animation-delay:3s;}
#z23573 path[clip-path="url(#z23573c4)"] {animation-delay:4s;}
#z23573 path[clip-path="url(#z23573c5)"] {animation-delay:5s;}
#z23573 path {fill:#ccc;}
]]>
</style>
<path id="z23573d1" d="M417 188Q513 164 586 155Q607 151 613 158Q617 167 610 183Q585 253 558 281Q548 288 551 302Q555 324 566 331Q578 337 590 328Q645 297 700 293Q727 289 735 301Q744 314 742 338Q739 402 718 454Q712 472 697 479Q684 483 607 461Q579 451 603 477Q642 520 669 557Q685 576 704 566Q753 539 777 467Q804 346 821 322Q837 306 825 293Q812 281 772 260Q748 253 728 260Q655 278 636 274Q617 273 629 249Q663 185 692 164Q719 151 712 137Q708 125 656 102Q638 93 621 102Q543 138 273 168Q263 167 261 173Q258 180 285 200Q310 219 340 206Q362 200 385 195L417 188 Z"/>
<path id="z23573d2" d="M385 195L386 197Q390 281 295 420Q294 421 292 424Q255 470 186 530Q179 534 176 540Q170 549 180 550Q222 553 304 477Q358 422 436 281Q440 271 447 263Q460 253 457 239Q448 218 425 195Q421 191 417 188L385 195 Z"/>
<path id="z23573d3" d="M453 830Q413 823 375 816Q362 815 363 822Q364 829 376 836Q460 897 492 937Q508 955 523 939Q560 900 556 829Q553 801 548 620Q547 569 560 535Q570 516 552 502Q525 480 494 469Q475 462 466 470Q460 477 471 493Q495 533 493 578Q499 720 493 795Q492 819 479 827Q469 834 453 830 Z"/>
<path id="z23573d4" d="M296 617Q257 681 208 738Q181 769 194 808Q198 829 224 819Q249 806 271 774Q304 728 314 683Q324 649 322 621Q318 611 312 609Q302 609 296 617 Z"/>
<path id="z23573d5" d="M665 634Q726 692 798 778Q814 800 831 806Q841 807 849 797Q864 784 851 735Q839 674 668 600Q658 594 655 608Q654 623 665 634 Z"/>
<defs>
	<clipPath id="z23573c1"><use xlink:href="#z23573d1"/></clipPath>
	<clipPath id="z23573c2"><use xlink:href="#z23573d2"/></clipPath>
	<clipPath id="z23573c3"><use xlink:href="#z23573d3"/></clipPath>
	<clipPath id="z23573c4"><use xlink:href="#z23573d4"/></clipPath>
	<clipPath id="z23573c5"><use xlink:href="#z23573d5"/></clipPath>
</defs>
<path pathLength="3333" clip-path="url(#z23573c1)" d="M269 175L322 186L619 127L660 147L593 296L744 277L786 316L720 506L684 522L602 464"/>
<path pathLength="3333" clip-path="url(#z23573c2)" d="M391 200L418 248L341 393L182 544"/>
<path pathLength="3333" clip-path="url(#z23573c3)" d="M470 475L526 530L517 853L492 895L372 822"/>
<path pathLength="3333" clip-path="url(#z23573c4)" d="M309 614L200 814"/>
<path pathLength="3333" clip-path="url(#z23573c5)" d="M662 606L793 714L843 800"/>
</svg>