<!--
AnimCJK 2016-2017 Copyright Francois Mizessyn, http://gooo.free.fr/animCJK/
Derived from:
    MakeMeAHanzi project - https://github.com/skishore/makemeahanzi
    Arphic PL KaitiM GB - https://apps.ubuntu.com/cat/applications/precise/fonts-arphic-gkai00mp/
    Arphic PL UKai - https://apps.ubuntu.com/cat/applications/fonts-arphic-ukai/
You can redistribute and/or modify this file under the terms of the Arphic Public License
as published by Arphic Technology Co., Ltd.
You should have received a copy of this license (the directory "APL") along with this file;
if not, see http://ftp.gnu.org/non-gnu/chinese-fonts-truetype/LICENSE.
-->
<svg id="z23630" class="acjk" version="1.1" viewBox="0 0 1024 1024" xmlns="http://www.w3.org/2000/svg" xmlns:xlink="http://www.w3.org/1999/xlink">
<style>
<![CDATA[
	@keyframes z23630k {
		from {
			stroke:#c00;
			stroke-dashoffset:3000;
		}
		75% {
			stroke:#c00;
			stroke-dashoffset:0;
		}
		to {
			stroke:#000;
		}
	}
	#z23630 path[clip-path] {
		animation:z23630k 1s linear both;
		stroke-dasharray:3000;
		stroke-width:128;
		stroke-linecap:round;
		fill:none;
	}
	#z23630 path[clip-path="url(#z23630c1)"] {animation-delay:1s;}
	#z23630 path[clip-path="url(#z23630c2)"] {animation-delay:2s;}
	#z23630 path[clip-path="url(#z23630c3)"] {animation-delay:3s;}
	#z23630 path[clip-path="url(#z23630c4)"] {animation-delay:4s;}
	#z23630 path[clip-path="url(#z23630c5)"] {animation-delay:5s;}
	#z23630 path[clip-path="url(#z23630c6)"] {animation-delay:6s;}
	#z23630 path[clip-path="url(#z23630c7)"] {animation-delay:7s;}
	#z23630 path[clip-path="url(#z23630c8)"] {animation-delay:8s;}
	#z23630 path[clip-path="url(#z23630c9)"] {animation-delay:9s;}
	#z23630 path {fill:#ccc;}
]]>
</style>
<g transform="scale(1,-1) translate(0,-900)">
	<path id="z23630d1" d="M687 663Q711 718 744 738Q762 756 748 774Q732 789 681 817Q663 824 641 818Q539 781 367 762L382 729Q391 730 402 734Q510 752 613 769Q641 775 651 763Q658 756 655 741Q646 702 635 670L687 663Z"/>
	<path id="z23630d2" d="M351 595Q370 589 383 591Q483 613 699 630Q709 631 711 640Q711 647 687 663L635 670Q481 636 356 623L351 595Z"/>
	<path id="z23630d3" d="M367 762Q354 774 334 784Q315 797 301 793Q288 786 294 772Q312 739 306 691Q276 489 238 380Q229 359 220 337Q169 225 77 107Q71 101 69 95Q65 83 77 85Q110 91 200 206Q219 234 239 266Q312 401 351 595L356 623Q360 654 367 681Q368 690 382 729L367 762Z"/>
	<path id="z23630d4" d="M382 464Q412 418 438 406Q451 402 460 413Q466 423 465 438Q461 460 447 472Q438 479 396 496Q383 502 374 499Q368 498 369 487Q370 477 382 464Z"/>
	<path id="z23630d5" d="M683 524Q662 493 620 444Q614 438 619 431Q626 430 633 433Q712 484 751 502Q767 506 764 517Q760 532 742 550Q724 568 704 570Q689 570 690 552Q691 539 683 524Z"/>
	<path id="z23630d6" d="M572 334Q656 347 781 350Q838 350 844 359Q848 371 833 383Q782 416 749 408Q682 392 567 371L523 363Q421 347 307 329Q288 326 302 311Q315 298 333 294Q352 290 367 294Q424 312 491 322L572 334Z"/>
	<path id="z23630d7" d="M567 371Q567 467 582 516Q589 529 587 541Q581 548 534 578Q515 591 497 579Q493 575 498 561Q520 528 521 481Q521 423 523 363L521 278Q521 140 504 76Q495 46 516 -9Q522 -24 529 -27Q533 -33 540 -26Q547 -22 556 -4Q563 17 563 43Q562 73 565 302L567 371Z"/>
	<path id="z23630d8" d="M491 322Q422 196 255 74Q243 64 252 61Q259 57 272 61Q380 103 510 264Q516 273 521 278L522 326L491 322Z"/>
	<path id="z23630d9" d="M565 302Q641 199 740 87Q759 68 788 70Q890 74 921 82Q931 83 932 89Q932 93 919 101Q775 149 707 210Q643 264 572 334L565 333L565 302Z"/>
	<defs>
		<clipPath id="z23630c1"><use xlink:href="#z23630d1"/></clipPath>
		<clipPath id="z23630c2"><use xlink:href="#z23630d2"/></clipPath>
		<clipPath id="z23630c3"><use xlink:href="#z23630d3"/></clipPath>
		<clipPath id="z23630c4"><use xlink:href="#z23630d4"/></clipPath>
		<clipPath id="z23630c5"><use xlink:href="#z23630d5"/></clipPath>
		<clipPath id="z23630c6"><use xlink:href="#z23630d6"/></clipPath>
		<clipPath id="z23630c7"><use xlink:href="#z23630d7"/></clipPath>
		<clipPath id="z23630c8"><use xlink:href="#z23630d8"/></clipPath>
		<clipPath id="z23630c9"><use xlink:href="#z23630d9"/></clipPath>
	</defs>
	<path pathLength="2999" clip-path="url(#z23630c1)" d="M375 759L659 794L704 752L665 667"/>
	<path pathLength="2999" clip-path="url(#z23630c2)" d="M360 600L706 642"/>
	<path pathLength="2999" clip-path="url(#z23630c3)" d="M298 790L344 721L275 412L197 242L74 91"/>
	<path pathLength="2999" clip-path="url(#z23630c4)" d="M375 493L454 411"/>
	<path pathLength="2999" clip-path="url(#z23630c5)" d="M700 564L722 517L624 437"/>
	<path pathLength="2999" clip-path="url(#z23630c6)" d="M306 317L749 379L839 366"/>
	<path pathLength="2999" clip-path="url(#z23630c7)" d="M502 572L552 525L531 -23"/>
	<path pathLength="2999" clip-path="url(#z23630c8)" d="M515 319L402 174L257 68"/>
	<path pathLength="2999" clip-path="url(#z23630c9)" d="M573 320L773 115L923 92"/>
</g>
</svg>