<!--
AnimCJK 2016-2019 Copyright Francois Mizessyn - https://github.com/parsimonhi/animCJK
Derived from:
    MakeMeAHanzi project - https://github.com/skishore/makemeahanzi
    Arphic PL KaitiM GB font
    Arphic PL UKai font
You can redistribute and/or modify this file under the terms of the Arphic Public License
as published by Arphic Technology Co., Ltd.
You should have received a copy of this license along with this file.
If not, see http://ftp.gnu.org/non-gnu/chinese-fonts-truetype/LICENSE.
-->
<svg id="z23688" class="acjk" version="1.1" viewBox="0 0 1024 1024" xmlns="http://www.w3.org/2000/svg" xmlns:xlink="http://www.w3.org/1999/xlink">
<style>
<![CDATA[
@keyframes zk {
	to {
		stroke-dashoffset:0;
	}
}
svg.acjk path[clip-path] {
	--t:0.8s;
	animation:zk var(--t) linear forwards var(--d);
	stroke-dasharray:3337;
	stroke-dashoffset:3339;
	stroke-width:128;
	stroke-linecap:round;
	fill:none;
	stroke:#000;
}
svg.acjk path[id] {fill:#ccc;}
]]>
</style>
<path id="z23688d1" d="M278 551Q296 230 311 188Q314 176 294 160Q258 141 234 137Q218 133 210 142Q203 149 211 165Q235 199 235 223Q242 380 235 563C235 578 278 566 278 551Z"/>
<path id="z23688d2" d="M362 533Q317 540 278 551C249 559 249 559 235 563Q193 573 160 587Q142 591 146 571Q156 459 147 445Q111 409 87 413Q77 417 85 436Q109 487 102 538Q98 587 78 608Q62 626 69 639Q81 654 98 663Q111 670 121 661Q145 630 289 586Q349 568 364 572C377 575 375 530 362 533Z"/>
<path id="z23688d3" d="M364 572Q368 591 376 604Q383 620 395 609Q417 585 421 507Q434 419 442 405Q449 392 439 378Q421 365 391 347Q379 340 368 346Q361 350 363 362Q379 383 376 473Q373 510 363 532Q362 532 362 533C355 544 361 559 364 572Z"/>
<path id="z23688d4" d="M715 213Q847 177 848 177Q857 168 852 160Q845 148 814 142Q787 138 692 169Q613 187 565 194Q528 201 555 218Q609 242 670 222Q671 222 673 222C701 216 701 216 715 213Z"/>
<path id="z23688d5" d="M745 436Q799 427 900 427Q922 427 929 415Q935 405 915 395Q854 356 804 380Q758 389 746 395C709 402 709 402 691 406Q622 419 558 440Q530 450 537 425Q550 364 561 341Q571 331 565 321Q558 311 524 296Q508 289 497 294Q487 304 497 316Q521 370 484 441Q460 463 464 479Q467 489 484 502Q497 509 509 498Q569 465 673 448C721 440 721 440 745 436Z"/>
<path id="z23688d6" d="M692 518Q693 633 693 790Q693 824 682 837Q670 844 641 837Q616 830 584 824Q572 821 573 828Q574 835 585 845Q654 894 697 935Q709 944 722 928Q761 871 755 796Q743 565 745 436C746 409 746 409 746 395Q746 335 752 277Q758 250 752 240Q743 228 715 213C703 206 668 209 673 222Q689 273 690 294Q690 349 691 406C692 481 692 481 692 518Z"/>
<path id="z23688d7" d="M673 448Q591 607 381 761Q359 776 336 793Q323 805 332 807Q356 819 454 757Q538 709 692 518C730 467 701 391 673 448Z"/>
<defs>
	<clipPath id="z23688c1"><use xlink:href="#z23688d1"/></clipPath>
	<clipPath id="z23688c2"><use xlink:href="#z23688d2"/></clipPath>
	<clipPath id="z23688c3"><use xlink:href="#z23688d3"/></clipPath>
	<clipPath id="z23688c4"><use xlink:href="#z23688d4"/></clipPath>
	<clipPath id="z23688c5"><use xlink:href="#z23688d5"/></clipPath>
	<clipPath id="z23688c6"><use xlink:href="#z23688d6"/></clipPath>
	<clipPath id="z23688c7"><use xlink:href="#z23688d7"/></clipPath>
</defs>
<path style="--d:1s;" pathLength="3333" clip-path="url(#z23688c1)" d="M214 147L271 193L244 556"/>
<path style="--d:2s;" pathLength="3333" clip-path="url(#z23688c2)" d="M90 419L124 466L106 608L121 622L363 556"/>
<path style="--d:3s;" pathLength="3333" clip-path="url(#z23688c3)" d="M370 350L409 399L386 607"/>
<path style="--d:4s;" pathLength="3333" clip-path="url(#z23688c4)" d="M552 205L847 164"/>
<path style="--d:5s;" pathLength="3333" clip-path="url(#z23688c5)" d="M500 301L535 333L503 454L517 473L815 402L925 405"/>
<path style="--d:6s;" pathLength="3333" clip-path="url(#z23688c6)" d="M680 226L721 269L723 825L686 889L579 830"/>
<path style="--d:7s;" pathLength="3333" clip-path="url(#z23688c7)" d="M686 453L661 517L531 666L334 800"/>
</svg>