<!--
AnimCJK 2016-2019 Copyright Francois Mizessyn - https://github.com/parsimonhi/animCJK
Derived from:
    MakeMeAHanzi project - https://github.com/skishore/makemeahanzi
    Arphic PL KaitiM GB font
    Arphic PL UKai font
You can redistribute and/or modify this file under the terms of the Arphic Public License
as published by Arphic Technology Co., Ltd.
You should have received a copy of this license along with this file.
If not, see http://ftp.gnu.org/non-gnu/chinese-fonts-truetype/LICENSE.
-->
<svg id="z23697" class="acjk" version="1.1" viewBox="0 0 1024 1024" xmlns="http://www.w3.org/2000/svg" xmlns:xlink="http://www.w3.org/1999/xlink">
<style>
<![CDATA[
@keyframes zk {
	to {
		stroke-dashoffset:0;
	}
}
svg.acjk path[clip-path] {
	--t:0.8s;
	animation:zk var(--t) linear forwards var(--d);
	stroke-dasharray:3337;
	stroke-dashoffset:3339;
	stroke-width:128;
	stroke-linecap:round;
	fill:none;
	stroke:#000;
}
svg.acjk path[id] {fill:#ccc;}
]]>
</style>
<path id="z23697d1" d="M520 243Q538 132 550 98Q553 88 535 74Q504 56 482 52Q467 48 460 56Q453 63 460 76Q478 98 481 249C481 262 517 256 520 243Z"/>
<path id="z23697d2" d="M481 287Q515 277 551 272Q636 257 657 263C669 265 675 226 663 226Q587 230 520 243C494 247 494 247 481 249Q414 259 355 276Q336 279 342 258Q346 233 353 208Q357 186 349 171Q336 153 313 139Q303 132 293 134Q283 137 289 156Q304 196 295 236Q288 273 271 289Q253 305 260 319Q270 334 286 345Q298 354 310 344Q334 320 457 292C473 289 473 289 481 287Z"/>
<path id="z23697d3" d="M657 263Q661 293 671 312Q680 328 692 316Q717 292 721 210Q739 152 742 149Q749 134 740 121Q721 105 690 87Q678 80 666 85Q659 89 661 102Q685 133 666 217Q665 221 663 226C658 238 655 251 657 263Z"/>
<path id="z23697d4" d="M526 372Q533 363 539 359Q548 355 547 343Q546 333 534 318Q515 294 481 287C473 286 457 284 457 292Q457 343 415 414Q322 543 174 653Q147 672 115 695Q105 699 116 704Q176 704 305 609Q393 537 508 394C520 379 520 379 526 372Z"/>
<path id="z23697d5" d="M508 394Q614 511 749 632Q771 651 805 646Q917 630 953 620Q963 616 964 611Q964 605 948 600Q762 552 707 511Q623 453 526 372C518 366 502 386 508 394Z"/>
<path id="z23697d6" d="M445 546Q506 610 530 612Q543 612 548 594Q549 581 539 563Q527 547 503 538Q464 522 448 520Q439 519 438 530Q437 537 445 546Z"/>
<path id="z23697d7" d="M313 684Q282 683 284 689Q277 705 302 718Q327 739 344 737Q363 738 392 723Q572 653 596 676Q596 677 598 679Q604 689 592 705Q585 717 567 755Q536 813 524 824Q494 851 505 896Q506 915 516 920Q525 924 537 915Q564 897 631 746Q650 704 677 687Q684 681 686 673Q687 660 655 640Q624 619 608 617Q601 618 593 623Q572 633 481 658Q375 679 313 684Z"/>
<defs>
	<clipPath id="z23697c1"><use xlink:href="#z23697d1"/></clipPath>
	<clipPath id="z23697c2"><use xlink:href="#z23697d2"/></clipPath>
	<clipPath id="z23697c3"><use xlink:href="#z23697d3"/></clipPath>
	<clipPath id="z23697c4"><use xlink:href="#z23697d4"/></clipPath>
	<clipPath id="z23697c5"><use xlink:href="#z23697d5"/></clipPath>
	<clipPath id="z23697c6"><use xlink:href="#z23697d6"/></clipPath>
	<clipPath id="z23697c7"><use xlink:href="#z23697d7"/></clipPath>
</defs>
<path style="--d:1s;" pathLength="3333" clip-path="url(#z23697c1)" d="M464 62L511 106L501 245"/>
<path style="--d:2s;" pathLength="3333" clip-path="url(#z23697c2)" d="M296 138L325 189L302 294L317 311L660 240"/>
<path style="--d:3s;" pathLength="3333" clip-path="url(#z23697c3)" d="M670 87L709 135L683 315"/>
<path style="--d:4s;" pathLength="3333" clip-path="url(#z23697c4)" d="M462 296L496 346L408 469L256 617L119 699"/>
<path style="--d:5s;" pathLength="3333" clip-path="url(#z23697c5)" d="M523 381L772 593L958 609"/>
<path style="--d:6s;" pathLength="3333" clip-path="url(#z23697c6)" d="M446 527L542 602"/>
<path style="--d:7s;" pathLength="3333" clip-path="url(#z23697c7)" d="M292 694L353 708L587 648L636 669L516 914"/>
</svg>