<!--
AnimCJK 2016-2019 Copyright Francois Mizessyn - https://github.com/parsimonhi/animCJK
Derived from:
    MakeMeAHanzi project - https://github.com/skishore/makemeahanzi
    Arphic PL KaitiM GB font
    Arphic PL UKai font
You can redistribute and/or modify this file under the terms of the Arphic Public License
as published by Arphic Technology Co., Ltd.
You should have received a copy of this license along with this file.
If not, see http://ftp.gnu.org/non-gnu/chinese-fonts-truetype/LICENSE.
-->
<svg id="z23693" class="acjk" version="1.1" viewBox="0 0 1024 1024" xmlns="http://www.w3.org/2000/svg" xmlns:xlink="http://www.w3.org/1999/xlink">
<style>
<![CDATA[
@keyframes zk {
	to {
		stroke-dashoffset:0;
	}
}
svg.acjk path[clip-path] {
	--t:0.8s;
	animation:zk var(--t) linear forwards var(--d);
	stroke-dasharray:3337;
	stroke-dashoffset:3339;
	stroke-width:128;
	stroke-linecap:round;
	fill:none;
	stroke:#000;
}
svg.acjk path[id] {fill:#ccc;}
]]>
</style>
<path id="z23693d1" d="M289 572Q299 415 305 273Q305 260 323 178Q327 166 306 152Q270 133 246 129Q230 125 222 134Q215 141 223 157Q248 194 248 218Q257 387 247 584C247 599 289 587 289 572Z"/>
<path id="z23693d2" d="M365 553Q322 560 289 572C261 580 261 580 247 584Q201 597 162 613Q149 617 152 600Q159 551 167 499Q171 477 162 462Q128 423 104 427Q94 431 101 450Q123 505 113 560Q106 612 83 634Q67 652 74 665Q86 680 102 689Q115 696 125 687Q152 648 313 602Q352 590 364 593C377 596 378 550 365 553Z"/>
<path id="z23693d3" d="M364 593Q368 609 374 621Q381 634 391 625Q413 604 417 534Q435 435 441 425Q448 412 439 400Q423 387 396 370Q386 364 375 369Q368 372 371 383Q395 425 368 545Q367 548 365 553C361 566 361 580 364 593Z"/>
<path id="z23693d4" d="M745 255Q847 231 850 229Q860 222 855 212Q848 200 818 192Q790 186 684 216Q597 237 511 243Q474 247 500 266Q537 293 599 279Q642 272 686 265C725 258 725 258 745 255Z"/>
<path id="z23693d5" d="M766 498Q823 495 931 495Q950 495 955 486Q961 476 944 462Q887 420 819 441Q795 445 767 452C731 458 731 458 713 461Q689 461 589 480C554 485 554 485 537 487Q495 491 452 498Q431 501 447 517Q460 530 478 535Q485 536 534 531C568 524 568 524 585 520Q642 507 714 502C749 499 749 499 766 498Z"/>
<path id="z23693d6" d="M589 480Q593 402 600 365Q606 346 586 336Q540 312 525 315Q506 319 522 340Q541 376 537 487C535 516 535 516 534 531Q522 687 407 790Q394 803 390 808Q389 815 400 815Q415 815 435 801Q472 776 496 751Q565 675 585 520C588 493 588 493 589 480Z"/>
<path id="z23693d7" d="M717 886Q723 911 730 921Q736 928 743 926Q758 917 764 856Q771 778 769 700Q766 651 766 498C767 467 767 467 767 452Q767 338 778 294Q781 276 766 267Q756 260 745 255C728 245 679 246 686 265Q710 320 711 328Q711 394 713 461C714 488 714 488 714 502Q708 820 717 886Z"/>
<defs>
	<clipPath id="z23693c1"><use xlink:href="#z23693d1"/></clipPath>
	<clipPath id="z23693c2"><use xlink:href="#z23693d2"/></clipPath>
	<clipPath id="z23693c3"><use xlink:href="#z23693d3"/></clipPath>
	<clipPath id="z23693c4"><use xlink:href="#z23693d4"/></clipPath>
	<clipPath id="z23693c5"><use xlink:href="#z23693d5"/></clipPath>
	<clipPath id="z23693c6"><use xlink:href="#z23693d6"/></clipPath>
	<clipPath id="z23693c7"><use xlink:href="#z23693d7"/></clipPath>
</defs>
<path style="--d:1s;" pathLength="3333" clip-path="url(#z23693c1)" d="M226 138L284 187L256 580"/>
<path style="--d:2s;" pathLength="3333" clip-path="url(#z23693c2)" d="M107 432L139 480L113 633L129 651L364 576"/>
<path style="--d:3s;" pathLength="3333" clip-path="url(#z23693c3)" d="M378 375L412 412L383 622"/>
<path style="--d:4s;" pathLength="3333" clip-path="url(#z23693c4)" d="M497 253L569 260L850 216"/>
<path style="--d:5s;" pathLength="3333" clip-path="url(#z23693c5)" d="M446 506L860 464L950 478"/>
<path style="--d:6s;" pathLength="3333" clip-path="url(#z23693c6)" d="M520 321L566 362L543 614L493 722L401 806"/>
<path style="--d:7s;" pathLength="3333" clip-path="url(#z23693c7)" d="M695 269L743 306L741 921"/>
</svg>