<!--
AnimCJK 2016-2019 Copyright Francois Mizessyn - https://github.com/parsimonhi/animCJK
Derived from:
    MakeMeAHanzi project - https://github.com/skishore/makemeahanzi
    Arphic PL KaitiM GB font
    Arphic PL UKai font
You can redistribute and/or modify this file under the terms of the Arphic Public License
as published by Arphic Technology Co., Ltd.
You should have received a copy of this license along with this file.
If not, see http://ftp.gnu.org/non-gnu/chinese-fonts-truetype/LICENSE.
-->
<svg id="z23705" class="acjk" version="1.1" viewBox="0 0 1024 1024" xmlns="http://www.w3.org/2000/svg" xmlns:xlink="http://www.w3.org/1999/xlink">
<style>
<![CDATA[
@keyframes zk {
	to {
		stroke-dashoffset:0;
	}
}
svg.acjk path[clip-path] {
	--t:0.8s;
	animation:zk var(--t) linear forwards var(--d);
	stroke-dasharray:3337;
	stroke-dashoffset:3339;
	stroke-width:128;
	stroke-linecap:round;
	fill:none;
	stroke:#000;
}
svg.acjk path[id] {fill:#ccc;}
]]>
</style>
<path id="z23705d1" d="M460 191Q602 148 629 145Q645 145 650 138Q654 128 644 116Q625 98 582 77Q567 68 554 69Q547 72 545 83Q541 125 303 208Q296 209 290 212Q284 221 290 224Q302 227 416 201Q417 200 420 200C447 194 447 194 460 191Z"/>
<path id="z23705d2" d="M560 342Q633 336 786 335Q807 334 812 325Q818 313 800 299Q746 260 706 269Q618 288 467 314Q466 314 465 315C419 322 419 322 396 326Q290 339 173 357Q151 360 167 377Q182 390 201 396Q223 402 239 396Q306 377 379 365C424 358 424 358 447 355Q484 348 530 345C550 343 550 343 560 342Z"/>
<path id="z23705d3" d="M465 315Q483 276 503 249Q513 239 507 227Q491 202 460 191C447 186 420 186 420 200Q419 200 420 202Q423 263 396 326C385 352 385 352 379 365Q313 497 105 649Q96 656 103 660Q110 663 123 659Q199 631 266 581Q365 512 447 355C459 328 459 328 465 315Z"/>
<path id="z23705d4" d="M530 345Q605 459 750 604Q769 620 804 624Q879 631 957 621Q976 620 979 615Q982 608 966 601Q914 577 853 554Q718 499 571 352Q565 346 560 342C552 336 524 337 530 345Z"/>
<path id="z23705d5" d="M503 785Q518 596 530 556Q533 546 513 531Q479 513 456 509Q440 505 432 514Q425 521 433 536Q449 558 451 576Q460 676 460 791C460 805 503 799 503 785Z"/>
<path id="z23705d6" d="M665 768Q578 772 503 785C474 789 474 789 460 791Q390 801 328 817Q304 823 311 795Q315 761 322 724Q326 699 316 683Q300 665 275 650Q262 643 252 646Q240 650 248 670Q269 719 260 767Q254 813 235 833Q216 852 222 866Q234 882 252 895Q265 904 277 895Q316 855 535 818Q631 803 656 811C670 814 680 768 665 768Z"/>
<path id="z23705d7" d="M656 811Q656 814 655 817Q640 841 670 896Q680 912 692 900Q716 876 717 788Q730 671 739 658Q746 642 735 629Q716 614 681 596Q668 589 656 595Q649 599 652 613Q665 634 666 764Q665 765 665 768C659 797 659 797 656 811Z"/>
<defs>
	<clipPath id="z23705c1"><use xlink:href="#z23705d1"/></clipPath>
	<clipPath id="z23705c2"><use xlink:href="#z23705d2"/></clipPath>
	<clipPath id="z23705c3"><use xlink:href="#z23705d3"/></clipPath>
	<clipPath id="z23705c4"><use xlink:href="#z23705d4"/></clipPath>
	<clipPath id="z23705c5"><use xlink:href="#z23705d5"/></clipPath>
	<clipPath id="z23705c6"><use xlink:href="#z23705d6"/></clipPath>
	<clipPath id="z23705c7"><use xlink:href="#z23705d7"/></clipPath>
</defs>
<path style="--d:1s;" pathLength="3333" clip-path="url(#z23705c1)" d="M646 131L563 114L477 163L294 217"/>
<path style="--d:2s;" pathLength="3333" clip-path="url(#z23705c2)" d="M170 366L226 374L705 302L809 313"/>
<path style="--d:3s;" pathLength="3333" clip-path="url(#z23705c3)" d="M426 205L462 248L381 416L251 562L106 653"/>
<path style="--d:4s;" pathLength="3333" clip-path="url(#z23705c4)" d="M542 351L782 571L972 609"/>
<path style="--d:5s;" pathLength="3333" clip-path="url(#z23705c5)" d="M435 516L490 563L472 789"/>
<path style="--d:6s;" pathLength="3333" clip-path="url(#z23705c6)" d="M251 653L291 706L268 836L286 857L662 778"/>
<path style="--d:7s;" pathLength="3333" clip-path="url(#z23705c7)" d="M658 601L701 649L683 899"/>
</svg>