<!--
AnimCJK 2016-2017 Copyright Francois Mizessyn, http://gooo.free.fr/animCJK/
Derived from:
    MakeMeAHanzi project - https://github.com/skishore/makemeahanzi
    Arphic PL KaitiM GB - https://apps.ubuntu.com/cat/applications/precise/fonts-arphic-gkai00mp/
    Arphic PL UKai - https://apps.ubuntu.com/cat/applications/fonts-arphic-ukai/
You can redistribute and/or modify this file under the terms of the Arphic Public License
as published by Arphic Technology Co., Ltd.
You should have received a copy of this license (the directory "APL") along with this file;
if not, see http://ftp.gnu.org/non-gnu/chinese-fonts-truetype/LICENSE.
-->
<svg id="z23700" class="acjk" version="1.1" viewBox="0 0 1024 1024" xmlns="http://www.w3.org/2000/svg" xmlns:xlink="http://www.w3.org/1999/xlink">
<style>
<![CDATA[
	@keyframes z23700k {
		from {
			stroke:#c00;
			stroke-dashoffset:3000;
		}
		75% {
			stroke:#c00;
			stroke-dashoffset:0;
		}
		to {
			stroke:#000;
		}
	}
	#z23700 path[clip-path] {
		animation:z23700k 1s linear both;
		stroke-dasharray:3000;
		stroke-width:128;
		stroke-linecap:round;
		fill:none;
	}
	#z23700 path[clip-path="url(#z23700c1)"] {animation-delay:1s;}
	#z23700 path[clip-path="url(#z23700c2)"] {animation-delay:2s;}
	#z23700 path[clip-path="url(#z23700c3)"] {animation-delay:3s;}
	#z23700 path[clip-path="url(#z23700c4)"] {animation-delay:4s;}
	#z23700 path[clip-path="url(#z23700c5)"] {animation-delay:5s;}
	#z23700 path[clip-path="url(#z23700c6)"] {animation-delay:6s;}
	#z23700 path[clip-path="url(#z23700c7)"] {animation-delay:7s;}
	#z23700 path {fill:#ccc;}
]]>
</style>
<g transform="scale(1,-1) translate(0,-900)">
	<path id="z23700d1" d="M331 726Q322 612 164 497Q139 485 99 451Q89 438 104 440Q126 440 158 457Q261 509 325 587Q365 633 402 671Q415 681 404 698Q365 740 343 740Q331 740 331 726Z"/>
	<path id="z23700d2" d="M464 796Q518 777 582 702Q748 507 806 507Q827 507 957 542Q982 549 980 555Q979 562 954 565Q783 587 698 653Q641 698 550 792Q523 820 487 816Q460 813 460 806Q457 797 464 796Z"/>
	<path id="z23700d3" d="M419 521Q492 543 553 553Q572 556 575 550Q582 538 578 508Q571 424 550 387Q534 359 508 364Q484 374 463 387Q441 399 454 372Q493 321 510 284Q526 265 542 279Q602 313 633 470Q643 527 661 547Q674 560 667 571Q658 581 607 604Q586 613 568 600Q546 587 463 566Q381 544 309 536Q293 535 290 526Q289 519 312 508Q336 493 355 501Q368 505 385 510L419 521Z"/>
	<path id="z23700d4" d="M385 510Q386 509 387 507Q393 435 247 281Q229 263 228 259Q228 255 233 255Q311 273 417 424Q417 434 446 464Q452 473 446 485Q434 509 419 521L385 510Z"/>
	<path id="z23700d5" d="M499 66Q512 171 527 224Q531 234 512 249Q479 268 457 272Q441 276 434 268Q427 261 434 246Q447 230 448 217Q455 144 456 59L499 66Z"/>
	<path id="z23700d6" d="M232 -35Q248 -50 258 -50Q265 -51 272 -44Q308 -8 527 32Q539 35 690 54Q691 54 696 54L694 86Q607 83 499 66L456 59Q345 47 316 33Q309 30 305 33Q302 39 318 116Q324 155 275 180Q268 183 262 184Q249 187 244 183Q240 177 250 156Q275 95 236 23Q211 -1 212 -9Q215 -18 232 -35Z"/>
	<path id="z23700d7" d="M696 54Q696 -9 715 -38Q718 -44 724 -51Q737 -66 746 -51Q765 -18 750 64Q741 167 746 194Q750 210 738 222Q716 234 678 245Q665 249 654 240Q647 236 652 222Q679 201 694 86L696 54Z"/>
	<defs>
		<clipPath id="z23700c1"><use xlink:href="#z23700d1"/></clipPath>
		<clipPath id="z23700c2"><use xlink:href="#z23700d2"/></clipPath>
		<clipPath id="z23700c3"><use xlink:href="#z23700d3"/></clipPath>
		<clipPath id="z23700c4"><use xlink:href="#z23700d4"/></clipPath>
		<clipPath id="z23700c5"><use xlink:href="#z23700d5"/></clipPath>
		<clipPath id="z23700c6"><use xlink:href="#z23700d6"/></clipPath>
		<clipPath id="z23700c7"><use xlink:href="#z23700d7"/></clipPath>
	</defs>
	<path pathLength="2999" clip-path="url(#z23700c1)" d="M338 734L363 677L306 601L217 514L100 447"/>
	<path pathLength="2999" clip-path="url(#z23700c2)" d="M466 804L529 783L775 564L971 554"/>
	<path pathLength="2999" clip-path="url(#z23700c3)" d="M298 524L576 580L607 568L623 547L560 347L519 319L455 383"/>
	<path pathLength="2999" clip-path="url(#z23700c4)" d="M390 503L414 469L388 424L236 262"/>
	<path pathLength="2999" clip-path="url(#z23700c5)" d="M438 262L487 220L474 63"/>
	<path pathLength="2999" clip-path="url(#z23700c6)" d="M251 178L287 134L262 12L283 -8L690 76"/>
	<path pathLength="2999" clip-path="url(#z23700c7)" d="M656 234L711 191L735 -54"/>
</g>
</svg>