<!--
AnimCJK 2016-2017 Copyright Francois Mizessyn, https://github.com/parsimonhi/animCJK
Derived from:
    MakeMeAHanzi project - https://github.com/skishore/makemeahanzi
    Arphic PL KaitiM GB - https://apps.ubuntu.com/cat/applications/precise/fonts-arphic-gkai00mp/
    Arphic PL UKai - https://apps.ubuntu.com/cat/applications/fonts-arphic-ukai/
You can redistribute and/or modify this file under the terms of the Arphic Public License
as published by Arphic Technology Co., Ltd.
You should have received a copy of this license (the directory "APL") along with this file;
if not, see http://ftp.gnu.org/non-gnu/chinese-fonts-truetype/LICENSE.
-->
<svg id="z23703" class="acjk" version="1.1" viewBox="0 0 1024 1024" xmlns="http://www.w3.org/2000/svg" xmlns:xlink="http://www.w3.org/1999/xlink">
<style>
<![CDATA[
@keyframes z23703k {
	from {
		stroke:#c00;
		stroke-dashoffset:3334;
	}
	75% {
		stroke:#c00;
		stroke-dashoffset:0;
	}
	to {
		stroke:#000;
	}
}
#z23703 path[clip-path] {
	animation:z23703k 1s linear both;
	stroke-dasharray:3334;
	stroke-width:128;
	stroke-linecap:round;
	fill:none;
}
#z23703 path[clip-path="url(#z23703c1)"] {animation-delay:1s;}
#z23703 path[clip-path="url(#z23703c2)"] {animation-delay:2s;}
#z23703 path[clip-path="url(#z23703c3)"] {animation-delay:3s;}
#z23703 path[clip-path="url(#z23703c4)"] {animation-delay:4s;}
#z23703 path[clip-path="url(#z23703c5)"] {animation-delay:5s;}
#z23703 path[clip-path="url(#z23703c6)"] {animation-delay:6s;}
#z23703 path[clip-path="url(#z23703c7)"] {animation-delay:7s;}
#z23703 path {fill:#ccc;}
]]>
</style>
<path id="z23703d1" d="M544 270Q547 246 577 99Q581 89 561 73Q527 52 502 47Q486 43 478 52Q471 59 478 75Q499 102 499 278L544 270 Z"/>
<path id="z23703d2" d="M715 249Q624 256 544 270L499 278Q418 291 349 310Q328 314 335 290Q348 224 339 207Q305 167 278 170Q268 174 274 193Q290 233 283 272Q277 309 261 325Q242 341 249 357Q259 373 277 384Q290 393 301 384Q338 339 618 293Q687 283 709 289L715 249 Z"/>
<path id="z23703d3" d="M709 289Q712 314 719 333Q726 351 741 340Q771 316 783 228Q802 177 810 170Q820 155 811 139Q792 120 760 97Q747 88 734 93Q725 97 727 111Q739 129 736 184Q729 224 715 249L709 289 Z"/>
<path id="z23703d4" d="M305 440Q286 425 265 419Q255 418 248 426Q244 432 252 444Q294 552 254 766Q233 856 233 861Q233 864 234 867Q243 904 255 919Q268 934 278 919Q312 883 313 763Q319 537 331 481L305 440 Z"/>
<path id="z23703d5" d="M331 481Q332 480 336 479Q490 445 675 421Q702 417 715 430Q725 436 729 483Q744 639 738 818Q738 843 729 852Q713 862 637 846Q621 843 622 853Q623 860 636 866Q705 909 741 945Q763 964 775 961Q788 958 798 929Q813 883 810 818Q782 491 800 451Q812 427 802 414Q792 399 743 376Q722 364 650 386Q473 423 305 440L331 481 Z"/>
<path id="z23703d6" d="M568 650Q593 611 619 556Q631 534 644 513Q651 504 647 495Q641 485 613 467Q594 455 584 457Q571 460 572 474Q575 541 527 623L500 662Q443 728 360 791Q353 798 359 801Q386 811 477 746Q510 724 535 694L568 650 Z"/>
<path id="z23703d7" d="M535 694Q640 791 647 794Q654 794 661 786Q671 774 659 738Q649 705 568 650L527 623Q442 571 396 548Q389 544 387 554Q387 566 396 574Q445 613 500 662L535 694 Z"/>
<defs>
	<clipPath id="z23703c1"><use xlink:href="#z23703d1"/></clipPath>
	<clipPath id="z23703c2"><use xlink:href="#z23703d2"/></clipPath>
	<clipPath id="z23703c3"><use xlink:href="#z23703d3"/></clipPath>
	<clipPath id="z23703c4"><use xlink:href="#z23703d4"/></clipPath>
	<clipPath id="z23703c5"><use xlink:href="#z23703d5"/></clipPath>
	<clipPath id="z23703c6"><use xlink:href="#z23703d6"/></clipPath>
	<clipPath id="z23703c7"><use xlink:href="#z23703d7"/></clipPath>
</defs>
<path pathLength="3333" clip-path="url(#z23703c1)" d="M481 53L533 106L516 274"/>
<path pathLength="3333" clip-path="url(#z23703c2)" d="M282 179L311 217L291 328L310 347L710 260"/>
<path pathLength="3333" clip-path="url(#z23703c3)" d="M736 98L775 164L728 338"/>
<path pathLength="3333" clip-path="url(#z23703c4)" d="M253 428L298 487L260 920"/>
<path pathLength="3333" clip-path="url(#z23703c5)" d="M313 442L352 456L707 396L752 418L764 886L746 912L629 852"/>
<path pathLength="3333" clip-path="url(#z23703c6)" d="M580 467L608 510L554 626L477 719L365 793"/>
<path pathLength="3333" clip-path="url(#z23703c7)" d="M394 556L594 706L657 784"/>
</svg>