<!--
AnimCJK 2016-2018 Copyright Francois Mizessyn, http://gooo.free.fr/animCJK/
Derived from:
    MakeMeAHanzi project - https://github.com/skishore/makemeahanzi
    Arphic PL KaitiM GB - https://apps.ubuntu.com/cat/applications/precise/fonts-arphic-gkai00mp/
    Arphic PL UKai - https://apps.ubuntu.com/cat/applications/fonts-arphic-ukai/
You can redistribute and/or modify this file under the terms of the Arphic Public License
as published by Arphic Technology Co., Ltd.
You should have received a copy of this license (the directory "APL") along with this file;
if not, see http://ftp.gnu.org/non-gnu/chinese-fonts-truetype/LICENSE.
-->
<svg id="z23700" class="acjk" version="1.1" viewBox="0 0 1024 1024" xmlns="http://www.w3.org/2000/svg" xmlns:xlink="http://www.w3.org/1999/xlink">
<style>
<![CDATA[
@keyframes z23700k {
	from {
		stroke:#ccc;
		stroke-dashoffset:3334;
	}
	1% {
		stroke:#c00;
		stroke-dashoffset:3334;
	}
	75% {
		stroke:#c00;
		stroke-dashoffset:0;
	}
	to {
		stroke:#000;
	}
}
#z23700 path[clip-path] {
	animation:z23700k 1s linear both;
	stroke-dasharray:3334;
	stroke-width:128;
	stroke-linecap:round;
	fill:none;
}
#z23700 path[clip-path="url(#z23700c1)"] {animation-delay:1s;}
#z23700 path[clip-path="url(#z23700c2)"] {animation-delay:2s;}
#z23700 path[clip-path="url(#z23700c3)"] {animation-delay:3s;}
#z23700 path[clip-path="url(#z23700c4)"] {animation-delay:4s;}
#z23700 path[clip-path="url(#z23700c5)"] {animation-delay:5s;}
#z23700 path[clip-path="url(#z23700c6)"] {animation-delay:6s;}
#z23700 path[clip-path="url(#z23700c7)"] {animation-delay:7s;}
#z23700 path {fill:#ccc;}
]]>
</style>
<path id="z23700d1" d="M331 174Q322 288 164 403Q139 415 99 449Q89 462 104 460Q126 460 158 443Q261 391 325 313Q365 267 402 229Q415 219 404 202Q365 160 343 160Q331 160 331 174 Z"/>
<path id="z23700d2" d="M464 104Q518 123 582 198Q748 393 806 393Q827 393 957 358Q982 351 980 345Q979 338 954 335Q783 313 698 247Q641 202 550 108Q523 80 487 84Q460 87 460 94Q457 103 464 104 Z"/>
<path id="z23700d3" d="M419 379Q492 357 553 347Q572 344 575 350Q582 362 578 392Q571 476 550 513Q534 541 508 536Q484 526 463 513Q441 501 454 528Q493 579 510 616Q526 635 542 621Q602 587 633 430Q643 373 661 353Q674 340 667 329Q658 319 607 296Q586 287 568 300Q546 313 463 334Q381 356 309 364Q293 365 290 374Q289 381 312 392Q336 407 355 399Q368 395 385 390L419 379 Z"/>
<path id="z23700d4" d="M385 390Q386 391 387 393Q393 465 247 619Q229 637 228 641Q228 645 233 645Q311 627 417 476Q417 466 446 436Q452 427 446 415Q434 391 419 379L385 390 Z"/>
<path id="z23700d5" d="M499 834Q512 729 527 676Q531 666 512 651Q479 632 457 628Q441 624 434 632Q427 639 434 654Q447 670 448 683Q455 756 456 841L499 834 Z"/>
<path id="z23700d6" d="M232 935Q248 950 258 950Q265 951 272 944Q308 908 527 868Q539 865 690 846Q691 846 696 846L694 814Q607 817 499 834L456 841Q345 853 316 867Q309 870 305 867Q302 861 318 784Q324 745 275 720Q268 717 262 716Q249 713 244 717Q240 723 250 744Q275 805 236 877Q211 901 212 909Q215 918 232 935 Z"/>
<path id="z23700d7" d="M696 846Q696 909 715 938Q718 944 724 951Q737 966 746 951Q765 918 750 836Q741 733 746 706Q750 690 738 678Q716 666 678 655Q665 651 654 660Q647 664 652 678Q679 699 694 814L696 846 Z"/>
<defs>
	<clipPath id="z23700c1"><use xlink:href="#z23700d1"/></clipPath>
	<clipPath id="z23700c2"><use xlink:href="#z23700d2"/></clipPath>
	<clipPath id="z23700c3"><use xlink:href="#z23700d3"/></clipPath>
	<clipPath id="z23700c4"><use xlink:href="#z23700d4"/></clipPath>
	<clipPath id="z23700c5"><use xlink:href="#z23700d5"/></clipPath>
	<clipPath id="z23700c6"><use xlink:href="#z23700d6"/></clipPath>
	<clipPath id="z23700c7"><use xlink:href="#z23700d7"/></clipPath>
</defs>
<path pathLength="3333" clip-path="url(#z23700c1)" d="M338 166L363 223L306 299L217 386L100 453"/>
<path pathLength="3333" clip-path="url(#z23700c2)" d="M466 96L529 117L775 336L971 346"/>
<path pathLength="3333" clip-path="url(#z23700c3)" d="M298 376L576 320L607 332L623 353L560 553L519 581L455 517"/>
<path pathLength="3333" clip-path="url(#z23700c4)" d="M390 397L414 431L388 476L236 638"/>
<path pathLength="3333" clip-path="url(#z23700c5)" d="M438 638L487 680L474 837"/>
<path pathLength="3333" clip-path="url(#z23700c6)" d="M251 722L287 766L262 888L283 908L690 824"/>
<path pathLength="3333" clip-path="url(#z23700c7)" d="M656 666L711 709L735 954"/>
</svg>