<!--
AnimCJK 2016-2018 Copyright Francois Mizessyn, https://github.com/parsimonhi/animCJK
Derived from:
    MakeMeAHanzi project - https://github.com/skishore/makemeahanzi
    Arphic PL KaitiM GB - https://apps.ubuntu.com/cat/applications/precise/fonts-arphic-gkai00mp/
    Arphic PL UKai - https://apps.ubuntu.com/cat/applications/fonts-arphic-ukai/
You can redistribute and/or modify this file under the terms of the Arphic Public License
as published by Arphic Technology Co., Ltd.
You should have received a copy of this license (the directory "APL") along with this file;
if not, see http://ftp.gnu.org/non-gnu/chinese-fonts-truetype/LICENSE.
-->
<svg id="z23731" class="acjk" version="1.1" viewBox="0 0 1024 1024" xmlns="http://www.w3.org/2000/svg" xmlns:xlink="http://www.w3.org/1999/xlink">
<style>
<![CDATA[
@keyframes z23731k {
	from {
		stroke:#c00;
		stroke-dashoffset:3334;
	}
	75% {
		stroke:#c00;
		stroke-dashoffset:0;
	}
	to {
		stroke:#000;
	}
}
#z23731 path[clip-path] {
	animation:z23731k 1s linear both;
	stroke-dasharray:3334;
	stroke-width:128;
	stroke-linecap:round;
	fill:none;
}
#z23731 path[clip-path="url(#z23731c1)"] {animation-delay:1s;}
#z23731 path[clip-path="url(#z23731c2)"] {animation-delay:2s;}
#z23731 path[clip-path="url(#z23731c3)"] {animation-delay:3s;}
#z23731 path[clip-path="url(#z23731c4)"] {animation-delay:4s;}
#z23731 path[clip-path="url(#z23731c5)"] {animation-delay:5s;}
#z23731 path[clip-path="url(#z23731c6)"] {animation-delay:6s;}
#z23731 path[clip-path="url(#z23731c7)"] {animation-delay:7s;}
#z23731 path[clip-path="url(#z23731c8)"] {animation-delay:8s;}
#z23731 path {fill:#ccc;}
]]>
</style>
<path id="z23731d1" d="M389 241Q494 199 565 153Q608 129 647 116Q665 113 668 104Q669 94 656 83Q632 70 585 58Q569 52 555 55Q548 59 549 71Q550 110 375 224L389 241 Z"/>
<path id="z23731d2" d="M390 299Q389 271 391 260Q391 250 389 241L375 224Q353 206 324 200Q309 196 300 202Q293 209 300 224Q324 264 336 307Q345 350 366 523L408 518Q398 416 393 349Q392 331 391 318L390 299 Z"/>
<path id="z23731d3" d="M630 300Q768 270 775 263Q784 256 779 248Q772 236 744 229Q717 223 602 260Q457 290 401 296Q394 297 390 299L391 318Q427 339 498 326Q540 317 587 309L630 300 Z"/>
<path id="z23731d4" d="M620 492Q641 390 655 359Q664 338 653 324Q643 311 630 300L587 309Q599 351 577 498L620 492 Z"/>
<path id="z23731d5" d="M366 523Q255 533 135 547Q110 548 128 569Q161 602 207 593Q441 535 853 534Q880 534 906 535Q928 535 935 526Q942 513 923 496Q865 451 820 459Q741 475 620 492L577 498Q546 501 512 506Q460 510 408 518L366 523 Z"/>
<path id="z23731d6" d="M535 791Q545 683 560 614Q563 604 546 592Q518 576 496 572Q483 569 476 577Q469 583 476 596Q489 612 491 626Q498 704 499 796L535 791 Z"/>
<path id="z23731d7" d="M736 764Q628 773 535 791L499 796Q417 809 345 830Q326 833 333 812Q340 775 349 735Q355 711 346 696Q333 677 309 662Q299 655 287 656Q277 660 282 679Q300 730 288 778Q278 824 258 844Q239 860 245 875Q255 891 272 903Q285 912 296 903Q329 869 607 813Q707 795 733 805Q734 804 737 805L736 764 Z"/>
<path id="z23731d8" d="M737 805Q731 862 743 892Q747 901 754 910Q764 925 775 912Q787 894 788 796Q785 684 795 651Q801 636 789 624Q768 611 735 597Q722 593 710 599Q703 603 708 617Q729 641 736 764L737 805 Z"/>
<defs>
	<clipPath id="z23731c1"><use xlink:href="#z23731d1"/></clipPath>
	<clipPath id="z23731c2"><use xlink:href="#z23731d2"/></clipPath>
	<clipPath id="z23731c3"><use xlink:href="#z23731d3"/></clipPath>
	<clipPath id="z23731c4"><use xlink:href="#z23731d4"/></clipPath>
	<clipPath id="z23731c5"><use xlink:href="#z23731d5"/></clipPath>
	<clipPath id="z23731c6"><use xlink:href="#z23731d6"/></clipPath>
	<clipPath id="z23731c7"><use xlink:href="#z23731d7"/></clipPath>
	<clipPath id="z23731c8"><use xlink:href="#z23731d8"/></clipPath>
</defs>
<path pathLength="3333" clip-path="url(#z23731c1)" d="M664 102L569 99L524 148L381 231"/>
<path pathLength="3333" clip-path="url(#z23731c2)" d="M304 207L356 256L387 520"/>
<path pathLength="3333" clip-path="url(#z23731c3)" d="M398 303L478 307L776 250"/>
<path pathLength="3333" clip-path="url(#z23731c4)" d="M594 317L624 359L591 495"/>
<path pathLength="3333" clip-path="url(#z23731c5)" d="M130 558L200 567L823 496L931 520"/>
<path pathLength="3333" clip-path="url(#z23731c6)" d="M480 583L525 616L516 793"/>
<path pathLength="3333" clip-path="url(#z23731c7)" d="M290 661L321 718L289 844L306 867L736 783"/>
<path pathLength="3333" clip-path="url(#z23731c8)" d="M714 609L760 648L764 914"/>
</svg>