<!--
AnimCJK 2016-2019 Copyright Francois Mizessyn - https://github.com/parsimonhi/animCJK
Derived from:
    MakeMeAHanzi project - https://github.com/skishore/makemeahanzi
    Arphic PL KaitiM GB font
    Arphic PL UKai font
You can redistribute and/or modify this file under the terms of the Arphic Public License
as published by Arphic Technology Co., Ltd.
You should have received a copy of this license along with this file.
If not, see http://ftp.gnu.org/non-gnu/chinese-fonts-truetype/LICENSE.
-->
<svg id="z23762" class="acjk" version="1.1" viewBox="0 0 1024 1024" xmlns="http://www.w3.org/2000/svg" xmlns:xlink="http://www.w3.org/1999/xlink">
<style>
<![CDATA[
@keyframes zk {
	to {
		stroke-dashoffset:0;
	}
}
svg.acjk path[clip-path] {
	--t:0.8s;
	animation:zk var(--t) linear forwards var(--d);
	stroke-dasharray:3337;
	stroke-dashoffset:3339;
	stroke-width:128;
	stroke-linecap:round;
	fill:none;
	stroke:#000;
}
svg.acjk path[id] {fill:#ccc;}
]]>
</style>
<path id="z23762d1" d="M265 548Q283 224 288 213Q288 206 298 172Q301 162 281 147Q247 129 224 125Q208 121 200 130Q193 137 201 152Q225 186 225 211Q232 374 224 563C224 578 265 563 265 548Z"/>
<path id="z23762d2" d="M344 525Q301 535 265 548C238 558 238 558 224 563Q184 576 153 591Q143 594 145 581Q151 544 158 503Q162 481 154 466Q120 427 96 431Q86 435 93 453Q112 502 102 549Q95 595 75 614Q59 632 67 645Q79 658 96 668Q109 675 118 666Q148 626 279 582Q324 564 338 567Q339 566 341 566C354 563 357 522 344 525Z"/>
<path id="z23762d3" d="M341 566Q347 590 356 606Q365 619 375 609Q396 584 395 511Q404 424 411 413Q418 400 407 388Q389 375 360 359Q348 355 338 360Q331 364 334 375Q349 393 350 494Q347 510 344 525C341 538 338 553 341 566Z"/>
<path id="z23762d4" d="M499 200Q478 184 453 176Q443 175 436 183Q432 189 440 201Q494 333 456 621Q449 667 433 715Q424 743 429 764Q439 801 451 815Q464 830 474 815Q508 770 509 576Q509 321 520 241C523 226 511 209 499 200Z"/>
<path id="z23762d5" d="M520 241Q527 241 537 239Q780 172 804 198Q819 207 824 273Q840 495 829 747Q828 784 814 795Q801 804 734 784Q718 780 718 789Q719 796 732 804Q790 855 820 892Q842 913 855 910Q868 907 880 878Q896 832 897 762Q881 414 882 286Q882 244 894 220Q907 198 896 185Q884 169 835 145Q814 133 739 156Q631 180 499 200C484 203 505 241 520 241Z"/>
<path id="z23762d6" d="M578 322Q550 326 570 341Q604 359 649 348Q751 327 759 323Q766 316 763 309Q756 300 733 294Q709 290 685 300Q636 315 578 322Z"/>
<path id="z23762d7" d="M602 454Q593 448 568 443Q558 440 554 444Q550 448 555 463Q576 511 585 587Q586 609 599 626Q612 645 618 632Q622 620 622 599C620 580 620 580 619 571Q612 501 612 479C612 470 610 458 602 454Z"/>
<path id="z23762d8" d="M748 553Q763 501 780 484Q801 463 781 450Q765 440 742 424Q726 414 709 423Q687 436 657 443Q635 449 602 454C593 456 604 484 612 479Q616 473 686 464Q708 460 713 469Q719 473 713 499Q707 524 701 552C698 567 745 568 748 553Z"/>
<path id="z23762d9" d="M622 599Q625 599 630 598Q670 588 759 580Q766 579 768 572Q768 566 748 553C735 545 716 549 701 552Q655 562 619 571C610 573 613 599 622 599Z"/>
<defs>
	<clipPath id="z23762c1"><use xlink:href="#z23762d1"/></clipPath>
	<clipPath id="z23762c2"><use xlink:href="#z23762d2"/></clipPath>
	<clipPath id="z23762c3"><use xlink:href="#z23762d3"/></clipPath>
	<clipPath id="z23762c4"><use xlink:href="#z23762d4"/></clipPath>
	<clipPath id="z23762c5"><use xlink:href="#z23762d5"/></clipPath>
	<clipPath id="z23762c6"><use xlink:href="#z23762d6"/></clipPath>
	<clipPath id="z23762c7"><use xlink:href="#z23762d7"/></clipPath>
	<clipPath id="z23762c8"><use xlink:href="#z23762d8"/></clipPath>
	<clipPath id="z23762c9"><use xlink:href="#z23762d9"/></clipPath>
</defs>
<path style="--d:1s;" pathLength="3333" clip-path="url(#z23762c1)" d="M205 137L260 180L230 553"/>
<path style="--d:2s;" pathLength="3333" clip-path="url(#z23762c2)" d="M100 440L130 479L109 611L126 630L340 536"/>
<path style="--d:3s;" pathLength="3333" clip-path="url(#z23762c3)" d="M340 362L379 409L364 607"/>
<path style="--d:4s;" pathLength="3333" clip-path="url(#z23762c4)" d="M443 187L489 260L464 817"/>
<path style="--d:5s;" pathLength="3333" clip-path="url(#z23762c5)" d="M507 202L542 215L793 167L858 208L858 796L835 858L725 788"/>
<path style="--d:6s;" pathLength="3333" clip-path="url(#z23762c6)" d="M573 332L755 314"/>
<path style="--d:7s;" pathLength="3333" clip-path="url(#z23762c7)" d="M560 449L586 477L610 632"/>
<path style="--d:8s;" pathLength="3333" clip-path="url(#z23762c8)" d="M609 455L721 443L750 465L711 548"/>
<path style="--d:9s;" pathLength="3333" clip-path="url(#z23762c9)" d="M627 591L763 571"/>
</svg>