<!--
AnimCJK 2016-2019 Copyright Francois Mizessyn - https://github.com/parsimonhi/animCJK
Derived from:
    MakeMeAHanzi project - https://github.com/skishore/makemeahanzi
    Arphic PL KaitiM GB font
    Arphic PL UKai font
You can redistribute and/or modify this file under the terms of the Arphic Public License
as published by Arphic Technology Co., Ltd.
You should have received a copy of this license along with this file.
If not, see http://ftp.gnu.org/non-gnu/chinese-fonts-truetype/LICENSE.
-->
<svg id="z23803" class="acjk" version="1.1" viewBox="0 0 1024 1024" xmlns="http://www.w3.org/2000/svg" xmlns:xlink="http://www.w3.org/1999/xlink">
<style>
<![CDATA[
@keyframes zk {
	to {
		stroke-dashoffset:0;
	}
}
svg.acjk path[clip-path] {
	--t:0.8s;
	animation:zk var(--t) linear forwards var(--d);
	stroke-dasharray:3337;
	stroke-dashoffset:3339;
	stroke-width:128;
	stroke-linecap:round;
	fill:none;
	stroke:#000;
}
svg.acjk path[id] {fill:#ccc;}
]]>
</style>
<path id="z23803d1" d="M270 543Q289 273 305 209Q309 199 289 183Q255 164 232 160Q216 157 208 165Q201 172 208 187Q230 220 230 242Q237 387 228 558C228 573 270 558 270 543Z"/>
<path id="z23803d2" d="M349 521Q307 530 270 543C242 553 242 553 228 558Q185 571 149 588Q136 592 139 575Q143 532 148 486Q152 464 142 450Q127 434 104 420Q94 414 83 417Q73 421 81 439Q103 491 96 541Q90 590 70 612Q54 630 63 643Q75 656 92 665Q105 672 114 663Q147 615 305 569Q332 560 342 562C356 562 363 518 349 521Z"/>
<path id="z23803d3" d="M342 562Q352 595 357 601Q364 611 374 602Q387 584 398 516Q402 455 413 425Q420 406 404 394Q391 384 376 374Q366 370 357 373Q348 379 357 413Q357 480 349 521C346 535 339 548 342 562Z"/>
<path id="z23803d4" d="M734 241Q649 259 561 286Q551 290 548 287Q545 283 552 273Q663 128 687 104Q699 94 693 82Q687 69 641 46Q625 37 615 41Q602 47 607 67Q628 128 512 260Q491 279 463 299Q450 311 453 321Q457 337 482 358Q492 368 506 358Q548 322 753 263Q754 262 758 262C768 260 744 239 734 241Z"/>
<path id="z23803d5" d="M758 262Q780 281 804 307Q819 323 831 326Q838 327 845 318Q855 306 842 270Q835 237 770 213Q730 198 708 192Q701 188 699 198Q699 205 734 241C750 255 750 255 758 262Z"/>
<path id="z23803d6" d="M513 392Q514 449 447 519Q426 537 418 546Q411 558 422 555Q462 555 532 481Q538 469 575 432Q585 422 574 409Q541 376 521 379Q512 380 513 392Z"/>
<path id="z23803d7" d="M719 420Q756 445 798 474Q813 484 827 483Q837 482 841 468Q844 453 832 426Q816 390 708 375Q693 374 688 377Q684 381 686 393Q690 403 719 420Z"/>
<path id="z23803d8" d="M609 547C609 539 605 531 597 523C577 503 558 494 540 498C535 498 531 503 533 511C540 563 475 696 302 815C297 818 297 824 303 823C363 806 405 781 454 739C489 708 519 664 532 649C539 640 539 640 542 636C554 619 566 601 581 583C592 572 612 562 609 547Z"/>
<path id="z23803d9" d="M682 739C698 716 730 671 754 621C762 602 771 587 786 576C798 565 801 556 793 547C784 538 770 529 750 521C738 516 709 524 662 536C644 540 628 545 609 547C594 550 566 583 581 583C595 583 612 583 631 579C657 571 672 564 677 565C693 566 698 577 696 597C690 633 658 682 645 704C631 727 631 727 624 738C601 775 541 851 438 888C412 896 411 915 483 897C557 877 626 817 655 777C673 752 673 752 682 739Z"/>
<path id="z23803d10" d="M655 777C655 777 657 779 660 783C728 863 782 912 806 916C878 916 928 914 958 910C980 907 991 903 990 897C988 891 935 870 831 836C786 818 731 780 682 739C657 716 657 716 645 704C633 691 628 686 616 674C593 649 571 636 549 636C545 635 542 635 542 636C537 636 528 645 532 649C534 651 537 653 541 657C557 667 579 688 624 738C645 764 645 764 655 777Z"/>
<defs>
	<clipPath id="z23803c1"><use xlink:href="#z23803d1"/></clipPath>
	<clipPath id="z23803c2"><use xlink:href="#z23803d2"/></clipPath>
	<clipPath id="z23803c3"><use xlink:href="#z23803d3"/></clipPath>
	<clipPath id="z23803c4"><use xlink:href="#z23803d4"/></clipPath>
	<clipPath id="z23803c5"><use xlink:href="#z23803d5"/></clipPath>
	<clipPath id="z23803c6"><use xlink:href="#z23803d6"/></clipPath>
	<clipPath id="z23803c7"><use xlink:href="#z23803d7"/></clipPath>
	<clipPath id="z23803c8"><use xlink:href="#z23803d8"/></clipPath>
	<clipPath id="z23803c9"><use xlink:href="#z23803d9"/></clipPath>
	<clipPath id="z23803c10"><use xlink:href="#z23803d10"/></clipPath>
</defs>
<path style="--d:1s;" pathLength="3333" clip-path="url(#z23803c1)" d="M213 172L266 217L238 553"/>
<path style="--d:2s;" pathLength="3333" clip-path="url(#z23803c2)" d="M86 421L120 471L103 602L125 627L344 530"/>
<path style="--d:3s;" pathLength="3333" clip-path="url(#z23803c3)" d="M362 379L385 414L363 599"/>
<path style="--d:4s;" pathLength="3333" clip-path="url(#z23803c4)" d="M617 46L651 97L507 312L523 325L748 261"/>
<path style="--d:5s;" pathLength="3333" clip-path="url(#z23803c5)" d="M706 197L805 265L842 317"/>
<path style="--d:6s;" pathLength="3333" clip-path="url(#z23803c6)" d="M522 384L542 427L422 550"/>
<path style="--d:7s;" pathLength="3333" clip-path="url(#z23803c7)" d="M693 382L804 439L832 477"/>
<path style="--d:8s;" pathLength="3333" clip-path="url(#z23803c8)" d="M540 503L570 547L479 684L383 781L307 817"/>
<path style="--d:9s;" pathLength="3333" clip-path="url(#z23803c9)" d="M590 579L702 545L741 561L676 699L566 844L433 899"/>
<path style="--d:10s;" pathLength="3333" clip-path="url(#z23803c10)" d="M538 647L804 870L981 897"/>
</svg>