<!--
AnimCJK 2016-2017 Copyright Francois Mizessyn, http://gooo.free.fr/animCJK/
Derived from:
    MakeMeAHanzi project - https://github.com/skishore/makemeahanzi
    Arphic PL KaitiM GB - https://apps.ubuntu.com/cat/applications/precise/fonts-arphic-gkai00mp/
    Arphic PL UKai - https://apps.ubuntu.com/cat/applications/fonts-arphic-ukai/
You can redistribute and/or modify this file under the terms of the Arphic Public License
as published by Arphic Technology Co., Ltd.
You should have received a copy of this license (the directory "APL") along with this file;
if not, see http://ftp.gnu.org/non-gnu/chinese-fonts-truetype/LICENSE.
-->
<svg id="z23822" class="acjk" version="1.1" viewBox="0 0 1024 1024" xmlns="http://www.w3.org/2000/svg" xmlns:xlink="http://www.w3.org/1999/xlink">
<style>
<![CDATA[
	@keyframes z23822k {
		from {
			stroke:#c00;
			stroke-dashoffset:3000;
		}
		75% {
			stroke:#c00;
			stroke-dashoffset:0;
		}
		to {
			stroke:#000;
		}
	}
	#z23822 path[clip-path] {
		animation:z23822k 1s linear both;
		stroke-dasharray:3000;
		stroke-width:128;
		stroke-linecap:round;
		fill:none;
	}
	#z23822 path[clip-path="url(#z23822c1)"] {animation-delay:1s;}
	#z23822 path[clip-path="url(#z23822c2)"] {animation-delay:2s;}
	#z23822 path[clip-path="url(#z23822c3)"] {animation-delay:3s;}
	#z23822 path[clip-path="url(#z23822c4)"] {animation-delay:4s;}
	#z23822 path[clip-path="url(#z23822c5)"] {animation-delay:5s;}
	#z23822 path[clip-path="url(#z23822c6)"] {animation-delay:6s;}
	#z23822 path[clip-path="url(#z23822c7)"] {animation-delay:7s;}
	#z23822 path[clip-path="url(#z23822c8)"] {animation-delay:8s;}
	#z23822 path[clip-path="url(#z23822c9)"] {animation-delay:9s;}
	#z23822 path[clip-path="url(#z23822c10)"] {animation-delay:10s;}
	#z23822 path[clip-path="url(#z23822c11)"] {animation-delay:11s;}
	#z23822 path {fill:#ccc;}
]]>
</style>
<g transform="scale(1,-1) translate(0,-900)">
	<path id="z23822d1" d="M286 360Q301 684 318 736Q321 746 301 761Q267 779 244 783Q228 787 220 778Q213 771 221 756Q246 720 246 695Q253 533 245 346L286 360Z"/>
	<path id="z23822d2" d="M351 379Q317 372 286 360L245 346Q202 333 167 315Q151 309 154 329Q157 381 160 436Q163 461 152 475Q136 491 111 504Q98 508 89 506Q79 502 87 482Q115 427 109 368Q105 313 84 287Q68 268 77 254Q90 241 108 231Q123 225 132 234Q163 285 326 333Q341 337 352 338L351 379Z"/>
	<path id="z23822d3" d="M418 460Q422 493 434 512Q441 525 432 538Q416 551 387 570Q377 577 365 572Q358 568 360 556Q375 532 366 437Q362 403 352 381Q351 381 351 379L352 338Q355 323 361 312Q368 297 380 307Q402 328 408 403Q412 425 415 446L418 460Z"/>
	<path id="z23822d4" d="M646 681Q701 694 764 706Q809 716 815 722Q822 729 819 737Q812 747 786 755Q758 759 731 749Q697 739 661 727L607 714Q555 704 496 698Q463 692 487 677Q520 659 592 670L646 681Z"/>
	<path id="z23822d5" d="M592 670Q564 601 496 516Q492 509 497 506Q504 505 514 512Q617 585 646 681L661 727Q671 790 684 819Q690 829 682 837Q675 846 645 855Q623 862 615 858Q603 852 608 839Q626 788 607 714L592 670Z"/>
	<path id="z23822d6" d="M667 628Q707 597 755 551Q768 538 781 534Q787 534 792 542Q801 552 789 586Q780 616 723 635Q686 647 666 652Q659 656 658 646Q659 636 667 628Z"/>
	<path id="z23822d7" d="M774 472Q837 478 918 478Q976 478 983 487Q989 497 973 511Q925 547 889 538Q765 510 423 461Q420 461 418 460L415 446Q430 431 448 426Q467 422 483 425Q600 459 729 469L774 472Z"/>
	<path id="z23822d8" d="M482 352Q472 356 451 360Q439 364 437 359Q431 353 438 339Q460 291 474 214Q475 190 490 175Q505 154 510 169Q514 179 514 197L510 230Q500 306 499 327L482 352Z"/>
	<path id="z23822d9" d="M641 249Q659 310 678 329Q699 353 678 366Q617 399 616 399Q607 399 599 393Q563 369 482 352L499 327Q502 328 509 330Q546 339 579 346Q601 350 606 342Q613 338 606 308Q600 283 593 252L641 249Z"/>
	<path id="z23822d10" d="M514 197Q554 207 654 219Q664 220 665 229Q665 236 641 249L593 252L592 252Q549 239 510 230L514 197Z"/>
	<path id="z23822d11" d="M692 28Q670 32 641 37Q628 40 629 32Q630 23 641 14Q710 -35 753 -74Q766 -84 780 -67Q822 -9 815 72Q803 279 813 404Q820 432 813 443Q804 455 774 472L729 469Q729 462 737 449Q747 424 748 57Q745 38 737 27Q724 20 692 28Z"/>
	<defs>
		<clipPath id="z23822c1"><use xlink:href="#z23822d1"/></clipPath>
		<clipPath id="z23822c2"><use xlink:href="#z23822d2"/></clipPath>
		<clipPath id="z23822c3"><use xlink:href="#z23822d3"/></clipPath>
		<clipPath id="z23822c4"><use xlink:href="#z23822d4"/></clipPath>
		<clipPath id="z23822c5"><use xlink:href="#z23822d5"/></clipPath>
		<clipPath id="z23822c6"><use xlink:href="#z23822d6"/></clipPath>
		<clipPath id="z23822c7"><use xlink:href="#z23822d7"/></clipPath>
		<clipPath id="z23822c8"><use xlink:href="#z23822d8"/></clipPath>
		<clipPath id="z23822c9"><use xlink:href="#z23822d9"/></clipPath>
		<clipPath id="z23822c10"><use xlink:href="#z23822d10"/></clipPath>
		<clipPath id="z23822c11"><use xlink:href="#z23822d11"/></clipPath>
	</defs>
	<path pathLength="2999" clip-path="url(#z23822c1)" d="M223 775L280 728L255 354"/>
	<path pathLength="2999" clip-path="url(#z23822c2)" d="M92 495L130 454L114 293L130 276L347 368"/>
	<path pathLength="2999" clip-path="url(#z23822c3)" d="M369 567L403 521L371 309"/>
	<path pathLength="2999" clip-path="url(#z23822c4)" d="M484 689L811 732"/>
	<path pathLength="2999" clip-path="url(#z23822c5)" d="M613 852L650 817L618 672L500 514"/>
	<path pathLength="2999" clip-path="url(#z23822c6)" d="M663 644L750 593L785 542"/>
	<path pathLength="2999" clip-path="url(#z23822c7)" d="M422 449L876 507L980 500"/>
	<path pathLength="2999" clip-path="url(#z23822c8)" d="M442 355L474 318L500 171"/>
	<path pathLength="2999" clip-path="url(#z23822c9)" d="M490 350L606 372L643 352L610 252"/>
	<path pathLength="2999" clip-path="url(#z23822c10)" d="M519 205L659 229"/>
	<path pathLength="2999" clip-path="url(#z23822c11)" d="M738 461L778 428L778 26L747 -26L633 29"/>
</g>
</svg>