<!--
AnimCJK 2016-2019 Copyright Francois Mizessyn - https://github.com/parsimonhi/animCJK
Derived from:
    MakeMeAHanzi project - https://github.com/skishore/makemeahanzi
    Arphic PL KaitiM GB font
    Arphic PL UKai font
You can redistribute and/or modify this file under the terms of the Arphic Public License
as published by Arphic Technology Co., Ltd.
You should have received a copy of this license along with this file.
If not, see http://ftp.gnu.org/non-gnu/chinese-fonts-truetype/LICENSE.
-->
<svg id="z23849" class="acjk" version="1.1" viewBox="0 0 1024 1024" xmlns="http://www.w3.org/2000/svg" xmlns:xlink="http://www.w3.org/1999/xlink">
<style>
<![CDATA[
@keyframes zk {
	to {
		stroke-dashoffset:0;
	}
}
svg.acjk path[clip-path] {
	--t:0.8s;
	animation:zk var(--t) linear forwards var(--d);
	stroke-dasharray:3337;
	stroke-dashoffset:3339;
	stroke-width:128;
	stroke-linecap:round;
	fill:none;
	stroke:#000;
}
svg.acjk path[id] {fill:#ccc;}
]]>
</style>
<path id="z23849d1" d="M532 238Q542 183 552 132Q558 114 564 97Q567 87 550 74Q520 55 499 51Q486 47 478 54Q471 61 477 74Q487 89 489 99Q493 166 494 244C494 257 529 251 532 238Z"/>
<path id="z23849d2" d="M688 220Q634 220 532 238C507 242 507 242 494 244Q394 257 366 270Q359 273 357 270Q357 269 363 216Q367 179 318 153Q312 150 306 149Q293 146 287 150Q283 156 294 177Q324 243 278 300Q266 310 267 318Q270 325 285 340Q300 353 308 353Q315 353 321 347Q339 313 563 271Q573 267 688 254C699 252 699 220 688 220Z"/>
<path id="z23849d3" d="M688 254Q695 279 706 297Q716 313 727 300Q748 276 746 192Q755 152 760 145Q767 130 756 118Q735 105 702 88Q689 84 678 90Q671 94 675 107Q684 113 696 160Q695 194 688 220C688 243 688 243 688 254Z"/>
<path id="z23849d4" d="M268 652Q271 630 280 562C282 539 282 539 283 528Q286 453 290 430C292 420 289 406 280 401Q279 400 277 399Q232 377 219 380Q200 383 215 403Q251 460 222 652Q213 692 195 738Q174 792 99 867Q86 879 83 885Q82 892 92 891Q125 891 188 825Q242 765 262 683C266 662 266 662 268 652Z"/>
<path id="z23849d5" d="M290 430Q297 430 372 408Q390 401 395 410Q404 440 405 630Q402 792 391 809Q385 813 326 798Q307 791 308 800Q354 848 379 883Q391 902 406 906Q413 910 422 901Q464 853 463 805Q442 469 467 423Q477 404 467 395Q446 377 412 363Q393 354 351 380Q330 389 280 401C270 403 280 432 290 430Z"/>
<path id="z23849d6" d="M280 562Q326 553 361 548Q383 542 374 531Q362 518 338 516Q317 515 283 528C272 532 269 564 280 562Z"/>
<path id="z23849d7" d="M262 683Q265 683 269 683Q326 674 368 669Q390 665 381 652Q371 637 345 634Q290 631 268 652C260 659 251 683 262 683Z"/>
<path id="z23849d8" d="M610 642Q611 638 612 636Q621 584 624 532C625 513 625 513 625 504Q625 420 634 403C638 391 624 378 613 372Q571 345 553 355Q543 362 550 375Q565 393 570 461Q569 464 570 468Q576 603 549 704Q528 777 473 890Q469 897 467 903Q466 913 475 910Q488 907 518 865Q575 793 605 669C608 651 608 651 610 642Z"/>
<path id="z23849d9" d="M634 403Q641 400 650 398Q696 386 741 373Q760 366 767 377Q791 446 782 762Q776 831 771 841Q767 847 747 842Q717 835 688 826Q667 819 668 829Q726 883 760 923Q773 942 790 948Q800 952 809 942Q852 893 851 834Q821 441 847 389Q860 368 847 358Q825 339 786 324Q764 315 712 346Q670 361 613 372C601 374 622 408 634 403Z"/>
<path id="z23849d10" d="M624 532Q627 532 731 521Q753 517 745 504Q735 489 709 485Q673 481 625 504C616 507 615 532 624 532Z"/>
<path id="z23849d11" d="M605 669Q609 670 618 669Q682 662 730 656Q754 652 745 640Q735 625 709 621Q667 614 610 642C602 645 596 669 605 669Z"/>
<defs>
	<clipPath id="z23849c1"><use xlink:href="#z23849d1"/></clipPath>
	<clipPath id="z23849c2"><use xlink:href="#z23849d2"/></clipPath>
	<clipPath id="z23849c3"><use xlink:href="#z23849d3"/></clipPath>
	<clipPath id="z23849c4"><use xlink:href="#z23849d4"/></clipPath>
	<clipPath id="z23849c5"><use xlink:href="#z23849d5"/></clipPath>
	<clipPath id="z23849c6"><use xlink:href="#z23849d6"/></clipPath>
	<clipPath id="z23849c7"><use xlink:href="#z23849d7"/></clipPath>
	<clipPath id="z23849c8"><use xlink:href="#z23849d8"/></clipPath>
	<clipPath id="z23849c9"><use xlink:href="#z23849d9"/></clipPath>
	<clipPath id="z23849c10"><use xlink:href="#z23849d10"/></clipPath>
	<clipPath id="z23849c11"><use xlink:href="#z23849d11"/></clipPath>
</defs>
<path style="--d:1s;" pathLength="3333" clip-path="url(#z23849c1)" d="M480 56L525 92L512 240"/>
<path style="--d:2s;" pathLength="3333" clip-path="url(#z23849c2)" d="M294 155L332 200L313 292L334 312L442 273L687 237"/>
<path style="--d:3s;" pathLength="3333" clip-path="url(#z23849c3)" d="M681 97L728 142L718 298"/>
<path style="--d:4s;" pathLength="3333" clip-path="url(#z23849c4)" d="M215 387L260 443L239 680L190 790L90 884"/>
<path style="--d:5s;" pathLength="3333" clip-path="url(#z23849c5)" d="M287 404L389 383L434 413L426 818L400 858L320 803"/>
<path style="--d:6s;" pathLength="3333" clip-path="url(#z23849c6)" d="M288 554L370 536"/>
<path style="--d:7s;" pathLength="3333" clip-path="url(#z23849c7)" d="M268 675L379 658"/>
<path style="--d:8s;" pathLength="3333" clip-path="url(#z23849c8)" d="M553 360L599 411L589 624L549 770L473 903"/>
<path style="--d:9s;" pathLength="3333" clip-path="url(#z23849c9)" d="M620 373L769 347L813 385L809 856L775 895L679 830"/>
<path style="--d:10s;" pathLength="3333" clip-path="url(#z23849c10)" d="M627 524L742 509"/>
<path style="--d:11s;" pathLength="3333" clip-path="url(#z23849c11)" d="M615 661L742 642"/>
</svg>