<!--
AnimCJK 2016-2019 Copyright Francois Mizessyn - https://github.com/parsimonhi/animCJK
Derived from:
    MakeMeAHanzi project - https://github.com/skishore/makemeahanzi
    Arphic PL KaitiM GB font
    Arphic PL UKai font
You can redistribute and/or modify this file under the terms of the Arphic Public License
as published by Arphic Technology Co., Ltd.
You should have received a copy of this license along with this file.
If not, see http://ftp.gnu.org/non-gnu/chinese-fonts-truetype/LICENSE.
-->
<svg id="z23853" class="acjk" version="1.1" viewBox="0 0 1024 1024" xmlns="http://www.w3.org/2000/svg" xmlns:xlink="http://www.w3.org/1999/xlink">
<style>
<![CDATA[
@keyframes zk {
	to {
		stroke-dashoffset:0;
	}
}
svg.acjk path[clip-path] {
	--t:0.8s;
	animation:zk var(--t) linear forwards var(--d);
	stroke-dasharray:3337;
	stroke-dashoffset:3339;
	stroke-width:128;
	stroke-linecap:round;
	fill:none;
	stroke:#000;
}
svg.acjk path[id] {fill:#ccc;}
]]>
</style>
<path id="z23853d1" d="M521 192C535 128 544 89 550 76C552 69 548 61 537 53C518 40 501 34 488 31C479 28 472 29 468 34C463 38 461 45 467 53C475 66 482 113 483 197C483 210 518 205 521 192Z"/>
<path id="z23853d2" d="M310 282C337 261 420 240 562 219C612 211 647 208 667 210C678 210 685 178 674 178C620 180 569 185 521 192C496 195 496 195 483 197C435 203 390 212 349 222C338 224 336 218 339 206C348 163 351 137 348 131C340 118 328 108 315 99C308 94 301 91 296 93C289 94 287 102 291 114C305 166 298 205 270 232C258 242 253 251 258 260C263 270 271 278 281 286C287 290 295 292 302 288C305 287 307 284 310 282Z"/>
<path id="z23853d3" d="M667 210C669 226 671 241 677 255C681 265 688 267 696 261C710 249 720 222 729 181C732 165 743 136 755 117C764 100 750 79 711 53C703 47 695 47 688 50C683 51 677 57 681 66C684 73 691 91 689 124C687 145 680 162 674 178C670 188 665 199 667 210Z"/>
<path id="z23853d4" d="M306 455Q465 422 470 418Q479 411 475 403Q468 393 442 385Q414 379 387 389Q362 396 335 405C295 415 295 415 275 420Q223 429 165 434Q131 438 155 455Q188 476 256 464C289 458 289 458 306 455Z"/>
<path id="z23853d5" d="M376 603C398 598 419 595 439 594C457 593 464 588 459 579C453 570 445 564 435 560C425 555 407 562 378 569C348 576 348 576 333 579C269 593 245 597 239 598C230 598 232 591 235 587C252 546 277 503 306 455C325 422 325 422 335 405C349 380 361 365 369 360C377 353 377 342 368 330C353 311 340 298 329 289C321 282 314 280 310 282C307 283 303 285 302 288C301 292 301 298 303 306C305 322 299 362 275 420C262 449 262 449 256 464C248 481 193 575 171 595C160 604 156 612 159 623C162 635 166 644 173 652C178 658 184 661 191 658C225 640 272 624 332 612C361 606 361 606 376 603Z"/>
<path id="z23853d6" d="M325 733C320 793 313 827 311 834C301 866 313 900 346 933C347 934 347 934 347 934C351 938 358 931 362 924C370 905 371 887 371 869C369 815 370 764 372 716C373 691 373 691 373 679C373 651 374 625 376 603C377 580 377 580 378 569C380 533 384 519 380 515C367 500 357 493 343 487C336 484 330 486 324 490C320 492 320 495 325 502C330 510 334 536 333 579C332 601 332 601 332 612C331 630 329 664 328 690C326 719 326 719 325 733Z"/>
<path id="z23853d7" d="M372 716C416 699 490 673 491 656C491 650 480 650 473 652C440 660 407 670 373 679C343 686 343 686 328 690C198 721 121 733 98 732C89 731 83 736 81 743C78 751 80 760 87 766C101 778 119 791 143 805C149 808 157 806 166 801C194 782 248 760 325 733C356 722 356 722 372 716Z"/>
<path id="z23853d8" d="M593 425C628 413 753 351 779 344C789 341 796 336 797 332C797 317 781 308 762 299C742 290 714 282 697 288C692 289 691 295 692 302C692 320 657 354 587 405C582 409 587 428 593 425Z"/>
<path id="z23853d9" d="M585 517C586 483 587 452 593 425C594 418 592 410 587 405C584 402 579 398 576 397C545 382 527 377 517 380C504 382 504 389 514 404C533 433 538 507 528 625C525 655 515 688 500 725C488 753 462 795 416 845C409 852 399 856 394 869C392 873 396 875 404 875C448 871 496 827 544 743C546 739 547 735 549 732C568 690 580 626 584 541C585 525 585 525 585 517Z"/>
<path id="z23853d10" d="M735 532C753 528 808 518 903 508C913 506 917 504 918 499C918 490 911 479 895 469C867 451 835 454 799 468C762 481 699 495 586 516C584 516 583 516 585 517C578 520 576 539 584 541C596 545 646 548 687 541C719 535 719 535 735 532Z"/>
<path id="z23853d11" d="M711 936C713 952 717 963 722 969C725 973 730 976 735 974C743 970 750 948 756 910C760 879 761 848 761 817C760 790 762 726 767 626C767 624 769 607 774 575C775 564 772 555 764 549C753 540 743 535 735 532C720 526 679 527 687 541C699 560 705 576 706 594C708 652 708 728 708 821C707 877 708 916 711 936Z"/>
<defs>
	<clipPath id="z23853c1"><use xlink:href="#z23853d1"/></clipPath>
	<clipPath id="z23853c2"><use xlink:href="#z23853d2"/></clipPath>
	<clipPath id="z23853c3"><use xlink:href="#z23853d3"/></clipPath>
	<clipPath id="z23853c4"><use xlink:href="#z23853d4"/></clipPath>
	<clipPath id="z23853c5"><use xlink:href="#z23853d5"/></clipPath>
	<clipPath id="z23853c6"><use xlink:href="#z23853d6"/></clipPath>
	<clipPath id="z23853c7"><use xlink:href="#z23853d7"/></clipPath>
	<clipPath id="z23853c8"><use xlink:href="#z23853d8"/></clipPath>
	<clipPath id="z23853c9"><use xlink:href="#z23853d9"/></clipPath>
	<clipPath id="z23853c10"><use xlink:href="#z23853d10"/></clipPath>
	<clipPath id="z23853c11"><use xlink:href="#z23853d11"/></clipPath>
</defs>
<path style="--d:1s;" pathLength="3333" clip-path="url(#z23853c1)" d="M474 40L513 76L493 192"/>
<path style="--d:2s;" pathLength="3333" clip-path="url(#z23853c2)" d="M298 101L323 140L305 236L322 255L670 189"/>
<path style="--d:3s;" pathLength="3333" clip-path="url(#z23853c3)" d="M692 54L724 109L692 256"/>
<path style="--d:4s;" pathLength="3333" clip-path="url(#z23853c4)" d="M152 442L472 408"/>
<path style="--d:5s;" pathLength="3333" clip-path="url(#z23853c5)" d="M312 286L335 351L203 618L455 584"/>
<path style="--d:6s;" pathLength="3333" clip-path="url(#z23853c6)" d="M328 491L356 537L348 927"/>
<path style="--d:7s;" pathLength="3333" clip-path="url(#z23853c7)" d="M83 743L153 766L483 659"/>
<path style="--d:8s;" pathLength="3333" clip-path="url(#z23853c8)" d="M 701,294 746,329 595,416"/>
<path style="--d:9s;" pathLength="3333" clip-path="url(#z23853c9)" d="M513 389L559 431L545 664L491 784L403 870"/>
<path style="--d:10s;" pathLength="3333" clip-path="url(#z23853c10)" d="M588 535L847 485L912 492"/>
<path style="--d:11s;" pathLength="3333" clip-path="url(#z23853c11)" d="M697 544L739 574L732 968"/>
</svg>