<!--
AnimCJK 2016-2019 Copyright Francois Mizessyn - https://github.com/parsimonhi/animCJK
Derived from:
    MakeMeAHanzi project - https://github.com/skishore/makemeahanzi
    Arphic PL KaitiM GB font
    Arphic PL UKai font
You can redistribute and/or modify this file under the terms of the Arphic Public License
as published by Arphic Technology Co., Ltd.
You should have received a copy of this license along with this file.
If not, see http://ftp.gnu.org/non-gnu/chinese-fonts-truetype/LICENSE.
-->
<svg id="z23901" class="acjk" version="1.1" viewBox="0 0 1024 1024" xmlns="http://www.w3.org/2000/svg" xmlns:xlink="http://www.w3.org/1999/xlink">
<style>
<![CDATA[
@keyframes zk {
	to {
		stroke-dashoffset:0;
	}
}
svg.acjk path[clip-path] {
	--t:0.8s;
	animation:zk var(--t) linear forwards var(--d);
	stroke-dasharray:3337;
	stroke-dashoffset:3339;
	stroke-width:128;
	stroke-linecap:round;
	fill:none;
	stroke:#000;
}
svg.acjk path[id] {fill:#ccc;}
]]>
</style>
<path id="z23901d1" d="M246 557Q259 275 275 210Q279 198 258 184Q224 165 198 161Q182 158 174 167Q167 174 175 189Q199 223 199 245Q209 396 203 572C203 587 246 572 246 557Z"/>
<path id="z23901d2" d="M318 537Q281 544 246 557C217 567 217 567 203 572Q166 584 135 598Q120 602 122 584Q123 535 126 482Q127 460 118 448Q103 433 80 422Q70 418 60 420Q51 424 59 442Q87 494 81 547Q80 599 60 623Q44 639 53 652Q65 665 81 673Q94 679 103 670Q122 640 258 589Q295 576 314 573C326 571 330 535 318 537Z"/>
<path id="z23901d3" d="M314 573Q320 597 328 613Q337 628 347 617Q369 595 370 519Q383 438 389 430Q396 417 386 405Q370 392 340 375Q328 369 317 375Q311 378 313 390Q340 427 319 534Q318 535 318 537C316 549 312 561 314 573Z"/>
<path id="z23901d4" d="M458 236Q480 255 502 280Q514 290 527 291Q537 291 541 279Q545 266 539 241Q535 225 509 212Q451 188 436 193Q432 197 432 208Q436 218 458 236Z"/>
<path id="z23901d5" d="M714 177Q696 204 660 244Q654 250 659 257Q666 258 673 255Q746 216 781 202Q797 199 795 188Q791 173 774 154Q758 136 736 132Q723 132 722 150Q723 163 714 177Z"/>
<path id="z23901d6" d="M628 353Q670 343 805 326Q815 327 825 314Q826 302 803 292Q776 271 678 298Q639 304 614 314C591 319 591 319 579 321Q531 327 420 343Q392 347 414 364Q445 391 475 383Q503 376 539 370C598 359 598 359 628 353Z"/>
<path id="z23901d7" d="M614 314Q620 164 647 114Q653 104 641 91Q590 49 561 59Q548 63 553 78Q583 126 580 201Q580 268 579 321C576 380 576 380 575 409Q566 512 569 523Q575 533 581 545Q591 561 605 553Q615 544 616 475Q613 430 613 370C614 333 614 333 614 314Z"/>
<path id="z23901d8" d="M539 370Q509 443 397 537Q382 549 397 550Q425 553 496 501Q535 461 549 445Q564 426 575 409C600 367 557 325 539 370Z"/>
<path id="z23901d9" d="M613 370Q754 545 802 554Q902 554 948 545Q964 544 967 538Q968 532 955 527Q789 466 788 465Q734 438 628 353C616 343 603 357 613 370Z"/>
<path id="z23901d10" d="M618 832Q661 866 721 922Q745 944 762 944Q783 945 784 926Q785 905 760 858Q748 834 650 787C619 773 619 773 604 766Q562 747 533 738Q508 732 522 708Q535 680 544 663C555 639 555 639 560 627Q566 614 572 606Q581 599 577 589Q571 576 532 550Q522 541 510 546Q498 550 506 565Q515 587 504 633C497 657 497 657 494 669Q467 735 468 742Q471 752 487 755Q515 764 577 802C604 822 604 822 618 832Z"/>
<path id="z23901d11" d="M577 802Q520 862 380 899Q362 908 383 910Q528 928 618 832C639 802 639 802 650 787Q675 747 689 701Q698 667 708 651C716 638 711 617 699 608Q669 583 637 590Q624 594 630 609Q631 612 633 617C637 642 637 642 639 654Q640 679 627 712Q618 742 604 766C586 790 586 790 577 802Z"/>
<path id="z23901d12" d="M708 651Q900 651 909 644Q909 643 910 642Q916 632 900 618Q843 575 794 591Q752 597 699 608C655 614 655 614 633 617Q594 618 560 627C523 631 523 631 504 633Q410 642 308 655Q289 656 303 673Q316 686 333 692Q354 698 369 694Q427 678 494 669C527 665 527 665 544 663Q569 657 639 654C685 652 685 652 708 651Z"/>
<defs>
	<clipPath id="z23901c1"><use xlink:href="#z23901d1"/></clipPath>
	<clipPath id="z23901c2"><use xlink:href="#z23901d2"/></clipPath>
	<clipPath id="z23901c3"><use xlink:href="#z23901d3"/></clipPath>
	<clipPath id="z23901c4"><use xlink:href="#z23901d4"/></clipPath>
	<clipPath id="z23901c5"><use xlink:href="#z23901d5"/></clipPath>
	<clipPath id="z23901c6"><use xlink:href="#z23901d6"/></clipPath>
	<clipPath id="z23901c7"><use xlink:href="#z23901d7"/></clipPath>
	<clipPath id="z23901c8"><use xlink:href="#z23901d8"/></clipPath>
	<clipPath id="z23901c9"><use xlink:href="#z23901d9"/></clipPath>
	<clipPath id="z23901c10"><use xlink:href="#z23901d10"/></clipPath>
	<clipPath id="z23901c11"><use xlink:href="#z23901d11"/></clipPath>
	<clipPath id="z23901c12"><use xlink:href="#z23901d12"/></clipPath>
</defs>
<path style="--d:1s;" pathLength="3333" clip-path="url(#z23901c1)" d="M177 169L236 221L213 567"/>
<path style="--d:2s;" pathLength="3333" clip-path="url(#z23901c2)" d="M62 425L101 478L102 634L311 547"/>
<path style="--d:3s;" pathLength="3333" clip-path="url(#z23901c3)" d="M319 380L360 430L340 617"/>
<path style="--d:4s;" pathLength="3333" clip-path="url(#z23901c4)" d="M438 203L535 281"/>
<path style="--d:5s;" pathLength="3333" clip-path="url(#z23901c5)" d="M733 140L753 188L664 249"/>
<path style="--d:6s;" pathLength="3333" clip-path="url(#z23901c6)" d="M412 352L471 360L818 310"/>
<path style="--d:7s;" pathLength="3333" clip-path="url(#z23901c7)" d="M559 64L612 121L595 551"/>
<path style="--d:8s;" pathLength="3333" clip-path="url(#z23901c8)" d="M571 370L479 489L400 545"/>
<path style="--d:9s;" pathLength="3333" clip-path="url(#z23901c9)" d="M619 363L795 509L961 535"/>
<path style="--d:10s;" pathLength="3333" clip-path="url(#z23901c10)" d="M510 549L543 596L494 736L703 856L771 939"/>
<path style="--d:11s;" pathLength="3333" clip-path="url(#z23901c11)" d="M635 599L673 653L592 822L496 882L382 903"/>
<path style="--d:12s;" pathLength="3333" clip-path="url(#z23901c12)" d="M304 663L813 618L906 628"/>
</svg>