<!--
AnimCJK 2016-2026 Copyright FM-SH, https://github.com/parsimonhi/animCJK
Derived from:
    MakeMeAHanzi project - https://github.com/skishore/makemeahanzi
    Arphic PL KaitiM GB font
    Arphic PL KaitiM Big5 font
You can redistribute and/or modify this file under the terms of the Arphic Public License
as published by Arphic Technology Co., Ltd.
You should have received a copy of this license along with this file.
If not, see https://ftp.gnu.org/non-gnu/chinese-fonts-truetype/LICENSE.
-->
<svg id="z23991" class="acjk" viewBox="0 0 1024 1024" xmlns="http://www.w3.org/2000/svg">
<style>
<![CDATA[
@keyframes zk {
	to {
		stroke-dashoffset:0;
	}
}
svg.acjk path[clip-path] {
	--t:0.8s;
	animation:zk var(--t) linear forwards var(--d);
	stroke-dasharray:3337;
	stroke-dashoffset:3339;
	stroke-width:128;
	stroke-linecap:round;
	fill:none;
	stroke:#000;
}
svg.acjk path[id] {fill:#ccc;}
]]>
</style>
<path id="z23991d1" d="M516 213Q526 165 535 121Q541 108 546 92Q549 82 533 69Q505 51 484 47Q471 43 464 50Q457 56 463 69Q478 88 479 219C479 231 514 225 516 213Z"/>
<path id="z23991d2" d="M652 198Q579 202 516 213C491 217 491 217 479 219Q404 229 342 247Q327 248 333 232Q352 150 347 138Q335 122 316 108Q307 101 298 102Q288 105 293 122Q306 165 295 204Q285 241 268 257Q252 270 257 283Q264 296 279 307Q291 314 300 308Q330 278 533 240Q623 225 645 232C656 234 664 198 652 198Z"/>
<path id="z23991d3" d="M645 232Q646 254 654 271Q660 287 672 277Q697 256 708 184Q726 136 733 130Q742 117 734 104Q718 88 691 69Q681 62 669 65Q662 68 663 80Q672 93 669 147Q662 178 652 198C647 221 647 221 645 232Z"/>
<path id="z23991d4" d="M240 414C305 407 382 367 417 354C435 346 423 336 413 329C395 316 380 311 369 311C364 310 362 312 361 318C357 336 318 362 244 396C238 398 234 415 240 414Z"/>
<path id="z23991d5" d="M450 466C443 447 440 421 438 389C437 380 431 362 424 384C411 421 402 443 396 450C390 455 382 462 370 465C328 474 290 476 259 467C249 464 244 457 242 451C239 444 236 431 240 414C243 402 243 402 244 396C246 383 249 373 253 366C259 352 257 341 249 334C226 315 211 307 205 310C198 312 195 318 199 326C206 343 210 363 209 389C205 440 207 466 229 485C247 500 294 506 369 506C401 505 424 501 438 495C450 488 454 479 450 466Z"/>
<path id="z23991d6" d="M243 586C252 574 261 564 270 555C275 549 274 541 268 535C248 516 232 508 222 510C216 510 213 514 214 521C217 555 201 590 165 626C156 634 149 641 145 647C140 653 141 655 150 655C168 654 195 639 226 605C237 592 237 592 243 586Z"/>
<path id="z23991d7" d="M310 612C373 600 420 589 423 587C427 582 428 577 426 573C422 566 412 561 397 558C381 554 349 563 301 576C283 580 263 582 243 586C235 587 219 601 226 605C237 611 248 615 263 616C278 616 294 614 310 612Z"/>
<path id="z23991d8" d="M307 725C325 721 365 711 429 703C436 702 462 692 426 673C408 663 375 664 321 680C283 691 283 691 264 696C238 703 188 709 115 722C98 724 96 731 110 741C129 755 147 760 163 757C191 750 221 742 254 736C289 729 289 729 307 725Z"/>
<path id="z23991d9" d="M254 736C236 806 180 854 123 890C94 905 105 910 133 906C154 902 260 874 307 725C316 695 316 695 321 680C331 645 346 632 310 612C297 604 260 601 263 616C267 630 273 657 264 696C257 723 257 723 254 736Z"/>
<path id="z23991d10" d="M332 788C366 819 385 836 390 836C407 836 402 808 400 797C396 783 374 768 331 755C319 751 311 751 313 765C313 769 320 777 332 788Z"/>
<path id="z23991d11" d="M647 443C699 403 735 380 757 374C767 370 770 364 768 355C766 346 748 331 712 311C701 304 671 311 622 328C570 345 528 351 499 351C486 350 480 356 486 367C489 374 497 381 508 387C524 396 541 394 561 385C627 353 666 341 677 348C683 351 687 358 683 364C668 385 650 407 633 433C630 438 642 446 647 443Z"/>
<path id="z23991d12" d="M633 433C618 422 594 415 570 415C565 414 563 418 563 425C562 429 564 434 569 439C607 473 632 489 644 489C652 488 658 482 659 472C660 459 654 448 647 443C638 436 638 436 633 433Z"/>
<path id="z23991d13" d="M615 549C653 540 690 531 728 524C746 520 757 521 759 530C759 538 750 558 733 590C722 608 732 612 749 601C792 569 825 551 844 547C857 543 864 539 864 531C863 523 841 506 798 485C782 477 743 486 680 503C607 521 531 535 451 549C435 551 433 558 446 572C456 583 473 583 502 576C502 576 555 561 582 556C604 551 604 551 615 549Z"/>
<path id="z23991d14" d="M641 808C641 769 644 733 646 700C647 682 647 682 647 673C650 570 664 577 615 549C605 543 580 545 582 556C581 556 581 556 582 557C603 625 597 709 599 782C599 798 641 824 641 808Z"/>
<path id="z23991d15" d="M646 700C660 704 700 698 767 684C804 675 790 655 757 651C738 648 716 658 647 673C638 674 637 698 646 700Z"/>
<path id="z23991d16" d="M529 733C533 721 538 702 553 680C562 664 551 657 521 640C507 632 480 625 484 650C495 722 459 797 361 893C342 912 349 919 374 909C439 880 490 820 519 756C526 741 526 741 529 733Z"/>
<path id="z23991d17" d="M519 756C657 884 742 954 774 956C825 958 877 946 931 932C964 922 953 916 936 912C814 881 745 860 728 852C677 827 648 812 641 808C613 791 613 791 599 782C581 771 559 753 529 733C522 729 512 751 519 756Z"/>
<defs>
	<clipPath id="z23991c1"><use href="#z23991d1"/></clipPath>
	<clipPath id="z23991c2"><use href="#z23991d2"/></clipPath>
	<clipPath id="z23991c3"><use href="#z23991d3"/></clipPath>
	<clipPath id="z23991c4"><use href="#z23991d4"/></clipPath>
	<clipPath id="z23991c5"><use href="#z23991d5"/></clipPath>
	<clipPath id="z23991c6"><use href="#z23991d6"/></clipPath>
	<clipPath id="z23991c7"><use href="#z23991d7"/></clipPath>
	<clipPath id="z23991c8"><use href="#z23991d8"/></clipPath>
	<clipPath id="z23991c9"><use href="#z23991d9"/></clipPath>
	<clipPath id="z23991c10"><use href="#z23991d10"/></clipPath>
	<clipPath id="z23991c11"><use href="#z23991d11"/></clipPath>
	<clipPath id="z23991c12"><use href="#z23991d12"/></clipPath>
	<clipPath id="z23991c13"><use href="#z23991d13"/></clipPath>
	<clipPath id="z23991c14"><use href="#z23991d14"/></clipPath>
	<clipPath id="z23991c15"><use href="#z23991d15"/></clipPath>
	<clipPath id="z23991c16"><use href="#z23991d16"/></clipPath>
	<clipPath id="z23991c17"><use href="#z23991d17"/></clipPath>
</defs>
<path style="--d:1s;" pathLength="3333" clip-path="url(#z23991c1)" d="M469 51L510 96L496 223"/>
<path style="--d:2s;" pathLength="3333" clip-path="url(#z23991c2)" d="M299 110L323 147L297 262L311 278L529 225L652 222"/>
<path style="--d:3s;" pathLength="3333" clip-path="url(#z23991c3)" d="M671 71L703 120L662 275"/>
<path style="--d:4s;" pathLength="3333" clip-path="url(#z23991c4)" d="M369 316L382 345L243 405"/>
<path style="--d:5s;" pathLength="3333" clip-path="url(#z23991c5)" d="M205 314L232 352L223 439L248 479L416 473L429 380"/>
<path style="--d:6s;" pathLength="3333" clip-path="url(#z23991c6)" d="M222 517L240 557L151 648"/>
<path style="--d:7s;" pathLength="3333" clip-path="url(#z23991c7)" d="M231 602L421 572"/>
<path style="--d:8s;" pathLength="3333" clip-path="url(#z23991c8)" d="M110 729L437 690"/>
<path style="--d:9s;" pathLength="3333" clip-path="url(#z23991c9)" d="M272 614L300 650L255 790L200 855L112 902"/>
<path style="--d:10s;" pathLength="3333" clip-path="url(#z23991c10)" d="M319 759L391 831"/>
<path style="--d:11s;" pathLength="3333" clip-path="url(#z23991c11)" d="M490 358L539 369L694 329L724 365L640 437"/>
<path style="--d:12s;" pathLength="3333" clip-path="url(#z23991c12)" d="M568 422L655 475"/>
<path style="--d:13s;" pathLength="3333" clip-path="url(#z23991c13)" d="M442 557L772 504L810 536L737 600"/>
<path style="--d:14s;" pathLength="3333" clip-path="url(#z23991c14)" d="M588 554L621 595L629 809"/>
<path style="--d:15s;" pathLength="3333" clip-path="url(#z23991c15)" d="M642 685L782 669"/>
<path style="--d:16s;" pathLength="3333" clip-path="url(#z23991c16)" d="M492 638L520 679L491 759L439 838L356 905"/>
<path style="--d:17s;" pathLength="3333" clip-path="url(#z23991c17)" d="M525 740L762 908L946 921"/>
</svg>