<!--
AnimCJK 2016-2018 Copyright Francois Mizessyn, http://gooo.free.fr/animCJK/
Derived from:
    MakeMeAHanzi project - https://github.com/skishore/makemeahanzi
    Arphic PL KaitiM GB - https://apps.ubuntu.com/cat/applications/precise/fonts-arphic-gkai00mp/
    Arphic PL UKai - https://apps.ubuntu.com/cat/applications/fonts-arphic-ukai/
You can redistribute and/or modify this file under the terms of the Arphic Public License
as published by Arphic Technology Co., Ltd.
You should have received a copy of this license (the directory "APL") along with this file;
if not, see http://ftp.gnu.org/non-gnu/chinese-fonts-truetype/LICENSE.
-->
<svg id="z23991" class="acjk" version="1.1" viewBox="0 0 1024 1024" xmlns="http://www.w3.org/2000/svg" xmlns:xlink="http://www.w3.org/1999/xlink">
<style>
<![CDATA[
@keyframes z23991k {
	from {
		stroke:#ccc;
		stroke-dashoffset:3334;
	}
	1% {
		stroke:#c00;
		stroke-dashoffset:3334;
	}
	75% {
		stroke:#c00;
		stroke-dashoffset:0;
	}
	to {
		stroke:#000;
	}
}
#z23991 path[clip-path] {
	animation:z23991k 1s linear both;
	stroke-dasharray:3334;
	stroke-width:128;
	stroke-linecap:round;
	fill:none;
}
#z23991 path[clip-path="url(#z23991c1)"] {animation-delay:1s;}
#z23991 path[clip-path="url(#z23991c2)"] {animation-delay:2s;}
#z23991 path[clip-path="url(#z23991c3)"] {animation-delay:3s;}
#z23991 path[clip-path="url(#z23991c4)"] {animation-delay:4s;}
#z23991 path[clip-path="url(#z23991c5)"] {animation-delay:5s;}
#z23991 path[clip-path="url(#z23991c6)"] {animation-delay:6s;}
#z23991 path[clip-path="url(#z23991c7)"] {animation-delay:7s;}
#z23991 path[clip-path="url(#z23991c8)"] {animation-delay:8s;}
#z23991 path[clip-path="url(#z23991c9)"] {animation-delay:9s;}
#z23991 path[clip-path="url(#z23991c10)"] {animation-delay:10s;}
#z23991 path[clip-path="url(#z23991c11)"] {animation-delay:11s;}
#z23991 path[clip-path="url(#z23991c12)"] {animation-delay:12s;}
#z23991 path[clip-path="url(#z23991c13)"] {animation-delay:13s;}
#z23991 path[clip-path="url(#z23991c14)"] {animation-delay:14s;}
#z23991 path[clip-path="url(#z23991c15)"] {animation-delay:15s;}
#z23991 path[clip-path="url(#z23991c16)"] {animation-delay:16s;}
#z23991 path[clip-path="url(#z23991c17)"] {animation-delay:17s;}
#z23991 path {fill:#ccc;}
]]>
</style>
<path id="z23991d1" d="M516 213Q526 165 535 121Q541 108 546 92Q549 82 533 69Q505 51 484 47Q471 43 464 50Q457 56 463 69Q478 88 479 219L516 213 Z"/>
<path id="z23991d2" d="M652 198Q579 202 516 213L479 219Q404 229 342 247Q327 248 333 232Q352 150 347 138Q335 122 316 108Q307 101 298 102Q288 105 293 122Q306 165 295 204Q285 241 268 257Q252 270 257 283Q264 296 279 307Q291 314 300 308Q330 278 533 240Q623 225 645 232L652 198 Z"/>
<path id="z23991d3" d="M645 232Q646 254 654 271Q660 287 672 277Q697 256 708 184Q726 136 733 130Q742 117 734 104Q718 88 691 69Q681 62 669 65Q662 68 663 80Q672 93 669 147Q662 178 652 198L645 232 Z"/>
<path id="z23991d4" d="M240 414Q298 410 393 364Q403 357 417 354Q427 351 427 344Q426 338 413 329Q386 311 369 311Q362 310 361 318Q355 346 244 396L240 414 Z"/>
<path id="z23991d5" d="M450 466Q441 438 438 389Q437 379 433 375Q429 371 424 384Q406 441 396 450Q389 459 370 465Q307 478 259 467Q246 460 242 451Q238 441 240 414L244 396Q247 377 253 366Q262 345 249 334Q215 307 205 310Q195 314 199 326Q212 351 209 389Q205 467 229 485Q257 507 369 506Q418 505 438 495Q457 486 450 466 Z"/>
<path id="z23991d6" d="M243 586Q256 568 270 555Q277 546 268 535Q237 508 222 510Q213 511 214 521Q220 573 165 626Q152 639 145 647Q138 657 150 655Q178 655 226 605L243 586 Z"/>
<path id="z23991d7" d="M310 612Q419 590 423 587Q430 580 426 573Q420 564 397 558Q373 554 301 576Q274 580 243 586L226 605Q239 612 257 615Q258 615 263 616L310 612 Z"/>
<path id="z23991d8" d="M307 725Q334 718 429 703Q438 704 446 692Q447 682 426 673Q402 655 321 680L264 696Q225 703 115 722Q90 726 110 741Q140 762 163 757Q205 747 254 736L307 725 Z"/>
<path id="z23991d9" d="M254 736Q206 844 109 899Q97 906 107 909Q152 913 212 869Q281 820 306 729Q306 726 307 725L321 680Q325 664 335 651Q344 636 331 628Q321 618 310 612L263 616Q270 637 264 696L254 736 Z"/>
<path id="z23991d10" d="M332 788Q383 836 390 836Q397 836 402 827Q405 817 400 797Q396 776 331 755Q321 752 316 754Q312 755 313 765Q314 772 332 788 Z"/>
<path id="z23991d11" d="M647 443Q725 383 757 374Q773 368 768 355Q767 342 712 311Q696 302 622 328Q544 352 499 351Q480 350 486 367Q493 377 508 387Q533 400 561 385Q661 339 677 348Q687 354 683 364Q659 395 633 433L647 443 Z"/>
<path id="z23991d12" d="M633 433Q615 421 570 415Q563 415 563 425Q562 432 569 439Q627 490 644 489Q656 488 659 472Q659 460 649 444Q648 443 647 443L633 433 Z"/>
<path id="z23991d13" d="M615 549Q672 534 728 524Q756 517 759 530Q759 543 733 590Q726 603 731 607Q737 611 749 601Q816 555 844 547Q865 543 864 531Q863 519 798 485Q774 475 680 503Q571 528 451 549Q427 552 446 572Q461 590 502 576Q542 566 582 556L615 549 Z"/>
<path id="z23991d14" d="M641 808Q642 750 646 700L647 673Q648 646 650 622Q654 582 649 575Q631 557 615 549L582 556Q581 556 582 557Q594 581 597 665Q597 707 599 782L641 808 Z"/>
<path id="z23991d15" d="M646 700Q668 706 767 684Q782 681 784 679Q791 672 787 665Q780 656 757 651Q751 651 647 673L646 700 Z"/>
<path id="z23991d16" d="M529 733Q533 715 553 680Q560 671 554 662Q548 655 521 640Q502 630 494 633Q482 637 484 650Q503 762 351 904Q344 911 350 914Q375 918 439 865Q478 835 519 756L529 733 Z"/>
<path id="z23991d17" d="M519 756Q727 949 774 956Q852 956 931 932Q949 928 950 923Q951 916 936 912Q755 864 728 852Q653 815 641 808L599 782Q575 764 529 733L519 756 Z"/>
<defs>
	<clipPath id="z23991c1"><use xlink:href="#z23991d1"/></clipPath>
	<clipPath id="z23991c2"><use xlink:href="#z23991d2"/></clipPath>
	<clipPath id="z23991c3"><use xlink:href="#z23991d3"/></clipPath>
	<clipPath id="z23991c4"><use xlink:href="#z23991d4"/></clipPath>
	<clipPath id="z23991c5"><use xlink:href="#z23991d5"/></clipPath>
	<clipPath id="z23991c6"><use xlink:href="#z23991d6"/></clipPath>
	<clipPath id="z23991c7"><use xlink:href="#z23991d7"/></clipPath>
	<clipPath id="z23991c8"><use xlink:href="#z23991d8"/></clipPath>
	<clipPath id="z23991c9"><use xlink:href="#z23991d9"/></clipPath>
	<clipPath id="z23991c10"><use xlink:href="#z23991d10"/></clipPath>
	<clipPath id="z23991c11"><use xlink:href="#z23991d11"/></clipPath>
	<clipPath id="z23991c12"><use xlink:href="#z23991d12"/></clipPath>
	<clipPath id="z23991c13"><use xlink:href="#z23991d13"/></clipPath>
	<clipPath id="z23991c14"><use xlink:href="#z23991d14"/></clipPath>
	<clipPath id="z23991c15"><use xlink:href="#z23991d15"/></clipPath>
	<clipPath id="z23991c16"><use xlink:href="#z23991d16"/></clipPath>
	<clipPath id="z23991c17"><use xlink:href="#z23991d17"/></clipPath>
</defs>
<path pathLength="3333" clip-path="url(#z23991c1)" d="M470 51L509 94L493 216"/>
<path pathLength="3333" clip-path="url(#z23991c2)" d="M299 109L323 149L297 261L315 279L484 233L646 219"/>
<path pathLength="3333" clip-path="url(#z23991c3)" d="M672 73L704 117L662 275"/>
<path pathLength="3333" clip-path="url(#z23991c4)" d="M417 342L371 342L246 404"/>
<path pathLength="3333" clip-path="url(#z23991c5)" d="M208 314L231 346L226 449L257 481L407 477L431 385"/>
<path pathLength="3333" clip-path="url(#z23991c6)" d="M221 519L241 556L149 648"/>
<path pathLength="3333" clip-path="url(#z23991c7)" d="M238 602L420 574"/>
<path pathLength="3333" clip-path="url(#z23991c8)" d="M109 731L438 688"/>
<path pathLength="3333" clip-path="url(#z23991c9)" d="M271 623L301 658L264 772L208 846L113 905"/>
<path pathLength="3333" clip-path="url(#z23991c10)" d="M321 760L397 826"/>
<path pathLength="3333" clip-path="url(#z23991c11)" d="M492 358L544 369L698 331L724 366L640 432"/>
<path pathLength="3333" clip-path="url(#z23991c12)" d="M568 426L654 475"/>
<path pathLength="3333" clip-path="url(#z23991c13)" d="M444 558L770 504L811 534L734 600"/>
<path pathLength="3333" clip-path="url(#z23991c14)" d="M589 558L621 592L620 780L636 797"/>
<path pathLength="3333" clip-path="url(#z23991c15)" d="M651 693L782 672"/>
<path pathLength="3333" clip-path="url(#z23991c16)" d="M493 641L521 681L483 774L354 908"/>
<path pathLength="3333" clip-path="url(#z23991c17)" d="M530 741L776 913L942 920"/>
</svg>