<!--
AnimCJK 2016-2026 Copyright FM-SH, https://github.com/parsimonhi/animCJK
Derived from:
    MakeMeAHanzi project - https://github.com/skishore/makemeahanzi
    Arphic PL KaitiM GB font
    Arphic PL KaitiM Big5 font
You can redistribute and/or modify this file under the terms of the Arphic Public License
as published by Arphic Technology Co., Ltd.
You should have received a copy of this license along with this file.
If not, see https://ftp.gnu.org/non-gnu/chinese-fonts-truetype/LICENSE.
-->
<svg id="z24031" class="acjk" viewBox="0 0 1024 1024" xmlns="http://www.w3.org/2000/svg">
<style>
<![CDATA[
@keyframes zk {
	to {
		stroke-dashoffset:0;
	}
}
svg.acjk path[clip-path] {
	--t:0.8s;
	animation:zk var(--t) linear forwards var(--d);
	stroke-dasharray:3337;
	stroke-dashoffset:3339;
	stroke-width:128;
	stroke-linecap:round;
	fill:none;
	stroke:#000;
}
svg.acjk path[id] {fill:#ccc;}
]]>
</style>
<path id="z24031d1" d="M482 128C498 142 512 160 530 179C553 204 603 208 581 126C577 113 565 100 544 91C516 78 493 72 477 69C450 63 444 67 447 88C448 96 461 109 482 128Z"/>
<path id="z24031d2" d="M375 310C479 295 585 278 693 261C753 251 787 240 797 233C808 224 808 205 767 194C746 188 725 190 705 197C555 242 393 267 220 279C195 280 190 290 208 302C237 321 271 323 308 319C353 313 353 313 375 310Z"/>
<path id="z24031d3" d="M308 319C324 335 326 356 318 423C316 437 307 453 290 473C275 488 281 507 307 525C317 531 324 525 336 519C406 474 527 452 692 458C718 458 799 453 750 421C707 393 665 390 619 401C547 417 471 429 393 453C367 460 362 455 366 433C374 381 376 363 388 345C400 324 384 314 375 310C356 298 294 301 308 319Z"/>
<path id="z24031d4" d="M259 569C263 578 271 600 273 636C276 714 241 821 136 906C103 931 112 940 144 930C262 894 305 795 333 632C336 607 358 584 332 565C300 543 279 533 267 534C252 535 249 551 259 569Z"/>
<path id="z24031d5" d="M421 562C443 616 450 695 431 831C427 857 429 882 452 908C458 916 467 916 473 908C484 889 490 850 491 795C491 700 493 671 495 627C496 582 513 569 482 551C475 546 395 502 421 562Z"/>
<path id="z24031d6" d="M939 866C927 825 920 768 917 703C915 683 901 663 895 696C878 777 864 828 851 841C835 857 811 866 754 866C720 866 696 861 684 854C658 840 646 804 649 723C650 658 656 645 675 594C683 572 677 553 664 543C629 514 607 504 597 508C586 510 583 524 590 539C603 565 607 596 607 637C604 763 588 824 639 885C666 919 715 927 758 927C801 927 852 925 919 916C941 912 945 886 939 866Z"/>
<defs>
	<clipPath id="z24031c1"><use href="#z24031d1"/></clipPath>
	<clipPath id="z24031c2"><use href="#z24031d2"/></clipPath>
	<clipPath id="z24031c3"><use href="#z24031d3"/></clipPath>
	<clipPath id="z24031c4"><use href="#z24031d4"/></clipPath>
	<clipPath id="z24031c5"><use href="#z24031d5"/></clipPath>
	<clipPath id="z24031c6"><use href="#z24031d6"/></clipPath>
</defs>
<path style="--d:1s;" pathLength="3333" clip-path="url(#z24031c1)" d="M452 71L536 127L574 189"/>
<path style="--d:2s;" pathLength="3333" clip-path="url(#z24031c2)" d="M205 288L347 291L796 212"/>
<path style="--d:3s;" pathLength="3333" clip-path="url(#z24031c3)" d="M312 311L356 339L325 468L342 490L571 434L761 439"/>
<path style="--d:4s;" pathLength="3333" clip-path="url(#z24031c4)" d="M260 539L307 599L281 745L218 859L122 926"/>
<path style="--d:5s;" pathLength="3333" clip-path="url(#z24031c5)" d="M423 536L466 584L460 910"/>
<path style="--d:6s;" pathLength="3333" clip-path="url(#z24031c6)" d="M594 513L639 567L627 793L668 877L788 896L895 869L907 686"/>
</svg>