<!--
AnimCJK 2016-2019 Copyright Francois Mizessyn - https://github.com/parsimonhi/animCJK
Derived from:
    MakeMeAHanzi project - https://github.com/skishore/makemeahanzi
    Arphic PL KaitiM GB font
    Arphic PL UKai font
You can redistribute and/or modify this file under the terms of the Arphic Public License
as published by Arphic Technology Co., Ltd.
You should have received a copy of this license along with this file.
If not, see http://ftp.gnu.org/non-gnu/chinese-fonts-truetype/LICENSE.
-->
<svg id="z24046" class="acjk" version="1.1" viewBox="0 0 1024 1024" xmlns="http://www.w3.org/2000/svg" xmlns:xlink="http://www.w3.org/1999/xlink">
<style>
<![CDATA[
@keyframes zk {
	to {
		stroke-dashoffset:0;
	}
}
svg.acjk path[clip-path] {
	--t:0.8s;
	animation:zk var(--t) linear forwards var(--d);
	stroke-dasharray:3337;
	stroke-dashoffset:3339;
	stroke-width:128;
	stroke-linecap:round;
	fill:none;
	stroke:#000;
}
svg.acjk path[id] {fill:#ccc;}
]]>
</style>
<path id="z24046d1" d="M366 149Q408 195 441 210Q454 211 463 199Q469 187 466 172Q454 135 377 113Q361 109 353 112Q347 113 350 125Q351 135 366 149Z"/>
<path id="z24046d2" d="M598 100Q586 124 530 201Q520 219 538 215Q581 190 606 171Q669 122 685 115Q707 105 695 86Q680 70 653 56Q628 43 616 47Q603 48 608 62Q612 81 598 100Z"/>
<path id="z24046d3" d="M476 297Q560 282 649 270Q709 260 717 251Q727 244 722 236Q716 223 688 215Q660 208 630 218Q474 264 311 273Q275 277 300 295Q336 319 396 309Q406 306 420 306C457 300 457 300 476 297Z"/>
<path id="z24046d4" d="M484 424Q557 411 674 399Q684 400 692 389Q693 379 672 368Q642 346 576 366Q504 378 496 383C453 390 453 390 431 394Q419 394 317 405Q289 408 310 425Q340 449 371 443Q395 437 424 434C464 427 464 427 484 424Z"/>
<path id="z24046d5" d="M447 550Q474 541 595 536Q664 533 822 532Q841 532 847 524Q853 512 836 498Q784 459 746 467Q653 486 494 509Q478 510 460 514C421 519 421 519 401 521Q298 531 185 546Q163 547 179 565Q192 578 211 585Q232 589 248 586Q315 567 389 557C428 552 428 552 447 550Z"/>
<path id="z24046d6" d="M401 651Q441 561 447 550C456 526 456 526 460 514Q469 484 477 454Q480 438 484 424C492 397 492 397 496 383Q503 367 513 349Q520 339 512 329Q499 313 476 297C461 286 410 290 420 306Q441 342 431 394C426 421 426 421 424 434Q414 482 401 521C393 545 393 545 389 557Q325 732 183 834Q152 856 110 881Q97 885 94 890Q90 896 105 898Q150 902 263 821Q329 772 392 667C398 656 398 656 401 651Z"/>
<path id="z24046d7" d="M549 677Q600 667 654 659Q691 652 698 647Q707 640 702 632Q696 619 668 612Q647 606 538 633Q436 646 407 649Q403 649 401 651C395 653 388 663 392 667Q425 700 492 685Q498 684 508 683C535 679 535 679 549 677Z"/>
<path id="z24046d8" d="M542 843Q554 785 563 738Q569 702 567 697Q558 685 549 677C539 667 505 669 508 683Q511 692 497 847C497 862 539 858 542 843Z"/>
<path id="z24046d9" d="M497 847Q403 853 298 862Q276 863 291 881Q306 897 324 903Q345 910 362 906Q545 867 823 889Q844 890 849 881Q856 869 839 854Q785 811 747 818Q674 830 545 842Q544 842 542 843C512 846 512 846 497 847Z"/>
<defs>
	<clipPath id="z24046c1"><use xlink:href="#z24046d1"/></clipPath>
	<clipPath id="z24046c2"><use xlink:href="#z24046d2"/></clipPath>
	<clipPath id="z24046c3"><use xlink:href="#z24046d3"/></clipPath>
	<clipPath id="z24046c4"><use xlink:href="#z24046d4"/></clipPath>
	<clipPath id="z24046c5"><use xlink:href="#z24046d5"/></clipPath>
	<clipPath id="z24046c6"><use xlink:href="#z24046d6"/></clipPath>
	<clipPath id="z24046c7"><use xlink:href="#z24046d7"/></clipPath>
	<clipPath id="z24046c8"><use xlink:href="#z24046d8"/></clipPath>
	<clipPath id="z24046c9"><use xlink:href="#z24046d9"/></clipPath>
</defs>
<path style="--d:1s;" pathLength="3333" clip-path="url(#z24046c1)" d="M356 119L460 196"/>
<path style="--d:2s;" pathLength="3333" clip-path="url(#z24046c2)" d="M615 54L646 105L534 211"/>
<path style="--d:3s;" pathLength="3333" clip-path="url(#z24046c3)" d="M300 285L719 240"/>
<path style="--d:4s;" pathLength="3333" clip-path="url(#z24046c4)" d="M308 413L686 382"/>
<path style="--d:5s;" pathLength="3333" clip-path="url(#z24046c5)" d="M180 554L237 563L739 500L842 517"/>
<path style="--d:6s;" pathLength="3333" clip-path="url(#z24046c6)" d="M428 309L474 353L381 637L267 791L101 892"/>
<path style="--d:7s;" pathLength="3333" clip-path="url(#z24046c7)" d="M398 665L698 639"/>
<path style="--d:8s;" pathLength="3333" clip-path="url(#z24046c8)" d="M515 687L536 723L511 845"/>
<path style="--d:9s;" pathLength="3333" clip-path="url(#z24046c9)" d="M291 869L350 882L749 850L847 870"/>
</svg>