<!--
AnimCJK 2016-2017 Copyright Francois Mizessyn, http://gooo.free.fr/animCJK/
Derived from:
    MakeMeAHanzi project - https://github.com/skishore/makemeahanzi
    Arphic PL KaitiM GB - https://apps.ubuntu.com/cat/applications/precise/fonts-arphic-gkai00mp/
    Arphic PL UKai - https://apps.ubuntu.com/cat/applications/fonts-arphic-ukai/
You can redistribute and/or modify this file under the terms of the Arphic Public License
as published by Arphic Technology Co., Ltd.
You should have received a copy of this license (the directory "APL") along with this file;
if not, see http://ftp.gnu.org/non-gnu/chinese-fonts-truetype/LICENSE.
-->
<svg id="z24049" class="acjk" version="1.1" viewBox="0 0 1024 1024" xmlns="http://www.w3.org/2000/svg" xmlns:xlink="http://www.w3.org/1999/xlink">
<style>
<![CDATA[
	@keyframes z24049k {
		from {
			stroke:#c00;
			stroke-dashoffset:3000;
		}
		75% {
			stroke:#c00;
			stroke-dashoffset:0;
		}
		to {
			stroke:#000;
		}
	}
	#z24049 path[clip-path] {
		animation:z24049k 1s linear both;
		stroke-dasharray:3000;
		stroke-width:128;
		stroke-linecap:round;
		fill:none;
	}
	#z24049 path[clip-path="url(#z24049c1)"] {animation-delay:1s;}
	#z24049 path[clip-path="url(#z24049c2)"] {animation-delay:2s;}
	#z24049 path[clip-path="url(#z24049c3)"] {animation-delay:3s;}
	#z24049 path {fill:#ccc;}
]]>
</style>
<g transform="scale(1,-1) translate(0,-900)">
	<path id="z24049d1" d="M589 542Q631 656 676 686Q698 708 680 732Q659 750 593 783Q569 795 477 759Q351 728 258 716Q236 715 239 702Q243 692 266 684Q297 671 342 685Q436 701 525 718Q547 724 557 714Q570 701 564 674Q546 602 525 544L589 542Z"/>
	<path id="z24049d2" d="M299 457Q359 478 606 501Q618 502 620 513Q620 522 589 542L525 544Q396 513 295 496L299 457Z"/>
	<path id="z24049d3" d="M906 154Q885 220 876 330Q875 349 866 354Q856 360 852 337Q834 199 815 174Q755 108 523 111Q394 115 339 137Q291 162 281 195Q254 280 284 406Q288 437 299 457L295 496Q292 500 289 503Q232 546 215 542Q197 535 206 516Q228 473 222 410Q215 223 234 169Q273 78 432 58Q532 46 689 58Q831 68 885 101Q919 117 906 154Z"/>
	<defs>
		<clipPath id="z24049c1"><use xlink:href="#z24049d1"/></clipPath>
		<clipPath id="z24049c2"><use xlink:href="#z24049d2"/></clipPath>
		<clipPath id="z24049c3"><use xlink:href="#z24049d3"/></clipPath>
	</defs>
	<path pathLength="2999" clip-path="url(#z24049c1)" d="M246 704L576 748L634 698L564 562L534 547"/>
	<path pathLength="2999" clip-path="url(#z24049c2)" d="M304 466L522 518L612 514"/>
	<path pathLength="2999" clip-path="url(#z24049c3)" d="M212 537L258 480L244 281L260 174L364 100L608 83L830 126L864 159L864 350"/>
</g>
</svg>