<!--
AnimCJK 2016-2017 Copyright Francois Mizessyn, http://gooo.free.fr/animCJK/
Derived from:
    MakeMeAHanzi project - https://github.com/skishore/makemeahanzi
    Arphic PL KaitiM GB - https://apps.ubuntu.com/cat/applications/precise/fonts-arphic-gkai00mp/
    Arphic PL UKai - https://apps.ubuntu.com/cat/applications/fonts-arphic-ukai/
You can redistribute and/or modify this file under the terms of the Arphic Public License
as published by Arphic Technology Co., Ltd.
You should have received a copy of this license (the directory "APL") along with this file;
if not, see http://ftp.gnu.org/non-gnu/chinese-fonts-truetype/LICENSE.
-->
<svg id="z24085" class="acjk" version="1.1" viewBox="0 0 1024 1024" xmlns="http://www.w3.org/2000/svg" xmlns:xlink="http://www.w3.org/1999/xlink">
<style>
<![CDATA[
	@keyframes z24085k {
		from {
			stroke:#c00;
			stroke-dashoffset:3000;
		}
		75% {
			stroke:#c00;
			stroke-dashoffset:0;
		}
		to {
			stroke:#000;
		}
	}
	#z24085 path[clip-path] {
		animation:z24085k 1s linear both;
		stroke-dasharray:3000;
		stroke-width:128;
		stroke-linecap:round;
		fill:none;
	}
	#z24085 path[clip-path="url(#z24085c1)"] {animation-delay:1s;}
	#z24085 path[clip-path="url(#z24085c2)"] {animation-delay:2s;}
	#z24085 path[clip-path="url(#z24085c3)"] {animation-delay:3s;}
	#z24085 path[clip-path="url(#z24085c4)"] {animation-delay:4s;}
	#z24085 path[clip-path="url(#z24085c5)"] {animation-delay:5s;}
	#z24085 path[clip-path="url(#z24085c6)"] {animation-delay:6s;}
	#z24085 path[clip-path="url(#z24085c7)"] {animation-delay:7s;}
	#z24085 path[clip-path="url(#z24085c8)"] {animation-delay:8s;}
	#z24085 path {fill:#ccc;}
]]>
</style>
<g transform="scale(1,-1) translate(0,-900)">
	<path id="z24085d1" d="M169 540Q169 541 168 541Q141 554 125 552Q112 548 118 537Q146 480 123 368Q105 305 132 272Q139 259 148 265Q173 284 178 362Q182 477 185 504L169 540Z"/>
	<path id="z24085d2" d="M311 537Q372 552 385 546Q398 542 399 521Q403 472 393 384Q393 365 375 366Q350 370 330 375Q315 378 319 369Q320 360 343 340Q374 312 391 280Q401 271 411 276Q438 294 450 373Q447 385 453 495Q452 528 461 542Q471 552 465 563Q455 573 418 591Q406 597 341 580Q335 580 311 573L270 563Q209 548 169 540L185 504Q192 503 203 508Q225 518 270 527L311 537Z"/>
	<path id="z24085d3" d="M241 80Q229 38 256 -19Q263 -35 271 -39Q277 -46 284 -38Q311 -14 310 42Q309 93 311 537L311 573Q311 576 312 579Q312 679 330 746Q339 762 336 774Q329 784 275 817Q251 833 231 818Q227 814 233 798Q267 749 268 698Q269 635 270 563L270 527Q269 386 266 233Q262 154 241 80Z"/>
	<path id="z24085d4" d="M604 529Q637 574 716 694Q729 719 751 739Q770 758 752 772Q730 785 698 790Q667 796 655 787Q642 781 652 768Q667 741 623 625Q604 582 585 532Q584 528 584 525L604 529Z"/>
	<path id="z24085d5" d="M568 522Q559 534 530 544Q521 548 510 544Q503 540 509 528Q530 461 531 345Q531 251 519 199Q507 145 542 105Q552 92 562 104Q572 119 573 145L575 180Q575 258 575 336L575 367Q575 475 576 489L568 522Z"/>
	<path id="z24085d6" d="M743 159Q776 117 799 78Q809 59 820 59Q838 60 854 95Q873 135 870 184Q863 280 856 457Q855 490 872 512Q882 525 872 536Q853 555 797 580Q778 590 763 580Q739 568 604 529L584 525Q575 524 568 522L576 489Q589 489 751 527Q773 531 785 524Q803 508 801 283Q800 279 794 188Q793 181 788 177L743 159Z"/>
	<path id="z24085d7" d="M589 334Q616 331 644 340Q684 349 726 358Q745 364 748 366Q755 373 751 381Q744 391 717 397Q705 400 618 376Q599 372 575 367L575 336Q581 336 589 334Z"/>
	<path id="z24085d8" d="M573 145Q577 145 583 146Q635 156 743 159L788 177Q784 186 762 201Q746 211 715 204Q637 188 575 180L573 145Z"/>
	<defs>
		<clipPath id="z24085c1"><use xlink:href="#z24085d1"/></clipPath>
		<clipPath id="z24085c2"><use xlink:href="#z24085d2"/></clipPath>
		<clipPath id="z24085c3"><use xlink:href="#z24085d3"/></clipPath>
		<clipPath id="z24085c4"><use xlink:href="#z24085d4"/></clipPath>
		<clipPath id="z24085c5"><use xlink:href="#z24085d5"/></clipPath>
		<clipPath id="z24085c6"><use xlink:href="#z24085d6"/></clipPath>
		<clipPath id="z24085c7"><use xlink:href="#z24085d7"/></clipPath>
		<clipPath id="z24085c8"><use xlink:href="#z24085d8"/></clipPath>
	</defs>
	<path pathLength="2999" clip-path="url(#z24085c1)" d="M124 545L158 499L138 271"/>
	<path pathLength="2999" clip-path="url(#z24085c2)" d="M177 535L378 569L425 553L414 349L389 321L326 369"/>
	<path pathLength="2999" clip-path="url(#z24085c3)" d="M236 813L299 748L280 -37"/>
	<path pathLength="2999" clip-path="url(#z24085c4)" d="M653 783L707 743L591 534"/>
	<path pathLength="2999" clip-path="url(#z24085c5)" d="M517 536L549 474L552 104"/>
	<path pathLength="2999" clip-path="url(#z24085c6)" d="M576 518L774 557L833 517L830 159L800 109L749 151"/>
	<path pathLength="2999" clip-path="url(#z24085c7)" d="M583 343L747 379"/>
	<path pathLength="2999" clip-path="url(#z24085c8)" d="M577 153L777 185"/>
</g>
</svg>