<!--
AnimCJK 2016-2025 Copyright FM-SH - https://github.com/parsimonhi/animCJK
Derived from:
    MakeMeAHanzi project - https://github.com/skishore/makemeahanzi
    Arphic PL KaitiM GB font
    Arphic PL UKai font
You can redistribute and/or modify this file under the terms of the Arphic Public License
as published by Arphic Technology Co., Ltd.
You should have received a copy of this license along with this file.
If not, see https://ftp.gnu.org/non-gnu/chinese-fonts-truetype/LICENSE.
-->
<svg id="z24092" class="acjk" viewBox="0 0 1024 1024" xmlns="http://www.w3.org/2000/svg">
<style>
<![CDATA[
@keyframes zk {
	to {
		stroke-dashoffset:0;
	}
}
svg.acjk path[clip-path] {
	--t:0.8s;
	animation:zk var(--t) linear forwards var(--d);
	stroke-dasharray:3337;
	stroke-dashoffset:3339;
	stroke-width:128;
	stroke-linecap:round;
	fill:none;
	stroke:#000;
}
svg.acjk path[id] {fill:#ccc;}
]]>
</style>
<path id="z24092d1" d="M174 347C162 335 145 328 126 332C117 333 116 339 120 346C142 390 144 450 123 526C110 570 112 585 133 612C138 619 142 623 148 619C166 604 176 567 178 508C179 437 181 394 183 378C185 367 183 353 174 347Z"/>
<path id="z24092d2" d="M300 539C328 552 361 573 385 591C393 597 400 596 407 588C420 569 429 538 428 495C425 432 425 386 431 355C433 343 431 333 425 329C408 315 395 305 384 300C376 296 369 298 365 304C362 306 342 317 302 325C274 330 274 330 260 333C237 337 208 340 174 347C163 349 172 380 183 378C209 376 236 366 260 363C288 358 288 358 302 356C321 352 374 337 377 362C385 455 384 512 371 520C345 534 325 524 300 524C295 524 295 537 300 539Z"/>
<path id="z24092d3" d="M230 792C223 815 227 848 244 890C248 902 254 907 259 911C264 914 266 914 272 909C275 905 282 898 289 885C296 868 298 850 298 830C297 805 300 708 300 539C300 529 300 529 300 524C300 473 302 417 302 356C302 335 302 335 302 325C302 256 305 196 322 150C328 131 326 119 306 105C295 97 282 88 267 79C250 68 236 68 224 78C220 80 218 88 225 98C245 130 257 162 258 195C258 237 260 283 260 333C260 353 260 353 260 363C260 451 257 545 255 644C253 694 243 743 230 792Z"/>
<path id="z24092d4" d="M521 286C513 282 499 279 481 275C458 269 461 286 467 299C487 344 502 405 511 480C513 501 519 520 532 536C543 550 551 552 555 543C557 536 560 527 560 517C559 506 561 494 559 484C549 438 544 392 534 317C532 306 531 290 521 286Z"/>
<path id="z24092d5" d="M753 455C771 379 793 330 819 307C831 295 833 280 821 270C800 252 780 242 760 236C725 226 704 235 678 246C629 265 575 275 521 286C510 288 523 319 534 317C548 315 602 304 697 285C725 279 732 303 730 323C722 371 711 415 701 453C696 469 750 472 753 455Z"/>
<path id="z24092d6" d="M560 517C582 517 708 495 768 490C797 483 777 463 753 455C737 450 718 450 701 453C648 465 601 476 559 484C548 486 549 517 560 517Z"/>
<path id="z24092d7" d="M523 629C518 668 473 733 384 820C372 831 373 832 391 830C432 824 487 785 554 707C555 705 569 689 596 658C603 649 604 642 602 636C598 627 589 622 573 618C554 612 540 611 532 614C527 615 524 619 523 629Z"/>
<path id="z24092d8" d="M694 629C736 679 784 739 835 811C844 824 853 835 864 840C868 842 874 839 881 834C890 825 893 806 889 776C882 731 819 672 699 598C692 593 689 595 687 604C685 612 687 621 694 629Z"/>
<defs>
	<clipPath id="z24092c1"><use href="#z24092d1"/></clipPath>
	<clipPath id="z24092c2"><use href="#z24092d2"/></clipPath>
	<clipPath id="z24092c3"><use href="#z24092d3"/></clipPath>
	<clipPath id="z24092c4"><use href="#z24092d4"/></clipPath>
	<clipPath id="z24092c5"><use href="#z24092d5"/></clipPath>
	<clipPath id="z24092c6"><use href="#z24092d6"/></clipPath>
	<clipPath id="z24092c7"><use href="#z24092d7"/></clipPath>
	<clipPath id="z24092c8"><use href="#z24092d8"/></clipPath>
</defs>
<path style="--d:1s;" pathLength="3333" clip-path="url(#z24092c1)" d="M126 340L159 378L141 612"/>
<path style="--d:2s;" pathLength="3333" clip-path="url(#z24092c2)" d="M176 358L367 324L398 341L395 542L377 559L303 532"/>
<path style="--d:3s;" pathLength="3333" clip-path="url(#z24092c3)" d="M226 81L287 139L267 905"/>
<path style="--d:4s;" pathLength="3333" clip-path="url(#z24092c4)" d="M470 282L504 314L544 540"/>
<path style="--d:5s;" pathLength="3333" clip-path="url(#z24092c5)" d="M525 294L720 258L762 275L778 301L719 464"/>
<path style="--d:6s;" pathLength="3333" clip-path="url(#z24092c6)" d="M554 503L776 477"/>
<path style="--d:7s;" pathLength="3333" clip-path="url(#z24092c7)" d="M532 620L556 656L453 778L386 823"/>
<path style="--d:8s;" pathLength="3333" clip-path="url(#z24092c8)" d="M692 600L827 739L873 836"/>
</svg>