<!--
AnimCJK 2016-2018 Copyright Francois Mizessyn, http://gooo.free.fr/animCJK/
Derived from:
    MakeMeAHanzi project - https://github.com/skishore/makemeahanzi
    Arphic PL KaitiM GB - https://apps.ubuntu.com/cat/applications/precise/fonts-arphic-gkai00mp/
    Arphic PL UKai - https://apps.ubuntu.com/cat/applications/fonts-arphic-ukai/
You can redistribute and/or modify this file under the terms of the Arphic Public License
as published by Arphic Technology Co., Ltd.
You should have received a copy of this license (the directory "APL") along with this file;
if not, see http://ftp.gnu.org/non-gnu/chinese-fonts-truetype/LICENSE.
-->
<svg id="z24110" class="acjk" version="1.1" viewBox="0 0 1024 1024" xmlns="http://www.w3.org/2000/svg" xmlns:xlink="http://www.w3.org/1999/xlink">
<style>
<![CDATA[
@keyframes z24110k {
	from {
		stroke:#ccc;
		stroke-dashoffset:3334;
	}
	1% {
		stroke:#c00;
		stroke-dashoffset:3334;
	}
	75% {
		stroke:#c00;
		stroke-dashoffset:0;
	}
	to {
		stroke:#000;
	}
}
#z24110 path[clip-path] {
	animation:z24110k 1s linear both;
	stroke-dasharray:3334;
	stroke-width:128;
	stroke-linecap:round;
	fill:none;
}
#z24110 path[clip-path="url(#z24110c1)"] {animation-delay:1s;}
#z24110 path[clip-path="url(#z24110c2)"] {animation-delay:2s;}
#z24110 path[clip-path="url(#z24110c3)"] {animation-delay:3s;}
#z24110 path[clip-path="url(#z24110c4)"] {animation-delay:4s;}
#z24110 path[clip-path="url(#z24110c5)"] {animation-delay:5s;}
#z24110 path[clip-path="url(#z24110c6)"] {animation-delay:6s;}
#z24110 path[clip-path="url(#z24110c7)"] {animation-delay:7s;}
#z24110 path[clip-path="url(#z24110c8)"] {animation-delay:8s;}
#z24110 path[clip-path="url(#z24110c9)"] {animation-delay:9s;}
#z24110 path {fill:#ccc;}
]]>
</style>
<path id="z24110d1" d="M 399,234 C 465,218 500,208 503,206 509,201 510,196 507,191 502,184 491,177 474,174 454,170 431,177 403,186 L 356,201 C 293,220 247,222 224,226 201,229 198,237 215,247 238,261 269,263 307,254 321,250 337,248 353,245 Z"/>
<path id="z24110d2" d="M 386,334 C 447,319 478,308 480,307 484,302 486,297 483,293 478,286 468,281 453,279 435,275 415,283 392,291 L 347,305 C 324,312 277,320 246,326 225,329 223,336 238,344 258,354 286,357 340,345 Z"/>
<path id="z24110d3" d="M 360,438 C 399,426 444,417 494,408 504,406 509,402 510,398 510,390 505,382 494,378 473,369 433,376 373,394 L 321,409 C 242,431 179,440 135,447 127,448 121,450 120,456 118,462 123,470 133,477 155,491 183,494 216,484 247,473 276,462 304,454 322,448 360,438 360,438 Z"/>
<path id="z24110d4" d="M 304,454 C 302,457 301,459 300,463 278,513 238,560 183,608 174,615 168,621 167,625 165,628 169,631 176,631 200,631 235,607 283,560 311,531 343,493 360,438 L 373,394 C 377,377 381,359 385,341 385,338 385,336 386,334 L 392,291 C 394,272 397,253 399,234 L 403,186 C 404,171 404,143 413,102 415,89 412,81 400,75 371,60 352,52 344,54 331,55 331,63 340,77 353,98 360,140 356,201 L 353,245 C 351,263 350,283 347,305 L 340,345 C 336,365 329,386 321,409 Z"/>
<path id="z24110d5" d="M 618,175 C 628,169 653,161 694,149 697,148 701,147 709,152 715,156 716,165 711,180 696,220 688,243 685,249 680,257 678,264 679,270 679,276 686,280 698,287 765,326 788,369 769,407 768,407 768,408 767,409 756,414 742,414 727,411 700,404 676,398 654,394 649,393 646,395 647,399 647,403 652,409 662,415 713,443 745,465 755,483 759,491 766,496 774,497 780,497 790,496 799,487 818,465 826,439 826,411 826,368 796,323 737,278 711,258 722,237 758,197 764,189 779,175 792,169 809,160 809,148 795,137 772,118 754,105 741,100 730,95 720,96 711,103 694,114 655,130 591,150 Z"/>
<path id="z24110d6" d="M 566,477 C 568,491 572,500 576,506 578,509 581,510 586,509 590,506 594,502 597,494 605,469 609,431 608,379 607,358 607,306 612,224 612,207 616,191 618,175 L 591,150 C 582,145 575,142 571,141 564,138 556,139 548,145 543,148 542,154 546,160 553,172 559,184 560,198 562,246 562,307 562,383 562,429 563,461 566,477 Z"/>
<path id="z24110d7" d="M 363,578 C 349,564 331,557 310,561 301,562 299,568 304,576 324,610 325,684 314,731 307,757 303,779 325,809 325,809 326,810 328,813 333,820 338,823 344,819 360,807 369,756 369,668 L 369,611 Z"/>
<path id="z24110d8" d="M 542,584 C 576,578 611,573 647,572 667,571 677,577 678,591 683,685 682,741 670,756 667,759 644,753 607,740 596,736 591,735 589,739 586,742 587,747 595,755 628,786 655,811 676,834 685,844 695,844 704,834 722,812 735,777 734,731 732,666 731,618 738,584 740,571 739,561 732,555 715,540 700,529 688,522 680,517 672,518 667,525 662,530 574,553 544,557 L 482,565 C 451,568 411,572 363,578 L 369,611 C 430,600 398,605 483,593 Z"/>
<path id="z24110d9" d="M 486,935 C 489,951 493,963 498,969 501,973 506,976 511,974 529,963 539,904 539,800 539,769 533,697 542,584 L 544,557 C 544,548 548,536 551,521 553,508 550,500 541,494 520,479 504,472 494,470 485,468 476,467 466,474 459,477 459,484 464,492 476,511 481,536 482,565 L 483,593 C 490,805 483,919 486,935 Z"/>
<defs>
	<clipPath id="z24110c1"><use xlink:href="#z24110d1"/></clipPath>
	<clipPath id="z24110c2"><use xlink:href="#z24110d2"/></clipPath>
	<clipPath id="z24110c3"><use xlink:href="#z24110d3"/></clipPath>
	<clipPath id="z24110c4"><use xlink:href="#z24110d4"/></clipPath>
	<clipPath id="z24110c5"><use xlink:href="#z24110d5"/></clipPath>
	<clipPath id="z24110c6"><use xlink:href="#z24110d6"/></clipPath>
	<clipPath id="z24110c7"><use xlink:href="#z24110d7"/></clipPath>
	<clipPath id="z24110c8"><use xlink:href="#z24110d8"/></clipPath>
	<clipPath id="z24110c9"><use xlink:href="#z24110d9"/></clipPath>
</defs>
<path pathLength="3333" clip-path="url(#z24110c1)" d="M216 237L503 198"/>
<path pathLength="3333" clip-path="url(#z24110c2)" d="M239 336L478 298"/>
<path pathLength="3333" clip-path="url(#z24110c3)" d="M124 456L177 465L505 395"/>
<path pathLength="3333" clip-path="url(#z24110c4)" d="M340 61L382 100L350 393L284 529L173 623"/>
<path pathLength="3333" clip-path="url(#z24110c5)" d="M603 151L715 124L758 153L702 269L789 356L796 422L759 454L653 400"/>
<path pathLength="3333" clip-path="url(#z24110c6)" d="M552 147L587 186L584 503"/>
<path pathLength="3333" clip-path="url(#z24110c7)" d="M310 568L344 613L338 816"/>
<path pathLength="3333" clip-path="url(#z24110c8)" d="M370 581L681 550L708 589L691 787L677 798L594 744"/>
<path pathLength="3333" clip-path="url(#z24110c9)" d="M470 482L514 517L506 968"/>
</svg>