<!--
AnimCJK 2016-2019 Copyright Francois Mizessyn - https://github.com/parsimonhi/animCJK
Derived from:
    MakeMeAHanzi project - https://github.com/skishore/makemeahanzi
    Arphic PL KaitiM GB font
    Arphic PL UKai font
You can redistribute and/or modify this file under the terms of the Arphic Public License
as published by Arphic Technology Co., Ltd.
You should have received a copy of this license along with this file.
If not, see http://ftp.gnu.org/non-gnu/chinese-fonts-truetype/LICENSE.
-->
<svg id="z24113" class="acjk" version="1.1" viewBox="0 0 1024 1024" xmlns="http://www.w3.org/2000/svg" xmlns:xlink="http://www.w3.org/1999/xlink">
<style>
<![CDATA[
@keyframes zk {
	to {
		stroke-dashoffset:0;
	}
}
svg.acjk path[clip-path] {
	--t:0.8s;
	animation:zk var(--t) linear forwards var(--d);
	stroke-dasharray:3337;
	stroke-dashoffset:3339;
	stroke-width:128;
	stroke-linecap:round;
	fill:none;
	stroke:#000;
}
svg.acjk path[id] {fill:#ccc;}
]]>
</style>
<path id="z24113d1" d="M159 345Q158 344 156 343Q131 330 114 332Q102 336 108 346Q141 415 111 522Q87 570 121 608Q127 621 136 615Q160 597 165 520Q169 405 171 378C171 366 168 352 159 345Z"/>
<path id="z24113d2" d="M285 522Q333 556 361 582Q374 594 385 581Q406 553 408 490Q402 400 411 355Q414 337 404 329Q379 308 362 299Q350 295 343 303Q339 307 289 321C258 328 258 328 242 331Q212 335 159 345C148 347 160 380 171 378Q204 369 242 364C273 359 273 359 288 356Q306 352 325 351Q352 344 357 362Q366 494 351 512Q344 518 297 510Q290 509 285 508C280 507 281 519 285 522Z"/>
<path id="z24113d3" d="M210 771Q198 810 223 873Q230 892 238 895Q244 902 252 893Q279 877 280 811Q279 775 285 522C285 513 285 513 285 508Q286 438 288 356C289 333 289 333 289 321Q289 317 290 315Q291 224 310 161Q319 145 316 132Q309 122 254 87Q230 69 209 85Q205 89 210 106Q241 152 241 199Q241 260 242 331C242 353 242 353 242 364Q238 491 234 629Q230 702 210 771Z"/>
<path id="z24113d4" d="M629 278Q681 266 740 256Q780 247 787 242Q794 235 791 227Q784 217 758 209Q731 203 636 234C599 243 599 243 580 247Q535 254 485 258Q451 264 475 279Q511 303 567 289Q568 289 573 289C610 282 610 282 629 278Z"/>
<path id="z24113d5" d="M601 398Q637 389 745 373Q755 374 762 362Q763 352 743 344Q712 328 646 349Q637 349 610 359C573 366 573 366 555 370Q543 370 487 379Q462 383 482 397Q509 416 546 410C583 402 583 402 601 398Z"/>
<path id="z24113d6" d="M562 515Q683 484 898 484Q916 483 920 475Q924 465 909 453Q857 417 790 437Q733 449 650 465Q614 471 576 478C539 484 539 484 521 487Q476 491 430 500Q412 501 426 517Q439 529 455 533Q462 533 505 528C543 519 543 519 562 515Z"/>
<path id="z24113d7" d="M576 478Q585 448 601 398C607 372 607 372 610 359Q620 319 629 278C634 249 634 249 636 234Q648 153 661 123Q671 110 665 95Q649 76 619 60Q600 47 587 51Q574 58 580 72Q599 105 590 179Q583 221 580 247C575 275 575 275 573 289Q566 329 555 370C549 397 549 397 546 410Q534 450 521 487C510 514 510 514 505 528Q436 681 329 818Q323 824 321 830Q317 840 328 839Q365 833 463 704Q485 673 507 636Q537 579 562 515C571 490 571 490 576 478Z"/>
<path id="z24113d8" d="M757 635Q760 634 871 622Q880 623 888 612Q889 602 870 591Q843 570 764 593C726 601 726 601 707 605Q682 608 532 626Q507 629 526 645Q545 661 588 662Q640 652 707 642C740 637 740 637 757 635Z"/>
<path id="z24113d9" d="M672 845Q641 838 610 829Q598 826 599 834Q599 840 609 848Q673 909 696 946Q709 962 725 949Q761 916 760 850Q751 682 757 635C762 607 762 607 764 593Q765 586 769 579Q776 563 761 549Q737 528 709 518Q693 511 684 519Q678 525 688 540Q704 571 707 605C707 630 707 630 707 642Q710 756 704 818Q703 837 692 844Q685 850 672 845Z"/>
<path id="z24113d10" d="M530 735Q551 756 572 781Q582 793 595 793Q604 794 609 783Q613 771 609 747Q602 720 530 696Q517 692 512 693Q508 696 508 707Q509 717 530 735Z"/>
<defs>
	<clipPath id="z24113c1"><use xlink:href="#z24113d1"/></clipPath>
	<clipPath id="z24113c2"><use xlink:href="#z24113d2"/></clipPath>
	<clipPath id="z24113c3"><use xlink:href="#z24113d3"/></clipPath>
	<clipPath id="z24113c4"><use xlink:href="#z24113d4"/></clipPath>
	<clipPath id="z24113c5"><use xlink:href="#z24113d5"/></clipPath>
	<clipPath id="z24113c6"><use xlink:href="#z24113d6"/></clipPath>
	<clipPath id="z24113c7"><use xlink:href="#z24113d7"/></clipPath>
	<clipPath id="z24113c8"><use xlink:href="#z24113d8"/></clipPath>
	<clipPath id="z24113c9"><use xlink:href="#z24113d9"/></clipPath>
	<clipPath id="z24113c10"><use xlink:href="#z24113d10"/></clipPath>
</defs>
<path style="--d:1s;" pathLength="3333" clip-path="url(#z24113c1)" d="M114 337L147 403L131 612"/>
<path style="--d:2s;" pathLength="3333" clip-path="url(#z24113c2)" d="M168 348L349 325L379 344L370 539L356 550L290 516"/>
<path style="--d:3s;" pathLength="3333" clip-path="url(#z24113c3)" d="M213 92L276 152L245 893"/>
<path style="--d:4s;" pathLength="3333" clip-path="url(#z24113c4)" d="M473 267L554 271L784 226"/>
<path style="--d:5s;" pathLength="3333" clip-path="url(#z24113c5)" d="M484 388L756 362"/>
<path style="--d:6s;" pathLength="3333" clip-path="url(#z24113c6)" d="M429 508L825 457L915 468"/>
<path style="--d:7s;" pathLength="3333" clip-path="url(#z24113c7)" d="M589 54L630 117L550 478L462 664L329 832"/>
<path style="--d:8s;" pathLength="3333" clip-path="url(#z24113c8)" d="M525 634L882 604"/>
<path style="--d:9s;" pathLength="3333" clip-path="url(#z24113c9)" d="M688 523L737 577L726 863L695 899L604 835"/>
<path style="--d:10s;" pathLength="3333" clip-path="url(#z24113c10)" d="M516 698L576 745L594 788"/>
</svg>