<!--
AnimCJK 2016-2018 Copyright Francois Mizessyn, https://github.com/parsimonhi/animCJK
Derived from:
    MakeMeAHanzi project - https://github.com/skishore/makemeahanzi
    Arphic PL KaitiM GB - https://apps.ubuntu.com/cat/applications/precise/fonts-arphic-gkai00mp/
    Arphic PL UKai - https://apps.ubuntu.com/cat/applications/fonts-arphic-ukai/
You can redistribute and/or modify this file under the terms of the Arphic Public License
as published by Arphic Technology Co., Ltd.
You should have received a copy of this license (the directory "APL") along with this file;
if not, see http://ftp.gnu.org/non-gnu/chinese-fonts-truetype/LICENSE.
-->
<svg id="z24140" class="acjk" version="1.1" viewBox="0 0 1024 1024" xmlns="http://www.w3.org/2000/svg" xmlns:xlink="http://www.w3.org/1999/xlink">
<style>
<![CDATA[
@keyframes z24140k {
	from {
		stroke:#c00;
		stroke-dashoffset:3334;
	}
	75% {
		stroke:#c00;
		stroke-dashoffset:0;
	}
	to {
		stroke:#000;
	}
}
#z24140 path[clip-path] {
	animation:z24140k 1s linear both;
	stroke-dasharray:3334;
	stroke-width:128;
	stroke-linecap:round;
	fill:none;
}
#z24140 path[clip-path="url(#z24140c1)"] {animation-delay:1s;}
#z24140 path[clip-path="url(#z24140c2)"] {animation-delay:2s;}
#z24140 path[clip-path="url(#z24140c3)"] {animation-delay:3s;}
#z24140 path[clip-path="url(#z24140c4)"] {animation-delay:4s;}
#z24140 path[clip-path="url(#z24140c5)"] {animation-delay:5s;}
#z24140 path[clip-path="url(#z24140c6)"] {animation-delay:6s;}
#z24140 path[clip-path="url(#z24140c7)"] {animation-delay:7s;}
#z24140 path[clip-path="url(#z24140c8)"] {animation-delay:8s;}
#z24140 path[clip-path="url(#z24140c9)"] {animation-delay:9s;}
#z24140 path[clip-path="url(#z24140c10)"] {animation-delay:10s;}
#z24140 path[clip-path="url(#z24140c11)"] {animation-delay:11s;}
#z24140 path[clip-path="url(#z24140c12)"] {animation-delay:12s;}
#z24140 path[clip-path="url(#z24140c13)"] {animation-delay:13s;}
#z24140 path {fill:#ccc;}
]]>
</style>
<path id="z24140d1" d="M136 343Q111 331 96 332Q84 336 89 345Q122 409 92 514Q68 559 102 597Q108 607 117 603Q139 587 144 512Q148 398 151 374L136 343 Z"/>
<path id="z24140d2" d="M270 349Q297 343 324 341Q349 337 352 354Q361 480 344 500Q337 504 293 501Q280 498 276 503Q275 507 284 516Q327 547 354 571Q367 581 377 569Q401 539 401 466Q395 397 406 348Q409 330 400 322Q376 301 360 292Q348 288 341 296Q337 302 271 319L227 328Q191 332 136 343L151 374Q196 362 227 357L270 349 Z"/>
<path id="z24140d3" d="M265 809Q264 763 270 349L271 319Q272 238 289 183Q296 170 294 156Q287 147 235 115Q213 99 194 113Q190 117 195 133Q225 176 226 222Q226 271 227 328L227 357Q227 657 205 754Q187 805 212 864Q212 865 213 867Q220 883 227 887Q233 893 240 886Q247 882 257 862Q266 838 265 809 Z"/>
<path id="z24140d4" d="M496 140Q487 134 455 127Q445 124 441 129Q435 133 442 149Q470 213 483 317Q484 348 502 369Q517 390 522 375Q523 368 526 359L526 337Q526 324 524 307Q520 286 517 269L513 245Q506 193 504 171L496 140 Z"/>
<path id="z24140d5" d="M709 344Q713 351 723 351Q736 350 742 336Q752 323 772 254Q787 206 820 179Q836 164 822 150Q806 134 759 110Q747 101 681 115Q618 121 568 130Q525 137 496 140L504 171Q516 174 526 171Q578 158 699 149Q720 148 728 153Q735 157 732 185Q717 279 705 315L709 344 Z"/>
<path id="z24140d6" d="M517 269Q518 269 522 269Q604 256 663 249Q684 246 677 235Q667 222 645 217Q615 213 513 245L517 269 Z"/>
<path id="z24140d7" d="M616 353Q665 346 709 344L705 315Q680 306 533 336Q529 336 526 337L526 359Q535 360 546 359Q556 358 569 357L616 353 Z"/>
<path id="z24140d8" d="M623 545Q629 476 649 383Q652 376 637 363Q627 357 616 353L569 357Q569 360 572 365Q584 381 585 394Q589 466 589 550L623 545 Z"/>
<path id="z24140d9" d="M469 460Q482 476 496 496Q506 508 519 509Q528 509 533 499Q539 487 534 463Q533 450 512 437Q461 413 452 417Q448 420 447 431Q448 440 469 460 Z"/>
<path id="z24140d10" d="M743 400Q721 428 677 469Q671 475 675 481Q681 482 688 480Q766 440 802 426Q818 425 816 414Q801 369 765 361Q753 360 752 376Q752 388 743 400 Z"/>
<path id="z24140d11" d="M661 576Q695 569 825 561Q835 562 844 552Q845 542 825 531Q801 507 709 530Q646 539 623 545L589 550Q496 556 421 562Q396 563 414 581Q444 605 482 598Q494 595 508 595L539 591Q576 585 620 580L661 576 Z"/>
<path id="z24140d12" d="M508 595Q507 596 508 600Q508 714 353 832Q335 845 313 861Q306 867 311 870Q338 879 416 829Q492 781 548 674Q558 656 572 639Q579 632 575 622Q566 604 539 591L508 595 Z"/>
<path id="z24140d13" d="M896 828Q863 859 773 857Q737 856 709 846Q685 836 679 821Q657 770 688 619Q694 592 661 576L620 580Q635 628 632 666Q617 837 649 871Q667 889 711 902Q858 938 979 866Q997 850 984 827Q971 796 952 706Q952 690 945 686Q939 683 935 700Q913 797 896 828 Z"/>
<defs>
	<clipPath id="z24140c1"><use xlink:href="#z24140d1"/></clipPath>
	<clipPath id="z24140c2"><use xlink:href="#z24140d2"/></clipPath>
	<clipPath id="z24140c3"><use xlink:href="#z24140d3"/></clipPath>
	<clipPath id="z24140c4"><use xlink:href="#z24140d4"/></clipPath>
	<clipPath id="z24140c5"><use xlink:href="#z24140d5"/></clipPath>
	<clipPath id="z24140c6"><use xlink:href="#z24140d6"/></clipPath>
	<clipPath id="z24140c7"><use xlink:href="#z24140d7"/></clipPath>
	<clipPath id="z24140c8"><use xlink:href="#z24140d8"/></clipPath>
	<clipPath id="z24140c9"><use xlink:href="#z24140d9"/></clipPath>
	<clipPath id="z24140c10"><use xlink:href="#z24140d10"/></clipPath>
	<clipPath id="z24140c11"><use xlink:href="#z24140d11"/></clipPath>
	<clipPath id="z24140c12"><use xlink:href="#z24140d12"/></clipPath>
	<clipPath id="z24140c13"><use xlink:href="#z24140d13"/></clipPath>
</defs>
<path pathLength="3333" clip-path="url(#z24140c1)" d="M96 338L126 381L106 598"/>
<path pathLength="3333" clip-path="url(#z24140c2)" d="M145 346L352 318L371 332L368 520L351 538L282 507"/>
<path pathLength="3333" clip-path="url(#z24140c3)" d="M198 117L257 173L238 883"/>
<path pathLength="3333" clip-path="url(#z24140c4)" d="M446 134L474 158L513 375"/>
<path pathLength="3333" clip-path="url(#z24140c5)" d="M504 145L722 128L766 148L780 171L719 345"/>
<path pathLength="3333" clip-path="url(#z24140c6)" d="M519 252L673 235"/>
<path pathLength="3333" clip-path="url(#z24140c7)" d="M531 351L707 332"/>
<path pathLength="3333" clip-path="url(#z24140c8)" d="M579 363L617 393L609 545"/>
<path pathLength="3333" clip-path="url(#z24140c9)" d="M453 423L526 503"/>
<path pathLength="3333" clip-path="url(#z24140c10)" d="M764 367L779 411L683 475"/>
<path pathLength="3333" clip-path="url(#z24140c11)" d="M415 570L839 546"/>
<path pathLength="3333" clip-path="url(#z24140c12)" d="M514 601L538 641L469 753L314 864"/>
<path pathLength="3333" clip-path="url(#z24140c13)" d="M629 584L659 618L652 815L707 873L834 883L934 846L942 694"/>
</svg>