<!--
AnimCJK 2016-2017 Copyright Francois Mizessyn, http://gooo.free.fr/animCJK/
Derived from:
    MakeMeAHanzi project - https://github.com/skishore/makemeahanzi
    Arphic PL KaitiM GB - https://apps.ubuntu.com/cat/applications/precise/fonts-arphic-gkai00mp/
    Arphic PL UKai - https://apps.ubuntu.com/cat/applications/fonts-arphic-ukai/
You can redistribute and/or modify this file under the terms of the Arphic Public License
as published by Arphic Technology Co., Ltd.
You should have received a copy of this license (the directory "APL") along with this file;
if not, see http://ftp.gnu.org/non-gnu/chinese-fonts-truetype/LICENSE.
-->
<svg id="z24162" class="acjk" version="1.1" viewBox="0 0 1024 1024" xmlns="http://www.w3.org/2000/svg" xmlns:xlink="http://www.w3.org/1999/xlink">
<style>
<![CDATA[
@keyframes z24162k {
	from {
		stroke:#c00;
		stroke-dashoffset:3334;
	}
	75% {
		stroke:#c00;
		stroke-dashoffset:0;
	}
	to {
		stroke:#000;
	}
}
#z24162 path[clip-path] {
	animation:z24162k 1s linear both;
	stroke-dasharray:3334;
	stroke-width:128;
	stroke-linecap:round;
	fill:none;
}
#z24162 path[clip-path="url(#z24162c1)"] {animation-delay:1s;}
#z24162 path[clip-path="url(#z24162c2)"] {animation-delay:2s;}
#z24162 path[clip-path="url(#z24162c3)"] {animation-delay:3s;}
#z24162 path[clip-path="url(#z24162c4)"] {animation-delay:4s;}
#z24162 path[clip-path="url(#z24162c5)"] {animation-delay:5s;}
#z24162 path[clip-path="url(#z24162c6)"] {animation-delay:6s;}
#z24162 path[clip-path="url(#z24162c7)"] {animation-delay:7s;}
#z24162 path[clip-path="url(#z24162c8)"] {animation-delay:8s;}
#z24162 path[clip-path="url(#z24162c9)"] {animation-delay:9s;}
#z24162 path[clip-path="url(#z24162c10)"] {animation-delay:10s;}
#z24162 path[clip-path="url(#z24162c11)"] {animation-delay:11s;}
#z24162 path[clip-path="url(#z24162c12)"] {animation-delay:12s;}
#z24162 path[clip-path="url(#z24162c13)"] {animation-delay:13s;}
#z24162 path[clip-path="url(#z24162c14)"] {animation-delay:14s;}
#z24162 path[clip-path="url(#z24162c15)"] {animation-delay:15s;}
#z24162 path {fill:#ccc;}
]]>
</style>
<path id="z24162d1" d="M147 343Q129 325 100 328Q88 332 94 342Q122 393 100 500Q79 551 110 585Q116 597 124 591Q151 570 151 478Q151 405 155 379L147 343 Z"/>
<path id="z24162d2" d="M276 344Q321 329 335 337Q348 341 349 361Q353 410 341 499Q341 518 322 518Q304 517 289 517Q276 514 279 522Q280 531 304 548Q326 572 340 597Q349 604 359 600Q387 582 396 511Q396 355 407 340Q416 330 410 321Q401 311 367 294Q358 290 294 305Q290 305 277 309L232 321Q190 330 147 343L155 379Q164 369 232 354L276 344 Z"/>
<path id="z24162d3" d="M199 783Q187 826 213 882Q219 900 227 903Q233 909 240 901Q247 897 258 877Q268 852 267 822Q266 774 276 344L277 309Q280 227 297 170Q306 155 303 142Q296 132 242 99Q220 83 199 97Q195 101 200 117Q231 163 232 210Q232 262 232 321L232 354Q232 355 233 357Q229 493 224 641Q220 714 199 783 Z"/>
<path id="z24162d4" d="M614 90Q635 106 658 127Q671 137 684 136Q694 135 697 124Q701 111 691 85Q682 61 607 49Q594 46 588 49Q584 53 586 64Q590 74 614 90 Z"/>
<path id="z24162d5" d="M728 196Q813 175 815 174Q822 167 819 159Q812 149 786 141Q762 135 662 166Q571 185 517 190Q483 196 507 211Q540 232 610 219Q655 210 704 201L728 196 Z"/>
<path id="z24162d6" d="M526 268Q553 325 572 331Q582 335 591 321Q595 311 591 293Q582 268 535 247Q528 244 524 253Q523 260 526 268 Z"/>
<path id="z24162d7" d="M699 329Q703 323 711 315Q726 297 741 276Q748 266 760 254Q773 244 767 235Q752 204 728 196L704 201Q703 202 706 208Q712 232 679 311Q672 324 669 334L699 329 Z"/>
<path id="z24162d8" d="M669 334Q554 350 423 372Q404 373 418 389Q431 401 447 405Q466 409 480 405Q675 348 946 348Q964 347 968 339Q972 329 957 317Q903 281 857 296Q794 309 699 329L669 334 Z"/>
<path id="z24162d9" d="M498 458Q488 454 470 452Q460 449 456 454Q452 460 459 474Q487 531 505 624Q509 652 525 670Q541 689 546 675Q547 669 548 663L548 638Q547 628 545 614Q526 517 521 488L498 458 Z"/>
<path id="z24162d10" d="M740 636Q756 663 773 670Q783 677 797 658Q809 637 835 525Q842 495 865 472Q877 460 866 448Q853 432 812 408Q796 401 715 418Q712 418 593 440Q541 450 498 458L521 488Q521 487 524 487Q558 477 610 468L656 460Q693 453 737 447Q767 443 776 453Q788 466 785 478Q773 554 755 610L740 636 Z"/>
<path id="z24162d11" d="M673 554Q704 547 733 542Q754 538 745 527Q735 514 713 511Q697 510 675 516L625 532Q591 542 562 552Q547 556 566 569Q570 572 625 564L673 554 Z"/>
<path id="z24162d12" d="M670 646Q704 639 740 636L755 610Q734 592 675 607Q672 607 671 608L625 619Q585 628 548 638L548 663Q555 664 566 662Q596 656 625 653L670 646 Z"/>
<path id="z24162d13" d="M665 838Q665 798 666 763L668 718Q668 681 670 646L671 608Q672 580 673 554L675 516Q675 507 676 501Q685 480 656 460L610 468Q614 475 618 483Q624 501 625 532L625 564Q625 585 625 619L625 653Q625 686 624 730L624 771Q624 804 624 844L665 838 Z"/>
<path id="z24162d14" d="M666 763Q777 739 779 738Q786 731 783 723Q776 713 750 705Q723 699 668 718L624 730Q623 729 621 730Q578 739 529 742Q495 748 519 763Q549 782 624 771L666 763 Z"/>
<path id="z24162d15" d="M624 844Q522 856 405 870Q383 871 399 889Q412 902 431 909Q452 915 468 910Q597 876 898 876Q917 876 923 868Q929 856 912 842Q857 800 787 818Q735 825 665 838L624 844 Z"/>
<defs>
	<clipPath id="z24162c1"><use xlink:href="#z24162d1"/></clipPath>
	<clipPath id="z24162c2"><use xlink:href="#z24162d2"/></clipPath>
	<clipPath id="z24162c3"><use xlink:href="#z24162d3"/></clipPath>
	<clipPath id="z24162c4"><use xlink:href="#z24162d4"/></clipPath>
	<clipPath id="z24162c5"><use xlink:href="#z24162d5"/></clipPath>
	<clipPath id="z24162c6"><use xlink:href="#z24162d6"/></clipPath>
	<clipPath id="z24162c7"><use xlink:href="#z24162d7"/></clipPath>
	<clipPath id="z24162c8"><use xlink:href="#z24162d8"/></clipPath>
	<clipPath id="z24162c9"><use xlink:href="#z24162d9"/></clipPath>
	<clipPath id="z24162c10"><use xlink:href="#z24162d10"/></clipPath>
	<clipPath id="z24162c11"><use xlink:href="#z24162d11"/></clipPath>
	<clipPath id="z24162c12"><use xlink:href="#z24162d12"/></clipPath>
	<clipPath id="z24162c13"><use xlink:href="#z24162d13"/></clipPath>
	<clipPath id="z24162c14"><use xlink:href="#z24162d14"/></clipPath>
	<clipPath id="z24162c15"><use xlink:href="#z24162d15"/></clipPath>
</defs>
<path pathLength="3333" clip-path="url(#z24162c1)" d="M100 333L131 390L116 584"/>
<path pathLength="3333" clip-path="url(#z24162c2)" d="M159 369L314 318L378 335L354 549L328 555L287 521"/>
<path pathLength="3333" clip-path="url(#z24162c3)" d="M204 101L264 154L232 900"/>
<path pathLength="3333" clip-path="url(#z24162c4)" d="M593 57L690 128"/>
<path pathLength="3333" clip-path="url(#z24162c5)" d="M506 200L812 160"/>
<path pathLength="3333" clip-path="url(#z24162c6)" d="M531 253L579 327"/>
<path pathLength="3333" clip-path="url(#z24162c7)" d="M710 205L734 247L676 327"/>
<path pathLength="3333" clip-path="url(#z24162c8)" d="M421 380L873 321L964 330"/>
<path pathLength="3333" clip-path="url(#z24162c9)" d="M463 461L497 498L539 676"/>
<path pathLength="3333" clip-path="url(#z24162c10)" d="M508 460L800 435L828 466L757 657"/>
<path pathLength="3333" clip-path="url(#z24162c11)" d="M560 557L742 531"/>
<path pathLength="3333" clip-path="url(#z24162c12)" d="M552 655L748 614"/>
<path pathLength="3333" clip-path="url(#z24162c13)" d="M618 470L650 500L644 841"/>
<path pathLength="3333" clip-path="url(#z24162c14)" d="M517 751L776 724"/>
<path pathLength="3333" clip-path="url(#z24162c15)" d="M399 877L454 888L825 844L919 859"/>
</svg>