<!--
AnimCJK 2016-2018 Copyright Francois Mizessyn, http://gooo.free.fr/animCJK/
Derived from:
    MakeMeAHanzi project - https://github.com/skishore/makemeahanzi
    Arphic PL KaitiM GB - https://apps.ubuntu.com/cat/applications/precise/fonts-arphic-gkai00mp/
    Arphic PL UKai - https://apps.ubuntu.com/cat/applications/fonts-arphic-ukai/
You can redistribute and/or modify this file under the terms of the Arphic Public License
as published by Arphic Technology Co., Ltd.
You should have received a copy of this license (the directory "APL") along with this file;
if not, see http://ftp.gnu.org/non-gnu/chinese-fonts-truetype/LICENSE.
-->
<svg id="z24170" class="acjk" version="1.1" viewBox="0 0 1024 1024" xmlns="http://www.w3.org/2000/svg" xmlns:xlink="http://www.w3.org/1999/xlink">
<style>
<![CDATA[
@keyframes z24170k {
	from {
		stroke:#ccc;
		stroke-dashoffset:3334;
	}
	1% {
		stroke:#c00;
		stroke-dashoffset:3334;
	}
	75% {
		stroke:#c00;
		stroke-dashoffset:0;
	}
	to {
		stroke:#000;
	}
}
#z24170 path[clip-path] {
	animation:z24170k 1s linear both;
	stroke-dasharray:3334;
	stroke-width:128;
	stroke-linecap:round;
	fill:none;
}
#z24170 path[clip-path="url(#z24170c1)"] {animation-delay:1s;}
#z24170 path[clip-path="url(#z24170c2)"] {animation-delay:2s;}
#z24170 path[clip-path="url(#z24170c3)"] {animation-delay:3s;}
#z24170 path[clip-path="url(#z24170c4)"] {animation-delay:4s;}
#z24170 path[clip-path="url(#z24170c5)"] {animation-delay:5s;}
#z24170 path[clip-path="url(#z24170c6)"] {animation-delay:6s;}
#z24170 path[clip-path="url(#z24170c7)"] {animation-delay:7s;}
#z24170 path[clip-path="url(#z24170c8)"] {animation-delay:8s;}
#z24170 path[clip-path="url(#z24170c9)"] {animation-delay:9s;}
#z24170 path[clip-path="url(#z24170c10)"] {animation-delay:10s;}
#z24170 path[clip-path="url(#z24170c11)"] {animation-delay:11s;}
#z24170 path[clip-path="url(#z24170c12)"] {animation-delay:12s;}
#z24170 path[clip-path="url(#z24170c13)"] {animation-delay:13s;}
#z24170 path[clip-path="url(#z24170c14)"] {animation-delay:14s;}
#z24170 path[clip-path="url(#z24170c15)"] {animation-delay:15s;}
#z24170 path[clip-path="url(#z24170c16)"] {animation-delay:16s;}
#z24170 path {fill:#ccc;}
]]>
</style>
<path id="z24170d1" d="M 128,375 C 117,364 102,360 84,362 77,364 75,369 78,376 98,416 100,466 84,524 72,548 75,572 95,597 L 97,599 C 101,607 106,609 112,605 128,593 136,555 137,491 137,453 137,426 139,412 Z"/>
<path id="z24170d2" d="M 250,525 C 250,525 249,514 251,526 251,532 260,538 272,554 292,581 297,595 311,615 315,621 323,622 329,619 349,607 364,577 366,530 369,436 370,384 379,375 385,368 386,360 381,354 375,346 361,335 336,328 322,324 295,333 251,344 L 205,355 C 192,358 143,371 128,375 L 139,412 C 143,406 159,401 205,390 L 250,379 C 285,370 296,368 306,373 313,376 318,382 319,394 320,422 318,463 314,517 312,529 307,536 297,535 278,532 274,524 261,521 254,519 250,519 250,523 249,526 249,524 250,525 Z"/>
<path id="z24170d3" d="M 179,796 C 171,824 176,856 194,895 198,905 203,911 208,915 213,919 216,918 222,914 239,897 248,871 248,834 247,809 248,430 250,379 L 251,344 C 252,284 254,233 268,194 271,183 277,174 274,166 270,158 248,146 212,123 196,113 182,111 169,122 166,124 165,132 171,142 189,173 202,202 203,233 203,271 205,312 205,355 L 205,390 C 205,474 202,563 200,656 198,704 191,751 179,796 Z"/>
<path id="z24170d4" d="M 695,187 C 733,184 780,179 838,184 846,184 852,182 855,177 857,171 856,162 848,156 810,125 754,138 710,146 L 665,154 C 630,160 595,165 559,170 L 522,175 C 489,179 455,181 419,187 403,189 400,194 412,202 435,216 470,221 529,208 L 560,201 C 582,196 643,191 657,190 Z"/>
<path id="z24170d5" d="M559 170Q558 142 557 119Q558 104 544 99Q514 83 497 88Q482 94 494 109Q515 136 522 175L529 208Q533 242 545 255Q555 264 559 254Q565 239 560 201L559 170 Z"/>
<path id="z24170d6" d="M710 146Q716 121 733 93Q743 80 735 72Q725 59 695 46Q680 39 667 47Q658 53 665 61Q674 77 673 97Q670 122 665 154L657 190Q648 220 651 243Q652 255 665 244Q672 237 695 187L710 146 Z"/>
<path id="z24170d7" d="M459 295Q447 274 433 267Q430 263 425 267Q421 270 420 280Q424 310 400 366Q385 391 405 427Q412 437 417 429Q423 428 429 414Q433 408 440 384Q452 345 464 322L459 295 Z"/>
<path id="z24170d8" d="M 464,322 C 476,326 498,325 531,316 631,288 710,274 766,274 768,274 770,272 772,274 782,280 786,286 785,291 784,291 777,312 764,352 761,360 761,365 765,367 768,369 775,366 784,360 812,337 839,323 864,315 884,308 893,300 893,296 892,291 871,274 830,246 814,235 769,240 695,256 689,257 634,264 532,283 507,287 483,291 459,295 Z"/>
<path id="z24170d9" d="M513 366Q485 372 506 384Q539 402 585 389Q634 377 685 364Q709 358 712 355Q719 348 715 341Q708 332 685 327Q660 323 637 334Q610 344 582 353Q551 360 513 366 Z"/>
<path id="z24170d10" d="M 561,474 C 604,464 657,450 723,443 729,442 735,440 738,433 740,427 732,422 720,416 703,406 673,408 626,423 615,426 604,427 594,431 580,435 529,445 442,461 427,463 425,469 438,478 455,490 478,492 506,486 512,484 520,482 529,481 Z"/>
<path id="z24170d11" d="M552 533Q562 524 572 521Q579 517 579 506Q579 491 561 474L529 481Q529 511 418 598Q409 602 407 606Q403 612 412 613Q439 617 529 551L552 533 Z"/>
<path id="z24170d12" d="M647 600Q614 560 552 533L529 551Q541 557 553 565L597 599Q604 606 612 616L639 666Q652 729 633 804Q624 835 614 841Q604 847 538 839Q501 835 500 840Q499 847 512 858Q576 901 605 932Q618 948 631 943Q673 924 690 820Q702 726 683 666L647 600 Z"/>
<path id="z24170d13" d="M553 565Q543 616 400 708Q384 717 403 716Q463 716 597 599L553 565 Z"/>
<path id="z24170d14" d="M612 616Q546 725 384 831Q371 841 380 843Q396 852 466 818Q529 788 606 703Q634 672 639 666L612 616 Z"/>
<path id="z24170d15" d="M670 618Q755 551 798 525Q814 521 810 510Q804 495 786 478Q767 462 746 461Q733 461 734 480Q737 493 729 508Q704 545 655 606L670 618 Z"/>
<path id="z24170d16" d="M683 666Q737 724 795 781Q816 800 850 801Q911 802 975 787Q991 786 993 781Q994 774 981 770Q824 718 806 708Q803 707 670 618L655 606Q651 603 647 600L683 666 Z"/>
<defs>
	<clipPath id="z24170c1"><use xlink:href="#z24170d1"/></clipPath>
	<clipPath id="z24170c2"><use xlink:href="#z24170d2"/></clipPath>
	<clipPath id="z24170c3"><use xlink:href="#z24170d3"/></clipPath>
	<clipPath id="z24170c4"><use xlink:href="#z24170d4"/></clipPath>
	<clipPath id="z24170c5"><use xlink:href="#z24170d5"/></clipPath>
	<clipPath id="z24170c6"><use xlink:href="#z24170d6"/></clipPath>
	<clipPath id="z24170c7"><use xlink:href="#z24170d7"/></clipPath>
	<clipPath id="z24170c8"><use xlink:href="#z24170d8"/></clipPath>
	<clipPath id="z24170c9"><use xlink:href="#z24170d9"/></clipPath>
	<clipPath id="z24170c10"><use xlink:href="#z24170d10"/></clipPath>
	<clipPath id="z24170c11"><use xlink:href="#z24170d11"/></clipPath>
	<clipPath id="z24170c12"><use xlink:href="#z24170d12"/></clipPath>
	<clipPath id="z24170c13"><use xlink:href="#z24170d13"/></clipPath>
	<clipPath id="z24170c14"><use xlink:href="#z24170d14"/></clipPath>
	<clipPath id="z24170c15"><use xlink:href="#z24170d15"/></clipPath>
	<clipPath id="z24170c16"><use xlink:href="#z24170d16"/></clipPath>
</defs>
<path pathLength="3333" clip-path="url(#z24170c1)" d="M 86,369 116,420 106,601"/>
<path pathLength="3333" clip-path="url(#z24170c2)" d="M 140,403 286,352 347,368 328,565 304,575 257,527"/>
<path pathLength="3333" clip-path="url(#z24170c3)" d="M 174,127 235,180 216,913"/>
<path pathLength="3333" clip-path="url(#z24170c4)" d="M416 196L767 158L849 170"/>
<path pathLength="3333" clip-path="url(#z24170c5)" d="M496 93L533 124L552 249"/>
<path pathLength="3333" clip-path="url(#z24170c6)" d="M671 51L705 85L656 240"/>
<path pathLength="3333" clip-path="url(#z24170c7)" d="M429 272L441 314L410 426"/>
<path pathLength="3333" clip-path="url(#z24170c8)" d="M467 298L786 258L837 302L769 359"/>
<path pathLength="3333" clip-path="url(#z24170c9)" d="M509 376L710 347"/>
<path pathLength="3333" clip-path="url(#z24170c10)" d="M437 467L731 430"/>
<path pathLength="3333" clip-path="url(#z24170c11)" d="M560 481L494 556L414 605"/>
<path pathLength="3333" clip-path="url(#z24170c12)" d="M538 549L609 586L657 657L666 781L617 893L507 845"/>
<path pathLength="3333" clip-path="url(#z24170c13)" d="M556 573L545 618L405 712"/>
<path pathLength="3333" clip-path="url(#z24170c14)" d="M611 628L612 659L540 738L388 838"/>
<path pathLength="3333" clip-path="url(#z24170c15)" d="M743 465L769 512L662 611"/>
<path pathLength="3333" clip-path="url(#z24170c16)" d="M655 609L819 754L986 776"/>
</svg>