<!--
AnimCJK 2016-2018 Copyright Francois Mizessyn - https://github.com/parsimonhi/animCJK
Derived from:
    MakeMeAHanzi project - https://github.com/skishore/makemeahanzi
    Arphic PL KaitiM GB - https://apps.ubuntu.com/cat/applications/precise/fonts-arphic-gkai00mp/
    Arphic PL UKai - https://apps.ubuntu.com/cat/applications/fonts-arphic-ukai/
You can redistribute and/or modify this file under the terms of the Arphic Public License
as published by Arphic Technology Co., Ltd.
You should have received a copy of this license (the directory "APL") along with this file;
if not, see http://ftp.gnu.org/non-gnu/chinese-fonts-truetype/LICENSE.
-->
<svg id="z24182" class="acjk" version="1.1" viewBox="0 0 1024 1024" xmlns="http://www.w3.org/2000/svg" xmlns:xlink="http://www.w3.org/1999/xlink">
<style>
<![CDATA[
@keyframes z24182k {
	from {
		stroke:#ccc;
		stroke-dashoffset:3334;
	}
	1% {
		stroke:#c00;
		stroke-dashoffset:3334;
	}
	75% {
		stroke:#c00;
		stroke-dashoffset:0;
	}
	to {
		stroke:#000;
	}
}
#z24182 path[clip-path] {
	animation:z24182k 1s linear both;
	stroke-dasharray:3334;
	stroke-width:128;
	stroke-linecap:round;
	fill:none;
}
#z24182 path[clip-path="url(#z24182c1)"] {animation-delay:1s;}
#z24182 path[clip-path="url(#z24182c2)"] {animation-delay:2s;}
#z24182 path[clip-path="url(#z24182c3)"] {animation-delay:3s;}
#z24182 path[clip-path="url(#z24182c4)"] {animation-delay:4s;}
#z24182 path[clip-path="url(#z24182c5)"] {animation-delay:5s;}
#z24182 path[clip-path="url(#z24182c6)"] {animation-delay:6s;}
#z24182 path {fill:#ccc;}
]]>
</style>
<path id="z24182d1" d="M360 177Q390 204 422 235Q434 248 449 248Q459 248 465 235Q469 222 462 193Q458 171 425 154Q356 124 336 129Q332 133 332 145Q335 155 360 177 Z"/>
<path id="z24182d2" d="M628 109Q616 142 557 232Q548 251 566 246Q584 233 680 152Q698 131 722 117Q744 104 730 86Q714 70 683 57Q655 45 642 50Q629 54 635 68Q641 87 628 109 Z"/>
<path id="z24182d3" d="M626 329Q759 302 765 299Q775 290 771 281Q764 268 733 258Q702 251 594 281Q425 315 309 321Q269 325 296 345Q321 360 361 366L407 363Q489 350 573 337L626 329 Z"/>
<path id="z24182d4" d="M659 550Q741 546 840 549Q922 552 931 542Q937 529 919 512Q855 463 780 481Q726 488 660 501L602 508Q560 511 438 528L379 534Q259 544 127 559Q103 560 120 581Q154 615 210 603Q289 582 376 573L432 566Q466 556 603 551L659 550 Z"/>
<path id="z24182d5" d="M361 366Q362 370 368 380Q381 405 382 438Q385 471 379 534L376 573Q364 720 241 831Q225 844 222 851Q219 858 232 858Q265 861 334 797Q407 718 432 566L438 528Q444 474 453 411Q460 389 439 378Q421 368 407 363L361 366 Z"/>
<path id="z24182d6" d="M608 929Q614 954 621 965Q627 972 635 970Q650 961 657 898Q664 825 662 753Q658 705 659 550L660 501Q660 437 671 376Q674 357 659 347Q640 335 626 329L573 337Q573 340 587 364Q602 388 602 508L603 551Q603 879 608 929 Z"/>
<defs>
	<clipPath id="z24182c1"><use xlink:href="#z24182d1"/></clipPath>
	<clipPath id="z24182c2"><use xlink:href="#z24182d2"/></clipPath>
	<clipPath id="z24182c3"><use xlink:href="#z24182d3"/></clipPath>
	<clipPath id="z24182c4"><use xlink:href="#z24182d4"/></clipPath>
	<clipPath id="z24182c5"><use xlink:href="#z24182d5"/></clipPath>
	<clipPath id="z24182c6"><use xlink:href="#z24182d6"/></clipPath>
</defs>
<path pathLength="3333" clip-path="url(#z24182c1)" d="M340 137L430 197L454 242"/>
<path pathLength="3333" clip-path="url(#z24182c2)" d="M642 56L682 103L562 239"/>
<path pathLength="3333" clip-path="url(#z24182c3)" d="M290 331L411 337L767 287"/>
<path pathLength="3333" clip-path="url(#z24182c4)" d="M119 568L182 580L806 512L927 527"/>
<path pathLength="3333" clip-path="url(#z24182c5)" d="M369 369L418 411L386 654L330 766L231 852"/>
<path pathLength="3333" clip-path="url(#z24182c6)" d="M582 340L632 375L634 963"/>
</svg>