<!--
AnimCJK 2016-2019 Copyright Francois Mizessyn - https://github.com/parsimonhi/animCJK
Derived from:
    MakeMeAHanzi project - https://github.com/skishore/makemeahanzi
    Arphic PL KaitiM GB font
    Arphic PL UKai font
You can redistribute and/or modify this file under the terms of the Arphic Public License
as published by Arphic Technology Co., Ltd.
You should have received a copy of this license along with this file.
If not, see http://ftp.gnu.org/non-gnu/chinese-fonts-truetype/LICENSE.
-->
<svg id="z24208" class="acjk" version="1.1" viewBox="0 0 1024 1024" xmlns="http://www.w3.org/2000/svg" xmlns:xlink="http://www.w3.org/1999/xlink">
<style>
<![CDATA[
@keyframes zk {
	to {
		stroke-dashoffset:0;
	}
}
svg.acjk path[clip-path] {
	--t:0.8s;
	animation:zk var(--t) linear forwards var(--d);
	stroke-dasharray:3337;
	stroke-dashoffset:3339;
	stroke-width:128;
	stroke-linecap:round;
	fill:none;
	stroke:#000;
}
svg.acjk path[id] {fill:#ccc;}
]]>
</style>
<path id="z24208d1" d="M494 107Q522 129 553 156Q569 171 587 168Q600 167 604 152Q608 134 597 101Q590 80 555 68Q477 44 460 53Q454 57 457 72Q461 85 494 107Z"/>
<path id="z24208d2" d="M331 274Q376 281 446 273Q755 225 777 215Q778 214 781 213Q791 206 786 196Q779 183 751 175Q720 166 689 177Q610 199 525 217Q431 233 323 239C311 239 319 272 331 274Z"/>
<path id="z24208d3" d="M323 239Q307 224 282 212Q263 199 248 204Q235 211 241 226Q286 302 204 584Q195 609 186 634Q147 727 61 852Q55 859 52 865Q49 877 61 875Q97 869 188 740Q198 721 210 701Q279 566 309 379Q319 285 331 274C337 264 333 246 323 239Z"/>
<path id="z24208d4" d="M510 320Q570 384 596 385Q611 385 616 365Q617 352 605 330Q593 314 569 307Q529 292 513 291Q503 290 503 302Q502 311 510 320Z"/>
<path id="z24208d5" d="M730 547Q757 478 786 460Q804 441 789 424Q713 361 656 394Q578 419 445 444C434 446 446 479 457 477Q464 474 659 435Q681 429 692 439Q699 446 697 462Q690 505 679 541C676 558 724 563 730 547Z"/>
<path id="z24208d6" d="M430 615Q445 625 470 622Q557 603 746 586Q758 585 759 575Q759 566 730 547C715 538 696 541 679 541Q676 540 673 541Q540 574 435 586C425 588 422 609 430 615Z"/>
<path id="z24208d7" d="M445 444Q397 413 381 415Q360 416 375 441Q402 501 362 670Q349 715 322 770Q292 827 215 888Q199 900 195 906Q192 913 204 914Q243 917 311 859Q395 783 430 615C433 596 433 596 435 586Q442 549 448 509Q454 488 457 477C459 466 454 451 445 444Z"/>
<defs>
	<clipPath id="z24208c1"><use xlink:href="#z24208d1"/></clipPath>
	<clipPath id="z24208c2"><use xlink:href="#z24208d2"/></clipPath>
	<clipPath id="z24208c3"><use xlink:href="#z24208d3"/></clipPath>
	<clipPath id="z24208c4"><use xlink:href="#z24208d4"/></clipPath>
	<clipPath id="z24208c5"><use xlink:href="#z24208d5"/></clipPath>
	<clipPath id="z24208c6"><use xlink:href="#z24208d6"/></clipPath>
	<clipPath id="z24208c7"><use xlink:href="#z24208d7"/></clipPath>
</defs>
<path style="--d:1s;" pathLength="3333" clip-path="url(#z24208c1)" d="M462 62L549 104L595 159"/>
<path style="--d:2s;" pathLength="3333" clip-path="url(#z24208c2)" d="M331 243L443 251L782 195"/>
<path style="--d:3s;" pathLength="3333" clip-path="url(#z24208c3)" d="M245 211L293 275L240 557L165 732L57 868"/>
<path style="--d:4s;" pathLength="3333" clip-path="url(#z24208c4)" d="M509 295L608 375"/>
<path style="--d:5s;" pathLength="3333" clip-path="url(#z24208c5)" d="M454 446L709 413L746 451L700 543"/>
<path style="--d:6s;" pathLength="3333" clip-path="url(#z24208c6)" d="M437 611L673 567L753 572"/>
<path style="--d:7s;" pathLength="3333" clip-path="url(#z24208c7)" d="M376 423L420 483L376 710L309 829L199 905"/>
</svg>