<!--
AnimCJK 2016-2018 Copyright Francois Mizessyn - https://github.com/parsimonhi/animCJK
Derived from:
    MakeMeAHanzi project - https://github.com/skishore/makemeahanzi
    Arphic PL KaitiM GB - https://apps.ubuntu.com/cat/applications/precise/fonts-arphic-gkai00mp/
    Arphic PL UKai - https://apps.ubuntu.com/cat/applications/fonts-arphic-ukai/
You can redistribute and/or modify this file under the terms of the Arphic Public License
as published by Arphic Technology Co., Ltd.
You should have received a copy of this license (the directory "APL") along with this file;
if not, see http://ftp.gnu.org/non-gnu/chinese-fonts-truetype/LICENSE.
-->
<svg id="z24211" class="acjk" version="1.1" viewBox="0 0 1024 1024" xmlns="http://www.w3.org/2000/svg" xmlns:xlink="http://www.w3.org/1999/xlink">
<style>
<![CDATA[
@keyframes z24211k {
	from {
		stroke:#ccc;
		stroke-dashoffset:3334;
	}
	1% {
		stroke:#c00;
		stroke-dashoffset:3334;
	}
	75% {
		stroke:#c00;
		stroke-dashoffset:0;
	}
	to {
		stroke:#000;
	}
}
#z24211 path[clip-path] {
	animation:z24211k 1s linear both;
	stroke-dasharray:3334;
	stroke-width:128;
	stroke-linecap:round;
	fill:none;
}
#z24211 path[clip-path="url(#z24211c1)"] {animation-delay:1s;}
#z24211 path[clip-path="url(#z24211c2)"] {animation-delay:2s;}
#z24211 path[clip-path="url(#z24211c3)"] {animation-delay:3s;}
#z24211 path[clip-path="url(#z24211c4)"] {animation-delay:4s;}
#z24211 path[clip-path="url(#z24211c5)"] {animation-delay:5s;}
#z24211 path[clip-path="url(#z24211c6)"] {animation-delay:6s;}
#z24211 path[clip-path="url(#z24211c7)"] {animation-delay:7s;}
#z24211 path {fill:#ccc;}
]]>
</style>
<path id="z24211d1" d="M512 91Q548 112 586 138Q602 148 619 145Q629 144 633 128Q634 112 620 83Q604 50 498 42Q482 41 475 45Q471 49 475 63Q481 73 512 91 Z"/>
<path id="z24211d2" d="M335 258Q371 273 438 264Q753 216 773 207Q774 206 777 205Q787 198 782 188Q776 175 747 167Q719 158 623 186Q467 220 332 227Q329 227 328 228L335 258 Z"/>
<path id="z24211d3" d="M328 228Q312 213 286 200Q267 188 253 193Q240 200 247 214Q265 248 259 320Q258 326 257 334Q242 506 194 627Q149 738 68 848Q62 855 60 861Q57 873 68 871Q102 865 189 743Q202 719 217 694Q287 552 324 300Q328 264 335 258L328 228 Z"/>
<path id="z24211d4" d="M503 425Q731 382 738 375Q747 368 743 360Q736 348 708 340Q689 334 586 363Q526 375 524 378L468 388Q425 392 378 397Q342 401 367 418Q397 439 453 434L503 425 Z"/>
<path id="z24211d5" d="M603 598Q664 591 707 589Q744 588 747 576Q748 563 721 546Q694 530 605 554L556 563Q508 570 455 578Q439 579 437 576Q437 575 503 425L524 378Q537 347 551 337Q569 324 558 313Q513 268 487 268Q477 268 483 288Q489 318 468 388L453 434Q417 536 375 568Q354 583 368 628Q372 643 389 637Q452 615 555 603L603 598 Z"/>
<path id="z24211d6" d="M551 703Q416 719 262 736Q240 737 256 757Q272 773 291 779Q315 785 332 780Q473 747 547 746L600 741Q642 738 879 737Q901 738 907 728Q913 715 895 700Q837 655 796 664Q721 679 601 696L551 703 Z"/>
<path id="z24211d7" d="M605 554Q606 529 610 515Q613 503 606 497Q584 478 565 468Q553 464 544 471Q538 474 545 484Q551 493 556 563L555 603Q554 634 553 674Q552 689 551 703L547 746Q532 867 538 889Q544 913 557 932Q567 950 576 954Q586 955 592 943Q605 912 601 882Q600 809 600 741L601 696Q601 620 603 598L605 554 Z"/>
<defs>
	<clipPath id="z24211c1"><use xlink:href="#z24211d1"/></clipPath>
	<clipPath id="z24211c2"><use xlink:href="#z24211d2"/></clipPath>
	<clipPath id="z24211c3"><use xlink:href="#z24211d3"/></clipPath>
	<clipPath id="z24211c4"><use xlink:href="#z24211d4"/></clipPath>
	<clipPath id="z24211c5"><use xlink:href="#z24211d5"/></clipPath>
	<clipPath id="z24211c6"><use xlink:href="#z24211d6"/></clipPath>
	<clipPath id="z24211c7"><use xlink:href="#z24211d7"/></clipPath>
</defs>
<path pathLength="3333" clip-path="url(#z24211c1)" d="M477 53L587 96L625 137"/>
<path pathLength="3333" clip-path="url(#z24211c2)" d="M336 230L425 242L779 190"/>
<path pathLength="3333" clip-path="url(#z24211c3)" d="M251 202L297 260L241 567L176 720L65 865"/>
<path pathLength="3333" clip-path="url(#z24211c4)" d="M364 406L468 410L740 362"/>
<path pathLength="3333" clip-path="url(#z24211c5)" d="M489 275L522 321L407 605L742 569"/>
<path pathLength="3333" clip-path="url(#z24211c6)" d="M254 743L326 755L801 700L904 718"/>
<path pathLength="3333" clip-path="url(#z24211c7)" d="M549 474L581 514L580 950"/>
</svg>