<!--
AnimCJK 2016-2017 Copyright Francois Mizessyn, http://gooo.free.fr/animCJK/
Derived from:
    MakeMeAHanzi project - https://github.com/skishore/makemeahanzi
    Arphic PL KaitiM GB - https://apps.ubuntu.com/cat/applications/precise/fonts-arphic-gkai00mp/
    Arphic PL UKai - https://apps.ubuntu.com/cat/applications/fonts-arphic-ukai/
You can redistribute and/or modify this file under the terms of the Arphic Public License
as published by Arphic Technology Co., Ltd.
You should have received a copy of this license (the directory "APL") along with this file;
if not, see http://ftp.gnu.org/non-gnu/chinese-fonts-truetype/LICENSE.
-->
<svg id="z24230" class="acjk" version="1.1" viewBox="0 0 1024 1024" xmlns="http://www.w3.org/2000/svg" xmlns:xlink="http://www.w3.org/1999/xlink">
<style>
<![CDATA[
	@keyframes z24230k {
		from {
			stroke:#c00;
			stroke-dashoffset:3000;
		}
		75% {
			stroke:#c00;
			stroke-dashoffset:0;
		}
		to {
			stroke:#000;
		}
	}
	#z24230 path[clip-path] {
		animation:z24230k 1s linear both;
		stroke-dasharray:3000;
		stroke-width:128;
		stroke-linecap:round;
		fill:none;
	}
	#z24230 path[clip-path="url(#z24230c1)"] {animation-delay:1s;}
	#z24230 path[clip-path="url(#z24230c2)"] {animation-delay:2s;}
	#z24230 path[clip-path="url(#z24230c3)"] {animation-delay:3s;}
	#z24230 path[clip-path="url(#z24230c4)"] {animation-delay:4s;}
	#z24230 path[clip-path="url(#z24230c5)"] {animation-delay:5s;}
	#z24230 path[clip-path="url(#z24230c6)"] {animation-delay:6s;}
	#z24230 path[clip-path="url(#z24230c7)"] {animation-delay:7s;}
	#z24230 path[clip-path="url(#z24230c8)"] {animation-delay:8s;}
	#z24230 path[clip-path="url(#z24230c9)"] {animation-delay:9s;}
	#z24230 path {fill:#ccc;}
]]>
</style>
<g transform="scale(1,-1) translate(0,-900)">
	<path id="z24230d1" d="M513 797Q532 781 553 760Q569 747 587 748Q600 749 604 764Q608 782 597 815Q585 839 505 852Q487 855 480 852Q474 846 477 832Q481 819 513 797Z"/>
	<path id="z24230d2" d="M334 645Q364 636 401 642Q746 699 771 709Q774 712 777 713Q787 720 782 728Q776 740 748 749Q720 756 690 746Q611 721 525 703Q429 685 319 679Q315 679 313 677L334 645Z"/>
	<path id="z24230d3" d="M313 677Q271 710 249 702Q236 695 243 681Q264 651 257 570Q256 563 256 555Q244 378 195 249Q153 144 68 16Q62 9 60 3Q57 -9 68 -7Q98 -1 178 110Q199 143 218 180Q290 331 312 525Q319 604 334 645L313 677Z"/>
	<path id="z24230d4" d="M658 520Q707 527 766 528Q820 532 824 538Q828 548 814 560Q762 594 692 571Q680 570 669 565L609 551Q531 539 489 528L440 519Q386 512 330 500Q312 497 326 483Q356 461 394 472Q418 481 445 485L491 495Q513 501 537 504Q567 511 606 514L658 520Z"/>
	<path id="z24230d5" d="M489 528Q486 601 484 604Q474 613 437 623Q425 627 421 622Q414 618 421 600Q433 566 440 519L445 485Q454 388 465 373Q481 349 487 364Q490 371 492 379L495 414Q495 423 491 495L489 528Z"/>
	<path id="z24230d6" d="M669 565Q675 581 679 592Q683 601 687 608Q691 617 676 633Q648 654 627 660Q614 664 606 659Q599 653 603 639Q615 620 613 606Q612 581 609 551L606 514Q602 477 598 437L636 435Q646 478 658 520L669 565Z"/>
	<path id="z24230d7" d="M492 379Q499 379 507 380Q553 390 656 397Q666 398 668 407Q668 416 638 435L636 435L598 437Q594 437 591 436Q539 423 495 414L492 379Z"/>
	<path id="z24230d8" d="M589 128Q626 174 660 238Q676 268 699 285Q721 300 708 316Q695 329 663 345Q638 355 608 343Q577 331 536 319Q493 307 424 300Q408 299 403 291Q399 284 419 275Q459 259 512 275Q576 297 588 297Q607 294 601 274Q580 207 545 159L519 129Q435 48 266 12Q250 9 262 -1Q269 -5 320 -3Q384 1 459 33Q514 57 558 94L589 128Z"/>
	<path id="z24230d9" d="M558 94Q718 -35 745 -40Q752 -39 760 -39Q848 -29 917 -9Q954 1 949 10Q948 14 910 22Q727 50 627 105Q608 117 589 128L545 159Q514 181 484 206Q442 240 408 236Q390 235 388 229Q387 222 404 213Q450 192 519 129L558 94Z"/>
	<defs>
		<clipPath id="z24230c1"><use xlink:href="#z24230d1"/></clipPath>
		<clipPath id="z24230c2"><use xlink:href="#z24230d2"/></clipPath>
		<clipPath id="z24230c3"><use xlink:href="#z24230d3"/></clipPath>
		<clipPath id="z24230c4"><use xlink:href="#z24230d4"/></clipPath>
		<clipPath id="z24230c5"><use xlink:href="#z24230d5"/></clipPath>
		<clipPath id="z24230c6"><use xlink:href="#z24230d6"/></clipPath>
		<clipPath id="z24230c7"><use xlink:href="#z24230d7"/></clipPath>
		<clipPath id="z24230c8"><use xlink:href="#z24230d8"/></clipPath>
		<clipPath id="z24230c9"><use xlink:href="#z24230d9"/></clipPath>
	</defs>
	<path pathLength="2999" clip-path="url(#z24230c1)" d="M481 846L565 799L589 753"/>
	<path pathLength="2999" clip-path="url(#z24230c2)" d="M323 675L383 662L779 724"/>
	<path pathLength="2999" clip-path="url(#z24230c3)" d="M246 694L295 639L253 352L174 148L67 1"/>
	<path pathLength="2999" clip-path="url(#z24230c4)" d="M329 490L737 554L819 544"/>
	<path pathLength="2999" clip-path="url(#z24230c5)" d="M425 615L457 587L480 364"/>
	<path pathLength="2999" clip-path="url(#z24230c6)" d="M610 655L650 606L611 437"/>
	<path pathLength="2999" clip-path="url(#z24230c7)" d="M498 386L596 415L661 407"/>
	<path pathLength="2999" clip-path="url(#z24230c8)" d="M409 287L604 321L657 291L513 91L411 36L264 6"/>
	<path pathLength="2999" clip-path="url(#z24230c9)" d="M396 228L750 7L941 6"/>
</g>
</svg>