<!--
AnimCJK 2016-2018 Copyright Francois Mizessyn - https://github.com/parsimonhi/animCJK
Derived from:
    MakeMeAHanzi project - https://github.com/skishore/makemeahanzi
    Arphic PL KaitiM GB - https://apps.ubuntu.com/cat/applications/precise/fonts-arphic-gkai00mp/
    Arphic PL UKai - https://apps.ubuntu.com/cat/applications/fonts-arphic-ukai/
You can redistribute and/or modify this file under the terms of the Arphic Public License
as published by Arphic Technology Co., Ltd.
You should have received a copy of this license (the directory "APL") along with this file;
if not, see http://ftp.gnu.org/non-gnu/chinese-fonts-truetype/LICENSE.
-->
<svg id="z24254" class="acjk" version="1.1" viewBox="0 0 1024 1024" xmlns="http://www.w3.org/2000/svg" xmlns:xlink="http://www.w3.org/1999/xlink">
<style>
<![CDATA[
@keyframes z24254k {
	from {
		stroke:#c00;
		stroke-dashoffset:3334;
	}
	75% {
		stroke:#c00;
		stroke-dashoffset:0;
	}
	to {
		stroke:#000;
	}
}
#z24254 path[clip-path] {
	animation:z24254k 1s linear both;
	stroke-dasharray:3334;
	stroke-width:128;
	stroke-linecap:round;
	fill:none;
}
#z24254 path[clip-path="url(#z24254c1)"] {animation-delay:1s;}
#z24254 path[clip-path="url(#z24254c2)"] {animation-delay:2s;}
#z24254 path[clip-path="url(#z24254c3)"] {animation-delay:3s;}
#z24254 path[clip-path="url(#z24254c4)"] {animation-delay:4s;}
#z24254 path[clip-path="url(#z24254c5)"] {animation-delay:5s;}
#z24254 path[clip-path="url(#z24254c6)"] {animation-delay:6s;}
#z24254 path[clip-path="url(#z24254c7)"] {animation-delay:7s;}
#z24254 path[clip-path="url(#z24254c8)"] {animation-delay:8s;}
#z24254 path[clip-path="url(#z24254c9)"] {animation-delay:9s;}
#z24254 path[clip-path="url(#z24254c10)"] {animation-delay:10s;}
#z24254 path[clip-path="url(#z24254c11)"] {animation-delay:11s;}
#z24254 path {fill:#ccc;}
]]>
</style>
<path id="z24254d1" d="M459 107C477 119 495 134 515 151C525 159 537 162 549 161C557 160 561 154 564 144C566 133 564 117 555 96C546 77 510 62 448 55C436 53 427 54 424 57C419 59 419 65 422 75C424 83 437 92 459 107 Z"/>
<path id="z24254d2" d="M315 266C347 272 373 273 391 270C615 231 735 209 751 204C753 203 755 202 757 201C763 196 766 190 763 184C758 175 746 168 726 163C708 158 663 168 591 187C491 212 395 225 304 231C303 231 303 231 303 232 Z"/>
<path id="z24254d3" d="M303 232C293 223 280 216 266 208C252 200 242 197 233 201C224 205 221 212 227 222C238 242 243 270 240 306C227 440 206 549 174 632C144 705 102 778 48 852C44 856 41 860 40 865C37 872 40 876 48 875C73 870 114 828 168 747C177 732 186 716 196 699C244 605 277 496 293 374C301 309 307 273 315 266 Z"/>
<path id="z24254d4" d="M366 424Q418 390 446 377Q459 373 457 365Q453 353 438 339Q425 324 407 322Q397 323 396 337Q397 353 352 412L366 424 Z"/>
<path id="z24254d5" d="M395 617C395 590 387 562 382 532L376 496C370 465 369 442 366 424L352 412C343 409 332 406 318 403C310 401 305 402 303 405C298 409 299 415 304 426C324 470 340 529 349 602C351 623 356 642 369 657C380 670 387 673 391 663C392 658 393 652 394 646 Z"/>
<path id="z24254d6" d="M382 532Q425 520 458 514Q480 507 470 495Q457 482 432 482Q410 482 376 496L382 532 Z"/>
<path id="z24254d7" d="M653 614C653 614 654 616 656 619C668 643 682 646 700 630C710 621 720 602 728 571C750 478 768 420 789 398C799 386 801 375 792 364C781 351 767 336 747 324C737 317 725 317 714 320C681 329 645 336 607 338C594 338 588 342 591 349C593 355 600 361 610 366C614 367 637 366 679 363C693 361 703 363 708 366C714 370 714 383 710 405C706 421 703 438 699 455L692 483C684 511 679 540 673 568C670 578 665 585 658 589 Z"/>
<path id="z24254d8" d="M699 455C678 443 641 447 588 464C577 467 574 478 590 482C600 484 658 482 692 483 Z"/>
<path id="z24254d9" d="M553 627C587 622 621 616 653 614L658 589C618 563 557 587 549 589L500 598C462 604 427 610 395 617L394 646C398 646 430 643 492 635 Z"/>
<path id="z24254d10" d="M549 589C556 554 555 429 566 355C567 343 569 330 574 317C576 310 575 304 570 299C559 289 542 281 519 273C506 268 494 267 484 271C471 275 471 283 482 294C499 310 509 328 510 348C514 446 514 530 500 598L492 635C474 714 418 779 331 836C308 850 282 866 252 882C244 885 240 888 238 891C235 894 238 897 248 898C302 899 436 835 495 745C513 717 527 685 536 646 Z"/>
<path id="z24254d11" d="M536 646Q618 764 723 889Q742 908 773 908Q879 904 913 898Q923 897 924 891Q925 885 910 878Q757 820 691 760Q625 702 553 627L539 629L536 646 Z"/>
<defs>
	<clipPath id="z24254c1"><use xlink:href="#z24254d1"/></clipPath>
	<clipPath id="z24254c2"><use xlink:href="#z24254d2"/></clipPath>
	<clipPath id="z24254c3"><use xlink:href="#z24254d3"/></clipPath>
	<clipPath id="z24254c4"><use xlink:href="#z24254d4"/></clipPath>
	<clipPath id="z24254c5"><use xlink:href="#z24254d5"/></clipPath>
	<clipPath id="z24254c6"><use xlink:href="#z24254d6"/></clipPath>
	<clipPath id="z24254c7"><use xlink:href="#z24254d7"/></clipPath>
	<clipPath id="z24254c8"><use xlink:href="#z24254d8"/></clipPath>
	<clipPath id="z24254c9"><use xlink:href="#z24254d9"/></clipPath>
	<clipPath id="z24254c10"><use xlink:href="#z24254d10"/></clipPath>
	<clipPath id="z24254c11"><use xlink:href="#z24254d11"/></clipPath>
</defs>
<path pathLength="3333" clip-path="url(#z24254c1)" d="M428 64L518 108L553 155"/>
<path pathLength="3333" clip-path="url(#z24254c2)" d="M312 239L386 247L757 186"/>
<path pathLength="3333" clip-path="url(#z24254c3)" d="M230 205L277 271L227 552L162 713L45 868"/>
<path pathLength="3333" clip-path="url(#z24254c4)" d="M451 368L409 358L358 412"/>
<path pathLength="3333" clip-path="url(#z24254c5)" d="M307 411L341 441L382 663"/>
<path pathLength="3333" clip-path="url(#z24254c6)" d="M386 524L466 500"/>
<path pathLength="3333" clip-path="url(#z24254c7)" d="M597 345L720 342L754 379L695 586L662 627"/>
<path pathLength="3333" clip-path="url(#z24254c8)" d="M586 472L695 468"/>
<path pathLength="3333" clip-path="url(#z24254c9)" d="M399 638L652 595"/>
<path pathLength="3333" clip-path="url(#z24254c10)" d="M482 278L541 324L503 675L413 800L247 891"/>
<path pathLength="3333" clip-path="url(#z24254c11)" d="M544 631L744 850L917 886"/>
</svg>