<!--
AnimCJK 2016-2025 Copyright FM-SH - https://github.com/parsimonhi/animCJK
Derived from:
    MakeMeAHanzi project - https://github.com/skishore/makemeahanzi
    Arphic PL KaitiM GB font
    Arphic PL KaitiM Big5 font
You can redistribute and/or modify this file under the terms of the Arphic Public License
as published by Arphic Technology Co., Ltd.
You should have received a copy of this license along with this file.
If not, see https://ftp.gnu.org/non-gnu/chinese-fonts-truetype/LICENSE.
-->
<svg id="z24333" class="acjk" viewBox="0 0 1024 1024" xmlns="http://www.w3.org/2000/svg">
<style>
<![CDATA[
@keyframes zk {
	to {
		stroke-dashoffset:0;
	}
}
svg.acjk path[clip-path] {
	--t:0.8s;
	animation:zk var(--t) linear forwards var(--d);
	stroke-dasharray:3337;
	stroke-dashoffset:3339;
	stroke-width:128;
	stroke-linecap:round;
	fill:none;
	stroke:#000;
}
svg.acjk path[id] {fill:#ccc;}
]]>
</style>
<path id="z24333d1" d="M605 376C641 369 674 362 712 358C748 353 766 349 771 344C773 341 774 335 770 331C759 318 729 304 706 307C686 308 666 317 596 336C563 345 563 345 546 349C473 367 300 400 247 395C225 392 213 393 210 397C207 399 206 403 208 410C209 413 224 427 255 446C262 451 273 450 286 447C420 407 514 392 554 385C588 379 588 379 605 376Z"/>
<path id="z24333d2" d="M311 558C290 561 286 568 302 578C321 588 354 590 399 582C427 576 456 570 488 563C504 559 513 556 515 554C519 549 521 543 519 540C514 532 503 524 487 524C469 523 447 529 391 544C369 549 342 552 311 558Z"/>
<path id="z24333d3" d="M202 741C194 741 188 744 187 750C184 756 188 763 199 771C222 788 248 793 275 784C382 747 489 722 595 709C605 707 611 705 612 700C612 692 606 685 596 680C578 672 563 670 549 674C379 713 263 735 202 741Z"/>
<path id="z24333d4" d="M522 229C530 276 535 303 546 349C551 373 551 373 554 385C588 538 654 704 720 802C759 859 799 904 842 936C863 952 880 961 893 962C902 962 911 958 918 949C923 940 922 919 916 888C908 846 905 790 911 721C914 675 894 671 884 714C864 795 846 831 833 823C808 809 773 771 730 703C687 635 627 473 605 376C599 349 599 349 596 336C565 198 564 153 568 134C571 113 575 98 571 91C567 83 555 74 537 64C519 54 506 49 496 50C486 50 481 51 481 52C464 57 462 67 478 85C488 98 507 145 522 229Z"/>
<path id="z24333d5" d="M713 161C736 175 758 194 784 213C791 219 801 222 811 221C817 220 821 216 823 208C825 199 822 185 816 170C810 155 797 143 775 136C723 119 694 114 686 121C683 123 681 128 684 136C685 142 696 149 713 161Z"/>
<defs>
	<clipPath id="z24333c1"><use href="#z24333d1"/></clipPath>
	<clipPath id="z24333c2"><use href="#z24333d2"/></clipPath>
	<clipPath id="z24333c3"><use href="#z24333d3"/></clipPath>
	<clipPath id="z24333c4"><use href="#z24333d4"/></clipPath>
	<clipPath id="z24333c5"><use href="#z24333d5"/></clipPath>
</defs>
<path style="--d:1s;" pathLength="3333" clip-path="url(#z24333c1)" d="M210 402L277 422L676 337L769 337"/>
<path style="--d:2s;" pathLength="3333" clip-path="url(#z24333c2)" d="M298 566L515 546"/>
<path style="--d:3s;" pathLength="3333" clip-path="url(#z24333c3)" d="M190 751L255 761L606 695"/>
<path style="--d:4s;" pathLength="3333" clip-path="url(#z24333c4)" d="M471 64L534 112L607 484L733 764L830 873L887 907L902 691"/>
<path style="--d:5s;" pathLength="3333" clip-path="url(#z24333c5)" d="M690 128L782 173L816 214"/>
</svg>