<!--
AnimCJK 2016-2019 Copyright Francois Mizessyn - https://github.com/parsimonhi/animCJK
Derived from:
    MakeMeAHanzi project - https://github.com/skishore/makemeahanzi
    Arphic PL KaitiM GB font
    Arphic PL UKai font
You can redistribute and/or modify this file under the terms of the Arphic Public License
as published by Arphic Technology Co., Ltd.
You should have received a copy of this license along with this file.
If not, see http://ftp.gnu.org/non-gnu/chinese-fonts-truetype/LICENSE.
-->
<svg id="z24357" class="acjk" version="1.1" viewBox="0 0 1024 1024" xmlns="http://www.w3.org/2000/svg" xmlns:xlink="http://www.w3.org/1999/xlink">
<style>
<![CDATA[
@keyframes zk {
	to {
		stroke-dashoffset:0;
	}
}
svg.acjk path[clip-path] {
	--t:0.8s;
	animation:zk var(--t) linear forwards var(--d);
	stroke-dasharray:3337;
	stroke-dashoffset:3339;
	stroke-width:128;
	stroke-linecap:round;
	fill:none;
	stroke:#000;
}
svg.acjk path[id] {fill:#ccc;}
]]>
</style>
<path id="z24357d1" d="M361 338Q389 247 417 220Q442 192 417 177Q396 164 367 146Q343 131 304 161Q234 188 179 201Q166 201 168 208Q169 214 184 221Q202 230 293 205Q327 190 338 205Q345 212 333 250Q321 290 306 336C299 353 357 356 361 338Z"/>
<path id="z24357d2" d="M220 394Q229 395 241 392Q281 379 371 365Q381 364 381 355Q381 348 361 338C344 331 323 330 306 336Q251 354 212 365C203 369 210 394 220 394Z"/>
<path id="z24357d3" d="M280 531Q299 530 307 538Q317 551 314 589Q304 689 278 756Q263 795 249 809Q240 819 215 810Q184 800 160 792Q144 785 146 796Q147 809 162 822Q199 858 218 890Q234 912 256 899Q331 842 341 774Q354 707 371 600Q372 575 386 551Q396 533 386 523Q373 507 343 492Q321 482 241 510Q204 519 201 517Q197 513 219 402Q220 398 220 394C220 384 219 372 212 365Q202 353 175 341Q162 332 153 340Q143 347 155 360Q176 391 166 445Q156 515 128 543Q116 556 122 570Q129 582 140 589Q150 596 168 580Q213 532 280 531Z"/>
<path id="z24357d4" d="M539 334Q573 282 610 212Q629 170 647 150Q656 138 650 125Q644 113 614 93Q586 77 568 80Q549 83 559 104Q574 129 566 152Q544 231 504 305Q467 377 412 457Q403 467 401 474Q400 486 413 482Q446 473 521 360Q525 354 529 349C536 339 536 339 539 334Z"/>
<path id="z24357d5" d="M529 349Q530 350 534 355Q556 376 581 366Q642 341 713 322Q749 312 761 315Q776 327 771 336Q771 340 739 412Q732 422 737 427Q741 433 752 420Q843 350 883 332Q893 331 893 322Q893 309 864 294Q842 282 819 269Q791 256 776 263Q689 303 539 334C533 335 525 344 529 349Z"/>
<path id="z24357d6" d="M584 825Q547 819 510 812Q497 811 499 818Q500 825 511 832Q590 890 621 927Q636 943 651 929Q685 889 682 823Q676 750 675 563Q676 526 687 501Q696 482 679 469Q654 447 624 438Q605 431 597 439Q591 446 602 461Q624 498 623 542Q632 806 608 822Q599 829 584 825Z"/>
<path id="z24357d7" d="M477 603Q450 658 416 707Q394 737 410 768Q416 784 436 774Q457 761 472 732Q494 693 497 657Q504 627 498 604Q494 597 489 595Q482 596 477 603Z"/>
<path id="z24357d8" d="M762 609Q813 664 871 744Q884 766 900 773Q909 774 917 766Q932 753 923 708Q916 651 767 577Q758 571 755 583Q754 596 762 609Z"/>
<defs>
	<clipPath id="z24357c1"><use xlink:href="#z24357d1"/></clipPath>
	<clipPath id="z24357c2"><use xlink:href="#z24357d2"/></clipPath>
	<clipPath id="z24357c3"><use xlink:href="#z24357d3"/></clipPath>
	<clipPath id="z24357c4"><use xlink:href="#z24357d4"/></clipPath>
	<clipPath id="z24357c5"><use xlink:href="#z24357d5"/></clipPath>
	<clipPath id="z24357c6"><use xlink:href="#z24357d6"/></clipPath>
	<clipPath id="z24357c7"><use xlink:href="#z24357d7"/></clipPath>
	<clipPath id="z24357c8"><use xlink:href="#z24357d8"/></clipPath>
</defs>
<path style="--d:1s;" pathLength="3333" clip-path="url(#z24357c1)" d="M179 208L342 170L372 188L383 211L326 336"/>
<path style="--d:2s;" pathLength="3333" clip-path="url(#z24357c2)" d="M220 373L372 355"/>
<path style="--d:3s;" pathLength="3333" clip-path="url(#z24357c3)" d="M156 344L194 397L166 548L295 512L326 515L352 548L284 822L236 858L152 797"/>
<path style="--d:4s;" pathLength="3333" clip-path="url(#z24357c4)" d="M564 90L609 143L521 321L409 474"/>
<path style="--d:5s;" pathLength="3333" clip-path="url(#z24357c5)" d="M533 347L787 291L838 331L743 419"/>
<path style="--d:6s;" pathLength="3333" clip-path="url(#z24357c6)" d="M602 444L654 495L645 839L612 882L506 818"/>
<path style="--d:7s;" pathLength="3333" clip-path="url(#z24357c7)" d="M490 600L412 767"/>
<path style="--d:8s;" pathLength="3333" clip-path="url(#z24357c8)" d="M761 582L873 687L911 768"/>
</svg>