<!--
AnimCJK 2016-2026 Copyright FM-SH, https://github.com/parsimonhi/animCJK
Derived from:
    MakeMeAHanzi project - https://github.com/skishore/makemeahanzi
    Arphic PL KaitiM GB font
    Arphic PL KaitiM Big5 font
You can redistribute and/or modify this file under the terms of the Arphic Public License
as published by Arphic Technology Co., Ltd.
You should have received a copy of this license along with this file.
If not, see https://ftp.gnu.org/non-gnu/chinese-fonts-truetype/LICENSE.
-->
<svg id="z24369" class="acjk" viewBox="0 0 1024 1024" xmlns="http://www.w3.org/2000/svg">
<style>
<![CDATA[
@keyframes zk {
	to {
		stroke-dashoffset:0;
	}
}
svg.acjk path[clip-path] {
	--t:0.8s;
	animation:zk var(--t) linear forwards var(--d);
	stroke-dasharray:3337;
	stroke-dashoffset:3339;
	stroke-width:128;
	stroke-linecap:round;
	fill:none;
	stroke:#000;
}
svg.acjk path[id] {fill:#ccc;}
]]>
</style>
<path id="z24369d1" d="M434 310C448 260 465 229 481 215C496 200 496 184 482 176C467 166 451 157 438 150C425 143 414 136 401 145C370 164 320 178 252 190C240 191 235 199 257 209C272 216 297 214 348 201C395 188 417 194 405 236C398 256 391 279 384 304C381 320 431 326 434 310Z"/>
<path id="z24369d2" d="M287 366C343 354 397 345 443 337C466 332 451 317 434 310C418 304 400 301 384 304C347 314 309 327 277 336C267 338 277 368 287 366Z"/>
<path id="z24369d3" d="M375 468C412 467 411 505 410 528C403 619 390 697 368 760C346 819 339 820 312 813C293 808 276 804 263 799C239 790 248 811 266 828C287 848 303 868 317 890C326 903 341 907 354 897C409 850 438 797 444 743C459 586 467 517 473 500C477 486 491 474 479 461C469 449 454 440 436 432C420 425 414 425 398 431C369 440 344 445 281 460C267 463 256 460 262 446C271 420 278 393 287 366C291 356 284 343 277 336C261 318 208 291 228 331C237 349 237 373 230 401C220 437 205 461 190 476C181 483 178 492 182 501C185 509 191 516 199 522C204 526 215 524 227 515C246 498 266 487 288 481C326 470 355 468 375 468Z"/>
<path id="z24369d4" d="M200 587C211 597 224 610 238 624C249 635 265 640 273 623C275 616 274 603 270 589C265 573 240 562 197 550C179 545 173 551 177 563C178 566 185 575 200 587Z"/>
<path id="z24369d5" d="M108 740C95 742 92 761 108 769C121 775 139 783 161 789C166 790 173 787 179 781C206 747 304 677 331 653C357 628 341 627 324 637C208 696 137 733 108 740Z"/>
<path id="z24369d6" d="M770 279C786 228 803 196 819 182C835 166 834 151 820 141C806 132 790 121 773 109C759 100 747 100 735 108C698 130 644 148 572 157C556 158 558 167 577 177C587 182 609 182 641 175C673 167 697 162 714 160C751 155 744 184 738 205C731 227 723 252 715 278C708 295 763 296 770 279Z"/>
<path id="z24369d7" d="M618 339C648 331 679 325 782 309C809 304 786 288 770 279C754 270 732 271 715 278C674 290 645 299 606 308C595 310 607 341 618 339Z"/>
<path id="z24369d8" d="M742 442C781 442 781 477 781 505C777 613 762 697 741 779C726 834 716 839 689 832C670 826 649 818 623 807C601 797 600 813 626 836C654 860 675 884 692 909C713 937 731 917 749 899C772 877 786 859 798 840C811 818 820 787 823 742C826 681 831 604 835 510C835 493 841 478 849 462C855 447 858 439 831 421C822 415 812 409 806 406C790 398 778 401 768 405C750 411 689 421 644 429C617 434 598 439 602 409C606 372 611 360 618 339C622 328 614 316 606 308C584 286 532 271 556 306C567 321 568 345 563 374C555 410 544 435 530 450C521 458 519 467 523 475C527 483 531 489 539 494C547 499 554 495 566 487C589 468 614 457 640 452C686 442 718 441 742 442Z"/>
<path id="z24369d9" d="M560 564C576 575 591 588 608 603C614 608 639 621 645 600C647 591 646 577 640 563C632 543 602 532 554 525C531 521 531 528 534 539C535 544 544 553 560 564Z"/>
<path id="z24369d10" d="M486 712C470 714 471 734 484 741C497 748 514 756 537 763C541 764 548 760 555 755C608 706 670 668 727 624C740 613 739 597 720 608C613 664 515 706 486 712Z"/>
<defs>
	<clipPath id="z24369c1"><use href="#z24369d1"/></clipPath>
	<clipPath id="z24369c2"><use href="#z24369d2"/></clipPath>
	<clipPath id="z24369c3"><use href="#z24369d3"/></clipPath>
	<clipPath id="z24369c4"><use href="#z24369d4"/></clipPath>
	<clipPath id="z24369c5"><use href="#z24369d5"/></clipPath>
	<clipPath id="z24369c6"><use href="#z24369d6"/></clipPath>
	<clipPath id="z24369c7"><use href="#z24369d7"/></clipPath>
	<clipPath id="z24369c8"><use href="#z24369d8"/></clipPath>
	<clipPath id="z24369c9"><use href="#z24369d9"/></clipPath>
	<clipPath id="z24369c10"><use href="#z24369d10"/></clipPath>
</defs>
<path style="--d:1s;" pathLength="3333" clip-path="url(#z24369c1)" d="M248 197L406 170L441 190L402 316"/>
<path style="--d:2s;" pathLength="3333" clip-path="url(#z24369c2)" d="M275 346L448 326"/>
<path style="--d:3s;" pathLength="3333" clip-path="url(#z24369c3)" d="M230 315L261 357L230 489L398 449L445 490L384 812L333 858L257 803"/>
<path style="--d:4s;" pathLength="3333" clip-path="url(#z24369c4)" d="M184 557L242 593L257 630"/>
<path style="--d:5s;" pathLength="3333" clip-path="url(#z24369c5)" d="M103 751L159 755L335 637"/>
<path style="--d:6s;" pathLength="3333" clip-path="url(#z24369c6)" d="M570 164L732 133L766 145L786 169L727 288"/>
<path style="--d:7s;" pathLength="3333" clip-path="url(#z24369c7)" d="M607 315L786 298"/>
<path style="--d:8s;" pathLength="3333" clip-path="url(#z24369c8)" d="M558 293L592 334L572 461L769 423L816 458L764 827L706 878L614 810"/>
<path style="--d:9s;" pathLength="3333" clip-path="url(#z24369c9)" d="M537 534L599 561L635 606"/>
<path style="--d:10s;" pathLength="3333" clip-path="url(#z24369c10)" d="M477 723L538 729L730 612"/>
</svg>