<!--
AnimCJK 2016-2018 Copyright Francois Mizessyn, http://gooo.free.fr/animCJK/
Derived from:
    MakeMeAHanzi project - https://github.com/skishore/makemeahanzi
    Arphic PL KaitiM GB - https://apps.ubuntu.com/cat/applications/precise/fonts-arphic-gkai00mp/
    Arphic PL UKai - https://apps.ubuntu.com/cat/applications/fonts-arphic-ukai/
You can redistribute and/or modify this file under the terms of the Arphic Public License
as published by Arphic Technology Co., Ltd.
You should have received a copy of this license (the directory "APL") along with this file;
if not, see http://ftp.gnu.org/non-gnu/chinese-fonts-truetype/LICENSE.
-->
<svg id="z24361" class="acjk" version="1.1" viewBox="0 0 1024 1024" xmlns="http://www.w3.org/2000/svg" xmlns:xlink="http://www.w3.org/1999/xlink">
<style>
<![CDATA[
@keyframes z24361k {
	from {
		stroke:#ccc;
		stroke-dashoffset:3334;
	}
	1% {
		stroke:#c00;
		stroke-dashoffset:3334;
	}
	75% {
		stroke:#c00;
		stroke-dashoffset:0;
	}
	to {
		stroke:#000;
	}
}
#z24361 path[clip-path] {
	animation:z24361k 1s linear both;
	stroke-dasharray:3334;
	stroke-width:128;
	stroke-linecap:round;
	fill:none;
}
#z24361 path[clip-path="url(#z24361c1)"] {animation-delay:1s;}
#z24361 path[clip-path="url(#z24361c2)"] {animation-delay:2s;}
#z24361 path[clip-path="url(#z24361c3)"] {animation-delay:3s;}
#z24361 path[clip-path="url(#z24361c4)"] {animation-delay:4s;}
#z24361 path[clip-path="url(#z24361c5)"] {animation-delay:5s;}
#z24361 path[clip-path="url(#z24361c6)"] {animation-delay:6s;}
#z24361 path[clip-path="url(#z24361c7)"] {animation-delay:7s;}
#z24361 path[clip-path="url(#z24361c8)"] {animation-delay:8s;}
#z24361 path {fill:#ccc;}
]]>
</style>
<path id="z24361d1" d="M337 218Q355 146 372 128Q382 112 377 100Q367 85 328 61Q312 51 298 57Q288 63 295 77Q314 104 290 224L282 261Q273 294 263 311Q256 332 276 345Q313 355 345 373L384 393Q409 406 440 427Q455 436 463 435Q470 434 473 423Q476 413 466 390Q457 366 419 355L373 342Q348 335 316 328Q301 325 300 312Q313 282 324 252L337 218 Z"/>
<path id="z24361d2" d="M345 373Q270 433 169 464Q156 468 165 473Q213 491 294 454Q324 444 384 393L419 355Q428 342 478 261Q490 237 508 218Q521 206 510 195Q483 153 458 153Q445 153 447 167Q450 183 445 201L435 229Q417 283 378 337Q375 338 373 342L345 373 Z"/>
<path id="z24361d3" d="M445 201Q393 208 337 218L290 224Q226 231 157 241Q133 244 97 237Q85 237 82 245Q78 255 85 265Q101 281 127 303Q136 307 147 302Q219 269 282 261L324 252Q376 240 430 229Q431 228 435 229L445 201 Z"/>
<path id="z24361d4" d="M709 300Q742 263 772 202Q785 175 806 158Q825 145 814 130Q802 117 772 104Q750 95 722 107Q695 116 661 125Q627 134 568 139Q555 139 549 146Q545 153 563 161Q597 176 647 164Q693 148 701 147Q723 151 716 174Q706 217 669 273L643 300Q597 340 505 365Q492 368 502 377Q506 380 541 378Q584 375 635 352Q656 342 675 329L709 300 Z"/>
<path id="z24361d5" d="M675 329Q777 419 826 420Q890 413 944 398Q974 391 970 383Q969 379 939 372Q783 342 709 300L669 273Q644 254 617 234Q583 206 553 209Q537 210 535 215Q534 221 549 228Q571 238 585 252Q612 271 643 300L675 329 Z"/>
<path id="z24361d6" d="M638 553Q668 511 690 506Q709 490 696 470Q681 455 632 426Q614 414 549 438Q444 465 341 475Q325 476 325 486Q328 493 346 501Q371 511 406 502Q491 487 573 473Q595 469 603 477Q609 489 581 550L638 553 Z"/>
<path id="z24361d7" d="M411 617Q490 598 648 584Q658 583 660 575Q660 568 638 553L581 550Q481 574 399 587L411 617 Z"/>
<path id="z24361d8" d="M338 770Q408 727 549 705Q583 695 604 700Q626 707 629 742Q619 806 583 855Q565 877 550 883Q538 886 461 857Q445 847 443 854Q442 860 452 874Q489 920 511 962Q520 977 531 977Q549 980 569 968Q635 920 680 780Q680 747 698 720Q710 708 700 695Q684 679 645 661Q630 654 557 671Q481 686 403 698Q372 705 385 674Q403 625 411 617L399 587Q384 580 362 574Q343 570 333 577Q324 584 337 601Q362 634 317 701Q311 707 304 714Q289 732 293 746Q297 761 313 773Q326 783 338 770 Z"/>
<defs>
	<clipPath id="z24361c1"><use xlink:href="#z24361d1"/></clipPath>
	<clipPath id="z24361c2"><use xlink:href="#z24361d2"/></clipPath>
	<clipPath id="z24361c3"><use xlink:href="#z24361d3"/></clipPath>
	<clipPath id="z24361c4"><use xlink:href="#z24361d4"/></clipPath>
	<clipPath id="z24361c5"><use xlink:href="#z24361d5"/></clipPath>
	<clipPath id="z24361c6"><use xlink:href="#z24361d6"/></clipPath>
	<clipPath id="z24361c7"><use xlink:href="#z24361d7"/></clipPath>
	<clipPath id="z24361c8"><use xlink:href="#z24361d8"/></clipPath>
</defs>
<path pathLength="3333" clip-path="url(#z24361c1)" d="M303 65L340 118L282 323L426 386L467 428"/>
<path pathLength="3333" clip-path="url(#z24361c2)" d="M454 159L479 205L393 352L296 431L172 468"/>
<path pathLength="3333" clip-path="url(#z24361c3)" d="M85 245L147 272L439 208"/>
<path pathLength="3333" clip-path="url(#z24361c4)" d="M558 149L736 127L767 155L667 307L509 372"/>
<path pathLength="3333" clip-path="url(#z24361c5)" d="M543 215L785 370L961 384"/>
<path pathLength="3333" clip-path="url(#z24361c6)" d="M333 484L608 447L652 488L593 548"/>
<path pathLength="3333" clip-path="url(#z24361c7)" d="M407 589L654 572"/>
<path pathLength="3333" clip-path="url(#z24361c8)" d="M337 582L377 617L337 715L349 734L608 680L666 717L623 847L565 921L530 927L450 856"/>
</svg>