<!--
AnimCJK 2016-2018 Copyright Francois Mizessyn - https://github.com/parsimonhi/animCJK
Derived from:
    MakeMeAHanzi project - https://github.com/skishore/makemeahanzi
    Arphic PL KaitiM GB - https://apps.ubuntu.com/cat/applications/precise/fonts-arphic-gkai00mp/
    Arphic PL UKai - https://apps.ubuntu.com/cat/applications/fonts-arphic-ukai/
You can redistribute and/or modify this file under the terms of the Arphic Public License
as published by Arphic Technology Co., Ltd.
You should have received a copy of this license (the directory "APL") along with this file;
if not, see http://ftp.gnu.org/non-gnu/chinese-fonts-truetype/LICENSE.
-->
<svg id="z24378" class="acjk" version="1.1" viewBox="0 0 1024 1024" xmlns="http://www.w3.org/2000/svg" xmlns:xlink="http://www.w3.org/1999/xlink">
<style>
<![CDATA[
@keyframes z24378k {
	from {
		stroke:#c00;
		stroke-dashoffset:3334;
	}
	75% {
		stroke:#c00;
		stroke-dashoffset:0;
	}
	to {
		stroke:#000;
	}
}
#z24378 path[clip-path] {
	animation:z24378k 1s linear both;
	stroke-dasharray:3334;
	stroke-width:128;
	stroke-linecap:round;
	fill:none;
}
#z24378 path[clip-path="url(#z24378c1)"] {animation-delay:1s;}
#z24378 path[clip-path="url(#z24378c2)"] {animation-delay:2s;}
#z24378 path[clip-path="url(#z24378c3)"] {animation-delay:3s;}
#z24378 path[clip-path="url(#z24378c4)"] {animation-delay:4s;}
#z24378 path[clip-path="url(#z24378c5)"] {animation-delay:5s;}
#z24378 path[clip-path="url(#z24378c6)"] {animation-delay:6s;}
#z24378 path[clip-path="url(#z24378c7)"] {animation-delay:7s;}
#z24378 path[clip-path="url(#z24378c8)"] {animation-delay:8s;}
#z24378 path[clip-path="url(#z24378c9)"] {animation-delay:9s;}
#z24378 path[clip-path="url(#z24378c10)"] {animation-delay:10s;}
#z24378 path[clip-path="url(#z24378c11)"] {animation-delay:11s;}
#z24378 path[clip-path="url(#z24378c12)"] {animation-delay:12s;}
#z24378 path {fill:#ccc;}
]]>
</style>
<path id="z24378d1" d="M373 346Q397 252 426 223Q451 196 426 181Q405 168 377 150Q356 138 313 164Q274 182 203 198Q191 198 193 205Q194 209 208 217Q226 226 283 211Q340 195 347 206Q354 213 344 253Q331 296 316 346L373 346 Z"/>
<path id="z24378d2" d="M234 403Q283 390 386 377Q396 376 397 367Q397 360 373 346L316 346Q259 362 213 373L234 403 Z"/>
<path id="z24378d3" d="M284 540Q303 539 311 548Q321 563 317 601Q307 704 279 772Q264 811 250 824Q241 834 217 824Q192 817 172 812Q156 805 158 816Q159 829 173 842Q203 876 217 905Q233 929 256 915Q332 857 343 789Q382 576 384 576Q385 569 391 563Q401 545 391 535Q379 519 348 503Q327 494 261 514Q210 526 207 524Q203 520 207 509Q234 407 234 403L213 373Q203 366 191 360Q179 350 170 357Q160 363 170 377Q188 408 175 457Q160 521 133 544Q120 557 125 571Q132 584 142 592Q152 599 171 584Q217 541 284 540 Z"/>
<path id="z24378d4" d="M523 223Q511 216 475 212Q462 209 459 215Q452 222 462 238Q490 289 510 374Q514 399 531 417Q550 439 555 422Q558 412 558 396L554 363Q538 281 535 253L523 223 Z"/>
<path id="z24378d5" d="M756 332Q780 260 811 244Q827 226 813 209Q797 196 748 172Q730 165 710 172Q662 191 618 203Q572 213 523 223L535 253Q569 247 696 218Q714 214 721 221Q733 236 704 330L756 332 Z"/>
<path id="z24378d6" d="M634 382Q689 372 769 364Q779 363 780 355Q780 348 756 332L704 330Q622 351 554 363L558 396Q557 395 560 395Q576 391 597 388L634 382 Z"/>
<path id="z24378d7" d="M490 514Q480 508 445 505Q433 502 431 508Q425 514 434 528Q461 574 481 652Q485 676 500 690Q518 709 522 695Q523 688 524 676L520 644Q505 574 501 546L490 514 Z"/>
<path id="z24378d8" d="M617 494Q554 504 490 514L501 546Q508 545 519 541Q567 531 618 522L664 513Q751 492 766 505Q775 514 757 591L807 592Q828 543 854 524Q870 508 857 490Q788 435 736 460Q699 472 665 483L617 494 Z"/>
<path id="z24378d9" d="M524 676Q527 676 532 675Q566 665 617 656L660 649Q727 636 821 625Q831 624 832 615Q832 608 807 592L757 591Q705 603 661 615L617 625Q565 635 520 644L524 676 Z"/>
<path id="z24378d10" d="M597 388Q616 437 617 494L618 522Q618 561 617 625L617 656Q617 707 616 774L657 766Q658 705 660 649L661 615Q662 561 664 513L665 483Q665 459 668 433Q678 405 636 383Q635 382 634 382L597 388 Z"/>
<path id="z24378d11" d="M616 774Q546 787 472 802Q448 806 411 802Q398 803 395 812Q392 825 400 834Q421 853 452 875Q462 879 474 871Q537 837 740 779Q783 764 787 763L772 740Q715 752 657 766L616 774 Z"/>
<path id="z24378d12" d="M787 763Q812 803 840 851Q849 872 862 878Q869 881 877 874Q890 865 888 825Q888 771 753 675Q746 669 742 679Q739 691 746 701Q758 719 772 740L787 763 Z"/>
<defs>
	<clipPath id="z24378c1"><use xlink:href="#z24378d1"/></clipPath>
	<clipPath id="z24378c2"><use xlink:href="#z24378d2"/></clipPath>
	<clipPath id="z24378c3"><use xlink:href="#z24378d3"/></clipPath>
	<clipPath id="z24378c4"><use xlink:href="#z24378d4"/></clipPath>
	<clipPath id="z24378c5"><use xlink:href="#z24378d5"/></clipPath>
	<clipPath id="z24378c6"><use xlink:href="#z24378d6"/></clipPath>
	<clipPath id="z24378c7"><use xlink:href="#z24378d7"/></clipPath>
	<clipPath id="z24378c8"><use xlink:href="#z24378d8"/></clipPath>
	<clipPath id="z24378c9"><use xlink:href="#z24378d9"/></clipPath>
	<clipPath id="z24378c10"><use xlink:href="#z24378d10"/></clipPath>
	<clipPath id="z24378c11"><use xlink:href="#z24378d11"/></clipPath>
	<clipPath id="z24378c12"><use xlink:href="#z24378d12"/></clipPath>
</defs>
<path pathLength="3333" clip-path="url(#z24378c1)" d="M201 202L351 175L393 200L332 345"/>
<path pathLength="3333" clip-path="url(#z24378c2)" d="M223 378L392 365"/>
<path pathLength="3333" clip-path="url(#z24378c3)" d="M175 364L207 404L173 555L311 521L355 559L289 831L241 874L162 818"/>
<path pathLength="3333" clip-path="url(#z24378c4)" d="M465 221L508 267L542 424"/>
<path pathLength="3333" clip-path="url(#z24378c5)" d="M531 229L739 198L771 236L716 327"/>
<path pathLength="3333" clip-path="url(#z24378c6)" d="M562 367L774 352"/>
<path pathLength="3333" clip-path="url(#z24378c7)" d="M437 512L467 531L515 694"/>
<path pathLength="3333" clip-path="url(#z24378c8)" d="M499 518L780 480L816 512L775 591"/>
<path pathLength="3333" clip-path="url(#z24378c9)" d="M528 669L744 614L826 616"/>
<path pathLength="3333" clip-path="url(#z24378c10)" d="M605 391L640 431L629 770"/>
<path pathLength="3333" clip-path="url(#z24378c11)" d="M398 815L464 839L780 757"/>
<path pathLength="3333" clip-path="url(#z24378c12)" d="M749 682L833 780L875 872"/>
</svg>