<!--
AnimCJK 2016-2017 Copyright Francois Mizessyn, http://gooo.free.fr/animCJK/
Derived from:
    MakeMeAHanzi project - https://github.com/skishore/makemeahanzi
    Arphic PL KaitiM GB - https://apps.ubuntu.com/cat/applications/precise/fonts-arphic-gkai00mp/
    Arphic PL UKai - https://apps.ubuntu.com/cat/applications/fonts-arphic-ukai/
You can redistribute and/or modify this file under the terms of the Arphic Public License
as published by Arphic Technology Co., Ltd.
You should have received a copy of this license (the directory "APL") along with this file;
if not, see http://ftp.gnu.org/non-gnu/chinese-fonts-truetype/LICENSE.
-->
<svg id="z24428" class="acjk" version="1.1" viewBox="0 0 1024 1024" xmlns="http://www.w3.org/2000/svg" xmlns:xlink="http://www.w3.org/1999/xlink">
<style>
<![CDATA[
	@keyframes z24428k {
		from {
			stroke:#c00;
			stroke-dashoffset:3000;
		}
		75% {
			stroke:#c00;
			stroke-dashoffset:0;
		}
		to {
			stroke:#000;
		}
	}
	#z24428 path[clip-path] {
		animation:z24428k 1s linear both;
		stroke-dasharray:3000;
		stroke-width:128;
		stroke-linecap:round;
		fill:none;
	}
	#z24428 path[clip-path="url(#z24428c1)"] {animation-delay:1s;}
	#z24428 path[clip-path="url(#z24428c2)"] {animation-delay:2s;}
	#z24428 path[clip-path="url(#z24428c3)"] {animation-delay:3s;}
	#z24428 path[clip-path="url(#z24428c4)"] {animation-delay:4s;}
	#z24428 path[clip-path="url(#z24428c5)"] {animation-delay:5s;}
	#z24428 path[clip-path="url(#z24428c6)"] {animation-delay:6s;}
	#z24428 path[clip-path="url(#z24428c7)"] {animation-delay:7s;}
	#z24428 path[clip-path="url(#z24428c8)"] {animation-delay:8s;}
	#z24428 path[clip-path="url(#z24428c9)"] {animation-delay:9s;}
	#z24428 path[clip-path="url(#z24428c10)"] {animation-delay:10s;}
	#z24428 path[clip-path="url(#z24428c11)"] {animation-delay:11s;}
	#z24428 path {fill:#ccc;}
]]>
</style>
<g transform="scale(1,-1) translate(0,-900)">
	<path id="z24428d1" d="M278 504Q291 508 308 512Q339 522 344 526Q351 533 347 541Q340 551 313 557Q294 560 279 555L237 539Q126 509 90 503Q57 496 82 481Q124 460 175 478Q194 484 219 489L278 504Z"/>
	<path id="z24428d2" d="M275 413Q276 456 278 504L279 555Q279 645 299 715Q311 739 285 757Q270 767 248 782Q227 798 208 783Q204 779 209 765Q237 722 237 679Q238 616 238 544Q237 543 237 539L232 399Q228 236 213 178Q192 124 218 63Q218 62 219 60Q225 44 232 41Q236 35 244 42Q269 57 270 116Q269 150 275 390L275 413Z"/>
	<path id="z24428d3" d="M219 489Q174 369 46 202Q40 192 52 191Q59 190 68 198Q170 283 232 399L235.36285888821013 493.16004886988395L219 489Z"/>
	<path id="z24428d4" d="M275 390Q327 345 352 346Q364 347 366 364Q365 376 354 391Q342 403 321 407Q288 414 275 413L275 390Z"/>
	<path id="z24428d5" d="M524 528Q557 538 593 546Q621 553 624 558Q631 565 627 573Q620 583 593 589Q557 595 525 574L481 560Q477 560 475 559Q438 549 394 542Q361 535 386 521Q423 503 474 515L524 528Z"/>
	<path id="z24428d6" d="M521 408Q522 463 524 528L525 574Q525 682 544 749Q553 762 550 776Q543 785 491 817Q469 833 450 819Q446 815 451 800Q481 755 481 686Q481 623 481 560L477 414Q473 257 457 190Q438 147 465 77Q472 61 479 57Q485 51 492 58Q499 62 509 82Q519 106 518 135Q517 168 521 383L521 408Z"/>
	<path id="z24428d7" d="M474 515Q435 404 314 240Q310 230 320 230Q326 229 334 237Q425 319 477 414L479.8084988962472 516.5102097130243L474 515Z"/>
	<path id="z24428d8" d="M521 383Q587 332 604 335Q616 336 619 352Q618 364 607 380Q594 393 571 399Q537 409 521 408L521 383Z"/>
	<path id="z24428d9" d="M782 766Q797 732 723 620Q689 569 640 514Q630 504 627 498Q623 488 637 489Q689 495 815 652Q854 701 862 707Q872 717 868 731Q865 744 838 768Q813 787 794 789Q775 788 782 766Z"/>
	<path id="z24428d10" d="M778 533Q790 499 716 397Q680 351 633 300Q623 291 620 286Q616 276 629 277Q683 286 810 430Q829 461 851 474Q861 483 857 496Q856 509 831 533Q807 552 790 554Q772 554 778 533Z"/>
	<path id="z24428d11" d="M816 332Q819 239 671 89Q545 -16 490 -56Q481 -60 492 -64Q549 -64 681 37Q771 118 876 254Q888 269 896 275Q903 279 903 291Q902 301 890 315Q877 331 857 338Q835 348 824 346Q814 345 816 332Z"/>
	<defs>
		<clipPath id="z24428c1"><use xlink:href="#z24428d1"/></clipPath>
		<clipPath id="z24428c2"><use xlink:href="#z24428d2"/></clipPath>
		<clipPath id="z24428c3"><use xlink:href="#z24428d3"/></clipPath>
		<clipPath id="z24428c4"><use xlink:href="#z24428d4"/></clipPath>
		<clipPath id="z24428c5"><use xlink:href="#z24428d5"/></clipPath>
		<clipPath id="z24428c6"><use xlink:href="#z24428d6"/></clipPath>
		<clipPath id="z24428c7"><use xlink:href="#z24428d7"/></clipPath>
		<clipPath id="z24428c8"><use xlink:href="#z24428d8"/></clipPath>
		<clipPath id="z24428c9"><use xlink:href="#z24428d9"/></clipPath>
		<clipPath id="z24428c10"><use xlink:href="#z24428d10"/></clipPath>
		<clipPath id="z24428c11"><use xlink:href="#z24428d11"/></clipPath>
	</defs>
	<path pathLength="2999" clip-path="url(#z24428c1)" d="M81 491L342 536"/>
	<path pathLength="2999" clip-path="url(#z24428c2)" d="M213 778L268 722L235 44"/>
	<path pathLength="2999" clip-path="url(#z24428c3)" d="M231 485L184 363L51 198"/>
	<path pathLength="2999" clip-path="url(#z24428c4)" d="M281 404L362 363"/>
	<path pathLength="2999" clip-path="url(#z24428c5)" d="M383 532L624 570"/>
	<path pathLength="2999" clip-path="url(#z24428c6)" d="M454 815L512 763L481 60"/>
	<path pathLength="2999" clip-path="url(#z24428c7)" d="M474 503L444 400L318 238"/>
	<path pathLength="2999" clip-path="url(#z24428c8)" d="M528 401L614 346"/>
	<path pathLength="2999" clip-path="url(#z24428c9)" d="M788 780L824 723L733 592L634 496"/>
	<path pathLength="2999" clip-path="url(#z24428c10)" d="M786 547L809 481L628 285"/>
	<path pathLength="2999" clip-path="url(#z24428c11)" d="M825 336L857 292L781 177L669 57L494 -58"/>
</g>
</svg>