<!--
AnimCJK 2016-2018 Copyright Francois Mizessyn - https://github.com/parsimonhi/animCJK
Derived from:
    MakeMeAHanzi project - https://github.com/skishore/makemeahanzi
    Arphic PL KaitiM GB - https://apps.ubuntu.com/cat/applications/precise/fonts-arphic-gkai00mp/
    Arphic PL UKai - https://apps.ubuntu.com/cat/applications/fonts-arphic-ukai/
You can redistribute and/or modify this file under the terms of the Arphic Public License
as published by Arphic Technology Co., Ltd.
You should have received a copy of this license (the directory "APL") along with this file;
if not, see http://ftp.gnu.org/non-gnu/chinese-fonts-truetype/LICENSE.
-->
<svg id="z24443" class="acjk" version="1.1" viewBox="0 0 1024 1024" xmlns="http://www.w3.org/2000/svg" xmlns:xlink="http://www.w3.org/1999/xlink">
<style>
<![CDATA[
@keyframes z24443k {
	from {
		stroke:#c00;
		stroke-dashoffset:3334;
	}
	75% {
		stroke:#c00;
		stroke-dashoffset:0;
	}
	to {
		stroke:#000;
	}
}
#z24443 path[clip-path] {
	animation:z24443k 1s linear both;
	stroke-dasharray:3334;
	stroke-width:128;
	stroke-linecap:round;
	fill:none;
}
#z24443 path[clip-path="url(#z24443c1)"] {animation-delay:1s;}
#z24443 path[clip-path="url(#z24443c2)"] {animation-delay:2s;}
#z24443 path[clip-path="url(#z24443c3)"] {animation-delay:3s;}
#z24443 path[clip-path="url(#z24443c4)"] {animation-delay:4s;}
#z24443 path[clip-path="url(#z24443c5)"] {animation-delay:5s;}
#z24443 path[clip-path="url(#z24443c6)"] {animation-delay:6s;}
#z24443 path[clip-path="url(#z24443c7)"] {animation-delay:7s;}
#z24443 path {fill:#ccc;}
]]>
</style>
<path id="z24443d1" d="M282 104Q297 140 220 257Q184 311 135 369Q125 378 123 383Q120 393 133 391Q181 384 313 207Q319 182 352 155Q352 154 354 153Q363 144 359 132Q355 120 331 100Q309 84 292 83Q276 84 282 104 Z"/>
<path id="z24443d2" d="M245 516Q284 470 326 408Q351 365 374 345Q384 335 380 322Q376 310 351 288Q326 270 309 269Q291 270 298 291Q310 321 298 344Q235 479 83 648Q73 657 71 662Q67 672 81 671Q117 665 210 557Q214 551 221 545L245 516 Z"/>
<path id="z24443d3" d="M221 545Q248 651 216 788Q206 830 235 872Q236 875 239 877Q255 892 266 867Q279 830 279 789Q280 626 286 590Q293 565 284 556Q254 520 245 516L221 545 Z"/>
<path id="z24443d4" d="M486 434Q582 398 583 397Q590 387 585 380Q576 368 545 365Q515 364 489 378L439 402Q429 405 420 409Q383 422 336 433Q300 443 329 457Q377 476 429 454Q433 453 439 451L486 434 Z"/>
<path id="z24443d5" d="M439 451Q439 631 403 676Q390 694 401 715Q414 734 432 743Q442 750 455 733Q474 703 571 611Q599 590 601 581Q602 574 597 572Q588 571 494 630Q476 645 475 622Q481 531 486 434L489 378Q495 273 500 256Q507 237 493 223Q471 205 445 198Q415 191 405 204Q398 214 411 228Q441 253 439 402L439 451 Z"/>
<path id="z24443d6" d="M702 429Q759 411 806 404Q821 403 824 406Q837 427 829 477Q813 619 777 682Q762 710 738 706Q713 697 690 687Q668 680 683 702Q726 745 746 777Q771 799 790 778Q824 751 845 706Q870 651 880 490Q884 432 902 403Q912 391 907 382Q898 372 850 353Q831 346 814 358Q796 368 728 387Q661 406 601 413Q585 414 583 423Q582 430 604 440Q626 453 644 446Q654 442 668 439L702 429 Z"/>
<path id="z24443d7" d="M668 439Q668 440 669 444Q688 564 582 709Q579 710 578 714Q548 757 470 831Q463 838 470 841Q503 847 592 762Q677 681 724 526Q733 499 745 474Q752 464 745 455Q739 448 702 429L668 439 Z"/>
<defs>
	<clipPath id="z24443c1"><use xlink:href="#z24443d1"/></clipPath>
	<clipPath id="z24443c2"><use xlink:href="#z24443d2"/></clipPath>
	<clipPath id="z24443c3"><use xlink:href="#z24443d3"/></clipPath>
	<clipPath id="z24443c4"><use xlink:href="#z24443d4"/></clipPath>
	<clipPath id="z24443c5"><use xlink:href="#z24443d5"/></clipPath>
	<clipPath id="z24443c6"><use xlink:href="#z24443d6"/></clipPath>
	<clipPath id="z24443c7"><use xlink:href="#z24443d7"/></clipPath>
</defs>
<path pathLength="3333" clip-path="url(#z24443c1)" d="M290 94L319 143L216 297L129 382"/>
<path pathLength="3333" clip-path="url(#z24443c2)" d="M304 278L341 335L219 515L77 665"/>
<path pathLength="3333" clip-path="url(#z24443c3)" d="M247 524L251 878"/>
<path pathLength="3333" clip-path="url(#z24443c4)" d="M324 446L582 382"/>
<path pathLength="3333" clip-path="url(#z24443c5)" d="M408 212L464 249L440 679L461 691L594 581"/>
<path pathLength="3333" clip-path="url(#z24443c6)" d="M590 424L819 379L868 404L833 631L798 715L758 746L684 690"/>
<path pathLength="3333" clip-path="url(#z24443c7)" d="M673 444L709 475L657 631L596 727L476 835"/>
</svg>