<!--
AnimCJK 2016-2017 Copyright Francois Mizessyn, http://gooo.free.fr/animCJK/
Derived from:
    MakeMeAHanzi project - https://github.com/skishore/makemeahanzi
    Arphic PL KaitiM GB - https://apps.ubuntu.com/cat/applications/precise/fonts-arphic-gkai00mp/
    Arphic PL UKai - https://apps.ubuntu.com/cat/applications/fonts-arphic-ukai/
You can redistribute and/or modify this file under the terms of the Arphic Public License
as published by Arphic Technology Co., Ltd.
You should have received a copy of this license (the directory "APL") along with this file;
if not, see http://ftp.gnu.org/non-gnu/chinese-fonts-truetype/LICENSE.
-->
<svg id="z24456" class="acjk" version="1.1" viewBox="0 0 1024 1024" xmlns="http://www.w3.org/2000/svg" xmlns:xlink="http://www.w3.org/1999/xlink">
<style>
<![CDATA[
@keyframes z24456k {
	from {
		stroke:#c00;
		stroke-dashoffset:3000;
	}
	75% {
		stroke:#c00;
		stroke-dashoffset:0;
	}
	to {
		stroke:#000;
	}
}
#z24456 path[clip-path] {
	animation:z24456k 1s linear both;
	stroke-dasharray:3000;
	stroke-width:128;
	stroke-linecap:round;
	fill:none;
}
#z24456 path[clip-path="url(#z24456c1)"] {animation-delay:1s;}
#z24456 path[clip-path="url(#z24456c2)"] {animation-delay:2s;}
#z24456 path[clip-path="url(#z24456c3)"] {animation-delay:3s;}
#z24456 path[clip-path="url(#z24456c4)"] {animation-delay:4s;}
#z24456 path[clip-path="url(#z24456c5)"] {animation-delay:5s;}
#z24456 path[clip-path="url(#z24456c6)"] {animation-delay:6s;}
#z24456 path[clip-path="url(#z24456c7)"] {animation-delay:7s;}
#z24456 path[clip-path="url(#z24456c8)"] {animation-delay:8s;}
#z24456 path[clip-path="url(#z24456c9)"] {animation-delay:9s;}
#z24456 path {fill:#ccc;}
]]>
</style>
<path id="z24456d1" d="M290 98Q302 134 218 240Q178 289 126 340Q116 349 113 354Q109 364 121 363Q170 363 316 205Q334 178 361 158Q371 149 368 136Q367 123 343 99Q321 80 303 77Q285 76 290 98 Z"/>
<path id="z24456d2" d="M261 521Q289 488 319 450Q347 410 372 391Q382 381 379 367Q376 354 350 327Q325 306 305 304Q286 304 292 327Q301 354 283 392Q205 528 58 674Q46 683 44 689Q40 699 54 699Q93 695 193 592Q212 573 233 552L261 521 Z"/>
<path id="z24456d3" d="M233 552Q251 570 246 655Q245 731 224 809Q220 828 228 860Q238 894 250 904Q266 920 278 894Q293 854 292 809Q296 640 304 601Q311 574 302 564Q278 539 261 521L233 552 Z"/>
<path id="z24456d4" d="M652 418Q653 425 656 432Q663 448 676 447Q691 444 698 428Q716 401 738 275Q753 220 789 187Q808 169 791 153Q772 137 718 111Q702 102 645 121Q624 121 491 165L517 196Q665 147 685 155Q698 162 693 205Q671 349 658 389L652 418 Z"/>
<path id="z24456d5" d="M508 318Q512 319 521 318Q579 305 621 296Q643 290 634 279Q622 266 598 264Q561 264 507 294L508 318 Z"/>
<path id="z24456d6" d="M537 438Q576 428 652 418L658 389Q654 386 649 383Q636 376 609 385Q554 401 509 412L537 438 Z"/>
<path id="z24456d7" d="M491 165Q475 152 459 144Q440 137 430 143Q420 150 429 167Q496 308 443 744Q433 784 398 827Q385 843 393 868Q403 896 417 909Q430 918 444 900Q462 872 621 760Q642 748 647 739Q653 729 642 727Q629 727 515 776Q496 785 496 766Q506 598 508 458L509 412Q508 363 508 318L507 294Q507 227 517 196L491 165 Z"/>
<path id="z24456d8" d="M670 575Q721 545 752 524Q836 466 854 460Q878 450 866 430Q853 411 825 394Q800 378 785 381Q772 382 775 397Q779 430 715 497Q687 525 655 560L670 575 Z"/>
<path id="z24456d9" d="M655 560Q604 511 545 447Q541 441 537 438L509 412L508 458Q533 474 553 502Q760 772 798 783Q840 790 958 769Q976 766 981 758Q985 751 974 747Q797 686 704 605Q686 590 670 575L655 560 Z"/>
<defs>
	<clipPath id="z24456c1"><use xlink:href="#z24456d1"/></clipPath>
	<clipPath id="z24456c2"><use xlink:href="#z24456d2"/></clipPath>
	<clipPath id="z24456c3"><use xlink:href="#z24456d3"/></clipPath>
	<clipPath id="z24456c4"><use xlink:href="#z24456d4"/></clipPath>
	<clipPath id="z24456c5"><use xlink:href="#z24456d5"/></clipPath>
	<clipPath id="z24456c6"><use xlink:href="#z24456d6"/></clipPath>
	<clipPath id="z24456c7"><use xlink:href="#z24456d7"/></clipPath>
	<clipPath id="z24456c8"><use xlink:href="#z24456d8"/></clipPath>
	<clipPath id="z24456c9"><use xlink:href="#z24456d9"/></clipPath>
</defs>
<path pathLength="2999" clip-path="url(#z24456c1)" d="M299 82L326 141L228 264L120 354"/>
<path pathLength="2999" clip-path="url(#z24456c2)" d="M298 312L329 347L330 384L176 579L49 691"/>
<path pathLength="2999" clip-path="url(#z24456c3)" d="M262 535L276 592L258 903"/>
<path pathLength="2999" clip-path="url(#z24456c4)" d="M500 169L684 131L746 172L673 442"/>
<path pathLength="2999" clip-path="url(#z24456c5)" d="M516 310L631 287"/>
<path pathLength="2999" clip-path="url(#z24456c6)" d="M518 412L655 397"/>
<path pathLength="2999" clip-path="url(#z24456c7)" d="M436 151L481 210L487 369L470 744L436 837L459 862L642 731"/>
<path pathLength="2999" clip-path="url(#z24456c8)" d="M783 389L815 444L664 562"/>
<path pathLength="2999" clip-path="url(#z24456c9)" d="M511 425L667 607L807 731L975 752"/>
</svg>