<!--
AnimCJK 2016-2018 Copyright Francois Mizessyn, https://github.com/parsimonhi/animCJK
Derived from:
    MakeMeAHanzi project - https://github.com/skishore/makemeahanzi
    Arphic PL KaitiM GB - https://apps.ubuntu.com/cat/applications/precise/fonts-arphic-gkai00mp/
    Arphic PL UKai - https://apps.ubuntu.com/cat/applications/fonts-arphic-ukai/
You can redistribute and/or modify this file under the terms of the Arphic Public License
as published by Arphic Technology Co., Ltd.
You should have received a copy of this license (the directory "APL") along with this file;
if not, see http://ftp.gnu.org/non-gnu/chinese-fonts-truetype/LICENSE.
-->
<svg id="z24459" class="acjk" version="1.1" viewBox="0 0 1024 1024" xmlns="http://www.w3.org/2000/svg" xmlns:xlink="http://www.w3.org/1999/xlink">
<style>
<![CDATA[
@keyframes z24459k {
	from {
		stroke:#c00;
		stroke-dashoffset:3334;
	}
	75% {
		stroke:#c00;
		stroke-dashoffset:0;
	}
	to {
		stroke:#000;
	}
}
#z24459 path[clip-path] {
	animation:z24459k 1s linear both;
	stroke-dasharray:3334;
	stroke-width:128;
	stroke-linecap:round;
	fill:none;
}
#z24459 path[clip-path="url(#z24459c1)"] {animation-delay:1s;}
#z24459 path[clip-path="url(#z24459c2)"] {animation-delay:2s;}
#z24459 path[clip-path="url(#z24459c3)"] {animation-delay:3s;}
#z24459 path[clip-path="url(#z24459c4)"] {animation-delay:4s;}
#z24459 path[clip-path="url(#z24459c5)"] {animation-delay:5s;}
#z24459 path[clip-path="url(#z24459c6)"] {animation-delay:6s;}
#z24459 path[clip-path="url(#z24459c7)"] {animation-delay:7s;}
#z24459 path[clip-path="url(#z24459c8)"] {animation-delay:8s;}
#z24459 path[clip-path="url(#z24459c9)"] {animation-delay:9s;}
#z24459 path {fill:#ccc;}
]]>
</style>
<path id="z24459d1" d="M306 120Q316 156 237 252Q200 297 150 345Q140 352 137 358Q133 368 145 367Q190 367 327 231Q343 203 376 182Q386 175 384 160Q381 148 359 123Q337 102 319 100Q301 99 306 120 Z"/>
<path id="z24459d2" d="M270 491Q295 460 323 423Q350 383 373 363Q383 353 379 340Q376 327 350 304Q326 285 308 283Q289 283 296 305Q306 335 294 358Q225 494 73 651Q63 660 60 666Q56 676 69 675Q103 671 244 522L270 491 Z"/>
<path id="z24459d3" d="M244 522Q280 558 253 740Q232 836 270 876Q286 892 298 866Q313 826 312 781Q311 612 316 573Q323 546 314 536Q275 494 270 491L244 522 Z"/>
<path id="z24459d4" d="M794 272Q809 245 827 231Q845 212 829 194Q813 181 758 154Q739 147 717 155Q674 173 632 185L575 199Q512 211 447 218Q431 219 432 230Q435 237 454 245Q479 255 516 244Q544 238 575 233L630 222Q663 215 697 208Q719 202 729 212Q742 225 738 251Q734 267 730 285L720 325Q710 365 697 400L746 405Q759 353 771 321L794 272 Z"/>
<path id="z24459d5" d="M771 321Q823 315 918 316Q936 315 940 307Q944 297 929 285Q872 243 802 270Q798 270 794 272L730 285Q693 291 650 299Q637 300 627 303L574 311Q495 323 407 336Q388 337 402 353Q415 365 431 370Q450 374 464 370Q516 354 573 345L626 336Q627 335 629 335Q668 328 720 325L771 321 Z"/>
<path id="z24459d6" d="M573 429Q498 444 434 453Q415 454 427 472Q434 481 444 484Q454 487 467 484Q507 474 573 463L625 456Q683 446 760 439Q770 438 772 429Q772 420 746 405L697 400Q660 409 626 418L573 429 Z"/>
<path id="z24459d7" d="M572 551Q544 555 520 560Q487 564 451 570Q426 574 446 589Q474 608 515 602Q540 596 571 589L625 579Q664 567 760 555Q770 556 778 544Q779 534 758 524Q722 505 636 536Q630 536 625 539L572 551 Z"/>
<path id="z24459d8" d="M570 670Q476 683 372 698Q351 701 367 717Q380 730 398 735Q419 739 434 735Q497 716 568 706L625 699Q716 684 862 683Q920 686 928 674Q932 664 917 650Q865 614 829 622Q754 640 625 661L570 670 Z"/>
<path id="z24459d9" d="M632 185Q632 142 653 108Q660 92 640 76Q615 57 572 45Q553 41 540 54Q530 63 542 75Q573 100 575 137Q575 164 575 199L575 233Q574 267 574 311L573 345Q573 384 573 429L573 463Q573 506 572 551L571 589Q570 632 570 670L568 706Q568 922 584 948Q599 964 608 943Q621 910 625 699L625 661Q625 622 625 579L625 539Q625 496 625 456L626 418Q626 373 626 336L627 303Q628 257 630 222L632 185 Z"/>
<defs>
	<clipPath id="z24459c1"><use xlink:href="#z24459d1"/></clipPath>
	<clipPath id="z24459c2"><use xlink:href="#z24459d2"/></clipPath>
	<clipPath id="z24459c3"><use xlink:href="#z24459d3"/></clipPath>
	<clipPath id="z24459c4"><use xlink:href="#z24459d4"/></clipPath>
	<clipPath id="z24459c5"><use xlink:href="#z24459d5"/></clipPath>
	<clipPath id="z24459c6"><use xlink:href="#z24459d6"/></clipPath>
	<clipPath id="z24459c7"><use xlink:href="#z24459d7"/></clipPath>
	<clipPath id="z24459c8"><use xlink:href="#z24459d8"/></clipPath>
	<clipPath id="z24459c9"><use xlink:href="#z24459d9"/></clipPath>
</defs>
<path pathLength="3333" clip-path="url(#z24459c1)" d="M314 106L340 167L141 361"/>
<path pathLength="3333" clip-path="url(#z24459c2)" d="M301 289L337 352L217 519L69 667"/>
<path pathLength="3333" clip-path="url(#z24459c3)" d="M269 498L290 560L276 877"/>
<path pathLength="3333" clip-path="url(#z24459c4)" d="M438 227L747 184L787 225L718 402"/>
<path pathLength="3333" clip-path="url(#z24459c5)" d="M405 344L826 290L935 295"/>
<path pathLength="3333" clip-path="url(#z24459c6)" d="M430 464L766 424"/>
<path pathLength="3333" clip-path="url(#z24459c7)" d="M443 577L769 544"/>
<path pathLength="3333" clip-path="url(#z24459c8)" d="M365 705L427 713L833 652L924 661"/>
<path pathLength="3333" clip-path="url(#z24459c9)" d="M540 62L613 106L595 950"/>
</svg>