<!--
AnimCJK 2016-2025 Copyright FM-SH - https://github.com/parsimonhi/animCJK
Derived from:
    MakeMeAHanzi project - https://github.com/skishore/makemeahanzi
    Arphic PL KaitiM GB font
    Arphic PL UKai font
You can redistribute and/or modify this file under the terms of the Arphic Public License
as published by Arphic Technology Co., Ltd.
You should have received a copy of this license along with this file.
If not, see http://ftp.gnu.org/non-gnu/chinese-fonts-truetype/LICENSE.
-->
<svg id="z24472" class="acjk" version="1.1" viewBox="0 0 1024 1024" xmlns="http://www.w3.org/2000/svg" xmlns:xlink="http://www.w3.org/1999/xlink">
<style>
<![CDATA[
@keyframes zk {
	to {
		stroke-dashoffset:0;
	}
}
svg.acjk path[clip-path] {
	--t:0.8s;
	animation:zk var(--t) linear forwards var(--d);
	stroke-dasharray:3337;
	stroke-dashoffset:3339;
	stroke-width:128;
	stroke-linecap:round;
	fill:none;
	stroke:#000;
}
svg.acjk path[id] {fill:#ccc;}
]]>
</style>
<path id="z24472d1" d="M376 173C382 166 382 156 380 148C369 126 334 97 311 97C299 97 295 104 300 118C308 142 288 191 237 264C213 297 185 332 152 369C146 374 141 378 140 383C137 389 140 392 149 391C181 386 246 333 331 221C346 200 364 184 376 173Z"/>
<path id="z24472d2" d="M257 519C275 496 294 472 313 444C330 416 346 396 361 383C367 377 368 370 366 362C363 354 355 341 339 328C323 315 309 309 299 309C286 309 283 316 288 330C294 348 294 366 287 382C245 470 173 568 72 677C65 683 61 687 60 691C57 697 60 700 69 699C87 696 149 652 232 550C249 529 249 529 257 519Z"/>
<path id="z24472d3" d="M232 550C254 594 245 697 233 805C227 851 223 887 250 916C262 929 275 914 278 907C287 882 291 856 291 829C289 698 288 619 294 590C297 572 297 562 292 556C272 534 261 521 257 519C247 511 227 538 232 550Z"/>
<path id="z24472d4" d="M507 654C504 690 497 729 486 772C475 812 483 847 509 878C516 887 523 888 531 879C545 861 549 813 550 735C552 454 558 304 561 287C563 272 562 262 560 256C556 245 541 233 512 220C505 217 497 216 489 220C484 221 483 228 487 238C503 289 511 334 513 370C514 395 514 395 515 408C516 432 514 461 514 493C513 516 513 516 513 528C512 555 511 586 510 620C509 620 509 622 509 625C508 644 508 644 507 654Z"/>
<path id="z24472d5" d="M513 370C489 374 427 386 379 392C358 394 355 403 370 412C394 426 422 427 454 420C472 415 493 412 515 408C527 406 525 368 513 370Z"/>
<path id="z24472d6" d="M514 493C492 489 467 501 382 515C361 518 358 527 374 536C397 548 426 548 461 539C475 534 493 531 513 528C524 526 525 495 514 493Z"/>
<path id="z24472d7" d="M509 625C407 657 345 673 324 674C315 674 311 678 311 685C310 692 312 700 318 704C332 713 349 724 370 734C376 736 383 733 390 728C404 714 443 689 507 654C515 649 519 623 509 625Z"/>
<path id="z24472d8" d="M720 630C720 591 720 556 720 518C720 497 720 497 720 486C720 445 721 404 721 364C721 343 721 343 721 332C721 291 726 205 739 164C742 152 748 143 745 135C741 127 719 114 682 91C665 80 650 78 637 90C633 93 633 101 639 111C657 140 674 185 676 251C683 534 675 714 660 788C649 838 645 869 650 883C663 924 673 946 682 951C687 954 690 954 696 949C699 945 707 938 714 924C721 907 722 888 722 867C721 846 720 777 720 660C720 640 720 640 720 630Z"/>
<path id="z24472d9" d="M721 364C768 361 824 350 869 343C887 339 893 330 886 321C877 310 862 302 841 300C813 296 773 308 721 332C711 336 710 364 721 364Z"/>
<path id="z24472d10" d="M720 518C780 510 832 504 876 499C894 496 899 490 893 481C885 470 871 462 853 459C833 454 788 464 720 486C710 489 710 520 720 518Z"/>
<path id="z24472d11" d="M720 660C740 664 780 660 843 654C873 650 904 650 935 649C943 648 948 645 949 641C949 633 943 623 929 613C904 594 876 595 843 607C802 621 758 622 720 630C710 632 710 658 720 660Z"/>
<defs>
	<clipPath id="z24472c1"><use xlink:href="#z24472d1"/></clipPath>
	<clipPath id="z24472c2"><use xlink:href="#z24472d2"/></clipPath>
	<clipPath id="z24472c3"><use xlink:href="#z24472d3"/></clipPath>
	<clipPath id="z24472c4"><use xlink:href="#z24472d4"/></clipPath>
	<clipPath id="z24472c5"><use xlink:href="#z24472d5"/></clipPath>
	<clipPath id="z24472c6"><use xlink:href="#z24472d6"/></clipPath>
	<clipPath id="z24472c7"><use xlink:href="#z24472d7"/></clipPath>
	<clipPath id="z24472c8"><use xlink:href="#z24472d8"/></clipPath>
	<clipPath id="z24472c9"><use xlink:href="#z24472d9"/></clipPath>
	<clipPath id="z24472c10"><use xlink:href="#z24472d10"/></clipPath>
	<clipPath id="z24472c11"><use xlink:href="#z24472d11"/></clipPath>
</defs>
<path style="--d:1s;" pathLength="3333" clip-path="url(#z24472c1)" d="M307 103L337 156L227 310L143 383"/>
<path style="--d:2s;" pathLength="3333" clip-path="url(#z24472c2)" d="M293 315L325 352L322 383L198 559L65 691"/>
<path style="--d:3s;" pathLength="3333" clip-path="url(#z24472c3)" d="M256 527L257 916"/>
<path style="--d:4s;" pathLength="3333" clip-path="url(#z24472c4)" d="M493 225L529 268L534 314L518 879"/>
<path style="--d:5s;" pathLength="3333" clip-path="url(#z24472c5)" d="M367 402L513 387"/>
<path style="--d:6s;" pathLength="3333" clip-path="url(#z24472c6)" d="M372 526L512 506"/>
<path style="--d:7s;" pathLength="3333" clip-path="url(#z24472c7)" d="M317 686L374 699L503 635"/>
<path style="--d:8s;" pathLength="3333" clip-path="url(#z24472c8)" d="M642 96L704 151L684 947"/>
<path style="--d:9s;" pathLength="3333" clip-path="url(#z24472c9)" d="M725 356L884 325"/>
<path style="--d:10s;" pathLength="3333" clip-path="url(#z24472c10)" d="M725 510L888 483"/>
<path style="--d:11s;" pathLength="3333" clip-path="url(#z24472c11)" d="M726 653L875 625L944 637"/>
</svg>