<!--
AnimCJK 2016-2019 Copyright Francois Mizessyn - https://github.com/parsimonhi/animCJK
Derived from:
    MakeMeAHanzi project - https://github.com/skishore/makemeahanzi
    Arphic PL KaitiM GB font
    Arphic PL UKai font
You can redistribute and/or modify this file under the terms of the Arphic Public License
as published by Arphic Technology Co., Ltd.
You should have received a copy of this license along with this file.
If not, see http://ftp.gnu.org/non-gnu/chinese-fonts-truetype/LICENSE.
-->
<svg id="z24521" class="acjk" version="1.1" viewBox="0 0 1024 1024" xmlns="http://www.w3.org/2000/svg" xmlns:xlink="http://www.w3.org/1999/xlink">
<style>
<![CDATA[
@keyframes zk {
	to {
		stroke-dashoffset:0;
	}
}
svg.acjk path[clip-path] {
	--t:0.8s;
	animation:zk var(--t) linear forwards var(--d);
	stroke-dasharray:3337;
	stroke-dashoffset:3339;
	stroke-width:128;
	stroke-linecap:round;
	fill:none;
	stroke:#000;
}
svg.acjk path[id] {fill:#ccc;}
]]>
</style>
<path id="z24521d1" d="M156 368Q138 438 109 502Q103 514 104 530Q105 555 115 569Q125 585 144 570Q163 551 174 518Q192 466 189 422Q190 388 179 365Q173 358 167 357Q160 360 156 368Z"/>
<path id="z24521d2" d="M309 384Q316 385 378 436Q391 446 404 445Q414 444 417 432Q420 419 411 393Q398 360 311 349C310 349 310 349 310 349C298 347 298 380 309 384Z"/>
<path id="z24521d3" d="M310 349Q310 216 330 144Q346 120 319 100Q303 88 274 71Q250 53 229 69Q225 75 230 90Q263 138 263 215Q263 650 243 741Q225 816 231 835Q246 896 262 903Q269 910 276 901Q283 897 294 876Q304 851 303 819Q302 773 309 384C310 361 310 361 310 349Z"/>
<path id="z24521d4" d="M618 296Q702 274 784 265Q803 264 807 273Q817 294 812 350Q794 555 754 663Q733 730 711 751Q701 761 679 753Q651 741 624 730Q602 720 615 744Q655 799 675 841Q682 863 704 860Q728 856 757 823Q838 733 866 400Q872 324 899 280Q917 256 907 246Q889 225 850 209Q822 194 793 208Q720 238 609 259Q512 277 455 276Q433 275 433 286Q432 296 456 312Q484 331 512 323Q537 316 564 310C600 301 600 301 618 296Z"/>
<path id="z24521d5" d="M564 310Q600 388 494 606Q448 699 383 794Q377 801 378 808Q379 814 385 812Q445 791 548 603Q587 513 626 424Q642 375 654 351Q660 338 648 323Q632 305 618 296C602 286 557 293 564 310Z"/>
<defs>
	<clipPath id="z24521c1"><use xlink:href="#z24521d1"/></clipPath>
	<clipPath id="z24521c2"><use xlink:href="#z24521d2"/></clipPath>
	<clipPath id="z24521c3"><use xlink:href="#z24521d3"/></clipPath>
	<clipPath id="z24521c4"><use xlink:href="#z24521d4"/></clipPath>
	<clipPath id="z24521c5"><use xlink:href="#z24521d5"/></clipPath>
</defs>
<path style="--d:1s;" pathLength="3333" clip-path="url(#z24521c1)" d="M167 363L128 570"/>
<path style="--d:2s;" pathLength="3333" clip-path="url(#z24521c2)" d="M317 356L405 439"/>
<path style="--d:3s;" pathLength="3333" clip-path="url(#z24521c3)" d="M232 71L295 137L273 899"/>
<path style="--d:4s;" pathLength="3333" clip-path="url(#z24521c4)" d="M439 284L499 300L809 235L859 267L810 588L762 744L701 808L616 734"/>
<path style="--d:5s;" pathLength="3333" clip-path="url(#z24521c5)" d="M572 315L614 351L577 474L481 676L385 804"/>
</svg>