<!--
AnimCJK 2016-2018 Copyright Francois Mizessyn - https://github.com/parsimonhi/animCJK
Derived from:
    MakeMeAHanzi project - https://github.com/skishore/makemeahanzi
    Arphic PL KaitiM GB - https://apps.ubuntu.com/cat/applications/precise/fonts-arphic-gkai00mp/
    Arphic PL UKai - https://apps.ubuntu.com/cat/applications/fonts-arphic-ukai/
You can redistribute and/or modify this file under the terms of the Arphic Public License
as published by Arphic Technology Co., Ltd.
You should have received a copy of this license (the directory "APL") along with this file;
if not, see http://ftp.gnu.org/non-gnu/chinese-fonts-truetype/LICENSE.
-->
<svg id="z24527" class="acjk" version="1.1" viewBox="0 0 1024 1024" xmlns="http://www.w3.org/2000/svg" xmlns:xlink="http://www.w3.org/1999/xlink">
<style>
<![CDATA[
@keyframes z24527k {
	from {
		stroke:#ccc;
		stroke-dashoffset:3334;
	}
	1% {
		stroke:#c00;
		stroke-dashoffset:3334;
	}
	75% {
		stroke:#c00;
		stroke-dashoffset:0;
	}
	to {
		stroke:#000;
	}
}
#z24527 path[clip-path] {
	animation:z24527k 1s linear both;
	stroke-dasharray:3334;
	stroke-width:128;
	stroke-linecap:round;
	fill:none;
}
#z24527 path[clip-path="url(#z24527c1)"] {animation-delay:1s;}
#z24527 path[clip-path="url(#z24527c2)"] {animation-delay:2s;}
#z24527 path[clip-path="url(#z24527c3)"] {animation-delay:3s;}
#z24527 path[clip-path="url(#z24527c4)"] {animation-delay:4s;}
#z24527 path[clip-path="url(#z24527c5)"] {animation-delay:5s;}
#z24527 path[clip-path="url(#z24527c6)"] {animation-delay:6s;}
#z24527 path {fill:#ccc;}
]]>
</style>
<path id="z24527d1" d="M148 374Q126 444 91 508Q75 539 92 572Q101 588 120 576Q139 560 152 528Q176 474 176 428Q179 397 171 373Q167 366 160 364Q153 365 148 374 Z"/>
<path id="z24527d2" d="M303 341L304 341Q338 363 375 392Q385 401 398 399Q407 398 409 388Q412 376 403 354Q396 335 364 321Q336 312 304 307L303 341 Z"/>
<path id="z24527d3" d="M304 307Q305 228 323 172Q332 157 329 143Q322 133 266 99Q242 83 221 98Q217 102 222 118Q252 164 254 229Q254 637 245 706Q238 742 228 780Q216 822 243 882Q250 900 258 903Q264 910 272 901Q279 897 290 876Q300 851 299 819Q298 771 303 341L304 307 Z"/>
<path id="z24527d4" d="M648 228Q742 186 785 177Q804 176 807 168Q811 156 798 145Q776 129 728 110Q712 103 698 104Q691 108 689 120Q689 165 469 267Q463 277 470 280Q531 264 595 247L648 228 Z"/>
<path id="z24527d5" d="M676 478Q760 468 883 468Q944 471 952 459Q958 446 940 431Q877 386 825 404Q765 416 676 433L622 441Q508 457 377 476Q355 479 372 497Q387 512 406 517Q428 523 446 517Q527 496 622 484L676 478 Z"/>
<path id="z24527d6" d="M628 889Q634 914 641 925Q648 932 655 930Q673 918 676 858Q683 776 681 695Q677 643 676 478L676 433Q676 343 687 272Q690 253 675 243Q660 233 648 228L595 247Q613 280 621 351Q621 391 622 441L622 484Q622 841 628 889 Z"/>
<defs>
	<clipPath id="z24527c1"><use xlink:href="#z24527d1"/></clipPath>
	<clipPath id="z24527c2"><use xlink:href="#z24527d2"/></clipPath>
	<clipPath id="z24527c3"><use xlink:href="#z24527d3"/></clipPath>
	<clipPath id="z24527c4"><use xlink:href="#z24527d4"/></clipPath>
	<clipPath id="z24527c5"><use xlink:href="#z24527d5"/></clipPath>
	<clipPath id="z24527c6"><use xlink:href="#z24527d6"/></clipPath>
</defs>
<path pathLength="3333" clip-path="url(#z24527c1)" d="M161 372L104 577"/>
<path pathLength="3333" clip-path="url(#z24527c2)" d="M309 313L399 391"/>
<path pathLength="3333" clip-path="url(#z24527c3)" d="M225 100L288 162L269 900"/>
<path pathLength="3333" clip-path="url(#z24527c4)" d="M804 164L706 153L634 208L475 273"/>
<path pathLength="3333" clip-path="url(#z24527c5)" d="M372 482L426 495L851 433L948 451"/>
<path pathLength="3333" clip-path="url(#z24527c6)" d="M605 250L648 272L650 922"/>
</svg>