<!--
AnimCJK 2016-2019 Copyright Francois Mizessyn - https://github.com/parsimonhi/animCJK
Derived from:
    MakeMeAHanzi project - https://github.com/skishore/makemeahanzi
    Arphic PL KaitiM GB font
    Arphic PL UKai font
You can redistribute and/or modify this file under the terms of the Arphic Public License
as published by Arphic Technology Co., Ltd.
You should have received a copy of this license along with this file.
If not, see http://ftp.gnu.org/non-gnu/chinese-fonts-truetype/LICENSE.
-->
<svg id="z24525" class="acjk" version="1.1" viewBox="0 0 1024 1024" xmlns="http://www.w3.org/2000/svg" xmlns:xlink="http://www.w3.org/1999/xlink">
<style>
<![CDATA[
@keyframes zk {
	to {
		stroke-dashoffset:0;
	}
}
svg.acjk path[clip-path] {
	--t:0.8s;
	animation:zk var(--t) linear forwards var(--d);
	stroke-dasharray:3337;
	stroke-dashoffset:3339;
	stroke-width:128;
	stroke-linecap:round;
	fill:none;
	stroke:#000;
}
svg.acjk path[id] {fill:#ccc;}
]]>
</style>
<path id="z24525d1" d="M503 201Q582 185 650 177Q677 176 681 183Q693 202 682 251Q660 384 623 442Q604 473 577 467Q552 457 528 445Q503 433 519 461Q562 512 581 550Q603 575 625 555Q661 531 687 486Q717 434 741 271Q750 213 771 186Q786 171 779 160Q769 147 712 119Q690 109 667 122Q637 138 524 159Q410 183 315 186Q294 186 291 196Q288 206 316 220Q344 239 368 232Q413 220 458 211C488 204 488 204 503 201Z"/>
<path id="z24525d2" d="M458 211Q476 373 251 566Q244 573 250 577Q257 578 269 574Q326 549 373 509Q457 442 512 293Q522 268 536 245Q543 235 537 226Q531 216 503 201C489 195 458 196 458 211Z"/>
<path id="z24525d3" d="M348 292Q323 326 294 355Q270 379 280 415Q284 431 305 424Q347 403 362 349Q372 321 370 296Q367 289 362 286Q353 286 348 292Z"/>
<path id="z24525d4" d="M193 646Q168 712 132 770Q111 807 131 842Q140 861 163 847Q217 802 222 708Q226 672 219 646Q213 636 207 636Q197 637 193 646Z"/>
<path id="z24525d5" d="M316 665Q334 783 420 844Q534 923 755 909Q791 905 824 892Q852 882 855 864Q859 854 820 823Q762 765 718 707Q706 688 700 695Q696 702 699 719Q709 756 717 795Q723 820 716 830Q706 843 660 843Q482 843 409 770Q375 739 362 686Q355 659 343 653Q328 644 320 649Q313 650 316 665Z"/>
<path id="z24525d6" d="M474 602Q526 671 552 682Q565 686 575 675Q582 665 581 648Q575 612 489 568Q476 562 466 565Q460 565 461 577Q462 587 474 602Z"/>
<path id="z24525d7" d="M752 558Q815 603 891 670Q909 689 925 692Q934 692 941 681Q951 666 934 623Q916 568 750 526Q740 522 740 535Q740 548 752 558Z"/>
<defs>
	<clipPath id="z24525c1"><use xlink:href="#z24525d1"/></clipPath>
	<clipPath id="z24525c2"><use xlink:href="#z24525d2"/></clipPath>
	<clipPath id="z24525c3"><use xlink:href="#z24525d3"/></clipPath>
	<clipPath id="z24525c4"><use xlink:href="#z24525d4"/></clipPath>
	<clipPath id="z24525c5"><use xlink:href="#z24525d5"/></clipPath>
	<clipPath id="z24525c6"><use xlink:href="#z24525d6"/></clipPath>
	<clipPath id="z24525c7"><use xlink:href="#z24525d7"/></clipPath>
</defs>
<path style="--d:1s;" pathLength="3333" clip-path="url(#z24525c1)" d="M296 197L362 208L668 149L724 168L695 347L648 475L594 515L520 450"/>
<path style="--d:2s;" pathLength="3333" clip-path="url(#z24525c2)" d="M464 218L497 254L433 400L363 489L257 569"/>
<path style="--d:3s;" pathLength="3333" clip-path="url(#z24525c3)" d="M360 294L286 418"/>
<path style="--d:4s;" pathLength="3333" clip-path="url(#z24525c4)" d="M207 643L185 744L134 842"/>
<path style="--d:5s;" pathLength="3333" clip-path="url(#z24525c5)" d="M325 651L358 738L414 808L581 871L719 874L801 853L705 700"/>
<path style="--d:6s;" pathLength="3333" clip-path="url(#z24525c6)" d="M468 571L571 675"/>
<path style="--d:7s;" pathLength="3333" clip-path="url(#z24525c7)" d="M746 533L889 620L932 686"/>
</svg>