<!--
AnimCJK 2016-2019 Copyright Francois Mizessyn - https://github.com/parsimonhi/animCJK
Derived from:
    MakeMeAHanzi project - https://github.com/skishore/makemeahanzi
    Arphic PL KaitiM GB font
    Arphic PL UKai font
You can redistribute and/or modify this file under the terms of the Arphic Public License
as published by Arphic Technology Co., Ltd.
You should have received a copy of this license along with this file.
If not, see http://ftp.gnu.org/non-gnu/chinese-fonts-truetype/LICENSE.
-->
<svg id="z24530" class="acjk" version="1.1" viewBox="0 0 1024 1024" xmlns="http://www.w3.org/2000/svg" xmlns:xlink="http://www.w3.org/1999/xlink">
<style>
<![CDATA[
@keyframes zk {
	to {
		stroke-dashoffset:0;
	}
}
svg.acjk path[clip-path] {
	--t:0.8s;
	animation:zk var(--t) linear forwards var(--d);
	stroke-dasharray:3337;
	stroke-dashoffset:3339;
	stroke-width:128;
	stroke-linecap:round;
	fill:none;
	stroke:#000;
}
svg.acjk path[id] {fill:#ccc;}
]]>
</style>
<path id="z24530d1" d="M568 369Q700 330 703 328Q713 319 708 309Q699 296 666 288Q630 282 550 314C517 325 517 325 500 331Q352 373 219 390Q177 397 207 416Q255 443 318 426Q415 404 516 381C551 373 551 373 568 369Z"/>
<path id="z24530d2" d="M138 616Q123 674 98 729Q85 759 104 790Q114 805 131 791Q149 773 158 743Q171 700 168 665Q169 634 159 613Q155 606 148 605Q141 608 138 616Z"/>
<path id="z24530d3" d="M580 795Q577 785 561 771Q536 750 471 677Q467 670 461 671Q458 671 460 677Q469 714 478 754Q482 770 471 779Q453 791 382 782Q321 773 292 730Q273 699 261 664Q254 640 235 632Q220 625 215 631Q211 635 218 650Q225 666 243 709Q274 808 367 835Q484 868 570 809Q583 802 580 795Z"/>
<path id="z24530d4" d="M296 577Q312 593 330 615Q342 628 357 628Q367 628 373 615Q377 602 371 573Q367 557 343 546Q288 525 272 529Q268 533 268 545Q271 555 296 577Z"/>
<path id="z24530d5" d="M447 567Q475 594 504 626Q514 636 527 638Q536 638 541 627Q545 615 541 591Q537 570 508 553Q441 520 428 525Q424 528 424 539Q427 549 447 567Z"/>
<path id="z24530d6" d="M516 381Q658 792 870 927Q906 949 923 947Q939 947 947 932Q954 920 939 871Q923 817 918 712Q918 678 907 677Q898 677 891 707Q873 821 848 815Q803 793 734 705Q644 590 568 369C556 332 556 332 550 314Q513 203 511 153Q518 108 490 96Q483 92 473 88Q446 76 431 77Q416 78 416 80Q392 90 417 114Q430 117 498 324Q498 327 500 331C511 364 511 364 516 381Z"/>
<path id="z24530d7" d="M640 158Q677 185 717 217Q733 230 749 227Q761 226 765 212Q769 196 757 165Q742 129 631 108Q615 105 608 109Q602 113 605 127Q609 137 640 158Z"/>
<defs>
	<clipPath id="z24530c1"><use xlink:href="#z24530d1"/></clipPath>
	<clipPath id="z24530c2"><use xlink:href="#z24530d2"/></clipPath>
	<clipPath id="z24530c3"><use xlink:href="#z24530d3"/></clipPath>
	<clipPath id="z24530c4"><use xlink:href="#z24530d4"/></clipPath>
	<clipPath id="z24530c5"><use xlink:href="#z24530d5"/></clipPath>
	<clipPath id="z24530c6"><use xlink:href="#z24530d6"/></clipPath>
	<clipPath id="z24530c7"><use xlink:href="#z24530d7"/></clipPath>
</defs>
<path style="--d:1s;" pathLength="3333" clip-path="url(#z24530c1)" d="M203 401L308 402L642 316L705 318"/>
<path style="--d:2s;" pathLength="3333" clip-path="url(#z24530c2)" d="M150 612L119 794"/>
<path style="--d:3s;" pathLength="3333" clip-path="url(#z24530c3)" d="M221 635L297 767L398 813L474 813L528 783L465 679"/>
<path style="--d:4s;" pathLength="3333" clip-path="url(#z24530c4)" d="M276 534L365 620"/>
<path style="--d:5s;" pathLength="3333" clip-path="url(#z24530c5)" d="M430 531L513 594L524 634"/>
<path style="--d:6s;" pathLength="3333" clip-path="url(#z24530c6)" d="M412 91L472 131L576 469L668 659L751 775L849 864L908 896L905 683"/>
<path style="--d:7s;" pathLength="3333" clip-path="url(#z24530c7)" d="M612 114L726 179L756 221"/>
</svg>