<!--
AnimCJK 2016-2019 Copyright Francois Mizessyn - https://github.com/parsimonhi/animCJK
Derived from:
    MakeMeAHanzi project - https://github.com/skishore/makemeahanzi
    Arphic PL KaitiM GB font
    Arphic PL UKai font
You can redistribute and/or modify this file under the terms of the Arphic Public License
as published by Arphic Technology Co., Ltd.
You should have received a copy of this license along with this file.
If not, see http://ftp.gnu.org/non-gnu/chinese-fonts-truetype/LICENSE.
-->
<svg id="z24558" class="acjk" version="1.1" viewBox="0 0 1024 1024" xmlns="http://www.w3.org/2000/svg" xmlns:xlink="http://www.w3.org/1999/xlink">
<style>
<![CDATA[
@keyframes zk {
	to {
		stroke-dashoffset:0;
	}
}
svg.acjk path[clip-path] {
	--t:0.8s;
	animation:zk var(--t) linear forwards var(--d);
	stroke-dasharray:3337;
	stroke-dashoffset:3339;
	stroke-width:128;
	stroke-linecap:round;
	fill:none;
	stroke:#000;
}
svg.acjk path[id] {fill:#ccc;}
]]>
</style>
<path id="z24558d1" d="M156 380Q137 446 107 506Q89 539 111 572Q121 590 141 575Q189 526 187 434Q188 401 179 377Q173 370 167 369Q160 370 156 380Z"/>
<path id="z24558d2" d="M310 363Q325 372 378 416Q391 426 404 424Q414 423 417 412Q420 399 411 373Q399 345 319 333Q316 332 311 332C301 332 302 357 310 363Z"/>
<path id="z24558d3" d="M311 332Q312 241 330 180Q340 165 336 152Q329 142 274 107Q250 89 229 105Q225 111 230 126Q260 172 262 248Q262 669 242 758Q224 830 231 850Q246 911 262 919Q268 926 276 917Q283 913 294 892Q304 867 303 835Q302 787 310 363C311 342 311 342 311 332Z"/>
<path id="z24558d4" d="M641 349Q818 306 823 301Q832 292 827 284Q820 272 790 265Q759 259 729 272Q686 287 644 301C611 310 611 310 594 314Q534 326 469 334Q432 341 459 358Q501 379 569 364Q579 361 593 360C625 353 625 353 641 349Z"/>
<path id="z24558d5" d="M630 485Q634 415 641 349C643 317 643 317 644 301Q648 189 670 127Q674 115 654 100Q618 81 594 76Q578 72 570 81Q563 88 570 104Q592 138 593 161Q594 234 594 314C593 345 593 345 593 360Q592 424 587 497C587 512 630 500 630 485Z"/>
<path id="z24558d6" d="M660 725Q700 664 737 572Q750 541 773 521Q794 505 780 489Q767 476 732 463Q710 456 630 485C601 493 601 493 587 497Q545 504 484 512Q468 513 463 521Q459 528 479 537Q519 553 572 537Q642 513 655 514Q680 518 674 545Q653 629 619 688C602 712 602 712 593 724Q517 811 373 851Q357 855 370 865Q377 869 424 867Q532 858 627 765C649 738 649 738 660 725Z"/>
<path id="z24558d7" d="M627 765Q676 820 757 891Q787 915 832 905Q890 895 934 887Q949 886 961 879Q968 872 956 863Q940 854 815 816Q740 795 660 725C633 700 633 700 619 688Q580 651 539 605Q518 581 484 576Q472 575 463 581Q459 588 467 596Q474 602 483 606Q508 619 593 724C616 751 616 751 627 765Z"/>
<defs>
	<clipPath id="z24558c1"><use xlink:href="#z24558d1"/></clipPath>
	<clipPath id="z24558c2"><use xlink:href="#z24558d2"/></clipPath>
	<clipPath id="z24558c3"><use xlink:href="#z24558d3"/></clipPath>
	<clipPath id="z24558c4"><use xlink:href="#z24558d4"/></clipPath>
	<clipPath id="z24558c5"><use xlink:href="#z24558d5"/></clipPath>
	<clipPath id="z24558c6"><use xlink:href="#z24558d6"/></clipPath>
	<clipPath id="z24558c7"><use xlink:href="#z24558d7"/></clipPath>
</defs>
<path style="--d:1s;" pathLength="3333" clip-path="url(#z24558c1)" d="M168 373L123 576"/>
<path style="--d:2s;" pathLength="3333" clip-path="url(#z24558c2)" d="M318 342L408 417"/>
<path style="--d:3s;" pathLength="3333" clip-path="url(#z24558c3)" d="M233 108L295 172L268 918"/>
<path style="--d:4s;" pathLength="3333" clip-path="url(#z24558c4)" d="M456 345L536 347L824 286"/>
<path style="--d:5s;" pathLength="3333" clip-path="url(#z24558c5)" d="M573 84L630 135L595 492"/>
<path style="--d:6s;" pathLength="3333" clip-path="url(#z24558c6)" d="M467 523L679 492L733 515L601 754L502 824L373 858"/>
<path style="--d:7s;" pathLength="3333" clip-path="url(#z24558c7)" d="M469 585L780 853L955 872"/>
</svg>