<!--
AnimCJK 2016-2019 Copyright Francois Mizessyn - https://github.com/parsimonhi/animCJK
Derived from:
    MakeMeAHanzi project - https://github.com/skishore/makemeahanzi
    Arphic PL KaitiM GB font
    Arphic PL UKai font
You can redistribute and/or modify this file under the terms of the Arphic Public License
as published by Arphic Technology Co., Ltd.
You should have received a copy of this license along with this file.
If not, see http://ftp.gnu.org/non-gnu/chinese-fonts-truetype/LICENSE.
-->
<svg id="z24576" class="acjk" version="1.1" viewBox="0 0 1024 1024" xmlns="http://www.w3.org/2000/svg" xmlns:xlink="http://www.w3.org/1999/xlink">
<style>
<![CDATA[
@keyframes zk {
	to {
		stroke-dashoffset:0;
	}
}
svg.acjk path[clip-path] {
	--t:0.8s;
	animation:zk var(--t) linear forwards var(--d);
	stroke-dasharray:3337;
	stroke-dashoffset:3339;
	stroke-width:128;
	stroke-linecap:round;
	fill:none;
	stroke:#000;
}
svg.acjk path[id] {fill:#ccc;}
]]>
</style>
<path id="z24576d1" d="M134 372Q116 432 87 486Q69 525 91 556Q101 574 121 558Q169 515 167 429Q168 395 159 369Q153 362 147 360Q138 363 134 372Z"/>
<path id="z24576d2" d="M300 337Q387 416 397 420Q398 420 402 420Q412 419 417 407Q421 394 414 367Q408 340 316 310Q306 307 300 309C291 311 293 331 300 337Z"/>
<path id="z24576d3" d="M300 309Q303 236 319 184Q328 169 325 155Q318 145 262 111Q238 95 217 110Q213 114 218 130Q249 178 251 243Q251 666 235 753Q231 775 224 799Q212 841 239 902Q246 920 254 923Q260 930 268 921Q275 917 286 896Q296 871 295 839Q295 791 300 337C300 318 300 318 300 309Z"/>
<path id="z24576d4" d="M684 308Q760 295 875 291Q933 287 938 278Q942 265 924 252Q863 212 808 230Q676 263 424 311Q402 315 419 332Q435 347 455 351Q477 355 495 350Q558 329 631 317C666 311 666 311 684 308Z"/>
<path id="z24576d5" d="M634 471Q707 356 708 349Q707 343 704 337Q694 319 684 308C671 295 631 299 631 317Q632 345 594 430C579 457 579 457 571 471Q493 598 339 743Q332 747 332 755Q331 761 338 760Q428 744 592 530C620 491 620 491 634 471Z"/>
<path id="z24576d6" d="M592 530Q592 684 589 722Q583 774 571 829Q558 875 593 927Q594 931 599 935Q618 953 631 923Q647 880 646 830Q640 580 647 523Q656 493 644 482Q640 476 634 471C607 444 607 444 594 430Q587 424 579 421Q569 420 563 427Q557 442 571 471C579 490 592 509 592 530Z"/>
<path id="z24576d7" d="M731 576Q789 625 858 698Q876 719 892 723Q902 724 909 713Q922 700 907 653Q894 602 731 543Q721 539 719 551Q719 566 731 576Z"/>
<defs>
	<clipPath id="z24576c1"><use xlink:href="#z24576d1"/></clipPath>
	<clipPath id="z24576c2"><use xlink:href="#z24576d2"/></clipPath>
	<clipPath id="z24576c3"><use xlink:href="#z24576d3"/></clipPath>
	<clipPath id="z24576c4"><use xlink:href="#z24576d4"/></clipPath>
	<clipPath id="z24576c5"><use xlink:href="#z24576d5"/></clipPath>
	<clipPath id="z24576c6"><use xlink:href="#z24576d6"/></clipPath>
	<clipPath id="z24576c7"><use xlink:href="#z24576d7"/></clipPath>
</defs>
<path style="--d:1s;" pathLength="3333" clip-path="url(#z24576c1)" d="M147 370L106 561"/>
<path style="--d:2s;" pathLength="3333" clip-path="url(#z24576c2)" d="M306 315L410 411"/>
<path style="--d:3s;" pathLength="3333" clip-path="url(#z24576c3)" d="M221 111L284 186L256 917"/>
<path style="--d:4s;" pathLength="3333" clip-path="url(#z24576c4)" d="M418 318L474 327L828 259L934 272"/>
<path style="--d:5s;" pathLength="3333" clip-path="url(#z24576c5)" d="M636 324L663 359L572 516L439 673L338 752"/>
<path style="--d:6s;" pathLength="3333" clip-path="url(#z24576c6)" d="M573 424L620 522L602 936"/>
<path style="--d:7s;" pathLength="3333" clip-path="url(#z24576c7)" d="M726 550L850 638L894 718"/>
</svg>