<!--
AnimCJK 2016-2018 Copyright Francois Mizessyn - https://github.com/parsimonhi/animCJK
Derived from:
    MakeMeAHanzi project - https://github.com/skishore/makemeahanzi
    Arphic PL KaitiM GB - https://apps.ubuntu.com/cat/applications/precise/fonts-arphic-gkai00mp/
    Arphic PL UKai - https://apps.ubuntu.com/cat/applications/fonts-arphic-ukai/
You can redistribute and/or modify this file under the terms of the Arphic Public License
as published by Arphic Technology Co., Ltd.
You should have received a copy of this license (the directory "APL") along with this file;
if not, see http://ftp.gnu.org/non-gnu/chinese-fonts-truetype/LICENSE.
-->
<svg id="z24574" class="acjk" version="1.1" viewBox="0 0 1024 1024" xmlns="http://www.w3.org/2000/svg" xmlns:xlink="http://www.w3.org/1999/xlink">
<style>
<![CDATA[
@keyframes z24574k {
	from {
		stroke:#ccc;
		stroke-dashoffset:3334;
	}
	1% {
		stroke:#c00;
		stroke-dashoffset:3334;
	}
	75% {
		stroke:#c00;
		stroke-dashoffset:0;
	}
	to {
		stroke:#000;
	}
}
#z24574 path[clip-path] {
	animation:z24574k 1s linear both;
	stroke-dasharray:3334;
	stroke-width:128;
	stroke-linecap:round;
	fill:none;
}
#z24574 path[clip-path="url(#z24574c1)"] {animation-delay:1s;}
#z24574 path[clip-path="url(#z24574c2)"] {animation-delay:2s;}
#z24574 path[clip-path="url(#z24574c3)"] {animation-delay:3s;}
#z24574 path[clip-path="url(#z24574c4)"] {animation-delay:4s;}
#z24574 path[clip-path="url(#z24574c5)"] {animation-delay:5s;}
#z24574 path[clip-path="url(#z24574c6)"] {animation-delay:6s;}
#z24574 path[clip-path="url(#z24574c7)"] {animation-delay:7s;}
#z24574 path {fill:#ccc;}
]]>
</style>
<path id="z24574d1" d="M132 389Q116 458 88 523Q70 556 95 589Q105 605 124 590Q143 571 153 537Q169 485 166 442Q166 408 155 385Q149 378 143 377Q136 380 132 389 Z"/>
<path id="z24574d2" d="M294 359Q300 365 309 373Q334 397 362 426Q372 439 387 438Q396 439 401 427Q405 414 400 389Q394 359 307 331Q300 328 295 329L294 359 Z"/>
<path id="z24574d3" d="M295 329Q296 241 314 180Q324 165 320 151Q313 141 258 107Q234 89 213 105Q209 111 214 126Q247 174 247 251Q247 686 227 777Q209 852 215 871Q230 932 246 939Q253 946 260 937Q267 933 278 912Q288 887 287 855Q286 806 294 359L295 329 Z"/>
<path id="z24574d4" d="M536 261Q566 194 583 176Q590 166 585 153Q579 143 551 125Q524 112 508 115Q492 119 501 138Q531 180 430 367Q423 377 421 384Q420 394 432 390Q445 386 523 283L536 261 Z"/>
<path id="z24574d5" d="M523 283Q562 304 637 286Q821 235 829 229Q838 220 832 212Q825 200 794 195Q764 191 681 225Q605 249 536 261L523 283 Z"/>
<path id="z24574d6" d="M490 389Q457 396 482 411Q522 430 572 414Q636 398 702 379Q732 370 737 366Q744 359 740 351Q733 341 705 335Q677 332 651 345Q570 375 490 389 Z"/>
<path id="z24574d7" d="M428 503Q415 504 419 518Q423 530 446 540Q464 549 538 531Q698 485 711 492Q720 499 713 517Q635 866 888 908Q946 917 971 908Q992 901 983 872Q967 811 961 743Q960 712 953 704Q946 697 940 713Q915 816 893 838Q874 847 853 838Q817 828 787 797Q739 749 743 645Q746 548 800 497Q815 487 809 476Q802 463 749 438Q733 431 719 441Q673 466 562 488Q489 503 428 503 Z"/>
<defs>
	<clipPath id="z24574c1"><use xlink:href="#z24574d1"/></clipPath>
	<clipPath id="z24574c2"><use xlink:href="#z24574d2"/></clipPath>
	<clipPath id="z24574c3"><use xlink:href="#z24574d3"/></clipPath>
	<clipPath id="z24574c4"><use xlink:href="#z24574d4"/></clipPath>
	<clipPath id="z24574c5"><use xlink:href="#z24574d5"/></clipPath>
	<clipPath id="z24574c6"><use xlink:href="#z24574d6"/></clipPath>
	<clipPath id="z24574c7"><use xlink:href="#z24574d7"/></clipPath>
</defs>
<path pathLength="3333" clip-path="url(#z24574c1)" d="M143 383L108 590"/>
<path pathLength="3333" clip-path="url(#z24574c2)" d="M301 341L395 430"/>
<path pathLength="3333" clip-path="url(#z24574c3)" d="M217 110L280 179L251 936"/>
<path pathLength="3333" clip-path="url(#z24574c4)" d="M506 120L544 177L428 384"/>
<path pathLength="3333" clip-path="url(#z24574c5)" d="M531 281L829 217"/>
<path pathLength="3333" clip-path="url(#z24574c6)" d="M481 401L732 350"/>
<path pathLength="3333" clip-path="url(#z24574c7)" d="M425 513L506 518L724 463L759 486L722 601L724 727L760 809L829 861L891 875L945 861L947 708"/>
</svg>