<!--
AnimCJK 2016-2019 Copyright Francois Mizessyn - https://github.com/parsimonhi/animCJK
Derived from:
    MakeMeAHanzi project - https://github.com/skishore/makemeahanzi
    Arphic PL KaitiM GB font
    Arphic PL UKai font
You can redistribute and/or modify this file under the terms of the Arphic Public License
as published by Arphic Technology Co., Ltd.
You should have received a copy of this license along with this file.
If not, see http://ftp.gnu.org/non-gnu/chinese-fonts-truetype/LICENSE.
-->
<svg id="z24597" class="acjk" version="1.1" viewBox="0 0 1024 1024" xmlns="http://www.w3.org/2000/svg" xmlns:xlink="http://www.w3.org/1999/xlink">
<style>
<![CDATA[
@keyframes zk {
	to {
		stroke-dashoffset:0;
	}
}
svg.acjk path[clip-path] {
	--t:0.8s;
	animation:zk var(--t) linear forwards var(--d);
	stroke-dasharray:3337;
	stroke-dashoffset:3339;
	stroke-width:128;
	stroke-linecap:round;
	fill:none;
	stroke:#000;
}
svg.acjk path[id] {fill:#ccc;}
]]>
</style>
<path id="z24597d1" d="M148 389Q133 456 106 519Q93 555 115 585Q125 601 144 586Q163 567 172 533Q187 482 183 442Q183 408 172 385Q165 378 159 377Q152 380 148 389Z"/>
<path id="z24597d2" d="M321 308Q351 329 398 373Q410 385 424 384Q433 383 437 371Q441 358 433 333Q427 314 396 298Q332 274 321 277C311 277 313 302 321 308Z"/>
<path id="z24597d3" d="M321 277Q322 199 339 144Q348 128 345 115Q338 105 282 71Q258 55 237 70Q233 74 239 91Q273 140 274 191Q275 266 278 350Q275 497 272 658Q268 737 248 812Q236 851 263 914Q270 932 278 935Q285 942 292 933Q299 929 310 908Q320 883 318 851Q317 799 321 312Q321 309 321 308C321 287 321 287 321 277Z"/>
<path id="z24597d4" d="M587 370Q632 312 657 271Q712 178 739 155Q758 136 740 121Q719 108 685 101Q654 95 641 103Q628 110 637 123Q655 157 608 262Q584 314 560 374C557 382 582 377 587 370Z"/>
<path id="z24597d5" d="M529 379Q520 370 501 364Q491 360 480 363Q473 367 479 380Q480 389 485 398Q509 449 495 657Q477 762 491 791Q497 803 506 815Q516 828 527 815Q539 799 539 773C541 746 541 746 542 733Q542 652 544 579C544 556 544 556 544 544Q544 424 549 413C552 400 540 387 529 379Z"/>
<path id="z24597d6" d="M744 756Q775 796 799 835Q809 854 820 853Q838 852 854 816Q873 776 869 727Q860 630 853 447Q852 413 869 390Q879 377 869 365Q848 344 792 320Q773 310 757 320Q715 339 587 370C569 373 569 373 560 374Q541 375 529 379C516 382 536 416 549 413Q564 412 740 376Q767 370 780 381Q810 408 793 725Q790 735 781 738C769 745 736 745 744 756Z"/>
<path id="z24597d7" d="M544 579Q547 579 552 580Q570 583 683 566Q744 556 750 551Q759 544 755 536Q748 524 720 516Q696 510 618 533Q614 533 544 544C533 546 532 579 544 579Z"/>
<path id="z24597d8" d="M539 773Q545 773 553 772Q614 760 744 756C758 756 788 750 781 738Q777 728 750 710Q732 700 697 707Q612 723 542 733C529 736 526 773 539 773Z"/>
<defs>
	<clipPath id="z24597c1"><use xlink:href="#z24597d1"/></clipPath>
	<clipPath id="z24597c2"><use xlink:href="#z24597d2"/></clipPath>
	<clipPath id="z24597c3"><use xlink:href="#z24597d3"/></clipPath>
	<clipPath id="z24597c4"><use xlink:href="#z24597d4"/></clipPath>
	<clipPath id="z24597c5"><use xlink:href="#z24597d5"/></clipPath>
	<clipPath id="z24597c6"><use xlink:href="#z24597d6"/></clipPath>
	<clipPath id="z24597c7"><use xlink:href="#z24597d7"/></clipPath>
	<clipPath id="z24597c8"><use xlink:href="#z24597d8"/></clipPath>
</defs>
<path style="--d:1s;" pathLength="3333" clip-path="url(#z24597c1)" d="M161 381L122 585"/>
<path style="--d:2s;" pathLength="3333" clip-path="url(#z24597c2)" d="M328 288L426 376"/>
<path style="--d:3s;" pathLength="3333" clip-path="url(#z24597c3)" d="M242 75L306 134L285 932"/>
<path style="--d:4s;" pathLength="3333" clip-path="url(#z24597c4)" d="M639 109L694 152L567 367"/>
<path style="--d:5s;" pathLength="3333" clip-path="url(#z24597c5)" d="M485 372L522 424L514 816"/>
<path style="--d:6s;" pathLength="3333" clip-path="url(#z24597c6)" d="M537 383L774 346L830 385L825 764L789 804L752 766"/>
<path style="--d:7s;" pathLength="3333" clip-path="url(#z24597c7)" d="M547 572L747 535"/>
<path style="--d:8s;" pathLength="3333" clip-path="url(#z24597c8)" d="M544 765L627 740L774 735"/>
</svg>