<!--
AnimCJK 2016-2019 Copyright Francois Mizessyn - https://github.com/parsimonhi/animCJK
Derived from:
    MakeMeAHanzi project - https://github.com/skishore/makemeahanzi
    Arphic PL KaitiM GB font
    Arphic PL UKai font
You can redistribute and/or modify this file under the terms of the Arphic Public License
as published by Arphic Technology Co., Ltd.
You should have received a copy of this license along with this file.
If not, see http://ftp.gnu.org/non-gnu/chinese-fonts-truetype/LICENSE.
-->
<svg id="z24598" class="acjk" version="1.1" viewBox="0 0 1024 1024" xmlns="http://www.w3.org/2000/svg" xmlns:xlink="http://www.w3.org/1999/xlink">
<style>
<![CDATA[
@keyframes zk {
	to {
		stroke-dashoffset:0;
	}
}
svg.acjk path[clip-path] {
	--t:0.8s;
	animation:zk var(--t) linear forwards var(--d);
	stroke-dasharray:3337;
	stroke-dashoffset:3339;
	stroke-width:128;
	stroke-linecap:round;
	fill:none;
	stroke:#000;
}
svg.acjk path[id] {fill:#ccc;}
]]>
</style>
<path id="z24598d1" d="M140 377Q125 447 98 511Q85 547 107 577Q117 593 136 578Q184 529 175 430Q175 396 164 373Q157 366 151 365Q144 368 140 377Z"/>
<path id="z24598d2" d="M311 347Q342 365 378 397Q391 407 405 405Q414 404 417 392Q420 379 410 354Q398 329 319 316Q315 315 311 316C301 316 303 341 311 347Z"/>
<path id="z24598d3" d="M307 628Q308 519 311 347C311 326 311 326 311 316Q311 315 312 314Q313 223 331 160Q340 145 337 131Q330 121 274 87Q250 71 229 86Q225 90 230 106Q260 152 262 217Q262 625 253 694Q246 730 236 768Q224 810 251 870Q258 888 266 891Q272 898 280 889Q287 885 298 864Q308 839 307 807Q306 780 307 642C307 633 307 633 307 628Z"/>
<path id="z24598d4" d="M592 306Q713 276 884 276Q905 276 909 266Q913 254 897 242Q842 206 791 222Q730 237 634 258Q618 259 605 264C566 271 566 271 546 275Q483 285 419 298Q400 301 415 317Q428 330 447 334Q466 338 482 333Q504 326 531 319C572 310 572 310 592 306Z"/>
<path id="z24598d5" d="M505 487Q565 385 592 306C601 278 601 278 605 264Q627 173 658 122Q667 112 659 103Q644 82 612 60Q593 45 575 48Q553 51 566 72Q587 108 581 138Q565 214 546 275C536 304 536 304 531 319Q471 496 336 607Q315 619 307 628C304 631 302 642 307 642Q355 642 450 557Q460 545 473 531C494 502 494 502 505 487Z"/>
<path id="z24598d6" d="M473 531Q486 582 470 643Q455 679 488 718Q495 728 504 723Q525 705 526 594Q526 540 526 524C526 470 462 478 473 531Z"/>
<path id="z24598d7" d="M526 524Q550 515 625 503C662 496 662 496 681 493Q724 486 766 481Q797 480 799 500Q808 630 792 652Q783 658 725 646Q709 642 705 647Q701 653 714 663Q769 706 803 739Q819 754 833 738Q860 702 862 634Q856 544 866 492Q870 470 859 461Q831 436 810 424Q797 418 787 428Q780 437 682 460C644 467 644 467 625 470Q577 476 505 487C491 490 513 529 526 524Z"/>
<path id="z24598d8" d="M625 934Q631 959 638 969Q644 976 651 974Q666 964 673 905Q680 832 680 760Q677 702 681 493C682 471 682 471 682 460Q682 436 693 383Q696 364 682 355Q648 333 633 330Q620 326 604 334Q595 343 602 353Q624 398 625 470C625 492 625 492 625 503Q626 612 622 762Q621 891 625 934Z"/>
<defs>
	<clipPath id="z24598c1"><use xlink:href="#z24598d1"/></clipPath>
	<clipPath id="z24598c2"><use xlink:href="#z24598d2"/></clipPath>
	<clipPath id="z24598c3"><use xlink:href="#z24598d3"/></clipPath>
	<clipPath id="z24598c4"><use xlink:href="#z24598d4"/></clipPath>
	<clipPath id="z24598c5"><use xlink:href="#z24598d5"/></clipPath>
	<clipPath id="z24598c6"><use xlink:href="#z24598d6"/></clipPath>
	<clipPath id="z24598c7"><use xlink:href="#z24598d7"/></clipPath>
	<clipPath id="z24598c8"><use xlink:href="#z24598d8"/></clipPath>
</defs>
<path style="--d:1s;" pathLength="3333" clip-path="url(#z24598c1)" d="M153 370L116 578"/>
<path style="--d:2s;" pathLength="3333" clip-path="url(#z24598c2)" d="M317 325L410 399"/>
<path style="--d:3s;" pathLength="3333" clip-path="url(#z24598c3)" d="M234 90L296 163L274 887"/>
<path style="--d:4s;" pathLength="3333" clip-path="url(#z24598c4)" d="M413 305L460 313L798 249L906 261"/>
<path style="--d:5s;" pathLength="3333" clip-path="url(#z24598c5)" d="M570 58L622 116L535 378L434 541L313 634"/>
<path style="--d:6s;" pathLength="3333" clip-path="url(#z24598c6)" d="M504 496L497 720"/>
<path style="--d:7s;" pathLength="3333" clip-path="url(#z24598c7)" d="M515 491L815 466L832 487L817 686L799 700L712 651"/>
<path style="--d:8s;" pathLength="3333" clip-path="url(#z24598c8)" d="M607 339L655 387L648 968"/>
</svg>