<!--
AnimCJK 2016-2018 Copyright Francois Mizessyn - https://github.com/parsimonhi/animCJK
Derived from:
    MakeMeAHanzi project - https://github.com/skishore/makemeahanzi
    Arphic PL KaitiM GB - https://apps.ubuntu.com/cat/applications/precise/fonts-arphic-gkai00mp/
    Arphic PL UKai - https://apps.ubuntu.com/cat/applications/fonts-arphic-ukai/
You can redistribute and/or modify this file under the terms of the Arphic Public License
as published by Arphic Technology Co., Ltd.
You should have received a copy of this license (the directory "APL") along with this file;
if not, see http://ftp.gnu.org/non-gnu/chinese-fonts-truetype/LICENSE.
-->
<svg id="z24617" class="acjk" version="1.1" viewBox="0 0 1024 1024" xmlns="http://www.w3.org/2000/svg" xmlns:xlink="http://www.w3.org/1999/xlink">
<style>
<![CDATA[
@keyframes z24617k {
	from {
		stroke:#ccc;
		stroke-dashoffset:3334;
	}
	1% {
		stroke:#c00;
		stroke-dashoffset:3334;
	}
	75% {
		stroke:#c00;
		stroke-dashoffset:0;
	}
	to {
		stroke:#000;
	}
}
#z24617 path[clip-path] {
	animation:z24617k 1s linear both;
	stroke-dasharray:3334;
	stroke-width:128;
	stroke-linecap:round;
	fill:none;
}
#z24617 path[clip-path="url(#z24617c1)"] {animation-delay:1s;}
#z24617 path[clip-path="url(#z24617c2)"] {animation-delay:2s;}
#z24617 path[clip-path="url(#z24617c3)"] {animation-delay:3s;}
#z24617 path[clip-path="url(#z24617c4)"] {animation-delay:4s;}
#z24617 path[clip-path="url(#z24617c5)"] {animation-delay:5s;}
#z24617 path[clip-path="url(#z24617c6)"] {animation-delay:6s;}
#z24617 path[clip-path="url(#z24617c7)"] {animation-delay:7s;}
#z24617 path[clip-path="url(#z24617c8)"] {animation-delay:8s;}
#z24617 path {fill:#ccc;}
]]>
</style>
<path id="z24617d1" d="M107 408Q86 483 54 551Q35 588 59 620Q69 638 89 622Q110 603 121 568Q142 513 140 465Q141 431 131 405Q125 398 119 397Q110 398 107 408 Z"/>
<path id="z24617d2" d="M259 343Q265 347 274 353Q301 371 330 394Q345 404 359 403Q369 402 373 388Q376 373 364 346Q357 328 327 318Q266 303 260 308L259 343 Z"/>
<path id="z24617d3" d="M260 308Q263 227 279 172Q288 157 285 143Q278 133 222 99Q198 83 177 98Q173 102 178 118Q211 166 212 233Q212 665 199 737Q193 770 184 804Q172 846 199 906Q206 924 214 927Q220 934 228 925Q235 921 246 900Q256 875 255 843Q254 794 259 343L260 308 Z"/>
<path id="z24617d4" d="M733 286Q761 217 790 201Q806 182 791 162Q707 104 656 134Q584 167 489 188L509 220Q602 193 666 177Q682 173 690 179Q697 186 695 202Q686 248 675 285L733 286 Z"/>
<path id="z24617d5" d="M493 364Q512 370 527 366Q597 345 749 321Q761 320 761 310Q761 301 733 286L675 285Q575 316 495 333L493 364 Z"/>
<path id="z24617d6" d="M489 188Q477 179 460 173Q441 164 430 169Q418 176 425 189Q444 213 445 285Q444 292 444 303Q441 468 405 586Q372 688 301 806Q297 813 295 819Q294 829 303 827Q336 821 412 686Q421 667 430 647Q481 515 493 364L495 333Q495 329 496 327Q499 239 509 220L489 188 Z"/>
<path id="z24617d7" d="M576 663Q577 663 583 663Q628 633 772 523Q793 504 820 493Q844 483 832 462Q817 443 788 427Q761 411 747 414Q732 415 737 431Q743 465 612 606Q594 624 577 645L576 663 Z"/>
<path id="z24617d8" d="M951 794Q933 751 919 675Q918 659 909 654Q902 650 898 670Q885 761 871 779Q841 810 714 812Q645 809 616 797Q591 784 585 766Q575 736 576 663L577 645Q584 561 603 523Q616 493 598 475Q549 435 533 439Q517 445 524 462Q543 501 537 556Q525 760 551 802Q569 838 657 854Q718 864 813 862Q898 861 933 842Q964 826 951 794 Z"/>
<defs>
	<clipPath id="z24617c1"><use xlink:href="#z24617d1"/></clipPath>
	<clipPath id="z24617c2"><use xlink:href="#z24617d2"/></clipPath>
	<clipPath id="z24617c3"><use xlink:href="#z24617d3"/></clipPath>
	<clipPath id="z24617c4"><use xlink:href="#z24617d4"/></clipPath>
	<clipPath id="z24617c5"><use xlink:href="#z24617d5"/></clipPath>
	<clipPath id="z24617c6"><use xlink:href="#z24617d6"/></clipPath>
	<clipPath id="z24617c7"><use xlink:href="#z24617d7"/></clipPath>
	<clipPath id="z24617c8"><use xlink:href="#z24617d8"/></clipPath>
</defs>
<path pathLength="3333" clip-path="url(#z24617c1)" d="M119 402L108 503L63 621"/>
<path pathLength="3333" clip-path="url(#z24617c2)" d="M267 314L366 392"/>
<path pathLength="3333" clip-path="url(#z24617c3)" d="M182 103L245 161L221 923"/>
<path pathLength="3333" clip-path="url(#z24617c4)" d="M496 189L707 154L746 192L693 285"/>
<path pathLength="3333" clip-path="url(#z24617c5)" d="M498 358L755 303"/>
<path pathLength="3333" clip-path="url(#z24617c6)" d="M431 179L474 226L456 465L412 633L303 820"/>
<path pathLength="3333" clip-path="url(#z24617c7)" d="M745 422L782 469L583 655"/>
<path pathLength="3333" clip-path="url(#z24617c8)" d="M530 448L572 501L557 739L599 814L714 836L885 819L916 789L908 659"/>
</svg>