<!--
AnimCJK 2016-2019 Copyright Francois Mizessyn - https://github.com/parsimonhi/animCJK
Derived from:
    MakeMeAHanzi project - https://github.com/skishore/makemeahanzi
    Arphic PL KaitiM GB font
    Arphic PL UKai font
You can redistribute and/or modify this file under the terms of the Arphic Public License
as published by Arphic Technology Co., Ltd.
You should have received a copy of this license along with this file.
If not, see http://ftp.gnu.org/non-gnu/chinese-fonts-truetype/LICENSE.
-->
<svg id="z24724" class="acjk" version="1.1" viewBox="0 0 1024 1024" xmlns="http://www.w3.org/2000/svg" xmlns:xlink="http://www.w3.org/1999/xlink">
<style>
<![CDATA[
@keyframes zk {
	to {
		stroke-dashoffset:0;
	}
}
svg.acjk path[clip-path] {
	--t:0.8s;
	animation:zk var(--t) linear forwards var(--d);
	stroke-dasharray:3337;
	stroke-dashoffset:3339;
	stroke-width:128;
	stroke-linecap:round;
	fill:none;
	stroke:#000;
}
svg.acjk path[id] {fill:#ccc;}
]]>
</style>
<path id="z24724d1" d="M145 364Q127 433 98 498Q83 532 104 561Q113 577 132 563Q151 544 160 513Q179 461 176 415Q177 384 167 361Q161 354 156 353Q149 356 145 364Z"/>
<path id="z24724d2" d="M304 313Q391 371 401 372C402 372 402 372 402 372Q411 371 413 360Q416 348 406 326Q394 296 308 284Q307 283 305 284C295 284 296 307 304 313Z"/>
<path id="z24724d3" d="M305 284Q309 208 326 153Q335 137 332 124Q325 114 270 79Q246 61 225 77Q221 81 226 97Q256 143 257 221Q257 645 227 756Q224 765 222 775Q209 817 236 877Q242 895 250 899Q256 906 264 897Q271 893 282 872Q292 847 292 816Q292 767 304 313C305 294 305 294 305 284Z"/>
<path id="z24724d4" d="M555 226Q577 196 603 156Q618 131 630 118Q639 108 634 96Q630 84 603 65Q578 49 561 50Q545 51 552 72Q562 88 556 104Q532 188 453 304Q444 314 442 319Q439 329 452 327Q480 318 538 247C549 233 549 233 555 226Z"/>
<path id="z24724d5" d="M538 247Q547 256 582 264Q603 267 730 242Q841 220 851 213Q860 206 855 196Q848 184 818 177Q793 171 691 203Q619 221 555 226C546 226 531 242 538 247Z"/>
<path id="z24724d6" d="M553 357Q540 341 518 331Q499 321 495 331Q491 340 497 349Q513 380 508 415Q498 469 484 520C476 546 476 546 472 559Q439 643 415 672Q376 709 379 721Q383 737 400 753Q416 769 437 751Q488 715 651 718Q690 718 716 723C758 728 758 728 779 730Q825 736 874 749Q890 755 904 749Q916 745 911 731Q904 712 884 699Q871 683 844 685Q825 685 784 684C744 683 744 683 724 682Q627 681 478 694Q463 695 469 677Q491 619 515 552C522 528 522 528 526 516Q544 459 560 389C562 378 560 366 553 357Z"/>
<path id="z24724d7" d="M798 481Q802 403 819 385Q837 363 824 350Q802 329 765 317Q747 310 648 340Q621 346 553 357C542 359 549 391 560 389Q588 385 699 355Q721 351 737 360Q750 370 748 416Q747 453 744 489C742 517 742 517 741 531Q734 621 724 682C719 709 719 709 716 723Q700 804 685 831Q675 847 654 841Q588 826 591 822Q561 815 585 840Q621 876 648 915Q670 943 688 931Q767 882 779 730C782 699 782 699 784 684Q787 627 795 529C797 497 797 497 798 481Z"/>
<path id="z24724d8" d="M607 421Q635 475 655 480Q667 483 675 468Q678 458 673 438Q661 413 615 399Q608 396 605 405Q602 412 607 421Z"/>
<path id="z24724d9" d="M795 529Q843 528 898 529Q923 530 946 530Q965 531 970 522Q976 512 960 497Q903 457 840 473Q819 476 798 481C762 486 762 486 744 489Q693 495 634 503Q582 509 526 516C498 519 498 519 484 520Q414 527 340 535Q321 536 335 553Q348 566 365 572Q386 578 401 574Q435 565 472 559C501 554 501 554 515 552Q555 543 600 541Q658 532 741 531C777 530 777 530 795 529Z"/>
<path id="z24724d10" d="M585 587Q612 651 633 658Q646 662 656 647Q660 635 657 614Q648 584 596 564Q589 560 584 570Q581 577 585 587Z"/>
<defs>
	<clipPath id="z24724c1"><use xlink:href="#z24724d1"/></clipPath>
	<clipPath id="z24724c2"><use xlink:href="#z24724d2"/></clipPath>
	<clipPath id="z24724c3"><use xlink:href="#z24724d3"/></clipPath>
	<clipPath id="z24724c4"><use xlink:href="#z24724d4"/></clipPath>
	<clipPath id="z24724c5"><use xlink:href="#z24724d5"/></clipPath>
	<clipPath id="z24724c6"><use xlink:href="#z24724d6"/></clipPath>
	<clipPath id="z24724c7"><use xlink:href="#z24724d7"/></clipPath>
	<clipPath id="z24724c8"><use xlink:href="#z24724d8"/></clipPath>
	<clipPath id="z24724c9"><use xlink:href="#z24724d9"/></clipPath>
	<clipPath id="z24724c10"><use xlink:href="#z24724d10"/></clipPath>
</defs>
<path style="--d:1s;" pathLength="3333" clip-path="url(#z24724c1)" d="M158 362L117 565"/>
<path style="--d:2s;" pathLength="3333" clip-path="url(#z24724c2)" d="M311 291L410 361"/>
<path style="--d:3s;" pathLength="3333" clip-path="url(#z24724c3)" d="M229 79L291 144L260 897"/>
<path style="--d:4s;" pathLength="3333" clip-path="url(#z24724c4)" d="M559 60L594 111L448 321"/>
<path style="--d:5s;" pathLength="3333" clip-path="url(#z24724c5)" d="M546 245L849 202"/>
<path style="--d:6s;" pathLength="3333" clip-path="url(#z24724c6)" d="M502 334L530 368L528 428L425 706L435 722L682 700L854 714L906 739"/>
<path style="--d:7s;" pathLength="3333" clip-path="url(#z24724c7)" d="M561 364L722 336L787 371L719 841L667 888L582 824"/>
<path style="--d:8s;" pathLength="3333" clip-path="url(#z24724c8)" d="M612 404L663 474"/>
<path style="--d:9s;" pathLength="3333" clip-path="url(#z24724c9)" d="M336 542L389 553L871 498L966 518"/>
<path style="--d:10s;" pathLength="3333" clip-path="url(#z24724c10)" d="M591 572L636 654"/>
</svg>