<!--
AnimCJK 2016-2019 Copyright Francois Mizessyn - https://github.com/parsimonhi/animCJK
Derived from:
    MakeMeAHanzi project - https://github.com/skishore/makemeahanzi
    Arphic PL KaitiM GB font
    Arphic PL UKai font
You can redistribute and/or modify this file under the terms of the Arphic Public License
as published by Arphic Technology Co., Ltd.
You should have received a copy of this license along with this file.
If not, see http://ftp.gnu.org/non-gnu/chinese-fonts-truetype/LICENSE.
-->
<svg id="z24739" class="acjk" version="1.1" viewBox="0 0 1024 1024" xmlns="http://www.w3.org/2000/svg" xmlns:xlink="http://www.w3.org/1999/xlink">
<style>
<![CDATA[
@keyframes zk {
	to {
		stroke-dashoffset:0;
	}
}
svg.acjk path[clip-path] {
	--t:0.8s;
	animation:zk var(--t) linear forwards var(--d);
	stroke-dasharray:3337;
	stroke-dashoffset:3339;
	stroke-width:128;
	stroke-linecap:round;
	fill:none;
	stroke:#000;
}
svg.acjk path[id] {fill:#ccc;}
]]>
</style>
<path id="z24739d1" d="M345 181C337 177 322 174 300 173C291 172 287 174 285 177C281 182 282 189 289 199C307 227 325 264 339 312C342 325 348 336 359 346C372 358 379 360 382 350C383 344 384 336 383 329C380 309 380 309 379 299C376 283 362 228 360 212C358 201 356 185 345 181Z"/>
<path id="z24739d2" d="M706 260C724 224 742 203 756 192C770 179 766 166 751 154C735 142 721 128 704 120C687 112 630 129 548 144C506 151 506 151 485 155C464 158 369 177 345 181C334 183 349 214 360 212C428 194 469 186 485 184C525 178 525 178 545 175C577 170 613 164 656 160C666 158 672 161 675 166C679 174 673 201 658 246C653 262 699 275 706 260Z"/>
<path id="z24739d3" d="M538 303C584 295 641 290 708 284C714 283 718 280 719 275C719 271 714 266 706 260C694 248 674 243 658 246C641 250 573 265 540 272C504 279 504 279 486 282C448 289 412 294 379 299C369 301 373 329 383 329C387 329 391 329 396 328C420 322 450 316 486 311C521 306 521 306 538 303Z"/>
<path id="z24739d4" d="M316 409C307 407 296 406 284 406C275 405 271 407 269 410C265 415 266 422 274 432C293 458 312 496 329 545C333 558 340 570 350 579C364 591 372 592 374 582C375 576 376 568 375 561C371 541 371 541 369 531C365 515 346 453 344 437C341 424 329 412 316 409Z"/>
<path id="z24739d5" d="M719 485C735 451 751 429 766 417C781 403 777 390 760 378C716 345 684 335 659 346C641 353 573 365 536 371C503 376 503 376 486 379C460 383 344 405 316 409C303 411 332 442 344 437C400 420 447 411 486 406C519 401 519 401 535 399C575 393 621 386 659 384C669 383 675 385 679 390C684 398 679 428 662 480C656 498 712 503 719 485Z"/>
<path id="z24739d6" d="M529 537C583 529 649 522 728 516C734 515 738 512 739 507C739 502 732 495 719 485C704 473 681 476 662 480C615 488 572 499 531 507C501 512 501 512 486 515C445 522 406 526 369 531C359 533 365 561 375 561C378 561 381 561 384 561C418 555 444 548 486 543C515 539 515 539 529 537Z"/>
<path id="z24739d7" d="M486 543C486 581 491 603 497 609C505 618 512 616 518 604C522 594 526 571 529 537C530 517 530 517 531 507C532 478 533 442 535 399C536 380 536 380 536 371C536 350 536 327 538 303C539 282 539 282 540 272C542 233 542 201 545 175C547 154 547 154 548 144C549 126 553 111 562 97C567 87 561 78 550 69C535 57 515 47 490 41C479 38 470 41 462 49C455 54 455 59 464 67C476 77 485 90 485 105C485 105 485 138 485 155C485 174 485 174 485 184C485 212 486 244 486 282C486 301 486 301 486 311C486 315 486 361 486 379C486 397 486 397 486 406C486 428 486 489 486 515C486 534 486 534 486 543Z"/>
<path id="z24739d8" d="M233 648C214 688 191 726 166 762C149 783 148 807 160 834C165 846 175 850 191 841C230 816 250 771 258 712C261 687 263 666 258 649C256 642 251 639 247 639C240 639 235 642 233 648Z"/>
<path id="z24739d9" d="M326 692C340 767 374 824 429 859C510 911 619 929 754 910C774 907 793 900 812 893C829 886 838 877 841 866C842 859 830 848 806 828C765 795 733 758 706 722C697 710 691 706 688 712C685 716 685 723 689 733C697 757 705 783 712 809C715 823 715 832 711 839C704 847 688 852 662 853C546 855 465 833 417 790C395 770 378 744 369 710C364 693 357 684 350 681C341 676 334 676 329 678C325 679 324 683 326 692Z"/>
<path id="z24739d10" d="M496 685C525 724 547 750 569 759C579 762 589 759 595 751C600 742 602 732 601 721C597 694 566 669 512 647C501 642 492 642 486 644C481 645 480 648 481 657C482 665 487 674 496 685Z"/>
<path id="z24739d11" d="M740 614C780 638 827 670 878 710C893 722 905 729 917 730C923 730 928 725 933 717C939 706 934 686 921 656C906 622 844 598 735 580C726 578 723 581 724 591C724 601 730 608 740 614Z"/>
<defs>
	<clipPath id="z24739c1"><use xlink:href="#z24739d1"/></clipPath>
	<clipPath id="z24739c2"><use xlink:href="#z24739d2"/></clipPath>
	<clipPath id="z24739c3"><use xlink:href="#z24739d3"/></clipPath>
	<clipPath id="z24739c4"><use xlink:href="#z24739d4"/></clipPath>
	<clipPath id="z24739c5"><use xlink:href="#z24739d5"/></clipPath>
	<clipPath id="z24739c6"><use xlink:href="#z24739d6"/></clipPath>
	<clipPath id="z24739c7"><use xlink:href="#z24739d7"/></clipPath>
	<clipPath id="z24739c8"><use xlink:href="#z24739d8"/></clipPath>
	<clipPath id="z24739c9"><use xlink:href="#z24739d9"/></clipPath>
	<clipPath id="z24739c10"><use xlink:href="#z24739d10"/></clipPath>
	<clipPath id="z24739c11"><use xlink:href="#z24739d11"/></clipPath>
</defs>
<path style="--d:1s;" pathLength="3333" clip-path="url(#z24739c1)" d="M292 183L334 222L368 350"/>
<path style="--d:2s;" pathLength="3333" clip-path="url(#z24739c2)" d="M355 186L683 140L719 180L683 252"/>
<path style="--d:3s;" pathLength="3333" clip-path="url(#z24739c3)" d="M387 303L712 272"/>
<path style="--d:4s;" pathLength="3333" clip-path="url(#z24739c4)" d="M276 415L320 454L362 584"/>
<path style="--d:5s;" pathLength="3333" clip-path="url(#z24739c5)" d="M325 410L690 365L727 404L678 480"/>
<path style="--d:6s;" pathLength="3333" clip-path="url(#z24739c6)" d="M376 534L732 504"/>
<path style="--d:7s;" pathLength="3333" clip-path="url(#z24739c7)" d="M464 51L523 93L502 609"/>
<path style="--d:8s;" pathLength="3333" clip-path="url(#z24739c8)" d="M245 646L221 739L162 835"/>
<path style="--d:9s;" pathLength="3333" clip-path="url(#z24739c9)" d="M334 683L424 826L589 882L696 883L787 855L692 718"/>
<path style="--d:10s;" pathLength="3333" clip-path="url(#z24739c10)" d="M487 654L591 749"/>
<path style="--d:11s;" pathLength="3333" clip-path="url(#z24739c11)" d="M729 588L867 654L928 720"/>
</svg>