<!--
AnimCJK 2016-2019 Copyright Francois Mizessyn - https://github.com/parsimonhi/animCJK
Derived from:
    MakeMeAHanzi project - https://github.com/skishore/makemeahanzi
    Arphic PL KaitiM GB font
    Arphic PL UKai font
You can redistribute and/or modify this file under the terms of the Arphic Public License
as published by Arphic Technology Co., Ltd.
You should have received a copy of this license along with this file.
If not, see http://ftp.gnu.org/non-gnu/chinese-fonts-truetype/LICENSE.
-->
<svg id="z24731" class="acjk" version="1.1" viewBox="0 0 1024 1024" xmlns="http://www.w3.org/2000/svg" xmlns:xlink="http://www.w3.org/1999/xlink">
<style>
<![CDATA[
@keyframes zk {
	to {
		stroke-dashoffset:0;
	}
}
svg.acjk path[clip-path] {
	--t:0.8s;
	animation:zk var(--t) linear forwards var(--d);
	stroke-dasharray:3337;
	stroke-dashoffset:3339;
	stroke-width:128;
	stroke-linecap:round;
	fill:none;
	stroke:#000;
}
svg.acjk path[id] {fill:#ccc;}
]]>
</style>
<path id="z24731d1" d="M122 351Q100 424 65 490Q58 502 58 519Q58 544 67 560Q77 578 98 563Q155 509 153 409Q156 375 147 349Q141 342 135 340Q126 341 122 351Z"/>
<path id="z24731d2" d="M287 314Q293 315 354 373Q366 383 379 383Q389 383 393 371Q397 358 390 333Q381 303 291 278Q290 277 288 278C276 276 276 309 287 314Z"/>
<path id="z24731d3" d="M288 278Q292 209 306 160Q316 145 312 131Q305 121 250 87Q226 69 205 85Q201 91 206 106Q236 152 238 226Q238 643 218 731Q200 800 207 823Q222 884 238 891Q244 898 252 889Q259 885 270 864Q280 839 279 807Q278 759 287 314C288 290 288 290 288 278Z"/>
<path id="z24731d4" d="M717 263Q632 273 543 294Q534 298 531 295Q528 291 534 281Q630 136 651 112Q663 102 656 88Q649 76 599 55Q581 48 572 52Q559 59 566 80Q585 134 490 269Q469 290 441 312Q428 325 431 336Q437 352 464 372Q476 382 489 371Q525 341 712 292Q725 288 736 283C745 280 726 261 717 263Z"/>
<path id="z24731d5" d="M736 283Q776 328 790 329Q800 330 805 319Q811 307 806 280Q803 255 769 232Q693 189 676 193Q672 196 671 207Q671 211 717 263C730 276 730 276 736 283Z"/>
<path id="z24731d6" d="M463 402Q464 469 387 533Q368 549 358 558Q349 570 363 568Q405 568 473 501Q479 494 526 446Q536 436 526 422Q493 389 473 388Q463 389 463 402Z"/>
<path id="z24731d7" d="M718 405Q758 432 802 465Q815 477 831 474Q841 473 845 460Q848 445 837 418Q822 381 709 360Q693 359 688 361Q684 365 686 377Q690 387 718 405Z"/>
<path id="z24731d8" d="M610 524Q625 503 626 500Q625 490 613 479Q583 449 554 454Q547 455 547 467Q559 528 456 644Q453 645 452 648Q422 679 350 741Q341 745 351 749Q420 736 519 637C532 622 532 622 538 615Q557 593 581 562C600 537 600 537 610 524Z"/>
<path id="z24731d9" d="M610 736Q535 829 380 872Q367 876 378 885Q385 889 430 887Q545 878 641 776C660 749 660 749 670 736Q706 679 739 598Q752 570 772 552Q791 537 780 523Q767 511 736 498Q715 492 639 518Q638 518 610 524C594 527 565 562 581 562Q605 563 635 557Q660 544 665 543Q689 547 682 572Q663 647 633 701C618 724 618 724 610 736Z"/>
<path id="z24731d10" d="M519 637Q549 658 610 736C631 763 631 763 641 776Q740 896 774 901Q918 901 928 900Q962 897 960 888Q957 878 809 825Q805 822 802 822Q736 794 670 736C645 713 645 713 633 701Q611 677 588 652Q563 622 538 615C529 611 511 631 519 637Z"/>
<defs>
	<clipPath id="z24731c1"><use xlink:href="#z24731d1"/></clipPath>
	<clipPath id="z24731c2"><use xlink:href="#z24731d2"/></clipPath>
	<clipPath id="z24731c3"><use xlink:href="#z24731d3"/></clipPath>
	<clipPath id="z24731c4"><use xlink:href="#z24731d4"/></clipPath>
	<clipPath id="z24731c5"><use xlink:href="#z24731d5"/></clipPath>
	<clipPath id="z24731c6"><use xlink:href="#z24731d6"/></clipPath>
	<clipPath id="z24731c7"><use xlink:href="#z24731d7"/></clipPath>
	<clipPath id="z24731c8"><use xlink:href="#z24731d8"/></clipPath>
	<clipPath id="z24731c9"><use xlink:href="#z24731d9"/></clipPath>
	<clipPath id="z24731c10"><use xlink:href="#z24731d10"/></clipPath>
</defs>
<path style="--d:1s;" pathLength="3333" clip-path="url(#z24731c1)" d="M135 350L79 566"/>
<path style="--d:2s;" pathLength="3333" clip-path="url(#z24731c2)" d="M293 283L385 376"/>
<path style="--d:3s;" pathLength="3333" clip-path="url(#z24731c3)" d="M209 92L271 148L245 889"/>
<path style="--d:4s;" pathLength="3333" clip-path="url(#z24731c4)" d="M575 59L613 107L487 324L510 335L729 276"/>
<path style="--d:5s;" pathLength="3333" clip-path="url(#z24731c5)" d="M680 202L801 320"/>
<path style="--d:6s;" pathLength="3333" clip-path="url(#z24731c6)" d="M472 397L494 438L362 562"/>
<path style="--d:7s;" pathLength="3333" clip-path="url(#z24731c7)" d="M692 365L789 416L834 469"/>
<path style="--d:8s;" pathLength="3333" clip-path="url(#z24731c8)" d="M554 459L583 505L538 577L456 670L353 743"/>
<path style="--d:9s;" pathLength="3333" clip-path="url(#z24731c9)" d="M591 557L667 525L732 542L648 724L525 837L379 877"/>
<path style="--d:10s;" pathLength="3333" clip-path="url(#z24731c10)" d="M526 634L755 844L950 889"/>
</svg>