<!--
AnimCJK 2016-2018 Copyright Francois Mizessyn, https://github.com/parsimonhi/animCJK
Derived from:
    MakeMeAHanzi project - https://github.com/skishore/makemeahanzi
    Arphic PL KaitiM GB - https://apps.ubuntu.com/cat/applications/precise/fonts-arphic-gkai00mp/
    Arphic PL UKai - https://apps.ubuntu.com/cat/applications/fonts-arphic-ukai/
You can redistribute and/or modify this file under the terms of the Arphic Public License
as published by Arphic Technology Co., Ltd.
You should have received a copy of this license (the directory "APL") along with this file;
if not, see http://ftp.gnu.org/non-gnu/chinese-fonts-truetype/LICENSE.
-->
<svg id="z24833" class="acjk" version="1.1" viewBox="0 0 1024 1024" xmlns="http://www.w3.org/2000/svg" xmlns:xlink="http://www.w3.org/1999/xlink">
<style>
<![CDATA[
@keyframes z24833k {
	from {
		stroke:#c00;
		stroke-dashoffset:3334;
	}
	75% {
		stroke:#c00;
		stroke-dashoffset:0;
	}
	to {
		stroke:#000;
	}
}
#z24833 path[clip-path] {
	animation:z24833k 1s linear both;
	stroke-dasharray:3334;
	stroke-width:128;
	stroke-linecap:round;
	fill:none;
}
#z24833 path[clip-path="url(#z24833c1)"] {animation-delay:1s;}
#z24833 path[clip-path="url(#z24833c2)"] {animation-delay:2s;}
#z24833 path[clip-path="url(#z24833c3)"] {animation-delay:3s;}
#z24833 path[clip-path="url(#z24833c4)"] {animation-delay:4s;}
#z24833 path[clip-path="url(#z24833c5)"] {animation-delay:5s;}
#z24833 path[clip-path="url(#z24833c6)"] {animation-delay:6s;}
#z24833 path[clip-path="url(#z24833c7)"] {animation-delay:7s;}
#z24833 path[clip-path="url(#z24833c8)"] {animation-delay:8s;}
#z24833 path[clip-path="url(#z24833c9)"] {animation-delay:9s;}
#z24833 path[clip-path="url(#z24833c10)"] {animation-delay:10s;}
#z24833 path[clip-path="url(#z24833c11)"] {animation-delay:11s;}
#z24833 path[clip-path="url(#z24833c12)"] {animation-delay:12s;}
#z24833 path[clip-path="url(#z24833c13)"] {animation-delay:13s;}
#z24833 path {fill:#ccc;}
]]>
</style>
<path id="z24833d1" d="M379 190Q430 160 481 146Q499 145 501 136Q504 124 491 115Q469 102 424 88Q408 81 395 84Q388 88 388 99Q389 135 228 232Q224 242 230 244Q245 244 318 215Q327 211 337 208L379 190 Z"/>
<path id="z24833d2" d="M401 340Q431 333 466 328Q482 325 482 318Q483 306 466 298Q441 288 406 296L356 309Q191 348 124 355Q111 356 109 364Q106 374 121 385Q160 409 197 396Q275 369 330 355L401 340 Z"/>
<path id="z24833d3" d="M355 407Q352 521 342 562Q341 574 357 613Q367 629 381 621Q396 609 392 511Q392 423 401 340L406 296Q407 269 426 238Q432 229 421 216Q402 200 379 190L337 208Q355 247 356 309L355 407 Z"/>
<path id="z24833d4" d="M330 355Q290 443 159 554Q147 566 156 567Q165 571 176 566Q261 530 355 407L355 350L330 355 Z"/>
<path id="z24833d5" d="M444 437Q463 453 485 473Q495 483 506 482Q513 481 518 471Q521 461 514 439Q510 426 487 415Q433 397 424 402Q420 405 421 414Q424 421 444 437 Z"/>
<path id="z24833d6" d="M504 293Q550 362 571 365Q583 366 590 352Q593 340 586 322Q571 291 511 270Q504 267 501 277Q500 284 504 293 Z"/>
<path id="z24833d7" d="M774 234Q762 255 711 318Q701 334 717 331Q756 313 813 276Q831 261 853 252Q874 242 864 226Q851 210 827 196Q805 183 793 185Q780 186 784 199Q787 217 774 234 Z"/>
<path id="z24833d8" d="M663 381Q687 161 689 159Q698 128 695 120L692 117Q670 99 633 89Q609 83 601 90Q592 97 600 108Q645 178 619 398Q601 483 540 533Q515 551 481 571Q469 577 469 581Q470 585 481 586Q491 589 520 579Q613 552 649 446Q653 428 658 409L663 381 Z"/>
<path id="z24833d9" d="M658 409Q704 482 758 552Q776 574 810 579Q871 588 936 582Q952 581 954 577Q957 571 944 565Q910 549 868 533Q778 496 671 388Q667 384 663 381L658 409 Z"/>
<path id="z24833d10" d="M238 675Q217 742 185 802Q178 814 178 831Q178 856 187 872Q197 890 218 875Q269 827 270 733Q271 699 263 673Q257 666 251 664Q242 665 238 675 Z"/>
<path id="z24833d11" d="M323 704Q344 819 432 876Q543 945 757 927Q797 920 831 906Q859 894 860 877Q864 867 822 843Q758 797 711 748Q696 732 692 740Q689 746 721 820Q731 842 724 855Q717 865 681 867Q498 874 418 806Q382 776 365 722Q358 697 346 693Q333 686 325 690Q319 691 323 704 Z"/>
<path id="z24833d12" d="M498 663Q555 724 592 741Q605 744 615 731Q621 719 619 703Q604 657 510 625Q494 621 485 624Q479 625 482 637Q483 649 498 663 Z"/>
<path id="z24833d13" d="M737 652Q791 688 856 741Q875 759 890 760Q899 760 905 749Q915 734 896 694Q878 648 733 622Q723 618 724 630Q725 643 737 652 Z"/>
<defs>
	<clipPath id="z24833c1"><use xlink:href="#z24833d1"/></clipPath>
	<clipPath id="z24833c2"><use xlink:href="#z24833d2"/></clipPath>
	<clipPath id="z24833c3"><use xlink:href="#z24833d3"/></clipPath>
	<clipPath id="z24833c4"><use xlink:href="#z24833d4"/></clipPath>
	<clipPath id="z24833c5"><use xlink:href="#z24833d5"/></clipPath>
	<clipPath id="z24833c6"><use xlink:href="#z24833d6"/></clipPath>
	<clipPath id="z24833c7"><use xlink:href="#z24833d7"/></clipPath>
	<clipPath id="z24833c8"><use xlink:href="#z24833d8"/></clipPath>
	<clipPath id="z24833c9"><use xlink:href="#z24833d9"/></clipPath>
	<clipPath id="z24833c10"><use xlink:href="#z24833d10"/></clipPath>
	<clipPath id="z24833c11"><use xlink:href="#z24833d11"/></clipPath>
	<clipPath id="z24833c12"><use xlink:href="#z24833d12"/></clipPath>
	<clipPath id="z24833c13"><use xlink:href="#z24833d13"/></clipPath>
</defs>
<path pathLength="3333" clip-path="url(#z24833c1)" d="M497 134L406 127L233 239"/>
<path pathLength="3333" clip-path="url(#z24833c2)" d="M112 364L167 375L475 318"/>
<path pathLength="3333" clip-path="url(#z24833c3)" d="M345 212L389 241L373 619"/>
<path pathLength="3333" clip-path="url(#z24833c4)" d="M347 358L273 472L160 563"/>
<path pathLength="3333" clip-path="url(#z24833c5)" d="M425 408L511 473"/>
<path pathLength="3333" clip-path="url(#z24833c6)" d="M508 280L579 357"/>
<path pathLength="3333" clip-path="url(#z24833c7)" d="M791 190L816 243L715 324"/>
<path pathLength="3333" clip-path="url(#z24833c8)" d="M605 99L657 139L631 433L570 532L477 578"/>
<path pathLength="3333" clip-path="url(#z24833c9)" d="M664 391L797 538L946 571"/>
<path pathLength="3333" clip-path="url(#z24833c10)" d="M251 673L202 878"/>
<path pathLength="3333" clip-path="url(#z24833c11)" d="M330 691L411 831L573 894L724 895L806 869L698 744"/>
<path pathLength="3333" clip-path="url(#z24833c12)" d="M488 633L612 728"/>
<path pathLength="3333" clip-path="url(#z24833c13)" d="M730 628L849 692L901 750"/>
</svg>