<!--
AnimCJK 2016-2018 Copyright Francois Mizessyn - https://github.com/parsimonhi/animCJK
Derived from:
    MakeMeAHanzi project - https://github.com/skishore/makemeahanzi
    Arphic PL KaitiM GB - https://apps.ubuntu.com/cat/applications/precise/fonts-arphic-gkai00mp/
    Arphic PL UKai - https://apps.ubuntu.com/cat/applications/fonts-arphic-ukai/
You can redistribute and/or modify this file under the terms of the Arphic Public License
as published by Arphic Technology Co., Ltd.
You should have received a copy of this license (the directory "APL") along with this file;
if not, see http://ftp.gnu.org/non-gnu/chinese-fonts-truetype/LICENSE.
-->
<svg id="z24852" class="acjk" version="1.1" viewBox="0 0 1024 1024" xmlns="http://www.w3.org/2000/svg" xmlns:xlink="http://www.w3.org/1999/xlink">
<style>
<![CDATA[
@keyframes z24852k {
	from {
		stroke:#ccc;
		stroke-dashoffset:3334;
	}
	1% {
		stroke:#c00;
		stroke-dashoffset:3334;
	}
	75% {
		stroke:#c00;
		stroke-dashoffset:0;
	}
	to {
		stroke:#000;
	}
}
#z24852 path[clip-path] {
	animation:z24852k 1s linear both;
	stroke-dasharray:3334;
	stroke-width:128;
	stroke-linecap:round;
	fill:none;
}
#z24852 path[clip-path="url(#z24852c1)"] {animation-delay:1s;}
#z24852 path[clip-path="url(#z24852c2)"] {animation-delay:2s;}
#z24852 path[clip-path="url(#z24852c3)"] {animation-delay:3s;}
#z24852 path[clip-path="url(#z24852c4)"] {animation-delay:4s;}
#z24852 path[clip-path="url(#z24852c5)"] {animation-delay:5s;}
#z24852 path[clip-path="url(#z24852c6)"] {animation-delay:6s;}
#z24852 path[clip-path="url(#z24852c7)"] {animation-delay:7s;}
#z24852 path[clip-path="url(#z24852c8)"] {animation-delay:8s;}
#z24852 path[clip-path="url(#z24852c9)"] {animation-delay:9s;}
#z24852 path[clip-path="url(#z24852c10)"] {animation-delay:10s;}
#z24852 path[clip-path="url(#z24852c11)"] {animation-delay:11s;}
#z24852 path[clip-path="url(#z24852c12)"] {animation-delay:12s;}
#z24852 path {fill:#ccc;}
]]>
</style>
<path id="z24852d1" d="M145 412Q130 476 104 534Q91 568 111 597Q121 613 139 598Q184 552 178 463Q178 432 167 409Q161 402 156 401Q149 404 145 412 Z"/>
<path id="z24852d2" d="M302 342Q308 348 320 356Q348 377 380 403Q392 413 405 412Q414 411 417 400Q420 387 412 363Q400 333 314 317Q307 316 303 316L302 342 Z"/>
<path id="z24852d3" d="M303 316Q306 237 322 182Q331 167 327 154Q321 144 266 111Q244 95 223 110Q219 114 225 130Q255 176 257 241Q257 433 255 575Q249 728 230 795Q220 832 244 894Q251 912 259 915Q265 922 272 913Q279 909 289 889Q299 864 298 834Q297 785 302 342L303 316 Z"/>
<path id="z24852d4" d="M564 112Q594 137 625 169Q640 182 656 182Q666 181 673 167Q677 152 668 121Q662 99 629 83Q550 55 536 61Q530 65 532 79Q536 89 564 112 Z"/>
<path id="z24852d5" d="M704 254Q714 250 729 249Q772 239 778 234Q787 227 783 219Q776 209 750 201Q725 195 628 225Q487 247 465 250Q431 254 455 271Q492 295 544 283Q602 271 665 261L704 254 Z"/>
<path id="z24852d6" d="M457 347Q496 434 517 442Q530 446 540 431Q544 419 542 398Q538 379 516 361Q485 333 468 324Q461 320 456 330Q452 337 457 347 Z"/>
<path id="z24852d7" d="M650 459Q669 435 709 360Q719 341 739 315Q754 302 745 292Q735 274 704 254L665 261Q665 262 667 266Q679 302 624 438Q618 453 616 465L650 459 Z"/>
<path id="z24852d8" d="M616 465Q490 484 343 506Q324 509 339 525Q352 538 370 543Q391 547 406 543Q614 479 921 479Q922 479 924 479Q943 479 948 470Q952 460 937 446Q886 410 849 419Q774 437 650 459L616 465 Z"/>
<path id="z24852d9" d="M478 600Q469 591 447 584Q438 580 428 584Q421 588 427 599Q428 606 431 611Q452 650 442 805Q424 887 459 923Q469 935 478 924Q488 908 488 890L490 857Q490 809 490 761L490 732Q490 684 491 634L478 600 Z"/>
<path id="z24852d10" d="M665 876Q693 913 713 947Q722 965 732 965Q748 964 765 931Q784 892 781 846Q775 788 770 679Q769 648 787 625Q797 612 787 602Q768 581 716 556Q697 546 681 556Q588 593 478 600L491 634Q506 634 669 609Q691 606 702 615Q711 625 711 822Q710 834 709 842Q705 858 689 854L665 876 Z"/>
<path id="z24852d11" d="M490 761Q575 748 639 739Q661 735 653 723Q643 710 619 705Q585 701 490 732L490 761 Z"/>
<path id="z24852d12" d="M488 890Q495 891 507 890Q558 880 665 876L689 854Q682 845 666 836Q650 826 619 833Q549 848 490 857L488 890 Z"/>
<defs>
	<clipPath id="z24852c1"><use xlink:href="#z24852d1"/></clipPath>
	<clipPath id="z24852c2"><use xlink:href="#z24852d2"/></clipPath>
	<clipPath id="z24852c3"><use xlink:href="#z24852d3"/></clipPath>
	<clipPath id="z24852c4"><use xlink:href="#z24852d4"/></clipPath>
	<clipPath id="z24852c5"><use xlink:href="#z24852d5"/></clipPath>
	<clipPath id="z24852c6"><use xlink:href="#z24852d6"/></clipPath>
	<clipPath id="z24852c7"><use xlink:href="#z24852d7"/></clipPath>
	<clipPath id="z24852c8"><use xlink:href="#z24852d8"/></clipPath>
	<clipPath id="z24852c9"><use xlink:href="#z24852d9"/></clipPath>
	<clipPath id="z24852c10"><use xlink:href="#z24852d10"/></clipPath>
	<clipPath id="z24852c11"><use xlink:href="#z24852d11"/></clipPath>
	<clipPath id="z24852c12"><use xlink:href="#z24852d12"/></clipPath>
</defs>
<path pathLength="3333" clip-path="url(#z24852c1)" d="M158 408L122 601"/>
<path pathLength="3333" clip-path="url(#z24852c2)" d="M309 322L412 400"/>
<path pathLength="3333" clip-path="url(#z24852c3)" d="M228 115L288 174L261 912"/>
<path pathLength="3333" clip-path="url(#z24852c4)" d="M537 71L616 113L667 173"/>
<path pathLength="3333" clip-path="url(#z24852c5)" d="M452 258L780 224"/>
<path pathLength="3333" clip-path="url(#z24852c6)" d="M462 332L524 437"/>
<path pathLength="3333" clip-path="url(#z24852c7)" d="M674 266L706 308L625 459"/>
<path pathLength="3333" clip-path="url(#z24852c8)" d="M342 518L834 451L944 461"/>
<path pathLength="3333" clip-path="url(#z24852c9)" d="M434 591L466 644L468 925"/>
<path pathLength="3333" clip-path="url(#z24852c10)" d="M485 603L524 613L696 580L742 609L744 856L706 935"/>
<path pathLength="3333" clip-path="url(#z24852c11)" d="M496 752L650 726"/>
<path pathLength="3333" clip-path="url(#z24852c12)" d="M497 883L680 856"/>
</svg>