<!--
AnimCJK 2016-2019 Copyright Francois Mizessyn - https://github.com/parsimonhi/animCJK
Derived from:
    MakeMeAHanzi project - https://github.com/skishore/makemeahanzi
    Arphic PL KaitiM GB font
    Arphic PL UKai font
You can redistribute and/or modify this file under the terms of the Arphic Public License
as published by Arphic Technology Co., Ltd.
You should have received a copy of this license along with this file.
If not, see http://ftp.gnu.org/non-gnu/chinese-fonts-truetype/LICENSE.
-->
<svg id="z24852" class="acjk" version="1.1" viewBox="0 0 1024 1024" xmlns="http://www.w3.org/2000/svg" xmlns:xlink="http://www.w3.org/1999/xlink">
<style>
<![CDATA[
@keyframes zk {
	to {
		stroke-dashoffset:0;
	}
}
svg.acjk path[clip-path] {
	--t:0.8s;
	animation:zk var(--t) linear forwards var(--d);
	stroke-dasharray:3337;
	stroke-dashoffset:3339;
	stroke-width:128;
	stroke-linecap:round;
	fill:none;
	stroke:#000;
}
svg.acjk path[id] {fill:#ccc;}
]]>
</style>
<path id="z24852d1" d="M145 412Q130 476 104 534Q91 568 111 597Q121 613 139 598Q184 552 178 463Q178 432 167 409Q161 402 156 401Q149 404 145 412Z"/>
<path id="z24852d2" d="M302 342Q308 348 320 356Q348 377 380 403Q392 413 405 412Q414 411 417 400Q420 387 412 363Q400 333 314 317Q307 316 303 316C294 316 295 337 302 342Z"/>
<path id="z24852d3" d="M303 316Q306 237 322 182Q331 167 327 154Q321 144 266 111Q244 95 223 110Q219 114 225 130Q255 176 257 241Q257 433 255 575Q249 728 230 795Q220 832 244 894Q251 912 259 915Q265 922 272 913Q279 909 289 889Q299 864 298 834Q297 785 302 342C303 325 303 325 303 316Z"/>
<path id="z24852d4" d="M564 112Q594 137 625 169Q640 182 656 182Q666 181 673 167Q677 152 668 121Q662 99 629 83Q550 55 536 61Q530 65 532 79Q536 89 564 112Z"/>
<path id="z24852d5" d="M704 254Q714 250 729 249Q772 239 778 234Q787 227 783 219Q776 209 750 201Q725 195 628 225Q487 247 465 250Q431 254 455 271Q492 295 544 283Q602 271 665 261C691 256 691 256 704 254Z"/>
<path id="z24852d6" d="M457 347Q496 434 517 442Q530 446 540 431Q544 419 542 398Q538 379 516 361Q485 333 468 324Q461 320 456 330Q452 337 457 347Z"/>
<path id="z24852d7" d="M650 459Q669 435 709 360Q719 341 739 315Q754 302 745 292Q735 274 704 254C693 247 660 249 665 261Q665 262 667 266Q679 302 624 438Q618 453 616 465C614 476 643 468 650 459Z"/>
<path id="z24852d8" d="M616 465Q490 484 343 506Q324 509 339 525Q352 538 370 543Q391 547 406 543Q614 479 921 479Q922 479 924 479Q943 479 948 470Q952 460 937 446Q886 410 849 419Q774 437 650 459C627 463 627 463 616 465Z"/>
<path id="z24852d9" d="M478 600Q469 591 447 584Q438 580 428 584Q421 588 427 599Q428 606 431 611Q452 650 442 805Q424 887 459 923Q469 935 478 924Q488 908 488 890C489 868 489 868 490 857Q490 809 490 761C490 742 490 742 490 732Q490 684 491 634C491 622 488 607 478 600Z"/>
<path id="z24852d10" d="M665 876Q693 913 713 947Q722 965 732 965Q748 964 765 931Q784 892 781 846Q775 788 770 679Q769 648 787 625Q797 612 787 602Q768 581 716 556Q697 546 681 556Q588 593 478 600C466 600 479 634 491 634Q506 634 669 609Q691 606 702 615Q711 625 711 822Q710 834 709 842Q705 858 689 854C678 852 658 867 665 876Z"/>
<path id="z24852d11" d="M490 761Q575 748 639 739Q661 735 653 723Q643 710 619 705Q585 701 490 732C481 736 481 763 490 761Z"/>
<path id="z24852d12" d="M488 890Q495 891 507 890Q558 880 665 876C676 876 697 862 689 854Q682 845 666 836Q650 826 619 833Q549 848 490 857C479 859 477 890 488 890Z"/>
<defs>
	<clipPath id="z24852c1"><use xlink:href="#z24852d1"/></clipPath>
	<clipPath id="z24852c2"><use xlink:href="#z24852d2"/></clipPath>
	<clipPath id="z24852c3"><use xlink:href="#z24852d3"/></clipPath>
	<clipPath id="z24852c4"><use xlink:href="#z24852d4"/></clipPath>
	<clipPath id="z24852c5"><use xlink:href="#z24852d5"/></clipPath>
	<clipPath id="z24852c6"><use xlink:href="#z24852d6"/></clipPath>
	<clipPath id="z24852c7"><use xlink:href="#z24852d7"/></clipPath>
	<clipPath id="z24852c8"><use xlink:href="#z24852d8"/></clipPath>
	<clipPath id="z24852c9"><use xlink:href="#z24852d9"/></clipPath>
	<clipPath id="z24852c10"><use xlink:href="#z24852d10"/></clipPath>
	<clipPath id="z24852c11"><use xlink:href="#z24852d11"/></clipPath>
	<clipPath id="z24852c12"><use xlink:href="#z24852d12"/></clipPath>
</defs>
<path style="--d:1s;" pathLength="3333" clip-path="url(#z24852c1)" d="M158 408L122 601"/>
<path style="--d:2s;" pathLength="3333" clip-path="url(#z24852c2)" d="M309 322L412 400"/>
<path style="--d:3s;" pathLength="3333" clip-path="url(#z24852c3)" d="M228 115L288 174L261 912"/>
<path style="--d:4s;" pathLength="3333" clip-path="url(#z24852c4)" d="M537 71L616 113L667 173"/>
<path style="--d:5s;" pathLength="3333" clip-path="url(#z24852c5)" d="M452 258L780 224"/>
<path style="--d:6s;" pathLength="3333" clip-path="url(#z24852c6)" d="M462 332L524 437"/>
<path style="--d:7s;" pathLength="3333" clip-path="url(#z24852c7)" d="M674 266L706 308L625 459"/>
<path style="--d:8s;" pathLength="3333" clip-path="url(#z24852c8)" d="M342 518L834 451L944 461"/>
<path style="--d:9s;" pathLength="3333" clip-path="url(#z24852c9)" d="M434 591L466 644L468 925"/>
<path style="--d:10s;" pathLength="3333" clip-path="url(#z24852c10)" d="M485 603L524 613L696 580L742 609L744 856L706 935"/>
<path style="--d:11s;" pathLength="3333" clip-path="url(#z24852c11)" d="M496 752L650 726"/>
<path style="--d:12s;" pathLength="3333" clip-path="url(#z24852c12)" d="M497 883L680 856"/>
</svg>