<!--
AnimCJK 2016-2019 Copyright Francois Mizessyn - https://github.com/parsimonhi/animCJK
Derived from:
    MakeMeAHanzi project - https://github.com/skishore/makemeahanzi
    Arphic PL KaitiM GB font
    Arphic PL UKai font
You can redistribute and/or modify this file under the terms of the Arphic Public License
as published by Arphic Technology Co., Ltd.
You should have received a copy of this license along with this file.
If not, see http://ftp.gnu.org/non-gnu/chinese-fonts-truetype/LICENSE.
-->
<svg id="z24936" class="acjk" version="1.1" viewBox="0 0 1024 1024" xmlns="http://www.w3.org/2000/svg" xmlns:xlink="http://www.w3.org/1999/xlink">
<style>
<![CDATA[
@keyframes zk {
	to {
		stroke-dashoffset:0;
	}
}
svg.acjk path[clip-path] {
	--t:0.8s;
	animation:zk var(--t) linear forwards var(--d);
	stroke-dasharray:3337;
	stroke-dashoffset:3339;
	stroke-width:128;
	stroke-linecap:round;
	fill:none;
	stroke:#000;
}
svg.acjk path[id] {fill:#ccc;}
]]>
</style>
<path id="z24936d1" d="M98 378Q88 445 66 508Q54 541 79 570Q89 586 107 569Q123 550 130 516Q140 467 134 426Q133 395 120 373Q113 366 108 366Q101 370 98 378Z"/>
<path id="z24936d2" d="M245 356Q251 357 302 402Q314 412 326 411Q333 410 337 400Q341 388 332 365Q328 349 302 339Q277 332 249 325Q246 324 245 325C235 325 236 351 245 356Z"/>
<path id="z24936d3" d="M245 325Q245 226 265 154Q280 129 250 109Q235 97 210 83Q188 67 167 81Q163 85 169 101Q200 152 202 228Q202 649 184 741Q178 769 170 799Q160 836 184 898Q191 916 199 919Q205 926 212 917Q239 901 239 838Q238 789 245 356C245 335 245 335 245 325Z"/>
<path id="z24936d4" d="M483 459Q484 463 486 467Q492 480 503 479Q515 476 521 462Q534 435 547 316Q556 270 585 240Q601 224 585 212Q567 199 521 180Q505 173 465 190Q432 200 405 212Q383 219 370 225C359 229 383 256 393 250Q453 219 493 218C494 218 494 218 494 218Q507 225 505 263Q495 393 484 430C482 439 479 450 483 459Z"/>
<path id="z24936d5" d="M389 364Q432 354 467 348Q485 344 477 334Q468 324 448 322Q417 319 388 338C381 342 380 366 389 364Z"/>
<path id="z24936d6" d="M389 478Q441 465 483 459C493 457 493 433 484 430Q448 418 389 451C381 456 380 480 389 478Z"/>
<path id="z24936d7" d="M483 601Q471 604 396 645Q384 651 383 640Q387 553 389 478C389 460 389 460 389 451Q389 405 389 364C388 347 388 347 388 338Q389 295 393 250C393 239 379 232 370 225Q358 216 347 212Q332 206 324 211Q315 217 323 230Q377 329 341 628Q334 658 309 690Q299 703 305 722Q314 744 325 754Q337 761 346 747Q361 722 492 619Q492 618 493 618C498 613 489 599 483 601Z"/>
<path id="z24936d8" d="M493 618Q508 648 523 653Q530 654 537 647Q544 637 545 613Q546 595 525 574Q471 532 460 534Q456 535 454 545Q454 548 483 601C490 612 490 612 493 618Z"/>
<path id="z24936d9" d="M713 252Q713 251 831 220Q856 213 861 209Q870 200 864 192Q857 180 826 175Q795 171 765 185Q735 197 704 206Q670 216 627 221Q590 230 618 245Q633 254 659 257C677 261 696 259 713 252Z"/>
<path id="z24936d10" d="M715 488Q781 476 869 481Q888 482 895 472Q899 463 883 454Q835 418 781 439Q753 442 721 451C688 458 688 458 671 462Q646 466 623 473Q598 482 605 458Q615 398 626 375Q633 366 629 358Q623 351 594 338Q579 331 571 336Q564 343 571 355Q584 383 570 449Q569 465 548 485Q541 494 542 504Q545 514 559 524Q569 531 580 521Q604 506 665 495C698 490 698 490 715 488Z"/>
<path id="z24936d11" d="M665 495Q628 693 502 805Q478 824 447 849Q437 855 433 858Q429 865 444 865Q498 865 602 762Q617 743 631 723Q691 624 715 488C719 463 719 463 721 451Q722 438 725 424Q740 330 754 297Q760 287 752 279Q739 266 713 252C697 243 650 241 659 257Q660 260 664 264Q688 292 686 321Q682 399 671 462C667 484 667 484 665 495Z"/>
<path id="z24936d12" d="M991 824Q978 796 964 713Q963 698 957 694Q951 691 947 707Q925 795 907 824Q900 833 879 839Q831 848 786 831Q770 822 764 811Q742 763 767 610Q773 583 727 566Q715 562 708 567Q702 570 707 586Q719 622 717 655Q708 841 756 874Q768 880 787 888Q901 924 985 861Q1003 848 991 824Z"/>
<defs>
	<clipPath id="z24936c1"><use xlink:href="#z24936d1"/></clipPath>
	<clipPath id="z24936c2"><use xlink:href="#z24936d2"/></clipPath>
	<clipPath id="z24936c3"><use xlink:href="#z24936d3"/></clipPath>
	<clipPath id="z24936c4"><use xlink:href="#z24936d4"/></clipPath>
	<clipPath id="z24936c5"><use xlink:href="#z24936d5"/></clipPath>
	<clipPath id="z24936c6"><use xlink:href="#z24936d6"/></clipPath>
	<clipPath id="z24936c7"><use xlink:href="#z24936d7"/></clipPath>
	<clipPath id="z24936c8"><use xlink:href="#z24936d8"/></clipPath>
	<clipPath id="z24936c9"><use xlink:href="#z24936d9"/></clipPath>
	<clipPath id="z24936c10"><use xlink:href="#z24936d10"/></clipPath>
	<clipPath id="z24936c11"><use xlink:href="#z24936d11"/></clipPath>
	<clipPath id="z24936c12"><use xlink:href="#z24936d12"/></clipPath>
</defs>
<path style="--d:1s;" pathLength="3333" clip-path="url(#z24936c1)" d="M110 374L87 573"/>
<path style="--d:2s;" pathLength="3333" clip-path="url(#z24936c2)" d="M251 332L330 402"/>
<path style="--d:3s;" pathLength="3333" clip-path="url(#z24936c3)" d="M171 83L231 148L212 916"/>
<path style="--d:4s;" pathLength="3333" clip-path="url(#z24936c4)" d="M378 225L502 199L548 233L501 474"/>
<path style="--d:5s;" pathLength="3333" clip-path="url(#z24936c5)" d="M391 356L474 338"/>
<path style="--d:6s;" pathLength="3333" clip-path="url(#z24936c6)" d="M394 469L480 448"/>
<path style="--d:7s;" pathLength="3333" clip-path="url(#z24936c7)" d="M325 214L367 271L370 515L347 665L361 710L488 612"/>
<path style="--d:8s;" pathLength="3333" clip-path="url(#z24936c8)" d="M462 543L530 648"/>
<path style="--d:9s;" pathLength="3333" clip-path="url(#z24936c9)" d="M613 232L862 202"/>
<path style="--d:10s;" pathLength="3333" clip-path="url(#z24936c10)" d="M576 340L603 370L584 499L800 456L891 467"/>
<path style="--d:11s;" pathLength="3333" clip-path="url(#z24936c11)" d="M671 263L720 299L648 638L550 785L443 859"/>
<path style="--d:12s;" pathLength="3333" clip-path="url(#z24936c12)" d="M711 569L740 604L736 771L767 850L880 870L947 840L956 699"/>
</svg>