<!--
AnimCJK 2016-2017 Copyright Francois Mizessyn, http://gooo.free.fr/animCJK/
Derived from:
    MakeMeAHanzi project - https://github.com/skishore/makemeahanzi
    Arphic PL KaitiM GB - https://apps.ubuntu.com/cat/applications/precise/fonts-arphic-gkai00mp/
    Arphic PL UKai - https://apps.ubuntu.com/cat/applications/fonts-arphic-ukai/
You can redistribute and/or modify this file under the terms of the Arphic Public License
as published by Arphic Technology Co., Ltd.
You should have received a copy of this license (the directory "APL") along with this file;
if not, see http://ftp.gnu.org/non-gnu/chinese-fonts-truetype/LICENSE.
-->
<svg id="z25062" class="acjk" version="1.1" viewBox="0 0 1024 1024" xmlns="http://www.w3.org/2000/svg" xmlns:xlink="http://www.w3.org/1999/xlink">
<style>
<![CDATA[
	@keyframes z25062k {
		from {
			stroke:#c00;
			stroke-dashoffset:3000;
		}
		75% {
			stroke:#c00;
			stroke-dashoffset:0;
		}
		to {
			stroke:#000;
		}
	}
	#z25062 path[clip-path] {
		animation:z25062k 1s linear both;
		stroke-dasharray:3000;
		stroke-width:128;
		stroke-linecap:round;
		fill:none;
	}
	#z25062 path[clip-path="url(#z25062c1)"] {animation-delay:1s;}
	#z25062 path[clip-path="url(#z25062c2)"] {animation-delay:2s;}
	#z25062 path[clip-path="url(#z25062c3)"] {animation-delay:3s;}
	#z25062 path[clip-path="url(#z25062c4)"] {animation-delay:4s;}
	#z25062 path[clip-path="url(#z25062c5)"] {animation-delay:5s;}
	#z25062 path[clip-path="url(#z25062c6)"] {animation-delay:6s;}
	#z25062 path[clip-path="url(#z25062c7)"] {animation-delay:7s;}
	#z25062 path[clip-path="url(#z25062c8)"] {animation-delay:8s;}
	#z25062 path[clip-path="url(#z25062c9)"] {animation-delay:9s;}
	#z25062 path[clip-path="url(#z25062c10)"] {animation-delay:10s;}
	#z25062 path[clip-path="url(#z25062c11)"] {animation-delay:11s;}
	#z25062 path[clip-path="url(#z25062c12)"] {animation-delay:12s;}
	#z25062 path[clip-path="url(#z25062c13)"] {animation-delay:13s;}
	#z25062 path[clip-path="url(#z25062c14)"] {animation-delay:14s;}
	#z25062 path[clip-path="url(#z25062c15)"] {animation-delay:15s;}
	#z25062 path[clip-path="url(#z25062c16)"] {animation-delay:16s;}
	#z25062 path[clip-path="url(#z25062c17)"] {animation-delay:17s;}
	#z25062 path {fill:#ccc;}
]]>
</style>
<g transform="scale(1,-1) translate(0,-900)">
	<path id="z25062d1" d="M137 569Q118 499 87 435Q74 399 92 371Q101 355 120 369Q139 387 149 418Q168 472 167 516Q168 549 159 571Q153 578 148 579Q141 578 137 569Z"/>
	<path id="z25062d2" d="M285 584Q310 565 337 542Q347 533 359 534Q366 535 370 544Q373 556 365 577Q359 593 334 604Q310 613 286 616L285 584Z"/>
	<path id="z25062d3" d="M286 616Q289 688 305 738Q314 753 311 766Q304 776 250 809Q228 825 207 811Q203 807 208 791Q241 743 241 647Q241 233 212 124Q209 115 207 105Q195 62 221 6Q227 -12 235 -15Q241 -22 248 -13Q255 -9 266 11Q276 36 275 66Q274 115 285 578Q285 582 285 584L286 616Z"/>
	<path id="z25062d4" d="M630 737Q678 750 730 762Q760 769 764 774Q771 781 767 789Q760 799 733 805Q705 809 638 784Q572 766 523 758Q489 751 514 737Q547 721 594 728L630 737Z"/>
	<path id="z25062d5" d="M474 630Q461 657 444 667Q441 671 436 667Q432 663 430 653Q434 623 406 561Q396 545 398 529Q401 511 409 498Q416 488 421 494Q433 497 448 542Q463 585 471 601Q471 602 472 603L474 630Z"/>
	<path id="z25062d6" d="M651 637Q690 647 742 656Q793 666 806 665Q819 658 819 652Q820 649 797 596Q791 584 797 581Q803 577 817 587Q863 615 900 623Q930 630 930 638Q929 647 865 692Q841 710 737 683Q704 680 652 667L610 658Q589 655 474 630L472 603Q491 593 514 600Q557 616 605 628Q606 629 611 629L651 637Z"/>
	<path id="z25062d7" d="M611 629Q611 574 600 489Q593 461 617 426Q626 417 633 426Q649 453 650 534Q650 585 651 637L652 667Q653 683 657 700Q661 719 645 728Q638 732 630 737L594 728Q601 709 610 658L611 629Z"/>
	<path id="z25062d8" d="M497 542Q540 509 560 511Q569 512 570 526Q569 535 559 547Q537 566 496 561Q489 561 490 553Q491 547 497 542Z"/>
	<path id="z25062d9" d="M484 460Q529 424 542 424Q552 424 555 438Q555 448 545 462Q538 471 521 474Q496 481 485 480Q478 481 478 472Q478 466 484 460Z"/>
	<path id="z25062d10" d="M693 573Q744 534 763 535Q773 536 774 550Q773 560 763 573Q753 583 734 587Q704 594 692 593Q685 593 686 584Q687 578 693 573Z"/>
	<path id="z25062d11" d="M690 485Q742 449 759 451Q769 452 770 466Q769 476 758 489Q748 499 729 501Q701 505 688 505Q681 505 683 496Q683 490 690 485Z"/>
	<path id="z25062d12" d="M603 342Q759 369 770 376Q777 383 774 390Q768 400 744 407Q723 413 638 390Q571 375 489 367Q458 363 479 348Q518 327 562 336Q566 337 571 336L603 342Z"/>
	<path id="z25062d13" d="M574 250Q611 293 618 298Q631 305 625 315Q619 328 603 342L571 336Q574 318 544 254Q541 250 539 244L574 250Z"/>
	<path id="z25062d14" d="M423 223Q402 241 378 243Q374 246 369 239Q366 233 371 222Q398 183 397 72Q396 51 405 35Q417 19 432 8Q445 1 447 11Q453 15 453 34Q454 47 448 89Q439 161 439 188L423 223Z"/>
	<path id="z25062d15" d="M674 238Q728 245 793 248Q811 245 817 235Q823 228 818 216Q814 83 805 64Q799 51 785 54Q761 55 735 56Q708 56 728 41Q786 -2 811 -33Q820 -46 831 -37Q855 -13 866 73Q870 190 890 214Q903 232 898 239Q891 251 846 281Q830 294 816 288Q791 279 743 272Q640 262 574 250L539 244Q517 243 501 237Q455 228 423 223L439 188Q446 188 456 191Q481 201 522 211L560 219Q581 226 637 233L674 238Z"/>
	<path id="z25062d16" d="M522 211Q535 162 536 84Q535 60 545 42Q555 24 561 35Q570 51 570 86Q569 180 570 200Q571 210 568 214Q565 217 560 219L522 211Z"/>
	<path id="z25062d17" d="M643 48Q644 30 649 23Q652 17 658 19Q662 20 668 31Q695 193 699 205Q702 217 693 224Q683 233 674 238L637 233Q638 233 639 231Q648 212 643 102Q642 62 643 48Z"/>
	<defs>
		<clipPath id="z25062c1"><use xlink:href="#z25062d1"/></clipPath>
		<clipPath id="z25062c2"><use xlink:href="#z25062d2"/></clipPath>
		<clipPath id="z25062c3"><use xlink:href="#z25062d3"/></clipPath>
		<clipPath id="z25062c4"><use xlink:href="#z25062d4"/></clipPath>
		<clipPath id="z25062c5"><use xlink:href="#z25062d5"/></clipPath>
		<clipPath id="z25062c6"><use xlink:href="#z25062d6"/></clipPath>
		<clipPath id="z25062c7"><use xlink:href="#z25062d7"/></clipPath>
		<clipPath id="z25062c8"><use xlink:href="#z25062d8"/></clipPath>
		<clipPath id="z25062c9"><use xlink:href="#z25062d9"/></clipPath>
		<clipPath id="z25062c10"><use xlink:href="#z25062d10"/></clipPath>
		<clipPath id="z25062c11"><use xlink:href="#z25062d11"/></clipPath>
		<clipPath id="z25062c12"><use xlink:href="#z25062d12"/></clipPath>
		<clipPath id="z25062c13"><use xlink:href="#z25062d13"/></clipPath>
		<clipPath id="z25062c14"><use xlink:href="#z25062d14"/></clipPath>
		<clipPath id="z25062c15"><use xlink:href="#z25062d15"/></clipPath>
		<clipPath id="z25062c16"><use xlink:href="#z25062d16"/></clipPath>
		<clipPath id="z25062c17"><use xlink:href="#z25062d17"/></clipPath>
	</defs>
	<path pathLength="2999" clip-path="url(#z25062c1)" d="M149 571L105 367"/>
	<path pathLength="2999" clip-path="url(#z25062c2)" d="M291 607L361 542"/>
	<path pathLength="2999" clip-path="url(#z25062c3)" d="M211 810L272 749L236 -11"/>
	<path pathLength="2999" clip-path="url(#z25062c4)" d="M515 747L763 789"/>
	<path pathLength="2999" clip-path="url(#z25062c5)" d="M439 660L450 616L418 499"/>
	<path pathLength="2999" clip-path="url(#z25062c6)" d="M475 610L805 682L850 665L874 629L801 587"/>
	<path pathLength="2999" clip-path="url(#z25062c7)" d="M601 723L632 695L626 427"/>
	<path pathLength="2999" clip-path="url(#z25062c8)" d="M497 555L565 524"/>
	<path pathLength="2999" clip-path="url(#z25062c9)" d="M483 474L550 433"/>
	<path pathLength="2999" clip-path="url(#z25062c10)" d="M692 585L769 544"/>
	<path pathLength="2999" clip-path="url(#z25062c11)" d="M694 495L766 467"/>
	<path pathLength="2999" clip-path="url(#z25062c12)" d="M482 356L770 389"/>
	<path pathLength="2999" clip-path="url(#z25062c13)" d="M578 333L593 301L548 249"/>
	<path pathLength="2999" clip-path="url(#z25062c14)" d="M376 232L412 186L435 12"/>
	<path pathLength="2999" clip-path="url(#z25062c15)" d="M431 220L823 265L859 231L830 44L805 8L729 47"/>
	<path pathLength="2999" clip-path="url(#z25062c16)" d="M528 208L550 185L554 39"/>
	<path pathLength="2999" clip-path="url(#z25062c17)" d="M647 228L672 198L654 26"/>
</g>
</svg>