<!--
AnimCJK 2016-2017 Copyright Francois Mizessyn, http://gooo.free.fr/animCJK/
Derived from:
    MakeMeAHanzi project - https://github.com/skishore/makemeahanzi
    Arphic PL KaitiM GB - https://apps.ubuntu.com/cat/applications/precise/fonts-arphic-gkai00mp/
    Arphic PL UKai - https://apps.ubuntu.com/cat/applications/fonts-arphic-ukai/
You can redistribute and/or modify this file under the terms of the Arphic Public License
as published by Arphic Technology Co., Ltd.
You should have received a copy of this license (the directory "APL") along with this file;
if not, see http://ftp.gnu.org/non-gnu/chinese-fonts-truetype/LICENSE.
-->
<svg id="z25096" class="acjk" version="1.1" viewBox="0 0 1024 1024" xmlns="http://www.w3.org/2000/svg" xmlns:xlink="http://www.w3.org/1999/xlink">
<style>
<![CDATA[
	@keyframes z25096k {
		from {
			stroke:#c00;
			stroke-dashoffset:3000;
		}
		75% {
			stroke:#c00;
			stroke-dashoffset:0;
		}
		to {
			stroke:#000;
		}
	}
	#z25096 path[clip-path] {
		animation:z25096k 1s linear both;
		stroke-dasharray:3000;
		stroke-width:128;
		stroke-linecap:round;
		fill:none;
	}
	#z25096 path[clip-path="url(#z25096c1)"] {animation-delay:1s;}
	#z25096 path[clip-path="url(#z25096c2)"] {animation-delay:2s;}
	#z25096 path[clip-path="url(#z25096c3)"] {animation-delay:3s;}
	#z25096 path[clip-path="url(#z25096c4)"] {animation-delay:4s;}
	#z25096 path {fill:#ccc;}
]]>
</style>
<g transform="scale(1,-1) translate(0,-900)">
	<path id="z25096d1" d="M475 506Q595 557 599 560Q608 570 602 579Q592 592 558 595Q515 596 455 559L409 537Q289 489 193 464Q153 451 185 436Q236 417 296 440Q359 464 427 488L475 506Z"/>
	<path id="z25096d2" d="M554 225Q656 68 774 -1Q844 -47 874 -44Q896 -37 885 -8Q879 47 881 207Q880 234 870 235Q863 234 856 210Q840 161 826 121Q813 79 797 78Q784 75 752 93Q659 157 590 263L560 315Q520 390 475 506L455 559Q421 661 416 743Q420 789 356 801Q314 811 295 798Q274 786 289 767Q347 733 355 696Q383 611 409 537L427 488Q472 371 525 275L554 225Z"/>
	<path id="z25096d3" d="M525 275Q519 271 514 264Q429 174 236 80Q226 73 232 68Q239 64 253 66Q338 82 414 122Q480 152 554 225L590 263Q627 308 669 369Q691 399 716 426Q726 435 723 447Q719 460 689 487Q667 506 656 505Q640 504 639 487Q630 403 560 315L525 275Z"/>
	<path id="z25096d4" d="M615 733Q654 708 695 677Q711 664 729 667Q741 668 745 684Q748 700 734 732Q718 768 604 785Q586 786 580 783Q574 779 578 765Q584 753 615 733Z"/>
	<defs>
		<clipPath id="z25096c1"><use xlink:href="#z25096d1"/></clipPath>
		<clipPath id="z25096c2"><use xlink:href="#z25096d2"/></clipPath>
		<clipPath id="z25096c3"><use xlink:href="#z25096d3"/></clipPath>
		<clipPath id="z25096c4"><use xlink:href="#z25096d4"/></clipPath>
	</defs>
	<path pathLength="2999" clip-path="url(#z25096c1)" d="M174 451L271 459L600 574"/>
	<path pathLength="2999" clip-path="url(#z25096c2)" d="M289 786L378 742L495 389L572 243L678 113L789 35L858 10L868 228"/>
	<path pathLength="2999" clip-path="url(#z25096c3)" d="M653 502L674 434L540 251L431 160L237 70"/>
	<path pathLength="2999" clip-path="url(#z25096c4)" d="M584 776L683 730L737 677"/>
</g>
</svg>