<!--
AnimCJK 2016-2019 Copyright Francois Mizessyn - https://github.com/parsimonhi/animCJK
Derived from:
    MakeMeAHanzi project - https://github.com/skishore/makemeahanzi
    Arphic PL KaitiM GB font
    Arphic PL UKai font
You can redistribute and/or modify this file under the terms of the Arphic Public License
as published by Arphic Technology Co., Ltd.
You should have received a copy of this license along with this file.
If not, see http://ftp.gnu.org/non-gnu/chinese-fonts-truetype/LICENSE.
-->
<svg id="z25160" class="acjk" version="1.1" viewBox="0 0 1024 1024" xmlns="http://www.w3.org/2000/svg" xmlns:xlink="http://www.w3.org/1999/xlink">
<style>
<![CDATA[
@keyframes zk {
	to {
		stroke-dashoffset:0;
	}
}
svg.acjk path[clip-path] {
	--t:0.8s;
	animation:zk var(--t) linear forwards var(--d);
	stroke-dasharray:3337;
	stroke-dashoffset:3339;
	stroke-width:128;
	stroke-linecap:round;
	fill:none;
	stroke:#000;
}
svg.acjk path[id] {fill:#ccc;}
]]>
</style>
<path id="z25160d1" d="M454 66Q494 106 531 121Q547 122 555 108Q559 95 555 77Q540 40 483 29Q444 23 437 28Q430 29 434 42Q437 54 454 66Z"/>
<path id="z25160d2" d="M682 266Q709 214 735 203Q753 185 740 167Q665 107 617 131Q503 167 349 183C338 185 353 216 364 214Q373 213 383 210Q498 191 606 170Q634 164 645 176Q651 182 649 195Q642 226 632 253C626 269 674 281 682 266Z"/>
<path id="z25160d3" d="M335 338Q344 339 355 337Q460 313 687 294Q697 293 699 284Q699 277 682 266C667 257 649 253 632 253Q628 252 623 254Q467 288 341 304C330 306 323 338 335 338Z"/>
<path id="z25160d4" d="M349 183Q336 170 314 160Q295 147 281 151Q268 158 274 173Q293 201 285 281Q282 293 281 306Q260 489 201 628Q147 743 53 869Q47 875 45 881Q41 893 53 891Q90 885 180 763Q199 733 219 700Q303 546 335 338C339 315 339 315 341 304Q344 283 348 264Q348 258 364 214C368 203 358 190 349 183Z"/>
<path id="z25160d5" d="M410 389Q400 385 375 380Q365 377 362 382Q358 386 364 400Q383 437 397 500Q398 518 410 530Q426 549 430 535Q431 529 432 521C431 500 431 500 430 489Q423 437 421 417C419 407 419 393 410 389Z"/>
<path id="z25160d6" d="M625 467Q649 419 672 410Q687 395 675 380Q662 368 618 345Q603 338 534 363Q467 378 410 389C400 391 411 419 421 417Q586 384 594 390C595 391 595 391 595 391Q599 397 582 459C579 473 618 480 625 467Z"/>
<path id="z25160d7" d="M432 521Q441 521 452 520Q509 507 633 496Q643 495 644 487Q644 480 625 467C612 459 597 459 582 459Q578 458 572 460Q493 479 430 489C420 491 421 521 432 521Z"/>
<path id="z25160d8" d="M704 672Q728 618 758 600Q774 584 762 565Q690 507 642 531Q528 567 389 583C379 585 380 614 390 614Q405 615 423 610Q462 603 502 596C525 591 525 591 537 589Q655 562 670 576Q679 586 656 661C651 677 698 687 704 672Z"/>
<path id="z25160d9" d="M502 596Q502 600 502 692C502 706 539 698 542 685Q546 660 552 639Q553 635 553 631Q560 618 554 608Q545 598 537 589C529 581 502 584 502 596Z"/>
<path id="z25160d10" d="M379 741Q389 744 403 741Q500 719 711 702Q721 701 723 693Q723 686 704 672C691 662 672 661 656 661Q652 660 647 662Q592 674 542 685C515 690 515 690 502 692Q435 701 379 709C369 711 367 736 377 740C378 741 378 741 379 741Z"/>
<path id="z25160d11" d="M892 830Q879 809 854 742Q853 726 845 722Q838 719 836 737Q814 813 800 837Q778 862 715 880Q574 920 449 875Q401 853 390 825Q378 801 377 740C378 719 378 719 379 709Q380 664 390 614C392 604 394 592 389 583Q383 570 351 558Q338 554 331 558Q324 562 329 579Q342 616 339 651Q332 802 344 844Q351 877 382 903Q484 973 697 947Q734 941 772 931Q830 913 889 874Q908 856 892 830Z"/>
<defs>
	<clipPath id="z25160c1"><use xlink:href="#z25160d1"/></clipPath>
	<clipPath id="z25160c2"><use xlink:href="#z25160d2"/></clipPath>
	<clipPath id="z25160c3"><use xlink:href="#z25160d3"/></clipPath>
	<clipPath id="z25160c4"><use xlink:href="#z25160d4"/></clipPath>
	<clipPath id="z25160c5"><use xlink:href="#z25160d5"/></clipPath>
	<clipPath id="z25160c6"><use xlink:href="#z25160d6"/></clipPath>
	<clipPath id="z25160c7"><use xlink:href="#z25160d7"/></clipPath>
	<clipPath id="z25160c8"><use xlink:href="#z25160d8"/></clipPath>
	<clipPath id="z25160c9"><use xlink:href="#z25160d9"/></clipPath>
	<clipPath id="z25160c10"><use xlink:href="#z25160d10"/></clipPath>
	<clipPath id="z25160c11"><use xlink:href="#z25160d11"/></clipPath>
</defs>
<path style="--d:1s;" pathLength="3333" clip-path="url(#z25160c1)" d="M438 33L549 110"/>
<path style="--d:2s;" pathLength="3333" clip-path="url(#z25160c2)" d="M357 185L643 147L697 186L650 257"/>
<path style="--d:3s;" pathLength="3333" clip-path="url(#z25160c3)" d="M341 331L694 278"/>
<path style="--d:4s;" pathLength="3333" clip-path="url(#z25160c4)" d="M278 157L325 220L263 531L185 711L49 883"/>
<path style="--d:5s;" pathLength="3333" clip-path="url(#z25160c5)" d="M370 390L398 420L421 535"/>
<path style="--d:6s;" pathLength="3333" clip-path="url(#z25160c6)" d="M419 391L605 367L637 402L603 462"/>
<path style="--d:7s;" pathLength="3333" clip-path="url(#z25160c7)" d="M436 513L577 480L638 486"/>
<path style="--d:8s;" pathLength="3333" clip-path="url(#z25160c8)" d="M398 606L683 551L719 586L674 665"/>
<path style="--d:9s;" pathLength="3333" clip-path="url(#z25160c9)" d="M509 602L529 636L517 689"/>
<path style="--d:10s;" pathLength="3333" clip-path="url(#z25160c10)" d="M380 734L647 684L716 693"/>
<path style="--d:11s;" pathLength="3333" clip-path="url(#z25160c11)" d="M337 562L362 592L367 836L444 903L611 926L781 892L856 834L843 729"/>
</svg>