<!--
AnimCJK 2016-2019 Copyright Francois Mizessyn - https://github.com/parsimonhi/animCJK
Derived from:
    MakeMeAHanzi project - https://github.com/skishore/makemeahanzi
    Arphic PL KaitiM GB font
    Arphic PL UKai font
You can redistribute and/or modify this file under the terms of the Arphic Public License
as published by Arphic Technology Co., Ltd.
You should have received a copy of this license along with this file.
If not, see http://ftp.gnu.org/non-gnu/chinese-fonts-truetype/LICENSE.
-->
<svg id="z25176" class="acjk" version="1.1" viewBox="0 0 1024 1024" xmlns="http://www.w3.org/2000/svg" xmlns:xlink="http://www.w3.org/1999/xlink">
<style>
<![CDATA[
@keyframes zk {
	to {
		stroke-dashoffset:0;
	}
}
svg.acjk path[clip-path] {
	--t:0.8s;
	animation:zk var(--t) linear forwards var(--d);
	stroke-dasharray:3337;
	stroke-dashoffset:3339;
	stroke-width:128;
	stroke-linecap:round;
	fill:none;
	stroke:#000;
}
svg.acjk path[id] {fill:#ccc;}
]]>
</style>
<path id="z25176d1" d="M356 379C406 363 432 351 434 349C438 343 439 337 436 332C431 324 418 318 398 316C384 314 370 315 358 321C325 335 325 335 309 342C227 376 167 386 138 393C113 398 110 407 130 417C159 431 193 430 230 418C254 409 280 402 308 394C340 384 340 384 356 379Z"/>
<path id="z25176d2" d="M305 592C303 646 304 707 304 775C303 791 298 802 290 809C285 812 262 817 221 811C198 807 189 804 191 812C192 816 199 822 214 832C254 859 279 883 290 900C302 920 313 929 323 930C331 930 341 919 350 896C361 866 364 826 363 778C357 609 357 609 354 524C352 475 354 427 356 379C357 340 357 340 358 321C360 251 360 191 378 147C386 125 376 111 340 95C316 84 299 78 287 83C275 87 273 97 285 112C299 131 307 151 308 173C308 185 310 241 309 342C308 377 308 377 308 394C307 438 307 491 306 553C305 579 305 579 305 592Z"/>
<path id="z25176d3" d="M306 553C150 646 71 693 70 694C60 699 54 703 53 710C52 716 56 723 67 732C79 742 93 750 110 755C120 757 129 754 137 746C182 695 239 644 305 592C305 592 345 560 365 544C375 536 383 528 389 520C393 511 391 507 384 508C377 508 368 515 354 524C322 543 322 543 306 553Z"/>
<path id="z25176d4" d="M561 360C585 347 646 315 677 295C706 275 734 262 761 254C772 250 780 247 782 241C783 233 778 224 769 219C752 209 727 203 695 196C682 193 672 189 664 194C658 196 657 203 658 211C659 237 596 295 470 384C466 386 461 387 459 391C455 397 456 404 462 404C470 403 493 394 528 377C550 366 550 366 561 360Z"/>
<path id="z25176d5" d="M582 555C622 543 704 520 832 493C838 491 847 490 851 480C853 471 842 466 827 459C803 447 769 450 717 469C667 486 623 502 585 512C554 520 554 520 538 524C532 525 490 533 414 550C394 554 392 561 409 572C433 587 455 592 475 586C493 579 514 574 537 568C567 559 567 559 582 555Z"/>
<path id="z25176d6" d="M967 782C958 761 946 719 936 655C934 644 933 637 929 634C925 631 921 636 919 648C901 716 886 760 874 781C865 794 847 803 820 810C758 824 700 819 642 796C618 786 606 768 599 754C579 713 578 606 582 555C584 526 584 526 585 512C587 479 592 444 599 408C601 395 599 385 591 379C583 372 573 366 561 360C550 355 522 366 528 377C538 387 540 436 538 524C537 553 537 553 537 568C533 703 534 782 581 828C625 871 733 895 847 874C855 872 865 870 875 868C903 860 932 844 960 823C972 813 974 799 967 782Z"/>
<defs>
	<clipPath id="z25176c1"><use xlink:href="#z25176d1"/></clipPath>
	<clipPath id="z25176c2"><use xlink:href="#z25176d2"/></clipPath>
	<clipPath id="z25176c3"><use xlink:href="#z25176d3"/></clipPath>
	<clipPath id="z25176c4"><use xlink:href="#z25176d4"/></clipPath>
	<clipPath id="z25176c5"><use xlink:href="#z25176d5"/></clipPath>
	<clipPath id="z25176c6"><use xlink:href="#z25176d6"/></clipPath>
</defs>
<path style="--d:1s;" pathLength="3333" clip-path="url(#z25176c1)" d="M125 405L433 340"/>
<path style="--d:2s;" pathLength="3333" clip-path="url(#z25176c2)" d="M286 93L342 137L331 811L307 878L199 812"/>
<path style="--d:3s;" pathLength="3333" clip-path="url(#z25176c3)" d="M58 708L116 713L383 514"/>
<path style="--d:4s;" pathLength="3333" clip-path="url(#z25176c4)" d="M671 206L722 236L462 397"/>
<path style="--d:5s;" pathLength="3333" clip-path="url(#z25176c5)" d="M405 557L459 565L845 476"/>
<path style="--d:6s;" pathLength="3333" clip-path="url(#z25176c6)" d="M535 377L568 403L566 729L615 815L737 850L875 829L925 790L929 644"/>
</svg>