<!--
AnimCJK 2016-2017 Copyright Francois Mizessyn, http://gooo.free.fr/animCJK/
Derived from:
    MakeMeAHanzi project - https://github.com/skishore/makemeahanzi
    Arphic PL KaitiM GB - https://apps.ubuntu.com/cat/applications/precise/fonts-arphic-gkai00mp/
    Arphic PL UKai - https://apps.ubuntu.com/cat/applications/fonts-arphic-ukai/
You can redistribute and/or modify this file under the terms of the Arphic Public License
as published by Arphic Technology Co., Ltd.
You should have received a copy of this license (the directory "APL") along with this file;
if not, see http://ftp.gnu.org/non-gnu/chinese-fonts-truetype/LICENSE.
-->
<svg id="z25187" class="acjk" version="1.1" viewBox="0 0 1024 1024" xmlns="http://www.w3.org/2000/svg" xmlns:xlink="http://www.w3.org/1999/xlink">
<style>
<![CDATA[
@keyframes z25187k {
	from {
		stroke:#c00;
		stroke-dashoffset:3000;
	}
	75% {
		stroke:#c00;
		stroke-dashoffset:0;
	}
	to {
		stroke:#000;
	}
}
#z25187 path[clip-path] {
	animation:z25187k 1s linear both;
	stroke-dasharray:3000;
	stroke-width:128;
	stroke-linecap:round;
	fill:none;
}
#z25187 path[clip-path="url(#z25187c1)"] {animation-delay:1s;}
#z25187 path[clip-path="url(#z25187c2)"] {animation-delay:2s;}
#z25187 path[clip-path="url(#z25187c3)"] {animation-delay:3s;}
#z25187 path[clip-path="url(#z25187c4)"] {animation-delay:4s;}
#z25187 path[clip-path="url(#z25187c5)"] {animation-delay:5s;}
#z25187 path[clip-path="url(#z25187c6)"] {animation-delay:6s;}
#z25187 path {fill:#ccc;}
]]>
</style>
<path id="z25187d1" d="M367 381Q394 371 423 364Q463 351 469 345Q478 336 472 328Q465 316 434 311Q403 307 373 322Q370 323 368 324L317 344Q193 378 159 385Q122 394 150 409Q196 430 250 413Q281 404 316 395L367 381 Z"/>
<path id="z25187d2" d="M314 596Q313 681 313 787Q312 811 299 820Q293 826 226 813Q192 801 195 812Q196 819 217 834Q280 886 295 914Q314 948 329 949Q345 950 359 914Q378 868 376 791Q369 676 366 562L366 529Q365 454 367 381L368 324Q377 177 388 145Q406 114 348 91Q314 72 293 79Q275 86 291 109Q313 137 315 173Q316 191 317 344L316 395Q315 462 314 554L314 596 Z"/>
<path id="z25187d3" d="M314 554Q214 599 127 644Q88 662 64 667Q49 671 47 680Q46 690 59 706Q78 724 102 735Q118 741 130 728Q245 640 314 596L366 562Q388 547 411 535Q435 523 447 508Q456 495 444 495Q426 496 366 529L314 554 Z"/>
<path id="z25187d4" d="M535 437Q522 431 495 426Q482 422 477 428Q470 435 479 453Q513 535 531 668Q532 708 555 735Q574 760 580 742Q584 729 585 707L583 668Q567 584 554 474L535 437 Z"/>
<path id="z25187d5" d="M815 636Q845 510 888 470Q909 448 890 427Q871 411 807 382Q785 373 760 384Q670 420 535 437L554 474Q567 473 582 469Q664 456 743 441Q764 437 772 446Q787 459 784 487Q772 569 755 635L815 636 Z"/>
<path id="z25187d6" d="M585 707Q591 707 598 706Q673 690 834 678Q846 677 847 667Q847 658 815 636L755 635Q659 656 583 668L585 707 Z"/>
<defs>
	<clipPath id="z25187c1"><use xlink:href="#z25187d1"/></clipPath>
	<clipPath id="z25187c2"><use xlink:href="#z25187d2"/></clipPath>
	<clipPath id="z25187c3"><use xlink:href="#z25187d3"/></clipPath>
	<clipPath id="z25187c4"><use xlink:href="#z25187d4"/></clipPath>
	<clipPath id="z25187c5"><use xlink:href="#z25187d5"/></clipPath>
	<clipPath id="z25187c6"><use xlink:href="#z25187d6"/></clipPath>
</defs>
<path pathLength="2999" clip-path="url(#z25187c1)" d="M145 396L470 337"/>
<path pathLength="2999" clip-path="url(#z25187c2)" d="M291 85L351 136L342 820L313 896L202 812"/>
<path pathLength="2999" clip-path="url(#z25187c3)" d="M53 681L110 695L442 501"/>
<path pathLength="2999" clip-path="url(#z25187c4)" d="M482 432L524 484L567 743"/>
<path pathLength="2999" clip-path="url(#z25187c5)" d="M543 441L779 411L816 430L845 458L772 635"/>
<path pathLength="2999" clip-path="url(#z25187c6)" d="M591 699L762 659L842 666"/>
</svg>