<!--
AnimCJK 2016-2017 Copyright Francois Mizessyn, http://gooo.free.fr/animCJK/
Derived from:
    MakeMeAHanzi project - https://github.com/skishore/makemeahanzi
    Arphic PL KaitiM GB - https://apps.ubuntu.com/cat/applications/precise/fonts-arphic-gkai00mp/
    Arphic PL UKai - https://apps.ubuntu.com/cat/applications/fonts-arphic-ukai/
You can redistribute and/or modify this file under the terms of the Arphic Public License
as published by Arphic Technology Co., Ltd.
You should have received a copy of this license (the directory "APL") along with this file;
if not, see http://ftp.gnu.org/non-gnu/chinese-fonts-truetype/LICENSE.
-->
<svg id="z25206" class="acjk" version="1.1" viewBox="0 0 1024 1024" xmlns="http://www.w3.org/2000/svg" xmlns:xlink="http://www.w3.org/1999/xlink">
<style>
<![CDATA[
	@keyframes z25206k {
		from {
			stroke:#c00;
			stroke-dashoffset:3000;
		}
		75% {
			stroke:#c00;
			stroke-dashoffset:0;
		}
		to {
			stroke:#000;
		}
	}
	#z25206 path[clip-path] {
		animation:z25206k 1s linear both;
		stroke-dasharray:3000;
		stroke-width:128;
		stroke-linecap:round;
		fill:none;
	}
	#z25206 path[clip-path="url(#z25206c1)"] {animation-delay:1s;}
	#z25206 path[clip-path="url(#z25206c2)"] {animation-delay:2s;}
	#z25206 path[clip-path="url(#z25206c3)"] {animation-delay:3s;}
	#z25206 path[clip-path="url(#z25206c4)"] {animation-delay:4s;}
	#z25206 path[clip-path="url(#z25206c5)"] {animation-delay:5s;}
	#z25206 path[clip-path="url(#z25206c6)"] {animation-delay:6s;}
	#z25206 path[clip-path="url(#z25206c7)"] {animation-delay:7s;}
	#z25206 path {fill:#ccc;}
]]>
</style>
<g transform="scale(1,-1) translate(0,-900)">
	<path id="z25206d1" d="M358 530Q452 557 456 559Q465 568 460 576Q453 588 422 594Q391 598 361 586Q360 586 360 585L312 568Q195 543 172 538Q135 531 163 515Q208 491 266 509Q285 515 311 519L358 530Z"/>
	<path id="z25206d2" d="M308 340Q307 249 305 132Q304 108 291 99Q288 95 221 94Q187 103 191 93Q194 86 215 73Q275 31 292 7Q311 -21 325 -22Q338 -23 352 12Q368 58 363 130Q356 254 356 378L356 408Q356 469 358 530L360 585Q367 721 382 768Q398 799 344 821Q310 840 291 833Q273 827 289 804Q311 777 312 743Q313 724 312 568L311 519Q310 459 308 380L308 340Z"/>
	<path id="z25206d3" d="M308 380Q208 320 120 262Q86 240 63 233Q50 227 49 219Q48 209 63 196Q82 180 106 173Q122 169 133 182Q202 257 308 340L356 378Q407 423 409 424Q415 437 404 436Q392 436 356 408L308 380Z"/>
	<path id="z25206d4" d="M653 555Q806 591 816 597Q825 606 820 615Q811 628 780 635Q750 641 658 607L611 595Q566 586 518 580Q478 573 507 555Q547 534 608 544L653 555Z"/>
	<path id="z25206d5" d="M639 393Q718 409 847 413Q898 413 905 423Q909 435 893 447Q841 483 782 464Q725 451 642 432L595 423Q516 410 431 393Q412 390 426 375Q451 353 504 364Q544 377 590 384L639 393Z"/>
	<path id="z25206d6" d="M637 382Q638 388 639 393L642 432Q646 495 653 555L658 607Q661 716 692 769Q699 784 689 795Q667 814 628 828Q603 835 593 829Q584 822 591 809Q613 772 614 724Q614 660 611 595L608 544Q604 483 595 423L590 384Q569 231 481 158Q447 133 398 106Q385 99 385 95Q386 91 397 90Q412 86 448 98Q571 131 614 262Q624 296 631 337L637 382Z"/>
	<path id="z25206d7" d="M631 337Q794 49 843 45Q907 49 963 54Q988 55 988 61Q989 68 963 84Q827 156 765 223Q695 298 637 382L631 337Z"/>
	<defs>
		<clipPath id="z25206c1"><use xlink:href="#z25206d1"/></clipPath>
		<clipPath id="z25206c2"><use xlink:href="#z25206d2"/></clipPath>
		<clipPath id="z25206c3"><use xlink:href="#z25206d3"/></clipPath>
		<clipPath id="z25206c4"><use xlink:href="#z25206d4"/></clipPath>
		<clipPath id="z25206c5"><use xlink:href="#z25206d5"/></clipPath>
		<clipPath id="z25206c6"><use xlink:href="#z25206d6"/></clipPath>
		<clipPath id="z25206c7"><use xlink:href="#z25206d7"/></clipPath>
	</defs>
	<path pathLength="2999" clip-path="url(#z25206c1)" d="M158 529L457 572"/>
	<path pathLength="2999" clip-path="url(#z25206c2)" d="M289 827L347 770L334 119L310 31L198 92"/>
	<path pathLength="2999" clip-path="url(#z25206c3)" d="M55 219L110 211L404 430"/>
	<path pathLength="2999" clip-path="url(#z25206c4)" d="M505 567L818 607"/>
	<path pathLength="2999" clip-path="url(#z25206c5)" d="M425 386L810 441L901 426"/>
	<path pathLength="2999" clip-path="url(#z25206c6)" d="M597 821L651 774L600 306L529 169L395 96"/>
	<path pathLength="2999" clip-path="url(#z25206c7)" d="M639 370L712 244L836 105L982 64"/>
</g>
</svg>