<!--
AnimCJK 2016-2019 Copyright Francois Mizessyn - https://github.com/parsimonhi/animCJK
Derived from:
    MakeMeAHanzi project - https://github.com/skishore/makemeahanzi
    Arphic PL KaitiM GB font
    Arphic PL UKai font
You can redistribute and/or modify this file under the terms of the Arphic Public License
as published by Arphic Technology Co., Ltd.
You should have received a copy of this license along with this file.
If not, see http://ftp.gnu.org/non-gnu/chinese-fonts-truetype/LICENSE.
-->
<svg id="z25215" class="acjk" version="1.1" viewBox="0 0 1024 1024" xmlns="http://www.w3.org/2000/svg" xmlns:xlink="http://www.w3.org/1999/xlink">
<style>
<![CDATA[
@keyframes zk {
	to {
		stroke-dashoffset:0;
	}
}
svg.acjk path[clip-path] {
	--t:0.8s;
	animation:zk var(--t) linear forwards var(--d);
	stroke-dasharray:3337;
	stroke-dashoffset:3339;
	stroke-width:128;
	stroke-linecap:round;
	fill:none;
	stroke:#000;
}
svg.acjk path[id] {fill:#ccc;}
]]>
</style>
<path id="z25215d1" d="M510 291Q645 195 679 188Q701 182 695 163Q692 145 621 103Q600 91 575 99Q502 124 393 153Q365 162 295 157Q270 156 278 179Q287 192 307 205Q341 224 378 204Q552 140 573 150Q586 157 580 172Q540 220 496 277C492 282 505 295 510 291Z"/>
<path id="z25215d2" d="M543 576Q539 539 536 496C533 471 533 471 532 459Q525 401 522 380Q521 379 521 377C518 349 518 349 516 335Q513 295 510 291C508 285 502 280 496 277Q471 261 450 256Q438 252 430 258Q426 261 438 275Q456 299 467 351C472 376 472 376 474 388Q480 428 484 475C486 498 486 498 487 509Q490 560 491 589C492 617 492 617 492 631Q493 770 461 825Q458 832 450 835Q443 838 357 825Q348 824 346 827Q345 831 353 839Q411 891 443 929Q453 942 460 940Q475 939 499 914Q556 854 551 696Q548 663 546 620C544 591 544 591 543 576Z"/>
<path id="z25215d3" d="M521 377Q602 355 604 352Q611 345 607 338Q600 328 575 323Q550 319 524 331Q518 332 516 335C483 346 483 346 467 351Q433 358 398 364Q367 371 390 384Q426 403 474 388C505 381 505 381 521 377Z"/>
<path id="z25215d4" d="M536 496Q558 489 585 483Q609 476 612 473Q619 467 615 461Q609 452 587 448Q574 445 532 459C500 470 500 470 484 475Q451 482 416 488Q389 494 410 505Q443 521 483 509Q484 508 487 509C520 500 520 500 536 496Z"/>
<path id="z25215d5" d="M546 620Q561 614 647 604Q657 605 665 593Q666 583 645 573Q612 552 543 576C508 585 508 585 491 589Q451 598 416 603Q385 607 351 613Q324 617 346 633Q376 654 415 646Q449 637 492 631C528 624 528 624 546 620Z"/>
<path id="z25215d6" d="M146 441Q133 442 132 450Q131 456 145 463Q188 485 213 477Q304 449 312 451Q325 454 315 478Q266 596 222 654Q176 718 94 783Q81 795 90 797Q100 798 118 789Q190 752 250 689Q308 631 379 481Q389 460 400 450Q413 440 406 430Q396 418 362 406Q344 397 301 414Q238 433 146 441Z"/>
<path id="z25215d7" d="M683 466Q725 441 751 422Q809 376 835 366Q856 356 845 338Q832 322 806 308Q784 295 770 297Q758 298 762 312Q766 334 702 415Q687 431 672 451C668 456 678 470 683 466Z"/>
<path id="z25215d8" d="M672 451Q632 397 622 395Q598 391 591 398Q587 402 595 409Q626 433 643 467Q790 731 825 748Q874 760 964 749Q980 748 986 742Q990 736 981 731Q834 650 748 547Q717 511 683 466C676 456 676 456 672 451Z"/>
<defs>
	<clipPath id="z25215c1"><use xlink:href="#z25215d1"/></clipPath>
	<clipPath id="z25215c2"><use xlink:href="#z25215d2"/></clipPath>
	<clipPath id="z25215c3"><use xlink:href="#z25215d3"/></clipPath>
	<clipPath id="z25215c4"><use xlink:href="#z25215d4"/></clipPath>
	<clipPath id="z25215c5"><use xlink:href="#z25215d5"/></clipPath>
	<clipPath id="z25215c6"><use xlink:href="#z25215d6"/></clipPath>
	<clipPath id="z25215c7"><use xlink:href="#z25215d7"/></clipPath>
	<clipPath id="z25215c8"><use xlink:href="#z25215d8"/></clipPath>
</defs>
<path style="--d:1s;" pathLength="3333" clip-path="url(#z25215c1)" d="M284 171L354 185L599 129L641 172L503 283"/>
<path style="--d:2s;" pathLength="3333" clip-path="url(#z25215c2)" d="M437 261L488 320L517 756L495 845L458 887L355 833"/>
<path style="--d:3s;" pathLength="3333" clip-path="url(#z25215c3)" d="M389 374L601 346"/>
<path style="--d:4s;" pathLength="3333" clip-path="url(#z25215c4)" d="M409 496L611 465"/>
<path style="--d:5s;" pathLength="3333" clip-path="url(#z25215c5)" d="M347 624L660 591"/>
<path style="--d:6s;" pathLength="3333" clip-path="url(#z25215c6)" d="M139 449L200 457L325 428L363 449L249 655L96 793"/>
<path style="--d:7s;" pathLength="3333" clip-path="url(#z25215c7)" d="M771 305L798 350L681 458"/>
<path style="--d:8s;" pathLength="3333" clip-path="url(#z25215c8)" d="M598 402L847 704L981 740"/>
</svg>