<!--
AnimCJK 2016-2018 Copyright Francois Mizessyn, https://github.com/parsimonhi/animCJK
Derived from:
    MakeMeAHanzi project - https://github.com/skishore/makemeahanzi
    Arphic PL KaitiM GB - https://apps.ubuntu.com/cat/applications/precise/fonts-arphic-gkai00mp/
    Arphic PL UKai - https://apps.ubuntu.com/cat/applications/fonts-arphic-ukai/
You can redistribute and/or modify this file under the terms of the Arphic Public License
as published by Arphic Technology Co., Ltd.
You should have received a copy of this license (the directory "APL") along with this file;
if not, see http://ftp.gnu.org/non-gnu/chinese-fonts-truetype/LICENSE.
-->
<svg id="z25216" class="acjk" version="1.1" viewBox="0 0 1024 1024" xmlns="http://www.w3.org/2000/svg" xmlns:xlink="http://www.w3.org/1999/xlink">
<style>
<![CDATA[
@keyframes z25216k {
	from {
		stroke:#c00;
		stroke-dashoffset:3334;
	}
	75% {
		stroke:#c00;
		stroke-dashoffset:0;
	}
	to {
		stroke:#000;
	}
}
#z25216 path[clip-path] {
	animation:z25216k 1s linear both;
	stroke-dasharray:3334;
	stroke-width:128;
	stroke-linecap:round;
	fill:none;
}
#z25216 path[clip-path="url(#z25216c1)"] {animation-delay:1s;}
#z25216 path[clip-path="url(#z25216c2)"] {animation-delay:2s;}
#z25216 path[clip-path="url(#z25216c3)"] {animation-delay:3s;}
#z25216 path[clip-path="url(#z25216c4)"] {animation-delay:4s;}
#z25216 path[clip-path="url(#z25216c5)"] {animation-delay:5s;}
#z25216 path[clip-path="url(#z25216c6)"] {animation-delay:6s;}
#z25216 path[clip-path="url(#z25216c7)"] {animation-delay:7s;}
#z25216 path {fill:#ccc;}
]]>
</style>
<path id="z25216d1" d="M352 378Q445 351 448 349Q457 340 452 332Q445 320 414 314Q383 310 353 323L304 341Q163 372 160 374Q123 381 150 397Q195 421 254 403Q276 396 304 390L352 378 Z"/>
<path id="z25216d2" d="M301 585Q300 676 298 788Q298 813 284 822Q280 826 209 813Q176 801 179 811Q180 818 200 833Q263 884 279 912Q298 946 313 947Q328 948 342 913Q361 867 359 794Q352 670 350 546L350 513Q349 446 352 378L353 323Q359 182 374 135Q392 105 336 83Q302 64 283 71Q265 78 281 100Q303 128 304 162Q305 181 304 341L304 390Q303 456 301 542L301 585 Z"/>
<path id="z25216d3" d="M301 542Q205 597 123 651Q87 673 63 680Q50 687 47 696Q46 706 62 720Q83 736 108 744Q124 748 135 735Q193 672 301 585L350 546Q365 533 381 522Q403 509 412 493Q419 478 408 480Q395 480 350 513L301 542 Z"/>
<path id="z25216d4" d="M664 340Q833 295 840 289Q849 280 844 272Q837 260 806 254Q779 251 669 290L616 305Q564 317 504 326Q467 333 495 349Q540 373 604 353Q608 352 615 351L664 340 Z"/>
<path id="z25216d5" d="M650 473Q657 404 664 340L669 290Q679 167 698 113Q702 103 682 86Q646 64 621 59Q605 55 596 64Q587 71 596 87Q618 121 617 145Q618 221 616 305L615 351Q611 415 606 487L650 473 Z"/>
<path id="z25216d6" d="M679 720Q716 681 765 556Q778 525 801 505Q822 487 807 473Q794 460 759 447Q734 438 703 454Q678 463 650 473L606 487Q555 499 479 508Q464 509 459 517Q455 524 475 533Q515 548 568 531Q665 500 684 500Q709 503 702 529Q680 628 638 684L614 715Q548 787 413 827Q397 831 410 841Q417 845 462 843Q555 836 647 755L679 720 Z"/>
<path id="z25216d7" d="M647 755Q761 882 796 888Q911 888 957 882Q994 878 991 868Q988 859 896 833Q754 782 682 722Q679 721 679 720L638 684Q604 650 568 611Q534 572 501 572Q485 571 481 576Q480 582 493 592Q536 620 614 715L647 755 Z"/>
<defs>
	<clipPath id="z25216c1"><use xlink:href="#z25216d1"/></clipPath>
	<clipPath id="z25216c2"><use xlink:href="#z25216d2"/></clipPath>
	<clipPath id="z25216c3"><use xlink:href="#z25216d3"/></clipPath>
	<clipPath id="z25216c4"><use xlink:href="#z25216d4"/></clipPath>
	<clipPath id="z25216c5"><use xlink:href="#z25216d5"/></clipPath>
	<clipPath id="z25216c6"><use xlink:href="#z25216d6"/></clipPath>
	<clipPath id="z25216c7"><use xlink:href="#z25216d7"/></clipPath>
</defs>
<path pathLength="3333" clip-path="url(#z25216c1)" d="M145 384L449 338"/>
<path pathLength="3333" clip-path="url(#z25216c2)" d="M281 79L339 130L327 814L300 895L187 814"/>
<path pathLength="3333" clip-path="url(#z25216c3)" d="M53 696L114 702L408 486"/>
<path pathLength="3333" clip-path="url(#z25216c4)" d="M492 337L841 276"/>
<path pathLength="3333" clip-path="url(#z25216c5)" d="M599 67L657 123L628 474L612 479"/>
<path pathLength="3333" clip-path="url(#z25216c6)" d="M462 519L716 475L761 499L632 733L526 806L413 834"/>
<path pathLength="3333" clip-path="url(#z25216c7)" d="M488 578L781 832L982 870"/>
</svg>