<!--
AnimCJK 2016-2019 Copyright Francois Mizessyn - https://github.com/parsimonhi/animCJK
Derived from:
    MakeMeAHanzi project - https://github.com/skishore/makemeahanzi
    Arphic PL KaitiM GB font
    Arphic PL UKai font
You can redistribute and/or modify this file under the terms of the Arphic Public License
as published by Arphic Technology Co., Ltd.
You should have received a copy of this license along with this file.
If not, see http://ftp.gnu.org/non-gnu/chinese-fonts-truetype/LICENSE.
-->
<svg id="z25235" class="acjk" version="1.1" viewBox="0 0 1024 1024" xmlns="http://www.w3.org/2000/svg" xmlns:xlink="http://www.w3.org/1999/xlink">
<style>
<![CDATA[
@keyframes zk {
	to {
		stroke-dashoffset:0;
	}
}
svg.acjk path[clip-path] {
	--t:0.8s;
	animation:zk var(--t) linear forwards var(--d);
	stroke-dasharray:3337;
	stroke-dashoffset:3339;
	stroke-width:128;
	stroke-linecap:round;
	fill:none;
	stroke:#000;
}
svg.acjk path[id] {fill:#ccc;}
]]>
</style>
<path id="z25235d1" d="M308 393Q324 387 341 383Q372 373 377 369Q386 360 380 352Q373 340 342 335Q326 332 310 336C278 348 278 348 262 354Q192 381 115 393Q78 402 106 417Q154 438 206 421Q234 414 262 405C293 397 293 397 308 393Z"/>
<path id="z25235d2" d="M316 808Q316 790 316 773Q309 659 307 546C307 525 307 525 307 514Q306 453 308 393C309 355 309 355 310 336Q310 222 329 161Q345 133 292 111Q261 93 241 100Q225 106 240 128Q259 153 262 186Q263 204 262 354C262 388 262 388 262 405Q261 463 260 541C259 570 259 570 259 584Q258 666 258 769Q258 791 245 801Q236 807 214 800Q189 794 164 789Q133 777 135 787Q136 794 156 808Q220 857 238 886Q257 919 274 920Q287 921 302 887Q311 862 314 827C315 814 315 814 316 808Z"/>
<path id="z25235d3" d="M307 546Q326 530 345 517Q364 505 373 492Q379 479 368 480Q356 480 307 514C276 532 276 532 260 541Q67 650 64 652Q49 658 47 666Q46 675 60 688Q79 703 101 710Q110 713 140 689Q192 632 259 584C291 559 291 559 307 546Z"/>
<path id="z25235d4" d="M588 296Q633 272 669 247Q714 220 753 206Q771 202 774 193Q775 181 761 171Q736 158 687 148Q669 142 656 146Q649 152 650 163Q651 197 487 319C480 323 500 339 507 335Q526 325 555 311C577 301 577 301 588 296Z"/>
<path id="z25235d5" d="M487 319Q447 301 435 304Q416 308 432 328Q462 376 447 563Q440 612 417 669Q395 729 316 808C311 813 308 828 314 827Q313 827 316 827Q355 823 411 758Q477 679 492 564Q502 489 504 379Q507 360 508 350Q509 341 507 335C505 327 495 322 487 319Z"/>
<path id="z25235d6" d="M612 371Q615 316 611 312Q599 302 588 296C578 290 551 300 555 311Q582 381 565 681Q558 795 551 814Q542 854 585 913Q589 919 596 922Q606 923 612 910Q622 879 619 850Q607 528 611 397C612 380 612 380 612 371Z"/>
<path id="z25235d7" d="M611 397Q633 419 647 449Q783 731 817 744Q887 760 959 759Q975 760 982 754Q986 748 978 742Q828 652 773 573Q721 504 657 396Q644 365 612 371C603 373 606 390 611 397Z"/>
<defs>
	<clipPath id="z25235c1"><use xlink:href="#z25235d1"/></clipPath>
	<clipPath id="z25235c2"><use xlink:href="#z25235d2"/></clipPath>
	<clipPath id="z25235c3"><use xlink:href="#z25235d3"/></clipPath>
	<clipPath id="z25235c4"><use xlink:href="#z25235d4"/></clipPath>
	<clipPath id="z25235c5"><use xlink:href="#z25235d5"/></clipPath>
	<clipPath id="z25235c6"><use xlink:href="#z25235d6"/></clipPath>
	<clipPath id="z25235c7"><use xlink:href="#z25235d7"/></clipPath>
</defs>
<path style="--d:1s;" pathLength="3333" clip-path="url(#z25235c1)" d="M101 404L376 356"/>
<path style="--d:2s;" pathLength="3333" clip-path="url(#z25235c2)" d="M239 107L295 155L285 803L255 867L146 791"/>
<path style="--d:3s;" pathLength="3333" clip-path="url(#z25235c3)" d="M53 667L100 673L367 486"/>
<path style="--d:4s;" pathLength="3333" clip-path="url(#z25235c4)" d="M770 192L672 191L498 323"/>
<path style="--d:5s;" pathLength="3333" clip-path="url(#z25235c5)" d="M430 309L476 356L463 598L416 717L322 818"/>
<path style="--d:6s;" pathLength="3333" clip-path="url(#z25235c6)" d="M563 317L590 346L596 917"/>
<path style="--d:7s;" pathLength="3333" clip-path="url(#z25235c7)" d="M619 378L824 690L976 751"/>
</svg>