<!--
AnimCJK 2016-2018 Copyright Francois Mizessyn, http://gooo.free.fr/animCJK/
Derived from:
    MakeMeAHanzi project - https://github.com/skishore/makemeahanzi
    Arphic PL KaitiM GB - https://apps.ubuntu.com/cat/applications/precise/fonts-arphic-gkai00mp/
    Arphic PL UKai - https://apps.ubuntu.com/cat/applications/fonts-arphic-ukai/
You can redistribute and/or modify this file under the terms of the Arphic Public License
as published by Arphic Technology Co., Ltd.
You should have received a copy of this license (the directory "APL") along with this file;
if not, see http://ftp.gnu.org/non-gnu/chinese-fonts-truetype/LICENSE.
-->
<svg id="z25242" class="acjk" version="1.1" viewBox="0 0 1024 1024" xmlns="http://www.w3.org/2000/svg" xmlns:xlink="http://www.w3.org/1999/xlink">
<style>
<![CDATA[
@keyframes z25242k {
	from {
		stroke:#ccc;
		stroke-dashoffset:3334;
	}
	1% {
		stroke:#c00;
		stroke-dashoffset:3334;
	}
	75% {
		stroke:#c00;
		stroke-dashoffset:0;
	}
	to {
		stroke:#000;
	}
}
#z25242 path[clip-path] {
	animation:z25242k 1s linear both;
	stroke-dasharray:3334;
	stroke-width:128;
	stroke-linecap:round;
	fill:none;
}
#z25242 path[clip-path="url(#z25242c1)"] {animation-delay:1s;}
#z25242 path[clip-path="url(#z25242c2)"] {animation-delay:2s;}
#z25242 path[clip-path="url(#z25242c3)"] {animation-delay:3s;}
#z25242 path[clip-path="url(#z25242c4)"] {animation-delay:4s;}
#z25242 path[clip-path="url(#z25242c5)"] {animation-delay:5s;}
#z25242 path[clip-path="url(#z25242c6)"] {animation-delay:6s;}
#z25242 path[clip-path="url(#z25242c7)"] {animation-delay:7s;}
#z25242 path {fill:#ccc;}
]]>
</style>
<path id="z25242d1" d="M 341,364 C 354,360 367,355 381,351 403,344 417,339 421,335 427,328 428,321 424,316 418,307 404,302 384,299 370,296 355,296 343,302 L 292,323 C 257,337 186,354 131,367 104,372 101,383 122,393 155,408 190,404 228,395 242,391 278,380 291,377 Z"/>
<path id="z25242d2" d="M 288,567 C 288,625 286,692 285,766 284,780 280,791 272,798 265,802 253,800 237,795 218,788 199,784 181,778 158,770 149,768 151,775 152,779 158,787 172,798 218,834 248,863 261,885 275,909 288,922 300,923 308,923 318,912 329,889 342,859 349,819 347,770 343,689 341,608 339,527 L 338,499 C 336,454 339,409 341,364 L 343,302 C 343,301 344,301 344,301 347,242 349,196 362,167 371,145 360,131 324,115 300,104 283,98 271,103 259,107 257,117 269,132 283,151 291,171 292,193 292,203 293,246 292,323 L 291,377 C 290,419 288,470 288,528 Z"/>
<path id="z25242d3" d="M 288,528 C 246,552 61,651 53,664 48,671 56,678 67,688 79,699 93,706 110,711 118,713 131,707 146,693 187,651 234,609 288,567 L 339,527 C 344,522 378,497 384,488 389,479 387,475 380,476 366,476 355,488 338,499 Z"/>
<path id="z25242d4" d="M 603,303 C 718,275 777,257 780,255 787,248 787,242 784,237 777,228 764,221 744,218 722,213 700,217 679,227 652,238 623,246 593,255 560,263 524,270 485,276 458,280 455,289 475,301 494,311 523,322 557,314 Z"/>
<path id="z25242d5" d="M 600,513 C 653,503 706,492 834,492 846,491 854,488 857,482 860,474 856,465 845,458 806,431 772,427 742,437 708,447 638,463 610,469 L 552,481 C 509,489 463,496 415,506 401,508 399,514 411,525 419,533 430,539 442,542 456,544 467,543 478,540 498,532 530,525 544,523 Z"/>
<path id="z25242d6" d="M 595,533 C 596,526 598,520 600,513 L 610,469 C 614,447 621,381 633,356 637,346 642,337 636,329 629,319 617,311 603,303 L 557,314 C 579,351 559,440 552,481 L 544,523 C 524,627 465,755 384,866 380,870 378,874 377,878 374,884 376,888 384,887 410,882 450,843 500,768 506,757 513,746 520,734 548,680 573,622 589,558 Z"/>
<path id="z25242d7" d="M 932,827 C 920,798 909,758 903,707 901,696 899,688 894,686 888,682 884,688 882,701 871,763 860,799 851,811 838,824 803,834 743,836 711,836 687,833 674,827 661,821 654,813 652,805 647,788 644,758 647,717 649,670 658,636 668,614 676,594 675,577 662,567 629,540 607,529 596,532 595,532 595,532 595,533 L 589,558 C 599,582 603,612 602,648 597,756 601,813 620,843 632,862 662,874 697,880 734,885 769,887 819,887 863,886 895,883 914,874 934,863 940,847 932,827 Z"/>
<defs>
	<clipPath id="z25242c1"><use xlink:href="#z25242d1"/></clipPath>
	<clipPath id="z25242c2"><use xlink:href="#z25242d2"/></clipPath>
	<clipPath id="z25242c3"><use xlink:href="#z25242d3"/></clipPath>
	<clipPath id="z25242c4"><use xlink:href="#z25242d4"/></clipPath>
	<clipPath id="z25242c5"><use xlink:href="#z25242d5"/></clipPath>
	<clipPath id="z25242c6"><use xlink:href="#z25242d6"/></clipPath>
	<clipPath id="z25242c7"><use xlink:href="#z25242d7"/></clipPath>
</defs>
<path pathLength="3333" clip-path="url(#z25242c1)" d="M116 379L421 322"/>
<path pathLength="3333" clip-path="url(#z25242c2)" d="M270 112L327 163L313 799L281 870L159 778"/>
<path pathLength="3333" clip-path="url(#z25242c3)" d="M59 665L115 670L378 481"/>
<path pathLength="3333" clip-path="url(#z25242c4)" d="M471 288L780 241"/>
<path pathLength="3333" clip-path="url(#z25242c5)" d="M410 511L459 520L761 462L852 471"/>
<path pathLength="3333" clip-path="url(#z25242c6)" d="M563 316L600 347L550 600L481 756L385 879"/>
<path pathLength="3333" clip-path="url(#z25242c7)" d="M600 536L636 595L626 787L659 843L789 860L888 837L890 692"/>
</svg>