<!--
AnimCJK 2016-2017 Copyright Francois Mizessyn, http://gooo.free.fr/animCJK/
Derived from:
    MakeMeAHanzi project - https://github.com/skishore/makemeahanzi
    Arphic PL KaitiM GB - https://apps.ubuntu.com/cat/applications/precise/fonts-arphic-gkai00mp/
    Arphic PL UKai - https://apps.ubuntu.com/cat/applications/fonts-arphic-ukai/
You can redistribute and/or modify this file under the terms of the Arphic Public License
as published by Arphic Technology Co., Ltd.
You should have received a copy of this license (the directory "APL") along with this file;
if not, see http://ftp.gnu.org/non-gnu/chinese-fonts-truetype/LICENSE.
-->
<svg id="z25242" class="acjk" version="1.1" viewBox="0 0 1024 1024" xmlns="http://www.w3.org/2000/svg" xmlns:xlink="http://www.w3.org/1999/xlink">
<style>
<![CDATA[
@keyframes z25242k {
	from {
		stroke:#c00;
		stroke-dashoffset:3000;
	}
	75% {
		stroke:#c00;
		stroke-dashoffset:0;
	}
	to {
		stroke:#000;
	}
}
#z25242 path[clip-path] {
	animation:z25242k 1s linear both;
	stroke-dasharray:3000;
	stroke-width:128;
	stroke-linecap:round;
	fill:none;
}
#z25242 path[clip-path="url(#z25242c1)"] {animation-delay:1s;}
#z25242 path[clip-path="url(#z25242c2)"] {animation-delay:2s;}
#z25242 path[clip-path="url(#z25242c3)"] {animation-delay:3s;}
#z25242 path[clip-path="url(#z25242c4)"] {animation-delay:4s;}
#z25242 path[clip-path="url(#z25242c5)"] {animation-delay:5s;}
#z25242 path[clip-path="url(#z25242c6)"] {animation-delay:6s;}
#z25242 path[clip-path="url(#z25242c7)"] {animation-delay:7s;}
#z25242 path {fill:#ccc;}
]]>
</style>
<path id="z25242d1" d="M341 364Q360 357 381 351Q415 341 421 335Q430 325 424 316Q415 304 384 299Q363 296 343 302L292 323Q214 350 131 367Q92 377 122 393Q173 414 228 395Q259 386 291 377L341 364 Z"/>
<path id="z25242d2" d="M288 567Q287 655 285 766Q284 788 272 798Q262 804 237 795Q209 786 181 778Q148 765 151 775Q152 782 172 798Q242 853 261 885Q282 922 300 923Q313 924 329 889Q348 844 347 770Q340 649 339 527L338 499Q338 432 341 364L343 302Q343 301 344 301Q348 213 362 167Q380 137 324 115Q290 96 271 103Q253 109 269 132Q291 160 292 193Q293 208 292 323L291 377Q290 441 288 528L288 567 Z"/>
<path id="z25242d3" d="M288 528Q54 660 53 664L53 665Q52 674 67 688Q86 704 110 711Q123 714 146 693Q207 630 288 567L339 527Q346 520 356 514Q375 502 384 488Q391 475 380 476Q359 477 338 499L288 528 Z"/>
<path id="z25242d4" d="M603 303Q775 258 780 255Q790 245 784 237Q775 224 744 218Q711 212 679 227Q639 243 593 255Q544 268 485 276Q446 283 475 301Q505 316 557 314L603 303 Z"/>
<path id="z25242d5" d="M600 513Q642 492 834 492Q853 491 857 482Q861 470 845 458Q787 419 742 437Q690 450 610 469L552 481Q488 491 415 506Q394 509 411 525Q424 538 442 542Q463 546 478 540Q509 530 544 523L600 513 Z"/>
<path id="z25242d6" d="M595 533Q596 523 600 513L610 469Q611 459 614 447Q620 395 633 356Q643 343 636 329Q624 316 603 303L557 314Q569 350 552 481L544 523Q507 701 384 866Q380 873 377 878Q373 888 384 887Q424 880 500 768Q509 752 520 734Q562 653 589 558L595 533 Z"/>
<path id="z25242d7" d="M932 827Q914 784 903 707Q902 691 894 686Q885 682 882 701Q866 794 851 811Q833 832 743 836Q695 835 674 827Q656 817 652 805Q645 780 647 717Q653 647 668 614Q681 584 662 567Q613 528 596 532Q595 532 595 533L589 558Q605 594 602 648Q595 810 620 843Q645 868 697 878Q745 888 819 887Q886 887 914 874Q944 858 932 827 Z"/>
<defs>
	<clipPath id="z25242c1"><use xlink:href="#z25242d1"/></clipPath>
	<clipPath id="z25242c2"><use xlink:href="#z25242d2"/></clipPath>
	<clipPath id="z25242c3"><use xlink:href="#z25242d3"/></clipPath>
	<clipPath id="z25242c4"><use xlink:href="#z25242d4"/></clipPath>
	<clipPath id="z25242c5"><use xlink:href="#z25242d5"/></clipPath>
	<clipPath id="z25242c6"><use xlink:href="#z25242d6"/></clipPath>
	<clipPath id="z25242c7"><use xlink:href="#z25242d7"/></clipPath>
</defs>
<path pathLength="2999" clip-path="url(#z25242c1)" d="M116 379L421 322"/>
<path pathLength="2999" clip-path="url(#z25242c2)" d="M270 112L327 163L313 799L281 870L159 778"/>
<path pathLength="2999" clip-path="url(#z25242c3)" d="M59 665L115 670L378 481"/>
<path pathLength="2999" clip-path="url(#z25242c4)" d="M471 288L780 241"/>
<path pathLength="2999" clip-path="url(#z25242c5)" d="M410 511L459 520L761 462L852 471"/>
<path pathLength="2999" clip-path="url(#z25242c6)" d="M563 316L600 347L550 600L481 756L385 879"/>
<path pathLength="2999" clip-path="url(#z25242c7)" d="M600 536L636 595L626 787L659 843L789 860L888 837L890 692"/>
</svg>