<!--
AnimCJK 2016-2017 Copyright Francois Mizessyn, http://gooo.free.fr/animCJK/
Derived from:
    MakeMeAHanzi project - https://github.com/skishore/makemeahanzi
    Arphic PL KaitiM GB - https://apps.ubuntu.com/cat/applications/precise/fonts-arphic-gkai00mp/
    Arphic PL UKai - https://apps.ubuntu.com/cat/applications/fonts-arphic-ukai/
You can redistribute and/or modify this file under the terms of the Arphic Public License
as published by Arphic Technology Co., Ltd.
You should have received a copy of this license (the directory "APL") along with this file;
if not, see http://ftp.gnu.org/non-gnu/chinese-fonts-truetype/LICENSE.
-->
<svg id="z25253" class="acjk" version="1.1" viewBox="0 0 1024 1024" xmlns="http://www.w3.org/2000/svg" xmlns:xlink="http://www.w3.org/1999/xlink">
<style>
<![CDATA[
	@keyframes z25253k {
		from {
			stroke:#c00;
			stroke-dashoffset:3000;
		}
		75% {
			stroke:#c00;
			stroke-dashoffset:0;
		}
		to {
			stroke:#000;
		}
	}
	#z25253 path[clip-path] {
		animation:z25253k 1s linear both;
		stroke-dasharray:3000;
		stroke-width:128;
		stroke-linecap:round;
		fill:none;
	}
	#z25253 path[clip-path="url(#z25253c1)"] {animation-delay:1s;}
	#z25253 path[clip-path="url(#z25253c2)"] {animation-delay:2s;}
	#z25253 path[clip-path="url(#z25253c3)"] {animation-delay:3s;}
	#z25253 path[clip-path="url(#z25253c4)"] {animation-delay:4s;}
	#z25253 path[clip-path="url(#z25253c5)"] {animation-delay:5s;}
	#z25253 path[clip-path="url(#z25253c6)"] {animation-delay:6s;}
	#z25253 path[clip-path="url(#z25253c7)"] {animation-delay:7s;}
	#z25253 path {fill:#ccc;}
]]>
</style>
<g transform="scale(1,-1) translate(0,-900)">
	<path id="z25253d1" d="M364 541Q380 547 400 551Q436 561 441 567Q450 576 444 584Q437 596 406 601Q385 605 366 598L317 580Q211 547 155 539Q118 530 146 515Q189 491 247 510Q280 519 316 528L364 541Z"/>
	<path id="z25253d2" d="M313 364Q312 264 310 135Q309 111 296 102Q284 95 259 105Q229 114 201 123Q168 135 171 125Q172 118 192 102Q265 47 285 15Q307 -22 325 -23Q338 -24 354 11Q372 56 371 130Q364 266 362 403L362 437Q362 489 364 541L366 598Q366 704 386 773Q404 803 348 825Q314 844 295 837Q277 831 293 808Q315 780 316 747Q317 729 317 580L316 528Q315 476 314 408L313 364Z"/>
	<path id="z25253d3" d="M362 403Q378 418 398 431Q419 444 429 460Q435 473 424 472Q412 472 362 437L314 408Q226 356 149 305Q115 284 91 277Q78 271 77 263Q76 253 91 240Q110 224 134 217Q150 213 161 226Q222 293 313 364L362 403Z"/>
	<path id="z25253d4" d="M564 644Q643 669 701 678Q714 679 716 676Q723 667 719 644Q715 580 699 552Q681 524 655 529Q630 539 607 552Q583 562 598 537Q640 491 658 455Q670 437 685 449Q736 479 768 594Q772 645 798 671Q811 684 805 694Q796 704 747 728Q728 738 708 725Q671 703 540 682L564 644Z"/>
	<path id="z25253d5" d="M551 382Q554 590 564 644L540 682Q521 698 497 704Q487 707 480 698Q476 691 484 680Q541 527 498 229Q488 172 470 114Q461 86 466 64Q475 27 487 13Q500 -2 510 13Q528 32 536 89L539 109Q543 140 549 303L549 314Q549 335 550 353L551 382Z"/>
	<path id="z25253d6" d="M536 89Q617 89 689 159L720 199Q748 248 776 323Q786 353 806 371Q825 387 812 401Q799 413 766 423Q742 430 716 415Q641 390 551 382L550 353Q583 346 623 355Q684 374 694 373Q722 373 719 342Q706 275 683 229L660 193Q644 171 622 155Q585 127 539 109L536 89Z"/>
	<path id="z25253d7" d="M689 159Q770 66 805 63Q883 63 944 70Q975 74 973 83Q972 87 825 139Q783 154 720 199L683 229Q656 253 629 281Q596 315 565 316Q552 317 549 314L549 303Q573 294 660 193L689 159Z"/>
	<defs>
		<clipPath id="z25253c1"><use xlink:href="#z25253d1"/></clipPath>
		<clipPath id="z25253c2"><use xlink:href="#z25253d2"/></clipPath>
		<clipPath id="z25253c3"><use xlink:href="#z25253d3"/></clipPath>
		<clipPath id="z25253c4"><use xlink:href="#z25253d4"/></clipPath>
		<clipPath id="z25253c5"><use xlink:href="#z25253d5"/></clipPath>
		<clipPath id="z25253c6"><use xlink:href="#z25253d6"/></clipPath>
		<clipPath id="z25253c7"><use xlink:href="#z25253d7"/></clipPath>
	</defs>
	<path pathLength="2999" clip-path="url(#z25253c1)" d="M141 528L441 579"/>
	<path pathLength="2999" clip-path="url(#z25253c2)" d="M293 831L350 781L338 108L308 28L180 123"/>
	<path pathLength="2999" clip-path="url(#z25253c3)" d="M82 266L141 257L424 465"/>
	<path pathLength="2999" clip-path="url(#z25253c4)" d="M548 681L584 669L719 704L762 681L693 503L657 491L601 549"/>
	<path pathLength="2999" clip-path="url(#z25253c5)" d="M486 697L529 641L535 501L496 12"/>
	<path pathLength="2999" clip-path="url(#z25253c6)" d="M558 360L722 395L766 372L674 176L545 96"/>
	<path pathLength="2999" clip-path="url(#z25253c7)" d="M557 309L797 108L963 80"/>
</g>
</svg>