<!--
AnimCJK 2016-2017 Copyright Francois Mizessyn, http://gooo.free.fr/animCJK/
Derived from:
    MakeMeAHanzi project - https://github.com/skishore/makemeahanzi
    Arphic PL KaitiM GB - https://apps.ubuntu.com/cat/applications/precise/fonts-arphic-gkai00mp/
    Arphic PL UKai - https://apps.ubuntu.com/cat/applications/fonts-arphic-ukai/
You can redistribute and/or modify this file under the terms of the Arphic Public License
as published by Arphic Technology Co., Ltd.
You should have received a copy of this license (the directory "APL") along with this file;
if not, see http://ftp.gnu.org/non-gnu/chinese-fonts-truetype/LICENSE.
-->
<svg id="z25259" class="acjk" version="1.1" viewBox="0 0 1024 1024" xmlns="http://www.w3.org/2000/svg" xmlns:xlink="http://www.w3.org/1999/xlink">
<style>
<![CDATA[
	@keyframes z25259k {
		from {
			stroke:#c00;
			stroke-dashoffset:3000;
		}
		75% {
			stroke:#c00;
			stroke-dashoffset:0;
		}
		to {
			stroke:#000;
		}
	}
	#z25259 path[clip-path] {
		animation:z25259k 1s linear both;
		stroke-dasharray:3000;
		stroke-width:128;
		stroke-linecap:round;
		fill:none;
	}
	#z25259 path[clip-path="url(#z25259c1)"] {animation-delay:1s;}
	#z25259 path[clip-path="url(#z25259c2)"] {animation-delay:2s;}
	#z25259 path[clip-path="url(#z25259c3)"] {animation-delay:3s;}
	#z25259 path[clip-path="url(#z25259c4)"] {animation-delay:4s;}
	#z25259 path[clip-path="url(#z25259c5)"] {animation-delay:5s;}
	#z25259 path[clip-path="url(#z25259c6)"] {animation-delay:6s;}
	#z25259 path[clip-path="url(#z25259c7)"] {animation-delay:7s;}
	#z25259 path[clip-path="url(#z25259c8)"] {animation-delay:8s;}
	#z25259 path {fill:#ccc;}
]]>
</style>
<g transform="scale(1,-1) translate(0,-900)">
	<path id="z25259d1" d="M317 542Q398 569 402 573Q409 580 404 589Q397 599 367 604Q342 607 319 596L270 575Q185 548 137 537Q103 527 130 514Q172 496 242 519Q255 523 270 527L317 542Z"/>
	<path id="z25259d2" d="M267 343Q266 252 265 137Q264 115 252 105Q249 104 187 117Q157 130 159 121Q160 114 178 98Q233 47 247 19Q262 -14 277 -16Q290 -17 306 16Q324 59 324 131Q317 255 315 379L315 412Q315 478 317 542L319 596Q319 684 337 743Q353 771 300 793Q269 811 249 804Q233 798 248 776Q267 751 270 718Q271 702 270 575L270 527Q269 467 268 386L267 343Z"/>
	<path id="z25259d3" d="M315 379Q382 430 388 436Q395 449 384 448Q368 447 315 412L268 386Q76 284 69 280Q54 276 52 266Q51 257 64 244Q83 229 104 221Q120 217 130 228Q184 282 267 343L315 379Z"/>
	<path id="z25259d4" d="M663 582Q706 595 750 604Q784 608 786 595Q786 579 758 515Q752 500 759 497Q766 494 778 506Q848 570 878 585Q902 594 899 607Q898 619 824 651Q802 658 776 650Q716 631 665 614L615 600Q561 590 495 574L510 507Q510 541 541 547Q577 559 615 568L663 582Z"/>
	<path id="z25259d5" d="M495 574Q483 581 469 587Q450 596 439 590Q429 583 435 571Q475 522 436 285Q432 269 428 252Q401 164 349 73Q345 66 343 61Q342 51 351 53Q385 60 443 176Q447 188 454 200Q496 305 510 507L495 574Z"/>
	<path id="z25259d6" d="M653 413Q659 500 663 582L665 614Q666 701 687 786Q691 796 670 812Q634 831 610 835Q594 839 586 830Q579 823 587 807Q611 773 611 748Q615 678 615 600L615 568Q615 487 611 398L653 413Z"/>
	<path id="z25259d7" d="M639 181Q582 109 432 61Q419 57 427 50Q434 44 461 49Q603 67 669 143L698 182Q735 242 762 333Q768 366 786 382Q801 395 783 410Q764 425 732 436Q713 443 692 432Q673 422 653 413L611 398Q517 377 512 373Q505 366 522 358Q547 346 583 360Q635 375 687 389Q705 396 706 375Q706 297 663 217L639 181Z"/>
	<path id="z25259d8" d="M669 143Q715 86 793 15Q821 -9 865 -2Q971 13 990 18Q997 25 985 34Q970 43 851 82Q781 107 698 182L663 217Q629 253 592 297Q573 321 540 327Q528 330 519 323Q513 316 523 308Q530 302 537 298Q561 286 639 181L669 143Z"/>
	<defs>
		<clipPath id="z25259c1"><use xlink:href="#z25259d1"/></clipPath>
		<clipPath id="z25259c2"><use xlink:href="#z25259d2"/></clipPath>
		<clipPath id="z25259c3"><use xlink:href="#z25259d3"/></clipPath>
		<clipPath id="z25259c4"><use xlink:href="#z25259d4"/></clipPath>
		<clipPath id="z25259c5"><use xlink:href="#z25259d5"/></clipPath>
		<clipPath id="z25259c6"><use xlink:href="#z25259d6"/></clipPath>
		<clipPath id="z25259c7"><use xlink:href="#z25259d7"/></clipPath>
		<clipPath id="z25259c8"><use xlink:href="#z25259d8"/></clipPath>
	</defs>
	<path pathLength="2999" clip-path="url(#z25259c1)" d="M123 525L402 582"/>
	<path pathLength="2999" clip-path="url(#z25259c2)" d="M247 797L303 749L292 106L261 38L168 118"/>
	<path pathLength="2999" clip-path="url(#z25259c3)" d="M56 267L107 258L385 442"/>
	<path pathLength="2999" clip-path="url(#z25259c4)" d="M509 519L515 560L779 628L846 592L762 506"/>
	<path pathLength="2999" clip-path="url(#z25259c5)" d="M439 586L470 561L482 509L460 295L412 157L350 60"/>
	<path pathLength="2999" clip-path="url(#z25259c6)" d="M589 828L647 780L621 404"/>
	<path pathLength="2999" clip-path="url(#z25259c7)" d="M520 367L709 413L749 378L649 156L572 98L430 56"/>
	<path pathLength="2999" clip-path="url(#z25259c8)" d="M523 317L571 293L814 52L986 28"/>
</g>
</svg>