<!--
AnimCJK 2016-2018 Copyright Francois Mizessyn - https://github.com/parsimonhi/animCJK
Derived from:
    MakeMeAHanzi project - https://github.com/skishore/makemeahanzi
    Arphic PL KaitiM GB - https://apps.ubuntu.com/cat/applications/precise/fonts-arphic-gkai00mp/
    Arphic PL UKai - https://apps.ubuntu.com/cat/applications/fonts-arphic-ukai/
You can redistribute and/or modify this file under the terms of the Arphic Public License
as published by Arphic Technology Co., Ltd.
You should have received a copy of this license (the directory "APL") along with this file;
if not, see http://ftp.gnu.org/non-gnu/chinese-fonts-truetype/LICENSE.
-->
<svg id="z25275" class="acjk" version="1.1" viewBox="0 0 1024 1024" xmlns="http://www.w3.org/2000/svg" xmlns:xlink="http://www.w3.org/1999/xlink">
<style>
<![CDATA[
@keyframes z25275k {
	from {
		stroke:#ccc;
		stroke-dashoffset:3334;
	}
	1% {
		stroke:#c00;
		stroke-dashoffset:3334;
	}
	75% {
		stroke:#c00;
		stroke-dashoffset:0;
	}
	to {
		stroke:#000;
	}
}
#z25275 path[clip-path] {
	animation:z25275k 1s linear both;
	stroke-dasharray:3334;
	stroke-width:128;
	stroke-linecap:round;
	fill:none;
}
#z25275 path[clip-path="url(#z25275c1)"] {animation-delay:1s;}
#z25275 path[clip-path="url(#z25275c2)"] {animation-delay:2s;}
#z25275 path[clip-path="url(#z25275c3)"] {animation-delay:3s;}
#z25275 path[clip-path="url(#z25275c4)"] {animation-delay:4s;}
#z25275 path[clip-path="url(#z25275c5)"] {animation-delay:5s;}
#z25275 path[clip-path="url(#z25275c6)"] {animation-delay:6s;}
#z25275 path[clip-path="url(#z25275c7)"] {animation-delay:7s;}
#z25275 path[clip-path="url(#z25275c8)"] {animation-delay:8s;}
#z25275 path {fill:#ccc;}
]]>
</style>
<path id="z25275d1" d="M326 363Q339 357 358 353Q392 343 397 337Q406 328 400 320Q393 308 362 303Q344 302 328 305L277 325Q187 356 119 369Q82 379 110 393Q149 409 219 393Q244 384 277 377L326 363 Z"/>
<path id="z25275d2" d="M275 563Q274 651 273 762Q272 784 259 794Q252 800 231 793Q207 787 185 782Q152 769 155 779Q156 786 176 802Q237 854 254 883Q272 917 288 919Q301 920 317 885Q336 840 334 766Q327 643 325 521L325 486Q324 425 326 363L328 305Q328 214 346 151Q364 121 308 99Q274 80 255 87Q237 94 253 117Q275 144 276 178Q277 194 277 325L277 377Q276 437 275 516L275 563 Z"/>
<path id="z25275d3" d="M275 516Q77 634 73 637Q57 637 53 653Q52 663 67 676Q86 692 110 699Q126 703 137 690Q195 626 275 563L325 521Q346 503 367 488Q386 475 397 460Q403 447 392 448Q383 448 325 486L275 516 Z"/>
<path id="z25275d4" d="M484 341Q462 328 437 323Q430 320 425 326Q416 333 427 344Q469 404 483 559Q487 625 530 652L531 653Q550 657 550 625L547 593Q544 574 537 551Q516 401 514 376L484 341 Z"/>
<path id="z25275d5" d="M767 598Q789 631 809 640Q821 647 836 624Q854 590 882 414Q891 380 915 352Q930 339 916 323Q900 305 852 278Q837 271 749 290Q713 294 687 303L631 313Q612 316 593 320Q533 333 484 341L514 376Q560 361 631 349L686 339Q794 317 811 332Q827 351 825 371Q800 554 783 572L767 598 Z"/>
<path id="z25275d6" d="M686 480Q722 473 753 470Q778 466 769 452Q759 436 731 432Q712 429 686 435L632 449Q592 459 556 470Q538 474 560 490Q566 496 632 487L686 480 Z"/>
<path id="z25275d7" d="M686 605Q720 601 767 598L783 572Q750 548 688 567Q687 567 686 568L632 579Q586 586 547 593L550 625Q554 625 560 624Q588 617 632 612L686 605 Z"/>
<path id="z25275d8" d="M632 612Q628 915 648 948Q663 964 672 942Q690 893 686 605L686 568Q686 567 686 564Q686 519 686 480L686 435Q686 383 686 339L687 303Q690 183 709 151Q716 135 696 120Q671 101 628 90Q609 84 596 99Q586 106 598 119Q628 144 630 178Q630 230 631 313L631 349Q631 395 632 449L632 487Q632 499 633 513Q633 547 632 579L632 612 Z"/>
<defs>
	<clipPath id="z25275c1"><use xlink:href="#z25275d1"/></clipPath>
	<clipPath id="z25275c2"><use xlink:href="#z25275d2"/></clipPath>
	<clipPath id="z25275c3"><use xlink:href="#z25275d3"/></clipPath>
	<clipPath id="z25275c4"><use xlink:href="#z25275d4"/></clipPath>
	<clipPath id="z25275c5"><use xlink:href="#z25275d5"/></clipPath>
	<clipPath id="z25275c6"><use xlink:href="#z25275d6"/></clipPath>
	<clipPath id="z25275c7"><use xlink:href="#z25275d7"/></clipPath>
	<clipPath id="z25275c8"><use xlink:href="#z25275d8"/></clipPath>
</defs>
<path pathLength="3333" clip-path="url(#z25275c1)" d="M107 382L395 328"/>
<path pathLength="3333" clip-path="url(#z25275c2)" d="M254 96L311 146L302 785L269 866L163 782"/>
<path pathLength="3333" clip-path="url(#z25275c3)" d="M60 653L112 660L392 456"/>
<path pathLength="3333" clip-path="url(#z25275c4)" d="M430 332L483 386L536 648"/>
<path pathLength="3333" clip-path="url(#z25275c5)" d="M492 342L532 352L810 303L860 328L873 348L829 534L789 624"/>
<path pathLength="3333" clip-path="url(#z25275c6)" d="M555 475L766 457"/>
<path pathLength="3333" clip-path="url(#z25275c7)" d="M553 618L776 582"/>
<path pathLength="3333" clip-path="url(#z25275c8)" d="M598 101L669 155L658 950"/>
</svg>