<!--
AnimCJK 2016-2025 Copyright FM-SH - https://github.com/parsimonhi/animCJK
Derived from:
    MakeMeAHanzi project - https://github.com/skishore/makemeahanzi
    Arphic PL KaitiM GB font
    Arphic PL KaitiM Big5 font
You can redistribute and/or modify this file under the terms of the Arphic Public License
as published by Arphic Technology Co., Ltd.
You should have received a copy of this license along with this file.
If not, see https://ftp.gnu.org/non-gnu/chinese-fonts-truetype/LICENSE.
-->
<svg id="z25293" class="acjk" viewBox="0 0 1024 1024" xmlns="http://www.w3.org/2000/svg">
<style>
<![CDATA[
@keyframes zk {
	to {
		stroke-dashoffset:0;
	}
}
svg.acjk path[clip-path] {
	--t:0.8s;
	animation:zk var(--t) linear forwards var(--d);
	stroke-dasharray:3337;
	stroke-dashoffset:3339;
	stroke-width:128;
	stroke-linecap:round;
	fill:none;
	stroke:#000;
}
svg.acjk path[id] {fill:#ccc;}
]]>
</style>
<path id="z25293d1" d="M355 340C368 336 382 332 399 327C424 319 437 312 441 309C447 303 447 296 444 292C439 283 425 278 406 276C388 273 373 275 358 282C324 296 324 296 307 303C241 330 186 339 146 349C121 354 117 364 138 373C166 385 204 382 306 354C339 345 339 345 355 340Z"/>
<path id="z25293d2" d="M303 544C303 608 300 680 299 762C298 778 293 788 285 795C280 798 255 798 209 788C186 783 177 779 179 787C180 790 186 798 201 809C242 840 269 865 280 885C292 906 303 918 315 919C322 919 334 908 344 885C356 854 361 813 359 766C354 678 352 593 352 507C352 485 352 485 352 474C352 429 352 384 355 340C357 301 357 301 358 282C360 229 361 179 378 136C386 114 374 99 340 83C315 72 299 66 287 71C275 75 273 84 285 100C299 117 306 138 307 161C307 182 307 255 307 303C306 337 306 337 306 354C305 395 303 445 303 503C303 530 303 530 303 544Z"/>
<path id="z25293d3" d="M352 507C394 475 417 456 420 452C425 443 423 439 416 440C406 440 385 454 352 474C319 493 319 493 303 503C239 540 178 575 122 611C99 625 79 632 64 638C54 641 50 647 49 653C48 658 52 665 63 676C75 686 88 694 106 699C115 701 124 698 132 691C161 660 216 609 303 544C336 519 336 519 352 507Z"/>
<path id="z25293d4" d="M581 402C597 385 667 243 732 179C744 166 745 153 733 144C719 134 699 129 677 126C656 122 641 123 633 129C624 134 623 140 629 149C641 168 633 216 603 290C587 327 570 365 554 406C551 414 576 409 581 402Z"/>
<path id="z25293d5" d="M520 409C506 399 491 391 478 386C473 384 468 384 465 388C460 391 461 397 466 406C497 469 506 570 500 709C498 731 504 753 514 776C533 825 547 805 556 771C558 759 556 748 556 737C554 702 551 669 547 602C546 583 546 583 545 573C541 527 545 484 546 445C546 430 532 418 520 409Z"/>
<path id="z25293d6" d="M758 757C763 781 764 797 781 828C797 859 812 844 825 814C846 762 851 703 853 636C854 593 857 547 860 500C861 467 870 440 886 421C896 407 898 396 890 388C875 373 851 361 821 348C807 342 791 342 770 351C727 367 612 397 581 402C563 405 563 405 554 406C542 407 531 409 520 409C505 409 532 450 546 445C552 441 622 426 756 401C770 398 782 399 788 407C809 439 807 537 790 675C788 690 784 716 777 730C773 740 756 746 758 757Z"/>
<path id="z25293d7" d="M547 602C560 608 578 599 728 580C746 577 752 570 745 561C737 550 723 542 703 538C681 533 628 545 545 573C536 577 537 600 547 602Z"/>
<path id="z25293d8" d="M556 771C569 773 609 765 758 757C769 757 785 738 777 730C772 725 766 720 758 715C747 708 731 707 711 711C654 721 602 730 556 737C545 739 545 771 556 771Z"/>
<defs>
	<clipPath id="z25293c1"><use href="#z25293d1"/></clipPath>
	<clipPath id="z25293c2"><use href="#z25293d2"/></clipPath>
	<clipPath id="z25293c3"><use href="#z25293d3"/></clipPath>
	<clipPath id="z25293c4"><use href="#z25293d4"/></clipPath>
	<clipPath id="z25293c5"><use href="#z25293d5"/></clipPath>
	<clipPath id="z25293c6"><use href="#z25293d6"/></clipPath>
	<clipPath id="z25293c7"><use href="#z25293d7"/></clipPath>
	<clipPath id="z25293c8"><use href="#z25293d8"/></clipPath>
</defs>
<path style="--d:1s;" pathLength="3333" clip-path="url(#z25293c1)" d="M131 359L439 294"/>
<path style="--d:2s;" pathLength="3333" clip-path="url(#z25293c2)" d="M286 82L342 130L328 779L302 865L186 788"/>
<path style="--d:3s;" pathLength="3333" clip-path="url(#z25293c3)" d="M55 655L111 659L417 446"/>
<path style="--d:4s;" pathLength="3333" clip-path="url(#z25293c4)" d="M633 138L688 173L561 402"/>
<path style="--d:5s;" pathLength="3333" clip-path="url(#z25293c5)" d="M468 394L516 455L538 799"/>
<path style="--d:6s;" pathLength="3333" clip-path="url(#z25293c6)" d="M526 417L776 373L845 410L793 837"/>
<path style="--d:7s;" pathLength="3333" clip-path="url(#z25293c7)" d="M542 588L742 566"/>
<path style="--d:8s;" pathLength="3333" clip-path="url(#z25293c8)" d="M551 759L774 739"/>
</svg>