<!--
AnimCJK 2016-2018 Copyright Francois Mizessyn, https://github.com/parsimonhi/animCJK
Derived from:
    MakeMeAHanzi project - https://github.com/skishore/makemeahanzi
    Arphic PL KaitiM GB - https://apps.ubuntu.com/cat/applications/precise/fonts-arphic-gkai00mp/
    Arphic PL UKai - https://apps.ubuntu.com/cat/applications/fonts-arphic-ukai/
You can redistribute and/or modify this file under the terms of the Arphic Public License
as published by Arphic Technology Co., Ltd.
You should have received a copy of this license (the directory "APL") along with this file;
if not, see http://ftp.gnu.org/non-gnu/chinese-fonts-truetype/LICENSE.
-->
<svg id="z25304" class="acjk" version="1.1" viewBox="0 0 1024 1024" xmlns="http://www.w3.org/2000/svg" xmlns:xlink="http://www.w3.org/1999/xlink">
<style>
<![CDATA[
@keyframes z25304k {
	from {
		stroke:#c00;
		stroke-dashoffset:3334;
	}
	75% {
		stroke:#c00;
		stroke-dashoffset:0;
	}
	to {
		stroke:#000;
	}
}
#z25304 path[clip-path] {
	animation:z25304k 1s linear both;
	stroke-dasharray:3334;
	stroke-width:128;
	stroke-linecap:round;
	fill:none;
}
#z25304 path[clip-path="url(#z25304c1)"] {animation-delay:1s;}
#z25304 path[clip-path="url(#z25304c2)"] {animation-delay:2s;}
#z25304 path[clip-path="url(#z25304c3)"] {animation-delay:3s;}
#z25304 path[clip-path="url(#z25304c4)"] {animation-delay:4s;}
#z25304 path[clip-path="url(#z25304c5)"] {animation-delay:5s;}
#z25304 path[clip-path="url(#z25304c6)"] {animation-delay:6s;}
#z25304 path[clip-path="url(#z25304c7)"] {animation-delay:7s;}
#z25304 path[clip-path="url(#z25304c8)"] {animation-delay:8s;}
#z25304 path {fill:#ccc;}
]]>
</style>
<path id="z25304d1" d="M332 375Q419 345 421 345Q430 336 424 328Q417 316 386 311Q359 307 335 317L285 337Q212 362 139 373Q102 382 130 397Q166 415 240 398Q259 392 284 387L332 375 Z"/>
<path id="z25304d2" d="M279 567Q276 654 274 763Q273 788 259 797Q253 800 197 787Q166 774 167 783Q168 790 186 807Q241 859 255 887Q270 920 285 923Q298 924 315 890Q334 844 335 771Q329 650 329 528L329 497Q329 436 332 375L335 317Q341 181 358 128Q374 98 320 75Q287 56 267 62Q251 69 265 92Q286 119 287 153Q288 172 285 337L284 387Q283 448 280 526L279 567 Z"/>
<path id="z25304d3" d="M329 528Q341 518 355 508Q374 495 385 480Q391 467 380 468Q362 469 329 497L280 526Q61 655 57 657Q41 657 37 673Q36 683 51 696Q70 712 94 719Q110 723 121 710Q158 668 279 567L329 528 Z"/>
<path id="z25304d4" d="M520 367Q529 354 541 341Q587 286 638 201Q659 161 678 142Q688 130 682 115Q678 102 645 77Q614 58 594 59Q573 62 583 85Q607 131 520 283Q480 353 422 430Q412 442 409 448Q406 461 421 457Q440 454 507 382L520 367 Z"/>
<path id="z25304d5" d="M507 382Q508 383 514 386Q559 407 590 397Q621 385 769 359Q793 355 803 366Q819 387 820 434Q821 674 772 816Q762 840 751 845Q744 848 670 818Q652 812 650 815Q646 822 661 838Q698 889 716 931Q734 959 751 956Q799 941 840 825Q865 744 887 479Q891 410 911 388Q930 366 906 347Q825 293 771 316Q636 352 520 367L507 382 Z"/>
<path id="z25304d6" d="M475 514L475 513Q465 506 430 499Q418 495 415 500Q408 506 416 521Q441 579 452 673Q453 701 469 720Q485 742 491 727Q495 715 495 695L493 664Q481 573 480 543L475 514 Z"/>
<path id="z25304d7" d="M634 649Q656 571 680 548Q705 523 681 507Q620 468 611 470Q602 470 595 475Q562 496 475 514L480 543Q490 542 502 540Q541 533 574 527Q596 523 601 532Q608 539 599 575Q592 606 581 642L634 649 Z"/>
<path id="z25304d8" d="M495 695Q502 696 512 694Q552 685 641 677Q651 676 652 667Q652 660 634 649L581 642L580 642Q532 655 493 664L495 695 Z"/>
<defs>
	<clipPath id="z25304c1"><use xlink:href="#z25304d1"/></clipPath>
	<clipPath id="z25304c2"><use xlink:href="#z25304d2"/></clipPath>
	<clipPath id="z25304c3"><use xlink:href="#z25304d3"/></clipPath>
	<clipPath id="z25304c4"><use xlink:href="#z25304d4"/></clipPath>
	<clipPath id="z25304c5"><use xlink:href="#z25304d5"/></clipPath>
	<clipPath id="z25304c6"><use xlink:href="#z25304d6"/></clipPath>
	<clipPath id="z25304c7"><use xlink:href="#z25304d7"/></clipPath>
	<clipPath id="z25304c8"><use xlink:href="#z25304d8"/></clipPath>
</defs>
<path pathLength="3333" clip-path="url(#z25304c1)" d="M125 383L421 333"/>
<path pathLength="3333" clip-path="url(#z25304c2)" d="M265 70L322 122L303 783L271 869L173 786"/>
<path pathLength="3333" clip-path="url(#z25304c3)" d="M44 673L96 680L379 475"/>
<path pathLength="3333" clip-path="url(#z25304c4)" d="M586 64L634 132L541 300L415 449"/>
<path pathLength="3333" clip-path="url(#z25304c5)" d="M514 378L790 334L868 385L796 845L747 902L657 819"/>
<path pathLength="3333" clip-path="url(#z25304c6)" d="M420 508L451 533L481 727"/>
<path pathLength="3333" clip-path="url(#z25304c7)" d="M481 516L604 500L647 527L609 645"/>
<path pathLength="3333" clip-path="url(#z25304c8)" d="M503 687L582 662L645 668"/>
</svg>