<!--
AnimCJK 2016-2019 Copyright Francois Mizessyn - https://github.com/parsimonhi/animCJK
Derived from:
    MakeMeAHanzi project - https://github.com/skishore/makemeahanzi
    Arphic PL KaitiM GB font
    Arphic PL UKai font
You can redistribute and/or modify this file under the terms of the Arphic Public License
as published by Arphic Technology Co., Ltd.
You should have received a copy of this license along with this file.
If not, see http://ftp.gnu.org/non-gnu/chinese-fonts-truetype/LICENSE.
-->
<svg id="z25306" class="acjk" version="1.1" viewBox="0 0 1024 1024" xmlns="http://www.w3.org/2000/svg" xmlns:xlink="http://www.w3.org/1999/xlink">
<style>
<![CDATA[
@keyframes zk {
	to {
		stroke-dashoffset:0;
	}
}
svg.acjk path[clip-path] {
	--t:0.8s;
	animation:zk var(--t) linear forwards var(--d);
	stroke-dasharray:3337;
	stroke-dashoffset:3339;
	stroke-width:128;
	stroke-linecap:round;
	fill:none;
	stroke:#000;
}
svg.acjk path[id] {fill:#ccc;}
]]>
</style>
<path id="z25306d1" d="M323 344Q390 326 396 321Q405 312 400 304Q393 292 362 286Q343 282 325 287C291 299 291 299 274 305Q193 330 120 342Q83 349 110 365Q155 389 211 372Q239 365 273 357C306 348 306 348 323 344Z"/>
<path id="z25306d2" d="M272 533Q271 629 270 753Q269 775 257 784Q250 791 228 786Q204 782 181 780Q148 770 151 780Q152 787 173 800Q237 846 254 874Q273 905 289 906Q302 907 317 872Q333 827 330 754Q321 624 321 493C321 472 321 472 321 461Q320 403 323 344C324 306 324 306 325 287Q329 206 342 163Q360 133 304 111Q270 92 251 99Q233 106 249 129Q271 156 272 190Q273 203 274 305C273 340 273 340 273 357Q273 412 272 489C272 518 272 518 272 533Z"/>
<path id="z25306d3" d="M272 489Q196 532 129 575Q95 596 72 603Q59 609 57 617Q56 627 71 640Q90 656 114 663Q126 666 146 648Q182 606 272 533C305 506 305 506 321 493Q333 483 346 473Q364 461 373 448Q379 435 368 436Q352 437 321 461C288 480 288 480 272 489Z"/>
<path id="z25306d4" d="M734 283Q652 293 564 313Q554 317 550 313Q549 310 554 300Q654 155 677 131Q689 121 682 109Q675 96 628 75Q612 68 602 72Q590 78 596 98Q614 156 512 287Q493 306 464 327Q451 339 454 350Q458 366 484 386Q494 396 508 386Q563 347 755 307C765 305 744 281 734 283Z"/>
<path id="z25306d5" d="M755 307Q770 323 786 343Q796 356 812 358Q822 359 829 347Q836 334 831 304Q824 265 725 225Q710 219 704 221Q700 224 699 237Q699 238 734 283C748 299 748 299 755 307Z"/>
<path id="z25306d6" d="M755 534Q819 528 903 526Q966 526 972 516Q978 503 961 490Q901 451 843 470Q803 477 756 489C722 496 722 496 705 500Q675 503 568 523C533 529 533 529 515 532Q448 541 376 553Q355 556 371 573Q401 600 441 591Q475 579 515 571C548 564 548 564 565 560Q626 547 706 539C739 536 739 536 755 534Z"/>
<path id="z25306d7" d="M568 523Q568 520 569 519Q569 494 577 471Q584 455 568 448Q523 424 500 434Q488 438 496 452Q508 467 514 519Q514 525 515 532C515 558 515 558 515 571Q506 697 405 799Q396 806 389 815Q379 825 390 825Q441 819 494 754Q563 679 565 560C567 535 567 535 568 523Z"/>
<path id="z25306d8" d="M706 539Q706 777 688 833Q675 888 732 947Q733 948 736 950Q749 951 754 938Q760 917 761 829Q755 693 755 534C756 504 756 504 756 489Q757 455 761 435Q764 422 756 415Q731 394 711 384Q698 380 688 389Q682 393 690 403Q699 418 705 500C706 526 706 526 706 539Z"/>
<defs>
	<clipPath id="z25306c1"><use xlink:href="#z25306d1"/></clipPath>
	<clipPath id="z25306c2"><use xlink:href="#z25306d2"/></clipPath>
	<clipPath id="z25306c3"><use xlink:href="#z25306d3"/></clipPath>
	<clipPath id="z25306c4"><use xlink:href="#z25306d4"/></clipPath>
	<clipPath id="z25306c5"><use xlink:href="#z25306d5"/></clipPath>
	<clipPath id="z25306c6"><use xlink:href="#z25306d6"/></clipPath>
	<clipPath id="z25306c7"><use xlink:href="#z25306d7"/></clipPath>
	<clipPath id="z25306c8"><use xlink:href="#z25306d8"/></clipPath>
</defs>
<path style="--d:1s;" pathLength="3333" clip-path="url(#z25306c1)" d="M106 353L397 309"/>
<path style="--d:2s;" pathLength="3333" clip-path="url(#z25306c2)" d="M249 106L308 160L299 775L272 854L158 780"/>
<path style="--d:3s;" pathLength="3333" clip-path="url(#z25306c3)" d="M63 615L128 618L367 443"/>
<path style="--d:4s;" pathLength="3333" clip-path="url(#z25306c4)" d="M605 81L640 128L506 339L526 352L744 303"/>
<path style="--d:5s;" pathLength="3333" clip-path="url(#z25306c5)" d="M708 225L821 351"/>
<path style="--d:6s;" pathLength="3333" clip-path="url(#z25306c6)" d="M370 561L434 568L864 496L969 505"/>
<path style="--d:7s;" pathLength="3333" clip-path="url(#z25306c7)" d="M500 437L543 471L527 644L467 756L391 819"/>
<path style="--d:8s;" pathLength="3333" clip-path="url(#z25306c8)" d="M697 393L730 434L723 861L740 942"/>
</svg>