<!--
AnimCJK 2016-2017 Copyright Francois Mizessyn, http://gooo.free.fr/animCJK/
Derived from:
    MakeMeAHanzi project - https://github.com/skishore/makemeahanzi
    Arphic PL KaitiM GB - https://apps.ubuntu.com/cat/applications/precise/fonts-arphic-gkai00mp/
    Arphic PL UKai - https://apps.ubuntu.com/cat/applications/fonts-arphic-ukai/
You can redistribute and/or modify this file under the terms of the Arphic Public License
as published by Arphic Technology Co., Ltd.
You should have received a copy of this license (the directory "APL") along with this file;
if not, see http://ftp.gnu.org/non-gnu/chinese-fonts-truetype/LICENSE.
-->
<svg id="z25300" class="acjk" version="1.1" viewBox="0 0 1024 1024" xmlns="http://www.w3.org/2000/svg" xmlns:xlink="http://www.w3.org/1999/xlink">
<style>
<![CDATA[
	@keyframes z25300k {
		from {
			stroke:#c00;
			stroke-dashoffset:3000;
		}
		75% {
			stroke:#c00;
			stroke-dashoffset:0;
		}
		to {
			stroke:#000;
		}
	}
	#z25300 path[clip-path] {
		animation:z25300k 1s linear both;
		stroke-dasharray:3000;
		stroke-width:128;
		stroke-linecap:round;
		fill:none;
	}
	#z25300 path[clip-path="url(#z25300c1)"] {animation-delay:1s;}
	#z25300 path[clip-path="url(#z25300c2)"] {animation-delay:2s;}
	#z25300 path[clip-path="url(#z25300c3)"] {animation-delay:3s;}
	#z25300 path[clip-path="url(#z25300c4)"] {animation-delay:4s;}
	#z25300 path[clip-path="url(#z25300c5)"] {animation-delay:5s;}
	#z25300 path[clip-path="url(#z25300c6)"] {animation-delay:6s;}
	#z25300 path[clip-path="url(#z25300c7)"] {animation-delay:7s;}
	#z25300 path[clip-path="url(#z25300c8)"] {animation-delay:8s;}
	#z25300 path {fill:#ccc;}
]]>
</style>
<g transform="scale(1,-1) translate(0,-900)">
	<path id="z25300d1" d="M327 530Q346 537 371 543Q405 553 409 559Q418 568 412 576Q405 588 374 592Q352 595 330 587L279 566Q177 536 134 527Q97 517 126 503Q162 487 236 504Q255 510 278 516L327 530Z"/>
	<path id="z25300d2" d="M274 323Q273 236 271 129Q270 105 257 97Q251 91 181 104Q148 114 151 105Q152 98 173 83Q236 35 252 7Q271 -26 287 -27Q300 -28 316 7Q334 53 331 126Q324 244 324 364L324 397Q324 464 327 530L330 587Q330 669 350 736Q366 767 312 789Q278 808 259 801Q241 795 257 772Q279 745 279 711Q280 695 279 566L278 516Q277 452 275 366L274 323Z"/>
	<path id="z25300d3" d="M324 364Q385 415 389 420Q395 433 384 432Q375 432 324 397L275 366Q191 315 118 266Q85 247 64 239Q52 233 50 225Q50 216 64 203Q83 190 105 182Q120 178 130 191Q199 266 274 323L324 364Z"/>
	<path id="z25300d4" d="M598 503Q818 555 827 563Q836 572 831 580Q824 592 794 599Q763 605 733 592Q672 570 608 551L549 538Q498 529 445 522Q408 515 435 498Q480 474 535 489Q536 490 540 489L598 503Z"/>
	<path id="z25300d5" d="M563 381Q581 429 598 503L608 551Q623 666 640 716Q650 731 642 745Q626 764 594 780Q575 793 561 788Q548 781 554 766Q572 738 568 677Q565 661 563 640Q557 588 549 538L540 489Q501 309 357 104Q351 97 348 91Q345 79 356 81Q390 88 477 204Q513 261 523 284L533 307Q543 331 554 355L563 381Z"/>
	<path id="z25300d6" d="M632 160Q625 153 618 143Q566 91 429 50Q413 46 423 38Q430 32 459 36Q594 51 663 119L696 161Q739 221 766 317Q773 351 793 368Q809 383 790 398Q771 414 737 427Q715 434 694 423Q645 395 573 383Q567 383 563 381L554 355Q575 349 688 378Q707 385 708 362Q708 286 658 196L632 160Z"/>
	<path id="z25300d7" d="M523 284Q560 260 632 160L663 119Q765 -1 812 -8Q833 -8 932 7Q945 8 957 14Q964 21 954 29Q939 38 825 79Q761 101 696 161L658 196Q624 233 584 280Q566 302 536 307Q535 308 533 307L523 284Z"/>
	<path id="z25300d8" d="M732 747Q722 748 719 743Q715 736 723 727Q780 652 818 642Q825 641 830 644Q834 648 838 663Q841 678 836 692Q826 722 762 739Q743 746 732 747Z"/>
	<defs>
		<clipPath id="z25300c1"><use xlink:href="#z25300d1"/></clipPath>
		<clipPath id="z25300c2"><use xlink:href="#z25300d2"/></clipPath>
		<clipPath id="z25300c3"><use xlink:href="#z25300d3"/></clipPath>
		<clipPath id="z25300c4"><use xlink:href="#z25300d4"/></clipPath>
		<clipPath id="z25300c5"><use xlink:href="#z25300d5"/></clipPath>
		<clipPath id="z25300c6"><use xlink:href="#z25300d6"/></clipPath>
		<clipPath id="z25300c7"><use xlink:href="#z25300d7"/></clipPath>
		<clipPath id="z25300c8"><use xlink:href="#z25300d8"/></clipPath>
	</defs>
	<path pathLength="2999" clip-path="url(#z25300c1)" d="M124 514L408 572"/>
	<path pathLength="2999" clip-path="url(#z25300c2)" d="M257 793L315 737L300 109L273 25L161 103"/>
	<path pathLength="2999" clip-path="url(#z25300c3)" d="M56 227L113 221L384 425"/>
	<path pathLength="2999" clip-path="url(#z25300c4)" d="M430 513L517 509L828 574"/>
	<path pathLength="2999" clip-path="url(#z25300c5)" d="M558 782L606 730L557 448L474 246L355 88"/>
	<path pathLength="2999" clip-path="url(#z25300c6)" d="M559 362L709 404L745 387L711 244L610 106L428 44"/>
	<path pathLength="2999" clip-path="url(#z25300c7)" d="M536 299L774 58L954 19"/>
	<path pathLength="2999" clip-path="url(#z25300c8)" d="M725 740L834 657"/>
</g>
</svg>