<!--
AnimCJK 2016-2017 Copyright Francois Mizessyn, http://gooo.free.fr/animCJK/
Derived from:
    MakeMeAHanzi project - https://github.com/skishore/makemeahanzi
    Arphic PL KaitiM GB - https://apps.ubuntu.com/cat/applications/precise/fonts-arphic-gkai00mp/
    Arphic PL UKai - https://apps.ubuntu.com/cat/applications/fonts-arphic-ukai/
You can redistribute and/or modify this file under the terms of the Arphic Public License
as published by Arphic Technology Co., Ltd.
You should have received a copy of this license (the directory "APL") along with this file;
if not, see http://ftp.gnu.org/non-gnu/chinese-fonts-truetype/LICENSE.
-->
<svg id="z25317" class="acjk" version="1.1" viewBox="0 0 1024 1024" xmlns="http://www.w3.org/2000/svg" xmlns:xlink="http://www.w3.org/1999/xlink">
<style>
<![CDATA[
	@keyframes z25317k {
		from {
			stroke:#c00;
			stroke-dashoffset:3000;
		}
		75% {
			stroke:#c00;
			stroke-dashoffset:0;
		}
		to {
			stroke:#000;
		}
	}
	#z25317 path[clip-path] {
		animation:z25317k 1s linear both;
		stroke-dasharray:3000;
		stroke-width:128;
		stroke-linecap:round;
		fill:none;
	}
	#z25317 path[clip-path="url(#z25317c1)"] {animation-delay:1s;}
	#z25317 path[clip-path="url(#z25317c2)"] {animation-delay:2s;}
	#z25317 path[clip-path="url(#z25317c3)"] {animation-delay:3s;}
	#z25317 path[clip-path="url(#z25317c4)"] {animation-delay:4s;}
	#z25317 path[clip-path="url(#z25317c5)"] {animation-delay:5s;}
	#z25317 path[clip-path="url(#z25317c6)"] {animation-delay:6s;}
	#z25317 path[clip-path="url(#z25317c7)"] {animation-delay:7s;}
	#z25317 path[clip-path="url(#z25317c8)"] {animation-delay:8s;}
	#z25317 path {fill:#ccc;}
]]>
</style>
<g transform="scale(1,-1) translate(0,-900)">
	<path id="z25317d1" d="M324 546Q396 568 401 573Q408 580 404 589Q397 599 367 604Q345 607 326 600L278 581Q202 554 142 545Q108 536 134 522Q179 504 232 520Q251 527 277 532L324 546Z"/>
	<path id="z25317d2" d="M273 332Q272 244 271 131Q270 109 258 99Q251 95 184 107Q153 119 155 109Q156 102 176 88Q237 40 253 13Q271 -18 286 -20Q299 -21 314 13Q330 56 329 126Q322 249 321 370L321 401Q321 474 324 546L326 600Q326 685 345 747Q361 775 308 797Q277 815 257 809Q241 802 256 780Q275 755 277 722Q278 706 278 581L277 532Q276 465 274 374L273 332Z"/>
	<path id="z25317d3" d="M274 374Q195 329 127 285Q94 266 72 259Q60 253 59 245Q58 236 72 223Q91 210 113 202Q128 198 138 210Q160 235 273 332L321 370Q336 383 353 395Q372 407 381 420Q387 433 376 432Q361 431 321 401L274 374Z"/>
	<path id="z25317d4" d="M496 654Q457 678 437 668Q427 661 434 648Q450 630 458 580Q458 561 459 539Q466 388 439 262Q415 163 352 42Q348 35 346 29Q345 19 355 22Q367 23 400 74Q514 224 514 564Q514 591 518 616L496 654Z"/>
	<path id="z25317d5" d="M654 642Q700 652 756 660Q780 663 791 649Q804 642 812 579Q834 368 829 126Q829 90 816 80Q800 68 717 90Q701 93 702 83Q703 76 716 70Q789 24 829 -13Q851 -32 863 -29Q876 -25 885 3Q900 49 896 115Q857 584 875 625Q888 655 880 665Q868 680 821 703Q802 712 728 692Q601 667 496 654L518 616Q525 616 534 617Q567 626 606 633L654 642Z"/>
	<path id="z25317d6" d="M677 440Q716 449 751 454Q775 458 765 472Q753 487 727 491Q708 492 678 485L630 469Q587 456 547 442Q529 438 552 423Q559 417 630 430L677 440Z"/>
	<path id="z25317d7" d="M675 290Q723 300 766 306Q791 310 781 324Q771 339 743 344Q718 347 675 335L628 321Q574 308 527 294Q511 290 532 274Q538 270 627 282L675 290Z"/>
	<path id="z25317d8" d="M628 62Q632 40 639 31Q643 24 651 26Q663 35 670 88Q674 136 675 290L675 335Q675 380 677 440L678 485Q678 542 689 603Q692 619 679 628Q664 638 654 642L606 633Q630 585 630 520Q630 496 630 469L630 430Q629 381 628 321L627 282Q620 147 628 62Z"/>
	<defs>
		<clipPath id="z25317c1"><use xlink:href="#z25317d1"/></clipPath>
		<clipPath id="z25317c2"><use xlink:href="#z25317d2"/></clipPath>
		<clipPath id="z25317c3"><use xlink:href="#z25317d3"/></clipPath>
		<clipPath id="z25317c4"><use xlink:href="#z25317d4"/></clipPath>
		<clipPath id="z25317c5"><use xlink:href="#z25317d5"/></clipPath>
		<clipPath id="z25317c6"><use xlink:href="#z25317d6"/></clipPath>
		<clipPath id="z25317c7"><use xlink:href="#z25317d7"/></clipPath>
		<clipPath id="z25317c8"><use xlink:href="#z25317d8"/></clipPath>
	</defs>
	<path pathLength="2999" clip-path="url(#z25317c1)" d="M131 533L401 587"/>
	<path pathLength="2999" clip-path="url(#z25317c2)" d="M256 800L312 743L299 112L271 31L162 108"/>
	<path pathLength="2999" clip-path="url(#z25317c3)" d="M64 249L120 240L374 427"/>
	<path pathLength="2999" clip-path="url(#z25317c4)" d="M438 662L485 610L475 335L433 174L354 30"/>
	<path pathLength="2999" clip-path="url(#z25317c5)" d="M505 649L777 682L842 644L856 66L835 23L710 83"/>
	<path pathLength="2999" clip-path="url(#z25317c6)" d="M550 434L762 464"/>
	<path pathLength="2999" clip-path="url(#z25317c7)" d="M531 283L779 318"/>
	<path pathLength="2999" clip-path="url(#z25317c8)" d="M615 631L656 590L648 34"/>
</g>
</svg>