<!--
AnimCJK 2016-2018 Copyright Francois Mizessyn, https://github.com/parsimonhi/animCJK
Derived from:
    MakeMeAHanzi project - https://github.com/skishore/makemeahanzi
    Arphic PL KaitiM GB - https://apps.ubuntu.com/cat/applications/precise/fonts-arphic-gkai00mp/
    Arphic PL UKai - https://apps.ubuntu.com/cat/applications/fonts-arphic-ukai/
You can redistribute and/or modify this file under the terms of the Arphic Public License
as published by Arphic Technology Co., Ltd.
You should have received a copy of this license (the directory "APL") along with this file;
if not, see http://ftp.gnu.org/non-gnu/chinese-fonts-truetype/LICENSE.
-->
<svg id="z25332" class="acjk" version="1.1" viewBox="0 0 1024 1024" xmlns="http://www.w3.org/2000/svg" xmlns:xlink="http://www.w3.org/1999/xlink">
<style>
<![CDATA[
@keyframes z25332k {
	from {
		stroke:#c00;
		stroke-dashoffset:3334;
	}
	75% {
		stroke:#c00;
		stroke-dashoffset:0;
	}
	to {
		stroke:#000;
	}
}
#z25332 path[clip-path] {
	animation:z25332k 1s linear both;
	stroke-dasharray:3334;
	stroke-width:128;
	stroke-linecap:round;
	fill:none;
}
#z25332 path[clip-path="url(#z25332c1)"] {animation-delay:1s;}
#z25332 path[clip-path="url(#z25332c2)"] {animation-delay:2s;}
#z25332 path[clip-path="url(#z25332c3)"] {animation-delay:3s;}
#z25332 path[clip-path="url(#z25332c4)"] {animation-delay:4s;}
#z25332 path[clip-path="url(#z25332c5)"] {animation-delay:5s;}
#z25332 path[clip-path="url(#z25332c6)"] {animation-delay:6s;}
#z25332 path[clip-path="url(#z25332c7)"] {animation-delay:7s;}
#z25332 path[clip-path="url(#z25332c8)"] {animation-delay:8s;}
#z25332 path[clip-path="url(#z25332c9)"] {animation-delay:9s;}
#z25332 path {fill:#ccc;}
]]>
</style>
<path id="z25332d1" d="M326 402Q344 396 363 392Q399 382 404 377Q413 368 408 360Q401 348 370 342Q348 338 329 344L281 362Q172 393 116 402Q79 409 106 425Q151 449 216 429Q246 420 279 414L326 402 Z"/>
<path id="z25332d2" d="M274 563Q271 656 267 775Q266 799 253 807Q247 811 183 794Q153 781 155 791Q156 798 174 813Q232 865 246 893Q262 926 278 928Q291 929 307 896Q326 853 326 782Q322 652 322 522L323 491Q323 445 326 402L329 344Q335 215 352 162Q368 134 316 111Q285 92 266 99Q248 105 263 127Q282 152 284 186Q285 205 281 362L279 414Q278 462 275 522L274 563 Z"/>
<path id="z25332d3" d="M275 522Q46 661 44 670Q43 680 59 693Q78 708 103 714Q113 717 138 694Q187 636 274 563L322 522Q328 516 335 511Q353 498 361 484Q367 471 356 472Q344 473 323 491L275 522 Z"/>
<path id="z25332d4" d="M634 228Q647 206 661 193Q670 181 664 168Q660 155 630 133Q602 115 583 116Q564 119 573 141Q588 172 577 199Q543 290 491 375Q440 457 370 548Q360 560 358 566Q355 576 369 574Q429 559 590 306Q611 261 620 251L634 228 Z"/>
<path id="z25332d5" d="M620 251Q696 363 797 480Q815 499 844 499Q946 495 977 490Q987 489 988 483Q988 479 975 471Q830 414 766 357Q703 302 634 228L620 251 Z"/>
<path id="z25332d6" d="M614 536Q662 523 713 513Q743 506 748 501Q757 492 752 484Q745 472 714 465Q690 462 596 491Q509 507 493 510Q456 517 483 534Q517 549 566 547L614 536 Z"/>
<path id="z25332d7" d="M628 689Q752 664 759 659Q768 652 763 644Q756 632 728 625Q704 619 630 642L576 655Q533 664 481 668Q447 674 471 690Q510 714 576 699L628 689 Z"/>
<path id="z25332d8" d="M623 820Q624 750 628 689L630 642Q631 621 632 602Q636 556 631 550Q622 541 614 536L566 547Q567 548 568 550Q572 566 576 655L576 699Q576 748 578 824L623 820 Z"/>
<path id="z25332d9" d="M578 824Q490 833 393 843Q372 844 387 861Q400 874 417 881Q438 887 453 883Q636 840 864 858Q864 857 866 858Q885 859 890 850Q896 840 880 825Q828 785 767 798Q709 807 623 820L578 824 Z"/>
<defs>
	<clipPath id="z25332c1"><use xlink:href="#z25332d1"/></clipPath>
	<clipPath id="z25332c2"><use xlink:href="#z25332d2"/></clipPath>
	<clipPath id="z25332c3"><use xlink:href="#z25332d3"/></clipPath>
	<clipPath id="z25332c4"><use xlink:href="#z25332d4"/></clipPath>
	<clipPath id="z25332c5"><use xlink:href="#z25332d5"/></clipPath>
	<clipPath id="z25332c6"><use xlink:href="#z25332d6"/></clipPath>
	<clipPath id="z25332c7"><use xlink:href="#z25332d7"/></clipPath>
	<clipPath id="z25332c8"><use xlink:href="#z25332d8"/></clipPath>
	<clipPath id="z25332c9"><use xlink:href="#z25332d9"/></clipPath>
</defs>
<path pathLength="3333" clip-path="url(#z25332c1)" d="M102 413L405 366"/>
<path pathLength="3333" clip-path="url(#z25332c2)" d="M263 107L318 155L294 806L262 874L163 792"/>
<path pathLength="3333" clip-path="url(#z25332c3)" d="M50 671L101 675L354 479"/>
<path pathLength="3333" clip-path="url(#z25332c4)" d="M579 124L621 184L481 431L364 567"/>
<path pathLength="3333" clip-path="url(#z25332c5)" d="M638 240L817 443L982 482"/>
<path pathLength="3333" clip-path="url(#z25332c6)" d="M481 522L747 488"/>
<path pathLength="3333" clip-path="url(#z25332c7)" d="M468 676L759 649"/>
<path pathLength="3333" clip-path="url(#z25332c8)" d="M572 548L603 578L599 821"/>
<path pathLength="3333" clip-path="url(#z25332c9)" d="M387 849L442 861L779 824L887 838"/>
</svg>