<!--
AnimCJK 2016-2019 Copyright Francois Mizessyn - https://github.com/parsimonhi/animCJK
Derived from:
    MakeMeAHanzi project - https://github.com/skishore/makemeahanzi
    Arphic PL KaitiM GB font
    Arphic PL UKai font
You can redistribute and/or modify this file under the terms of the Arphic Public License
as published by Arphic Technology Co., Ltd.
You should have received a copy of this license along with this file.
If not, see http://ftp.gnu.org/non-gnu/chinese-fonts-truetype/LICENSE.
-->
<svg id="z25332" class="acjk" version="1.1" viewBox="0 0 1024 1024" xmlns="http://www.w3.org/2000/svg" xmlns:xlink="http://www.w3.org/1999/xlink">
<style>
<![CDATA[
@keyframes zk {
	to {
		stroke-dashoffset:0;
	}
}
svg.acjk path[clip-path] {
	--t:0.8s;
	animation:zk var(--t) linear forwards var(--d);
	stroke-dasharray:3337;
	stroke-dashoffset:3339;
	stroke-width:128;
	stroke-linecap:round;
	fill:none;
	stroke:#000;
}
svg.acjk path[id] {fill:#ccc;}
]]>
</style>
<path id="z25332d1" d="M326 402Q344 396 363 392Q399 382 404 377Q413 368 408 360Q401 348 370 342Q348 338 329 344C297 356 297 356 281 362Q172 393 116 402Q79 409 106 425Q151 449 216 429Q246 420 279 414C310 406 310 406 326 402Z"/>
<path id="z25332d2" d="M274 563Q271 656 267 775Q266 799 253 807Q247 811 183 794Q153 781 155 791Q156 798 174 813Q232 865 246 893Q262 926 278 928Q291 929 307 896Q326 853 326 782Q322 652 322 522C323 501 323 501 323 491Q323 445 326 402C328 363 328 363 329 344Q335 215 352 162Q368 134 316 111Q285 92 266 99Q248 105 263 127Q282 152 284 186Q285 205 281 362C280 397 280 397 279 414Q278 462 275 522C274 549 274 549 274 563Z"/>
<path id="z25332d3" d="M275 522Q46 661 44 670Q43 680 59 693Q78 708 103 714Q113 717 138 694Q187 636 274 563C306 536 306 536 322 522Q328 516 335 511Q353 498 361 484Q367 471 356 472Q344 473 323 491C291 512 291 512 275 522Z"/>
<path id="z25332d4" d="M634 228Q647 206 661 193Q670 181 664 168Q660 155 630 133Q602 115 583 116Q564 119 573 141Q588 172 577 199Q543 290 491 375Q440 457 370 548Q360 560 358 566Q355 576 369 574Q429 559 590 306Q611 261 620 251C629 236 629 236 634 228Z"/>
<path id="z25332d5" d="M620 251Q696 363 797 480Q815 499 844 499Q946 495 977 490Q987 489 988 483Q988 479 975 471Q830 414 766 357Q703 302 634 228C628 221 615 244 620 251Z"/>
<path id="z25332d6" d="M614 536Q662 523 713 513Q743 506 748 501Q757 492 752 484Q745 472 714 465Q690 462 596 491Q509 507 493 510Q456 517 483 534Q517 549 566 547C598 540 598 540 614 536Z"/>
<path id="z25332d7" d="M628 689Q752 664 759 659Q768 652 763 644Q756 632 728 625Q704 619 630 642C594 651 594 651 576 655Q533 664 481 668Q447 674 471 690Q510 714 576 699C611 692 611 692 628 689Z"/>
<path id="z25332d8" d="M623 820Q624 750 628 689C629 658 629 658 630 642Q631 621 632 602Q636 556 631 550Q622 541 614 536C600 528 558 533 566 547Q567 548 568 550Q572 566 576 655C576 684 576 684 576 699Q576 748 578 824C578 839 623 835 623 820Z"/>
<path id="z25332d9" d="M578 824Q490 833 393 843Q372 844 387 861Q400 874 417 881Q438 887 453 883Q636 840 864 858Q864 857 866 858Q885 859 890 850Q896 840 880 825Q828 785 767 798Q709 807 623 820C593 823 593 823 578 824Z"/>
<defs>
	<clipPath id="z25332c1"><use xlink:href="#z25332d1"/></clipPath>
	<clipPath id="z25332c2"><use xlink:href="#z25332d2"/></clipPath>
	<clipPath id="z25332c3"><use xlink:href="#z25332d3"/></clipPath>
	<clipPath id="z25332c4"><use xlink:href="#z25332d4"/></clipPath>
	<clipPath id="z25332c5"><use xlink:href="#z25332d5"/></clipPath>
	<clipPath id="z25332c6"><use xlink:href="#z25332d6"/></clipPath>
	<clipPath id="z25332c7"><use xlink:href="#z25332d7"/></clipPath>
	<clipPath id="z25332c8"><use xlink:href="#z25332d8"/></clipPath>
	<clipPath id="z25332c9"><use xlink:href="#z25332d9"/></clipPath>
</defs>
<path style="--d:1s;" pathLength="3333" clip-path="url(#z25332c1)" d="M102 413L405 366"/>
<path style="--d:2s;" pathLength="3333" clip-path="url(#z25332c2)" d="M263 107L318 155L294 806L262 874L163 792"/>
<path style="--d:3s;" pathLength="3333" clip-path="url(#z25332c3)" d="M50 671L101 675L354 479"/>
<path style="--d:4s;" pathLength="3333" clip-path="url(#z25332c4)" d="M579 124L621 184L481 431L364 567"/>
<path style="--d:5s;" pathLength="3333" clip-path="url(#z25332c5)" d="M638 240L817 443L982 482"/>
<path style="--d:6s;" pathLength="3333" clip-path="url(#z25332c6)" d="M481 522L747 488"/>
<path style="--d:7s;" pathLength="3333" clip-path="url(#z25332c7)" d="M468 676L759 649"/>
<path style="--d:8s;" pathLength="3333" clip-path="url(#z25332c8)" d="M572 548L603 578L599 821"/>
<path style="--d:9s;" pathLength="3333" clip-path="url(#z25332c9)" d="M387 849L442 861L779 824L887 838"/>
</svg>