<!--
AnimCJK 2016-2017 Copyright Francois Mizessyn, http://gooo.free.fr/animCJK/
Derived from:
    MakeMeAHanzi project - https://github.com/skishore/makemeahanzi
    Arphic PL KaitiM GB - https://apps.ubuntu.com/cat/applications/precise/fonts-arphic-gkai00mp/
    Arphic PL UKai - https://apps.ubuntu.com/cat/applications/fonts-arphic-ukai/
You can redistribute and/or modify this file under the terms of the Arphic Public License
as published by Arphic Technology Co., Ltd.
You should have received a copy of this license (the directory "APL") along with this file;
if not, see http://ftp.gnu.org/non-gnu/chinese-fonts-truetype/LICENSE.
-->
<svg id="z25331" class="acjk" version="1.1" viewBox="0 0 1024 1024" xmlns="http://www.w3.org/2000/svg" xmlns:xlink="http://www.w3.org/1999/xlink">
<style>
<![CDATA[
	@keyframes z25331k {
		from {
			stroke:#c00;
			stroke-dashoffset:3000;
		}
		75% {
			stroke:#c00;
			stroke-dashoffset:0;
		}
		to {
			stroke:#000;
		}
	}
	#z25331 path[clip-path] {
		animation:z25331k 1s linear both;
		stroke-dasharray:3000;
		stroke-width:128;
		stroke-linecap:round;
		fill:none;
	}
	#z25331 path[clip-path="url(#z25331c1)"] {animation-delay:1s;}
	#z25331 path[clip-path="url(#z25331c2)"] {animation-delay:2s;}
	#z25331 path[clip-path="url(#z25331c3)"] {animation-delay:3s;}
	#z25331 path[clip-path="url(#z25331c4)"] {animation-delay:4s;}
	#z25331 path[clip-path="url(#z25331c5)"] {animation-delay:5s;}
	#z25331 path[clip-path="url(#z25331c6)"] {animation-delay:6s;}
	#z25331 path[clip-path="url(#z25331c7)"] {animation-delay:7s;}
	#z25331 path[clip-path="url(#z25331c8)"] {animation-delay:8s;}
	#z25331 path[clip-path="url(#z25331c9)"] {animation-delay:9s;}
	#z25331 path[clip-path="url(#z25331c10)"] {animation-delay:10s;}
	#z25331 path {fill:#ccc;}
]]>
</style>
<g transform="scale(1,-1) translate(0,-900)">
	<path id="z25331d1" d="M303 752Q342 704 366 693Q379 690 388 701Q394 711 392 727Q385 763 316 785Q303 789 293 787Q289 786 290 775Q291 765 303 752Z"/>
	<path id="z25331d2" d="M626 809Q611 787 563 737Q553 722 569 724Q671 775 701 785Q720 792 713 809Q703 825 680 841Q661 856 648 854Q636 854 639 842Q640 824 626 809Z"/>
	<path id="z25331d3" d="M476 615Q546 628 621 640Q673 650 682 657Q691 664 686 672Q680 685 652 692Q624 699 594 689Q542 674 490 662L438 652Q378 643 315 639Q279 635 304 617Q343 593 401 604Q411 607 423 606L476 615Z"/>
	<path id="z25331d4" d="M598 517Q655 520 791 521Q810 521 815 530Q821 540 804 554Q756 591 717 583Q632 565 483 543Q465 542 447 537L390 530Q297 520 196 505Q175 504 191 487Q204 474 222 468Q241 464 258 468Q310 483 369 492L429 501Q507 513 567 515L598 517Z"/>
	<path id="z25331d5" d="M447 537Q463 574 476 615L490 662Q520 759 542 791Q554 807 538 819Q495 862 465 856Q450 853 455 837Q473 782 438 652L423 606Q410 570 390 530L369 492Q276 345 116 268Q100 258 82 248Q67 241 80 236Q155 230 269 314Q339 360 376 416Q418 482 429 501L447 537Z"/>
	<path id="z25331d6" d="M567 515Q667 400 779 293Q800 271 835 269Q899 265 968 278Q984 279 987 284Q988 290 975 296Q771 375 689 439Q665 457 598 517L567 515Z"/>
	<path id="z25331d7" d="M498 376Q528 391 587 400Q600 400 605 406Q608 415 599 424Q554 460 526 461Q519 458 519 449Q513 416 349 354Q345 347 349 344Q370 344 435 360Q450 363 469 365L498 376Z"/>
	<path id="z25331d8" d="M545 273Q645 294 650 297Q657 304 654 310Q648 320 625 327Q600 333 541 312L491 299Q484 299 479 297Q422 287 356 281Q326 277 347 263Q377 245 453 258Q472 262 496 264L545 273Z"/>
	<path id="z25331d9" d="M552 170Q615 174 776 175Q794 175 799 183Q803 193 789 207Q732 249 688 231Q631 221 550 207L502 199Q495 200 487 198Q364 182 220 165Q201 162 214 147Q227 134 244 129Q263 125 279 128Q397 159 504 166L552 170Z"/>
	<path id="z25331d10" d="M504 166Q507 78 489 48Q488 44 483 42Q468 36 376 52Q369 52 366 49Q365 45 374 38Q438 -11 474 -48Q486 -60 493 -57Q502 -57 518 -42Q554 -9 554 69Q554 105 552 170L550 207Q547 250 545 273L541 312Q540 325 540 336Q540 355 528 362Q512 372 498 376L469 365Q481 350 491 299L496 264Q502 228 502 199L504 166Z"/>
	<defs>
		<clipPath id="z25331c1"><use xlink:href="#z25331d1"/></clipPath>
		<clipPath id="z25331c2"><use xlink:href="#z25331d2"/></clipPath>
		<clipPath id="z25331c3"><use xlink:href="#z25331d3"/></clipPath>
		<clipPath id="z25331c4"><use xlink:href="#z25331d4"/></clipPath>
		<clipPath id="z25331c5"><use xlink:href="#z25331d5"/></clipPath>
		<clipPath id="z25331c6"><use xlink:href="#z25331d6"/></clipPath>
		<clipPath id="z25331c7"><use xlink:href="#z25331d7"/></clipPath>
		<clipPath id="z25331c8"><use xlink:href="#z25331d8"/></clipPath>
		<clipPath id="z25331c9"><use xlink:href="#z25331d9"/></clipPath>
		<clipPath id="z25331c10"><use xlink:href="#z25331d10"/></clipPath>
	</defs>
	<path pathLength="2999" clip-path="url(#z25331c1)" d="M296 781L384 702"/>
	<path pathLength="2999" clip-path="url(#z25331c2)" d="M648 844L665 796L566 730"/>
	<path pathLength="2999" clip-path="url(#z25331c3)" d="M300 631L381 623L682 665"/>
	<path pathLength="2999" clip-path="url(#z25331c4)" d="M193 496L699 550L811 544"/>
	<path pathLength="2999" clip-path="url(#z25331c5)" d="M462 847L503 793L381 467L243 321L82 242"/>
	<path pathLength="2999" clip-path="url(#z25331c6)" d="M577 512L807 322L980 288"/>
	<path pathLength="2999" clip-path="url(#z25331c7)" d="M599 410L531 426L357 351"/>
	<path pathLength="2999" clip-path="url(#z25331c8)" d="M347 270L645 307"/>
	<path pathLength="2999" clip-path="url(#z25331c9)" d="M219 155L721 206L795 195"/>
	<path pathLength="2999" clip-path="url(#z25331c10)" d="M479 362L512 337L522 255L518 29L481 -9L374 47"/>
</g>
</svg>