<!--
AnimCJK 2016-2017 Copyright Francois Mizessyn, http://gooo.free.fr/animCJK/
Derived from:
    MakeMeAHanzi project - https://github.com/skishore/makemeahanzi
    Arphic PL KaitiM GB - https://apps.ubuntu.com/cat/applications/precise/fonts-arphic-gkai00mp/
    Arphic PL UKai - https://apps.ubuntu.com/cat/applications/fonts-arphic-ukai/
You can redistribute and/or modify this file under the terms of the Arphic Public License
as published by Arphic Technology Co., Ltd.
You should have received a copy of this license (the directory "APL") along with this file;
if not, see http://ftp.gnu.org/non-gnu/chinese-fonts-truetype/LICENSE.
-->
<svg id="z25346" class="acjk" version="1.1" viewBox="0 0 1024 1024" xmlns="http://www.w3.org/2000/svg" xmlns:xlink="http://www.w3.org/1999/xlink">
<style>
<![CDATA[
	@keyframes z25346k {
		from {
			stroke:#c00;
			stroke-dashoffset:3000;
		}
		75% {
			stroke:#c00;
			stroke-dashoffset:0;
		}
		to {
			stroke:#000;
		}
	}
	#z25346 path[clip-path] {
		animation:z25346k 1s linear both;
		stroke-dasharray:3000;
		stroke-width:128;
		stroke-linecap:round;
		fill:none;
	}
	#z25346 path[clip-path="url(#z25346c1)"] {animation-delay:1s;}
	#z25346 path[clip-path="url(#z25346c2)"] {animation-delay:2s;}
	#z25346 path[clip-path="url(#z25346c3)"] {animation-delay:3s;}
	#z25346 path[clip-path="url(#z25346c4)"] {animation-delay:4s;}
	#z25346 path[clip-path="url(#z25346c5)"] {animation-delay:5s;}
	#z25346 path[clip-path="url(#z25346c6)"] {animation-delay:6s;}
	#z25346 path[clip-path="url(#z25346c7)"] {animation-delay:7s;}
	#z25346 path[clip-path="url(#z25346c8)"] {animation-delay:8s;}
	#z25346 path[clip-path="url(#z25346c9)"] {animation-delay:9s;}
	#z25346 path {fill:#ccc;}
]]>
</style>
<g transform="scale(1,-1) translate(0,-900)">
	<path id="z25346d1" d="M319 511Q394 535 397 539Q406 548 400 556Q393 568 362 572Q340 575 321 569L271 548Q184 518 122 507Q85 497 114 483Q151 467 225 484Q246 490 270 497L319 511Z"/>
	<path id="z25346d2" d="M265 298Q264 216 262 114Q261 90 249 82Q243 79 181 87Q148 99 151 89Q152 82 172 67Q230 18 245 -9Q263 -40 277 -43Q292 -44 306 -9Q325 36 323 110Q317 225 316 339L316 369Q316 441 319 511L321 569Q321 666 342 736Q358 767 304 789Q270 808 251 801Q233 795 249 772Q271 745 271 711Q272 693 271 548L270 497Q269 430 266 340L265 298Z"/>
	<path id="z25346d3" d="M266 340Q62 223 59 220Q44 214 42 205Q42 196 56 183Q75 170 97 162Q112 158 122 170Q197 245 265 298L316 339Q328 349 341 358Q360 371 369 384Q375 397 364 396Q361 396 316 369L266 340Z"/>
	<path id="z25346d4" d="M645 539Q769 570 775 575Q785 584 779 592Q772 604 742 611Q709 615 648 591L595 575Q591 575 589 574Q535 561 473 554Q436 547 463 530Q502 509 573 525Q583 528 595 529L645 539Z"/>
	<path id="z25346d5" d="M639 431Q642 486 645 539L648 591Q648 678 669 765Q672 777 651 791Q614 810 589 815Q573 818 564 809Q557 802 565 786Q587 755 588 732Q592 657 595 575L595 529Q595 478 594 422L639 431Z"/>
	<path id="z25346d6" d="M616 387Q725 409 856 410Q877 410 881 419Q885 431 869 442Q814 479 769 462Q717 449 639 431L594 422Q504 404 402 385Q383 382 398 367Q426 342 464 352Q515 368 574 380L616 387Z"/>
	<path id="z25346d7" d="M648 221Q660 225 770 242Q780 241 790 254Q790 266 767 275Q734 300 655 268Q652 268 651 267L591 253Q567 250 447 229Q419 225 441 208Q477 184 514 193Q548 202 592 210L648 221Z"/>
	<path id="z25346d8" d="M642 88Q645 161 648 221L651 267Q652 286 653 304Q657 352 652 359Q634 377 616 387L574 380Q587 346 591 275Q590 266 591 253L592 210Q592 158 592 80L642 88Z"/>
	<path id="z25346d9" d="M592 80Q483 65 357 48Q335 45 352 27Q367 12 386 7Q408 1 426 6Q588 52 897 52Q919 52 924 61Q930 74 912 89Q849 134 796 117Q733 105 642 88L592 80Z"/>
	<defs>
		<clipPath id="z25346c1"><use xlink:href="#z25346d1"/></clipPath>
		<clipPath id="z25346c2"><use xlink:href="#z25346d2"/></clipPath>
		<clipPath id="z25346c3"><use xlink:href="#z25346d3"/></clipPath>
		<clipPath id="z25346c4"><use xlink:href="#z25346d4"/></clipPath>
		<clipPath id="z25346c5"><use xlink:href="#z25346d5"/></clipPath>
		<clipPath id="z25346c6"><use xlink:href="#z25346d6"/></clipPath>
		<clipPath id="z25346c7"><use xlink:href="#z25346d7"/></clipPath>
		<clipPath id="z25346c8"><use xlink:href="#z25346d8"/></clipPath>
		<clipPath id="z25346c9"><use xlink:href="#z25346d9"/></clipPath>
	</defs>
	<path pathLength="2999" clip-path="url(#z25346c1)" d="M110 495L398 545"/>
	<path pathLength="2999" clip-path="url(#z25346c2)" d="M249 794L307 743L291 92L262 9L159 86"/>
	<path pathLength="2999" clip-path="url(#z25346c3)" d="M48 207L105 203L363 390"/>
	<path pathLength="2999" clip-path="url(#z25346c4)" d="M460 543L776 591"/>
	<path pathLength="2999" clip-path="url(#z25346c5)" d="M568 804L627 754L611 426"/>
	<path pathLength="2999" clip-path="url(#z25346c6)" d="M397 377L788 437L877 427"/>
	<path pathLength="2999" clip-path="url(#z25346c7)" d="M439 220L782 259"/>
	<path pathLength="2999" clip-path="url(#z25346c8)" d="M582 377L621 333L617 85"/>
	<path pathLength="2999" clip-path="url(#z25346c9)" d="M354 39L414 30L828 87L921 71"/>
</g>
</svg>