<!--
AnimCJK 2016-2019 Copyright Francois Mizessyn - https://github.com/parsimonhi/animCJK
Derived from:
    MakeMeAHanzi project - https://github.com/skishore/makemeahanzi
    Arphic PL KaitiM GB font
    Arphic PL UKai font
You can redistribute and/or modify this file under the terms of the Arphic Public License
as published by Arphic Technology Co., Ltd.
You should have received a copy of this license along with this file.
If not, see http://ftp.gnu.org/non-gnu/chinese-fonts-truetype/LICENSE.
-->
<svg id="z25375" class="acjk" version="1.1" viewBox="0 0 1024 1024" xmlns="http://www.w3.org/2000/svg" xmlns:xlink="http://www.w3.org/1999/xlink">
<style>
<![CDATA[
@keyframes zk {
	to {
		stroke-dashoffset:0;
	}
}
svg.acjk path[clip-path] {
	--t:0.8s;
	animation:zk var(--t) linear forwards var(--d);
	stroke-dasharray:3337;
	stroke-dashoffset:3339;
	stroke-width:128;
	stroke-linecap:round;
	fill:none;
	stroke:#000;
}
svg.acjk path[id] {fill:#ccc;}
]]>
</style>
<path id="z25375d1" d="M335 358Q353 351 376 345Q413 333 417 327Q424 320 420 311Q413 301 383 296Q358 293 337 303C305 316 305 316 289 323Q148 363 134 367Q100 376 126 390Q160 405 230 389Q255 380 288 372C319 363 319 363 335 358Z"/>
<path id="z25375d2" d="M284 550Q281 647 280 773Q279 797 266 805Q259 809 176 792Q145 782 147 791Q148 798 168 812Q238 861 257 890Q279 924 296 924Q309 925 323 891Q339 848 337 778Q330 645 331 513C331 494 331 494 331 485Q332 421 335 358C336 321 336 321 337 303Q337 224 356 162Q372 134 320 111Q289 92 269 99Q253 105 267 127Q288 154 289 186Q290 202 289 323C288 356 288 356 288 372Q287 432 285 513C284 538 284 538 284 550Z"/>
<path id="z25375d3" d="M285 513Q194 567 117 618Q86 637 65 643Q53 649 52 656Q51 665 64 677Q83 690 103 697Q118 701 127 689Q208 608 284 550C315 525 315 525 331 513Q343 503 356 494Q375 482 385 467Q391 455 381 456Q372 456 331 485C300 504 300 504 285 513Z"/>
<path id="z25375d4" d="M625 284Q781 245 783 243Q792 236 787 227Q780 217 752 209Q725 205 629 237C594 246 594 246 577 250Q534 257 488 264Q454 271 479 286Q521 310 573 295Q574 294 578 294C609 287 609 287 625 284Z"/>
<path id="z25375d5" d="M452 432Q497 489 511 492Q520 493 525 483Q531 471 527 447Q526 431 503 416Q451 385 436 389Q432 392 431 403Q432 412 452 432Z"/>
<path id="z25375d6" d="M725 359Q704 392 663 443Q657 450 663 457Q670 458 678 454Q757 400 797 380Q815 376 811 364Q805 348 786 330Q767 312 745 310Q730 311 731 330Q734 343 725 359Z"/>
<path id="z25375d7" d="M613 564Q698 551 830 546Q885 546 893 536Q897 523 881 511Q821 472 770 489Q707 502 611 524C580 529 580 529 565 532Q477 547 376 565Q354 569 371 585Q402 612 448 599Q499 581 561 573C596 567 596 567 613 564Z"/>
<path id="z25375d8" d="M561 573Q546 709 456 789Q420 814 370 842Q357 849 357 853Q358 857 369 858Q385 861 422 848Q485 830 529 783Q587 722 605 608C609 552 609 552 611 524Q618 400 625 284C628 253 628 253 629 237Q632 213 653 157Q660 144 650 132Q628 113 588 101Q563 94 553 101Q544 108 552 121Q576 161 577 250C578 279 578 279 578 294Q577 415 565 532C562 559 562 559 561 573Z"/>
<path id="z25375d9" d="M605 608Q755 872 798 882Q799 881 801 882Q867 881 923 881Q948 881 948 875Q949 868 924 853Q789 783 747 737Q666 646 613 564C598 539 592 581 605 608Z"/>
<defs>
	<clipPath id="z25375c1"><use xlink:href="#z25375d1"/></clipPath>
	<clipPath id="z25375c2"><use xlink:href="#z25375d2"/></clipPath>
	<clipPath id="z25375c3"><use xlink:href="#z25375d3"/></clipPath>
	<clipPath id="z25375c4"><use xlink:href="#z25375d4"/></clipPath>
	<clipPath id="z25375c5"><use xlink:href="#z25375d5"/></clipPath>
	<clipPath id="z25375c6"><use xlink:href="#z25375d6"/></clipPath>
	<clipPath id="z25375c7"><use xlink:href="#z25375d7"/></clipPath>
	<clipPath id="z25375c8"><use xlink:href="#z25375d8"/></clipPath>
	<clipPath id="z25375c9"><use xlink:href="#z25375d9"/></clipPath>
</defs>
<path style="--d:1s;" pathLength="3333" clip-path="url(#z25375c1)" d="M125 381L416 323"/>
<path style="--d:2s;" pathLength="3333" clip-path="url(#z25375c2)" d="M267 107L323 164L307 793L284 871L153 793"/>
<path style="--d:3s;" pathLength="3333" clip-path="url(#z25375c3)" d="M58 654L112 660L378 461"/>
<path style="--d:4s;" pathLength="3333" clip-path="url(#z25375c4)" d="M479 275L784 230"/>
<path style="--d:5s;" pathLength="3333" clip-path="url(#z25375c5)" d="M439 394L519 485"/>
<path style="--d:6s;" pathLength="3333" clip-path="url(#z25375c6)" d="M739 318L768 363L666 451"/>
<path style="--d:7s;" pathLength="3333" clip-path="url(#z25375c7)" d="M371 574L800 515L889 526"/>
<path style="--d:8s;" pathLength="3333" clip-path="url(#z25375c8)" d="M555 108L612 159L578 622L494 784L365 851"/>
<path style="--d:9s;" pathLength="3333" clip-path="url(#z25375c9)" d="M612 575L776 811L821 845L941 873"/>
</svg>