<!--
AnimCJK 2016-2017 Copyright Francois Mizessyn, http://gooo.free.fr/animCJK/
Derived from:
    MakeMeAHanzi project - https://github.com/skishore/makemeahanzi
    Arphic PL KaitiM GB - https://apps.ubuntu.com/cat/applications/precise/fonts-arphic-gkai00mp/
    Arphic PL UKai - https://apps.ubuntu.com/cat/applications/fonts-arphic-ukai/
You can redistribute and/or modify this file under the terms of the Arphic Public License
as published by Arphic Technology Co., Ltd.
You should have received a copy of this license (the directory "APL") along with this file;
if not, see http://ftp.gnu.org/non-gnu/chinese-fonts-truetype/LICENSE.
-->
<svg id="z25421" class="acjk" version="1.1" viewBox="0 0 1024 1024" xmlns="http://www.w3.org/2000/svg" xmlns:xlink="http://www.w3.org/1999/xlink">
<style>
<![CDATA[
	@keyframes z25421k {
		from {
			stroke:#c00;
			stroke-dashoffset:3000;
		}
		75% {
			stroke:#c00;
			stroke-dashoffset:0;
		}
		to {
			stroke:#000;
		}
	}
	#z25421 path[clip-path] {
		animation:z25421k 1s linear both;
		stroke-dasharray:3000;
		stroke-width:128;
		stroke-linecap:round;
		fill:none;
	}
	#z25421 path[clip-path="url(#z25421c1)"] {animation-delay:1s;}
	#z25421 path[clip-path="url(#z25421c2)"] {animation-delay:2s;}
	#z25421 path[clip-path="url(#z25421c3)"] {animation-delay:3s;}
	#z25421 path[clip-path="url(#z25421c4)"] {animation-delay:4s;}
	#z25421 path[clip-path="url(#z25421c5)"] {animation-delay:5s;}
	#z25421 path[clip-path="url(#z25421c6)"] {animation-delay:6s;}
	#z25421 path[clip-path="url(#z25421c7)"] {animation-delay:7s;}
	#z25421 path[clip-path="url(#z25421c8)"] {animation-delay:8s;}
	#z25421 path[clip-path="url(#z25421c9)"] {animation-delay:9s;}
	#z25421 path[clip-path="url(#z25421c10)"] {animation-delay:10s;}
	#z25421 path {fill:#ccc;}
]]>
</style>
<g transform="scale(1,-1) translate(0,-900)">
	<path id="z25421d1" d="M342 578Q361 585 384 590Q423 602 428 607Q437 616 432 624Q425 636 394 642Q367 646 344 636L293 616Q265 609 240 599Q188 584 124 575Q87 566 114 551Q159 527 215 545Q252 555 292 565L342 578Z"/>
	<path id="z25421d2" d="M290 406Q289 309 287 181Q286 157 273 149Q267 146 212 164Q181 180 182 169Q183 162 201 144Q256 89 268 59Q281 25 297 22Q312 21 328 54Q349 100 350 174Q341 312 341 449L341 480Q340 529 342 578L344 636Q344 723 362 785Q380 815 324 837Q290 856 271 849Q253 842 269 819Q291 792 292 758Q293 742 293 616L292 565Q291 513 290 444L290 406Z"/>
	<path id="z25421d3" d="M341 449Q351 459 363 467Q387 483 397 500Q403 513 392 512Q373 508 341 480L290 444Q179 371 84 299Q53 278 30 270Q18 264 17 256Q17 247 31 235Q50 222 73 215Q85 214 105 232Q165 301 290 406L341 449Z"/>
	<path id="z25421d4" d="M503 765Q490 769 472 773Q460 776 457 771Q450 765 459 749Q490 682 506 571Q510 538 528 516Q546 494 551 509Q554 519 555 533L554 559Q553 569 551 581Q547 609 542 631L538 655Q529 712 527 733L503 765Z"/>
	<path id="z25421d5" d="M723 548Q738 526 752 517Q762 508 779 530Q794 551 826 669Q836 700 861 725Q876 737 864 752Q849 770 807 798Q788 808 770 802Q745 798 708 793Q662 787 601 779Q546 770 504 766Q503 766 503 765L527 733Q533 733 541 734Q610 749 730 759Q755 760 764 752Q776 739 773 724Q748 594 729 582L723 548Z"/>
	<path id="z25421d6" d="M542 631Q546 630 553 631Q638 644 703 653Q725 657 717 669Q707 682 683 687Q655 690 538 655L542 631Z"/>
	<path id="z25421d7" d="M555 533Q559 532 568 533Q655 543 723 548L729 582Q699 591 554 559L555 533Z"/>
	<path id="z25421d8" d="M666 418Q793 440 801 445Q811 452 806 460Q800 472 772 481Q751 487 652 462Q564 447 503 443Q467 439 492 421Q528 397 588 407Q592 408 598 408L666 418Z"/>
	<path id="z25421d9" d="M675 273Q760 282 882 282Q943 279 951 291Q957 303 940 317Q880 362 808 340Q751 331 676 316L615 307Q501 292 373 275Q351 274 367 255Q398 227 450 238Q526 259 615 266L675 273Z"/>
	<path id="z25421d10" d="M669 -13Q675 42 674 98Q673 138 675 273L676 316Q676 328 680 356Q687 401 676 412Q675 413 674 413Q670 416 666 418L598 408Q610 381 615 318Q614 314 615 307L615 266Q616 191 616 93Q617 -57 634 -77Q640 -84 647 -82Q662 -72 669 -13Z"/>
	<defs>
		<clipPath id="z25421c1"><use xlink:href="#z25421d1"/></clipPath>
		<clipPath id="z25421c2"><use xlink:href="#z25421d2"/></clipPath>
		<clipPath id="z25421c3"><use xlink:href="#z25421d3"/></clipPath>
		<clipPath id="z25421c4"><use xlink:href="#z25421d4"/></clipPath>
		<clipPath id="z25421c5"><use xlink:href="#z25421d5"/></clipPath>
		<clipPath id="z25421c6"><use xlink:href="#z25421d6"/></clipPath>
		<clipPath id="z25421c7"><use xlink:href="#z25421d7"/></clipPath>
		<clipPath id="z25421c8"><use xlink:href="#z25421d8"/></clipPath>
		<clipPath id="z25421c9"><use xlink:href="#z25421d9"/></clipPath>
		<clipPath id="z25421c10"><use xlink:href="#z25421d10"/></clipPath>
	</defs>
	<path pathLength="2999" clip-path="url(#z25421c1)" d="M109 564L175 560L429 622"/>
	<path pathLength="2999" clip-path="url(#z25421c2)" d="M269 840L327 791L318 167L284 76L190 167"/>
	<path pathLength="2999" clip-path="url(#z25421c3)" d="M24 257L76 253L389 504"/>
	<path pathLength="2999" clip-path="url(#z25421c4)" d="M461 766L501 720L542 510"/>
	<path pathLength="2999" clip-path="url(#z25421c5)" d="M512 762L757 780L803 760L821 733L753 520"/>
	<path pathLength="2999" clip-path="url(#z25421c6)" d="M544 653L712 667"/>
	<path pathLength="2999" clip-path="url(#z25421c7)" d="M558 540L725 568"/>
	<path pathLength="2999" clip-path="url(#z25421c8)" d="M490 433L803 457"/>
	<path pathLength="2999" clip-path="url(#z25421c9)" d="M370 264L852 315L948 301"/>
	<path pathLength="2999" clip-path="url(#z25421c10)" d="M607 406L646 373L643 -76"/>
</g>
</svg>