<!--
AnimCJK 2016-2017 Copyright Francois Mizessyn, https://github.com/parsimonhi/animCJK
Derived from:
    MakeMeAHanzi project - https://github.com/skishore/makemeahanzi
    Arphic PL KaitiM GB - https://apps.ubuntu.com/cat/applications/precise/fonts-arphic-gkai00mp/
    Arphic PL UKai - https://apps.ubuntu.com/cat/applications/fonts-arphic-ukai/
You can redistribute and/or modify this file under the terms of the Arphic Public License
as published by Arphic Technology Co., Ltd.
You should have received a copy of this license (the directory "APL") along with this file;
if not, see http://ftp.gnu.org/non-gnu/chinese-fonts-truetype/LICENSE.
-->
<svg id="z25472" class="acjk" version="1.1" viewBox="0 0 1024 1024" xmlns="http://www.w3.org/2000/svg" xmlns:xlink="http://www.w3.org/1999/xlink">
<style>
<![CDATA[
@keyframes z25472k {
	from {
		stroke:#c00;
		stroke-dashoffset:3000;
	}
	75% {
		stroke:#c00;
		stroke-dashoffset:0;
	}
	to {
		stroke:#000;
	}
}
#z25472 path[clip-path] {
	animation:z25472k 1s linear both;
	stroke-dasharray:3000;
	stroke-width:128;
	stroke-linecap:round;
	fill:none;
}
#z25472 path[clip-path="url(#z25472c1)"] {animation-delay:1s;}
#z25472 path[clip-path="url(#z25472c2)"] {animation-delay:2s;}
#z25472 path[clip-path="url(#z25472c3)"] {animation-delay:3s;}
#z25472 path[clip-path="url(#z25472c4)"] {animation-delay:4s;}
#z25472 path[clip-path="url(#z25472c5)"] {animation-delay:5s;}
#z25472 path[clip-path="url(#z25472c6)"] {animation-delay:6s;}
#z25472 path[clip-path="url(#z25472c7)"] {animation-delay:7s;}
#z25472 path[clip-path="url(#z25472c8)"] {animation-delay:8s;}
#z25472 path[clip-path="url(#z25472c9)"] {animation-delay:9s;}
#z25472 path[clip-path="url(#z25472c10)"] {animation-delay:10s;}
#z25472 path[clip-path="url(#z25472c11)"] {animation-delay:11s;}
#z25472 path {fill:#ccc;}
]]>
</style>
<path id="z25472d1" d="M298 377Q352 359 358 354Q365 345 360 338Q353 328 325 325Q312 324 299 327L254 345Q175 375 124 385Q93 394 117 407Q159 420 224 400Q237 396 253 392L298 377 Z"/>
<path id="z25472d2" d="M249 577Q246 662 246 769Q245 791 233 801L170 787Q142 774 142 783Q143 790 161 805Q215 856 227 883Q242 914 256 917Q269 918 284 887Q302 845 303 777Q296 656 295 537L295 505Q295 441 298 377L299 327Q306 200 319 159Q335 131 284 111Q253 93 235 100Q219 106 234 127Q253 152 254 183Q255 201 254 345L253 392Q252 453 250 533L249 577 Z"/>
<path id="z25472d3" d="M250 533Q52 654 51 658Q50 658 50 660Q49 667 64 681Q83 694 105 701Q121 705 130 693Q175 639 249 577L295 537Q308 524 324 513Q340 501 349 488Q355 475 344 476Q343 476 295 505L250 533 Z"/>
<path id="z25472d4" d="M455 325Q540 259 582 233Q598 229 594 218Q588 203 570 186Q551 170 530 169Q517 169 518 188Q521 201 513 216Q488 253 441 312L455 325 Z"/>
<path id="z25472d5" d="M448 438Q449 428 449 417Q449 378 453 342Q457 332 455 325L441 312Q398 288 384 296Q375 303 381 313Q396 332 401 388Q400 392 401 398Q408 509 386 614Q371 675 319 786Q316 792 315 796Q314 806 322 803Q355 797 409 669Q410 665 412 661Q443 567 448 458L448 438 Z"/>
<path id="z25472d6" d="M544 450Q569 441 601 432Q619 425 622 423Q628 416 624 409Q617 400 593 397Q572 396 510 422Q506 422 504 424Q480 430 448 438L448 458Q475 467 515 459L544 450 Z"/>
<path id="z25472d7" d="M515 459Q531 510 506 694Q493 739 536 784L539 786Q548 787 552 776Q562 751 560 727Q557 526 566 479Q567 469 562 464Q552 455 544 450L515 459 Z"/>
<path id="z25472d8" d="M697 399Q739 312 762 250Q772 213 786 195Q792 183 784 172Q778 162 747 146Q719 136 702 140Q686 146 697 164Q742 216 623 474Q616 486 616 492Q615 502 627 497Q643 490 682 427L697 399 Z"/>
<path id="z25472d9" d="M682 427Q689 431 728 422Q791 394 813 398Q822 411 815 419Q815 422 794 477Q788 486 793 491Q797 495 807 485Q883 428 919 414Q926 413 928 405Q928 393 902 382Q883 372 863 361Q839 349 827 356Q778 378 697 399L682 427 Z"/>
<path id="z25472d10" d="M715 646Q716 634 739 559Q746 541 730 529Q690 501 675 501Q657 501 668 524Q690 581 639 733Q627 755 613 783Q589 822 523 873Q508 882 505 888Q502 894 513 895Q543 898 603 856Q666 805 707 678L715 646 Z"/>
<path id="z25472d11" d="M707 678Q761 786 836 880Q852 902 870 903Q918 896 959 890Q975 887 976 883Q977 879 958 865Q838 787 792 738Q758 704 715 646L707 678 Z"/>
<defs>
	<clipPath id="z25472c1"><use xlink:href="#z25472d1"/></clipPath>
	<clipPath id="z25472c2"><use xlink:href="#z25472d2"/></clipPath>
	<clipPath id="z25472c3"><use xlink:href="#z25472d3"/></clipPath>
	<clipPath id="z25472c4"><use xlink:href="#z25472d4"/></clipPath>
	<clipPath id="z25472c5"><use xlink:href="#z25472d5"/></clipPath>
	<clipPath id="z25472c6"><use xlink:href="#z25472d6"/></clipPath>
	<clipPath id="z25472c7"><use xlink:href="#z25472d7"/></clipPath>
	<clipPath id="z25472c8"><use xlink:href="#z25472d8"/></clipPath>
	<clipPath id="z25472c9"><use xlink:href="#z25472d9"/></clipPath>
	<clipPath id="z25472c10"><use xlink:href="#z25472d10"/></clipPath>
	<clipPath id="z25472c11"><use xlink:href="#z25472d11"/></clipPath>
</defs>
<path pathLength="2999" clip-path="url(#z25472c1)" d="M117 397L357 346"/>
<path pathLength="2999" clip-path="url(#z25472c2)" d="M233 107L288 159L274 780L249 863L150 786"/>
<path pathLength="2999" clip-path="url(#z25472c3)" d="M56 661L112 662L344 482"/>
<path pathLength="2999" clip-path="url(#z25472c4)" d="M527 173L553 220L449 319"/>
<path pathLength="2999" clip-path="url(#z25472c5)" d="M387 301L424 335L419 536L388 670L322 796"/>
<path pathLength="2999" clip-path="url(#z25472c6)" d="M454 452L617 414"/>
<path pathLength="2999" clip-path="url(#z25472c7)" d="M520 462L543 493L536 778"/>
<path pathLength="2999" clip-path="url(#z25472c8)" d="M700 150L747 200L623 491"/>
<path pathLength="2999" clip-path="url(#z25472c9)" d="M691 423L845 384L869 425L800 483"/>
<path pathLength="2999" clip-path="url(#z25472c10)" d="M670 506L707 556L655 750L599 833L510 888"/>
<path pathLength="2999" clip-path="url(#z25472c11)" d="M717 656L868 855L967 881"/>
</svg>