<!--
AnimCJK 2016-2017 Copyright Francois Mizessyn, http://gooo.free.fr/animCJK/
Derived from:
    MakeMeAHanzi project - https://github.com/skishore/makemeahanzi
    Arphic PL KaitiM GB - https://apps.ubuntu.com/cat/applications/precise/fonts-arphic-gkai00mp/
    Arphic PL UKai - https://apps.ubuntu.com/cat/applications/fonts-arphic-ukai/
You can redistribute and/or modify this file under the terms of the Arphic Public License
as published by Arphic Technology Co., Ltd.
You should have received a copy of this license (the directory "APL") along with this file;
if not, see http://ftp.gnu.org/non-gnu/chinese-fonts-truetype/LICENSE.
-->
<svg id="z25472" class="acjk" version="1.1" viewBox="0 0 1024 1024" xmlns="http://www.w3.org/2000/svg" xmlns:xlink="http://www.w3.org/1999/xlink">
<style>
<![CDATA[
	@keyframes z25472k {
		from {
			stroke:#c00;
			stroke-dashoffset:3000;
		}
		75% {
			stroke:#c00;
			stroke-dashoffset:0;
		}
		to {
			stroke:#000;
		}
	}
	#z25472 path[clip-path] {
		animation:z25472k 1s linear both;
		stroke-dasharray:3000;
		stroke-width:128;
		stroke-linecap:round;
		fill:none;
	}
	#z25472 path[clip-path="url(#z25472c1)"] {animation-delay:1s;}
	#z25472 path[clip-path="url(#z25472c2)"] {animation-delay:2s;}
	#z25472 path[clip-path="url(#z25472c3)"] {animation-delay:3s;}
	#z25472 path[clip-path="url(#z25472c4)"] {animation-delay:4s;}
	#z25472 path[clip-path="url(#z25472c5)"] {animation-delay:5s;}
	#z25472 path[clip-path="url(#z25472c6)"] {animation-delay:6s;}
	#z25472 path[clip-path="url(#z25472c7)"] {animation-delay:7s;}
	#z25472 path[clip-path="url(#z25472c8)"] {animation-delay:8s;}
	#z25472 path[clip-path="url(#z25472c9)"] {animation-delay:9s;}
	#z25472 path[clip-path="url(#z25472c10)"] {animation-delay:10s;}
	#z25472 path[clip-path="url(#z25472c11)"] {animation-delay:11s;}
	#z25472 path {fill:#ccc;}
]]>
</style>
<g transform="scale(1,-1) translate(0,-900)">
	<path id="z25472d1" d="M298 523Q352 541 358 546Q365 555 360 562Q353 572 325 575Q312 576 299 573L254 555Q175 525 124 515Q93 506 117 493Q159 480 224 500Q237 504 253 508L298 523Z"/>
	<path id="z25472d2" d="M249 323Q246 238 246 131Q245 109 233 99L170 113Q142 126 142 117Q143 110 161 95Q215 44 227 17Q242 -14 256 -17Q269 -18 284 13Q302 55 303 123Q296 244 295 363L295 395Q295 459 298 523L299 573Q306 700 319 741Q335 769 284 789Q253 807 235 800Q219 794 234 773Q253 748 254 717Q255 699 254 555L253 508Q252 447 250 367L249 323Z"/>
	<path id="z25472d3" d="M250 367Q52 246 51 242Q50 242 50 240Q49 233 64 219Q83 206 105 199Q121 195 130 207Q175 261 249 323L295 363Q308 376 324 387Q340 399 349 412Q355 425 344 424Q343 424 295 395L250 367Z"/>
	<path id="z25472d4" d="M455 575Q540 641 582 667Q598 671 594 682Q588 697 570 714Q551 730 530 731Q517 731 518 712Q521 699 513 684Q488 647 441 588L455 575Z"/>
	<path id="z25472d5" d="M448 462Q449 472 449 483Q449 522 453 558Q457 568 455 575L441 588Q398 612 384 604Q375 597 381 587Q396 568 401 512Q400 508 401 502Q408 391 386 286Q371 225 319 114Q316 108 315 104Q314 94 322 97Q355 103 409 231Q410 235 412 239Q443 333 448 442L448 462Z"/>
	<path id="z25472d6" d="M544 450Q569 459 601 468Q619 475 622 477Q628 484 624 491Q617 500 593 503Q572 504 510 478Q506 478 504 476Q480 470 448 462L448 442Q475 433 515 441L544 450Z"/>
	<path id="z25472d7" d="M515 441Q531 390 506 206Q493 161 536 116L539 114Q548 113 552 124Q562 149 560 173Q557 374 566 421Q567 431 562 436Q552 445 544 450L515 441Z"/>
	<path id="z25472d8" d="M697 501Q739 588 762 650Q772 687 786 705Q792 717 784 728Q778 738 747 754Q719 764 702 760Q686 754 697 736Q742 684 623 426Q616 414 616 408Q615 398 627 403Q643 410 682 473L697 501Z"/>
	<path id="z25472d9" d="M682 473Q689 469 728 478Q791 506 813 502Q822 489 815 481Q815 478 794 423Q788 414 793 409Q797 405 807 415Q883 472 919 486Q926 487 928 495Q928 507 902 518Q883 528 863 539Q839 551 827 544Q778 522 697 501L682 473Z"/>
	<path id="z25472d10" d="M715 254Q716 266 739 341Q746 359 730 371Q690 399 675 399Q657 399 668 376Q690 319 639 167Q627 145 613 117Q589 78 523 27Q508 18 505 12Q502 6 513 5Q543 2 603 44Q666 95 707 222L715 254Z"/>
	<path id="z25472d11" d="M707 222Q761 114 836 20Q852 -2 870 -3Q918 4 959 10Q975 13 976 17Q977 21 958 35Q838 113 792 162Q758 196 715 254L707 222Z"/>
	<defs>
		<clipPath id="z25472c1"><use xlink:href="#z25472d1"/></clipPath>
		<clipPath id="z25472c2"><use xlink:href="#z25472d2"/></clipPath>
		<clipPath id="z25472c3"><use xlink:href="#z25472d3"/></clipPath>
		<clipPath id="z25472c4"><use xlink:href="#z25472d4"/></clipPath>
		<clipPath id="z25472c5"><use xlink:href="#z25472d5"/></clipPath>
		<clipPath id="z25472c6"><use xlink:href="#z25472d6"/></clipPath>
		<clipPath id="z25472c7"><use xlink:href="#z25472d7"/></clipPath>
		<clipPath id="z25472c8"><use xlink:href="#z25472d8"/></clipPath>
		<clipPath id="z25472c9"><use xlink:href="#z25472d9"/></clipPath>
		<clipPath id="z25472c10"><use xlink:href="#z25472d10"/></clipPath>
		<clipPath id="z25472c11"><use xlink:href="#z25472d11"/></clipPath>
	</defs>
	<path pathLength="2999" clip-path="url(#z25472c1)" d="M117 503L357 554"/>
	<path pathLength="2999" clip-path="url(#z25472c2)" d="M233 793L288 741L274 120L249 37L150 114"/>
	<path pathLength="2999" clip-path="url(#z25472c3)" d="M56 239L112 238L344 418"/>
	<path pathLength="2999" clip-path="url(#z25472c4)" d="M527 727L553 680L449 581"/>
	<path pathLength="2999" clip-path="url(#z25472c5)" d="M387 599L424 565L419 364L388 230L322 104"/>
	<path pathLength="2999" clip-path="url(#z25472c6)" d="M454 448L617 486"/>
	<path pathLength="2999" clip-path="url(#z25472c7)" d="M520 438L543 407L536 122"/>
	<path pathLength="2999" clip-path="url(#z25472c8)" d="M700 750L747 700L623 409"/>
	<path pathLength="2999" clip-path="url(#z25472c9)" d="M691 477L845 516L869 475L800 417"/>
	<path pathLength="2999" clip-path="url(#z25472c10)" d="M670 394L707 344L655 150L599 67L510 12"/>
	<path pathLength="2999" clip-path="url(#z25472c11)" d="M717 244L868 45L967 19"/>
</g>
</svg>