<!--
AnimCJK 2016-2017 Copyright Francois Mizessyn, http://gooo.free.fr/animCJK/
Derived from:
    MakeMeAHanzi project - https://github.com/skishore/makemeahanzi
    Arphic PL KaitiM GB - https://apps.ubuntu.com/cat/applications/precise/fonts-arphic-gkai00mp/
    Arphic PL UKai - https://apps.ubuntu.com/cat/applications/fonts-arphic-ukai/
You can redistribute and/or modify this file under the terms of the Arphic Public License
as published by Arphic Technology Co., Ltd.
You should have received a copy of this license (the directory "APL") along with this file;
if not, see http://ftp.gnu.org/non-gnu/chinese-fonts-truetype/LICENSE.
-->
<svg id="z25496" class="acjk" version="1.1" viewBox="0 0 1024 1024" xmlns="http://www.w3.org/2000/svg" xmlns:xlink="http://www.w3.org/1999/xlink">
<style>
<![CDATA[
	@keyframes z25496k {
		from {
			stroke:#c00;
			stroke-dashoffset:3000;
		}
		75% {
			stroke:#c00;
			stroke-dashoffset:0;
		}
		to {
			stroke:#000;
		}
	}
	#z25496 path[clip-path] {
		animation:z25496k 1s linear both;
		stroke-dasharray:3000;
		stroke-width:128;
		stroke-linecap:round;
		fill:none;
	}
	#z25496 path[clip-path="url(#z25496c1)"] {animation-delay:1s;}
	#z25496 path[clip-path="url(#z25496c2)"] {animation-delay:2s;}
	#z25496 path[clip-path="url(#z25496c3)"] {animation-delay:3s;}
	#z25496 path[clip-path="url(#z25496c4)"] {animation-delay:4s;}
	#z25496 path[clip-path="url(#z25496c5)"] {animation-delay:5s;}
	#z25496 path[clip-path="url(#z25496c6)"] {animation-delay:6s;}
	#z25496 path[clip-path="url(#z25496c7)"] {animation-delay:7s;}
	#z25496 path[clip-path="url(#z25496c8)"] {animation-delay:8s;}
	#z25496 path[clip-path="url(#z25496c9)"] {animation-delay:9s;}
	#z25496 path[clip-path="url(#z25496c10)"] {animation-delay:10s;}
	#z25496 path[clip-path="url(#z25496c11)"] {animation-delay:11s;}
	#z25496 path {fill:#ccc;}
]]>
</style>
<g transform="scale(1,-1) translate(0,-900)">
	<path id="z25496d1" d="M325 553Q410 581 413 583Q422 592 416 600Q409 612 378 617Q353 621 328 611L279 590Q171 560 143 555Q106 545 134 531Q176 513 253 534Q263 537 278 540L325 553Z"/>
	<path id="z25496d2" d="M325 112Q326 131 326 154Q320 269 321 384L321 417Q321 486 325 553L328 611Q328 686 348 750Q364 778 312 801Q281 820 262 813Q244 807 259 785Q280 760 280 726Q281 711 279 590L278 540Q277 476 273 386L272 343Q271 261 268 158Q267 136 255 127Q249 123 176 136Q145 146 147 137Q148 130 168 116Q232 68 248 41Q267 10 283 8Q296 7 310 40Q319 62 323 93L325 112Z"/>
	<path id="z25496d3" d="M321 384Q339 400 357 413Q376 426 385 440Q391 453 380 452Q368 449 321 417L273 386Q84 269 74 264Q59 257 58 249Q57 240 72 227Q91 214 113 206Q129 203 138 215Q193 275 272 343L321 384Z"/>
	<path id="z25496d4" d="M788 617Q815 677 845 699Q861 717 848 734Q776 792 723 766Q648 739 535 720L556 691Q568 692 583 696Q658 711 728 725Q747 729 754 722Q761 715 759 700Q749 654 735 618L788 617Z"/>
	<path id="z25496d5" d="M534 546Q546 540 563 544Q639 563 804 581Q814 582 816 591Q816 600 788 617L735 618Q626 590 537 575L534 546Z"/>
	<path id="z25496d6" d="M535 720Q493 747 478 741Q466 734 473 721Q488 696 488 624Q487 617 487 607Q478 448 438 328Q402 231 326 113Q325 113 325 112L323 93Q360 118 378 141Q502 276 534 546L537 575Q537 579 538 581Q547 668 556 691L535 720Z"/>
	<path id="z25496d7" d="M717 316Q726 320 739 322Q788 334 811 333L811 363Q762 357 718 348L671 338Q629 331 595 318Q580 315 585 332Q597 395 591 408Q579 423 560 435Q551 439 543 439Q534 436 539 420Q552 384 545 351Q539 318 525 305Q509 292 515 279Q525 266 538 257Q548 251 557 257Q579 281 672 304L717 316Z"/>
	<path id="z25496d8" d="M811 333Q814 311 821 296Q828 281 840 291Q861 310 870 387Q882 420 889 428Q896 441 888 453Q872 468 843 486Q833 493 821 488Q814 485 816 473Q822 467 828 421Q825 388 811 363L811 333Z"/>
	<path id="z25496d9" d="M708 128Q712 225 717 316L718 348Q721 417 737 486Q740 496 721 510Q687 528 665 531Q649 534 642 526Q635 519 643 505Q665 471 667 448Q670 396 671 338L672 304Q672 219 669 121L708 128Z"/>
	<path id="z25496d10" d="M846 147Q773 141 708 128L669 121Q615 114 568 99Q553 98 558 115Q576 178 568 193Q555 211 535 225Q525 232 516 231Q506 228 511 210Q523 171 513 136Q506 102 490 88Q472 73 478 60Q488 45 502 34Q515 27 524 33Q557 66 744 101Q826 117 844 110L846 147Z"/>
	<path id="z25496d11" d="M844 110Q838 98 844 80Q853 55 864 40Q874 28 882 39Q900 63 891 134Q894 197 899 210Q903 223 893 233Q874 243 845 255Q833 259 824 253Q818 249 822 238Q834 226 846 156Q846 153 846 147L844 110Z"/>
	<defs>
		<clipPath id="z25496c1"><use xlink:href="#z25496d1"/></clipPath>
		<clipPath id="z25496c2"><use xlink:href="#z25496d2"/></clipPath>
		<clipPath id="z25496c3"><use xlink:href="#z25496d3"/></clipPath>
		<clipPath id="z25496c4"><use xlink:href="#z25496d4"/></clipPath>
		<clipPath id="z25496c5"><use xlink:href="#z25496d5"/></clipPath>
		<clipPath id="z25496c6"><use xlink:href="#z25496d6"/></clipPath>
		<clipPath id="z25496c7"><use xlink:href="#z25496d7"/></clipPath>
		<clipPath id="z25496c8"><use xlink:href="#z25496d8"/></clipPath>
		<clipPath id="z25496c9"><use xlink:href="#z25496d9"/></clipPath>
		<clipPath id="z25496c10"><use xlink:href="#z25496d10"/></clipPath>
		<clipPath id="z25496c11"><use xlink:href="#z25496d11"/></clipPath>
	</defs>
	<path pathLength="2999" clip-path="url(#z25496c1)" d="M130 542L413 597"/>
	<path pathLength="2999" clip-path="url(#z25496c2)" d="M260 803L314 760L294 126L263 61L155 136"/>
	<path pathLength="2999" clip-path="url(#z25496c3)" d="M62 250L122 248L380 446"/>
	<path pathLength="2999" clip-path="url(#z25496c4)" d="M545 717L775 744L806 707L747 620"/>
	<path pathLength="2999" clip-path="url(#z25496c5)" d="M537 553L736 596L811 592"/>
	<path pathLength="2999" clip-path="url(#z25496c6)" d="M481 737L519 688L488 421L434 262L328 101"/>
	<path pathLength="2999" clip-path="url(#z25496c7)" d="M546 432L570 386L568 288L810 347"/>
	<path pathLength="2999" clip-path="url(#z25496c8)" d="M826 480L859 435L833 293"/>
	<path pathLength="2999" clip-path="url(#z25496c9)" d="M646 523L699 480L682 124"/>
	<path pathLength="2999" clip-path="url(#z25496c10)" d="M518 222L543 181L528 82L543 68L845 132"/>
	<path pathLength="2999" clip-path="url(#z25496c11)" d="M828 247L868 208L869 38"/>
</g>
</svg>