<!--
AnimCJK 2016-2018 Copyright Francois Mizessyn, https://github.com/parsimonhi/animCJK
Derived from:
    MakeMeAHanzi project - https://github.com/skishore/makemeahanzi
    Arphic PL KaitiM GB - https://apps.ubuntu.com/cat/applications/precise/fonts-arphic-gkai00mp/
    Arphic PL UKai - https://apps.ubuntu.com/cat/applications/fonts-arphic-ukai/
You can redistribute and/or modify this file under the terms of the Arphic Public License
as published by Arphic Technology Co., Ltd.
You should have received a copy of this license (the directory "APL") along with this file;
if not, see http://ftp.gnu.org/non-gnu/chinese-fonts-truetype/LICENSE.
-->
<svg id="z25527" class="acjk" version="1.1" viewBox="0 0 1024 1024" xmlns="http://www.w3.org/2000/svg" xmlns:xlink="http://www.w3.org/1999/xlink">
<style>
<![CDATA[
@keyframes z25527k {
	from {
		stroke:#c00;
		stroke-dashoffset:3334;
	}
	75% {
		stroke:#c00;
		stroke-dashoffset:0;
	}
	to {
		stroke:#000;
	}
}
#z25527 path[clip-path] {
	animation:z25527k 1s linear both;
	stroke-dasharray:3334;
	stroke-width:128;
	stroke-linecap:round;
	fill:none;
}
#z25527 path[clip-path="url(#z25527c1)"] {animation-delay:1s;}
#z25527 path[clip-path="url(#z25527c2)"] {animation-delay:2s;}
#z25527 path[clip-path="url(#z25527c3)"] {animation-delay:3s;}
#z25527 path[clip-path="url(#z25527c4)"] {animation-delay:4s;}
#z25527 path[clip-path="url(#z25527c5)"] {animation-delay:5s;}
#z25527 path[clip-path="url(#z25527c6)"] {animation-delay:6s;}
#z25527 path[clip-path="url(#z25527c7)"] {animation-delay:7s;}
#z25527 path[clip-path="url(#z25527c8)"] {animation-delay:8s;}
#z25527 path[clip-path="url(#z25527c9)"] {animation-delay:9s;}
#z25527 path[clip-path="url(#z25527c10)"] {animation-delay:10s;}
#z25527 path[clip-path="url(#z25527c11)"] {animation-delay:11s;}
#z25527 path {fill:#ccc;}
]]>
</style>
<path id="z25527d1" d="M300 356Q316 349 333 345Q361 336 366 331Q373 324 368 315Q361 305 331 300Q315 299 302 302L253 321Q156 352 121 359Q87 369 114 382Q156 400 225 377Q237 373 252 370L300 356 Z"/>
<path id="z25527d2" d="M304 750Q297 629 297 508L297 478Q297 417 300 356L302 302Q302 218 321 157Q337 129 284 107Q253 89 233 95Q217 102 231 123Q252 150 253 182Q254 198 253 321L252 370Q251 430 249 510L249 549Q248 637 246 749Q245 771 233 780Q226 786 205 780Q183 774 160 769Q129 757 131 767Q132 774 151 789Q212 838 227 866Q245 899 260 900Q273 901 288 868Q304 825 305 759L304 750 Z"/>
<path id="z25527d3" d="M297 508Q307 498 320 489Q336 477 345 463Q351 451 341 452Q326 455 297 478L249 510Q173 558 106 605Q76 624 56 632Q44 638 43 645Q43 654 56 665Q75 678 96 684Q111 688 119 676Q176 607 249 549L297 508 Z"/>
<path id="z25527d4" d="M392 211Q408 233 426 258Q436 271 450 273Q459 274 465 263Q472 251 468 224Q467 208 444 193Q392 162 376 165Q372 168 371 179Q372 189 392 211 Z"/>
<path id="z25527d5" d="M574 149Q555 195 513 268Q509 275 515 281Q522 281 529 275Q605 190 645 155Q661 148 655 138Q648 125 626 111Q604 98 584 100Q571 103 575 121Q579 133 574 149 Z"/>
<path id="z25527d6" d="M491 371Q608 335 614 331Q621 324 616 315Q609 305 579 300Q549 297 522 312Q494 324 464 334Q430 344 390 351Q356 360 382 374Q416 389 457 381L491 371 Z"/>
<path id="z25527d7" d="M507 520Q529 513 630 492Q640 492 647 480Q647 470 626 462Q605 446 574 455Q543 465 514 477L463 493Q399 506 334 522Q309 526 329 541Q356 559 395 550Q422 541 457 533L507 520 Z"/>
<path id="z25527d8" d="M495 570Q501 548 507 520L514 477Q523 411 527 404Q533 398 528 390Q522 381 491 371L457 381Q458 382 459 384Q465 424 463 493L457 533Q456 537 456 542Q432 659 330 733Q318 740 306 749Q305 749 304 750L305 759Q383 759 445 682Q451 673 457 664Q473 636 488 593L495 570 Z"/>
<path id="z25527d9" d="M488 593Q540 645 580 691Q593 709 606 713Q613 714 621 706Q631 694 622 656Q613 613 495 570L488 593 Z"/>
<path id="z25527d10" d="M730 309Q800 264 821 272Q831 278 825 299Q783 417 785 424Q785 437 806 442Q899 521 894 605Q893 624 880 635Q864 642 840 638Q800 628 766 621Q759 620 759 627Q760 634 775 645Q844 685 862 718Q869 731 881 734Q893 735 907 725Q949 680 954 624Q963 536 849 432Q804 410 872 327Q890 297 914 283Q942 264 915 247Q875 219 851 211Q833 207 818 218Q803 236 718 277Q714 278 713 280L730 309 Z"/>
<path id="z25527d11" d="M669 898Q675 923 682 933Q688 940 695 938Q710 929 716 868Q723 790 721 714Q721 699 720 374Q720 350 730 309L713 280Q682 261 669 258Q656 254 640 263Q631 270 639 282Q643 292 650 300Q663 322 664 356Q668 497 664 716Q663 852 669 898 Z"/>
<defs>
	<clipPath id="z25527c1"><use xlink:href="#z25527d1"/></clipPath>
	<clipPath id="z25527c2"><use xlink:href="#z25527d2"/></clipPath>
	<clipPath id="z25527c3"><use xlink:href="#z25527d3"/></clipPath>
	<clipPath id="z25527c4"><use xlink:href="#z25527d4"/></clipPath>
	<clipPath id="z25527c5"><use xlink:href="#z25527d5"/></clipPath>
	<clipPath id="z25527c6"><use xlink:href="#z25527d6"/></clipPath>
	<clipPath id="z25527c7"><use xlink:href="#z25527d7"/></clipPath>
	<clipPath id="z25527c8"><use xlink:href="#z25527d8"/></clipPath>
	<clipPath id="z25527c9"><use xlink:href="#z25527d9"/></clipPath>
	<clipPath id="z25527c10"><use xlink:href="#z25527d10"/></clipPath>
	<clipPath id="z25527c11"><use xlink:href="#z25527d11"/></clipPath>
</defs>
<path pathLength="3333" clip-path="url(#z25527c1)" d="M113 370L361 317"/>
<path pathLength="3333" clip-path="url(#z25527c2)" d="M231 100L287 151L273 777L245 848L137 770"/>
<path pathLength="3333" clip-path="url(#z25527c3)" d="M49 643L102 648L340 460"/>
<path pathLength="3333" clip-path="url(#z25527c4)" d="M379 173L459 267"/>
<path pathLength="3333" clip-path="url(#z25527c5)" d="M582 106L612 153L520 273"/>
<path pathLength="3333" clip-path="url(#z25527c6)" d="M378 362L614 321"/>
<path pathLength="3333" clip-path="url(#z25527c7)" d="M327 529L642 480"/>
<path pathLength="3333" clip-path="url(#z25527c8)" d="M462 383L495 412L460 605L394 705L312 751"/>
<path pathLength="3333" clip-path="url(#z25527c9)" d="M499 576L587 653L612 707"/>
<path pathLength="3333" clip-path="url(#z25527c10)" d="M721 281L832 243L876 272L808 418L883 496L923 592L916 646L883 684L765 629"/>
<path pathLength="3333" clip-path="url(#z25527c11)" d="M643 271L694 320L693 933"/>
</svg>