<!--
AnimCJK 2016-2018 Copyright Francois Mizessyn - https://github.com/parsimonhi/animCJK
Derived from:
    MakeMeAHanzi project - https://github.com/skishore/makemeahanzi
    Arphic PL KaitiM GB - https://apps.ubuntu.com/cat/applications/precise/fonts-arphic-gkai00mp/
    Arphic PL UKai - https://apps.ubuntu.com/cat/applications/fonts-arphic-ukai/
You can redistribute and/or modify this file under the terms of the Arphic Public License
as published by Arphic Technology Co., Ltd.
You should have received a copy of this license (the directory "APL") along with this file;
if not, see http://ftp.gnu.org/non-gnu/chinese-fonts-truetype/LICENSE.
-->
<svg id="z25550" class="acjk" version="1.1" viewBox="0 0 1024 1024" xmlns="http://www.w3.org/2000/svg" xmlns:xlink="http://www.w3.org/1999/xlink">
<style>
<![CDATA[
@keyframes z25550k {
	from {
		stroke:#ccc;
		stroke-dashoffset:3334;
	}
	1% {
		stroke:#c00;
		stroke-dashoffset:3334;
	}
	75% {
		stroke:#c00;
		stroke-dashoffset:0;
	}
	to {
		stroke:#000;
	}
}
#z25550 path[clip-path] {
	animation:z25550k 1s linear both;
	stroke-dasharray:3334;
	stroke-width:128;
	stroke-linecap:round;
	fill:none;
}
#z25550 path[clip-path="url(#z25550c1)"] {animation-delay:1s;}
#z25550 path[clip-path="url(#z25550c2)"] {animation-delay:2s;}
#z25550 path[clip-path="url(#z25550c3)"] {animation-delay:3s;}
#z25550 path[clip-path="url(#z25550c4)"] {animation-delay:4s;}
#z25550 path[clip-path="url(#z25550c5)"] {animation-delay:5s;}
#z25550 path[clip-path="url(#z25550c6)"] {animation-delay:6s;}
#z25550 path[clip-path="url(#z25550c7)"] {animation-delay:7s;}
#z25550 path[clip-path="url(#z25550c8)"] {animation-delay:8s;}
#z25550 path[clip-path="url(#z25550c9)"] {animation-delay:9s;}
#z25550 path[clip-path="url(#z25550c10)"] {animation-delay:10s;}
#z25550 path[clip-path="url(#z25550c11)"] {animation-delay:11s;}
#z25550 path[clip-path="url(#z25550c12)"] {animation-delay:12s;}
#z25550 path {fill:#ccc;}
]]>
</style>
<path id="z25550d1" d="M323 375Q335 371 349 367Q377 357 382 353Q389 344 384 336Q377 324 346 320Q336 319 325 321L275 336Q187 367 134 377Q97 387 126 401Q165 419 244 397Q257 393 274 389L323 375 Z"/>
<path id="z25550d2" d="M270 558Q269 657 266 784Q265 808 251 817L177 803Q144 790 147 799Q148 806 167 822Q230 877 244 906Q262 940 278 943Q293 944 308 910Q327 864 327 790Q320 654 320 519L320 490Q320 432 323 375L325 321Q325 225 346 156Q364 125 308 102Q274 84 255 91Q237 97 253 120Q275 147 276 181Q277 199 275 336L274 389Q273 444 271 518L270 558 Z"/>
<path id="z25550d3" d="M271 518Q192 563 123 606Q90 625 68 633Q56 639 54 647Q54 656 68 668Q87 683 109 690Q121 693 139 676Q178 633 270 558L320 519Q362 483 365 480Q371 467 360 468Q339 471 320 490L271 518 Z"/>
<path id="z25550d4" d="M595 167Q623 189 653 216Q669 229 685 227Q695 226 701 212Q705 196 694 165Q682 134 587 117Q571 113 564 117Q558 121 561 135Q565 145 595 167 Z"/>
<path id="z25550d5" d="M481 316Q465 292 450 281Q446 277 440 281Q436 285 435 297Q441 325 411 401Q401 417 403 437Q407 456 417 470Q424 482 430 473Q437 472 445 456Q449 449 458 420Q473 369 481 352Q484 348 486 344L481 316 Z"/>
<path id="z25550d6" d="M486 344Q507 354 545 346Q633 310 771 295Q789 292 797 294Q813 304 811 312Q811 316 784 386Q778 399 785 403Q792 407 807 395Q858 355 901 341Q935 328 934 319Q933 309 863 263Q839 247 766 263Q667 279 556 303Q520 310 483 315Q482 315 481 316L486 344 Z"/>
<path id="z25550d7" d="M532 426Q498 432 522 447Q561 465 638 449Q672 442 709 434Q731 430 735 426Q744 419 739 411Q732 401 705 394Q678 390 651 401Q626 408 598 416Q567 423 532 426 Z"/>
<path id="z25550d8" d="M518 548Q508 541 478 535Q466 531 463 535Q456 541 464 556Q486 614 497 709Q498 737 513 756Q529 778 535 763Q536 757 539 749L540 718Q539 709 534 664L532 640Q528 597 527 578L518 548 Z"/>
<path id="z25550d9" d="M693 734Q709 759 725 766Q735 773 749 754Q761 733 787 621Q794 593 816 569Q829 559 818 545Q805 530 765 506Q750 499 682 514Q678 514 674 516Q620 525 518 548L527 578Q587 559 696 544Q721 540 729 548Q739 561 738 574Q720 686 706 707L693 734 Z"/>
<path id="z25550d10" d="M534 664Q538 664 543 664Q610 654 659 647Q681 643 673 631Q663 618 639 614Q600 608 532 640L534 664 Z"/>
<path id="z25550d11" d="M539 749Q546 750 556 748Q599 738 693 734L706 707Q700 703 692 697Q676 688 648 695Q588 708 540 718L539 749 Z"/>
<path id="z25550d12" d="M398 841Q376 842 391 861Q406 876 424 882Q446 888 463 884Q661 839 896 858Q917 858 922 849Q928 837 911 822Q857 780 819 788Q689 812 398 841 Z"/>
<defs>
	<clipPath id="z25550c1"><use xlink:href="#z25550d1"/></clipPath>
	<clipPath id="z25550c2"><use xlink:href="#z25550d2"/></clipPath>
	<clipPath id="z25550c3"><use xlink:href="#z25550d3"/></clipPath>
	<clipPath id="z25550c4"><use xlink:href="#z25550d4"/></clipPath>
	<clipPath id="z25550c5"><use xlink:href="#z25550d5"/></clipPath>
	<clipPath id="z25550c6"><use xlink:href="#z25550d6"/></clipPath>
	<clipPath id="z25550c7"><use xlink:href="#z25550d7"/></clipPath>
	<clipPath id="z25550c8"><use xlink:href="#z25550d8"/></clipPath>
	<clipPath id="z25550c9"><use xlink:href="#z25550d9"/></clipPath>
	<clipPath id="z25550c10"><use xlink:href="#z25550d10"/></clipPath>
	<clipPath id="z25550c11"><use xlink:href="#z25550d11"/></clipPath>
	<clipPath id="z25550c12"><use xlink:href="#z25550d12"/></clipPath>
</defs>
<path pathLength="3333" clip-path="url(#z25550c1)" d="M122 389L381 340"/>
<path pathLength="3333" clip-path="url(#z25550c2)" d="M253 99L311 149L295 805L263 891L155 802"/>
<path pathLength="3333" clip-path="url(#z25550c3)" d="M61 645L110 654L362 475"/>
<path pathLength="3333" clip-path="url(#z25550c4)" d="M569 126L654 172L692 220"/>
<path pathLength="3333" clip-path="url(#z25550c5)" d="M446 284L459 340L427 469"/>
<path pathLength="3333" clip-path="url(#z25550c6)" d="M488 318L537 327L821 277L880 326L789 396"/>
<path pathLength="3333" clip-path="url(#z25550c7)" d="M520 435L735 413"/>
<path pathLength="3333" clip-path="url(#z25550c8)" d="M468 542L495 563L527 762"/>
<path pathLength="3333" clip-path="url(#z25550c9)" d="M526 554L726 524L766 543L780 566L717 760"/>
<path pathLength="3333" clip-path="url(#z25550c10)" d="M539 656L668 633"/>
<path pathLength="3333" clip-path="url(#z25550c11)" d="M545 741L700 714"/>
<path pathLength="3333" clip-path="url(#z25550c12)" d="M393 850L458 860L822 820L919 842"/>
</svg>