<!--
AnimCJK 2016-2019 Copyright Francois Mizessyn - https://github.com/parsimonhi/animCJK
Derived from:
    MakeMeAHanzi project - https://github.com/skishore/makemeahanzi
    Arphic PL KaitiM GB font
    Arphic PL UKai font
You can redistribute and/or modify this file under the terms of the Arphic Public License
as published by Arphic Technology Co., Ltd.
You should have received a copy of this license along with this file.
If not, see http://ftp.gnu.org/non-gnu/chinese-fonts-truetype/LICENSE.
-->
<svg id="z25550" class="acjk" version="1.1" viewBox="0 0 1024 1024" xmlns="http://www.w3.org/2000/svg" xmlns:xlink="http://www.w3.org/1999/xlink">
<style>
<![CDATA[
@keyframes zk {
	to {
		stroke-dashoffset:0;
	}
}
svg.acjk path[clip-path] {
	--t:0.8s;
	animation:zk var(--t) linear forwards var(--d);
	stroke-dasharray:3337;
	stroke-dashoffset:3339;
	stroke-width:128;
	stroke-linecap:round;
	fill:none;
	stroke:#000;
}
svg.acjk path[id] {fill:#ccc;}
]]>
</style>
<path id="z25550d1" d="M323 375Q335 371 349 367Q377 357 382 353Q389 344 384 336Q377 324 346 320Q336 319 325 321C292 331 292 331 275 336Q187 367 134 377Q97 387 126 401Q165 419 244 397Q257 393 274 389C307 380 307 380 323 375Z"/>
<path id="z25550d2" d="M270 558Q269 657 266 784Q265 808 251 817C202 808 202 808 177 803Q144 790 147 799Q148 806 167 822Q230 877 244 906Q262 940 278 943Q293 944 308 910Q327 864 327 790Q320 654 320 519C320 500 320 500 320 490Q320 432 323 375C324 339 324 339 325 321Q325 225 346 156Q364 125 308 102Q274 84 255 91Q237 97 253 120Q275 147 276 181Q277 199 275 336C274 371 274 371 274 389Q273 444 271 518C270 545 270 545 270 558Z"/>
<path id="z25550d3" d="M271 518Q192 563 123 606Q90 625 68 633Q56 639 54 647Q54 656 68 668Q87 683 109 690Q121 693 139 676Q178 633 270 558C303 532 303 532 320 519Q362 483 365 480Q371 467 360 468Q339 471 320 490C307 503 288 510 271 518Z"/>
<path id="z25550d4" d="M595 167Q623 189 653 216Q669 229 685 227Q695 226 701 212Q705 196 694 165Q682 134 587 117Q571 113 564 117Q558 121 561 135Q565 145 595 167Z"/>
<path id="z25550d5" d="M481 316Q465 292 450 281Q446 277 440 281Q436 285 435 297Q441 325 411 401Q401 417 403 437Q407 456 417 470Q424 482 430 473Q437 472 445 456Q449 449 458 420Q473 369 481 352Q484 348 486 344C491 336 487 324 481 316Z"/>
<path id="z25550d6" d="M486 344Q507 354 545 346Q633 310 771 295Q789 292 797 294Q813 304 811 312Q811 316 784 386Q778 399 785 403Q792 407 807 395Q858 355 901 341Q935 328 934 319Q933 309 863 263Q839 247 766 263Q667 279 556 303Q520 310 483 315Q482 315 481 316C472 318 477 340 486 344Z"/>
<path id="z25550d7" d="M532 426Q498 432 522 447Q561 465 638 449Q672 442 709 434Q731 430 735 426Q744 419 739 411Q732 401 705 394Q678 390 651 401Q626 408 598 416Q567 423 532 426Z"/>
<path id="z25550d8" d="M518 548Q508 541 478 535Q466 531 463 535Q456 541 464 556Q486 614 497 709Q498 737 513 756Q529 778 535 763Q536 757 539 749C543 739 542 728 540 718Q539 709 534 664C533 648 533 648 532 640Q528 597 527 578C527 568 526 554 518 548Z"/>
<path id="z25550d9" d="M693 734Q709 759 725 766Q735 773 749 754Q761 733 787 621Q794 593 816 569Q829 559 818 545Q805 530 765 506Q750 499 682 514Q678 514 674 516Q620 525 518 548C508 550 517 581 527 578Q587 559 696 544Q721 540 729 548Q739 561 738 574Q720 686 706 707C701 716 687 726 693 734Z"/>
<path id="z25550d10" d="M534 664Q538 664 543 664Q610 654 659 647Q681 643 673 631Q663 618 639 614Q600 608 532 640C525 643 526 664 534 664Z"/>
<path id="z25550d11" d="M539 749Q546 750 556 748Q599 738 693 734C703 734 715 712 706 707Q700 703 692 697Q676 688 648 695Q588 708 540 718C530 720 529 749 539 749Z"/>
<path id="z25550d12" d="M398 841Q376 842 391 861Q406 876 424 882Q446 888 463 884Q661 839 896 858Q917 858 922 849Q928 837 911 822Q857 780 819 788Q689 812 398 841Z"/>
<defs>
	<clipPath id="z25550c1"><use xlink:href="#z25550d1"/></clipPath>
	<clipPath id="z25550c2"><use xlink:href="#z25550d2"/></clipPath>
	<clipPath id="z25550c3"><use xlink:href="#z25550d3"/></clipPath>
	<clipPath id="z25550c4"><use xlink:href="#z25550d4"/></clipPath>
	<clipPath id="z25550c5"><use xlink:href="#z25550d5"/></clipPath>
	<clipPath id="z25550c6"><use xlink:href="#z25550d6"/></clipPath>
	<clipPath id="z25550c7"><use xlink:href="#z25550d7"/></clipPath>
	<clipPath id="z25550c8"><use xlink:href="#z25550d8"/></clipPath>
	<clipPath id="z25550c9"><use xlink:href="#z25550d9"/></clipPath>
	<clipPath id="z25550c10"><use xlink:href="#z25550d10"/></clipPath>
	<clipPath id="z25550c11"><use xlink:href="#z25550d11"/></clipPath>
	<clipPath id="z25550c12"><use xlink:href="#z25550d12"/></clipPath>
</defs>
<path style="--d:1s;" pathLength="3333" clip-path="url(#z25550c1)" d="M122 389L381 340"/>
<path style="--d:2s;" pathLength="3333" clip-path="url(#z25550c2)" d="M253 99L311 149L295 805L263 891L155 802"/>
<path style="--d:3s;" pathLength="3333" clip-path="url(#z25550c3)" d="M61 645L110 654L362 475"/>
<path style="--d:4s;" pathLength="3333" clip-path="url(#z25550c4)" d="M569 126L654 172L692 220"/>
<path style="--d:5s;" pathLength="3333" clip-path="url(#z25550c5)" d="M446 284L459 340L427 469"/>
<path style="--d:6s;" pathLength="3333" clip-path="url(#z25550c6)" d="M488 318L537 327L821 277L880 326L789 396"/>
<path style="--d:7s;" pathLength="3333" clip-path="url(#z25550c7)" d="M520 435L735 413"/>
<path style="--d:8s;" pathLength="3333" clip-path="url(#z25550c8)" d="M468 542L495 563L527 762"/>
<path style="--d:9s;" pathLength="3333" clip-path="url(#z25550c9)" d="M526 554L726 524L766 543L780 566L717 760"/>
<path style="--d:10s;" pathLength="3333" clip-path="url(#z25550c10)" d="M539 656L668 633"/>
<path style="--d:11s;" pathLength="3333" clip-path="url(#z25550c11)" d="M545 741L700 714"/>
<path style="--d:12s;" pathLength="3333" clip-path="url(#z25550c12)" d="M393 850L458 860L822 820L919 842"/>
</svg>