<!--
AnimCJK 2016-2017 Copyright Francois Mizessyn, http://gooo.free.fr/animCJK/
Derived from:
    MakeMeAHanzi project - https://github.com/skishore/makemeahanzi
    Arphic PL KaitiM GB - https://apps.ubuntu.com/cat/applications/precise/fonts-arphic-gkai00mp/
    Arphic PL UKai - https://apps.ubuntu.com/cat/applications/fonts-arphic-ukai/
You can redistribute and/or modify this file under the terms of the Arphic Public License
as published by Arphic Technology Co., Ltd.
You should have received a copy of this license (the directory "APL") along with this file;
if not, see http://ftp.gnu.org/non-gnu/chinese-fonts-truetype/LICENSE.
-->
<svg id="z25578" class="acjk" version="1.1" viewBox="0 0 1024 1024" xmlns="http://www.w3.org/2000/svg" xmlns:xlink="http://www.w3.org/1999/xlink">
<style>
<![CDATA[
	@keyframes z25578k {
		from {
			stroke:#c00;
			stroke-dashoffset:3000;
		}
		75% {
			stroke:#c00;
			stroke-dashoffset:0;
		}
		to {
			stroke:#000;
		}
	}
	#z25578 path[clip-path] {
		animation:z25578k 1s linear both;
		stroke-dasharray:3000;
		stroke-width:128;
		stroke-linecap:round;
		fill:none;
	}
	#z25578 path[clip-path="url(#z25578c1)"] {animation-delay:1s;}
	#z25578 path[clip-path="url(#z25578c2)"] {animation-delay:2s;}
	#z25578 path[clip-path="url(#z25578c3)"] {animation-delay:3s;}
	#z25578 path[clip-path="url(#z25578c4)"] {animation-delay:4s;}
	#z25578 path[clip-path="url(#z25578c5)"] {animation-delay:5s;}
	#z25578 path[clip-path="url(#z25578c6)"] {animation-delay:6s;}
	#z25578 path[clip-path="url(#z25578c7)"] {animation-delay:7s;}
	#z25578 path[clip-path="url(#z25578c8)"] {animation-delay:8s;}
	#z25578 path[clip-path="url(#z25578c9)"] {animation-delay:9s;}
	#z25578 path[clip-path="url(#z25578c10)"] {animation-delay:10s;}
	#z25578 path[clip-path="url(#z25578c11)"] {animation-delay:11s;}
	#z25578 path[clip-path="url(#z25578c12)"] {animation-delay:12s;}
	#z25578 path {fill:#ccc;}
]]>
</style>
<g transform="scale(1,-1) translate(0,-900)">
	<path id="z25578d1" d="M275 528Q353 555 357 558Q364 565 360 574Q353 584 325 588Q300 591 277 580L229 559Q118 529 109 527Q76 518 102 505Q141 486 191 504Q209 510 228 515L275 528Z"/>
	<path id="z25578d2" d="M224 318Q223 236 222 132Q221 110 209 100Q203 97 148 106Q117 119 119 109Q120 102 139 87Q193 39 206 13Q221 -18 235 -20Q248 -21 264 12Q282 55 281 126Q274 241 273 356L273 384Q272 457 275 528L277 580Q289 713 297 739Q313 767 260 789Q229 807 209 801Q193 794 208 772Q227 747 229 714Q230 698 229 559L228 515Q227 448 225 357L224 318Z"/>
	<path id="z25578d3" d="M225 357Q158 321 100 285Q70 269 51 263Q41 259 38 251Q37 244 50 231Q66 218 86 211Q92 210 117 226Q163 274 224 318L273 356Q286 369 304 379Q320 389 329 401Q335 411 325 412Q310 411 273 384L225 357Z"/>
	<path id="z25578d4" d="M448 621Q482 637 512 655Q548 674 579 686Q594 687 596 695Q597 705 587 713Q532 743 504 735Q498 731 499 722Q500 688 359 598Q356 591 361 588Q367 588 425 609L448 621Z"/>
	<path id="z25578d5" d="M476 468L566 492Q573 491 580 503Q580 512 561 518Q531 533 478 508L441 495Q410 485 379 476Q355 470 329 463Q307 459 325 446Q349 433 387 441Q406 450 435 456L476 468Z"/>
	<path id="z25578d6" d="M475 386Q475 426 476 468L478 508Q479 557 485 581Q486 593 480 598Q462 613 448 621L425 609Q435 593 441 495L438 366Q438 183 416 121Q410 85 438 42Q448 26 455 22Q465 21 470 32Q480 60 478 88Q474 236 475 362L475 386Z"/>
	<path id="z25578d7" d="M435 456Q396 348 287 198Q283 189 292 189Q308 189 386 284Q413 318 438 366L440 457L435 456Z"/>
	<path id="z25578d8" d="M475 362Q502 335 539 292Q546 282 558 281Q565 280 570 289Q574 299 571 319Q568 338 543 356Q516 371 487 384Q480 387 475 386L475 362Z"/>
	<path id="z25578d9" d="M564 444Q592 371 612 363Q622 359 632 371Q636 381 635 399Q626 432 575 464Q568 468 564 459Q560 453 564 444Z"/>
	<path id="z25578d10" d="M802 525Q790 497 752 433Q745 417 761 422Q795 447 815 465Q866 513 880 520Q898 532 886 546Q873 559 847 569Q823 579 812 575Q802 571 807 560Q811 544 802 525Z"/>
	<path id="z25578d11" d="M706 360Q710 403 726 629Q726 668 746 712Q753 725 742 735Q723 753 686 763Q662 769 655 763Q646 756 653 745Q707 654 659 340Q637 214 566 140Q547 119 522 98Q512 91 512 86Q513 82 524 83Q536 80 563 95Q662 137 701 318L706 360Z"/>
	<path id="z25578d12" d="M701 318Q764 168 819 86Q835 59 854 57Q909 57 955 57Q976 57 976 61Q979 67 957 83Q843 165 807 211Q750 286 706 360L701 318Z"/>
	<defs>
		<clipPath id="z25578c1"><use xlink:href="#z25578d1"/></clipPath>
		<clipPath id="z25578c2"><use xlink:href="#z25578d2"/></clipPath>
		<clipPath id="z25578c3"><use xlink:href="#z25578d3"/></clipPath>
		<clipPath id="z25578c4"><use xlink:href="#z25578d4"/></clipPath>
		<clipPath id="z25578c5"><use xlink:href="#z25578d5"/></clipPath>
		<clipPath id="z25578c6"><use xlink:href="#z25578d6"/></clipPath>
		<clipPath id="z25578c7"><use xlink:href="#z25578d7"/></clipPath>
		<clipPath id="z25578c8"><use xlink:href="#z25578d8"/></clipPath>
		<clipPath id="z25578c9"><use xlink:href="#z25578d9"/></clipPath>
		<clipPath id="z25578c10"><use xlink:href="#z25578d10"/></clipPath>
		<clipPath id="z25578c11"><use xlink:href="#z25578d11"/></clipPath>
		<clipPath id="z25578c12"><use xlink:href="#z25578d12"/></clipPath>
	</defs>
	<path pathLength="2999" clip-path="url(#z25578c1)" d="M98 518L355 575"/>
	<path pathLength="2999" clip-path="url(#z25578c2)" d="M207 796L263 743L251 115L220 33L125 107"/>
	<path pathLength="2999" clip-path="url(#z25578c3)" d="M44 249L97 249L323 405"/>
	<path pathLength="2999" clip-path="url(#z25578c4)" d="M590 699L515 698L366 595"/>
	<path pathLength="2999" clip-path="url(#z25578c5)" d="M324 457L571 505"/>
	<path pathLength="2999" clip-path="url(#z25578c6)" d="M433 605L460 575L456 32"/>
	<path pathLength="2999" clip-path="url(#z25578c7)" d="M436 447L409 353L292 198"/>
	<path pathLength="2999" clip-path="url(#z25578c8)" d="M481 375L563 287"/>
	<path pathLength="2999" clip-path="url(#z25578c9)" d="M571 459L622 366"/>
	<path pathLength="2999" clip-path="url(#z25578c10)" d="M813 568L844 526L758 428"/>
	<path pathLength="2999" clip-path="url(#z25578c11)" d="M657 757L709 710L678 318L619 171L522 88"/>
	<path pathLength="2999" clip-path="url(#z25578c12)" d="M733 247L723 306L859 103L968 64"/>
</g>
</svg>