<!--
AnimCJK 2016-2018 Copyright Francois Mizessyn, https://github.com/parsimonhi/animCJK
Derived from:
    MakeMeAHanzi project - https://github.com/skishore/makemeahanzi
    Arphic PL KaitiM GB - https://apps.ubuntu.com/cat/applications/precise/fonts-arphic-gkai00mp/
    Arphic PL UKai - https://apps.ubuntu.com/cat/applications/fonts-arphic-ukai/
You can redistribute and/or modify this file under the terms of the Arphic Public License
as published by Arphic Technology Co., Ltd.
You should have received a copy of this license (the directory "APL") along with this file;
if not, see http://ftp.gnu.org/non-gnu/chinese-fonts-truetype/LICENSE.
-->
<svg id="z25588" class="acjk" version="1.1" viewBox="0 0 1024 1024" xmlns="http://www.w3.org/2000/svg" xmlns:xlink="http://www.w3.org/1999/xlink">
<style>
<![CDATA[
@keyframes z25588k {
	from {
		stroke:#c00;
		stroke-dashoffset:3334;
	}
	75% {
		stroke:#c00;
		stroke-dashoffset:0;
	}
	to {
		stroke:#000;
	}
}
#z25588 path[clip-path] {
	animation:z25588k 1s linear both;
	stroke-dasharray:3334;
	stroke-width:128;
	stroke-linecap:round;
	fill:none;
}
#z25588 path[clip-path="url(#z25588c1)"] {animation-delay:1s;}
#z25588 path[clip-path="url(#z25588c2)"] {animation-delay:2s;}
#z25588 path[clip-path="url(#z25588c3)"] {animation-delay:3s;}
#z25588 path[clip-path="url(#z25588c4)"] {animation-delay:4s;}
#z25588 path[clip-path="url(#z25588c5)"] {animation-delay:5s;}
#z25588 path[clip-path="url(#z25588c6)"] {animation-delay:6s;}
#z25588 path[clip-path="url(#z25588c7)"] {animation-delay:7s;}
#z25588 path[clip-path="url(#z25588c8)"] {animation-delay:8s;}
#z25588 path[clip-path="url(#z25588c9)"] {animation-delay:9s;}
#z25588 path[clip-path="url(#z25588c10)"] {animation-delay:10s;}
#z25588 path[clip-path="url(#z25588c11)"] {animation-delay:11s;}
#z25588 path[clip-path="url(#z25588c12)"] {animation-delay:12s;}
#z25588 path {fill:#ccc;}
]]>
</style>
<path id="z25588d1" d="M323 381Q342 374 365 367Q396 357 402 351Q409 344 404 335Q397 325 367 320Q345 317 325 325L280 345Q213 370 137 387Q103 397 130 410Q172 428 242 405Q258 399 279 394L323 381 Z"/>
<path id="z25588d2" d="M277 567Q276 654 276 763Q275 787 263 795Q253 802 232 795Q207 789 183 784Q152 774 155 783Q156 790 175 803Q239 849 256 877Q275 908 291 909Q304 910 317 878Q333 836 331 769Q324 649 322 530L322 498Q321 440 323 381L325 325Q325 223 343 159Q359 131 308 111Q277 95 259 100Q243 106 258 127Q277 152 279 183Q280 199 280 345L279 394Q278 451 277 525L277 567 Z"/>
<path id="z25588d3" d="M277 525Q192 576 118 626Q85 645 64 653Q52 659 50 667Q50 676 64 689Q83 702 105 710Q120 714 130 701Q197 632 277 567L322 530Q338 515 356 503Q375 490 385 476Q391 463 380 464Q376 464 322 498L277 525 Z"/>
<path id="z25588d4" d="M607 113Q571 147 469 201Q465 210 469 212Q508 212 622 166Q635 151 703 138Q719 137 722 130Q725 120 714 110Q659 71 626 76Q620 80 619 90Q620 103 607 113 Z"/>
<path id="z25588d5" d="M439 291Q490 349 501 352Q508 352 513 343Q517 333 515 311Q511 284 440 256Q430 252 424 254Q420 255 420 266Q421 273 439 291 Z"/>
<path id="z25588d6" d="M547 232Q583 298 604 304Q614 307 623 293Q626 283 621 264Q615 248 596 237Q568 216 555 211Q548 208 545 217Q542 224 547 232 Z"/>
<path id="z25588d7" d="M742 215Q720 245 663 299Q653 314 669 312Q708 294 776 258Q795 245 817 239Q836 232 829 215Q819 199 796 183Q777 168 764 169Q752 170 755 182Q756 198 742 215 Z"/>
<path id="z25588d8" d="M563 420Q758 377 763 372Q770 365 767 358Q760 348 735 342Q710 336 684 347Q636 363 584 376Q527 389 460 396Q429 400 451 416Q484 434 529 427L563 420 Z"/>
<path id="z25588d9" d="M566 537Q617 527 832 507Q850 506 853 498Q857 488 842 476Q791 445 736 463Q679 478 594 498Q587 499 578 502L520 514Q456 524 385 540Q367 543 382 557Q410 579 442 570Q473 558 510 550L566 537 Z"/>
<path id="z25588d10" d="M539 609Q551 573 566 537L578 502Q579 499 580 497Q584 485 590 475Q600 465 596 452Q586 436 563 420L529 427Q536 463 520 514L510 550Q465 694 346 823Q342 827 338 832Q334 841 343 841Q355 842 390 814Q450 772 500 687L511 668Q520 653 529 632L539 609 Z"/>
<path id="z25588d11" d="M678 787Q712 741 735 673Q744 640 763 625Q779 612 762 598Q743 582 713 568Q694 561 673 570Q624 595 553 606Q546 606 539 609L529 632Q556 641 666 612Q682 606 684 626Q684 687 639 758L617 787Q607 796 598 806Q547 849 417 883Q402 886 411 894Q418 900 445 898Q586 883 649 821L678 787 Z"/>
<path id="z25588d12" d="M649 821Q751 923 790 921Q866 918 926 904Q957 898 954 890Q953 886 921 877Q777 841 747 829Q734 823 678 787L639 758Q603 730 568 698Q538 670 511 668L500 687Q537 708 617 787L649 821 Z"/>
<defs>
	<clipPath id="z25588c1"><use xlink:href="#z25588d1"/></clipPath>
	<clipPath id="z25588c2"><use xlink:href="#z25588d2"/></clipPath>
	<clipPath id="z25588c3"><use xlink:href="#z25588d3"/></clipPath>
	<clipPath id="z25588c4"><use xlink:href="#z25588d4"/></clipPath>
	<clipPath id="z25588c5"><use xlink:href="#z25588d5"/></clipPath>
	<clipPath id="z25588c6"><use xlink:href="#z25588d6"/></clipPath>
	<clipPath id="z25588c7"><use xlink:href="#z25588d7"/></clipPath>
	<clipPath id="z25588c8"><use xlink:href="#z25588d8"/></clipPath>
	<clipPath id="z25588c9"><use xlink:href="#z25588d9"/></clipPath>
	<clipPath id="z25588c10"><use xlink:href="#z25588d10"/></clipPath>
	<clipPath id="z25588c11"><use xlink:href="#z25588d11"/></clipPath>
	<clipPath id="z25588c12"><use xlink:href="#z25588d12"/></clipPath>
</defs>
<path pathLength="3333" clip-path="url(#z25588c1)" d="M126 397L396 340"/>
<path pathLength="3333" clip-path="url(#z25588c2)" d="M257 108L312 160L302 785L273 857L167 786"/>
<path pathLength="3333" clip-path="url(#z25588c3)" d="M58 668L116 669L378 470"/>
<path pathLength="3333" clip-path="url(#z25588c4)" d="M718 123L638 113L476 204"/>
<path pathLength="3333" clip-path="url(#z25588c5)" d="M428 258L502 347"/>
<path pathLength="3333" clip-path="url(#z25588c6)" d="M553 216L615 298"/>
<path pathLength="3333" clip-path="url(#z25588c7)" d="M764 178L782 227L666 306"/>
<path pathLength="3333" clip-path="url(#z25588c8)" d="M450 403L529 407L763 359"/>
<path pathLength="3333" clip-path="url(#z25588c9)" d="M381 546L759 486L847 492"/>
<path pathLength="3333" clip-path="url(#z25588c10)" d="M535 433L562 474L508 622L435 745L342 834"/>
<path pathLength="3333" clip-path="url(#z25588c11)" d="M536 628L708 597L727 618L684 728L582 842L413 891"/>
<path pathLength="3333" clip-path="url(#z25588c12)" d="M505 684L753 868L944 892"/>
</svg>