<!--
AnimCJK 2016-2019 Copyright Francois Mizessyn - https://github.com/parsimonhi/animCJK
Derived from:
    MakeMeAHanzi project - https://github.com/skishore/makemeahanzi
    Arphic PL KaitiM GB font
    Arphic PL UKai font
You can redistribute and/or modify this file under the terms of the Arphic Public License
as published by Arphic Technology Co., Ltd.
You should have received a copy of this license along with this file.
If not, see http://ftp.gnu.org/non-gnu/chinese-fonts-truetype/LICENSE.
-->
<svg id="z25592" class="acjk" version="1.1" viewBox="0 0 1024 1024" xmlns="http://www.w3.org/2000/svg" xmlns:xlink="http://www.w3.org/1999/xlink">
<style>
<![CDATA[
@keyframes zk {
	to {
		stroke-dashoffset:0;
	}
}
svg.acjk path[clip-path] {
	--t:0.8s;
	animation:zk var(--t) linear forwards var(--d);
	stroke-dasharray:3337;
	stroke-dashoffset:3339;
	stroke-width:128;
	stroke-linecap:round;
	fill:none;
	stroke:#000;
}
svg.acjk path[id] {fill:#ccc;}
]]>
</style>
<path id="z25592d1" d="M328 362Q347 355 371 350Q404 340 409 335Q416 328 412 319Q405 309 375 303Q351 299 330 308C297 321 297 321 281 328Q211 352 142 363Q108 372 134 386Q179 407 232 389Q254 382 281 375C312 366 312 366 328 362Z"/>
<path id="z25592d2" d="M278 555Q277 646 275 762Q274 784 262 793Q256 796 192 788Q161 778 163 787Q164 794 184 808Q244 854 259 880Q275 911 291 912Q304 913 318 879Q334 836 333 766Q326 643 325 521C325 500 325 500 325 490Q325 426 328 362C329 326 329 326 330 308Q330 227 349 165Q365 137 312 115Q281 97 261 103Q245 110 260 131Q279 158 281 190Q282 206 281 328C281 359 281 359 281 375Q280 435 278 515C278 542 278 542 278 555Z"/>
<path id="z25592d3" d="M325 521Q341 506 360 496Q379 486 388 472Q395 459 385 460Q370 460 325 490C294 507 294 507 278 515Q199 555 130 596Q96 615 74 620Q62 626 60 633Q59 642 72 656Q91 671 112 679Q127 683 138 672Q220 594 278 555C309 532 309 532 325 521Z"/>
<path id="z25592d4" d="M660 291Q675 288 836 273Q846 274 856 262Q857 250 835 239Q805 217 741 234Q663 246 650 252C621 257 621 257 607 259Q577 259 457 272Q429 273 450 292Q477 319 523 311Q550 305 580 304C633 295 633 295 660 291Z"/>
<path id="z25592d5" d="M650 252Q653 170 675 130Q681 120 670 107Q618 65 589 75Q576 79 582 94Q607 136 606 201Q606 231 607 259C606 318 606 318 606 348Q605 424 597 458Q596 473 602 489Q608 498 613 510Q623 525 637 517Q647 508 648 443Q644 386 646 312C649 272 649 272 650 252Z"/>
<path id="z25592d6" d="M580 304Q540 397 389 510Q374 520 388 522Q398 523 431 508Q470 493 506 464Q537 439 571 397Q592 372 606 348C629 310 597 262 580 304Z"/>
<path id="z25592d7" d="M646 312Q703 388 765 460Q784 482 818 485Q879 491 944 482Q960 481 962 477Q965 471 952 465Q799 401 786 391Q759 378 660 291C648 279 636 299 646 312Z"/>
<path id="z25592d8" d="M495 570Q488 566 470 563Q458 559 455 564Q448 570 456 585Q483 646 495 746Q496 776 513 797Q529 818 535 803Q538 796 539 786C539 771 539 771 539 764Q539 752 537 738Q533 711 530 690C528 675 528 675 527 668Q520 617 520 600C520 587 507 575 495 570Z"/>
<path id="z25592d9" d="M706 773Q719 792 733 798Q743 805 757 786Q770 764 795 644Q804 616 825 592Q838 580 827 567Q812 551 772 527Q757 521 683 536Q677 536 577 555Q532 564 495 570C482 572 507 603 520 600Q586 582 703 567Q728 564 736 573Q748 586 746 600Q728 712 719 730Q715 742 702 744C692 746 700 765 706 773Z"/>
<path id="z25592d10" d="M530 690Q537 691 546 690Q625 680 683 673Q704 670 697 659Q687 646 665 641Q641 635 527 668C520 670 523 690 530 690Z"/>
<path id="z25592d11" d="M539 786Q548 787 559 787Q644 777 706 773C716 773 711 747 702 744Q678 734 539 764C532 765 532 786 539 786Z"/>
<path id="z25592d12" d="M401 875Q380 876 395 894Q408 907 425 913Q444 920 461 916Q635 877 889 898Q908 899 913 891Q919 879 904 865Q852 825 818 832Q731 847 401 875Z"/>
<defs>
	<clipPath id="z25592c1"><use xlink:href="#z25592d1"/></clipPath>
	<clipPath id="z25592c2"><use xlink:href="#z25592d2"/></clipPath>
	<clipPath id="z25592c3"><use xlink:href="#z25592d3"/></clipPath>
	<clipPath id="z25592c4"><use xlink:href="#z25592d4"/></clipPath>
	<clipPath id="z25592c5"><use xlink:href="#z25592d5"/></clipPath>
	<clipPath id="z25592c6"><use xlink:href="#z25592d6"/></clipPath>
	<clipPath id="z25592c7"><use xlink:href="#z25592d7"/></clipPath>
	<clipPath id="z25592c8"><use xlink:href="#z25592d8"/></clipPath>
	<clipPath id="z25592c9"><use xlink:href="#z25592d9"/></clipPath>
	<clipPath id="z25592c10"><use xlink:href="#z25592d10"/></clipPath>
	<clipPath id="z25592c11"><use xlink:href="#z25592d11"/></clipPath>
	<clipPath id="z25592c12"><use xlink:href="#z25592d12"/></clipPath>
</defs>
<path style="--d:1s;" pathLength="3333" clip-path="url(#z25592c1)" d="M131 375L408 322"/>
<path style="--d:2s;" pathLength="3333" clip-path="url(#z25592c2)" d="M259 111L315 159L302 788L279 859L170 788"/>
<path style="--d:3s;" pathLength="3333" clip-path="url(#z25592c3)" d="M65 634L119 642L383 465"/>
<path style="--d:4s;" pathLength="3333" clip-path="url(#z25592c4)" d="M450 280L851 256"/>
<path style="--d:5s;" pathLength="3333" clip-path="url(#z25592c5)" d="M587 81L639 134L627 516"/>
<path style="--d:6s;" pathLength="3333" clip-path="url(#z25592c6)" d="M600 307L528 415L390 517"/>
<path style="--d:7s;" pathLength="3333" clip-path="url(#z25592c7)" d="M653 297L786 432L952 474"/>
<path style="--d:8s;" pathLength="3333" clip-path="url(#z25592c8)" d="M461 572L494 614L522 801"/>
<path style="--d:9s;" pathLength="3333" clip-path="url(#z25592c9)" d="M506 574L723 547L784 576L747 733L710 774"/>
<path style="--d:10s;" pathLength="3333" clip-path="url(#z25592c10)" d="M533 675L691 660"/>
<path style="--d:11s;" pathLength="3333" clip-path="url(#z25592c11)" d="M547 779L702 764"/>
<path style="--d:12s;" pathLength="3333" clip-path="url(#z25592c12)" d="M396 883L817 862L911 880"/>
</svg>