<!--
AnimCJK 2016-2018 Copyright Francois Mizessyn - https://github.com/parsimonhi/animCJK
Derived from:
    MakeMeAHanzi project - https://github.com/skishore/makemeahanzi
    Arphic PL KaitiM GB - https://apps.ubuntu.com/cat/applications/precise/fonts-arphic-gkai00mp/
    Arphic PL UKai - https://apps.ubuntu.com/cat/applications/fonts-arphic-ukai/
You can redistribute and/or modify this file under the terms of the Arphic Public License
as published by Arphic Technology Co., Ltd.
You should have received a copy of this license (the directory "APL") along with this file;
if not, see http://ftp.gnu.org/non-gnu/chinese-fonts-truetype/LICENSE.
-->
<svg id="z25619" class="acjk" version="1.1" viewBox="0 0 1024 1024" xmlns="http://www.w3.org/2000/svg" xmlns:xlink="http://www.w3.org/1999/xlink">
<style>
<![CDATA[
@keyframes z25619k {
	from {
		stroke:#c00;
		stroke-dashoffset:3334;
	}
	75% {
		stroke:#c00;
		stroke-dashoffset:0;
	}
	to {
		stroke:#000;
	}
}
#z25619 path[clip-path] {
	animation:z25619k 1s linear both;
	stroke-dasharray:3334;
	stroke-width:128;
	stroke-linecap:round;
	fill:none;
}
#z25619 path[clip-path="url(#z25619c1)"] {animation-delay:1s;}
#z25619 path[clip-path="url(#z25619c2)"] {animation-delay:2s;}
#z25619 path[clip-path="url(#z25619c3)"] {animation-delay:3s;}
#z25619 path[clip-path="url(#z25619c4)"] {animation-delay:4s;}
#z25619 path[clip-path="url(#z25619c5)"] {animation-delay:5s;}
#z25619 path[clip-path="url(#z25619c6)"] {animation-delay:6s;}
#z25619 path[clip-path="url(#z25619c7)"] {animation-delay:7s;}
#z25619 path[clip-path="url(#z25619c8)"] {animation-delay:8s;}
#z25619 path[clip-path="url(#z25619c9)"] {animation-delay:9s;}
#z25619 path[clip-path="url(#z25619c10)"] {animation-delay:10s;}
#z25619 path[clip-path="url(#z25619c11)"] {animation-delay:11s;}
#z25619 path[clip-path="url(#z25619c12)"] {animation-delay:12s;}
#z25619 path {fill:#ccc;}
]]>
</style>
<path id="z25619d1" d="M323 371Q405 344 410 339Q417 332 412 323Q405 313 375 308Q348 305 325 316L277 337Q177 370 130 379Q96 388 122 402Q164 420 225 400Q249 391 277 386L323 371 Z"/>
<path id="z25619d2" d="M274 569Q271 663 270 786Q269 811 256 820Q250 823 192 810Q161 797 163 807Q164 814 182 829Q239 878 252 906Q268 937 282 940Q297 941 311 908Q329 865 329 793Q322 660 321 529L321 498Q321 434 323 371L325 316Q337 183 345 157Q361 129 308 107Q277 89 257 95Q241 102 256 124Q275 149 277 182Q278 200 277 337L277 386Q276 447 274 529L274 569 Z"/>
<path id="z25619d3" d="M274 529Q70 662 58 669Q43 675 41 684Q41 693 55 705Q74 718 97 725Q113 728 122 716Q210 620 274 569L321 529Q330 520 341 512Q360 499 369 484Q375 471 364 472Q340 478 321 498L274 529 Z"/>
<path id="z25619d4" d="M509 153Q546 208 574 221Q586 225 596 215Q602 205 602 190Q593 151 524 121Q511 114 502 117Q496 118 497 129Q497 139 509 153 Z"/>
<path id="z25619d5" d="M745 94Q730 116 666 195Q657 210 673 207Q700 191 783 134Q799 119 822 110Q841 100 831 85Q819 69 795 56Q774 44 762 47Q750 48 755 60Q758 76 745 94 Z"/>
<path id="z25619d6" d="M629 312Q797 266 800 262Q807 255 803 247Q796 237 769 231Q741 227 715 239Q622 276 499 298Q465 305 490 319Q529 338 580 324Q581 323 583 324L629 312 Z"/>
<path id="z25619d7" d="M624 430Q703 412 770 402Q795 398 785 384Q775 369 747 364Q716 361 639 386L573 404Q525 414 483 426Q467 430 488 445Q501 455 531 449Q547 445 563 443L624 430 Z"/>
<path id="z25619d8" d="M581 551Q653 524 854 523Q858 522 863 522Q881 521 884 514Q888 504 874 492Q823 461 768 477Q710 490 621 509Q608 510 596 514L537 525Q473 535 406 548Q388 551 402 565Q430 586 481 573Q500 567 523 563L581 551 Z"/>
<path id="z25619d9" d="M523 563Q460 702 351 812Q345 818 342 823Q338 833 348 833Q378 833 466 742Q481 724 496 705Q550 632 581 551L596 514Q608 480 619 447Q620 438 624 430L639 386Q655 344 655 339Q645 326 629 312L583 324Q587 336 576 391Q575 397 573 404L563 443Q550 485 537 525L523 563 Z"/>
<path id="z25619d10" d="M665 684Q794 651 795 651Q804 644 799 635Q792 625 764 618Q734 612 706 624Q675 634 641 643Q604 652 560 656Q526 663 551 678Q582 696 631 691L665 684 Z"/>
<path id="z25619d11" d="M676 821Q683 779 689 747Q695 717 692 711Q679 695 665 684L631 691Q635 701 633 827L676 821 Z"/>
<path id="z25619d12" d="M633 827Q542 837 436 851Q417 852 431 869Q444 882 462 888Q481 892 498 889Q628 855 911 855Q930 855 935 846Q939 836 924 822Q876 785 821 795Q763 805 676 821L633 827 Z"/>
<defs>
	<clipPath id="z25619c1"><use xlink:href="#z25619d1"/></clipPath>
	<clipPath id="z25619c2"><use xlink:href="#z25619d2"/></clipPath>
	<clipPath id="z25619c3"><use xlink:href="#z25619d3"/></clipPath>
	<clipPath id="z25619c4"><use xlink:href="#z25619d4"/></clipPath>
	<clipPath id="z25619c5"><use xlink:href="#z25619d5"/></clipPath>
	<clipPath id="z25619c6"><use xlink:href="#z25619d6"/></clipPath>
	<clipPath id="z25619c7"><use xlink:href="#z25619d7"/></clipPath>
	<clipPath id="z25619c8"><use xlink:href="#z25619d8"/></clipPath>
	<clipPath id="z25619c9"><use xlink:href="#z25619d9"/></clipPath>
	<clipPath id="z25619c10"><use xlink:href="#z25619d10"/></clipPath>
	<clipPath id="z25619c11"><use xlink:href="#z25619d11"/></clipPath>
	<clipPath id="z25619c12"><use xlink:href="#z25619d12"/></clipPath>
</defs>
<path pathLength="3333" clip-path="url(#z25619c1)" d="M117 390L410 331"/>
<path pathLength="3333" clip-path="url(#z25619c2)" d="M255 101L311 159L297 817L268 888L170 810"/>
<path pathLength="3333" clip-path="url(#z25619c3)" d="M50 685L101 686L365 480"/>
<path pathLength="3333" clip-path="url(#z25619c4)" d="M503 124L584 217"/>
<path pathLength="3333" clip-path="url(#z25619c5)" d="M762 52L787 99L671 200"/>
<path pathLength="3333" clip-path="url(#z25619c6)" d="M489 307L798 254"/>
<path pathLength="3333" clip-path="url(#z25619c7)" d="M484 430L781 389"/>
<path pathLength="3333" clip-path="url(#z25619c8)" d="M405 557L792 498L879 508"/>
<path pathLength="3333" clip-path="url(#z25619c9)" d="M589 332L615 366L532 601L455 722L347 826"/>
<path pathLength="3333" clip-path="url(#z25619c10)" d="M550 666L796 639"/>
<path pathLength="3333" clip-path="url(#z25619c11)" d="M637 694L663 728L646 823"/>
<path pathLength="3333" clip-path="url(#z25619c12)" d="M432 858L846 824L931 837"/>
</svg>