<!--
AnimCJK 2016-2018 Copyright Francois Mizessyn - https://github.com/parsimonhi/animCJK
Derived from:
    MakeMeAHanzi project - https://github.com/skishore/makemeahanzi
    Arphic PL KaitiM GB - https://apps.ubuntu.com/cat/applications/precise/fonts-arphic-gkai00mp/
    Arphic PL UKai - https://apps.ubuntu.com/cat/applications/fonts-arphic-ukai/
You can redistribute and/or modify this file under the terms of the Arphic Public License
as published by Arphic Technology Co., Ltd.
You should have received a copy of this license (the directory "APL") along with this file;
if not, see http://ftp.gnu.org/non-gnu/chinese-fonts-truetype/LICENSE.
-->
<svg id="z25612" class="acjk" version="1.1" viewBox="0 0 1024 1024" xmlns="http://www.w3.org/2000/svg" xmlns:xlink="http://www.w3.org/1999/xlink">
<style>
<![CDATA[
@keyframes z25612k {
	from {
		stroke:#ccc;
		stroke-dashoffset:3334;
	}
	1% {
		stroke:#c00;
		stroke-dashoffset:3334;
	}
	75% {
		stroke:#c00;
		stroke-dashoffset:0;
	}
	to {
		stroke:#000;
	}
}
#z25612 path[clip-path] {
	animation:z25612k 1s linear both;
	stroke-dasharray:3334;
	stroke-width:128;
	stroke-linecap:round;
	fill:none;
}
#z25612 path[clip-path="url(#z25612c1)"] {animation-delay:1s;}
#z25612 path[clip-path="url(#z25612c2)"] {animation-delay:2s;}
#z25612 path[clip-path="url(#z25612c3)"] {animation-delay:3s;}
#z25612 path[clip-path="url(#z25612c4)"] {animation-delay:4s;}
#z25612 path[clip-path="url(#z25612c5)"] {animation-delay:5s;}
#z25612 path[clip-path="url(#z25612c6)"] {animation-delay:6s;}
#z25612 path[clip-path="url(#z25612c7)"] {animation-delay:7s;}
#z25612 path[clip-path="url(#z25612c8)"] {animation-delay:8s;}
#z25612 path[clip-path="url(#z25612c9)"] {animation-delay:9s;}
#z25612 path[clip-path="url(#z25612c10)"] {animation-delay:10s;}
#z25612 path[clip-path="url(#z25612c11)"] {animation-delay:11s;}
#z25612 path[clip-path="url(#z25612c12)"] {animation-delay:12s;}
#z25612 path[clip-path="url(#z25612c13)"] {animation-delay:13s;}
#z25612 path {fill:#ccc;}
]]>
</style>
<path id="z25612d1" d="M308 361Q321 355 340 351Q373 341 377 335Q384 328 380 319Q373 309 343 304Q327 303 311 307L262 325Q193 352 114 367Q80 376 106 390Q149 409 201 392Q229 383 261 375L308 361 Z"/>
<path id="z25612d2" d="M311 307Q324 175 332 154Q348 126 296 103Q265 84 245 91Q229 97 243 119Q264 144 264 178Q265 194 262 325L261 375Q260 436 258 520L257 566Q256 659 252 776Q251 800 238 809Q232 813 164 801Q133 789 135 799Q136 806 156 820Q217 868 233 895Q251 926 266 928Q279 929 294 896Q310 853 310 782Q304 653 305 525L305 491Q305 425 308 361L311 307 Z"/>
<path id="z25612d3" d="M258 520Q63 643 60 645Q44 645 40 662Q39 672 55 685Q74 700 99 706Q115 710 125 696Q174 642 257 566L305 525Q324 507 345 492Q364 479 373 464Q379 451 368 452Q350 455 305 491L258 520 Z"/>
<path id="z25612d4" d="M763 273Q782 228 807 211Q823 195 809 177Q793 164 744 141Q728 134 707 142Q629 172 513 192L533 222Q534 221 539 220Q617 205 691 190Q710 186 718 194Q725 198 724 211Q720 242 714 268L763 273 Z"/>
<path id="z25612d5" d="M517 345Q523 345 531 344Q609 325 776 307Q786 306 788 297Q788 288 763 273L714 268Q713 267 711 268Q605 296 520 310L517 345 Z"/>
<path id="z25612d6" d="M513 192Q501 183 484 177Q465 167 454 172Q442 179 449 192Q467 219 467 285Q466 292 466 301Q463 460 427 572Q397 660 326 782Q322 789 319 795Q318 805 327 803Q358 797 429 678Q439 656 451 632Q506 497 517 345L520 310Q523 252 533 222L513 192 Z"/>
<path id="z25612d7" d="M743 464Q821 440 824 439Q831 432 827 425Q820 416 797 411Q773 407 752 416L703 435Q637 453 623 458L578 467Q554 470 530 474Q500 480 522 492Q546 505 582 503L622 493Q659 483 701 474L743 464 Z"/>
<path id="z25612d8" d="M623 458Q624 436 626 429Q630 410 618 400Q599 384 577 376Q565 372 558 376Q551 380 557 394Q572 424 578 467L582 503Q583 531 587 578L622 571Q622 525 622 493L623 458 Z"/>
<path id="z25612d9" d="M728 549Q735 506 743 464L752 416Q764 368 762 363Q759 359 755 355Q730 339 712 334Q700 330 694 336Q687 342 693 353Q705 377 703 435L701 474Q698 511 695 556L728 549 Z"/>
<path id="z25612d10" d="M635 603Q674 588 838 581Q883 581 888 572Q892 562 878 552Q832 519 766 540Q748 543 728 549L695 556Q676 559 657 564Q638 567 622 571L587 578Q533 585 477 597Q461 600 474 613Q492 628 515 629L554 621Q573 614 597 610L635 603 Z"/>
<path id="z25612d11" d="M515 629Q548 690 526 787Q522 817 507 833Q483 866 518 910Q521 913 526 917Q536 924 548 908Q573 877 659 798Q677 785 678 778Q679 765 660 775Q582 808 576 806Q569 800 569 781Q576 693 583 670Q587 651 575 640Q563 627 554 621L515 629 Z"/>
<path id="z25612d12" d="M734 712Q800 672 834 656Q850 652 847 642Q843 629 826 610Q810 594 790 590Q777 590 777 607Q778 620 769 634Q750 659 718 696L734 712 Z"/>
<path id="z25612d13" d="M718 696Q684 662 649 616Q643 609 635 603L597 610Q627 631 690 727Q781 860 835 865Q916 865 954 849Q961 845 952 836Q940 829 844 789Q787 765 734 712L718 696 Z"/>
<defs>
	<clipPath id="z25612c1"><use xlink:href="#z25612d1"/></clipPath>
	<clipPath id="z25612c2"><use xlink:href="#z25612d2"/></clipPath>
	<clipPath id="z25612c3"><use xlink:href="#z25612d3"/></clipPath>
	<clipPath id="z25612c4"><use xlink:href="#z25612d4"/></clipPath>
	<clipPath id="z25612c5"><use xlink:href="#z25612d5"/></clipPath>
	<clipPath id="z25612c6"><use xlink:href="#z25612d6"/></clipPath>
	<clipPath id="z25612c7"><use xlink:href="#z25612d7"/></clipPath>
	<clipPath id="z25612c8"><use xlink:href="#z25612d8"/></clipPath>
	<clipPath id="z25612c9"><use xlink:href="#z25612d9"/></clipPath>
	<clipPath id="z25612c10"><use xlink:href="#z25612d10"/></clipPath>
	<clipPath id="z25612c11"><use xlink:href="#z25612d11"/></clipPath>
	<clipPath id="z25612c12"><use xlink:href="#z25612d12"/></clipPath>
	<clipPath id="z25612c13"><use xlink:href="#z25612d13"/></clipPath>
</defs>
<path pathLength="3333" clip-path="url(#z25612c1)" d="M101 377L376 325"/>
<path pathLength="3333" clip-path="url(#z25612c2)" d="M242 99L298 144L279 804L245 873L143 800"/>
<path pathLength="3333" clip-path="url(#z25612c3)" d="M45 662L103 665L368 460"/>
<path pathLength="3333" clip-path="url(#z25612c4)" d="M522 194L732 168L768 208L729 269"/>
<path pathLength="3333" clip-path="url(#z25612c5)" d="M522 338L678 297L782 294"/>
<path pathLength="3333" clip-path="url(#z25612c6)" d="M454 179L498 237L474 479L419 650L327 795"/>
<path pathLength="3333" clip-path="url(#z25612c7)" d="M522 483L821 429"/>
<path pathLength="3333" clip-path="url(#z25612c8)" d="M562 384L599 426L600 574"/>
<path pathLength="3333" clip-path="url(#z25612c9)" d="M700 343L732 378L709 552"/>
<path pathLength="3333" clip-path="url(#z25612c10)" d="M475 604L794 558L884 565"/>
<path pathLength="3333" clip-path="url(#z25612c11)" d="M522 632L556 659L536 834L547 867L671 777"/>
<path pathLength="3333" clip-path="url(#z25612c12)" d="M787 593L808 640L727 704"/>
<path pathLength="3333" clip-path="url(#z25612c13)" d="M610 615L812 815L948 845"/>
</svg>