<!--
AnimCJK 2016-2019 Copyright Francois Mizessyn - https://github.com/parsimonhi/animCJK
Derived from:
    MakeMeAHanzi project - https://github.com/skishore/makemeahanzi
    Arphic PL KaitiM GB font
    Arphic PL UKai font
You can redistribute and/or modify this file under the terms of the Arphic Public License
as published by Arphic Technology Co., Ltd.
You should have received a copy of this license along with this file.
If not, see http://ftp.gnu.org/non-gnu/chinese-fonts-truetype/LICENSE.
-->
<svg id="z25632" class="acjk" version="1.1" viewBox="0 0 1024 1024" xmlns="http://www.w3.org/2000/svg" xmlns:xlink="http://www.w3.org/1999/xlink">
<style>
<![CDATA[
@keyframes zk {
	to {
		stroke-dashoffset:0;
	}
}
svg.acjk path[clip-path] {
	--t:0.8s;
	animation:zk var(--t) linear forwards var(--d);
	stroke-dasharray:3337;
	stroke-dashoffset:3339;
	stroke-width:128;
	stroke-linecap:round;
	fill:none;
	stroke:#000;
}
svg.acjk path[id] {fill:#ccc;}
]]>
</style>
<path id="z25632d1" d="M305 347Q321 341 340 336Q370 326 374 322Q381 313 376 306Q369 296 341 292Q323 291 307 295C276 308 276 308 261 314Q177 344 129 353Q96 362 121 375Q163 393 211 376Q233 369 260 361C290 352 290 352 305 347Z"/>
<path id="z25632d2" d="M256 528Q253 628 251 761Q250 783 237 793Q233 796 178 783Q150 770 151 779Q152 786 169 801Q221 850 233 876Q246 907 261 909Q274 910 289 879Q307 837 307 769Q300 631 301 494C301 477 301 477 301 469Q302 408 305 347C306 312 306 312 307 295Q320 165 327 148Q343 120 292 99Q261 81 244 88Q228 94 242 115Q261 140 262 171Q263 187 261 314C260 345 260 345 260 361Q259 418 257 493C256 516 256 516 256 528Z"/>
<path id="z25632d3" d="M257 493Q178 535 110 575Q79 593 58 599Q46 603 45 612Q44 619 57 633Q75 646 95 654Q104 655 128 639Q191 576 256 528C286 505 286 505 301 494Q305 490 312 486Q328 476 337 463Q343 451 333 452Q323 453 302 468Q301 468 301 469C272 485 272 485 257 493Z"/>
<path id="z25632d4" d="M395 221Q434 290 455 296Q467 299 475 284Q478 274 473 254Q467 238 447 226Q417 204 403 199Q396 195 393 205Q390 212 395 221Z"/>
<path id="z25632d5" d="M568 166Q561 193 511 296Q507 312 520 305Q559 262 580 235Q622 175 640 162Q655 149 642 137Q627 127 604 121Q582 115 572 120Q562 124 568 134Q575 149 568 166Z"/>
<path id="z25632d6" d="M505 391Q545 378 591 365Q621 355 625 351Q632 344 627 337Q620 328 597 324Q572 321 549 333Q516 348 480 360Q440 373 392 381Q364 388 385 400Q418 418 472 400C494 394 494 394 505 391Z"/>
<path id="z25632d7" d="M515 567Q558 554 567 555C579 555 591 518 579 520Q548 524 520 533C491 541 491 541 476 545Q443 554 416 567Q406 568 410 557Q422 490 418 481Q408 465 389 453Q380 447 371 448Q362 451 367 467Q379 503 371 537Q364 568 349 582Q334 597 341 608Q350 621 364 629Q371 632 390 622Q405 607 471 583C500 572 500 572 515 567Z"/>
<path id="z25632d8" d="M567 555Q563 573 576 606Q582 618 591 610Q607 598 616 533Q629 479 635 473Q642 463 634 452Q621 440 598 425Q591 421 581 424Q575 425 576 436Q589 460 579 520C571 543 571 543 567 555Z"/>
<path id="z25632d9" d="M471 583Q446 712 352 792Q340 799 329 810Q313 823 334 819Q346 820 370 808Q401 796 427 772Q487 724 515 567C518 544 518 544 520 533Q532 430 537 421Q541 417 537 408Q536 407 505 391C494 387 468 389 472 400Q473 401 474 403Q483 473 476 545C473 570 473 570 471 583Z"/>
<path id="z25632d10" d="M702 569Q709 511 712 459C713 439 713 439 714 429Q717 306 718 305C718 295 717 280 708 276Q663 255 648 257Q632 261 645 279Q681 336 663 545Q654 606 626 680Q604 743 547 802Q501 847 499 853Q498 860 508 859Q547 855 613 779Q676 706 698 590C701 576 701 576 702 569Z"/>
<path id="z25632d11" d="M718 305Q725 302 736 299Q770 287 805 275Q821 266 827 274Q851 338 838 713Q835 806 827 820Q823 824 807 821Q780 812 754 803Q736 796 736 804Q788 856 815 894Q827 913 841 918Q850 922 858 912Q900 864 898 816Q888 606 887 338Q887 304 898 287Q908 268 897 259Q876 243 842 229Q826 223 811 230Q783 249 764 258Q745 265 708 276C698 278 709 309 718 305Z"/>
<path id="z25632d12" d="M712 459Q715 459 800 448Q822 444 813 431Q803 418 779 415Q731 412 714 429C706 435 702 459 712 459Z"/>
<path id="z25632d13" d="M799 587Q821 583 813 571Q803 558 779 553Q742 546 702 569C696 573 691 590 698 590C765 588 765 588 799 587Z"/>
<defs>
	<clipPath id="z25632c1"><use xlink:href="#z25632d1"/></clipPath>
	<clipPath id="z25632c2"><use xlink:href="#z25632d2"/></clipPath>
	<clipPath id="z25632c3"><use xlink:href="#z25632d3"/></clipPath>
	<clipPath id="z25632c4"><use xlink:href="#z25632d4"/></clipPath>
	<clipPath id="z25632c5"><use xlink:href="#z25632d5"/></clipPath>
	<clipPath id="z25632c6"><use xlink:href="#z25632d6"/></clipPath>
	<clipPath id="z25632c7"><use xlink:href="#z25632d7"/></clipPath>
	<clipPath id="z25632c8"><use xlink:href="#z25632d8"/></clipPath>
	<clipPath id="z25632c9"><use xlink:href="#z25632d9"/></clipPath>
	<clipPath id="z25632c10"><use xlink:href="#z25632d10"/></clipPath>
	<clipPath id="z25632c11"><use xlink:href="#z25632d11"/></clipPath>
	<clipPath id="z25632c12"><use xlink:href="#z25632d12"/></clipPath>
	<clipPath id="z25632c13"><use xlink:href="#z25632d13"/></clipPath>
</defs>
<path style="--d:1s;" pathLength="3333" clip-path="url(#z25632c1)" d="M117 363L373 307"/>
<path style="--d:2s;" pathLength="3333" clip-path="url(#z25632c2)" d="M243 99L295 141L278 779L253 855L160 780"/>
<path style="--d:3s;" pathLength="3333" clip-path="url(#z25632c3)" d="M53 610L108 613L331 460"/>
<path style="--d:4s;" pathLength="3333" clip-path="url(#z25632c4)" d="M400 209L458 290"/>
<path style="--d:5s;" pathLength="3333" clip-path="url(#z25632c5)" d="M573 127L607 162L515 299"/>
<path style="--d:6s;" pathLength="3333" clip-path="url(#z25632c6)" d="M385 391L624 341"/>
<path style="--d:7s;" pathLength="3333" clip-path="url(#z25632c7)" d="M373 452L395 484L388 598L571 530"/>
<path style="--d:8s;" pathLength="3333" clip-path="url(#z25632c8)" d="M583 432L610 467L585 607"/>
<path style="--d:9s;" pathLength="3333" clip-path="url(#z25632c9)" d="M478 401L508 431L479 635L429 739L334 814"/>
<path style="--d:10s;" pathLength="3333" clip-path="url(#z25632c10)" d="M647 267L684 296L690 333L670 617L608 756L508 853"/>
<path style="--d:11s;" pathLength="3333" clip-path="url(#z25632c11)" d="M713 278L827 249L867 282L863 827L830 869L742 806"/>
<path style="--d:12s;" pathLength="3333" clip-path="url(#z25632c12)" d="M721 451L811 434"/>
<path style="--d:13s;" pathLength="3333" clip-path="url(#z25632c13)" d="M706 582L807 575"/>
</svg>