<!--
AnimCJK 2016-2018 Copyright Francois Mizessyn - https://github.com/parsimonhi/animCJK
Derived from:
    MakeMeAHanzi project - https://github.com/skishore/makemeahanzi
    Arphic PL KaitiM GB - https://apps.ubuntu.com/cat/applications/precise/fonts-arphic-gkai00mp/
    Arphic PL UKai - https://apps.ubuntu.com/cat/applications/fonts-arphic-ukai/
You can redistribute and/or modify this file under the terms of the Arphic Public License
as published by Arphic Technology Co., Ltd.
You should have received a copy of this license (the directory "APL") along with this file;
if not, see http://ftp.gnu.org/non-gnu/chinese-fonts-truetype/LICENSE.
-->
<svg id="z25682" class="acjk" version="1.1" viewBox="0 0 1024 1024" xmlns="http://www.w3.org/2000/svg" xmlns:xlink="http://www.w3.org/1999/xlink">
<style>
<![CDATA[
@keyframes z25682k {
	from {
		stroke:#c00;
		stroke-dashoffset:3334;
	}
	75% {
		stroke:#c00;
		stroke-dashoffset:0;
	}
	to {
		stroke:#000;
	}
}
#z25682 path[clip-path] {
	animation:z25682k 1s linear both;
	stroke-dasharray:3334;
	stroke-width:128;
	stroke-linecap:round;
	fill:none;
}
#z25682 path[clip-path="url(#z25682c1)"] {animation-delay:1s;}
#z25682 path[clip-path="url(#z25682c2)"] {animation-delay:2s;}
#z25682 path[clip-path="url(#z25682c3)"] {animation-delay:3s;}
#z25682 path[clip-path="url(#z25682c4)"] {animation-delay:4s;}
#z25682 path[clip-path="url(#z25682c5)"] {animation-delay:5s;}
#z25682 path[clip-path="url(#z25682c6)"] {animation-delay:6s;}
#z25682 path[clip-path="url(#z25682c7)"] {animation-delay:7s;}
#z25682 path[clip-path="url(#z25682c8)"] {animation-delay:8s;}
#z25682 path[clip-path="url(#z25682c9)"] {animation-delay:9s;}
#z25682 path[clip-path="url(#z25682c10)"] {animation-delay:10s;}
#z25682 path[clip-path="url(#z25682c11)"] {animation-delay:11s;}
#z25682 path[clip-path="url(#z25682c12)"] {animation-delay:12s;}
#z25682 path {fill:#ccc;}
]]>
</style>
<path id="z25682d1" d="M310 359Q334 350 363 343Q396 333 401 327Q408 320 404 311Q397 301 367 296Q339 292 312 306L262 326Q159 353 130 359Q96 368 122 382Q167 401 217 385Q236 379 261 373L310 359 Z"/>
<path id="z25682d2" d="M256 558Q253 643 253 754Q252 776 240 785Q237 788 177 794Q143 785 147 796Q150 803 171 815Q228 855 242 878Q260 906 273 906Q288 906 300 872Q316 827 312 755Q306 637 306 521L306 487Q306 423 310 359L312 306Q325 171 334 148Q350 118 296 95Q262 76 243 82Q225 89 241 112Q262 139 263 173Q264 189 262 326L261 373Q260 433 257 514L256 558 Z"/>
<path id="z25682d3" d="M257 514Q181 554 113 596Q80 615 58 621Q45 625 44 634Q43 643 56 656Q75 671 96 679Q112 683 122 672Q189 603 256 558L306 521Q328 500 355 485Q374 473 384 460Q391 447 380 448Q367 448 306 487L257 514 Z"/>
<path id="z25682d4" d="M789 245Q810 200 837 185Q853 169 839 152Q823 139 776 115Q760 108 739 115Q643 154 518 174L540 205Q564 196 722 164Q741 158 751 167Q757 171 755 184Q748 212 741 238L789 245 Z"/>
<path id="z25682d5" d="M524 319Q531 320 544 318Q623 296 798 273Q808 272 808 263Q808 256 789 245L741 238Q738 237 736 238Q619 272 527 288L524 319 Z"/>
<path id="z25682d6" d="M518 174Q479 150 462 156Q450 163 457 176Q473 201 474 261Q473 273 473 286Q470 445 430 559Q397 658 326 770Q322 777 319 783Q318 793 327 791Q361 784 436 657Q443 639 454 620Q511 491 524 319L527 288Q528 269 531 250Q532 232 537 216Q540 210 540 205L518 174 Z"/>
<path id="z25682d7" d="M560 372Q594 429 616 433Q626 434 634 421Q635 411 630 392Q624 379 606 370Q578 354 566 350Q559 347 557 357Q556 364 560 372 Z"/>
<path id="z25682d8" d="M702 448Q741 409 768 376Q781 360 798 347Q814 335 801 322Q788 312 764 304Q742 297 732 302Q722 306 728 316Q737 340 706 396Q691 424 675 455L702 448 Z"/>
<path id="z25682d9" d="M753 474Q799 467 838 461Q847 462 854 451Q855 441 835 432Q802 416 718 444Q709 445 702 448L675 455Q636 462 603 469Q570 473 535 479Q510 483 530 497Q551 512 559 515L591 511Q643 496 714 482L753 474 Z"/>
<path id="z25682d10" d="M769 639Q815 635 875 635Q923 638 931 627Q935 617 921 605Q870 566 814 585Q792 588 769 594L724 602Q697 605 624 618L575 626Q524 630 471 640Q452 641 466 657Q479 670 495 674Q507 675 572 664L619 655Q670 645 723 642L769 639 Z"/>
<path id="z25682d11" d="M559 515Q577 570 575 621Q575 622 575 626L572 664Q565 784 475 849Q463 859 460 865Q459 871 468 871Q496 874 545 827Q596 776 619 655L624 618Q627 599 629 579Q633 563 635 553Q641 535 623 526Q604 516 591 511L559 515 Z"/>
<path id="z25682d12" d="M723 642Q723 789 709 827Q705 866 733 909Q743 927 751 930Q761 931 767 919Q777 889 774 861Q770 740 769 639L769 594Q769 531 774 504Q775 488 753 474L714 482Q720 494 722 515Q723 551 724 602L723 642 Z"/>
<defs>
	<clipPath id="z25682c1"><use xlink:href="#z25682d1"/></clipPath>
	<clipPath id="z25682c2"><use xlink:href="#z25682d2"/></clipPath>
	<clipPath id="z25682c3"><use xlink:href="#z25682d3"/></clipPath>
	<clipPath id="z25682c4"><use xlink:href="#z25682d4"/></clipPath>
	<clipPath id="z25682c5"><use xlink:href="#z25682d5"/></clipPath>
	<clipPath id="z25682c6"><use xlink:href="#z25682d6"/></clipPath>
	<clipPath id="z25682c7"><use xlink:href="#z25682d7"/></clipPath>
	<clipPath id="z25682c8"><use xlink:href="#z25682d8"/></clipPath>
	<clipPath id="z25682c9"><use xlink:href="#z25682d9"/></clipPath>
	<clipPath id="z25682c10"><use xlink:href="#z25682d10"/></clipPath>
	<clipPath id="z25682c11"><use xlink:href="#z25682d11"/></clipPath>
	<clipPath id="z25682c12"><use xlink:href="#z25682d12"/></clipPath>
</defs>
<path pathLength="3333" clip-path="url(#z25682c1)" d="M117 370L400 317"/>
<path pathLength="3333" clip-path="url(#z25682c2)" d="M241 88L298 140L281 778L255 855L157 795"/>
<path pathLength="3333" clip-path="url(#z25682c3)" d="M50 634L105 642L379 455"/>
<path pathLength="3333" clip-path="url(#z25682c4)" d="M527 177L757 139L799 172L764 241"/>
<path pathLength="3333" clip-path="url(#z25682c5)" d="M530 311L723 262L801 263"/>
<path pathLength="3333" clip-path="url(#z25682c6)" d="M463 163L505 214L477 474L421 640L328 786"/>
<path pathLength="3333" clip-path="url(#z25682c7)" d="M564 359L620 429"/>
<path pathLength="3333" clip-path="url(#z25682c8)" d="M732 305L767 341L682 447"/>
<path pathLength="3333" clip-path="url(#z25682c9)" d="M532 488L846 450"/>
<path pathLength="3333" clip-path="url(#z25682c10)" d="M470 648L926 612"/>
<path pathLength="3333" clip-path="url(#z25682c11)" d="M567 520L604 557L581 727L536 813L468 865"/>
<path pathLength="3333" clip-path="url(#z25682c12)" d="M720 483L748 514L746 925"/>
</svg>