<!--
AnimCJK 2016-2017 Copyright Francois Mizessyn, https://github.com/parsimonhi/animCJK
Derived from:
    MakeMeAHanzi project - https://github.com/skishore/makemeahanzi
    Arphic PL KaitiM GB - https://apps.ubuntu.com/cat/applications/precise/fonts-arphic-gkai00mp/
    Arphic PL UKai - https://apps.ubuntu.com/cat/applications/fonts-arphic-ukai/
You can redistribute and/or modify this file under the terms of the Arphic Public License
as published by Arphic Technology Co., Ltd.
You should have received a copy of this license (the directory "APL") along with this file;
if not, see http://ftp.gnu.org/non-gnu/chinese-fonts-truetype/LICENSE.
-->
<svg id="z25788" class="acjk" version="1.1" viewBox="0 0 1024 1024" xmlns="http://www.w3.org/2000/svg" xmlns:xlink="http://www.w3.org/1999/xlink">
<style>
<![CDATA[
@keyframes z25788k {
	from {
		stroke:#c00;
		stroke-dashoffset:3000;
	}
	75% {
		stroke:#c00;
		stroke-dashoffset:0;
	}
	to {
		stroke:#000;
	}
}
#z25788 path[clip-path] {
	animation:z25788k 1s linear both;
	stroke-dasharray:3000;
	stroke-width:128;
	stroke-linecap:round;
	fill:none;
}
#z25788 path[clip-path="url(#z25788c1)"] {animation-delay:1s;}
#z25788 path[clip-path="url(#z25788c2)"] {animation-delay:2s;}
#z25788 path[clip-path="url(#z25788c3)"] {animation-delay:3s;}
#z25788 path[clip-path="url(#z25788c4)"] {animation-delay:4s;}
#z25788 path[clip-path="url(#z25788c5)"] {animation-delay:5s;}
#z25788 path[clip-path="url(#z25788c6)"] {animation-delay:6s;}
#z25788 path[clip-path="url(#z25788c7)"] {animation-delay:7s;}
#z25788 path[clip-path="url(#z25788c8)"] {animation-delay:8s;}
#z25788 path[clip-path="url(#z25788c9)"] {animation-delay:9s;}
#z25788 path[clip-path="url(#z25788c10)"] {animation-delay:10s;}
#z25788 path[clip-path="url(#z25788c11)"] {animation-delay:11s;}
#z25788 path[clip-path="url(#z25788c12)"] {animation-delay:12s;}
#z25788 path[clip-path="url(#z25788c13)"] {animation-delay:13s;}
#z25788 path[clip-path="url(#z25788c14)"] {animation-delay:14s;}
#z25788 path[clip-path="url(#z25788c15)"] {animation-delay:15s;}
#z25788 path[clip-path="url(#z25788c16)"] {animation-delay:16s;}
#z25788 path {fill:#ccc;}
]]>
</style>
<path id="z25788d1" d="M294 363Q310 356 330 351Q358 342 362 338Q369 329 364 322Q357 312 329 308Q313 307 296 311L250 331Q178 355 129 365Q96 374 121 387Q161 405 211 387Q229 381 249 376L294 363 Z"/>
<path id="z25788d2" d="M245 563Q244 644 243 744Q242 766 230 774Q224 777 166 765Q138 753 139 763Q140 770 158 784Q213 830 226 857Q241 888 255 889Q268 890 283 858Q299 816 299 749Q292 632 291 517L291 484Q291 423 294 363L296 311Q297 301 298 290Q302 209 315 167Q331 139 280 119Q249 101 231 108Q215 114 230 135Q249 160 250 191Q251 207 250 331L249 376Q248 436 246 517L245 563 Z"/>
<path id="z25788d3" d="M246 517Q170 572 103 627Q73 649 52 659Q40 666 40 674Q40 683 55 694Q76 707 98 711Q113 714 124 698Q178 625 245 563L291 517Q339 469 342 464Q346 451 336 453Q326 456 305 474Q298 478 291 484L246 517 Z"/>
<path id="z25788d4" d="M664 281Q689 272 717 266Q757 254 764 248Q771 241 767 234Q760 224 735 219Q702 213 653 240L615 253Q519 278 462 288Q458 288 457 290L466 313Q499 323 538 313Q581 301 625 291L664 281 Z"/>
<path id="z25788d5" d="M457 290Q445 280 427 273Q411 266 402 269Q392 275 398 285Q428 318 396 502Q392 517 388 533Q370 584 325 671Q321 675 319 681Q318 690 326 687Q359 680 408 581Q409 578 411 575Q441 508 441 482L444 469Q453 418 460 339Q463 315 466 313L457 290 Z"/>
<path id="z25788d6" d="M487 383Q460 390 481 401Q506 411 565 398Q584 392 607 387Q620 383 621 381Q627 374 623 368Q617 361 595 357Q588 357 522 376Q506 380 487 383 Z"/>
<path id="z25788d7" d="M441 482Q456 497 475 582Q476 600 488 612Q501 628 505 616Q508 607 507 593L504 567Q497 519 495 501L490 480Q490 479 489 478Q480 474 453 469Q446 466 444 469L441 482 Z"/>
<path id="z25788d8" d="M608 554Q620 511 635 497Q651 478 634 468Q619 461 600 447Q590 441 545 463Q542 463 490 480L495 501Q522 492 559 485Q575 481 579 488Q582 491 570 547L608 554 Z"/>
<path id="z25788d9" d="M507 593Q514 594 522 592Q552 585 616 577Q623 576 625 568Q625 564 608 554L570 547Q566 547 562 549Q529 559 504 567L507 593 Z"/>
<path id="z25788d10" d="M732 539Q736 543 740 549Q774 595 819 626Q873 663 898 661Q914 655 907 632Q898 595 888 486Q887 467 878 466Q875 466 853 538Q843 569 824 559Q818 556 810 551Q782 529 759 498L732 459Q693 387 664 281L653 240Q638 174 641 130Q648 96 600 83Q570 73 554 81Q538 88 548 104Q590 134 593 161Q603 210 615 253L625 291Q659 420 711 505L732 539 Z"/>
<path id="z25788d11" d="M711 505Q687 545 642 597Q636 601 634 605Q630 612 639 613Q648 613 676 593Q680 590 732 539L759 498Q796 419 809 385Q821 352 822 350Q812 334 791 318Q778 306 767 308Q757 311 760 323Q772 374 734 453Q733 456 732 459L711 505 Z"/>
<path id="z25788d12" d="M759 145Q781 164 804 186Q816 196 829 195Q836 194 841 184Q845 171 837 147Q833 131 807 120Q746 102 736 105Q732 109 733 119Q736 129 759 145 Z"/>
<path id="z25788d13" d="M406 708Q387 750 361 786Q343 816 358 845Q365 860 383 850Q423 819 428 759Q432 731 427 708Q423 701 417 700Q410 701 406 708 Z"/>
<path id="z25788d14" d="M480 738Q492 817 552 860Q643 918 798 898Q814 894 830 888Q849 881 851 868Q855 859 821 834Q769 786 732 737Q722 721 717 728Q726 782 735 837Q726 849 689 851Q587 848 544 805Q525 787 518 756Q512 734 501 729Q489 722 482 725Q478 726 480 738 Z"/>
<path id="z25788d15" d="M584 691Q602 709 620 730Q630 742 644 742Q653 742 657 731Q661 719 656 695Q649 671 582 651Q569 647 564 649Q560 652 560 663Q563 673 584 691 Z"/>
<path id="z25788d16" d="M740 658Q783 692 836 743Q851 759 864 762Q871 763 877 754Q886 742 873 706Q863 672 801 651Q761 638 740 632Q731 628 731 638Q731 650 740 658 Z"/>
<defs>
	<clipPath id="z25788c1"><use xlink:href="#z25788d1"/></clipPath>
	<clipPath id="z25788c2"><use xlink:href="#z25788d2"/></clipPath>
	<clipPath id="z25788c3"><use xlink:href="#z25788d3"/></clipPath>
	<clipPath id="z25788c4"><use xlink:href="#z25788d4"/></clipPath>
	<clipPath id="z25788c5"><use xlink:href="#z25788d5"/></clipPath>
	<clipPath id="z25788c6"><use xlink:href="#z25788d6"/></clipPath>
	<clipPath id="z25788c7"><use xlink:href="#z25788d7"/></clipPath>
	<clipPath id="z25788c8"><use xlink:href="#z25788d8"/></clipPath>
	<clipPath id="z25788c9"><use xlink:href="#z25788d9"/></clipPath>
	<clipPath id="z25788c10"><use xlink:href="#z25788d10"/></clipPath>
	<clipPath id="z25788c11"><use xlink:href="#z25788d11"/></clipPath>
	<clipPath id="z25788c12"><use xlink:href="#z25788d12"/></clipPath>
	<clipPath id="z25788c13"><use xlink:href="#z25788d13"/></clipPath>
	<clipPath id="z25788c14"><use xlink:href="#z25788d14"/></clipPath>
	<clipPath id="z25788c15"><use xlink:href="#z25788d15"/></clipPath>
	<clipPath id="z25788c16"><use xlink:href="#z25788d16"/></clipPath>
</defs>
<path pathLength="2999" clip-path="url(#z25788c1)" d="M120 377L361 328"/>
<path pathLength="2999" clip-path="url(#z25788c2)" d="M228 115L282 160L268 774L243 836L146 766"/>
<path pathLength="2999" clip-path="url(#z25788c3)" d="M46 670L97 675L336 459"/>
<path pathLength="2999" clip-path="url(#z25788c4)" d="M465 294L763 238"/>
<path pathLength="2999" clip-path="url(#z25788c5)" d="M405 278L438 323L417 502L328 682"/>
<path pathLength="2999" clip-path="url(#z25788c6)" d="M478 393L617 373"/>
<path pathLength="2999" clip-path="url(#z25788c7)" d="M449 474L472 494L499 614"/>
<path pathLength="2999" clip-path="url(#z25788c8)" d="M497 483L596 471L610 491L586 549"/>
<path pathLength="2999" clip-path="url(#z25788c9)" d="M513 585L619 566"/>
<path pathLength="2999" clip-path="url(#z25788c10)" d="M551 93L610 122L664 353L751 526L819 590L876 611L878 475"/>
<path pathLength="2999" clip-path="url(#z25788c11)" d="M769 311L792 350L765 435L725 517L641 607"/>
<path pathLength="2999" clip-path="url(#z25788c12)" d="M743 115L832 188"/>
<path pathLength="2999" clip-path="url(#z25788c13)" d="M417 704L373 850"/>
<path pathLength="2999" clip-path="url(#z25788c14)" d="M487 733L548 833L687 876L800 846L722 733"/>
<path pathLength="2999" clip-path="url(#z25788c15)" d="M566 654L631 702L644 736"/>
<path pathLength="2999" clip-path="url(#z25788c16)" d="M739 640L837 703L870 754"/>
</svg>