<!--
AnimCJK 2016-2019 Copyright Francois Mizessyn - https://github.com/parsimonhi/animCJK
Derived from:
    MakeMeAHanzi project - https://github.com/skishore/makemeahanzi
    Arphic PL KaitiM GB font
    Arphic PL UKai font
You can redistribute and/or modify this file under the terms of the Arphic Public License
as published by Arphic Technology Co., Ltd.
You should have received a copy of this license along with this file.
If not, see http://ftp.gnu.org/non-gnu/chinese-fonts-truetype/LICENSE.
-->
<svg id="z25865" class="acjk" version="1.1" viewBox="0 0 1024 1024" xmlns="http://www.w3.org/2000/svg" xmlns:xlink="http://www.w3.org/1999/xlink">
<style>
<![CDATA[
@keyframes zk {
	to {
		stroke-dashoffset:0;
	}
}
svg.acjk path[clip-path] {
	--t:0.8s;
	animation:zk var(--t) linear forwards var(--d);
	stroke-dasharray:3337;
	stroke-dashoffset:3339;
	stroke-width:128;
	stroke-linecap:round;
	fill:none;
	stroke:#000;
}
svg.acjk path[id] {fill:#ccc;}
]]>
</style>
<path id="z25865d1" d="M303 316Q313 312 326 309Q357 299 361 294Q368 287 364 278Q357 268 329 264Q317 263 306 265C273 276 273 276 257 282Q179 312 109 325Q76 334 102 347Q141 366 191 348Q221 339 256 330C287 321 287 321 303 316Z"/>
<path id="z25865d2" d="M252 522Q249 616 248 738Q247 760 234 769Q228 773 156 760Q125 750 127 759Q128 766 148 780Q212 828 228 855Q247 886 263 888Q276 889 290 855Q308 812 305 742Q298 612 299 483C299 462 299 462 299 452Q299 383 303 316C305 282 305 282 306 265Q310 181 324 138Q340 110 288 87Q257 68 237 75Q221 81 235 103Q256 130 257 162Q258 177 257 282C256 314 256 314 256 330Q255 393 252 481C252 508 252 508 252 522Z"/>
<path id="z25865d3" d="M252 481Q171 527 102 574Q69 593 48 601Q36 607 34 615Q34 624 48 637Q67 650 89 658Q104 662 114 649Q180 577 252 522C283 496 283 496 299 483Q312 471 326 462Q344 449 353 436Q359 423 348 424Q345 424 299 452C268 471 268 471 252 481Z"/>
<path id="z25865d4" d="M612 149Q765 116 767 114Q774 107 771 99Q764 89 738 81Q711 75 637 100Q523 119 508 122Q475 128 499 143Q530 164 580 156C601 151 601 151 612 149Z"/>
<path id="z25865d5" d="M432 243Q420 224 403 216Q400 212 395 216Q391 220 391 230Q397 255 376 324Q367 340 370 357Q374 375 385 387Q392 397 397 389Q403 388 409 372Q413 365 419 339Q423 315 440 269C443 261 437 250 432 243Z"/>
<path id="z25865d6" d="M634 237Q757 210 798 214Q814 223 812 230Q812 233 808 244Q798 266 789 292Q783 304 789 307Q795 311 809 300Q855 269 892 257Q923 247 923 239Q922 230 858 186Q837 171 749 189Q701 193 635 209C606 214 606 214 592 216Q558 220 519 229Q477 235 432 243C423 244 432 266 440 269Q453 276 495 269Q532 257 594 244C621 239 621 239 634 237Z"/>
<path id="z25865d7" d="M594 244Q594 281 586 341Q580 363 602 394Q609 401 617 393Q635 369 633 334Q632 312 634 243Q634 239 634 237C635 218 635 218 635 209Q636 197 639 186Q645 168 628 159Q621 153 612 149C603 143 578 145 580 156Q580 157 581 161Q591 185 592 216C593 235 593 235 594 244Z"/>
<path id="z25865d8" d="M483 318Q526 351 547 346Q557 345 557 330Q556 320 544 308Q522 293 480 298Q473 299 475 307Q476 314 483 318Z"/>
<path id="z25865d9" d="M476 386Q524 422 539 421Q549 420 550 406Q549 397 540 385Q525 367 476 367Q469 367 470 375Q470 381 476 386Z"/>
<path id="z25865d10" d="M667 298Q731 335 747 330Q757 329 757 314Q756 304 744 293Q717 272 664 278Q657 279 659 287Q660 294 667 298Z"/>
<path id="z25865d11" d="M667 379Q731 421 750 418Q760 417 762 401Q761 391 748 378Q736 366 714 363Q678 357 665 358Q658 359 659 368Q660 374 667 379Z"/>
<path id="z25865d12" d="M469 569Q533 488 534 481Q533 480 533 478Q530 468 508 448Q486 432 471 431Q456 432 461 450Q467 465 453 502Q410 586 335 671Q326 678 324 684Q320 693 332 691Q353 688 446 596C461 578 461 578 469 569Z"/>
<path id="z25865d13" d="M497 834Q501 675 508 639Q514 615 469 569C462 560 442 585 446 596Q482 677 439 840Q429 877 460 921C461 922 461 922 461 922Q476 935 485 913Q495 885 496 856C497 841 497 841 497 834Z"/>
<path id="z25865d14" d="M620 446Q665 482 676 482Q683 481 686 472Q687 462 681 442Q675 427 615 413Q605 412 600 414Q596 417 598 425Q601 432 620 446Z"/>
<path id="z25865d15" d="M663 548Q808 517 815 511Q822 504 818 497Q812 488 789 482Q765 478 681 507Q615 522 554 530Q526 534 546 549Q580 567 625 556C650 551 650 551 663 548Z"/>
<path id="z25865d16" d="M686 642Q734 632 776 626Q797 622 789 611Q779 598 757 594Q733 591 689 605C654 614 654 614 637 619Q594 629 554 641Q539 644 558 657Q567 663 637 651C670 645 670 645 686 642Z"/>
<path id="z25865d17" d="M680 740Q732 730 779 725Q800 722 793 711Q783 698 761 693Q737 689 682 704C652 711 652 711 637 715Q591 724 551 733Q536 736 554 750Q560 754 637 746C666 742 666 742 680 740Z"/>
<path id="z25865d18" d="M676 809Q677 772 680 740C681 716 681 716 682 704Q683 671 686 642C688 617 688 617 689 605Q689 569 681 562Q671 553 663 548C652 541 620 544 625 556Q637 581 637 619C637 640 637 640 637 651Q637 676 637 715C637 736 637 736 637 746Q637 776 637 815C637 828 676 822 676 809Z"/>
<path id="z25865d19" d="M637 815Q571 822 497 834C490 835 490 852 496 856Q521 872 546 866Q649 839 862 840Q878 839 882 833Q886 823 873 812Q828 776 772 793Q732 799 676 809C650 813 650 813 637 815Z"/>
<defs>
	<clipPath id="z25865c1"><use xlink:href="#z25865d1"/></clipPath>
	<clipPath id="z25865c2"><use xlink:href="#z25865d2"/></clipPath>
	<clipPath id="z25865c3"><use xlink:href="#z25865d3"/></clipPath>
	<clipPath id="z25865c4"><use xlink:href="#z25865d4"/></clipPath>
	<clipPath id="z25865c5"><use xlink:href="#z25865d5"/></clipPath>
	<clipPath id="z25865c6"><use xlink:href="#z25865d6"/></clipPath>
	<clipPath id="z25865c7"><use xlink:href="#z25865d7"/></clipPath>
	<clipPath id="z25865c8"><use xlink:href="#z25865d8"/></clipPath>
	<clipPath id="z25865c9"><use xlink:href="#z25865d9"/></clipPath>
	<clipPath id="z25865c10"><use xlink:href="#z25865d10"/></clipPath>
	<clipPath id="z25865c11"><use xlink:href="#z25865d11"/></clipPath>
	<clipPath id="z25865c12"><use xlink:href="#z25865d12"/></clipPath>
	<clipPath id="z25865c13"><use xlink:href="#z25865d13"/></clipPath>
	<clipPath id="z25865c14"><use xlink:href="#z25865d14"/></clipPath>
	<clipPath id="z25865c15"><use xlink:href="#z25865d15"/></clipPath>
	<clipPath id="z25865c16"><use xlink:href="#z25865d16"/></clipPath>
	<clipPath id="z25865c17"><use xlink:href="#z25865d17"/></clipPath>
	<clipPath id="z25865c18"><use xlink:href="#z25865d18"/></clipPath>
	<clipPath id="z25865c19"><use xlink:href="#z25865d19"/></clipPath>
</defs>
<path style="--d:1s;" pathLength="3333" clip-path="url(#z25865c1)" d="M98 335L361 280"/>
<path style="--d:2s;" pathLength="3333" clip-path="url(#z25865c2)" d="M234 83L291 139L275 760L248 836L134 760"/>
<path style="--d:3s;" pathLength="3333" clip-path="url(#z25865c3)" d="M41 614L98 618L347 430"/>
<path style="--d:4s;" pathLength="3333" clip-path="url(#z25865c4)" d="M497 132L764 100"/>
<path style="--d:5s;" pathLength="3333" clip-path="url(#z25865c5)" d="M400 221L415 267L391 385"/>
<path style="--d:6s;" pathLength="3333" clip-path="url(#z25865c6)" d="M441 249L810 198L869 241L795 303"/>
<path style="--d:7s;" pathLength="3333" clip-path="url(#z25865c7)" d="M587 160L615 188L606 389"/>
<path style="--d:8s;" pathLength="3333" clip-path="url(#z25865c8)" d="M482 306L553 334"/>
<path style="--d:9s;" pathLength="3333" clip-path="url(#z25865c9)" d="M478 374L542 413"/>
<path style="--d:10s;" pathLength="3333" clip-path="url(#z25865c10)" d="M667 285L753 320"/>
<path style="--d:11s;" pathLength="3333" clip-path="url(#z25865c11)" d="M665 363L757 405"/>
<path style="--d:12s;" pathLength="3333" clip-path="url(#z25865c12)" d="M469 438L495 486L332 685"/>
<path style="--d:13s;" pathLength="3333" clip-path="url(#z25865c13)" d="M471 580L469 922"/>
<path style="--d:14s;" pathLength="3333" clip-path="url(#z25865c14)" d="M605 423L678 473"/>
<path style="--d:15s;" pathLength="3333" clip-path="url(#z25865c15)" d="M547 539L811 501"/>
<path style="--d:16s;" pathLength="3333" clip-path="url(#z25865c16)" d="M556 647L784 615"/>
<path style="--d:17s;" pathLength="3333" clip-path="url(#z25865c17)" d="M550 739L789 712"/>
<path style="--d:18s;" pathLength="3333" clip-path="url(#z25865c18)" d="M632 559L662 594L654 811"/>
<path style="--d:19s;" pathLength="3333" clip-path="url(#z25865c19)" d="M502 851L801 814L878 823"/>
</svg>