<!--
AnimCJK 2016-2026 Copyright FM-SH - https://github.com/parsimonhi/animCJK
Derived from:
    MakeMeAHanzi project - https://github.com/skishore/makemeahanzi
    Arphic PL KaitiM GB font
    Arphic PL KaitiM Big5 font
You can redistribute and/or modify this file under the terms of the Arphic Public License
as published by Arphic Technology Co., Ltd.
You should have received a copy of this license along with this file.
If not, see https://ftp.gnu.org/non-gnu/chinese-fonts-truetype/LICENSE.
-->
<svg id="z25899" class="acjk" viewBox="0 0 1024 1024" xmlns="http://www.w3.org/2000/svg">
<style>
<![CDATA[
@keyframes zk {
	to {
		stroke-dashoffset:0;
	}
}
svg.acjk path[clip-path] {
	--t:0.8s;
	animation:zk var(--t) linear forwards var(--d);
	stroke-dasharray:3337;
	stroke-dashoffset:3339;
	stroke-width:128;
	stroke-linecap:round;
	fill:none;
	stroke:#000;
}
svg.acjk path[id] {fill:#ccc;}
]]>
</style>
<path id="z25899d1" d="M315 355C343 347 384 335 393 327C395 324 412 304 359 296C344 293 330 295 318 300C284 312 284 312 267 318C224 333 179 346 134 355C110 359 108 369 126 378C177 401 218 381 267 368C299 359 299 359 315 355Z"/>
<path id="z25899d2" d="M263 559C263 621 259 693 259 774C258 823 206 811 173 804C122 792 144 809 165 825C205 855 231 880 242 898C254 918 265 930 276 931C284 931 294 919 304 897C316 866 321 826 319 778C314 691 312 605 312 520C312 499 312 499 312 488C312 443 312 398 315 355C317 318 317 318 318 300C321 243 321 191 338 148C346 126 334 112 300 95C252 71 223 81 245 112C284 169 267 252 267 318C267 351 267 351 267 368C267 410 263 459 263 517C263 545 263 545 263 559Z"/>
<path id="z25899d3" d="M263 517C131 595 86 623 58 639C45 645 20 649 52 677C63 686 78 693 93 698C102 701 111 697 118 690C149 653 198 610 263 559C296 533 296 533 312 520C358 482 383 462 385 460C390 451 387 447 380 448C376 448 354 462 312 488C279 507 279 507 263 517Z"/>
<path id="z25899d4" d="M461 115C448 102 413 89 421 113C439 169 441 228 429 289C423 315 429 337 446 356C458 369 463 350 468 335C469 328 468 321 469 315C469 299 469 284 469 269C469 254 469 254 469 246C469 232 469 218 469 204C469 188 469 188 469 180C469 165 469 150 470 134C470 127 467 119 461 115Z"/>
<path id="z25899d5" d="M562 317C569 345 585 360 602 329C607 317 612 306 612 297C602 210 604 155 621 130C629 117 615 105 581 88C570 82 558 81 548 86C531 92 503 102 461 115C454 117 463 135 470 134C485 134 549 107 561 117C568 123 569 142 570 168C571 228 568 269 566 290C565 299 560 308 562 317Z"/>
<path id="z25899d6" d="M469 204C495 197 518 192 537 187C560 179 540 164 518 164C496 164 479 169 469 180C463 185 461 206 469 204Z"/>
<path id="z25899d7" d="M469 269C497 263 520 258 540 254C562 248 547 232 522 231C509 230 491 235 469 246C462 249 461 271 469 269Z"/>
<path id="z25899d8" d="M468 335C479 335 490 330 562 317C571 316 575 291 566 290C553 285 515 298 469 315C463 317 461 335 468 335Z"/>
<path id="z25899d9" d="M693 90C679 76 648 66 657 88C676 138 677 195 667 254C663 274 666 294 683 313C692 323 697 311 701 297C702 290 703 283 703 277C702 262 702 248 702 234C701 223 701 223 701 218C700 203 701 187 701 173C700 163 700 163 700 158C698 141 700 109 700 109C700 102 698 94 693 90Z"/>
<path id="z25899d10" d="M810 287C826 323 836 317 852 289C858 276 861 265 861 256C854 183 853 126 868 103C875 90 863 76 830 61C825 59 821 57 818 56C813 54 792 63 751 76C717 86 702 88 693 90C686 91 693 109 700 109C709 109 722 106 755 97C806 81 810 83 812 137C814 200 812 241 810 258C808 267 806 278 810 287Z"/>
<path id="z25899d11" d="M701 173C701 173 729 171 783 162C807 157 789 139 766 137C748 135 726 142 700 158C696 161 696 173 701 173Z"/>
<path id="z25899d12" d="M783 226C806 223 791 203 767 200C746 197 724 204 701 218C696 221 697 234 702 234C756 229 756 229 783 226Z"/>
<path id="z25899d13" d="M701 297C706 298 742 291 810 287C820 287 819 260 810 258C789 254 740 266 703 277C697 279 694 297 701 297Z"/>
<path id="z25899d14" d="M496 444C500 438 514 420 537 389C553 366 524 359 516 358C501 355 478 348 477 369C473 406 434 469 355 554C345 563 345 564 360 562C385 556 427 529 476 469C489 452 489 452 496 444Z"/>
<path id="z25899d15" d="M517 613C519 574 521 515 522 493C525 465 516 464 496 444C488 436 472 459 476 469C486 489 482 545 471 590C467 602 463 618 479 651C491 676 505 666 512 643C514 633 516 623 517 613Z"/>
<path id="z25899d16" d="M695 372C696 350 695 339 676 329C650 315 634 312 628 314C627 314 612 317 642 349C648 356 655 365 665 378C671 386 695 382 695 372Z"/>
<path id="z25899d17" d="M681 408C760 396 800 385 802 384C816 371 796 360 781 358C762 354 742 362 695 372C675 376 675 376 665 378C650 380 594 387 562 391C545 392 542 398 554 406C569 416 599 420 641 414C668 410 668 410 681 408Z"/>
<path id="z25899d18" d="M690 475C716 471 740 467 764 464C792 460 775 439 747 434C734 431 717 433 695 439C661 447 661 447 644 451C612 458 581 463 554 470C545 471 545 477 557 485C578 498 620 485 644 482C675 477 675 477 690 475Z"/>
<path id="z25899d19" d="M683 546C713 542 741 536 768 534C794 531 779 511 753 506C744 504 722 506 686 514C657 520 657 520 643 523C612 529 584 533 558 539C549 540 547 548 560 553C572 557 593 557 643 551C670 548 670 548 683 546Z"/>
<path id="z25899d20" d="M680 589C680 574 681 560 683 546C685 525 685 525 686 514C687 500 688 487 690 475C693 451 693 451 695 439C697 423 695 419 681 408C670 400 637 401 641 414C643 418 644 430 644 451C644 472 644 472 644 482C644 492 643 506 643 523C643 542 643 542 643 551C643 581 643 581 643 596C643 609 680 602 680 589Z"/>
<path id="z25899d21" d="M643 596C604 603 544 610 517 613C507 615 503 639 512 643C519 646 529 647 545 644C628 625 707 609 828 612C904 613 868 588 866 587C840 567 808 562 772 570C746 575 715 582 680 589C655 594 655 594 643 596Z"/>
<path id="z25899d22" d="M674 839C700 805 714 783 735 747C744 728 756 714 771 705C783 696 786 686 779 677C771 667 757 659 738 650C725 643 691 656 632 670C551 688 507 690 504 691C490 692 470 700 499 713C522 723 551 723 583 714C631 699 660 691 670 693C682 694 685 702 682 715C669 753 657 781 634 813C626 823 616 833 606 842C561 877 519 898 440 919C404 928 405 942 443 939C512 936 578 921 638 873C650 862 663 851 674 839Z"/>
<path id="z25899d23" d="M638 873C702 935 755 965 791 964C835 961 877 950 916 941C956 930 940 920 910 914C789 887 710 862 674 839C647 822 647 822 634 813C613 799 593 783 573 767C547 746 525 737 504 740C493 741 487 742 486 747C485 750 489 756 500 761C517 769 555 793 606 842C627 863 627 863 638 873Z"/>
<defs>
	<clipPath id="z25899c1"><use href="#z25899d1"/></clipPath>
	<clipPath id="z25899c2"><use href="#z25899d2"/></clipPath>
	<clipPath id="z25899c3"><use href="#z25899d3"/></clipPath>
	<clipPath id="z25899c4"><use href="#z25899d4"/></clipPath>
	<clipPath id="z25899c5"><use href="#z25899d5"/></clipPath>
	<clipPath id="z25899c6"><use href="#z25899d6"/></clipPath>
	<clipPath id="z25899c7"><use href="#z25899d7"/></clipPath>
	<clipPath id="z25899c8"><use href="#z25899d8"/></clipPath>
	<clipPath id="z25899c9"><use href="#z25899d9"/></clipPath>
	<clipPath id="z25899c10"><use href="#z25899d10"/></clipPath>
	<clipPath id="z25899c11"><use href="#z25899d11"/></clipPath>
	<clipPath id="z25899c12"><use href="#z25899d12"/></clipPath>
	<clipPath id="z25899c13"><use href="#z25899d13"/></clipPath>
	<clipPath id="z25899c14"><use href="#z25899d14"/></clipPath>
	<clipPath id="z25899c15"><use href="#z25899d15"/></clipPath>
	<clipPath id="z25899c16"><use href="#z25899d16"/></clipPath>
	<clipPath id="z25899c17"><use href="#z25899d17"/></clipPath>
	<clipPath id="z25899c18"><use href="#z25899d18"/></clipPath>
	<clipPath id="z25899c19"><use href="#z25899d19"/></clipPath>
	<clipPath id="z25899c20"><use href="#z25899d20"/></clipPath>
	<clipPath id="z25899c21"><use href="#z25899d21"/></clipPath>
	<clipPath id="z25899c22"><use href="#z25899d22"/></clipPath>
	<clipPath id="z25899c23"><use href="#z25899d23"/></clipPath>
</defs>
<path style="--d:1s;" pathLength="3333" clip-path="url(#z25899c1)" d="M122 365L391 312"/>
<path style="--d:2s;" pathLength="3333" clip-path="url(#z25899c2)" d="M245 91L302 145L287 803L260 880L151 808"/>
<path style="--d:3s;" pathLength="3333" clip-path="url(#z25899c3)" d="M40 654L100 658L380 455"/>
<path style="--d:4s;" pathLength="3333" clip-path="url(#z25899c4)" d="M428 105L449 136L453 352"/>
<path style="--d:5s;" pathLength="3333" clip-path="url(#z25899c5)" d="M464 121L551 99L588 116L580 341"/>
<path style="--d:6s;" pathLength="3333" clip-path="url(#z25899c6)" d="M466 196L542 176"/>
<path style="--d:7s;" pathLength="3333" clip-path="url(#z25899c7)" d="M466 260L542 245"/>
<path style="--d:8s;" pathLength="3333" clip-path="url(#z25899c8)" d="M466 326L567 307"/>
<path style="--d:9s;" pathLength="3333" clip-path="url(#z25899c9)" d="M664 79L683 117L687 309"/>
<path style="--d:10s;" pathLength="3333" clip-path="url(#z25899c10)" d="M696 99L807 73L831 87L830 305"/>
<path style="--d:11s;" pathLength="3333" clip-path="url(#z25899c11)" d="M703 165L788 155"/>
<path style="--d:12s;" pathLength="3333" clip-path="url(#z25899c12)" d="M703 225L789 217"/>
<path style="--d:13s;" pathLength="3333" clip-path="url(#z25899c13)" d="M706 289L814 274"/>
<path style="--d:14s;" pathLength="3333" clip-path="url(#z25899c14)" d="M485 361L502 394L360 556"/>
<path style="--d:15s;" pathLength="3333" clip-path="url(#z25899c15)" d="M490 447L497 660"/>
<path style="--d:16s;" pathLength="3333" clip-path="url(#z25899c16)" d="M630 321L680 379"/>
<path style="--d:17s;" pathLength="3333" clip-path="url(#z25899c17)" d="M559 399L802 376"/>
<path style="--d:18s;" pathLength="3333" clip-path="url(#z25899c18)" d="M558 477L770 452"/>
<path style="--d:19s;" pathLength="3333" clip-path="url(#z25899c19)" d="M558 546L777 522"/>
<path style="--d:20s;" pathLength="3333" clip-path="url(#z25899c20)" d="M647 409L670 446L657 600"/>
<path style="--d:21s;" pathLength="3333" clip-path="url(#z25899c21)" d="M514 634L783 589L871 599"/>
<path style="--d:22s;" pathLength="3333" clip-path="url(#z25899c22)" d="M495 701L692 674L733 698L659 819L598 875L422 932"/>
<path style="--d:23s;" pathLength="3333" clip-path="url(#z25899c23)" d="M495 748L749 912L934 928"/>
</svg>