<!--
AnimCJK 2016-2018 Copyright Francois Mizessyn - https://github.com/parsimonhi/animCJK
Derived from:
    MakeMeAHanzi project - https://github.com/skishore/makemeahanzi
    Arphic PL KaitiM GB - https://apps.ubuntu.com/cat/applications/precise/fonts-arphic-gkai00mp/
    Arphic PL UKai - https://apps.ubuntu.com/cat/applications/fonts-arphic-ukai/
You can redistribute and/or modify this file under the terms of the Arphic Public License
as published by Arphic Technology Co., Ltd.
You should have received a copy of this license (the directory "APL") along with this file;
if not, see http://ftp.gnu.org/non-gnu/chinese-fonts-truetype/LICENSE.
-->
<svg id="z25950" class="acjk" version="1.1" viewBox="0 0 1024 1024" xmlns="http://www.w3.org/2000/svg" xmlns:xlink="http://www.w3.org/1999/xlink">
<style>
<![CDATA[
@keyframes z25950k {
	from {
		stroke:#ccc;
		stroke-dashoffset:3334;
	}
	1% {
		stroke:#c00;
		stroke-dashoffset:3334;
	}
	75% {
		stroke:#c00;
		stroke-dashoffset:0;
	}
	to {
		stroke:#000;
	}
}
#z25950 path[clip-path] {
	animation:z25950k 1s linear both;
	stroke-dasharray:3334;
	stroke-width:128;
	stroke-linecap:round;
	fill:none;
}
#z25950 path[clip-path="url(#z25950c1)"] {animation-delay:1s;}
#z25950 path[clip-path="url(#z25950c2)"] {animation-delay:2s;}
#z25950 path[clip-path="url(#z25950c3)"] {animation-delay:3s;}
#z25950 path[clip-path="url(#z25950c4)"] {animation-delay:4s;}
#z25950 path[clip-path="url(#z25950c5)"] {animation-delay:5s;}
#z25950 path[clip-path="url(#z25950c6)"] {animation-delay:6s;}
#z25950 path[clip-path="url(#z25950c7)"] {animation-delay:7s;}
#z25950 path[clip-path="url(#z25950c8)"] {animation-delay:8s;}
#z25950 path[clip-path="url(#z25950c9)"] {animation-delay:9s;}
#z25950 path[clip-path="url(#z25950c10)"] {animation-delay:10s;}
#z25950 path[clip-path="url(#z25950c11)"] {animation-delay:11s;}
#z25950 path[clip-path="url(#z25950c12)"] {animation-delay:12s;}
#z25950 path {fill:#ccc;}
]]>
</style>
<path id="z25950d1" d="M338 432Q356 186 369 141Q373 129 353 115Q319 96 296 93Q280 89 272 98Q265 105 273 120Q292 148 293 168Q300 294 296 441C296 455 338 446 338 432Z"/>
<path id="z25950d2" d="M153 311Q186 362 212 377Q225 381 235 371Q242 361 242 344Q236 299 176 280Q173 279 170 277Q155 270 146 273Q140 273 141 285Q141 295 153 311Z"/>
<path id="z25950d3" d="M459 232Q437 272 390 335Q386 342 391 349Q398 350 406 345Q491 275 533 247Q549 241 545 231Q538 215 518 199Q497 183 476 181Q461 182 463 202Q467 215 459 232Z"/>
<path id="z25950d4" d="M164 461Q145 442 111 444Q98 448 104 460Q152 551 113 721Q98 775 99 780Q99 810 119 832Q126 845 136 839Q166 812 170 709Q171 543 174 498C174 485 174 469 164 461Z"/>
<path id="z25950d5" d="M174 498Q174 497 177 497Q280 469 408 450Q429 443 441 455Q448 459 450 493Q457 605 448 734Q448 753 440 758Q430 765 379 756Q364 752 366 761Q366 767 377 773Q423 810 447 838Q465 856 476 853Q486 852 496 827Q511 788 511 732Q502 582 502 527Q503 493 513 473Q523 454 514 444Q505 431 464 411Q448 402 431 407Q398 417 338 432C310 438 310 438 296 441Q230 451 164 461C151 464 161 501 174 498Z"/>
<path id="z25950d6" d="M243 572Q234 568 214 564Q204 563 202 566Q198 570 204 582Q223 622 234 690Q237 709 248 723Q261 739 265 728Q268 718 268 703C265 683 265 683 264 673Q254 612 253 593C253 585 250 575 243 572Z"/>
<path id="z25950d7" d="M379 655Q392 604 409 588Q427 567 408 556Q392 547 371 534Q356 527 342 535Q312 554 243 572C236 574 246 595 253 593Q271 587 325 575Q344 571 349 578Q355 582 348 609Q344 630 338 654C335 667 376 668 379 655Z"/>
<path id="z25950d8" d="M268 703Q272 703 277 702Q314 693 394 686Q403 685 404 678Q404 671 379 655C367 648 351 651 338 654C337 654 337 654 337 654Q297 666 264 673C254 675 258 703 268 703Z"/>
<path id="z25950d9" d="M627 387Q672 294 697 225Q709 182 724 159Q731 146 723 134Q716 122 682 107Q651 95 633 99Q614 106 628 126Q677 189 536 492Q529 505 527 511Q526 523 540 517Q544 516 550 510C558 499 558 499 562 494Q580 475 618 406C624 393 624 393 627 387Z"/>
<path id="z25950d10" d="M737 411Q906 363 909 361Q916 352 912 344Q905 332 874 327Q847 324 755 357Q656 381 632 385Q628 385 627 387C620 390 613 401 618 406Q639 427 701 420C725 414 725 414 737 411Z"/>
<path id="z25950d11" d="M669 677Q638 740 523 807Q501 820 528 819Q573 822 645 775Q675 757 698 722C716 691 716 691 725 676Q758 606 774 484Q778 459 782 449Q789 443 783 433Q776 421 737 411C725 409 696 409 701 420Q734 511 689 634C676 663 676 663 669 677Z"/>
<path id="z25950d12" d="M550 510Q581 532 600 566Q634 624 669 677C688 707 688 707 698 722Q735 779 772 828Q785 849 812 851Q956 857 966 846Q970 839 960 835Q807 765 740 692Q731 685 725 676C701 648 701 648 689 634Q647 582 599 515Q589 497 572 494Q566 493 562 494C555 494 545 506 550 510Z"/>
<defs>
	<clipPath id="z25950c1"><use xlink:href="#z25950d1"/></clipPath>
	<clipPath id="z25950c2"><use xlink:href="#z25950d2"/></clipPath>
	<clipPath id="z25950c3"><use xlink:href="#z25950d3"/></clipPath>
	<clipPath id="z25950c4"><use xlink:href="#z25950d4"/></clipPath>
	<clipPath id="z25950c5"><use xlink:href="#z25950d5"/></clipPath>
	<clipPath id="z25950c6"><use xlink:href="#z25950d6"/></clipPath>
	<clipPath id="z25950c7"><use xlink:href="#z25950d7"/></clipPath>
	<clipPath id="z25950c8"><use xlink:href="#z25950d8"/></clipPath>
	<clipPath id="z25950c9"><use xlink:href="#z25950d9"/></clipPath>
	<clipPath id="z25950c10"><use xlink:href="#z25950d10"/></clipPath>
	<clipPath id="z25950c11"><use xlink:href="#z25950d11"/></clipPath>
	<clipPath id="z25950c12"><use xlink:href="#z25950d12"/></clipPath>
</defs>
<path pathLength="3333" clip-path="url(#z25950c1)" d="M275 101L330 146L308 438"/>
<path pathLength="3333" clip-path="url(#z25950c2)" d="M148 277L231 370"/>
<path pathLength="3333" clip-path="url(#z25950c3)" d="M473 186L504 230L394 341"/>
<path pathLength="3333" clip-path="url(#z25950c4)" d="M109 451L138 474L150 529L127 835"/>
<path pathLength="3333" clip-path="url(#z25950c5)" d="M175 489L424 428L475 448L475 772L450 806L371 762"/>
<path pathLength="3333" clip-path="url(#z25950c6)" d="M209 570L233 598L256 724"/>
<path pathLength="3333" clip-path="url(#z25950c7)" d="M251 575L373 564L385 578L353 654"/>
<path pathLength="3333" clip-path="url(#z25950c8)" d="M275 694L398 679"/>
<path pathLength="3333" clip-path="url(#z25950c9)" d="M629 109L679 142L680 168L618 356L536 512"/>
<path pathLength="3333" clip-path="url(#z25950c10)" d="M625 404L908 353"/>
<path pathLength="3333" clip-path="url(#z25950c11)" d="M708 426L748 451L704 661L645 747L523 815"/>
<path pathLength="3333" clip-path="url(#z25950c12)" d="M555 506L806 802L959 841"/>
</svg>