<!--
AnimCJK 2016-2017 Copyright Francois Mizessyn, http://gooo.free.fr/animCJK/
Derived from:
    MakeMeAHanzi project - https://github.com/skishore/makemeahanzi
    Arphic PL KaitiM GB - https://apps.ubuntu.com/cat/applications/precise/fonts-arphic-gkai00mp/
    Arphic PL UKai - https://apps.ubuntu.com/cat/applications/fonts-arphic-ukai/
You can redistribute and/or modify this file under the terms of the Arphic Public License
as published by Arphic Technology Co., Ltd.
You should have received a copy of this license (the directory "APL") along with this file;
if not, see http://ftp.gnu.org/non-gnu/chinese-fonts-truetype/LICENSE.
-->
<svg id="z25995" class="acjk" version="1.1" viewBox="0 0 1024 1024" xmlns="http://www.w3.org/2000/svg" xmlns:xlink="http://www.w3.org/1999/xlink">
<style>
<![CDATA[
	@keyframes z25995k {
		from {
			stroke:#c00;
			stroke-dashoffset:3000;
		}
		75% {
			stroke:#c00;
			stroke-dashoffset:0;
		}
		to {
			stroke:#000;
		}
	}
	#z25995 path[clip-path] {
		animation:z25995k 1s linear both;
		stroke-dasharray:3000;
		stroke-width:128;
		stroke-linecap:round;
		fill:none;
	}
	#z25995 path[clip-path="url(#z25995c1)"] {animation-delay:1s;}
	#z25995 path[clip-path="url(#z25995c2)"] {animation-delay:2s;}
	#z25995 path[clip-path="url(#z25995c3)"] {animation-delay:3s;}
	#z25995 path[clip-path="url(#z25995c4)"] {animation-delay:4s;}
	#z25995 path[clip-path="url(#z25995c5)"] {animation-delay:5s;}
	#z25995 path[clip-path="url(#z25995c6)"] {animation-delay:6s;}
	#z25995 path[clip-path="url(#z25995c7)"] {animation-delay:7s;}
	#z25995 path[clip-path="url(#z25995c8)"] {animation-delay:8s;}
	#z25995 path[clip-path="url(#z25995c9)"] {animation-delay:9s;}
	#z25995 path[clip-path="url(#z25995c10)"] {animation-delay:10s;}
	#z25995 path {fill:#ccc;}
]]>
</style>
<g transform="scale(1,-1) translate(0,-900)">
	<path id="z25995d1" d="M475 823Q506 804 541 780Q554 770 569 773Q579 774 581 788Q582 803 571 828Q556 856 463 865Q450 866 443 863Q439 859 443 847Q447 837 475 823Z"/>
	<path id="z25995d2" d="M634 709Q719 719 789 724Q801 723 811 735Q812 748 789 761Q749 785 669 764Q476 730 267 710Q248 710 230 707Q199 704 222 685Q258 654 288 660Q415 684 583 703L634 709Z"/>
	<path id="z25995d3" d="M542 565Q567 589 595 618Q617 640 644 661Q654 665 653 677Q652 687 634 709L583 703Q562 652 501 590L476 569Q374 487 170 428Q160 424 165 419Q171 415 182 414Q258 415 332 439Q414 461 516 542L542 565Z"/>
	<path id="z25995d4" d="M516 542Q720 392 768 400Q769 401 772 401Q856 419 921 445Q955 457 950 466Q949 470 911 473Q881 474 848 474Q797 477 766 479Q693 491 645 513Q596 535 542 565L501 590Q470 609 439 631Q399 658 368 651Q352 650 351 643Q350 637 366 631Q405 619 476 569L516 542Z"/>
	<path id="z25995d5" d="M470 391Q555 407 647 414Q656 413 665 424Q666 434 646 445Q618 466 528 441Q516 440 505 436Q484 433 336 414Q311 411 330 395Q349 379 391 378Q409 382 432 384L470 391Z"/>
	<path id="z25995d6" d="M413 282Q473 339 493 351Q509 361 498 373Q488 383 470 391L432 384Q435 363 383 276L413 282Z"/>
	<path id="z25995d7" d="M267 257Q246 278 221 281Q217 284 211 277Q207 271 212 260Q239 211 231 81Q228 60 237 42Q249 23 264 12Q277 5 279 15Q286 19 287 38Q290 53 285 102Q279 180 280 213L267 257Z"/>
	<path id="z25995d8" d="M584 272Q743 290 761 271Q768 264 765 249Q746 95 732 75Q726 63 712 68Q681 75 648 82Q620 86 639 67Q703 12 729 -27Q738 -40 751 -33Q779 -9 798 73Q820 218 840 240Q856 262 850 270Q843 283 791 319Q772 335 756 329Q726 319 671 311Q502 296 413 282L383 276Q371 276 363 273Q309 263 267 257L280 213Q290 213 303 217Q337 230 390 240L425 248Q468 260 541 267L584 272Z"/>
	<path id="z25995d9" d="M390 240Q408 222 406 100Q405 75 416 57Q428 35 435 48Q445 64 445 100Q448 197 450 218Q451 231 448 236Q442 242 425 248L390 240Z"/>
	<path id="z25995d10" d="M552 46Q556 27 560 19Q564 13 570 15Q576 16 581 29Q603 221 610 237Q614 250 603 259Q593 266 584 272L541 267Q542 266 543 264Q544 260 547 257Q553 247 551 110Q551 62 552 46Z"/>
	<defs>
		<clipPath id="z25995c1"><use xlink:href="#z25995d1"/></clipPath>
		<clipPath id="z25995c2"><use xlink:href="#z25995d2"/></clipPath>
		<clipPath id="z25995c3"><use xlink:href="#z25995d3"/></clipPath>
		<clipPath id="z25995c4"><use xlink:href="#z25995d4"/></clipPath>
		<clipPath id="z25995c5"><use xlink:href="#z25995d5"/></clipPath>
		<clipPath id="z25995c6"><use xlink:href="#z25995d6"/></clipPath>
		<clipPath id="z25995c7"><use xlink:href="#z25995d7"/></clipPath>
		<clipPath id="z25995c8"><use xlink:href="#z25995d8"/></clipPath>
		<clipPath id="z25995c9"><use xlink:href="#z25995d9"/></clipPath>
		<clipPath id="z25995c10"><use xlink:href="#z25995d10"/></clipPath>
	</defs>
	<path pathLength="2999" clip-path="url(#z25995c1)" d="M446 859L576 786"/>
	<path pathLength="2999" clip-path="url(#z25995c2)" d="M221 696L277 685L739 747L805 734"/>
	<path pathLength="2999" clip-path="url(#z25995c3)" d="M649 677L602 671L513 570L402 493L172 423"/>
	<path pathLength="2999" clip-path="url(#z25995c4)" d="M362 641L732 447L943 464"/>
	<path pathLength="2999" clip-path="url(#z25995c5)" d="M330 405L660 427"/>
	<path pathLength="2999" clip-path="url(#z25995c6)" d="M498 364L455 360L392 282"/>
	<path pathLength="2999" clip-path="url(#z25995c7)" d="M217 272L250 228L269 14"/>
	<path pathLength="2999" clip-path="url(#z25995c8)" d="M276 251L769 300L807 254L752 36L730 16L640 79"/>
	<path pathLength="2999" clip-path="url(#z25995c9)" d="M398 238L426 215L427 51"/>
	<path pathLength="2999" clip-path="url(#z25995c10)" d="M549 264L581 232L568 21"/>
</g>
</svg>