<!--
AnimCJK 2016-2019 Copyright Francois Mizessyn - https://github.com/parsimonhi/animCJK
Derived from:
    MakeMeAHanzi project - https://github.com/skishore/makemeahanzi
    Arphic PL KaitiM GB font
    Arphic PL UKai font
You can redistribute and/or modify this file under the terms of the Arphic Public License
as published by Arphic Technology Co., Ltd.
You should have received a copy of this license along with this file.
If not, see http://ftp.gnu.org/non-gnu/chinese-fonts-truetype/LICENSE.
-->
<svg id="z26085" class="acjk" version="1.1" viewBox="0 0 1024 1024" xmlns="http://www.w3.org/2000/svg" xmlns:xlink="http://www.w3.org/1999/xlink">
<style>
<![CDATA[
@keyframes zk {
	to {
		stroke-dashoffset:0;
	}
}
svg.acjk path[clip-path] {
	--t:0.8s;
	animation:zk var(--t) linear forwards var(--d);
	stroke-dasharray:3337;
	stroke-dashoffset:3339;
	stroke-width:128;
	stroke-linecap:round;
	fill:none;
	stroke:#000;
}
svg.acjk path[id] {fill:#ccc;}
]]>
</style>
<path id="z26085d1" d="M349 236C334 218 314 204 292 204C284 203 278 204 274 211C270 214 275 220 279 230C315 321 318 459 294 639C289 669 281 699 271 731C265 749 263 766 267 782C273 806 281 823 291 835C299 844 307 844 314 834C320 825 328 813 332 798C337 775 337 775 339 763C342 743 348 683 349 652C349 612 349 559 351 509C352 490 352 490 352 480C355 376 355 307 361 274C363 261 357 247 349 236Z"/>
<path id="z26085d2" d="M634 780C644 805 649 835 665 861C671 875 679 881 688 881C700 880 712 867 724 841C738 811 743 778 740 743C732 641 725 495 721 307C720 283 726 262 738 246C744 236 744 227 738 219C723 204 696 188 656 170C642 163 629 163 617 171C547 201 457 222 349 236C336 239 348 276 361 274C393 268 470 252 590 228C612 223 629 225 640 234C674 268 678 425 662 703C661 730 655 749 646 756C640 762 631 772 634 780Z"/>
<path id="z26085d3" d="M351 509C377 517 404 518 433 513C473 504 513 497 554 489C572 485 583 481 587 479C593 474 594 468 591 463C586 455 574 449 556 445C539 440 505 451 450 465C400 477 367 478 352 480C343 482 342 507 351 509Z"/>
<path id="z26085d4" d="M332 798C340 800 350 801 361 800C413 790 522 783 634 780C643 780 652 763 646 756C641 750 634 742 622 734C610 726 584 725 561 730C479 747 405 757 339 763C327 765 320 796 332 798Z"/>
<defs>
	<clipPath id="z26085c1"><use xlink:href="#z26085d1"/></clipPath>
	<clipPath id="z26085c2"><use xlink:href="#z26085d2"/></clipPath>
	<clipPath id="z26085c3"><use xlink:href="#z26085d3"/></clipPath>
	<clipPath id="z26085c4"><use xlink:href="#z26085d4"/></clipPath>
</defs>
<path style="--d:1s;" pathLength="3333" clip-path="url(#z26085c1)" d="M280 211L319 250L329 303L298 837"/>
<path style="--d:2s;" pathLength="3333" clip-path="url(#z26085c2)" d="M357 242L633 197L698 246L700 710L678 873"/>
<path style="--d:3s;" pathLength="3333" clip-path="url(#z26085c3)" d="M360 503L589 472"/>
<path style="--d:4s;" pathLength="3333" clip-path="url(#z26085c4)" d="M341 791L640 762"/>
</svg>