<!--
AnimCJK 2016-2017 Copyright Francois Mizessyn, http://gooo.free.fr/animCJK/
Derived from:
    MakeMeAHanzi project - https://github.com/skishore/makemeahanzi
    Arphic PL KaitiM GB - https://apps.ubuntu.com/cat/applications/precise/fonts-arphic-gkai00mp/
    Arphic PL UKai - https://apps.ubuntu.com/cat/applications/fonts-arphic-ukai/
You can redistribute and/or modify this file under the terms of the Arphic Public License
as published by Arphic Technology Co., Ltd.
You should have received a copy of this license (the directory "APL") along with this file;
if not, see http://ftp.gnu.org/non-gnu/chinese-fonts-truetype/LICENSE.
-->
<svg id="z26082" class="acjk" version="1.1" viewBox="0 0 1024 1024" xmlns="http://www.w3.org/2000/svg" xmlns:xlink="http://www.w3.org/1999/xlink">
<style>
<![CDATA[
	@keyframes z26082k {
		from {
			stroke:#c00;
			stroke-dashoffset:3000;
		}
		75% {
			stroke:#c00;
			stroke-dashoffset:0;
		}
		to {
			stroke:#000;
		}
	}
	#z26082 path[clip-path] {
		animation:z26082k 1s linear both;
		stroke-dasharray:3000;
		stroke-width:128;
		stroke-linecap:round;
		fill:none;
	}
	#z26082 path[clip-path="url(#z26082c1)"] {animation-delay:1s;}
	#z26082 path[clip-path="url(#z26082c2)"] {animation-delay:2s;}
	#z26082 path[clip-path="url(#z26082c3)"] {animation-delay:3s;}
	#z26082 path[clip-path="url(#z26082c4)"] {animation-delay:4s;}
	#z26082 path[clip-path="url(#z26082c5)"] {animation-delay:5s;}
	#z26082 path[clip-path="url(#z26082c6)"] {animation-delay:6s;}
	#z26082 path[clip-path="url(#z26082c7)"] {animation-delay:7s;}
	#z26082 path[clip-path="url(#z26082c8)"] {animation-delay:8s;}
	#z26082 path[clip-path="url(#z26082c9)"] {animation-delay:9s;}
	#z26082 path {fill:#ccc;}
]]>
</style>
<g transform="scale(1,-1) translate(0,-900)">
	<path id="z26082d1" d="M326 432Q327 431 330 426Q352 393 374 420Q387 438 395 482Q402 609 432 654Q445 673 432 688Q413 704 382 722Q366 728 349 721Q277 694 197 679L211 650Q215 656 290 673Q333 685 350 676Q359 670 356 640Q341 465 330 457L326 432Z"/>
	<path id="z26082d2" d="M206 522Q264 537 310 545Q329 551 322 561Q312 574 288 575Q249 578 205 550L206 522Z"/>
	<path id="z26082d3" d="M204 412Q273 425 326 432L330 457Q306 469 205 437L204 412Z"/>
	<path id="z26082d4" d="M333 303Q330 303 207 230Q197 223 195 233Q202 329 204 412L205 437Q206 482 206 522L205 550Q205 619 211 650L197 679Q179 694 162 702Q144 709 136 703Q126 697 135 682Q183 582 152 271Q151 225 113 178Q103 163 110 142Q120 117 132 107Q145 100 156 115Q174 149 344 283L333 303Z"/>
	<path id="z26082d5" d="M344 283Q368 232 384 227Q393 224 401 233Q410 243 411 271Q412 292 389 317Q332 368 316 367Q312 366 309 354Q309 353 333 303L344 283Z"/>
	<path id="z26082d6" d="M629 696Q692 711 795 724Q805 723 813 735Q814 745 793 755Q762 774 687 751Q671 748 655 743Q592 728 495 715Q468 711 490 695Q520 674 559 682Q569 685 583 686L629 696Z"/>
	<path id="z26082d7" d="M641 445Q728 460 824 457Q846 456 853 468Q859 478 839 489Q779 528 727 505Q678 496 646 487L597 476Q555 467 518 456Q493 446 499 470Q514 531 527 554Q537 564 532 574Q526 584 492 600Q476 610 465 604Q455 595 464 582Q477 551 459 483Q455 464 431 441Q422 431 424 419Q427 407 443 394Q456 387 469 398Q505 417 555 429Q571 433 590 436L641 445Z"/>
	<path id="z26082d8" d="M646 487Q664 613 679 647Q688 666 670 675Q651 688 635 693Q631 694 629 696L583 686Q583 683 586 678Q619 621 597 476L590 436Q533 196 357 78Q342 65 326 53Q313 43 326 40Q402 47 496 146Q554 201 582 261Q592 289 605 315Q630 376 641 445L646 487Z"/>
	<path id="z26082d9" d="M972 101Q957 128 934 210Q933 226 925 230Q918 233 916 215Q897 124 880 96Q853 66 777 72Q746 73 722 84Q700 94 695 108Q668 160 701 341Q707 371 658 391Q645 395 637 390Q630 386 636 369Q648 330 645 293Q632 85 670 51Q743 -9 895 24Q896 25 900 25Q934 35 969 58Q988 74 972 101Z"/>
	<defs>
		<clipPath id="z26082c1"><use xlink:href="#z26082d1"/></clipPath>
		<clipPath id="z26082c2"><use xlink:href="#z26082d2"/></clipPath>
		<clipPath id="z26082c3"><use xlink:href="#z26082d3"/></clipPath>
		<clipPath id="z26082c4"><use xlink:href="#z26082d4"/></clipPath>
		<clipPath id="z26082c5"><use xlink:href="#z26082d5"/></clipPath>
		<clipPath id="z26082c6"><use xlink:href="#z26082d6"/></clipPath>
		<clipPath id="z26082c7"><use xlink:href="#z26082d7"/></clipPath>
		<clipPath id="z26082c8"><use xlink:href="#z26082d8"/></clipPath>
		<clipPath id="z26082c9"><use xlink:href="#z26082d9"/></clipPath>
	</defs>
	<path pathLength="2999" clip-path="url(#z26082c1)" d="M206 674L346 700L390 681L347 414"/>
	<path pathLength="2999" clip-path="url(#z26082c2)" d="M210 531L314 558"/>
	<path pathLength="2999" clip-path="url(#z26082c3)" d="M211 421L327 446"/>
	<path pathLength="2999" clip-path="url(#z26082c4)" d="M137 698L181 626L153 170L174 160L338 293"/>
	<path pathLength="2999" clip-path="url(#z26082c5)" d="M318 359L391 234"/>
	<path pathLength="2999" clip-path="url(#z26082c6)" d="M490 705L808 738"/>
	<path pathLength="2999" clip-path="url(#z26082c7)" d="M470 598L501 563L464 439L478 423L737 483L847 475"/>
	<path pathLength="2999" clip-path="url(#z26082c8)" d="M591 682L642 642L585 332L477 156L330 46"/>
	<path pathLength="2999" clip-path="url(#z26082c9)" d="M641 384L671 349L665 134L700 64L789 42L899 62L935 103L923 223"/>
</g>
</svg>