<!--
AnimCJK 2016-2017 Copyright Francois Mizessyn, http://gooo.free.fr/animCJK/
Derived from:
    MakeMeAHanzi project - https://github.com/skishore/makemeahanzi
    Arphic PL KaitiM GB - https://apps.ubuntu.com/cat/applications/precise/fonts-arphic-gkai00mp/
    Arphic PL UKai - https://apps.ubuntu.com/cat/applications/fonts-arphic-ukai/
You can redistribute and/or modify this file under the terms of the Arphic Public License
as published by Arphic Technology Co., Ltd.
You should have received a copy of this license (the directory "APL") along with this file;
if not, see http://ftp.gnu.org/non-gnu/chinese-fonts-truetype/LICENSE.
-->
<svg id="z26092" class="acjk" version="1.1" viewBox="0 0 1024 1024" xmlns="http://www.w3.org/2000/svg" xmlns:xlink="http://www.w3.org/1999/xlink">
<style>
<![CDATA[
	@keyframes z26092k {
		from {
			stroke:#c00;
			stroke-dashoffset:3000;
		}
		75% {
			stroke:#c00;
			stroke-dashoffset:0;
		}
		to {
			stroke:#000;
		}
	}
	#z26092 path[clip-path] {
		animation:z26092k 1s linear both;
		stroke-dasharray:3000;
		stroke-width:128;
		stroke-linecap:round;
		fill:none;
	}
	#z26092 path[clip-path="url(#z26092c1)"] {animation-delay:1s;}
	#z26092 path[clip-path="url(#z26092c2)"] {animation-delay:2s;}
	#z26092 path[clip-path="url(#z26092c3)"] {animation-delay:3s;}
	#z26092 path[clip-path="url(#z26092c4)"] {animation-delay:4s;}
	#z26092 path[clip-path="url(#z26092c5)"] {animation-delay:5s;}
	#z26092 path[clip-path="url(#z26092c6)"] {animation-delay:6s;}
	#z26092 path {fill:#ccc;}
]]>
</style>
<g transform="scale(1,-1) translate(0,-900)">
	<path id="z26092d1" d="M343 614Q383 657 434 720Q458 754 477 769Q487 779 484 794Q481 807 454 832Q429 853 409 855Q390 854 396 831Q423 762 213 535Q203 525 199 519Q195 509 210 509Q243 513 331 603Q331 604 332 604L343 614Z"/>
	<path id="z26092d2" d="M332 604Q332 598 342 594Q387 572 421 582Q461 595 652 622Q683 626 696 611Q717 589 719 533Q726 361 715 250Q688 70 656 55Q652 52 576 70Q549 79 546 73Q542 66 560 51Q603 8 626 -33Q648 -64 667 -58Q683 -54 706 -22Q737 20 758 96Q780 189 785 490Q785 568 806 595Q825 617 800 636Q767 657 711 676Q699 680 684 674Q495 626 343 614L332 604Z"/>
	<path id="z26092d3" d="M281 450Q263 463 243 468Q234 469 229 462Q226 458 233 448Q266 367 240 222Q227 204 235 172Q244 142 254 131Q264 119 273 132Q280 141 284 155L290 186Q294 211 295 292L295 320Q296 401 299 422L281 450Z"/>
	<path id="z26092d4" d="M403 165Q428 131 447 99Q454 83 465 84Q480 85 494 114Q510 148 508 190Q504 260 499 389Q498 417 513 436Q520 448 513 456Q497 474 450 495Q432 504 389 480Q341 464 281 450L299 422Q314 423 417 449Q430 453 439 447Q463 423 444 194Q440 176 423 185L403 165Z"/>
	<path id="z26092d5" d="M295 292Q355 298 399 305Q421 309 413 321Q403 334 379 338Q346 342 295 320L295 292Z"/>
	<path id="z26092d6" d="M284 155Q291 155 297 156Q331 163 403 165L423 185Q414 191 399 198L398 199Q385 206 357 201Q320 192 290 186L284 155Z"/>
	<defs>
		<clipPath id="z26092c1"><use xlink:href="#z26092d1"/></clipPath>
		<clipPath id="z26092c2"><use xlink:href="#z26092d2"/></clipPath>
		<clipPath id="z26092c3"><use xlink:href="#z26092d3"/></clipPath>
		<clipPath id="z26092c4"><use xlink:href="#z26092d4"/></clipPath>
		<clipPath id="z26092c5"><use xlink:href="#z26092d5"/></clipPath>
		<clipPath id="z26092c6"><use xlink:href="#z26092d6"/></clipPath>
	</defs>
	<path pathLength="2999" clip-path="url(#z26092c1)" d="M403 845L438 781L326 630L206 515"/>
	<path pathLength="2999" clip-path="url(#z26092c2)" d="M343 605L683 648L762 601L743 227L710 68L657 -4L553 70"/>
	<path pathLength="2999" clip-path="url(#z26092c3)" d="M234 459L272 414L260 130"/>
	<path pathLength="2999" clip-path="url(#z26092c4)" d="M289 448L435 474L481 440L471 163L451 134L409 161"/>
	<path pathLength="2999" clip-path="url(#z26092c5)" d="M303 301L409 316"/>
	<path pathLength="2999" clip-path="url(#z26092c6)" d="M295 164L417 182"/>
</g>
</svg>