<!--
AnimCJK 2016-2018 Copyright Francois Mizessyn, https://github.com/parsimonhi/animCJK
Derived from:
    MakeMeAHanzi project - https://github.com/skishore/makemeahanzi
    Arphic PL KaitiM GB - https://apps.ubuntu.com/cat/applications/precise/fonts-arphic-gkai00mp/
    Arphic PL UKai - https://apps.ubuntu.com/cat/applications/fonts-arphic-ukai/
You can redistribute and/or modify this file under the terms of the Arphic Public License
as published by Arphic Technology Co., Ltd.
You should have received a copy of this license (the directory "APL") along with this file;
if not, see http://ftp.gnu.org/non-gnu/chinese-fonts-truetype/LICENSE.
-->
<svg id="z26102" class="acjk" version="1.1" viewBox="0 0 1024 1024" xmlns="http://www.w3.org/2000/svg" xmlns:xlink="http://www.w3.org/1999/xlink">
<style>
<![CDATA[
@keyframes z26102k {
	from {
		stroke:#c00;
		stroke-dashoffset:3334;
	}
	75% {
		stroke:#c00;
		stroke-dashoffset:0;
	}
	to {
		stroke:#000;
	}
}
#z26102 path[clip-path] {
	animation:z26102k 1s linear both;
	stroke-dasharray:3334;
	stroke-width:128;
	stroke-linecap:round;
	fill:none;
}
#z26102 path[clip-path="url(#z26102c1)"] {animation-delay:1s;}
#z26102 path[clip-path="url(#z26102c2)"] {animation-delay:2s;}
#z26102 path[clip-path="url(#z26102c3)"] {animation-delay:3s;}
#z26102 path[clip-path="url(#z26102c4)"] {animation-delay:4s;}
#z26102 path[clip-path="url(#z26102c5)"] {animation-delay:5s;}
#z26102 path[clip-path="url(#z26102c6)"] {animation-delay:6s;}
#z26102 path[clip-path="url(#z26102c7)"] {animation-delay:7s;}
#z26102 path {fill:#ccc;}
]]>
</style>
<path id="z26102d1" d="M196 228Q178 210 156 204Q146 200 134 203Q127 209 133 221Q151 299 153 303Q153 307 154 315Q166 522 135 644Q120 699 157 746Q167 759 179 747Q189 731 191 713L195 679Q196 657 196 625Q197 543 198 481L199 450Q202 282 204 268Q205 261 205 255L196 228 Z"/>
<path id="z26102d2" d="M308 702Q318 718 330 735Q346 759 353 756Q365 753 379 720Q389 692 385 574Q370 283 392 246Q402 228 394 217Q387 207 338 192Q316 183 298 193Q243 218 196 228L205 255Q308 234 311 234Q314 234 318 238Q331 251 332 306Q336 529 327 652Q330 671 315 673L308 702 Z"/>
<path id="z26102d3" d="M198 481Q252 468 294 460Q315 454 306 443Q294 430 270 429Q224 426 199 450L198 481 Z"/>
<path id="z26102d4" d="M191 713Q198 704 308 702L315 673Q311 669 304 665Q288 656 195 679L191 713 Z"/>
<path id="z26102d5" d="M749 364Q833 352 918 339Q921 336 924 333Q925 320 901 308Q859 284 772 310Q760 313 750 316L700 327Q699 326 697 327Q661 333 425 365Q394 368 418 388Q454 418 485 410Q579 391 700 371L749 364 Z"/>
<path id="z26102d6" d="M700 371Q701 519 702 782Q701 807 688 816Q682 820 601 807Q568 797 571 807Q572 814 594 828Q664 876 683 905Q705 939 721 938Q736 939 749 904Q765 858 761 786Q746 575 749 364L750 316Q750 199 767 143Q783 112 728 91Q694 72 675 80Q657 87 674 109Q696 136 697 170Q698 188 700 327L700 371 Z"/>
<path id="z26102d7" d="M483 552Q513 582 543 617Q556 630 572 632Q582 632 589 619Q595 604 588 574Q582 540 482 504Q466 500 460 501Q454 505 455 518Q458 528 483 552 Z"/>
<defs>
	<clipPath id="z26102c1"><use xlink:href="#z26102d1"/></clipPath>
	<clipPath id="z26102c2"><use xlink:href="#z26102d2"/></clipPath>
	<clipPath id="z26102c3"><use xlink:href="#z26102d3"/></clipPath>
	<clipPath id="z26102c4"><use xlink:href="#z26102d4"/></clipPath>
	<clipPath id="z26102c5"><use xlink:href="#z26102d5"/></clipPath>
	<clipPath id="z26102c6"><use xlink:href="#z26102d6"/></clipPath>
	<clipPath id="z26102c7"><use xlink:href="#z26102d7"/></clipPath>
</defs>
<path pathLength="3333" clip-path="url(#z26102c1)" d="M140 209L169 242L178 316L166 747"/>
<path pathLength="3333" clip-path="url(#z26102c2)" d="M204 236L312 211L361 237L347 751"/>
<path pathLength="3333" clip-path="url(#z26102c3)" d="M202 472L304 446"/>
<path pathLength="3333" clip-path="url(#z26102c4)" d="M198 704L311 677"/>
<path pathLength="3333" clip-path="url(#z26102c5)" d="M418 377L918 326"/>
<path pathLength="3333" clip-path="url(#z26102c6)" d="M671 88L731 136L730 809L705 887L581 810"/>
<path pathLength="3333" clip-path="url(#z26102c7)" d="M463 512L545 569L579 625"/>
</svg>