<!--
AnimCJK 2016-2019 Copyright Francois Mizessyn - https://github.com/parsimonhi/animCJK
Derived from:
    MakeMeAHanzi project - https://github.com/skishore/makemeahanzi
    Arphic PL KaitiM GB font
    Arphic PL UKai font
You can redistribute and/or modify this file under the terms of the Arphic Public License
as published by Arphic Technology Co., Ltd.
You should have received a copy of this license along with this file.
If not, see http://ftp.gnu.org/non-gnu/chinese-fonts-truetype/LICENSE.
-->
<svg id="z26106" class="acjk" version="1.1" viewBox="0 0 1024 1024" xmlns="http://www.w3.org/2000/svg" xmlns:xlink="http://www.w3.org/1999/xlink">
<style>
<![CDATA[
@keyframes zk {
	to {
		stroke-dashoffset:0;
	}
}
svg.acjk path[clip-path] {
	--t:0.8s;
	animation:zk var(--t) linear forwards var(--d);
	stroke-dasharray:3337;
	stroke-dashoffset:3339;
	stroke-width:128;
	stroke-linecap:round;
	fill:none;
	stroke:#000;
}
svg.acjk path[id] {fill:#ccc;}
]]>
</style>
<path id="z26106d1" d="M203 260Q190 247 168 240Q158 236 147 239Q140 245 145 257Q148 270 153 282Q183 339 164 633Q160 675 147 724Q132 778 169 827Q179 840 191 827Q203 811 203 790C206 767 206 767 207 755Q208 730 208 697Q209 603 210 530C211 507 211 507 211 496Q214 319 216 304Q217 294 217 286C217 276 211 266 203 260Z"/>
<path id="z26106d2" d="M304 778Q346 847 357 844Q370 841 386 804Q402 761 396 709Q387 601 381 369Q380 308 396 277Q406 261 398 249Q391 239 342 224Q318 215 302 225Q248 249 203 260C193 262 208 290 217 286Q218 285 224 284Q251 278 283 269Q311 260 322 270Q338 286 338 347Q342 600 331 740Q332 750 329 757C325 767 297 769 304 778Z"/>
<path id="z26106d3" d="M309 511Q333 504 322 492Q309 479 282 476Q257 476 215 493Q212 494 211 496C201 502 199 532 210 530C276 517 276 517 309 511Z"/>
<path id="z26106d4" d="M203 790Q236 783 304 778C315 778 337 765 329 757Q301 729 217 752Q211 753 207 755C196 759 191 792 203 790Z"/>
<path id="z26106d5" d="M644 267Q714 251 790 237Q839 225 847 219Q857 210 851 201Q844 188 812 180Q782 174 678 208Q564 235 483 244Q443 251 471 269Q507 291 592 278C627 271 627 271 644 267Z"/>
<path id="z26106d6" d="M662 533Q803 497 808 493Q817 484 812 476Q805 464 774 457Q741 453 663 482C628 493 628 493 611 498Q557 510 497 518Q460 525 487 542Q533 561 597 547Q603 546 611 545C645 537 645 537 662 533Z"/>
<path id="z26106d7" d="M657 762Q658 639 662 533C663 499 663 499 663 482Q666 334 668 316Q677 291 644 267C630 256 585 262 592 278Q596 288 603 297Q610 321 611 359Q612 381 611 498C611 529 611 529 611 545Q610 633 609 768C609 784 657 778 657 762Z"/>
<path id="z26106d8" d="M609 768Q512 778 406 792Q384 795 400 813Q415 828 434 834Q456 840 474 835Q615 799 893 799Q909 799 924 800Q946 800 951 791Q957 778 939 763Q885 721 843 730Q773 743 657 762C625 766 625 766 609 768Z"/>
<defs>
	<clipPath id="z26106c1"><use xlink:href="#z26106d1"/></clipPath>
	<clipPath id="z26106c2"><use xlink:href="#z26106d2"/></clipPath>
	<clipPath id="z26106c3"><use xlink:href="#z26106d3"/></clipPath>
	<clipPath id="z26106c4"><use xlink:href="#z26106d4"/></clipPath>
	<clipPath id="z26106c5"><use xlink:href="#z26106d5"/></clipPath>
	<clipPath id="z26106c6"><use xlink:href="#z26106d6"/></clipPath>
	<clipPath id="z26106c7"><use xlink:href="#z26106d7"/></clipPath>
	<clipPath id="z26106c8"><use xlink:href="#z26106d8"/></clipPath>
</defs>
<path style="--d:1s;" pathLength="3333" clip-path="url(#z26106c1)" d="M151 244L190 319L179 828"/>
<path style="--d:2s;" pathLength="3333" clip-path="url(#z26106c2)" d="M212 265L322 243L365 271L364 751L342 832"/>
<path style="--d:3s;" pathLength="3333" clip-path="url(#z26106c3)" d="M219 521L319 499"/>
<path style="--d:4s;" pathLength="3333" clip-path="url(#z26106c4)" d="M207 783L319 762"/>
<path style="--d:5s;" pathLength="3333" clip-path="url(#z26106c5)" d="M467 255L848 210"/>
<path style="--d:6s;" pathLength="3333" clip-path="url(#z26106c6)" d="M486 531L807 484"/>
<path style="--d:7s;" pathLength="3333" clip-path="url(#z26106c7)" d="M599 279L638 306L623 766"/>
<path style="--d:8s;" pathLength="3333" clip-path="url(#z26106c8)" d="M398 801L450 812L845 764L948 778"/>
</svg>