<!--
AnimCJK 2016-2019 Copyright Francois Mizessyn - https://github.com/parsimonhi/animCJK
Derived from:
    MakeMeAHanzi project - https://github.com/skishore/makemeahanzi
    Arphic PL KaitiM GB font
    Arphic PL UKai font
You can redistribute and/or modify this file under the terms of the Arphic Public License
as published by Arphic Technology Co., Ltd.
You should have received a copy of this license along with this file.
If not, see http://ftp.gnu.org/non-gnu/chinese-fonts-truetype/LICENSE.
-->
<svg id="z26122" class="acjk" version="1.1" viewBox="0 0 1024 1024" xmlns="http://www.w3.org/2000/svg" xmlns:xlink="http://www.w3.org/1999/xlink">
<style>
<![CDATA[
@keyframes zk {
	to {
		stroke-dashoffset:0;
	}
}
svg.acjk path[clip-path] {
	--t:0.8s;
	animation:zk var(--t) linear forwards var(--d);
	stroke-dasharray:3337;
	stroke-dashoffset:3339;
	stroke-width:128;
	stroke-linecap:round;
	fill:none;
	stroke:#000;
}
svg.acjk path[id] {fill:#ccc;}
]]>
</style>
<path id="z26122d1" d="M309 130C304 129 299 129 294 128C285 125 280 126 277 130C272 135 273 142 280 155C304 201 324 263 337 342C340 364 348 383 362 400C375 415 383 418 388 406C390 399 391 391 391 381C390 361 390 361 390 351C389 338 378 289 375 274C371 255 371 255 369 246C361 209 358 184 356 170C353 150 329 134 309 130Z"/>
<path id="z26122d2" d="M585 358C595 374 606 384 616 391C623 396 633 394 645 378C656 362 673 309 698 220C704 197 716 177 735 161C744 152 745 142 737 132C726 119 706 101 676 83C662 74 629 80 578 91C568 92 513 102 433 116C372 126 331 132 309 130C288 130 336 177 356 170C356 169 356 169 358 169C414 154 491 140 591 127C613 124 627 125 634 133C643 143 645 154 643 165C622 262 605 316 592 324C584 332 578 349 585 358Z"/>
<path id="z26122d3" d="M375 274C381 270 442 260 558 244C574 241 578 236 573 228C566 218 554 211 537 209C521 206 465 218 369 246C360 250 366 278 375 274Z"/>
<path id="z26122d4" d="M391 381C413 380 506 364 585 358C597 358 603 328 592 324C578 317 562 314 544 319C485 334 449 339 390 351C380 353 381 381 391 381Z"/>
<path id="z26122d5" d="M487 505C611 485 674 470 677 469C683 464 685 458 682 452C677 443 665 435 646 431C625 425 581 438 512 453C424 470 365 472 336 475C311 477 306 486 324 498C353 517 382 521 431 514C468 508 468 508 487 505Z"/>
<path id="z26122d6" d="M514 644C574 637 667 634 793 634C807 634 815 631 819 625C823 617 819 607 808 599C772 571 741 561 715 567C662 577 593 593 507 604C465 609 465 609 444 612C370 621 291 631 209 641C194 642 191 648 203 661C212 671 224 677 236 681C250 685 263 685 275 682C325 667 379 658 437 652C488 647 488 647 514 644Z"/>
<path id="z26122d7" d="M507 604C515 568 519 547 523 543C527 537 528 532 524 525C520 519 507 513 487 505C469 499 421 498 431 514C446 539 451 569 444 612C439 639 439 639 437 652C422 738 362 799 293 841C265 857 227 872 182 893C163 901 164 907 186 908C242 910 304 889 378 841C428 807 471 752 493 662C502 623 502 623 507 604Z"/>
<path id="z26122d8" d="M493 662C557 744 632 830 716 919C730 933 748 939 771 938C847 932 896 928 920 923C926 921 931 918 932 915C932 911 927 905 916 902C816 872 738 838 684 796C629 753 573 702 514 644C501 631 482 648 493 662Z"/>
<defs>
	<clipPath id="z26122c1"><use xlink:href="#z26122d1"/></clipPath>
	<clipPath id="z26122c2"><use xlink:href="#z26122d2"/></clipPath>
	<clipPath id="z26122c3"><use xlink:href="#z26122d3"/></clipPath>
	<clipPath id="z26122c4"><use xlink:href="#z26122d4"/></clipPath>
	<clipPath id="z26122c5"><use xlink:href="#z26122d5"/></clipPath>
	<clipPath id="z26122c6"><use xlink:href="#z26122d6"/></clipPath>
	<clipPath id="z26122c7"><use xlink:href="#z26122d7"/></clipPath>
	<clipPath id="z26122c8"><use xlink:href="#z26122d8"/></clipPath>
</defs>
<path style="--d:1s;" pathLength="3333" clip-path="url(#z26122c1)" d="M282 136L327 185L376 407"/>
<path style="--d:2s;" pathLength="3333" clip-path="url(#z26122c2)" d="M318 133L368 147L603 105L664 114L693 151L613 387"/>
<path style="--d:3s;" pathLength="3333" clip-path="url(#z26122c3)" d="M376 251L570 230"/>
<path style="--d:4s;" pathLength="3333" clip-path="url(#z26122c4)" d="M395 373L589 332"/>
<path style="--d:5s;" pathLength="3333" clip-path="url(#z26122c5)" d="M325 488L678 456"/>
<path style="--d:6s;" pathLength="3333" clip-path="url(#z26122c6)" d="M206 652L726 600L816 617"/>
<path style="--d:7s;" pathLength="3333" clip-path="url(#z26122c7)" d="M439 521L484 553L418 757L315 853L177 903"/>
<path style="--d:8s;" pathLength="3333" clip-path="url(#z26122c8)" d="M503 649L748 888L927 913"/>
</svg>