<!--
AnimCJK 2016-2018 Copyright Francois Mizessyn, http://gooo.free.fr/animCJK/
Derived from:
    MakeMeAHanzi project - https://github.com/skishore/makemeahanzi
    Arphic PL KaitiM GB - https://apps.ubuntu.com/cat/applications/precise/fonts-arphic-gkai00mp/
    Arphic PL UKai - https://apps.ubuntu.com/cat/applications/fonts-arphic-ukai/
You can redistribute and/or modify this file under the terms of the Arphic Public License
as published by Arphic Technology Co., Ltd.
You should have received a copy of this license (the directory "APL") along with this file;
if not, see http://ftp.gnu.org/non-gnu/chinese-fonts-truetype/LICENSE.
-->
<svg id="z26133" class="acjk" version="1.1" viewBox="0 0 1024 1024" xmlns="http://www.w3.org/2000/svg" xmlns:xlink="http://www.w3.org/1999/xlink">
<style>
<![CDATA[
@keyframes z26133k {
	from {
		stroke:#ccc;
		stroke-dashoffset:3334;
	}
	1% {
		stroke:#c00;
		stroke-dashoffset:3334;
	}
	75% {
		stroke:#c00;
		stroke-dashoffset:0;
	}
	to {
		stroke:#000;
	}
}
#z26133 path[clip-path] {
	animation:z26133k 1s linear both;
	stroke-dasharray:3334;
	stroke-width:128;
	stroke-linecap:round;
	fill:none;
}
#z26133 path[clip-path="url(#z26133c1)"] {animation-delay:1s;}
#z26133 path[clip-path="url(#z26133c2)"] {animation-delay:2s;}
#z26133 path[clip-path="url(#z26133c3)"] {animation-delay:3s;}
#z26133 path[clip-path="url(#z26133c4)"] {animation-delay:4s;}
#z26133 path[clip-path="url(#z26133c5)"] {animation-delay:5s;}
#z26133 path[clip-path="url(#z26133c6)"] {animation-delay:6s;}
#z26133 path[clip-path="url(#z26133c7)"] {animation-delay:7s;}
#z26133 path[clip-path="url(#z26133c8)"] {animation-delay:8s;}
#z26133 path {fill:#ccc;}
]]>
</style>
<path id="z26133d1" d="M190 220Q181 211 161 204Q151 200 140 203Q133 207 139 220Q140 230 145 241Q169 292 154 546Q150 579 141 616Q126 670 162 715Q172 728 183 715Q193 702 194 686L198 649Q199 628 199 600Q200 522 201 463L202 424Q205 279 207 265Q208 255 208 247L190 220 Z"/>
<path id="z26133d2" d="M289 680Q301 699 313 718Q329 743 337 740Q349 739 363 705Q372 681 373 594Q355 293 381 239Q393 220 384 210Q377 198 325 183Q300 174 282 185Q233 210 190 220L208 247Q217 246 226 243Q248 239 273 230Q295 223 303 231Q316 244 317 296Q320 512 310 631Q311 644 307 650L289 680 Z"/>
<path id="z26133d3" d="M201 463Q246 454 280 451Q304 445 294 432Q281 417 254 415Q233 414 202 424L201 463 Z"/>
<path id="z26133d4" d="M194 686Q240 683 289 680L307 650Q282 625 204 648Q200 648 198 649L194 686 Z"/>
<path id="z26133d5" d="M541 265Q637 229 647 224Q695 200 737 188Q756 185 759 176Q763 164 748 153Q723 137 673 123Q655 116 641 119Q634 123 634 136Q634 160 517 247L541 265 Z"/>
<path id="z26133d6" d="M536 396Q539 299 542 282Q543 272 541 265L517 247Q471 225 456 229Q434 233 452 257Q488 311 473 523Q466 578 441 645Q419 705 337 796Q321 812 317 819Q316 826 328 826Q373 822 437 747Q509 660 529 501Q532 467 535 426L536 396 Z"/>
<path id="z26133d7" d="M719 401Q776 391 864 385Q906 385 914 374Q918 362 901 350Q847 316 786 336Q729 351 536 396L535 426Q562 438 599 427Q623 418 659 413L719 401 Z"/>
<path id="z26133d8" d="M682 879Q688 904 694 913Q700 920 707 918Q725 906 728 851Q734 793 733 736Q726 519 744 437Q747 419 733 410Q726 404 719 401L659 413Q671 428 677 495Q678 594 678 740Q678 843 682 879 Z"/>
<defs>
	<clipPath id="z26133c1"><use xlink:href="#z26133d1"/></clipPath>
	<clipPath id="z26133c2"><use xlink:href="#z26133d2"/></clipPath>
	<clipPath id="z26133c3"><use xlink:href="#z26133d3"/></clipPath>
	<clipPath id="z26133c4"><use xlink:href="#z26133d4"/></clipPath>
	<clipPath id="z26133c5"><use xlink:href="#z26133d5"/></clipPath>
	<clipPath id="z26133c6"><use xlink:href="#z26133d6"/></clipPath>
	<clipPath id="z26133c7"><use xlink:href="#z26133d7"/></clipPath>
	<clipPath id="z26133c8"><use xlink:href="#z26133d8"/></clipPath>
</defs>
<path pathLength="3333" clip-path="url(#z26133c1)" d="M145 208L180 261L166 716"/>
<path pathLength="3333" clip-path="url(#z26133c2)" d="M199 223L296 203L348 229L328 735"/>
<path pathLength="3333" clip-path="url(#z26133c3)" d="M206 454L292 433"/>
<path pathLength="3333" clip-path="url(#z26133c4)" d="M201 678L301 658"/>
<path pathLength="3333" clip-path="url(#z26133c5)" d="M753 169L654 166L526 251"/>
<path pathLength="3333" clip-path="url(#z26133c6)" d="M451 237L505 286L491 567L441 700L325 818"/>
<path pathLength="3333" clip-path="url(#z26133c7)" d="M539 419L791 362L910 365"/>
<path pathLength="3333" clip-path="url(#z26133c8)" d="M669 418L708 448L702 913"/>
</svg>