<!--
AnimCJK 2016-2026 Copyright FM-SH, https://github.com/parsimonhi/animCJK
Derived from:
    MakeMeAHanzi project - https://github.com/skishore/makemeahanzi
    Arphic PL KaitiM GB font
    Arphic PL KaitiM Big5 font
You can redistribute and/or modify this file under the terms of the Arphic Public License
as published by Arphic Technology Co., Ltd.
You should have received a copy of this license along with this file.
If not, see https://ftp.gnu.org/non-gnu/chinese-fonts-truetype/LICENSE.
-->
<svg id="z26155" class="acjk" viewBox="0 0 1024 1024" xmlns="http://www.w3.org/2000/svg">
<style>
<![CDATA[
@keyframes zk {
	to {
		stroke-dashoffset:0;
	}
}
svg.acjk path[clip-path] {
	--t:0.8s;
	animation:zk var(--t) linear forwards var(--d);
	stroke-dasharray:3337;
	stroke-dashoffset:3339;
	stroke-width:128;
	stroke-linecap:round;
	fill:none;
	stroke:#000;
}
svg.acjk path[id] {fill:#ccc;}
]]>
</style>
<path id="z26155d1" d="M183 263C159 239 109 221 121 257C138 308 143 370 143 440C141 550 132 628 120 676C109 713 117 747 141 778C147 786 155 787 163 779C170 770 173 760 175 749C178 725 178 725 179 713C180 698 182 570 184 510C185 485 185 485 185 472C190 266 193 310 193 291C193 281 191 269 183 263Z"/>
<path id="z26155d2" d="M300 739C324 800 341 822 364 767C374 741 375 711 373 678C353 446 355 313 374 279C380 266 381 256 376 249C371 242 351 234 316 224C299 218 285 219 274 226C241 243 211 255 183 263C173 265 183 293 193 291C207 289 230 281 263 271C289 262 309 260 311 340C313 465 314 580 311 647C310 672 311 704 300 717C296 723 297 732 300 739Z"/>
<path id="z26155d3" d="M184 510C216 504 244 500 268 495C305 486 275 463 242 460C227 458 208 463 185 472C173 476 172 512 184 510Z"/>
<path id="z26155d4" d="M175 749C185 745 238 741 300 739C307 739 305 722 300 717C278 695 265 691 179 713C167 715 163 751 175 749Z"/>
<path id="z26155d5" d="M512 339C576 241 606 176 632 143C650 119 616 96 598 85C558 61 525 68 541 96C566 141 524 252 404 432C390 452 382 477 423 444C446 424 485 378 500 357C508 345 508 345 512 339Z"/>
<path id="z26155d6" d="M500 357C524 365 551 362 585 357C611 353 667 342 701 334C767 317 783 322 786 388C790 514 785 613 768 684C747 770 721 819 695 829C686 832 656 825 606 810C599 808 584 805 607 828C639 859 659 889 672 914C679 928 688 935 697 935C711 934 725 924 742 910C790 866 827 778 845 641C853 577 858 501 863 414C864 389 870 367 886 351C895 340 900 332 899 326C898 320 889 313 875 303C854 289 831 277 805 270C787 265 760 272 722 285C707 289 628 316 512 339C505 340 493 356 500 357Z"/>
<path id="z26155d7" d="M466 495C450 488 410 471 426 508C442 546 454 597 461 661C462 679 467 695 478 709C488 722 494 725 498 716C502 705 504 689 502 668C500 657 499 647 498 637C490 578 487 540 486 523C486 512 477 499 466 495Z"/>
<path id="z26155d8" d="M642 625C654 574 669 542 685 528C702 510 701 496 686 486C673 478 657 467 638 455C625 447 605 455 570 469C529 484 493 489 466 495C455 497 475 525 486 523C492 521 521 515 575 506C609 500 612 513 604 548C598 568 594 591 589 617C586 635 638 643 642 625Z"/>
<path id="z26155d9" d="M502 668C520 671 557 660 648 655C673 650 663 635 642 625C627 616 607 613 589 617C572 619 539 627 498 637C488 639 492 668 502 668Z"/>
<defs>
	<clipPath id="z26155c1"><use href="#z26155d1"/></clipPath>
	<clipPath id="z26155c2"><use href="#z26155d2"/></clipPath>
	<clipPath id="z26155c3"><use href="#z26155d3"/></clipPath>
	<clipPath id="z26155c4"><use href="#z26155d4"/></clipPath>
	<clipPath id="z26155c5"><use href="#z26155d5"/></clipPath>
	<clipPath id="z26155c6"><use href="#z26155d6"/></clipPath>
	<clipPath id="z26155c7"><use href="#z26155d7"/></clipPath>
	<clipPath id="z26155c8"><use href="#z26155d8"/></clipPath>
	<clipPath id="z26155c9"><use href="#z26155d9"/></clipPath>
</defs>
<path style="--d:1s;" pathLength="3333" clip-path="url(#z26155c1)" d="M127 246L160 282L164 338L150 780"/>
<path style="--d:2s;" pathLength="3333" clip-path="url(#z26155c2)" d="M183 275L291 244L341 272L336 794"/>
<path style="--d:3s;" pathLength="3333" clip-path="url(#z26155c3)" d="M178 499L278 479"/>
<path style="--d:4s;" pathLength="3333" clip-path="url(#z26155c4)" d="M174 741L301 726"/>
<path style="--d:5s;" pathLength="3333" clip-path="url(#z26155c5)" d="M543 78L588 144L490 334L399 451"/>
<path style="--d:6s;" pathLength="3333" clip-path="url(#z26155c6)" d="M505 352L772 299L846 345L799 705L756 824L691 882L604 814"/>
<path style="--d:7s;" pathLength="3333" clip-path="url(#z26155c7)" d="M430 492L462 533L489 714"/>
<path style="--d:8s;" pathLength="3333" clip-path="url(#z26155c8)" d="M469 500L614 480L647 502L611 632"/>
<path style="--d:9s;" pathLength="3333" clip-path="url(#z26155c9)" d="M495 653L655 640"/>
</svg>