<!--
AnimCJK 2016-2019 Copyright Francois Mizessyn - https://github.com/parsimonhi/animCJK
Derived from:
    MakeMeAHanzi project - https://github.com/skishore/makemeahanzi
    Arphic PL KaitiM GB font
    Arphic PL UKai font
You can redistribute and/or modify this file under the terms of the Arphic Public License
as published by Arphic Technology Co., Ltd.
You should have received a copy of this license along with this file.
If not, see http://ftp.gnu.org/non-gnu/chinese-fonts-truetype/LICENSE.
-->
<svg id="z26177" class="acjk" version="1.1" viewBox="0 0 1024 1024" xmlns="http://www.w3.org/2000/svg" xmlns:xlink="http://www.w3.org/1999/xlink">
<style>
<![CDATA[
@keyframes zk {
	to {
		stroke-dashoffset:0;
	}
}
svg.acjk path[clip-path] {
	--t:0.8s;
	animation:zk var(--t) linear forwards var(--d);
	stroke-dasharray:3337;
	stroke-dashoffset:3339;
	stroke-width:128;
	stroke-linecap:round;
	fill:none;
	stroke:#000;
}
svg.acjk path[id] {fill:#ccc;}
]]>
</style>
<path id="z26177d1" d="M349 147Q336 143 312 140Q300 139 297 143Q291 150 300 165Q334 231 358 339Q364 373 383 393Q402 415 407 398Q408 388 409 376C408 357 408 357 407 348Q406 338 403 326Q396 299 391 277C387 261 387 261 385 253Q375 204 370 182C367 169 362 150 349 147Z"/>
<path id="z26177d2" d="M579 360Q591 379 604 387Q614 396 632 375Q647 354 685 236Q697 205 722 181Q737 168 725 153Q710 135 668 106Q649 94 632 100Q601 107 561 113Q509 120 441 132Q390 141 349 147C336 149 357 187 370 182Q369 181 372 181Q450 162 588 145Q619 141 628 151Q638 166 635 180Q607 292 596 310Q590 322 576 323C564 325 572 350 579 360Z"/>
<path id="z26177d3" d="M391 277Q395 277 402 277Q492 264 559 255Q581 251 573 239Q563 226 539 221Q524 218 385 253C377 255 383 277 391 277Z"/>
<path id="z26177d4" d="M409 376Q410 376 414 376Q507 366 579 360C591 360 588 325 576 323Q554 319 514 326Q457 338 407 348C398 350 400 376 409 376Z"/>
<path id="z26177d5" d="M388 527Q395 729 294 816Q261 846 186 886Q173 890 170 894Q166 900 181 902Q224 906 317 853Q428 783 443 584Q446 529 459 498Q463 486 456 479Q402 434 365 443Q346 450 361 468Q388 496 388 527Z"/>
<path id="z26177d6" d="M247 519Q269 538 292 564Q304 576 318 575Q328 575 333 563Q337 550 330 523Q326 505 300 493Q239 469 224 473Q220 477 220 488Q223 498 247 519Z"/>
<path id="z26177d7" d="M166 693Q154 697 154 706Q154 719 164 724Q186 734 219 747Q229 748 238 738Q256 717 329 659Q339 650 347 641Q357 632 356 624Q350 620 236 670Q173 691 166 693Z"/>
<path id="z26177d8" d="M590 878Q653 924 860 900Q888 894 911 887Q939 883 947 867Q951 858 942 836Q923 796 907 708Q904 693 896 687Q890 684 887 698Q872 747 859 789Q847 823 825 836Q786 860 671 853Q640 850 628 843Q601 827 594 793Q584 747 588 646Q592 535 612 486Q619 467 610 454Q597 441 559 424Q526 412 516 422Q507 429 521 451Q542 482 540 529Q540 626 540 736Q537 833 590 878Z"/>
<path id="z26177d9" d="M710 458Q694 485 638 550Q629 566 645 563Q688 541 712 524Q769 484 789 476Q810 466 800 450Q787 434 763 420Q741 407 729 409Q716 410 720 423Q723 441 710 458Z"/>
<path id="z26177d10" d="M643 634Q689 665 748 714Q764 730 779 732Q786 732 793 721Q802 708 785 670Q772 634 705 619Q663 609 640 606Q631 603 631 614Q632 627 643 634Z"/>
<defs>
	<clipPath id="z26177c1"><use xlink:href="#z26177d1"/></clipPath>
	<clipPath id="z26177c2"><use xlink:href="#z26177d2"/></clipPath>
	<clipPath id="z26177c3"><use xlink:href="#z26177d3"/></clipPath>
	<clipPath id="z26177c4"><use xlink:href="#z26177d4"/></clipPath>
	<clipPath id="z26177c5"><use xlink:href="#z26177d5"/></clipPath>
	<clipPath id="z26177c6"><use xlink:href="#z26177d6"/></clipPath>
	<clipPath id="z26177c7"><use xlink:href="#z26177d7"/></clipPath>
	<clipPath id="z26177c8"><use xlink:href="#z26177d8"/></clipPath>
	<clipPath id="z26177c9"><use xlink:href="#z26177d9"/></clipPath>
	<clipPath id="z26177c10"><use xlink:href="#z26177d10"/></clipPath>
</defs>
<path style="--d:1s;" pathLength="3333" clip-path="url(#z26177c1)" d="M302 147L347 203L397 399"/>
<path style="--d:2s;" pathLength="3333" clip-path="url(#z26177c2)" d="M360 151L617 123L657 136L681 175L624 322L585 365"/>
<path style="--d:3s;" pathLength="3333" clip-path="url(#z26177c3)" d="M392 258L569 245"/>
<path style="--d:4s;" pathLength="3333" clip-path="url(#z26177c4)" d="M416 369L577 347"/>
<path style="--d:5s;" pathLength="3333" clip-path="url(#z26177c5)" d="M362 454L422 499L379 744L299 839L176 895"/>
<path style="--d:6s;" pathLength="3333" clip-path="url(#z26177c6)" d="M228 482L297 526L321 569"/>
<path style="--d:7s;" pathLength="3333" clip-path="url(#z26177c7)" d="M159 704L218 712L350 631"/>
<path style="--d:8s;" pathLength="3333" clip-path="url(#z26177c8)" d="M521 428L576 482L564 758L603 856L720 881L869 856L902 835L896 694"/>
<path style="--d:9s;" pathLength="3333" clip-path="url(#z26177c9)" d="M728 417L754 464L643 556"/>
<path style="--d:10s;" pathLength="3333" clip-path="url(#z26177c10)" d="M639 611L749 672L778 727"/>
</svg>