<!--
AnimCJK 2016-2018 Copyright Francois Mizessyn, https://github.com/parsimonhi/animCJK
Derived from:
    MakeMeAHanzi project - https://github.com/skishore/makemeahanzi
    Arphic PL KaitiM GB - https://apps.ubuntu.com/cat/applications/precise/fonts-arphic-gkai00mp/
    Arphic PL UKai - https://apps.ubuntu.com/cat/applications/fonts-arphic-ukai/
You can redistribute and/or modify this file under the terms of the Arphic Public License
as published by Arphic Technology Co., Ltd.
You should have received a copy of this license (the directory "APL") along with this file;
if not, see http://ftp.gnu.org/non-gnu/chinese-fonts-truetype/LICENSE.
-->
<svg id="z26187" class="acjk" version="1.1" viewBox="0 0 1024 1024" xmlns="http://www.w3.org/2000/svg" xmlns:xlink="http://www.w3.org/1999/xlink">
<style>
<![CDATA[
@keyframes z26187k {
	from {
		stroke:#c00;
		stroke-dashoffset:3334;
	}
	75% {
		stroke:#c00;
		stroke-dashoffset:0;
	}
	to {
		stroke:#000;
	}
}
#z26187 path[clip-path] {
	animation:z26187k 1s linear both;
	stroke-dasharray:3334;
	stroke-width:128;
	stroke-linecap:round;
	fill:none;
}
#z26187 path[clip-path="url(#z26187c1)"] {animation-delay:1s;}
#z26187 path[clip-path="url(#z26187c2)"] {animation-delay:2s;}
#z26187 path[clip-path="url(#z26187c3)"] {animation-delay:3s;}
#z26187 path[clip-path="url(#z26187c4)"] {animation-delay:4s;}
#z26187 path[clip-path="url(#z26187c5)"] {animation-delay:5s;}
#z26187 path[clip-path="url(#z26187c6)"] {animation-delay:6s;}
#z26187 path[clip-path="url(#z26187c7)"] {animation-delay:7s;}
#z26187 path[clip-path="url(#z26187c8)"] {animation-delay:8s;}
#z26187 path[clip-path="url(#z26187c9)"] {animation-delay:9s;}
#z26187 path[clip-path="url(#z26187c10)"] {animation-delay:10s;}
#z26187 path {fill:#ccc;}
]]>
</style>
<path id="z26187d1" d="M590 147Q710 129 721 121Q731 114 726 104Q719 91 691 82Q664 76 568 100Q436 127 328 131Q291 135 316 154Q352 175 394 174L435 169Q489 160 545 154L590 147 Z"/>
<path id="z26187d2" d="M394 174Q406 201 410 288Q410 340 411 437L453 432Q457 323 462 239Q465 197 461 191Q448 178 435 169L394 174 Z"/>
<path id="z26187d3" d="M590 413Q605 206 609 190Q616 171 590 147L545 154Q554 172 552 264Q551 319 548 419L590 413 Z"/>
<path id="z26187d4" d="M263 307Q285 338 308 374Q318 390 334 393Q344 394 353 383Q360 370 359 338Q356 305 270 259Q255 252 248 253Q242 256 241 269Q242 281 263 307 Z"/>
<path id="z26187d5" d="M696 240Q674 280 626 343Q622 350 627 357Q634 358 643 353Q730 284 772 257Q791 251 786 240Q779 224 758 206Q737 188 714 188Q698 189 701 209Q704 222 696 240 Z"/>
<path id="z26187d6" d="M411 437Q264 453 102 472Q78 473 96 493Q112 509 131 515Q155 521 172 516Q431 444 860 445Q885 445 911 446Q933 446 939 436Q946 423 927 408Q870 365 828 373Q734 391 590 413L548 419Q524 420 502 425Q477 428 453 432L411 437 Z"/>
<path id="z26187d7" d="M382 548Q361 530 336 524Q327 521 321 530Q318 536 325 546Q361 627 330 786Q315 828 321 851Q330 884 341 896Q351 909 361 896Q371 883 378 858L384 824Q384 821 389 711L390 681Q391 605 396 580L382 548 Z"/>
<path id="z26187d8" d="M575 846Q606 886 628 923Q638 942 648 941Q664 940 681 906Q699 869 696 822Q689 749 683 611Q682 580 698 558Q708 545 698 536Q679 517 628 493Q610 483 595 493Q520 527 382 548L396 580Q400 580 576 543Q601 537 615 547Q642 574 624 818Q623 822 619 827L575 846 Z"/>
<path id="z26187d9" d="M389 711Q393 711 400 711Q493 699 561 693Q586 690 577 676Q567 660 540 655Q504 649 390 681L389 711 Z"/>
<path id="z26187d10" d="M378 858Q388 862 402 859Q459 849 575 846L619 827Q613 818 592 803Q576 793 542 799Q454 817 384 824L378 858 Z"/>
<defs>
	<clipPath id="z26187c1"><use xlink:href="#z26187d1"/></clipPath>
	<clipPath id="z26187c2"><use xlink:href="#z26187d2"/></clipPath>
	<clipPath id="z26187c3"><use xlink:href="#z26187d3"/></clipPath>
	<clipPath id="z26187c4"><use xlink:href="#z26187d4"/></clipPath>
	<clipPath id="z26187c5"><use xlink:href="#z26187d5"/></clipPath>
	<clipPath id="z26187c6"><use xlink:href="#z26187d6"/></clipPath>
	<clipPath id="z26187c7"><use xlink:href="#z26187d7"/></clipPath>
	<clipPath id="z26187c8"><use xlink:href="#z26187d8"/></clipPath>
	<clipPath id="z26187c9"><use xlink:href="#z26187d9"/></clipPath>
	<clipPath id="z26187c10"><use xlink:href="#z26187d10"/></clipPath>
</defs>
<path pathLength="3333" clip-path="url(#z26187c1)" d="M316 143L398 150L722 105"/>
<path pathLength="3333" clip-path="url(#z26187c2)" d="M402 177L434 212L426 435"/>
<path pathLength="3333" clip-path="url(#z26187c3)" d="M554 157L581 187L564 416"/>
<path pathLength="3333" clip-path="url(#z26187c4)" d="M250 261L322 335L343 388"/>
<path pathLength="3333" clip-path="url(#z26187c5)" d="M710 193L742 240L631 351"/>
<path pathLength="3333" clip-path="url(#z26187c6)" d="M93 478L158 492L841 408L935 429"/>
<path pathLength="3333" clip-path="url(#z26187c7)" d="M326 531L367 584L349 897"/>
<path pathLength="3333" clip-path="url(#z26187c8)" d="M390 551L612 515L663 554L660 823L624 917"/>
<path pathLength="3333" clip-path="url(#z26187c9)" d="M393 703L573 681"/>
<path pathLength="3333" clip-path="url(#z26187c10)" d="M385 852L607 823"/>
</svg>