<!--
AnimCJK 2016-2019 Copyright Francois Mizessyn - https://github.com/parsimonhi/animCJK
Derived from:
    MakeMeAHanzi project - https://github.com/skishore/makemeahanzi
    Arphic PL KaitiM GB font
    Arphic PL UKai font
You can redistribute and/or modify this file under the terms of the Arphic Public License
as published by Arphic Technology Co., Ltd.
You should have received a copy of this license along with this file.
If not, see http://ftp.gnu.org/non-gnu/chinese-fonts-truetype/LICENSE.
-->
<svg id="z26297" class="acjk" version="1.1" viewBox="0 0 1024 1024" xmlns="http://www.w3.org/2000/svg" xmlns:xlink="http://www.w3.org/1999/xlink">
<style>
<![CDATA[
@keyframes zk {
	to {
		stroke-dashoffset:0;
	}
}
svg.acjk path[clip-path] {
	--t:0.8s;
	animation:zk var(--t) linear forwards var(--d);
	stroke-dasharray:3337;
	stroke-dashoffset:3339;
	stroke-width:128;
	stroke-linecap:round;
	fill:none;
	stroke:#000;
}
svg.acjk path[id] {fill:#ccc;}
]]>
</style>
<path id="z26297d1" d="M475 113Q465 107 434 105Q424 104 420 108Q416 114 424 127Q454 181 475 271Q479 298 497 315Q513 333 518 319Q519 312 520 305C522 295 519 285 517 275Q511 245 505 225C502 210 502 210 500 203Q491 166 488 147C486 135 486 118 475 113Z"/>
<path id="z26297d2" d="M710 284Q714 300 728 299Q741 298 750 283Q759 276 779 229Q798 177 835 148Q854 132 838 116Q822 98 771 71Q759 62 683 76Q665 76 552 99Q507 108 475 113C463 115 476 147 488 147Q494 148 501 146Q562 127 703 110Q728 109 737 113Q744 117 740 142Q725 206 709 258C706 266 705 276 709 283C710 284 710 284 710 284Z"/>
<path id="z26297d3" d="M505 225Q509 226 520 225Q605 210 668 201Q689 198 681 187Q671 174 649 170Q624 167 500 203C493 205 497 225 505 225Z"/>
<path id="z26297d4" d="M520 305Q523 305 529 304Q586 291 709 283C717 283 715 264 709 258Q705 254 698 249Q683 242 657 248Q579 266 517 275C507 277 510 305 520 305Z"/>
<path id="z26297d5" d="M470 446Q518 397 520 392C520 390 520 390 520 389Q519 379 500 359Q484 343 470 340Q457 339 459 356Q466 383 406 454Q378 487 341 523Q332 529 330 533Q326 540 336 540Q354 540 443 471C461 454 461 454 470 446Z"/>
<path id="z26297d6" d="M496 718Q497 709 497 701Q496 544 500 507Q507 483 472 447Q471 446 470 446C460 439 438 460 443 471Q471 529 441 691Q423 722 457 778Q458 779 461 782Q476 795 485 773Q489 758 493 743C495 726 495 726 496 718Z"/>
<path id="z26297d7" d="M606 334Q648 380 665 383Q675 383 680 369Q681 359 673 343Q666 331 648 326Q621 314 610 313Q603 312 602 320Q601 327 606 334Z"/>
<path id="z26297d8" d="M676 427Q802 396 803 395Q810 388 806 381Q800 372 777 366Q753 362 729 371Q692 384 652 395Q607 405 555 410Q525 414 546 429Q579 447 625 437Q626 436 630 437C661 430 661 430 676 427Z"/>
<path id="z26297d9" d="M688 520Q736 511 779 507Q801 503 793 491Q783 478 759 472Q720 466 690 482C655 491 655 491 637 495Q597 502 559 512Q543 515 562 530Q572 537 595 534Q617 530 638 528C671 523 671 523 688 520Z"/>
<path id="z26297d10" d="M684 618Q741 608 790 602Q812 599 805 587Q795 574 771 568Q746 562 685 580C654 587 654 587 638 591Q595 598 555 608Q539 611 558 626Q568 632 639 624C669 620 669 620 684 618Z"/>
<path id="z26297d11" d="M681 693Q682 653 684 618C685 593 685 593 685 580Q686 549 688 520C689 495 689 495 690 482Q694 446 689 439Q682 432 676 427C665 416 624 422 630 437Q630 438 631 439Q637 457 637 495C638 517 638 517 638 528Q638 553 638 591C639 613 639 613 639 624Q639 657 639 699C639 713 681 707 681 693Z"/>
<path id="z26297d12" d="M639 699Q572 706 496 718C488 720 485 741 493 743Q505 747 545 748Q629 727 846 727Q862 727 866 721Q870 711 857 699Q809 663 755 680Q722 684 681 693C653 697 653 697 639 699Z"/>
<path id="z26297d13" d="M213 177Q244 205 277 240Q292 255 310 255Q322 254 328 239Q335 223 325 188Q319 166 284 147Q199 116 184 121Q178 125 179 140Q183 153 213 177Z"/>
<path id="z26297d14" d="M285 739Q303 729 310 707Q322 665 278 596Q242 536 321 435Q343 416 322 399Q300 383 264 370Q242 358 200 393Q125 435 99 434Q92 433 89 439Q88 443 97 448Q137 466 213 433Q223 429 234 442Q258 464 236 494Q191 549 243 622Q270 673 269 699Q266 729 260 737C256 744 278 744 285 739Z"/>
<path id="z26297d15" d="M260 737Q215 736 168 752Q134 765 82 771Q75 771 72 780Q69 787 78 797Q96 815 120 826Q132 832 150 817Q213 766 285 779Q354 792 494 851Q633 912 768 934Q792 938 821 927Q882 905 935 866Q957 850 934 850Q718 857 564 823Q473 799 357 757Q321 742 285 739C268 738 268 738 260 737Z"/>
<defs>
	<clipPath id="z26297c1"><use xlink:href="#z26297d1"/></clipPath>
	<clipPath id="z26297c2"><use xlink:href="#z26297d2"/></clipPath>
	<clipPath id="z26297c3"><use xlink:href="#z26297d3"/></clipPath>
	<clipPath id="z26297c4"><use xlink:href="#z26297d4"/></clipPath>
	<clipPath id="z26297c5"><use xlink:href="#z26297d5"/></clipPath>
	<clipPath id="z26297c6"><use xlink:href="#z26297d6"/></clipPath>
	<clipPath id="z26297c7"><use xlink:href="#z26297d7"/></clipPath>
	<clipPath id="z26297c8"><use xlink:href="#z26297d8"/></clipPath>
	<clipPath id="z26297c9"><use xlink:href="#z26297d9"/></clipPath>
	<clipPath id="z26297c10"><use xlink:href="#z26297d10"/></clipPath>
	<clipPath id="z26297c11"><use xlink:href="#z26297d11"/></clipPath>
	<clipPath id="z26297c12"><use xlink:href="#z26297d12"/></clipPath>
	<clipPath id="z26297c13"><use xlink:href="#z26297d13"/></clipPath>
	<clipPath id="z26297c14"><use xlink:href="#z26297d14"/></clipPath>
	<clipPath id="z26297c15"><use xlink:href="#z26297d15"/></clipPath>
</defs>
<path style="--d:1s;" pathLength="3333" clip-path="url(#z26297c1)" d="M426 111L461 147L506 319"/>
<path style="--d:2s;" pathLength="3333" clip-path="url(#z26297c2)" d="M484 119L763 97L792 137L725 294"/>
<path style="--d:3s;" pathLength="3333" clip-path="url(#z26297c3)" d="M507 209L675 190"/>
<path style="--d:4s;" pathLength="3333" clip-path="url(#z26297c4)" d="M524 298L706 264"/>
<path style="--d:5s;" pathLength="3333" clip-path="url(#z26297c5)" d="M468 352L484 393L338 532"/>
<path style="--d:6s;" pathLength="3333" clip-path="url(#z26297c6)" d="M468 459L465 780"/>
<path style="--d:7s;" pathLength="3333" clip-path="url(#z26297c7)" d="M609 320L667 378"/>
<path style="--d:8s;" pathLength="3333" clip-path="url(#z26297c8)" d="M546 418L800 381"/>
<path style="--d:9s;" pathLength="3333" clip-path="url(#z26297c9)" d="M562 520L787 493"/>
<path style="--d:10s;" pathLength="3333" clip-path="url(#z26297c10)" d="M556 616L799 589"/>
<path style="--d:11s;" pathLength="3333" clip-path="url(#z26297c11)" d="M637 440L664 463L654 696"/>
<path style="--d:12s;" pathLength="3333" clip-path="url(#z26297c12)" d="M501 738L780 701L860 713"/>
<path style="--d:13s;" pathLength="3333" clip-path="url(#z26297c13)" d="M185 126L279 188L319 247"/>
<path style="--d:14s;" pathLength="3333" clip-path="url(#z26297c14)" d="M99 440L232 401L289 437L241 543L289 676L270 734"/>
<path style="--d:15s;" pathLength="3333" clip-path="url(#z26297c15)" d="M77 782L129 795L214 761L310 763L747 889L937 858"/>
</svg>