<!--
AnimCJK 2016-2018 Copyright Francois Mizessyn - https://github.com/parsimonhi/animCJK
Derived from:
    MakeMeAHanzi project - https://github.com/skishore/makemeahanzi
    Arphic PL KaitiM GB - https://apps.ubuntu.com/cat/applications/precise/fonts-arphic-gkai00mp/
    Arphic PL UKai - https://apps.ubuntu.com/cat/applications/fonts-arphic-ukai/
You can redistribute and/or modify this file under the terms of the Arphic Public License
as published by Arphic Technology Co., Ltd.
You should have received a copy of this license (the directory "APL") along with this file;
if not, see http://ftp.gnu.org/non-gnu/chinese-fonts-truetype/LICENSE.
-->
<svg id="z26354" class="acjk" version="1.1" viewBox="0 0 1024 1024" xmlns="http://www.w3.org/2000/svg" xmlns:xlink="http://www.w3.org/1999/xlink">
<style>
<![CDATA[
@keyframes z26354k {
	from {
		stroke:#ccc;
		stroke-dashoffset:3334;
	}
	1% {
		stroke:#c00;
		stroke-dashoffset:3334;
	}
	75% {
		stroke:#c00;
		stroke-dashoffset:0;
	}
	to {
		stroke:#000;
	}
}
#z26354 path[clip-path] {
	animation:z26354k 1s linear both;
	stroke-dasharray:3334;
	stroke-width:128;
	stroke-linecap:round;
	fill:none;
}
#z26354 path[clip-path="url(#z26354c1)"] {animation-delay:1s;}
#z26354 path[clip-path="url(#z26354c2)"] {animation-delay:2s;}
#z26354 path[clip-path="url(#z26354c3)"] {animation-delay:3s;}
#z26354 path[clip-path="url(#z26354c4)"] {animation-delay:4s;}
#z26354 path[clip-path="url(#z26354c5)"] {animation-delay:5s;}
#z26354 path[clip-path="url(#z26354c6)"] {animation-delay:6s;}
#z26354 path {fill:#ccc;}
]]>
</style>
<path id="z26354d1" d="M240 377Q210 358 180 351Q171 348 165 354Q155 361 167 375Q225 468 236 696Q237 768 282 802Q283 803 287 805Q306 809 308 778C307 751 307 751 307 737Q304 715 297 689Q273 536 266 412C266 397 252 386 240 377 Z"/>
<path id="z26354d2" d="M673 746Q719 812 729 844Q739 862 750 860Q766 859 782 831Q810 791 823 740Q844 674 870 436Q874 393 889 370Q910 348 895 341Q879 323 838 304Q813 286 785 296Q751 306 663 315Q644 316 626 319C593 322 593 322 577 324Q504 331 445 341C413 347 413 347 397 350Q391 349 387 351Q311 366 240 377C226 380 252 415 266 412Q299 402 353 394Q377 390 401 387C430 382 430 382 445 380Q515 368 576 363C608 360 608 360 624 359Q684 352 775 348Q791 347 798 356Q808 363 804 409Q794 601 759 708Q750 738 725 733Q721 730 713 729C699 726 664 734 673 746 Z"/>
<path id="z26354d3" d="M612 541Q655 535 697 531Q719 530 712 516Q703 500 678 494Q654 490 615 498C585 503 585 503 570 506Q509 516 452 527C423 531 423 531 409 533Q373 537 340 543Q324 546 343 562Q359 575 396 570Q403 569 411 569C440 564 440 564 454 562Q512 553 567 547C597 543 597 543 612 541 Z"/>
<path id="z26354d4" d="M445 341Q444 262 448 239Q452 212 435 198Q408 177 376 167Q360 161 350 168Q340 175 348 193Q382 265 396 339Q396 343 397 350C400 375 400 375 401 387Q405 439 409 533C410 557 410 557 411 569Q412 636 418 725C418 740 464 734 464 719Q458 634 454 562C453 539 453 539 452 527Q445 413 445 380C445 354 445 354 445 341 Z"/>
<path id="z26354d5" d="M626 319Q629 229 659 118Q663 105 640 88Q601 66 573 60Q555 56 546 65Q537 74 546 91Q580 146 579 182Q579 251 577 324C576 350 576 350 576 363Q573 432 570 506C568 533 568 533 567 547Q561 623 554 705C554 721 601 713 601 697Q605 618 612 541C614 512 614 512 615 498Q619 428 624 359C625 332 625 332 626 319 Z"/>
<path id="z26354d6" d="M308 778Q309 778 312 778Q427 756 673 746C687 746 720 741 713 729Q709 719 680 697Q655 682 601 697C570 702 570 702 554 705Q508 712 464 719C433 723 433 723 418 725Q360 731 307 737C294 740 294 778 308 778 Z"/>
<defs>
	<clipPath id="z26354c1"><use xlink:href="#z26354d1"/></clipPath>
	<clipPath id="z26354c2"><use xlink:href="#z26354d2"/></clipPath>
	<clipPath id="z26354c3"><use xlink:href="#z26354d3"/></clipPath>
	<clipPath id="z26354c4"><use xlink:href="#z26354d4"/></clipPath>
	<clipPath id="z26354c5"><use xlink:href="#z26354d5"/></clipPath>
	<clipPath id="z26354c6"><use xlink:href="#z26354d6"/></clipPath>
</defs>
<path pathLength="3333" clip-path="url(#z26354c1)" d="M170 362L230 421L292 801"/>
<path pathLength="3333" clip-path="url(#z26354c2)" d="M248 377L284 389L784 322L836 342L852 364L792 721L743 806L682 747"/>
<path pathLength="3333" clip-path="url(#z26354c3)" d="M342 549L708 514"/>
<path pathLength="3333" clip-path="url(#z26354c4)" d="M352 177L411 240L440 721"/>
<path pathLength="3333" clip-path="url(#z26354c5)" d="M549 68L616 131L564 700"/>
<path pathLength="3333" clip-path="url(#z26354c6)" d="M317 769L622 720L704 726"/>
</svg>