<!--
AnimCJK 2016-2018 Copyright Francois Mizessyn - https://github.com/parsimonhi/animCJK
Derived from:
    MakeMeAHanzi project - https://github.com/skishore/makemeahanzi
    Arphic PL KaitiM GB - https://apps.ubuntu.com/cat/applications/precise/fonts-arphic-gkai00mp/
    Arphic PL UKai - https://apps.ubuntu.com/cat/applications/fonts-arphic-ukai/
You can redistribute and/or modify this file under the terms of the Arphic Public License
as published by Arphic Technology Co., Ltd.
You should have received a copy of this license (the directory "APL") along with this file;
if not, see http://ftp.gnu.org/non-gnu/chinese-fonts-truetype/LICENSE.
-->
<svg id="z26384" class="acjk" version="1.1" viewBox="0 0 1024 1024" xmlns="http://www.w3.org/2000/svg" xmlns:xlink="http://www.w3.org/1999/xlink">
<style>
<![CDATA[
@keyframes z26384k {
	from {
		stroke:#ccc;
		stroke-dashoffset:3334;
	}
	1% {
		stroke:#c00;
		stroke-dashoffset:3334;
	}
	75% {
		stroke:#c00;
		stroke-dashoffset:0;
	}
	to {
		stroke:#000;
	}
}
#z26384 path[clip-path] {
	animation:z26384k 1s linear both;
	stroke-dasharray:3334;
	stroke-width:128;
	stroke-linecap:round;
	fill:none;
}
#z26384 path[clip-path="url(#z26384c1)"] {animation-delay:1s;}
#z26384 path[clip-path="url(#z26384c2)"] {animation-delay:2s;}
#z26384 path[clip-path="url(#z26384c3)"] {animation-delay:3s;}
#z26384 path[clip-path="url(#z26384c4)"] {animation-delay:4s;}
#z26384 path[clip-path="url(#z26384c5)"] {animation-delay:5s;}
#z26384 path[clip-path="url(#z26384c6)"] {animation-delay:6s;}
#z26384 path[clip-path="url(#z26384c7)"] {animation-delay:7s;}
#z26384 path[clip-path="url(#z26384c8)"] {animation-delay:8s;}
#z26384 path[clip-path="url(#z26384c9)"] {animation-delay:9s;}
#z26384 path {fill:#ccc;}
]]>
</style>
<path id="z26384d1" d="M214 521Q221 464 225 409C226 383 226 383 227 370Q228 351 228 333Q228 251 232 228C234 217 236 202 227 195Q211 182 184 174Q165 165 153 171Q143 178 150 192Q168 214 175 272Q175 485 158 573Q154 595 148 617Q120 725 48 858Q44 865 43 871Q42 881 51 878Q67 875 99 823Q169 730 207 559C212 534 212 534 214 521Z"></path>
<path id="z26384d2" d="M232 228Q238 227 246 225Q274 218 304 209Q325 205 329 216Q344 255 344 544Q344 773 329 796Q325 800 305 797Q278 790 251 782Q232 775 232 785Q287 836 318 873Q331 892 347 898Q356 902 364 892Q406 844 405 789Q395 608 394 311Q393 253 407 227Q419 208 407 197Q385 178 349 163Q330 156 277 182Q250 189 227 195C216 197 221 230 232 228Z"></path>
<path id="z26384d3" d="M225 409Q267 399 301 394Q323 387 314 375Q301 362 276 360Q257 360 227 370C215 374 212 412 225 409Z"></path>
<path id="z26384d4" d="M207 559Q259 549 300 545Q322 541 313 528Q303 513 277 510Q253 509 214 521C202 526 194 562 207 559Z"></path>
<path id="z26384d5" d="M540 341Q571 293 606 226Q622 192 637 173Q644 161 638 149Q634 136 602 118Q574 102 555 105Q537 109 548 130Q585 191 435 437Q426 447 425 454Q424 466 436 462Q463 452 524 364C535 349 535 349 540 341Z"></path>
<path id="z26384d6" d="M696 831Q684 835 617 817Q607 814 607 820Q606 824 618 834Q658 877 677 908Q687 927 700 927Q721 928 741 905Q816 839 835 660Q845 564 850 426Q850 389 872 362Q885 347 884 338Q883 331 862 316Q834 295 795 285Q767 276 749 287Q731 294 688 306Q627 324 585 332Q558 336 540 341C531 343 515 362 524 364Q525 364 529 365Q566 372 704 346Q761 336 772 345Q793 384 779 597Q767 726 733 793Q717 829 696 831Z"></path>
<path id="z26384d7" d="M496 494Q486 488 459 483Q447 480 445 485Q439 489 446 505Q471 560 484 652Q487 679 502 697Q517 718 522 703Q526 690 526 668C523 647 523 647 522 636Q509 551 507 522C507 512 505 498 496 494Z"></path>
<path id="z26384d8" d="M648 617Q667 545 688 525Q710 500 688 485Q625 452 623 452Q613 452 605 457Q569 479 496 494C486 496 497 524 507 522Q562 510 587 507Q606 503 612 511Q616 515 598 615C595 631 645 633 648 617Z"></path>
<path id="z26384d9" d="M526 668Q535 669 548 666Q585 659 665 651Q675 650 677 641Q677 632 648 617C634 608 614 612 598 615Q555 627 522 636C512 639 515 668 526 668Z"></path>
<defs>
	<clipPath id="z26384c1"><use xlink:href="#z26384d1"></use></clipPath>
	<clipPath id="z26384c2"><use xlink:href="#z26384d2"></use></clipPath>
	<clipPath id="z26384c3"><use xlink:href="#z26384d3"></use></clipPath>
	<clipPath id="z26384c4"><use xlink:href="#z26384d4"></use></clipPath>
	<clipPath id="z26384c5"><use xlink:href="#z26384d5"></use></clipPath>
	<clipPath id="z26384c6"><use xlink:href="#z26384d6"></use></clipPath>
	<clipPath id="z26384c7"><use xlink:href="#z26384d7"></use></clipPath>
	<clipPath id="z26384c8"><use xlink:href="#z26384d8"></use></clipPath>
	<clipPath id="z26384c9"><use xlink:href="#z26384d9"></use></clipPath>
</defs>
<path pathLength="3333" clip-path="url(#z26384c1)" d="M154 178L201 236L189 526L141 705L49 872"></path>
<path pathLength="3333" clip-path="url(#z26384c2)" d="M237 221L325 185L372 220L366 808L337 848L241 784"></path>
<path pathLength="3333" clip-path="url(#z26384c3)" d="M229 401L309 378"></path>
<path pathLength="3333" clip-path="url(#z26384c4)" d="M214 551L310 533"></path>
<path pathLength="3333" clip-path="url(#z26384c5)" d="M551 114L596 171L518 335L432 454"></path>
<path pathLength="3333" clip-path="url(#z26384c6)" d="M531 360L765 311L832 355L799 691L759 820L698 879L615 823"></path>
<path pathLength="3333" clip-path="url(#z26384c7)" d="M450 486L483 532L512 701"></path>
<path pathLength="3333" clip-path="url(#z26384c8)" d="M502 495L618 481L652 505L611 615"></path>
<path pathLength="3333" clip-path="url(#z26384c9)" d="M533 661L599 636L669 642"></path>
</svg>