<!--
AnimCJK 2016-2017 Copyright Francois Mizessyn, http://gooo.free.fr/animCJK/
Derived from:
    MakeMeAHanzi project - https://github.com/skishore/makemeahanzi
    Arphic PL KaitiM GB - https://apps.ubuntu.com/cat/applications/precise/fonts-arphic-gkai00mp/
    Arphic PL UKai - https://apps.ubuntu.com/cat/applications/fonts-arphic-ukai/
You can redistribute and/or modify this file under the terms of the Arphic Public License
as published by Arphic Technology Co., Ltd.
You should have received a copy of this license (the directory "APL") along with this file;
if not, see http://ftp.gnu.org/non-gnu/chinese-fonts-truetype/LICENSE.
-->
<svg id="z26432" class="acjk" version="1.1" viewBox="0 0 1024 1024" xmlns="http://www.w3.org/2000/svg" xmlns:xlink="http://www.w3.org/1999/xlink">
<style>
<![CDATA[
	@keyframes z26432k {
		from {
			stroke:#c00;
			stroke-dashoffset:3000;
		}
		75% {
			stroke:#c00;
			stroke-dashoffset:0;
		}
		to {
			stroke:#000;
		}
	}
	#z26432 path[clip-path] {
		animation:z26432k 1s linear both;
		stroke-dasharray:3000;
		stroke-width:128;
		stroke-linecap:round;
		fill:none;
	}
	#z26432 path[clip-path="url(#z26432c1)"] {animation-delay:1s;}
	#z26432 path[clip-path="url(#z26432c2)"] {animation-delay:2s;}
	#z26432 path[clip-path="url(#z26432c3)"] {animation-delay:3s;}
	#z26432 path[clip-path="url(#z26432c4)"] {animation-delay:4s;}
	#z26432 path[clip-path="url(#z26432c5)"] {animation-delay:5s;}
	#z26432 path[clip-path="url(#z26432c6)"] {animation-delay:6s;}
	#z26432 path {fill:#ccc;}
]]>
</style>
<g transform="scale(1,-1) translate(0,-900)">
	<path id="z26432d1" d="M566 629Q572 641 673 739Q686 749 676 769Q639 814 613 816Q601 816 600 801Q591 729 523 650L489 615Q480 609 473 601Q418 549 356 513Q304 483 276 464Q263 451 280 451Q308 450 351 471Q453 520 528 590L566 629Z"/>
	<path id="z26432d2" d="M528 590Q705 470 708 469Q715 469 720 478Q729 491 712 525Q697 564 566 629L523 650Q408 705 343 730Q336 733 335 722Q336 712 347 704Q414 665 489 615L528 590Z"/>
	<path id="z26432d3" d="M548 344Q561 345 871 345Q893 344 898 353Q905 366 887 381Q833 424 792 417Q698 401 548 382L496 376Q336 360 146 343Q124 342 140 323Q155 307 173 301Q195 294 213 299Q348 332 497 341L548 344Z"/>
	<path id="z26432d4" d="M459 63Q413 76 366 91Q354 94 355 86Q356 79 366 72Q456 2 489 -41Q504 -57 519 -44Q552 -14 552 85Q549 149 548 344L548 382Q551 410 559 431Q568 450 551 463Q526 485 495 494Q477 501 469 493Q463 486 474 471Q495 435 496 376L497 341Q503 83 481 66Q474 59 459 63Z"/>
	<path id="z26432d5" d="M309 248Q273 196 228 151Q201 121 211 83Q215 64 239 72Q300 102 323 184Q335 215 333 243Q330 253 324 255Q315 256 309 248Z"/>
	<path id="z26432d6" d="M642 242Q703 184 778 97Q794 75 811 70Q821 69 829 79Q842 92 831 141Q816 202 644 276Q634 282 631 269Q630 253 642 242Z"/>
	<defs>
		<clipPath id="z26432c1"><use xlink:href="#z26432d1"/></clipPath>
		<clipPath id="z26432c2"><use xlink:href="#z26432d2"/></clipPath>
		<clipPath id="z26432c3"><use xlink:href="#z26432d3"/></clipPath>
		<clipPath id="z26432c4"><use xlink:href="#z26432d4"/></clipPath>
		<clipPath id="z26432c5"><use xlink:href="#z26432d5"/></clipPath>
		<clipPath id="z26432c6"><use xlink:href="#z26432d6"/></clipPath>
	</defs>
	<path pathLength="2999" clip-path="url(#z26432c1)" d="M612 811L634 753L528 622L403 521L282 459"/>
	<path pathLength="2999" clip-path="url(#z26432c2)" d="M343 722L633 557L717 480"/>
	<path pathLength="2999" clip-path="url(#z26432c3)" d="M139 336L194 322L799 382L896 364"/>
	<path pathLength="2999" clip-path="url(#z26432c4)" d="M474 488L526 438L518 57L486 2L363 85"/>
	<path pathLength="2999" clip-path="url(#z26432c5)" d="M323 251L220 75"/>
	<path pathLength="2999" clip-path="url(#z26432c6)" d="M638 267L773 161L814 75"/>
</g>
</svg>