<!--
AnimCJK 2016-2019 Copyright Francois Mizessyn - https://github.com/parsimonhi/animCJK
Derived from:
    MakeMeAHanzi project - https://github.com/skishore/makemeahanzi
    Arphic PL KaitiM GB font
    Arphic PL UKai font
You can redistribute and/or modify this file under the terms of the Arphic Public License
as published by Arphic Technology Co., Ltd.
You should have received a copy of this license along with this file.
If not, see http://ftp.gnu.org/non-gnu/chinese-fonts-truetype/LICENSE.
-->
<svg id="z26485" class="acjk" version="1.1" viewBox="0 0 1024 1024" xmlns="http://www.w3.org/2000/svg" xmlns:xlink="http://www.w3.org/1999/xlink">
<style>
<![CDATA[
@keyframes zk {
	to {
		stroke-dashoffset:0;
	}
}
svg.acjk path[clip-path] {
	--t:0.8s;
	animation:zk var(--t) linear forwards var(--d);
	stroke-dasharray:3337;
	stroke-dashoffset:3339;
	stroke-width:128;
	stroke-linecap:round;
	fill:none;
	stroke:#000;
}
svg.acjk path[id] {fill:#ccc;}
]]>
</style>
<path id="z26485d1" d="M324 377Q352 368 381 362Q421 352 428 345Q437 336 432 328Q423 316 394 310Q358 304 325 321C294 332 294 332 279 337Q182 364 116 374Q79 381 107 397Q146 418 217 401Q236 395 259 393C302 382 302 382 324 377Z"/>
<path id="z26485d2" d="M321 465Q322 423 324 377C325 340 325 340 325 321Q325 222 346 149Q359 122 335 105Q319 93 290 75Q266 57 245 73Q241 77 246 94Q277 142 278 189Q278 259 279 337C276 424 276 424 275 468Q271 546 271 630Q267 706 245 775Q235 814 259 877Q266 896 274 899Q280 906 288 897Q315 881 316 815Q315 775 321 498C321 476 321 476 321 465Z"/>
<path id="z26485d3" d="M259 393Q205 519 55 703Q49 713 60 714Q66 715 75 707Q201 607 276 468C313 407 282 324 259 392C259 393 259 393 259 393Z"/>
<path id="z26485d4" d="M321 498Q336 508 370 539Q383 549 396 548Q406 547 409 536Q413 523 403 497Q399 484 375 475Q324 462 321 465C310 465 312 491 321 498Z"/>
<path id="z26485d5" d="M560 311Q596 260 633 187Q649 151 664 133Q673 121 666 109Q660 96 630 77Q602 62 583 65Q565 69 576 89Q597 125 542 248Q494 344 459 401Q450 411 449 418Q448 430 460 426Q488 414 548 329C556 317 556 317 560 311Z"/>
<path id="z26485d6" d="M686 336Q851 296 855 293Q865 284 859 276Q852 264 822 257Q798 254 704 283Q574 308 565 310Q562 310 560 311C553 312 543 324 548 329Q570 351 629 348C667 340 667 340 686 336Z"/>
<path id="z26485d7" d="M708 533Q780 523 932 523Q951 523 956 514Q960 504 944 490Q890 453 833 467Q781 477 709 491C672 497 672 497 653 500Q559 513 448 530Q427 533 443 549Q456 562 474 567Q495 571 510 567Q577 548 653 540C690 535 690 535 708 533Z"/>
<path id="z26485d8" d="M654 922Q658 947 666 957Q672 964 679 962Q694 952 701 893Q708 821 708 750Q705 701 708 533C709 505 709 505 709 491Q709 445 721 379Q724 360 710 351Q697 341 686 336C668 329 622 330 629 348Q648 388 652 407Q652 452 653 500C653 527 653 527 653 540Q647 861 654 922Z"/>
<defs>
	<clipPath id="z26485c1"><use xlink:href="#z26485d1"/></clipPath>
	<clipPath id="z26485c2"><use xlink:href="#z26485d2"/></clipPath>
	<clipPath id="z26485c3"><use xlink:href="#z26485d3"/></clipPath>
	<clipPath id="z26485c4"><use xlink:href="#z26485d4"/></clipPath>
	<clipPath id="z26485c5"><use xlink:href="#z26485d5"/></clipPath>
	<clipPath id="z26485c6"><use xlink:href="#z26485d6"/></clipPath>
	<clipPath id="z26485c7"><use xlink:href="#z26485d7"/></clipPath>
	<clipPath id="z26485c8"><use xlink:href="#z26485d8"/></clipPath>
</defs>
<path style="--d:1s;" pathLength="3333" clip-path="url(#z26485c1)" d="M104 385L426 332"/>
<path style="--d:2s;" pathLength="3333" clip-path="url(#z26485c2)" d="M249 76L312 152L284 897"/>
<path style="--d:3s;" pathLength="3333" clip-path="url(#z26485c3)" d="M273 397L204 540L61 707"/>
<path style="--d:4s;" pathLength="3333" clip-path="url(#z26485c4)" d="M326 475L405 538"/>
<path style="--d:5s;" pathLength="3333" clip-path="url(#z26485c5)" d="M578 71L625 123L552 281L457 418"/>
<path style="--d:6s;" pathLength="3333" clip-path="url(#z26485c6)" d="M553 325L854 279"/>
<path style="--d:7s;" pathLength="3333" clip-path="url(#z26485c7)" d="M447 543L856 493L953 508"/>
<path style="--d:8s;" pathLength="3333" clip-path="url(#z26485c8)" d="M637 352L685 390L673 955"/>
</svg>