<!--
AnimCJK 2016-2019 Copyright Francois Mizessyn - https://github.com/parsimonhi/animCJK
Derived from:
    MakeMeAHanzi project - https://github.com/skishore/makemeahanzi
    Arphic PL KaitiM GB font
    Arphic PL UKai font
You can redistribute and/or modify this file under the terms of the Arphic Public License
as published by Arphic Technology Co., Ltd.
You should have received a copy of this license along with this file.
If not, see http://ftp.gnu.org/non-gnu/chinese-fonts-truetype/LICENSE.
-->
<svg id="z26538" class="acjk" version="1.1" viewBox="0 0 1024 1024" xmlns="http://www.w3.org/2000/svg" xmlns:xlink="http://www.w3.org/1999/xlink">
<style>
<![CDATA[
@keyframes zk {
	to {
		stroke-dashoffset:0;
	}
}
svg.acjk path[clip-path] {
	--t:0.8s;
	animation:zk var(--t) linear forwards var(--d);
	stroke-dasharray:3337;
	stroke-dashoffset:3339;
	stroke-width:128;
	stroke-linecap:round;
	fill:none;
	stroke:#000;
}
svg.acjk path[id] {fill:#ccc;}
]]>
</style>
<path id="z26538d1" d="M331 380Q427 350 433 343Q440 336 436 327Q429 317 399 311Q384 310 333 326C304 338 304 338 289 344Q151 383 114 391Q80 400 106 414Q151 433 201 417Q234 407 271 397C311 386 311 386 331 380Z"/>
<path id="z26538d2" d="M329 461Q329 422 331 380C332 344 332 344 333 326Q334 235 353 174Q362 159 359 146Q352 136 298 103Q276 87 255 101Q251 105 256 121Q289 169 289 218Q289 276 289 344C286 436 286 436 285 482Q281 569 281 664Q277 740 255 811Q243 854 269 910Q275 928 283 931Q289 937 296 929Q303 925 314 905Q324 880 323 850Q322 807 328 490C329 471 329 471 329 461Z"/>
<path id="z26538d3" d="M271 397Q244 470 206 537Q163 613 58 751Q52 761 64 762Q88 762 196 628Q242 568 286 482C316 407 297 319 271 396C271 397 271 397 271 397Z"/>
<path id="z26538d4" d="M328 490Q382 544 398 544Q411 544 416 527Q417 515 407 497Q397 482 376 475Q343 462 329 461C319 459 321 483 328 490Z"/>
<path id="z26538d5" d="M649 241Q665 199 684 179Q691 169 686 156Q680 144 650 126Q623 111 605 114Q587 118 598 138Q614 166 606 194Q563 350 431 554Q422 564 421 571Q420 581 432 578Q501 545 632 281Q633 274 638 268C645 250 645 250 649 241Z"/>
<path id="z26538d6" d="M638 268Q710 374 804 488Q822 507 851 507Q950 506 981 502Q991 501 992 495Q993 491 979 483Q832 425 775 368Q715 313 649 241C642 234 632 260 638 268Z"/>
<path id="z26538d7" d="M557 580Q566 571 688 536Q695 535 702 538Q712 542 711 558Q710 595 696 662Q692 684 671 681Q643 677 620 673Q607 672 611 678Q612 685 635 702Q665 726 683 753Q690 760 698 758Q705 757 718 736Q739 706 746 650Q756 560 769 547Q779 538 774 529Q767 519 734 499Q722 492 673 507Q664 507 589 531Q564 538 543 543C530 546 546 588 557 580Z"/>
<path id="z26538d8" d="M898 815Q882 790 858 713Q857 698 849 694Q843 691 840 708Q824 795 811 822Q774 861 663 856Q620 855 586 840Q556 825 549 807Q525 752 557 580C559 567 554 550 543 543Q533 536 519 530Q509 526 500 530Q494 533 498 549Q510 585 506 619Q493 779 506 824Q510 848 532 867Q613 931 790 901Q799 898 810 896Q853 884 895 858Q914 840 898 815Z"/>
<defs>
	<clipPath id="z26538c1"><use xlink:href="#z26538d1"/></clipPath>
	<clipPath id="z26538c2"><use xlink:href="#z26538d2"/></clipPath>
	<clipPath id="z26538c3"><use xlink:href="#z26538d3"/></clipPath>
	<clipPath id="z26538c4"><use xlink:href="#z26538d4"/></clipPath>
	<clipPath id="z26538c5"><use xlink:href="#z26538d5"/></clipPath>
	<clipPath id="z26538c6"><use xlink:href="#z26538d6"/></clipPath>
	<clipPath id="z26538c7"><use xlink:href="#z26538d7"/></clipPath>
	<clipPath id="z26538c8"><use xlink:href="#z26538d8"/></clipPath>
</defs>
<path style="--d:1s;" pathLength="3333" clip-path="url(#z26538c1)" d="M100 401L173 400L431 325"/>
<path style="--d:2s;" pathLength="3333" clip-path="url(#z26538c2)" d="M259 105L320 157L288 928"/>
<path style="--d:3s;" pathLength="3333" clip-path="url(#z26538c3)" d="M282 400L215 564L62 754"/>
<path style="--d:4s;" pathLength="3333" clip-path="url(#z26538c4)" d="M335 466L404 538"/>
<path style="--d:5s;" pathLength="3333" clip-path="url(#z26538c5)" d="M600 123L647 164L642 186L538 414L428 572"/>
<path style="--d:6s;" pathLength="3333" clip-path="url(#z26538c6)" d="M653 255L836 462L983 495"/>
<path style="--d:7s;" pathLength="3333" clip-path="url(#z26538c7)" d="M557 572L704 517L743 543L703 706L684 719L617 681"/>
<path style="--d:8s;" pathLength="3333" clip-path="url(#z26538c8)" d="M506 537L531 581L523 799L576 864L710 883L834 850L863 819L847 700"/>
</svg>