<!--
AnimCJK 2016-2019 Copyright Francois Mizessyn - https://github.com/parsimonhi/animCJK
Derived from:
    MakeMeAHanzi project - https://github.com/skishore/makemeahanzi
    Arphic PL KaitiM GB font
    Arphic PL UKai font
You can redistribute and/or modify this file under the terms of the Arphic Public License
as published by Arphic Technology Co., Ltd.
You should have received a copy of this license along with this file.
If not, see http://ftp.gnu.org/non-gnu/chinese-fonts-truetype/LICENSE.
-->
<svg id="z26544" class="acjk" version="1.1" viewBox="0 0 1024 1024" xmlns="http://www.w3.org/2000/svg" xmlns:xlink="http://www.w3.org/1999/xlink">
<style>
<![CDATA[
@keyframes zk {
	to {
		stroke-dashoffset:0;
	}
}
svg.acjk path[clip-path] {
	--t:0.8s;
	animation:zk var(--t) linear forwards var(--d);
	stroke-dasharray:3337;
	stroke-dashoffset:3339;
	stroke-width:128;
	stroke-linecap:round;
	fill:none;
	stroke:#000;
}
svg.acjk path[id] {fill:#ccc;}
]]>
</style>
<path id="z26544d1" d="M331 363Q424 336 428 333Q437 324 432 316Q425 304 394 298Q363 294 333 307C303 318 303 318 288 324Q203 349 124 362Q87 369 115 385Q154 406 225 389Q244 383 269 379C310 368 310 368 331 363Z"/>
<path id="z26544d2" d="M329 446Q329 406 331 363C332 326 332 326 333 307Q334 210 354 144Q363 129 360 116Q353 106 298 71Q274 53 253 69Q249 73 254 90Q287 139 287 188Q287 252 288 324C285 421 285 421 284 469Q280 551 280 642Q274 720 253 791Q243 828 267 894Q274 912 282 915Q288 922 296 913Q323 897 324 831Q323 789 329 467C329 453 329 453 329 446Z"/>
<path id="z26544d3" d="M269 379Q242 452 205 520Q162 596 58 738Q52 748 64 749Q70 750 80 741Q209 624 284 469C315 390 300 300 269 379Z"/>
<path id="z26544d4" d="M329 467Q384 536 406 538Q419 539 425 523Q426 511 418 492Q409 476 386 466Q352 448 336 445Q332 444 329 446C322 447 325 461 329 467Z"/>
<path id="z26544d5" d="M651 264Q820 225 822 225Q832 218 827 208Q820 196 790 188Q766 182 657 214Q567 232 506 238Q469 244 495 262Q534 283 590 276C631 268 631 268 651 264Z"/>
<path id="z26544d6" d="M477 426Q493 445 510 468Q522 481 536 483Q546 483 553 471Q559 458 554 428Q548 404 477 380Q462 376 456 377Q452 380 451 393Q452 403 477 426Z"/>
<path id="z26544d7" d="M778 338Q765 366 701 454Q694 470 709 466Q757 435 783 411Q837 360 862 349Q883 337 871 321Q856 305 830 293Q805 281 793 285Q780 288 786 301Q790 319 778 338Z"/>
<path id="z26544d8" d="M667 579Q755 569 885 570Q943 573 951 561Q957 549 940 535Q880 490 817 510Q756 520 668 537C631 542 631 542 613 545Q516 558 405 573Q383 574 399 593Q432 623 471 613Q538 595 613 586C649 581 649 581 667 579Z"/>
<path id="z26544d9" d="M613 920Q617 947 625 957Q631 964 639 962Q654 953 662 890Q671 808 669 728Q666 688 667 579C668 551 668 551 668 537Q668 365 682 304Q686 285 671 276Q661 269 651 264C633 253 582 257 590 276Q611 321 614 353Q615 435 613 545C613 572 613 572 613 586Q607 868 613 920Z"/>
<defs>
	<clipPath id="z26544c1"><use xlink:href="#z26544d1"/></clipPath>
	<clipPath id="z26544c2"><use xlink:href="#z26544d2"/></clipPath>
	<clipPath id="z26544c3"><use xlink:href="#z26544d3"/></clipPath>
	<clipPath id="z26544c4"><use xlink:href="#z26544d4"/></clipPath>
	<clipPath id="z26544c5"><use xlink:href="#z26544d5"/></clipPath>
	<clipPath id="z26544c6"><use xlink:href="#z26544d6"/></clipPath>
	<clipPath id="z26544c7"><use xlink:href="#z26544d7"/></clipPath>
	<clipPath id="z26544c8"><use xlink:href="#z26544d8"/></clipPath>
	<clipPath id="z26544c9"><use xlink:href="#z26544d9"/></clipPath>
</defs>
<path style="--d:1s;" pathLength="3333" clip-path="url(#z26544c1)" d="M111 373L429 320"/>
<path style="--d:2s;" pathLength="3333" clip-path="url(#z26544c2)" d="M257 72L321 137L290 913"/>
<path style="--d:3s;" pathLength="3333" clip-path="url(#z26544c3)" d="M282 381L218 542L64 743"/>
<path style="--d:4s;" pathLength="3333" clip-path="url(#z26544c4)" d="M335 454L414 533"/>
<path style="--d:5s;" pathLength="3333" clip-path="url(#z26544c5)" d="M491 248L824 214"/>
<path style="--d:6s;" pathLength="3333" clip-path="url(#z26544c6)" d="M460 381L541 478"/>
<path style="--d:7s;" pathLength="3333" clip-path="url(#z26544c7)" d="M791 295L825 339L706 459"/>
<path style="--d:8s;" pathLength="3333" clip-path="url(#z26544c8)" d="M399 581L452 591L839 537L946 555"/>
<path style="--d:9s;" pathLength="3333" clip-path="url(#z26544c9)" d="M600 282L645 309L636 954"/>
</svg>