<!--
AnimCJK 2016-2019 Copyright Francois Mizessyn - https://github.com/parsimonhi/animCJK
Derived from:
    MakeMeAHanzi project - https://github.com/skishore/makemeahanzi
    Arphic PL KaitiM GB font
    Arphic PL UKai font
You can redistribute and/or modify this file under the terms of the Arphic Public License
as published by Arphic Technology Co., Ltd.
You should have received a copy of this license along with this file.
If not, see http://ftp.gnu.org/non-gnu/chinese-fonts-truetype/LICENSE.
-->
<svg id="z26552" class="acjk" version="1.1" viewBox="0 0 1024 1024" xmlns="http://www.w3.org/2000/svg" xmlns:xlink="http://www.w3.org/1999/xlink">
<style>
<![CDATA[
@keyframes zk {
	to {
		stroke-dashoffset:0;
	}
}
svg.acjk path[clip-path] {
	--t:0.8s;
	animation:zk var(--t) linear forwards var(--d);
	stroke-dasharray:3337;
	stroke-dashoffset:3339;
	stroke-width:128;
	stroke-linecap:round;
	fill:none;
	stroke:#000;
}
svg.acjk path[id] {fill:#ccc;}
]]>
</style>
<path id="z26552d1" d="M326 390Q353 383 385 377Q425 367 431 361Q441 354 435 344Q428 332 398 325Q362 319 327 336C296 346 296 346 281 351Q155 378 121 382Q84 389 111 406Q156 430 214 414Q233 408 255 405C302 395 302 395 326 390Z"/>
<path id="z26552d2" d="M325 474Q325 434 326 390C327 354 327 354 327 336Q327 221 347 152Q362 125 336 108Q320 96 290 79Q266 63 245 78Q241 82 246 98Q277 146 279 210Q279 279 281 351C279 433 279 433 278 474Q275 648 269 689Q247 798 249 810Q249 823 267 866Q274 884 282 887Q288 894 296 885Q303 881 314 860Q324 835 323 803Q322 766 324 505C325 484 325 484 325 474Z"/>
<path id="z26552d3" d="M255 405Q204 531 58 722Q52 732 64 733Q71 734 80 726Q204 618 278 474C303 412 280 343 255 405Z"/>
<path id="z26552d4" d="M324 505Q333 508 382 557Q392 567 405 566Q414 566 417 555Q421 545 414 521Q410 505 384 492Q359 482 329 474Q326 473 325 474C315 474 315 500 324 505Z"/>
<path id="z26552d5" d="M548 341Q572 316 631 203Q647 166 664 147Q673 135 667 122Q661 109 630 89Q602 73 582 76Q563 80 574 101Q598 143 528 284Q495 350 448 424Q438 436 437 442Q434 454 449 450Q474 438 535 360C544 347 544 347 548 341Z"/>
<path id="z26552d6" d="M535 360Q571 376 599 367Q626 357 752 333Q774 329 782 339Q800 358 802 408Q808 559 797 656Q775 809 745 827Q738 830 663 796Q653 792 650 795Q646 801 660 817Q697 868 715 911Q734 939 751 934Q799 919 835 798Q856 716 867 449Q868 379 887 356Q903 335 881 319Q809 274 758 292Q677 316 548 341C540 342 528 357 535 360Z"/>
<path id="z26552d7" d="M490 511Q480 505 455 499Q445 495 441 499Q435 505 441 519Q463 576 472 666Q472 694 486 713Q501 734 506 720Q510 710 511 693C510 671 510 671 510 660Q501 567 501 539C501 529 499 515 490 511Z"/>
<path id="z26552d8" d="M649 646Q670 567 695 542Q717 517 696 502Q677 490 651 473Q632 461 614 472Q583 491 490 511C480 513 492 543 501 539Q516 533 590 521Q614 517 619 526Q626 533 618 567Q611 601 600 640C597 656 646 662 649 646Z"/>
<path id="z26552d9" d="M511 693Q521 694 531 692Q571 685 660 678Q670 677 672 668Q672 661 649 646C636 636 616 640 600 640Q597 639 595 640Q549 652 510 660C499 662 500 693 511 693Z"/>
<defs>
	<clipPath id="z26552c1"><use xlink:href="#z26552d1"/></clipPath>
	<clipPath id="z26552c2"><use xlink:href="#z26552d2"/></clipPath>
	<clipPath id="z26552c3"><use xlink:href="#z26552d3"/></clipPath>
	<clipPath id="z26552c4"><use xlink:href="#z26552d4"/></clipPath>
	<clipPath id="z26552c5"><use xlink:href="#z26552d5"/></clipPath>
	<clipPath id="z26552c6"><use xlink:href="#z26552d6"/></clipPath>
	<clipPath id="z26552c7"><use xlink:href="#z26552d7"/></clipPath>
	<clipPath id="z26552c8"><use xlink:href="#z26552d8"/></clipPath>
	<clipPath id="z26552c9"><use xlink:href="#z26552d9"/></clipPath>
</defs>
<path style="--d:1s;" pathLength="3333" clip-path="url(#z26552c1)" d="M106 391L166 398L432 347"/>
<path style="--d:2s;" pathLength="3333" clip-path="url(#z26552c2)" d="M249 79L312 149L290 883"/>
<path style="--d:3s;" pathLength="3333" clip-path="url(#z26552c3)" d="M272 409L199 561L65 726"/>
<path style="--d:4s;" pathLength="3333" clip-path="url(#z26552c4)" d="M332 480L409 559"/>
<path style="--d:5s;" pathLength="3333" clip-path="url(#z26552c5)" d="M578 84L623 140L541 312L443 442"/>
<path style="--d:6s;" pathLength="3333" clip-path="url(#z26552c6)" d="M541 356L767 310L845 353L824 674L790 826L740 879L656 799"/>
<path style="--d:7s;" pathLength="3333" clip-path="url(#z26552c7)" d="M447 507L476 545L499 718"/>
<path style="--d:8s;" pathLength="3333" clip-path="url(#z26552c8)" d="M498 516L621 495L657 515L612 640"/>
<path style="--d:9s;" pathLength="3333" clip-path="url(#z26552c9)" d="M521 685L663 668"/>
</svg>