<!--
AnimCJK 2016-2019 Copyright Francois Mizessyn - https://github.com/parsimonhi/animCJK
Derived from:
    MakeMeAHanzi project - https://github.com/skishore/makemeahanzi
    Arphic PL KaitiM GB font
    Arphic PL UKai font
You can redistribute and/or modify this file under the terms of the Arphic Public License
as published by Arphic Technology Co., Ltd.
You should have received a copy of this license along with this file.
If not, see http://ftp.gnu.org/non-gnu/chinese-fonts-truetype/LICENSE.
-->
<svg id="z26575" class="acjk" version="1.1" viewBox="0 0 1024 1024" xmlns="http://www.w3.org/2000/svg" xmlns:xlink="http://www.w3.org/1999/xlink">
<style>
<![CDATA[
@keyframes zk {
	to {
		stroke-dashoffset:0;
	}
}
svg.acjk path[clip-path] {
	--t:0.8s;
	animation:zk var(--t) linear forwards var(--d);
	stroke-dasharray:3337;
	stroke-dashoffset:3339;
	stroke-width:128;
	stroke-linecap:round;
	fill:none;
	stroke:#000;
}
svg.acjk path[id] {fill:#ccc;}
]]>
</style>
<path id="z26575d1" d="M328 407Q428 379 431 377Q441 368 435 360Q428 348 398 341Q367 337 336 349Q332 350 329 352C297 363 297 363 281 368Q170 395 113 402Q76 409 103 426Q145 447 214 431Q236 425 261 422C306 412 306 412 328 407Z"/>
<path id="z26575d2" d="M325 517Q326 465 328 407C329 370 329 370 329 352Q330 333 331 312Q332 216 351 151Q361 135 357 121Q350 111 293 75Q268 57 247 73Q241 79 248 94Q279 145 281 220Q281 293 281 368C278 459 278 459 276 505Q273 676 264 720Q258 753 248 787Q236 829 262 893Q269 912 277 915Q284 922 292 913Q299 909 311 887Q321 862 320 829Q320 792 324 547C325 527 325 527 325 517Z"/>
<path id="z26575d3" d="M261 422Q201 563 46 758Q40 768 52 769Q59 770 68 762Q200 651 277 505C318 437 286 346 261 421C261 422 261 422 261 422Z"/>
<path id="z26575d4" d="M324 547Q330 551 337 556Q368 577 400 604Q413 614 425 612Q434 611 437 600Q440 587 431 564Q419 534 330 517Q327 516 325 517C315 517 316 541 324 547Z"/>
<path id="z26575d5" d="M594 387Q603 372 694 212Q707 185 728 162Q747 140 727 127Q703 114 668 111Q635 108 623 117Q610 124 621 138Q640 163 601 286Q583 337 566 393C562 402 588 395 594 387Z"/>
<path id="z26575d6" d="M531 398Q507 379 482 369Q475 365 469 370Q460 374 469 388Q514 491 492 704Q486 764 520 798Q521 799 524 801Q540 808 545 777Q546 771 546 766C547 745 547 745 547 734Q544 715 542 591C542 570 542 570 542 560Q542 490 546 433C546 420 541 406 531 398Z"/>
<path id="z26575d7" d="M721 750Q733 775 770 836Q780 854 791 851Q807 847 815 819Q846 737 841 633Q842 567 842 492Q845 443 867 410Q883 389 870 376Q846 355 798 336Q780 327 700 358Q651 373 594 387C575 391 575 391 566 393Q548 394 531 398C518 400 533 435 546 433Q553 433 737 393Q753 389 763 397Q775 413 777 432Q787 571 772 709Q772 733 762 736Q761 737 758 736C745 738 715 738 721 750Z"/>
<path id="z26575d8" d="M542 591Q546 591 553 591Q650 578 720 571Q745 567 737 553Q725 537 698 530Q668 524 542 560C532 564 532 591 542 591Z"/>
<path id="z26575d9" d="M546 766Q550 766 556 765Q610 755 721 750C734 750 765 747 758 736Q755 727 732 712Q717 703 688 709Q610 725 547 734C536 736 535 766 546 766Z"/>
<defs>
	<clipPath id="z26575c1"><use xlink:href="#z26575d1"/></clipPath>
	<clipPath id="z26575c2"><use xlink:href="#z26575d2"/></clipPath>
	<clipPath id="z26575c3"><use xlink:href="#z26575d3"/></clipPath>
	<clipPath id="z26575c4"><use xlink:href="#z26575d4"/></clipPath>
	<clipPath id="z26575c5"><use xlink:href="#z26575d5"/></clipPath>
	<clipPath id="z26575c6"><use xlink:href="#z26575d6"/></clipPath>
	<clipPath id="z26575c7"><use xlink:href="#z26575d7"/></clipPath>
	<clipPath id="z26575c8"><use xlink:href="#z26575d8"/></clipPath>
	<clipPath id="z26575c9"><use xlink:href="#z26575d9"/></clipPath>
</defs>
<path style="--d:1s;" pathLength="3333" clip-path="url(#z26575c1)" d="M102 415L432 361"/>
<path style="--d:2s;" pathLength="3333" clip-path="url(#z26575c2)" d="M251 79L316 143L286 913"/>
<path style="--d:3s;" pathLength="3333" clip-path="url(#z26575c3)" d="M271 427L208 572L52 763"/>
<path style="--d:4s;" pathLength="3333" clip-path="url(#z26575c4)" d="M330 527L429 607"/>
<path style="--d:5s;" pathLength="3333" clip-path="url(#z26575c5)" d="M623 122L686 166L576 385"/>
<path style="--d:6s;" pathLength="3333" clip-path="url(#z26575c6)" d="M471 375L517 445L525 793"/>
<path style="--d:7s;" pathLength="3333" clip-path="url(#z26575c7)" d="M541 403L768 363L825 406L804 728L769 785L776 842"/>
<path style="--d:8s;" pathLength="3333" clip-path="url(#z26575c8)" d="M550 583L734 555"/>
<path style="--d:9s;" pathLength="3333" clip-path="url(#z26575c9)" d="M552 758L750 734"/>
</svg>