<!--
AnimCJK 2016-2018 Copyright Francois Mizessyn - https://github.com/parsimonhi/animCJK
Derived from:
    MakeMeAHanzi project - https://github.com/skishore/makemeahanzi
    Arphic PL KaitiM GB - https://apps.ubuntu.com/cat/applications/precise/fonts-arphic-gkai00mp/
    Arphic PL UKai - https://apps.ubuntu.com/cat/applications/fonts-arphic-ukai/
You can redistribute and/or modify this file under the terms of the Arphic Public License
as published by Arphic Technology Co., Ltd.
You should have received a copy of this license (the directory "APL") along with this file;
if not, see http://ftp.gnu.org/non-gnu/chinese-fonts-truetype/LICENSE.
-->
<svg id="z26585" class="acjk" version="1.1" viewBox="0 0 1024 1024" xmlns="http://www.w3.org/2000/svg" xmlns:xlink="http://www.w3.org/1999/xlink">
<style>
<![CDATA[
@keyframes z26585k {
	from {
		stroke:#ccc;
		stroke-dashoffset:3334;
	}
	1% {
		stroke:#c00;
		stroke-dashoffset:3334;
	}
	75% {
		stroke:#c00;
		stroke-dashoffset:0;
	}
	to {
		stroke:#000;
	}
}
#z26585 path[clip-path] {
	animation:z26585k 1s linear both;
	stroke-dasharray:3334;
	stroke-width:128;
	stroke-linecap:round;
	fill:none;
}
#z26585 path[clip-path="url(#z26585c1)"] {animation-delay:1s;}
#z26585 path[clip-path="url(#z26585c2)"] {animation-delay:2s;}
#z26585 path[clip-path="url(#z26585c3)"] {animation-delay:3s;}
#z26585 path[clip-path="url(#z26585c4)"] {animation-delay:4s;}
#z26585 path[clip-path="url(#z26585c5)"] {animation-delay:5s;}
#z26585 path[clip-path="url(#z26585c6)"] {animation-delay:6s;}
#z26585 path[clip-path="url(#z26585c7)"] {animation-delay:7s;}
#z26585 path[clip-path="url(#z26585c8)"] {animation-delay:8s;}
#z26585 path[clip-path="url(#z26585c9)"] {animation-delay:9s;}
#z26585 path {fill:#ccc;}
]]>
</style>
<path id="z26585d1" d="M313 369Q337 362 364 357Q401 347 407 342Q416 335 411 327Q404 317 377 310Q355 307 314 320C283 331 283 331 268 336Q160 360 119 366Q86 372 110 387Q149 405 203 394Q222 388 248 385C291 374 291 374 313 369Z"></path>
<path id="z26585d2" d="M311 463Q311 418 313 369C314 336 314 336 314 320Q314 224 334 152Q350 128 323 108Q307 96 278 79Q254 61 233 77Q229 83 234 98Q265 146 267 193Q267 260 268 336C265 426 265 426 264 471Q261 672 249 732Q225 819 246 869Q247 875 251 882Q258 900 266 903Q272 910 280 901Q287 897 298 876Q308 851 307 819Q306 779 310 494C311 473 311 473 311 463Z"></path>
<path id="z26585d3" d="M248 385Q209 508 58 715Q52 725 64 726Q86 726 184 604Q226 549 264 471C294 396 278 310 248 385Z"></path>
<path id="z26585d4" d="M310 494Q374 548 398 546Q411 545 414 526Q414 513 401 496Q380 469 311 463C301 463 302 488 310 494Z"></path>
<path id="z26585d5" d="M478 308Q469 305 456 303Q443 299 439 305Q432 311 441 328Q475 407 492 535Q493 574 515 600Q534 622 539 607Q540 600 543 591C546 583 544 574 544 566Q544 547 540 523Q515 372 512 339C509 324 493 311 478 308Z"></path>
<path id="z26585d6" d="M774 563Q793 594 812 603Q824 612 840 589Q859 558 894 391Q904 358 929 332Q944 319 932 303Q916 285 870 256Q851 247 764 265Q622 286 478 308C463 311 497 342 512 339Q554 329 610 321C651 314 651 314 671 311Q810 289 827 306Q843 325 839 344Q811 500 798 523Q794 533 783 539C776 543 769 556 774 563Z"></path>
<path id="z26585d7" d="M689 448Q723 442 755 439Q777 435 769 423Q759 410 735 405Q717 401 691 408C653 418 653 418 634 423Q600 432 567 440Q551 443 570 458Q573 459 634 456C671 451 671 451 689 448Z"></path>
<path id="z26585d8" d="M543 591Q556 591 633 582C669 577 669 577 687 575Q732 568 774 563C782 562 790 544 783 539Q776 532 759 528Q729 522 687 536C652 544 652 544 634 548Q586 555 544 566C536 568 535 591 543 591Z"></path>
<path id="z26585d9" d="M633 582Q626 933 643 964Q644 967 646 969Q652 976 659 974Q674 964 681 905Q690 827 688 751Q685 706 687 575C687 549 687 549 687 536Q687 496 689 448C690 421 690 421 691 408Q697 366 701 351Q704 332 690 323Q680 316 671 311C653 300 602 302 610 321Q632 373 634 383Q634 402 634 423C634 445 634 445 634 456Q634 498 634 548C633 571 633 571 633 582Z"></path>
<defs>
	<clipPath id="z26585c1"><use xlink:href="#z26585d1"></use></clipPath>
	<clipPath id="z26585c2"><use xlink:href="#z26585d2"></use></clipPath>
	<clipPath id="z26585c3"><use xlink:href="#z26585d3"></use></clipPath>
	<clipPath id="z26585c4"><use xlink:href="#z26585d4"></use></clipPath>
	<clipPath id="z26585c5"><use xlink:href="#z26585d5"></use></clipPath>
	<clipPath id="z26585c6"><use xlink:href="#z26585d6"></use></clipPath>
	<clipPath id="z26585c7"><use xlink:href="#z26585d7"></use></clipPath>
	<clipPath id="z26585c8"><use xlink:href="#z26585d8"></use></clipPath>
	<clipPath id="z26585c9"><use xlink:href="#z26585d9"></use></clipPath>
</defs>
<path pathLength="3333" clip-path="url(#z26585c1)" d="M107 374L407 333"></path>
<path pathLength="3333" clip-path="url(#z26585c2)" d="M237 82L301 155L268 901"></path>
<path pathLength="3333" clip-path="url(#z26585c3)" d="M261 387L185 566L63 718"></path>
<path pathLength="3333" clip-path="url(#z26585c4)" d="M317 469L410 531"></path>
<path pathLength="3333" clip-path="url(#z26585c5)" d="M443 308L484 356L530 607"></path>
<path pathLength="3333" clip-path="url(#z26585c6)" d="M487 310L855 286L887 330L802 595"></path>
<path pathLength="3333" clip-path="url(#z26585c7)" d="M570 449L763 425"></path>
<path pathLength="3333" clip-path="url(#z26585c8)" d="M552 583L778 545"></path>
<path pathLength="3333" clip-path="url(#z26585c9)" d="M618 323L666 362L656 968"></path>
</svg>