<!--
AnimCJK 2016-2018 Copyright Francois Mizessyn, https://github.com/parsimonhi/animCJK
Derived from:
    MakeMeAHanzi project - https://github.com/skishore/makemeahanzi
    Arphic PL KaitiM GB - https://apps.ubuntu.com/cat/applications/precise/fonts-arphic-gkai00mp/
    Arphic PL UKai - https://apps.ubuntu.com/cat/applications/fonts-arphic-ukai/
You can redistribute and/or modify this file under the terms of the Arphic Public License
as published by Arphic Technology Co., Ltd.
You should have received a copy of this license (the directory "APL") along with this file;
if not, see http://ftp.gnu.org/non-gnu/chinese-fonts-truetype/LICENSE.
-->
<svg id="z26580" class="acjk" version="1.1" viewBox="0 0 1024 1024" xmlns="http://www.w3.org/2000/svg" xmlns:xlink="http://www.w3.org/1999/xlink">
<style>
<![CDATA[
@keyframes z26580k {
	from {
		stroke:#c00;
		stroke-dashoffset:3334;
	}
	75% {
		stroke:#c00;
		stroke-dashoffset:0;
	}
	to {
		stroke:#000;
	}
}
#z26580 path[clip-path] {
	animation:z26580k 1s linear both;
	stroke-dasharray:3334;
	stroke-width:128;
	stroke-linecap:round;
	fill:none;
}
#z26580 path[clip-path="url(#z26580c1)"] {animation-delay:1s;}
#z26580 path[clip-path="url(#z26580c2)"] {animation-delay:2s;}
#z26580 path[clip-path="url(#z26580c3)"] {animation-delay:3s;}
#z26580 path[clip-path="url(#z26580c4)"] {animation-delay:4s;}
#z26580 path[clip-path="url(#z26580c5)"] {animation-delay:5s;}
#z26580 path[clip-path="url(#z26580c6)"] {animation-delay:6s;}
#z26580 path[clip-path="url(#z26580c7)"] {animation-delay:7s;}
#z26580 path[clip-path="url(#z26580c8)"] {animation-delay:8s;}
#z26580 path[clip-path="url(#z26580c9)"] {animation-delay:9s;}
#z26580 path {fill:#ccc;}
]]>
</style>
<path id="z26580d1" d="M542 227Q648 143 686 135Q705 129 700 113Q697 98 635 60Q619 50 596 57Q524 79 415 104Q387 111 320 106Q298 105 305 124Q312 137 329 148Q359 166 391 148Q578 91 594 102Q604 109 599 122Q565 164 528 213L542 227 Z"/>
<path id="z26580d2" d="M547 269Q548 266 550 264Q553 239 542 227L528 213Q519 206 464 193Q452 192 448 194Q444 197 446 206Q446 209 517 267Q521 271 525 273L547 269 Z"/>
<path id="z26580d3" d="M539 298Q612 285 689 277Q723 273 724 287Q723 303 689 360Q680 375 687 379Q694 383 708 372Q787 318 819 309Q844 305 843 290Q842 277 770 237Q748 227 721 232Q628 253 547 269L525 273Q509 274 494 278Q374 294 209 310Q181 313 202 336Q217 357 265 344Q356 326 449 312L539 298 Z"/>
<path id="z26580d4" d="M509 319Q539 349 533 415Q530 442 521 457Q511 475 487 470Q466 466 446 462Q437 461 441 469Q444 475 457 485Q485 510 494 530Q501 545 515 542Q525 541 546 520Q585 477 578 392Q571 316 539 298L509 319 Z"/>
<path id="z26580d5" d="M449 312Q407 403 215 510Q197 520 212 522Q239 528 317 493Q371 463 424 414Q458 383 480 353Q499 328 509 319L539 298L449 312 Z"/>
<path id="z26580d6" d="M538 632Q590 626 868 627Q889 628 895 619Q901 606 883 591Q828 549 787 557Q694 573 542 595L485 602Q331 618 154 637Q132 638 148 657Q163 672 182 678Q204 685 221 680Q326 653 444 642L538 632 Z"/>
<path id="z26580d7" d="M537 633Q537 632 538 632L542 595Q542 577 497 551Q485 548 476 555Q470 558 477 568Q483 577 485 602L483 675Q483 807 467 857Q457 900 497 956Q501 963 508 966Q518 967 524 955Q537 924 534 895Q531 706 536 665L537 633 Z"/>
<path id="z26580d8" d="M444 642Q392 745 152 861Q133 871 148 875Q158 879 199 868Q253 858 304 829Q409 769 472 689Q476 682 483 675L484 638L444 642 Z"/>
<path id="z26580d9" d="M536 665Q621 756 712 839Q736 861 773 861Q840 862 912 846Q930 843 931 838Q932 831 918 826Q870 810 814 795Q696 759 545 638Q541 635 537 633L536 665 Z"/>
<defs>
	<clipPath id="z26580c1"><use xlink:href="#z26580d1"/></clipPath>
	<clipPath id="z26580c2"><use xlink:href="#z26580d2"/></clipPath>
	<clipPath id="z26580c3"><use xlink:href="#z26580d3"/></clipPath>
	<clipPath id="z26580c4"><use xlink:href="#z26580d4"/></clipPath>
	<clipPath id="z26580c5"><use xlink:href="#z26580d5"/></clipPath>
	<clipPath id="z26580c6"><use xlink:href="#z26580d6"/></clipPath>
	<clipPath id="z26580c7"><use xlink:href="#z26580d7"/></clipPath>
	<clipPath id="z26580c8"><use xlink:href="#z26580d8"/></clipPath>
	<clipPath id="z26580c9"><use xlink:href="#z26580d9"/></clipPath>
</defs>
<path pathLength="3333" clip-path="url(#z26580c1)" d="M308 114L368 132L610 79L645 128L537 217"/>
<path pathLength="3333" clip-path="url(#z26580c2)" d="M452 202L546 260"/>
<path pathLength="3333" clip-path="url(#z26580c3)" d="M197 319L728 254L788 298L692 376"/>
<path pathLength="3333" clip-path="url(#z26580c4)" d="M516 319L549 349L549 459L504 506L448 467"/>
<path pathLength="3333" clip-path="url(#z26580c5)" d="M529 302L465 332L329 463L214 515"/>
<path pathLength="3333" clip-path="url(#z26580c6)" d="M148 644L206 657L794 591L891 610"/>
<path pathLength="3333" clip-path="url(#z26580c7)" d="M479 556L513 598L509 961"/>
<path pathLength="3333" clip-path="url(#z26580c8)" d="M479 646L342 778L152 868"/>
<path pathLength="3333" clip-path="url(#z26580c9)" d="M541 643L748 815L924 837"/>
</svg>