<!--
AnimCJK 2016-2018 Copyright Francois Mizessyn, https://github.com/parsimonhi/animCJK
Derived from:
    MakeMeAHanzi project - https://github.com/skishore/makemeahanzi
    Arphic PL KaitiM GB - https://apps.ubuntu.com/cat/applications/precise/fonts-arphic-gkai00mp/
    Arphic PL UKai - https://apps.ubuntu.com/cat/applications/fonts-arphic-ukai/
You can redistribute and/or modify this file under the terms of the Arphic Public License
as published by Arphic Technology Co., Ltd.
You should have received a copy of this license (the directory "APL") along with this file;
if not, see http://ftp.gnu.org/non-gnu/chinese-fonts-truetype/LICENSE.
-->
<svg id="z26623" class="acjk" version="1.1" viewBox="0 0 1024 1024" xmlns="http://www.w3.org/2000/svg" xmlns:xlink="http://www.w3.org/1999/xlink">
<style>
<![CDATA[
@keyframes z26623k {
	from {
		stroke:#c00;
		stroke-dashoffset:3334;
	}
	75% {
		stroke:#c00;
		stroke-dashoffset:0;
	}
	to {
		stroke:#000;
	}
}
#z26623 path[clip-path] {
	animation:z26623k 1s linear both;
	stroke-dasharray:3334;
	stroke-width:128;
	stroke-linecap:round;
	fill:none;
}
#z26623 path[clip-path="url(#z26623c1)"] {animation-delay:1s;}
#z26623 path[clip-path="url(#z26623c2)"] {animation-delay:2s;}
#z26623 path[clip-path="url(#z26623c3)"] {animation-delay:3s;}
#z26623 path[clip-path="url(#z26623c4)"] {animation-delay:4s;}
#z26623 path[clip-path="url(#z26623c5)"] {animation-delay:5s;}
#z26623 path[clip-path="url(#z26623c6)"] {animation-delay:6s;}
#z26623 path[clip-path="url(#z26623c7)"] {animation-delay:7s;}
#z26623 path[clip-path="url(#z26623c8)"] {animation-delay:8s;}
#z26623 path[clip-path="url(#z26623c9)"] {animation-delay:9s;}
#z26623 path {fill:#ccc;}
]]>
</style>
<path id="z26623d1" d="M331 357Q352 350 374 345Q414 333 420 327Q429 320 424 311Q417 301 388 295Q358 291 332 304L288 321Q186 351 115 363Q81 370 106 386Q152 405 210 388Q240 379 273 372L331 357 Z"/>
<path id="z26623d2" d="M328 450Q329 405 331 357L332 304Q332 211 353 138Q368 113 338 93Q323 81 298 67Q276 51 255 65Q251 69 256 85Q287 131 288 179Q288 245 288 321L284 457Q281 655 262 732Q244 804 269 858Q275 876 283 879Q289 886 296 877Q303 873 314 853Q324 828 323 798Q322 759 328 482L328 450 Z"/>
<path id="z26623d3" d="M273 372Q221 501 70 695Q66 705 76 706Q82 707 91 698Q211 599 285 457L287 368L273 371 Z"/>
<path id="z26623d4" d="M328 482Q335 485 390 540Q400 550 413 550Q420 550 425 539Q429 529 423 505Q419 486 391 472Q364 460 333 451Q332 450 328 450L328 482 Z"/>
<path id="z26623d5" d="M611 114Q639 139 671 169Q684 182 701 181Q711 181 717 167Q721 152 713 123Q701 90 606 66Q590 62 584 65Q580 69 580 82Q584 92 611 114 Z"/>
<path id="z26623d6" d="M665 305Q664 304 668 304Q741 291 863 284Q912 280 917 273Q921 261 905 250Q850 214 796 234Q610 276 478 303Q459 306 474 321Q489 333 505 337Q524 341 540 335Q574 323 614 315L665 305 Z"/>
<path id="z26623d7" d="M516 466Q494 456 478 457Q466 461 472 471Q502 522 480 624Q458 664 489 705Q490 706 493 709Q500 721 508 715Q533 697 534 626Q535 521 538 499L516 466 Z"/>
<path id="z26623d8" d="M693 471Q736 462 781 459Q812 455 815 475Q827 619 809 640Q799 647 739 637Q723 634 721 639Q718 645 729 653Q787 690 822 719Q837 731 849 717Q871 683 873 615Q867 512 875 467Q878 448 868 438Q841 416 822 405Q810 399 801 409Q794 418 695 439Q692 439 693 440L641 449Q593 455 516 466L538 499Q544 499 551 498Q596 488 641 480L693 471 Z"/>
<path id="z26623d9" d="M642 923Q646 948 654 957Q660 964 667 962Q685 950 688 895Q695 819 693 743Q690 685 693 471L693 440Q693 413 704 348Q707 332 693 322Q677 312 665 305L614 315Q614 316 617 321Q639 372 641 441Q641 444 641 449L641 480Q641 912 642 923 Z"/>
<defs>
	<clipPath id="z26623c1"><use xlink:href="#z26623d1"/></clipPath>
	<clipPath id="z26623c2"><use xlink:href="#z26623d2"/></clipPath>
	<clipPath id="z26623c3"><use xlink:href="#z26623d3"/></clipPath>
	<clipPath id="z26623c4"><use xlink:href="#z26623d4"/></clipPath>
	<clipPath id="z26623c5"><use xlink:href="#z26623d5"/></clipPath>
	<clipPath id="z26623c6"><use xlink:href="#z26623d6"/></clipPath>
	<clipPath id="z26623c7"><use xlink:href="#z26623d7"/></clipPath>
	<clipPath id="z26623c8"><use xlink:href="#z26623d8"/></clipPath>
	<clipPath id="z26623c9"><use xlink:href="#z26623d9"/></clipPath>
</defs>
<path pathLength="3333" clip-path="url(#z26623c1)" d="M104 373L417 312"/>
<path pathLength="3333" clip-path="url(#z26623c2)" d="M259 67L320 133L293 874"/>
<path pathLength="3333" clip-path="url(#z26623c3)" d="M279 377L226 513L79 697"/>
<path pathLength="3333" clip-path="url(#z26623c4)" d="M335 462L412 546"/>
<path pathLength="3333" clip-path="url(#z26623c5)" d="M587 71L711 171"/>
<path pathLength="3333" clip-path="url(#z26623c6)" d="M475 312L820 257L911 267"/>
<path pathLength="3333" clip-path="url(#z26623c7)" d="M479 467L512 507L496 709"/>
<path pathLength="3333" clip-path="url(#z26623c8)" d="M524 468L559 478L809 434L835 449L832 671L726 642"/>
<path pathLength="3333" clip-path="url(#z26623c9)" d="M623 318L667 351L663 957"/>
</svg>