<!--
AnimCJK 2016-2017 Copyright Francois Mizessyn, http://gooo.free.fr/animCJK/
Derived from:
    MakeMeAHanzi project - https://github.com/skishore/makemeahanzi
    Arphic PL KaitiM GB - https://apps.ubuntu.com/cat/applications/precise/fonts-arphic-gkai00mp/
    Arphic PL UKai - https://apps.ubuntu.com/cat/applications/fonts-arphic-ukai/
You can redistribute and/or modify this file under the terms of the Arphic Public License
as published by Arphic Technology Co., Ltd.
You should have received a copy of this license (the directory "APL") along with this file;
if not, see http://ftp.gnu.org/non-gnu/chinese-fonts-truetype/LICENSE.
-->
<svg id="z26679" class="acjk" version="1.1" viewBox="0 0 1024 1024" xmlns="http://www.w3.org/2000/svg" xmlns:xlink="http://www.w3.org/1999/xlink">
<style>
<![CDATA[
	@keyframes z26679k {
		from {
			stroke:#c00;
			stroke-dashoffset:3000;
		}
		75% {
			stroke:#c00;
			stroke-dashoffset:0;
		}
		to {
			stroke:#000;
		}
	}
	#z26679 path[clip-path] {
		animation:z26679k 1s linear both;
		stroke-dasharray:3000;
		stroke-width:128;
		stroke-linecap:round;
		fill:none;
	}
	#z26679 path[clip-path="url(#z26679c1)"] {animation-delay:1s;}
	#z26679 path[clip-path="url(#z26679c2)"] {animation-delay:2s;}
	#z26679 path[clip-path="url(#z26679c3)"] {animation-delay:3s;}
	#z26679 path[clip-path="url(#z26679c4)"] {animation-delay:4s;}
	#z26679 path[clip-path="url(#z26679c5)"] {animation-delay:5s;}
	#z26679 path[clip-path="url(#z26679c6)"] {animation-delay:6s;}
	#z26679 path[clip-path="url(#z26679c7)"] {animation-delay:7s;}
	#z26679 path[clip-path="url(#z26679c8)"] {animation-delay:8s;}
	#z26679 path[clip-path="url(#z26679c9)"] {animation-delay:9s;}
	#z26679 path[clip-path="url(#z26679c10)"] {animation-delay:10s;}
	#z26679 path {fill:#ccc;}
]]>
</style>
<g transform="scale(1,-1) translate(0,-900)">
	<path id="z26679d1" d="M327 535Q408 565 409 565Q416 572 412 581Q405 591 375 597Q350 601 329 591L286 573Q177 537 106 525Q72 516 98 502Q144 481 193 498Q230 508 271 519L327 535Z"/>
	<path id="z26679d2" d="M325 450Q325 490 327 535L329 591Q330 684 349 746Q358 761 355 774Q348 784 294 817Q272 833 251 819Q247 815 252 799Q285 750 285 701Q285 641 286 573L282 419Q278 337 277 250Q273 172 251 101Q239 58 265 2Q271 -16 279 -19Q285 -26 292 -17Q299 -13 310 7Q320 32 319 62Q318 104 324 418L325 450Z"/>
	<path id="z26679d3" d="M271 519Q219 372 50 142Q44 132 56 131Q62 130 72 139Q201 254 282 419L284.69906542056077 522.9140186915888L271 519Z"/>
	<path id="z26679d4" d="M324 418Q400 342 408 339L411 339Q420 338 425 349Q429 361 425 385Q422 404 394 422Q334 450 325 450L324 418Z"/>
	<path id="z26679d5" d="M505 717Q526 695 548 670Q560 657 574 657Q584 657 589 669Q593 682 588 710Q581 737 504 761Q491 765 484 763Q480 759 480 748Q481 738 505 717Z"/>
	<path id="z26679d6" d="M724 787Q700 742 650 673Q646 666 651 659Q658 658 666 663Q754 742 798 773Q814 780 810 790Q803 805 782 822Q761 838 739 838Q724 837 727 817Q731 804 724 787Z"/>
	<path id="z26679d7" d="M637 553Q797 592 803 597Q812 604 807 613Q800 623 772 630Q745 636 656 604Q539 577 496 572Q462 565 487 550Q526 529 583 541L637 553Z"/>
	<path id="z26679d8" d="M660 404Q690 413 772 423Q782 422 790 435Q791 445 769 455Q736 473 664 450Q663 450 661 449L607 435Q550 426 491 415Q464 411 486 395Q514 374 556 382Q578 388 607 393L660 404Z"/>
	<path id="z26679d9" d="M657 258Q750 273 907 273Q928 274 932 283Q938 296 920 309Q860 351 799 331Q741 319 658 302L606 293Q507 277 396 259Q374 256 391 239Q422 212 473 224Q533 242 605 251L657 258Z"/>
	<path id="z26679d10" d="M606 -31Q612 -56 618 -65Q624 -72 631 -70Q649 -58 652 -3Q656 45 657 258L658 302Q658 348 660 404L661 449Q664 483 672 511Q675 529 661 538Q648 548 637 553L583 541Q605 490 607 435L607 393Q607 347 606 293L605 251Q599 37 606 -31Z"/>
	<defs>
		<clipPath id="z26679c1"><use xlink:href="#z26679d1"/></clipPath>
		<clipPath id="z26679c2"><use xlink:href="#z26679d2"/></clipPath>
		<clipPath id="z26679c3"><use xlink:href="#z26679d3"/></clipPath>
		<clipPath id="z26679c4"><use xlink:href="#z26679d4"/></clipPath>
		<clipPath id="z26679c5"><use xlink:href="#z26679d5"/></clipPath>
		<clipPath id="z26679c6"><use xlink:href="#z26679d6"/></clipPath>
		<clipPath id="z26679c7"><use xlink:href="#z26679d7"/></clipPath>
		<clipPath id="z26679c8"><use xlink:href="#z26679d8"/></clipPath>
		<clipPath id="z26679c9"><use xlink:href="#z26679d9"/></clipPath>
		<clipPath id="z26679c10"><use xlink:href="#z26679d10"/></clipPath>
	</defs>
	<path pathLength="2999" clip-path="url(#z26679c1)" d="M95 513L407 583"/>
	<path pathLength="2999" clip-path="url(#z26679c2)" d="M255 815L316 763L285 -16"/>
	<path pathLength="2999" clip-path="url(#z26679c3)" d="M278 514L220 355L56 138"/>
	<path pathLength="2999" clip-path="url(#z26679c4)" d="M331 439L418 346"/>
	<path pathLength="2999" clip-path="url(#z26679c5)" d="M489 754L548 714L575 663"/>
	<path pathLength="2999" clip-path="url(#z26679c6)" d="M736 830L765 782L653 668"/>
	<path pathLength="2999" clip-path="url(#z26679c7)" d="M488 560L805 607"/>
	<path pathLength="2999" clip-path="url(#z26679c8)" d="M486 405L784 437"/>
	<path pathLength="2999" clip-path="url(#z26679c9)" d="M395 249L803 302L927 296"/>
	<path pathLength="2999" clip-path="url(#z26679c10)" d="M589 539L636 506L627 -63"/>
</g>
</svg>