<!--
AnimCJK 2016-2018 Copyright Francois Mizessyn - https://github.com/parsimonhi/animCJK
Derived from:
    MakeMeAHanzi project - https://github.com/skishore/makemeahanzi
    Arphic PL KaitiM GB - https://apps.ubuntu.com/cat/applications/precise/fonts-arphic-gkai00mp/
    Arphic PL UKai - https://apps.ubuntu.com/cat/applications/fonts-arphic-ukai/
You can redistribute and/or modify this file under the terms of the Arphic Public License
as published by Arphic Technology Co., Ltd.
You should have received a copy of this license (the directory "APL") along with this file;
if not, see http://ftp.gnu.org/non-gnu/chinese-fonts-truetype/LICENSE.
-->
<svg id="z26681" class="acjk" version="1.1" viewBox="0 0 1024 1024" xmlns="http://www.w3.org/2000/svg" xmlns:xlink="http://www.w3.org/1999/xlink">
<style>
<![CDATA[
@keyframes z26681k {
	from {
		stroke:#ccc;
		stroke-dashoffset:3334;
	}
	1% {
		stroke:#c00;
		stroke-dashoffset:3334;
	}
	75% {
		stroke:#c00;
		stroke-dashoffset:0;
	}
	to {
		stroke:#000;
	}
}
#z26681 path[clip-path] {
	animation:z26681k 1s linear both;
	stroke-dasharray:3334;
	stroke-width:128;
	stroke-linecap:round;
	fill:none;
}
#z26681 path[clip-path="url(#z26681c1)"] {animation-delay:1s;}
#z26681 path[clip-path="url(#z26681c2)"] {animation-delay:2s;}
#z26681 path[clip-path="url(#z26681c3)"] {animation-delay:3s;}
#z26681 path[clip-path="url(#z26681c4)"] {animation-delay:4s;}
#z26681 path[clip-path="url(#z26681c5)"] {animation-delay:5s;}
#z26681 path[clip-path="url(#z26681c6)"] {animation-delay:6s;}
#z26681 path[clip-path="url(#z26681c7)"] {animation-delay:7s;}
#z26681 path[clip-path="url(#z26681c8)"] {animation-delay:8s;}
#z26681 path[clip-path="url(#z26681c9)"] {animation-delay:9s;}
#z26681 path[clip-path="url(#z26681c10)"] {animation-delay:10s;}
#z26681 path {fill:#ccc;}
]]>
</style>
<path id="z26681d1" d="M329 351Q437 317 440 315Q449 308 444 299Q437 289 408 283Q375 277 330 300C300 311 300 311 285 316Q189 344 119 356Q85 363 110 378Q158 399 205 383Q236 374 271 366C310 356 310 356 329 351Z"/>
<path id="z26681d2" d="M327 476Q327 418 329 351C330 317 330 317 330 300Q331 207 350 144Q360 129 356 115Q349 105 294 71Q270 53 249 69Q245 75 250 90Q284 139 284 189Q284 249 285 316C283 407 283 407 282 453Q275 696 273 710Q266 755 253 799Q241 839 267 902Q274 920 282 923Q288 930 296 921Q303 917 314 896Q324 871 323 839Q322 799 326 508C327 487 327 487 327 476Z"/>
<path id="z26681d3" d="M271 366Q217 502 62 695Q58 705 68 706Q74 707 83 698Q204 599 283 453C325 383 297 287 271 365C271 366 271 366 271 366Z"/>
<path id="z26681d4" d="M326 508Q335 511 393 551Q406 560 418 557Q427 556 429 544Q430 531 420 508Q413 492 384 484Q356 478 327 476C316 476 316 504 326 508Z"/>
<path id="z26681d5" d="M672 441Q679 456 692 455Q705 452 714 436Q729 414 750 306Q765 252 802 220Q821 204 803 187Q784 171 732 145Q716 136 655 155Q601 167 510 195C498 200 523 230 535 225Q575 207 673 187Q689 183 697 187Q710 194 704 232Q683 367 669 413C666 422 668 433 672 441Z"/>
<path id="z26681d6" d="M528 355Q534 355 640 337Q662 333 654 320Q642 305 616 303Q582 300 527 328C519 331 519 357 528 355Z"/>
<path id="z26681d7" d="M530 472Q530 471 531 471Q610 452 672 441C681 439 678 415 669 413Q668 412 665 412Q641 411 530 447C522 450 523 476 530 472Z"/>
<path id="z26681d8" d="M530 479Q530 475 530 472C530 455 530 455 530 447Q529 398 528 355C527 337 527 337 527 328Q526 276 534 235Q535 229 535 225C535 212 520 203 510 195Q494 183 480 177Q461 170 452 176Q442 183 451 199Q509 313 474 728Q470 777 429 828Q417 844 424 867Q434 895 448 907Q461 914 474 898Q490 870 642 759Q663 747 668 738Q672 728 662 728Q653 728 539 777Q521 786 522 769Q529 627 530 505C530 488 530 488 530 479Z"/>
<path id="z26681d9" d="M668 591Q669 591 670 591Q688 581 791 515Q810 499 833 490Q855 480 844 463Q831 447 806 431Q784 418 771 420Q758 421 762 434Q765 462 715 519Q661 577 659 584C657 587 664 592 668 591Z"/>
<path id="z26681d10" d="M659 584Q613 544 561 495Q548 479 530 479C521 479 523 501 530 505Q555 520 574 545Q787 786 823 797Q892 797 972 774Q988 770 993 762Q997 755 986 752Q812 703 733 642Q702 620 668 591C662 586 662 586 659 584Z"/>
<defs>
	<clipPath id="z26681c1"><use xlink:href="#z26681d1"></use></clipPath>
	<clipPath id="z26681c2"><use xlink:href="#z26681d2"></use></clipPath>
	<clipPath id="z26681c3"><use xlink:href="#z26681d3"></use></clipPath>
	<clipPath id="z26681c4"><use xlink:href="#z26681d4"></use></clipPath>
	<clipPath id="z26681c5"><use xlink:href="#z26681d5"></use></clipPath>
	<clipPath id="z26681c6"><use xlink:href="#z26681d6"></use></clipPath>
	<clipPath id="z26681c7"><use xlink:href="#z26681d7"></use></clipPath>
	<clipPath id="z26681c8"><use xlink:href="#z26681d8"></use></clipPath>
	<clipPath id="z26681c9"><use xlink:href="#z26681d9"></use></clipPath>
	<clipPath id="z26681c10"><use xlink:href="#z26681d10"></use></clipPath>
</defs>
<path pathLength="3333" clip-path="url(#z26681c1)" d="M111 368L442 305"/>
<path pathLength="3333" clip-path="url(#z26681c2)" d="M253 72L318 143L290 921"/>
<path pathLength="3333" clip-path="url(#z26681c3)" d="M278 372L212 526L66 699"/>
<path pathLength="3333" clip-path="url(#z26681c4)" d="M333 483L419 550"/>
<path pathLength="3333" clip-path="url(#z26681c5)" d="M519 199L701 165L757 205L685 451"/>
<path pathLength="3333" clip-path="url(#z26681c6)" d="M535 347L648 323"/>
<path pathLength="3333" clip-path="url(#z26681c7)" d="M537 462L667 431"/>
<path pathLength="3333" clip-path="url(#z26681c8)" d="M454 181L501 232L507 383L499 727L467 833L485 862L663 734"/>
<path pathLength="3333" clip-path="url(#z26681c9)" d="M770 426L793 483L666 584"/>
<path pathLength="3333" clip-path="url(#z26681c10)" d="M536 485L817 740L988 763"/>
</svg>