<!--
AnimCJK 2016-2017 Copyright Francois Mizessyn, http://gooo.free.fr/animCJK/
Derived from:
    MakeMeAHanzi project - https://github.com/skishore/makemeahanzi
    Arphic PL KaitiM GB - https://apps.ubuntu.com/cat/applications/precise/fonts-arphic-gkai00mp/
    Arphic PL UKai - https://apps.ubuntu.com/cat/applications/fonts-arphic-ukai/
You can redistribute and/or modify this file under the terms of the Arphic Public License
as published by Arphic Technology Co., Ltd.
You should have received a copy of this license (the directory "APL") along with this file;
if not, see http://ftp.gnu.org/non-gnu/chinese-fonts-truetype/LICENSE.
-->
<svg id="z26797" class="acjk" version="1.1" viewBox="0 0 1024 1024" xmlns="http://www.w3.org/2000/svg" xmlns:xlink="http://www.w3.org/1999/xlink">
<style>
<![CDATA[
	@keyframes z26797k {
		from {
			stroke:#c00;
			stroke-dashoffset:3000;
		}
		75% {
			stroke:#c00;
			stroke-dashoffset:0;
		}
		to {
			stroke:#000;
		}
	}
	#z26797 path[clip-path] {
		animation:z26797k 1s linear both;
		stroke-dasharray:3000;
		stroke-width:128;
		stroke-linecap:round;
		fill:none;
	}
	#z26797 path[clip-path="url(#z26797c1)"] {animation-delay:1s;}
	#z26797 path[clip-path="url(#z26797c2)"] {animation-delay:2s;}
	#z26797 path[clip-path="url(#z26797c3)"] {animation-delay:3s;}
	#z26797 path[clip-path="url(#z26797c4)"] {animation-delay:4s;}
	#z26797 path[clip-path="url(#z26797c5)"] {animation-delay:5s;}
	#z26797 path[clip-path="url(#z26797c6)"] {animation-delay:6s;}
	#z26797 path[clip-path="url(#z26797c7)"] {animation-delay:7s;}
	#z26797 path[clip-path="url(#z26797c8)"] {animation-delay:8s;}
	#z26797 path[clip-path="url(#z26797c9)"] {animation-delay:9s;}
	#z26797 path[clip-path="url(#z26797c10)"] {animation-delay:10s;}
	#z26797 path[clip-path="url(#z26797c11)"] {animation-delay:11s;}
	#z26797 path {fill:#ccc;}
]]>
</style>
<g transform="scale(1,-1) translate(0,-900)">
	<path id="z26797d1" d="M292 480Q317 489 346 495Q383 505 388 511Q397 520 392 528Q385 540 354 546Q323 550 293 536L252 520Q159 493 96 483Q59 474 86 459Q131 435 190 454Q209 461 234 465L292 480Z"/>
	<path id="z26797d2" d="M289 384Q290 430 292 480L293 536Q294 555 295 574Q296 671 317 738Q326 753 323 766Q316 776 262 809Q240 827 219 811Q215 807 220 791Q253 743 253 653Q253 587 252 520L247 386Q243 316 243 238Q237 160 216 89Q203 47 229 -10Q235 -28 243 -31Q249 -37 256 -29Q263 -25 274 -5Q284 20 283 50Q283 89 289 357L289 384Z"/>
	<path id="z26797d3" d="M234 465Q209 402 175 344Q135 280 43 164Q37 155 48 154Q54 153 62 161Q176 254 247 386L250 469L234 465Z"/>
	<path id="z26797d4" d="M289 357Q340 303 358 301Q371 300 376 317Q377 329 368 347Q359 362 338 368Q305 381 291 384Q290 385 289 384L289 357Z"/>
	<path id="z26797d5" d="M740 620Q635 611 530 576Q509 572 520 587Q620 725 663 753Q673 762 679 769Q683 782 664 798Q630 825 603 827Q590 828 582 822Q579 815 588 806Q613 766 470 584Q425 553 431 522Q431 518 433 512Q440 491 453 491Q459 492 473 502Q542 551 697 587Q736 596 754 597L740 620Z"/>
	<path id="z26797d6" d="M754 597Q784 549 797 546Q806 543 813 553Q820 563 821 591Q822 615 794 642Q731 694 712 695Q708 692 705 681Q705 672 740 620L754 597Z"/>
	<path id="z26797d7" d="M470 435Q460 417 405 344Q398 331 412 333Q451 358 472 376Q518 415 538 424Q554 433 546 447Q534 460 513 470Q494 480 484 477Q474 476 477 465Q481 450 470 435Z"/>
	<path id="z26797d8" d="M702 471Q745 440 792 401Q805 391 819 391Q829 392 833 404Q837 417 828 445Q821 470 780 489Q689 523 676 515Q672 511 673 499Q677 489 702 471Z"/>
	<path id="z26797d9" d="M585 343Q597 361 597 363Q596 372 585 382Q555 409 529 404Q522 403 523 391Q536 324 422 195Q419 194 418 190Q385 156 305 86Q298 82 307 79Q388 94 511 239L525 258Q543 285 566 316L585 343Z"/>
	<path id="z26797d10" d="M611 141Q548 57 404 15Q391 11 402 3Q408 -1 450 1Q502 5 564 41Q607 66 641 105L667 139Q700 193 731 270Q744 295 763 311Q782 324 771 338Q759 350 731 363Q710 372 684 360Q662 354 633 349Q614 345 585 343L566 316Q593 310 625 315Q658 325 663 325Q687 318 676 293Q660 223 631 172L611 141Z"/>
	<path id="z26797d11" d="M641 105Q690 47 781 -28Q809 -49 851 -40Q906 -30 946 -23Q959 -20 970 -14Q977 -7 965 1Q950 8 833 40Q757 61 667 139L631 172Q601 200 570 234Q552 253 525 258L511 239Q541 224 611 141L641 105Z"/>
	<defs>
		<clipPath id="z26797c1"><use xlink:href="#z26797d1"/></clipPath>
		<clipPath id="z26797c2"><use xlink:href="#z26797d2"/></clipPath>
		<clipPath id="z26797c3"><use xlink:href="#z26797d3"/></clipPath>
		<clipPath id="z26797c4"><use xlink:href="#z26797d4"/></clipPath>
		<clipPath id="z26797c5"><use xlink:href="#z26797d5"/></clipPath>
		<clipPath id="z26797c6"><use xlink:href="#z26797d6"/></clipPath>
		<clipPath id="z26797c7"><use xlink:href="#z26797d7"/></clipPath>
		<clipPath id="z26797c8"><use xlink:href="#z26797d8"/></clipPath>
		<clipPath id="z26797c9"><use xlink:href="#z26797d9"/></clipPath>
		<clipPath id="z26797c10"><use xlink:href="#z26797d10"/></clipPath>
		<clipPath id="z26797c11"><use xlink:href="#z26797d11"/></clipPath>
	</defs>
	<path pathLength="2999" clip-path="url(#z26797c1)" d="M83 470L389 526"/>
	<path pathLength="2999" clip-path="url(#z26797c2)" d="M223 810L284 749L251 -28"/>
	<path pathLength="2999" clip-path="url(#z26797c3)" d="M245 461L188 327L47 160"/>
	<path pathLength="2999" clip-path="url(#z26797c4)" d="M294 374L365 307"/>
	<path pathLength="2999" clip-path="url(#z26797c5)" d="M588 819L634 772L494 584L483 532L746 604"/>
	<path pathLength="2999" clip-path="url(#z26797c6)" d="M714 688L807 553"/>
	<path pathLength="2999" clip-path="url(#z26797c7)" d="M484 469L507 432L408 341"/>
	<path pathLength="2999" clip-path="url(#z26797c8)" d="M680 507L791 444L822 398"/>
	<path pathLength="2999" clip-path="url(#z26797c9)" d="M531 399L559 358L505 267L424 171L310 86"/>
	<path pathLength="2999" clip-path="url(#z26797c10)" d="M577 320L683 342L725 325L651 159L540 51L403 9"/>
	<path pathLength="2999" clip-path="url(#z26797c11)" d="M520 240L803 6L966 -9"/>
</g>
</svg>