<!--
AnimCJK 2016-2019 Copyright Francois Mizessyn - https://github.com/parsimonhi/animCJK
Derived from:
    MakeMeAHanzi project - https://github.com/skishore/makemeahanzi
    Arphic PL KaitiM GB font
    Arphic PL UKai font
You can redistribute and/or modify this file under the terms of the Arphic Public License
as published by Arphic Technology Co., Ltd.
You should have received a copy of this license along with this file.
If not, see http://ftp.gnu.org/non-gnu/chinese-fonts-truetype/LICENSE.
-->
<svg id="z26816" class="acjk" version="1.1" viewBox="0 0 1024 1024" xmlns="http://www.w3.org/2000/svg" xmlns:xlink="http://www.w3.org/1999/xlink">
<style>
<![CDATA[
@keyframes zk {
	to {
		stroke-dashoffset:0;
	}
}
svg.acjk path[clip-path] {
	--t:0.8s;
	animation:zk var(--t) linear forwards var(--d);
	stroke-dasharray:3337;
	stroke-dashoffset:3339;
	stroke-width:128;
	stroke-linecap:round;
	fill:none;
	stroke:#000;
}
svg.acjk path[id] {fill:#ccc;}
]]>
</style>
<path id="z26816d1" d="M332 377Q351 370 376 365Q412 355 417 349Q426 340 420 332Q413 320 382 315Q357 311 334 320C307 331 307 331 293 336Q187 369 131 377Q94 386 122 401Q158 420 232 403Q250 397 272 394C312 383 312 383 332 377Z"/>
<path id="z26816d2" d="M327 513Q328 449 332 377C333 339 333 339 334 320Q337 229 356 166Q366 151 363 138Q356 129 302 94Q280 78 259 92Q255 96 260 112Q294 164 293 214Q293 272 293 336C289 436 289 436 287 486Q275 735 275 737Q266 789 252 839Q239 881 265 938Q271 956 279 959Q285 965 292 957Q319 941 320 878Q319 838 327 544C327 523 327 523 327 513Z"/>
<path id="z26816d3" d="M272 394Q223 538 61 763Q57 773 68 773Q74 774 83 765Q216 638 288 486C334 409 300 308 272 393C272 394 272 394 272 394Z"/>
<path id="z26816d4" d="M327 544Q381 598 399 599Q411 600 416 584Q417 572 408 555Q389 525 327 513C317 511 320 537 327 544Z"/>
<path id="z26816d5" d="M635 237Q651 209 666 192Q675 180 669 167Q665 154 634 133Q606 117 586 118Q567 121 577 143Q592 170 583 194Q558 275 513 352Q471 425 413 508Q403 520 401 526Q398 538 413 534Q470 519 609 286Q615 274 622 263C631 246 631 246 635 237Z"/>
<path id="z26816d6" d="M622 263Q694 369 788 483Q806 502 835 502Q934 499 965 494Q975 493 976 487Q977 483 964 475Q820 417 752 353Q697 301 635 237C628 230 616 255 622 263Z"/>
<path id="z26816d7" d="M519 484Q485 491 510 506Q555 527 605 512Q653 500 702 489Q724 483 728 479Q737 472 732 463Q725 453 696 447Q666 443 638 455Q613 465 585 472Q555 479 519 484Z"/>
<path id="z26816d8" d="M456 671Q478 698 502 730Q512 743 526 745Q535 746 541 735Q548 723 544 696Q543 677 516 658Q452 622 440 625Q436 628 435 639Q436 649 456 671Z"/>
<path id="z26816d9" d="M547 598Q595 674 614 680Q626 683 635 667Q638 657 633 636Q626 617 604 604Q571 580 556 574Q547 571 545 582Q542 589 547 598Z"/>
<path id="z26816d10" d="M669 801Q690 767 737 667Q750 639 773 603Q788 590 778 579Q768 561 736 543Q720 533 703 540Q693 544 700 557Q715 608 642 782Q638 795 635 807C633 818 662 810 669 801Z"/>
<path id="z26816d11" d="M635 807Q629 806 624 807Q527 817 414 829Q392 830 407 849Q422 864 440 870Q462 876 479 872Q617 839 840 848Q856 848 872 850Q893 850 898 841Q904 829 887 814Q826 766 767 786Q725 792 669 801C646 805 646 805 635 807Z"/>
<defs>
	<clipPath id="z26816c1"><use xlink:href="#z26816d1"/></clipPath>
	<clipPath id="z26816c2"><use xlink:href="#z26816d2"/></clipPath>
	<clipPath id="z26816c3"><use xlink:href="#z26816d3"/></clipPath>
	<clipPath id="z26816c4"><use xlink:href="#z26816d4"/></clipPath>
	<clipPath id="z26816c5"><use xlink:href="#z26816d5"/></clipPath>
	<clipPath id="z26816c6"><use xlink:href="#z26816d6"/></clipPath>
	<clipPath id="z26816c7"><use xlink:href="#z26816d7"/></clipPath>
	<clipPath id="z26816c8"><use xlink:href="#z26816d8"/></clipPath>
	<clipPath id="z26816c9"><use xlink:href="#z26816d9"/></clipPath>
	<clipPath id="z26816c10"><use xlink:href="#z26816d10"/></clipPath>
	<clipPath id="z26816c11"><use xlink:href="#z26816d11"/></clipPath>
</defs>
<path style="--d:1s;" pathLength="3333" clip-path="url(#z26816c1)" d="M117 388L418 342"/>
<path style="--d:2s;" pathLength="3333" clip-path="url(#z26816c2)" d="M263 96L326 159L284 955"/>
<path style="--d:3s;" pathLength="3333" clip-path="url(#z26816c3)" d="M283 397L223 556L67 766"/>
<path style="--d:4s;" pathLength="3333" clip-path="url(#z26816c4)" d="M333 525L412 586"/>
<path style="--d:5s;" pathLength="3333" clip-path="url(#z26816c5)" d="M582 127L626 188L519 387L406 526"/>
<path style="--d:6s;" pathLength="3333" clip-path="url(#z26816c6)" d="M638 251L819 453L968 486"/>
<path style="--d:7s;" pathLength="3333" clip-path="url(#z26816c7)" d="M508 493L730 468"/>
<path style="--d:8s;" pathLength="3333" clip-path="url(#z26816c8)" d="M442 632L533 739"/>
<path style="--d:9s;" pathLength="3333" clip-path="url(#z26816c9)" d="M553 584L621 675"/>
<path style="--d:10s;" pathLength="3333" clip-path="url(#z26816c10)" d="M702 544L742 587L643 800"/>
<path style="--d:11s;" pathLength="3333" clip-path="url(#z26816c11)" d="M408 838L808 813L894 839"/>
</svg>