<!--
AnimCJK 2016-2019 Copyright Francois Mizessyn - https://github.com/parsimonhi/animCJK
Derived from:
    MakeMeAHanzi project - https://github.com/skishore/makemeahanzi
    Arphic PL KaitiM GB font
    Arphic PL UKai font
You can redistribute and/or modify this file under the terms of the Arphic Public License
as published by Arphic Technology Co., Ltd.
You should have received a copy of this license along with this file.
If not, see http://ftp.gnu.org/non-gnu/chinese-fonts-truetype/LICENSE.
-->
<svg id="z26827" class="acjk" version="1.1" viewBox="0 0 1024 1024" xmlns="http://www.w3.org/2000/svg" xmlns:xlink="http://www.w3.org/1999/xlink">
<style>
<![CDATA[
@keyframes zk {
	to {
		stroke-dashoffset:0;
	}
}
svg.acjk path[clip-path] {
	--t:0.8s;
	animation:zk var(--t) linear forwards var(--d);
	stroke-dasharray:3337;
	stroke-dashoffset:3339;
	stroke-width:128;
	stroke-linecap:round;
	fill:none;
	stroke:#000;
}
svg.acjk path[id] {fill:#ccc;}
]]>
</style>
<path id="z26827d1" d="M302 374C363 357 393 344 396 343C401 338 403 332 400 327C395 320 383 314 364 311C344 308 323 312 303 321C274 332 274 332 259 338C210 356 156 364 103 375C79 379 76 389 94 398C131 417 159 412 236 392C280 380 280 380 302 374Z"/>
<path id="z26827d2" d="M299 480C300 446 301 410 302 374C303 339 303 339 303 321C304 257 308 199 326 149C332 130 330 116 315 105C304 97 288 87 270 75C253 63 238 62 225 73C222 75 220 83 226 93C245 127 259 158 259 192C259 240 260 289 259 338C256 427 256 427 254 471C251 527 250 585 248 646C245 698 236 747 222 795C214 821 218 854 235 897C239 909 245 915 250 919C255 922 257 922 264 917C268 913 275 906 282 892C289 875 292 856 292 836C291 809 290 698 298 505C299 488 299 488 299 480Z"/>
<path id="z26827d3" d="M236 392C220 436 201 479 180 520C153 569 106 637 42 727C37 733 39 737 48 738C61 738 104 695 173 609C202 571 229 525 255 471C295 405 265 320 236 392Z"/>
<path id="z26827d4" d="M298 505C320 521 350 542 369 557C376 563 385 565 394 564C398 563 402 559 405 552C407 543 404 531 398 516C391 500 351 485 299 480C291 479 291 500 298 505Z"/>
<path id="z26827d5" d="M762 301C794 294 825 288 856 285C862 284 870 282 874 273C876 266 867 260 853 253C829 241 801 240 766 254C765 254 764 254 764 255C732 265 732 265 716 270C666 285 615 299 564 307C533 312 533 312 518 314C489 318 460 323 431 329C413 332 410 339 425 349C447 363 466 368 482 365C494 362 506 359 519 356C548 349 548 349 562 345C606 333 657 321 715 310C746 304 746 304 762 301Z"/>
<path id="z26827d6" d="M564 307C566 259 570 228 573 215C576 199 571 186 562 177C547 163 529 152 510 145C499 140 491 139 485 144C478 148 478 156 483 167C505 222 517 272 518 314C519 342 519 342 519 356C520 416 518 515 517 651C517 665 559 659 559 645C559 645 559 590 559 563C559 546 559 546 559 537C559 507 560 479 560 454C560 436 560 436 560 427C560 400 560 373 562 345C563 320 563 320 564 307Z"/>
<path id="z26827d7" d="M747 613C753 504 757 400 762 301C763 270 763 270 764 255C766 209 775 137 789 94C791 85 786 75 771 66C746 51 725 44 708 41C695 38 687 40 682 46C676 52 676 59 683 70C703 102 711 130 714 152C716 176 716 243 716 270C715 297 715 297 715 310C712 408 710 512 703 621C703 636 747 628 747 613Z"/>
<path id="z26827d8" d="M560 454C600 446 635 439 665 434C679 431 682 426 677 419C670 410 659 404 644 404C626 402 598 411 560 427C552 430 551 456 560 454Z"/>
<path id="z26827d9" d="M559 563C577 561 638 551 668 547C682 544 687 539 681 531C674 522 663 515 647 514C619 511 589 519 559 537C552 541 551 565 559 563Z"/>
<path id="z26827d10" d="M517 651C467 658 415 665 363 674C350 676 348 682 359 693C367 701 377 708 390 711C403 714 416 714 426 711C564 668 736 647 941 647C942 647 943 647 944 647C956 647 965 644 968 638C971 631 967 622 957 614C921 586 882 583 840 594C812 600 781 606 747 613C718 618 718 618 703 621C683 624 587 640 559 645C531 649 531 649 517 651Z"/>
<path id="z26827d11" d="M523 740C518 778 471 842 380 928C367 939 369 940 387 939C426 934 484 896 544 827C561 806 587 778 595 770C601 762 603 755 602 749C599 740 589 734 573 730C554 724 540 722 532 725C527 726 524 730 523 740Z"/>
<path id="z26827d12" d="M710 768C748 802 792 844 839 897C850 910 860 920 872 923C877 924 883 919 889 913C897 903 895 884 888 853C883 836 878 821 865 811C851 799 828 786 796 771C759 753 730 743 711 736C703 733 699 734 699 743C698 753 702 761 710 768Z"/>
<defs>
	<clipPath id="z26827c1"><use xlink:href="#z26827d1"/></clipPath>
	<clipPath id="z26827c2"><use xlink:href="#z26827d2"/></clipPath>
	<clipPath id="z26827c3"><use xlink:href="#z26827d3"/></clipPath>
	<clipPath id="z26827c4"><use xlink:href="#z26827d4"/></clipPath>
	<clipPath id="z26827c5"><use xlink:href="#z26827d5"/></clipPath>
	<clipPath id="z26827c6"><use xlink:href="#z26827d6"/></clipPath>
	<clipPath id="z26827c7"><use xlink:href="#z26827d7"/></clipPath>
	<clipPath id="z26827c8"><use xlink:href="#z26827d8"/></clipPath>
	<clipPath id="z26827c9"><use xlink:href="#z26827d9"/></clipPath>
	<clipPath id="z26827c10"><use xlink:href="#z26827d10"/></clipPath>
	<clipPath id="z26827c11"><use xlink:href="#z26827d11"/></clipPath>
	<clipPath id="z26827c12"><use xlink:href="#z26827d12"/></clipPath>
</defs>
<path style="--d:1s;" pathLength="3333" clip-path="url(#z26827c1)" d="M89 385L398 332"/>
<path style="--d:2s;" pathLength="3333" clip-path="url(#z26827c2)" d="M229 77L293 153L254 917"/>
<path style="--d:3s;" pathLength="3333" clip-path="url(#z26827c3)" d="M253 394L190 546L48 732"/>
<path style="--d:4s;" pathLength="3333" clip-path="url(#z26827c4)" d="M305 489L398 554"/>
<path style="--d:5s;" pathLength="3333" clip-path="url(#z26827c5)" d="M423 337L869 273"/>
<path style="--d:6s;" pathLength="3333" clip-path="url(#z26827c6)" d="M488 147L539 219L534 648"/>
<path style="--d:7s;" pathLength="3333" clip-path="url(#z26827c7)" d="M686 52L748 103L719 617"/>
<path style="--d:8s;" pathLength="3333" clip-path="url(#z26827c8)" d="M568 445L672 422"/>
<path style="--d:9s;" pathLength="3333" clip-path="url(#z26827c9)" d="M566 555L678 536"/>
<path style="--d:10s;" pathLength="3333" clip-path="url(#z26827c10)" d="M362 686L854 619L964 629"/>
<path style="--d:11s;" pathLength="3333" clip-path="url(#z26827c11)" d="M 537,735 559,764 481,858 381,933"/>
<path style="--d:12s;" pathLength="3333" clip-path="url(#z26827c12)" d="M706 742L836 836L876 918"/>
</svg>