<!--
AnimCJK 2016-2018 Copyright Francois Mizessyn, https://github.com/parsimonhi/animCJK
Derived from:
    MakeMeAHanzi project - https://github.com/skishore/makemeahanzi
    Arphic PL KaitiM GB - https://apps.ubuntu.com/cat/applications/precise/fonts-arphic-gkai00mp/
    Arphic PL UKai - https://apps.ubuntu.com/cat/applications/fonts-arphic-ukai/
You can redistribute and/or modify this file under the terms of the Arphic Public License
as published by Arphic Technology Co., Ltd.
You should have received a copy of this license (the directory "APL") along with this file;
if not, see http://ftp.gnu.org/non-gnu/chinese-fonts-truetype/LICENSE.
-->
<svg id="z26862" class="acjk" version="1.1" viewBox="0 0 1024 1024" xmlns="http://www.w3.org/2000/svg" xmlns:xlink="http://www.w3.org/1999/xlink">
<style>
<![CDATA[
@keyframes z26862k {
	from {
		stroke:#c00;
		stroke-dashoffset:3334;
	}
	75% {
		stroke:#c00;
		stroke-dashoffset:0;
	}
	to {
		stroke:#000;
	}
}
#z26862 path[clip-path] {
	animation:z26862k 1s linear both;
	stroke-dasharray:3334;
	stroke-width:128;
	stroke-linecap:round;
	fill:none;
}
#z26862 path[clip-path="url(#z26862c1)"] {animation-delay:1s;}
#z26862 path[clip-path="url(#z26862c2)"] {animation-delay:2s;}
#z26862 path[clip-path="url(#z26862c3)"] {animation-delay:3s;}
#z26862 path[clip-path="url(#z26862c4)"] {animation-delay:4s;}
#z26862 path[clip-path="url(#z26862c5)"] {animation-delay:5s;}
#z26862 path[clip-path="url(#z26862c6)"] {animation-delay:6s;}
#z26862 path[clip-path="url(#z26862c7)"] {animation-delay:7s;}
#z26862 path[clip-path="url(#z26862c8)"] {animation-delay:8s;}
#z26862 path[clip-path="url(#z26862c9)"] {animation-delay:9s;}
#z26862 path[clip-path="url(#z26862c10)"] {animation-delay:10s;}
#z26862 path[clip-path="url(#z26862c11)"] {animation-delay:11s;}
#z26862 path[clip-path="url(#z26862c12)"] {animation-delay:12s;}
#z26862 path {fill:#ccc;}
]]>
</style>
<path id="z26862d1" d="M527 210C559 207 593 198 629 193C669 187 692 180 698 175C702 170 704 165 702 162C698 154 688 149 674 145C657 140 641 141 625 147C590 157 555 168 521 175L472 185C419 195 363 198 304 203C285 204 281 212 295 221C314 233 348 235 396 230C410 228 426 227 445 224C445 224 462 220 471 219C486 216 500 213 516 211C519 210 527 210 527 210 Z"/>
<path id="z26862d2" d="M521 175C526 134 534 109 542 98C546 91 545 81 537 75C503 45 476 36 457 43C448 45 443 51 449 62C462 84 473 125 472 185C472 185 471 207 471 219C470 237 471 275 471 275C471 337 467 381 462 406C457 426 465 441 477 457C484 466 492 471 501 465C511 457 513 420 512 358C511 326 511 286 515 229C515 229 515 217 516 211C517 198 521 175 521 175 Z"/>
<path id="z26862d3" d="M445 224C419 282 352 347 246 417C235 423 234 428 244 430C250 431 266 426 291 418C317 409 343 397 367 380C387 364 410 343 435 318C449 303 463 288 473 274L472 218 Z"/>
<path id="z26862d4" d="M515 229C563 279 612 327 666 373C679 385 699 391 722 391C762 390 804 383 847 372C857 369 863 367 864 364C864 360 860 356 852 354C740 324 658 295 609 265C596 257 569 240 527 210L515 210 Z"/>
<path id="z26862d5" d="M342 593C370 587 401 580 435 577C443 576 448 573 449 569C449 561 444 554 435 550C416 541 386 545 344 555L297 565C213 582 159 589 136 591C129 591 124 594 122 599C119 604 122 611 132 618C155 634 179 638 201 630C229 619 255 610 278 606C278 606 290 603 297 602C312 598 342 593 342 593 Z"/>
<path id="z26862d6" d="M340 651C340 628 341 609 342 593L344 555C345 521 345 501 345 500C340 485 325 475 302 467C294 464 289 463 282 466C277 467 277 473 280 483C290 515 295 544 297 565C299 592 297 589 297 602C297 624 297 670 297 670C297 752 286 809 279 840C269 876 276 906 298 935C304 942 311 944 318 936C328 920 333 877 335 807C335 768 337 735 339 683 Z"/>
<path id="z26862d7" d="M278 606C245 688 175 773 70 863C62 869 62 872 68 875C72 876 78 876 86 873C152 843 226 774 282 692C287 683 292 676 298 669L298 601 Z"/>
<path id="z26862d8" d="M338 684C356 696 376 708 399 724C404 728 412 730 420 730C424 729 428 726 430 720C431 713 430 702 424 690C414 671 387 659 339 651 Z"/>
<path id="z26862d9" d="M671 560C693 556 749 545 840 534C846 533 853 532 857 524C859 517 849 512 838 504C818 491 777 493 711 513C700 516 690 518 673 522L622 532C604 535 587 538 571 540C546 543 520 546 492 550C475 552 472 559 486 569C505 583 528 587 554 583C572 579 591 576 613 571C613 571 620 568 624 568C639 564 671 560 671 560 Z"/>
<path id="z26862d10" d="M670 591C670 581 670 570 671 560L673 522C673 505 675 489 681 477C685 467 689 458 686 454C677 442 656 431 635 419C620 411 610 410 599 418C596 420 594 426 600 435C610 453 619 471 621 491C622 504 621 518 622 532C622 532 623 556 624 568C624 593 625 645 625 645C626 743 620 809 612 844C604 876 613 902 625 926C629 934 633 940 637 943C641 946 643 945 648 942C652 938 658 932 663 921C668 908 670 893 670 875C669 858 670 776 670 628C670 628 670 603 670 591 Z"/>
<path id="z26862d11" d="M613 571C580 653 514 738 414 827C407 833 406 837 412 839C424 843 451 829 495 798C533 770 574 721 620 653C621 650 623 648 626 644L625 567 Z"/>
<path id="z26862d12" d="M669 629C711 689 760 752 815 817C826 829 842 833 860 833C922 829 962 827 982 822C988 820 991 817 992 815C992 812 989 807 980 804C899 770 835 737 790 701C751 669 711 633 669 592 Z"/>
<defs>
	<clipPath id="z26862c1"><use xlink:href="#z26862d1"/></clipPath>
	<clipPath id="z26862c2"><use xlink:href="#z26862d2"/></clipPath>
	<clipPath id="z26862c3"><use xlink:href="#z26862d3"/></clipPath>
	<clipPath id="z26862c4"><use xlink:href="#z26862d4"/></clipPath>
	<clipPath id="z26862c5"><use xlink:href="#z26862d5"/></clipPath>
	<clipPath id="z26862c6"><use xlink:href="#z26862d6"/></clipPath>
	<clipPath id="z26862c7"><use xlink:href="#z26862d7"/></clipPath>
	<clipPath id="z26862c8"><use xlink:href="#z26862d8"/></clipPath>
	<clipPath id="z26862c9"><use xlink:href="#z26862d9"/></clipPath>
	<clipPath id="z26862c10"><use xlink:href="#z26862d10"/></clipPath>
	<clipPath id="z26862c11"><use xlink:href="#z26862d11"/></clipPath>
	<clipPath id="z26862c12"><use xlink:href="#z26862d12"/></clipPath>
</defs>
<path pathLength="3333" clip-path="url(#z26862c1)" d="M293 211L385 214L694 160"/>
<path pathLength="3333" clip-path="url(#z26862c2)" d="M455 49L504 100L493 463"/>
<path pathLength="3333" clip-path="url(#z26862c3)" d="M463 227L386 336L245 425"/>
<path pathLength="3333" clip-path="url(#z26862c4)" d="M522 218L692 345L853 361"/>
<path pathLength="3333" clip-path="url(#z26862c5)" d="M128 603L441 565"/>
<path pathLength="3333" clip-path="url(#z26862c6)" d="M287 472L320 543L304 935"/>
<path pathLength="3333" clip-path="url(#z26862c7)" d="M287 612L213 749L73 870"/>
<path pathLength="3333" clip-path="url(#z26862c8)" d="M345 659L422 721"/>
<path pathLength="3333" clip-path="url(#z26862c9)" d="M485 559L850 515"/>
<path pathLength="3333" clip-path="url(#z26862c10)" d="M604 423L652 468L641 937"/>
<path pathLength="3333" clip-path="url(#z26862c11)" d="M617 578L604 638L545 721L417 833"/>
<path pathLength="3333" clip-path="url(#z26862c12)" d="M672 602L847 789L985 812"/>
</svg>