<!--
AnimCJK 2016-2019 Copyright Francois Mizessyn - https://github.com/parsimonhi/animCJK
Derived from:
    MakeMeAHanzi project - https://github.com/skishore/makemeahanzi
    Arphic PL KaitiM GB font
    Arphic PL UKai font
You can redistribute and/or modify this file under the terms of the Arphic Public License
as published by Arphic Technology Co., Ltd.
You should have received a copy of this license along with this file.
If not, see http://ftp.gnu.org/non-gnu/chinese-fonts-truetype/LICENSE.
-->
<svg id="z26881" class="acjk" version="1.1" viewBox="0 0 1024 1024" xmlns="http://www.w3.org/2000/svg" xmlns:xlink="http://www.w3.org/1999/xlink">
<style>
<![CDATA[
@keyframes zk {
	to {
		stroke-dashoffset:0;
	}
}
svg.acjk path[clip-path] {
	--t:0.8s;
	animation:zk var(--t) linear forwards var(--d);
	stroke-dasharray:3337;
	stroke-dashoffset:3339;
	stroke-width:128;
	stroke-linecap:round;
	fill:none;
	stroke:#000;
}
svg.acjk path[id] {fill:#ccc;}
]]>
</style>
<path id="z26881d1" d="M325 360Q347 353 373 348Q410 338 416 333Q425 324 420 316Q413 304 382 298Q354 292 327 303C294 315 294 315 277 321Q169 348 121 354Q84 361 111 377Q153 398 221 383Q240 377 265 374C305 365 305 365 325 360Z"/>
<path id="z26881d2" d="M322 445Q323 405 325 360C326 322 326 322 327 303Q328 225 346 172Q355 157 352 144Q345 134 290 99Q266 81 245 97Q241 101 246 118Q276 163 276 207Q276 261 277 321C274 423 274 423 273 474Q264 675 261 697Q255 728 246 759Q233 801 260 861Q266 880 274 883Q280 890 288 881Q315 865 316 799Q315 760 322 473C322 454 322 454 322 445Z"/>
<path id="z26881d3" d="M265 374Q217 500 66 694Q60 704 72 705Q79 706 88 698Q199 607 273 474C320 396 299 289 265 374Z"/>
<path id="z26881d4" d="M322 473Q394 545 406 549Q406 548 408 549Q417 549 421 539Q425 529 421 505Q415 475 333 447Q327 446 322 445C313 443 315 466 322 473Z"/>
<path id="z26881d5" d="M580 102Q617 144 652 159Q667 160 675 147Q681 135 677 119Q670 97 652 84Q591 51 565 64Q559 65 562 77Q563 89 580 102Z"/>
<path id="z26881d6" d="M445 224Q417 227 438 244Q448 254 464 262Q477 271 499 264Q626 237 833 213Q843 214 852 202Q853 190 831 180Q798 156 698 186Q679 189 661 194Q631 198 445 224Z"/>
<path id="z26881d7" d="M519 321Q509 317 482 312Q472 309 469 314Q463 320 471 334Q492 371 506 435Q510 454 521 466Q537 485 542 471Q543 467 544 460C546 450 544 439 542 429Q533 368 532 348C532 338 528 325 519 321Z"/>
<path id="z26881d8" d="M741 403Q760 355 786 341Q801 325 787 308Q772 295 725 273Q710 266 628 296Q549 315 519 321C509 323 522 350 532 348Q542 347 554 343Q692 313 699 320Q706 326 704 339Q698 370 691 397C688 414 735 419 741 403Z"/>
<path id="z26881d9" d="M544 460Q551 461 564 459Q622 446 749 432Q759 431 760 423Q760 416 741 403C727 394 707 394 691 397Q690 396 688 397Q606 419 542 429C532 431 534 460 544 460Z"/>
<path id="z26881d10" d="M644 631Q738 565 773 560Q792 556 787 539Q784 523 723 485Q704 473 628 500Q529 528 479 526Q457 525 464 545Q471 557 490 568Q518 586 551 567Q666 519 680 526Q690 533 687 545Q659 579 626 621C622 626 639 635 644 631Z"/>
<path id="z26881d11" d="M630 702Q648 787 620 847Q607 872 574 867Q537 860 504 854Q492 851 498 862Q504 869 524 881Q570 912 587 939Q597 955 613 953Q626 952 651 925Q709 856 681 699Q680 698 680 696C671 669 671 669 666 655Q657 640 644 631C632 624 632 624 626 621Q620 618 613 616Q594 609 583 616Q571 623 585 635Q601 647 613 663C622 674 625 688 629 701C630 702 630 702 630 702Z"/>
<path id="z26881d12" d="M680 696Q753 690 910 689Q931 688 935 680Q941 668 924 654Q866 611 807 630Q749 640 666 655C631 660 631 660 613 663Q505 676 384 694Q363 695 379 713Q412 743 469 727Q568 702 629 701C663 698 663 698 680 696Z"/>
<defs>
	<clipPath id="z26881c1"><use xlink:href="#z26881d1"/></clipPath>
	<clipPath id="z26881c2"><use xlink:href="#z26881d2"/></clipPath>
	<clipPath id="z26881c3"><use xlink:href="#z26881d3"/></clipPath>
	<clipPath id="z26881c4"><use xlink:href="#z26881d4"/></clipPath>
	<clipPath id="z26881c5"><use xlink:href="#z26881d5"/></clipPath>
	<clipPath id="z26881c6"><use xlink:href="#z26881d6"/></clipPath>
	<clipPath id="z26881c7"><use xlink:href="#z26881d7"/></clipPath>
	<clipPath id="z26881c8"><use xlink:href="#z26881d8"/></clipPath>
	<clipPath id="z26881c9"><use xlink:href="#z26881d9"/></clipPath>
	<clipPath id="z26881c10"><use xlink:href="#z26881d10"/></clipPath>
	<clipPath id="z26881c11"><use xlink:href="#z26881d11"/></clipPath>
	<clipPath id="z26881c12"><use xlink:href="#z26881d12"/></clipPath>
</defs>
<path style="--d:1s;" pathLength="3333" clip-path="url(#z26881c1)" d="M108 365L415 320"/>
<path style="--d:2s;" pathLength="3333" clip-path="url(#z26881c2)" d="M249 99L312 164L278 881"/>
<path style="--d:3s;" pathLength="3333" clip-path="url(#z26881c3)" d="M270 380L224 509L73 698"/>
<path style="--d:4s;" pathLength="3333" clip-path="url(#z26881c4)" d="M327 453L413 541"/>
<path style="--d:5s;" pathLength="3333" clip-path="url(#z26881c5)" d="M566 68L672 146"/>
<path style="--d:6s;" pathLength="3333" clip-path="url(#z26881c6)" d="M436 232L481 243L760 196L845 201"/>
<path style="--d:7s;" pathLength="3333" clip-path="url(#z26881c7)" d="M476 321L507 353L533 470"/>
<path style="--d:8s;" pathLength="3333" clip-path="url(#z26881c8)" d="M526 324L712 296L748 329L711 399"/>
<path style="--d:9s;" pathLength="3333" clip-path="url(#z26881c9)" d="M551 452L752 419"/>
<path style="--d:10s;" pathLength="3333" clip-path="url(#z26881c10)" d="M467 537L519 550L703 508L735 550L634 623"/>
<path style="--d:11s;" pathLength="3333" clip-path="url(#z26881c11)" d="M588 624L634 652L653 695L654 845L605 909L505 861"/>
<path style="--d:12s;" pathLength="3333" clip-path="url(#z26881c12)" d="M380 702L829 657L932 673"/>
</svg>