<!--
AnimCJK 2016-2018 Copyright Francois Mizessyn, https://github.com/parsimonhi/animCJK
Derived from:
    MakeMeAHanzi project - https://github.com/skishore/makemeahanzi
    Arphic PL KaitiM GB - https://apps.ubuntu.com/cat/applications/precise/fonts-arphic-gkai00mp/
    Arphic PL UKai - https://apps.ubuntu.com/cat/applications/fonts-arphic-ukai/
You can redistribute and/or modify this file under the terms of the Arphic Public License
as published by Arphic Technology Co., Ltd.
You should have received a copy of this license (the directory "APL") along with this file;
if not, see http://ftp.gnu.org/non-gnu/chinese-fonts-truetype/LICENSE.
-->
<svg id="z26885" class="acjk" version="1.1" viewBox="0 0 1024 1024" xmlns="http://www.w3.org/2000/svg" xmlns:xlink="http://www.w3.org/1999/xlink">
<style>
<![CDATA[
@keyframes z26885k {
	from {
		stroke:#c00;
		stroke-dashoffset:3334;
	}
	75% {
		stroke:#c00;
		stroke-dashoffset:0;
	}
	to {
		stroke:#000;
	}
}
#z26885 path[clip-path] {
	animation:z26885k 1s linear both;
	stroke-dasharray:3334;
	stroke-width:128;
	stroke-linecap:round;
	fill:none;
}
#z26885 path[clip-path="url(#z26885c1)"] {animation-delay:1s;}
#z26885 path[clip-path="url(#z26885c2)"] {animation-delay:2s;}
#z26885 path[clip-path="url(#z26885c3)"] {animation-delay:3s;}
#z26885 path[clip-path="url(#z26885c4)"] {animation-delay:4s;}
#z26885 path[clip-path="url(#z26885c5)"] {animation-delay:5s;}
#z26885 path[clip-path="url(#z26885c6)"] {animation-delay:6s;}
#z26885 path[clip-path="url(#z26885c7)"] {animation-delay:7s;}
#z26885 path[clip-path="url(#z26885c8)"] {animation-delay:8s;}
#z26885 path[clip-path="url(#z26885c9)"] {animation-delay:9s;}
#z26885 path[clip-path="url(#z26885c10)"] {animation-delay:10s;}
#z26885 path[clip-path="url(#z26885c11)"] {animation-delay:11s;}
#z26885 path[clip-path="url(#z26885c12)"] {animation-delay:12s;}
#z26885 path {fill:#ccc;}
]]>
</style>
<path id="z26885d1" d="M311 359Q335 352 364 345Q403 335 408 329Q417 320 412 312Q403 300 374 294Q343 290 313 303L269 320Q178 347 108 357Q71 366 98 381Q143 405 202 386Q224 379 253 374L311 359 Z"/>
<path id="z26885d2" d="M309 423Q309 392 311 359L313 303Q314 212 333 150Q342 135 339 122Q332 112 278 79Q256 63 235 77Q231 81 236 97Q267 145 268 193Q268 251 269 320L265 465Q261 546 261 634Q255 710 235 779Q223 822 249 878Q255 896 263 899Q269 906 276 897Q283 893 294 873Q304 848 303 818Q302 775 308 456L309 423 Z"/>
<path id="z26885d3" d="M253 374Q202 515 46 723Q40 733 52 734Q74 734 183 600Q226 545 266 465L268 370L253 373 Z"/>
<path id="z26885d4" d="M308 456Q312 457 358 506Q368 516 381 517Q388 517 393 507Q397 497 392 473Q385 446 313 423Q310 422 309 423L308 456 Z"/>
<path id="z26885d5" d="M635 222Q795 191 802 186Q811 179 806 171Q800 161 774 152Q746 146 719 156Q682 168 642 178L587 190Q535 199 477 203Q443 207 467 223Q503 247 578 232L580 232L635 222 Z"/>
<path id="z26885d6" d="M623 256Q630 240 635 222L642 178Q651 115 659 99Q666 83 651 75Q635 63 621 58Q599 48 582 54Q569 58 576 72Q598 106 587 190L580 232Q553 322 458 398Q448 407 458 409Q539 400 602 305Q609 286 616 275L623 256 Z"/>
<path id="z26885d7" d="M616 275Q617 276 621 280Q667 311 725 359Q740 372 753 375Q760 375 764 366Q773 354 758 320Q739 280 623 256L616 275 Z"/>
<path id="z26885d8" d="M749 440Q813 433 900 433Q954 436 963 425Q967 415 953 401Q905 365 869 374Q725 405 423 447Q404 450 418 465Q431 478 448 483Q467 487 483 483Q598 450 700 444L749 440 Z"/>
<path id="z26885d9" d="M461 553Q451 549 427 543Q417 540 413 545Q407 549 414 565Q435 608 447 681Q448 703 462 717Q477 738 482 723Q485 716 486 704L484 672Q475 599 475 578L461 553 Z"/>
<path id="z26885d10" d="M609 661Q625 595 645 576Q664 554 644 541Q628 531 603 515Q587 506 570 516Q536 535 461 553L475 578Q490 572 551 560Q570 556 576 564Q582 568 576 596Q572 621 565 652L609 661 Z"/>
<path id="z26885d11" d="M486 704Q492 704 500 703Q537 696 617 689Q627 688 628 679Q628 672 609 661L565 652Q561 652 556 654Q516 664 484 672L486 704 Z"/>
<path id="z26885d12" d="M669 872Q647 865 617 856Q604 852 605 860Q605 867 615 877Q678 931 718 974Q730 983 743 967Q785 915 780 836Q774 596 779 501Q786 474 780 464Q773 454 749 440L700 444Q701 450 707 458Q717 483 718 523Q719 616 718 829Q717 862 707 873Q697 880 669 872 Z"/>
<defs>
	<clipPath id="z26885c1"><use xlink:href="#z26885d1"/></clipPath>
	<clipPath id="z26885c2"><use xlink:href="#z26885d2"/></clipPath>
	<clipPath id="z26885c3"><use xlink:href="#z26885d3"/></clipPath>
	<clipPath id="z26885c4"><use xlink:href="#z26885d4"/></clipPath>
	<clipPath id="z26885c5"><use xlink:href="#z26885d5"/></clipPath>
	<clipPath id="z26885c6"><use xlink:href="#z26885d6"/></clipPath>
	<clipPath id="z26885c7"><use xlink:href="#z26885d7"/></clipPath>
	<clipPath id="z26885c8"><use xlink:href="#z26885d8"/></clipPath>
	<clipPath id="z26885c9"><use xlink:href="#z26885d9"/></clipPath>
	<clipPath id="z26885c10"><use xlink:href="#z26885d10"/></clipPath>
	<clipPath id="z26885c11"><use xlink:href="#z26885d11"/></clipPath>
	<clipPath id="z26885c12"><use xlink:href="#z26885d12"/></clipPath>
</defs>
<path pathLength="3333" clip-path="url(#z26885c1)" d="M97 371L408 319"/>
<path pathLength="3333" clip-path="url(#z26885c2)" d="M239 81L301 140L265 895"/>
<path pathLength="3333" clip-path="url(#z26885c3)" d="M262 377L198 539L51 727"/>
<path pathLength="3333" clip-path="url(#z26885c4)" d="M314 430L387 508"/>
<path pathLength="3333" clip-path="url(#z26885c5)" d="M464 211L542 217L803 173"/>
<path pathLength="3333" clip-path="url(#z26885c6)" d="M581 61L625 100L603 241L552 334L461 404"/>
<path pathLength="3333" clip-path="url(#z26885c7)" d="M620 270L706 309L755 367"/>
<path pathLength="3333" clip-path="url(#z26885c8)" d="M423 460L867 403L959 412"/>
<path pathLength="3333" clip-path="url(#z26885c9)" d="M418 550L451 589L471 723"/>
<path pathLength="3333" clip-path="url(#z26885c10)" d="M468 555L579 536L606 551L616 570L578 653"/>
<path pathLength="3333" clip-path="url(#z26885c11)" d="M492 696L621 678"/>
<path pathLength="3333" clip-path="url(#z26885c12)" d="M708 447L747 473L746 870L717 925L614 862"/>
</svg>