<!--
AnimCJK 2016-2017 Copyright Francois Mizessyn, http://gooo.free.fr/animCJK/
Derived from:
    MakeMeAHanzi project - https://github.com/skishore/makemeahanzi
    Arphic PL KaitiM GB - https://apps.ubuntu.com/cat/applications/precise/fonts-arphic-gkai00mp/
    Arphic PL UKai - https://apps.ubuntu.com/cat/applications/fonts-arphic-ukai/
You can redistribute and/or modify this file under the terms of the Arphic Public License
as published by Arphic Technology Co., Ltd.
You should have received a copy of this license (the directory "APL") along with this file;
if not, see http://ftp.gnu.org/non-gnu/chinese-fonts-truetype/LICENSE.
-->
<svg id="z26928" class="acjk" version="1.1" viewBox="0 0 1024 1024" xmlns="http://www.w3.org/2000/svg" xmlns:xlink="http://www.w3.org/1999/xlink">
<style>
<![CDATA[
@keyframes z26928k {
	from {
		stroke:#c00;
		stroke-dashoffset:3000;
	}
	75% {
		stroke:#c00;
		stroke-dashoffset:0;
	}
	to {
		stroke:#000;
	}
}
#z26928 path[clip-path] {
	animation:z26928k 1s linear both;
	stroke-dasharray:3000;
	stroke-width:128;
	stroke-linecap:round;
	fill:none;
}
#z26928 path[clip-path="url(#z26928c1)"] {animation-delay:1s;}
#z26928 path[clip-path="url(#z26928c2)"] {animation-delay:2s;}
#z26928 path[clip-path="url(#z26928c3)"] {animation-delay:3s;}
#z26928 path[clip-path="url(#z26928c4)"] {animation-delay:4s;}
#z26928 path[clip-path="url(#z26928c5)"] {animation-delay:5s;}
#z26928 path[clip-path="url(#z26928c6)"] {animation-delay:6s;}
#z26928 path[clip-path="url(#z26928c7)"] {animation-delay:7s;}
#z26928 path[clip-path="url(#z26928c8)"] {animation-delay:8s;}
#z26928 path[clip-path="url(#z26928c9)"] {animation-delay:9s;}
#z26928 path[clip-path="url(#z26928c10)"] {animation-delay:10s;}
#z26928 path[clip-path="url(#z26928c11)"] {animation-delay:11s;}
#z26928 path[clip-path="url(#z26928c12)"] {animation-delay:12s;}
#z26928 path {fill:#ccc;}
]]>
</style>
<path id="z26928d1" d="M294 354Q301 350 311 349Q342 340 348 335Q357 328 352 319Q345 309 316 302Q306 301 295 302L254 313Q157 344 83 356Q49 363 74 378Q122 399 169 384Q200 375 236 368L294 354 Z"/>
<path id="z26928d2" d="M292 438Q292 398 294 354L295 302Q295 200 317 126Q332 101 302 81Q287 69 262 55Q240 39 219 53Q215 57 221 73Q254 122 254 172Q254 238 254 313L250 451Q246 536 246 629Q240 707 219 779Q207 815 232 878Q239 896 246 899Q253 906 260 897Q267 893 278 873Q288 848 287 818Q286 776 291 467L292 438 Z"/>
<path id="z26928d3" d="M236 368Q191 500 46 704Q42 714 52 714Q71 714 173 585Q213 530 250 451L252 365L236 368 Z"/>
<path id="z26928d4" d="M291 467Q339 527 359 530Q371 531 377 516Q378 504 372 486Q356 456 292 438L291 467 Z"/>
<path id="z26928d5" d="M564 245Q586 238 611 232Q651 220 657 214Q664 207 660 199Q653 189 625 183Q601 180 503 218Q437 239 358 253Q325 260 350 275Q360 279 376 284L411 285Q420 284 535 253L564 245 Z"/>
<path id="z26928d6" d="M376 284Q373 287 389 315Q396 337 394 655L432 639Q433 584 435 536L435 501Q436 461 438 423L439 389Q439 359 442 332Q448 316 440 307Q425 294 411 285L376 284 Z"/>
<path id="z26928d7" d="M586 573Q586 261 585 259Q584 258 583 257Q576 251 564 245L535 253Q550 278 544 592L543 629Q543 734 533 820Q530 859 553 886Q563 899 572 884Q593 842 587 766Q587 742 586 604L586 573 Z"/>
<path id="z26928d8" d="M438 423Q441 422 443 422Q480 410 510 401Q529 392 519 383Q506 373 481 374Q463 375 439 389L438 423 Z"/>
<path id="z26928d9" d="M435 536Q434 535 436 535Q479 522 512 513Q533 506 523 495Q510 483 486 484Q465 485 435 501L435 536 Z"/>
<path id="z26928d10" d="M586 604Q607 591 622 577Q634 568 633 560Q627 556 616 559Q600 565 586 573L544 592Q489 614 432 639L394 655Q328 673 320 675Q308 678 308 688Q307 701 317 707Q339 720 373 734Q383 735 393 727Q438 685 543 629L586 604 Z"/>
<path id="z26928d11" d="M732 285Q733 282 800 255Q804 252 816 257Q826 263 820 285Q792 384 783 402Q777 417 778 424Q778 436 798 441Q909 522 885 597Q882 601 878 607Q865 616 840 612Q803 605 770 601Q763 600 763 607Q764 614 779 623Q851 659 867 686Q874 699 886 700Q896 701 910 690Q944 647 945 596Q946 518 839 431Q800 418 851 338Q875 287 904 269Q931 250 905 234Q868 207 845 199Q829 195 814 205Q789 227 711 259L732 285 Z"/>
<path id="z26928d12" d="M678 917Q684 941 690 950Q696 956 703 954Q715 945 722 889Q729 805 726 723Q720 645 721 373Q725 330 732 285L711 259Q686 243 675 242Q663 238 648 247Q641 254 647 264Q651 274 659 284Q672 308 673 343Q677 491 673 724Q672 868 678 917 Z"/>
<defs>
	<clipPath id="z26928c1"><use xlink:href="#z26928d1"/></clipPath>
	<clipPath id="z26928c2"><use xlink:href="#z26928d2"/></clipPath>
	<clipPath id="z26928c3"><use xlink:href="#z26928d3"/></clipPath>
	<clipPath id="z26928c4"><use xlink:href="#z26928d4"/></clipPath>
	<clipPath id="z26928c5"><use xlink:href="#z26928d5"/></clipPath>
	<clipPath id="z26928c6"><use xlink:href="#z26928d6"/></clipPath>
	<clipPath id="z26928c7"><use xlink:href="#z26928d7"/></clipPath>
	<clipPath id="z26928c8"><use xlink:href="#z26928d8"/></clipPath>
	<clipPath id="z26928c9"><use xlink:href="#z26928d9"/></clipPath>
	<clipPath id="z26928c10"><use xlink:href="#z26928d10"/></clipPath>
	<clipPath id="z26928c11"><use xlink:href="#z26928d11"/></clipPath>
	<clipPath id="z26928c12"><use xlink:href="#z26928d12"/></clipPath>
</defs>
<path pathLength="2999" clip-path="url(#z26928c1)" d="M74 367L350 324"/>
<path pathLength="2999" clip-path="url(#z26928c2)" d="M224 58L284 119L250 897"/>
<path pathLength="2999" clip-path="url(#z26928c3)" d="M246 372L195 510L53 706"/>
<path pathLength="2999" clip-path="url(#z26928c4)" d="M299 448L368 523"/>
<path pathLength="2999" clip-path="url(#z26928c5)" d="M350 265L653 200"/>
<path pathLength="2999" clip-path="url(#z26928c6)" d="M384 288L417 331L400 646"/>
<path pathLength="2999" clip-path="url(#z26928c7)" d="M541 255L565 325L562 886"/>
<path pathLength="2999" clip-path="url(#z26928c8)" d="M441 415L514 388"/>
<path pathLength="2999" clip-path="url(#z26928c9)" d="M440 526L520 502"/>
<path pathLength="2999" clip-path="url(#z26928c10)" d="M314 689L374 697L626 565"/>
<path pathLength="2999" clip-path="url(#z26928c11)" d="M721 261L822 227L867 255L801 419L876 489L916 573L883 654L768 609"/>
<path pathLength="2999" clip-path="url(#z26928c12)" d="M650 252L699 296L700 948"/>
</svg>