<!--
AnimCJK 2016-2019 Copyright Francois Mizessyn - https://github.com/parsimonhi/animCJK
Derived from:
    MakeMeAHanzi project - https://github.com/skishore/makemeahanzi
    Arphic PL KaitiM GB font
    Arphic PL UKai font
You can redistribute and/or modify this file under the terms of the Arphic Public License
as published by Arphic Technology Co., Ltd.
You should have received a copy of this license along with this file.
If not, see http://ftp.gnu.org/non-gnu/chinese-fonts-truetype/LICENSE.
-->
<svg id="z27008" class="acjk" version="1.1" viewBox="0 0 1024 1024" xmlns="http://www.w3.org/2000/svg" xmlns:xlink="http://www.w3.org/1999/xlink">
<style>
<![CDATA[
@keyframes zk {
	to {
		stroke-dashoffset:0;
	}
}
svg.acjk path[clip-path] {
	--t:0.8s;
	animation:zk var(--t) linear forwards var(--d);
	stroke-dasharray:3337;
	stroke-dashoffset:3339;
	stroke-width:128;
	stroke-linecap:round;
	fill:none;
	stroke:#000;
}
svg.acjk path[id] {fill:#ccc;}
]]>
</style>
<path id="z27008d1" d="M346 373Q371 366 398 361Q438 351 443 345Q453 336 447 328Q440 316 410 309Q379 305 348 317Q347 317 347 318C318 327 318 327 303 332Q222 354 137 366Q100 373 127 390Q173 414 227 398Q254 392 284 386C325 377 325 377 346 373Z"/>
<path id="z27008d2" d="M344 433Q344 403 346 373C347 336 347 336 347 318Q347 218 370 141Q383 114 359 97Q343 85 314 67Q290 49 269 65Q265 69 270 85Q303 134 303 184Q303 253 303 332C300 425 300 425 298 471Q294 553 293 641Q287 719 266 791Q254 830 279 893Q286 912 294 915Q300 922 308 913Q315 909 326 888Q336 863 336 832Q335 789 343 462C344 443 344 443 344 433Z"/>
<path id="z27008d3" d="M284 386Q224 527 62 730Q56 740 68 741Q75 742 84 734Q219 620 298 471C338 404 313 314 284 386Z"/>
<path id="z27008d4" d="M343 462Q347 466 356 472Q384 491 412 515Q424 525 437 524Q446 523 449 512Q452 499 443 475Q437 459 409 447Q381 438 350 433Q346 432 344 433C334 433 335 456 343 462Z"/>
<path id="z27008d5" d="M569 234Q556 228 529 222Q516 218 513 224Q506 230 514 246Q542 313 554 421Q555 454 572 476Q588 498 595 483Q602 467 601 437C598 414 598 414 597 402Q582 291 582 262C582 252 579 238 569 234Z"/>
<path id="z27008d6" d="M769 384Q788 284 815 254Q839 227 814 213Q795 201 766 183Q747 173 727 184Q673 218 569 234C559 236 572 264 582 262Q591 261 602 259Q654 246 697 236Q727 229 734 241Q743 248 735 288Q728 328 718 375C715 392 766 401 769 384Z"/>
<path id="z27008d7" d="M601 437Q613 438 627 436Q675 426 780 417Q790 416 792 406Q792 399 769 384C754 375 735 375 718 375Q714 374 710 376Q647 392 597 402C585 404 589 437 601 437Z"/>
<path id="z27008d8" d="M454 572Q444 565 415 559Q405 556 401 560Q395 566 402 580Q429 646 440 751Q441 782 458 805Q473 826 478 812Q485 794 483 764C480 743 480 743 479 732Q464 629 462 598C462 589 461 577 454 572Z"/>
<path id="z27008d9" d="M610 713Q622 622 645 592Q666 567 643 554Q624 544 598 529Q580 520 563 531Q541 546 513 555Q488 562 454 572C445 574 453 599 462 598Q469 597 481 594Q515 585 545 579Q566 575 570 582Q579 588 563 710C560 725 607 728 610 713Z"/>
<path id="z27008d10" d="M483 764Q493 764 508 762Q545 755 625 747Q635 746 637 737Q637 728 610 713C597 704 579 710 563 710Q562 709 559 710Q514 723 479 732C468 734 472 764 483 764Z"/>
<path id="z27008d11" d="M721 534Q709 528 685 522Q673 518 669 522Q662 528 669 545Q696 618 703 732Q704 766 721 791Q737 815 743 799Q750 781 750 750C749 727 749 727 748 716Q736 590 736 562C736 551 731 538 721 534Z"/>
<path id="z27008d12" d="M897 696Q913 590 941 557Q963 529 939 515Q918 505 889 487Q868 477 826 503Q769 524 721 534C711 536 726 564 736 562Q742 562 830 541Q852 537 858 545Q868 552 861 596Q854 642 844 697C841 714 894 713 897 696Z"/>
<path id="z27008d13" d="M750 750Q756 751 767 749Q813 740 915 734Q925 733 927 724Q928 717 898 696C897 696 897 696 897 696C882 687 861 694 844 697Q790 709 748 716C737 718 739 750 750 750Z"/>
<defs>
	<clipPath id="z27008c1"><use xlink:href="#z27008d1"/></clipPath>
	<clipPath id="z27008c2"><use xlink:href="#z27008d2"/></clipPath>
	<clipPath id="z27008c3"><use xlink:href="#z27008d3"/></clipPath>
	<clipPath id="z27008c4"><use xlink:href="#z27008d4"/></clipPath>
	<clipPath id="z27008c5"><use xlink:href="#z27008d5"/></clipPath>
	<clipPath id="z27008c6"><use xlink:href="#z27008d6"/></clipPath>
	<clipPath id="z27008c7"><use xlink:href="#z27008d7"/></clipPath>
	<clipPath id="z27008c8"><use xlink:href="#z27008d8"/></clipPath>
	<clipPath id="z27008c9"><use xlink:href="#z27008d9"/></clipPath>
	<clipPath id="z27008c10"><use xlink:href="#z27008d10"/></clipPath>
	<clipPath id="z27008c11"><use xlink:href="#z27008d11"/></clipPath>
	<clipPath id="z27008c12"><use xlink:href="#z27008d12"/></clipPath>
	<clipPath id="z27008c13"><use xlink:href="#z27008d13"/></clipPath>
</defs>
<path style="--d:1s;" pathLength="3333" clip-path="url(#z27008c1)" d="M125 378L444 332"/>
<path style="--d:2s;" pathLength="3333" clip-path="url(#z27008c2)" d="M272 67L336 142L296 913"/>
<path style="--d:3s;" pathLength="3333" clip-path="url(#z27008c3)" d="M293 392L212 565L67 734"/>
<path style="--d:4s;" pathLength="3333" clip-path="url(#z27008c4)" d="M350 442L443 513"/>
<path style="--d:5s;" pathLength="3333" clip-path="url(#z27008c5)" d="M518 228L554 274L585 481"/>
<path style="--d:6s;" pathLength="3333" clip-path="url(#z27008c6)" d="M577 235L735 207L777 231L744 379"/>
<path style="--d:7s;" pathLength="3333" clip-path="url(#z27008c7)" d="M603 411L785 404"/>
<path style="--d:8s;" pathLength="3333" clip-path="url(#z27008c8)" d="M406 565L436 599L468 811"/>
<path style="--d:9s;" pathLength="3333" clip-path="url(#z27008c9)" d="M462 579L573 551L604 568L581 710"/>
<path style="--d:10s;" pathLength="3333" clip-path="url(#z27008c10)" d="M490 757L561 732L632 736"/>
<path style="--d:11s;" pathLength="3333" clip-path="url(#z27008c11)" d="M674 531L709 575L735 800"/>
<path style="--d:12s;" pathLength="3333" clip-path="url(#z27008c12)" d="M729 535L852 514L907 544L857 695"/>
<path style="--d:13s;" pathLength="3333" clip-path="url(#z27008c13)" d="M757 742L920 719"/>
</svg>