<!--
AnimCJK 2016-2017 Copyright Francois Mizessyn, http://gooo.free.fr/animCJK/
Derived from:
    MakeMeAHanzi project - https://github.com/skishore/makemeahanzi
    Arphic PL KaitiM GB - https://apps.ubuntu.com/cat/applications/precise/fonts-arphic-gkai00mp/
    Arphic PL UKai - https://apps.ubuntu.com/cat/applications/fonts-arphic-ukai/
You can redistribute and/or modify this file under the terms of the Arphic Public License
as published by Arphic Technology Co., Ltd.
You should have received a copy of this license (the directory "APL") along with this file;
if not, see http://ftp.gnu.org/non-gnu/chinese-fonts-truetype/LICENSE.
-->
<svg id="z27028" class="acjk" version="1.1" viewBox="0 0 1024 1024" xmlns="http://www.w3.org/2000/svg" xmlns:xlink="http://www.w3.org/1999/xlink">
<style>
<![CDATA[
	@keyframes z27028k {
		from {
			stroke:#c00;
			stroke-dashoffset:3000;
		}
		75% {
			stroke:#c00;
			stroke-dashoffset:0;
		}
		to {
			stroke:#000;
		}
	}
	#z27028 path[clip-path] {
		animation:z27028k 1s linear both;
		stroke-dasharray:3000;
		stroke-width:128;
		stroke-linecap:round;
		fill:none;
	}
	#z27028 path[clip-path="url(#z27028c1)"] {animation-delay:1s;}
	#z27028 path[clip-path="url(#z27028c2)"] {animation-delay:2s;}
	#z27028 path[clip-path="url(#z27028c3)"] {animation-delay:3s;}
	#z27028 path[clip-path="url(#z27028c4)"] {animation-delay:4s;}
	#z27028 path[clip-path="url(#z27028c5)"] {animation-delay:5s;}
	#z27028 path[clip-path="url(#z27028c6)"] {animation-delay:6s;}
	#z27028 path[clip-path="url(#z27028c7)"] {animation-delay:7s;}
	#z27028 path[clip-path="url(#z27028c8)"] {animation-delay:8s;}
	#z27028 path[clip-path="url(#z27028c9)"] {animation-delay:9s;}
	#z27028 path[clip-path="url(#z27028c10)"] {animation-delay:10s;}
	#z27028 path[clip-path="url(#z27028c11)"] {animation-delay:11s;}
	#z27028 path[clip-path="url(#z27028c12)"] {animation-delay:12s;}
	#z27028 path {fill:#ccc;}
]]>
</style>
<g transform="scale(1,-1) translate(0,-900)">
	<path id="z27028d1" d="M274 527Q284 531 299 535Q330 545 334 550Q341 559 336 566Q329 576 301 579Q288 580 275 577L235 562Q154 531 85 515Q52 506 77 493Q117 475 167 493Q192 502 223 510L274 527Z"/>
	<path id="z27028d2" d="M272 450Q272 487 274 527L275 577Q275 700 296 769Q305 782 302 796Q295 805 243 837Q221 853 202 839Q198 835 203 820Q234 771 235 722Q236 650 236 569Q235 566 235 562L230 420Q221 231 221 222Q214 174 201 125Q189 86 214 29Q220 13 227 9Q233 3 240 10Q247 14 257 34Q267 58 266 87Q265 127 271 425L272 450Z"/>
	<path id="z27028d3" d="M223 510Q181 401 43 220Q37 210 48 210Q54 209 62 217Q168 307 230 420L233 513L223 510Z"/>
	<path id="z27028d4" d="M271 425Q314 365 332 363Q342 362 350 376Q351 386 345 404Q338 419 318 428Q288 447 274 450L272 450L271 425Z"/>
	<path id="z27028d5" d="M463 769Q485 750 510 726Q523 714 538 715Q548 716 553 728Q557 743 548 771Q538 798 457 815Q442 818 436 815Q432 811 433 799Q437 789 463 769Z"/>
	<path id="z27028d6" d="M513 411Q531 383 552 406Q565 421 576 479Q585 578 609 612Q621 628 609 642Q593 657 564 672Q551 678 536 672Q478 647 413 628L419 601Q422 604 486 627Q523 640 538 634Q547 630 543 602Q522 451 517 443L513 411Z"/>
	<path id="z27028d7" d="M416 499Q462 511 498 517Q519 523 510 533Q500 545 476 547Q433 547 416 530L416 499Z"/>
	<path id="z27028d8" d="M414 389Q414 390 418 390Q470 403 513 411L517 443Q516 444 514 444Q489 445 414 414L414 389Z"/>
	<path id="z27028d9" d="M527 319Q499 304 430 259Q421 255 418 257Q411 260 413 277Q413 338 414 389L414 414Q414 463 416 499L416 530Q416 585 419 601L413 628Q403 638 362 649Q347 650 342 646Q336 640 347 624Q374 588 379 464Q379 275 335 211Q331 207 327 201Q317 191 324 171Q331 146 345 134Q357 127 368 140Q408 194 533 304Q533 305 534 305L527 319Z"/>
	<path id="z27028d10" d="M534 305Q552 278 565 267Q575 263 584 270Q591 277 593 290Q593 315 532 364Q522 371 514 369Q510 370 509 361Q508 349 527 319L534 305Z"/>
	<path id="z27028d11" d="M711 618Q718 621 729 626Q795 656 808 650Q818 644 811 623Q757 482 757 477Q757 465 778 458Q883 386 869 308Q866 302 861 296Q848 289 826 297Q792 310 763 318Q756 321 755 313Q756 306 769 293Q829 245 839 218Q846 202 860 199Q873 198 891 208Q925 250 927 301Q928 380 821 468Q779 490 852 582Q873 618 901 635Q929 653 903 671Q864 701 841 710Q823 716 808 705Q790 689 701 650Q698 649 698 648L711 618Z"/>
	<path id="z27028d12" d="M646 -51Q652 -76 658 -85Q664 -92 671 -90Q689 -78 692 -23Q702 67 699 155Q695 231 700 522Q700 570 711 618L698 648Q668 669 654 670Q641 674 626 666Q617 659 624 648Q651 594 651 562Q652 403 644 156Q641 2 646 -51Z"/>
	<defs>
		<clipPath id="z27028c1"><use xlink:href="#z27028d1"/></clipPath>
		<clipPath id="z27028c2"><use xlink:href="#z27028d2"/></clipPath>
		<clipPath id="z27028c3"><use xlink:href="#z27028d3"/></clipPath>
		<clipPath id="z27028c4"><use xlink:href="#z27028d4"/></clipPath>
		<clipPath id="z27028c5"><use xlink:href="#z27028d5"/></clipPath>
		<clipPath id="z27028c6"><use xlink:href="#z27028d6"/></clipPath>
		<clipPath id="z27028c7"><use xlink:href="#z27028d7"/></clipPath>
		<clipPath id="z27028c8"><use xlink:href="#z27028d8"/></clipPath>
		<clipPath id="z27028c9"><use xlink:href="#z27028d9"/></clipPath>
		<clipPath id="z27028c10"><use xlink:href="#z27028d10"/></clipPath>
		<clipPath id="z27028c11"><use xlink:href="#z27028d11"/></clipPath>
		<clipPath id="z27028c12"><use xlink:href="#z27028d12"/></clipPath>
	</defs>
	<path pathLength="2999" clip-path="url(#z27028c1)" d="M75 504L333 560"/>
	<path pathLength="2999" clip-path="url(#z27028c2)" d="M206 836L267 774L228 13"/>
	<path pathLength="2999" clip-path="url(#z27028c3)" d="M228 504L184 386L50 216"/>
	<path pathLength="2999" clip-path="url(#z27028c4)" d="M278 439L337 370"/>
	<path pathLength="2999" clip-path="url(#z27028c5)" d="M440 809L547 722"/>
	<path pathLength="2999" clip-path="url(#z27028c6)" d="M424 611L541 654L578 629L532 400"/>
	<path pathLength="2999" clip-path="url(#z27028c7)" d="M420 508L506 529"/>
	<path pathLength="2999" clip-path="url(#z27028c8)" d="M422 399L511 434"/>
	<path pathLength="2999" clip-path="url(#z27028c9)" d="M347 642L392 592L367 195L389 186L528 309"/>
	<path pathLength="2999" clip-path="url(#z27028c10)" d="M518 359L579 271"/>
	<path pathLength="2999" clip-path="url(#z27028c11)" d="M705 647L821 681L864 646L783 481L882 374L891 279L846 248L760 312"/>
	<path pathLength="2999" clip-path="url(#z27028c12)" d="M630 657L677 609L666 -84"/>
</g>
</svg>