<!--
AnimCJK 2016-2018 Copyright Francois Mizessyn - https://github.com/parsimonhi/animCJK
Derived from:
    MakeMeAHanzi project - https://github.com/skishore/makemeahanzi
    Arphic PL KaitiM GB - https://apps.ubuntu.com/cat/applications/precise/fonts-arphic-gkai00mp/
    Arphic PL UKai - https://apps.ubuntu.com/cat/applications/fonts-arphic-ukai/
You can redistribute and/or modify this file under the terms of the Arphic Public License
as published by Arphic Technology Co., Ltd.
You should have received a copy of this license (the directory "APL") along with this file;
if not, see http://ftp.gnu.org/non-gnu/chinese-fonts-truetype/LICENSE.
-->
<svg id="z27103" class="acjk" version="1.1" viewBox="0 0 1024 1024" xmlns="http://www.w3.org/2000/svg" xmlns:xlink="http://www.w3.org/1999/xlink">
<style>
<![CDATA[
@keyframes z27103k {
	from {
		stroke:#c00;
		stroke-dashoffset:3334;
	}
	75% {
		stroke:#c00;
		stroke-dashoffset:0;
	}
	to {
		stroke:#000;
	}
}
#z27103 path[clip-path] {
	animation:z27103k 1s linear both;
	stroke-dasharray:3334;
	stroke-width:128;
	stroke-linecap:round;
	fill:none;
}
#z27103 path[clip-path="url(#z27103c1)"] {animation-delay:1s;}
#z27103 path[clip-path="url(#z27103c2)"] {animation-delay:2s;}
#z27103 path[clip-path="url(#z27103c3)"] {animation-delay:3s;}
#z27103 path[clip-path="url(#z27103c4)"] {animation-delay:4s;}
#z27103 path[clip-path="url(#z27103c5)"] {animation-delay:5s;}
#z27103 path[clip-path="url(#z27103c6)"] {animation-delay:6s;}
#z27103 path[clip-path="url(#z27103c7)"] {animation-delay:7s;}
#z27103 path[clip-path="url(#z27103c8)"] {animation-delay:8s;}
#z27103 path[clip-path="url(#z27103c9)"] {animation-delay:9s;}
#z27103 path[clip-path="url(#z27103c10)"] {animation-delay:10s;}
#z27103 path[clip-path="url(#z27103c11)"] {animation-delay:11s;}
#z27103 path[clip-path="url(#z27103c12)"] {animation-delay:12s;}
#z27103 path[clip-path="url(#z27103c13)"] {animation-delay:13s;}
#z27103 path[clip-path="url(#z27103c14)"] {animation-delay:14s;}
#z27103 path {fill:#ccc;}
]]>
</style>
<path id="z27103d1" d="M313 378Q325 374 339 370Q376 358 381 353Q390 344 384 336Q377 324 346 319Q330 318 315 320L270 336Q180 370 91 385Q54 394 82 409Q124 431 191 410Q218 401 249 395L313 378 Z"/>
<path id="z27103d2" d="M309 487Q310 435 313 378L315 320Q318 224 337 161Q347 145 344 132Q337 122 282 87Q258 69 237 84Q233 90 238 105Q269 154 270 203Q270 264 270 336L264 483Q252 708 251 712Q244 755 231 799Q219 841 244 901Q250 919 258 923Q264 930 272 921Q299 903 301 840Q300 800 308 518L309 487 Z"/>
<path id="z27103d3" d="M249 395Q200 530 46 738Q40 748 52 749Q58 750 68 741Q192 630 264 483L267 391L249 395 Z"/>
<path id="z27103d4" d="M308 518Q314 521 366 575Q376 585 389 585Q396 585 401 575Q405 565 400 541Q393 511 313 487Q310 486 309 487L308 518 Z"/>
<path id="z27103d5" d="M580 141Q608 163 639 192Q655 205 672 204Q684 203 689 188Q693 172 682 139Q675 118 641 105Q560 80 548 89Q542 93 545 107Q549 120 580 141 Z"/>
<path id="z27103d6" d="M456 270Q450 258 435 249Q432 245 426 249Q422 252 420 263Q424 296 397 356Q387 372 389 390Q392 409 401 422Q408 434 414 426Q426 423 441 377Q456 334 464 318Q470 308 470 298L456 270 Z"/>
<path id="z27103d7" d="M470 298Q486 307 545 293Q620 269 757 256Q772 255 780 256Q795 263 793 270Q793 273 762 336Q755 346 761 351Q767 355 782 346Q833 315 874 306Q908 297 907 289Q906 280 843 230Q821 212 734 229Q713 229 538 258Q501 265 464 268Q457 268 456 270L470 298 Z"/>
<path id="z27103d8" d="M529 443Q607 404 616 398Q649 376 678 364Q691 361 693 354Q694 345 683 338Q632 314 603 322Q599 326 599 335Q599 359 516 430L529 443 Z"/>
<path id="z27103d9" d="M531 478Q534 454 529 443L516 430Q497 417 475 410Q462 406 454 411Q447 417 454 431Q472 462 480 495Q487 528 501 655L538 650Q531 538 531 508L531 478 Z"/>
<path id="z27103d10" d="M694 485Q745 476 797 470Q809 469 809 462Q810 452 790 438Q754 420 708 438Q701 439 531 478L531 508L656 491L694 485 Z"/>
<path id="z27103d11" d="M691 630Q715 512 715 509L714 508Q704 495 694 485L656 491L657 492Q658 504 649 636L691 630 Z"/>
<path id="z27103d12" d="M501 655Q434 662 364 671Q345 672 359 689Q372 702 390 708Q409 712 425 709Q578 667 907 667Q926 667 931 658Q935 648 920 634Q866 592 801 610Q753 617 691 630L649 636Q636 636 623 639Q580 643 538 650L501 655 Z"/>
<path id="z27103d13" d="M491 738Q485 787 365 900Q344 915 371 911Q438 902 526 807Q551 782 562 771Q572 759 570 750Q566 737 541 730Q513 720 501 724Q494 725 491 738 Z"/>
<path id="z27103d14" d="M683 752Q732 804 790 878Q805 900 820 905Q829 906 837 897Q850 885 841 839Q829 779 687 721Q678 715 675 727Q674 740 683 752 Z"/>
<defs>
	<clipPath id="z27103c1"><use xlink:href="#z27103d1"/></clipPath>
	<clipPath id="z27103c2"><use xlink:href="#z27103d2"/></clipPath>
	<clipPath id="z27103c3"><use xlink:href="#z27103d3"/></clipPath>
	<clipPath id="z27103c4"><use xlink:href="#z27103d4"/></clipPath>
	<clipPath id="z27103c5"><use xlink:href="#z27103d5"/></clipPath>
	<clipPath id="z27103c6"><use xlink:href="#z27103d6"/></clipPath>
	<clipPath id="z27103c7"><use xlink:href="#z27103d7"/></clipPath>
	<clipPath id="z27103c8"><use xlink:href="#z27103d8"/></clipPath>
	<clipPath id="z27103c9"><use xlink:href="#z27103d9"/></clipPath>
	<clipPath id="z27103c10"><use xlink:href="#z27103d10"/></clipPath>
	<clipPath id="z27103c11"><use xlink:href="#z27103d11"/></clipPath>
	<clipPath id="z27103c12"><use xlink:href="#z27103d12"/></clipPath>
	<clipPath id="z27103c13"><use xlink:href="#z27103d13"/></clipPath>
	<clipPath id="z27103c14"><use xlink:href="#z27103d14"/></clipPath>
</defs>
<path pathLength="3333" clip-path="url(#z27103c1)" d="M76 395L382 343"/>
<path pathLength="3333" clip-path="url(#z27103c2)" d="M241 86L303 147L262 919"/>
<path pathLength="3333" clip-path="url(#z27103c3)" d="M263 397L199 551L51 742"/>
<path pathLength="3333" clip-path="url(#z27103c4)" d="M316 494L373 545L381 581"/>
<path pathLength="3333" clip-path="url(#z27103c5)" d="M552 96L645 148L676 199"/>
<path pathLength="3333" clip-path="url(#z27103c6)" d="M432 251L443 303L407 422"/>
<path pathLength="3333" clip-path="url(#z27103c7)" d="M464 272L788 238L851 283L767 343"/>
<path pathLength="3333" clip-path="url(#z27103c8)" d="M688 352L620 354L529 432"/>
<path pathLength="3333" clip-path="url(#z27103c9)" d="M457 415L501 458L526 650"/>
<path pathLength="3333" clip-path="url(#z27103c10)" d="M539 499L727 455L802 459"/>
<path pathLength="3333" clip-path="url(#z27103c11)" d="M663 494L685 525L665 633"/>
<path pathLength="3333" clip-path="url(#z27103c12)" d="M360 678L821 637L927 649"/>
<path pathLength="3333" clip-path="url(#z27103c13)" d="M563 749L512 767L451 846L367 907"/>
<path pathLength="3333" clip-path="url(#z27103c14)" d="M682 728L795 826L825 899"/>
</svg>