<!--
AnimCJK 2016-2025 Copyright FM-SH - https://github.com/parsimonhi/animCJK
Derived from:
    MakeMeAHanzi project - https://github.com/skishore/makemeahanzi
    Arphic PL KaitiM GB font
    Arphic PL UKai font
You can redistribute and/or modify this file under the terms of the Arphic Public License
as published by Arphic Technology Co., Ltd.
You should have received a copy of this license along with this file.
If not, see https://ftp.gnu.org/non-gnu/chinese-fonts-truetype/LICENSE.
-->
<svg id="z27159" class="acjk" viewBox="0 0 1024 1024" xmlns="http://www.w3.org/2000/svg">
<style>
<![CDATA[
@keyframes zk {
	to {
		stroke-dashoffset:0;
	}
}
svg.acjk path[clip-path] {
	--t:0.8s;
	animation:zk var(--t) linear forwards var(--d);
	stroke-dasharray:3337;
	stroke-dashoffset:3339;
	stroke-width:128;
	stroke-linecap:round;
	fill:none;
	stroke:#000;
}
svg.acjk path[id] {fill:#ccc;}
]]>
</style>
<path id="z27159d1" d="M278 345C334 329 363 318 365 317C371 311 371 305 368 300C362 292 350 286 330 283C312 280 295 282 279 289C251 300 251 300 237 306C215 314 137 332 95 341C70 345 67 355 86 365C98 371 115 374 135 374C169 374 200 366 228 359C261 350 261 350 278 345Z"/>
<path id="z27159d2" d="M277 421C277 396 277 371 278 345C279 308 279 308 279 289C280 229 283 177 298 138C301 127 306 118 303 110C299 102 278 89 243 67C226 56 212 55 199 66C196 68 193 77 201 86C244 141 238 253 237 306C234 419 234 419 233 475C229 610 225 698 220 737C210 805 202 836 203 846C203 858 207 874 218 895C223 905 230 911 235 915C239 918 242 918 248 913C251 909 258 902 265 889C272 872 274 854 274 834C273 805 267 676 276 449C277 430 277 430 277 421Z"/>
<path id="z27159d3" d="M228 359C205 443 161 537 70 660C67 666 69 670 76 670C146 618 194 549 233 475C292 376 251 246 228 359Z"/>
<path id="z27159d4" d="M276 449C298 467 323 489 342 508C348 514 356 518 365 518C371 518 374 514 377 507C379 500 378 489 374 473C371 463 363 454 348 446C322 432 302 426 277 421C268 419 269 443 276 449Z"/>
<path id="z27159d5" d="M614 130C702 112 745 98 747 97C753 90 754 85 751 80C745 72 734 64 714 61C693 57 672 61 652 69C601 86 549 95 501 102C476 105 472 115 491 126C510 137 528 146 573 138C600 133 600 133 614 130Z"/>
<path id="z27159d6" d="M449 232C442 216 435 208 420 202C407 196 402 200 406 215C411 235 408 268 382 306C369 324 370 344 399 378C409 390 419 388 427 371C434 354 437 334 440 313C441 292 445 274 447 259C449 250 452 240 449 232Z"/>
<path id="z27159d7" d="M631 224C689 212 738 205 770 201C797 197 835 191 826 225C822 237 817 251 812 266C800 293 813 282 824 276C855 257 880 247 906 243C926 239 937 233 937 229C936 222 918 203 874 174C845 154 769 176 631 200C600 205 600 205 584 208C544 214 481 226 449 232C440 233 438 257 447 259C459 263 470 264 482 261C514 250 548 240 585 233C616 227 616 227 631 224Z"/>
<path id="z27159d8" d="M587 419C588 431 592 440 596 446C598 449 602 450 606 449C612 446 621 429 626 397C630 362 631 319 631 224C631 208 631 208 631 200C631 141 647 142 614 130C601 126 568 125 573 138C579 152 582 176 584 208C585 225 585 225 585 233C589 336 584 399 587 419Z"/>
<path id="z27159d9" d="M476 308C513 338 537 352 546 352C552 351 557 347 559 338C559 331 556 322 550 314C536 296 510 289 477 288C472 287 470 290 470 296C470 300 471 304 476 308Z"/>
<path id="z27159d10" d="M460 400C499 432 524 448 534 448C540 448 545 443 547 434C547 427 544 419 538 410C531 401 520 396 507 392C484 384 469 380 461 380C456 379 454 382 454 388C454 392 455 396 460 400Z"/>
<path id="z27159d11" d="M683 275C719 300 743 312 758 310C764 308 769 303 770 293C770 286 764 278 756 270C749 263 738 259 725 258C704 255 689 253 680 254C675 254 673 257 675 264C675 267 678 271 683 275Z"/>
<path id="z27159d12" d="M673 364C713 397 740 414 754 413C760 412 766 407 767 397C767 390 762 381 756 372C749 363 738 357 723 354C698 347 682 343 673 343C668 342 666 346 666 352C666 356 668 360 673 364Z"/>
<path id="z27159d13" d="M495 494C472 497 469 505 486 515C509 527 552 526 613 513C637 507 662 501 689 496C707 491 717 488 720 486C724 481 726 476 723 471C718 464 707 457 689 454C670 450 652 454 635 461C615 468 594 475 573 481C549 486 522 489 495 494Z"/>
<path id="z27159d14" d="M566 614C619 604 713 591 852 590C889 589 912 587 916 581C919 574 915 565 905 557C873 533 845 525 821 531C729 551 580 576 375 607C362 608 360 615 370 625C378 633 388 639 401 642C413 644 425 644 435 642C461 634 489 627 519 622C550 617 550 617 566 614Z"/>
<path id="z27159d15" d="M502 767C534 743 584 727 652 712C672 707 688 703 700 707C712 710 723 723 721 743C717 776 700 803 681 828C664 848 649 852 628 846C616 842 598 837 579 826C557 812 563 830 570 841C586 869 599 896 610 920C614 928 620 933 628 935C638 937 650 937 663 930C704 905 742 851 768 770C773 752 774 737 783 727C789 719 791 712 785 705C775 694 758 684 736 674C723 668 711 667 697 672C652 685 602 692 562 700C551 702 547 697 553 688C564 668 574 657 580 653C588 644 590 634 583 626C578 620 572 617 566 614C552 606 513 607 519 622C530 641 505 682 500 691C495 697 485 701 475 710C463 719 460 730 462 740C463 748 467 757 478 767C485 773 493 773 502 767Z"/>
<defs>
	<clipPath id="z27159c1"><use href="#z27159d1"/></clipPath>
	<clipPath id="z27159c2"><use href="#z27159d2"/></clipPath>
	<clipPath id="z27159c3"><use href="#z27159d3"/></clipPath>
	<clipPath id="z27159c4"><use href="#z27159d4"/></clipPath>
	<clipPath id="z27159c5"><use href="#z27159d5"/></clipPath>
	<clipPath id="z27159c6"><use href="#z27159d6"/></clipPath>
	<clipPath id="z27159c7"><use href="#z27159d7"/></clipPath>
	<clipPath id="z27159c8"><use href="#z27159d8"/></clipPath>
	<clipPath id="z27159c9"><use href="#z27159d9"/></clipPath>
	<clipPath id="z27159c10"><use href="#z27159d10"/></clipPath>
	<clipPath id="z27159c11"><use href="#z27159d11"/></clipPath>
	<clipPath id="z27159c12"><use href="#z27159d12"/></clipPath>
	<clipPath id="z27159c13"><use href="#z27159d13"/></clipPath>
	<clipPath id="z27159c14"><use href="#z27159d14"/></clipPath>
	<clipPath id="z27159c15"><use href="#z27159d15"/></clipPath>
</defs>
<path style="--d:1s;" pathLength="3333" clip-path="url(#z27159c1)" d="M80 351L362 310"/>
<path style="--d:2s;" pathLength="3333" clip-path="url(#z27159c2)" d="M201 69L264 131L238 912"/>
<path style="--d:3s;" pathLength="3333" clip-path="url(#z27159c3)" d="M248 320L212 468L77 663"/>
<path style="--d:4s;" pathLength="3333" clip-path="url(#z27159c4)" d="M277 431L372 509"/>
<path style="--d:5s;" pathLength="3333" clip-path="url(#z27159c5)" d="M486 113L747 88"/>
<path style="--d:6s;" pathLength="3333" clip-path="url(#z27159c6)" d="M413 204L428 245L406 380"/>
<path style="--d:7s;" pathLength="3333" clip-path="url(#z27159c7)" d="M449 249L823 183L881 229L813 274"/>
<path style="--d:8s;" pathLength="3333" clip-path="url(#z27159c8)" d="M580 136L608 161L604 442"/>
<path style="--d:9s;" pathLength="3333" clip-path="url(#z27159c9)" d="M476 296L552 340"/>
<path style="--d:10s;" pathLength="3333" clip-path="url(#z27159c10)" d="M459 387L539 438"/>
<path style="--d:11s;" pathLength="3333" clip-path="url(#z27159c11)" d="M682 260L764 299"/>
<path style="--d:12s;" pathLength="3333" clip-path="url(#z27159c12)" d="M674 349L761 405"/>
<path style="--d:13s;" pathLength="3333" clip-path="url(#z27159c13)" d="M485 505L718 475"/>
<path style="--d:14s;" pathLength="3333" clip-path="url(#z27159c14)" d="M370 614L836 559L912 573"/>
<path style="--d:15s;" pathLength="3333" clip-path="url(#z27159c15)" d="M524 615L552 648L511 713L521 735L704 688L755 724L721 818L655 888L623 887L569 829"/>
</svg>