<!--
AnimCJK 2016-2018 Copyright Francois Mizessyn, https://github.com/parsimonhi/animCJK
Derived from:
    MakeMeAHanzi project - https://github.com/skishore/makemeahanzi
    Arphic PL KaitiM GB - https://apps.ubuntu.com/cat/applications/precise/fonts-arphic-gkai00mp/
    Arphic PL UKai - https://apps.ubuntu.com/cat/applications/fonts-arphic-ukai/
You can redistribute and/or modify this file under the terms of the Arphic Public License
as published by Arphic Technology Co., Ltd.
You should have received a copy of this license (the directory "APL") along with this file;
if not, see http://ftp.gnu.org/non-gnu/chinese-fonts-truetype/LICENSE.
-->
<svg id="z27169" class="acjk" version="1.1" viewBox="0 0 1024 1024" xmlns="http://www.w3.org/2000/svg" xmlns:xlink="http://www.w3.org/1999/xlink">
<style>
<![CDATA[
@keyframes z27169k {
	from {
		stroke:#c00;
		stroke-dashoffset:3334;
	}
	75% {
		stroke:#c00;
		stroke-dashoffset:0;
	}
	to {
		stroke:#000;
	}
}
#z27169 path[clip-path] {
	animation:z27169k 1s linear both;
	stroke-dasharray:3334;
	stroke-width:128;
	stroke-linecap:round;
	fill:none;
}
#z27169 path[clip-path="url(#z27169c1)"] {animation-delay:1s;}
#z27169 path[clip-path="url(#z27169c2)"] {animation-delay:2s;}
#z27169 path[clip-path="url(#z27169c3)"] {animation-delay:3s;}
#z27169 path[clip-path="url(#z27169c4)"] {animation-delay:4s;}
#z27169 path[clip-path="url(#z27169c5)"] {animation-delay:5s;}
#z27169 path[clip-path="url(#z27169c6)"] {animation-delay:6s;}
#z27169 path[clip-path="url(#z27169c7)"] {animation-delay:7s;}
#z27169 path[clip-path="url(#z27169c8)"] {animation-delay:8s;}
#z27169 path[clip-path="url(#z27169c9)"] {animation-delay:9s;}
#z27169 path[clip-path="url(#z27169c10)"] {animation-delay:10s;}
#z27169 path[clip-path="url(#z27169c11)"] {animation-delay:11s;}
#z27169 path[clip-path="url(#z27169c12)"] {animation-delay:12s;}
#z27169 path[clip-path="url(#z27169c13)"] {animation-delay:13s;}
#z27169 path[clip-path="url(#z27169c14)"] {animation-delay:14s;}
#z27169 path {fill:#ccc;}
]]>
</style>
<path id="z27169d1" d="M313 356Q326 350 342 347Q376 337 381 331Q388 324 384 315Q377 305 347 299Q331 296 315 301L275 315Q188 348 111 359Q75 368 102 382Q148 403 197 386Q225 379 257 371L313 356 Z"/>
<path id="z27169d2" d="M310 440Q311 400 313 356L315 301Q316 207 336 144Q343 129 342 117Q335 107 283 74Q261 58 242 73Q238 77 243 92Q274 141 275 190Q275 248 275 315L270 459Q258 693 257 700Q250 743 237 787Q227 823 250 883Q256 899 263 903Q269 909 276 902Q303 886 303 825Q302 782 310 467L310 440 Z"/>
<path id="z27169d3" d="M257 371Q232 444 197 513Q157 591 58 732Q54 742 64 742Q88 742 190 602Q233 544 271 459L274 366L257 370 Z"/>
<path id="z27169d4" d="M310 467Q341 491 378 525Q388 535 401 534Q410 534 413 523Q417 513 410 489Q401 462 321 442Q314 441 310 440L310 467 Z"/>
<path id="z27169d5" d="M713 210Q762 201 859 204Q872 205 876 197Q880 188 868 176Q825 142 744 165Q735 166 728 169L677 179Q619 188 558 199L513 206Q467 210 419 218Q395 222 412 234Q445 252 505 242Q511 241 521 239L560 230Q594 220 669 214L713 210 Z"/>
<path id="z27169d6" d="M558 199Q557 171 555 149Q556 131 539 125Q500 107 482 114Q466 121 479 139Q504 170 513 206L521 239Q530 288 544 305Q556 315 560 304Q564 291 560 230L558 199 Z"/>
<path id="z27169d7" d="M728 169Q740 132 754 107Q767 92 757 83Q745 68 712 53Q696 46 680 54Q671 60 679 70Q694 100 677 179L669 214Q651 274 654 294Q655 307 670 296Q682 284 713 210L728 169 Z"/>
<path id="z27169d8" d="M481 355Q468 351 450 348Q440 347 436 351Q432 355 439 370Q467 425 485 514Q489 541 505 558Q521 577 526 563Q527 557 528 551L528 528Q527 516 524 504Q520 485 516 468L512 447Q503 402 501 384L481 355 Z"/>
<path id="z27169d9" d="M704 532Q705 533 706 537Q712 552 724 551Q737 550 744 536Q754 523 777 458Q793 409 828 382Q846 367 831 353Q815 337 768 311Q756 302 690 316Q686 316 481 355L501 384Q561 363 701 345Q726 344 735 348Q744 352 739 381Q718 483 708 506L704 532 Z"/>
<path id="z27169d10" d="M516 468Q522 469 531 467Q613 451 673 440Q692 437 685 426Q676 414 655 411Q627 408 512 447L516 468 Z"/>
<path id="z27169d11" d="M610 543Q659 536 704 532L708 506Q704 502 695 501Q679 498 528 528L528 551Q549 550 573 548L610 543 Z"/>
<path id="z27169d12" d="M632 668Q710 659 908 659Q926 659 931 651Q935 641 921 629Q873 593 841 601Q766 616 640 635L585 642Q482 654 363 668Q344 669 358 685Q371 698 387 703Q406 707 420 704Q495 683 579 675L632 668 Z"/>
<path id="z27169d13" d="M629 677Q630 673 632 668L640 635Q643 602 654 581Q661 575 655 565Q646 550 610 543L573 548Q573 552 577 559Q589 589 585 642L579 675Q548 778 465 831Q429 852 365 880Q341 890 369 892Q441 895 535 835Q548 823 562 809Q601 766 622 702L629 677 Z"/>
<path id="z27169d14" d="M622 702Q685 786 754 864Q776 888 813 890Q880 894 952 884Q971 883 972 877Q975 871 960 865Q920 849 872 834Q764 795 642 687Q633 681 629 677L622 702 Z"/>
<defs>
	<clipPath id="z27169c1"><use xlink:href="#z27169d1"/></clipPath>
	<clipPath id="z27169c2"><use xlink:href="#z27169d2"/></clipPath>
	<clipPath id="z27169c3"><use xlink:href="#z27169d3"/></clipPath>
	<clipPath id="z27169c4"><use xlink:href="#z27169d4"/></clipPath>
	<clipPath id="z27169c5"><use xlink:href="#z27169d5"/></clipPath>
	<clipPath id="z27169c6"><use xlink:href="#z27169d6"/></clipPath>
	<clipPath id="z27169c7"><use xlink:href="#z27169d7"/></clipPath>
	<clipPath id="z27169c8"><use xlink:href="#z27169d8"/></clipPath>
	<clipPath id="z27169c9"><use xlink:href="#z27169d9"/></clipPath>
	<clipPath id="z27169c10"><use xlink:href="#z27169d10"/></clipPath>
	<clipPath id="z27169c11"><use xlink:href="#z27169d11"/></clipPath>
	<clipPath id="z27169c12"><use xlink:href="#z27169d12"/></clipPath>
	<clipPath id="z27169c13"><use xlink:href="#z27169d13"/></clipPath>
	<clipPath id="z27169c14"><use xlink:href="#z27169d14"/></clipPath>
</defs>
<path pathLength="3333" clip-path="url(#z27169c1)" d="M100 371L381 322"/>
<path pathLength="3333" clip-path="url(#z27169c2)" d="M246 77L304 145L273 901"/>
<path pathLength="3333" clip-path="url(#z27169c3)" d="M269 375L204 544L65 737"/>
<path pathLength="3333" clip-path="url(#z27169c4)" d="M316 446L401 529"/>
<path pathLength="3333" clip-path="url(#z27169c5)" d="M413 227L794 179L873 190"/>
<path pathLength="3333" clip-path="url(#z27169c6)" d="M480 122L525 154L551 304"/>
<path pathLength="3333" clip-path="url(#z27169c7)" d="M682 60L723 95L664 296"/>
<path pathLength="3333" clip-path="url(#z27169c8)" d="M442 354L480 401L517 562"/>
<path pathLength="3333" clip-path="url(#z27169c9)" d="M491 358L757 332L787 381L719 546"/>
<path pathLength="3333" clip-path="url(#z27169c10)" d="M520 451L681 426"/>
<path pathLength="3333" clip-path="url(#z27169c11)" d="M537 543L704 516"/>
<path pathLength="3333" clip-path="url(#z27169c12)" d="M360 675L844 629L927 642"/>
<path pathLength="3333" clip-path="url(#z27169c13)" d="M580 550L621 579L567 762L499 832L363 887"/>
<path pathLength="3333" clip-path="url(#z27169c14)" d="M630 683L791 843L962 876"/>
</svg>