<!--
AnimCJK 2016-2019 Copyright Francois Mizessyn - https://github.com/parsimonhi/animCJK
Derived from:
    MakeMeAHanzi project - https://github.com/skishore/makemeahanzi
    Arphic PL KaitiM GB font
    Arphic PL UKai font
You can redistribute and/or modify this file under the terms of the Arphic Public License
as published by Arphic Technology Co., Ltd.
You should have received a copy of this license along with this file.
If not, see http://ftp.gnu.org/non-gnu/chinese-fonts-truetype/LICENSE.
-->
<svg id="z27189" class="acjk" version="1.1" viewBox="0 0 1024 1024" xmlns="http://www.w3.org/2000/svg" xmlns:xlink="http://www.w3.org/1999/xlink">
<style>
<![CDATA[
@keyframes zk {
	to {
		stroke-dashoffset:0;
	}
}
svg.acjk path[clip-path] {
	--t:0.8s;
	animation:zk var(--t) linear forwards var(--d);
	stroke-dasharray:3337;
	stroke-dashoffset:3339;
	stroke-width:128;
	stroke-linecap:round;
	fill:none;
	stroke:#000;
}
svg.acjk path[id] {fill:#ccc;}
]]>
</style>
<path id="z27189d1" d="M300 378Q313 372 330 369Q364 359 369 353Q378 344 372 336Q365 324 334 319Q318 316 301 321C276 330 276 330 263 334Q170 370 91 381Q54 390 82 405Q118 423 192 406Q213 400 239 394C280 383 280 383 300 378Z"/>
<path id="z27189d2" d="M298 453Q298 417 300 378C301 340 301 340 301 321Q301 221 324 144Q331 129 330 117Q323 107 271 74Q249 58 230 73Q226 77 231 92Q262 141 263 191Q263 258 263 334C260 424 260 424 258 469Q246 707 242 727Q220 830 220 836Q220 845 238 891Q244 907 251 911Q257 917 264 910Q291 894 291 833Q290 791 297 480C298 462 298 462 298 453Z"/>
<path id="z27189d3" d="M239 394Q194 527 54 732Q50 742 60 742Q82 742 180 609Q222 551 258 469C285 402 266 327 239 394Z"/>
<path id="z27189d4" d="M297 480Q348 535 371 536Q384 536 388 520Q388 508 379 491Q361 464 298 453C289 451 292 473 297 480Z"/>
<path id="z27189d5" d="M492 297Q519 260 547 212Q563 179 578 164Q585 154 581 142Q577 132 551 113Q527 98 510 99Q494 102 502 120Q535 177 376 401Q369 410 366 416Q365 426 376 423Q403 414 469 328C484 307 484 307 492 297Z"/>
<path id="z27189d6" d="M521 624Q522 612 522 601Q523 409 529 367Q536 343 527 334Q511 316 500 304Q496 300 492 297C483 288 464 316 469 328Q503 412 464 589Q443 616 475 672Q478 681 484 686Q500 699 510 676Q514 664 517 652C520 633 520 633 521 624Z"/>
<path id="z27189d7" d="M659 121Q681 143 706 170Q718 183 733 184Q743 184 749 171Q753 158 747 128Q743 110 715 96Q654 69 636 73Q632 77 632 89Q635 99 659 121Z"/>
<path id="z27189d8" d="M691 300Q739 287 789 277Q826 268 831 263Q838 256 835 249Q828 240 805 234Q784 231 694 260Q619 278 562 286Q534 290 554 305Q587 323 635 312Q641 311 651 309C678 303 678 303 691 300Z"/>
<path id="z27189d9" d="M709 416Q758 404 803 397Q827 393 817 380Q807 365 781 362Q757 359 716 372Q712 373 711 374C678 384 678 384 662 389Q616 402 575 415Q559 419 579 433Q586 439 662 426C693 419 693 419 709 416Z"/>
<path id="z27189d10" d="M704 524Q759 514 810 508Q834 505 825 492Q815 477 789 472Q759 466 705 484C676 492 676 492 661 496Q616 505 576 515Q560 519 579 534Q589 541 614 538Q638 534 661 531C690 526 690 526 704 524Z"/>
<path id="z27189d11" d="M701 596Q702 559 704 524C705 497 705 497 705 484Q706 448 709 416C710 388 710 388 711 374Q711 371 712 369Q713 353 714 343Q721 327 712 317Q702 307 691 300C680 292 646 296 651 309Q660 324 662 389C662 414 662 414 662 426Q662 454 661 496C661 519 661 519 661 531Q661 562 661 603C661 617 701 610 701 596Z"/>
<path id="z27189d12" d="M661 603Q594 612 521 624C512 626 509 647 517 652Q535 664 559 657Q668 629 867 628Q883 628 887 621Q891 611 877 600Q831 564 774 582Q741 586 701 596C674 601 674 601 661 603Z"/>
<path id="z27189d13" d="M416 714Q398 766 371 812Q355 843 372 876Q381 892 400 880Q446 840 444 768Q447 737 439 713Q435 706 428 704Q421 705 416 714Z"/>
<path id="z27189d14" d="M536 771Q549 793 562 820Q569 833 581 837Q590 840 597 831Q604 821 606 795Q606 768 545 732Q535 725 528 726Q524 727 521 738Q521 748 536 771Z"/>
<path id="z27189d15" d="M677 758Q692 782 706 809Q713 822 726 826Q733 827 741 819Q748 809 749 783Q749 767 730 749Q678 712 668 714Q664 715 662 726Q662 736 677 758Z"/>
<path id="z27189d16" d="M810 720Q852 768 900 837Q913 859 928 864Q937 867 945 858Q958 846 951 802Q948 762 881 724Q838 700 814 690Q807 683 803 695Q800 708 810 720Z"/>
<defs>
	<clipPath id="z27189c1"><use xlink:href="#z27189d1"/></clipPath>
	<clipPath id="z27189c2"><use xlink:href="#z27189d2"/></clipPath>
	<clipPath id="z27189c3"><use xlink:href="#z27189d3"/></clipPath>
	<clipPath id="z27189c4"><use xlink:href="#z27189d4"/></clipPath>
	<clipPath id="z27189c5"><use xlink:href="#z27189d5"/></clipPath>
	<clipPath id="z27189c6"><use xlink:href="#z27189d6"/></clipPath>
	<clipPath id="z27189c7"><use xlink:href="#z27189d7"/></clipPath>
	<clipPath id="z27189c8"><use xlink:href="#z27189d8"/></clipPath>
	<clipPath id="z27189c9"><use xlink:href="#z27189d9"/></clipPath>
	<clipPath id="z27189c10"><use xlink:href="#z27189d10"/></clipPath>
	<clipPath id="z27189c11"><use xlink:href="#z27189d11"/></clipPath>
	<clipPath id="z27189c12"><use xlink:href="#z27189d12"/></clipPath>
	<clipPath id="z27189c13"><use xlink:href="#z27189d13"/></clipPath>
	<clipPath id="z27189c14"><use xlink:href="#z27189d14"/></clipPath>
	<clipPath id="z27189c15"><use xlink:href="#z27189d15"/></clipPath>
	<clipPath id="z27189c16"><use xlink:href="#z27189d16"/></clipPath>
</defs>
<path style="--d:1s;" pathLength="3333" clip-path="url(#z27189c1)" d="M76 391L368 339"/>
<path style="--d:2s;" pathLength="3333" clip-path="url(#z27189c2)" d="M235 78L293 134L261 909"/>
<path style="--d:3s;" pathLength="3333" clip-path="url(#z27189c3)" d="M256 396L201 535L59 734"/>
<path style="--d:4s;" pathLength="3333" clip-path="url(#z27189c4)" d="M303 464L383 523"/>
<path style="--d:5s;" pathLength="3333" clip-path="url(#z27189c5)" d="M509 102L543 158L373 418"/>
<path style="--d:6s;" pathLength="3333" clip-path="url(#z27189c6)" d="M491 304L493 686"/>
<path style="--d:7s;" pathLength="3333" clip-path="url(#z27189c7)" d="M639 78L713 132L733 180"/>
<path style="--d:8s;" pathLength="3333" clip-path="url(#z27189c8)" d="M554 294L827 247"/>
<path style="--d:9s;" pathLength="3333" clip-path="url(#z27189c9)" d="M574 422L813 380"/>
<path style="--d:10s;" pathLength="3333" clip-path="url(#z27189c10)" d="M576 520L819 496"/>
<path style="--d:11s;" pathLength="3333" clip-path="url(#z27189c11)" d="M658 314L688 345L676 600"/>
<path style="--d:12s;" pathLength="3333" clip-path="url(#z27189c12)" d="M523 649L783 604L882 618"/>
<path style="--d:13s;" pathLength="3333" clip-path="url(#z27189c13)" d="M429 711L382 880"/>
<path style="--d:14s;" pathLength="3333" clip-path="url(#z27189c14)" d="M530 734L588 831"/>
<path style="--d:15s;" pathLength="3333" clip-path="url(#z27189c15)" d="M671 724L731 821"/>
<path style="--d:16s;" pathLength="3333" clip-path="url(#z27189c16)" d="M807 696L899 777L936 857"/>
</svg>