<!--
AnimCJK 2016-2018 Copyright Francois Mizessyn - https://github.com/parsimonhi/animCJK
Derived from:
    MakeMeAHanzi project - https://github.com/skishore/makemeahanzi
    Arphic PL KaitiM GB - https://apps.ubuntu.com/cat/applications/precise/fonts-arphic-gkai00mp/
    Arphic PL UKai - https://apps.ubuntu.com/cat/applications/fonts-arphic-ukai/
You can redistribute and/or modify this file under the terms of the Arphic Public License
as published by Arphic Technology Co., Ltd.
You should have received a copy of this license (the directory "APL") along with this file;
if not, see http://ftp.gnu.org/non-gnu/chinese-fonts-truetype/LICENSE.
-->
<svg id="z27547" class="acjk" version="1.1" viewBox="0 0 1024 1024" xmlns="http://www.w3.org/2000/svg" xmlns:xlink="http://www.w3.org/1999/xlink">
<style>
<![CDATA[
@keyframes z27547k {
	from {
		stroke:#ccc;
		stroke-dashoffset:3334;
	}
	1% {
		stroke:#c00;
		stroke-dashoffset:3334;
	}
	75% {
		stroke:#c00;
		stroke-dashoffset:0;
	}
	to {
		stroke:#000;
	}
}
#z27547 path[clip-path] {
	animation:z27547k 1s linear both;
	stroke-dasharray:3334;
	stroke-width:128;
	stroke-linecap:round;
	fill:none;
}
#z27547 path[clip-path="url(#z27547c1)"] {animation-delay:1s;}
#z27547 path[clip-path="url(#z27547c2)"] {animation-delay:2s;}
#z27547 path[clip-path="url(#z27547c3)"] {animation-delay:3s;}
#z27547 path[clip-path="url(#z27547c4)"] {animation-delay:4s;}
#z27547 path[clip-path="url(#z27547c5)"] {animation-delay:5s;}
#z27547 path[clip-path="url(#z27547c6)"] {animation-delay:6s;}
#z27547 path[clip-path="url(#z27547c7)"] {animation-delay:7s;}
#z27547 path[clip-path="url(#z27547c8)"] {animation-delay:8s;}
#z27547 path[clip-path="url(#z27547c9)"] {animation-delay:9s;}
#z27547 path[clip-path="url(#z27547c10)"] {animation-delay:10s;}
#z27547 path[clip-path="url(#z27547c11)"] {animation-delay:11s;}
#z27547 path[clip-path="url(#z27547c12)"] {animation-delay:12s;}
#z27547 path {fill:#ccc;}
]]>
</style>
<path id="z27547d1" d="M274 244Q424 208 428 205Q437 196 431 188Q424 176 394 169Q363 165 332 177Q295 190 255 201Q209 211 157 218Q120 225 147 242Q184 258 231 254L274 244 Z"/>
<path id="z27547d2" d="M166 488Q227 407 229 406L240 390Q291 303 301 292Q308 283 304 272Q300 262 276 245Q275 244 274 244L231 254Q249 287 184 402Q154 454 112 514Q105 523 103 528Q100 538 112 535Q121 534 141 514Q145 508 153 503L166 488 Z"/>
<path id="z27547d3" d="M229 406Q239 416 269 410Q306 403 309 407Q316 422 300 477Q290 538 235 623Q184 714 91 807Q72 823 90 820Q118 816 163 779Q211 742 258 671Q316 586 357 475Q376 423 390 405Q402 395 395 385Q391 375 339 358Q327 354 308 366Q287 378 240 390L229 406 Z"/>
<path id="z27547d4" d="M153 503Q157 510 167 522Q186 547 207 577Q214 587 225 590Q232 591 238 583Q242 574 241 553Q238 526 171 490Q168 489 166 488L153 503 Z"/>
<path id="z27547d5" d="M627 349Q669 319 716 287Q759 256 789 248Q808 242 803 226Q800 210 738 173Q720 163 699 170Q641 191 556 214Q534 221 479 218Q457 217 464 237Q471 249 490 260Q518 276 551 258Q572 251 674 214Q686 208 696 215Q708 221 703 233Q663 282 617 340L627 349 Z"/>
<path id="z27547d6" d="M669 665Q687 523 659 406Q647 370 627 349L617 340Q611 333 602 328Q592 321 587 329Q584 332 590 345Q624 412 627 512Q631 569 622 619Q615 668 602 679Q596 682 524 667Q514 664 508 668Q504 669 518 680Q566 725 592 762Q608 778 624 771Q654 756 668 672L669 665 Z"/>
<path id="z27547d7" d="M421 478Q411 472 384 468Q374 465 370 469Q366 475 372 488Q394 534 407 609Q410 631 422 646Q437 665 442 652Q445 642 445 626L442 597Q432 527 429 503L421 478 Z"/>
<path id="z27547d8" d="M553 578Q566 514 586 495Q605 471 584 460Q527 432 519 434Q513 434 508 439Q478 460 421 478L429 503Q450 497 497 484Q513 480 518 487Q524 491 519 518Q515 545 507 578L553 578 Z"/>
<path id="z27547d9" d="M445 626Q449 626 457 625Q491 615 567 607Q576 606 577 598Q577 591 553 578L507 578Q470 588 442 597L445 626 Z"/>
<path id="z27547d10" d="M809 561Q834 524 857 480Q872 449 882 440Q892 430 887 419Q881 409 831 391Q819 387 799 399Q765 417 684 431Q671 432 681 445Q691 455 721 449Q796 428 801 438Q805 445 796 477Q790 502 771 536L752 568Q724 613 676 660Q672 661 669 665L668 672L674 672Q690 671 721 652Q749 633 781 597L809 561 Z"/>
<path id="z27547d11" d="M781 597Q865 690 872 692Q879 693 885 686Q895 676 886 642Q880 609 809 561L771 536Q729 508 703 493Q696 489 694 498Q693 508 701 517Q726 539 752 568L781 597 Z"/>
<path id="z27547d12" d="M334 810Q312 811 327 829Q342 845 360 851Q382 858 398 853Q603 808 907 829Q928 830 933 821Q940 809 923 794Q871 752 831 758Q689 780 334 810 Z"/>
<defs>
	<clipPath id="z27547c1"><use xlink:href="#z27547d1"/></clipPath>
	<clipPath id="z27547c2"><use xlink:href="#z27547d2"/></clipPath>
	<clipPath id="z27547c3"><use xlink:href="#z27547d3"/></clipPath>
	<clipPath id="z27547c4"><use xlink:href="#z27547d4"/></clipPath>
	<clipPath id="z27547c5"><use xlink:href="#z27547d5"/></clipPath>
	<clipPath id="z27547c6"><use xlink:href="#z27547d6"/></clipPath>
	<clipPath id="z27547c7"><use xlink:href="#z27547d7"/></clipPath>
	<clipPath id="z27547c8"><use xlink:href="#z27547d8"/></clipPath>
	<clipPath id="z27547c9"><use xlink:href="#z27547d9"/></clipPath>
	<clipPath id="z27547c10"><use xlink:href="#z27547d10"/></clipPath>
	<clipPath id="z27547c11"><use xlink:href="#z27547d11"/></clipPath>
	<clipPath id="z27547c12"><use xlink:href="#z27547d12"/></clipPath>
</defs>
<path pathLength="3333" clip-path="url(#z27547c1)" d="M146 230L426 185"/>
<path pathLength="3333" clip-path="url(#z27547c2)" d="M239 260L267 294L110 530"/>
<path pathLength="3333" clip-path="url(#z27547c3)" d="M239 403L319 381L352 399L319 506L212 699L89 814"/>
<path pathLength="3333" clip-path="url(#z27547c4)" d="M166 495L224 585"/>
<path pathLength="3333" clip-path="url(#z27547c5)" d="M466 227L526 243L723 197L751 238L626 341"/>
<path pathLength="3333" clip-path="url(#z27547c6)" d="M594 335L643 440L643 654L612 725L517 669"/>
<path pathLength="3333" clip-path="url(#z27547c7)" d="M377 476L406 509L431 649"/>
<path pathLength="3333" clip-path="url(#z27547c8)" d="M426 479L513 458L549 473L517 574"/>
<path pathLength="3333" clip-path="url(#z27547c9)" d="M453 618L569 595"/>
<path pathLength="3333" clip-path="url(#z27547c10)" d="M685 438L812 413L845 438L767 582L677 663"/>
<path pathLength="3333" clip-path="url(#z27547c11)" d="M700 499L853 634L872 687"/>
<path pathLength="3333" clip-path="url(#z27547c12)" d="M328 819L819 791L931 810"/>
</svg>