<!--
AnimCJK 2016-2019 Copyright Francois Mizessyn - https://github.com/parsimonhi/animCJK
Derived from:
    MakeMeAHanzi project - https://github.com/skishore/makemeahanzi
    Arphic PL KaitiM GB font
    Arphic PL UKai font
You can redistribute and/or modify this file under the terms of the Arphic Public License
as published by Arphic Technology Co., Ltd.
You should have received a copy of this license along with this file.
If not, see http://ftp.gnu.org/non-gnu/chinese-fonts-truetype/LICENSE.
-->
<svg id="z27595" class="acjk" version="1.1" viewBox="0 0 1024 1024" xmlns="http://www.w3.org/2000/svg" xmlns:xlink="http://www.w3.org/1999/xlink">
<style>
<![CDATA[
@keyframes zk {
	to {
		stroke-dashoffset:0;
	}
}
svg.acjk path[clip-path] {
	--t:0.8s;
	animation:zk var(--t) linear forwards var(--d);
	stroke-dasharray:3337;
	stroke-dashoffset:3339;
	stroke-width:128;
	stroke-linecap:round;
	fill:none;
	stroke:#000;
}
svg.acjk path[id] {fill:#ccc;}
]]>
</style>
<path id="z27595d1" d="M357 174Q315 138 304 148Q297 158 296 170Q329 236 289 411Q288 412 288 413C283 435 283 435 280 446Q249 569 200 618Q191 628 195 642Q201 663 222 683Q231 693 246 685Q292 663 382 655Q386 654 394 655C429 652 429 652 447 650Q523 643 618 652C657 657 657 657 677 660Q756 672 831 699Q853 708 865 704Q878 701 870 680Q861 659 809 620Q790 604 759 608Q726 609 685 613C646 613 646 613 627 613Q542 610 462 613C431 614 431 614 415 614Q352 614 293 619Q272 622 278 604Q306 510 327 440C332 419 332 419 335 409Q356 331 366 284Q372 242 379 219Q380 212 381 207C384 194 368 182 357 174Z"/>
<path id="z27595d2" d="M618 652Q585 799 546 828Q540 832 454 812Q439 811 444 823Q448 832 468 844Q513 883 534 913Q562 944 583 924Q640 857 677 660C682 629 682 629 685 613Q698 522 708 417C711 385 711 385 712 369Q716 243 734 205Q747 183 731 165Q715 150 674 122Q659 109 574 136Q415 166 357 174C344 177 367 207 381 207Q396 207 415 202Q613 151 642 175Q657 184 657 214Q656 302 652 377C651 404 651 404 650 418Q643 515 627 613C621 639 621 639 618 652Z"/>
<path id="z27595d3" d="M394 655Q387 665 381 679Q338 754 238 825Q225 835 220 840Q219 846 228 847Q265 850 349 780Q412 726 447 650C457 625 457 625 462 613Q489 532 511 422C514 403 514 403 516 393Q522 357 528 319Q534 303 536 292Q543 276 526 264Q486 239 472 239Q454 240 466 261Q482 300 471 397C468 416 468 416 466 426Q439 558 415 614C401 641 401 641 394 655Z"/>
<path id="z27595d4" d="M288 413Q186 420 78 430Q56 431 71 449Q86 464 104 470Q126 477 142 473Q208 457 280 446C311 442 311 442 327 440Q376 431 466 426C496 423 496 423 511 422Q574 418 650 418C689 417 689 417 708 417Q768 416 836 419Q923 422 930 413Q936 401 919 386Q862 341 799 356Q759 362 712 369C672 374 672 374 652 377Q588 384 516 393C486 396 486 396 471 397Q404 401 335 409C304 412 304 412 288 413Z"/>
<defs>
	<clipPath id="z27595c1"><use xlink:href="#z27595d1"/></clipPath>
	<clipPath id="z27595c2"><use xlink:href="#z27595d2"/></clipPath>
	<clipPath id="z27595c3"><use xlink:href="#z27595d3"/></clipPath>
	<clipPath id="z27595c4"><use xlink:href="#z27595d4"/></clipPath>
</defs>
<path style="--d:1s;" pathLength="3333" clip-path="url(#z27595c1)" d="M307 152L345 217L340 265L238 623L248 647L722 638L869 691"/>
<path style="--d:2s;" pathLength="3333" clip-path="url(#z27595c2)" d="M366 174L408 185L627 144L697 190L659 595L613 785L558 879L450 818"/>
<path style="--d:3s;" pathLength="3333" clip-path="url(#z27595c3)" d="M470 247L505 294L437 616L366 736L227 841"/>
<path style="--d:4s;" pathLength="3333" clip-path="url(#z27595c4)" d="M71 438L138 449L816 385L927 402"/>
</svg>