<!--
AnimCJK 2016-2019 Copyright Francois Mizessyn - https://github.com/parsimonhi/animCJK
Derived from:
    MakeMeAHanzi project - https://github.com/skishore/makemeahanzi
    Arphic PL KaitiM GB font
    Arphic PL UKai font
You can redistribute and/or modify this file under the terms of the Arphic Public License
as published by Arphic Technology Co., Ltd.
You should have received a copy of this license along with this file.
If not, see http://ftp.gnu.org/non-gnu/chinese-fonts-truetype/LICENSE.
-->
<svg id="z27597" class="acjk" version="1.1" viewBox="0 0 1024 1024" xmlns="http://www.w3.org/2000/svg" xmlns:xlink="http://www.w3.org/1999/xlink">
<style>
<![CDATA[
@keyframes zk {
	to {
		stroke-dashoffset:0;
	}
}
svg.acjk path[clip-path] {
	--t:0.8s;
	animation:zk var(--t) linear forwards var(--d);
	stroke-dasharray:3337;
	stroke-dashoffset:3339;
	stroke-width:128;
	stroke-linecap:round;
	fill:none;
	stroke:#000;
}
svg.acjk path[id] {fill:#ccc;}
]]>
</style>
<path id="z27597d1" d="M383 166Q331 120 318 131Q311 141 310 154Q346 226 296 430Q295 434 293 439C287 462 287 462 284 474Q242 618 195 664Q174 685 217 733Q226 743 242 735Q315 699 494 699Q602 696 630 705C670 712 670 712 690 715Q763 728 831 753Q855 763 866 759Q879 755 871 734Q862 712 808 671Q789 655 699 663C659 663 659 663 639 663Q455 657 291 667Q269 670 276 651Q307 548 332 467C338 446 338 446 341 435Q369 332 381 273Q387 231 396 204C401 192 394 174 383 166Z"/>
<path id="z27597d2" d="M723 394Q727 229 740 195Q755 171 743 163Q736 150 676 112Q660 99 611 117Q529 138 383 166C370 169 383 206 396 204Q408 203 423 198Q618 144 646 169Q662 176 663 208Q664 314 664 402C663 430 663 430 662 444Q659 567 639 663C633 691 633 691 630 705Q596 822 572 841Q565 845 531 833Q506 823 490 817Q477 814 480 827Q483 836 502 850Q544 893 563 926Q594 956 614 936Q657 881 690 715C696 680 696 680 699 663Q708 624 721 443C722 410 722 410 723 394Z"/>
<path id="z27597d3" d="M463 289Q485 311 510 338Q522 351 537 352Q547 352 553 339Q557 326 551 296Q547 278 519 264Q458 237 440 241Q436 245 436 257Q439 267 463 289Z"/>
<path id="z27597d4" d="M721 443Q785 442 857 445Q947 448 954 439Q960 426 943 411Q885 363 810 381Q770 387 723 394C684 399 684 399 664 402Q589 409 500 420Q424 427 341 435C309 438 309 438 293 439Q187 446 74 457Q52 458 68 477Q83 493 101 499Q123 506 141 501Q210 485 284 474C316 469 316 469 332 467Q378 460 428 456Q525 444 662 444C701 443 701 443 721 443Z"/>
<path id="z27597d5" d="M429 539Q477 599 507 612Q522 616 531 603Q538 591 536 575Q524 526 444 503C443 502 443 502 443 502Q427 498 418 500Q411 501 413 513Q414 525 429 539Z"/>
<defs>
	<clipPath id="z27597c1"><use xlink:href="#z27597d1"/></clipPath>
	<clipPath id="z27597c2"><use xlink:href="#z27597d2"/></clipPath>
	<clipPath id="z27597c3"><use xlink:href="#z27597d3"/></clipPath>
	<clipPath id="z27597c4"><use xlink:href="#z27597d4"/></clipPath>
	<clipPath id="z27597c5"><use xlink:href="#z27597d5"/></clipPath>
</defs>
<path style="--d:1s;" pathLength="3333" clip-path="url(#z27597c1)" d="M321 136L360 207L351 278L300 497L231 668L241 691L753 693L866 752"/>
<path style="--d:2s;" pathLength="3333" clip-path="url(#z27597c2)" d="M393 171L645 136L704 186L685 542L640 784L586 893L486 825"/>
<path style="--d:3s;" pathLength="3333" clip-path="url(#z27597c3)" d="M443 246L517 300L537 348"/>
<path style="--d:4s;" pathLength="3333" clip-path="url(#z27597c4)" d="M68 464L125 477L833 410L951 425"/>
<path style="--d:5s;" pathLength="3333" clip-path="url(#z27597c5)" d="M421 510L525 606"/>
</svg>