<!--
AnimCJK 2016-2018 Copyright Francois Mizessyn, https://github.com/parsimonhi/animCJK
Derived from:
    MakeMeAHanzi project - https://github.com/skishore/makemeahanzi
    Arphic PL KaitiM GB - https://apps.ubuntu.com/cat/applications/precise/fonts-arphic-gkai00mp/
    Arphic PL UKai - https://apps.ubuntu.com/cat/applications/fonts-arphic-ukai/
You can redistribute and/or modify this file under the terms of the Arphic Public License
as published by Arphic Technology Co., Ltd.
You should have received a copy of this license (the directory "APL") along with this file;
if not, see http://ftp.gnu.org/non-gnu/chinese-fonts-truetype/LICENSE.
-->
<svg id="z27600" class="acjk" version="1.1" viewBox="0 0 1024 1024" xmlns="http://www.w3.org/2000/svg" xmlns:xlink="http://www.w3.org/1999/xlink">
<style>
<![CDATA[
@keyframes z27600k {
	from {
		stroke:#ccc;
		stroke-dashoffset:3334;
	}
	1% {
		stroke:#c00;
		stroke-dashoffset:3334;
	}
	75% {
		stroke:#c00;
		stroke-dashoffset:0;
	}
	to {
		stroke:#000;
	}
}
#z27600 path[clip-path] {
	animation:z27600k 1s linear both;
	stroke-dasharray:3334;
	stroke-width:128;
	stroke-linecap:round;
	fill:none;
}
#z27600 path[clip-path="url(#z27600c1)"] {animation-delay:1s;}
#z27600 path[clip-path="url(#z27600c2)"] {animation-delay:2s;}
#z27600 path[clip-path="url(#z27600c3)"] {animation-delay:3s;}
#z27600 path[clip-path="url(#z27600c4)"] {animation-delay:4s;}
#z27600 path[clip-path="url(#z27600c5)"] {animation-delay:5s;}
#z27600 path[clip-path="url(#z27600c6)"] {animation-delay:6s;}
#z27600 path[clip-path="url(#z27600c7)"] {animation-delay:7s;}
#z27600 path {fill:#ccc;}
]]>
</style>
<path id="z27600d1" d="M 543,240 C 571,236 648,224 775,215 781,214 790,212 795,203 798,195 787,187 774,179 747,163 709,164 659,177 623,185 600,191 548,200 L 490,210 C 468,213 376,225 242,234 220,235 218,243 234,256 256,274 277,281 297,278 355,266 419,256 491,247 Z"/>
<path id="z27600d2" d="M 533,333 C 535,304 539,266 543,240 L 548,200 C 551,170 556,135 564,117 566,110 560,101 548,93 526,79 506,72 493,70 481,67 474,69 470,75 465,79 464,86 470,96 479,110 488,153 490,210 L 491,247 C 491,273 492,311 492,341 Z"/>
<path id="z27600d3" d="M 492,341 C 474,344 419,349 328,360 311,361 309,367 322,379 340,394 358,400 377,397 488,376 592,361 691,352 697,351 704,350 708,342 710,335 701,329 690,321 671,307 635,309 581,323 565,327 549,329 533,333 Z"/>
<path id="z27600d4" d="M 402,462 C 393,452 382,444 369,438 356,431 348,431 345,439 341,445 342,450 347,458 362,481 365,530 344,601 L 334,634 C 319,680 296,719 264,748 252,758 245,766 248,778 250,788 258,799 270,811 280,821 293,820 309,809 354,776 454,768 607,783 611,783 616,784 622,785 L 678,794 C 702,797 727,801 753,810 765,814 775,814 784,811 792,807 794,802 791,792 786,779 775,769 763,758 755,751 731,743 686,742 L 630,740 C 561,737 469,739 353,749 342,749 338,743 343,731 355,698 367,664 379,629 L 389,597 C 407,537 413,503 415,496 Z"/>
<path id="z27600d5" d="M 703,567 C 706,533 713,512 721,503 734,487 736,473 727,465 711,449 689,438 664,428 653,423 617,430 552,442 473,455 423,460 402,462 L 415,496 C 430,494 455,490 489,485 L 520,480 C 537,477 563,472 588,468 606,464 621,468 634,477 641,482 645,496 645,521 644,539 643,556 643,574 L 642,614 C 640,664 635,706 630,740 L 622,785 C 616,815 610,837 605,849 598,861 587,863 571,861 526,853 511,847 508,846 488,837 484,847 502,864 526,887 547,911 566,937 577,953 588,957 599,951 642,922 666,870 678,794 L 686,742 C 693,692 694,648 698,613 Z"/>
<path id="z27600d6" d="M 698,613 C 744,612 827,616 945,621 959,621 969,618 973,612 978,603 974,593 962,583 919,547 881,540 845,548 803,556 755,560 703,567 L 643,574 C 601,578 556,582 508,587 469,590 429,593 389,597 L 344,601 C 257,608 166,613 71,620 55,621 52,627 64,641 73,651 85,659 98,664 113,669 128,669 140,667 202,652 266,641 334,634 L 379,629 C 397,627 415,625 434,624 492,618 562,615 642,614 Z"/>
<path id="z27600d7" d="M 541,588 C 544,574 546,568 549,556 551,546 555,537 558,531 561,518 559,507 552,501 540,491 530,485 520,480 L 489,485 C 503,515 504,529 496,586 487,642 474,683 458,726 444,759 407,821 337,889 286,938 315,934 362,903 445,846 489,758 503,724 517,684 524,650 541,588 Z"/>
<defs>
	<clipPath id="z27600c1"><use xlink:href="#z27600d1"/></clipPath>
	<clipPath id="z27600c2"><use xlink:href="#z27600d2"/></clipPath>
	<clipPath id="z27600c3"><use xlink:href="#z27600d3"/></clipPath>
	<clipPath id="z27600c4"><use xlink:href="#z27600d4"/></clipPath>
	<clipPath id="z27600c5"><use xlink:href="#z27600d5"/></clipPath>
	<clipPath id="z27600c6"><use xlink:href="#z27600d6"/></clipPath>
	<clipPath id="z27600c7"><use xlink:href="#z27600d7"/></clipPath>
</defs>
<path pathLength="3333" clip-path="url(#z27600c1)" d="M 230,241 285,254 695,195 788,200"/>
<path pathLength="3333" clip-path="url(#z27600c2)" d="M 476,73 523,123 504,338"/>
<path pathLength="3333" clip-path="url(#z27600c3)" d="M 322,368 699,338"/>
<path pathLength="3333" clip-path="url(#z27600c4)" d="M354 438L386 499L354 639L298 759L309 780L569 758L726 773L786 806"/>
<path pathLength="3333" clip-path="url(#z27600c5)" d="M410 464L613 448L687 483L633 859L587 907L500 851"/>
<path pathLength="3333" clip-path="url(#z27600c6)" d="M62 629L129 642L853 581L971 605"/>
<path pathLength="3333" clip-path="url(#z27600c7)" d="M 498,491 530,529 481,725 421,829 319,918"/>
</svg>