<!--
AnimCJK 2016-2018 Copyright Francois Mizessyn - https://github.com/parsimonhi/animCJK
Derived from:
    MakeMeAHanzi project - https://github.com/skishore/makemeahanzi
    Arphic PL KaitiM GB - https://apps.ubuntu.com/cat/applications/precise/fonts-arphic-gkai00mp/
    Arphic PL UKai - https://apps.ubuntu.com/cat/applications/fonts-arphic-ukai/
You can redistribute and/or modify this file under the terms of the Arphic Public License
as published by Arphic Technology Co., Ltd.
You should have received a copy of this license (the directory "APL") along with this file;
if not, see http://ftp.gnu.org/non-gnu/chinese-fonts-truetype/LICENSE.
-->
<svg id="z27733" class="acjk" version="1.1" viewBox="0 0 1024 1024" xmlns="http://www.w3.org/2000/svg" xmlns:xlink="http://www.w3.org/1999/xlink">
<style>
<![CDATA[
@keyframes z27733k {
	from {
		stroke:#ccc;
		stroke-dashoffset:3334;
	}
	1% {
		stroke:#c00;
		stroke-dashoffset:3334;
	}
	75% {
		stroke:#c00;
		stroke-dashoffset:0;
	}
	to {
		stroke:#000;
	}
}
#z27733 path[clip-path] {
	animation:z27733k 1s linear both;
	stroke-dasharray:3334;
	stroke-width:128;
	stroke-linecap:round;
	fill:none;
}
#z27733 path[clip-path="url(#z27733c1)"] {animation-delay:1s;}
#z27733 path[clip-path="url(#z27733c2)"] {animation-delay:2s;}
#z27733 path[clip-path="url(#z27733c3)"] {animation-delay:3s;}
#z27733 path[clip-path="url(#z27733c4)"] {animation-delay:4s;}
#z27733 path[clip-path="url(#z27733c5)"] {animation-delay:5s;}
#z27733 path[clip-path="url(#z27733c6)"] {animation-delay:6s;}
#z27733 path {fill:#ccc;}
]]>
</style>
<path id="z27733d1" d="M252 192Q282 217 313 249Q328 262 344 262Q354 261 361 247Q365 232 356 201Q350 179 317 163Q238 135 224 141Q218 145 220 159Q224 169 252 192 Z"/>
<path id="z27733d2" d="M142 380Q190 437 226 453Q242 457 251 443Q258 430 255 413Q243 367 158 342Q157 341 156 341Q140 337 129 340Q123 341 125 354Q126 366 142 380 Z"/>
<path id="z27733d3" d="M131 774Q119 778 122 797Q144 875 177 891Q184 898 195 894Q202 893 203 866Q207 820 232 749Q311 505 312 502Q311 492 301 499Q292 505 174 723Q161 748 131 774 Z"/>
<path id="z27733d4" d="M643 657Q664 258 669 235Q670 223 683 175Q687 162 664 146Q625 125 599 121Q581 117 572 127Q563 134 573 152Q603 195 603 226Q610 430 597 666L643 657 Z"/>
<path id="z27733d5" d="M828 630Q729 640 643 657L597 666Q518 679 451 700Q427 706 433 678Q437 614 444 547Q448 522 436 507Q420 488 394 475Q381 469 371 472Q361 476 369 497Q399 561 390 628Q383 691 358 719Q339 738 347 753Q359 769 377 780Q392 789 404 778Q440 730 728 678Q792 666 821 670L828 630 Z"/>
<path id="z27733d6" d="M821 670Q811 721 836 771Q848 789 860 775Q885 745 884 653Q893 479 901 463Q901 459 904 455Q911 437 899 423Q877 407 840 388Q825 381 812 389Q805 393 808 408Q830 438 831 564Q828 612 828 630L821 670 Z"/>
<defs>
	<clipPath id="z27733c1"><use xlink:href="#z27733d1"/></clipPath>
	<clipPath id="z27733c2"><use xlink:href="#z27733d2"/></clipPath>
	<clipPath id="z27733c3"><use xlink:href="#z27733d3"/></clipPath>
	<clipPath id="z27733c4"><use xlink:href="#z27733d4"/></clipPath>
	<clipPath id="z27733c5"><use xlink:href="#z27733d5"/></clipPath>
	<clipPath id="z27733c6"><use xlink:href="#z27733d6"/></clipPath>
</defs>
<path pathLength="3333" clip-path="url(#z27733c1)" d="M225 151L304 193L355 253"/>
<path pathLength="3333" clip-path="url(#z27733c2)" d="M132 347L245 443"/>
<path pathLength="3333" clip-path="url(#z27733c3)" d="M191 887L169 792L306 506"/>
<path pathLength="3333" clip-path="url(#z27733c4)" d="M575 132L641 186L610 662"/>
<path pathLength="3333" clip-path="url(#z27733c5)" d="M374 478L415 538L392 721L408 740L825 642"/>
<path pathLength="3333" clip-path="url(#z27733c6)" d="M815 393L865 452L853 777"/>
</svg>