<!--
AnimCJK 2016-2019 Copyright Francois Mizessyn - https://github.com/parsimonhi/animCJK
Derived from:
    MakeMeAHanzi project - https://github.com/skishore/makemeahanzi
    Arphic PL KaitiM GB font
    Arphic PL UKai font
You can redistribute and/or modify this file under the terms of the Arphic Public License
as published by Arphic Technology Co., Ltd.
You should have received a copy of this license along with this file.
If not, see http://ftp.gnu.org/non-gnu/chinese-fonts-truetype/LICENSE.
-->
<svg id="z27735" class="acjk" version="1.1" viewBox="0 0 1024 1024" xmlns="http://www.w3.org/2000/svg" xmlns:xlink="http://www.w3.org/1999/xlink">
<style>
<![CDATA[
@keyframes zk {
	to {
		stroke-dashoffset:0;
	}
}
svg.acjk path[clip-path] {
	--t:0.8s;
	animation:zk var(--t) linear forwards var(--d);
	stroke-dasharray:3337;
	stroke-dashoffset:3339;
	stroke-width:128;
	stroke-linecap:round;
	fill:none;
	stroke:#000;
}
svg.acjk path[id] {fill:#ccc;}
]]>
</style>
<path id="z27735d1" d="M259 153C277 167 295 184 315 203C325 212 336 215 348 215C356 214 362 209 365 200C368 189 366 172 358 151C350 130 314 114 252 101C240 98 232 98 228 101C224 103 222 109 225 119C227 127 239 138 259 153Z"/>
<path id="z27735d2" d="M144 339C175 382 199 412 224 423C234 427 244 423 251 415C256 407 259 395 258 384C253 349 220 322 162 300C150 295 140 294 134 296C129 296 128 300 129 310C129 318 135 327 144 339Z"/>
<path id="z27735d3" d="M149 706C141 710 137 716 139 728C147 778 164 809 188 825C193 828 198 830 206 829C211 827 213 818 215 801C219 762 254 665 317 509C321 498 323 490 323 486C322 479 319 478 313 483C306 487 264 548 188 666C179 678 167 694 149 706Z"/>
<path id="z27735d4" d="M630 202C734 180 787 167 791 165C797 160 798 154 795 148C790 139 778 132 758 128C741 124 698 136 626 154C566 168 516 173 478 178C453 181 448 191 467 202C492 217 525 223 562 216C607 207 607 207 630 202Z"/>
<path id="z27735d5" d="M649 445C737 436 794 435 924 438C938 438 947 434 951 428C955 419 951 409 939 400C901 371 867 359 840 365C791 374 728 388 649 399C610 404 610 404 590 407C518 416 442 426 362 436C346 437 343 444 356 457C366 467 378 474 391 478C407 482 420 482 433 479C481 465 534 456 590 451C629 447 629 447 649 445Z"/>
<path id="z27735d6" d="M647 853C651 796 654 740 652 684C650 647 649 567 649 445C649 414 649 414 649 399C649 348 652 296 661 244C663 231 659 220 649 213C642 208 636 204 630 202C609 193 550 196 562 216C578 244 590 277 590 407C590 436 590 436 590 451C590 671 592 813 597 876C598 894 600 911 609 925C612 930 617 932 623 930C635 924 643 898 647 853Z"/>
<defs>
	<clipPath id="z27735c1"><use xlink:href="#z27735d1"/></clipPath>
	<clipPath id="z27735c2"><use xlink:href="#z27735d2"/></clipPath>
	<clipPath id="z27735c3"><use xlink:href="#z27735d3"/></clipPath>
	<clipPath id="z27735c4"><use xlink:href="#z27735d4"/></clipPath>
	<clipPath id="z27735c5"><use xlink:href="#z27735d5"/></clipPath>
	<clipPath id="z27735c6"><use xlink:href="#z27735d6"/></clipPath>
</defs>
<path style="--d:1s;" pathLength="3333" clip-path="url(#z27735c1)" d="M232 108L318 158L356 207"/>
<path style="--d:2s;" pathLength="3333" clip-path="url(#z27735c2)" d="M136 304L243 416"/>
<path style="--d:3s;" pathLength="3333" clip-path="url(#z27735c3)" d="M 145,718 188,762 317,490"/>
<path style="--d:4s;" pathLength="3333" clip-path="url(#z27735c4)" d="M465 189L793 153"/>
<path style="--d:5s;" pathLength="3333" clip-path="url(#z27735c5)" d="M353 443L409 456L840 402L946 412"/>
<path style="--d:6s;" pathLength="3333" clip-path="url(#z27735c6)" d="M571 221L621 252L623 922"/>
</svg>