<!--
AnimCJK 2016-2019 Copyright Francois Mizessyn - https://github.com/parsimonhi/animCJK
Derived from:
    MakeMeAHanzi project - https://github.com/skishore/makemeahanzi
    Arphic PL KaitiM GB font
    Arphic PL UKai font
You can redistribute and/or modify this file under the terms of the Arphic Public License
as published by Arphic Technology Co., Ltd.
You should have received a copy of this license along with this file.
If not, see http://ftp.gnu.org/non-gnu/chinese-fonts-truetype/LICENSE.
-->
<svg id="z27754" class="acjk" version="1.1" viewBox="0 0 1024 1024" xmlns="http://www.w3.org/2000/svg" xmlns:xlink="http://www.w3.org/1999/xlink">
<style>
<![CDATA[
@keyframes zk {
	to {
		stroke-dashoffset:0;
	}
}
svg.acjk path[clip-path] {
	--t:0.8s;
	animation:zk var(--t) linear forwards var(--d);
	stroke-dasharray:3337;
	stroke-dashoffset:3339;
	stroke-width:128;
	stroke-linecap:round;
	fill:none;
	stroke:#000;
}
svg.acjk path[id] {fill:#ccc;}
]]>
</style>
<path id="z27754d1" d="M263 180Q288 202 317 230Q333 245 351 244Q363 243 368 227Q374 211 363 177Q351 146 257 125Q239 121 232 125Q226 129 228 144Q232 157 263 180Z"/>
<path id="z27754d2" d="M165 377Q207 431 238 448Q253 452 263 439Q270 426 268 409Q264 384 246 370Q221 351 180 339Q164 332 154 336Q147 337 149 350Q150 362 165 377Z"/>
<path id="z27754d3" d="M144 721Q131 725 133 742Q145 815 179 837Q186 844 196 842Q203 841 206 815Q212 770 328 504Q335 488 335 482Q334 472 325 478Q310 487 188 677Q175 699 144 721Z"/>
<path id="z27754d4" d="M621 289Q693 273 773 256Q824 243 831 236Q841 227 836 217Q827 204 794 196Q761 190 647 230Q497 261 455 266Q413 273 443 292Q485 316 566 301C603 293 603 293 621 289Z"/>
<path id="z27754d5" d="M629 518Q794 482 799 477Q808 470 803 460Q796 448 766 440Q735 434 705 446Q668 458 630 469C597 478 597 478 580 482Q514 495 438 502Q401 508 427 526Q472 548 551 532Q564 529 580 527C613 521 613 521 629 518Z"/>
<path id="z27754d6" d="M624 723Q625 614 629 518C630 485 630 485 630 469Q633 303 634 302Q627 293 621 289C606 278 562 283 566 301Q576 337 580 426Q580 448 580 482C580 512 580 512 580 527Q579 606 578 728C578 743 624 738 624 723Z"/>
<path id="z27754d7" d="M578 728Q463 740 334 753Q312 754 328 773Q343 789 361 795Q383 801 401 797Q587 752 876 762Q898 762 919 763Q941 764 946 755Q953 742 935 727Q878 685 840 692Q759 705 624 723C593 726 593 726 578 728Z"/>
<defs>
	<clipPath id="z27754c1"><use xlink:href="#z27754d1"/></clipPath>
	<clipPath id="z27754c2"><use xlink:href="#z27754d2"/></clipPath>
	<clipPath id="z27754c3"><use xlink:href="#z27754d3"/></clipPath>
	<clipPath id="z27754c4"><use xlink:href="#z27754d4"/></clipPath>
	<clipPath id="z27754c5"><use xlink:href="#z27754d5"/></clipPath>
	<clipPath id="z27754c6"><use xlink:href="#z27754d6"/></clipPath>
	<clipPath id="z27754c7"><use xlink:href="#z27754d7"/></clipPath>
</defs>
<path style="--d:1s;" pathLength="3333" clip-path="url(#z27754c1)" d="M231 135L308 174L360 234"/>
<path style="--d:2s;" pathLength="3333" clip-path="url(#z27754c2)" d="M155 341L259 440"/>
<path style="--d:3s;" pathLength="3333" clip-path="url(#z27754c3)" d="M192 835L178 745L328 484"/>
<path style="--d:4s;" pathLength="3333" clip-path="url(#z27754c4)" d="M439 277L506 283L832 222"/>
<path style="--d:5s;" pathLength="3333" clip-path="url(#z27754c5)" d="M423 512L511 516L801 465"/>
<path style="--d:6s;" pathLength="3333" clip-path="url(#z27754c6)" d="M573 306L604 328L601 725"/>
<path style="--d:7s;" pathLength="3333" clip-path="url(#z27754c7)" d="M327 760L385 773L837 726L943 752"/>
</svg>