<!--
AnimCJK 2016-2019 Copyright Francois Mizessyn - https://github.com/parsimonhi/animCJK
Derived from:
    MakeMeAHanzi project - https://github.com/skishore/makemeahanzi
    Arphic PL KaitiM GB font
    Arphic PL UKai font
You can redistribute and/or modify this file under the terms of the Arphic Public License
as published by Arphic Technology Co., Ltd.
You should have received a copy of this license along with this file.
If not, see http://ftp.gnu.org/non-gnu/chinese-fonts-truetype/LICENSE.
-->
<svg id="z27762" class="acjk" version="1.1" viewBox="0 0 1024 1024" xmlns="http://www.w3.org/2000/svg" xmlns:xlink="http://www.w3.org/1999/xlink">
<style>
<![CDATA[
@keyframes zk {
	to {
		stroke-dashoffset:0;
	}
}
svg.acjk path[clip-path] {
	--t:0.8s;
	animation:zk var(--t) linear forwards var(--d);
	stroke-dasharray:3337;
	stroke-dashoffset:3339;
	stroke-width:128;
	stroke-linecap:round;
	fill:none;
	stroke:#000;
}
svg.acjk path[id] {fill:#ccc;}
]]>
</style>
<path id="z27762d1" d="M223 185C238 197 253 214 271 231C281 240 292 243 304 243C312 242 317 237 320 227C322 216 322 200 315 179C308 158 273 144 216 133C205 130 197 130 192 133C187 135 186 141 189 151C191 159 204 169 223 185Z"/>
<path id="z27762d2" d="M109 373C143 414 169 440 190 448C199 451 209 448 215 439C220 430 222 420 220 409C214 380 182 356 124 334C113 330 104 330 98 332C93 333 91 337 93 346C93 354 99 362 109 373Z"/>
<path id="z27762d3" d="M112 722C104 726 99 731 101 743C109 795 126 827 148 842C153 845 158 847 166 846C170 845 173 836 176 819C180 788 224 677 308 485C312 474 315 466 315 462C314 455 311 454 305 458C297 462 248 533 159 674C148 689 134 708 112 722Z"/>
<path id="z27762d4" d="M447 258Q477 336 386 573Q376 595 366 616Q318 712 237 804Q233 810 229 815Q226 825 236 824Q266 824 346 727Q364 705 381 678Q415 620 444 549C449 535 449 535 451 528Q463 495 506 333Q510 317 516 302Q526 289 520 277Q508 261 485 246C474 239 442 246 447 258Z"/>
<path id="z27762d5" d="M595 714Q490 813 369 859Q342 866 344 871Q345 883 416 864Q530 833 629 756C655 731 655 731 668 718Q735 634 761 536Q773 484 801 460Q807 456 806 447Q803 425 747 398Q726 389 700 402Q690 409 656 421Q626 428 651 380Q729 233 753 218Q772 208 776 197Q780 184 736 159Q685 132 651 154Q459 217 381 224Q357 227 359 238Q360 248 393 258Q412 264 447 258C472 250 472 250 485 246Q495 240 644 200Q660 196 664 204Q671 222 612 357Q594 384 577 402Q561 418 569 435Q576 451 587 460Q596 467 604 466Q611 466 626 458Q635 452 665 446Q695 445 705 457Q715 469 703 509Q681 614 635 668Q631 674 626 680C605 703 605 703 595 714Z"/>
<path id="z27762d6" d="M629 756Q734 876 769 881Q931 881 942 880Q981 877 978 866Q975 860 796 797Q750 776 668 718C640 693 640 693 626 680Q575 631 523 570Q487 531 451 528C444 527 438 545 444 549Q495 582 595 714C618 742 618 742 629 756Z"/>
<defs>
	<clipPath id="z27762c1"><use xlink:href="#z27762d1"/></clipPath>
	<clipPath id="z27762c2"><use xlink:href="#z27762d2"/></clipPath>
	<clipPath id="z27762c3"><use xlink:href="#z27762d3"/></clipPath>
	<clipPath id="z27762c4"><use xlink:href="#z27762d4"/></clipPath>
	<clipPath id="z27762c5"><use xlink:href="#z27762d5"/></clipPath>
	<clipPath id="z27762c6"><use xlink:href="#z27762d6"/></clipPath>
</defs>
<path style="--d:1s;" pathLength="3333" clip-path="url(#z27762c1)" d="M195 142L316 231"/>
<path style="--d:2s;" pathLength="3333" clip-path="url(#z27762c2)" d="M99 337L211 439"/>
<path style="--d:3s;" pathLength="3333" clip-path="url(#z27762c3)" d="M109 741L148 785L308 464"/>
<path style="--d:4s;" pathLength="3333" clip-path="url(#z27762c4)" d="M453 262L488 296L423 540L350 687L235 816"/>
<path style="--d:5s;" pathLength="3333" clip-path="url(#z27762c5)" d="M364 235L443 236L663 172L701 181L720 208L604 425L634 441L720 423L757 460L699 618L614 733L501 813L352 870"/>
<path style="--d:6s;" pathLength="3333" clip-path="url(#z27762c6)" d="M454 535L757 826L972 868"/>
</svg>