<!--
AnimCJK 2016-2025 Copyright FM-SH - https://github.com/parsimonhi/animCJK
Derived from:
    MakeMeAHanzi project - https://github.com/skishore/makemeahanzi
    Arphic PL KaitiM GB font
    Arphic PL UKai font
You can redistribute and/or modify this file under the terms of the Arphic Public License
as published by Arphic Technology Co., Ltd.
You should have received a copy of this license along with this file.
If not, see http://ftp.gnu.org/non-gnu/chinese-fonts-truetype/LICENSE.
-->
<svg id="z27780" class="acjk" version="1.1" viewBox="0 0 1024 1024" xmlns="http://www.w3.org/2000/svg" xmlns:xlink="http://www.w3.org/1999/xlink">
<style>
<![CDATA[
@keyframes zk {
	to {
		stroke-dashoffset:0;
	}
}
svg.acjk path[clip-path] {
	--t:0.8s;
	animation:zk var(--t) linear forwards var(--d);
	stroke-dasharray:3337;
	stroke-dashoffset:3339;
	stroke-width:128;
	stroke-linecap:round;
	fill:none;
	stroke:#000;
}
svg.acjk path[id] {fill:#ccc;}
]]>
</style>
<path id="z27780d1" d="M235 208C251 220 268 236 287 253C296 262 309 266 323 265C331 263 337 258 340 248C342 235 340 216 332 195C327 181 313 170 292 165C239 151 208 147 200 152C195 154 194 162 197 173C199 180 212 192 235 208Z"/>
<path id="z27780d2" d="M139 400C163 428 183 454 211 466C220 470 231 465 238 455C243 446 245 434 243 422C239 402 229 389 217 380C212 377 190 369 152 356C139 351 131 352 126 355C121 356 119 360 121 370C121 378 128 386 139 400Z"/>
<path id="z27780d3" d="M141 746C134 750 129 755 132 767C141 815 160 844 184 859C188 861 193 863 201 862C204 860 207 851 209 835C210 802 244 696 310 516C314 505 315 498 315 494C313 487 311 486 305 491C298 495 257 564 182 699C173 713 160 731 141 746Z"/>
<path id="z27780d4" d="M518 278C489 282 486 291 507 304C536 321 573 322 618 311C663 299 711 289 759 278C781 272 793 267 796 264C802 257 804 250 800 245C794 236 780 228 758 225C735 221 712 226 690 235C666 244 640 253 614 260C584 267 551 272 518 278Z"/>
<path id="z27780d5" d="M613 482C655 474 750 457 906 457C920 457 930 454 933 448C936 439 931 429 921 422C883 397 853 389 829 396C748 416 596 447 394 481C379 483 377 489 389 501C405 517 433 523 471 514C497 507 534 496 564 491C597 485 597 485 613 482Z"/>
<path id="z27780d6" d="M770 699C691 709 609 723 525 743C504 747 503 741 512 728C585 615 631 550 650 532C657 524 659 517 655 509C651 502 637 493 613 482C598 476 561 475 564 491C568 509 569 527 566 544C557 587 525 645 468 716C455 731 435 742 417 758C399 772 407 794 439 820C447 826 455 826 464 819C499 790 606 759 784 724C793 722 779 697 770 699Z"/>
<path id="z27780d7" d="M784 724C822 792 840 831 846 834C851 837 858 835 866 830C876 823 882 803 883 772C883 741 861 704 817 660C781 624 752 597 732 580C727 575 721 576 718 584C714 592 715 601 721 611C736 637 752 667 770 699C779 716 779 716 784 724Z"/>
<defs>
	<clipPath id="z27780c1"><use xlink:href="#z27780d1"/></clipPath>
	<clipPath id="z27780c2"><use xlink:href="#z27780d2"/></clipPath>
	<clipPath id="z27780c3"><use xlink:href="#z27780d3"/></clipPath>
	<clipPath id="z27780c4"><use xlink:href="#z27780d4"/></clipPath>
	<clipPath id="z27780c5"><use xlink:href="#z27780d5"/></clipPath>
	<clipPath id="z27780c6"><use xlink:href="#z27780d6"/></clipPath>
	<clipPath id="z27780c7"><use xlink:href="#z27780d7"/></clipPath>
</defs>
<path style="--d:1s;" pathLength="3333" clip-path="url(#z27780c1)" d="M203 158L296 208L331 255"/>
<path style="--d:2s;" pathLength="3333" clip-path="url(#z27780c2)" d="M128 360L233 457"/>
<path style="--d:3s;" pathLength="3333" clip-path="url(#z27780c3)" d="M134 759L192 807L308 498"/>
<path style="--d:4s;" pathLength="3333" clip-path="url(#z27780c4)" d="M500 289L796 250"/>
<path style="--d:5s;" pathLength="3333" clip-path="url(#z27780c5)" d="M390 492L839 426L927 434"/>
<path style="--d:6s;" pathLength="3333" clip-path="url(#z27780c6)" d="M571 486L611 533L466 746L468 775L780 715"/>
<path style="--d:7s;" pathLength="3333" clip-path="url(#z27780c7)" d="M725 583L831 732L856 831"/>
</svg>