<!--
AnimCJK 2016-2025 Copyright FM-SH - https://github.com/parsimonhi/animCJK
Derived from:
    MakeMeAHanzi project - https://github.com/skishore/makemeahanzi
    Arphic PL KaitiM GB font
    Arphic PL UKai font
You can redistribute and/or modify this file under the terms of the Arphic Public License
as published by Arphic Technology Co., Ltd.
You should have received a copy of this license along with this file.
If not, see http://ftp.gnu.org/non-gnu/chinese-fonts-truetype/LICENSE.
-->
<svg id="z27781" class="acjk" version="1.1" viewBox="0 0 1024 1024" xmlns="http://www.w3.org/2000/svg" xmlns:xlink="http://www.w3.org/1999/xlink">
<style>
<![CDATA[
@keyframes zk {
	to {
		stroke-dashoffset:0;
	}
}
svg.acjk path[clip-path] {
	--t:0.8s;
	animation:zk var(--t) linear forwards var(--d);
	stroke-dasharray:3337;
	stroke-dashoffset:3339;
	stroke-width:128;
	stroke-linecap:round;
	fill:none;
	stroke:#000;
}
svg.acjk path[id] {fill:#ccc;}
]]>
</style>
<path id="z27781d1" d="M215 208C232 220 249 236 267 253C277 262 289 266 303 265C311 263 317 258 320 248C322 235 320 217 312 195C307 182 294 170 272 165C220 151 188 147 180 152C175 154 174 163 177 173C179 181 193 192 215 208Z"/>
<path id="z27781d2" d="M119 400C142 429 164 454 191 466C201 470 211 465 218 455C223 446 225 435 223 422C219 403 210 389 197 380C193 377 171 369 132 356C120 351 111 352 106 355C101 356 99 360 101 370C101 378 108 387 119 400Z"/>
<path id="z27781d3" d="M121 746C114 750 109 755 112 767C122 815 140 844 164 859C169 862 174 864 181 862C185 860 188 852 189 835C190 802 223 696 290 516C294 505 295 498 295 494C293 487 291 486 285 491C278 495 237 564 162 699C153 713 141 731 121 746Z"/>
<path id="z27781d4" d="M449 229C418 234 415 245 439 258C472 276 512 276 560 262C603 248 648 237 694 225C714 219 726 214 730 211C736 204 738 197 733 190C726 181 710 173 686 170C661 166 637 173 613 184C590 193 565 200 540 209C511 217 481 223 449 229Z"/>
<path id="z27781d5" d="M627 430C648 425 709 416 809 405C817 404 827 402 832 392C835 382 823 373 807 365C776 349 743 350 702 361C578 391 473 406 389 417C377 418 365 420 353 422C330 425 327 433 345 447C371 467 395 475 418 470C464 459 517 451 576 440C610 433 610 433 627 430Z"/>
<path id="z27781d6" d="M440 519C447 607 385 706 253 816C250 818 247 820 244 823C239 827 238 831 243 833C259 839 296 820 355 779C406 742 451 682 489 598C495 583 503 570 513 557C517 550 518 544 515 538C511 531 499 522 481 511C468 503 458 499 452 501C443 503 439 509 440 519Z"/>
<path id="z27781d7" d="M970 790C957 754 947 705 940 644C938 633 934 625 930 622C924 617 919 623 917 638C906 714 896 759 886 773C872 789 829 802 758 803C726 803 664 803 652 768C643 745 636 703 637 643C637 576 646 527 659 496C667 475 665 458 651 447C642 440 635 434 627 430C612 421 570 424 576 440C588 466 593 495 592 534C587 692 597 785 621 811C638 829 668 841 708 849C742 855 788 858 845 857C895 856 930 849 951 839C971 827 977 812 970 790Z"/>
<defs>
	<clipPath id="z27781c1"><use xlink:href="#z27781d1"/></clipPath>
	<clipPath id="z27781c2"><use xlink:href="#z27781d2"/></clipPath>
	<clipPath id="z27781c3"><use xlink:href="#z27781d3"/></clipPath>
	<clipPath id="z27781c4"><use xlink:href="#z27781d4"/></clipPath>
	<clipPath id="z27781c5"><use xlink:href="#z27781d5"/></clipPath>
	<clipPath id="z27781c6"><use xlink:href="#z27781d6"/></clipPath>
	<clipPath id="z27781c7"><use xlink:href="#z27781d7"/></clipPath>
</defs>
<path style="--d:1s;" pathLength="3333" clip-path="url(#z27781c1)" d="M183 160L271 204L304 259"/>
<path style="--d:2s;" pathLength="3333" clip-path="url(#z27781c2)" d="M109 365L177 410L207 462"/>
<path style="--d:3s;" pathLength="3333" clip-path="url(#z27781c3)" d="M114 757L181 799L289 499"/>
<path style="--d:4s;" pathLength="3333" clip-path="url(#z27781c4)" d="M431 243L731 198"/>
<path style="--d:5s;" pathLength="3333" clip-path="url(#z27781c5)" d="M338 432L409 443L711 387L828 385"/>
<path style="--d:6s;" pathLength="3333" clip-path="url(#z27781c6)" d="M449 508L477 552L418 676L360 747L249 825"/>
<path style="--d:7s;" pathLength="3333" clip-path="url(#z27781c7)" d="M582 434L627 479L617 714L656 808L796 829L920 805L926 626"/>
</svg>