<!--
AnimCJK 2016-2018 Copyright Francois Mizessyn, https://github.com/parsimonhi/animCJK
Derived from:
    MakeMeAHanzi project - https://github.com/skishore/makemeahanzi
    Arphic PL KaitiM GB - https://apps.ubuntu.com/cat/applications/precise/fonts-arphic-gkai00mp/
    Arphic PL UKai - https://apps.ubuntu.com/cat/applications/fonts-arphic-ukai/
You can redistribute and/or modify this file under the terms of the Arphic Public License
as published by Arphic Technology Co., Ltd.
You should have received a copy of this license (the directory "APL") along with this file;
if not, see http://ftp.gnu.org/non-gnu/chinese-fonts-truetype/LICENSE.
-->
<svg id="z27801" class="acjk" version="1.1" viewBox="0 0 1024 1024" xmlns="http://www.w3.org/2000/svg" xmlns:xlink="http://www.w3.org/1999/xlink">
<style>
<![CDATA[
@keyframes z27801k {
	from {
		stroke:#c00;
		stroke-dashoffset:3334;
	}
	75% {
		stroke:#c00;
		stroke-dashoffset:0;
	}
	to {
		stroke:#000;
	}
}
#z27801 path[clip-path] {
	animation:z27801k 1s linear both;
	stroke-dasharray:3334;
	stroke-width:128;
	stroke-linecap:round;
	fill:none;
}
#z27801 path[clip-path="url(#z27801c1)"] {animation-delay:1s;}
#z27801 path[clip-path="url(#z27801c2)"] {animation-delay:2s;}
#z27801 path[clip-path="url(#z27801c3)"] {animation-delay:3s;}
#z27801 path[clip-path="url(#z27801c4)"] {animation-delay:4s;}
#z27801 path[clip-path="url(#z27801c5)"] {animation-delay:5s;}
#z27801 path[clip-path="url(#z27801c6)"] {animation-delay:6s;}
#z27801 path[clip-path="url(#z27801c7)"] {animation-delay:7s;}
#z27801 path {fill:#ccc;}
]]>
</style>
<path id="z27801d1" d="M234 181Q262 206 293 237Q308 252 326 251Q339 251 344 235Q350 219 340 184Q328 150 229 126Q211 122 204 125Q198 129 200 144Q204 157 234 181 Z"/>
<path id="z27801d2" d="M144 388Q198 445 235 459Q250 462 259 447Q265 434 262 417Q247 375 158 349Q157 348 156 348Q138 344 129 348Q123 349 126 362Q127 374 144 388 Z"/>
<path id="z27801d3" d="M138 722Q125 725 128 743Q140 821 176 841Q183 848 194 846Q201 845 203 818Q213 761 324 497Q331 481 331 474Q330 464 321 471Q305 480 183 676Q168 698 138 722 Z"/>
<path id="z27801d4" d="M566 108Q602 169 587 433Q577 487 593 522Q594 525 596 529Q606 545 622 536Q634 526 635 446Q626 368 646 213Q647 185 666 147Q673 137 661 122Q603 77 573 88Q560 92 566 108 Z"/>
<path id="z27801d5" d="M447 334Q425 392 393 445Q372 472 392 512Q401 528 421 516Q443 500 456 467Q474 427 474 391Q478 357 471 333Q465 324 460 324Q451 325 447 334 Z"/>
<path id="z27801d6" d="M764 290Q821 324 890 375Q912 393 929 394Q939 394 945 381Q955 365 931 320Q913 280 834 266Q785 259 758 256Q748 252 748 266Q751 281 764 290 Z"/>
<path id="z27801d7" d="M718 415Q718 595 523 777Q511 786 500 796Q442 851 302 940Q292 947 299 952Q308 956 321 952Q526 883 634 738Q695 666 757 540Q776 503 802 467Q812 457 807 445Q800 433 768 410Q746 394 734 395Q718 398 718 415 Z"/>
<defs>
	<clipPath id="z27801c1"><use xlink:href="#z27801d1"/></clipPath>
	<clipPath id="z27801c2"><use xlink:href="#z27801d2"/></clipPath>
	<clipPath id="z27801c3"><use xlink:href="#z27801d3"/></clipPath>
	<clipPath id="z27801c4"><use xlink:href="#z27801d4"/></clipPath>
	<clipPath id="z27801c5"><use xlink:href="#z27801d5"/></clipPath>
	<clipPath id="z27801c6"><use xlink:href="#z27801d6"/></clipPath>
	<clipPath id="z27801c7"><use xlink:href="#z27801d7"/></clipPath>
</defs>
<path pathLength="3333" clip-path="url(#z27801c1)" d="M207 129L338 242"/>
<path pathLength="3333" clip-path="url(#z27801c2)" d="M130 355L254 449"/>
<path pathLength="3333" clip-path="url(#z27801c3)" d="M190 842L175 743L326 477"/>
<path pathLength="3333" clip-path="url(#z27801c4)" d="M571 94L624 143L608 534"/>
<path pathLength="3333" clip-path="url(#z27801c5)" d="M459 329L397 514"/>
<path pathLength="3333" clip-path="url(#z27801c6)" d="M756 265L883 322L941 381"/>
<path pathLength="3333" clip-path="url(#z27801c7)" d="M730 402L760 465L630 701L498 834L304 948"/>
</svg>