<!--
AnimCJK 2016-2019 Copyright Francois Mizessyn - https://github.com/parsimonhi/animCJK
Derived from:
    MakeMeAHanzi project - https://github.com/skishore/makemeahanzi
    Arphic PL KaitiM GB font
    Arphic PL UKai font
You can redistribute and/or modify this file under the terms of the Arphic Public License
as published by Arphic Technology Co., Ltd.
You should have received a copy of this license along with this file.
If not, see http://ftp.gnu.org/non-gnu/chinese-fonts-truetype/LICENSE.
-->
<svg id="z27803" class="acjk" version="1.1" viewBox="0 0 1024 1024" xmlns="http://www.w3.org/2000/svg" xmlns:xlink="http://www.w3.org/1999/xlink">
<style>
<![CDATA[
@keyframes zk {
	to {
		stroke-dashoffset:0;
	}
}
svg.acjk path[clip-path] {
	--t:0.8s;
	animation:zk var(--t) linear forwards var(--d);
	stroke-dasharray:3337;
	stroke-dashoffset:3339;
	stroke-width:128;
	stroke-linecap:round;
	fill:none;
	stroke:#000;
}
svg.acjk path[id] {fill:#ccc;}
]]>
</style>
<path id="z27803d1" d="M259 157Q287 182 319 211Q335 224 352 223Q364 222 369 208Q373 192 363 159Q351 125 252 105Q236 101 228 105Q222 109 225 123Q229 136 259 157Z"/>
<path id="z27803d2" d="M148 344Q196 395 230 411Q246 412 255 399Q261 386 258 369Q246 329 160 304Q142 300 133 304Q127 305 130 318Q131 330 148 344Z"/>
<path id="z27803d3" d="M150 678Q138 682 140 700Q158 776 193 796Q200 803 211 800Q218 799 219 772Q223 721 314 477Q321 461 319 454Q318 444 309 451Q294 460 189 637Q176 658 150 678Z"/>
<path id="z27803d4" d="M639 288Q718 275 838 271Q895 267 901 260Q905 247 889 235Q829 195 762 217Q710 229 640 245C605 252 605 252 588 255Q488 273 375 293Q354 297 371 313Q386 326 404 330Q425 334 441 329Q508 307 588 296C622 291 622 291 639 288Z"/>
<path id="z27803d5" d="M460 431Q442 413 411 415Q398 419 404 431Q431 483 407 596Q395 638 396 644Q396 671 415 695Q422 708 432 703Q459 682 464 606Q470 500 473 470C473 456 471 439 460 431Z"/>
<path id="z27803d6" d="M636 434Q735 416 753 427Q766 431 770 452Q777 504 772 598Q773 623 750 623Q722 622 699 619Q683 618 687 627Q690 637 720 658Q756 688 777 721Q787 730 799 724Q806 720 819 690Q837 653 837 585Q830 444 842 424Q852 411 844 399Q832 387 786 370Q774 366 715 381Q649 393 636 396C603 403 603 403 587 406Q565 409 547 414Q498 424 460 431C447 434 459 472 473 470Q482 469 492 463Q526 453 587 442C620 437 620 437 636 434Z"/>
<path id="z27803d7" d="M636 396Q637 335 639 288C640 259 640 259 640 245Q643 160 663 129Q670 114 650 99Q626 80 584 69Q566 65 554 78Q544 85 556 97Q586 124 588 160Q588 200 588 255C588 282 588 282 588 296Q587 345 587 406C587 430 587 430 587 442Q587 643 581 749Q574 930 596 969Q611 984 619 963Q634 926 636 434C636 409 636 409 636 396Z"/>
<defs>
	<clipPath id="z27803c1"><use xlink:href="#z27803d1"/></clipPath>
	<clipPath id="z27803c2"><use xlink:href="#z27803d2"/></clipPath>
	<clipPath id="z27803c3"><use xlink:href="#z27803d3"/></clipPath>
	<clipPath id="z27803c4"><use xlink:href="#z27803d4"/></clipPath>
	<clipPath id="z27803c5"><use xlink:href="#z27803d5"/></clipPath>
	<clipPath id="z27803c6"><use xlink:href="#z27803d6"/></clipPath>
	<clipPath id="z27803c7"><use xlink:href="#z27803d7"/></clipPath>
</defs>
<path style="--d:1s;" pathLength="3333" clip-path="url(#z27803c1)" d="M231 114L322 165L361 213"/>
<path style="--d:2s;" pathLength="3333" clip-path="url(#z27803c2)" d="M134 308L252 396"/>
<path style="--d:3s;" pathLength="3333" clip-path="url(#z27803c3)" d="M206 793L188 694L310 453"/>
<path style="--d:4s;" pathLength="3333" clip-path="url(#z27803c4)" d="M376 303L782 242L897 250"/>
<path style="--d:5s;" pathLength="3333" clip-path="url(#z27803c5)" d="M409 422L445 478L428 699"/>
<path style="--d:6s;" pathLength="3333" clip-path="url(#z27803c6)" d="M477 464L491 443L565 428L784 404L808 429L796 642L772 674L693 626"/>
<path style="--d:7s;" pathLength="3333" clip-path="url(#z27803c7)" d="M558 83L625 132L608 968"/>
</svg>