<!--
AnimCJK 2016-2019 Copyright Francois Mizessyn - https://github.com/parsimonhi/animCJK
Derived from:
    MakeMeAHanzi project - https://github.com/skishore/makemeahanzi
    Arphic PL KaitiM GB font
    Arphic PL UKai font
You can redistribute and/or modify this file under the terms of the Arphic Public License
as published by Arphic Technology Co., Ltd.
You should have received a copy of this license along with this file.
If not, see http://ftp.gnu.org/non-gnu/chinese-fonts-truetype/LICENSE.
-->
<svg id="z27815" class="acjk" version="1.1" viewBox="0 0 1024 1024" xmlns="http://www.w3.org/2000/svg" xmlns:xlink="http://www.w3.org/1999/xlink">
<style>
<![CDATA[
@keyframes zk {
	to {
		stroke-dashoffset:0;
	}
}
svg.acjk path[clip-path] {
	--t:0.8s;
	animation:zk var(--t) linear forwards var(--d);
	stroke-dasharray:3337;
	stroke-dashoffset:3339;
	stroke-width:128;
	stroke-linecap:round;
	fill:none;
	stroke:#000;
}
svg.acjk path[id] {fill:#ccc;}
]]>
</style>
<path id="z27815d1" d="M229 194Q263 222 299 257Q314 272 331 271Q343 270 349 255Q353 239 344 207Q332 171 224 142Q208 138 200 141Q194 145 196 159Q200 172 229 194Z"/>
<path id="z27815d2" d="M141 399Q198 459 232 472Q248 475 259 459Q265 446 261 426Q249 383 156 356Q155 355 154 355Q135 351 125 355Q118 356 122 370Q123 383 141 399Z"/>
<path id="z27815d3" d="M120 754Q108 758 111 776Q129 854 165 871Q172 878 183 875Q190 874 191 847Q195 804 218 740Q291 518 291 514Q290 504 281 511Q269 518 160 710Q148 732 120 754Z"/>
<path id="z27815d4" d="M592 212Q608 182 625 166Q635 154 629 141Q625 128 594 105Q564 87 545 88Q526 91 535 113Q551 146 540 175Q504 271 449 361Q397 448 322 544Q312 554 310 561Q306 573 321 570Q379 554 516 344Q544 298 576 243Q577 239 578 237C587 220 587 220 592 212Z"/>
<path id="z27815d5" d="M578 237Q662 357 772 483Q791 504 824 502Q933 498 968 491Q978 488 980 483Q980 477 966 470Q806 410 738 349Q668 289 592 212C585 205 572 229 578 237Z"/>
<path id="z27815d6" d="M492 542Q501 533 627 500Q636 499 642 502Q651 506 650 523Q646 560 627 628Q623 652 599 646Q569 639 546 633Q531 630 535 639Q536 648 559 668Q590 698 606 729Q613 739 622 736Q629 735 645 714Q669 686 676 651Q700 530 716 517Q726 508 722 497Q715 485 680 462Q668 453 610 468Q607 468 471 504C457 507 480 551 492 542Z"/>
<path id="z27815d7" d="M869 796Q854 766 833 674Q832 658 825 654Q819 651 815 669Q794 768 777 799Q738 844 611 838Q562 837 525 821Q491 805 483 785Q456 731 492 542C495 528 483 513 471 504Q462 497 450 493Q437 489 429 493Q422 497 427 515Q440 554 436 590Q423 756 436 803Q440 828 464 850Q554 916 734 889Q752 885 771 881Q817 868 864 838Q883 822 869 796Z"/>
<defs>
	<clipPath id="z27815c1"><use xlink:href="#z27815d1"/></clipPath>
	<clipPath id="z27815c2"><use xlink:href="#z27815d2"/></clipPath>
	<clipPath id="z27815c3"><use xlink:href="#z27815d3"/></clipPath>
	<clipPath id="z27815c4"><use xlink:href="#z27815d4"/></clipPath>
	<clipPath id="z27815c5"><use xlink:href="#z27815d5"/></clipPath>
	<clipPath id="z27815c6"><use xlink:href="#z27815d6"/></clipPath>
	<clipPath id="z27815c7"><use xlink:href="#z27815d7"/></clipPath>
</defs>
<path style="--d:1s;" pathLength="3333" clip-path="url(#z27815c1)" d="M200 150L307 215L335 265"/>
<path style="--d:2s;" pathLength="3333" clip-path="url(#z27815c2)" d="M128 363L252 464"/>
<path style="--d:3s;" pathLength="3333" clip-path="url(#z27815c3)" d="M177 871L158 772L286 516"/>
<path style="--d:4s;" pathLength="3333" clip-path="url(#z27815c4)" d="M540 94L586 157L464 381L316 565"/>
<path style="--d:5s;" pathLength="3333" clip-path="url(#z27815c5)" d="M593 217L802 449L970 478"/>
<path style="--d:6s;" pathLength="3333" clip-path="url(#z27815c6)" d="M495 535L507 514L625 482L686 507L632 677L611 691L543 639"/>
<path style="--d:7s;" pathLength="3333" clip-path="url(#z27815c7)" d="M435 501L463 548L455 779L515 847L672 867L800 831L830 796L824 663"/>
</svg>