<!--
AnimCJK 2016-2025 Copyright FM-SH - https://github.com/parsimonhi/animCJK
Derived from:
    MakeMeAHanzi project - https://github.com/skishore/makemeahanzi
    Arphic PL KaitiM GB font
    Arphic PL UKai font
You can redistribute and/or modify this file under the terms of the Arphic Public License
as published by Arphic Technology Co., Ltd.
You should have received a copy of this license along with this file.
If not, see http://ftp.gnu.org/non-gnu/chinese-fonts-truetype/LICENSE.
-->
<svg id="z27825" class="acjk" version="1.1" viewBox="0 0 1024 1024" xmlns="http://www.w3.org/2000/svg" xmlns:xlink="http://www.w3.org/1999/xlink">
<style>
<![CDATA[
@keyframes zk {
	to {
		stroke-dashoffset:0;
	}
}
svg.acjk path[clip-path] {
	--t:0.8s;
	animation:zk var(--t) linear forwards var(--d);
	stroke-dasharray:3337;
	stroke-dashoffset:3339;
	stroke-width:128;
	stroke-linecap:round;
	fill:none;
	stroke:#000;
}
svg.acjk path[id] {fill:#ccc;}
]]>
</style>
<path id="z27825d1" d="M245 209C260 222 273 239 289 256C298 266 310 271 322 271C330 270 336 265 340 255C344 244 343 227 337 204C331 183 299 167 241 154C229 151 220 150 216 153C211 155 209 162 212 172C213 180 226 192 245 209Z"/>
<path id="z27825d2" d="M134 410C159 445 179 470 201 480C212 484 223 481 230 471C236 461 238 449 237 437C234 418 226 403 213 392C195 377 174 371 152 367C138 364 129 361 122 363C117 364 116 368 117 378C117 386 124 396 134 410Z"/>
<path id="z27825d3" d="M153 738C145 742 141 748 144 760C155 810 174 841 197 856C202 859 207 861 215 859C219 857 221 848 223 831C224 808 255 708 318 529C321 518 323 510 323 506C321 499 319 498 313 503C306 507 265 571 192 696C183 709 172 725 153 738Z"/>
<path id="z27825d4" d="M555 136Q612 193 647 205Q665 208 674 192Q681 176 676 157Q667 129 646 116Q597 88 551 88Q542 88 537 91Q530 92 534 107Q535 120 555 136Z"/>
<path id="z27825d5" d="M435 320C429 304 419 291 407 284C394 276 386 281 389 297C391 315 385 345 372 368C348 405 342 435 367 469C377 483 388 482 398 464C403 454 412 418 428 356C430 344 440 331 435 320Z"/>
<path id="z27825d6" d="M428 356C440 358 467 354 509 341C589 315 668 299 733 289C745 287 790 281 785 300C779 316 775 321 752 369C747 377 744 384 749 387C753 390 761 387 773 380C808 357 841 343 871 336C895 329 906 323 906 317C905 310 877 294 832 257C809 238 791 243 727 258C705 262 638 279 435 320C423 322 416 356 428 356Z"/>
<path id="z27825d7" d="M521 643C639 599 715 555 755 547C771 543 777 534 772 521C765 506 754 492 739 479C725 466 713 459 704 459C695 458 693 465 690 475C657 552 585 574 523 621C517 625 514 646 521 643Z"/>
<path id="z27825d8" d="M905 788C896 769 884 732 873 676C870 665 869 657 865 654C861 651 857 656 854 669C835 729 819 769 807 788C798 800 780 809 753 816C689 830 629 827 577 804C554 794 542 780 536 767C523 739 515 698 521 643C522 628 522 628 523 621C526 582 530 540 538 496C540 483 538 474 531 468C522 459 510 451 494 445C485 441 477 442 472 446C467 448 466 456 470 468C478 494 482 521 481 547C474 671 476 751 486 787C490 805 499 823 517 838C572 886 659 902 777 884C821 877 866 855 898 832C912 821 914 806 905 788Z"/>
<defs>
	<clipPath id="z27825c1"><use xlink:href="#z27825d1"/></clipPath>
	<clipPath id="z27825c2"><use xlink:href="#z27825d2"/></clipPath>
	<clipPath id="z27825c3"><use xlink:href="#z27825d3"/></clipPath>
	<clipPath id="z27825c4"><use xlink:href="#z27825d4"/></clipPath>
	<clipPath id="z27825c5"><use xlink:href="#z27825d5"/></clipPath>
	<clipPath id="z27825c6"><use xlink:href="#z27825d6"/></clipPath>
	<clipPath id="z27825c7"><use xlink:href="#z27825d7"/></clipPath>
	<clipPath id="z27825c8"><use xlink:href="#z27825d8"/></clipPath>
</defs>
<path style="--d:1s;" pathLength="3333" clip-path="url(#z27825c1)" d="M217 161L298 212L324 266"/>
<path style="--d:2s;" pathLength="3333" clip-path="url(#z27825c2)" d="M125 371L186 417L216 477"/>
<path style="--d:3s;" pathLength="3333" clip-path="url(#z27825c3)" d="M147 752L201 806L316 508"/>
<path style="--d:4s;" pathLength="3333" clip-path="url(#z27825c4)" d="M539 100L670 194"/>
<path style="--d:5s;" pathLength="3333" clip-path="url(#z27825c5)" d="M397 288L411 327L377 474"/>
<path style="--d:6s;" pathLength="3333" clip-path="url(#z27825c6)" d="M426 347L778 266L813 278L848 326L753 381"/>
<path style="--d:7s;" pathLength="3333" clip-path="url(#z27825c7)" d="M703 462L718 525L522 634"/>
<path style="--d:8s;" pathLength="3333" clip-path="url(#z27825c8)" d="M475 450L507 484L504 751L551 826L710 857L830 825L864 790L865 663"/>
</svg>