<!--
AnimCJK 2016-2018 Copyright Francois Mizessyn, http://gooo.free.fr/animCJK/
Derived from:
    MakeMeAHanzi project - https://github.com/skishore/makemeahanzi
    Arphic PL KaitiM GB - https://apps.ubuntu.com/cat/applications/precise/fonts-arphic-gkai00mp/
    Arphic PL UKai - https://apps.ubuntu.com/cat/applications/fonts-arphic-ukai/
You can redistribute and/or modify this file under the terms of the Arphic Public License
as published by Arphic Technology Co., Ltd.
You should have received a copy of this license (the directory "APL") along with this file;
if not, see http://ftp.gnu.org/non-gnu/chinese-fonts-truetype/LICENSE.
-->
<svg id="z27843" class="acjk" version="1.1" viewBox="0 0 1024 1024" xmlns="http://www.w3.org/2000/svg" xmlns:xlink="http://www.w3.org/1999/xlink">
<style>
<![CDATA[
@keyframes z27843k {
	from {
		stroke:#ccc;
		stroke-dashoffset:3334;
	}
	1% {
		stroke:#c00;
		stroke-dashoffset:3334;
	}
	75% {
		stroke:#c00;
		stroke-dashoffset:0;
	}
	to {
		stroke:#000;
	}
}
#z27843 path[clip-path] {
	animation:z27843k 1s linear both;
	stroke-dasharray:3334;
	stroke-width:128;
	stroke-linecap:round;
	fill:none;
}
#z27843 path[clip-path="url(#z27843c1)"] {animation-delay:1s;}
#z27843 path[clip-path="url(#z27843c2)"] {animation-delay:2s;}
#z27843 path[clip-path="url(#z27843c3)"] {animation-delay:3s;}
#z27843 path[clip-path="url(#z27843c4)"] {animation-delay:4s;}
#z27843 path[clip-path="url(#z27843c5)"] {animation-delay:5s;}
#z27843 path[clip-path="url(#z27843c6)"] {animation-delay:6s;}
#z27843 path[clip-path="url(#z27843c7)"] {animation-delay:7s;}
#z27843 path[clip-path="url(#z27843c8)"] {animation-delay:8s;}
#z27843 path {fill:#ccc;}
]]>
</style>
<path id="z27843d1" d="M 240,215 C 257,230 273,248 291,267 300,277 311,282 323,282 331,282 336,276 340,267 343,256 342,240 337,218 333,205 323,192 301,183 252,162 222,156 212,161 207,163 206,169 208,179 209,187 221,198 240,215 Z"/>
<path id="z27843d2" d="M 129,431 C 164,470 191,495 216,503 226,506 235,501 242,491 247,482 249,471 246,458 239,427 211,407 167,395 140,387 122,384 113,387 108,388 106,392 109,402 110,410 118,419 129,431 Z"/>
<path id="z27843d3" d="M 144,752 C 135,755 131,760 132,772 134,821 148,851 171,870 175,873 180,876 188,876 192,875 195,866 199,850 204,823 248,725 334,557 339,547 342,540 342,536 342,529 339,528 333,532 324,537 276,596 188,713 178,726 164,741 144,752 Z"/>
<path id="z27843d4" d="M 510,367 C 516,358 523,349 531,341 561,304 594,257 628,201 642,174 655,154 668,142 674,134 676,125 672,115 669,106 657,93 635,77 614,64 597,58 584,59 570,61 566,69 573,85 589,115 568,181 510,283 483,329 450,378 412,430 405,438 401,444 399,448 397,456 401,459 411,457 423,455 452,430 497,382 Z"/>
<path id="z27843d5" d="M 497,382 C 497,382 500,384 504,386 534,400 559,403 580,397 600,389 670,376 769,359 785,356 796,358 803,366 813,380 819,402 820,434 820,594 804,721 772,816 765,832 758,841 751,845 746,847 719,838 670,818 658,814 651,813 650,815 647,819 651,827 661,838 685,872 704,903 716,931 728,949 739,958 751,956 783,946 812,902 840,825 856,771 872,655 887,479 889,433 897,402 911,388 923,373 922,359 906,347 852,311 807,300 771,316 681,340 587,357 510,367 Z"/>
<path id="z27843d6" d="M 465,514 465,513 C 458,508 443,503 420,499 412,496 407,496 405,500 400,504 400,511 406,521 422,559 434,610 442,673 442,691 448,707 459,720 469,734 477,737 481,727 483,719 485,708 485,695 L 483,664 C 475,603 470,563 470,543 Z"/>
<path id="z27843d7" d="M 624,649 C 638,597 654,563 670,548 686,531 687,517 671,507 630,481 607,468 601,470 595,470 589,471 585,475 563,489 523,502 465,514 L 470,543 C 476,542 484,541 492,540 518,535 542,531 564,527 578,524 587,526 591,532 595,536 595,551 589,575 584,595 578,618 571,642 Z"/>
<path id="z27843d8" d="M 485,695 C 489,695 495,695 502,694 528,688 571,682 631,677 637,676 641,673 642,667 642,662 636,656 624,649 L 571,642 570,642 C 538,650 509,658 483,664 Z"/>
<defs>
	<clipPath id="z27843c1"><use xlink:href="#z27843d1"/></clipPath>
	<clipPath id="z27843c2"><use xlink:href="#z27843d2"/></clipPath>
	<clipPath id="z27843c3"><use xlink:href="#z27843d3"/></clipPath>
	<clipPath id="z27843c4"><use xlink:href="#z27843d4"/></clipPath>
	<clipPath id="z27843c5"><use xlink:href="#z27843d5"/></clipPath>
	<clipPath id="z27843c6"><use xlink:href="#z27843d6"/></clipPath>
	<clipPath id="z27843c7"><use xlink:href="#z27843d7"/></clipPath>
	<clipPath id="z27843c8"><use xlink:href="#z27843d8"/></clipPath>
</defs>
<path pathLength="3333" clip-path="url(#z27843c1)" d="M 215,168 303,227 324,278"/>
<path pathLength="3333" clip-path="url(#z27843c2)" d="M 114,394 241,486"/>
<path pathLength="3333" clip-path="url(#z27843c3)" d="M 184,866 178,772 336,537.7"/>
<path pathLength="3333" clip-path="url(#z27843c4)" d="M 576,64 624,132 531,300 405,449"/>
<path pathLength="3333" clip-path="url(#z27843c5)" d="M 504,378 790,334 868,385 796,845 747,902 657,819"/>
<path pathLength="3333" clip-path="url(#z27843c6)" d="M 410,508 441,533 471,727"/>
<path pathLength="3333" clip-path="url(#z27843c7)" d="M 471,516 594,500 637,527 599,645"/>
<path pathLength="3333" clip-path="url(#z27843c8)" d="M 493,687 572,662 635,668"/>
</svg>