<!--
AnimCJK 2016-2017 Copyright Francois Mizessyn, http://gooo.free.fr/animCJK/
Derived from:
    MakeMeAHanzi project - https://github.com/skishore/makemeahanzi
    Arphic PL KaitiM GB - https://apps.ubuntu.com/cat/applications/precise/fonts-arphic-gkai00mp/
    Arphic PL UKai - https://apps.ubuntu.com/cat/applications/fonts-arphic-ukai/
You can redistribute and/or modify this file under the terms of the Arphic Public License
as published by Arphic Technology Co., Ltd.
You should have received a copy of this license (the directory "APL") along with this file;
if not, see http://ftp.gnu.org/non-gnu/chinese-fonts-truetype/LICENSE.
-->
<svg id="z27850" class="acjk" version="1.1" viewBox="0 0 1024 1024" xmlns="http://www.w3.org/2000/svg" xmlns:xlink="http://www.w3.org/1999/xlink">
<style>
<![CDATA[
	@keyframes z27850k {
		from {
			stroke:#c00;
			stroke-dashoffset:3000;
		}
		75% {
			stroke:#c00;
			stroke-dashoffset:0;
		}
		to {
			stroke:#000;
		}
	}
	#z27850 path[clip-path] {
		animation:z27850k 1s linear both;
		stroke-dasharray:3000;
		stroke-width:128;
		stroke-linecap:round;
		fill:none;
	}
	#z27850 path[clip-path="url(#z27850c1)"] {animation-delay:1s;}
	#z27850 path[clip-path="url(#z27850c2)"] {animation-delay:2s;}
	#z27850 path[clip-path="url(#z27850c3)"] {animation-delay:3s;}
	#z27850 path[clip-path="url(#z27850c4)"] {animation-delay:4s;}
	#z27850 path[clip-path="url(#z27850c5)"] {animation-delay:5s;}
	#z27850 path[clip-path="url(#z27850c6)"] {animation-delay:6s;}
	#z27850 path[clip-path="url(#z27850c7)"] {animation-delay:7s;}
	#z27850 path[clip-path="url(#z27850c8)"] {animation-delay:8s;}
	#z27850 path {fill:#ccc;}
]]>
</style>
<g transform="scale(1,-1) translate(0,-900)">
	<path id="z27850d1" d="M273 718Q297 696 323 670Q339 654 358 656Q371 657 376 673Q382 691 371 725Q359 755 266 775Q247 779 240 776Q234 772 236 755Q240 742 273 718Z"/>
	<path id="z27850d2" d="M156 518Q204 457 241 438Q259 434 270 449Q277 464 276 483Q263 537 174 562Q173 563 172 563Q153 570 142 565Q135 564 137 550Q138 537 156 518Z"/>
	<path id="z27850d3" d="M165 185Q152 181 154 162Q166 81 207 58Q214 51 226 54Q235 55 236 83Q243 131 348 401Q357 419 355 425Q355 437 344 429Q334 423 208 229Q195 207 165 185Z"/>
	<path id="z27850d4" d="M518 513Q560 564 654 701Q670 728 695 748Q717 767 698 785Q676 800 640 807Q606 814 593 807Q578 800 588 786Q604 752 549 633Q521 575 489 509L518 513Z"/>
	<path id="z27850d5" d="M475 507Q450 528 421 537Q414 541 408 535Q399 531 408 517Q459 415 446 182Q443 122 478 87Q479 86 484 83Q502 76 505 109Q505 115 505 120L504 158Q501 182 493 301L491 332Q490 408 490 470L475 507Z"/>
	<path id="z27850d6" d="M710 138Q723 110 757 53Q767 34 779 37Q797 41 805 70Q839 154 835 261Q838 328 838 406Q842 458 866 492Q884 514 870 528Q845 550 794 571Q773 581 680 547Q593 526 518 513L489 509Q482 509 475 507L490 470Q496 470 503 471Q737 525 756 507Q768 491 770 471Q779 327 762 186Q761 161 751 158Q750 158 747 158L710 138Z"/>
	<path id="z27850d7" d="M493 301Q496 301 701 320Q732 324 721 341Q708 362 674 368Q632 375 491 332L493 301Z"/>
	<path id="z27850d8" d="M505 120Q541 132 710 138L747 158Q740 167 720 181Q704 191 670 185Q577 166 504 158L505 120Z"/>
	<defs>
		<clipPath id="z27850c1"><use xlink:href="#z27850d1"/></clipPath>
		<clipPath id="z27850c2"><use xlink:href="#z27850d2"/></clipPath>
		<clipPath id="z27850c3"><use xlink:href="#z27850d3"/></clipPath>
		<clipPath id="z27850c4"><use xlink:href="#z27850d4"/></clipPath>
		<clipPath id="z27850c5"><use xlink:href="#z27850d5"/></clipPath>
		<clipPath id="z27850c6"><use xlink:href="#z27850d6"/></clipPath>
		<clipPath id="z27850c7"><use xlink:href="#z27850d7"/></clipPath>
		<clipPath id="z27850c8"><use xlink:href="#z27850d8"/></clipPath>
	</defs>
	<path pathLength="2999" clip-path="url(#z27850c1)" d="M243 770L346 700L359 660"/>
	<path pathLength="2999" clip-path="url(#z27850c2)" d="M142 559L266 449"/>
	<path pathLength="2999" clip-path="url(#z27850c3)" d="M225 60L206 167L348 425"/>
	<path pathLength="2999" clip-path="url(#z27850c4)" d="M591 800L654 756L497 516"/>
	<path pathLength="2999" clip-path="url(#z27850c5)" d="M410 529L460 462L480 88"/>
	<path pathLength="2999" clip-path="url(#z27850c6)" d="M482 505L506 492L751 541L824 500L795 164L756 109L767 44"/>
	<path pathLength="2999" clip-path="url(#z27850c7)" d="M501 309L718 340"/>
	<path pathLength="2999" clip-path="url(#z27850c8)" d="M510 129L737 162"/>
</g>
</svg>