<!--
AnimCJK 2016-2018 Copyright Francois Mizessyn - https://github.com/parsimonhi/animCJK
Derived from:
    MakeMeAHanzi project - https://github.com/skishore/makemeahanzi
    Arphic PL KaitiM GB - https://apps.ubuntu.com/cat/applications/precise/fonts-arphic-gkai00mp/
    Arphic PL UKai - https://apps.ubuntu.com/cat/applications/fonts-arphic-ukai/
You can redistribute and/or modify this file under the terms of the Arphic Public License
as published by Arphic Technology Co., Ltd.
You should have received a copy of this license (the directory "APL") along with this file;
if not, see http://ftp.gnu.org/non-gnu/chinese-fonts-truetype/LICENSE.
-->
<svg id="z27883" class="acjk" version="1.1" viewBox="0 0 1024 1024" xmlns="http://www.w3.org/2000/svg" xmlns:xlink="http://www.w3.org/1999/xlink">
<style>
<![CDATA[
@keyframes z27883k {
	from {
		stroke:#ccc;
		stroke-dashoffset:3334;
	}
	1% {
		stroke:#c00;
		stroke-dashoffset:3334;
	}
	75% {
		stroke:#c00;
		stroke-dashoffset:0;
	}
	to {
		stroke:#000;
	}
}
#z27883 path[clip-path] {
	animation:z27883k 1s linear both;
	stroke-dasharray:3334;
	stroke-width:128;
	stroke-linecap:round;
	fill:none;
}
#z27883 path[clip-path="url(#z27883c1)"] {animation-delay:1s;}
#z27883 path[clip-path="url(#z27883c2)"] {animation-delay:2s;}
#z27883 path[clip-path="url(#z27883c3)"] {animation-delay:3s;}
#z27883 path[clip-path="url(#z27883c4)"] {animation-delay:4s;}
#z27883 path[clip-path="url(#z27883c5)"] {animation-delay:5s;}
#z27883 path[clip-path="url(#z27883c6)"] {animation-delay:6s;}
#z27883 path[clip-path="url(#z27883c7)"] {animation-delay:7s;}
#z27883 path[clip-path="url(#z27883c8)"] {animation-delay:8s;}
#z27883 path {fill:#ccc;}
]]>
</style>
<path id="z27883d1" d="M235 191Q265 219 295 251Q310 266 327 266Q339 266 345 251Q351 235 342 202Q333 168 232 139Q216 135 208 137Q202 141 203 155Q207 168 235 191Z"/>
<path id="z27883d2" d="M129 401Q192 464 233 480Q249 481 259 467Q265 454 261 436Q248 387 143 360Q142 359 141 359Q123 355 113 359Q106 360 110 374Q111 387 129 401Z"/>
<path id="z27883d3" d="M125 762Q112 765 114 783Q127 862 160 882Q167 889 178 887Q185 886 188 860Q197 808 312 549Q319 533 319 526Q318 516 309 522Q294 531 169 719Q156 741 125 762Z"/>
<path id="z27883d4" d="M539 177Q566 199 595 227Q611 240 628 239Q640 238 645 224Q649 208 638 175Q626 145 532 125Q514 121 508 125Q502 129 505 143Q509 156 539 177Z"/>
<path id="z27883d5" d="M532 384Q677 351 865 351Q889 351 893 341Q897 328 880 315Q823 278 786 288Q660 321 336 376Q314 380 331 397Q367 427 404 414Q446 401 492 392C519 387 519 387 532 384Z"/>
<path id="z27883d6" d="M590 604Q587 603 462 602Q431 602 448 584Q503 511 556 456Q572 440 569 432Q568 417 532 384C521 376 490 379 492 392Q501 431 429 543Q413 568 382 591Q363 604 364 617Q367 636 381 654Q391 666 403 659Q433 644 531 630Q556 627 576 622C583 621 598 604 590 604Z"/>
<path id="z27883d7" d="M714 755Q612 765 497 790Q464 799 487 775Q541 715 665 597Q702 557 735 537Q751 527 744 514Q735 492 699 465Q683 452 671 454Q659 455 659 475Q659 514 590 604C581 616 581 616 576 622Q575 623 574 625Q430 781 395 796Q377 805 379 821Q379 837 407 862Q417 878 436 865Q565 802 726 778C734 776 723 755 714 755Z"/>
<path id="z27883d8" d="M726 778Q774 874 784 881Q791 885 801 878Q817 869 818 824Q819 767 686 656Q679 649 674 660Q670 673 676 685Q695 716 714 755C722 770 722 770 726 778Z"/>
<defs>
	<clipPath id="z27883c1"><use xlink:href="#z27883d1"></use></clipPath>
	<clipPath id="z27883c2"><use xlink:href="#z27883d2"></use></clipPath>
	<clipPath id="z27883c3"><use xlink:href="#z27883d3"></use></clipPath>
	<clipPath id="z27883c4"><use xlink:href="#z27883d4"></use></clipPath>
	<clipPath id="z27883c5"><use xlink:href="#z27883d5"></use></clipPath>
	<clipPath id="z27883c6"><use xlink:href="#z27883d6"></use></clipPath>
	<clipPath id="z27883c7"><use xlink:href="#z27883d7"></use></clipPath>
	<clipPath id="z27883c8"><use xlink:href="#z27883d8"></use></clipPath>
</defs>
<path pathLength="3333" clip-path="url(#z27883c1)" d="M210 142L304 208L330 262"/>
<path pathLength="3333" clip-path="url(#z27883c2)" d="M114 364L256 468"/>
<path pathLength="3333" clip-path="url(#z27883c3)" d="M175 883L164 777L311 528"/>
<path pathLength="3333" clip-path="url(#z27883c4)" d="M512 132L598 182L636 231"/>
<path pathLength="3333" clip-path="url(#z27883c5)" d="M330 383L385 393L777 321L889 332"/>
<path pathLength="3333" clip-path="url(#z27883c6)" d="M500 396L525 441L407 617L581 608"/>
<path pathLength="3333" clip-path="url(#z27883c7)" d="M670 458L695 522L428 803L448 830L720 771"/>
<path pathLength="3333" clip-path="url(#z27883c8)" d="M682 661L780 807L796 878"/>
</svg>