<!--
AnimCJK 2016-2017 Copyright Francois Mizessyn, http://gooo.free.fr/animCJK/
Derived from:
    MakeMeAHanzi project - https://github.com/skishore/makemeahanzi
    Arphic PL KaitiM GB - https://apps.ubuntu.com/cat/applications/precise/fonts-arphic-gkai00mp/
    Arphic PL UKai - https://apps.ubuntu.com/cat/applications/fonts-arphic-ukai/
You can redistribute and/or modify this file under the terms of the Arphic Public License
as published by Arphic Technology Co., Ltd.
You should have received a copy of this license (the directory "APL") along with this file;
if not, see http://ftp.gnu.org/non-gnu/chinese-fonts-truetype/LICENSE.
-->
<svg id="z27882" class="acjk" version="1.1" viewBox="0 0 1024 1024" xmlns="http://www.w3.org/2000/svg" xmlns:xlink="http://www.w3.org/1999/xlink">
<style>
<![CDATA[
	@keyframes z27882k {
		from {
			stroke:#c00;
			stroke-dashoffset:3000;
		}
		75% {
			stroke:#c00;
			stroke-dashoffset:0;
		}
		to {
			stroke:#000;
		}
	}
	#z27882 path[clip-path] {
		animation:z27882k 1s linear both;
		stroke-dasharray:3000;
		stroke-width:128;
		stroke-linecap:round;
		fill:none;
	}
	#z27882 path[clip-path="url(#z27882c1)"] {animation-delay:1s;}
	#z27882 path[clip-path="url(#z27882c2)"] {animation-delay:2s;}
	#z27882 path[clip-path="url(#z27882c3)"] {animation-delay:3s;}
	#z27882 path[clip-path="url(#z27882c4)"] {animation-delay:4s;}
	#z27882 path[clip-path="url(#z27882c5)"] {animation-delay:5s;}
	#z27882 path[clip-path="url(#z27882c6)"] {animation-delay:6s;}
	#z27882 path[clip-path="url(#z27882c7)"] {animation-delay:7s;}
	#z27882 path[clip-path="url(#z27882c8)"] {animation-delay:8s;}
	#z27882 path {fill:#ccc;}
]]>
</style>
<g transform="scale(1,-1) translate(0,-900)">
	<path id="z27882d1" d="M248 706Q273 681 301 650Q316 634 334 634Q346 634 352 649Q359 665 350 700Q346 721 313 738Q238 771 220 763Q214 759 215 744Q219 731 248 706Z"/>
	<path id="z27882d2" d="M137 505Q194 445 228 432Q244 429 255 445Q261 458 257 478Q245 521 152 548Q151 549 150 549Q131 553 121 549Q114 548 118 534Q119 521 137 505Z"/>
	<path id="z27882d3" d="M143 142Q130 138 132 119Q148 40 186 19Q193 12 204 15Q213 16 213 44Q220 96 329 382Q336 398 335 406Q334 416 325 409Q310 400 188 190Q175 166 143 142Z"/>
	<path id="z27882d4" d="M473 665Q461 681 430 692Q420 696 407 692Q400 688 405 673Q426 588 427 580Q427 295 405 202Q372 153 422 85Q422 84 424 82Q436 67 447 81Q454 91 458 101L464 140Q468 170 468 217Q468 260 469 297L470 328Q471 392 474 443L475 473Q479 626 482 627L473 665Z"/>
	<path id="z27882d5" d="M685 127Q722 81 749 39Q759 18 772 19Q791 20 808 59Q827 104 823 157Q810 311 801 597Q800 633 817 658Q827 674 817 685Q795 707 734 732Q713 742 696 731Q635 701 473 665L482 627Q507 631 680 673Q707 679 721 669Q760 630 743 189Q740 173 740 159Q736 144 726 144L685 127Z"/>
	<path id="z27882d6" d="M474 443Q484 442 496 444Q596 466 670 479Q697 485 686 499Q673 515 643 519Q607 522 475 473L474 443Z"/>
	<path id="z27882d7" d="M469 297Q470 297 680 324Q707 328 697 343Q685 359 655 366Q630 370 470 328L469 297Z"/>
	<path id="z27882d8" d="M458 101Q465 100 478 102Q545 117 685 127L726 144Q722 154 694 173Q675 183 641 175Q544 153 464 140L458 101Z"/>
	<defs>
		<clipPath id="z27882c1"><use xlink:href="#z27882d1"/></clipPath>
		<clipPath id="z27882c2"><use xlink:href="#z27882d2"/></clipPath>
		<clipPath id="z27882c3"><use xlink:href="#z27882d3"/></clipPath>
		<clipPath id="z27882c4"><use xlink:href="#z27882d4"/></clipPath>
		<clipPath id="z27882c5"><use xlink:href="#z27882d5"/></clipPath>
		<clipPath id="z27882c6"><use xlink:href="#z27882d6"/></clipPath>
		<clipPath id="z27882c7"><use xlink:href="#z27882d7"/></clipPath>
		<clipPath id="z27882c8"><use xlink:href="#z27882d8"/></clipPath>
	</defs>
	<path pathLength="2999" clip-path="url(#z27882c1)" d="M222 758L346 646"/>
	<path pathLength="2999" clip-path="url(#z27882c2)" d="M124 541L248 440"/>
	<path pathLength="2999" clip-path="url(#z27882c3)" d="M199 20L181 119L328 403"/>
	<path pathLength="2999" clip-path="url(#z27882c4)" d="M411 689L442 656L453 586L434 79"/>
	<path pathLength="2999" clip-path="url(#z27882c5)" d="M490 635L708 706L775 664L780 133L750 68L693 118"/>
	<path pathLength="2999" clip-path="url(#z27882c6)" d="M480 451L684 494"/>
	<path pathLength="2999" clip-path="url(#z27882c7)" d="M478 306L690 340"/>
	<path pathLength="2999" clip-path="url(#z27882c8)" d="M464 109L653 151L717 145"/>
</g>
</svg>