<!--
AnimCJK 2016-2018 Copyright Francois Mizessyn - https://github.com/parsimonhi/animCJK
Derived from:
    MakeMeAHanzi project - https://github.com/skishore/makemeahanzi
    Arphic PL KaitiM GB - https://apps.ubuntu.com/cat/applications/precise/fonts-arphic-gkai00mp/
    Arphic PL UKai - https://apps.ubuntu.com/cat/applications/fonts-arphic-ukai/
You can redistribute and/or modify this file under the terms of the Arphic Public License
as published by Arphic Technology Co., Ltd.
You should have received a copy of this license (the directory "APL") along with this file;
if not, see http://ftp.gnu.org/non-gnu/chinese-fonts-truetype/LICENSE.
-->
<svg id="z27893" class="acjk" version="1.1" viewBox="0 0 1024 1024" xmlns="http://www.w3.org/2000/svg" xmlns:xlink="http://www.w3.org/1999/xlink">
<style>
<![CDATA[
@keyframes z27893k {
	from {
		stroke:#ccc;
		stroke-dashoffset:3334;
	}
	1% {
		stroke:#c00;
		stroke-dashoffset:3334;
	}
	75% {
		stroke:#c00;
		stroke-dashoffset:0;
	}
	to {
		stroke:#000;
	}
}
#z27893 path[clip-path] {
	animation:z27893k 1s linear both;
	stroke-dasharray:3334;
	stroke-width:128;
	stroke-linecap:round;
	fill:none;
}
#z27893 path[clip-path="url(#z27893c1)"] {animation-delay:1s;}
#z27893 path[clip-path="url(#z27893c2)"] {animation-delay:2s;}
#z27893 path[clip-path="url(#z27893c3)"] {animation-delay:3s;}
#z27893 path[clip-path="url(#z27893c4)"] {animation-delay:4s;}
#z27893 path[clip-path="url(#z27893c5)"] {animation-delay:5s;}
#z27893 path[clip-path="url(#z27893c6)"] {animation-delay:6s;}
#z27893 path[clip-path="url(#z27893c7)"] {animation-delay:7s;}
#z27893 path[clip-path="url(#z27893c8)"] {animation-delay:8s;}
#z27893 path[clip-path="url(#z27893c9)"] {animation-delay:9s;}
#z27893 path {fill:#ccc;}
]]>
</style>
<path id="z27893d1" d="M470 165Q545 155 784 139Q796 142 806 129Q809 116 785 103Q748 81 689 92Q475 125 312 133Q282 134 251 137Q220 138 242 159Q275 192 308 185Q359 178 417 171L470 165 Z"/>
<path id="z27893d2" d="M395 287Q419 257 481 201Q491 191 489 182Q488 172 470 165L417 171Q380 276 121 449Q102 462 126 460Q198 457 356 324L395 287 Z"/>
<path id="z27893d3" d="M356 324Q374 369 385 436Q386 461 401 477Q417 498 423 483Q426 474 427 461L424 428Q414 340 413 318L395 287L356 324 Z"/>
<path id="z27893d4" d="M413 318Q423 317 435 313Q511 300 584 285Q603 281 610 289Q617 296 616 314Q607 357 596 393L649 397Q673 328 703 312Q719 294 705 276Q633 218 579 245Q513 269 395 287L413 318 Z"/>
<path id="z27893d5" d="M487 451Q551 438 661 428Q671 427 672 419Q672 412 649 397L596 393Q502 417 424 428L427 461Q430 461 436 460Q442 459 452 457L487 451 Z"/>
<path id="z27893d6" d="M536 568Q539 537 548 515Q557 496 540 482Q515 460 487 451L452 457Q452 463 459 472Q481 512 481 558Q487 801 465 819Q459 823 383 809Q370 806 371 814Q372 821 382 830Q448 893 470 931Q486 950 502 935Q541 895 540 825Q537 795 535 602L536 568 Z"/>
<path id="z27893d7" d="M204 561Q191 560 190 568Q189 575 202 583Q242 608 268 601Q356 582 363 583Q373 587 360 606Q311 694 264 736Q218 784 132 832Q116 842 125 845Q135 848 154 842Q229 815 291 770Q349 728 424 620Q436 601 447 592Q462 583 455 573Q448 560 415 544Q397 532 352 547Q276 560 204 561 Z"/>
<path id="z27893d8" d="M609 629Q655 605 749 548Q768 535 793 527Q815 520 806 501Q796 482 771 466Q749 450 737 452Q724 452 727 465Q728 495 661 556Q628 584 594 617L609 629 Z"/>
<path id="z27893d9" d="M594 617Q566 593 536 568L535 602Q632 713 756 828Q778 847 810 844Q922 829 957 820Q967 816 968 811Q968 805 952 799Q790 760 699 695Q656 664 609 629L594 617 Z"/>
<defs>
	<clipPath id="z27893c1"><use xlink:href="#z27893d1"/></clipPath>
	<clipPath id="z27893c2"><use xlink:href="#z27893d2"/></clipPath>
	<clipPath id="z27893c3"><use xlink:href="#z27893d3"/></clipPath>
	<clipPath id="z27893c4"><use xlink:href="#z27893d4"/></clipPath>
	<clipPath id="z27893c5"><use xlink:href="#z27893d5"/></clipPath>
	<clipPath id="z27893c6"><use xlink:href="#z27893d6"/></clipPath>
	<clipPath id="z27893c7"><use xlink:href="#z27893d7"/></clipPath>
	<clipPath id="z27893c8"><use xlink:href="#z27893d8"/></clipPath>
	<clipPath id="z27893c9"><use xlink:href="#z27893d9"/></clipPath>
</defs>
<path pathLength="3333" clip-path="url(#z27893c1)" d="M239 144L300 160L709 116L799 126"/>
<path pathLength="3333" clip-path="url(#z27893c2)" d="M481 178L436 199L268 368L120 454"/>
<path pathLength="3333" clip-path="url(#z27893c3)" d="M388 301L410 481"/>
<path pathLength="3333" clip-path="url(#z27893c4)" d="M405 292L626 264L663 302L610 393"/>
<path pathLength="3333" clip-path="url(#z27893c5)" d="M433 453L593 414L667 417"/>
<path pathLength="3333" clip-path="url(#z27893c6)" d="M459 459L513 508L504 828L472 890L377 815"/>
<path pathLength="3333" clip-path="url(#z27893c7)" d="M195 567L256 580L366 562L411 587L291 741L132 841"/>
<path pathLength="3333" clip-path="url(#z27893c8)" d="M734 461L758 510L604 621"/>
<path pathLength="3333" clip-path="url(#z27893c9)" d="M538 577L778 790L961 811"/>
</svg>