<!--
AnimCJK 2016-2025 Copyright FM-SH - https://github.com/parsimonhi/animCJK
Derived from:
    MakeMeAHanzi project - https://github.com/skishore/makemeahanzi
    Arphic PL KaitiM GB font
    Arphic PL UKai font
You can redistribute and/or modify this file under the terms of the Arphic Public License
as published by Arphic Technology Co., Ltd.
You should have received a copy of this license along with this file.
If not, see http://ftp.gnu.org/non-gnu/chinese-fonts-truetype/LICENSE.
-->
<svg id="z27947" class="acjk" version="1.1" viewBox="0 0 1024 1024" xmlns="http://www.w3.org/2000/svg" xmlns:xlink="http://www.w3.org/1999/xlink">
<style>
<![CDATA[
@keyframes zk {
	to {
		stroke-dashoffset:0;
	}
}
svg.acjk path[clip-path] {
	--t:0.8s;
	animation:zk var(--t) linear forwards var(--d);
	stroke-dasharray:3337;
	stroke-dashoffset:3339;
	stroke-width:128;
	stroke-linecap:round;
	fill:none;
	stroke:#000;
}
svg.acjk path[id] {fill:#ccc;}
]]>
</style>
<path id="z27947d1" d="M224 210C243 225 262 245 283 266C293 276 305 280 318 280C326 279 332 274 336 264C340 251 338 233 331 211C323 188 285 169 218 153C205 149 196 149 192 152C187 154 185 161 188 173C189 181 203 193 224 210Z"/>
<path id="z27947d2" d="M99 400C126 433 149 458 175 470C185 474 195 469 202 459C207 450 209 439 207 426C203 407 195 393 182 384C152 362 122 353 94 353C90 353 87 354 86 355C81 356 79 360 81 370C81 378 88 387 99 400Z"/>
<path id="z27947d3" d="M107 758C100 762 96 767 99 779C109 828 128 857 152 870C157 873 162 875 169 874C173 872 175 864 177 847C179 816 189 780 204 736C254 583 279 505 279 502C278 495 275 494 269 499C260 505 219 575 148 710C139 725 127 743 107 758Z"/>
<path id="z27947d4" d="M442 446C555 264 590 205 616 179C628 166 629 153 617 144C603 134 583 129 561 126C540 122 525 123 517 129C508 134 510 138 513 148C526 209 495 280 417 451C414 459 437 453 442 446Z"/>
<path id="z27947d5" d="M373 458C361 451 348 447 335 445C326 443 318 443 313 449C308 453 309 460 315 469C331 492 345 515 354 541C362 565 376 627 397 725C400 738 440 734 437 721C413 603 401 528 401 497C401 481 387 465 373 458Z"/>
<path id="z27947d6" d="M794 678C816 569 837 492 865 450C871 440 875 432 872 425C866 412 840 398 797 379C784 373 773 373 763 376C664 401 557 422 442 446C425 449 425 449 417 451C401 454 386 455 373 458C357 461 386 503 401 497C423 489 449 484 479 476C495 471 495 471 503 469C534 459 568 453 603 446C638 439 638 439 655 435C696 426 779 400 773 460C766 522 750 598 731 687C727 708 790 699 794 678Z"/>
<path id="z27947d7" d="M538 710C545 645 537 536 503 469C500 461 478 468 479 476C485 512 487 545 491 585C497 652 499 695 517 713C521 719 538 717 538 710Z"/>
<path id="z27947d8" d="M624 701C666 537 673 502 684 477C688 465 690 458 684 453C676 446 667 440 655 435C639 428 600 429 603 446C617 508 611 580 595 704C593 714 622 711 624 701Z"/>
<path id="z27947d9" d="M397 725C355 729 312 732 270 737C255 738 253 744 264 757C273 767 284 775 297 779C311 783 325 783 337 781C493 743 679 727 897 734C915 734 933 734 951 735C965 735 974 733 978 727C982 718 979 708 967 699C939 678 910 667 879 666C849 665 820 674 794 678C752 684 752 684 731 687C697 691 661 697 624 701C605 703 605 703 595 704C576 705 557 707 538 710C524 712 524 712 517 713C490 716 463 718 437 721C410 724 410 724 397 725Z"/>
<defs>
	<clipPath id="z27947c1"><use xlink:href="#z27947d1"/></clipPath>
	<clipPath id="z27947c2"><use xlink:href="#z27947d2"/></clipPath>
	<clipPath id="z27947c3"><use xlink:href="#z27947d3"/></clipPath>
	<clipPath id="z27947c4"><use xlink:href="#z27947d4"/></clipPath>
	<clipPath id="z27947c5"><use xlink:href="#z27947d5"/></clipPath>
	<clipPath id="z27947c6"><use xlink:href="#z27947d6"/></clipPath>
	<clipPath id="z27947c7"><use xlink:href="#z27947d7"/></clipPath>
	<clipPath id="z27947c8"><use xlink:href="#z27947d8"/></clipPath>
	<clipPath id="z27947c9"><use xlink:href="#z27947d9"/></clipPath>
</defs>
<path style="--d:1s;" pathLength="3333" clip-path="url(#z27947c1)" d="M194 160L289 218L322 275"/>
<path style="--d:2s;" pathLength="3333" clip-path="url(#z27947c2)" d="M88 362L196 464"/>
<path style="--d:3s;" pathLength="3333" clip-path="url(#z27947c3)" d="M102 772L163 813L272 502"/>
<path style="--d:4s;" pathLength="3333" clip-path="url(#z27947c4)" d="M517 134L571 173L425 448"/>
<path style="--d:5s;" pathLength="3333" clip-path="url(#z27947c5)" d="M318 453L371 502L420 729"/>
<path style="--d:6s;" pathLength="3333" clip-path="url(#z27947c6)" d="M376 467L739 401L792 411L823 444L751 697"/>
<path style="--d:7s;" pathLength="3333" clip-path="url(#z27947c7)" d="M493 469L524 713"/>
<path style="--d:8s;" pathLength="3333" clip-path="url(#z27947c8)" d="M609 441L648 477L608 707"/>
<path style="--d:9s;" pathLength="3333" clip-path="url(#z27947c9)" d="M267 747L330 756L864 699L975 722"/>
</svg>