<!--
AnimCJK 2016-2017 Copyright Francois Mizessyn, http://gooo.free.fr/animCJK/
Derived from:
    MakeMeAHanzi project - https://github.com/skishore/makemeahanzi
    Arphic PL KaitiM GB - https://apps.ubuntu.com/cat/applications/precise/fonts-arphic-gkai00mp/
    Arphic PL UKai - https://apps.ubuntu.com/cat/applications/fonts-arphic-ukai/
You can redistribute and/or modify this file under the terms of the Arphic Public License
as published by Arphic Technology Co., Ltd.
You should have received a copy of this license (the directory "APL") along with this file;
if not, see http://ftp.gnu.org/non-gnu/chinese-fonts-truetype/LICENSE.
-->
<svg id="z27946" class="acjk" version="1.1" viewBox="0 0 1024 1024" xmlns="http://www.w3.org/2000/svg" xmlns:xlink="http://www.w3.org/1999/xlink">
<style>
<![CDATA[
	@keyframes z27946k {
		from {
			stroke:#c00;
			stroke-dashoffset:3000;
		}
		75% {
			stroke:#c00;
			stroke-dashoffset:0;
		}
		to {
			stroke:#000;
		}
	}
	#z27946 path[clip-path] {
		animation:z27946k 1s linear both;
		stroke-dasharray:3000;
		stroke-width:128;
		stroke-linecap:round;
		fill:none;
	}
	#z27946 path[clip-path="url(#z27946c1)"] {animation-delay:1s;}
	#z27946 path[clip-path="url(#z27946c2)"] {animation-delay:2s;}
	#z27946 path[clip-path="url(#z27946c3)"] {animation-delay:3s;}
	#z27946 path[clip-path="url(#z27946c4)"] {animation-delay:4s;}
	#z27946 path[clip-path="url(#z27946c5)"] {animation-delay:5s;}
	#z27946 path[clip-path="url(#z27946c6)"] {animation-delay:6s;}
	#z27946 path[clip-path="url(#z27946c7)"] {animation-delay:7s;}
	#z27946 path[clip-path="url(#z27946c8)"] {animation-delay:8s;}
	#z27946 path[clip-path="url(#z27946c9)"] {animation-delay:9s;}
	#z27946 path {fill:#ccc;}
]]>
</style>
<g transform="scale(1,-1) translate(0,-900)">
	<path id="z27946d1" d="M239 656Q263 634 289 607Q305 592 322 593Q335 593 340 609Q346 625 336 659Q324 690 233 710Q215 714 208 711Q202 707 204 692Q208 679 239 656Z"/>
	<path id="z27946d2" d="M152 468Q189 423 226 406Q242 403 251 417Q257 430 254 447Q242 486 164 508Q146 512 137 508Q131 507 134 494Q135 482 152 468Z"/>
	<path id="z27946d3" d="M136 139Q124 135 127 118Q139 49 174 29Q181 22 191 25Q198 26 199 50Q203 90 297 337Q304 353 303 358Q302 368 293 362Q287 359 174 179Q162 160 136 139Z"/>
	<path id="z27946d4" d="M720 523Q825 545 839 557Q848 564 843 572Q836 584 808 591Q778 600 728 578L673 561Q646 555 534 526L482 517Q440 513 397 508Q363 502 387 486Q426 462 481 475Q482 476 484 475L534 485Q598 500 669 513L720 523Z"/>
	<path id="z27946d5" d="M534 526Q537 652 537 656Q533 662 528 666Q503 687 473 698Q457 705 447 698Q438 691 445 674Q475 613 482 517L484 475Q485 418 491 330L536 336Q535 421 534 485L534 526Z"/>
	<path id="z27946d6" d="M696 359Q708 444 720 523L728 578Q737 671 765 751Q769 763 749 781Q713 803 688 810Q672 816 662 807Q653 800 660 783Q682 744 681 719Q680 643 673 561L669 513Q662 437 651 352L696 359Z"/>
	<path id="z27946d7" d="M491 330Q413 321 332 309Q311 308 327 291Q340 278 358 273Q377 267 394 272Q601 329 939 329Q958 329 963 338Q969 348 952 362Q895 404 838 385Q778 375 696 359L651 352Q638 352 626 349Q583 343 536 336L491 330Z"/>
	<path id="z27946d8" d="M468 235Q472 184 390 105Q368 83 311 39Q302 35 312 31Q394 31 529 168Q536 175 540 177Q547 181 548 192Q544 222 507 239Q488 249 476 248Q467 247 468 235Z"/>
	<path id="z27946d9" d="M665 215Q723 139 792 33Q805 8 822 0Q831 -3 842 6Q858 19 853 70Q850 133 673 250Q663 257 659 244Q655 229 665 215Z"/>
	<defs>
		<clipPath id="z27946c1"><use xlink:href="#z27946d1"/></clipPath>
		<clipPath id="z27946c2"><use xlink:href="#z27946d2"/></clipPath>
		<clipPath id="z27946c3"><use xlink:href="#z27946d3"/></clipPath>
		<clipPath id="z27946c4"><use xlink:href="#z27946d4"/></clipPath>
		<clipPath id="z27946c5"><use xlink:href="#z27946d5"/></clipPath>
		<clipPath id="z27946c6"><use xlink:href="#z27946d6"/></clipPath>
		<clipPath id="z27946c7"><use xlink:href="#z27946d7"/></clipPath>
		<clipPath id="z27946c8"><use xlink:href="#z27946d8"/></clipPath>
		<clipPath id="z27946c9"><use xlink:href="#z27946d9"/></clipPath>
	</defs>
	<path pathLength="2999" clip-path="url(#z27946c1)" d="M211 701L296 652L322 597"/>
	<path pathLength="2999" clip-path="url(#z27946c2)" d="M138 501L249 421"/>
	<path pathLength="2999" clip-path="url(#z27946c3)" d="M188 34L173 126L297 356"/>
	<path pathLength="2999" clip-path="url(#z27946c4)" d="M387 497L485 496L840 572"/>
	<path pathLength="2999" clip-path="url(#z27946c5)" d="M451 695L502 624L505 333"/>
	<path pathLength="2999" clip-path="url(#z27946c6)" d="M664 801L722 741L662 356"/>
	<path pathLength="2999" clip-path="url(#z27946c7)" d="M329 300L856 359L959 350"/>
	<path pathLength="2999" clip-path="url(#z27946c8)" d="M476 237L500 186L318 36"/>
	<path pathLength="2999" clip-path="url(#z27946c9)" d="M666 247L810 79L831 3"/>
</g>
</svg>