<!--
AnimCJK 2016-2017 Copyright Francois Mizessyn, http://gooo.free.fr/animCJK/
Derived from:
    MakeMeAHanzi project - https://github.com/skishore/makemeahanzi
    Arphic PL KaitiM GB - https://apps.ubuntu.com/cat/applications/precise/fonts-arphic-gkai00mp/
    Arphic PL UKai - https://apps.ubuntu.com/cat/applications/fonts-arphic-ukai/
You can redistribute and/or modify this file under the terms of the Arphic Public License
as published by Arphic Technology Co., Ltd.
You should have received a copy of this license (the directory "APL") along with this file;
if not, see http://ftp.gnu.org/non-gnu/chinese-fonts-truetype/LICENSE.
-->
<svg id="z27974" class="acjk" version="1.1" viewBox="0 0 1024 1024" xmlns="http://www.w3.org/2000/svg" xmlns:xlink="http://www.w3.org/1999/xlink">
<style>
<![CDATA[
	@keyframes z27974k {
		from {
			stroke:#c00;
			stroke-dashoffset:3000;
		}
		75% {
			stroke:#c00;
			stroke-dashoffset:0;
		}
		to {
			stroke:#000;
		}
	}
	#z27974 path[clip-path] {
		animation:z27974k 1s linear both;
		stroke-dasharray:3000;
		stroke-width:128;
		stroke-linecap:round;
		fill:none;
	}
	#z27974 path[clip-path="url(#z27974c1)"] {animation-delay:1s;}
	#z27974 path[clip-path="url(#z27974c2)"] {animation-delay:2s;}
	#z27974 path[clip-path="url(#z27974c3)"] {animation-delay:3s;}
	#z27974 path[clip-path="url(#z27974c4)"] {animation-delay:4s;}
	#z27974 path[clip-path="url(#z27974c5)"] {animation-delay:5s;}
	#z27974 path[clip-path="url(#z27974c6)"] {animation-delay:6s;}
	#z27974 path[clip-path="url(#z27974c7)"] {animation-delay:7s;}
	#z27974 path[clip-path="url(#z27974c8)"] {animation-delay:8s;}
	#z27974 path[clip-path="url(#z27974c9)"] {animation-delay:9s;}
	#z27974 path[clip-path="url(#z27974c10)"] {animation-delay:10s;}
	#z27974 path {fill:#ccc;}
]]>
</style>
<g transform="scale(1,-1) translate(0,-900)">
	<path id="z27974d1" d="M240 657Q262 638 286 615Q298 603 312 604Q321 605 325 616Q329 629 321 655Q312 682 235 698Q222 701 216 699Q212 695 213 684Q216 674 240 657Z"/>
	<path id="z27974d2" d="M374 575Q289 532 182 481Q169 474 145 471Q133 467 134 458Q134 445 144 440Q166 430 199 418Q209 417 218 426Q239 451 356 535Q365 542 373 549L374 575Z"/>
	<path id="z27974d3" d="M373 549Q372 483 370 435Q371 407 379 387Q385 375 394 382Q413 397 414 477Q421 571 424 655Q427 718 433 745Q442 764 430 776Q414 789 386 802Q364 811 342 802Q330 793 344 778Q369 739 374 586Q373 582 374 575L373 549Z"/>
	<path id="z27974d4" d="M539 613Q546 622 556 630Q575 649 597 674L619 700Q643 740 671 762Q678 769 676 781Q673 791 652 812Q631 828 615 830Q600 829 605 811Q624 757 463 577Q454 570 452 564Q449 555 460 557Q475 560 525 600L539 613Z"/>
	<path id="z27974d5" d="M597 674Q619 664 703 682Q724 686 731 678Q734 671 720 648Q669 543 545 438Q532 426 546 426Q643 444 778 629Q797 656 830 683Q845 693 839 702Q838 712 779 734Q761 744 742 731Q721 721 691 713Q654 706 619 700L597 674Z"/>
	<path id="z27974d6" d="M525 600Q532 582 584 531Q593 524 604 522Q614 521 621 536Q622 546 616 563Q607 581 585 591Q555 607 539 613L525 600Z"/>
	<path id="z27974d7" d="M542 287Q543 324 554 351Q563 369 547 382Q522 404 492 415Q473 422 465 414Q459 407 470 392Q492 353 490 310Q496 70 472 53Q462 46 447 51Q413 55 378 60Q365 61 368 54Q369 47 380 41Q456 -14 486 -51Q501 -67 516 -53Q550 -14 546 52Q545 80 542 252L542 287Z"/>
	<path id="z27974d8" d="M163 275Q150 275 149 267Q148 260 161 253Q204 228 229 237Q346 265 356 263Q366 259 355 238Q313 150 274 108Q234 60 163 12Q148 2 157 -1Q167 -2 186 5Q250 32 304 78Q356 120 420 229Q430 248 442 259Q455 269 448 278Q441 291 406 305Q387 315 333 295Q270 280 163 275Z"/>
	<path id="z27974d9" d="M594 243Q593 244 595 244Q727 317 790 343Q809 344 807 357Q803 376 786 398Q768 420 745 426Q729 427 727 408Q728 392 715 377Q669 329 581 258Q580 258 580 257L594 243Z"/>
	<path id="z27974d10" d="M580 257Q565 281 542 287L542 252Q552 248 631 147Q727 27 784 4Q793 1 873 13Q900 20 925 24Q938 27 949 33Q956 40 945 48Q930 55 814 93Q715 123 594 243L580 257Z"/>
	<defs>
		<clipPath id="z27974c1"><use xlink:href="#z27974d1"/></clipPath>
		<clipPath id="z27974c2"><use xlink:href="#z27974d2"/></clipPath>
		<clipPath id="z27974c3"><use xlink:href="#z27974d3"/></clipPath>
		<clipPath id="z27974c4"><use xlink:href="#z27974d4"/></clipPath>
		<clipPath id="z27974c5"><use xlink:href="#z27974d5"/></clipPath>
		<clipPath id="z27974c6"><use xlink:href="#z27974d6"/></clipPath>
		<clipPath id="z27974c7"><use xlink:href="#z27974d7"/></clipPath>
		<clipPath id="z27974c8"><use xlink:href="#z27974d8"/></clipPath>
		<clipPath id="z27974c9"><use xlink:href="#z27974d9"/></clipPath>
		<clipPath id="z27974c10"><use xlink:href="#z27974d10"/></clipPath>
	</defs>
	<path pathLength="2999" clip-path="url(#z27974c1)" d="M220 691L290 650L312 609"/>
	<path pathLength="2999" clip-path="url(#z27974c2)" d="M141 457L201 453L367 567"/>
	<path pathLength="2999" clip-path="url(#z27974c3)" d="M343 796L398 745L390 388"/>
	<path pathLength="2999" clip-path="url(#z27974c4)" d="M612 822L638 770L458 564"/>
	<path pathLength="2999" clip-path="url(#z27974c5)" d="M603 678L749 707L784 677L645 506L547 431"/>
	<path pathLength="2999" clip-path="url(#z27974c6)" d="M534 603L607 527"/>
	<path pathLength="2999" clip-path="url(#z27974c7)" d="M470 410L521 358L510 41L485 -7L376 56"/>
	<path pathLength="2999" clip-path="url(#z27974c8)" d="M157 265L361 285L404 261L304 108L165 5"/>
	<path pathLength="2999" clip-path="url(#z27974c9)" d="M739 423L758 362L592 254"/>
	<path pathLength="2999" clip-path="url(#z27974c10)" d="M546 279L763 66L947 40"/>
</g>
</svg>