<!--
AnimCJK 2016-2019 Copyright Francois Mizessyn - https://github.com/parsimonhi/animCJK
Derived from:
    MakeMeAHanzi project - https://github.com/skishore/makemeahanzi
    Arphic PL KaitiM GB font
    Arphic PL UKai font
You can redistribute and/or modify this file under the terms of the Arphic Public License
as published by Arphic Technology Co., Ltd.
You should have received a copy of this license along with this file.
If not, see http://ftp.gnu.org/non-gnu/chinese-fonts-truetype/LICENSE.
-->
<svg id="z27986" class="acjk" version="1.1" viewBox="0 0 1024 1024" xmlns="http://www.w3.org/2000/svg" xmlns:xlink="http://www.w3.org/1999/xlink">
<style>
<![CDATA[
@keyframes zk {
	to {
		stroke-dashoffset:0;
	}
}
svg.acjk path[clip-path] {
	--t:0.8s;
	animation:zk var(--t) linear forwards var(--d);
	stroke-dasharray:3337;
	stroke-dashoffset:3339;
	stroke-width:128;
	stroke-linecap:round;
	fill:none;
	stroke:#000;
}
svg.acjk path[id] {fill:#ccc;}
]]>
</style>
<path id="z27986d1" d="M208 211Q230 233 255 260Q270 275 287 274Q299 274 304 259Q310 243 301 210Q297 191 266 177Q196 150 180 157Q174 161 176 175Q180 188 208 211Z"/>
<path id="z27986d2" d="M125 399Q170 445 203 459Q219 462 227 448Q233 435 229 417Q222 393 202 381Q193 375 133 358Q118 355 109 360Q102 361 106 374Q107 386 125 399Z"/>
<path id="z27986d3" d="M142 726Q130 730 133 747Q149 822 184 839Q191 846 201 843Q208 842 209 816Q212 777 294 544Q300 528 299 522Q298 512 289 519Q279 526 268 543Q220 621 177 689Q167 707 142 726Z"/>
<path id="z27986d4" d="M428 140Q458 165 489 197Q504 210 520 210Q530 209 537 195Q541 180 532 149Q526 127 493 111Q414 83 400 89Q394 93 396 107Q400 117 428 140Z"/>
<path id="z27986d5" d="M327 366Q281 379 254 382Q241 381 238 389Q234 396 245 404Q284 426 308 417Q338 401 365 386Q390 373 399 380Q406 386 400 486Q399 594 369 691Q351 721 393 768Q403 780 412 773Q419 767 430 744Q463 704 533 631Q545 621 542 614Q541 607 530 615Q499 633 469 653Q423 690 431 634Q431 571 453 419Q457 397 478 374Q490 365 480 353Q470 337 434 322Q424 315 407 326Q356 356 327 366Z"/>
<path id="z27986d6" d="M633 333Q664 287 698 218Q711 185 726 169Q733 157 727 144Q721 132 690 114Q662 99 643 102Q625 106 636 127Q658 160 603 290Q578 350 539 417Q530 427 529 435Q528 445 540 442Q565 430 621 351C629 339 629 339 633 333Z"/>
<path id="z27986d7" d="M720 361Q719 360 721 360Q883 318 888 315Q897 308 892 299Q885 289 856 282Q831 279 756 305Q698 321 635 332Q632 332 633 333C626 336 615 347 621 351Q628 358 664 366Q667 366 671 367C687 370 705 368 720 361Z"/>
<path id="z27986d8" d="M747 545Q810 536 902 536Q950 536 956 526Q960 514 945 502Q888 463 832 481Q796 488 748 500C714 506 714 506 697 509Q616 522 523 538Q504 541 519 557Q532 570 550 574Q571 578 586 574Q638 558 697 551C730 547 730 547 747 545Z"/>
<path id="z27986d9" d="M699 920Q703 944 710 953Q716 960 723 958Q736 949 743 893Q743 886 747 545C748 515 748 515 748 500Q748 458 759 403Q762 385 748 377Q732 367 720 361C706 353 665 352 671 367Q671 370 684 392Q696 410 696 490Q696 499 697 509C697 537 697 537 697 551Q691 855 699 920Z"/>
<defs>
	<clipPath id="z27986c1"><use xlink:href="#z27986d1"/></clipPath>
	<clipPath id="z27986c2"><use xlink:href="#z27986d2"/></clipPath>
	<clipPath id="z27986c3"><use xlink:href="#z27986d3"/></clipPath>
	<clipPath id="z27986c4"><use xlink:href="#z27986d4"/></clipPath>
	<clipPath id="z27986c5"><use xlink:href="#z27986d5"/></clipPath>
	<clipPath id="z27986c6"><use xlink:href="#z27986d6"/></clipPath>
	<clipPath id="z27986c7"><use xlink:href="#z27986d7"/></clipPath>
	<clipPath id="z27986c8"><use xlink:href="#z27986d8"/></clipPath>
	<clipPath id="z27986c9"><use xlink:href="#z27986d9"/></clipPath>
</defs>
<path style="--d:1s;" pathLength="3333" clip-path="url(#z27986c1)" d="M183 166L298 264"/>
<path style="--d:2s;" pathLength="3333" clip-path="url(#z27986c2)" d="M110 366L220 451"/>
<path style="--d:3s;" pathLength="3333" clip-path="url(#z27986c3)" d="M198 835L178 748L294 525"/>
<path style="--d:4s;" pathLength="3333" clip-path="url(#z27986c4)" d="M401 99L480 141L531 201"/>
<path style="--d:5s;" pathLength="3333" clip-path="url(#z27986c5)" d="M246 394L300 396L413 350L441 372L401 668L419 721L537 619"/>
<path style="--d:6s;" pathLength="3333" clip-path="url(#z27986c6)" d="M638 107L685 164L536 436"/>
<path style="--d:7s;" pathLength="3333" clip-path="url(#z27986c7)" d="M627 348L884 300"/>
<path style="--d:8s;" pathLength="3333" clip-path="url(#z27986c8)" d="M520 548L862 506L952 521"/>
<path style="--d:9s;" pathLength="3333" clip-path="url(#z27986c9)" d="M681 373L725 401L718 952"/>
</svg>