<!--
AnimCJK 2016-2025 Copyright FM-SH - https://github.com/parsimonhi/animCJK
Derived from:
    MakeMeAHanzi project - https://github.com/skishore/makemeahanzi
    Arphic PL KaitiM GB font
    Arphic PL UKai font
You can redistribute and/or modify this file under the terms of the Arphic Public License
as published by Arphic Technology Co., Ltd.
You should have received a copy of this license along with this file.
If not, see http://ftp.gnu.org/non-gnu/chinese-fonts-truetype/LICENSE.
-->
<svg id="z27988" class="acjk" version="1.1" viewBox="0 0 1024 1024" xmlns="http://www.w3.org/2000/svg" xmlns:xlink="http://www.w3.org/1999/xlink">
<style>
<![CDATA[
@keyframes zk {
	to {
		stroke-dashoffset:0;
	}
}
svg.acjk path[clip-path] {
	--t:0.8s;
	animation:zk var(--t) linear forwards var(--d);
	stroke-dasharray:3337;
	stroke-dashoffset:3339;
	stroke-width:128;
	stroke-linecap:round;
	fill:none;
	stroke:#000;
}
svg.acjk path[id] {fill:#ccc;}
]]>
</style>
<path id="z27988d1" d="M243 184C259 197 277 214 297 234C307 243 319 248 331 248C339 247 344 241 348 231C351 220 350 202 343 181C335 159 298 143 237 129C224 126 216 126 212 129C207 131 205 137 208 148C209 155 221 167 243 184Z"/>
<path id="z27988d2" d="M141 367C176 405 202 431 228 439C237 442 247 437 254 427C259 418 260 407 258 394C250 363 222 343 179 331C151 323 134 320 125 323C120 324 118 327 121 338C122 345 130 354 141 367Z"/>
<path id="z27988d3" d="M116 734C107 737 103 743 106 756C116 807 134 839 156 853C160 856 166 858 174 857C179 855 181 846 183 829C187 788 225 684 293 517C297 506 299 497 299 494C298 486 293 484 289 491C142 710 139 723 116 734Z"/>
<path id="z27988d4" d="M707 356C725 275 750 223 777 198C788 186 789 171 778 160C768 150 742 138 706 122C692 116 679 117 665 123C600 148 523 167 435 178C424 179 418 181 420 190C421 194 428 199 442 205C457 211 478 209 504 204C554 193 603 187 651 177C680 170 689 197 687 217C679 267 669 313 658 355C655 371 704 372 707 356Z"/>
<path id="z27988d5" d="M407 293C392 295 389 301 402 310C419 323 437 327 452 324C524 307 584 295 634 291C640 290 646 289 650 281C652 275 643 270 632 264C614 254 583 257 532 270C513 274 482 279 407 293Z"/>
<path id="z27988d6" d="M658 355C574 375 498 390 432 399C417 400 413 408 423 420C434 434 450 436 466 433C520 420 607 408 727 397C735 396 739 392 740 386C740 380 722 364 708 356C694 347 674 352 658 355Z"/>
<path id="z27988d7" d="M695 559C828 551 900 556 906 550C906 549 906 549 907 549C911 541 907 531 896 523C856 491 815 485 773 496C751 501 726 505 701 509C660 515 660 515 640 518C623 520 417 547 321 557C306 558 303 563 315 577C324 586 335 593 348 597C361 601 375 601 387 599C452 584 600 564 641 562C677 560 677 560 695 559Z"/>
<path id="z27988d8" d="M600 819C573 812 548 806 523 801C514 798 510 799 511 806C511 809 515 815 523 821C575 865 610 901 632 928C641 940 653 941 664 931C689 905 701 867 700 821C698 785 692 577 695 559C699 526 699 526 701 509C703 490 715 475 700 462C682 446 661 436 642 429C628 424 620 424 615 430C610 434 612 441 619 453C631 471 639 493 640 518C641 547 641 547 641 562C643 675 640 750 634 789C630 812 620 823 600 819Z"/>
<path id="z27988d9" d="M409 677C426 694 441 714 460 735C467 744 476 750 487 751C492 751 500 748 505 739C509 730 509 714 506 694C502 672 469 651 410 628C399 624 392 623 388 625C383 626 382 631 383 641C383 648 392 660 409 677Z"/>
<defs>
	<clipPath id="z27988c1"><use xlink:href="#z27988d1"/></clipPath>
	<clipPath id="z27988c2"><use xlink:href="#z27988d2"/></clipPath>
	<clipPath id="z27988c3"><use xlink:href="#z27988d3"/></clipPath>
	<clipPath id="z27988c4"><use xlink:href="#z27988d4"/></clipPath>
	<clipPath id="z27988c5"><use xlink:href="#z27988d5"/></clipPath>
	<clipPath id="z27988c6"><use xlink:href="#z27988d6"/></clipPath>
	<clipPath id="z27988c7"><use xlink:href="#z27988d7"/></clipPath>
	<clipPath id="z27988c8"><use xlink:href="#z27988d8"/></clipPath>
	<clipPath id="z27988c9"><use xlink:href="#z27988d9"/></clipPath>
</defs>
<path style="--d:1s;" pathLength="3333" clip-path="url(#z27988c1)" d="M210 136L307 192L334 243"/>
<path style="--d:2s;" pathLength="3333" clip-path="url(#z27988c2)" d="M126 331L210 384L244 432"/>
<path style="--d:3s;" pathLength="3333" clip-path="url(#z27988c3)" d="M110 743L164 803L292 498"/>
<path style="--d:4s;" pathLength="3333" clip-path="url(#z27988c4)" d="M430 188L677 148L716 166L735 190L677 365"/>
<path style="--d:5s;" pathLength="3333" clip-path="url(#z27988c5)" d="M402 300L644 280"/>
<path style="--d:6s;" pathLength="3333" clip-path="url(#z27988c6)" d="M424 407L735 380"/>
<path style="--d:7s;" pathLength="3333" clip-path="url(#z27988c7)" d="M314 563L385 574L810 522L904 540"/>
<path style="--d:8s;" pathLength="3333" clip-path="url(#z27988c8)" d="M620 434L671 485L656 851L627 882L517 807"/>
<path style="--d:9s;" pathLength="3333" clip-path="url(#z27988c9)" d="M390 629L496 744"/>
</svg>