<!--
AnimCJK 2016-2017 Copyright Francois Mizessyn, http://gooo.free.fr/animCJK/
Derived from:
    MakeMeAHanzi project - https://github.com/skishore/makemeahanzi
    Arphic PL KaitiM GB - https://apps.ubuntu.com/cat/applications/precise/fonts-arphic-gkai00mp/
    Arphic PL UKai - https://apps.ubuntu.com/cat/applications/fonts-arphic-ukai/
You can redistribute and/or modify this file under the terms of the Arphic Public License
as published by Arphic Technology Co., Ltd.
You should have received a copy of this license (the directory "APL") along with this file;
if not, see http://ftp.gnu.org/non-gnu/chinese-fonts-truetype/LICENSE.
-->
<svg id="z27987" class="acjk" version="1.1" viewBox="0 0 1024 1024" xmlns="http://www.w3.org/2000/svg" xmlns:xlink="http://www.w3.org/1999/xlink">
<style>
<![CDATA[
	@keyframes z27987k {
		from {
			stroke:#c00;
			stroke-dashoffset:3000;
		}
		75% {
			stroke:#c00;
			stroke-dashoffset:0;
		}
		to {
			stroke:#000;
		}
	}
	#z27987 path[clip-path] {
		animation:z27987k 1s linear both;
		stroke-dasharray:3000;
		stroke-width:128;
		stroke-linecap:round;
		fill:none;
	}
	#z27987 path[clip-path="url(#z27987c1)"] {animation-delay:1s;}
	#z27987 path[clip-path="url(#z27987c2)"] {animation-delay:2s;}
	#z27987 path[clip-path="url(#z27987c3)"] {animation-delay:3s;}
	#z27987 path[clip-path="url(#z27987c4)"] {animation-delay:4s;}
	#z27987 path[clip-path="url(#z27987c5)"] {animation-delay:5s;}
	#z27987 path[clip-path="url(#z27987c6)"] {animation-delay:6s;}
	#z27987 path[clip-path="url(#z27987c7)"] {animation-delay:7s;}
	#z27987 path[clip-path="url(#z27987c8)"] {animation-delay:8s;}
	#z27987 path[clip-path="url(#z27987c9)"] {animation-delay:9s;}
	#z27987 path {fill:#ccc;}
]]>
</style>
<g transform="scale(1,-1) translate(0,-900)">
	<path id="z27987d1" d="M235 715Q260 694 287 669Q303 656 320 657Q332 658 337 672Q341 688 330 721Q318 751 228 767Q210 771 204 767Q198 763 201 749Q205 736 235 715Z"/>
	<path id="z27987d2" d="M129 499Q183 445 217 432Q233 431 243 444Q249 459 245 476Q230 518 141 541Q123 545 113 541Q106 540 110 526Q111 513 129 499Z"/>
	<path id="z27987d3" d="M125 138Q112 134 115 116Q127 41 164 19Q171 12 182 15Q191 16 191 43Q200 100 297 343Q304 359 303 366Q302 376 293 369Q283 362 270 345Q215 257 165 179Q152 160 125 138Z"/>
	<path id="z27987d4" d="M418 574Q406 604 391 614Q388 618 382 615Q376 611 374 600Q375 564 339 500Q327 484 327 465Q328 446 337 430Q344 417 350 425Q365 428 383 476Q405 522 414 539Q417 543 419 547L418 574Z"/>
	<path id="z27987d5" d="M569 574Q689 604 714 601Q727 592 726 585Q714 545 700 502L701 501Q708 497 722 509Q770 545 810 557Q843 570 841 577Q840 586 774 630Q753 645 662 623Q635 622 578 606L528 597Q507 596 418 574L419 547Q440 537 462 543Q487 553 517 561L569 574Z"/>
	<path id="z27987d6" d="M521 435Q546 495 569 574L578 606Q579 609 580 612Q611 729 636 766Q648 782 640 794Q628 821 572 835Q556 841 539 831Q529 821 538 810Q563 785 559 724Q541 624 528 597L517 561Q481 446 434 361Q386 277 276 150Q266 134 278 132Q284 131 296 140Q368 189 434 276L459 313Q480 349 510 409L521 435Z"/>
	<path id="z27987d7" d="M434 276Q441 254 441 231Q442 137 435 104Q431 76 417 58Q404 37 412 15Q422 -16 440 -29Q450 -36 463 -18Q491 19 587 112Q605 127 606 134Q607 147 587 136Q497 88 488 91Q481 95 481 115Q487 232 493 261Q497 280 485 292Q472 305 459 313L434 276Z"/>
	<path id="z27987d8" d="M643 313Q746 386 796 414Q815 418 811 430Q805 446 786 466Q767 485 744 488Q728 488 729 468Q730 453 721 437Q690 394 629 328L643 313Z"/>
	<path id="z27987d9" d="M510 409Q535 391 554 363Q662 218 749 116Q765 97 791 97Q887 98 923 105Q939 106 946 114Q950 121 939 124Q783 184 751 212Q750 215 748 215Q702 252 643 313L629 328Q592 368 552 416Q542 432 524 435Q523 436 521 435L510 409Z"/>
	<defs>
		<clipPath id="z27987c1"><use xlink:href="#z27987d1"/></clipPath>
		<clipPath id="z27987c2"><use xlink:href="#z27987d2"/></clipPath>
		<clipPath id="z27987c3"><use xlink:href="#z27987d3"/></clipPath>
		<clipPath id="z27987c4"><use xlink:href="#z27987d4"/></clipPath>
		<clipPath id="z27987c5"><use xlink:href="#z27987d5"/></clipPath>
		<clipPath id="z27987c6"><use xlink:href="#z27987d6"/></clipPath>
		<clipPath id="z27987c7"><use xlink:href="#z27987d7"/></clipPath>
		<clipPath id="z27987c8"><use xlink:href="#z27987d8"/></clipPath>
		<clipPath id="z27987c9"><use xlink:href="#z27987d9"/></clipPath>
	</defs>
	<path pathLength="2999" clip-path="url(#z27987c1)" d="M208 761L329 667"/>
	<path pathLength="2999" clip-path="url(#z27987c2)" d="M114 534L240 449"/>
	<path pathLength="2999" clip-path="url(#z27987c3)" d="M176 18L160 112L296 364"/>
	<path pathLength="2999" clip-path="url(#z27987c4)" d="M385 611L393 555L342 431"/>
	<path pathLength="2999" clip-path="url(#z27987c5)" d="M423 553L737 615L787 568L706 506"/>
	<path pathLength="2999" clip-path="url(#z27987c6)" d="M540 826L587 799L599 765L511 474L412 284L279 138"/>
	<path pathLength="2999" clip-path="url(#z27987c7)" d="M460 305L455 31L599 133"/>
	<path pathLength="2999" clip-path="url(#z27987c8)" d="M740 484L767 433L641 325"/>
	<path pathLength="2999" clip-path="url(#z27987c9)" d="M525 429L762 158L937 116"/>
</g>
</svg>