<!--
AnimCJK 2016-2018 Copyright Francois Mizessyn - https://github.com/parsimonhi/animCJK
Derived from:
    MakeMeAHanzi project - https://github.com/skishore/makemeahanzi
    Arphic PL KaitiM GB - https://apps.ubuntu.com/cat/applications/precise/fonts-arphic-gkai00mp/
    Arphic PL UKai - https://apps.ubuntu.com/cat/applications/fonts-arphic-ukai/
You can redistribute and/or modify this file under the terms of the Arphic Public License
as published by Arphic Technology Co., Ltd.
You should have received a copy of this license (the directory "APL") along with this file;
if not, see http://ftp.gnu.org/non-gnu/chinese-fonts-truetype/LICENSE.
-->
<svg id="z27998" class="acjk" version="1.1" viewBox="0 0 1024 1024" xmlns="http://www.w3.org/2000/svg" xmlns:xlink="http://www.w3.org/1999/xlink">
<style>
<![CDATA[
@keyframes z27998k {
	from {
		stroke:#ccc;
		stroke-dashoffset:3334;
	}
	1% {
		stroke:#c00;
		stroke-dashoffset:3334;
	}
	75% {
		stroke:#c00;
		stroke-dashoffset:0;
	}
	to {
		stroke:#000;
	}
}
#z27998 path[clip-path] {
	animation:z27998k 1s linear both;
	stroke-dasharray:3334;
	stroke-width:128;
	stroke-linecap:round;
	fill:none;
}
#z27998 path[clip-path="url(#z27998c1)"] {animation-delay:1s;}
#z27998 path[clip-path="url(#z27998c2)"] {animation-delay:2s;}
#z27998 path[clip-path="url(#z27998c3)"] {animation-delay:3s;}
#z27998 path[clip-path="url(#z27998c4)"] {animation-delay:4s;}
#z27998 path[clip-path="url(#z27998c5)"] {animation-delay:5s;}
#z27998 path[clip-path="url(#z27998c6)"] {animation-delay:6s;}
#z27998 path[clip-path="url(#z27998c7)"] {animation-delay:7s;}
#z27998 path[clip-path="url(#z27998c8)"] {animation-delay:8s;}
#z27998 path[clip-path="url(#z27998c9)"] {animation-delay:9s;}
#z27998 path[clip-path="url(#z27998c10)"] {animation-delay:10s;}
#z27998 path {fill:#ccc;}
]]>
</style>
<path id="z27998d1" d="M230 206Q261 233 295 265Q310 280 327 279Q339 278 345 263Q349 247 340 215Q328 178 224 154Q208 150 200 153Q194 157 196 171Q200 184 230 206 Z"/>
<path id="z27998d2" d="M145 397Q199 454 233 467Q249 470 259 455Q265 442 261 424Q249 379 157 356Q139 352 129 355Q122 356 126 370Q127 383 145 397 Z"/>
<path id="z27998d3" d="M127 766Q114 770 117 788Q135 867 169 884Q176 891 187 888Q194 887 195 860Q201 815 297 553Q304 537 303 530Q302 520 293 527Q280 536 167 723Q155 745 127 766 Z"/>
<path id="z27998d4" d="M462 215Q449 208 414 204Q401 200 397 206Q390 213 400 231Q433 295 455 400Q459 431 478 452Q499 476 503 458Q506 448 507 434L503 397Q493 364 477 249L462 215 Z"/>
<path id="z27998d5" d="M730 363Q758 267 799 235Q818 216 801 196Q723 136 678 159Q584 195 462 215L477 249Q489 248 504 243Q589 227 668 209Q689 205 698 213Q708 223 705 247Q692 308 676 359L730 363 Z"/>
<path id="z27998d6" d="M603 420Q661 410 747 403Q759 402 760 391Q760 382 730 363L676 359Q675 358 672 359Q578 384 503 397L507 434Q517 435 530 433Q540 430 555 428L603 420 Z"/>
<path id="z27998d7" d="M621 767Q625 676 629 598L630 567Q633 447 634 446Q619 431 603 420L555 428Q571 467 572 489Q573 517 573 738L621 767 Z"/>
<path id="z27998d8" d="M629 598Q635 599 644 598Q732 585 796 577Q824 573 813 557Q800 541 771 535Q734 529 630 567L629 598 Z"/>
<path id="z27998d9" d="M453 652Q469 621 485 596Q495 583 480 569Q435 538 411 543Q399 547 403 561Q419 672 308 808Q293 814 260 864Q253 880 268 874Q316 862 395 755Q413 730 437 682L453 652 Z"/>
<path id="z27998d10" d="M437 682Q519 764 663 854Q670 858 680 864Q753 912 783 909Q786 908 791 908Q843 898 899 885Q936 875 945 862Q949 849 929 848Q743 824 740 822Q686 809 621 767L573 738Q515 699 453 652L437 682 Z"/>
<defs>
	<clipPath id="z27998c1"><use xlink:href="#z27998d1"/></clipPath>
	<clipPath id="z27998c2"><use xlink:href="#z27998d2"/></clipPath>
	<clipPath id="z27998c3"><use xlink:href="#z27998d3"/></clipPath>
	<clipPath id="z27998c4"><use xlink:href="#z27998d4"/></clipPath>
	<clipPath id="z27998c5"><use xlink:href="#z27998d5"/></clipPath>
	<clipPath id="z27998c6"><use xlink:href="#z27998d6"/></clipPath>
	<clipPath id="z27998c7"><use xlink:href="#z27998d7"/></clipPath>
	<clipPath id="z27998c8"><use xlink:href="#z27998d8"/></clipPath>
	<clipPath id="z27998c9"><use xlink:href="#z27998d9"/></clipPath>
	<clipPath id="z27998c10"><use xlink:href="#z27998d10"/></clipPath>
</defs>
<path pathLength="3333" clip-path="url(#z27998c1)" d="M200 163L297 218L331 273"/>
<path pathLength="3333" clip-path="url(#z27998c2)" d="M131 362L253 459"/>
<path pathLength="3333" clip-path="url(#z27998c3)" d="M181 883L167 779L296 532"/>
<path pathLength="3333" clip-path="url(#z27998c4)" d="M401 208L445 255L495 459"/>
<path pathLength="3333" clip-path="url(#z27998c5)" d="M471 220L723 189L756 225L698 360"/>
<path pathLength="3333" clip-path="url(#z27998c6)" d="M511 402L755 384"/>
<path pathLength="3333" clip-path="url(#z27998c7)" d="M563 430L600 456L597 737L617 756"/>
<path pathLength="3333" clip-path="url(#z27998c8)" d="M635 590L807 559"/>
<path pathLength="3333" clip-path="url(#z27998c9)" d="M410 547L446 595L423 656L371 755L266 869"/>
<path pathLength="3333" clip-path="url(#z27998c10)" d="M454 660L540 743L721 852L787 870L941 860"/>
</svg>