<!--
AnimCJK 2016-2018 Copyright Francois Mizessyn - https://github.com/parsimonhi/animCJK
Derived from:
    MakeMeAHanzi project - https://github.com/skishore/makemeahanzi
    Arphic PL KaitiM GB - https://apps.ubuntu.com/cat/applications/precise/fonts-arphic-gkai00mp/
    Arphic PL UKai - https://apps.ubuntu.com/cat/applications/fonts-arphic-ukai/
You can redistribute and/or modify this file under the terms of the Arphic Public License
as published by Arphic Technology Co., Ltd.
You should have received a copy of this license (the directory "APL") along with this file;
if not, see http://ftp.gnu.org/non-gnu/chinese-fonts-truetype/LICENSE.
-->
<svg id="z28037" class="acjk" version="1.1" viewBox="0 0 1024 1024" xmlns="http://www.w3.org/2000/svg" xmlns:xlink="http://www.w3.org/1999/xlink">
<style>
<![CDATA[
@keyframes z28037k {
	from {
		stroke:#c00;
		stroke-dashoffset:3334;
	}
	75% {
		stroke:#c00;
		stroke-dashoffset:0;
	}
	to {
		stroke:#000;
	}
}
#z28037 path[clip-path] {
	animation:z28037k 1s linear both;
	stroke-dasharray:3334;
	stroke-width:128;
	stroke-linecap:round;
	fill:none;
}
#z28037 path[clip-path="url(#z28037c1)"] {animation-delay:1s;}
#z28037 path[clip-path="url(#z28037c2)"] {animation-delay:2s;}
#z28037 path[clip-path="url(#z28037c3)"] {animation-delay:3s;}
#z28037 path[clip-path="url(#z28037c4)"] {animation-delay:4s;}
#z28037 path[clip-path="url(#z28037c5)"] {animation-delay:5s;}
#z28037 path[clip-path="url(#z28037c6)"] {animation-delay:6s;}
#z28037 path[clip-path="url(#z28037c7)"] {animation-delay:7s;}
#z28037 path[clip-path="url(#z28037c8)"] {animation-delay:8s;}
#z28037 path[clip-path="url(#z28037c9)"] {animation-delay:9s;}
#z28037 path[clip-path="url(#z28037c10)"] {animation-delay:10s;}
#z28037 path {fill:#ccc;}
]]>
</style>
<path id="z28037d1" d="M233 199Q264 227 299 261Q314 274 331 274Q343 274 348 259Q354 243 344 211Q338 187 303 170Q219 139 204 145Q198 149 200 163Q204 176 233 199 Z"/>
<path id="z28037d2" d="M137 405Q191 459 225 472Q241 473 251 460Q257 445 253 428Q238 386 149 363Q131 359 121 363Q114 364 118 378Q119 391 137 405 Z"/>
<path id="z28037d3" d="M141 774Q129 778 131 796Q143 871 180 893Q187 900 198 897Q205 896 207 870Q216 819 333 533Q340 517 339 510Q338 500 329 507Q319 514 306 531Q243 634 187 725Q174 750 141 774 Z"/>
<path id="z28037d4" d="M446 200Q436 196 411 191Q398 187 395 193Q388 199 397 216Q431 294 448 420Q451 457 471 484Q490 506 495 491Q499 479 500 463L499 436Q496 415 485 349L481 324Q471 257 468 233L446 200 Z"/>
<path id="z28037d5" d="M683 441Q702 471 720 479Q732 488 748 465Q764 437 798 283Q808 250 833 225Q846 212 835 197Q819 179 774 151Q758 142 681 158Q603 170 543 183Q489 193 446 200L468 233Q467 232 470 232Q549 210 690 192Q721 188 731 198Q746 216 743 233Q713 399 693 413L683 441 Z"/>
<path id="z28037d6" d="M485 349Q491 350 499 349Q590 333 659 323Q681 319 673 307Q663 294 639 289Q611 286 481 324L485 349 Z"/>
<path id="z28037d7" d="M500 463Q506 464 514 463Q608 448 683 441L693 413Q683 406 669 403Q647 399 604 409Q549 424 499 436L500 463 Z"/>
<path id="z28037d8" d="M629 662Q797 629 802 625Q811 618 807 608Q800 596 770 587Q740 580 709 591Q670 601 633 613L576 626Q504 638 427 643Q390 647 416 666Q456 691 544 675Q559 672 578 670L629 662 Z"/>
<path id="z28037d9" d="M617 791Q623 724 629 662L633 613Q633 592 648 539Q651 529 632 515Q599 496 577 492Q561 489 554 497Q547 504 554 518Q572 543 573 561Q574 592 576 626L578 670Q578 730 577 796L617 791 Z"/>
<path id="z28037d10" d="M577 796Q462 808 326 821Q304 822 319 841Q334 856 352 862Q374 868 391 864Q538 828 861 828Q880 828 900 830Q921 830 926 821Q932 809 915 795Q861 752 823 760Q745 775 617 791L577 796 Z"/>
<defs>
	<clipPath id="z28037c1"><use xlink:href="#z28037d1"/></clipPath>
	<clipPath id="z28037c2"><use xlink:href="#z28037d2"/></clipPath>
	<clipPath id="z28037c3"><use xlink:href="#z28037d3"/></clipPath>
	<clipPath id="z28037c4"><use xlink:href="#z28037d4"/></clipPath>
	<clipPath id="z28037c5"><use xlink:href="#z28037d5"/></clipPath>
	<clipPath id="z28037c6"><use xlink:href="#z28037d6"/></clipPath>
	<clipPath id="z28037c7"><use xlink:href="#z28037d7"/></clipPath>
	<clipPath id="z28037c8"><use xlink:href="#z28037d8"/></clipPath>
	<clipPath id="z28037c9"><use xlink:href="#z28037d9"/></clipPath>
	<clipPath id="z28037c10"><use xlink:href="#z28037d10"/></clipPath>
</defs>
<path pathLength="3333" clip-path="url(#z28037c1)" d="M207 149L302 212L341 265"/>
<path pathLength="3333" clip-path="url(#z28037c2)" d="M122 370L248 455"/>
<path pathLength="3333" clip-path="url(#z28037c3)" d="M193 890L177 800L331 510"/>
<path pathLength="3333" clip-path="url(#z28037c4)" d="M400 196L439 242L484 491"/>
<path pathLength="3333" clip-path="url(#z28037c5)" d="M455 203L737 171L790 210L714 475"/>
<path pathLength="3333" clip-path="url(#z28037c6)" d="M487 327L667 313"/>
<path pathLength="3333" clip-path="url(#z28037c7)" d="M508 455L688 419"/>
<path pathLength="3333" clip-path="url(#z28037c8)" d="M413 653L500 659L803 614"/>
<path pathLength="3333" clip-path="url(#z28037c9)" d="M559 503L610 544L590 794"/>
<path pathLength="3333" clip-path="url(#z28037c10)" d="M320 830L377 840L838 793L923 811"/>
</svg>