<!--
AnimCJK 2016-2017 Copyright Francois Mizessyn, http://gooo.free.fr/animCJK/
Derived from:
    MakeMeAHanzi project - https://github.com/skishore/makemeahanzi
    Arphic PL KaitiM GB - https://apps.ubuntu.com/cat/applications/precise/fonts-arphic-gkai00mp/
    Arphic PL UKai - https://apps.ubuntu.com/cat/applications/fonts-arphic-ukai/
You can redistribute and/or modify this file under the terms of the Arphic Public License
as published by Arphic Technology Co., Ltd.
You should have received a copy of this license (the directory "APL") along with this file;
if not, see http://ftp.gnu.org/non-gnu/chinese-fonts-truetype/LICENSE.
-->
<svg id="z28034" class="acjk" version="1.1" viewBox="0 0 1024 1024" xmlns="http://www.w3.org/2000/svg" xmlns:xlink="http://www.w3.org/1999/xlink">
<style>
<![CDATA[
	@keyframes z28034k {
		from {
			stroke:#c00;
			stroke-dashoffset:3000;
		}
		75% {
			stroke:#c00;
			stroke-dashoffset:0;
		}
		to {
			stroke:#000;
		}
	}
	#z28034 path[clip-path] {
		animation:z28034k 1s linear both;
		stroke-dasharray:3000;
		stroke-width:128;
		stroke-linecap:round;
		fill:none;
	}
	#z28034 path[clip-path="url(#z28034c1)"] {animation-delay:1s;}
	#z28034 path[clip-path="url(#z28034c2)"] {animation-delay:2s;}
	#z28034 path[clip-path="url(#z28034c3)"] {animation-delay:3s;}
	#z28034 path[clip-path="url(#z28034c4)"] {animation-delay:4s;}
	#z28034 path[clip-path="url(#z28034c5)"] {animation-delay:5s;}
	#z28034 path[clip-path="url(#z28034c6)"] {animation-delay:6s;}
	#z28034 path[clip-path="url(#z28034c7)"] {animation-delay:7s;}
	#z28034 path[clip-path="url(#z28034c8)"] {animation-delay:8s;}
	#z28034 path[clip-path="url(#z28034c9)"] {animation-delay:9s;}
	#z28034 path[clip-path="url(#z28034c10)"] {animation-delay:10s;}
	#z28034 path {fill:#ccc;}
]]>
</style>
<g transform="scale(1,-1) translate(0,-900)">
	<path id="z28034d1" d="M245 690Q273 665 303 635Q318 622 335 621Q347 622 352 637Q358 653 348 685Q342 707 309 722Q233 749 216 743Q210 739 212 725Q216 712 245 690Z"/>
	<path id="z28034d2" d="M136 508Q184 457 218 441Q234 440 243 453Q249 466 246 483Q234 523 148 548Q130 552 121 548Q115 547 118 534Q119 522 136 508Z"/>
	<path id="z28034d3" d="M115 138Q103 134 105 117Q121 45 156 24Q163 17 173 21Q180 22 181 47Q184 86 269 324Q276 340 275 346Q274 356 265 349Q256 343 151 176Q139 157 115 138Z"/>
	<path id="z28034d4" d="M561 689Q565 701 591 742Q598 748 596 758Q587 785 545 794Q524 798 513 796Q504 793 508 781Q526 697 416 539Q368 476 284 388Q277 382 287 380Q341 386 456 520Q510 599 549 666L561 689Z"/>
	<path id="z28034d5" d="M549 666Q646 554 753 450Q775 428 813 426Q880 422 952 434Q971 435 972 441Q975 447 960 453Q909 474 850 494Q727 540 575 677Q568 684 561 689L549 666Z"/>
	<path id="z28034d6" d="M544 419Q670 453 677 459Q686 468 680 476Q673 488 642 493Q611 497 581 483Q547 470 511 458Q471 446 423 439Q386 430 414 415Q453 394 513 410L544 419Z"/>
	<path id="z28034d7" d="M582 297Q642 304 729 307Q777 307 784 317Q788 327 773 339Q724 375 653 354Q622 348 583 337L529 325Q438 312 330 292Q311 289 326 275Q339 263 355 259Q374 255 389 260Q452 279 524 289Q525 290 530 289L582 297Z"/>
	<path id="z28034d8" d="M487 60Q466 66 440 72Q428 75 429 68Q430 61 439 53Q497 8 534 -30Q544 -37 556 -23Q586 19 587 106Q580 208 582 297L583 337Q583 347 585 357Q589 381 585 390Q576 403 544 419L513 410Q514 404 520 395Q529 377 529 325L530 289Q533 75 522 59Q512 52 487 60Z"/>
	<path id="z28034d9" d="M379 209Q354 163 322 124Q298 91 314 58Q320 39 342 50Q394 86 399 149Q406 182 402 207Q398 216 392 217Q383 217 379 209Z"/>
	<path id="z28034d10" d="M672 204Q721 153 781 81Q797 59 812 54Q821 53 829 63Q842 76 832 121Q820 175 675 235Q665 242 663 229Q662 216 672 204Z"/>
	<defs>
		<clipPath id="z28034c1"><use xlink:href="#z28034d1"/></clipPath>
		<clipPath id="z28034c2"><use xlink:href="#z28034d2"/></clipPath>
		<clipPath id="z28034c3"><use xlink:href="#z28034d3"/></clipPath>
		<clipPath id="z28034c4"><use xlink:href="#z28034d4"/></clipPath>
		<clipPath id="z28034c5"><use xlink:href="#z28034d5"/></clipPath>
		<clipPath id="z28034c6"><use xlink:href="#z28034d6"/></clipPath>
		<clipPath id="z28034c7"><use xlink:href="#z28034d7"/></clipPath>
		<clipPath id="z28034c8"><use xlink:href="#z28034d8"/></clipPath>
		<clipPath id="z28034c9"><use xlink:href="#z28034d9"/></clipPath>
		<clipPath id="z28034c10"><use xlink:href="#z28034d10"/></clipPath>
	</defs>
	<path pathLength="2999" clip-path="url(#z28034c1)" d="M219 734L348 636"/>
	<path pathLength="2999" clip-path="url(#z28034c2)" d="M122 544L240 456"/>
	<path pathLength="2999" clip-path="url(#z28034c3)" d="M169 30L150 116L268 346"/>
	<path pathLength="2999" clip-path="url(#z28034c4)" d="M514 790L553 750L501 633L411 500L288 386"/>
	<path pathLength="2999" clip-path="url(#z28034c5)" d="M562 681L787 476L964 443"/>
	<path pathLength="2999" clip-path="url(#z28034c6)" d="M408 429L678 467"/>
	<path pathLength="2999" clip-path="url(#z28034c7)" d="M328 282L672 332L779 322"/>
	<path pathLength="2999" clip-path="url(#z28034c8)" d="M521 406L557 375L550 44L525 12L436 66"/>
	<path pathLength="2999" clip-path="url(#z28034c9)" d="M392 212L320 54"/>
	<path pathLength="2999" clip-path="url(#z28034c10)" d="M670 231L787 130L819 60"/>
</g>
</svg>