<!--
AnimCJK 2016-2025 Copyright FM-SH - https://github.com/parsimonhi/animCJK
Derived from:
    MakeMeAHanzi project - https://github.com/skishore/makemeahanzi
    Arphic PL KaitiM GB font
    Arphic PL UKai font
You can redistribute and/or modify this file under the terms of the Arphic Public License
as published by Arphic Technology Co., Ltd.
You should have received a copy of this license along with this file.
If not, see http://ftp.gnu.org/non-gnu/chinese-fonts-truetype/LICENSE.
-->
<svg id="z28053" class="acjk" version="1.1" viewBox="0 0 1024 1024" xmlns="http://www.w3.org/2000/svg" xmlns:xlink="http://www.w3.org/1999/xlink">
<style>
<![CDATA[
@keyframes zk {
	to {
		stroke-dashoffset:0;
	}
}
svg.acjk path[clip-path] {
	--t:0.8s;
	animation:zk var(--t) linear forwards var(--d);
	stroke-dasharray:3337;
	stroke-dashoffset:3339;
	stroke-width:128;
	stroke-linecap:round;
	fill:none;
	stroke:#000;
}
svg.acjk path[id] {fill:#ccc;}
]]>
</style>
<path id="z28053d1" d="M232 183C246 196 260 212 275 228C284 238 295 242 307 242C314 241 321 237 325 227C328 216 327 199 321 178C315 159 283 143 228 130C217 127 209 126 204 129C199 131 197 137 200 147C201 155 214 166 232 183Z"/>
<path id="z28053d2" d="M129 345C161 384 186 409 206 416C215 419 225 416 231 407C236 398 238 388 236 377C229 344 196 324 145 307C138 304 123 302 118 304C113 305 111 309 113 318C113 325 119 334 129 345Z"/>
<path id="z28053d3" d="M130 669C122 672 118 678 120 689C127 737 144 766 166 780C171 783 176 785 183 784C187 782 188 774 191 759C195 724 232 628 297 471C301 460 303 453 303 450C302 443 297 440 293 446C170 625 161 656 130 669Z"/>
<path id="z28053d4" d="M443 151C467 191 486 217 504 227C512 231 520 229 527 222C533 215 536 206 536 196C534 167 509 142 462 119C452 114 444 112 438 113C434 113 433 116 433 125C433 131 436 139 443 151Z"/>
<path id="z28053d5" d="M668 99C655 127 633 161 607 204C582 246 599 246 629 218C682 167 720 128 749 110C760 102 766 98 762 91C756 80 745 68 730 58C714 46 697 41 682 43C671 44 666 52 670 66C672 76 672 87 668 99Z"/>
<path id="z28053d6" d="M719 385C741 345 762 325 778 316C790 308 793 291 782 281C733 237 691 234 657 248C582 278 506 292 432 301C421 302 416 305 418 312C419 316 426 321 438 325C471 333 501 322 532 316C559 310 559 310 572 307C644 290 684 282 691 290C698 299 689 329 667 379C661 395 711 401 719 385Z"/>
<path id="z28053d7" d="M592 430C630 423 675 416 726 410C731 409 735 406 736 402C736 398 730 392 719 385C704 376 684 376 667 379C641 385 616 392 593 398C558 406 558 406 541 410C495 420 453 428 414 436C404 438 417 463 427 463C445 463 508 445 542 439C575 433 575 433 592 430Z"/>
<path id="z28053d8" d="M591 553C657 540 733 524 784 519C819 516 844 526 835 568C830 591 819 622 804 665C800 675 793 680 782 679C765 676 746 672 725 667C706 661 702 668 717 685C746 718 765 742 773 759C777 767 784 771 794 771C802 771 813 768 824 759C843 740 861 710 872 669C885 617 898 580 920 559C932 546 934 535 926 526C909 508 888 491 864 477C853 470 841 469 828 472C765 484 629 510 591 519C560 526 560 526 544 529C509 536 479 544 456 549C436 553 402 561 405 537C406 524 414 500 427 463C431 454 422 442 414 436C405 427 393 419 378 412C369 407 362 408 356 413C350 417 350 424 357 437C365 453 368 474 361 500C352 531 341 551 333 563C324 573 325 583 332 596C340 612 346 623 356 629C362 632 373 628 390 616C421 591 466 576 522 566C568 557 568 557 591 553Z"/>
<path id="z28053d9" d="M541 630C535 828 528 895 533 927C535 943 541 952 548 961C555 970 561 970 569 958C583 933 588 896 590 849C590 811 591 677 591 553C591 530 591 530 591 519C591 489 591 459 592 430C593 409 593 409 593 398C595 322 614 333 572 307C560 300 527 303 532 316C539 335 539 379 541 410C542 429 542 429 542 439C542 453 544 497 544 529C542 596 542 596 541 630Z"/>
<path id="z28053d10" d="M522 566C470 662 375 754 243 850C223 864 251 865 260 863C352 831 447 753 541 630C579 583 549 512 522 566Z"/>
<defs>
	<clipPath id="z28053c1"><use xlink:href="#z28053d1"/></clipPath>
	<clipPath id="z28053c2"><use xlink:href="#z28053d2"/></clipPath>
	<clipPath id="z28053c3"><use xlink:href="#z28053d3"/></clipPath>
	<clipPath id="z28053c4"><use xlink:href="#z28053d4"/></clipPath>
	<clipPath id="z28053c5"><use xlink:href="#z28053d5"/></clipPath>
	<clipPath id="z28053c6"><use xlink:href="#z28053d6"/></clipPath>
	<clipPath id="z28053c7"><use xlink:href="#z28053d7"/></clipPath>
	<clipPath id="z28053c8"><use xlink:href="#z28053d8"/></clipPath>
	<clipPath id="z28053c9"><use xlink:href="#z28053d9"/></clipPath>
	<clipPath id="z28053c10"><use xlink:href="#z28053d10"/></clipPath>
</defs>
<path style="--d:1s;" pathLength="3333" clip-path="url(#z28053c1)" d="M205 136L287 189L310 237"/>
<path style="--d:2s;" pathLength="3333" clip-path="url(#z28053c2)" d="M119 312L229 405"/>
<path style="--d:3s;" pathLength="3333" clip-path="url(#z28053c3)" d="M124 680L181 724L295 450"/>
<path style="--d:4s;" pathLength="3333" clip-path="url(#z28053c4)" d="M441 121L526 217"/>
<path style="--d:5s;" pathLength="3333" clip-path="url(#z28053c5)" d="M677 48L716 95L601 230"/>
<path style="--d:6s;" pathLength="3333" clip-path="url(#z28053c6)" d="M429 310L708 269L741 302L680 391"/>
<path style="--d:7s;" pathLength="3333" clip-path="url(#z28053c7)" d="M416 444L731 397"/>
<path style="--d:8s;" pathLength="3333" clip-path="url(#z28053c8)" d="M358 415L396 462L368 563L385 590L715 511L850 505L883 551L817 709L787 724L717 672"/>
<path style="--d:9s;" pathLength="3333" clip-path="url(#z28053c9)" d="M539 310L568 342L557 960"/>
<path style="--d:10s;" pathLength="3333" clip-path="url(#z28053c10)" d="M542 551L519 618L441 712L241 857"/>
</svg>