<!--
AnimCJK 2016-2018 Copyright Francois Mizessyn - https://github.com/parsimonhi/animCJK
Derived from:
    MakeMeAHanzi project - https://github.com/skishore/makemeahanzi
    Arphic PL KaitiM GB - https://apps.ubuntu.com/cat/applications/precise/fonts-arphic-gkai00mp/
    Arphic PL UKai - https://apps.ubuntu.com/cat/applications/fonts-arphic-ukai/
You can redistribute and/or modify this file under the terms of the Arphic Public License
as published by Arphic Technology Co., Ltd.
You should have received a copy of this license (the directory "APL") along with this file;
if not, see http://ftp.gnu.org/non-gnu/chinese-fonts-truetype/LICENSE.
-->
<svg id="z28056" class="acjk" version="1.1" viewBox="0 0 1024 1024" xmlns="http://www.w3.org/2000/svg" xmlns:xlink="http://www.w3.org/1999/xlink">
<style>
<![CDATA[
@keyframes z28056k {
	from {
		stroke:#ccc;
		stroke-dashoffset:3334;
	}
	1% {
		stroke:#c00;
		stroke-dashoffset:3334;
	}
	75% {
		stroke:#c00;
		stroke-dashoffset:0;
	}
	to {
		stroke:#000;
	}
}
#z28056 path[clip-path] {
	animation:z28056k 1s linear both;
	stroke-dasharray:3334;
	stroke-width:128;
	stroke-linecap:round;
	fill:none;
}
#z28056 path[clip-path="url(#z28056c1)"] {animation-delay:1s;}
#z28056 path[clip-path="url(#z28056c2)"] {animation-delay:2s;}
#z28056 path[clip-path="url(#z28056c3)"] {animation-delay:3s;}
#z28056 path[clip-path="url(#z28056c4)"] {animation-delay:4s;}
#z28056 path[clip-path="url(#z28056c5)"] {animation-delay:5s;}
#z28056 path[clip-path="url(#z28056c6)"] {animation-delay:6s;}
#z28056 path[clip-path="url(#z28056c7)"] {animation-delay:7s;}
#z28056 path[clip-path="url(#z28056c8)"] {animation-delay:8s;}
#z28056 path[clip-path="url(#z28056c9)"] {animation-delay:9s;}
#z28056 path[clip-path="url(#z28056c10)"] {animation-delay:10s;}
#z28056 path {fill:#ccc;}
]]>
</style>
<path id="z28056d1" d="M240 216Q270 241 301 270Q317 285 335 284Q347 283 352 267Q358 251 346 217Q339 195 305 180Q220 155 208 161Q202 165 204 180Q208 193 240 216Z"></path>
<path id="z28056d2" d="M127 415Q178 488 212 506Q227 512 239 499Q246 486 246 468Q240 417 146 376Q130 369 118 372Q111 372 113 386Q113 399 127 415Z"></path>
<path id="z28056d3" d="M139 778C130 780 127 788 128 801C138 853 154 884 175 895C179 899 185 900 193 898C198 897 201 888 203 870C208 839 246 737 317 565C322 554 325 546 324 542C324 535 320 534 314 539C304 545 259 610 181 735C172 749 158 764 139 778Z"></path>
<path id="z28056d4" d="M723 264Q632 276 536 298Q526 301 523 298Q522 294 526 285Q623 153 644 131Q656 121 650 109Q643 97 596 74Q580 67 570 71Q558 77 564 97Q582 152 493 262Q471 286 436 311Q423 323 426 333Q432 349 456 370Q466 380 480 370Q525 337 728 289Q731 288 739 287C748 285 732 262 723 264Z"></path>
<path id="z28056d5" d="M739 287Q775 341 789 343Q798 344 805 335Q812 323 811 297Q811 272 780 244Q708 190 692 193Q688 196 686 207C711 245 711 245 723 264C734 279 734 279 739 287Z"></path>
<path id="z28056d6" d="M513 480Q519 468 549 427Q556 415 544 404Q511 377 486 380Q476 381 478 395Q490 455 417 550Q411 556 409 562Q402 575 415 570Q445 566 499 500C508 487 508 487 513 480Z"></path>
<path id="z28056d7" d="M604 508Q769 465 772 463Q779 456 775 447Q768 437 740 430Q718 427 616 459Q550 474 513 480C505 481 492 496 499 500Q500 500 503 502Q524 514 565 515C591 510 591 510 604 508Z"></path>
<path id="z28056d8" d="M623 646C695 634 787 626 879 626C891 625 899 622 903 616C905 608 901 600 891 592C854 566 813 560 768 576C677 596 677 596 632 606C595 613 595 613 576 617C509 627 427 642 349 656C336 658 335 664 345 675C353 683 364 689 376 692C390 694 402 694 412 691C458 676 517 663 569 655C605 649 605 649 623 646Z"></path>
<path id="z28056d9" d="M632 606Q642 552 646 545Q653 539 647 529Q641 520 604 508C592 503 560 503 565 515Q583 557 576 617C571 642 571 642 569 655Q550 754 440 825Q409 841 364 864Q342 874 368 876Q435 879 526 818Q541 805 556 787Q596 739 615 674C626 629 626 629 632 606Z"></path>
<path id="z28056d10" d="M615 674Q684 774 773 883Q792 902 820 899Q919 893 950 886Q959 885 960 879Q961 875 948 867Q813 813 739 751Q685 705 623 646C622 647 622 647 621 647C612 645 609 667 615 674Z"></path>
<defs>
	<clipPath id="z28056c1"><use xlink:href="#z28056d1"></use></clipPath>
	<clipPath id="z28056c2"><use xlink:href="#z28056d2"></use></clipPath>
	<clipPath id="z28056c3"><use xlink:href="#z28056d3"></use></clipPath>
	<clipPath id="z28056c4"><use xlink:href="#z28056d4"></use></clipPath>
	<clipPath id="z28056c5"><use xlink:href="#z28056d5"></use></clipPath>
	<clipPath id="z28056c6"><use xlink:href="#z28056d6"></use></clipPath>
	<clipPath id="z28056c7"><use xlink:href="#z28056d7"></use></clipPath>
	<clipPath id="z28056c8"><use xlink:href="#z28056d8"></use></clipPath>
	<clipPath id="z28056c9"><use xlink:href="#z28056d9"></use></clipPath>
	<clipPath id="z28056c10"><use xlink:href="#z28056d10"></use></clipPath>
</defs>
<path pathLength="3333" clip-path="url(#z28056c1)" d="M211 166L298 217L346 274"></path>
<path pathLength="3333" clip-path="url(#z28056c2)" d="M121 381L231 501"></path>
<path pathLength="3333" clip-path="url(#z28056c3)" d="M189 891L176 798L317 544"></path>
<path pathLength="3333" clip-path="url(#z28056c4)" d="M573 80L607 127L484 298L487 328L732 279"></path>
<path pathLength="3333" clip-path="url(#z28056c5)" d="M695 202L777 287L796 337"></path>
<path pathLength="3333" clip-path="url(#z28056c6)" d="M486 390L513 431L414 564"></path>
<path pathLength="3333" clip-path="url(#z28056c7)" d="M510 499L772 452"></path>
<path pathLength="3333" clip-path="url(#z28056c8)" d="M346 666L782 599L898 612"></path>
<path pathLength="3333" clip-path="url(#z28056c9)" d="M573 517L613 552L563 735L490 815L363 870"></path>
<path pathLength="3333" clip-path="url(#z28056c10)" d="M628 658L807 852L952 877"></path>
</svg>