<!--
AnimCJK 2016-2019 Copyright Francois Mizessyn - https://github.com/parsimonhi/animCJK
Derived from:
    MakeMeAHanzi project - https://github.com/skishore/makemeahanzi
    Arphic PL KaitiM GB font
    Arphic PL UKai font
You can redistribute and/or modify this file under the terms of the Arphic Public License
as published by Arphic Technology Co., Ltd.
You should have received a copy of this license along with this file.
If not, see http://ftp.gnu.org/non-gnu/chinese-fonts-truetype/LICENSE.
-->
<svg id="z28062" class="acjk" version="1.1" viewBox="0 0 1024 1024" xmlns="http://www.w3.org/2000/svg" xmlns:xlink="http://www.w3.org/1999/xlink">
<style>
<![CDATA[
@keyframes zk {
	to {
		stroke-dashoffset:0;
	}
}
svg.acjk path[clip-path] {
	--t:0.8s;
	animation:zk var(--t) linear forwards var(--d);
	stroke-dasharray:3337;
	stroke-dashoffset:3339;
	stroke-width:128;
	stroke-linecap:round;
	fill:none;
	stroke:#000;
}
svg.acjk path[id] {fill:#ccc;}
]]>
</style>
<path id="z28062d1" d="M212 212Q242 237 273 266Q289 281 307 280Q319 279 324 263Q330 247 318 213Q311 191 277 176Q192 151 180 157Q174 161 176 176Q180 189 212 212Z"/>
<path id="z28062d2" d="M122 389Q173 440 206 452Q222 455 231 440Q237 425 232 408Q225 383 204 370Q165 345 117 345Q110 344 105 347Q98 348 102 362Q103 375 122 389Z"/>
<path id="z28062d3" d="M117 722Q105 726 107 744Q119 819 156 841Q163 848 174 845Q181 844 183 818Q189 781 297 505Q304 489 303 482Q302 472 293 479Q280 488 160 678Q147 700 117 722Z"/>
<path id="z28062d4" d="M612 262Q742 231 747 227Q756 220 751 211Q744 201 716 193Q686 187 617 213C579 224 579 224 560 229Q512 238 457 244Q421 250 447 266Q486 290 560 272C561 272 561 272 561 272C595 265 595 265 612 262Z"/>
<path id="z28062d5" d="M419 396Q441 420 464 448Q474 461 489 462Q499 463 505 451Q511 438 506 410Q499 380 420 352Q407 348 400 349Q396 352 395 364Q396 374 419 396Z"/>
<path id="z28062d6" d="M713 327Q694 358 655 407Q649 414 655 421Q662 422 670 418Q748 367 785 348Q803 344 799 332Q793 316 774 298Q755 280 733 278Q718 279 719 298Q722 311 713 327Z"/>
<path id="z28062d7" d="M616 525Q697 513 855 513Q876 512 880 504Q884 492 868 478Q808 438 751 456Q693 466 610 485C578 490 578 490 562 493Q459 506 340 526Q319 527 335 545Q350 558 367 563Q389 569 405 563Q463 547 529 537C587 529 587 529 616 525Z"/>
<path id="z28062d8" d="M561 587Q561 725 538 812Q526 852 554 917Q561 936 569 939Q576 946 584 937Q591 933 602 911Q612 884 611 852Q610 815 610 562C610 511 610 511 610 485Q610 299 612 262C615 229 615 229 617 213Q621 180 628 154Q638 138 634 124Q627 114 569 79Q544 63 523 78Q517 84 524 100Q560 151 560 229C561 258 561 258 561 272Q564 368 562 493C561 556 561 556 561 587Z"/>
<path id="z28062d9" d="M529 537Q463 669 279 805Q267 817 276 819Q297 828 374 780Q449 735 559 590Q559 589 561 587C587 543 552 491 529 537Z"/>
<path id="z28062d10" d="M610 562Q691 686 789 788Q811 812 832 811Q890 802 942 796Q964 793 964 787Q965 781 940 770Q808 718 760 675Q664 585 616 525C599 504 594 541 610 562Z"/>
<defs>
	<clipPath id="z28062c1"><use xlink:href="#z28062d1"/></clipPath>
	<clipPath id="z28062c2"><use xlink:href="#z28062d2"/></clipPath>
	<clipPath id="z28062c3"><use xlink:href="#z28062d3"/></clipPath>
	<clipPath id="z28062c4"><use xlink:href="#z28062d4"/></clipPath>
	<clipPath id="z28062c5"><use xlink:href="#z28062d5"/></clipPath>
	<clipPath id="z28062c6"><use xlink:href="#z28062d6"/></clipPath>
	<clipPath id="z28062c7"><use xlink:href="#z28062d7"/></clipPath>
	<clipPath id="z28062c8"><use xlink:href="#z28062d8"/></clipPath>
	<clipPath id="z28062c9"><use xlink:href="#z28062d9"/></clipPath>
	<clipPath id="z28062c10"><use xlink:href="#z28062d10"/></clipPath>
</defs>
<path style="--d:1s;" pathLength="3333" clip-path="url(#z28062c1)" d="M183 162L270 213L318 270"/>
<path style="--d:2s;" pathLength="3333" clip-path="url(#z28062c2)" d="M106 356L195 406L222 446"/>
<path style="--d:3s;" pathLength="3333" clip-path="url(#z28062c3)" d="M169 838L155 743L297 486"/>
<path style="--d:4s;" pathLength="3333" clip-path="url(#z28062c4)" d="M445 254L746 214"/>
<path style="--d:5s;" pathLength="3333" clip-path="url(#z28062c5)" d="M404 357L498 456"/>
<path style="--d:6s;" pathLength="3333" clip-path="url(#z28062c6)" d="M728 284L755 334L656 413"/>
<path style="--d:7s;" pathLength="3333" clip-path="url(#z28062c7)" d="M335 534L390 542L774 482L876 494"/>
<path style="--d:8s;" pathLength="3333" clip-path="url(#z28062c8)" d="M526 81L593 145L579 936"/>
<path style="--d:9s;" pathLength="3333" clip-path="url(#z28062c9)" d="M557 541L414 721L279 814"/>
<path style="--d:10s;" pathLength="3333" clip-path="url(#z28062c10)" d="M616 532L701 651L823 765L957 784"/>
</svg>