<!--
AnimCJK 2016-2019 Copyright Francois Mizessyn - https://github.com/parsimonhi/animCJK
Derived from:
    MakeMeAHanzi project - https://github.com/skishore/makemeahanzi
    Arphic PL KaitiM GB font
    Arphic PL UKai font
You can redistribute and/or modify this file under the terms of the Arphic Public License
as published by Arphic Technology Co., Ltd.
You should have received a copy of this license along with this file.
If not, see http://ftp.gnu.org/non-gnu/chinese-fonts-truetype/LICENSE.
-->
<svg id="z28065" class="acjk" version="1.1" viewBox="0 0 1024 1024" xmlns="http://www.w3.org/2000/svg" xmlns:xlink="http://www.w3.org/1999/xlink">
<style>
<![CDATA[
@keyframes zk {
	to {
		stroke-dashoffset:0;
	}
}
svg.acjk path[clip-path] {
	--t:0.8s;
	animation:zk var(--t) linear forwards var(--d);
	stroke-dasharray:3337;
	stroke-dashoffset:3339;
	stroke-width:128;
	stroke-linecap:round;
	fill:none;
	stroke:#000;
}
svg.acjk path[id] {fill:#ccc;}
]]>
</style>
<path id="z28065d1" d="M249 191Q277 215 309 243Q325 258 343 256Q355 255 360 240Q364 222 353 189Q341 158 241 137Q223 133 216 137Q210 141 213 156Q217 169 249 191Z"/>
<path id="z28065d2" d="M149 371Q207 434 244 447Q260 451 271 435Q277 422 274 402Q262 357 189 336Q146 321 133 327Q126 328 129 342Q132 355 149 371Z"/>
<path id="z28065d3" d="M144 742Q131 746 134 764Q146 842 185 860Q192 867 203 865Q210 864 211 837Q220 783 317 529Q324 513 323 506Q322 496 313 503Q303 509 185 699Q172 721 144 742Z"/>
<path id="z28065d4" d="M464 157Q454 153 441 151Q428 147 425 153Q418 159 427 175Q452 229 466 316Q469 343 484 360Q502 382 507 367Q510 358 511 345C510 324 510 324 509 314Q503 251 495 186C493 172 477 162 464 157Z"/>
<path id="z28065d5" d="M740 282Q767 204 801 178Q817 160 803 143Q787 130 738 105Q720 98 700 105Q610 141 464 157C450 159 481 188 495 186Q508 185 523 181Q605 168 682 153Q701 149 710 157Q719 166 716 184Q706 236 692 280C686 295 734 297 740 282Z"/>
<path id="z28065d6" d="M606 332Q666 322 756 316Q766 315 767 307Q768 300 740 282C727 272 708 277 692 280Q589 302 509 314C499 316 501 345 511 345Q518 346 528 344Q544 340 566 337C593 334 593 334 606 332Z"/>
<path id="z28065d7" d="M406 462Q391 453 375 448Q366 447 360 455Q356 461 364 472Q400 557 376 723Q363 781 366 797Q376 831 388 844Q400 857 409 843Q433 816 434 668Q434 539 440 501C443 484 420 472 406 462Z"/>
<path id="z28065d8" d="M619 468Q686 456 760 448Q782 444 794 456Q801 460 804 496Q811 616 802 751Q801 772 793 777Q780 784 714 764Q698 760 698 769Q698 776 711 784Q768 833 797 870Q816 891 830 888Q842 887 855 858Q871 813 874 748Q865 597 865 542Q866 502 879 480Q891 458 881 447Q871 431 825 407Q806 397 787 401Q736 417 627 436Q626 436 625 437C591 442 591 442 574 444Q492 454 406 462C389 465 424 507 440 501Q446 495 571 475C603 470 603 470 619 468Z"/>
<path id="z28065d9" d="M602 538Q617 475 619 468C623 447 623 447 625 437Q626 418 631 396Q635 380 637 370Q644 352 626 343Q616 336 606 332C594 327 558 327 566 337Q582 353 574 444C572 465 572 465 571 475Q565 574 472 654Q459 664 456 669Q455 675 464 675Q492 678 541 635Q572 607 594 560C599 545 599 545 602 538Z"/>
<path id="z28065d10" d="M594 560Q646 605 707 666Q720 682 735 686Q742 687 749 678Q759 665 746 628Q734 580 602 538C595 536 588 555 594 560Z"/>
<defs>
	<clipPath id="z28065c1"><use xlink:href="#z28065d1"/></clipPath>
	<clipPath id="z28065c2"><use xlink:href="#z28065d2"/></clipPath>
	<clipPath id="z28065c3"><use xlink:href="#z28065d3"/></clipPath>
	<clipPath id="z28065c4"><use xlink:href="#z28065d4"/></clipPath>
	<clipPath id="z28065c5"><use xlink:href="#z28065d5"/></clipPath>
	<clipPath id="z28065c6"><use xlink:href="#z28065d6"/></clipPath>
	<clipPath id="z28065c7"><use xlink:href="#z28065d7"/></clipPath>
	<clipPath id="z28065c8"><use xlink:href="#z28065d8"/></clipPath>
	<clipPath id="z28065c9"><use xlink:href="#z28065d9"/></clipPath>
	<clipPath id="z28065c10"><use xlink:href="#z28065d10"/></clipPath>
</defs>
<path style="--d:1s;" pathLength="3333" clip-path="url(#z28065c1)" d="M220 146L310 195L351 248"/>
<path style="--d:2s;" pathLength="3333" clip-path="url(#z28065c2)" d="M134 334L268 435"/>
<path style="--d:3s;" pathLength="3333" clip-path="url(#z28065c3)" d="M200 860L183 757L318 508"/>
<path style="--d:4s;" pathLength="3333" clip-path="url(#z28065c4)" d="M430 157L468 201L497 367"/>
<path style="--d:5s;" pathLength="3333" clip-path="url(#z28065c5)" d="M474 158L728 133L762 172L700 274"/>
<path style="--d:6s;" pathLength="3333" clip-path="url(#z28065c6)" d="M518 337L686 301L761 306"/>
<path style="--d:7s;" pathLength="3333" clip-path="url(#z28065c7)" d="M365 456L409 514L393 842"/>
<path style="--d:8s;" pathLength="3333" clip-path="url(#z28065c8)" d="M415 463L455 478L789 424L838 455L831 797L803 835L704 770"/>
<path style="--d:9s;" pathLength="3333" clip-path="url(#z28065c9)" d="M575 340L607 369L579 541L533 617L463 669"/>
<path style="--d:10s;" pathLength="3333" clip-path="url(#z28065c10)" d="M604 545L747 675"/>
</svg>