<!--
AnimCJK 2016-2017 Copyright Francois Mizessyn, http://gooo.free.fr/animCJK/
Derived from:
    MakeMeAHanzi project - https://github.com/skishore/makemeahanzi
    Arphic PL KaitiM GB - https://apps.ubuntu.com/cat/applications/precise/fonts-arphic-gkai00mp/
    Arphic PL UKai - https://apps.ubuntu.com/cat/applications/fonts-arphic-ukai/
You can redistribute and/or modify this file under the terms of the Arphic Public License
as published by Arphic Technology Co., Ltd.
You should have received a copy of this license (the directory "APL") along with this file;
if not, see http://ftp.gnu.org/non-gnu/chinese-fonts-truetype/LICENSE.
-->
<svg id="z28072" class="acjk" version="1.1" viewBox="0 0 1024 1024" xmlns="http://www.w3.org/2000/svg" xmlns:xlink="http://www.w3.org/1999/xlink">
<style>
<![CDATA[
@keyframes z28072k {
	from {
		stroke:#c00;
		stroke-dashoffset:3000;
	}
	75% {
		stroke:#c00;
		stroke-dashoffset:0;
	}
	to {
		stroke:#000;
	}
}
#z28072 path[clip-path] {
	animation:z28072k 1s linear both;
	stroke-dasharray:3000;
	stroke-width:128;
	stroke-linecap:round;
	fill:none;
}
#z28072 path[clip-path="url(#z28072c1)"] {animation-delay:1s;}
#z28072 path[clip-path="url(#z28072c2)"] {animation-delay:2s;}
#z28072 path[clip-path="url(#z28072c3)"] {animation-delay:3s;}
#z28072 path[clip-path="url(#z28072c4)"] {animation-delay:4s;}
#z28072 path[clip-path="url(#z28072c5)"] {animation-delay:5s;}
#z28072 path[clip-path="url(#z28072c6)"] {animation-delay:6s;}
#z28072 path[clip-path="url(#z28072c7)"] {animation-delay:7s;}
#z28072 path[clip-path="url(#z28072c8)"] {animation-delay:8s;}
#z28072 path[clip-path="url(#z28072c9)"] {animation-delay:9s;}
#z28072 path[clip-path="url(#z28072c10)"] {animation-delay:10s;}
#z28072 path {fill:#ccc;}
]]>
</style>
<path id="z28072d1" d="M194 183Q216 202 239 228Q252 241 269 241Q279 241 285 227Q289 212 281 183Q277 165 249 152Q180 127 168 133Q164 137 164 150Q168 160 194 183 Z"/>
<path id="z28072d2" d="M108 375Q156 426 191 439Q206 442 215 428Q221 415 217 397Q205 358 142 341Q105 331 93 336Q86 337 90 350Q91 362 108 375 Z"/>
<path id="z28072d3" d="M99 746Q89 750 92 766Q113 832 146 848Q153 854 162 850Q169 849 168 825Q168 779 240 526Q244 510 243 505Q242 496 234 503Q221 513 134 701Q124 723 99 746 Z"/>
<path id="z28072d4" d="M449 324Q474 242 502 217Q524 195 503 181Q485 171 461 153Q443 141 404 166Q334 188 320 192Q310 192 311 198Q312 202 325 209Q341 216 418 200Q431 197 435 203Q442 210 429 244Q417 278 402 319L449 324 Z"/>
<path id="z28072d5" d="M355 373Q361 372 368 370Q401 364 460 353Q470 350 471 345Q470 335 450 324L449 324L402 319Q399 319 397 321Q375 333 358 339Q354 339 352 341L355 373 Z"/>
<path id="z28072d6" d="M393 486Q412 485 419 493Q429 508 425 544Q418 632 395 693Q383 726 372 738Q365 745 344 739Q316 726 294 716Q281 709 281 719Q282 731 294 744Q324 780 339 812Q354 836 377 824Q440 773 452 710Q483 521 487 517Q488 511 492 508Q502 492 493 483Q481 467 453 453Q431 443 417 450Q401 454 350 467Q343 468 339 466Q335 463 338 453Q344 417 355 373L352 341Q343 331 317 318Q305 309 298 316Q288 322 298 334Q314 362 306 406Q296 464 271 487Q261 499 264 510Q271 522 280 529Q290 536 306 522Q342 486 393 486 Z"/>
<path id="z28072d7" d="M747 178Q754 191 748 204Q718 274 650 360Q643 367 640 372Q637 381 648 380Q691 374 786 253Q799 234 811 224Q818 217 816 205Q813 195 792 176Q771 160 757 160Q742 160 747 178 Z"/>
<path id="z28072d8" d="M674 489Q695 474 859 463Q902 459 906 451Q910 441 894 429Q839 396 783 419Q740 431 678 448Q651 454 624 461L584 471Q550 478 513 487Q494 491 510 505Q523 515 540 519Q550 519 583 513L622 501Q626 500 633 498L674 489 Z"/>
<path id="z28072d9" d="M624 461Q634 182 639 170Q646 152 632 138Q610 122 585 115Q557 108 548 120Q541 130 553 143Q571 159 576 200Q588 279 584 471L583 513Q576 771 542 813Q530 831 541 850Q554 869 571 877Q581 884 593 866Q609 838 698 743Q723 722 725 712Q726 705 721 704Q718 704 625 766Q612 779 610 760Q617 633 622 501L624 461 Z"/>
<path id="z28072d10" d="M633 498Q654 514 668 537Q812 756 843 766Q906 766 960 758Q973 757 978 750Q982 744 973 741Q828 666 750 580Q714 540 674 489L633 498 Z"/>
<defs>
	<clipPath id="z28072c1"><use xlink:href="#z28072d1"/></clipPath>
	<clipPath id="z28072c2"><use xlink:href="#z28072d2"/></clipPath>
	<clipPath id="z28072c3"><use xlink:href="#z28072d3"/></clipPath>
	<clipPath id="z28072c4"><use xlink:href="#z28072d4"/></clipPath>
	<clipPath id="z28072c5"><use xlink:href="#z28072d5"/></clipPath>
	<clipPath id="z28072c6"><use xlink:href="#z28072d6"/></clipPath>
	<clipPath id="z28072c7"><use xlink:href="#z28072d7"/></clipPath>
	<clipPath id="z28072c8"><use xlink:href="#z28072d8"/></clipPath>
	<clipPath id="z28072c9"><use xlink:href="#z28072d9"/></clipPath>
	<clipPath id="z28072c10"><use xlink:href="#z28072d10"/></clipPath>
</defs>
<path pathLength="2999" clip-path="url(#z28072c1)" d="M172 142L241 183L274 235"/>
<path pathLength="2999" clip-path="url(#z28072c2)" d="M96 342L211 427"/>
<path pathLength="2999" clip-path="url(#z28072c3)" d="M158 845L134 761L237 507"/>
<path pathLength="2999" clip-path="url(#z28072c4)" d="M317 198L438 174L475 202L414 318"/>
<path pathLength="2999" clip-path="url(#z28072c5)" d="M360 365L401 342L464 344"/>
<path pathLength="2999" clip-path="url(#z28072c6)" d="M300 321L331 373L311 496L426 468L460 503L424 699L393 763L354 784L287 722"/>
<path pathLength="2999" clip-path="url(#z28072c7)" d="M755 170L781 212L647 374"/>
<path pathLength="2999" clip-path="url(#z28072c8)" d="M511 495L815 438L902 440"/>
<path pathLength="2999" clip-path="url(#z28072c9)" d="M553 124L606 168L579 808L599 827L719 713"/>
<path pathLength="2999" clip-path="url(#z28072c10)" d="M642 498L852 720L972 748"/>
</svg>