<!--
AnimCJK 2016-2017 Copyright Francois Mizessyn, http://gooo.free.fr/animCJK/
Derived from:
    MakeMeAHanzi project - https://github.com/skishore/makemeahanzi
    Arphic PL KaitiM GB - https://apps.ubuntu.com/cat/applications/precise/fonts-arphic-gkai00mp/
    Arphic PL UKai - https://apps.ubuntu.com/cat/applications/fonts-arphic-ukai/
You can redistribute and/or modify this file under the terms of the Arphic Public License
as published by Arphic Technology Co., Ltd.
You should have received a copy of this license (the directory "APL") along with this file;
if not, see http://ftp.gnu.org/non-gnu/chinese-fonts-truetype/LICENSE.
-->
<svg id="z28070" class="acjk" version="1.1" viewBox="0 0 1024 1024" xmlns="http://www.w3.org/2000/svg" xmlns:xlink="http://www.w3.org/1999/xlink">
<style>
<![CDATA[
	@keyframes z28070k {
		from {
			stroke:#c00;
			stroke-dashoffset:3000;
		}
		75% {
			stroke:#c00;
			stroke-dashoffset:0;
		}
		to {
			stroke:#000;
		}
	}
	#z28070 path[clip-path] {
		animation:z28070k 1s linear both;
		stroke-dasharray:3000;
		stroke-width:128;
		stroke-linecap:round;
		fill:none;
	}
	#z28070 path[clip-path="url(#z28070c1)"] {animation-delay:1s;}
	#z28070 path[clip-path="url(#z28070c2)"] {animation-delay:2s;}
	#z28070 path[clip-path="url(#z28070c3)"] {animation-delay:3s;}
	#z28070 path[clip-path="url(#z28070c4)"] {animation-delay:4s;}
	#z28070 path[clip-path="url(#z28070c5)"] {animation-delay:5s;}
	#z28070 path[clip-path="url(#z28070c6)"] {animation-delay:6s;}
	#z28070 path[clip-path="url(#z28070c7)"] {animation-delay:7s;}
	#z28070 path[clip-path="url(#z28070c8)"] {animation-delay:8s;}
	#z28070 path[clip-path="url(#z28070c9)"] {animation-delay:9s;}
	#z28070 path[clip-path="url(#z28070c10)"] {animation-delay:10s;}
	#z28070 path {fill:#ccc;}
]]>
</style>
<g transform="scale(1,-1) translate(0,-900)">
	<path id="z28070d1" d="M202 693Q226 671 251 644Q264 631 281 631Q291 631 297 645Q301 660 294 689Q285 717 198 742Q182 746 176 743Q172 739 172 726Q176 716 202 693Z"/>
	<path id="z28070d2" d="M123 506Q168 457 200 442Q215 439 223 453Q229 465 226 481Q214 520 134 543Q118 547 109 544Q103 543 106 531Q107 519 123 506Z"/>
	<path id="z28070d3" d="M120 146Q108 142 111 126Q133 51 163 38Q170 31 180 35Q187 36 187 61Q190 107 279 369Q285 385 283 390Q282 400 273 393Q264 387 158 192Q148 170 120 146Z"/>
	<path id="z28070d4" d="M435 719Q486 646 511 642Q526 641 534 659Q537 672 528 694Q510 728 441 747Q431 750 430 737Q429 730 435 719Z"/>
	<path id="z28070d5" d="M327 654Q351 593 350 532Q354 280 313 158Q295 104 329 65Q339 50 350 65Q384 101 385 251Q385 531 402 622Q403 640 388 649Q366 668 339 677Q329 678 323 670Q320 666 327 654Z"/>
	<path id="z28070d6" d="M767 73Q730 77 692 84Q670 88 673 79Q749 31 793 -5Q809 -24 825 -28Q835 -32 843 -21Q885 37 878 91Q841 634 869 692Q882 713 869 723Q847 742 807 758Q788 765 771 757Q699 718 586 709Q570 708 580 698Q589 688 604 681Q625 678 761 709Q782 713 788 703Q795 681 799 647Q818 319 806 121Q806 90 796 74Q790 67 767 73Z"/>
	<path id="z28070d7" d="M599 491Q704 521 708 524Q715 531 711 538Q704 548 679 553Q655 557 588 531Q525 513 474 504Q443 497 466 484Q502 466 552 481L557 481L599 491Z"/>
	<path id="z28070d8" d="M603 362Q634 371 670 378Q698 385 704 389Q711 396 707 403Q700 412 677 417Q653 421 605 403L561 389Q521 380 474 374Q444 368 466 356Q494 341 562 352L603 362Z"/>
	<path id="z28070d9" d="M599 267Q600 318 603 362L605 403Q605 433 608 463Q614 478 606 486Q602 490 599 491L557 481Q560 468 561 389L562 352Q562 315 562 259L599 267Z"/>
	<path id="z28070d10" d="M562 259Q498 249 425 234Q409 231 421 219Q433 209 447 205Q463 201 476 206Q596 240 749 241Q765 242 768 249Q772 259 758 269Q713 299 662 283Q635 277 599 267L562 259Z"/>
	<defs>
		<clipPath id="z28070c1"><use xlink:href="#z28070d1"/></clipPath>
		<clipPath id="z28070c2"><use xlink:href="#z28070d2"/></clipPath>
		<clipPath id="z28070c3"><use xlink:href="#z28070d3"/></clipPath>
		<clipPath id="z28070c4"><use xlink:href="#z28070d4"/></clipPath>
		<clipPath id="z28070c5"><use xlink:href="#z28070d5"/></clipPath>
		<clipPath id="z28070c6"><use xlink:href="#z28070d6"/></clipPath>
		<clipPath id="z28070c7"><use xlink:href="#z28070d7"/></clipPath>
		<clipPath id="z28070c8"><use xlink:href="#z28070d8"/></clipPath>
		<clipPath id="z28070c9"><use xlink:href="#z28070d9"/></clipPath>
		<clipPath id="z28070c10"><use xlink:href="#z28070d10"/></clipPath>
	</defs>
	<path pathLength="2999" clip-path="url(#z28070c1)" d="M179 739L290 640"/>
	<path pathLength="2999" clip-path="url(#z28070c2)" d="M112 537L216 449"/>
	<path pathLength="2999" clip-path="url(#z28070c3)" d="M174 39L155 126L278 386"/>
	<path pathLength="2999" clip-path="url(#z28070c4)" d="M437 738L524 651"/>
	<path pathLength="2999" clip-path="url(#z28070c5)" d="M329 668L372 608L338 63"/>
	<path pathLength="2999" clip-path="url(#z28070c6)" d="M585 702L775 734L833 703L839 72L811 21L684 80"/>
	<path pathLength="2999" clip-path="url(#z28070c7)" d="M465 494L705 530"/>
	<path pathLength="2999" clip-path="url(#z28070c8)" d="M467 364L701 399"/>
	<path pathLength="2999" clip-path="url(#z28070c9)" d="M563 473L585 450L575 262"/>
	<path pathLength="2999" clip-path="url(#z28070c10)" d="M424 227L687 264L764 255"/>
</g>
</svg>