<!--
AnimCJK 2016-2017 Copyright Francois Mizessyn, http://gooo.free.fr/animCJK/
Derived from:
    MakeMeAHanzi project - https://github.com/skishore/makemeahanzi
    Arphic PL KaitiM GB - https://apps.ubuntu.com/cat/applications/precise/fonts-arphic-gkai00mp/
    Arphic PL UKai - https://apps.ubuntu.com/cat/applications/fonts-arphic-ukai/
You can redistribute and/or modify this file under the terms of the Arphic Public License
as published by Arphic Technology Co., Ltd.
You should have received a copy of this license (the directory "APL") along with this file;
if not, see http://ftp.gnu.org/non-gnu/chinese-fonts-truetype/LICENSE.
-->
<svg id="z28085" class="acjk" version="1.1" viewBox="0 0 1024 1024" xmlns="http://www.w3.org/2000/svg" xmlns:xlink="http://www.w3.org/1999/xlink">
<style>
<![CDATA[
	@keyframes z28085k {
		from {
			stroke:#c00;
			stroke-dashoffset:3000;
		}
		75% {
			stroke:#c00;
			stroke-dashoffset:0;
		}
		to {
			stroke:#000;
		}
	}
	#z28085 path[clip-path] {
		animation:z28085k 1s linear both;
		stroke-dasharray:3000;
		stroke-width:128;
		stroke-linecap:round;
		fill:none;
	}
	#z28085 path[clip-path="url(#z28085c1)"] {animation-delay:1s;}
	#z28085 path[clip-path="url(#z28085c2)"] {animation-delay:2s;}
	#z28085 path[clip-path="url(#z28085c3)"] {animation-delay:3s;}
	#z28085 path[clip-path="url(#z28085c4)"] {animation-delay:4s;}
	#z28085 path[clip-path="url(#z28085c5)"] {animation-delay:5s;}
	#z28085 path[clip-path="url(#z28085c6)"] {animation-delay:6s;}
	#z28085 path[clip-path="url(#z28085c7)"] {animation-delay:7s;}
	#z28085 path[clip-path="url(#z28085c8)"] {animation-delay:8s;}
	#z28085 path[clip-path="url(#z28085c9)"] {animation-delay:9s;}
	#z28085 path[clip-path="url(#z28085c10)"] {animation-delay:10s;}
	#z28085 path[clip-path="url(#z28085c11)"] {animation-delay:11s;}
	#z28085 path {fill:#ccc;}
]]>
</style>
<g transform="scale(1,-1) translate(0,-900)">
	<path id="z28085d1" d="M235 708Q257 687 281 662Q297 649 314 649Q327 649 332 665Q338 681 327 715Q321 734 291 746Q219 773 204 763Q198 759 200 744Q204 731 235 708Z"/>
	<path id="z28085d2" d="M136 530Q182 482 220 465Q235 464 243 477Q249 489 245 505Q230 547 146 568Q130 572 121 568Q115 567 118 555Q119 543 136 530Z"/>
	<path id="z28085d3" d="M113 162Q101 158 104 141Q120 68 156 49Q163 42 173 45Q180 46 181 72Q187 123 282 388Q289 404 287 410Q286 420 277 413Q268 407 154 208Q141 186 113 162Z"/>
	<path id="z28085d4" d="M596 558Q708 651 743 663Q762 669 756 685Q753 700 690 735Q671 745 650 737Q595 716 512 692Q491 685 438 686Q416 686 424 667Q431 655 450 644Q480 629 514 648Q634 700 650 692Q660 685 656 672Q620 623 579 566L596 558Z"/>
	<path id="z28085d5" d="M579 566Q569 572 559 573Q549 576 542 571Q539 568 549 557Q586 512 587 326Q586 322 586 317Q580 268 554 266Q550 267 546 267Q492 276 490 273Q489 269 496 262Q542 220 566 189Q573 179 580 180Q587 181 602 194Q635 227 631 348Q628 370 627 398Q621 471 618 491Q614 515 613 533Q613 549 602 555Q599 556 596 558L579 566Z"/>
	<path id="z28085d6" d="M424 474Q463 432 492 416Q504 415 512 425Q516 435 515 449Q503 486 434 506Q421 510 413 507Q409 506 410 496Q411 486 424 474Z"/>
	<path id="z28085d7" d="M388 289Q379 285 380 278Q381 268 390 264Q411 260 438 254Q445 254 452 263Q465 285 530 353Q539 363 545 372Q552 381 550 387Q546 390 537 385Q416 298 388 289Z"/>
	<path id="z28085d8" d="M716 523Q694 489 647 439Q643 433 647 427Q653 426 659 430Q737 485 775 505Q788 509 786 517Q782 530 766 545Q751 561 733 562Q721 562 722 547Q723 535 716 523Z"/>
	<path id="z28085d9" d="M662 340Q696 309 736 262Q749 247 760 243Q767 242 773 250Q782 260 773 294Q764 327 714 345Q681 358 663 363Q656 367 654 358Q654 348 662 340Z"/>
	<path id="z28085d10" d="M808 192Q564 179 378 136Q353 130 360 159Q367 228 374 299Q378 324 367 338Q351 354 327 369Q315 375 305 372Q295 368 303 348Q333 281 322 214Q315 150 289 121Q270 105 277 89Q287 73 304 62Q317 53 328 62Q341 75 375 88Q508 125 649 146Q764 162 796 154L808 192Z"/>
	<path id="z28085d11" d="M796 154Q790 129 814 81Q824 65 836 76Q863 103 866 192Q882 349 892 366Q892 369 894 370Q903 386 892 400Q871 416 837 437Q824 444 810 438Q803 434 805 419Q829 382 815 237Q814 236 814 231Q813 210 808 192L796 154Z"/>
	<defs>
		<clipPath id="z28085c1"><use xlink:href="#z28085d1"/></clipPath>
		<clipPath id="z28085c2"><use xlink:href="#z28085d2"/></clipPath>
		<clipPath id="z28085c3"><use xlink:href="#z28085d3"/></clipPath>
		<clipPath id="z28085c4"><use xlink:href="#z28085d4"/></clipPath>
		<clipPath id="z28085c5"><use xlink:href="#z28085d5"/></clipPath>
		<clipPath id="z28085c6"><use xlink:href="#z28085d6"/></clipPath>
		<clipPath id="z28085c7"><use xlink:href="#z28085d7"/></clipPath>
		<clipPath id="z28085c8"><use xlink:href="#z28085d8"/></clipPath>
		<clipPath id="z28085c9"><use xlink:href="#z28085d9"/></clipPath>
		<clipPath id="z28085c10"><use xlink:href="#z28085d10"/></clipPath>
		<clipPath id="z28085c11"><use xlink:href="#z28085d11"/></clipPath>
	</defs>
	<path pathLength="2999" clip-path="url(#z28085c1)" d="M204 752L286 709L320 656"/>
	<path pathLength="2999" clip-path="url(#z28085c2)" d="M122 563L239 477"/>
	<path pathLength="2999" clip-path="url(#z28085c3)" d="M168 49L150 143L280 410"/>
	<path pathLength="2999" clip-path="url(#z28085c4)" d="M427 675L487 663L673 711L706 674L587 568"/>
	<path pathLength="2999" clip-path="url(#z28085c5)" d="M549 568L590 529L605 285L570 224L499 269"/>
	<path pathLength="2999" clip-path="url(#z28085c6)" d="M418 504L508 426"/>
	<path pathLength="2999" clip-path="url(#z28085c7)" d="M384 279L432 281L542 380"/>
	<path pathLength="2999" clip-path="url(#z28085c8)" d="M732 558L748 515L653 434"/>
	<path pathLength="2999" clip-path="url(#z28085c9)" d="M660 359L739 301L769 250"/>
	<path pathLength="2999" clip-path="url(#z28085c10)" d="M308 365L347 302L326 128L347 98L801 181"/>
	<path pathLength="2999" clip-path="url(#z28085c11)" d="M814 435L857 380L827 78"/>
</g>
</svg>