<!--
AnimCJK 2016-2025 Copyright FM-SH - https://github.com/parsimonhi/animCJK
Derived from:
    MakeMeAHanzi project - https://github.com/skishore/makemeahanzi
    Arphic PL KaitiM GB font
    Arphic PL UKai font
You can redistribute and/or modify this file under the terms of the Arphic Public License
as published by Arphic Technology Co., Ltd.
You should have received a copy of this license along with this file.
If not, see http://ftp.gnu.org/non-gnu/chinese-fonts-truetype/LICENSE.
-->
<svg id="z28085" class="acjk" version="1.1" viewBox="0 0 1024 1024" xmlns="http://www.w3.org/2000/svg" xmlns:xlink="http://www.w3.org/1999/xlink">
<style>
<![CDATA[
@keyframes zk {
	to {
		stroke-dashoffset:0;
	}
}
svg.acjk path[clip-path] {
	--t:0.8s;
	animation:zk var(--t) linear forwards var(--d);
	stroke-dasharray:3337;
	stroke-dashoffset:3339;
	stroke-width:128;
	stroke-linecap:round;
	fill:none;
	stroke:#000;
}
svg.acjk path[id] {fill:#ccc;}
]]>
</style>
<path id="z28085d1" d="M235 192C250 204 264 222 281 238C290 247 302 251 314 251C322 251 328 245 332 235C335 224 334 207 327 185C322 172 311 161 291 154C243 135 214 130 204 137C200 139 197 146 200 156C201 164 215 175 235 192Z"/>
<path id="z28085d2" d="M136 370C167 400 193 426 220 435C229 438 238 431 243 423C247 415 248 405 245 395C235 366 202 346 146 332C135 329 127 329 121 332C117 333 116 336 118 345C119 352 125 360 136 370Z"/>
<path id="z28085d3" d="M113 738C106 742 101 747 104 759C114 807 132 836 156 851C161 854 166 856 173 855C177 853 179 845 181 828C184 793 217 688 282 512C285 501 287 494 287 490C285 483 283 482 277 487C154 697 144 722 113 738Z"/>
<path id="z28085d4" d="M596 342C670 280 719 244 743 237C755 232 759 225 756 215C753 205 732 188 690 165C677 158 663 157 650 163C613 176 567 191 512 208C497 212 473 214 438 214C423 213 418 220 424 233C428 241 437 249 450 256C469 266 490 262 514 252C593 215 639 202 650 208C657 212 660 220 656 228C634 262 606 294 579 332C575 337 591 346 596 342Z"/>
<path id="z28085d5" d="M579 332C563 325 548 323 542 329C539 330 542 335 549 343C573 372 588 450 587 574C586 618 574 637 546 633C494 624 472 615 507 648C532 671 552 692 566 711C570 717 575 720 580 720C584 719 592 715 602 706C624 684 634 632 631 552C630 537 628 520 627 502C623 453 619 422 618 409C612 364 618 357 596 342C590 338 585 334 579 332Z"/>
<path id="z28085d6" d="M424 426C450 453 471 475 492 484C499 487 507 482 512 475C515 468 517 460 515 451C508 425 479 407 434 394C425 391 418 391 413 393C410 393 409 397 410 404C410 410 415 417 424 426Z"/>
<path id="z28085d7" d="M388 611C381 613 379 617 380 622C380 628 383 634 390 636C403 639 419 642 438 646C442 646 447 643 452 637C461 622 486 592 530 547C536 540 540 533 545 528C549 521 552 516 550 513C548 510 542 511 537 515C455 572 406 604 388 611Z"/>
<path id="z28085d8" d="M716 377C701 399 677 427 647 461C643 464 643 470 647 473C650 475 655 472 659 470C711 433 749 407 775 395C783 391 787 388 786 383C783 374 776 365 766 355C755 344 745 338 733 338C725 337 721 343 722 353C722 361 720 369 716 377Z"/>
<path id="z28085d9" d="M662 560C684 580 709 606 736 638C744 648 752 654 760 657C764 658 768 655 773 650C778 643 779 628 773 606C767 583 747 567 714 555C691 546 674 541 663 537C657 535 654 535 654 542C653 548 656 554 662 560Z"/>
<path id="z28085d10" d="M808 708C645 716 501 735 378 764C361 767 357 760 360 741C366 695 368 648 374 601C375 584 374 570 367 562C356 550 343 540 327 531C319 526 311 525 305 528C298 530 297 538 303 552C322 596 328 641 322 686C316 728 307 760 289 779C277 790 271 800 277 811C282 822 292 830 304 838C312 843 321 844 328 838C337 829 351 818 375 812C463 785 554 767 649 754C725 742 774 740 796 746C809 749 821 708 808 708Z"/>
<path id="z28085d11" d="M796 746C793 773 802 805 814 819C821 828 828 831 836 824C854 806 861 767 866 708C874 603 886 546 892 534C897 520 902 509 892 500C879 487 859 476 837 463C828 457 819 457 810 462C805 464 800 471 805 481C818 507 825 566 815 663C813 677 811 694 808 708C805 721 796 733 796 746Z"/>
<defs>
	<clipPath id="z28085c1"><use xlink:href="#z28085d1"/></clipPath>
	<clipPath id="z28085c2"><use xlink:href="#z28085d2"/></clipPath>
	<clipPath id="z28085c3"><use xlink:href="#z28085d3"/></clipPath>
	<clipPath id="z28085c4"><use xlink:href="#z28085d4"/></clipPath>
	<clipPath id="z28085c5"><use xlink:href="#z28085d5"/></clipPath>
	<clipPath id="z28085c6"><use xlink:href="#z28085d6"/></clipPath>
	<clipPath id="z28085c7"><use xlink:href="#z28085d7"/></clipPath>
	<clipPath id="z28085c8"><use xlink:href="#z28085d8"/></clipPath>
	<clipPath id="z28085c9"><use xlink:href="#z28085d9"/></clipPath>
	<clipPath id="z28085c10"><use xlink:href="#z28085d10"/></clipPath>
	<clipPath id="z28085c11"><use xlink:href="#z28085d11"/></clipPath>
</defs>
<path style="--d:1s;" pathLength="3333" clip-path="url(#z28085c1)" d="M205 147L288 193L322 244"/>
<path style="--d:2s;" pathLength="3333" clip-path="url(#z28085c2)" d="M125 340L236 427"/>
<path style="--d:3s;" pathLength="3333" clip-path="url(#z28085c3)" d="M106 750L165 801L280 494"/>
<path style="--d:4s;" pathLength="3333" clip-path="url(#z28085c4)" d="M427 221L480 237L673 188L706 223L586 334"/>
<path style="--d:5s;" pathLength="3333" clip-path="url(#z28085c5)" d="M551 335L591 376L606 614L573 675L499 630"/>
<path style="--d:6s;" pathLength="3333" clip-path="url(#z28085c6)" d="M417 398L508 475"/>
<path style="--d:7s;" pathLength="3333" clip-path="url(#z28085c7)" d="M385 625L429 620L543 519"/>
<path style="--d:8s;" pathLength="3333" clip-path="url(#z28085c8)" d="M731 342L749 383L651 465"/>
<path style="--d:9s;" pathLength="3333" clip-path="url(#z28085c9)" d="M660 543L736 597L761 652"/>
<path style="--d:10s;" pathLength="3333" clip-path="url(#z28085c10)" d="M306 533L346 594L322 780L341 803L526 754L810 720"/>
<path style="--d:11s;" pathLength="3333" clip-path="url(#z28085c11)" d="M809 466L857 521L821 822"/>
</svg>