<!--
AnimCJK 2016-2018 Copyright Francois Mizessyn - https://github.com/parsimonhi/animCJK
Derived from:
    MakeMeAHanzi project - https://github.com/skishore/makemeahanzi
    Arphic PL KaitiM GB - https://apps.ubuntu.com/cat/applications/precise/fonts-arphic-gkai00mp/
    Arphic PL UKai - https://apps.ubuntu.com/cat/applications/fonts-arphic-ukai/
You can redistribute and/or modify this file under the terms of the Arphic Public License
as published by Arphic Technology Co., Ltd.
You should have received a copy of this license (the directory "APL") along with this file;
if not, see http://ftp.gnu.org/non-gnu/chinese-fonts-truetype/LICENSE.
-->
<svg id="z28088" class="acjk" version="1.1" viewBox="0 0 1024 1024" xmlns="http://www.w3.org/2000/svg" xmlns:xlink="http://www.w3.org/1999/xlink">
<style>
<![CDATA[
@keyframes z28088k {
	from {
		stroke:#ccc;
		stroke-dashoffset:3334;
	}
	1% {
		stroke:#c00;
		stroke-dashoffset:3334;
	}
	75% {
		stroke:#c00;
		stroke-dashoffset:0;
	}
	to {
		stroke:#000;
	}
}
#z28088 path[clip-path] {
	animation:z28088k 1s linear both;
	stroke-dasharray:3334;
	stroke-width:128;
	stroke-linecap:round;
	fill:none;
}
#z28088 path[clip-path="url(#z28088c1)"] {animation-delay:1s;}
#z28088 path[clip-path="url(#z28088c2)"] {animation-delay:2s;}
#z28088 path[clip-path="url(#z28088c3)"] {animation-delay:3s;}
#z28088 path[clip-path="url(#z28088c4)"] {animation-delay:4s;}
#z28088 path[clip-path="url(#z28088c5)"] {animation-delay:5s;}
#z28088 path[clip-path="url(#z28088c6)"] {animation-delay:6s;}
#z28088 path[clip-path="url(#z28088c7)"] {animation-delay:7s;}
#z28088 path[clip-path="url(#z28088c8)"] {animation-delay:8s;}
#z28088 path[clip-path="url(#z28088c9)"] {animation-delay:9s;}
#z28088 path[clip-path="url(#z28088c10)"] {animation-delay:10s;}
#z28088 path[clip-path="url(#z28088c11)"] {animation-delay:11s;}
#z28088 path {fill:#ccc;}
]]>
</style>
<path id="z28088d1" d="M214 183Q233 205 253 231Q266 247 283 248Q293 248 301 235Q308 220 302 188Q295 160 215 132Q199 128 192 129Q186 133 187 146Q188 158 214 183Z"></path>
<path id="z28088d2" d="M140 395Q179 438 211 451Q226 454 235 440Q241 427 237 409Q230 385 211 373Q181 355 137 354Q130 353 125 356Q118 357 122 370Q123 382 140 395Z"></path>
<path id="z28088d3" d="M138 739Q126 743 129 761Q151 839 185 855Q192 861 203 858Q210 857 211 830Q215 773 311 489Q317 473 316 466Q315 456 305 463Q295 472 284 489Q229 595 180 688Q167 713 138 739Z"></path>
<path id="z28088d4" d="M411 206Q404 191 367 176Q357 170 345 175Q338 179 343 193Q346 208 351 221Q387 294 356 634Q349 677 336 728Q318 786 357 834Q367 849 379 835Q392 819 392 797C395 772 395 772 397 759Q400 731 400 691Q412 271 416 242C418 230 418 216 411 206Z"></path>
<path id="z28088d5" d="M737 778Q765 815 787 851Q797 870 808 869Q826 868 842 833Q861 793 857 743Q847 577 845 267Q844 233 861 209Q871 194 861 184Q840 162 783 137Q762 127 746 137Q614 192 411 206C399 206 404 242 416 242Q438 243 476 234Q516 227 555 221C576 217 576 217 586 215Q745 179 771 201Q817 253 783 735Q782 736 782 740Q778 756 766 754C753 754 729 768 737 778Z"></path>
<path id="z28088d6" d="M563 364Q518 371 468 376Q437 380 459 396Q498 417 544 405Q550 404 559 402C589 397 589 397 604 394Q737 364 743 360Q750 353 747 346Q740 336 715 330Q690 324 664 334Q639 343 612 351C579 360 579 360 563 364Z"></path>
<path id="z28088d7" d="M555 221Q554 225 558 233Q571 258 570 275Q567 318 563 364C560 389 560 389 559 402Q552 451 544 508C541 521 580 513 582 500Q592 445 604 394C609 365 609 365 612 351Q619 300 639 262Q643 253 628 238Q604 222 586 215C576 211 555 210 555 221Z"></path>
<path id="z28088d8" d="M500 514Q490 508 465 504Q455 503 452 506Q448 510 454 523Q475 566 488 639Q491 661 503 675Q516 691 521 680Q524 670 524 652C521 633 521 633 520 624Q510 561 507 539C505 531 508 518 500 514Z"></path>
<path id="z28088d9" d="M544 508Q523 509 500 514C492 516 498 539 507 539Q514 539 525 537Q574 527 614 521Q642 517 648 527Q651 530 635 599C633 613 673 621 678 607Q697 555 715 540Q737 519 717 505Q701 495 678 477Q662 467 645 476Q617 492 582 500C557 505 557 505 544 508Z"></path>
<path id="z28088d10" d="M524 652Q530 652 537 651Q583 641 685 634Q695 633 696 626Q696 620 678 607C665 599 649 596 635 599Q631 599 629 600Q568 615 520 624C511 626 515 652 524 652Z"></path>
<path id="z28088d11" d="M392 797Q404 798 417 798Q520 782 737 778C750 778 775 763 766 754Q759 745 742 733Q724 721 690 727Q527 752 397 759C384 759 379 797 392 797Z"></path>
<defs>
	<clipPath id="z28088c1"><use xlink:href="#z28088d1"></use></clipPath>
	<clipPath id="z28088c2"><use xlink:href="#z28088d2"></use></clipPath>
	<clipPath id="z28088c3"><use xlink:href="#z28088d3"></use></clipPath>
	<clipPath id="z28088c4"><use xlink:href="#z28088d4"></use></clipPath>
	<clipPath id="z28088c5"><use xlink:href="#z28088d5"></use></clipPath>
	<clipPath id="z28088c6"><use xlink:href="#z28088d6"></use></clipPath>
	<clipPath id="z28088c7"><use xlink:href="#z28088d7"></use></clipPath>
	<clipPath id="z28088c8"><use xlink:href="#z28088d8"></use></clipPath>
	<clipPath id="z28088c9"><use xlink:href="#z28088d9"></use></clipPath>
	<clipPath id="z28088c10"><use xlink:href="#z28088d10"></use></clipPath>
	<clipPath id="z28088c11"><use xlink:href="#z28088d11"></use></clipPath>
</defs>
<path pathLength="3333" clip-path="url(#z28088c1)" d="M195 137L267 194L289 241"></path>
<path pathLength="3333" clip-path="url(#z28088c2)" d="M126 361L229 441"></path>
<path pathLength="3333" clip-path="url(#z28088c3)" d="M199 851L178 754L308 465"></path>
<path pathLength="3333" clip-path="url(#z28088c4)" d="M351 183L384 222L390 287L367 837"></path>
<path pathLength="3333" clip-path="url(#z28088c5)" d="M418 211L448 222L759 164L823 209L820 734L788 852"></path>
<path pathLength="3333" clip-path="url(#z28088c6)" d="M460 385L742 351"></path>
<path pathLength="3333" clip-path="url(#z28088c7)" d="M563 224L604 265L560 504"></path>
<path pathLength="3333" clip-path="url(#z28088c8)" d="M458 511L482 531L511 679"></path>
<path pathLength="3333" clip-path="url(#z28088c9)" d="M509 519L663 501L687 528L653 602"></path>
<path pathLength="3333" clip-path="url(#z28088c10)" d="M528 627L690 622"></path>
<path pathLength="3333" clip-path="url(#z28088c11)" d="M402 792L758 753"></path>
</svg>