<!--
AnimCJK 2016-2018 Copyright Francois Mizessyn - https://github.com/parsimonhi/animCJK
Derived from:
    MakeMeAHanzi project - https://github.com/skishore/makemeahanzi
    Arphic PL KaitiM GB font
    Arphic PL UKai font
You can redistribute and/or modify this file under the terms of the Arphic Public License
as published by Arphic Technology Co., Ltd.
You should have received a copy of this license along with this file.
If not, see http://ftp.gnu.org/non-gnu/chinese-fonts-truetype/LICENSE.
-->
<svg id="z28129" class="acjk" version="1.1" viewBox="0 0 1024 1024" xmlns="http://www.w3.org/2000/svg" xmlns:xlink="http://www.w3.org/1999/xlink">
<style>
<![CDATA[
@keyframes zk {
	to {
		stroke-dashoffset:0;
	}
}
svg.acjk path[clip-path] {
	--t:0.8s;
	animation:zk var(--t) linear forwards calc(var(--d) * 1.25 * var(--t));
	stroke-dasharray:3337;
	stroke-dashoffset:3339;
	stroke-width:128;
	stroke-linecap:round;
	fill:none;
	stroke:#000;
}
svg.acjk path[id] {fill:#ccc;}
]]>
</style>
<path id="z28129d1" d="M249 212Q270 234 291 261Q304 277 322 277Q334 277 341 263Q347 247 340 214Q336 195 308 181Q238 151 224 157Q218 161 219 175Q222 188 249 212Z"/>
<path id="z28129d2" d="M163 414Q206 468 237 481Q253 485 263 471Q270 458 267 440Q261 415 242 400Q203 373 173 372Q160 368 150 371Q143 372 145 386Q146 399 163 414Z"/>
<path id="z28129d3" d="M142 742Q129 745 131 763Q143 839 180 861Q187 868 198 866Q205 865 207 838Q216 786 313 545Q320 529 319 522Q318 512 309 519Q294 528 182 702Q169 721 142 742Z"/>
<path id="z28129d4" d="M408 273Q444 330 465 340Q478 344 488 335Q495 325 495 310Q491 276 424 242Q411 235 402 237Q396 238 397 248Q397 258 408 273Z"/>
<path id="z28129d5" d="M730 195Q705 226 653 275Q646 282 651 289Q658 292 666 288Q756 242 799 225Q817 222 814 211Q810 195 794 174Q778 155 756 149Q741 148 740 167Q741 180 730 195Z"/>
<path id="z28129d6" d="M545 108Q579 157 555 290Q533 393 418 496Q405 506 418 508Q473 502 535 435Q563 405 595 337Q595 334 597 333Q615 288 619 237Q622 167 635 134Q642 115 626 107Q572 79 550 88Q537 94 545 108Z"/>
<path id="z28129d7" d="M640 363Q688 390 746 430Q764 443 777 444Q784 443 788 434Q795 421 777 387Q756 347 635 338Q626 335 627 346Q628 356 640 363Z"/>
<path id="z28129d8" d="M377 584Q423 659 448 665Q461 668 471 650Q474 637 467 616Q460 597 436 585Q402 563 385 558Q376 555 373 566Q372 575 377 584Z"/>
<path id="z28129d9" d="M725 514Q692 544 631 586Q624 592 626 601Q633 605 643 602Q746 568 795 557Q814 557 814 545Q813 526 798 502Q783 477 761 469Q745 465 741 485Q740 500 725 514Z"/>
<path id="z28129d10" d="M583 642Q592 611 595 579Q599 533 609 517Q616 504 606 495Q593 482 564 479Q542 472 524 480Q512 486 521 500Q549 528 536 601Q524 745 352 839Q328 851 302 865Q286 878 307 876Q430 867 512 783Q545 749 575 669C580 651 580 651 583 642Z"/>
<path id="z28129d11" d="M575 669Q657 775 747 873Q771 898 812 901Q887 908 965 895Q984 894 987 888Q990 881 974 875Q925 856 869 835Q805 811 758 780Q700 743 642 694Q602 657 583 642C576 636 569 661 575 669Z"/>
<defs>
	<clipPath id="z28129c1"><use xlink:href="#z28129d1"></use></clipPath>
	<clipPath id="z28129c2"><use xlink:href="#z28129d2"></use></clipPath>
	<clipPath id="z28129c3"><use xlink:href="#z28129d3"></use></clipPath>
	<clipPath id="z28129c4"><use xlink:href="#z28129d4"></use></clipPath>
	<clipPath id="z28129c5"><use xlink:href="#z28129d5"></use></clipPath>
	<clipPath id="z28129c6"><use xlink:href="#z28129d6"></use></clipPath>
	<clipPath id="z28129c7"><use xlink:href="#z28129d7"></use></clipPath>
	<clipPath id="z28129c8"><use xlink:href="#z28129d8"></use></clipPath>
	<clipPath id="z28129c9"><use xlink:href="#z28129d9"></use></clipPath>
	<clipPath id="z28129c10"><use xlink:href="#z28129d10"></use></clipPath>
	<clipPath id="z28129c11"><use xlink:href="#z28129d11"></use></clipPath>
</defs>
<path style="--d:1;" pathLength="3333" clip-path="url(#z28129c1)" d="M226 165L301 217L328 271"/>
<path style="--d:2;" pathLength="3333" clip-path="url(#z28129c2)" d="M151 376L258 471"/>
<path style="--d:3;" pathLength="3333" clip-path="url(#z28129c3)" d="M195 858L178 765L314 524"/>
<path style="--d:4;" pathLength="3333" clip-path="url(#z28129c4)" d="M404 241L485 331"/>
<path style="--d:5;" pathLength="3333" clip-path="url(#z28129c5)" d="M751 154L773 203L658 282"/>
<path style="--d:6;" pathLength="3333" clip-path="url(#z28129c6)" d="M548 97L598 133L572 326L500 441L420 500"/>
<path style="--d:7;" pathLength="3333" clip-path="url(#z28129c7)" d="M634 345L734 387L785 433"/>
<path style="--d:8;" pathLength="3333" clip-path="url(#z28129c8)" d="M379 563L463 658"/>
<path style="--d:9;" pathLength="3333" clip-path="url(#z28129c9)" d="M753 474L765 536L635 594"/>
<path style="--d:10;" pathLength="3333" clip-path="url(#z28129c10)" d="M522 486L574 518L520 727L430 817L305 873"/>
<path style="--d:11;" pathLength="3333" clip-path="url(#z28129c11)" d="M583 651L782 846L982 884"/>
</svg>