<!--
AnimCJK 2016-2017 Copyright Francois Mizessyn, http://gooo.free.fr/animCJK/
Derived from:
    MakeMeAHanzi project - https://github.com/skishore/makemeahanzi
    Arphic PL KaitiM GB - https://apps.ubuntu.com/cat/applications/precise/fonts-arphic-gkai00mp/
    Arphic PL UKai - https://apps.ubuntu.com/cat/applications/fonts-arphic-ukai/
You can redistribute and/or modify this file under the terms of the Arphic Public License
as published by Arphic Technology Co., Ltd.
You should have received a copy of this license (the directory "APL") along with this file;
if not, see http://ftp.gnu.org/non-gnu/chinese-fonts-truetype/LICENSE.
-->
<svg id="z28147" class="acjk" version="1.1" viewBox="0 0 1024 1024" xmlns="http://www.w3.org/2000/svg" xmlns:xlink="http://www.w3.org/1999/xlink">
<style>
<![CDATA[
	@keyframes z28147k {
		from {
			stroke:#c00;
			stroke-dashoffset:3000;
		}
		75% {
			stroke:#c00;
			stroke-dashoffset:0;
		}
		to {
			stroke:#000;
		}
	}
	#z28147 path[clip-path] {
		animation:z28147k 1s linear both;
		stroke-dasharray:3000;
		stroke-width:128;
		stroke-linecap:round;
		fill:none;
	}
	#z28147 path[clip-path="url(#z28147c1)"] {animation-delay:1s;}
	#z28147 path[clip-path="url(#z28147c2)"] {animation-delay:2s;}
	#z28147 path[clip-path="url(#z28147c3)"] {animation-delay:3s;}
	#z28147 path[clip-path="url(#z28147c4)"] {animation-delay:4s;}
	#z28147 path[clip-path="url(#z28147c5)"] {animation-delay:5s;}
	#z28147 path[clip-path="url(#z28147c6)"] {animation-delay:6s;}
	#z28147 path[clip-path="url(#z28147c7)"] {animation-delay:7s;}
	#z28147 path[clip-path="url(#z28147c8)"] {animation-delay:8s;}
	#z28147 path[clip-path="url(#z28147c9)"] {animation-delay:9s;}
	#z28147 path[clip-path="url(#z28147c10)"] {animation-delay:10s;}
	#z28147 path[clip-path="url(#z28147c11)"] {animation-delay:11s;}
	#z28147 path {fill:#ccc;}
]]>
</style>
<g transform="scale(1,-1) translate(0,-900)">
	<path id="z28147d1" d="M226 763Q248 741 273 716Q288 700 306 701Q319 702 324 717Q330 733 320 768Q314 787 284 800Q209 827 196 819Q190 815 192 800Q196 787 226 763Z"/>
	<path id="z28147d2" d="M135 585Q171 531 204 509Q219 505 231 517Q238 530 238 548Q234 575 217 590Q193 611 143 628Q134 631 126 628Q119 628 121 614Q121 601 135 585Z"/>
	<path id="z28147d3" d="M109 226Q96 222 99 204Q117 126 153 109Q160 102 171 105Q178 106 179 133Q183 187 278 451Q285 467 283 474Q282 484 273 477Q264 473 149 272Q137 250 109 226Z"/>
	<path id="z28147d4" d="M572 824Q608 782 639 769Q654 766 663 781Q669 794 666 811Q659 835 640 847Q612 865 569 866Q562 867 557 864Q551 863 554 850Q555 838 572 824Z"/>
	<path id="z28147d5" d="M398 719Q380 718 394 703Q406 691 422 687Q440 683 454 687Q595 729 834 730Q852 731 855 738Q859 748 845 760Q794 796 751 780Q607 752 398 719Z"/>
	<path id="z28147d6" d="M474 629Q464 633 442 635Q432 638 428 633Q424 627 432 613Q454 573 472 506Q476 487 489 474Q505 455 510 469Q511 476 512 488L508 518Q495 582 493 603L474 629Z"/>
	<path id="z28147d7" d="M714 540Q744 597 768 606Q784 622 772 640Q757 653 710 678Q692 687 624 662Q554 643 474 629L493 603Q503 604 518 608Q590 621 658 636Q676 640 683 633Q690 624 666 553L714 540Z"/>
	<path id="z28147d8" d="M512 488Q519 487 532 489Q590 502 717 516Q727 517 728 525Q728 531 714 540L666 553Q660 553 656 551Q574 529 508 518L512 488Z"/>
	<path id="z28147d9" d="M625 308Q724 378 763 387Q784 393 777 410Q774 426 709 464Q690 474 667 467Q604 442 510 414Q486 407 426 407Q402 408 411 387Q418 374 438 364Q469 346 503 368Q525 377 642 420Q654 426 665 420Q677 414 673 402Q643 365 610 320L625 308Z"/>
	<path id="z28147d10" d="M603 228Q633 110 600 28Q587 4 554 10Q520 17 488 26Q476 29 481 18Q487 9 506 -3Q549 -37 564 -65Q574 -83 590 -80Q603 -79 630 -52Q705 23 658 233L647 270Q640 294 625 308L610 320Q598 327 583 332Q561 339 552 332Q539 325 553 312Q581 293 594 262L603 228Z"/>
	<path id="z28147d11" d="M658 233Q748 240 869 240Q935 237 943 248Q949 260 932 274Q880 313 842 305Q766 289 647 270L594 262Q458 246 301 226Q279 225 295 207Q308 194 327 188Q348 182 364 187Q481 218 603 228L658 233Z"/>
	<defs>
		<clipPath id="z28147c1"><use xlink:href="#z28147d1"/></clipPath>
		<clipPath id="z28147c2"><use xlink:href="#z28147d2"/></clipPath>
		<clipPath id="z28147c3"><use xlink:href="#z28147d3"/></clipPath>
		<clipPath id="z28147c4"><use xlink:href="#z28147d4"/></clipPath>
		<clipPath id="z28147c5"><use xlink:href="#z28147d5"/></clipPath>
		<clipPath id="z28147c6"><use xlink:href="#z28147d6"/></clipPath>
		<clipPath id="z28147c7"><use xlink:href="#z28147d7"/></clipPath>
		<clipPath id="z28147c8"><use xlink:href="#z28147d8"/></clipPath>
		<clipPath id="z28147c9"><use xlink:href="#z28147d9"/></clipPath>
		<clipPath id="z28147c10"><use xlink:href="#z28147d10"/></clipPath>
		<clipPath id="z28147c11"><use xlink:href="#z28147d11"/></clipPath>
	</defs>
	<path pathLength="2999" clip-path="url(#z28147c1)" d="M199 812L318 712"/>
	<path pathLength="2999" clip-path="url(#z28147c2)" d="M127 621L221 515"/>
	<path pathLength="2999" clip-path="url(#z28147c3)" d="M165 109L147 210L278 472"/>
	<path pathLength="2999" clip-path="url(#z28147c4)" d="M559 855L624 818L651 775"/>
	<path pathLength="2999" clip-path="url(#z28147c5)" d="M400 709L769 757L851 747"/>
	<path pathLength="2999" clip-path="url(#z28147c6)" d="M435 627L469 593L501 470"/>
	<path pathLength="2999" clip-path="url(#z28147c7)" d="M485 626L696 655L729 618L687 548"/>
	<path pathLength="2999" clip-path="url(#z28147c8)" d="M516 513L721 528"/>
	<path pathLength="2999" clip-path="url(#z28147c9)" d="M416 396L485 384L676 445L725 399L618 316"/>
	<path pathLength="2999" clip-path="url(#z28147c10)" d="M551 323L621 263L641 49L585 -34L489 19"/>
	<path pathLength="2999" clip-path="url(#z28147c11)" d="M296 218L352 209L850 273L938 255"/>
</g>
</svg>