<!--
AnimCJK 2016-2018 Copyright Francois Mizessyn - https://github.com/parsimonhi/animCJK
Derived from:
    MakeMeAHanzi project - https://github.com/skishore/makemeahanzi
    Arphic PL KaitiM GB - https://apps.ubuntu.com/cat/applications/precise/fonts-arphic-gkai00mp/
    Arphic PL UKai - https://apps.ubuntu.com/cat/applications/fonts-arphic-ukai/
You can redistribute and/or modify this file under the terms of the Arphic Public License
as published by Arphic Technology Co., Ltd.
You should have received a copy of this license (the directory "APL") along with this file;
if not, see http://ftp.gnu.org/non-gnu/chinese-fonts-truetype/LICENSE.
-->
<svg id="z28174" class="acjk" version="1.1" viewBox="0 0 1024 1024" xmlns="http://www.w3.org/2000/svg" xmlns:xlink="http://www.w3.org/1999/xlink">
<style>
<![CDATA[
@keyframes z28174k {
	from {
		stroke:#ccc;
		stroke-dashoffset:3334;
	}
	1% {
		stroke:#c00;
		stroke-dashoffset:3334;
	}
	75% {
		stroke:#c00;
		stroke-dashoffset:0;
	}
	to {
		stroke:#000;
	}
}
#z28174 path[clip-path] {
	animation:z28174k 1s linear both;
	stroke-dasharray:3334;
	stroke-width:128;
	stroke-linecap:round;
	fill:none;
}
#z28174 path[clip-path="url(#z28174c1)"] {animation-delay:1s;}
#z28174 path[clip-path="url(#z28174c2)"] {animation-delay:2s;}
#z28174 path[clip-path="url(#z28174c3)"] {animation-delay:3s;}
#z28174 path[clip-path="url(#z28174c4)"] {animation-delay:4s;}
#z28174 path[clip-path="url(#z28174c5)"] {animation-delay:5s;}
#z28174 path[clip-path="url(#z28174c6)"] {animation-delay:6s;}
#z28174 path[clip-path="url(#z28174c7)"] {animation-delay:7s;}
#z28174 path[clip-path="url(#z28174c8)"] {animation-delay:8s;}
#z28174 path[clip-path="url(#z28174c9)"] {animation-delay:9s;}
#z28174 path[clip-path="url(#z28174c10)"] {animation-delay:10s;}
#z28174 path[clip-path="url(#z28174c11)"] {animation-delay:11s;}
#z28174 path {fill:#ccc;}
]]>
</style>
<path id="z28174d1" d="M222 198Q253 223 287 254Q303 267 319 267Q331 266 336 252Q342 236 331 203Q324 181 289 165Q207 137 192 145Q186 149 188 163Q192 176 222 198 Z"/>
<path id="z28174d2" d="M128 390Q168 438 209 459Q225 462 235 447Q241 434 238 416Q226 373 141 348Q123 344 113 347Q106 348 109 362Q110 375 128 390 Z"/>
<path id="z28174d3" d="M121 738Q108 742 111 760Q133 841 165 855Q172 862 183 859Q190 858 191 831Q195 777 290 517Q297 501 295 494Q294 484 285 491Q273 497 161 693Q149 715 121 738 Z"/>
<path id="z28174d4" d="M566 190Q514 200 454 204Q418 210 443 226Q476 250 551 236Q557 235 566 234C599 228 599 228 615 225Q744 197 746 195Q755 188 751 180Q744 168 716 160Q688 154 621 176C584 185 584 185 566 190 Z"/>
<path id="z28174d5" d="M621 176Q625 131 638 102Q641 92 623 78Q592 60 570 56Q555 52 548 60Q541 67 548 80Q563 102 563 116Q564 150 566 190C566 219 566 219 566 234Q566 279 566 329C566 342 602 336 604 323Q610 272 615 225C619 192 619 192 621 176 Z"/>
<path id="z28174d6" d="M566 329Q514 336 450 348Q402 357 355 362Q324 365 343 382Q374 407 408 398Q552 350 725 335Q755 331 767 333Q780 340 780 346Q758 391 735 436Q735 437 737 439Q744 443 761 434Q819 398 867 389Q906 379 905 370Q904 360 835 305Q811 284 739 300Q709 303 604 323C579 327 579 327 566 329 Z"/>
<path id="z28174d7" d="M437 455Q491 513 516 512Q528 512 532 496Q532 484 522 467Q503 440 439 432Q430 431 430 441Q430 448 437 455 Z"/>
<path id="z28174d8" d="M416 564Q437 582 460 603Q472 613 485 611Q494 611 497 600Q501 587 492 563Q482 536 410 525Q397 524 392 525Q388 529 389 539Q393 548 416 564 Z"/>
<path id="z28174d9" d="M612 674Q687 665 874 665Q895 664 899 656Q905 644 888 630Q831 587 779 604Q716 616 621 633C585 638 585 638 567 641Q453 657 320 674Q299 675 315 693Q345 721 395 710Q471 689 559 680C594 676 594 676 612 674 Z"/>
<path id="z28174d10" d="M559 680Q526 782 423 851Q389 870 339 895Q326 899 322 902Q318 908 333 911Q411 917 523 838Q541 823 555 806Q588 763 612 674C618 647 618 647 621 633Q633 560 638 503Q641 472 654 434Q660 424 651 415Q633 399 599 383Q578 373 561 379Q542 386 557 403Q584 433 583 463Q583 569 568 639Q567 640 567 641C562 667 562 667 559 680 Z"/>
<path id="z28174d11" d="M644 784Q708 836 786 911Q804 932 820 935Q830 936 837 925Q849 910 833 865Q821 826 740 788Q692 770 643 751Q633 745 632 759Q632 774 644 784 Z"/>
<defs>
	<clipPath id="z28174c1"><use xlink:href="#z28174d1"/></clipPath>
	<clipPath id="z28174c2"><use xlink:href="#z28174d2"/></clipPath>
	<clipPath id="z28174c3"><use xlink:href="#z28174d3"/></clipPath>
	<clipPath id="z28174c4"><use xlink:href="#z28174d4"/></clipPath>
	<clipPath id="z28174c5"><use xlink:href="#z28174d5"/></clipPath>
	<clipPath id="z28174c6"><use xlink:href="#z28174d6"/></clipPath>
	<clipPath id="z28174c7"><use xlink:href="#z28174d7"/></clipPath>
	<clipPath id="z28174c8"><use xlink:href="#z28174d8"/></clipPath>
	<clipPath id="z28174c9"><use xlink:href="#z28174d9"/></clipPath>
	<clipPath id="z28174c10"><use xlink:href="#z28174d10"/></clipPath>
	<clipPath id="z28174c11"><use xlink:href="#z28174d11"/></clipPath>
</defs>
<path pathLength="3333" clip-path="url(#z28174c1)" d="M193 156L281 200L330 256"/>
<path pathLength="3333" clip-path="url(#z28174c2)" d="M114 351L231 447"/>
<path pathLength="3333" clip-path="url(#z28174c3)" d="M177 855L159 755L287 496"/>
<path pathLength="3333" clip-path="url(#z28174c4)" d="M444 215L748 180"/>
<path pathLength="3333" clip-path="url(#z28174c5)" d="M551 62L600 110L577 326"/>
<path pathLength="3333" clip-path="url(#z28174c6)" d="M343 370L396 378L775 313L826 344L850 378L743 432"/>
<path pathLength="3333" clip-path="url(#z28174c7)" d="M434 439L525 502"/>
<path pathLength="3333" clip-path="url(#z28174c8)" d="M397 531L484 606"/>
<path pathLength="3333" clip-path="url(#z28174c9)" d="M316 683L800 632L895 645"/>
<path pathLength="3333" clip-path="url(#z28174c10)" d="M558 391L618 435L560 745L458 853L330 903"/>
<path pathLength="3333" clip-path="url(#z28174c11)" d="M637 756L792 866L817 930"/>
</svg>