<!--
AnimCJK 2016-2019 Copyright Francois Mizessyn - https://github.com/parsimonhi/animCJK
Derived from:
    MakeMeAHanzi project - https://github.com/skishore/makemeahanzi
    Arphic PL KaitiM GB font
    Arphic PL UKai font
You can redistribute and/or modify this file under the terms of the Arphic Public License
as published by Arphic Technology Co., Ltd.
You should have received a copy of this license along with this file.
If not, see http://ftp.gnu.org/non-gnu/chinese-fonts-truetype/LICENSE.
-->
<svg id="z28228" class="acjk" version="1.1" viewBox="0 0 1024 1024" xmlns="http://www.w3.org/2000/svg" xmlns:xlink="http://www.w3.org/1999/xlink">
<style>
<![CDATA[
@keyframes zk {
	to {
		stroke-dashoffset:0;
	}
}
svg.acjk path[clip-path] {
	--t:0.8s;
	animation:zk var(--t) linear forwards var(--d);
	stroke-dasharray:3337;
	stroke-dashoffset:3339;
	stroke-width:128;
	stroke-linecap:round;
	fill:none;
	stroke:#000;
}
svg.acjk path[id] {fill:#ccc;}
]]>
</style>
<path id="z28228d1" d="M232 175Q259 199 287 228Q302 243 319 242Q331 242 337 227Q341 211 333 179Q324 148 228 122Q212 118 204 121Q198 125 200 139Q204 152 232 175Z"/>
<path id="z28228d2" d="M141 341Q195 398 233 412Q249 413 259 399Q265 386 261 368Q248 323 153 299Q135 295 125 299Q118 300 122 314Q123 327 141 341Z"/>
<path id="z28228d3" d="M123 714Q111 718 115 736Q133 811 168 826Q175 833 185 830Q192 829 193 803Q197 749 283 496Q289 480 287 474Q286 464 277 471Q268 477 161 670Q151 692 123 714Z"/>
<path id="z28228d4" d="M788 280Q818 199 847 184Q863 165 849 146Q833 133 779 106Q760 97 738 106Q629 149 463 166C449 168 477 199 491 199Q506 199 525 193Q556 186 590 182C616 177 616 177 629 174Q672 165 715 158Q740 154 749 163Q756 170 755 187Q748 236 736 275C730 292 782 296 788 280Z"/>
<path id="z28228d5" d="M590 182Q596 204 590 308C590 320 623 314 625 302Q631 271 637 250Q650 199 643 189Q636 180 629 174C620 165 587 169 590 182Z"/>
<path id="z28228d6" d="M469 358Q487 364 502 361Q598 337 803 317Q815 316 816 306Q816 297 788 280C773 271 753 272 736 275Q735 275 734 275Q677 288 625 302C602 306 602 306 590 308Q527 318 472 327C462 329 459 356 469 358Z"/>
<path id="z28228d7" d="M463 166Q427 141 406 147Q394 154 401 169Q419 196 420 255Q399 490 372 581Q368 588 366 598Q336 685 247 833Q241 840 240 846Q237 856 248 854Q287 847 369 707Q379 686 390 665Q447 530 469 358C471 337 471 337 472 327Q472 323 473 320Q477 248 491 199C496 186 475 175 463 166Z"/>
<path id="z28228d8" d="M550 441Q549 440 548 439Q539 432 526 427Q517 423 506 426Q499 430 504 442Q505 451 509 458Q533 512 510 709Q489 799 507 830Q510 839 518 847Q528 860 538 848Q551 832 551 812Q551 809 552 807C554 783 554 783 555 771Q556 761 556 751Q557 717 558 688C559 673 559 673 559 666Q560 618 563 584C564 568 564 568 564 560Q567 494 569 487Q570 477 570 471C570 459 560 448 550 441Z"/>
<path id="z28228d9" d="M698 795Q726 832 748 867Q758 886 768 885Q784 884 801 850Q819 813 815 766Q808 676 803 511Q802 480 818 458Q827 445 818 435Q799 416 748 393Q730 383 715 393Q657 420 550 441C538 443 558 471 570 471Q597 472 711 444Q727 441 735 447Q762 474 744 763Q738 779 726 775C715 773 691 786 698 795Z"/>
<path id="z28228d10" d="M563 584Q567 585 576 584Q648 571 700 563Q722 559 713 547Q703 534 679 530Q639 527 564 560C557 563 555 584 563 584Z"/>
<path id="z28228d11" d="M558 688Q565 689 577 689Q650 677 703 671Q725 667 717 655Q707 642 683 637Q650 633 559 666C552 669 551 687 558 688Z"/>
<path id="z28228d12" d="M552 807Q582 797 698 795C709 795 734 783 726 775Q719 766 702 755Q686 746 655 752Q600 764 555 771C543 773 540 809 552 807Z"/>
<defs>
	<clipPath id="z28228c1"><use xlink:href="#z28228d1"/></clipPath>
	<clipPath id="z28228c2"><use xlink:href="#z28228d2"/></clipPath>
	<clipPath id="z28228c3"><use xlink:href="#z28228d3"/></clipPath>
	<clipPath id="z28228c4"><use xlink:href="#z28228d4"/></clipPath>
	<clipPath id="z28228c5"><use xlink:href="#z28228d5"/></clipPath>
	<clipPath id="z28228c6"><use xlink:href="#z28228d6"/></clipPath>
	<clipPath id="z28228c7"><use xlink:href="#z28228d7"/></clipPath>
	<clipPath id="z28228c8"><use xlink:href="#z28228d8"/></clipPath>
	<clipPath id="z28228c9"><use xlink:href="#z28228d9"/></clipPath>
	<clipPath id="z28228c10"><use xlink:href="#z28228d10"/></clipPath>
	<clipPath id="z28228c11"><use xlink:href="#z28228d11"/></clipPath>
	<clipPath id="z28228c12"><use xlink:href="#z28228d12"/></clipPath>
</defs>
<path style="--d:1s;" pathLength="3333" clip-path="url(#z28228c1)" d="M207 130L287 179L324 237"/>
<path style="--d:2s;" pathLength="3333" clip-path="url(#z28228c2)" d="M126 306L257 395"/>
<path style="--d:3s;" pathLength="3333" clip-path="url(#z28228c3)" d="M182 824L161 728L281 477"/>
<path style="--d:4s;" pathLength="3333" clip-path="url(#z28228c4)" d="M472 168L508 179L764 134L805 175L749 276"/>
<path style="--d:5s;" pathLength="3333" clip-path="url(#z28228c5)" d="M596 186L619 218L605 304"/>
<path style="--d:6s;" pathLength="3333" clip-path="url(#z28228c6)" d="M477 352L736 299L808 307"/>
<path style="--d:7s;" pathLength="3333" clip-path="url(#z28228c7)" d="M407 152L454 209L414 513L359 676L248 848"/>
<path style="--d:8s;" pathLength="3333" clip-path="url(#z28228c8)" d="M511 432L544 491L531 849"/>
<path style="--d:9s;" pathLength="3333" clip-path="url(#z28228c9)" d="M557 443L728 415L782 454L779 776L744 825L749 867"/>
<path style="--d:10s;" pathLength="3333" clip-path="url(#z28228c10)" d="M568 577L710 549"/>
<path style="--d:11s;" pathLength="3333" clip-path="url(#z28228c11)" d="M567 681L711 659"/>
<path style="--d:12s;" pathLength="3333" clip-path="url(#z28228c12)" d="M557 799L716 771"/>
</svg>