<!--
AnimCJK 2016-2018 Copyright Francois Mizessyn, http://gooo.free.fr/animCJK/
Derived from:
    MakeMeAHanzi project - https://github.com/skishore/makemeahanzi
    Arphic PL KaitiM GB - https://apps.ubuntu.com/cat/applications/precise/fonts-arphic-gkai00mp/
    Arphic PL UKai - https://apps.ubuntu.com/cat/applications/fonts-arphic-ukai/
You can redistribute and/or modify this file under the terms of the Arphic Public License
as published by Arphic Technology Co., Ltd.
You should have received a copy of this license (the directory "APL") along with this file;
if not, see http://ftp.gnu.org/non-gnu/chinese-fonts-truetype/LICENSE.
-->
<svg id="z28238" class="acjk" version="1.1" viewBox="0 0 1024 1024" xmlns="http://www.w3.org/2000/svg" xmlns:xlink="http://www.w3.org/1999/xlink">
<style>
<![CDATA[
@keyframes z28238k {
	from {
		stroke:#ccc;
		stroke-dashoffset:3334;
	}
	1% {
		stroke:#c00;
		stroke-dashoffset:3334;
	}
	75% {
		stroke:#c00;
		stroke-dashoffset:0;
	}
	to {
		stroke:#000;
	}
}
#z28238 path[clip-path] {
	animation:z28238k 1s linear both;
	stroke-dasharray:3334;
	stroke-width:128;
	stroke-linecap:round;
	fill:none;
}
#z28238 path[clip-path="url(#z28238c1)"] {animation-delay:1s;}
#z28238 path[clip-path="url(#z28238c2)"] {animation-delay:2s;}
#z28238 path[clip-path="url(#z28238c3)"] {animation-delay:3s;}
#z28238 path[clip-path="url(#z28238c4)"] {animation-delay:4s;}
#z28238 path[clip-path="url(#z28238c5)"] {animation-delay:5s;}
#z28238 path[clip-path="url(#z28238c6)"] {animation-delay:6s;}
#z28238 path[clip-path="url(#z28238c7)"] {animation-delay:7s;}
#z28238 path[clip-path="url(#z28238c8)"] {animation-delay:8s;}
#z28238 path[clip-path="url(#z28238c9)"] {animation-delay:9s;}
#z28238 path[clip-path="url(#z28238c10)"] {animation-delay:10s;}
#z28238 path[clip-path="url(#z28238c11)"] {animation-delay:11s;}
#z28238 path[clip-path="url(#z28238c12)"] {animation-delay:12s;}
#z28238 path {fill:#ccc;}
]]>
</style>
<path id="z28238d1" d="M201 208Q219 229 237 254Q250 270 266 271Q278 272 285 259Q292 244 286 212Q283 194 258 179Q195 149 180 153Q174 156 174 170Q177 182 201 208 Z"/>
<path id="z28238d2" d="M92 409Q134 466 169 487Q185 491 195 479Q202 466 201 449Q194 403 108 371Q92 365 82 368Q75 369 77 382Q78 394 92 409 Z"/>
<path id="z28238d3" d="M116 761Q104 765 107 782Q119 851 154 871Q161 878 171 875Q178 874 179 850Q185 810 273 571Q280 555 279 550Q278 540 269 547Q263 550 153 723Q141 742 116 761 Z"/>
<path id="z28238d4" d="M561 259Q780 217 790 209Q800 202 795 192Q788 180 758 172Q728 165 633 196Q489 229 387 239Q350 243 376 262Q412 283 490 272Q497 271 507 269L561 259 Z"/>
<path id="z28238d5" d="M494 423Q500 414 508 404Q574 311 576 310Q592 297 584 286Q577 273 561 259L507 269Q510 296 467 401Q458 417 456 431L494 423 Z"/>
<path id="z28238d6" d="M327 455Q314 448 300 442Q293 439 288 445Q279 449 288 463Q331 548 323 738Q320 802 356 834Q357 835 360 837Q378 844 381 811Q381 810 381 808L381 773Q368 632 371 505Q372 498 369 490L327 455 Z"/>
<path id="z28238d7" d="M735 779Q744 792 749 806Q759 840 773 854Q783 866 792 864Q804 863 816 841Q849 787 873 560Q877 505 895 466Q907 453 903 444Q903 428 864 398Q816 359 784 372Q780 372 776 374Q760 378 703 386Q562 407 494 423L456 431Q437 432 422 438Q355 451 327 455L369 490Q429 469 451 465L496 455Q556 440 613 434L655 428Q713 418 767 415Q786 414 794 425Q807 435 809 463Q813 530 794 652Q782 749 774 761Q773 765 766 768Q763 767 758 767L735 779 Z"/>
<path id="z28238d8" d="M511 762Q510 710 510 664L509 640Q508 597 508 560L508 533Q508 466 506 463Q502 459 496 455L451 465Q460 474 473 766L511 762 Z"/>
<path id="z28238d9" d="M665 738Q683 494 686 484Q695 459 659 431Q656 428 655 428L613 434Q628 468 627 493Q627 520 619 746L665 738 Z"/>
<path id="z28238d10" d="M508 560Q553 556 599 551Q621 547 613 535Q603 522 579 518Q539 512 508 533L508 560 Z"/>
<path id="z28238d11" d="M510 664Q514 665 521 665Q567 661 603 659Q625 655 617 643Q607 630 583 625Q538 619 509 640L510 664 Z"/>
<path id="z28238d12" d="M381 808Q385 808 390 807Q501 788 735 779L758 767Q757 758 730 739Q706 724 665 738L619 746Q562 753 511 762L473 766Q424 769 381 773L381 808 Z"/>
<defs>
	<clipPath id="z28238c1"><use xlink:href="#z28238d1"/></clipPath>
	<clipPath id="z28238c2"><use xlink:href="#z28238d2"/></clipPath>
	<clipPath id="z28238c3"><use xlink:href="#z28238d3"/></clipPath>
	<clipPath id="z28238c4"><use xlink:href="#z28238d4"/></clipPath>
	<clipPath id="z28238c5"><use xlink:href="#z28238d5"/></clipPath>
	<clipPath id="z28238c6"><use xlink:href="#z28238d6"/></clipPath>
	<clipPath id="z28238c7"><use xlink:href="#z28238d7"/></clipPath>
	<clipPath id="z28238c8"><use xlink:href="#z28238d8"/></clipPath>
	<clipPath id="z28238c9"><use xlink:href="#z28238d9"/></clipPath>
	<clipPath id="z28238c10"><use xlink:href="#z28238d10"/></clipPath>
	<clipPath id="z28238c11"><use xlink:href="#z28238d11"/></clipPath>
	<clipPath id="z28238c12"><use xlink:href="#z28238d12"/></clipPath>
</defs>
<path pathLength="3333" clip-path="url(#z28238c1)" d="M183 159L279 262"/>
<path pathLength="3333" clip-path="url(#z28238c2)" d="M83 375L193 476"/>
<path pathLength="3333" clip-path="url(#z28238c3)" d="M166 871L152 777L273 551"/>
<path pathLength="3333" clip-path="url(#z28238c4)" d="M372 248L479 250L790 194"/>
<path pathLength="3333" clip-path="url(#z28238c5)" d="M514 273L542 306L462 423"/>
<path pathLength="3333" clip-path="url(#z28238c6)" d="M290 451L339 504L367 830"/>
<path pathLength="3333" clip-path="url(#z28238c7)" d="M336 456L380 467L787 393L828 412L855 456L815 737L784 812L746 799"/>
<path pathLength="3333" clip-path="url(#z28238c8)" d="M458 472L483 496L487 764"/>
<path pathLength="3333" clip-path="url(#z28238c9)" d="M620 436L657 482L630 742"/>
<path pathLength="3333" clip-path="url(#z28238c10)" d="M513 552L608 539"/>
<path pathLength="3333" clip-path="url(#z28238c11)" d="M514 657L611 649"/>
<path pathLength="3333" clip-path="url(#z28238c12)" d="M386 800L752 759"/>
</svg>