<!--
AnimCJK 2016-2025 Copyright FM-SH - https://github.com/parsimonhi/animCJK
Derived from:
    MakeMeAHanzi project - https://github.com/skishore/makemeahanzi
    Arphic PL KaitiM GB font
    Arphic PL UKai font
You can redistribute and/or modify this file under the terms of the Arphic Public License
as published by Arphic Technology Co., Ltd.
You should have received a copy of this license along with this file.
If not, see http://ftp.gnu.org/non-gnu/chinese-fonts-truetype/LICENSE.
-->
<svg id="z28267" class="acjk" version="1.1" viewBox="0 0 1024 1024" xmlns="http://www.w3.org/2000/svg" xmlns:xlink="http://www.w3.org/1999/xlink">
<style>
<![CDATA[
@keyframes zk {
	to {
		stroke-dashoffset:0;
	}
}
svg.acjk path[clip-path] {
	--t:0.8s;
	animation:zk var(--t) linear forwards var(--d);
	stroke-dasharray:3337;
	stroke-dashoffset:3339;
	stroke-width:128;
	stroke-linecap:round;
	fill:none;
	stroke:#000;
}
svg.acjk path[id] {fill:#ccc;}
]]>
</style>
<path id="z28267d1" d="M200 184C216 198 231 215 249 233C258 242 269 246 280 246C286 245 293 240 297 231C300 221 298 205 293 185C289 172 277 160 257 152C210 133 181 127 172 133C167 135 165 141 168 150C169 158 181 168 200 184Z"/>
<path id="z28267d2" d="M114 372C143 413 165 442 187 453C195 457 204 454 211 447C216 439 220 429 219 419C214 386 183 359 131 337C120 332 112 330 106 332C102 332 100 336 101 345C101 352 106 361 114 372Z"/>
<path id="z28267d3" d="M96 785C89 788 85 794 88 805C98 851 116 881 138 892C159 902 159 888 162 869C165 841 172 806 187 763C235 615 259 539 259 537C258 530 253 528 250 535C164 692 132 764 96 785Z"/>
<path id="z28267d4" d="M430 266C521 226 549 223 564 209C568 204 562 194 554 189C522 166 492 155 466 160C460 160 459 167 460 174C460 199 404 239 300 301C294 304 297 311 301 312C305 312 335 306 386 285C415 272 415 272 430 266Z"/>
<path id="z28267d5" d="M444 442C462 437 482 431 504 426C524 420 536 415 540 412C544 407 545 402 543 398C538 391 527 385 511 383C493 379 472 387 446 397C419 406 419 406 406 411C367 424 324 430 290 436C269 439 265 449 282 456C324 471 357 463 393 455C427 446 427 446 444 442Z"/>
<path id="z28267d6" d="M442 521C442 496 442 469 444 442C445 412 445 412 446 397C451 278 483 299 430 266C416 258 378 271 386 285C410 327 406 368 406 411C405 495 405 495 404 537C402 661 395 730 393 745C382 804 379 841 384 853C388 865 394 887 405 895C409 898 411 897 416 894C429 883 438 863 439 828C439 805 442 712 442 547C442 530 442 530 442 521Z"/>
<path id="z28267d7" d="M393 455C363 537 304 634 222 749C218 754 221 757 228 758C230 758 235 756 241 751C311 687 365 615 404 537C444 471 422 384 393 455Z"/>
<path id="z28267d8" d="M442 547C478 585 501 605 513 606C519 606 526 602 529 593C530 586 527 577 522 567C516 556 505 548 491 542C467 530 452 523 442 521C434 519 437 540 442 547Z"/>
<path id="z28267d9" d="M557 465C590 500 609 520 616 521C621 521 626 517 629 511C631 504 632 492 630 477C628 466 620 455 605 448C569 430 547 424 540 426C537 426 535 430 536 438C536 444 544 452 557 465Z"/>
<path id="z28267d10" d="M814 351C799 372 777 398 748 432C744 436 742 441 747 445C750 447 756 445 761 443C816 409 855 384 882 374C893 369 898 366 896 360C892 349 885 338 874 326C862 314 850 306 836 305C827 304 822 310 822 323C822 331 820 341 814 351Z"/>
<path id="z28267d11" d="M709 543C716 472 725 256 737 219C737 216 740 204 750 185C754 176 753 167 746 160C731 146 710 136 684 129C667 124 655 124 649 129C642 133 642 140 648 149C680 205 689 351 657 584C640 700 575 780 492 837C475 848 476 850 493 853C501 854 517 853 539 843C650 786 693 698 704 592C707 559 707 559 709 543Z"/>
<path id="z28267d12" d="M704 592C744 678 785 750 827 809C838 824 849 835 862 835C930 835 930 835 964 835C976 835 982 834 984 831C985 826 979 819 965 811C891 767 849 744 807 685C769 632 741 587 709 543C699 530 698 577 704 592Z"/>
<defs>
	<clipPath id="z28267c1"><use xlink:href="#z28267d1"/></clipPath>
	<clipPath id="z28267c2"><use xlink:href="#z28267d2"/></clipPath>
	<clipPath id="z28267c3"><use xlink:href="#z28267d3"/></clipPath>
	<clipPath id="z28267c4"><use xlink:href="#z28267d4"/></clipPath>
	<clipPath id="z28267c5"><use xlink:href="#z28267d5"/></clipPath>
	<clipPath id="z28267c6"><use xlink:href="#z28267d6"/></clipPath>
	<clipPath id="z28267c7"><use xlink:href="#z28267d7"/></clipPath>
	<clipPath id="z28267c8"><use xlink:href="#z28267d8"/></clipPath>
	<clipPath id="z28267c9"><use xlink:href="#z28267d9"/></clipPath>
	<clipPath id="z28267c10"><use xlink:href="#z28267d10"/></clipPath>
	<clipPath id="z28267c11"><use xlink:href="#z28267d11"/></clipPath>
	<clipPath id="z28267c12"><use xlink:href="#z28267d12"/></clipPath>
</defs>
<path style="--d:1s;" pathLength="3333" clip-path="url(#z28267c1)" d="M171 140L255 190L277 243"/>
<path style="--d:2s;" pathLength="3333" clip-path="url(#z28267c2)" d="M109 338L208 444"/>
<path style="--d:3s;" pathLength="3333" clip-path="url(#z28267c3)" d="M92 797L150 834L253 539"/>
<path style="--d:4s;" pathLength="3333" clip-path="url(#z28267c4)" d="M467 169L504 215L304 307"/>
<path style="--d:5s;" pathLength="3333" clip-path="url(#z28267c5)" d="M282 447L539 402"/>
<path style="--d:6s;" pathLength="3333" clip-path="url(#z28267c6)" d="M392 278L429 304L409 892"/>
<path style="--d:7s;" pathLength="3333" clip-path="url(#z28267c7)" d="M415 434L367 562L230 751"/>
<path style="--d:8s;" pathLength="3333" clip-path="url(#z28267c8)" d="M443 528L522 597"/>
<path style="--d:9s;" pathLength="3333" clip-path="url(#z28267c9)" d="M543 432L623 512"/>
<path style="--d:10s;" pathLength="3333" clip-path="url(#z28267c10)" d="M833 311L853 360L751 439"/>
<path style="--d:11s;" pathLength="3333" clip-path="url(#z28267c11)" d="M650 136L709 186L675 620L599 773L487 845"/>
<path style="--d:12s;" pathLength="3333" clip-path="url(#z28267c12)" d="M706 548L852 783L977 828"/>
</svg>