<!--
AnimCJK 2016-2017 Copyright Francois Mizessyn, http://gooo.free.fr/animCJK/
Derived from:
    MakeMeAHanzi project - https://github.com/skishore/makemeahanzi
    Arphic PL KaitiM GB - https://apps.ubuntu.com/cat/applications/precise/fonts-arphic-gkai00mp/
    Arphic PL UKai - https://apps.ubuntu.com/cat/applications/fonts-arphic-ukai/
You can redistribute and/or modify this file under the terms of the Arphic Public License
as published by Arphic Technology Co., Ltd.
You should have received a copy of this license (the directory "APL") along with this file;
if not, see http://ftp.gnu.org/non-gnu/chinese-fonts-truetype/LICENSE.
-->
<svg id="z28291" class="acjk" version="1.1" viewBox="0 0 1024 1024" xmlns="http://www.w3.org/2000/svg" xmlns:xlink="http://www.w3.org/1999/xlink">
<style>
<![CDATA[
	@keyframes z28291k {
		from {
			stroke:#c00;
			stroke-dashoffset:3000;
		}
		75% {
			stroke:#c00;
			stroke-dashoffset:0;
		}
		to {
			stroke:#000;
		}
	}
	#z28291 path[clip-path] {
		animation:z28291k 1s linear both;
		stroke-dasharray:3000;
		stroke-width:128;
		stroke-linecap:round;
		fill:none;
	}
	#z28291 path[clip-path="url(#z28291c1)"] {animation-delay:1s;}
	#z28291 path[clip-path="url(#z28291c2)"] {animation-delay:2s;}
	#z28291 path[clip-path="url(#z28291c3)"] {animation-delay:3s;}
	#z28291 path[clip-path="url(#z28291c4)"] {animation-delay:4s;}
	#z28291 path[clip-path="url(#z28291c5)"] {animation-delay:5s;}
	#z28291 path[clip-path="url(#z28291c6)"] {animation-delay:6s;}
	#z28291 path[clip-path="url(#z28291c7)"] {animation-delay:7s;}
	#z28291 path[clip-path="url(#z28291c8)"] {animation-delay:8s;}
	#z28291 path[clip-path="url(#z28291c9)"] {animation-delay:9s;}
	#z28291 path[clip-path="url(#z28291c10)"] {animation-delay:10s;}
	#z28291 path[clip-path="url(#z28291c11)"] {animation-delay:11s;}
	#z28291 path[clip-path="url(#z28291c12)"] {animation-delay:12s;}
	#z28291 path {fill:#ccc;}
]]>
</style>
<g transform="scale(1,-1) translate(0,-900)">
	<path id="z28291d1" d="M245 702Q272 678 299 651Q314 636 331 637Q343 638 349 653Q353 669 344 701Q332 734 240 754Q224 758 216 755Q210 751 212 737Q216 724 245 702Z"/>
	<path id="z28291d2" d="M132 496Q180 445 214 429Q230 428 239 441Q245 454 242 471Q230 511 144 536Q126 540 117 536Q111 535 114 522Q115 510 132 496Z"/>
	<path id="z28291d3" d="M146 129Q133 125 136 105Q157 24 196 4Q203 -3 215 1Q224 2 223 31Q229 97 311 345Q317 363 316 370Q315 380 305 373Q286 360 190 184Q163 145 146 129Z"/>
	<path id="z28291d4" d="M450 692Q440 696 414 699Q404 702 400 697Q396 691 403 677Q425 640 441 577Q445 558 457 546Q473 527 478 541Q479 548 480 556L477 584Q467 644 465 664L450 692Z"/>
	<path id="z28291d5" d="M739 626Q767 677 788 686Q803 701 791 716Q778 728 734 751Q719 758 701 752Q659 736 620 724L568 711Q510 701 450 692L465 664Q477 670 569 687L619 697Q646 704 675 709Q700 716 711 705Q720 693 695 627L739 626Z"/>
	<path id="z28291d6" d="M612 577Q670 587 753 594Q763 595 764 602Q764 609 739 626L695 627Q652 618 614 608L570 599Q521 592 477 584L480 556Q487 555 497 557Q525 564 570 571L612 577Z"/>
	<path id="z28291d7" d="M607 515Q608 546 612 577L614 608Q615 654 619 697L620 724Q620 730 628 777Q637 811 625 823Q622 826 620 827Q589 843 566 847Q551 850 544 842Q537 835 545 822Q564 795 565 776Q566 745 568 711L569 687Q570 645 570 599L570 571Q570 541 569 509L607 515Z"/>
	<path id="z28291d8" d="M569 509Q449 491 311 470Q292 467 307 451Q320 438 338 433Q359 429 374 434Q596 500 901 501Q902 501 904 501Q923 501 928 510Q932 520 917 534Q866 570 829 561Q747 542 607 515L569 509Z"/>
	<path id="z28291d9" d="M488 399Q472 415 444 412Q434 408 438 398Q474 329 445 215Q424 185 451 143Q452 140 457 135Q464 123 472 129Q496 147 498 269Q498 351 500 371L488 399Z"/>
	<path id="z28291d10" d="M675 201Q668 179 681 160Q694 133 702 134Q715 135 729 165Q742 189 742 208Q723 337 750 378Q765 402 714 429Q699 436 681 444Q669 450 574 415Q535 406 488 399L500 371Q512 371 584 388Q650 404 665 395Q672 380 676 341Q680 223 675 201Z"/>
	<path id="z28291d11" d="M565 282Q568 126 515 63Q502 50 482 36Q452 14 385 -14Q373 -17 370 -19Q366 -23 379 -27Q448 -36 536 21Q548 30 557 40Q602 91 612 226Q616 280 626 308Q630 318 623 325Q575 365 544 355Q528 348 541 333Q565 308 565 282Z"/>
	<path id="z28291d12" d="M632 84Q677 38 729 -27Q745 -49 760 -54Q769 -55 777 -45Q790 -32 780 13Q771 56 703 86Q660 107 635 115Q625 122 623 109Q622 96 632 84Z"/>
	<defs>
		<clipPath id="z28291c1"><use xlink:href="#z28291d1"/></clipPath>
		<clipPath id="z28291c2"><use xlink:href="#z28291d2"/></clipPath>
		<clipPath id="z28291c3"><use xlink:href="#z28291d3"/></clipPath>
		<clipPath id="z28291c4"><use xlink:href="#z28291d4"/></clipPath>
		<clipPath id="z28291c5"><use xlink:href="#z28291d5"/></clipPath>
		<clipPath id="z28291c6"><use xlink:href="#z28291d6"/></clipPath>
		<clipPath id="z28291c7"><use xlink:href="#z28291d7"/></clipPath>
		<clipPath id="z28291c8"><use xlink:href="#z28291d8"/></clipPath>
		<clipPath id="z28291c9"><use xlink:href="#z28291d9"/></clipPath>
		<clipPath id="z28291c10"><use xlink:href="#z28291d10"/></clipPath>
		<clipPath id="z28291c11"><use xlink:href="#z28291d11"/></clipPath>
		<clipPath id="z28291c12"><use xlink:href="#z28291d12"/></clipPath>
	</defs>
	<path pathLength="2999" clip-path="url(#z28291c1)" d="M216 745L296 702L336 643"/>
	<path pathLength="2999" clip-path="url(#z28291c2)" d="M118 532L236 444"/>
	<path pathLength="2999" clip-path="url(#z28291c3)" d="M211 3L186 109L310 367"/>
	<path pathLength="2999" clip-path="url(#z28291c4)" d="M407 689L439 661L469 542"/>
	<path pathLength="2999" clip-path="url(#z28291c5)" d="M459 691L717 731L754 695L706 630"/>
	<path pathLength="2999" clip-path="url(#z28291c6)" d="M484 563L756 604"/>
	<path pathLength="2999" clip-path="url(#z28291c7)" d="M549 836L597 796L578 515"/>
	<path pathLength="2999" clip-path="url(#z28291c8)" d="M305 463L356 454L833 531L924 523"/>
	<path pathLength="2999" clip-path="url(#z28291c9)" d="M446 405L477 348L466 133"/>
	<path pathLength="2999" clip-path="url(#z28291c10)" d="M497 394L670 421L707 393L692 142"/>
	<path pathLength="2999" clip-path="url(#z28291c11)" d="M541 343L594 307L560 93L490 17L377 -21"/>
	<path pathLength="2999" clip-path="url(#z28291c12)" d="M630 112L735 22L764 -49"/>
</g>
</svg>