<!--
AnimCJK 2016-2019 Copyright Francois Mizessyn - https://github.com/parsimonhi/animCJK
Derived from:
    MakeMeAHanzi project - https://github.com/skishore/makemeahanzi
    Arphic PL KaitiM GB font
    Arphic PL UKai font
You can redistribute and/or modify this file under the terms of the Arphic Public License
as published by Arphic Technology Co., Ltd.
You should have received a copy of this license along with this file.
If not, see http://ftp.gnu.org/non-gnu/chinese-fonts-truetype/LICENSE.
-->
<svg id="z28316" class="acjk" version="1.1" viewBox="0 0 1024 1024" xmlns="http://www.w3.org/2000/svg" xmlns:xlink="http://www.w3.org/1999/xlink">
<style>
<![CDATA[
@keyframes zk {
	to {
		stroke-dashoffset:0;
	}
}
svg.acjk path[clip-path] {
	--t:0.8s;
	animation:zk var(--t) linear forwards var(--d);
	stroke-dasharray:3337;
	stroke-dashoffset:3339;
	stroke-width:128;
	stroke-linecap:round;
	fill:none;
	stroke:#000;
}
svg.acjk path[id] {fill:#ccc;}
]]>
</style>
<path id="z28316d1" d="M200 176Q225 198 253 225Q268 238 284 238Q296 237 301 223Q305 208 296 177Q290 158 259 144Q186 119 172 125Q166 129 168 143Q172 153 200 176Z"/>
<path id="z28316d2" d="M112 363Q169 420 207 435Q222 438 231 424Q237 411 233 393Q220 348 150 332Q108 319 97 324Q90 325 94 338Q95 350 112 363Z"/>
<path id="z28316d3" d="M124 710Q112 714 114 732Q132 810 164 829Q171 836 182 833Q191 832 191 805Q197 765 219 706Q295 499 295 494Q294 484 285 491Q275 497 163 671Q150 690 124 710Z"/>
<path id="z28316d4" d="M389 255Q417 237 502 176Q520 160 543 149Q564 139 553 122Q540 106 514 92Q490 79 478 82Q465 83 470 97Q476 124 374 245C370 249 384 259 389 255Z"/>
<path id="z28316d5" d="M504 359Q467 390 430 420Q418 430 411 428Q404 427 403 413Q399 347 396 315Q392 290 392 270Q393 260 389 255C387 249 379 249 374 245Q358 235 341 232Q325 228 317 234Q310 241 323 256Q360 296 361 429Q357 451 345 482Q338 501 347 510Q357 520 380 525Q396 529 404 513Q416 473 500 395Q510 385 517 377C522 371 510 355 504 359Z"/>
<path id="z28316d6" d="M517 377Q538 404 548 406Q555 407 562 399Q566 389 565 367Q564 348 541 329Q481 290 472 294Q468 295 467 305Q467 312 504 359C513 371 513 371 517 377Z"/>
<path id="z28316d7" d="M675 227Q733 211 784 203Q802 200 805 206Q814 218 809 248Q800 333 780 372Q764 402 737 397Q715 391 695 383Q671 376 687 399Q726 439 743 470Q759 489 776 474Q831 438 859 299Q865 233 887 207Q899 194 893 185Q884 175 836 153Q817 144 799 157Q778 169 701 188Q625 207 558 213Q542 214 539 222Q538 229 560 240Q582 253 600 247Q619 241 641 236C664 230 664 230 675 227Z"/>
<path id="z28316d8" d="M641 236Q657 270 600 379Q575 422 541 467Q535 471 536 477Q536 481 541 481Q607 466 689 312Q699 290 707 279Q713 269 705 258Q690 236 675 227C665 221 637 225 641 236Z"/>
<path id="z28316d9" d="M398 569Q376 556 352 550Q345 549 340 553Q333 559 342 570Q385 636 396 793Q397 847 435 879Q436 879 439 881Q457 885 457 855Q457 851 456 846C453 825 453 825 452 815Q449 802 445 787Q424 631 423 606C423 591 411 576 398 569Z"/>
<path id="z28316d10" d="M698 825Q708 852 732 907Q741 925 751 924Q767 923 777 896Q807 842 832 653Q838 605 861 575Q877 556 866 542Q844 520 798 499Q779 489 747 500Q614 546 398 569C383 571 408 609 423 606Q478 593 549 580C574 575 574 575 587 572Q648 559 721 547Q752 540 767 556Q789 596 748 792Q745 810 738 812Q735 813 729 811C718 809 694 814 698 825Z"/>
<path id="z28316d11" d="M612 696Q652 689 690 684Q714 680 705 668Q695 653 669 648Q647 645 613 654C580 663 580 663 563 668Q517 680 475 691Q459 695 479 710Q488 716 565 704C596 699 596 699 612 696Z"/>
<path id="z28316d12" d="M609 794Q610 742 612 696C613 668 613 668 613 654Q613 636 615 618Q622 594 587 572C577 564 545 568 549 580Q559 604 563 668C564 692 564 692 565 704Q565 741 568 801C568 815 609 808 609 794Z"/>
<path id="z28316d13" d="M456 846Q459 846 463 846Q539 833 698 825C709 825 735 821 729 811Q725 802 704 787Q691 778 609 794C582 799 582 799 568 801Q505 808 452 815C442 817 446 846 456 846Z"/>
<defs>
	<clipPath id="z28316c1"><use xlink:href="#z28316d1"/></clipPath>
	<clipPath id="z28316c2"><use xlink:href="#z28316d2"/></clipPath>
	<clipPath id="z28316c3"><use xlink:href="#z28316d3"/></clipPath>
	<clipPath id="z28316c4"><use xlink:href="#z28316d4"/></clipPath>
	<clipPath id="z28316c5"><use xlink:href="#z28316d5"/></clipPath>
	<clipPath id="z28316c6"><use xlink:href="#z28316d6"/></clipPath>
	<clipPath id="z28316c7"><use xlink:href="#z28316d7"/></clipPath>
	<clipPath id="z28316c8"><use xlink:href="#z28316d8"/></clipPath>
	<clipPath id="z28316c9"><use xlink:href="#z28316d9"/></clipPath>
	<clipPath id="z28316c10"><use xlink:href="#z28316d10"/></clipPath>
	<clipPath id="z28316c11"><use xlink:href="#z28316d11"/></clipPath>
	<clipPath id="z28316c12"><use xlink:href="#z28316d12"/></clipPath>
	<clipPath id="z28316c13"><use xlink:href="#z28316d13"/></clipPath>
</defs>
<path style="--d:1s;" pathLength="3333" clip-path="url(#z28316c1)" d="M172 134L265 188L289 232"/>
<path style="--d:2s;" pathLength="3333" clip-path="url(#z28316c2)" d="M100 332L225 429"/>
<path style="--d:3s;" pathLength="3333" clip-path="url(#z28316c3)" d="M176 830L163 726L288 495"/>
<path style="--d:4s;" pathLength="3333" clip-path="url(#z28316c4)" d="M477 87L507 133L381 245"/>
<path style="--d:5s;" pathLength="3333" clip-path="url(#z28316c5)" d="M322 238L365 272L387 472L410 473L505 367"/>
<path style="--d:6s;" pathLength="3333" clip-path="url(#z28316c6)" d="M476 301L553 398"/>
<path style="--d:7s;" pathLength="3333" clip-path="url(#z28316c7)" d="M548 223L811 178L844 196L791 410L754 439L689 391"/>
<path style="--d:8s;" pathLength="3333" clip-path="url(#z28316c8)" d="M649 239L674 276L661 309L544 472"/>
<path style="--d:9s;" pathLength="3333" clip-path="url(#z28316c9)" d="M345 559L395 616L448 872"/>
<path style="--d:10s;" pathLength="3333" clip-path="url(#z28316c10)" d="M407 572L445 583L745 522L800 537L821 570L773 816L741 855L748 917"/>
<path style="--d:11s;" pathLength="3333" clip-path="url(#z28316c11)" d="M478 701L699 674"/>
<path style="--d:12s;" pathLength="3333" clip-path="url(#z28316c12)" d="M556 583L587 612L586 797"/>
<path style="--d:13s;" pathLength="3333" clip-path="url(#z28316c13)" d="M459 821L720 805"/>
</svg>