<!--
AnimCJK 2016-2019 Copyright Francois Mizessyn - https://github.com/parsimonhi/animCJK
Derived from:
    MakeMeAHanzi project - https://github.com/skishore/makemeahanzi
    Arphic PL KaitiM GB font
    Arphic PL UKai font
You can redistribute and/or modify this file under the terms of the Arphic Public License
as published by Arphic Technology Co., Ltd.
You should have received a copy of this license along with this file.
If not, see http://ftp.gnu.org/non-gnu/chinese-fonts-truetype/LICENSE.
-->
<svg id="z28338" class="acjk" version="1.1" viewBox="0 0 1024 1024" xmlns="http://www.w3.org/2000/svg" xmlns:xlink="http://www.w3.org/1999/xlink">
<style>
<![CDATA[
@keyframes zk {
	to {
		stroke-dashoffset:0;
	}
}
svg.acjk path[clip-path] {
	--t:0.8s;
	animation:zk var(--t) linear forwards var(--d);
	stroke-dasharray:3337;
	stroke-dashoffset:3339;
	stroke-width:128;
	stroke-linecap:round;
	fill:none;
	stroke:#000;
}
svg.acjk path[id] {fill:#ccc;}
]]>
</style>
<path id="z28338d1" d="M210 202Q234 224 259 249Q274 264 291 263Q303 262 309 247Q313 231 304 199Q292 171 204 150Q188 146 180 149Q174 153 176 167Q180 180 210 202Z"/>
<path id="z28338d2" d="M125 409Q179 466 213 479Q229 482 239 467Q245 454 241 436Q229 391 137 368Q119 364 109 367Q102 368 106 382Q107 395 125 409Z"/>
<path id="z28338d3" d="M123 754Q110 758 113 776Q131 855 165 872Q172 879 183 876Q190 875 191 848Q197 802 289 549Q296 533 295 526Q294 516 285 523Q272 532 162 713Q150 732 123 754Z"/>
<path id="z28338d4" d="M391 294Q425 276 471 247Q487 234 507 226Q526 219 517 204Q507 189 485 176Q466 164 455 166Q445 167 447 179Q450 197 380 281C376 285 386 297 391 294Z"/>
<path id="z28338d5" d="M430 482Q429 470 413 405C409 387 409 387 407 378Q392 306 391 294C390 288 385 283 380 281Q370 277 342 272Q332 271 328 275Q324 281 331 294Q365 363 385 474Q389 508 409 530Q425 549 430 535Q433 525 433 512C431 492 431 492 430 482Z"/>
<path id="z28338d6" d="M413 405Q464 393 502 384Q524 378 514 367Q502 354 478 354Q432 354 407 378C400 385 404 407 413 405Z"/>
<path id="z28338d7" d="M707 470Q708 471 709 474Q725 511 753 487Q762 480 782 441Q818 294 851 258Q867 242 856 223Q840 202 810 180Q794 170 777 175Q725 190 664 193Q643 194 646 204Q650 214 666 223Q675 224 739 219Q761 216 770 221Q779 228 770 260Q763 287 756 313C751 334 751 334 748 345Q724 433 717 440C712 449 702 461 707 470Z"/>
<path id="z28338d8" d="M756 313Q732 297 639 332Q623 335 642 350Q648 354 660 353Q709 347 748 345C759 345 766 318 756 313Z"/>
<path id="z28338d9" d="M594 485Q643 476 707 470C718 470 725 447 717 440Q696 419 600 449Q597 449 596 450C567 456 567 456 553 459Q487 472 430 482C420 484 423 512 433 512Q440 513 452 511Q491 501 552 491C580 487 580 487 594 485Z"/>
<path id="z28338d10" d="M589 562Q590 522 594 485C595 462 595 462 596 450Q603 209 627 126Q630 116 610 100Q574 81 550 77Q534 73 526 82Q519 89 527 105Q554 145 554 173Q558 308 553 459C552 480 552 480 552 491Q551 530 547 573C547 587 589 576 589 562Z"/>
<path id="z28338d11" d="M611 772Q654 723 695 650Q711 620 734 604Q756 589 744 573Q731 558 699 543Q675 533 645 544Q620 553 589 562C561 569 561 569 547 573Q498 582 428 588Q413 589 408 597Q404 604 423 613Q462 629 516 615Q607 588 623 589Q642 593 636 613Q612 688 569 740C550 759 550 759 541 769Q454 844 282 880Q266 883 278 893Q285 897 339 895Q406 891 484 858Q535 837 577 805C600 783 600 783 611 772Z"/>
<path id="z28338d12" d="M577 805Q694 922 739 926Q808 926 894 907Q928 900 926 891Q925 887 889 877Q717 835 677 813Q664 807 611 772C583 751 583 751 569 740Q532 712 495 677Q458 643 424 644Q408 644 405 650Q404 656 419 665Q464 689 541 769C565 793 565 793 577 805Z"/>
<defs>
	<clipPath id="z28338c1"><use xlink:href="#z28338d1"/></clipPath>
	<clipPath id="z28338c2"><use xlink:href="#z28338d2"/></clipPath>
	<clipPath id="z28338c3"><use xlink:href="#z28338d3"/></clipPath>
	<clipPath id="z28338c4"><use xlink:href="#z28338d4"/></clipPath>
	<clipPath id="z28338c5"><use xlink:href="#z28338d5"/></clipPath>
	<clipPath id="z28338c6"><use xlink:href="#z28338d6"/></clipPath>
	<clipPath id="z28338c7"><use xlink:href="#z28338d7"/></clipPath>
	<clipPath id="z28338c8"><use xlink:href="#z28338d8"/></clipPath>
	<clipPath id="z28338c9"><use xlink:href="#z28338d9"/></clipPath>
	<clipPath id="z28338c10"><use xlink:href="#z28338d10"/></clipPath>
	<clipPath id="z28338c11"><use xlink:href="#z28338d11"/></clipPath>
	<clipPath id="z28338c12"><use xlink:href="#z28338d12"/></clipPath>
</defs>
<path style="--d:1s;" pathLength="3333" clip-path="url(#z28338c1)" d="M179 156L264 206L298 255"/>
<path style="--d:2s;" pathLength="3333" clip-path="url(#z28338c2)" d="M111 374L233 471"/>
<path style="--d:3s;" pathLength="3333" clip-path="url(#z28338c3)" d="M178 870L160 778L289 530"/>
<path style="--d:4s;" pathLength="3333" clip-path="url(#z28338c4)" d="M514 215L465 204L387 286"/>
<path style="--d:5s;" pathLength="3333" clip-path="url(#z28338c5)" d="M334 281L366 307L421 534"/>
<path style="--d:6s;" pathLength="3333" clip-path="url(#z28338c6)" d="M417 396L512 372"/>
<path style="--d:7s;" pathLength="3333" clip-path="url(#z28338c7)" d="M653 202L773 198L816 234L729 492"/>
<path style="--d:8s;" pathLength="3333" clip-path="url(#z28338c8)" d="M643 341L751 323"/>
<path style="--d:9s;" pathLength="3333" clip-path="url(#z28338c9)" d="M439 505L710 445"/>
<path style="--d:10s;" pathLength="3333" clip-path="url(#z28338c10)" d="M529 84L589 136L554 565"/>
<path style="--d:11s;" pathLength="3333" clip-path="url(#z28338c11)" d="M411 599L657 567L694 598L540 801L397 868L283 886"/>
<path style="--d:12s;" pathLength="3333" clip-path="url(#z28338c12)" d="M414 651L692 861L749 885L917 893"/>
</svg>