<!--
AnimCJK 2016-2017 Copyright Francois Mizessyn, http://gooo.free.fr/animCJK/
Derived from:
    MakeMeAHanzi project - https://github.com/skishore/makemeahanzi
    Arphic PL KaitiM GB - https://apps.ubuntu.com/cat/applications/precise/fonts-arphic-gkai00mp/
    Arphic PL UKai - https://apps.ubuntu.com/cat/applications/fonts-arphic-ukai/
You can redistribute and/or modify this file under the terms of the Arphic Public License
as published by Arphic Technology Co., Ltd.
You should have received a copy of this license (the directory "APL") along with this file;
if not, see http://ftp.gnu.org/non-gnu/chinese-fonts-truetype/LICENSE.
-->
<svg id="z28335" class="acjk" version="1.1" viewBox="0 0 1024 1024" xmlns="http://www.w3.org/2000/svg" xmlns:xlink="http://www.w3.org/1999/xlink">
<style>
<![CDATA[
	@keyframes z28335k {
		from {
			stroke:#c00;
			stroke-dashoffset:3000;
		}
		75% {
			stroke:#c00;
			stroke-dashoffset:0;
		}
		to {
			stroke:#000;
		}
	}
	#z28335 path[clip-path] {
		animation:z28335k 1s linear both;
		stroke-dasharray:3000;
		stroke-width:128;
		stroke-linecap:round;
		fill:none;
	}
	#z28335 path[clip-path="url(#z28335c1)"] {animation-delay:1s;}
	#z28335 path[clip-path="url(#z28335c2)"] {animation-delay:2s;}
	#z28335 path[clip-path="url(#z28335c3)"] {animation-delay:3s;}
	#z28335 path[clip-path="url(#z28335c4)"] {animation-delay:4s;}
	#z28335 path[clip-path="url(#z28335c5)"] {animation-delay:5s;}
	#z28335 path[clip-path="url(#z28335c6)"] {animation-delay:6s;}
	#z28335 path[clip-path="url(#z28335c7)"] {animation-delay:7s;}
	#z28335 path[clip-path="url(#z28335c8)"] {animation-delay:8s;}
	#z28335 path[clip-path="url(#z28335c9)"] {animation-delay:9s;}
	#z28335 path[clip-path="url(#z28335c10)"] {animation-delay:10s;}
	#z28335 path[clip-path="url(#z28335c11)"] {animation-delay:11s;}
	#z28335 path[clip-path="url(#z28335c12)"] {animation-delay:12s;}
	#z28335 path[clip-path="url(#z28335c13)"] {animation-delay:13s;}
	#z28335 path {fill:#ccc;}
]]>
</style>
<g transform="scale(1,-1) translate(0,-900)">
	<path id="z28335d1" d="M205 717Q227 695 251 669Q264 656 280 655Q290 656 297 669Q301 684 294 713Q290 732 261 746Q191 773 180 767Q176 763 176 750Q179 740 205 717Z"/>
	<path id="z28335d2" d="M122 525Q158 480 188 467Q201 464 211 477Q217 489 215 505Q209 529 192 541Q153 565 116 566Q112 566 109 564Q103 563 106 551Q107 539 122 525Z"/>
	<path id="z28335d3" d="M101 187Q91 183 93 167Q111 97 141 82Q148 76 158 79Q165 80 165 104Q168 146 250 386Q256 401 255 407Q254 416 246 409Q237 403 137 227Q127 208 101 187Z"/>
	<path id="z28335d4" d="M356 716Q377 668 402 643Q414 637 424 646Q431 653 434 668Q434 707 375 743Q363 750 355 750Q349 750 349 740Q348 730 356 716Z"/>
	<path id="z28335d5" d="M527 766Q514 726 463 634Q459 616 473 623Q516 665 539 693Q585 753 609 768Q625 781 612 796Q596 809 570 816Q545 823 534 818Q522 814 529 803Q536 787 527 766Z"/>
	<path id="z28335d6" d="M441 538Q568 571 572 574Q579 581 575 589Q568 599 541 605Q513 609 446 584Q380 566 331 558Q297 551 322 537Q355 521 405 528L441 538Z"/>
	<path id="z28335d7" d="M447 324Q451 327 459 328Q505 341 523 341L525 373Q488 367 454 358L405 345Q368 335 337 321Q327 320 330 331Q348 415 342 427Q332 443 313 455Q304 461 295 460Q286 457 291 441Q304 399 295 359Q286 322 269 306Q254 291 261 280Q270 267 284 259Q294 252 303 259Q319 280 397 306L447 324Z"/>
	<path id="z28335d8" d="M523 341Q524 328 528 315Q532 302 544 310Q565 325 576 389Q597 450 604 458Q611 468 605 480Q592 493 570 512Q561 519 551 515Q545 514 545 503Q554 488 544 421Q537 393 527 375Q526 375 525 373L523 341Z"/>
	<path id="z28335d9" d="M397 306Q366 159 274 31Q270 25 268 20Q267 11 275 12Q308 19 377 128Q383 140 389 152Q425 224 447 324L454 358Q472 478 476 489Q483 501 477 512Q464 525 441 538L405 528Q429 495 405 345L397 306Z"/>
	<path id="z28335d10" d="M680 376Q684 419 689 470L692 505Q695 613 699 639L684 669Q639 691 625 688Q606 685 622 664Q655 607 638 397Q632 310 588 208Q555 127 455 34Q442 21 438 16Q437 9 448 9Q494 13 568 97Q653 194 675 341L680 376Z"/>
	<path id="z28335d11" d="M699 639Q705 640 715 644Q749 657 785 669Q801 678 809 669Q824 627 821 338Q815 107 802 88Q798 84 782 87Q757 96 731 105Q712 114 712 104Q761 49 788 10Q801 -9 816 -16Q825 -20 833 -10Q878 35 878 90Q869 274 872 573Q871 630 883 655Q895 674 883 684Q861 702 825 716Q806 725 763 698Q730 683 684 669L699 639Z"/>
	<path id="z28335d12" d="M689 470Q690 470 695 470Q744 480 781 486Q803 493 794 505Q781 518 756 520Q732 520 692 505L689 470Z"/>
	<path id="z28335d13" d="M675 341Q733 353 780 359Q802 363 793 376Q783 391 757 394Q712 397 680 376L675 341Z"/>
	<defs>
		<clipPath id="z28335c1"><use xlink:href="#z28335d1"/></clipPath>
		<clipPath id="z28335c2"><use xlink:href="#z28335d2"/></clipPath>
		<clipPath id="z28335c3"><use xlink:href="#z28335d3"/></clipPath>
		<clipPath id="z28335c4"><use xlink:href="#z28335d4"/></clipPath>
		<clipPath id="z28335c5"><use xlink:href="#z28335d5"/></clipPath>
		<clipPath id="z28335c6"><use xlink:href="#z28335d6"/></clipPath>
		<clipPath id="z28335c7"><use xlink:href="#z28335d7"/></clipPath>
		<clipPath id="z28335c8"><use xlink:href="#z28335d8"/></clipPath>
		<clipPath id="z28335c9"><use xlink:href="#z28335d9"/></clipPath>
		<clipPath id="z28335c10"><use xlink:href="#z28335d10"/></clipPath>
		<clipPath id="z28335c11"><use xlink:href="#z28335d11"/></clipPath>
		<clipPath id="z28335c12"><use xlink:href="#z28335d12"/></clipPath>
		<clipPath id="z28335c13"><use xlink:href="#z28335d13"/></clipPath>
	</defs>
	<path pathLength="2999" clip-path="url(#z28335c1)" d="M183 760L262 705L282 660"/>
	<path pathLength="2999" clip-path="url(#z28335c2)" d="M111 559L202 473"/>
	<path pathLength="2999" clip-path="url(#z28335c3)" d="M153 84L135 168L250 403"/>
	<path pathLength="2999" clip-path="url(#z28335c4)" d="M356 744L422 649"/>
	<path pathLength="2999" clip-path="url(#z28335c5)" d="M535 812L571 771L467 628"/>
	<path pathLength="2999" clip-path="url(#z28335c6)" d="M322 548L571 589"/>
	<path pathLength="2999" clip-path="url(#z28335c7)" d="M297 454L319 421L296 306L310 289L523 356"/>
	<path pathLength="2999" clip-path="url(#z28335c8)" d="M552 512L578 472L538 314"/>
	<path pathLength="2999" clip-path="url(#z28335c9)" d="M413 523L448 491L408 259L359 135L276 18"/>
	<path pathLength="2999" clip-path="url(#z28335c10)" d="M622 679L667 632L639 279L573 137L444 15"/>
	<path pathLength="2999" clip-path="url(#z28335c11)" d="M690 667L814 695L850 666L839 74L805 35L723 101"/>
	<path pathLength="2999" clip-path="url(#z28335c12)" d="M694 477L791 499"/>
	<path pathLength="2999" clip-path="url(#z28335c13)" d="M686 349L724 372L789 370"/>
</g>
</svg>