<!--
AnimCJK 2016-2026 Copyright FM-SH - https://github.com/parsimonhi/animCJK
Derived from:
    MakeMeAHanzi project - https://github.com/skishore/makemeahanzi
    Arphic PL KaitiM GB font
    Arphic PL KaitiM Big5 font
You can redistribute and/or modify this file under the terms of the Arphic Public License
as published by Arphic Technology Co., Ltd.
You should have received a copy of this license along with this file.
If not, see https://ftp.gnu.org/non-gnu/chinese-fonts-truetype/LICENSE.
-->
<svg id="z28338" class="acjk" viewBox="0 0 1024 1024" xmlns="http://www.w3.org/2000/svg">
<style>
<![CDATA[
@keyframes zk {
	to {
		stroke-dashoffset:0;
	}
}
svg.acjk path[clip-path] {
	--t:0.8s;
	animation:zk var(--t) linear forwards var(--d);
	stroke-dasharray:3337;
	stroke-dashoffset:3339;
	stroke-width:128;
	stroke-linecap:round;
	fill:none;
	stroke:#000;
}
svg.acjk path[id] {fill:#ccc;}
]]>
</style>
<path id="z28338d1" d="M210 202C226 215 242 232 259 249C269 259 279 263 291 263C299 262 305 257 309 247C312 236 311 219 304 199C297 179 262 164 204 150C176 143 173 152 176 167C177 175 190 186 210 202Z"/>
<path id="z28338d2" d="M125 409C162 445 189 472 213 479C230 484 248 467 241 436C233 405 198 382 137 368C121 364 101 358 106 382C107 390 114 398 125 409Z"/>
<path id="z28338d3" d="M123 754C115 758 110 764 113 776C124 828 143 858 165 872C188 887 189 864 191 848C194 817 226 717 289 549C297 527 300 498 270 540C251 568 215 625 162 713C154 725 142 741 123 754Z"/>
<path id="z28338d4" d="M391 294C455 255 479 239 507 226C519 220 523 213 517 204C510 193 499 184 485 176C460 160 444 162 447 179C449 191 426 225 380 281C376 285 386 297 391 294Z"/>
<path id="z28338d5" d="M430 482C429 474 422 448 413 405C409 387 409 387 407 378C396 330 391 302 391 294C391 288 385 283 380 281C373 278 360 274 342 272C330 270 320 273 331 294C354 339 372 399 385 474C388 496 395 515 409 530C419 542 426 544 430 535C432 528 433 520 433 512C431 492 431 492 430 482Z"/>
<path id="z28338d6" d="M413 405C447 397 476 390 502 384C534 375 508 354 478 354C447 354 423 362 407 378C400 385 404 407 413 405Z"/>
<path id="z28338d7" d="M707 470C720 491 725 508 753 487C759 482 774 469 782 441C800 367 828 281 851 258C861 247 864 235 856 223C846 208 830 194 810 180C799 172 788 171 777 175C742 185 704 191 664 193C631 194 647 214 666 223C671 225 696 223 739 219C773 215 780 221 770 260C765 277 760 295 756 313C751 334 751 334 748 345C733 403 721 435 717 440C712 449 701 462 707 470Z"/>
<path id="z28338d8" d="M756 313C740 302 701 310 639 332C624 336 635 355 660 353C692 349 722 346 748 345C759 345 766 318 756 313Z"/>
<path id="z28338d9" d="M594 485C626 480 664 474 707 470C718 470 726 445 717 440C683 419 670 434 596 450C567 456 567 456 553 459C509 468 468 475 430 482C420 484 423 512 433 512C450 514 453 505 552 491C580 487 580 487 594 485Z"/>
<path id="z28338d10" d="M589 562C589 535 592 509 594 485C595 462 595 462 596 450C605 289 610 181 627 126C628 119 624 109 610 100C586 85 565 80 550 77C534 73 512 80 527 105C543 132 553 154 554 173C556 263 556 358 553 459C552 480 552 480 552 491C551 516 549 544 547 573C547 587 589 576 589 562Z"/>
<path id="z28338d11" d="M611 772C639 739 667 698 695 650C705 630 718 614 734 604C748 593 752 583 744 573C735 562 720 552 699 543C683 535 665 536 645 544C628 550 609 556 589 562C561 569 561 569 547 573C514 581 474 584 428 588C415 589 383 596 423 613C448 623 480 625 516 615C576 597 612 587 623 589C635 590 640 599 636 613C620 663 597 705 569 740C550 759 550 759 541 769C491 811 421 844 330 868C258 881 267 898 339 895C410 891 507 857 577 805C600 783 600 783 611 772Z"/>
<path id="z28338d12" d="M577 805C655 883 708 924 739 926C784 927 836 919 894 907C939 897 923 885 889 877C703 829 667 815 611 772C583 751 583 751 569 740C544 721 519 700 495 677C470 654 446 643 424 644C406 644 394 650 419 665C448 681 488 716 541 769C565 793 565 793 577 805Z"/>
<defs>
	<clipPath id="z28338c1"><use href="#z28338d1"/></clipPath>
	<clipPath id="z28338c2"><use href="#z28338d2"/></clipPath>
	<clipPath id="z28338c3"><use href="#z28338d3"/></clipPath>
	<clipPath id="z28338c4"><use href="#z28338d4"/></clipPath>
	<clipPath id="z28338c5"><use href="#z28338d5"/></clipPath>
	<clipPath id="z28338c6"><use href="#z28338d6"/></clipPath>
	<clipPath id="z28338c7"><use href="#z28338d7"/></clipPath>
	<clipPath id="z28338c8"><use href="#z28338d8"/></clipPath>
	<clipPath id="z28338c9"><use href="#z28338d9"/></clipPath>
	<clipPath id="z28338c10"><use href="#z28338d10"/></clipPath>
	<clipPath id="z28338c11"><use href="#z28338d11"/></clipPath>
	<clipPath id="z28338c12"><use href="#z28338d12"/></clipPath>
</defs>
<path style="--d:1s;" pathLength="3333" clip-path="url(#z28338c1)" d="M178 155L304 252"/>
<path style="--d:2s;" pathLength="3333" clip-path="url(#z28338c2)" d="M114 373L230 472"/>
<path style="--d:3s;" pathLength="3333" clip-path="url(#z28338c3)" d="M117 770L174 816L288 524"/>
<path style="--d:4s;" pathLength="3333" clip-path="url(#z28338c4)" d="M455 172L478 209L384 285"/>
<path style="--d:5s;" pathLength="3333" clip-path="url(#z28338c5)" d="M333 277L366 306L422 535"/>
<path style="--d:6s;" pathLength="3333" clip-path="url(#z28338c6)" d="M406 393L511 367"/>
<path style="--d:7s;" pathLength="3333" clip-path="url(#z28338c7)" d="M653 201L780 196L817 234L725 492"/>
<path style="--d:8s;" pathLength="3333" clip-path="url(#z28338c8)" d="M640 342L757 327"/>
<path style="--d:9s;" pathLength="3333" clip-path="url(#z28338c9)" d="M427 494L717 452"/>
<path style="--d:10s;" pathLength="3333" clip-path="url(#z28338c10)" d="M529 85L587 135L563 577"/>
<path style="--d:11s;" pathLength="3333" clip-path="url(#z28338c11)" d="M410 598L653 568L692 601L559 787L436 854L288 885"/>
<path style="--d:12s;" pathLength="3333" clip-path="url(#z28338c12)" d="M411 652L710 869L915 894"/>
</svg>