<!--
AnimCJK 2016-2018 Copyright Francois Mizessyn - https://github.com/parsimonhi/animCJK
Derived from:
    MakeMeAHanzi project - https://github.com/skishore/makemeahanzi
    Arphic PL KaitiM GB - https://apps.ubuntu.com/cat/applications/precise/fonts-arphic-gkai00mp/
    Arphic PL UKai - https://apps.ubuntu.com/cat/applications/fonts-arphic-ukai/
You can redistribute and/or modify this file under the terms of the Arphic Public License
as published by Arphic Technology Co., Ltd.
You should have received a copy of this license (the directory "APL") along with this file;
if not, see http://ftp.gnu.org/non-gnu/chinese-fonts-truetype/LICENSE.
-->
<svg id="z28340" class="acjk" version="1.1" viewBox="0 0 1024 1024" xmlns="http://www.w3.org/2000/svg" xmlns:xlink="http://www.w3.org/1999/xlink">
<style>
<![CDATA[
@keyframes z28340k {
	from {
		stroke:#c00;
		stroke-dashoffset:3334;
	}
	75% {
		stroke:#c00;
		stroke-dashoffset:0;
	}
	to {
		stroke:#000;
	}
}
#z28340 path[clip-path] {
	animation:z28340k 1s linear both;
	stroke-dasharray:3334;
	stroke-width:128;
	stroke-linecap:round;
	fill:none;
}
#z28340 path[clip-path="url(#z28340c1)"] {animation-delay:1s;}
#z28340 path[clip-path="url(#z28340c2)"] {animation-delay:2s;}
#z28340 path[clip-path="url(#z28340c3)"] {animation-delay:3s;}
#z28340 path[clip-path="url(#z28340c4)"] {animation-delay:4s;}
#z28340 path[clip-path="url(#z28340c5)"] {animation-delay:5s;}
#z28340 path[clip-path="url(#z28340c6)"] {animation-delay:6s;}
#z28340 path[clip-path="url(#z28340c7)"] {animation-delay:7s;}
#z28340 path[clip-path="url(#z28340c8)"] {animation-delay:8s;}
#z28340 path[clip-path="url(#z28340c9)"] {animation-delay:9s;}
#z28340 path[clip-path="url(#z28340c10)"] {animation-delay:10s;}
#z28340 path[clip-path="url(#z28340c11)"] {animation-delay:11s;}
#z28340 path[clip-path="url(#z28340c12)"] {animation-delay:12s;}
#z28340 path[clip-path="url(#z28340c13)"] {animation-delay:13s;}
#z28340 path {fill:#ccc;}
]]>
</style>
<path id="z28340d1" d="M235 213Q260 238 289 267Q302 282 320 281Q330 281 337 267Q341 252 334 220Q324 187 231 163Q215 159 208 161Q202 165 204 178Q207 191 235 213 Z"/>
<path id="z28340d2" d="M129 393Q180 456 210 468Q225 472 235 459Q242 446 240 429Q231 387 144 354Q128 348 118 352Q111 353 113 366Q114 378 129 393 Z"/>
<path id="z28340d3" d="M126 778Q113 782 115 801Q127 879 165 901Q172 908 184 906Q191 905 194 878Q200 830 320 538Q327 522 327 515Q326 503 317 511Q302 518 172 730Q157 754 126 778 Z"/>
<path id="z28340d4" d="M514 223Q553 180 587 137Q600 116 620 100Q638 85 622 71Q606 59 577 53Q550 46 539 53Q527 57 535 69Q547 93 490 226L514 223 Z"/>
<path id="z28340d5" d="M454 228Q438 216 419 212Q410 211 405 219Q402 223 410 233Q443 300 426 457Q414 514 418 529Q427 557 438 569Q448 581 457 568Q461 561 465 553L472 523Q475 496 476 453L475 427Q475 391 474 356L474 335Q473 275 476 258L454 228 Z"/>
<path id="z28340d6" d="M691 528Q692 532 696 538Q709 566 718 566Q731 565 748 534Q763 509 761 489Q740 297 776 248Q786 232 778 222Q751 197 703 177Q687 171 664 179Q621 200 514 223L490 226Q471 227 454 228L476 258Q480 258 486 257Q540 247 581 238Q666 217 686 229Q695 250 698 303Q699 463 691 495L691 528 Z"/>
<path id="z28340d7" d="M474 356Q483 359 496 357Q581 344 643 335Q665 331 657 319Q647 306 623 301Q590 297 474 335L474 356 Z"/>
<path id="z28340d8" d="M476 453Q479 453 651 427Q673 423 665 411Q655 398 631 393Q598 389 475 427L476 453 Z"/>
<path id="z28340d9" d="M582 540Q640 531 691 528L691 495Q687 492 680 491Q656 487 472 523L465 553Q471 553 480 552Q499 549 520 547L582 540 Z"/>
<path id="z28340d10" d="M588 669Q669 660 870 660Q889 660 895 652Q901 640 884 626Q832 587 794 595Q721 610 597 629L531 638Q437 648 329 662Q307 663 323 681Q336 694 355 701Q376 705 392 702Q453 686 525 676L588 669 Z"/>
<path id="z28340d11" d="M587 671Q587 670 588 669L597 629Q601 590 611 575Q618 568 612 557Q606 550 582 540L520 547Q535 578 531 638L525 676Q501 805 352 882Q321 895 282 913Q254 926 286 928Q361 931 466 870Q487 855 506 833Q551 788 578 702L587 671 Z"/>
<path id="z28340d12" d="M578 702Q660 811 762 926Q781 945 812 944Q917 937 949 931Q959 928 960 923Q960 919 946 911Q793 857 728 799Q662 744 587 671L578 702 Z"/>
<path id="z28340d13" d="M809 505Q849 553 881 568Q894 572 903 559Q909 547 907 532Q895 492 821 470Q806 466 797 469Q791 470 794 481Q795 491 809 505 Z"/>
<defs>
	<clipPath id="z28340c1"><use xlink:href="#z28340d1"/></clipPath>
	<clipPath id="z28340c2"><use xlink:href="#z28340d2"/></clipPath>
	<clipPath id="z28340c3"><use xlink:href="#z28340d3"/></clipPath>
	<clipPath id="z28340c4"><use xlink:href="#z28340d4"/></clipPath>
	<clipPath id="z28340c5"><use xlink:href="#z28340d5"/></clipPath>
	<clipPath id="z28340c6"><use xlink:href="#z28340d6"/></clipPath>
	<clipPath id="z28340c7"><use xlink:href="#z28340d7"/></clipPath>
	<clipPath id="z28340c8"><use xlink:href="#z28340d8"/></clipPath>
	<clipPath id="z28340c9"><use xlink:href="#z28340d9"/></clipPath>
	<clipPath id="z28340c10"><use xlink:href="#z28340d10"/></clipPath>
	<clipPath id="z28340c11"><use xlink:href="#z28340d11"/></clipPath>
	<clipPath id="z28340c12"><use xlink:href="#z28340d12"/></clipPath>
	<clipPath id="z28340c13"><use xlink:href="#z28340d13"/></clipPath>
</defs>
<path pathLength="3333" clip-path="url(#z28340c1)" d="M212 172L301 230L316 278"/>
<path pathLength="3333" clip-path="url(#z28340c2)" d="M119 357L231 459"/>
<path pathLength="3333" clip-path="url(#z28340c3)" d="M180 899L163 803L321 519"/>
<path pathLength="3333" clip-path="url(#z28340c4)" d="M538 57L581 94L498 219"/>
<path pathLength="3333" clip-path="url(#z28340c5)" d="M413 221L449 268L445 567"/>
<path pathLength="3333" clip-path="url(#z28340c6)" d="M465 232L680 200L736 242L718 562"/>
<path pathLength="3333" clip-path="url(#z28340c7)" d="M480 349L651 323"/>
<path pathLength="3333" clip-path="url(#z28340c8)" d="M480 445L662 414"/>
<path pathLength="3333" clip-path="url(#z28340c9)" d="M474 546L689 514"/>
<path pathLength="3333" clip-path="url(#z28340c10)" d="M324 670L381 679L799 627L890 645"/>
<path pathLength="3333" clip-path="url(#z28340c11)" d="M528 550L573 578L513 780L423 867L277 920"/>
<path pathLength="3333" clip-path="url(#z28340c12)" d="M587 682L790 893L954 923"/>
<path pathLength="3333" clip-path="url(#z28340c13)" d="M799 472L901 558"/>
</svg>