<!--
AnimCJK 2016-2017 Copyright Francois Mizessyn, http://gooo.free.fr/animCJK/
Derived from:
    MakeMeAHanzi project - https://github.com/skishore/makemeahanzi
    Arphic PL KaitiM GB - https://apps.ubuntu.com/cat/applications/precise/fonts-arphic-gkai00mp/
    Arphic PL UKai - https://apps.ubuntu.com/cat/applications/fonts-arphic-ukai/
You can redistribute and/or modify this file under the terms of the Arphic Public License
as published by Arphic Technology Co., Ltd.
You should have received a copy of this license (the directory "APL") along with this file;
if not, see http://ftp.gnu.org/non-gnu/chinese-fonts-truetype/LICENSE.
-->
<svg id="z28369" class="acjk" version="1.1" viewBox="0 0 1024 1024" xmlns="http://www.w3.org/2000/svg" xmlns:xlink="http://www.w3.org/1999/xlink">
<style>
<![CDATA[
	@keyframes z28369k {
		from {
			stroke:#c00;
			stroke-dashoffset:3000;
		}
		75% {
			stroke:#c00;
			stroke-dashoffset:0;
		}
		to {
			stroke:#000;
		}
	}
	#z28369 path[clip-path] {
		animation:z28369k 1s linear both;
		stroke-dasharray:3000;
		stroke-width:128;
		stroke-linecap:round;
		fill:none;
	}
	#z28369 path[clip-path="url(#z28369c1)"] {animation-delay:1s;}
	#z28369 path[clip-path="url(#z28369c2)"] {animation-delay:2s;}
	#z28369 path[clip-path="url(#z28369c3)"] {animation-delay:3s;}
	#z28369 path[clip-path="url(#z28369c4)"] {animation-delay:4s;}
	#z28369 path[clip-path="url(#z28369c5)"] {animation-delay:5s;}
	#z28369 path[clip-path="url(#z28369c6)"] {animation-delay:6s;}
	#z28369 path[clip-path="url(#z28369c7)"] {animation-delay:7s;}
	#z28369 path[clip-path="url(#z28369c8)"] {animation-delay:8s;}
	#z28369 path[clip-path="url(#z28369c9)"] {animation-delay:9s;}
	#z28369 path[clip-path="url(#z28369c10)"] {animation-delay:10s;}
	#z28369 path[clip-path="url(#z28369c11)"] {animation-delay:11s;}
	#z28369 path[clip-path="url(#z28369c12)"] {animation-delay:12s;}
	#z28369 path {fill:#ccc;}
]]>
</style>
<g transform="scale(1,-1) translate(0,-900)">
	<path id="z28369d1" d="M237 742Q262 717 289 686Q302 671 319 671Q331 671 337 685Q343 700 335 732Q331 751 300 769Q227 800 212 795Q206 791 207 778Q210 766 237 742Z"/>
	<path id="z28369d2" d="M133 567Q184 504 214 492Q229 488 239 501Q246 514 244 531Q235 573 148 606Q132 612 122 608Q115 607 117 594Q118 582 133 567Z"/>
	<path id="z28369d3" d="M132 173Q120 169 124 151Q146 72 181 58Q188 51 200 55Q207 58 206 83Q207 114 283 383Q289 399 288 406Q287 416 277 409Q265 400 168 216Q158 195 132 173Z"/>
	<path id="z28369d4" d="M492 787Q473 803 447 810Q434 814 426 809Q419 803 426 789Q444 758 453 722Q459 685 475 539L511 545Q507 609 504 656L503 685Q503 740 504 755L492 787Z"/>
	<path id="z28369d5" d="M734 579Q756 727 803 773Q819 792 804 810Q786 823 732 845Q713 852 692 843Q626 815 492 787L504 755Q507 755 678 791Q697 795 704 788Q720 775 717 745Q704 648 684 571L734 579Z"/>
	<path id="z28369d6" d="M616 561Q629 637 646 667Q653 676 649 684Q643 694 599 711Q589 714 503 685L504 656Q513 656 521 660Q572 681 579 678Q585 675 585 663Q584 618 576 555L616 561Z"/>
	<path id="z28369d7" d="M393 529Q383 559 357 576Q353 580 347 576Q341 572 341 561Q344 528 313 455Q303 437 303 417Q307 398 317 382Q324 369 331 378Q338 379 346 396Q352 403 361 433Q379 484 388 501Q388 502 389 503L393 529Z"/>
	<path id="z28369d8" d="M389 503Q414 487 442 493Q589 541 782 555Q803 556 813 555Q831 545 828 537Q829 533 824 520Q794 453 801 449Q808 445 823 457Q872 494 914 508Q948 520 948 528Q947 538 879 585Q855 603 734 579L684 571Q653 568 616 561L576 555Q545 552 511 545L475 539Q433 535 393 529L389 503Z"/>
	<path id="z28369d9" d="M504 196Q507 247 511 284L513 312Q516 372 521 393L513 424Q489 448 458 446Q445 442 449 430Q494 330 442 128Q418 74 422 60Q423 30 439 10Q446 -3 456 2Q501 29 501 160Q501 164 502 166L504 196Z"/>
	<path id="z28369d10" d="M521 393Q534 396 653 424Q674 430 679 419Q683 406 687 387Q700 197 696 81Q695 54 686 42Q682 36 662 40Q637 44 612 50Q591 57 592 47Q647 -2 677 -40Q690 -59 707 -65Q717 -69 726 -58Q768 -4 767 50Q736 365 760 407Q773 428 760 438Q736 457 698 473Q679 480 663 473Q600 437 513 424L521 393Z"/>
	<path id="z28369d11" d="M511 284Q514 284 519 284Q583 294 631 299Q653 303 645 316Q635 331 609 335Q560 338 513 312L511 284Z"/>
	<path id="z28369d12" d="M502 166Q580 175 638 180Q660 183 653 196Q643 211 617 217Q586 223 504 196L502 166Z"/>
	<defs>
		<clipPath id="z28369c1"><use xlink:href="#z28369d1"/></clipPath>
		<clipPath id="z28369c2"><use xlink:href="#z28369d2"/></clipPath>
		<clipPath id="z28369c3"><use xlink:href="#z28369d3"/></clipPath>
		<clipPath id="z28369c4"><use xlink:href="#z28369d4"/></clipPath>
		<clipPath id="z28369c5"><use xlink:href="#z28369d5"/></clipPath>
		<clipPath id="z28369c6"><use xlink:href="#z28369d6"/></clipPath>
		<clipPath id="z28369c7"><use xlink:href="#z28369d7"/></clipPath>
		<clipPath id="z28369c8"><use xlink:href="#z28369d8"/></clipPath>
		<clipPath id="z28369c9"><use xlink:href="#z28369d9"/></clipPath>
		<clipPath id="z28369c10"><use xlink:href="#z28369d10"/></clipPath>
		<clipPath id="z28369c11"><use xlink:href="#z28369d11"/></clipPath>
		<clipPath id="z28369c12"><use xlink:href="#z28369d12"/></clipPath>
	</defs>
	<path pathLength="2999" clip-path="url(#z28369c1)" d="M215 790L300 726L323 675"/>
	<path pathLength="2999" clip-path="url(#z28369c2)" d="M123 603L235 501"/>
	<path pathLength="2999" clip-path="url(#z28369c3)" d="M196 61L172 158L281 405"/>
	<path pathLength="2999" clip-path="url(#z28369c4)" d="M429 803L477 742L492 543"/>
	<path pathLength="2999" clip-path="url(#z28369c5)" d="M500 781L705 819L752 795L763 774L695 576"/>
	<path pathLength="2999" clip-path="url(#z28369c6)" d="M511 665L573 692L616 675L587 558"/>
	<path pathLength="2999" clip-path="url(#z28369c7)" d="M351 568L364 523L322 381"/>
	<path pathLength="2999" clip-path="url(#z28369c8)" d="M393 510L823 572L880 539L894 512L808 452"/>
	<path pathLength="2999" clip-path="url(#z28369c9)" d="M456 436L488 405L492 325L452 7"/>
	<path pathLength="2999" clip-path="url(#z28369c10)" d="M521 419L681 451L725 413L725 29L696 -12L603 49"/>
	<path pathLength="2999" clip-path="url(#z28369c11)" d="M516 292L640 315"/>
	<path pathLength="2999" clip-path="url(#z28369c12)" d="M510 174L650 195"/>
</g>
</svg>