<!--
AnimCJK 2016-2019 Copyright Francois Mizessyn - https://github.com/parsimonhi/animCJK
Derived from:
    MakeMeAHanzi project - https://github.com/skishore/makemeahanzi
    Arphic PL KaitiM GB font
    Arphic PL UKai font
You can redistribute and/or modify this file under the terms of the Arphic Public License
as published by Arphic Technology Co., Ltd.
You should have received a copy of this license along with this file.
If not, see http://ftp.gnu.org/non-gnu/chinese-fonts-truetype/LICENSE.
-->
<svg id="z28375" class="acjk" version="1.1" viewBox="0 0 1024 1024" xmlns="http://www.w3.org/2000/svg" xmlns:xlink="http://www.w3.org/1999/xlink">
<style>
<![CDATA[
@keyframes zk {
	to {
		stroke-dashoffset:0;
	}
}
svg.acjk path[clip-path] {
	--t:0.8s;
	animation:zk var(--t) linear forwards var(--d);
	stroke-dasharray:3337;
	stroke-dashoffset:3339;
	stroke-width:128;
	stroke-linecap:round;
	fill:none;
	stroke:#000;
}
svg.acjk path[id] {fill:#ccc;}
]]>
</style>
<path id="z28375d1" d="M218 214Q246 238 275 266Q290 279 307 279Q319 278 324 264Q330 248 319 215Q307 181 212 161Q196 157 188 161Q182 165 184 179Q188 192 218 214Z"/>
<path id="z28375d2" d="M141 401Q195 458 229 471Q245 474 255 459Q261 446 257 428Q245 383 153 360Q135 356 125 359Q118 360 122 374Q123 387 141 401Z"/>
<path id="z28375d3" d="M144 750Q132 754 135 772Q153 850 189 867Q196 874 207 871Q214 870 215 843Q219 789 314 521Q321 505 319 498Q318 488 309 495Q297 501 185 704Q172 726 144 750Z"/>
<path id="z28375d4" d="M430 211Q442 180 456 154Q463 141 448 130Q403 106 381 114Q371 118 376 130Q400 206 332 320Q316 345 307 361Q303 376 315 369Q328 365 346 346Q394 294 420 237C427 220 427 220 430 211Z"/>
<path id="z28375d5" d="M420 237Q451 244 536 229Q575 220 584 216Q591 209 587 202Q580 192 555 187Q540 184 469 204Q448 207 430 211C421 213 411 235 420 237Z"/>
<path id="z28375d6" d="M435 305Q483 363 506 367Q519 368 525 351Q526 339 517 320Q508 305 487 298Q453 283 439 280Q432 279 430 289Q429 296 435 305Z"/>
<path id="z28375d7" d="M670 190Q674 175 705 118Q712 105 698 94Q656 67 635 76Q625 80 629 92Q648 165 574 280Q561 296 555 309Q551 324 563 318Q605 303 659 213C666 198 666 198 670 190Z"/>
<path id="z28375d8" d="M659 213Q695 231 744 217Q787 208 832 198Q853 194 856 190Q863 183 859 175Q852 165 825 158Q804 155 726 179Q699 185 670 190C662 191 651 210 659 213Z"/>
<path id="z28375d9" d="M713 295Q741 316 772 340Q785 350 797 348Q806 347 809 336Q812 323 803 300Q791 270 706 257Q693 256 688 257Q684 261 686 271Q690 280 713 295Z"/>
<path id="z28375d10" d="M525 436Q690 384 691 382Q695 372 684 362Q629 320 600 323Q593 326 592 336Q586 378 389 457Q385 464 389 468Q410 468 482 449C511 440 511 440 525 436Z"/>
<path id="z28375d11" d="M554 553Q615 537 680 523Q729 510 735 503Q744 496 739 487Q732 477 704 470Q677 464 568 504C521 516 521 516 498 522Q446 532 388 540Q354 547 379 562Q416 583 483 568Q489 567 497 566C535 557 535 557 554 553Z"/>
<path id="z28375d12" d="M542 678Q585 668 805 648Q826 647 830 637Q834 624 817 611Q757 575 704 592Q641 608 544 633C512 640 512 640 496 644Q414 660 323 680Q301 684 319 700Q355 728 392 716Q441 700 496 688C527 681 527 681 542 678Z"/>
<path id="z28375d13" d="M942 806Q923 758 912 676Q909 660 902 654Q893 648 889 670Q873 772 857 789Q826 826 694 831Q621 830 590 819Q562 806 556 788Q543 755 542 678C543 648 543 648 544 633Q547 587 554 553C563 520 563 520 568 504Q578 476 559 459Q540 444 525 436C512 428 476 435 482 449Q497 479 498 522C497 551 497 551 497 566Q496 608 496 644C496 673 496 673 496 688Q497 817 544 849Q601 894 799 880Q889 874 924 855Q955 839 942 806Z"/>
<defs>
	<clipPath id="z28375c1"><use xlink:href="#z28375d1"/></clipPath>
	<clipPath id="z28375c2"><use xlink:href="#z28375d2"/></clipPath>
	<clipPath id="z28375c3"><use xlink:href="#z28375d3"/></clipPath>
	<clipPath id="z28375c4"><use xlink:href="#z28375d4"/></clipPath>
	<clipPath id="z28375c5"><use xlink:href="#z28375d5"/></clipPath>
	<clipPath id="z28375c6"><use xlink:href="#z28375d6"/></clipPath>
	<clipPath id="z28375c7"><use xlink:href="#z28375d7"/></clipPath>
	<clipPath id="z28375c8"><use xlink:href="#z28375d8"/></clipPath>
	<clipPath id="z28375c9"><use xlink:href="#z28375d9"/></clipPath>
	<clipPath id="z28375c10"><use xlink:href="#z28375d10"/></clipPath>
	<clipPath id="z28375c11"><use xlink:href="#z28375d11"/></clipPath>
	<clipPath id="z28375c12"><use xlink:href="#z28375d12"/></clipPath>
	<clipPath id="z28375c13"><use xlink:href="#z28375d13"/></clipPath>
</defs>
<path style="--d:1s;" pathLength="3333" clip-path="url(#z28375c1)" d="M188 170L270 214L318 268"/>
<path style="--d:2s;" pathLength="3333" clip-path="url(#z28375c2)" d="M127 366L249 463"/>
<path style="--d:3s;" pathLength="3333" clip-path="url(#z28375c3)" d="M201 867L182 767L312 500"/>
<path style="--d:4s;" pathLength="3333" clip-path="url(#z28375c4)" d="M381 122L420 158L371 287L314 364"/>
<path style="--d:5s;" pathLength="3333" clip-path="url(#z28375c5)" d="M429 232L581 207"/>
<path style="--d:6s;" pathLength="3333" clip-path="url(#z28375c6)" d="M438 287L517 357"/>
<path style="--d:7s;" pathLength="3333" clip-path="url(#z28375c7)" d="M634 82L669 122L618 243L561 312"/>
<path style="--d:8s;" pathLength="3333" clip-path="url(#z28375c8)" d="M665 209L854 180"/>
<path style="--d:9s;" pathLength="3333" clip-path="url(#z28375c9)" d="M693 262L801 339"/>
<path style="--d:10s;" pathLength="3333" clip-path="url(#z28375c10)" d="M682 373L605 366L394 462"/>
<path style="--d:11s;" pathLength="3333" clip-path="url(#z28375c11)" d="M379 551L737 493"/>
<path style="--d:12s;" pathLength="3333" clip-path="url(#z28375c12)" d="M319 688L370 695L712 623L826 629"/>
<path style="--d:13s;" pathLength="3333" clip-path="url(#z28375c13)" d="M488 451L532 482L522 746L562 832L698 857L890 822L897 660"/>
</svg>