<!--
AnimCJK 2016-2025 Copyright FM-SH - https://github.com/parsimonhi/animCJK
Derived from:
    MakeMeAHanzi project - https://github.com/skishore/makemeahanzi
    Arphic PL KaitiM GB font
    Arphic PL KaitiM Big5 font
You can redistribute and/or modify this file under the terms of the Arphic Public License
as published by Arphic Technology Co., Ltd.
You should have received a copy of this license along with this file.
If not, see https://ftp.gnu.org/non-gnu/chinese-fonts-truetype/LICENSE.
-->
<svg id="z28378" class="acjk" viewBox="0 0 1024 1024" xmlns="http://www.w3.org/2000/svg">
<style>
<![CDATA[
@keyframes zk {
	to {
		stroke-dashoffset:0;
	}
}
svg.acjk path[clip-path] {
	--t:0.8s;
	animation:zk var(--t) linear forwards var(--d);
	stroke-dasharray:3337;
	stroke-dashoffset:3339;
	stroke-width:128;
	stroke-linecap:round;
	fill:none;
	stroke:#000;
}
svg.acjk path[id] {fill:#ccc;}
]]>
</style>
<path id="z28378d1" d="M232 202C249 218 266 237 285 258C294 268 306 274 318 274C326 274 331 268 336 259C340 248 339 231 334 208C330 194 319 180 297 170C247 147 215 139 204 145C199 147 197 154 199 164C200 172 213 184 232 202Z"/>
<path id="z28378d2" d="M126 361C159 398 184 424 206 433C215 436 224 432 231 423C236 414 237 404 235 393C227 362 194 341 141 323C134 320 119 318 114 320C109 321 107 325 109 334C109 341 116 350 126 361Z"/>
<path id="z28378d3" d="M101 742C93 746 89 751 92 763C102 811 120 840 144 855C149 858 154 860 161 859C165 857 167 849 169 832C170 803 202 701 266 524C269 513 271 506 271 502C269 495 267 494 261 499C252 505 212 571 141 698C132 712 120 729 101 742Z"/>
<path id="z28378d4" d="M516 97C562 143 595 166 615 166C625 165 633 158 635 144C636 133 631 120 622 107C613 94 599 87 580 82C550 73 530 66 518 66C511 65 507 69 507 79C506 84 510 91 516 97Z"/>
<path id="z28378d5" d="M465 269C556 245 656 227 763 212C791 207 784 193 761 181C739 169 702 171 646 188C552 214 453 229 379 241C361 243 359 250 374 261C396 277 409 278 434 277C455 272 455 272 465 269Z"/>
<path id="z28378d6" d="M434 277C422 333 377 383 339 423C321 436 333 442 348 437C373 429 415 390 463 344C472 334 482 321 489 316C505 300 486 288 465 269C457 261 436 267 434 277Z"/>
<path id="z28378d7" d="M674 295C700 311 728 328 757 349C765 355 773 357 782 356C787 354 791 351 793 344C794 335 791 323 785 308C779 293 766 280 741 272C687 254 655 250 648 257C645 259 643 264 646 271C647 277 657 285 674 295Z"/>
<path id="z28378d8" d="M508 508C533 495 598 480 667 459C674 456 662 438 654 440C605 448 554 459 502 475C491 478 489 474 495 468C543 411 572 379 583 371C589 365 591 359 589 352C586 345 571 333 544 319C534 313 526 312 521 315C514 317 510 325 514 337C522 371 499 416 438 470C432 475 424 479 417 485C408 491 405 497 407 504C409 513 418 524 433 537C439 542 446 543 454 537C460 531 472 524 489 517C502 511 502 511 508 508Z"/>
<path id="z28378d9" d="M667 459Q682 483 702 488Q714 491 723 475Q726 463 720 444Q713 426 692 414Q658 392 644 386Q635 383 633 394Q630 400 654 440C663 453 663 453 667 459Z"/>
<path id="z28378d10" d="M545 576C548 572 554 557 552 551C542 529 523 513 508 508C501 505 489 510 489 517C497 615 297 759 245 796C225 809 246 810 256 808C294 802 362 764 446 681C461 666 461 666 469 658C488 638 507 615 528 594C534 588 541 583 545 576Z"/>
<path id="z28378d11" d="M446 681C456 703 460 724 460 745C459 771 457 789 456 799C452 818 446 833 438 845C428 858 427 874 433 889C439 909 448 924 461 933C467 937 475 933 484 922C504 895 547 845 620 781C638 764 641 743 619 756C592 770 564 785 535 804C512 818 500 809 502 789C504 750 510 726 513 716C516 703 512 692 504 684C491 671 480 662 469 658C459 654 442 671 446 681Z"/>
<path id="z28378d12" d="M643 648C693 619 738 598 765 585C781 578 798 571 794 560C790 549 786 540 774 526C762 511 748 502 734 500C723 498 717 505 717 519C717 535 687 573 627 634C622 639 637 651 643 648Z"/>
<path id="z28378d13" d="M627 634C586 598 561 576 545 576C537 575 521 590 528 594C560 613 622 678 648 707C725 796 785 839 826 835C836 833 868 824 925 811C938 807 964 800 942 789C933 784 893 772 822 754C772 741 711 707 643 648C632 639 632 639 627 634Z"/>
<defs>
	<clipPath id="z28378c1"><use href="#z28378d1"/></clipPath>
	<clipPath id="z28378c2"><use href="#z28378d2"/></clipPath>
	<clipPath id="z28378c3"><use href="#z28378d3"/></clipPath>
	<clipPath id="z28378c4"><use href="#z28378d4"/></clipPath>
	<clipPath id="z28378c5"><use href="#z28378d5"/></clipPath>
	<clipPath id="z28378c6"><use href="#z28378d6"/></clipPath>
	<clipPath id="z28378c7"><use href="#z28378d7"/></clipPath>
	<clipPath id="z28378c8"><use href="#z28378d8"/></clipPath>
	<clipPath id="z28378c9"><use href="#z28378d9"/></clipPath>
	<clipPath id="z28378c10"><use href="#z28378d10"/></clipPath>
	<clipPath id="z28378c11"><use href="#z28378d11"/></clipPath>
	<clipPath id="z28378c12"><use href="#z28378d12"/></clipPath>
	<clipPath id="z28378c13"><use href="#z28378d13"/></clipPath>
</defs>
<path style="--d:1s;" pathLength="3333" clip-path="url(#z28378c1)" d="M205 148L293 211L321 267"/>
<path style="--d:2s;" pathLength="3333" clip-path="url(#z28378c2)" d="M116 328L229 422"/>
<path style="--d:3s;" pathLength="3333" clip-path="url(#z28378c3)" d="M98 755L153 804L264 503"/>
<path style="--d:4s;" pathLength="3333" clip-path="url(#z28378c4)" d="M514 72L624 157"/>
<path style="--d:5s;" pathLength="3333" clip-path="url(#z28378c5)" d="M372 247L430 255L774 195"/>
<path style="--d:6s;" pathLength="3333" clip-path="url(#z28378c6)" d="M445 272L458 309L339 432"/>
<path style="--d:7s;" pathLength="3333" clip-path="url(#z28378c7)" d="M653 264L737 300L782 350"/>
<path style="--d:8s;" pathLength="3333" clip-path="url(#z28378c8)" d="M521 321L551 363L450 486L460 504L664 451"/>
<path style="--d:9s;" pathLength="3333" clip-path="url(#z28378c9)" d="M640 392L709 483"/>
<path style="--d:10s;" pathLength="3333" clip-path="url(#z28378c10)" d="M501 514L516 562L459 637L248 803"/>
<path style="--d:11s;" pathLength="3333" clip-path="url(#z28378c11)" d="M461 662L486 710L468 838L481 883L625 758"/>
<path style="--d:12s;" pathLength="3333" clip-path="url(#z28378c12)" d="M731 503L745 562L633 640"/>
<path style="--d:13s;" pathLength="3333" clip-path="url(#z28378c13)" d="M534 588L783 782L942 795"/>
</svg>