<!--
AnimCJK 2016-2018 Copyright Francois Mizessyn, http://gooo.free.fr/animCJK/
Derived from:
    MakeMeAHanzi project - https://github.com/skishore/makemeahanzi
    Arphic PL KaitiM GB - https://apps.ubuntu.com/cat/applications/precise/fonts-arphic-gkai00mp/
    Arphic PL UKai - https://apps.ubuntu.com/cat/applications/fonts-arphic-ukai/
You can redistribute and/or modify this file under the terms of the Arphic Public License
as published by Arphic Technology Co., Ltd.
You should have received a copy of this license (the directory "APL") along with this file;
if not, see http://ftp.gnu.org/non-gnu/chinese-fonts-truetype/LICENSE.
-->
<svg id="z28395" class="acjk" version="1.1" viewBox="0 0 1024 1024" xmlns="http://www.w3.org/2000/svg" xmlns:xlink="http://www.w3.org/1999/xlink">
<style>
<![CDATA[
@keyframes z28395k {
	from {
		stroke:#ccc;
		stroke-dashoffset:3334;
	}
	1% {
		stroke:#c00;
		stroke-dashoffset:3334;
	}
	75% {
		stroke:#c00;
		stroke-dashoffset:0;
	}
	to {
		stroke:#000;
	}
}
#z28395 path[clip-path] {
	animation:z28395k 1s linear both;
	stroke-dasharray:3334;
	stroke-width:128;
	stroke-linecap:round;
	fill:none;
}
#z28395 path[clip-path="url(#z28395c1)"] {animation-delay:1s;}
#z28395 path[clip-path="url(#z28395c2)"] {animation-delay:2s;}
#z28395 path[clip-path="url(#z28395c3)"] {animation-delay:3s;}
#z28395 path[clip-path="url(#z28395c4)"] {animation-delay:4s;}
#z28395 path[clip-path="url(#z28395c5)"] {animation-delay:5s;}
#z28395 path[clip-path="url(#z28395c6)"] {animation-delay:6s;}
#z28395 path[clip-path="url(#z28395c7)"] {animation-delay:7s;}
#z28395 path[clip-path="url(#z28395c8)"] {animation-delay:8s;}
#z28395 path[clip-path="url(#z28395c9)"] {animation-delay:9s;}
#z28395 path[clip-path="url(#z28395c10)"] {animation-delay:10s;}
#z28395 path[clip-path="url(#z28395c11)"] {animation-delay:11s;}
#z28395 path[clip-path="url(#z28395c12)"] {animation-delay:12s;}
#z28395 path[clip-path="url(#z28395c13)"] {animation-delay:13s;}
#z28395 path[clip-path="url(#z28395c14)"] {animation-delay:14s;}
#z28395 path {fill:#ccc;}
]]>
</style>
<path id="z28395d1" d="M 259,262 C 247,259 242,255 223,234 214,225 198,208 186,196 174,184 164,173 162,170 158,162 159,151 164,148 166,147 179,147 188,149 200,151 232,163 247,170 277,184 284,195 285,231 286,245 286,247 283,252 278,262 270,265 259,262 Z"/>
<path id="z28395d2" d="M 163,488 C 147,481 129,463 99,424 85,406 81,398 81,388 81,383 81,382 85,379 92,375 100,377 123,386 167,405 182,415 190,433 196,445 198,455 196,465 193,479 189,485 180,489 174,491 169,491 163,488 Z"/>
<path id="z28395d3" d="M 106,913 C 105,913 99,908 95,904 82,891 73,872 65,838 59,812 60,802 69,797 78,793 95,780 105,770 110,764 121,750 131,735 183,661 238,586 254,568 263,558 269,554 272,555 274,556 274,565 272,571 271,573 259,596 247,622 180,755 138,848 130,882 124,906 123,909 120,912 117,915 111,915 106,913 Z"/>
<path id="z28395d4" d="M 303,431 C 290,448 241,496 226,505 221,509 218,510 213,510 208,510 207,509 206,507 205,504 208,498 214,492 222,483 254,442 272,417 293,389 323,342 338,318 358,283 384,229 394,203 397,192 397,180 392,166 388,153 387,147 391,143 398,134 428,144 448,163 454,168 461,175 464,179 468,184 468,185 468,192 468,201 467,205 457,215 449,224 438,243 429,258 407,295 367,354 329,401 Z"/>
<path id="z28395d5" d="M 328,922 C 318,915 304,886 300,861 296,840 296,828 302,804 316,748 324,695 328,637 328,631 329,602 330,571 331,498 331,491 314,454 311,446 307,439 303,431 L 329,401 C 337,410 345,418 354,427 370,443 380,455 381,457 384,463 384,477 382,485 376,511 372,602 370,769 368,859 367,871 358,898 350,922 340,930 328,922 Z"/>
<path id="z28395d6" d="M 455,617 C 447,606 441,593 440,583 439,579 439,575 439,575 441,572 443,513 443,483 443,432 440,404 432,376 430,369 428,361 428,360 428,358 430,355 432,353 435,350 437,350 441,350 446,350 450,351 464,358 473,363 482,368 484,371 489,376 490,382 488,391 485,405 484,438 485,489 486,555 484,588 477,610 474,621 471,625 465,625 461,625 460,624 455,617 Z"/>
<path id="z28395d7" d="M 608,76 C 596,76 593,83 599,96 603,106 602,125 598,143 586,189 558,246 518,310 510,322 503,334 503,334 502,335 502,337 503,339 504,343 509,343 517,339 524,336 554,313 576,283 L 588,265 C 596,255 605,241 613,227 L 630,197 C 638,184 657,150 666,140 673,132 675,130 675,123 675,116 672,111 664,104 651,91 636,82 620,78 616,76 612,76 608,76 Z"/>
<path id="z28395d8" d="M 613,227 C 613,227 618,229 621,230 641,235 680,239 702,233 L 745,222 C 760,217 783,211 810,205 842,197 849,193 853,185 854,181 854,180 853,177 849,168 839,162 821,158 804,154 784,155 764,163 750,168 727,177 706,181 681,187 630,197 630,197 Z"/>
<path id="z28395d9" d="M 651,345 C 633,377 582,436 527,470 521,474 515,479 514,481 510,485 510,490 515,491 519,492 529,491 538,488 556,482 591,462 612,446 632,431 671,390 684,372 L 708,339 C 719,325 728,310 739,295 743,289 752,278 758,272 763,267 769,261 769,259 770,254 763,236 745,222 L 702,233 C 701,259 675,303 667,317 Z"/>
<path id="z28395d10" d="M 576,283 C 591,296 626,325 651,345 L 684,372 C 724,403 799,457 807,460 819,465 834,466 854,464 874,461 901,457 920,452 942,447 978,436 982,433 987,430 987,425 983,423 981,422 970,419 957,416 904,404 835,388 793,374 754,362 730,351 708,339 L 667,317 C 657,311 603,276 588,265 Z"/>
<path id="z28395d11" d="M 591,540 C 589,564 584,599 584,618 L 583,647 C 582,666 577,700 576,721 L 573,750 C 567,833 553,893 535,911 528,919 523,921 519,918 506,908 495,892 495,864 495,853 500,838 505,826 516,799 524,777 534,727 549,644 548,578 529,522 525,509 524,505 525,503 529,494 552,497 575,511 Z"/>
<path id="z28395d12" d="M 759,979 C 750,975 743,967 728,943 719,931 704,909 693,895 683,881 673,869 673,868 672,866 672,865 673,864 676,861 679,862 696,869 717,879 736,885 743,884 754,884 754,883 754,844 755,780 750,684 740,576 737,545 735,536 732,529 724,514 717,512 679,521 660,526 611,538 591,540 L 575,511 C 624,503 670,492 704,476 720,469 722,468 729,468 750,468 800,494 808,509 810,513 809,519 804,529 799,539 797,549 796,573 793,620 800,727 817,851 820,878 820,889 818,901 815,918 806,941 795,956 787,969 778,979 775,981 770,983 765,982 759,979 Z"/>
<path id="z28395d13" d="M 584,618 C 588,616 593,615 598,613 627,604 656,598 673,603 685,606 694,610 699,616 708,625 703,631 684,634 670,637 589,647 583,647 Z"/>
<path id="z28395d14" d="M 576,721 C 605,711 656,703 673,709 686,713 699,721 702,728 703,732 703,733 702,735 701,737 698,739 696,739 681,743 611,746 573,750 Z"/>
<defs>
	<clipPath id="z28395c1"><use xlink:href="#z28395d1"/></clipPath>
	<clipPath id="z28395c2"><use xlink:href="#z28395d2"/></clipPath>
	<clipPath id="z28395c3"><use xlink:href="#z28395d3"/></clipPath>
	<clipPath id="z28395c4"><use xlink:href="#z28395d4"/></clipPath>
	<clipPath id="z28395c5"><use xlink:href="#z28395d5"/></clipPath>
	<clipPath id="z28395c6"><use xlink:href="#z28395d6"/></clipPath>
	<clipPath id="z28395c7"><use xlink:href="#z28395d7"/></clipPath>
	<clipPath id="z28395c8"><use xlink:href="#z28395d8"/></clipPath>
	<clipPath id="z28395c9"><use xlink:href="#z28395d9"/></clipPath>
	<clipPath id="z28395c10"><use xlink:href="#z28395d10"/></clipPath>
	<clipPath id="z28395c11"><use xlink:href="#z28395d11"/></clipPath>
	<clipPath id="z28395c12"><use xlink:href="#z28395d12"/></clipPath>
	<clipPath id="z28395c13"><use xlink:href="#z28395d13"/></clipPath>
	<clipPath id="z28395c14"><use xlink:href="#z28395d14"/></clipPath>
</defs>
<path pathLength="3333" clip-path="url(#z28395c1)" d="M 167,161 237,188 270,255"/>
<path pathLength="3333" clip-path="url(#z28395c2)" d="M 90,389 180,480"/>
<path pathLength="3333" clip-path="url(#z28395c3)" d="M 116,904 93,826 267,568"/>
<path pathLength="3333" clip-path="url(#z28395c4)" d="M 399,146 439,193 263,458 214,505"/>
<path pathLength="3333" clip-path="url(#z28395c5)" d="M 330,411 351,479 337,917"/>
<path pathLength="3333" clip-path="url(#z28395c6)" d="M 436,359 468,400 468,612"/>
<path pathLength="3333" clip-path="url(#z28395c7)" d="M 606,80 643,132 511,335"/>
<path pathLength="3333" clip-path="url(#z28395c8)" d="M 621,224 844,181"/>
<path pathLength="3333" clip-path="url(#z28395c9)" d="M 713,238 732,267 665,370 523,484"/>
<path pathLength="3333" clip-path="url(#z28395c10)" d="M 592,276 830,431 971,429"/>
<path pathLength="3333" clip-path="url(#z28395c11)" d="M 534,508 572,552 543,828 530,904"/>
<path pathLength="3333" clip-path="url(#z28395c12)" d="M 593,515 729,491 778,515 783,926 764,944 679,868"/>
<path pathLength="3333" clip-path="url(#z28395c13)" d="M 590,627 697,622"/>
<path pathLength="3333" clip-path="url(#z28395c14)" d="M 584,727 698,733"/>
</svg>