<!--
AnimCJK 2016-2018 Copyright Francois Mizessyn - https://github.com/parsimonhi/animCJK
Derived from:
    MakeMeAHanzi project - https://github.com/skishore/makemeahanzi
    Arphic PL KaitiM GB - https://apps.ubuntu.com/cat/applications/precise/fonts-arphic-gkai00mp/
    Arphic PL UKai - https://apps.ubuntu.com/cat/applications/fonts-arphic-ukai/
You can redistribute and/or modify this file under the terms of the Arphic Public License
as published by Arphic Technology Co., Ltd.
You should have received a copy of this license (the directory "APL") along with this file;
if not, see http://ftp.gnu.org/non-gnu/chinese-fonts-truetype/LICENSE.
-->
<svg id="z28452" class="acjk" version="1.1" viewBox="0 0 1024 1024" xmlns="http://www.w3.org/2000/svg" xmlns:xlink="http://www.w3.org/1999/xlink">
<style>
<![CDATA[
@keyframes z28452k {
	from {
		stroke:#ccc;
		stroke-dashoffset:3334;
	}
	1% {
		stroke:#c00;
		stroke-dashoffset:3334;
	}
	75% {
		stroke:#c00;
		stroke-dashoffset:0;
	}
	to {
		stroke:#000;
	}
}
#z28452 path[clip-path] {
	animation:z28452k 1s linear both;
	stroke-dasharray:3334;
	stroke-width:128;
	stroke-linecap:round;
	fill:none;
}
#z28452 path[clip-path="url(#z28452c1)"] {animation-delay:1s;}
#z28452 path[clip-path="url(#z28452c2)"] {animation-delay:2s;}
#z28452 path[clip-path="url(#z28452c3)"] {animation-delay:3s;}
#z28452 path[clip-path="url(#z28452c4)"] {animation-delay:4s;}
#z28452 path[clip-path="url(#z28452c5)"] {animation-delay:5s;}
#z28452 path[clip-path="url(#z28452c6)"] {animation-delay:6s;}
#z28452 path[clip-path="url(#z28452c7)"] {animation-delay:7s;}
#z28452 path[clip-path="url(#z28452c8)"] {animation-delay:8s;}
#z28452 path[clip-path="url(#z28452c9)"] {animation-delay:9s;}
#z28452 path[clip-path="url(#z28452c10)"] {animation-delay:10s;}
#z28452 path[clip-path="url(#z28452c11)"] {animation-delay:11s;}
#z28452 path[clip-path="url(#z28452c12)"] {animation-delay:12s;}
#z28452 path[clip-path="url(#z28452c13)"] {animation-delay:13s;}
#z28452 path[clip-path="url(#z28452c14)"] {animation-delay:14s;}
#z28452 path {fill:#ccc;}
]]>
</style>
<path id="z28452d1" d="M204 218Q228 242 253 270Q268 286 286 286Q298 286 304 271Q311 255 302 220Q298 201 266 185Q194 154 176 161Q170 165 171 180Q175 193 204 218Z"/>
<path id="z28452d2" d="M117 409Q171 463 205 476Q221 477 231 464Q237 449 233 432Q218 390 129 367Q111 363 101 367Q94 368 98 382Q99 395 117 409Z"/>
<path id="z28452d3" d="M126 734Q113 738 116 756Q134 832 169 852Q176 859 187 856Q194 855 195 828Q199 777 290 529Q297 513 295 506Q294 496 285 503Q270 512 170 683Q149 714 126 734Z"/>
<path id="z28452d4" d="M491 295Q573 271 576 268Q583 261 579 254Q572 244 547 239Q522 236 496 248C469 258 469 258 456 263Q443 266 431 270Q394 280 350 287Q319 294 342 308Q375 326 428 311Q431 310 438 309C473 300 473 300 491 295Z"/>
<path id="z28452d5" d="M488 325Q489 309 491 295C494 264 494 264 496 248Q502 196 515 172Q521 165 511 153Q492 138 469 128Q454 121 443 126Q431 130 436 142Q454 172 456 263C455 327 455 327 454 359Q453 414 446 439Q445 448 459 483Q466 496 479 489Q491 480 488 398Q487 371 488 347C488 332 488 332 488 325Z"/>
<path id="z28452d6" d="M438 309Q408 370 316 477Q312 486 320 487Q324 488 333 481Q402 439 454 359C479 317 460 265 438 309Z"/>
<path id="z28452d7" d="M488 347Q531 395 550 395Q560 395 564 382Q565 372 557 357Q550 345 530 339Q502 326 489 325Q488 324 488 325C481 324 484 341 488 347Z"/>
<path id="z28452d8" d="M722 273Q836 245 840 242Q847 235 843 227Q836 217 809 210Q790 207 726 228C701 235 701 235 688 239Q654 245 619 250Q586 257 610 271Q632 281 670 283C705 276 705 276 722 273Z"/>
<path id="z28452d9" d="M721 275Q721 274 722 273C725 243 725 243 726 228Q729 165 749 131Q755 122 744 111Q725 95 700 85Q685 78 673 82Q661 86 667 99Q686 132 688 239C687 304 687 304 686 336Q683 400 677 429Q676 441 690 475Q699 488 712 481Q724 471 720 382Q719 345 720 310C721 287 721 287 721 275Z"/>
<path id="z28452d10" d="M670 283Q640 352 556 454Q552 461 560 463Q564 464 573 457Q642 409 686 336C712 293 688 237 670 283Z"/>
<path id="z28452d11" d="M720 310Q766 373 825 440Q838 452 859 450Q950 440 956 431Q956 428 947 423Q847 383 781 329Q754 305 721 275C713 267 713 301 720 310Z"/>
<path id="z28452d12" d="M612 800Q667 839 741 906Q765 928 782 928Q804 929 805 910Q806 889 780 843Q768 813 643 758C612 744 612 744 597 737Q551 716 517 705Q496 699 509 680Q540 629 554 608C571 581 571 581 579 567Q591 555 590 548Q586 535 550 504Q540 494 529 497Q516 498 522 515Q529 539 520 561Q517 568 514 577C503 603 503 603 498 616Q479 655 461 678Q451 696 452 708Q455 718 471 723Q528 741 572 773C599 791 599 791 612 800Z"/>
<path id="z28452d13" d="M572 773Q497 857 381 890Q366 894 377 901Q389 905 423 902Q469 898 508 879Q550 861 612 800C633 772 633 772 643 758Q688 668 714 642Q727 629 715 616Q703 600 693 592C681 583 647 581 647 596Q648 612 644 630Q628 685 597 737C580 761 580 761 572 773Z"/>
<path id="z28452d14" d="M693 592Q762 586 876 587Q895 587 900 578Q904 568 888 554Q837 518 801 526Q725 544 591 565Q584 565 579 567C536 574 536 574 514 577Q427 587 332 602Q311 605 327 621Q340 634 358 639Q379 643 394 639Q443 624 498 616C535 611 535 611 554 608Q569 602 647 596C678 593 678 593 693 592Z"/>
<defs>
	<clipPath id="z28452c1"><use xlink:href="#z28452d1"></use></clipPath>
	<clipPath id="z28452c2"><use xlink:href="#z28452d2"></use></clipPath>
	<clipPath id="z28452c3"><use xlink:href="#z28452d3"></use></clipPath>
	<clipPath id="z28452c4"><use xlink:href="#z28452d4"></use></clipPath>
	<clipPath id="z28452c5"><use xlink:href="#z28452d5"></use></clipPath>
	<clipPath id="z28452c6"><use xlink:href="#z28452d6"></use></clipPath>
	<clipPath id="z28452c7"><use xlink:href="#z28452d7"></use></clipPath>
	<clipPath id="z28452c8"><use xlink:href="#z28452d8"></use></clipPath>
	<clipPath id="z28452c9"><use xlink:href="#z28452d9"></use></clipPath>
	<clipPath id="z28452c10"><use xlink:href="#z28452d10"></use></clipPath>
	<clipPath id="z28452c11"><use xlink:href="#z28452d11"></use></clipPath>
	<clipPath id="z28452c12"><use xlink:href="#z28452d12"></use></clipPath>
	<clipPath id="z28452c13"><use xlink:href="#z28452d13"></use></clipPath>
	<clipPath id="z28452c14"><use xlink:href="#z28452d14"></use></clipPath>
</defs>
<path pathLength="3333" clip-path="url(#z28452c1)" d="M178 168L262 225L290 280"/>
<path pathLength="3333" clip-path="url(#z28452c2)" d="M102 374L228 459"/>
<path pathLength="3333" clip-path="url(#z28452c3)" d="M181 852L162 755L289 509"/>
<path pathLength="3333" clip-path="url(#z28452c4)" d="M337 296L573 259"/>
<path pathLength="3333" clip-path="url(#z28452c5)" d="M442 130L482 172L468 486"/>
<path pathLength="3333" clip-path="url(#z28452c6)" d="M450 313L324 480"/>
<path pathLength="3333" clip-path="url(#z28452c7)" d="M494 336L558 387"/>
<path pathLength="3333" clip-path="url(#z28452c8)" d="M607 258L839 228"/>
<path pathLength="3333" clip-path="url(#z28452c9)" d="M673 88L715 135L707 478"/>
<path pathLength="3333" clip-path="url(#z28452c10)" d="M680 288L637 376L563 456"/>
<path pathLength="3333" clip-path="url(#z28452c11)" d="M723 286L850 416L948 430"/>
<path pathLength="3333" clip-path="url(#z28452c12)" d="M529 507L556 552L480 705L705 827L797 919"/>
<path pathLength="3333" clip-path="url(#z28452c13)" d="M653 601L680 638L594 784L510 855L385 897"/>
<path pathLength="3333" clip-path="url(#z28452c14)" d="M327 611L808 556L896 566"/>
</svg>