<!--
AnimCJK 2016-2026 Copyright FM-SH - https://github.com/parsimonhi/animCJK
Derived from:
    MakeMeAHanzi project - https://github.com/skishore/makemeahanzi
    Arphic PL KaitiM GB font
    Arphic PL KaitiM Big5 font
You can redistribute and/or modify this file under the terms of the Arphic Public License
as published by Arphic Technology Co., Ltd.
You should have received a copy of this license along with this file.
If not, see https://ftp.gnu.org/non-gnu/chinese-fonts-truetype/LICENSE.
-->
<svg id="z28478" class="acjk" viewBox="0 0 1024 1024" xmlns="http://www.w3.org/2000/svg">
<style>
<![CDATA[
@keyframes zk {
	to {
		stroke-dashoffset:0;
	}
}
svg.acjk path[clip-path] {
	--t:0.8s;
	animation:zk var(--t) linear forwards var(--d);
	stroke-dasharray:3337;
	stroke-dashoffset:3339;
	stroke-width:128;
	stroke-linecap:round;
	fill:none;
	stroke:#000;
}
svg.acjk path[id] {fill:#ccc;}
]]>
</style>
<path id="z28478d1" d="M206 183C225 198 244 216 265 235C274 243 285 247 297 247C324 244 311 198 307 185C299 164 263 146 199 133C188 130 180 130 176 133C171 135 170 141 173 151C175 157 187 167 206 183Z"/>
<path id="z28478d2" d="M120 403C151 429 178 452 207 459C226 463 239 440 230 412C224 395 213 383 199 377C157 358 124 354 101 362C100 362 100 362 100 363C96 365 95 369 98 378C100 386 109 393 120 403Z"/>
<path id="z28478d3" d="M110 757C102 761 97 766 99 778C106 828 123 854 147 868C148 868 169 880 173 846C175 817 212 721 281 552C286 537 296 496 262 545C243 572 205 629 150 716C141 729 129 745 110 757Z"/>
<path id="z28478d4" d="M436 107C470 146 494 167 509 167C538 166 529 130 520 116C506 94 477 83 441 80C434 79 430 82 430 90C429 96 431 101 436 107Z"/>
<path id="z28478d5" d="M582 163C575 173 579 180 589 175C675 124 694 107 715 94C749 72 698 47 687 41C657 25 647 29 647 46C645 77 613 116 582 163Z"/>
<path id="z28478d6" d="M565 229C603 221 642 215 683 208C715 202 733 196 738 192C754 176 726 165 712 161C698 156 663 165 608 179C532 197 464 206 405 213C384 215 379 224 395 232C436 253 483 244 527 236C552 231 552 231 565 229Z"/>
<path id="z28478d7" d="M582 335C604 331 642 320 697 316C706 315 727 303 695 288C665 273 616 287 585 295C552 302 552 302 536 306C512 311 465 316 419 323C402 325 401 331 414 341C453 368 493 350 536 343C567 338 567 338 582 335Z"/>
<path id="z28478d8" d="M577 402C577 378 580 355 582 335C584 308 584 308 585 295C588 250 605 256 565 229C554 222 522 224 527 236C531 244 534 267 536 306C537 329 536 330 536 343C536 361 536 383 537 409C537 423 577 416 577 402Z"/>
<path id="z28478d9" d="M537 409C476 419 411 430 343 440C330 441 327 447 338 457C365 483 382 478 400 473C503 442 635 429 794 428C822 427 823 410 805 397C769 371 734 368 700 378C665 386 624 393 577 402C550 407 550 407 537 409Z"/>
<path id="z28478d10" d="M502 492C539 528 565 545 579 545C587 544 593 539 595 527C595 519 592 508 584 497C572 481 545 472 503 467C497 466 495 469 495 477C495 481 496 486 502 492Z"/>
<path id="z28478d11" d="M508 876C491 870 474 870 458 865C440 858 431 862 458 884C489 909 506 925 523 945C531 955 539 963 549 967C553 969 560 968 565 962C588 930 602 896 601 860C599 801 594 716 596 685C597 662 597 662 598 651C598 636 604 625 610 617C618 606 618 597 611 590C599 578 582 566 560 557C549 552 539 551 530 556C515 563 502 568 493 572C478 576 457 580 428 582C419 582 416 585 421 591C425 597 432 602 441 606C449 608 475 605 518 597C530 594 538 596 541 604C551 635 552 714 543 839C540 871 525 881 508 876Z"/>
<path id="z28478d12" d="M288 668C268 668 276 681 286 688C309 703 330 706 346 703C396 690 424 684 428 686C436 688 435 696 429 711C392 789 340 854 270 905C253 916 263 922 291 911C326 896 359 874 390 848C418 823 451 780 487 718C493 706 499 696 507 691C515 684 517 679 513 673C508 666 495 659 475 650C462 644 442 646 411 656C385 663 344 666 288 668Z"/>
<path id="z28478d13" d="M645 691C717 631 769 585 807 566C826 556 825 540 794 514C765 489 738 480 737 516C735 545 704 589 630 679C626 684 640 695 645 691Z"/>
<path id="z28478d14" d="M596 685C646 745 697 804 752 861C766 876 787 885 814 887C862 889 910 883 961 877C989 873 985 863 968 857C840 810 751 769 700 733C682 720 664 706 645 691C635 683 635 683 630 679C616 668 606 657 598 651C589 644 589 676 596 685Z"/>
<defs>
	<clipPath id="z28478c1"><use href="#z28478d1"/></clipPath>
	<clipPath id="z28478c2"><use href="#z28478d2"/></clipPath>
	<clipPath id="z28478c3"><use href="#z28478d3"/></clipPath>
	<clipPath id="z28478c4"><use href="#z28478d4"/></clipPath>
	<clipPath id="z28478c5"><use href="#z28478d5"/></clipPath>
	<clipPath id="z28478c6"><use href="#z28478d6"/></clipPath>
	<clipPath id="z28478c7"><use href="#z28478d7"/></clipPath>
	<clipPath id="z28478c8"><use href="#z28478d8"/></clipPath>
	<clipPath id="z28478c9"><use href="#z28478d9"/></clipPath>
	<clipPath id="z28478c10"><use href="#z28478d10"/></clipPath>
	<clipPath id="z28478c11"><use href="#z28478d11"/></clipPath>
	<clipPath id="z28478c12"><use href="#z28478d12"/></clipPath>
	<clipPath id="z28478c13"><use href="#z28478d13"/></clipPath>
	<clipPath id="z28478c14"><use href="#z28478d14"/></clipPath>
</defs>
<path style="--d:1s;" pathLength="3333" clip-path="url(#z28478c1)" d="M177 142L272 194L298 243"/>
<path style="--d:2s;" pathLength="3333" clip-path="url(#z28478c2)" d="M101 369L226 448"/>
<path style="--d:3s;" pathLength="3333" clip-path="url(#z28478c3)" d="M101 766L154 808L280 527"/>
<path style="--d:4s;" pathLength="3333" clip-path="url(#z28478c4)" d="M437 85L517 160"/>
<path style="--d:5s;" pathLength="3333" clip-path="url(#z28478c5)" d="M655 37L679 84L585 172"/>
<path style="--d:6s;" pathLength="3333" clip-path="url(#z28478c6)" d="M392 220L736 179"/>
<path style="--d:7s;" pathLength="3333" clip-path="url(#z28478c7)" d="M414 331L707 303"/>
<path style="--d:8s;" pathLength="3333" clip-path="url(#z28478c8)" d="M533 230L562 260L554 414"/>
<path style="--d:9s;" pathLength="3333" clip-path="url(#z28478c9)" d="M340 449L716 402L812 413"/>
<path style="--d:10s;" pathLength="3333" clip-path="url(#z28478c10)" d="M502 472L586 536"/>
<path style="--d:11s;" pathLength="3333" clip-path="url(#z28478c11)" d="M428 588L538 575L579 607L565 885L539 922L450 867"/>
<path style="--d:12s;" pathLength="3333" clip-path="url(#z28478c12)" d="M283 677L473 682L379 830L270 912"/>
<path style="--d:13s;" pathLength="3333" clip-path="url(#z28478c13)" d="M749 499L770 555L634 682"/>
<path style="--d:14s;" pathLength="3333" clip-path="url(#z28478c14)" d="M597 661L792 835L975 865"/>
</svg>