<!--
AnimCJK 2016-2018 Copyright Francois Mizessyn, http://gooo.free.fr/animCJK/
Derived from:
    MakeMeAHanzi project - https://github.com/skishore/makemeahanzi
    Arphic PL KaitiM GB - https://apps.ubuntu.com/cat/applications/precise/fonts-arphic-gkai00mp/
    Arphic PL UKai - https://apps.ubuntu.com/cat/applications/fonts-arphic-ukai/
You can redistribute and/or modify this file under the terms of the Arphic Public License
as published by Arphic Technology Co., Ltd.
You should have received a copy of this license (the directory "APL") along with this file;
if not, see http://ftp.gnu.org/non-gnu/chinese-fonts-truetype/LICENSE.
-->
<svg id="z28487" class="acjk" version="1.1" viewBox="0 0 1024 1024" xmlns="http://www.w3.org/2000/svg" xmlns:xlink="http://www.w3.org/1999/xlink">
<style>
<![CDATA[
@keyframes z28487k {
	from {
		stroke:#ccc;
		stroke-dashoffset:3334;
	}
	1% {
		stroke:#c00;
		stroke-dashoffset:3334;
	}
	75% {
		stroke:#c00;
		stroke-dashoffset:0;
	}
	to {
		stroke:#000;
	}
}
#z28487 path[clip-path] {
	animation:z28487k 1s linear both;
	stroke-dasharray:3334;
	stroke-width:128;
	stroke-linecap:round;
	fill:none;
}
#z28487 path[clip-path="url(#z28487c1)"] {animation-delay:1s;}
#z28487 path[clip-path="url(#z28487c2)"] {animation-delay:2s;}
#z28487 path[clip-path="url(#z28487c3)"] {animation-delay:3s;}
#z28487 path[clip-path="url(#z28487c4)"] {animation-delay:4s;}
#z28487 path[clip-path="url(#z28487c5)"] {animation-delay:5s;}
#z28487 path[clip-path="url(#z28487c6)"] {animation-delay:6s;}
#z28487 path[clip-path="url(#z28487c7)"] {animation-delay:7s;}
#z28487 path[clip-path="url(#z28487c8)"] {animation-delay:8s;}
#z28487 path[clip-path="url(#z28487c9)"] {animation-delay:9s;}
#z28487 path[clip-path="url(#z28487c10)"] {animation-delay:10s;}
#z28487 path[clip-path="url(#z28487c11)"] {animation-delay:11s;}
#z28487 path[clip-path="url(#z28487c12)"] {animation-delay:12s;}
#z28487 path[clip-path="url(#z28487c13)"] {animation-delay:13s;}
#z28487 path[clip-path="url(#z28487c14)"] {animation-delay:14s;}
#z28487 path {fill:#ccc;}
]]>
</style>
<path id="z28487d1" d="M209 198Q239 226 269 258Q282 273 299 273Q311 273 317 259Q323 244 315 212Q305 175 207 147Q191 143 184 145Q178 149 179 162Q183 174 209 198 Z"/>
<path id="z28487d2" d="M108 387Q153 453 188 471Q204 475 215 463Q222 450 222 432Q213 381 126 348Q108 341 98 344Q91 344 93 358Q93 371 108 387 Z"/>
<path id="z28487d3" d="M112 769Q102 773 103 790Q115 859 150 879Q157 886 167 883Q174 882 175 858Q184 806 281 555Q288 539 287 534Q286 524 277 530Q268 536 153 726Q140 748 112 769 Z"/>
<path id="z28487d4" d="M678 190Q732 180 830 186Q843 187 847 179Q851 169 840 157Q794 120 702 145Q699 145 698 146L646 156Q580 165 506 177L464 182Q415 186 364 194Q339 197 357 210Q393 234 464 218Q468 217 473 217L508 208Q562 196 636 193L678 190 Z"/>
<path id="z28487d5" d="M506 177Q505 153 505 134Q506 118 489 112Q456 94 437 101Q422 108 435 125Q456 150 464 182L473 217Q477 248 493 266Q503 275 508 265Q512 249 508 208L506 177 Z"/>
<path id="z28487d6" d="M698 146Q705 130 718 112Q730 99 721 91Q711 76 682 60Q669 51 653 59Q644 63 650 74Q659 95 646 156L636 193Q624 230 623 254Q624 267 638 257Q651 245 678 190L698 146 Z"/>
<path id="z28487d7" d="M715 486L715 485Q724 451 731 428L751 381Q761 365 772 355Q787 339 773 322Q713 274 678 289Q639 302 604 313L561 322Q494 335 421 342Q406 343 407 352Q410 359 426 365Q448 375 480 366Q520 359 561 352L599 345Q624 339 653 335Q675 331 684 339Q693 346 689 393L683 431Q677 456 672 482L715 486 Z"/>
<path id="z28487d8" d="M731 428Q780 424 837 424Q900 424 907 415Q911 405 897 393Q846 354 787 373Q769 376 751 381L689 393Q644 399 597 408L560 415Q436 431 291 452Q272 453 286 469Q299 482 315 486Q334 490 348 486Q489 444 560 444L596 439Q635 433 683 431L731 428 Z"/>
<path id="z28487d9" d="M595 536Q653 529 731 522Q741 521 743 513Q743 504 715 486L672 482Q669 481 667 482Q630 489 596 499L558 506Q491 518 431 525Q410 526 423 544Q430 553 440 557Q450 560 463 557Q500 548 557 541L595 536 Z"/>
<path id="z28487d10" d="M549 940Q553 962 559 970Q563 976 570 973Q577 970 581 958Q600 898 596 740Q593 688 595 536L596 499Q596 471 596 439L597 408Q597 392 598 377Q598 358 599 345L604 313Q608 295 611 281Q614 266 602 258Q574 240 562 237Q552 233 538 241Q531 248 536 256Q557 292 561 322L561 352Q560 380 560 415L560 444Q559 472 558 506L557 541Q545 895 549 940 Z"/>
<path id="z28487d11" d="M460 647Q461 650 463 655Q470 662 458 732Q445 793 410 843Q406 847 404 851Q403 858 409 857Q451 850 487 761Q502 722 508 691Q514 664 514 662Q504 650 485 639Q473 632 464 634Q457 638 460 647 Z"/>
<path id="z28487d12" d="M640 644Q668 692 700 759Q707 778 719 785Q725 788 733 782Q746 775 746 739Q747 696 648 620Q642 614 637 623Q634 633 640 644 Z"/>
<path id="z28487d13" d="M342 596Q364 632 345 765Q338 792 325 822Q307 867 259 909Q246 919 244 925Q243 931 252 931Q282 931 327 888Q390 822 406 647Q410 631 411 620Q417 604 399 594Q359 572 346 574Q328 577 342 596 Z"/>
<path id="z28487d14" d="M754 543Q794 640 765 877Q756 922 788 959Q798 969 806 958Q830 925 827 864Q823 855 821 682Q820 627 825 571Q832 549 812 538Q796 528 779 520Q767 516 758 522Q751 528 754 543 Z"/>
<defs>
	<clipPath id="z28487c1"><use xlink:href="#z28487d1"/></clipPath>
	<clipPath id="z28487c2"><use xlink:href="#z28487d2"/></clipPath>
	<clipPath id="z28487c3"><use xlink:href="#z28487d3"/></clipPath>
	<clipPath id="z28487c4"><use xlink:href="#z28487d4"/></clipPath>
	<clipPath id="z28487c5"><use xlink:href="#z28487d5"/></clipPath>
	<clipPath id="z28487c6"><use xlink:href="#z28487d6"/></clipPath>
	<clipPath id="z28487c7"><use xlink:href="#z28487d7"/></clipPath>
	<clipPath id="z28487c8"><use xlink:href="#z28487d8"/></clipPath>
	<clipPath id="z28487c9"><use xlink:href="#z28487d9"/></clipPath>
	<clipPath id="z28487c10"><use xlink:href="#z28487d10"/></clipPath>
	<clipPath id="z28487c11"><use xlink:href="#z28487d11"/></clipPath>
	<clipPath id="z28487c12"><use xlink:href="#z28487d12"/></clipPath>
	<clipPath id="z28487c13"><use xlink:href="#z28487d13"/></clipPath>
	<clipPath id="z28487c14"><use xlink:href="#z28487d14"/></clipPath>
</defs>
<path pathLength="3333" clip-path="url(#z28487c1)" d="M186 153L280 218L300 269"/>
<path pathLength="3333" clip-path="url(#z28487c2)" d="M100 352L207 464"/>
<path pathLength="3333" clip-path="url(#z28487c3)" d="M163 879L147 790L279 535"/>
<path pathLength="3333" clip-path="url(#z28487c4)" d="M359 200L738 160L843 172"/>
<path pathLength="3333" clip-path="url(#z28487c5)" d="M436 111L479 142L496 265"/>
<path pathLength="3333" clip-path="url(#z28487c6)" d="M654 64L688 107L632 256"/>
<path pathLength="3333" clip-path="url(#z28487c7)" d="M415 349L702 315L734 353L686 482"/>
<path pathLength="3333" clip-path="url(#z28487c8)" d="M288 458L335 467L804 396L903 403"/>
<path pathLength="3333" clip-path="url(#z28487c9)" d="M426 534L738 510"/>
<path pathLength="3333" clip-path="url(#z28487c10)" d="M540 245L583 288L566 968"/>
<path pathLength="3333" clip-path="url(#z28487c11)" d="M467 639L488 671L479 725L410 851"/>
<path pathLength="3333" clip-path="url(#z28487c12)" d="M644 628L715 726L724 781"/>
<path pathLength="3333" clip-path="url(#z28487c13)" d="M342 580L381 619L360 786L315 875L251 924"/>
<path pathLength="3333" clip-path="url(#z28487c14)" d="M761 527L796 570L793 959"/>
</svg>