<!--
AnimCJK 2016-2019 Copyright Francois Mizessyn - https://github.com/parsimonhi/animCJK
Derived from:
    MakeMeAHanzi project - https://github.com/skishore/makemeahanzi
    Arphic PL KaitiM GB font
    Arphic PL UKai font
You can redistribute and/or modify this file under the terms of the Arphic Public License
as published by Arphic Technology Co., Ltd.
You should have received a copy of this license along with this file.
If not, see http://ftp.gnu.org/non-gnu/chinese-fonts-truetype/LICENSE.
-->
<svg id="z28491" class="acjk" version="1.1" viewBox="0 0 1024 1024" xmlns="http://www.w3.org/2000/svg" xmlns:xlink="http://www.w3.org/1999/xlink">
<style>
<![CDATA[
@keyframes zk {
	to {
		stroke-dashoffset:0;
	}
}
svg.acjk path[clip-path] {
	--t:0.8s;
	animation:zk var(--t) linear forwards var(--d);
	stroke-dasharray:3337;
	stroke-dashoffset:3339;
	stroke-width:128;
	stroke-linecap:round;
	fill:none;
	stroke:#000;
}
svg.acjk path[id] {fill:#ccc;}
]]>
</style>
<path id="z28491d1" d="M203 216Q228 241 255 270Q268 286 286 286Q298 286 305 271Q311 255 302 222Q298 201 266 186Q193 155 176 161Q170 165 171 179Q175 192 203 216Z"/>
<path id="z28491d2" d="M116 408Q158 453 191 467Q206 470 215 455Q221 442 217 425Q210 401 191 389Q134 356 102 367Q101 367 101 368Q94 369 98 382Q99 394 116 408Z"/>
<path id="z28491d3" d="M120 729Q108 733 110 750Q128 822 158 839Q165 846 175 843Q182 842 183 817Q186 784 269 551Q276 535 275 530Q274 520 265 527Q252 536 154 693Q144 711 120 729Z"/>
<path id="z28491d4" d="M473 236Q489 205 507 190Q516 180 511 166Q507 154 478 133Q453 115 434 116Q416 119 424 139Q436 163 416 217Q362 337 258 474Q248 484 246 490Q243 500 257 498Q309 489 450 276Q456 266 463 255C470 242 470 242 473 236Z"/>
<path id="z28491d5" d="M464 255Q510 292 567 345Q580 358 593 362Q599 362 604 354Q613 344 601 310Q585 265 473 236C466 235 457 251 463 255C464 255 464 255 464 255Z"/>
<path id="z28491d6" d="M353 451Q319 461 346 474Q388 492 441 475Q484 462 530 449Q551 442 554 439Q561 432 556 423Q549 413 519 408Q498 405 417 436Q387 445 353 451Z"/>
<path id="z28491d7" d="M307 642Q325 670 342 705Q349 717 359 720Q366 723 374 715Q381 706 382 683Q383 665 362 644Q341 625 315 608Q305 601 300 602Q296 603 294 613Q294 620 307 642Z"/>
<path id="z28491d8" d="M389 591Q420 661 441 670Q451 674 459 662Q463 652 461 635Q457 617 438 604Q411 579 398 572Q391 568 388 577Q385 583 389 591Z"/>
<path id="z28491d9" d="M495 737Q510 713 545 627Q554 605 570 576Q583 563 574 554Q564 539 534 525Q521 516 505 524Q496 528 503 539Q516 575 472 719Q466 734 466 746C466 756 489 745 495 737Z"/>
<path id="z28491d10" d="M466 746Q397 764 325 784Q307 788 278 788Q266 789 264 799Q263 811 271 819Q292 835 323 853Q333 856 345 848Q376 824 538 754Q560 744 577 732Q590 725 590 717Q586 711 573 713Q536 723 495 737C476 743 476 743 466 746Z"/>
<path id="z28491d11" d="M670 397Q736 262 747 238Q759 202 772 183Q779 173 772 160Q765 150 735 134Q707 122 690 126Q674 132 685 150Q725 204 600 458Q593 470 592 476Q591 486 604 482Q617 476 660 413C667 402 667 402 670 397Z"/>
<path id="z28491d12" d="M766 415Q886 373 887 371Q894 362 889 355Q880 345 851 341Q821 340 794 355Q769 367 742 377Q712 387 676 395Q672 395 670 397C664 399 654 411 660 413Q691 428 730 425C742 425 754 420 766 415Z"/>
<path id="z28491d13" d="M745 689Q778 616 796 485Q805 436 805 435Q798 426 766 415C754 411 728 413 730 425Q745 503 735 572Q732 584 730 598Q723 626 713 650C700 679 700 679 693 693Q654 760 550 820Q531 833 555 831Q598 834 669 786Q697 768 719 735C736 704 736 704 745 689Z"/>
<path id="z28491d14" d="M719 735Q750 783 799 843Q821 868 863 867Q917 867 956 868Q969 868 981 864Q988 860 979 849Q966 839 861 786Q810 761 745 689C724 663 724 663 713 650Q682 608 650 556Q635 531 606 522Q596 519 587 523Q583 527 589 536Q635 582 689 686Q690 689 693 693C710 721 710 721 719 735Z"/>
<defs>
	<clipPath id="z28491c1"><use xlink:href="#z28491d1"/></clipPath>
	<clipPath id="z28491c2"><use xlink:href="#z28491d2"/></clipPath>
	<clipPath id="z28491c3"><use xlink:href="#z28491d3"/></clipPath>
	<clipPath id="z28491c4"><use xlink:href="#z28491d4"/></clipPath>
	<clipPath id="z28491c5"><use xlink:href="#z28491d5"/></clipPath>
	<clipPath id="z28491c6"><use xlink:href="#z28491d6"/></clipPath>
	<clipPath id="z28491c7"><use xlink:href="#z28491d7"/></clipPath>
	<clipPath id="z28491c8"><use xlink:href="#z28491d8"/></clipPath>
	<clipPath id="z28491c9"><use xlink:href="#z28491d9"/></clipPath>
	<clipPath id="z28491c10"><use xlink:href="#z28491d10"/></clipPath>
	<clipPath id="z28491c11"><use xlink:href="#z28491d11"/></clipPath>
	<clipPath id="z28491c12"><use xlink:href="#z28491d12"/></clipPath>
	<clipPath id="z28491c13"><use xlink:href="#z28491d13"/></clipPath>
	<clipPath id="z28491c14"><use xlink:href="#z28491d14"/></clipPath>
</defs>
<path style="--d:1s;" pathLength="3333" clip-path="url(#z28491c1)" d="M178 165L261 224L289 281"/>
<path style="--d:2s;" pathLength="3333" clip-path="url(#z28491c2)" d="M103 372L205 461"/>
<path style="--d:3s;" pathLength="3333" clip-path="url(#z28491c3)" d="M170 839L155 746L270 532"/>
<path style="--d:4s;" pathLength="3333" clip-path="url(#z28491c4)" d="M429 125L470 177L349 382L253 491"/>
<path style="--d:5s;" pathLength="3333" clip-path="url(#z28491c5)" d="M470 252L569 309L594 355"/>
<path style="--d:6s;" pathLength="3333" clip-path="url(#z28491c6)" d="M344 462L549 433"/>
<path style="--d:7s;" pathLength="3333" clip-path="url(#z28491c7)" d="M302 610L367 715"/>
<path style="--d:8s;" pathLength="3333" clip-path="url(#z28491c8)" d="M393 579L449 663"/>
<path style="--d:9s;" pathLength="3333" clip-path="url(#z28491c9)" d="M507 530L539 572L473 741"/>
<path style="--d:10s;" pathLength="3333" clip-path="url(#z28491c10)" d="M269 799L330 818L581 721"/>
<path style="--d:11s;" pathLength="3333" clip-path="url(#z28491c11)" d="M688 134L734 186L601 478"/>
<path style="--d:12s;" pathLength="3333" clip-path="url(#z28491c12)" d="M667 409L884 361"/>
<path style="--d:13s;" pathLength="3333" clip-path="url(#z28491c13)" d="M736 428L770 455L731 665L669 759L549 825"/>
<path style="--d:14s;" pathLength="3333" clip-path="url(#z28491c14)" d="M595 531L815 803L977 858"/>
</svg>