<!--
AnimCJK 2016-2019 Copyright Francois Mizessyn - https://github.com/parsimonhi/animCJK
Derived from:
    MakeMeAHanzi project - https://github.com/skishore/makemeahanzi
    Arphic PL KaitiM GB font
    Arphic PL UKai font
You can redistribute and/or modify this file under the terms of the Arphic Public License
as published by Arphic Technology Co., Ltd.
You should have received a copy of this license along with this file.
If not, see http://ftp.gnu.org/non-gnu/chinese-fonts-truetype/LICENSE.
-->
<svg id="z28514" class="acjk" version="1.1" viewBox="0 0 1024 1024" xmlns="http://www.w3.org/2000/svg" xmlns:xlink="http://www.w3.org/1999/xlink">
<style>
<![CDATA[
@keyframes zk {
	to {
		stroke-dashoffset:0;
	}
}
svg.acjk path[clip-path] {
	--t:0.8s;
	animation:zk var(--t) linear forwards var(--d);
	stroke-dasharray:3337;
	stroke-dashoffset:3339;
	stroke-width:128;
	stroke-linecap:round;
	fill:none;
	stroke:#000;
}
svg.acjk path[id] {fill:#ccc;}
]]>
</style>
<path id="z28514d1" d="M211 181Q238 203 267 231Q283 244 300 243Q312 242 317 228Q321 212 310 179Q298 149 204 129Q186 125 180 129Q174 133 177 147Q181 160 211 181Z"/>
<path id="z28514d2" d="M113 389Q161 443 197 456Q213 457 223 443Q229 430 225 412Q213 373 125 347Q107 343 97 347Q90 348 94 362Q95 375 113 389Z"/>
<path id="z28514d3" d="M106 770Q93 774 96 792Q114 868 149 888Q156 895 167 892Q174 891 175 864Q181 818 278 549Q285 533 283 526Q282 516 273 523Q258 532 147 725Q134 747 106 770Z"/>
<path id="z28514d4" d="M687 248Q745 241 793 235Q803 236 812 225Q813 215 792 203Q767 184 700 200Q697 200 697 201C660 209 660 209 642 213Q629 214 616 218Q565 228 520 235C489 239 489 239 473 241Q428 242 381 249Q353 252 374 269Q401 291 447 285Q460 282 478 280C507 275 507 275 522 272Q574 262 638 253C671 250 671 250 687 248Z"/>
<path id="z28514d5" d="M520 235Q520 186 522 172Q523 150 510 139Q488 123 462 114Q449 110 440 115Q433 122 439 136Q460 169 473 241C476 267 476 267 478 280Q482 317 489 376C491 389 527 384 527 371Q523 314 522 272C521 247 521 247 520 235Z"/>
<path id="z28514d6" d="M664 351Q674 297 687 248C694 217 694 217 697 201Q697 195 724 114Q728 104 713 88Q683 67 662 60Q649 56 640 62Q633 68 637 82Q650 107 650 124Q647 167 642 213C639 240 639 240 638 253Q631 302 624 357C622 370 661 364 664 351Z"/>
<path id="z28514d7" d="M573 397Q694 379 919 379Q938 379 943 370Q949 360 932 346Q878 306 825 321Q759 334 664 351C637 355 637 355 624 357Q608 358 595 361Q561 365 527 371C502 374 502 374 489 376Q393 388 288 403Q267 404 283 421Q296 434 314 439Q333 445 350 440Q437 415 537 402C561 399 561 399 573 397Z"/>
<path id="z28514d8" d="M430 507Q418 500 384 496Q372 492 369 498Q362 504 371 520Q401 581 419 682Q422 713 440 733Q458 755 463 739Q464 732 466 721C466 707 466 707 466 700Q465 687 463 673Q445 576 440 541C438 529 441 512 430 507Z"/>
<path id="z28514d9" d="M689 706Q705 731 721 739Q731 746 746 726Q759 704 788 582Q797 551 820 526Q833 514 821 500Q806 484 764 458Q746 448 685 464Q658 465 605 477C570 483 570 483 553 486Q543 486 430 507C418 509 429 545 440 541Q439 540 442 540Q487 527 554 517C587 512 587 512 604 509Q710 491 726 505Q738 518 736 533Q712 671 694 681C687 686 684 699 689 706Z"/>
<path id="z28514d10" d="M600 606Q631 600 660 597Q681 594 673 583Q663 570 641 566Q625 563 601 569C570 578 570 578 554 582Q515 592 482 601Q467 604 486 617Q490 621 555 614C585 609 585 609 600 606Z"/>
<path id="z28514d11" d="M605 477Q605 474 606 472Q609 429 605 423Q589 407 573 397C563 391 533 391 537 402Q549 433 553 486C554 507 554 507 554 517Q554 542 554 582C555 603 555 603 555 614Q555 645 555 685C555 699 597 691 597 677Q598 640 600 606C601 581 601 581 601 569Q602 538 604 509C605 488 605 488 605 477Z"/>
<path id="z28514d12" d="M466 721Q476 725 496 725Q608 712 689 706C697 706 701 685 694 681Q685 674 672 671Q644 665 597 677C569 682 569 682 555 685Q509 691 466 700C459 701 460 718 466 721Z"/>
<path id="z28514d13" d="M470 771Q452 825 314 917Q292 929 319 929Q374 932 504 837Q523 821 536 814Q548 804 546 794Q545 781 521 770Q494 757 482 758Q475 759 470 771Z"/>
<path id="z28514d14" d="M655 803Q712 849 779 916Q797 935 813 939Q822 940 829 929Q841 916 825 871Q815 829 734 799Q682 780 654 771Q644 767 643 779Q643 792 655 803Z"/>
<defs>
	<clipPath id="z28514c1"><use xlink:href="#z28514d1"/></clipPath>
	<clipPath id="z28514c2"><use xlink:href="#z28514d2"/></clipPath>
	<clipPath id="z28514c3"><use xlink:href="#z28514d3"/></clipPath>
	<clipPath id="z28514c4"><use xlink:href="#z28514d4"/></clipPath>
	<clipPath id="z28514c5"><use xlink:href="#z28514d5"/></clipPath>
	<clipPath id="z28514c6"><use xlink:href="#z28514d6"/></clipPath>
	<clipPath id="z28514c7"><use xlink:href="#z28514d7"/></clipPath>
	<clipPath id="z28514c8"><use xlink:href="#z28514d8"/></clipPath>
	<clipPath id="z28514c9"><use xlink:href="#z28514d9"/></clipPath>
	<clipPath id="z28514c10"><use xlink:href="#z28514d10"/></clipPath>
	<clipPath id="z28514c11"><use xlink:href="#z28514d11"/></clipPath>
	<clipPath id="z28514c12"><use xlink:href="#z28514d12"/></clipPath>
	<clipPath id="z28514c13"><use xlink:href="#z28514d13"/></clipPath>
	<clipPath id="z28514c14"><use xlink:href="#z28514d14"/></clipPath>
</defs>
<path style="--d:1s;" pathLength="3333" clip-path="url(#z28514c1)" d="M184 136L270 186L308 235"/>
<path style="--d:2s;" pathLength="3333" clip-path="url(#z28514c2)" d="M98 352L220 444"/>
<path style="--d:3s;" pathLength="3333" clip-path="url(#z28514c3)" d="M161 888L145 787L275 526"/>
<path style="--d:4s;" pathLength="3333" clip-path="url(#z28514c4)" d="M371 256L805 223"/>
<path style="--d:5s;" pathLength="3333" clip-path="url(#z28514c5)" d="M445 123L491 174L506 373"/>
<path style="--d:6s;" pathLength="3333" clip-path="url(#z28514c6)" d="M644 65L686 114L635 353"/>
<path style="--d:7s;" pathLength="3333" clip-path="url(#z28514c7)" d="M282 408L343 418L849 348L939 361"/>
<path style="--d:8s;" pathLength="3333" clip-path="url(#z28514c8)" d="M373 498L404 523L457 738"/>
<path style="--d:9s;" pathLength="3333" clip-path="url(#z28514c9)" d="M439 511L717 478L757 490L781 521L711 730"/>
<path style="--d:10s;" pathLength="3333" clip-path="url(#z28514c10)" d="M484 607L667 587"/>
<path style="--d:11s;" pathLength="3333" clip-path="url(#z28514c11)" d="M546 410L578 448L569 682"/>
<path style="--d:12s;" pathLength="3333" clip-path="url(#z28514c12)" d="M475 715L691 691"/>
<path style="--d:13s;" pathLength="3333" clip-path="url(#z28514c13)" d="M543 795L493 797L414 871L316 923"/>
<path style="--d:14s;" pathLength="3333" clip-path="url(#z28514c14)" d="M651 780L775 861L814 933"/>
</svg>