<!--
AnimCJK 2016-2017 Copyright Francois Mizessyn, http://gooo.free.fr/animCJK/
Derived from:
    MakeMeAHanzi project - https://github.com/skishore/makemeahanzi
    Arphic PL KaitiM GB - https://apps.ubuntu.com/cat/applications/precise/fonts-arphic-gkai00mp/
    Arphic PL UKai - https://apps.ubuntu.com/cat/applications/fonts-arphic-ukai/
You can redistribute and/or modify this file under the terms of the Arphic Public License
as published by Arphic Technology Co., Ltd.
You should have received a copy of this license (the directory "APL") along with this file;
if not, see http://ftp.gnu.org/non-gnu/chinese-fonts-truetype/LICENSE.
-->
<svg id="z28518" class="acjk" version="1.1" viewBox="0 0 1024 1024" xmlns="http://www.w3.org/2000/svg" xmlns:xlink="http://www.w3.org/1999/xlink">
<style>
<![CDATA[
	@keyframes z28518k {
		from {
			stroke:#c00;
			stroke-dashoffset:3000;
		}
		75% {
			stroke:#c00;
			stroke-dashoffset:0;
		}
		to {
			stroke:#000;
		}
	}
	#z28518 path[clip-path] {
		animation:z28518k 1s linear both;
		stroke-dasharray:3000;
		stroke-width:128;
		stroke-linecap:round;
		fill:none;
	}
	#z28518 path[clip-path="url(#z28518c1)"] {animation-delay:1s;}
	#z28518 path[clip-path="url(#z28518c2)"] {animation-delay:2s;}
	#z28518 path[clip-path="url(#z28518c3)"] {animation-delay:3s;}
	#z28518 path[clip-path="url(#z28518c4)"] {animation-delay:4s;}
	#z28518 path[clip-path="url(#z28518c5)"] {animation-delay:5s;}
	#z28518 path[clip-path="url(#z28518c6)"] {animation-delay:6s;}
	#z28518 path[clip-path="url(#z28518c7)"] {animation-delay:7s;}
	#z28518 path[clip-path="url(#z28518c8)"] {animation-delay:8s;}
	#z28518 path[clip-path="url(#z28518c9)"] {animation-delay:9s;}
	#z28518 path[clip-path="url(#z28518c10)"] {animation-delay:10s;}
	#z28518 path[clip-path="url(#z28518c11)"] {animation-delay:11s;}
	#z28518 path[clip-path="url(#z28518c12)"] {animation-delay:12s;}
	#z28518 path[clip-path="url(#z28518c13)"] {animation-delay:13s;}
	#z28518 path[clip-path="url(#z28518c14)"] {animation-delay:14s;}
	#z28518 path[clip-path="url(#z28518c15)"] {animation-delay:15s;}
	#z28518 path {fill:#ccc;}
]]>
</style>
<g transform="scale(1,-1) translate(0,-900)">
	<path id="z28518d1" d="M219 707Q244 686 271 661Q287 648 304 649Q316 650 321 664Q325 680 314 713Q302 743 212 759Q194 763 188 759Q182 755 185 741Q189 728 219 707Z"/>
	<path id="z28518d2" d="M140 486Q179 435 213 422Q229 418 239 433Q246 446 243 464Q231 507 174 522Q135 534 125 529Q119 528 121 514Q122 501 140 486Z"/>
	<path id="z28518d3" d="M131 146Q119 142 122 124Q146 48 176 34Q183 27 193 30Q200 31 201 58Q207 112 287 356Q293 372 291 378Q290 388 281 381Q272 375 168 189Q158 167 131 146Z"/>
	<path id="z28518d4" d="M580 679Q757 727 764 733Q773 740 767 749Q760 759 732 766Q702 770 674 757Q634 742 592 728L531 710Q476 697 415 688Q381 681 406 666Q448 648 511 663Q515 664 522 665L580 679Z"/>
	<path id="z28518d5" d="M441 443Q507 510 517 524Q517 527 540 564Q559 600 570 638L577 665Q578 669 579 672Q579 676 580 679L592 728Q593 731 594 733Q598 764 613 791Q623 809 607 818Q562 855 534 847Q521 843 527 828Q539 801 531 710L522 665Q482 503 348 422Q332 410 316 400Q303 391 315 388Q342 385 409 422L441 443Z"/>
	<path id="z28518d6" d="M570 638Q777 431 831 422Q912 422 983 440Q1002 444 1002 449Q1003 455 989 460Q938 476 878 493Q809 512 758 542Q739 552 720 563L702 574Q668 596 632 622Q598 650 577 665L570 638Z"/>
	<path id="z28518d7" d="M347 570Q389 510 413 506Q426 505 433 521Q434 534 427 554Q418 569 398 577Q367 593 352 595Q343 596 342 586Q341 579 347 570Z"/>
	<path id="z28518d8" d="M720 563Q781 606 814 623Q830 627 827 638Q805 683 762 687Q749 686 750 668Q753 653 702 574L720 563Z"/>
	<path id="z28518d9" d="M458 438Q454 442 441 443L409 422Q434 367 450 277Q453 249 469 230Q485 211 490 225Q493 234 493 247L491 276Q490 282 482 328L477 353Q470 390 469 408L458 438Z"/>
	<path id="z28518d10" d="M634 261Q653 233 669 226Q679 219 693 239Q705 258 728 368Q735 396 757 419Q769 431 758 444Q745 459 705 482Q690 488 621 473Q618 473 617 472Q529 457 458 438L469 408Q478 418 638 443Q662 447 669 439Q679 427 678 414Q660 293 645 282L634 261Z"/>
	<path id="z28518d11" d="M482 328Q483 328 486 328Q562 341 619 349Q641 353 633 365Q623 378 599 382Q563 386 477 353L482 328Z"/>
	<path id="z28518d12" d="M572 256Q597 260 634 261L645 282Q641 288 630 295Q615 302 589 296Q535 283 491 276L493 247Q500 247 509 248Q522 252 541 253L572 256Z"/>
	<path id="z28518d13" d="M541 253Q541 249 544 241Q557 207 556 99Q555 65 551 56Q548 40 521 42Q496 45 471 47Q459 47 459 40Q458 34 469 26Q533 -19 554 -46Q570 -58 580 -55Q590 -51 601 -18Q616 16 611 75Q608 148 609 175Q616 215 599 235Q583 248 572 256L541 253Z"/>
	<path id="z28518d14" d="M403 178Q376 130 341 89Q319 59 331 25Q335 7 357 17Q408 48 421 120Q430 151 426 175Q422 184 417 186Q408 185 403 178Z"/>
	<path id="z28518d15" d="M701 156Q747 113 801 51Q817 30 832 26Q841 25 849 35Q862 48 849 93Q842 133 771 163Q728 181 703 188Q693 194 691 181Q690 168 701 156Z"/>
	<defs>
		<clipPath id="z28518c1"><use xlink:href="#z28518d1"/></clipPath>
		<clipPath id="z28518c2"><use xlink:href="#z28518d2"/></clipPath>
		<clipPath id="z28518c3"><use xlink:href="#z28518d3"/></clipPath>
		<clipPath id="z28518c4"><use xlink:href="#z28518d4"/></clipPath>
		<clipPath id="z28518c5"><use xlink:href="#z28518d5"/></clipPath>
		<clipPath id="z28518c6"><use xlink:href="#z28518d6"/></clipPath>
		<clipPath id="z28518c7"><use xlink:href="#z28518d7"/></clipPath>
		<clipPath id="z28518c8"><use xlink:href="#z28518d8"/></clipPath>
		<clipPath id="z28518c9"><use xlink:href="#z28518d9"/></clipPath>
		<clipPath id="z28518c10"><use xlink:href="#z28518d10"/></clipPath>
		<clipPath id="z28518c11"><use xlink:href="#z28518d11"/></clipPath>
		<clipPath id="z28518c12"><use xlink:href="#z28518d12"/></clipPath>
		<clipPath id="z28518c13"><use xlink:href="#z28518d13"/></clipPath>
		<clipPath id="z28518c14"><use xlink:href="#z28518d14"/></clipPath>
		<clipPath id="z28518c15"><use xlink:href="#z28518d15"/></clipPath>
	</defs>
	<path pathLength="2999" clip-path="url(#z28518c1)" d="M192 753L313 659"/>
	<path pathLength="2999" clip-path="url(#z28518c2)" d="M127 521L231 428"/>
	<path pathLength="2999" clip-path="url(#z28518c3)" d="M188 34L168 128L285 375"/>
	<path pathLength="2999" clip-path="url(#z28518c4)" d="M406 677L764 745"/>
	<path pathLength="2999" clip-path="url(#z28518c5)" d="M534 839L575 796L521 582L423 454L318 393"/>
	<path pathLength="2999" clip-path="url(#z28518c6)" d="M580 656L818 470L990 449"/>
	<path pathLength="2999" clip-path="url(#z28518c7)" d="M348 587L421 510"/>
	<path pathLength="2999" clip-path="url(#z28518c8)" d="M820 636L767 644L713 570"/>
	<path pathLength="2999" clip-path="url(#z28518c9)" d="M417 420L446 397L481 226"/>
	<path pathLength="2999" clip-path="url(#z28518c10)" d="M465 436L651 462L700 450L719 422L659 234"/>
	<path pathLength="2999" clip-path="url(#z28518c11)" d="M483 351L630 362"/>
	<path pathLength="2999" clip-path="url(#z28518c12)" d="M496 254L640 280"/>
	<path pathLength="2999" clip-path="url(#z28518c13)" d="M550 247L582 195L578 29L557 -6L467 36"/>
	<path pathLength="2999" clip-path="url(#z28518c14)" d="M416 180L345 19"/>
	<path pathLength="2999" clip-path="url(#z28518c15)" d="M697 184L809 96L840 32"/>
</g>
</svg>