<!--
AnimCJK 2016-2018 Copyright Francois Mizessyn - https://github.com/parsimonhi/animCJK
Derived from:
    MakeMeAHanzi project - https://github.com/skishore/makemeahanzi
    Arphic PL KaitiM GB - https://apps.ubuntu.com/cat/applications/precise/fonts-arphic-gkai00mp/
    Arphic PL UKai - https://apps.ubuntu.com/cat/applications/fonts-arphic-ukai/
You can redistribute and/or modify this file under the terms of the Arphic Public License
as published by Arphic Technology Co., Ltd.
You should have received a copy of this license (the directory "APL") along with this file;
if not, see http://ftp.gnu.org/non-gnu/chinese-fonts-truetype/LICENSE.
-->
<svg id="z28533" class="acjk" version="1.1" viewBox="0 0 1024 1024" xmlns="http://www.w3.org/2000/svg" xmlns:xlink="http://www.w3.org/1999/xlink">
<style>
<![CDATA[
@keyframes z28533k {
	from {
		stroke:#ccc;
		stroke-dashoffset:3334;
	}
	1% {
		stroke:#c00;
		stroke-dashoffset:3334;
	}
	75% {
		stroke:#c00;
		stroke-dashoffset:0;
	}
	to {
		stroke:#000;
	}
}
#z28533 path[clip-path] {
	animation:z28533k 1s linear both;
	stroke-dasharray:3334;
	stroke-width:128;
	stroke-linecap:round;
	fill:none;
}
#z28533 path[clip-path="url(#z28533c1)"] {animation-delay:1s;}
#z28533 path[clip-path="url(#z28533c2)"] {animation-delay:2s;}
#z28533 path[clip-path="url(#z28533c3)"] {animation-delay:3s;}
#z28533 path[clip-path="url(#z28533c4)"] {animation-delay:4s;}
#z28533 path[clip-path="url(#z28533c5)"] {animation-delay:5s;}
#z28533 path[clip-path="url(#z28533c6)"] {animation-delay:6s;}
#z28533 path[clip-path="url(#z28533c7)"] {animation-delay:7s;}
#z28533 path[clip-path="url(#z28533c8)"] {animation-delay:8s;}
#z28533 path[clip-path="url(#z28533c9)"] {animation-delay:9s;}
#z28533 path[clip-path="url(#z28533c10)"] {animation-delay:10s;}
#z28533 path[clip-path="url(#z28533c11)"] {animation-delay:11s;}
#z28533 path[clip-path="url(#z28533c12)"] {animation-delay:12s;}
#z28533 path[clip-path="url(#z28533c13)"] {animation-delay:13s;}
#z28533 path[clip-path="url(#z28533c14)"] {animation-delay:14s;}
#z28533 path[clip-path="url(#z28533c15)"] {animation-delay:15s;}
#z28533 path {fill:#ccc;}
]]>
</style>
<path id="z28533d1" d="M209 183Q231 205 255 231Q268 244 284 245Q294 244 301 231Q305 216 298 187Q294 168 265 154Q195 127 184 133Q180 137 180 150Q183 160 209 183 Z"/>
<path id="z28533d2" d="M136 380Q181 429 215 443Q230 446 239 431Q245 418 242 401Q230 364 149 340L148 340Q130 336 121 340Q115 341 118 354Q119 366 136 380 Z"/>
<path id="z28533d3" d="M129 701Q117 704 118 722Q130 797 163 818Q169 825 180 822Q187 821 190 796Q199 742 296 524Q303 508 303 502Q302 492 293 498Q275 510 168 666Q155 684 129 701 Z"/>
<path id="z28533d4" d="M567 289Q582 285 598 282Q634 273 639 268Q646 261 643 254Q636 244 611 238Q592 234 577 239L527 256Q499 263 474 270Q461 273 449 276L408 284Q387 285 367 288Q336 294 358 308Q379 318 412 320L449 315Q485 306 523 299L567 289 Z"/>
<path id="z28533d5" d="M449 276Q449 242 451 233Q452 215 442 206Q424 191 402 184Q392 180 384 185Q378 189 383 202Q402 236 408 284L412 320Q415 354 420 407L452 400Q449 351 449 315L449 276 Z"/>
<path id="z28533d6" d="M550 374Q559 331 567 289L577 239Q580 209 603 145Q607 136 592 122Q564 103 544 97Q531 93 524 99Q517 105 522 118Q535 143 534 158Q533 204 527 256L523 299Q517 339 512 385L550 374 Z"/>
<path id="z28533d7" d="M420 407Q392 408 319 422Q297 426 314 438Q338 457 361 451Q470 424 615 401Q624 402 630 392Q631 383 613 376Q588 360 550 374L512 385Q496 388 484 392Q468 396 452 400L420 407 Z"/>
<path id="z28533d8" d="M408 677Q409 640 412 614L414 588Q418 539 421 523Q421 520 421 519L416 499Q395 478 368 478Q356 482 361 492Q403 588 356 742Q329 806 354 840Q360 852 369 847Q405 822 405 707Q405 703 406 700L408 677 Z"/>
<path id="z28533d9" d="M421 519Q434 519 453 513Q510 500 519 504Q528 508 527 528Q537 676 528 792Q527 814 513 819Q506 822 464 812Q454 809 454 815Q455 822 467 830Q494 855 514 881Q524 894 537 894Q552 891 569 851Q591 811 588 768Q581 668 575 575Q572 539 587 510Q597 497 585 486Q570 473 538 463Q520 456 480 477Q437 490 416 499L421 519 Z"/>
<path id="z28533d10" d="M412 614Q415 614 419 614Q462 607 494 601Q513 597 505 586Q495 576 474 573Q449 572 414 588L412 614 Z"/>
<path id="z28533d11" d="M406 700Q410 700 415 700Q461 696 497 692Q516 689 509 678Q500 666 479 662Q439 659 408 677L406 700 Z"/>
<path id="z28533d12" d="M707 386Q761 284 787 222Q799 186 812 167Q819 157 812 144Q805 134 775 118Q747 106 730 110Q714 116 725 134Q765 188 640 442Q633 454 632 460Q631 470 644 466Q656 460 692 410L707 386 Z"/>
<path id="z28533d13" d="M768 414Q909 366 911 363Q918 354 913 347Q904 337 875 333Q845 332 818 347Q793 359 766 369Q738 378 707 386L692 410Q713 417 748 418L768 414 Z"/>
<path id="z28533d14" d="M769 667Q796 609 812 484Q815 462 819 452Q825 446 820 438Q816 432 792 423Q779 416 768 414L748 418Q747 419 755 450Q771 507 737 623Q736 624 736 626L717 672Q689 726 609 781Q591 794 615 791Q648 794 708 751Q727 738 743 715L769 667 Z"/>
<path id="z28533d15" d="M743 715Q771 758 814 813Q836 837 874 836Q925 835 962 836Q974 835 985 832Q992 828 984 818Q972 808 874 756Q819 728 769 667L736 626Q709 589 682 545Q669 523 642 514Q632 511 623 515Q619 519 625 528Q629 534 636 539Q657 554 717 672L743 715 Z"/>
<defs>
	<clipPath id="z28533c1"><use xlink:href="#z28533d1"/></clipPath>
	<clipPath id="z28533c2"><use xlink:href="#z28533d2"/></clipPath>
	<clipPath id="z28533c3"><use xlink:href="#z28533d3"/></clipPath>
	<clipPath id="z28533c4"><use xlink:href="#z28533d4"/></clipPath>
	<clipPath id="z28533c5"><use xlink:href="#z28533d5"/></clipPath>
	<clipPath id="z28533c6"><use xlink:href="#z28533d6"/></clipPath>
	<clipPath id="z28533c7"><use xlink:href="#z28533d7"/></clipPath>
	<clipPath id="z28533c8"><use xlink:href="#z28533d8"/></clipPath>
	<clipPath id="z28533c9"><use xlink:href="#z28533d9"/></clipPath>
	<clipPath id="z28533c10"><use xlink:href="#z28533d10"/></clipPath>
	<clipPath id="z28533c11"><use xlink:href="#z28533d11"/></clipPath>
	<clipPath id="z28533c12"><use xlink:href="#z28533d12"/></clipPath>
	<clipPath id="z28533c13"><use xlink:href="#z28533d13"/></clipPath>
	<clipPath id="z28533c14"><use xlink:href="#z28533d14"/></clipPath>
	<clipPath id="z28533c15"><use xlink:href="#z28533d15"/></clipPath>
</defs>
<path pathLength="3333" clip-path="url(#z28533c1)" d="M187 140L266 195L286 240"/>
<path pathLength="3333" clip-path="url(#z28533c2)" d="M122 344L231 436"/>
<path pathLength="3333" clip-path="url(#z28533c3)" d="M176 816L163 724L295 501"/>
<path pathLength="3333" clip-path="url(#z28533c4)" d="M355 298L639 256"/>
<path pathLength="3333" clip-path="url(#z28533c5)" d="M388 191L424 230L441 400"/>
<path pathLength="3333" clip-path="url(#z28533c6)" d="M528 102L568 145L520 377"/>
<path pathLength="3333" clip-path="url(#z28533c7)" d="M314 427L625 388"/>
<path pathLength="3333" clip-path="url(#z28533c8)" d="M368 486L394 511L398 565L360 843"/>
<path pathLength="3333" clip-path="url(#z28533c9)" d="M422 504L525 483L559 509L553 815L524 856L462 818"/>
<path pathLength="3333" clip-path="url(#z28533c10)" d="M417 606L499 588"/>
<path pathLength="3333" clip-path="url(#z28533c11)" d="M411 693L505 681"/>
<path pathLength="3333" clip-path="url(#z28533c12)" d="M728 118L774 170L641 462"/>
<path pathLength="3333" clip-path="url(#z28533c13)" d="M702 407L910 355"/>
<path pathLength="3333" clip-path="url(#z28533c14)" d="M757 425L790 455L759 630L705 727L608 787"/>
<path pathLength="3333" clip-path="url(#z28533c15)" d="M630 522L832 776L980 822"/>
</svg>