<!--
AnimCJK 2016-2019 Copyright Francois Mizessyn - https://github.com/parsimonhi/animCJK
Derived from:
    MakeMeAHanzi project - https://github.com/skishore/makemeahanzi
    Arphic PL KaitiM GB font
    Arphic PL UKai font
You can redistribute and/or modify this file under the terms of the Arphic Public License
as published by Arphic Technology Co., Ltd.
You should have received a copy of this license along with this file.
If not, see http://ftp.gnu.org/non-gnu/chinese-fonts-truetype/LICENSE.
-->
<svg id="z28638" class="acjk" version="1.1" viewBox="0 0 1024 1024" xmlns="http://www.w3.org/2000/svg" xmlns:xlink="http://www.w3.org/1999/xlink">
<style>
<![CDATA[
@keyframes zk {
	to {
		stroke-dashoffset:0;
	}
}
svg.acjk path[clip-path] {
	--t:0.8s;
	animation:zk var(--t) linear forwards var(--d);
	stroke-dasharray:3337;
	stroke-dashoffset:3339;
	stroke-width:128;
	stroke-linecap:round;
	fill:none;
	stroke:#000;
}
svg.acjk path[id] {fill:#ccc;}
]]>
</style>
<path id="z28638d1" d="M235 185Q263 210 295 239Q311 252 328 251Q340 250 345 236Q349 220 339 187Q327 153 228 133Q212 129 204 133Q198 137 201 151Q205 164 235 185Z"/>
<path id="z28638d2" d="M136 386Q182 432 221 446Q237 447 246 432Q252 417 247 398Q228 353 146 341Q127 337 117 343Q110 344 114 358Q117 371 136 386Z"/>
<path id="z28638d3" d="M133 746Q120 749 123 767Q135 839 171 860Q178 867 189 864Q196 863 197 838Q204 790 305 532Q312 516 311 510Q310 500 301 507Q291 513 174 702Q161 724 133 746Z"/>
<path id="z28638d4" d="M513 141Q562 98 588 82Q601 76 597 68Q591 55 574 43Q558 30 539 30Q527 31 530 48Q534 67 486 145C481 153 506 146 513 141Z"/>
<path id="z28638d5" d="M486 145Q476 139 455 134Q445 130 441 135Q434 139 441 155Q463 216 471 314Q472 344 486 365Q501 386 506 372Q507 366 510 359C512 344 512 344 513 337Q513 324 512 308Q511 302 510 297C509 284 509 284 508 277Q505 252 504 232C503 221 503 221 503 215Q502 187 501 174C501 163 496 150 486 145Z"/>
<path id="z28638d6" d="M678 343Q684 356 695 355Q705 352 712 339Q722 323 735 242Q745 197 775 169Q791 154 776 142Q760 129 715 109Q705 103 644 117Q599 121 513 141C479 147 472 191 501 174Q513 162 660 147Q679 146 686 149Q696 153 694 183Q684 292 677 315Q676 316 676 317C673 325 674 335 678 343Z"/>
<path id="z28638d7" d="M504 232Q510 233 521 233Q590 223 641 217Q659 216 652 205Q645 195 627 191Q609 188 503 215C497 216 498 231 504 232Z"/>
<path id="z28638d8" d="M510 297Q513 297 517 297Q586 287 637 281Q655 280 648 269Q641 259 623 255Q611 252 508 277C501 278 503 297 510 297Z"/>
<path id="z28638d9" d="M510 359Q514 359 524 359Q612 349 678 343C687 342 684 320 676 317Q658 305 513 337C506 338 503 359 510 359Z"/>
<path id="z28638d10" d="M433 420Q423 416 398 412Q388 411 384 414Q380 420 387 434Q414 485 431 569Q434 594 449 610Q465 629 470 615Q471 608 473 600C472 585 472 585 472 577Q471 568 469 560Q454 481 449 452C447 440 444 424 433 420Z"/>
<path id="z28638d11" d="M701 579Q702 580 703 585Q707 600 720 599Q733 598 741 584Q750 577 770 530Q786 481 823 454Q842 439 827 424Q811 408 764 380Q749 371 684 384Q644 384 522 406Q470 415 433 420C421 422 438 456 449 452Q464 443 556 431C579 428 579 428 590 426Q708 405 730 420Q737 424 733 448Q721 505 702 560C700 566 699 573 701 579Z"/>
<path id="z28638d12" d="M561 482Q524 491 494 499Q481 502 496 513Q503 519 521 516Q542 512 563 510C588 506 588 506 600 504Q631 498 661 495Q679 492 673 482Q664 470 645 467Q629 464 602 471C575 478 575 478 561 482Z"/>
<path id="z28638d13" d="M556 431Q557 437 561 482C562 501 562 501 563 510Q563 531 564 562C564 573 597 567 597 556Q598 528 600 504C601 482 601 482 602 471Q602 470 603 468Q609 444 603 437Q596 430 590 426C581 419 554 420 556 431Z"/>
<path id="z28638d14" d="M473 600Q483 601 496 600Q695 576 701 579C707 579 706 564 702 560Q695 551 680 548Q656 542 597 556C575 560 575 560 564 562Q515 568 472 577C464 578 465 600 473 600Z"/>
<path id="z28638d15" d="M695 675Q711 675 922 674Q941 675 946 666Q952 656 936 641Q882 602 850 610Q709 637 304 679Q285 680 299 697Q312 710 329 717Q350 721 365 718Q411 706 461 699C491 694 491 694 506 692Q563 680 654 677C681 676 681 676 695 675Z"/>
<path id="z28638d16" d="M461 699Q473 726 452 799Q425 868 349 911Q337 918 347 921Q387 924 437 891Q489 855 508 788Q520 748 531 731Q540 716 527 708Q517 698 506 692C493 684 455 685 461 699Z"/>
<path id="z28638d17" d="M654 677Q663 692 656 831Q655 835 654 841Q654 853 652 859Q639 905 688 956Q689 956 691 958Q701 959 706 947Q716 919 713 892Q710 724 713 702Q714 692 709 686Q702 679 695 675C683 668 649 664 654 677Z"/>
<defs>
	<clipPath id="z28638c1"><use xlink:href="#z28638d1"/></clipPath>
	<clipPath id="z28638c2"><use xlink:href="#z28638d2"/></clipPath>
	<clipPath id="z28638c3"><use xlink:href="#z28638d3"/></clipPath>
	<clipPath id="z28638c4"><use xlink:href="#z28638d4"/></clipPath>
	<clipPath id="z28638c5"><use xlink:href="#z28638d5"/></clipPath>
	<clipPath id="z28638c6"><use xlink:href="#z28638d6"/></clipPath>
	<clipPath id="z28638c7"><use xlink:href="#z28638d7"/></clipPath>
	<clipPath id="z28638c8"><use xlink:href="#z28638d8"/></clipPath>
	<clipPath id="z28638c9"><use xlink:href="#z28638d9"/></clipPath>
	<clipPath id="z28638c10"><use xlink:href="#z28638d10"/></clipPath>
	<clipPath id="z28638c11"><use xlink:href="#z28638d11"/></clipPath>
	<clipPath id="z28638c12"><use xlink:href="#z28638d12"/></clipPath>
	<clipPath id="z28638c13"><use xlink:href="#z28638d13"/></clipPath>
	<clipPath id="z28638c14"><use xlink:href="#z28638d14"/></clipPath>
	<clipPath id="z28638c15"><use xlink:href="#z28638d15"/></clipPath>
	<clipPath id="z28638c16"><use xlink:href="#z28638d16"/></clipPath>
	<clipPath id="z28638c17"><use xlink:href="#z28638d17"/></clipPath>
</defs>
<path style="--d:1s;" pathLength="3333" clip-path="url(#z28638c1)" d="M207 142L298 193L337 241"/>
<path style="--d:2s;" pathLength="3333" clip-path="url(#z28638c2)" d="M117 348L238 438"/>
<path style="--d:3s;" pathLength="3333" clip-path="url(#z28638c3)" d="M184 858L168 767L305 514"/>
<path style="--d:4s;" pathLength="3333" clip-path="url(#z28638c4)" d="M539 36L561 73L494 139"/>
<path style="--d:5s;" pathLength="3333" clip-path="url(#z28638c5)" d="M448 144L476 182L493 371"/>
<path style="--d:6s;" pathLength="3333" clip-path="url(#z28638c6)" d="M497 150L691 127L738 158L692 350"/>
<path style="--d:7s;" pathLength="3333" clip-path="url(#z28638c7)" d="M507 225L648 207"/>
<path style="--d:8s;" pathLength="3333" clip-path="url(#z28638c8)" d="M514 290L643 272"/>
<path style="--d:9s;" pathLength="3333" clip-path="url(#z28638c9)" d="M515 353L676 331"/>
<path style="--d:10s;" pathLength="3333" clip-path="url(#z28638c10)" d="M390 419L427 465L463 616"/>
<path style="--d:11s;" pathLength="3333" clip-path="url(#z28638c11)" d="M441 424L754 406L781 452L717 593"/>
<path style="--d:12s;" pathLength="3333" clip-path="url(#z28638c12)" d="M498 506L666 484"/>
<path style="--d:13s;" pathLength="3333" clip-path="url(#z28638c13)" d="M564 438L583 465L583 558"/>
<path style="--d:14s;" pathLength="3333" clip-path="url(#z28638c14)" d="M480 593L699 567"/>
<path style="--d:15s;" pathLength="3333" clip-path="url(#z28638c15)" d="M300 686L357 696L858 641L942 653"/>
<path style="--d:16s;" pathLength="3333" clip-path="url(#z28638c16)" d="M470 705L498 738L463 830L419 882L351 914"/>
<path style="--d:17s;" pathLength="3333" clip-path="url(#z28638c17)" d="M662 681L686 715L693 954"/>
</svg>