<!--
AnimCJK 2016-2019 Copyright Francois Mizessyn - https://github.com/parsimonhi/animCJK
Derived from:
    MakeMeAHanzi project - https://github.com/skishore/makemeahanzi
    Arphic PL KaitiM GB font
    Arphic PL UKai font
You can redistribute and/or modify this file under the terms of the Arphic Public License
as published by Arphic Technology Co., Ltd.
You should have received a copy of this license along with this file.
If not, see http://ftp.gnu.org/non-gnu/chinese-fonts-truetype/LICENSE.
-->
<svg id="z28766" class="acjk" version="1.1" viewBox="0 0 1024 1024" xmlns="http://www.w3.org/2000/svg" xmlns:xlink="http://www.w3.org/1999/xlink">
<style>
<![CDATA[
@keyframes zk {
	to {
		stroke-dashoffset:0;
	}
}
svg.acjk path[clip-path] {
	--t:0.8s;
	animation:zk var(--t) linear forwards var(--d);
	stroke-dasharray:3337;
	stroke-dashoffset:3339;
	stroke-width:128;
	stroke-linecap:round;
	fill:none;
	stroke:#000;
}
svg.acjk path[id] {fill:#ccc;}
]]>
</style>
<path id="z28766d1" d="M199 198Q221 220 247 245Q260 258 277 257Q287 257 293 243Q297 228 289 199Q280 171 194 150Q178 146 172 149Q168 153 168 166Q172 176 199 198Z"/>
<path id="z28766d2" d="M132 375Q180 426 215 439Q230 442 239 428Q245 415 241 397Q229 358 166 341Q129 331 117 336Q110 337 114 350Q115 362 132 375Z"/>
<path id="z28766d3" d="M109 742Q97 746 101 763Q122 835 155 849Q162 855 172 852Q179 849 178 825Q181 776 259 519Q265 503 263 497Q262 488 254 495Q244 501 145 696Q135 718 109 742Z"/>
<path id="z28766d4" d="M595 134Q736 107 742 102Q751 95 747 87Q740 77 714 69Q686 63 659 73Q622 85 583 94Q540 103 489 106Q455 112 479 127Q503 143 554 141C581 136 581 136 595 134Z"/>
<path id="z28766d5" d="M386 223Q374 202 359 194Q355 190 350 194Q344 198 345 209Q349 236 327 296Q317 312 319 330Q323 349 333 363Q340 373 346 365Q352 364 359 348Q363 342 370 318Q383 276 390 262Q391 256 394 252C399 243 392 231 386 223Z"/>
<path id="z28766d6" d="M610 216Q763 192 796 197Q806 201 805 206Q805 209 776 260Q767 270 773 276Q779 280 795 272Q844 250 884 247Q915 243 916 236Q916 226 856 175Q837 156 756 171Q654 183 612 192C581 196 581 196 566 198Q524 202 478 211Q432 217 386 223C376 225 384 250 394 252Q409 258 459 245Q525 227 568 223C596 218 596 218 610 216Z"/>
<path id="z28766d7" d="M568 223Q568 274 557 347Q550 372 573 406Q580 415 589 406Q608 376 607 340Q606 313 610 235Q610 225 610 216C611 200 611 200 612 192Q613 179 616 168Q622 149 605 140Q601 136 595 134C582 129 549 128 554 141Q564 168 566 198C567 215 567 215 568 223Z"/>
<path id="z28766d8" d="M446 293Q494 326 512 322Q521 321 522 306Q521 297 509 286Q488 268 443 275Q437 275 439 283Q439 289 446 293Z"/>
<path id="z28766d9" d="M433 350Q481 386 500 385Q509 384 510 370Q509 361 500 349Q490 339 472 337Q444 330 432 331Q425 331 426 339Q427 345 433 350Z"/>
<path id="z28766d10" d="M659 269Q713 299 728 294Q738 293 737 278Q736 269 724 259Q706 243 655 250Q648 251 651 259Q652 265 659 269Z"/>
<path id="z28766d11" d="M657 342Q711 382 727 381Q737 380 738 366Q737 357 728 345Q707 324 656 323Q649 323 650 331Q650 337 657 342Z"/>
<path id="z28766d12" d="M538 484Q566 480 593 477Q600 478 606 469Q606 462 591 455Q573 443 552 447Q551 447 550 448C519 456 519 456 503 460Q484 463 468 468Q443 472 421 478C396 482 396 482 383 484Q371 484 303 493Q284 494 298 507Q317 523 362 514Q375 511 390 509C411 506 411 506 421 504Q457 495 501 490C526 486 526 486 538 484Z"/>
<path id="z28766d13" d="M421 478Q422 475 422 473Q423 460 424 454Q427 441 418 435Q406 428 387 422Q372 419 359 427Q352 434 363 442Q372 451 383 484C388 501 388 501 390 509Q399 557 404 566Q404 569 408 573Q412 580 419 575Q419 574 420 573C425 568 423 558 423 550Q424 529 421 511Q421 507 421 504C421 487 421 487 421 478Z"/>
<path id="z28766d14" d="M523 530Q530 505 538 484C546 460 546 460 550 448Q551 445 552 444Q556 438 558 434Q561 428 550 417Q531 401 517 396Q508 392 502 397Q496 401 500 410Q506 422 503 460C502 480 502 480 501 490Q498 509 495 533C493 542 521 539 523 530Z"/>
<path id="z28766d15" d="M449 569Q479 562 540 556Q547 555 548 549Q548 545 528 531Q527 530 523 530C514 528 504 531 495 533Q453 543 423 550C415 552 412 573 420 573Q423 573 427 573C442 570 442 570 449 569Z"/>
<path id="z28766d16" d="M356 633Q349 629 321 625Q312 624 310 627Q306 631 312 643Q330 671 343 720Q346 735 356 744Q369 760 373 748Q374 742 374 735C373 719 373 719 372 711Q365 672 363 657C362 649 364 636 356 633Z"/>
<path id="z28766d17" d="M575 689Q591 653 612 642Q624 629 614 616Q602 606 566 588Q553 582 538 588Q507 600 480 609C452 616 452 616 438 619Q396 626 356 633C348 635 355 658 363 657Q373 656 382 653Q410 646 438 642C464 637 464 637 477 634Q537 619 546 627Q550 631 539 680C537 692 570 700 575 689Z"/>
<path id="z28766d18" d="M473 721Q518 714 579 710Q586 709 587 703Q587 699 575 689C566 680 551 680 539 680Q535 680 532 681Q502 688 474 694C449 699 449 699 436 702Q402 706 372 711C364 712 366 735 374 735Q381 735 390 734Q409 730 435 727C460 723 460 723 473 721Z"/>
<path id="z28766d19" d="M471 804Q516 795 574 788Q589 787 589 781Q590 769 575 762Q553 752 533 755Q499 762 471 768C444 774 444 774 431 777Q308 799 252 803Q242 804 239 811Q236 820 248 830Q281 854 325 840Q382 822 427 813C456 807 456 807 471 804Z"/>
<path id="z28766d20" d="M471 768Q471 743 473 721C474 703 474 703 474 694Q475 657 477 634C479 617 479 617 480 609Q480 606 481 605Q482 595 477 591Q462 576 449 569C443 565 424 566 427 573Q426 574 430 580Q437 590 438 619C438 634 438 634 438 642Q437 667 436 702C435 719 435 719 435 727Q435 754 431 777C428 801 428 801 427 813Q415 894 430 921Q431 925 436 932Q445 947 451 950Q460 951 464 941Q470 926 471 804C471 780 471 780 471 768Z"/>
<path id="z28766d21" d="M685 675Q691 632 693 590C693 571 693 571 693 561Q694 558 695 511Q696 498 698 486Q699 482 700 478C702 465 682 458 670 451Q666 448 659 446Q644 439 635 443Q626 450 632 459Q677 519 638 731Q635 735 635 742Q616 818 571 903Q568 909 567 913Q566 922 573 919Q598 913 647 814Q651 801 658 786Q671 746 681 700C684 683 684 683 685 675Z"/>
<path id="z28766d22" d="M700 478Q703 477 708 476Q739 467 771 458Q790 452 795 462Q802 486 807 673Q807 827 795 845Q791 849 773 846Q748 839 722 830Q703 823 704 832Q755 883 783 919Q796 938 810 942Q819 946 827 937Q864 892 866 826Q845 517 868 474Q878 456 868 446Q847 428 813 414Q797 407 744 433Q677 448 670 451C658 456 687 481 700 478Z"/>
<path id="z28766d23" d="M693 590Q736 583 770 577Q789 573 781 562Q771 552 750 549Q708 546 693 561C685 567 684 592 693 590Z"/>
<path id="z28766d24" d="M681 700Q684 700 689 700Q741 693 780 690Q801 686 793 675Q783 662 761 658Q722 652 685 675C678 679 673 700 681 700Z"/>
<defs>
	<clipPath id="z28766c1"><use xlink:href="#z28766d1"/></clipPath>
	<clipPath id="z28766c2"><use xlink:href="#z28766d2"/></clipPath>
	<clipPath id="z28766c3"><use xlink:href="#z28766d3"/></clipPath>
	<clipPath id="z28766c4"><use xlink:href="#z28766d4"/></clipPath>
	<clipPath id="z28766c5"><use xlink:href="#z28766d5"/></clipPath>
	<clipPath id="z28766c6"><use xlink:href="#z28766d6"/></clipPath>
	<clipPath id="z28766c7"><use xlink:href="#z28766d7"/></clipPath>
	<clipPath id="z28766c8"><use xlink:href="#z28766d8"/></clipPath>
	<clipPath id="z28766c9"><use xlink:href="#z28766d9"/></clipPath>
	<clipPath id="z28766c10"><use xlink:href="#z28766d10"/></clipPath>
	<clipPath id="z28766c11"><use xlink:href="#z28766d11"/></clipPath>
	<clipPath id="z28766c12"><use xlink:href="#z28766d12"/></clipPath>
	<clipPath id="z28766c13"><use xlink:href="#z28766d13"/></clipPath>
	<clipPath id="z28766c14"><use xlink:href="#z28766d14"/></clipPath>
	<clipPath id="z28766c15"><use xlink:href="#z28766d15"/></clipPath>
	<clipPath id="z28766c16"><use xlink:href="#z28766d16"/></clipPath>
	<clipPath id="z28766c17"><use xlink:href="#z28766d17"/></clipPath>
	<clipPath id="z28766c18"><use xlink:href="#z28766d18"/></clipPath>
	<clipPath id="z28766c19"><use xlink:href="#z28766d19"/></clipPath>
	<clipPath id="z28766c20"><use xlink:href="#z28766d20"/></clipPath>
	<clipPath id="z28766c21"><use xlink:href="#z28766d21"/></clipPath>
	<clipPath id="z28766c22"><use xlink:href="#z28766d22"/></clipPath>
	<clipPath id="z28766c23"><use xlink:href="#z28766d23"/></clipPath>
	<clipPath id="z28766c24"><use xlink:href="#z28766d24"/></clipPath>
</defs>
<path style="--d:1s;" pathLength="3333" clip-path="url(#z28766c1)" d="M175 154L286 248"/>
<path style="--d:2s;" pathLength="3333" clip-path="url(#z28766c2)" d="M120 342L235 427"/>
<path style="--d:3s;" pathLength="3333" clip-path="url(#z28766c3)" d="M169 845L144 759L258 501"/>
<path style="--d:4s;" pathLength="3333" clip-path="url(#z28766c4)" d="M477 114L741 89"/>
<path style="--d:5s;" pathLength="3333" clip-path="url(#z28766c5)" d="M355 196L368 243L340 363"/>
<path style="--d:6s;" pathLength="3333" clip-path="url(#z28766c6)" d="M393 227L801 181L835 193L860 234L779 269"/>
<path style="--d:7s;" pathLength="3333" clip-path="url(#z28766c7)" d="M562 146L591 170L579 401"/>
<path style="--d:8s;" pathLength="3333" clip-path="url(#z28766c8)" d="M445 282L514 313"/>
<path style="--d:9s;" pathLength="3333" clip-path="url(#z28766c9)" d="M435 338L503 375"/>
<path style="--d:10s;" pathLength="3333" clip-path="url(#z28766c10)" d="M660 257L730 283"/>
<path style="--d:11s;" pathLength="3333" clip-path="url(#z28766c11)" d="M661 332L732 370"/>
<path style="--d:12s;" pathLength="3333" clip-path="url(#z28766c12)" d="M302 501L601 470"/>
<path style="--d:13s;" pathLength="3333" clip-path="url(#z28766c13)" d="M365 432L401 456L412 570"/>
<path style="--d:14s;" pathLength="3333" clip-path="url(#z28766c14)" d="M507 403L530 444L503 527"/>
<path style="--d:15s;" pathLength="3333" clip-path="url(#z28766c15)" d="M426 566L542 547"/>
<path style="--d:16s;" pathLength="3333" clip-path="url(#z28766c16)" d="M317 632L341 652L364 745"/>
<path style="--d:17s;" pathLength="3333" clip-path="url(#z28766c17)" d="M364 637L552 606L582 637L562 685"/>
<path style="--d:18s;" pathLength="3333" clip-path="url(#z28766c18)" d="M381 727L581 697"/>
<path style="--d:19s;" pathLength="3333" clip-path="url(#z28766c19)" d="M246 816L585 777"/>
<path style="--d:20s;" pathLength="3333" clip-path="url(#z28766c20)" d="M436 575L459 608L455 942"/>
<path style="--d:21s;" pathLength="3333" clip-path="url(#z28766c21)" d="M637 448L675 490L668 660L632 805L574 912"/>
<path style="--d:22s;" pathLength="3333" clip-path="url(#z28766c22)" d="M682 455L794 434L835 465L825 866L799 895L716 837"/>
<path style="--d:23s;" pathLength="3333" clip-path="url(#z28766c23)" d="M697 582L778 565"/>
<path style="--d:24s;" pathLength="3333" clip-path="url(#z28766c24)" d="M688 693L790 677"/>
</svg>