<!--
AnimCJK 2016-2019 Copyright Francois Mizessyn - https://github.com/parsimonhi/animCJK
Derived from:
    MakeMeAHanzi project - https://github.com/skishore/makemeahanzi
    Arphic PL KaitiM GB font
    Arphic PL UKai font
You can redistribute and/or modify this file under the terms of the Arphic Public License
as published by Arphic Technology Co., Ltd.
You should have received a copy of this license along with this file.
If not, see http://ftp.gnu.org/non-gnu/chinese-fonts-truetype/LICENSE.
-->
<svg id="z28859" class="acjk" version="1.1" viewBox="0 0 1024 1024" xmlns="http://www.w3.org/2000/svg" xmlns:xlink="http://www.w3.org/1999/xlink">
<style>
<![CDATA[
@keyframes zk {
	to {
		stroke-dashoffset:0;
	}
}
svg.acjk path[clip-path] {
	--t:0.8s;
	animation:zk var(--t) linear forwards var(--d);
	stroke-dasharray:3337;
	stroke-dashoffset:3339;
	stroke-width:128;
	stroke-linecap:round;
	fill:none;
	stroke:#000;
}
svg.acjk path[id] {fill:#ccc;}
]]>
</style>
<path id="z28859d1" d="M111 365Q121 420 123 477Q123 513 156 532Q172 542 182 520Q201 463 162 397Q149 369 130 352Q121 348 116 351Q110 355 111 365Z"/>
<path id="z28859d2" d="M308 409C379 366 415 345 431 340C443 335 447 327 441 317C434 306 423 296 409 288C394 279 384 275 377 276C370 276 368 280 369 289C369 301 349 332 309 380C303 388 300 415 308 409Z"/>
<path id="z28859d3" d="M297 595C298 587 304 525 308 409C309 390 309 390 309 380C311 305 317 243 336 194C339 183 339 174 332 168C316 154 294 145 267 138C249 133 237 133 232 138C225 143 224 150 230 159C268 217 272 371 248 596C239 676 207 738 165 780C143 801 114 821 81 844C72 849 67 854 68 857C68 859 73 859 82 861C90 862 106 858 130 850C205 822 258 765 284 673C288 658 291 643 293 627C296 606 296 606 297 595Z"/>
<path id="z28859d4" d="M293 627Q294 628 299 632Q326 657 354 687Q364 697 377 697Q384 697 389 687Q393 677 388 653Q382 623 297 595C287 592 284 621 293 627Z"/>
<path id="z28859d5" d="M633 318C773 293 845 272 850 268C856 261 858 256 855 250C850 241 837 233 815 228C794 223 750 234 681 254C619 271 557 279 496 286C467 289 463 299 484 312C507 326 534 334 563 330C610 322 610 322 633 318Z"/>
<path id="z28859d6" d="M554 551C579 507 601 451 632 380C637 367 641 358 646 353C650 348 652 342 650 337C647 330 641 324 633 318C616 301 558 307 563 330C573 374 556 446 506 545C494 568 494 568 488 580C455 643 392 722 307 820C302 825 304 830 311 828C370 805 465 702 506 633C538 578 538 578 554 551Z"/>
<path id="z28859d7" d="M506 545Q502 544 498 543Q485 539 481 545Q474 552 483 569Q484 573 488 580C500 615 500 615 506 633Q521 684 532 751Q535 785 554 807Q573 832 580 814Q584 801 584 779C582 754 582 754 581 741Q563 626 559 590C554 567 529 550 506 545Z"/>
<path id="z28859d8" d="M801 713C819 645 840 601 865 582C877 568 878 554 867 541C811 501 764 490 726 510C680 526 624 539 554 551C537 553 523 551 506 545C484 536 536 594 559 590C569 589 627 578 734 558C746 555 754 556 759 561C767 567 770 579 768 595C761 637 754 675 746 709C742 727 797 731 801 713Z"/>
<path id="z28859d9" d="M584 779C590 779 598 779 606 778C650 769 721 761 818 754C826 753 830 749 831 743C831 737 821 727 801 713C786 702 764 705 746 709C745 709 745 709 745 709C684 723 629 734 581 741C568 743 571 779 584 779Z"/>
<defs>
	<clipPath id="z28859c1"><use xlink:href="#z28859d1"/></clipPath>
	<clipPath id="z28859c2"><use xlink:href="#z28859d2"/></clipPath>
	<clipPath id="z28859c3"><use xlink:href="#z28859d3"/></clipPath>
	<clipPath id="z28859c4"><use xlink:href="#z28859d4"/></clipPath>
	<clipPath id="z28859c5"><use xlink:href="#z28859d5"/></clipPath>
	<clipPath id="z28859c6"><use xlink:href="#z28859d6"/></clipPath>
	<clipPath id="z28859c7"><use xlink:href="#z28859d7"/></clipPath>
	<clipPath id="z28859c8"><use xlink:href="#z28859d8"/></clipPath>
	<clipPath id="z28859c9"><use xlink:href="#z28859d9"/></clipPath>
</defs>
<path style="--d:1s;" pathLength="3333" clip-path="url(#z28859c1)" d="M120 354L156 529"/>
<path style="--d:2s;" pathLength="3333" clip-path="url(#z28859c2)" d="M380 284L398 323L316 401"/>
<path style="--d:3s;" pathLength="3333" clip-path="url(#z28859c3)" d="M234 143L295 199L266 634L197 780L74 853"/>
<path style="--d:4s;" pathLength="3333" clip-path="url(#z28859c4)" d="M300 606L377 691"/>
<path style="--d:5s;" pathLength="3333" clip-path="url(#z28859c5)" d="M480 296L560 304L852 255"/>
<path style="--d:6s;" pathLength="3333" clip-path="url(#z28859c6)" d="M570 334L607 362L526 554L420 714L313 821"/>
<path style="--d:7s;" pathLength="3333" clip-path="url(#z28859c7)" d="M487 546L530 607L567 815"/>
<path style="--d:8s;" pathLength="3333" clip-path="url(#z28859c8)" d="M529 560L564 568L787 536L822 574L766 710"/>
<path style="--d:9s;" pathLength="3333" clip-path="url(#z28859c9)" d="M588 771L739 735L826 739"/>
</svg>