<!--
AnimCJK 2016-2017 Copyright Francois Mizessyn, http://gooo.free.fr/animCJK/
Derived from:
    MakeMeAHanzi project - https://github.com/skishore/makemeahanzi
    Arphic PL KaitiM GB - https://apps.ubuntu.com/cat/applications/precise/fonts-arphic-gkai00mp/
    Arphic PL UKai - https://apps.ubuntu.com/cat/applications/fonts-arphic-ukai/
You can redistribute and/or modify this file under the terms of the Arphic Public License
as published by Arphic Technology Co., Ltd.
You should have received a copy of this license (the directory "APL") along with this file;
if not, see http://ftp.gnu.org/non-gnu/chinese-fonts-truetype/LICENSE.
-->
<svg id="z28891" class="acjk" version="1.1" viewBox="0 0 1024 1024" xmlns="http://www.w3.org/2000/svg" xmlns:xlink="http://www.w3.org/1999/xlink">
<style>
<![CDATA[
@keyframes z28891k {
	from {
		stroke:#c00;
		stroke-dashoffset:3000;
	}
	75% {
		stroke:#c00;
		stroke-dashoffset:0;
	}
	to {
		stroke:#000;
	}
}
#z28891 path[clip-path] {
	animation:z28891k 1s linear both;
	stroke-dasharray:3000;
	stroke-width:128;
	stroke-linecap:round;
	fill:none;
}
#z28891 path[clip-path="url(#z28891c1)"] {animation-delay:1s;}
#z28891 path[clip-path="url(#z28891c2)"] {animation-delay:2s;}
#z28891 path[clip-path="url(#z28891c3)"] {animation-delay:3s;}
#z28891 path[clip-path="url(#z28891c4)"] {animation-delay:4s;}
#z28891 path[clip-path="url(#z28891c5)"] {animation-delay:5s;}
#z28891 path[clip-path="url(#z28891c6)"] {animation-delay:6s;}
#z28891 path[clip-path="url(#z28891c7)"] {animation-delay:7s;}
#z28891 path[clip-path="url(#z28891c8)"] {animation-delay:8s;}
#z28891 path[clip-path="url(#z28891c9)"] {animation-delay:9s;}
#z28891 path[clip-path="url(#z28891c10)"] {animation-delay:10s;}
#z28891 path {fill:#ccc;}
]]>
</style>
<path id="z28891d1" d="M130 307Q123 374 104 437Q100 449 103 464Q107 486 118 499Q130 514 146 496Q185 445 169 354Q165 323 152 301Q145 294 140 295Q133 298 130 307 Z"/>
<path id="z28891d2" d="M294 384Q390 309 437 282Q467 273 426 234Q407 218 387 216Q372 216 374 235Q377 262 295 357L294 384 Z"/>
<path id="z28891d3" d="M287 563Q290 467 294 384L295 357Q298 201 321 150Q328 134 316 123Q292 104 251 94Q224 87 216 95Q206 102 215 115Q275 211 236 578Q220 704 133 784Q81 823 80 829Q81 833 94 833Q106 836 137 821Q252 775 284 594L287 563 Z"/>
<path id="z28891d4" d="M284 594Q290 595 362 664Q372 674 385 674Q392 674 397 663Q401 653 395 629Q391 607 358 589Q325 574 287 563L284 594 Z"/>
<path id="z28891d5" d="M461 357Q446 350 419 348Q406 345 403 351Q396 358 406 374Q436 429 457 520Q461 547 479 565Q498 587 503 570Q506 561 506 549L503 517Q493 487 479 390L461 357 Z"/>
<path id="z28891d6" d="M782 481Q809 397 843 371Q861 353 846 335Q771 275 710 305Q674 317 641 327L595 337Q531 347 461 357L479 390Q488 389 498 385Q544 375 596 367L640 359Q673 352 710 345Q737 338 747 350Q757 359 754 378Q745 427 733 470L782 481 Z"/>
<path id="z28891d7" d="M638 528Q701 518 788 510Q798 509 800 500Q800 493 782 481L733 470Q721 470 639 492L596 501Q545 510 503 517L506 549Q516 550 527 548Q555 541 596 535L638 528 Z"/>
<path id="z28891d8" d="M634 705Q635 614 638 528L639 492Q639 425 640 359L641 327Q641 246 663 136Q666 124 644 109Q607 90 580 86Q562 82 554 92Q547 101 555 116Q591 168 591 202Q594 268 595 337L596 367Q597 431 596 501L596 535Q595 622 590 716L634 705 Z"/>
<path id="z28891d9" d="M762 673Q701 688 634 705L590 716Q521 731 447 747Q422 754 382 750Q369 751 366 761Q362 776 372 785Q394 804 429 827Q439 831 453 822Q502 792 741 712Q760 705 777 697L762 673 Z"/>
<path id="z28891d10" d="M777 697Q846 821 852 826Q859 830 869 822Q885 813 884 768Q885 705 738 588Q731 581 726 592Q722 605 729 617Q745 642 762 673L777 697 Z"/>
<defs>
	<clipPath id="z28891c1"><use xlink:href="#z28891d1"/></clipPath>
	<clipPath id="z28891c2"><use xlink:href="#z28891d2"/></clipPath>
	<clipPath id="z28891c3"><use xlink:href="#z28891d3"/></clipPath>
	<clipPath id="z28891c4"><use xlink:href="#z28891d4"/></clipPath>
	<clipPath id="z28891c5"><use xlink:href="#z28891d5"/></clipPath>
	<clipPath id="z28891c6"><use xlink:href="#z28891d6"/></clipPath>
	<clipPath id="z28891c7"><use xlink:href="#z28891d7"/></clipPath>
	<clipPath id="z28891c8"><use xlink:href="#z28891d8"/></clipPath>
	<clipPath id="z28891c9"><use xlink:href="#z28891d9"/></clipPath>
	<clipPath id="z28891c10"><use xlink:href="#z28891d10"/></clipPath>
</defs>
<path pathLength="2999" clip-path="url(#z28891c1)" d="M141 299L120 498"/>
<path pathLength="2999" clip-path="url(#z28891c2)" d="M382 226L406 269L299 375"/>
<path pathLength="2999" clip-path="url(#z28891c3)" d="M218 100L279 150L258 599L208 732L90 827"/>
<path pathLength="2999" clip-path="url(#z28891c4)" d="M294 570L389 669"/>
<path pathLength="2999" clip-path="url(#z28891c5)" d="M409 357L453 406L493 571"/>
<path pathLength="2999" clip-path="url(#z28891c6)" d="M471 361L753 320L803 357L761 476"/>
<path pathLength="2999" clip-path="url(#z28891c7)" d="M515 542L727 493L795 500"/>
<path pathLength="2999" clip-path="url(#z28891c8)" d="M557 94L622 146L603 712"/>
<path pathLength="2999" clip-path="url(#z28891c9)" d="M370 764L443 787L769 684"/>
<path pathLength="2999" clip-path="url(#z28891c10)" d="M732 595L834 730L864 821"/>
</svg>