<!--
AnimCJK 2016-2019 Copyright Francois Mizessyn - https://github.com/parsimonhi/animCJK
Derived from:
    MakeMeAHanzi project - https://github.com/skishore/makemeahanzi
    Arphic PL KaitiM GB font
    Arphic PL UKai font
You can redistribute and/or modify this file under the terms of the Arphic Public License
as published by Arphic Technology Co., Ltd.
You should have received a copy of this license along with this file.
If not, see http://ftp.gnu.org/non-gnu/chinese-fonts-truetype/LICENSE.
-->
<svg id="z28919" class="acjk" version="1.1" viewBox="0 0 1024 1024" xmlns="http://www.w3.org/2000/svg" xmlns:xlink="http://www.w3.org/1999/xlink">
<style>
<![CDATA[
@keyframes zk {
	to {
		stroke-dashoffset:0;
	}
}
svg.acjk path[clip-path] {
	--t:0.8s;
	animation:zk var(--t) linear forwards var(--d);
	stroke-dasharray:3337;
	stroke-dashoffset:3339;
	stroke-width:128;
	stroke-linecap:round;
	fill:none;
	stroke:#000;
}
svg.acjk path[id] {fill:#ccc;}
]]>
</style>
<path id="z28919d1" d="M150 348Q135 406 110 461Q97 491 116 522Q126 537 143 523Q161 505 170 475Q183 432 180 397Q181 366 171 345Q167 338 160 337Q153 340 150 348Z"/>
<path id="z28919d2" d="M303 368Q303 367 304 367Q377 322 413 306Q429 302 426 293Q422 280 406 262Q391 246 372 243Q359 243 359 259Q360 278 304 343C298 349 296 373 303 368Z"/>
<path id="z28919d3" d="M292 571Q292 556 303 368C304 351 304 351 304 343Q305 235 329 167Q336 154 325 142Q303 124 264 113Q239 107 231 114Q222 121 230 133Q288 229 243 583Q215 709 168 766Q137 800 91 837Q81 846 80 850Q81 854 93 853Q106 856 137 841Q258 789 289 599C291 580 291 580 292 571Z"/>
<path id="z28919d4" d="M289 599Q292 603 298 610Q362 685 372 688Q379 689 385 679Q391 669 388 645Q387 624 360 605Q297 569 292 571C283 569 283 591 289 599Z"/>
<path id="z28919d5" d="M581 124Q609 148 638 177Q651 189 666 189Q676 188 681 175Q685 162 677 133Q668 102 577 78Q562 74 556 77Q552 81 552 93Q556 103 581 124Z"/>
<path id="z28919d6" d="M495 284Q477 260 471 257Q468 253 462 256Q458 260 456 271Q460 298 434 356Q424 372 425 390Q428 409 437 422Q444 434 450 426Q462 423 476 380Q491 340 499 326Q502 322 504 316C508 306 502 293 495 284Z"/>
<path id="z28919d7" d="M504 316Q519 322 575 304Q632 280 730 266Q748 263 756 263Q771 267 771 274Q771 277 734 344Q727 356 733 359Q739 363 754 354Q805 320 847 310Q881 300 881 292Q880 283 816 235Q795 217 725 236Q719 236 495 284C484 286 493 314 504 316Z"/>
<path id="z28919d8" d="M518 421Q485 428 510 443Q546 461 623 442Q654 435 689 426Q708 422 712 418Q719 411 715 403Q708 393 681 387Q653 383 627 395Q605 404 579 411Q551 418 518 421Z"/>
<path id="z28919d9" d="M664 558Q716 551 789 549Q805 549 819 548Q837 547 840 539Q844 529 829 517Q777 481 717 502Q671 511 605 527Q526 542 430 560Q411 563 426 577Q439 589 456 593Q475 597 489 592Q577 564 621 563C650 560 650 560 664 558Z"/>
<path id="z28919d10" d="M500 626Q506 738 344 868Q337 875 343 878Q371 882 436 837Q500 794 547 694Q556 678 566 662Q573 655 569 645Q563 635 538 620Q519 608 511 610Q499 613 500 626Z"/>
<path id="z28919d11" d="M938 817Q928 792 915 714Q915 699 909 694Q903 691 898 707Q868 789 850 813Q826 840 757 832Q729 831 708 820Q689 810 683 796Q662 751 689 599Q695 572 664 558C651 553 616 550 621 563Q636 594 633 647Q620 833 674 865Q687 872 708 881Q834 924 930 854Q949 841 938 817Z"/>
<defs>
	<clipPath id="z28919c1"><use xlink:href="#z28919d1"/></clipPath>
	<clipPath id="z28919c2"><use xlink:href="#z28919d2"/></clipPath>
	<clipPath id="z28919c3"><use xlink:href="#z28919d3"/></clipPath>
	<clipPath id="z28919c4"><use xlink:href="#z28919d4"/></clipPath>
	<clipPath id="z28919c5"><use xlink:href="#z28919d5"/></clipPath>
	<clipPath id="z28919c6"><use xlink:href="#z28919d6"/></clipPath>
	<clipPath id="z28919c7"><use xlink:href="#z28919d7"/></clipPath>
	<clipPath id="z28919c8"><use xlink:href="#z28919d8"/></clipPath>
	<clipPath id="z28919c9"><use xlink:href="#z28919d9"/></clipPath>
	<clipPath id="z28919c10"><use xlink:href="#z28919d10"/></clipPath>
	<clipPath id="z28919c11"><use xlink:href="#z28919d11"/></clipPath>
</defs>
<path style="--d:1s;" pathLength="3333" clip-path="url(#z28919c1)" d="M162 344L131 526"/>
<path style="--d:2s;" pathLength="3333" clip-path="url(#z28919c2)" d="M372 246L389 288L306 354"/>
<path style="--d:3s;" pathLength="3333" clip-path="url(#z28919c3)" d="M235 120L290 171L262 611L205 757L90 848"/>
<path style="--d:4s;" pathLength="3333" clip-path="url(#z28919c4)" d="M296 581L381 681"/>
<path style="--d:5s;" pathLength="3333" clip-path="url(#z28919c5)" d="M560 86L636 131L666 185"/>
<path style="--d:6s;" pathLength="3333" clip-path="url(#z28919c6)" d="M465 262L476 316L447 422"/>
<path style="--d:7s;" pathLength="3333" clip-path="url(#z28919c7)" d="M501 287L786 249L825 292L737 352"/>
<path style="--d:8s;" pathLength="3333" clip-path="url(#z28919c8)" d="M510 433L708 405"/>
<path style="--d:9s;" pathLength="3333" clip-path="url(#z28919c9)" d="M425 567L745 523L836 534"/>
<path style="--d:10s;" pathLength="3333" clip-path="url(#z28919c10)" d="M508 616L534 656L493 742L436 812L347 872"/>
<path style="--d:11s;" pathLength="3333" clip-path="url(#z28919c11)" d="M629 568L661 598L661 801L701 848L809 865L883 837L907 700"/>
</svg>