<!--
AnimCJK 2016-2019 Copyright Francois Mizessyn - https://github.com/parsimonhi/animCJK
Derived from:
    MakeMeAHanzi project - https://github.com/skishore/makemeahanzi
    Arphic PL KaitiM GB font
    Arphic PL UKai font
You can redistribute and/or modify this file under the terms of the Arphic Public License
as published by Arphic Technology Co., Ltd.
You should have received a copy of this license along with this file.
If not, see http://ftp.gnu.org/non-gnu/chinese-fonts-truetype/LICENSE.
-->
<svg id="z28921" class="acjk" version="1.1" viewBox="0 0 1024 1024" xmlns="http://www.w3.org/2000/svg" xmlns:xlink="http://www.w3.org/1999/xlink">
<style>
<![CDATA[
@keyframes zk {
	to {
		stroke-dashoffset:0;
	}
}
svg.acjk path[clip-path] {
	--t:0.8s;
	animation:zk var(--t) linear forwards var(--d);
	stroke-dasharray:3337;
	stroke-dashoffset:3339;
	stroke-width:128;
	stroke-linecap:round;
	fill:none;
	stroke:#000;
}
svg.acjk path[id] {fill:#ccc;}
]]>
</style>
<path id="z28921d1" d="M487 98Q512 119 541 144Q557 157 573 155Q583 154 589 140Q593 124 581 93Q569 63 479 48Q463 45 456 49Q450 53 453 67Q457 77 487 98Z"/>
<path id="z28921d2" d="M208 223Q189 224 203 241Q216 254 234 260Q253 264 269 261Q479 206 799 206Q818 206 839 207Q858 206 863 198Q867 188 852 174Q803 135 766 144Q624 174 208 223Z"/>
<path id="z28921d3" d="M393 288Q383 284 350 282Q340 281 337 286Q331 292 341 305Q366 342 389 408Q395 427 408 440Q427 456 429 442Q430 433 430 421C425 400 425 400 423 389Q410 338 404 317C402 307 403 290 393 288Z"/>
<path id="z28921d4" d="M644 369Q668 321 690 308Q706 292 693 276Q678 263 633 240Q617 233 597 240Q515 270 393 288C383 290 394 319 404 317Q407 316 578 283Q599 279 607 287Q613 293 599 354C596 370 637 383 644 369Z"/>
<path id="z28921d5" d="M430 421Q451 411 644 392Q654 391 656 383Q656 377 644 369C631 360 615 354 599 354Q592 353 584 356Q494 378 423 389C412 391 420 425 430 421Z"/>
<path id="z28921d6" d="M563 569Q650 514 681 508Q700 502 695 486Q694 470 631 433Q613 423 591 430Q521 452 414 479Q386 486 319 482Q297 481 304 501Q311 513 330 524Q358 542 391 523Q572 466 589 474Q599 481 595 493Q574 521 551 553C547 558 558 573 563 569Z"/>
<path id="z28921d7" d="M551 553Q535 537 508 533Q490 529 483 536Q473 543 486 552Q519 570 532 606Q544 663 528 701Q518 720 493 717Q468 713 443 710Q433 709 437 717Q441 724 458 733Q492 758 506 779Q516 792 529 790Q539 787 560 763Q596 718 582 631Q575 591 563 569C560 563 556 557 551 553Z"/>
<path id="z28921d8" d="M244 746Q213 801 172 849Q148 885 161 921Q168 940 192 930Q217 915 237 883Q259 846 265 812Q275 778 270 749Q266 739 259 738Q250 738 244 746Z"/>
<path id="z28921d9" d="M377 789Q413 877 436 885Q449 891 461 875Q465 862 463 840Q459 819 437 803Q404 772 389 764Q380 760 376 771Q372 778 377 789Z"/>
<path id="z28921d10" d="M575 796Q615 874 640 879Q653 883 663 866Q667 853 662 832Q655 813 633 800Q600 776 585 771Q576 767 573 778Q570 787 575 796Z"/>
<path id="z28921d11" d="M715 746Q773 810 841 900Q856 922 871 929Q880 930 889 921Q904 909 895 861Q889 815 812 768Q799 755 719 713Q710 706 707 720Q706 733 715 746Z"/>
<defs>
	<clipPath id="z28921c1"><use xlink:href="#z28921d1"/></clipPath>
	<clipPath id="z28921c2"><use xlink:href="#z28921d2"/></clipPath>
	<clipPath id="z28921c3"><use xlink:href="#z28921d3"/></clipPath>
	<clipPath id="z28921c4"><use xlink:href="#z28921d4"/></clipPath>
	<clipPath id="z28921c5"><use xlink:href="#z28921d5"/></clipPath>
	<clipPath id="z28921c6"><use xlink:href="#z28921d6"/></clipPath>
	<clipPath id="z28921c7"><use xlink:href="#z28921d7"/></clipPath>
	<clipPath id="z28921c8"><use xlink:href="#z28921d8"/></clipPath>
	<clipPath id="z28921c9"><use xlink:href="#z28921d9"/></clipPath>
	<clipPath id="z28921c10"><use xlink:href="#z28921d10"/></clipPath>
	<clipPath id="z28921c11"><use xlink:href="#z28921d11"/></clipPath>
</defs>
<path style="--d:1s;" pathLength="3333" clip-path="url(#z28921c1)" d="M460 57L582 145"/>
<path style="--d:2s;" pathLength="3333" clip-path="url(#z28921c2)" d="M205 231L783 174L858 185"/>
<path style="--d:3s;" pathLength="3333" clip-path="url(#z28921c3)" d="M343 291L373 307L420 442"/>
<path style="--d:4s;" pathLength="3333" clip-path="url(#z28921c4)" d="M402 290L618 262L653 300L625 362"/>
<path style="--d:5s;" pathLength="3333" clip-path="url(#z28921c5)" d="M431 393L650 382"/>
<path style="--d:6s;" pathLength="3333" clip-path="url(#z28921c6)" d="M306 491L362 508L603 453L643 497L560 562"/>
<path style="--d:7s;" pathLength="3333" clip-path="url(#z28921c7)" d="M489 542L552 599L555 709L520 752L446 716"/>
<path style="--d:8s;" pathLength="3333" clip-path="url(#z28921c8)" d="M256 743L172 927"/>
<path style="--d:9s;" pathLength="3333" clip-path="url(#z28921c9)" d="M383 770L449 882"/>
<path style="--d:10s;" pathLength="3333" clip-path="url(#z28921c10)" d="M580 780L653 874"/>
<path style="--d:11s;" pathLength="3333" clip-path="url(#z28921c11)" d="M715 719L855 855L879 923"/>
</svg>