<!--
AnimCJK 2016-2019 Copyright Francois Mizessyn - https://github.com/parsimonhi/animCJK
Derived from:
    MakeMeAHanzi project - https://github.com/skishore/makemeahanzi
    Arphic PL KaitiM GB font
    Arphic PL UKai font
You can redistribute and/or modify this file under the terms of the Arphic Public License
as published by Arphic Technology Co., Ltd.
You should have received a copy of this license along with this file.
If not, see http://ftp.gnu.org/non-gnu/chinese-fonts-truetype/LICENSE.
-->
<svg id="z28940" class="acjk" version="1.1" viewBox="0 0 1024 1024" xmlns="http://www.w3.org/2000/svg" xmlns:xlink="http://www.w3.org/1999/xlink">
<style>
<![CDATA[
@keyframes zk {
	to {
		stroke-dashoffset:0;
	}
}
svg.acjk path[clip-path] {
	--t:0.8s;
	animation:zk var(--t) linear forwards var(--d);
	stroke-dasharray:3337;
	stroke-dashoffset:3339;
	stroke-width:128;
	stroke-linecap:round;
	fill:none;
	stroke:#000;
}
svg.acjk path[id] {fill:#ccc;}
]]>
</style>
<path id="z28940d1" d="M129 333Q116 391 94 447Q79 480 103 510Q113 525 131 510Q173 464 163 383Q163 352 152 329Q145 322 140 322Q133 325 129 333Z"/>
<path id="z28940d2" d="M282 368Q358 322 396 306Q412 303 409 293Q405 280 390 262Q375 246 356 242Q344 242 343 258Q344 274 283 341C277 347 275 373 282 368Z"/>
<path id="z28940d3" d="M268 590Q277 524 282 368C283 350 283 350 283 341Q284 239 306 178Q313 165 301 154Q279 136 240 126Q215 119 207 127Q198 134 206 146Q257 225 225 558Q209 690 124 775Q64 826 64 830Q65 834 77 833Q90 836 120 821Q222 776 262 620Q262 614 264 610C267 597 267 597 268 590Z"/>
<path id="z28940d4" d="M264 610Q268 616 280 627Q304 649 329 678Q338 688 349 688Q356 689 362 679Q366 669 361 647Q358 629 333 614Q276 587 268 590C261 590 260 605 264 610Z"/>
<path id="z28940d5" d="M711 285Q629 298 542 320Q533 324 530 321Q527 317 533 308Q624 173 645 150Q657 140 650 128Q643 116 596 95Q580 88 570 92Q557 99 564 119Q585 174 491 295Q472 314 443 336Q430 349 434 359Q440 375 465 395Q477 405 489 394Q534 357 727 308C728 308 728 308 728 308C737 306 720 283 711 285Z"/>
<path id="z28940d6" d="M728 308Q771 368 782 371Q791 372 797 363Q804 353 803 327Q803 302 773 275Q701 223 688 226Q684 227 682 238Q682 250 711 285C722 300 722 300 728 308Z"/>
<path id="z28940d7" d="M459 438Q453 484 375 577Q359 592 381 586Q427 580 497 491Q513 469 522 459Q529 449 527 440Q523 430 500 426Q475 420 466 424Q459 427 459 438Z"/>
<path id="z28940d8" d="M681 421Q733 461 796 520Q811 536 824 538Q831 539 837 530Q846 518 832 482Q820 437 680 395Q671 391 671 402Q671 414 681 421Z"/>
<path id="z28940d9" d="M566 563Q581 541 591 529Q598 517 596 510Q592 498 568 494Q543 488 532 492Q525 493 524 506Q518 587 339 765Q323 780 346 774Q397 762 500 651C509 641 509 641 513 636Q531 612 547 590Q548 587 549 586C560 571 560 571 566 563Z"/>
<path id="z28940d10" d="M604 751Q535 832 384 873Q371 877 382 885Q388 889 432 887Q544 878 634 786C652 762 652 762 661 750Q695 698 728 623Q741 596 760 580Q779 567 767 553Q755 541 727 529Q705 522 679 533Q657 542 629 550Q604 556 566 563C557 565 540 583 549 586Q582 598 627 586Q655 573 661 572Q682 575 675 597Q657 667 626 719C611 740 611 740 604 751Z"/>
<path id="z28940d11" d="M634 786Q740 910 782 909Q860 910 922 901Q955 897 952 888Q949 878 797 833Q734 811 661 750C638 729 638 729 626 719Q601 697 577 671Q544 637 513 636C506 636 495 646 500 651Q501 652 506 656Q543 678 604 751C624 774 624 774 634 786Z"/>
<defs>
	<clipPath id="z28940c1"><use xlink:href="#z28940d1"/></clipPath>
	<clipPath id="z28940c2"><use xlink:href="#z28940d2"/></clipPath>
	<clipPath id="z28940c3"><use xlink:href="#z28940d3"/></clipPath>
	<clipPath id="z28940c4"><use xlink:href="#z28940d4"/></clipPath>
	<clipPath id="z28940c5"><use xlink:href="#z28940d5"/></clipPath>
	<clipPath id="z28940c6"><use xlink:href="#z28940d6"/></clipPath>
	<clipPath id="z28940c7"><use xlink:href="#z28940d7"/></clipPath>
	<clipPath id="z28940c8"><use xlink:href="#z28940d8"/></clipPath>
	<clipPath id="z28940c9"><use xlink:href="#z28940d9"/></clipPath>
	<clipPath id="z28940c10"><use xlink:href="#z28940d10"/></clipPath>
	<clipPath id="z28940c11"><use xlink:href="#z28940d11"/></clipPath>
</defs>
<path style="--d:1s;" pathLength="3333" clip-path="url(#z28940c1)" d="M142 329L103 509"/>
<path style="--d:2s;" pathLength="3333" clip-path="url(#z28940c2)" d="M402 295L357 282L286 357"/>
<path style="--d:3s;" pathLength="3333" clip-path="url(#z28940c3)" d="M210 135L266 178L244 590L187 735L74 830"/>
<path style="--d:4s;" pathLength="3333" clip-path="url(#z28940c4)" d="M273 597L337 649L346 684"/>
<path style="--d:5s;" pathLength="3333" clip-path="url(#z28940c5)" d="M573 99L609 147L486 345L508 360L719 302"/>
<path style="--d:6s;" pathLength="3333" clip-path="url(#z28940c6)" d="M689 232L759 302L787 364"/>
<path style="--d:7s;" pathLength="3333" clip-path="url(#z28940c7)" d="M524 443L481 456L377 580"/>
<path style="--d:8s;" pathLength="3333" clip-path="url(#z28940c8)" d="M676 401L799 482L826 534"/>
<path style="--d:9s;" pathLength="3333" clip-path="url(#z28940c9)" d="M590 512L549 526L475 646L341 771"/>
<path style="--d:10s;" pathLength="3333" clip-path="url(#z28940c10)" d="M561 584L663 555L719 565L662 703L556 822L387 879"/>
<path style="--d:11s;" pathLength="3333" clip-path="url(#z28940c11)" d="M509 649L772 865L944 889"/>
</svg>