<!--
AnimCJK 2016-2017 Copyright Francois Mizessyn, http://gooo.free.fr/animCJK/
Derived from:
    MakeMeAHanzi project - https://github.com/skishore/makemeahanzi
    Arphic PL KaitiM GB - https://apps.ubuntu.com/cat/applications/precise/fonts-arphic-gkai00mp/
    Arphic PL UKai - https://apps.ubuntu.com/cat/applications/fonts-arphic-ukai/
You can redistribute and/or modify this file under the terms of the Arphic Public License
as published by Arphic Technology Co., Ltd.
You should have received a copy of this license (the directory "APL") along with this file;
if not, see http://ftp.gnu.org/non-gnu/chinese-fonts-truetype/LICENSE.
-->
<svg id="z28954" class="acjk" version="1.1" viewBox="0 0 1024 1024" xmlns="http://www.w3.org/2000/svg" xmlns:xlink="http://www.w3.org/1999/xlink">
<style>
<![CDATA[
	@keyframes z28954k {
		from {
			stroke:#c00;
			stroke-dashoffset:3000;
		}
		75% {
			stroke:#c00;
			stroke-dashoffset:0;
		}
		to {
			stroke:#000;
		}
	}
	#z28954 path[clip-path] {
		animation:z28954k 1s linear both;
		stroke-dasharray:3000;
		stroke-width:128;
		stroke-linecap:round;
		fill:none;
	}
	#z28954 path[clip-path="url(#z28954c1)"] {animation-delay:1s;}
	#z28954 path[clip-path="url(#z28954c2)"] {animation-delay:2s;}
	#z28954 path[clip-path="url(#z28954c3)"] {animation-delay:3s;}
	#z28954 path[clip-path="url(#z28954c4)"] {animation-delay:4s;}
	#z28954 path[clip-path="url(#z28954c5)"] {animation-delay:5s;}
	#z28954 path[clip-path="url(#z28954c6)"] {animation-delay:6s;}
	#z28954 path[clip-path="url(#z28954c7)"] {animation-delay:7s;}
	#z28954 path[clip-path="url(#z28954c8)"] {animation-delay:8s;}
	#z28954 path[clip-path="url(#z28954c9)"] {animation-delay:9s;}
	#z28954 path[clip-path="url(#z28954c10)"] {animation-delay:10s;}
	#z28954 path[clip-path="url(#z28954c11)"] {animation-delay:11s;}
	#z28954 path[clip-path="url(#z28954c12)"] {animation-delay:12s;}
	#z28954 path {fill:#ccc;}
]]>
</style>
<g transform="scale(1,-1) translate(0,-900)">
	<path id="z28954d1" d="M375 618Q396 624 420 628Q457 637 463 642Q470 649 467 657Q460 667 434 674Q406 680 380 668L336 654Q239 629 180 622Q146 616 171 601Q210 580 284 598Q302 602 322 606L375 618Z"/>
	<path id="z28954d2" d="M332 535Q328 477 322 450Q321 437 326 420Q332 410 337 399Q347 383 361 391Q376 403 372 502Q371 562 375 618L380 668Q383 740 406 782Q412 791 401 805Q379 823 351 834Q335 843 321 837Q308 833 313 818Q335 782 336 654L332 535Z"/>
	<path id="z28954d3" d="M322 606Q274 500 122 377Q112 367 120 365Q127 361 138 366Q234 402 331 533Q331 534 332 535L334.481546572935 608.8260105448155L322 606Z"/>
	<path id="z28954d4" d="M394 557Q427 509 448 506Q458 505 465 520Q466 530 459 547Q452 559 435 565Q410 577 398 579Q391 580 390 571Q389 564 394 557Z"/>
	<path id="z28954d5" d="M675 646Q837 685 839 686Q846 693 843 701Q836 711 810 719Q782 723 755 713Q718 701 678 689L636 678Q584 669 524 662Q491 656 515 641Q554 620 604 631Q607 632 612 632L675 646Z"/>
	<path id="z28954d6" d="M673 577Q672 613 675 646L678 689Q681 770 703 810Q709 820 698 833Q646 875 617 865Q604 861 610 846Q637 803 635 735Q635 705 636 678L635 587Q634 505 625 470Q624 455 630 439Q636 430 641 418Q651 403 665 411Q675 420 676 486Q673 525 673 555L673 577Z"/>
	<path id="z28954d7" d="M612 632Q569 554 463 469Q453 459 460 457Q467 453 478 457Q544 478 626 575Q630 582 635 587L635.5520195838433 637.233782129743L612 632Z"/>
	<path id="z28954d8" d="M673 555Q680 551 697 543Q754 518 816 486Q829 479 840 483Q847 484 849 496Q850 508 838 529Q817 569 684 578Q677 578 673 577L673 555Z"/>
	<path id="z28954d9" d="M275 266Q299 224 329 206Q344 202 355 213Q362 226 362 243Q358 268 342 283Q293 316 266 308Q259 307 261 295Q261 282 275 266Z"/>
	<path id="z28954d10" d="M628 339Q613 324 537 264Q524 251 541 251Q584 264 656 291Q675 301 699 305Q720 309 714 327Q705 345 686 363Q667 381 656 380Q644 381 645 369Q644 353 628 339Z"/>
	<path id="z28954d11" d="M475 238Q482 269 488 301Q494 347 504 361Q511 376 501 384Q488 397 460 402Q438 409 420 402Q408 396 416 382Q443 348 428 280Q407 115 212 11Q185 -2 154 -18Q138 -28 159 -29Q295 -20 388 71Q427 110 467 211L475 238Z"/>
	<path id="z28954d12" d="M467 211Q585 87 712 -25Q739 -50 781 -49Q860 -50 940 -31Q961 -28 963 -22Q964 -15 948 -9Q741 60 728 66Q602 138 485 230Q479 236 475 238L467 211Z"/>
	<defs>
		<clipPath id="z28954c1"><use xlink:href="#z28954d1"/></clipPath>
		<clipPath id="z28954c2"><use xlink:href="#z28954d2"/></clipPath>
		<clipPath id="z28954c3"><use xlink:href="#z28954d3"/></clipPath>
		<clipPath id="z28954c4"><use xlink:href="#z28954d4"/></clipPath>
		<clipPath id="z28954c5"><use xlink:href="#z28954d5"/></clipPath>
		<clipPath id="z28954c6"><use xlink:href="#z28954d6"/></clipPath>
		<clipPath id="z28954c7"><use xlink:href="#z28954d7"/></clipPath>
		<clipPath id="z28954c8"><use xlink:href="#z28954d8"/></clipPath>
		<clipPath id="z28954c9"><use xlink:href="#z28954d9"/></clipPath>
		<clipPath id="z28954c10"><use xlink:href="#z28954d10"/></clipPath>
		<clipPath id="z28954c11"><use xlink:href="#z28954d11"/></clipPath>
		<clipPath id="z28954c12"><use xlink:href="#z28954d12"/></clipPath>
	</defs>
	<path pathLength="2999" clip-path="url(#z28954c1)" d="M169 614L464 653"/>
	<path pathLength="2999" clip-path="url(#z28954c2)" d="M319 830L368 775L350 393"/>
	<path pathLength="2999" clip-path="url(#z28954c3)" d="M327 600L271 491L124 370"/>
	<path pathLength="2999" clip-path="url(#z28954c4)" d="M397 572L459 516"/>
	<path pathLength="2999" clip-path="url(#z28954c5)" d="M513 652L837 697"/>
	<path pathLength="2999" clip-path="url(#z28954c6)" d="M616 856L668 807L653 412"/>
	<path pathLength="2999" clip-path="url(#z28954c7)" d="M629 630L566 538L465 461"/>
	<path pathLength="2999" clip-path="url(#z28954c8)" d="M680 572L844 492"/>
	<path pathLength="2999" clip-path="url(#z28954c9)" d="M267 300L351 215"/>
	<path pathLength="2999" clip-path="url(#z28954c10)" d="M654 376L663 319L543 260"/>
	<path pathLength="2999" clip-path="url(#z28954c11)" d="M418 396L469 361L440 214L396 127L290 30L155 -23"/>
	<path pathLength="2999" clip-path="url(#z28954c12)" d="M479 229L753 5L956 -18"/>
</g>
</svg>