<!--
AnimCJK 2016-2019 Copyright Francois Mizessyn - https://github.com/parsimonhi/animCJK
Derived from:
    MakeMeAHanzi project - https://github.com/skishore/makemeahanzi
    Arphic PL KaitiM GB font
    Arphic PL UKai font
You can redistribute and/or modify this file under the terms of the Arphic Public License
as published by Arphic Technology Co., Ltd.
You should have received a copy of this license along with this file.
If not, see http://ftp.gnu.org/non-gnu/chinese-fonts-truetype/LICENSE.
-->
<svg id="z28956" class="acjk" version="1.1" viewBox="0 0 1024 1024" xmlns="http://www.w3.org/2000/svg" xmlns:xlink="http://www.w3.org/1999/xlink">
<style>
<![CDATA[
@keyframes zk {
	to {
		stroke-dashoffset:0;
	}
}
svg.acjk path[clip-path] {
	--t:0.8s;
	animation:zk var(--t) linear forwards var(--d);
	stroke-dasharray:3337;
	stroke-dashoffset:3339;
	stroke-width:128;
	stroke-linecap:round;
	fill:none;
	stroke:#000;
}
svg.acjk path[id] {fill:#ccc;}
]]>
</style>
<path id="z28956d1" d="M131 386Q124 438 108 488Q99 522 123 547Q133 560 149 545Q186 500 168 431Q165 400 152 381Q145 374 140 375Q133 378 131 386Z"/>
<path id="z28956d2" d="M287 394Q315 379 334 367Q391 331 405 327Q421 320 414 307Q405 294 387 280Q369 268 360 270Q350 271 352 281Q352 300 288 367C282 373 279 398 287 394Z"/>
<path id="z28956d3" d="M267 653Q267 652 268 651Q284 569 286 453Q286 423 287 394C288 376 288 376 288 367Q291 219 308 179Q315 164 303 154Q281 136 240 126Q215 120 206 128Q196 135 205 148Q269 241 227 598Q224 607 224 617Q199 764 102 873Q93 882 85 892Q75 902 75 906Q78 910 89 907Q101 911 132 891Q222 842 261 683C265 663 265 663 267 653Z"/>
<path id="z28956d4" d="M261 683Q294 716 331 760Q340 770 352 772Q359 773 365 763Q371 753 367 729Q363 693 269 653C268 653 268 653 267 653C257 651 254 676 261 683Z"/>
<path id="z28956d5" d="M474 170Q462 164 450 161Q444 158 439 163Q432 169 441 179Q477 237 485 383Q486 435 522 465C523 466 523 466 523 466Q539 470 540 442Q540 441 540 439C539 422 539 422 538 413Q535 397 531 378Q528 351 523 318C521 303 521 303 520 295Q516 249 515 210Q515 206 514 204C511 187 490 176 474 170Z"/>
<path id="z28956d6" d="M700 423Q700 426 702 430Q708 445 720 443Q733 442 740 427Q756 402 778 285Q793 233 828 203Q847 187 830 171Q811 155 761 130Q748 123 683 136Q662 136 565 156Q513 166 480 169Q477 169 474 170C457 173 497 204 514 204Q521 205 528 203Q580 188 701 176Q723 175 730 179Q743 186 737 224Q715 359 703 393C699 402 698 413 700 423Z"/>
<path id="z28956d7" d="M523 318Q553 324 629 314Q644 310 661 308Q677 305 679 303Q686 296 682 289Q676 280 653 274Q641 271 568 289Q547 293 523 294Q520 294 520 295C512 296 515 316 523 318Z"/>
<path id="z28956d8" d="M540 439Q544 439 549 439Q634 429 700 423C710 421 713 396 703 393Q676 378 538 413C529 415 531 439 540 439Z"/>
<path id="z28956d9" d="M496 643Q532 649 635 616Q636 615 637 615Q644 608 639 601Q632 592 609 588Q584 585 561 597Q545 604 527 609Q512 612 497 616C488 618 487 641 496 643Z"/>
<path id="z28956d10" d="M497 616Q497 568 501 554Q505 541 496 532Q474 513 455 503Q439 496 431 501Q421 507 429 521Q462 590 450 713Q446 756 410 800Q386 828 425 868Q435 875 447 861Q463 836 597 740Q615 730 620 721Q624 714 615 712Q606 712 505 757Q490 763 490 750Q494 692 496 643C497 625 497 625 497 616Z"/>
<path id="z28956d11" d="M719 638Q831 575 887 553Q906 552 904 538Q900 520 882 498Q864 476 841 470Q825 469 823 490Q824 505 812 520Q779 556 722 607C715 614 710 643 719 638Z"/>
<path id="z28956d12" d="M891 792Q884 802 859 809Q802 821 755 799Q736 789 731 776Q710 736 719 638C721 617 721 617 722 607Q723 568 733 526Q737 508 726 499Q713 486 690 477Q677 473 669 478Q662 482 668 500Q681 537 678 575Q668 747 682 795Q686 817 705 834Q744 873 839 877Q917 878 976 836Q995 821 983 795Q971 768 956 687Q956 671 949 666Q943 663 938 680Q910 765 891 792Z"/>
<defs>
	<clipPath id="z28956c1"><use xlink:href="#z28956d1"/></clipPath>
	<clipPath id="z28956c2"><use xlink:href="#z28956d2"/></clipPath>
	<clipPath id="z28956c3"><use xlink:href="#z28956d3"/></clipPath>
	<clipPath id="z28956c4"><use xlink:href="#z28956d4"/></clipPath>
	<clipPath id="z28956c5"><use xlink:href="#z28956d5"/></clipPath>
	<clipPath id="z28956c6"><use xlink:href="#z28956d6"/></clipPath>
	<clipPath id="z28956c7"><use xlink:href="#z28956d7"/></clipPath>
	<clipPath id="z28956c8"><use xlink:href="#z28956d8"/></clipPath>
	<clipPath id="z28956c9"><use xlink:href="#z28956d9"/></clipPath>
	<clipPath id="z28956c10"><use xlink:href="#z28956d10"/></clipPath>
	<clipPath id="z28956c11"><use xlink:href="#z28956d11"/></clipPath>
	<clipPath id="z28956c12"><use xlink:href="#z28956d12"/></clipPath>
</defs>
<path style="--d:1s;" pathLength="3333" clip-path="url(#z28956c1)" d="M140 381L127 546"/>
<path style="--d:2s;" pathLength="3333" clip-path="url(#z28956c2)" d="M410 315L363 308L290 382"/>
<path style="--d:3s;" pathLength="3333" clip-path="url(#z28956c3)" d="M207 131L268 180L246 634L188 798L82 903"/>
<path style="--d:4s;" pathLength="3333" clip-path="url(#z28956c4)" d="M272 658L353 766"/>
<path style="--d:5s;" pathLength="3333" clip-path="url(#z28956c5)" d="M444 168L490 225L526 460"/>
<path style="--d:6s;" pathLength="3333" clip-path="url(#z28956c6)" d="M484 170L529 182L731 152L773 174L787 199L719 439"/>
<path style="--d:7s;" pathLength="3333" clip-path="url(#z28956c7)" d="M527 298L676 293"/>
<path style="--d:8s;" pathLength="3333" clip-path="url(#z28956c8)" d="M545 431L701 409"/>
<path style="--d:9s;" pathLength="3333" clip-path="url(#z28956c9)" d="M503 636L631 607"/>
<path style="--d:10s;" pathLength="3333" clip-path="url(#z28956c10)" d="M433 509L472 555L452 817L614 717"/>
<path style="--d:11s;" pathLength="3333" clip-path="url(#z28956c11)" d="M837 474L857 533L725 630"/>
<path style="--d:12s;" pathLength="3333" clip-path="url(#z28956c12)" d="M673 480L704 521L698 754L735 822L838 845L920 823L944 796L947 676"/>
</svg>