<!--
AnimCJK 2016-2017 Copyright Francois Mizessyn, http://gooo.free.fr/animCJK/
Derived from:
    MakeMeAHanzi project - https://github.com/skishore/makemeahanzi
    Arphic PL KaitiM GB - https://apps.ubuntu.com/cat/applications/precise/fonts-arphic-gkai00mp/
    Arphic PL UKai - https://apps.ubuntu.com/cat/applications/fonts-arphic-ukai/
You can redistribute and/or modify this file under the terms of the Arphic Public License
as published by Arphic Technology Co., Ltd.
You should have received a copy of this license (the directory "APL") along with this file;
if not, see http://ftp.gnu.org/non-gnu/chinese-fonts-truetype/LICENSE.
-->
<svg id="z29006" class="acjk" version="1.1" viewBox="0 0 1024 1024" xmlns="http://www.w3.org/2000/svg" xmlns:xlink="http://www.w3.org/1999/xlink">
<style>
<![CDATA[
	@keyframes z29006k {
		from {
			stroke:#c00;
			stroke-dashoffset:3000;
		}
		75% {
			stroke:#c00;
			stroke-dashoffset:0;
		}
		to {
			stroke:#000;
		}
	}
	#z29006 path[clip-path] {
		animation:z29006k 1s linear both;
		stroke-dasharray:3000;
		stroke-width:128;
		stroke-linecap:round;
		fill:none;
	}
	#z29006 path[clip-path="url(#z29006c1)"] {animation-delay:1s;}
	#z29006 path[clip-path="url(#z29006c2)"] {animation-delay:2s;}
	#z29006 path[clip-path="url(#z29006c3)"] {animation-delay:3s;}
	#z29006 path[clip-path="url(#z29006c4)"] {animation-delay:4s;}
	#z29006 path[clip-path="url(#z29006c5)"] {animation-delay:5s;}
	#z29006 path[clip-path="url(#z29006c6)"] {animation-delay:6s;}
	#z29006 path[clip-path="url(#z29006c7)"] {animation-delay:7s;}
	#z29006 path[clip-path="url(#z29006c8)"] {animation-delay:8s;}
	#z29006 path[clip-path="url(#z29006c9)"] {animation-delay:9s;}
	#z29006 path[clip-path="url(#z29006c10)"] {animation-delay:10s;}
	#z29006 path[clip-path="url(#z29006c11)"] {animation-delay:11s;}
	#z29006 path[clip-path="url(#z29006c12)"] {animation-delay:12s;}
	#z29006 path[clip-path="url(#z29006c13)"] {animation-delay:13s;}
	#z29006 path {fill:#ccc;}
]]>
</style>
<g transform="scale(1,-1) translate(0,-900)">
	<path id="z29006d1" d="M369 740Q420 689 438 687Q448 688 453 701Q457 714 449 743Q445 759 419 771Q356 793 344 787Q340 783 340 771Q344 761 369 740Z"/>
	<path id="z29006d2" d="M561 663Q589 694 606 715Q666 785 678 794Q696 809 682 823Q666 836 637 844Q612 851 600 846Q587 842 595 829Q605 805 531 659L561 663Z"/>
	<path id="z29006d3" d="M531 659Q515 658 497 655Q343 636 162 616Q140 613 156 595Q171 580 190 574Q212 568 230 573Q437 630 808 629Q829 629 852 628Q874 628 879 637Q885 650 867 665Q813 707 771 698Q689 682 561 663L531 659Z"/>
	<path id="z29006d4" d="M324 341Q325 381 328 410L330 440Q331 483 335 499Q335 502 335 504L328 526Q307 547 278 545Q266 541 271 531Q308 453 271 299Q256 253 256 248Q256 221 273 200Q279 188 288 193Q322 220 323 313L324 341Z"/>
	<path id="z29006d5" d="M335 504Q347 505 361 510Q428 525 438 520Q448 514 446 493Q455 363 446 263Q445 242 432 239Q423 236 376 248Q366 252 366 245Q367 238 380 229Q410 201 432 173Q444 158 458 159Q471 162 488 198Q509 235 506 274Q502 367 497 452Q496 485 509 512Q519 525 507 537Q492 550 459 561Q444 568 403 550Q366 538 328 526L335 504Z"/>
	<path id="z29006d6" d="M328 410Q374 417 409 422Q430 426 421 437Q411 450 388 452Q367 453 331 441Q330 441 330 440L328 410Z"/>
	<path id="z29006d7" d="M323 313Q375 319 413 326Q434 330 425 341Q415 354 392 357Q353 360 324 341L323 313Z"/>
	<path id="z29006d8" d="M560 505Q581 459 568 338Q564 317 585 286Q594 277 601 287Q616 306 616 373Q616 451 621 480Q627 499 609 509Q596 516 581 524Q571 528 563 523Q556 519 560 505Z"/>
	<path id="z29006d9" d="M670 260Q645 264 621 270Q611 273 611 267Q611 260 621 253Q673 198 693 165Q706 149 720 162Q754 193 753 256Q741 484 756 528Q763 544 749 556Q725 575 699 584Q683 590 675 583Q669 577 679 564Q700 530 699 490Q708 277 689 262Q682 256 670 260Z"/>
	<path id="z29006d10" d="M237 139Q209 91 171 51Q144 21 158 -17Q164 -36 187 -27Q242 3 255 75Q265 109 262 135Q258 145 252 146Q243 146 237 139Z"/>
	<path id="z29006d11" d="M368 119Q411 20 432 11Q445 5 457 21Q463 33 460 56Q451 99 381 144Q372 148 368 137Q364 130 368 119Z"/>
	<path id="z29006d12" d="M546 126Q598 32 619 25Q632 21 644 38Q648 51 644 74Q637 96 613 114Q576 145 558 153Q548 157 545 145Q541 138 546 126Z"/>
	<path id="z29006d13" d="M735 113Q775 70 823 9Q838 -12 853 -17Q860 -18 869 -10Q882 3 872 47Q866 87 801 116Q761 135 738 143Q729 149 727 137Q726 124 735 113Z"/>
	<defs>
		<clipPath id="z29006c1"><use xlink:href="#z29006d1"/></clipPath>
		<clipPath id="z29006c2"><use xlink:href="#z29006d2"/></clipPath>
		<clipPath id="z29006c3"><use xlink:href="#z29006d3"/></clipPath>
		<clipPath id="z29006c4"><use xlink:href="#z29006d4"/></clipPath>
		<clipPath id="z29006c5"><use xlink:href="#z29006d5"/></clipPath>
		<clipPath id="z29006c6"><use xlink:href="#z29006d6"/></clipPath>
		<clipPath id="z29006c7"><use xlink:href="#z29006d7"/></clipPath>
		<clipPath id="z29006c8"><use xlink:href="#z29006d8"/></clipPath>
		<clipPath id="z29006c9"><use xlink:href="#z29006d9"/></clipPath>
		<clipPath id="z29006c10"><use xlink:href="#z29006d10"/></clipPath>
		<clipPath id="z29006c11"><use xlink:href="#z29006d11"/></clipPath>
		<clipPath id="z29006c12"><use xlink:href="#z29006d12"/></clipPath>
		<clipPath id="z29006c13"><use xlink:href="#z29006d13"/></clipPath>
	</defs>
	<path pathLength="2999" clip-path="url(#z29006c1)" d="M348 778L415 739L443 693"/>
	<path pathLength="2999" clip-path="url(#z29006c2)" d="M601 838L638 798L539 665"/>
	<path pathLength="2999" clip-path="url(#z29006c3)" d="M153 608L227 598L781 664L876 648"/>
	<path pathLength="2999" clip-path="url(#z29006c4)" d="M278 540L307 508L310 461L280 197"/>
	<path pathLength="2999" clip-path="url(#z29006c5)" d="M335 525L445 542L479 514L470 233L445 199L374 241"/>
	<path pathLength="2999" clip-path="url(#z29006c6)" d="M336 418L415 435"/>
	<path pathLength="2999" clip-path="url(#z29006c7)" d="M332 321L420 339"/>
	<path pathLength="2999" clip-path="url(#z29006c8)" d="M566 516L595 484L589 291"/>
	<path pathLength="2999" clip-path="url(#z29006c9)" d="M679 580L725 538L722 251L691 208L616 264"/>
	<path pathLength="2999" clip-path="url(#z29006c10)" d="M251 141L170 -24"/>
	<path pathLength="2999" clip-path="url(#z29006c11)" d="M375 139L437 14"/>
	<path pathLength="2999" clip-path="url(#z29006c12)" d="M552 145L632 29"/>
	<path pathLength="2999" clip-path="url(#z29006c13)" d="M735 132L828 59L864 -11"/>
</g>
</svg>