<!--
AnimCJK 2016-2018 Copyright Francois Mizessyn, http://gooo.free.fr/animCJK/
Derived from:
    MakeMeAHanzi project - https://github.com/skishore/makemeahanzi
    Arphic PL KaitiM GB - https://apps.ubuntu.com/cat/applications/precise/fonts-arphic-gkai00mp/
    Arphic PL UKai - https://apps.ubuntu.com/cat/applications/fonts-arphic-ukai/
You can redistribute and/or modify this file under the terms of the Arphic Public License
as published by Arphic Technology Co., Ltd.
You should have received a copy of this license (the directory "APL") along with this file;
if not, see http://ftp.gnu.org/non-gnu/chinese-fonts-truetype/LICENSE.
-->
<svg id="z29093" class="acjk" version="1.1" viewBox="0 0 1024 1024" xmlns="http://www.w3.org/2000/svg" xmlns:xlink="http://www.w3.org/1999/xlink">
<style>
<![CDATA[
@keyframes z29093k {
	from {
		stroke:#ccc;
		stroke-dashoffset:3334;
	}
	1% {
		stroke:#c00;
		stroke-dashoffset:3334;
	}
	75% {
		stroke:#c00;
		stroke-dashoffset:0;
	}
	to {
		stroke:#000;
	}
}
#z29093 path[clip-path] {
	animation:z29093k 1s linear both;
	stroke-dasharray:3334;
	stroke-width:128;
	stroke-linecap:round;
	fill:none;
}
#z29093 path[clip-path="url(#z29093c1)"] {animation-delay:1s;}
#z29093 path[clip-path="url(#z29093c2)"] {animation-delay:2s;}
#z29093 path[clip-path="url(#z29093c3)"] {animation-delay:3s;}
#z29093 path[clip-path="url(#z29093c4)"] {animation-delay:4s;}
#z29093 path[clip-path="url(#z29093c5)"] {animation-delay:5s;}
#z29093 path[clip-path="url(#z29093c6)"] {animation-delay:6s;}
#z29093 path[clip-path="url(#z29093c7)"] {animation-delay:7s;}
#z29093 path[clip-path="url(#z29093c8)"] {animation-delay:8s;}
#z29093 path[clip-path="url(#z29093c9)"] {animation-delay:9s;}
#z29093 path[clip-path="url(#z29093c10)"] {animation-delay:10s;}
#z29093 path[clip-path="url(#z29093c11)"] {animation-delay:11s;}
#z29093 path[clip-path="url(#z29093c12)"] {animation-delay:12s;}
#z29093 path[clip-path="url(#z29093c13)"] {animation-delay:13s;}
#z29093 path[clip-path="url(#z29093c14)"] {animation-delay:14s;}
#z29093 path {fill:#ccc;}
]]>
</style>
<path id="z29093d1" d="M 112,363 C 117,397 120,431 120,465 119,487 130,503 150,516 158,521 167,519 173,506 187,471 180,434 158,393 149,376 141,362 129,352 124,348 120,348 117,350 112,352 111,357 112,363 Z"/>
<path id="z29093d2" d="M279 415Q345 372 377 357Q390 354 388 345Q384 333 370 319Q357 304 339 302Q329 302 328 317Q329 332 280 392L279 415 Z"/>
<path id="z29093d3" d="M 275,567 C 276,551 276,535 277,519 278,484 277,449 279,415 L 280,392 C 284,285 288,209 305,165 308,156 308,147 300,140 286,128 266,120 241,114 225,109 214,110 209,115 203,119 202,126 208,133 241,172 247,420 226,613 220,659 201,746 132,819 118,832 102,845 86,861 79,867 75,871 76,874 76,876 80,875 88,876 97,876 110,873 130,864 194,834 239,772 262,675 267,652 271,626 273,598 Z"/>
<path id="z29093d4" d="M273 598Q333 655 342 656Q349 656 354 647Q358 637 353 617Q346 590 275 567L273 598 Z"/>
<path id="z29093d5" d="M 738,260 C 798,211 838,184 856,179 868,174 871,167 868,157 865,148 844,132 804,110 793,104 780,103 766,109 735,121 695,134 648,150 635,154 614,156 584,156 570,155 565,161 571,174 575,182 583,189 595,196 613,206 633,204 654,193 663,187 694,174 744,152 752,148 759,148 767,153 773,157 777,165 773,173 759,196 742,220 725,248 Z"/>
<path id="z29093d6" d="M 725,248 Q 716,242 661,232 651,231 646,234 642,237 644,246 648,253 669,267 691,282 715,301 725,308 737,307 744,306 748,296 749,272 738,260 L 725,248 Z"/>
<path id="z29093d7" d="M 587,356 C 587,355 586,355 586,355 568,346 553,341 543,344 534,345 533,351 536,359 554,408 565,500 544,597 533,642 528,672 550,700 556,707 560,711 566,707 584,693 596,653 598,587 600,479 602,413 604,389 Z"/>
<path id="z29093d8" d="M 716,361 C 740,355 768,348 798,343 810,340 819,342 827,348 831,351 836,363 839,388 846,468 847,555 846,647 845,659 844,667 839,672 832,677 813,680 780,678 771,677 767,679 768,685 768,689 773,690 780,695 812,715 835,737 852,753 864,764 874,768 882,766 888,764 895,754 901,738 909,712 912,680 909,643 894,476 891,383 901,365 907,352 906,343 901,337 894,329 878,317 852,305 839,299 814,305 774,316 699,336 637,347 587,356 L 604,389 C 612,386 635,380 674,371 Z"/>
<path id="z29093d9" d="M 734,479 C 754,474 775,469 795,466 809,463 812,458 807,451 800,442 789,437 775,436 764,435 750,435 735,441 L 689,457 C 668,464 649,470 631,476 622,478 621,494 636,493 636,493 671,491 689,489 704,486 734,479 734,479 Z"/>
<path id="z29093d10" d="M 732,572 C 754,566 777,561 799,558 813,555 816,550 811,543 804,534 793,528 779,527 766,525 750,528 732,535 L 689,550 C 668,557 649,562 632,568 622,571 623,576 636,585 640,588 671,583 689,581 703,578 709,577 732,572 Z"/>
<path id="z29093d11" d="M 693,707 C 695,719 698,729 702,734 704,737 708,738 712,737 719,733 724,715 729,685 731,667 732,629 732,572 L 732,535 C 732,518 733,492 734,479 L 735,441 C 735,429 739,411 743,393 744,384 740,377 734,372 727,367 721,363 716,361 L 674,371 C 682,385 689,423 689,457 L 689,489 689,550 689,581 C 689,625 690,690 693,707 Z"/>
<path id="z29093d12" d="M 404,226 C 423,239 441,256 461,273 471,281 482,284 493,283 501,282 506,277 509,268 511,257 508,241 501,221 496,208 483,196 461,190 410,174 380,171 372,177 367,179 366,185 369,195 371,201 383,211 404,226 Z"/>
<path id="z29093d13" d="M 457,719 C 469,714 476,705 481,692 487,671 478,643 457,605 437,570 451,528 495,479 495,478 495,477 497,477 509,466 510,456 498,447 486,438 468,431 448,421 434,414 424,415 412,426 372,459 342,473 324,472 319,471 316,473 315,477 314,479 316,482 322,485 344,494 372,490 405,475 409,472 415,474 422,481 432,491 434,506 422,521 397,550 396,580 422,619 439,644 446,667 446,686 446,696 445,705 443,711 442,711 442,712 442,713 Z"/>
<path id="z29093d14" d="M 442,713 C 422,705 398,703 373,706 356,707 342,708 328,705 318,702 312,704 311,709 308,715 311,723 320,732 326,738 341,745 367,743 410,739 443,740 471,753 562,794 664,838 774,892 797,903 823,904 855,892 896,875 927,860 967,846 979,841 986,836 986,830 986,823 969,820 937,821 813,822 740,813 724,810 707,806 616,782 457,719 Z"/>
<defs>
	<clipPath id="z29093c1"><use xlink:href="#z29093d1"/></clipPath>
	<clipPath id="z29093c2"><use xlink:href="#z29093d2"/></clipPath>
	<clipPath id="z29093c3"><use xlink:href="#z29093d3"/></clipPath>
	<clipPath id="z29093c4"><use xlink:href="#z29093d4"/></clipPath>
	<clipPath id="z29093c5"><use xlink:href="#z29093d5"/></clipPath>
	<clipPath id="z29093c6"><use xlink:href="#z29093d6"/></clipPath>
	<clipPath id="z29093c7"><use xlink:href="#z29093d7"/></clipPath>
	<clipPath id="z29093c8"><use xlink:href="#z29093d8"/></clipPath>
	<clipPath id="z29093c9"><use xlink:href="#z29093d9"/></clipPath>
	<clipPath id="z29093c10"><use xlink:href="#z29093d10"/></clipPath>
	<clipPath id="z29093c11"><use xlink:href="#z29093d11"/></clipPath>
	<clipPath id="z29093c12"><use xlink:href="#z29093d12"/></clipPath>
	<clipPath id="z29093c13"><use xlink:href="#z29093d13"/></clipPath>
	<clipPath id="z29093c14"><use xlink:href="#z29093d14"/></clipPath>
</defs>
<path pathLength="3333" clip-path="url(#z29093c1)" d="M120 359L153 514"/>
<path pathLength="3333" clip-path="url(#z29093c2)" d="M381 345L341 338L285 407"/>
<path pathLength="3333" clip-path="url(#z29093c3)" d="M211 119L268 169L242 650L184 790L85 873"/>
<path pathLength="3333" clip-path="url(#z29093c4)" d="M279 576L348 649"/>
<path pathLength="3333" clip-path="url(#z29093c5)" d="M 574,163 631,178 779,129 820,170 736,250"/>
<path pathLength="3333" clip-path="url(#z29093c6)" d="M 649,242 742,296"/>
<path pathLength="3333" clip-path="url(#z29093c7)" d="M 543,354 578,398 563,700"/>
<path pathLength="3333" clip-path="url(#z29093c8)" d="M 597,360 818,323 869,352 872,693 855,721 777,685"/>
<path pathLength="3333" clip-path="url(#z29093c9)" d="M 633,483 803,456"/>
<path pathLength="3333" clip-path="url(#z29093c10)" d="M 631,574 808,547"/>
<path pathLength="3333" clip-path="url(#z29093c11)" d="M 682,374 714,404 710,731"/>
<path pathLength="3333" clip-path="url(#z29093c12)" d="M 376,185 506,269"/>
<path pathLength="3333" clip-path="url(#z29093c13)" d="M 319,478 421,445 467,473 425,572 462,662 455,714"/>
<path pathLength="3333" clip-path="url(#z29093c14)" d="M 318,712 435,726 795,857 980,830"/>
</svg>