<!--
AnimCJK 2016-2019 Copyright Francois Mizessyn - https://github.com/parsimonhi/animCJK
Derived from:
    MakeMeAHanzi project - https://github.com/skishore/makemeahanzi
    Arphic PL KaitiM GB font
    Arphic PL UKai font
You can redistribute and/or modify this file under the terms of the Arphic Public License
as published by Arphic Technology Co., Ltd.
You should have received a copy of this license along with this file.
If not, see http://ftp.gnu.org/non-gnu/chinese-fonts-truetype/LICENSE.
-->
<svg id="z29157" class="acjk" version="1.1" viewBox="0 0 1024 1024" xmlns="http://www.w3.org/2000/svg" xmlns:xlink="http://www.w3.org/1999/xlink">
<style>
<![CDATA[
@keyframes zk {
	to {
		stroke-dashoffset:0;
	}
}
svg.acjk path[clip-path] {
	--t:0.8s;
	animation:zk var(--t) linear forwards var(--d);
	stroke-dasharray:3337;
	stroke-dashoffset:3339;
	stroke-width:128;
	stroke-linecap:round;
	fill:none;
	stroke:#000;
}
svg.acjk path[id] {fill:#ccc;}
]]>
</style>
<path id="z29157d1" d="M108 338C103 380 96 422 85 463C78 485 84 503 99 520C106 528 116 529 125 517C149 484 153 437 144 380C140 361 136 344 128 332C124 327 120 325 117 327C112 328 108 332 108 338Z"/>
<path id="z29157d2" d="M272 373C290 355 331 325 399 292C408 287 413 284 412 278C409 268 401 257 390 246C379 235 367 228 353 228C344 227 339 233 340 245C341 257 319 292 273 348C268 355 265 378 272 373Z"/>
<path id="z29157d3" d="M257 619C263 582 266 500 272 373C273 356 273 356 273 348C276 252 280 183 296 144C300 133 299 125 291 118C276 105 255 96 228 90C211 85 199 86 193 91C186 95 186 102 192 111C232 171 244 322 215 563C202 661 173 737 136 791C118 816 93 841 66 868C59 874 54 879 55 882C55 885 61 883 69 884C78 884 91 880 113 869C182 831 231 759 252 647C255 628 255 628 257 619Z"/>
<path id="z29157d4" d="M252 647C302 697 331 724 340 725C346 725 350 721 353 715C355 708 356 696 353 681C349 660 318 640 257 619C248 616 245 640 252 647Z"/>
<path id="z29157d5" d="M514 112C505 108 491 106 473 106C465 105 460 106 459 109C455 114 456 120 463 130C481 156 497 192 512 238C516 251 523 262 532 271C545 283 552 284 554 274C554 269 556 263 555 257C552 238 552 238 550 228C542 184 532 156 529 140C527 130 524 116 514 112Z"/>
<path id="z29157d6" d="M734 211Q758 151 780 139Q795 123 782 106Q712 52 667 78Q601 99 514 112C504 114 519 144 529 140Q533 137 671 115Q687 111 694 118Q704 128 687 203C684 219 728 226 734 211Z"/>
<path id="z29157d7" d="M555 257Q562 257 569 256Q623 246 741 238Q750 237 751 230Q751 224 734 211C722 201 703 200 687 203Q686 203 685 203Q610 219 550 228C540 230 545 257 555 257Z"/>
<path id="z29157d8" d="M407 364C401 361 389 358 372 357C365 356 361 357 360 359C357 363 358 369 363 377C377 401 390 433 400 474C402 485 407 495 415 504C425 514 430 515 433 507C434 500 435 493 434 485C431 469 431 469 430 461C423 422 417 397 417 385C417 377 414 367 407 364Z"/>
<path id="z29157d9" d="M553 441C561 409 571 389 581 379C593 365 593 354 581 348C547 329 527 320 522 322C519 322 516 324 514 326C491 340 455 352 407 364C399 366 409 387 417 385C433 382 474 370 495 366C507 363 515 364 520 369C521 371 519 393 513 437C510 450 550 454 553 441Z"/>
<path id="z29157d10" d="M434 485C452 487 508 470 560 463C564 462 568 459 569 455C569 452 563 447 553 441C542 434 525 432 513 437C492 445 454 455 430 461C422 463 426 485 434 485Z"/>
<path id="z29157d11" d="M644 327C639 324 630 322 616 321C609 320 605 321 604 323C601 325 602 331 607 340C619 362 631 392 641 431C643 442 648 452 655 459C665 469 671 471 673 463C673 459 675 454 675 450C674 441 673 433 672 425C665 386 661 361 660 349C658 340 652 330 644 327Z"/>
<path id="z29157d12" d="M810 404C818 374 829 355 840 345C853 331 853 317 840 309C828 301 814 293 799 284C788 277 769 284 739 298C706 312 673 319 644 327C635 329 651 351 660 349C664 348 692 342 745 329C759 325 767 326 772 332C775 335 775 344 772 361C769 373 766 388 762 404C759 420 807 420 810 404Z"/>
<path id="z29157d13" d="M675 450C681 450 687 451 694 450C720 444 763 437 823 432C827 431 831 428 832 424C832 420 824 413 810 404C797 394 778 401 762 404C729 412 699 419 672 425C664 426 667 450 675 450Z"/>
<path id="z29157d14" d="M633 591C689 582 760 578 844 578C882 577 904 575 908 569C911 562 907 553 897 545C861 517 827 514 794 523C752 534 699 543 635 555C600 561 600 561 583 564C516 575 444 583 367 595C354 597 352 603 362 613C370 621 381 627 393 630C405 632 417 632 427 630C467 618 533 605 558 602C608 595 608 595 633 591Z"/>
<path id="z29157d15" d="M635 555C638 539 640 521 634 509C624 491 606 485 593 480C585 476 578 478 572 483C568 485 568 489 573 496C579 505 583 528 583 564C583 622 583 622 583 651C583 737 573 834 566 853C557 874 566 903 589 940C596 951 601 960 608 962C614 963 620 959 624 951C632 930 633 910 633 890C631 860 628 774 632 632C632 632 632 604 633 591C633 579 635 555 635 555Z"/>
<path id="z29157d16" d="M558 602C514 672 432 741 316 815C307 820 307 824 312 827C324 832 354 824 403 801C437 784 497 735 583 651C617 617 587 563 558 602Z"/>
<path id="z29157d17" d="M632 632C672 684 716 736 762 786C776 802 796 810 821 813C865 817 912 815 961 809C972 807 978 806 980 803C981 798 978 793 969 790C858 743 806 720 785 710C767 701 691 643 633 591C622 582 624 621 632 632Z"/>
<defs>
	<clipPath id="z29157c1"><use xlink:href="#z29157d1"/></clipPath>
	<clipPath id="z29157c2"><use xlink:href="#z29157d2"/></clipPath>
	<clipPath id="z29157c3"><use xlink:href="#z29157d3"/></clipPath>
	<clipPath id="z29157c4"><use xlink:href="#z29157d4"/></clipPath>
	<clipPath id="z29157c5"><use xlink:href="#z29157d5"/></clipPath>
	<clipPath id="z29157c6"><use xlink:href="#z29157d6"/></clipPath>
	<clipPath id="z29157c7"><use xlink:href="#z29157d7"/></clipPath>
	<clipPath id="z29157c8"><use xlink:href="#z29157d8"/></clipPath>
	<clipPath id="z29157c9"><use xlink:href="#z29157d9"/></clipPath>
	<clipPath id="z29157c10"><use xlink:href="#z29157d10"/></clipPath>
	<clipPath id="z29157c11"><use xlink:href="#z29157d11"/></clipPath>
	<clipPath id="z29157c12"><use xlink:href="#z29157d12"/></clipPath>
	<clipPath id="z29157c13"><use xlink:href="#z29157d13"/></clipPath>
	<clipPath id="z29157c14"><use xlink:href="#z29157d14"/></clipPath>
	<clipPath id="z29157c15"><use xlink:href="#z29157d15"/></clipPath>
	<clipPath id="z29157c16"><use xlink:href="#z29157d16"/></clipPath>
	<clipPath id="z29157c17"><use xlink:href="#z29157d17"/></clipPath>
</defs>
<path style="--d:1s;" pathLength="3333" clip-path="url(#z29157c1)" d="M119 330L107 518"/>
<path style="--d:2s;" pathLength="3333" clip-path="url(#z29157c2)" d="M 354,241 371,274 276,359"/>
<path style="--d:3s;" pathLength="3333" clip-path="url(#z29157c3)" d="M194 95L256 151L232 613L169 786L64 881"/>
<path style="--d:4s;" pathLength="3333" clip-path="url(#z29157c4)" d="M261 626L351 713"/>
<path style="--d:5s;" pathLength="3333" clip-path="url(#z29157c5)" d="M465 111L503 147L548 273"/>
<path style="--d:6s;" pathLength="3333" clip-path="url(#z29157c6)" d="M522 113L718 100L742 130L716 207"/>
<path style="--d:7s;" pathLength="3333" clip-path="url(#z29157c7)" d="M557 234L744 230"/>
<path style="--d:8s;" pathLength="3333" clip-path="url(#z29157c8)" d="M367 363L391 382L427 504"/>
<path style="--d:9s;" pathLength="3333" clip-path="url(#z29157c9)" d="M415 368L535 350L555 370L528 438"/>
<path style="--d:10s;" pathLength="3333" clip-path="url(#z29157c10)" d="M441 477L562 453"/>
<path style="--d:11s;" pathLength="3333" clip-path="url(#z29157c11)" d="M611 327L639 357L664 463"/>
<path style="--d:12s;" pathLength="3333" clip-path="url(#z29157c12)" d="M653 329L781 305L811 331L770 398"/>
<path style="--d:13s;" pathLength="3333" clip-path="url(#z29157c13)" d="M678 430L823 421"/>
<path style="--d:14s;" pathLength="3333" clip-path="url(#z29157c14)" d="M361 602L902 553"/>
<path style="--d:15s;" pathLength="3333" clip-path="url(#z29157c15)" d="M578 487L608 523L606 957"/>
<path style="--d:16s;" pathLength="3333" clip-path="url(#z29157c16)" d="M576 606L452 744L317 822"/>
<path style="--d:17s;" pathLength="3333" clip-path="url(#z29157c17)" d="M635 604L792 759L973 799"/>
</svg>