<!--
AnimCJK 2016-2018 Copyright Francois Mizessyn, https://github.com/parsimonhi/animCJK
Derived from:
    MakeMeAHanzi project - https://github.com/skishore/makemeahanzi
    Arphic PL KaitiM GB - https://apps.ubuntu.com/cat/applications/precise/fonts-arphic-gkai00mp/
    Arphic PL UKai - https://apps.ubuntu.com/cat/applications/fonts-arphic-ukai/
You can redistribute and/or modify this file under the terms of the Arphic Public License
as published by Arphic Technology Co., Ltd.
You should have received a copy of this license (the directory "APL") along with this file;
if not, see http://ftp.gnu.org/non-gnu/chinese-fonts-truetype/LICENSE.
-->
<svg id="z29237" class="acjk" version="1.1" viewBox="0 0 1024 1024" xmlns="http://www.w3.org/2000/svg" xmlns:xlink="http://www.w3.org/1999/xlink">
<style>
<![CDATA[
@keyframes z29237k {
	from {
		stroke:#c00;
		stroke-dashoffset:3334;
	}
	75% {
		stroke:#c00;
		stroke-dashoffset:0;
	}
	to {
		stroke:#000;
	}
}
#z29237 path[clip-path] {
	animation:z29237k 1s linear both;
	stroke-dasharray:3334;
	stroke-width:128;
	stroke-linecap:round;
	fill:none;
}
#z29237 path[clip-path="url(#z29237c1)"] {animation-delay:1s;}
#z29237 path[clip-path="url(#z29237c2)"] {animation-delay:2s;}
#z29237 path[clip-path="url(#z29237c3)"] {animation-delay:3s;}
#z29237 path[clip-path="url(#z29237c4)"] {animation-delay:4s;}
#z29237 path[clip-path="url(#z29237c5)"] {animation-delay:5s;}
#z29237 path[clip-path="url(#z29237c6)"] {animation-delay:6s;}
#z29237 path[clip-path="url(#z29237c7)"] {animation-delay:7s;}
#z29237 path[clip-path="url(#z29237c8)"] {animation-delay:8s;}
#z29237 path[clip-path="url(#z29237c9)"] {animation-delay:9s;}
#z29237 path[clip-path="url(#z29237c10)"] {animation-delay:10s;}
#z29237 path[clip-path="url(#z29237c11)"] {animation-delay:11s;}
#z29237 path[clip-path="url(#z29237c12)"] {animation-delay:12s;}
#z29237 path[clip-path="url(#z29237c13)"] {animation-delay:13s;}
#z29237 path[clip-path="url(#z29237c14)"] {animation-delay:14s;}
#z29237 path[clip-path="url(#z29237c15)"] {animation-delay:15s;}
#z29237 path[clip-path="url(#z29237c16)"] {animation-delay:16s;}
#z29237 path[clip-path="url(#z29237c17)"] {animation-delay:17s;}
#z29237 path {fill:#ccc;}
]]>
</style>
<path id="z29237d1" d="M502 57Q451 93 338 134Q332 141 337 144Q361 151 504 111Q519 101 590 91Q605 92 609 85Q613 76 603 65Q587 50 549 31Q536 24 524 24Q517 27 516 36Q515 49 502 57 Z"/>
<path id="z29237d2" d="M303 211Q322 230 344 254Q354 266 368 266Q377 266 381 255Q385 243 380 219Q373 191 302 171Q289 167 284 169Q280 172 280 183Q283 193 303 211 Z"/>
<path id="z29237d3" d="M435 184Q462 224 486 240Q496 244 504 235Q510 226 510 214Q504 180 450 158Q449 157 448 157Q436 153 429 154Q425 155 426 164Q426 171 435 184 Z"/>
<path id="z29237d4" d="M659 124Q634 148 557 204Q545 217 560 217Q611 202 640 189Q694 164 727 157Q746 153 741 136Q734 118 714 101Q698 85 686 85Q674 84 675 95Q674 111 659 124 Z"/>
<path id="z29237d5" d="M295 293Q285 289 250 286Q240 285 236 289Q232 296 241 309Q266 348 289 415Q295 436 308 447Q327 465 329 450Q330 446 330 440L327 412Q326 409 326 406Q313 352 305 327L295 293 Z"/>
<path id="z29237d6" d="M677 400Q680 415 692 416Q705 416 714 403Q721 400 740 379Q761 331 798 307Q817 294 804 277Q789 259 744 230Q726 217 664 233Q478 258 418 271Q345 284 295 293L305 327Q312 318 406 302L431 297Q480 285 546 277L590 271Q689 252 714 266Q720 270 714 288Q693 354 681 370L677 400 Z"/>
<path id="z29237d7" d="M459 396Q459 395 460 394Q460 355 432 299Q431 298 431 297L406 302Q409 311 412 335Q415 383 437 400L459 396 Z"/>
<path id="z29237d8" d="M566 377Q570 370 574 361Q599 312 605 306Q615 296 608 287Q601 278 590 271L546 277Q555 293 539 382L566 377 Z"/>
<path id="z29237d9" d="M330 440Q340 443 353 440Q456 416 677 400L681 370Q677 367 674 365Q659 355 566 377L539 382Q497 389 459 396L437 400Q377 406 327 412L330 440 Z"/>
<path id="z29237d10" d="M366 676Q379 695 394 702Q403 708 414 690Q424 671 444 566Q450 541 468 520Q478 510 468 498Q455 485 420 465Q407 459 247 502L254 530Q260 523 368 502Q384 499 389 504Q399 516 398 527Q385 638 373 651L366 676 Z"/>
<path id="z29237d11" d="M253 614Q253 613 255 613Q310 598 351 589Q370 585 362 574Q352 564 330 562Q300 559 253 587L253 614 Z"/>
<path id="z29237d12" d="M253 697Q283 687 366 676L373 651Q370 647 363 644Q350 638 326 646Q286 659 253 669L253 697 Z"/>
<path id="z29237d13" d="M372 768Q338 780 273 806Q263 809 260 805Q254 804 255 789Q254 738 253 697L253 669Q253 638 253 614L253 587Q253 545 254 530L247 502Q237 493 200 484Q185 483 181 486Q175 492 185 507Q209 540 215 640Q215 781 183 830Q174 839 165 851Q155 861 160 879Q166 903 178 914Q188 923 199 911Q247 866 382 784L372 768 Z"/>
<path id="z29237d14" d="M382 784Q395 806 410 833Q417 846 430 850Q437 851 445 843Q452 833 453 807Q454 789 433 769Q376 727 368 730Q364 731 361 742Q361 749 372 768L382 784 Z"/>
<path id="z29237d15" d="M738 555Q792 549 910 548Q928 547 932 539Q936 529 921 517Q869 481 811 498Q781 504 743 513L682 524Q589 539 483 556Q464 557 478 573Q491 585 507 590Q526 594 540 589Q637 561 684 561L738 555 Z"/>
<path id="z29237d16" d="M650 838Q613 831 575 824Q562 823 563 830Q564 837 576 845Q657 906 687 945Q703 961 719 947Q749 914 750 831Q738 711 738 555L743 513Q744 503 749 494Q758 475 740 461Q713 439 682 430Q663 423 654 431Q648 438 659 454Q678 487 682 524L684 561Q691 718 687 803Q686 825 674 834Q665 841 650 838 Z"/>
<path id="z29237d17" d="M508 671Q545 720 579 740Q594 744 603 731Q610 719 608 703Q604 679 587 666Q535 624 503 631Q500 631 498 632Q491 633 493 645Q494 657 508 671 Z"/>
<defs>
	<clipPath id="z29237c1"><use xlink:href="#z29237d1"/></clipPath>
	<clipPath id="z29237c2"><use xlink:href="#z29237d2"/></clipPath>
	<clipPath id="z29237c3"><use xlink:href="#z29237d3"/></clipPath>
	<clipPath id="z29237c4"><use xlink:href="#z29237d4"/></clipPath>
	<clipPath id="z29237c5"><use xlink:href="#z29237d5"/></clipPath>
	<clipPath id="z29237c6"><use xlink:href="#z29237d6"/></clipPath>
	<clipPath id="z29237c7"><use xlink:href="#z29237d7"/></clipPath>
	<clipPath id="z29237c8"><use xlink:href="#z29237d8"/></clipPath>
	<clipPath id="z29237c9"><use xlink:href="#z29237d9"/></clipPath>
	<clipPath id="z29237c10"><use xlink:href="#z29237d10"/></clipPath>
	<clipPath id="z29237c11"><use xlink:href="#z29237d11"/></clipPath>
	<clipPath id="z29237c12"><use xlink:href="#z29237d12"/></clipPath>
	<clipPath id="z29237c13"><use xlink:href="#z29237d13"/></clipPath>
	<clipPath id="z29237c14"><use xlink:href="#z29237d14"/></clipPath>
	<clipPath id="z29237c15"><use xlink:href="#z29237d15"/></clipPath>
	<clipPath id="z29237c16"><use xlink:href="#z29237d16"/></clipPath>
	<clipPath id="z29237c17"><use xlink:href="#z29237d17"/></clipPath>
</defs>
<path pathLength="3333" clip-path="url(#z29237c1)" d="M603 79L530 62L341 137"/>
<path pathLength="3333" clip-path="url(#z29237c2)" d="M287 178L370 259"/>
<path pathLength="3333" clip-path="url(#z29237c3)" d="M434 161L497 236"/>
<path pathLength="3333" clip-path="url(#z29237c4)" d="M684 92L694 142L561 211"/>
<path pathLength="3333" clip-path="url(#z29237c5)" d="M244 296L277 320L318 450"/>
<path pathLength="3333" clip-path="url(#z29237c6)" d="M304 298L727 247L760 296L682 406"/>
<path pathLength="3333" clip-path="url(#z29237c7)" d="M415 308L450 395"/>
<path pathLength="3333" clip-path="url(#z29237c8)" d="M553 284L578 316L549 379"/>
<path pathLength="3333" clip-path="url(#z29237c9)" d="M334 415L678 383"/>
<path pathLength="3333" clip-path="url(#z29237c10)" d="M255 507L388 484L434 510L384 694"/>
<path pathLength="3333" clip-path="url(#z29237c11)" d="M260 604L358 580"/>
<path pathLength="3333" clip-path="url(#z29237c12)" d="M257 688L368 651"/>
<path pathLength="3333" clip-path="url(#z29237c13)" d="M188 493L229 548L210 868L375 781"/>
<path pathLength="3333" clip-path="url(#z29237c14)" d="M369 739L425 803L431 845"/>
<path pathLength="3333" clip-path="url(#z29237c15)" d="M480 562L927 527"/>
<path pathLength="3333" clip-path="url(#z29237c16)" d="M659 438L715 497L714 844L685 902L571 829"/>
<path pathLength="3333" clip-path="url(#z29237c17)" d="M499 638L598 732"/>
</svg>