<!--
AnimCJK 2016-2017 Copyright Francois Mizessyn, http://gooo.free.fr/animCJK/
Derived from:
    MakeMeAHanzi project - https://github.com/skishore/makemeahanzi
    Arphic PL KaitiM GB - https://apps.ubuntu.com/cat/applications/precise/fonts-arphic-gkai00mp/
    Arphic PL UKai - https://apps.ubuntu.com/cat/applications/fonts-arphic-ukai/
You can redistribute and/or modify this file under the terms of the Arphic Public License
as published by Arphic Technology Co., Ltd.
You should have received a copy of this license (the directory "APL") along with this file;
if not, see http://ftp.gnu.org/non-gnu/chinese-fonts-truetype/LICENSE.
-->
<svg id="z29239" class="acjk" version="1.1" viewBox="0 0 1024 1024" xmlns="http://www.w3.org/2000/svg" xmlns:xlink="http://www.w3.org/1999/xlink">
<style>
<![CDATA[
	@keyframes z29239k {
		from {
			stroke:#c00;
			stroke-dashoffset:3000;
		}
		75% {
			stroke:#c00;
			stroke-dashoffset:0;
		}
		to {
			stroke:#000;
		}
	}
	#z29239 path[clip-path] {
		animation:z29239k 1s linear both;
		stroke-dasharray:3000;
		stroke-width:128;
		stroke-linecap:round;
		fill:none;
	}
	#z29239 path[clip-path="url(#z29239c1)"] {animation-delay:1s;}
	#z29239 path[clip-path="url(#z29239c2)"] {animation-delay:2s;}
	#z29239 path[clip-path="url(#z29239c3)"] {animation-delay:3s;}
	#z29239 path[clip-path="url(#z29239c4)"] {animation-delay:4s;}
	#z29239 path[clip-path="url(#z29239c5)"] {animation-delay:5s;}
	#z29239 path[clip-path="url(#z29239c6)"] {animation-delay:6s;}
	#z29239 path {fill:#ccc;}
]]>
</style>
<g transform="scale(1,-1) translate(0,-900)">
	<path id="z29239d1" d="M361 800Q351 725 233 646Q217 640 172 611Q160 599 176 599Q222 592 326 658Q407 724 425 738Q438 747 429 765Q396 810 374 814Q364 815 361 800Z"/>
	<path id="z29239d2" d="M608 793Q677 745 762 675Q780 659 794 656Q803 656 809 667Q819 680 801 720Q783 771 605 822Q595 826 595 814Q596 801 608 793Z"/>
	<path id="z29239d3" d="M557 577Q587 613 624 648Q634 654 632 665Q629 677 606 702Q590 721 580 721Q567 722 563 707Q550 656 518 608L495 577Q398 465 229 390Q181 371 113 345Q103 341 109 335Q115 331 127 331Q212 340 293 372Q411 414 529 545L557 577Z"/>
	<path id="z29239d4" d="M529 545Q709 374 783 376Q847 376 955 400Q967 404 970 413Q973 422 952 423Q895 436 833 445Q713 464 557 577L518 608Q434 677 373 660Q363 656 368 646Q375 639 386 638Q423 635 495 577L529 545Z"/>
	<path id="z29239d5" d="M507 319Q579 331 642 334Q675 335 680 325Q687 315 684 289Q680 216 665 183Q646 149 616 154Q591 158 567 166Q542 173 561 149Q606 110 627 80Q642 62 657 75Q708 109 735 226Q745 302 765 324Q780 337 773 349Q764 361 711 387Q690 397 669 384Q633 366 501 348Q368 326 256 327Q237 328 234 319Q231 310 255 296Q280 277 303 284Q451 314 457 304L507 319Z"/>
	<path id="z29239d6" d="M475 -40Q479 -64 486 -73Q492 -80 499 -78Q526 -62 526 68Q525 102 531 236Q531 243 538 281Q541 297 528 307Q516 314 507 319L457 304Q472 289 471 63Q472 -13 475 -40Z"/>
	<defs>
		<clipPath id="z29239c1"><use xlink:href="#z29239d1"/></clipPath>
		<clipPath id="z29239c2"><use xlink:href="#z29239d2"/></clipPath>
		<clipPath id="z29239c3"><use xlink:href="#z29239d3"/></clipPath>
		<clipPath id="z29239c4"><use xlink:href="#z29239d4"/></clipPath>
		<clipPath id="z29239c5"><use xlink:href="#z29239d5"/></clipPath>
		<clipPath id="z29239c6"><use xlink:href="#z29239d6"/></clipPath>
	</defs>
	<path pathLength="2999" clip-path="url(#z29239c1)" d="M372 808L391 760L359 721L270 648L176 605"/>
	<path pathLength="2999" clip-path="url(#z29239c2)" d="M602 816L757 723L799 661"/>
	<path pathLength="2999" clip-path="url(#z29239c3)" d="M577 717L590 663L424 477L293 396L118 341"/>
	<path pathLength="2999" clip-path="url(#z29239c4)" d="M373 650L459 627L743 428L962 413"/>
	<path pathLength="2999" clip-path="url(#z29239c5)" d="M242 317L297 305L693 358L729 320L679 150L635 112L561 163"/>
	<path pathLength="2999" clip-path="url(#z29239c6)" d="M463 303L502 272L499 -73"/>
</g>
</svg>