<!--
AnimCJK 2016-2025 Copyright FM-SH - https://github.com/parsimonhi/animCJK
Derived from:
    MakeMeAHanzi project - https://github.com/skishore/makemeahanzi
    Arphic PL KaitiM GB font
    Arphic PL UKai font
You can redistribute and/or modify this file under the terms of the Arphic Public License
as published by Arphic Technology Co., Ltd.
You should have received a copy of this license along with this file.
If not, see https://ftp.gnu.org/non-gnu/chinese-fonts-truetype/LICENSE.
-->
<svg id="z29241" class="acjk" viewBox="0 0 1024 1024" xmlns="http://www.w3.org/2000/svg">
<style>
<![CDATA[
@keyframes zk {
	to {
		stroke-dashoffset:0;
	}
}
svg.acjk path[clip-path] {
	--t:0.8s;
	animation:zk var(--t) linear forwards var(--d);
	stroke-dasharray:3337;
	stroke-dashoffset:3339;
	stroke-width:128;
	stroke-linecap:round;
	fill:none;
	stroke:#000;
}
svg.acjk path[id] {fill:#ccc;}
]]>
</style>
<path id="z29241d1" d="M324 120C326 131 307 158 269 198C248 218 216 242 174 272C168 275 171 282 180 281C239 271 297 230 379 168C387 161 396 155 407 149C429 134 405 122 393 118C367 108 346 106 332 108C325 108 322 112 324 120Z"/>
<path id="z29241d2" d="M590 125C631 147 679 175 731 210C743 218 754 224 764 225C768 225 771 219 776 213C781 203 776 188 763 163C746 131 688 109 584 97C577 96 573 98 575 106C576 114 581 120 590 125Z"/>
<path id="z29241d3" d="M524 286C545 264 566 242 591 225C596 220 600 217 600 210C599 202 591 190 579 174C569 162 562 154 556 154C548 152 542 157 540 166C529 198 513 230 488 258C471 277 471 277 462 286C367 387 236 430 102 465C83 469 94 479 113 478C284 465 385 424 497 313C515 295 515 295 524 286Z"/>
<path id="z29241d4" d="M497 313C645 427 726 506 781 501C842 494 898 486 947 475C955 472 960 468 962 462C964 456 957 455 944 453C905 446 865 438 824 432C733 418 632 370 524 286C500 267 500 267 488 258C442 222 400 208 361 220C354 221 351 227 356 234C359 239 366 241 374 242C395 242 425 257 462 286C485 304 485 304 497 313Z"/>
<path id="z29241d5" d="M396 491C421 476 460 444 485 430C493 425 500 416 500 407C503 395 486 385 481 382C466 375 456 372 450 372C445 372 442 375 440 382C425 422 363 475 253 539C241 545 242 552 256 551C302 545 340 522 368 507C387 496 387 496 396 491Z"/>
<path id="z29241d6" d="M485 430C517 430 529 431 535 438C539 443 528 460 513 483C459 560 373 620 297 657C271 669 288 673 313 668C417 644 500 574 563 499C580 478 593 465 604 460C612 456 614 450 613 444C611 437 598 424 572 406C565 401 556 401 543 404C532 406 518 407 500 407C491 407 476 430 485 430Z"/>
<path id="z29241d7" d="M368 507Q369 510 375 514Q391 530 409 550Q416 559 427 559Q434 560 438 551Q442 542 437 523Q433 504 396 491C386 487 362 498 368 507Z"/>
<path id="z29241d8" d="M577 583C574 577 567 571 557 566C542 558 531 554 524 556C519 556 515 559 513 567C497 615 426 675 301 746C288 753 289 757 305 757C340 755 388 734 415 718C432 707 432 707 440 702C456 691 495 662 556 614C566 606 584 593 577 583Z"/>
<path id="z29241d9" d="M481 791C416 846 341 892 277 923C244 938 270 943 297 937C398 915 487 863 603 748C665 685 695 649 701 647C711 641 715 635 713 626C710 617 693 601 660 578C651 572 639 571 622 576C611 578 596 581 577 583C565 585 544 614 556 614C568 616 609 607 613 619C615 629 602 650 582 682C566 706 544 735 511 765C491 782 491 782 481 791Z"/>
<path id="z29241d10" d="M415 718C433 736 455 760 481 791C490 800 513 778 511 765C506 732 456 709 440 702C431 698 408 711 415 718Z"/>
<defs>
	<clipPath id="z29241c1"><use href="#z29241d1"/></clipPath>
	<clipPath id="z29241c2"><use href="#z29241d2"/></clipPath>
	<clipPath id="z29241c3"><use href="#z29241d3"/></clipPath>
	<clipPath id="z29241c4"><use href="#z29241d4"/></clipPath>
	<clipPath id="z29241c5"><use href="#z29241d5"/></clipPath>
	<clipPath id="z29241c6"><use href="#z29241d6"/></clipPath>
	<clipPath id="z29241c7"><use href="#z29241d7"/></clipPath>
	<clipPath id="z29241c8"><use href="#z29241d8"/></clipPath>
	<clipPath id="z29241c9"><use href="#z29241d9"/></clipPath>
	<clipPath id="z29241c10"><use href="#z29241d10"/></clipPath>
</defs>
<path style="--d:1s;" pathLength="3333" clip-path="url(#z29241c1)" d="M331 115L362 148L180 275"/>
<path style="--d:2s;" pathLength="3333" clip-path="url(#z29241c2)" d="M583 106L719 163L767 220"/>
<path style="--d:3s;" pathLength="3333" clip-path="url(#z29241c3)" d="M551 159L561 209L402 366L251 439L102 470"/>
<path style="--d:4s;" pathLength="3333" clip-path="url(#z29241c4)" d="M361 226L441 248L756 457L954 462"/>
<path style="--d:5s;" pathLength="3333" clip-path="url(#z29241c5)" d="M450 376L459 415L251 545"/>
<path style="--d:6s;" pathLength="3333" clip-path="url(#z29241c6)" d="M492 424L553 423L571 453L456 576L293 664"/>
<path style="--d:7s;" pathLength="3333" clip-path="url(#z29241c7)" d="M371 502L425 553"/>
<path style="--d:8s;" pathLength="3333" clip-path="url(#z29241c8)" d="M525 561L538 592L485 643L299 750"/>
<path style="--d:9s;" pathLength="3333" clip-path="url(#z29241c9)" d="M560 606L611 595L659 617L586 725L444 850L273 933"/>
<path style="--d:10s;" pathLength="3333" clip-path="url(#z29241c10)" d="M422 713L497 786"/>
</svg>