<!--
AnimCJK 2016-2017 Copyright Francois Mizessyn, http://gooo.free.fr/animCJK/
Derived from:
    MakeMeAHanzi project - https://github.com/skishore/makemeahanzi
    Arphic PL KaitiM GB - https://apps.ubuntu.com/cat/applications/precise/fonts-arphic-gkai00mp/
    Arphic PL UKai - https://apps.ubuntu.com/cat/applications/fonts-arphic-ukai/
You can redistribute and/or modify this file under the terms of the Arphic Public License
as published by Arphic Technology Co., Ltd.
You should have received a copy of this license (the directory "APL") along with this file;
if not, see http://ftp.gnu.org/non-gnu/chinese-fonts-truetype/LICENSE.
-->
<svg id="z29255" class="acjk" version="1.1" viewBox="0 0 1024 1024" xmlns="http://www.w3.org/2000/svg" xmlns:xlink="http://www.w3.org/1999/xlink">
<style>
<![CDATA[
	@keyframes z29255k {
		from {
			stroke:#c00;
			stroke-dashoffset:3000;
		}
		75% {
			stroke:#c00;
			stroke-dashoffset:0;
		}
		to {
			stroke:#000;
		}
	}
	#z29255 path[clip-path] {
		animation:z29255k 1s linear both;
		stroke-dasharray:3000;
		stroke-width:128;
		stroke-linecap:round;
		fill:none;
	}
	#z29255 path[clip-path="url(#z29255c1)"] {animation-delay:1s;}
	#z29255 path[clip-path="url(#z29255c2)"] {animation-delay:2s;}
	#z29255 path[clip-path="url(#z29255c3)"] {animation-delay:3s;}
	#z29255 path[clip-path="url(#z29255c4)"] {animation-delay:4s;}
	#z29255 path {fill:#ccc;}
]]>
</style>
<g transform="scale(1,-1) translate(0,-900)">
	<path id="z29255d1" d="M356 343Q369 433 374 494L376 519Q379 651 383 685Q389 707 366 718Q311 743 294 739Q272 735 291 710Q327 656 315 447Q312 362 273 260Q245 182 147 83Q132 68 128 61Q127 54 140 54Q188 58 262 145Q326 221 350 315L356 343Z"/>
	<path id="z29255d2" d="M624 573Q645 744 660 778Q664 788 644 804Q611 823 587 829Q572 833 564 825Q557 818 564 803Q579 781 579 766Q583 669 580 558L624 573Z"/>
	<path id="z29255d3" d="M374 494Q413 476 462 487Q559 506 661 527Q707 537 715 545Q724 552 719 561Q712 571 684 579Q654 585 625 574Q624 574 624 573L580 558Q442 528 377 520Q376 520 376 519L374 494Z"/>
	<path id="z29255d4" d="M350 315Q374 303 593 352Q612 356 616 339Q632 248 604 81Q600 47 615 21Q643 -30 656 -29Q669 -28 677 -5Q684 31 682 259Q682 313 703 344Q719 366 714 376Q705 385 672 397Q635 412 607 400Q502 361 356 343L350 315Z"/>
	<defs>
		<clipPath id="z29255c1"><use xlink:href="#z29255d1"/></clipPath>
		<clipPath id="z29255c2"><use xlink:href="#z29255d2"/></clipPath>
		<clipPath id="z29255c3"><use xlink:href="#z29255d3"/></clipPath>
		<clipPath id="z29255c4"><use xlink:href="#z29255d4"/></clipPath>
	</defs>
	<path pathLength="2999" clip-path="url(#z29255c1)" d="M288 730L345 684L324 327L250 168L136 62"/>
	<path pathLength="2999" clip-path="url(#z29255c2)" d="M568 817L619 774L589 567"/>
	<path pathLength="2999" clip-path="url(#z29255c3)" d="M378 499L716 552"/>
	<path pathLength="2999" clip-path="url(#z29255c4)" d="M356 320L597 375L658 360L655 -23"/>
</g>
</svg>