<!--
AnimCJK 2016-2019 Copyright Francois Mizessyn - https://github.com/parsimonhi/animCJK
Derived from:
    MakeMeAHanzi project - https://github.com/skishore/makemeahanzi
    Arphic PL KaitiM GB font
    Arphic PL UKai font
You can redistribute and/or modify this file under the terms of the Arphic Public License
as published by Arphic Technology Co., Ltd.
You should have received a copy of this license along with this file.
If not, see http://ftp.gnu.org/non-gnu/chinese-fonts-truetype/LICENSE.
-->
<svg id="z29274" class="acjk" version="1.1" viewBox="0 0 1024 1024" xmlns="http://www.w3.org/2000/svg" xmlns:xlink="http://www.w3.org/1999/xlink">
<style>
<![CDATA[
@keyframes zk {
	to {
		stroke-dashoffset:0;
	}
}
svg.acjk path[clip-path] {
	--t:0.8s;
	animation:zk var(--t) linear forwards var(--d);
	stroke-dasharray:3337;
	stroke-dashoffset:3339;
	stroke-width:128;
	stroke-linecap:round;
	fill:none;
	stroke:#000;
}
svg.acjk path[id] {fill:#ccc;}
]]>
</style>
<path id="z29274d1" d="M528 251Q537 193 546 141Q549 128 551 118Q563 97 543 81Q512 65 491 60Q478 56 470 64Q463 70 470 83Q488 108 489 256C489 269 525 264 528 251Z"/>
<path id="z29274d2" d="M343 170Q364 191 386 217Q396 230 410 230Q420 230 425 219Q431 207 425 181Q418 151 343 128Q330 124 324 125Q320 128 320 140Q321 150 343 170Z"/>
<path id="z29274d3" d="M661 115Q642 145 591 196Q581 209 596 208Q624 195 695 157Q711 144 734 137Q753 130 745 113Q735 97 713 83Q694 70 682 71Q670 72 673 84Q674 100 661 115Z"/>
<path id="z29274d4" d="M268 286Q258 264 247 258Q231 245 229 269Q235 308 180 372Q165 394 189 442Q205 463 219 440Q235 416 245 381Q257 341 267 317C271 307 272 296 268 286Z"/>
<path id="z29274d5" d="M267 317Q291 330 324 321Q459 282 703 260Q748 256 763 259Q779 265 776 274Q755 317 733 363C734 364 734 364 735 364Q744 368 761 358Q818 324 864 315Q901 308 901 298Q900 288 832 232Q810 211 736 223Q664 230 528 251C502 254 502 254 489 256Q437 262 378 271Q323 280 268 286C258 288 258 312 267 317Z"/>
<path id="z29274d6" d="M419 348Q410 344 387 340Q377 339 374 342Q370 348 377 361Q396 398 411 460Q415 479 426 491Q442 509 446 495Q447 488 448 479C450 470 447 461 445 452Q435 391 434 372C434 363 428 352 419 348Z"/>
<path id="z29274d7" d="M624 424Q642 382 664 370Q679 355 667 340Q654 328 611 307Q598 300 579 307Q528 326 419 348C410 350 425 374 434 372Q449 368 566 346Q582 342 588 348Q594 357 577 423C574 438 618 439 624 424Z"/>
<path id="z29274d8" d="M448 479Q457 479 469 478Q521 466 638 454Q647 453 648 446Q648 439 624 424C611 416 592 420 577 423Q504 442 445 452C436 454 439 479 448 479Z"/>
<path id="z29274d9" d="M578 545Q677 530 685 524Q694 518 690 510Q684 500 660 492Q639 486 551 509Q434 527 393 529Q362 532 383 548Q419 572 466 562Q500 556 535 552C564 547 564 547 578 545Z"/>
<path id="z29274d10" d="M599 667Q620 660 762 667Q783 668 791 657Q798 648 778 636Q723 594 664 615Q607 624 601 627C566 632 566 632 548 635Q455 647 367 667Q351 673 355 657Q374 624 386 614Q398 607 395 595Q391 585 363 560Q348 547 337 551Q325 557 331 572Q337 593 319 635Q312 654 285 673Q275 680 274 694Q274 706 289 721Q301 731 315 722Q387 686 507 675C568 670 568 670 599 667Z"/>
<path id="z29274d11" d="M547 705Q546 756 546 827Q545 858 535 871Q529 874 456 860Q444 857 445 864Q446 871 455 879Q512 922 546 958Q556 965 569 952Q606 901 600 796Q597 733 599 667C600 640 600 640 601 627Q601 614 603 600Q609 575 604 566Q598 557 578 545C566 538 530 539 535 552Q547 579 548 635C547 682 547 682 547 705Z"/>
<path id="z29274d12" d="M507 675Q432 780 208 874Q189 883 204 887Q214 891 255 883Q309 876 362 849Q476 786 537 716Q541 710 547 705C577 675 532 641 507 675Z"/>
<defs>
	<clipPath id="z29274c1"><use xlink:href="#z29274d1"/></clipPath>
	<clipPath id="z29274c2"><use xlink:href="#z29274d2"/></clipPath>
	<clipPath id="z29274c3"><use xlink:href="#z29274d3"/></clipPath>
	<clipPath id="z29274c4"><use xlink:href="#z29274d4"/></clipPath>
	<clipPath id="z29274c5"><use xlink:href="#z29274d5"/></clipPath>
	<clipPath id="z29274c6"><use xlink:href="#z29274d6"/></clipPath>
	<clipPath id="z29274c7"><use xlink:href="#z29274d7"/></clipPath>
	<clipPath id="z29274c8"><use xlink:href="#z29274d8"/></clipPath>
	<clipPath id="z29274c9"><use xlink:href="#z29274d9"/></clipPath>
	<clipPath id="z29274c10"><use xlink:href="#z29274d10"/></clipPath>
	<clipPath id="z29274c11"><use xlink:href="#z29274d11"/></clipPath>
	<clipPath id="z29274c12"><use xlink:href="#z29274d12"/></clipPath>
</defs>
<path style="--d:1s;" pathLength="3333" clip-path="url(#z29274c1)" d="M473 71L516 103L505 253"/>
<path style="--d:2s;" pathLength="3333" clip-path="url(#z29274c2)" d="M327 134L418 224"/>
<path style="--d:3s;" pathLength="3333" clip-path="url(#z29274c3)" d="M681 74L698 128L595 201"/>
<path style="--d:4s;" pathLength="3333" clip-path="url(#z29274c4)" d="M237 262L246 309L200 445"/>
<path style="--d:5s;" pathLength="3333" clip-path="url(#z29274c5)" d="M271 311L765 239L815 260L845 312L742 360"/>
<path style="--d:6s;" pathLength="3333" clip-path="url(#z29274c6)" d="M380 349L411 379L439 494"/>
<path style="--d:7s;" pathLength="3333" clip-path="url(#z29274c7)" d="M427 351L610 332L629 361L590 422"/>
<path style="--d:8s;" pathLength="3333" clip-path="url(#z29274c8)" d="M453 458L638 443"/>
<path style="--d:9s;" pathLength="3333" clip-path="url(#z29274c9)" d="M384 538L687 511"/>
<path style="--d:10s;" pathLength="3333" clip-path="url(#z29274c10)" d="M339 556L362 602L314 674L337 696L677 637L786 648"/>
<path style="--d:11s;" pathLength="3333" clip-path="url(#z29274c11)" d="M543 556L576 587L568 874L542 914L451 866"/>
<path style="--d:12s;" pathLength="3333" clip-path="url(#z29274c12)" d="M541 679L366 821L205 883"/>
</svg>