<!--
AnimCJK 2016-2019 Copyright Francois Mizessyn - https://github.com/parsimonhi/animCJK
Derived from:
    MakeMeAHanzi project - https://github.com/skishore/makemeahanzi
    Arphic PL KaitiM GB font
    Arphic PL UKai font
You can redistribute and/or modify this file under the terms of the Arphic Public License
as published by Arphic Technology Co., Ltd.
You should have received a copy of this license along with this file.
If not, see http://ftp.gnu.org/non-gnu/chinese-fonts-truetype/LICENSE.
-->
<svg id="z29316" class="acjk" version="1.1" viewBox="0 0 1024 1024" xmlns="http://www.w3.org/2000/svg" xmlns:xlink="http://www.w3.org/1999/xlink">
<style>
<![CDATA[
@keyframes zk {
	to {
		stroke-dashoffset:0;
	}
}
svg.acjk path[clip-path] {
	--t:0.8s;
	animation:zk var(--t) linear forwards var(--d);
	stroke-dasharray:3337;
	stroke-dashoffset:3339;
	stroke-width:128;
	stroke-linecap:round;
	fill:none;
	stroke:#000;
}
svg.acjk path[id] {fill:#ccc;}
]]>
</style>
<path id="z29316d1" d="M204 379Q246 298 247 297Q246 293 245 291Q241 281 216 265Q192 252 177 254Q162 257 170 274Q188 301 141 403Q119 449 87 502Q80 512 78 517Q77 526 88 523Q124 508 190 402C199 387 199 387 204 379Z"/>
<path id="z29316d2" d="M340 387Q418 363 422 359Q429 352 424 343Q417 333 387 328Q362 325 341 335C313 347 313 347 299 353Q235 371 204 379C195 381 182 399 190 402Q242 424 296 399C297 399 297 399 298 399C326 391 326 391 340 387Z"/>
<path id="z29316d3" d="M293 590Q287 734 266 803Q256 840 280 902Q287 920 295 923Q301 930 308 921Q335 905 335 842Q334 805 337 558C337 537 337 537 337 527Q338 463 340 387C341 352 341 352 341 335Q341 230 361 158Q376 133 346 113Q331 101 306 87Q284 71 263 85Q259 89 265 105Q296 154 298 203Q298 273 299 353C298 384 298 384 298 399Q297 472 294 550C293 577 293 577 293 590Z"/>
<path id="z29316d4" d="M294 550Q201 598 120 645Q86 664 62 670Q49 676 46 684Q45 693 59 707Q78 723 101 732Q117 736 128 725Q201 656 293 590C322 569 322 569 337 558Q394 513 396 512Q403 499 392 499Q377 500 337 527C308 542 308 542 294 550Z"/>
<path id="z29316d5" d="M623 276Q675 263 733 252Q773 242 779 237Q788 230 783 220Q776 208 746 201Q719 195 637 223C602 232 602 232 585 237Q533 247 474 254Q437 261 463 278Q508 302 566 287Q567 287 572 287C606 280 606 280 623 276Z"/>
<path id="z29316d6" d="M572 287Q539 365 468 421Q456 427 454 430Q450 436 464 437Q488 440 545 400Q584 367 621 280Q621 277 623 276C632 241 632 241 637 223Q647 148 662 117Q668 107 660 99Q644 83 612 67Q593 57 577 61Q558 67 572 84Q608 126 586 232Q585 233 585 237C576 270 576 270 572 287Z"/>
<path id="z29316d7" d="M667 337Q689 356 712 378Q724 388 737 387Q744 386 749 376Q753 363 745 339Q741 323 715 312Q654 294 644 297Q640 301 641 311Q644 321 667 337Z"/>
<path id="z29316d8" d="M756 454Q811 447 882 445Q939 445 945 434Q949 422 933 410Q881 374 845 385Q754 409 415 470Q396 473 411 489Q424 502 442 506Q463 510 478 505Q595 469 704 459C739 456 739 456 756 454Z"/>
<path id="z29316d9" d="M471 564Q461 560 438 556Q428 553 424 558Q420 562 426 577Q450 626 465 706Q468 730 482 746Q498 765 502 751Q506 738 505 715C502 695 502 695 500 685Q488 612 487 590C487 580 480 568 471 564Z"/>
<path id="z29316d10" d="M640 662Q653 604 672 585Q693 560 671 548Q652 538 626 522Q610 513 565 537Q514 555 471 564C461 566 477 592 487 590Q511 586 572 570Q593 566 598 574Q604 578 600 606Q596 631 591 661C588 677 637 678 640 662Z"/>
<path id="z29316d11" d="M505 715Q514 716 524 713Q564 703 654 693Q664 692 665 683Q665 676 640 662C626 654 607 658 591 661Q540 674 500 685C490 688 495 715 505 715Z"/>
<path id="z29316d12" d="M680 862Q658 855 629 848Q616 845 617 852Q617 859 628 869Q689 920 731 962Q743 972 756 955Q798 897 791 824Q779 620 784 513Q790 485 784 476Q777 466 756 454C742 444 698 443 704 459Q705 463 711 471Q723 495 723 535Q726 620 729 818Q728 849 718 862Q708 869 680 862Z"/>
<defs>
	<clipPath id="z29316c1"><use xlink:href="#z29316d1"/></clipPath>
	<clipPath id="z29316c2"><use xlink:href="#z29316d2"/></clipPath>
	<clipPath id="z29316c3"><use xlink:href="#z29316d3"/></clipPath>
	<clipPath id="z29316c4"><use xlink:href="#z29316d4"/></clipPath>
	<clipPath id="z29316c5"><use xlink:href="#z29316d5"/></clipPath>
	<clipPath id="z29316c6"><use xlink:href="#z29316d6"/></clipPath>
	<clipPath id="z29316c7"><use xlink:href="#z29316d7"/></clipPath>
	<clipPath id="z29316c8"><use xlink:href="#z29316d8"/></clipPath>
	<clipPath id="z29316c9"><use xlink:href="#z29316d9"/></clipPath>
	<clipPath id="z29316c10"><use xlink:href="#z29316d10"/></clipPath>
	<clipPath id="z29316c11"><use xlink:href="#z29316d11"/></clipPath>
	<clipPath id="z29316c12"><use xlink:href="#z29316d12"/></clipPath>
</defs>
<path style="--d:1s;" pathLength="3333" clip-path="url(#z29316c1)" d="M175 259L209 304L86 517"/>
<path style="--d:2s;" pathLength="3333" clip-path="url(#z29316c2)" d="M196 397L417 347"/>
<path style="--d:3s;" pathLength="3333" clip-path="url(#z29316c3)" d="M268 90L329 156L307 920"/>
<path style="--d:4s;" pathLength="3333" clip-path="url(#z29316c4)" d="M50 686L109 693L392 506"/>
<path style="--d:5s;" pathLength="3333" clip-path="url(#z29316c5)" d="M457 265L538 269L777 224"/>
<path style="--d:6s;" pathLength="3333" clip-path="url(#z29316c6)" d="M572 68L627 119L598 276L533 386L463 431"/>
<path style="--d:7s;" pathLength="3333" clip-path="url(#z29316c7)" d="M651 307L740 380"/>
<path style="--d:8s;" pathLength="3333" clip-path="url(#z29316c8)" d="M409 477L472 483L844 415L941 425"/>
<path style="--d:9s;" pathLength="3333" clip-path="url(#z29316c9)" d="M429 560L461 595L494 750"/>
<path style="--d:10s;" pathLength="3333" clip-path="url(#z29316c10)" d="M480 568L618 551L641 572L613 661"/>
<path style="--d:11s;" pathLength="3333" clip-path="url(#z29316c11)" d="M507 690L658 685"/>
<path style="--d:12s;" pathLength="3333" clip-path="url(#z29316c12)" d="M712 461L754 498L756 867L723 915L624 854"/>
</svg>