<!--
AnimCJK 2016-2019 Copyright Francois Mizessyn - https://github.com/parsimonhi/animCJK
Derived from:
    MakeMeAHanzi project - https://github.com/skishore/makemeahanzi
    Arphic PL KaitiM GB font
    Arphic PL UKai font
You can redistribute and/or modify this file under the terms of the Arphic Public License
as published by Arphic Technology Co., Ltd.
You should have received a copy of this license along with this file.
If not, see http://ftp.gnu.org/non-gnu/chinese-fonts-truetype/LICENSE.
-->
<svg id="z29425" class="acjk" version="1.1" viewBox="0 0 1024 1024" xmlns="http://www.w3.org/2000/svg" xmlns:xlink="http://www.w3.org/1999/xlink">
<style>
<![CDATA[
@keyframes zk {
	to {
		stroke-dashoffset:0;
	}
}
svg.acjk path[clip-path] {
	--t:0.8s;
	animation:zk var(--t) linear forwards var(--d);
	stroke-dasharray:3337;
	stroke-dashoffset:3339;
	stroke-width:128;
	stroke-linecap:round;
	fill:none;
	stroke:#000;
}
svg.acjk path[id] {fill:#ccc;}
]]>
</style>
<path id="z29425d1" d="M293 320Q323 272 384 195Q394 183 382 168Q343 129 317 133Q305 134 306 149Q309 207 264 282C245 309 245 309 235 323Q201 371 157 407Q120 438 102 456Q92 471 108 467Q156 464 260 360C282 333 282 333 293 320Z"/>
<path id="z29425d2" d="M292 502Q304 665 256 787Q249 803 237 806Q227 807 196 799Q168 786 162 792Q158 798 167 811Q197 847 215 878Q234 908 244 907Q254 908 274 887Q343 806 345 601Q345 517 334 454C331 435 331 435 329 425Q319 365 293 320C274 295 274 295 264 282Q224 237 142 212Q127 206 125 218Q124 233 133 250Q145 269 163 269Q208 284 235 323C252 348 252 348 260 360Q267 376 280 420C288 475 288 475 292 502Z"/>
<path id="z29425d3" d="M280 420Q249 492 209 554Q166 621 63 739Q57 749 68 750Q74 751 84 743Q207 650 292 502C306 478 290 394 280 420Z"/>
<path id="z29425d4" d="M448 219Q505 295 534 299Q550 300 558 280Q559 265 550 241Q540 222 513 212Q473 191 455 188Q445 187 442 199Q441 209 448 219Z"/>
<path id="z29425d5" d="M334 454Q362 460 392 447Q440 413 454 422Q460 425 456 518Q455 615 428 702Q415 729 451 771Q461 781 468 776Q475 770 484 749Q515 707 579 634Q589 624 586 618Q585 611 576 620Q545 641 514 665Q480 695 484 650Q484 595 504 457Q507 436 526 416Q536 409 528 397Q518 384 486 369Q476 365 461 373Q391 415 329 425C319 427 324 452 334 454Z"/>
<path id="z29425d6" d="M702 450Q750 435 855 417Q867 418 875 404Q875 391 851 382Q817 361 758 385Q734 392 710 400Q706 401 705 402C674 411 674 411 658 415Q607 421 558 434Q530 440 553 456Q587 477 630 468Q640 465 653 463C686 454 686 454 702 450Z"/>
<path id="z29425d7" d="M696 501Q699 476 702 450C704 418 704 418 705 402Q705 395 706 387Q715 243 736 183Q740 173 733 165Q685 122 649 132Q630 139 645 155Q670 183 670 210Q667 321 658 415C655 447 655 447 653 463Q623 709 547 789Q544 790 543 793Q515 823 456 861Q444 867 442 870Q438 876 452 877Q488 881 572 824Q635 778 661 684Q679 614 690 543C694 515 694 515 696 501Z"/>
<path id="z29425d8" d="M690 543Q690 558 756 712Q802 833 849 848Q852 848 857 850Q891 856 977 865Q998 866 999 862Q1000 856 982 847Q859 783 814 717Q777 665 720 531Q713 512 696 501C684 494 687 529 690 543Z"/>
<path id="z29425d9" d="M811 261Q841 285 872 313Q884 323 896 323Q905 322 909 312Q913 299 905 275Q899 256 870 241Q800 217 788 221Q784 225 785 235Q788 245 811 261Z"/>
<defs>
	<clipPath id="z29425c1"><use xlink:href="#z29425d1"/></clipPath>
	<clipPath id="z29425c2"><use xlink:href="#z29425d2"/></clipPath>
	<clipPath id="z29425c3"><use xlink:href="#z29425d3"/></clipPath>
	<clipPath id="z29425c4"><use xlink:href="#z29425d4"/></clipPath>
	<clipPath id="z29425c5"><use xlink:href="#z29425d5"/></clipPath>
	<clipPath id="z29425c6"><use xlink:href="#z29425d6"/></clipPath>
	<clipPath id="z29425c7"><use xlink:href="#z29425d7"/></clipPath>
	<clipPath id="z29425c8"><use xlink:href="#z29425d8"/></clipPath>
	<clipPath id="z29425c9"><use xlink:href="#z29425d9"/></clipPath>
</defs>
<path style="--d:1s;" pathLength="3333" clip-path="url(#z29425c1)" d="M316 141L345 188L279 300L106 460"/>
<path style="--d:2s;" pathLength="3333" clip-path="url(#z29425c2)" d="M131 218L228 279L272 333L318 529L312 689L279 815L236 856L169 796"/>
<path style="--d:3s;" pathLength="3333" clip-path="url(#z29425c3)" d="M278 432L269 496L228 563L69 743"/>
<path style="--d:4s;" pathLength="3333" clip-path="url(#z29425c4)" d="M449 197L551 285"/>
<path style="--d:5s;" pathLength="3333" clip-path="url(#z29425c5)" d="M337 429L465 395L494 418L457 684L477 727L582 622"/>
<path style="--d:6s;" pathLength="3333" clip-path="url(#z29425c6)" d="M550 441L870 400"/>
<path style="--d:7s;" pathLength="3333" clip-path="url(#z29425c7)" d="M644 142L701 185L639 665L577 790L449 871"/>
<path style="--d:8s;" pathLength="3333" clip-path="url(#z29425c8)" d="M699 514L825 781L871 820L991 859"/>
<path style="--d:9s;" pathLength="3333" clip-path="url(#z29425c9)" d="M793 230L903 315"/>
</svg>