<!--
AnimCJK 2016-2019 Copyright Francois Mizessyn - https://github.com/parsimonhi/animCJK
Derived from:
    MakeMeAHanzi project - https://github.com/skishore/makemeahanzi
    Arphic PL KaitiM GB font
    Arphic PL UKai font
You can redistribute and/or modify this file under the terms of the Arphic Public License
as published by Arphic Technology Co., Ltd.
You should have received a copy of this license along with this file.
If not, see http://ftp.gnu.org/non-gnu/chinese-fonts-truetype/LICENSE.
-->
<svg id="z29435" class="acjk" version="1.1" viewBox="0 0 1024 1024" xmlns="http://www.w3.org/2000/svg" xmlns:xlink="http://www.w3.org/1999/xlink">
<style>
<![CDATA[
@keyframes zk {
	to {
		stroke-dashoffset:0;
	}
}
svg.acjk path[clip-path] {
	--t:0.8s;
	animation:zk var(--t) linear forwards var(--d);
	stroke-dasharray:3337;
	stroke-dashoffset:3339;
	stroke-width:128;
	stroke-linecap:round;
	fill:none;
	stroke:#000;
}
svg.acjk path[id] {fill:#ccc;}
]]>
</style>
<path id="z29435d1" d="M311 317Q362 250 413 194Q426 182 413 165Q374 126 348 125Q336 126 337 141Q336 205 283 277C261 304 261 304 250 317Q208 368 158 404Q116 434 95 452Q85 465 100 464Q158 461 275 355C299 330 299 330 311 317Z"/>
<path id="z29435d2" d="M363 574Q356 388 311 317C292 290 292 290 283 277Q238 225 155 199Q140 193 137 205Q136 221 145 239Q157 258 176 260Q215 272 250 317C267 342 267 342 275 355Q291 407 297 426C305 481 305 481 309 509Q321 672 276 790Q269 806 259 809Q240 813 186 802Q155 793 149 800Q146 806 157 818Q208 855 241 890Q259 915 268 914Q278 915 297 895Q367 807 363 581C363 576 363 576 363 574Z"/>
<path id="z29435d3" d="M297 426Q231 553 64 729Q57 739 69 741Q88 745 202 642Q257 591 309 509C323 485 310 401 297 426Z"/>
<path id="z29435d4" d="M727 274Q645 283 555 302Q545 306 543 303Q540 299 546 290Q636 154 655 132Q667 122 660 108Q653 96 603 75Q585 68 576 73Q563 80 570 100Q591 154 502 277Q481 298 452 320Q439 333 442 344Q449 360 475 380Q487 390 500 379Q539 346 728 303Q738 300 745 297C754 293 737 272 727 274Z"/>
<path id="z29435d5" d="M745 297Q764 321 784 348Q794 363 808 364Q818 365 825 355Q832 342 829 314Q826 275 724 222Q711 216 704 217Q700 220 698 232Q699 247 727 274C739 289 739 289 745 297Z"/>
<path id="z29435d6" d="M363 581Q387 588 458 539Q462 535 469 530Q494 511 534 468Q538 462 543 460Q549 457 549 449Q546 428 515 411Q499 404 490 405Q483 406 483 416Q487 449 426 519Q425 519 424 521Q406 539 363 574C361 575 361 581 363 581Z"/>
<path id="z29435d7" d="M718 437Q758 464 802 497Q815 509 831 506Q841 505 845 492Q848 477 837 450Q822 413 709 392Q693 391 688 393Q684 397 686 409Q690 419 718 437Z"/>
<path id="z29435d8" d="M606 555Q606 554 607 554Q623 533 624 530Q621 506 585 492Q567 485 558 486Q551 487 551 498Q555 576 390 718Q383 722 391 725Q431 725 514 657C529 643 529 643 536 636Q554 617 579 588C597 566 597 566 606 555Z"/>
<path id="z29435d9" d="M607 757Q535 847 380 888Q367 892 378 901Q385 905 430 903Q547 894 637 797C658 769 658 769 668 755Q702 701 734 626Q747 598 767 582Q786 569 775 554Q762 541 733 529Q715 522 642 546Q639 546 606 555C592 558 565 585 579 588Q603 592 635 584Q660 571 664 571Q686 577 677 600Q661 669 631 720C615 745 615 745 607 757Z"/>
<path id="z29435d10" d="M514 657Q539 675 607 757C627 784 627 784 637 797Q733 921 776 922Q860 926 927 920Q963 917 960 907Q960 903 927 889Q746 817 687 771Q677 762 668 755C643 732 643 732 631 720Q609 698 587 673Q562 645 536 636C526 633 506 651 514 657Z"/>
<defs>
	<clipPath id="z29435c1"><use xlink:href="#z29435d1"/></clipPath>
	<clipPath id="z29435c2"><use xlink:href="#z29435d2"/></clipPath>
	<clipPath id="z29435c3"><use xlink:href="#z29435d3"/></clipPath>
	<clipPath id="z29435c4"><use xlink:href="#z29435d4"/></clipPath>
	<clipPath id="z29435c5"><use xlink:href="#z29435d5"/></clipPath>
	<clipPath id="z29435c6"><use xlink:href="#z29435d6"/></clipPath>
	<clipPath id="z29435c7"><use xlink:href="#z29435d7"/></clipPath>
	<clipPath id="z29435c8"><use xlink:href="#z29435d8"/></clipPath>
	<clipPath id="z29435c9"><use xlink:href="#z29435d9"/></clipPath>
	<clipPath id="z29435c10"><use xlink:href="#z29435d10"/></clipPath>
</defs>
<path style="--d:1s;" pathLength="3333" clip-path="url(#z29435c1)" d="M347 135L375 183L307 284L225 373L100 458"/>
<path style="--d:2s;" pathLength="3333" clip-path="url(#z29435c2)" d="M145 207L248 277L300 349L337 572L324 738L278 852L257 862L157 807"/>
<path style="--d:3s;" pathLength="3333" clip-path="url(#z29435c3)" d="M295 437L282 501L229 576L68 734"/>
<path style="--d:4s;" pathLength="3333" clip-path="url(#z29435c4)" d="M577 79L617 125L500 309L502 335L738 292"/>
<path style="--d:5s;" pathLength="3333" clip-path="url(#z29435c5)" d="M708 221L814 358"/>
<path style="--d:6s;" pathLength="3333" clip-path="url(#z29435c6)" d="M491 412L512 451L368 575"/>
<path style="--d:7s;" pathLength="3333" clip-path="url(#z29435c7)" d="M692 397L789 448L834 501"/>
<path style="--d:8s;" pathLength="3333" clip-path="url(#z29435c8)" d="M559 493L583 531L556 575L396 720"/>
<path style="--d:9s;" pathLength="3333" clip-path="url(#z29435c9)" d="M589 584L678 553L727 573L652 734L529 853L379 895"/>
<path style="--d:10s;" pathLength="3333" clip-path="url(#z29435c10)" d="M525 652L767 870L953 907"/>
</svg>