<!--
AnimCJK 2016-2026 Copyright FM-SH, https://github.com/parsimonhi/animCJK
Derived from:
    MakeMeAHanzi project - https://github.com/skishore/makemeahanzi
    Arphic PL KaitiM GB font
    Arphic PL KaitiM Big5 font
You can redistribute and/or modify this file under the terms of the Arphic Public License
as published by Arphic Technology Co., Ltd.
You should have received a copy of this license along with this file.
If not, see https://ftp.gnu.org/non-gnu/chinese-fonts-truetype/LICENSE.
-->
<svg id="z29451" class="acjk" viewBox="0 0 1024 1024" xmlns="http://www.w3.org/2000/svg">
<style>
<![CDATA[
@keyframes zk {
	to {
		stroke-dashoffset:0;
	}
}
svg.acjk path[clip-path] {
	--t:0.8s;
	animation:zk var(--t) linear forwards var(--d);
	stroke-dasharray:3337;
	stroke-dashoffset:3339;
	stroke-width:128;
	stroke-linecap:round;
	fill:none;
	stroke:#000;
}
svg.acjk path[id] {fill:#ccc;}
]]>
</style>
<path id="z29451d1" d="M496 255Q559 245 653 241Q699 241 704 232Q708 222 694 212Q646 179 592 197Q553 206 502 218C465 225 465 225 447 228Q372 241 285 257Q269 260 282 273Q309 295 339 287Q385 272 438 264C477 258 477 258 496 255Z"/>
<path id="z29451d2" d="M502 218Q517 154 525 137Q534 121 518 112Q476 78 450 87Q437 91 443 105Q464 136 447 228C441 252 441 252 438 264Q437 265 437 269Q406 369 324 421Q311 431 295 442Q283 451 295 453Q347 453 408 397Q456 355 486 277C497 238 497 238 502 218Z"/>
<path id="z29451d3" d="M486 277Q540 359 613 447Q635 469 756 449Q763 448 764 443Q764 439 754 433Q646 388 579 332Q539 298 496 255C486 245 478 266 486 277Z"/>
<path id="z29451d4" d="M653 122Q684 147 716 180Q726 190 740 190Q749 190 753 179Q757 167 751 143Q742 110 650 83Q637 79 632 81Q628 85 629 95Q632 105 653 122Z"/>
<path id="z29451d5" d="M312 676Q322 673 431 656Q441 657 449 645Q450 635 429 625Q395 604 319 631C285 639 285 639 268 643Q250 646 115 669Q88 673 110 689Q140 710 179 702Q213 693 260 686C295 679 295 679 312 676Z"/>
<path id="z29451d6" d="M302 710Q306 694 312 676C317 646 317 646 319 631Q328 568 338 550Q345 534 331 526Q285 496 264 506Q252 510 258 523Q280 554 268 643C263 672 263 672 260 686Q259 687 259 692Q232 788 123 874Q111 884 123 885Q135 885 165 871Q204 852 232 823Q253 805 294 732Q294 731 295 729C300 716 300 716 302 710Z"/>
<path id="z29451d7" d="M295 729Q349 783 393 832Q406 848 419 853Q426 854 433 846Q443 836 433 798Q423 750 302 710C296 707 290 724 295 729Z"/>
<path id="z29451d8" d="M397 538Q419 559 444 584Q454 594 468 594Q477 594 481 583Q485 571 479 547Q475 531 449 517Q389 493 376 497Q372 501 373 511Q376 521 397 538Z"/>
<path id="z29451d9" d="M667 665Q724 656 809 653Q851 653 856 644Q860 634 846 624Q798 591 736 612Q706 618 672 627C637 634 637 634 619 638Q550 651 473 665Q457 668 470 681Q497 703 527 695Q569 682 615 674C650 668 650 668 667 665Z"/>
<path id="z29451d10" d="M664 677Q665 671 667 665C670 640 670 640 672 627Q682 555 688 543Q695 525 680 518Q632 490 610 499Q598 503 605 518Q627 548 619 638C616 662 616 662 615 674Q591 783 505 858Q492 870 478 882Q466 892 478 893Q529 887 589 826Q619 796 657 708C662 687 662 687 664 677Z"/>
<path id="z29451d11" d="M657 708Q708 790 774 880Q801 910 923 889Q930 888 932 883Q933 879 922 872Q804 818 722 736Q694 708 664 677C657 670 651 700 657 708Z"/>
<path id="z29451d12" d="M788 515Q813 537 840 567Q850 577 864 578Q873 578 877 567Q881 555 876 531Q870 503 786 475Q773 471 768 473Q764 477 764 487Q767 497 788 515Z"/>
<defs>
	<clipPath id="z29451c1"><use href="#z29451d1"/></clipPath>
	<clipPath id="z29451c2"><use href="#z29451d2"/></clipPath>
	<clipPath id="z29451c3"><use href="#z29451d3"/></clipPath>
	<clipPath id="z29451c4"><use href="#z29451d4"/></clipPath>
	<clipPath id="z29451c5"><use href="#z29451d5"/></clipPath>
	<clipPath id="z29451c6"><use href="#z29451d6"/></clipPath>
	<clipPath id="z29451c7"><use href="#z29451d7"/></clipPath>
	<clipPath id="z29451c8"><use href="#z29451d8"/></clipPath>
	<clipPath id="z29451c9"><use href="#z29451d9"/></clipPath>
	<clipPath id="z29451c10"><use href="#z29451d10"/></clipPath>
	<clipPath id="z29451c11"><use href="#z29451d11"/></clipPath>
	<clipPath id="z29451c12"><use href="#z29451d12"/></clipPath>
</defs>
<path style="--d:1s;" pathLength="3333" clip-path="url(#z29451c1)" d="M282 262L612 217L700 225"/>
<path style="--d:2s;" pathLength="3333" clip-path="url(#z29451c2)" d="M447 92L491 136L450 302L393 386L294 447"/>
<path style="--d:3s;" pathLength="3333" clip-path="url(#z29451c3)" d="M490 261L635 416L756 441"/>
<path style="--d:4s;" pathLength="3333" clip-path="url(#z29451c4)" d="M636 86L745 183"/>
<path style="--d:5s;" pathLength="3333" clip-path="url(#z29451c5)" d="M109 677L444 642"/>
<path style="--d:6s;" pathLength="3333" clip-path="url(#z29451c6)" d="M263 511L305 547L272 724L213 815L122 878"/>
<path style="--d:7s;" pathLength="3333" clip-path="url(#z29451c7)" d="M301 718L385 780L427 844"/>
<path style="--d:8s;" pathLength="3333" clip-path="url(#z29451c8)" d="M380 502L473 587"/>
<path style="--d:9s;" pathLength="3333" clip-path="url(#z29451c9)" d="M472 672L852 634"/>
<path style="--d:10s;" pathLength="3333" clip-path="url(#z29451c10)" d="M609 506L654 546L632 704L569 819L479 888"/>
<path style="--d:11s;" pathLength="3333" clip-path="url(#z29451c11)" d="M665 688L804 853L925 881"/>
<path style="--d:12s;" pathLength="3333" clip-path="url(#z29451c12)" d="M771 479L869 570"/>
</svg>