<!--
AnimCJK 2016-2017 Copyright Francois Mizessyn, http://gooo.free.fr/animCJK/
Derived from:
    MakeMeAHanzi project - https://github.com/skishore/makemeahanzi
    Arphic PL KaitiM GB - https://apps.ubuntu.com/cat/applications/precise/fonts-arphic-gkai00mp/
    Arphic PL UKai - https://apps.ubuntu.com/cat/applications/fonts-arphic-ukai/
You can redistribute and/or modify this file under the terms of the Arphic Public License
as published by Arphic Technology Co., Ltd.
You should have received a copy of this license (the directory "APL") along with this file;
if not, see http://ftp.gnu.org/non-gnu/chinese-fonts-truetype/LICENSE.
-->
<svg id="z29454" class="acjk" version="1.1" viewBox="0 0 1024 1024" xmlns="http://www.w3.org/2000/svg" xmlns:xlink="http://www.w3.org/1999/xlink">
<style>
<![CDATA[
	@keyframes z29454k {
		from {
			stroke:#c00;
			stroke-dashoffset:3000;
		}
		75% {
			stroke:#c00;
			stroke-dashoffset:0;
		}
		to {
			stroke:#000;
		}
	}
	#z29454 path[clip-path] {
		animation:z29454k 1s linear both;
		stroke-dasharray:3000;
		stroke-width:128;
		stroke-linecap:round;
		fill:none;
	}
	#z29454 path[clip-path="url(#z29454c1)"] {animation-delay:1s;}
	#z29454 path[clip-path="url(#z29454c2)"] {animation-delay:2s;}
	#z29454 path[clip-path="url(#z29454c3)"] {animation-delay:3s;}
	#z29454 path[clip-path="url(#z29454c4)"] {animation-delay:4s;}
	#z29454 path[clip-path="url(#z29454c5)"] {animation-delay:5s;}
	#z29454 path[clip-path="url(#z29454c6)"] {animation-delay:6s;}
	#z29454 path[clip-path="url(#z29454c7)"] {animation-delay:7s;}
	#z29454 path[clip-path="url(#z29454c8)"] {animation-delay:8s;}
	#z29454 path[clip-path="url(#z29454c9)"] {animation-delay:9s;}
	#z29454 path[clip-path="url(#z29454c10)"] {animation-delay:10s;}
	#z29454 path[clip-path="url(#z29454c11)"] {animation-delay:11s;}
	#z29454 path {fill:#ccc;}
]]>
</style>
<g transform="scale(1,-1) translate(0,-900)">
	<path id="z29454d1" d="M312 594Q360 666 409 726Q421 739 407 755Q364 794 337 792Q325 791 327 775Q328 711 279 632L249 591Q218 548 178 514Q141 483 122 465Q112 449 129 453Q183 456 277 554L312 594Z"/>
	<path id="z29454d2" d="M324 412Q337 226 301 119Q295 106 287 103Q269 102 222 116Q191 126 186 120Q182 114 192 101Q238 62 267 26Q286 -2 296 -2Q303 -3 320 13Q401 124 371 426Q364 474 352 511Q336 562 313 594Q312 595 312 594L279 632Q231 680 169 703Q154 710 151 699Q147 684 155 664Q165 645 184 641Q215 631 249 591L277 554Q298 521 307 491L324 412Z"/>
	<path id="z29454d3" d="M307 491Q270 416 224 351Q175 285 64 167Q57 157 69 155Q91 151 207 261Q265 316 321 407Q322 410 324 412L307 491Z"/>
	<path id="z29454d4" d="M725 581Q741 585 759 588Q811 598 818 606Q827 613 823 621Q816 631 790 639Q762 645 735 635Q734 635 733 634L678 617Q621 604 569 591L522 584Q491 581 457 578Q423 574 447 557Q474 539 525 542L569 550Q620 562 674 571L725 581Z"/>
	<path id="z29454d5" d="M569 591Q569 660 573 676Q577 698 562 711Q540 729 513 739Q498 743 490 738Q483 732 488 717Q515 663 522 584L525 542Q528 499 532 431L573 437Q570 501 569 550L569 591Z"/>
	<path id="z29454d6" d="M705 460Q715 521 725 581L733 634Q739 695 766 775Q770 785 752 802Q718 824 694 831Q678 835 670 828Q661 821 668 805Q687 772 686 751Q685 687 678 617L674 571Q668 514 661 452L705 460Z"/>
	<path id="z29454d7" d="M532 431Q474 424 411 413Q392 410 406 395Q419 382 437 378Q456 374 471 378Q636 426 887 427L889 427Q908 427 912 435Q916 447 901 459Q846 499 784 477Q748 471 705 460L661 452Q648 451 635 448Q604 444 573 437L532 431Z"/>
	<path id="z29454d8" d="M512 311Q497 326 468 323Q458 319 462 310Q499 235 470 122Q449 71 481 39Q488 27 496 33Q505 40 513 63L520 95Q521 116 522 176L522 200Q522 261 523 281L512 311Z"/>
	<path id="z29454d9" d="M696 79Q712 54 726 24Q738 2 749 0Q759 0 769 25Q781 58 782 148Q773 262 785 293Q794 315 781 325Q772 337 734 355Q716 364 676 349Q637 336 593 327Q557 318 512 311L523 281Q658 308 678 310Q700 313 708 304Q717 295 714 173Q715 130 711 120Q707 110 692 113Q688 114 686 113L696 79Z"/>
	<path id="z29454d10" d="M522 176Q526 175 533 176Q606 189 660 197Q682 201 673 213Q663 226 639 230Q606 234 522 200L522 176Z"/>
	<path id="z29454d11" d="M513 63Q522 62 532 63Q584 73 696 79L686 113Q686 114 684 116Q669 125 640 118Q573 103 520 95L513 63Z"/>
	<defs>
		<clipPath id="z29454c1"><use xlink:href="#z29454d1"/></clipPath>
		<clipPath id="z29454c2"><use xlink:href="#z29454d2"/></clipPath>
		<clipPath id="z29454c3"><use xlink:href="#z29454d3"/></clipPath>
		<clipPath id="z29454c4"><use xlink:href="#z29454d4"/></clipPath>
		<clipPath id="z29454c5"><use xlink:href="#z29454d5"/></clipPath>
		<clipPath id="z29454c6"><use xlink:href="#z29454d6"/></clipPath>
		<clipPath id="z29454c7"><use xlink:href="#z29454d7"/></clipPath>
		<clipPath id="z29454c8"><use xlink:href="#z29454d8"/></clipPath>
		<clipPath id="z29454c9"><use xlink:href="#z29454d9"/></clipPath>
		<clipPath id="z29454c10"><use xlink:href="#z29454d10"/></clipPath>
		<clipPath id="z29454c11"><use xlink:href="#z29454d11"/></clipPath>
	</defs>
	<path pathLength="2999" clip-path="url(#z29454c1)" d="M337 784L369 738L302 623L222 528L126 461"/>
	<path pathLength="2999" clip-path="url(#z29454c2)" d="M157 699L300 567L350 386L347 189L312 70L286 51L191 116"/>
	<path pathLength="2999" clip-path="url(#z29454c3)" d="M304 479L299 421L248 343L72 162"/>
	<path pathLength="2999" clip-path="url(#z29454c4)" d="M444 570L517 563L820 614"/>
	<path pathLength="2999" clip-path="url(#z29454c5)" d="M494 731L541 677L543 436"/>
	<path pathLength="2999" clip-path="url(#z29454c6)" d="M671 823L726 770L681 457"/>
	<path pathLength="2999" clip-path="url(#z29454c7)" d="M407 404L812 455L909 444"/>
	<path pathLength="2999" clip-path="url(#z29454c8)" d="M471 314L502 236L487 37"/>
	<path pathLength="2999" clip-path="url(#z29454c9)" d="M520 308L709 334L747 308L743 7"/>
	<path pathLength="2999" clip-path="url(#z29454c10)" d="M528 184L670 206"/>
	<path pathLength="2999" clip-path="url(#z29454c11)" d="M518 69L691 91"/>
</g>
</svg>