<!--
AnimCJK 2016-2019 Copyright Francois Mizessyn - https://github.com/parsimonhi/animCJK
Derived from:
    MakeMeAHanzi project - https://github.com/skishore/makemeahanzi
    Arphic PL KaitiM GB font
    Arphic PL UKai font
You can redistribute and/or modify this file under the terms of the Arphic Public License
as published by Arphic Technology Co., Ltd.
You should have received a copy of this license along with this file.
If not, see http://ftp.gnu.org/non-gnu/chinese-fonts-truetype/LICENSE.
-->
<svg id="z29609" class="acjk" version="1.1" viewBox="0 0 1024 1024" xmlns="http://www.w3.org/2000/svg" xmlns:xlink="http://www.w3.org/1999/xlink">
<style>
<![CDATA[
@keyframes zk {
	to {
		stroke-dashoffset:0;
	}
}
svg.acjk path[clip-path] {
	--t:0.8s;
	animation:zk var(--t) linear forwards var(--d);
	stroke-dasharray:3337;
	stroke-dashoffset:3339;
	stroke-width:128;
	stroke-linecap:round;
	fill:none;
	stroke:#000;
}
svg.acjk path[id] {fill:#ccc;}
]]>
</style>
<path id="z29609d1" d="M289 255C375 229 417 209 419 208C425 201 425 195 421 189C414 180 400 175 378 173C355 171 333 176 311 188C292 197 247 214 174 232C146 238 144 251 166 260C188 269 217 276 248 267C275 259 275 259 289 255Z"/>
<path id="z29609d2" d="M307 453C323 447 340 440 359 433C375 426 385 421 387 419C391 413 392 407 389 403C383 396 370 391 351 390C336 388 322 390 310 397C277 414 277 414 261 422C246 429 167 452 163 454C140 461 137 471 157 478C181 487 216 485 260 470C291 459 291 459 307 453Z"/>
<path id="z29609d3" d="M299 634C301 569 304 509 307 453C309 416 309 416 310 397C312 351 312 319 316 304C319 291 320 282 314 276C305 267 297 260 289 255C277 248 243 254 248 267C258 293 262 344 261 422C260 454 260 454 260 470C259 516 256 577 255 652C255 668 299 650 299 634Z"/>
<path id="z29609d4" d="M255 652C220 666 189 677 151 692C140 696 124 698 105 701C96 702 91 707 91 714C90 722 93 729 101 734C116 743 136 753 159 763C165 765 173 763 181 756C202 736 224 718 249 705C286 684 324 662 361 640C375 631 387 621 398 613C405 606 411 600 409 595C406 590 398 591 391 594C360 605 330 621 299 634C270 646 270 646 255 652Z"/>
<path id="z29609d5" d="M510 201C483 208 480 219 502 228C533 241 573 238 621 223C657 211 695 199 735 186C753 179 764 174 767 172C773 165 773 159 769 153C762 144 748 139 726 137C706 135 668 149 611 172C568 188 533 194 510 201Z"/>
<path id="z29609d6" d="M650 395C670 390 732 382 837 371C848 369 856 366 859 360C861 353 858 345 846 338C808 316 772 314 737 326C646 354 545 379 433 406C420 409 418 416 430 425C449 440 474 442 503 433C535 422 571 411 611 403C637 398 637 398 650 395Z"/>
<path id="z29609d7" d="M496 472C506 584 430 705 272 835C266 839 266 843 271 845C275 847 281 846 288 843C381 800 459 734 509 637C545 564 561 519 570 508C574 501 575 495 572 490C567 483 555 474 537 464C523 456 512 452 507 454C498 456 495 462 496 472Z"/>
<path id="z29609d8" d="M978 758C969 737 959 695 952 632C950 621 949 613 945 610C941 607 937 612 934 624C912 690 894 734 880 754C874 762 861 770 841 775C797 785 753 784 714 766C681 750 665 708 665 648C664 587 671 517 683 440C685 427 682 417 675 411C668 405 660 399 650 395C638 390 606 391 611 403C621 437 627 467 626 491C615 666 623 758 653 795C667 812 689 828 718 836C788 855 896 853 970 800C983 790 985 776 978 758Z"/>
<defs>
	<clipPath id="z29609c1"><use xlink:href="#z29609d1"/></clipPath>
	<clipPath id="z29609c2"><use xlink:href="#z29609d2"/></clipPath>
	<clipPath id="z29609c3"><use xlink:href="#z29609d3"/></clipPath>
	<clipPath id="z29609c4"><use xlink:href="#z29609d4"/></clipPath>
	<clipPath id="z29609c5"><use xlink:href="#z29609d5"/></clipPath>
	<clipPath id="z29609c6"><use xlink:href="#z29609d6"/></clipPath>
	<clipPath id="z29609c7"><use xlink:href="#z29609d7"/></clipPath>
	<clipPath id="z29609c8"><use xlink:href="#z29609d8"/></clipPath>
</defs>
<path style="--d:1s;" pathLength="3333" clip-path="url(#z29609c1)" d="M157 247L420 195"/>
<path style="--d:2s;" pathLength="3333" clip-path="url(#z29609c2)" d="M149 468L384 415"/>
<path style="--d:3s;" pathLength="3333" clip-path="url(#z29609c3)" d="M255 270L288 301L269 646"/>
<path style="--d:4s;" pathLength="3333" clip-path="url(#z29609c4)" d="M95 712L158 728L402 600"/>
<path style="--d:5s;" pathLength="3333" clip-path="url(#z29609c5)" d="M494 214L767 163"/>
<path style="--d:6s;" pathLength="3333" clip-path="url(#z29609c6)" d="M430 413L762 349L854 350"/>
<path style="--d:7s;" pathLength="3333" clip-path="url(#z29609c7)" d="M505 463L535 505L465 664L373 770L274 839"/>
<path style="--d:8s;" pathLength="3333" clip-path="url(#z29609c8)" d="M618 409L653 439L645 669L690 786L792 815L911 786L935 762L944 615"/>
</svg>