<!--
AnimCJK 2016-2019 Copyright Francois Mizessyn - https://github.com/parsimonhi/animCJK
Derived from:
    MakeMeAHanzi project - https://github.com/skishore/makemeahanzi
    Arphic PL KaitiM GB font
    Arphic PL UKai font
You can redistribute and/or modify this file under the terms of the Arphic Public License
as published by Arphic Technology Co., Ltd.
You should have received a copy of this license along with this file.
If not, see http://ftp.gnu.org/non-gnu/chinese-fonts-truetype/LICENSE.
-->
<svg id="z29626" class="acjk" version="1.1" viewBox="0 0 1024 1024" xmlns="http://www.w3.org/2000/svg" xmlns:xlink="http://www.w3.org/1999/xlink">
<style>
<![CDATA[
@keyframes zk {
	to {
		stroke-dashoffset:0;
	}
}
svg.acjk path[clip-path] {
	--t:0.8s;
	animation:zk var(--t) linear forwards var(--d);
	stroke-dasharray:3337;
	stroke-dashoffset:3339;
	stroke-width:128;
	stroke-linecap:round;
	fill:none;
	stroke:#000;
}
svg.acjk path[id] {fill:#ccc;}
]]>
</style>
<path id="z29626d1" d="M389 207Q407 176 432 157Q442 148 438 135Q435 123 411 100Q387 81 369 80Q351 80 358 101Q370 135 303 233Q272 278 228 328Q218 337 216 342Q212 352 225 351Q267 345 371 229C383 214 383 214 389 207Z"/>
<path id="z29626d2" d="M525 217Q667 184 704 189Q719 199 716 207Q717 211 712 224Q682 291 689 295Q696 299 711 287Q760 250 802 236Q836 224 836 216Q835 206 767 160Q743 144 632 167Q617 167 455 197Q421 203 389 207C380 209 363 224 371 229Q399 250 428 242Q456 232 488 225C513 220 513 220 525 217Z"/>
<path id="z29626d3" d="M466 441Q433 440 401 436Q389 435 392 441Q393 448 403 453Q478 499 507 531Q520 544 533 532Q563 496 557 410Q551 307 566 270Q575 254 560 241Q544 226 525 217C514 211 480 215 488 225Q512 249 507 401Q506 402 506 406Q505 430 492 439Q482 446 466 441Z"/>
<path id="z29626d4" d="M352 332Q313 372 270 406Q240 427 246 465Q247 484 270 479Q330 461 356 393Q371 365 373 340Q372 331 366 328Q359 327 352 332Z"/>
<path id="z29626d5" d="M639 344Q691 393 752 463Q765 481 778 485Q785 486 793 478Q803 466 794 428Q782 373 640 317Q633 313 631 323Q630 335 639 344Z"/>
<path id="z29626d6" d="M511 596Q583 584 740 576Q752 577 763 565Q764 552 741 539Q701 515 624 533Q450 558 398 563Q349 564 295 569Q264 570 286 591Q319 624 352 616Q406 607 469 601C497 598 497 598 511 596Z"/>
<path id="z29626d7" d="M538 735Q556 731 575 729Q624 725 664 721Q674 722 684 710Q685 698 663 688Q635 666 554 686Q547 687 541 689C503 697 503 697 484 701Q412 707 341 716Q313 719 334 736Q362 764 395 757Q435 750 485 743C520 738 520 738 538 735Z"/>
<path id="z29626d8" d="M532 838Q535 783 538 735C540 704 540 704 541 689Q542 679 543 671Q543 659 544 651Q551 632 542 622Q526 606 511 596C499 589 464 588 469 601Q481 625 484 701C485 729 485 729 485 743Q485 783 486 842C486 857 532 853 532 838Z"/>
<path id="z29626d9" d="M776 808Q685 821 532 838C501 841 501 841 486 842Q348 852 191 865Q169 866 184 885Q197 901 217 907Q239 914 257 910Q498 858 862 879Q884 880 889 871Q896 858 879 843Q831 804 800 804C784 807 784 807 776 808Z"/>
<path id="z29626d10" d="M800 804Q800 803 801 803Q807 793 805 769Q802 742 733 710Q721 704 716 706Q712 707 711 718Q712 727 729 747Q748 769 767 798Q771 804 776 808C782 814 795 810 800 804Z"/>
<defs>
	<clipPath id="z29626c1"><use xlink:href="#z29626d1"/></clipPath>
	<clipPath id="z29626c2"><use xlink:href="#z29626d2"/></clipPath>
	<clipPath id="z29626c3"><use xlink:href="#z29626d3"/></clipPath>
	<clipPath id="z29626c4"><use xlink:href="#z29626d4"/></clipPath>
	<clipPath id="z29626c5"><use xlink:href="#z29626d5"/></clipPath>
	<clipPath id="z29626c6"><use xlink:href="#z29626d6"/></clipPath>
	<clipPath id="z29626c7"><use xlink:href="#z29626d7"/></clipPath>
	<clipPath id="z29626c8"><use xlink:href="#z29626d8"/></clipPath>
	<clipPath id="z29626c9"><use xlink:href="#z29626d9"/></clipPath>
	<clipPath id="z29626c10"><use xlink:href="#z29626d10"/></clipPath>
</defs>
<path style="--d:1s;" pathLength="3333" clip-path="url(#z29626c1)" d="M366 88L396 143L279 297L220 341"/>
<path style="--d:2s;" pathLength="3333" clip-path="url(#z29626c2)" d="M379 227L708 171L745 183L782 228L693 288"/>
<path style="--d:3s;" pathLength="3333" clip-path="url(#z29626c3)" d="M497 230L535 259L519 471L498 490L399 442"/>
<path style="--d:4s;" pathLength="3333" clip-path="url(#z29626c4)" d="M362 336L252 473"/>
<path style="--d:5s;" pathLength="3333" clip-path="url(#z29626c5)" d="M639 324L741 404L786 480"/>
<path style="--d:6s;" pathLength="3333" clip-path="url(#z29626c6)" d="M284 577L344 591L686 552L755 562"/>
<path style="--d:7s;" pathLength="3333" clip-path="url(#z29626c7)" d="M336 727L677 710"/>
<path style="--d:8s;" pathLength="3333" clip-path="url(#z29626c8)" d="M478 608L513 641L511 839"/>
<path style="--d:9s;" pathLength="3333" clip-path="url(#z29626c9)" d="M185 874L239 886L800 840L887 862"/>
<path style="--d:10s;" pathLength="3333" clip-path="url(#z29626c10)" d="M719 716L775 764L788 805"/>
</svg>