<!--
AnimCJK 2016-2018 Copyright Francois Mizessyn - https://github.com/parsimonhi/animCJK
Derived from:
    MakeMeAHanzi project - https://github.com/skishore/makemeahanzi
    Arphic PL KaitiM GB - https://apps.ubuntu.com/cat/applications/precise/fonts-arphic-gkai00mp/
    Arphic PL UKai - https://apps.ubuntu.com/cat/applications/fonts-arphic-ukai/
You can redistribute and/or modify this file under the terms of the Arphic Public License
as published by Arphic Technology Co., Ltd.
You should have received a copy of this license (the directory "APL") along with this file;
if not, see http://ftp.gnu.org/non-gnu/chinese-fonts-truetype/LICENSE.
-->
<svg id="z29647" class="acjk" version="1.1" viewBox="0 0 1024 1024" xmlns="http://www.w3.org/2000/svg" xmlns:xlink="http://www.w3.org/1999/xlink">
<style>
<![CDATA[
@keyframes z29647k {
	from {
		stroke:#c00;
		stroke-dashoffset:3334;
	}
	75% {
		stroke:#c00;
		stroke-dashoffset:0;
	}
	to {
		stroke:#000;
	}
}
#z29647 path[clip-path] {
	animation:z29647k 1s linear both;
	stroke-dasharray:3334;
	stroke-width:128;
	stroke-linecap:round;
	fill:none;
}
#z29647 path[clip-path="url(#z29647c1)"] {animation-delay:1s;}
#z29647 path[clip-path="url(#z29647c2)"] {animation-delay:2s;}
#z29647 path[clip-path="url(#z29647c3)"] {animation-delay:3s;}
#z29647 path[clip-path="url(#z29647c4)"] {animation-delay:4s;}
#z29647 path[clip-path="url(#z29647c5)"] {animation-delay:5s;}
#z29647 path[clip-path="url(#z29647c6)"] {animation-delay:6s;}
#z29647 path[clip-path="url(#z29647c7)"] {animation-delay:7s;}
#z29647 path[clip-path="url(#z29647c8)"] {animation-delay:8s;}
#z29647 path[clip-path="url(#z29647c9)"] {animation-delay:9s;}
#z29647 path {fill:#ccc;}
]]>
</style>
<path id="z29647d1" d="M298 249Q419 219 424 215Q433 205 428 197Q419 184 388 178Q355 172 323 186Q287 199 248 211Q205 221 153 228Q114 235 143 253Q182 274 246 261L298 249 Z"/>
<path id="z29647d2" d="M310 456Q400 434 408 427Q417 420 412 411Q405 401 376 395Q343 391 311 406L261 423Q254 424 248 427Q208 437 159 444Q125 451 150 466Q196 487 259 468Q260 468 262 468L310 456 Z"/>
<path id="z29647d3" d="M307 639Q308 540 310 456L311 406Q311 331 315 290Q322 269 298 249L246 261Q258 279 261 423L262 468Q262 543 262 658L307 639 Z"/>
<path id="z29647d4" d="M262 658Q204 680 143 707Q124 714 93 717Q80 720 79 730Q78 743 89 751Q113 764 147 779Q157 780 169 771Q202 741 373 643Q397 630 414 613Q426 604 425 595Q419 591 407 594Q359 616 307 639L262 658 Z"/>
<path id="z29647d5" d="M651 227Q825 194 830 191Q840 182 835 173Q828 160 797 151Q764 144 663 174Q542 193 500 197Q460 201 488 221Q531 248 593 236L651 227 Z"/>
<path id="z29647d6" d="M666 479Q672 478 792 463Q802 464 812 452Q813 439 790 428Q753 407 672 429Q669 429 668 430L612 442Q546 449 481 458Q451 462 474 480Q504 505 551 497Q578 491 611 487L666 479 Z"/>
<path id="z29647d7" d="M659 728Q663 593 666 479L668 430Q671 312 674 277Q683 250 651 227L593 236Q608 273 612 373Q612 400 612 442L611 487Q610 581 608 735L659 728 Z"/>
<path id="z29647d8" d="M608 735Q496 748 366 764Q344 765 360 785Q376 801 395 807Q419 813 436 808Q596 769 893 768Q909 768 927 769Q949 770 955 760Q961 747 943 732Q886 689 844 697Q774 710 659 728L608 735 Z"/>
<path id="z29647d9" d="M784 597Q808 619 834 647Q846 660 861 660Q871 660 877 647Q881 634 875 605Q866 575 781 551Q766 547 760 549Q756 553 756 565Q759 575 784 597 Z"/>
<defs>
	<clipPath id="z29647c1"><use xlink:href="#z29647d1"/></clipPath>
	<clipPath id="z29647c2"><use xlink:href="#z29647d2"/></clipPath>
	<clipPath id="z29647c3"><use xlink:href="#z29647d3"/></clipPath>
	<clipPath id="z29647c4"><use xlink:href="#z29647d4"/></clipPath>
	<clipPath id="z29647c5"><use xlink:href="#z29647d5"/></clipPath>
	<clipPath id="z29647c6"><use xlink:href="#z29647d6"/></clipPath>
	<clipPath id="z29647c7"><use xlink:href="#z29647d7"/></clipPath>
	<clipPath id="z29647c8"><use xlink:href="#z29647d8"/></clipPath>
	<clipPath id="z29647c9"><use xlink:href="#z29647d9"/></clipPath>
</defs>
<path pathLength="3333" clip-path="url(#z29647c1)" d="M141 241L424 199"/>
<path pathLength="3333" clip-path="url(#z29647c2)" d="M150 455L410 417"/>
<path pathLength="3333" clip-path="url(#z29647c3)" d="M254 266L286 295L272 652"/>
<path pathLength="3333" clip-path="url(#z29647c4)" d="M84 730L149 742L419 600"/>
<path pathLength="3333" clip-path="url(#z29647c5)" d="M486 208L830 180"/>
<path pathLength="3333" clip-path="url(#z29647c6)" d="M473 468L806 447"/>
<path pathLength="3333" clip-path="url(#z29647c7)" d="M602 240L640 281L629 731"/>
<path pathLength="3333" clip-path="url(#z29647c8)" d="M360 774L424 783L854 732L952 748"/>
<path pathLength="3333" clip-path="url(#z29647c9)" d="M764 557L874 643"/>
</svg>