<!--
AnimCJK 2016-2019 Copyright Francois Mizessyn - https://github.com/parsimonhi/animCJK
Derived from:
    MakeMeAHanzi project - https://github.com/skishore/makemeahanzi
    Arphic PL KaitiM GB font
    Arphic PL UKai font
You can redistribute and/or modify this file under the terms of the Arphic Public License
as published by Arphic Technology Co., Ltd.
You should have received a copy of this license along with this file.
If not, see http://ftp.gnu.org/non-gnu/chinese-fonts-truetype/LICENSE.
-->
<svg id="z29662" class="acjk" version="1.1" viewBox="0 0 1024 1024" xmlns="http://www.w3.org/2000/svg" xmlns:xlink="http://www.w3.org/1999/xlink">
<style>
<![CDATA[
@keyframes zk {
	to {
		stroke-dashoffset:0;
	}
}
svg.acjk path[clip-path] {
	--t:0.8s;
	animation:zk var(--t) linear forwards var(--d);
	stroke-dasharray:3337;
	stroke-dashoffset:3339;
	stroke-width:128;
	stroke-linecap:round;
	fill:none;
	stroke:#000;
}
svg.acjk path[id] {fill:#ccc;}
]]>
</style>
<path id="z29662d1" d="M265 290Q379 254 382 252Q392 242 385 233Q375 220 342 216Q308 213 275 230Q250 240 222 250Q191 259 155 265Q115 275 146 292Q179 304 221 302C236 302 251 296 265 290Z"/>
<path id="z29662d2" d="M283 475Q347 454 349 452Q356 445 352 438Q345 428 319 425Q301 424 284 428C251 441 251 441 235 448Q177 466 136 475Q105 484 129 496Q171 512 214 496Q223 493 235 490C267 480 267 480 283 475Z"/>
<path id="z29662d3" d="M278 627Q279 545 283 475C284 444 284 444 284 428Q287 311 288 311Q276 299 265 290C253 281 213 289 221 302Q234 323 235 448C235 476 235 476 235 490Q235 551 235 646C235 662 278 643 278 627Z"/>
<path id="z29662d4" d="M235 646Q61 719 58 729Q57 739 71 754Q90 772 114 782Q126 785 151 768Q230 693 346 622Q362 612 372 600Q379 587 368 587Q356 587 278 627C249 640 249 640 235 646Z"/>
<path id="z29662d5" d="M539 254Q597 167 612 155Q619 145 616 133Q612 121 587 100Q563 84 546 83Q530 84 536 105Q554 144 475 268Q438 326 386 388Q377 398 375 403Q372 413 385 411Q403 408 456 353C467 342 467 342 472 336Q479 327 488 318Q503 302 519 281C532 263 532 263 539 254Z"/>
<path id="z29662d6" d="M627 441Q670 387 714 323Q733 293 770 263Q786 251 780 241Q777 231 712 208Q694 199 646 225Q604 238 539 254C528 256 509 277 519 281Q546 294 631 269Q652 263 659 272Q663 279 649 302Q624 354 586 409C572 428 572 428 565 438Q468 558 334 669Q319 682 335 683Q417 671 582 496Q591 484 602 472C619 451 619 451 627 441Z"/>
<path id="z29662d7" d="M602 472Q752 622 797 623Q866 623 957 601Q993 594 989 584Q988 580 952 571Q777 532 731 510Q659 465 627 441C600 420 600 420 586 409Q564 390 539 368Q503 335 472 336C464 336 449 349 456 353Q457 354 463 357Q499 375 565 438C590 461 590 461 602 472Z"/>
<path id="z29662d8" d="M485 665Q473 658 436 651Q424 648 421 653Q414 659 423 675Q451 739 468 841Q471 872 488 892Q506 914 511 899Q515 886 515 864C512 839 512 839 511 826Q495 732 492 698C490 687 494 673 485 666C485 665 485 665 485 665Z"/>
<path id="z29662d9" d="M735 797Q757 719 790 697Q806 678 792 659Q717 602 659 627Q590 649 485 666C474 668 481 700 492 698Q679 667 685 669Q686 669 690 672Q705 687 678 799C675 818 731 816 735 797Z"/>
<path id="z29662d10" d="M515 864Q542 851 758 840Q768 839 771 830Q772 821 740 799Q739 798 735 797C717 790 697 795 678 799Q587 817 511 826C498 828 503 869 515 864Z"/>
<defs>
	<clipPath id="z29662c1"><use xlink:href="#z29662d1"/></clipPath>
	<clipPath id="z29662c2"><use xlink:href="#z29662d2"/></clipPath>
	<clipPath id="z29662c3"><use xlink:href="#z29662d3"/></clipPath>
	<clipPath id="z29662c4"><use xlink:href="#z29662d4"/></clipPath>
	<clipPath id="z29662c5"><use xlink:href="#z29662d5"/></clipPath>
	<clipPath id="z29662c6"><use xlink:href="#z29662d6"/></clipPath>
	<clipPath id="z29662c7"><use xlink:href="#z29662d7"/></clipPath>
	<clipPath id="z29662c8"><use xlink:href="#z29662d8"/></clipPath>
	<clipPath id="z29662c9"><use xlink:href="#z29662d9"/></clipPath>
	<clipPath id="z29662c10"><use xlink:href="#z29662d10"/></clipPath>
</defs>
<path style="--d:1s;" pathLength="3333" clip-path="url(#z29662c1)" d="M140 278L383 242"/>
<path style="--d:2s;" pathLength="3333" clip-path="url(#z29662c2)" d="M124 484L349 439"/>
<path style="--d:3s;" pathLength="3333" clip-path="url(#z29662c3)" d="M228 304L259 330L248 639"/>
<path style="--d:4s;" pathLength="3333" clip-path="url(#z29662c4)" d="M64 728L122 739L366 595"/>
<path style="--d:5s;" pathLength="3333" clip-path="url(#z29662c5)" d="M544 89L576 146L384 405"/>
<path style="--d:6s;" pathLength="3333" clip-path="url(#z29662c6)" d="M526 277L679 240L726 262L539 506L335 677"/>
<path style="--d:7s;" pathLength="3333" clip-path="url(#z29662c7)" d="M469 348L765 565L980 588"/>
<path style="--d:8s;" pathLength="3333" clip-path="url(#z29662c8)" d="M425 659L459 683L498 900"/>
<path style="--d:9s;" pathLength="3333" clip-path="url(#z29662c9)" d="M492 670L719 653L746 689L696 798"/>
<path style="--d:10s;" pathLength="3333" clip-path="url(#z29662c10)" d="M523 855L682 821L763 829"/>
</svg>