<!--
AnimCJK 2016-2017 Copyright Francois Mizessyn, http://gooo.free.fr/animCJK/
Derived from:
    MakeMeAHanzi project - https://github.com/skishore/makemeahanzi
    Arphic PL KaitiM GB - https://apps.ubuntu.com/cat/applications/precise/fonts-arphic-gkai00mp/
    Arphic PL UKai - https://apps.ubuntu.com/cat/applications/fonts-arphic-ukai/
You can redistribute and/or modify this file under the terms of the Arphic Public License
as published by Arphic Technology Co., Ltd.
You should have received a copy of this license (the directory "APL") along with this file;
if not, see http://ftp.gnu.org/non-gnu/chinese-fonts-truetype/LICENSE.
-->
<svg id="z29701" class="acjk" version="1.1" viewBox="0 0 1024 1024" xmlns="http://www.w3.org/2000/svg" xmlns:xlink="http://www.w3.org/1999/xlink">
<style>
<![CDATA[
	@keyframes z29701k {
		from {
			stroke:#c00;
			stroke-dashoffset:3000;
		}
		75% {
			stroke:#c00;
			stroke-dashoffset:0;
		}
		to {
			stroke:#000;
		}
	}
	#z29701 path[clip-path] {
		animation:z29701k 1s linear both;
		stroke-dasharray:3000;
		stroke-width:128;
		stroke-linecap:round;
		fill:none;
	}
	#z29701 path[clip-path="url(#z29701c1)"] {animation-delay:1s;}
	#z29701 path[clip-path="url(#z29701c2)"] {animation-delay:2s;}
	#z29701 path[clip-path="url(#z29701c3)"] {animation-delay:3s;}
	#z29701 path[clip-path="url(#z29701c4)"] {animation-delay:4s;}
	#z29701 path[clip-path="url(#z29701c5)"] {animation-delay:5s;}
	#z29701 path[clip-path="url(#z29701c6)"] {animation-delay:6s;}
	#z29701 path[clip-path="url(#z29701c7)"] {animation-delay:7s;}
	#z29701 path[clip-path="url(#z29701c8)"] {animation-delay:8s;}
	#z29701 path[clip-path="url(#z29701c9)"] {animation-delay:9s;}
	#z29701 path[clip-path="url(#z29701c10)"] {animation-delay:10s;}
	#z29701 path[clip-path="url(#z29701c11)"] {animation-delay:11s;}
	#z29701 path {fill:#ccc;}
]]>
</style>
<g transform="scale(1,-1) translate(0,-900)">
	<path id="z29701d1" d="M270 626Q384 665 386 667Q395 677 389 684Q380 696 349 699Q318 702 289 685Q264 675 236 664Q205 654 169 647Q132 637 161 623Q182 614 229 614L270 626Z"/>
	<path id="z29701d2" d="M296 429Q323 439 352 447Q379 457 382 461Q389 470 384 477Q377 487 347 491Q322 494 298 483L246 460Q156 436 149 433Q115 423 141 410Q184 391 236 411Q240 412 247 414L296 429Z"/>
	<path id="z29701d3" d="M292 268Q293 355 296 429L298 483Q298 538 302 574Q311 599 272 625Q271 626 270 626L229 614Q244 581 246 460L247 414Q247 347 247 245L292 268Z"/>
	<path id="z29701d4" d="M247 245Q193 220 136 190Q118 181 89 177Q76 173 76 162Q76 149 87 142Q114 130 150 117Q162 116 172 127Q197 155 351 263Q372 278 386 294Q398 304 397 313Q388 319 292 268L247 245Z"/>
	<path id="z29701d5" d="M563 798Q588 779 613 755Q629 743 645 745Q657 746 661 760Q665 776 653 807Q641 835 555 848Q539 851 532 847Q526 843 529 829Q533 819 563 798Z"/>
	<path id="z29701d6" d="M653 412Q672 388 689 381Q701 374 715 396Q730 427 751 584Q758 615 781 643Q794 656 781 670Q765 686 719 710Q701 717 636 698Q621 698 504 662L518 629Q567 645 654 662Q675 666 682 660Q698 644 696 626Q680 478 670 456Q666 446 655 440L653 412Z"/>
	<path id="z29701d7" d="M513 510Q517 510 523 511Q589 529 638 540Q660 546 650 557Q638 570 614 571Q574 571 512 535L513 510Z"/>
	<path id="z29701d8" d="M529 392Q599 405 653 412L655 440Q619 458 516 416L517 392L529 392Z"/>
	<path id="z29701d9" d="M504 662Q483 678 464 687Q445 694 436 687Q426 680 435 665Q495 545 461 120Q460 69 420 18Q408 2 416 -22Q428 -49 441 -60Q454 -69 467 -51Q480 -24 604 87Q623 100 628 110Q632 120 622 120Q607 120 523 74Q510 67 509 80Q516 230 516 356L517 392L516 416Q515 465 513 510L512 535Q511 587 518 629L504 662Z"/>
	<path id="z29701d10" d="M688 237Q785 313 834 342Q853 348 848 359Q841 375 822 394Q803 413 779 414Q763 413 765 393Q768 366 670 251L688 237Z"/>
	<path id="z29701d11" d="M516 356Q720 103 775 83Q845 70 941 82Q960 83 962 88Q965 95 950 102Q895 127 832 153Q760 184 708 224Q698 231 688 237L670 251Q669 252 517 392L516 356Z"/>
	<defs>
		<clipPath id="z29701c1"><use xlink:href="#z29701d1"/></clipPath>
		<clipPath id="z29701c2"><use xlink:href="#z29701d2"/></clipPath>
		<clipPath id="z29701c3"><use xlink:href="#z29701d3"/></clipPath>
		<clipPath id="z29701c4"><use xlink:href="#z29701d4"/></clipPath>
		<clipPath id="z29701c5"><use xlink:href="#z29701d5"/></clipPath>
		<clipPath id="z29701c6"><use xlink:href="#z29701d6"/></clipPath>
		<clipPath id="z29701c7"><use xlink:href="#z29701d7"/></clipPath>
		<clipPath id="z29701c8"><use xlink:href="#z29701d8"/></clipPath>
		<clipPath id="z29701c9"><use xlink:href="#z29701d9"/></clipPath>
		<clipPath id="z29701c10"><use xlink:href="#z29701d10"/></clipPath>
		<clipPath id="z29701c11"><use xlink:href="#z29701d11"/></clipPath>
	</defs>
	<path pathLength="2999" clip-path="url(#z29701c1)" d="M156 635L386 681"/>
	<path pathLength="2999" clip-path="url(#z29701c2)" d="M139 423L379 472"/>
	<path pathLength="2999" clip-path="url(#z29701c3)" d="M236 609L272 574L269 272L253 254"/>
	<path pathLength="2999" clip-path="url(#z29701c4)" d="M79 164L151 156L390 307"/>
	<path pathLength="2999" clip-path="url(#z29701c5)" d="M536 841L618 796L650 751"/>
	<path pathLength="2999" clip-path="url(#z29701c6)" d="M518 636L675 687L738 654L678 389"/>
	<path pathLength="2999" clip-path="url(#z29701c7)" d="M520 519L648 552"/>
	<path pathLength="2999" clip-path="url(#z29701c8)" d="M520 400L651 432"/>
	<path pathLength="2999" clip-path="url(#z29701c9)" d="M438 682L484 625L493 467L457 20L478 -13L620 112"/>
	<path pathLength="2999" clip-path="url(#z29701c10)" d="M775 410L798 354L678 250"/>
	<path pathLength="2999" clip-path="url(#z29701c11)" d="M519 380L764 139L955 91"/>
</g>
</svg>