<!--
AnimCJK 2016-2019 Copyright Francois Mizessyn - https://github.com/parsimonhi/animCJK
Derived from:
    MakeMeAHanzi project - https://github.com/skishore/makemeahanzi
    Arphic PL KaitiM GB font
    Arphic PL UKai font
You can redistribute and/or modify this file under the terms of the Arphic Public License
as published by Arphic Technology Co., Ltd.
You should have received a copy of this license along with this file.
If not, see http://ftp.gnu.org/non-gnu/chinese-fonts-truetype/LICENSE.
-->
<svg id="z29749" class="acjk" version="1.1" viewBox="0 0 1024 1024" xmlns="http://www.w3.org/2000/svg" xmlns:xlink="http://www.w3.org/1999/xlink">
<style>
<![CDATA[
@keyframes zk {
	to {
		stroke-dashoffset:0;
	}
}
svg.acjk path[clip-path] {
	--t:0.8s;
	animation:zk var(--t) linear forwards var(--d);
	stroke-dasharray:3337;
	stroke-dashoffset:3339;
	stroke-width:128;
	stroke-linecap:round;
	fill:none;
	stroke:#000;
}
svg.acjk path[id] {fill:#ccc;}
]]>
</style>
<path id="z29749d1" d="M360 177Q399 167 441 159Q471 152 475 147Q484 140 479 131Q472 121 444 114Q414 108 386 121Q352 131 316 142Q276 151 228 156Q194 163 219 178Q258 200 313 187Q314 186 317 187C346 180 346 180 360 177Z"/>
<path id="z29749d2" d="M368 317Q450 293 452 292Q459 285 455 278Q448 268 423 263Q398 259 372 271Q371 271 370 272C339 283 339 283 324 288Q320 288 314 290Q281 299 242 304Q211 311 234 324Q267 342 318 329Q319 328 325 328C354 321 354 321 368 317Z"/>
<path id="z29749d3" d="M364 418Q365 364 368 317C369 287 369 287 370 272Q374 193 372 188Q366 182 360 177C350 167 314 173 317 187Q323 205 324 288C325 315 325 315 325 328Q325 368 325 430C325 444 364 432 364 418Z"/>
<path id="z29749d4" d="M325 430Q204 461 177 462Q171 461 167 461Q154 461 151 474Q150 486 161 494Q195 516 210 523Q226 530 247 518Q281 496 445 415Q463 408 468 402Q475 392 465 390Q453 387 364 418C338 426 338 426 325 430Z"/>
<path id="z29749d5" d="M658 143Q701 133 746 124Q774 118 779 114Q786 107 783 99Q776 89 750 81Q722 77 695 87Q662 97 628 106Q589 113 544 118Q511 124 535 139Q568 157 614 152C643 146 643 146 658 143Z"/>
<path id="z29749d6" d="M664 282Q698 272 738 264Q763 257 768 254Q775 247 771 239Q764 229 737 222Q712 218 666 236C635 245 635 245 620 250Q586 257 547 262Q514 269 538 283Q571 299 621 292C650 285 650 285 664 282Z"/>
<path id="z29749d7" d="M660 379Q661 327 664 282C665 251 665 251 666 236Q670 157 668 152C667 151 667 151 667 151Q663 147 658 143C647 132 608 138 614 152Q620 165 620 250C621 278 621 278 621 292Q621 331 621 386C621 399 660 392 660 379Z"/>
<path id="z29749d8" d="M621 386Q582 387 504 398Q479 401 498 417Q526 441 553 435Q709 407 811 398Q820 399 829 388Q830 378 810 367Q771 348 717 366Q675 372 660 379C634 384 634 384 621 386Z"/>
<path id="z29749d9" d="M319 650Q364 659 421 640Q488 619 490 618Q497 609 492 602Q485 592 457 589Q445 589 370 613Q346 620 321 625C313 626 311 648 319 650Z"/>
<path id="z29749d10" d="M321 625Q322 600 325 593Q329 577 319 569Q310 559 271 545Q256 541 251 546Q244 552 253 568Q292 631 262 764Q240 819 214 846Q202 856 208 876Q214 901 226 914Q236 923 249 911Q297 862 435 766Q450 759 452 750Q453 744 448 745Q438 745 324 799Q314 803 311 800Q305 794 319 650C320 633 320 633 321 625Z"/>
<path id="z29749d11" d="M573 665Q781 602 786 602Q808 601 804 580Q797 561 777 539Q759 518 747 517Q734 516 734 529Q731 559 651 603Q614 622 575 647C570 650 567 666 573 665Z"/>
<path id="z29749d12" d="M941 812Q929 784 916 698Q916 683 909 678Q903 675 899 691Q871 782 853 811Q838 827 797 840Q706 864 625 841Q595 828 588 811Q567 771 573 665C574 653 574 653 575 647Q579 592 590 528Q594 510 583 500Q570 487 546 477Q533 473 524 478Q517 482 522 500Q535 540 533 579Q521 777 538 831Q542 853 565 872Q646 926 815 897Q831 893 849 889Q892 876 935 848Q953 835 941 812Z"/>
<defs>
	<clipPath id="z29749c1"><use xlink:href="#z29749d1"/></clipPath>
	<clipPath id="z29749c2"><use xlink:href="#z29749d2"/></clipPath>
	<clipPath id="z29749c3"><use xlink:href="#z29749d3"/></clipPath>
	<clipPath id="z29749c4"><use xlink:href="#z29749d4"/></clipPath>
	<clipPath id="z29749c5"><use xlink:href="#z29749d5"/></clipPath>
	<clipPath id="z29749c6"><use xlink:href="#z29749d6"/></clipPath>
	<clipPath id="z29749c7"><use xlink:href="#z29749d7"/></clipPath>
	<clipPath id="z29749c8"><use xlink:href="#z29749d8"/></clipPath>
	<clipPath id="z29749c9"><use xlink:href="#z29749d9"/></clipPath>
	<clipPath id="z29749c10"><use xlink:href="#z29749d10"/></clipPath>
	<clipPath id="z29749c11"><use xlink:href="#z29749d11"/></clipPath>
	<clipPath id="z29749c12"><use xlink:href="#z29749d12"/></clipPath>
</defs>
<path style="--d:1s;" pathLength="3333" clip-path="url(#z29749c1)" d="M220 167L475 134"/>
<path style="--d:2s;" pathLength="3333" clip-path="url(#z29749c2)" d="M234 314L449 283"/>
<path style="--d:3s;" pathLength="3333" clip-path="url(#z29749c3)" d="M325 195L348 219L339 425"/>
<path style="--d:4s;" pathLength="3333" clip-path="url(#z29749c4)" d="M157 477L228 489L462 398"/>
<path style="--d:5s;" pathLength="3333" clip-path="url(#z29749c5)" d="M533 128L777 103"/>
<path style="--d:6s;" pathLength="3333" clip-path="url(#z29749c6)" d="M537 271L767 244"/>
<path style="--d:7s;" pathLength="3333" clip-path="url(#z29749c7)" d="M621 161L644 187L639 382"/>
<path style="--d:8s;" pathLength="3333" clip-path="url(#z29749c8)" d="M496 404L824 385"/>
<path style="--d:9s;" pathLength="3333" clip-path="url(#z29749c9)" d="M325 644L487 606"/>
<path style="--d:10s;" pathLength="3333" clip-path="url(#z29749c10)" d="M256 552L297 593L259 870L444 752"/>
<path style="--d:11s;" pathLength="3333" clip-path="url(#z29749c11)" d="M746 521L756 579L579 655"/>
<path style="--d:12s;" pathLength="3333" clip-path="url(#z29749c12)" d="M530 484L560 531L556 796L591 855L728 879L872 843L903 814L905 685"/>
</svg>