<!--
AnimCJK 2016-2017 Copyright Francois Mizessyn, http://gooo.free.fr/animCJK/
Derived from:
    MakeMeAHanzi project - https://github.com/skishore/makemeahanzi
    Arphic PL KaitiM GB - https://apps.ubuntu.com/cat/applications/precise/fonts-arphic-gkai00mp/
    Arphic PL UKai - https://apps.ubuntu.com/cat/applications/fonts-arphic-ukai/
You can redistribute and/or modify this file under the terms of the Arphic Public License
as published by Arphic Technology Co., Ltd.
You should have received a copy of this license (the directory "APL") along with this file;
if not, see http://ftp.gnu.org/non-gnu/chinese-fonts-truetype/LICENSE.
-->
<svg id="z29791" class="acjk" version="1.1" viewBox="0 0 1024 1024" xmlns="http://www.w3.org/2000/svg" xmlns:xlink="http://www.w3.org/1999/xlink">
<style>
<![CDATA[
	@keyframes z29791k {
		from {
			stroke:#c00;
			stroke-dashoffset:3000;
		}
		75% {
			stroke:#c00;
			stroke-dashoffset:0;
		}
		to {
			stroke:#000;
		}
	}
	#z29791 path[clip-path] {
		animation:z29791k 1s linear both;
		stroke-dasharray:3000;
		stroke-width:128;
		stroke-linecap:round;
		fill:none;
	}
	#z29791 path[clip-path="url(#z29791c1)"] {animation-delay:1s;}
	#z29791 path[clip-path="url(#z29791c2)"] {animation-delay:2s;}
	#z29791 path[clip-path="url(#z29791c3)"] {animation-delay:3s;}
	#z29791 path[clip-path="url(#z29791c4)"] {animation-delay:4s;}
	#z29791 path[clip-path="url(#z29791c5)"] {animation-delay:5s;}
	#z29791 path[clip-path="url(#z29791c6)"] {animation-delay:6s;}
	#z29791 path[clip-path="url(#z29791c7)"] {animation-delay:7s;}
	#z29791 path[clip-path="url(#z29791c8)"] {animation-delay:8s;}
	#z29791 path[clip-path="url(#z29791c9)"] {animation-delay:9s;}
	#z29791 path[clip-path="url(#z29791c10)"] {animation-delay:10s;}
	#z29791 path[clip-path="url(#z29791c11)"] {animation-delay:11s;}
	#z29791 path[clip-path="url(#z29791c12)"] {animation-delay:12s;}
	#z29791 path[clip-path="url(#z29791c13)"] {animation-delay:13s;}
	#z29791 path {fill:#ccc;}
]]>
</style>
<g transform="scale(1,-1) translate(0,-900)">
	<path id="z29791d1" d="M367 724Q479 754 484 757Q493 764 487 773Q480 783 452 790Q422 794 394 781Q363 769 327 760Q290 750 243 744Q209 737 234 722Q282 701 329 716L367 724Z"/>
	<path id="z29791d2" d="M388 587Q407 594 432 600Q460 609 465 613Q472 620 467 627Q460 636 437 640Q412 643 390 631L341 612Q277 594 236 587Q208 580 230 568Q258 553 341 574L388 587Z"/>
	<path id="z29791d3" d="M381 470Q384 534 388 587L390 631Q391 644 392 655Q395 697 392 703Q379 716 367 724L329 716Q341 691 341 612L341 574Q341 528 341 456L381 470Z"/>
	<path id="z29791d4" d="M341 456Q284 438 226 419Q207 413 176 413Q164 412 162 401Q161 388 170 381Q192 366 224 349Q234 348 245 355Q282 385 325 405Q391 435 455 466Q480 476 497 492Q510 499 509 508Q505 512 493 510Q439 491 381 470L341 456Z"/>
	<path id="z29791d5" d="M660 755Q711 768 765 780Q792 787 796 791Q805 800 800 808Q793 820 762 826Q731 830 700 817Q670 807 637 797Q600 787 556 782Q519 775 547 759Q577 743 622 745L660 755Z"/>
	<path id="z29791d6" d="M679 606Q715 616 753 624Q780 631 784 636Q791 643 787 650Q780 660 755 665Q731 669 681 648L633 634Q599 627 562 620Q531 613 554 600Q584 584 633 594L679 606Z"/>
	<path id="z29791d7" d="M673 494Q676 554 679 606L681 648Q684 732 685 734L684 735Q672 747 660 755L622 745Q632 729 633 634L633 594Q633 551 633 485L673 494Z"/>
	<path id="z29791d8" d="M633 485Q572 475 502 460Q483 457 498 443Q528 421 558 429Q669 465 830 466L832 466Q848 467 853 474Q857 484 842 496Q794 529 737 510Q709 504 673 494L633 485Z"/>
	<path id="z29791d9" d="M215 270Q193 210 160 155Q142 125 160 88Q169 72 189 84Q238 124 243 213Q247 247 239 271Q233 280 228 280Q219 279 215 270Z"/>
	<path id="z29791d10" d="M442 64Q578 -2 753 16Q777 22 799 28Q827 38 831 55Q835 65 799 90Q744 141 704 191Q694 207 689 200Q686 196 712 114Q712 84 701 77Q689 74 669 74Q537 75 489 100L439 122Q364 167 345 248Q341 270 329 275Q317 282 310 279Q306 278 307 266Q322 155 397 92L442 64Z"/>
	<path id="z29791d11" d="M430 319Q473 261 498 250Q511 246 520 257Q526 267 525 283Q518 320 444 352Q431 358 422 355Q416 354 417 343Q418 333 430 319Z"/>
	<path id="z29791d12" d="M397 92Q391 91 388 87Q331 47 200 -14Q190 -20 196 -25Q203 -29 215 -27Q300 -11 379 29Q412 45 442 64L489 100Q579 190 632 265Q638 281 689 335Q699 342 696 354Q692 366 666 390Q647 408 637 407Q622 407 621 391Q603 259 439 122L397 92Z"/>
	<path id="z29791d13" d="M744 303Q799 263 868 204Q887 186 902 184Q911 184 917 195Q927 208 910 250Q895 299 741 334Q732 338 731 325Q732 312 744 303Z"/>
	<defs>
		<clipPath id="z29791c1"><use xlink:href="#z29791d1"/></clipPath>
		<clipPath id="z29791c2"><use xlink:href="#z29791d2"/></clipPath>
		<clipPath id="z29791c3"><use xlink:href="#z29791d3"/></clipPath>
		<clipPath id="z29791c4"><use xlink:href="#z29791d4"/></clipPath>
		<clipPath id="z29791c5"><use xlink:href="#z29791d5"/></clipPath>
		<clipPath id="z29791c6"><use xlink:href="#z29791d6"/></clipPath>
		<clipPath id="z29791c7"><use xlink:href="#z29791d7"/></clipPath>
		<clipPath id="z29791c8"><use xlink:href="#z29791d8"/></clipPath>
		<clipPath id="z29791c9"><use xlink:href="#z29791d9"/></clipPath>
		<clipPath id="z29791c10"><use xlink:href="#z29791d10"/></clipPath>
		<clipPath id="z29791c11"><use xlink:href="#z29791d11"/></clipPath>
		<clipPath id="z29791c12"><use xlink:href="#z29791d12"/></clipPath>
		<clipPath id="z29791c13"><use xlink:href="#z29791d13"/></clipPath>
	</defs>
	<path pathLength="2999" clip-path="url(#z29791c1)" d="M232 735L484 767"/>
	<path pathLength="2999" clip-path="url(#z29791c2)" d="M229 578L464 623"/>
	<path pathLength="2999" clip-path="url(#z29791c3)" d="M336 713L365 687L351 460"/>
	<path pathLength="2999" clip-path="url(#z29791c4)" d="M168 400L230 385L500 506"/>
	<path pathLength="2999" clip-path="url(#z29791c5)" d="M541 773L797 803"/>
	<path pathLength="2999" clip-path="url(#z29791c6)" d="M555 609L781 649"/>
	<path pathLength="2999" clip-path="url(#z29791c7)" d="M630 741L658 717L651 490"/>
	<path pathLength="2999" clip-path="url(#z29791c8)" d="M501 450L764 490L848 479"/>
	<path pathLength="2999" clip-path="url(#z29791c9)" d="M227 275L168 84"/>
	<path pathLength="2999" clip-path="url(#z29791c10)" d="M315 275L393 126L537 57L682 43L774 66L694 196"/>
	<path pathLength="2999" clip-path="url(#z29791c11)" d="M423 349L511 254"/>
	<path pathLength="2999" clip-path="url(#z29791c12)" d="M632 402L653 347L501 146L379 54L199 -21"/>
	<path pathLength="2999" clip-path="url(#z29791c13)" d="M736 327L859 257L910 191"/>
</g>
</svg>