<!--
AnimCJK 2016-2019 Copyright Francois Mizessyn - https://github.com/parsimonhi/animCJK
Derived from:
    MakeMeAHanzi project - https://github.com/skishore/makemeahanzi
    Arphic PL KaitiM GB font
    Arphic PL UKai font
You can redistribute and/or modify this file under the terms of the Arphic Public License
as published by Arphic Technology Co., Ltd.
You should have received a copy of this license along with this file.
If not, see http://ftp.gnu.org/non-gnu/chinese-fonts-truetype/LICENSE.
-->
<svg id="z29835" class="acjk" version="1.1" viewBox="0 0 1024 1024" xmlns="http://www.w3.org/2000/svg" xmlns:xlink="http://www.w3.org/1999/xlink">
<style>
<![CDATA[
@keyframes zk {
	to {
		stroke-dashoffset:0;
	}
}
svg.acjk path[clip-path] {
	--t:0.8s;
	animation:zk var(--t) linear forwards var(--d);
	stroke-dasharray:3337;
	stroke-dashoffset:3339;
	stroke-width:128;
	stroke-linecap:round;
	fill:none;
	stroke:#000;
}
svg.acjk path[id] {fill:#ccc;}
]]>
</style>
<path id="z29835d1" d="M252 234Q369 201 373 199Q380 192 376 183Q369 173 339 167Q314 163 251 188Q191 206 147 211Q113 220 138 234Q168 247 210 245C238 238 238 238 252 234Z"/>
<path id="z29835d2" d="M271 431Q299 421 331 413Q355 406 358 402Q365 393 360 386Q353 376 325 373Q297 370 273 384C240 397 240 397 224 403Q220 404 217 405Q186 414 149 421Q116 430 141 443Q175 458 223 447C255 436 255 436 271 431Z"/>
<path id="z29835d3" d="M263 586Q267 504 271 431C272 400 272 400 273 384Q274 324 280 284Q287 266 278 256Q265 243 252 234C240 225 205 232 210 245Q225 269 225 374Q224 386 224 403C223 432 223 432 223 447Q222 511 219 606C219 622 263 602 263 586Z"/>
<path id="z29835d4" d="M219 606Q87 660 79 662Q55 662 53 677Q53 690 64 698Q89 711 126 726Q136 727 148 717Q176 687 339 584Q361 571 378 554Q390 544 389 535Q383 531 370 534Q319 559 263 586C234 599 234 599 219 606Z"/>
<path id="z29835d5" d="M566 86Q593 102 620 123Q635 133 649 130Q658 129 661 116Q662 103 651 76Q644 60 615 51Q546 39 535 45Q531 49 535 61Q539 71 566 86Z"/>
<path id="z29835d6" d="M686 182Q696 178 710 177Q749 170 754 164Q761 157 758 150Q752 140 728 133Q704 127 616 154Q526 172 472 176Q441 180 463 196Q499 215 560 204Q603 195 649 189C674 184 674 184 686 182Z"/>
<path id="z29835d7" d="M494 250Q515 284 531 295Q541 299 549 291Q553 284 554 271Q553 255 542 244Q508 220 489 223Q485 223 486 231Q485 238 494 250Z"/>
<path id="z29835d8" d="M652 299Q689 239 703 223Q716 213 709 205Q702 195 686 182C676 174 647 177 649 189Q655 208 628 288Q624 295 622 304C619 314 646 307 652 299Z"/>
<path id="z29835d9" d="M622 304Q507 320 371 340Q352 341 366 357Q379 369 395 374Q414 378 428 374Q620 320 901 320Q919 319 923 311Q927 301 913 289Q865 252 803 270Q742 282 652 299C632 302 632 302 622 304Z"/>
<path id="z29835d10" d="M466 417Q456 413 426 409Q416 406 412 411Q408 417 415 431Q443 480 462 565Q466 590 481 606Q497 625 502 611Q503 604 504 596C503 577 503 577 502 567Q496 542 491 516C488 503 488 503 487 496Q480 463 478 447C476 436 476 421 466 417Z"/>
<path id="z29835d11" d="M683 576Q698 598 713 607Q723 614 738 594Q750 578 777 490Q786 462 809 438Q822 428 811 413Q798 397 758 371Q743 362 677 378Q653 378 466 417C455 419 468 451 478 447Q551 425 681 406Q709 402 719 411Q728 421 726 433Q707 538 687 548C679 554 677 568 683 576Z"/>
<path id="z29835d12" d="M491 516Q494 516 648 497Q669 494 661 483Q651 470 629 465Q611 462 487 496C480 497 484 517 491 516Z"/>
<path id="z29835d13" d="M605 583Q639 579 683 576C692 576 694 555 687 548Q683 544 678 541Q663 534 637 540Q562 558 502 567C492 569 494 596 504 596Q510 596 517 595Q532 591 553 589C588 585 588 585 605 583Z"/>
<path id="z29835d14" d="M628 703Q706 696 887 695Q906 695 911 686Q915 676 900 662Q851 623 814 632Q742 647 630 665C591 670 591 670 571 673Q463 686 340 703Q321 704 335 721Q348 734 366 740Q385 744 402 741Q480 719 572 709C609 705 609 705 628 703Z"/>
<path id="z29835d15" d="M576 941Q580 965 587 973Q591 980 599 978Q624 960 625 834Q624 804 628 703C629 678 629 678 630 665Q630 661 637 621Q640 605 627 596Q615 589 605 583C590 574 544 574 553 589Q554 590 556 594Q571 615 571 673C572 697 572 697 572 709Q572 907 576 941Z"/>
<defs>
	<clipPath id="z29835c1"><use xlink:href="#z29835d1"/></clipPath>
	<clipPath id="z29835c2"><use xlink:href="#z29835d2"/></clipPath>
	<clipPath id="z29835c3"><use xlink:href="#z29835d3"/></clipPath>
	<clipPath id="z29835c4"><use xlink:href="#z29835d4"/></clipPath>
	<clipPath id="z29835c5"><use xlink:href="#z29835d5"/></clipPath>
	<clipPath id="z29835c6"><use xlink:href="#z29835d6"/></clipPath>
	<clipPath id="z29835c7"><use xlink:href="#z29835d7"/></clipPath>
	<clipPath id="z29835c8"><use xlink:href="#z29835d8"/></clipPath>
	<clipPath id="z29835c9"><use xlink:href="#z29835d9"/></clipPath>
	<clipPath id="z29835c10"><use xlink:href="#z29835d10"/></clipPath>
	<clipPath id="z29835c11"><use xlink:href="#z29835d11"/></clipPath>
	<clipPath id="z29835c12"><use xlink:href="#z29835d12"/></clipPath>
	<clipPath id="z29835c13"><use xlink:href="#z29835d13"/></clipPath>
	<clipPath id="z29835c14"><use xlink:href="#z29835d14"/></clipPath>
	<clipPath id="z29835c15"><use xlink:href="#z29835d15"/></clipPath>
</defs>
<path style="--d:1s;" pathLength="3333" clip-path="url(#z29835c1)" d="M134 221L373 187"/>
<path style="--d:2s;" pathLength="3333" clip-path="url(#z29835c2)" d="M139 432L357 392"/>
<path style="--d:3s;" pathLength="3333" clip-path="url(#z29835c3)" d="M217 246L251 273L242 568L225 598"/>
<path style="--d:4s;" pathLength="3333" clip-path="url(#z29835c4)" d="M59 678L130 684L380 538"/>
<path style="--d:5s;" pathLength="3333" clip-path="url(#z29835c5)" d="M541 52L654 123"/>
<path style="--d:6s;" pathLength="3333" clip-path="url(#z29835c6)" d="M464 184L752 153"/>
<path style="--d:7s;" pathLength="3333" clip-path="url(#z29835c7)" d="M493 228L541 290"/>
<path style="--d:8s;" pathLength="3333" clip-path="url(#z29835c8)" d="M657 195L677 227L631 298"/>
<path style="--d:9s;" pathLength="3333" clip-path="url(#z29835c9)" d="M369 347L817 293L919 304"/>
<path style="--d:10s;" pathLength="3333" clip-path="url(#z29835c10)" d="M419 418L454 456L490 611"/>
<path style="--d:11s;" pathLength="3333" clip-path="url(#z29835c11)" d="M472 418L695 389L757 406L771 429L708 602"/>
<path style="--d:12s;" pathLength="3333" clip-path="url(#z29835c12)" d="M494 503L655 484"/>
<path style="--d:13s;" pathLength="3333" clip-path="url(#z29835c13)" d="M510 589L685 561"/>
<path style="--d:14s;" pathLength="3333" clip-path="url(#z29835c14)" d="M337 711L824 663L907 677"/>
<path style="--d:15s;" pathLength="3333" clip-path="url(#z29835c15)" d="M561 591L602 623L593 972"/>
</svg>