<!--
AnimCJK 2016-2019 Copyright Francois Mizessyn - https://github.com/parsimonhi/animCJK
Derived from:
    MakeMeAHanzi project - https://github.com/skishore/makemeahanzi
    Arphic PL KaitiM GB font
    Arphic PL UKai font
You can redistribute and/or modify this file under the terms of the Arphic Public License
as published by Arphic Technology Co., Ltd.
You should have received a copy of this license along with this file.
If not, see http://ftp.gnu.org/non-gnu/chinese-fonts-truetype/LICENSE.
-->
<svg id="z29830" class="acjk" version="1.1" viewBox="0 0 1024 1024" xmlns="http://www.w3.org/2000/svg" xmlns:xlink="http://www.w3.org/1999/xlink">
<style>
<![CDATA[
@keyframes zk {
	to {
		stroke-dashoffset:0;
	}
}
svg.acjk path[clip-path] {
	--t:0.8s;
	animation:zk var(--t) linear forwards var(--d);
	stroke-dasharray:3337;
	stroke-dashoffset:3339;
	stroke-width:128;
	stroke-linecap:round;
	fill:none;
	stroke:#000;
}
svg.acjk path[id] {fill:#ccc;}
]]>
</style>
<path id="z29830d1" d="M271 265C291 259 324 249 348 242C365 237 374 232 377 230C381 225 383 219 380 214C375 206 363 202 345 200C331 198 288 215 234 232C182 247 142 255 137 257C115 263 112 270 130 279C156 291 195 286 229 277C257 269 257 269 271 265Z"/>
<path id="z29830d2" d="M290 459C334 443 370 431 375 426C380 420 379 414 376 410C371 403 359 399 341 398C327 397 303 402 291 408C260 423 260 423 245 430C195 453 148 462 135 467C114 473 111 482 129 489C152 498 189 494 245 475C275 464 275 464 290 459Z"/>
<path id="z29830d3" d="M287 615C287 559 289 507 290 459C291 425 291 425 291 408C293 307 298 282 284 274C278 270 275 267 271 265C259 258 224 263 229 277C237 295 245 343 245 430C245 460 245 460 245 475C245 504 246 615 245 634C245 649 287 630 287 615Z"/>
<path id="z29830d4" d="M245 634C162 671 100 690 83 693C74 694 70 699 70 707C70 715 72 722 80 727C96 736 116 746 140 754C146 756 154 752 161 745C177 728 252 681 348 620C361 611 373 602 382 594C389 586 395 580 393 575C390 570 382 571 375 575C350 585 314 602 287 615C259 628 259 628 245 634Z"/>
<path id="z29830d5" d="M427 195C424 196 426 202 437 207C447 212 466 214 488 209C522 199 552 189 562 194C567 197 570 208 569 229C562 305 556 350 551 366C548 374 548 382 552 391C555 398 561 402 567 401C573 399 577 393 581 387C588 373 594 336 604 275C608 247 621 226 638 210C646 201 646 193 639 186C628 177 609 169 585 158C569 151 501 176 465 184C451 186 434 188 427 195Z"/>
<path id="z29830d6" d="M452 257C473 282 490 296 505 297C511 297 516 293 518 284C519 278 516 270 511 262C501 246 481 240 454 239C449 238 448 240 448 246C447 250 449 253 452 257Z"/>
<path id="z29830d7" d="M428 361C423 361 420 365 420 372C420 378 426 384 437 391C447 398 455 402 461 402C465 401 467 397 473 389C482 374 503 353 532 325C534 322 535 319 534 317C533 315 531 315 528 317C474 345 440 359 428 361Z"/>
<path id="z29830d8" d="M657 157C652 161 657 165 668 170C682 177 707 179 736 172C768 163 788 156 799 161C805 164 807 180 802 204C782 290 768 343 760 361C755 371 754 381 757 392C759 399 765 405 773 405C781 404 787 399 793 391C803 375 816 333 836 265C845 233 863 210 885 193C895 184 897 174 888 165C877 154 856 140 828 125C809 114 715 146 693 150C683 151 664 148 657 157Z"/>
<path id="z29830d9" d="M678 224C703 248 722 259 733 258C739 257 744 252 745 244C745 238 741 230 735 223C730 216 722 213 712 211C695 207 684 206 678 206C673 206 671 208 672 214C672 216 673 220 678 224Z"/>
<path id="z29830d10" d="M643 327C638 327 635 331 635 338C635 346 642 352 654 359C665 366 673 371 679 371C683 370 685 364 691 357C702 339 725 316 756 285C758 282 759 279 758 277C757 275 754 274 751 277C694 308 659 325 643 327Z"/>
<path id="z29830d11" d="M667 426C669 419 675 413 675 407C673 397 664 394 650 390C634 385 622 383 616 385C612 385 609 389 608 397C596 449 476 563 394 632C348 669 379 669 411 651C449 630 562 544 619 480C630 467 641 454 653 441C657 436 664 432 667 426Z"/>
<path id="z29830d12" d="M653 441C703 493 755 553 810 602C823 614 840 620 862 620C900 619 930 613 971 604C980 601 986 599 987 597C987 593 983 590 976 588C949 579 929 571 898 563C833 545 764 500 667 426C662 422 649 436 653 441Z"/>
<path id="z29830d13" d="M619 511C623 527 608 556 574 598C558 616 539 637 517 659C513 662 509 664 508 668C505 672 507 676 514 675C542 670 586 637 643 577C652 567 660 559 667 554C672 550 673 545 672 539C671 533 665 524 655 513C645 502 636 497 628 497C620 496 616 501 619 511Z"/>
<path id="z29830d14" d="M671 585C674 597 673 607 668 617C641 662 595 720 526 787C520 792 516 794 515 797C512 801 515 804 522 804C550 804 607 751 685 662C697 647 708 643 724 632C729 628 730 621 730 615C729 609 723 599 711 587C700 576 690 570 681 570C672 569 668 574 671 585Z"/>
<path id="z29830d15" d="M737 653C738 705 696 772 607 855C605 856 603 857 602 859C576 882 531 915 468 959C463 962 463 966 470 967C492 969 545 947 619 896C674 857 728 795 790 721C796 713 801 707 806 705C810 702 813 697 813 691C813 685 810 677 803 670C781 647 761 637 745 640C740 640 736 645 737 653Z"/>
<defs>
	<clipPath id="z29830c1"><use xlink:href="#z29830d1"/></clipPath>
	<clipPath id="z29830c2"><use xlink:href="#z29830d2"/></clipPath>
	<clipPath id="z29830c3"><use xlink:href="#z29830d3"/></clipPath>
	<clipPath id="z29830c4"><use xlink:href="#z29830d4"/></clipPath>
	<clipPath id="z29830c5"><use xlink:href="#z29830d5"/></clipPath>
	<clipPath id="z29830c6"><use xlink:href="#z29830d6"/></clipPath>
	<clipPath id="z29830c7"><use xlink:href="#z29830d7"/></clipPath>
	<clipPath id="z29830c8"><use xlink:href="#z29830d8"/></clipPath>
	<clipPath id="z29830c9"><use xlink:href="#z29830d9"/></clipPath>
	<clipPath id="z29830c10"><use xlink:href="#z29830d10"/></clipPath>
	<clipPath id="z29830c11"><use xlink:href="#z29830d11"/></clipPath>
	<clipPath id="z29830c12"><use xlink:href="#z29830d12"/></clipPath>
	<clipPath id="z29830c13"><use xlink:href="#z29830d13"/></clipPath>
	<clipPath id="z29830c14"><use xlink:href="#z29830d14"/></clipPath>
	<clipPath id="z29830c15"><use xlink:href="#z29830d15"/></clipPath>
</defs>
<path style="--d:1s;" pathLength="3333" clip-path="url(#z29830c1)" d="M136 262L375 213"/>
<path style="--d:2s;" pathLength="3333" clip-path="url(#z29830c2)" d="M124 479L363 420"/>
<path style="--d:3s;" pathLength="3333" clip-path="url(#z29830c3)" d="M235 278L267 326L253 629"/>
<path style="--d:4s;" pathLength="3333" clip-path="url(#z29830c4)" d="M73 705L145 714L384 580"/>
<path style="--d:5s;" pathLength="3333" clip-path="url(#z29830c5)" d="M434 197L472 196L556 174L606 203L563 395"/>
<path style="--d:6s;" pathLength="3333" clip-path="url(#z29830c6)" d="M454 246L509 291"/>
<path style="--d:7s;" pathLength="3333" clip-path="url(#z29830c7)" d="M424 370L465 374L525 323"/>
<path style="--d:8s;" pathLength="3333" clip-path="url(#z29830c8)" d="M665 159L696 163L812 142L842 170L776 401"/>
<path style="--d:9s;" pathLength="3333" clip-path="url(#z29830c9)" d="M678 211L739 246"/>
<path style="--d:10s;" pathLength="3333" clip-path="url(#z29830c10)" d="M640 337L684 340L750 284"/>
<path style="--d:11s;" pathLength="3333" clip-path="url(#z29830c11)" d="M669 408L632 415L543 528L382 656"/>
<path style="--d:12s;" pathLength="3333" clip-path="url(#z29830c12)" d="M670 443L836 578L977 595"/>
<path style="--d:13s;" pathLength="3333" clip-path="url(#z29830c13)" d="M626 503L642 544L514 668"/>
<path style="--d:14s;" pathLength="3333" clip-path="url(#z29830c14)" d="M680 577L696 624L525 796"/>
<path style="--d:15s;" pathLength="3333" clip-path="url(#z29830c15)" d="M745 650L771 697L695 795L601 885L475 962"/>
</svg>