<!--
AnimCJK 2016-2019 Copyright Francois Mizessyn - https://github.com/parsimonhi/animCJK
Derived from:
    MakeMeAHanzi project - https://github.com/skishore/makemeahanzi
    Arphic PL KaitiM GB font
    Arphic PL UKai font
You can redistribute and/or modify this file under the terms of the Arphic Public License
as published by Arphic Technology Co., Ltd.
You should have received a copy of this license along with this file.
If not, see http://ftp.gnu.org/non-gnu/chinese-fonts-truetype/LICENSE.
-->
<svg id="z29951" class="acjk" version="1.1" viewBox="0 0 1024 1024" xmlns="http://www.w3.org/2000/svg" xmlns:xlink="http://www.w3.org/1999/xlink">
<style>
<![CDATA[
@keyframes zk {
	to {
		stroke-dashoffset:0;
	}
}
svg.acjk path[clip-path] {
	--t:0.8s;
	animation:zk var(--t) linear forwards var(--d);
	stroke-dasharray:3337;
	stroke-dashoffset:3339;
	stroke-width:128;
	stroke-linecap:round;
	fill:none;
	stroke:#000;
}
svg.acjk path[id] {fill:#ccc;}
]]>
</style>
<path id="z29951d1" d="M290 112Q315 131 344 156Q357 169 374 167Q384 166 389 152Q393 136 381 107Q368 76 282 64Q266 63 260 65Q256 69 257 82Q261 92 290 112Z"/>
<path id="z29951d2" d="M137 266Q103 272 127 287Q161 309 216 297Q304 281 398 261Q441 251 447 246Q454 239 451 231Q444 221 418 213Q390 207 363 218Q314 234 262 247Q204 260 137 266Z"/>
<path id="z29951d3" d="M175 387Q200 438 224 451Q237 457 247 447Q256 437 256 420Q255 398 241 383Q208 350 175 349Q172 348 171 349Q164 349 165 361Q164 371 175 387Z"/>
<path id="z29951d4" d="M344 471Q378 425 398 394Q408 378 426 358Q439 348 433 337Q426 321 399 301Q386 291 370 295Q360 299 365 309Q374 345 319 455Q312 467 310 477C308 488 337 480 344 471Z"/>
<path id="z29951d5" d="M310 477Q145 504 54 512Q42 513 39 520Q35 530 49 541Q83 568 125 558Q290 510 480 491Q496 490 497 482Q498 470 482 461Q457 449 435 453Q384 462 344 471C321 475 321 475 310 477Z"/>
<path id="z29951d6" d="M170 623Q160 619 138 616Q128 613 124 618Q120 624 127 638Q155 696 173 794Q177 822 193 842Q209 861 214 847Q218 832 216 806C212 784 212 784 210 773Q191 674 188 648C186 638 180 627 170 623Z"/>
<path id="z29951d7" d="M384 750Q408 659 441 634Q456 616 442 601Q366 553 323 581Q239 609 170 623C160 625 178 650 188 648Q195 648 336 615Q349 611 356 617Q366 626 363 645Q353 702 339 747C334 761 381 765 384 750Z"/>
<path id="z29951d8" d="M216 806Q223 807 235 805Q287 795 400 786Q410 785 411 777Q411 768 384 750C371 742 354 747 339 747Q338 746 335 747Q265 763 210 773C199 775 205 806 216 806Z"/>
<path id="z29951d9" d="M589 271Q692 237 854 236Q873 236 877 227Q881 217 866 205Q809 171 756 192Q713 201 652 217Q577 233 490 251Q471 255 486 269Q499 279 516 284Q534 287 552 281C577 274 577 274 589 271Z"/>
<path id="z29951d10" d="M583 539Q593 478 601 425C603 409 603 409 604 401Q608 358 621 324Q627 311 619 300Q604 282 589 271C579 263 550 268 552 281Q582 389 510 684Q501 730 458 771Q445 784 450 806Q456 831 467 844Q477 854 491 839Q506 817 635 731Q654 721 659 714Q663 705 655 704Q648 704 558 733Q548 737 547 728Q566 640 579 563C582 547 582 547 583 539Z"/>
<path id="z29951d11" d="M601 425Q619 431 688 419Q704 420 709 429Q715 436 706 570Q681 871 880 882Q886 881 895 881Q932 877 968 859Q999 846 985 813Q961 764 951 686Q948 664 942 660Q932 656 930 671Q912 782 890 803Q859 822 811 802Q754 772 747 658Q740 477 808 415Q835 394 805 381Q735 348 700 372Q654 393 604 401C596 402 593 423 601 425Z"/>
<path id="z29951d12" d="M579 563Q625 617 650 616Q663 617 668 598Q668 585 657 567Q644 546 584 539Q583 538 583 539C575 537 574 557 579 563Z"/>
<defs>
	<clipPath id="z29951c1"><use xlink:href="#z29951d1"/></clipPath>
	<clipPath id="z29951c2"><use xlink:href="#z29951d2"/></clipPath>
	<clipPath id="z29951c3"><use xlink:href="#z29951d3"/></clipPath>
	<clipPath id="z29951c4"><use xlink:href="#z29951d4"/></clipPath>
	<clipPath id="z29951c5"><use xlink:href="#z29951d5"/></clipPath>
	<clipPath id="z29951c6"><use xlink:href="#z29951d6"/></clipPath>
	<clipPath id="z29951c7"><use xlink:href="#z29951d7"/></clipPath>
	<clipPath id="z29951c8"><use xlink:href="#z29951d8"/></clipPath>
	<clipPath id="z29951c9"><use xlink:href="#z29951d9"/></clipPath>
	<clipPath id="z29951c10"><use xlink:href="#z29951d10"/></clipPath>
	<clipPath id="z29951c11"><use xlink:href="#z29951d11"/></clipPath>
	<clipPath id="z29951c12"><use xlink:href="#z29951d12"/></clipPath>
</defs>
<path style="--d:1s;" pathLength="3333" clip-path="url(#z29951c1)" d="M265 71L345 114L379 159"/>
<path style="--d:2s;" pathLength="3333" clip-path="url(#z29951c2)" d="M126 276L443 236"/>
<path style="--d:3s;" pathLength="3333" clip-path="url(#z29951c3)" d="M172 359L241 448"/>
<path style="--d:4s;" pathLength="3333" clip-path="url(#z29951c4)" d="M372 301L398 347L317 468"/>
<path style="--d:5s;" pathLength="3333" clip-path="url(#z29951c5)" d="M41 524L108 533L493 477"/>
<path style="--d:6s;" pathLength="3333" clip-path="url(#z29951c6)" d="M129 621L164 658L204 847"/>
<path style="--d:7s;" pathLength="3333" clip-path="url(#z29951c7)" d="M177 624L349 592L389 606L405 629L352 747"/>
<path style="--d:8s;" pathLength="3333" clip-path="url(#z29951c8)" d="M218 777L404 771"/>
<path style="--d:9s;" pathLength="3333" clip-path="url(#z29951c9)" d="M486 258L775 212L874 221"/>
<path style="--d:10s;" pathLength="3333" clip-path="url(#z29951c10)" d="M560 285L591 317L577 442L493 778L508 800L655 711"/>
<path style="--d:11s;" pathLength="3333" clip-path="url(#z29951c11)" d="M610 419L716 394L768 413L732 517L725 662L750 772L787 819L877 846L942 818L938 665"/>
<path style="--d:12s;" pathLength="3333" clip-path="url(#z29951c12)" d="M587 549L663 604"/>
</svg>