<!--
AnimCJK 2016-2019 Copyright Francois Mizessyn - https://github.com/parsimonhi/animCJK
Derived from:
    MakeMeAHanzi project - https://github.com/skishore/makemeahanzi
    Arphic PL KaitiM GB font
    Arphic PL UKai font
You can redistribute and/or modify this file under the terms of the Arphic Public License
as published by Arphic Technology Co., Ltd.
You should have received a copy of this license along with this file.
If not, see http://ftp.gnu.org/non-gnu/chinese-fonts-truetype/LICENSE.
-->
<svg id="z29980" class="acjk" version="1.1" viewBox="0 0 1024 1024" xmlns="http://www.w3.org/2000/svg" xmlns:xlink="http://www.w3.org/1999/xlink">
<style>
<![CDATA[
@keyframes zk {
	to {
		stroke-dashoffset:0;
	}
}
svg.acjk path[clip-path] {
	--t:0.8s;
	animation:zk var(--t) linear forwards var(--d);
	stroke-dasharray:3337;
	stroke-dashoffset:3339;
	stroke-width:128;
	stroke-linecap:round;
	fill:none;
	stroke:#000;
}
svg.acjk path[id] {fill:#ccc;}
]]>
</style>
<path id="z29980d1" d="M307 244Q344 219 385 187Q398 174 419 164Q431 157 428 147Q424 140 405 131Q365 115 342 118Q332 119 333 131Q333 188 134 312Q127 319 141 321Q187 309 272 266C295 251 295 251 307 244Z"/>
<path id="z29980d2" d="M329 431Q372 419 430 409Q446 406 446 399Q447 386 429 378Q393 365 334 387C301 396 301 396 285 400Q149 431 87 441Q74 442 72 451Q69 461 85 472Q121 496 174 479Q237 455 284 443C314 435 314 435 329 431Z"/>
<path id="z29980d3" d="M312 571Q319 498 329 431C332 402 332 402 334 387Q335 348 355 285Q359 275 342 262Q323 250 307 244C294 239 267 253 272 266Q285 291 286 309Q286 352 285 400C284 429 284 429 284 443Q280 507 274 581C274 594 312 584 312 571Z"/>
<path id="z29980d4" d="M215 591Q203 585 172 579Q160 576 157 581Q150 588 159 603Q187 663 204 760Q207 788 224 808Q242 830 247 815Q251 800 250 776C247 753 247 753 246 742Q230 645 227 618C225 608 224 595 215 591Z"/>
<path id="z29980d5" d="M408 719Q426 640 449 616Q471 591 449 577Q430 565 403 548Q384 538 366 548Q342 561 312 571C287 578 287 578 274 581Q246 585 215 591C205 593 218 622 227 618Q237 612 333 596Q364 589 371 602Q378 608 372 642Q366 675 359 714C356 730 405 735 408 719Z"/>
<path id="z29980d6" d="M250 776Q256 776 263 775Q312 762 421 751Q431 750 432 740Q432 733 408 719C394 711 375 714 359 714Q358 713 355 714Q294 732 246 742C235 744 239 776 250 776Z"/>
<path id="z29980d7" d="M799 400Q848 394 912 393Q966 393 972 383Q976 373 961 361Q912 325 850 344Q826 350 799 356C764 363 764 363 747 367Q677 377 582 396C553 401 553 401 538 403Q498 409 458 416Q439 417 454 433Q467 445 483 449Q484 449 538 443C567 436 567 436 581 432Q638 416 747 404C782 401 782 401 799 400Z"/>
<path id="z29980d8" d="M582 396Q582 329 594 283Q601 270 599 259Q593 252 546 223Q527 208 509 222Q505 226 510 239Q534 273 535 308Q536 353 538 403C538 430 538 430 538 443Q538 666 526 719Q514 762 536 818Q542 833 549 835Q553 841 560 834Q573 825 580 794C581 770 581 770 581 758Q581 724 581 593C581 573 581 573 581 563Q581 505 581 432C582 408 582 408 582 396Z"/>
<path id="z29980d9" d="M702 783Q733 829 738 853Q744 881 755 885Q770 888 787 853Q809 808 813 733Q800 567 799 400C799 371 799 371 799 356Q799 244 815 183Q831 152 776 131Q742 112 723 120Q705 127 722 149Q744 176 745 210Q746 226 747 367C747 392 747 392 747 404Q746 525 746 728Q746 749 735 756Q734 759 726 758Q722 758 717 759C708 761 696 775 702 783Z"/>
<path id="z29980d10" d="M581 593Q651 580 703 575Q725 571 717 559Q707 546 683 541Q650 537 581 563C572 567 571 595 581 593Z"/>
<path id="z29980d11" d="M580 794Q601 787 702 783C711 783 724 766 717 759Q710 752 698 744Q680 735 581 758C569 760 568 796 580 794Z"/>
<defs>
	<clipPath id="z29980c1"><use xlink:href="#z29980d1"/></clipPath>
	<clipPath id="z29980c2"><use xlink:href="#z29980d2"/></clipPath>
	<clipPath id="z29980c3"><use xlink:href="#z29980d3"/></clipPath>
	<clipPath id="z29980c4"><use xlink:href="#z29980d4"/></clipPath>
	<clipPath id="z29980c5"><use xlink:href="#z29980d5"/></clipPath>
	<clipPath id="z29980c6"><use xlink:href="#z29980d6"/></clipPath>
	<clipPath id="z29980c7"><use xlink:href="#z29980d7"/></clipPath>
	<clipPath id="z29980c8"><use xlink:href="#z29980d8"/></clipPath>
	<clipPath id="z29980c9"><use xlink:href="#z29980d9"/></clipPath>
	<clipPath id="z29980c10"><use xlink:href="#z29980d10"/></clipPath>
	<clipPath id="z29980c11"><use xlink:href="#z29980d11"/></clipPath>
</defs>
<path style="--d:1s;" pathLength="3333" clip-path="url(#z29980c1)" d="M421 149L358 156L276 239L144 314"/>
<path style="--d:2s;" pathLength="3333" clip-path="url(#z29980c2)" d="M80 454L135 460L441 391"/>
<path style="--d:3s;" pathLength="3333" clip-path="url(#z29980c3)" d="M279 267L320 292L280 573"/>
<path style="--d:4s;" pathLength="3333" clip-path="url(#z29980c4)" d="M161 586L199 624L235 816"/>
<path style="--d:5s;" pathLength="3333" clip-path="url(#z29980c5)" d="M224 593L395 579L416 606L389 716"/>
<path style="--d:6s;" pathLength="3333" clip-path="url(#z29980c6)" d="M256 768L354 737L425 742"/>
<path style="--d:7s;" pathLength="3333" clip-path="url(#z29980c7)" d="M454 423L967 370"/>
<path style="--d:8s;" pathLength="3333" clip-path="url(#z29980c8)" d="M513 224L565 276L553 832"/>
<path style="--d:9s;" pathLength="3333" clip-path="url(#z29980c9)" d="M719 130L780 189L779 727L746 813L754 878"/>
<path style="--d:10s;" pathLength="3333" clip-path="url(#z29980c10)" d="M586 584L711 564"/>
<path style="--d:11s;" pathLength="3333" clip-path="url(#z29980c11)" d="M588 785L711 761"/>
</svg>