<!--
AnimCJK 2016-2018 Copyright Francois Mizessyn - https://github.com/parsimonhi/animCJK
Derived from:
    MakeMeAHanzi project - https://github.com/skishore/makemeahanzi
    Arphic PL KaitiM GB - https://apps.ubuntu.com/cat/applications/precise/fonts-arphic-gkai00mp/
    Arphic PL UKai - https://apps.ubuntu.com/cat/applications/fonts-arphic-ukai/
You can redistribute and/or modify this file under the terms of the Arphic Public License
as published by Arphic Technology Co., Ltd.
You should have received a copy of this license (the directory "APL") along with this file;
if not, see http://ftp.gnu.org/non-gnu/chinese-fonts-truetype/LICENSE.
-->
<svg id="z29983" class="acjk" version="1.1" viewBox="0 0 1024 1024" xmlns="http://www.w3.org/2000/svg" xmlns:xlink="http://www.w3.org/1999/xlink">
<style>
<![CDATA[
@keyframes z29983k {
	from {
		stroke:#ccc;
		stroke-dashoffset:3334;
	}
	1% {
		stroke:#c00;
		stroke-dashoffset:3334;
	}
	75% {
		stroke:#c00;
		stroke-dashoffset:0;
	}
	to {
		stroke:#000;
	}
}
#z29983 path[clip-path] {
	animation:z29983k 1s linear both;
	stroke-dasharray:3334;
	stroke-width:128;
	stroke-linecap:round;
	fill:none;
}
#z29983 path[clip-path="url(#z29983c1)"] {animation-delay:1s;}
#z29983 path[clip-path="url(#z29983c2)"] {animation-delay:2s;}
#z29983 path[clip-path="url(#z29983c3)"] {animation-delay:3s;}
#z29983 path[clip-path="url(#z29983c4)"] {animation-delay:4s;}
#z29983 path[clip-path="url(#z29983c5)"] {animation-delay:5s;}
#z29983 path {fill:#ccc;}
]]>
</style>
<path id="z29983d1" d="M324 405C336 381 365 328 382 301C388 290 387 278 375 270C338 246 310 239 296 243C287 245 284 251 287 262C301 329 274 411 204 503C202 505 182 528 160 558C152 568 158 573 169 570C181 566 196 558 213 543C252 508 287 471 311 429C320 413 320 413 324 405Z"></path>
<path id="z29983d2" d="M556 421C684 398 750 381 754 379C761 373 762 367 759 361C754 352 741 344 721 339C699 333 677 336 656 343C623 352 591 363 558 371C519 380 519 380 500 384C445 396 386 401 324 405C315 405 303 424 311 429C328 438 374 450 422 443C442 439 480 434 499 431C537 424 537 424 556 421Z"></path>
<path id="z29983d3" d="M549 624C639 608 704 591 710 587C716 581 718 575 715 569C710 560 697 552 676 547C658 542 617 554 551 571C514 580 514 580 495 585C451 596 401 599 347 605C321 607 317 616 336 629C363 647 383 654 454 640C461 638 484 634 495 633C531 627 531 627 549 624Z"></path>
<path id="z29983d4" d="M543 808C545 745 546 684 549 624C550 589 550 589 551 571C552 520 554 470 556 421C557 388 557 388 558 371C563 245 569 167 580 140C586 124 588 112 578 103C552 81 527 68 506 62C495 58 483 61 473 71C467 75 469 83 474 92C496 130 505 170 504 212C502 268 501 325 500 384C499 415 499 415 499 431C497 481 495 532 495 585C495 617 495 617 495 633C495 691 492 752 492 814C492 831 543 825 543 808Z"></path>
<path id="z29983d5" d="M492 814C384 826 268 836 144 849C127 850 124 859 137 873C160 897 188 906 220 899C420 851 646 846 900 846C903 846 903 846 904 846C920 846 931 843 935 837C940 827 935 815 922 805C878 771 832 762 785 771C720 782 640 796 543 808C509 812 509 812 492 814Z"></path>
<defs>
	<clipPath id="z29983c1"><use xlink:href="#z29983d1"></use></clipPath>
	<clipPath id="z29983c2"><use xlink:href="#z29983d2"></use></clipPath>
	<clipPath id="z29983c3"><use xlink:href="#z29983d3"></use></clipPath>
	<clipPath id="z29983c4"><use xlink:href="#z29983d4"></use></clipPath>
	<clipPath id="z29983c5"><use xlink:href="#z29983d5"></use></clipPath>
</defs>
<path pathLength="3333" clip-path="url(#z29983c1)" d="M292 251L337 295L325 332L267 451L168 564"></path>
<path pathLength="3333" clip-path="url(#z29983c2)" d="M320 426L754 361"></path>
<path pathLength="3333" clip-path="url(#z29983c3)" d="M329 615L424 620L712 575"></path>
<path pathLength="3333" clip-path="url(#z29983c4)" d="M477 75L541 140L509 811"></path>
<path pathLength="3333" clip-path="url(#z29983c5)" d="M136 856L208 872L782 806L931 824"></path>
</svg>