<!--
AnimCJK 2016-2018 Copyright Francois Mizessyn, http://gooo.free.fr/animCJK/
Derived from:
    MakeMeAHanzi project - https://github.com/skishore/makemeahanzi
    Arphic PL KaitiM GB - https://apps.ubuntu.com/cat/applications/precise/fonts-arphic-gkai00mp/
    Arphic PL UKai - https://apps.ubuntu.com/cat/applications/fonts-arphic-ukai/
You can redistribute and/or modify this file under the terms of the Arphic Public License
as published by Arphic Technology Co., Ltd.
You should have received a copy of this license (the directory "APL") along with this file;
if not, see http://ftp.gnu.org/non-gnu/chinese-fonts-truetype/LICENSE.
-->
<svg id="z29994" class="acjk" version="1.1" viewBox="0 0 1024 1024" xmlns="http://www.w3.org/2000/svg" xmlns:xlink="http://www.w3.org/1999/xlink">
<style>
<![CDATA[
@keyframes z29994k {
	from {
		stroke:#ccc;
		stroke-dashoffset:3334;
	}
	1% {
		stroke:#c00;
		stroke-dashoffset:3334;
	}
	75% {
		stroke:#c00;
		stroke-dashoffset:0;
	}
	to {
		stroke:#000;
	}
}
#z29994 path[clip-path] {
	animation:z29994k 1s linear both;
	stroke-dasharray:3334;
	stroke-width:128;
	stroke-linecap:round;
	fill:none;
}
#z29994 path[clip-path="url(#z29994c1)"] {animation-delay:1s;}
#z29994 path[clip-path="url(#z29994c2)"] {animation-delay:2s;}
#z29994 path[clip-path="url(#z29994c3)"] {animation-delay:3s;}
#z29994 path[clip-path="url(#z29994c4)"] {animation-delay:4s;}
#z29994 path[clip-path="url(#z29994c5)"] {animation-delay:5s;}
#z29994 path[clip-path="url(#z29994c6)"] {animation-delay:6s;}
#z29994 path {fill:#ccc;}
]]>
</style>
<path id="z29994d1" d="M343 276Q371 251 482 141Q500 122 523 107Q544 94 530 77Q514 61 484 50Q457 40 444 44Q431 47 437 61Q446 91 328 269L343 276 Z"/>
<path id="z29994d2" d="M328 269Q283 250 270 253Q251 257 267 279Q303 336 291 540Q287 625 247 726Q220 801 122 900Q109 913 105 920Q104 927 116 926Q132 926 152 910Q204 873 234 837Q331 722 345 469Q348 408 348 324L348 281Q347 278 343 276L328 269 Z"/>
<path id="z29994d3" d="M348 324Q357 324 369 322Q417 309 472 297L527 285Q597 269 680 256Q702 252 712 264Q727 271 733 338Q752 558 743 811Q743 848 730 858Q715 868 644 850Q625 846 626 857Q627 866 642 873Q706 925 738 964Q763 986 777 984Q790 980 804 948Q822 896 820 821Q798 484 798 358Q798 315 811 289Q824 265 812 253Q800 237 748 210Q724 198 666 218Q500 260 348 281L348 324 Z"/>
<path id="z29994d4" d="M495 450Q453 460 407 467Q373 476 398 490Q446 511 495 495L547 482Q655 452 660 447Q669 440 664 431Q657 421 627 415Q600 411 548 433L495 450 Z"/>
<path id="z29994d5" d="M493 616Q447 625 396 632Q362 639 387 654Q420 673 492 660L545 648Q680 612 684 611Q691 604 687 595Q680 585 652 578Q622 572 594 585Q569 594 545 602L493 616 Z"/>
<path id="z29994d6" d="M472 297Q494 334 495 421Q495 434 495 450L495 495Q494 550 493 616L492 660Q492 885 501 907Q502 913 506 917Q512 924 519 922Q537 910 540 855Q544 807 545 648L545 602Q545 551 547 482L548 433Q548 370 560 325Q563 307 549 298Q537 291 527 285L472 297 Z"/>
<defs>
	<clipPath id="z29994c1"><use xlink:href="#z29994d1"/></clipPath>
	<clipPath id="z29994c2"><use xlink:href="#z29994d2"/></clipPath>
	<clipPath id="z29994c3"><use xlink:href="#z29994d3"/></clipPath>
	<clipPath id="z29994c4"><use xlink:href="#z29994d4"/></clipPath>
	<clipPath id="z29994c5"><use xlink:href="#z29994d5"/></clipPath>
	<clipPath id="z29994c6"><use xlink:href="#z29994d6"/></clipPath>
</defs>
<path pathLength="3333" clip-path="url(#z29994c1)" d="M441 47L482 93L336 268"/>
<path pathLength="3333" clip-path="url(#z29994c2)" d="M267 260L315 303L299 642L233 802L113 919"/>
<path pathLength="3333" clip-path="url(#z29994c3)" d="M355 316L696 231L772 277L777 867L747 933L636 857"/>
<path pathLength="3333" clip-path="url(#z29994c4)" d="M396 479L662 435"/>
<path pathLength="3333" clip-path="url(#z29994c5)" d="M387 643L680 600"/>
<path pathLength="3333" clip-path="url(#z29994c6)" d="M479 300L524 332L518 917"/>
</svg>