<!--
AnimCJK 2016-2018 Copyright Francois Mizessyn, https://github.com/parsimonhi/animCJK
Derived from:
    MakeMeAHanzi project - https://github.com/skishore/makemeahanzi
    Arphic PL KaitiM GB - https://apps.ubuntu.com/cat/applications/precise/fonts-arphic-gkai00mp/
    Arphic PL UKai - https://apps.ubuntu.com/cat/applications/fonts-arphic-ukai/
You can redistribute and/or modify this file under the terms of the Arphic Public License
as published by Arphic Technology Co., Ltd.
You should have received a copy of this license (the directory "APL") along with this file;
if not, see http://ftp.gnu.org/non-gnu/chinese-fonts-truetype/LICENSE.
-->
<svg id="z29995" class="acjk" version="1.1" viewBox="0 0 1024 1024" xmlns="http://www.w3.org/2000/svg" xmlns:xlink="http://www.w3.org/1999/xlink">
<style>
<![CDATA[
@keyframes z29995k {
	from {
		stroke:#c00;
		stroke-dashoffset:3334;
	}
	75% {
		stroke:#c00;
		stroke-dashoffset:0;
	}
	to {
		stroke:#000;
	}
}
#z29995 path[clip-path] {
	animation:z29995k 1s linear both;
	stroke-dasharray:3334;
	stroke-width:128;
	stroke-linecap:round;
	fill:none;
}
#z29995 path[clip-path="url(#z29995c1)"] {animation-delay:1s;}
#z29995 path[clip-path="url(#z29995c2)"] {animation-delay:2s;}
#z29995 path[clip-path="url(#z29995c3)"] {animation-delay:3s;}
#z29995 path[clip-path="url(#z29995c4)"] {animation-delay:4s;}
#z29995 path[clip-path="url(#z29995c5)"] {animation-delay:5s;}
#z29995 path[clip-path="url(#z29995c6)"] {animation-delay:6s;}
#z29995 path[clip-path="url(#z29995c7)"] {animation-delay:7s;}
#z29995 path {fill:#ccc;}
]]>
</style>
<path id="z29995d1" d="M538 294Q646 282 856 282Q878 282 884 272Q890 259 871 244Q811 201 771 211Q683 230 540 253L478 262Q330 281 162 303Q138 306 156 325Q190 356 233 347Q395 302 478 301L538 294 Z"/>
<path id="z29995d2" d="M327 423Q294 407 273 407Q258 411 264 425Q316 534 266 740Q232 824 268 869Q275 884 288 878Q325 848 332 725Q341 511 346 465L327 423 Z"/>
<path id="z29995d3" d="M533 428Q581 419 635 413Q660 409 672 423Q682 427 685 470Q698 609 692 771Q692 793 683 801Q668 811 594 798Q576 795 578 805Q579 812 593 819Q660 864 696 899Q718 918 731 916Q744 913 755 883Q770 835 764 718Q743 484 763 444Q776 422 765 408Q753 392 704 368Q685 358 664 363Q621 376 534 395L478 405Q403 415 327 423L346 465Q352 458 478 438L533 428 Z"/>
<path id="z29995d4" d="M530 566Q573 559 613 553Q638 550 629 536Q619 520 591 515Q569 511 531 521L477 535Q425 547 380 558Q362 562 384 578Q394 585 418 583Q448 577 476 574L530 566 Z"/>
<path id="z29995d5" d="M529 682Q578 675 621 669Q646 666 637 652Q627 636 600 631Q575 627 531 637Q530 637 529 638L474 652Q420 662 372 674Q354 678 375 694Q385 701 473 690L529 682 Z"/>
<path id="z29995d6" d="M473 690Q470 849 488 876Q503 892 512 871Q525 835 529 682L529 638Q530 604 530 566L531 521Q532 470 533 428L534 395Q535 337 538 294L540 253Q543 183 560 156Q567 140 547 124Q523 105 480 93Q461 89 447 102Q437 109 450 122Q475 144 478 176Q478 212 478 262L478 301Q478 347 478 405L478 438Q478 486 477 535L476 574Q475 617 474 652L473 690 Z"/>
<path id="z29995d7" d="M679 127Q707 149 738 178Q751 190 766 189Q776 188 781 176Q785 161 776 133Q764 100 673 81Q658 78 652 81Q648 85 649 97Q653 107 679 127 Z"/>
<defs>
	<clipPath id="z29995c1"><use xlink:href="#z29995d1"/></clipPath>
	<clipPath id="z29995c2"><use xlink:href="#z29995d2"/></clipPath>
	<clipPath id="z29995c3"><use xlink:href="#z29995d3"/></clipPath>
	<clipPath id="z29995c4"><use xlink:href="#z29995d4"/></clipPath>
	<clipPath id="z29995c5"><use xlink:href="#z29995d5"/></clipPath>
	<clipPath id="z29995c6"><use xlink:href="#z29995d6"/></clipPath>
	<clipPath id="z29995c7"><use xlink:href="#z29995d7"/></clipPath>
</defs>
<path pathLength="3333" clip-path="url(#z29995c1)" d="M154 312L211 323L791 245L881 266"/>
<path pathLength="3333" clip-path="url(#z29995c2)" d="M270 418L306 450L316 514L285 872"/>
<path pathLength="3333" clip-path="url(#z29995c3)" d="M337 430L667 387L717 415L718 841L703 864L586 805"/>
<path pathLength="3333" clip-path="url(#z29995c4)" d="M380 565L625 539"/>
<path pathLength="3333" clip-path="url(#z29995c5)" d="M372 681L633 656"/>
<path pathLength="3333" clip-path="url(#z29995c6)" d="M451 107L518 152L499 877"/>
<path pathLength="3333" clip-path="url(#z29995c7)" d="M657 90L776 180"/>
</svg>