<!--
AnimCJK 2016-2017 Copyright Francois Mizessyn, http://gooo.free.fr/animCJK/
Derived from:
    MakeMeAHanzi project - https://github.com/skishore/makemeahanzi
    Arphic PL KaitiM GB - https://apps.ubuntu.com/cat/applications/precise/fonts-arphic-gkai00mp/
    Arphic PL UKai - https://apps.ubuntu.com/cat/applications/fonts-arphic-ukai/
You can redistribute and/or modify this file under the terms of the Arphic Public License
as published by Arphic Technology Co., Ltd.
You should have received a copy of this license (the directory "APL") along with this file;
if not, see http://ftp.gnu.org/non-gnu/chinese-fonts-truetype/LICENSE.
-->
<svg id="z29995" class="acjk" version="1.1" viewBox="0 0 1024 1024" xmlns="http://www.w3.org/2000/svg" xmlns:xlink="http://www.w3.org/1999/xlink">
<style>
<![CDATA[
	@keyframes z29995k {
		from {
			stroke:#c00;
			stroke-dashoffset:3000;
		}
		75% {
			stroke:#c00;
			stroke-dashoffset:0;
		}
		to {
			stroke:#000;
		}
	}
	#z29995 path[clip-path] {
		animation:z29995k 1s linear both;
		stroke-dasharray:3000;
		stroke-width:128;
		stroke-linecap:round;
		fill:none;
	}
	#z29995 path[clip-path="url(#z29995c1)"] {animation-delay:1s;}
	#z29995 path[clip-path="url(#z29995c2)"] {animation-delay:2s;}
	#z29995 path[clip-path="url(#z29995c3)"] {animation-delay:3s;}
	#z29995 path[clip-path="url(#z29995c4)"] {animation-delay:4s;}
	#z29995 path[clip-path="url(#z29995c5)"] {animation-delay:5s;}
	#z29995 path[clip-path="url(#z29995c6)"] {animation-delay:6s;}
	#z29995 path[clip-path="url(#z29995c7)"] {animation-delay:7s;}
	#z29995 path {fill:#ccc;}
]]>
</style>
<g transform="scale(1,-1) translate(0,-900)">
	<path id="z29995d1" d="M538 606Q646 618 856 618Q878 618 884 628Q890 641 871 656Q811 699 771 689Q683 670 540 647L478 638Q330 619 162 597Q138 594 156 575Q190 544 233 553Q395 598 478 599L538 606Z"/>
	<path id="z29995d2" d="M327 477Q294 493 273 493Q258 489 264 475Q316 366 266 160Q232 76 268 31Q275 16 288 22Q325 52 332 175Q341 389 346 435L327 477Z"/>
	<path id="z29995d3" d="M533 472Q581 481 635 487Q660 491 672 477Q682 473 685 430Q698 291 692 129Q692 107 683 99Q668 89 594 102Q576 105 578 95Q579 88 593 81Q660 36 696 1Q718 -18 731 -16Q744 -13 755 17Q770 65 764 182Q743 416 763 456Q776 478 765 492Q753 508 704 532Q685 542 664 537Q621 524 534 505L478 495Q403 485 327 477L346 435Q352 442 478 462L533 472Z"/>
	<path id="z29995d4" d="M530 334Q573 341 613 347Q638 350 629 364Q619 380 591 385Q569 389 531 379L477 365Q425 353 380 342Q362 338 384 322Q394 315 418 317Q448 323 476 326L530 334Z"/>
	<path id="z29995d5" d="M529 218Q578 225 621 231Q646 234 637 248Q627 264 600 269Q575 273 531 263Q530 263 529 262L474 248Q420 238 372 226Q354 222 375 206Q385 199 473 210L529 218Z"/>
	<path id="z29995d6" d="M473 210Q470 51 488 24Q503 8 512 29Q525 65 529 218L529 262Q530 296 530 334L531 379Q532 430 533 472L534 505Q535 563 538 606L540 647Q543 717 560 744Q567 760 547 776Q523 795 480 807Q461 811 447 798Q437 791 450 778Q475 756 478 724Q478 688 478 638L478 599Q478 553 478 495L478 462Q478 414 477 365L476 326Q475 283 474 248L473 210Z"/>
	<path id="z29995d7" d="M679 773Q707 751 738 722Q751 710 766 711Q776 712 781 724Q785 739 776 767Q764 800 673 819Q658 822 652 819Q648 815 649 803Q653 793 679 773Z"/>
	<defs>
		<clipPath id="z29995c1"><use xlink:href="#z29995d1"/></clipPath>
		<clipPath id="z29995c2"><use xlink:href="#z29995d2"/></clipPath>
		<clipPath id="z29995c3"><use xlink:href="#z29995d3"/></clipPath>
		<clipPath id="z29995c4"><use xlink:href="#z29995d4"/></clipPath>
		<clipPath id="z29995c5"><use xlink:href="#z29995d5"/></clipPath>
		<clipPath id="z29995c6"><use xlink:href="#z29995d6"/></clipPath>
		<clipPath id="z29995c7"><use xlink:href="#z29995d7"/></clipPath>
	</defs>
	<path pathLength="2999" clip-path="url(#z29995c1)" d="M154 588L211 577L791 655L881 634"/>
	<path pathLength="2999" clip-path="url(#z29995c2)" d="M270 482L306 450L316 386L285 28"/>
	<path pathLength="2999" clip-path="url(#z29995c3)" d="M337 470L667 513L717 485L718 59L703 36L586 95"/>
	<path pathLength="2999" clip-path="url(#z29995c4)" d="M380 335L625 361"/>
	<path pathLength="2999" clip-path="url(#z29995c5)" d="M372 219L633 244"/>
	<path pathLength="2999" clip-path="url(#z29995c6)" d="M451 793L518 748L499 23"/>
	<path pathLength="2999" clip-path="url(#z29995c7)" d="M657 810L776 720"/>
</g>
</svg>