<!--
AnimCJK 2016-2019 Copyright Francois Mizessyn - https://github.com/parsimonhi/animCJK
Derived from:
    MakeMeAHanzi project - https://github.com/skishore/makemeahanzi
    Arphic PL KaitiM GB font
    Arphic PL UKai font
You can redistribute and/or modify this file under the terms of the Arphic Public License
as published by Arphic Technology Co., Ltd.
You should have received a copy of this license along with this file.
If not, see http://ftp.gnu.org/non-gnu/chinese-fonts-truetype/LICENSE.
-->
<svg id="z29996" class="acjk" version="1.1" viewBox="0 0 1024 1024" xmlns="http://www.w3.org/2000/svg" xmlns:xlink="http://www.w3.org/1999/xlink">
<style>
<![CDATA[
@keyframes zk {
	to {
		stroke-dashoffset:0;
	}
}
svg.acjk path[clip-path] {
	--t:0.8s;
	animation:zk var(--t) linear forwards var(--d);
	stroke-dasharray:3337;
	stroke-dashoffset:3339;
	stroke-width:128;
	stroke-linecap:round;
	fill:none;
	stroke:#000;
}
svg.acjk path[id] {fill:#ccc;}
]]>
</style>
<path id="z29996d1" d="M546 285Q693 195 726 190Q748 186 742 167Q741 151 675 105Q656 92 632 99Q547 123 418 148Q384 157 305 147Q280 146 288 167Q295 180 314 194Q345 213 382 195Q611 138 626 147Q638 154 633 166Q584 215 529 272C524 277 540 289 546 285Z"/>
<path id="z29996d2" d="M529 272Q522 265 456 249Q441 246 436 249Q432 253 433 265Q437 275 462 293Q487 314 516 339Q529 349 543 349Q553 348 557 336Q563 314 546 285C542 279 535 276 529 272Z"/>
<path id="z29996d3" d="M325 400Q307 382 272 382Q259 386 264 399Q316 513 264 727Q257 751 246 770Q233 797 250 838Q253 848 262 858Q269 871 280 866Q317 841 324 710Q333 493 338 441C338 427 336 409 325 400Z"/>
<path id="z29996d4" d="M513 407Q586 392 672 382Q697 375 710 390Q720 394 724 440Q736 593 728 766Q728 791 718 798Q702 808 625 787Q609 783 610 793Q611 800 624 807Q691 855 727 892Q749 911 761 909Q774 906 785 878Q800 832 799 767Q777 449 794 412Q807 388 797 375Q787 360 738 336Q717 326 648 346Q491 380 325 400C311 403 324 444 338 441Q345 440 352 439Q406 426 467 415C498 410 498 410 513 407Z"/>
<path id="z29996d5" d="M545 551Q647 529 651 526Q658 519 655 511Q648 501 622 493Q586 486 547 505C530 515 509 516 489 520Q450 527 408 530Q375 536 399 551Q432 572 489 561C526 554 526 554 545 551Z"/>
<path id="z29996d6" d="M543 666Q651 644 654 642Q663 635 659 627Q652 617 626 609Q599 603 543 622C507 630 507 630 489 634Q452 638 413 642Q379 646 403 663Q434 684 489 676C525 669 525 669 543 666Z"/>
<path id="z29996d7" d="M495 836Q499 860 506 869Q512 876 519 874Q532 865 539 809Q542 776 543 666C543 637 543 637 543 622Q543 591 545 551C546 520 546 520 547 505Q550 469 555 451Q558 435 544 425Q525 412 513 407C499 401 464 400 467 415Q467 421 478 436Q484 446 489 520C489 547 489 547 489 561Q489 595 489 634C489 662 489 662 489 676Q490 694 490 714Q491 805 495 836Z"/>
<defs>
	<clipPath id="z29996c1"><use xlink:href="#z29996d1"/></clipPath>
	<clipPath id="z29996c2"><use xlink:href="#z29996d2"/></clipPath>
	<clipPath id="z29996c3"><use xlink:href="#z29996d3"/></clipPath>
	<clipPath id="z29996c4"><use xlink:href="#z29996d4"/></clipPath>
	<clipPath id="z29996c5"><use xlink:href="#z29996d5"/></clipPath>
	<clipPath id="z29996c6"><use xlink:href="#z29996d6"/></clipPath>
	<clipPath id="z29996c7"><use xlink:href="#z29996d7"/></clipPath>
</defs>
<path style="--d:1s;" pathLength="3333" clip-path="url(#z29996c1)" d="M292 158L349 178L651 128L688 174L536 272"/>
<path style="--d:2s;" pathLength="3333" clip-path="url(#z29996c2)" d="M441 257L548 342"/>
<path style="--d:3s;" pathLength="3333" clip-path="url(#z29996c3)" d="M271 392L309 444L311 539L266 860"/>
<path style="--d:4s;" pathLength="3333" clip-path="url(#z29996c4)" d="M334 409L695 357L757 390L760 810L736 857L617 793"/>
<path style="--d:5s;" pathLength="3333" clip-path="url(#z29996c5)" d="M395 538L647 516"/>
<path style="--d:6s;" pathLength="3333" clip-path="url(#z29996c6)" d="M400 651L656 629"/>
<path style="--d:7s;" pathLength="3333" clip-path="url(#z29996c7)" d="M475 419L519 452L512 869"/>
</svg>