<!--
AnimCJK 2016-2018 Copyright Francois Mizessyn, http://gooo.free.fr/animCJK/
Derived from:
    MakeMeAHanzi project - https://github.com/skishore/makemeahanzi
    Arphic PL KaitiM GB - https://apps.ubuntu.com/cat/applications/precise/fonts-arphic-gkai00mp/
    Arphic PL UKai - https://apps.ubuntu.com/cat/applications/fonts-arphic-ukai/
You can redistribute and/or modify this file under the terms of the Arphic Public License
as published by Arphic Technology Co., Ltd.
You should have received a copy of this license (the directory "APL") along with this file;
if not, see http://ftp.gnu.org/non-gnu/chinese-fonts-truetype/LICENSE.
-->
<svg id="z30027" class="acjk" version="1.1" viewBox="0 0 1024 1024" xmlns="http://www.w3.org/2000/svg" xmlns:xlink="http://www.w3.org/1999/xlink">
<style>
<![CDATA[
@keyframes z30027k {
	from {
		stroke:#ccc;
		stroke-dashoffset:3334;
	}
	1% {
		stroke:#c00;
		stroke-dashoffset:3334;
	}
	75% {
		stroke:#c00;
		stroke-dashoffset:0;
	}
	to {
		stroke:#000;
	}
}
#z30027 path[clip-path] {
	animation:z30027k 1s linear both;
	stroke-dasharray:3334;
	stroke-width:128;
	stroke-linecap:round;
	fill:none;
}
#z30027 path[clip-path="url(#z30027c1)"] {animation-delay:1s;}
#z30027 path[clip-path="url(#z30027c2)"] {animation-delay:2s;}
#z30027 path[clip-path="url(#z30027c3)"] {animation-delay:3s;}
#z30027 path[clip-path="url(#z30027c4)"] {animation-delay:4s;}
#z30027 path[clip-path="url(#z30027c5)"] {animation-delay:5s;}
#z30027 path[clip-path="url(#z30027c6)"] {animation-delay:6s;}
#z30027 path[clip-path="url(#z30027c7)"] {animation-delay:7s;}
#z30027 path[clip-path="url(#z30027c8)"] {animation-delay:8s;}
#z30027 path[clip-path="url(#z30027c9)"] {animation-delay:9s;}
#z30027 path {fill:#ccc;}
]]>
</style>
<path id="z30027d1" d="M117 342Q105 336 81 330Q69 326 65 330Q58 336 65 353Q99 458 106 622Q105 671 129 707Q145 731 151 715Q157 702 159 683L160 651Q160 630 157 607Q135 427 133 377Q133 376 134 375L117 342 Z"/>
<path id="z30027d2" d="M327 658Q345 680 361 687Q373 694 387 671Q406 631 428 416Q435 385 458 357Q471 344 458 330Q442 314 396 289Q380 282 307 301Q298 301 117 342L134 375Q165 365 213 356L251 349Q344 327 358 340Q379 362 376 386Q355 582 341 612Q337 625 323 629Q320 629 322 630L327 658 Z"/>
<path id="z30027d3" d="M274 498Q299 492 325 488Q347 484 337 471Q327 458 302 455Q290 454 275 458L228 473Q194 485 166 495Q150 499 170 513Q176 516 228 508L274 498 Z"/>
<path id="z30027d4" d="M269 623Q270 556 274 498L275 458Q275 422 279 394Q286 372 251 349L213 356Q225 375 228 473L228 508Q228 557 228 635L269 623 Z"/>
<path id="z30027d5" d="M159 683Q165 683 172 682Q221 669 327 658L322 630Q318 626 311 622Q296 615 269 623L228 635Q191 644 160 651L159 683 Z"/>
<path id="z30027d6" d="M569 348Q600 287 631 206Q646 158 663 134Q670 121 663 108Q656 96 622 79Q591 66 571 70Q552 76 565 96Q584 121 579 148Q563 235 530 320Q497 402 449 495Q440 508 439 514Q438 527 452 521Q461 517 475 499L489 481Q520 441 553 377Q554 374 556 372L569 348 Z"/>
<path id="z30027d7" d="M679 377Q875 326 880 323Q889 313 884 305Q875 292 844 286Q811 280 725 314Q587 344 569 348L556 372Q593 390 644 385L679 377 Z"/>
<path id="z30027d8" d="M609 663Q540 750 399 806Q362 816 355 824Q349 828 359 832Q365 833 379 832Q479 816 550 777Q605 749 638 705Q638 704 639 704L668 661Q710 591 723 476Q726 448 732 428Q736 415 728 408Q697 377 679 377L644 385Q644 386 645 389Q678 492 632 622L609 663 Z"/>
<path id="z30027d9" d="M475 499Q512 523 537 561Q574 613 609 663L639 704Q759 864 781 873Q820 885 956 872Q975 871 982 862Q986 855 974 850Q814 789 762 747Q738 732 668 661L632 622Q584 570 531 504Q518 485 498 481Q492 480 489 481L475 499 Z"/>
<defs>
	<clipPath id="z30027c1"><use xlink:href="#z30027d1"/></clipPath>
	<clipPath id="z30027c2"><use xlink:href="#z30027d2"/></clipPath>
	<clipPath id="z30027c3"><use xlink:href="#z30027d3"/></clipPath>
	<clipPath id="z30027c4"><use xlink:href="#z30027d4"/></clipPath>
	<clipPath id="z30027c5"><use xlink:href="#z30027d5"/></clipPath>
	<clipPath id="z30027c6"><use xlink:href="#z30027d6"/></clipPath>
	<clipPath id="z30027c7"><use xlink:href="#z30027d7"/></clipPath>
	<clipPath id="z30027c8"><use xlink:href="#z30027d8"/></clipPath>
	<clipPath id="z30027c9"><use xlink:href="#z30027d9"/></clipPath>
</defs>
<path pathLength="3333" clip-path="url(#z30027c1)" d="M70 335L104 383L143 716"/>
<path pathLength="3333" clip-path="url(#z30027c2)" d="M124 344L369 312L419 352L352 680"/>
<path pathLength="3333" clip-path="url(#z30027c3)" d="M167 504L335 472"/>
<path pathLength="3333" clip-path="url(#z30027c4)" d="M222 359L252 394L244 629"/>
<path pathLength="3333" clip-path="url(#z30027c5)" d="M166 675L324 646"/>
<path pathLength="3333" clip-path="url(#z30027c6)" d="M565 76L623 127L548 338L446 516"/>
<path pathLength="3333" clip-path="url(#z30027c7)" d="M562 367L881 309"/>
<path pathLength="3333" clip-path="url(#z30027c8)" d="M651 391L692 420L692 465L671 589L626 681L514 772L362 826"/>
<path pathLength="3333" clip-path="url(#z30027c9)" d="M480 496L519 513L799 827L977 861"/>
</svg>