<!--
AnimCJK 2016-2019 Copyright Francois Mizessyn - https://github.com/parsimonhi/animCJK
Derived from:
    MakeMeAHanzi project - https://github.com/skishore/makemeahanzi
    Arphic PL KaitiM GB font
    Arphic PL UKai font
You can redistribute and/or modify this file under the terms of the Arphic Public License
as published by Arphic Technology Co., Ltd.
You should have received a copy of this license along with this file.
If not, see http://ftp.gnu.org/non-gnu/chinese-fonts-truetype/LICENSE.
-->
<svg id="z30041" class="acjk" version="1.1" viewBox="0 0 1024 1024" xmlns="http://www.w3.org/2000/svg" xmlns:xlink="http://www.w3.org/1999/xlink">
<style>
<![CDATA[
@keyframes zk {
	to {
		stroke-dashoffset:0;
	}
}
svg.acjk path[clip-path] {
	--t:0.8s;
	animation:zk var(--t) linear forwards var(--d);
	stroke-dasharray:3337;
	stroke-dashoffset:3339;
	stroke-width:128;
	stroke-linecap:round;
	fill:none;
	stroke:#000;
}
svg.acjk path[id] {fill:#ccc;}
]]>
</style>
<path id="z30041d1" d="M257 230C267 224 315 196 398 145C411 136 425 130 441 125C455 120 459 111 454 100C447 87 435 76 420 66C405 56 394 52 386 53C378 53 376 57 377 66C378 83 355 115 309 158C289 175 268 192 248 212C243 217 252 234 257 230Z"/>
<path id="z30041d2" d="M394 327C324 381 286 407 283 406C276 403 272 395 271 382C262 310 257 259 257 230C257 223 253 217 248 212C234 198 208 188 195 188C186 188 181 189 178 193C172 199 174 204 182 213C209 244 224 304 228 390C229 418 223 436 218 448C210 463 212 478 220 492C231 511 242 524 255 531C263 534 268 529 276 516C293 482 338 426 406 345C410 339 400 323 394 327Z"/>
<path id="z30041d3" d="M406 345C414 357 424 367 437 375C445 379 453 378 460 371C465 364 468 356 468 346C467 321 446 301 412 279C392 266 379 259 370 261C367 261 365 264 365 272C364 278 373 296 394 327C402 339 402 339 406 345Z"/>
<path id="z30041d4" d="M639 209C685 195 728 185 768 180C780 178 789 178 792 183C797 192 795 209 791 234C777 300 762 348 744 377C731 395 716 403 699 399C686 395 674 389 662 384C647 377 643 383 654 399C674 428 689 453 701 473C709 488 722 488 736 479C755 465 774 449 790 427C808 400 826 343 845 257C851 226 860 203 873 190C881 180 885 172 881 166C875 157 854 146 821 130C808 123 795 124 781 133C766 141 729 152 672 167C613 181 559 190 510 194C498 194 490 197 489 204C487 208 496 214 512 224C529 234 543 237 557 232C568 227 582 224 596 221C625 213 625 213 639 209Z"/>
<path id="z30041d5" d="M596 221C608 283 553 381 428 513C423 517 424 521 431 520C469 513 533 461 577 403C594 379 629 327 662 272C666 264 669 258 673 256C677 252 678 247 677 241C675 235 671 229 663 222C656 216 648 211 639 209C625 204 593 206 596 221Z"/>
<path id="z30041d6" d="M295 577C278 566 260 558 242 554C237 552 233 554 230 557C225 561 226 567 232 575C261 620 278 696 286 801C287 823 294 845 307 866C315 880 323 890 331 893C342 896 349 886 350 866C350 862 349 858 349 855C346 833 346 833 345 822C343 805 318 683 316 617C316 602 307 586 295 577Z"/>
<path id="z30041d7" d="M628 831C634 849 647 877 664 914C669 926 675 933 683 932C693 930 702 919 711 902C727 869 747 801 759 696C762 660 769 628 793 601C805 586 807 575 799 566C784 550 760 535 728 519C714 512 697 511 673 519C579 549 453 568 295 577C280 577 301 617 316 617C320 617 326 617 333 616C369 609 412 604 461 596C488 591 488 591 502 589C545 581 593 576 645 569C667 565 684 567 692 580C707 605 700 677 678 796C676 806 672 813 664 814C652 819 623 819 628 831Z"/>
<path id="z30041d8" d="M527 714C559 709 591 706 621 704C637 702 642 696 637 688C630 677 618 670 602 667C586 664 565 665 530 673C493 681 493 681 474 685C439 692 406 697 376 703C365 705 366 711 379 722C385 727 397 730 415 728C435 725 456 723 476 721C510 716 510 716 527 714Z"/>
<path id="z30041d9" d="M523 800C523 769 525 740 527 714C529 687 529 687 530 673C531 657 532 649 534 638C536 621 528 607 502 589C491 581 457 583 461 596C467 610 471 639 474 685C475 709 475 709 476 721C477 743 477 772 479 807C479 822 523 815 523 800Z"/>
<path id="z30041d10" d="M349 855Q355 856 363 855Q448 839 628 831C641 831 672 824 664 814Q658 805 638 791Q619 779 523 800C494 805 494 805 479 807Q407 816 345 822C334 824 338 855 349 855Z"/>
<defs>
	<clipPath id="z30041c1"><use xlink:href="#z30041d1"/></clipPath>
	<clipPath id="z30041c2"><use xlink:href="#z30041d2"/></clipPath>
	<clipPath id="z30041c3"><use xlink:href="#z30041d3"/></clipPath>
	<clipPath id="z30041c4"><use xlink:href="#z30041d4"/></clipPath>
	<clipPath id="z30041c5"><use xlink:href="#z30041d5"/></clipPath>
	<clipPath id="z30041c6"><use xlink:href="#z30041d6"/></clipPath>
	<clipPath id="z30041c7"><use xlink:href="#z30041d7"/></clipPath>
	<clipPath id="z30041c8"><use xlink:href="#z30041d8"/></clipPath>
	<clipPath id="z30041c9"><use xlink:href="#z30041d9"/></clipPath>
	<clipPath id="z30041c10"><use xlink:href="#z30041d10"/></clipPath>
</defs>
<path style="--d:1s;" pathLength="3333" clip-path="url(#z30041c1)" d="M387 57L408 105L253 217"/>
<path style="--d:2s;" pathLength="3333" clip-path="url(#z30041c2)" d="M179 197L229 238L253 424L271 478L397 335"/>
<path style="--d:3s;" pathLength="3333" clip-path="url(#z30041c3)" d="M374 265L452 373"/>
<path style="--d:4s;" pathLength="3333" clip-path="url(#z30041c4)" d="M497 206L578 206L791 152L829 170L763 406L711 442L658 387"/>
<path style="--d:5s;" pathLength="3333" clip-path="url(#z30041c5)" d="M602 226L635 259L584 353L434 513"/>
<path style="--d:6s;" pathLength="3333" clip-path="url(#z30041c6)" d="M234 560L288 629L334 888"/>
<path style="--d:7s;" pathLength="3333" clip-path="url(#z30041c7)" d="M 303,579 345,595 678,543 724,558 751,589 682,893 637,834"/>
<path style="--d:8s;" pathLength="3333" clip-path="url(#z30041c8)" d="M377 709L633 689"/>
<path style="--d:9s;" pathLength="3333" clip-path="url(#z30041c9)" d="M468 598L502 634L494 804"/>
<path style="--d:10s;" pathLength="3333" clip-path="url(#z30041c10)" d="M353 829L652 808"/>
</svg>