<!--
AnimCJK 2016-2017 Copyright Francois Mizessyn, http://gooo.free.fr/animCJK/
Derived from:
    MakeMeAHanzi project - https://github.com/skishore/makemeahanzi
    Arphic PL KaitiM GB - https://apps.ubuntu.com/cat/applications/precise/fonts-arphic-gkai00mp/
    Arphic PL UKai - https://apps.ubuntu.com/cat/applications/fonts-arphic-ukai/
You can redistribute and/or modify this file under the terms of the Arphic Public License
as published by Arphic Technology Co., Ltd.
You should have received a copy of this license (the directory "APL") along with this file;
if not, see http://ftp.gnu.org/non-gnu/chinese-fonts-truetype/LICENSE.
-->
<svg id="z30086" class="acjk" version="1.1" viewBox="0 0 1024 1024" xmlns="http://www.w3.org/2000/svg" xmlns:xlink="http://www.w3.org/1999/xlink">
<style>
<![CDATA[
	@keyframes z30086k {
		from {
			stroke:#c00;
			stroke-dashoffset:3000;
		}
		75% {
			stroke:#c00;
			stroke-dashoffset:0;
		}
		to {
			stroke:#000;
		}
	}
	#z30086 path[clip-path] {
		animation:z30086k 1s linear both;
		stroke-dasharray:3000;
		stroke-width:128;
		stroke-linecap:round;
		fill:none;
	}
	#z30086 path[clip-path="url(#z30086c1)"] {animation-delay:1s;}
	#z30086 path[clip-path="url(#z30086c2)"] {animation-delay:2s;}
	#z30086 path[clip-path="url(#z30086c3)"] {animation-delay:3s;}
	#z30086 path[clip-path="url(#z30086c4)"] {animation-delay:4s;}
	#z30086 path[clip-path="url(#z30086c5)"] {animation-delay:5s;}
	#z30086 path[clip-path="url(#z30086c6)"] {animation-delay:6s;}
	#z30086 path[clip-path="url(#z30086c7)"] {animation-delay:7s;}
	#z30086 path[clip-path="url(#z30086c8)"] {animation-delay:8s;}
	#z30086 path[clip-path="url(#z30086c9)"] {animation-delay:9s;}
	#z30086 path[clip-path="url(#z30086c10)"] {animation-delay:10s;}
	#z30086 path[clip-path="url(#z30086c11)"] {animation-delay:11s;}
	#z30086 path[clip-path="url(#z30086c12)"] {animation-delay:12s;}
	#z30086 path[clip-path="url(#z30086c13)"] {animation-delay:13s;}
	#z30086 path[clip-path="url(#z30086c14)"] {animation-delay:14s;}
	#z30086 path[clip-path="url(#z30086c15)"] {animation-delay:15s;}
	#z30086 path[clip-path="url(#z30086c16)"] {animation-delay:16s;}
	#z30086 path[clip-path="url(#z30086c17)"] {animation-delay:17s;}
	#z30086 path[clip-path="url(#z30086c18)"] {animation-delay:18s;}
	#z30086 path[clip-path="url(#z30086c19)"] {animation-delay:19s;}
	#z30086 path {fill:#ccc;}
]]>
</style>
<g transform="scale(1,-1) translate(0,-900)">
	<path id="z30086d1" d="M366 609Q387 687 411 710Q433 735 411 749Q353 785 341 782Q334 782 328 777Q288 750 204 733Q192 733 194 727Q195 721 209 715Q224 708 283 721Q329 734 337 724Q341 720 315 606L366 609Z"/>
	<path id="z30086d2" d="M234 548Q282 563 380 581Q389 582 389 590Q389 597 366 609L315 606Q257 587 211 573L234 548Z"/>
	<path id="z30086d3" d="M177 403Q208 428 277 445Q311 454 332 447Q354 440 355 405Q358 239 294 104Q284 83 272 78Q260 74 198 89Q185 96 183 90Q182 84 193 74Q226 37 248 5Q258 -7 268 -6Q283 -6 300 6Q358 78 378 158Q400 240 405 391Q406 419 416 436Q426 449 417 460Q401 473 365 488Q346 495 324 487Q296 477 273 471Q257 468 235 463Q201 454 214 489Q227 543 234 548L211 573Q204 577 188 579Q172 582 164 575Q157 568 169 555Q196 522 156 458Q152 454 148 448Q136 435 140 422Q143 410 157 400Q167 393 177 403Z"/>
	<path id="z30086d4" d="M232 288Q307 312 308 312Q314 319 311 324Q305 331 285 336Q263 339 235 325L190 309Q159 300 119 294Q94 288 113 278Q140 266 190 277L232 288Z"/>
	<path id="z30086d5" d="M227 211Q228 253 232 288L235 325Q235 337 238 349Q244 362 237 371Q219 390 202 399Q192 402 185 399Q178 396 180 387Q189 375 190 309L190 277Q190 246 190 199L227 211Z"/>
	<path id="z30086d6" d="M190 199Q94 175 91 174Q81 173 80 165Q79 155 86 149Q104 139 129 125Q136 124 145 130Q169 151 283 207Q299 216 311 225Q320 232 320 238Q316 242 307 240Q268 227 227 211L190 199Z"/>
	<path id="z30086d7" d="M531 774Q498 768 522 753Q564 732 612 746Q675 759 741 774Q771 781 776 786Q783 793 779 801Q772 811 745 818Q718 822 691 811Q657 799 620 789Q580 779 531 774Z"/>
	<path id="z30086d8" d="M470 671Q460 674 456 669Q452 663 459 649Q487 597 505 512Q509 487 525 470Q541 451 546 465Q547 472 548 479L547 498Q546 508 544 521Q525 612 521 639L470 671Z"/>
	<path id="z30086d9" d="M737 505Q738 504 739 502Q743 487 755 489Q768 490 774 504Q784 517 801 578Q814 624 847 652Q863 668 848 681Q832 696 786 719Q774 725 716 711Q691 711 579 684Q519 671 476 670Q473 671 470 671L521 639Q524 639 528 640Q559 652 613 662L647 668Q738 687 757 679Q764 675 761 649Q749 553 738 531L737 505Z"/>
	<path id="z30086d10" d="M662 577Q687 583 711 586Q727 590 721 599Q714 609 695 612Q682 613 664 608L621 595Q588 586 561 577Q548 573 564 563Q568 560 622 569L662 577Z"/>
	<path id="z30086d11" d="M658 522Q659 552 662 577L664 608Q664 626 666 632Q670 648 647 668L613 662Q617 658 621 595L622 569Q622 547 623 514L658 522Z"/>
	<path id="z30086d12" d="M548 479Q551 479 654 493Q655 494 657 493Q697 502 737 505L738 531Q734 532 731 533Q701 539 658 522L623 514Q583 507 547 498L548 479Z"/>
	<path id="z30086d13" d="M422 399Q404 398 418 383Q430 371 445 366Q464 362 477 366Q639 411 915 411Q916 411 918 411Q934 411 939 418Q943 428 929 440Q884 473 852 466Q744 442 422 399Z"/>
	<path id="z30086d14" d="M495 318Q485 322 466 324Q456 327 452 322Q448 316 455 302Q482 250 498 162Q502 135 517 118Q533 99 538 113Q539 120 541 130L540 150Q539 160 537 170Q521 257 517 286L495 318Z"/>
	<path id="z30086d15" d="M740 152Q740 145 743 138Q747 123 759 125Q772 126 778 140Q788 155 808 226Q821 274 854 302Q872 317 856 331Q840 346 793 369Q780 376 723 362Q651 353 574 334Q528 324 495 318L517 286Q516 287 518 287Q551 299 606 309L638 315Q746 336 764 327Q773 321 769 294Q754 206 746 177L740 152Z"/>
	<path id="z30086d16" d="M657 227Q685 233 710 237Q728 241 721 250Q712 260 693 264Q680 265 660 261L613 246Q583 239 557 230Q544 226 560 215L614 219L657 227Z"/>
	<path id="z30086d17" d="M652 172Q653 202 657 227L660 261Q661 268 661 273Q668 286 660 295Q650 307 638 315L606 309Q607 305 610 302Q613 287 613 246L614 219Q614 197 614 164L652 172Z"/>
	<path id="z30086d18" d="M541 130Q550 129 565 130Q665 145 740 152L746 177Q742 181 733 182Q703 189 652 172L614 164Q574 158 540 150L541 130Z"/>
	<path id="z30086d19" d="M400 48Q381 47 395 30Q407 17 424 11Q443 5 458 9Q659 52 902 32Q921 31 925 39Q931 49 916 63Q871 100 834 95Q723 76 400 48Z"/>
	<defs>
		<clipPath id="z30086c1"><use xlink:href="#z30086d1"/></clipPath>
		<clipPath id="z30086c2"><use xlink:href="#z30086d2"/></clipPath>
		<clipPath id="z30086c3"><use xlink:href="#z30086d3"/></clipPath>
		<clipPath id="z30086c4"><use xlink:href="#z30086d4"/></clipPath>
		<clipPath id="z30086c5"><use xlink:href="#z30086d5"/></clipPath>
		<clipPath id="z30086c6"><use xlink:href="#z30086d6"/></clipPath>
		<clipPath id="z30086c7"><use xlink:href="#z30086d7"/></clipPath>
		<clipPath id="z30086c8"><use xlink:href="#z30086d8"/></clipPath>
		<clipPath id="z30086c9"><use xlink:href="#z30086d9"/></clipPath>
		<clipPath id="z30086c10"><use xlink:href="#z30086d10"/></clipPath>
		<clipPath id="z30086c11"><use xlink:href="#z30086d11"/></clipPath>
		<clipPath id="z30086c12"><use xlink:href="#z30086d12"/></clipPath>
		<clipPath id="z30086c13"><use xlink:href="#z30086d13"/></clipPath>
		<clipPath id="z30086c14"><use xlink:href="#z30086d14"/></clipPath>
		<clipPath id="z30086c15"><use xlink:href="#z30086d15"/></clipPath>
		<clipPath id="z30086c16"><use xlink:href="#z30086d16"/></clipPath>
		<clipPath id="z30086c17"><use xlink:href="#z30086d17"/></clipPath>
		<clipPath id="z30086c18"><use xlink:href="#z30086d18"/></clipPath>
		<clipPath id="z30086c19"><use xlink:href="#z30086d19"/></clipPath>
	</defs>
	<path pathLength="2999" clip-path="url(#z30086c1)" d="M204 728L334 755L374 734L344 621L324 611"/>
	<path pathLength="2999" clip-path="url(#z30086c2)" d="M219 571L382 593"/>
	<path pathLength="2999" clip-path="url(#z30086c3)" d="M170 569L204 542L186 431L341 469L387 436L364 224L325 99L269 36L192 86"/>
	<path pathLength="2999" clip-path="url(#z30086c4)" d="M115 286L304 322"/>
	<path pathLength="2999" clip-path="url(#z30086c5)" d="M189 393L214 355L203 205"/>
	<path pathLength="2999" clip-path="url(#z30086c6)" d="M86 162L136 156L312 232"/>
	<path pathLength="2999" clip-path="url(#z30086c7)" d="M519 765L774 803"/>
	<path pathLength="2999" clip-path="url(#z30086c8)" d="M462 667L499 622L538 467"/>
	<path pathLength="2999" clip-path="url(#z30086c9)" d="M480 668L531 658L749 700L789 688L808 662L753 495"/>
	<path pathLength="2999" clip-path="url(#z30086c10)" d="M562 573L716 593"/>
	<path pathLength="2999" clip-path="url(#z30086c11)" d="M622 657L643 624L635 519"/>
	<path pathLength="2999" clip-path="url(#z30086c12)" d="M555 487L734 516"/>
	<path pathLength="2999" clip-path="url(#z30086c13)" d="M420 393L854 439L933 424"/>
	<path pathLength="2999" clip-path="url(#z30086c14)" d="M457 319L495 272L531 112"/>
	<path pathLength="2999" clip-path="url(#z30086c15)" d="M504 316L757 350L797 336L816 306L751 131"/>
	<path pathLength="2999" clip-path="url(#z30086c16)" d="M562 223L716 246"/>
	<path pathLength="2999" clip-path="url(#z30086c17)" d="M615 308L638 279L622 168"/>
	<path pathLength="2999" clip-path="url(#z30086c18)" d="M549 138L741 172"/>
	<path pathLength="2999" clip-path="url(#z30086c19)" d="M396 41L835 66L922 47"/>
</g>
</svg>