<!--
AnimCJK 2016-2017 Copyright Francois Mizessyn, http://gooo.free.fr/animCJK/
Derived from:
    MakeMeAHanzi project - https://github.com/skishore/makemeahanzi
    Arphic PL KaitiM GB - https://apps.ubuntu.com/cat/applications/precise/fonts-arphic-gkai00mp/
    Arphic PL UKai - https://apps.ubuntu.com/cat/applications/fonts-arphic-ukai/
You can redistribute and/or modify this file under the terms of the Arphic Public License
as published by Arphic Technology Co., Ltd.
You should have received a copy of this license (the directory "APL") along with this file;
if not, see http://ftp.gnu.org/non-gnu/chinese-fonts-truetype/LICENSE.
-->
<svg id="z30097" class="acjk" version="1.1" viewBox="0 0 1024 1024" xmlns="http://www.w3.org/2000/svg" xmlns:xlink="http://www.w3.org/1999/xlink">
<style>
<![CDATA[
	@keyframes z30097k {
		from {
			stroke:#c00;
			stroke-dashoffset:3000;
		}
		75% {
			stroke:#c00;
			stroke-dashoffset:0;
		}
		to {
			stroke:#000;
		}
	}
	#z30097 path[clip-path] {
		animation:z30097k 1s linear both;
		stroke-dasharray:3000;
		stroke-width:128;
		stroke-linecap:round;
		fill:none;
	}
	#z30097 path[clip-path="url(#z30097c1)"] {animation-delay:1s;}
	#z30097 path[clip-path="url(#z30097c2)"] {animation-delay:2s;}
	#z30097 path[clip-path="url(#z30097c3)"] {animation-delay:3s;}
	#z30097 path[clip-path="url(#z30097c4)"] {animation-delay:4s;}
	#z30097 path[clip-path="url(#z30097c5)"] {animation-delay:5s;}
	#z30097 path[clip-path="url(#z30097c6)"] {animation-delay:6s;}
	#z30097 path[clip-path="url(#z30097c7)"] {animation-delay:7s;}
	#z30097 path[clip-path="url(#z30097c8)"] {animation-delay:8s;}
	#z30097 path[clip-path="url(#z30097c9)"] {animation-delay:9s;}
	#z30097 path[clip-path="url(#z30097c10)"] {animation-delay:10s;}
	#z30097 path[clip-path="url(#z30097c11)"] {animation-delay:11s;}
	#z30097 path[clip-path="url(#z30097c12)"] {animation-delay:12s;}
	#z30097 path[clip-path="url(#z30097c13)"] {animation-delay:13s;}
	#z30097 path[clip-path="url(#z30097c14)"] {animation-delay:14s;}
	#z30097 path {fill:#ccc;}
]]>
</style>
<g transform="scale(1,-1) translate(0,-900)">
	<path id="z30097d1" d="M268 639Q280 643 401 693Q420 703 443 707Q462 711 457 728Q450 746 430 763Q414 779 401 779Q391 780 391 768Q388 741 269 659L268 639Z"/>
	<path id="z30097d2" d="M493 583Q480 613 469 666Q468 678 461 682Q454 686 452 670Q440 606 431 594Q424 585 405 578Q341 560 292 572Q279 579 274 588Q268 604 268 639L269 659Q273 714 285 741Q295 763 280 777Q241 807 229 803Q217 799 223 785Q239 757 235 714Q229 581 253 556Q268 541 313 534Q430 521 481 547Q503 560 493 583Z"/>
	<path id="z30097d3" d="M250 436Q266 464 284 487Q291 497 280 509Q244 534 223 532Q214 531 216 518Q228 451 161 372Q145 353 137 342Q130 329 142 333Q155 334 170 348Q212 379 238 418L250 436Z"/>
	<path id="z30097d4" d="M323 410Q322 411 326 412Q437 437 444 444Q451 451 447 458Q440 468 415 473Q390 477 364 465Q340 456 313 448Q285 441 250 436L238 418Q239 418 242 416Q260 407 286 406L323 410Z"/>
	<path id="z30097d5" d="M332 272Q389 285 459 298Q474 299 474 307Q475 319 458 326Q431 338 342 312L290 299Q170 272 107 263Q95 262 93 254Q90 245 104 235Q141 211 192 230Q240 248 280 258L332 272Z"/>
	<path id="z30097d6" d="M280 258Q238 137 147 79Q134 70 120 61Q108 54 119 51Q161 47 232 102Q305 165 332 272L342 312Q357 361 361 366Q370 381 356 389Q341 401 323 410L286 406Q285 403 288 398Q301 368 290 299L280 258Z"/>
	<path id="z30097d7" d="M357 197Q376 178 397 154Q406 144 417 144Q424 143 430 153Q434 163 429 185Q426 201 404 213Q352 237 340 234Q336 233 336 222Q339 215 357 197Z"/>
	<path id="z30097d8" d="M697 579Q805 688 840 701Q859 708 852 725Q848 741 779 774Q760 783 738 773Q686 751 608 724Q587 717 537 715Q513 715 523 695Q530 682 551 672Q581 657 617 678Q714 738 741 725Q754 716 748 702Q718 651 683 590L697 579Z"/>
	<path id="z30097d9" d="M683 590Q680 597 621 613Q609 617 604 615Q600 611 601 602L674 528Q684 518 697 518Q704 518 709 529Q713 539 707 563Q704 572 697 579L683 590Z"/>
	<path id="z30097d10" d="M680 462Q795 495 827 492Q845 486 845 479Q845 476 817 412Q811 400 817 397Q823 393 836 404Q882 438 921 450Q952 462 952 469Q951 478 887 522Q863 540 767 513Q722 506 568 468Q529 458 490 452Q462 448 480 433Q511 411 540 421Q606 446 640 453L680 462Z"/>
	<path id="z30097d11" d="M693 160Q697 233 700 296L702 328Q702 380 707 415Q716 439 680 462L640 453Q652 432 653 334Q653 280 652 183L693 160Z"/>
	<path id="z30097d12" d="M700 296Q763 305 810 310Q835 314 825 328Q813 343 787 347Q742 353 702 328L700 296Z"/>
	<path id="z30097d13" d="M554 246Q561 273 577 304Q583 314 577 322Q570 331 541 344Q520 351 512 349Q500 345 503 331Q528 205 370 40Q364 33 370 31Q397 27 464 91Q510 134 546 222L554 246Z"/>
	<path id="z30097d14" d="M546 222Q651 128 763 44Q788 25 825 27Q894 31 962 53Q980 57 981 63Q982 70 967 73Q915 86 856 99Q787 115 735 140Q714 150 693 160L652 183Q628 196 606 212Q575 234 554 246L546 222Z"/>
	<defs>
		<clipPath id="z30097c1"><use xlink:href="#z30097d1"/></clipPath>
		<clipPath id="z30097c2"><use xlink:href="#z30097d2"/></clipPath>
		<clipPath id="z30097c3"><use xlink:href="#z30097d3"/></clipPath>
		<clipPath id="z30097c4"><use xlink:href="#z30097d4"/></clipPath>
		<clipPath id="z30097c5"><use xlink:href="#z30097d5"/></clipPath>
		<clipPath id="z30097c6"><use xlink:href="#z30097d6"/></clipPath>
		<clipPath id="z30097c7"><use xlink:href="#z30097d7"/></clipPath>
		<clipPath id="z30097c8"><use xlink:href="#z30097d8"/></clipPath>
		<clipPath id="z30097c9"><use xlink:href="#z30097d9"/></clipPath>
		<clipPath id="z30097c10"><use xlink:href="#z30097d10"/></clipPath>
		<clipPath id="z30097c11"><use xlink:href="#z30097d11"/></clipPath>
		<clipPath id="z30097c12"><use xlink:href="#z30097d12"/></clipPath>
		<clipPath id="z30097c13"><use xlink:href="#z30097d13"/></clipPath>
		<clipPath id="z30097c14"><use xlink:href="#z30097d14"/></clipPath>
	</defs>
	<path pathLength="2999" clip-path="url(#z30097c1)" d="M400 771L408 721L272 649"/>
	<path pathLength="2999" clip-path="url(#z30097c2)" d="M229 798L260 757L252 615L277 561L447 565L465 583L460 676"/>
	<path pathLength="2999" clip-path="url(#z30097c3)" d="M223 527L251 488L143 339"/>
	<path pathLength="2999" clip-path="url(#z30097c4)" d="M247 420L443 454"/>
	<path pathLength="2999" clip-path="url(#z30097c5)" d="M101 248L467 315"/>
	<path pathLength="2999" clip-path="url(#z30097c6)" d="M295 400L329 363L278 195L212 109L125 56"/>
	<path pathLength="2999" clip-path="url(#z30097c7)" d="M343 230L426 154"/>
	<path pathLength="2999" clip-path="url(#z30097c8)" d="M525 703L592 694L717 746L770 744L800 708L693 586"/>
	<path pathLength="2999" clip-path="url(#z30097c9)" d="M610 604L703 526"/>
	<path pathLength="2999" clip-path="url(#z30097c10)" d="M482 443L836 511L892 480L896 458L820 404"/>
	<path pathLength="2999" clip-path="url(#z30097c11)" d="M647 449L679 419L685 168"/>
	<path pathLength="2999" clip-path="url(#z30097c12)" d="M708 304L820 326"/>
	<path pathLength="2999" clip-path="url(#z30097c13)" d="M511 343L543 307L506 190L377 37"/>
	<path pathLength="2999" clip-path="url(#z30097c14)" d="M556 234L794 73L976 64"/>
</g>
</svg>