<!--
AnimCJK 2016-2017 Copyright Francois Mizessyn, http://gooo.free.fr/animCJK/
Derived from:
    MakeMeAHanzi project - https://github.com/skishore/makemeahanzi
    Arphic PL KaitiM GB - https://apps.ubuntu.com/cat/applications/precise/fonts-arphic-gkai00mp/
    Arphic PL UKai - https://apps.ubuntu.com/cat/applications/fonts-arphic-ukai/
You can redistribute and/or modify this file under the terms of the Arphic Public License
as published by Arphic Technology Co., Ltd.
You should have received a copy of this license (the directory "APL") along with this file;
if not, see http://ftp.gnu.org/non-gnu/chinese-fonts-truetype/LICENSE.
-->
<svg id="z30106" class="acjk" version="1.1" viewBox="0 0 1024 1024" xmlns="http://www.w3.org/2000/svg" xmlns:xlink="http://www.w3.org/1999/xlink">
<style>
<![CDATA[
	@keyframes z30106k {
		from {
			stroke:#c00;
			stroke-dashoffset:3000;
		}
		75% {
			stroke:#c00;
			stroke-dashoffset:0;
		}
		to {
			stroke:#000;
		}
	}
	#z30106 path[clip-path] {
		animation:z30106k 1s linear both;
		stroke-dasharray:3000;
		stroke-width:128;
		stroke-linecap:round;
		fill:none;
	}
	#z30106 path[clip-path="url(#z30106c1)"] {animation-delay:1s;}
	#z30106 path[clip-path="url(#z30106c2)"] {animation-delay:2s;}
	#z30106 path[clip-path="url(#z30106c3)"] {animation-delay:3s;}
	#z30106 path[clip-path="url(#z30106c4)"] {animation-delay:4s;}
	#z30106 path[clip-path="url(#z30106c5)"] {animation-delay:5s;}
	#z30106 path[clip-path="url(#z30106c6)"] {animation-delay:6s;}
	#z30106 path[clip-path="url(#z30106c7)"] {animation-delay:7s;}
	#z30106 path[clip-path="url(#z30106c8)"] {animation-delay:8s;}
	#z30106 path {fill:#ccc;}
]]>
</style>
<g transform="scale(1,-1) translate(0,-900)">
	<path id="z30106d1" d="M509 793Q540 768 573 738Q588 725 604 726Q616 726 621 740Q625 756 615 787Q608 809 574 823Q495 850 480 843Q474 839 477 825Q481 815 509 793Z"/>
	<path id="z30106d2" d="M373 619Q425 612 451 616Q796 674 814 687Q823 694 819 704Q812 716 782 725Q758 731 659 703Q497 664 363 653Q362 653 361 652L373 619Z"/>
	<path id="z30106d3" d="M271 342Q235 185 123 16Q119 9 116 3Q113 -9 124 -6Q157 0 236 117Q251 144 268 176Q332 320 358 537Q361 609 373 619L361 652Q315 691 289 682Q276 675 283 660Q304 632 299 575Q284 406 279 380Q278 379 278 376L271 342Z"/>
	<path id="z30106d4" d="M156 530Q189 460 214 439Q227 432 239 442Q249 452 251 468Q252 493 240 509Q225 528 179 562Q166 572 155 571Q149 572 148 560Q147 548 156 530Z"/>
	<path id="z30106d5" d="M278 376Q107 297 74 293Q62 289 62 280Q62 267 72 261Q96 249 129 236Q139 235 150 245Q168 269 270 341Q270 342 271 342L278 376Z"/>
	<path id="z30106d6" d="M524 441Q560 499 585 519Q594 528 590 540Q587 550 563 572Q541 590 524 590Q508 589 514 570Q523 548 514 530Q489 470 448 415Q411 361 359 303Q350 294 348 289Q344 279 357 281Q394 287 506 418L524 441Z"/>
	<path id="z30106d7" d="M629 253Q665 305 703 375Q719 403 745 420Q760 427 760 437Q760 450 732 466Q698 490 683 490Q671 489 660 481Q573 448 526 443Q525 443 524 441L506 418Q548 403 620 433Q642 440 651 434Q658 430 637 378Q558 153 291 33Q281 29 282 24Q283 20 290 20Q411 16 571 178Q574 185 614 231L629 253Z"/>
	<path id="z30106d8" d="M614 231Q687 125 782 12Q801 -7 830 -5Q930 -1 962 6Q971 7 972 13Q973 17 959 25Q811 86 756 135Q696 186 629 253L614 231Z"/>
	<defs>
		<clipPath id="z30106c1"><use xlink:href="#z30106d1"/></clipPath>
		<clipPath id="z30106c2"><use xlink:href="#z30106d2"/></clipPath>
		<clipPath id="z30106c3"><use xlink:href="#z30106d3"/></clipPath>
		<clipPath id="z30106c4"><use xlink:href="#z30106d4"/></clipPath>
		<clipPath id="z30106c5"><use xlink:href="#z30106d5"/></clipPath>
		<clipPath id="z30106c6"><use xlink:href="#z30106d6"/></clipPath>
		<clipPath id="z30106c7"><use xlink:href="#z30106d7"/></clipPath>
		<clipPath id="z30106c8"><use xlink:href="#z30106d8"/></clipPath>
	</defs>
	<path pathLength="2999" clip-path="url(#z30106c1)" d="M483 837L616 736"/>
	<path pathLength="2999" clip-path="url(#z30106c2)" d="M369 649L428 637L814 707"/>
	<path pathLength="2999" clip-path="url(#z30106c3)" d="M286 675L335 621L301 358L231 157L121 3"/>
	<path pathLength="2999" clip-path="url(#z30106c4)" d="M157 564L220 481L227 440"/>
	<path pathLength="2999" clip-path="url(#z30106c5)" d="M68 279L129 272L271 369"/>
	<path pathLength="2999" clip-path="url(#z30106c6)" d="M521 583L549 525L356 291"/>
	<path pathLength="2999" clip-path="url(#z30106c7)" d="M514 422L664 460L705 425L536 174L426 84L292 27"/>
	<path pathLength="2999" clip-path="url(#z30106c8)" d="M629 248L813 44L965 16"/>
</g>
</svg>