<!--
AnimCJK 2016-2019 Copyright Francois Mizessyn - https://github.com/parsimonhi/animCJK
Derived from:
    MakeMeAHanzi project - https://github.com/skishore/makemeahanzi
    Arphic PL KaitiM GB font
    Arphic PL UKai font
You can redistribute and/or modify this file under the terms of the Arphic Public License
as published by Arphic Technology Co., Ltd.
You should have received a copy of this license along with this file.
If not, see http://ftp.gnu.org/non-gnu/chinese-fonts-truetype/LICENSE.
-->
<svg id="z30117" class="acjk" version="1.1" viewBox="0 0 1024 1024" xmlns="http://www.w3.org/2000/svg" xmlns:xlink="http://www.w3.org/1999/xlink">
<style>
<![CDATA[
@keyframes zk {
	to {
		stroke-dashoffset:0;
	}
}
svg.acjk path[clip-path] {
	--t:0.8s;
	animation:zk var(--t) linear forwards var(--d);
	stroke-dasharray:3337;
	stroke-dashoffset:3339;
	stroke-width:128;
	stroke-linecap:round;
	fill:none;
	stroke:#000;
}
svg.acjk path[id] {fill:#ccc;}
]]>
</style>
<path id="z30117d1" d="M503 84Q533 103 566 128Q582 140 598 136Q608 135 613 120Q616 104 602 74Q593 55 560 45Q481 27 468 37Q464 41 466 55Q472 65 503 84Z"/>
<path id="z30117d2" d="M362 240Q404 250 460 242Q575 224 697 204Q757 192 765 185Q775 178 771 168Q764 156 734 147Q707 141 599 171Q464 201 356 207Q355 207 354 208C343 210 351 238 362 240Z"/>
<path id="z30117d3" d="M272 501Q238 667 119 854Q113 860 112 866Q109 876 120 875Q148 872 224 759Q243 726 262 689Q322 550 349 320Q352 275 362 240C365 230 363 215 354 208Q339 195 316 185Q297 175 284 179Q272 186 279 200Q295 222 296 285Q281 447 279 462C274 488 274 488 272 501Z"/>
<path id="z30117d4" d="M134 319Q173 391 200 406Q213 413 223 402Q232 392 233 377Q230 332 154 288Q141 279 131 281Q125 281 124 292Q123 304 134 319Z"/>
<path id="z30117d5" d="M279 462Q87 564 48 573Q35 577 36 588Q36 601 47 607Q72 617 108 629Q118 630 129 619Q141 603 271 501C272 501 272 501 272 501C283 494 291 456 279 462Z"/>
<path id="z30117d6" d="M596 314Q614 289 614 286Q613 277 601 266Q571 239 543 244Q536 245 537 257Q550 326 435 455Q432 456 431 460Q398 496 317 565Q310 569 319 573Q392 558 490 454Q520 423 583 333C592 320 592 320 596 314Z"/>
<path id="z30117d7" d="M583 333Q665 429 754 516Q776 538 811 539Q875 543 944 529Q960 528 963 523Q964 516 951 511Q794 454 770 441Q710 408 596 314C590 309 578 327 583 333Z"/>
<path id="z30117d8" d="M424 552Q448 583 432 687Q431 688 431 693Q409 783 318 854Q308 863 318 865Q400 856 456 764Q456 763 471 732Q483 702 497 619Q498 598 507 579Q514 563 500 555Q452 524 430 534Q418 538 424 552Z"/>
<path id="z30117d9" d="M616 511Q617 518 622 527Q646 575 635 778Q620 872 636 902Q642 915 652 927Q664 940 675 927Q691 903 690 824Q690 574 691 558Q695 536 689 528Q680 506 640 493Q630 489 617 493Q610 497 616 511Z"/>
<defs>
	<clipPath id="z30117c1"><use xlink:href="#z30117d1"/></clipPath>
	<clipPath id="z30117c2"><use xlink:href="#z30117d2"/></clipPath>
	<clipPath id="z30117c3"><use xlink:href="#z30117d3"/></clipPath>
	<clipPath id="z30117c4"><use xlink:href="#z30117d4"/></clipPath>
	<clipPath id="z30117c5"><use xlink:href="#z30117d5"/></clipPath>
	<clipPath id="z30117c6"><use xlink:href="#z30117d6"/></clipPath>
	<clipPath id="z30117c7"><use xlink:href="#z30117d7"/></clipPath>
	<clipPath id="z30117c8"><use xlink:href="#z30117d8"/></clipPath>
	<clipPath id="z30117c9"><use xlink:href="#z30117d9"/></clipPath>
</defs>
<path style="--d:1s;" pathLength="3333" clip-path="url(#z30117c1)" d="M471 41L608 127"/>
<path style="--d:2s;" pathLength="3333" clip-path="url(#z30117c2)" d="M362 215L426 223L765 171"/>
<path style="--d:3s;" pathLength="3333" clip-path="url(#z30117c3)" d="M286 188L328 246L291 523L215 730L117 869"/>
<path style="--d:4s;" pathLength="3333" clip-path="url(#z30117c4)" d="M134 288L218 403"/>
<path style="--d:5s;" pathLength="3333" clip-path="url(#z30117c5)" d="M42 583L108 590L273 470"/>
<path style="--d:6s;" pathLength="3333" clip-path="url(#z30117c6)" d="M544 251L574 292L513 392L415 501L321 567"/>
<path style="--d:7s;" pathLength="3333" clip-path="url(#z30117c7)" d="M595 323L784 490L953 519"/>
<path style="--d:8s;" pathLength="3333" clip-path="url(#z30117c8)" d="M428 542L473 580L450 717L405 797L324 857"/>
<path style="--d:9s;" pathLength="3333" clip-path="url(#z30117c9)" d="M620 497L660 544L666 928"/>
</svg>