<!--
AnimCJK 2016-2018 Copyright Francois Mizessyn, http://gooo.free.fr/animCJK/
Derived from:
    MakeMeAHanzi project - https://github.com/skishore/makemeahanzi
    Arphic PL KaitiM GB - https://apps.ubuntu.com/cat/applications/precise/fonts-arphic-gkai00mp/
    Arphic PL UKai - https://apps.ubuntu.com/cat/applications/fonts-arphic-ukai/
You can redistribute and/or modify this file under the terms of the Arphic Public License
as published by Arphic Technology Co., Ltd.
You should have received a copy of this license (the directory "APL") along with this file;
if not, see http://ftp.gnu.org/non-gnu/chinese-fonts-truetype/LICENSE.
-->
<svg id="z30136" class="acjk" version="1.1" viewBox="0 0 1024 1024" xmlns="http://www.w3.org/2000/svg" xmlns:xlink="http://www.w3.org/1999/xlink">
<style>
<![CDATA[
@keyframes z30136k {
	from {
		stroke:#ccc;
		stroke-dashoffset:3334;
	}
	1% {
		stroke:#c00;
		stroke-dashoffset:3334;
	}
	75% {
		stroke:#c00;
		stroke-dashoffset:0;
	}
	to {
		stroke:#000;
	}
}
#z30136 path[clip-path] {
	animation:z30136k 1s linear both;
	stroke-dasharray:3334;
	stroke-width:128;
	stroke-linecap:round;
	fill:none;
}
#z30136 path[clip-path="url(#z30136c1)"] {animation-delay:1s;}
#z30136 path[clip-path="url(#z30136c2)"] {animation-delay:2s;}
#z30136 path[clip-path="url(#z30136c3)"] {animation-delay:3s;}
#z30136 path[clip-path="url(#z30136c4)"] {animation-delay:4s;}
#z30136 path[clip-path="url(#z30136c5)"] {animation-delay:5s;}
#z30136 path[clip-path="url(#z30136c6)"] {animation-delay:6s;}
#z30136 path[clip-path="url(#z30136c7)"] {animation-delay:7s;}
#z30136 path[clip-path="url(#z30136c8)"] {animation-delay:8s;}
#z30136 path[clip-path="url(#z30136c9)"] {animation-delay:9s;}
#z30136 path[clip-path="url(#z30136c10)"] {animation-delay:10s;}
#z30136 path {fill:#ccc;}
]]>
</style>
<path id="z30136d1" d="M516 116Q544 138 573 167Q589 180 607 180Q619 179 624 164Q630 146 618 113Q606 82 509 61Q491 57 484 61Q478 65 480 80Q484 93 516 116 Z"/>
<path id="z30136d2" d="M356 307Q387 319 458 311Q761 262 780 256Q792 252 797 249Q807 242 803 232Q796 219 766 211Q736 204 633 234Q465 270 352 275Q351 275 350 276L356 307 Z"/>
<path id="z30136d3" d="M254 579Q217 747 99 920Q95 927 92 933Q89 945 100 943Q136 936 214 817Q230 789 247 757Q317 612 337 417Q346 315 356 307L350 276Q334 260 306 249Q287 237 273 242Q260 249 267 264Q288 292 283 350Q270 503 262 541L254 579 Z"/>
<path id="z30136d4" d="M132 375Q168 435 197 456Q210 462 223 450Q232 440 232 422Q231 397 215 380Q184 344 136 332Q130 331 127 332Q120 332 120 345Q120 358 132 375 Z"/>
<path id="z30136d5" d="M262 541Q88 623 50 627Q38 631 38 640Q38 653 48 659Q72 671 105 684Q115 685 126 676Q147 652 254 579L262 541 Z"/>
<path id="z30136d6" d="M458 417Q446 410 413 403Q400 399 397 404Q390 410 398 426Q429 505 443 632Q444 669 464 696Q480 718 487 703Q491 691 492 674L492 648Q486 590 481 564L478 540Q469 479 467 453L458 417 Z"/>
<path id="z30136d7" d="M642 657Q661 690 680 699Q692 708 708 685Q726 657 761 499Q771 466 796 440Q809 427 798 412Q782 393 736 365Q717 356 644 375Q635 375 458 417L467 453Q468 452 472 451Q539 430 660 410Q685 406 695 414Q710 432 706 450Q679 600 661 627L642 657 Z"/>
<path id="z30136d8" d="M481 564L623 545Q645 541 637 528Q627 513 601 509Q565 505 478 540L481 564 Z"/>
<path id="z30136d9" d="M492 674Q496 674 502 674Q581 662 642 657L661 627Q654 623 643 620Q619 616 492 648L492 674 Z"/>
<path id="z30136d10" d="M298 825Q276 826 292 845Q305 861 325 867Q347 874 365 870Q594 822 890 843Q912 844 918 835Q924 822 907 807Q852 762 812 770Q661 795 298 825 Z"/>
<defs>
	<clipPath id="z30136c1"><use xlink:href="#z30136d1"/></clipPath>
	<clipPath id="z30136c2"><use xlink:href="#z30136d2"/></clipPath>
	<clipPath id="z30136c3"><use xlink:href="#z30136d3"/></clipPath>
	<clipPath id="z30136c4"><use xlink:href="#z30136d4"/></clipPath>
	<clipPath id="z30136c5"><use xlink:href="#z30136d5"/></clipPath>
	<clipPath id="z30136c6"><use xlink:href="#z30136d6"/></clipPath>
	<clipPath id="z30136c7"><use xlink:href="#z30136d7"/></clipPath>
	<clipPath id="z30136c8"><use xlink:href="#z30136d8"/></clipPath>
	<clipPath id="z30136c9"><use xlink:href="#z30136d9"/></clipPath>
	<clipPath id="z30136c10"><use xlink:href="#z30136d10"/></clipPath>
</defs>
<path pathLength="3333" clip-path="url(#z30136c1)" d="M483 69L579 122L610 175"/>
<path pathLength="3333" clip-path="url(#z30136c2)" d="M358 279L424 292L798 237"/>
<path pathLength="3333" clip-path="url(#z30136c3)" d="M270 248L318 302L278 594L201 793L98 933"/>
<path pathLength="3333" clip-path="url(#z30136c4)" d="M127 337L212 453"/>
<path pathLength="3333" clip-path="url(#z30136c5)" d="M44 641L109 646L256 552"/>
<path pathLength="3333" clip-path="url(#z30136c6)" d="M402 411L437 450L476 704"/>
<path pathLength="3333" clip-path="url(#z30136c7)" d="M471 444L666 389L715 390L749 419L689 647L654 674"/>
<path pathLength="3333" clip-path="url(#z30136c8)" d="M485 557L632 530"/>
<path pathLength="3333" clip-path="url(#z30136c9)" d="M497 666L654 635"/>
<path pathLength="3333" clip-path="url(#z30136c10)" d="M293 834L347 846L803 804L915 821"/>
</svg>