<!--
AnimCJK 2016-2019 Copyright Francois Mizessyn - https://github.com/parsimonhi/animCJK
Derived from:
    MakeMeAHanzi project - https://github.com/skishore/makemeahanzi
    Arphic PL KaitiM GB font
    Arphic PL UKai font
You can redistribute and/or modify this file under the terms of the Arphic Public License
as published by Arphic Technology Co., Ltd.
You should have received a copy of this license along with this file.
If not, see http://ftp.gnu.org/non-gnu/chinese-fonts-truetype/LICENSE.
-->
<svg id="z30133" class="acjk" version="1.1" viewBox="0 0 1024 1024" xmlns="http://www.w3.org/2000/svg" xmlns:xlink="http://www.w3.org/1999/xlink">
<style>
<![CDATA[
@keyframes zk {
	to {
		stroke-dashoffset:0;
	}
}
svg.acjk path[clip-path] {
	--t:0.8s;
	animation:zk var(--t) linear forwards var(--d);
	stroke-dasharray:3337;
	stroke-dashoffset:3339;
	stroke-width:128;
	stroke-linecap:round;
	fill:none;
	stroke:#000;
}
svg.acjk path[id] {fill:#ccc;}
]]>
</style>
<path id="z30133d1" d="M484 114Q544 177 577 191Q593 194 603 179Q609 166 606 148Q594 105 497 72Q479 68 469 71Q462 72 465 86Q466 99 484 114Z"/>
<path id="z30133d2" d="M358 317Q392 323 465 313Q768 256 778 247Q787 240 783 232Q776 220 748 212Q724 206 600 243Q459 276 343 286C332 288 347 315 358 317Z"/>
<path id="z30133d3" d="M252 614Q212 759 115 908Q111 915 108 921Q105 933 116 930Q152 923 230 800Q243 778 256 752Q322 605 343 392Q343 356 358 317C362 306 353 292 343 286Q328 274 306 265Q287 253 273 258Q260 265 267 280Q283 302 284 363Q283 378 282 398Q278 480 265 553Q262 566 260 579C255 602 255 602 252 614Z"/>
<path id="z30133d4" d="M147 403Q159 425 171 453Q181 471 196 475Q206 478 217 467Q227 454 228 421Q225 393 158 353Q145 344 137 345Q130 346 128 361Q128 373 147 403Z"/>
<path id="z30133d5" d="M260 579Q92 643 61 647Q48 650 48 660Q47 673 57 679Q79 692 113 707Q123 708 134 699Q156 675 252 614C262 607 271 575 260 579Z"/>
<path id="z30133d6" d="M514 711Q515 638 516 569C516 545 516 545 516 533Q519 490 528 430Q531 420 512 408Q481 393 459 390Q446 389 439 396Q432 403 440 416Q461 441 462 461Q475 582 477 725C477 738 514 724 514 711Z"/>
<path id="z30133d7" d="M516 569Q565 559 604 553Q628 547 618 536Q606 523 580 519Q556 518 516 533C505 537 504 571 516 569Z"/>
<path id="z30133d8" d="M413 747Q410 648 415 612Q418 593 406 583Q387 568 365 560Q353 556 346 561Q340 565 345 579Q358 604 365 632Q369 657 378 759C380 771 413 759 413 747Z"/>
<path id="z30133d9" d="M378 759Q356 765 337 773Q321 779 291 779Q279 780 278 791Q277 804 286 811Q308 826 340 842Q350 843 361 835Q385 814 548 729Q570 719 585 705Q598 698 597 688Q593 684 580 686Q549 698 514 711C489 720 489 720 477 725Q446 735 413 747C390 755 390 755 378 759Z"/>
<path id="z30133d10" d="M675 586Q792 522 850 499Q869 498 866 485Q862 469 846 446Q830 424 807 419Q792 418 790 437Q790 450 778 466Q742 503 676 559C669 564 667 590 675 586Z"/>
<path id="z30133d11" d="M676 559Q680 432 701 376Q708 360 699 347Q686 335 652 321Q622 311 613 320Q606 327 618 347Q637 374 637 416Q636 531 635 662Q632 776 694 830Q739 866 887 849Q908 846 925 840Q950 836 958 822Q962 815 954 794Q936 760 922 686Q919 673 912 667Q908 664 904 677Q870 780 848 792Q827 807 754 803Q735 802 728 797Q697 778 686 739Q674 688 675 586C676 568 676 568 676 559Z"/>
<defs>
	<clipPath id="z30133c1"><use xlink:href="#z30133d1"/></clipPath>
	<clipPath id="z30133c2"><use xlink:href="#z30133d2"/></clipPath>
	<clipPath id="z30133c3"><use xlink:href="#z30133d3"/></clipPath>
	<clipPath id="z30133c4"><use xlink:href="#z30133d4"/></clipPath>
	<clipPath id="z30133c5"><use xlink:href="#z30133d5"/></clipPath>
	<clipPath id="z30133c6"><use xlink:href="#z30133d6"/></clipPath>
	<clipPath id="z30133c7"><use xlink:href="#z30133d7"/></clipPath>
	<clipPath id="z30133c8"><use xlink:href="#z30133d8"/></clipPath>
	<clipPath id="z30133c9"><use xlink:href="#z30133d9"/></clipPath>
	<clipPath id="z30133c10"><use xlink:href="#z30133d10"/></clipPath>
	<clipPath id="z30133c11"><use xlink:href="#z30133d11"/></clipPath>
</defs>
<path style="--d:1s;" pathLength="3333" clip-path="url(#z30133c1)" d="M470 78L600 178"/>
<path style="--d:2s;" pathLength="3333" clip-path="url(#z30133c2)" d="M354 292L421 298L780 238"/>
<path style="--d:3s;" pathLength="3333" clip-path="url(#z30133c3)" d="M270 266L319 323L284 590L217 776L116 923"/>
<path style="--d:4s;" pathLength="3333" clip-path="url(#z30133c4)" d="M137 353L208 469"/>
<path style="--d:5s;" pathLength="3333" clip-path="url(#z30133c5)" d="M55 659L110 671L254 588"/>
<path style="--d:6s;" pathLength="3333" clip-path="url(#z30133c6)" d="M444 401L493 439L483 715"/>
<path style="--d:7s;" pathLength="3333" clip-path="url(#z30133c7)" d="M521 560L613 543"/>
<path style="--d:8s;" pathLength="3333" clip-path="url(#z30133c8)" d="M350 566L387 605L391 754"/>
<path style="--d:9s;" pathLength="3333" clip-path="url(#z30133c9)" d="M281 791L342 807L590 692"/>
<path style="--d:10s;" pathLength="3333" clip-path="url(#z30133c10)" d="M802 422L820 481L682 578"/>
<path style="--d:11s;" pathLength="3333" clip-path="url(#z30133c11)" d="M618 326L667 367L656 679L693 798L744 826L881 814L914 789L913 675"/>
</svg>