<!--
AnimCJK 2016-2019 Copyright Francois Mizessyn - https://github.com/parsimonhi/animCJK
Derived from:
    MakeMeAHanzi project - https://github.com/skishore/makemeahanzi
    Arphic PL KaitiM GB font
    Arphic PL UKai font
You can redistribute and/or modify this file under the terms of the Arphic Public License
as published by Arphic Technology Co., Ltd.
You should have received a copy of this license along with this file.
If not, see http://ftp.gnu.org/non-gnu/chinese-fonts-truetype/LICENSE.
-->
<svg id="z30192" class="acjk" version="1.1" viewBox="0 0 1024 1024" xmlns="http://www.w3.org/2000/svg" xmlns:xlink="http://www.w3.org/1999/xlink">
<style>
<![CDATA[
@keyframes zk {
	to {
		stroke-dashoffset:0;
	}
}
svg.acjk path[clip-path] {
	--t:0.8s;
	animation:zk var(--t) linear forwards var(--d);
	stroke-dasharray:3337;
	stroke-dashoffset:3339;
	stroke-width:128;
	stroke-linecap:round;
	fill:none;
	stroke:#000;
}
svg.acjk path[id] {fill:#ccc;}
]]>
</style>
<path id="z30192d1" d="M500 104Q524 120 550 140Q565 150 580 147Q590 146 593 132Q594 117 583 90Q576 74 547 66Q475 54 468 61Q464 65 467 77Q471 87 500 104Z"/>
<path id="z30192d2" d="M363 251Q405 260 451 253Q760 208 776 203Q782 200 785 199Q794 192 790 184Q784 171 756 163Q728 154 698 164Q539 207 357 217C345 217 352 249 363 251Z"/>
<path id="z30192d3" d="M283 549Q234 751 88 876Q73 889 70 895Q69 902 80 902Q123 902 209 814Q305 712 334 539Q353 434 359 276Q360 261 363 251C365 240 366 224 357 217Q354 214 351 213Q302 188 286 190Q267 194 282 216Q307 261 301 383Q297 458 288 517C285 538 285 538 283 549Z"/>
<path id="z30192d4" d="M157 348Q179 397 211 429Q224 436 236 426Q243 416 246 401Q246 362 178 317Q165 308 155 309Q149 309 148 320Q147 330 157 348Z"/>
<path id="z30192d5" d="M288 517Q99 605 62 609Q49 613 49 623Q49 636 60 643Q85 655 120 668Q130 669 141 659Q147 650 283 549C292 543 298 513 288 517Z"/>
<path id="z30192d6" d="M411 361Q447 412 470 414Q483 415 489 399Q490 387 482 368Q467 344 415 337Q408 336 406 345Q405 352 411 361Z"/>
<path id="z30192d7" d="M694 320Q667 345 618 385Q611 389 615 397Q621 400 628 397Q712 361 751 350Q767 349 765 339Q764 326 750 306Q738 287 719 282Q707 281 704 296Q704 308 694 320Z"/>
<path id="z30192d8" d="M527 288Q545 366 506 454Q493 478 477 495Q459 516 410 545Q391 557 415 555Q445 558 497 526Q566 487 589 331Q592 315 595 308Q601 302 596 294Q592 288 568 279Q541 266 528 271Q519 275 527 288Z"/>
<path id="z30192d9" d="M632 469Q657 488 685 513Q695 523 706 522Q713 521 717 511Q721 501 714 479Q705 455 628 434Q616 431 612 434Q608 437 609 446Q612 453 632 469Z"/>
<path id="z30192d10" d="M375 638Q417 698 441 702Q454 703 461 687Q462 674 455 654Q446 639 426 631Q395 615 380 613Q371 612 370 622Q369 629 375 638Z"/>
<path id="z30192d11" d="M695 596Q674 621 633 660Q627 666 631 673Q637 674 645 672Q721 636 758 624Q774 623 772 612Q769 597 754 578Q739 559 720 555Q707 554 705 571Q706 583 695 596Z"/>
<path id="z30192d12" d="M569 666Q582 606 588 599Q595 592 589 582Q583 575 555 564Q524 548 509 554Q499 560 507 575Q529 632 503 710Q470 804 346 865Q322 874 293 887Q268 897 297 900Q378 903 470 842Q482 832 493 820Q541 772 562 693C567 675 567 675 569 666Z"/>
<path id="z30192d13" d="M562 693Q577 705 648 796Q757 937 818 935Q825 934 833 932Q882 922 919 915Q931 912 942 907Q949 900 938 893Q925 886 817 849Q718 813 593 682Q583 670 569 666C560 663 555 687 562 693Z"/>
<defs>
	<clipPath id="z30192c1"><use xlink:href="#z30192d1"/></clipPath>
	<clipPath id="z30192c2"><use xlink:href="#z30192d2"/></clipPath>
	<clipPath id="z30192c3"><use xlink:href="#z30192d3"/></clipPath>
	<clipPath id="z30192c4"><use xlink:href="#z30192d4"/></clipPath>
	<clipPath id="z30192c5"><use xlink:href="#z30192d5"/></clipPath>
	<clipPath id="z30192c6"><use xlink:href="#z30192d6"/></clipPath>
	<clipPath id="z30192c7"><use xlink:href="#z30192d7"/></clipPath>
	<clipPath id="z30192c8"><use xlink:href="#z30192d8"/></clipPath>
	<clipPath id="z30192c9"><use xlink:href="#z30192d9"/></clipPath>
	<clipPath id="z30192c10"><use xlink:href="#z30192d10"/></clipPath>
	<clipPath id="z30192c11"><use xlink:href="#z30192d11"/></clipPath>
	<clipPath id="z30192c12"><use xlink:href="#z30192d12"/></clipPath>
	<clipPath id="z30192c13"><use xlink:href="#z30192d13"/></clipPath>
</defs>
<path style="--d:1s;" pathLength="3333" clip-path="url(#z30192c1)" d="M473 66L585 136"/>
<path style="--d:2s;" pathLength="3333" clip-path="url(#z30192c2)" d="M365 220L420 234L787 188"/>
<path style="--d:3s;" pathLength="3333" clip-path="url(#z30192c3)" d="M281 198L329 253L300 582L209 777L79 897"/>
<path style="--d:4s;" pathLength="3333" clip-path="url(#z30192c4)" d="M157 314L231 425"/>
<path style="--d:5s;" pathLength="3333" clip-path="url(#z30192c5)" d="M54 620L123 629L283 526"/>
<path style="--d:6s;" pathLength="3333" clip-path="url(#z30192c6)" d="M413 344L481 407"/>
<path style="--d:7s;" pathLength="3333" clip-path="url(#z30192c7)" d="M716 290L725 336L623 391"/>
<path style="--d:8s;" pathLength="3333" clip-path="url(#z30192c8)" d="M533 275L564 309L528 460L479 518L410 549"/>
<path style="--d:9s;" pathLength="3333" clip-path="url(#z30192c9)" d="M612 440L706 515"/>
<path style="--d:10s;" pathLength="3333" clip-path="url(#z30192c10)" d="M376 621L449 698"/>
<path style="--d:11s;" pathLength="3333" clip-path="url(#z30192c11)" d="M718 561L734 606L638 667"/>
<path style="--d:12s;" pathLength="3333" clip-path="url(#z30192c12)" d="M513 561L553 598L505 764L414 850L291 894"/>
<path style="--d:13s;" pathLength="3333" clip-path="url(#z30192c13)" d="M572 673L768 871L834 898L937 902"/>
</svg>