<!--
AnimCJK 2016-2018 Copyright Francois Mizessyn, http://gooo.free.fr/animCJK/
Derived from:
    MakeMeAHanzi project - https://github.com/skishore/makemeahanzi
    Arphic PL KaitiM GB - https://apps.ubuntu.com/cat/applications/precise/fonts-arphic-gkai00mp/
    Arphic PL UKai - https://apps.ubuntu.com/cat/applications/fonts-arphic-ukai/
You can redistribute and/or modify this file under the terms of the Arphic Public License
as published by Arphic Technology Co., Ltd.
You should have received a copy of this license (the directory "APL") along with this file;
if not, see http://ftp.gnu.org/non-gnu/chinese-fonts-truetype/LICENSE.
-->
<svg id="z30271" class="acjk" version="1.1" viewBox="0 0 1024 1024" xmlns="http://www.w3.org/2000/svg" xmlns:xlink="http://www.w3.org/1999/xlink">
<style>
<![CDATA[
@keyframes z30271k {
	from {
		stroke:#ccc;
		stroke-dashoffset:3334;
	}
	1% {
		stroke:#c00;
		stroke-dashoffset:3334;
	}
	75% {
		stroke:#c00;
		stroke-dashoffset:0;
	}
	to {
		stroke:#000;
	}
}
#z30271 path[clip-path] {
	animation:z30271k 1s linear both;
	stroke-dasharray:3334;
	stroke-width:128;
	stroke-linecap:round;
	fill:none;
}
#z30271 path[clip-path="url(#z30271c1)"] {animation-delay:1s;}
#z30271 path[clip-path="url(#z30271c2)"] {animation-delay:2s;}
#z30271 path[clip-path="url(#z30271c3)"] {animation-delay:3s;}
#z30271 path[clip-path="url(#z30271c4)"] {animation-delay:4s;}
#z30271 path[clip-path="url(#z30271c5)"] {animation-delay:5s;}
#z30271 path[clip-path="url(#z30271c6)"] {animation-delay:6s;}
#z30271 path[clip-path="url(#z30271c7)"] {animation-delay:7s;}
#z30271 path[clip-path="url(#z30271c8)"] {animation-delay:8s;}
#z30271 path[clip-path="url(#z30271c9)"] {animation-delay:9s;}
#z30271 path[clip-path="url(#z30271c10)"] {animation-delay:10s;}
#z30271 path[clip-path="url(#z30271c11)"] {animation-delay:11s;}
#z30271 path[clip-path="url(#z30271c12)"] {animation-delay:12s;}
#z30271 path[clip-path="url(#z30271c13)"] {animation-delay:13s;}
#z30271 path[clip-path="url(#z30271c14)"] {animation-delay:14s;}
#z30271 path[clip-path="url(#z30271c15)"] {animation-delay:15s;}
#z30271 path[clip-path="url(#z30271c16)"] {animation-delay:16s;}
#z30271 path {fill:#ccc;}
]]>
</style>
<path id="z30271d1" d="M522 93Q549 111 578 134Q593 144 607 143Q617 142 621 128Q624 113 612 86Q605 68 575 58Q505 40 492 49Q488 53 490 65Q494 75 522 93 Z"/>
<path id="z30271d2" d="M356 234Q392 241 497 226Q743 186 768 178Q774 175 777 174Q786 167 782 159Q776 147 750 140Q722 133 624 162Q455 198 346 203Q343 203 341 205L356 234 Z"/>
<path id="z30271d3" d="M267 510Q236 681 148 822Q124 865 98 906Q94 912 92 918Q89 928 100 927Q134 921 221 782Q234 755 250 726Q314 579 341 326Q344 254 356 234L341 205Q299 172 276 179Q264 186 271 200Q293 231 289 293Q276 452 272 477L267 510 Z"/>
<path id="z30271d4" d="M146 350Q165 369 186 394Q198 407 213 407Q223 408 229 395Q235 382 228 352Q222 328 145 303Q130 299 124 301Q120 305 120 317Q121 327 146 350 Z"/>
<path id="z30271d5" d="M272 477Q98 552 63 555Q51 558 51 568Q50 581 60 587Q84 600 117 613Q127 614 138 605Q168 572 267 510L272 477 Z"/>
<path id="z30271d6" d="M409 301Q396 291 380 287Q374 286 370 291Q369 295 373 303Q400 363 377 469Q373 490 374 503Q381 525 389 534Q396 544 404 534Q419 510 420 420Q420 345 424 321L409 301 Z"/>
<path id="z30271d7" d="M523 493Q519 509 527 523Q537 542 542 541Q552 540 562 519Q572 503 571 488Q552 352 578 313Q585 303 579 296Q560 280 527 267Q521 264 452 291Q430 297 409 301L424 321Q427 321 471 309Q508 297 517 302Q524 315 527 355Q528 470 523 493 Z"/>
<path id="z30271d8" d="M459 394Q468 532 412 595Q396 614 357 639Q350 642 349 644Q346 648 355 648Q373 651 428 614Q491 569 491 437Q497 380 499 375Q502 368 497 364Q487 355 465 347Q453 343 444 346Q432 350 442 360Q458 376 459 394 Z"/>
<path id="z30271d9" d="M503 560Q536 609 550 612Q560 613 565 602Q568 593 563 579Q557 567 542 560Q520 545 509 542Q502 541 501 548Q500 554 503 560 Z"/>
<path id="z30271d10" d="M641 283Q632 274 616 270Q609 266 602 270Q598 273 601 281Q628 371 609 465Q600 505 626 532Q633 541 640 533Q649 521 649 306L641 283 Z"/>
<path id="z30271d11" d="M769 490Q765 506 774 522Q784 541 790 541Q800 540 811 517Q821 498 820 484Q799 336 825 294Q832 282 826 275Q804 257 768 244Q756 240 739 247Q714 260 684 271Q662 278 641 283L649 306Q652 306 706 291Q748 278 758 283Q765 299 770 340Q774 466 769 490 Z"/>
<path id="z30271d12" d="M692 385Q701 511 652 572Q636 588 607 613Q600 617 597 620Q594 624 605 624Q620 627 670 593Q730 542 732 400Q733 384 739 363Q743 356 736 350Q724 340 700 331Q685 325 674 329Q661 335 672 346Q691 365 692 385 Z"/>
<path id="z30271d13" d="M745 576Q770 598 799 627Q808 636 818 636Q825 636 830 627Q833 617 828 597Q822 573 743 543Q733 540 728 542Q724 543 725 553Q726 560 745 576 Z"/>
<path id="z30271d14" d="M537 694Q541 682 548 675Q557 668 554 659Q548 647 515 623Q505 614 495 618Q485 621 491 635Q497 653 485 700L474 733Q450 785 451 793Q454 803 469 805Q524 820 553 840L590 861Q636 889 701 939Q723 957 740 956Q759 955 758 938Q758 919 731 879Q716 854 616 820L577 806Q537 793 509 786Q490 782 500 764Q512 742 520 727L537 694 Z"/>
<path id="z30271d15" d="M657 678Q633 659 608 663Q598 666 602 678Q603 681 605 685L608 716Q608 750 577 806L553 840Q498 901 363 938Q348 944 365 947Q510 962 590 861L616 820Q635 787 647 751Q654 723 663 711L657 678 Z"/>
<path id="z30271d16" d="M663 711Q727 705 912 705Q930 705 935 697Q939 687 924 673Q876 637 841 645Q769 658 657 678L605 685Q595 685 537 694L485 700Q389 710 288 723Q269 726 282 741Q295 754 312 759Q331 763 347 760Q405 744 474 733L520 727Q535 723 552 722Q577 718 608 716L663 711 Z"/>
<defs>
	<clipPath id="z30271c1"><use xlink:href="#z30271d1"/></clipPath>
	<clipPath id="z30271c2"><use xlink:href="#z30271d2"/></clipPath>
	<clipPath id="z30271c3"><use xlink:href="#z30271d3"/></clipPath>
	<clipPath id="z30271c4"><use xlink:href="#z30271d4"/></clipPath>
	<clipPath id="z30271c5"><use xlink:href="#z30271d5"/></clipPath>
	<clipPath id="z30271c6"><use xlink:href="#z30271d6"/></clipPath>
	<clipPath id="z30271c7"><use xlink:href="#z30271d7"/></clipPath>
	<clipPath id="z30271c8"><use xlink:href="#z30271d8"/></clipPath>
	<clipPath id="z30271c9"><use xlink:href="#z30271d9"/></clipPath>
	<clipPath id="z30271c10"><use xlink:href="#z30271d10"/></clipPath>
	<clipPath id="z30271c11"><use xlink:href="#z30271d11"/></clipPath>
	<clipPath id="z30271c12"><use xlink:href="#z30271d12"/></clipPath>
	<clipPath id="z30271c13"><use xlink:href="#z30271d13"/></clipPath>
	<clipPath id="z30271c14"><use xlink:href="#z30271d14"/></clipPath>
	<clipPath id="z30271c15"><use xlink:href="#z30271d15"/></clipPath>
	<clipPath id="z30271c16"><use xlink:href="#z30271d16"/></clipPath>
</defs>
<path pathLength="3333" clip-path="url(#z30271c1)" d="M495 56L616 133"/>
<path pathLength="3333" clip-path="url(#z30271c2)" d="M351 210L448 213L776 159"/>
<path pathLength="3333" clip-path="url(#z30271c3)" d="M277 188L321 238L281 556L215 745L95 918"/>
<path pathLength="3333" clip-path="url(#z30271c4)" d="M127 306L196 358L211 404"/>
<path pathLength="3333" clip-path="url(#z30271c5)" d="M58 570L122 575L265 487"/>
<path pathLength="3333" clip-path="url(#z30271c6)" d="M379 296L403 332L396 534"/>
<path pathLength="3333" clip-path="url(#z30271c7)" d="M418 304L519 284L550 309L542 534"/>
<path pathLength="3333" clip-path="url(#z30271c8)" d="M445 353L479 379L463 533L422 603L356 642"/>
<path pathLength="3333" clip-path="url(#z30271c9)" d="M509 550L559 605"/>
<path pathLength="3333" clip-path="url(#z30271c10)" d="M608 275L629 310L631 529"/>
<path pathLength="3333" clip-path="url(#z30271c11)" d="M648 287L761 263L795 292L791 534"/>
<path pathLength="3333" clip-path="url(#z30271c12)" d="M672 333L714 364L705 491L671 570L608 619"/>
<path pathLength="3333" clip-path="url(#z30271c13)" d="M734 550L826 623"/>
<path pathLength="3333" clip-path="url(#z30271c14)" d="M497 627L522 667L474 784L655 866L748 950"/>
<path pathLength="3333" clip-path="url(#z30271c15)" d="M608 667L633 721L567 855L476 918L364 942"/>
<path pathLength="3333" clip-path="url(#z30271c16)" d="M284 730L336 739L843 674L931 687"/>
</svg>