<!--
AnimCJK 2016-2019 Copyright Francois Mizessyn - https://github.com/parsimonhi/animCJK
Derived from:
    MakeMeAHanzi project - https://github.com/skishore/makemeahanzi
    Arphic PL KaitiM GB font
    Arphic PL UKai font
You can redistribute and/or modify this file under the terms of the Arphic Public License
as published by Arphic Technology Co., Ltd.
You should have received a copy of this license along with this file.
If not, see http://ftp.gnu.org/non-gnu/chinese-fonts-truetype/LICENSE.
-->
<svg id="z30300" class="acjk" version="1.1" viewBox="0 0 1024 1024" xmlns="http://www.w3.org/2000/svg" xmlns:xlink="http://www.w3.org/1999/xlink">
<style>
<![CDATA[
@keyframes zk {
	to {
		stroke-dashoffset:0;
	}
}
svg.acjk path[clip-path] {
	--t:0.8s;
	animation:zk var(--t) linear forwards var(--d);
	stroke-dasharray:3337;
	stroke-dashoffset:3339;
	stroke-width:128;
	stroke-linecap:round;
	fill:none;
	stroke:#000;
}
svg.acjk path[id] {fill:#ccc;}
]]>
</style>
<path id="z30300d1" d="M510 107Q537 129 565 155Q580 168 597 167Q607 166 613 152Q617 136 606 105Q594 72 503 57Q487 54 480 57Q474 61 477 75Q481 85 510 107Z"/>
<path id="z30300d2" d="M324 261Q366 276 430 268Q763 223 785 209Q795 202 790 192Q783 179 755 170Q724 163 693 172Q614 194 529 211Q435 227 324 231Q320 231 318 233C309 237 315 257 324 261Z"/>
<path id="z30300d3" d="M231 534Q192 696 79 867Q75 873 72 879Q69 889 79 887Q110 880 189 764Q204 737 221 705Q287 555 311 341Q314 298 323 265Q324 262 324 261C326 252 325 240 318 233Q303 220 280 209Q262 199 250 203Q238 210 244 222Q265 250 260 307Q248 449 238 498C233 522 233 522 231 534Z"/>
<path id="z30300d4" d="M129 360Q153 412 184 438Q196 444 208 434Q215 424 218 409Q215 372 150 328Q137 321 127 321Q121 321 120 332Q119 344 129 360Z"/>
<path id="z30300d5" d="M238 498Q70 591 42 598Q32 602 32 611Q33 624 43 628Q67 638 100 647Q110 648 118 638Q139 610 231 534C241 526 249 493 238 498Z"/>
<path id="z30300d6" d="M538 436Q554 390 570 377Q589 358 571 344Q517 314 514 315Q508 315 502 319Q472 337 388 357C378 359 396 386 405 382Q427 375 482 364Q503 360 508 368Q509 369 497 429C494 443 533 449 538 436Z"/>
<path id="z30300d7" d="M386 486Q393 487 405 485Q450 475 547 463Q556 462 556 454Q556 448 538 436C527 427 511 426 497 429Q493 429 489 431Q434 447 389 457C379 459 376 486 386 486Z"/>
<path id="z30300d8" d="M332 695Q369 599 386 486C388 467 388 467 389 457Q392 438 395 420Q395 408 405 382C409 373 396 363 388 357Q379 350 367 344Q352 335 342 339Q332 343 337 355Q374 422 309 652Q303 668 297 685Q266 763 198 863Q194 867 192 873Q191 882 198 880Q228 874 297 769Q312 739 327 708C330 699 330 699 332 695Z"/>
<path id="z30300d9" d="M540 588Q556 582 575 576Q582 570 578 564Q574 557 553 551Q549 550 547 551C519 556 519 556 505 558Q481 565 455 574Q452 574 450 575C423 581 423 581 410 584Q397 584 385 586Q360 590 378 602Q393 611 412 611C435 609 435 609 446 608Q474 601 504 595C528 590 528 590 540 588Z"/>
<path id="z30300d10" d="M450 575Q450 571 451 570Q454 555 445 547Q432 534 414 526Q404 522 398 526Q394 530 397 540Q406 561 410 584C411 602 411 602 412 611Q413 636 415 683C415 693 443 687 443 677Q444 638 446 612Q446 609 446 608C449 586 449 586 450 575Z"/>
<path id="z30300d11" d="M527 656Q534 620 540 588C545 563 545 563 547 551Q548 539 557 524Q558 518 548 508Q527 495 513 490Q503 487 498 492Q492 496 497 506Q507 524 505 558C504 583 504 583 504 595Q501 628 498 664C498 674 525 666 527 656Z"/>
<path id="z30300d12" d="M415 683Q385 684 335 694Q332 694 332 695C328 696 323 706 327 708Q345 721 384 722Q432 710 571 689Q578 690 586 680Q587 671 569 663Q548 650 527 656C508 661 508 661 498 664Q479 668 460 673Q450 674 443 677C424 681 424 681 415 683Z"/>
<path id="z30300d13" d="M391 758Q385 798 299 883Q284 895 304 891Q355 882 419 809Q437 790 445 781Q452 771 451 765Q448 755 428 750Q407 743 398 746Q392 747 391 758Z"/>
<path id="z30300d14" d="M501 759Q541 819 560 821Q570 822 578 808Q579 798 573 780Q555 750 506 738Q499 735 497 745Q496 752 501 759Z"/>
<path id="z30300d15" d="M643 336Q633 329 620 325Q607 319 598 323Q591 329 596 338Q620 362 606 461Q603 480 583 533Q580 537 579 542Q578 549 585 548Q606 523 628 496Q629 492 632 487Q653 414 654 367C654 356 652 343 643 336Z"/>
<path id="z30300d16" d="M908 508Q920 502 911 490Q898 474 881 467Q871 463 851 472Q829 485 800 486Q782 487 775 474Q765 456 775 406Q776 375 808 343Q823 330 807 318Q786 302 763 292Q753 288 739 297Q696 321 643 336C632 338 644 370 654 367Q661 366 711 343Q724 336 731 337Q738 338 738 350Q729 465 735 485Q741 504 759 516Q784 529 835 527Q884 523 908 508Z"/>
<path id="z30300d17" d="M742 763Q770 717 790 644Q794 616 810 600Q823 588 808 576Q790 563 763 554Q745 548 728 558Q691 580 637 589Q615 590 606 597Q599 601 614 610Q636 620 666 610Q694 603 723 595Q741 589 741 609Q741 655 711 732C697 756 697 756 690 768Q650 823 535 864Q523 868 531 874Q538 878 560 874Q627 865 667 844Q692 828 715 803C733 776 733 776 742 763Z"/>
<path id="z30300d18" d="M715 803Q758 858 798 904Q811 920 832 920Q944 908 954 898Q957 894 949 889Q813 829 742 763C721 742 721 742 711 732Q680 699 644 659Q635 646 622 645Q598 644 592 651Q589 657 597 662Q625 678 643 705Q667 738 690 768C707 791 707 791 715 803Z"/>
<defs>
	<clipPath id="z30300c1"><use xlink:href="#z30300d1"/></clipPath>
	<clipPath id="z30300c2"><use xlink:href="#z30300d2"/></clipPath>
	<clipPath id="z30300c3"><use xlink:href="#z30300d3"/></clipPath>
	<clipPath id="z30300c4"><use xlink:href="#z30300d4"/></clipPath>
	<clipPath id="z30300c5"><use xlink:href="#z30300d5"/></clipPath>
	<clipPath id="z30300c6"><use xlink:href="#z30300d6"/></clipPath>
	<clipPath id="z30300c7"><use xlink:href="#z30300d7"/></clipPath>
	<clipPath id="z30300c8"><use xlink:href="#z30300d8"/></clipPath>
	<clipPath id="z30300c9"><use xlink:href="#z30300d9"/></clipPath>
	<clipPath id="z30300c10"><use xlink:href="#z30300d10"/></clipPath>
	<clipPath id="z30300c11"><use xlink:href="#z30300d11"/></clipPath>
	<clipPath id="z30300c12"><use xlink:href="#z30300d12"/></clipPath>
	<clipPath id="z30300c13"><use xlink:href="#z30300d13"/></clipPath>
	<clipPath id="z30300c14"><use xlink:href="#z30300d14"/></clipPath>
	<clipPath id="z30300c15"><use xlink:href="#z30300d15"/></clipPath>
	<clipPath id="z30300c16"><use xlink:href="#z30300d16"/></clipPath>
	<clipPath id="z30300c17"><use xlink:href="#z30300d17"/></clipPath>
	<clipPath id="z30300c18"><use xlink:href="#z30300d18"/></clipPath>
</defs>
<path style="--d:1s;" pathLength="3333" clip-path="url(#z30300c1)" d="M483 62L605 158"/>
<path style="--d:2s;" pathLength="3333" clip-path="url(#z30300c2)" d="M327 240L428 246L785 191"/>
<path style="--d:3s;" pathLength="3333" clip-path="url(#z30300c3)" d="M250 208L292 268L253 540L187 722L78 880"/>
<path style="--d:4s;" pathLength="3333" clip-path="url(#z30300c4)" d="M129 326L193 436"/>
<path style="--d:5s;" pathLength="3333" clip-path="url(#z30300c5)" d="M35 609L99 611L233 506"/>
<path style="--d:6s;" pathLength="3333" clip-path="url(#z30300c6)" d="M396 359L527 348L543 365L517 431"/>
<path style="--d:7s;" pathLength="3333" clip-path="url(#z30300c7)" d="M394 478L494 449L549 455"/>
<path style="--d:8s;" pathLength="3333" clip-path="url(#z30300c8)" d="M342 348L376 392L334 633L278 766L200 872"/>
<path style="--d:9s;" pathLength="3333" clip-path="url(#z30300c9)" d="M378 593L575 568"/>
<path style="--d:10s;" pathLength="3333" clip-path="url(#z30300c10)" d="M403 532L430 567L431 679"/>
<path style="--d:11s;" pathLength="3333" clip-path="url(#z30300c11)" d="M505 498L530 532L510 660"/>
<path style="--d:12s;" pathLength="3333" clip-path="url(#z30300c12)" d="M333 704L581 678"/>
<path style="--d:13s;" pathLength="3333" clip-path="url(#z30300c13)" d="M447 768L408 776L304 886"/>
<path style="--d:14s;" pathLength="3333" clip-path="url(#z30300c14)" d="M504 744L565 815"/>
<path style="--d:15s;" pathLength="3333" clip-path="url(#z30300c15)" d="M601 329L632 389L587 536"/>
<path style="--d:16s;" pathLength="3333" clip-path="url(#z30300c16)" d="M655 360L758 321L776 340L758 486L804 506L908 494"/>
<path style="--d:17s;" pathLength="3333" clip-path="url(#z30300c17)" d="M610 599L743 574L777 601L693 796L626 843L537 869"/>
<path style="--d:18s;" pathLength="3333" clip-path="url(#z30300c18)" d="M600 657L830 876L948 895"/>
</svg>