<!--
AnimCJK 2016-2019 Copyright Francois Mizessyn - https://github.com/parsimonhi/animCJK
Derived from:
    MakeMeAHanzi project - https://github.com/skishore/makemeahanzi
    Arphic PL KaitiM GB font
    Arphic PL UKai font
You can redistribute and/or modify this file under the terms of the Arphic Public License
as published by Arphic Technology Co., Ltd.
You should have received a copy of this license along with this file.
If not, see http://ftp.gnu.org/non-gnu/chinese-fonts-truetype/LICENSE.
-->
<svg id="z30302" class="acjk" version="1.1" viewBox="0 0 1024 1024" xmlns="http://www.w3.org/2000/svg" xmlns:xlink="http://www.w3.org/1999/xlink">
<style>
<![CDATA[
@keyframes zk {
	to {
		stroke-dashoffset:0;
	}
}
svg.acjk path[clip-path] {
	--t:0.8s;
	animation:zk var(--t) linear forwards var(--d);
	stroke-dasharray:3337;
	stroke-dashoffset:3339;
	stroke-width:128;
	stroke-linecap:round;
	fill:none;
	stroke:#000;
}
svg.acjk path[id] {fill:#ccc;}
]]>
</style>
<path id="z30302d1" d="M520 80Q548 98 578 120Q593 130 608 127Q618 126 621 112Q622 97 611 70Q596 43 508 35Q493 34 488 37Q484 41 487 53Q491 63 520 80Z"/>
<path id="z30302d2" d="M326 224Q356 239 400 233Q542 215 690 196Q757 186 769 178Q778 171 774 163Q768 151 742 143Q715 136 687 143Q516 191 323 195Q317 195 314 197C305 200 317 220 326 224Z"/>
<path id="z30302d3" d="M243 483Q210 649 94 835Q90 842 88 847Q85 857 95 855Q125 849 200 731Q216 703 231 671Q291 536 313 298Q317 232 326 224C331 216 321 204 314 197Q301 185 281 177Q263 167 251 172Q241 179 246 191Q264 215 264 275Q263 291 262 311Q258 384 249 450C245 472 245 472 243 483Z"/>
<path id="z30302d4" d="M123 342Q156 387 187 403Q200 406 208 395Q214 385 212 371Q202 329 139 313Q136 312 135 311Q122 307 113 309Q109 310 110 320Q111 330 123 342Z"/>
<path id="z30302d5" d="M249 450Q78 549 54 556Q44 560 44 569Q45 581 55 585Q77 594 109 602Q119 602 127 592Q145 565 236 489Q236 486 243 483C253 479 258 443 249 450Z"/>
<path id="z30302d6" d="M459 392Q486 385 515 379Q540 373 544 369Q550 363 546 357Q542 348 519 343Q504 340 464 353C435 362 435 362 421 366Q417 366 415 367Q381 374 341 380Q314 384 334 397Q358 412 421 400C446 395 446 395 459 392Z"/>
<path id="z30302d7" d="M334 481Q325 478 313 477Q304 474 302 478Q298 482 304 494Q323 533 335 596Q336 615 348 627Q361 643 365 632Q366 623 367 611C365 593 365 593 364 584Q354 523 354 505C354 495 344 483 334 481Z"/>
<path id="z30302d8" d="M536 565Q555 510 577 497Q590 484 579 470Q567 460 528 442Q513 436 456 458C433 464 433 464 422 467Q377 474 334 481C324 483 344 507 354 505Q363 504 372 501Q396 497 422 493C445 489 445 489 456 487Q469 483 487 481Q502 478 507 484Q513 488 512 500Q508 530 502 556C500 567 532 576 536 565Z"/>
<path id="z30302d9" d="M454 598Q488 592 542 588Q551 587 552 580Q552 576 536 565C526 559 514 554 502 556Q492 556 455 567C432 572 432 572 421 574Q390 580 364 584C355 585 358 611 367 611Q373 612 382 610Q395 606 417 604C442 600 442 600 454 598Z"/>
<path id="z30302d10" d="M453 657Q453 629 454 598C455 577 455 577 455 567Q455 530 456 487C456 468 456 468 456 458Q456 443 459 392C462 366 462 366 464 353Q465 334 472 319Q479 307 476 296Q472 289 428 262Q409 249 393 261Q389 265 394 277Q421 316 421 366C421 389 421 389 421 400Q421 431 422 467C422 484 422 484 422 493Q421 532 421 574C420 639 420 639 419 672Q419 762 399 832Q390 862 411 911Q415 924 422 927Q426 931 432 926Q439 922 447 906Q454 887 453 862Q452 837 453 678C453 664 453 664 453 657Z"/>
<path id="z30302d11" d="M417 604Q366 695 221 829Q215 836 225 839Q238 842 334 766Q377 730 419 672C447 625 442 555 417 604Z"/>
<path id="z30302d12" d="M453 678Q457 682 467 688Q533 733 536 733Q543 732 546 724Q547 714 541 696Q537 680 512 670Q470 657 453 657C446 657 447 674 453 678Z"/>
<path id="z30302d13" d="M686 321Q701 294 716 282Q723 275 720 265Q717 256 697 240Q678 227 665 227Q652 228 657 244Q667 265 629 335Q610 366 585 402Q578 409 576 414Q573 421 583 420Q602 417 671 340C681 327 681 327 686 321Z"/>
<path id="z30302d14" d="M705 462Q720 449 763 404Q797 365 831 345Q847 336 837 324Q827 314 794 294Q781 288 767 296Q760 299 708 315Q698 318 686 321C678 323 664 337 671 340Q683 346 735 339Q741 333 747 338Q751 341 746 349Q715 415 695 446Q688 458 687 464Q686 465 686 467C685 473 700 466 705 462Z"/>
<path id="z30302d15" d="M628 474Q616 467 603 463Q596 462 592 468Q591 472 595 480Q629 561 600 692Q591 701 596 727C597 728 597 728 597 729Q604 753 613 762Q620 772 628 762Q646 741 646 606Q646 522 650 501Q650 497 649 495C647 485 637 478 628 474Z"/>
<path id="z30302d16" d="M783 698Q777 717 788 735Q798 757 806 757Q818 756 831 730Q843 709 842 693Q823 537 853 491Q865 467 810 443Q803 439 796 436Q784 432 766 439Q738 452 705 462C692 465 692 465 686 467Q653 473 628 474C618 474 639 495 649 495Q656 495 664 494Q769 469 779 475Q786 491 789 537Q790 672 783 698Z"/>
<path id="z30302d17" d="M694 600Q703 783 639 849Q633 853 629 858Q604 880 550 909Q540 913 538 916Q534 920 546 922Q573 925 651 885Q738 831 738 627Q739 603 747 575Q751 566 744 560Q701 526 673 536Q658 543 671 555Q693 577 694 600Z"/>
<path id="z30302d18" d="M777 836Q816 875 856 920Q866 932 879 933Q888 934 893 923Q899 911 894 887Q890 845 778 796Q765 792 760 793Q756 796 756 807Q757 816 777 836Z"/>
<defs>
	<clipPath id="z30302c1"><use xlink:href="#z30302d1"/></clipPath>
	<clipPath id="z30302c2"><use xlink:href="#z30302d2"/></clipPath>
	<clipPath id="z30302c3"><use xlink:href="#z30302d3"/></clipPath>
	<clipPath id="z30302c4"><use xlink:href="#z30302d4"/></clipPath>
	<clipPath id="z30302c5"><use xlink:href="#z30302d5"/></clipPath>
	<clipPath id="z30302c6"><use xlink:href="#z30302d6"/></clipPath>
	<clipPath id="z30302c7"><use xlink:href="#z30302d7"/></clipPath>
	<clipPath id="z30302c8"><use xlink:href="#z30302d8"/></clipPath>
	<clipPath id="z30302c9"><use xlink:href="#z30302d9"/></clipPath>
	<clipPath id="z30302c10"><use xlink:href="#z30302d10"/></clipPath>
	<clipPath id="z30302c11"><use xlink:href="#z30302d11"/></clipPath>
	<clipPath id="z30302c12"><use xlink:href="#z30302d12"/></clipPath>
	<clipPath id="z30302c13"><use xlink:href="#z30302d13"/></clipPath>
	<clipPath id="z30302c14"><use xlink:href="#z30302d14"/></clipPath>
	<clipPath id="z30302c15"><use xlink:href="#z30302d15"/></clipPath>
	<clipPath id="z30302c16"><use xlink:href="#z30302d16"/></clipPath>
	<clipPath id="z30302c17"><use xlink:href="#z30302d17"/></clipPath>
	<clipPath id="z30302c18"><use xlink:href="#z30302d18"/></clipPath>
</defs>
<path style="--d:1s;" pathLength="3333" clip-path="url(#z30302c1)" d="M494 42L616 111"/>
<path style="--d:2s;" pathLength="3333" clip-path="url(#z30302c2)" d="M324 202L412 211L769 161"/>
<path style="--d:3s;" pathLength="3333" clip-path="url(#z30302c3)" d="M254 181L292 227L258 517L199 686L94 848"/>
<path style="--d:4s;" pathLength="3333" clip-path="url(#z30302c4)" d="M117 316L200 397"/>
<path style="--d:5s;" pathLength="3333" clip-path="url(#z30302c5)" d="M48 571L108 567L244 460"/>
<path style="--d:6s;" pathLength="3333" clip-path="url(#z30302c6)" d="M336 388L541 362"/>
<path style="--d:7s;" pathLength="3333" clip-path="url(#z30302c7)" d="M309 481L356 630"/>
<path style="--d:8s;" pathLength="3333" clip-path="url(#z30302c8)" d="M343 482L524 465L548 491L512 557"/>
<path style="--d:9s;" pathLength="3333" clip-path="url(#z30302c9)" d="M371 603L545 581"/>
<path style="--d:10s;" pathLength="3333" clip-path="url(#z30302c10)" d="M399 266L446 312L428 923"/>
<path style="--d:11s;" pathLength="3333" clip-path="url(#z30302c11)" d="M416 615L369 704L228 832"/>
<path style="--d:12s;" pathLength="3333" clip-path="url(#z30302c12)" d="M460 664L536 726"/>
<path style="--d:13s;" pathLength="3333" clip-path="url(#z30302c13)" d="M666 236L688 275L583 413"/>
<path style="--d:14s;" pathLength="3333" clip-path="url(#z30302c14)" d="M678 336L767 317L794 337L691 459"/>
<path style="--d:15s;" pathLength="3333" clip-path="url(#z30302c15)" d="M600 471L627 504L622 758"/>
<path style="--d:16s;" pathLength="3333" clip-path="url(#z30302c16)" d="M638 475L786 455L816 480L806 753"/>
<path style="--d:17s;" pathLength="3333" clip-path="url(#z30302c17)" d="M671 546L719 576L693 797L647 866L546 914"/>
<path style="--d:18s;" pathLength="3333" clip-path="url(#z30302c18)" d="M764 801L845 865L882 928"/>
</svg>