<!--
AnimCJK 2016-2017 Copyright Francois Mizessyn, https://github.com/parsimonhi/animCJK
Derived from:
    MakeMeAHanzi project - https://github.com/skishore/makemeahanzi
    Arphic PL KaitiM GB - https://apps.ubuntu.com/cat/applications/precise/fonts-arphic-gkai00mp/
    Arphic PL UKai - https://apps.ubuntu.com/cat/applications/fonts-arphic-ukai/
You can redistribute and/or modify this file under the terms of the Arphic Public License
as published by Arphic Technology Co., Ltd.
You should have received a copy of this license (the directory "APL") along with this file;
if not, see http://ftp.gnu.org/non-gnu/chinese-fonts-truetype/LICENSE.
-->
<svg id="z30307" class="acjk" version="1.1" viewBox="0 0 1024 1024" xmlns="http://www.w3.org/2000/svg" xmlns:xlink="http://www.w3.org/1999/xlink">
<style>
<![CDATA[
@keyframes z30307k {
	from {
		stroke:#c00;
		stroke-dashoffset:3334;
	}
	75% {
		stroke:#c00;
		stroke-dashoffset:0;
	}
	to {
		stroke:#000;
	}
}
#z30307 path[clip-path] {
	animation:z30307k 1s linear both;
	stroke-dasharray:3334;
	stroke-width:128;
	stroke-linecap:round;
	fill:none;
}
#z30307 path[clip-path="url(#z30307c1)"] {animation-delay:1s;}
#z30307 path[clip-path="url(#z30307c2)"] {animation-delay:2s;}
#z30307 path[clip-path="url(#z30307c3)"] {animation-delay:3s;}
#z30307 path[clip-path="url(#z30307c4)"] {animation-delay:4s;}
#z30307 path[clip-path="url(#z30307c5)"] {animation-delay:5s;}
#z30307 path[clip-path="url(#z30307c6)"] {animation-delay:6s;}
#z30307 path[clip-path="url(#z30307c7)"] {animation-delay:7s;}
#z30307 path[clip-path="url(#z30307c8)"] {animation-delay:8s;}
#z30307 path[clip-path="url(#z30307c9)"] {animation-delay:9s;}
#z30307 path[clip-path="url(#z30307c10)"] {animation-delay:10s;}
#z30307 path[clip-path="url(#z30307c11)"] {animation-delay:11s;}
#z30307 path[clip-path="url(#z30307c12)"] {animation-delay:12s;}
#z30307 path[clip-path="url(#z30307c13)"] {animation-delay:13s;}
#z30307 path[clip-path="url(#z30307c14)"] {animation-delay:14s;}
#z30307 path[clip-path="url(#z30307c15)"] {animation-delay:15s;}
#z30307 path[clip-path="url(#z30307c16)"] {animation-delay:16s;}
#z30307 path[clip-path="url(#z30307c17)"] {animation-delay:17s;}
#z30307 path[clip-path="url(#z30307c18)"] {animation-delay:18s;}
#z30307 path[clip-path="url(#z30307c19)"] {animation-delay:19s;}
#z30307 path {fill:#ccc;}
]]>
</style>
<path id="z30307d1" d="M521 103Q552 122 586 145Q602 155 616 152Q626 149 629 136Q630 121 618 95Q603 67 508 58Q493 57 487 61Q483 65 487 78Q491 88 521 103 Z"/>
<path id="z30307d2" d="M333 249Q360 258 396 253Q795 202 819 191Q819 190 821 190Q830 183 826 175Q820 163 794 155Q767 148 739 155Q532 212 319 215Q318 215 318 216L333 249 Z"/>
<path id="z30307d3" d="M245 541Q214 694 106 874Q102 880 99 886Q98 896 108 894Q135 888 209 775Q227 742 244 704Q311 536 324 291Q325 255 333 249L318 216Q276 183 252 192Q240 199 247 213Q266 240 267 299Q266 315 266 335Q263 467 251 507L245 541 Z"/>
<path id="z30307d4" d="M149 375Q167 397 186 423Q196 436 210 437Q219 438 225 427Q231 415 227 388Q226 372 202 356Q142 326 132 329Q128 332 127 343Q128 353 149 375 Z"/>
<path id="z30307d5" d="M251 507Q79 591 57 593Q45 597 45 606Q46 619 56 624Q78 634 111 646Q121 647 130 637Q157 603 245 541L251 507 Z"/>
<path id="z30307d6" d="M439 341Q445 332 470 302Q477 293 474 286Q471 277 452 274Q433 270 424 273Q418 274 418 284Q411 335 326 423Q313 435 331 430Q365 427 423 361L439 341 Z"/>
<path id="z30307d7" d="M493 449Q559 367 584 349Q597 342 588 332Q578 323 550 309Q546 308 473 330Q470 330 439 341L423 361Q442 361 504 348Q513 347 515 348Q518 351 514 359Q486 425 466 455L493 449 Z"/>
<path id="z30307d8" d="M351 480Q347 479 337 476Q327 473 324 477Q320 481 325 494Q349 549 360 638Q361 663 375 682Q388 700 393 688Q396 679 397 668L397 650Q382 542 379 503L351 480 Z"/>
<path id="z30307d9" d="M529 651Q542 667 554 673Q561 679 573 662Q583 641 602 533Q608 509 625 489Q635 479 626 468Q613 456 579 437Q564 431 508 445Q499 446 493 449L466 455Q355 476 351 480L379 503Q392 496 443 487L469 482Q538 464 551 476Q561 486 560 499Q547 613 534 626L529 651 Z"/>
<path id="z30307d10" d="M490 570Q509 566 526 563Q544 559 537 550Q522 532 491 537L453 546Q426 555 405 562Q392 566 408 577Q411 578 454 575L490 570 Z"/>
<path id="z30307d11" d="M487 627Q488 596 490 570L491 537Q491 533 492 530Q492 500 491 500Q479 488 469 482L443 487Q444 493 448 497Q449 503 453 546L454 575Q455 599 457 635L487 627 Z"/>
<path id="z30307d12" d="M397 668Q401 669 411 668Q475 658 529 651L534 626Q533 625 527 623Q512 620 487 627L457 635Q424 642 397 650L397 668 Z"/>
<path id="z30307d13" d="M289 782Q277 783 275 792Q274 805 282 812Q304 825 333 843Q343 846 354 838Q382 814 513 752Q532 743 545 732Q557 725 557 717Q553 713 541 714Q330 783 289 782 Z"/>
<path id="z30307d14" d="M641 329Q683 378 696 381Q705 381 709 371Q713 361 710 337Q707 322 686 310Q638 286 624 290Q620 291 620 302Q621 311 641 329 Z"/>
<path id="z30307d15" d="M788 279Q776 312 749 365Q745 372 751 377Q758 377 763 372Q823 308 853 282Q866 275 861 267Q854 254 834 243Q815 231 796 234Q783 237 788 253Q792 263 788 279 Z"/>
<path id="z30307d16" d="M737 454Q864 427 871 422Q878 415 875 407Q868 397 842 390Q814 384 787 396Q756 406 723 414Q687 421 644 426Q610 432 635 447Q663 462 696 460L737 454 Z"/>
<path id="z30307d17" d="M768 576Q780 572 851 563Q858 564 866 553Q867 544 848 536Q824 520 769 538L718 550Q702 553 688 555Q669 556 647 561Q623 565 642 578Q666 594 704 588Q710 587 719 586L768 576 Z"/>
<path id="z30307d18" d="M767 700Q807 694 923 694Q939 694 943 687Q947 678 934 667Q886 634 836 650Q806 656 767 664L719 672Q659 681 593 690Q577 691 589 706Q601 716 615 720Q631 724 644 720Q678 711 719 706L767 700 Z"/>
<path id="z30307d19" d="M724 939Q728 961 735 970Q739 976 747 973Q759 967 765 914Q766 895 767 700L767 664Q767 624 768 576L769 538Q770 531 771 526Q774 508 777 495Q780 479 767 471Q749 459 737 454L696 460Q695 463 707 484Q716 502 718 550L719 586Q719 625 719 672L719 706Q720 749 720 800Q720 903 724 939 Z"/>
<defs>
	<clipPath id="z30307c1"><use xlink:href="#z30307d1"/></clipPath>
	<clipPath id="z30307c2"><use xlink:href="#z30307d2"/></clipPath>
	<clipPath id="z30307c3"><use xlink:href="#z30307d3"/></clipPath>
	<clipPath id="z30307c4"><use xlink:href="#z30307d4"/></clipPath>
	<clipPath id="z30307c5"><use xlink:href="#z30307d5"/></clipPath>
	<clipPath id="z30307c6"><use xlink:href="#z30307d6"/></clipPath>
	<clipPath id="z30307c7"><use xlink:href="#z30307d7"/></clipPath>
	<clipPath id="z30307c8"><use xlink:href="#z30307d8"/></clipPath>
	<clipPath id="z30307c9"><use xlink:href="#z30307d9"/></clipPath>
	<clipPath id="z30307c10"><use xlink:href="#z30307d10"/></clipPath>
	<clipPath id="z30307c11"><use xlink:href="#z30307d11"/></clipPath>
	<clipPath id="z30307c12"><use xlink:href="#z30307d12"/></clipPath>
	<clipPath id="z30307c13"><use xlink:href="#z30307d13"/></clipPath>
	<clipPath id="z30307c14"><use xlink:href="#z30307d14"/></clipPath>
	<clipPath id="z30307c15"><use xlink:href="#z30307d15"/></clipPath>
	<clipPath id="z30307c16"><use xlink:href="#z30307d16"/></clipPath>
	<clipPath id="z30307c17"><use xlink:href="#z30307d17"/></clipPath>
	<clipPath id="z30307c18"><use xlink:href="#z30307d18"/></clipPath>
	<clipPath id="z30307c19"><use xlink:href="#z30307d19"/></clipPath>
</defs>
<path pathLength="3333" clip-path="url(#z30307c1)" d="M490 67L622 142"/>
<path pathLength="3333" clip-path="url(#z30307c2)" d="M328 221L381 234L822 176"/>
<path pathLength="3333" clip-path="url(#z30307c3)" d="M253 201L297 252L264 563L195 754L107 888"/>
<path pathLength="3333" clip-path="url(#z30307c4)" d="M135 335L198 391L211 433"/>
<path pathLength="3333" clip-path="url(#z30307c5)" d="M52 607L110 611L246 516"/>
<path pathLength="3333" clip-path="url(#z30307c6)" d="M470 289L435 302L330 425"/>
<path pathLength="3333" clip-path="url(#z30307c7)" d="M433 356L525 330L552 345L475 450"/>
<path pathLength="3333" clip-path="url(#z30307c8)" d="M330 479L357 514L384 686"/>
<path pathLength="3333" clip-path="url(#z30307c9)" d="M362 482L535 455L582 469L594 490L551 668"/>
<path pathLength="3333" clip-path="url(#z30307c10)" d="M411 569L533 553"/>
<path pathLength="3333" clip-path="url(#z30307c11)" d="M452 489L471 519L469 631"/>
<path pathLength="3333" clip-path="url(#z30307c12)" d="M401 660L529 637"/>
<path pathLength="3333" clip-path="url(#z30307c13)" d="M282 794L338 809L548 720"/>
<path pathLength="3333" clip-path="url(#z30307c14)" d="M627 297L704 372"/>
<path pathLength="3333" clip-path="url(#z30307c15)" d="M794 238L824 277L755 368"/>
<path pathLength="3333" clip-path="url(#z30307c16)" d="M634 435L872 414"/>
<path pathLength="3333" clip-path="url(#z30307c17)" d="M642 569L856 553"/>
<path pathLength="3333" clip-path="url(#z30307c18)" d="M592 698L875 669L939 681"/>
<path pathLength="3333" clip-path="url(#z30307c19)" d="M706 466L745 494L740 969"/>
</svg>