<!--
AnimCJK 2016-2025 Copyright FM-SH - https://github.com/parsimonhi/animCJK
Derived from:
    MakeMeAHanzi project - https://github.com/skishore/makemeahanzi
    Arphic PL KaitiM GB font
    Arphic PL UKai font
You can redistribute and/or modify this file under the terms of the Arphic Public License
as published by Arphic Technology Co., Ltd.
You should have received a copy of this license along with this file.
If not, see http://ftp.gnu.org/non-gnu/chinese-fonts-truetype/LICENSE.
-->
<svg id="z30315" class="acjk" version="1.1" viewBox="0 0 1024 1024" xmlns="http://www.w3.org/2000/svg" xmlns:xlink="http://www.w3.org/1999/xlink">
<style>
<![CDATA[
@keyframes zk {
	to {
		stroke-dashoffset:0;
	}
}
svg.acjk path[clip-path] {
	--t:0.8s;
	animation:zk var(--t) linear forwards var(--d);
	stroke-dasharray:3337;
	stroke-dashoffset:3339;
	stroke-width:128;
	stroke-linecap:round;
	fill:none;
	stroke:#000;
}
svg.acjk path[id] {fill:#ccc;}
]]>
</style>
<path id="z30315d1" d="M491 88C510 100 528 115 550 131C559 138 569 140 579 139C585 138 590 133 593 124C595 114 592 99 584 82C575 63 540 50 480 43C470 41 463 42 460 45C457 47 455 53 458 61C459 67 472 76 491 88Z"/>
<path id="z30315d2" d="M335 240C355 246 376 245 401 242C623 205 747 185 771 179C779 176 785 173 789 171C795 166 796 161 794 156C789 147 778 139 760 135C740 129 702 139 646 154C532 182 423 197 323 205C311 205 323 238 335 240Z"/>
<path id="z30315d3" d="M245 528C225 632 172 748 94 878C91 882 89 885 88 890C85 896 90 903 96 899C170 845 204 783 238 705C282 602 309 471 323 313C325 287 329 265 335 240C337 228 334 211 323 205C311 198 300 191 288 185C275 178 264 175 256 180C247 184 245 191 251 200C262 218 272 246 270 284C262 406 254 474 252 490C247 515 247 515 245 528Z"/>
<path id="z30315d4" d="M113 356Q164 434 188 437Q201 440 210 422Q213 409 206 388Q197 369 174 357Q137 335 121 330Q112 327 110 338Q107 347 113 356Z"/>
<path id="z30315d5" d="M252 490C130 562 59 599 41 604C32 606 29 611 30 618C30 626 34 633 42 636C58 642 78 648 102 654C108 655 115 651 121 644C139 620 180 581 245 528C255 520 262 482 252 490Z"/>
<path id="z30315d6" d="M478 367C540 353 572 344 575 343C580 338 580 333 578 329C574 322 564 317 549 314C529 309 510 318 487 325C458 333 458 333 443 337C415 344 385 346 362 350C343 352 339 360 354 368C385 384 413 380 441 375C466 370 466 370 478 367Z"/>
<path id="z30315d7" d="M465 432C469 409 473 387 478 367C484 339 484 339 487 325C488 317 491 306 498 294C500 289 497 282 488 276C474 266 462 261 452 258C445 255 440 256 436 260C432 262 431 267 435 274C441 286 444 307 443 337C442 362 442 362 441 375C439 395 438 417 436 440C436 450 463 442 465 432Z"/>
<path id="z30315d8" d="M396 447C389 441 382 436 375 433C370 430 365 430 361 433C356 435 354 439 357 444C364 460 368 475 369 490C369 504 369 569 369 686C369 697 402 692 402 681C402 667 403 654 403 642C403 630 403 630 403 624C404 599 404 599 404 586C404 575 404 575 404 570C404 555 405 542 406 530C407 518 407 518 407 512C407 498 409 484 411 471C413 462 404 453 396 447Z"/>
<path id="z30315d9" d="M550 654C552 542 558 479 569 467C574 460 574 452 568 445C563 440 549 432 528 418C522 414 503 421 465 432C446 437 446 437 436 440C423 443 410 445 396 447C387 449 402 475 411 471C431 460 461 454 499 451C517 449 513 458 513 472C514 501 515 562 515 656C515 668 550 666 550 654Z"/>
<path id="z30315d10" d="M406 530C430 526 454 522 480 519C488 517 492 512 489 508C485 502 476 499 466 498C449 495 429 500 407 512C401 514 400 531 406 530Z"/>
<path id="z30315d11" d="M404 586C408 586 433 582 480 575C488 573 492 568 489 564C485 558 476 555 466 554C453 551 432 557 404 570C399 572 399 586 404 586Z"/>
<path id="z30315d12" d="M403 642C431 638 458 631 484 627C492 625 496 620 493 616C489 610 480 607 470 606C455 603 433 610 403 624C397 626 397 643 403 642Z"/>
<path id="z30315d13" d="M369 686C361 687 331 690 280 696C263 697 260 702 274 713C294 728 311 732 326 730C403 714 487 701 576 692C582 691 589 690 593 682C595 675 587 669 575 663C560 656 552 653 550 654C527 655 527 655 515 656C493 661 418 678 402 681C380 684 380 684 369 686Z"/>
<path id="z30315d14" d="M360 761C355 788 324 831 264 886C254 894 254 896 269 895C303 890 342 862 390 815C409 796 409 796 418 787C423 781 425 775 424 770C422 763 413 758 400 754C385 749 374 747 368 749C364 749 361 753 360 761Z"/>
<path id="z30315d15" d="M494 790C523 825 540 846 548 848C552 849 557 845 561 839C565 832 565 821 564 805C562 794 556 783 542 775C508 755 487 748 480 750C477 750 475 754 475 762C475 768 482 776 494 790Z"/>
<path id="z30315d16" d="M738 304C764 298 798 290 841 287C847 286 854 284 858 276C860 269 850 265 838 257C820 246 786 249 729 264C680 275 648 279 611 286C594 289 592 295 606 305C625 319 643 324 659 321C672 318 687 313 702 311C726 306 726 306 738 304Z"/>
<path id="z30315d17" d="M705 415C720 388 735 361 752 339C757 331 759 327 756 322C752 316 747 310 738 304C728 298 702 299 702 311C705 335 693 367 678 422C676 431 701 423 705 415Z"/>
<path id="z30315d18" d="M646 427C636 420 625 414 614 411C609 409 605 411 602 416C599 418 601 422 605 428C625 466 629 534 614 630C607 672 602 686 604 698C605 715 613 726 620 734C625 740 630 739 636 733C649 717 657 662 657 566C657 506 658 467 662 451C664 442 654 433 646 427Z"/>
<path id="z30315d19" d="M802 675C798 687 800 699 807 711C815 726 821 733 826 733C833 731 841 723 850 706C857 691 861 678 860 668C842 551 842 477 863 445C873 428 862 412 829 396C821 392 812 388 804 385C795 382 783 381 772 389C751 403 724 410 705 415C687 420 687 420 678 422C666 425 655 424 646 427C637 429 653 453 662 451C666 451 688 446 728 436C762 426 784 421 790 428C798 439 802 463 804 496C808 595 806 655 802 675Z"/>
<path id="z30315d20" d="M707 560C709 621 714 781 635 844C618 857 594 876 559 896C552 899 548 901 546 903C543 905 546 908 555 910C576 913 611 901 658 873C717 837 747 755 751 630C752 583 757 552 765 534C767 527 766 522 762 518C751 509 737 500 717 493C705 488 694 486 686 490C675 494 674 501 683 511C697 526 706 543 707 560Z"/>
<path id="z30315d21" d="M788 794C814 828 844 868 876 917C884 930 892 939 901 943C905 944 910 943 917 938C925 931 927 914 925 886C922 858 878 818 793 766C787 762 783 763 782 771C780 778 782 787 788 794Z"/>
<defs>
	<clipPath id="z30315c1"><use xlink:href="#z30315d1"/></clipPath>
	<clipPath id="z30315c2"><use xlink:href="#z30315d2"/></clipPath>
	<clipPath id="z30315c3"><use xlink:href="#z30315d3"/></clipPath>
	<clipPath id="z30315c4"><use xlink:href="#z30315d4"/></clipPath>
	<clipPath id="z30315c5"><use xlink:href="#z30315d5"/></clipPath>
	<clipPath id="z30315c6"><use xlink:href="#z30315d6"/></clipPath>
	<clipPath id="z30315c7"><use xlink:href="#z30315d7"/></clipPath>
	<clipPath id="z30315c8"><use xlink:href="#z30315d8"/></clipPath>
	<clipPath id="z30315c9"><use xlink:href="#z30315d9"/></clipPath>
	<clipPath id="z30315c10"><use xlink:href="#z30315d10"/></clipPath>
	<clipPath id="z30315c11"><use xlink:href="#z30315d11"/></clipPath>
	<clipPath id="z30315c12"><use xlink:href="#z30315d12"/></clipPath>
	<clipPath id="z30315c13"><use xlink:href="#z30315d13"/></clipPath>
	<clipPath id="z30315c14"><use xlink:href="#z30315d14"/></clipPath>
	<clipPath id="z30315c15"><use xlink:href="#z30315d15"/></clipPath>
	<clipPath id="z30315c16"><use xlink:href="#z30315d16"/></clipPath>
	<clipPath id="z30315c17"><use xlink:href="#z30315d17"/></clipPath>
	<clipPath id="z30315c18"><use xlink:href="#z30315d18"/></clipPath>
	<clipPath id="z30315c19"><use xlink:href="#z30315d19"/></clipPath>
	<clipPath id="z30315c20"><use xlink:href="#z30315d20"/></clipPath>
	<clipPath id="z30315c21"><use xlink:href="#z30315d21"/></clipPath>
</defs>
<path style="--d:1s;" pathLength="3333" clip-path="url(#z30315c1)" d="M462 55L586 129"/>
<path style="--d:2s;" pathLength="3333" clip-path="url(#z30315c2)" d="M324 215L408 219L790 154"/>
<path style="--d:3s;" pathLength="3333" clip-path="url(#z30315c3)" d="M255 188L302 254L268 530L201 730L95 891"/>
<path style="--d:4s;" pathLength="3333" clip-path="url(#z30315c4)" d="M117 339L202 430"/>
<path style="--d:5s;" pathLength="3333" clip-path="url(#z30315c5)" d="M35 615L96 619L251 499"/>
<path style="--d:6s;" pathLength="3333" clip-path="url(#z30315c6)" d="M354 358L575 335"/>
<path style="--d:7s;" pathLength="3333" clip-path="url(#z30315c7)" d="M438 263L469 294L446 440"/>
<path style="--d:8s;" pathLength="3333" clip-path="url(#z30315c8)" d="M362 436L389 482L381 689"/>
<path style="--d:9s;" pathLength="3333" clip-path="url(#z30315c9)" d="M400 452L518 435L542 457L536 661"/>
<path style="--d:10s;" pathLength="3333" clip-path="url(#z30315c10)" d="M406 523L484 513"/>
<path style="--d:11s;" pathLength="3333" clip-path="url(#z30315c11)" d="M404 578L482 566"/>
<path style="--d:12s;" pathLength="3333" clip-path="url(#z30315c12)" d="M406 633L488 618"/>
<path style="--d:13s;" pathLength="3333" clip-path="url(#z30315c13)" d="M273 703L587 675"/>
<path style="--d:14s;" pathLength="3333" clip-path="url(#z30315c14)" d="M416 770L267 888"/>
<path style="--d:15s;" pathLength="3333" clip-path="url(#z30315c15)" d="M482 753L550 843"/>
<path style="--d:16s;" pathLength="3333" clip-path="url(#z30315c16)" d="M603 293L850 271"/>
<path style="--d:17s;" pathLength="3333" clip-path="url(#z30315c17)" d="M707 308L727 341L685 420"/>
<path style="--d:18s;" pathLength="3333" clip-path="url(#z30315c18)" d="M608 418L639 458L623 732"/>
<path style="--d:19s;" pathLength="3333" clip-path="url(#z30315c19)" d="M649 432L795 405L831 435L825 727"/>
<path style="--d:20s;" pathLength="3333" clip-path="url(#z30315c20)" d="M682 499L736 537L705 776L663 845L553 904"/>
<path style="--d:21s;" pathLength="3333" clip-path="url(#z30315c21)" d="M788 772L883 871L911 937"/>
</svg>