<!--
AnimCJK 2016-2018 Copyright Francois Mizessyn - https://github.com/parsimonhi/animCJK
Derived from:
    MakeMeAHanzi project - https://github.com/skishore/makemeahanzi
    Arphic PL KaitiM GB - https://apps.ubuntu.com/cat/applications/precise/fonts-arphic-gkai00mp/
    Arphic PL UKai - https://apps.ubuntu.com/cat/applications/fonts-arphic-ukai/
You can redistribute and/or modify this file under the terms of the Arphic Public License
as published by Arphic Technology Co., Ltd.
You should have received a copy of this license (the directory "APL") along with this file;
if not, see http://ftp.gnu.org/non-gnu/chinese-fonts-truetype/LICENSE.
-->
<svg id="z30344" class="acjk" version="1.1" viewBox="0 0 1024 1024" xmlns="http://www.w3.org/2000/svg" xmlns:xlink="http://www.w3.org/1999/xlink">
<style>
<![CDATA[
@keyframes z30344k {
	from {
		stroke:#ccc;
		stroke-dashoffset:3334;
	}
	1% {
		stroke:#c00;
		stroke-dashoffset:3334;
	}
	75% {
		stroke:#c00;
		stroke-dashoffset:0;
	}
	to {
		stroke:#000;
	}
}
#z30344 path[clip-path] {
	animation:z30344k 1s linear both;
	stroke-dasharray:3334;
	stroke-width:128;
	stroke-linecap:round;
	fill:none;
}
#z30344 path[clip-path="url(#z30344c1)"] {animation-delay:1s;}
#z30344 path[clip-path="url(#z30344c2)"] {animation-delay:2s;}
#z30344 path[clip-path="url(#z30344c3)"] {animation-delay:3s;}
#z30344 path[clip-path="url(#z30344c4)"] {animation-delay:4s;}
#z30344 path[clip-path="url(#z30344c5)"] {animation-delay:5s;}
#z30344 path[clip-path="url(#z30344c6)"] {animation-delay:6s;}
#z30344 path[clip-path="url(#z30344c7)"] {animation-delay:7s;}
#z30344 path[clip-path="url(#z30344c8)"] {animation-delay:8s;}
#z30344 path[clip-path="url(#z30344c9)"] {animation-delay:9s;}
#z30344 path {fill:#ccc;}
]]>
</style>
<path id="z30344d1" d="M188 381Q227 326 248 288Q300 197 323 175Q341 156 323 143Q302 130 270 126Q242 122 229 129Q216 136 226 148Q242 176 197 295Q179 340 160 388L188 381 Z"/>
<path id="z30344d2" d="M129 393Q110 377 87 372Q78 371 73 378Q70 382 77 392Q116 480 90 648Q75 705 79 724Q88 754 98 765Q108 777 117 764Q124 754 129 736L135 705Q138 681 139 571L139 538Q139 450 142 422L129 393 Z"/>
<path id="z30344d3" d="M272 721Q314 794 320 796Q330 796 340 774Q356 732 353 680Q347 440 355 409Q364 390 352 380Q345 370 310 353Q294 346 258 359Q227 371 191 380Q190 380 188 381L160 388Q144 389 129 393L142 422Q149 421 157 418Q268 379 288 397Q298 409 295 604Q295 671 288 686L272 721 Z"/>
<path id="z30344d4" d="M139 571Q203 559 251 551Q276 545 266 532Q253 517 226 515Q190 512 139 538L139 571 Z"/>
<path id="z30344d5" d="M129 736Q208 726 272 721L288 686Q285 685 280 683Q253 677 135 705L129 736 Z"/>
<path id="z30344d6" d="M525 325Q589 298 694 244Q718 231 745 225Q770 218 762 197Q752 176 726 156Q704 137 689 137Q676 136 677 151Q677 179 566 269Q542 285 519 306L525 325 Z"/>
<path id="z30344d7" d="M510 462Q516 348 525 325L519 306Q503 291 476 281Q457 272 446 277Q434 284 441 297Q459 318 460 386Q460 551 427 663Q397 763 333 866Q329 873 327 879Q326 889 335 887Q365 881 432 765Q442 744 453 721Q486 639 497 560L499 552Q503 519 508 487L510 462 Z"/>
<path id="z30344d8" d="M677 703Q678 699 683 693Q723 617 759 495Q769 465 787 445Q805 429 790 416Q777 404 744 396Q720 390 694 407Q619 441 510 462L508 487Q544 494 587 479Q663 449 679 449Q704 450 699 478Q678 601 640 664L618 700Q549 788 435 832Q422 838 434 844Q440 851 482 847Q567 838 649 742L677 703 Z"/>
<path id="z30344d9" d="M649 742Q751 883 795 887Q880 896 949 892Q986 891 983 881Q983 877 949 862Q895 838 818 808Q746 772 677 703L640 664Q610 631 582 595Q551 555 517 552Q504 549 499 552L497 560Q498 564 508 572Q553 606 618 700L649 742 Z"/>
<defs>
	<clipPath id="z30344c1"><use xlink:href="#z30344d1"/></clipPath>
	<clipPath id="z30344c2"><use xlink:href="#z30344d2"/></clipPath>
	<clipPath id="z30344c3"><use xlink:href="#z30344d3"/></clipPath>
	<clipPath id="z30344c4"><use xlink:href="#z30344d4"/></clipPath>
	<clipPath id="z30344c5"><use xlink:href="#z30344d5"/></clipPath>
	<clipPath id="z30344c6"><use xlink:href="#z30344d6"/></clipPath>
	<clipPath id="z30344c7"><use xlink:href="#z30344d7"/></clipPath>
	<clipPath id="z30344c8"><use xlink:href="#z30344d8"/></clipPath>
	<clipPath id="z30344c9"><use xlink:href="#z30344d9"/></clipPath>
</defs>
<path pathLength="3333" clip-path="url(#z30344c1)" d="M228 136L280 172L166 380"/>
<path pathLength="3333" clip-path="url(#z30344c2)" d="M78 380L117 434L104 766"/>
<path pathLength="3333" clip-path="url(#z30344c3)" d="M136 396L288 371L325 402L320 789"/>
<path pathLength="3333" clip-path="url(#z30344c4)" d="M143 563L264 533"/>
<path pathLength="3333" clip-path="url(#z30344c5)" d="M139 727L282 693"/>
<path pathLength="3333" clip-path="url(#z30344c6)" d="M687 145L706 203L527 315"/>
<path pathLength="3333" clip-path="url(#z30344c7)" d="M447 286L490 328L466 599L415 754L335 881"/>
<path pathLength="3333" clip-path="url(#z30344c8)" d="M511 481L710 425L748 445L635 719L533 808L436 837"/>
<path pathLength="3333" clip-path="url(#z30344c9)" d="M503 557L778 833L975 883"/>
</svg>