<!--
AnimCJK 2016-2026 Copyright FM-SH, https://github.com/parsimonhi/animCJK
Derived from:
    MakeMeAHanzi project - https://github.com/skishore/makemeahanzi
    Arphic PL KaitiM GB font
    Arphic PL KaitiM Big5 font
You can redistribute and/or modify this file under the terms of the Arphic Public License
as published by Arphic Technology Co., Ltd.
You should have received a copy of this license along with this file.
If not, see https://ftp.gnu.org/non-gnu/chinese-fonts-truetype/LICENSE.
-->
<svg id="z30341" class="acjk" viewBox="0 0 1024 1024" xmlns="http://www.w3.org/2000/svg">
<style>
<![CDATA[
@keyframes zk {
	to {
		stroke-dashoffset:0;
	}
}
svg.acjk path[clip-path] {
	--t:0.8s;
	animation:zk var(--t) linear forwards var(--d);
	stroke-dasharray:3337;
	stroke-dashoffset:3339;
	stroke-width:128;
	stroke-linecap:round;
	fill:none;
	stroke:#000;
}
svg.acjk path[id] {fill:#ccc;}
]]>
</style>
<path id="z30341d1" d="M165 401C243 308 300 239 313 228C341 207 304 189 277 181C244 171 230 179 237 194C245 213 208 294 145 398C142 404 161 406 165 401Z"/>
<path id="z30341d2" d="M145 398C99 365 80 372 92 394C118 442 128 565 124 682C123 715 128 741 142 760C167 793 173 773 178 748C181 737 179 726 178 715C177 683 171 606 170 580C169 560 169 560 169 550C167 487 170 448 170 430C170 416 156 406 145 398Z"/>
<path id="z30341d3" d="M308 731C306 764 342 840 365 777C381 734 387 686 386 632C386 593 387 521 388 481C390 455 397 433 409 416C418 404 420 395 413 388C400 377 381 366 355 355C344 350 330 350 313 358C271 376 209 392 165 401C130 408 137 443 170 430C175 427 234 416 305 399C329 393 332 423 335 439C340 474 336 567 334 638C333 664 331 687 321 707C318 715 308 722 308 731Z"/>
<path id="z30341d4" d="M170 580C206 574 258 567 284 562C320 554 292 531 260 528C233 526 189 536 169 550C160 555 160 582 170 580Z"/>
<path id="z30341d5" d="M178 748C187 744 254 736 308 731C317 731 327 713 321 707C304 689 276 687 178 715C167 717 167 750 178 748Z"/>
<path id="z30341d6" d="M793 423C810 368 832 318 853 303C867 293 868 274 856 265C792 215 774 211 729 230C679 250 588 266 513 276C501 278 513 311 525 309C539 308 571 300 613 294C643 289 643 289 658 286C714 277 747 269 755 278C764 288 758 349 738 420C732 437 789 441 793 423Z"/>
<path id="z30341d7" d="M613 294C614 294 613 359 610 447C610 460 645 452 647 440C670 323 685 316 658 286C647 275 613 279 613 294Z"/>
<path id="z30341d8" d="M511 496C529 501 556 483 806 460C820 458 841 456 793 423C779 412 756 417 738 420C706 427 676 434 647 440C622 445 622 445 610 447C574 454 542 457 512 463C501 465 500 494 511 496Z"/>
<path id="z30341d9" d="M959 743C948 723 933 683 923 619C919 596 911 581 903 612C884 680 869 723 854 743C843 759 823 775 801 781C674 817 553 790 527 737C511 704 509 573 511 496C512 474 512 474 512 463C514 420 517 356 525 309C527 298 521 284 513 276C478 246 436 243 450 281C461 310 468 375 466 418C459 647 465 755 501 798C527 829 555 844 598 853C673 868 844 864 951 789C966 779 969 763 959 743Z"/>
<defs>
	<clipPath id="z30341c1"><use href="#z30341d1"/></clipPath>
	<clipPath id="z30341c2"><use href="#z30341d2"/></clipPath>
	<clipPath id="z30341c3"><use href="#z30341d3"/></clipPath>
	<clipPath id="z30341c4"><use href="#z30341d4"/></clipPath>
	<clipPath id="z30341c5"><use href="#z30341d5"/></clipPath>
	<clipPath id="z30341c6"><use href="#z30341d6"/></clipPath>
	<clipPath id="z30341c7"><use href="#z30341d7"/></clipPath>
	<clipPath id="z30341c8"><use href="#z30341d8"/></clipPath>
	<clipPath id="z30341c9"><use href="#z30341d9"/></clipPath>
</defs>
<path style="--d:1s;" pathLength="3333" clip-path="url(#z30341c1)" d="M245 185L275 226L155 399"/>
<path style="--d:2s;" pathLength="3333" clip-path="url(#z30341c2)" d="M95 380L139 440L158 773"/>
<path style="--d:3s;" pathLength="3333" clip-path="url(#z30341c3)" d="M146 420L325 376L373 408L336 796"/>
<path style="--d:4s;" pathLength="3333" clip-path="url(#z30341c4)" d="M166 569L296 548"/>
<path style="--d:5s;" pathLength="3333" clip-path="url(#z30341c5)" d="M175 737L317 715"/>
<path style="--d:6s;" pathLength="3333" clip-path="url(#z30341c6)" d="M513 286L774 250L812 292L755 432"/>
<path style="--d:7s;" pathLength="3333" clip-path="url(#z30341c7)" d="M622 290L643 330L626 450"/>
<path style="--d:8s;" pathLength="3333" clip-path="url(#z30341c8)" d="M505 481L817 447"/>
<path style="--d:9s;" pathLength="3333" clip-path="url(#z30341c9)" d="M453 258L490 300L494 706L543 797L703 828L854 796L915 750L911 602"/>
</svg>