<!--
AnimCJK 2016-2018 Copyright Francois Mizessyn, http://gooo.free.fr/animCJK/
Derived from:
    MakeMeAHanzi project - https://github.com/skishore/makemeahanzi
    Arphic PL KaitiM GB - https://apps.ubuntu.com/cat/applications/precise/fonts-arphic-gkai00mp/
    Arphic PL UKai - https://apps.ubuntu.com/cat/applications/fonts-arphic-ukai/
You can redistribute and/or modify this file under the terms of the Arphic Public License
as published by Arphic Technology Co., Ltd.
You should have received a copy of this license (the directory "APL") along with this file;
if not, see http://ftp.gnu.org/non-gnu/chinese-fonts-truetype/LICENSE.
-->
<svg id="z30424" class="acjk" version="1.1" viewBox="0 0 1024 1024" xmlns="http://www.w3.org/2000/svg" xmlns:xlink="http://www.w3.org/1999/xlink">
<style>
<![CDATA[
@keyframes z30424k {
	from {
		stroke:#ccc;
		stroke-dashoffset:3334;
	}
	1% {
		stroke:#c00;
		stroke-dashoffset:3334;
	}
	75% {
		stroke:#c00;
		stroke-dashoffset:0;
	}
	to {
		stroke:#000;
	}
}
#z30424 path[clip-path] {
	animation:z30424k 1s linear both;
	stroke-dasharray:3334;
	stroke-width:128;
	stroke-linecap:round;
	fill:none;
}
#z30424 path[clip-path="url(#z30424c1)"] {animation-delay:1s;}
#z30424 path[clip-path="url(#z30424c2)"] {animation-delay:2s;}
#z30424 path[clip-path="url(#z30424c3)"] {animation-delay:3s;}
#z30424 path[clip-path="url(#z30424c4)"] {animation-delay:4s;}
#z30424 path[clip-path="url(#z30424c5)"] {animation-delay:5s;}
#z30424 path[clip-path="url(#z30424c6)"] {animation-delay:6s;}
#z30424 path[clip-path="url(#z30424c7)"] {animation-delay:7s;}
#z30424 path[clip-path="url(#z30424c8)"] {animation-delay:8s;}
#z30424 path[clip-path="url(#z30424c9)"] {animation-delay:9s;}
#z30424 path[clip-path="url(#z30424c10)"] {animation-delay:10s;}
#z30424 path[clip-path="url(#z30424c11)"] {animation-delay:11s;}
#z30424 path {fill:#ccc;}
]]>
</style>
<path id="z30424d1" d="M420 197Q474 143 530 107Q534 104 539 102Q558 92 546 75Q533 60 506 50Q482 40 471 43Q459 46 464 58Q470 80 397 191L420 197 Z"/>
<path id="z30424d2" d="M397 191Q390 185 377 181Q361 174 349 178Q339 185 345 196Q361 223 358 339L355 370Q340 460 293 556Q289 562 287 568Q286 578 295 575Q322 568 367 485Q370 476 375 468Q396 417 405 364L410 334Q410 238 423 225L397 191 Z"/>
<path id="z30424d3" d="M607 351Q608 481 595 503Q591 509 571 504Q549 500 526 494Q507 487 508 496Q557 542 584 576Q597 595 611 600Q620 604 628 595Q665 550 667 490Q661 430 658 350L657 308Q657 245 672 219Q684 200 673 190Q654 172 618 157Q602 150 586 156Q517 189 420 197L397 191L423 225Q430 224 439 222Q508 212 575 199Q594 195 599 205Q605 220 606 314L607 351 Z"/>
<path id="z30424d4" d="M453 266Q504 314 525 312Q535 312 539 296Q539 286 529 270Q514 249 454 243Q447 243 446 252Q446 259 453 266 Z"/>
<path id="z30424d5" d="M405 364Q495 352 607 351L658 350Q748 347 853 354Q872 355 878 347Q882 335 868 321Q811 279 760 293Q715 299 657 308L606 314Q555 318 501 325Q456 329 410 334L358 339Q261 346 157 355Q136 356 151 374Q164 387 181 393Q200 399 217 395Q281 379 355 370L405 364 Z"/>
<path id="z30424d6" d="M461 416Q483 434 509 455Q519 464 531 462Q538 461 542 452Q543 440 537 419Q528 398 456 381Q444 380 440 382Q436 385 438 394Q441 401 461 416 Z"/>
<path id="z30424d7" d="M301 642Q291 635 256 633Q244 630 241 635Q235 642 244 657Q272 703 292 780Q295 799 307 813L337 811Q338 795 333 772Q320 708 315 679L301 642 Z"/>
<path id="z30424d8" d="M735 774Q763 696 787 665Q799 655 794 643Q788 627 729 596Q713 586 699 591Q519 622 301 642L315 679Q333 673 411 662L438 657Q492 648 549 644L592 636Q673 624 695 636Q702 640 700 656Q691 708 673 782L735 774 Z"/>
<path id="z30424d9" d="M456 802Q463 775 445 679Q444 678 444 675Q443 665 438 657L411 662Q414 687 415 752Q418 782 439 804L456 802 Z"/>
<path id="z30424d10" d="M560 793Q576 769 600 709Q604 696 616 677Q626 665 618 657Q609 647 592 636L549 644Q562 668 542 768Q538 783 538 795L560 793 Z"/>
<path id="z30424d11" d="M307 813Q243 816 174 822Q152 823 167 841Q182 857 200 863Q221 870 238 866Q484 815 863 837Q884 838 889 829Q896 817 879 802Q821 756 764 770Q749 771 735 774L673 782Q621 786 560 793L538 795Q525 795 512 797Q484 798 456 802L439 804Q390 807 337 811L307 813 Z"/>
<defs>
	<clipPath id="z30424c1"><use xlink:href="#z30424d1"/></clipPath>
	<clipPath id="z30424c2"><use xlink:href="#z30424d2"/></clipPath>
	<clipPath id="z30424c3"><use xlink:href="#z30424d3"/></clipPath>
	<clipPath id="z30424c4"><use xlink:href="#z30424d4"/></clipPath>
	<clipPath id="z30424c5"><use xlink:href="#z30424d5"/></clipPath>
	<clipPath id="z30424c6"><use xlink:href="#z30424d6"/></clipPath>
	<clipPath id="z30424c7"><use xlink:href="#z30424d7"/></clipPath>
	<clipPath id="z30424c8"><use xlink:href="#z30424d8"/></clipPath>
	<clipPath id="z30424c9"><use xlink:href="#z30424d9"/></clipPath>
	<clipPath id="z30424c10"><use xlink:href="#z30424d10"/></clipPath>
	<clipPath id="z30424c11"><use xlink:href="#z30424d11"/></clipPath>
</defs>
<path pathLength="3333" clip-path="url(#z30424c1)" d="M472 54L501 95L407 189"/>
<path pathLength="3333" clip-path="url(#z30424c2)" d="M353 185L388 230L379 373L295 571"/>
<path pathLength="3333" clip-path="url(#z30424c3)" d="M406 197L444 208L596 175L638 204L624 529L598 553L517 495"/>
<path pathLength="3333" clip-path="url(#z30424c4)" d="M453 251L528 306"/>
<path pathLength="3333" clip-path="url(#z30424c5)" d="M153 363L765 320L874 338"/>
<path pathLength="3333" clip-path="url(#z30424c6)" d="M444 390L530 458"/>
<path pathLength="3333" clip-path="url(#z30424c7)" d="M246 640L279 661L319 810"/>
<path pathLength="3333" clip-path="url(#z30424c8)" d="M310 645L336 658L707 614L746 658L707 766L680 775"/>
<path pathLength="3333" clip-path="url(#z30424c9)" d="M435 663L445 798"/>
<path pathLength="3333" clip-path="url(#z30424c10)" d="M557 645L587 675L548 789"/>
<path pathLength="3333" clip-path="url(#z30424c11)" d="M167 830L219 843L786 800L886 813"/>
</svg>