<!--
AnimCJK 2016-2018 Copyright Francois Mizessyn - https://github.com/parsimonhi/animCJK
Derived from:
    MakeMeAHanzi project - https://github.com/skishore/makemeahanzi
    Arphic PL KaitiM GB - https://apps.ubuntu.com/cat/applications/precise/fonts-arphic-gkai00mp/
    Arphic PL UKai - https://apps.ubuntu.com/cat/applications/fonts-arphic-ukai/
You can redistribute and/or modify this file under the terms of the Arphic Public License
as published by Arphic Technology Co., Ltd.
You should have received a copy of this license (the directory "APL") along with this file;
if not, see http://ftp.gnu.org/non-gnu/chinese-fonts-truetype/LICENSE.
-->
<svg id="z30438" class="acjk" version="1.1" viewBox="0 0 1024 1024" xmlns="http://www.w3.org/2000/svg" xmlns:xlink="http://www.w3.org/1999/xlink">
<style>
<![CDATA[
@keyframes z30438k {
	from {
		stroke:#c00;
		stroke-dashoffset:3334;
	}
	75% {
		stroke:#c00;
		stroke-dashoffset:0;
	}
	to {
		stroke:#000;
	}
}
#z30438 path[clip-path] {
	animation:z30438k 1s linear both;
	stroke-dasharray:3334;
	stroke-width:128;
	stroke-linecap:round;
	fill:none;
}
#z30438 path[clip-path="url(#z30438c1)"] {animation-delay:1s;}
#z30438 path[clip-path="url(#z30438c2)"] {animation-delay:2s;}
#z30438 path[clip-path="url(#z30438c3)"] {animation-delay:3s;}
#z30438 path[clip-path="url(#z30438c4)"] {animation-delay:4s;}
#z30438 path[clip-path="url(#z30438c5)"] {animation-delay:5s;}
#z30438 path[clip-path="url(#z30438c6)"] {animation-delay:6s;}
#z30438 path[clip-path="url(#z30438c7)"] {animation-delay:7s;}
#z30438 path[clip-path="url(#z30438c8)"] {animation-delay:8s;}
#z30438 path[clip-path="url(#z30438c9)"] {animation-delay:9s;}
#z30438 path[clip-path="url(#z30438c10)"] {animation-delay:10s;}
#z30438 path[clip-path="url(#z30438c11)"] {animation-delay:11s;}
#z30438 path[clip-path="url(#z30438c12)"] {animation-delay:12s;}
#z30438 path[clip-path="url(#z30438c13)"] {animation-delay:13s;}
#z30438 path[clip-path="url(#z30438c14)"] {animation-delay:14s;}
#z30438 path[clip-path="url(#z30438c15)"] {animation-delay:15s;}
#z30438 path[clip-path="url(#z30438c16)"] {animation-delay:16s;}
#z30438 path {fill:#ccc;}
]]>
</style>
<path id="z30438d1" d="M89 447C87 446 87 445 87 444C87 443 103 432 123 419C224 353 266 320 306 284C352 239 384 203 408 169C430 134 441 107 444 76C444 69 445 63 446 62C449 56 464 57 485 68C496 73 501 77 508 84C524 99 528 122 516 129C514 130 506 135 506 137L492 154C489 157 464 184 455 195L442 210C389 271 339 311 314 334C268 373 183 423 137 439C116 445 92 449 89 447 Z"/>
<path id="z30438d2" d="M506 137L521 147C529 152 543 164 554 172C564 180 579 190 588 196C634 227 728 276 757 286C788 295 862 318 923 335C952 343 959 345 962 350C964 356 961 358 935 365C882 379 836 386 799 386C780 386 773 384 753 374C704 349 633 292 520 182C510 172 501 163 492 154 Z"/>
<path id="z30438d3" d="M455 195C476 199 495 207 506 215C514 220 518 234 519 243C519 249 518 250 516 255C506 267 495 261 462 230C455 224 448 216 442 210 Z"/>
<path id="z30438d4" d="M495 396L500 388C508 375 527 342 537 328C546 312 547 308 543 303C537 297 527 297 501 307C483 312 459 321 437 332C417 340 411 343 403 342C389 340 368 325 367 316C366 311 366 307 370 306C371 305 384 304 398 304C419 303 423 302 434 300C445 296 518 272 536 266C552 260 558 260 572 267C593 277 615 292 619 300C621 304 620 309 619 313C617 314 612 318 607 321C589 329 563 349 531 378C523 385 517 392 517 392 Z"/>
<path id="z30438d5" d="M636 367C631 367 617 368 601 373C586 376 529 389 517 392L495 396C462 401 433 404 357 414C324 417 296 421 295 422C289 425 291 433 301 439C310 445 323 450 345 451C359 451 395 444 412 442L435 438C449 435 475 430 490 428L516 424C562 416 609 411 656 406C677 403 682 403 687 398C689 396 688 394 688 392C683 381 654 367 636 367 Z"/>
<path id="z30438d6" d="M335 500C325 492 308 486 300 488C293 490 292 493 297 508C305 535 308 555 308 589C308 611 307 628 304 652C300 676 303 695 313 711C320 721 326 726 330 724C335 719 340 714 344 705L344 680C344 666 344 652 345 639C345 617 346 584 346 566C346 555 346 544 346 534 Z"/>
<path id="z30438d7" d="M616 457C598 459 562 468 542 473L504 482C492 484 466 487 454 490L419 496C397 499 354 502 354 502C347 502 341 500 335 500L346 534C369 530 393 529 416 524L448 517C462 513 493 507 503 506L534 501C552 498 570 496 589 494C603 492 608 497 614 505C620 513 621 522 621 579C621 625 620 642 618 653L616 683C620 693 624 698 630 704L652 699C657 692 660 689 666 681C674 661 673 647 673 606C673 557 676 535 687 519C690 513 691 511 691 507C691 501 690 500 685 495C675 487 638 453 616 457 Z"/>
<path id="z30438d8" d="M412 442C417 454 418 485 419 496L416 524C414 535 412 544 407 554C400 569 392 580 379 595C372 602 367 608 367 609C367 613 380 612 390 607C397 603 412 591 418 583C431 568 441 546 448 517L454 490C456 479 456 468 457 458C457 452 445 441 435 438 Z"/>
<path id="z30438d9" d="M487 428C493 437 504 469 504 482L503 506C501 537 508 568 512 577C516 586 521 587 535 590C548 591 583 588 591 585C603 578 608 565 599 563C596 562 584 561 570 561C552 559 543 558 540 557C536 554 531 549 531 541C530 535 530 511 534 501L542 473C548 451 549 437 538 432C531 428 523 426 516 424 Z"/>
<path id="z30438d10" d="M396 643C384 639 376 632 393 628C397 626 498 605 521 605C536 604 546 612 551 620C555 629 551 630 525 633C515 633 486 637 462 640C412 645 402 645 396 643 Z"/>
<path id="z30438d11" d="M618 653C610 652 600 650 586 652C555 654 468 666 389 675C374 676 359 678 344 680L344 705C363 704 383 703 403 702C464 698 602 683 616 683 Z"/>
<path id="z30438d12" d="M251 740C247 740 245 740 244 741C242 741 240 744 240 746C237 751 239 757 247 770C261 793 294 876 301 891L330 889C327 868 324 846 321 826C319 812 317 799 315 786L297 748C283 744 265 739 251 740 Z"/>
<path id="z30438d13" d="M652 699L630 704C617 706 603 708 590 710C526 720 362 746 336 748C323 749 310 748 297 748L315 786C331 781 379 774 399 770L418 766C448 759 479 753 511 749L550 743C602 735 648 731 659 738C663 740 665 746 664 755C663 761 649 817 635 861L695 855C700 844 703 831 710 818C721 793 734 776 742 767C750 758 752 750 748 743C744 735 727 723 703 710C686 700 677 693 652 699 Z"/>
<path id="z30438d14" d="M397 769C398 769 398 770 399 770C399 780 399 790 401 800C404 828 410 857 416 882L446 880C444 847 441 823 433 797C429 786 423 776 418 766 Z"/>
<path id="z30438d15" d="M511 749C512 760 515 769 516 783C516 805 514 840 509 874L534 872C542 855 551 835 559 817C564 805 571 791 574 786C582 773 581 770 574 762C567 754 560 749 550 743 Z"/>
<path id="z30438d16" d="M635 861C601 864 555 870 534 872L509 874C488 875 463 878 446 880L416 882C387 883 347 887 330 889L301 891C291 891 282 892 273 893C217 895 139 903 136 905C124 912 151 936 178 943C192 946 191 947 243 937C397 905 594 896 835 909C857 910 875 910 875 897C875 885 857 869 830 856C803 843 774 840 740 847C732 848 710 853 695 855 Z"/>
<defs>
	<clipPath id="z30438c1"><use xlink:href="#z30438d1"/></clipPath>
	<clipPath id="z30438c2"><use xlink:href="#z30438d2"/></clipPath>
	<clipPath id="z30438c3"><use xlink:href="#z30438d3"/></clipPath>
	<clipPath id="z30438c4"><use xlink:href="#z30438d4"/></clipPath>
	<clipPath id="z30438c5"><use xlink:href="#z30438d5"/></clipPath>
	<clipPath id="z30438c6"><use xlink:href="#z30438d6"/></clipPath>
	<clipPath id="z30438c7"><use xlink:href="#z30438d7"/></clipPath>
	<clipPath id="z30438c8"><use xlink:href="#z30438d8"/></clipPath>
	<clipPath id="z30438c9"><use xlink:href="#z30438d9"/></clipPath>
	<clipPath id="z30438c10"><use xlink:href="#z30438d10"/></clipPath>
	<clipPath id="z30438c11"><use xlink:href="#z30438d11"/></clipPath>
	<clipPath id="z30438c12"><use xlink:href="#z30438d12"/></clipPath>
	<clipPath id="z30438c13"><use xlink:href="#z30438d13"/></clipPath>
	<clipPath id="z30438c14"><use xlink:href="#z30438d14"/></clipPath>
	<clipPath id="z30438c15"><use xlink:href="#z30438d15"/></clipPath>
	<clipPath id="z30438c16"><use xlink:href="#z30438d16"/></clipPath>
</defs>
<path pathLength="3333" clip-path="url(#z30438c1)" d="M450 66L484 103L360 258L227 378L101 443"/>
<path pathLength="3333" clip-path="url(#z30438c2)" d="M505 150L754 331L954 353"/>
<path pathLength="3333" clip-path="url(#z30438c3)" d="M451 214L509 253"/>
<path pathLength="3333" clip-path="url(#z30438c4)" d="M375 317L416 324L552 281L585 303L508 387"/>
<path pathLength="3333" clip-path="url(#z30438c5)" d="M298 425L351 431L635 389L674 396"/>
<path pathLength="3333" clip-path="url(#z30438c6)" d="M301 494L326 524L331 721"/>
<path pathLength="3333" clip-path="url(#z30438c7)" d="M348 513L606 480L660 508L633 692"/>
<path pathLength="3333" clip-path="url(#z30438c8)" d="M418 446L438 466L424 560L376 606"/>
<path pathLength="3333" clip-path="url(#z30438c9)" d="M497 436L527 453L521 573L594 572"/>
<path pathLength="3333" clip-path="url(#z30438c10)" d="M411 628L537 616"/>
<path pathLength="3333" clip-path="url(#z30438c11)" d="M352 686L610 677"/>
<path pathLength="3333" clip-path="url(#z30438c12)" d="M246 747L286 771L306 887"/>
<path pathLength="3333" clip-path="url(#z30438c13)" d="M314 760L673 717L705 759L648 846"/>
<path pathLength="3333" clip-path="url(#z30438c14)" d="M405 775L437 870"/>
<path pathLength="3333" clip-path="url(#z30438c15)" d="M519 755L549 780L519 862"/>
<path pathLength="3333" clip-path="url(#z30438c16)" d="M139 911L192 924L782 871L868 902"/>
</svg>