<!--
AnimCJK 2016-2019 Copyright Francois Mizessyn - https://github.com/parsimonhi/animCJK
Derived from:
    MakeMeAHanzi project - https://github.com/skishore/makemeahanzi
    Arphic PL KaitiM GB font
    Arphic PL UKai font
You can redistribute and/or modify this file under the terms of the Arphic Public License
as published by Arphic Technology Co., Ltd.
You should have received a copy of this license along with this file.
If not, see http://ftp.gnu.org/non-gnu/chinese-fonts-truetype/LICENSE.
-->
<svg id="z30449" class="acjk" version="1.1" viewBox="0 0 1024 1024" xmlns="http://www.w3.org/2000/svg" xmlns:xlink="http://www.w3.org/1999/xlink">
<style>
<![CDATA[
@keyframes zk {
	to {
		stroke-dashoffset:0;
	}
}
svg.acjk path[clip-path] {
	--t:0.8s;
	animation:zk var(--t) linear forwards var(--d);
	stroke-dasharray:3337;
	stroke-dashoffset:3339;
	stroke-width:128;
	stroke-linecap:round;
	fill:none;
	stroke:#000;
}
svg.acjk path[id] {fill:#ccc;}
]]>
</style>
<path id="z30449d1" d="M164 208Q152 193 124 184Q114 180 103 184Q96 188 101 202Q120 271 122 284Q122 288 123 296Q138 494 106 629Q93 686 129 731Q139 744 151 731Q164 715 164 692Q164 688 165 682C166 659 166 659 166 647Q166 635 167 531C167 505 167 505 167 492Q168 434 169 390C170 366 170 366 170 354Q171 260 173 248Q174 241 174 236C174 226 170 216 164 208Z"/>
<path id="z30449d2" d="M278 675Q291 697 305 718Q321 743 329 740Q342 739 356 704Q365 679 366 603Q345 275 373 223Q385 204 376 194Q369 182 317 167Q292 158 274 169Q213 197 164 208C154 210 164 238 174 236Q204 230 255 214Q285 205 295 215Q310 228 309 283Q313 508 302 631Q305 653 287 652C279 652 273 668 278 675Z"/>
<path id="z30449d3" d="M253 375Q277 368 266 356Q253 343 226 341Q204 340 170 354C159 358 157 392 169 390C225 380 225 380 253 375Z"/>
<path id="z30449d4" d="M167 531Q218 522 259 518Q283 514 273 500Q261 485 235 481Q210 480 167 492C154 495 154 534 167 531Z"/>
<path id="z30449d5" d="M165 682Q172 683 183 681Q213 677 278 675C286 675 293 658 287 652Q280 645 266 636Q250 627 219 635Q189 642 166 647C154 649 153 682 165 682Z"/>
<path id="z30449d6" d="M641 212Q788 182 794 177Q804 170 799 160Q792 148 762 140Q731 134 701 146Q658 159 611 171Q559 181 498 186Q461 192 487 210Q530 232 600 220C627 215 627 215 641 212Z"/>
<path id="z30449d7" d="M687 427Q769 417 889 416Q949 419 956 407Q962 394 944 379Q878 333 830 352Q770 365 684 382C653 387 653 387 637 389Q526 405 401 424Q379 427 396 445Q411 460 430 465Q452 469 470 465Q548 444 639 432C671 429 671 429 687 427Z"/>
<path id="z30449d8" d="M639 432Q657 709 599 796Q596 803 588 807Q578 807 497 766Q490 765 486 767Q483 771 491 780Q549 847 577 896Q586 912 595 911Q610 911 636 885Q687 840 696 734Q695 730 696 726Q702 612 687 427C685 397 685 397 684 382Q675 301 672 251Q672 229 641 212C629 205 593 208 600 220Q625 260 637 389C638 418 638 418 639 432Z"/>
<defs>
	<clipPath id="z30449c1"><use xlink:href="#z30449d1"/></clipPath>
	<clipPath id="z30449c2"><use xlink:href="#z30449d2"/></clipPath>
	<clipPath id="z30449c3"><use xlink:href="#z30449d3"/></clipPath>
	<clipPath id="z30449c4"><use xlink:href="#z30449d4"/></clipPath>
	<clipPath id="z30449c5"><use xlink:href="#z30449d5"/></clipPath>
	<clipPath id="z30449c6"><use xlink:href="#z30449d6"/></clipPath>
	<clipPath id="z30449c7"><use xlink:href="#z30449d7"/></clipPath>
	<clipPath id="z30449c8"><use xlink:href="#z30449d8"/></clipPath>
</defs>
<path style="--d:1s;" pathLength="3333" clip-path="url(#z30449c1)" d="M108 188L147 278L135 732"/>
<path style="--d:2s;" pathLength="3333" clip-path="url(#z30449c2)" d="M171 213L286 187L341 216L316 732"/>
<path style="--d:3s;" pathLength="3333" clip-path="url(#z30449c3)" d="M176 381L262 361"/>
<path style="--d:4s;" pathLength="3333" clip-path="url(#z30449c4)" d="M171 523L269 504"/>
<path style="--d:5s;" pathLength="3333" clip-path="url(#z30449c5)" d="M174 674L282 659"/>
<path style="--d:6s;" pathLength="3333" clip-path="url(#z30449c6)" d="M485 197L797 163"/>
<path style="--d:7s;" pathLength="3333" clip-path="url(#z30449c7)" d="M397 432L454 442L852 381L952 395"/>
<path style="--d:8s;" pathLength="3333" clip-path="url(#z30449c8)" d="M609 223L642 248L659 372L659 746L625 832L586 858L493 772"/>
</svg>