<!--
AnimCJK 2016-2019 Copyright Francois Mizessyn - https://github.com/parsimonhi/animCJK
Derived from:
    MakeMeAHanzi project - https://github.com/skishore/makemeahanzi
    Arphic PL KaitiM GB font
    Arphic PL UKai font
You can redistribute and/or modify this file under the terms of the Arphic Public License
as published by Arphic Technology Co., Ltd.
You should have received a copy of this license along with this file.
If not, see http://ftp.gnu.org/non-gnu/chinese-fonts-truetype/LICENSE.
-->
<svg id="z30472" class="acjk" version="1.1" viewBox="0 0 1024 1024" xmlns="http://www.w3.org/2000/svg" xmlns:xlink="http://www.w3.org/1999/xlink">
<style>
<![CDATA[
@keyframes zk {
	to {
		stroke-dashoffset:0;
	}
}
svg.acjk path[clip-path] {
	--t:0.8s;
	animation:zk var(--t) linear forwards var(--d);
	stroke-dasharray:3337;
	stroke-dashoffset:3339;
	stroke-width:128;
	stroke-linecap:round;
	fill:none;
	stroke:#000;
}
svg.acjk path[id] {fill:#ccc;}
]]>
</style>
<path id="z30472d1" d="M167 286Q154 273 129 264Q119 260 108 263Q101 269 107 281Q125 347 127 362Q127 366 128 374Q143 573 112 701Q99 755 134 799Q144 812 155 799Q167 784 167 760C169 735 169 735 170 723Q170 711 171 590C171 570 171 570 171 560Q172 500 173 457C173 434 173 434 173 423Q174 335 176 325Q177 318 177 314C177 304 175 292 167 286Z"/>
<path id="z30472d2" d="M279 745Q292 766 305 786Q321 811 329 808Q342 807 356 772Q365 750 365 673Q346 348 373 295Q383 276 375 266Q368 256 316 241Q291 232 273 243Q216 271 167 286C158 290 167 316 177 314Q202 308 253 288Q284 278 295 287Q310 300 309 354Q313 577 302 699Q303 714 297 719C292 728 273 737 279 745Z"/>
<path id="z30472d3" d="M266 439Q290 432 278 420Q265 407 238 405Q213 405 173 423C162 427 162 459 173 457C235 445 235 445 266 439Z"/>
<path id="z30472d4" d="M171 590Q174 590 272 575Q296 568 286 556Q273 541 246 539Q221 538 179 554Q175 557 171 560C163 566 161 592 171 590Z"/>
<path id="z30472d5" d="M167 760Q173 760 180 758Q211 751 279 745C290 745 305 726 297 719Q290 713 277 706Q262 697 170 723C158 725 155 760 167 760Z"/>
<path id="z30472d6" d="M481 341Q468 310 446 297Q442 293 436 297Q432 301 431 312Q434 337 408 409Q398 425 399 444Q403 463 413 479Q420 489 426 482Q433 481 441 464Q445 457 454 431Q469 383 480 362C484 356 484 348 481 341Z"/>
<path id="z30472d7" d="M624 345Q684 327 745 314Q779 310 781 324Q781 343 747 413Q740 428 747 431Q754 435 766 422Q841 352 873 338Q898 328 895 314Q894 302 820 269Q796 260 695 293Q644 305 629 310C590 319 590 319 570 323Q483 338 481 341C474 344 475 357 480 362C481 363 481 363 482 364Q498 383 543 368Q553 364 566 361C605 350 605 350 624 345Z"/>
<path id="z30472d8" d="M566 361Q533 559 461 700Q410 787 372 844Q366 851 364 857Q361 869 372 867Q408 861 494 735Q512 705 530 670Q599 528 624 345C627 322 627 322 629 310Q629 307 630 305Q643 211 649 191Q659 176 652 162Q634 144 602 128Q583 116 569 121Q556 128 563 143Q584 173 577 256Q576 265 575 276Q574 298 570 323C567 348 567 348 566 361Z"/>
<path id="z30472d9" d="M974 798Q949 749 929 661Q925 646 917 642Q908 638 908 658Q907 769 893 790Q872 817 776 822Q724 823 701 815Q682 806 676 793Q666 765 667 692Q673 611 688 574Q701 543 682 527Q631 488 616 492Q601 499 608 516Q627 553 623 609Q619 765 628 796Q635 827 658 843Q703 876 860 868Q932 864 960 849Q990 830 974 798Z"/>
<defs>
	<clipPath id="z30472c1"><use xlink:href="#z30472d1"/></clipPath>
	<clipPath id="z30472c2"><use xlink:href="#z30472d2"/></clipPath>
	<clipPath id="z30472c3"><use xlink:href="#z30472d3"/></clipPath>
	<clipPath id="z30472c4"><use xlink:href="#z30472d4"/></clipPath>
	<clipPath id="z30472c5"><use xlink:href="#z30472d5"/></clipPath>
	<clipPath id="z30472c6"><use xlink:href="#z30472d6"/></clipPath>
	<clipPath id="z30472c7"><use xlink:href="#z30472d7"/></clipPath>
	<clipPath id="z30472c8"><use xlink:href="#z30472d8"/></clipPath>
	<clipPath id="z30472c9"><use xlink:href="#z30472d9"/></clipPath>
</defs>
<path style="--d:1s;" pathLength="3333" clip-path="url(#z30472c1)" d="M113 269L149 326L148 801"/>
<path style="--d:2s;" pathLength="3333" clip-path="url(#z30472c2)" d="M174 290L288 260L342 292L316 797"/>
<path style="--d:3s;" pathLength="3333" clip-path="url(#z30472c3)" d="M183 447L277 424"/>
<path style="--d:4s;" pathLength="3333" clip-path="url(#z30472c4)" d="M174 582L280 560"/>
<path style="--d:5s;" pathLength="3333" clip-path="url(#z30472c5)" d="M172 753L289 719"/>
<path style="--d:6s;" pathLength="3333" clip-path="url(#z30472c6)" d="M441 304L454 347L419 479"/>
<path style="--d:7s;" pathLength="3333" clip-path="url(#z30472c7)" d="M484 357L789 291L831 313L838 336L752 425"/>
<path style="--d:8s;" pathLength="3333" clip-path="url(#z30472c8)" d="M567 130L616 177L573 468L498 679L370 862"/>
<path style="--d:9s;" pathLength="3333" clip-path="url(#z30472c9)" d="M614 501L657 553L647 773L687 833L830 843L934 811L914 650"/>
</svg>