<!--
AnimCJK 2016-2017 Copyright Francois Mizessyn, http://gooo.free.fr/animCJK/
Derived from:
    MakeMeAHanzi project - https://github.com/skishore/makemeahanzi
    Arphic PL KaitiM GB - https://apps.ubuntu.com/cat/applications/precise/fonts-arphic-gkai00mp/
    Arphic PL UKai - https://apps.ubuntu.com/cat/applications/fonts-arphic-ukai/
You can redistribute and/or modify this file under the terms of the Arphic Public License
as published by Arphic Technology Co., Ltd.
You should have received a copy of this license (the directory "APL") along with this file;
if not, see http://ftp.gnu.org/non-gnu/chinese-fonts-truetype/LICENSE.
-->
<svg id="z30518" class="acjk" version="1.1" viewBox="0 0 1024 1024" xmlns="http://www.w3.org/2000/svg" xmlns:xlink="http://www.w3.org/1999/xlink">
<style>
<![CDATA[
	@keyframes z30518k {
		from {
			stroke:#c00;
			stroke-dashoffset:3000;
		}
		75% {
			stroke:#c00;
			stroke-dashoffset:0;
		}
		to {
			stroke:#000;
		}
	}
	#z30518 path[clip-path] {
		animation:z30518k 1s linear both;
		stroke-dasharray:3000;
		stroke-width:128;
		stroke-linecap:round;
		fill:none;
	}
	#z30518 path[clip-path="url(#z30518c1)"] {animation-delay:1s;}
	#z30518 path[clip-path="url(#z30518c2)"] {animation-delay:2s;}
	#z30518 path[clip-path="url(#z30518c3)"] {animation-delay:3s;}
	#z30518 path[clip-path="url(#z30518c4)"] {animation-delay:4s;}
	#z30518 path[clip-path="url(#z30518c5)"] {animation-delay:5s;}
	#z30518 path[clip-path="url(#z30518c6)"] {animation-delay:6s;}
	#z30518 path[clip-path="url(#z30518c7)"] {animation-delay:7s;}
	#z30518 path[clip-path="url(#z30518c8)"] {animation-delay:8s;}
	#z30518 path[clip-path="url(#z30518c9)"] {animation-delay:9s;}
	#z30518 path[clip-path="url(#z30518c10)"] {animation-delay:10s;}
	#z30518 path[clip-path="url(#z30518c11)"] {animation-delay:11s;}
	#z30518 path {fill:#ccc;}
]]>
</style>
<g transform="scale(1,-1) translate(0,-900)">
	<path id="z30518d1" d="M176 680Q164 692 141 700Q131 706 120 701Q113 697 119 684Q140 600 141 580Q153 351 117 216Q102 162 138 117Q148 104 159 116Q169 129 170 146L173 174Q176 211 177 341L178 368Q179 434 181 483L182 512Q185 627 187 638Q188 647 188 653L176 680Z"/>
	<path id="z30518d2" d="M272 152Q285 133 298 113Q314 89 321 92Q334 95 350 133Q366 175 360 228Q351 336 345 570Q344 631 360 663Q370 679 362 691Q355 701 306 716Q282 723 266 714Q217 690 176 680L188 653Q192 654 200 656Q224 662 252 671Q277 678 286 670Q302 654 302 592Q306 336 295 196Q296 184 292 178L272 152Z"/>
	<path id="z30518d3" d="M181 483Q190 483 270 500Q292 506 282 517Q270 530 246 531Q201 531 182 512L181 483Z"/>
	<path id="z30518d4" d="M177 341Q178 341 182 341Q234 348 272 353Q294 357 285 369Q275 382 251 386Q200 389 178 368L177 341Z"/>
	<path id="z30518d5" d="M170 146Q171 146 174 146Q228 150 272 152L292 178Q282 185 268 188Q238 194 173 174L170 146Z"/>
	<path id="z30518d6" d="M492 676Q540 661 584 669Q839 717 853 724Q853 725 854 725Q864 734 859 743Q852 756 820 765Q790 772 702 743Q579 715 491 707Q484 707 480 705L492 676Z"/>
	<path id="z30518d7" d="M686 534Q818 562 823 566Q830 573 827 581Q820 591 794 599Q766 603 739 593Q703 581 665 572Q622 562 572 558Q539 552 563 537Q596 519 643 524L686 534Z"/>
	<path id="z30518d8" d="M702 391Q751 401 793 406Q818 410 809 424Q799 440 771 444Q746 448 704 436L653 422Q604 409 560 398Q542 394 564 378Q574 371 598 374Q626 380 654 383L702 391Z"/>
	<path id="z30518d9" d="M697 284Q698 342 702 391L704 436Q710 517 698 523Q692 530 686 534L643 524Q649 508 653 422L654 383Q654 340 655 276L697 284Z"/>
	<path id="z30518d10" d="M655 276Q591 267 518 255Q500 252 514 239Q526 227 540 224Q558 220 571 224Q685 257 867 256Q883 256 887 264Q891 274 878 284Q827 320 780 301Q744 295 697 284L655 276Z"/>
	<path id="z30518d11" d="M480 705Q468 715 441 728Q419 740 410 732Q403 725 411 708Q430 671 433 603Q443 372 425 158Q422 115 397 76Q385 60 396 37Q405 13 416 4Q426 -5 445 9Q506 49 596 67Q699 86 899 85Q927 84 928 97Q927 113 895 137Q877 152 747 129Q546 107 509 99Q476 90 482 148Q486 343 486 586Q486 640 492 676L480 705Z"/>
	<defs>
		<clipPath id="z30518c1"><use xlink:href="#z30518d1"/></clipPath>
		<clipPath id="z30518c2"><use xlink:href="#z30518d2"/></clipPath>
		<clipPath id="z30518c3"><use xlink:href="#z30518d3"/></clipPath>
		<clipPath id="z30518c4"><use xlink:href="#z30518d4"/></clipPath>
		<clipPath id="z30518c5"><use xlink:href="#z30518d5"/></clipPath>
		<clipPath id="z30518c6"><use xlink:href="#z30518d6"/></clipPath>
		<clipPath id="z30518c7"><use xlink:href="#z30518d7"/></clipPath>
		<clipPath id="z30518c8"><use xlink:href="#z30518d8"/></clipPath>
		<clipPath id="z30518c9"><use xlink:href="#z30518d9"/></clipPath>
		<clipPath id="z30518c10"><use xlink:href="#z30518d10"/></clipPath>
		<clipPath id="z30518c11"><use xlink:href="#z30518d11"/></clipPath>
	</defs>
	<path pathLength="2999" clip-path="url(#z30518c1)" d="M123 697L157 651L162 596L146 116"/>
	<path pathLength="2999" clip-path="url(#z30518c2)" d="M184 674L281 697L328 674L328 186L304 106"/>
	<path pathLength="2999" clip-path="url(#z30518c3)" d="M185 491L275 513"/>
	<path pathLength="2999" clip-path="url(#z30518c4)" d="M181 348L282 362"/>
	<path pathLength="2999" clip-path="url(#z30518c5)" d="M177 154L285 176"/>
	<path pathLength="2999" clip-path="url(#z30518c6)" d="M487 702L567 692L854 743"/>
	<path pathLength="2999" clip-path="url(#z30518c7)" d="M559 550L820 581"/>
	<path pathLength="2999" clip-path="url(#z30518c8)" d="M562 390L805 420"/>
	<path pathLength="2999" clip-path="url(#z30518c9)" d="M650 520L678 489L671 280"/>
	<path pathLength="2999" clip-path="url(#z30518c10)" d="M515 247L883 275"/>
	<path pathLength="2999" clip-path="url(#z30518c11)" d="M416 726L459 669L446 53L688 101L922 105"/>
</g>
</svg>