<!--
AnimCJK 2016-2018 Copyright Francois Mizessyn - https://github.com/parsimonhi/animCJK
Derived from:
    MakeMeAHanzi project - https://github.com/skishore/makemeahanzi
    Arphic PL KaitiM GB - https://apps.ubuntu.com/cat/applications/precise/fonts-arphic-gkai00mp/
    Arphic PL UKai - https://apps.ubuntu.com/cat/applications/fonts-arphic-ukai/
You can redistribute and/or modify this file under the terms of the Arphic Public License
as published by Arphic Technology Co., Ltd.
You should have received a copy of this license (the directory "APL") along with this file;
if not, see http://ftp.gnu.org/non-gnu/chinese-fonts-truetype/LICENSE.
-->
<svg id="z30554" class="acjk" version="1.1" viewBox="0 0 1024 1024" xmlns="http://www.w3.org/2000/svg" xmlns:xlink="http://www.w3.org/1999/xlink">
<style>
<![CDATA[
@keyframes z30554k {
	from {
		stroke:#ccc;
		stroke-dashoffset:3334;
	}
	1% {
		stroke:#c00;
		stroke-dashoffset:3334;
	}
	75% {
		stroke:#c00;
		stroke-dashoffset:0;
	}
	to {
		stroke:#000;
	}
}
#z30554 path[clip-path] {
	animation:z30554k 1s linear both;
	stroke-dasharray:3334;
	stroke-width:128;
	stroke-linecap:round;
	fill:none;
}
#z30554 path[clip-path="url(#z30554c1)"] {animation-delay:1s;}
#z30554 path[clip-path="url(#z30554c2)"] {animation-delay:2s;}
#z30554 path[clip-path="url(#z30554c3)"] {animation-delay:3s;}
#z30554 path[clip-path="url(#z30554c4)"] {animation-delay:4s;}
#z30554 path[clip-path="url(#z30554c5)"] {animation-delay:5s;}
#z30554 path[clip-path="url(#z30554c6)"] {animation-delay:6s;}
#z30554 path[clip-path="url(#z30554c7)"] {animation-delay:7s;}
#z30554 path[clip-path="url(#z30554c8)"] {animation-delay:8s;}
#z30554 path[clip-path="url(#z30554c9)"] {animation-delay:9s;}
#z30554 path[clip-path="url(#z30554c10)"] {animation-delay:10s;}
#z30554 path[clip-path="url(#z30554c11)"] {animation-delay:11s;}
#z30554 path[clip-path="url(#z30554c12)"] {animation-delay:12s;}
#z30554 path[clip-path="url(#z30554c13)"] {animation-delay:13s;}
#z30554 path {fill:#ccc;}
]]>
</style>
<path id="z30554d1" d="M165 227Q158 214 124 199Q114 195 102 198Q95 202 100 216Q118 289 119 301Q119 553 90 655Q72 712 109 758Q119 771 131 760Q144 744 145 721L149 685Q150 652 155 542L156 515Q157 457 161 413L163 383Q166 266 172 254L165 227 Z"/>
<path id="z30554d2" d="M251 712Q266 739 281 762Q297 787 305 784Q318 783 334 746Q350 706 346 655Q340 552 340 327Q341 269 357 240Q367 221 359 210Q352 200 300 185Q275 176 257 188Q208 215 165 227L172 254Q202 251 247 232Q269 223 279 230Q294 245 293 303Q293 543 280 675Q281 693 273 696L251 712 Z"/>
<path id="z30554d3" d="M161 413Q170 413 250 396Q272 390 262 379Q250 366 226 365Q205 365 163 383L161 413 Z"/>
<path id="z30554d4" d="M155 542Q158 542 162 542Q211 533 249 528Q271 522 262 511Q250 498 226 496Q178 493 156 515L155 542 Z"/>
<path id="z30554d5" d="M145 721Q151 721 159 720Q189 714 251 712L273 696Q269 687 246 673Q230 664 199 672Q172 679 149 685L145 721 Z"/>
<path id="z30554d6" d="M529 217Q557 226 596 217Q812 177 827 166Q834 159 831 151Q824 141 798 133Q770 127 743 138Q694 154 642 167Q587 179 523 186L529 217 Z"/>
<path id="z30554d7" d="M523 186Q507 173 479 161Q460 151 446 157Q434 164 442 178Q463 205 463 282Q462 291 462 301Q459 473 419 607Q382 718 306 845Q302 852 299 858Q298 868 308 866Q338 863 414 735Q429 707 444 673Q510 508 522 257Q523 238 528 219Q528 218 529 217L523 186 Z"/>
<path id="z30554d8" d="M693 390Q799 365 803 362Q812 355 807 347Q800 337 774 330Q738 324 698 344L646 358Q609 365 568 370Q534 376 559 391Q593 409 647 400L693 390 Z"/>
<path id="z30554d9" d="M684 485Q688 436 693 390L698 344Q698 343 713 268Q716 258 699 245Q668 229 647 224Q634 221 626 228Q619 235 626 248Q642 270 642 284Q643 318 646 358L647 400Q647 443 646 493L684 485 Z"/>
<path id="z30554d10" d="M654 527Q687 514 834 509Q876 509 880 500Q884 490 870 480Q825 450 764 466Q730 473 684 485L646 493Q582 503 513 517Q497 520 510 533Q534 554 576 544Q594 538 618 534L654 527 Z"/>
<path id="z30554d11" d="M690 696Q811 665 815 662Q824 655 819 647Q812 637 785 630Q755 624 694 650L642 664Q594 674 540 682Q506 688 530 703Q570 721 630 708Q636 707 643 706L690 696 Z"/>
<path id="z30554d12" d="M680 805Q684 748 690 696L694 650Q700 599 703 590Q707 577 709 568Q713 558 695 545Q673 532 654 527L618 534Q617 538 622 548Q638 572 639 588Q640 624 642 664L643 706Q643 755 642 810L680 805 Z"/>
<path id="z30554d13" d="M642 810Q546 820 437 833Q415 834 431 853Q446 868 464 874Q486 880 503 875Q704 829 920 846Q921 846 925 846Q946 846 951 837Q957 825 939 811Q884 768 820 782Q762 792 680 805L642 810 Z"/>
<defs>
	<clipPath id="z30554c1"><use xlink:href="#z30554d1"/></clipPath>
	<clipPath id="z30554c2"><use xlink:href="#z30554d2"/></clipPath>
	<clipPath id="z30554c3"><use xlink:href="#z30554d3"/></clipPath>
	<clipPath id="z30554c4"><use xlink:href="#z30554d4"/></clipPath>
	<clipPath id="z30554c5"><use xlink:href="#z30554d5"/></clipPath>
	<clipPath id="z30554c6"><use xlink:href="#z30554d6"/></clipPath>
	<clipPath id="z30554c7"><use xlink:href="#z30554d7"/></clipPath>
	<clipPath id="z30554c8"><use xlink:href="#z30554d8"/></clipPath>
	<clipPath id="z30554c9"><use xlink:href="#z30554d9"/></clipPath>
	<clipPath id="z30554c10"><use xlink:href="#z30554d10"/></clipPath>
	<clipPath id="z30554c11"><use xlink:href="#z30554d11"/></clipPath>
	<clipPath id="z30554c12"><use xlink:href="#z30554d12"/></clipPath>
	<clipPath id="z30554c13"><use xlink:href="#z30554d13"/></clipPath>
</defs>
<path pathLength="3333" clip-path="url(#z30554c1)" d="M106 202L143 294L118 760"/>
<path pathLength="3333" clip-path="url(#z30554c2)" d="M170 230L280 204L325 232L312 695L288 770"/>
<path pathLength="3333" clip-path="url(#z30554c3)" d="M167 405L255 381"/>
<path pathLength="3333" clip-path="url(#z30554c4)" d="M160 535L258 517"/>
<path pathLength="3333" clip-path="url(#z30554c5)" d="M151 713L264 699"/>
<path pathLength="3333" clip-path="url(#z30554c6)" d="M530 189L579 199L825 155"/>
<path pathLength="3333" clip-path="url(#z30554c7)" d="M449 166L494 221L468 505L413 686L306 856"/>
<path pathLength="3333" clip-path="url(#z30554c8)" d="M557 378L804 353"/>
<path pathLength="3333" clip-path="url(#z30554c9)" d="M628 230L677 270L654 488"/>
<path pathLength="3333" clip-path="url(#z30554c10)" d="M510 523L876 492"/>
<path pathLength="3333" clip-path="url(#z30554c11)" d="M529 691L815 651"/>
<path pathLength="3333" clip-path="url(#z30554c12)" d="M628 540L674 576L666 806"/>
<path pathLength="3333" clip-path="url(#z30554c13)" d="M431 841L488 852L846 810L948 831"/>
</svg>