<!--
AnimCJK 2016-2018 Copyright Francois Mizessyn - https://github.com/parsimonhi/animCJK
Derived from:
    MakeMeAHanzi project - https://github.com/skishore/makemeahanzi
    Arphic PL KaitiM GB - https://apps.ubuntu.com/cat/applications/precise/fonts-arphic-gkai00mp/
    Arphic PL UKai - https://apps.ubuntu.com/cat/applications/fonts-arphic-ukai/
You can redistribute and/or modify this file under the terms of the Arphic Public License
as published by Arphic Technology Co., Ltd.
You should have received a copy of this license (the directory "APL") along with this file;
if not, see http://ftp.gnu.org/non-gnu/chinese-fonts-truetype/LICENSE.
-->
<svg id="z30562" class="acjk" version="1.1" viewBox="0 0 1024 1024" xmlns="http://www.w3.org/2000/svg" xmlns:xlink="http://www.w3.org/1999/xlink">
<style>
<![CDATA[
@keyframes z30562k {
	from {
		stroke:#c00;
		stroke-dashoffset:3334;
	}
	75% {
		stroke:#c00;
		stroke-dashoffset:0;
	}
	to {
		stroke:#000;
	}
}
#z30562 path[clip-path] {
	animation:z30562k 1s linear both;
	stroke-dasharray:3334;
	stroke-width:128;
	stroke-linecap:round;
	fill:none;
}
#z30562 path[clip-path="url(#z30562c1)"] {animation-delay:1s;}
#z30562 path[clip-path="url(#z30562c2)"] {animation-delay:2s;}
#z30562 path[clip-path="url(#z30562c3)"] {animation-delay:3s;}
#z30562 path[clip-path="url(#z30562c4)"] {animation-delay:4s;}
#z30562 path[clip-path="url(#z30562c5)"] {animation-delay:5s;}
#z30562 path[clip-path="url(#z30562c6)"] {animation-delay:6s;}
#z30562 path[clip-path="url(#z30562c7)"] {animation-delay:7s;}
#z30562 path[clip-path="url(#z30562c8)"] {animation-delay:8s;}
#z30562 path[clip-path="url(#z30562c9)"] {animation-delay:9s;}
#z30562 path[clip-path="url(#z30562c10)"] {animation-delay:10s;}
#z30562 path[clip-path="url(#z30562c11)"] {animation-delay:11s;}
#z30562 path[clip-path="url(#z30562c12)"] {animation-delay:12s;}
#z30562 path[clip-path="url(#z30562c13)"] {animation-delay:13s;}
#z30562 path {fill:#ccc;}
]]>
</style>
<path id="z30562d1" d="M171 219Q159 207 137 200Q127 196 116 199Q109 205 115 217Q134 286 136 300Q136 306 137 313Q149 526 120 649Q107 704 141 747Q151 760 162 747Q169 737 173 723L177 690Q178 654 179 539L179 507Q180 443 181 398L181 364Q182 271 184 261Q185 251 185 245L171 219 Z"/>
<path id="z30562d2" d="M275 714Q285 727 294 743Q310 767 317 764Q330 761 345 726Q360 687 355 638Q348 538 345 319Q344 262 360 234Q370 216 362 206Q355 196 306 181Q282 172 265 183Q213 208 171 219L185 245Q188 244 192 243Q217 236 248 226Q276 217 286 226Q301 239 300 297Q303 532 291 660Q292 673 286 679L275 714 Z"/>
<path id="z30562d3" d="M181 398Q230 386 266 380Q287 374 278 363Q266 350 242 349Q220 348 182 363Q181 363 181 364L181 398 Z"/>
<path id="z30562d4" d="M179 539Q231 529 269 524Q291 518 281 507Q271 494 246 491Q216 488 179 507L179 539 Z"/>
<path id="z30562d5" d="M173 723Q228 716 275 714L286 679Q282 676 274 675Q234 668 177 690L173 723 Z"/>
<path id="z30562d6" d="M480 339Q549 246 591 173Q613 130 633 108Q642 98 637 84Q633 71 602 49Q574 31 555 32Q536 35 545 57Q558 85 550 109Q522 191 475 268Q432 341 370 424Q360 434 358 442Q355 452 369 450Q387 446 452 374L480 339 Z"/>
<path id="z30562d7" d="M528 763Q522 495 531 431Q538 401 525 387Q492 348 480 339L452 374Q476 434 484 495Q484 687 459 811Q438 869 477 927Q478 931 483 935Q502 953 515 923Q533 872 528 782L528 763 Z"/>
<path id="z30562d8" d="M689 188Q713 210 738 236Q751 249 765 248Q775 248 781 235Q785 222 778 193Q769 162 685 142Q670 138 664 141Q660 145 660 157Q664 167 689 188 Z"/>
<path id="z30562d9" d="M707 341Q759 328 819 316Q858 307 863 302Q870 295 867 287Q860 277 834 270Q810 266 714 296Q614 317 576 322Q542 328 567 343Q606 364 656 352Q657 351 661 351L707 341 Z"/>
<path id="z30562d10" d="M732 478Q789 466 838 460Q862 456 853 444Q843 429 817 424Q772 418 732 438L680 450Q634 460 591 471Q575 475 595 490Q602 494 680 486L732 478 Z"/>
<path id="z30562d11" d="M729 609Q787 599 841 591Q866 587 857 573Q845 557 817 551Q805 548 730 564L681 578Q630 588 584 601Q565 605 588 622Q601 631 626 626Q654 620 681 617L729 609 Z"/>
<path id="z30562d12" d="M727 735Q728 668 729 609L730 564Q731 518 732 478L732 438Q732 417 735 390Q744 365 707 341L661 351Q674 379 680 450L680 486Q680 522 681 578L681 617Q681 669 682 742L727 735 Z"/>
<path id="z30562d13" d="M682 742Q612 749 532 762Q528 762 528 763L528 782Q541 795 559 800Q581 806 596 801Q696 777 911 776Q914 776 918 777Q939 776 943 768Q949 756 932 742Q875 699 817 718Q780 724 727 735L682 742 Z"/>
<defs>
	<clipPath id="z30562c1"><use xlink:href="#z30562d1"/></clipPath>
	<clipPath id="z30562c2"><use xlink:href="#z30562d2"/></clipPath>
	<clipPath id="z30562c3"><use xlink:href="#z30562d3"/></clipPath>
	<clipPath id="z30562c4"><use xlink:href="#z30562d4"/></clipPath>
	<clipPath id="z30562c5"><use xlink:href="#z30562d5"/></clipPath>
	<clipPath id="z30562c6"><use xlink:href="#z30562d6"/></clipPath>
	<clipPath id="z30562c7"><use xlink:href="#z30562d7"/></clipPath>
	<clipPath id="z30562c8"><use xlink:href="#z30562d8"/></clipPath>
	<clipPath id="z30562c9"><use xlink:href="#z30562d9"/></clipPath>
	<clipPath id="z30562c10"><use xlink:href="#z30562d10"/></clipPath>
	<clipPath id="z30562c11"><use xlink:href="#z30562d11"/></clipPath>
	<clipPath id="z30562c12"><use xlink:href="#z30562d12"/></clipPath>
	<clipPath id="z30562c13"><use xlink:href="#z30562d13"/></clipPath>
</defs>
<path pathLength="3333" clip-path="url(#z30562c1)" d="M120 203L158 279L143 747"/>
<path pathLength="3333" clip-path="url(#z30562c2)" d="M177 220L283 200L329 224L323 673L300 751"/>
<path pathLength="3333" clip-path="url(#z30562c3)" d="M187 389L276 366"/>
<path pathLength="3333" clip-path="url(#z30562c4)" d="M186 530L279 510"/>
<path pathLength="3333" clip-path="url(#z30562c5)" d="M177 716L280 688"/>
<path pathLength="3333" clip-path="url(#z30562c6)" d="M550 37L594 100L492 284L365 445"/>
<path pathLength="3333" clip-path="url(#z30562c7)" d="M479 346L505 497L486 936"/>
<path pathLength="3333" clip-path="url(#z30562c8)" d="M667 146L736 190L770 242"/>
<path pathLength="3333" clip-path="url(#z30562c9)" d="M568 333L863 295"/>
<path pathLength="3333" clip-path="url(#z30562c10)" d="M591 480L847 448"/>
<path pathLength="3333" clip-path="url(#z30562c11)" d="M585 608L852 574"/>
<path pathLength="3333" clip-path="url(#z30562c12)" d="M668 355L705 387L703 738"/>
<path pathLength="3333" clip-path="url(#z30562c13)" d="M535 771L857 744L940 763"/>
</svg>