<!--
AnimCJK 2016-2017 Copyright Francois Mizessyn, http://gooo.free.fr/animCJK/
Derived from:
    MakeMeAHanzi project - https://github.com/skishore/makemeahanzi
    Arphic PL KaitiM GB - https://apps.ubuntu.com/cat/applications/precise/fonts-arphic-gkai00mp/
    Arphic PL UKai - https://apps.ubuntu.com/cat/applications/fonts-arphic-ukai/
You can redistribute and/or modify this file under the terms of the Arphic Public License
as published by Arphic Technology Co., Ltd.
You should have received a copy of this license (the directory "APL") along with this file;
if not, see http://ftp.gnu.org/non-gnu/chinese-fonts-truetype/LICENSE.
-->
<svg id="z30585" class="acjk" version="1.1" viewBox="0 0 1024 1024" xmlns="http://www.w3.org/2000/svg" xmlns:xlink="http://www.w3.org/1999/xlink">
<style>
<![CDATA[
@keyframes z30585k {
	from {
		stroke:#c00;
		stroke-dashoffset:3000;
	}
	75% {
		stroke:#c00;
		stroke-dashoffset:0;
	}
	to {
		stroke:#000;
	}
}
#z30585 path[clip-path] {
	animation:z30585k 1s linear both;
	stroke-dasharray:3000;
	stroke-width:128;
	stroke-linecap:round;
	fill:none;
}
#z30585 path[clip-path="url(#z30585c1)"] {animation-delay:1s;}
#z30585 path[clip-path="url(#z30585c2)"] {animation-delay:2s;}
#z30585 path[clip-path="url(#z30585c3)"] {animation-delay:3s;}
#z30585 path[clip-path="url(#z30585c4)"] {animation-delay:4s;}
#z30585 path[clip-path="url(#z30585c5)"] {animation-delay:5s;}
#z30585 path[clip-path="url(#z30585c6)"] {animation-delay:6s;}
#z30585 path[clip-path="url(#z30585c7)"] {animation-delay:7s;}
#z30585 path[clip-path="url(#z30585c8)"] {animation-delay:8s;}
#z30585 path[clip-path="url(#z30585c9)"] {animation-delay:9s;}
#z30585 path[clip-path="url(#z30585c10)"] {animation-delay:10s;}
#z30585 path[clip-path="url(#z30585c11)"] {animation-delay:11s;}
#z30585 path[clip-path="url(#z30585c12)"] {animation-delay:12s;}
#z30585 path[clip-path="url(#z30585c13)"] {animation-delay:13s;}
#z30585 path {fill:#ccc;}
]]>
</style>
<path id="z30585d1" d="M184 242Q171 229 146 220Q137 216 126 219Q119 223 125 236Q143 302 145 317Q145 321 146 329Q158 539 129 657Q117 708 150 751Q160 764 170 752Q179 739 181 725L184 696Q185 663 186 563L186 531Q187 476 187 433L188 401Q188 275 192 271L184 242 Z"/>
<path id="z30585d2" d="M365 719Q375 683 372 641Q365 547 360 343Q360 291 374 263Q384 244 376 233Q369 223 317 206Q292 197 275 208Q226 230 184 242L192 271Q279 241 296 255Q309 268 310 320Q317 534 309 651Q313 676 291 673Q284 672 282 674L292 708Q302 723 312 739Q330 763 337 760Q347 759 358 735L365 719 Z"/>
<path id="z30585d3" d="M187 433Q235 424 270 416Q292 410 282 399Q270 386 246 385Q224 385 188 401L187 433 Z"/>
<path id="z30585d4" d="M186 563Q234 557 269 552Q291 546 281 535Q271 522 246 519Q224 518 186 531L186 563 Z"/>
<path id="z30585d5" d="M181 725Q242 713 292 708L282 674Q263 673 235 680Q207 687 184 696L181 725 Z"/>
<path id="z30585d6" d="M659 286Q741 267 743 266Q750 259 747 251Q740 241 714 233Q687 229 662 238L609 254Q599 255 590 258Q550 265 504 270Q471 276 495 291Q534 312 587 300Q597 297 610 297L659 286 Z"/>
<path id="z30585d7" d="M650 402Q654 342 659 286L662 238Q665 178 674 147Q683 111 672 101Q668 98 665 95Q631 76 608 73Q592 69 584 78Q577 85 585 100Q604 127 604 146Q607 198 609 254L610 297Q610 349 608 409L650 402 Z"/>
<path id="z30585d8" d="M747 430Q811 423 897 422Q957 422 964 412Q970 400 952 386Q895 347 831 365Q812 369 790 375L708 391Q681 394 650 402L608 409Q508 422 396 441Q375 444 391 461Q421 488 461 479Q599 439 673 438L747 430 Z"/>
<path id="z30585d9" d="M620 565Q704 481 747 430L790 375Q823 329 845 309Q855 297 849 280Q836 246 818 231Q805 215 787 213Q768 210 772 234Q772 271 765 290Q732 356 708 391L673 438Q613 511 544 573L512 602Q445 660 366 718Q365 718 365 719L358 735Q359 736 362 736Q392 739 507 661Q513 655 522 649L620 565 Z"/>
<path id="z30585d10" d="M544 573Q523 563 509 564Q496 568 502 579Q506 589 512 602L522 649Q522 793 503 832Q488 865 516 903Q517 904 520 908Q527 921 536 915Q546 908 556 878L563 842Q566 823 566 729L566 700Q567 633 569 612L544 573 Z"/>
<path id="z30585d11" d="M706 864Q736 901 756 936Q766 954 776 953Q792 952 808 918Q826 881 823 833Q816 763 808 635Q807 605 822 585Q829 572 821 563Q803 545 754 524Q738 515 723 524Q684 546 622 564Q621 564 620 565L567 610L569 612Q578 606 708 570Q729 564 740 571Q767 598 751 831Q747 847 734 843L706 864 Z"/>
<path id="z30585d12" d="M566 729Q567 729 572 729Q642 719 695 712Q717 708 709 696Q699 681 673 677Q637 673 566 700L566 729 Z"/>
<path id="z30585d13" d="M556 878Q563 878 571 877Q614 868 706 864L734 843Q727 836 710 824Q694 815 663 822Q608 835 563 842L556 878 Z"/>
<defs>
	<clipPath id="z30585c1"><use xlink:href="#z30585d1"/></clipPath>
	<clipPath id="z30585c2"><use xlink:href="#z30585d2"/></clipPath>
	<clipPath id="z30585c3"><use xlink:href="#z30585d3"/></clipPath>
	<clipPath id="z30585c4"><use xlink:href="#z30585d4"/></clipPath>
	<clipPath id="z30585c5"><use xlink:href="#z30585d5"/></clipPath>
	<clipPath id="z30585c6"><use xlink:href="#z30585d6"/></clipPath>
	<clipPath id="z30585c7"><use xlink:href="#z30585d7"/></clipPath>
	<clipPath id="z30585c8"><use xlink:href="#z30585d8"/></clipPath>
	<clipPath id="z30585c9"><use xlink:href="#z30585d9"/></clipPath>
	<clipPath id="z30585c10"><use xlink:href="#z30585d10"/></clipPath>
	<clipPath id="z30585c11"><use xlink:href="#z30585d11"/></clipPath>
	<clipPath id="z30585c12"><use xlink:href="#z30585d12"/></clipPath>
	<clipPath id="z30585c13"><use xlink:href="#z30585d13"/></clipPath>
</defs>
<path pathLength="2999" clip-path="url(#z30585c1)" d="M132 225L166 293L153 751"/>
<path pathLength="2999" clip-path="url(#z30585c2)" d="M190 247L295 227L340 252L326 753"/>
<path pathLength="2999" clip-path="url(#z30585c3)" d="M191 425L276 406"/>
<path pathLength="2999" clip-path="url(#z30585c4)" d="M192 555L275 542"/>
<path pathLength="2999" clip-path="url(#z30585c5)" d="M187 716L286 693"/>
<path pathLength="2999" clip-path="url(#z30585c6)" d="M493 280L741 255"/>
<path pathLength="2999" clip-path="url(#z30585c7)" d="M588 83L639 121L625 405"/>
<path pathLength="2999" clip-path="url(#z30585c8)" d="M391 450L848 392L960 405"/>
<path pathLength="2999" clip-path="url(#z30585c9)" d="M781 219L807 296L710 433L512 630L363 728"/>
<path pathLength="2999" clip-path="url(#z30585c10)" d="M507 570L544 637L525 908"/>
<path pathLength="2999" clip-path="url(#z30585c11)" d="M574 606L730 544L780 570L787 837L755 894L769 947"/>
<path pathLength="2999" clip-path="url(#z30585c12)" d="M573 721L703 697"/>
<path pathLength="2999" clip-path="url(#z30585c13)" d="M566 870L723 843"/>
</svg>