<!--
AnimCJK 2016-2018 Copyright Francois Mizessyn - https://github.com/parsimonhi/animCJK
Derived from:
    MakeMeAHanzi project - https://github.com/skishore/makemeahanzi
    Arphic PL KaitiM GB - https://apps.ubuntu.com/cat/applications/precise/fonts-arphic-gkai00mp/
    Arphic PL UKai - https://apps.ubuntu.com/cat/applications/fonts-arphic-ukai/
You can redistribute and/or modify this file under the terms of the Arphic Public License
as published by Arphic Technology Co., Ltd.
You should have received a copy of this license (the directory "APL") along with this file;
if not, see http://ftp.gnu.org/non-gnu/chinese-fonts-truetype/LICENSE.
-->
<svg id="z30591" class="acjk" version="1.1" viewBox="0 0 1024 1024" xmlns="http://www.w3.org/2000/svg" xmlns:xlink="http://www.w3.org/1999/xlink">
<style>
<![CDATA[
@keyframes z30591k {
	from {
		stroke:#ccc;
		stroke-dashoffset:3334;
	}
	1% {
		stroke:#c00;
		stroke-dashoffset:3334;
	}
	75% {
		stroke:#c00;
		stroke-dashoffset:0;
	}
	to {
		stroke:#000;
	}
}
#z30591 path[clip-path] {
	animation:z30591k 1s linear both;
	stroke-dasharray:3334;
	stroke-width:128;
	stroke-linecap:round;
	fill:none;
}
#z30591 path[clip-path="url(#z30591c1)"] {animation-delay:1s;}
#z30591 path[clip-path="url(#z30591c2)"] {animation-delay:2s;}
#z30591 path[clip-path="url(#z30591c3)"] {animation-delay:3s;}
#z30591 path[clip-path="url(#z30591c4)"] {animation-delay:4s;}
#z30591 path[clip-path="url(#z30591c5)"] {animation-delay:5s;}
#z30591 path[clip-path="url(#z30591c6)"] {animation-delay:6s;}
#z30591 path[clip-path="url(#z30591c7)"] {animation-delay:7s;}
#z30591 path[clip-path="url(#z30591c8)"] {animation-delay:8s;}
#z30591 path[clip-path="url(#z30591c9)"] {animation-delay:9s;}
#z30591 path[clip-path="url(#z30591c10)"] {animation-delay:10s;}
#z30591 path[clip-path="url(#z30591c11)"] {animation-delay:11s;}
#z30591 path[clip-path="url(#z30591c12)"] {animation-delay:12s;}
#z30591 path[clip-path="url(#z30591c13)"] {animation-delay:13s;}
#z30591 path[clip-path="url(#z30591c14)"] {animation-delay:14s;}
#z30591 path {fill:#ccc;}
]]>
</style>
<path id="z30591d1" d="M528 230Q532 193 538 161L541 134Q542 130 543 126Q544 114 553 92Q557 82 539 69Q508 53 487 48Q474 45 466 53Q459 59 466 72Q485 93 489 235L528 230 Z"/>
<path id="z30591d2" d="M538 161Q574 170 676 151Q682 150 691 148Q709 144 711 142Q720 135 715 127Q708 117 682 110Q667 107 589 126Q565 130 541 134L538 161 Z"/>
<path id="z30591d3" d="M278 262Q268 240 257 231Q239 215 235 242Q239 275 195 321Q156 351 183 417Q196 445 219 418L276 296L278 262 Z"/>
<path id="z30591d4" d="M276 296Q291 302 336 295Q441 262 683 240Q725 236 739 239Q752 249 751 255Q751 259 715 329Q706 342 713 347Q720 351 738 341Q796 307 842 296Q881 286 880 277Q879 267 809 211Q784 190 726 204Q599 216 528 230L489 235Q437 239 376 250Q327 257 278 262L276 296 Z"/>
<path id="z30591d5" d="M379 339Q354 343 374 357Q404 378 427 371Q511 350 622 333Q631 334 638 323Q639 313 619 304Q586 288 525 310Q515 311 504 315Q474 322 379 339 Z"/>
<path id="z30591d6" d="M318 421Q300 445 223 528Q213 541 228 539Q280 511 309 491Q366 449 391 440Q410 433 401 417Q391 401 368 388Q349 375 337 377Q327 378 329 389Q330 405 318 421 Z"/>
<path id="z30591d7" d="M652 426Q731 490 746 490Q756 489 761 476Q765 461 755 433Q743 402 645 381Q629 378 624 381Q620 385 621 397Q625 407 652 426 Z"/>
<path id="z30591d8" d="M373 591Q416 554 453 515Q495 470 521 446L538 429Q545 420 544 412Q541 399 517 390Q489 378 478 380Q471 381 466 394Q427 523 98 736Q76 749 103 748Q184 745 309 642Q331 624 354 607L373 591 Z"/>
<path id="z30591d9" d="M521 446Q768 645 818 652Q885 652 974 619Q990 615 992 609Q993 602 978 599Q780 557 750 544Q741 540 735 537Q678 513 538 429L521 446 Z"/>
<path id="z30591d10" d="M402 607Q396 601 373 591L354 607Q369 652 369 757Q369 805 361 845Q348 890 380 928Q389 938 397 928Q406 916 407 902L409 870Q409 864 410 810L410 785Q410 751 410 725L411 700Q411 640 414 635L402 607 Z"/>
<path id="z30591d11" d="M595 885Q611 910 626 938Q638 959 649 960Q659 960 668 936Q680 897 674 786Q662 654 672 620Q681 598 668 589Q659 579 623 562Q605 553 567 568Q500 592 402 607L414 635Q426 635 443 631Q498 613 570 606Q592 603 598 611Q607 621 612 779Q615 836 609 847Q605 854 596 854L595 885 Z"/>
<path id="z30591d12" d="M410 725Q411 725 416 725Q501 712 563 705Q584 702 577 691Q567 678 545 673Q515 669 411 700L410 725 Z"/>
<path id="z30591d13" d="M410 810Q414 811 424 810Q509 797 571 791Q593 787 585 775Q575 762 551 756Q526 753 410 785L410 810 Z"/>
<path id="z30591d14" d="M407 902Q413 902 420 901Q475 891 595 885L596 854Q592 851 588 848Q573 839 544 846Q469 862 409 870L407 902 Z"/>
<defs>
	<clipPath id="z30591c1"><use xlink:href="#z30591d1"/></clipPath>
	<clipPath id="z30591c2"><use xlink:href="#z30591d2"/></clipPath>
	<clipPath id="z30591c3"><use xlink:href="#z30591d3"/></clipPath>
	<clipPath id="z30591c4"><use xlink:href="#z30591d4"/></clipPath>
	<clipPath id="z30591c5"><use xlink:href="#z30591d5"/></clipPath>
	<clipPath id="z30591c6"><use xlink:href="#z30591d6"/></clipPath>
	<clipPath id="z30591c7"><use xlink:href="#z30591d7"/></clipPath>
	<clipPath id="z30591c8"><use xlink:href="#z30591d8"/></clipPath>
	<clipPath id="z30591c9"><use xlink:href="#z30591d9"/></clipPath>
	<clipPath id="z30591c10"><use xlink:href="#z30591d10"/></clipPath>
	<clipPath id="z30591c11"><use xlink:href="#z30591d11"/></clipPath>
	<clipPath id="z30591c12"><use xlink:href="#z30591d12"/></clipPath>
	<clipPath id="z30591c13"><use xlink:href="#z30591d13"/></clipPath>
	<clipPath id="z30591c14"><use xlink:href="#z30591d14"/></clipPath>
</defs>
<path pathLength="3333" clip-path="url(#z30591c1)" d="M471 59L517 102L500 231"/>
<path pathLength="3333" clip-path="url(#z30591c2)" d="M545 154L712 129"/>
<path pathLength="3333" clip-path="url(#z30591c3)" d="M245 234L253 281L194 425"/>
<path pathLength="3333" clip-path="url(#z30591c4)" d="M285 290L746 219L807 261L827 294L719 343"/>
<path pathLength="3333" clip-path="url(#z30591c5)" d="M377 349L630 318"/>
<path pathLength="3333" clip-path="url(#z30591c6)" d="M337 384L352 436L227 533"/>
<path pathLength="3333" clip-path="url(#z30591c7)" d="M629 388L754 480"/>
<path pathLength="3333" clip-path="url(#z30591c8)" d="M540 412L489 422L404 530L283 634L98 744"/>
<path pathLength="3333" clip-path="url(#z30591c9)" d="M533 441L810 605L985 605"/>
<path pathLength="3333" clip-path="url(#z30591c10)" d="M373 598L387 927"/>
<path pathLength="3333" clip-path="url(#z30591c11)" d="M409 608L592 582L630 599L645 953"/>
<path pathLength="3333" clip-path="url(#z30591c12)" d="M417 717L573 692"/>
<path pathLength="3333" clip-path="url(#z30591c13)" d="M418 802L579 781"/>
<path pathLength="3333" clip-path="url(#z30591c14)" d="M411 895L595 867"/>
</svg>