<!--
AnimCJK 2016-2018 Copyright Francois Mizessyn - https://github.com/parsimonhi/animCJK
Derived from:
    MakeMeAHanzi project - https://github.com/skishore/makemeahanzi
    Arphic PL KaitiM GB - https://apps.ubuntu.com/cat/applications/precise/fonts-arphic-gkai00mp/
    Arphic PL UKai - https://apps.ubuntu.com/cat/applications/fonts-arphic-ukai/
You can redistribute and/or modify this file under the terms of the Arphic Public License
as published by Arphic Technology Co., Ltd.
You should have received a copy of this license (the directory "APL") along with this file;
if not, see http://ftp.gnu.org/non-gnu/chinese-fonts-truetype/LICENSE.
-->
<svg id="z30605" class="acjk" version="1.1" viewBox="0 0 1024 1024" xmlns="http://www.w3.org/2000/svg" xmlns:xlink="http://www.w3.org/1999/xlink">
<style>
<![CDATA[
@keyframes z30605k {
	from {
		stroke:#ccc;
		stroke-dashoffset:3334;
	}
	1% {
		stroke:#c00;
		stroke-dashoffset:3334;
	}
	75% {
		stroke:#c00;
		stroke-dashoffset:0;
	}
	to {
		stroke:#000;
	}
}
#z30605 path[clip-path] {
	animation:z30605k 1s linear both;
	stroke-dasharray:3334;
	stroke-width:128;
	stroke-linecap:round;
	fill:none;
}
#z30605 path[clip-path="url(#z30605c1)"] {animation-delay:1s;}
#z30605 path[clip-path="url(#z30605c2)"] {animation-delay:2s;}
#z30605 path[clip-path="url(#z30605c3)"] {animation-delay:3s;}
#z30605 path[clip-path="url(#z30605c4)"] {animation-delay:4s;}
#z30605 path[clip-path="url(#z30605c5)"] {animation-delay:5s;}
#z30605 path[clip-path="url(#z30605c6)"] {animation-delay:6s;}
#z30605 path[clip-path="url(#z30605c7)"] {animation-delay:7s;}
#z30605 path[clip-path="url(#z30605c8)"] {animation-delay:8s;}
#z30605 path[clip-path="url(#z30605c9)"] {animation-delay:9s;}
#z30605 path[clip-path="url(#z30605c10)"] {animation-delay:10s;}
#z30605 path[clip-path="url(#z30605c11)"] {animation-delay:11s;}
#z30605 path[clip-path="url(#z30605c12)"] {animation-delay:12s;}
#z30605 path[clip-path="url(#z30605c13)"] {animation-delay:13s;}
#z30605 path[clip-path="url(#z30605c14)"] {animation-delay:14s;}
#z30605 path {fill:#ccc;}
]]>
</style>
<path id="z30605d1" d="M185 240Q172 224 146 215Q137 211 126 215Q119 219 124 231Q146 301 149 341Q161 584 126 724Q113 778 146 819Q156 832 166 820Q179 804 178 784Q178 780 179 774L182 743Q182 727 183 607L183 575Q184 505 186 451L186 417Q189 288 191 275Q191 271 191 267L185 240 Z"/>
<path id="z30605d2" d="M279 761Q289 777 302 795Q318 819 325 816Q338 813 354 776Q369 736 363 682Q336 310 364 257Q374 241 366 229Q359 219 310 205Q286 196 269 206Q223 230 185 240L191 267Q209 264 259 250Q281 243 290 250Q306 266 305 326Q309 576 299 712Q302 731 287 733L279 761 Z"/>
<path id="z30605d3" d="M186 451Q229 444 264 440Q286 436 277 423Q267 410 243 407Q221 406 186 417L186 451 Z"/>
<path id="z30605d4" d="M183 607Q232 600 268 596Q290 592 281 579Q271 566 247 563Q225 562 186 573Q185 574 183 575L183 607 Z"/>
<path id="z30605d5" d="M179 774Q183 774 189 773Q217 766 279 761L287 733Q283 730 278 727Q268 721 182 743L179 774 Z"/>
<path id="z30605d6" d="M449 301Q461 295 527 259Q543 246 563 238Q582 231 573 216Q563 201 541 188Q522 176 511 178Q501 179 503 190Q506 211 471 253Q456 269 441 288L449 301 Z"/>
<path id="z30605d7" d="M499 472Q498 460 493 448Q483 414 474 389L467 365Q452 319 450 304Q449 303 449 301L441 288Q431 284 398 282Q388 281 385 285Q379 292 389 305Q426 363 454 463Q461 493 480 512Q499 528 501 514Q502 507 502 496L499 472 Z"/>
<path id="z30605d8" d="M474 389Q475 389 478 389Q529 376 566 368Q588 362 578 351Q566 338 542 338Q494 338 467 365L474 389 Z"/>
<path id="z30605d9" d="M751 464Q778 515 816 450Q849 308 879 274Q894 258 882 242Q867 224 840 204Q825 197 810 201Q758 219 698 226Q679 227 682 237Q686 247 702 253Q708 253 774 242Q798 236 806 241Q813 248 807 275Q801 297 796 318L788 351Q779 384 771 415Q767 437 752 436Q748 435 747 438L751 464 Z"/>
<path id="z30605d10" d="M796 318Q772 306 696 332Q680 335 698 350L788 351L796 318 Z"/>
<path id="z30605d11" d="M646 478Q701 469 751 464L747 438Q735 426 681 437Q663 440 647 444L609 452Q551 462 499 472L502 496Q509 497 525 495Q567 488 608 483L646 478 Z"/>
<path id="z30605d12" d="M644 546Q645 512 646 478L647 444Q651 204 669 114Q672 104 653 90Q619 74 597 69Q581 66 574 75Q567 82 575 96Q603 136 604 164Q611 300 609 452L608 483Q607 519 605 558L644 546 Z"/>
<path id="z30605d13" d="M653 762Q693 708 732 626Q745 599 765 582Q784 567 772 554Q760 541 730 529Q706 520 644 546L605 558Q604 557 602 558Q557 571 483 579Q470 580 465 587Q461 594 479 601Q515 614 563 600Q647 573 662 574Q681 577 676 598Q658 664 613 734L588 761Q522 827 385 861Q372 865 382 873Q388 877 433 875Q530 868 621 795L653 762 Z"/>
<path id="z30605d14" d="M621 795Q739 903 781 907Q841 907 932 886Q966 879 963 869Q962 865 927 857Q750 823 665 769Q659 766 653 762L613 734Q567 698 520 655Q484 622 453 624Q437 625 434 630Q433 636 447 644Q490 666 588 761L621 795 Z"/>
<defs>
	<clipPath id="z30605c1"><use xlink:href="#z30605d1"/></clipPath>
	<clipPath id="z30605c2"><use xlink:href="#z30605d2"/></clipPath>
	<clipPath id="z30605c3"><use xlink:href="#z30605d3"/></clipPath>
	<clipPath id="z30605c4"><use xlink:href="#z30605d4"/></clipPath>
	<clipPath id="z30605c5"><use xlink:href="#z30605d5"/></clipPath>
	<clipPath id="z30605c6"><use xlink:href="#z30605d6"/></clipPath>
	<clipPath id="z30605c7"><use xlink:href="#z30605d7"/></clipPath>
	<clipPath id="z30605c8"><use xlink:href="#z30605d8"/></clipPath>
	<clipPath id="z30605c9"><use xlink:href="#z30605d9"/></clipPath>
	<clipPath id="z30605c10"><use xlink:href="#z30605d10"/></clipPath>
	<clipPath id="z30605c11"><use xlink:href="#z30605d11"/></clipPath>
	<clipPath id="z30605c12"><use xlink:href="#z30605d12"/></clipPath>
	<clipPath id="z30605c13"><use xlink:href="#z30605d13"/></clipPath>
	<clipPath id="z30605c14"><use xlink:href="#z30605d14"/></clipPath>
</defs>
<path pathLength="3333" clip-path="url(#z30605c1)" d="M131 218L168 319L158 819"/>
<path pathLength="3333" clip-path="url(#z30605c2)" d="M193 246L289 224L335 255L332 703L310 804"/>
<path pathLength="3333" clip-path="url(#z30605c3)" d="M194 442L274 427"/>
<path pathLength="3333" clip-path="url(#z30605c4)" d="M186 599L276 580"/>
<path pathLength="3333" clip-path="url(#z30605c5)" d="M188 765L282 747"/>
<path pathLength="3333" clip-path="url(#z30605c6)" d="M570 227L521 216L448 294"/>
<path pathLength="3333" clip-path="url(#z30605c7)" d="M391 291L424 312L494 512"/>
<path pathLength="3333" clip-path="url(#z30605c8)" d="M480 381L576 355"/>
<path pathLength="3333" clip-path="url(#z30605c9)" d="M689 234L811 219L847 254L792 438L768 460L750 448"/>
<path pathLength="3333" clip-path="url(#z30605c10)" d="M699 341L793 329"/>
<path pathLength="3333" clip-path="url(#z30605c11)" d="M507 478L748 451"/>
<path pathLength="3333" clip-path="url(#z30605c12)" d="M576 78L634 127L618 553"/>
<path pathLength="3333" clip-path="url(#z30605c13)" d="M470 588L670 554L726 580L590 790L493 844L383 868"/>
<path pathLength="3333" clip-path="url(#z30605c14)" d="M441 631L759 856L955 873"/>
</svg>