<!--
AnimCJK 2016-2019 Copyright Francois Mizessyn - https://github.com/parsimonhi/animCJK
Derived from:
    MakeMeAHanzi project - https://github.com/skishore/makemeahanzi
    Arphic PL KaitiM GB font
    Arphic PL UKai font
You can redistribute and/or modify this file under the terms of the Arphic Public License
as published by Arphic Technology Co., Ltd.
You should have received a copy of this license along with this file.
If not, see http://ftp.gnu.org/non-gnu/chinese-fonts-truetype/LICENSE.
-->
<svg id="z30623" class="acjk" version="1.1" viewBox="0 0 1024 1024" xmlns="http://www.w3.org/2000/svg" xmlns:xlink="http://www.w3.org/1999/xlink">
<style>
<![CDATA[
@keyframes zk {
	to {
		stroke-dashoffset:0;
	}
}
svg.acjk path[clip-path] {
	--t:0.8s;
	animation:zk var(--t) linear forwards var(--d);
	stroke-dasharray:3337;
	stroke-dashoffset:3339;
	stroke-width:128;
	stroke-linecap:round;
	fill:none;
	stroke:#000;
}
svg.acjk path[id] {fill:#ccc;}
]]>
</style>
<path id="z30623d1" d="M155 239Q143 227 121 220Q111 216 100 219Q93 225 99 237Q102 249 107 260Q137 323 119 600Q115 640 104 689Q91 744 125 787Q135 800 146 787Q158 772 159 748C161 726 161 726 162 715Q162 700 163 559C164 539 164 539 164 529Q164 472 165 430C165 410 165 410 165 400Q166 292 168 281Q169 271 169 264C169 254 163 245 155 239Z"/>
<path id="z30623d2" d="M253 739Q263 755 275 772Q290 794 297 792Q310 789 324 754Q339 715 334 665Q307 311 334 260Q344 244 337 233Q330 223 284 208Q262 201 246 209Q197 230 155 239C146 241 160 266 169 264Q173 263 181 261Q203 257 231 251Q256 245 264 253Q279 268 279 325Q283 563 272 694Q275 710 264 713C255 716 247 731 253 739Z"/>
<path id="z30623d3" d="M165 430Q208 421 242 417Q261 413 253 402Q243 390 222 388Q180 385 165 400C158 407 155 432 165 430Z"/>
<path id="z30623d4" d="M163 559Q206 552 241 548Q260 545 253 534Q244 522 223 519Q204 516 169 527Q166 528 164 529C155 532 153 561 163 559Z"/>
<path id="z30623d5" d="M159 748Q190 741 253 739C262 739 271 719 264 713Q260 709 254 705Q242 699 162 715C151 717 148 750 159 748Z"/>
<path id="z30623d6" d="M668 158Q791 134 798 128Q805 121 802 114Q796 104 772 97Q751 91 646 121Q556 140 469 149Q438 153 459 168Q474 175 506 183C520 186 536 182 550 179Q592 170 636 163C657 160 657 160 668 158Z"/>
<path id="z30623d7" d="M437 278Q427 274 410 272Q400 271 396 274Q392 280 399 294Q424 340 440 416Q443 438 457 454Q473 473 478 459Q481 450 481 437C479 421 479 421 478 413Q478 412 460 309C458 296 449 283 437 278Z"/>
<path id="z30623d8" d="M748 403Q764 430 781 438Q791 445 805 426Q814 413 837 341Q846 311 868 288Q881 276 870 263Q855 247 815 222Q796 213 781 219Q747 226 702 234C667 239 667 239 650 242Q613 246 575 254C548 259 548 259 534 261Q479 271 437 278C424 281 448 314 460 309Q459 308 462 308Q493 299 539 291C564 286 564 286 576 284Q609 277 649 272C680 268 680 268 696 266Q712 262 730 261Q767 255 780 269Q787 276 786 286Q774 368 759 381C754 387 743 396 748 403Z"/>
<path id="z30623d9" d="M506 183Q506 184 508 187Q526 220 534 261C537 281 537 281 539 291Q543 330 552 401C554 411 583 406 583 396Q579 329 576 284C575 264 575 264 575 254Q575 191 554 181Q551 180 550 179C537 171 499 170 506 183Z"/>
<path id="z30623d10" d="M702 234Q705 222 715 197Q718 188 703 176Q684 164 668 158C658 154 636 152 636 163Q635 167 639 174Q652 196 650 242C649 262 649 262 649 272Q648 326 642 386C640 398 675 391 677 379Q686 321 696 266C700 245 700 245 702 234Z"/>
<path id="z30623d11" d="M481 437Q493 438 508 436Q644 414 748 403C756 401 766 385 759 381Q752 375 741 373Q711 367 677 379C654 384 654 384 642 386Q611 390 583 396C562 399 562 399 552 401Q512 405 478 413C470 414 473 437 481 437Z"/>
<path id="z30623d12" d="M510 504Q474 510 499 526Q532 547 609 536Q661 527 717 517Q745 511 750 507Q759 500 755 492Q748 480 720 472Q692 466 661 477Q630 487 594 494Q555 501 510 504Z"/>
<path id="z30623d13" d="M639 627Q729 615 911 615Q930 615 935 606Q941 596 924 582Q873 545 838 553Q727 577 392 623Q371 624 387 641Q400 654 418 659Q437 665 454 660Q520 642 594 633C624 629 624 629 639 627Z"/>
<path id="z30623d14" d="M594 633Q607 669 607 779Q607 830 602 842Q598 854 576 849Q554 843 528 838Q516 837 515 844Q514 850 523 859Q581 914 600 945Q613 958 624 957Q636 953 648 919Q666 885 664 821Q661 733 662 700Q669 658 651 637Q645 631 639 627C627 618 588 619 594 633Z"/>
<path id="z30623d15" d="M460 716Q435 753 402 783Q378 810 388 842Q392 860 413 852Q459 830 473 772Q483 744 482 720Q479 713 474 710Q465 709 460 716Z"/>
<path id="z30623d16" d="M760 727Q803 770 855 832Q870 853 885 858Q892 859 901 849Q914 837 903 793Q894 753 828 723Q785 704 762 696Q753 692 751 703Q750 716 760 727Z"/>
<defs>
	<clipPath id="z30623c1"><use xlink:href="#z30623d1"/></clipPath>
	<clipPath id="z30623c2"><use xlink:href="#z30623d2"/></clipPath>
	<clipPath id="z30623c3"><use xlink:href="#z30623d3"/></clipPath>
	<clipPath id="z30623c4"><use xlink:href="#z30623d4"/></clipPath>
	<clipPath id="z30623c5"><use xlink:href="#z30623d5"/></clipPath>
	<clipPath id="z30623c6"><use xlink:href="#z30623d6"/></clipPath>
	<clipPath id="z30623c7"><use xlink:href="#z30623d7"/></clipPath>
	<clipPath id="z30623c8"><use xlink:href="#z30623d8"/></clipPath>
	<clipPath id="z30623c9"><use xlink:href="#z30623d9"/></clipPath>
	<clipPath id="z30623c10"><use xlink:href="#z30623d10"/></clipPath>
	<clipPath id="z30623c11"><use xlink:href="#z30623d11"/></clipPath>
	<clipPath id="z30623c12"><use xlink:href="#z30623d12"/></clipPath>
	<clipPath id="z30623c13"><use xlink:href="#z30623d13"/></clipPath>
	<clipPath id="z30623c14"><use xlink:href="#z30623d14"/></clipPath>
	<clipPath id="z30623c15"><use xlink:href="#z30623d15"/></clipPath>
	<clipPath id="z30623c16"><use xlink:href="#z30623d16"/></clipPath>
</defs>
<path style="--d:1s;" pathLength="3333" clip-path="url(#z30623c1)" d="M103 225L142 273L134 788"/>
<path style="--d:2s;" pathLength="3333" clip-path="url(#z30623c2)" d="M164 245L265 228L306 257L304 683L284 781"/>
<path style="--d:3s;" pathLength="3333" clip-path="url(#z30623c3)" d="M173 421L250 406"/>
<path style="--d:4s;" pathLength="3333" clip-path="url(#z30623c4)" d="M168 550L249 538"/>
<path style="--d:5s;" pathLength="3333" clip-path="url(#z30623c5)" d="M167 740L258 719"/>
<path style="--d:6s;" pathLength="3333" clip-path="url(#z30623c6)" d="M461 159L798 115"/>
<path style="--d:7s;" pathLength="3333" clip-path="url(#z30623c7)" d="M403 282L438 321L469 460"/>
<path style="--d:8s;" pathLength="3333" clip-path="url(#z30623c8)" d="M447 282L789 242L830 277L770 429"/>
<path style="--d:9s;" pathLength="3333" clip-path="url(#z30623c9)" d="M515 187L549 223L564 398"/>
<path style="--d:10s;" pathLength="3333" clip-path="url(#z30623c10)" d="M645 167L682 200L652 380"/>
<path style="--d:11s;" pathLength="3333" clip-path="url(#z30623c11)" d="M484 416L752 382"/>
<path style="--d:12s;" pathLength="3333" clip-path="url(#z30623c12)" d="M498 514L752 495"/>
<path style="--d:13s;" pathLength="3333" clip-path="url(#z30623c13)" d="M387 630L441 639L853 583L931 594"/>
<path style="--d:14s;" pathLength="3333" clip-path="url(#z30623c14)" d="M601 636L633 673L629 870L603 903L521 847"/>
<path style="--d:15s;" pathLength="3333" clip-path="url(#z30623c15)" d="M471 718L400 850"/>
<path style="--d:16s;" pathLength="3333" clip-path="url(#z30623c16)" d="M759 704L858 782L883 852"/>
</svg>