<!--
AnimCJK 2016-2019 Copyright Francois Mizessyn - https://github.com/parsimonhi/animCJK
Derived from:
    MakeMeAHanzi project - https://github.com/skishore/makemeahanzi
    Arphic PL KaitiM GB font
    Arphic PL UKai font
You can redistribute and/or modify this file under the terms of the Arphic Public License
as published by Arphic Technology Co., Ltd.
You should have received a copy of this license along with this file.
If not, see http://ftp.gnu.org/non-gnu/chinese-fonts-truetype/LICENSE.
-->
<svg id="z30683" class="acjk" version="1.1" viewBox="0 0 1024 1024" xmlns="http://www.w3.org/2000/svg" xmlns:xlink="http://www.w3.org/1999/xlink">
<style>
<![CDATA[
@keyframes zk {
	to {
		stroke-dashoffset:0;
	}
}
svg.acjk path[clip-path] {
	--t:0.8s;
	animation:zk var(--t) linear forwards var(--d);
	stroke-dasharray:3337;
	stroke-dashoffset:3339;
	stroke-width:128;
	stroke-linecap:round;
	fill:none;
	stroke:#000;
}
svg.acjk path[id] {fill:#ccc;}
]]>
</style>
<path id="z30683d1" d="M534 281Q660 182 711 168Q733 162 727 144Q724 125 653 83Q632 70 608 79Q530 104 414 134Q384 143 311 137Q286 136 294 159Q303 172 323 186Q357 205 394 184Q424 174 579 129Q592 123 605 130Q618 137 612 152Q567 206 515 270C510 276 528 285 534 281Z"/>
<path id="z30683d2" d="M515 270Q440 240 424 249Q420 253 421 265Q422 271 522 354Q535 366 550 365Q560 364 565 352Q569 337 560 309Q554 293 534 281C521 274 521 274 515 270Z"/>
<path id="z30683d3" d="M528 413Q646 394 764 382Q804 376 807 394Q806 413 766 479Q754 498 764 502Q771 509 788 495Q885 434 924 423Q954 419 953 401Q952 385 864 334Q837 321 803 327Q640 363 501 385Q344 404 123 425Q89 426 113 456Q132 481 192 466Q322 442 451 425C502 417 502 417 528 413Z"/>
<path id="z30683d4" d="M515 453Q543 526 546 626Q550 693 539 752Q530 809 515 822Q506 828 424 811Q394 802 384 808Q377 809 396 824Q465 881 503 930Q524 952 545 941Q570 926 590 863Q617 772 606 621Q602 513 577 468Q559 434 528 413C517 405 510 440 515 453Z"/>
<path id="z30683d5" d="M451 425Q445 450 422 483Q358 574 285 635Q224 690 100 770Q78 785 98 787Q132 793 249 731Q319 691 408 596Q459 542 488 493Q503 468 515 453C559 395 465 354 451 425Z"/>
<defs>
	<clipPath id="z30683c1"><use xlink:href="#z30683d1"/></clipPath>
	<clipPath id="z30683c2"><use xlink:href="#z30683d2"/></clipPath>
	<clipPath id="z30683c3"><use xlink:href="#z30683d3"/></clipPath>
	<clipPath id="z30683c4"><use xlink:href="#z30683d4"/></clipPath>
	<clipPath id="z30683c5"><use xlink:href="#z30683d5"/></clipPath>
</defs>
<path style="--d:1s;" pathLength="3333" clip-path="url(#z30683c1)" d="M300 151L365 167L629 106L672 154L524 274"/>
<path style="--d:2s;" pathLength="3333" clip-path="url(#z30683c2)" d="M429 256L561 353"/>
<path style="--d:3s;" pathLength="3333" clip-path="url(#z30683c3)" d="M111 437L181 444L800 354L840 364L899 410L769 499"/>
<path style="--d:4s;" pathLength="3333" clip-path="url(#z30683c4)" d="M531 420L576 618L561 822L520 892L389 811"/>
<path style="--d:5s;" pathLength="3333" clip-path="url(#z30683c5)" d="M519 421L306 655L96 781"/>
</svg>