<!--
AnimCJK 2016-2017 Copyright Francois Mizessyn, https://github.com/parsimonhi/animCJK
Derived from:
    MakeMeAHanzi project - https://github.com/skishore/makemeahanzi
    Arphic PL KaitiM GB - https://apps.ubuntu.com/cat/applications/precise/fonts-arphic-gkai00mp/
    Arphic PL UKai - https://apps.ubuntu.com/cat/applications/fonts-arphic-ukai/
You can redistribute and/or modify this file under the terms of the Arphic Public License
as published by Arphic Technology Co., Ltd.
You should have received a copy of this license (the directory "APL") along with this file;
if not, see http://ftp.gnu.org/non-gnu/chinese-fonts-truetype/LICENSE.
-->
<svg id="z30699" class="acjk" version="1.1" viewBox="0 0 1024 1024" xmlns="http://www.w3.org/2000/svg" xmlns:xlink="http://www.w3.org/1999/xlink">
<style>
<![CDATA[
@keyframes z30699k {
	from {
		stroke:#c00;
		stroke-dashoffset:3000;
	}
	75% {
		stroke:#c00;
		stroke-dashoffset:0;
	}
	to {
		stroke:#000;
	}
}
#z30699 path[clip-path] {
	animation:z30699k 1s linear both;
	stroke-dasharray:3000;
	stroke-width:128;
	stroke-linecap:round;
	fill:none;
}
#z30699 path[clip-path="url(#z30699c1)"] {animation-delay:1s;}
#z30699 path[clip-path="url(#z30699c2)"] {animation-delay:2s;}
#z30699 path[clip-path="url(#z30699c3)"] {animation-delay:3s;}
#z30699 path[clip-path="url(#z30699c4)"] {animation-delay:4s;}
#z30699 path[clip-path="url(#z30699c5)"] {animation-delay:5s;}
#z30699 path[clip-path="url(#z30699c6)"] {animation-delay:6s;}
#z30699 path[clip-path="url(#z30699c7)"] {animation-delay:7s;}
#z30699 path[clip-path="url(#z30699c8)"] {animation-delay:8s;}
#z30699 path[clip-path="url(#z30699c9)"] {animation-delay:9s;}
#z30699 path[clip-path="url(#z30699c10)"] {animation-delay:10s;}
#z30699 path[clip-path="url(#z30699c11)"] {animation-delay:11s;}
#z30699 path {fill:#ccc;}
]]>
</style>
<path id="z30699d1" d="M226 356Q226 355 227 355Q263 304 301 228Q317 194 332 176Q339 164 333 152Q329 140 298 121Q271 108 253 109Q235 113 245 133Q281 193 131 438Q122 448 121 455Q120 465 132 462Q162 449 214 374L226 356 Z"/>
<path id="z30699d2" d="M307 380Q316 376 419 343Q443 336 446 331Q453 322 448 315Q441 305 411 301Q390 300 310 332Q304 333 299 336Q269 345 226 356L214 374Q232 383 256 387L307 380 Z"/>
<path id="z30699d3" d="M318 538Q367 525 431 512Q447 509 447 502Q447 489 429 482Q404 472 382 479Q351 488 325 496L271 511Q139 545 74 555Q62 556 60 565Q57 575 73 585Q109 607 149 594Q216 566 266 552L318 538 Z"/>
<path id="z30699d4" d="M301 620Q317 566 318 538L325 496Q335 438 344 422Q351 403 336 396Q321 386 307 380L256 387Q275 457 271 511L266 552Q242 708 105 817Q90 829 75 841Q62 851 74 852Q131 852 208 776Q250 737 270 695Q277 676 287 657Q290 650 293 641L301 620 Z"/>
<path id="z30699d5" d="M293 641Q336 683 387 744Q399 760 411 764Q418 765 425 758Q435 748 426 712Q417 667 301 620L293 641 Z"/>
<path id="z30699d6" d="M615 216Q745 171 761 168Q777 167 781 160Q785 150 773 139Q754 123 711 106Q696 99 684 100Q677 104 676 114Q676 150 485 237Q481 244 485 248Q497 248 577 227L615 216 Z"/>
<path id="z30699d7" d="M686 353Q713 344 839 326Q849 327 858 314Q859 302 835 293Q807 272 711 303Q692 306 621 327L565 338Q544 339 455 355Q427 359 449 376Q482 397 522 390Q532 387 546 385L601 372Q628 365 659 358L686 353 Z"/>
<path id="z30699d8" d="M621 327Q640 282 654 267Q661 258 659 251Q650 227 615 216L577 227Q592 245 582 287Q576 306 565 338L546 385Q503 482 398 586Q388 598 397 600Q413 604 478 552Q547 492 601 372L621 327 Z"/>
<path id="z30699d9" d="M659 358Q797 565 841 572Q913 572 967 561Q974 560 976 555Q976 551 965 544Q844 496 764 427Q725 393 686 353L659 358 Z"/>
<path id="z30699d10" d="M529 568Q553 598 537 695Q536 698 536 701Q518 785 430 855Q420 864 430 865Q469 865 524 812Q579 760 591 668Q594 617 606 591Q613 575 598 569Q555 542 534 551Q524 555 529 568 Z"/>
<path id="z30699d11" d="M674 533Q695 566 680 788Q679 789 679 793Q673 905 719 930Q719 929 720 930Q730 931 736 918Q746 887 743 857Q733 608 740 562Q741 550 735 544Q711 525 693 516Q681 513 672 520Q666 524 674 533 Z"/>
<defs>
	<clipPath id="z30699c1"><use xlink:href="#z30699d1"/></clipPath>
	<clipPath id="z30699c2"><use xlink:href="#z30699d2"/></clipPath>
	<clipPath id="z30699c3"><use xlink:href="#z30699d3"/></clipPath>
	<clipPath id="z30699c4"><use xlink:href="#z30699d4"/></clipPath>
	<clipPath id="z30699c5"><use xlink:href="#z30699d5"/></clipPath>
	<clipPath id="z30699c6"><use xlink:href="#z30699d6"/></clipPath>
	<clipPath id="z30699c7"><use xlink:href="#z30699d7"/></clipPath>
	<clipPath id="z30699c8"><use xlink:href="#z30699d8"/></clipPath>
	<clipPath id="z30699c9"><use xlink:href="#z30699d9"/></clipPath>
	<clipPath id="z30699c10"><use xlink:href="#z30699d10"/></clipPath>
	<clipPath id="z30699c11"><use xlink:href="#z30699d11"/></clipPath>
</defs>
<path pathLength="2999" clip-path="url(#z30699c1)" d="M248 118L290 178L213 338L127 455"/>
<path pathLength="2999" clip-path="url(#z30699c2)" d="M221 370L443 317"/>
<path pathLength="2999" clip-path="url(#z30699c3)" d="M66 564L126 572L440 495"/>
<path pathLength="2999" clip-path="url(#z30699c4)" d="M263 393L305 421L266 644L200 753L78 847"/>
<path pathLength="2999" clip-path="url(#z30699c5)" d="M304 629L391 705L414 759"/>
<path pathLength="2999" clip-path="url(#z30699c6)" d="M779 157L690 145L490 240"/>
<path pathLength="2999" clip-path="url(#z30699c7)" d="M447 364L852 309"/>
<path pathLength="2999" clip-path="url(#z30699c8)" d="M585 230L622 265L554 418L480 525L400 594"/>
<path pathLength="2999" clip-path="url(#z30699c9)" d="M670 362L842 529L968 552"/>
<path pathLength="2999" clip-path="url(#z30699c10)" d="M533 555L574 587L556 717L518 790L436 857"/>
<path pathLength="2999" clip-path="url(#z30699c11)" d="M679 526L712 568L723 925"/>
</svg>