<!--
AnimCJK 2016-2019 Copyright Francois Mizessyn - https://github.com/parsimonhi/animCJK
Derived from:
    MakeMeAHanzi project - https://github.com/skishore/makemeahanzi
    Arphic PL KaitiM GB font
    Arphic PL UKai font
You can redistribute and/or modify this file under the terms of the Arphic Public License
as published by Arphic Technology Co., Ltd.
You should have received a copy of this license along with this file.
If not, see http://ftp.gnu.org/non-gnu/chinese-fonts-truetype/LICENSE.
-->
<svg id="z30710" class="acjk" version="1.1" viewBox="0 0 1024 1024" xmlns="http://www.w3.org/2000/svg" xmlns:xlink="http://www.w3.org/1999/xlink">
<style>
<![CDATA[
@keyframes zk {
	to {
		stroke-dashoffset:0;
	}
}
svg.acjk path[clip-path] {
	--t:0.8s;
	animation:zk var(--t) linear forwards var(--d);
	stroke-dasharray:3337;
	stroke-dashoffset:3339;
	stroke-width:128;
	stroke-linecap:round;
	fill:none;
	stroke:#000;
}
svg.acjk path[id] {fill:#ccc;}
]]>
</style>
<path id="z30710d1" d="M323 275C407 254 450 238 452 237C458 231 459 225 456 220C451 212 438 205 418 202C399 198 360 211 300 231C250 247 203 254 160 262C135 266 132 274 151 285C179 300 227 298 270 288C305 279 305 279 323 275Z"/>
<path id="z30710d2" d="M248 513C275 472 302 412 335 337C345 313 351 307 351 299C350 286 337 279 323 275C306 268 266 270 270 288C280 336 261 409 205 503C190 528 190 528 182 541C154 586 111 638 52 705C47 709 48 713 55 712C88 702 166 633 197 588C231 538 231 538 248 513Z"/>
<path id="z30710d3" d="M205 503C201 501 195 500 189 499C180 497 175 497 173 501C169 505 169 512 175 523C177 527 179 533 182 541C192 572 192 572 197 588C200 599 209 651 219 701C223 722 228 741 240 756C252 770 259 772 263 763C268 748 269 727 265 699C262 677 262 677 260 666C250 605 245 564 243 543C239 525 222 510 205 503Z"/>
<path id="z30710d4" d="M404 645C416 591 431 556 446 539C461 521 461 506 446 498C433 490 418 480 399 469C386 461 373 462 361 470C338 483 254 509 205 503C187 499 225 547 243 543C283 533 277 533 334 520C352 515 363 517 368 524C373 530 368 570 350 644C347 662 400 663 404 645Z"/>
<path id="z30710d5" d="M265 699C297 692 347 684 417 677C423 676 427 673 428 667C428 662 420 655 404 645C389 636 368 641 350 644C317 652 287 660 260 666C249 668 254 701 265 699Z"/>
<path id="z30710d6" d="M568 247C538 232 518 226 509 229C496 232 496 238 506 253C535 298 540 392 520 533C515 563 504 595 491 630C473 676 438 725 386 778C377 786 371 792 370 797C368 801 372 803 380 803C404 800 440 777 483 727C539 660 571 546 579 418C584 332 582 286 584 281C586 269 579 253 568 247Z"/>
<path id="z30710d7" d="M962 776C974 769 978 759 973 745C960 711 951 670 946 622C942 595 939 579 933 576C927 572 922 575 921 584C905 667 886 721 860 744C853 749 841 752 824 754C801 756 784 754 772 752C759 748 750 744 744 737C722 710 720 606 740 424C743 387 750 354 756 325C761 298 776 275 798 253C808 242 806 229 795 221C779 208 754 196 720 187C706 183 692 186 680 195C648 218 612 236 568 247C556 249 572 283 584 281C596 281 621 271 662 255C670 251 677 252 683 255C687 257 689 262 689 272C677 560 678 718 693 748C693 749 695 752 697 756C711 783 744 802 796 809C853 816 909 804 962 776Z"/>
<defs>
	<clipPath id="z30710c1"><use xlink:href="#z30710d1"/></clipPath>
	<clipPath id="z30710c2"><use xlink:href="#z30710d2"/></clipPath>
	<clipPath id="z30710c3"><use xlink:href="#z30710d3"/></clipPath>
	<clipPath id="z30710c4"><use xlink:href="#z30710d4"/></clipPath>
	<clipPath id="z30710c5"><use xlink:href="#z30710d5"/></clipPath>
	<clipPath id="z30710c6"><use xlink:href="#z30710d6"/></clipPath>
	<clipPath id="z30710c7"><use xlink:href="#z30710d7"/></clipPath>
</defs>
<path style="--d:1s;" pathLength="3333" clip-path="url(#z30710c1)" d="M145 271L233 272L453 224"/>
<path style="--d:2s;" pathLength="3333" clip-path="url(#z30710c2)" d="M283 293L314 313L266 432L185 571L57 705"/>
<path style="--d:3s;" pathLength="3333" clip-path="url(#z30710c3)" d="M179 505L215 553L254 763"/>
<path style="--d:4s;" pathLength="3333" clip-path="url(#z30710c4)" d="M211 509L246 520L358 495L397 504L413 526L380 633L361 641"/>
<path style="--d:5s;" pathLength="3333" clip-path="url(#z30710c5)" d="M272 692L347 665L422 667"/>
<path style="--d:6s;" pathLength="3333" clip-path="url(#z30710c6)" d="M504 236L552 284L541 539L484 690L377 798"/>
<path style="--d:7s;" pathLength="3333" clip-path="url(#z30710c7)" d="M576 251L694 221L749 245L704 561L727 756L819 783L913 751L932 730L927 583"/>
</svg>