<!--
AnimCJK 2016-2018 Copyright Francois Mizessyn, http://gooo.free.fr/animCJK/
Derived from:
    MakeMeAHanzi project - https://github.com/skishore/makemeahanzi
    Arphic PL KaitiM GB - https://apps.ubuntu.com/cat/applications/precise/fonts-arphic-gkai00mp/
    Arphic PL UKai - https://apps.ubuntu.com/cat/applications/fonts-arphic-ukai/
You can redistribute and/or modify this file under the terms of the Arphic Public License
as published by Arphic Technology Co., Ltd.
You should have received a copy of this license (the directory "APL") along with this file;
if not, see http://ftp.gnu.org/non-gnu/chinese-fonts-truetype/LICENSE.
-->
<svg id="z30729" class="acjk" version="1.1" viewBox="0 0 1024 1024" xmlns="http://www.w3.org/2000/svg" xmlns:xlink="http://www.w3.org/1999/xlink">
<style>
<![CDATA[
@keyframes z30729k {
	from {
		stroke:#ccc;
		stroke-dashoffset:3334;
	}
	1% {
		stroke:#c00;
		stroke-dashoffset:3334;
	}
	75% {
		stroke:#c00;
		stroke-dashoffset:0;
	}
	to {
		stroke:#000;
	}
}
#z30729 path[clip-path] {
	animation:z30729k 1s linear both;
	stroke-dasharray:3334;
	stroke-width:128;
	stroke-linecap:round;
	fill:none;
}
#z30729 path[clip-path="url(#z30729c1)"] {animation-delay:1s;}
#z30729 path[clip-path="url(#z30729c2)"] {animation-delay:2s;}
#z30729 path[clip-path="url(#z30729c3)"] {animation-delay:3s;}
#z30729 path[clip-path="url(#z30729c4)"] {animation-delay:4s;}
#z30729 path[clip-path="url(#z30729c5)"] {animation-delay:5s;}
#z30729 path[clip-path="url(#z30729c6)"] {animation-delay:6s;}
#z30729 path[clip-path="url(#z30729c7)"] {animation-delay:7s;}
#z30729 path[clip-path="url(#z30729c8)"] {animation-delay:8s;}
#z30729 path[clip-path="url(#z30729c9)"] {animation-delay:9s;}
#z30729 path {fill:#ccc;}
]]>
</style>
<path id="z30729d1" d="M545 234Q573 228 773 206Q785 209 795 194Q796 181 772 168Q733 144 645 167Q600 176 554 186Q550 187 547 188L492 198Q434 207 382 212Q325 216 262 224Q229 227 254 247Q291 277 320 272Q401 256 495 242L545 234 Z"/>
<path id="z30729d2" d="M541 335Q610 322 668 313Q696 309 685 293Q673 277 643 271Q598 264 543 287L496 299Q415 318 345 336Q326 340 349 358Q365 368 397 363Q448 353 496 344L541 335 Z"/>
<path id="z30729d3" d="M537 442Q618 430 737 428Q794 428 800 418Q804 406 789 394Q740 358 675 373Q620 385 538 402L496 409Q390 427 267 446Q248 449 263 465Q276 478 294 482Q315 486 330 482Q406 460 492 448Q493 447 495 448L537 442 Z"/>
<path id="z30729d4" d="M538 402Q539 368 541 335L543 287Q543 260 545 234L547 188Q550 154 554 135Q563 116 550 104Q534 91 506 78Q484 69 462 79Q450 86 465 103Q484 136 492 198L495 242Q496 269 496 299L496 344Q499 350 496 409L495 448Q491 491 503 525Q509 537 518 530Q533 518 537 442L538 402 Z"/>
<path id="z30729d5" d="M450 598Q561 577 776 556Q788 557 799 543Q800 530 774 516Q732 492 649 514Q427 554 292 570Q252 573 210 578Q176 582 202 603Q241 633 267 630Q279 624 403 605L450 598 Z"/>
<path id="z30729d6" d="M410 705Q449 665 467 652Q474 649 476 639Q476 620 450 598L403 605Q379 686 255 780Q251 781 249 784Q207 815 107 870Q100 873 108 877Q124 880 212 848Q213 847 217 846Q275 819 368 743L410 705 Z"/>
<path id="z30729d7" d="M416 708Q415 707 410 705L368 743Q387 795 398 872Q399 900 416 920Q432 942 439 927Q445 912 444 887L440 852Q430 771 426 742L416 708 Z"/>
<path id="z30729d8" d="M694 826Q724 748 752 731Q770 712 754 692Q738 679 682 652Q663 643 640 652Q547 691 416 708L426 742Q436 741 450 736Q538 720 621 703Q643 697 652 707Q664 719 639 821L694 826 Z"/>
<path id="z30729d9" d="M444 887Q453 888 466 887Q542 872 710 864Q720 863 723 854Q723 845 694 826L639 821Q527 843 440 852L444 887 Z"/>
<defs>
	<clipPath id="z30729c1"><use xlink:href="#z30729d1"/></clipPath>
	<clipPath id="z30729c2"><use xlink:href="#z30729d2"/></clipPath>
	<clipPath id="z30729c3"><use xlink:href="#z30729d3"/></clipPath>
	<clipPath id="z30729c4"><use xlink:href="#z30729d4"/></clipPath>
	<clipPath id="z30729c5"><use xlink:href="#z30729d5"/></clipPath>
	<clipPath id="z30729c6"><use xlink:href="#z30729d6"/></clipPath>
	<clipPath id="z30729c7"><use xlink:href="#z30729d7"/></clipPath>
	<clipPath id="z30729c8"><use xlink:href="#z30729d8"/></clipPath>
	<clipPath id="z30729c9"><use xlink:href="#z30729d9"/></clipPath>
</defs>
<path pathLength="3333" clip-path="url(#z30729c1)" d="M251 232L310 246L790 185"/>
<path pathLength="3333" clip-path="url(#z30729c2)" d="M345 343L682 298"/>
<path pathLength="3333" clip-path="url(#z30729c3)" d="M262 453L315 461L691 399L796 412"/>
<path pathLength="3333" clip-path="url(#z30729c4)" d="M463 84L519 135L512 524"/>
<path pathLength="3333" clip-path="url(#z30729c5)" d="M197 587L270 600L793 535"/>
<path pathLength="3333" clip-path="url(#z30729c6)" d="M471 633L422 641L267 795L115 871"/>
<path pathLength="3333" clip-path="url(#z30729c7)" d="M408 714L428 925"/>
<path pathLength="3333" clip-path="url(#z30729c8)" d="M424 711L667 679L708 722L653 821"/>
<path pathLength="3333" clip-path="url(#z30729c9)" d="M447 857L716 852"/>
</svg>