<!--
AnimCJK 2016-2019 Copyright Francois Mizessyn - https://github.com/parsimonhi/animCJK
Derived from:
    MakeMeAHanzi project - https://github.com/skishore/makemeahanzi
    Arphic PL KaitiM GB font
    Arphic PL UKai font
You can redistribute and/or modify this file under the terms of the Arphic Public License
as published by Arphic Technology Co., Ltd.
You should have received a copy of this license along with this file.
If not, see http://ftp.gnu.org/non-gnu/chinese-fonts-truetype/LICENSE.
-->
<svg id="z30729" class="acjk" version="1.1" viewBox="0 0 1024 1024" xmlns="http://www.w3.org/2000/svg" xmlns:xlink="http://www.w3.org/1999/xlink">
<style>
<![CDATA[
@keyframes zk {
	to {
		stroke-dashoffset:0;
	}
}
svg.acjk path[clip-path] {
	--t:0.8s;
	animation:zk var(--t) linear forwards var(--d);
	stroke-dasharray:3337;
	stroke-dashoffset:3339;
	stroke-width:128;
	stroke-linecap:round;
	fill:none;
	stroke:#000;
}
svg.acjk path[id] {fill:#ccc;}
]]>
</style>
<path id="z30729d1" d="M545 234C563 231 639 218 773 206C781 205 790 205 795 194C798 185 787 177 772 168C745 152 704 152 645 167C615 174 561 185 547 188C510 195 510 195 492 198C453 205 416 209 382 212C344 215 304 219 262 224C240 226 237 233 254 247C278 266 300 275 320 272C374 261 432 252 495 242C528 237 528 237 545 234Z"/>
<path id="z30729d2" d="M541 335C586 325 629 318 668 313C686 310 692 303 685 293C677 282 663 274 643 271C613 265 581 277 543 287C512 295 512 295 496 299C442 312 391 324 345 336C332 339 333 346 349 358C359 365 375 366 397 363C431 356 464 350 496 344C526 338 526 338 541 335Z"/>
<path id="z30729d3" d="M537 442C591 434 657 428 737 428C775 427 796 425 800 418C803 410 799 401 789 394C756 369 718 363 675 373C638 381 593 392 538 402C510 407 510 407 496 409C425 420 349 433 267 446C254 448 252 454 263 465C271 473 282 479 294 482C308 484 320 484 330 482C380 467 458 453 495 448C523 444 523 444 537 442Z"/>
<path id="z30729d4" d="M538 402C538 379 540 357 541 335C542 303 542 303 543 287C543 269 544 251 545 234C546 203 546 203 547 188C548 165 549 147 554 135C558 121 558 111 550 104C539 95 524 86 506 78C491 71 476 71 462 79C453 83 456 90 465 103C479 124 489 156 492 198C494 227 494 227 495 242C496 260 496 279 496 299C496 314 496 344 496 344C496 348 497 369 496 409C495 435 495 435 495 448C494 476 494 502 503 525C506 533 512 534 518 530C528 522 535 492 537 442C538 415 538 415 538 402Z"/>
<path id="z30729d5" d="M450 598C524 586 632 568 776 556C784 555 794 553 799 543C802 535 791 525 774 516C745 500 705 502 649 514C501 544 382 560 292 570C265 572 238 574 210 578C187 580 184 589 202 603C227 623 250 634 267 630C275 627 320 617 403 605C434 600 434 600 450 598Z"/>
<path id="z30729d6" d="M410 705C437 680 454 660 467 652C471 649 475 645 476 639C476 626 467 612 450 598C438 588 409 590 403 605C387 659 337 716 255 780C224 803 173 833 107 870C102 872 102 875 108 877C118 880 153 869 212 848C212 847 214 847 217 846C255 828 308 796 368 743C396 718 396 718 410 705Z"/>
<path id="z30729d7" d="M416 708C415 707 413 706 410 705C392 698 361 725 368 743C380 777 392 820 398 872C400 890 405 906 416 920C427 934 434 937 439 927C443 917 445 903 444 887C441 864 441 864 440 852C433 797 428 761 426 742C424 730 427 713 416 708Z"/>
<path id="z30729d8" d="M694 826C714 774 734 744 752 731C765 720 765 704 754 692C744 682 719 669 682 652C669 645 655 645 640 652C577 677 503 696 416 708C404 710 414 744 426 742C432 741 440 738 450 736C508 724 565 715 621 703C635 699 645 700 652 707C659 715 655 753 639 821C636 839 687 843 694 826Z"/>
<path id="z30729d9" d="M444 887C450 887 457 887 466 887C516 877 598 869 710 864C716 863 722 860 723 854C724 848 713 838 694 826C679 815 657 817 639 821C564 835 498 846 440 852C428 854 432 887 444 887Z"/>
<defs>
	<clipPath id="z30729c1"><use xlink:href="#z30729d1"/></clipPath>
	<clipPath id="z30729c2"><use xlink:href="#z30729d2"/></clipPath>
	<clipPath id="z30729c3"><use xlink:href="#z30729d3"/></clipPath>
	<clipPath id="z30729c4"><use xlink:href="#z30729d4"/></clipPath>
	<clipPath id="z30729c5"><use xlink:href="#z30729d5"/></clipPath>
	<clipPath id="z30729c6"><use xlink:href="#z30729d6"/></clipPath>
	<clipPath id="z30729c7"><use xlink:href="#z30729d7"/></clipPath>
	<clipPath id="z30729c8"><use xlink:href="#z30729d8"/></clipPath>
	<clipPath id="z30729c9"><use xlink:href="#z30729d9"/></clipPath>
</defs>
<path style="--d:1s;" pathLength="3333" clip-path="url(#z30729c1)" d="M251 232L310 246L790 185"/>
<path style="--d:2s;" pathLength="3333" clip-path="url(#z30729c2)" d="M345 343L682 298"/>
<path style="--d:3s;" pathLength="3333" clip-path="url(#z30729c3)" d="M262 453L315 461L691 399L796 412"/>
<path style="--d:4s;" pathLength="3333" clip-path="url(#z30729c4)" d="M463 84L519 135L512 524"/>
<path style="--d:5s;" pathLength="3333" clip-path="url(#z30729c5)" d="M197 587L270 600L793 535"/>
<path style="--d:6s;" pathLength="3333" clip-path="url(#z30729c6)" d="M413 611L439 637L267 795L115 871"/>
<path style="--d:7s;" pathLength="3333" clip-path="url(#z30729c7)" d="M408 714L428 925"/>
<path style="--d:8s;" pathLength="3333" clip-path="url(#z30729c8)" d="M424 711L667 679L708 722L653 821"/>
<path style="--d:9s;" pathLength="3333" clip-path="url(#z30729c9)" d="M447 857L716 852"/>
</svg>