<!--
AnimCJK 2016-2019 Copyright Francois Mizessyn - https://github.com/parsimonhi/animCJK
Derived from:
    MakeMeAHanzi project - https://github.com/skishore/makemeahanzi
    Arphic PL KaitiM GB font
    Arphic PL UKai font
You can redistribute and/or modify this file under the terms of the Arphic Public License
as published by Arphic Technology Co., Ltd.
You should have received a copy of this license along with this file.
If not, see http://ftp.gnu.org/non-gnu/chinese-fonts-truetype/LICENSE.
-->
<svg id="z30732" class="acjk" version="1.1" viewBox="0 0 1024 1024" xmlns="http://www.w3.org/2000/svg" xmlns:xlink="http://www.w3.org/1999/xlink">
<style>
<![CDATA[
@keyframes zk {
	to {
		stroke-dashoffset:0;
	}
}
svg.acjk path[clip-path] {
	--t:0.8s;
	animation:zk var(--t) linear forwards var(--d);
	stroke-dasharray:3337;
	stroke-dashoffset:3339;
	stroke-width:128;
	stroke-linecap:round;
	fill:none;
	stroke:#000;
}
svg.acjk path[id] {fill:#ccc;}
]]>
</style>
<path id="z30732d1" d="M278 284C363 263 406 247 409 245C415 239 415 233 412 228C407 220 394 214 374 211C359 208 325 220 270 237C214 252 178 257 163 261C138 266 135 274 154 285C172 294 196 303 224 297C260 288 260 288 278 284Z"/>
<path id="z30732d2" d="M224 497C246 460 263 409 290 341C299 317 304 305 304 305C299 294 290 288 278 284C261 277 218 279 224 297C238 341 224 409 176 498C164 520 164 520 158 531C134 574 94 628 43 693C39 697 40 701 46 700C80 690 143 627 172 581C207 525 207 525 224 497Z"/>
<path id="z30732d3" d="M176 498C173 497 170 496 167 495C160 492 156 493 153 496C148 499 149 505 153 516C154 520 156 525 158 531C167 564 167 564 172 581C178 605 183 634 186 669C187 687 192 703 202 717C212 730 218 733 222 724C225 713 228 699 227 682C225 661 225 661 224 651C217 586 214 546 214 530C214 513 191 504 176 498Z"/>
<path id="z30732d4" d="M353 625C363 574 376 541 390 527C402 512 402 500 389 492C377 485 363 477 347 467C336 460 325 460 314 467C291 481 251 490 224 497C208 500 192 500 176 498C160 495 198 535 214 530C226 526 252 520 294 512C308 509 316 510 320 516C324 520 325 532 321 553C316 575 311 600 307 627C304 642 350 640 353 625Z"/>
<path id="z30732d5" d="M227 682Q234 683 245 680Q284 670 371 657Q381 656 381 647Q381 640 353 625C340 617 322 624 307 627Q261 640 224 651C214 653 217 682 227 682Z"/>
<path id="z30732d6" d="M515 371C571 353 600 343 601 342C606 336 606 330 604 326C599 319 587 314 569 312C550 309 534 316 517 323C487 335 487 335 472 341C429 357 396 360 377 365C354 370 352 378 370 387C395 399 433 396 471 385C500 376 500 376 515 371Z"/>
<path id="z30732d7" d="M471 385C468 519 453 599 433 628C424 639 424 652 432 666C439 678 450 686 461 693C468 697 475 694 483 683C496 663 533 619 601 558C616 543 627 535 629 528C630 523 628 520 625 520C621 519 584 539 519 584C508 591 501 590 502 576C504 509 512 441 515 371C516 339 516 339 517 323C521 207 526 144 530 134C534 122 533 111 524 103C509 90 493 83 477 79C458 74 445 75 440 84C435 90 436 98 445 107C456 118 463 136 467 163C471 199 473 258 472 341C471 370 471 370 471 385Z"/>
<path id="z30732d8" d="M731 360C766 350 800 341 836 336C842 335 847 336 849 340C855 351 856 374 855 406C848 522 832 611 812 673C799 711 789 737 777 750C770 756 760 757 747 753C730 747 714 741 698 736C684 731 681 736 691 749C715 780 735 806 747 830C752 842 760 847 773 845C785 842 799 830 817 812C863 761 892 640 903 447C905 404 914 369 930 345C939 330 941 321 936 316C925 305 909 295 888 286C873 279 845 287 802 303C730 327 674 338 634 340C622 340 617 342 617 348C617 354 622 360 636 368C648 374 667 376 693 370C718 363 718 363 731 360Z"/>
<path id="z30732d9" d="M693 370C708 417 670 566 614 671C585 723 546 775 498 825C494 828 491 831 490 835C487 841 489 844 496 844C504 843 520 832 547 812C628 750 696 640 748 450C748 447 750 436 761 419C766 410 770 402 766 394C759 381 746 370 731 360C720 353 690 357 693 370Z"/>
<defs>
	<clipPath id="z30732c1"><use xlink:href="#z30732d1"/></clipPath>
	<clipPath id="z30732c2"><use xlink:href="#z30732d2"/></clipPath>
	<clipPath id="z30732c3"><use xlink:href="#z30732d3"/></clipPath>
	<clipPath id="z30732c4"><use xlink:href="#z30732d4"/></clipPath>
	<clipPath id="z30732c5"><use xlink:href="#z30732d5"/></clipPath>
	<clipPath id="z30732c6"><use xlink:href="#z30732d6"/></clipPath>
	<clipPath id="z30732c7"><use xlink:href="#z30732d7"/></clipPath>
	<clipPath id="z30732c8"><use xlink:href="#z30732d8"/></clipPath>
	<clipPath id="z30732c9"><use xlink:href="#z30732d9"/></clipPath>
</defs>
<path style="--d:1s;" pathLength="3333" clip-path="url(#z30732c1)" d="M149 272L409 233"/>
<path style="--d:2s;" pathLength="3333" clip-path="url(#z30732c2)" d="M235 302L266 321L230 430L167 553L49 693"/>
<path style="--d:3s;" pathLength="3333" clip-path="url(#z30732c3)" d="M160 499L188 539L210 723"/>
<path style="--d:4s;" pathLength="3333" clip-path="url(#z30732c4)" d="M183 504L236 514L320 488L359 508L319 625"/>
<path style="--d:5s;" pathLength="3333" clip-path="url(#z30732c5)" d="M236 674L376 647"/>
<path style="--d:6s;" pathLength="3333" clip-path="url(#z30732c6)" d="M367 375L601 328"/>
<path style="--d:7s;" pathLength="3333" clip-path="url(#z30732c7)" d="M445 88L498 136L469 626L491 639L622 527"/>
<path style="--d:8s;" pathLength="3333" clip-path="url(#z30732c8)" d="M627 351L851 311L895 337L822 742L769 800L693 742"/>
<path style="--d:9s;" pathLength="3333" clip-path="url(#z30732c9)" d="M701 373L732 408L659 628L594 739L495 836"/>
</svg>