<!--
AnimCJK 2016-2019 Copyright Francois Mizessyn - https://github.com/parsimonhi/animCJK
Derived from:
    MakeMeAHanzi project - https://github.com/skishore/makemeahanzi
    Arphic PL KaitiM GB font
    Arphic PL UKai font
You can redistribute and/or modify this file under the terms of the Arphic Public License
as published by Arphic Technology Co., Ltd.
You should have received a copy of this license along with this file.
If not, see http://ftp.gnu.org/non-gnu/chinese-fonts-truetype/LICENSE.
-->
<svg id="z30737" class="acjk" version="1.1" viewBox="0 0 1024 1024" xmlns="http://www.w3.org/2000/svg" xmlns:xlink="http://www.w3.org/1999/xlink">
<style>
<![CDATA[
@keyframes zk {
	to {
		stroke-dashoffset:0;
	}
}
svg.acjk path[clip-path] {
	--t:0.8s;
	animation:zk var(--t) linear forwards var(--d);
	stroke-dasharray:3337;
	stroke-dashoffset:3339;
	stroke-width:128;
	stroke-linecap:round;
	fill:none;
	stroke:#000;
}
svg.acjk path[id] {fill:#ccc;}
]]>
</style>
<path id="z30737d1" d="M250 289C320 278 388 252 457 227C465 223 463 214 460 209C453 200 440 193 420 191C400 188 360 205 296 225C227 246 183 251 168 255C141 261 138 271 158 281C175 289 198 297 224 293C241 290 241 290 250 289Z"/>
<path id="z30737d2" d="M248 476C266 443 277 404 296 355C305 330 311 323 309 317C304 305 278 294 250 289C241 288 226 284 224 293C222 295 222 299 225 305C238 335 232 392 198 472C188 495 188 495 183 507C160 559 115 627 51 709C47 713 47 716 54 716C60 715 72 706 87 695C109 677 175 608 200 563C232 505 232 505 248 476Z"/>
<path id="z30737d3" d="M198 472C196 471 194 471 193 471C184 468 179 469 177 472C172 476 173 483 178 494C179 497 181 501 183 507C194 544 194 544 200 563C208 590 214 623 218 660C220 680 225 697 236 712C247 726 254 729 259 719C264 707 266 690 264 670C261 648 261 648 260 637C252 572 246 530 246 512C246 491 218 476 198 472Z"/>
<path id="z30737d4" d="M397 610C407 554 420 517 436 501C450 482 450 468 434 460C420 453 403 444 384 433C371 426 358 427 345 435C331 445 258 475 248 476C231 477 215 476 198 472C177 469 226 519 246 512C276 502 303 494 328 488C342 484 352 485 356 491C360 495 361 508 357 531C353 555 348 582 343 612C340 630 393 628 397 610Z"/>
<path id="z30737d5" d="M264 670C268 670 274 669 280 668C308 660 352 651 414 643C420 642 424 638 425 632C425 627 415 620 397 610C382 601 360 605 343 612C310 622 282 630 260 637C250 641 253 670 264 670Z"/>
<path id="z30737d6" d="M737 214C762 209 788 203 816 198C840 193 854 188 859 185C864 180 866 174 863 168C858 159 846 152 826 148C805 143 785 146 764 154C736 163 706 172 676 179C642 186 605 189 566 194C541 196 536 208 555 218C598 241 619 235 693 222C722 217 722 217 737 214Z"/>
<path id="z30737d7" d="M763 454C795 449 880 447 915 449C929 449 940 446 946 438C950 431 945 425 932 416C877 378 828 391 764 406C729 414 729 414 711 418C676 425 625 437 577 448C556 452 550 449 555 431C566 385 574 352 585 336C590 328 593 322 589 315C585 308 571 298 548 287C535 280 525 279 519 285C512 290 513 297 518 307C533 340 533 387 506 438C490 467 475 480 477 486C478 494 485 502 497 511C505 517 512 511 524 507C582 484 642 470 675 466C734 458 734 458 763 454Z"/>
<path id="z30737d8" d="M710 523C709 610 710 770 710 786C709 808 706 825 699 832C692 838 677 837 658 831C639 825 617 817 593 812C584 809 580 811 581 816C581 820 584 827 592 833C640 870 680 902 712 931C719 937 728 935 737 924C763 887 774 843 772 792C764 648 761 535 763 454C764 422 764 422 764 406C764 361 765 319 772 277C774 258 776 246 772 240C766 231 754 223 737 214C724 206 690 207 693 222C703 256 711 320 711 418C710 488 710 488 710 523Z"/>
<path id="z30737d9" d="M675 466C628 570 532 682 387 803C378 813 377 818 385 819C401 825 439 807 501 763C555 725 616 657 684 561C694 545 703 532 710 523C747 476 697 411 675 466Z"/>
<defs>
	<clipPath id="z30737c1"><use xlink:href="#z30737d1"/></clipPath>
	<clipPath id="z30737c2"><use xlink:href="#z30737d2"/></clipPath>
	<clipPath id="z30737c3"><use xlink:href="#z30737d3"/></clipPath>
	<clipPath id="z30737c4"><use xlink:href="#z30737d4"/></clipPath>
	<clipPath id="z30737c5"><use xlink:href="#z30737d5"/></clipPath>
	<clipPath id="z30737c6"><use xlink:href="#z30737d6"/></clipPath>
	<clipPath id="z30737c7"><use xlink:href="#z30737d7"/></clipPath>
	<clipPath id="z30737c8"><use xlink:href="#z30737d8"/></clipPath>
	<clipPath id="z30737c9"><use xlink:href="#z30737d9"/></clipPath>
</defs>
<path style="--d:1s;" pathLength="3333" clip-path="url(#z30737c1)" d="M155 269L455 211"/>
<path style="--d:2s;" pathLength="3333" clip-path="url(#z30737c2)" d="M231 297L268 330L217 485L131 629L55 711"/>
<path style="--d:3s;" pathLength="3333" clip-path="url(#z30737c3)" d="M184 475L219 527L249 720"/>
<path style="--d:4s;" pathLength="3333" clip-path="url(#z30737c4)" d="M212 481L263 490L356 458L393 475L359 611"/>
<path style="--d:5s;" pathLength="3333" clip-path="url(#z30737c5)" d="M268 663L337 634L420 631"/>
<path style="--d:6s;" pathLength="3333" clip-path="url(#z30737c6)" d="M551 203L617 211L861 171"/>
<path style="--d:7s;" pathLength="3333" clip-path="url(#z30737c7)" d="M522 289L557 324L528 480L836 419L943 430"/>
<path style="--d:8s;" pathLength="3333" clip-path="url(#z30737c8)" d="M702 226L739 262L738 829L703 884L589 818"/>
<path style="--d:9s;" pathLength="3333" clip-path="url(#z30737c9)" d="M703 468L562 674L388 814"/>
</svg>