<!--
AnimCJK 2016-2019 Copyright Francois Mizessyn - https://github.com/parsimonhi/animCJK
Derived from:
    MakeMeAHanzi project - https://github.com/skishore/makemeahanzi
    Arphic PL KaitiM GB font
    Arphic PL UKai font
You can redistribute and/or modify this file under the terms of the Arphic Public License
as published by Arphic Technology Co., Ltd.
You should have received a copy of this license along with this file.
If not, see http://ftp.gnu.org/non-gnu/chinese-fonts-truetype/LICENSE.
-->
<svg id="z30759" class="acjk" version="1.1" viewBox="0 0 1024 1024" xmlns="http://www.w3.org/2000/svg" xmlns:xlink="http://www.w3.org/1999/xlink">
<style>
<![CDATA[
@keyframes zk {
	to {
		stroke-dashoffset:0;
	}
}
svg.acjk path[clip-path] {
	--t:0.8s;
	animation:zk var(--t) linear forwards var(--d);
	stroke-dasharray:3337;
	stroke-dashoffset:3339;
	stroke-width:128;
	stroke-linecap:round;
	fill:none;
	stroke:#000;
}
svg.acjk path[id] {fill:#ccc;}
]]>
</style>
<path id="z30759d1" d="M290 257C404 228 462 210 464 209C470 203 471 197 468 192C463 184 450 177 430 174C412 171 366 186 290 208C234 223 192 229 164 234C139 238 136 246 155 257C179 270 212 276 250 267C277 260 277 260 290 257Z"/>
<path id="z30759d2" d="M246 487Q277 424 320 326Q335 289 336 286Q333 277 320 269Q307 260 290 257C276 255 243 255 250 267Q259 276 258 317Q243 390 199 486C185 511 185 511 178 523Q94 643 35 713Q28 719 39 720Q99 702 193 575C228 516 228 516 246 487Z"/>
<path id="z30759d3" d="M199 486C195 485 190 482 186 481C179 479 173 480 171 484C166 488 166 495 172 505C174 509 176 515 178 523C188 558 188 558 193 575C199 603 205 638 211 678C211 698 217 716 229 732C239 746 247 749 251 739C255 726 257 708 255 686C252 663 252 663 251 652C241 579 236 534 236 518C236 502 214 492 199 486Z"/>
<path id="z30759d4" d="M404 620C414 563 428 526 445 508C459 491 459 477 444 468C403 445 380 436 375 437C370 437 365 439 360 443C332 460 279 478 246 487C230 490 214 489 199 486C183 483 220 521 236 518C271 509 311 498 337 492C353 488 363 489 369 496C373 501 374 515 370 539C365 563 360 590 355 618C352 634 401 636 404 620Z"/>
<path id="z30759d5" d="M255 686Q261 686 268 684Q314 669 419 651Q429 650 430 640Q430 633 404 620C390 612 371 615 355 618Q351 618 350 619Q296 638 251 652C240 656 244 686 255 686Z"/>
<path id="z30759d6" d="M663 562C667 483 670 407 673 333C674 312 674 312 674 301C675 255 680 197 695 130C696 121 692 111 677 102C651 86 628 79 611 77C598 75 590 77 584 84C578 89 577 97 585 109C602 136 613 158 614 176C620 298 621 430 617 572C617 588 663 578 663 562Z"/>
<path id="z30759d7" d="M673 333C701 341 739 339 785 329C811 322 839 316 868 309C882 305 891 302 893 300C899 293 900 287 896 281C889 272 876 265 854 262C840 259 802 270 739 289C719 294 697 297 674 301C664 303 663 331 673 333Z"/>
<path id="z30759d8" d="M517 588Q505 581 472 575Q459 571 455 576Q448 583 457 600Q490 678 505 804Q506 841 527 867Q546 891 551 875Q560 851 555 807C551 782 551 782 549 770Q533 659 529 622C527 610 528 593 517 588Z"/>
<path id="z30759d9" d="M809 740C823 670 845 627 869 606C881 595 883 577 870 567C815 524 769 521 735 538C711 549 686 556 663 562C632 569 632 569 617 572C584 579 551 583 517 588C505 590 517 624 529 622C539 622 607 609 735 584C749 581 759 583 765 588C772 595 777 605 776 620C772 658 765 694 759 728C756 745 806 757 809 740Z"/>
<path id="z30759d10" d="M555 807C561 807 569 807 578 806C628 794 708 783 818 775C826 774 831 770 832 763C832 758 824 750 809 740C794 731 776 725 759 728C727 734 606 761 549 770C537 772 543 807 555 807Z"/>
<defs>
	<clipPath id="z30759c1"><use xlink:href="#z30759d1"/></clipPath>
	<clipPath id="z30759c2"><use xlink:href="#z30759d2"/></clipPath>
	<clipPath id="z30759c3"><use xlink:href="#z30759d3"/></clipPath>
	<clipPath id="z30759c4"><use xlink:href="#z30759d4"/></clipPath>
	<clipPath id="z30759c5"><use xlink:href="#z30759d5"/></clipPath>
	<clipPath id="z30759c6"><use xlink:href="#z30759d6"/></clipPath>
	<clipPath id="z30759c7"><use xlink:href="#z30759d7"/></clipPath>
	<clipPath id="z30759c8"><use xlink:href="#z30759d8"/></clipPath>
	<clipPath id="z30759c9"><use xlink:href="#z30759d9"/></clipPath>
	<clipPath id="z30759c10"><use xlink:href="#z30759d10"/></clipPath>
</defs>
<path style="--d:1s;" pathLength="3333" clip-path="url(#z30759c1)" d="M150 244L465 196"/>
<path style="--d:2s;" pathLength="3333" clip-path="url(#z30759c2)" d="M257 268L296 293L233 463L151 597L41 714"/>
<path style="--d:3s;" pathLength="3333" clip-path="url(#z30759c3)" d="M177 487L211 537L242 739"/>
<path style="--d:4s;" pathLength="3333" clip-path="url(#z30759c4)" d="M213 495L259 502L359 466L409 485L374 618"/>
<path style="--d:5s;" pathLength="3333" clip-path="url(#z30759c5)" d="M257 678L337 645L425 639"/>
<path style="--d:6s;" pathLength="3333" clip-path="url(#z30759c6)" d="M583 90L653 145L634 568"/>
<path style="--d:7s;" pathLength="3333" clip-path="url(#z30759c7)" d="M681 327L893 281"/>
<path style="--d:8s;" pathLength="3333" clip-path="url(#z30759c8)" d="M460 583L501 634L538 873"/>
<path style="--d:9s;" pathLength="3333" clip-path="url(#z30759c9)" d="M525 589L551 601L789 563L826 596L783 733"/>
<path style="--d:10s;" pathLength="3333" clip-path="url(#z30759c10)" d="M556 773L826 762"/>
</svg>