<!--
AnimCJK 2016-2017 Copyright Francois Mizessyn, http://gooo.free.fr/animCJK/
Derived from:
    MakeMeAHanzi project - https://github.com/skishore/makemeahanzi
    Arphic PL KaitiM GB - https://apps.ubuntu.com/cat/applications/precise/fonts-arphic-gkai00mp/
    Arphic PL UKai - https://apps.ubuntu.com/cat/applications/fonts-arphic-ukai/
You can redistribute and/or modify this file under the terms of the Arphic Public License
as published by Arphic Technology Co., Ltd.
You should have received a copy of this license (the directory "APL") along with this file;
if not, see http://ftp.gnu.org/non-gnu/chinese-fonts-truetype/LICENSE.
-->
<svg id="z30789" class="acjk" version="1.1" viewBox="0 0 1024 1024" xmlns="http://www.w3.org/2000/svg" xmlns:xlink="http://www.w3.org/1999/xlink">
<style>
<![CDATA[
	@keyframes z30789k {
		from {
			stroke:#c00;
			stroke-dashoffset:3000;
		}
		75% {
			stroke:#c00;
			stroke-dashoffset:0;
		}
		to {
			stroke:#000;
		}
	}
	#z30789 path[clip-path] {
		animation:z30789k 1s linear both;
		stroke-dasharray:3000;
		stroke-width:128;
		stroke-linecap:round;
		fill:none;
	}
	#z30789 path[clip-path="url(#z30789c1)"] {animation-delay:1s;}
	#z30789 path[clip-path="url(#z30789c2)"] {animation-delay:2s;}
	#z30789 path[clip-path="url(#z30789c3)"] {animation-delay:3s;}
	#z30789 path[clip-path="url(#z30789c4)"] {animation-delay:4s;}
	#z30789 path[clip-path="url(#z30789c5)"] {animation-delay:5s;}
	#z30789 path[clip-path="url(#z30789c6)"] {animation-delay:6s;}
	#z30789 path[clip-path="url(#z30789c7)"] {animation-delay:7s;}
	#z30789 path[clip-path="url(#z30789c8)"] {animation-delay:8s;}
	#z30789 path[clip-path="url(#z30789c9)"] {animation-delay:9s;}
	#z30789 path[clip-path="url(#z30789c10)"] {animation-delay:10s;}
	#z30789 path[clip-path="url(#z30789c11)"] {animation-delay:11s;}
	#z30789 path {fill:#ccc;}
]]>
</style>
<g transform="scale(1,-1) translate(0,-900)">
	<path id="z30789d1" d="M311 630Q443 664 448 669Q457 676 451 685Q444 695 416 702Q386 706 358 693Q318 678 274 665Q225 652 167 644Q133 637 158 622Q207 601 262 618L311 630Z"/>
	<path id="z30789d2" d="M250 432Q281 486 321 571Q336 604 337 606Q331 624 311 630L262 618Q271 560 204 430L184 397Q126 316 56 238Q49 234 59 232Q98 239 193 347Q194 348 196 350L250 432Z"/>
	<path id="z30789d3" d="M204 430Q200 433 194 434Q182 438 179 434Q172 428 179 412Q180 405 184 397L196 350Q205 304 210 242Q210 211 226 188Q241 166 247 180Q256 201 253 242L250 273Q244 375 242 402L204 430Z"/>
	<path id="z30789d4" d="M389 297Q402 379 425 404Q446 428 423 441Q365 472 360 472Q351 472 343 466Q310 445 250 432L234 407L242 402Q254 405 324 419Q345 423 350 415Q356 411 341 299L389 297Z"/>
	<path id="z30789d5" d="M253 242Q260 241 268 243Q311 255 402 267Q412 268 413 277Q413 284 389 297L341 299L340 299Q291 283 250 273L253 242Z"/>
	<path id="z30789d6" d="M670 586Q790 613 795 617Q804 624 799 633Q792 643 764 651Q731 657 673 634L622 620Q571 611 513 604Q477 598 503 582Q545 558 601 573Q611 576 623 576L670 586Z"/>
	<path id="z30789d7" d="M661 466Q665 527 670 586L673 634Q674 709 693 780Q697 790 677 805Q643 824 620 827Q604 831 596 822Q589 815 597 800Q616 772 618 751Q622 688 622 620L623 576Q622 521 620 458L661 466Z"/>
	<path id="z30789d8" d="M640 424Q643 428 730 436Q778 440 839 443Q887 443 892 453Q896 463 881 475Q832 509 770 491Q724 481 661 466L620 458Q544 445 458 428Q439 425 454 411Q467 399 484 395Q503 391 517 396Q554 409 598 416L640 424Z"/>
	<path id="z30789d9" d="M665 231Q785 259 787 261Q796 268 791 277Q784 287 756 295Q729 301 668 280L615 265Q611 265 609 264Q557 254 497 248Q463 242 487 226Q526 202 592 218Q602 221 615 221L665 231Z"/>
	<path id="z30789d10" d="M660 106Q661 173 665 231L668 280Q671 397 672 397Q656 413 640 424L598 416Q611 383 615 293Q615 281 615 265L615 221Q615 172 615 100L660 106Z"/>
	<path id="z30789d11" d="M615 100Q501 87 369 71Q347 70 363 51Q378 36 396 31Q418 25 435 30Q600 72 891 71Q907 71 925 70Q946 70 951 79Q957 91 940 105Q886 147 847 138Q777 123 660 106L615 100Z"/>
	<defs>
		<clipPath id="z30789c1"><use xlink:href="#z30789d1"/></clipPath>
		<clipPath id="z30789c2"><use xlink:href="#z30789d2"/></clipPath>
		<clipPath id="z30789c3"><use xlink:href="#z30789d3"/></clipPath>
		<clipPath id="z30789c4"><use xlink:href="#z30789d4"/></clipPath>
		<clipPath id="z30789c5"><use xlink:href="#z30789d5"/></clipPath>
		<clipPath id="z30789c6"><use xlink:href="#z30789d6"/></clipPath>
		<clipPath id="z30789c7"><use xlink:href="#z30789d7"/></clipPath>
		<clipPath id="z30789c8"><use xlink:href="#z30789d8"/></clipPath>
		<clipPath id="z30789c9"><use xlink:href="#z30789d9"/></clipPath>
		<clipPath id="z30789c10"><use xlink:href="#z30789d10"/></clipPath>
		<clipPath id="z30789c11"><use xlink:href="#z30789d11"/></clipPath>
	</defs>
	<path pathLength="2999" clip-path="url(#z30789c1)" d="M160 632L448 679"/>
	<path pathLength="2999" clip-path="url(#z30789c2)" d="M330 608L290 590L181 361L59 237"/>
	<path pathLength="2999" clip-path="url(#z30789c3)" d="M186 427L216 386L240 180"/>
	<path pathLength="2999" clip-path="url(#z30789c4)" d="M242 410L354 446L389 424L364 299"/>
	<path pathLength="2999" clip-path="url(#z30789c5)" d="M258 249L335 278L406 276"/>
	<path pathLength="2999" clip-path="url(#z30789c6)" d="M501 594L794 627"/>
	<path pathLength="2999" clip-path="url(#z30789c7)" d="M599 819L655 768L637 462"/>
	<path pathLength="2999" clip-path="url(#z30789c8)" d="M456 418L790 468L888 462"/>
	<path pathLength="2999" clip-path="url(#z30789c9)" d="M488 237L789 269"/>
	<path pathLength="2999" clip-path="url(#z30789c10)" d="M607 414L639 383L636 103"/>
	<path pathLength="2999" clip-path="url(#z30789c11)" d="M365 61L848 105L947 90"/>
</g>
</svg>