<!--
AnimCJK 2016-2026 Copyright FM-SH, https://github.com/parsimonhi/animCJK
Derived from:
    MakeMeAHanzi project - https://github.com/skishore/makemeahanzi
    Arphic PL KaitiM GB font
    Arphic PL KaitiM Big5 font
You can redistribute and/or modify this file under the terms of the Arphic Public License
as published by Arphic Technology Co., Ltd.
You should have received a copy of this license along with this file.
If not, see https://ftp.gnu.org/non-gnu/chinese-fonts-truetype/LICENSE.
-->
<svg id="z30785" class="acjk" viewBox="0 0 1024 1024" xmlns="http://www.w3.org/2000/svg">
<style>
<![CDATA[
@keyframes zk {
	to {
		stroke-dashoffset:0;
	}
}
svg.acjk path[clip-path] {
	--t:0.8s;
	animation:zk var(--t) linear forwards var(--d);
	stroke-dasharray:3337;
	stroke-dashoffset:3339;
	stroke-width:128;
	stroke-linecap:round;
	fill:none;
	stroke:#000;
}
svg.acjk path[id] {fill:#ccc;}
]]>
</style>
<path id="z30785d1" d="M278 273C383 246 428 231 441 225C455 217 444 195 406 191C387 188 349 202 288 221C222 240 180 245 167 249C142 254 139 262 158 273C180 284 208 290 239 283C265 276 265 276 278 273Z"/>
<path id="z30785d2" d="M252 466C269 429 282 392 309 340C328 301 320 281 278 273C265 270 231 272 239 283C267 311 212 445 204 465C196 482 187 500 179 517C156 559 112 621 43 705C38 709 39 715 47 712C107 683 158 620 196 567C208 548 219 530 232 509C238 498 246 476 252 466Z"/>
<path id="z30785d3" d="M204 465C167 452 154 453 165 483C166 486 175 505 179 517C190 550 190 550 196 567C206 597 213 633 220 674C223 697 230 717 244 733C256 747 263 749 266 739C270 722 270 699 265 670C261 650 261 650 259 640C246 577 237 534 232 509C229 492 220 471 204 465Z"/>
<path id="z30785d4" d="M395 611C403 550 417 511 433 492C446 475 443 462 430 455C416 448 402 439 386 430C372 423 361 425 350 433C340 439 279 461 252 466C236 468 218 467 204 465C187 462 216 515 232 509C264 498 295 488 323 481C341 475 352 476 359 483C362 487 359 531 347 615C344 631 392 627 395 611Z"/>
<path id="z30785d5" d="M265 670C280 672 272 665 415 645C424 643 441 632 395 611C380 605 362 609 347 615C313 625 283 634 259 640C249 642 255 670 265 670Z"/>
<path id="z30785d6" d="M675 366C702 332 731 296 759 255C771 236 787 216 810 197C819 189 821 183 819 177C816 169 795 161 755 146C740 140 731 143 718 151C676 175 610 192 523 206C510 208 507 214 517 223C531 234 554 236 581 230C617 221 650 213 680 206C709 198 706 214 697 235C655 321 591 401 470 511C444 534 446 548 480 528C549 491 611 443 661 383C670 372 670 372 675 366Z"/>
<path id="z30785d7" d="M661 383C697 407 786 466 855 519C912 563 908 506 891 474C872 438 772 395 675 366C668 363 655 379 661 383Z"/>
<path id="z30785d8" d="M637 607C735 588 777 580 790 575C807 567 788 543 760 540C737 537 707 543 649 558C603 569 554 576 502 581C478 583 473 590 491 602C516 619 535 626 600 614C625 609 625 609 637 607Z"/>
<path id="z30785d9" d="M642 808C655 617 692 637 637 607C626 601 598 602 600 614C607 642 604 713 601 812C601 826 642 822 642 808Z"/>
<path id="z30785d10" d="M601 812C532 818 459 824 381 831C367 832 364 837 375 850C382 858 403 879 441 871C575 841 729 834 909 846C937 847 942 828 924 813C890 784 861 776 838 781C789 789 724 800 642 808C615 811 615 811 601 812Z"/>
<defs>
	<clipPath id="z30785c1"><use href="#z30785d1"/></clipPath>
	<clipPath id="z30785c2"><use href="#z30785d2"/></clipPath>
	<clipPath id="z30785c3"><use href="#z30785d3"/></clipPath>
	<clipPath id="z30785c4"><use href="#z30785d4"/></clipPath>
	<clipPath id="z30785c5"><use href="#z30785d5"/></clipPath>
	<clipPath id="z30785c6"><use href="#z30785d6"/></clipPath>
	<clipPath id="z30785c7"><use href="#z30785d7"/></clipPath>
	<clipPath id="z30785c8"><use href="#z30785d8"/></clipPath>
	<clipPath id="z30785c9"><use href="#z30785d9"/></clipPath>
	<clipPath id="z30785c10"><use href="#z30785d10"/></clipPath>
</defs>
<path style="--d:1s;" pathLength="3333" clip-path="url(#z30785c1)" d="M153 259L442 214"/>
<path style="--d:2s;" pathLength="3333" clip-path="url(#z30785c2)" d="M245 279L282 316L222 478L144 605L48 706"/>
<path style="--d:3s;" pathLength="3333" clip-path="url(#z30785c3)" d="M168 461L204 507L260 737"/>
<path style="--d:4s;" pathLength="3333" clip-path="url(#z30785c4)" d="M207 474L250 485L361 451L385 464L401 484L358 622"/>
<path style="--d:5s;" pathLength="3333" clip-path="url(#z30785c5)" d="M257 649L418 632"/>
<path style="--d:6s;" pathLength="3333" clip-path="url(#z30785c6)" d="M518 214L723 175L766 203L624 389L462 530"/>
<path style="--d:7s;" pathLength="3333" clip-path="url(#z30785c7)" d="M667 379L831 462L897 524"/>
<path style="--d:8s;" pathLength="3333" clip-path="url(#z30785c8)" d="M487 590L793 564"/>
<path style="--d:9s;" pathLength="3333" clip-path="url(#z30785c9)" d="M607 612L635 645L618 818"/>
<path style="--d:10s;" pathLength="3333" clip-path="url(#z30785c10)" d="M377 841L835 811L931 828"/>
</svg>