<!--
AnimCJK 2016-2018 Copyright Francois Mizessyn, http://gooo.free.fr/animCJK/
Derived from:
    MakeMeAHanzi project - https://github.com/skishore/makemeahanzi
    Arphic PL KaitiM GB - https://apps.ubuntu.com/cat/applications/precise/fonts-arphic-gkai00mp/
    Arphic PL UKai - https://apps.ubuntu.com/cat/applications/fonts-arphic-ukai/
You can redistribute and/or modify this file under the terms of the Arphic Public License
as published by Arphic Technology Co., Ltd.
You should have received a copy of this license (the directory "APL") along with this file;
if not, see http://ftp.gnu.org/non-gnu/chinese-fonts-truetype/LICENSE.
-->
<svg id="z30810" class="acjk" version="1.1" viewBox="0 0 1024 1024" xmlns="http://www.w3.org/2000/svg" xmlns:xlink="http://www.w3.org/1999/xlink">
<style>
<![CDATA[
@keyframes z30810k {
	from {
		stroke:#ccc;
		stroke-dashoffset:3334;
	}
	1% {
		stroke:#c00;
		stroke-dashoffset:3334;
	}
	75% {
		stroke:#c00;
		stroke-dashoffset:0;
	}
	to {
		stroke:#000;
	}
}
#z30810 path[clip-path] {
	animation:z30810k 1s linear both;
	stroke-dasharray:3334;
	stroke-width:128;
	stroke-linecap:round;
	fill:none;
}
#z30810 path[clip-path="url(#z30810c1)"] {animation-delay:1s;}
#z30810 path[clip-path="url(#z30810c2)"] {animation-delay:2s;}
#z30810 path[clip-path="url(#z30810c3)"] {animation-delay:3s;}
#z30810 path[clip-path="url(#z30810c4)"] {animation-delay:4s;}
#z30810 path[clip-path="url(#z30810c5)"] {animation-delay:5s;}
#z30810 path[clip-path="url(#z30810c6)"] {animation-delay:6s;}
#z30810 path[clip-path="url(#z30810c7)"] {animation-delay:7s;}
#z30810 path[clip-path="url(#z30810c8)"] {animation-delay:8s;}
#z30810 path[clip-path="url(#z30810c9)"] {animation-delay:9s;}
#z30810 path[clip-path="url(#z30810c10)"] {animation-delay:10s;}
#z30810 path[clip-path="url(#z30810c11)"] {animation-delay:11s;}
#z30810 path {fill:#ccc;}
]]>
</style>
<path id="z30810d1" d="M 281,295 C 362,274 406,264 412,259 416,254 418,248 415,243 410,236 398,229 380,226 365,223 324,235 256,255 212,267 177,271 152,276 127,280 125,287 143,298 165,310 196,316 234,307 Z"/>
<path id="z30810d2" d="M 239,473 C 258,442 276,403 298,358 308,336 314,324 314,322 310,309 298,301 281,295 L 234,307 C 240,335 234,395 191,474 L 170,512 C 163,524 154,534 147,547 127,577 89,622 36,681 31,685 32,689 39,688 69,683 117,641 181,565 182,563 182,562 184,561 Z"/>
<path id="z30810d3" d="M191 474Q185 473 178 470Q166 466 163 471Q156 477 164 492Q167 501 170 512L184 561Q194 607 200 669Q201 702 217 724Q233 746 239 731Q246 712 244 674L240 640Q227 528 227 504L191 474 Z"/>
<path id="z30810d4" d="M 371,612 C 379,553 393,515 409,496 422,479 421,466 407,459 394,452 379,443 362,434 351,427 332,434 304,450 296,454 260,468 239,473 229,475 206,478 191,474 L 227,504 C 231,502 257,494 307,483 321,479 330,482 335,487 340,491 341,506 337,532 332,556 328,584 324,614 Z"/>
<path id="z30810d5" d="M244 674Q272 665 390 647Q400 646 401 636Q401 629 371 612L324 614Q323 614 322 614Q276 630 240 640L244 674 Z"/>
<path id="z30810d6" d="M 615,216 C 703,190 750,169 761,168 771,166 778,164 781,160 784,153 781,146 773,139 760,128 739,117 711,106 700,101 691,97 684,100 678,101 676,107 676,114 675,138 611,176 485,237 480,239 481,247 485,248 492,249 524,242 577,227 Z"/>
<path id="z30810d7" d="M 686,352 C 704,347 754,336 839,326 845,325 854,323 858,314 861,306 849,301 835,293 814,281 775,283 711,303 698,306 669,317 621,327 L 565,338 C 551,340 514,344 455,355 436,358 433,365 449,376 470,390 495,395 522,390 528,388 536,387 546,385 L 601,372 C 619,367 638,362 659,358 Z"/>
<path id="z30810d8" d="M 621,327 C 634,297 645,277 654,267 659,261 660,255 659,251 653,234 638,223 615,216 L 577,227 C 587,239 589,259 582,287 578,299 573,317 565,338 L 546,385 C 519,450 467,516 398,586 390,593 391,598 397,600 407,602 435,587 478,552 524,512 565,452 601,372 Z"/>
<path id="z30810d9" d="M 659,358 C 751,496 811,567 841,572 889,572 931,568 967,561 971,560 974,558 976,555 976,552 972,548 965,544 884,512 817,473 764,427 738,404 712,378 686,352 Z"/>
<path id="z30810d10" d="M 529,568 C 543,589 548,630 537,695 536,697 536,699 536,701 524,757 488,808 430,855 423,860 423,864 430,865 456,865 487,847 524,812 560,777 584,729 591,668 594,634 598,608 606,591 610,580 607,574 598,569 568,552 548,545 534,551 527,553 523,560 529,568 Z"/>
<path id="z30810d11" d="M 674,533 C 688,554 690,640 680,788 679,788 679,790 679,793 675,867 688,913 719,930 719,930 719,929 720,930 726,931 732,927 736,918 743,897 743,877 743,857 735,691 735,592 740,562 741,554 739,547 735,544 719,530 705,521 693,516 685,512 678,515 672,520 668,522 669,526 674,533 Z"/>
<defs>
	<clipPath id="z30810c1"><use xlink:href="#z30810d1"/></clipPath>
	<clipPath id="z30810c2"><use xlink:href="#z30810d2"/></clipPath>
	<clipPath id="z30810c3"><use xlink:href="#z30810d3"/></clipPath>
	<clipPath id="z30810c4"><use xlink:href="#z30810d4"/></clipPath>
	<clipPath id="z30810c5"><use xlink:href="#z30810d5"/></clipPath>
	<clipPath id="z30810c6"><use xlink:href="#z30810d6"/></clipPath>
	<clipPath id="z30810c7"><use xlink:href="#z30810d7"/></clipPath>
	<clipPath id="z30810c8"><use xlink:href="#z30810d8"/></clipPath>
	<clipPath id="z30810c9"><use xlink:href="#z30810d9"/></clipPath>
	<clipPath id="z30810c10"><use xlink:href="#z30810d10"/></clipPath>
	<clipPath id="z30810c11"><use xlink:href="#z30810d11"/></clipPath>
</defs>
<path pathLength="3333" clip-path="url(#z30810c1)" d="M142 286L412 247"/>
<path pathLength="3333" clip-path="url(#z30810c2)" d="M240 314L271 341L218 466L149 575L41 682"/>
<path pathLength="3333" clip-path="url(#z30810c3)" d="M170 478L201 518L228 731"/>
<path pathLength="3333" clip-path="url(#z30810c4)" d="M 205,483 327,459 375,480 337,613"/>
<path pathLength="3333" clip-path="url(#z30810c5)" d="M245 666L395 631"/>
<path pathLength="3333" clip-path="url(#z30810c6)" d="M779 157L690 145L490 240"/>
<path pathLength="3333" clip-path="url(#z30810c7)" d="M447 364L852 309"/>
<path pathLength="3333" clip-path="url(#z30810c8)" d="M585 230L622 265L554 418L480 525L400 594"/>
<path pathLength="3333" clip-path="url(#z30810c9)" d="M670 362L842 529L968 552"/>
<path pathLength="3333" clip-path="url(#z30810c10)" d="M533 555L574 587L556 717L518 790L436 857"/>
<path pathLength="3333" clip-path="url(#z30810c11)" d="M679 526L712 568L723 925"/>
</svg>