<!--
AnimCJK 2016-2019 Copyright Francois Mizessyn - https://github.com/parsimonhi/animCJK
Derived from:
    MakeMeAHanzi project - https://github.com/skishore/makemeahanzi
    Arphic PL KaitiM GB font
    Arphic PL UKai font
You can redistribute and/or modify this file under the terms of the Arphic Public License
as published by Arphic Technology Co., Ltd.
You should have received a copy of this license along with this file.
If not, see http://ftp.gnu.org/non-gnu/chinese-fonts-truetype/LICENSE.
-->
<svg id="z30855" class="acjk" version="1.1" viewBox="0 0 1024 1024" xmlns="http://www.w3.org/2000/svg" xmlns:xlink="http://www.w3.org/1999/xlink">
<style>
<![CDATA[
@keyframes zk {
	to {
		stroke-dashoffset:0;
	}
}
svg.acjk path[clip-path] {
	--t:0.8s;
	animation:zk var(--t) linear forwards var(--d);
	stroke-dasharray:3337;
	stroke-dashoffset:3339;
	stroke-width:128;
	stroke-linecap:round;
	fill:none;
	stroke:#000;
}
svg.acjk path[id] {fill:#ccc;}
]]>
</style>
<path id="z30855d1" d="M261 264Q313 246 369 230Q397 220 402 216Q412 206 405 197Q395 184 362 180Q328 177 295 194Q264 207 228 220Q189 232 143 241Q103 251 134 268Q176 283 220 276C247 268 247 268 261 264Z"/>
<path id="z30855d2" d="M223 490Q251 432 268 386Q284 338 297 315Q303 303 293 291Q277 272 261 264C249 257 215 262 220 276Q229 306 227 331Q226 332 226 336Q214 406 180 486C162 523 162 523 153 542Q146 551 142 563Q94 651 27 741Q23 747 23 753Q23 757 29 756Q68 749 165 600C204 527 204 527 223 490Z"/>
<path id="z30855d3" d="M180 486Q170 482 155 478Q145 475 141 479Q134 483 141 499Q148 518 153 542C161 581 161 581 165 600Q169 634 174 677Q174 710 190 733Q205 754 210 740Q217 721 216 686C214 663 214 663 213 652Q201 541 206 525C209 510 195 492 180 486Z"/>
<path id="z30855d4" d="M360 616Q375 541 396 517Q418 489 394 476Q328 443 321 445Q312 445 305 451Q283 469 223 490C211 495 192 524 205 524C206 525 206 525 206 525Q225 522 293 504Q312 500 316 507Q323 514 305 623C302 641 356 634 360 616Z"/>
<path id="z30855d5" d="M216 686Q225 687 236 683Q282 670 383 651Q393 650 394 640Q394 633 361 616C360 616 360 616 360 616C343 609 323 617 305 623Q253 641 213 652C202 654 205 686 216 686Z"/>
<path id="z30855d6" d="M586 106Q631 149 671 165Q687 166 695 152Q699 139 695 121Q679 81 618 70Q575 64 568 68Q562 69 566 82Q569 94 586 106Z"/>
<path id="z30855d7" d="M501 273Q501 254 475 235Q457 223 457 247Q463 277 426 338Q392 384 423 433Q439 455 455 430Q455 427 495 304C499 283 499 283 501 273Z"/>
<path id="z30855d8" d="M495 304Q516 313 558 300Q642 261 786 235Q795 234 801 234Q817 235 817 242Q817 248 758 336Q751 346 757 351Q763 355 778 346Q839 301 890 286Q932 271 931 262Q930 252 863 203Q838 184 768 206Q735 210 501 273C491 276 485 300 495 304Z"/>
<path id="z30855d9" d="M644 451Q780 417 784 414Q791 407 787 399Q780 389 753 382Q726 378 699 389Q618 419 515 434Q482 440 506 455Q548 476 596 462Q597 461 600 461C629 454 629 454 644 451Z"/>
<path id="z30855d10" d="M663 738Q666 660 669 595C670 573 670 573 670 562Q670 532 673 502Q682 478 644 451C632 442 592 448 600 461Q612 476 615 569Q615 620 618 711C618 728 663 755 663 738Z"/>
<path id="z30855d11" d="M669 595Q669 594 670 594Q743 578 796 567Q820 560 810 548Q797 533 770 531Q731 528 670 562C661 568 659 600 669 595Z"/>
<path id="z30855d12" d="M518 637Q555 576 556 574Q555 564 542 554Q515 530 481 534Q474 537 475 548Q491 596 402 724Q356 773 309 825Q302 829 311 832Q369 820 454 726Q455 722 459 720Q477 698 501 663C512 646 512 646 518 637Z"/>
<path id="z30855d13" d="M501 663Q588 750 800 878Q825 887 948 858Q979 849 988 838Q994 826 974 826Q910 816 869 814Q770 808 667 741Q664 740 663 738C633 720 633 720 618 711Q569 677 518 637C510 631 494 656 501 663Z"/>
<defs>
	<clipPath id="z30855c1"><use xlink:href="#z30855d1"/></clipPath>
	<clipPath id="z30855c2"><use xlink:href="#z30855d2"/></clipPath>
	<clipPath id="z30855c3"><use xlink:href="#z30855d3"/></clipPath>
	<clipPath id="z30855c4"><use xlink:href="#z30855d4"/></clipPath>
	<clipPath id="z30855c5"><use xlink:href="#z30855d5"/></clipPath>
	<clipPath id="z30855c6"><use xlink:href="#z30855d6"/></clipPath>
	<clipPath id="z30855c7"><use xlink:href="#z30855d7"/></clipPath>
	<clipPath id="z30855c8"><use xlink:href="#z30855d8"/></clipPath>
	<clipPath id="z30855c9"><use xlink:href="#z30855d9"/></clipPath>
	<clipPath id="z30855c10"><use xlink:href="#z30855d10"/></clipPath>
	<clipPath id="z30855c11"><use xlink:href="#z30855d11"/></clipPath>
	<clipPath id="z30855c12"><use xlink:href="#z30855d12"/></clipPath>
	<clipPath id="z30855c13"><use xlink:href="#z30855d13"/></clipPath>
</defs>
<path style="--d:1s;" pathLength="3333" clip-path="url(#z30855c1)" d="M132 257L403 206"/>
<path style="--d:2s;" pathLength="3333" clip-path="url(#z30855c2)" d="M227 281L263 318L208 473L31 750"/>
<path style="--d:3s;" pathLength="3333" clip-path="url(#z30855c3)" d="M148 486L178 532L203 738"/>
<path style="--d:4s;" pathLength="3333" clip-path="url(#z30855c4)" d="M214 519L314 474L351 492L362 511L323 620"/>
<path style="--d:5s;" pathLength="3333" clip-path="url(#z30855c5)" d="M223 678L303 645L387 640"/>
<path style="--d:6s;" pathLength="3333" clip-path="url(#z30855c6)" d="M569 76L655 119L683 160"/>
<path style="--d:7s;" pathLength="3333" clip-path="url(#z30855c7)" d="M467 237L477 277L434 439"/>
<path style="--d:8s;" pathLength="3333" clip-path="url(#z30855c8)" d="M505 298L820 214L876 264L762 343"/>
<path style="--d:9s;" pathLength="3333" clip-path="url(#z30855c9)" d="M502 442L782 405"/>
<path style="--d:10s;" pathLength="3333" clip-path="url(#z30855c10)" d="M608 468L642 499L641 706L658 727"/>
<path style="--d:11s;" pathLength="3333" clip-path="url(#z30855c11)" d="M676 585L804 549"/>
<path style="--d:12s;" pathLength="3333" clip-path="url(#z30855c12)" d="M484 541L515 581L473 659L313 827"/>
<path style="--d:13s;" pathLength="3333" clip-path="url(#z30855c13)" d="M519 646L637 748L811 843L982 833"/>
</svg>