<!--
AnimCJK 2016-2025 Copyright FM-SH - https://github.com/parsimonhi/animCJK
Derived from:
    MakeMeAHanzi project - https://github.com/skishore/makemeahanzi
    Arphic PL KaitiM GB font
    Arphic PL KaitiM Big5 font
You can redistribute and/or modify this file under the terms of the Arphic Public License
as published by Arphic Technology Co., Ltd.
You should have received a copy of this license along with this file.
If not, see https://ftp.gnu.org/non-gnu/chinese-fonts-truetype/LICENSE.
-->
<svg id="z30860" class="acjk" viewBox="0 0 1024 1024" xmlns="http://www.w3.org/2000/svg">
<style>
<![CDATA[
@keyframes zk {
	to {
		stroke-dashoffset:0;
	}
}
svg.acjk path[clip-path] {
	--t:0.8s;
	animation:zk var(--t) linear forwards var(--d);
	stroke-dasharray:3337;
	stroke-dashoffset:3339;
	stroke-width:128;
	stroke-linecap:round;
	fill:none;
	stroke:#000;
}
svg.acjk path[id] {fill:#ccc;}
]]>
</style>
<path id="z30860d1" d="M263 292Q324 274 390 259Q424 250 428 245Q437 236 432 228Q425 216 394 210Q363 206 333 220Q296 233 254 246Q209 258 156 266Q119 273 146 289Q176 304 220 302C249 295 249 295 263 292Z"/>
<path id="z30860d2" d="M224 483C243 449 261 405 284 352C293 328 300 324 298 316C294 301 277 294 263 292C249 289 215 288 220 302C232 332 223 394 179 482C166 508 166 508 159 521C127 582 79 638 41 681C24 700 32 702 49 692C83 674 131 638 172 570C207 512 207 512 224 483Z"/>
<path id="z30860d3" d="M179 482C140 470 145 488 159 521C165 536 168 553 172 570C178 607 184 628 188 665C189 684 194 701 205 716C215 730 222 732 227 723C231 712 233 695 231 674C228 651 228 651 227 640C218 571 216 535 216 514C216 498 195 485 179 482Z"/>
<path id="z30860d4" d="M362 611C370 558 383 524 397 508C410 491 409 478 395 471C382 464 365 454 352 447C340 440 324 440 313 447C291 458 267 468 224 483C216 485 195 484 179 482C163 479 200 517 216 514C248 506 274 499 297 495C310 492 318 493 322 498C325 502 323 539 314 611C311 627 359 627 362 611Z"/>
<path id="z30860d5" d="M231 674C248 672 269 668 379 644C408 637 384 619 362 611C347 605 329 605 314 611C284 620 253 632 227 640C216 644 220 676 231 674Z"/>
<path id="z30860d6" d="M731 371C751 281 776 224 805 198C817 186 817 171 807 161C798 151 774 138 737 122C725 116 712 119 700 124C640 147 569 161 489 168C478 168 473 172 475 179C475 183 482 188 494 193C510 199 528 198 551 194C596 185 641 179 686 172C718 166 722 196 719 217C708 279 695 333 679 381C672 397 728 388 731 371Z"/>
<path id="z30860d7" d="M479 291C462 293 460 299 474 309C494 323 511 327 527 324C578 311 622 302 658 301C664 300 670 299 674 291C676 284 668 278 655 272C634 262 605 264 567 275C537 282 504 287 479 291Z"/>
<path id="z30860d8" d="M623 428C693 416 781 408 858 410C891 410 912 407 916 401C919 393 914 384 905 377C883 361 862 352 842 351C803 349 765 364 731 371C696 378 696 378 679 381C597 396 509 408 439 419C426 420 424 427 434 437C442 445 451 451 465 454C494 458 512 446 581 435C609 430 609 430 623 428Z"/>
<path id="z30860d9" d="M658 581C658 538 660 505 670 485C675 472 674 462 663 453C650 442 637 434 623 428C610 423 574 423 581 435C595 463 606 497 607 526C608 644 607 733 602 794C600 808 597 818 589 824C585 826 557 823 506 817C484 814 490 822 507 836C551 874 580 906 598 930C606 941 617 941 628 932C651 909 664 875 662 828C660 807 658 738 658 620C658 594 658 594 658 581Z"/>
<path id="z30860d10" d="M452 548C471 569 489 589 513 600C520 603 528 598 532 591C535 584 535 576 534 568C531 555 524 546 515 540C514 539 496 531 461 518C452 514 445 515 441 518C438 519 437 522 438 528C438 534 444 539 452 548Z"/>
<path id="z30860d11" d="M345 748C336 750 333 755 334 762C334 770 338 777 346 780C362 786 382 792 406 798C412 799 418 795 425 788C476 728 517 705 562 656C590 625 573 625 549 637C532 646 509 662 477 681C399 724 354 745 345 748Z"/>
<path id="z30860d12" d="M766 499C750 518 725 540 697 571C684 584 690 590 710 582C767 556 807 537 835 529C846 525 851 522 850 515C847 504 840 491 830 478C819 465 806 455 792 453C782 451 776 457 776 470C776 478 774 488 766 499Z"/>
<path id="z30860d13" d="M658 620C698 680 744 742 798 806C808 818 822 822 841 822C900 819 940 817 959 813C975 809 973 802 957 796C875 762 808 723 757 677C725 648 692 617 658 581C649 572 650 610 658 620Z"/>
<defs>
	<clipPath id="z30860c1"><use href="#z30860d1"/></clipPath>
	<clipPath id="z30860c2"><use href="#z30860d2"/></clipPath>
	<clipPath id="z30860c3"><use href="#z30860d3"/></clipPath>
	<clipPath id="z30860c4"><use href="#z30860d4"/></clipPath>
	<clipPath id="z30860c5"><use href="#z30860d5"/></clipPath>
	<clipPath id="z30860c6"><use href="#z30860d6"/></clipPath>
	<clipPath id="z30860c7"><use href="#z30860d7"/></clipPath>
	<clipPath id="z30860c8"><use href="#z30860d8"/></clipPath>
	<clipPath id="z30860c9"><use href="#z30860d9"/></clipPath>
	<clipPath id="z30860c10"><use href="#z30860d10"/></clipPath>
	<clipPath id="z30860c11"><use href="#z30860d11"/></clipPath>
	<clipPath id="z30860c12"><use href="#z30860d12"/></clipPath>
	<clipPath id="z30860c13"><use href="#z30860d13"/></clipPath>
</defs>
<path style="--d:1s;" pathLength="3333" clip-path="url(#z30860c1)" d="M140 275L207 280L429 233"/>
<path style="--d:2s;" pathLength="3333" clip-path="url(#z30860c2)" d="M227 301L261 332L211 463L131 599L38 692"/>
<path style="--d:3s;" pathLength="3333" clip-path="url(#z30860c3)" d="M156 484L187 515L216 723"/>
<path style="--d:4s;" pathLength="3333" clip-path="url(#z30860c4)" d="M185 487L327 469L364 492L329 620"/>
<path style="--d:5s;" pathLength="3333" clip-path="url(#z30860c5)" d="M225 660L386 633"/>
<path style="--d:6s;" pathLength="3333" clip-path="url(#z30860c6)" d="M485 178L710 146L755 169L767 190L686 384"/>
<path style="--d:7s;" pathLength="3333" clip-path="url(#z30860c7)" d="M473 299L667 286"/>
<path style="--d:8s;" pathLength="3333" clip-path="url(#z30860c8)" d="M434 427L808 381L911 387"/>
<path style="--d:9s;" pathLength="3333" clip-path="url(#z30860c9)" d="M588 433L637 479L625 849L598 885L503 822"/>
<path style="--d:10s;" pathLength="3333" clip-path="url(#z30860c10)" d="M445 525L523 593"/>
<path style="--d:11s;" pathLength="3333" clip-path="url(#z30860c11)" d="M340 761L405 760L569 636"/>
<path style="--d:12s;" pathLength="3333" clip-path="url(#z30860c12)" d="M789 455L808 510L696 578"/>
<path style="--d:13s;" pathLength="3333" clip-path="url(#z30860c13)" d="M656 587L826 777L960 802"/>
</svg>