<!--
AnimCJK 2016-2018 Copyright Francois Mizessyn - https://github.com/parsimonhi/animCJK
Derived from:
    MakeMeAHanzi project - https://github.com/skishore/makemeahanzi
    Arphic PL KaitiM GB - https://apps.ubuntu.com/cat/applications/precise/fonts-arphic-gkai00mp/
    Arphic PL UKai - https://apps.ubuntu.com/cat/applications/fonts-arphic-ukai/
You can redistribute and/or modify this file under the terms of the Arphic Public License
as published by Arphic Technology Co., Ltd.
You should have received a copy of this license (the directory "APL") along with this file;
if not, see http://ftp.gnu.org/non-gnu/chinese-fonts-truetype/LICENSE.
-->
<svg id="z30876" class="acjk" version="1.1" viewBox="0 0 1024 1024" xmlns="http://www.w3.org/2000/svg" xmlns:xlink="http://www.w3.org/1999/xlink">
<style>
<![CDATA[
@keyframes z30876k {
	from {
		stroke:#ccc;
		stroke-dashoffset:3334;
	}
	1% {
		stroke:#c00;
		stroke-dashoffset:3334;
	}
	75% {
		stroke:#c00;
		stroke-dashoffset:0;
	}
	to {
		stroke:#000;
	}
}
#z30876 path[clip-path] {
	animation:z30876k 1s linear both;
	stroke-dasharray:3334;
	stroke-width:128;
	stroke-linecap:round;
	fill:none;
}
#z30876 path[clip-path="url(#z30876c1)"] {animation-delay:1s;}
#z30876 path[clip-path="url(#z30876c2)"] {animation-delay:2s;}
#z30876 path[clip-path="url(#z30876c3)"] {animation-delay:3s;}
#z30876 path[clip-path="url(#z30876c4)"] {animation-delay:4s;}
#z30876 path[clip-path="url(#z30876c5)"] {animation-delay:5s;}
#z30876 path[clip-path="url(#z30876c6)"] {animation-delay:6s;}
#z30876 path[clip-path="url(#z30876c7)"] {animation-delay:7s;}
#z30876 path[clip-path="url(#z30876c8)"] {animation-delay:8s;}
#z30876 path[clip-path="url(#z30876c9)"] {animation-delay:9s;}
#z30876 path[clip-path="url(#z30876c10)"] {animation-delay:10s;}
#z30876 path[clip-path="url(#z30876c11)"] {animation-delay:11s;}
#z30876 path[clip-path="url(#z30876c12)"] {animation-delay:12s;}
#z30876 path[clip-path="url(#z30876c13)"] {animation-delay:13s;}
#z30876 path {fill:#ccc;}
]]>
</style>
<path id="z30876d1" d="M244 313Q385 268 390 265Q397 256 392 248Q385 236 354 232Q332 229 241 264Q157 288 130 293Q93 303 122 317Q158 333 200 325L244 313 Z"/>
<path id="z30876d2" d="M215 518Q237 466 254 425Q267 383 278 363Q282 351 273 339Q258 321 244 313L200 325Q209 352 209 362Q208 368 207 378Q198 444 167 520L145 567Q99 660 43 741Q39 747 39 753Q39 757 45 756Q84 747 159 625L215 518 Z"/>
<path id="z30876d3" d="M167 520Q158 517 147 515Q137 512 133 516Q127 522 134 536Q138 549 145 567L159 625Q166 662 172 707Q173 738 190 761Q205 782 210 768Q217 749 215 717L211 686Q193 563 198 553L167 520 Z"/>
<path id="z30876d4" d="M342 655Q357 564 380 537Q399 512 378 500Q359 490 333 476Q314 467 298 478Q277 494 248 506Q233 512 215 518L197 553L198 553Q213 544 282 527Q303 520 308 529Q317 535 310 571Q303 610 295 655L342 655 Z"/>
<path id="z30876d5" d="M215 717Q227 717 240 714Q277 702 360 688Q370 685 370 676Q370 669 342 655L295 655Q292 655 290 657Q247 675 211 686L215 717 Z"/>
<path id="z30876d6" d="M580 284Q626 269 701 253Q710 250 717 247L702 228Q620 240 530 263Q520 266 518 263Q517 260 522 252Q616 143 635 125Q647 118 642 105Q638 93 595 70Q580 63 572 65Q559 69 564 89Q576 150 476 244Q460 257 439 271Q426 281 429 291Q433 307 455 326Q464 336 477 327Q492 314 534 298L580 284 Z"/>
<path id="z30876d7" d="M717 247Q744 283 756 286Q763 287 770 279Q774 269 773 247Q770 214 688 170Q678 166 672 166Q668 167 667 177Q667 181 702 228L717 247 Z"/>
<path id="z30876d8" d="M664 404Q751 395 854 394Q872 393 876 385Q880 373 865 361Q814 328 781 336Q712 354 595 376Q583 377 571 381L516 391Q446 401 367 415Q348 418 362 433Q375 445 393 450Q412 454 427 449Q461 439 500 431L554 420Q581 411 634 408L664 404 Z"/>
<path id="z30876d9" d="M571 381Q590 338 602 324Q609 317 606 310Q603 295 580 284L534 298Q541 314 516 391L500 431Q461 518 374 606Q364 618 373 620Q388 624 446 577Q507 523 554 420L571 381 Z"/>
<path id="z30876d10" d="M634 408Q698 493 771 570Q792 592 827 594Q891 598 960 587Q978 586 979 581Q980 575 967 569Q822 515 792 498Q746 474 664 404L634 408 Z"/>
<path id="z30876d11" d="M585 478Q579 542 462 670Q447 683 468 678Q547 653 624 526Q637 507 645 497Q652 487 649 479Q645 469 624 466Q602 462 592 465Q586 466 585 478 Z"/>
<path id="z30876d12" d="M623 585Q617 657 467 805Q451 820 473 814Q537 802 643 664Q652 643 686 607Q693 597 690 589Q686 579 664 574Q639 568 630 572Q623 573 623 585 Z"/>
<path id="z30876d13" d="M687 676Q690 742 574 860Q571 861 569 864Q535 897 450 957Q443 961 451 965Q509 965 622 871Q697 796 742 742Q751 732 757 727Q764 723 764 713Q760 686 724 670Q705 663 695 663Q686 664 687 676 Z"/>
<defs>
	<clipPath id="z30876c1"><use xlink:href="#z30876d1"/></clipPath>
	<clipPath id="z30876c2"><use xlink:href="#z30876d2"/></clipPath>
	<clipPath id="z30876c3"><use xlink:href="#z30876d3"/></clipPath>
	<clipPath id="z30876c4"><use xlink:href="#z30876d4"/></clipPath>
	<clipPath id="z30876c5"><use xlink:href="#z30876d5"/></clipPath>
	<clipPath id="z30876c6"><use xlink:href="#z30876d6"/></clipPath>
	<clipPath id="z30876c7"><use xlink:href="#z30876d7"/></clipPath>
	<clipPath id="z30876c8"><use xlink:href="#z30876d8"/></clipPath>
	<clipPath id="z30876c9"><use xlink:href="#z30876d9"/></clipPath>
	<clipPath id="z30876c10"><use xlink:href="#z30876d10"/></clipPath>
	<clipPath id="z30876c11"><use xlink:href="#z30876d11"/></clipPath>
	<clipPath id="z30876c12"><use xlink:href="#z30876d12"/></clipPath>
	<clipPath id="z30876c13"><use xlink:href="#z30876d13"/></clipPath>
</defs>
<path pathLength="3333" clip-path="url(#z30876c1)" d="M117 305L388 258"/>
<path pathLength="3333" clip-path="url(#z30876c2)" d="M207 328L243 365L194 512L45 748"/>
<path pathLength="3333" clip-path="url(#z30876c3)" d="M140 523L170 559L200 767"/>
<path pathLength="3333" clip-path="url(#z30876c4)" d="M205 545L294 503L343 516L307 653"/>
<path pathLength="3333" clip-path="url(#z30876c5)" d="M223 709L294 678L362 677"/>
<path pathLength="3333" clip-path="url(#z30876c6)" d="M573 69L601 116L477 272L484 290L710 239"/>
<path pathLength="3333" clip-path="url(#z30876c7)" d="M675 175L764 277"/>
<path pathLength="3333" clip-path="url(#z30876c8)" d="M366 427L772 367L873 377"/>
<path pathLength="3333" clip-path="url(#z30876c9)" d="M539 307L567 331L519 442L445 554L376 614"/>
<path pathLength="3333" clip-path="url(#z30876c10)" d="M641 408L809 550L971 579"/>
<path pathLength="3333" clip-path="url(#z30876c11)" d="M644 482L605 498L560 583L467 675"/>
<path pathLength="3333" clip-path="url(#z30876c12)" d="M683 593L642 606L577 714L469 808"/>
<path pathLength="3333" clip-path="url(#z30876c13)" d="M694 668L723 710L677 777L573 886L457 960"/>
</svg>