<!--
AnimCJK 2016-2018 Copyright Francois Mizessyn, https://github.com/parsimonhi/animCJK
Derived from:
    MakeMeAHanzi project - https://github.com/skishore/makemeahanzi
    Arphic PL KaitiM GB - https://apps.ubuntu.com/cat/applications/precise/fonts-arphic-gkai00mp/
    Arphic PL UKai - https://apps.ubuntu.com/cat/applications/fonts-arphic-ukai/
You can redistribute and/or modify this file under the terms of the Arphic Public License
as published by Arphic Technology Co., Ltd.
You should have received a copy of this license (the directory "APL") along with this file;
if not, see http://ftp.gnu.org/non-gnu/chinese-fonts-truetype/LICENSE.
-->
<svg id="z30913" class="acjk" version="1.1" viewBox="0 0 1024 1024" xmlns="http://www.w3.org/2000/svg" xmlns:xlink="http://www.w3.org/1999/xlink">
<style>
<![CDATA[
@keyframes z30913k {
	from {
		stroke:#c00;
		stroke-dashoffset:3334;
	}
	75% {
		stroke:#c00;
		stroke-dashoffset:0;
	}
	to {
		stroke:#000;
	}
}
#z30913 path[clip-path] {
	animation:z30913k 1s linear both;
	stroke-dasharray:3334;
	stroke-width:128;
	stroke-linecap:round;
	fill:none;
}
#z30913 path[clip-path="url(#z30913c1)"] {animation-delay:1s;}
#z30913 path[clip-path="url(#z30913c2)"] {animation-delay:2s;}
#z30913 path[clip-path="url(#z30913c3)"] {animation-delay:3s;}
#z30913 path[clip-path="url(#z30913c4)"] {animation-delay:4s;}
#z30913 path[clip-path="url(#z30913c5)"] {animation-delay:5s;}
#z30913 path[clip-path="url(#z30913c6)"] {animation-delay:6s;}
#z30913 path[clip-path="url(#z30913c7)"] {animation-delay:7s;}
#z30913 path[clip-path="url(#z30913c8)"] {animation-delay:8s;}
#z30913 path[clip-path="url(#z30913c9)"] {animation-delay:9s;}
#z30913 path[clip-path="url(#z30913c10)"] {animation-delay:10s;}
#z30913 path[clip-path="url(#z30913c11)"] {animation-delay:11s;}
#z30913 path[clip-path="url(#z30913c12)"] {animation-delay:12s;}
#z30913 path[clip-path="url(#z30913c13)"] {animation-delay:13s;}
#z30913 path[clip-path="url(#z30913c14)"] {animation-delay:14s;}
#z30913 path {fill:#ccc;}
]]>
</style>
<path id="z30913d1" d="M281 296Q423 254 429 249Q438 240 432 232Q425 220 394 215Q373 212 268 251Q166 275 163 277Q126 287 154 301Q187 316 234 310L281 296 Z"/>
<path id="z30913d2" d="M235 505Q265 447 301 360Q316 324 316 322Q310 304 281 296L234 310Q250 373 192 494L171 537Q137 600 35 725Q28 731 39 732Q48 729 69 711Q106 684 138 651Q160 626 184 593L235 505 Z"/>
<path id="z30913d3" d="M192 494Q185 493 178 490Q166 486 163 491Q156 495 163 512Q167 522 171 537L184 593Q191 636 197 691Q197 725 214 748Q229 770 235 756Q244 734 241 694L237 661Q227 567 227 535L192 494 Z"/>
<path id="z30913d4" d="M355 638Q370 554 394 527Q413 505 392 492Q374 482 350 468Q335 459 291 484Q266 496 235 505L221 529L227 535Q230 532 298 515Q320 509 325 517Q334 526 310 638L355 638 Z"/>
<path id="z30913d5" d="M241 694Q245 694 253 692Q290 682 371 669Q381 668 381 659Q381 652 355 638L310 638Q309 638 308 638Q268 651 237 661L241 694 Z"/>
<path id="z30913d6" d="M508 214Q532 242 556 277Q566 290 581 293Q590 294 597 283Q604 270 601 242Q600 223 572 202Q503 163 492 165Q488 168 486 180Q487 190 508 214 Z"/>
<path id="z30913d7" d="M662 329Q705 278 731 245Q783 167 813 144Q832 128 816 113Q797 100 767 92Q739 85 727 91Q714 97 723 109Q735 139 688 233Q663 282 635 336L662 329 Z"/>
<path id="z30913d8" d="M763 356Q844 347 928 337Q928 336 930 334Q934 322 917 310Q860 274 802 294Q745 309 662 329L635 336Q532 357 410 382Q391 385 407 401Q432 423 472 417L502 406Q608 372 719 362L763 356 Z"/>
<path id="z30913d9" d="M472 417Q485 448 436 550Q426 572 402 594Q387 607 389 617Q393 633 405 647Q414 656 424 650Q443 638 509 624Q513 623 519 623L532 600Q499 600 472 600Q441 601 456 581Q495 515 533 466Q543 451 541 445Q538 432 505 408Q504 407 502 406L472 417 Z"/>
<path id="z30913d10" d="M519 623Q431 764 399 780Q387 789 390 801Q391 814 415 831Q425 843 438 831Q489 797 568 775L560 758Q523 762 482 771Q446 784 470 754Q501 708 575 613Q600 579 621 558Q631 549 626 540Q616 524 586 507Q571 500 563 502Q554 506 556 520Q556 538 532 600L519 623 Z"/>
<path id="z30913d11" d="M568 775Q584 814 596 819Q603 822 610 815Q617 808 619 786Q622 768 604 747Q559 702 548 702Q544 703 542 712Q542 713 560 758L568 775 Z"/>
<path id="z30913d12" d="M773 595Q737 594 707 593Q670 594 689 571Q735 477 783 408Q793 392 791 385Q788 375 763 356L719 362Q731 401 675 526Q662 556 633 586Q617 599 619 609Q623 625 636 640Q645 650 655 643Q674 633 742 619Q749 618 758 619L773 595 Z"/>
<path id="z30913d13" d="M834 732Q783 739 724 756Q691 768 713 741Q747 690 829 589Q854 553 878 532Q888 523 883 514Q873 495 841 479Q826 470 817 473Q807 476 810 491Q813 524 773 595L758 619Q662 757 639 768Q626 775 629 790Q630 803 655 821Q665 831 680 820Q746 778 844 749L834 732 Z"/>
<path id="z30913d14" d="M844 749Q901 851 903 853Q909 856 917 850Q930 843 930 806Q931 760 824 676Q818 670 813 679Q810 688 834 732L844 749 Z"/>
<defs>
	<clipPath id="z30913c1"><use xlink:href="#z30913d1"/></clipPath>
	<clipPath id="z30913c2"><use xlink:href="#z30913d2"/></clipPath>
	<clipPath id="z30913c3"><use xlink:href="#z30913d3"/></clipPath>
	<clipPath id="z30913c4"><use xlink:href="#z30913d4"/></clipPath>
	<clipPath id="z30913c5"><use xlink:href="#z30913d5"/></clipPath>
	<clipPath id="z30913c6"><use xlink:href="#z30913d6"/></clipPath>
	<clipPath id="z30913c7"><use xlink:href="#z30913d7"/></clipPath>
	<clipPath id="z30913c8"><use xlink:href="#z30913d8"/></clipPath>
	<clipPath id="z30913c9"><use xlink:href="#z30913d9"/></clipPath>
	<clipPath id="z30913c10"><use xlink:href="#z30913d10"/></clipPath>
	<clipPath id="z30913c11"><use xlink:href="#z30913d11"/></clipPath>
	<clipPath id="z30913c12"><use xlink:href="#z30913d12"/></clipPath>
	<clipPath id="z30913c13"><use xlink:href="#z30913d13"/></clipPath>
	<clipPath id="z30913c14"><use xlink:href="#z30913d14"/></clipPath>
</defs>
<path pathLength="3333" clip-path="url(#z30913c1)" d="M152 291L428 239"/>
<path pathLength="3333" clip-path="url(#z30913c2)" d="M239 314L276 341L214 499L129 634L41 725"/>
<path pathLength="3333" clip-path="url(#z30913c3)" d="M169 497L201 546L225 753"/>
<path pathLength="3333" clip-path="url(#z30913c4)" d="M227 526L331 490L364 512L323 637"/>
<path pathLength="3333" clip-path="url(#z30913c5)" d="M247 686L311 658L376 659"/>
<path pathLength="3333" clip-path="url(#z30913c6)" d="M496 171L560 230L583 288"/>
<path pathLength="3333" clip-path="url(#z30913c7)" d="M726 99L772 136L643 330"/>
<path pathLength="3333" clip-path="url(#z30913c8)" d="M407 388L470 393L834 317L926 325"/>
<path pathLength="3333" clip-path="url(#z30913c9)" d="M480 422L503 463L425 611L436 625L526 608"/>
<path pathLength="3333" clip-path="url(#z30913c10)" d="M566 507L589 546L426 787L445 805L561 769"/>
<path pathLength="3333" clip-path="url(#z30913c11)" d="M549 709L604 814"/>
<path pathLength="3333" clip-path="url(#z30913c12)" d="M726 369L752 406L653 600L667 618L765 602"/>
<path pathLength="3333" clip-path="url(#z30913c13)" d="M817 480L844 524L672 776L691 792L839 741"/>
<path pathLength="3333" clip-path="url(#z30913c14)" d="M820 683L888 773L913 849"/>
</svg>