<!--
AnimCJK 2016-2026 Copyright FM-SH, https://github.com/parsimonhi/animCJK
Derived from:
    MakeMeAHanzi project - https://github.com/skishore/makemeahanzi
    Arphic PL KaitiM GB font
    Arphic PL KaitiM Big5 font
You can redistribute and/or modify this file under the terms of the Arphic Public License
as published by Arphic Technology Co., Ltd.
You should have received a copy of this license along with this file.
If not, see https://ftp.gnu.org/non-gnu/chinese-fonts-truetype/LICENSE.
-->
<svg id="z30970" class="acjk" viewBox="0 0 1024 1024" xmlns="http://www.w3.org/2000/svg">
<style>
<![CDATA[
@keyframes zk {
	to {
		stroke-dashoffset:0;
	}
}
svg.acjk path[clip-path] {
	--t:0.8s;
	animation:zk var(--t) linear forwards var(--d);
	stroke-dasharray:3337;
	stroke-dashoffset:3339;
	stroke-width:128;
	stroke-linecap:round;
	fill:none;
	stroke:#000;
}
svg.acjk path[id] {fill:#ccc;}
]]>
</style>
<path id="z30970d1" d="M252 297C315 279 390 261 401 253C413 243 407 225 366 219C345 215 325 220 305 229C225 260 184 265 143 273C118 277 115 287 134 297C152 307 169 311 203 309C236 301 236 301 252 297Z"/>
<path id="z30970d2" d="M215 487C233 453 251 412 271 356C279 330 295 316 252 297C236 291 198 293 203 309C213 337 209 400 168 489C159 509 159 509 154 519C124 581 81 634 39 689C34 694 35 697 42 696C76 685 125 646 169 569C200 514 200 514 215 487Z"/>
<path id="z30970d3" d="M168 489C161 486 154 483 149 489C142 495 146 505 154 519C162 534 165 552 169 569C175 594 181 620 185 652C186 669 192 684 202 697C212 710 218 712 222 703C225 692 227 680 226 662C225 651 223 640 222 630C214 579 210 535 210 521C210 503 184 496 168 489Z"/>
<path id="z30970d4" d="M355 606C363 559 375 528 389 512C402 495 400 482 386 475C373 468 359 459 342 450C329 443 317 444 306 452C291 461 245 480 215 487C202 489 184 489 168 489C150 489 193 524 210 521C226 517 256 506 290 500C320 493 321 508 317 539C314 559 311 582 307 606C304 622 352 622 355 606Z"/>
<path id="z30970d5" d="M226 662C241 662 237 657 371 637C393 633 378 617 355 606C340 600 322 601 307 606C275 616 246 624 222 630C211 632 215 662 226 662Z"/>
<path id="z30970d6" d="M720 260C752 254 810 242 830 233C843 226 847 208 798 195C776 189 752 194 731 201C694 212 694 212 675 218C629 231 593 238 567 242C533 247 533 247 516 249C493 252 470 252 447 255C422 257 418 265 436 278C454 290 483 301 522 295C552 290 552 290 567 287C601 280 635 275 671 269C704 263 704 263 720 260Z"/>
<path id="z30970d7" d="M567 242C567 218 578 187 558 171C543 159 527 151 510 146C496 141 475 144 487 167C501 195 512 222 516 249C520 280 520 280 522 295C525 319 528 353 533 395C535 408 572 402 572 389C569 349 567 315 567 287C567 257 567 257 567 242Z"/>
<path id="z30970d8" d="M698 368C705 330 713 294 720 260C727 221 727 221 731 201C735 175 743 151 754 129C757 122 752 113 741 104C721 89 703 81 690 77C674 72 655 78 666 100C684 136 678 178 675 218C672 252 672 252 671 269C668 301 664 337 660 375C658 388 695 381 698 368Z"/>
<path id="z30970d9" d="M617 417C651 411 781 400 857 400C887 399 945 399 909 369C847 322 808 348 698 368C673 373 673 373 660 375C630 380 601 384 572 389C546 393 546 393 533 395C484 402 434 409 383 416C370 417 368 422 378 433C403 459 426 453 440 450C490 438 549 427 578 423C604 419 604 419 617 417Z"/>
<path id="z30970d10" d="M476 524C460 519 408 497 429 538C447 575 460 625 470 687C472 705 479 720 489 733C500 747 509 741 513 727C515 719 514 711 514 704C510 662 498 611 493 555C491 543 487 528 476 524Z"/>
<path id="z30970d11" d="M721 701C735 724 744 761 770 730C778 717 792 674 813 602C818 581 830 564 846 549C854 540 855 532 848 524C839 513 820 500 793 481C769 464 775 473 645 496C610 502 610 502 593 505C581 507 479 523 476 524C464 526 481 557 493 555C521 548 554 541 593 535C627 530 627 530 644 527C707 517 744 513 755 524C762 531 764 541 763 549C750 613 739 656 729 676C726 684 716 694 721 701Z"/>
<path id="z30970d12" d="M639 618C663 614 686 610 708 608C736 604 719 583 691 578C678 575 661 577 641 583C610 592 610 592 594 596C574 601 555 605 538 610C529 612 530 616 541 625C543 627 561 630 594 625C624 620 624 620 639 618Z"/>
<path id="z30970d13" d="M645 496C646 456 653 439 617 417C606 410 574 411 578 423C584 441 593 466 593 505C593 525 593 525 593 535C593 551 594 571 594 596C594 615 594 615 594 625C594 643 594 665 595 689C595 703 637 694 637 680C637 658 637 637 639 618C640 595 640 595 641 583C642 563 643 544 644 527C645 506 645 506 645 496Z"/>
<path id="z30970d14" d="M513 727C530 728 652 709 721 701C730 700 737 681 729 676C702 660 665 673 637 680C609 686 609 686 595 689C566 695 539 698 514 704C506 705 505 727 513 727Z"/>
<path id="z30970d15" d="M522 774C510 810 457 860 358 921C343 929 345 932 363 933C403 934 467 904 554 841C568 830 579 823 587 818C608 801 597 786 573 774C556 765 543 760 535 761C530 761 524 765 522 774Z"/>
<path id="z30970d16" d="M688 800C718 828 750 864 785 908C795 922 806 930 816 934C822 934 827 931 833 925C841 916 842 897 835 867C829 839 803 815 758 795C729 782 707 773 691 768C684 764 680 766 679 775C678 783 681 792 688 800Z"/>
<defs>
	<clipPath id="z30970c1"><use href="#z30970d1"/></clipPath>
	<clipPath id="z30970c2"><use href="#z30970d2"/></clipPath>
	<clipPath id="z30970c3"><use href="#z30970d3"/></clipPath>
	<clipPath id="z30970c4"><use href="#z30970d4"/></clipPath>
	<clipPath id="z30970c5"><use href="#z30970d5"/></clipPath>
	<clipPath id="z30970c6"><use href="#z30970d6"/></clipPath>
	<clipPath id="z30970c7"><use href="#z30970d7"/></clipPath>
	<clipPath id="z30970c8"><use href="#z30970d8"/></clipPath>
	<clipPath id="z30970c9"><use href="#z30970d9"/></clipPath>
	<clipPath id="z30970c10"><use href="#z30970d10"/></clipPath>
	<clipPath id="z30970c11"><use href="#z30970d11"/></clipPath>
	<clipPath id="z30970c12"><use href="#z30970d12"/></clipPath>
	<clipPath id="z30970c13"><use href="#z30970d13"/></clipPath>
	<clipPath id="z30970c14"><use href="#z30970d14"/></clipPath>
	<clipPath id="z30970c15"><use href="#z30970d15"/></clipPath>
	<clipPath id="z30970c16"><use href="#z30970d16"/></clipPath>
</defs>
<path style="--d:1s;" pathLength="3333" clip-path="url(#z30970c1)" d="M130 284L402 242"/>
<path style="--d:2s;" pathLength="3333" clip-path="url(#z30970c2)" d="M210 306L243 343L197 476L122 608L44 690"/>
<path style="--d:3s;" pathLength="3333" clip-path="url(#z30970c3)" d="M153 494L185 526L213 700"/>
<path style="--d:4s;" pathLength="3333" clip-path="url(#z30970c4)" d="M173 494L217 502L317 472L345 487L358 503L329 616"/>
<path style="--d:5s;" pathLength="3333" clip-path="url(#z30970c5)" d="M217 644L375 628"/>
<path style="--d:6s;" pathLength="3333" clip-path="url(#z30970c6)" d="M431 264L526 271L831 218"/>
<path style="--d:7s;" pathLength="3333" clip-path="url(#z30970c7)" d="M491 152L536 197L550 400"/>
<path style="--d:8s;" pathLength="3333" clip-path="url(#z30970c8)" d="M670 83L715 129L674 379"/>
<path style="--d:9s;" pathLength="3333" clip-path="url(#z30970c9)" d="M377 423L813 372L916 384"/>
<path style="--d:10s;" pathLength="3333" clip-path="url(#z30970c10)" d="M431 524L465 553L496 737"/>
<path style="--d:11s;" pathLength="3333" clip-path="url(#z30970c11)" d="M479 529L776 503L807 540L751 737"/>
<path style="--d:12s;" pathLength="3333" clip-path="url(#z30970c12)" d="M538 616L715 594"/>
<path style="--d:13s;" pathLength="3333" clip-path="url(#z30970c13)" d="M585 424L618 463L612 694"/>
<path style="--d:14s;" pathLength="3333" clip-path="url(#z30970c14)" d="M512 717L729 688"/>
<path style="--d:15s;" pathLength="3333" clip-path="url(#z30970c15)" d="M534 765L554 801L357 927"/>
<path style="--d:16s;" pathLength="3333" clip-path="url(#z30970c16)" d="M686 771L784 851L827 927"/>
</svg>