<!--
AnimCJK 2016-2017 Copyright Francois Mizessyn, http://gooo.free.fr/animCJK/
Derived from:
    MakeMeAHanzi project - https://github.com/skishore/makemeahanzi
    Arphic PL KaitiM GB - https://apps.ubuntu.com/cat/applications/precise/fonts-arphic-gkai00mp/
    Arphic PL UKai - https://apps.ubuntu.com/cat/applications/fonts-arphic-ukai/
You can redistribute and/or modify this file under the terms of the Arphic Public License
as published by Arphic Technology Co., Ltd.
You should have received a copy of this license (the directory "APL") along with this file;
if not, see http://ftp.gnu.org/non-gnu/chinese-fonts-truetype/LICENSE.
-->
<svg id="z30977" class="acjk" version="1.1" viewBox="0 0 1024 1024" xmlns="http://www.w3.org/2000/svg" xmlns:xlink="http://www.w3.org/1999/xlink">
<style>
<![CDATA[
	@keyframes z30977k {
		from {
			stroke:#c00;
			stroke-dashoffset:3000;
		}
		75% {
			stroke:#c00;
			stroke-dashoffset:0;
		}
		to {
			stroke:#000;
		}
	}
	#z30977 path[clip-path] {
		animation:z30977k 1s linear both;
		stroke-dasharray:3000;
		stroke-width:128;
		stroke-linecap:round;
		fill:none;
	}
	#z30977 path[clip-path="url(#z30977c1)"] {animation-delay:1s;}
	#z30977 path[clip-path="url(#z30977c2)"] {animation-delay:2s;}
	#z30977 path[clip-path="url(#z30977c3)"] {animation-delay:3s;}
	#z30977 path[clip-path="url(#z30977c4)"] {animation-delay:4s;}
	#z30977 path[clip-path="url(#z30977c5)"] {animation-delay:5s;}
	#z30977 path[clip-path="url(#z30977c6)"] {animation-delay:6s;}
	#z30977 path[clip-path="url(#z30977c7)"] {animation-delay:7s;}
	#z30977 path[clip-path="url(#z30977c8)"] {animation-delay:8s;}
	#z30977 path[clip-path="url(#z30977c9)"] {animation-delay:9s;}
	#z30977 path[clip-path="url(#z30977c10)"] {animation-delay:10s;}
	#z30977 path[clip-path="url(#z30977c11)"] {animation-delay:11s;}
	#z30977 path[clip-path="url(#z30977c12)"] {animation-delay:12s;}
	#z30977 path[clip-path="url(#z30977c13)"] {animation-delay:13s;}
	#z30977 path[clip-path="url(#z30977c14)"] {animation-delay:14s;}
	#z30977 path[clip-path="url(#z30977c15)"] {animation-delay:15s;}
	#z30977 path[clip-path="url(#z30977c16)"] {animation-delay:16s;}
	#z30977 path[clip-path="url(#z30977c17)"] {animation-delay:17s;}
	#z30977 path {fill:#ccc;}
]]>
</style>
<g transform="scale(1,-1) translate(0,-900)">
	<path id="z30977d1" d="M242 629Q303 648 372 666Q405 676 409 681Q416 688 412 697Q405 707 375 713Q356 716 253 678Q163 657 146 653Q112 644 138 630Q168 617 203 619L242 629Z"/>
	<path id="z30977d2" d="M212 427Q237 482 271 569Q283 602 283 605Q280 612 267 621Q254 628 242 629L203 619Q210 601 211 577Q202 508 169 431L154 399Q88 294 43 234Q37 228 46 228Q91 243 170 353L212 427Z"/>
	<path id="z30977d3" d="M169 431Q168 432 163 433Q153 436 149 431Q143 427 150 411Q151 407 154 399L170 353Q183 307 191 243Q192 212 210 191Q225 170 230 185Q237 207 232 251L227 280Q212 373 211 399L169 431Z"/>
	<path id="z30977d4" d="M352 310Q364 383 385 408Q404 433 382 445Q363 455 337 470Q319 479 302 467Q283 452 257 443Q236 436 212 427L200.60377358490567 406.92093441150047L211 399Q220 400 233 404Q264 413 290 419Q308 423 312 416Q319 410 314 376Q310 343 304 306L352 310Z"/>
	<path id="z30977d5" d="M232 251Q239 252 245 254Q284 266 368 281Q378 282 378 290Q377 297 352 310L304 306Q258 291 227 280L232 251Z"/>
	<path id="z30977d6" d="M479 584Q516 629 560 695Q579 728 596 743Q603 753 600 764Q596 776 571 796Q547 812 531 812Q515 811 522 791Q540 752 461 627Q424 570 374 507Q365 498 363 493Q360 483 372 485Q393 488 456 557L479 584Z"/>
	<path id="z30977d7" d="M517 274Q518 281 518 287Q517 468 521 509Q528 533 519 542Q503 560 492 572Q486 579 479 584L456 557Q496 488 460 299Q439 272 471 216Q474 207 480 202Q496 189 506 212Q513 234 516 260L517 274Z"/>
	<path id="z30977d8" d="M667 764Q691 739 715 711Q728 698 744 696Q754 696 761 709Q767 724 760 754Q754 782 666 812Q650 816 644 815Q638 811 639 798Q642 788 667 764Z"/>
	<path id="z30977d9" d="M691 594Q832 630 835 632Q842 639 839 646Q832 656 807 662Q782 666 756 656Q719 643 679 632Q636 622 583 616Q552 610 574 596Q605 578 652 586L691 594Z"/>
	<path id="z30977d10" d="M716 489Q758 499 797 506Q818 510 809 521Q799 534 777 537Q755 538 719 527Q718 527 718 526L665 509Q616 496 574 484Q559 480 578 467Q588 460 611 465Q636 472 666 477L716 489Z"/>
	<path id="z30977d11" d="M712 386Q758 396 800 402Q821 406 813 417Q803 430 781 434Q757 437 713 423L666 410Q617 398 574 387Q559 384 578 371Q588 364 611 367Q639 373 667 378L712 386Z"/>
	<path id="z30977d12" d="M709 307Q710 349 712 386L713 423Q714 457 716 489L718 526Q721 568 717 573Q704 586 691 594L652 586Q664 553 665 509L666 477Q666 450 666 410L667 378Q667 344 667 299L709 307Z"/>
	<path id="z30977d13" d="M667 299Q519 277 517 274L516 260Q547 236 575 244Q693 280 870 280Q888 280 892 288Q896 298 882 308Q834 339 779 323Q749 317 709 307L667 299Z"/>
	<path id="z30977d14" d="M428 169Q400 115 365 68Q343 38 358 5Q364 -13 385 -2Q436 29 448 112Q455 143 450 167Q446 176 441 177Q432 176 428 169Z"/>
	<path id="z30977d15" d="M536 136Q570 54 589 47Q601 41 613 57Q617 67 616 90Q612 109 592 124Q562 152 548 160Q541 164 536 154Q532 147 536 136Z"/>
	<path id="z30977d16" d="M656 153Q707 72 729 68Q742 65 751 81Q754 94 748 114Q741 133 717 147Q680 172 664 178Q655 181 653 170Q650 163 656 153Z"/>
	<path id="z30977d17" d="M794 177Q840 126 894 54Q907 33 921 28Q928 25 937 34Q950 46 942 88Q935 142 798 207Q789 213 787 201Q786 188 794 177Z"/>
	<defs>
		<clipPath id="z30977c1"><use xlink:href="#z30977d1"/></clipPath>
		<clipPath id="z30977c2"><use xlink:href="#z30977d2"/></clipPath>
		<clipPath id="z30977c3"><use xlink:href="#z30977d3"/></clipPath>
		<clipPath id="z30977c4"><use xlink:href="#z30977d4"/></clipPath>
		<clipPath id="z30977c5"><use xlink:href="#z30977d5"/></clipPath>
		<clipPath id="z30977c6"><use xlink:href="#z30977d6"/></clipPath>
		<clipPath id="z30977c7"><use xlink:href="#z30977d7"/></clipPath>
		<clipPath id="z30977c8"><use xlink:href="#z30977d8"/></clipPath>
		<clipPath id="z30977c9"><use xlink:href="#z30977d9"/></clipPath>
		<clipPath id="z30977c10"><use xlink:href="#z30977d10"/></clipPath>
		<clipPath id="z30977c11"><use xlink:href="#z30977d11"/></clipPath>
		<clipPath id="z30977c12"><use xlink:href="#z30977d12"/></clipPath>
		<clipPath id="z30977c13"><use xlink:href="#z30977d13"/></clipPath>
		<clipPath id="z30977c14"><use xlink:href="#z30977d14"/></clipPath>
		<clipPath id="z30977c15"><use xlink:href="#z30977d15"/></clipPath>
		<clipPath id="z30977c16"><use xlink:href="#z30977d16"/></clipPath>
		<clipPath id="z30977c17"><use xlink:href="#z30977d17"/></clipPath>
	</defs>
	<path pathLength="2999" clip-path="url(#z30977c1)" d="M132 643L200 642L407 698"/>
	<path pathLength="2999" clip-path="url(#z30977c2)" d="M211 612L245 582L192 433L49 235"/>
	<path pathLength="2999" clip-path="url(#z30977c3)" d="M155 424L187 384L221 185"/>
	<path pathLength="2999" clip-path="url(#z30977c4)" d="M209 408L306 446L351 425L329 316L312 312"/>
	<path pathLength="2999" clip-path="url(#z30977c5)" d="M238 259L370 288"/>
	<path pathLength="2999" clip-path="url(#z30977c6)" d="M528 808L559 749L455 584L368 493"/>
	<path pathLength="2999" clip-path="url(#z30977c7)" d="M477 576L498 515L488 202"/>
	<path pathLength="2999" clip-path="url(#z30977c8)" d="M646 807L754 704"/>
	<path pathLength="2999" clip-path="url(#z30977c9)" d="M571 607L835 644"/>
	<path pathLength="2999" clip-path="url(#z30977c10)" d="M573 478L807 519"/>
	<path pathLength="2999" clip-path="url(#z30977c11)" d="M574 382L808 415"/>
	<path pathLength="2999" clip-path="url(#z30977c12)" d="M660 579L691 547L679 302"/>
	<path pathLength="2999" clip-path="url(#z30977c13)" d="M520 268L806 304L886 291"/>
	<path pathLength="2999" clip-path="url(#z30977c14)" d="M440 173L370 -1"/>
	<path pathLength="2999" clip-path="url(#z30977c15)" d="M545 157L596 51"/>
	<path pathLength="2999" clip-path="url(#z30977c16)" d="M661 168L739 73"/>
	<path pathLength="2999" clip-path="url(#z30977c17)" d="M794 202L896 107L929 32"/>
</g>
</svg>