<!--
AnimCJK 2016-2018 Copyright Francois Mizessyn - https://github.com/parsimonhi/animCJK
Derived from:
    MakeMeAHanzi project - https://github.com/skishore/makemeahanzi
    Arphic PL KaitiM GB - https://apps.ubuntu.com/cat/applications/precise/fonts-arphic-gkai00mp/
    Arphic PL UKai - https://apps.ubuntu.com/cat/applications/fonts-arphic-ukai/
You can redistribute and/or modify this file under the terms of the Arphic Public License
as published by Arphic Technology Co., Ltd.
You should have received a copy of this license (the directory "APL") along with this file;
if not, see http://ftp.gnu.org/non-gnu/chinese-fonts-truetype/LICENSE.
-->
<svg id="z31067" class="acjk" version="1.1" viewBox="0 0 1024 1024" xmlns="http://www.w3.org/2000/svg" xmlns:xlink="http://www.w3.org/1999/xlink">
<style>
<![CDATA[
@keyframes z31067k {
	from {
		stroke:#ccc;
		stroke-dashoffset:3334;
	}
	1% {
		stroke:#c00;
		stroke-dashoffset:3334;
	}
	75% {
		stroke:#c00;
		stroke-dashoffset:0;
	}
	to {
		stroke:#000;
	}
}
#z31067 path[clip-path] {
	animation:z31067k 1s linear both;
	stroke-dasharray:3334;
	stroke-width:128;
	stroke-linecap:round;
	fill:none;
}
#z31067 path[clip-path="url(#z31067c1)"] {animation-delay:1s;}
#z31067 path[clip-path="url(#z31067c2)"] {animation-delay:2s;}
#z31067 path[clip-path="url(#z31067c3)"] {animation-delay:3s;}
#z31067 path[clip-path="url(#z31067c4)"] {animation-delay:4s;}
#z31067 path[clip-path="url(#z31067c5)"] {animation-delay:5s;}
#z31067 path[clip-path="url(#z31067c6)"] {animation-delay:6s;}
#z31067 path[clip-path="url(#z31067c7)"] {animation-delay:7s;}
#z31067 path[clip-path="url(#z31067c8)"] {animation-delay:8s;}
#z31067 path[clip-path="url(#z31067c9)"] {animation-delay:9s;}
#z31067 path {fill:#ccc;}
]]>
</style>
<path id="z31067d1" d="M299 134Q332 156 368 184Q384 196 401 193Q413 192 417 176Q420 160 406 128Q397 107 362 95Q275 77 264 85Q258 89 262 104Q268 114 299 134Z"></path>
<path id="z31067d2" d="M274 523Q307 480 344 424Q375 372 420 339Q436 327 423 312Q404 297 374 287Q352 278 334 290Q253 350 97 362Q85 361 82 368Q79 378 95 389Q134 414 151 412Q160 409 300 353Q319 346 323 354Q327 361 316 384Q244 522 84 673Q69 683 72 687Q75 690 88 685Q155 651 248 553C265 533 265 533 274 523Z"></path>
<path id="z31067d3" d="M248 553Q247 553 248 554Q279 626 246 794Q230 842 264 890Q265 891 267 893Q283 908 294 883Q307 846 307 805Q306 633 310 594Q317 569 308 560Q278 526 274 523C265 514 245 540 248 553Z"></path>
<path id="z31067d4" d="M322 507Q362 562 384 566Q394 567 401 552Q402 542 396 525Q381 498 326 485Q319 484 317 493Q316 500 322 507Z"></path>
<path id="z31067d5" d="M682 379Q811 349 815 345Q825 336 819 328Q812 316 782 309Q748 305 685 330C651 339 651 339 634 343Q589 352 541 358Q504 365 531 382Q574 406 631 390Q632 389 634 390C666 383 666 383 682 379Z"></path>
<path id="z31067d6" d="M674 510Q678 443 682 379C684 346 684 346 685 330Q689 215 708 136Q712 124 691 109Q654 90 629 85Q613 81 604 90Q597 99 605 114Q629 148 629 172Q633 254 634 343C634 374 634 374 634 390Q633 451 630 517C630 532 674 525 674 510Z"></path>
<path id="z31067d7" d="M650 553Q649 552 651 552Q742 536 893 532Q950 532 956 522Q960 510 945 498Q894 462 857 471Q788 487 674 510C645 515 645 515 630 517Q534 533 427 550Q408 553 423 569Q436 582 454 586Q475 590 490 586Q542 570 602 560C634 555 634 555 650 553Z"></path>
<path id="z31067d8" d="M773 724Q554 764 550 762Q549 758 555 751Q646 628 682 597Q698 582 688 572Q678 560 650 553C634 550 602 544 602 560Q601 564 603 575Q612 620 510 740Q489 756 459 774Q422 790 435 822Q436 828 441 836Q451 855 465 861Q474 864 485 858Q573 797 776 746Q779 745 784 744C791 743 780 723 773 724Z"></path>
<path id="z31067d9" d="M784 744Q850 864 852 866Q859 869 869 862Q885 853 885 810Q885 756 746 632Q739 625 734 636Q730 648 736 660Q754 688 773 724C780 737 780 737 784 744Z"></path>
<defs>
	<clipPath id="z31067c1"><use xlink:href="#z31067d1"></use></clipPath>
	<clipPath id="z31067c2"><use xlink:href="#z31067d2"></use></clipPath>
	<clipPath id="z31067c3"><use xlink:href="#z31067d3"></use></clipPath>
	<clipPath id="z31067c4"><use xlink:href="#z31067d4"></use></clipPath>
	<clipPath id="z31067c5"><use xlink:href="#z31067d5"></use></clipPath>
	<clipPath id="z31067c6"><use xlink:href="#z31067d6"></use></clipPath>
	<clipPath id="z31067c7"><use xlink:href="#z31067d7"></use></clipPath>
	<clipPath id="z31067c8"><use xlink:href="#z31067d8"></use></clipPath>
	<clipPath id="z31067c9"><use xlink:href="#z31067d9"></use></clipPath>
</defs>
<path pathLength="3333" clip-path="url(#z31067c1)" d="M268 90L367 137L405 186"></path>
<path pathLength="3333" clip-path="url(#z31067c2)" d="M92 372L161 381L334 316L376 344L234 541L81 680"></path>
<path pathLength="3333" clip-path="url(#z31067c3)" d="M272 531L271 893"></path>
<path pathLength="3333" clip-path="url(#z31067c4)" d="M324 493L396 553"></path>
<path pathLength="3333" clip-path="url(#z31067c5)" d="M530 370L817 331"></path>
<path pathLength="3333" clip-path="url(#z31067c6)" d="M608 93L666 143L642 514"></path>
<path pathLength="3333" clip-path="url(#z31067c7)" d="M424 560L875 500L953 515"></path>
<path pathLength="3333" clip-path="url(#z31067c8)" d="M688 580L626 594L597 660L489 779L489 810L778 734"></path>
<path pathLength="3333" clip-path="url(#z31067c9)" d="M742 639L839 776L863 862"></path>
</svg>