<!--
AnimCJK 2016-2026 Copyright FM-SH - https://github.com/parsimonhi/animCJK
Derived from:
    MakeMeAHanzi project - https://github.com/skishore/makemeahanzi
    Arphic PL KaitiM GB font
    Arphic PL KaitiM Big5 font
You can redistribute and/or modify this file under the terms of the Arphic Public License
as published by Arphic Technology Co., Ltd.
You should have received a copy of this license along with this file.
If not, see https://ftp.gnu.org/non-gnu/chinese-fonts-truetype/LICENSE.
-->
<svg id="z31155" class="acjk" viewBox="0 0 1024 1024" xmlns="http://www.w3.org/2000/svg">
<style>
<![CDATA[
@keyframes zk {
	to {
		stroke-dashoffset:0;
	}
}
svg.acjk path[clip-path] {
	--t:0.8s;
	animation:zk var(--t) linear forwards var(--d);
	stroke-dasharray:3337;
	stroke-dashoffset:3339;
	stroke-width:128;
	stroke-linecap:round;
	fill:none;
	stroke:#000;
}
svg.acjk path[id] {fill:#ccc;}
]]>
</style>
<path id="z31155d1" d="M247 149Q277 176 309 208Q322 221 340 221Q350 221 357 207Q361 192 353 161Q344 127 243 98Q227 94 220 97Q214 101 216 114Q220 126 247 149Z"/>
<path id="z31155d2" d="M246 528Q279 482 316 421Q344 370 385 337Q398 325 387 311Q368 298 339 289Q317 282 301 293Q229 347 94 361Q82 360 80 367Q77 377 91 386Q128 408 144 406Q163 402 181 392Q223 374 270 353Q285 347 289 354Q295 361 284 382Q223 517 79 668Q66 680 68 683Q71 686 83 680Q147 646 226 554C239 537 239 537 246 528Z"/>
<path id="z31155d3" d="M226 554Q238 590 242 641Q241 647 241 654Q241 724 223 796Q213 833 244 877C245 878 245 878 245 878Q260 891 269 869Q282 835 281 797Q282 635 288 599Q295 577 286 568Q256 532 246 528C237 522 222 544 226 554Z"/>
<path id="z31155d4" d="M320 524Q342 543 366 568Q376 578 389 578Q396 578 401 567Q405 557 399 533Q395 517 370 504Q310 480 300 486Q296 489 297 498Q300 507 320 524Z"/>
<path id="z31155d5" d="M569 75Q626 136 649 136Q662 137 668 118Q669 105 658 84Q648 69 624 63Q587 50 572 47Q563 46 563 58Q562 67 569 75Z"/>
<path id="z31155d6" d="M447 193C431 195 429 201 442 210C460 222 476 226 492 223C589 198 693 175 803 159C808 158 833 149 800 132C781 122 748 127 691 143C640 156 609 165 447 193Z"/>
<path id="z31155d7" d="M459 272C442 267 396 252 415 285C427 307 441 336 452 373C454 383 459 392 467 400C477 411 486 401 486 384C485 375 483 367 482 359C476 324 469 302 469 292C469 285 466 273 459 272Z"/>
<path id="z31155d8" d="M586 336C592 309 601 292 609 284C619 272 618 261 607 255C597 249 585 243 572 235C564 230 547 237 519 251C498 260 478 266 459 272C452 275 462 294 469 292C481 288 501 282 531 275C553 269 555 278 553 299C551 309 549 322 547 336C545 349 583 349 586 336Z"/>
<path id="z31155d9" d="M486 384C501 384 543 370 598 359C618 354 592 339 586 336C575 329 559 331 547 336C524 344 502 352 482 359C474 362 478 384 486 384Z"/>
<path id="z31155d10" d="M693 360Q694 354 694 348C692 331 692 331 691 323Q681 272 679 256C677 248 674 238 666 235Q659 231 637 229Q628 228 626 232Q622 236 629 248Q648 279 662 331Q663 341 671 351C676 357 691 368 693 360Z"/>
<path id="z31155d11" d="M803 302C811 273 820 255 829 247C841 233 840 222 828 216C793 197 771 189 763 195C738 210 706 224 666 235C658 237 671 259 679 256C693 252 712 244 747 236C758 232 765 234 769 238C772 242 771 262 763 298C760 311 800 315 803 302Z"/>
<path id="z31155d12" d="M694 348C720 348 739 338 813 325C833 319 821 308 803 302C791 297 776 294 763 298C749 303 730 312 691 323C683 325 686 348 694 348Z"/>
<path id="z31155d13" d="M705 443C732 437 764 432 775 423C791 407 760 396 749 394C738 391 728 391 718 395C681 406 681 406 662 412C633 420 601 431 573 436C539 441 539 441 522 444C504 446 485 447 467 450C447 453 443 460 458 469C477 480 501 485 528 480C556 474 556 474 570 471C598 464 629 458 661 452C690 446 690 446 705 443Z"/>
<path id="z31155d14" d="M692 528C716 522 740 518 764 514C795 508 771 485 745 482C733 480 717 482 698 488C672 495 672 495 659 499C626 508 596 516 568 524C544 530 544 530 532 533C511 538 490 543 470 549C460 551 461 556 474 565C482 570 502 572 534 565C557 560 557 560 568 557C598 549 627 542 656 536C680 531 680 531 692 528Z"/>
<path id="z31155d15" d="M573 436C573 425 571 416 565 410C553 400 540 392 526 388C520 385 497 380 507 405C513 417 518 430 522 444C526 468 526 468 528 480C528 492 530 510 532 533C533 554 533 554 534 565C534 577 535 592 536 608C536 619 569 614 569 603C568 586 568 571 568 557C568 535 568 535 568 524C568 500 568 482 570 471C572 448 572 448 573 436Z"/>
<path id="z31155d16" d="M683 582C685 563 688 545 692 528C696 501 696 501 698 488C700 472 702 457 705 443C714 411 714 411 718 395C722 382 720 379 710 370C704 366 698 362 693 360C678 354 678 354 671 351C668 348 641 345 651 369C657 379 661 394 662 412C661 439 661 439 661 452C660 466 659 482 659 499C657 524 657 524 656 536C654 552 652 570 651 589C651 600 681 593 683 582Z"/>
<path id="z31155d17" d="M581 632C614 625 712 612 823 609C857 607 904 604 870 580C836 555 800 554 762 565C742 570 699 578 683 582C662 587 662 587 651 589C623 594 596 598 569 603C547 606 547 606 536 608C493 614 448 621 402 629C390 631 388 636 398 645C415 661 435 666 455 660C479 652 506 646 534 641C565 635 565 635 581 632Z"/>
<path id="z31155d18" d="M599 651C599 640 589 635 581 632C566 627 540 626 534 641C516 695 448 764 332 850C321 857 322 861 337 860C369 857 455 805 508 752C529 731 529 731 539 720C542 716 556 699 586 670C591 665 601 659 599 651Z"/>
<path id="z31155d19" d="M508 752C522 808 516 851 494 884C478 906 484 930 508 954C516 962 522 965 534 950C549 928 584 891 641 840C669 814 657 811 642 819C587 844 558 858 555 857C549 855 548 847 549 836C551 793 554 766 557 756C561 737 549 726 539 720C527 711 505 737 508 752Z"/>
<path id="z31155d20" d="M711 742C753 715 784 693 807 685C833 675 808 653 798 643C780 625 749 613 751 641C751 652 733 682 696 730C692 735 706 746 711 742Z"/>
<path id="z31155d21" d="M696 730C673 711 651 690 628 667C620 659 610 653 599 651C591 649 579 666 586 670C602 676 631 714 687 773C756 846 814 901 854 901C858 900 891 892 954 878C971 874 990 869 971 857C962 851 923 841 855 823C812 811 764 784 711 742C701 734 701 734 696 730Z"/>
<defs>
	<clipPath id="z31155c1"><use href="#z31155d1"/></clipPath>
	<clipPath id="z31155c2"><use href="#z31155d2"/></clipPath>
	<clipPath id="z31155c3"><use href="#z31155d3"/></clipPath>
	<clipPath id="z31155c4"><use href="#z31155d4"/></clipPath>
	<clipPath id="z31155c5"><use href="#z31155d5"/></clipPath>
	<clipPath id="z31155c6"><use href="#z31155d6"/></clipPath>
	<clipPath id="z31155c7"><use href="#z31155d7"/></clipPath>
	<clipPath id="z31155c8"><use href="#z31155d8"/></clipPath>
	<clipPath id="z31155c9"><use href="#z31155d9"/></clipPath>
	<clipPath id="z31155c10"><use href="#z31155d10"/></clipPath>
	<clipPath id="z31155c11"><use href="#z31155d11"/></clipPath>
	<clipPath id="z31155c12"><use href="#z31155d12"/></clipPath>
	<clipPath id="z31155c13"><use href="#z31155d13"/></clipPath>
	<clipPath id="z31155c14"><use href="#z31155d14"/></clipPath>
	<clipPath id="z31155c15"><use href="#z31155d15"/></clipPath>
	<clipPath id="z31155c16"><use href="#z31155d16"/></clipPath>
	<clipPath id="z31155c17"><use href="#z31155d17"/></clipPath>
	<clipPath id="z31155c18"><use href="#z31155d18"/></clipPath>
	<clipPath id="z31155c19"><use href="#z31155d19"/></clipPath>
	<clipPath id="z31155c20"><use href="#z31155d20"/></clipPath>
	<clipPath id="z31155c21"><use href="#z31155d21"/></clipPath>
</defs>
<path style="--d:1s;" pathLength="3333" clip-path="url(#z31155c1)" d="M223 104L353 209"/>
<path style="--d:2s;" pathLength="3333" clip-path="url(#z31155c2)" d="M85 368L146 379L303 319L341 345L204 550L77 678"/>
<path style="--d:3s;" pathLength="3333" clip-path="url(#z31155c3)" d="M243 530L263 591L251 877"/>
<path style="--d:4s;" pathLength="3333" clip-path="url(#z31155c4)" d="M304 490L393 571"/>
<path style="--d:5s;" pathLength="3333" clip-path="url(#z31155c5)" d="M570 55L653 132"/>
<path style="--d:6s;" pathLength="3333" clip-path="url(#z31155c6)" d="M441 199L812 149"/>
<path style="--d:7s;" pathLength="3333" clip-path="url(#z31155c7)" d="M418 270L445 291L476 397"/>
<path style="--d:8s;" pathLength="3333" clip-path="url(#z31155c8)" d="M462 277L566 258L584 273L560 343"/>
<path style="--d:9s;" pathLength="3333" clip-path="url(#z31155c9)" d="M479 369L598 350"/>
<path style="--d:10s;" pathLength="3333" clip-path="url(#z31155c10)" d="M631 236L658 258L686 356"/>
<path style="--d:11s;" pathLength="3333" clip-path="url(#z31155c11)" d="M670 242L763 213L793 224L782 308"/>
<path style="--d:12s;" pathLength="3333" clip-path="url(#z31155c12)" d="M691 337L816 316"/>
<path style="--d:13s;" pathLength="3333" clip-path="url(#z31155c13)" d="M455 458L774 415"/>
<path style="--d:14s;" pathLength="3333" clip-path="url(#z31155c14)" d="M475 557L774 502"/>
<path style="--d:15s;" pathLength="3333" clip-path="url(#z31155c15)" d="M512 393L547 436L549 612"/>
<path style="--d:16s;" pathLength="3333" clip-path="url(#z31155c16)" d="M656 357L690 392L661 588"/>
<path style="--d:17s;" pathLength="3333" clip-path="url(#z31155c17)" d="M401 636L774 586L875 593"/>
<path style="--d:18s;" pathLength="3333" clip-path="url(#z31155c18)" d="M541 636L559 663L507 724L332 856"/>
<path style="--d:19s;" pathLength="3333" clip-path="url(#z31155c19)" d="M529 723L519 877L536 909L650 822"/>
<path style="--d:20s;" pathLength="3333" clip-path="url(#z31155c20)" d="M762 628L780 669L703 738"/>
<path style="--d:21s;" pathLength="3333" clip-path="url(#z31155c21)" d="M592 662L807 842L971 867"/>
</svg>