<!--
AnimCJK 2016-2017 Copyright Francois Mizessyn, http://gooo.free.fr/animCJK/
Derived from:
    MakeMeAHanzi project - https://github.com/skishore/makemeahanzi
    Arphic PL KaitiM GB - https://apps.ubuntu.com/cat/applications/precise/fonts-arphic-gkai00mp/
    Arphic PL UKai - https://apps.ubuntu.com/cat/applications/fonts-arphic-ukai/
You can redistribute and/or modify this file under the terms of the Arphic Public License
as published by Arphic Technology Co., Ltd.
You should have received a copy of this license (the directory "APL") along with this file;
if not, see http://ftp.gnu.org/non-gnu/chinese-fonts-truetype/LICENSE.
-->
<svg id="z31163" class="acjk" version="1.1" viewBox="0 0 1024 1024" xmlns="http://www.w3.org/2000/svg" xmlns:xlink="http://www.w3.org/1999/xlink">
<style>
<![CDATA[
	@keyframes z31163k {
		from {
			stroke:#c00;
			stroke-dashoffset:3000;
		}
		75% {
			stroke:#c00;
			stroke-dashoffset:0;
		}
		to {
			stroke:#000;
		}
	}
	#z31163 path[clip-path] {
		animation:z31163k 1s linear both;
		stroke-dasharray:3000;
		stroke-width:128;
		stroke-linecap:round;
		fill:none;
	}
	#z31163 path[clip-path="url(#z31163c1)"] {animation-delay:1s;}
	#z31163 path[clip-path="url(#z31163c2)"] {animation-delay:2s;}
	#z31163 path[clip-path="url(#z31163c3)"] {animation-delay:3s;}
	#z31163 path[clip-path="url(#z31163c4)"] {animation-delay:4s;}
	#z31163 path[clip-path="url(#z31163c5)"] {animation-delay:5s;}
	#z31163 path[clip-path="url(#z31163c6)"] {animation-delay:6s;}
	#z31163 path[clip-path="url(#z31163c7)"] {animation-delay:7s;}
	#z31163 path[clip-path="url(#z31163c8)"] {animation-delay:8s;}
	#z31163 path[clip-path="url(#z31163c9)"] {animation-delay:9s;}
	#z31163 path[clip-path="url(#z31163c10)"] {animation-delay:10s;}
	#z31163 path {fill:#ccc;}
]]>
</style>
<g transform="scale(1,-1) translate(0,-900)">
	<path id="z31163d1" d="M444 794Q478 769 514 740Q527 728 543 730Q553 731 557 744Q561 759 550 787Q538 818 437 839Q421 842 416 839Q412 835 413 823Q417 813 444 794Z"/>
	<path id="z31163d2" d="M559 660Q613 670 753 680Q765 679 775 691Q776 704 753 716Q710 741 649 723Q453 687 258 671Q227 668 250 649Q286 618 316 625Q412 641 533 657L559 660Z"/>
	<path id="z31163d3" d="M537 565Q558 590 585 617Q591 620 591 627Q588 646 561 660L559 660L533 657Q532 657 533 656Q536 632 498 580L476 552Q467 545 460 536Q438 515 386 476Q379 473 387 471Q420 464 504 533L537 565Z"/>
	<path id="z31163d4" d="M504 533Q531 517 560 494Q573 484 583 482Q589 483 592 490Q598 500 585 527Q573 548 537 565L498 580Q489 589 404 613Q398 614 398 607Q399 598 408 593Q439 575 476 552L504 533Z"/>
	<path id="z31163d5" d="M488 413Q518 422 552 427Q637 440 659 435L664 471Q489 458 357 423Q335 417 341 442Q344 467 347 492Q351 514 341 527Q328 543 305 555Q295 561 285 558Q275 554 283 537Q299 500 295 461Q291 424 276 408Q260 392 266 379Q276 366 291 355Q304 348 313 355Q331 376 444 403L488 413Z"/>
	<path id="z31163d6" d="M659 435Q665 410 673 394Q680 381 691 391Q712 412 713 484Q722 554 731 569Q738 582 729 593Q713 606 684 621Q674 627 663 622Q657 618 659 607Q680 577 665 474Q664 473 664 471L659 435Z"/>
	<path id="z31163d7" d="M253 274Q231 292 207 297Q201 300 196 293Q192 286 197 274Q216 238 220 208Q226 138 220 59Q216 35 226 16Q239 -3 256 -16Q269 -25 272 -13Q279 -9 281 13Q284 29 278 89Q272 194 272 234L253 274Z"/>
	<path id="z31163d8" d="M483 282Q718 322 746 292Q753 285 749 269Q745 88 731 61Q727 51 713 53Q685 56 656 59Q628 60 648 44Q712 -5 739 -40Q751 -55 764 -44Q780 -28 790 -1Q800 27 805 183Q806 241 824 269Q840 290 833 298Q826 311 774 344Q756 359 707 342Q604 330 499 315L445 307Q391 300 361 292Q300 279 254 275Q253 275 253 274L272 234Q288 233 304 238Q352 256 434 272L483 282Z"/>
	<path id="z31163d9" d="M585 203Q516 190 445 168Q438 165 435 167Q432 170 436 181Q463 241 483 282L499 315Q521 358 530 371Q540 383 532 393Q525 403 488 413L444 403Q444 399 449 390Q458 372 445 307L434 272Q401 190 359 146Q340 137 347 118Q354 103 381 88Q394 79 404 92Q422 113 597 182L585 203Z"/>
	<path id="z31163d10" d="M597 182Q630 121 639 116Q646 115 654 121Q661 130 663 152Q666 188 587 252Q577 258 572 258Q568 257 565 248Q565 238 585 203L597 182Z"/>
	<defs>
		<clipPath id="z31163c1"><use xlink:href="#z31163d1"/></clipPath>
		<clipPath id="z31163c2"><use xlink:href="#z31163d2"/></clipPath>
		<clipPath id="z31163c3"><use xlink:href="#z31163d3"/></clipPath>
		<clipPath id="z31163c4"><use xlink:href="#z31163d4"/></clipPath>
		<clipPath id="z31163c5"><use xlink:href="#z31163d5"/></clipPath>
		<clipPath id="z31163c6"><use xlink:href="#z31163d6"/></clipPath>
		<clipPath id="z31163c7"><use xlink:href="#z31163d7"/></clipPath>
		<clipPath id="z31163c8"><use xlink:href="#z31163d8"/></clipPath>
		<clipPath id="z31163c9"><use xlink:href="#z31163d9"/></clipPath>
		<clipPath id="z31163c10"><use xlink:href="#z31163d10"/></clipPath>
	</defs>
	<path pathLength="2999" clip-path="url(#z31163c1)" d="M422 829L509 785L550 738"/>
	<path pathLength="2999" clip-path="url(#z31163c2)" d="M249 660L310 650L708 704L770 694"/>
	<path pathLength="2999" clip-path="url(#z31163c3)" d="M538 647L554 616L484 537L392 477"/>
	<path pathLength="2999" clip-path="url(#z31163c4)" d="M403 607L549 532L585 489"/>
	<path pathLength="2999" clip-path="url(#z31163c5)" d="M290 551L320 509L309 402L326 387L661 454"/>
	<path pathLength="2999" clip-path="url(#z31163c6)" d="M666 619L701 575L679 394"/>
	<path pathLength="2999" clip-path="url(#z31163c7)" d="M203 287L243 232L256 -14"/>
	<path pathLength="2999" clip-path="url(#z31163c8)" d="M262 268L757 321L792 283L760 31L737 3L646 51"/>
	<path pathLength="2999" clip-path="url(#z31163c9)" d="M451 399L493 369L397 138L419 127L591 191"/>
	<path pathLength="2999" clip-path="url(#z31163c10)" d="M574 252L648 122"/>
</g>
</svg>