<!--
AnimCJK 2016-2025 Copyright FM-SH - https://github.com/parsimonhi/animCJK
Derived from:
    MakeMeAHanzi project - https://github.com/skishore/makemeahanzi
    Arphic PL KaitiM GB font
    Arphic PL UKai font
You can redistribute and/or modify this file under the terms of the Arphic Public License
as published by Arphic Technology Co., Ltd.
You should have received a copy of this license along with this file.
If not, see http://ftp.gnu.org/non-gnu/chinese-fonts-truetype/LICENSE.
-->
<svg id="z31165" class="acjk" version="1.1" viewBox="0 0 1024 1024" xmlns="http://www.w3.org/2000/svg" xmlns:xlink="http://www.w3.org/1999/xlink">
<style>
<![CDATA[
@keyframes zk {
	to {
		stroke-dashoffset:0;
	}
}
svg.acjk path[clip-path] {
	--t:0.8s;
	animation:zk var(--t) linear forwards var(--d);
	stroke-dasharray:3337;
	stroke-dashoffset:3339;
	stroke-width:128;
	stroke-linecap:round;
	fill:none;
	stroke:#000;
}
svg.acjk path[id] {fill:#ccc;}
]]>
</style>
<path id="z31165d1" d="M514 128C521 119 531 115 532 104C532 97 528 89 521 81C500 57 480 46 460 49C454 49 451 53 452 62C454 128 393 216 271 326C204 379 138 424 83 461C77 464 76 468 84 469C109 471 172 445 264 385C333 339 404 251 499 145C509 134 509 134 514 128Z"/>
<path id="z31165d2" d="M499 145C573 227 657 312 751 399C765 412 784 418 808 416C884 408 935 403 960 396C966 393 971 390 972 387C972 383 966 377 955 375C839 348 760 321 717 290C653 244 585 191 514 128C509 123 494 139 499 145Z"/>
<path id="z31165d3" d="M458 247C486 275 508 289 524 289C532 288 538 282 539 272C539 263 536 253 528 244C515 228 490 223 458 223C453 223 451 226 451 233C450 237 452 242 458 247Z"/>
<path id="z31165d4" d="M546 354C566 349 634 346 642 332C644 326 636 321 625 315C608 305 575 310 523 323C509 326 509 326 502 328C476 334 425 342 351 354C336 356 334 361 346 370C362 382 377 387 393 384C427 375 467 365 512 359C535 356 535 356 546 354Z"/>
<path id="z31165d5" d="M510 436C546 400 564 381 564 379C564 371 558 362 546 354C536 348 512 348 512 359C512 385 497 399 475 424C461 439 461 439 454 446C422 472 392 494 366 513C362 513 362 515 366 518C394 518 432 499 480 463C500 445 500 445 510 436Z"/>
<path id="z31165d6" d="M480 463C500 476 525 486 549 501C558 507 570 514 576 502C578 495 576 485 568 472C560 459 540 446 510 436C487 428 487 428 475 424C438 411 410 402 391 399C387 398 385 400 386 405C386 408 411 418 454 446C471 457 471 457 480 463Z"/>
<path id="z31165d7" d="M460 567C542 549 593 543 614 551C624 554 628 518 617 518C511 524 418 538 339 556C329 558 326 551 330 541C333 530 335 519 339 508C343 495 343 483 338 474C331 463 321 452 308 443C302 438 296 437 290 438C283 438 281 445 285 457C291 479 291 501 286 522C280 541 273 555 264 564C253 572 248 581 252 590C256 600 265 608 275 615C280 619 290 618 302 611C314 603 355 589 428 574C449 569 449 569 460 567Z"/>
<path id="z31165d8" d="M614 551C614 563 617 575 622 586C626 596 632 599 641 593C659 579 667 545 681 496C690 460 705 444 708 442C715 434 716 423 710 415C700 403 684 390 666 376C659 370 651 369 644 372C639 373 634 379 637 387C640 396 645 418 641 456C639 472 630 492 617 518C613 528 614 540 614 551Z"/>
<path id="z31165d9" d="M237 680C224 667 205 661 182 667C172 669 171 676 176 684C200 721 202 787 192 844C189 857 183 874 197 909C200 917 205 924 213 933C219 940 225 943 231 939C249 923 257 890 255 842C252 781 251 742 251 722C251 707 249 689 237 680Z"/>
<path id="z31165d10" d="M462 674C534 660 615 653 704 652C716 651 725 656 732 663C736 667 734 674 734 684C722 794 715 857 706 874C702 880 697 882 688 880C666 873 643 866 620 862C601 858 597 865 611 877C656 916 689 948 708 975C714 984 722 987 731 981C753 961 769 913 778 839C787 757 796 707 810 690C820 676 822 666 819 661C813 652 794 637 762 614C748 604 738 601 728 605C708 611 680 618 645 623C582 630 528 634 483 641C444 646 444 646 425 649C361 658 296 671 237 680C223 683 236 722 251 722C257 722 264 720 272 718C305 705 352 693 412 683C445 677 445 677 462 674Z"/>
<path id="z31165d11" d="M552 757Q485 764 414 779Q407 782 404 779Q401 776 406 767Q439 710 462 674C476 652 476 652 483 641Q496 619 504 612Q514 602 507 592Q501 582 460 567C450 563 426 563 428 574Q428 578 431 588Q438 604 425 649C416 672 416 672 412 683Q375 758 327 795Q315 807 319 816Q325 829 348 846Q358 855 369 845Q405 817 566 779C575 778 561 755 552 757Z"/>
<path id="z31165d12" d="M566 779Q587 824 605 830Q614 831 621 823Q628 813 630 785Q631 766 607 742Q552 697 536 697Q532 698 529 710Q529 717 552 757C561 772 561 772 566 779Z"/>
<defs>
	<clipPath id="z31165c1"><use xlink:href="#z31165d1"/></clipPath>
	<clipPath id="z31165c2"><use xlink:href="#z31165d2"/></clipPath>
	<clipPath id="z31165c3"><use xlink:href="#z31165d3"/></clipPath>
	<clipPath id="z31165c4"><use xlink:href="#z31165d4"/></clipPath>
	<clipPath id="z31165c5"><use xlink:href="#z31165d5"/></clipPath>
	<clipPath id="z31165c6"><use xlink:href="#z31165d6"/></clipPath>
	<clipPath id="z31165c7"><use xlink:href="#z31165d7"/></clipPath>
	<clipPath id="z31165c8"><use xlink:href="#z31165d8"/></clipPath>
	<clipPath id="z31165c9"><use xlink:href="#z31165d9"/></clipPath>
	<clipPath id="z31165c10"><use xlink:href="#z31165d10"/></clipPath>
	<clipPath id="z31165c11"><use xlink:href="#z31165d11"/></clipPath>
	<clipPath id="z31165c12"><use xlink:href="#z31165d12"/></clipPath>
</defs>
<path style="--d:1s;" pathLength="3333" clip-path="url(#z31165c1)" d="M460 58L488 105L368 261L248 370L87 462"/>
<path style="--d:2s;" pathLength="3333" clip-path="url(#z31165c2)" d="M506 135L778 368L966 384"/>
<path style="--d:3s;" pathLength="3333" clip-path="url(#z31165c3)" d="M457 234L534 278"/>
<path style="--d:4s;" pathLength="3333" clip-path="url(#z31165c4)" d="M350 363L633 329"/>
<path style="--d:5s;" pathLength="3333" clip-path="url(#z31165c5)" d="M532 353L535 379L491 431L373 512"/>
<path style="--d:6s;" pathLength="3333" clip-path="url(#z31165c6)" d="M396 405L573 498"/>
<path style="--d:7s;" pathLength="3333" clip-path="url(#z31165c7)" d="M291 443L314 482L295 558L313 585L619 529"/>
<path style="--d:8s;" pathLength="3333" clip-path="url(#z31165c8)" d="M646 375L678 434L635 591"/>
<path style="--d:9s;" pathLength="3333" clip-path="url(#z31165c9)" d="M179 672L221 715L222 936"/>
<path style="--d:10s;" pathLength="3333" clip-path="url(#z31165c10)" d="M236 688L737 631L777 671L722 922L702 931L611 869"/>
<path style="--d:11s;" pathLength="3333" clip-path="url(#z31165c11)" d="M437 576L470 612L365 801L382 815L560 770"/>
<path style="--d:12s;" pathLength="3333" clip-path="url(#z31165c12)" d="M538 704L611 824"/>
</svg>