<!--
AnimCJK 2016-2019 Copyright Francois Mizessyn - https://github.com/parsimonhi/animCJK
Derived from:
    MakeMeAHanzi project - https://github.com/skishore/makemeahanzi
    Arphic PL KaitiM GB font
    Arphic PL UKai font
You can redistribute and/or modify this file under the terms of the Arphic Public License
as published by Arphic Technology Co., Ltd.
You should have received a copy of this license along with this file.
If not, see http://ftp.gnu.org/non-gnu/chinese-fonts-truetype/LICENSE.
-->
<svg id="z31171" class="acjk" version="1.1" viewBox="0 0 1024 1024" xmlns="http://www.w3.org/2000/svg" xmlns:xlink="http://www.w3.org/1999/xlink">
<style>
<![CDATA[
@keyframes zk {
	to {
		stroke-dashoffset:0;
	}
}
svg.acjk path[clip-path] {
	--t:0.8s;
	animation:zk var(--t) linear forwards var(--d);
	stroke-dasharray:3337;
	stroke-dashoffset:3339;
	stroke-width:128;
	stroke-linecap:round;
	fill:none;
	stroke:#000;
}
svg.acjk path[id] {fill:#ccc;}
]]>
</style>
<path id="z31171d1" d="M499 181Q599 142 646 137Q662 137 667 130Q671 120 660 108Q641 90 598 71Q583 62 570 63Q563 66 561 77Q555 119 315 211Q308 212 302 216Q296 225 302 228Q308 229 455 194C484 185 484 185 499 181Z"/>
<path id="z31171d2" d="M538 320Q622 310 741 308Q805 308 812 298Q816 288 801 274Q749 238 713 246Q641 262 528 284C493 291 493 291 475 294Q346 312 196 334Q175 337 191 353Q204 366 222 371Q243 375 258 371Q340 346 435 334C504 325 504 325 538 320Z"/>
<path id="z31171d3" d="M528 284Q528 280 529 278Q530 256 545 227Q551 218 540 205Q521 190 499 181C484 176 447 181 455 194Q474 225 475 294C476 337 476 337 476 359Q476 444 470 476Q469 486 485 526Q495 541 509 533Q522 521 519 440Q518 389 521 342C526 303 526 303 528 284Z"/>
<path id="z31171d4" d="M435 334Q411 385 307 464Q214 524 135 566Q117 575 132 579Q156 585 252 548Q330 506 387 455Q421 424 476 359C501 327 453 298 435 334Z"/>
<path id="z31171d5" d="M521 342Q600 436 688 522Q710 546 750 547Q822 551 896 536Q915 535 917 529Q918 522 904 516Q730 455 713 445Q637 400 538 320C523 308 510 327 521 342Z"/>
<path id="z31171d6" d="M413 586Q368 550 345 557Q332 561 337 575Q361 620 325 737Q286 833 207 884Q191 894 176 905Q163 914 175 916Q226 920 292 866Q362 812 394 689Q410 626 417 617C422 608 421 592 413 586Z"/>
<path id="z31171d7" d="M417 617Q438 616 454 609Q497 597 544 587Q560 583 566 589Q572 593 568 613Q532 788 583 860Q622 899 642 908Q646 908 653 911Q708 930 787 930Q862 929 924 899Q948 886 936 858Q908 797 901 729Q897 720 891 720Q888 720 881 734Q860 827 837 847Q776 880 659 851Q640 844 629 831Q607 812 601 765Q594 719 615 655Q628 619 649 600Q685 576 606 542Q581 530 565 541Q525 563 413 586C403 588 407 617 417 617Z"/>
<defs>
	<clipPath id="z31171c1"><use xlink:href="#z31171d1"/></clipPath>
	<clipPath id="z31171c2"><use xlink:href="#z31171d2"/></clipPath>
	<clipPath id="z31171c3"><use xlink:href="#z31171d3"/></clipPath>
	<clipPath id="z31171c4"><use xlink:href="#z31171d4"/></clipPath>
	<clipPath id="z31171c5"><use xlink:href="#z31171d5"/></clipPath>
	<clipPath id="z31171c6"><use xlink:href="#z31171d6"/></clipPath>
	<clipPath id="z31171c7"><use xlink:href="#z31171d7"/></clipPath>
</defs>
<path style="--d:1s;" pathLength="3333" clip-path="url(#z31171c1)" d="M664 126L574 108L485 162L306 221"/>
<path style="--d:2s;" pathLength="3333" clip-path="url(#z31171c2)" d="M192 344L724 276L807 289"/>
<path style="--d:3s;" pathLength="3333" clip-path="url(#z31171c3)" d="M462 198L509 234L499 532"/>
<path style="--d:4s;" pathLength="3333" clip-path="url(#z31171c4)" d="M469 336L316 484L132 574"/>
<path style="--d:5s;" pathLength="3333" clip-path="url(#z31171c5)" d="M528 329L723 496L909 527"/>
<path style="--d:6s;" pathLength="3333" clip-path="url(#z31171c6)" d="M345 565L381 609L337 771L269 859L175 910"/>
<path style="--d:7s;" pathLength="3333" clip-path="url(#z31171c7)" d="M420 610L560 565L606 576L578 778L603 843L665 883L792 896L887 865L893 725"/>
</svg>