<!--
AnimCJK 2016-2017 Copyright Francois Mizessyn, http://gooo.free.fr/animCJK/
Derived from:
    MakeMeAHanzi project - https://github.com/skishore/makemeahanzi
    Arphic PL KaitiM GB - https://apps.ubuntu.com/cat/applications/precise/fonts-arphic-gkai00mp/
    Arphic PL UKai - https://apps.ubuntu.com/cat/applications/fonts-arphic-ukai/
You can redistribute and/or modify this file under the terms of the Arphic Public License
as published by Arphic Technology Co., Ltd.
You should have received a copy of this license (the directory "APL") along with this file;
if not, see http://ftp.gnu.org/non-gnu/chinese-fonts-truetype/LICENSE.
-->
<svg id="z31207" class="acjk" version="1.1" viewBox="0 0 1024 1024" xmlns="http://www.w3.org/2000/svg" xmlns:xlink="http://www.w3.org/1999/xlink">
<style>
<![CDATA[
@keyframes z31207k {
	from {
		stroke:#c00;
		stroke-dashoffset:3000;
	}
	75% {
		stroke:#c00;
		stroke-dashoffset:0;
	}
	to {
		stroke:#000;
	}
}
#z31207 path[clip-path] {
	animation:z31207k 1s linear both;
	stroke-dasharray:3000;
	stroke-width:128;
	stroke-linecap:round;
	fill:none;
}
#z31207 path[clip-path="url(#z31207c1)"] {animation-delay:1s;}
#z31207 path[clip-path="url(#z31207c2)"] {animation-delay:2s;}
#z31207 path[clip-path="url(#z31207c3)"] {animation-delay:3s;}
#z31207 path[clip-path="url(#z31207c4)"] {animation-delay:4s;}
#z31207 path[clip-path="url(#z31207c5)"] {animation-delay:5s;}
#z31207 path[clip-path="url(#z31207c6)"] {animation-delay:6s;}
#z31207 path[clip-path="url(#z31207c7)"] {animation-delay:7s;}
#z31207 path[clip-path="url(#z31207c8)"] {animation-delay:8s;}
#z31207 path[clip-path="url(#z31207c9)"] {animation-delay:9s;}
#z31207 path[clip-path="url(#z31207c10)"] {animation-delay:10s;}
#z31207 path {fill:#ccc;}
]]>
</style>
<path id="z31207d1" d="M295 229Q361 190 411 174Q427 171 430 163Q433 153 420 142Q398 129 352 117Q336 111 323 114Q316 118 317 130Q318 169 140 280Q136 290 142 292Q157 292 238 255Q250 251 263 245L295 229 Z"/>
<path id="z31207d2" d="M314 428Q351 418 399 408Q415 405 415 398Q415 385 397 379Q364 366 316 387L275 399Q110 442 58 451Q46 452 44 461Q41 471 56 481Q96 505 133 489Q205 462 254 445L314 428 Z"/>
<path id="z31207d3" d="M313 478Q313 454 314 428L316 387Q319 306 327 269Q330 256 322 250Q309 237 295 229L263 245Q278 276 275 399L270 514Q270 623 245 774Q223 804 263 872Q275 893 284 899Q296 900 301 887Q314 854 311 823Q310 655 312 511L313 478 Z"/>
<path id="z31207d4" d="M254 445Q206 565 47 760Q41 769 52 770Q58 771 67 763Q193 658 271 514L274 439L254 444 Z"/>
<path id="z31207d5" d="M312 511Q319 514 362 554Q372 564 385 563Q394 562 397 552Q401 540 393 517Q389 502 364 491Q340 484 313 478L312 511 Z"/>
<path id="z31207d6" d="M487 390Q469 380 449 375Q436 372 429 378Q423 385 430 397Q448 421 457 448Q464 473 486 571L523 565Q505 442 508 423Q508 419 507 417L487 390 Z"/>
<path id="z31207d7" d="M788 518Q806 425 840 391Q855 372 840 356Q824 344 774 323Q756 316 736 325Q687 347 641 359L598 369Q543 381 487 390L507 417Q516 416 526 412Q560 403 598 396L641 386Q677 377 714 369Q738 362 747 372Q759 382 757 404Q750 474 736 529L788 518 Z"/>
<path id="z31207d8" d="M632 581Q749 560 918 560Q936 559 940 551Q944 541 929 529Q877 493 817 511Q802 514 788 518L736 529Q655 539 636 547L588 555Q557 559 523 565L486 571Q443 575 399 584Q380 585 394 601Q407 613 423 617Q442 621 456 617Q517 599 584 588L632 581 Z"/>
<path id="z31207d9" d="M629 596Q630 589 632 581L636 547Q637 528 638 507Q639 446 641 386L641 359Q642 233 666 158Q673 145 662 133Q640 117 600 106Q575 100 567 107Q558 114 566 126Q590 162 593 207Q597 289 598 369L598 396Q597 463 591 529Q590 541 588 555L584 588Q562 699 495 761Q453 797 382 834Q369 841 369 845Q370 849 381 850Q397 853 439 838Q508 817 555 766Q604 715 624 629L629 596 Z"/>
<path id="z31207d10" d="M624 629Q694 741 784 863Q802 884 832 884Q935 885 969 882Q979 881 980 875Q981 871 968 862Q821 796 739 714Q685 660 629 596L624 629 Z"/>
<defs>
	<clipPath id="z31207c1"><use xlink:href="#z31207d1"/></clipPath>
	<clipPath id="z31207c2"><use xlink:href="#z31207d2"/></clipPath>
	<clipPath id="z31207c3"><use xlink:href="#z31207d3"/></clipPath>
	<clipPath id="z31207c4"><use xlink:href="#z31207d4"/></clipPath>
	<clipPath id="z31207c5"><use xlink:href="#z31207d5"/></clipPath>
	<clipPath id="z31207c6"><use xlink:href="#z31207d6"/></clipPath>
	<clipPath id="z31207c7"><use xlink:href="#z31207d7"/></clipPath>
	<clipPath id="z31207c8"><use xlink:href="#z31207d8"/></clipPath>
	<clipPath id="z31207c9"><use xlink:href="#z31207d9"/></clipPath>
	<clipPath id="z31207c10"><use xlink:href="#z31207d10"/></clipPath>
</defs>
<path pathLength="2999" clip-path="url(#z31207c1)" d="M425 161L339 156L145 285"/>
<path pathLength="2999" clip-path="url(#z31207c2)" d="M52 464L107 468L409 396"/>
<path pathLength="2999" clip-path="url(#z31207c3)" d="M270 248L300 278L285 891"/>
<path pathLength="2999" clip-path="url(#z31207c4)" d="M268 448L195 596L50 763"/>
<path pathLength="2999" clip-path="url(#z31207c5)" d="M318 488L390 557"/>
<path pathLength="2999" clip-path="url(#z31207c6)" d="M433 382L477 423L507 567"/>
<path pathLength="2999" clip-path="url(#z31207c7)" d="M495 390L758 346L801 382L748 524"/>
<path pathLength="2999" clip-path="url(#z31207c8)" d="M396 591L834 534L935 543"/>
<path pathLength="2999" clip-path="url(#z31207c9)" d="M571 113L628 163L595 644L516 772L378 844"/>
<path pathLength="2999" clip-path="url(#z31207c10)" d="M630 604L817 833L973 871"/>
</svg>