<!--
AnimCJK 2016-2019 Copyright Francois Mizessyn - https://github.com/parsimonhi/animCJK
Derived from:
    MakeMeAHanzi project - https://github.com/skishore/makemeahanzi
    Arphic PL KaitiM GB font
    Arphic PL UKai font
You can redistribute and/or modify this file under the terms of the Arphic Public License
as published by Arphic Technology Co., Ltd.
You should have received a copy of this license along with this file.
If not, see http://ftp.gnu.org/non-gnu/chinese-fonts-truetype/LICENSE.
-->
<svg id="z31207" class="acjk" version="1.1" viewBox="0 0 1024 1024" xmlns="http://www.w3.org/2000/svg" xmlns:xlink="http://www.w3.org/1999/xlink">
<style>
<![CDATA[
@keyframes zk {
	to {
		stroke-dashoffset:0;
	}
}
svg.acjk path[clip-path] {
	--t:0.8s;
	animation:zk var(--t) linear forwards var(--d);
	stroke-dasharray:3337;
	stroke-dashoffset:3339;
	stroke-width:128;
	stroke-linecap:round;
	fill:none;
	stroke:#000;
}
svg.acjk path[id] {fill:#ccc;}
]]>
</style>
<path id="z31207d1" d="M295 229Q361 190 411 174Q427 171 430 163Q433 153 420 142Q398 129 352 117Q336 111 323 114Q316 118 317 130Q318 169 140 280Q136 290 142 292Q157 292 238 255Q250 251 263 245C284 234 284 234 295 229Z"/>
<path id="z31207d2" d="M314 428Q351 418 399 408Q415 405 415 398Q415 385 397 379Q364 366 316 387C289 395 289 395 275 399Q110 442 58 451Q46 452 44 461Q41 471 56 481Q96 505 133 489Q205 462 254 445C294 434 294 434 314 428Z"/>
<path id="z31207d3" d="M313 478Q313 454 314 428C315 401 315 401 316 387Q319 306 327 269Q330 256 322 250Q309 237 295 229C285 223 259 234 263 245Q278 276 275 399C272 476 272 476 270 514Q270 623 245 774Q223 804 263 872Q275 893 284 899Q296 900 301 887Q314 854 311 823Q310 655 312 511C313 489 313 489 313 478Z"/>
<path id="z31207d4" d="M254 445Q206 565 47 760Q41 769 52 770Q58 771 67 763Q193 658 271 514C306 456 276 379 254 444C254 445 254 445 254 445Z"/>
<path id="z31207d5" d="M312 511Q319 514 362 554Q372 564 385 563Q394 562 397 552Q401 540 393 517Q389 502 364 491Q340 484 313 478C302 476 303 504 312 511Z"/>
<path id="z31207d6" d="M487 390Q469 380 449 375Q436 372 429 378Q423 385 430 397Q448 421 457 448Q464 473 486 571C488 583 525 577 523 565Q505 442 508 423Q508 419 507 417C505 406 497 395 487 390Z"/>
<path id="z31207d7" d="M788 518Q806 425 840 391Q855 372 840 356Q824 344 774 323Q756 316 736 325Q687 347 641 359C612 366 612 366 598 369Q543 381 487 390C476 392 496 419 507 417Q516 416 526 412Q560 403 598 396C627 389 627 389 641 386Q677 377 714 369Q738 362 747 372Q759 382 757 404Q750 474 736 529C733 546 785 535 788 518Z"/>
<path id="z31207d8" d="M632 581Q749 560 918 560Q936 559 940 551Q944 541 929 529Q877 493 817 511Q802 514 788 518C753 525 753 525 736 529Q655 539 636 547C604 552 604 552 588 555Q557 559 523 565C498 569 498 569 486 571Q443 575 399 584Q380 585 394 601Q407 613 423 617Q442 621 456 617Q517 599 584 588C616 583 616 583 632 581Z"/>
<path id="z31207d9" d="M629 596Q630 589 632 581C635 558 635 558 636 547Q637 528 638 507Q639 446 641 386C641 368 641 368 641 359Q642 233 666 158Q673 145 662 133Q640 117 600 106Q575 100 567 107Q558 114 566 126Q590 162 593 207Q597 289 598 369C598 387 598 387 598 396Q597 463 591 529Q590 541 588 555C585 577 585 577 584 588Q562 699 495 761Q453 797 382 834Q369 841 369 845Q370 849 381 850Q397 853 439 838Q508 817 555 766Q604 715 624 629C627 607 627 607 629 596Z"/>
<path id="z31207d10" d="M624 629Q694 741 784 863Q802 884 832 884Q935 885 969 882Q979 881 980 875Q981 871 968 862Q821 796 739 714Q685 660 629 596C621 588 617 620 624 629Z"/>
<defs>
	<clipPath id="z31207c1"><use xlink:href="#z31207d1"/></clipPath>
	<clipPath id="z31207c2"><use xlink:href="#z31207d2"/></clipPath>
	<clipPath id="z31207c3"><use xlink:href="#z31207d3"/></clipPath>
	<clipPath id="z31207c4"><use xlink:href="#z31207d4"/></clipPath>
	<clipPath id="z31207c5"><use xlink:href="#z31207d5"/></clipPath>
	<clipPath id="z31207c6"><use xlink:href="#z31207d6"/></clipPath>
	<clipPath id="z31207c7"><use xlink:href="#z31207d7"/></clipPath>
	<clipPath id="z31207c8"><use xlink:href="#z31207d8"/></clipPath>
	<clipPath id="z31207c9"><use xlink:href="#z31207d9"/></clipPath>
	<clipPath id="z31207c10"><use xlink:href="#z31207d10"/></clipPath>
</defs>
<path style="--d:1s;" pathLength="3333" clip-path="url(#z31207c1)" d="M425 161L339 156L145 285"/>
<path style="--d:2s;" pathLength="3333" clip-path="url(#z31207c2)" d="M52 464L107 468L409 396"/>
<path style="--d:3s;" pathLength="3333" clip-path="url(#z31207c3)" d="M270 248L300 278L285 891"/>
<path style="--d:4s;" pathLength="3333" clip-path="url(#z31207c4)" d="M268 448L195 596L50 763"/>
<path style="--d:5s;" pathLength="3333" clip-path="url(#z31207c5)" d="M318 488L390 557"/>
<path style="--d:6s;" pathLength="3333" clip-path="url(#z31207c6)" d="M433 382L477 423L507 567"/>
<path style="--d:7s;" pathLength="3333" clip-path="url(#z31207c7)" d="M495 390L758 346L801 382L748 524"/>
<path style="--d:8s;" pathLength="3333" clip-path="url(#z31207c8)" d="M396 591L834 534L935 543"/>
<path style="--d:9s;" pathLength="3333" clip-path="url(#z31207c9)" d="M571 113L628 163L595 644L516 772L378 844"/>
<path style="--d:10s;" pathLength="3333" clip-path="url(#z31207c10)" d="M630 604L817 833L973 871"/>
</svg>