<!--
AnimCJK 2016-2018 Copyright Francois Mizessyn, https://github.com/parsimonhi/animCJK
Derived from:
    MakeMeAHanzi project - https://github.com/skishore/makemeahanzi
    Arphic PL KaitiM GB - https://apps.ubuntu.com/cat/applications/precise/fonts-arphic-gkai00mp/
    Arphic PL UKai - https://apps.ubuntu.com/cat/applications/fonts-arphic-ukai/
You can redistribute and/or modify this file under the terms of the Arphic Public License
as published by Arphic Technology Co., Ltd.
You should have received a copy of this license (the directory "APL") along with this file;
if not, see http://ftp.gnu.org/non-gnu/chinese-fonts-truetype/LICENSE.
-->
<svg id="z31246" class="acjk" version="1.1" viewBox="0 0 1024 1024" xmlns="http://www.w3.org/2000/svg" xmlns:xlink="http://www.w3.org/1999/xlink">
<style>
<![CDATA[
@keyframes z31246k {
	from {
		stroke:#c00;
		stroke-dashoffset:3334;
	}
	75% {
		stroke:#c00;
		stroke-dashoffset:0;
	}
	to {
		stroke:#000;
	}
}
#z31246 path[clip-path] {
	animation:z31246k 1s linear both;
	stroke-dasharray:3334;
	stroke-width:128;
	stroke-linecap:round;
	fill:none;
}
#z31246 path[clip-path="url(#z31246c1)"] {animation-delay:1s;}
#z31246 path[clip-path="url(#z31246c2)"] {animation-delay:2s;}
#z31246 path[clip-path="url(#z31246c3)"] {animation-delay:3s;}
#z31246 path[clip-path="url(#z31246c4)"] {animation-delay:4s;}
#z31246 path[clip-path="url(#z31246c5)"] {animation-delay:5s;}
#z31246 path[clip-path="url(#z31246c6)"] {animation-delay:6s;}
#z31246 path[clip-path="url(#z31246c7)"] {animation-delay:7s;}
#z31246 path[clip-path="url(#z31246c8)"] {animation-delay:8s;}
#z31246 path[clip-path="url(#z31246c9)"] {animation-delay:9s;}
#z31246 path[clip-path="url(#z31246c10)"] {animation-delay:10s;}
#z31246 path[clip-path="url(#z31246c11)"] {animation-delay:11s;}
#z31246 path[clip-path="url(#z31246c12)"] {animation-delay:12s;}
#z31246 path {fill:#ccc;}
]]>
</style>
<path id="z31246d1" d="M315 224Q435 167 445 164Q461 163 465 154Q466 144 455 134Q398 100 362 104Q355 108 356 119Q357 161 172 265Q168 274 174 276Q187 276 272 241Q278 238 286 236L315 224 Z"/>
<path id="z31246d2" d="M344 407Q381 398 423 391Q438 388 438 381Q439 369 422 362Q395 353 345 368L303 380Q170 413 98 425Q88 426 85 434Q82 444 96 453Q132 475 169 462Q238 437 284 423Q285 422 287 423L344 407 Z"/>
<path id="z31246d3" d="M342 478Q342 433 344 407L345 368Q348 301 355 269Q358 256 351 250Q332 234 315 224L286 236Q305 267 303 380L299 501Q299 630 276 770Q252 812 306 885Q310 891 316 894Q328 895 333 883Q346 850 342 819Q341 650 342 506L342 478 Z"/>
<path id="z31246d4" d="M287 423Q226 550 67 735Q61 745 72 746Q78 747 88 739Q211 649 300 501L302 418L287 422 Z"/>
<path id="z31246d5" d="M342 506Q418 582 426 585Q426 584 428 585Q437 585 441 575Q445 565 441 541Q438 522 411 505Q351 475 342 478L342 506 Z"/>
<path id="z31246d6" d="M509 210Q531 238 553 272Q562 285 574 287Q583 288 589 279Q596 269 594 243Q593 224 569 203Q544 187 514 170Q502 164 496 165Q492 168 490 178Q491 188 509 210 Z"/>
<path id="z31246d7" d="M724 140Q696 197 637 286Q633 295 639 301Q648 302 655 296Q755 191 806 150Q824 143 818 131Q809 115 786 99Q762 83 738 84Q722 85 727 107Q731 120 724 140 Z"/>
<path id="z31246d8" d="M504 356Q494 352 469 348Q459 345 455 350Q449 356 457 371Q482 422 499 507Q502 532 517 549Q533 570 538 555Q541 548 542 536L540 506Q539 503 539 500Q526 413 521 386L504 356 Z"/>
<path id="z31246d9" d="M752 474Q779 399 809 377Q825 359 811 342Q742 285 687 313Q618 337 504 356L521 386Q531 385 692 354Q711 350 718 357Q727 366 724 383Q715 434 702 474L752 474 Z"/>
<path id="z31246d10" d="M659 521Q705 514 769 508Q779 507 780 499Q780 492 752 474L702 474Q611 496 540 506L542 536Q552 539 564 536Q588 530 625 525L659 521 Z"/>
<path id="z31246d11" d="M514 598Q518 706 371 827Q355 836 363 842Q388 848 452 802Q510 763 559 663Q566 647 577 632Q584 625 580 616Q574 607 550 592Q532 582 524 583Q514 586 514 598 Z"/>
<path id="z31246d12" d="M971 798Q958 770 940 683Q940 667 933 662Q927 659 923 676Q896 769 878 797Q853 830 772 820Q741 819 715 806Q693 794 687 780Q663 729 693 567Q699 540 659 521L625 525Q624 529 628 539Q640 578 637 615Q627 759 640 799Q649 844 719 870Q858 915 964 839Q983 824 971 798 Z"/>
<defs>
	<clipPath id="z31246c1"><use xlink:href="#z31246d1"/></clipPath>
	<clipPath id="z31246c2"><use xlink:href="#z31246d2"/></clipPath>
	<clipPath id="z31246c3"><use xlink:href="#z31246d3"/></clipPath>
	<clipPath id="z31246c4"><use xlink:href="#z31246d4"/></clipPath>
	<clipPath id="z31246c5"><use xlink:href="#z31246d5"/></clipPath>
	<clipPath id="z31246c6"><use xlink:href="#z31246d6"/></clipPath>
	<clipPath id="z31246c7"><use xlink:href="#z31246d7"/></clipPath>
	<clipPath id="z31246c8"><use xlink:href="#z31246d8"/></clipPath>
	<clipPath id="z31246c9"><use xlink:href="#z31246d9"/></clipPath>
	<clipPath id="z31246c10"><use xlink:href="#z31246d10"/></clipPath>
	<clipPath id="z31246c11"><use xlink:href="#z31246d11"/></clipPath>
	<clipPath id="z31246c12"><use xlink:href="#z31246d12"/></clipPath>
</defs>
<path pathLength="3333" clip-path="url(#z31246c1)" d="M460 155L378 145L331 191L176 269"/>
<path pathLength="3333" clip-path="url(#z31246c2)" d="M88 434L141 442L432 379"/>
<path pathLength="3333" clip-path="url(#z31246c3)" d="M295 239L327 268L305 801L319 889"/>
<path pathLength="3333" clip-path="url(#z31246c4)" d="M297 427L239 551L72 740"/>
<path pathLength="3333" clip-path="url(#z31246c5)" d="M348 484L417 543L430 580"/>
<path pathLength="3333" clip-path="url(#z31246c6)" d="M498 174L564 239L576 281"/>
<path pathLength="3333" clip-path="url(#z31246c7)" d="M735 93L771 140L640 293"/>
<path pathLength="3333" clip-path="url(#z31246c8)" d="M461 358L497 398L527 552"/>
<path pathLength="3333" clip-path="url(#z31246c9)" d="M513 359L745 337L769 369L713 469"/>
<path pathLength="3333" clip-path="url(#z31246c10)" d="M546 530L775 499"/>
<path pathLength="3333" clip-path="url(#z31246c11)" d="M522 589L546 625L512 701L456 774L368 836"/>
<path pathLength="3333" clip-path="url(#z31246c12)" d="M632 531L664 566L662 786L716 838L826 854L906 827L931 798L929 668"/>
</svg>