<!--
AnimCJK 2016-2017 Copyright Francois Mizessyn, http://gooo.free.fr/animCJK/
Derived from:
    MakeMeAHanzi project - https://github.com/skishore/makemeahanzi
    Arphic PL KaitiM GB - https://apps.ubuntu.com/cat/applications/precise/fonts-arphic-gkai00mp/
    Arphic PL UKai - https://apps.ubuntu.com/cat/applications/fonts-arphic-ukai/
You can redistribute and/or modify this file under the terms of the Arphic Public License
as published by Arphic Technology Co., Ltd.
You should have received a copy of this license (the directory "APL") along with this file;
if not, see http://ftp.gnu.org/non-gnu/chinese-fonts-truetype/LICENSE.
-->
<svg id="z31264" class="acjk" version="1.1" viewBox="0 0 1024 1024" xmlns="http://www.w3.org/2000/svg" xmlns:xlink="http://www.w3.org/1999/xlink">
<style>
<![CDATA[
	@keyframes z31264k {
		from {
			stroke:#c00;
			stroke-dashoffset:3000;
		}
		75% {
			stroke:#c00;
			stroke-dashoffset:0;
		}
		to {
			stroke:#000;
		}
	}
	#z31264 path[clip-path] {
		animation:z31264k 1s linear both;
		stroke-dasharray:3000;
		stroke-width:128;
		stroke-linecap:round;
		fill:none;
	}
	#z31264 path[clip-path="url(#z31264c1)"] {animation-delay:1s;}
	#z31264 path[clip-path="url(#z31264c2)"] {animation-delay:2s;}
	#z31264 path[clip-path="url(#z31264c3)"] {animation-delay:3s;}
	#z31264 path[clip-path="url(#z31264c4)"] {animation-delay:4s;}
	#z31264 path[clip-path="url(#z31264c5)"] {animation-delay:5s;}
	#z31264 path[clip-path="url(#z31264c6)"] {animation-delay:6s;}
	#z31264 path[clip-path="url(#z31264c7)"] {animation-delay:7s;}
	#z31264 path[clip-path="url(#z31264c8)"] {animation-delay:8s;}
	#z31264 path[clip-path="url(#z31264c9)"] {animation-delay:9s;}
	#z31264 path[clip-path="url(#z31264c10)"] {animation-delay:10s;}
	#z31264 path[clip-path="url(#z31264c11)"] {animation-delay:11s;}
	#z31264 path[clip-path="url(#z31264c12)"] {animation-delay:12s;}
	#z31264 path[clip-path="url(#z31264c13)"] {animation-delay:13s;}
	#z31264 path {fill:#ccc;}
]]>
</style>
<g transform="scale(1,-1) translate(0,-900)">
	<path id="z31264d1" d="M281 670Q381 712 414 718Q430 719 434 727Q438 737 426 749Q366 789 332 786Q325 782 324 771Q324 732 145 644Q139 635 146 632Q167 632 248 659L281 670Z"/>
	<path id="z31264d2" d="M303 504Q348 517 406 527Q422 530 423 537Q423 550 405 558Q372 570 304 548L263 536Q128 505 67 495Q54 494 52 485Q49 475 65 464Q104 440 168 462Q211 478 249 489L303 504Z"/>
	<path id="z31264d3" d="M302 432Q302 468 303 504L304 548Q305 605 311 633Q312 646 306 651Q293 663 281 670L248 659Q261 632 263 536L262 405Q262 255 243 140Q228 92 273 32Q277 25 284 22Q294 21 300 34Q312 65 308 94Q302 263 302 408L302 432Z"/>
	<path id="z31264d4" d="M249 489Q206 372 62 181Q56 171 68 170Q89 170 187 287Q227 336 262 405L262.67020824479386 492.7972800679983L249 489Z"/>
	<path id="z31264d5" d="M302 408Q363 347 388 348Q400 348 403 364Q404 376 394 393Q382 409 358 416Q319 431 303 433Q302 433 302 432L302 408Z"/>
	<path id="z31264d6" d="M507 700Q470 721 453 713Q443 706 450 693Q468 671 474 608Q474 419 456 321Q452 305 448 287Q423 194 352 58Q348 51 347 45Q346 35 355 38Q371 41 402 91Q526 253 527 570Q527 655 535 664L507 700Z"/>
	<path id="z31264d7" d="M535 664Q637 695 764 717Q783 720 792 709Q808 702 813 634Q832 411 821 155Q821 118 807 107Q791 95 710 114Q692 117 694 107Q695 100 709 93Q782 47 820 9Q842 -10 855 -8Q868 -4 879 26Q895 74 892 142Q870 494 871 623Q871 662 883 686Q895 708 884 719Q874 735 826 758Q805 770 741 748Q636 721 507 700L535 664Z"/>
	<path id="z31264d8" d="M678 535Q712 545 748 553Q773 560 776 564Q783 571 779 578Q772 588 747 593Q719 599 682 580L634 564Q603 557 566 552Q535 545 558 532Q586 517 636 525L678 535Z"/>
	<path id="z31264d9" d="M670 449Q674 494 678 535L682 580Q682 584 683 589Q686 607 688 619Q698 644 681 658Q653 673 635 676Q622 677 616 672Q610 666 616 654Q631 635 631 622Q632 594 634 564L636 525Q636 485 636 441L670 449Z"/>
	<path id="z31264d10" d="M636 441Q615 438 559 430Q537 427 554 414Q575 398 614 404Q708 423 771 431Q780 430 786 440Q787 449 769 456Q745 472 673 450Q672 450 670 449L636 441Z"/>
	<path id="z31264d11" d="M578 335Q568 339 543 344Q533 347 530 342Q526 338 532 324Q554 281 567 209Q570 188 582 174Q598 155 602 169Q605 179 605 196L601 226Q591 289 589 310L578 335Z"/>
	<path id="z31264d12" d="M735 238Q753 295 771 311Q792 333 772 346Q754 356 731 373Q715 383 698 373Q665 354 578 335L589 310Q592 311 674 329Q698 333 703 325Q709 321 702 295Q698 273 690 248L735 238Z"/>
	<path id="z31264d13" d="M605 196Q614 195 624 197Q661 204 741 211Q751 212 752 221Q752 228 735 238L690 248Q684 248 680 246Q637 234 601 226L605 196Z"/>
	<defs>
		<clipPath id="z31264c1"><use xlink:href="#z31264d1"/></clipPath>
		<clipPath id="z31264c2"><use xlink:href="#z31264d2"/></clipPath>
		<clipPath id="z31264c3"><use xlink:href="#z31264d3"/></clipPath>
		<clipPath id="z31264c4"><use xlink:href="#z31264d4"/></clipPath>
		<clipPath id="z31264c5"><use xlink:href="#z31264d5"/></clipPath>
		<clipPath id="z31264c6"><use xlink:href="#z31264d6"/></clipPath>
		<clipPath id="z31264c7"><use xlink:href="#z31264d7"/></clipPath>
		<clipPath id="z31264c8"><use xlink:href="#z31264d8"/></clipPath>
		<clipPath id="z31264c9"><use xlink:href="#z31264d9"/></clipPath>
		<clipPath id="z31264c10"><use xlink:href="#z31264d10"/></clipPath>
		<clipPath id="z31264c11"><use xlink:href="#z31264d11"/></clipPath>
		<clipPath id="z31264c12"><use xlink:href="#z31264d12"/></clipPath>
		<clipPath id="z31264c13"><use xlink:href="#z31264d13"/></clipPath>
	</defs>
	<path pathLength="2999" clip-path="url(#z31264c1)" d="M432 731L340 741L150 639"/>
	<path pathLength="2999" clip-path="url(#z31264c2)" d="M58 486L113 477L417 540"/>
	<path pathLength="2999" clip-path="url(#z31264c3)" d="M254 656L284 627L284 28"/>
	<path pathLength="2999" clip-path="url(#z31264c4)" d="M258 485L206 352L67 177"/>
	<path pathLength="2999" clip-path="url(#z31264c5)" d="M308 425L399 361"/>
	<path pathLength="2999" clip-path="url(#z31264c6)" d="M455 710L500 659L484 347L436 187L355 43"/>
	<path pathLength="2999" clip-path="url(#z31264c7)" d="M518 696L778 738L847 696L850 85L832 41L700 108"/>
	<path pathLength="2999" clip-path="url(#z31264c8)" d="M558 541L774 571"/>
	<path pathLength="2999" clip-path="url(#z31264c9)" d="M621 668L661 631L652 446"/>
	<path pathLength="2999" clip-path="url(#z31264c10)" d="M553 425L779 444"/>
	<path pathLength="2999" clip-path="url(#z31264c11)" d="M537 335L566 304L592 169"/>
	<path pathLength="2999" clip-path="url(#z31264c12)" d="M585 333L715 351L743 317L718 242"/>
	<path pathLength="2999" clip-path="url(#z31264c13)" d="M612 204L747 221"/>
</g>
</svg>