<!--
AnimCJK 2016-2019 Copyright Francois Mizessyn - https://github.com/parsimonhi/animCJK
Derived from:
    MakeMeAHanzi project - https://github.com/skishore/makemeahanzi
    Arphic PL KaitiM GB font
    Arphic PL UKai font
You can redistribute and/or modify this file under the terms of the Arphic Public License
as published by Arphic Technology Co., Ltd.
You should have received a copy of this license along with this file.
If not, see http://ftp.gnu.org/non-gnu/chinese-fonts-truetype/LICENSE.
-->
<svg id="z31262" class="acjk" version="1.1" viewBox="0 0 1024 1024" xmlns="http://www.w3.org/2000/svg" xmlns:xlink="http://www.w3.org/1999/xlink">
<style>
<![CDATA[
@keyframes zk {
	to {
		stroke-dashoffset:0;
	}
}
svg.acjk path[clip-path] {
	--t:0.8s;
	animation:zk var(--t) linear forwards var(--d);
	stroke-dasharray:3337;
	stroke-dashoffset:3339;
	stroke-width:128;
	stroke-linecap:round;
	fill:none;
	stroke:#000;
}
svg.acjk path[id] {fill:#ccc;}
]]>
</style>
<path id="z31262d1" d="M268 213Q319 180 378 162Q394 161 396 152Q399 142 387 133Q366 120 324 109Q309 103 298 106Q291 110 292 120Q295 157 116 261Q112 270 117 272Q129 272 212 237Q225 231 239 226C258 217 258 217 268 213Z"/>
<path id="z31262d2" d="M295 394Q338 381 395 372Q410 369 410 362Q411 350 394 342Q361 330 297 352C268 359 268 359 254 363Q115 396 67 403Q55 404 52 413Q51 423 65 433Q99 454 156 437Q201 419 239 410C276 399 276 399 295 394Z"/>
<path id="z31262d3" d="M293 454Q293 415 295 394C296 366 296 366 297 352Q300 288 307 257Q310 244 302 238Q284 222 268 213C259 208 234 217 239 226Q254 247 254 363C251 447 251 447 249 489Q249 595 223 739Q205 751 233 812Q245 848 264 859Q276 860 281 847Q294 814 291 784Q290 621 292 483C293 464 293 464 293 454Z"/>
<path id="z31262d4" d="M239 410Q194 527 51 713Q47 722 56 722Q60 723 69 716Q178 626 249 489C287 425 267 341 239 410Z"/>
<path id="z31262d5" d="M292 483Q344 555 363 557Q375 558 382 544Q385 532 378 514Q371 495 347 483Q311 459 295 454C294 454 294 454 293 454C283 452 286 475 292 483Z"/>
<path id="z31262d6" d="M448 170Q439 166 421 163Q411 160 407 165Q400 171 408 186Q439 256 455 371Q458 405 477 429Q493 450 499 435Q500 429 502 423C505 415 503 406 503 397Q502 381 499 360Q477 231 473 199C471 186 460 175 448 170Z"/>
<path id="z31262d7" d="M692 395Q708 422 724 431Q734 440 751 418Q770 391 809 239Q819 209 843 185Q856 173 845 159Q832 141 789 114Q770 104 690 124Q686 124 448 170C435 173 461 204 473 199Q513 186 572 175C593 171 593 171 603 169Q732 139 749 156Q762 174 759 191Q723 347 704 366C698 374 686 387 692 395Z"/>
<path id="z31262d8" d="M626 295Q656 288 684 284Q706 280 697 267Q687 254 663 251Q647 250 626 255C596 266 596 266 581 271Q548 281 522 291Q506 295 526 309C563 306 563 306 582 305C611 298 611 298 626 295Z"/>
<path id="z31262d9" d="M626 404Q659 398 692 395C702 393 714 369 704 366Q677 353 626 370C597 377 597 377 582 380Q540 387 503 397C495 400 493 423 502 423Q506 423 515 422Q549 415 583 411C612 406 612 406 626 404Z"/>
<path id="z31262d10" d="M629 523Q701 511 858 510Q874 509 879 502Q883 492 869 480Q820 444 756 464Q702 473 625 489C596 494 596 494 582 496Q501 506 410 521Q392 522 406 537Q418 549 434 553Q452 557 466 553Q506 540 552 534C603 527 603 527 629 523Z"/>
<path id="z31262d11" d="M625 489Q625 446 626 404C626 381 626 381 626 370Q626 337 627 305Q626 299 626 295C626 268 626 268 626 255Q627 209 630 200Q633 190 624 182Q617 176 603 169C593 165 568 165 572 175Q579 187 580 212Q580 240 581 271C582 294 582 294 582 305Q582 342 582 380C583 401 583 401 583 411Q583 453 582 496C581 555 581 555 580 585Q580 780 567 871Q564 910 588 942Q598 955 609 939Q627 906 627 833Q624 784 624 553C625 510 625 510 625 489Z"/>
<path id="z31262d12" d="M552 534Q491 660 323 794Q311 806 320 807Q329 811 340 806Q463 755 562 609Q572 593 580 585C616 549 575 488 552 534Z"/>
<path id="z31262d13" d="M624 553Q697 658 793 770Q812 789 841 788Q941 784 973 778Q983 777 984 771Q984 767 971 759Q818 699 762 647Q699 593 629 523C614 508 611 536 624 553Z"/>
<defs>
	<clipPath id="z31262c1"><use xlink:href="#z31262d1"/></clipPath>
	<clipPath id="z31262c2"><use xlink:href="#z31262d2"/></clipPath>
	<clipPath id="z31262c3"><use xlink:href="#z31262d3"/></clipPath>
	<clipPath id="z31262c4"><use xlink:href="#z31262d4"/></clipPath>
	<clipPath id="z31262c5"><use xlink:href="#z31262d5"/></clipPath>
	<clipPath id="z31262c6"><use xlink:href="#z31262d6"/></clipPath>
	<clipPath id="z31262c7"><use xlink:href="#z31262d7"/></clipPath>
	<clipPath id="z31262c8"><use xlink:href="#z31262d8"/></clipPath>
	<clipPath id="z31262c9"><use xlink:href="#z31262d9"/></clipPath>
	<clipPath id="z31262c10"><use xlink:href="#z31262d10"/></clipPath>
	<clipPath id="z31262c11"><use xlink:href="#z31262d11"/></clipPath>
	<clipPath id="z31262c12"><use xlink:href="#z31262d12"/></clipPath>
	<clipPath id="z31262c13"><use xlink:href="#z31262d13"/></clipPath>
</defs>
<path style="--d:1s;" pathLength="3333" clip-path="url(#z31262c1)" d="M392 147L310 144L266 189L121 265"/>
<path style="--d:2s;" pathLength="3333" clip-path="url(#z31262c2)" d="M57 415L135 416L403 356"/>
<path style="--d:3s;" pathLength="3333" clip-path="url(#z31262c3)" d="M246 227L279 259L263 853"/>
<path style="--d:4s;" pathLength="3333" clip-path="url(#z31262c4)" d="M248 414L186 555L58 715"/>
<path style="--d:5s;" pathLength="3333" clip-path="url(#z31262c5)" d="M298 463L370 550"/>
<path style="--d:6s;" pathLength="3333" clip-path="url(#z31262c6)" d="M410 169L447 210L491 434"/>
<path style="--d:7s;" pathLength="3333" clip-path="url(#z31262c7)" d="M458 172L775 139L804 177L717 424"/>
<path style="--d:8s;" pathLength="3333" clip-path="url(#z31262c8)" d="M521 298L693 270"/>
<path style="--d:9s;" pathLength="3333" clip-path="url(#z31262c9)" d="M508 415L698 374"/>
<path style="--d:10s;" pathLength="3333" clip-path="url(#z31262c10)" d="M408 527L875 490"/>
<path style="--d:11s;" pathLength="3333" clip-path="url(#z31262c11)" d="M581 176L605 210L595 943"/>
<path style="--d:12s;" pathLength="3333" clip-path="url(#z31262c12)" d="M574 538L471 687L325 802"/>
<path style="--d:13s;" pathLength="3333" clip-path="url(#z31262c13)" d="M632 538L825 741L975 772"/>
</svg>