<!--
AnimCJK 2016-2018 Copyright Francois Mizessyn, http://gooo.free.fr/animCJK/
Derived from:
    MakeMeAHanzi project - https://github.com/skishore/makemeahanzi
    Arphic PL KaitiM GB - https://apps.ubuntu.com/cat/applications/precise/fonts-arphic-gkai00mp/
    Arphic PL UKai - https://apps.ubuntu.com/cat/applications/fonts-arphic-ukai/
You can redistribute and/or modify this file under the terms of the Arphic Public License
as published by Arphic Technology Co., Ltd.
You should have received a copy of this license (the directory "APL") along with this file;
if not, see http://ftp.gnu.org/non-gnu/chinese-fonts-truetype/LICENSE.
-->
<svg id="z31388" class="acjk" version="1.1" viewBox="0 0 1024 1024" xmlns="http://www.w3.org/2000/svg" xmlns:xlink="http://www.w3.org/1999/xlink">
<style>
<![CDATA[
@keyframes z31388k {
	from {
		stroke:#ccc;
		stroke-dashoffset:3334;
	}
	1% {
		stroke:#c00;
		stroke-dashoffset:3334;
	}
	75% {
		stroke:#c00;
		stroke-dashoffset:0;
	}
	to {
		stroke:#000;
	}
}
#z31388 path[clip-path] {
	animation:z31388k 1s linear both;
	stroke-dasharray:3334;
	stroke-width:128;
	stroke-linecap:round;
	fill:none;
}
#z31388 path[clip-path="url(#z31388c1)"] {animation-delay:1s;}
#z31388 path[clip-path="url(#z31388c2)"] {animation-delay:2s;}
#z31388 path[clip-path="url(#z31388c3)"] {animation-delay:3s;}
#z31388 path[clip-path="url(#z31388c4)"] {animation-delay:4s;}
#z31388 path[clip-path="url(#z31388c5)"] {animation-delay:5s;}
#z31388 path[clip-path="url(#z31388c6)"] {animation-delay:6s;}
#z31388 path[clip-path="url(#z31388c7)"] {animation-delay:7s;}
#z31388 path[clip-path="url(#z31388c8)"] {animation-delay:8s;}
#z31388 path[clip-path="url(#z31388c9)"] {animation-delay:9s;}
#z31388 path[clip-path="url(#z31388c10)"] {animation-delay:10s;}
#z31388 path[clip-path="url(#z31388c11)"] {animation-delay:11s;}
#z31388 path[clip-path="url(#z31388c12)"] {animation-delay:12s;}
#z31388 path {fill:#ccc;}
]]>
</style>
<path id="z31388d1" d="M457 109Q487 130 518 155Q534 167 550 164Q560 163 565 148Q568 132 555 102Q548 83 515 71Q434 53 424 61Q420 65 422 79Q426 89 457 109 Z"/>
<path id="z31388d2" d="M282 223Q281 222 281 219Q271 197 259 189Q243 176 241 199Q241 235 199 289Q165 322 191 377Q204 402 223 377Q229 368 278 249L282 223 Z"/>
<path id="z31388d3" d="M278 249Q302 265 330 259Q457 220 676 201Q716 197 730 200Q746 210 744 218Q744 221 717 287Q711 300 717 303Q724 307 739 296Q788 260 830 249Q864 237 863 229Q862 220 795 171Q774 155 687 170Q590 179 383 211Q331 218 282 223L278 249 Z"/>
<path id="z31388d4" d="M360 276Q360 318 258 392Q252 393 259 398Q316 398 402 327Q406 323 410 322Q416 319 416 312Q417 305 410 294Q389 267 367 266Q360 266 360 276 Z"/>
<path id="z31388d5" d="M593 291Q627 318 662 349Q672 359 685 358Q694 358 697 347Q701 337 694 313Q685 283 589 254Q576 251 572 254Q568 257 569 267Q572 274 593 291 Z"/>
<path id="z31388d6" d="M294 417Q284 414 280 419Q276 425 283 439Q305 476 321 539Q325 558 337 570Q353 589 358 575Q359 568 360 558L356 527Q346 472 344 451L294 417 Z"/>
<path id="z31388d7" d="M683 496Q708 454 733 444Q749 428 738 411Q672 351 619 373Q576 385 536 395L475 406Q391 415 294 417L344 451Q354 450 367 447Q421 438 476 432L531 423Q633 402 649 419Q653 425 635 484L683 496 Z"/>
<path id="z31388d8" d="M528 537Q597 530 687 524Q697 523 699 515Q699 508 683 496L635 484Q631 484 628 485Q576 495 529 504L477 513Q413 520 356 527L360 558Q366 559 376 558Q416 549 477 543L528 537 Z"/>
<path id="z31388d9" d="M291 624Q279 620 253 616Q241 615 239 619Q233 625 242 640Q267 685 286 761Q290 783 304 798Q322 817 326 803Q329 793 328 780L323 744Q311 683 307 658L291 624 Z"/>
<path id="z31388d10" d="M735 701Q751 656 781 636Q800 617 776 599Q754 580 730 565Q720 556 651 574Q533 589 527 592L476 599Q437 603 398 611Q337 620 291 624L307 658Q316 648 427 633Q448 627 475 627L527 620Q591 613 678 606Q694 605 700 613Q706 625 686 694L735 701 Z"/>
<path id="z31388d11" d="M528 756Q622 746 749 740Q761 739 762 730Q763 721 735 701L686 694Q685 693 682 694Q600 707 527 721L474 729Q395 738 323 744L328 780Q335 781 346 780Q397 770 474 761L528 756 Z"/>
<path id="z31388d12" d="M478 943Q482 968 490 977Q496 984 503 982Q521 970 524 915Q527 875 528 756L527 721Q526 681 527 620L527 592Q527 567 528 537L529 504Q529 480 530 455Q530 436 531 423L536 395Q537 382 540 372Q543 356 529 346Q498 324 482 322Q469 318 454 326Q445 335 453 345Q472 385 475 406L476 432Q476 469 477 513L477 543Q476 568 476 599L475 627Q475 673 474 729L474 761Q474 903 478 943 Z"/>
<defs>
	<clipPath id="z31388c1"><use xlink:href="#z31388d1"/></clipPath>
	<clipPath id="z31388c2"><use xlink:href="#z31388d2"/></clipPath>
	<clipPath id="z31388c3"><use xlink:href="#z31388d3"/></clipPath>
	<clipPath id="z31388c4"><use xlink:href="#z31388d4"/></clipPath>
	<clipPath id="z31388c5"><use xlink:href="#z31388d5"/></clipPath>
	<clipPath id="z31388c6"><use xlink:href="#z31388d6"/></clipPath>
	<clipPath id="z31388c7"><use xlink:href="#z31388d7"/></clipPath>
	<clipPath id="z31388c8"><use xlink:href="#z31388d8"/></clipPath>
	<clipPath id="z31388c9"><use xlink:href="#z31388d9"/></clipPath>
	<clipPath id="z31388c10"><use xlink:href="#z31388d10"/></clipPath>
	<clipPath id="z31388c11"><use xlink:href="#z31388d11"/></clipPath>
	<clipPath id="z31388c12"><use xlink:href="#z31388d12"/></clipPath>
</defs>
<path pathLength="3333" clip-path="url(#z31388c1)" d="M428 68L515 108L554 159"/>
<path pathLength="3333" clip-path="url(#z31388c2)" d="M249 195L255 242L203 383"/>
<path pathLength="3333" clip-path="url(#z31388c3)" d="M282 243L729 181L773 194L806 241L722 296"/>
<path pathLength="3333" clip-path="url(#z31388c4)" d="M369 271L380 313L266 392"/>
<path pathLength="3333" clip-path="url(#z31388c5)" d="M573 261L692 349"/>
<path pathLength="3333" clip-path="url(#z31388c6)" d="M286 421L323 466L349 574"/>
<path pathLength="3333" clip-path="url(#z31388c7)" d="M305 419L359 432L652 392L695 430L661 490"/>
<path pathLength="3333" clip-path="url(#z31388c8)" d="M363 533L691 510"/>
<path pathLength="3333" clip-path="url(#z31388c9)" d="M247 625L278 655L316 804"/>
<path pathLength="3333" clip-path="url(#z31388c10)" d="M301 630L704 585L745 623L710 696"/>
<path pathLength="3333" clip-path="url(#z31388c11)" d="M330 748L757 728"/>
<path pathLength="3333" clip-path="url(#z31388c12)" d="M456 329L505 375L499 975"/>
</svg>