<!--
AnimCJK 2016-2019 Copyright Francois Mizessyn - https://github.com/parsimonhi/animCJK
Derived from:
    MakeMeAHanzi project - https://github.com/skishore/makemeahanzi
    Arphic PL KaitiM GB font
    Arphic PL UKai font
You can redistribute and/or modify this file under the terms of the Arphic Public License
as published by Arphic Technology Co., Ltd.
You should have received a copy of this license along with this file.
If not, see http://ftp.gnu.org/non-gnu/chinese-fonts-truetype/LICENSE.
-->
<svg id="z31398" class="acjk" version="1.1" viewBox="0 0 1024 1024" xmlns="http://www.w3.org/2000/svg" xmlns:xlink="http://www.w3.org/1999/xlink">
<style>
<![CDATA[
@keyframes zk {
	to {
		stroke-dashoffset:0;
	}
}
svg.acjk path[clip-path] {
	--t:0.8s;
	animation:zk var(--t) linear forwards var(--d);
	stroke-dasharray:3337;
	stroke-dashoffset:3339;
	stroke-width:128;
	stroke-linecap:round;
	fill:none;
	stroke:#000;
}
svg.acjk path[id] {fill:#ccc;}
]]>
</style>
<path id="z31398d1" d="M478 109Q505 125 532 145Q548 155 564 152Q574 151 577 136Q578 120 565 93Q550 66 465 62Q449 61 443 65Q439 69 443 82Q449 92 478 109Z"/>
<path id="z31398d2" d="M284 226Q275 202 262 192Q243 177 241 203Q247 239 186 302Q165 324 191 381Q204 408 226 381Q226 378 280 259C284 249 288 236 284 226Z"/>
<path id="z31398d3" d="M280 259Q299 268 330 260Q450 223 682 201Q724 197 738 200Q751 207 750 214Q731 254 711 297Q711 298 713 300Q720 304 736 294Q791 263 835 254Q872 245 871 237Q870 227 804 173Q780 154 703 169Q520 191 378 214Q332 221 284 226C273 228 270 255 280 259Z"/>
<path id="z31398d4" d="M361 280Q367 307 288 393Q281 397 278 402Q274 409 284 409Q314 409 389 340Q399 330 408 324Q415 320 414 309Q413 302 397 283Q382 268 370 266Q358 265 361 280Z"/>
<path id="z31398d5" d="M603 290Q664 335 674 335Q681 334 685 324Q688 312 680 290Q674 274 649 265Q594 249 580 253Q576 257 578 267Q581 274 603 290Z"/>
<path id="z31398d6" d="M491 367Q488 367 486 368Q440 378 383 382Q353 386 375 401Q402 417 470 407Q480 406 492 404C521 399 521 399 535 397Q641 372 643 371Q650 364 646 357Q640 348 617 342Q596 336 540 355C507 363 507 363 491 367Z"/>
<path id="z31398d7" d="M540 355Q540 354 541 354Q544 336 551 318Q554 309 540 298Q515 283 496 280Q484 277 478 283Q472 289 478 300Q487 310 491 367C492 392 492 392 492 404Q493 434 493 466C493 477 524 473 526 462Q530 428 535 397C538 383 534 368 540 355Z"/>
<path id="z31398d8" d="M493 466Q429 473 352 487Q304 494 255 499Q225 502 244 518Q274 543 306 535Q465 487 653 475Q686 475 687 485Q687 489 648 547Q639 559 645 564Q651 568 668 560Q723 535 766 531Q802 527 802 518Q801 508 738 452Q717 431 635 446Q563 453 526 462C504 465 504 465 493 466Z"/>
<path id="z31398d9" d="M363 558Q414 601 436 598Q448 597 450 580Q449 568 437 553Q427 543 406 540Q375 533 362 534Q353 534 355 544Q355 551 363 558Z"/>
<path id="z31398d10" d="M340 640Q392 685 405 684Q414 683 417 672Q421 659 412 635Q403 614 334 601Q321 600 316 601Q312 605 314 615Q317 624 340 640Z"/>
<path id="z31398d11" d="M528 739Q643 730 809 737Q882 740 890 731Q896 718 879 703Q825 660 784 667Q691 682 538 701C504 704 504 704 487 706Q345 719 182 733Q160 734 176 753Q191 769 209 775Q231 782 249 777Q355 753 473 744Q474 743 477 744C511 741 511 741 528 739Z"/>
<path id="z31398d12" d="M477 744Q443 841 282 908Q231 926 231 927Q225 931 240 936Q289 946 402 899Q493 856 528 739C535 714 535 714 538 701Q551 599 564 574Q570 564 562 555Q546 539 511 523Q492 513 475 518Q456 525 471 542Q510 585 487 706C480 731 480 731 477 744Z"/>
<path id="z31398d13" d="M571 813Q643 865 729 942Q745 961 762 963Q769 964 777 953Q787 940 771 897Q753 842 570 783Q560 779 559 791Q560 804 571 813Z"/>
<defs>
	<clipPath id="z31398c1"><use xlink:href="#z31398d1"/></clipPath>
	<clipPath id="z31398c2"><use xlink:href="#z31398d2"/></clipPath>
	<clipPath id="z31398c3"><use xlink:href="#z31398d3"/></clipPath>
	<clipPath id="z31398c4"><use xlink:href="#z31398d4"/></clipPath>
	<clipPath id="z31398c5"><use xlink:href="#z31398d5"/></clipPath>
	<clipPath id="z31398c6"><use xlink:href="#z31398d6"/></clipPath>
	<clipPath id="z31398c7"><use xlink:href="#z31398d7"/></clipPath>
	<clipPath id="z31398c8"><use xlink:href="#z31398d8"/></clipPath>
	<clipPath id="z31398c9"><use xlink:href="#z31398d9"/></clipPath>
	<clipPath id="z31398c10"><use xlink:href="#z31398d10"/></clipPath>
	<clipPath id="z31398c11"><use xlink:href="#z31398d11"/></clipPath>
	<clipPath id="z31398c12"><use xlink:href="#z31398d12"/></clipPath>
	<clipPath id="z31398c13"><use xlink:href="#z31398d13"/></clipPath>
</defs>
<path style="--d:1s;" pathLength="3333" clip-path="url(#z31398c1)" d="M447 73L573 138"/>
<path style="--d:2s;" pathLength="3333" clip-path="url(#z31398c2)" d="M249 195L258 241L212 325L203 390"/>
<path style="--d:3s;" pathLength="3333" clip-path="url(#z31398c3)" d="M288 254L739 181L798 212L816 244L718 296"/>
<path style="--d:4s;" pathLength="3333" clip-path="url(#z31398c4)" d="M371 273L383 314L286 404"/>
<path style="--d:5s;" pathLength="3333" clip-path="url(#z31398c5)" d="M585 260L676 329"/>
<path style="--d:6s;" pathLength="3333" clip-path="url(#z31398c6)" d="M374 390L640 361"/>
<path style="--d:7s;" pathLength="3333" clip-path="url(#z31398c7)" d="M484 286L519 321L514 462"/>
<path style="--d:8s;" pathLength="3333" clip-path="url(#z31398c8)" d="M244 507L682 459L720 474L748 518L650 559"/>
<path style="--d:9s;" pathLength="3333" clip-path="url(#z31398c9)" d="M363 543L445 587"/>
<path style="--d:10s;" pathLength="3333" clip-path="url(#z31398c10)" d="M321 606L412 671"/>
<path style="--d:11s;" pathLength="3333" clip-path="url(#z31398c11)" d="M176 740L234 754L785 701L887 717"/>
<path style="--d:12s;" pathLength="3333" clip-path="url(#z31398c12)" d="M471 527L529 579L482 789L396 875L238 928"/>
<path style="--d:13s;" pathLength="3333" clip-path="url(#z31398c13)" d="M566 789L701 872L767 956"/>
</svg>