<!--
AnimCJK 2016-2019 Copyright Francois Mizessyn - https://github.com/parsimonhi/animCJK
Derived from:
    MakeMeAHanzi project - https://github.com/skishore/makemeahanzi
    Arphic PL KaitiM GB font
    Arphic PL UKai font
You can redistribute and/or modify this file under the terms of the Arphic Public License
as published by Arphic Technology Co., Ltd.
You should have received a copy of this license along with this file.
If not, see http://ftp.gnu.org/non-gnu/chinese-fonts-truetype/LICENSE.
-->
<svg id="z31494" class="acjk" version="1.1" viewBox="0 0 1024 1024" xmlns="http://www.w3.org/2000/svg" xmlns:xlink="http://www.w3.org/1999/xlink">
<style>
<![CDATA[
@keyframes zk {
	to {
		stroke-dashoffset:0;
	}
}
svg.acjk path[clip-path] {
	--t:0.8s;
	animation:zk var(--t) linear forwards var(--d);
	stroke-dasharray:3337;
	stroke-dashoffset:3339;
	stroke-width:128;
	stroke-linecap:round;
	fill:none;
	stroke:#000;
}
svg.acjk path[id] {fill:#ccc;}
]]>
</style>
<path id="z31494d1" d="M319 228Q338 191 358 159Q367 146 352 133Q306 100 283 108Q271 111 275 125Q293 224 191 351Q185 352 148 404Q141 420 156 414Q174 410 198 389Q268 325 307 250C315 235 315 235 319 228Z"/>
<path id="z31494d2" d="M307 250Q347 274 401 258Q446 249 491 239Q513 235 516 231Q523 224 519 215Q512 205 484 198Q454 194 380 218Q350 222 319 228C311 230 300 246 307 250Z"/>
<path id="z31494d3" d="M344 351Q363 369 386 390Q398 400 412 400Q421 399 425 388Q429 375 421 349Q415 333 391 323Q331 305 320 309Q316 313 317 324Q321 334 344 351Z"/>
<path id="z31494d4" d="M614 201Q638 146 659 103Q666 90 651 78Q608 53 585 60Q575 64 579 77Q604 162 522 286Q516 292 487 337Q483 352 495 345Q537 333 601 227C610 210 610 210 614 201Z"/>
<path id="z31494d5" d="M601 227Q646 246 699 230Q825 196 829 193Q838 184 832 176Q825 164 794 159Q763 155 733 169Q706 179 677 188Q647 195 614 201C604 203 592 223 601 227Z"/>
<path id="z31494d6" d="M637 325Q662 346 688 370Q701 382 715 380Q725 380 729 368Q733 355 724 327Q718 309 691 297Q622 275 612 281Q608 285 609 297Q613 307 637 325Z"/>
<path id="z31494d7" d="M629 588Q657 504 690 484Q708 465 693 446Q615 388 555 418Q453 455 307 477C295 479 310 511 322 509Q325 509 431 488C458 483 458 483 472 480Q583 453 594 464Q604 476 579 580C576 597 623 604 629 588Z"/>
<path id="z31494d8" d="M473 606Q479 561 484 527Q485 521 485 517Q492 502 485 493Q478 486 472 480C462 470 431 474 431 488C432 573 432 573 433 616C433 630 470 619 473 606Z"/>
<path id="z31494d9" d="M300 671Q301 671 304 672Q314 675 327 671Q424 646 636 619Q646 618 648 608Q648 601 629 588C615 579 596 580 579 580Q575 579 571 581Q520 594 473 606C446 613 446 613 433 616Q363 629 303 640C293 642 290 669 300 671Z"/>
<path id="z31494d10" d="M884 808Q872 777 859 687Q860 671 853 666Q847 662 842 680Q811 774 791 804Q764 834 690 854Q513 896 379 847Q325 823 312 791Q294 752 300 671C302 650 302 650 303 640Q307 580 321 513Q321 510 322 509C324 497 317 483 307 477Q294 467 278 461Q265 457 256 461Q249 465 254 483Q267 523 263 562Q247 757 263 810Q267 844 302 873Q414 948 656 922Q699 916 742 906Q809 887 877 846Q896 833 884 808Z"/>
<defs>
	<clipPath id="z31494c1"><use xlink:href="#z31494d1"/></clipPath>
	<clipPath id="z31494c2"><use xlink:href="#z31494d2"/></clipPath>
	<clipPath id="z31494c3"><use xlink:href="#z31494d3"/></clipPath>
	<clipPath id="z31494c4"><use xlink:href="#z31494d4"/></clipPath>
	<clipPath id="z31494c5"><use xlink:href="#z31494d5"/></clipPath>
	<clipPath id="z31494c6"><use xlink:href="#z31494d6"/></clipPath>
	<clipPath id="z31494c7"><use xlink:href="#z31494d7"/></clipPath>
	<clipPath id="z31494c8"><use xlink:href="#z31494d8"/></clipPath>
	<clipPath id="z31494c9"><use xlink:href="#z31494d9"/></clipPath>
	<clipPath id="z31494c10"><use xlink:href="#z31494d10"/></clipPath>
</defs>
<path style="--d:1s;" pathLength="3333" clip-path="url(#z31494c1)" d="M283 118L318 156L290 230L226 335L152 407"/>
<path style="--d:2s;" pathLength="3333" clip-path="url(#z31494c2)" d="M316 247L516 218"/>
<path style="--d:3s;" pathLength="3333" clip-path="url(#z31494c3)" d="M323 316L416 394"/>
<path style="--d:4s;" pathLength="3333" clip-path="url(#z31494c4)" d="M584 64L621 93L608 152L554 268L494 339"/>
<path style="--d:5s;" pathLength="3333" clip-path="url(#z31494c5)" d="M609 223L830 185"/>
<path style="--d:6s;" pathLength="3333" clip-path="url(#z31494c6)" d="M617 289L689 330L717 375"/>
<path style="--d:7s;" pathLength="3333" clip-path="url(#z31494c7)" d="M317 483L613 439L648 473L606 583"/>
<path style="--d:8s;" pathLength="3333" clip-path="url(#z31494c8)" d="M438 497L460 528L447 612"/>
<path style="--d:9s;" pathLength="3333" clip-path="url(#z31494c9)" d="M304 664L640 603"/>
<path style="--d:10s;" pathLength="3333" clip-path="url(#z31494c10)" d="M259 466L291 514L283 789L318 847L381 878L567 900L765 863L845 807L849 674"/>
</svg>