<!--
AnimCJK 2016-2019 Copyright Francois Mizessyn - https://github.com/parsimonhi/animCJK
Derived from:
    MakeMeAHanzi project - https://github.com/skishore/makemeahanzi
    Arphic PL KaitiM GB font
    Arphic PL UKai font
You can redistribute and/or modify this file under the terms of the Arphic Public License
as published by Arphic Technology Co., Ltd.
You should have received a copy of this license along with this file.
If not, see http://ftp.gnu.org/non-gnu/chinese-fonts-truetype/LICENSE.
-->
<svg id="z31508" class="acjk" version="1.1" viewBox="0 0 1024 1024" xmlns="http://www.w3.org/2000/svg" xmlns:xlink="http://www.w3.org/1999/xlink">
<style>
<![CDATA[
@keyframes zk {
	to {
		stroke-dashoffset:0;
	}
}
svg.acjk path[clip-path] {
	--t:0.8s;
	animation:zk var(--t) linear forwards var(--d);
	stroke-dasharray:3337;
	stroke-dashoffset:3339;
	stroke-width:128;
	stroke-linecap:round;
	fill:none;
	stroke:#000;
}
svg.acjk path[id] {fill:#ccc;}
]]>
</style>
<path id="z31508d1" d="M324 191Q337 169 352 149Q362 136 347 122Q302 89 279 94Q269 95 271 111Q284 205 188 315Q164 340 153 356Q146 371 160 366Q214 357 289 250Q301 226 311 213C320 198 320 198 324 191Z"/>
<path id="z31508d2" d="M311 213Q362 234 409 218Q502 197 509 191Q516 184 512 175Q505 165 475 159Q454 156 379 181Q352 187 324 191C316 192 303 210 311 213Z"/>
<path id="z31508d3" d="M338 277Q386 343 410 346Q423 347 429 331Q430 319 423 300Q414 284 393 274Q359 256 344 253Q335 252 334 262Q333 269 338 277Z"/>
<path id="z31508d4" d="M621 156Q639 125 656 98Q666 85 651 72Q608 42 584 48Q574 51 577 64Q595 142 514 247Q495 269 484 284Q477 300 492 294Q505 291 525 275Q579 229 610 176C617 163 617 163 621 156Z"/>
<path id="z31508d5" d="M610 176Q611 176 614 178Q660 199 709 182Q838 149 845 143Q852 136 848 127Q841 117 811 111Q783 107 754 121Q726 131 696 141Q662 150 623 155Q622 155 621 156C613 157 603 173 610 176Z"/>
<path id="z31508d6" d="M637 232Q625 231 623 237Q619 244 629 254Q686 323 722 328Q729 329 735 326Q739 322 742 305Q743 289 738 274Q723 247 665 237Q646 233 637 232Z"/>
<path id="z31508d7" d="M436 437Q488 424 532 405Q578 390 617 385Q635 385 639 378Q643 368 632 356Q613 338 570 318Q555 309 542 310Q535 314 533 324Q527 369 286 456Q280 465 286 468Q299 471 396 447C423 440 423 440 436 437Z"/>
<path id="z31508d8" d="M471 549Q534 536 599 524Q657 511 666 503Q675 496 671 488Q664 476 636 468Q608 462 578 473Q532 488 486 501C438 512 438 512 414 518Q344 530 266 536Q230 542 255 558Q292 583 349 571Q380 565 413 560C452 553 452 553 471 549Z"/>
<path id="z31508d9" d="M458 687Q527 675 803 657Q825 656 829 646Q835 633 816 620Q759 580 718 591Q627 616 468 646Q462 646 459 648C428 654 428 654 412 657Q294 676 160 700Q138 703 155 721Q188 748 242 735Q320 710 412 695C443 690 443 690 458 687Z"/>
<path id="z31508d10" d="M938 826Q919 778 908 696Q905 680 898 674Q889 668 885 690Q869 790 854 809Q815 854 645 858Q554 855 514 840Q480 824 472 800Q459 766 458 687C459 661 459 661 459 648Q462 587 471 549C481 517 481 517 486 501Q490 477 475 463Q453 445 436 437C423 432 391 434 396 447Q396 448 398 452Q413 480 414 518C413 546 413 546 413 560Q412 614 412 657C412 682 412 682 412 695Q413 777 422 803Q434 848 468 872Q532 921 771 907Q877 900 919 876Q950 860 938 826Z"/>
<defs>
	<clipPath id="z31508c1"><use xlink:href="#z31508d1"/></clipPath>
	<clipPath id="z31508c2"><use xlink:href="#z31508d2"/></clipPath>
	<clipPath id="z31508c3"><use xlink:href="#z31508d3"/></clipPath>
	<clipPath id="z31508c4"><use xlink:href="#z31508d4"/></clipPath>
	<clipPath id="z31508c5"><use xlink:href="#z31508d5"/></clipPath>
	<clipPath id="z31508c6"><use xlink:href="#z31508d6"/></clipPath>
	<clipPath id="z31508c7"><use xlink:href="#z31508d7"/></clipPath>
	<clipPath id="z31508c8"><use xlink:href="#z31508d8"/></clipPath>
	<clipPath id="z31508c9"><use xlink:href="#z31508d9"/></clipPath>
	<clipPath id="z31508c10"><use xlink:href="#z31508d10"/></clipPath>
</defs>
<path style="--d:1s;" pathLength="3333" clip-path="url(#z31508c1)" d="M279 98L313 138L302 171L252 265L159 361"/>
<path style="--d:2s;" pathLength="3333" clip-path="url(#z31508c2)" d="M319 210L507 179"/>
<path style="--d:3s;" pathLength="3333" clip-path="url(#z31508c3)" d="M340 260L424 337"/>
<path style="--d:4s;" pathLength="3333" clip-path="url(#z31508c4)" d="M585 56L619 100L554 222L491 288"/>
<path style="--d:5s;" pathLength="3333" clip-path="url(#z31508c5)" d="M617 172L844 133"/>
<path style="--d:6s;" pathLength="3333" clip-path="url(#z31508c6)" d="M633 243L733 319"/>
<path style="--d:7s;" pathLength="3333" clip-path="url(#z31508c7)" d="M632 372L550 353L478 401L292 461"/>
<path style="--d:8s;" pathLength="3333" clip-path="url(#z31508c8)" d="M255 546L345 550L668 492"/>
<path style="--d:9s;" pathLength="3333" clip-path="url(#z31508c9)" d="M157 709L221 714L732 625L826 639"/>
<path style="--d:10s;" pathLength="3333" clip-path="url(#z31508c10)" d="M403 449L449 491L443 791L513 867L691 883L870 852L899 825L895 679"/>
</svg>