<!--
AnimCJK 2016-2017 Copyright Francois Mizessyn, http://gooo.free.fr/animCJK/
Derived from:
    MakeMeAHanzi project - https://github.com/skishore/makemeahanzi
    Arphic PL KaitiM GB - https://apps.ubuntu.com/cat/applications/precise/fonts-arphic-gkai00mp/
    Arphic PL UKai - https://apps.ubuntu.com/cat/applications/fonts-arphic-ukai/
You can redistribute and/or modify this file under the terms of the Arphic Public License
as published by Arphic Technology Co., Ltd.
You should have received a copy of this license (the directory "APL") along with this file;
if not, see http://ftp.gnu.org/non-gnu/chinese-fonts-truetype/LICENSE.
-->
<svg id="z31572" class="acjk" version="1.1" viewBox="0 0 1024 1024" xmlns="http://www.w3.org/2000/svg" xmlns:xlink="http://www.w3.org/1999/xlink">
<style>
<![CDATA[
	@keyframes z31572k {
		from {
			stroke:#c00;
			stroke-dashoffset:3000;
		}
		75% {
			stroke:#c00;
			stroke-dashoffset:0;
		}
		to {
			stroke:#000;
		}
	}
	#z31572 path[clip-path] {
		animation:z31572k 1s linear both;
		stroke-dasharray:3000;
		stroke-width:128;
		stroke-linecap:round;
		fill:none;
	}
	#z31572 path[clip-path="url(#z31572c1)"] {animation-delay:1s;}
	#z31572 path[clip-path="url(#z31572c2)"] {animation-delay:2s;}
	#z31572 path[clip-path="url(#z31572c3)"] {animation-delay:3s;}
	#z31572 path[clip-path="url(#z31572c4)"] {animation-delay:4s;}
	#z31572 path[clip-path="url(#z31572c5)"] {animation-delay:5s;}
	#z31572 path[clip-path="url(#z31572c6)"] {animation-delay:6s;}
	#z31572 path[clip-path="url(#z31572c7)"] {animation-delay:7s;}
	#z31572 path[clip-path="url(#z31572c8)"] {animation-delay:8s;}
	#z31572 path[clip-path="url(#z31572c9)"] {animation-delay:9s;}
	#z31572 path[clip-path="url(#z31572c10)"] {animation-delay:10s;}
	#z31572 path[clip-path="url(#z31572c11)"] {animation-delay:11s;}
	#z31572 path[clip-path="url(#z31572c12)"] {animation-delay:12s;}
	#z31572 path {fill:#ccc;}
]]>
</style>
<g transform="scale(1,-1) translate(0,-900)">
	<path id="z31572d1" d="M338 714Q354 742 370 767Q380 780 364 794Q316 827 293 822Q281 819 285 804Q303 708 199 580Q189 576 157 528Q150 512 164 518Q218 530 298 642Q322 684 325 690L338 714Z"/>
	<path id="z31572d2" d="M325 690Q353 675 424 685Q455 691 492 696Q511 700 515 702Q522 709 519 717Q512 727 486 735Q470 738 388 721Q364 717 338 714L325 690Z"/>
	<path id="z31572d3" d="M332 604Q356 576 389 556Q401 555 408 565Q412 575 410 588Q406 606 391 615Q373 627 341 634Q328 638 321 634Q317 633 318 624Q319 615 332 604Z"/>
	<path id="z31572d4" d="M639 747Q657 774 674 796Q684 808 670 822Q631 853 605 851Q595 850 596 835Q609 757 518 652Q496 630 485 616Q478 601 492 605Q507 608 527 623Q588 668 625 724L639 747Z"/>
	<path id="z31572d5" d="M625 724Q662 706 737 715Q774 721 815 726Q837 730 842 733Q851 740 847 748Q840 760 812 768Q784 775 754 765Q729 758 700 753Q672 749 639 747L625 724Z"/>
	<path id="z31572d6" d="M626 627Q665 582 697 567Q710 564 719 577Q725 589 722 604Q713 641 637 663Q621 667 613 663Q607 662 610 651Q611 641 626 627Z"/>
	<path id="z31572d7" d="M507 508Q534 539 532 548Q528 561 501 570Q470 582 457 578Q450 577 446 562Q416 429 93 185Q71 169 100 173Q224 191 429 416Q435 425 490 488L507 508Z"/>
	<path id="z31572d8" d="M490 488Q736 239 796 230Q889 230 964 249Q983 252 985 258Q986 265 971 270Q764 339 739 351Q651 396 563 464Q529 492 507 508L490 488Z"/>
	<path id="z31572d9" d="M372 326Q335 319 363 303Q399 284 476 298Q518 307 565 318Q587 324 592 327Q601 336 596 344Q589 356 558 362Q527 366 497 354Q470 345 442 337Q411 330 372 326Z"/>
	<path id="z31572d10" d="M358 194Q357 195 356 196Q343 203 302 208Q289 211 285 205Q278 198 289 181Q319 129 340 39Q344 12 362 -4Q383 -28 387 -10Q388 -3 390 6L387 40Q380 62 366 157L358 194Z"/>
	<path id="z31572d11" d="M641 70Q665 145 694 167Q712 188 696 207Q609 267 555 237Q473 210 358 194L366 157Q373 160 559 193Q581 197 589 189Q599 182 598 162Q592 114 584 73L641 70Z"/>
	<path id="z31572d12" d="M390 6Q396 5 403 6Q482 22 655 34Q665 35 667 44Q667 51 641 70L584 73Q475 51 387 40L390 6Z"/>
	<defs>
		<clipPath id="z31572c1"><use xlink:href="#z31572d1"/></clipPath>
		<clipPath id="z31572c2"><use xlink:href="#z31572d2"/></clipPath>
		<clipPath id="z31572c3"><use xlink:href="#z31572d3"/></clipPath>
		<clipPath id="z31572c4"><use xlink:href="#z31572d4"/></clipPath>
		<clipPath id="z31572c5"><use xlink:href="#z31572d5"/></clipPath>
		<clipPath id="z31572c6"><use xlink:href="#z31572d6"/></clipPath>
		<clipPath id="z31572c7"><use xlink:href="#z31572d7"/></clipPath>
		<clipPath id="z31572c8"><use xlink:href="#z31572d8"/></clipPath>
		<clipPath id="z31572c9"><use xlink:href="#z31572d9"/></clipPath>
		<clipPath id="z31572c10"><use xlink:href="#z31572d10"/></clipPath>
		<clipPath id="z31572c11"><use xlink:href="#z31572d11"/></clipPath>
		<clipPath id="z31572c12"><use xlink:href="#z31572d12"/></clipPath>
	</defs>
	<path pathLength="2999" clip-path="url(#z31572c1)" d="M291 816L329 764L259 625L163 523"/>
	<path pathLength="2999" clip-path="url(#z31572c2)" d="M331 695L516 714"/>
	<path pathLength="2999" clip-path="url(#z31572c3)" d="M324 629L397 563"/>
	<path pathLength="2999" clip-path="url(#z31572c4)" d="M605 845L637 800L563 678L489 612"/>
	<path pathLength="2999" clip-path="url(#z31572c5)" d="M630 729L839 745"/>
	<path pathLength="2999" clip-path="url(#z31572c6)" d="M614 660L716 578"/>
	<path pathLength="2999" clip-path="url(#z31572c7)" d="M524 550L472 533L290 313L94 177"/>
	<path pathLength="2999" clip-path="url(#z31572c8)" d="M506 499L760 296L978 259"/>
	<path pathLength="2999" clip-path="url(#z31572c9)" d="M359 315L593 342"/>
	<path pathLength="2999" clip-path="url(#z31572c10)" d="M290 202L332 169L376 -13"/>
	<path pathLength="2999" clip-path="url(#z31572c11)" d="M367 186L615 213L650 176L603 73"/>
	<path pathLength="2999" clip-path="url(#z31572c12)" d="M398 14L662 47"/>
</g>
</svg>