<!--
AnimCJK 2016-2017 Copyright Francois Mizessyn, http://gooo.free.fr/animCJK/
Derived from:
    MakeMeAHanzi project - https://github.com/skishore/makemeahanzi
    Arphic PL KaitiM GB - https://apps.ubuntu.com/cat/applications/precise/fonts-arphic-gkai00mp/
    Arphic PL UKai - https://apps.ubuntu.com/cat/applications/fonts-arphic-ukai/
You can redistribute and/or modify this file under the terms of the Arphic Public License
as published by Arphic Technology Co., Ltd.
You should have received a copy of this license (the directory "APL") along with this file;
if not, see http://ftp.gnu.org/non-gnu/chinese-fonts-truetype/LICENSE.
-->
<svg id="z31570" class="acjk" version="1.1" viewBox="0 0 1024 1024" xmlns="http://www.w3.org/2000/svg" xmlns:xlink="http://www.w3.org/1999/xlink">
<style>
<![CDATA[
	@keyframes z31570k {
		from {
			stroke:#c00;
			stroke-dashoffset:3000;
		}
		75% {
			stroke:#c00;
			stroke-dashoffset:0;
		}
		to {
			stroke:#000;
		}
	}
	#z31570 path[clip-path] {
		animation:z31570k 1s linear both;
		stroke-dasharray:3000;
		stroke-width:128;
		stroke-linecap:round;
		fill:none;
	}
	#z31570 path[clip-path="url(#z31570c1)"] {animation-delay:1s;}
	#z31570 path[clip-path="url(#z31570c2)"] {animation-delay:2s;}
	#z31570 path[clip-path="url(#z31570c3)"] {animation-delay:3s;}
	#z31570 path[clip-path="url(#z31570c4)"] {animation-delay:4s;}
	#z31570 path[clip-path="url(#z31570c5)"] {animation-delay:5s;}
	#z31570 path[clip-path="url(#z31570c6)"] {animation-delay:6s;}
	#z31570 path[clip-path="url(#z31570c7)"] {animation-delay:7s;}
	#z31570 path[clip-path="url(#z31570c8)"] {animation-delay:8s;}
	#z31570 path[clip-path="url(#z31570c9)"] {animation-delay:9s;}
	#z31570 path[clip-path="url(#z31570c10)"] {animation-delay:10s;}
	#z31570 path[clip-path="url(#z31570c11)"] {animation-delay:11s;}
	#z31570 path[clip-path="url(#z31570c12)"] {animation-delay:12s;}
	#z31570 path {fill:#ccc;}
]]>
</style>
<g transform="scale(1,-1) translate(0,-900)">
	<path id="z31570d1" d="M322 716Q344 747 366 772Q376 782 364 798Q325 832 304 830Q294 829 294 815Q300 716 184 614Q156 590 142 575Q133 562 147 565Q165 566 189 582Q262 631 307 694L322 716Z"/>
	<path id="z31570d2" d="M307 694Q343 675 386 686Q435 695 484 704Q506 708 511 712Q518 719 515 726Q508 736 483 743Q458 747 432 738Q407 731 378 724Q351 720 322 716L307 694Z"/>
	<path id="z31570d3" d="M340 608Q361 590 384 569Q396 559 409 561Q418 561 421 572Q425 585 416 609Q406 636 334 647Q321 648 316 647Q312 643 313 633Q317 624 340 608Z"/>
	<path id="z31570d4" d="M642 741Q664 777 686 804Q696 816 682 830Q643 861 617 859Q607 858 608 843Q620 761 525 651Q522 651 485 608Q478 593 492 597Q508 600 530 616Q588 662 627 716L642 741Z"/>
	<path id="z31570d5" d="M627 716Q657 704 733 712Q862 736 866 738Q875 745 870 753Q864 763 838 772Q810 778 783 768Q750 758 714 751Q680 747 642 741L627 716Z"/>
	<path id="z31570d6" d="M665 632Q689 616 715 597Q728 588 741 590Q751 591 753 604Q754 617 744 642Q732 664 654 673Q641 674 635 671Q631 667 635 656Q639 647 665 632Z"/>
	<path id="z31570d7" d="M295 508Q294 509 293 510Q262 526 243 525Q228 521 234 508Q289 385 236 153Q227 126 216 106Q198 66 229 20Q230 19 233 15Q240 0 252 6Q265 15 276 48Q295 97 297 173Q306 414 312 467L295 508Z"/>
	<path id="z31570d8" d="M312 467Q387 492 655 523Q680 527 692 513Q704 507 708 456Q723 284 716 87Q716 59 706 50Q693 40 622 47Q604 48 606 39Q607 32 622 26Q686 -14 721 -48Q743 -67 757 -65Q770 -61 781 -31Q796 18 792 87Q773 334 771 427Q771 467 783 493Q796 515 785 528Q775 544 724 568Q703 580 620 556Q457 525 295 508L312 467Z"/>
	<path id="z31570d9" d="M400 406Q366 400 391 385Q427 367 494 379Q539 388 587 397Q611 403 615 406Q622 413 619 421Q612 431 586 438Q558 444 531 433Q503 423 473 416Q439 409 400 406Z"/>
	<path id="z31570d10" d="M412 283Q402 287 374 292Q364 295 360 290Q356 284 363 270Q385 227 401 157Q404 136 417 122Q433 103 438 117Q441 126 441 139L438 169Q426 235 424 257L412 283Z"/>
	<path id="z31570d11" d="M593 184Q611 236 629 252Q651 276 630 290Q612 300 588 319Q572 329 553 320Q505 293 412 283L424 257Q433 261 522 275Q550 279 556 269Q562 265 556 239Q552 218 545 193L593 184Z"/>
	<path id="z31570d12" d="M441 139Q445 138 456 140Q502 150 600 156Q610 157 612 165Q612 172 593 184L545 193Q542 194 540 193Q482 178 438 169L441 139Z"/>
	<defs>
		<clipPath id="z31570c1"><use xlink:href="#z31570d1"/></clipPath>
		<clipPath id="z31570c2"><use xlink:href="#z31570d2"/></clipPath>
		<clipPath id="z31570c3"><use xlink:href="#z31570d3"/></clipPath>
		<clipPath id="z31570c4"><use xlink:href="#z31570d4"/></clipPath>
		<clipPath id="z31570c5"><use xlink:href="#z31570d5"/></clipPath>
		<clipPath id="z31570c6"><use xlink:href="#z31570d6"/></clipPath>
		<clipPath id="z31570c7"><use xlink:href="#z31570d7"/></clipPath>
		<clipPath id="z31570c8"><use xlink:href="#z31570d8"/></clipPath>
		<clipPath id="z31570c9"><use xlink:href="#z31570d9"/></clipPath>
		<clipPath id="z31570c10"><use xlink:href="#z31570d10"/></clipPath>
		<clipPath id="z31570c11"><use xlink:href="#z31570d11"/></clipPath>
		<clipPath id="z31570c12"><use xlink:href="#z31570d12"/></clipPath>
	</defs>
	<path pathLength="2999" clip-path="url(#z31570c1)" d="M304 823L330 782L288 705L148 574"/>
	<path pathLength="2999" clip-path="url(#z31570c2)" d="M313 698L510 724"/>
	<path pathLength="2999" clip-path="url(#z31570c3)" d="M321 641L408 566"/>
	<path pathLength="2999" clip-path="url(#z31570c4)" d="M617 852L649 807L582 692L489 604"/>
	<path pathLength="2999" clip-path="url(#z31570c5)" d="M636 719L865 752"/>
	<path pathLength="2999" clip-path="url(#z31570c6)" d="M640 664L747 597"/>
	<path pathLength="2999" clip-path="url(#z31570c7)" d="M239 518L273 486L284 408L244 9"/>
	<path pathLength="2999" clip-path="url(#z31570c8)" d="M303 505L339 493L677 547L746 507L747 19L724 -13L612 37"/>
	<path pathLength="2999" clip-path="url(#z31570c9)" d="M391 396L616 419"/>
	<path pathLength="2999" clip-path="url(#z31570c10)" d="M365 287L396 257L429 116"/>
	<path pathLength="2999" clip-path="url(#z31570c11)" d="M421 278L569 297L599 261L558 191"/>
	<path pathLength="2999" clip-path="url(#z31570c12)" d="M445 146L606 168"/>
</g>
</svg>