<!--
AnimCJK 2016-2019 Copyright Francois Mizessyn - https://github.com/parsimonhi/animCJK
Derived from:
    MakeMeAHanzi project - https://github.com/skishore/makemeahanzi
    Arphic PL KaitiM GB font
    Arphic PL UKai font
You can redistribute and/or modify this file under the terms of the Arphic Public License
as published by Arphic Technology Co., Ltd.
You should have received a copy of this license along with this file.
If not, see http://ftp.gnu.org/non-gnu/chinese-fonts-truetype/LICENSE.
-->
<svg id="z31601" class="acjk" version="1.1" viewBox="0 0 1024 1024" xmlns="http://www.w3.org/2000/svg" xmlns:xlink="http://www.w3.org/1999/xlink">
<style>
<![CDATA[
@keyframes zk {
	to {
		stroke-dashoffset:0;
	}
}
svg.acjk path[clip-path] {
	--t:0.8s;
	animation:zk var(--t) linear forwards var(--d);
	stroke-dasharray:3337;
	stroke-dashoffset:3339;
	stroke-width:128;
	stroke-linecap:round;
	fill:none;
	stroke:#000;
}
svg.acjk path[id] {fill:#ccc;}
]]>
</style>
<path id="z31601d1" d="M328 203Q346 175 364 151Q374 139 361 126Q322 93 299 96Q289 97 290 112Q299 199 199 306Q193 309 157 349Q150 362 163 359Q179 358 203 340Q267 294 307 235C321 214 321 214 328 203Z"/>
<path id="z31601d2" d="M307 235Q361 235 488 210Q492 209 495 207Q502 200 498 193Q492 184 469 178Q451 174 375 194Q351 198 328 203C315 206 294 235 307 235Z"/>
<path id="z31601d3" d="M356 312Q371 327 386 344Q396 354 409 354Q416 354 421 343Q425 333 419 309Q415 296 395 287Q349 269 336 273Q332 277 333 286Q336 295 356 312Z"/>
<path id="z31601d4" d="M618 185Q628 163 662 107Q671 94 656 81Q611 51 586 56Q576 59 579 73Q597 157 515 267Q503 277 480 312Q473 328 488 322Q539 307 601 214C612 195 612 195 618 185Z"/>
<path id="z31601d5" d="M601 214Q632 223 721 208Q809 192 819 186Q826 179 823 171Q816 161 790 153Q762 149 735 159Q705 168 673 176Q648 180 618 185C607 187 590 212 601 214Z"/>
<path id="z31601d6" d="M632 299Q657 318 682 342Q694 352 708 352Q717 351 721 340Q725 327 716 301Q707 277 627 257Q614 256 608 257Q604 261 605 272Q609 282 632 299Z"/>
<path id="z31601d7" d="M255 553Q372 415 374 407Q373 406 373 404Q370 391 347 367Q323 348 306 346Q288 346 294 367Q303 394 291 415Q254 485 200 549Q149 610 81 676Q71 685 68 690Q64 700 77 699Q116 693 231 578C247 561 247 561 255 553Z"/>
<path id="z31601d8" d="M231 578Q271 666 229 836Q217 876 249 919Q250 920 252 922Q268 935 278 912Q291 878 290 837Q291 665 297 627Q304 603 295 594Q279 576 268 564Q262 557 255 553C245 547 227 567 231 578Z"/>
<path id="z31601d9" d="M355 545Q383 602 362 750Q356 780 378 806Q385 813 393 805Q406 787 407 711Q403 624 410 567Q416 551 400 541Q387 534 375 527Q365 524 358 528Q352 532 355 545Z"/>
<path id="z31601d10" d="M572 492Q587 467 598 446Q610 424 618 412Q624 402 615 388Q597 363 580 354Q567 344 551 346Q536 347 543 366Q550 373 547 398Q532 491 445 609Q439 613 439 620Q440 626 445 624Q455 621 480 602C494 590 494 590 501 584Q504 580 508 577Q529 553 552 522C565 502 565 502 572 492Z"/>
<path id="z31601d11" d="M702 511Q739 502 782 495Q818 488 823 482Q830 475 827 467Q820 457 794 449Q766 443 739 454Q699 467 654 479Q615 486 572 492C560 494 540 520 552 522Q591 534 649 521C650 521 650 521 651 521C685 514 685 514 702 511Z"/>
<path id="z31601d12" d="M603 742Q552 805 446 844Q422 847 411 855Q405 859 420 865Q484 881 588 824Q595 817 606 810Q619 797 634 780C653 751 653 751 663 736Q679 705 716 608Q722 587 737 565Q744 555 738 546Q726 530 702 511C688 500 643 506 651 521Q681 581 626 702C611 729 611 729 603 742Z"/>
<path id="z31601d13" d="M480 602Q522 632 603 742C624 767 624 767 634 780Q671 826 719 873Q735 892 763 894Q845 900 914 893Q948 890 947 881Q944 875 783 813Q717 785 663 736C638 713 638 713 626 702Q589 665 551 621Q526 591 501 584C492 581 473 596 480 602Z"/>
<defs>
	<clipPath id="z31601c1"><use xlink:href="#z31601d1"/></clipPath>
	<clipPath id="z31601c2"><use xlink:href="#z31601d2"/></clipPath>
	<clipPath id="z31601c3"><use xlink:href="#z31601d3"/></clipPath>
	<clipPath id="z31601c4"><use xlink:href="#z31601d4"/></clipPath>
	<clipPath id="z31601c5"><use xlink:href="#z31601d5"/></clipPath>
	<clipPath id="z31601c6"><use xlink:href="#z31601d6"/></clipPath>
	<clipPath id="z31601c7"><use xlink:href="#z31601d7"/></clipPath>
	<clipPath id="z31601c8"><use xlink:href="#z31601d8"/></clipPath>
	<clipPath id="z31601c9"><use xlink:href="#z31601d9"/></clipPath>
	<clipPath id="z31601c10"><use xlink:href="#z31601d10"/></clipPath>
	<clipPath id="z31601c11"><use xlink:href="#z31601d11"/></clipPath>
	<clipPath id="z31601c12"><use xlink:href="#z31601d12"/></clipPath>
	<clipPath id="z31601c13"><use xlink:href="#z31601d13"/></clipPath>
</defs>
<path style="--d:1s;" pathLength="3333" clip-path="url(#z31601c1)" d="M299 106L328 146L292 216L160 352"/>
<path style="--d:2s;" pathLength="3333" clip-path="url(#z31601c2)" d="M314 230L493 195"/>
<path style="--d:3s;" pathLength="3333" clip-path="url(#z31601c3)" d="M337 279L415 346"/>
<path style="--d:4s;" pathLength="3333" clip-path="url(#z31601c4)" d="M587 61L623 101L612 132L564 230L485 316"/>
<path style="--d:5s;" pathLength="3333" clip-path="url(#z31601c5)" d="M612 211L820 176"/>
<path style="--d:6s;" pathLength="3333" clip-path="url(#z31601c6)" d="M614 267L686 307L712 346"/>
<path style="--d:7s;" pathLength="3333" clip-path="url(#z31601c7)" d="M302 351L331 412L193 588L76 691"/>
<path style="--d:8s;" pathLength="3333" clip-path="url(#z31601c8)" d="M251 564L273 619L255 919"/>
<path style="--d:9s;" pathLength="3333" clip-path="url(#z31601c9)" d="M363 532L387 564L383 802"/>
<path style="--d:10s;" pathLength="3333" clip-path="url(#z31601c10)" d="M550 354L582 396L568 441L446 616"/>
<path style="--d:11s;" pathLength="3333" clip-path="url(#z31601c11)" d="M559 518L821 468"/>
<path style="--d:12s;" pathLength="3333" clip-path="url(#z31601c12)" d="M661 526L700 567L620 759L529 829L417 855"/>
<path style="--d:13s;" pathLength="3333" clip-path="url(#z31601c13)" d="M491 602L750 845L937 883"/>
</svg>