<!--
AnimCJK 2016-2019 Copyright Francois Mizessyn - https://github.com/parsimonhi/animCJK
Derived from:
    MakeMeAHanzi project - https://github.com/skishore/makemeahanzi
    Arphic PL KaitiM GB font
    Arphic PL UKai font
You can redistribute and/or modify this file under the terms of the Arphic Public License
as published by Arphic Technology Co., Ltd.
You should have received a copy of this license along with this file.
If not, see http://ftp.gnu.org/non-gnu/chinese-fonts-truetype/LICENSE.
-->
<svg id="z31621" class="acjk" version="1.1" viewBox="0 0 1024 1024" xmlns="http://www.w3.org/2000/svg" xmlns:xlink="http://www.w3.org/1999/xlink">
<style>
<![CDATA[
@keyframes zk {
	to {
		stroke-dashoffset:0;
	}
}
svg.acjk path[clip-path] {
	--t:0.8s;
	animation:zk var(--t) linear forwards var(--d);
	stroke-dasharray:3337;
	stroke-dashoffset:3339;
	stroke-width:128;
	stroke-linecap:round;
	fill:none;
	stroke:#000;
}
svg.acjk path[id] {fill:#ccc;}
]]>
</style>
<path id="z31621d1" d="M343 156Q353 137 366 120Q375 108 361 96Q321 66 300 72Q290 75 293 88Q306 169 226 267Q220 273 192 309Q186 322 199 318Q247 309 312 211Q318 199 329 180C338 164 338 164 343 156Z"/>
<path id="z31621d2" d="M329 180Q362 190 424 183Q514 167 519 164Q526 157 522 150Q516 140 491 133Q466 129 440 138Q416 145 392 150Q368 154 343 156C334 156 320 178 329 180Z"/>
<path id="z31621d3" d="M351 256Q402 310 419 311Q431 312 436 296Q437 284 428 267Q419 254 399 247Q368 234 355 232Q346 231 346 241Q345 248 351 256Z"/>
<path id="z31621d4" d="M617 142Q633 109 651 83Q660 71 646 59Q604 32 584 37Q574 40 577 53Q592 125 525 215Q518 215 496 253Q490 266 503 262Q548 252 602 167C612 150 612 150 617 142Z"/>
<path id="z31621d5" d="M602 167Q632 177 706 169Q821 145 827 142Q834 135 831 127Q824 117 798 109Q770 105 743 115Q713 124 681 132Q651 136 617 142C607 144 592 165 602 167Z"/>
<path id="z31621d6" d="M641 251Q669 272 700 296Q713 306 725 304Q734 303 737 292Q740 279 731 256Q719 226 634 213Q621 212 616 213Q612 217 614 227Q618 236 641 251Z"/>
<path id="z31621d7" d="M336 366Q326 360 293 357Q281 354 279 359Q273 366 282 380Q315 441 337 543Q341 574 360 594Q378 613 382 599Q383 592 384 585C383 565 383 565 383 555Q382 543 378 531Q356 437 349 400C347 388 347 371 336 366Z"/>
<path id="z31621d8" d="M619 561Q619 565 622 572Q626 588 640 587Q653 586 662 571Q674 556 697 481Q715 429 752 399Q771 383 756 367Q738 349 688 322Q673 313 599 327Q557 327 435 351Q377 361 336 366C324 368 337 400 349 400Q356 401 365 399Q402 389 464 379C486 376 486 376 497 374Q632 353 653 365Q662 371 657 401Q636 515 623 539C620 546 618 554 619 561Z"/>
<path id="z31621d9" d="M475 443Q438 450 403 460Q387 463 406 478Q415 485 434 482Q455 478 476 476C503 472 503 472 516 470Q556 463 595 459Q617 455 609 443Q599 430 575 425Q553 421 517 431C489 439 489 439 475 443Z"/>
<path id="z31621d10" d="M464 379Q473 407 475 443C476 465 476 465 476 476Q477 501 479 539C479 551 513 545 513 533Q514 499 516 470C517 444 517 444 517 431Q517 427 518 425Q522 398 517 391Q507 381 497 374C487 368 462 368 464 379Z"/>
<path id="z31621d11" d="M384 585Q394 586 404 585Q471 570 619 561C626 561 628 544 623 539Q599 515 560 522Q535 526 513 533C490 537 490 537 479 539Q427 548 383 555C373 557 374 585 384 585Z"/>
<path id="z31621d12" d="M635 660Q654 660 903 659Q925 660 930 651Q937 638 919 623Q856 577 791 594Q557 631 130 673Q108 674 124 693Q139 708 158 714Q180 721 197 716Q273 697 355 686C390 681 390 681 407 679Q467 667 592 662C621 661 621 661 635 660Z"/>
<path id="z31621d13" d="M355 686Q376 770 330 848Q303 890 227 932Q206 944 232 944Q262 947 322 916Q394 880 423 729Q426 714 429 707Q436 701 430 692Q426 686 407 679C391 673 352 669 355 686Z"/>
<path id="z31621d14" d="M592 662Q610 692 594 860Q593 861 593 864Q583 951 628 988C630 989 630 989 631 990Q641 991 647 979Q653 960 654 898Q648 738 654 688Q655 678 649 671Q642 664 635 660C623 653 586 649 592 662Z"/>
<defs>
	<clipPath id="z31621c1"><use xlink:href="#z31621d1"/></clipPath>
	<clipPath id="z31621c2"><use xlink:href="#z31621d2"/></clipPath>
	<clipPath id="z31621c3"><use xlink:href="#z31621d3"/></clipPath>
	<clipPath id="z31621c4"><use xlink:href="#z31621d4"/></clipPath>
	<clipPath id="z31621c5"><use xlink:href="#z31621d5"/></clipPath>
	<clipPath id="z31621c6"><use xlink:href="#z31621d6"/></clipPath>
	<clipPath id="z31621c7"><use xlink:href="#z31621d7"/></clipPath>
	<clipPath id="z31621c8"><use xlink:href="#z31621d8"/></clipPath>
	<clipPath id="z31621c9"><use xlink:href="#z31621d9"/></clipPath>
	<clipPath id="z31621c10"><use xlink:href="#z31621d10"/></clipPath>
	<clipPath id="z31621c11"><use xlink:href="#z31621d11"/></clipPath>
	<clipPath id="z31621c12"><use xlink:href="#z31621d12"/></clipPath>
	<clipPath id="z31621c13"><use xlink:href="#z31621d13"/></clipPath>
	<clipPath id="z31621c14"><use xlink:href="#z31621d14"/></clipPath>
</defs>
<path style="--d:1s;" pathLength="3333" clip-path="url(#z31621c1)" d="M300 76L330 110L319 147L198 314"/>
<path style="--d:2s;" pathLength="3333" clip-path="url(#z31621c2)" d="M336 176L518 156"/>
<path style="--d:3s;" pathLength="3333" clip-path="url(#z31621c3)" d="M353 241L424 306"/>
<path style="--d:4s;" pathLength="3333" clip-path="url(#z31621c4)" d="M585 45L615 87L504 256"/>
<path style="--d:5s;" pathLength="3333" clip-path="url(#z31621c5)" d="M608 163L827 128"/>
<path style="--d:6s;" pathLength="3333" clip-path="url(#z31621c6)" d="M621 218L729 295"/>
<path style="--d:7s;" pathLength="3333" clip-path="url(#z31621c7)" d="M285 364L327 417L372 600"/>
<path style="--d:8s;" pathLength="3333" clip-path="url(#z31621c8)" d="M343 368L681 350L710 387L635 582"/>
<path style="--d:9s;" pathLength="3333" clip-path="url(#z31621c9)" d="M407 469L603 445"/>
<path style="--d:10s;" pathLength="3333" clip-path="url(#z31621c10)" d="M473 384L496 412L489 534"/>
<path style="--d:11s;" pathLength="3333" clip-path="url(#z31621c11)" d="M393 577L619 549"/>
<path style="--d:12s;" pathLength="3333" clip-path="url(#z31621c12)" d="M123 680L181 693L815 624L928 642"/>
<path style="--d:13s;" pathLength="3333" clip-path="url(#z31621c13)" d="M362 693L396 719L363 838L327 887L227 939"/>
<path style="--d:14s;" pathLength="3333" clip-path="url(#z31621c14)" d="M601 665L627 692L623 983"/>
</svg>