<!--
AnimCJK 2016-2019 Copyright Francois Mizessyn - https://github.com/parsimonhi/animCJK
Derived from:
    MakeMeAHanzi project - https://github.com/skishore/makemeahanzi
    Arphic PL KaitiM GB font
    Arphic PL UKai font
You can redistribute and/or modify this file under the terms of the Arphic Public License
as published by Arphic Technology Co., Ltd.
You should have received a copy of this license along with this file.
If not, see http://ftp.gnu.org/non-gnu/chinese-fonts-truetype/LICENSE.
-->
<svg id="z31636" class="acjk" version="1.1" viewBox="0 0 1024 1024" xmlns="http://www.w3.org/2000/svg" xmlns:xlink="http://www.w3.org/1999/xlink">
<style>
<![CDATA[
@keyframes zk {
	to {
		stroke-dashoffset:0;
	}
}
svg.acjk path[clip-path] {
	--t:0.8s;
	animation:zk var(--t) linear forwards var(--d);
	stroke-dasharray:3337;
	stroke-dashoffset:3339;
	stroke-width:128;
	stroke-linecap:round;
	fill:none;
	stroke:#000;
}
svg.acjk path[id] {fill:#ccc;}
]]>
</style>
<path id="z31636d1" d="M345 202Q358 178 371 159Q381 146 367 133Q325 102 301 107Q291 108 293 123Q306 228 200 347Q173 375 161 392Q154 407 168 402Q186 398 209 379Q284 318 323 242Q326 235 330 229C340 211 340 211 345 202Z"/>
<path id="z31636d2" d="M330 229Q357 239 431 231Q462 225 498 220Q519 216 522 214Q531 207 527 199Q520 189 494 181Q466 174 439 185Q415 192 390 196Q368 199 345 202C335 204 320 225 330 229Z"/>
<path id="z31636d3" d="M344 327Q363 345 386 366Q398 376 412 376Q421 375 425 364Q429 351 421 325Q415 309 391 299Q331 281 320 285Q316 289 317 300Q321 310 344 327Z"/>
<path id="z31636d4" d="M634 188Q634 182 674 109Q683 96 667 84Q625 57 600 62Q590 66 593 79Q614 163 533 278Q520 290 500 324Q493 340 507 334Q558 319 622 210C626 203 632 196 634 188Z"/>
<path id="z31636d5" d="M623 210Q662 234 717 217Q765 207 814 196Q836 190 840 187Q847 180 843 171Q836 161 808 154Q789 151 708 174Q674 181 634 188C626 189 615 206 622 210C623 210 623 210 623 210Z"/>
<path id="z31636d6" d="M666 312Q688 333 714 357Q727 370 742 369Q752 368 757 355Q761 342 753 313Q744 286 661 266Q646 262 640 265Q636 269 637 281Q640 291 666 312Z"/>
<path id="z31636d7" d="M248 452Q287 491 314 499Q327 500 335 488Q339 475 336 460Q329 439 311 429Q262 405 235 415Q234 415 233 416Q227 417 230 429Q233 439 248 452Z"/>
<path id="z31636d8" d="M179 580Q207 628 239 646Q252 650 263 639Q270 627 270 611Q263 572 197 545Q196 544 195 544Q179 537 170 540Q164 541 165 553Q165 565 179 580Z"/>
<path id="z31636d9" d="M200 797Q188 800 189 817Q198 889 229 910Q235 917 246 915Q253 914 256 890Q268 836 375 615Q382 600 382 594Q382 584 373 590Q355 602 241 761Q228 779 200 797Z"/>
<path id="z31636d10" d="M537 521Q598 454 632 424Q648 417 641 406Q632 393 610 379Q588 366 565 368Q552 372 556 391Q565 412 509 525C505 534 531 529 537 521Z"/>
<path id="z31636d11" d="M476 528Q454 510 428 502Q421 498 416 504Q406 508 416 522Q453 601 445 797Q442 872 479 896C480 897 480 897 480 897Q498 904 502 872Q502 868 502 863C502 838 502 838 502 826Q501 813 499 797Q498 757 496 706C495 687 495 687 495 678Q494 617 498 566Q498 565 498 562C498 549 487 536 476 528Z"/>
<path id="z31636d12" d="M509 525Q493 525 476 528C463 531 485 562 498 562Q502 562 509 561Q719 516 733 532Q766 578 744 799Q743 818 735 822Q732 823 715 818C706 816 694 834 699 842Q712 867 742 917Q752 933 763 931Q779 927 786 900Q813 831 808 743Q809 688 809 622Q813 574 834 545Q850 524 837 512Q815 491 769 473Q750 464 718 477Q634 507 537 521C518 524 518 524 509 525Z"/>
<path id="z31636d13" d="M496 706Q503 707 513 706Q604 691 673 683Q698 679 689 665Q677 649 649 643Q621 637 495 678C486 681 487 706 496 706Z"/>
<path id="z31636d14" d="M502 863Q509 863 518 862Q576 849 699 842C709 842 722 825 715 818Q681 784 601 808Q547 818 502 826C490 828 490 863 502 863Z"/>
<defs>
	<clipPath id="z31636c1"><use xlink:href="#z31636d1"/></clipPath>
	<clipPath id="z31636c2"><use xlink:href="#z31636d2"/></clipPath>
	<clipPath id="z31636c3"><use xlink:href="#z31636d3"/></clipPath>
	<clipPath id="z31636c4"><use xlink:href="#z31636d4"/></clipPath>
	<clipPath id="z31636c5"><use xlink:href="#z31636d5"/></clipPath>
	<clipPath id="z31636c6"><use xlink:href="#z31636d6"/></clipPath>
	<clipPath id="z31636c7"><use xlink:href="#z31636d7"/></clipPath>
	<clipPath id="z31636c8"><use xlink:href="#z31636d8"/></clipPath>
	<clipPath id="z31636c9"><use xlink:href="#z31636d9"/></clipPath>
	<clipPath id="z31636c10"><use xlink:href="#z31636d10"/></clipPath>
	<clipPath id="z31636c11"><use xlink:href="#z31636d11"/></clipPath>
	<clipPath id="z31636c12"><use xlink:href="#z31636d12"/></clipPath>
	<clipPath id="z31636c13"><use xlink:href="#z31636d13"/></clipPath>
	<clipPath id="z31636c14"><use xlink:href="#z31636d14"/></clipPath>
</defs>
<path style="--d:1s;" pathLength="3333" clip-path="url(#z31636c1)" d="M300 110L334 150L298 239L166 394"/>
<path style="--d:2s;" pathLength="3333" clip-path="url(#z31636c2)" d="M337 224L523 200"/>
<path style="--d:3s;" pathLength="3333" clip-path="url(#z31636c3)" d="M323 292L416 370"/>
<path style="--d:4s;" pathLength="3333" clip-path="url(#z31636c4)" d="M600 66L636 114L579 242L504 327"/>
<path style="--d:5s;" pathLength="3333" clip-path="url(#z31636c5)" d="M630 206L836 175"/>
<path style="--d:6s;" pathLength="3333" clip-path="url(#z31636c6)" d="M644 274L721 321L747 363"/>
<path style="--d:7s;" pathLength="3333" clip-path="url(#z31636c7)" d="M235 423L331 483"/>
<path style="--d:8s;" pathLength="3333" clip-path="url(#z31636c8)" d="M171 547L258 638"/>
<path style="--d:9s;" pathLength="3333" clip-path="url(#z31636c9)" d="M243 909L233 820L375 599"/>
<path style="--d:10s;" pathLength="3333" clip-path="url(#z31636c10)" d="M636 410L584 409L516 517"/>
<path style="--d:11s;" pathLength="3333" clip-path="url(#z31636c11)" d="M418 508L465 571L484 893"/>
<path style="--d:12s;" pathLength="3333" clip-path="url(#z31636c12)" d="M485 533L741 499L792 536L770 834L747 878L705 839"/>
<path style="--d:13s;" pathLength="3333" clip-path="url(#z31636c13)" d="M499 698L638 664L686 672"/>
<path style="--d:14s;" pathLength="3333" clip-path="url(#z31636c14)" d="M511 855L708 825"/>
</svg>