<!--
AnimCJK 2016-2025 Copyright FM-SH - https://github.com/parsimonhi/animCJK
Derived from:
    MakeMeAHanzi project - https://github.com/skishore/makemeahanzi
    Arphic PL KaitiM GB font
    Arphic PL UKai font
You can redistribute and/or modify this file under the terms of the Arphic Public License
as published by Arphic Technology Co., Ltd.
You should have received a copy of this license along with this file.
If not, see http://ftp.gnu.org/non-gnu/chinese-fonts-truetype/LICENSE.
-->
<svg id="z31658" class="acjk" version="1.1" viewBox="0 0 1024 1024" xmlns="http://www.w3.org/2000/svg" xmlns:xlink="http://www.w3.org/1999/xlink">
<style>
<![CDATA[
@keyframes zk {
	to {
		stroke-dashoffset:0;
	}
}
svg.acjk path[clip-path] {
	--t:0.8s;
	animation:zk var(--t) linear forwards var(--d);
	stroke-dasharray:3337;
	stroke-dashoffset:3339;
	stroke-width:128;
	stroke-linecap:round;
	fill:none;
	stroke:#000;
}
svg.acjk path[id] {fill:#ccc;}
]]>
</style>
<path id="z31658d1" d="M344 170C350 157 358 146 366 136C372 128 370 119 361 112C334 91 313 83 300 88C293 89 291 94 293 103C307 181 263 236 216 289C181 329 192 331 236 304C282 274 310 232 332 192C340 177 340 177 344 170Z"/>
<path id="z31658d2" d="M332 192C352 200 381 200 417 192C443 186 469 180 498 175C512 172 520 169 523 167C527 162 529 157 527 153C522 146 512 142 497 139C467 131 446 158 344 170C336 171 324 189 332 192Z"/>
<path id="z31658d3" d="M357 254C389 285 411 300 425 300C431 299 437 294 439 284C440 277 436 268 429 258C419 244 395 235 358 231C353 230 350 234 350 241C349 245 352 249 357 254Z"/>
<path id="z31658d4" d="M613 137C621 122 629 108 638 96C642 89 641 81 632 74C610 57 590 50 575 54C568 55 567 60 569 69C579 112 559 168 510 234C504 241 499 247 496 254C491 262 493 264 502 262C510 259 520 254 530 246C562 217 584 185 603 154C610 143 610 143 613 137Z"/>
<path id="z31658d5" d="M603 154C627 168 656 170 690 163C766 145 809 137 816 132C821 127 821 122 819 118C814 111 803 105 787 102C770 98 753 102 736 109C693 124 659 132 613 137C607 138 597 151 603 154Z"/>
<path id="z31658d6" d="M643 239C689 270 716 287 723 287C727 286 732 283 734 276C735 268 732 257 727 244C719 225 688 212 635 205C628 204 623 204 620 206C617 207 615 212 618 218C619 223 629 229 643 239Z"/>
<path id="z31658d7" d="M391 358C431 383 454 397 462 397C468 396 472 392 473 384C474 375 471 362 465 348C457 331 428 322 381 320C372 319 366 319 364 321C360 323 360 328 363 335C365 341 375 348 391 358Z"/>
<path id="z31658d8" d="M577 302C564 320 545 343 520 372C515 376 514 382 519 385C523 387 528 385 533 383C581 354 617 333 642 324C652 320 657 316 655 310C652 301 645 290 634 278C623 267 611 259 598 258C589 256 584 263 585 275C585 283 583 292 577 302Z"/>
<path id="z31658d9" d="M344 442C335 438 320 435 300 432C277 428 282 444 288 456C309 496 325 549 338 616C341 635 347 652 360 665C377 683 379 687 385 658C386 649 386 639 385 631C377 586 365 527 357 475C355 463 355 446 344 442Z"/>
<path id="z31658d10" d="M638 630C642 638 648 643 656 643C664 642 671 637 676 627C684 617 693 586 708 537C717 504 734 478 758 459C770 448 770 438 760 429C748 418 727 405 695 388C674 376 588 405 344 442C332 444 347 481 357 475C361 469 396 462 461 451C491 446 491 446 506 443C557 433 596 426 623 424C659 421 671 434 667 464C654 538 645 582 639 596C635 607 631 621 638 630Z"/>
<path id="z31658d11" d="M537 548C557 544 578 541 599 539C613 537 618 530 613 523C606 514 595 508 579 505C568 502 555 503 541 507C502 517 502 517 483 522C457 528 433 534 411 540C400 542 398 552 414 558C426 562 439 562 483 556C519 551 519 551 537 548Z"/>
<path id="z31658d12" d="M534 641C570 636 605 632 638 630C649 630 650 598 639 596C627 593 592 597 535 608C500 613 500 613 483 616C448 620 415 625 385 631C376 633 376 658 385 658C403 659 453 650 483 648C517 643 517 643 534 641Z"/>
<path id="z31658d13" d="M534 755C612 747 709 747 825 751C844 751 864 752 882 753C896 753 906 750 910 744C914 735 911 725 899 716C859 683 821 674 786 681C721 693 637 706 534 717C500 720 500 720 483 722C384 731 277 741 163 752C147 753 144 759 156 773C165 783 177 790 191 795C205 799 219 801 232 798C336 772 420 766 483 760C517 757 517 757 534 755Z"/>
<path id="z31658d14" d="M488 926C490 940 494 950 499 957C502 961 506 964 511 962C519 957 525 935 530 900C532 879 534 831 534 755C534 730 534 730 534 717C534 691 533 666 534 641C535 619 535 619 535 608C535 589 534 569 537 548C540 521 540 521 541 507C545 460 553 461 506 443C492 438 455 437 461 451C474 476 483 494 483 522C483 545 483 545 483 556C483 596 483 596 483 616C483 637 483 637 483 648C483 697 483 697 483 722C483 747 483 747 483 760C483 814 480 871 488 926Z"/>
<defs>
	<clipPath id="z31658c1"><use xlink:href="#z31658d1"/></clipPath>
	<clipPath id="z31658c2"><use xlink:href="#z31658d2"/></clipPath>
	<clipPath id="z31658c3"><use xlink:href="#z31658d3"/></clipPath>
	<clipPath id="z31658c4"><use xlink:href="#z31658d4"/></clipPath>
	<clipPath id="z31658c5"><use xlink:href="#z31658d5"/></clipPath>
	<clipPath id="z31658c6"><use xlink:href="#z31658d6"/></clipPath>
	<clipPath id="z31658c7"><use xlink:href="#z31658d7"/></clipPath>
	<clipPath id="z31658c8"><use xlink:href="#z31658d8"/></clipPath>
	<clipPath id="z31658c9"><use xlink:href="#z31658d9"/></clipPath>
	<clipPath id="z31658c10"><use xlink:href="#z31658d10"/></clipPath>
	<clipPath id="z31658c11"><use xlink:href="#z31658d11"/></clipPath>
	<clipPath id="z31658c12"><use xlink:href="#z31658d12"/></clipPath>
	<clipPath id="z31658c13"><use xlink:href="#z31658d13"/></clipPath>
	<clipPath id="z31658c14"><use xlink:href="#z31658d14"/></clipPath>
</defs>
<path style="--d:1s;" pathLength="3333" clip-path="url(#z31658c1)" d="M301 94L332 130L313 179L203 316"/>
<path style="--d:2s;" pathLength="3333" clip-path="url(#z31658c2)" d="M337 187L521 156"/>
<path style="--d:3s;" pathLength="3333" clip-path="url(#z31658c3)" d="M359 239L430 290"/>
<path style="--d:4s;" pathLength="3333" clip-path="url(#z31658c4)" d="M575 59L605 97L501 256"/>
<path style="--d:5s;" pathLength="3333" clip-path="url(#z31658c5)" d="M607 149L814 119"/>
<path style="--d:6s;" pathLength="3333" clip-path="url(#z31658c6)" d="M622 211L730 276"/>
<path style="--d:7s;" pathLength="3333" clip-path="url(#z31658c7)" d="M367 329L450 363L464 390"/>
<path style="--d:8s;" pathLength="3333" clip-path="url(#z31658c8)" d="M595 264L616 306L524 380"/>
<path style="--d:9s;" pathLength="3333" clip-path="url(#z31658c9)" d="M292 440L328 472L373 673"/>
<path style="--d:10s;" pathLength="3333" clip-path="url(#z31658c10)" d="M346 449L687 416L717 453L649 636"/>
<path style="--d:11s;" pathLength="3333" clip-path="url(#z31658c11)" d="M409 546L609 528"/>
<path style="--d:12s;" pathLength="3333" clip-path="url(#z31658c12)" d="M380 644L644 613"/>
<path style="--d:13s;" pathLength="3333" clip-path="url(#z31658c13)" d="M156 760L214 773L798 714L907 730"/>
<path style="--d:14s;" pathLength="3333" clip-path="url(#z31658c14)" d="M468 446L512 494L509 956"/>
</svg>