<!--
AnimCJK 2016-2017 Copyright Francois Mizessyn, http://gooo.free.fr/animCJK/
Derived from:
    MakeMeAHanzi project - https://github.com/skishore/makemeahanzi
    Arphic PL KaitiM GB - https://apps.ubuntu.com/cat/applications/precise/fonts-arphic-gkai00mp/
    Arphic PL UKai - https://apps.ubuntu.com/cat/applications/fonts-arphic-ukai/
You can redistribute and/or modify this file under the terms of the Arphic Public License
as published by Arphic Technology Co., Ltd.
You should have received a copy of this license (the directory "APL") along with this file;
if not, see http://ftp.gnu.org/non-gnu/chinese-fonts-truetype/LICENSE.
-->
<svg id="z31665" class="acjk" version="1.1" viewBox="0 0 1024 1024" xmlns="http://www.w3.org/2000/svg" xmlns:xlink="http://www.w3.org/1999/xlink">
<style>
<![CDATA[
	@keyframes z31665k {
		from {
			stroke:#c00;
			stroke-dashoffset:3000;
		}
		75% {
			stroke:#c00;
			stroke-dashoffset:0;
		}
		to {
			stroke:#000;
		}
	}
	#z31665 path[clip-path] {
		animation:z31665k 1s linear both;
		stroke-dasharray:3000;
		stroke-width:128;
		stroke-linecap:round;
		fill:none;
	}
	#z31665 path[clip-path="url(#z31665c1)"] {animation-delay:1s;}
	#z31665 path[clip-path="url(#z31665c2)"] {animation-delay:2s;}
	#z31665 path[clip-path="url(#z31665c3)"] {animation-delay:3s;}
	#z31665 path[clip-path="url(#z31665c4)"] {animation-delay:4s;}
	#z31665 path[clip-path="url(#z31665c5)"] {animation-delay:5s;}
	#z31665 path[clip-path="url(#z31665c6)"] {animation-delay:6s;}
	#z31665 path[clip-path="url(#z31665c7)"] {animation-delay:7s;}
	#z31665 path[clip-path="url(#z31665c8)"] {animation-delay:8s;}
	#z31665 path[clip-path="url(#z31665c9)"] {animation-delay:9s;}
	#z31665 path[clip-path="url(#z31665c10)"] {animation-delay:10s;}
	#z31665 path[clip-path="url(#z31665c11)"] {animation-delay:11s;}
	#z31665 path[clip-path="url(#z31665c12)"] {animation-delay:12s;}
	#z31665 path[clip-path="url(#z31665c13)"] {animation-delay:13s;}
	#z31665 path[clip-path="url(#z31665c14)"] {animation-delay:14s;}
	#z31665 path[clip-path="url(#z31665c15)"] {animation-delay:15s;}
	#z31665 path {fill:#ccc;}
]]>
</style>
<g transform="scale(1,-1) translate(0,-900)">
	<path id="z31665d1" d="M341 734Q357 762 374 786Q384 798 370 811Q331 842 306 837Q296 836 298 822Q310 738 223 631Q211 627 185 587Q178 574 191 578Q207 581 228 597Q292 649 328 712L341 734Z"/>
	<path id="z31665d2" d="M328 712Q364 693 416 708Q509 729 520 734Q527 741 523 749Q516 759 489 765Q477 768 390 744Q368 740 341 734L328 712Z"/>
	<path id="z31665d3" d="M355 619Q376 603 399 584Q409 575 422 577Q429 578 433 588Q436 600 427 622Q418 643 349 655Q336 656 332 655Q328 651 330 641Q334 634 355 619Z"/>
	<path id="z31665d4" d="M633 755Q648 786 663 811Q670 824 656 837Q608 862 588 858Q578 854 581 840Q602 761 524 646Q514 636 492 600Q485 584 499 590Q515 594 534 613Q595 670 625 737L633 755Z"/>
	<path id="z31665d5" d="M625 737Q634 728 668 724Q687 723 820 759Q842 765 845 769Q852 776 848 785Q841 795 811 800Q790 803 706 772Q673 763 638 757Q634 757 633 755L625 737Z"/>
	<path id="z31665d6" d="M650 637Q678 618 709 595Q721 586 734 588Q741 589 745 600Q748 613 738 636Q726 663 641 676Q628 677 624 675Q620 671 622 661Q626 652 650 637Z"/>
	<path id="z31665d7" d="M354 402Q465 435 467 436Q474 443 471 450Q464 460 439 466Q412 470 358 449L311 433Q196 403 115 392Q84 386 106 372Q142 353 190 365Q239 377 291 387L354 402Z"/>
	<path id="z31665d8" d="M352 320Q352 360 354 402L358 449Q361 477 368 499Q375 511 373 522Q367 529 323 558Q304 571 287 559Q283 555 288 543Q310 509 311 433L310 323Q307 134 293 78Q281 27 301 -15Q301 -16 302 -18Q306 -31 313 -35Q319 -41 324 -34Q345 -21 347 32Q346 62 351 292L352 320Z"/>
	<path id="z31665d9" d="M291 387Q243 279 91 101Q85 91 96 90Q102 89 112 97Q233 190 310 323L310 391L291 387Z"/>
	<path id="z31665d10" d="M351 292Q366 283 426 236Q439 226 453 227Q462 228 465 240Q468 253 458 278Q446 308 363 320Q356 321 352 320L351 292Z"/>
	<path id="z31665d11" d="M564 477Q546 490 525 496Q518 497 511 490Q508 486 515 475Q554 384 530 196Q526 166 516 133Q509 108 514 91Q523 60 533 48Q543 35 553 48Q557 54 562 63L570 96Q577 138 578 223L578 250Q578 295 579 341L579 366Q580 424 583 445L564 477Z"/>
	<path id="z31665d12" d="M714 78Q745 38 768 0Q778 -18 788 -17Q804 -16 820 18Q833 48 834 118Q807 428 834 462Q844 475 834 485Q815 504 763 527Q745 536 730 527Q676 500 564 477L583 445Q593 446 723 475Q742 479 751 473Q781 443 763 105Q759 93 750 93L714 78Z"/>
	<path id="z31665d13" d="M579 341Q633 332 722 360Q723 361 724 361Q731 368 727 375Q720 384 697 389Q685 392 616 374Q598 370 579 366L579 341Z"/>
	<path id="z31665d14" d="M578 223Q593 219 673 230Q688 234 705 236Q721 239 723 241Q730 248 726 255Q720 264 697 270Q685 273 612 255Q596 252 578 250L578 223Z"/>
	<path id="z31665d15" d="M562 63Q563 63 568 63Q614 73 714 78L750 93Q746 102 724 116Q709 125 680 118Q620 105 570 96L562 63Z"/>
	<defs>
		<clipPath id="z31665c1"><use xlink:href="#z31665d1"/></clipPath>
		<clipPath id="z31665c2"><use xlink:href="#z31665d2"/></clipPath>
		<clipPath id="z31665c3"><use xlink:href="#z31665d3"/></clipPath>
		<clipPath id="z31665c4"><use xlink:href="#z31665d4"/></clipPath>
		<clipPath id="z31665c5"><use xlink:href="#z31665d5"/></clipPath>
		<clipPath id="z31665c6"><use xlink:href="#z31665d6"/></clipPath>
		<clipPath id="z31665c7"><use xlink:href="#z31665d7"/></clipPath>
		<clipPath id="z31665c8"><use xlink:href="#z31665d8"/></clipPath>
		<clipPath id="z31665c9"><use xlink:href="#z31665d9"/></clipPath>
		<clipPath id="z31665c10"><use xlink:href="#z31665d10"/></clipPath>
		<clipPath id="z31665c11"><use xlink:href="#z31665d11"/></clipPath>
		<clipPath id="z31665c12"><use xlink:href="#z31665d12"/></clipPath>
		<clipPath id="z31665c13"><use xlink:href="#z31665d13"/></clipPath>
		<clipPath id="z31665c14"><use xlink:href="#z31665d14"/></clipPath>
		<clipPath id="z31665c15"><use xlink:href="#z31665d15"/></clipPath>
	</defs>
	<path pathLength="2999" clip-path="url(#z31665c1)" d="M305 834L338 795L319 747L190 583"/>
	<path pathLength="2999" clip-path="url(#z31665c2)" d="M337 714L518 744"/>
	<path pathLength="2999" clip-path="url(#z31665c3)" d="M337 649L427 584"/>
	<path pathLength="2999" clip-path="url(#z31665c4)" d="M587 851L625 815L619 793L564 673L497 596"/>
	<path pathLength="2999" clip-path="url(#z31665c5)" d="M632 739L843 781"/>
	<path pathLength="2999" clip-path="url(#z31665c6)" d="M628 668L735 596"/>
	<path pathLength="2999" clip-path="url(#z31665c7)" d="M103 383L466 450"/>
	<path pathLength="2999" clip-path="url(#z31665c8)" d="M291 557L339 506L321 -33"/>
	<path pathLength="2999" clip-path="url(#z31665c9)" d="M305 384L235 250L96 98"/>
	<path pathLength="2999" clip-path="url(#z31665c10)" d="M359 314L454 234"/>
	<path pathLength="2999" clip-path="url(#z31665c11)" d="M518 490L556 438L544 51"/>
	<path pathLength="2999" clip-path="url(#z31665c12)" d="M574 471L745 504L799 465L796 82L762 32L720 71"/>
	<path pathLength="2999" clip-path="url(#z31665c13)" d="M584 348L724 373"/>
	<path pathLength="2999" clip-path="url(#z31665c14)" d="M583 230L719 251"/>
	<path pathLength="2999" clip-path="url(#z31665c15)" d="M569 69L743 96"/>
</g>
</svg>