<!--
AnimCJK 2016-2018 Copyright Francois Mizessyn, http://gooo.free.fr/animCJK/
Derived from:
    MakeMeAHanzi project - https://github.com/skishore/makemeahanzi
    Arphic PL KaitiM GB - https://apps.ubuntu.com/cat/applications/precise/fonts-arphic-gkai00mp/
    Arphic PL UKai - https://apps.ubuntu.com/cat/applications/fonts-arphic-ukai/
You can redistribute and/or modify this file under the terms of the Arphic Public License
as published by Arphic Technology Co., Ltd.
You should have received a copy of this license (the directory "APL") along with this file;
if not, see http://ftp.gnu.org/non-gnu/chinese-fonts-truetype/LICENSE.
-->
<svg id="z31672" class="acjk" version="1.1" viewBox="0 0 1024 1024" xmlns="http://www.w3.org/2000/svg" xmlns:xlink="http://www.w3.org/1999/xlink">
<style>
<![CDATA[
@keyframes z31672k {
	from {
		stroke:#ccc;
		stroke-dashoffset:3334;
	}
	1% {
		stroke:#c00;
		stroke-dashoffset:3334;
	}
	75% {
		stroke:#c00;
		stroke-dashoffset:0;
	}
	to {
		stroke:#000;
	}
}
#z31672 path[clip-path] {
	animation:z31672k 1s linear both;
	stroke-dasharray:3334;
	stroke-width:128;
	stroke-linecap:round;
	fill:none;
}
#z31672 path[clip-path="url(#z31672c1)"] {animation-delay:1s;}
#z31672 path[clip-path="url(#z31672c2)"] {animation-delay:2s;}
#z31672 path[clip-path="url(#z31672c3)"] {animation-delay:3s;}
#z31672 path[clip-path="url(#z31672c4)"] {animation-delay:4s;}
#z31672 path[clip-path="url(#z31672c5)"] {animation-delay:5s;}
#z31672 path[clip-path="url(#z31672c6)"] {animation-delay:6s;}
#z31672 path[clip-path="url(#z31672c7)"] {animation-delay:7s;}
#z31672 path[clip-path="url(#z31672c8)"] {animation-delay:8s;}
#z31672 path[clip-path="url(#z31672c9)"] {animation-delay:9s;}
#z31672 path[clip-path="url(#z31672c10)"] {animation-delay:10s;}
#z31672 path[clip-path="url(#z31672c11)"] {animation-delay:11s;}
#z31672 path[clip-path="url(#z31672c12)"] {animation-delay:12s;}
#z31672 path[clip-path="url(#z31672c13)"] {animation-delay:13s;}
#z31672 path[clip-path="url(#z31672c14)"] {animation-delay:14s;}
#z31672 path {fill:#ccc;}
]]>
</style>
<path id="z31672d1" d="M 339,166 C 346,151 355,137 364,125 370,116 368,107 358,100 332,80 310,73 294,77 287,78 284,84 287,93 298,141 282,199 231,264 228,267 216,278 200,305 194,313 197,316 207,314 215,311 226,306 239,296 277,263 306,227 327,189 Z"/>
<path id="z31672d2" d="M 327,189 C 351,201 379,202 412,195 436,189 462,185 490,180 502,177 509,175 511,174 516,169 518,164 515,159 510,152 499,146 482,142 472,139 441,149 387,158 L 339,166 Z"/>
<path id="z31672d3" d="M 347,268 C 356,276 364,287 374,299 380,306 388,309 397,309 401,309 405,305 409,299 411,292 412,280 408,265 404,250 382,239 345,231 336,229 331,228 328,230 325,231 324,236 325,242 325,248 333,256 347,268 Z"/>
<path id="z31672d4" d="M 616,146 C 627,127 637,110 647,95 651,87 651,77 642,71 615,51 593,45 580,49 573,50 571,55 573,64 583,110 565,164 518,227 506,242 496,252 492,261 487,269 490,271 499,270 507,268 517,263 529,253 560,225 585,197 604,166 Z"/>
<path id="z31672d5" d="M 604,166 C 632,180 663,182 696,176 769,160 808,152 811,150 815,145 817,140 815,135 811,127 799,122 782,118 763,113 745,117 727,124 691,135 654,141 616,146 Z"/>
<path id="z31672d6" d="M 656,245 C 672,253 687,264 705,276 713,281 722,282 731,281 735,280 739,276 741,268 742,259 738,247 731,233 726,223 715,215 698,212 658,204 633,203 627,209 624,211 624,216 627,223 629,229 639,236 656,245 Z"/>
<path id="z31672d7" d="M 527,399 C 543,395 561,392 580,389 602,385 614,380 618,378 624,373 626,368 623,363 618,356 607,349 590,345 571,339 553,341 535,349 534,349 534,349 534,350 L 471,367 C 454,371 381,379 357,382 334,384 330,392 347,403 368,417 402,420 448,412 456,410 464,410 474,409 Z"/>
<path id="z31672d8" d="M 517,498 C 519,464 522,430 527,399 L 534,350 C 534,347 535,344 536,341 537,334 540,328 542,324 544,317 539,308 527,301 507,289 489,283 475,280 466,278 459,279 454,285 449,289 449,296 455,305 463,317 468,327 469,335 469,345 470,355 471,367 L 474,409 C 476,437 477,468 477,502 Z"/>
<path id="z31672d9" d="M 570,526 C 618,521 725,520 892,520 906,520 916,517 919,511 923,502 919,492 907,483 870,454 838,443 811,449 758,459 692,473 612,485 L 534,496 C 530,496 522,497 517,498 L 477,502 C 370,512 256,526 134,540 119,541 117,549 128,561 137,571 149,578 162,582 176,586 190,586 202,583 302,556 400,542 496,533 Z"/>
<path id="z31672d10" d="M 469,612 C 489,595 557,538 570,526 L 612,485 C 649,448 680,413 713,387 720,381 722,370 720,359 714,336 706,319 697,308 688,297 679,290 668,287 657,284 652,290 651,306 650,310 652,316 652,325 651,359 613,418 534,496 L 496,533 C 481,546 410,604 398,614 L 372,634 C 371,634 370,634 370,635 291,691 204,745 108,796 103,798 99,801 98,806 96,809 98,812 102,813 124,815 181,797 267,750 328,716 365,691 381,680 Z"/>
<path id="z31672d11" d="M 398,614 C 385,610 376,609 371,611 367,613 366,618 370,626 370,628 371,630 372,634 L 381,680 C 383,750 381,801 375,832 366,866 373,897 395,923 401,931 407,931 414,924 422,914 426,901 426,887 L 427,853 C 427,851 428,849 428,847 428,814 429,786 430,762 L 430,733 C 430,693 435,648 434,647 Z"/>
<path id="z31672d12" d="M 583,879 C 599,899 614,918 626,938 632,948 638,953 645,953 655,952 664,941 673,921 682,898 687,872 684,844 679,807 672,754 667,686 665,667 670,651 680,638 685,629 685,623 680,617 669,605 647,593 616,579 604,573 595,574 586,579 551,596 501,606 469,612 445,616 405,616 397,613 L 429,643 434,647 C 440,647 487,639 576,625 588,623 597,624 603,630 613,639 619,710 619,842 619,847 617,857 613,860 Z"/>
<path id="z31672d13" d="M430 762Q509 753 569 748Q593 745 585 732Q575 717 550 711Q520 705 430 733L430 762 Z"/>
<path id="z31672d14" d="M 426,887 C 478,881 533,878 583,879 L 613,860 C 594,845 585,842 582,841 569,836 555,830 527,835 509,838 457,849 427,853 Z"/>
<defs>
	<clipPath id="z31672c1"><use xlink:href="#z31672d1"/></clipPath>
	<clipPath id="z31672c2"><use xlink:href="#z31672d2"/></clipPath>
	<clipPath id="z31672c3"><use xlink:href="#z31672d3"/></clipPath>
	<clipPath id="z31672c4"><use xlink:href="#z31672d4"/></clipPath>
	<clipPath id="z31672c5"><use xlink:href="#z31672d5"/></clipPath>
	<clipPath id="z31672c6"><use xlink:href="#z31672d6"/></clipPath>
	<clipPath id="z31672c7"><use xlink:href="#z31672d7"/></clipPath>
	<clipPath id="z31672c8"><use xlink:href="#z31672d8"/></clipPath>
	<clipPath id="z31672c9"><use xlink:href="#z31672d9"/></clipPath>
	<clipPath id="z31672c10"><use xlink:href="#z31672d10"/></clipPath>
	<clipPath id="z31672c11"><use xlink:href="#z31672d11"/></clipPath>
	<clipPath id="z31672c12"><use xlink:href="#z31672d12"/></clipPath>
	<clipPath id="z31672c13"><use xlink:href="#z31672d13"/></clipPath>
	<clipPath id="z31672c14"><use xlink:href="#z31672d14"/></clipPath>
</defs>
<path pathLength="3333" clip-path="url(#z31672c1)" d="M296 86L326 131L272 237L206 308"/>
<path pathLength="3333" clip-path="url(#z31672c2)" d="M335 186L510 162"/>
<path pathLength="3333" clip-path="url(#z31672c3)" d="M333 239L385 272L394 304"/>
<path pathLength="3333" clip-path="url(#z31672c4)" d="M579 54L612 92L565 190L498 266"/>
<path pathLength="3333" clip-path="url(#z31672c5)" d="M611 163L808 135"/>
<path pathLength="3333" clip-path="url(#z31672c6)" d="M632 213L736 270"/>
<path pathLength="3333" clip-path="url(#z31672c7)" d="M345 392L620 368"/>
<path pathLength="3333" clip-path="url(#z31672c8)" d="M458 290L505 329L489 499"/>
<path pathLength="3333" clip-path="url(#z31672c9)" d="M125 548L186 560L812 484L916 504"/>
<path pathLength="3333" clip-path="url(#z31672c10)" d="M662 290L681 366L524 537L335 685L106 807"/>
<path pathLength="3333" clip-path="url(#z31672c11)" d="M377 621L406 659L405 920"/>
<path pathLength="3333" clip-path="url(#z31672c12)" d="M 436,642 584,601 637,624 647,878 624,904 602,868"/>
<path pathLength="3333" clip-path="url(#z31672c13)" d="M435 754L582 735"/>
<path pathLength="3333" clip-path="url(#z31672c14)" d="M433 879L581 858"/>
</svg>