<!--
AnimCJK 2016-2017 Copyright Francois Mizessyn, http://gooo.free.fr/animCJK/
Derived from:
    MakeMeAHanzi project - https://github.com/skishore/makemeahanzi
    Arphic PL KaitiM GB - https://apps.ubuntu.com/cat/applications/precise/fonts-arphic-gkai00mp/
    Arphic PL UKai - https://apps.ubuntu.com/cat/applications/fonts-arphic-ukai/
You can redistribute and/or modify this file under the terms of the Arphic Public License
as published by Arphic Technology Co., Ltd.
You should have received a copy of this license (the directory "APL") along with this file;
if not, see http://ftp.gnu.org/non-gnu/chinese-fonts-truetype/LICENSE.
-->
<svg id="z31687" class="acjk" version="1.1" viewBox="0 0 1024 1024" xmlns="http://www.w3.org/2000/svg" xmlns:xlink="http://www.w3.org/1999/xlink">
<style>
<![CDATA[
	@keyframes z31687k {
		from {
			stroke:#c00;
			stroke-dashoffset:3000;
		}
		75% {
			stroke:#c00;
			stroke-dashoffset:0;
		}
		to {
			stroke:#000;
		}
	}
	#z31687 path[clip-path] {
		animation:z31687k 1s linear both;
		stroke-dasharray:3000;
		stroke-width:128;
		stroke-linecap:round;
		fill:none;
	}
	#z31687 path[clip-path="url(#z31687c1)"] {animation-delay:1s;}
	#z31687 path[clip-path="url(#z31687c2)"] {animation-delay:2s;}
	#z31687 path[clip-path="url(#z31687c3)"] {animation-delay:3s;}
	#z31687 path[clip-path="url(#z31687c4)"] {animation-delay:4s;}
	#z31687 path[clip-path="url(#z31687c5)"] {animation-delay:5s;}
	#z31687 path[clip-path="url(#z31687c6)"] {animation-delay:6s;}
	#z31687 path[clip-path="url(#z31687c7)"] {animation-delay:7s;}
	#z31687 path[clip-path="url(#z31687c8)"] {animation-delay:8s;}
	#z31687 path[clip-path="url(#z31687c9)"] {animation-delay:9s;}
	#z31687 path[clip-path="url(#z31687c10)"] {animation-delay:10s;}
	#z31687 path[clip-path="url(#z31687c11)"] {animation-delay:11s;}
	#z31687 path[clip-path="url(#z31687c12)"] {animation-delay:12s;}
	#z31687 path[clip-path="url(#z31687c13)"] {animation-delay:13s;}
	#z31687 path[clip-path="url(#z31687c14)"] {animation-delay:14s;}
	#z31687 path[clip-path="url(#z31687c15)"] {animation-delay:15s;}
	#z31687 path {fill:#ccc;}
]]>
</style>
<g transform="scale(1,-1) translate(0,-900)">
	<path id="z31687d1" d="M343 726Q358 750 373 770Q383 780 369 795Q332 825 307 823Q297 822 298 807Q307 716 209 610Q185 586 173 571Q166 558 179 561Q195 564 218 580Q287 632 326 698Q327 701 328 702L343 726Z"/>
	<path id="z31687d2" d="M328 702Q364 690 458 706Q473 709 490 712Q509 716 511 718Q520 725 515 733Q508 743 482 750Q467 753 387 734Q366 730 343 726L328 702Z"/>
	<path id="z31687d3" d="M346 637Q388 583 408 582Q418 581 425 596Q426 606 418 623Q411 636 392 643Q364 656 350 659Q343 660 342 651Q341 644 346 637Z"/>
	<path id="z31687d4" d="M613 751Q629 784 647 809Q656 821 642 833Q600 860 580 855Q570 852 573 839Q588 767 521 677Q514 677 492 639Q486 626 499 630Q542 639 599 726L613 751Z"/>
	<path id="z31687d5" d="M599 726Q644 711 684 723Q742 736 804 751Q832 758 836 762Q843 769 839 777Q832 787 805 794Q778 798 751 786Q720 774 685 765Q651 756 613 751L599 726Z"/>
	<path id="z31687d6" d="M646 637Q677 616 713 591Q725 581 738 584Q747 585 749 596Q752 609 742 632Q735 651 703 663Q628 681 620 675Q616 671 618 661Q622 652 646 637Z"/>
	<path id="z31687d7" d="M479 582Q500 566 523 545Q533 536 546 537Q553 538 557 548Q560 560 552 583Q548 596 523 607Q469 623 456 619Q452 615 454 605Q457 598 479 582Z"/>
	<path id="z31687d8" d="M663 417Q690 466 715 477Q731 493 719 511Q704 524 657 551Q641 558 620 552Q506 510 350 497L364 466Q376 466 391 470Q494 488 593 505Q618 511 629 500Q635 494 633 483Q624 449 615 421L663 417Z"/>
	<path id="z31687d9" d="M329 365Q344 347 381 353Q478 372 675 384Q685 385 687 393Q687 400 663 417L615 421Q461 390 338 381Q334 381 334 380L329 365Z"/>
	<path id="z31687d10" d="M301 279Q317 322 329 365L334 380Q341 405 348 428Q355 446 364 466L350 497Q314 533 295 528Q282 524 287 509Q300 487 285 416Q284 415 284 412Q257 274 207 183Q162 102 86 16Q80 10 78 5Q74 -5 84 -4Q117 -4 201 94Q211 109 223 123Q271 195 292 255L301 279Z"/>
	<path id="z31687d11" d="M335 269Q316 279 301 279L292 255Q317 201 295 96Q277 38 305 3Q311 -9 320 -3Q347 18 348 120Q348 205 352 231L335 269Z"/>
	<path id="z31687d12" d="M598 283Q653 290 718 292Q737 291 745 279Q752 272 747 258Q747 80 735 55Q731 45 719 48Q686 52 651 59Q624 60 644 44Q714 -5 745 -42Q757 -55 769 -44Q785 -28 793 -2Q803 25 803 175Q802 232 819 259Q832 278 827 286Q820 298 773 328Q755 341 741 336Q714 326 666 318Q482 299 413 283Q370 274 335 269L352 231Q359 232 366 234Q391 244 428 253L460 260Q500 275 556 278L598 283Z"/>
	<path id="z31687d13" d="M610 146Q647 152 685 154Q707 155 700 169Q691 182 668 189Q647 193 613 186L567 178Q524 171 483 164L444 157Q410 154 380 148Q364 145 382 130Q397 118 427 122Q436 123 445 124L483 129Q526 136 567 140L610 146Z"/>
	<path id="z31687d14" d="M428 253Q435 246 444 157L445 124Q446 111 446 93Q445 65 456 44Q468 23 474 35Q483 51 483 129L483 164Q483 219 485 232Q486 244 483 249Q477 253 460 260L428 253Z"/>
	<path id="z31687d15" d="M569 40Q572 22 576 14Q580 10 586 11Q595 15 604 60Q604 63 610 146L613 186Q614 228 622 252Q625 265 615 272Q605 279 598 283L556 278Q557 278 558 276Q559 272 562 269Q566 260 567 178L567 140Q567 65 569 40Z"/>
	<defs>
		<clipPath id="z31687c1"><use xlink:href="#z31687d1"/></clipPath>
		<clipPath id="z31687c2"><use xlink:href="#z31687d2"/></clipPath>
		<clipPath id="z31687c3"><use xlink:href="#z31687d3"/></clipPath>
		<clipPath id="z31687c4"><use xlink:href="#z31687d4"/></clipPath>
		<clipPath id="z31687c5"><use xlink:href="#z31687d5"/></clipPath>
		<clipPath id="z31687c6"><use xlink:href="#z31687d6"/></clipPath>
		<clipPath id="z31687c7"><use xlink:href="#z31687d7"/></clipPath>
		<clipPath id="z31687c8"><use xlink:href="#z31687d8"/></clipPath>
		<clipPath id="z31687c9"><use xlink:href="#z31687d9"/></clipPath>
		<clipPath id="z31687c10"><use xlink:href="#z31687d10"/></clipPath>
		<clipPath id="z31687c11"><use xlink:href="#z31687d11"/></clipPath>
		<clipPath id="z31687c12"><use xlink:href="#z31687d12"/></clipPath>
		<clipPath id="z31687c13"><use xlink:href="#z31687d13"/></clipPath>
		<clipPath id="z31687c14"><use xlink:href="#z31687d14"/></clipPath>
		<clipPath id="z31687c15"><use xlink:href="#z31687d15"/></clipPath>
	</defs>
	<path pathLength="2999" clip-path="url(#z31687c1)" d="M306 813L336 771L309 717L180 566"/>
	<path pathLength="2999" clip-path="url(#z31687c2)" d="M335 706L510 728"/>
	<path pathLength="2999" clip-path="url(#z31687c3)" d="M350 649L416 589"/>
	<path pathLength="2999" clip-path="url(#z31687c4)" d="M581 850L611 802L553 693L497 638"/>
	<path pathLength="2999" clip-path="url(#z31687c5)" d="M610 728L835 776"/>
	<path pathLength="2999" clip-path="url(#z31687c6)" d="M625 667L705 631L741 588"/>
	<path pathLength="2999" clip-path="url(#z31687c7)" d="M461 612L552 545"/>
	<path pathLength="2999" clip-path="url(#z31687c8)" d="M359 494L638 528L678 493L627 421"/>
	<path pathLength="2999" clip-path="url(#z31687c9)" d="M334 367L680 395"/>
	<path pathLength="2999" clip-path="url(#z31687c10)" d="M293 521L327 464L255 228L183 105L83 3"/>
	<path pathLength="2999" clip-path="url(#z31687c11)" d="M305 272L327 226L318 0"/>
	<path pathLength="2999" clip-path="url(#z31687c12)" d="M344 266L754 308L788 273L761 23L744 0L641 51"/>
	<path pathLength="2999" clip-path="url(#z31687c13)" d="M383 141L693 165"/>
	<path pathLength="2999" clip-path="url(#z31687c14)" d="M435 250L461 224L467 40"/>
	<path pathLength="2999" clip-path="url(#z31687c15)" d="M566 276L594 244L582 15"/>
</g>
</svg>