<!--
AnimCJK 2016-2019 Copyright Francois Mizessyn - https://github.com/parsimonhi/animCJK
Derived from:
    MakeMeAHanzi project - https://github.com/skishore/makemeahanzi
    Arphic PL KaitiM GB font
    Arphic PL UKai font
You can redistribute and/or modify this file under the terms of the Arphic Public License
as published by Arphic Technology Co., Ltd.
You should have received a copy of this license along with this file.
If not, see http://ftp.gnu.org/non-gnu/chinese-fonts-truetype/LICENSE.
-->
<svg id="z31753" class="acjk" version="1.1" viewBox="0 0 1024 1024" xmlns="http://www.w3.org/2000/svg" xmlns:xlink="http://www.w3.org/1999/xlink">
<style>
<![CDATA[
@keyframes zk {
	to {
		stroke-dashoffset:0;
	}
}
svg.acjk path[clip-path] {
	--t:0.8s;
	animation:zk var(--t) linear forwards var(--d);
	stroke-dasharray:3337;
	stroke-dashoffset:3339;
	stroke-width:128;
	stroke-linecap:round;
	fill:none;
	stroke:#000;
}
svg.acjk path[id] {fill:#ccc;}
]]>
</style>
<path id="z31753d1" d="M341 167Q354 145 369 127Q379 115 365 101Q328 71 303 73Q293 74 294 88Q301 172 212 275Q202 279 173 317Q166 330 179 327Q233 318 306 221Q318 197 324 192C335 175 335 175 341 167Z"/>
<path id="z31753d2" d="M324 192Q366 210 404 200Q503 185 510 182Q519 175 514 167Q508 157 482 148Q464 145 384 161Q363 162 341 167C331 169 315 188 324 192Z"/>
<path id="z31753d3" d="M351 272Q405 321 413 322Q420 321 425 311Q429 301 423 277Q417 255 349 235Q337 232 332 234Q328 237 329 246Q330 255 351 272Z"/>
<path id="z31753d4" d="M654 146Q673 118 694 94Q704 84 692 70Q655 37 633 39Q623 40 624 54Q633 129 518 244Q511 250 506 257Q497 270 511 267Q562 261 637 170C648 154 648 154 654 146Z"/>
<path id="z31753d5" d="M637 170Q676 186 720 176Q765 167 811 158Q832 154 835 150Q842 143 839 135Q832 125 806 118Q778 112 751 124Q715 134 654 146C644 148 628 166 637 170Z"/>
<path id="z31753d6" d="M664 249Q724 292 734 292Q743 291 745 280Q748 268 739 246Q727 221 656 213Q644 212 640 213Q636 217 638 227Q642 234 664 249Z"/>
<path id="z31753d7" d="M458 436Q473 414 487 396Q494 386 483 375Q447 350 429 352Q420 355 422 366Q432 420 383 482Q370 497 365 506Q358 519 370 515Q403 511 449 450C455 441 455 441 458 436Z"/>
<path id="z31753d8" d="M605 451Q734 418 735 418Q742 411 739 403Q732 393 706 386Q682 380 609 407C577 415 577 415 561 419Q515 428 464 434Q458 434 458 436C453 438 445 447 449 450Q483 484 560 460Q561 460 563 460C591 454 591 454 605 451Z"/>
<path id="z31753d9" d="M599 521Q602 484 605 451C608 422 608 422 609 407Q609 398 623 332Q626 323 610 311Q582 296 562 292Q549 289 542 297Q536 303 542 315Q557 334 561 419C562 446 562 446 563 460Q563 491 563 527C563 539 599 533 599 521Z"/>
<path id="z31753d10" d="M563 527Q457 543 334 564Q316 565 330 581Q343 593 359 597Q378 601 393 597Q585 540 836 540C837 540 837 540 838 540Q856 539 860 531Q864 521 849 509Q797 473 731 493Q676 505 599 521C575 525 575 525 563 527Z"/>
<path id="z31753d11" d="M473 633Q463 629 439 624Q427 620 424 625Q420 631 426 645Q447 687 459 755Q462 776 474 789Q489 810 494 795Q497 788 498 778C497 757 497 757 496 746Q487 683 487 661C487 651 483 637 473 633Z"/>
<path id="z31753d12" d="M690 726Q708 672 733 658Q748 642 735 625Q669 577 615 600Q549 618 473 633C463 635 477 663 487 661Q511 655 625 635Q641 632 647 639Q654 643 653 657Q649 691 642 721C639 737 684 741 690 726Z"/>
<path id="z31753d13" d="M498 778Q507 779 519 778Q577 768 703 762Q713 761 715 752Q715 745 690 726C677 716 658 721 642 721Q641 720 639 721Q560 737 496 746C486 748 487 778 498 778Z"/>
<path id="z31753d14" d="M228 401Q241 414 254 431Q266 444 281 444Q291 444 297 431Q301 418 294 389Q290 376 269 366Q221 348 204 353Q200 357 200 369Q203 379 228 401Z"/>
<path id="z31753d15" d="M271 762Q286 734 282 710Q278 697 256 675Q234 647 263 593Q278 571 291 557Q312 538 291 523Q269 510 234 497Q210 485 176 520Q109 562 90 563Q83 563 81 568Q80 574 89 577Q128 589 189 559Q198 555 208 565Q223 578 211 600Q201 615 196 636Q193 658 210 679Q244 730 238 761C236 772 266 772 271 762Z"/>
<path id="z31753d16" d="M238 761Q207 760 177 766Q125 779 88 779Q75 778 76 789Q79 799 114 823Q130 833 158 817Q201 784 279 794Q396 816 567 894Q694 954 747 940Q754 937 764 934Q852 903 914 864Q920 861 918 856Q917 852 902 852Q616 868 386 793Q313 763 271 762C249 761 249 761 238 761Z"/>
<defs>
	<clipPath id="z31753c1"><use xlink:href="#z31753d1"/></clipPath>
	<clipPath id="z31753c2"><use xlink:href="#z31753d2"/></clipPath>
	<clipPath id="z31753c3"><use xlink:href="#z31753d3"/></clipPath>
	<clipPath id="z31753c4"><use xlink:href="#z31753d4"/></clipPath>
	<clipPath id="z31753c5"><use xlink:href="#z31753d5"/></clipPath>
	<clipPath id="z31753c6"><use xlink:href="#z31753d6"/></clipPath>
	<clipPath id="z31753c7"><use xlink:href="#z31753d7"/></clipPath>
	<clipPath id="z31753c8"><use xlink:href="#z31753d8"/></clipPath>
	<clipPath id="z31753c9"><use xlink:href="#z31753d9"/></clipPath>
	<clipPath id="z31753c10"><use xlink:href="#z31753d10"/></clipPath>
	<clipPath id="z31753c11"><use xlink:href="#z31753d11"/></clipPath>
	<clipPath id="z31753c12"><use xlink:href="#z31753d12"/></clipPath>
	<clipPath id="z31753c13"><use xlink:href="#z31753d13"/></clipPath>
	<clipPath id="z31753c14"><use xlink:href="#z31753d14"/></clipPath>
	<clipPath id="z31753c15"><use xlink:href="#z31753d15"/></clipPath>
	<clipPath id="z31753c16"><use xlink:href="#z31753d16"/></clipPath>
</defs>
<path style="--d:1s;" pathLength="3333" clip-path="url(#z31753c1)" d="M303 80L332 122L316 155L258 249L178 321"/>
<path style="--d:2s;" pathLength="3333" clip-path="url(#z31753c2)" d="M331 188L511 169"/>
<path style="--d:3s;" pathLength="3333" clip-path="url(#z31753c3)" d="M335 243L396 279L416 317"/>
<path style="--d:4s;" pathLength="3333" clip-path="url(#z31753c4)" d="M633 43L659 91L590 193L510 258"/>
<path style="--d:5s;" pathLength="3333" clip-path="url(#z31753c5)" d="M646 167L835 143"/>
<path style="--d:6s;" pathLength="3333" clip-path="url(#z31753c6)" d="M644 220L738 285"/>
<path style="--d:7s;" pathLength="3333" clip-path="url(#z31753c7)" d="M429 361L455 400L369 509"/>
<path style="--d:8s;" pathLength="3333" clip-path="url(#z31753c8)" d="M454 446L736 408"/>
<path style="--d:9s;" pathLength="3333" clip-path="url(#z31753c9)" d="M547 301L588 338L573 523"/>
<path style="--d:10s;" pathLength="3333" clip-path="url(#z31753c10)" d="M333 572L758 514L855 519"/>
<path style="--d:11s;" pathLength="3333" clip-path="url(#z31753c11)" d="M429 628L463 668L485 793"/>
<path style="--d:12s;" pathLength="3333" clip-path="url(#z31753c12)" d="M480 634L671 620L697 646L658 722"/>
<path style="--d:13s;" pathLength="3333" clip-path="url(#z31753c13)" d="M505 770L709 748"/>
<path style="--d:14s;" pathLength="3333" clip-path="url(#z31753c14)" d="M207 358L290 434"/>
<path style="--d:15s;" pathLength="3333" clip-path="url(#z31753c15)" d="M90 570L210 526L254 550L221 637L258 719L251 761"/>
<path style="--d:16s;" pathLength="3333" clip-path="url(#z31753c16)" d="M82 787L137 800L291 780L688 895L912 859"/>
</svg>