<!--
AnimCJK 2016-2018 Copyright Francois Mizessyn, http://gooo.free.fr/animCJK/
Derived from:
    MakeMeAHanzi project - https://github.com/skishore/makemeahanzi
    Arphic PL KaitiM GB - https://apps.ubuntu.com/cat/applications/precise/fonts-arphic-gkai00mp/
    Arphic PL UKai - https://apps.ubuntu.com/cat/applications/fonts-arphic-ukai/
You can redistribute and/or modify this file under the terms of the Arphic Public License
as published by Arphic Technology Co., Ltd.
You should have received a copy of this license (the directory "APL") along with this file;
if not, see http://ftp.gnu.org/non-gnu/chinese-fonts-truetype/LICENSE.
-->
<svg id="z31776" class="acjk" version="1.1" viewBox="0 0 1024 1024" xmlns="http://www.w3.org/2000/svg" xmlns:xlink="http://www.w3.org/1999/xlink">
<style>
<![CDATA[
@keyframes z31776k {
	from {
		stroke:#ccc;
		stroke-dashoffset:3334;
	}
	1% {
		stroke:#c00;
		stroke-dashoffset:3334;
	}
	75% {
		stroke:#c00;
		stroke-dashoffset:0;
	}
	to {
		stroke:#000;
	}
}
#z31776 path[clip-path] {
	animation:z31776k 1s linear both;
	stroke-dasharray:3334;
	stroke-width:128;
	stroke-linecap:round;
	fill:none;
}
#z31776 path[clip-path="url(#z31776c1)"] {animation-delay:1s;}
#z31776 path[clip-path="url(#z31776c2)"] {animation-delay:2s;}
#z31776 path[clip-path="url(#z31776c3)"] {animation-delay:3s;}
#z31776 path[clip-path="url(#z31776c4)"] {animation-delay:4s;}
#z31776 path[clip-path="url(#z31776c5)"] {animation-delay:5s;}
#z31776 path[clip-path="url(#z31776c6)"] {animation-delay:6s;}
#z31776 path[clip-path="url(#z31776c7)"] {animation-delay:7s;}
#z31776 path[clip-path="url(#z31776c8)"] {animation-delay:8s;}
#z31776 path[clip-path="url(#z31776c9)"] {animation-delay:9s;}
#z31776 path[clip-path="url(#z31776c10)"] {animation-delay:10s;}
#z31776 path[clip-path="url(#z31776c11)"] {animation-delay:11s;}
#z31776 path[clip-path="url(#z31776c12)"] {animation-delay:12s;}
#z31776 path[clip-path="url(#z31776c13)"] {animation-delay:13s;}
#z31776 path[clip-path="url(#z31776c14)"] {animation-delay:14s;}
#z31776 path[clip-path="url(#z31776c15)"] {animation-delay:15s;}
#z31776 path[clip-path="url(#z31776c16)"] {animation-delay:16s;}
#z31776 path[clip-path="url(#z31776c17)"] {animation-delay:17s;}
#z31776 path[clip-path="url(#z31776c18)"] {animation-delay:18s;}
#z31776 path {fill:#ccc;}
]]>
</style>
<path id="z31776d1" d="M 345,176 C 354,161 362,148 372,137 378,130 378,121 369,113 345,92 325,84 309,86 302,86 299,91 300,101 305,159 279,222 216,288 201,303 187,314 181,325 175,333 178,336 187,335 197,332 210,327 224,317 268,284 303,247 327,205 328,202 329,199 331,197 Z"/>
<path id="z31776d2" d="M331 197Q371 215 414 203Q451 196 491 187Q509 183 512 180Q519 173 515 166Q508 156 483 150Q458 146 432 157Q402 167 345 176L331 197 Z"/>
<path id="z31776d3" d="M 373,261 C 406,285 425,298 432,298 436,297 440,294 442,288 443,281 440,271 436,258 433,249 424,242 410,238 378,228 358,226 352,230 349,231 348,235 350,241 352,246 360,251 373,261 Z"/>
<path id="z31776d4" d="M 641,142 C 649,127 657,114 666,102 670,95 670,86 661,79 634,59 612,53 601,57 594,58 593,63 595,72 603,115 585,171 538,236 536,238 524,248 508,274 502,282 506,284 515,282 523,279 533,274 545,265 581,235 608,201 628,166 Z"/>
<path id="z31776d5" d="M628 166Q673 182 712 173Q829 152 839 146Q846 139 843 131Q836 121 810 113Q782 109 755 119Q728 126 700 133Q672 139 641 142L628 166 Z"/>
<path id="z31776d6" d="M 648,241 C 688,269 711,284 718,284 724,283 727,279 729,272 730,263 729,252 723,238 715,221 687,210 640,205 632,204 626,203 624,205 620,207 619,212 622,219 623,224 633,230 648,241 Z"/>
<path id="z31776d7" d="M 647,331 C 588,349 445,374 258,402 253,403 243,405 245,412 248,421 259,426 274,431 316,445 337,431 481,406 525,398 740,357 758,350 764,348 767,342 761,335 753,326 731,313 707,313 687,313 670,324 647,331 Z"/>
<path id="z31776d8" d="M 283,471 C 278,472 274,475 272,479 270,487 278,492 281,499 298,532 306,592 309,629 311,654 313,681 333,699 338,703 345,707 350,702 358,694 358,681 358,671 357,654 355,638 353,622 350,594 348,543 345,515 L 319,486 C 307,479 296,473 283,471 Z"/>
<path id="z31776d9" d="M 701,413 C 678,414 656,420 634,424 587,432 424,468 389,474 364,478 343,482 319,486 L 345,515 C 383,502 597,463 666,456 675,455 686,451 693,457 700,462 698,473 698,481 695,518 679,560 669,599 651,670 682,656 696,638 705,626 713,613 719,599 730,575 739,530 756,508 764,498 770,490 779,481 786,475 786,464 780,458 762,440 741,427 719,415 713,413 707,413 701,413 Z"/>
<path id="z31776d10" d="M 579,509 C 559,509 540,515 521,520 493,529 464,536 435,543 426,546 415,546 407,552 401,556 408,563 412,567 422,575 436,572 447,570 481,564 515,562 549,554 568,549 588,545 608,542 613,541 620,535 616,529 609,516 593,509 579,509 Z"/>
<path id="z31776d11" d="M 576,591 C 557,591 538,596 519,601 487,609 456,617 424,625 417,626 407,633 405,641 403,647 410,647 416,648 441,649 465,646 490,644 510,642 529,639 548,634 565,630 584,627 602,624 608,623 615,618 612,611 606,599 591,591 579,591 Z"/>
<path id="z31776d12" d="M 478,293 C 470,294 461,295 455,301 450,307 456,315 460,321 474,343 479,373 482,399 485,428 486,459 487,488 487,528 487,574 485,613 483,634 481,664 488,684 490,691 490,702 499,704 507,706 512,695 514,688 521,667 523,637 523,615 524,579 526,538 527,503 527,485 529,468 529,450 528,344 547,330 529,316 520,309 512,302 500,297 495,296 483,293 478,293 Z"/>
<path id="z31776d13" d="M 779,234 C 773,235 772,243 772,249 771,259 780,267 787,274 804,288 816,305 829,322 837,329 849,334 860,330 870,323 871,310 870,299 870,288 870,276 862,268 846,252 824,246 804,239 796,237 788,234 779,234 Z"/>
<path id="z31776d14" d="M328 735Q316 729 282 725Q272 724 268 728Q264 734 272 748Q300 793 321 870Q324 883 331 895L363 893Q363 878 358 860Q343 800 337 772L328 735 Z"/>
<path id="z31776d15" d="M730 862Q758 789 781 761Q791 751 788 740Q782 724 727 695Q712 686 699 690Q530 718 328 735L337 772Q394 760 424 757L449 754Q503 744 561 738L601 734Q674 722 695 736Q699 739 700 752Q693 798 675 868L730 862 Z"/>
<path id="z31776d16" d="M476 885Q485 842 458 774Q457 762 449 754L424 757Q427 772 430 804Q430 858 458 887L476 885 Z"/>
<path id="z31776d17" d="M573 877Q613 792 625 776Q635 764 628 756Q621 746 601 734L561 738Q574 765 548 866Q545 873 544 880L573 877 Z"/>
<path id="z31776d18" d="M331 895Q246 898 155 905Q133 906 148 925Q161 941 181 948Q203 955 221 951Q458 900 906 923Q927 924 933 915Q940 902 923 887Q866 839 798 852Q767 856 730 862L675 868Q627 871 573 877L544 880Q534 879 525 881Q500 882 476 885L458 887Q412 888 363 893L331 895 Z"/>
<defs>
	<clipPath id="z31776c1"><use xlink:href="#z31776d1"/></clipPath>
	<clipPath id="z31776c2"><use xlink:href="#z31776d2"/></clipPath>
	<clipPath id="z31776c3"><use xlink:href="#z31776d3"/></clipPath>
	<clipPath id="z31776c4"><use xlink:href="#z31776d4"/></clipPath>
	<clipPath id="z31776c5"><use xlink:href="#z31776d5"/></clipPath>
	<clipPath id="z31776c6"><use xlink:href="#z31776d6"/></clipPath>
	<clipPath id="z31776c7"><use xlink:href="#z31776d7"/></clipPath>
	<clipPath id="z31776c8"><use xlink:href="#z31776d8"/></clipPath>
	<clipPath id="z31776c9"><use xlink:href="#z31776d9"/></clipPath>
	<clipPath id="z31776c10"><use xlink:href="#z31776d10"/></clipPath>
	<clipPath id="z31776c11"><use xlink:href="#z31776d11"/></clipPath>
	<clipPath id="z31776c12"><use xlink:href="#z31776d12"/></clipPath>
	<clipPath id="z31776c13"><use xlink:href="#z31776d13"/></clipPath>
	<clipPath id="z31776c14"><use xlink:href="#z31776d14"/></clipPath>
	<clipPath id="z31776c15"><use xlink:href="#z31776d15"/></clipPath>
	<clipPath id="z31776c16"><use xlink:href="#z31776d16"/></clipPath>
	<clipPath id="z31776c17"><use xlink:href="#z31776d17"/></clipPath>
	<clipPath id="z31776c18"><use xlink:href="#z31776d18"/></clipPath>
</defs>
<path pathLength="3333" clip-path="url(#z31776c1)" d="M309 94L337 132L303 202L187 327"/>
<path pathLength="3333" clip-path="url(#z31776c2)" d="M340 194L511 173"/>
<path pathLength="3333" clip-path="url(#z31776c3)" d="M354 235L433 291"/>
<path pathLength="3333" clip-path="url(#z31776c4)" d="M602 60L632 99L584 198L515 276"/>
<path pathLength="3333" clip-path="url(#z31776c5)" d="M637 162L837 132"/>
<path pathLength="3333" clip-path="url(#z31776c6)" d="M 628,212 722,277"/>
<path pathLength="3333" clip-path="url(#z31776c7)" d="M 258,412 743,340.2"/>
<path pathLength="3333" clip-path="url(#z31776c8)" d="M 280,482 318,521 350,698"/>
<path pathLength="3333" clip-path="url(#z31776c9)" d="M 328,489 711,439 739,475 677,644"/>
<path pathLength="3333" clip-path="url(#z31776c10)" d="M 412,556 606,527.1"/>
<path pathLength="3333" clip-path="url(#z31776c11)" d="M 413,635 602,613.8"/>
<path pathLength="3333" clip-path="url(#z31776c12)" d="M 462,304 505,325 501,693"/>
<path pathLength="3333" clip-path="url(#z31776c13)" d="M 782,247 834,282 854,325"/>
<path pathLength="3333" clip-path="url(#z31776c14)" d="M274 732L306 754L353 889"/>
<path pathLength="3333" clip-path="url(#z31776c15)" d="M336 740L707 714L743 756L706 853L683 861"/>
<path pathLength="3333" clip-path="url(#z31776c16)" d="M431 760L467 882"/>
<path pathLength="3333" clip-path="url(#z31776c17)" d="M570 744L596 778L551 873"/>
<path pathLength="3333" clip-path="url(#z31776c18)" d="M149 913L218 926L817 884L931 909"/>
</svg>