<!--
AnimCJK 2016-2017 Copyright Francois Mizessyn, http://gooo.free.fr/animCJK/
Derived from:
    MakeMeAHanzi project - https://github.com/skishore/makemeahanzi
    Arphic PL KaitiM GB - https://apps.ubuntu.com/cat/applications/precise/fonts-arphic-gkai00mp/
    Arphic PL UKai - https://apps.ubuntu.com/cat/applications/fonts-arphic-ukai/
You can redistribute and/or modify this file under the terms of the Arphic Public License
as published by Arphic Technology Co., Ltd.
You should have received a copy of this license (the directory "APL") along with this file;
if not, see http://ftp.gnu.org/non-gnu/chinese-fonts-truetype/LICENSE.
-->
<svg id="z31961" class="acjk" version="1.1" viewBox="0 0 1024 1024" xmlns="http://www.w3.org/2000/svg" xmlns:xlink="http://www.w3.org/1999/xlink">
<style>
<![CDATA[
	@keyframes z31961k {
		from {
			stroke:#c00;
			stroke-dashoffset:3000;
		}
		75% {
			stroke:#c00;
			stroke-dashoffset:0;
		}
		to {
			stroke:#000;
		}
	}
	#z31961 path[clip-path] {
		animation:z31961k 1s linear both;
		stroke-dasharray:3000;
		stroke-width:128;
		stroke-linecap:round;
		fill:none;
	}
	#z31961 path[clip-path="url(#z31961c1)"] {animation-delay:1s;}
	#z31961 path[clip-path="url(#z31961c2)"] {animation-delay:2s;}
	#z31961 path[clip-path="url(#z31961c3)"] {animation-delay:3s;}
	#z31961 path[clip-path="url(#z31961c4)"] {animation-delay:4s;}
	#z31961 path[clip-path="url(#z31961c5)"] {animation-delay:5s;}
	#z31961 path[clip-path="url(#z31961c6)"] {animation-delay:6s;}
	#z31961 path[clip-path="url(#z31961c7)"] {animation-delay:7s;}
	#z31961 path[clip-path="url(#z31961c8)"] {animation-delay:8s;}
	#z31961 path[clip-path="url(#z31961c9)"] {animation-delay:9s;}
	#z31961 path[clip-path="url(#z31961c10)"] {animation-delay:10s;}
	#z31961 path[clip-path="url(#z31961c11)"] {animation-delay:11s;}
	#z31961 path[clip-path="url(#z31961c12)"] {animation-delay:12s;}
	#z31961 path[clip-path="url(#z31961c13)"] {animation-delay:13s;}
	#z31961 path[clip-path="url(#z31961c14)"] {animation-delay:14s;}
	#z31961 path[clip-path="url(#z31961c15)"] {animation-delay:15s;}
	#z31961 path[clip-path="url(#z31961c16)"] {animation-delay:16s;}
	#z31961 path {fill:#ccc;}
]]>
</style>
<g transform="scale(1,-1) translate(0,-900)">
	<path id="z31961d1" d="M124 600Q157 537 178 519Q190 513 200 522Q207 531 209 544Q210 565 199 579Q183 600 143 627Q131 634 123 634Q117 634 117 624Q116 614 124 600Z"/>
	<path id="z31961d2" d="M371 648Q356 614 322 558Q318 552 323 547Q329 547 334 551Q397 615 429 641Q442 647 437 654Q430 666 414 677Q398 689 381 687Q369 686 373 671Q376 661 371 648Z"/>
	<path id="z31961d3" d="M299 447Q333 457 376 465Q391 468 391 475Q391 487 374 493Q347 505 300 487L258 475Q114 441 86 435Q74 434 72 426Q71 416 84 407Q115 388 163 402Q203 420 237 429L299 447Z"/>
	<path id="z31961d4" d="M297 349Q297 395 299 447L300 487Q300 655 321 730Q336 755 306 775Q291 787 266 801Q244 817 223 803Q219 799 225 783Q256 734 258 686Q259 614 260 533Q259 505 258 475L254 356Q250 178 231 108Q213 57 240 -10Q247 -28 255 -31Q261 -38 268 -29Q295 -13 295 50Q294 86 296 323L297 349Z"/>
	<path id="z31961d5" d="M237 429Q212 368 179 313Q139 249 43 129Q37 119 48 118Q54 117 63 125Q180 222 254 356L256 434L237 429Z"/>
	<path id="z31961d6" d="M296 323Q357 262 365 260L366 260Q373 260 378 269Q382 279 377 299Q374 315 352 328Q328 338 303 348Q299 349 297 349L296 323Z"/>
	<path id="z31961d7" d="M603 572Q612 591 620 608Q626 620 613 628Q571 646 556 640Q547 637 552 626Q568 578 529 495Q522 483 519 474Q515 461 526 467Q560 479 595 552L603 572Z"/>
	<path id="z31961d8" d="M721 557Q758 567 800 576Q828 583 832 588Q839 595 835 602Q828 612 803 617Q775 621 723 599L676 585Q640 578 603 572L595 552Q629 534 676 546L721 557Z"/>
	<path id="z31961d9" d="M713 443Q717 501 721 557L723 599Q727 695 744 757Q748 767 729 782Q695 800 673 803Q657 807 650 799Q643 792 651 777Q672 747 672 726Q676 659 676 585L676 546Q676 494 673 435L713 443Z"/>
	<path id="z31961d10" d="M673 435Q606 425 529 410Q513 407 525 395Q537 385 551 381Q567 377 580 382Q722 425 905 425Q920 426 924 433Q928 443 914 453Q871 483 814 466Q772 456 713 443L673 435Z"/>
	<path id="z31961d11" d="M601 314Q591 320 563 324Q553 325 550 322Q546 316 553 303Q577 254 593 174Q596 149 610 133Q626 115 630 129Q633 139 632 156L628 185Q613 260 611 287L601 314Z"/>
	<path id="z31961d12" d="M800 208Q819 274 847 297Q860 313 848 328Q835 338 789 359Q774 365 756 358Q702 336 601 314L611 287Q617 290 745 316Q760 320 766 314Q778 302 756 210L800 208Z"/>
	<path id="z31961d13" d="M632 156Q639 155 649 157Q701 169 813 178Q823 179 824 186Q824 193 800 208L756 210Q684 194 628 185L632 156Z"/>
	<path id="z31961d14" d="M413 548Q441 499 462 486Q472 482 480 489Q487 498 487 510Q484 540 428 573Q418 579 410 578Q406 578 405 569Q405 560 413 548Z"/>
	<path id="z31961d15" d="M464 145Q477 149 482 168Q489 201 456 255Q432 298 497 364Q513 377 499 390Q484 402 458 413Q443 422 406 396Q360 374 352 373Q348 374 345 370Q344 366 351 363Q375 351 420 369Q427 372 433 365Q446 349 431 328Q395 295 432 230Q450 190 452 174Q452 159 448 148L464 145Z"/>
	<path id="z31961d16" d="M448 148Q427 152 405 150Q381 146 360 151Q345 154 343 147Q339 137 352 124Q361 115 399 113Q456 122 521 93Q623 50 744 -3Q778 -22 825 0Q886 25 944 51Q963 58 962 68Q962 78 913 75Q750 71 709 77Q685 81 478 142Q471 145 464 145L448 148Z"/>
	<defs>
		<clipPath id="z31961c1"><use xlink:href="#z31961d1"/></clipPath>
		<clipPath id="z31961c2"><use xlink:href="#z31961d2"/></clipPath>
		<clipPath id="z31961c3"><use xlink:href="#z31961d3"/></clipPath>
		<clipPath id="z31961c4"><use xlink:href="#z31961d4"/></clipPath>
		<clipPath id="z31961c5"><use xlink:href="#z31961d5"/></clipPath>
		<clipPath id="z31961c6"><use xlink:href="#z31961d6"/></clipPath>
		<clipPath id="z31961c7"><use xlink:href="#z31961d7"/></clipPath>
		<clipPath id="z31961c8"><use xlink:href="#z31961d8"/></clipPath>
		<clipPath id="z31961c9"><use xlink:href="#z31961d9"/></clipPath>
		<clipPath id="z31961c10"><use xlink:href="#z31961d10"/></clipPath>
		<clipPath id="z31961c11"><use xlink:href="#z31961d11"/></clipPath>
		<clipPath id="z31961c12"><use xlink:href="#z31961d12"/></clipPath>
		<clipPath id="z31961c13"><use xlink:href="#z31961d13"/></clipPath>
		<clipPath id="z31961c14"><use xlink:href="#z31961d14"/></clipPath>
		<clipPath id="z31961c15"><use xlink:href="#z31961d15"/></clipPath>
		<clipPath id="z31961c16"><use xlink:href="#z31961d16"/></clipPath>
	</defs>
	<path pathLength="2999" clip-path="url(#z31961c1)" d="M125 624L193 523"/>
	<path pathLength="2999" clip-path="url(#z31961c2)" d="M382 677L402 642L326 556"/>
	<path pathLength="2999" clip-path="url(#z31961c3)" d="M77 424L385 478"/>
	<path pathLength="2999" clip-path="url(#z31961c4)" d="M227 800L289 733L265 -28"/>
	<path pathLength="2999" clip-path="url(#z31961c5)" d="M250 427L195 299L48 125"/>
	<path pathLength="2999" clip-path="url(#z31961c6)" d="M303 337L370 266"/>
	<path pathLength="2999" clip-path="url(#z31961c7)" d="M557 635L589 606L525 474"/>
	<path pathLength="2999" clip-path="url(#z31961c8)" d="M602 556L829 596"/>
	<path pathLength="2999" clip-path="url(#z31961c9)" d="M654 797L706 751L689 439"/>
	<path pathLength="2999" clip-path="url(#z31961c10)" d="M528 403L830 447L920 438"/>
	<path pathLength="2999" clip-path="url(#z31961c11)" d="M557 314L587 284L620 129"/>
	<path pathLength="2999" clip-path="url(#z31961c12)" d="M609 308L786 333L812 304L771 210"/>
	<path pathLength="2999" clip-path="url(#z31961c13)" d="M635 180L813 190"/>
	<path pathLength="2999" clip-path="url(#z31961c14)" d="M414 572L479 494"/>
	<path pathLength="2999" clip-path="url(#z31961c15)" d="M355 368L434 392L470 368L432 289L467 182L456 150"/>
	<path pathLength="2999" clip-path="url(#z31961c16)" d="M349 145L488 123L764 32L955 63"/>
</g>
</svg>