<!--
AnimCJK 2016-2018 Copyright Francois Mizessyn - https://github.com/parsimonhi/animCJK
Derived from:
    MakeMeAHanzi project - https://github.com/skishore/makemeahanzi
    Arphic PL KaitiM GB - https://apps.ubuntu.com/cat/applications/precise/fonts-arphic-gkai00mp/
    Arphic PL UKai - https://apps.ubuntu.com/cat/applications/fonts-arphic-ukai/
You can redistribute and/or modify this file under the terms of the Arphic Public License
as published by Arphic Technology Co., Ltd.
You should have received a copy of this license (the directory "APL") along with this file;
if not, see http://ftp.gnu.org/non-gnu/chinese-fonts-truetype/LICENSE.
-->
<svg id="z32427" class="acjk" version="1.1" viewBox="0 0 1024 1024" xmlns="http://www.w3.org/2000/svg" xmlns:xlink="http://www.w3.org/1999/xlink">
<style>
<![CDATA[
@keyframes z32427k {
	from {
		stroke:#ccc;
		stroke-dashoffset:3334;
	}
	1% {
		stroke:#c00;
		stroke-dashoffset:3334;
	}
	75% {
		stroke:#c00;
		stroke-dashoffset:0;
	}
	to {
		stroke:#000;
	}
}
#z32427 path[clip-path] {
	animation:z32427k 1s linear both;
	stroke-dasharray:3334;
	stroke-width:128;
	stroke-linecap:round;
	fill:none;
}
#z32427 path[clip-path="url(#z32427c1)"] {animation-delay:1s;}
#z32427 path[clip-path="url(#z32427c2)"] {animation-delay:2s;}
#z32427 path[clip-path="url(#z32427c3)"] {animation-delay:3s;}
#z32427 path[clip-path="url(#z32427c4)"] {animation-delay:4s;}
#z32427 path[clip-path="url(#z32427c5)"] {animation-delay:5s;}
#z32427 path[clip-path="url(#z32427c6)"] {animation-delay:6s;}
#z32427 path {fill:#ccc;}
]]>
</style>
<path id="z32427d1" d="M329 406Q277 405 234 403Q200 403 218 382Q294 261 366 172Q382 156 379 147Q378 132 339 101Q323 86 305 90Q293 91 299 108Q317 150 218 317Q196 356 153 392Q134 405 135 418Q139 437 152 455Q162 465 175 459Q203 446 294 433Q301 432 310 432C321 432 340 406 329 406Z"/>
<path id="z32427d2" d="M310 432Q220 550 196 562Q183 571 185 585Q186 598 211 618Q221 630 236 618Q296 576 389 548Q408 544 411 535Q414 525 394 528Q345 535 283 550Q253 560 273 537Q310 486 399 384Q427 347 453 327Q465 317 459 307Q449 288 417 269Q401 260 392 262Q382 266 384 281Q387 320 329 406C316 423 316 423 310 432Z"/>
<path id="z32427d3" d="M125 743Q112 746 111 757Q110 770 121 778Q146 791 182 808Q192 809 204 800Q309 730 417 658Q430 648 429 639Q423 635 411 638Q305 684 171 734Q155 741 125 743Z"/>
<path id="z32427d4" d="M681 330Q736 318 790 313Q806 312 809 320Q819 339 815 388Q805 569 771 666Q753 727 734 745Q722 757 699 749Q668 739 640 728Q618 721 632 743Q675 794 699 833Q708 855 729 850Q750 846 776 816Q851 732 869 433Q873 366 898 325Q914 303 905 292Q889 273 852 258Q827 245 798 258Q735 283 637 301Q552 316 503 315Q484 314 483 324Q482 334 504 348Q531 367 556 358Q596 346 639 338C667 333 667 333 681 330Z"/>
<path id="z32427d5" d="M639 338Q654 446 549 652Q462 781 404 840Q397 844 394 851Q390 861 400 860Q412 860 457 827Q601 725 678 474Q699 407 708 391Q720 379 715 365Q703 347 681 330C671 320 636 324 639 338Z"/>
<path id="z32427d6" d="M515 456Q497 499 472 538Q456 562 470 593Q477 608 494 598Q536 565 537 504Q541 476 535 456Q531 449 526 448Q519 449 515 456Z"/>
<defs>
	<clipPath id="z32427c1"><use xlink:href="#z32427d1"></use></clipPath>
	<clipPath id="z32427c2"><use xlink:href="#z32427d2"></use></clipPath>
	<clipPath id="z32427c3"><use xlink:href="#z32427d3"></use></clipPath>
	<clipPath id="z32427c4"><use xlink:href="#z32427d4"></use></clipPath>
	<clipPath id="z32427c5"><use xlink:href="#z32427d5"></use></clipPath>
	<clipPath id="z32427c6"><use xlink:href="#z32427d6"></use></clipPath>
</defs>
<path pathLength="3333" clip-path="url(#z32427c1)" d="M306 93L336 156L175 411L186 430L322 412"/>
<path pathLength="3333" clip-path="url(#z32427c2)" d="M394 269L419 316L227 568L247 588L404 535"/>
<path pathLength="3333" clip-path="url(#z32427c3)" d="M114 755L186 768L420 642"/>
<path pathLength="3333" clip-path="url(#z32427c4)" d="M491 324L546 336L815 284L861 316L815 630L773 755L719 801L631 733"/>
<path pathLength="3333" clip-path="url(#z32427c5)" d="M647 341L678 381L604 597L535 716L402 853"/>
<path pathLength="3333" clip-path="url(#z32427c6)" d="M526 454L475 592"/>
</svg>