<!--
AnimCJK 2016-2017 Copyright Francois Mizessyn, http://gooo.free.fr/animCJK/
Derived from:
    MakeMeAHanzi project - https://github.com/skishore/makemeahanzi
    Arphic PL KaitiM GB - https://apps.ubuntu.com/cat/applications/precise/fonts-arphic-gkai00mp/
    Arphic PL UKai - https://apps.ubuntu.com/cat/applications/fonts-arphic-ukai/
You can redistribute and/or modify this file under the terms of the Arphic Public License
as published by Arphic Technology Co., Ltd.
You should have received a copy of this license (the directory "APL") along with this file;
if not, see http://ftp.gnu.org/non-gnu/chinese-fonts-truetype/LICENSE.
-->
<svg id="z32431" class="acjk" version="1.1" viewBox="0 0 1024 1024" xmlns="http://www.w3.org/2000/svg" xmlns:xlink="http://www.w3.org/1999/xlink">
<style>
<![CDATA[
	@keyframes z32431k {
		from {
			stroke:#c00;
			stroke-dashoffset:3000;
		}
		75% {
			stroke:#c00;
			stroke-dashoffset:0;
		}
		to {
			stroke:#000;
		}
	}
	#z32431 path[clip-path] {
		animation:z32431k 1s linear both;
		stroke-dasharray:3000;
		stroke-width:128;
		stroke-linecap:round;
		fill:none;
	}
	#z32431 path[clip-path="url(#z32431c1)"] {animation-delay:1s;}
	#z32431 path[clip-path="url(#z32431c2)"] {animation-delay:2s;}
	#z32431 path[clip-path="url(#z32431c3)"] {animation-delay:3s;}
	#z32431 path[clip-path="url(#z32431c4)"] {animation-delay:4s;}
	#z32431 path[clip-path="url(#z32431c5)"] {animation-delay:5s;}
	#z32431 path[clip-path="url(#z32431c6)"] {animation-delay:6s;}
	#z32431 path[clip-path="url(#z32431c7)"] {animation-delay:7s;}
	#z32431 path {fill:#ccc;}
]]>
</style>
<g transform="scale(1,-1) translate(0,-900)">
	<path id="z32431d1" d="M300 458Q296 459 293 458Q241 458 196 459Q159 459 178 482Q245 594 309 679Q324 697 321 705Q318 720 278 751Q262 764 242 761Q230 758 237 742Q255 699 169 540Q150 503 111 468Q92 453 93 441Q97 422 112 403Q122 393 136 399Q158 411 284 434L300 458Z"/>
	<path id="z32431d2" d="M284 434Q176 284 152 273Q139 263 142 250Q143 237 170 219Q180 207 195 220Q264 271 359 307Q378 313 379 321Q382 331 362 327Q305 314 236 290Q214 281 228 301Q270 361 370 483Q397 520 422 541Q434 551 428 561Q418 580 385 598Q369 608 359 605Q349 601 352 586Q355 549 300 458L284 434Z"/>
	<path id="z32431d3" d="M115 119Q102 115 102 105Q101 92 112 85Q137 73 172 59Q182 58 193 68Q212 90 334 174Q350 186 362 198Q374 208 373 217Q366 221 355 217Q162 123 115 119Z"/>
	<path id="z32431d4" d="M623 529Q741 568 746 571Q753 580 748 588Q741 600 709 604Q684 607 626 582L576 562Q533 550 482 539Q445 529 474 515Q519 494 575 514L623 529Z"/>
	<path id="z32431d5" d="M615 288Q678 312 712 314L719 348Q664 336 616 322L565 306Q523 294 490 279Q477 275 479 292Q483 323 486 355Q490 376 480 388Q450 421 427 417Q418 413 425 397Q444 357 438 315Q434 276 418 259Q403 243 410 231Q420 218 436 210Q449 204 457 212Q472 234 564 268L615 288Z"/>
	<path id="z32431d6" d="M712 314Q713 286 720 267Q727 249 741 259Q769 283 785 365Q810 417 814 420Q824 433 816 449Q800 468 769 492Q757 501 744 496Q735 493 736 480Q745 465 742 409Q733 372 719 348L712 314Z"/>
	<path id="z32431d7" d="M971 82Q947 134 930 227Q927 242 921 248Q912 255 910 239Q900 184 889 142Q885 114 860 95Q833 70 720 72Q654 78 637 111Q615 159 615 288L616 322Q617 442 623 529L626 582Q630 688 644 738Q653 759 623 781Q598 797 578 809Q560 821 543 810Q531 804 552 776Q576 742 576 697Q577 654 576 562L575 514Q568 348 565 306L564 268Q561 117 614 53Q660 7 823 15Q896 19 950 44Q984 56 971 82Z"/>
	<defs>
		<clipPath id="z32431c1"><use xlink:href="#z32431d1"/></clipPath>
		<clipPath id="z32431c2"><use xlink:href="#z32431d2"/></clipPath>
		<clipPath id="z32431c3"><use xlink:href="#z32431d3"/></clipPath>
		<clipPath id="z32431c4"><use xlink:href="#z32431d4"/></clipPath>
		<clipPath id="z32431c5"><use xlink:href="#z32431d5"/></clipPath>
		<clipPath id="z32431c6"><use xlink:href="#z32431d6"/></clipPath>
		<clipPath id="z32431c7"><use xlink:href="#z32431d7"/></clipPath>
	</defs>
	<path pathLength="2999" clip-path="url(#z32431c1)" d="M243 751L280 704L136 449L151 430L290 454"/>
	<path pathLength="2999" clip-path="url(#z32431c2)" d="M361 598L386 548L183 271L206 252L371 320"/>
	<path pathLength="2999" clip-path="url(#z32431c3)" d="M107 109L176 98L364 211"/>
	<path pathLength="2999" clip-path="url(#z32431c4)" d="M469 527L745 584"/>
	<path pathLength="2999" clip-path="url(#z32431c5)" d="M432 409L460 373L446 259L462 244L712 337"/>
	<path pathLength="2999" clip-path="url(#z32431c6)" d="M744 489L781 432L733 261"/>
	<path pathLength="2999" clip-path="url(#z32431c7)" d="M545 806L608 742L589 251L622 86L727 44L893 68L930 100L917 243"/>
</g>
</svg>