<!--
AnimCJK 2016-2019 Copyright Francois Mizessyn - https://github.com/parsimonhi/animCJK
Derived from:
    MakeMeAHanzi project - https://github.com/skishore/makemeahanzi
    Arphic PL KaitiM GB font
    Arphic PL UKai font
You can redistribute and/or modify this file under the terms of the Arphic Public License
as published by Arphic Technology Co., Ltd.
You should have received a copy of this license along with this file.
If not, see http://ftp.gnu.org/non-gnu/chinese-fonts-truetype/LICENSE.
-->
<svg id="z32435" class="acjk" version="1.1" viewBox="0 0 1024 1024" xmlns="http://www.w3.org/2000/svg" xmlns:xlink="http://www.w3.org/1999/xlink">
<style>
<![CDATA[
@keyframes zk {
	to {
		stroke-dashoffset:0;
	}
}
svg.acjk path[clip-path] {
	--t:0.8s;
	animation:zk var(--t) linear forwards var(--d);
	stroke-dasharray:3337;
	stroke-dashoffset:3339;
	stroke-width:128;
	stroke-linecap:round;
	fill:none;
	stroke:#000;
}
svg.acjk path[id] {fill:#ccc;}
]]>
</style>
<path id="z32435d1" d="M303 422Q249 422 205 422Q171 422 189 401Q265 269 340 171Q355 155 352 147Q349 132 311 101Q295 88 276 91Q266 94 271 109Q289 154 191 332Q169 372 124 413Q105 426 107 439Q111 458 125 475Q135 487 148 479Q173 466 263 450Q275 449 285 448C295 446 314 422 303 422Z"/>
<path id="z32435d2" d="M285 448Q188 583 173 592Q160 602 164 615Q165 628 192 645Q204 655 217 643Q271 595 372 547Q390 540 392 531Q393 521 374 526Q319 542 254 570Q236 577 247 562Q287 501 384 378Q411 341 435 318Q447 308 440 298Q430 280 396 262Q380 253 371 256Q361 260 364 275Q367 320 306 418Q305 418 303 422C291 439 291 439 285 448Z"/>
<path id="z32435d3" d="M111 753Q98 756 98 767Q98 780 108 787Q133 800 168 814Q178 815 189 805Q292 732 398 658Q410 648 409 639Q403 635 391 639Q288 688 156 743Q140 750 111 753Z"/>
<path id="z32435d4" d="M500 351Q482 333 451 335Q438 339 444 351Q499 468 451 681Q420 763 451 799Q458 812 468 807Q505 777 506 640C506 633 506 633 506 630Q509 440 513 390C513 376 511 359 500 351Z"/>
<path id="z32435d5" d="M674 346Q789 316 805 329Q815 336 821 387Q837 559 830 757Q830 785 819 794Q801 804 716 779Q700 776 702 785Q703 792 715 798Q790 844 829 883Q850 901 862 898Q874 895 884 868Q897 825 896 762Q877 503 876 408Q876 371 886 348Q896 329 886 317Q876 304 831 282Q812 273 795 279Q755 292 676 316C644 323 644 323 628 327Q564 340 500 351C486 353 500 395 513 390Q531 381 626 358C658 350 658 350 674 346Z"/>
<path id="z32435d6" d="M656 471Q668 410 674 346C675 326 675 326 676 316Q676 202 693 144Q697 134 689 127Q673 114 640 101Q621 94 606 99Q588 106 603 121Q628 146 630 173Q631 258 628 327C627 348 627 348 626 358Q622 392 618 424Q600 541 514 624Q508 627 506 630C503 632 503 640 506 640Q560 640 620 565Q624 559 628 553Q641 528 651 494C654 479 654 479 656 471Z"/>
<path id="z32435d7" d="M651 494Q694 534 745 592Q758 608 771 613Q778 614 785 606Q795 596 785 558Q775 510 656 471C649 469 645 489 651 494Z"/>
<defs>
	<clipPath id="z32435c1"><use xlink:href="#z32435d1"/></clipPath>
	<clipPath id="z32435c2"><use xlink:href="#z32435d2"/></clipPath>
	<clipPath id="z32435c3"><use xlink:href="#z32435d3"/></clipPath>
	<clipPath id="z32435c4"><use xlink:href="#z32435d4"/></clipPath>
	<clipPath id="z32435c5"><use xlink:href="#z32435d5"/></clipPath>
	<clipPath id="z32435c6"><use xlink:href="#z32435d6"/></clipPath>
	<clipPath id="z32435c7"><use xlink:href="#z32435d7"/></clipPath>
</defs>
<path style="--d:1s;" pathLength="3333" clip-path="url(#z32435c1)" d="M276 96L306 163L147 426L164 450L296 429"/>
<path style="--d:2s;" pathLength="3333" clip-path="url(#z32435c2)" d="M374 258L401 305L205 589L229 609L382 532"/>
<path style="--d:3s;" pathLength="3333" clip-path="url(#z32435c3)" d="M102 768L164 778L400 644"/>
<path style="--d:4s;" pathLength="3333" clip-path="url(#z32435c4)" d="M449 341L476 363L490 435L463 802"/>
<path style="--d:5s;" pathLength="3333" clip-path="url(#z32435c5)" d="M514 384L527 363L780 304L850 333L852 826L834 846L709 785"/>
<path style="--d:6s;" pathLength="3333" clip-path="url(#z32435c6)" d="M601 109L661 152L640 431L600 552L513 632"/>
<path style="--d:7s;" pathLength="3333" clip-path="url(#z32435c7)" d="M659 478L751 554L777 605"/>
</svg>