<!--
AnimCJK 2016-2018 Copyright Francois Mizessyn - https://github.com/parsimonhi/animCJK
Derived from:
    MakeMeAHanzi project - https://github.com/skishore/makemeahanzi
    Arphic PL KaitiM GB - https://apps.ubuntu.com/cat/applications/precise/fonts-arphic-gkai00mp/
    Arphic PL UKai - https://apps.ubuntu.com/cat/applications/fonts-arphic-ukai/
You can redistribute and/or modify this file under the terms of the Arphic Public License
as published by Arphic Technology Co., Ltd.
You should have received a copy of this license (the directory "APL") along with this file;
if not, see http://ftp.gnu.org/non-gnu/chinese-fonts-truetype/LICENSE.
-->
<svg id="z32433" class="acjk" version="1.1" viewBox="0 0 1024 1024" xmlns="http://www.w3.org/2000/svg" xmlns:xlink="http://www.w3.org/1999/xlink">
<style>
<![CDATA[
@keyframes z32433k {
	from {
		stroke:#ccc;
		stroke-dashoffset:3334;
	}
	1% {
		stroke:#c00;
		stroke-dashoffset:3334;
	}
	75% {
		stroke:#c00;
		stroke-dashoffset:0;
	}
	to {
		stroke:#000;
	}
}
#z32433 path[clip-path] {
	animation:z32433k 1s linear both;
	stroke-dasharray:3334;
	stroke-width:128;
	stroke-linecap:round;
	fill:none;
}
#z32433 path[clip-path="url(#z32433c1)"] {animation-delay:1s;}
#z32433 path[clip-path="url(#z32433c2)"] {animation-delay:2s;}
#z32433 path[clip-path="url(#z32433c3)"] {animation-delay:3s;}
#z32433 path[clip-path="url(#z32433c4)"] {animation-delay:4s;}
#z32433 path[clip-path="url(#z32433c5)"] {animation-delay:5s;}
#z32433 path[clip-path="url(#z32433c6)"] {animation-delay:6s;}
#z32433 path[clip-path="url(#z32433c7)"] {animation-delay:7s;}
#z32433 path {fill:#ccc;}
]]>
</style>
<path id="z32433d1" d="M313 398Q265 398 225 398Q189 398 208 376Q274 264 337 179Q350 161 348 154Q345 141 306 109Q290 96 272 100Q260 103 267 118Q285 160 200 318Q182 354 144 389Q125 402 127 415Q131 434 145 452Q155 462 168 455Q193 442 283 426Q287 425 294 425C305 425 324 398 313 398 Z"/>
<path id="z32433d2" d="M294 425Q206 539 191 547Q178 556 181 570Q182 583 208 602Q218 614 234 601Q297 556 386 525Q405 519 407 511Q410 501 390 505Q339 514 277 532Q250 542 267 519Q303 470 386 369Q414 332 438 311Q450 301 444 291Q434 272 400 254Q384 245 375 248Q365 251 368 266Q371 308 315 396Q314 396 313 398C300 416 300 416 294 425 Z"/>
<path id="z32433d3" d="M115 723Q102 724 100 736Q99 749 109 758Q134 773 169 790Q179 793 192 783Q210 767 373 674Q394 664 409 649Q422 642 422 631Q416 627 403 630Q168 723 115 723 Z"/>
<path id="z32433d4" d="M600 123Q625 163 623 227Q627 422 613 476Q612 492 629 529Q639 545 654 537Q669 524 665 427Q662 223 696 160Q703 150 691 137Q637 94 607 103Q594 107 600 123 Z"/>
<path id="z32433d5" d="M505 353Q484 407 454 455Q436 485 453 516Q460 532 480 521Q525 482 530 405Q534 375 527 353Q523 346 517 344Q510 345 505 353 Z"/>
<path id="z32433d6" d="M778 317Q833 354 902 409Q921 427 938 429Q947 429 953 417Q963 401 943 360Q928 323 856 303Q834 296 774 285Q764 281 764 294Q765 307 778 317 Z"/>
<path id="z32433d7" d="M740 423Q736 603 539 770Q535 773 532 776Q478 827 346 909Q336 916 343 920Q352 924 364 920Q559 857 660 725Q718 658 777 541Q796 507 820 474Q830 464 825 453Q819 440 789 418Q767 402 755 404Q740 405 740 423 Z"/>
<defs>
	<clipPath id="z32433c1"><use xlink:href="#z32433d1"/></clipPath>
	<clipPath id="z32433c2"><use xlink:href="#z32433d2"/></clipPath>
	<clipPath id="z32433c3"><use xlink:href="#z32433d3"/></clipPath>
	<clipPath id="z32433c4"><use xlink:href="#z32433d4"/></clipPath>
	<clipPath id="z32433c5"><use xlink:href="#z32433d5"/></clipPath>
	<clipPath id="z32433c6"><use xlink:href="#z32433d6"/></clipPath>
	<clipPath id="z32433c7"><use xlink:href="#z32433d7"/></clipPath>
</defs>
<path pathLength="3333" clip-path="url(#z32433c1)" d="M273 110L307 161L168 406L184 427L304 405"/>
<path pathLength="3333" clip-path="url(#z32433c2)" d="M375 254L404 300L225 549L248 570L398 510"/>
<path pathLength="3333" clip-path="url(#z32433c3)" d="M104 734L172 752L413 634"/>
<path pathLength="3333" clip-path="url(#z32433c4)" d="M606 112L657 155L639 534"/>
<path pathLength="3333" clip-path="url(#z32433c5)" d="M516 350L457 518"/>
<path pathLength="3333" clip-path="url(#z32433c6)" d="M771 295L891 355L943 422"/>
<path pathLength="3333" clip-path="url(#z32433c7)" d="M750 410L780 463L646 702L523 818L346 915"/>
</svg>