<!--
AnimCJK 2016-2019 Copyright Francois Mizessyn - https://github.com/parsimonhi/animCJK
Derived from:
    MakeMeAHanzi project - https://github.com/skishore/makemeahanzi
    Arphic PL KaitiM GB font
    Arphic PL UKai font
You can redistribute and/or modify this file under the terms of the Arphic Public License
as published by Arphic Technology Co., Ltd.
You should have received a copy of this license along with this file.
If not, see http://ftp.gnu.org/non-gnu/chinese-fonts-truetype/LICENSE.
-->
<svg id="z32449" class="acjk" version="1.1" viewBox="0 0 1024 1024" xmlns="http://www.w3.org/2000/svg" xmlns:xlink="http://www.w3.org/1999/xlink">
<style>
<![CDATA[
@keyframes zk {
	to {
		stroke-dashoffset:0;
	}
}
svg.acjk path[clip-path] {
	--t:0.8s;
	animation:zk var(--t) linear forwards var(--d);
	stroke-dasharray:3337;
	stroke-dashoffset:3339;
	stroke-width:128;
	stroke-linecap:round;
	fill:none;
	stroke:#000;
}
svg.acjk path[id] {fill:#ccc;}
]]>
</style>
<path id="z32449d1" d="M309 442Q260 442 220 441Q183 441 202 419Q275 295 345 201Q360 183 357 176Q354 160 314 129Q298 114 278 119Q266 122 273 138Q291 180 198 354Q179 394 135 432Q116 447 117 459Q121 478 136 497Q145 506 163 499Q202 478 292 468C302 466 319 442 309 442Z"/>
<path id="z32449d2" d="M292 468Q192 606 174 614Q159 624 163 638Q164 651 192 671Q202 684 218 671Q275 629 373 593Q392 589 395 579Q398 569 377 572Q326 581 264 599Q233 611 253 584Q290 530 378 422Q406 382 431 360Q444 350 437 339Q427 320 391 301Q375 292 365 295Q355 299 357 315Q361 352 309 442C298 459 298 459 292 468Z"/>
<path id="z32449d3" d="M117 789Q104 792 103 802Q102 815 113 823Q137 836 171 851Q181 852 193 843Q295 774 398 705Q410 696 409 687Q403 683 391 686Q172 785 117 789Z"/>
<path id="z32449d4" d="M532 497Q574 487 624 480C651 476 651 476 664 474Q698 468 745 466C774 464 774 464 789 463Q834 459 888 458Q945 458 952 449Q956 437 941 425Q884 388 829 406Q811 409 793 414C762 421 762 421 747 424Q708 430 664 439C637 444 637 444 623 446Q577 452 531 460C500 465 500 465 485 467Q446 471 407 479Q388 482 402 497Q415 510 433 514Q439 514 486 509C517 501 517 501 532 497Z"/>
<path id="z32449d5" d="M624 480Q624 489 625 500Q626 567 624 615Q625 640 633 658Q639 668 646 662Q652 658 655 641Q655 638 656 636C659 614 659 614 661 603Q662 590 662 576Q663 524 664 474C664 451 664 451 664 439Q665 415 665 393Q666 329 671 300Q678 282 667 273Q654 260 628 250Q609 243 588 252Q578 259 591 273Q619 324 623 446C624 469 624 469 624 480Z"/>
<path id="z32449d6" d="M778 588Q782 524 789 463C792 430 792 430 793 414Q802 273 824 210Q828 200 809 184Q775 165 752 160Q736 156 728 164Q721 171 728 186Q750 222 750 246Q751 331 747 424C746 452 746 452 745 466Q742 523 737 585C737 599 778 602 778 588Z"/>
<path id="z32449d7" d="M656 636Q662 637 672 635Q711 626 793 621Q803 620 804 611Q804 604 778 588C766 581 751 585 737 585Q734 584 732 585Q692 595 661 603C650 605 645 636 656 636Z"/>
<path id="z32449d8" d="M486 509Q489 705 467 749Q434 791 475 826C476 827 476 827 476 827Q486 834 502 822Q554 786 632 770Q723 752 897 752Q922 753 923 740Q922 725 892 704Q874 689 762 712Q639 722 558 739Q545 743 540 738Q536 737 534 725Q534 622 532 497C531 472 531 472 531 460Q527 391 532 352Q536 340 525 327Q515 320 488 306Q469 296 461 303Q454 310 462 324Q477 352 485 467C486 495 486 495 486 509Z"/>
<defs>
	<clipPath id="z32449c1"><use xlink:href="#z32449d1"/></clipPath>
	<clipPath id="z32449c2"><use xlink:href="#z32449d2"/></clipPath>
	<clipPath id="z32449c3"><use xlink:href="#z32449d3"/></clipPath>
	<clipPath id="z32449c4"><use xlink:href="#z32449d4"/></clipPath>
	<clipPath id="z32449c5"><use xlink:href="#z32449d5"/></clipPath>
	<clipPath id="z32449c6"><use xlink:href="#z32449d6"/></clipPath>
	<clipPath id="z32449c7"><use xlink:href="#z32449d7"/></clipPath>
	<clipPath id="z32449c8"><use xlink:href="#z32449d8"/></clipPath>
</defs>
<path style="--d:1s;" pathLength="3333" clip-path="url(#z32449c1)" d="M278 127L314 182L166 433L187 471L301 449"/>
<path style="--d:2s;" pathLength="3333" clip-path="url(#z32449c2)" d="M368 303L395 349L205 617L229 639L387 577"/>
<path style="--d:3s;" pathLength="3333" clip-path="url(#z32449c3)" d="M107 800L179 811L400 691"/>
<path style="--d:4s;" pathLength="3333" clip-path="url(#z32449c4)" d="M406 491L851 430L946 443"/>
<path style="--d:5s;" pathLength="3333" clip-path="url(#z32449c5)" d="M590 257L639 297L638 656"/>
<path style="--d:6s;" pathLength="3333" clip-path="url(#z32449c6)" d="M731 170L786 219L758 586"/>
<path style="--d:7s;" pathLength="3333" clip-path="url(#z32449c7)" d="M664 628L735 605L798 612"/>
<path style="--d:8s;" pathLength="3333" clip-path="url(#z32449c8)" d="M466 308L502 349L509 784L713 737L918 735"/>
</svg>