<!--
AnimCJK 2016-2018 Copyright Francois Mizessyn, http://gooo.free.fr/animCJK/
Derived from:
    MakeMeAHanzi project - https://github.com/skishore/makemeahanzi
    Arphic PL KaitiM GB - https://apps.ubuntu.com/cat/applications/precise/fonts-arphic-gkai00mp/
    Arphic PL UKai - https://apps.ubuntu.com/cat/applications/fonts-arphic-ukai/
You can redistribute and/or modify this file under the terms of the Arphic Public License
as published by Arphic Technology Co., Ltd.
You should have received a copy of this license (the directory "APL") along with this file;
if not, see http://ftp.gnu.org/non-gnu/chinese-fonts-truetype/LICENSE.
-->
<svg id="z32454" class="acjk" version="1.1" viewBox="0 0 1024 1024" xmlns="http://www.w3.org/2000/svg" xmlns:xlink="http://www.w3.org/1999/xlink">
<style>
<![CDATA[
@keyframes z32454k {
	from {
		stroke:#ccc;
		stroke-dashoffset:3334;
	}
	1% {
		stroke:#c00;
		stroke-dashoffset:3334;
	}
	75% {
		stroke:#c00;
		stroke-dashoffset:0;
	}
	to {
		stroke:#000;
	}
}
#z32454 path[clip-path] {
	animation:z32454k 1s linear both;
	stroke-dasharray:3334;
	stroke-width:128;
	stroke-linecap:round;
	fill:none;
}
#z32454 path[clip-path="url(#z32454c1)"] {animation-delay:1s;}
#z32454 path[clip-path="url(#z32454c2)"] {animation-delay:2s;}
#z32454 path[clip-path="url(#z32454c3)"] {animation-delay:3s;}
#z32454 path[clip-path="url(#z32454c4)"] {animation-delay:4s;}
#z32454 path[clip-path="url(#z32454c5)"] {animation-delay:5s;}
#z32454 path[clip-path="url(#z32454c6)"] {animation-delay:6s;}
#z32454 path[clip-path="url(#z32454c7)"] {animation-delay:7s;}
#z32454 path[clip-path="url(#z32454c8)"] {animation-delay:8s;}
#z32454 path {fill:#ccc;}
]]>
</style>
<path id="z32454d1" d="M317 406Q266 406 226 406Q189 406 209 384Q276 272 340 187Q355 171 352 162Q349 149 311 117Q295 104 276 107Q266 111 271 126Q289 165 187 350Q169 372 144 397Q125 410 127 423Q131 442 145 459Q155 471 168 463Q195 450 287 434Q291 433 298 433L317 406 Z"/>
<path id="z32454d2" d="M298 433Q199 565 175 578Q162 588 165 601Q166 614 191 634Q201 646 217 634Q280 589 390 556Q409 552 411 543Q414 533 394 536Q336 546 262 565Q234 575 252 552Q382 372 438 327Q450 317 444 307Q434 288 401 270Q385 260 376 263Q366 266 368 282Q369 316 317 406L298 433 Z"/>
<path id="z32454d3" d="M125 755Q112 758 111 769Q110 782 120 790Q145 803 182 819Q192 822 204 811Q222 793 388 690Q410 677 426 662Q438 652 437 643Q431 639 419 642Q175 751 125 755 Z"/>
<path id="z32454d4" d="M490 374Q471 362 450 357Q443 354 438 359Q429 365 439 377Q488 461 490 667Q491 733 530 760L531 761Q547 765 550 737L550 705Q549 686 542 663Q524 456 521 411L490 374 Z"/>
<path id="z32454d5" d="M775 711Q787 736 811 784Q821 802 831 800Q847 796 856 770Q890 697 892 597Q898 536 902 464Q906 415 929 384Q945 365 933 351Q911 329 863 309Q844 299 811 311Q685 356 490 374L521 411Q531 405 632 390L675 382Q727 372 791 362Q819 356 831 370Q862 424 822 664Q821 686 811 689L809 689L775 711 Z"/>
<path id="z32454d6" d="M689 551Q729 544 766 538Q791 534 781 520Q769 505 743 501Q722 498 690 507L645 521Q602 534 563 546Q545 550 568 565Q577 571 645 559L689 551 Z"/>
<path id="z32454d7" d="M690 507Q693 401 694 400Q684 388 675 382L632 390Q635 394 638 400Q641 415 645 521L645 559Q645 611 645 691L685 683Q686 611 689 551L690 507 Z"/>
<path id="z32454d8" d="M550 737Q551 737 556 737Q626 721 775 711L809 689Q781 661 744 670Q713 676 685 683L645 691Q594 698 550 705L550 737 Z"/>
<defs>
	<clipPath id="z32454c1"><use xlink:href="#z32454d1"/></clipPath>
	<clipPath id="z32454c2"><use xlink:href="#z32454d2"/></clipPath>
	<clipPath id="z32454c3"><use xlink:href="#z32454d3"/></clipPath>
	<clipPath id="z32454c4"><use xlink:href="#z32454d4"/></clipPath>
	<clipPath id="z32454c5"><use xlink:href="#z32454d5"/></clipPath>
	<clipPath id="z32454c6"><use xlink:href="#z32454d6"/></clipPath>
	<clipPath id="z32454c7"><use xlink:href="#z32454d7"/></clipPath>
	<clipPath id="z32454c8"><use xlink:href="#z32454d8"/></clipPath>
</defs>
<path pathLength="3333" clip-path="url(#z32454c1)" d="M279 113L310 170L169 411L180 434L308 411"/>
<path pathLength="3333" clip-path="url(#z32454c2)" d="M375 268L402 317L209 584L229 603L405 544"/>
<path pathLength="3333" clip-path="url(#z32454c3)" d="M114 767L183 780L430 649"/>
<path pathLength="3333" clip-path="url(#z32454c4)" d="M442 366L493 430L530 755"/>
<path pathLength="3333" clip-path="url(#z32454c5)" d="M502 379L540 388L818 334L881 363L859 633L820 732L821 791"/>
<path pathLength="3333" clip-path="url(#z32454c6)" d="M566 554L777 524"/>
<path pathLength="3333" clip-path="url(#z32454c7)" d="M641 392L667 420L661 687"/>
<path pathLength="3333" clip-path="url(#z32454c8)" d="M554 729L799 686"/>
</svg>