<!--
AnimCJK 2016-2019 Copyright Francois Mizessyn - https://github.com/parsimonhi/animCJK
Derived from:
    MakeMeAHanzi project - https://github.com/skishore/makemeahanzi
    Arphic PL KaitiM GB font
    Arphic PL UKai font
You can redistribute and/or modify this file under the terms of the Arphic Public License
as published by Arphic Technology Co., Ltd.
You should have received a copy of this license along with this file.
If not, see http://ftp.gnu.org/non-gnu/chinese-fonts-truetype/LICENSE.
-->
<svg id="z32466" class="acjk" version="1.1" viewBox="0 0 1024 1024" xmlns="http://www.w3.org/2000/svg" xmlns:xlink="http://www.w3.org/1999/xlink">
<style>
<![CDATA[
@keyframes zk {
	to {
		stroke-dashoffset:0;
	}
}
svg.acjk path[clip-path] {
	--t:0.8s;
	animation:zk var(--t) linear forwards var(--d);
	stroke-dasharray:3337;
	stroke-dashoffset:3339;
	stroke-width:128;
	stroke-linecap:round;
	fill:none;
	stroke:#000;
}
svg.acjk path[id] {fill:#ccc;}
]]>
</style>
<path id="z32466d1" d="M319 394Q268 394 225 394Q188 394 208 372Q272 261 333 179Q346 161 344 154Q341 139 302 109Q286 96 268 100Q256 104 263 119Q285 168 182 343Q166 364 144 385Q125 400 127 411Q131 430 145 448Q155 458 168 451Q193 438 283 422Q292 421 301 421C312 421 330 394 319 394Z"/>
<path id="z32466d2" d="M301 421Q192 572 172 583Q159 593 162 606Q165 619 191 637Q201 649 216 636Q270 591 367 550Q386 543 387 535Q388 525 370 530Q318 542 255 564Q234 574 247 555Q289 494 387 369Q414 332 438 310Q451 300 444 291Q434 272 400 254Q384 245 375 248Q365 252 368 267Q371 304 319 394C307 412 307 412 301 421Z"/>
<path id="z32466d3" d="M123 753Q110 756 110 767Q110 780 120 787Q145 800 180 813Q190 814 201 805Q228 777 358 691Q377 679 390 666Q402 656 401 647Q395 643 383 647Q286 693 165 744Q149 751 123 753Z"/>
<path id="z32466d4" d="M678 386Q739 371 802 354Q803 350 807 346Q807 334 784 327Q753 308 671 341C644 350 644 350 631 355Q627 356 625 357Q592 366 429 407Q401 414 425 428Q455 447 497 438Q557 417 638 397C665 390 665 390 678 386Z"/>
<path id="z32466d5" d="M538 604Q566 594 599 585Q626 576 629 572Q636 565 632 558Q625 548 599 545Q560 541 542 558C528 569 510 575 493 578Q489 578 486 580Q450 590 408 599Q377 608 401 620Q443 636 486 620Q487 619 491 619C522 609 522 609 538 604Z"/>
<path id="z32466d6" d="M491 619Q482 719 397 805Q387 817 374 828Q364 837 374 838Q422 832 471 774Q529 714 538 611Q538 608 538 604C541 573 541 573 542 558Q543 536 550 516Q556 501 542 495Q499 471 480 481Q470 485 476 497Q482 506 493 578C492 605 492 605 491 619Z"/>
<path id="z32466d7" d="M720 682Q768 802 861 883Q919 932 949 931Q968 927 962 899Q956 850 960 705Q959 683 951 682Q944 682 938 703Q925 743 913 777Q901 811 889 812Q876 813 851 791Q797 736 757 658Q754 652 751 647C738 613 738 613 731 596Q718 560 678 386C673 356 673 356 671 341Q652 220 665 135Q678 96 624 75Q590 60 571 67Q552 74 561 93Q604 133 605 165Q617 270 631 355C636 383 636 383 638 397Q662 532 702 637C714 667 714 667 720 682Z"/>
<path id="z32466d8" d="M702 637Q701 637 699 640Q663 688 619 724Q582 754 562 772Q552 787 568 783Q617 780 720 682C741 659 741 659 751 647Q766 629 780 610Q817 558 851 517Q863 505 850 489Q810 449 783 451Q771 452 773 468Q773 526 731 596C712 623 712 623 702 637Z"/>
<path id="z32466d9" d="M738 198Q766 216 796 239Q811 249 824 246Q834 245 837 232Q840 217 828 192Q818 168 727 155Q714 154 708 157Q704 161 706 173Q710 183 738 198Z"/>
<defs>
	<clipPath id="z32466c1"><use xlink:href="#z32466d1"/></clipPath>
	<clipPath id="z32466c2"><use xlink:href="#z32466d2"/></clipPath>
	<clipPath id="z32466c3"><use xlink:href="#z32466d3"/></clipPath>
	<clipPath id="z32466c4"><use xlink:href="#z32466d4"/></clipPath>
	<clipPath id="z32466c5"><use xlink:href="#z32466d5"/></clipPath>
	<clipPath id="z32466c6"><use xlink:href="#z32466d6"/></clipPath>
	<clipPath id="z32466c7"><use xlink:href="#z32466d7"/></clipPath>
	<clipPath id="z32466c8"><use xlink:href="#z32466d8"/></clipPath>
	<clipPath id="z32466c9"><use xlink:href="#z32466d9"/></clipPath>
</defs>
<path style="--d:1s;" pathLength="3333" clip-path="url(#z32466c1)" d="M270 108L304 158L172 404L186 423L311 400"/>
<path style="--d:2s;" pathLength="3333" clip-path="url(#z32466c2)" d="M377 254L403 301L203 584L225 604L381 534"/>
<path style="--d:3s;" pathLength="3333" clip-path="url(#z32466c3)" d="M114 767L177 778L393 653"/>
<path style="--d:4s;" pathLength="3333" clip-path="url(#z32466c4)" d="M420 415L485 417L802 342"/>
<path style="--d:5s;" pathLength="3333" clip-path="url(#z32466c5)" d="M398 609L627 556"/>
<path style="--d:6s;" pathLength="3333" clip-path="url(#z32466c6)" d="M481 488L518 521L499 688L443 779L375 832"/>
<path style="--d:7s;" pathLength="3333" clip-path="url(#z32466c7)" d="M562 78L632 124L674 468L771 732L843 824L918 877L938 869L951 691"/>
<path style="--d:8s;" pathLength="3333" clip-path="url(#z32466c8)" d="M782 462L811 509L757 600L669 703L566 777"/>
<path style="--d:9s;" pathLength="3333" clip-path="url(#z32466c9)" d="M711 160L807 209L827 242"/>
</svg>