<!--
AnimCJK 2016-2019 Copyright Francois Mizessyn - https://github.com/parsimonhi/animCJK
Derived from:
    MakeMeAHanzi project - https://github.com/skishore/makemeahanzi
    Arphic PL KaitiM GB font
    Arphic PL UKai font
You can redistribute and/or modify this file under the terms of the Arphic Public License
as published by Arphic Technology Co., Ltd.
You should have received a copy of this license along with this file.
If not, see http://ftp.gnu.org/non-gnu/chinese-fonts-truetype/LICENSE.
-->
<svg id="z32479" class="acjk" version="1.1" viewBox="0 0 1024 1024" xmlns="http://www.w3.org/2000/svg" xmlns:xlink="http://www.w3.org/1999/xlink">
<style>
<![CDATA[
@keyframes zk {
	to {
		stroke-dashoffset:0;
	}
}
svg.acjk path[clip-path] {
	--t:0.8s;
	animation:zk var(--t) linear forwards var(--d);
	stroke-dasharray:3337;
	stroke-dashoffset:3339;
	stroke-width:128;
	stroke-linecap:round;
	fill:none;
	stroke:#000;
}
svg.acjk path[id] {fill:#ccc;}
]]>
</style>
<path id="z32479d1" d="M298 402Q297 401 293 402Q244 402 204 401Q170 401 187 380Q259 266 327 182Q343 164 340 156Q339 141 298 108Q282 95 263 97Q251 100 257 116Q273 158 181 320Q162 356 120 391Q101 406 102 418Q106 437 120 456Q130 468 144 461Q186 437 278 427C288 425 309 402 298 402Z"/>
<path id="z32479d2" d="M278 427Q170 559 149 570Q136 579 138 592Q139 605 164 625Q174 637 189 626Q252 581 362 548Q381 544 383 535Q386 525 366 528Q308 538 234 557Q209 566 226 546Q365 368 424 323Q437 314 431 304Q421 285 389 265Q373 255 364 257Q354 260 356 276Q357 309 298 402C285 419 285 419 278 427Z"/>
<path id="z32479d3" d="M105 751Q92 754 92 764Q91 777 101 783Q123 796 157 811Q167 812 177 803Q199 781 358 687Q379 675 394 661Q406 652 405 644Q395 637 314 675Q134 748 105 751Z"/>
<path id="z32479d4" d="M593 133Q620 154 650 178Q665 190 681 188Q693 187 697 172Q700 156 688 126Q681 107 649 96Q571 78 560 85Q556 89 558 103Q562 113 593 133Z"/>
<path id="z32479d5" d="M581 309Q791 257 795 254Q804 247 799 239Q792 229 766 222Q739 218 634 254Q477 284 472 286Q438 292 463 307Q496 325 539 318C567 312 567 312 581 309Z"/>
<path id="z32479d6" d="M644 478Q678 466 726 454C734 452 719 432 711 433Q624 451 533 479Q523 483 519 481Q518 478 522 471Q598 372 614 356Q624 346 619 335Q613 325 581 309C568 304 537 304 539 318Q539 319 540 324Q558 375 477 465Q432 505 431 509Q425 519 461 547Q471 557 482 547Q521 514 617 487C635 481 635 481 644 478Z"/>
<path id="z32479d7" d="M726 454Q756 494 768 497Q778 498 785 487Q792 474 789 446Q788 430 765 414Q711 381 696 385Q692 388 690 400Q691 410 711 433C721 447 721 447 726 454Z"/>
<path id="z32479d8" d="M498 570Q505 697 316 844Q309 851 315 853Q339 862 419 807Q492 758 545 644Q555 625 567 608Q574 599 570 590Q564 580 537 564Q518 551 509 553Q497 556 498 570Z"/>
<path id="z32479d9" d="M972 816Q957 788 937 703Q937 687 929 682Q922 679 918 697Q893 788 875 817Q851 847 765 844Q732 843 707 833Q685 823 679 808Q646 745 685 527Q691 496 644 478C635 474 615 478 617 487Q617 491 620 499Q632 538 629 575Q616 773 632 827Q636 849 655 866Q718 920 866 899Q879 896 895 893Q931 883 966 859Q985 843 972 816Z"/>
<defs>
	<clipPath id="z32479c1"><use xlink:href="#z32479d1"/></clipPath>
	<clipPath id="z32479c2"><use xlink:href="#z32479d2"/></clipPath>
	<clipPath id="z32479c3"><use xlink:href="#z32479d3"/></clipPath>
	<clipPath id="z32479c4"><use xlink:href="#z32479d4"/></clipPath>
	<clipPath id="z32479c5"><use xlink:href="#z32479d5"/></clipPath>
	<clipPath id="z32479c6"><use xlink:href="#z32479d6"/></clipPath>
	<clipPath id="z32479c7"><use xlink:href="#z32479d7"/></clipPath>
	<clipPath id="z32479c8"><use xlink:href="#z32479d8"/></clipPath>
	<clipPath id="z32479c9"><use xlink:href="#z32479d9"/></clipPath>
</defs>
<path style="--d:1s;" pathLength="3333" clip-path="url(#z32479c1)" d="M263 105L296 165L143 406L158 429L289 408"/>
<path style="--d:2s;" pathLength="3333" clip-path="url(#z32479c2)" d="M368 260L390 310L182 571L203 594L376 533"/>
<path style="--d:3s;" pathLength="3333" clip-path="url(#z32479c3)" d="M99 761L161 772L398 650"/>
<path style="--d:4s;" pathLength="3333" clip-path="url(#z32479c4)" d="M565 93L652 135L690 179"/>
<path style="--d:5s;" pathLength="3333" clip-path="url(#z32479c5)" d="M464 297L795 244"/>
<path style="--d:6s;" pathLength="3333" clip-path="url(#z32479c6)" d="M546 324L578 359L478 493L492 515L717 448"/>
<path style="--d:7s;" pathLength="3333" clip-path="url(#z32479c7)" d="M701 391L774 491"/>
<path style="--d:8s;" pathLength="3333" clip-path="url(#z32479c8)" d="M506 558L533 601L474 718L321 847"/>
<path style="--d:9s;" pathLength="3333" clip-path="url(#z32479c9)" d="M623 494L656 526L643 739L680 850L760 874L902 850L930 821L928 690"/>
</svg>