<!--
AnimCJK 2016-2019 Copyright Francois Mizessyn - https://github.com/parsimonhi/animCJK
Derived from:
    MakeMeAHanzi project - https://github.com/skishore/makemeahanzi
    Arphic PL KaitiM GB font
    Arphic PL UKai font
You can redistribute and/or modify this file under the terms of the Arphic Public License
as published by Arphic Technology Co., Ltd.
You should have received a copy of this license along with this file.
If not, see http://ftp.gnu.org/non-gnu/chinese-fonts-truetype/LICENSE.
-->
<svg id="z32481" class="acjk" version="1.1" viewBox="0 0 1024 1024" xmlns="http://www.w3.org/2000/svg" xmlns:xlink="http://www.w3.org/1999/xlink">
<style>
<![CDATA[
@keyframes zk {
	to {
		stroke-dashoffset:0;
	}
}
svg.acjk path[clip-path] {
	--t:0.8s;
	animation:zk var(--t) linear forwards var(--d);
	stroke-dasharray:3337;
	stroke-dashoffset:3339;
	stroke-width:128;
	stroke-linecap:round;
	fill:none;
	stroke:#000;
}
svg.acjk path[id] {fill:#ccc;}
]]>
</style>
<path id="z32481d1" d="M319 431Q315 430 309 431Q260 431 219 431Q186 432 203 412Q275 298 343 214Q359 196 356 188Q355 173 314 140Q298 127 279 129Q267 132 273 148Q289 190 197 352Q178 388 136 423Q117 438 118 450Q122 469 137 489Q147 499 161 493Q185 480 265 461Q287 458 303 454C312 452 328 431 319 431Z"/>
<path id="z32481d2" d="M303 454Q195 587 169 601Q154 610 157 624Q158 637 184 658Q194 671 210 659Q267 617 393 573Q412 569 415 559Q418 549 397 552Q334 564 256 587Q234 594 249 576Q384 410 440 370Q453 360 447 349Q437 330 405 308Q389 298 379 300Q369 303 370 319Q370 352 319 431C308 446 308 446 303 454Z"/>
<path id="z32481d3" d="M117 773Q104 776 104 786Q103 799 113 806Q137 821 171 836Q181 837 193 829Q229 796 387 709Q409 696 426 681Q438 672 437 664Q431 658 419 662Q173 770 117 773Z"/>
<path id="z32481d4" d="M661 408Q674 251 693 125Q697 115 677 99Q643 80 620 77Q604 73 596 81Q589 88 597 103Q616 130 616 149Q623 273 620 418C620 432 661 422 661 408Z"/>
<path id="z32481d5" d="M476 278Q498 305 520 337Q530 350 545 353Q554 354 561 343Q568 330 565 302Q564 283 537 264Q474 225 460 229Q456 232 454 244Q455 254 476 278Z"/>
<path id="z32481d6" d="M787 204Q768 240 706 317Q696 335 714 331Q763 301 791 281Q855 230 877 221Q899 211 887 192Q872 174 845 160Q820 147 806 149Q793 150 797 165Q801 184 787 204Z"/>
<path id="z32481d7" d="M546 672Q547 623 552 585C553 567 553 567 553 558Q557 485 562 462Q562 458 562 456C562 446 559 434 552 427Q549 423 545 421Q514 405 496 406Q483 410 488 423Q536 535 483 754Q458 824 458 827Q458 857 478 885Q485 900 496 894Q533 873 543 738Q544 717 545 698C546 681 546 681 546 672Z"/>
<path id="z32481d8" d="M562 456Q587 453 716 426Q737 422 742 433Q751 460 762 656Q765 825 754 846Q748 853 727 848Q699 844 671 840Q652 836 653 845Q714 888 750 922Q763 941 780 945Q790 948 797 938Q836 884 832 832Q793 493 820 442Q832 423 820 412Q798 393 761 379Q742 372 726 380Q687 399 661 408C634 415 634 415 620 418Q592 422 552 427C542 429 552 458 562 456Z"/>
<path id="z32481d9" d="M552 585Q556 586 563 585Q644 572 702 564Q726 560 717 548Q707 533 681 529Q645 525 553 558C545 561 543 585 552 585Z"/>
<path id="z32481d10" d="M545 698Q552 699 564 699Q645 690 705 685Q730 682 721 668Q711 652 684 647Q653 641 546 672C538 675 536 696 545 698Z"/>
<defs>
	<clipPath id="z32481c1"><use xlink:href="#z32481d1"/></clipPath>
	<clipPath id="z32481c2"><use xlink:href="#z32481d2"/></clipPath>
	<clipPath id="z32481c3"><use xlink:href="#z32481d3"/></clipPath>
	<clipPath id="z32481c4"><use xlink:href="#z32481d4"/></clipPath>
	<clipPath id="z32481c5"><use xlink:href="#z32481d5"/></clipPath>
	<clipPath id="z32481c6"><use xlink:href="#z32481d6"/></clipPath>
	<clipPath id="z32481c7"><use xlink:href="#z32481d7"/></clipPath>
	<clipPath id="z32481c8"><use xlink:href="#z32481d8"/></clipPath>
	<clipPath id="z32481c9"><use xlink:href="#z32481d9"/></clipPath>
	<clipPath id="z32481c10"><use xlink:href="#z32481d10"/></clipPath>
</defs>
<path style="--d:1s;" pathLength="3333" clip-path="url(#z32481c1)" d="M279 135L312 195L159 441L173 461L309 435"/>
<path style="--d:2s;" pathLength="3333" clip-path="url(#z32481c2)" d="M383 303L403 360L200 606L223 624L407 560"/>
<path style="--d:3s;" pathLength="3333" clip-path="url(#z32481c3)" d="M111 785L178 797L429 668"/>
<path style="--d:4s;" pathLength="3333" clip-path="url(#z32481c4)" d="M600 88L654 131L631 415"/>
<path style="--d:5s;" pathLength="3333" clip-path="url(#z32481c5)" d="M464 234L535 305L545 349"/>
<path style="--d:6s;" pathLength="3333" clip-path="url(#z32481c6)" d="M805 156L836 211L709 325"/>
<path style="--d:7s;" pathLength="3333" clip-path="url(#z32481c7)" d="M493 413L526 442L533 517L491 890"/>
<path style="--d:8s;" pathLength="3333" clip-path="url(#z32481c8)" d="M559 429L742 401L784 430L792 857L767 897L663 843"/>
<path style="--d:9s;" pathLength="3333" clip-path="url(#z32481c9)" d="M559 577L711 551"/>
<path style="--d:10s;" pathLength="3333" clip-path="url(#z32481c10)" d="M552 691L717 670"/>
</svg>