<!--
AnimCJK 2016-2019 Copyright Francois Mizessyn - https://github.com/parsimonhi/animCJK
Derived from:
    MakeMeAHanzi project - https://github.com/skishore/makemeahanzi
    Arphic PL KaitiM GB font
    Arphic PL UKai font
You can redistribute and/or modify this file under the terms of the Arphic Public License
as published by Arphic Technology Co., Ltd.
You should have received a copy of this license along with this file.
If not, see http://ftp.gnu.org/non-gnu/chinese-fonts-truetype/LICENSE.
-->
<svg id="z32505" class="acjk" version="1.1" viewBox="0 0 1024 1024" xmlns="http://www.w3.org/2000/svg" xmlns:xlink="http://www.w3.org/1999/xlink">
<style>
<![CDATA[
@keyframes zk {
	to {
		stroke-dashoffset:0;
	}
}
svg.acjk path[clip-path] {
	--t:0.8s;
	animation:zk var(--t) linear forwards var(--d);
	stroke-dasharray:3337;
	stroke-dashoffset:3339;
	stroke-width:128;
	stroke-linecap:round;
	fill:none;
	stroke:#000;
}
svg.acjk path[id] {fill:#ccc;}
]]>
</style>
<path id="z32505d1" d="M266 405C241 405 209 405 185 405C165 405 162 400 171 387C218 315 261 240 306 187C314 176 317 169 317 165C315 156 303 142 280 122C270 113 261 110 249 112C242 113 240 118 244 128C252 154 227 228 170 329C157 351 138 374 111 396C99 405 93 412 95 420C97 432 102 444 111 455C116 461 125 462 135 457C161 443 199 433 251 427C260 426 275 405 266 405Z"/>
<path id="z32505d2" d="M251 427C206 491 160 556 148 564C138 569 137 577 139 586C140 594 149 603 165 616C172 621 180 622 190 615C226 587 276 559 343 536C354 531 362 529 363 523C364 516 358 514 347 517C312 524 273 533 230 548C213 553 210 551 221 537C244 503 283 443 337 375C355 352 370 332 386 318C392 312 394 306 391 300C384 287 370 276 349 265C338 259 331 257 325 259C318 261 316 266 318 277C320 304 287 374 266 405C256 420 256 420 251 427Z"/>
<path id="z32505d3" d="M90 749C81 750 78 756 78 762C78 770 81 777 88 781C103 789 122 798 146 806C152 808 159 803 166 797C180 782 233 742 326 678C338 669 348 659 358 651C365 644 371 638 368 633C365 628 358 629 351 633C204 706 117 744 90 749Z"/>
<path id="z32505d4" d="M508 306C538 273 566 236 595 202C610 183 620 168 631 159C637 153 638 144 636 135C633 127 624 114 606 100C589 86 575 80 563 81C551 81 546 89 552 103C561 129 542 180 492 256C468 291 440 328 408 367C402 373 396 377 395 382C392 388 395 392 405 391C419 389 450 367 493 322C503 311 503 311 508 306Z"/>
<path id="z32505d5" d="M493 322C521 334 544 337 563 331C585 322 650 307 757 287C774 283 787 286 795 294C809 308 816 334 818 372C822 486 824 581 815 655C800 771 779 836 757 851C753 853 724 846 670 831C663 829 659 828 658 831C655 835 660 841 670 850C697 877 716 904 731 928C744 949 759 956 772 952C782 948 794 935 809 915C828 887 845 849 857 798C870 737 875 608 874 411C873 360 878 325 891 308C901 293 899 281 885 272C871 263 845 251 806 239C800 237 793 239 785 242C690 270 598 292 508 306C501 307 486 319 493 322Z"/>
<path id="z32505d6" d="M487 444C497 431 507 417 524 406C532 399 534 391 527 384C519 376 507 372 494 369C481 365 472 364 466 367C460 369 460 372 463 379C468 390 447 436 407 517C403 525 408 530 415 525C437 504 457 480 478 455C484 448 484 448 487 444Z"/>
<path id="z32505d7" d="M564 467C602 464 684 441 696 431C700 426 702 421 699 417C694 410 684 402 669 403C650 404 612 417 564 429C543 433 511 439 487 444C482 445 474 453 478 455C498 465 512 470 522 470C550 468 550 468 564 467Z"/>
<path id="z32505d8" d="M581 577C611 570 666 561 745 552C751 551 757 550 761 542C763 535 754 531 743 524C725 513 696 513 651 525C630 530 610 536 583 542C551 548 551 548 535 551C512 555 491 558 471 561C444 564 416 566 388 571C371 573 369 579 382 589C399 601 421 606 447 602C473 596 503 592 536 586C566 580 566 580 581 577Z"/>
<path id="z32505d9" d="M576 707Q577 635 581 577C582 554 582 554 583 542Q583 526 585 508Q594 487 564 467C552 460 517 457 522 470Q531 485 535 551C536 574 536 574 536 586Q536 632 537 715C537 728 576 720 576 707Z"/>
<path id="z32505d10" d="M683 688Q626 694 576 707C550 712 550 712 537 715Q492 724 454 738Q444 739 448 727Q461 667 458 658Q448 642 429 628Q420 622 412 623Q403 624 407 642Q417 676 408 707Q401 737 386 749Q370 762 376 774Q385 787 398 797Q408 804 417 797Q447 767 600 732Q667 716 683 721Q684 720 686 721C697 723 694 686 683 688Z"/>
<path id="z32505d11" d="M686 721Q692 769 714 788Q724 795 730 784Q737 762 732 713Q722 641 721 623Q722 604 705 597Q689 590 674 586Q664 585 657 590Q651 597 656 609Q683 648 683 688C685 710 685 710 686 721Z"/>
<defs>
	<clipPath id="z32505c1"><use xlink:href="#z32505d1"/></clipPath>
	<clipPath id="z32505c2"><use xlink:href="#z32505d2"/></clipPath>
	<clipPath id="z32505c3"><use xlink:href="#z32505d3"/></clipPath>
	<clipPath id="z32505c4"><use xlink:href="#z32505d4"/></clipPath>
	<clipPath id="z32505c5"><use xlink:href="#z32505d5"/></clipPath>
	<clipPath id="z32505c6"><use xlink:href="#z32505d6"/></clipPath>
	<clipPath id="z32505c7"><use xlink:href="#z32505d7"/></clipPath>
	<clipPath id="z32505c8"><use xlink:href="#z32505d8"/></clipPath>
	<clipPath id="z32505c9"><use xlink:href="#z32505d9"/></clipPath>
	<clipPath id="z32505c10"><use xlink:href="#z32505d10"/></clipPath>
	<clipPath id="z32505c11"><use xlink:href="#z32505d11"/></clipPath>
</defs>
<path style="--d:1s;" pathLength="3333" clip-path="url(#z32505c1)" d="M250 120L278 172L133 409L144 431L256 410"/>
<path style="--d:2s;" pathLength="3333" clip-path="url(#z32505c2)" d="M325 265L353 308L180 567L200 585L355 524"/>
<path style="--d:3s;" pathLength="3333" clip-path="url(#z32505c3)" d="M84 763L148 768L362 640"/>
<path style="--d:4s;" pathLength="3333" clip-path="url(#z32505c4)" d="M557 88L589 153L401 383"/>
<path style="--d:5s;" pathLength="3333" clip-path="url(#z32505c5)" d="M504 316L797 264L854 307L817 815L755 902L666 836"/>
<path style="--d:6s;" pathLength="3333" clip-path="url(#z32505c6)" d="M525 391L482 398L412 518"/>
<path style="--d:7s;" pathLength="3333" clip-path="url(#z32505c7)" d="M484 451L693 419"/>
<path style="--d:8s;" pathLength="3333" clip-path="url(#z32505c8)" d="M382 580L755 537"/>
<path style="--d:9s;" pathLength="3333" clip-path="url(#z32505c9)" d="M531 474L559 503L561 709"/>
<path style="--d:10s;" pathLength="3333" clip-path="url(#z32505c10)" d="M414 631L435 666L422 766L684 703"/>
<path style="--d:11s;" pathLength="3333" clip-path="url(#z32505c11)" d="M660 595L696 625L719 782"/>
</svg>