<!--
AnimCJK 2016-2019 Copyright Francois Mizessyn - https://github.com/parsimonhi/animCJK
Derived from:
    MakeMeAHanzi project - https://github.com/skishore/makemeahanzi
    Arphic PL KaitiM GB font
    Arphic PL UKai font
You can redistribute and/or modify this file under the terms of the Arphic Public License
as published by Arphic Technology Co., Ltd.
You should have received a copy of this license along with this file.
If not, see http://ftp.gnu.org/non-gnu/chinese-fonts-truetype/LICENSE.
-->
<svg id="z32516" class="acjk" version="1.1" viewBox="0 0 1024 1024" xmlns="http://www.w3.org/2000/svg" xmlns:xlink="http://www.w3.org/1999/xlink">
<style>
<![CDATA[
@keyframes zk {
	to {
		stroke-dashoffset:0;
	}
}
svg.acjk path[clip-path] {
	--t:0.8s;
	animation:zk var(--t) linear forwards var(--d);
	stroke-dasharray:3337;
	stroke-dashoffset:3339;
	stroke-width:128;
	stroke-linecap:round;
	fill:none;
	stroke:#000;
}
svg.acjk path[id] {fill:#ccc;}
]]>
</style>
<path id="z32516d1" d="M285 415Q284 414 282 415Q236 414 197 413Q166 413 182 394Q248 294 310 220Q325 204 323 195Q322 182 283 148Q267 135 249 138Q237 139 243 156Q259 193 173 341Q154 372 117 404Q98 417 100 430Q104 449 117 467Q127 477 140 471Q180 447 271 438C280 437 294 415 285 415Z"/>
<path id="z32516d2" d="M271 438Q178 568 157 580Q144 589 148 602Q149 615 174 632Q184 642 198 631Q249 589 336 553Q354 547 355 539Q356 529 339 534Q293 544 237 563Q215 572 229 553Q265 501 348 397Q375 361 398 341Q408 331 403 322Q393 304 361 287Q346 278 337 281Q327 284 330 299Q333 333 285 415C276 430 276 430 271 438Z"/>
<path id="z32516d3" d="M102 747Q92 751 91 760Q91 772 100 777Q122 787 153 799Q162 800 171 791Q195 764 224 744Q267 716 311 684Q327 674 339 660Q349 653 348 644Q342 640 332 644Q142 743 102 747Z"/>
<path id="z32516d4" d="M679 386Q703 377 729 371Q771 358 777 351Q784 344 780 335Q773 325 743 319Q709 313 671 336C642 347 642 347 628 353Q483 390 465 395C454 397 466 427 477 427Q522 427 595 409Q613 403 635 398C664 390 664 390 679 386Z"/>
<path id="z32516d5" d="M465 395Q420 373 407 375Q388 378 403 398Q424 437 409 619Q400 664 377 717Q353 775 283 839Q270 851 267 857Q266 863 276 863Q312 863 370 802Q433 736 454 621Q454 618 455 615C457 605 457 605 458 600Q468 537 472 452Q475 437 477 427C479 416 476 399 465 395Z"/>
<path id="z32516d6" d="M491 509Q463 518 485 528Q515 540 583 521Q601 515 622 509Q635 505 638 503Q644 496 640 489Q633 480 609 477Q584 476 561 488Q540 497 491 509Z"/>
<path id="z32516d7" d="M455 615Q477 663 489 740Q490 762 503 778Q516 796 521 784Q525 771 524 746C521 725 521 725 520 715Q511 652 511 632C511 624 508 612 500 609Q491 605 469 600Q460 597 458 600C453 601 453 610 455 615Z"/>
<path id="z32516d8" d="M629 702Q642 645 659 629Q678 607 658 596Q642 587 619 573Q603 564 587 574Q569 587 545 595Q526 602 500 609C492 612 503 635 511 632Q523 626 574 617Q590 613 595 619Q598 622 586 695C583 709 626 716 629 702Z"/>
<path id="z32516d9" d="M524 746Q531 737 635 727Q644 726 645 718Q645 711 629 702C617 695 600 693 586 695Q580 695 577 697Q546 707 520 715C510 719 516 752 524 746Z"/>
<path id="z32516d10" d="M743 741Q747 747 751 754Q794 827 853 880Q917 931 948 929Q970 925 961 894Q954 852 945 730Q944 706 934 705Q933 705 900 780Q885 811 864 798Q854 792 843 782Q806 743 777 694C760 662 760 662 751 646Q718 576 679 386C674 353 674 353 671 336Q655 216 668 132Q681 89 624 67Q588 51 567 58Q546 65 556 85Q604 128 603 163Q613 268 628 353C633 383 633 383 635 398Q663 573 722 698C736 727 736 727 743 741Z"/>
<path id="z32516d11" d="M722 698Q679 758 624 810Q618 814 615 820Q611 829 620 829Q659 829 734 751Q734 750 743 741C766 710 766 710 777 694Q843 583 876 502Q876 498 875 492Q865 473 841 453Q826 438 814 440Q801 443 804 457Q820 517 751 646C732 681 732 681 722 698Z"/>
<path id="z32516d12" d="M744 205Q772 229 803 258Q818 271 833 270Q843 269 849 256Q853 240 844 211Q832 178 738 157Q722 154 716 157Q712 161 713 174Q717 184 744 205Z"/>
<defs>
	<clipPath id="z32516c1"><use xlink:href="#z32516d1"/></clipPath>
	<clipPath id="z32516c2"><use xlink:href="#z32516d2"/></clipPath>
	<clipPath id="z32516c3"><use xlink:href="#z32516d3"/></clipPath>
	<clipPath id="z32516c4"><use xlink:href="#z32516d4"/></clipPath>
	<clipPath id="z32516c5"><use xlink:href="#z32516d5"/></clipPath>
	<clipPath id="z32516c6"><use xlink:href="#z32516d6"/></clipPath>
	<clipPath id="z32516c7"><use xlink:href="#z32516d7"/></clipPath>
	<clipPath id="z32516c8"><use xlink:href="#z32516d8"/></clipPath>
	<clipPath id="z32516c9"><use xlink:href="#z32516d9"/></clipPath>
	<clipPath id="z32516c10"><use xlink:href="#z32516d10"/></clipPath>
	<clipPath id="z32516c11"><use xlink:href="#z32516d11"/></clipPath>
	<clipPath id="z32516c12"><use xlink:href="#z32516d12"/></clipPath>
</defs>
<path style="--d:1s;" pathLength="3333" clip-path="url(#z32516c1)" d="M250 142L282 197L139 418L156 441L275 421"/>
<path style="--d:2s;" pathLength="3333" clip-path="url(#z32516c2)" d="M337 286L363 334L189 582L208 600L348 539"/>
<path style="--d:3s;" pathLength="3333" clip-path="url(#z32516c3)" d="M95 759L154 765L338 649"/>
<path style="--d:4s;" pathLength="3333" clip-path="url(#z32516c4)" d="M473 397L551 396L775 334"/>
<path style="--d:5s;" pathLength="3333" clip-path="url(#z32516c5)" d="M402 381L444 431L426 645L372 768L275 856"/>
<path style="--d:6s;" pathLength="3333" clip-path="url(#z32516c6)" d="M485 521L637 494"/>
<path style="--d:7s;" pathLength="3333" clip-path="url(#z32516c7)" d="M463 606L487 633L515 781"/>
<path style="--d:8s;" pathLength="3333" clip-path="url(#z32516c8)" d="M507 612L613 599L631 615L616 699"/>
<path style="--d:9s;" pathLength="3333" clip-path="url(#z32516c9)" d="M529 737L637 717"/>
<path style="--d:10s;" pathLength="3333" clip-path="url(#z32516c10)" d="M558 69L631 116L671 464L756 711L829 811L903 870L936 869L936 713"/>
<path style="--d:11s;" pathLength="3333" clip-path="url(#z32516c11)" d="M814 443L841 498L798 606L716 740L623 823"/>
<path style="--d:12s;" pathLength="3333" clip-path="url(#z32516c12)" d="M720 164L806 216L840 264"/>
</svg>