<!--
AnimCJK 2016-2019 Copyright Francois Mizessyn - https://github.com/parsimonhi/animCJK
Derived from:
    MakeMeAHanzi project - https://github.com/skishore/makemeahanzi
    Arphic PL KaitiM GB font
    Arphic PL UKai font
You can redistribute and/or modify this file under the terms of the Arphic Public License
as published by Arphic Technology Co., Ltd.
You should have received a copy of this license along with this file.
If not, see http://ftp.gnu.org/non-gnu/chinese-fonts-truetype/LICENSE.
-->
<svg id="z32512" class="acjk" version="1.1" viewBox="0 0 1024 1024" xmlns="http://www.w3.org/2000/svg" xmlns:xlink="http://www.w3.org/1999/xlink">
<style>
<![CDATA[
@keyframes zk {
	to {
		stroke-dashoffset:0;
	}
}
svg.acjk path[clip-path] {
	--t:0.8s;
	animation:zk var(--t) linear forwards var(--d);
	stroke-dasharray:3337;
	stroke-dashoffset:3339;
	stroke-width:128;
	stroke-linecap:round;
	fill:none;
	stroke:#000;
}
svg.acjk path[id] {fill:#ccc;}
]]>
</style>
<path id="z32512d1" d="M297 384Q248 384 207 386Q173 386 191 366Q252 260 312 181Q325 165 323 157Q322 144 283 114Q267 101 250 105Q240 108 245 122Q263 162 182 311Q166 345 129 378Q111 391 113 403Q117 422 130 438Q140 448 152 442Q180 427 273 410Q276 409 280 410C290 410 307 384 297 384Z"/>
<path id="z32512d2" d="M280 410Q195 530 171 543Q158 552 160 565Q161 578 186 597Q196 609 210 597Q259 564 350 538Q368 535 371 527Q374 517 355 520Q312 524 257 534Q220 547 245 517Q279 466 361 365Q386 329 410 308Q420 299 415 290Q405 271 373 255Q358 246 349 249Q339 252 342 267Q345 304 297 384C286 401 286 401 280 410Z"/>
<path id="z32512d3" d="M103 717Q90 720 90 731Q90 744 100 751Q125 764 160 777Q170 778 181 769Q208 741 338 655Q357 643 370 630Q382 620 381 611Q375 607 363 611Q266 657 145 708Q129 715 103 717Z"/>
<path id="z32512d4" d="M520 365Q521 362 525 359Q547 328 572 287Q585 263 610 238Q622 228 616 222Q615 215 564 200Q548 193 534 206Q503 227 422 245Q407 246 418 258Q436 270 484 256Q518 241 528 251Q532 257 522 275Q507 312 484 350C472 368 472 368 466 377Q439 414 392 464Q382 474 393 474Q423 468 480 412Q484 405 492 399C511 376 511 376 520 365Z"/>
<path id="z32512d5" d="M492 399Q567 456 570 457Q576 458 580 450Q587 440 576 411Q567 386 520 365C496 355 496 355 484 350Q447 334 425 328Q418 325 418 334Q418 340 466 377C483 392 483 392 492 399Z"/>
<path id="z32512d6" d="M755 341Q756 338 760 336Q785 305 810 267Q826 242 854 217Q866 207 861 199Q860 192 806 173Q790 166 774 178Q732 202 643 212Q627 213 637 226Q653 241 740 223Q759 217 766 225Q772 240 717 325C702 346 702 346 694 357Q666 391 620 435Q610 445 621 446Q660 437 722 377C744 353 744 353 755 341Z"/>
<path id="z32512d7" d="M722 377Q830 458 837 459Q844 459 848 450Q857 437 841 404Q829 370 755 341C730 330 730 330 717 325Q663 300 631 291Q624 288 623 298Q624 308 634 316Q662 334 694 357C713 370 713 370 722 377Z"/>
<path id="z32512d8" d="M516 688Q541 651 568 597Q581 575 602 558Q614 551 614 544Q613 534 589 520Q559 504 547 503Q538 504 529 511Q457 544 412 549Q382 550 380 558Q379 561 385 565Q398 575 423 577Q450 576 498 552Q516 546 523 551Q529 555 514 597Q504 630 481 663Q478 666 477 670C463 689 463 689 456 699Q396 768 317 808Q310 812 311 816Q311 820 317 819Q402 819 488 724C507 700 507 700 516 688Z"/>
<path id="z32512d9" d="M488 724Q548 775 554 777Q560 777 564 770Q571 760 560 731Q554 709 516 688C490 676 490 676 477 670Q431 648 405 640Q399 637 398 646Q398 652 456 699C477 716 477 716 488 724Z"/>
<path id="z32512d10" d="M759 724Q801 661 823 579Q827 549 845 534Q858 521 842 508Q824 495 795 484Q776 478 758 489Q721 510 666 520Q644 521 634 528Q627 534 642 542Q661 551 752 527Q771 521 771 543Q771 616 727 692C712 714 712 714 704 725Q703 725 703 726Q663 769 559 804Q546 808 555 814Q562 818 586 814Q676 802 729 759C749 736 749 736 759 724Z"/>
<path id="z32512d11" d="M729 759Q811 864 850 873Q866 874 960 863Q972 862 982 857Q989 851 979 844Q967 837 868 797Q814 773 759 724C738 703 738 703 727 692Q696 658 663 617Q648 598 622 593Q612 592 604 596Q600 602 607 608Q647 639 704 725C721 748 721 748 729 759Z"/>
<defs>
	<clipPath id="z32512c1"><use xlink:href="#z32512d1"/></clipPath>
	<clipPath id="z32512c2"><use xlink:href="#z32512d2"/></clipPath>
	<clipPath id="z32512c3"><use xlink:href="#z32512d3"/></clipPath>
	<clipPath id="z32512c4"><use xlink:href="#z32512d4"/></clipPath>
	<clipPath id="z32512c5"><use xlink:href="#z32512d5"/></clipPath>
	<clipPath id="z32512c6"><use xlink:href="#z32512d6"/></clipPath>
	<clipPath id="z32512c7"><use xlink:href="#z32512d7"/></clipPath>
	<clipPath id="z32512c8"><use xlink:href="#z32512d8"/></clipPath>
	<clipPath id="z32512c9"><use xlink:href="#z32512d9"/></clipPath>
	<clipPath id="z32512c10"><use xlink:href="#z32512d10"/></clipPath>
	<clipPath id="z32512c11"><use xlink:href="#z32512d11"/></clipPath>
</defs>
<path style="--d:1s;" pathLength="3333" clip-path="url(#z32512c1)" d="M252 111L284 162L152 393L170 413L288 389"/>
<path style="--d:2s;" pathLength="3333" clip-path="url(#z32512c2)" d="M349 256L377 299L201 552L218 570L365 525"/>
<path style="--d:3s;" pathLength="3333" clip-path="url(#z32512c3)" d="M94 731L157 742L373 617"/>
<path style="--d:4s;" pathLength="3333" clip-path="url(#z32512c4)" d="M423 253L529 227L573 243L483 383L395 467"/>
<path style="--d:5s;" pathLength="3333" clip-path="url(#z32512c5)" d="M426 336L544 407L571 451"/>
<path style="--d:6s;" pathLength="3333" clip-path="url(#z32512c6)" d="M643 220L775 197L814 216L710 365L626 440"/>
<path style="--d:7s;" pathLength="3333" clip-path="url(#z32512c7)" d="M630 300L786 387L841 451"/>
<path style="--d:8s;" pathLength="3333" clip-path="url(#z32512c8)" d="M390 559L535 529L568 552L467 717L320 813"/>
<path style="--d:9s;" pathLength="3333" clip-path="url(#z32512c9)" d="M403 645L521 720L558 769"/>
<path style="--d:10s;" pathLength="3333" clip-path="url(#z32512c10)" d="M640 533L784 508L810 527L786 614L708 749L561 809"/>
<path style="--d:11s;" pathLength="3333" clip-path="url(#z32512c11)" d="M610 599L837 823L977 849"/>
</svg>