<!--
AnimCJK 2016-2019 Copyright Francois Mizessyn - https://github.com/parsimonhi/animCJK
Derived from:
    MakeMeAHanzi project - https://github.com/skishore/makemeahanzi
    Arphic PL KaitiM GB font
    Arphic PL UKai font
You can redistribute and/or modify this file under the terms of the Arphic Public License
as published by Arphic Technology Co., Ltd.
You should have received a copy of this license along with this file.
If not, see http://ftp.gnu.org/non-gnu/chinese-fonts-truetype/LICENSE.
-->
<svg id="z32524" class="acjk" version="1.1" viewBox="0 0 1024 1024" xmlns="http://www.w3.org/2000/svg" xmlns:xlink="http://www.w3.org/1999/xlink">
<style>
<![CDATA[
@keyframes zk {
	to {
		stroke-dashoffset:0;
	}
}
svg.acjk path[clip-path] {
	--t:0.8s;
	animation:zk var(--t) linear forwards var(--d);
	stroke-dasharray:3337;
	stroke-dashoffset:3339;
	stroke-width:128;
	stroke-linecap:round;
	fill:none;
	stroke:#000;
}
svg.acjk path[id] {fill:#ccc;}
]]>
</style>
<path id="z32524d1" d="M296 440Q250 440 213 440Q177 441 195 419Q259 302 322 215Q335 197 333 190Q330 175 290 146Q274 133 255 137Q245 141 251 156Q272 205 173 385Q157 407 131 433Q113 448 115 460Q119 479 134 496Q144 506 157 499Q193 478 279 465C289 463 306 440 296 440Z"/>
<path id="z32524d2" d="M279 465Q192 588 170 599Q157 608 160 622Q161 635 187 654Q197 666 213 654Q258 620 358 584Q377 580 379 571Q382 561 362 564Q316 571 258 586Q227 598 247 570Q343 429 411 366Q423 356 416 346Q406 328 372 310Q356 301 347 304Q337 308 340 323Q343 360 296 440C285 457 285 457 279 465Z"/>
<path id="z32524d3" d="M115 783Q103 787 104 797Q104 810 115 816Q140 826 174 837Q184 837 193 827Q218 797 248 774Q294 740 338 705Q356 692 367 678Q377 668 376 659Q370 655 359 660Q163 774 115 783Z"/>
<path id="z32524d4" d="M468 212Q447 199 425 193Q418 192 414 196Q407 200 415 212Q455 281 463 435Q464 490 499 519Q500 519 503 521Q519 525 521 497C521 496 521 496 521 496C520 477 520 477 519 467Q495 311 492 241C492 228 478 220 468 212Z"/>
<path id="z32524d5" d="M704 472Q720 499 736 507Q746 516 763 494Q782 463 822 291Q832 260 857 235Q870 223 859 208Q844 190 801 163Q786 154 707 170Q701 170 697 172Q475 208 468 212C456 214 479 241 492 241Q502 242 514 240Q545 231 590 223C617 219 617 219 630 217Q747 196 761 209Q776 228 772 248Q732 432 710 444C702 450 698 464 704 472Z"/>
<path id="z32524d6" d="M648 347Q681 340 711 337Q733 333 725 320Q715 305 689 301Q673 300 650 305C619 313 619 313 603 317Q564 327 531 339Q515 343 535 357Q544 364 561 361Q583 357 604 354C633 349 633 349 648 347Z"/>
<path id="z32524d7" d="M644 441Q645 390 648 347C649 319 649 319 650 305Q656 242 651 236Q641 224 630 217C618 210 585 210 590 223Q599 244 603 311Q602 314 603 317C604 342 604 342 604 354Q604 393 605 450C605 463 644 454 644 441Z"/>
<path id="z32524d8" d="M521 496Q525 496 533 495Q587 482 704 472C714 472 718 449 710 444Q706 441 702 438Q690 432 644 441C618 447 618 447 605 450Q559 459 519 467C509 469 511 496 521 496Z"/>
<path id="z32524d9" d="M417 629Q396 684 366 735Q348 765 365 797Q372 813 392 801Q437 762 442 681Q446 651 439 629Q435 622 429 620Q422 621 417 629Z"/>
<path id="z32524d10" d="M902 824Q901 811 884 793Q859 765 795 671Q791 664 785 663Q782 663 783 670Q790 715 796 764Q799 785 784 794Q756 813 652 791Q576 772 549 713Q536 676 528 636Q524 612 507 600Q494 590 487 597Q483 600 487 616Q493 634 503 682Q521 793 610 834Q616 837 625 841Q763 895 890 835Q903 831 902 824Z"/>
<path id="z32524d11" d="M596 593Q627 624 662 661Q672 674 687 674Q696 674 701 663Q705 651 701 625Q694 588 595 552Q582 548 576 549Q572 552 572 564Q573 574 596 593Z"/>
<path id="z32524d12" d="M794 559Q840 595 896 647Q912 663 927 667Q934 667 941 658Q951 645 936 606Q920 557 793 531Q784 527 783 538Q784 551 794 559Z"/>
<defs>
	<clipPath id="z32524c1"><use xlink:href="#z32524d1"/></clipPath>
	<clipPath id="z32524c2"><use xlink:href="#z32524d2"/></clipPath>
	<clipPath id="z32524c3"><use xlink:href="#z32524d3"/></clipPath>
	<clipPath id="z32524c4"><use xlink:href="#z32524d4"/></clipPath>
	<clipPath id="z32524c5"><use xlink:href="#z32524d5"/></clipPath>
	<clipPath id="z32524c6"><use xlink:href="#z32524d6"/></clipPath>
	<clipPath id="z32524c7"><use xlink:href="#z32524d7"/></clipPath>
	<clipPath id="z32524c8"><use xlink:href="#z32524d8"/></clipPath>
	<clipPath id="z32524c9"><use xlink:href="#z32524d9"/></clipPath>
	<clipPath id="z32524c10"><use xlink:href="#z32524d10"/></clipPath>
	<clipPath id="z32524c11"><use xlink:href="#z32524d11"/></clipPath>
	<clipPath id="z32524c12"><use xlink:href="#z32524d12"/></clipPath>
</defs>
<path style="--d:1s;" pathLength="3333" clip-path="url(#z32524c1)" d="M256 146L291 200L152 448L175 470L285 443"/>
<path style="--d:2s;" pathLength="3333" clip-path="url(#z32524c2)" d="M349 310L376 355L203 605L225 624L372 569"/>
<path style="--d:3s;" pathLength="3333" clip-path="url(#z32524c3)" d="M108 796L172 801L368 663"/>
<path style="--d:4s;" pathLength="3333" clip-path="url(#z32524c4)" d="M417 201L463 248L501 512"/>
<path style="--d:5s;" pathLength="3333" clip-path="url(#z32524c5)" d="M477 215L751 183L808 211L818 231L726 499"/>
<path style="--d:6s;" pathLength="3333" clip-path="url(#z32524c6)" d="M530 346L721 327"/>
<path style="--d:7s;" pathLength="3333" clip-path="url(#z32524c7)" d="M599 228L626 254L615 446"/>
<path style="--d:8s;" pathLength="3333" clip-path="url(#z32524c8)" d="M530 488L706 458"/>
<path style="--d:9s;" pathLength="3333" clip-path="url(#z32524c9)" d="M429 624L372 799"/>
<path style="--d:10s;" pathLength="3333" clip-path="url(#z32524c10)" d="M494 600L561 769L662 823L763 834L850 807L787 672"/>
<path style="--d:11s;" pathLength="3333" clip-path="url(#z32524c11)" d="M579 558L666 621L689 669"/>
<path style="--d:12s;" pathLength="3333" clip-path="url(#z32524c12)" d="M789 538L879 589L935 659"/>
</svg>