<!--
AnimCJK 2016-2019 Copyright Francois Mizessyn - https://github.com/parsimonhi/animCJK
Derived from:
    MakeMeAHanzi project - https://github.com/skishore/makemeahanzi
    Arphic PL KaitiM GB font
    Arphic PL UKai font
You can redistribute and/or modify this file under the terms of the Arphic Public License
as published by Arphic Technology Co., Ltd.
You should have received a copy of this license along with this file.
If not, see http://ftp.gnu.org/non-gnu/chinese-fonts-truetype/LICENSE.
-->
<svg id="z32520" class="acjk" version="1.1" viewBox="0 0 1024 1024" xmlns="http://www.w3.org/2000/svg" xmlns:xlink="http://www.w3.org/1999/xlink">
<style>
<![CDATA[
@keyframes zk {
	to {
		stroke-dashoffset:0;
	}
}
svg.acjk path[clip-path] {
	--t:0.8s;
	animation:zk var(--t) linear forwards var(--d);
	stroke-dasharray:3337;
	stroke-dashoffset:3339;
	stroke-width:128;
	stroke-linecap:round;
	fill:none;
	stroke:#000;
}
svg.acjk path[id] {fill:#ccc;}
]]>
</style>
<path id="z32520d1" d="M270 411Q231 410 199 410Q162 411 181 388Q242 270 303 180Q316 164 312 156Q309 143 271 115Q255 102 237 107Q227 111 233 125Q255 179 160 353Q145 377 119 403Q103 416 104 428Q108 446 122 463Q132 473 144 466Q174 448 255 436C265 434 280 411 270 411Z"/>
<path id="z32520d2" d="M255 436Q168 560 148 572Q136 582 139 594Q140 607 166 624Q176 634 190 623Q244 580 332 545Q350 539 351 531Q352 521 335 525Q287 535 229 555Q207 565 220 544Q250 501 321 413Q346 377 370 356Q382 346 375 337Q365 319 333 303Q317 294 309 297Q299 301 302 315Q303 345 270 411C260 428 260 428 255 436Z"/>
<path id="z32520d3" d="M94 747Q82 751 82 760Q82 773 92 779Q116 791 149 804Q159 805 170 796Q194 769 310 689Q326 679 338 665Q350 656 349 648Q342 644 331 647Q133 743 94 747Z"/>
<path id="z32520d4" d="M420 249Q410 239 389 230Q380 226 371 230Q365 234 370 244Q371 253 375 262Q399 305 382 527Q367 623 367 627Q367 646 388 671Q397 683 405 672Q414 659 415 645C418 623 418 623 419 612Q420 596 420 573Q420 542 421 513C421 494 421 494 421 485Q422 445 423 413C424 394 424 394 424 384Q424 284 429 273C431 265 427 254 420 249Z"/>
<path id="z32520d5" d="M499 632Q508 645 517 659Q530 678 537 676Q547 675 558 646Q570 615 566 576Q545 299 567 257Q576 242 568 234Q561 225 520 215Q499 208 485 218Q451 237 420 249C412 252 421 276 429 273Q433 272 440 269Q494 245 504 251Q516 263 516 306Q520 487 514 588Q517 607 500 605Q494 604 494 606C485 608 494 625 499 632Z"/>
<path id="z32520d6" d="M423 413Q463 403 495 397Q514 393 506 382Q496 372 474 370Q455 370 424 384C415 388 414 415 423 413Z"/>
<path id="z32520d7" d="M421 513Q461 506 491 501Q510 497 501 486Q491 476 470 473Q451 473 421 485C412 488 412 515 421 513Z"/>
<path id="z32520d8" d="M415 645Q448 636 499 632C508 632 501 611 494 606Q491 603 485 600Q470 593 419 612C409 616 404 647 415 645Z"/>
<path id="z32520d9" d="M691 476Q682 506 703 552Q709 565 714 567Q718 571 725 566Q746 550 744 505Q743 481 744 260Q743 215 752 184Q758 172 756 162Q750 155 708 130Q690 118 675 130Q671 134 677 145Q692 166 699 347Q699 438 691 476Z"/>
<path id="z32520d10" d="M613 346Q600 388 581 426Q569 453 586 479Q593 492 609 480Q642 450 639 389Q639 362 631 344Q627 338 622 337Q615 338 613 346Z"/>
<path id="z32520d11" d="M828 356Q874 387 924 424Q937 434 952 433Q962 432 965 420Q968 407 958 380Q949 353 908 335Q866 322 820 312Q805 311 800 313Q796 317 798 329Q802 339 828 356Z"/>
<path id="z32520d12" d="M784 444Q785 591 636 736Q545 814 453 877Q444 884 451 888Q458 892 472 888Q628 837 722 722Q804 596 815 579Q830 545 865 494Q875 484 870 472Q864 460 832 438Q810 423 799 424Q784 427 784 444Z"/>
<defs>
	<clipPath id="z32520c1"><use xlink:href="#z32520d1"/></clipPath>
	<clipPath id="z32520c2"><use xlink:href="#z32520d2"/></clipPath>
	<clipPath id="z32520c3"><use xlink:href="#z32520d3"/></clipPath>
	<clipPath id="z32520c4"><use xlink:href="#z32520d4"/></clipPath>
	<clipPath id="z32520c5"><use xlink:href="#z32520d5"/></clipPath>
	<clipPath id="z32520c6"><use xlink:href="#z32520d6"/></clipPath>
	<clipPath id="z32520c7"><use xlink:href="#z32520d7"/></clipPath>
	<clipPath id="z32520c8"><use xlink:href="#z32520d8"/></clipPath>
	<clipPath id="z32520c9"><use xlink:href="#z32520d9"/></clipPath>
	<clipPath id="z32520c10"><use xlink:href="#z32520d10"/></clipPath>
	<clipPath id="z32520c11"><use xlink:href="#z32520d11"/></clipPath>
	<clipPath id="z32520c12"><use xlink:href="#z32520d12"/></clipPath>
</defs>
<path style="--d:1s;" pathLength="3333" clip-path="url(#z32520c1)" d="M236 112L273 166L141 418L156 437L260 418"/>
<path style="--d:2s;" pathLength="3333" clip-path="url(#z32520c2)" d="M311 303L336 347L180 573L199 593L342 531"/>
<path style="--d:3s;" pathLength="3333" clip-path="url(#z32520c3)" d="M87 759L150 767L341 653"/>
<path style="--d:4s;" pathLength="3333" clip-path="url(#z32520c4)" d="M376 237L406 299L395 673"/>
<path style="--d:5s;" pathLength="3333" clip-path="url(#z32520c5)" d="M430 266L497 231L541 251L529 669"/>
<path style="--d:6s;" pathLength="3333" clip-path="url(#z32520c6)" d="M428 404L503 384"/>
<path style="--d:7s;" pathLength="3333" clip-path="url(#z32520c7)" d="M427 504L496 489"/>
<path style="--d:8s;" pathLength="3333" clip-path="url(#z32520c8)" d="M423 637L495 616"/>
<path style="--d:9s;" pathLength="3333" clip-path="url(#z32520c9)" d="M679 130L722 181L719 564"/>
<path style="--d:10s;" pathLength="3333" clip-path="url(#z32520c10)" d="M622 348L598 480"/>
<path style="--d:11s;" pathLength="3333" clip-path="url(#z32520c11)" d="M804 318L906 370L957 425"/>
<path style="--d:12s;" pathLength="3333" clip-path="url(#z32520c12)" d="M796 430L823 496L699 708L605 795L456 882"/>
</svg>