<!--
AnimCJK 2016-2017 Copyright Francois Mizessyn, http://gooo.free.fr/animCJK/
Derived from:
    MakeMeAHanzi project - https://github.com/skishore/makemeahanzi
    Arphic PL KaitiM GB - https://apps.ubuntu.com/cat/applications/precise/fonts-arphic-gkai00mp/
    Arphic PL UKai - https://apps.ubuntu.com/cat/applications/fonts-arphic-ukai/
You can redistribute and/or modify this file under the terms of the Arphic Public License
as published by Arphic Technology Co., Ltd.
You should have received a copy of this license (the directory "APL") along with this file;
if not, see http://ftp.gnu.org/non-gnu/chinese-fonts-truetype/LICENSE.
-->
<svg id="z32533" class="acjk" version="1.1" viewBox="0 0 1024 1024" xmlns="http://www.w3.org/2000/svg" xmlns:xlink="http://www.w3.org/1999/xlink">
<style>
<![CDATA[
	@keyframes z32533k {
		from {
			stroke:#c00;
			stroke-dashoffset:3000;
		}
		75% {
			stroke:#c00;
			stroke-dashoffset:0;
		}
		to {
			stroke:#000;
		}
	}
	#z32533 path[clip-path] {
		animation:z32533k 1s linear both;
		stroke-dasharray:3000;
		stroke-width:128;
		stroke-linecap:round;
		fill:none;
	}
	#z32533 path[clip-path="url(#z32533c1)"] {animation-delay:1s;}
	#z32533 path[clip-path="url(#z32533c2)"] {animation-delay:2s;}
	#z32533 path[clip-path="url(#z32533c3)"] {animation-delay:3s;}
	#z32533 path[clip-path="url(#z32533c4)"] {animation-delay:4s;}
	#z32533 path[clip-path="url(#z32533c5)"] {animation-delay:5s;}
	#z32533 path[clip-path="url(#z32533c6)"] {animation-delay:6s;}
	#z32533 path[clip-path="url(#z32533c7)"] {animation-delay:7s;}
	#z32533 path[clip-path="url(#z32533c8)"] {animation-delay:8s;}
	#z32533 path[clip-path="url(#z32533c9)"] {animation-delay:9s;}
	#z32533 path[clip-path="url(#z32533c10)"] {animation-delay:10s;}
	#z32533 path[clip-path="url(#z32533c11)"] {animation-delay:11s;}
	#z32533 path[clip-path="url(#z32533c12)"] {animation-delay:12s;}
	#z32533 path {fill:#ccc;}
]]>
</style>
<g transform="scale(1,-1) translate(0,-900)">
	<path id="z32533d1" d="M302 513Q301 514 298 513Q253 512 217 512Q183 511 200 532Q264 644 326 729Q339 747 337 754Q334 769 294 798Q278 811 260 807Q248 804 255 789Q262 773 258 746Q248 697 191 590Q173 554 135 519Q117 504 119 492Q123 473 138 456Q147 447 164 455Q200 477 284 488L302 513Z"/>
	<path id="z32533d2" d="M284 488Q187 356 168 345Q155 336 157 322Q158 309 185 290Q195 280 210 291Q273 339 354 367Q373 373 375 381Q378 391 358 387Q312 378 253 361Q228 351 243 373Q280 427 370 535Q398 572 422 593Q434 603 428 613Q418 632 384 650Q368 659 359 656Q349 653 352 638Q355 599 302 513L284 488Z"/>
	<path id="z32533d3" d="M98 175Q86 171 86 161Q85 148 96 141Q121 129 156 116Q166 115 177 124Q267 193 358 262Q370 272 369 281Q362 285 351 281Q141 179 98 175Z"/>
	<path id="z32533d4" d="M480 681Q519 615 541 612Q554 608 562 625Q566 638 559 658Q546 686 488 706Q479 709 477 698Q476 691 480 681Z"/>
	<path id="z32533d5" d="M735 727Q719 702 687 660Q683 653 687 647Q694 646 701 650Q771 690 804 706Q820 710 817 721Q811 736 794 754Q776 770 755 773Q742 773 742 755Q743 742 735 727Z"/>
	<path id="z32533d6" d="M650 557Q707 569 822 580Q832 579 841 591Q842 601 820 612Q793 633 722 613Q689 606 656 598Q649 597 642 594L604 587Q565 581 531 577Q491 573 444 567Q417 564 438 547Q468 523 508 532Q532 538 562 541L650 557Z"/>
	<path id="z32533d7" d="M642 594Q645 711 672 760Q678 769 667 782Q619 824 590 814Q577 810 583 796Q608 756 605 692Q605 634 604 587L601 527Q597 470 591 444Q590 431 595 414Q601 405 606 394Q615 379 629 387Q638 396 639 533L642 594Z"/>
	<path id="z32533d8" d="M562 541Q511 465 431 400Q416 391 401 378Q388 368 400 366Q409 365 440 378Q474 391 504 415Q531 437 561 471Q586 499 600 525Q600 526 601 527L602.0642201834862 548.2844036697247L562 541Z"/>
	<path id="z32533d9" d="M639 533Q685 472 737 415Q756 396 788 394Q846 390 907 400Q923 401 924 406Q927 412 914 417Q772 466 710 509Q692 521 650 557L640.0917293233083 555.1984962406015L639 533Z"/>
	<path id="z32533d10" d="M638 77Q686 47 750 -4Q775 -23 791 -23Q810 -22 811 -3Q810 16 783 59Q768 83 673 118L625 136Q576 154 543 162Q524 166 534 184Q555 224 570 252L591 290Q603 315 615 330Q624 337 622 346Q618 359 583 387Q573 396 562 393Q550 390 557 375Q564 353 556 331Q549 306 540 284L523 244Q507 207 489 184Q479 168 482 155Q485 145 501 142Q564 126 594 103L638 77Z"/>
	<path id="z32533d11" d="M594 103Q537 57 408 25Q390 16 411 13Q546 -2 638 77L673 118Q674 122 678 126Q709 169 727 223Q734 253 744 267L741 311Q707 335 679 331Q666 327 672 312Q673 308 676 302L679 264Q678 242 667 213Q652 164 625 136L594 103Z"/>
	<path id="z32533d12" d="M744 267Q798 270 864 268Q918 265 926 275Q932 285 916 299Q862 339 799 322Q772 318 741 311L676 302Q640 301 591 290L540 284Q474 277 404 268Q385 267 398 251Q411 238 428 233Q447 227 463 231Q491 238 523 244L570 252Q621 261 679 264L744 267Z"/>
	<defs>
		<clipPath id="z32533c1"><use xlink:href="#z32533d1"/></clipPath>
		<clipPath id="z32533c2"><use xlink:href="#z32533d2"/></clipPath>
		<clipPath id="z32533c3"><use xlink:href="#z32533d3"/></clipPath>
		<clipPath id="z32533c4"><use xlink:href="#z32533d4"/></clipPath>
		<clipPath id="z32533c5"><use xlink:href="#z32533d5"/></clipPath>
		<clipPath id="z32533c6"><use xlink:href="#z32533d6"/></clipPath>
		<clipPath id="z32533c7"><use xlink:href="#z32533d7"/></clipPath>
		<clipPath id="z32533c8"><use xlink:href="#z32533d8"/></clipPath>
		<clipPath id="z32533c9"><use xlink:href="#z32533d9"/></clipPath>
		<clipPath id="z32533c10"><use xlink:href="#z32533d10"/></clipPath>
		<clipPath id="z32533c11"><use xlink:href="#z32533d11"/></clipPath>
		<clipPath id="z32533c12"><use xlink:href="#z32533d12"/></clipPath>
	</defs>
	<path pathLength="2999" clip-path="url(#z32533c1)" d="M259 801L297 750L158 502L175 484L291 508"/>
	<path pathLength="2999" clip-path="url(#z32533c2)" d="M359 652L389 606L201 342L224 323L369 381"/>
	<path pathLength="2999" clip-path="url(#z32533c3)" d="M89 162L163 156L362 274"/>
	<path pathLength="2999" clip-path="url(#z32533c4)" d="M485 697L552 616"/>
	<path pathLength="2999" clip-path="url(#z32533c5)" d="M752 766L774 719L691 655"/>
	<path pathLength="2999" clip-path="url(#z32533c6)" d="M439 558L836 595"/>
	<path pathLength="2999" clip-path="url(#z32533c7)" d="M588 808L638 755L618 388"/>
	<path pathLength="2999" clip-path="url(#z32533c8)" d="M596 541L488 425L402 370"/>
	<path pathLength="2999" clip-path="url(#z32533c9)" d="M645 551L767 436L915 408"/>
	<path pathLength="2999" clip-path="url(#z32533c10)" d="M563 384L589 338L507 161L713 67L802 -16"/>
	<path pathLength="2999" clip-path="url(#z32533c11)" d="M679 325L711 265L627 102L546 48L408 20"/>
	<path pathLength="2999" clip-path="url(#z32533c12)" d="M405 257L827 298L922 282"/>
</g>
</svg>