<!--
AnimCJK 2016-2019 Copyright Francois Mizessyn - https://github.com/parsimonhi/animCJK
Derived from:
    MakeMeAHanzi project - https://github.com/skishore/makemeahanzi
    Arphic PL KaitiM GB font
    Arphic PL UKai font
You can redistribute and/or modify this file under the terms of the Arphic Public License
as published by Arphic Technology Co., Ltd.
You should have received a copy of this license along with this file.
If not, see http://ftp.gnu.org/non-gnu/chinese-fonts-truetype/LICENSE.
-->
<svg id="z32543" class="acjk" version="1.1" viewBox="0 0 1024 1024" xmlns="http://www.w3.org/2000/svg" xmlns:xlink="http://www.w3.org/1999/xlink">
<style>
<![CDATA[
@keyframes zk {
	to {
		stroke-dashoffset:0;
	}
}
svg.acjk path[clip-path] {
	--t:0.8s;
	animation:zk var(--t) linear forwards var(--d);
	stroke-dasharray:3337;
	stroke-dashoffset:3339;
	stroke-width:128;
	stroke-linecap:round;
	fill:none;
	stroke:#000;
}
svg.acjk path[id] {fill:#ccc;}
]]>
</style>
<path id="z32543d1" d="M305 400Q259 400 221 400Q187 401 204 380Q270 265 333 179Q346 161 344 154Q343 139 302 109Q286 96 268 100Q256 104 263 119Q282 162 182 346Q164 368 139 393Q121 408 123 420Q127 438 142 456Q152 466 165 459Q187 446 267 428Q277 427 287 426C297 424 316 400 305 400Z"/>
<path id="z32543d2" d="M287 426Q193 558 174 567Q161 576 164 590Q165 603 192 622Q202 634 217 622Q278 580 374 548Q393 544 395 535Q398 525 378 528Q326 535 262 553Q229 566 250 538Q290 478 384 358Q411 321 435 298Q447 288 440 278Q430 260 396 242Q380 233 371 237Q361 240 364 255Q367 300 307 398Q306 398 305 400C293 417 293 417 287 426Z"/>
<path id="z32543d3" d="M114 763Q101 767 101 777Q101 790 112 795Q136 807 170 819Q180 820 190 810Q209 786 340 695Q359 683 371 669Q381 660 380 651Q374 647 363 652Q162 757 114 763Z"/>
<path id="z32543d4" d="M591 120Q619 139 650 163Q665 173 679 171Q689 170 693 156Q696 141 684 114Q671 87 580 75Q565 74 560 77Q556 81 558 93Q562 103 591 120Z"/>
<path id="z32543d5" d="M494 244Q458 250 483 266Q519 291 577 278Q671 262 767 243Q812 233 818 227Q827 220 823 212Q816 200 788 192Q760 186 730 197Q679 213 625 226Q564 239 494 244Z"/>
<path id="z32543d6" d="M546 353Q536 347 506 345Q496 344 492 348Q488 354 496 367Q518 404 536 465Q540 484 553 495Q569 513 574 499Q575 492 576 480C573 461 573 461 571 451Q561 399 558 380C556 370 555 357 546 353Z"/>
<path id="z32543d7" d="M744 430Q765 385 785 373Q800 357 787 342Q774 332 729 310Q713 303 695 310Q644 332 546 353C536 355 548 382 558 380Q561 379 685 352Q700 348 706 355Q712 361 699 425C696 440 738 444 744 430Z"/>
<path id="z32543d8" d="M576 480Q582 480 589 479Q641 467 753 458Q763 457 764 450Q764 443 744 430C732 421 714 422 699 425Q698 425 697 425Q627 441 571 451C561 453 566 480 576 480Z"/>
<path id="z32543d9" d="M460 574Q438 564 422 565Q410 569 416 579Q449 642 426 766Q407 826 437 857Q444 869 452 863Q479 844 479 706Q479 637 481 613C481 598 474 579 460 574Z"/>
<path id="z32543d10" d="M481 613Q488 612 497 609Q611 564 795 550Q816 551 824 562Q831 571 827 585Q833 778 821 808Q818 815 808 812Q781 808 752 802Q724 798 743 817Q809 869 835 908Q848 923 861 911Q877 892 885 864Q895 834 888 672Q885 611 902 581Q917 560 910 553Q903 540 852 509Q833 496 818 502Q790 514 739 524Q585 543 526 560Q489 569 460 574C445 576 467 616 481 613Z"/>
<path id="z32543d11" d="M568 647Q559 643 542 640Q533 637 530 641Q526 645 531 658Q550 697 560 759Q561 778 572 791Q585 807 589 796Q593 787 592 771C590 752 590 752 589 743Q582 688 581 670C581 661 576 650 568 647Z"/>
<path id="z32543d12" d="M726 728Q741 680 758 667Q777 645 758 633Q742 623 720 609Q704 599 662 622Q616 637 568 647C559 648 573 673 581 670Q588 667 665 650Q687 646 694 654Q698 658 693 681Q689 699 683 720C680 734 721 742 726 728Z"/>
<path id="z32543d13" d="M592 771Q598 771 605 770Q645 761 734 754Q743 753 744 746Q744 740 726 728C715 719 697 717 683 720Q679 720 677 721Q628 734 589 743C580 745 583 771 592 771Z"/>
<defs>
	<clipPath id="z32543c1"><use xlink:href="#z32543d1"/></clipPath>
	<clipPath id="z32543c2"><use xlink:href="#z32543d2"/></clipPath>
	<clipPath id="z32543c3"><use xlink:href="#z32543d3"/></clipPath>
	<clipPath id="z32543c4"><use xlink:href="#z32543d4"/></clipPath>
	<clipPath id="z32543c5"><use xlink:href="#z32543d5"/></clipPath>
	<clipPath id="z32543c6"><use xlink:href="#z32543d6"/></clipPath>
	<clipPath id="z32543c7"><use xlink:href="#z32543d7"/></clipPath>
	<clipPath id="z32543c8"><use xlink:href="#z32543d8"/></clipPath>
	<clipPath id="z32543c9"><use xlink:href="#z32543d9"/></clipPath>
	<clipPath id="z32543c10"><use xlink:href="#z32543d10"/></clipPath>
	<clipPath id="z32543c11"><use xlink:href="#z32543d11"/></clipPath>
	<clipPath id="z32543c12"><use xlink:href="#z32543d12"/></clipPath>
	<clipPath id="z32543c13"><use xlink:href="#z32543d13"/></clipPath>
</defs>
<path style="--d:1s;" pathLength="3333" clip-path="url(#z32543c1)" d="M269 106L302 163L164 410L179 430L297 406"/>
<path style="--d:2s;" pathLength="3333" clip-path="url(#z32543c2)" d="M371 243L401 289L208 570L227 592L387 536"/>
<path style="--d:3s;" pathLength="3333" clip-path="url(#z32543c3)" d="M108 777L173 781L373 657"/>
<path style="--d:4s;" pathLength="3333" clip-path="url(#z32543c4)" d="M565 84L645 120L685 165"/>
<path style="--d:5s;" pathLength="3333" clip-path="url(#z32543c5)" d="M481 253L551 260L820 214"/>
<path style="--d:6s;" pathLength="3333" clip-path="url(#z32543c6)" d="M500 355L531 379L568 497"/>
<path style="--d:7s;" pathLength="3333" clip-path="url(#z32543c7)" d="M554 358L714 330L750 365L717 426"/>
<path style="--d:8s;" pathLength="3333" clip-path="url(#z32543c8)" d="M579 457L758 447"/>
<path style="--d:9s;" pathLength="3333" clip-path="url(#z32543c9)" d="M422 573L455 617L446 859"/>
<path style="--d:10s;" pathLength="3333" clip-path="url(#z32543c10)" d="M471 579L811 527L858 549L850 844L828 864L744 810"/>
<path style="--d:11s;" pathLength="3333" clip-path="url(#z32543c11)" d="M537 647L564 687L582 794"/>
<path style="--d:12s;" pathLength="3333" clip-path="url(#z32543c12)" d="M576 649L709 632L731 658L697 722"/>
<path style="--d:13s;" pathLength="3333" clip-path="url(#z32543c13)" d="M598 764L739 745"/>
</svg>