<!--
AnimCJK 2016-2019 Copyright Francois Mizessyn - https://github.com/parsimonhi/animCJK
Derived from:
    MakeMeAHanzi project - https://github.com/skishore/makemeahanzi
    Arphic PL KaitiM GB font
    Arphic PL UKai font
You can redistribute and/or modify this file under the terms of the Arphic Public License
as published by Arphic Technology Co., Ltd.
You should have received a copy of this license along with this file.
If not, see http://ftp.gnu.org/non-gnu/chinese-fonts-truetype/LICENSE.
-->
<svg id="z32556" class="acjk" version="1.1" viewBox="0 0 1024 1024" xmlns="http://www.w3.org/2000/svg" xmlns:xlink="http://www.w3.org/1999/xlink">
<style>
<![CDATA[
@keyframes zk {
	to {
		stroke-dashoffset:0;
	}
}
svg.acjk path[clip-path] {
	--t:0.8s;
	animation:zk var(--t) linear forwards var(--d);
	stroke-dasharray:3337;
	stroke-dashoffset:3339;
	stroke-width:128;
	stroke-linecap:round;
	fill:none;
	stroke:#000;
}
svg.acjk path[id] {fill:#ccc;}
]]>
</style>
<path id="z32556d1" d="M245 400Q209 400 178 400Q144 401 160 380Q217 271 271 188Q284 170 281 164Q277 151 238 123Q222 111 205 116Q195 119 201 133Q219 172 149 326Q133 360 99 395Q83 410 84 421Q88 439 103 455Q113 465 125 458Q167 431 230 424C239 422 254 400 245 400Z"/>
<path id="z32556d2" d="M230 424Q155 544 132 558Q120 567 124 579Q125 592 151 607Q161 617 174 605Q222 565 301 532Q317 526 319 519Q320 509 304 514Q261 523 210 540Q185 552 200 529Q231 477 307 374Q329 338 351 318Q361 308 355 299Q345 283 313 268Q298 261 290 264Q281 268 284 281Q290 317 245 400C235 416 235 416 230 424Z"/>
<path id="z32556d3" d="M84 725Q72 729 73 739Q73 751 83 756Q107 766 139 777Q149 778 158 767Q179 740 283 661Q298 649 307 637Q317 628 316 620Q310 616 300 620Q123 719 84 725Z"/>
<path id="z32556d4" d="M490 347Q515 337 546 329Q570 322 574 318Q581 309 576 302Q569 292 541 288Q516 285 493 296C462 309 462 309 447 315Q438 316 431 320Q400 330 361 337Q328 346 353 359Q395 377 443 360Q444 359 447 360C462 360 476 353 490 347Z"/>
<path id="z32556d5" d="M485 443Q486 394 490 347C492 313 492 313 493 296Q494 200 513 122Q516 112 497 98Q463 80 441 77Q425 74 418 82Q411 89 419 103Q441 134 441 155Q445 231 447 315C447 345 447 345 447 360Q446 405 445 455C445 469 485 457 485 443Z"/>
<path id="z32556d6" d="M445 455Q423 459 403 464Q385 467 365 471Q346 475 362 486Q384 501 404 498Q441 488 550 464Q557 464 563 455Q563 446 547 440Q511 428 485 443C458 451 458 451 445 455Z"/>
<path id="z32556d7" d="M387 575Q377 571 360 568Q350 564 346 569Q342 573 348 588Q370 640 383 724Q384 749 399 766Q412 785 418 772Q424 756 420 723C417 703 417 703 416 693Q406 615 405 597C405 588 396 579 387 575Z"/>
<path id="z32556d8" d="M541 679Q554 613 575 594Q594 572 574 560Q558 551 536 536Q520 527 504 537Q468 558 387 575C378 577 396 599 405 597C457 584 457 584 483 578Q505 574 510 582Q516 586 510 615Q504 640 498 669C495 683 538 693 541 679Z"/>
<path id="z32556d9" d="M420 723Q430 724 440 721Q474 714 546 705Q556 704 557 695Q557 689 541 679C528 671 513 667 498 669Q491 669 484 672Q447 685 416 693C406 695 410 723 420 723Z"/>
<path id="z32556d10" d="M727 230Q769 218 875 204Q885 205 893 193Q894 183 873 173Q839 152 751 181Q745 181 741 183Q699 193 595 209Q568 213 590 229Q618 250 661 242Q673 239 689 237C714 232 714 232 727 230Z"/>
<path id="z32556d11" d="M688 367Q742 274 745 271Q757 261 750 252Q743 242 727 230C717 222 686 224 689 237Q698 261 666 352Q662 362 660 372C658 381 682 375 688 367Z"/>
<path id="z32556d12" d="M642 374Q624 361 605 355Q598 354 592 360Q591 364 596 374Q629 449 604 605Q586 674 611 705Q621 715 628 705Q649 678 650 545Q650 428 655 400C657 390 650 380 642 374Z"/>
<path id="z32556d13" d="M810 652Q803 674 816 693Q829 718 838 718Q851 717 865 686Q878 662 876 643Q845 448 879 392Q897 364 812 331Q799 327 778 335Q747 351 707 362Q695 363 688 367C669 370 669 370 660 372Q650 372 642 374C632 376 645 400 655 400Q659 400 666 399Q780 369 794 378Q804 397 810 453Q817 619 810 652Z"/>
<path id="z32556d14" d="M706 524Q716 728 634 817Q607 845 549 883Q539 887 537 891Q533 895 546 897Q601 897 686 813Q693 803 701 791Q749 709 750 551Q751 527 759 499Q763 490 756 484Q713 450 685 460Q670 467 683 479Q705 501 706 524Z"/>
<path id="z32556d15" d="M775 767Q811 816 852 886Q862 908 876 915Q883 918 893 910Q906 900 904 857Q901 806 782 739Q775 732 770 743Q767 756 775 767Z"/>
<defs>
	<clipPath id="z32556c1"><use xlink:href="#z32556d1"/></clipPath>
	<clipPath id="z32556c2"><use xlink:href="#z32556d2"/></clipPath>
	<clipPath id="z32556c3"><use xlink:href="#z32556d3"/></clipPath>
	<clipPath id="z32556c4"><use xlink:href="#z32556d4"/></clipPath>
	<clipPath id="z32556c5"><use xlink:href="#z32556d5"/></clipPath>
	<clipPath id="z32556c6"><use xlink:href="#z32556d6"/></clipPath>
	<clipPath id="z32556c7"><use xlink:href="#z32556d7"/></clipPath>
	<clipPath id="z32556c8"><use xlink:href="#z32556d8"/></clipPath>
	<clipPath id="z32556c9"><use xlink:href="#z32556d9"/></clipPath>
	<clipPath id="z32556c10"><use xlink:href="#z32556d10"/></clipPath>
	<clipPath id="z32556c11"><use xlink:href="#z32556d11"/></clipPath>
	<clipPath id="z32556c12"><use xlink:href="#z32556d12"/></clipPath>
	<clipPath id="z32556c13"><use xlink:href="#z32556d13"/></clipPath>
	<clipPath id="z32556c14"><use xlink:href="#z32556d14"/></clipPath>
	<clipPath id="z32556c15"><use xlink:href="#z32556d15"/></clipPath>
</defs>
<path style="--d:1s;" pathLength="3333" clip-path="url(#z32556c1)" d="M206 122L241 175L123 413L141 429L238 407"/>
<path style="--d:2s;" pathLength="3333" clip-path="url(#z32556c2)" d="M293 269L319 310L163 560L182 577L313 519"/>
<path style="--d:3s;" pathLength="3333" clip-path="url(#z32556c3)" d="M78 739L145 739L309 625"/>
<path style="--d:4s;" pathLength="3333" clip-path="url(#z32556c4)" d="M352 349L573 302"/>
<path style="--d:5s;" pathLength="3333" clip-path="url(#z32556c5)" d="M423 88L475 128L455 450"/>
<path style="--d:6s;" pathLength="3333" clip-path="url(#z32556c6)" d="M364 478L557 453"/>
<path style="--d:7s;" pathLength="3333" clip-path="url(#z32556c7)" d="M352 573L382 612L408 770"/>
<path style="--d:8s;" pathLength="3333" clip-path="url(#z32556c8)" d="M397 579L528 562L548 583L519 673"/>
<path style="--d:9s;" pathLength="3333" clip-path="url(#z32556c9)" d="M423 715L550 695"/>
<path style="--d:10s;" pathLength="3333" clip-path="url(#z32556c10)" d="M590 220L888 191"/>
<path style="--d:11s;" pathLength="3333" clip-path="url(#z32556c11)" d="M697 246L718 279L670 367"/>
<path style="--d:12s;" pathLength="3333" clip-path="url(#z32556c12)" d="M598 361L631 405L617 701"/>
<path style="--d:13s;" pathLength="3333" clip-path="url(#z32556c13)" d="M652 377L799 353L841 388L842 713"/>
<path style="--d:14s;" pathLength="3333" clip-path="url(#z32556c14)" d="M681 467L732 508L708 721L656 818L543 889"/>
<path style="--d:15s;" pathLength="3333" clip-path="url(#z32556c15)" d="M776 746L860 836L879 911"/>
</svg>