<!--
AnimCJK 2016-2019 Copyright Francois Mizessyn - https://github.com/parsimonhi/animCJK
Derived from:
    MakeMeAHanzi project - https://github.com/skishore/makemeahanzi
    Arphic PL KaitiM GB font
    Arphic PL UKai font
You can redistribute and/or modify this file under the terms of the Arphic Public License
as published by Arphic Technology Co., Ltd.
You should have received a copy of this license along with this file.
If not, see http://ftp.gnu.org/non-gnu/chinese-fonts-truetype/LICENSE.
-->
<svg id="z32597" class="acjk" version="1.1" viewBox="0 0 1024 1024" xmlns="http://www.w3.org/2000/svg" xmlns:xlink="http://www.w3.org/1999/xlink">
<style>
<![CDATA[
@keyframes zk {
	to {
		stroke-dashoffset:0;
	}
}
svg.acjk path[clip-path] {
	--t:0.8s;
	animation:zk var(--t) linear forwards var(--d);
	stroke-dasharray:3337;
	stroke-dashoffset:3339;
	stroke-width:128;
	stroke-linecap:round;
	fill:none;
	stroke:#000;
}
svg.acjk path[id] {fill:#ccc;}
]]>
</style>
<path id="z32597d1" d="M308 190Q295 165 284 156Q265 140 262 168Q266 201 227 248Q179 293 211 357Q227 385 249 356Q255 344 307 222C311 212 313 200 308 190Z"/>
<path id="z32597d2" d="M307 222Q328 232 351 227Q522 179 706 167Q719 167 727 168Q743 181 740 188Q730 228 719 270C720 271 720 271 721 271Q728 275 745 262Q796 228 837 216Q871 206 871 197Q870 187 797 137Q773 119 707 133Q613 145 398 178Q353 185 308 190C297 192 297 218 307 222Z"/>
<path id="z32597d3" d="M384 278Q388 291 382 300Q352 352 282 421Q272 428 270 432Q266 439 277 440Q319 440 415 353Q428 340 440 333Q449 327 447 316Q446 306 428 283Q410 264 396 261Q381 260 384 278Z"/>
<path id="z32597d4" d="M606 309Q643 337 684 371Q697 381 711 381Q721 380 725 368Q729 355 720 327Q708 288 600 265Q585 262 580 265Q576 269 577 281Q581 291 606 309Z"/>
<path id="z32597d5" d="M539 465Q662 441 670 437Q680 430 675 420Q668 408 638 400Q611 394 502 424Q375 442 363 443Q326 447 352 466Q391 493 453 480Q460 479 472 477C517 469 517 469 539 465Z"/>
<path id="z32597d6" d="M549 630Q666 621 830 625Q861 626 890 627Q912 627 918 618Q925 605 907 588Q844 540 792 553Q696 568 550 589C508 594 508 594 487 597Q328 613 143 631Q119 632 136 653Q170 687 215 678Q384 636 487 636C528 632 528 632 549 630Z"/>
<path id="z32597d7" d="M489 928Q495 955 501 965Q507 972 515 970Q545 952 546 788Q545 751 549 630C550 603 550 603 550 589Q551 576 552 561Q553 542 555 530Q559 514 561 501Q565 482 550 472Q544 468 539 465C520 453 460 458 472 477Q487 492 487 597C487 623 487 623 487 636Q487 912 489 928Z"/>
<defs>
	<clipPath id="z32597c1"><use xlink:href="#z32597d1"/></clipPath>
	<clipPath id="z32597c2"><use xlink:href="#z32597d2"/></clipPath>
	<clipPath id="z32597c3"><use xlink:href="#z32597d3"/></clipPath>
	<clipPath id="z32597c4"><use xlink:href="#z32597d4"/></clipPath>
	<clipPath id="z32597c5"><use xlink:href="#z32597d5"/></clipPath>
	<clipPath id="z32597c6"><use xlink:href="#z32597d6"/></clipPath>
	<clipPath id="z32597c7"><use xlink:href="#z32597d7"/></clipPath>
</defs>
<path style="--d:1s;" pathLength="3333" clip-path="url(#z32597c1)" d="M272 159L281 212L235 298L231 366"/>
<path style="--d:2s;" pathLength="3333" clip-path="url(#z32597c2)" d="M314 216L748 150L817 208L727 265"/>
<path style="--d:3s;" pathLength="3333" clip-path="url(#z32597c3)" d="M392 266L413 313L276 433"/>
<path style="--d:4s;" pathLength="3333" clip-path="url(#z32597c4)" d="M585 273L681 327L716 374"/>
<path style="--d:5s;" pathLength="3333" clip-path="url(#z32597c5)" d="M348 452L670 426"/>
<path style="--d:6s;" pathLength="3333" clip-path="url(#z32597c6)" d="M135 641L194 653L795 588L915 602"/>
<path style="--d:7s;" pathLength="3333" clip-path="url(#z32597c7)" d="M481 479L522 502L512 966"/>
</svg>