<!--
AnimCJK 2016-2025 Copyright FM-SH - https://github.com/parsimonhi/animCJK
Derived from:
    MakeMeAHanzi project - https://github.com/skishore/makemeahanzi
    Arphic PL KaitiM GB font
    Arphic PL KaitiM Big5 font
You can redistribute and/or modify this file under the terms of the Arphic Public License
as published by Arphic Technology Co., Ltd.
You should have received a copy of this license along with this file.
If not, see https://ftp.gnu.org/non-gnu/chinese-fonts-truetype/LICENSE.
-->
<svg id="z32626" class="acjk" viewBox="0 0 1024 1024" xmlns="http://www.w3.org/2000/svg">
<style>
<![CDATA[
@keyframes zk {
	to {
		stroke-dashoffset:0;
	}
}
svg.acjk path[clip-path] {
	--t:0.8s;
	animation:zk var(--t) linear forwards var(--d);
	stroke-dasharray:3337;
	stroke-dashoffset:3339;
	stroke-width:128;
	stroke-linecap:round;
	fill:none;
	stroke:#000;
}
svg.acjk path[id] {fill:#ccc;}
]]>
</style>
<path id="z32626d1" d="M313 110C306 105 290 103 268 101C258 100 255 100 253 104C249 109 249 114 257 126C275 156 293 199 307 254C311 269 316 283 327 294C340 307 347 309 350 298C351 293 352 287 352 283C351 274 351 265 350 257C345 222 332 176 326 142C324 131 323 115 313 110Z"/>
<path id="z32626d2" d="M669 248C679 264 689 275 700 283C705 286 715 283 726 271C732 262 745 233 763 183C770 162 780 144 797 129C805 120 806 110 800 103C789 90 772 75 745 59C727 47 598 67 452 91C401 99 355 105 313 110C302 112 314 142 326 142C328 142 334 142 342 141C366 135 393 129 425 124C442 121 442 121 450 120C484 114 524 106 570 102C596 99 596 99 609 98C638 96 685 82 706 104C710 108 713 116 712 122C700 180 689 213 680 221C673 228 663 240 669 248Z"/>
<path id="z32626d3" d="M473 241C474 211 469 184 456 138C454 130 454 125 450 120C446 113 424 116 425 124C427 134 428 147 429 167C430 204 438 231 451 244C456 250 473 248 473 241Z"/>
<path id="z32626d4" d="M573 226C606 161 614 142 623 132C628 124 629 119 626 113C622 108 616 103 609 98C598 91 567 89 570 102C576 118 572 159 548 230C545 238 569 234 573 226Z"/>
<path id="z32626d5" d="M352 283C360 283 371 283 385 282C491 267 586 256 669 248C679 248 688 226 680 221C669 214 654 215 644 216C626 217 603 221 573 226C556 229 556 229 548 230C522 234 497 237 473 241C458 243 458 243 451 244C415 248 381 251 350 257C341 259 343 283 352 283Z"/>
<path id="z32626d6" d="M536 399C587 390 624 386 634 378C638 373 640 367 638 363C634 355 623 349 606 344C589 339 567 343 539 351C504 360 504 360 486 365C451 373 386 380 346 383C323 384 317 393 335 403C372 425 425 417 487 407C520 402 520 402 536 399Z"/>
<path id="z32626d7" d="M529 489C531 456 534 426 536 399C538 367 538 367 539 351C539 346 541 338 543 335C547 324 543 315 539 310C525 294 513 288 499 282C492 279 485 279 480 282C475 284 472 288 475 295C479 312 485 336 486 365C487 393 487 393 487 407C487 428 487 458 488 494C488 508 529 503 529 489Z"/>
<path id="z32626d8" d="M563 529C660 521 765 509 908 518C933 519 949 516 952 513C957 504 955 493 948 487C903 444 859 436 815 447C765 459 697 469 617 479C572 484 572 484 549 487C542 487 535 488 529 489C502 492 502 492 488 494C389 506 290 518 129 528C120 528 114 531 114 539C113 547 119 555 133 566C142 573 158 582 181 590C186 592 196 589 209 586C300 562 427 539 500 534C542 531 542 531 563 529Z"/>
<path id="z32626d9" d="M455 627C470 614 502 584 563 529C599 496 599 496 617 479C701 401 747 359 756 357C765 353 771 349 771 343C771 338 766 333 760 329C740 314 721 305 706 302C693 299 685 303 682 314C668 351 627 411 549 487C516 518 516 518 500 534C472 560 440 588 406 618C387 635 387 635 377 643C289 718 195 784 99 844C94 846 92 847 93 851C93 851 96 854 102 853C176 834 271 778 386 684C432 646 432 646 455 627Z"/>
<path id="z32626d10" d="M406 618C395 613 385 610 377 612C368 613 365 618 370 627C372 630 375 635 377 643C383 670 383 670 386 684C388 694 381 812 371 840C360 865 367 884 386 914C389 918 398 927 404 923C410 918 417 901 422 890C425 879 429 868 430 858C431 837 431 818 433 775C434 756 434 756 434 746C435 705 435 677 437 663C441 645 423 625 406 618Z"/>
<path id="z32626d11" d="M612 881C620 905 630 927 644 952C662 984 679 965 693 936C701 917 708 884 705 841C697 733 695 672 712 653C718 645 717 637 712 632C701 618 678 606 646 590C634 584 626 585 615 589C528 614 482 624 455 627C436 628 418 621 406 618C388 614 419 663 437 663C453 663 507 655 601 637C615 634 625 633 632 641C646 657 649 718 640 819C639 837 635 852 630 862C627 870 609 873 612 881Z"/>
<path id="z32626d12" d="M433 775C444 781 458 777 593 760C608 757 614 751 609 744C602 732 589 726 574 723C553 719 507 726 434 746C425 749 424 771 433 775Z"/>
<path id="z32626d13" d="M422 890C480 884 540 882 612 881C621 881 636 868 630 862C623 855 613 848 606 843C594 836 581 837 563 840C530 844 466 854 430 858C419 860 411 892 422 890Z"/>
<defs>
	<clipPath id="z32626c1"><use href="#z32626d1"/></clipPath>
	<clipPath id="z32626c2"><use href="#z32626d2"/></clipPath>
	<clipPath id="z32626c3"><use href="#z32626d3"/></clipPath>
	<clipPath id="z32626c4"><use href="#z32626d4"/></clipPath>
	<clipPath id="z32626c5"><use href="#z32626d5"/></clipPath>
	<clipPath id="z32626c6"><use href="#z32626d6"/></clipPath>
	<clipPath id="z32626c7"><use href="#z32626d7"/></clipPath>
	<clipPath id="z32626c8"><use href="#z32626d8"/></clipPath>
	<clipPath id="z32626c9"><use href="#z32626d9"/></clipPath>
	<clipPath id="z32626c10"><use href="#z32626d10"/></clipPath>
	<clipPath id="z32626c11"><use href="#z32626d11"/></clipPath>
	<clipPath id="z32626c12"><use href="#z32626d12"/></clipPath>
	<clipPath id="z32626c13"><use href="#z32626d13"/></clipPath>
</defs>
<path style="--d:1s;" pathLength="3333" clip-path="url(#z32626c1)" d="M256 110L294 132L339 296"/>
<path style="--d:2s;" pathLength="3333" clip-path="url(#z32626c2)" d="M316 118L724 81L756 126L692 276"/>
<path style="--d:3s;" pathLength="3333" clip-path="url(#z32626c3)" d="M436 122L464 244"/>
<path style="--d:4s;" pathLength="3333" clip-path="url(#z32626c4)" d="M577 98L598 134L555 227"/>
<path style="--d:5s;" pathLength="3333" clip-path="url(#z32626c5)" d="M346 269L678 233"/>
<path style="--d:6s;" pathLength="3333" clip-path="url(#z32626c6)" d="M335 393L632 362"/>
<path style="--d:7s;" pathLength="3333" clip-path="url(#z32626c7)" d="M482 288L513 325L504 499"/>
<path style="--d:8s;" pathLength="3333" clip-path="url(#z32626c8)" d="M120 537L187 557L808 481L950 495"/>
<path style="--d:9s;" pathLength="3333" clip-path="url(#z32626c9)" d="M695 304L717 347L520 542L264 754L101 845"/>
<path style="--d:10s;" pathLength="3333" clip-path="url(#z32626c10)" d="M376 620L410 664L395 919"/>
<path style="--d:11s;" pathLength="3333" clip-path="url(#z32626c11)" d="M409 626L457 644L627 610L675 645L654 963"/>
<path style="--d:12s;" pathLength="3333" clip-path="url(#z32626c12)" d="M433 765L603 743"/>
<path style="--d:13s;" pathLength="3333" clip-path="url(#z32626c13)" d="M423 881L625 868"/>
</svg>