<!--
AnimCJK 2016-2019 Copyright Francois Mizessyn - https://github.com/parsimonhi/animCJK
Derived from:
    MakeMeAHanzi project - https://github.com/skishore/makemeahanzi
    Arphic PL KaitiM GB font
    Arphic PL UKai font
You can redistribute and/or modify this file under the terms of the Arphic Public License
as published by Arphic Technology Co., Ltd.
You should have received a copy of this license along with this file.
If not, see http://ftp.gnu.org/non-gnu/chinese-fonts-truetype/LICENSE.
-->
<svg id="z32626" class="acjk" version="1.1" viewBox="0 0 1024 1024" xmlns="http://www.w3.org/2000/svg" xmlns:xlink="http://www.w3.org/1999/xlink">
<style>
<![CDATA[
@keyframes zk {
	to {
		stroke-dashoffset:0;
	}
}
svg.acjk path[clip-path] {
	--t:0.8s;
	animation:zk var(--t) linear forwards var(--d);
	stroke-dasharray:3337;
	stroke-dashoffset:3339;
	stroke-width:128;
	stroke-linecap:round;
	fill:none;
	stroke:#000;
}
svg.acjk path[id] {fill:#ccc;}
]]>
</style>
<path id="z32626d1" d="M313 110C306 105 291 103 268 101C259 100 255 100 253 104C249 109 250 114 257 126C276 156 293 200 307 254C311 270 316 283 327 294C340 307 347 309 350 298C351 293 352 288 352 283C351 266 351 266 350 257C346 213 332 176 326 142C324 131 323 115 313 110Z"/>
<path id="z32626d2" d="M669 248C679 264 689 276 700 283C705 287 715 283 726 271C732 262 745 233 763 183C770 162 780 144 797 129C805 120 806 111 800 103C789 91 772 76 745 59C727 48 598 67 452 91C401 99 355 105 313 110C302 112 314 142 326 142C328 142 334 142 342 141C366 135 393 129 425 124C442 121 442 121 450 120C484 114 524 106 570 102C596 99 596 99 609 98C621 96 634 94 649 93C677 90 696 93 706 104C710 109 713 116 712 122C700 180 689 213 680 221C673 228 663 240 669 248Z"/>
<path id="z32626d3" d="M473 241C474 211 469 185 456 138C454 131 454 125 450 120C446 113 424 116 425 124C427 134 428 148 429 167C430 205 438 231 451 244C456 250 473 248 473 241Z"/>
<path id="z32626d4" d="M573 226C606 161 614 142 623 132C628 124 630 119 626 113C623 108 616 103 609 98C599 90 568 89 570 102C576 118 572 159 548 230C545 238 569 234 573 226Z"/>
<path id="z32626d5" d="M352 283C360 283 371 283 385 282C491 267 586 256 669 248C679 248 688 226 680 221C677 219 672 217 670 217C652 213 622 218 573 226C556 229 556 229 548 230C522 234 497 237 473 241C458 243 458 243 451 244C415 248 381 251 350 257C341 259 343 283 352 283Z"/>
<path id="z32626d6" d="M536 399C587 390 624 386 634 378C638 373 640 367 638 363C634 355 623 349 606 344C589 339 567 343 539 351C504 360 504 360 486 365C452 374 386 380 346 383C323 384 318 393 335 403C373 425 425 417 487 407C520 402 520 402 536 399Z"/>
<path id="z32626d7" d="M529 489C531 456 534 426 536 399C538 367 538 367 539 351C539 346 541 340 543 337C547 326 544 317 539 312C526 296 513 288 499 282C492 279 485 279 480 282C475 284 473 288 475 295C480 312 485 337 486 365C487 393 487 393 487 407C487 429 487 458 488 494C488 508 529 503 529 489Z"/>
<path id="z32626d8" d="M563 529C660 521 766 509 908 518C934 519 949 516 952 513C957 504 955 494 948 487C903 445 859 436 815 447C765 459 697 469 617 479C572 484 572 484 549 487C542 487 535 488 529 489C502 492 502 492 488 494C389 506 290 518 129 528C120 528 114 531 114 539C113 547 120 555 133 566C143 573 159 582 181 590C187 592 196 589 209 586C300 562 427 539 500 534C542 531 542 531 563 529Z"/>
<path id="z32626d9" d="M449 631C464 618 502 584 563 529C599 496 599 496 617 479C701 401 747 359 756 357C765 353 771 349 771 343C771 338 766 334 760 329C740 315 722 305 706 302C694 299 685 303 682 314C668 351 627 411 549 487C516 518 516 518 500 534C472 560 440 588 406 618C387 635 387 635 377 643C289 718 195 784 99 844C94 846 92 848 93 851C93 852 96 854 102 853C176 834 272 779 386 684C428 649 428 649 449 631Z"/>
<path id="z32626d10" d="M406 618C395 613 385 610 377 612C368 613 365 618 370 627C372 630 375 635 377 643C383 670 383 670 386 684C388 694 381 812 371 840C360 865 367 885 386 914C389 919 398 927 404 923C410 918 417 907 422 890C427 869 427 869 430 858C432 849 431 818 433 775C434 756 434 756 434 746C435 705 435 677 437 663C440 645 423 625 406 618Z"/>
<path id="z32626d11" d="M594 881C612 905 629 927 642 952C647 961 653 968 661 968C671 967 681 956 691 936C699 917 708 885 705 841C697 734 695 672 712 653C718 645 717 638 712 632C701 619 678 606 646 590C634 584 626 585 615 589C444 639 432 626 406 618C389 612 419 663 437 663C453 663 507 655 601 637C615 634 625 634 632 641C648 660 652 732 639 852C637 865 627 868 616 862C607 858 588 873 594 881Z"/>
<path id="z32626d12" d="M433 775C433 775 550 763 593 760C609 758 614 752 609 744C602 733 590 726 574 723C554 719 507 726 434 746C425 748 424 777 433 775Z"/>
<path id="z32626d13" d="M422 890C480 884 522 882 594 881C604 881 623 869 616 862C609 855 600 848 592 843C581 836 567 836 549 840C506 848 466 854 430 858C419 860 411 892 422 890Z"/>
<defs>
	<clipPath id="z32626c1"><use xlink:href="#z32626d1"/></clipPath>
	<clipPath id="z32626c2"><use xlink:href="#z32626d2"/></clipPath>
	<clipPath id="z32626c3"><use xlink:href="#z32626d3"/></clipPath>
	<clipPath id="z32626c4"><use xlink:href="#z32626d4"/></clipPath>
	<clipPath id="z32626c5"><use xlink:href="#z32626d5"/></clipPath>
	<clipPath id="z32626c6"><use xlink:href="#z32626d6"/></clipPath>
	<clipPath id="z32626c7"><use xlink:href="#z32626d7"/></clipPath>
	<clipPath id="z32626c8"><use xlink:href="#z32626d8"/></clipPath>
	<clipPath id="z32626c9"><use xlink:href="#z32626d9"/></clipPath>
	<clipPath id="z32626c10"><use xlink:href="#z32626d10"/></clipPath>
	<clipPath id="z32626c11"><use xlink:href="#z32626d11"/></clipPath>
	<clipPath id="z32626c12"><use xlink:href="#z32626d12"/></clipPath>
	<clipPath id="z32626c13"><use xlink:href="#z32626d13"/></clipPath>
</defs>
<path style="--d:1s;" pathLength="3333" clip-path="url(#z32626c1)" d="M259 105L293 133L341 300"/>
<path style="--d:2s;" pathLength="3333" clip-path="url(#z32626c2)" d="M322 115L723 80L757 122L695 277"/>
<path style="--d:3s;" pathLength="3333" clip-path="url(#z32626c3)" d="M444 127L462 241"/>
<path style="--d:4s;" pathLength="3333" clip-path="url(#z32626c4)" d="M578 109L597 140L557 225"/>
<path style="--d:5s;" pathLength="3333" clip-path="url(#z32626c5)" d="M357 259L675 231"/>
<path style="--d:6s;" pathLength="3333" clip-path="url(#z32626c6)" d="M334 391L630 368"/>
<path style="--d:7s;" pathLength="3333" clip-path="url(#z32626c7)" d="M484 285L513 328L506 491"/>
<path style="--d:8s;" pathLength="3333" clip-path="url(#z32626c8)" d="M118 538L188 559L846 477L951 500"/>
<path style="--d:9s;" pathLength="3333" clip-path="url(#z32626c9)" d="M 693,310 716,344 398,650 102,847"/>
<path style="--d:10s;" pathLength="3333" clip-path="url(#z32626c10)" d="M375 619L410 671L396 917"/>
<path style="--d:11s;" pathLength="3333" clip-path="url(#z32626c11)" d="M 421,628 471,633 625,611 676,647 664,892 645,914 600,884"/>
<path style="--d:12s;" pathLength="3333" clip-path="url(#z32626c12)" d="M438 767L606 748"/>
<path style="--d:13s;" pathLength="3333" clip-path="url(#z32626c13)" d="M431 884L610 860"/>
</svg>