<!--
AnimCJK 2016-2017 Copyright Francois Mizessyn, http://gooo.free.fr/animCJK/
Derived from:
    MakeMeAHanzi project - https://github.com/skishore/makemeahanzi
    Arphic PL KaitiM GB - https://apps.ubuntu.com/cat/applications/precise/fonts-arphic-gkai00mp/
    Arphic PL UKai - https://apps.ubuntu.com/cat/applications/fonts-arphic-ukai/
You can redistribute and/or modify this file under the terms of the Arphic Public License
as published by Arphic Technology Co., Ltd.
You should have received a copy of this license (the directory "APL") along with this file;
if not, see http://ftp.gnu.org/non-gnu/chinese-fonts-truetype/LICENSE.
-->
<svg id="z32673" class="acjk" version="1.1" viewBox="0 0 1024 1024" xmlns="http://www.w3.org/2000/svg" xmlns:xlink="http://www.w3.org/1999/xlink">
<style>
<![CDATA[
	@keyframes z32673k {
		from {
			stroke:#c00;
			stroke-dashoffset:3000;
		}
		75% {
			stroke:#c00;
			stroke-dashoffset:0;
		}
		to {
			stroke:#000;
		}
	}
	#z32673 path[clip-path] {
		animation:z32673k 1s linear both;
		stroke-dasharray:3000;
		stroke-width:128;
		stroke-linecap:round;
		fill:none;
	}
	#z32673 path[clip-path="url(#z32673c1)"] {animation-delay:1s;}
	#z32673 path[clip-path="url(#z32673c2)"] {animation-delay:2s;}
	#z32673 path[clip-path="url(#z32673c3)"] {animation-delay:3s;}
	#z32673 path[clip-path="url(#z32673c4)"] {animation-delay:4s;}
	#z32673 path[clip-path="url(#z32673c5)"] {animation-delay:5s;}
	#z32673 path[clip-path="url(#z32673c6)"] {animation-delay:6s;}
	#z32673 path[clip-path="url(#z32673c7)"] {animation-delay:7s;}
	#z32673 path[clip-path="url(#z32673c8)"] {animation-delay:8s;}
	#z32673 path[clip-path="url(#z32673c9)"] {animation-delay:9s;}
	#z32673 path[clip-path="url(#z32673c10)"] {animation-delay:10s;}
	#z32673 path[clip-path="url(#z32673c11)"] {animation-delay:11s;}
	#z32673 path[clip-path="url(#z32673c12)"] {animation-delay:12s;}
	#z32673 path {fill:#ccc;}
]]>
</style>
<g transform="scale(1,-1) translate(0,-900)">
	<path id="z32673d1" d="M388 750Q407 732 428 711Q440 699 455 700Q465 700 469 713Q473 726 465 753Q461 769 436 780Q373 798 364 795Q360 791 361 779Q364 769 388 750Z"/>
	<path id="z32673d2" d="M599 813Q575 774 530 725Q521 710 536 713Q572 734 635 773Q651 788 673 796Q692 805 682 820Q672 835 648 848Q629 860 617 858Q605 857 609 845Q612 829 599 813Z"/>
	<path id="z32673d3" d="M530 639Q713 672 722 678Q729 685 726 693Q720 705 694 712Q670 718 573 692Q426 659 318 653Q284 649 307 633Q343 611 430 624Q455 628 483 632L530 639Z"/>
	<path id="z32673d4" d="M535 533Q553 539 651 546Q660 545 668 556Q669 566 649 577Q621 598 541 575Q538 575 537 574L487 564Q427 558 352 550Q327 547 346 531Q371 510 417 516Q448 522 487 526L535 533Z"/>
	<path id="z32673d5" d="M529 466Q532 502 535 533L537 574Q538 583 539 590Q542 626 530 639L483 632Q483 623 487 564L487 526Q487 499 488 461L529 466Z"/>
	<path id="z32673d6" d="M488 461Q382 448 260 433Q241 430 254 415Q267 402 284 397Q303 391 319 396Q472 435 771 435Q790 435 795 443Q799 453 784 467Q729 509 673 490Q613 481 529 466L488 461Z"/>
	<path id="z32673d7" d="M264 302Q289 280 316 252Q328 240 342 240Q352 241 357 253Q361 266 354 293Q350 312 321 326Q255 350 240 347Q236 343 236 332Q240 322 264 302Z"/>
	<path id="z32673d8" d="M208 71Q198 70 196 53Q199 -20 227 -40Q231 -47 242 -46Q249 -46 254 -23Q263 11 349 171Q358 184 358 190Q359 200 349 195Q337 189 239 90Q229 80 208 71Z"/>
	<path id="z32673d9" d="M520 302Q533 326 547 345Q554 357 542 369Q500 396 480 391Q470 388 473 375Q486 305 421 216Q405 195 396 183Q390 170 403 174Q451 184 505 274L520 302Z"/>
	<path id="z32673d10" d="M505 274Q523 262 543 268Q603 289 670 301Q704 308 716 305Q725 298 722 292Q722 289 678 231Q669 224 673 216Q676 212 689 220Q786 265 828 272Q837 272 839 280Q839 290 774 341Q749 359 734 353Q653 322 520 302L505 274Z"/>
	<path id="z32673d11" d="M596 156Q600 166 608 173Q618 188 606 198Q570 237 546 233Q533 232 536 217Q549 174 513 88Q471 10 374 -35Q361 -41 372 -45Q450 -51 520 16Q520 17 541 42Q562 70 575 105Q579 118 585 130L596 156Z"/>
	<path id="z32673d12" d="M585 130Q652 43 740 -50Q756 -66 783 -63Q871 -53 899 -46Q906 -43 908 -39Q908 -35 896 -29Q767 13 684 81Q641 115 596 156L585 130Z"/>
	<defs>
		<clipPath id="z32673c1"><use xlink:href="#z32673d1"/></clipPath>
		<clipPath id="z32673c2"><use xlink:href="#z32673d2"/></clipPath>
		<clipPath id="z32673c3"><use xlink:href="#z32673d3"/></clipPath>
		<clipPath id="z32673c4"><use xlink:href="#z32673d4"/></clipPath>
		<clipPath id="z32673c5"><use xlink:href="#z32673d5"/></clipPath>
		<clipPath id="z32673c6"><use xlink:href="#z32673d6"/></clipPath>
		<clipPath id="z32673c7"><use xlink:href="#z32673d7"/></clipPath>
		<clipPath id="z32673c8"><use xlink:href="#z32673d8"/></clipPath>
		<clipPath id="z32673c9"><use xlink:href="#z32673d9"/></clipPath>
		<clipPath id="z32673c10"><use xlink:href="#z32673d10"/></clipPath>
		<clipPath id="z32673c11"><use xlink:href="#z32673d11"/></clipPath>
		<clipPath id="z32673c12"><use xlink:href="#z32673d12"/></clipPath>
	</defs>
	<path pathLength="2999" clip-path="url(#z32673c1)" d="M369 788L433 748L456 704"/>
	<path pathLength="2999" clip-path="url(#z32673c2)" d="M615 853L640 807L534 719"/>
	<path pathLength="2999" clip-path="url(#z32673c3)" d="M306 645L413 642L721 691"/>
	<path pathLength="2999" clip-path="url(#z32673c4)" d="M346 542L662 562"/>
	<path pathLength="2999" clip-path="url(#z32673c5)" d="M490 628L512 599L503 463"/>
	<path pathLength="2999" clip-path="url(#z32673c6)" d="M256 426L704 465L791 453"/>
	<path pathLength="2999" clip-path="url(#z32673c7)" d="M242 337L322 290L351 248"/>
	<path pathLength="2999" clip-path="url(#z32673c8)" d="M239 -41L236 45L352 189"/>
	<path pathLength="2999" clip-path="url(#z32673c9)" d="M481 386L511 345L404 180"/>
	<path pathLength="2999" clip-path="url(#z32673c10)" d="M514 276L737 328L785 275L679 222"/>
	<path pathLength="2999" clip-path="url(#z32673c11)" d="M544 229L575 181L532 73L462 -4L373 -39"/>
	<path pathLength="2999" clip-path="url(#z32673c12)" d="M596 148L767 -21L900 -37"/>
</g>
</svg>