<!--
AnimCJK 2016-2019 Copyright Francois Mizessyn - https://github.com/parsimonhi/animCJK
Derived from:
    MakeMeAHanzi project - https://github.com/skishore/makemeahanzi
    Arphic PL KaitiM GB font
    Arphic PL UKai font
You can redistribute and/or modify this file under the terms of the Arphic Public License
as published by Arphic Technology Co., Ltd.
You should have received a copy of this license along with this file.
If not, see http://ftp.gnu.org/non-gnu/chinese-fonts-truetype/LICENSE.
-->
<svg id="z32705" class="acjk" version="1.1" viewBox="0 0 1024 1024" xmlns="http://www.w3.org/2000/svg" xmlns:xlink="http://www.w3.org/1999/xlink">
<style>
<![CDATA[
@keyframes zk {
	to {
		stroke-dashoffset:0;
	}
}
svg.acjk path[clip-path] {
	--t:0.8s;
	animation:zk var(--t) linear forwards var(--d);
	stroke-dasharray:3337;
	stroke-dashoffset:3339;
	stroke-width:128;
	stroke-linecap:round;
	fill:none;
	stroke:#000;
}
svg.acjk path[id] {fill:#ccc;}
]]>
</style>
<path id="z32705d1" d="M382 102C381 136 347 182 279 241C263 254 223 281 175 310C170 312 170 315 176 317C195 322 242 310 306 270C365 232 402 193 430 169C435 163 439 160 443 158C447 155 451 152 452 146C452 140 449 132 443 124C427 101 409 91 390 91C385 91 382 94 382 102Z"/>
<path id="z32705d2" d="M531 73C547 73 570 92 602 131C709 259 733 287 778 287C817 287 882 286 928 280C935 278 939 273 942 269C944 264 938 262 927 259C828 227 786 213 778 209C737 187 673 138 609 78C584 54 555 44 520 53C513 54 512 59 516 65C518 69 523 72 531 73Z"/>
<path id="z32705d3" d="M613 348C550 354 485 363 420 377C411 378 406 379 405 377C403 374 406 371 410 367C470 306 507 269 521 260C529 254 532 248 529 240C526 231 510 218 483 200C472 193 465 191 459 193C450 195 447 203 449 217C455 263 422 313 348 365C340 370 331 373 323 379C312 385 309 392 311 400C313 410 321 423 336 438C342 444 349 445 358 440C392 417 481 397 631 371C641 369 623 348 613 348Z"/>
<path id="z32705d4" d="M631 371C647 392 661 403 670 405C675 406 680 402 685 395C689 386 690 374 688 356C685 336 655 309 595 281C586 277 579 275 576 277C572 278 571 283 571 291C570 293 584 312 613 348C625 363 625 363 631 371Z"/>
<path id="z32705d5" d="M345 823C328 818 311 814 294 809C281 805 272 807 277 812C309 845 339 869 358 892C366 902 374 909 384 914C388 916 394 915 400 909C425 875 440 844 439 817C432 644 432 546 448 522C455 510 456 502 449 495C437 484 420 473 399 463C388 458 377 457 368 463C335 480 291 492 235 498C226 498 224 501 229 507C234 513 240 518 250 522C256 524 293 519 359 504C370 501 378 500 381 508C386 523 386 580 385 677C383 763 377 811 368 823C365 826 357 826 345 823Z"/>
<path id="z32705d6" d="M221 602C233 611 244 623 258 635C266 642 275 644 284 644C290 643 294 639 297 632C299 623 297 610 291 593C287 584 279 576 263 571C227 560 204 556 196 561C192 562 192 568 194 576C195 582 205 590 221 602Z"/>
<path id="z32705d7" d="M134 747C125 748 121 754 121 761C121 769 124 775 132 779C148 786 166 796 190 803C196 804 203 800 210 794C226 776 263 745 321 702C329 695 336 687 343 681C349 674 354 668 352 663C349 658 342 660 335 664C223 716 155 743 134 747Z"/>
<path id="z32705d8" d="M677 840C659 836 641 834 624 830C609 826 599 828 604 833C639 868 672 893 693 920C703 933 711 942 723 946C729 948 736 946 742 940C772 903 787 866 785 831C770 630 769 516 787 490C795 477 795 466 787 459C772 446 752 433 727 423C714 417 701 416 691 422C653 442 600 459 530 467C519 468 517 471 524 478C530 484 537 491 548 495C558 498 603 489 681 471C693 467 703 468 707 476C720 507 727 610 715 783C712 819 708 836 703 840C698 843 690 842 677 840Z"/>
<path id="z32705d9" d="M537 578C550 587 562 601 578 615C586 622 595 624 604 624C610 623 614 619 617 612C619 603 618 590 612 573C606 556 579 544 531 537C522 535 515 535 512 537C508 538 507 544 509 552C510 559 521 566 537 578Z"/>
<path id="z32705d10" d="M480 725C472 726 469 732 469 739C469 747 472 753 479 756C494 763 513 770 535 777C541 778 548 774 554 768C566 753 580 738 597 726C620 707 644 689 668 671C676 664 683 656 691 649C697 642 702 636 700 632C697 627 690 628 684 632C569 691 501 721 480 725Z"/>
<defs>
	<clipPath id="z32705c1"><use xlink:href="#z32705d1"/></clipPath>
	<clipPath id="z32705c2"><use xlink:href="#z32705d2"/></clipPath>
	<clipPath id="z32705c3"><use xlink:href="#z32705d3"/></clipPath>
	<clipPath id="z32705c4"><use xlink:href="#z32705d4"/></clipPath>
	<clipPath id="z32705c5"><use xlink:href="#z32705d5"/></clipPath>
	<clipPath id="z32705c6"><use xlink:href="#z32705d6"/></clipPath>
	<clipPath id="z32705c7"><use xlink:href="#z32705d7"/></clipPath>
	<clipPath id="z32705c8"><use xlink:href="#z32705d8"/></clipPath>
	<clipPath id="z32705c9"><use xlink:href="#z32705d9"/></clipPath>
	<clipPath id="z32705c10"><use xlink:href="#z32705d10"/></clipPath>
</defs>
<path style="--d:1s;" pathLength="3333" clip-path="url(#z32705c1)" d="M391 96L412 141L380 178L294 254L180 312"/>
<path style="--d:2s;" pathLength="3333" clip-path="url(#z32705c2)" d="M523 61L580 79L759 242L934 270"/>
<path style="--d:3s;" pathLength="3333" clip-path="url(#z32705c3)" d="M458 197L486 254L361 383L370 406L621 366"/>
<path style="--d:4s;" pathLength="3333" clip-path="url(#z32705c4)" d="M579 286L677 399"/>
<path style="--d:5s;" pathLength="3333" clip-path="url(#z32705c5)" d="M237 506L381 482L418 512L401 834L373 869L289 811"/>
<path style="--d:6s;" pathLength="3333" clip-path="url(#z32705c6)" d="M200 567L288 638"/>
<path style="--d:7s;" pathLength="3333" clip-path="url(#z32705c7)" d="M126 756L193 765L342 668"/>
<path style="--d:8s;" pathLength="3333" clip-path="url(#z32705c8)" d="M532 476L705 445L751 480L737 867L713 896L611 832"/>
<path style="--d:9s;" pathLength="3333" clip-path="url(#z32705c9)" d="M517 543L585 583L605 620"/>
<path style="--d:10s;" pathLength="3333" clip-path="url(#z32705c10)" d="M474 735L535 742L693 637"/>
</svg>