<!--
AnimCJK 2016-2019 Copyright Francois Mizessyn - https://github.com/parsimonhi/animCJK
Derived from:
    MakeMeAHanzi project - https://github.com/skishore/makemeahanzi
    Arphic PL KaitiM GB font
    Arphic PL UKai font
You can redistribute and/or modify this file under the terms of the Arphic Public License
as published by Arphic Technology Co., Ltd.
You should have received a copy of this license along with this file.
If not, see http://ftp.gnu.org/non-gnu/chinese-fonts-truetype/LICENSE.
-->
<svg id="z32729" class="acjk" version="1.1" viewBox="0 0 1024 1024" xmlns="http://www.w3.org/2000/svg" xmlns:xlink="http://www.w3.org/1999/xlink">
<style>
<![CDATA[
@keyframes zk {
	to {
		stroke-dashoffset:0;
	}
}
svg.acjk path[clip-path] {
	--t:0.8s;
	animation:zk var(--t) linear forwards var(--d);
	stroke-dasharray:3337;
	stroke-dashoffset:3339;
	stroke-width:128;
	stroke-linecap:round;
	fill:none;
	stroke:#000;
}
svg.acjk path[id] {fill:#ccc;}
]]>
</style>
<path id="z32729d1" d="M349 315C355 271 361 239 367 199C369 188 371 179 373 171C379 156 377 143 366 133C346 121 329 113 316 111C307 109 300 110 296 115C291 119 291 125 296 134C304 146 308 156 309 164C311 216 312 262 311 323C311 336 346 328 349 315Z"/>
<path id="z32729d2" d="M290 365C358 340 411 329 447 331C458 331 464 296 453 298C415 302 380 307 349 315C324 320 324 320 311 323C278 329 248 337 221 346C210 348 206 343 209 331C217 283 218 255 212 247C203 236 192 227 179 219C172 216 166 215 160 215C153 217 152 224 157 236C167 260 170 285 166 311C163 335 157 352 147 362C136 372 133 381 137 389C143 397 152 405 162 412C170 416 176 416 182 411C196 397 222 384 262 374C281 368 281 368 290 365Z"/>
<path id="z32729d3" d="M447 331C449 347 452 362 458 374C462 384 468 385 476 379C492 366 502 334 508 284C518 246 526 224 531 219C537 210 537 201 531 193C520 183 505 171 487 159C480 154 473 153 465 157C460 159 458 164 460 172C466 182 469 208 467 249C464 267 459 284 453 298C449 308 445 320 447 331Z"/>
<path id="z32729d4" d="M220 579C230 568 262 524 269 515C280 498 280 498 286 490C296 474 315 446 331 430C336 424 338 418 336 410C334 403 326 392 311 378C304 371 297 367 290 365C281 361 258 365 262 374C262 374 263 376 264 379C268 395 265 408 262 422C251 462 193 561 114 644C107 650 103 654 102 657C99 663 102 666 111 665C127 662 152 646 205 594C215 584 215 584 220 579Z"/>
<path id="z32729d5" d="M269 515C291 521 303 525 327 515C357 501 385 494 398 501C403 504 401 526 387 569C347 679 278 797 138 880C131 883 129 887 130 890C130 892 133 895 139 894C239 866 308 801 356 733C387 688 422 620 452 564C461 544 468 530 483 512C490 502 494 498 494 492C493 483 487 476 468 465C443 450 436 447 426 448C418 448 411 454 403 458C354 478 304 487 286 490C276 492 259 513 269 515Z"/>
<path id="z32729d6" d="M205 594C207 598 214 606 224 617C240 633 247 642 265 663C271 669 278 673 286 674C292 674 296 671 299 665C301 658 302 647 300 631C297 612 279 602 225 580C224 579 222 579 220 579C213 578 201 588 205 594Z"/>
<path id="z32729d7" d="M634 570C629 698 624 787 617 798C614 801 607 800 595 798C578 794 561 790 545 785C534 781 524 783 529 788C560 819 590 840 609 863C617 872 624 879 633 883C638 885 642 884 648 878C670 852 681 816 681 771C675 497 678 348 692 327C698 316 698 308 692 302C680 291 664 277 644 269C634 264 614 271 584 285C571 290 551 294 523 299C514 300 512 305 517 311C522 317 528 322 537 325C548 328 571 322 606 312C616 308 624 310 627 316C634 335 639 397 635 539C634 560 634 560 634 570Z"/>
<path id="z32729d8" d="M527 445Q579 493 590 493Q597 493 602 483Q605 473 599 451Q593 430 524 410Q512 409 508 410Q504 413 505 422Q508 429 527 445Z"/>
<path id="z32729d9" d="M635 539C563 605 510 652 497 660C492 662 490 666 492 672C494 678 497 681 503 683C515 685 531 686 549 687C553 686 557 682 561 676C567 660 598 618 634 570C640 562 643 533 635 539Z"/>
<path id="z32729d10" d="M853 549C853 705 845 810 836 826C833 830 825 830 811 827C774 818 774 818 755 813C742 809 731 812 736 817C771 853 806 877 827 903C836 914 845 923 856 927C862 929 868 928 874 921C901 887 914 852 913 818C899 502 899 327 917 296C924 282 926 273 918 266C903 253 884 238 860 229C847 224 835 223 826 229C811 237 799 243 791 248C778 253 756 259 726 264C716 265 714 271 720 278C726 284 733 291 743 294C756 297 781 291 816 279C828 274 838 275 841 283C848 302 853 367 853 517C853 538 853 538 853 549Z"/>
<path id="z32729d11" d="M739 420Q755 438 774 459Q784 469 797 469Q804 469 809 459Q813 449 808 425Q802 404 737 383Q725 380 720 381Q716 384 716 394Q719 403 739 420Z"/>
<path id="z32729d12" d="M853 517C777 579 730 613 712 621C706 625 703 629 705 634C707 640 711 645 717 647C731 649 748 652 768 655C774 654 778 650 782 644C790 628 813 596 853 549C861 541 862 511 853 517Z"/>
<defs>
	<clipPath id="z32729c1"><use xlink:href="#z32729d1"/></clipPath>
	<clipPath id="z32729c2"><use xlink:href="#z32729d2"/></clipPath>
	<clipPath id="z32729c3"><use xlink:href="#z32729d3"/></clipPath>
	<clipPath id="z32729c4"><use xlink:href="#z32729d4"/></clipPath>
	<clipPath id="z32729c5"><use xlink:href="#z32729d5"/></clipPath>
	<clipPath id="z32729c6"><use xlink:href="#z32729d6"/></clipPath>
	<clipPath id="z32729c7"><use xlink:href="#z32729d7"/></clipPath>
	<clipPath id="z32729c8"><use xlink:href="#z32729d8"/></clipPath>
	<clipPath id="z32729c9"><use xlink:href="#z32729d9"/></clipPath>
	<clipPath id="z32729c10"><use xlink:href="#z32729d10"/></clipPath>
	<clipPath id="z32729c11"><use xlink:href="#z32729d11"/></clipPath>
	<clipPath id="z32729c12"><use xlink:href="#z32729d12"/></clipPath>
</defs>
<path style="--d:1s;" pathLength="3333" clip-path="url(#z32729c1)" d="M299 122L342 155L325 319"/>
<path style="--d:2s;" pathLength="3333" clip-path="url(#z32729c2)" d="M159 221L190 259L176 353L199 379L449 317"/>
<path style="--d:3s;" pathLength="3333" clip-path="url(#z32729c3)" d="M469 163L501 205L468 377"/>
<path style="--d:4s;" pathLength="3333" clip-path="url(#z32729c4)" d="M268 378L299 422L217 552L111 658"/>
<path style="--d:5s;" pathLength="3333" clip-path="url(#z32729c5)" d="M276 512L411 475L453 508L333 726L234 838L139 886"/>
<path style="--d:6s;" pathLength="3333" clip-path="url(#z32729c6)" d="M215 591L277 637L284 669"/>
<path style="--d:7s;" pathLength="3333" clip-path="url(#z32729c7)" d="M523 309L632 292L663 323L646 813L622 842L537 788"/>
<path style="--d:8s;" pathLength="3333" clip-path="url(#z32729c8)" d="M510 417L597 480"/>
<path style="--d:9s;" pathLength="3333" clip-path="url(#z32729c9)" d="M497 670L541 660L631 546"/>
<path style="--d:10s;" pathLength="3333" clip-path="url(#z32729c10)" d="M730 277L839 254L883 285L875 832L849 878L742 817"/>
<path style="--d:11s;" pathLength="3333" clip-path="url(#z32729c11)" d="M725 389L797 465"/>
<path style="--d:12s;" pathLength="3333" clip-path="url(#z32729c12)" d="M710 634L763 624L849 528"/>
</svg>