<!--
AnimCJK 2016-2025 Copyright FM-SH - https://github.com/parsimonhi/animCJK
Derived from:
    MakeMeAHanzi project - https://github.com/skishore/makemeahanzi
    Arphic PL KaitiM GB font
    Arphic PL UKai font
You can redistribute and/or modify this file under the terms of the Arphic Public License
as published by Arphic Technology Co., Ltd.
You should have received a copy of this license along with this file.
If not, see http://ftp.gnu.org/non-gnu/chinese-fonts-truetype/LICENSE.
-->
<svg id="z32779" class="acjk" version="1.1" viewBox="0 0 1024 1024" xmlns="http://www.w3.org/2000/svg" xmlns:xlink="http://www.w3.org/1999/xlink">
<style>
<![CDATA[
@keyframes zk {
	to {
		stroke-dashoffset:0;
	}
}
svg.acjk path[clip-path] {
	--t:0.8s;
	animation:zk var(--t) linear forwards var(--d);
	stroke-dasharray:3337;
	stroke-dashoffset:3339;
	stroke-width:128;
	stroke-linecap:round;
	fill:none;
	stroke:#000;
}
svg.acjk path[id] {fill:#ccc;}
]]>
</style>
<path id="z32779d1" d="M521 193C539 189 560 184 582 180C602 175 615 171 619 168C623 163 625 158 623 154C618 146 607 141 591 137C580 134 558 136 527 146C491 157 491 157 473 162C439 168 401 173 372 176C351 178 347 186 363 196C384 209 417 210 458 203C461 202 467 202 474 201C505 196 505 196 521 193Z"/>
<path id="z32779d2" d="M511 269C513 242 517 217 521 193C525 162 525 162 527 146C529 135 530 123 534 114C537 104 537 104 539 99C541 92 538 83 526 76C506 64 489 59 476 56C467 53 461 54 456 60C451 64 450 70 456 79C463 89 471 116 473 162C473 162 473 187 474 201C474 224 474 273 474 273C474 285 511 281 511 269Z"/>
<path id="z32779d3" d="M571 293C643 285 730 282 831 284C881 284 909 283 915 276C919 268 915 258 904 250C869 223 839 213 814 219C764 229 702 241 630 252C570 261 570 261 540 265C529 266 520 268 511 269C486 272 486 272 474 273C375 283 270 297 157 310C142 311 140 317 151 329C159 337 169 345 183 349C196 352 209 352 220 350C304 328 394 310 492 301C545 296 545 296 571 293Z"/>
<path id="z32779d4" d="M432 385C436 382 484 353 571 293C610 266 610 266 630 252C687 211 723 185 742 181C750 178 756 175 758 169C758 165 754 160 749 155C732 140 716 129 701 123C692 119 683 121 678 131C661 159 617 206 540 265C508 289 508 289 492 301C470 317 445 332 420 349C397 364 397 364 385 372C293 432 186 487 100 525C95 526 93 527 94 531C94 532 96 534 101 534C147 529 181 520 206 509C264 481 325 451 387 413C417 394 417 394 432 385Z"/>
<path id="z32779d5" d="M427 422C495 408 543 394 572 385C594 377 615 373 635 372C643 371 649 370 651 367C653 362 653 355 647 350C619 324 596 313 581 316C576 316 575 320 574 326C570 342 521 370 427 408C423 410 422 423 427 422Z"/>
<path id="z32779d6" d="M728 419C721 408 711 389 703 358C700 350 699 345 696 343C693 341 691 344 689 353C677 387 668 416 659 426C650 434 630 440 604 446C540 458 489 457 454 449C437 444 427 438 427 422C427 413 427 413 427 408C427 399 429 393 432 385C436 373 430 357 420 349C414 343 408 340 401 338C394 335 388 334 383 338C380 339 379 345 381 355C381 359 384 365 385 372C386 399 386 399 387 413C388 440 394 463 413 477C463 513 545 523 648 489C676 478 704 464 725 449C734 441 735 430 728 419Z"/>
<path id="z32779d7" d="M508 576C536 571 596 563 691 555C697 554 704 553 708 546C710 539 702 534 691 527C672 515 640 517 592 526C498 543 411 552 333 560C316 561 314 566 326 577C338 588 357 597 382 595C401 593 422 588 448 585C488 579 488 579 508 576Z"/>
<path id="z32779d8" d="M520 698C558 687 605 677 661 669C669 667 652 651 644 652C572 660 499 670 425 680C419 680 415 680 414 679C413 678 414 676 418 673C461 634 492 611 508 602C517 596 519 589 515 584C513 581 510 578 508 576C495 560 454 566 448 585C443 607 423 632 387 660C376 668 361 674 342 680C325 684 317 690 316 697C314 707 315 718 320 730C324 742 330 749 338 754C342 756 347 756 354 753C404 727 447 717 479 709C506 702 506 702 520 698Z"/>
<path id="z32779d9" d="M661 669C692 700 710 719 719 721C724 722 729 718 733 711C736 702 736 691 734 675C730 653 698 627 634 600C625 596 619 595 616 597C612 598 607 605 612 611C612 611 631 639 644 652C655 663 655 663 661 669Z"/>
<path id="z32779d10" d="M543 809C625 799 667 789 669 788C673 784 676 779 674 774C670 766 660 760 644 755C627 749 610 751 592 756C576 760 560 763 545 767C508 774 508 774 489 778C453 784 414 783 374 785C353 785 349 793 364 804C383 818 417 822 466 817C473 816 482 815 491 815C526 811 526 811 543 809Z"/>
<path id="z32779d11" d="M539 876C539 852 542 829 543 809C544 781 544 781 545 767C545 755 552 728 546 720C538 710 528 704 520 698C509 689 474 696 479 709C483 713 486 735 489 778C490 803 490 803 491 815C491 831 491 853 493 880C493 895 539 891 539 876Z"/>
<path id="z32779d12" d="M518 918C650 913 745 916 802 922C837 925 858 925 861 923C868 917 862 903 859 899C842 880 820 866 794 853C785 848 773 849 757 853C718 860 679 865 641 868C601 871 567 873 539 876C508 879 508 879 493 880C445 884 308 890 197 891C188 891 183 893 182 901C181 907 186 916 198 926C207 934 222 942 241 950C247 952 256 951 267 948C275 945 300 942 342 936C394 928 453 920 518 918Z"/>
<defs>
	<clipPath id="z32779c1"><use xlink:href="#z32779d1"/></clipPath>
	<clipPath id="z32779c2"><use xlink:href="#z32779d2"/></clipPath>
	<clipPath id="z32779c3"><use xlink:href="#z32779d3"/></clipPath>
	<clipPath id="z32779c4"><use xlink:href="#z32779d4"/></clipPath>
	<clipPath id="z32779c5"><use xlink:href="#z32779d5"/></clipPath>
	<clipPath id="z32779c6"><use xlink:href="#z32779d6"/></clipPath>
	<clipPath id="z32779c7"><use xlink:href="#z32779d7"/></clipPath>
	<clipPath id="z32779c8"><use xlink:href="#z32779d8"/></clipPath>
	<clipPath id="z32779c9"><use xlink:href="#z32779d9"/></clipPath>
	<clipPath id="z32779c10"><use xlink:href="#z32779d10"/></clipPath>
	<clipPath id="z32779c11"><use xlink:href="#z32779d11"/></clipPath>
	<clipPath id="z32779c12"><use xlink:href="#z32779d12"/></clipPath>
</defs>
<path style="--d:1s;" pathLength="3333" clip-path="url(#z32779c1)" d="M364 184L620 157"/>
<path style="--d:2s;" pathLength="3333" clip-path="url(#z32779c2)" d="M460 66L504 105L494 270"/>
<path style="--d:3s;" pathLength="3333" clip-path="url(#z32779c3)" d="M150 316L217 326L820 251L909 269"/>
<path style="--d:4s;" pathLength="3333" clip-path="url(#z32779c4)" d="M693 134L708 161L400 384L104 528"/>
<path style="--d:5s;" pathLength="3333" clip-path="url(#z32779c5)" d="M588 325L607 350L436 414"/>
<path style="--d:6s;" pathLength="3333" clip-path="url(#z32779c6)" d="M389 344L418 449L497 478L679 443L700 418L696 349"/>
<path style="--d:7s;" pathLength="3333" clip-path="url(#z32779c7)" d="M327 566L703 540"/>
<path style="--d:8s;" pathLength="3333" clip-path="url(#z32779c8)" d="M510 587L360 690L368 723L653 666"/>
<path style="--d:9s;" pathLength="3333" clip-path="url(#z32779c9)" d="M620 605L725 714"/>
<path style="--d:10s;" pathLength="3333" clip-path="url(#z32779c10)" d="M366 795L667 773"/>
<path style="--d:11s;" pathLength="3333" clip-path="url(#z32779c11)" d="M488 717L518 747L508 878"/>
<path style="--d:12s;" pathLength="3333" clip-path="url(#z32779c12)" d="M186 900L252 920L771 884L859 912"/>
</svg>