<!--
AnimCJK 2016-2017 Copyright Francois Mizessyn, http://gooo.free.fr/animCJK/
Derived from:
    MakeMeAHanzi project - https://github.com/skishore/makemeahanzi
    Arphic PL KaitiM GB - https://apps.ubuntu.com/cat/applications/precise/fonts-arphic-gkai00mp/
    Arphic PL UKai - https://apps.ubuntu.com/cat/applications/fonts-arphic-ukai/
You can redistribute and/or modify this file under the terms of the Arphic Public License
as published by Arphic Technology Co., Ltd.
You should have received a copy of this license (the directory "APL") along with this file;
if not, see http://ftp.gnu.org/non-gnu/chinese-fonts-truetype/LICENSE.
-->
<svg id="z32780" class="acjk" version="1.1" viewBox="0 0 1024 1024" xmlns="http://www.w3.org/2000/svg" xmlns:xlink="http://www.w3.org/1999/xlink">
<style>
<![CDATA[
	@keyframes z32780k {
		from {
			stroke:#c00;
			stroke-dashoffset:3000;
		}
		75% {
			stroke:#c00;
			stroke-dashoffset:0;
		}
		to {
			stroke:#000;
		}
	}
	#z32780 path[clip-path] {
		animation:z32780k 1s linear both;
		stroke-dasharray:3000;
		stroke-width:128;
		stroke-linecap:round;
		fill:none;
	}
	#z32780 path[clip-path="url(#z32780c1)"] {animation-delay:1s;}
	#z32780 path[clip-path="url(#z32780c2)"] {animation-delay:2s;}
	#z32780 path[clip-path="url(#z32780c3)"] {animation-delay:3s;}
	#z32780 path[clip-path="url(#z32780c4)"] {animation-delay:4s;}
	#z32780 path[clip-path="url(#z32780c5)"] {animation-delay:5s;}
	#z32780 path[clip-path="url(#z32780c6)"] {animation-delay:6s;}
	#z32780 path {fill:#ccc;}
]]>
</style>
<g transform="scale(1,-1) translate(0,-900)">
	<path id="z32780d1" d="M467 648Q765 699 777 709Q789 718 783 729Q776 744 739 755Q700 764 611 735Q443 693 299 685Q253 679 285 657Q333 627 420 641L467 648Z"/>
	<path id="z32780d2" d="M380 439Q512 592 517 594Q536 610 521 626Q502 639 471 648Q470 649 467 648L420 641Q420 638 424 632Q436 605 386 503Q368 470 351 433L380 439Z"/>
	<path id="z32780d3" d="M200 408Q196 412 191 413Q160 423 142 419Q129 413 137 402Q188 329 169 188Q148 149 184 103Q187 99 193 94Q202 82 211 89Q238 117 230 205Q217 322 214 363L200 408Z"/>
	<path id="z32780d4" d="M567 423Q642 430 775 439Q793 440 799 431Q806 425 804 392Q800 253 777 176Q764 136 729 144Q702 148 678 151Q662 157 662 150Q661 143 672 128Q730 64 743 34Q750 19 760 20Q773 21 787 42Q812 75 824 115Q843 167 876 362Q882 396 895 415Q917 439 900 446Q884 465 840 487Q813 506 784 495Q748 485 656 475Q491 460 380 439L351 433Q272 418 200 408L214 363Q224 364 235 368Q269 380 327 388L364 394Q443 407 511 416L567 423Z"/>
	<path id="z32780d5" d="M327 388Q346 328 347 227Q346 199 357 179Q372 152 380 168Q390 186 392 226Q396 335 399 357Q400 370 396 377Q387 384 364 394L327 388Z"/>
	<path id="z32780d6" d="M524 138Q528 113 534 103Q538 96 547 98Q572 113 579 224Q582 317 597 382Q601 398 588 409Q576 418 567 423L511 416Q510 416 511 415Q520 400 522 354Q522 168 524 138Z"/>
	<defs>
		<clipPath id="z32780c1"><use xlink:href="#z32780d1"/></clipPath>
		<clipPath id="z32780c2"><use xlink:href="#z32780d2"/></clipPath>
		<clipPath id="z32780c3"><use xlink:href="#z32780d3"/></clipPath>
		<clipPath id="z32780c4"><use xlink:href="#z32780d4"/></clipPath>
		<clipPath id="z32780c5"><use xlink:href="#z32780d5"/></clipPath>
		<clipPath id="z32780c6"><use xlink:href="#z32780d6"/></clipPath>
	</defs>
	<path pathLength="2999" clip-path="url(#z32780c1)" d="M279 674L376 664L780 728"/>
	<path pathLength="2999" clip-path="url(#z32780c2)" d="M430 636L470 590L359 438"/>
	<path pathLength="2999" clip-path="url(#z32780c3)" d="M140 413L173 396L189 348L201 91"/>
	<path pathLength="2999" clip-path="url(#z32780c4)" d="M210 401L816 462L855 416L794 134L744 75L669 147"/>
	<path pathLength="2999" clip-path="url(#z32780c5)" d="M335 383L368 355L372 167"/>
	<path pathLength="2999" clip-path="url(#z32780c6)" d="M519 412L559 382L544 102"/>
</g>
</svg>