<!--
AnimCJK 2016-2019 Copyright Francois Mizessyn - https://github.com/parsimonhi/animCJK
Derived from:
    MakeMeAHanzi project - https://github.com/skishore/makemeahanzi
    Arphic PL KaitiM GB font
    Arphic PL UKai font
You can redistribute and/or modify this file under the terms of the Arphic Public License
as published by Arphic Technology Co., Ltd.
You should have received a copy of this license along with this file.
If not, see http://ftp.gnu.org/non-gnu/chinese-fonts-truetype/LICENSE.
-->
<svg id="z32791" class="acjk" version="1.1" viewBox="0 0 1024 1024" xmlns="http://www.w3.org/2000/svg" xmlns:xlink="http://www.w3.org/1999/xlink">
<style>
<![CDATA[
@keyframes zk {
	to {
		stroke-dashoffset:0;
	}
}
svg.acjk path[clip-path] {
	--t:0.8s;
	animation:zk var(--t) linear forwards var(--d);
	stroke-dasharray:3337;
	stroke-dashoffset:3339;
	stroke-width:128;
	stroke-linecap:round;
	fill:none;
	stroke:#000;
}
svg.acjk path[id] {fill:#ccc;}
]]>
</style>
<path id="z32791d1" d="M361 295C440 275 481 261 484 259C489 254 490 247 487 243C482 235 469 229 452 226C431 222 403 231 364 245C333 256 333 256 317 261C306 264 239 277 200 284C175 287 170 297 190 306C234 326 268 318 317 306C346 299 346 299 361 295Z"/>
<path id="z32791d2" d="M359 411C378 406 397 400 418 395C438 389 449 384 452 382C456 377 458 371 455 367C450 359 438 354 421 351C400 347 381 354 360 362C331 373 331 373 317 378C291 387 234 395 206 402C183 407 180 414 198 423C219 434 257 436 315 422C344 415 344 415 359 411Z"/>
<path id="z32791d3" d="M356 514C388 507 422 500 461 495C471 493 477 491 478 486C478 478 472 471 462 466C440 456 408 462 357 474C328 481 328 481 313 484C203 509 128 519 88 523C80 523 74 526 73 532C70 538 74 545 85 553C108 570 134 574 161 566C228 543 280 529 312 523C341 517 341 517 356 514Z"/>
<path id="z32791d4" d="M354 595C354 569 355 542 356 514C357 487 357 487 357 474C357 453 358 432 359 411C360 378 360 378 360 362C360 340 359 317 361 295C363 262 363 262 364 245C366 208 371 175 382 148C386 137 391 126 388 119C384 110 362 98 326 75C309 64 294 62 281 73C278 75 275 83 282 94C301 129 316 162 317 197C318 233 317 239 317 261C317 291 317 291 317 306C317 330 318 354 317 378C316 407 316 407 315 422C314 442 313 462 313 484C312 510 312 510 312 523C310 589 310 589 309 622C306 696 299 764 281 827C273 851 278 885 295 930C299 941 304 947 310 951C314 954 317 953 324 949C341 936 352 911 352 867C352 844 354 764 354 627C354 606 354 606 354 595Z"/>
<path id="z32791d5" d="M312 523C268 605 187 705 76 822C70 827 72 832 81 834C92 836 139 802 219 730C249 701 279 665 309 622C326 594 327 493 312 523Z"/>
<path id="z32791d6" d="M354 627C402 675 416 696 429 700C439 702 442 697 445 691C447 684 448 673 446 657C443 638 399 611 354 595C344 591 346 619 354 627Z"/>
<path id="z32791d7" d="M604 313C642 298 675 283 705 268C735 252 759 244 792 234C804 230 812 228 814 223C816 215 811 206 803 200C786 189 762 180 732 170C718 165 709 163 701 166C695 167 692 173 693 182C694 212 627 259 496 335C489 338 493 349 498 348C502 347 545 334 568 327C580 322 569 326 604 313Z"/>
<path id="z32791d8" d="M626 471C731 441 785 422 789 419C794 414 795 407 792 403C787 395 775 390 755 387C737 384 698 405 631 424C597 433 597 433 580 438C559 443 537 446 514 451C491 456 487 465 506 474C523 482 550 492 579 484C610 475 610 475 626 471Z"/>
<path id="z32791d9" d="M619 600C641 594 720 577 861 565C873 563 879 560 882 555C884 548 881 539 870 533C834 510 801 508 772 519C737 530 670 549 620 562C591 569 591 569 577 573C536 583 493 592 449 603C436 606 435 611 446 621C454 627 463 632 476 635C487 637 499 635 509 632C530 623 553 615 577 610C605 603 605 603 619 600Z"/>
<path id="z32791d10" d="M969 761C959 742 945 703 933 646C930 634 928 628 925 626C920 623 917 629 915 641C900 701 888 742 877 762C870 773 855 782 832 787C776 798 724 793 681 770C637 747 616 689 619 600C620 575 620 575 620 562C620 533 622 503 626 471C629 440 629 440 631 424C633 403 635 381 639 360C641 347 638 338 631 331C624 324 615 318 604 313C593 306 563 315 568 327C579 344 580 397 580 438C579 469 579 469 579 484C578 497 577 560 577 573C577 598 577 598 577 610C577 632 575 754 623 805C675 862 797 874 876 848C919 833 939 823 964 804C976 793 978 778 969 761Z"/>
<defs>
	<clipPath id="z32791c1"><use xlink:href="#z32791d1"/></clipPath>
	<clipPath id="z32791c2"><use xlink:href="#z32791d2"/></clipPath>
	<clipPath id="z32791c3"><use xlink:href="#z32791d3"/></clipPath>
	<clipPath id="z32791c4"><use xlink:href="#z32791d4"/></clipPath>
	<clipPath id="z32791c5"><use xlink:href="#z32791d5"/></clipPath>
	<clipPath id="z32791c6"><use xlink:href="#z32791d6"/></clipPath>
	<clipPath id="z32791c7"><use xlink:href="#z32791d7"/></clipPath>
	<clipPath id="z32791c8"><use xlink:href="#z32791d8"/></clipPath>
	<clipPath id="z32791c9"><use xlink:href="#z32791d9"/></clipPath>
	<clipPath id="z32791c10"><use xlink:href="#z32791d10"/></clipPath>
</defs>
<path style="--d:1s;" pathLength="3333" clip-path="url(#z32791c1)" d="M187 293L484 248"/>
<path style="--d:2s;" pathLength="3333" clip-path="url(#z32791c2)" d="M193 411L451 373"/>
<path style="--d:3s;" pathLength="3333" clip-path="url(#z32791c3)" d="M78 535L141 543L471 482"/>
<path style="--d:4s;" pathLength="3333" clip-path="url(#z32791c4)" d="M285 79L349 146L314 949"/>
<path style="--d:5s;" pathLength="3333" clip-path="url(#z32791c5)" d="M308 536L248 663L79 826"/>
<path style="--d:6s;" pathLength="3333" clip-path="url(#z32791c6)" d="M359 603L440 692"/>
<path style="--d:7s;" pathLength="3333" clip-path="url(#z32791c7)" d="M 704,173 761,215 502,342"/>
<path style="--d:8s;" pathLength="3333" clip-path="url(#z32791c8)" d="M503 463L788 406"/>
<path style="--d:9s;" pathLength="3333" clip-path="url(#z32791c9)" d="M447 611L792 542L878 549"/>
<path style="--d:10s;" pathLength="3333" clip-path="url(#z32791c10)" d="M575 331L608 358L601 664L646 783L758 824L887 805L929 766L922 633"/>
</svg>