<!--
AnimCJK 2016-2026 Copyright FM-SH, https://github.com/parsimonhi/animCJK
Derived from:
    MakeMeAHanzi project - https://github.com/skishore/makemeahanzi
    Arphic PL KaitiM GB font
    Arphic PL KaitiM Big5 font
You can redistribute and/or modify this file under the terms of the Arphic Public License
as published by Arphic Technology Co., Ltd.
You should have received a copy of this license along with this file.
If not, see https://ftp.gnu.org/non-gnu/chinese-fonts-truetype/LICENSE.
-->
<svg id="z32806" class="acjk" viewBox="0 0 1024 1024" xmlns="http://www.w3.org/2000/svg">
<style>
<![CDATA[
@keyframes zk {
	to {
		stroke-dashoffset:0;
	}
}
svg.acjk path[clip-path] {
	--t:0.8s;
	animation:zk var(--t) linear forwards var(--d);
	stroke-dasharray:3337;
	stroke-dashoffset:3339;
	stroke-width:128;
	stroke-linecap:round;
	fill:none;
	stroke:#000;
}
svg.acjk path[id] {fill:#ccc;}
]]>
</style>
<path id="z32806d1" d="M337 271Q368 262 403 256Q439 247 444 242Q451 235 447 227Q440 217 413 210Q380 204 340 224C310 233 310 233 295 238Q285 239 276 243Q228 255 171 262Q138 268 162 283Q204 304 255 289Q274 283 296 280C323 274 323 274 337 271Z"/>
<path id="z32806d2" d="M335 385Q410 364 416 360Q423 353 419 346Q412 336 387 331Q362 327 336 339C309 349 309 349 296 354Q242 369 182 380Q151 387 174 400Q207 418 290 396Q291 395 295 395C322 388 322 388 335 385Z"/>
<path id="z32806d3" d="M333 501Q384 489 446 480Q462 477 462 470Q463 458 446 450Q419 440 398 445Q361 454 333 462C306 469 306 469 292 472Q133 506 68 515Q55 516 53 524Q50 534 65 545Q104 569 141 557Q220 529 277 514C314 505 314 505 333 501Z"/>
<path id="z32806d4" d="M332 559Q332 531 333 501C333 475 333 475 333 462Q334 425 335 385C336 354 336 354 336 339Q336 306 337 271C339 240 339 240 340 224Q344 170 357 130Q366 115 363 102Q356 92 302 59Q280 43 259 57Q255 63 261 77Q295 129 295 180Q295 208 295 238C296 266 296 266 296 280Q296 316 296 354C295 381 295 381 295 395Q294 432 292 472C290 547 290 547 289 585Q289 717 262 807Q252 844 276 906Q283 924 291 927Q297 934 304 925Q311 921 322 901Q331 876 330 846Q329 809 331 591C332 570 332 570 332 559Z"/>
<path id="z32806d5" d="M277 514C240 590 169 684 68 800C63 805 65 808 72 810C81 811 196 737 289 585C324 526 308 452 277 514Z"/>
<path id="z32806d6" d="M331 591C337 593 357 613 390 650C399 659 435 679 425 617C418 583 353 564 332 559C321 557 322 585 331 591Z"/>
<path id="z32806d7" d="M501 253C482 245 449 236 465 270C484 312 499 368 509 437C511 457 517 474 529 489C542 506 548 500 552 486C553 478 554 470 554 463C552 434 535 339 529 281C527 268 513 258 501 253Z"/>
<path id="z32806d8" d="M739 459C747 492 768 513 790 481C800 465 811 409 830 317C834 296 844 277 860 262C868 253 869 245 861 237C851 226 832 211 804 196C787 186 760 202 501 253C488 256 516 285 529 281C549 274 574 266 603 261C632 256 632 256 646 253C670 248 698 241 729 237C780 229 779 263 778 273C765 359 754 410 746 428C742 438 737 449 739 459Z"/>
<path id="z32806d9" d="M665 374C687 369 709 365 729 362C757 356 737 334 709 331C697 329 682 331 665 337C636 346 636 346 622 351C601 357 582 363 566 369C556 372 556 379 570 385C581 389 599 386 623 382C651 377 651 377 665 374Z"/>
<path id="z32806d10" d="M663 470C685 466 717 461 739 459C749 457 756 432 746 428C727 418 713 428 664 439C636 445 636 445 622 448C598 453 575 457 554 463C547 465 544 486 552 486C575 485 598 480 622 477C649 472 649 472 663 470Z"/>
<path id="z32806d11" d="M472 590C437 574 420 580 428 595C452 642 449 718 436 781C430 805 424 832 442 856C453 871 463 889 477 849C486 825 491 781 491 719C491 674 491 644 493 629C496 615 486 595 472 590Z"/>
<path id="z32806d12" d="M662 585C727 572 773 569 799 572C820 574 828 578 827 602C822 695 825 759 821 794C816 826 812 827 802 825C782 819 761 814 739 810C721 806 717 813 731 825C774 862 805 892 825 918C832 927 842 927 851 920C862 909 869 894 875 876C881 857 884 794 884 689C883 650 886 619 899 600C907 586 911 578 907 573C902 564 882 550 850 530C837 522 827 520 817 523C775 534 693 549 662 554C635 558 635 558 621 560C570 567 521 579 472 590C458 593 479 632 493 629C509 628 513 613 621 593C648 588 648 588 662 585Z"/>
<path id="z32806d13" d="M661 691C661 654 662 619 662 585C662 564 662 564 662 554C662 525 662 497 663 470C664 449 664 449 664 439C664 416 665 394 665 374C665 349 665 349 665 337C665 268 677 274 646 253C634 244 595 248 603 261C620 290 620 316 622 351C623 372 623 372 623 382C623 398 622 420 622 448C622 467 622 467 622 477C622 501 621 528 621 560C621 582 621 582 621 593C621 665 621 665 621 701C621 715 661 705 661 691Z"/>
<path id="z32806d14" d="M737 672C712 678 687 684 661 691C634 698 634 698 621 701C565 714 529 717 515 718C497 718 498 736 507 745C518 756 534 766 552 776C557 779 563 775 571 772C627 740 688 717 748 693C755 690 745 670 737 672Z"/>
<path id="z32806d15" d="M748 693C761 719 773 734 783 737C799 740 804 715 805 697C805 686 800 673 786 661C753 632 732 619 724 622C721 622 718 626 718 633C717 638 726 651 737 672C744 686 744 686 748 693Z"/>
<defs>
	<clipPath id="z32806c1"><use href="#z32806d1"/></clipPath>
	<clipPath id="z32806c2"><use href="#z32806d2"/></clipPath>
	<clipPath id="z32806c3"><use href="#z32806d3"/></clipPath>
	<clipPath id="z32806c4"><use href="#z32806d4"/></clipPath>
	<clipPath id="z32806c5"><use href="#z32806d5"/></clipPath>
	<clipPath id="z32806c6"><use href="#z32806d6"/></clipPath>
	<clipPath id="z32806c7"><use href="#z32806d7"/></clipPath>
	<clipPath id="z32806c8"><use href="#z32806d8"/></clipPath>
	<clipPath id="z32806c9"><use href="#z32806d9"/></clipPath>
	<clipPath id="z32806c10"><use href="#z32806d10"/></clipPath>
	<clipPath id="z32806c11"><use href="#z32806d11"/></clipPath>
	<clipPath id="z32806c12"><use href="#z32806d12"/></clipPath>
	<clipPath id="z32806c13"><use href="#z32806d13"/></clipPath>
	<clipPath id="z32806c14"><use href="#z32806d14"/></clipPath>
	<clipPath id="z32806c15"><use href="#z32806d15"/></clipPath>
</defs>
<path style="--d:1s;" pathLength="3333" clip-path="url(#z32806c1)" d="M158 272L442 233"/>
<path style="--d:2s;" pathLength="3333" clip-path="url(#z32806c2)" d="M172 389L413 351"/>
<path style="--d:3s;" pathLength="3333" clip-path="url(#z32806c3)" d="M57 527L120 534L457 465"/>
<path style="--d:4s;" pathLength="3333" clip-path="url(#z32806c4)" d="M263 59L326 121L293 924"/>
<path style="--d:5s;" pathLength="3333" clip-path="url(#z32806c5)" d="M295 499L235 626L72 803"/>
<path style="--d:6s;" pathLength="3333" clip-path="url(#z32806c6)" d="M331 569L384 604L413 656"/>
<path style="--d:7s;" pathLength="3333" clip-path="url(#z32806c7)" d="M466 250L501 285L541 493"/>
<path style="--d:8s;" pathLength="3333" clip-path="url(#z32806c8)" d="M504 259L741 218L801 230L822 263L761 490"/>
<path style="--d:9s;" pathLength="3333" clip-path="url(#z32806c9)" d="M564 375L736 347"/>
<path style="--d:10s;" pathLength="3333" clip-path="url(#z32806c10)" d="M551 478L747 440"/>
<path style="--d:11s;" pathLength="3333" clip-path="url(#z32806c11)" d="M432 587L467 627L459 867"/>
<path style="--d:12s;" pathLength="3333" clip-path="url(#z32806c12)" d="M472 598L818 547L852 566L867 583L838 862L820 873L730 818"/>
<path style="--d:13s;" pathLength="3333" clip-path="url(#z32806c13)" d="M610 256L643 317L638 705"/>
<path style="--d:14s;" pathLength="3333" clip-path="url(#z32806c14)" d="M503 728L557 745L744 687"/>
<path style="--d:15s;" pathLength="3333" clip-path="url(#z32806c15)" d="M727 631L789 732"/>
</svg>