<!--
AnimCJK 2016-2018 Copyright Francois Mizessyn - https://github.com/parsimonhi/animCJK
Derived from:
    MakeMeAHanzi project - https://github.com/skishore/makemeahanzi
    Arphic PL KaitiM GB - https://apps.ubuntu.com/cat/applications/precise/fonts-arphic-gkai00mp/
    Arphic PL UKai - https://apps.ubuntu.com/cat/applications/fonts-arphic-ukai/
You can redistribute and/or modify this file under the terms of the Arphic Public License
as published by Arphic Technology Co., Ltd.
You should have received a copy of this license (the directory "APL") along with this file;
if not, see http://ftp.gnu.org/non-gnu/chinese-fonts-truetype/LICENSE.
-->
<svg id="z32810" class="acjk" version="1.1" viewBox="0 0 1024 1024" xmlns="http://www.w3.org/2000/svg" xmlns:xlink="http://www.w3.org/1999/xlink">
<style>
<![CDATA[
@keyframes z32810k {
	from {
		stroke:#ccc;
		stroke-dashoffset:3334;
	}
	1% {
		stroke:#c00;
		stroke-dashoffset:3334;
	}
	75% {
		stroke:#c00;
		stroke-dashoffset:0;
	}
	to {
		stroke:#000;
	}
}
#z32810 path[clip-path] {
	animation:z32810k 1s linear both;
	stroke-dasharray:3334;
	stroke-width:128;
	stroke-linecap:round;
	fill:none;
}
#z32810 path[clip-path="url(#z32810c1)"] {animation-delay:1s;}
#z32810 path[clip-path="url(#z32810c2)"] {animation-delay:2s;}
#z32810 path[clip-path="url(#z32810c3)"] {animation-delay:3s;}
#z32810 path[clip-path="url(#z32810c4)"] {animation-delay:4s;}
#z32810 path[clip-path="url(#z32810c5)"] {animation-delay:5s;}
#z32810 path[clip-path="url(#z32810c6)"] {animation-delay:6s;}
#z32810 path[clip-path="url(#z32810c7)"] {animation-delay:7s;}
#z32810 path[clip-path="url(#z32810c8)"] {animation-delay:8s;}
#z32810 path[clip-path="url(#z32810c9)"] {animation-delay:9s;}
#z32810 path[clip-path="url(#z32810c10)"] {animation-delay:10s;}
#z32810 path[clip-path="url(#z32810c11)"] {animation-delay:11s;}
#z32810 path[clip-path="url(#z32810c12)"] {animation-delay:12s;}
#z32810 path[clip-path="url(#z32810c13)"] {animation-delay:13s;}
#z32810 path[clip-path="url(#z32810c14)"] {animation-delay:14s;}
#z32810 path[clip-path="url(#z32810c15)"] {animation-delay:15s;}
#z32810 path[clip-path="url(#z32810c16)"] {animation-delay:16s;}
#z32810 path {fill:#ccc;}
]]>
</style>
<path id="z32810d1" d="M340 289Q449 253 453 251Q460 244 456 235Q449 225 419 219Q382 216 343 238C314 249 314 249 300 254Q287 257 276 262Q225 277 166 287Q132 296 158 310Q203 328 256 312Q275 305 300 300C327 293 327 293 340 289Z"></path>
<path id="z32810d2" d="M337 411Q365 402 398 395Q428 386 432 382Q439 375 435 367Q428 357 401 351Q383 348 338 363C313 372 313 372 300 377Q191 401 186 402Q153 409 178 423Q212 439 277 425Q286 422 298 421C324 414 324 414 337 411Z"></path>
<path id="z32810d3" d="M334 532Q365 522 408 513Q423 509 423 502Q423 489 405 483Q375 473 335 489C308 498 308 498 295 502Q145 547 93 555Q81 556 79 565Q78 575 92 584Q128 605 184 584Q232 563 270 552C313 539 313 539 334 532Z"></path>
<path id="z32810d4" d="M333 590Q333 562 334 532C335 503 335 503 335 489Q335 452 337 411C338 379 338 379 338 363Q338 327 340 289C342 255 342 255 343 238Q347 178 361 134Q370 119 367 106Q360 96 306 63Q284 47 263 61Q259 65 264 81Q300 133 300 186Q300 219 300 254C300 285 300 285 300 300Q300 337 300 377C299 406 299 406 298 421Q297 460 295 502C293 570 293 570 292 604Q286 754 263 831Q251 867 276 930Q283 948 290 951Q297 958 304 949Q331 933 331 870Q330 833 332 621C333 600 333 600 333 590Z"></path>
<path id="z32810d5" d="M270 552Q212 663 60 832Q54 841 64 842Q70 843 79 836Q208 746 292 604C320 558 294 504 270 552Z"></path>
<path id="z32810d6" d="M332 621Q386 687 410 690Q423 691 429 675Q430 663 423 644Q413 625 388 614Q352 595 333 590C323 587 326 613 332 621Z"></path>
<path id="z32810d7" d="M619 123Q644 142 670 167Q683 179 698 177Q708 176 713 164Q717 149 707 121Q701 103 673 92Q604 71 592 77Q588 81 589 93Q593 103 619 123Z"></path>
<path id="z32810d8" d="M750 241Q762 237 777 234Q814 224 820 218Q827 211 823 203Q816 193 789 187Q764 183 670 217Q574 241 535 246Q501 253 526 267Q568 288 616 273Q667 260 720 248C740 243 740 243 750 241Z"></path>
<path id="z32810d9" d="M554 332Q578 374 598 387Q608 391 616 383Q623 374 623 362Q622 344 610 333Q579 302 554 302Q551 301 550 302Q546 302 545 312Q545 319 554 332Z"></path>
<path id="z32810d10" d="M719 381Q738 354 760 320Q767 308 779 293Q792 283 785 274Q778 259 752 242Q751 241 750 241C741 236 715 239 720 248Q721 249 722 251Q731 278 697 366Q691 378 689 388C687 398 713 389 719 381Z"></path>
<path id="z32810d11" d="M507 427Q494 400 476 390Q473 386 467 390Q463 393 462 404Q468 428 440 495Q431 511 433 528Q436 546 445 559Q452 569 457 561Q469 558 483 514Q496 472 503 457C507 448 512 436 507 427Z"></path>
<path id="z32810d12" d="M503 457Q525 466 571 451Q718 400 814 392Q818 391 823 392Q839 401 838 408Q825 450 811 493C812 494 812 494 813 495Q820 499 834 487Q880 450 922 435Q955 422 954 413Q953 404 885 361Q866 348 844 353Q795 363 734 378Q727 379 719 381C699 386 699 386 689 388Q638 395 573 413Q539 420 507 427C497 429 494 453 503 457Z"></path>
<path id="z32810d13" d="M622 502Q665 545 680 547Q689 546 693 535Q697 523 690 499Q684 478 618 462Q605 459 600 461Q596 465 597 475Q600 485 622 502Z"></path>
<path id="z32810d14" d="M668 606Q713 596 897 579Q913 578 917 570Q921 560 906 548Q855 517 802 536Q657 572 469 612Q451 616 466 629Q479 639 494 643Q513 647 526 641Q572 625 625 614C654 609 654 609 668 606Z"></path>
<path id="z32810d15" d="M663 684Q675 691 715 699Q757 705 750 752Q749 758 747 766Q731 827 706 863Q694 875 673 873Q663 870 637 859Q603 844 598 850Q594 859 610 870Q650 901 663 940Q667 956 679 961Q692 967 723 946Q769 907 793 807Q805 756 822 744Q832 740 835 731Q836 722 814 698Q784 668 731 668Q707 665 683 657C673 653 653 679 663 684Z"></path>
<path id="z32810d16" d="M683 657Q695 639 696 636Q693 618 668 606C654 601 625 599 625 614Q629 678 525 796Q521 799 516 805Q483 839 401 906Q394 910 403 913Q475 900 572 799Q599 771 663 684C676 666 676 666 683 657Z"></path>
<defs>
	<clipPath id="z32810c1"><use xlink:href="#z32810d1"></use></clipPath>
	<clipPath id="z32810c2"><use xlink:href="#z32810d2"></use></clipPath>
	<clipPath id="z32810c3"><use xlink:href="#z32810d3"></use></clipPath>
	<clipPath id="z32810c4"><use xlink:href="#z32810d4"></use></clipPath>
	<clipPath id="z32810c5"><use xlink:href="#z32810d5"></use></clipPath>
	<clipPath id="z32810c6"><use xlink:href="#z32810d6"></use></clipPath>
	<clipPath id="z32810c7"><use xlink:href="#z32810d7"></use></clipPath>
	<clipPath id="z32810c8"><use xlink:href="#z32810d8"></use></clipPath>
	<clipPath id="z32810c9"><use xlink:href="#z32810d9"></use></clipPath>
	<clipPath id="z32810c10"><use xlink:href="#z32810d10"></use></clipPath>
	<clipPath id="z32810c11"><use xlink:href="#z32810d11"></use></clipPath>
	<clipPath id="z32810c12"><use xlink:href="#z32810d12"></use></clipPath>
	<clipPath id="z32810c13"><use xlink:href="#z32810d13"></use></clipPath>
	<clipPath id="z32810c14"><use xlink:href="#z32810d14"></use></clipPath>
	<clipPath id="z32810c15"><use xlink:href="#z32810d15"></use></clipPath>
	<clipPath id="z32810c16"><use xlink:href="#z32810d16"></use></clipPath>
</defs>
<path pathLength="3333" clip-path="url(#z32810c1)" d="M154 298L452 241"></path>
<path pathLength="3333" clip-path="url(#z32810c2)" d="M174 412L431 373"></path>
<path pathLength="3333" clip-path="url(#z32810c3)" d="M86 565L150 568L418 499"></path>
<path pathLength="3333" clip-path="url(#z32810c4)" d="M267 65L329 119L300 948"></path>
<path pathLength="3333" clip-path="url(#z32810c5)" d="M287 554L204 693L67 832"></path>
<path pathLength="3333" clip-path="url(#z32810c6)" d="M339 602L424 677"></path>
<path pathLength="3333" clip-path="url(#z32810c7)" d="M597 86L672 126L699 173"></path>
<path pathLength="3333" clip-path="url(#z32810c8)" d="M525 256L820 207"></path>
<path pathLength="3333" clip-path="url(#z32810c9)" d="M552 308L609 384"></path>
<path pathLength="3333" clip-path="url(#z32810c10)" d="M728 250L754 284L697 382"></path>
<path pathLength="3333" clip-path="url(#z32810c11)" d="M472 394L483 432L452 559"></path>
<path pathLength="3333" clip-path="url(#z32810c12)" d="M509 452L836 374L899 425L818 491"></path>
<path pathLength="3333" clip-path="url(#z32810c13)" d="M605 470L684 539"></path>
<path pathLength="3333" clip-path="url(#z32810c14)" d="M467 620L815 559L913 567"></path>
<path pathLength="3333" clip-path="url(#z32810c15)" d="M672 682L751 690L793 735L706 909L673 915L606 855"></path>
<path pathLength="3333" clip-path="url(#z32810c16)" d="M632 622L654 652L579 762L406 906"></path>
</svg>