<!--
AnimCJK 2016-2018 Copyright Francois Mizessyn - https://github.com/parsimonhi/animCJK
Derived from:
    MakeMeAHanzi project - https://github.com/skishore/makemeahanzi
    Arphic PL KaitiM GB - https://apps.ubuntu.com/cat/applications/precise/fonts-arphic-gkai00mp/
    Arphic PL UKai - https://apps.ubuntu.com/cat/applications/fonts-arphic-ukai/
You can redistribute and/or modify this file under the terms of the Arphic Public License
as published by Arphic Technology Co., Ltd.
You should have received a copy of this license (the directory "APL") along with this file;
if not, see http://ftp.gnu.org/non-gnu/chinese-fonts-truetype/LICENSE.
-->
<svg id="z32899" class="acjk" version="1.1" viewBox="0 0 1024 1024" xmlns="http://www.w3.org/2000/svg" xmlns:xlink="http://www.w3.org/1999/xlink">
<style>
<![CDATA[
@keyframes z32899k {
	from {
		stroke:#ccc;
		stroke-dashoffset:3334;
	}
	1% {
		stroke:#c00;
		stroke-dashoffset:3334;
	}
	75% {
		stroke:#c00;
		stroke-dashoffset:0;
	}
	to {
		stroke:#000;
	}
}
#z32899 path[clip-path] {
	animation:z32899k 1s linear both;
	stroke-dasharray:3334;
	stroke-width:128;
	stroke-linecap:round;
	fill:none;
}
#z32899 path[clip-path="url(#z32899c1)"] {animation-delay:1s;}
#z32899 path[clip-path="url(#z32899c2)"] {animation-delay:2s;}
#z32899 path[clip-path="url(#z32899c3)"] {animation-delay:3s;}
#z32899 path[clip-path="url(#z32899c4)"] {animation-delay:4s;}
#z32899 path[clip-path="url(#z32899c5)"] {animation-delay:5s;}
#z32899 path[clip-path="url(#z32899c6)"] {animation-delay:6s;}
#z32899 path[clip-path="url(#z32899c7)"] {animation-delay:7s;}
#z32899 path[clip-path="url(#z32899c8)"] {animation-delay:8s;}
#z32899 path {fill:#ccc;}
]]>
</style>
<path id="z32899d1" d="M658 397Q668 348 679 317L697 275Q710 250 726 237Q742 218 727 199Q711 186 655 160Q636 153 614 161Q566 177 524 190L479 200Q394 216 304 222Q288 223 289 233Q290 242 310 248Q335 261 373 250Q425 240 479 232L520 225Q610 204 625 218Q637 230 635 254Q632 270 630 286L624 321Q617 355 610 388L658 397 Z"/>
<path id="z32899d2" d="M679 317Q757 313 850 313Q932 313 939 304Q945 292 928 278Q874 238 813 253Q761 262 697 275L630 286Q579 292 517 302L481 307Q318 326 128 350Q107 351 123 369Q136 382 155 388Q176 394 192 389Q316 355 455 338Q467 335 481 335L517 330Q565 323 624 321L679 317 Z"/>
<path id="z32899d3" d="M517 448Q581 439 670 432Q682 431 683 422Q683 415 658 397L610 388Q609 388 517 408L480 416Q392 431 316 440Q294 441 307 460Q314 470 325 474Q337 477 350 474Q399 462 479 453L517 448 Z"/>
<path id="z32899d4" d="M451 808Q441 842 465 903Q472 919 479 923Q485 929 492 922Q499 918 509 897Q518 875 517 844Q516 799 517 448L517 408Q517 371 517 330L517 302Q517 301 518 298Q518 259 520 225L524 190Q528 156 537 127Q546 112 542 100Q536 91 483 59Q461 43 442 58Q438 62 443 77Q479 129 479 200L479 232Q479 268 481 307L481 335Q481 336 482 340Q481 377 480 416L479 453Q478 549 476 652Q472 733 451 808 Z"/>
<path id="z32899d5" d="M367 592Q385 638 333 750Q309 799 275 848Q271 852 272 858Q272 862 277 861Q326 848 408 678Q420 639 430 625Q434 616 426 606Q398 573 373 576Q360 577 367 592 Z"/>
<path id="z32899d6" d="M563 606Q597 670 635 759Q642 781 653 789Q660 792 669 786Q684 779 686 739Q687 681 573 581Q567 574 561 584Q557 594 563 606 Z"/>
<path id="z32899d7" d="M221 547Q252 583 232 711Q231 714 231 719Q207 819 102 914Q90 924 102 925Q153 919 212 855Q288 776 290 661Q293 597 305 570Q312 552 296 546Q251 516 226 528Q214 534 221 547 Z"/>
<path id="z32899d8" d="M707 478Q759 589 721 874Q712 920 747 967Q757 977 767 966Q794 920 788 853Q770 640 785 507Q791 483 769 472Q753 462 734 453Q721 449 711 455Q702 462 707 478 Z"/>
<defs>
	<clipPath id="z32899c1"><use xlink:href="#z32899d1"/></clipPath>
	<clipPath id="z32899c2"><use xlink:href="#z32899d2"/></clipPath>
	<clipPath id="z32899c3"><use xlink:href="#z32899d3"/></clipPath>
	<clipPath id="z32899c4"><use xlink:href="#z32899d4"/></clipPath>
	<clipPath id="z32899c5"><use xlink:href="#z32899d5"/></clipPath>
	<clipPath id="z32899c6"><use xlink:href="#z32899d6"/></clipPath>
	<clipPath id="z32899c7"><use xlink:href="#z32899d7"/></clipPath>
	<clipPath id="z32899c8"><use xlink:href="#z32899d8"/></clipPath>
</defs>
<path pathLength="3333" clip-path="url(#z32899c1)" d="M295 231L639 188L684 232L626 390"/>
<path pathLength="3333" clip-path="url(#z32899c2)" d="M123 357L182 367L796 284L934 291"/>
<path pathLength="3333" clip-path="url(#z32899c3)" d="M311 451L677 418"/>
<path pathLength="3333" clip-path="url(#z32899c4)" d="M446 62L506 122L483 919"/>
<path pathLength="3333" clip-path="url(#z32899c5)" d="M375 586L400 621L383 681L279 853"/>
<path pathLength="3333" clip-path="url(#z32899c6)" d="M570 584L669 783"/>
<path pathLength="3333" clip-path="url(#z32899c7)" d="M225 539L272 576L248 752L193 845L106 918"/>
<path pathLength="3333" clip-path="url(#z32899c8)" d="M714 458L751 498L755 537L753 966"/>
</svg>