<!--
AnimCJK 2016-2018 Copyright Francois Mizessyn, https://github.com/parsimonhi/animCJK
Derived from:
    MakeMeAHanzi project - https://github.com/skishore/makemeahanzi
    Arphic PL KaitiM GB - https://apps.ubuntu.com/cat/applications/precise/fonts-arphic-gkai00mp/
    Arphic PL UKai - https://apps.ubuntu.com/cat/applications/fonts-arphic-ukai/
You can redistribute and/or modify this file under the terms of the Arphic Public License
as published by Arphic Technology Co., Ltd.
You should have received a copy of this license (the directory "APL") along with this file;
if not, see http://ftp.gnu.org/non-gnu/chinese-fonts-truetype/LICENSE.
-->
<svg id="z32908" class="acjk" version="1.1" viewBox="0 0 1024 1024" xmlns="http://www.w3.org/2000/svg" xmlns:xlink="http://www.w3.org/1999/xlink">
<style>
<![CDATA[
@keyframes z32908k {
	from {
		stroke:#c00;
		stroke-dashoffset:3334;
	}
	75% {
		stroke:#c00;
		stroke-dashoffset:0;
	}
	to {
		stroke:#000;
	}
}
#z32908 path[clip-path] {
	animation:z32908k 1s linear both;
	stroke-dasharray:3334;
	stroke-width:128;
	stroke-linecap:round;
	fill:none;
}
#z32908 path[clip-path="url(#z32908c1)"] {animation-delay:1s;}
#z32908 path[clip-path="url(#z32908c2)"] {animation-delay:2s;}
#z32908 path[clip-path="url(#z32908c3)"] {animation-delay:3s;}
#z32908 path[clip-path="url(#z32908c4)"] {animation-delay:4s;}
#z32908 path[clip-path="url(#z32908c5)"] {animation-delay:5s;}
#z32908 path[clip-path="url(#z32908c6)"] {animation-delay:6s;}
#z32908 path {fill:#ccc;}
]]>
</style>
<path id="z32908d1" d="M218 535Q218 528 220 524Q229 467 232 412L234 381Q235 362 235 342Q238 240 243 231L225 202Q212 193 192 186Q173 177 161 183Q151 190 158 203Q176 227 182 285Q182 516 155 617Q127 713 56 850Q52 857 51 863Q50 873 59 870Q74 867 107 817Q180 720 212 562L218 535 Z"/>
<path id="z32908d2" d="M243 231Q247 230 255 228Q283 221 311 213Q330 209 335 218Q359 282 346 670Q343 770 333 784Q329 790 310 785Q285 779 258 773Q239 767 241 776Q295 822 325 857Q338 876 352 880Q361 884 369 874Q408 829 406 776Q381 280 409 230Q419 211 409 201Q388 183 354 169Q336 162 321 169Q284 190 225 202L243 231 Z"/>
<path id="z32908d3" d="M232 412Q275 400 311 393Q330 389 322 378Q312 368 290 366Q272 366 234 381L232 412 Z"/>
<path id="z32908d4" d="M212 562Q215 563 221 562Q272 552 310 546Q329 542 321 531Q311 518 288 516Q248 513 218 535L212 562 Z"/>
<path id="z32908d5" d="M565 263Q549 251 524 242Q505 233 493 239Q483 246 490 259Q506 280 511 350Q510 351 511 354Q518 486 492 593Q470 683 416 782Q412 789 411 795Q410 805 419 802Q431 801 462 756Q567 623 567 366Q567 318 572 297L565 263 Z"/>
<path id="z32908d6" d="M958 807Q979 798 971 775Q956 724 951 653Q948 616 941 608Q934 604 929 615Q902 735 865 764Q829 783 768 761Q749 754 740 741Q719 705 725 553Q728 426 745 340Q749 303 783 271Q796 253 780 240Q758 224 709 208Q690 204 671 216Q632 244 565 263L572 297Q593 297 652 273Q667 270 673 275Q679 278 679 291Q676 741 701 773Q708 785 725 796Q812 857 952 809Q955 808 958 807 Z"/>
<defs>
	<clipPath id="z32908c1"><use xlink:href="#z32908d1"/></clipPath>
	<clipPath id="z32908c2"><use xlink:href="#z32908d2"/></clipPath>
	<clipPath id="z32908c3"><use xlink:href="#z32908d3"/></clipPath>
	<clipPath id="z32908c4"><use xlink:href="#z32908d4"/></clipPath>
	<clipPath id="z32908c5"><use xlink:href="#z32908d5"/></clipPath>
	<clipPath id="z32908c6"><use xlink:href="#z32908d6"/></clipPath>
</defs>
<path pathLength="3333" clip-path="url(#z32908c1)" d="M161 188L209 240L192 547L147 705L56 863"/>
<path pathLength="3333" clip-path="url(#z32908c2)" d="M235 206L332 189L377 225L368 797L343 833L253 778"/>
<path pathLength="3333" clip-path="url(#z32908c3)" d="M239 404L319 381"/>
<path pathLength="3333" clip-path="url(#z32908c4)" d="M219 556L317 537"/>
<path pathLength="3333" clip-path="url(#z32908c5)" d="M493 244L539 304L532 510L496 656L419 797"/>
<path pathLength="3333" clip-path="url(#z32908c6)" d="M577 288L677 241L737 271L713 322L702 542L729 767L820 801L928 767L938 616"/>
</svg>