<!--
AnimCJK 2016-2019 Copyright Francois Mizessyn - https://github.com/parsimonhi/animCJK
Derived from:
    MakeMeAHanzi project - https://github.com/skishore/makemeahanzi
    Arphic PL KaitiM GB font
    Arphic PL UKai font
You can redistribute and/or modify this file under the terms of the Arphic Public License
as published by Arphic Technology Co., Ltd.
You should have received a copy of this license along with this file.
If not, see http://ftp.gnu.org/non-gnu/chinese-fonts-truetype/LICENSE.
-->
<svg id="z32928" class="acjk" version="1.1" viewBox="0 0 1024 1024" xmlns="http://www.w3.org/2000/svg" xmlns:xlink="http://www.w3.org/1999/xlink">
<style>
<![CDATA[
@keyframes zk {
	to {
		stroke-dashoffset:0;
	}
}
svg.acjk path[clip-path] {
	--t:0.8s;
	animation:zk var(--t) linear forwards var(--d);
	stroke-dasharray:3337;
	stroke-dashoffset:3339;
	stroke-width:128;
	stroke-linecap:round;
	fill:none;
	stroke:#000;
}
svg.acjk path[id] {fill:#ccc;}
]]>
</style>
<path id="z32928d1" d="M217 524C220 506 227 450 229 415C230 391 230 391 231 379C233 328 234 252 238 231C240 219 232 205 222 198C213 191 201 187 188 182C174 177 164 174 157 179C150 183 148 191 154 200C163 214 177 237 178 273C182 435 170 548 153 612C135 676 102 754 56 846C53 850 51 855 51 859C50 865 52 867 59 866C70 863 84 844 107 812C152 748 189 664 211 555C215 534 215 534 217 524Z"/>
<path id="z32928d2" d="M238 231C246 227 266 219 297 209C309 204 319 204 322 212C331 235 337 342 340 532C341 684 336 769 326 787C325 787 300 787 251 784C236 783 228 784 233 789C269 819 302 839 322 862C332 873 340 882 352 885C358 886 363 884 369 878C395 844 406 809 404 773C381 441 379 257 398 223C405 209 405 201 397 194C382 181 363 170 339 161C326 156 314 156 305 162C288 172 274 180 264 185C253 189 239 193 222 198C210 200 227 236 238 231Z"/>
<path id="z32928d3" d="M229 415Q271 408 304 404Q326 400 317 387Q307 374 283 371Q262 370 231 379C220 383 217 417 229 415Z"/>
<path id="z32928d4" d="M211 555Q212 555 215 555Q269 545 309 540Q331 536 321 523Q311 510 286 507Q247 504 217 524C208 529 200 555 211 555Z"/>
<path id="z32928d5" d="M737 809C726 823 715 829 705 827C686 822 665 817 640 811C629 808 623 807 623 810C622 812 628 819 640 830C662 852 678 877 692 904C697 915 705 921 712 924C716 925 725 921 739 911C777 880 809 840 834 790C859 737 884 636 912 489C915 470 922 458 931 450C939 442 940 432 931 422C920 410 904 400 884 388C869 379 852 376 834 382C815 387 796 392 778 396C764 398 730 404 678 413C623 421 598 426 581 428C569 429 562 432 560 423C558 414 586 368 644 287C671 248 693 228 706 223C715 219 718 214 719 211C719 205 717 200 713 197C696 182 678 173 660 165C648 160 618 168 565 184C511 199 476 202 463 203C452 203 445 204 444 208C441 211 443 216 447 222C452 229 460 235 471 242C480 247 500 250 530 241C594 221 628 211 629 220C630 235 605 287 548 367C509 421 486 449 488 460C488 466 490 472 494 480C496 486 506 486 526 479C532 476 541 474 551 472C572 467 572 467 583 465C609 459 641 450 679 444C708 439 708 439 722 437C764 430 797 427 820 427C836 427 845 430 847 438C859 497 846 588 799 704C776 757 754 790 742 804C740 805 738 806 737 809Z"/>
<path id="z32928d6" d="M551 472C561 505 522 585 439 682C435 685 430 688 428 697C427 699 429 701 433 701C477 692 529 643 587 553C591 545 599 534 611 519C615 512 615 504 611 497C602 482 593 471 584 465C583 465 583 465 583 465C574 459 549 461 551 472Z"/>
<path id="z32928d7" d="M679 444C691 496 664 583 590 692C560 735 515 785 460 845C455 849 456 852 463 852C493 848 547 810 612 730C664 664 704 586 745 505C750 494 754 487 759 483C763 479 763 474 762 468C760 462 756 455 747 449C738 443 730 439 722 437C709 432 676 430 679 444Z"/>
<defs>
	<clipPath id="z32928c1"><use xlink:href="#z32928d1"/></clipPath>
	<clipPath id="z32928c2"><use xlink:href="#z32928d2"/></clipPath>
	<clipPath id="z32928c3"><use xlink:href="#z32928d3"/></clipPath>
	<clipPath id="z32928c4"><use xlink:href="#z32928d4"/></clipPath>
	<clipPath id="z32928c5"><use xlink:href="#z32928d5"/></clipPath>
	<clipPath id="z32928c6"><use xlink:href="#z32928d6"/></clipPath>
	<clipPath id="z32928c7"><use xlink:href="#z32928d7"/></clipPath>
</defs>
<path style="--d:1s;" pathLength="3333" clip-path="url(#z32928c1)" d="M157 184L204 237L193 520L148 695L58 860"/>
<path style="--d:2s;" pathLength="3333" clip-path="url(#z32928c2)" d="M229 201L322 183L364 214L366 789L341 836L243 788"/>
<path style="--d:3s;" pathLength="3333" clip-path="url(#z32928c3)" d="M237 406L315 393"/>
<path style="--d:4s;" pathLength="3333" clip-path="url(#z32928c4)" d="M219 546L318 529"/>
<path style="--d:5s;" pathLength="3333" clip-path="url(#z32928c5)" d="M449 214L499 222L626 190L673 212L538 414L531 456L834 404L892 445L836 692L784 807L711 875L632 813"/>
<path style="--d:6s;" pathLength="3333" clip-path="url(#z32928c6)" d="M557 480L576 522L436 694"/>
<path style="--d:7s;" pathLength="3333" clip-path="url(#z32928c7)" d="M687 451L722 486L649 636L566 752L465 845"/>
</svg>