<!--
AnimCJK 2016-2017 Copyright Francois Mizessyn, http://gooo.free.fr/animCJK/
Derived from:
    MakeMeAHanzi project - https://github.com/skishore/makemeahanzi
    Arphic PL KaitiM GB - https://apps.ubuntu.com/cat/applications/precise/fonts-arphic-gkai00mp/
    Arphic PL UKai - https://apps.ubuntu.com/cat/applications/fonts-arphic-ukai/
You can redistribute and/or modify this file under the terms of the Arphic Public License
as published by Arphic Technology Co., Ltd.
You should have received a copy of this license (the directory "APL") along with this file;
if not, see http://ftp.gnu.org/non-gnu/chinese-fonts-truetype/LICENSE.
-->
<svg id="z32958" class="acjk" version="1.1" viewBox="0 0 1024 1024" xmlns="http://www.w3.org/2000/svg" xmlns:xlink="http://www.w3.org/1999/xlink">
<style>
<![CDATA[
	@keyframes z32958k {
		from {
			stroke:#c00;
			stroke-dashoffset:3000;
		}
		75% {
			stroke:#c00;
			stroke-dashoffset:0;
		}
		to {
			stroke:#000;
		}
	}
	#z32958 path[clip-path] {
		animation:z32958k 1s linear both;
		stroke-dasharray:3000;
		stroke-width:128;
		stroke-linecap:round;
		fill:none;
	}
	#z32958 path[clip-path="url(#z32958c1)"] {animation-delay:1s;}
	#z32958 path[clip-path="url(#z32958c2)"] {animation-delay:2s;}
	#z32958 path[clip-path="url(#z32958c3)"] {animation-delay:3s;}
	#z32958 path[clip-path="url(#z32958c4)"] {animation-delay:4s;}
	#z32958 path[clip-path="url(#z32958c5)"] {animation-delay:5s;}
	#z32958 path[clip-path="url(#z32958c6)"] {animation-delay:6s;}
	#z32958 path[clip-path="url(#z32958c7)"] {animation-delay:7s;}
	#z32958 path[clip-path="url(#z32958c8)"] {animation-delay:8s;}
	#z32958 path {fill:#ccc;}
]]>
</style>
<g transform="scale(1,-1) translate(0,-900)">
	<path id="z32958d1" d="M209 698Q230 656 217 522Q213 501 234 470Q241 461 249 471Q262 489 263 566Q263 644 268 675Q272 693 257 702Q244 709 230 717Q220 720 213 715Q206 711 209 698Z"/>
	<path id="z32958d2" d="M334 769Q364 708 357 489Q358 464 365 447Q369 437 379 442Q398 463 396 527Q411 731 414 739Q421 757 410 767Q397 779 372 791Q353 798 332 790Q322 783 334 769Z"/>
	<path id="z32958d3" d="M667 587Q710 642 743 718Q755 745 773 761Q792 776 780 789Q767 801 738 812Q722 818 652 793Q538 771 515 768Q502 767 498 761Q494 754 511 747Q545 734 591 747Q660 768 673 767Q695 764 688 741Q673 675 631 614L606 587Q548 545 476 523Q463 519 474 511Q478 507 513 510Q577 514 636 559L667 587Z"/>
	<path id="z32958d4" d="M636 559Q744 451 787 454Q862 458 922 473Q953 480 950 488Q949 492 917 500Q764 533 719 556Q695 571 667 587L631 614Q594 642 556 675Q522 706 493 704Q477 703 475 698Q474 692 488 684Q527 666 606 587L636 559Z"/>
	<path id="z32958d5" d="M380 184Q383 232 387 267L389 291Q393 351 398 370Q398 374 398 377L390 403Q366 427 332 427Q319 423 323 410Q362 317 319 137Q294 71 296 61Q296 31 314 7Q321 -8 332 -2Q368 19 377 136Q378 152 379 168L380 184Z"/>
	<path id="z32958d6" d="M398 377Q411 378 426 382Q580 415 605 404Q618 398 621 370Q639 202 633 71Q632 44 617 39Q604 35 538 54Q525 57 526 48Q527 41 543 31Q583 -3 615 -37Q631 -55 650 -53Q666 -49 685 -2Q709 47 704 95Q692 212 682 318Q678 361 694 395Q707 411 692 425Q673 441 633 455Q611 465 593 453Q572 444 533 433Q436 412 390 403L398 377Z"/>
	<path id="z32958d7" d="M387 267Q391 266 405 267Q493 280 559 289Q581 293 573 305Q563 318 539 323Q521 326 389 291L387 267Z"/>
	<path id="z32958d8" d="M379 168Q388 162 445 165Q512 172 566 178Q588 179 581 193Q571 206 548 212Q526 216 486 208Q429 195 380 184L379 168Z"/>
	<defs>
		<clipPath id="z32958c1"><use xlink:href="#z32958d1"/></clipPath>
		<clipPath id="z32958c2"><use xlink:href="#z32958d2"/></clipPath>
		<clipPath id="z32958c3"><use xlink:href="#z32958d3"/></clipPath>
		<clipPath id="z32958c4"><use xlink:href="#z32958d4"/></clipPath>
		<clipPath id="z32958c5"><use xlink:href="#z32958d5"/></clipPath>
		<clipPath id="z32958c6"><use xlink:href="#z32958d6"/></clipPath>
		<clipPath id="z32958c7"><use xlink:href="#z32958d7"/></clipPath>
		<clipPath id="z32958c8"><use xlink:href="#z32958d8"/></clipPath>
	</defs>
	<path pathLength="2999" clip-path="url(#z32958c1)" d="M217 708L243 677L239 471"/>
	<path pathLength="2999" clip-path="url(#z32958c2)" d="M336 781L380 747L375 447"/>
	<path pathLength="2999" clip-path="url(#z32958c3)" d="M507 759L678 786L736 766L646 597L551 534L478 518"/>
	<path pathLength="2999" clip-path="url(#z32958c4)" d="M483 697L738 511L941 487"/>
	<path pathLength="2999" clip-path="url(#z32958c5)" d="M331 420L361 391L367 342L325 2"/>
	<path pathLength="2999" clip-path="url(#z32958c6)" d="M399 398L595 432L658 399L663 41L629 -7L533 47"/>
	<path pathLength="2999" clip-path="url(#z32958c7)" d="M391 273L568 304"/>
	<path pathLength="2999" clip-path="url(#z32958c8)" d="M382 174L577 187"/>
</g>
</svg>