<!--
AnimCJK 2016-2019 Copyright Francois Mizessyn - https://github.com/parsimonhi/animCJK
Derived from:
    MakeMeAHanzi project - https://github.com/skishore/makemeahanzi
    Arphic PL KaitiM GB font
    Arphic PL UKai font
You can redistribute and/or modify this file under the terms of the Arphic Public License
as published by Arphic Technology Co., Ltd.
You should have received a copy of this license along with this file.
If not, see http://ftp.gnu.org/non-gnu/chinese-fonts-truetype/LICENSE.
-->
<svg id="z32957" class="acjk" version="1.1" viewBox="0 0 1024 1024" xmlns="http://www.w3.org/2000/svg" xmlns:xlink="http://www.w3.org/1999/xlink">
<style>
<![CDATA[
@keyframes zk {
	to {
		stroke-dashoffset:0;
	}
}
svg.acjk path[clip-path] {
	--t:0.8s;
	animation:zk var(--t) linear forwards var(--d);
	stroke-dasharray:3337;
	stroke-dashoffset:3339;
	stroke-width:128;
	stroke-linecap:round;
	fill:none;
	stroke:#000;
}
svg.acjk path[id] {fill:#ccc;}
]]>
</style>
<path id="z32957d1" d="M219 540Q231 474 233 413C234 390 234 390 234 379Q234 240 239 234C241 223 231 211 221 205Q208 196 189 190Q170 183 159 188Q149 195 156 208Q175 227 181 296Q181 305 182 317Q191 479 165 594Q141 690 79 815Q75 822 74 827Q73 837 83 834Q95 831 127 782Q181 709 212 576C217 552 217 552 219 540Z"/>
<path id="z32957d2" d="M299 217Q318 213 324 223Q346 283 340 655Q337 752 328 766Q324 772 304 767Q282 764 259 761Q240 755 241 765Q293 807 322 839Q335 857 350 861Q359 864 367 855Q403 807 402 756Q390 587 386 313Q385 258 397 233Q409 214 397 205Q376 187 342 173Q324 166 309 173Q276 192 221 205C210 207 228 238 239 234C279 223 279 223 299 217Z"/>
<path id="z32957d3" d="M233 413Q275 404 309 400Q331 394 322 383Q310 370 286 368Q265 367 234 379C223 383 222 415 233 413Z"/>
<path id="z32957d4" d="M212 576Q267 569 307 565Q329 561 321 548Q311 533 285 529Q261 528 220 539Q219 539 219 540C208 545 200 578 212 576Z"/>
<path id="z32957d5" d="M639 419Q697 406 837 389Q850 390 860 376Q861 361 835 349Q796 325 692 355Q668 358 643 367C608 374 608 374 590 378Q535 384 441 398Q407 402 433 423Q473 451 500 447Q507 443 585 429C621 422 621 422 639 419Z"/>
<path id="z32957d6" d="M573 700Q606 628 626 516C631 483 631 483 633 466Q636 441 639 419C642 384 642 384 643 367Q643 360 644 351Q647 237 669 179Q673 167 665 159Q646 143 610 127Q588 118 571 124Q552 131 567 149Q595 179 596 210Q596 301 590 378C587 412 587 412 585 429Q557 669 457 786Q435 810 407 838Q395 845 393 850Q389 857 406 856Q467 847 550 740Q554 731 560 724C569 708 569 708 573 700Z"/>
<path id="z32957d7" d="M626 516Q759 825 815 833Q882 834 939 839Q963 840 964 835Q967 828 941 811Q818 733 771 679Q689 576 633 466C624 452 620 500 626 516Z"/>
<path id="z32957d8" d="M560 724Q564 731 574 744Q598 774 623 808Q632 821 645 824Q655 825 661 815Q668 803 665 777Q662 746 579 702Q576 701 573 700C564 697 555 717 560 724Z"/>
<defs>
	<clipPath id="z32957c1"><use xlink:href="#z32957d1"/></clipPath>
	<clipPath id="z32957c2"><use xlink:href="#z32957d2"/></clipPath>
	<clipPath id="z32957c3"><use xlink:href="#z32957d3"/></clipPath>
	<clipPath id="z32957c4"><use xlink:href="#z32957d4"/></clipPath>
	<clipPath id="z32957c5"><use xlink:href="#z32957d5"/></clipPath>
	<clipPath id="z32957c6"><use xlink:href="#z32957d6"/></clipPath>
	<clipPath id="z32957c7"><use xlink:href="#z32957d7"/></clipPath>
	<clipPath id="z32957c8"><use xlink:href="#z32957d8"/></clipPath>
</defs>
<path style="--d:1s;" pathLength="3333" clip-path="url(#z32957c1)" d="M161 193L206 245L201 514L169 653L83 826"/>
<path style="--d:2s;" pathLength="3333" clip-path="url(#z32957c2)" d="M230 208L318 193L365 225L365 774L340 814L251 765"/>
<path style="--d:3s;" pathLength="3333" clip-path="url(#z32957c3)" d="M239 404L318 390"/>
<path style="--d:4s;" pathLength="3333" clip-path="url(#z32957c4)" d="M222 567L317 554"/>
<path style="--d:5s;" pathLength="3333" clip-path="url(#z32957c5)" d="M430 409L489 419L852 369"/>
<path style="--d:6s;" pathLength="3333" clip-path="url(#z32957c6)" d="M569 136L632 184L593 546L526 730L402 850"/>
<path style="--d:7s;" pathLength="3333" clip-path="url(#z32957c7)" d="M634 477L693 612L792 757L837 795L958 829"/>
<path style="--d:8s;" pathLength="3333" clip-path="url(#z32957c8)" d="M576 707L646 820"/>
</svg>