<!--
AnimCJK 2016-2019 Copyright Francois Mizessyn - https://github.com/parsimonhi/animCJK
Derived from:
    MakeMeAHanzi project - https://github.com/skishore/makemeahanzi
    Arphic PL KaitiM GB font
    Arphic PL UKai font
You can redistribute and/or modify this file under the terms of the Arphic Public License
as published by Arphic Technology Co., Ltd.
You should have received a copy of this license along with this file.
If not, see http://ftp.gnu.org/non-gnu/chinese-fonts-truetype/LICENSE.
-->
<svg id="z32985" class="acjk" version="1.1" viewBox="0 0 1024 1024" xmlns="http://www.w3.org/2000/svg" xmlns:xlink="http://www.w3.org/1999/xlink">
<style>
<![CDATA[
@keyframes zk {
	to {
		stroke-dashoffset:0;
	}
}
svg.acjk path[clip-path] {
	--t:0.8s;
	animation:zk var(--t) linear forwards var(--d);
	stroke-dasharray:3337;
	stroke-dashoffset:3339;
	stroke-width:128;
	stroke-linecap:round;
	fill:none;
	stroke:#000;
}
svg.acjk path[id] {fill:#ccc;}
]]>
</style>
<path id="z32985d1" d="M225 504C227 489 235 409 236 393C237 367 237 367 237 354C239 264 239 216 244 212C248 201 236 189 227 182C218 175 206 170 192 166C179 161 168 159 161 164C153 167 152 176 158 184C170 201 183 228 184 270C186 412 178 515 166 579C145 678 110 746 68 830C65 834 62 838 62 843C60 849 64 851 71 850C80 847 94 828 118 796C160 736 198 654 218 544C223 517 223 517 225 504Z"/>
<path id="z32985d2" d="M244 212C252 210 275 203 316 193C328 189 337 192 341 200C351 226 357 336 357 530C356 688 348 773 339 788C336 792 327 792 313 789C290 783 266 779 243 773C230 769 219 772 225 777C266 813 307 837 333 865C343 876 351 884 362 888C368 890 373 888 379 882C405 848 418 813 417 777C411 654 407 493 406 295C405 256 409 228 419 211C426 198 427 188 419 181C404 168 385 156 361 147C348 142 325 150 289 166C275 171 254 175 227 182C216 184 233 214 244 212Z"/>
<path id="z32985d3" d="M236 393Q279 384 312 379Q337 372 326 360Q313 347 286 344Q265 343 237 354C225 359 223 396 236 393Z"/>
<path id="z32985d4" d="M218 544Q270 534 311 530Q336 526 326 512Q313 497 287 494Q262 491 225 504C212 509 205 547 218 544Z"/>
<path id="z32985d5" d="M538 312C558 280 577 242 596 198C606 173 614 154 625 141C630 134 630 126 626 118C622 109 610 100 591 90C572 80 557 76 546 79C535 80 532 90 540 103C555 130 544 191 503 286C483 330 459 377 430 427C425 434 421 438 421 443C419 450 424 453 432 450C450 442 479 403 522 337C533 320 533 320 538 312Z"/>
<path id="z32985d6" d="M645 343C706 330 768 313 833 298C865 290 883 283 888 279C894 273 895 266 892 261C886 252 872 245 852 241C832 236 787 253 713 275C623 300 564 307 538 312C528 314 514 331 522 337C542 356 588 354 606 351C632 346 632 346 645 343Z"/>
<path id="z32985d7" d="M667 623C667 582 666 541 668 499C669 484 669 484 669 477C670 434 673 403 677 383C678 374 676 367 672 363C663 354 654 348 645 343C634 336 599 340 606 351C626 385 630 506 611 716C602 806 599 858 604 873C611 899 625 920 643 938C644 939 644 939 644 939C650 945 658 935 662 926C670 903 672 881 671 860C667 785 667 715 667 650C667 632 667 632 667 623Z"/>
<path id="z32985d8" d="M668 499C692 507 726 507 771 496C791 491 812 484 834 479C844 476 851 473 854 471C858 466 859 460 856 455C851 448 839 442 819 440C808 438 777 448 726 464C710 468 688 473 669 477C662 478 661 498 668 499Z"/>
<path id="z32985d9" d="M667 650C695 658 730 659 772 651C844 636 881 626 884 625C890 619 890 613 887 608C882 600 870 592 850 589C829 585 808 589 788 597C771 603 753 607 735 612C715 616 690 620 667 623C658 624 658 648 667 650Z"/>
<defs>
	<clipPath id="z32985c1"><use xlink:href="#z32985d1"/></clipPath>
	<clipPath id="z32985c2"><use xlink:href="#z32985d2"/></clipPath>
	<clipPath id="z32985c3"><use xlink:href="#z32985d3"/></clipPath>
	<clipPath id="z32985c4"><use xlink:href="#z32985d4"/></clipPath>
	<clipPath id="z32985c5"><use xlink:href="#z32985d5"/></clipPath>
	<clipPath id="z32985c6"><use xlink:href="#z32985d6"/></clipPath>
	<clipPath id="z32985c7"><use xlink:href="#z32985d7"/></clipPath>
	<clipPath id="z32985c8"><use xlink:href="#z32985d8"/></clipPath>
	<clipPath id="z32985c9"><use xlink:href="#z32985d9"/></clipPath>
</defs>
<path style="--d:1s;" pathLength="3333" clip-path="url(#z32985c1)" d="M163 169L210 221L201 503L155 685L69 841"/>
<path style="--d:2s;" pathLength="3333" clip-path="url(#z32985c2)" d="M236 187L341 169L385 204L379 791L347 840L234 776"/>
<path style="--d:3s;" pathLength="3333" clip-path="url(#z32985c3)" d="M240 384L323 365"/>
<path style="--d:4s;" pathLength="3333" clip-path="url(#z32985c4)" d="M225 536L323 518"/>
<path style="--d:5s;" pathLength="3333" clip-path="url(#z32985c5)" d="M544 86L585 124L582 150L429 446"/>
<path style="--d:6s;" pathLength="3333" clip-path="url(#z32985c6)" d="M529 334L889 265"/>
<path style="--d:7s;" pathLength="3333" clip-path="url(#z32985c7)" d="M613 353L647 384L635 836L651 934"/>
<path style="--d:8s;" pathLength="3333" clip-path="url(#z32985c8)" d="M675 493L854 462"/>
<path style="--d:9s;" pathLength="3333" clip-path="url(#z32985c9)" d="M674 629L884 611"/>
</svg>