<!--
AnimCJK 2016-2019 Copyright Francois Mizessyn - https://github.com/parsimonhi/animCJK
Derived from:
    MakeMeAHanzi project - https://github.com/skishore/makemeahanzi
    Arphic PL KaitiM GB font
    Arphic PL UKai font
You can redistribute and/or modify this file under the terms of the Arphic Public License
as published by Arphic Technology Co., Ltd.
You should have received a copy of this license along with this file.
If not, see http://ftp.gnu.org/non-gnu/chinese-fonts-truetype/LICENSE.
-->
<svg id="z33033" class="acjk" version="1.1" viewBox="0 0 1024 1024" xmlns="http://www.w3.org/2000/svg" xmlns:xlink="http://www.w3.org/1999/xlink">
<style>
<![CDATA[
@keyframes zk {
	to {
		stroke-dashoffset:0;
	}
}
svg.acjk path[clip-path] {
	--t:0.8s;
	animation:zk var(--t) linear forwards var(--d);
	stroke-dasharray:3337;
	stroke-dashoffset:3339;
	stroke-width:128;
	stroke-linecap:round;
	fill:none;
	stroke:#000;
}
svg.acjk path[id] {fill:#ccc;}
]]>
</style>
<path id="z33033d1" d="M208 521Q208 518 209 515Q216 463 219 413C220 390 220 390 220 379Q221 357 221 336Q221 279 226 231C228 220 221 206 212 199Q199 189 176 182Q157 175 145 180Q135 187 142 200Q160 222 167 276Q167 294 168 315Q175 475 145 607Q115 715 52 838Q48 845 46 851Q45 861 55 858Q70 855 102 804Q174 708 202 555C206 532 206 532 208 521Z"/>
<path id="z33033d2" d="M226 231Q254 222 284 211Q303 205 309 215Q324 260 322 539Q319 764 304 790Q300 796 279 791Q251 784 223 777Q204 771 204 781Q262 830 295 867Q308 886 324 891Q333 895 342 885Q382 834 381 782Q372 602 373 311Q372 253 385 228Q398 209 385 198Q364 179 327 165Q309 158 294 165Q269 181 253 187Q237 191 212 199C201 203 215 235 226 231Z"/>
<path id="z33033d3" d="M219 413Q261 403 294 398Q313 394 305 383Q295 370 272 368Q253 367 220 379C209 383 208 415 219 413Z"/>
<path id="z33033d4" d="M202 555Q251 546 288 542Q309 538 301 527Q291 514 269 511Q248 508 211 519Q208 520 208 521C198 527 191 557 202 555Z"/>
<path id="z33033d5" d="M580 126Q659 190 674 190Q684 189 689 176Q693 161 683 133Q671 102 573 81Q557 78 552 81Q548 85 549 97Q553 107 580 126Z"/>
<path id="z33033d6" d="M670 474Q670 333 683 311Q693 292 683 283Q662 265 628 251Q612 244 596 251Q572 266 557 272Q535 281 486 289Q471 290 480 299Q489 309 503 313Q519 316 588 295Q606 289 611 298Q623 337 621 586Q615 793 602 813Q599 816 518 797Q499 791 501 800Q559 849 593 886Q606 904 620 908Q629 912 637 903Q673 861 674 789Q668 677 670 521C670 490 670 490 670 474Z"/>
<path id="z33033d7" d="M394 480Q384 480 382 488Q381 492 394 500Q433 521 455 512Q512 493 517 493Q530 494 524 522Q494 616 467 661Q439 712 388 764Q376 776 386 776Q393 776 410 766Q458 738 497 686Q534 640 582 519Q589 500 599 489Q611 479 603 471Q594 461 562 451Q544 444 498 464Q411 477 394 480Z"/>
<path id="z33033d8" d="M696 512Q801 418 854 383Q873 377 867 365Q860 349 838 330Q816 312 792 312Q776 313 778 334Q782 349 773 366Q743 417 684 494C680 500 690 516 696 512Z"/>
<path id="z33033d9" d="M684 494Q677 484 670 474C661 461 662 508 670 521Q742 654 821 749Q840 774 860 775Q918 771 967 766Q988 765 988 759Q989 753 966 739Q833 669 783 612Q752 581 696 512C688 500 688 500 684 494Z"/>
<defs>
	<clipPath id="z33033c1"><use xlink:href="#z33033d1"/></clipPath>
	<clipPath id="z33033c2"><use xlink:href="#z33033d2"/></clipPath>
	<clipPath id="z33033c3"><use xlink:href="#z33033d3"/></clipPath>
	<clipPath id="z33033c4"><use xlink:href="#z33033d4"/></clipPath>
	<clipPath id="z33033c5"><use xlink:href="#z33033d5"/></clipPath>
	<clipPath id="z33033c6"><use xlink:href="#z33033d6"/></clipPath>
	<clipPath id="z33033c7"><use xlink:href="#z33033d7"/></clipPath>
	<clipPath id="z33033c8"><use xlink:href="#z33033d8"/></clipPath>
	<clipPath id="z33033c9"><use xlink:href="#z33033d9"/></clipPath>
</defs>
<path style="--d:1s;" pathLength="3333" clip-path="url(#z33033c1)" d="M147 184L192 234L185 515L143 686L54 850"/>
<path style="--d:2s;" pathLength="3333" clip-path="url(#z33033c2)" d="M219 204L314 187L352 225L343 795L314 842L214 781"/>
<path style="--d:3s;" pathLength="3333" clip-path="url(#z33033c3)" d="M222 405L300 391"/>
<path style="--d:4s;" pathLength="3333" clip-path="url(#z33033c4)" d="M207 548L297 531"/>
<path style="--d:5s;" pathLength="3333" clip-path="url(#z33033c5)" d="M557 88L682 180"/>
<path style="--d:6s;" pathLength="3333" clip-path="url(#z33033c6)" d="M489 297L611 270L651 304L635 826L610 859L512 802"/>
<path style="--d:7s;" pathLength="3333" clip-path="url(#z33033c7)" d="M391 489L540 473L565 494L484 671L390 770"/>
<path style="--d:8s;" pathLength="3333" clip-path="url(#z33033c8)" d="M787 321L821 368L694 504"/>
<path style="--d:9s;" pathLength="3333" clip-path="url(#z33033c9)" d="M673 485L837 709L880 739L983 755"/>
</svg>