<!--
AnimCJK 2016-2017 Copyright Francois Mizessyn, https://github.com/parsimonhi/animCJK
Derived from:
    MakeMeAHanzi project - https://github.com/skishore/makemeahanzi
    Arphic PL KaitiM GB - https://apps.ubuntu.com/cat/applications/precise/fonts-arphic-gkai00mp/
    Arphic PL UKai - https://apps.ubuntu.com/cat/applications/fonts-arphic-ukai/
You can redistribute and/or modify this file under the terms of the Arphic Public License
as published by Arphic Technology Co., Ltd.
You should have received a copy of this license (the directory "APL") along with this file;
if not, see http://ftp.gnu.org/non-gnu/chinese-fonts-truetype/LICENSE.
-->
<svg id="z33043" class="acjk" version="1.1" viewBox="0 0 1024 1024" xmlns="http://www.w3.org/2000/svg" xmlns:xlink="http://www.w3.org/1999/xlink">
<style>
<![CDATA[
@keyframes z33043k {
	from {
		stroke:#c00;
		stroke-dashoffset:3000;
	}
	75% {
		stroke:#c00;
		stroke-dashoffset:0;
	}
	to {
		stroke:#000;
	}
}
#z33043 path[clip-path] {
	animation:z33043k 1s linear both;
	stroke-dasharray:3000;
	stroke-width:128;
	stroke-linecap:round;
	fill:none;
}
#z33043 path[clip-path="url(#z33043c1)"] {animation-delay:1s;}
#z33043 path[clip-path="url(#z33043c2)"] {animation-delay:2s;}
#z33043 path[clip-path="url(#z33043c3)"] {animation-delay:3s;}
#z33043 path[clip-path="url(#z33043c4)"] {animation-delay:4s;}
#z33043 path[clip-path="url(#z33043c5)"] {animation-delay:5s;}
#z33043 path[clip-path="url(#z33043c6)"] {animation-delay:6s;}
#z33043 path[clip-path="url(#z33043c7)"] {animation-delay:7s;}
#z33043 path[clip-path="url(#z33043c8)"] {animation-delay:8s;}
#z33043 path[clip-path="url(#z33043c9)"] {animation-delay:9s;}
#z33043 path[clip-path="url(#z33043c10)"] {animation-delay:10s;}
#z33043 path {fill:#ccc;}
]]>
</style>
<path id="z33043d1" d="M210 198Q197 188 177 182Q158 173 147 179Q137 186 144 198Q159 219 167 272Q167 500 137 613Q106 721 36 847Q32 854 31 859Q30 869 39 866Q55 863 86 813Q153 729 193 562L200 529Q203 517 213 420L215 386Q216 361 217 337Q220 244 223 232Q224 229 224 228L210 198 Z"/>
<path id="z33043d2" d="M377 700Q365 265 383 229Q395 208 385 197Q364 179 329 165Q313 158 297 166Q261 187 210 198L224 228Q239 225 287 209Q306 205 311 215Q326 254 326 546Q323 780 309 800Q305 806 286 801Q261 795 234 789Q215 783 217 792Q271 838 301 873Q314 892 328 896Q337 900 345 890Q387 839 380 765Q379 744 378 724L377 700 Z"/>
<path id="z33043d3" d="M213 420Q255 410 287 403Q306 396 298 386Q286 376 264 374Q245 374 215 386L213 420 Z"/>
<path id="z33043d4" d="M193 562Q199 562 286 544Q308 538 298 527Q286 514 262 513Q241 513 200 529L193 562 Z"/>
<path id="z33043d5" d="M484 343Q471 312 452 301Q449 297 444 301Q440 304 438 314Q442 345 411 411Q401 426 402 443Q405 461 413 474Q420 484 425 478Q437 475 453 429Q469 383 478 367L478 366L484 343 Z"/>
<path id="z33043d6" d="M617 339Q713 309 732 313Q747 323 745 330Q746 334 741 348Q714 418 721 423Q728 426 740 414Q786 371 826 353Q857 337 856 328Q855 321 789 282Q767 270 701 289Q659 295 625 308L575 320Q515 332 484 343L478 366Q500 379 524 371Q543 362 565 355L617 339 Z"/>
<path id="z33043d7" d="M571 474Q596 419 617 339L625 308Q626 296 631 284Q656 179 676 145Q686 129 679 119Q666 92 613 83Q598 79 582 88Q572 98 582 108Q610 132 603 192Q602 198 575 320L565 355Q540 443 505 513Q466 586 377 700L378 724Q433 696 495 611L516 580Q540 541 562 495L571 474 Z"/>
<path id="z33043d8" d="M495 611Q505 636 505 661Q505 758 497 790Q493 818 480 834Q467 855 476 875Q486 906 502 918Q512 925 524 907Q554 868 653 771Q669 758 670 750Q671 737 652 748Q556 805 548 802Q541 798 541 781Q548 663 555 633Q559 615 547 604Q531 586 516 580L495 611 Z"/>
<path id="z33043d9" d="M688 584Q776 521 820 498Q836 494 833 483Q827 468 810 450Q792 434 771 431Q758 431 758 449Q759 473 676 570L688 584 Z"/>
<path id="z33043d10" d="M562 495Q590 514 610 544Q788 797 823 804Q913 804 960 798Q976 797 982 790Q986 783 976 780Q834 726 755 653Q724 622 688 584L676 570Q645 534 611 492Q601 476 584 473Q577 472 571 474L562 495 Z"/>
<defs>
	<clipPath id="z33043c1"><use xlink:href="#z33043d1"/></clipPath>
	<clipPath id="z33043c2"><use xlink:href="#z33043d2"/></clipPath>
	<clipPath id="z33043c3"><use xlink:href="#z33043d3"/></clipPath>
	<clipPath id="z33043c4"><use xlink:href="#z33043d4"/></clipPath>
	<clipPath id="z33043c5"><use xlink:href="#z33043d5"/></clipPath>
	<clipPath id="z33043c6"><use xlink:href="#z33043d6"/></clipPath>
	<clipPath id="z33043c7"><use xlink:href="#z33043d7"/></clipPath>
	<clipPath id="z33043c8"><use xlink:href="#z33043d8"/></clipPath>
	<clipPath id="z33043c9"><use xlink:href="#z33043d9"/></clipPath>
	<clipPath id="z33043c10"><use xlink:href="#z33043d10"/></clipPath>
</defs>
<path pathLength="2999" clip-path="url(#z33043c1)" d="M148 186L193 244L178 521L118 724L37 860"/>
<path pathLength="2999" clip-path="url(#z33043c2)" d="M217 199L312 186L350 212L342 817L313 849L222 792"/>
<path pathLength="2999" clip-path="url(#z33043c3)" d="M217 411L294 390"/>
<path pathLength="2999" clip-path="url(#z33043c4)" d="M202 555L296 532"/>
<path pathLength="2999" clip-path="url(#z33043c5)" d="M446 309L457 356L416 473"/>
<path pathLength="2999" clip-path="url(#z33043c6)" d="M486 363L738 296L800 335L727 416"/>
<path pathLength="2999" clip-path="url(#z33043c7)" d="M581 96L627 114L641 148L571 413L502 561L380 713"/>
<path pathLength="2999" clip-path="url(#z33043c8)" d="M517 587L518 862L663 749"/>
<path pathLength="2999" clip-path="url(#z33043c9)" d="M828 488L777 474L683 576"/>
<path pathLength="2999" clip-path="url(#z33043c10)" d="M570 492L816 749L975 785"/>
</svg>