<!--
AnimCJK 2016-2019 Copyright Francois Mizessyn - https://github.com/parsimonhi/animCJK
Derived from:
    MakeMeAHanzi project - https://github.com/skishore/makemeahanzi
    Arphic PL KaitiM GB font
    Arphic PL UKai font
You can redistribute and/or modify this file under the terms of the Arphic Public License
as published by Arphic Technology Co., Ltd.
You should have received a copy of this license along with this file.
If not, see http://ftp.gnu.org/non-gnu/chinese-fonts-truetype/LICENSE.
-->
<svg id="z33054" class="acjk" version="1.1" viewBox="0 0 1024 1024" xmlns="http://www.w3.org/2000/svg" xmlns:xlink="http://www.w3.org/1999/xlink">
<style>
<![CDATA[
@keyframes zk {
	to {
		stroke-dashoffset:0;
	}
}
svg.acjk path[clip-path] {
	--t:0.8s;
	animation:zk var(--t) linear forwards var(--d);
	stroke-dasharray:3337;
	stroke-dashoffset:3339;
	stroke-width:128;
	stroke-linecap:round;
	fill:none;
	stroke:#000;
}
svg.acjk path[id] {fill:#ccc;}
]]>
</style>
<path id="z33054d1" d="M217 535Q229 444 232 410C233 388 233 388 234 377Q235 355 235 332Q235 257 241 225C243 214 235 201 226 194Q213 184 193 178Q174 171 163 175Q153 182 160 195Q178 217 184 281Q184 474 166 575Q162 591 158 609Q133 702 60 843Q56 850 55 855Q54 865 63 862Q79 859 110 809Q179 716 213 559C216 543 216 543 217 535Z"/>
<path id="z33054d2" d="M241 225Q295 212 307 208Q326 204 332 215Q344 248 349 544Q346 778 333 797Q329 803 309 799Q284 795 259 789Q240 783 241 793Q295 836 326 870Q339 889 353 893Q362 896 370 887Q407 838 406 788Q378 284 404 228Q404 227 406 225Q418 206 406 197Q385 178 350 164Q332 155 285 181Q243 190 226 194C215 196 230 227 241 225Z"/>
<path id="z33054d3" d="M232 410Q281 401 317 396Q339 390 330 379Q318 366 294 364Q272 363 234 377C224 381 221 412 232 410Z"/>
<path id="z33054d4" d="M320 547Q342 543 333 531Q323 518 299 514Q254 511 217 535C210 539 205 560 213 559C284 551 284 551 320 547Z"/>
<path id="z33054d5" d="M514 472Q542 408 564 368Q571 356 558 346Q519 322 497 328Q487 331 491 343Q513 418 439 529Q427 533 408 574Q402 587 415 582Q451 570 501 494C510 479 510 479 514 472Z"/>
<path id="z33054d6" d="M501 494Q505 498 513 504Q540 525 569 550Q579 559 590 558Q597 557 602 548Q605 536 597 515Q593 499 565 486Q540 477 514 472C506 471 494 489 501 494Z"/>
<path id="z33054d7" d="M774 447Q774 446 839 335Q848 323 834 311Q794 286 771 290Q761 293 765 305Q783 378 710 476Q707 477 680 517Q674 530 687 526Q706 522 758 467C769 454 769 454 774 447Z"/>
<path id="z33054d8" d="M758 467Q764 473 777 483Q811 510 846 541Q856 551 869 550Q878 550 881 539Q885 529 878 505Q869 472 774 447C766 444 751 462 758 467Z"/>
<path id="z33054d9" d="M670 649Q791 621 795 619Q804 612 799 604Q792 592 764 585Q734 579 671 602C657 608 642 614 627 614Q620 614 615 616Q563 626 501 632Q467 638 491 654Q528 676 626 657C655 652 655 652 670 649Z"/>
<path id="z33054d10" d="M667 785Q668 715 670 649C671 618 671 618 671 602Q672 466 674 338Q678 284 684 248Q691 217 696 194Q700 181 677 166Q637 147 611 142Q592 138 584 148Q577 157 585 173Q622 227 622 263Q631 429 627 614C626 643 626 643 626 657Q625 721 621 792C621 808 667 801 667 785Z"/>
<path id="z33054d11" d="M621 792Q539 802 445 814Q423 815 439 833Q452 846 471 853Q492 857 508 854Q626 824 890 824Q909 824 915 816Q921 804 904 790Q847 748 782 765Q734 772 667 785C636 790 636 790 621 792Z"/>
<defs>
	<clipPath id="z33054c1"><use xlink:href="#z33054d1"/></clipPath>
	<clipPath id="z33054c2"><use xlink:href="#z33054d2"/></clipPath>
	<clipPath id="z33054c3"><use xlink:href="#z33054d3"/></clipPath>
	<clipPath id="z33054c4"><use xlink:href="#z33054d4"/></clipPath>
	<clipPath id="z33054c5"><use xlink:href="#z33054d5"/></clipPath>
	<clipPath id="z33054c6"><use xlink:href="#z33054d6"/></clipPath>
	<clipPath id="z33054c7"><use xlink:href="#z33054d7"/></clipPath>
	<clipPath id="z33054c8"><use xlink:href="#z33054d8"/></clipPath>
	<clipPath id="z33054c9"><use xlink:href="#z33054d9"/></clipPath>
	<clipPath id="z33054c10"><use xlink:href="#z33054d10"/></clipPath>
	<clipPath id="z33054c11"><use xlink:href="#z33054d11"/></clipPath>
</defs>
<path style="--d:1s;" pathLength="3333" clip-path="url(#z33054c1)" d="M165 180L200 210L210 255L193 548L138 725L60 856"/>
<path style="--d:2s;" pathLength="3333" clip-path="url(#z33054c2)" d="M234 196L339 187L373 217L369 803L337 846L249 794"/>
<path style="--d:3s;" pathLength="3333" clip-path="url(#z33054c3)" d="M239 402L326 388"/>
<path style="--d:4s;" pathLength="3333" clip-path="url(#z33054c4)" d="M221 551L330 536"/>
<path style="--d:5s;" pathLength="3333" clip-path="url(#z33054c5)" d="M499 336L531 367L520 404L475 502L411 576"/>
<path style="--d:6s;" pathLength="3333" clip-path="url(#z33054c6)" d="M507 492L556 507L595 550"/>
<path style="--d:7s;" pathLength="3333" clip-path="url(#z33054c7)" d="M772 295L804 336L758 437L686 520"/>
<path style="--d:8s;" pathLength="3333" clip-path="url(#z33054c8)" d="M764 465L834 496L871 544"/>
<path style="--d:9s;" pathLength="3333" clip-path="url(#z33054c9)" d="M491 643L796 607"/>
<path style="--d:10s;" pathLength="3333" clip-path="url(#z33054c10)" d="M588 149L656 220L636 789"/>
<path style="--d:11s;" pathLength="3333" clip-path="url(#z33054c11)" d="M439 822L797 793L911 805"/>
</svg>