<!--
AnimCJK 2016-2019 Copyright Francois Mizessyn - https://github.com/parsimonhi/animCJK
Derived from:
    MakeMeAHanzi project - https://github.com/skishore/makemeahanzi
    Arphic PL KaitiM GB font
    Arphic PL UKai font
You can redistribute and/or modify this file under the terms of the Arphic Public License
as published by Arphic Technology Co., Ltd.
You should have received a copy of this license along with this file.
If not, see http://ftp.gnu.org/non-gnu/chinese-fonts-truetype/LICENSE.
-->
<svg id="z33096" class="acjk" version="1.1" viewBox="0 0 1024 1024" xmlns="http://www.w3.org/2000/svg" xmlns:xlink="http://www.w3.org/1999/xlink">
<style>
<![CDATA[
@keyframes zk {
	to {
		stroke-dashoffset:0;
	}
}
svg.acjk path[clip-path] {
	--t:0.8s;
	animation:zk var(--t) linear forwards var(--d);
	stroke-dasharray:3337;
	stroke-dashoffset:3339;
	stroke-width:128;
	stroke-linecap:round;
	fill:none;
	stroke:#000;
}
svg.acjk path[id] {fill:#ccc;}
]]>
</style>
<path id="z33096d1" d="M220 507Q226 452 228 398C228 372 228 372 228 359Q228 248 230 224C230 213 229 199 220 193Q204 183 180 175Q161 166 149 173Q139 180 147 193Q168 217 173 281Q173 293 175 308Q185 467 157 603Q132 714 67 838Q63 845 62 851Q61 861 71 858Q99 849 162 726Q174 696 186 664Q202 609 214 547C218 520 218 520 220 507Z"/>
<path id="z33096d2" d="M230 224Q245 224 300 206Q319 202 325 212Q344 263 338 635Q331 768 323 781Q320 784 231 769Q212 763 213 773Q280 822 317 857Q330 876 346 880Q356 884 364 874Q403 825 401 769Q391 594 390 307Q389 249 402 223Q415 204 403 193Q381 174 344 160Q326 153 310 160Q285 175 269 180Q253 186 220 193C209 195 219 224 230 224Z"/>
<path id="z33096d3" d="M228 398Q267 391 296 387Q321 380 310 368Q297 355 270 352Q252 351 228 359C216 363 215 401 228 398Z"/>
<path id="z33096d4" d="M214 547Q260 538 295 535Q320 529 310 516Q297 501 270 499Q249 498 220 507C207 510 201 550 214 547Z"/>
<path id="z33096d5" d="M660 226Q700 217 741 211Q780 204 786 198Q795 191 790 183Q784 173 758 164Q725 157 662 181C625 189 625 189 606 193Q554 203 493 207Q460 211 483 227Q522 251 574 240Q589 236 607 235C642 229 642 229 660 226Z"/>
<path id="z33096d6" d="M653 336Q671 332 745 324Q754 325 761 314Q762 304 743 296Q716 275 656 296C624 303 624 303 608 307Q598 307 511 319Q487 323 506 337Q533 355 573 350Q588 347 608 344C638 339 638 339 653 336Z"/>
<path id="z33096d7" d="M649 405Q650 369 653 336C655 309 655 309 656 296Q657 260 660 226C661 196 661 196 662 181Q662 178 663 176Q669 133 678 100Q681 90 662 75Q628 57 604 53Q588 50 580 58Q573 65 581 80Q602 110 602 130Q603 160 606 193C607 221 607 221 607 235Q608 269 608 307C608 332 608 332 608 344Q608 377 608 412C608 426 649 419 649 405Z"/>
<path id="z33096d8" d="M608 412Q518 425 415 442Q396 445 411 461Q424 474 442 479Q463 483 478 478Q655 427 902 427C903 427 903 427 904 427Q923 427 928 418Q932 408 917 394Q863 355 800 374Q739 386 649 405C622 410 622 410 608 412Z"/>
<path id="z33096d9" d="M556 715Q560 673 564 643C566 623 566 623 567 613Q571 568 576 552Q577 546 576 542C576 531 569 519 559 513Q531 497 514 497Q501 500 505 512Q548 626 487 793Q460 856 487 897Q494 910 504 906Q540 885 554 741C555 724 555 724 556 715Z"/>
<path id="z33096d10" d="M576 542Q576 541 680 518Q699 514 705 524Q709 534 712 551Q724 713 721 811Q720 839 711 850Q707 856 687 852Q662 846 635 841Q616 835 616 845Q671 891 704 927Q717 946 733 951Q742 955 750 945Q790 894 789 841Q758 583 783 535Q795 516 783 505Q761 486 724 472Q706 465 690 472Q653 491 630 499Q605 506 559 513C548 515 565 544 576 542Z"/>
<path id="z33096d11" d="M564 643Q622 634 668 627Q690 623 681 611Q671 598 647 594Q604 591 567 613C558 618 554 645 564 643Z"/>
<path id="z33096d12" d="M554 741Q558 741 563 741Q630 732 679 727Q701 723 693 711Q683 698 659 693Q620 687 556 715C548 718 545 741 554 741Z"/>
<defs>
	<clipPath id="z33096c1"><use xlink:href="#z33096d1"/></clipPath>
	<clipPath id="z33096c2"><use xlink:href="#z33096d2"/></clipPath>
	<clipPath id="z33096c3"><use xlink:href="#z33096d3"/></clipPath>
	<clipPath id="z33096c4"><use xlink:href="#z33096d4"/></clipPath>
	<clipPath id="z33096c5"><use xlink:href="#z33096d5"/></clipPath>
	<clipPath id="z33096c6"><use xlink:href="#z33096d6"/></clipPath>
	<clipPath id="z33096c7"><use xlink:href="#z33096d7"/></clipPath>
	<clipPath id="z33096c8"><use xlink:href="#z33096d8"/></clipPath>
	<clipPath id="z33096c9"><use xlink:href="#z33096d9"/></clipPath>
	<clipPath id="z33096c10"><use xlink:href="#z33096d10"/></clipPath>
	<clipPath id="z33096c11"><use xlink:href="#z33096d11"/></clipPath>
	<clipPath id="z33096c12"><use xlink:href="#z33096d12"/></clipPath>
</defs>
<path style="--d:1s;" pathLength="3333" clip-path="url(#z33096c1)" d="M151 181L198 229L197 495L151 698L68 851"/>
<path style="--d:2s;" pathLength="3333" clip-path="url(#z33096c2)" d="M227 198L323 182L368 217L366 707L340 830L222 773"/>
<path style="--d:3s;" pathLength="3333" clip-path="url(#z33096c3)" d="M232 390L307 372"/>
<path style="--d:4s;" pathLength="3333" clip-path="url(#z33096c4)" d="M221 538L305 518"/>
<path style="--d:5s;" pathLength="3333" clip-path="url(#z33096c5)" d="M484 218L787 183"/>
<path style="--d:6s;" pathLength="3333" clip-path="url(#z33096c6)" d="M504 325L753 311"/>
<path style="--d:7s;" pathLength="3333" clip-path="url(#z33096c7)" d="M584 60L639 113L622 409"/>
<path style="--d:8s;" pathLength="3333" clip-path="url(#z33096c8)" d="M412 452L827 398L924 407"/>
<path style="--d:9s;" pathLength="3333" clip-path="url(#z33096c9)" d="M513 508L547 565L495 901"/>
<path style="--d:10s;" pathLength="3333" clip-path="url(#z33096c10)" d="M568 517L700 493L749 527L747 867L720 902L624 844"/>
<path style="--d:11s;" pathLength="3333" clip-path="url(#z33096c11)" d="M571 634L678 612"/>
<path style="--d:12s;" pathLength="3333" clip-path="url(#z33096c12)" d="M563 733L690 712"/>
</svg>