<!--
AnimCJK 2016-2019 Copyright Francois Mizessyn - https://github.com/parsimonhi/animCJK
Derived from:
    MakeMeAHanzi project - https://github.com/skishore/makemeahanzi
    Arphic PL KaitiM GB font
    Arphic PL UKai font
You can redistribute and/or modify this file under the terms of the Arphic Public License
as published by Arphic Technology Co., Ltd.
You should have received a copy of this license along with this file.
If not, see http://ftp.gnu.org/non-gnu/chinese-fonts-truetype/LICENSE.
-->
<svg id="z33149" class="acjk" version="1.1" viewBox="0 0 1024 1024" xmlns="http://www.w3.org/2000/svg" xmlns:xlink="http://www.w3.org/1999/xlink">
<style>
<![CDATA[
@keyframes zk {
	to {
		stroke-dashoffset:0;
	}
}
svg.acjk path[clip-path] {
	--t:0.8s;
	animation:zk var(--t) linear forwards var(--d);
	stroke-dasharray:3337;
	stroke-dashoffset:3339;
	stroke-width:128;
	stroke-linecap:round;
	fill:none;
	stroke:#000;
}
svg.acjk path[id] {fill:#ccc;}
]]>
</style>
<path id="z33149d1" d="M204 486Q208 470 215 378C216 352 216 352 216 339Q217 261 221 183C221 172 214 160 205 153Q192 144 173 138Q154 131 143 136Q133 143 140 155Q161 185 166 243Q166 456 151 539Q147 555 143 573Q113 684 48 811Q44 818 42 823Q41 833 51 830Q66 827 97 776Q167 680 197 525C202 499 202 499 204 486Z"/>
<path id="z33149d2" d="M221 183Q224 182 231 180Q259 173 287 165Q306 161 311 171Q326 213 326 507Q323 745 309 766Q305 772 284 767Q257 763 231 757Q212 751 213 761Q270 804 302 839Q315 857 330 861Q339 865 347 855Q386 804 382 756Q372 567 373 261Q372 206 385 182Q397 163 385 153Q364 135 330 121Q312 114 297 121Q257 145 205 153C194 155 210 185 221 183Z"/>
<path id="z33149d3" d="M215 378Q252 371 281 367Q305 360 294 348Q281 335 254 332Q238 332 216 339C204 344 202 381 215 378Z"/>
<path id="z33149d4" d="M197 525Q240 518 273 511Q297 504 286 492Q273 479 246 477Q227 477 204 486C192 491 184 528 197 525Z"/>
<path id="z33149d5" d="M509 204Q484 188 457 182Q450 181 446 185Q439 191 448 201Q484 256 497 385Q498 436 535 467Q536 467 539 469Q555 473 556 444Q556 440 555 437C554 422 554 422 553 414Q547 393 537 332C534 317 534 317 533 309Q527 269 526 237C526 225 519 211 509 204Z"/>
<path id="z33149d6" d="M694 417Q712 447 729 455Q739 462 754 442Q769 417 799 282Q808 251 831 227Q844 214 833 201Q817 185 776 158Q760 151 690 166Q686 166 682 168Q520 201 509 204C497 206 515 243 526 237Q536 225 706 201Q731 197 738 205Q751 221 749 236Q725 374 709 391C704 400 688 409 694 417Z"/>
<path id="z33149d7" d="M683 313Q705 309 697 296Q687 281 661 277Q631 274 533 309C526 312 529 334 537 332C634 319 634 319 683 313Z"/>
<path id="z33149d8" d="M555 437Q630 425 694 417C704 415 718 396 709 391Q705 387 697 386Q681 383 553 414C545 415 547 439 555 437Z"/>
<path id="z33149d9" d="M465 558Q453 552 425 547Q412 543 409 549Q402 555 411 571Q438 632 453 733Q454 757 465 775C471 785 499 783 499 772Q500 753 497 725Q481 623 478 590C476 579 476 562 465 558Z"/>
<path id="z33149d10" d="M810 734Q819 701 827 669Q842 615 878 577Q899 555 871 537Q846 518 819 503Q803 491 781 501Q753 511 711 518Q636 528 552 545Q501 552 465 558C454 560 466 590 478 590Q485 590 495 587Q523 580 548 575C565 571 565 571 574 569Q596 563 658 557C684 554 684 554 697 552Q730 548 770 544Q783 543 787 549Q805 579 752 743C745 761 806 753 810 734Z"/>
<path id="z33149d11" d="M600 762Q603 699 579 590Q578 587 578 585Q577 576 574 569C571 561 547 566 548 575Q554 632 559 727Q559 746 571 765C576 773 600 772 600 762Z"/>
<path id="z33149d12" d="M680 753Q705 629 718 601Q725 583 715 571Q708 561 697 552C688 543 656 544 658 557Q664 585 664 614Q663 644 643 757C641 769 678 765 680 753Z"/>
<path id="z33149d13" d="M465 775Q434 776 402 781Q380 782 395 801Q410 816 428 822Q450 829 467 824Q659 779 916 798Q937 798 942 789Q948 777 931 762Q871 716 810 734C771 740 771 740 752 743Q718 747 680 753C655 756 655 756 643 757C642 757 642 757 642 757Q621 758 600 762C581 764 581 764 571 765Q535 768 499 772C476 774 476 774 465 775Z"/>
<defs>
	<clipPath id="z33149c1"><use xlink:href="#z33149d1"/></clipPath>
	<clipPath id="z33149c2"><use xlink:href="#z33149d2"/></clipPath>
	<clipPath id="z33149c3"><use xlink:href="#z33149d3"/></clipPath>
	<clipPath id="z33149c4"><use xlink:href="#z33149d4"/></clipPath>
	<clipPath id="z33149c5"><use xlink:href="#z33149d5"/></clipPath>
	<clipPath id="z33149c6"><use xlink:href="#z33149d6"/></clipPath>
	<clipPath id="z33149c7"><use xlink:href="#z33149d7"/></clipPath>
	<clipPath id="z33149c8"><use xlink:href="#z33149d8"/></clipPath>
	<clipPath id="z33149c9"><use xlink:href="#z33149d9"/></clipPath>
	<clipPath id="z33149c10"><use xlink:href="#z33149d10"/></clipPath>
	<clipPath id="z33149c11"><use xlink:href="#z33149d11"/></clipPath>
	<clipPath id="z33149c12"><use xlink:href="#z33149d12"/></clipPath>
	<clipPath id="z33149c13"><use xlink:href="#z33149d13"/></clipPath>
</defs>
<path style="--d:1s;" pathLength="3333" clip-path="url(#z33149c1)" d="M147 144L191 197L177 514L134 667L50 823"/>
<path style="--d:2s;" pathLength="3333" clip-path="url(#z33149c2)" d="M216 158L314 142L353 179L346 770L318 815L222 761"/>
<path style="--d:3s;" pathLength="3333" clip-path="url(#z33149c3)" d="M222 369L291 357"/>
<path style="--d:4s;" pathLength="3333" clip-path="url(#z33149c4)" d="M203 517L284 494"/>
<path style="--d:5s;" pathLength="3333" clip-path="url(#z33149c5)" d="M451 190L499 246L543 464"/>
<path style="--d:6s;" pathLength="3333" clip-path="url(#z33149c6)" d="M518 208L723 179L782 205L793 225L719 447"/>
<path style="--d:7s;" pathLength="3333" clip-path="url(#z33149c7)" d="M541 314L692 301"/>
<path style="--d:8s;" pathLength="3333" clip-path="url(#z33149c8)" d="M562 428L703 396"/>
<path style="--d:9s;" pathLength="3333" clip-path="url(#z33149c9)" d="M414 552L449 592L484 772"/>
<path style="--d:10s;" pathLength="3333" clip-path="url(#z33149c10)" d="M474 562L809 529L838 572L783 728L762 738"/>
<path style="--d:11s;" pathLength="3333" clip-path="url(#z33149c11)" d="M570 574L588 761"/>
<path style="--d:12s;" pathLength="3333" clip-path="url(#z33149c12)" d="M665 561L692 597L655 753"/>
<path style="--d:13s;" pathLength="3333" clip-path="url(#z33149c13)" d="M397 790L454 801L831 761L939 782"/>
</svg>