<!--
AnimCJK 2016-2018 Copyright Francois Mizessyn - https://github.com/parsimonhi/animCJK
Derived from:
    MakeMeAHanzi project - https://github.com/skishore/makemeahanzi
    Arphic PL KaitiM GB - https://apps.ubuntu.com/cat/applications/precise/fonts-arphic-gkai00mp/
    Arphic PL UKai - https://apps.ubuntu.com/cat/applications/fonts-arphic-ukai/
You can redistribute and/or modify this file under the terms of the Arphic Public License
as published by Arphic Technology Co., Ltd.
You should have received a copy of this license (the directory "APL") along with this file;
if not, see http://ftp.gnu.org/non-gnu/chinese-fonts-truetype/LICENSE.
-->
<svg id="z33140" class="acjk" version="1.1" viewBox="0 0 1024 1024" xmlns="http://www.w3.org/2000/svg" xmlns:xlink="http://www.w3.org/1999/xlink">
<style>
<![CDATA[
@keyframes z33140k {
	from {
		stroke:#ccc;
		stroke-dashoffset:3334;
	}
	1% {
		stroke:#c00;
		stroke-dashoffset:3334;
	}
	75% {
		stroke:#c00;
		stroke-dashoffset:0;
	}
	to {
		stroke:#000;
	}
}
#z33140 path[clip-path] {
	animation:z33140k 1s linear both;
	stroke-dasharray:3334;
	stroke-width:128;
	stroke-linecap:round;
	fill:none;
}
#z33140 path[clip-path="url(#z33140c1)"] {animation-delay:1s;}
#z33140 path[clip-path="url(#z33140c2)"] {animation-delay:2s;}
#z33140 path[clip-path="url(#z33140c3)"] {animation-delay:3s;}
#z33140 path[clip-path="url(#z33140c4)"] {animation-delay:4s;}
#z33140 path[clip-path="url(#z33140c5)"] {animation-delay:5s;}
#z33140 path[clip-path="url(#z33140c6)"] {animation-delay:6s;}
#z33140 path[clip-path="url(#z33140c7)"] {animation-delay:7s;}
#z33140 path[clip-path="url(#z33140c8)"] {animation-delay:8s;}
#z33140 path[clip-path="url(#z33140c9)"] {animation-delay:9s;}
#z33140 path[clip-path="url(#z33140c10)"] {animation-delay:10s;}
#z33140 path[clip-path="url(#z33140c11)"] {animation-delay:11s;}
#z33140 path[clip-path="url(#z33140c12)"] {animation-delay:12s;}
#z33140 path {fill:#ccc;}
]]>
</style>
<path id="z33140d1" d="M195 528Q205 473 208 402C209 379 209 379 209 368Q210 298 214 226C214 215 207 203 197 197Q184 188 165 182Q146 175 135 180Q125 187 132 200Q150 222 157 276Q157 294 158 315Q165 478 136 607Q109 713 44 839Q40 846 38 851Q37 861 47 858Q59 855 92 805Q161 712 191 555C194 537 194 537 195 528Z"/>
<path id="z33140d2" d="M214 226Q226 223 280 204Q298 197 303 206Q318 251 316 543Q313 777 298 800C252 794 252 794 229 791Q208 784 208 792Q260 838 289 873Q301 891 316 896Q325 900 333 890Q372 839 371 792Q362 605 364 297Q363 242 375 219Q387 200 375 191Q354 173 320 159Q301 150 258 177Q225 189 197 197C186 201 203 228 214 226Z"/>
<path id="z33140d3" d="M208 402Q250 392 282 387Q303 381 294 371Q284 359 260 357Q241 356 209 368C198 372 197 404 208 402Z"/>
<path id="z33140d4" d="M191 555Q192 555 197 555Q248 548 285 542Q306 538 297 527Q287 514 264 511Q243 510 207 521Q200 524 195 528C187 533 182 555 191 555Z"/>
<path id="z33140d5" d="M455 320Q513 272 545 254Q560 250 556 241Q550 228 534 215Q518 202 500 200Q488 201 490 217Q491 233 444 305C441 310 450 324 455 320Z"/>
<path id="z33140d6" d="M495 528Q492 510 474 426C471 409 471 409 469 401Q456 332 455 320C454 314 450 307 444 305Q434 301 406 296Q396 293 392 298Q388 304 395 318Q429 394 449 516Q453 553 473 578Q489 597 494 583Q495 574 497 562C496 539 496 539 495 528Z"/>
<path id="z33140d7" d="M474 426Q522 417 558 411Q579 405 570 395Q560 382 536 381Q515 380 479 394Q473 397 469 401C462 406 466 428 474 426Z"/>
<path id="z33140d8" d="M717 536Q718 537 720 542Q738 579 765 555Q777 543 796 499Q833 336 868 297Q884 281 873 262Q857 243 826 219Q810 210 793 215Q744 230 688 233Q667 234 670 244Q674 254 690 263Q702 266 759 260Q778 257 786 262Q796 271 787 306Q780 331 774 356C767 380 767 380 764 392Q734 501 729 507C724 516 712 527 717 536Z"/>
<path id="z33140d9" d="M774 356Q747 353 667 377Q652 380 670 394Q674 398 688 398Q728 394 764 392C776 392 786 356 774 356Z"/>
<path id="z33140d10" d="M630 545Q667 538 717 536C727 536 737 514 729 507Q699 483 634 503C601 510 601 510 585 514Q536 521 495 528C484 530 486 562 497 562Q504 563 515 561Q540 554 580 550C613 547 613 547 630 545Z"/>
<path id="z33140d11" d="M580 550Q559 691 460 784Q433 808 399 833Q389 842 388 846Q389 850 401 849Q416 853 452 835Q572 786 619 604Q619 598 621 595C626 567 626 567 628 553Q628 549 630 545C635 532 634 517 634 503Q635 472 638 439Q645 193 666 134Q673 121 661 110Q639 92 600 82Q575 76 567 83Q558 90 566 102Q620 187 586 510Q585 511 585 514C582 538 582 538 580 550Z"/>
<path id="z33140d12" d="M621 595Q756 866 802 871Q862 871 913 872Q935 872 936 867Q937 861 915 846Q797 780 756 732Q678 638 628 553C619 542 615 582 621 595Z"/>
<defs>
	<clipPath id="z33140c1"><use xlink:href="#z33140d1"/></clipPath>
	<clipPath id="z33140c2"><use xlink:href="#z33140d2"/></clipPath>
	<clipPath id="z33140c3"><use xlink:href="#z33140d3"/></clipPath>
	<clipPath id="z33140c4"><use xlink:href="#z33140d4"/></clipPath>
	<clipPath id="z33140c5"><use xlink:href="#z33140d5"/></clipPath>
	<clipPath id="z33140c6"><use xlink:href="#z33140d6"/></clipPath>
	<clipPath id="z33140c7"><use xlink:href="#z33140d7"/></clipPath>
	<clipPath id="z33140c8"><use xlink:href="#z33140d8"/></clipPath>
	<clipPath id="z33140c9"><use xlink:href="#z33140d9"/></clipPath>
	<clipPath id="z33140c10"><use xlink:href="#z33140d10"/></clipPath>
	<clipPath id="z33140c11"><use xlink:href="#z33140d11"/></clipPath>
	<clipPath id="z33140c12"><use xlink:href="#z33140d12"/></clipPath>
</defs>
<path pathLength="3333" clip-path="url(#z33140c1)" d="M137 184L182 235L172 531L133 686L48 850"/>
<path pathLength="3333" clip-path="url(#z33140c2)" d="M205 202L302 179L343 217L334 809L309 848L220 792"/>
<path pathLength="3333" clip-path="url(#z33140c3)" d="M215 393L288 373"/>
<path pathLength="3333" clip-path="url(#z33140c4)" d="M200 547L293 531"/>
<path pathLength="3333" clip-path="url(#z33140c5)" d="M552 243L505 237L451 312"/>
<path pathLength="3333" clip-path="url(#z33140c6)" d="M398 302L430 331L487 584"/>
<path pathLength="3333" clip-path="url(#z33140c7)" d="M479 418L566 398"/>
<path pathLength="3333" clip-path="url(#z33140c8)" d="M676 240L801 240L834 276L735 556"/>
<path pathLength="3333" clip-path="url(#z33140c9)" d="M666 382L769 370"/>
<path pathLength="3333" clip-path="url(#z33140c10)" d="M505 554L724 517"/>
<path pathLength="3333" clip-path="url(#z33140c11)" d="M571 89L627 138L598 585L519 756L395 843"/>
<path pathLength="3333" clip-path="url(#z33140c12)" d="M629 565L765 788L820 836L930 863"/>
</svg>