<!--
AnimCJK 2016-2017 Copyright Francois Mizessyn, http://gooo.free.fr/animCJK/
Derived from:
    MakeMeAHanzi project - https://github.com/skishore/makemeahanzi
    Arphic PL KaitiM GB - https://apps.ubuntu.com/cat/applications/precise/fonts-arphic-gkai00mp/
    Arphic PL UKai - https://apps.ubuntu.com/cat/applications/fonts-arphic-ukai/
You can redistribute and/or modify this file under the terms of the Arphic Public License
as published by Arphic Technology Co., Ltd.
You should have received a copy of this license (the directory "APL") along with this file;
if not, see http://ftp.gnu.org/non-gnu/chinese-fonts-truetype/LICENSE.
-->
<svg id="z33167" class="acjk" version="1.1" viewBox="0 0 1024 1024" xmlns="http://www.w3.org/2000/svg" xmlns:xlink="http://www.w3.org/1999/xlink">
<style>
<![CDATA[
	@keyframes z33167k {
		from {
			stroke:#c00;
			stroke-dashoffset:3000;
		}
		75% {
			stroke:#c00;
			stroke-dashoffset:0;
		}
		to {
			stroke:#000;
		}
	}
	#z33167 path[clip-path] {
		animation:z33167k 1s linear both;
		stroke-dasharray:3000;
		stroke-width:128;
		stroke-linecap:round;
		fill:none;
	}
	#z33167 path[clip-path="url(#z33167c1)"] {animation-delay:1s;}
	#z33167 path[clip-path="url(#z33167c2)"] {animation-delay:2s;}
	#z33167 path[clip-path="url(#z33167c3)"] {animation-delay:3s;}
	#z33167 path[clip-path="url(#z33167c4)"] {animation-delay:4s;}
	#z33167 path[clip-path="url(#z33167c5)"] {animation-delay:5s;}
	#z33167 path[clip-path="url(#z33167c6)"] {animation-delay:6s;}
	#z33167 path[clip-path="url(#z33167c7)"] {animation-delay:7s;}
	#z33167 path[clip-path="url(#z33167c8)"] {animation-delay:8s;}
	#z33167 path[clip-path="url(#z33167c9)"] {animation-delay:9s;}
	#z33167 path[clip-path="url(#z33167c10)"] {animation-delay:10s;}
	#z33167 path[clip-path="url(#z33167c11)"] {animation-delay:11s;}
	#z33167 path[clip-path="url(#z33167c12)"] {animation-delay:12s;}
	#z33167 path[clip-path="url(#z33167c13)"] {animation-delay:13s;}
	#z33167 path[clip-path="url(#z33167c14)"] {animation-delay:14s;}
	#z33167 path {fill:#ccc;}
]]>
</style>
<g transform="scale(1,-1) translate(0,-900)">
	<path id="z33167d1" d="M552 783Q552 784 553 784Q554 797 543 822Q531 846 458 849Q445 850 439 847Q436 843 439 832Q439 829 516 776L552 783Z"/>
	<path id="z33167d2" d="M516 776Q474 772 285 755Q258 754 278 736Q303 711 350 717Q509 744 724 761Q734 760 744 771Q745 781 724 793Q693 815 606 794Q579 790 552 783L516 776Z"/>
	<path id="z33167d3" d="M388 673Q376 677 355 679Q345 680 342 676Q338 670 346 658Q364 630 380 583Q384 570 394 561Q410 543 413 557Q414 561 414 565L414 588Q407 631 404 647L388 673Z"/>
	<path id="z33167d4" d="M630 612Q648 646 669 659Q684 674 672 689Q659 701 616 722Q603 729 584 722Q503 689 388 673L404 647Q411 648 423 652Q585 685 593 678Q597 674 597 663Q593 639 586 618L630 612Z"/>
	<path id="z33167d5" d="M414 565Q421 564 431 565Q545 581 628 590Q647 591 640 602Q636 608 630 612L586 618Q576 618 563 615Q482 600 414 588L414 565Z"/>
	<path id="z33167d6" d="M238 499Q225 523 213 531Q194 544 193 519Q197 488 170 452Q122 407 155 347Q170 322 190 349Q205 371 215 405Q227 445 236 469L238 499Z"/>
	<path id="z33167d7" d="M236 469Q261 454 309 467Q460 509 692 533Q746 539 765 536Q784 524 781 516Q781 513 761 450Q754 437 761 433Q768 429 784 441Q833 477 875 488Q909 500 909 507Q908 517 835 568Q813 586 746 572Q667 563 356 515Q298 505 238 499L236 469Z"/>
	<path id="z33167d8" d="M387 446Q375 452 343 454Q333 455 330 451Q326 445 334 433Q353 406 371 359Q375 344 385 336Q403 320 405 333Q406 337 406 341L404 363Q398 400 393 419L387 446Z"/>
	<path id="z33167d9" d="M628 394Q649 424 668 431Q684 446 672 461Q659 473 617 496Q602 503 584 498Q500 464 387 446L393 419Q402 420 566 457Q585 461 594 454Q598 450 595 440Q588 418 580 397L628 394Z"/>
	<path id="z33167d10" d="M406 341Q413 340 428 341Q546 360 632 370Q651 371 644 382Q640 389 628 394L580 397Q573 397 567 395Q479 377 404 363L406 341Z"/>
	<path id="z33167d11" d="M396 124Q397 155 400 178L402 203Q403 234 407 245Q408 252 407 257L389 281Q364 294 349 294Q336 290 341 279Q377 203 335 62Q311 5 340 -31Q347 -44 356 -39Q392 -15 393 89Q393 93 394 96L396 124Z"/>
	<path id="z33167d12" d="M407 257Q422 256 446 263Q570 288 589 279Q602 275 607 249Q622 134 619 43Q619 25 609 21Q596 20 534 45Q522 48 522 41Q522 32 537 23Q577 -13 607 -49Q623 -67 642 -66Q654 -63 669 -27Q687 10 683 47Q676 135 667 216Q664 247 677 274Q687 290 674 304Q655 319 616 331Q594 341 577 328Q559 321 526 311Q424 286 389 281L407 257Z"/>
	<path id="z33167d13" d="M400 178Q431 174 515 192Q557 202 560 205Q567 212 563 219Q556 228 533 232Q508 236 485 225Q461 216 402 203L400 178Z"/>
	<path id="z33167d14" d="M394 96Q424 93 506 102Q524 106 545 109Q564 113 567 116Q574 123 571 130Q564 140 539 146Q514 152 488 142Q466 135 443 130Q421 126 396 124L394 96Z"/>
	<defs>
		<clipPath id="z33167c1"><use xlink:href="#z33167d1"/></clipPath>
		<clipPath id="z33167c2"><use xlink:href="#z33167d2"/></clipPath>
		<clipPath id="z33167c3"><use xlink:href="#z33167d3"/></clipPath>
		<clipPath id="z33167c4"><use xlink:href="#z33167d4"/></clipPath>
		<clipPath id="z33167c5"><use xlink:href="#z33167d5"/></clipPath>
		<clipPath id="z33167c6"><use xlink:href="#z33167d6"/></clipPath>
		<clipPath id="z33167c7"><use xlink:href="#z33167d7"/></clipPath>
		<clipPath id="z33167c8"><use xlink:href="#z33167d8"/></clipPath>
		<clipPath id="z33167c9"><use xlink:href="#z33167d9"/></clipPath>
		<clipPath id="z33167c10"><use xlink:href="#z33167d10"/></clipPath>
		<clipPath id="z33167c11"><use xlink:href="#z33167d11"/></clipPath>
		<clipPath id="z33167c12"><use xlink:href="#z33167d12"/></clipPath>
		<clipPath id="z33167c13"><use xlink:href="#z33167d13"/></clipPath>
		<clipPath id="z33167c14"><use xlink:href="#z33167d14"/></clipPath>
	</defs>
	<path pathLength="2999" clip-path="url(#z33167c1)" d="M443 843L545 785"/>
	<path pathLength="2999" clip-path="url(#z33167c2)" d="M276 749L340 738L735 777"/>
	<path pathLength="2999" clip-path="url(#z33167c3)" d="M348 673L383 637L405 558"/>
	<path pathLength="2999" clip-path="url(#z33167c4)" d="M398 669L600 702L636 663L607 616"/>
	<path pathLength="2999" clip-path="url(#z33167c5)" d="M422 573L636 602"/>
	<path pathLength="2999" clip-path="url(#z33167c6)" d="M201 525L210 471L162 343"/>
	<path pathLength="2999" clip-path="url(#z33167c7)" d="M241 474L763 557L815 540L853 502L765 441"/>
	<path pathLength="2999" clip-path="url(#z33167c8)" d="M337 446L366 429L394 334"/>
	<path pathLength="2999" clip-path="url(#z33167c9)" d="M395 440L597 478L636 445L595 397"/>
	<path pathLength="2999" clip-path="url(#z33167c10)" d="M415 348L640 380"/>
	<path pathLength="2999" clip-path="url(#z33167c11)" d="M347 288L380 230L346 -34"/>
	<path pathLength="2999" clip-path="url(#z33167c12)" d="M397 280L596 307L640 278L651 34L635 -13L528 39"/>
	<path pathLength="2999" clip-path="url(#z33167c13)" d="M406 184L560 215"/>
	<path pathLength="2999" clip-path="url(#z33167c14)" d="M401 103L566 125"/>
</g>
</svg>