<!--
AnimCJK 2016-2018 Copyright Francois Mizessyn, http://gooo.free.fr/animCJK/
Derived from:
    MakeMeAHanzi project - https://github.com/skishore/makemeahanzi
    Arphic PL KaitiM GB - https://apps.ubuntu.com/cat/applications/precise/fonts-arphic-gkai00mp/
    Arphic PL UKai - https://apps.ubuntu.com/cat/applications/fonts-arphic-ukai/
You can redistribute and/or modify this file under the terms of the Arphic Public License
as published by Arphic Technology Co., Ltd.
You should have received a copy of this license (the directory "APL") along with this file;
if not, see http://ftp.gnu.org/non-gnu/chinese-fonts-truetype/LICENSE.
-->
<svg id="z33217" class="acjk" version="1.1" viewBox="0 0 1024 1024" xmlns="http://www.w3.org/2000/svg" xmlns:xlink="http://www.w3.org/1999/xlink">
<style>
<![CDATA[
@keyframes z33217k {
	from {
		stroke:#ccc;
		stroke-dashoffset:3334;
	}
	1% {
		stroke:#c00;
		stroke-dashoffset:3334;
	}
	75% {
		stroke:#c00;
		stroke-dashoffset:0;
	}
	to {
		stroke:#000;
	}
}
#z33217 path[clip-path] {
	animation:z33217k 1s linear both;
	stroke-dasharray:3334;
	stroke-width:128;
	stroke-linecap:round;
	fill:none;
}
#z33217 path[clip-path="url(#z33217c1)"] {animation-delay:1s;}
#z33217 path[clip-path="url(#z33217c2)"] {animation-delay:2s;}
#z33217 path[clip-path="url(#z33217c3)"] {animation-delay:3s;}
#z33217 path[clip-path="url(#z33217c4)"] {animation-delay:4s;}
#z33217 path[clip-path="url(#z33217c5)"] {animation-delay:5s;}
#z33217 path[clip-path="url(#z33217c6)"] {animation-delay:6s;}
#z33217 path[clip-path="url(#z33217c7)"] {animation-delay:7s;}
#z33217 path[clip-path="url(#z33217c8)"] {animation-delay:8s;}
#z33217 path[clip-path="url(#z33217c9)"] {animation-delay:9s;}
#z33217 path[clip-path="url(#z33217c10)"] {animation-delay:10s;}
#z33217 path[clip-path="url(#z33217c11)"] {animation-delay:11s;}
#z33217 path[clip-path="url(#z33217c12)"] {animation-delay:12s;}
#z33217 path[clip-path="url(#z33217c13)"] {animation-delay:13s;}
#z33217 path[clip-path="url(#z33217c14)"] {animation-delay:14s;}
#z33217 path[clip-path="url(#z33217c15)"] {animation-delay:15s;}
#z33217 path[clip-path="url(#z33217c16)"] {animation-delay:16s;}
#z33217 path[clip-path="url(#z33217c17)"] {animation-delay:17s;}
#z33217 path {fill:#ccc;}
]]>
</style>
<path id="z33217d1" d="M198 213Q185 204 165 198Q147 191 137 196Q127 203 134 215Q153 237 159 306Q159 528 138 613Q111 715 47 840Q43 846 42 852Q41 862 50 858Q65 855 95 806Q158 718 189 571L195 535Q201 499 207 420L208 384Q208 279 212 243L198 213 Z"/>
<path id="z33217d2" d="M359 730Q343 280 364 242Q376 223 364 213Q343 197 309 182Q291 175 277 182Q255 195 241 201Q225 207 198 213L212 243Q236 240 267 226Q286 222 291 231Q306 270 306 558Q303 787 289 808Q285 814 266 809Q241 803 214 797Q195 791 197 800Q251 846 281 881Q294 900 308 904Q317 908 325 898Q359 856 361 787Q360 777 360 769L359 730 Z"/>
<path id="z33217d3" d="M207 420Q244 413 273 408Q295 402 286 391Q274 378 250 376Q234 375 208 384L207 420 Z"/>
<path id="z33217d4" d="M189 571Q240 561 277 556Q299 550 289 539Q279 526 254 523Q232 522 195 535L189 571 Z"/>
<path id="z33217d5" d="M588 98Q645 162 666 163Q679 164 685 146Q686 133 676 114Q666 98 643 90Q607 74 592 72Q583 71 582 82Q581 89 588 98 Z"/>
<path id="z33217d6" d="M712 238Q734 232 757 229Q803 219 810 212Q817 205 814 198Q808 188 784 181Q760 175 667 205Q580 227 484 236L496 266Q520 272 607 257Q644 250 683 244L712 238 Z"/>
<path id="z33217d7" d="M484 236Q442 212 428 219Q418 226 425 236Q440 254 445 325Q444 328 445 332Q448 479 423 572Q410 618 359 730L360 769Q361 766 365 763Q491 619 491 340Q491 292 496 266L484 236 Z"/>
<path id="z33217d8" d="M552 301Q580 346 598 349Q608 350 613 338Q614 328 610 313Q604 303 589 296Q567 284 557 282Q550 281 549 288Q548 294 552 301 Z"/>
<path id="z33217d9" d="M674 344Q678 338 684 332Q697 317 711 297Q717 288 727 278Q739 271 733 262Q729 252 712 238L683 244Q686 262 658 329Q651 341 650 350L674 344 Z"/>
<path id="z33217d10" d="M695 375Q726 366 810 355Q819 356 826 345Q827 336 808 328Q784 312 711 334Q695 338 678 343Q677 343 674 344L650 350Q646 350 519 373Q495 376 514 390Q539 408 562 405L598 396Q626 389 660 382L695 375 Z"/>
<path id="z33217d11" d="M784 596Q791 562 799 540L819 495Q828 482 837 473Q850 457 838 442Q769 394 720 423Q711 426 704 429L664 441Q657 441 618 453L579 460Q552 463 528 467Q515 468 516 477Q519 484 534 489Q553 496 580 490L617 482Q641 475 665 472L704 462Q746 452 755 460Q765 467 763 487Q762 496 760 505L754 541Q750 566 743 590L784 596 Z"/>
<path id="z33217d12" d="M799 540Q823 539 911 538Q927 538 930 531Q934 522 922 511Q879 478 819 495L760 505Q732 509 704 514L666 520Q641 523 615 527L582 532Q539 536 494 542Q478 543 489 558Q516 582 546 572Q562 568 582 564L614 558Q638 552 666 550L704 545Q726 542 754 541L799 540 Z"/>
<path id="z33217d13" d="M612 650Q634 646 665 642L720 636Q753 632 796 628Q806 627 807 619Q807 612 784 596L743 590Q739 590 736 591Q718 595 704 599L666 608Q638 612 613 619L581 625Q541 629 506 635Q487 636 498 653Q507 662 540 663Q546 660 555 661L612 650 Z"/>
<path id="z33217d14" d="M578 703Q578 758 559 824Q546 872 576 907Q585 919 593 908Q608 890 609 772Q609 703 612 650L613 619Q613 585 614 558L615 527Q615 500 617 482L618 453Q617 441 619 439Q623 421 618 415Q617 405 600 397Q599 396 598 396L562 405Q563 412 568 422Q575 435 579 460L580 490Q581 491 582 532L582 564Q582 592 581 625L578 703 Z"/>
<path id="z33217d15" d="M665 642Q665 810 655 885Q652 916 674 946Q683 959 691 944Q706 914 707 854Q704 818 704 658L704 599Q704 572 704 545L704 514Q705 492 705 471Q704 467 704 462L704 429Q704 381 702 380Q699 377 695 375L660 382Q663 391 664 406Q664 422 664 441L665 472Q665 494 666 520L666 550Q666 578 666 608L665 642 Z"/>
<path id="z33217d16" d="M555 661Q507 748 403 828Q393 838 400 839Q407 843 417 839Q490 811 566 718Q572 709 578 703L579 657L555 661 Z"/>
<path id="z33217d17" d="M704 658Q756 737 823 823Q848 848 967 829Q974 828 976 823Q977 819 966 813Q852 764 781 696Q751 668 720 636L704 638L704 658 Z"/>
<defs>
	<clipPath id="z33217c1"><use xlink:href="#z33217d1"/></clipPath>
	<clipPath id="z33217c2"><use xlink:href="#z33217d2"/></clipPath>
	<clipPath id="z33217c3"><use xlink:href="#z33217d3"/></clipPath>
	<clipPath id="z33217c4"><use xlink:href="#z33217d4"/></clipPath>
	<clipPath id="z33217c5"><use xlink:href="#z33217d5"/></clipPath>
	<clipPath id="z33217c6"><use xlink:href="#z33217d6"/></clipPath>
	<clipPath id="z33217c7"><use xlink:href="#z33217d7"/></clipPath>
	<clipPath id="z33217c8"><use xlink:href="#z33217d8"/></clipPath>
	<clipPath id="z33217c9"><use xlink:href="#z33217d9"/></clipPath>
	<clipPath id="z33217c10"><use xlink:href="#z33217d10"/></clipPath>
	<clipPath id="z33217c11"><use xlink:href="#z33217d11"/></clipPath>
	<clipPath id="z33217c12"><use xlink:href="#z33217d12"/></clipPath>
	<clipPath id="z33217c13"><use xlink:href="#z33217d13"/></clipPath>
	<clipPath id="z33217c14"><use xlink:href="#z33217d14"/></clipPath>
	<clipPath id="z33217c15"><use xlink:href="#z33217d15"/></clipPath>
	<clipPath id="z33217c16"><use xlink:href="#z33217d16"/></clipPath>
	<clipPath id="z33217c17"><use xlink:href="#z33217d17"/></clipPath>
</defs>
<path pathLength="3333" clip-path="url(#z33217c1)" d="M139 204L182 259L168 570L121 723L48 850"/>
<path pathLength="3333" clip-path="url(#z33217c2)" d="M207 218L290 202L332 235L323 819L299 857L209 802"/>
<path pathLength="3333" clip-path="url(#z33217c3)" d="M216 411L282 397"/>
<path pathLength="3333" clip-path="url(#z33217c4)" d="M194 564L287 541"/>
<path pathLength="3333" clip-path="url(#z33217c5)" d="M590 83L671 157"/>
<path pathLength="3333" clip-path="url(#z33217c6)" d="M493 242L809 204"/>
<path pathLength="3333" clip-path="url(#z33217c7)" d="M430 226L468 274L462 470L431 610L366 755"/>
<path pathLength="3333" clip-path="url(#z33217c8)" d="M555 289L607 338"/>
<path pathLength="3333" clip-path="url(#z33217c9)" d="M688 247L704 277L658 344"/>
<path pathLength="3333" clip-path="url(#z33217c10)" d="M515 381L817 340"/>
<path pathLength="3333" clip-path="url(#z33217c11)" d="M521 473L755 434L786 446L803 469L769 593"/>
<path pathLength="3333" clip-path="url(#z33217c12)" d="M493 548L927 521"/>
<path pathLength="3333" clip-path="url(#z33217c13)" d="M501 641L802 618"/>
<path pathLength="3333" clip-path="url(#z33217c14)" d="M569 408L598 434L583 909"/>
<path pathLength="3333" clip-path="url(#z33217c15)" d="M693 379L680 943"/>
<path pathLength="3333" clip-path="url(#z33217c16)" d="M572 665L499 765L404 835"/>
<path pathLength="3333" clip-path="url(#z33217c17)" d="M710 641L845 792L965 822"/>
</svg>