<!--
AnimCJK 2016-2018 Copyright Francois Mizessyn - https://github.com/parsimonhi/animCJK
Derived from:
    MakeMeAHanzi project - https://github.com/skishore/makemeahanzi
    Arphic PL KaitiM GB - https://apps.ubuntu.com/cat/applications/precise/fonts-arphic-gkai00mp/
    Arphic PL UKai - https://apps.ubuntu.com/cat/applications/fonts-arphic-ukai/
You can redistribute and/or modify this file under the terms of the Arphic Public License
as published by Arphic Technology Co., Ltd.
You should have received a copy of this license (the directory "APL") along with this file;
if not, see http://ftp.gnu.org/non-gnu/chinese-fonts-truetype/LICENSE.
-->
<svg id="z33219" class="acjk" version="1.1" viewBox="0 0 1024 1024" xmlns="http://www.w3.org/2000/svg" xmlns:xlink="http://www.w3.org/1999/xlink">
<style>
<![CDATA[
@keyframes z33219k {
	from {
		stroke:#ccc;
		stroke-dashoffset:3334;
	}
	1% {
		stroke:#c00;
		stroke-dashoffset:3334;
	}
	75% {
		stroke:#c00;
		stroke-dashoffset:0;
	}
	to {
		stroke:#000;
	}
}
#z33219 path[clip-path] {
	animation:z33219k 1s linear both;
	stroke-dasharray:3334;
	stroke-width:128;
	stroke-linecap:round;
	fill:none;
}
#z33219 path[clip-path="url(#z33219c1)"] {animation-delay:1s;}
#z33219 path[clip-path="url(#z33219c2)"] {animation-delay:2s;}
#z33219 path[clip-path="url(#z33219c3)"] {animation-delay:3s;}
#z33219 path[clip-path="url(#z33219c4)"] {animation-delay:4s;}
#z33219 path[clip-path="url(#z33219c5)"] {animation-delay:5s;}
#z33219 path[clip-path="url(#z33219c6)"] {animation-delay:6s;}
#z33219 path[clip-path="url(#z33219c7)"] {animation-delay:7s;}
#z33219 path[clip-path="url(#z33219c8)"] {animation-delay:8s;}
#z33219 path[clip-path="url(#z33219c9)"] {animation-delay:9s;}
#z33219 path[clip-path="url(#z33219c10)"] {animation-delay:10s;}
#z33219 path[clip-path="url(#z33219c11)"] {animation-delay:11s;}
#z33219 path[clip-path="url(#z33219c12)"] {animation-delay:12s;}
#z33219 path[clip-path="url(#z33219c13)"] {animation-delay:13s;}
#z33219 path[clip-path="url(#z33219c14)"] {animation-delay:14s;}
#z33219 path[clip-path="url(#z33219c15)"] {animation-delay:15s;}
#z33219 path[clip-path="url(#z33219c16)"] {animation-delay:16s;}
#z33219 path[clip-path="url(#z33219c17)"] {animation-delay:17s;}
#z33219 path {fill:#ccc;}
]]>
</style>
<path id="z33219d1" d="M182 539Q182 532 184 526Q190 477 193 429C194 408 194 408 194 398Q194 253 200 246C204 235 191 224 181 218Q169 211 154 206Q138 199 126 204Q117 211 124 222Q172 279 138 558Q132 588 126 617Q98 725 35 841Q31 847 31 852Q30 862 38 859Q68 849 130 724Q140 700 150 674Q166 625 176 571C180 550 180 550 182 539Z"/>
<path id="z33219d2" d="M200 246Q206 245 255 227Q271 220 277 229Q292 271 289 553Q283 781 270 803Q266 809 245 804Q220 800 194 796Q175 792 177 800Q232 840 265 871Q278 887 292 891Q299 895 307 886Q343 838 340 791Q333 610 335 315Q334 263 345 241Q355 223 345 214Q326 198 293 185Q275 176 234 202Q204 211 181 218C170 222 189 248 200 246Z"/>
<path id="z33219d3" d="M193 429Q229 423 255 419Q274 413 266 403Q256 391 232 390Q216 390 194 398C184 402 183 431 193 429Z"/>
<path id="z33219d4" d="M176 571Q177 571 183 571Q223 567 252 564Q274 560 265 547Q255 534 230 531Q211 530 182 539C172 543 165 571 176 571Z"/>
<path id="z33219d5" d="M579 120Q607 142 636 167Q649 179 663 177Q673 176 677 164Q681 151 671 123Q659 93 572 77Q557 74 552 77Q548 81 549 93Q553 103 579 120Z"/>
<path id="z33219d6" d="M432 247Q404 251 426 268Q460 293 487 286Q646 250 826 222Q836 223 845 210Q846 200 823 189Q793 165 712 194Q597 219 432 247Z"/>
<path id="z33219d7" d="M483 513Q449 513 423 513Q398 514 411 498Q453 429 494 378Q504 365 502 359Q501 349 470 325Q458 315 444 317Q435 320 440 331Q456 373 382 487Q373 496 361 508Q348 518 349 528Q352 543 363 556Q370 565 381 559Q402 546 470 532C478 530 491 513 483 513Z"/>
<path id="z33219d8" d="M521 623Q481 630 436 644Q414 651 428 634Q461 588 537 495Q559 465 578 449Q587 442 582 434Q575 419 549 405Q536 398 529 400Q522 403 523 414Q524 439 483 513C474 526 474 526 470 532Q392 643 369 655Q359 662 361 673Q362 683 382 698Q389 708 402 698Q450 662 518 640C523 638 527 622 521 623Z"/>
<path id="z33219d9" d="M518 640Q485 734 425 811Q400 838 359 878Q353 884 358 886Q386 890 458 824Q524 764 566 637Q573 616 584 596Q590 589 584 580Q580 573 554 561Q536 552 528 555Q518 558 520 570Q524 595 521 623C519 634 519 634 518 640Z"/>
<path id="z33219d10" d="M615 493Q669 427 701 371Q713 347 724 335Q730 328 726 317Q722 308 701 293Q680 280 666 282Q653 283 660 300Q675 324 627 421Q605 464 571 513Q564 520 563 526Q562 533 571 531Q578 530 595 514C608 500 608 500 615 493Z"/>
<path id="z33219d11" d="M652 806Q652 614 660 567Q667 543 632 507Q625 498 615 493C607 488 591 505 595 514Q620 595 621 618Q620 640 620 664Q620 761 595 860Q585 897 616 941C617 942 617 942 617 942Q632 955 641 933Q651 905 652 830C652 814 652 814 652 806Z"/>
<path id="z33219d12" d="M754 366Q796 408 806 409Q813 409 818 399Q822 389 816 367Q810 348 752 331Q740 328 736 330Q732 331 733 342Q734 349 754 366Z"/>
<path id="z33219d13" d="M788 482Q896 454 900 449Q907 443 903 437Q897 428 875 424Q853 420 830 431Q802 443 769 452Q735 462 692 468Q665 474 686 485Q716 500 752 492C776 485 776 485 788 482Z"/>
<path id="z33219d14" d="M807 596Q840 587 870 582Q889 578 881 567Q871 554 848 552Q832 551 807 559C778 570 778 570 764 575Q733 585 705 596Q690 600 710 613Q717 617 734 614Q749 610 765 607C793 600 793 600 807 596Z"/>
<path id="z33219d15" d="M805 685Q839 678 872 674Q893 670 885 659Q875 646 853 642Q834 641 805 649C778 657 778 657 765 661Q729 671 698 681Q683 684 702 697Q709 703 727 700Q746 696 766 693C792 688 792 688 805 685Z"/>
<path id="z33219d16" d="M803 773Q804 727 805 685C805 661 805 661 805 649Q806 621 807 596C807 571 807 571 807 559Q807 541 809 521Q815 500 788 482C777 476 747 480 752 492Q759 502 764 575C765 596 765 596 765 607Q765 629 765 661C766 682 766 682 766 693Q766 732 766 782C766 795 803 786 803 773Z"/>
<path id="z33219d17" d="M766 782Q711 792 652 806C644 808 645 827 652 830Q677 839 696 834Q787 804 933 803Q949 802 952 795Q956 785 942 775Q897 747 842 763Q824 767 803 773C778 779 778 779 766 782Z"/>
<defs>
	<clipPath id="z33219c1"><use xlink:href="#z33219d1"></use></clipPath>
	<clipPath id="z33219c2"><use xlink:href="#z33219d2"></use></clipPath>
	<clipPath id="z33219c3"><use xlink:href="#z33219d3"></use></clipPath>
	<clipPath id="z33219c4"><use xlink:href="#z33219d4"></use></clipPath>
	<clipPath id="z33219c5"><use xlink:href="#z33219d5"></use></clipPath>
	<clipPath id="z33219c6"><use xlink:href="#z33219d6"></use></clipPath>
	<clipPath id="z33219c7"><use xlink:href="#z33219d7"></use></clipPath>
	<clipPath id="z33219c8"><use xlink:href="#z33219d8"></use></clipPath>
	<clipPath id="z33219c9"><use xlink:href="#z33219d9"></use></clipPath>
	<clipPath id="z33219c10"><use xlink:href="#z33219d10"></use></clipPath>
	<clipPath id="z33219c11"><use xlink:href="#z33219d11"></use></clipPath>
	<clipPath id="z33219c12"><use xlink:href="#z33219d12"></use></clipPath>
	<clipPath id="z33219c13"><use xlink:href="#z33219d13"></use></clipPath>
	<clipPath id="z33219c14"><use xlink:href="#z33219d14"></use></clipPath>
	<clipPath id="z33219c15"><use xlink:href="#z33219d15"></use></clipPath>
	<clipPath id="z33219c16"><use xlink:href="#z33219d16"></use></clipPath>
	<clipPath id="z33219c17"><use xlink:href="#z33219d17"></use></clipPath>
</defs>
<path pathLength="3333" clip-path="url(#z33219c1)" d="M128 210L170 252L160 548L116 710L37 850"/>
<path pathLength="3333" clip-path="url(#z33219c2)" d="M188 221L275 203L314 235L306 804L284 848L186 800"/>
<path pathLength="3333" clip-path="url(#z33219c3)" d="M201 420L259 410"/>
<path pathLength="3333" clip-path="url(#z33219c4)" d="M183 563L259 549"/>
<path pathLength="3333" clip-path="url(#z33219c5)" d="M558 86L640 131L665 171"/>
<path pathLength="3333" clip-path="url(#z33219c6)" d="M423 255L476 263L837 204"/>
<path pathLength="3333" clip-path="url(#z33219c7)" d="M447 323L471 364L379 522L388 536L474 519"/>
<path pathLength="3333" clip-path="url(#z33219c8)" d="M533 407L548 445L396 658L413 673L516 632"/>
<path pathLength="3333" clip-path="url(#z33219c9)" d="M527 559L554 593L507 721L454 803L361 880"/>
<path pathLength="3333" clip-path="url(#z33219c10)" d="M668 291L692 333L569 524"/>
<path pathLength="3333" clip-path="url(#z33219c11)" d="M615 500L638 610L621 942"/>
<path pathLength="3333" clip-path="url(#z33219c12)" d="M741 334L808 402"/>
<path pathLength="3333" clip-path="url(#z33219c13)" d="M685 476L900 442"/>
<path pathLength="3333" clip-path="url(#z33219c14)" d="M706 602L878 570"/>
<path pathLength="3333" clip-path="url(#z33219c15)" d="M700 687L880 666"/>
<path pathLength="3333" clip-path="url(#z33219c16)" d="M759 495L785 525L779 778"/>
<path pathLength="3333" clip-path="url(#z33219c17)" d="M658 824L851 783L948 787"/>
</svg>