<!--
AnimCJK 2016-2017 Copyright Francois Mizessyn, http://gooo.free.fr/animCJK/
Derived from:
    MakeMeAHanzi project - https://github.com/skishore/makemeahanzi
    Arphic PL KaitiM GB - https://apps.ubuntu.com/cat/applications/precise/fonts-arphic-gkai00mp/
    Arphic PL UKai - https://apps.ubuntu.com/cat/applications/fonts-arphic-ukai/
You can redistribute and/or modify this file under the terms of the Arphic Public License
as published by Arphic Technology Co., Ltd.
You should have received a copy of this license (the directory "APL") along with this file;
if not, see http://ftp.gnu.org/non-gnu/chinese-fonts-truetype/LICENSE.
-->
<svg id="z33258" class="acjk" version="1.1" viewBox="0 0 1024 1024" xmlns="http://www.w3.org/2000/svg" xmlns:xlink="http://www.w3.org/1999/xlink">
<style>
<![CDATA[
	@keyframes z33258k {
		from {
			stroke:#c00;
			stroke-dashoffset:3000;
		}
		75% {
			stroke:#c00;
			stroke-dashoffset:0;
		}
		to {
			stroke:#000;
		}
	}
	#z33258 path[clip-path] {
		animation:z33258k 1s linear both;
		stroke-dasharray:3000;
		stroke-width:128;
		stroke-linecap:round;
		fill:none;
	}
	#z33258 path[clip-path="url(#z33258c1)"] {animation-delay:1s;}
	#z33258 path[clip-path="url(#z33258c2)"] {animation-delay:2s;}
	#z33258 path[clip-path="url(#z33258c3)"] {animation-delay:3s;}
	#z33258 path[clip-path="url(#z33258c4)"] {animation-delay:4s;}
	#z33258 path[clip-path="url(#z33258c5)"] {animation-delay:5s;}
	#z33258 path[clip-path="url(#z33258c6)"] {animation-delay:6s;}
	#z33258 path {fill:#ccc;}
]]>
</style>
<g transform="scale(1,-1) translate(0,-900)">
	<path id="z33258d1" d="M427 626Q433 633 517 750Q530 772 553 791Q571 809 554 824Q535 837 503 843Q473 849 461 842Q448 835 457 823Q469 799 422 678Q409 651 397 620L427 626Z"/>
	<path id="z33258d2" d="M361 614Q318 648 297 641Q290 635 295 622Q314 540 316 536Q316 272 301 203Q282 121 311 78Q314 75 317 70Q327 55 339 69Q345 78 349 87L355 126Q358 154 358 197Q358 233 359 265L359 294Q360 364 363 414L364 442Q367 560 369 573Q369 577 369 579L361 614Z"/>
	<path id="z33258d3" d="M618 108Q657 62 684 18Q696 -1 708 -1Q727 0 744 40Q763 83 759 138Q746 283 734 553Q731 589 750 615Q760 630 749 641Q727 663 667 689Q645 699 628 688Q580 666 427 626L397 620Q375 617 361 614L369 579Q393 579 605 629Q636 636 653 625Q692 591 676 149Q675 145 675 139Q671 121 657 124L618 108Z"/>
	<path id="z33258d4" d="M363 414Q366 414 581 449Q606 453 597 467Q585 483 557 488Q530 491 364 442L363 414Z"/>
	<path id="z33258d5" d="M359 265Q369 264 384 265Q499 283 584 293Q611 297 601 311Q589 327 562 334Q535 338 489 326Q419 308 359 294L359 265Z"/>
	<path id="z33258d6" d="M349 87Q358 86 369 87Q450 102 618 108L657 124Q654 134 626 154Q608 166 573 159Q453 135 355 126L349 87Z"/>
	<defs>
		<clipPath id="z33258c1"><use xlink:href="#z33258d1"/></clipPath>
		<clipPath id="z33258c2"><use xlink:href="#z33258d2"/></clipPath>
		<clipPath id="z33258c3"><use xlink:href="#z33258d3"/></clipPath>
		<clipPath id="z33258c4"><use xlink:href="#z33258d4"/></clipPath>
		<clipPath id="z33258c5"><use xlink:href="#z33258d5"/></clipPath>
		<clipPath id="z33258c6"><use xlink:href="#z33258d6"/></clipPath>
	</defs>
	<path pathLength="2999" clip-path="url(#z33258c1)" d="M459 835L510 799L406 624"/>
	<path pathLength="2999" clip-path="url(#z33258c2)" d="M302 632L332 600L341 534L328 69"/>
	<path pathLength="2999" clip-path="url(#z33258c3)" d="M368 610L643 662L710 616L714 108L687 49L630 95"/>
	<path pathLength="2999" clip-path="url(#z33258c4)" d="M369 422L592 470"/>
	<path pathLength="2999" clip-path="url(#z33258c5)" d="M363 273L597 306"/>
	<path pathLength="2999" clip-path="url(#z33258c6)" d="M355 94L650 131"/>
</g>
</svg>