<!--
AnimCJK 2016-2018 Copyright Francois Mizessyn, https://github.com/parsimonhi/animCJK
Derived from:
    MakeMeAHanzi project - https://github.com/skishore/makemeahanzi
    Arphic PL KaitiM GB - https://apps.ubuntu.com/cat/applications/precise/fonts-arphic-gkai00mp/
    Arphic PL UKai - https://apps.ubuntu.com/cat/applications/fonts-arphic-ukai/
You can redistribute and/or modify this file under the terms of the Arphic Public License
as published by Arphic Technology Co., Ltd.
You should have received a copy of this license (the directory "APL") along with this file;
if not, see http://ftp.gnu.org/non-gnu/chinese-fonts-truetype/LICENSE.
-->
<svg id="z33267" class="acjk" version="1.1" viewBox="0 0 1024 1024" xmlns="http://www.w3.org/2000/svg" xmlns:xlink="http://www.w3.org/1999/xlink">
<style>
<![CDATA[
@keyframes z33267k {
	from {
		stroke:#c00;
		stroke-dashoffset:3334;
	}
	75% {
		stroke:#c00;
		stroke-dashoffset:0;
	}
	to {
		stroke:#000;
	}
}
#z33267 path[clip-path] {
	animation:z33267k 1s linear both;
	stroke-dasharray:3334;
	stroke-width:128;
	stroke-linecap:round;
	fill:none;
}
#z33267 path[clip-path="url(#z33267c1)"] {animation-delay:1s;}
#z33267 path[clip-path="url(#z33267c2)"] {animation-delay:2s;}
#z33267 path[clip-path="url(#z33267c3)"] {animation-delay:3s;}
#z33267 path[clip-path="url(#z33267c4)"] {animation-delay:4s;}
#z33267 path[clip-path="url(#z33267c5)"] {animation-delay:5s;}
#z33267 path[clip-path="url(#z33267c6)"] {animation-delay:6s;}
#z33267 path {fill:#ccc;}
]]>
</style>
<path id="z33267d1" d="M483 182Q601 160 738 149Q750 150 760 137Q761 124 737 112Q698 87 611 113Q479 138 282 161Q251 164 274 183Q310 214 340 206Q382 197 429 191L483 182 Z"/>
<path id="z33267d2" d="M656 372Q610 373 529 385Q417 400 369 413Q345 417 359 399Q375 380 423 332Q496 260 511 253Q521 246 528 238Q534 223 513 204Q497 191 483 182L429 191Q435 201 436 220Q429 272 303 399Q249 429 254 469Q254 472 256 476Q263 500 277 501Q283 500 300 490Q390 433 614 403Q651 397 676 397L656 372 Z"/>
<path id="z33267d3" d="M676 397Q715 448 728 453Q737 454 745 445Q758 433 750 387Q744 345 674 308Q628 284 603 273Q594 267 591 279Q590 292 599 305Q626 333 656 372L676 397 Z"/>
<path id="z33267d4" d="M530 635Q587 625 648 616Q705 606 713 599Q723 590 719 581Q712 568 681 558Q648 551 616 561Q576 573 534 584L474 597Q398 609 313 613Q273 617 300 637Q346 665 404 654Q438 648 475 643L530 635 Z"/>
<path id="z33267d5" d="M518 778Q524 703 530 635L534 584Q534 566 551 506Q554 496 534 480Q498 461 474 457Q458 453 450 462Q443 469 451 484Q470 511 470 530Q471 561 474 597L475 643Q476 709 475 782L518 778 Z"/>
<path id="z33267d6" d="M475 782Q321 795 144 811Q119 812 136 833Q172 869 217 860Q481 797 884 820Q885 819 888 820Q912 821 918 811Q925 798 906 780Q843 731 786 742Q683 758 518 778L475 782 Z"/>
<defs>
	<clipPath id="z33267c1"><use xlink:href="#z33267d1"/></clipPath>
	<clipPath id="z33267c2"><use xlink:href="#z33267d2"/></clipPath>
	<clipPath id="z33267c3"><use xlink:href="#z33267d3"/></clipPath>
	<clipPath id="z33267c4"><use xlink:href="#z33267d4"/></clipPath>
	<clipPath id="z33267c5"><use xlink:href="#z33267d5"/></clipPath>
	<clipPath id="z33267c6"><use xlink:href="#z33267d6"/></clipPath>
</defs>
<path pathLength="3333" clip-path="url(#z33267c1)" d="M272 171L325 182L755 129"/>
<path pathLength="3333" clip-path="url(#z33267c2)" d="M437 193L481 232L313 417L306 459L506 404L665 394"/>
<path pathLength="3333" clip-path="url(#z33267c3)" d="M598 280L702 371L738 445"/>
<path pathLength="3333" clip-path="url(#z33267c4)" d="M294 623L392 631L715 587"/>
<path pathLength="3333" clip-path="url(#z33267c5)" d="M453 463L510 514L493 780"/>
<path pathLength="3333" clip-path="url(#z33267c6)" d="M137 820L200 834L799 778L914 802"/>
</svg>