<!--
AnimCJK 2016-2018 Copyright Francois Mizessyn - https://github.com/parsimonhi/animCJK
Derived from:
    MakeMeAHanzi project - https://github.com/skishore/makemeahanzi
    Arphic PL KaitiM GB - https://apps.ubuntu.com/cat/applications/precise/fonts-arphic-gkai00mp/
    Arphic PL UKai - https://apps.ubuntu.com/cat/applications/fonts-arphic-ukai/
You can redistribute and/or modify this file under the terms of the Arphic Public License
as published by Arphic Technology Co., Ltd.
You should have received a copy of this license (the directory "APL") along with this file;
if not, see http://ftp.gnu.org/non-gnu/chinese-fonts-truetype/LICENSE.
-->
<svg id="z33300" class="acjk" version="1.1" viewBox="0 0 1024 1024" xmlns="http://www.w3.org/2000/svg" xmlns:xlink="http://www.w3.org/1999/xlink">
<style>
<![CDATA[
@keyframes z33300k {
	from {
		stroke:#ccc;
		stroke-dashoffset:3334;
	}
	1% {
		stroke:#c00;
		stroke-dashoffset:3334;
	}
	75% {
		stroke:#c00;
		stroke-dashoffset:0;
	}
	to {
		stroke:#000;
	}
}
#z33300 path[clip-path] {
	animation:z33300k 1s linear both;
	stroke-dasharray:3334;
	stroke-width:128;
	stroke-linecap:round;
	fill:none;
}
#z33300 path[clip-path="url(#z33300c1)"] {animation-delay:1s;}
#z33300 path[clip-path="url(#z33300c2)"] {animation-delay:2s;}
#z33300 path[clip-path="url(#z33300c3)"] {animation-delay:3s;}
#z33300 path[clip-path="url(#z33300c4)"] {animation-delay:4s;}
#z33300 path[clip-path="url(#z33300c5)"] {animation-delay:5s;}
#z33300 path[clip-path="url(#z33300c6)"] {animation-delay:6s;}
#z33300 path[clip-path="url(#z33300c7)"] {animation-delay:7s;}
#z33300 path[clip-path="url(#z33300c8)"] {animation-delay:8s;}
#z33300 path[clip-path="url(#z33300c9)"] {animation-delay:9s;}
#z33300 path[clip-path="url(#z33300c10)"] {animation-delay:10s;}
#z33300 path[clip-path="url(#z33300c11)"] {animation-delay:11s;}
#z33300 path[clip-path="url(#z33300c12)"] {animation-delay:12s;}
#z33300 path[clip-path="url(#z33300c13)"] {animation-delay:13s;}
#z33300 path[clip-path="url(#z33300c14)"] {animation-delay:14s;}
#z33300 path {fill:#ccc;}
]]>
</style>
<path id="z33300d1" d="M239 285Q243 281 251 278Q294 254 340 217Q353 205 372 197Q384 190 381 182Q377 175 360 166Q323 150 302 153Q292 154 294 165Q294 216 106 329Q99 336 112 337Q148 330 210 301L239 285 Z"/>
<path id="z33300d2" d="M263 442Q278 436 381 417Q391 418 399 405Q399 395 377 386Q346 367 272 396Q271 396 269 397L223 411Q150 429 54 449Q27 453 49 469Q79 487 122 479Q165 466 221 453L263 442 Z"/>
<path id="z33300d3" d="M249 539Q256 488 263 442L269 397Q275 352 287 325Q291 316 276 304Q255 291 239 285L210 301Q223 325 224 378Q223 393 223 411L221 453Q217 499 214 554L249 539 Z"/>
<path id="z33300d4" d="M145 574Q135 568 106 563Q94 560 91 565Q85 571 93 586Q118 644 134 738Q137 766 153 785Q169 806 174 791Q181 775 178 746L173 713Q160 628 157 601L145 574 Z"/>
<path id="z33300d5" d="M319 685Q335 610 357 588Q379 561 355 549Q336 539 309 522Q290 512 272 524Q262 531 249 539L214 554Q184 564 145 574L157 601Q164 600 175 596Q217 583 252 574Q276 568 282 577Q288 583 269 683L319 685 Z"/>
<path id="z33300d6" d="M178 746Q199 736 331 713Q341 712 341 703Q341 696 319 685L269 683L268 683Q216 702 173 713L178 746 Z"/>
<path id="z33300d7" d="M581 202Q740 163 743 161Q753 152 747 144Q740 132 710 125Q686 122 601 148Q529 166 485 170Q448 177 475 193Q508 211 546 208L581 202 Z"/>
<path id="z33300d8" d="M645 353Q700 346 780 343Q825 343 833 333Q837 321 821 309Q764 273 721 290Q670 303 590 320Q587 320 588 321L530 333Q472 343 410 355Q391 358 406 373Q434 398 488 382Q500 378 516 376L573 364Q597 358 618 357L645 353 Z"/>
<path id="z33300d9" d="M588 321Q588 320 589 320Q596 301 602 281Q606 271 611 261Q621 251 617 237Q605 219 581 202L546 208Q555 232 544 277Q543 280 543 283Q537 308 530 333L516 376Q482 478 386 582Q382 586 378 592Q374 601 384 601Q412 601 484 523Q490 514 497 507Q545 444 573 364L588 321 Z"/>
<path id="z33300d10" d="M618 357Q619 360 623 364Q701 478 801 598Q828 631 977 610Q987 609 988 603Q988 599 975 591Q837 539 761 469Q706 418 645 353L618 357 Z"/>
<path id="z33300d11" d="M536 834Q502 827 469 817Q459 816 459 821Q460 828 469 835Q538 893 563 928Q576 944 590 931Q623 898 621 836Q618 808 614 629Q613 586 624 556Q631 540 617 528Q593 509 567 500Q551 494 543 501Q537 507 547 520Q568 554 567 594Q576 816 556 832Q549 838 536 834 Z"/>
<path id="z33300d12" d="M449 647Q424 696 390 739Q368 769 383 799Q387 817 408 806Q456 776 468 701Q475 671 470 648Q466 641 461 639Q454 640 449 647 Z"/>
<path id="z33300d13" d="M650 682Q677 776 699 787Q709 794 722 781Q728 771 728 750Q727 728 706 708Q678 672 664 662Q657 656 651 666Q647 672 650 682 Z"/>
<path id="z33300d14" d="M728 638Q768 689 816 761Q828 782 841 787Q848 790 857 782Q870 772 865 730Q862 688 733 610Q726 604 722 615Q721 627 728 638 Z"/>
<defs>
	<clipPath id="z33300c1"><use xlink:href="#z33300d1"/></clipPath>
	<clipPath id="z33300c2"><use xlink:href="#z33300d2"/></clipPath>
	<clipPath id="z33300c3"><use xlink:href="#z33300d3"/></clipPath>
	<clipPath id="z33300c4"><use xlink:href="#z33300d4"/></clipPath>
	<clipPath id="z33300c5"><use xlink:href="#z33300d5"/></clipPath>
	<clipPath id="z33300c6"><use xlink:href="#z33300d6"/></clipPath>
	<clipPath id="z33300c7"><use xlink:href="#z33300d7"/></clipPath>
	<clipPath id="z33300c8"><use xlink:href="#z33300d8"/></clipPath>
	<clipPath id="z33300c9"><use xlink:href="#z33300d9"/></clipPath>
	<clipPath id="z33300c10"><use xlink:href="#z33300d10"/></clipPath>
	<clipPath id="z33300c11"><use xlink:href="#z33300d11"/></clipPath>
	<clipPath id="z33300c12"><use xlink:href="#z33300d12"/></clipPath>
	<clipPath id="z33300c13"><use xlink:href="#z33300d13"/></clipPath>
	<clipPath id="z33300c14"><use xlink:href="#z33300d14"/></clipPath>
</defs>
<path pathLength="3333" clip-path="url(#z33300c1)" d="M374 182L311 191L255 252L112 332"/>
<path pathLength="3333" clip-path="url(#z33300c2)" d="M46 457L393 403"/>
<path pathLength="3333" clip-path="url(#z33300c3)" d="M217 300L254 330L219 545"/>
<path pathLength="3333" clip-path="url(#z33300c4)" d="M96 570L128 600L162 792"/>
<path pathLength="3333" clip-path="url(#z33300c5)" d="M153 577L280 545L318 563L289 683"/>
<path pathLength="3333" clip-path="url(#z33300c6)" d="M182 739L333 701"/>
<path pathLength="3333" clip-path="url(#z33300c7)" d="M470 180L745 147"/>
<path pathLength="3333" clip-path="url(#z33300c8)" d="M406 364L740 315L828 325"/>
<path pathLength="3333" clip-path="url(#z33300c9)" d="M554 215L582 253L534 398L466 514L382 593"/>
<path pathLength="3333" clip-path="url(#z33300c10)" d="M628 360L832 570L979 601"/>
<path pathLength="3333" clip-path="url(#z33300c11)" d="M549 507L594 551L587 855L559 885L468 823"/>
<path pathLength="3333" clip-path="url(#z33300c12)" d="M459 647L395 805"/>
<path pathLength="3333" clip-path="url(#z33300c13)" d="M660 665L705 784"/>
<path pathLength="3333" clip-path="url(#z33300c14)" d="M729 616L827 721L846 783"/>
</svg>