<!--
AnimCJK 2016-2019 Copyright Francois Mizessyn - https://github.com/parsimonhi/animCJK
Derived from:
    MakeMeAHanzi project - https://github.com/skishore/makemeahanzi
    Arphic PL KaitiM GB font
    Arphic PL UKai font
You can redistribute and/or modify this file under the terms of the Arphic Public License
as published by Arphic Technology Co., Ltd.
You should have received a copy of this license along with this file.
If not, see http://ftp.gnu.org/non-gnu/chinese-fonts-truetype/LICENSE.
-->
<svg id="z33300" class="acjk" version="1.1" viewBox="0 0 1024 1024" xmlns="http://www.w3.org/2000/svg" xmlns:xlink="http://www.w3.org/1999/xlink">
<style>
<![CDATA[
@keyframes zk {
	to {
		stroke-dashoffset:0;
	}
}
svg.acjk path[clip-path] {
	--t:0.8s;
	animation:zk var(--t) linear forwards var(--d);
	stroke-dasharray:3337;
	stroke-dashoffset:3339;
	stroke-width:128;
	stroke-linecap:round;
	fill:none;
	stroke:#000;
}
svg.acjk path[id] {fill:#ccc;}
]]>
</style>
<path id="z33300d1" d="M239 285Q243 281 251 278Q294 254 340 217Q353 205 372 197Q384 190 381 182Q377 175 360 166Q323 150 302 153Q292 154 294 165Q294 216 106 329Q99 336 112 337Q148 330 210 301C229 290 229 290 239 285Z"/>
<path id="z33300d2" d="M263 442Q278 436 381 417Q391 418 399 405Q399 395 377 386Q346 367 272 396Q271 396 269 397C238 406 238 406 223 411Q150 429 54 449Q27 453 49 469Q79 487 122 479Q165 466 221 453C249 446 249 446 263 442Z"/>
<path id="z33300d3" d="M249 539Q256 488 263 442C267 412 267 412 269 397Q275 352 287 325Q291 316 276 304Q255 291 239 285C229 282 204 292 210 301Q223 325 224 378Q223 393 223 411C222 439 222 439 221 453Q217 499 214 554C214 567 247 551 249 539Z"/>
<path id="z33300d4" d="M145 574Q135 568 106 563Q94 560 91 565Q85 571 93 586Q118 644 134 738Q137 766 153 785Q169 806 174 791Q181 775 178 746C175 724 175 724 173 713Q160 628 157 601C155 591 154 578 145 574Z"/>
<path id="z33300d5" d="M319 685Q335 610 357 588Q379 561 355 549Q336 539 309 522Q290 512 272 524Q262 531 249 539C226 549 226 549 214 554Q184 564 145 574C135 576 147 603 157 601Q164 600 175 596Q217 583 252 574Q276 568 282 577Q288 583 269 683C266 699 316 701 319 685Z"/>
<path id="z33300d6" d="M178 746Q199 736 331 713Q341 712 341 703Q341 696 319 685C305 676 285 680 269 683C268 683 268 683 268 683Q216 702 173 713C162 715 168 750 178 746Z"/>
<path id="z33300d7" d="M581 202Q740 163 743 161Q753 152 747 144Q740 132 710 125Q686 122 601 148Q529 166 485 170Q448 177 475 193Q508 211 546 208C569 204 569 204 581 202Z"/>
<path id="z33300d8" d="M645 353Q700 346 780 343Q825 343 833 333Q837 321 821 309Q764 273 721 290Q670 303 590 320Q587 320 588 321C549 329 549 329 530 333Q472 343 410 355Q391 358 406 373Q434 398 488 382Q500 378 516 376C554 368 554 368 573 364Q597 358 618 357C636 354 636 354 645 353Z"/>
<path id="z33300d9" d="M588 321Q588 320 589 320Q596 301 602 281Q606 271 611 261Q621 251 617 237Q605 219 581 202C572 195 542 197 546 208Q555 232 544 277Q543 280 543 283Q537 308 530 333C521 362 521 362 516 376Q482 478 386 582Q382 586 378 592Q374 601 384 601Q412 601 484 523Q490 514 497 507Q545 444 573 364C583 335 583 335 588 321Z"/>
<path id="z33300d10" d="M618 357Q619 360 623 364Q701 478 801 598Q828 631 977 610Q987 609 988 603Q988 599 975 591Q837 539 761 469Q706 418 645 353C639 347 613 350 618 357Z"/>
<path id="z33300d11" d="M536 834Q502 827 469 817Q459 816 459 821Q460 828 469 835Q538 893 563 928Q576 944 590 931Q623 898 621 836Q618 808 614 629Q613 586 624 556Q631 540 617 528Q593 509 567 500Q551 494 543 501Q537 507 547 520Q568 554 567 594Q576 816 556 832Q549 838 536 834Z"/>
<path id="z33300d12" d="M449 647Q424 696 390 739Q368 769 383 799Q387 817 408 806Q456 776 468 701Q475 671 470 648Q466 641 461 639Q454 640 449 647Z"/>
<path id="z33300d13" d="M650 682Q677 776 699 787Q709 794 722 781Q728 771 728 750Q727 728 706 708Q678 672 664 662Q657 656 651 666Q647 672 650 682Z"/>
<path id="z33300d14" d="M728 638Q768 689 816 761Q828 782 841 787Q848 790 857 782Q870 772 865 730Q862 688 733 610Q726 604 722 615Q721 627 728 638Z"/>
<defs>
	<clipPath id="z33300c1"><use xlink:href="#z33300d1"/></clipPath>
	<clipPath id="z33300c2"><use xlink:href="#z33300d2"/></clipPath>
	<clipPath id="z33300c3"><use xlink:href="#z33300d3"/></clipPath>
	<clipPath id="z33300c4"><use xlink:href="#z33300d4"/></clipPath>
	<clipPath id="z33300c5"><use xlink:href="#z33300d5"/></clipPath>
	<clipPath id="z33300c6"><use xlink:href="#z33300d6"/></clipPath>
	<clipPath id="z33300c7"><use xlink:href="#z33300d7"/></clipPath>
	<clipPath id="z33300c8"><use xlink:href="#z33300d8"/></clipPath>
	<clipPath id="z33300c9"><use xlink:href="#z33300d9"/></clipPath>
	<clipPath id="z33300c10"><use xlink:href="#z33300d10"/></clipPath>
	<clipPath id="z33300c11"><use xlink:href="#z33300d11"/></clipPath>
	<clipPath id="z33300c12"><use xlink:href="#z33300d12"/></clipPath>
	<clipPath id="z33300c13"><use xlink:href="#z33300d13"/></clipPath>
	<clipPath id="z33300c14"><use xlink:href="#z33300d14"/></clipPath>
</defs>
<path style="--d:1s;" pathLength="3333" clip-path="url(#z33300c1)" d="M374 182L311 191L255 252L112 332"/>
<path style="--d:2s;" pathLength="3333" clip-path="url(#z33300c2)" d="M46 457L393 403"/>
<path style="--d:3s;" pathLength="3333" clip-path="url(#z33300c3)" d="M217 300L254 330L219 545"/>
<path style="--d:4s;" pathLength="3333" clip-path="url(#z33300c4)" d="M96 570L128 600L162 792"/>
<path style="--d:5s;" pathLength="3333" clip-path="url(#z33300c5)" d="M153 577L280 545L318 563L289 683"/>
<path style="--d:6s;" pathLength="3333" clip-path="url(#z33300c6)" d="M182 739L333 701"/>
<path style="--d:7s;" pathLength="3333" clip-path="url(#z33300c7)" d="M470 180L745 147"/>
<path style="--d:8s;" pathLength="3333" clip-path="url(#z33300c8)" d="M406 364L740 315L828 325"/>
<path style="--d:9s;" pathLength="3333" clip-path="url(#z33300c9)" d="M554 215L582 253L534 398L466 514L382 593"/>
<path style="--d:10s;" pathLength="3333" clip-path="url(#z33300c10)" d="M628 360L832 570L979 601"/>
<path style="--d:11s;" pathLength="3333" clip-path="url(#z33300c11)" d="M549 507L594 551L587 855L559 885L468 823"/>
<path style="--d:12s;" pathLength="3333" clip-path="url(#z33300c12)" d="M459 647L395 805"/>
<path style="--d:13s;" pathLength="3333" clip-path="url(#z33300c13)" d="M660 665L705 784"/>
<path style="--d:14s;" pathLength="3333" clip-path="url(#z33300c14)" d="M729 616L827 721L846 783"/>
</svg>