<!--
AnimCJK 2016-2018 Copyright Francois Mizessyn, http://gooo.free.fr/animCJK/
Derived from:
    MakeMeAHanzi project - https://github.com/skishore/makemeahanzi
    Arphic PL KaitiM GB - https://apps.ubuntu.com/cat/applications/precise/fonts-arphic-gkai00mp/
    Arphic PL UKai - https://apps.ubuntu.com/cat/applications/fonts-arphic-ukai/
You can redistribute and/or modify this file under the terms of the Arphic Public License
as published by Arphic Technology Co., Ltd.
You should have received a copy of this license (the directory "APL") along with this file;
if not, see http://ftp.gnu.org/non-gnu/chinese-fonts-truetype/LICENSE.
-->
<svg id="z33329" class="acjk" version="1.1" viewBox="0 0 1024 1024" xmlns="http://www.w3.org/2000/svg" xmlns:xlink="http://www.w3.org/1999/xlink">
<style>
<![CDATA[
@keyframes z33329k {
	from {
		stroke:#ccc;
		stroke-dashoffset:3334;
	}
	1% {
		stroke:#c00;
		stroke-dashoffset:3334;
	}
	75% {
		stroke:#c00;
		stroke-dashoffset:0;
	}
	to {
		stroke:#000;
	}
}
#z33329 path[clip-path] {
	animation:z33329k 1s linear both;
	stroke-dasharray:3334;
	stroke-width:128;
	stroke-linecap:round;
	fill:none;
}
#z33329 path[clip-path="url(#z33329c1)"] {animation-delay:1s;}
#z33329 path[clip-path="url(#z33329c2)"] {animation-delay:2s;}
#z33329 path[clip-path="url(#z33329c3)"] {animation-delay:3s;}
#z33329 path[clip-path="url(#z33329c4)"] {animation-delay:4s;}
#z33329 path[clip-path="url(#z33329c5)"] {animation-delay:5s;}
#z33329 path[clip-path="url(#z33329c6)"] {animation-delay:6s;}
#z33329 path[clip-path="url(#z33329c7)"] {animation-delay:7s;}
#z33329 path[clip-path="url(#z33329c8)"] {animation-delay:8s;}
#z33329 path[clip-path="url(#z33329c9)"] {animation-delay:9s;}
#z33329 path[clip-path="url(#z33329c10)"] {animation-delay:10s;}
#z33329 path {fill:#ccc;}
]]>
</style>
<path id="z33329d1" d="M284 275Q318 229 336 198Q376 126 397 107Q412 92 397 80Q381 70 354 66Q329 62 319 69Q309 73 317 84Q332 109 270 260Q266 267 263 278L284 275 Z"/>
<path id="z33329d2" d="M259 279Q246 269 225 262Q206 255 195 259Q185 266 192 279Q226 321 213 531L208 580Q184 734 100 891Q96 898 95 903Q94 913 103 910Q116 907 148 859Q221 766 254 582Q255 573 256 565L261 522Q267 465 267 410Q267 314 273 308L259 279 Z"/>
<path id="z33329d3" d="M399 520Q399 806 381 836Q377 839 303 828Q284 824 285 833Q342 875 375 908Q388 926 403 930Q412 933 419 924Q456 881 455 825Q446 656 448 381Q447 326 460 302Q472 283 460 274Q441 256 405 242Q389 235 337 260Q310 266 284 275L263 278Q260 279 259 279L273 308Q315 299 363 285Q382 281 387 290Q394 311 399 494L399 520 Z"/>
<path id="z33329d4" d="M291 400Q324 463 344 467Q354 471 363 457Q366 447 361 428Q357 413 338 403Q311 384 299 379Q292 376 289 385Q286 392 291 400 Z"/>
<path id="z33329d5" d="M256 565Q358 534 399 520L399 494Q333 507 261 522L213 531Q167 537 119 547Q97 551 63 547Q50 547 47 556Q44 569 52 578Q73 597 103 619Q113 623 126 616Q165 594 208 580L256 565 Z"/>
<path id="z33329d6" d="M293 638Q312 665 333 696Q342 709 354 711Q363 712 369 703Q376 693 374 667Q371 640 298 598Q286 592 280 594Q276 595 274 606Q275 616 293 638 Z"/>
<path id="z33329d7" d="M532 518Q616 389 654 307L665 280Q683 237 701 215Q708 205 702 191Q696 179 667 162Q639 147 621 150Q603 154 614 174Q660 249 466 562Q459 572 457 579Q456 589 468 586L518 537L532 518 Z"/>
<path id="z33329d8" d="M654 307Q712 404 790 506Q806 524 833 524Q924 525 954 521Q963 520 964 515Q965 511 953 503Q827 448 755 375Q712 332 665 280L654 307 Z"/>
<path id="z33329d9" d="M576 578Q583 579 595 577Q623 562 701 539Q708 538 713 540Q723 544 723 560Q722 597 708 666Q704 687 685 684Q658 678 636 673Q624 672 627 678Q628 685 650 703Q678 728 695 757Q702 764 710 762Q717 761 730 740Q751 710 758 654Q768 564 781 551Q791 544 786 533Q779 523 748 502Q727 490 581 538Q577 538 574 540L576 578 Z"/>
<path id="z33329d10" d="M909 815Q893 788 866 705Q865 689 857 686Q851 683 849 701Q836 792 822 822Q810 838 773 848Q734 858 687 854Q647 851 614 836Q584 821 577 803Q550 745 576 578L574 540Q573 539 572 538Q560 525 539 518Q535 517 532 518L518 537L519 538Q531 574 528 607Q516 817 555 860Q564 878 624 898Q792 940 907 858Q926 840 909 815 Z"/>
<defs>
	<clipPath id="z33329c1"><use xlink:href="#z33329d1"/></clipPath>
	<clipPath id="z33329c2"><use xlink:href="#z33329d2"/></clipPath>
	<clipPath id="z33329c3"><use xlink:href="#z33329d3"/></clipPath>
	<clipPath id="z33329c4"><use xlink:href="#z33329d4"/></clipPath>
	<clipPath id="z33329c5"><use xlink:href="#z33329d5"/></clipPath>
	<clipPath id="z33329c6"><use xlink:href="#z33329d6"/></clipPath>
	<clipPath id="z33329c7"><use xlink:href="#z33329d7"/></clipPath>
	<clipPath id="z33329c8"><use xlink:href="#z33329d8"/></clipPath>
	<clipPath id="z33329c9"><use xlink:href="#z33329d9"/></clipPath>
	<clipPath id="z33329c10"><use xlink:href="#z33329d10"/></clipPath>
</defs>
<path pathLength="3333" clip-path="url(#z33329c1)" d="M320 75L360 109L269 272"/>
<path pathLength="3333" clip-path="url(#z33329c2)" d="M198 265L240 310L230 588L173 781L100 903"/>
<path pathLength="3333" clip-path="url(#z33329c3)" d="M267 282L388 263L427 294L415 854L389 883L294 832"/>
<path pathLength="3333" clip-path="url(#z33329c4)" d="M296 387L350 464"/>
<path pathLength="3333" clip-path="url(#z33329c5)" d="M50 561L113 584L398 507"/>
<path pathLength="3333" clip-path="url(#z33329c6)" d="M284 601L358 705"/>
<path pathLength="3333" clip-path="url(#z33329c7)" d="M616 158L664 208L592 380L464 581"/>
<path pathLength="3333" clip-path="url(#z33329c8)" d="M668 294L822 480L957 515"/>
<path pathLength="3333" clip-path="url(#z33329c9)" d="M584 571L706 520L754 544L715 708L694 722L636 678"/>
<path pathLength="3333" clip-path="url(#z33329c10)" d="M534 525L552 578L548 777L589 854L709 883L839 857L872 824L857 695"/>
</svg>