<!--
AnimCJK 2016-2018 Copyright Francois Mizessyn, https://github.com/parsimonhi/animCJK
Derived from:
    MakeMeAHanzi project - https://github.com/skishore/makemeahanzi
    Arphic PL KaitiM GB - https://apps.ubuntu.com/cat/applications/precise/fonts-arphic-gkai00mp/
    Arphic PL UKai - https://apps.ubuntu.com/cat/applications/fonts-arphic-ukai/
You can redistribute and/or modify this file under the terms of the Arphic Public License
as published by Arphic Technology Co., Ltd.
You should have received a copy of this license (the directory "APL") along with this file;
if not, see http://ftp.gnu.org/non-gnu/chinese-fonts-truetype/LICENSE.
-->
<svg id="z33337" class="acjk" version="1.1" viewBox="0 0 1024 1024" xmlns="http://www.w3.org/2000/svg" xmlns:xlink="http://www.w3.org/1999/xlink">
<style>
<![CDATA[
@keyframes z33337k {
	from {
		stroke:#c00;
		stroke-dashoffset:3334;
	}
	75% {
		stroke:#c00;
		stroke-dashoffset:0;
	}
	to {
		stroke:#000;
	}
}
#z33337 path[clip-path] {
	animation:z33337k 1s linear both;
	stroke-dasharray:3334;
	stroke-width:128;
	stroke-linecap:round;
	fill:none;
}
#z33337 path[clip-path="url(#z33337c1)"] {animation-delay:1s;}
#z33337 path[clip-path="url(#z33337c2)"] {animation-delay:2s;}
#z33337 path[clip-path="url(#z33337c3)"] {animation-delay:3s;}
#z33337 path[clip-path="url(#z33337c4)"] {animation-delay:4s;}
#z33337 path[clip-path="url(#z33337c5)"] {animation-delay:5s;}
#z33337 path[clip-path="url(#z33337c6)"] {animation-delay:6s;}
#z33337 path[clip-path="url(#z33337c7)"] {animation-delay:7s;}
#z33337 path[clip-path="url(#z33337c8)"] {animation-delay:8s;}
#z33337 path[clip-path="url(#z33337c9)"] {animation-delay:9s;}
#z33337 path[clip-path="url(#z33337c10)"] {animation-delay:10s;}
#z33337 path[clip-path="url(#z33337c11)"] {animation-delay:11s;}
#z33337 path {fill:#ccc;}
]]>
</style>
<path id="z33337d1" d="M324 289Q370 238 420 177Q433 158 455 141Q473 126 458 112Q442 99 413 92Q388 85 376 91Q363 95 371 107Q383 134 344 209Q302 293 301 294L324 289 Z"/>
<path id="z33337d2" d="M291 296Q276 286 253 278Q235 271 225 276Q215 283 222 295Q240 313 246 386Q246 393 247 403Q250 476 246 542L242 585Q224 732 139 896Q135 902 134 908Q133 918 142 914Q154 913 186 864Q253 774 288 572L292 533Q295 482 296 360Q299 323 301 321L291 296 Z"/>
<path id="z33337d3" d="M434 527Q435 819 418 847Q414 853 396 848Q371 844 346 837Q327 831 329 840Q381 883 411 917Q423 933 437 938Q446 941 453 932Q486 887 487 815Q478 646 479 383Q478 331 489 309Q499 291 489 282Q470 266 437 253Q421 247 367 276Q336 285 324 289L301 294Q297 294 291 296L301 321Q316 321 400 296Q416 289 422 297Q429 318 434 502L434 527 Z"/>
<path id="z33337d4" d="M324 397Q346 458 367 466Q377 470 388 457Q392 447 390 427Q386 412 370 401Q346 382 335 376Q328 372 324 382Q321 388 324 397 Z"/>
<path id="z33337d5" d="M288 572Q343 554 400 538Q416 534 434 527L434 502Q367 517 292 533L246 542Q188 552 127 564Q103 568 67 565Q54 565 52 574Q48 587 56 595Q75 613 105 634Q115 638 127 631Q184 600 242 585L288 572 Z"/>
<path id="z33337d6" d="M320 651Q344 703 357 709Q366 712 373 703Q380 693 383 667Q383 649 329 612Q319 605 312 606Q308 607 305 618Q305 627 320 651 Z"/>
<path id="z33337d7" d="M615 248Q575 232 562 234Q546 238 560 256Q591 295 578 415Q575 434 569 457Q559 493 520 541Q510 553 507 558Q506 565 516 563Q541 560 581 517Q632 454 629 300Q630 290 631 282L615 248 Z"/>
<path id="z33337d8" d="M963 487Q976 483 968 467Q953 449 936 440Q924 434 902 443Q865 462 817 462Q787 462 777 440Q764 416 775 348Q779 305 819 263Q835 248 820 234Q798 215 772 204Q762 198 745 208Q679 235 615 248L631 282Q731 251 735 252Q742 255 742 269Q724 422 732 451Q739 478 763 493Q797 512 864 509Q930 506 963 487 Z"/>
<path id="z33337d9" d="M575 638Q563 632 537 627Q524 623 521 628Q514 634 522 650Q552 722 564 837Q565 871 584 896Q600 918 607 903Q614 887 613 859L609 826Q593 705 590 669L575 638 Z"/>
<path id="z33337d10" d="M823 804Q850 704 891 672Q909 653 894 634Q876 619 822 592Q803 583 780 592Q710 617 575 638L590 669Q596 668 603 666Q684 653 761 640Q782 636 789 644Q801 656 798 681Q785 748 768 802L823 804 Z"/>
<path id="z33337d11" d="M613 859Q620 860 631 859Q697 847 838 842Q848 841 851 832Q851 825 823 804L768 802Q678 818 609 826L613 859 Z"/>
<defs>
	<clipPath id="z33337c1"><use xlink:href="#z33337d1"/></clipPath>
	<clipPath id="z33337c2"><use xlink:href="#z33337d2"/></clipPath>
	<clipPath id="z33337c3"><use xlink:href="#z33337d3"/></clipPath>
	<clipPath id="z33337c4"><use xlink:href="#z33337d4"/></clipPath>
	<clipPath id="z33337c5"><use xlink:href="#z33337d5"/></clipPath>
	<clipPath id="z33337c6"><use xlink:href="#z33337d6"/></clipPath>
	<clipPath id="z33337c7"><use xlink:href="#z33337d7"/></clipPath>
	<clipPath id="z33337c8"><use xlink:href="#z33337d8"/></clipPath>
	<clipPath id="z33337c9"><use xlink:href="#z33337d9"/></clipPath>
	<clipPath id="z33337c10"><use xlink:href="#z33337d10"/></clipPath>
	<clipPath id="z33337c11"><use xlink:href="#z33337d11"/></clipPath>
</defs>
<path pathLength="3333" clip-path="url(#z33337c1)" d="M374 97L418 134L310 289"/>
<path pathLength="3333" clip-path="url(#z33337c2)" d="M227 284L269 326L262 598L215 772L140 906"/>
<path pathLength="3333" clip-path="url(#z33337c3)" d="M297 297L423 274L458 298L451 854L426 893L339 842"/>
<path pathLength="3333" clip-path="url(#z33337c4)" d="M330 383L373 462"/>
<path pathLength="3333" clip-path="url(#z33337c5)" d="M59 575L119 600L427 509"/>
<path pathLength="3333" clip-path="url(#z33337c6)" d="M314 611L362 703"/>
<path pathLength="3333" clip-path="url(#z33337c7)" d="M560 238L603 286L602 399L572 498L516 555"/>
<path pathLength="3333" clip-path="url(#z33337c8)" d="M623 253L749 228L784 254L750 390L756 451L779 475L966 472"/>
<path pathLength="3333" clip-path="url(#z33337c9)" d="M526 634L565 688L598 904"/>
<path pathLength="3333" clip-path="url(#z33337c10)" d="M584 643L786 614L822 629L848 666L797 798L776 797"/>
<path pathLength="3333" clip-path="url(#z33337c11)" d="M616 831L845 830"/>
</svg>