<!--
AnimCJK 2016-2019 Copyright Francois Mizessyn - https://github.com/parsimonhi/animCJK
Derived from:
    MakeMeAHanzi project - https://github.com/skishore/makemeahanzi
    Arphic PL KaitiM GB font
    Arphic PL UKai font
You can redistribute and/or modify this file under the terms of the Arphic Public License
as published by Arphic Technology Co., Ltd.
You should have received a copy of this license along with this file.
If not, see http://ftp.gnu.org/non-gnu/chinese-fonts-truetype/LICENSE.
-->
<svg id="z33422" class="acjk" version="1.1" viewBox="0 0 1024 1024" xmlns="http://www.w3.org/2000/svg" xmlns:xlink="http://www.w3.org/1999/xlink">
<style>
<![CDATA[
@keyframes zk {
	to {
		stroke-dashoffset:0;
	}
}
svg.acjk path[clip-path] {
	--t:0.8s;
	animation:zk var(--t) linear forwards var(--d);
	stroke-dasharray:3337;
	stroke-dashoffset:3339;
	stroke-width:128;
	stroke-linecap:round;
	fill:none;
	stroke:#000;
}
svg.acjk path[id] {fill:#ccc;}
]]>
</style>
<path id="z33422d1" d="M629 215Q738 206 836 215Q852 216 858 206Q864 194 850 179Q796 136 704 155Q679 158 654 163C618 169 618 169 600 172Q524 181 439 193C408 196 408 196 392 198Q295 207 189 217Q158 220 179 237Q221 264 299 253Q348 240 400 233C427 230 427 230 441 228Q510 219 587 217C615 216 615 216 629 215Z"/>
<path id="z33422d2" d="M439 193Q435 156 435 128Q436 109 416 103Q379 82 355 91Q337 100 352 119Q379 152 392 198C397 221 397 221 400 233Q406 267 423 284Q436 294 441 283Q448 262 441 228C440 205 440 205 439 193Z"/>
<path id="z33422d3" d="M654 163Q672 126 683 110Q696 97 687 86Q677 70 643 52Q628 42 611 50Q601 56 608 67Q618 91 600 172C591 202 591 202 587 217Q577 238 579 261Q580 274 595 264Q596 263 629 215C646 180 646 180 654 163Z"/>
<path id="z33422d4" d="M657 432Q688 375 714 364Q732 346 718 328Q702 313 652 285Q636 276 613 283Q492 326 333 339Q317 340 318 350Q319 357 338 365Q363 375 398 366Q495 350 589 332Q614 328 623 337Q630 346 626 360Q614 399 602 431C595 448 649 448 657 432Z"/>
<path id="z33422d5" d="M408 501Q501 482 675 470Q685 469 687 460Q688 453 658 432C657 432 657 432 657 432C641 424 620 428 602 431Q485 456 388 470C376 472 396 503 408 501Z"/>
<path id="z33422d6" d="M310 684Q398 629 576 607Q615 595 638 602Q663 609 666 649Q648 737 598 803Q574 840 554 848Q529 857 493 845Q462 842 439 840Q418 833 418 842Q418 849 435 861Q486 901 520 939Q533 951 543 949Q559 948 578 933Q633 893 662 840Q693 788 726 682Q730 646 744 627Q759 612 747 598Q728 579 685 558Q663 548 634 556Q598 566 570 572Q488 585 385 602Q354 608 368 577Q392 525 402 512Q406 506 408 501C413 490 399 476 388 470Q372 461 351 455Q330 448 318 456Q308 463 321 484Q342 515 298 593Q289 603 272 617Q254 636 258 654Q262 670 280 686Q295 698 310 684Z"/>
<defs>
	<clipPath id="z33422c1"><use xlink:href="#z33422d1"/></clipPath>
	<clipPath id="z33422c2"><use xlink:href="#z33422d2"/></clipPath>
	<clipPath id="z33422c3"><use xlink:href="#z33422d3"/></clipPath>
	<clipPath id="z33422c4"><use xlink:href="#z33422d4"/></clipPath>
	<clipPath id="z33422c5"><use xlink:href="#z33422d5"/></clipPath>
	<clipPath id="z33422c6"><use xlink:href="#z33422d6"/></clipPath>
</defs>
<path style="--d:1s;" pathLength="3333" clip-path="url(#z33422c1)" d="M180 227L737 180L855 191"/>
<path style="--d:2s;" pathLength="3333" clip-path="url(#z33422c2)" d="M351 101L404 135L432 283"/>
<path style="--d:3s;" pathLength="3333" clip-path="url(#z33422c3)" d="M613 57L650 100L586 260"/>
<path style="--d:4s;" pathLength="3333" clip-path="url(#z33422c4)" d="M326 350L622 306L674 355L619 431"/>
<path style="--d:5s;" pathLength="3333" clip-path="url(#z33422c5)" d="M398 472L682 456"/>
<path style="--d:6s;" pathLength="3333" clip-path="url(#z33422c6)" d="M322 464L367 505L312 621L321 650L638 577L707 621L659 769L579 881L532 899L428 844"/>
</svg>