<!--
AnimCJK 2016-2018 Copyright Francois Mizessyn - https://github.com/parsimonhi/animCJK
Derived from:
    MakeMeAHanzi project - https://github.com/skishore/makemeahanzi
    Arphic PL KaitiM GB - https://apps.ubuntu.com/cat/applications/precise/fonts-arphic-gkai00mp/
    Arphic PL UKai - https://apps.ubuntu.com/cat/applications/fonts-arphic-ukai/
You can redistribute and/or modify this file under the terms of the Arphic Public License
as published by Arphic Technology Co., Ltd.
You should have received a copy of this license (the directory "APL") along with this file;
if not, see http://ftp.gnu.org/non-gnu/chinese-fonts-truetype/LICENSE.
-->
<svg id="z33448" class="acjk" version="1.1" viewBox="0 0 1024 1024" xmlns="http://www.w3.org/2000/svg" xmlns:xlink="http://www.w3.org/1999/xlink">
<style>
<![CDATA[
@keyframes z33448k {
	from {
		stroke:#ccc;
		stroke-dashoffset:3334;
	}
	1% {
		stroke:#c00;
		stroke-dashoffset:3334;
	}
	75% {
		stroke:#c00;
		stroke-dashoffset:0;
	}
	to {
		stroke:#000;
	}
}
#z33448 path[clip-path] {
	animation:z33448k 1s linear both;
	stroke-dasharray:3334;
	stroke-width:128;
	stroke-linecap:round;
	fill:none;
}
#z33448 path[clip-path="url(#z33448c1)"] {animation-delay:1s;}
#z33448 path[clip-path="url(#z33448c2)"] {animation-delay:2s;}
#z33448 path[clip-path="url(#z33448c3)"] {animation-delay:3s;}
#z33448 path[clip-path="url(#z33448c4)"] {animation-delay:4s;}
#z33448 path[clip-path="url(#z33448c5)"] {animation-delay:5s;}
#z33448 path[clip-path="url(#z33448c6)"] {animation-delay:6s;}
#z33448 path {fill:#ccc;}
]]>
</style>
<path id="z33448d1" d="M625 211Q697 202 812 211Q828 212 835 202Q839 190 826 175Q769 127 655 158Q649 158 644 160L587 169Q511 179 427 191L377 197Q286 206 185 217Q154 220 175 236Q214 264 294 252Q340 239 387 233L430 227Q499 217 578 214L625 211 Z"/>
<path id="z33448d2" d="M427 191Q424 163 423 139Q424 120 404 114Q364 96 343 103Q325 113 340 131Q365 161 377 197L387 233Q399 290 415 305Q428 315 433 303Q436 294 430 227L427 191 Z"/>
<path id="z33448d3" d="M644 160Q644 159 645 158Q652 136 668 107Q681 91 670 82Q657 66 622 49Q606 40 588 50Q578 57 587 67Q597 88 587 169L578 214Q563 269 566 289Q567 302 583 291Q595 279 625 211L644 160 Z"/>
<path id="z33448d4" d="M374 405L375 406Q391 559 248 722Q139 830 116 851Q89 866 102 873Q141 879 251 783Q326 720 381 608L395 578Q440 463 452 441Q459 431 454 422Q448 413 415 395L374 405 Z"/>
<path id="z33448d5" d="M528 766Q440 839 311 881Q286 887 288 890Q289 902 354 889Q474 862 560 802L603 766Q673 700 700 603Q710 563 731 543Q735 539 734 531Q731 512 679 489Q660 483 637 495Q624 505 578 516Q556 520 577 486Q637 396 653 388Q671 379 675 370Q679 358 640 334Q607 313 591 314Q581 314 555 329Q521 342 400 366Q336 378 282 379Q261 380 261 391Q262 400 292 410Q317 419 374 405L415 395Q466 383 553 367Q569 363 572 371Q576 383 542 463Q526 488 511 503Q496 519 504 533Q511 548 521 555Q528 562 536 561Q542 560 555 553Q568 546 609 539Q633 538 642 546Q651 555 643 589Q619 676 576 721Q569 727 564 734L528 766 Z"/>
<path id="z33448d6" d="M560 802Q666 916 701 921Q818 921 875 913Q915 909 911 898Q911 897 725 835Q637 799 603 766L564 734Q503 682 440 612Q418 587 395 578L381 608Q438 656 527 764Q527 765 528 766L560 802 Z"/>
<defs>
	<clipPath id="z33448c1"><use xlink:href="#z33448d1"/></clipPath>
	<clipPath id="z33448c2"><use xlink:href="#z33448d2"/></clipPath>
	<clipPath id="z33448c3"><use xlink:href="#z33448d3"/></clipPath>
	<clipPath id="z33448c4"><use xlink:href="#z33448d4"/></clipPath>
	<clipPath id="z33448c5"><use xlink:href="#z33448d5"/></clipPath>
	<clipPath id="z33448c6"><use xlink:href="#z33448d6"/></clipPath>
</defs>
<path pathLength="3333" clip-path="url(#z33448c1)" d="M175 225L277 231L718 176L831 195"/>
<path pathLength="3333" clip-path="url(#z33448c2)" d="M337 113L392 147L424 305"/>
<path pathLength="3333" clip-path="url(#z33448c3)" d="M591 57L633 98L578 291"/>
<path pathLength="3333" clip-path="url(#z33448c4)" d="M382 413L416 446L334 646L258 745L108 865"/>
<path pathLength="3333" clip-path="url(#z33448c5)" d="M271 390L597 346L623 373L536 522L551 538L654 516L690 547L635 684L555 775L454 839L296 891"/>
<path pathLength="3333" clip-path="url(#z33448c6)" d="M397 586L665 852L714 878L903 899"/>
</svg>