<!--
AnimCJK 2016-2017 Copyright Francois Mizessyn, http://gooo.free.fr/animCJK/
Derived from:
    MakeMeAHanzi project - https://github.com/skishore/makemeahanzi
    Arphic PL KaitiM GB - https://apps.ubuntu.com/cat/applications/precise/fonts-arphic-gkai00mp/
    Arphic PL UKai - https://apps.ubuntu.com/cat/applications/fonts-arphic-ukai/
You can redistribute and/or modify this file under the terms of the Arphic Public License
as published by Arphic Technology Co., Ltd.
You should have received a copy of this license (the directory "APL") along with this file;
if not, see http://ftp.gnu.org/non-gnu/chinese-fonts-truetype/LICENSE.
-->
<svg id="z33453" class="acjk" version="1.1" viewBox="0 0 1024 1024" xmlns="http://www.w3.org/2000/svg" xmlns:xlink="http://www.w3.org/1999/xlink">
<style>
<![CDATA[
	@keyframes z33453k {
		from {
			stroke:#c00;
			stroke-dashoffset:3000;
		}
		75% {
			stroke:#c00;
			stroke-dashoffset:0;
		}
		to {
			stroke:#000;
		}
	}
	#z33453 path[clip-path] {
		animation:z33453k 1s linear both;
		stroke-dasharray:3000;
		stroke-width:128;
		stroke-linecap:round;
		fill:none;
	}
	#z33453 path[clip-path="url(#z33453c1)"] {animation-delay:1s;}
	#z33453 path[clip-path="url(#z33453c2)"] {animation-delay:2s;}
	#z33453 path[clip-path="url(#z33453c3)"] {animation-delay:3s;}
	#z33453 path[clip-path="url(#z33453c4)"] {animation-delay:4s;}
	#z33453 path[clip-path="url(#z33453c5)"] {animation-delay:5s;}
	#z33453 path[clip-path="url(#z33453c6)"] {animation-delay:6s;}
	#z33453 path[clip-path="url(#z33453c7)"] {animation-delay:7s;}
	#z33453 path {fill:#ccc;}
]]>
</style>
<g transform="scale(1,-1) translate(0,-900)">
	<path id="z33453d1" d="M619 646Q685 658 795 652Q811 651 816 661Q820 671 807 686Q759 728 667 701Q651 700 637 695L580 684Q504 672 420 658L373 651Q280 639 182 626Q154 622 174 607Q216 580 271 592Q326 608 381 619L424 625Q493 637 571 642L619 646Z"/>
	<path id="z33453d2" d="M420 658Q417 692 415 721Q416 740 396 746Q356 764 335 757Q317 747 332 729Q362 693 373 651L381 619Q396 546 411 531Q424 521 429 533Q429 536 424 625L420 658Z"/>
	<path id="z33453d3" d="M637 695Q646 720 663 753Q676 769 666 778Q653 794 618 811Q602 820 584 810Q574 804 583 793Q598 762 580 684L571 642Q553 564 554 551Q555 538 571 549Q586 562 619 646L637 695Z"/>
	<path id="z33453d4" d="M666 348Q702 439 741 463Q760 482 745 504Q667 568 605 542Q497 500 299 469L323 435Q336 439 442 462L482 470Q537 483 594 495Q625 504 639 490Q649 480 644 458Q628 400 608 353L666 348Z"/>
	<path id="z33453d5" d="M442 462Q443 455 443 310L489 321Q501 411 505 418Q514 434 506 446Q494 461 482 470L442 462Z"/>
	<path id="z33453d6" d="M295 264Q302 255 312 252Q322 251 335 253Q443 284 677 317Q687 318 688 328Q688 335 666 348L608 353Q547 337 489 321L443 310Q368 295 302 284Q298 284 296 282L295 264Z"/>
	<path id="z33453d7" d="M898 73Q879 131 871 232Q870 248 862 254Q853 260 849 238Q833 114 814 91Q760 33 540 28Q419 31 367 51Q322 73 312 104Q296 144 294 245Q294 255 295 264L296 282Q300 369 319 412Q323 425 323 435L299 469Q256 500 242 496Q226 489 234 472Q256 432 251 375Q245 111 279 60Q318 -6 456 -21Q550 -31 696 -18Q829 -6 879 24Q910 40 898 73Z"/>
	<defs>
		<clipPath id="z33453c1"><use xlink:href="#z33453d1"/></clipPath>
		<clipPath id="z33453c2"><use xlink:href="#z33453d2"/></clipPath>
		<clipPath id="z33453c3"><use xlink:href="#z33453d3"/></clipPath>
		<clipPath id="z33453c4"><use xlink:href="#z33453d4"/></clipPath>
		<clipPath id="z33453c5"><use xlink:href="#z33453d5"/></clipPath>
		<clipPath id="z33453c6"><use xlink:href="#z33453d6"/></clipPath>
		<clipPath id="z33453c7"><use xlink:href="#z33453d7"/></clipPath>
	</defs>
	<path pathLength="2999" clip-path="url(#z33453c1)" d="M177 616L720 683L811 676"/>
	<path pathLength="2999" clip-path="url(#z33453c2)" d="M329 746L385 711L417 531"/>
	<path pathLength="2999" clip-path="url(#z33453c3)" d="M587 804L630 761L562 550"/>
	<path pathLength="2999" clip-path="url(#z33453c4)" d="M309 465L659 517L698 471L643 365L617 359"/>
	<path pathLength="2999" clip-path="url(#z33453c5)" d="M449 455L476 419L455 314"/>
	<path pathLength="2999" clip-path="url(#z33453c6)" d="M299 267L680 328"/>
	<path pathLength="2999" clip-path="url(#z33453c7)" d="M240 491L287 422L272 261L286 106L360 27L568 2L822 43L860 78L857 248"/>
</g>
</svg>