<!--
AnimCJK 2016-2018 Copyright Francois Mizessyn - https://github.com/parsimonhi/animCJK
Derived from:
    MakeMeAHanzi project - https://github.com/skishore/makemeahanzi
    Arphic PL KaitiM GB - https://apps.ubuntu.com/cat/applications/precise/fonts-arphic-gkai00mp/
    Arphic PL UKai - https://apps.ubuntu.com/cat/applications/fonts-arphic-ukai/
You can redistribute and/or modify this file under the terms of the Arphic Public License
as published by Arphic Technology Co., Ltd.
You should have received a copy of this license (the directory "APL") along with this file;
if not, see http://ftp.gnu.org/non-gnu/chinese-fonts-truetype/LICENSE.
-->
<svg id="z33521" class="acjk" version="1.1" viewBox="0 0 1024 1024" xmlns="http://www.w3.org/2000/svg" xmlns:xlink="http://www.w3.org/1999/xlink">
<style>
<![CDATA[
@keyframes z33521k {
	from {
		stroke:#ccc;
		stroke-dashoffset:3334;
	}
	1% {
		stroke:#c00;
		stroke-dashoffset:3334;
	}
	75% {
		stroke:#c00;
		stroke-dashoffset:0;
	}
	to {
		stroke:#000;
	}
}
#z33521 path[clip-path] {
	animation:z33521k 1s linear both;
	stroke-dasharray:3334;
	stroke-width:128;
	stroke-linecap:round;
	fill:none;
}
#z33521 path[clip-path="url(#z33521c1)"] {animation-delay:1s;}
#z33521 path[clip-path="url(#z33521c2)"] {animation-delay:2s;}
#z33521 path[clip-path="url(#z33521c3)"] {animation-delay:3s;}
#z33521 path[clip-path="url(#z33521c4)"] {animation-delay:4s;}
#z33521 path[clip-path="url(#z33521c5)"] {animation-delay:5s;}
#z33521 path[clip-path="url(#z33521c6)"] {animation-delay:6s;}
#z33521 path[clip-path="url(#z33521c7)"] {animation-delay:7s;}
#z33521 path[clip-path="url(#z33521c8)"] {animation-delay:8s;}
#z33521 path {fill:#ccc;}
]]>
</style>
<path id="z33521d1" d="M646 212C697 208 754 202 819 208C829 208 836 205 839 199C841 192 840 182 831 174C800 146 754 142 697 156C686 158 675 161 665 163C624 170 624 170 603 174C548 183 490 193 429 201C397 205 397 205 381 207C330 213 277 219 222 226C203 228 200 236 214 245C241 262 283 265 337 254C353 250 371 246 389 243C418 237 418 237 432 234C486 222 572 217 594 216C629 213 629 213 646 212Z"></path>
<path id="z33521d2" d="M429 201C426 178 426 158 426 140C425 127 420 120 408 115C381 102 361 96 347 102C334 107 332 117 343 130C361 152 374 178 381 207C386 231 386 231 389 243C397 282 404 309 415 320C422 327 430 326 433 319C435 311 436 282 432 234C430 212 430 212 429 201Z"></path>
<path id="z33521d3" d="M665 163C671 147 677 128 691 111C700 98 702 92 695 84C685 72 669 60 645 48C632 41 620 40 608 48C601 52 601 58 606 67C615 86 614 122 603 174C597 202 597 202 594 216C583 267 572 298 574 312C574 322 580 323 592 315C604 305 623 271 646 212C659 179 659 179 665 163Z"></path>
<path id="z33521d4" d="M338 434C322 424 305 416 287 412C278 409 270 411 265 416C260 419 259 427 266 436C277 452 287 468 294 486C300 502 310 544 326 612C329 625 369 621 366 608C356 534 351 487 351 467C351 455 347 441 338 434Z"></path>
<path id="z33521d5" d="M709 566C729 510 752 476 775 459C789 448 789 433 779 421C769 409 745 395 709 377C696 370 682 370 667 375C622 389 580 403 539 410C498 417 498 417 478 420C431 427 384 430 338 434C326 434 339 467 351 467C359 467 369 465 381 463C411 457 443 454 477 449C516 443 516 443 535 440C567 435 599 430 632 425C652 421 667 423 676 433C686 444 677 492 651 574C644 592 702 584 709 566Z"></path>
<path id="z33521d6" d="M523 622C573 616 704 615 916 615C930 615 938 613 942 607C946 598 943 588 931 579C888 546 846 539 804 550C775 556 744 561 709 566C670 571 670 571 651 574C608 579 562 585 514 592C483 596 483 596 467 598C433 602 399 604 366 608C339 611 339 611 326 612C257 618 185 625 110 633C95 634 92 640 104 653C113 663 125 670 138 674C152 678 165 678 177 676C261 654 421 632 463 628C503 624 503 624 523 622Z"></path>
<path id="z33521d7" d="M463 628C453 700 419 760 369 797C328 826 264 854 177 880C168 882 162 885 162 889C161 891 166 894 174 896C186 898 210 897 244 892C300 883 349 863 391 834C446 794 489 738 505 646C511 610 511 610 514 592C517 573 528 486 535 440C538 420 538 420 539 410C540 399 547 386 556 371C561 361 560 351 553 345C538 331 518 320 492 312C475 306 463 306 457 311C450 315 450 322 455 331C469 355 479 385 478 420C477 439 477 439 477 449C475 499 473 549 467 598C464 618 464 618 463 628Z"></path>
<path id="z33521d8" d="M505 646C567 728 638 814 719 901C733 916 753 922 777 921C857 915 910 910 936 904C943 902 948 898 949 895C949 891 911 874 837 847C783 826 741 806 714 786C655 741 591 686 523 622C508 607 492 629 505 646Z"></path>
<defs>
	<clipPath id="z33521c1"><use xlink:href="#z33521d1"></use></clipPath>
	<clipPath id="z33521c2"><use xlink:href="#z33521d2"></use></clipPath>
	<clipPath id="z33521c3"><use xlink:href="#z33521d3"></use></clipPath>
	<clipPath id="z33521c4"><use xlink:href="#z33521d4"></use></clipPath>
	<clipPath id="z33521c5"><use xlink:href="#z33521d5"></use></clipPath>
	<clipPath id="z33521c6"><use xlink:href="#z33521d6"></use></clipPath>
	<clipPath id="z33521c7"><use xlink:href="#z33521d7"></use></clipPath>
	<clipPath id="z33521c8"><use xlink:href="#z33521d8"></use></clipPath>
</defs>
<path pathLength="3333" clip-path="url(#z33521c1)" d="M215 235L730 177L836 191"></path>
<path pathLength="3333" clip-path="url(#z33521c2)" d="M343 114L396 150L422 318"></path>
<path pathLength="3333" clip-path="url(#z33521c3)" d="M609 54L656 94L581 311"></path>
<path pathLength="3333" clip-path="url(#z33521c4)" d="M270 423L316 460L351 609"></path>
<path pathLength="3333" clip-path="url(#z33521c5)" d="M347 440L684 401L732 443L683 559L658 568"></path>
<path pathLength="3333" clip-path="url(#z33521c6)" d="M106 643L160 653L830 580L940 601"></path>
<path pathLength="3333" clip-path="url(#z33521c7)" d="M460 317L516 374L459 718L363 827L173 890"></path>
<path pathLength="3333" clip-path="url(#z33521c8)" d="M515 630L760 870L941 895"></path>
</svg>