<!--
AnimCJK 2016-2019 Copyright Francois Mizessyn - https://github.com/parsimonhi/animCJK
Derived from:
    MakeMeAHanzi project - https://github.com/skishore/makemeahanzi
    Arphic PL KaitiM GB font
    Arphic PL UKai font
You can redistribute and/or modify this file under the terms of the Arphic Public License
as published by Arphic Technology Co., Ltd.
You should have received a copy of this license along with this file.
If not, see http://ftp.gnu.org/non-gnu/chinese-fonts-truetype/LICENSE.
-->
<svg id="z33544" class="acjk" version="1.1" viewBox="0 0 1024 1024" xmlns="http://www.w3.org/2000/svg" xmlns:xlink="http://www.w3.org/1999/xlink">
<style>
<![CDATA[
@keyframes zk {
	to {
		stroke-dashoffset:0;
	}
}
svg.acjk path[clip-path] {
	--t:0.8s;
	animation:zk var(--t) linear forwards var(--d);
	stroke-dasharray:3337;
	stroke-dashoffset:3339;
	stroke-width:128;
	stroke-linecap:round;
	fill:none;
	stroke:#000;
}
svg.acjk path[id] {fill:#ccc;}
]]>
</style>
<path id="z33544d1" d="M613 226Q742 217 823 225Q841 226 846 216Q852 203 838 187Q783 139 680 165Q656 168 634 173C597 179 597 179 578 182Q502 192 416 204C380 208 380 208 362 210Q277 219 185 228Q154 231 175 248Q221 279 284 268Q329 256 372 249C403 244 403 244 418 242Q449 233 566 229C597 227 597 227 613 226Z"/>
<path id="z33544d2" d="M416 204Q413 173 413 147Q414 126 393 120Q351 99 327 107Q308 116 324 137Q352 170 362 210C369 236 369 236 372 249Q390 306 399 316Q412 326 418 314Q424 296 418 242C417 217 417 217 416 204Z"/>
<path id="z33544d3" d="M634 173Q634 170 636 168Q643 143 662 111Q675 96 666 86Q653 70 618 53Q602 43 584 53Q574 59 582 70Q594 98 578 182C570 213 570 213 566 229Q550 301 550 309Q551 322 567 311Q580 299 613 226C627 191 627 191 634 173Z"/>
<path id="z33544d4" d="M369 757Q373 670 375 591C376 569 376 569 376 558Q379 494 385 463Q389 447 392 433Q396 421 375 407Q339 389 314 386Q298 383 290 392Q283 399 292 414Q314 445 315 466Q328 607 327 770C327 785 369 772 369 757Z"/>
<path id="z33544d5" d="M375 591Q433 579 480 573Q502 569 493 556Q483 541 457 538Q406 535 376 558C367 564 364 593 375 591Z"/>
<path id="z33544d6" d="M250 791Q240 652 243 623Q244 601 231 590Q209 574 182 567Q169 563 160 568Q153 575 160 589Q187 634 211 802C214 815 250 805 250 791Z"/>
<path id="z33544d7" d="M211 802Q189 806 168 814Q149 821 115 819Q102 820 99 831Q98 844 106 854Q130 870 164 890Q174 894 187 885Q221 858 414 775Q441 763 460 749Q473 742 474 732Q470 726 456 729Q413 742 369 757C341 766 341 766 327 770Q288 780 250 791C224 798 224 798 211 802Z"/>
<path id="z33544d8" d="M576 612Q640 587 682 569Q770 527 802 521Q827 515 821 494Q811 472 787 451Q765 430 751 430Q738 429 738 444Q735 480 649 537Q613 559 578 586C571 591 568 615 576 612Z"/>
<path id="z33544d9" d="M578 586Q578 493 602 422Q606 389 606 385Q602 379 596 375Q568 350 529 340Q510 336 502 346Q493 355 501 364Q522 383 524 433Q524 778 541 810Q541 846 632 876Q785 894 848 881Q854 880 860 878Q906 865 927 846Q943 831 925 800Q906 746 899 676Q898 666 890 656Q880 650 877 674Q844 792 837 803Q830 815 802 820Q759 832 699 830Q618 830 593 796Q566 760 576 612C577 595 577 595 578 586Z"/>
<defs>
	<clipPath id="z33544c1"><use xlink:href="#z33544d1"/></clipPath>
	<clipPath id="z33544c2"><use xlink:href="#z33544d2"/></clipPath>
	<clipPath id="z33544c3"><use xlink:href="#z33544d3"/></clipPath>
	<clipPath id="z33544c4"><use xlink:href="#z33544d4"/></clipPath>
	<clipPath id="z33544c5"><use xlink:href="#z33544d5"/></clipPath>
	<clipPath id="z33544c6"><use xlink:href="#z33544d6"/></clipPath>
	<clipPath id="z33544c7"><use xlink:href="#z33544d7"/></clipPath>
	<clipPath id="z33544c8"><use xlink:href="#z33544d8"/></clipPath>
	<clipPath id="z33544c9"><use xlink:href="#z33544d9"/></clipPath>
</defs>
<path style="--d:1s;" pathLength="3333" clip-path="url(#z33544c1)" d="M175 236L272 244L736 188L843 208"/>
<path style="--d:2s;" pathLength="3333" clip-path="url(#z33544c2)" d="M321 117L377 150L406 314"/>
<path style="--d:3s;" pathLength="3333" clip-path="url(#z33544c3)" d="M586 58L628 102L557 308"/>
<path style="--d:4s;" pathLength="3333" clip-path="url(#z33544c4)" d="M294 396L352 442L337 766"/>
<path style="--d:5s;" pathLength="3333" clip-path="url(#z33544c5)" d="M382 582L491 558"/>
<path style="--d:6s;" pathLength="3333" clip-path="url(#z33544c6)" d="M165 575L208 615L226 797"/>
<path style="--d:7s;" pathLength="3333" clip-path="url(#z33544c7)" d="M103 830L171 852L469 736"/>
<path style="--d:8s;" pathLength="3333" clip-path="url(#z33544c8)" d="M748 438L771 493L582 604"/>
<path style="--d:9s;" pathLength="3333" clip-path="url(#z33544c9)" d="M505 349L564 402L551 713L586 827L712 857L868 834L889 804L886 662"/>
</svg>