<!--
AnimCJK 2016-2017 Copyright Francois Mizessyn, http://gooo.free.fr/animCJK/
Derived from:
    MakeMeAHanzi project - https://github.com/skishore/makemeahanzi
    Arphic PL KaitiM GB - https://apps.ubuntu.com/cat/applications/precise/fonts-arphic-gkai00mp/
    Arphic PL UKai - https://apps.ubuntu.com/cat/applications/fonts-arphic-ukai/
You can redistribute and/or modify this file under the terms of the Arphic Public License
as published by Arphic Technology Co., Ltd.
You should have received a copy of this license (the directory "APL") along with this file;
if not, see http://ftp.gnu.org/non-gnu/chinese-fonts-truetype/LICENSE.
-->
<svg id="z33579" class="acjk" version="1.1" viewBox="0 0 1024 1024" xmlns="http://www.w3.org/2000/svg" xmlns:xlink="http://www.w3.org/1999/xlink">
<style>
<![CDATA[
	@keyframes z33579k {
		from {
			stroke:#c00;
			stroke-dashoffset:3000;
		}
		75% {
			stroke:#c00;
			stroke-dashoffset:0;
		}
		to {
			stroke:#000;
		}
	}
	#z33579 path[clip-path] {
		animation:z33579k 1s linear both;
		stroke-dasharray:3000;
		stroke-width:128;
		stroke-linecap:round;
		fill:none;
	}
	#z33579 path[clip-path="url(#z33579c1)"] {animation-delay:1s;}
	#z33579 path[clip-path="url(#z33579c2)"] {animation-delay:2s;}
	#z33579 path[clip-path="url(#z33579c3)"] {animation-delay:3s;}
	#z33579 path[clip-path="url(#z33579c4)"] {animation-delay:4s;}
	#z33579 path[clip-path="url(#z33579c5)"] {animation-delay:5s;}
	#z33579 path[clip-path="url(#z33579c6)"] {animation-delay:6s;}
	#z33579 path[clip-path="url(#z33579c7)"] {animation-delay:7s;}
	#z33579 path[clip-path="url(#z33579c8)"] {animation-delay:8s;}
	#z33579 path[clip-path="url(#z33579c9)"] {animation-delay:9s;}
	#z33579 path {fill:#ccc;}
]]>
</style>
<g transform="scale(1,-1) translate(0,-900)">
	<path id="z33579d1" d="M662 660Q705 670 841 659Q857 658 862 667Q868 679 854 694Q806 739 702 714Q692 714 682 711L621 701Q527 689 419 675L370 670Q286 663 196 654Q166 651 187 635Q229 608 287 616Q333 628 377 634L421 642Q463 651 612 658L662 660Z"/>
	<path id="z33579d2" d="M419 675Q416 717 415 750Q416 769 396 776Q357 797 333 790Q314 781 329 761Q360 718 370 670L377 634Q389 559 403 544Q416 532 422 545Q425 555 421 642L419 675Z"/>
	<path id="z33579d3" d="M682 711Q685 735 713 783Q729 799 717 811Q702 830 664 847Q645 857 626 847Q616 840 624 827Q634 805 633 777Q629 743 621 701L612 658Q596 589 597 576Q598 560 616 574Q634 589 662 660L682 711Z"/>
	<path id="z33579d4" d="M248 489Q276 467 306 441Q319 429 334 431Q344 432 349 444Q353 459 343 487Q331 520 241 535Q226 538 220 535Q216 531 217 519Q221 509 248 489Z"/>
	<path id="z33579d5" d="M170 362Q209 316 240 302Q255 299 263 313Q269 325 266 341Q260 365 243 377Q180 411 157 400Q151 399 154 387Q155 375 170 362Z"/>
	<path id="z33579d6" d="M181 99Q169 96 170 80Q177 7 209 -14Q215 -21 225 -19Q232 -18 236 6Q243 45 339 250Q346 263 346 270Q346 280 337 274Q322 267 217 129Q205 113 181 99Z"/>
	<path id="z33579d7" d="M591 511Q616 486 645 457Q658 442 676 443Q686 443 693 457Q697 472 690 504Q680 537 587 561Q571 565 564 563Q558 559 560 546Q563 533 591 511Z"/>
	<path id="z33579d8" d="M511 329Q640 359 857 356Q914 353 923 364Q929 376 912 390Q861 429 822 420Q675 389 364 350Q343 349 359 331Q372 318 391 312Q407 308 465 320L511 329Z"/>
	<path id="z33579d9" d="M465 320Q514 220 471 112Q441 76 482 38Q494 28 510 41Q600 98 803 85Q819 85 839 82Q861 78 872 85Q879 91 874 103Q868 116 829 140Q811 150 733 142Q711 149 548 116Q538 112 536 116Q527 122 530 140Q537 251 547 283Q553 298 539 309Q527 321 511 329L465 320Z"/>
	<defs>
		<clipPath id="z33579c1"><use xlink:href="#z33579d1"/></clipPath>
		<clipPath id="z33579c2"><use xlink:href="#z33579d2"/></clipPath>
		<clipPath id="z33579c3"><use xlink:href="#z33579d3"/></clipPath>
		<clipPath id="z33579c4"><use xlink:href="#z33579d4"/></clipPath>
		<clipPath id="z33579c5"><use xlink:href="#z33579d5"/></clipPath>
		<clipPath id="z33579c6"><use xlink:href="#z33579d6"/></clipPath>
		<clipPath id="z33579c7"><use xlink:href="#z33579d7"/></clipPath>
		<clipPath id="z33579c8"><use xlink:href="#z33579d8"/></clipPath>
		<clipPath id="z33579c9"><use xlink:href="#z33579d9"/></clipPath>
	</defs>
	<path pathLength="2999" clip-path="url(#z33579c1)" d="M186 646L282 639L730 693L858 675"/>
	<path pathLength="2999" clip-path="url(#z33579c2)" d="M328 782L383 739L412 545"/>
	<path pathLength="2999" clip-path="url(#z33579c3)" d="M628 840L677 791L604 577"/>
	<path pathLength="2999" clip-path="url(#z33579c4)" d="M224 527L305 483L341 438"/>
	<path pathLength="2999" clip-path="url(#z33579c5)" d="M158 394L259 312"/>
	<path pathLength="2999" clip-path="url(#z33579c6)" d="M221 -14L213 77L342 268"/>
	<path pathLength="2999" clip-path="url(#z33579c7)" d="M568 552L657 494L672 446"/>
	<path pathLength="2999" clip-path="url(#z33579c8)" d="M359 343L416 334L831 389L919 375"/>
	<path pathLength="2999" clip-path="url(#z33579c9)" d="M474 318L515 284L511 76L695 115L871 101"/>
</g>
</svg>