<!--
AnimCJK 2016-2019 Copyright Francois Mizessyn - https://github.com/parsimonhi/animCJK
Derived from:
    MakeMeAHanzi project - https://github.com/skishore/makemeahanzi
    Arphic PL KaitiM GB font
    Arphic PL UKai font
You can redistribute and/or modify this file under the terms of the Arphic Public License
as published by Arphic Technology Co., Ltd.
You should have received a copy of this license along with this file.
If not, see http://ftp.gnu.org/non-gnu/chinese-fonts-truetype/LICENSE.
-->
<svg id="z33575" class="acjk" version="1.1" viewBox="0 0 1024 1024" xmlns="http://www.w3.org/2000/svg" xmlns:xlink="http://www.w3.org/1999/xlink">
<style>
<![CDATA[
@keyframes zk {
	to {
		stroke-dashoffset:0;
	}
}
svg.acjk path[clip-path] {
	--t:0.8s;
	animation:zk var(--t) linear forwards var(--d);
	stroke-dasharray:3337;
	stroke-dashoffset:3339;
	stroke-width:128;
	stroke-linecap:round;
	fill:none;
	stroke:#000;
}
svg.acjk path[id] {fill:#ccc;}
]]>
</style>
<path id="z33575d1" d="M652 230Q713 227 788 228Q858 231 867 220Q873 208 856 194Q799 151 723 171Q698 174 670 181C632 188 632 188 613 191Q559 198 498 207Q461 211 421 217C388 221 388 221 371 223Q274 233 169 246Q147 247 163 265Q176 278 195 285Q216 289 232 286Q302 267 380 256C409 251 409 251 424 249Q481 237 604 232C636 231 636 231 652 230Z"/>
<path id="z33575d2" d="M421 217Q420 187 418 164Q419 145 400 139Q361 118 339 126Q320 135 336 154Q361 185 371 223C377 245 377 245 380 256Q392 319 407 336Q420 346 425 335Q428 323 424 249C422 228 422 228 421 217Z"/>
<path id="z33575d3" d="M670 181Q679 157 695 127Q708 112 698 102Q685 86 650 69Q634 60 616 69Q606 76 615 87Q627 114 613 191C607 218 607 218 604 232Q583 301 586 325Q587 338 603 327Q621 309 652 230C664 197 664 197 670 181Z"/>
<path id="z33575d4" d="M321 445Q306 438 279 436Q266 433 263 439Q256 446 266 462Q297 520 320 617Q324 645 342 665Q363 687 367 670Q370 660 370 643C367 620 367 620 365 608Q347 512 339 479C336 466 333 450 321 445Z"/>
<path id="z33575d5" d="M704 566Q732 490 766 468Q785 449 770 429Q694 366 632 392Q586 405 542 416C502 423 502 423 482 427Q403 437 321 445C308 448 326 482 339 479Q349 478 361 475Q422 465 483 456C520 451 520 451 538 448Q578 441 618 434Q652 427 664 441Q673 450 670 468Q661 517 650 557C646 575 697 583 704 566Z"/>
<path id="z33575d6" d="M529 619Q607 609 714 600Q726 599 727 590Q727 583 704 566C690 555 668 557 650 557Q649 556 646 557Q585 570 531 582C500 588 500 588 485 591Q421 601 365 608C353 610 358 643 370 643Q377 643 386 642Q426 632 485 625C514 621 514 621 529 619Z"/>
<path id="z33575d7" d="M522 762Q525 689 529 619C530 594 530 594 531 582Q534 518 537 458Q537 452 538 448C541 427 541 427 542 416Q543 406 545 396Q552 374 555 358Q559 348 538 332Q502 313 478 309Q462 305 454 314Q447 321 455 337Q480 374 481 401Q481 413 482 427C483 446 483 446 483 456Q484 520 485 591C485 614 485 614 485 625Q484 694 480 769C480 783 522 776 522 762Z"/>
<path id="z33575d8" d="M699 730Q614 745 522 762C494 767 494 767 480 769Q378 784 272 801Q239 807 188 799Q172 798 169 810Q165 825 173 835Q197 857 231 885Q243 891 258 883Q336 844 535 801Q682 768 714 755C723 752 709 728 699 730Z"/>
<path id="z33575d9" d="M714 755Q747 809 783 876Q795 901 810 911Q819 914 830 906Q846 896 845 845Q845 781 684 660Q677 651 670 664Q667 676 699 730C709 747 709 747 714 755Z"/>
<defs>
	<clipPath id="z33575c1"><use xlink:href="#z33575d1"/></clipPath>
	<clipPath id="z33575c2"><use xlink:href="#z33575d2"/></clipPath>
	<clipPath id="z33575c3"><use xlink:href="#z33575d3"/></clipPath>
	<clipPath id="z33575c4"><use xlink:href="#z33575d4"/></clipPath>
	<clipPath id="z33575c5"><use xlink:href="#z33575d5"/></clipPath>
	<clipPath id="z33575c6"><use xlink:href="#z33575d6"/></clipPath>
	<clipPath id="z33575c7"><use xlink:href="#z33575d7"/></clipPath>
	<clipPath id="z33575c8"><use xlink:href="#z33575d8"/></clipPath>
	<clipPath id="z33575c9"><use xlink:href="#z33575d9"/></clipPath>
</defs>
<path style="--d:1s;" pathLength="3333" clip-path="url(#z33575c1)" d="M162 252L230 262L763 196L862 206"/>
<path style="--d:2s;" pathLength="3333" clip-path="url(#z33575c2)" d="M335 139L385 167L415 336"/>
<path style="--d:3s;" pathLength="3333" clip-path="url(#z33575c3)" d="M618 76L661 117L592 323"/>
<path style="--d:4s;" pathLength="3333" clip-path="url(#z33575c4)" d="M268 442L310 486L353 672"/>
<path style="--d:5s;" pathLength="3333" clip-path="url(#z33575c5)" d="M331 449L683 414L723 457L662 558"/>
<path style="--d:6s;" pathLength="3333" clip-path="url(#z33575c6)" d="M372 612L721 588"/>
<path style="--d:7s;" pathLength="3333" clip-path="url(#z33575c7)" d="M457 315L517 371L493 766"/>
<path style="--d:8s;" pathLength="3333" clip-path="url(#z33575c8)" d="M174 809L251 845L707 749"/>
<path style="--d:9s;" pathLength="3333" clip-path="url(#z33575c9)" d="M677 666L791 810L821 908"/>
</svg>