<!--
AnimCJK 2016-2017 Copyright Francois Mizessyn, http://gooo.free.fr/animCJK/
Derived from:
    MakeMeAHanzi project - https://github.com/skishore/makemeahanzi
    Arphic PL KaitiM GB - https://apps.ubuntu.com/cat/applications/precise/fonts-arphic-gkai00mp/
    Arphic PL UKai - https://apps.ubuntu.com/cat/applications/fonts-arphic-ukai/
You can redistribute and/or modify this file under the terms of the Arphic Public License
as published by Arphic Technology Co., Ltd.
You should have received a copy of this license (the directory "APL") along with this file;
if not, see http://ftp.gnu.org/non-gnu/chinese-fonts-truetype/LICENSE.
-->
<svg id="z33588" class="acjk" version="1.1" viewBox="0 0 1024 1024" xmlns="http://www.w3.org/2000/svg" xmlns:xlink="http://www.w3.org/1999/xlink">
<style>
<![CDATA[
	@keyframes z33588k {
		from {
			stroke:#c00;
			stroke-dashoffset:3000;
		}
		75% {
			stroke:#c00;
			stroke-dashoffset:0;
		}
		to {
			stroke:#000;
		}
	}
	#z33588 path[clip-path] {
		animation:z33588k 1s linear both;
		stroke-dasharray:3000;
		stroke-width:128;
		stroke-linecap:round;
		fill:none;
	}
	#z33588 path[clip-path="url(#z33588c1)"] {animation-delay:1s;}
	#z33588 path[clip-path="url(#z33588c2)"] {animation-delay:2s;}
	#z33588 path[clip-path="url(#z33588c3)"] {animation-delay:3s;}
	#z33588 path[clip-path="url(#z33588c4)"] {animation-delay:4s;}
	#z33588 path[clip-path="url(#z33588c5)"] {animation-delay:5s;}
	#z33588 path[clip-path="url(#z33588c6)"] {animation-delay:6s;}
	#z33588 path[clip-path="url(#z33588c7)"] {animation-delay:7s;}
	#z33588 path[clip-path="url(#z33588c8)"] {animation-delay:8s;}
	#z33588 path[clip-path="url(#z33588c9)"] {animation-delay:9s;}
	#z33588 path {fill:#ccc;}
]]>
</style>
<g transform="scale(1,-1) translate(0,-900)">
	<path id="z33588d1" d="M622 637Q724 646 820 639Q836 638 843 648Q847 661 834 677Q779 725 692 701Q665 697 640 691L584 682Q508 672 424 659L372 652Q282 643 185 632Q154 629 175 612Q221 581 284 592Q333 605 380 613L426 621Q432 628 573 634L622 637Z"/>
	<path id="z33588d2" d="M424 659Q421 698 420 728Q423 749 401 756Q358 777 335 770Q316 761 332 740Q363 700 372 652L380 613Q384 591 387 570Q393 548 407 533Q420 520 426 534Q430 549 426 621L424 659Z"/>
	<path id="z33588d3" d="M640 691Q656 745 674 778Q689 794 677 805Q662 821 624 838Q606 848 588 837Q578 830 587 818Q603 782 584 682L573 634Q555 559 557 540Q560 524 576 538Q594 554 622 637L640 691Z"/>
	<path id="z33588d4" d="M247 450Q226 460 206 466Q199 469 193 463Q183 456 195 443Q244 359 252 170Q253 106 291 73Q294 70 299 67Q315 63 319 86L319 125Q316 149 309 176Q288 377 286 405L247 450Z"/>
	<path id="z33588d5" d="M666 110Q676 83 699 34Q708 15 719 16Q735 19 746 46Q783 118 790 215Q799 276 806 345Q812 400 838 432Q857 454 843 469Q819 494 767 516Q746 528 710 515Q536 460 247 450L286 405Q293 405 303 406Q450 431 678 461Q720 467 735 448Q765 400 715 158Q712 136 703 134Q700 133 693 135L666 110Z"/>
	<path id="z33588d6" d="M420 359Q410 365 377 367Q365 370 363 364Q357 358 366 344Q391 302 410 232Q414 211 428 198Q446 179 450 193Q451 200 452 210L447 245Q434 308 432 330L420 359Z"/>
	<path id="z33588d7" d="M606 257Q627 318 649 330Q662 346 651 362Q584 408 538 386Q487 373 420 359L432 330Q445 333 548 349Q561 352 566 346Q573 340 573 327Q570 296 565 268L606 257Z"/>
	<path id="z33588d8" d="M452 210Q456 210 463 211Q511 220 615 226Q625 227 627 235Q627 242 606 257L565 268Q558 268 551 266Q493 253 447 245L452 210Z"/>
	<path id="z33588d9" d="M319 86Q326 85 337 86Q443 105 666 110L693 135Q660 172 574 154Q433 133 319 125L319 86Z"/>
	<defs>
		<clipPath id="z33588c1"><use xlink:href="#z33588d1"/></clipPath>
		<clipPath id="z33588c2"><use xlink:href="#z33588d2"/></clipPath>
		<clipPath id="z33588c3"><use xlink:href="#z33588d3"/></clipPath>
		<clipPath id="z33588c4"><use xlink:href="#z33588d4"/></clipPath>
		<clipPath id="z33588c5"><use xlink:href="#z33588d5"/></clipPath>
		<clipPath id="z33588c6"><use xlink:href="#z33588d6"/></clipPath>
		<clipPath id="z33588c7"><use xlink:href="#z33588d7"/></clipPath>
		<clipPath id="z33588c8"><use xlink:href="#z33588d8"/></clipPath>
		<clipPath id="z33588c9"><use xlink:href="#z33588d9"/></clipPath>
	</defs>
	<path pathLength="2999" clip-path="url(#z33588c1)" d="M176 623L253 614L736 676L840 655"/>
	<path pathLength="2999" clip-path="url(#z33588c2)" d="M330 756L389 717L414 536"/>
	<path pathLength="2999" clip-path="url(#z33588c3)" d="M591 828L638 784L562 539"/>
	<path pathLength="2999" clip-path="url(#z33588c4)" d="M198 457L257 377L294 72"/>
	<path pathLength="2999" clip-path="url(#z33588c5)" d="M256 449L313 430L709 489L774 469L797 437L743 131L711 90L712 22"/>
	<path pathLength="2999" clip-path="url(#z33588c6)" d="M370 358L406 324L447 197"/>
	<path pathLength="2999" clip-path="url(#z33588c7)" d="M427 356L597 359L614 334L589 262"/>
	<path pathLength="2999" clip-path="url(#z33588c8)" d="M455 240L621 233"/>
	<path pathLength="2999" clip-path="url(#z33588c9)" d="M327 94L681 131"/>
</g>
</svg>