<!--
AnimCJK 2016-2017 Copyright Francois Mizessyn, http://gooo.free.fr/animCJK/
Derived from:
    MakeMeAHanzi project - https://github.com/skishore/makemeahanzi
    Arphic PL KaitiM GB - https://apps.ubuntu.com/cat/applications/precise/fonts-arphic-gkai00mp/
    Arphic PL UKai - https://apps.ubuntu.com/cat/applications/fonts-arphic-ukai/
You can redistribute and/or modify this file under the terms of the Arphic Public License
as published by Arphic Technology Co., Ltd.
You should have received a copy of this license (the directory "APL") along with this file;
if not, see http://ftp.gnu.org/non-gnu/chinese-fonts-truetype/LICENSE.
-->
<svg id="z33620" class="acjk" version="1.1" viewBox="0 0 1024 1024" xmlns="http://www.w3.org/2000/svg" xmlns:xlink="http://www.w3.org/1999/xlink">
<style>
<![CDATA[
	@keyframes z33620k {
		from {
			stroke:#c00;
			stroke-dashoffset:3000;
		}
		75% {
			stroke:#c00;
			stroke-dashoffset:0;
		}
		to {
			stroke:#000;
		}
	}
	#z33620 path[clip-path] {
		animation:z33620k 1s linear both;
		stroke-dasharray:3000;
		stroke-width:128;
		stroke-linecap:round;
		fill:none;
	}
	#z33620 path[clip-path="url(#z33620c1)"] {animation-delay:1s;}
	#z33620 path[clip-path="url(#z33620c2)"] {animation-delay:2s;}
	#z33620 path[clip-path="url(#z33620c3)"] {animation-delay:3s;}
	#z33620 path[clip-path="url(#z33620c4)"] {animation-delay:4s;}
	#z33620 path[clip-path="url(#z33620c5)"] {animation-delay:5s;}
	#z33620 path[clip-path="url(#z33620c6)"] {animation-delay:6s;}
	#z33620 path[clip-path="url(#z33620c7)"] {animation-delay:7s;}
	#z33620 path[clip-path="url(#z33620c8)"] {animation-delay:8s;}
	#z33620 path[clip-path="url(#z33620c9)"] {animation-delay:9s;}
	#z33620 path {fill:#ccc;}
]]>
</style>
<g transform="scale(1,-1) translate(0,-900)">
	<path id="z33620d1" d="M636 692Q729 702 842 693Q858 692 862 701Q868 711 855 726Q807 771 684 741Q669 740 655 736L597 728Q510 718 414 705L365 699Q269 692 167 681Q139 678 158 663Q200 636 254 645Q315 661 373 669L416 676Q497 686 589 690L636 692Z"/>
	<path id="z33620d2" d="M414 705Q411 733 411 756Q412 775 392 782Q352 800 331 793Q312 784 328 765Q355 735 365 699L373 669Q388 615 399 604Q412 594 417 605Q421 618 416 676L414 705Z"/>
	<path id="z33620d3" d="M655 736Q658 755 683 795Q698 811 686 821Q673 837 637 855Q621 865 602 856Q592 849 600 838Q612 811 597 728L589 690Q577 636 578 624Q579 609 596 621Q608 631 636 692L655 736Z"/>
	<path id="z33620d4" d="M495 537Q529 544 560 548Q579 549 583 544Q589 535 584 513Q574 452 556 424Q537 396 510 402Q488 406 469 413Q447 420 463 399Q497 366 514 340Q524 324 539 333Q590 357 631 488Q641 521 656 536Q668 546 663 556Q656 566 611 590Q593 600 576 589Q558 580 506 567L448 555Q375 542 311 539Q295 538 292 530Q291 523 312 512Q334 497 352 503Q397 516 438 525L495 537Z"/>
	<path id="z33620d5" d="M331 366Q352 362 417 418Q462 457 495 537L506 567Q507 568 508 571Q514 589 523 605Q529 614 523 623Q517 630 489 644Q470 653 461 650Q451 646 453 632Q459 604 448 555L438 525Q410 456 330 376Q326 372 327 368L331 366Z"/>
	<path id="z33620d6" d="M319 268Q383 280 391 273Q398 260 392 229Q380 142 357 105Q341 77 316 83Q288 95 262 108Q240 117 254 94Q299 48 319 13Q335 -6 351 7Q403 40 435 165Q445 243 468 269Q480 281 475 290Q466 300 420 323Q401 332 383 320Q368 313 331 302L271 289Q196 274 135 271Q119 270 116 262Q115 255 136 244Q158 229 176 236Q221 248 261 256L319 268Z"/>
	<path id="z33620d7" d="M261 256Q219 157 115 56Q111 53 107 48Q100 41 106 39Q134 35 212 101Q273 155 319 268L331 302Q338 318 347 335Q354 344 348 353Q344 359 331 366L327 368Q294 387 284 383Q272 379 274 365Q281 329 271 289L261 256Z"/>
	<path id="z33620d8" d="M678 267Q718 277 755 280Q774 281 777 276Q786 261 778 225Q762 123 734 80Q715 47 686 53Q656 60 630 70Q606 76 624 54Q672 14 694 -17Q712 -39 730 -23Q781 10 812 114Q843 253 858 272Q871 284 865 294Q858 306 808 329Q789 339 769 327Q750 317 690 304L630 292Q572 283 523 280Q507 280 503 272Q502 265 524 252Q546 236 566 243Q593 250 619 255L678 267Z"/>
	<path id="z33620d9" d="M619 255Q571 138 452 15Q446 11 442 5Q435 -2 442 -5Q475 -11 564 77Q633 140 678 267L690 304Q693 325 715 369Q722 379 715 389Q708 398 676 412Q654 422 645 418Q632 414 635 399Q645 350 632 296Q631 295 630 292L619 255Z"/>
	<defs>
		<clipPath id="z33620c1"><use xlink:href="#z33620d1"/></clipPath>
		<clipPath id="z33620c2"><use xlink:href="#z33620d2"/></clipPath>
		<clipPath id="z33620c3"><use xlink:href="#z33620d3"/></clipPath>
		<clipPath id="z33620c4"><use xlink:href="#z33620d4"/></clipPath>
		<clipPath id="z33620c5"><use xlink:href="#z33620d5"/></clipPath>
		<clipPath id="z33620c6"><use xlink:href="#z33620d6"/></clipPath>
		<clipPath id="z33620c7"><use xlink:href="#z33620d7"/></clipPath>
		<clipPath id="z33620c8"><use xlink:href="#z33620d8"/></clipPath>
		<clipPath id="z33620c9"><use xlink:href="#z33620d9"/></clipPath>
	</defs>
	<path pathLength="2999" clip-path="url(#z33620c1)" d="M160 670L751 725L859 708"/>
	<path pathLength="2999" clip-path="url(#z33620c2)" d="M327 780L380 749L410 607"/>
	<path pathLength="2999" clip-path="url(#z33620c3)" d="M603 851L647 801L588 624"/>
	<path pathLength="2999" clip-path="url(#z33620c4)" d="M298 531L348 522L604 564L625 538L553 381L520 366L462 407"/>
	<path pathLength="2999" clip-path="url(#z33620c5)" d="M464 642L490 604L458 512L335 372"/>
	<path pathLength="2999" clip-path="url(#z33620c6)" d="M124 261L173 254L397 301L433 277L361 61L322 45L256 104"/>
	<path pathLength="2999" clip-path="url(#z33620c7)" d="M283 378L314 342L272 223L198 115L114 44"/>
	<path pathLength="2999" clip-path="url(#z33620c8)" d="M510 272L557 262L774 306L823 279L778 103L735 29L697 13L624 67"/>
	<path pathLength="2999" clip-path="url(#z33620c9)" d="M644 411L678 373L636 229L552 96L448 1"/>
</g>
</svg>