<!--
AnimCJK 2016-2019 Copyright Francois Mizessyn - https://github.com/parsimonhi/animCJK
Derived from:
    MakeMeAHanzi project - https://github.com/skishore/makemeahanzi
    Arphic PL KaitiM GB font
    Arphic PL UKai font
You can redistribute and/or modify this file under the terms of the Arphic Public License
as published by Arphic Technology Co., Ltd.
You should have received a copy of this license along with this file.
If not, see http://ftp.gnu.org/non-gnu/chinese-fonts-truetype/LICENSE.
-->
<svg id="z33659" class="acjk" version="1.1" viewBox="0 0 1024 1024" xmlns="http://www.w3.org/2000/svg" xmlns:xlink="http://www.w3.org/1999/xlink">
<style>
<![CDATA[
@keyframes zk {
	to {
		stroke-dashoffset:0;
	}
}
svg.acjk path[clip-path] {
	--t:0.8s;
	animation:zk var(--t) linear forwards var(--d);
	stroke-dasharray:3337;
	stroke-dashoffset:3339;
	stroke-width:128;
	stroke-linecap:round;
	fill:none;
	stroke:#000;
}
svg.acjk path[id] {fill:#ccc;}
]]>
</style>
<path id="z33659d1" d="M635 240Q722 233 816 239Q832 240 839 230Q843 218 830 203Q776 158 676 182Q666 183 657 186C619 192 619 192 600 195Q527 205 446 217C414 221 414 221 398 223Q316 230 225 241Q194 244 215 260Q257 290 348 273Q376 266 408 261C436 256 436 256 450 254Q456 248 589 242C620 241 620 241 635 240Z"/>
<path id="z33659d2" d="M446 217Q442 180 440 151Q441 132 421 126Q381 108 359 116Q341 125 357 144Q387 177 398 223C405 248 405 248 408 261Q423 312 435 325Q448 335 453 323Q456 311 450 254C447 229 447 229 446 217Z"/>
<path id="z33659d3" d="M657 186Q666 164 682 135Q695 120 685 110Q673 94 638 77Q622 67 604 76Q594 83 602 94Q614 116 600 195C593 226 593 226 589 242Q573 305 574 317Q575 330 591 319Q606 306 635 240C650 204 650 204 657 186Z"/>
<path id="z33659d4" d="M344 478Q380 438 413 406Q425 396 414 380Q383 341 358 341Q348 341 347 354Q344 396 312 444C305 456 298 468 287 476Q278 483 270 494Q236 531 195 558Q161 580 143 593Q133 606 147 604Q166 605 195 590Q264 556 315 508C334 488 334 488 344 478Z"/>
<path id="z33659d5" d="M346 625Q355 742 324 826Q320 839 310 843Q294 846 249 832Q221 822 217 828Q214 834 223 845Q266 879 294 911Q312 936 321 935Q342 931 370 871Q425 730 373 541Q364 513 353 491Q349 484 344 478C323 455 323 455 312 444Q279 417 211 400Q196 396 196 408Q196 421 207 436Q220 451 236 449Q263 456 287 476C298 485 310 495 315 508Q314 508 315 509Q325 530 332 553C341 601 341 601 346 625Z"/>
<path id="z33659d6" d="M332 553Q331 554 328 559Q267 680 92 802Q79 812 88 815Q95 819 108 815Q216 781 320 656Q336 635 346 625C363 608 347 533 332 553Z"/>
<path id="z33659d7" d="M441 532Q462 577 491 606Q504 612 516 602Q523 592 526 577Q523 537 462 500Q449 493 439 493Q433 493 432 504Q431 514 441 532Z"/>
<path id="z33659d8" d="M743 452Q734 467 670 550Q660 566 678 563Q721 539 747 521Q813 476 827 470Q848 460 837 442Q824 426 798 412Q776 399 762 401Q750 402 754 416Q757 434 743 452Z"/>
<path id="z33659d9" d="M616 611Q629 544 637 446Q641 427 643 415Q650 396 630 385Q584 360 568 362Q549 365 563 387Q594 441 565 625Q555 674 529 732Q496 801 424 861Q411 874 407 880Q404 887 416 887Q453 887 519 823Q585 757 607 655C613 626 613 626 616 611Z"/>
<path id="z33659d10" d="M607 655Q662 749 732 853Q748 872 775 874Q871 880 901 877Q911 876 912 871Q913 867 901 859Q769 790 703 715Q661 667 616 611C605 600 598 643 607 655Z"/>
<defs>
	<clipPath id="z33659c1"><use xlink:href="#z33659d1"/></clipPath>
	<clipPath id="z33659c2"><use xlink:href="#z33659d2"/></clipPath>
	<clipPath id="z33659c3"><use xlink:href="#z33659d3"/></clipPath>
	<clipPath id="z33659c4"><use xlink:href="#z33659d4"/></clipPath>
	<clipPath id="z33659c5"><use xlink:href="#z33659d5"/></clipPath>
	<clipPath id="z33659c6"><use xlink:href="#z33659d6"/></clipPath>
	<clipPath id="z33659c7"><use xlink:href="#z33659d7"/></clipPath>
	<clipPath id="z33659c8"><use xlink:href="#z33659d8"/></clipPath>
	<clipPath id="z33659c9"><use xlink:href="#z33659d9"/></clipPath>
	<clipPath id="z33659c10"><use xlink:href="#z33659d10"/></clipPath>
</defs>
<path style="--d:1s;" pathLength="3333" clip-path="url(#z33659c1)" d="M217 251L725 205L835 217"/>
<path style="--d:2s;" pathLength="3333" clip-path="url(#z33659c2)" d="M353 124L408 156L443 321"/>
<path style="--d:3s;" pathLength="3333" clip-path="url(#z33659c3)" d="M605 81L647 129L583 319"/>
<path style="--d:4s;" pathLength="3333" clip-path="url(#z33659c4)" d="M359 345L378 395L327 463L235 549L148 596"/>
<path style="--d:5s;" pathLength="3333" clip-path="url(#z33659c5)" d="M201 410L332 497L372 666L336 869L310 888L223 832"/>
<path style="--d:6s;" pathLength="3333" clip-path="url(#z33659c6)" d="M330 565L322 615L251 699L94 811"/>
<path style="--d:7s;" pathLength="3333" clip-path="url(#z33659c7)" d="M441 500L506 602"/>
<path style="--d:8s;" pathLength="3333" clip-path="url(#z33659c8)" d="M763 410L790 456L674 554"/>
<path style="--d:9s;" pathLength="3333" clip-path="url(#z33659c9)" d="M563 369L609 415L579 669L512 800L413 880"/>
<path style="--d:10s;" pathLength="3333" clip-path="url(#z33659c10)" d="M618 623L760 822L903 869"/>
</svg>