<!--
AnimCJK 2016-2018 Copyright Francois Mizessyn - https://github.com/parsimonhi/animCJK
Derived from:
    MakeMeAHanzi project - https://github.com/skishore/makemeahanzi
    Arphic PL KaitiM GB - https://apps.ubuntu.com/cat/applications/precise/fonts-arphic-gkai00mp/
    Arphic PL UKai - https://apps.ubuntu.com/cat/applications/fonts-arphic-ukai/
You can redistribute and/or modify this file under the terms of the Arphic Public License
as published by Arphic Technology Co., Ltd.
You should have received a copy of this license (the directory "APL") along with this file;
if not, see http://ftp.gnu.org/non-gnu/chinese-fonts-truetype/LICENSE.
-->
<svg id="z33696" class="acjk" version="1.1" viewBox="0 0 1024 1024" xmlns="http://www.w3.org/2000/svg" xmlns:xlink="http://www.w3.org/1999/xlink">
<style>
<![CDATA[
@keyframes z33696k {
	from {
		stroke:#c00;
		stroke-dashoffset:3334;
	}
	75% {
		stroke:#c00;
		stroke-dashoffset:0;
	}
	to {
		stroke:#000;
	}
}
#z33696 path[clip-path] {
	animation:z33696k 1s linear both;
	stroke-dasharray:3334;
	stroke-width:128;
	stroke-linecap:round;
	fill:none;
}
#z33696 path[clip-path="url(#z33696c1)"] {animation-delay:1s;}
#z33696 path[clip-path="url(#z33696c2)"] {animation-delay:2s;}
#z33696 path[clip-path="url(#z33696c3)"] {animation-delay:3s;}
#z33696 path[clip-path="url(#z33696c4)"] {animation-delay:4s;}
#z33696 path[clip-path="url(#z33696c5)"] {animation-delay:5s;}
#z33696 path[clip-path="url(#z33696c6)"] {animation-delay:6s;}
#z33696 path[clip-path="url(#z33696c7)"] {animation-delay:7s;}
#z33696 path[clip-path="url(#z33696c8)"] {animation-delay:8s;}
#z33696 path[clip-path="url(#z33696c9)"] {animation-delay:9s;}
#z33696 path[clip-path="url(#z33696c10)"] {animation-delay:10s;}
#z33696 path {fill:#ccc;}
]]>
</style>
<path id="z33696d1" d="M612 191Q708 182 798 191Q813 192 818 183Q822 173 811 158Q763 115 679 136Q657 139 636 143L583 151Q507 160 421 171L376 176Q295 183 207 191Q179 194 198 209Q241 236 294 228Q340 216 385 209L424 203Q431 194 573 192L612 191 Z"/>
<path id="z33696d2" d="M421 171Q418 140 417 116Q418 98 399 93Q363 75 342 83Q326 90 340 109Q365 137 375 172Q375 173 376 176L385 209Q395 248 408 261Q420 271 424 260Q430 239 424 203L421 171 Z"/>
<path id="z33696d3" d="M636 143Q640 128 659 104Q672 91 663 81Q653 65 620 48Q605 38 589 46Q579 52 586 62Q595 81 583 151L573 192Q567 216 567 229Q568 242 583 232Q595 223 612 191L636 143 Z"/>
<path id="z33696d4" d="M498 313Q523 300 584 297Q599 298 602 292Q606 285 598 273Q555 230 524 229Q518 230 516 240Q510 276 310 334Q304 341 309 344Q319 347 459 323L498 313 Z"/>
<path id="z33696d5" d="M540 415Q579 411 756 411Q774 411 778 403Q784 393 769 380Q715 344 680 355Q617 365 522 381L473 387Q361 400 227 416Q208 417 222 433Q235 446 251 451Q270 455 284 452Q354 433 434 425L540 415 Z"/>
<path id="z33696d6" d="M522 381Q523 368 534 350Q538 343 529 331Q514 319 498 313L459 323Q472 344 473 387L474 458Q471 530 482 553L483 555Q490 568 503 561Q512 554 512 493Q512 459 515 428L522 381 Z"/>
<path id="z33696d7" d="M434 425Q427 440 408 457Q353 515 294 550Q245 583 148 626Q129 635 144 639Q154 643 195 634Q246 627 296 601Q395 550 460 474Q467 464 474 458L473 422L434 425 Z"/>
<path id="z33696d8" d="M515 428Q615 519 723 601Q748 620 785 617Q854 613 922 590Q940 586 941 581Q942 574 927 570Q752 528 725 517Q665 495 540 415L516 418L515 428 Z"/>
<path id="z33696d9" d="M432 635Q498 613 550 604Q563 601 566 606Q570 610 565 622Q538 676 513 695Q504 702 506 714Q509 733 518 740Q528 747 540 739Q586 715 631 714Q653 713 660 722Q678 755 630 850Q623 865 609 868Q597 871 515 853Q488 844 511 868Q548 907 575 940Q587 959 605 952Q653 934 683 865Q717 766 735 749Q751 736 741 723Q731 711 695 689Q676 680 655 686Q597 698 582 695Q566 689 581 673Q615 625 641 612Q666 600 660 589Q657 579 610 555Q595 546 579 554Q525 582 320 619Q311 618 309 624Q308 631 332 647Q357 663 383 650Q387 649 394 647L432 635 Z"/>
<path id="z33696d10" d="M394 647Q394 773 205 908Q198 914 203 917Q230 927 308 874Q380 829 439 716Q449 698 462 680Q469 673 465 663Q461 653 434 635Q433 634 432 635L394 647 Z"/>
<defs>
	<clipPath id="z33696c1"><use xlink:href="#z33696d1"/></clipPath>
	<clipPath id="z33696c2"><use xlink:href="#z33696d2"/></clipPath>
	<clipPath id="z33696c3"><use xlink:href="#z33696d3"/></clipPath>
	<clipPath id="z33696c4"><use xlink:href="#z33696d4"/></clipPath>
	<clipPath id="z33696c5"><use xlink:href="#z33696d5"/></clipPath>
	<clipPath id="z33696c6"><use xlink:href="#z33696d6"/></clipPath>
	<clipPath id="z33696c7"><use xlink:href="#z33696d7"/></clipPath>
	<clipPath id="z33696c8"><use xlink:href="#z33696d8"/></clipPath>
	<clipPath id="z33696c9"><use xlink:href="#z33696d9"/></clipPath>
	<clipPath id="z33696c10"><use xlink:href="#z33696d10"/></clipPath>
</defs>
<path pathLength="3333" clip-path="url(#z33696c1)" d="M199 201L712 158L816 174"/>
<path pathLength="3333" clip-path="url(#z33696c2)" d="M340 92L388 121L415 259"/>
<path pathLength="3333" clip-path="url(#z33696c3)" d="M591 52L628 92L574 228"/>
<path pathLength="3333" clip-path="url(#z33696c4)" d="M595 287L533 265L315 337"/>
<path pathLength="3333" clip-path="url(#z33696c5)" d="M225 423L685 382L775 393"/>
<path pathLength="3333" clip-path="url(#z33696c6)" d="M467 327L503 356L491 557"/>
<path pathLength="3333" clip-path="url(#z33696c7)" d="M468 428L339 549L149 635"/>
<path pathLength="3333" clip-path="url(#z33696c8)" d="M524 423L752 570L934 582"/>
<path pathLength="3333" clip-path="url(#z33696c9)" d="M315 624L367 632L579 578L606 591L548 713L661 701L703 743L651 869L610 908L509 857"/>
<path pathLength="3333" clip-path="url(#z33696c10)" d="M398 651L427 680L377 773L213 911"/>
</svg>