<!--
AnimCJK 2016-2018 Copyright Francois Mizessyn, https://github.com/parsimonhi/animCJK
Derived from:
    MakeMeAHanzi project - https://github.com/skishore/makemeahanzi
    Arphic PL KaitiM GB - https://apps.ubuntu.com/cat/applications/precise/fonts-arphic-gkai00mp/
    Arphic PL UKai - https://apps.ubuntu.com/cat/applications/fonts-arphic-ukai/
You can redistribute and/or modify this file under the terms of the Arphic Public License
as published by Arphic Technology Co., Ltd.
You should have received a copy of this license (the directory "APL") along with this file;
if not, see http://ftp.gnu.org/non-gnu/chinese-fonts-truetype/LICENSE.
-->
<svg id="z33707" class="acjk" version="1.1" viewBox="0 0 1024 1024" xmlns="http://www.w3.org/2000/svg" xmlns:xlink="http://www.w3.org/1999/xlink">
<style>
<![CDATA[
@keyframes z33707k {
	from {
		stroke:#c00;
		stroke-dashoffset:3334;
	}
	75% {
		stroke:#c00;
		stroke-dashoffset:0;
	}
	to {
		stroke:#000;
	}
}
#z33707 path[clip-path] {
	animation:z33707k 1s linear both;
	stroke-dasharray:3334;
	stroke-width:128;
	stroke-linecap:round;
	fill:none;
}
#z33707 path[clip-path="url(#z33707c1)"] {animation-delay:1s;}
#z33707 path[clip-path="url(#z33707c2)"] {animation-delay:2s;}
#z33707 path[clip-path="url(#z33707c3)"] {animation-delay:3s;}
#z33707 path[clip-path="url(#z33707c4)"] {animation-delay:4s;}
#z33707 path[clip-path="url(#z33707c5)"] {animation-delay:5s;}
#z33707 path[clip-path="url(#z33707c6)"] {animation-delay:6s;}
#z33707 path[clip-path="url(#z33707c7)"] {animation-delay:7s;}
#z33707 path[clip-path="url(#z33707c8)"] {animation-delay:8s;}
#z33707 path[clip-path="url(#z33707c9)"] {animation-delay:9s;}
#z33707 path[clip-path="url(#z33707c10)"] {animation-delay:10s;}
#z33707 path {fill:#ccc;}
]]>
</style>
<path id="z33707d1" d="M631 206Q698 194 800 202Q815 203 819 194Q823 184 811 170Q766 130 662 157Q653 157 647 160L589 169Q511 181 423 195L372 202Q296 209 214 220Q186 223 205 237Q244 262 298 253Q338 241 380 233L425 225Q449 216 581 209L631 206 Z"/>
<path id="z33707d2" d="M423 195Q422 171 422 152Q423 133 404 127Q365 106 343 114Q324 123 339 142Q361 170 372 202L380 233Q392 296 408 312Q421 322 425 311Q429 296 425 225L423 195 Z"/>
<path id="z33707d3" d="M647 160Q654 139 668 115Q681 99 671 90Q658 74 622 57Q606 48 588 58Q578 65 587 76Q599 100 589 169L581 209Q563 281 566 301Q567 314 583 303Q598 290 631 206L647 160 Z"/>
<path id="z33707d4" d="M310 365Q297 358 280 355Q274 354 270 358Q263 364 272 373Q303 412 321 529Q327 586 362 605L363 606Q378 607 378 585L375 559Q372 541 365 521Q362 506 359 490L354 467Q348 428 344 394L310 365 Z"/>
<path id="z33707d5" d="M589 564Q608 594 624 603Q634 612 651 590Q666 568 699 443Q709 412 733 387Q746 375 735 360Q720 342 678 315Q662 306 578 322Q506 331 421 347Q360 357 310 365L344 394Q432 372 589 353Q626 349 637 361Q649 374 646 390Q619 528 600 539L589 564 Z"/>
<path id="z33707d6" d="M359 490Q362 490 563 463Q585 459 577 447Q567 434 543 429Q521 425 482 435Q412 453 354 467L359 490 Z"/>
<path id="z33707d7" d="M471 576Q532 569 589 564L600 539Q594 535 584 532Q565 528 529 534Q447 547 375 559L378 585Q387 585 418 582L471 576 Z"/>
<path id="z33707d8" d="M503 692Q578 685 888 684Q909 684 915 675Q921 662 903 647Q842 601 775 619Q666 637 496 660Q492 660 490 661L431 668Q280 683 114 701Q92 702 108 721Q141 754 182 744Q297 714 426 701L503 692 Z"/>
<path id="z33707d9" d="M490 661Q494 625 505 612Q512 605 506 595Q500 588 471 576L418 582Q437 601 431 668L426 701Q398 809 316 857Q277 885 174 923Q149 933 177 936Q262 939 368 876Q383 864 398 850Q452 795 479 704L490 661 Z"/>
<path id="z33707d10" d="M479 704Q570 819 671 925Q695 950 736 953Q811 960 889 947Q908 946 911 940Q914 933 898 926Q712 850 706 846Q621 801 503 692L481 695L479 704 Z"/>
<defs>
	<clipPath id="z33707c1"><use xlink:href="#z33707d1"/></clipPath>
	<clipPath id="z33707c2"><use xlink:href="#z33707d2"/></clipPath>
	<clipPath id="z33707c3"><use xlink:href="#z33707d3"/></clipPath>
	<clipPath id="z33707c4"><use xlink:href="#z33707d4"/></clipPath>
	<clipPath id="z33707c5"><use xlink:href="#z33707d5"/></clipPath>
	<clipPath id="z33707c6"><use xlink:href="#z33707d6"/></clipPath>
	<clipPath id="z33707c7"><use xlink:href="#z33707d7"/></clipPath>
	<clipPath id="z33707c8"><use xlink:href="#z33707d8"/></clipPath>
	<clipPath id="z33707c9"><use xlink:href="#z33707d9"/></clipPath>
	<clipPath id="z33707c10"><use xlink:href="#z33707d10"/></clipPath>
</defs>
<path pathLength="3333" clip-path="url(#z33707c1)" d="M203 227L282 233L717 173L814 190"/>
<path pathLength="3333" clip-path="url(#z33707c2)" d="M339 126L390 157L413 312"/>
<path pathLength="3333" clip-path="url(#z33707c3)" d="M589 62L633 110L574 303"/>
<path pathLength="3333" clip-path="url(#z33707c4)" d="M274 362L319 406L361 601"/>
<path pathLength="3333" clip-path="url(#z33707c5)" d="M319 366L627 333L671 349L692 384L610 590"/>
<path pathLength="3333" clip-path="url(#z33707c6)" d="M361 473L571 451"/>
<path pathLength="3333" clip-path="url(#z33707c7)" d="M382 566L595 547"/>
<path pathLength="3333" clip-path="url(#z33707c8)" d="M107 708L163 721L794 649L912 664"/>
<path pathLength="3333" clip-path="url(#z33707c9)" d="M428 587L470 619L400 812L297 891L171 929"/>
<path pathLength="3333" clip-path="url(#z33707c10)" d="M488 701L700 894L902 934"/>
</svg>