<!--
AnimCJK 2016-2019 Copyright Francois Mizessyn - https://github.com/parsimonhi/animCJK
Derived from:
    MakeMeAHanzi project - https://github.com/skishore/makemeahanzi
    Arphic PL KaitiM GB font
    Arphic PL UKai font
You can redistribute and/or modify this file under the terms of the Arphic Public License
as published by Arphic Technology Co., Ltd.
You should have received a copy of this license along with this file.
If not, see http://ftp.gnu.org/non-gnu/chinese-fonts-truetype/LICENSE.
-->
<svg id="z33722" class="acjk" version="1.1" viewBox="0 0 1024 1024" xmlns="http://www.w3.org/2000/svg" xmlns:xlink="http://www.w3.org/1999/xlink">
<style>
<![CDATA[
@keyframes zk {
	to {
		stroke-dashoffset:0;
	}
}
svg.acjk path[clip-path] {
	--t:0.8s;
	animation:zk var(--t) linear forwards var(--d);
	stroke-dasharray:3337;
	stroke-dashoffset:3339;
	stroke-width:128;
	stroke-linecap:round;
	fill:none;
	stroke:#000;
}
svg.acjk path[id] {fill:#ccc;}
]]>
</style>
<path id="z33722d1" d="M606 198C666 195 723 193 778 199C788 199 795 197 798 191C801 184 799 174 791 166C745 121 669 144 627 150C591 155 591 155 573 157C528 162 481 168 431 174C399 177 399 177 383 179C338 183 291 185 243 191C224 193 220 200 234 209C263 228 305 232 355 222C367 219 379 217 392 216C419 212 419 212 433 210C449 207 492 203 562 200C591 199 591 199 606 198Z"/>
<path id="z33722d2" d="M431 174C430 157 429 141 429 127C429 114 423 106 411 102C382 90 363 85 352 90C341 94 339 104 349 117C364 136 377 156 383 179C389 204 389 204 392 216C399 246 403 269 416 281C423 288 430 287 433 280C436 269 435 246 433 210C432 186 432 186 431 174Z"/>
<path id="z33722d3" d="M627 150C632 138 639 122 651 108C658 98 660 92 655 85C647 74 633 64 612 52C601 46 591 44 581 50C574 53 574 58 578 66C585 80 584 111 573 157C566 186 566 186 562 200C553 232 546 253 547 265C547 273 553 275 563 268C574 259 589 236 606 198C620 166 620 166 627 150Z"/>
<path id="z33722d4" d="M255 332C247 319 239 310 233 305C220 296 212 300 213 317C213 331 211 351 198 377C174 422 148 447 147 456C144 470 147 490 163 517C172 533 185 533 198 515C203 506 222 457 256 367C260 356 262 341 255 332Z"/>
<path id="z33722d5" d="M452 338C500 329 561 320 637 312C687 306 719 301 731 307C744 313 747 322 746 328C745 328 738 353 721 401C717 410 716 415 721 419C725 421 733 418 746 410C781 385 815 369 845 360C869 352 881 344 881 339C880 332 854 310 804 274C787 262 756 263 707 270C621 281 505 295 359 319C324 324 289 328 255 332C244 334 245 363 256 367C270 373 286 376 303 372C338 362 374 352 413 345C439 340 439 340 452 338Z"/>
<path id="z33722d6" d="M398 434C428 406 452 386 468 375C476 371 479 366 477 362C473 354 464 346 452 338C441 331 413 332 413 345C415 355 403 384 377 432C375 436 395 436 398 434Z"/>
<path id="z33722d7" d="M585 644C599 624 610 587 619 535C627 478 634 446 642 439C648 432 651 424 647 418C642 410 626 400 604 388C596 383 576 382 548 393C531 399 434 428 398 434C391 435 384 432 377 432C363 430 381 471 395 471C399 471 405 470 412 468C438 457 484 442 553 426C559 424 564 426 569 428C575 430 578 437 578 448C577 474 572 509 563 555C559 571 551 579 535 577C514 574 495 570 477 568C468 566 465 569 467 575C468 580 477 588 495 601C514 614 529 632 543 650C552 661 577 655 585 644Z"/>
<path id="z33722d8" d="M432 508Q474 550 490 548Q500 548 503 534Q503 524 495 510Q477 489 433 488Q426 487 426 496Q426 502 432 508Z"/>
<path id="z33722d9" d="M377 726C394 713 421 705 455 698C527 681 600 670 676 666C696 664 710 665 719 674C727 681 720 727 702 810C696 832 689 850 679 865C672 874 659 879 640 877C621 874 602 872 585 869C574 867 570 868 571 873C571 877 574 881 580 886C614 915 639 941 652 963C658 975 666 978 678 971C713 948 735 922 743 891C753 848 763 803 773 755C777 730 785 707 799 687C806 675 808 667 801 659C788 645 771 630 747 617C733 608 716 609 698 617C670 627 632 637 585 644C557 648 557 648 543 650C507 655 463 661 411 672C394 675 385 669 385 656C384 552 388 490 395 471C400 458 388 441 377 432C370 426 361 420 350 417C337 412 328 414 323 420C319 423 319 428 325 437C339 461 343 530 335 642C333 656 330 671 328 687C325 701 327 713 338 723C351 734 364 734 377 726Z"/>
<path id="z33722d10" d="M416 822C434 820 453 819 472 817C511 812 562 812 622 816C634 816 643 815 646 811C650 803 648 795 642 790C625 775 605 758 579 753C561 749 455 769 405 776C274 793 202 803 187 804C179 804 175 807 175 813C174 819 179 827 190 835C199 842 213 848 231 854C237 856 244 853 255 850C289 837 343 827 416 822Z"/>
<defs>
	<clipPath id="z33722c1"><use xlink:href="#z33722d1"/></clipPath>
	<clipPath id="z33722c2"><use xlink:href="#z33722d2"/></clipPath>
	<clipPath id="z33722c3"><use xlink:href="#z33722d3"/></clipPath>
	<clipPath id="z33722c4"><use xlink:href="#z33722d4"/></clipPath>
	<clipPath id="z33722c5"><use xlink:href="#z33722d5"/></clipPath>
	<clipPath id="z33722c6"><use xlink:href="#z33722d6"/></clipPath>
	<clipPath id="z33722c7"><use xlink:href="#z33722d7"/></clipPath>
	<clipPath id="z33722c8"><use xlink:href="#z33722d8"/></clipPath>
	<clipPath id="z33722c9"><use xlink:href="#z33722d9"/></clipPath>
	<clipPath id="z33722c10"><use xlink:href="#z33722d10"/></clipPath>
</defs>
<path style="--d:1s;" pathLength="3333" clip-path="url(#z33722c1)" d="M232 199L685 166L794 184"/>
<path style="--d:2s;" pathLength="3333" clip-path="url(#z33722c2)" d="M351 101L398 132L424 281"/>
<path style="--d:3s;" pathLength="3333" clip-path="url(#z33722c3)" d="M583 57L619 100L554 263"/>
<path style="--d:4s;" pathLength="3333" clip-path="url(#z33722c4)" d="M221 311L231 362L171 522"/>
<path style="--d:5s;" pathLength="3333" clip-path="url(#z33722c5)" d="M261 335L302 349L753 287L799 317L827 351L724 415"/>
<path style="--d:6s;" pathLength="3333" clip-path="url(#z33722c6)" d="M423 348L441 368L385 427"/>
<path style="--d:7s;" pathLength="3333" clip-path="url(#z33722c7)" d="M386 438L409 449L569 407L613 430L568 608L473 576"/>
<path style="--d:8s;" pathLength="3333" clip-path="url(#z33722c8)" d="M432 495L499 536"/>
<path style="--d:9s;" pathLength="3333" clip-path="url(#z33722c9)" d="M329 425L365 476L370 699L706 639L762 673L691 909L664 926L581 873"/>
<path style="--d:10s;" pathLength="3333" clip-path="url(#z33722c10)" d="M179 812L232 827L535 786L643 794"/>
</svg>