<!--
AnimCJK 2016-2025 Copyright FM-SH - https://github.com/parsimonhi/animCJK
Derived from:
    MakeMeAHanzi project - https://github.com/skishore/makemeahanzi
    Arphic PL KaitiM GB font
    Arphic PL UKai font
You can redistribute and/or modify this file under the terms of the Arphic Public License
as published by Arphic Technology Co., Ltd.
You should have received a copy of this license along with this file.
If not, see https://ftp.gnu.org/non-gnu/chinese-fonts-truetype/LICENSE.
-->
<svg id="z33744" class="acjk" viewBox="0 0 1024 1024" xmlns="http://www.w3.org/2000/svg">
<style>
<![CDATA[
@keyframes zk {
	to {
		stroke-dashoffset:0;
	}
}
svg.acjk path[clip-path] {
	--t:0.8s;
	animation:zk var(--t) linear forwards var(--d);
	stroke-dasharray:3337;
	stroke-dashoffset:3339;
	stroke-width:128;
	stroke-linecap:round;
	fill:none;
	stroke:#000;
}
svg.acjk path[id] {fill:#ccc;}
]]>
</style>
<path id="z33744d1" d="M446 317C444 248 444 206 447 189C448 175 444 164 435 157C419 147 403 139 384 133C375 131 367 131 361 135C356 139 356 145 360 155C371 170 379 187 384 203C387 220 394 260 404 325C407 339 446 331 446 317Z"/>
<path id="z33744d2" d="M596 290C612 194 626 134 638 110C641 104 636 96 625 87C604 75 586 68 571 65C561 62 554 64 548 68C543 72 543 79 547 87C557 100 561 111 561 121C561 176 559 235 554 298C554 312 593 304 596 290Z"/>
<path id="z33744d3" d="M250 285C283 311 302 327 311 326C319 326 324 322 327 314C330 305 329 293 324 276C321 268 311 259 295 254C258 241 233 237 224 242C221 244 220 250 221 257C222 264 234 272 250 285Z"/>
<path id="z33744d4" d="M715 158C708 170 691 196 664 236C658 246 663 252 673 247C723 224 754 191 801 168C815 161 819 152 810 142C801 132 786 124 768 116C752 110 739 109 730 110C723 111 721 116 724 124C727 135 722 146 715 158Z"/>
<path id="z33744d5" d="M601 330C682 318 743 316 805 314C843 312 866 306 870 299C875 291 870 282 858 275C820 251 779 248 733 260C700 269 640 282 596 290C568 295 568 295 554 298C519 305 482 311 446 317C418 322 418 322 404 325C357 333 243 353 195 362C181 365 178 371 189 380C209 396 237 406 261 399C340 376 500 346 564 336C589 332 589 332 601 330Z"/>
<path id="z33744d6" d="M375 407C398 449 417 465 433 468C440 470 449 468 455 457C458 451 458 440 453 427C445 408 421 397 384 385C379 383 376 385 373 391C371 396 372 401 375 407Z"/>
<path id="z33744d7" d="M569 453C636 350 668 374 601 330C590 324 562 324 564 336C570 382 548 425 530 462C523 473 561 464 569 453Z"/>
<path id="z33744d8" d="M491 507C538 499 610 486 687 477C715 474 715 457 686 446C664 437 615 443 569 453C543 459 543 459 530 462C460 477 383 486 327 494C309 496 307 506 320 515C342 529 361 533 377 528C395 523 425 519 446 515C476 510 476 510 491 507Z"/>
<path id="z33744d9" d="M523 614C568 607 621 598 661 594C679 591 685 584 679 575C671 565 659 556 640 553C616 549 574 558 532 567C484 577 484 577 460 582C413 592 358 602 314 610C302 613 303 621 317 631C326 638 343 642 365 638C393 634 430 628 458 624C501 617 501 617 523 614Z"/>
<path id="z33744d10" d="M524 709C573 702 721 686 846 683C860 683 869 681 872 675C875 668 872 659 861 651C826 627 795 616 768 622C714 634 600 656 509 670C468 676 468 676 448 679C381 689 241 712 169 722C155 724 153 735 163 744C172 753 184 759 196 762C210 765 223 764 235 761C275 750 389 726 435 720C494 713 494 713 524 709Z"/>
<path id="z33744d11" d="M509 670C514 651 519 637 523 614C529 583 529 583 532 567C540 523 552 526 491 507C477 501 441 501 446 515C456 545 461 565 460 582C459 610 459 610 458 624C457 646 454 661 448 679C439 706 439 706 435 720C413 788 303 848 184 902C145 919 181 924 206 919C342 891 468 823 496 719C505 686 505 686 509 670Z"/>
<path id="z33744d12" d="M496 719C619 856 671 914 700 914C746 914 818 912 880 900C898 897 887 886 877 882C752 840 676 825 524 709C508 697 484 703 496 719Z"/>
<defs>
	<clipPath id="z33744c1"><use href="#z33744d1"/></clipPath>
	<clipPath id="z33744c2"><use href="#z33744d2"/></clipPath>
	<clipPath id="z33744c3"><use href="#z33744d3"/></clipPath>
	<clipPath id="z33744c4"><use href="#z33744d4"/></clipPath>
	<clipPath id="z33744c5"><use href="#z33744d5"/></clipPath>
	<clipPath id="z33744c6"><use href="#z33744d6"/></clipPath>
	<clipPath id="z33744c7"><use href="#z33744d7"/></clipPath>
	<clipPath id="z33744c8"><use href="#z33744d8"/></clipPath>
	<clipPath id="z33744c9"><use href="#z33744d9"/></clipPath>
	<clipPath id="z33744c10"><use href="#z33744d10"/></clipPath>
	<clipPath id="z33744c11"><use href="#z33744d11"/></clipPath>
	<clipPath id="z33744c12"><use href="#z33744d12"/></clipPath>
</defs>
<path style="--d:1s;" pathLength="3333" clip-path="url(#z33744c1)" d="M365 141L413 184L417 328"/>
<path style="--d:2s;" pathLength="3333" clip-path="url(#z33744c2)" d="M551 72L599 109L566 300"/>
<path style="--d:3s;" pathLength="3333" clip-path="url(#z33744c3)" d="M226 252L324 315"/>
<path style="--d:4s;" pathLength="3333" clip-path="url(#z33744c4)" d="M732 119L762 160L669 242"/>
<path style="--d:5s;" pathLength="3333" clip-path="url(#z33744c5)" d="M190 372L749 286L867 289"/>
<path style="--d:6s;" pathLength="3333" clip-path="url(#z33744c6)" d="M381 392L448 459"/>
<path style="--d:7s;" pathLength="3333" clip-path="url(#z33744c7)" d="M572 333L600 371L539 461"/>
<path style="--d:8s;" pathLength="3333" clip-path="url(#z33744c8)" d="M318 502L702 460"/>
<path style="--d:9s;" pathLength="3333" clip-path="url(#z33744c9)" d="M317 620L674 578"/>
<path style="--d:10s;" pathLength="3333" clip-path="url(#z33744c10)" d="M161 730L211 740L779 653L869 667"/>
<path style="--d:11s;" pathLength="3333" clip-path="url(#z33744c11)" d="M454 517L498 551L443 765L333 852L177 911"/>
<path style="--d:12s;" pathLength="3333" clip-path="url(#z33744c12)" d="M501 712L701 868L881 891"/>
</svg>