<!--
AnimCJK 2016-2019 Copyright Francois Mizessyn - https://github.com/parsimonhi/animCJK
Derived from:
    MakeMeAHanzi project - https://github.com/skishore/makemeahanzi
    Arphic PL KaitiM GB font
    Arphic PL UKai font
You can redistribute and/or modify this file under the terms of the Arphic Public License
as published by Arphic Technology Co., Ltd.
You should have received a copy of this license along with this file.
If not, see http://ftp.gnu.org/non-gnu/chinese-fonts-truetype/LICENSE.
-->
<svg id="z33789" class="acjk" version="1.1" viewBox="0 0 1024 1024" xmlns="http://www.w3.org/2000/svg" xmlns:xlink="http://www.w3.org/1999/xlink">
<style>
<![CDATA[
@keyframes zk {
	to {
		stroke-dashoffset:0;
	}
}
svg.acjk path[clip-path] {
	--t:0.8s;
	animation:zk var(--t) linear forwards var(--d);
	stroke-dasharray:3337;
	stroke-dashoffset:3339;
	stroke-width:128;
	stroke-linecap:round;
	fill:none;
	stroke:#000;
}
svg.acjk path[id] {fill:#ccc;}
]]>
</style>
<path id="z33789d1" d="M633 239Q679 230 795 238Q822 238 826 230Q832 218 818 203Q763 155 660 183Q656 183 652 185C617 190 617 190 599 193Q512 205 416 218C384 221 384 221 368 223Q284 230 193 241Q162 244 183 261Q229 291 287 280Q332 268 376 262C404 257 404 257 418 255Q443 246 588 241C618 240 618 240 633 239Z"/>
<path id="z33789d2" d="M416 218Q413 181 413 153Q416 134 395 127Q356 106 334 113Q316 122 331 141Q359 178 368 223C373 249 373 249 376 262Q385 320 400 336Q413 348 417 336Q423 320 418 255C417 230 417 230 416 218Z"/>
<path id="z33789d3" d="M652 185Q661 158 679 125Q692 110 681 101Q669 85 635 69Q619 60 602 70Q593 76 601 87Q613 114 599 193C592 225 592 225 588 241Q567 308 570 329Q571 342 587 331Q597 322 633 239C646 203 646 203 652 185Z"/>
<path id="z33789d4" d="M368 556Q372 513 376 471C378 452 378 452 379 442Q383 412 386 398Q390 388 392 381Q395 371 376 357Q345 341 322 337Q307 334 300 342Q293 349 301 363Q314 379 316 393Q325 472 328 565C328 579 368 570 368 556Z"/>
<path id="z33789d5" d="M376 471Q395 477 492 452Q495 451 500 450Q515 446 517 444Q524 437 519 430Q512 420 487 416Q478 416 390 438Q384 439 379 442C370 446 366 469 376 471Z"/>
<path id="z33789d6" d="M357 595Q421 582 505 571Q521 570 521 562Q522 550 506 541Q481 531 459 535Q407 545 368 556C341 562 341 562 328 565Q171 595 89 604Q77 605 74 612Q71 622 85 633Q122 660 161 647Q254 617 317 603Q318 602 322 602C345 597 345 597 357 595Z"/>
<path id="z33789d7" d="M322 602Q337 617 332 748Q331 796 325 807Q321 822 295 818Q270 814 243 809Q233 809 231 815Q230 822 240 830Q303 879 323 909Q338 922 348 919Q358 915 371 883Q387 850 385 790Q385 705 387 673Q396 633 378 613Q366 601 357 595C347 588 315 592 322 602Z"/>
<path id="z33789d8" d="M204 683Q180 723 150 759Q129 789 142 823Q148 841 169 830Q218 800 223 740Q230 709 226 685Q222 676 217 675Q208 675 204 683Z"/>
<path id="z33789d9" d="M423 700Q463 737 489 746Q502 747 508 736Q512 726 508 711Q501 692 485 683Q434 658 411 668Q408 668 408 669Q404 670 406 681Q409 690 423 700Z"/>
<path id="z33789d10" d="M717 730Q763 634 782 570Q782 531 810 503Q826 488 806 473Q784 457 750 446Q728 439 707 452Q653 480 578 489Q553 492 541 498Q532 505 550 514Q575 527 614 516Q657 506 699 497Q724 490 723 517Q723 602 678 693C662 719 662 719 654 732Q606 795 479 842Q464 846 475 854Q482 858 510 853Q630 835 686 773C707 744 707 744 717 730Z"/>
<path id="z33789d11" d="M686 773Q729 828 771 876Q786 895 811 894Q946 882 954 870Q958 863 948 860Q809 805 724 736Q720 733 717 730C691 705 691 705 678 693Q635 650 583 593Q573 577 556 576Q534 576 528 583Q527 587 533 592Q567 611 587 643Q621 689 654 732C675 759 675 759 686 773Z"/>
<defs>
	<clipPath id="z33789c1"><use xlink:href="#z33789d1"/></clipPath>
	<clipPath id="z33789c2"><use xlink:href="#z33789d2"/></clipPath>
	<clipPath id="z33789c3"><use xlink:href="#z33789d3"/></clipPath>
	<clipPath id="z33789c4"><use xlink:href="#z33789d4"/></clipPath>
	<clipPath id="z33789c5"><use xlink:href="#z33789d5"/></clipPath>
	<clipPath id="z33789c6"><use xlink:href="#z33789d6"/></clipPath>
	<clipPath id="z33789c7"><use xlink:href="#z33789d7"/></clipPath>
	<clipPath id="z33789c8"><use xlink:href="#z33789d8"/></clipPath>
	<clipPath id="z33789c9"><use xlink:href="#z33789d9"/></clipPath>
	<clipPath id="z33789c10"><use xlink:href="#z33789d10"/></clipPath>
	<clipPath id="z33789c11"><use xlink:href="#z33789d11"/></clipPath>
</defs>
<path style="--d:1s;" pathLength="3333" clip-path="url(#z33789c1)" d="M184 250L281 256L715 203L824 222"/>
<path style="--d:2s;" pathLength="3333" clip-path="url(#z33789c2)" d="M331 126L382 159L406 337"/>
<path style="--d:3s;" pathLength="3333" clip-path="url(#z33789c3)" d="M605 75L645 118L580 331"/>
<path style="--d:4s;" pathLength="3333" clip-path="url(#z33789c4)" d="M304 346L354 387L340 562"/>
<path style="--d:5s;" pathLength="3333" clip-path="url(#z33789c5)" d="M382 464L516 435"/>
<path style="--d:6s;" pathLength="3333" clip-path="url(#z33789c6)" d="M80 612L144 624L517 558"/>
<path style="--d:7s;" pathLength="3333" clip-path="url(#z33789c7)" d="M331 605L360 644L352 833L322 869L236 818"/>
<path style="--d:8s;" pathLength="3333" clip-path="url(#z33789c8)" d="M217 678L154 829"/>
<path style="--d:9s;" pathLength="3333" clip-path="url(#z33789c9)" d="M410 675L504 733"/>
<path style="--d:10s;" pathLength="3333" clip-path="url(#z33789c10)" d="M547 502L727 472L769 502L713 678L659 765L577 818L478 847"/>
<path style="--d:11s;" pathLength="3333" clip-path="url(#z33789c11)" d="M535 584L804 844L947 867"/>
</svg>