<!--
AnimCJK 2016-2026 Copyright FM-SH, https://github.com/parsimonhi/animCJK
Derived from:
    MakeMeAHanzi project - https://github.com/skishore/makemeahanzi
    Arphic PL KaitiM GB font
    Arphic PL KaitiM Big5 font
You can redistribute and/or modify this file under the terms of the Arphic Public License
as published by Arphic Technology Co., Ltd.
You should have received a copy of this license along with this file.
If not, see https://ftp.gnu.org/non-gnu/chinese-fonts-truetype/LICENSE.
-->
<svg id="z33805" class="acjk" viewBox="0 0 1024 1024" xmlns="http://www.w3.org/2000/svg">
<style>
<![CDATA[
@keyframes zk {
	to {
		stroke-dashoffset:0;
	}
}
svg.acjk path[clip-path] {
	--t:0.8s;
	animation:zk var(--t) linear forwards var(--d);
	stroke-dasharray:3337;
	stroke-dashoffset:3339;
	stroke-width:128;
	stroke-linecap:round;
	fill:none;
	stroke:#000;
}
svg.acjk path[id] {fill:#ccc;}
]]>
</style>
<path id="z33805d1" d="M650 183C684 181 739 179 819 185C840 186 850 170 831 153C783 109 719 132 666 141C628 147 628 147 609 150C555 158 498 165 439 173C409 177 409 177 394 179C339 186 282 189 222 196C203 198 200 203 214 213C239 231 279 235 332 223C354 217 377 212 401 209C428 205 428 205 442 203C446 202 499 189 602 185C634 184 634 184 650 183Z"/>
<path id="z33805d2" d="M439 173C437 155 436 138 436 124C435 111 430 105 419 101C393 90 374 84 362 90C350 94 350 104 360 116C375 134 388 155 394 179C399 199 399 199 401 209C409 246 417 271 428 281C435 288 441 287 444 280C446 273 446 247 442 203C440 183 440 183 439 173Z"/>
<path id="z33805d3" d="M666 141C670 128 677 113 689 98C696 87 698 80 692 73C683 62 668 51 647 40C627 29 602 39 612 56C621 73 617 105 609 150C604 173 604 173 602 185C591 236 578 270 579 281C579 289 585 291 595 284C602 278 626 244 650 183C661 155 661 155 666 141Z"/>
<path id="z33805d4" d="M263 361C277 375 293 391 310 410C314 415 341 438 353 411C356 402 355 387 351 368C348 355 337 344 319 336C278 317 251 308 240 313C236 314 234 321 236 329C236 335 247 345 263 361Z"/>
<path id="z33805d5" d="M156 478C188 515 212 541 233 548C250 553 263 533 260 512C254 481 223 460 170 444C167 443 154 437 145 441C141 442 139 445 141 453C141 459 147 467 156 478Z"/>
<path id="z33805d6" d="M163 745C155 748 150 753 152 765C159 815 174 841 193 854C198 857 215 863 220 833C222 814 257 730 327 575C334 557 340 522 307 568C284 600 249 650 201 711C191 722 180 735 163 745Z"/>
<path id="z33805d7" d="M603 365C708 343 754 333 763 326C779 312 758 298 734 293C716 288 676 300 615 319C566 333 521 337 480 342C457 344 454 353 471 363C494 376 522 381 553 375C586 368 586 368 603 365Z"/>
<path id="z33805d8" d="M429 479C442 494 455 512 470 531C478 541 498 554 509 535C513 527 513 514 511 496C509 484 501 471 484 462C444 440 419 430 412 433C408 433 407 439 407 447C407 453 415 463 429 479Z"/>
<path id="z33805d9" d="M674 507C666 516 670 524 680 519C733 488 794 436 819 424C850 407 806 380 792 373C763 357 753 362 753 378C751 420 710 461 674 507Z"/>
<path id="z33805d10" d="M629 629C659 625 754 623 917 624C954 624 946 601 932 590C898 562 868 552 842 558C789 568 718 581 629 592C594 596 594 596 577 598C507 606 432 613 353 622C339 623 336 629 347 641C368 666 403 666 416 663C466 650 519 641 576 635C611 631 611 631 629 629Z"/>
<path id="z33805d11" d="M574 939C588 1011 612 972 620 911C627 841 629 728 629 629C629 604 629 604 629 592C629 509 635 448 643 409C647 384 622 373 603 365C587 359 544 360 553 375C587 429 578 534 577 598C576 623 576 623 576 635C571 809 568 911 574 939Z"/>
<defs>
	<clipPath id="z33805c1"><use href="#z33805d1"/></clipPath>
	<clipPath id="z33805c2"><use href="#z33805d2"/></clipPath>
	<clipPath id="z33805c3"><use href="#z33805d3"/></clipPath>
	<clipPath id="z33805c4"><use href="#z33805d4"/></clipPath>
	<clipPath id="z33805c5"><use href="#z33805d5"/></clipPath>
	<clipPath id="z33805c6"><use href="#z33805d6"/></clipPath>
	<clipPath id="z33805c7"><use href="#z33805d7"/></clipPath>
	<clipPath id="z33805c8"><use href="#z33805d8"/></clipPath>
	<clipPath id="z33805c9"><use href="#z33805d9"/></clipPath>
	<clipPath id="z33805c10"><use href="#z33805d10"/></clipPath>
	<clipPath id="z33805c11"><use href="#z33805d11"/></clipPath>
</defs>
<path style="--d:1s;" pathLength="3333" clip-path="url(#z33805c1)" d="M212 202L297 209L739 154L836 166"/>
<path style="--d:2s;" pathLength="3333" clip-path="url(#z33805c2)" d="M359 99L406 128L437 281"/>
<path style="--d:3s;" pathLength="3333" clip-path="url(#z33805c3)" d="M615 42L656 85L588 283"/>
<path style="--d:4s;" pathLength="3333" clip-path="url(#z33805c4)" d="M243 320L345 416"/>
<path style="--d:5s;" pathLength="3333" clip-path="url(#z33805c5)" d="M147 446L247 544"/>
<path style="--d:6s;" pathLength="3333" clip-path="url(#z33805c6)" d="M156 755L207 800L327 553"/>
<path style="--d:7s;" pathLength="3333" clip-path="url(#z33805c7)" d="M465 349L533 356L764 314"/>
<path style="--d:8s;" pathLength="3333" clip-path="url(#z33805c8)" d="M414 440L475 490L497 541"/>
<path style="--d:9s;" pathLength="3333" clip-path="url(#z33805c9)" d="M761 368L787 411L678 515"/>
<path style="--d:10s;" pathLength="3333" clip-path="url(#z33805c10)" d="M349 629L407 640L848 590L939 605"/>
<path style="--d:11s;" pathLength="3333" clip-path="url(#z33805c11)" d="M559 371L607 420L594 973"/>
</svg>