<!--
AnimCJK 2016-2018 Copyright Francois Mizessyn, http://gooo.free.fr/animCJK/
Derived from:
    MakeMeAHanzi project - https://github.com/skishore/makemeahanzi
    Arphic PL KaitiM GB - https://apps.ubuntu.com/cat/applications/precise/fonts-arphic-gkai00mp/
    Arphic PL UKai - https://apps.ubuntu.com/cat/applications/fonts-arphic-ukai/
You can redistribute and/or modify this file under the terms of the Arphic Public License
as published by Arphic Technology Co., Ltd.
You should have received a copy of this license (the directory "APL") along with this file;
if not, see http://ftp.gnu.org/non-gnu/chinese-fonts-truetype/LICENSE.
-->
<svg id="z33816" class="acjk" version="1.1" viewBox="0 0 1024 1024" xmlns="http://www.w3.org/2000/svg" xmlns:xlink="http://www.w3.org/1999/xlink">
<style>
<![CDATA[
@keyframes z33816k {
	from {
		stroke:#ccc;
		stroke-dashoffset:3334;
	}
	1% {
		stroke:#c00;
		stroke-dashoffset:3334;
	}
	75% {
		stroke:#c00;
		stroke-dashoffset:0;
	}
	to {
		stroke:#000;
	}
}
#z33816 path[clip-path] {
	animation:z33816k 1s linear both;
	stroke-dasharray:3334;
	stroke-width:128;
	stroke-linecap:round;
	fill:none;
}
#z33816 path[clip-path="url(#z33816c1)"] {animation-delay:1s;}
#z33816 path[clip-path="url(#z33816c2)"] {animation-delay:2s;}
#z33816 path[clip-path="url(#z33816c3)"] {animation-delay:3s;}
#z33816 path[clip-path="url(#z33816c4)"] {animation-delay:4s;}
#z33816 path[clip-path="url(#z33816c5)"] {animation-delay:5s;}
#z33816 path[clip-path="url(#z33816c6)"] {animation-delay:6s;}
#z33816 path[clip-path="url(#z33816c7)"] {animation-delay:7s;}
#z33816 path[clip-path="url(#z33816c8)"] {animation-delay:8s;}
#z33816 path[clip-path="url(#z33816c9)"] {animation-delay:9s;}
#z33816 path[clip-path="url(#z33816c10)"] {animation-delay:10s;}
#z33816 path[clip-path="url(#z33816c11)"] {animation-delay:11s;}
#z33816 path {fill:#ccc;}
]]>
</style>
<path id="z33816d1" d="M626 220Q668 213 792 222Q808 225 814 214Q820 202 806 187Q748 138 660 163Q656 163 653 164L592 173Q511 183 420 194L367 200Q291 206 209 213Q178 216 199 233Q248 266 313 251Q344 242 379 239L423 232Q447 223 579 221L626 220 Z"/>
<path id="z33816d2" d="M420 194Q419 169 417 149Q418 128 397 123Q355 105 333 112Q314 122 331 141Q356 166 367 200L379 239Q394 287 407 300Q420 310 425 298Q429 283 423 232L420 194 Z"/>
<path id="z33816d3" d="M653 164Q660 148 675 128Q690 115 680 103Q668 87 635 67Q619 57 601 65Q591 71 598 82Q607 104 592 173L579 221Q561 272 563 288Q564 303 580 292Q598 279 626 220L653 164 Z"/>
<path id="z33816d4" d="M594 391Q594 390 595 390Q676 383 742 378Q752 379 763 367Q764 355 742 343Q703 319 631 338Q493 362 489 364L423 373Q389 376 361 378Q304 381 242 386Q212 389 234 408Q267 438 297 431Q345 424 399 416L463 407Q508 398 560 394L594 391 Z"/>
<path id="z33816d5" d="M489 364Q502 342 520 322Q529 313 525 303Q521 291 493 270Q474 255 464 256Q451 257 450 273Q447 322 423 373L399 416Q321 539 114 659Q105 665 112 669Q119 673 130 670Q304 624 418 475Q439 444 463 407L489 364 Z"/>
<path id="z33816d6" d="M560 394Q579 424 742 587Q764 608 802 608Q874 611 948 595Q967 592 969 587Q970 580 955 574Q769 514 685 460Q658 442 633 422Q611 403 594 391L560 394 Z"/>
<path id="z33816d7" d="M385 548Q351 554 375 570Q414 594 469 581Q532 571 597 558Q625 551 631 547Q640 540 635 532Q628 520 600 513Q572 506 542 518Q508 528 472 537Q432 544 385 548 Z"/>
<path id="z33816d8" d="M520 677Q575 671 727 671Q746 671 751 662Q757 652 740 638Q683 596 616 617Q375 656 268 670Q247 673 263 689Q276 702 294 707Q315 713 330 708Q397 690 475 682Q478 681 483 682L520 677 Z"/>
<path id="z33816d9" d="M483 682Q498 697 495 822Q494 855 489 862Q486 875 461 873Q439 869 415 866Q405 865 403 871Q402 877 412 886Q470 932 489 959Q502 971 512 969Q522 965 534 934Q550 903 547 845Q546 775 547 750Q554 713 538 693Q528 683 520 677L483 682 Z"/>
<path id="z33816d10" d="M340 751Q310 788 274 820Q247 845 257 878Q260 896 281 889Q329 870 350 808Q362 780 361 756Q360 747 354 745Q347 744 340 751 Z"/>
<path id="z33816d11" d="M630 774Q676 814 734 875Q750 894 765 899Q774 900 781 889Q793 876 779 833Q767 785 630 743Q621 739 619 751Q619 764 630 774 Z"/>
<defs>
	<clipPath id="z33816c1"><use xlink:href="#z33816d1"/></clipPath>
	<clipPath id="z33816c2"><use xlink:href="#z33816d2"/></clipPath>
	<clipPath id="z33816c3"><use xlink:href="#z33816d3"/></clipPath>
	<clipPath id="z33816c4"><use xlink:href="#z33816d4"/></clipPath>
	<clipPath id="z33816c5"><use xlink:href="#z33816d5"/></clipPath>
	<clipPath id="z33816c6"><use xlink:href="#z33816d6"/></clipPath>
	<clipPath id="z33816c7"><use xlink:href="#z33816d7"/></clipPath>
	<clipPath id="z33816c8"><use xlink:href="#z33816d8"/></clipPath>
	<clipPath id="z33816c9"><use xlink:href="#z33816d9"/></clipPath>
	<clipPath id="z33816c10"><use xlink:href="#z33816d10"/></clipPath>
	<clipPath id="z33816c11"><use xlink:href="#z33816d11"/></clipPath>
</defs>
<path pathLength="3333" clip-path="url(#z33816c1)" d="M198 221L269 232L699 186L812 204"/>
<path pathLength="3333" clip-path="url(#z33816c2)" d="M329 124L385 155L414 296"/>
<path pathLength="3333" clip-path="url(#z33816c3)" d="M603 71L642 114L570 290"/>
<path pathLength="3333" clip-path="url(#z33816c4)" d="M233 395L288 407L667 357L758 364"/>
<path pathLength="3333" clip-path="url(#z33816c5)" d="M460 264L486 307L374 489L244 601L116 663"/>
<path pathLength="3333" clip-path="url(#z33816c6)" d="M568 396L775 556L961 584"/>
<path pathLength="3333" clip-path="url(#z33816c7)" d="M375 558L632 538"/>
<path pathLength="3333" clip-path="url(#z33816c8)" d="M267 683L662 640L747 649"/>
<path pathLength="3333" clip-path="url(#z33816c9)" d="M491 686L521 725L513 889L491 920L410 873"/>
<path pathLength="3333" clip-path="url(#z33816c10)" d="M351 751L268 885"/>
<path pathLength="3333" clip-path="url(#z33816c11)" d="M626 748L737 829L772 892"/>
</svg>