<!--
AnimCJK 2016-2017 Copyright Francois Mizessyn, http://gooo.free.fr/animCJK/
Derived from:
    MakeMeAHanzi project - https://github.com/skishore/makemeahanzi
    Arphic PL KaitiM GB - https://apps.ubuntu.com/cat/applications/precise/fonts-arphic-gkai00mp/
    Arphic PL UKai - https://apps.ubuntu.com/cat/applications/fonts-arphic-ukai/
You can redistribute and/or modify this file under the terms of the Arphic Public License
as published by Arphic Technology Co., Ltd.
You should have received a copy of this license (the directory "APL") along with this file;
if not, see http://ftp.gnu.org/non-gnu/chinese-fonts-truetype/LICENSE.
-->
<svg id="z33828" class="acjk" version="1.1" viewBox="0 0 1024 1024" xmlns="http://www.w3.org/2000/svg" xmlns:xlink="http://www.w3.org/1999/xlink">
<style>
<![CDATA[
@keyframes z33828k {
	from {
		stroke:#c00;
		stroke-dashoffset:3334;
	}
	75% {
		stroke:#c00;
		stroke-dashoffset:0;
	}
	to {
		stroke:#000;
	}
}
#z33828 path[clip-path] {
	animation:z33828k 1s linear both;
	stroke-dasharray:3334;
	stroke-width:128;
	stroke-linecap:round;
	fill:none;
}
#z33828 path[clip-path="url(#z33828c1)"] {animation-delay:1s;}
#z33828 path[clip-path="url(#z33828c2)"] {animation-delay:2s;}
#z33828 path[clip-path="url(#z33828c3)"] {animation-delay:3s;}
#z33828 path[clip-path="url(#z33828c4)"] {animation-delay:4s;}
#z33828 path[clip-path="url(#z33828c5)"] {animation-delay:5s;}
#z33828 path[clip-path="url(#z33828c6)"] {animation-delay:6s;}
#z33828 path[clip-path="url(#z33828c7)"] {animation-delay:7s;}
#z33828 path[clip-path="url(#z33828c8)"] {animation-delay:8s;}
#z33828 path[clip-path="url(#z33828c9)"] {animation-delay:9s;}
#z33828 path[clip-path="url(#z33828c10)"] {animation-delay:10s;}
#z33828 path[clip-path="url(#z33828c11)"] {animation-delay:11s;}
#z33828 path {fill:#ccc;}
]]>
</style>
<path id="z33828d1" d="M647 235Q716 226 829 233Q845 234 851 225Q855 213 842 198Q794 153 682 181Q675 181 667 184L606 194Q518 206 417 220L368 226Q292 233 208 242Q177 245 198 261Q240 286 314 275Q344 268 376 262L420 254Q456 245 596 237L647 235 Z"/>
<path id="z33828d2" d="M417 220Q414 183 412 153Q413 134 393 127Q351 108 329 115Q310 125 326 144Q357 180 367 222Q367 223 368 226L376 262Q391 316 403 328Q416 338 421 327Q425 312 420 254L417 220 Z"/>
<path id="z33828d3" d="M667 184Q667 183 668 183Q677 158 695 127Q710 111 699 100Q686 82 649 64Q631 54 612 64Q602 71 610 82Q622 110 606 194L596 237Q577 309 578 324Q579 340 596 327Q611 314 647 235L667 184 Z"/>
<path id="z33828d4" d="M247 406Q237 384 226 377Q207 362 205 388Q211 424 154 493Q124 523 155 581Q170 608 190 580Q208 553 221 514Q237 465 249 437Q250 436 250 433L247 406 Z"/>
<path id="z33828d5" d="M250 433Q275 451 316 442Q434 406 699 386Q738 383 751 386Q770 393 768 402Q749 445 728 490L729 491Q736 495 753 486Q810 452 856 443Q893 434 893 426Q893 416 823 357Q799 336 726 348Q570 364 367 392Q309 399 252 404Q249 404 247 406L250 433 Z"/>
<path id="z33828d6" d="M301 546Q277 540 273 547Q267 554 276 569Q304 615 324 695Q328 719 343 733Q362 755 367 738Q368 729 369 718L364 685Q348 609 345 583L301 546 Z"/>
<path id="z33828d7" d="M680 649Q704 592 735 571Q751 555 739 536Q670 479 615 502Q573 514 535 524L473 535Q352 551 301 546L345 583Q391 571 474 561L530 552Q564 545 602 540Q633 534 645 547Q652 554 650 568Q641 608 631 641L680 649 Z"/>
<path id="z33828d8" d="M523 698Q593 688 691 682Q701 681 703 672Q703 665 680 649L631 641Q630 640 627 641Q572 651 525 662L478 670Q417 679 364 685L369 718Q376 719 387 718Q423 711 478 703L523 698 Z"/>
<path id="z33828d9" d="M516 817Q520 756 523 698L525 662Q528 610 530 559Q530 555 530 552L535 524Q536 514 538 507Q542 489 546 476Q549 466 530 451Q496 433 472 429Q456 426 448 434Q441 441 449 456Q471 487 472 510Q472 522 473 535L474 561Q475 613 478 670L478 703Q478 760 476 823L516 817 Z"/>
<path id="z33828d10" d="M695 790Q608 803 516 817L476 823Q392 832 303 844Q275 848 228 840Q215 839 210 849Q206 862 214 873Q235 895 266 921Q276 925 291 919Q366 886 538 853Q698 817 708 813L695 790 Z"/>
<path id="z33828d11" d="M708 813Q732 853 758 901Q765 917 779 921Q789 924 797 915Q806 903 808 875Q812 842 777 801Q696 720 677 721Q671 722 668 735Q668 741 695 790L708 813 Z"/>
<defs>
	<clipPath id="z33828c1"><use xlink:href="#z33828d1"/></clipPath>
	<clipPath id="z33828c2"><use xlink:href="#z33828d2"/></clipPath>
	<clipPath id="z33828c3"><use xlink:href="#z33828d3"/></clipPath>
	<clipPath id="z33828c4"><use xlink:href="#z33828d4"/></clipPath>
	<clipPath id="z33828c5"><use xlink:href="#z33828d5"/></clipPath>
	<clipPath id="z33828c6"><use xlink:href="#z33828d6"/></clipPath>
	<clipPath id="z33828c7"><use xlink:href="#z33828d7"/></clipPath>
	<clipPath id="z33828c8"><use xlink:href="#z33828d8"/></clipPath>
	<clipPath id="z33828c9"><use xlink:href="#z33828d9"/></clipPath>
	<clipPath id="z33828c10"><use xlink:href="#z33828d10"/></clipPath>
	<clipPath id="z33828c11"><use xlink:href="#z33828d11"/></clipPath>
</defs>
<path pathLength="3333" clip-path="url(#z33828c1)" d="M202 253L726 201L848 213"/>
<path pathLength="3333" clip-path="url(#z33828c2)" d="M322 125L381 163L411 326"/>
<path pathLength="3333" clip-path="url(#z33828c3)" d="M614 71L659 111L589 325"/>
<path pathLength="3333" clip-path="url(#z33828c4)" d="M214 378L225 427L165 588"/>
<path pathLength="3333" clip-path="url(#z33828c5)" d="M254 413L756 364L800 383L838 423L736 486"/>
<path pathLength="3333" clip-path="url(#z33828c6)" d="M278 552L321 598L359 739"/>
<path pathLength="3333" clip-path="url(#z33828c7)" d="M311 548L358 564L660 523L697 560L648 643"/>
<path pathLength="3333" clip-path="url(#z33828c8)" d="M371 690L698 672"/>
<path pathLength="3333" clip-path="url(#z33828c9)" d="M452 438L507 485L493 819"/>
<path pathLength="3333" clip-path="url(#z33828c10)" d="M214 851L281 883L702 805"/>
<path pathLength="3333" clip-path="url(#z33828c11)" d="M677 726L767 845L790 915"/>
</svg>