<!--
AnimCJK 2016-2019 Copyright Francois Mizessyn - https://github.com/parsimonhi/animCJK
Derived from:
    MakeMeAHanzi project - https://github.com/skishore/makemeahanzi
    Arphic PL KaitiM GB font
    Arphic PL UKai font
You can redistribute and/or modify this file under the terms of the Arphic Public License
as published by Arphic Technology Co., Ltd.
You should have received a copy of this license along with this file.
If not, see http://ftp.gnu.org/non-gnu/chinese-fonts-truetype/LICENSE.
-->
<svg id="z33830" class="acjk" version="1.1" viewBox="0 0 1024 1024" xmlns="http://www.w3.org/2000/svg" xmlns:xlink="http://www.w3.org/1999/xlink">
<style>
<![CDATA[
@keyframes zk {
	to {
		stroke-dashoffset:0;
	}
}
svg.acjk path[clip-path] {
	--t:0.8s;
	animation:zk var(--t) linear forwards var(--d);
	stroke-dasharray:3337;
	stroke-dashoffset:3339;
	stroke-width:128;
	stroke-linecap:round;
	fill:none;
	stroke:#000;
}
svg.acjk path[id] {fill:#ccc;}
]]>
</style>
<path id="z33830d1" d="M620 213Q731 204 817 211Q833 212 839 202Q843 190 830 175Q776 130 678 155Q662 156 645 161C605 168 605 168 585 171Q506 181 419 194C385 198 385 198 368 200Q292 207 208 217Q177 220 199 236Q242 269 313 252Q344 243 378 239C407 234 407 234 421 231Q460 219 573 217C604 214 604 214 620 213Z"/>
<path id="z33830d2" d="M419 194Q418 166 418 143Q421 122 400 116Q360 94 337 101Q318 110 333 130Q358 160 367 196Q367 197 368 200C375 226 375 226 378 239Q384 273 399 292Q412 304 418 291Q419 284 421 231C420 206 420 206 419 194Z"/>
<path id="z33830d3" d="M645 161Q654 145 667 124Q682 111 672 99Q660 83 627 63Q611 53 593 62Q583 66 590 79Q599 100 585 171C577 202 577 202 573 217Q558 263 559 280Q560 295 576 284Q588 275 620 213C637 178 637 178 645 161Z"/>
<path id="z33830d4" d="M248 354Q238 329 225 319Q207 303 203 330Q204 345 187 384Q136 438 136 444Q130 468 147 509Q160 537 183 510Q186 504 246 381C251 373 251 362 248 354Z"/>
<path id="z33830d5" d="M481 355Q706 316 753 327Q769 339 768 347Q768 356 745 413Q738 426 745 431Q752 435 769 423Q821 389 864 378Q898 368 898 359Q897 349 824 296Q803 280 726 292Q564 310 364 340Q306 349 248 353Q247 353 248 354C239 356 238 376 246 381Q273 399 310 389Q373 371 445 360C469 357 469 357 481 355Z"/>
<path id="z33830d6" d="M400 520Q394 516 395 512Q395 509 494 430Q522 418 509 395Q496 367 481 355C472 346 441 349 445 360Q446 361 447 364Q456 386 414 445Q368 499 344 502Q302 503 302 547Q301 551 303 555Q306 571 321 564Q339 552 467 558C478 558 506 540 495 538C432 526 432 526 400 520Z"/>
<path id="z33830d7" d="M530 663Q588 650 646 644C654 643 639 625 631 625Q531 632 418 650Q405 653 415 643Q463 606 571 532Q608 504 637 490Q652 484 648 473Q644 451 617 425Q604 412 595 412Q585 413 582 428Q576 465 496 537Q495 537 495 538C477 552 477 552 468 559Q357 643 336 650Q321 656 321 670Q320 683 340 706Q347 719 364 712Q427 685 489 672C516 666 516 666 530 663Z"/>
<path id="z33830d8" d="M646 644Q682 693 696 696Q706 697 713 687Q720 674 717 646Q716 624 687 602Q621 557 604 561Q600 564 598 576Q598 585 631 625C641 638 641 638 646 644Z"/>
<path id="z33830d9" d="M489 672Q499 708 498 809Q497 846 492 856Q489 871 462 868Q428 861 391 853Q381 853 379 859Q378 866 389 874Q462 926 488 957Q506 970 518 967Q528 963 540 930Q556 897 552 837Q551 761 552 733Q559 693 543 673Q536 666 530 663C518 656 486 658 489 672Z"/>
<path id="z33830d10" d="M327 738Q293 781 252 816Q224 843 233 877Q234 896 258 890Q318 863 336 798Q349 770 349 744Q348 735 342 733Q333 732 327 738Z"/>
<path id="z33830d11" d="M646 752Q683 797 728 861Q741 883 756 888Q765 891 773 882Q786 870 780 826Q774 784 712 752Q672 731 650 722Q643 715 639 727Q636 740 646 752Z"/>
<defs>
	<clipPath id="z33830c1"><use xlink:href="#z33830d1"/></clipPath>
	<clipPath id="z33830c2"><use xlink:href="#z33830d2"/></clipPath>
	<clipPath id="z33830c3"><use xlink:href="#z33830d3"/></clipPath>
	<clipPath id="z33830c4"><use xlink:href="#z33830d4"/></clipPath>
	<clipPath id="z33830c5"><use xlink:href="#z33830d5"/></clipPath>
	<clipPath id="z33830c6"><use xlink:href="#z33830d6"/></clipPath>
	<clipPath id="z33830c7"><use xlink:href="#z33830d7"/></clipPath>
	<clipPath id="z33830c8"><use xlink:href="#z33830d8"/></clipPath>
	<clipPath id="z33830c9"><use xlink:href="#z33830d9"/></clipPath>
	<clipPath id="z33830c10"><use xlink:href="#z33830d10"/></clipPath>
	<clipPath id="z33830c11"><use xlink:href="#z33830d11"/></clipPath>
</defs>
<path style="--d:1s;" pathLength="3333" clip-path="url(#z33830c1)" d="M198 224L282 233L705 178L836 194"/>
<path style="--d:2s;" pathLength="3333" clip-path="url(#z33830c2)" d="M331 108L386 148L406 293"/>
<path style="--d:3s;" pathLength="3333" clip-path="url(#z33830c3)" d="M594 68L634 112L569 283"/>
<path style="--d:4s;" pathLength="3333" clip-path="url(#z33830c4)" d="M213 322L220 374L158 517"/>
<path style="--d:5s;" pathLength="3333" clip-path="url(#z33830c5)" d="M250 375L754 307L807 327L843 366L751 424"/>
<path style="--d:6s;" pathLength="3333" clip-path="url(#z33830c6)" d="M452 368L476 409L351 539L484 540"/>
<path style="--d:7s;" pathLength="3333" clip-path="url(#z33830c7)" d="M594 418L606 473L369 663L386 682L638 636"/>
<path style="--d:8s;" pathLength="3333" clip-path="url(#z33830c8)" d="M608 565L704 689"/>
<path style="--d:9s;" pathLength="3333" clip-path="url(#z33830c9)" d="M496 678L525 718L524 855L502 913L384 862"/>
<path style="--d:10s;" pathLength="3333" clip-path="url(#z33830c10)" d="M341 738L243 885"/>
<path style="--d:11s;" pathLength="3333" clip-path="url(#z33830c11)" d="M644 729L736 812L763 882"/>
</svg>