<!--
AnimCJK 2016-2019 Copyright Francois Mizessyn - https://github.com/parsimonhi/animCJK
Derived from:
    MakeMeAHanzi project - https://github.com/skishore/makemeahanzi
    Arphic PL KaitiM GB font
    Arphic PL UKai font
You can redistribute and/or modify this file under the terms of the Arphic Public License
as published by Arphic Technology Co., Ltd.
You should have received a copy of this license along with this file.
If not, see http://ftp.gnu.org/non-gnu/chinese-fonts-truetype/LICENSE.
-->
<svg id="z34019" class="acjk" version="1.1" viewBox="0 0 1024 1024" xmlns="http://www.w3.org/2000/svg" xmlns:xlink="http://www.w3.org/1999/xlink">
<style>
<![CDATA[
@keyframes zk {
	to {
		stroke-dashoffset:0;
	}
}
svg.acjk path[clip-path] {
	--t:0.8s;
	animation:zk var(--t) linear forwards var(--d);
	stroke-dasharray:3337;
	stroke-dashoffset:3339;
	stroke-width:128;
	stroke-linecap:round;
	fill:none;
	stroke:#000;
}
svg.acjk path[id] {fill:#ccc;}
]]>
</style>
<path id="z34019d1" d="M625 206Q688 196 795 203Q810 204 815 195Q819 185 807 170Q759 130 664 153Q655 153 647 156C610 162 610 162 592 165Q507 178 411 191C379 196 379 196 363 198Q287 205 203 215Q175 218 194 233Q231 257 307 245Q340 236 372 232C399 227 399 227 413 225Q434 216 580 208C610 207 610 207 625 206Z"/>
<path id="z34019d2" d="M411 191Q410 164 409 143Q410 124 391 118Q349 100 332 106Q316 113 329 133Q354 161 363 198C369 221 369 221 372 232Q379 283 396 301Q409 311 413 300Q417 285 413 225C412 202 412 202 411 191Z"/>
<path id="z34019d3" d="M647 156Q654 137 671 112Q684 99 675 89Q665 73 632 56Q617 46 601 54Q591 60 598 70Q608 101 592 165C584 194 584 194 580 208Q558 274 559 289Q560 302 575 292Q590 280 625 206C640 173 640 173 647 156Z"/>
<path id="z34019d4" d="M349 466Q428 396 455 387Q471 383 466 368Q463 355 409 325Q396 318 313 343Q240 361 204 359Q185 358 191 375Q197 385 212 395Q237 410 265 395Q359 353 376 364Q386 371 380 383Q359 417 335 456C332 461 344 469 349 466Z"/>
<path id="z34019d5" d="M335 456Q323 450 265 440Q255 439 252 441Q248 445 250 455Q254 462 276 477Q303 495 331 517Q341 526 354 524Q363 523 365 512Q368 500 359 478Q356 471 349 466C340 459 340 459 335 456Z"/>
<path id="z34019d6" d="M332 568Q362 561 396 555Q427 554 428 566Q428 579 407 631Q401 644 407 647Q413 650 423 639Q484 585 509 574Q530 567 527 555Q526 545 462 516Q441 507 335 539Q209 564 107 582Q85 585 102 604Q115 620 156 608Q225 590 294 576C319 571 319 571 332 568Z"/>
<path id="z34019d7" d="M263 842Q238 833 207 825Q197 822 197 828Q198 835 206 842Q267 888 306 927Q316 934 328 921Q364 872 357 780Q351 702 358 620Q364 598 359 589Q352 579 332 568C321 561 289 564 294 576Q303 597 307 723Q307 757 307 805Q306 833 297 844Q287 850 263 842Z"/>
<path id="z34019d8" d="M658 338Q727 323 824 310Q834 311 842 300Q842 290 822 280Q785 262 696 291Q693 291 691 292Q648 302 539 318Q514 322 534 337Q564 358 600 350Q610 347 625 345C647 340 647 340 658 338Z"/>
<path id="z34019d9" d="M630 443Q652 413 677 384Q690 375 683 366Q676 353 658 338C649 331 625 334 625 345Q628 366 602 436Q598 442 596 448C592 459 623 452 630 443Z"/>
<path id="z34019d10" d="M568 450Q553 440 537 435Q530 434 524 440Q523 444 528 454Q564 548 530 683Q509 702 536 750Q537 756 543 761Q553 771 560 761Q581 736 582 612Q582 507 588 477C590 466 577 457 568 450Z"/>
<path id="z34019d11" d="M756 695Q750 716 762 734Q774 759 782 758Q795 757 808 728Q820 706 818 688Q794 517 824 471Q833 458 826 448Q801 426 759 409Q744 405 724 412Q690 428 647 439Q638 440 630 443C607 446 607 446 596 448Q581 449 568 450C557 450 577 477 588 477Q594 477 600 476Q639 469 668 463Q729 448 743 457Q752 475 757 522Q763 667 756 695Z"/>
<path id="z34019d12" d="M647 580Q656 766 581 837Q575 840 569 846Q541 870 476 901Q466 904 462 907Q458 911 470 915Q512 919 592 876Q655 843 675 765Q691 704 693 640Q697 574 705 554Q709 544 702 538Q687 525 657 513Q639 506 626 511Q610 518 623 531Q647 555 647 580Z"/>
<path id="z34019d13" d="M717 812Q762 852 817 909Q832 927 846 930Q853 931 861 922Q871 909 859 870Q844 818 717 784Q708 780 707 791Q707 803 717 812Z"/>
<defs>
	<clipPath id="z34019c1"><use xlink:href="#z34019d1"/></clipPath>
	<clipPath id="z34019c2"><use xlink:href="#z34019d2"/></clipPath>
	<clipPath id="z34019c3"><use xlink:href="#z34019d3"/></clipPath>
	<clipPath id="z34019c4"><use xlink:href="#z34019d4"/></clipPath>
	<clipPath id="z34019c5"><use xlink:href="#z34019d5"/></clipPath>
	<clipPath id="z34019c6"><use xlink:href="#z34019d6"/></clipPath>
	<clipPath id="z34019c7"><use xlink:href="#z34019d7"/></clipPath>
	<clipPath id="z34019c8"><use xlink:href="#z34019d8"/></clipPath>
	<clipPath id="z34019c9"><use xlink:href="#z34019d9"/></clipPath>
	<clipPath id="z34019c10"><use xlink:href="#z34019d10"/></clipPath>
	<clipPath id="z34019c11"><use xlink:href="#z34019d11"/></clipPath>
	<clipPath id="z34019c12"><use xlink:href="#z34019d12"/></clipPath>
	<clipPath id="z34019c13"><use xlink:href="#z34019d13"/></clipPath>
</defs>
<path style="--d:1s;" pathLength="3333" clip-path="url(#z34019c1)" d="M193 224L709 172L812 189"/>
<path style="--d:2s;" pathLength="3333" clip-path="url(#z34019c2)" d="M330 116L379 150L403 301"/>
<path style="--d:3s;" pathLength="3333" clip-path="url(#z34019c3)" d="M602 58L640 98L566 287"/>
<path style="--d:4s;" pathLength="3333" clip-path="url(#z34019c4)" d="M196 366L252 378L400 350L424 378L342 455"/>
<path style="--d:5s;" pathLength="3333" clip-path="url(#z34019c5)" d="M257 448L334 487L354 521"/>
<path style="--d:6s;" pathLength="3333" clip-path="url(#z34019c6)" d="M103 590L439 536L477 563L412 640"/>
<path style="--d:7s;" pathLength="3333" clip-path="url(#z34019c7)" d="M301 581L331 613L324 861L297 886L204 832"/>
<path style="--d:8s;" pathLength="3333" clip-path="url(#z34019c8)" d="M533 327L833 300"/>
<path style="--d:9s;" pathLength="3333" clip-path="url(#z34019c9)" d="M630 350L650 383L603 443"/>
<path style="--d:10s;" pathLength="3333" clip-path="url(#z34019c10)" d="M530 443L564 491L549 757"/>
<path style="--d:11s;" pathLength="3333" clip-path="url(#z34019c11)" d="M578 453L735 431L788 464L776 750"/>
<path style="--d:12s;" pathLength="3333" clip-path="url(#z34019c12)" d="M623 518L675 555L646 779L589 855L468 908"/>
<path style="--d:13s;" pathLength="3333" clip-path="url(#z34019c13)" d="M715 790L819 864L849 923"/>
</svg>