<!--
AnimCJK 2016-2019 Copyright Francois Mizessyn - https://github.com/parsimonhi/animCJK
Derived from:
    MakeMeAHanzi project - https://github.com/skishore/makemeahanzi
    Arphic PL KaitiM GB font
    Arphic PL UKai font
You can redistribute and/or modify this file under the terms of the Arphic Public License
as published by Arphic Technology Co., Ltd.
You should have received a copy of this license along with this file.
If not, see http://ftp.gnu.org/non-gnu/chinese-fonts-truetype/LICENSE.
-->
<svg id="z34079" class="acjk" version="1.1" viewBox="0 0 1024 1024" xmlns="http://www.w3.org/2000/svg" xmlns:xlink="http://www.w3.org/1999/xlink">
<style>
<![CDATA[
@keyframes zk {
	to {
		stroke-dashoffset:0;
	}
}
svg.acjk path[clip-path] {
	--t:0.8s;
	animation:zk var(--t) linear forwards var(--d);
	stroke-dasharray:3337;
	stroke-dashoffset:3339;
	stroke-width:128;
	stroke-linecap:round;
	fill:none;
	stroke:#000;
}
svg.acjk path[id] {fill:#ccc;}
]]>
</style>
<path id="z34079d1" d="M627 196Q714 187 825 197Q841 198 846 189Q852 177 838 162Q793 120 696 140Q672 143 647 148C610 153 610 153 592 156Q510 166 421 178C388 182 388 182 371 184Q278 191 176 202Q146 205 167 221Q209 248 283 236Q331 226 381 217C410 213 410 213 424 211Q497 202 582 198C612 197 612 197 627 196Z"/>
<path id="z34079d2" d="M421 178Q420 156 418 137Q419 118 400 114Q358 96 341 103Q323 112 338 130Q360 155 371 184C378 206 378 206 381 217Q388 242 393 268Q399 287 411 301Q424 311 428 299Q432 284 424 211C422 189 422 189 421 178Z"/>
<path id="z34079d3" d="M647 148Q654 130 668 108Q681 95 672 84Q660 68 628 53Q613 43 597 52Q587 58 594 68Q603 89 592 156C585 184 585 184 582 198Q567 265 567 273Q568 286 583 276Q596 264 627 196C640 164 640 164 647 148Z"/>
<path id="z34079d4" d="M312 354Q331 370 354 391Q367 403 382 402Q392 401 397 388Q401 373 391 345Q381 321 305 309Q289 306 284 309Q280 313 281 325Q285 335 312 354Z"/>
<path id="z34079d5" d="M306 510Q456 471 464 466Q471 459 467 451Q460 441 433 434Q408 430 295 470Q217 485 139 502Q106 508 130 523Q167 541 230 527Q249 521 272 519C295 513 295 513 306 510Z"/>
<path id="z34079d6" d="M315 580Q322 584 344 589Q369 596 378 611Q387 633 339 759Q317 810 292 821Q280 824 251 816Q218 801 214 806Q210 815 225 825Q256 856 261 885Q265 901 276 906Q286 912 318 893Q360 860 396 750Q421 657 444 640Q454 636 457 628Q458 621 439 595Q405 559 380 564Q377 564 332 553C322 551 305 576 315 580Z"/>
<path id="z34079d7" d="M332 553Q332 532 306 510C298 502 270 507 272 519Q272 520 273 522Q276 604 101 782Q82 797 81 805Q80 809 85 809Q170 791 296 610Q297 604 315 580C320 571 332 564 332 553Z"/>
<path id="z34079d8" d="M571 395Q590 355 602 344Q608 335 604 326Q600 316 576 301Q555 289 540 290Q527 293 534 309Q558 348 459 512Q452 521 451 525Q450 534 459 531Q480 528 553 424C565 405 565 405 571 395Z"/>
<path id="z34079d9" d="M553 424Q593 442 647 425Q705 409 765 393Q793 386 797 381Q806 372 800 364Q793 352 762 347Q731 343 701 357Q670 370 636 380Q605 389 571 395C560 397 542 420 553 424Z"/>
<path id="z34079d10" d="M587 537Q588 536 590 533Q600 517 609 510Q615 503 612 493Q609 484 589 468Q570 455 557 456Q544 457 549 472Q561 493 524 558Q508 588 484 622Q477 629 476 634Q473 641 483 640Q507 637 568 562C581 545 581 545 587 537Z"/>
<path id="z34079d11" d="M650 567Q649 566 652 566Q769 542 780 534Q787 527 783 519Q776 509 749 502Q721 498 695 510Q668 519 640 526Q615 532 587 537C577 539 558 560 568 562Q572 562 609 571C622 574 637 570 650 567Z"/>
<path id="z34079d12" d="M661 696Q730 681 867 682Q883 681 888 674Q892 664 877 652Q826 619 771 636Q726 645 667 658C632 664 632 664 614 667Q539 679 458 693Q440 694 454 709Q467 721 482 725Q500 729 514 724Q557 711 606 704C643 699 643 699 661 696Z"/>
<path id="z34079d13" d="M667 658Q668 655 669 654Q673 630 685 610Q694 595 680 587Q665 575 650 567C638 560 605 558 609 571Q609 572 611 577Q621 598 614 667C609 692 609 692 606 704Q575 813 448 899Q438 906 447 909Q490 913 558 861Q621 813 650 722C661 679 661 679 667 658Z"/>
<path id="z34079d14" d="M650 722Q701 810 770 905Q785 921 809 921Q893 921 919 917Q926 916 928 911Q929 907 918 900Q810 846 743 783Q703 744 661 696C651 683 640 709 650 722Z"/>
<defs>
	<clipPath id="z34079c1"><use xlink:href="#z34079d1"/></clipPath>
	<clipPath id="z34079c2"><use xlink:href="#z34079d2"/></clipPath>
	<clipPath id="z34079c3"><use xlink:href="#z34079d3"/></clipPath>
	<clipPath id="z34079c4"><use xlink:href="#z34079d4"/></clipPath>
	<clipPath id="z34079c5"><use xlink:href="#z34079d5"/></clipPath>
	<clipPath id="z34079c6"><use xlink:href="#z34079d6"/></clipPath>
	<clipPath id="z34079c7"><use xlink:href="#z34079d7"/></clipPath>
	<clipPath id="z34079c8"><use xlink:href="#z34079d8"/></clipPath>
	<clipPath id="z34079c9"><use xlink:href="#z34079d9"/></clipPath>
	<clipPath id="z34079c10"><use xlink:href="#z34079d10"/></clipPath>
	<clipPath id="z34079c11"><use xlink:href="#z34079d11"/></clipPath>
	<clipPath id="z34079c12"><use xlink:href="#z34079d12"/></clipPath>
	<clipPath id="z34079c13"><use xlink:href="#z34079d13"/></clipPath>
	<clipPath id="z34079c14"><use xlink:href="#z34079d14"/></clipPath>
</defs>
<path style="--d:1s;" pathLength="3333" clip-path="url(#z34079c1)" d="M166 210L253 217L729 163L842 182"/>
<path style="--d:2s;" pathLength="3333" clip-path="url(#z34079c2)" d="M338 111L387 141L418 299"/>
<path style="--d:3s;" pathLength="3333" clip-path="url(#z34079c3)" d="M599 57L636 100L575 272"/>
<path style="--d:4s;" pathLength="3333" clip-path="url(#z34079c4)" d="M289 317L363 358L385 396"/>
<path style="--d:5s;" pathLength="3333" clip-path="url(#z34079c5)" d="M128 512L463 453"/>
<path style="--d:6s;" pathLength="3333" clip-path="url(#z34079c6)" d="M321 576L395 590L418 629L354 789L287 864L220 812"/>
<path style="--d:7s;" pathLength="3333" clip-path="url(#z34079c7)" d="M278 526L298 559L261 622L88 801"/>
<path style="--d:8s;" pathLength="3333" clip-path="url(#z34079c8)" d="M540 295L572 335L459 523"/>
<path style="--d:9s;" pathLength="3333" clip-path="url(#z34079c9)" d="M561 421L798 368"/>
<path style="--d:10s;" pathLength="3333" clip-path="url(#z34079c10)" d="M557 466L578 510L483 636"/>
<path style="--d:11s;" pathLength="3333" clip-path="url(#z34079c11)" d="M579 559L778 528"/>
<path style="--d:12s;" pathLength="3333" clip-path="url(#z34079c12)" d="M456 699L807 656L884 667"/>
<path style="--d:13s;" pathLength="3333" clip-path="url(#z34079c13)" d="M618 576L652 609L603 772L544 846L453 903"/>
<path style="--d:14s;" pathLength="3333" clip-path="url(#z34079c14)" d="M659 705L800 878L916 910"/>
</svg>