<!--
AnimCJK 2016-2026 Copyright FM-SH - https://github.com/parsimonhi/animCJK
Derived from:
    MakeMeAHanzi project - https://github.com/skishore/makemeahanzi
    Arphic PL KaitiM GB font
    Arphic PL KaitiM Big5 font
You can redistribute and/or modify this file under the terms of the Arphic Public License
as published by Arphic Technology Co., Ltd.
You should have received a copy of this license along with this file.
If not, see https://ftp.gnu.org/non-gnu/chinese-fonts-truetype/LICENSE.
-->
<svg id="z34103" class="acjk" viewBox="0 0 1024 1024" xmlns="http://www.w3.org/2000/svg">
<style>
<![CDATA[
@keyframes zk {
	to {
		stroke-dashoffset:0;
	}
}
svg.acjk path[clip-path] {
	--t:0.8s;
	animation:zk var(--t) linear forwards var(--d);
	stroke-dasharray:3337;
	stroke-dashoffset:3339;
	stroke-width:128;
	stroke-linecap:round;
	fill:none;
	stroke:#000;
}
svg.acjk path[id] {fill:#ccc;}
]]>
</style>
<path id="z34103d1" d="M629 190C661 189 719 183 803 189C826 190 841 174 815 157C758 120 737 129 654 143C616 149 616 149 597 152C538 161 476 169 411 176C378 179 378 179 362 181C309 186 254 190 198 196C179 197 176 203 190 213C215 231 246 238 282 231C313 224 342 216 372 212C400 208 400 208 414 206C451 200 564 191 585 191C614 190 614 190 629 190Z"/>
<path id="z34103d2" d="M411 176C409 163 409 151 409 140C409 127 403 122 391 117C366 106 347 100 334 107C322 112 322 121 332 133C344 147 356 162 362 181C369 202 369 202 372 212C382 245 388 270 400 281C408 288 414 287 416 280C418 272 418 247 414 206C412 186 412 186 411 176Z"/>
<path id="z34103d3" d="M654 143C661 129 686 106 677 93C669 82 656 71 637 59C621 48 594 51 604 72C610 85 608 113 597 152C589 178 589 178 585 191C572 231 567 253 568 257C568 265 573 267 583 261C594 253 608 228 629 190C646 159 646 159 654 143Z"/>
<path id="z34103d4" d="M527 354C627 338 681 327 689 322C702 311 705 296 662 288C643 284 602 297 533 310C494 317 494 317 474 321C423 330 369 335 314 339C291 340 286 349 303 359C355 389 419 370 476 362C510 357 510 357 527 354Z"/>
<path id="z34103d5" d="M515 519C519 461 519 405 527 354C531 325 531 325 533 310C537 277 551 268 527 253C507 240 488 235 475 233C459 229 442 237 455 257C462 269 472 288 474 321C475 348 475 348 476 362C478 411 477 465 478 522C478 534 515 531 515 519Z"/>
<path id="z34103d6" d="M314 448C353 484 376 506 387 507C393 507 398 503 401 495C403 486 402 473 399 457C396 445 386 433 368 426C325 408 299 401 292 405C288 406 286 412 288 420C288 426 299 434 314 448Z"/>
<path id="z34103d7" d="M641 386C626 408 602 434 572 468C564 476 570 487 585 479C640 446 679 419 706 408C716 403 721 400 719 394C716 385 709 374 698 362C687 351 675 343 662 342C653 340 648 348 649 360C649 368 647 376 641 386Z"/>
<path id="z34103d8" d="M478 522C443 524 256 545 134 557C119 558 117 564 128 577C137 587 148 595 161 599C175 603 188 602 201 600C348 563 561 546 839 546C855 546 871 546 887 547C923 548 922 526 903 511C858 477 822 472 792 479C722 494 551 516 515 519C490 521 490 521 478 522Z"/>
<path id="z34103d9" d="M280 626C223 596 219 615 230 630C259 672 275 743 283 837C284 859 292 879 304 899C313 914 336 946 344 911C346 899 344 888 343 877C337 843 330 812 323 769C313 712 311 677 311 665C311 648 295 633 280 626Z"/>
<path id="z34103d10" d="M641 888C642 909 646 924 657 951C668 978 685 970 700 942C717 906 731 865 738 817C741 786 747 754 753 720C757 688 767 662 783 644C793 631 795 620 788 612C774 597 752 583 723 569C710 562 694 562 673 569C570 600 440 620 280 626C263 626 296 671 311 665C333 657 443 641 643 615C667 611 685 613 693 626C707 648 702 711 680 811C675 832 669 854 661 862C654 871 641 877 641 888Z"/>
<path id="z34103d11" d="M419 695C414 691 354 669 372 703C384 726 396 756 406 795C408 806 413 816 420 824C435 842 439 828 438 814C437 807 436 800 436 794C433 772 428 744 423 718C421 710 426 698 419 695Z"/>
<path id="z34103d12" d="M588 774C598 745 610 727 621 718C635 705 635 693 623 685C612 677 600 669 586 659C575 651 565 652 555 658C527 674 481 686 419 695C411 697 415 720 423 718C423 718 458 712 529 701C545 698 555 700 559 706C560 708 557 729 547 770C544 783 583 787 588 774Z"/>
<path id="z34103d13" d="M438 814C450 816 480 808 592 798C616 795 603 781 588 774C575 769 560 767 547 770C520 775 485 784 436 794C429 795 431 814 438 814Z"/>
<path id="z34103d14" d="M344 911C366 911 431 893 641 888C652 888 670 869 661 862C605 813 612 841 343 877C332 879 333 911 344 911Z"/>
<defs>
	<clipPath id="z34103c1"><use href="#z34103d1"/></clipPath>
	<clipPath id="z34103c2"><use href="#z34103d2"/></clipPath>
	<clipPath id="z34103c3"><use href="#z34103d3"/></clipPath>
	<clipPath id="z34103c4"><use href="#z34103d4"/></clipPath>
	<clipPath id="z34103c5"><use href="#z34103d5"/></clipPath>
	<clipPath id="z34103c6"><use href="#z34103d6"/></clipPath>
	<clipPath id="z34103c7"><use href="#z34103d7"/></clipPath>
	<clipPath id="z34103c8"><use href="#z34103d8"/></clipPath>
	<clipPath id="z34103c9"><use href="#z34103d9"/></clipPath>
	<clipPath id="z34103c10"><use href="#z34103d10"/></clipPath>
	<clipPath id="z34103c11"><use href="#z34103d11"/></clipPath>
	<clipPath id="z34103c12"><use href="#z34103d12"/></clipPath>
	<clipPath id="z34103c13"><use href="#z34103d13"/></clipPath>
	<clipPath id="z34103c14"><use href="#z34103d14"/></clipPath>
</defs>
<path style="--d:1s;" pathLength="3333" clip-path="url(#z34103c1)" d="M189 203L261 212L722 159L824 172"/>
<path style="--d:2s;" pathLength="3333" clip-path="url(#z34103c2)" d="M328 115L380 146L408 280"/>
<path style="--d:3s;" pathLength="3333" clip-path="url(#z34103c3)" d="M612 58L642 105L575 258"/>
<path style="--d:4s;" pathLength="3333" clip-path="url(#z34103c4)" d="M300 347L396 353L690 310"/>
<path style="--d:5s;" pathLength="3333" clip-path="url(#z34103c5)" d="M455 240L505 283L494 527"/>
<path style="--d:6s;" pathLength="3333" clip-path="url(#z34103c6)" d="M294 413L369 459L391 501"/>
<path style="--d:7s;" pathLength="3333" clip-path="url(#z34103c7)" d="M658 349L678 395L575 473"/>
<path style="--d:8s;" pathLength="3333" clip-path="url(#z34103c8)" d="M128 565L185 577L812 511L912 529"/>
<path style="--d:9s;" pathLength="3333" clip-path="url(#z34103c9)" d="M232 615L281 664L333 921"/>
<path style="--d:10s;" pathLength="3333" clip-path="url(#z34103c10)" d="M284 634L324 644L675 590L732 613L745 635L669 961"/>
<path style="--d:11s;" pathLength="3333" clip-path="url(#z34103c11)" d="M377 692L403 714L429 824"/>
<path style="--d:12s;" pathLength="3333" clip-path="url(#z34103c12)" d="M418 706L566 678L595 707L556 775"/>
<path style="--d:13s;" pathLength="3333" clip-path="url(#z34103c13)" d="M437 804L596 788"/>
<path style="--d:14s;" pathLength="3333" clip-path="url(#z34103c14)" d="M341 898L659 870"/>
</svg>