<!--
AnimCJK 2016-2019 Copyright Francois Mizessyn - https://github.com/parsimonhi/animCJK
Derived from:
    MakeMeAHanzi project - https://github.com/skishore/makemeahanzi
    Arphic PL KaitiM GB font
    Arphic PL UKai font
You can redistribute and/or modify this file under the terms of the Arphic Public License
as published by Arphic Technology Co., Ltd.
You should have received a copy of this license along with this file.
If not, see http://ftp.gnu.org/non-gnu/chinese-fonts-truetype/LICENSE.
-->
<svg id="z34109" class="acjk" version="1.1" viewBox="0 0 1024 1024" xmlns="http://www.w3.org/2000/svg" xmlns:xlink="http://www.w3.org/1999/xlink">
<style>
<![CDATA[
@keyframes zk {
	to {
		stroke-dashoffset:0;
	}
}
svg.acjk path[clip-path] {
	--t:0.8s;
	animation:zk var(--t) linear forwards var(--d);
	stroke-dasharray:3337;
	stroke-dashoffset:3339;
	stroke-width:128;
	stroke-linecap:round;
	fill:none;
	stroke:#000;
}
svg.acjk path[id] {fill:#ccc;}
]]>
</style>
<path id="z34109d1" d="M615 218Q679 214 760 217Q827 220 834 210Q840 200 824 185Q767 145 713 158Q677 162 635 172C598 177 598 177 579 180Q537 184 491 191Q451 195 410 200C381 203 381 203 367 205Q282 212 188 223Q169 224 183 241Q196 254 213 261Q234 265 249 262Q309 246 376 238C402 235 402 235 415 233Q464 221 569 219C600 218 600 218 615 218Z"/>
<path id="z34109d2" d="M410 200Q404 166 402 139Q403 120 384 116Q344 101 326 108Q310 118 325 134Q355 167 367 205C373 227 373 227 376 238Q388 287 403 302Q416 311 420 300Q420 293 415 233C412 211 412 211 410 200Z"/>
<path id="z34109d3" d="M635 172Q636 169 638 166Q647 142 665 112Q680 97 669 87Q657 69 622 52Q606 42 589 51Q579 57 586 68Q596 95 579 180C572 206 572 206 569 219Q548 288 550 301Q551 314 568 304Q586 286 615 218C628 187 628 187 635 172Z"/>
<path id="z34109d4" d="M188 443Q206 461 224 482Q234 494 248 494Q257 494 261 483Q265 471 260 447Q253 423 186 403Q173 399 168 401Q164 404 164 415Q167 425 188 443Z"/>
<path id="z34109d5" d="M439 366Q429 387 381 452Q374 465 388 463Q424 439 444 423Q481 389 507 376Q523 366 514 353Q502 340 481 330Q462 320 451 323Q441 324 445 336Q449 349 439 366Z"/>
<path id="z34109d6" d="M189 550Q186 546 181 544Q153 531 135 532Q122 536 128 548Q168 626 135 778Q107 838 143 880Q150 893 160 887Q190 862 193 769Q196 613 199 580Q199 576 199 574C199 565 195 556 189 550Z"/>
<path id="z34109d7" d="M349 547Q413 535 431 543Q441 546 447 567Q457 706 450 816Q449 838 436 842Q426 843 372 828Q362 824 362 831Q363 838 376 847Q409 877 434 907Q447 922 463 921Q476 918 493 879Q515 839 511 798Q504 701 498 611Q495 577 510 548Q520 533 508 520Q492 507 455 494Q436 484 420 496Q398 505 355 517Q351 518 349 519C323 524 323 524 310 527Q228 543 189 550C180 551 190 574 199 574Q212 574 231 570Q274 560 310 554C336 549 336 549 349 547Z"/>
<path id="z34109d8" d="M310 554Q310 707 296 834Q297 862 304 881Q310 891 318 886Q334 873 339 794Q346 664 349 547C349 528 349 528 349 519Q349 518 350 517Q354 420 364 378Q371 359 360 348Q345 335 319 321Q298 314 276 322Q266 329 278 345Q285 360 292 369Q302 388 307 438Q308 478 310 527C310 545 310 545 310 554Z"/>
<path id="z34109d9" d="M237 633Q256 664 210 769Q206 773 213 773Q253 749 289 651Q290 647 292 644Q296 640 293 634Q290 628 280 624Q270 620 257 619Q244 619 238 623Q234 626 237 633Z"/>
<path id="z34109d10" d="M370 630Q388 699 406 708Q415 712 424 703Q430 694 429 678Q426 645 381 613Q375 609 371 617Q368 621 370 630Z"/>
<path id="z34109d11" d="M630 484Q655 444 681 390Q694 359 708 341Q715 331 709 318Q705 308 675 290Q647 277 630 279Q614 283 624 302Q643 333 591 463Q564 521 526 587Q519 597 517 603Q516 613 528 610Q558 597 613 511C624 493 624 493 630 484Z"/>
<path id="z34109d12" d="M739 507Q868 470 869 469Q876 460 872 452Q865 440 834 435Q806 431 733 459Q685 472 630 484C620 486 603 508 613 511Q649 526 695 519C724 511 724 511 739 507Z"/>
<path id="z34109d13" d="M714 727Q744 667 762 567Q765 548 769 539Q776 533 770 524Q766 517 739 507C725 501 692 504 695 519Q711 606 678 690C665 715 665 715 658 728Q622 780 527 828Q506 840 532 840Q586 843 672 782Q678 775 686 767C705 740 705 740 714 727Z"/>
<path id="z34109d14" d="M686 767Q720 813 779 875Q804 896 841 890Q890 884 927 880Q939 879 949 874Q956 868 947 860Q934 851 832 808Q790 793 714 727C690 702 690 702 678 690Q651 660 623 626Q608 607 582 601Q572 600 564 604Q560 610 567 616Q573 622 578 626Q602 638 658 728C677 754 677 754 686 767Z"/>
<defs>
	<clipPath id="z34109c1"><use xlink:href="#z34109d1"/></clipPath>
	<clipPath id="z34109c2"><use xlink:href="#z34109d2"/></clipPath>
	<clipPath id="z34109c3"><use xlink:href="#z34109d3"/></clipPath>
	<clipPath id="z34109c4"><use xlink:href="#z34109d4"/></clipPath>
	<clipPath id="z34109c5"><use xlink:href="#z34109d5"/></clipPath>
	<clipPath id="z34109c6"><use xlink:href="#z34109d6"/></clipPath>
	<clipPath id="z34109c7"><use xlink:href="#z34109d7"/></clipPath>
	<clipPath id="z34109c8"><use xlink:href="#z34109d8"/></clipPath>
	<clipPath id="z34109c9"><use xlink:href="#z34109d9"/></clipPath>
	<clipPath id="z34109c10"><use xlink:href="#z34109d10"/></clipPath>
	<clipPath id="z34109c11"><use xlink:href="#z34109d11"/></clipPath>
	<clipPath id="z34109c12"><use xlink:href="#z34109d12"/></clipPath>
	<clipPath id="z34109c13"><use xlink:href="#z34109d13"/></clipPath>
	<clipPath id="z34109c14"><use xlink:href="#z34109d14"/></clipPath>
</defs>
<path style="--d:1s;" pathLength="3333" clip-path="url(#z34109c1)" d="M185 231L732 185L831 205"/>
<path style="--d:2s;" pathLength="3333" clip-path="url(#z34109c2)" d="M321 118L374 146L411 298"/>
<path style="--d:3s;" pathLength="3333" clip-path="url(#z34109c3)" d="M592 58L631 101L558 302"/>
<path style="--d:4s;" pathLength="3333" clip-path="url(#z34109c4)" d="M170 406L235 454L248 488"/>
<path style="--d:5s;" pathLength="3333" clip-path="url(#z34109c5)" d="M452 331L476 369L385 456"/>
<path style="--d:6s;" pathLength="3333" clip-path="url(#z34109c6)" d="M134 541L171 583L152 885"/>
<path style="--d:7s;" pathLength="3333" clip-path="url(#z34109c7)" d="M198 552L430 515L478 542L474 846L451 880L369 833"/>
<path style="--d:8s;" pathLength="3333" clip-path="url(#z34109c8)" d="M278 327L332 376L313 878"/>
<path style="--d:9s;" pathLength="3333" clip-path="url(#z34109c9)" d="M243 625L268 654L216 764"/>
<path style="--d:10s;" pathLength="3333" clip-path="url(#z34109c10)" d="M377 620L412 704"/>
<path style="--d:11s;" pathLength="3333" clip-path="url(#z34109c11)" d="M627 286L669 336L524 603"/>
<path style="--d:12s;" pathLength="3333" clip-path="url(#z34109c12)" d="M621 508L866 456"/>
<path style="--d:13s;" pathLength="3333" clip-path="url(#z34109c13)" d="M701 522L735 547L697 707L645 775L529 835"/>
<path style="--d:14s;" pathLength="3333" clip-path="url(#z34109c14)" d="M571 608L808 844L947 868"/>
</svg>