<!--
AnimCJK 2016-2019 Copyright Francois Mizessyn - https://github.com/parsimonhi/animCJK
Derived from:
    MakeMeAHanzi project - https://github.com/skishore/makemeahanzi
    Arphic PL KaitiM GB font
    Arphic PL UKai font
You can redistribute and/or modify this file under the terms of the Arphic Public License
as published by Arphic Technology Co., Ltd.
You should have received a copy of this license along with this file.
If not, see http://ftp.gnu.org/non-gnu/chinese-fonts-truetype/LICENSE.
-->
<svg id="z34121" class="acjk" version="1.1" viewBox="0 0 1024 1024" xmlns="http://www.w3.org/2000/svg" xmlns:xlink="http://www.w3.org/1999/xlink">
<style>
<![CDATA[
@keyframes zk {
	to {
		stroke-dashoffset:0;
	}
}
svg.acjk path[clip-path] {
	--t:0.8s;
	animation:zk var(--t) linear forwards var(--d);
	stroke-dasharray:3337;
	stroke-dashoffset:3339;
	stroke-width:128;
	stroke-linecap:round;
	fill:none;
	stroke:#000;
}
svg.acjk path[id] {fill:#ccc;}
]]>
</style>
<path id="z34121d1" d="M651 191Q726 182 833 189Q849 190 855 181Q859 169 846 154Q801 112 690 136Q683 137 676 139C638 145 638 145 619 148Q537 158 448 173C419 176 419 176 405 178Q314 187 216 198Q185 201 207 217Q252 244 321 231Q367 221 413 212C439 208 439 208 452 206Q524 196 606 193C636 192 636 192 651 191Z"/>
<path id="z34121d2" d="M448 173Q445 139 444 112Q445 94 427 89Q391 71 370 79Q354 86 368 104Q393 135 404 172Q404 175 405 178C410 201 410 201 413 212Q425 254 436 265Q449 275 452 264Q458 246 454 225Q453 215 452 206C449 184 449 184 448 173Z"/>
<path id="z34121d3" d="M676 139Q685 120 702 95Q717 82 707 70Q697 54 663 35Q648 25 631 33Q621 37 628 49Q637 71 619 148C610 178 610 178 606 193Q591 232 591 253Q592 266 607 256Q619 247 651 191C668 156 668 156 676 139Z"/>
<path id="z34121d4" d="M334 443Q361 413 384 385Q421 339 439 318Q449 306 446 297Q442 284 417 278Q389 269 377 273Q370 274 367 288Q352 381 132 572Q113 588 139 583Q205 571 308 469C325 452 325 452 334 443Z"/>
<path id="z34121d5" d="M365 684Q366 677 366 669Q365 540 369 511Q376 487 367 478Q351 460 340 448Q337 444 334 443C324 435 303 458 308 469Q314 479 319 544Q319 607 305 668Q293 708 325 751Q326 752 328 754Q344 767 354 744Q360 728 363 709C364 692 364 692 365 684Z"/>
<path id="z34121d6" d="M532 286Q565 323 588 332Q601 335 608 323Q612 313 610 299Q601 268 557 257Q527 251 521 253Q517 254 518 264Q519 274 532 286Z"/>
<path id="z34121d7" d="M558 394Q741 357 746 352Q753 345 750 338Q744 328 719 321Q694 315 668 325Q619 341 567 354Q509 367 440 372Q409 376 431 392Q470 413 514 402Q515 401 521 401C546 396 546 396 558 394Z"/>
<path id="z34121d8" d="M587 496Q642 486 691 479Q713 475 705 463Q695 450 671 445Q644 439 589 458C553 467 553 467 535 471Q486 481 443 492Q427 495 446 510Q458 517 483 514Q510 508 536 505C570 499 570 499 587 496Z"/>
<path id="z34121d9" d="M581 590Q645 577 699 571Q721 567 713 555Q703 542 679 536Q654 533 583 552C552 559 552 559 536 563Q481 573 435 584Q419 587 438 602Q451 611 477 606Q507 600 536 597C566 592 566 592 581 590Z"/>
<path id="z34121d10" d="M578 659Q579 622 581 590C582 565 582 565 583 552Q584 522 587 496C588 471 588 471 589 458Q595 425 589 419Q573 403 558 394C547 388 516 389 521 401Q534 428 535 471C536 494 536 494 536 505Q536 527 536 563C536 586 536 586 536 597Q536 627 536 665C536 679 578 673 578 659Z"/>
<path id="z34121d11" d="M536 665Q457 672 365 684C357 686 356 705 363 709Q390 727 416 720Q587 678 778 695C779 695 779 695 780 695Q798 695 802 688Q806 678 793 664Q741 625 683 642Q638 648 578 659C550 663 550 663 536 665Z"/>
<path id="z34121d12" d="M257 758Q227 813 188 861Q179 871 176 888Q172 913 178 929Q184 948 207 938Q264 907 277 821Q287 787 282 761Q278 751 272 750Q262 750 257 758Z"/>
<path id="z34121d13" d="M373 797Q413 882 436 890Q449 894 460 879Q464 866 461 844Q457 823 434 808Q400 780 385 772Q376 768 372 779Q369 786 373 797Z"/>
<path id="z34121d14" d="M547 780Q599 874 624 883Q637 887 648 870Q652 857 647 836Q640 812 614 795Q575 764 557 755Q548 751 545 762Q541 771 547 780Z"/>
<path id="z34121d15" d="M724 774Q776 829 836 909Q852 931 867 937Q877 940 885 929Q900 916 890 869Q878 805 727 741Q718 734 715 748Q714 761 724 774Z"/>
<defs>
	<clipPath id="z34121c1"><use xlink:href="#z34121d1"/></clipPath>
	<clipPath id="z34121c2"><use xlink:href="#z34121d2"/></clipPath>
	<clipPath id="z34121c3"><use xlink:href="#z34121d3"/></clipPath>
	<clipPath id="z34121c4"><use xlink:href="#z34121d4"/></clipPath>
	<clipPath id="z34121c5"><use xlink:href="#z34121d5"/></clipPath>
	<clipPath id="z34121c6"><use xlink:href="#z34121d6"/></clipPath>
	<clipPath id="z34121c7"><use xlink:href="#z34121d7"/></clipPath>
	<clipPath id="z34121c8"><use xlink:href="#z34121d8"/></clipPath>
	<clipPath id="z34121c9"><use xlink:href="#z34121d9"/></clipPath>
	<clipPath id="z34121c10"><use xlink:href="#z34121d10"/></clipPath>
	<clipPath id="z34121c11"><use xlink:href="#z34121d11"/></clipPath>
	<clipPath id="z34121c12"><use xlink:href="#z34121d12"/></clipPath>
	<clipPath id="z34121c13"><use xlink:href="#z34121d13"/></clipPath>
	<clipPath id="z34121c14"><use xlink:href="#z34121d14"/></clipPath>
	<clipPath id="z34121c15"><use xlink:href="#z34121d15"/></clipPath>
</defs>
<path style="--d:1s;" pathLength="3333" clip-path="url(#z34121c1)" d="M207 206L298 212L732 157L852 173"/>
<path style="--d:2s;" pathLength="3333" clip-path="url(#z34121c2)" d="M370 90L416 121L441 263"/>
<path style="--d:3s;" pathLength="3333" clip-path="url(#z34121c3)" d="M632 39L670 81L600 253"/>
<path style="--d:4s;" pathLength="3333" clip-path="url(#z34121c4)" d="M444 302L394 311L296 448L133 580"/>
<path style="--d:5s;" pathLength="3333" clip-path="url(#z34121c5)" d="M332 453L337 754"/>
<path style="--d:6s;" pathLength="3333" clip-path="url(#z34121c6)" d="M526 259L605 323"/>
<path style="--d:7s;" pathLength="3333" clip-path="url(#z34121c7)" d="M431 380L744 341"/>
<path style="--d:8s;" pathLength="3333" clip-path="url(#z34121c8)" d="M447 500L700 465"/>
<path style="--d:9s;" pathLength="3333" clip-path="url(#z34121c9)" d="M434 588L708 555"/>
<path style="--d:10s;" pathLength="3333" clip-path="url(#z34121c10)" d="M530 405L562 435L549 663"/>
<path style="--d:11s;" pathLength="3333" clip-path="url(#z34121c11)" d="M369 705L682 665L797 684"/>
<path style="--d:12s;" pathLength="3333" clip-path="url(#z34121c12)" d="M271 755L188 934"/>
<path style="--d:13s;" pathLength="3333" clip-path="url(#z34121c13)" d="M379 780L449 884"/>
<path style="--d:14s;" pathLength="3333" clip-path="url(#z34121c14)" d="M553 763L637 877"/>
<path style="--d:15s;" pathLength="3333" clip-path="url(#z34121c15)" d="M722 746L837 848L874 933"/>
</svg>