<!--
AnimCJK 2016-2019 Copyright Francois Mizessyn - https://github.com/parsimonhi/animCJK
Derived from:
    MakeMeAHanzi project - https://github.com/skishore/makemeahanzi
    Arphic PL KaitiM GB font
    Arphic PL UKai font
You can redistribute and/or modify this file under the terms of the Arphic Public License
as published by Arphic Technology Co., Ltd.
You should have received a copy of this license along with this file.
If not, see http://ftp.gnu.org/non-gnu/chinese-fonts-truetype/LICENSE.
-->
<svg id="z34174" class="acjk" version="1.1" viewBox="0 0 1024 1024" xmlns="http://www.w3.org/2000/svg" xmlns:xlink="http://www.w3.org/1999/xlink">
<style>
<![CDATA[
@keyframes zk {
	to {
		stroke-dashoffset:0;
	}
}
svg.acjk path[clip-path] {
	--t:0.8s;
	animation:zk var(--t) linear forwards var(--d);
	stroke-dasharray:3337;
	stroke-dashoffset:3339;
	stroke-width:128;
	stroke-linecap:round;
	fill:none;
	stroke:#000;
}
svg.acjk path[id] {fill:#ccc;}
]]>
</style>
<path id="z34174d1" d="M627 189Q736 180 827 185Q842 186 847 178Q851 168 839 153Q791 116 708 135Q677 139 646 146C611 152 611 152 594 155Q509 167 418 179C388 183 388 183 373 185Q283 192 186 204Q158 207 178 221Q212 245 285 234Q331 221 381 213C407 209 407 209 420 207Q420 206 422 206Q498 196 584 192C613 190 613 190 627 189Z"/>
<path id="z34174d2" d="M418 179Q417 151 416 129Q417 110 399 105Q360 87 342 94Q326 101 339 120Q363 147 373 185C378 204 378 204 381 213Q390 258 404 273Q417 283 420 272Q426 257 420 207C419 188 419 188 418 179Z"/>
<path id="z34174d3" d="M646 146Q646 139 671 98Q684 85 674 76Q664 60 633 44Q618 35 603 43Q593 49 600 59Q609 83 594 155C587 180 587 180 584 192Q569 234 571 255C571 263 591 255 595 248Q601 242 627 189C640 160 640 160 646 146Z"/>
<path id="z34174d4" d="M571 255Q447 288 330 295Q296 299 319 315Q352 336 424 326Q439 323 457 322C486 317 486 317 501 315Q553 305 611 297Q659 288 666 282Q673 275 670 267Q664 255 638 248Q616 242 595 248C579 253 579 253 571 255Z"/>
<path id="z34174d5" d="M244 418Q232 396 221 390Q202 377 202 402Q206 432 176 479Q142 521 145 540Q152 573 163 589Q179 614 198 586Q213 561 224 523Q236 478 247 448C251 439 248 427 244 418Z"/>
<path id="z34174d6" d="M472 388Q271 415 244 418C234 420 238 444 247 448Q272 461 305 452Q413 422 474 417C503 413 503 413 517 411Q700 378 747 388Q763 401 760 408Q760 412 737 477Q730 490 737 495Q744 499 761 486Q813 450 856 438Q892 426 891 418Q890 408 817 357Q793 341 708 356Q593 369 518 382C487 386 487 386 472 388Z"/>
<path id="z34174d7" d="M457 322Q472 356 472 388C473 407 473 407 474 417Q477 456 466 541Q457 569 485 602Q494 612 502 602Q517 572 518 478Q518 445 517 411C518 392 518 392 518 382Q519 366 522 350Q528 331 510 320Q506 317 501 315C487 309 451 308 457 322Z"/>
<path id="z34174d8" d="M332 496Q386 535 410 531Q420 530 421 512Q420 502 407 488Q385 467 329 474Q322 474 323 484Q324 491 332 496Z"/>
<path id="z34174d9" d="M326 581Q377 624 397 621Q407 620 410 604Q409 594 398 579Q388 569 369 565Q338 558 325 559Q318 559 319 568Q319 575 326 581Z"/>
<path id="z34174d10" d="M583 460Q643 502 661 498Q673 497 674 480Q673 470 660 456Q636 432 581 438Q574 439 575 448Q576 455 583 460Z"/>
<path id="z34174d11" d="M578 549Q629 592 649 589Q659 588 662 572Q661 562 650 547Q640 537 621 533Q590 526 577 527Q570 527 571 536Q571 543 578 549Z"/>
<path id="z34174d12" d="M308 661Q287 648 264 641Q257 640 252 644Q245 650 253 661Q287 712 298 856Q299 913 335 942Q336 943 339 945Q357 951 358 920Q358 913 357 906C354 885 354 885 353 875Q352 863 348 851Q333 713 333 700C333 685 320 670 308 661Z"/>
<path id="z34174d13" d="M618 885Q628 910 648 955Q657 973 667 972Q683 971 693 944Q715 905 736 761Q743 712 766 683Q784 664 772 650Q750 628 704 605Q685 595 652 606Q513 651 308 661C293 661 318 705 333 700Q340 696 454 680C481 675 481 675 495 673Q556 663 627 654Q658 648 671 663Q690 697 661 845Q660 858 653 860Q649 863 629 851Q628 850 625 848C614 842 613 873 618 885Z"/>
<path id="z34174d14" d="M519 781Q559 774 598 771Q620 767 613 755Q603 742 579 736Q557 732 521 742C485 751 485 751 467 755Q425 762 387 772Q371 775 390 790Q400 797 421 794Q445 790 468 788C502 783 502 783 519 781Z"/>
<path id="z34174d15" d="M514 856Q515 816 519 781C520 755 520 755 521 742Q521 738 522 736Q522 729 523 721Q532 697 495 673C483 666 447 668 454 680Q463 692 467 755C468 777 468 777 468 788Q469 818 471 863C471 878 514 871 514 856Z"/>
<path id="z34174d16" d="M357 906Q361 906 367 906Q448 891 618 885C631 885 635 856 625 848Q624 847 623 846Q616 842 613 843Q600 839 581 844Q547 850 514 856C485 861 485 861 471 863Q407 870 353 875C343 877 347 906 357 906Z"/>
<defs>
	<clipPath id="z34174c1"><use xlink:href="#z34174d1"/></clipPath>
	<clipPath id="z34174c2"><use xlink:href="#z34174d2"/></clipPath>
	<clipPath id="z34174c3"><use xlink:href="#z34174d3"/></clipPath>
	<clipPath id="z34174c4"><use xlink:href="#z34174d4"/></clipPath>
	<clipPath id="z34174c5"><use xlink:href="#z34174d5"/></clipPath>
	<clipPath id="z34174c6"><use xlink:href="#z34174d6"/></clipPath>
	<clipPath id="z34174c7"><use xlink:href="#z34174d7"/></clipPath>
	<clipPath id="z34174c8"><use xlink:href="#z34174d8"/></clipPath>
	<clipPath id="z34174c9"><use xlink:href="#z34174d9"/></clipPath>
	<clipPath id="z34174c10"><use xlink:href="#z34174d10"/></clipPath>
	<clipPath id="z34174c11"><use xlink:href="#z34174d11"/></clipPath>
	<clipPath id="z34174c12"><use xlink:href="#z34174d12"/></clipPath>
	<clipPath id="z34174c13"><use xlink:href="#z34174d13"/></clipPath>
	<clipPath id="z34174c14"><use xlink:href="#z34174d14"/></clipPath>
	<clipPath id="z34174c15"><use xlink:href="#z34174d15"/></clipPath>
	<clipPath id="z34174c16"><use xlink:href="#z34174d16"/></clipPath>
</defs>
<path style="--d:1s;" pathLength="3333" clip-path="url(#z34174c1)" d="M179 212L744 156L844 170"/>
<path style="--d:2s;" pathLength="3333" clip-path="url(#z34174c2)" d="M339 102L387 134L413 271"/>
<path style="--d:3s;" pathLength="3333" clip-path="url(#z34174c3)" d="M605 47L640 86L578 248"/>
<path style="--d:4s;" pathLength="3333" clip-path="url(#z34174c4)" d="M319 304L663 272"/>
<path style="--d:5s;" pathLength="3333" clip-path="url(#z34174c5)" d="M210 396L221 443L179 596"/>
<path style="--d:6s;" pathLength="3333" clip-path="url(#z34174c6)" d="M251 424L751 368L822 408L836 441L743 487"/>
<path style="--d:7s;" pathLength="3333" clip-path="url(#z34174c7)" d="M464 323L496 351L489 599"/>
<path style="--d:8s;" pathLength="3333" clip-path="url(#z34174c8)" d="M333 485L414 524"/>
<path style="--d:9s;" pathLength="3333" clip-path="url(#z34174c9)" d="M325 567L405 607"/>
<path style="--d:10s;" pathLength="3333" clip-path="url(#z34174c10)" d="M581 446L668 488"/>
<path style="--d:11s;" pathLength="3333" clip-path="url(#z34174c11)" d="M577 535L657 575"/>
<path style="--d:12s;" pathLength="3333" clip-path="url(#z34174c12)" d="M257 651L304 707L343 942"/>
<path style="--d:13s;" pathLength="3333" clip-path="url(#z34174c13)" d="M318 666L357 677L685 631L726 675L688 860L657 918L624 860"/>
<path style="--d:14s;" pathLength="3333" clip-path="url(#z34174c14)" d="M387 777L607 755"/>
<path style="--d:15s;" pathLength="3333" clip-path="url(#z34174c15)" d="M463 686L494 717L485 860"/>
<path style="--d:16s;" pathLength="3333" clip-path="url(#z34174c16)" d="M361 880L622 863"/>
</svg>