<!--
AnimCJK 2016-2017 Copyright Francois Mizessyn, http://gooo.free.fr/animCJK/
Derived from:
    MakeMeAHanzi project - https://github.com/skishore/makemeahanzi
    Arphic PL KaitiM GB - https://apps.ubuntu.com/cat/applications/precise/fonts-arphic-gkai00mp/
    Arphic PL UKai - https://apps.ubuntu.com/cat/applications/fonts-arphic-ukai/
You can redistribute and/or modify this file under the terms of the Arphic Public License
as published by Arphic Technology Co., Ltd.
You should have received a copy of this license (the directory "APL") along with this file;
if not, see http://ftp.gnu.org/non-gnu/chinese-fonts-truetype/LICENSE.
-->
<svg id="z34183" class="acjk" version="1.1" viewBox="0 0 1024 1024" xmlns="http://www.w3.org/2000/svg" xmlns:xlink="http://www.w3.org/1999/xlink">
<style>
<![CDATA[
@keyframes z34183k {
	from {
		stroke:#c00;
		stroke-dashoffset:3334;
	}
	75% {
		stroke:#c00;
		stroke-dashoffset:0;
	}
	to {
		stroke:#000;
	}
}
#z34183 path[clip-path] {
	animation:z34183k 1s linear both;
	stroke-dasharray:3334;
	stroke-width:128;
	stroke-linecap:round;
	fill:none;
}
#z34183 path[clip-path="url(#z34183c1)"] {animation-delay:1s;}
#z34183 path[clip-path="url(#z34183c2)"] {animation-delay:2s;}
#z34183 path[clip-path="url(#z34183c3)"] {animation-delay:3s;}
#z34183 path[clip-path="url(#z34183c4)"] {animation-delay:4s;}
#z34183 path[clip-path="url(#z34183c5)"] {animation-delay:5s;}
#z34183 path[clip-path="url(#z34183c6)"] {animation-delay:6s;}
#z34183 path[clip-path="url(#z34183c7)"] {animation-delay:7s;}
#z34183 path[clip-path="url(#z34183c8)"] {animation-delay:8s;}
#z34183 path[clip-path="url(#z34183c9)"] {animation-delay:9s;}
#z34183 path[clip-path="url(#z34183c10)"] {animation-delay:10s;}
#z34183 path[clip-path="url(#z34183c11)"] {animation-delay:11s;}
#z34183 path[clip-path="url(#z34183c12)"] {animation-delay:12s;}
#z34183 path[clip-path="url(#z34183c13)"] {animation-delay:13s;}
#z34183 path[clip-path="url(#z34183c14)"] {animation-delay:14s;}
#z34183 path[clip-path="url(#z34183c15)"] {animation-delay:15s;}
#z34183 path[clip-path="url(#z34183c16)"] {animation-delay:16s;}
#z34183 path {fill:#ccc;}
]]>
</style>
<path id="z34183d1" d="M616 210Q703 201 801 209Q817 210 822 201Q828 189 814 174Q765 129 654 156Q645 156 638 159L584 168Q499 178 402 192L355 197Q288 201 212 210Q182 213 203 229Q249 256 303 248Q334 239 365 235L404 228Q452 215 574 212L616 210 Z"/>
<path id="z34183d2" d="M402 192Q399 161 398 138Q399 119 380 114Q340 96 320 103Q304 112 318 130Q343 158 354 193Q354 194 355 197L365 235Q371 266 387 285Q400 295 404 284Q410 265 404 228L402 192 Z"/>
<path id="z34183d3" d="M638 159Q645 140 660 116Q673 103 664 92Q652 76 620 61Q605 52 588 60Q579 66 586 76Q598 100 584 168L574 212Q561 251 563 273Q564 286 579 276Q598 261 616 210L638 159 Z"/>
<path id="z34183d4" d="M259 319Q268 346 211 424Q184 458 147 498Q140 505 137 509Q133 516 144 516Q192 507 289 394Q304 375 316 365Q323 358 321 348Q320 338 300 319Q282 304 269 302Q256 302 259 319 Z"/>
<path id="z34183d5" d="M251 599Q267 580 284 558Q305 528 322 514Q331 507 328 495Q325 485 304 464Q283 448 268 446Q252 446 257 464Q264 486 256 504Q228 562 186 616Q146 668 92 723Q82 730 80 736Q77 745 88 744Q124 738 228 626L251 599 Z"/>
<path id="z34183d6" d="M228 626Q253 695 223 820Q213 857 244 901L245 902Q260 915 269 893Q282 859 281 821Q282 695 288 667Q295 645 286 636Q261 606 251 599L228 626 Z"/>
<path id="z34183d7" d="M490 457Q499 402 507 353Q510 335 517 317Q520 310 507 298Q482 283 465 279Q455 276 448 282Q442 286 448 298Q463 319 458 465L490 457 Z"/>
<path id="z34183d8" d="M548 445Q517 449 490 457L458 465Q436 469 419 477Q406 481 408 465Q411 411 407 402Q379 374 359 377Q352 381 358 395Q371 423 367 454Q366 482 354 494Q341 509 347 519Q356 531 369 538Q379 544 387 537Q403 516 509 482Q536 476 548 476L548 445 Z"/>
<path id="z34183d9" d="M548 476Q549 491 555 502Q561 515 571 506Q589 490 598 425Q610 392 616 384Q623 374 615 362Q602 349 578 333Q568 327 559 331Q553 334 554 344Q563 356 563 395Q560 422 548 445L548 476 Z"/>
<path id="z34183d10" d="M376 581Q345 590 369 603Q408 615 479 596Q539 580 558 570Q565 561 560 554Q553 544 525 541Q510 540 432 567Q405 574 376 581 Z"/>
<path id="z34183d11" d="M406 665Q397 658 384 652Q371 645 361 648Q352 652 357 663Q358 666 361 671Q367 677 363 754Q356 814 321 877Q317 881 316 886Q315 893 322 892Q346 886 378 830Q403 773 414 706Q414 702 415 700L406 665 Z"/>
<path id="z34183d12" d="M415 700Q419 700 446 682Q470 672 478 678Q482 681 478 742Q477 791 462 836Q449 860 487 900Q496 909 503 903Q509 897 516 878Q544 829 605 742Q612 732 610 726Q609 720 600 729Q567 760 534 794Q513 816 515 787Q515 708 545 675Q555 668 547 657Q540 644 508 629Q498 625 484 633Q460 648 406 665L415 700 Z"/>
<path id="z34183d13" d="M676 484Q718 424 746 371Q758 346 769 333Q776 323 771 312Q767 302 740 285Q715 272 699 275Q684 278 693 296Q703 311 699 326Q683 407 615 525Q608 535 606 540Q605 550 616 546Q619 546 662 502L676 484 Z"/>
<path id="z34183d14" d="M763 505Q890 469 892 468Q899 461 895 454Q888 444 863 439Q838 435 812 447Q782 459 751 468Q715 478 676 484L662 502Q663 502 666 504Q690 517 720 514L763 505 Z"/>
<path id="z34183d15" d="M747 712Q751 700 784 591Q788 567 799 548Q808 532 793 523Q778 511 763 505L720 514Q732 535 729 580Q728 622 712 674Q711 675 710 678L693 718Q648 787 572 838Q560 847 571 849Q652 849 722 755L747 712 Z"/>
<path id="z34183d16" d="M722 755Q770 816 814 867Q827 883 852 884Q978 871 986 858Q989 852 980 848Q830 784 756 720Q752 716 747 712L710 678Q676 644 635 599Q625 586 610 584Q591 584 585 590Q584 594 589 598Q620 616 640 646Q667 683 693 718L722 755 Z"/>
<defs>
	<clipPath id="z34183c1"><use xlink:href="#z34183d1"/></clipPath>
	<clipPath id="z34183c2"><use xlink:href="#z34183d2"/></clipPath>
	<clipPath id="z34183c3"><use xlink:href="#z34183d3"/></clipPath>
	<clipPath id="z34183c4"><use xlink:href="#z34183d4"/></clipPath>
	<clipPath id="z34183c5"><use xlink:href="#z34183d5"/></clipPath>
	<clipPath id="z34183c6"><use xlink:href="#z34183d6"/></clipPath>
	<clipPath id="z34183c7"><use xlink:href="#z34183d7"/></clipPath>
	<clipPath id="z34183c8"><use xlink:href="#z34183d8"/></clipPath>
	<clipPath id="z34183c9"><use xlink:href="#z34183d9"/></clipPath>
	<clipPath id="z34183c10"><use xlink:href="#z34183d10"/></clipPath>
	<clipPath id="z34183c11"><use xlink:href="#z34183d11"/></clipPath>
	<clipPath id="z34183c12"><use xlink:href="#z34183d12"/></clipPath>
	<clipPath id="z34183c13"><use xlink:href="#z34183d13"/></clipPath>
	<clipPath id="z34183c14"><use xlink:href="#z34183d14"/></clipPath>
	<clipPath id="z34183c15"><use xlink:href="#z34183d15"/></clipPath>
	<clipPath id="z34183c16"><use xlink:href="#z34183d16"/></clipPath>
</defs>
<path pathLength="3333" clip-path="url(#z34183c1)" d="M201 217L280 226L719 175L819 189"/>
<path pathLength="3333" clip-path="url(#z34183c2)" d="M318 114L370 150L393 282"/>
<path pathLength="3333" clip-path="url(#z34183c3)" d="M591 67L629 108L574 275"/>
<path pathLength="3333" clip-path="url(#z34183c4)" d="M267 307L289 350L143 510"/>
<path pathLength="3333" clip-path="url(#z34183c5)" d="M265 451L292 502L175 657L87 736"/>
<path pathLength="3333" clip-path="url(#z34183c6)" d="M250 606L264 656L249 902"/>
<path pathLength="3333" clip-path="url(#z34183c7)" d="M455 286L486 324L471 461"/>
<path pathLength="3333" clip-path="url(#z34183c8)" d="M365 386L387 415L392 508L546 458"/>
<path pathLength="3333" clip-path="url(#z34183c9)" d="M561 335L591 378L565 501"/>
<path pathLength="3333" clip-path="url(#z34183c10)" d="M366 592L557 559"/>
<path pathLength="3333" clip-path="url(#z34183c11)" d="M364 653L387 685L383 755L323 885"/>
<path pathLength="3333" clip-path="url(#z34183c12)" d="M419 691L489 652L513 671L488 822L504 852L605 731"/>
<path pathLength="3333" clip-path="url(#z34183c13)" d="M697 283L735 327L613 542"/>
<path pathLength="3333" clip-path="url(#z34183c14)" d="M671 500L891 459"/>
<path pathLength="3333" clip-path="url(#z34183c15)" d="M728 518L765 546L723 708L648 803L573 844"/>
<path pathLength="3333" clip-path="url(#z34183c16)" d="M594 592L854 840L981 856"/>
</svg>