<!--
AnimCJK 2016-2018 Copyright Francois Mizessyn - https://github.com/parsimonhi/animCJK
Derived from:
    MakeMeAHanzi project - https://github.com/skishore/makemeahanzi
    Arphic PL KaitiM GB - https://apps.ubuntu.com/cat/applications/precise/fonts-arphic-gkai00mp/
    Arphic PL UKai - https://apps.ubuntu.com/cat/applications/fonts-arphic-ukai/
You can redistribute and/or modify this file under the terms of the Arphic Public License
as published by Arphic Technology Co., Ltd.
You should have received a copy of this license (the directory "APL") along with this file;
if not, see http://ftp.gnu.org/non-gnu/chinese-fonts-truetype/LICENSE.
-->
<svg id="z34191" class="acjk" version="1.1" viewBox="0 0 1024 1024" xmlns="http://www.w3.org/2000/svg" xmlns:xlink="http://www.w3.org/1999/xlink">
<style>
<![CDATA[
@keyframes z34191k {
	from {
		stroke:#ccc;
		stroke-dashoffset:3334;
	}
	1% {
		stroke:#c00;
		stroke-dashoffset:3334;
	}
	75% {
		stroke:#c00;
		stroke-dashoffset:0;
	}
	to {
		stroke:#000;
	}
}
#z34191 path[clip-path] {
	animation:z34191k 1s linear both;
	stroke-dasharray:3334;
	stroke-width:128;
	stroke-linecap:round;
	fill:none;
}
#z34191 path[clip-path="url(#z34191c1)"] {animation-delay:1s;}
#z34191 path[clip-path="url(#z34191c2)"] {animation-delay:2s;}
#z34191 path[clip-path="url(#z34191c3)"] {animation-delay:3s;}
#z34191 path[clip-path="url(#z34191c4)"] {animation-delay:4s;}
#z34191 path[clip-path="url(#z34191c5)"] {animation-delay:5s;}
#z34191 path[clip-path="url(#z34191c6)"] {animation-delay:6s;}
#z34191 path[clip-path="url(#z34191c7)"] {animation-delay:7s;}
#z34191 path[clip-path="url(#z34191c8)"] {animation-delay:8s;}
#z34191 path[clip-path="url(#z34191c9)"] {animation-delay:9s;}
#z34191 path[clip-path="url(#z34191c10)"] {animation-delay:10s;}
#z34191 path[clip-path="url(#z34191c11)"] {animation-delay:11s;}
#z34191 path[clip-path="url(#z34191c12)"] {animation-delay:12s;}
#z34191 path[clip-path="url(#z34191c13)"] {animation-delay:13s;}
#z34191 path[clip-path="url(#z34191c14)"] {animation-delay:14s;}
#z34191 path[clip-path="url(#z34191c15)"] {animation-delay:15s;}
#z34191 path[clip-path="url(#z34191c16)"] {animation-delay:16s;}
#z34191 path {fill:#ccc;}
]]>
</style>
<path id="z34191d1" d="M607 194Q694 185 791 193Q806 194 810 186Q814 176 803 161Q758 119 674 141Q652 144 629 148L576 156Q497 166 413 177L365 182Q289 188 206 196Q179 199 198 213Q240 241 301 228Q337 219 375 214L416 208Q446 198 567 195L607 194 Z"/>
<path id="z34191d2" d="M413 177Q410 153 409 135Q410 117 391 113Q357 95 334 104Q318 113 333 130Q355 152 365 182L375 214Q393 271 404 281Q416 291 420 280Q421 273 416 208L413 177 Z"/>
<path id="z34191d3" d="M629 148Q635 135 645 120Q658 108 649 99Q639 84 610 68Q597 59 581 67Q572 71 578 82Q587 100 576 156L567 195Q555 237 555 250Q556 263 570 253Q574 249 607 194L629 148 Z"/>
<path id="z34191d4" d="M456 256Q493 292 513 296Q523 297 528 288Q532 278 529 268Q523 252 510 244Q464 220 444 230Q440 231 443 240Q444 247 456 256 Z"/>
<path id="z34191d5" d="M601 331Q611 328 623 327Q669 318 677 312Q686 306 682 298Q676 288 652 280Q631 274 518 303Q412 321 345 325Q314 328 335 344Q365 365 437 355Q497 346 563 337L601 331 Z"/>
<path id="z34191d6" d="M375 391Q399 437 417 440Q427 443 434 429Q437 419 432 403Q423 384 382 370Q375 369 373 377Q372 383 375 391 Z"/>
<path id="z34191d7" d="M565 423Q578 408 593 389Q600 380 611 370Q623 363 617 353Q613 343 601 331L563 337Q563 358 535 418Q532 422 530 428L565 423 Z"/>
<path id="z34191d8" d="M530 428Q509 429 487 433Q348 449 184 467Q165 468 179 485Q192 498 209 504Q230 510 245 506Q428 458 806 458Q825 459 830 450Q836 440 820 426Q763 383 715 399Q652 409 565 423L530 428 Z"/>
<path id="z34191d9" d="M375 531Q365 527 330 521Q320 518 316 523Q312 529 319 543Q347 595 365 680Q369 705 385 722Q401 741 406 727Q409 715 408 698L404 675Q404 668 395 631L390 606Q384 575 382 560L375 531 Z"/>
<path id="z34191d10" d="M554 682Q570 710 585 718Q594 725 608 707Q620 691 648 601Q657 576 678 555Q690 545 681 532Q668 517 633 493Q618 484 552 499Q534 499 375 531L382 560Q382 559 384 559Q448 541 565 525Q590 521 599 530Q606 540 605 552Q583 646 573 657L554 682 Z"/>
<path id="z34191d11" d="M395 631Q471 615 529 605Q548 601 541 590Q532 578 511 575Q489 574 390 606L395 631 Z"/>
<path id="z34191d12" d="M408 698Q411 698 416 698Q494 688 554 682L573 657Q567 651 555 649Q533 643 404 675L408 698 Z"/>
<path id="z34191d13" d="M248 736Q223 791 187 840Q165 870 182 903Q188 921 209 910Q231 895 246 865Q267 826 270 792Q276 761 270 737Q266 728 260 727Q253 728 248 736 Z"/>
<path id="z34191d14" d="M325 764Q346 860 424 906Q530 967 710 936Q740 929 766 917Q788 905 790 891Q794 881 758 857Q704 809 664 761Q654 745 649 752Q645 758 649 771Q662 805 673 843Q680 864 674 873Q667 885 627 889Q477 901 410 845Q379 823 364 778Q357 756 345 752Q333 746 326 750Q322 753 325 764 Z"/>
<path id="z34191d15" d="M473 753Q513 795 548 813Q561 814 568 803Q572 793 570 779Q560 743 483 722L482 721Q469 718 461 721Q457 722 458 732Q459 742 473 753 Z"/>
<path id="z34191d16" d="M707 700Q759 737 822 792Q840 808 854 811Q863 812 869 801Q879 788 862 748Q850 711 777 689Q731 676 705 670Q696 666 695 678Q696 691 707 700 Z"/>
<defs>
	<clipPath id="z34191c1"><use xlink:href="#z34191d1"/></clipPath>
	<clipPath id="z34191c2"><use xlink:href="#z34191d2"/></clipPath>
	<clipPath id="z34191c3"><use xlink:href="#z34191d3"/></clipPath>
	<clipPath id="z34191c4"><use xlink:href="#z34191d4"/></clipPath>
	<clipPath id="z34191c5"><use xlink:href="#z34191d5"/></clipPath>
	<clipPath id="z34191c6"><use xlink:href="#z34191d6"/></clipPath>
	<clipPath id="z34191c7"><use xlink:href="#z34191d7"/></clipPath>
	<clipPath id="z34191c8"><use xlink:href="#z34191d8"/></clipPath>
	<clipPath id="z34191c9"><use xlink:href="#z34191d9"/></clipPath>
	<clipPath id="z34191c10"><use xlink:href="#z34191d10"/></clipPath>
	<clipPath id="z34191c11"><use xlink:href="#z34191d11"/></clipPath>
	<clipPath id="z34191c12"><use xlink:href="#z34191d12"/></clipPath>
	<clipPath id="z34191c13"><use xlink:href="#z34191d13"/></clipPath>
	<clipPath id="z34191c14"><use xlink:href="#z34191d14"/></clipPath>
	<clipPath id="z34191c15"><use xlink:href="#z34191d15"/></clipPath>
	<clipPath id="z34191c16"><use xlink:href="#z34191d16"/></clipPath>
</defs>
<path pathLength="3333" clip-path="url(#z34191c1)" d="M201 206L711 161L806 182"/>
<path pathLength="3333" clip-path="url(#z34191c2)" d="M332 115L382 144L412 279"/>
<path pathLength="3333" clip-path="url(#z34191c3)" d="M583 75L616 116L562 251"/>
<path pathLength="3333" clip-path="url(#z34191c4)" d="M449 236L525 282"/>
<path pathLength="3333" clip-path="url(#z34191c5)" d="M337 335L679 301"/>
<path pathLength="3333" clip-path="url(#z34191c6)" d="M381 379L423 435"/>
<path pathLength="3333" clip-path="url(#z34191c7)" d="M569 339L585 370L539 422"/>
<path pathLength="3333" clip-path="url(#z34191c8)" d="M181 475L240 484L743 426L827 437"/>
<path pathLength="3333" clip-path="url(#z34191c9)" d="M322 527L352 548L396 727"/>
<path pathLength="3333" clip-path="url(#z34191c10)" d="M381 534L590 507L626 521L644 551L572 704"/>
<path pathLength="3333" clip-path="url(#z34191c11)" d="M395 611L537 596"/>
<path pathLength="3333" clip-path="url(#z34191c12)" d="M410 680L566 662"/>
<path pathLength="3333" clip-path="url(#z34191c13)" d="M260 734L191 908"/>
<path pathLength="3333" clip-path="url(#z34191c14)" d="M332 754L418 877L561 918L680 909L737 880L653 756"/>
<path pathLength="3333" clip-path="url(#z34191c15)" d="M466 727L564 803"/>
<path pathLength="3333" clip-path="url(#z34191c16)" d="M702 679L813 740L864 802"/>
</svg>