<!--
AnimCJK 2016-2018 Copyright Francois Mizessyn - https://github.com/parsimonhi/animCJK
Derived from:
    MakeMeAHanzi project - https://github.com/skishore/makemeahanzi
    Arphic PL KaitiM GB - https://apps.ubuntu.com/cat/applications/precise/fonts-arphic-gkai00mp/
    Arphic PL UKai - https://apps.ubuntu.com/cat/applications/fonts-arphic-ukai/
You can redistribute and/or modify this file under the terms of the Arphic Public License
as published by Arphic Technology Co., Ltd.
You should have received a copy of this license (the directory "APL") along with this file;
if not, see http://ftp.gnu.org/non-gnu/chinese-fonts-truetype/LICENSE.
-->
<svg id="z34255" class="acjk" version="1.1" viewBox="0 0 1024 1024" xmlns="http://www.w3.org/2000/svg" xmlns:xlink="http://www.w3.org/1999/xlink">
<style>
<![CDATA[
@keyframes z34255k {
	from {
		stroke:#ccc;
		stroke-dashoffset:3334;
	}
	1% {
		stroke:#c00;
		stroke-dashoffset:3334;
	}
	75% {
		stroke:#c00;
		stroke-dashoffset:0;
	}
	to {
		stroke:#000;
	}
}
#z34255 path[clip-path] {
	animation:z34255k 1s linear both;
	stroke-dasharray:3334;
	stroke-width:128;
	stroke-linecap:round;
	fill:none;
}
#z34255 path[clip-path="url(#z34255c1)"] {animation-delay:1s;}
#z34255 path[clip-path="url(#z34255c2)"] {animation-delay:2s;}
#z34255 path[clip-path="url(#z34255c3)"] {animation-delay:3s;}
#z34255 path[clip-path="url(#z34255c4)"] {animation-delay:4s;}
#z34255 path[clip-path="url(#z34255c5)"] {animation-delay:5s;}
#z34255 path[clip-path="url(#z34255c6)"] {animation-delay:6s;}
#z34255 path[clip-path="url(#z34255c7)"] {animation-delay:7s;}
#z34255 path[clip-path="url(#z34255c8)"] {animation-delay:8s;}
#z34255 path[clip-path="url(#z34255c9)"] {animation-delay:9s;}
#z34255 path[clip-path="url(#z34255c10)"] {animation-delay:10s;}
#z34255 path[clip-path="url(#z34255c11)"] {animation-delay:11s;}
#z34255 path[clip-path="url(#z34255c12)"] {animation-delay:12s;}
#z34255 path[clip-path="url(#z34255c13)"] {animation-delay:13s;}
#z34255 path[clip-path="url(#z34255c14)"] {animation-delay:14s;}
#z34255 path[clip-path="url(#z34255c15)"] {animation-delay:15s;}
#z34255 path[clip-path="url(#z34255c16)"] {animation-delay:16s;}
#z34255 path[clip-path="url(#z34255c17)"] {animation-delay:17s;}
#z34255 path {fill:#ccc;}
]]>
</style>
<path id="z34255d1" d="M626 175C688 169 743 168 788 175C795 176 803 173 807 168C810 161 807 151 799 145C767 117 738 117 647 132L590 141C537 149 482 157 424 164L373 170C325 175 274 178 221 185C204 186 200 193 213 202C238 219 257 223 308 213C324 209 354 203 383 200L427 194C446 191 500 186 581 179 Z"/>
<path id="z34255d2" d="M424 164C422 150 422 140 422 130C422 117 415 110 404 106C374 95 356 89 345 95C332 100 331 109 342 122C354 135 367 151 373 170C378 188 379 190 383 200C394 233 399 257 411 269C418 276 425 275 428 267C430 259 431 235 427 194 Z"/>
<path id="z34255d3" d="M647 132C651 123 655 114 662 106C669 96 670 90 666 84C657 73 645 62 625 52C614 45 605 46 595 51C588 54 588 57 592 66C598 78 598 105 590 141L581 179C572 215 566 237 567 246C567 248 567 251 569 252L575 253C594 256 607 212 626 175 Z"/>
<path id="z34255d4" d="M579 332C501 354 427 363 360 371L358 404C372 410 399 408 420 404C474 392 530 384 588 374L639 365C649 363 661 360 674 358C712 349 735 342 742 338C748 333 749 328 746 323C741 316 731 308 714 304C693 298 669 305 641 314 Z"/>
<path id="z34255d5" d="M360 371C350 361 335 353 317 345C305 339 296 336 289 341C281 344 280 352 285 360C294 378 300 421 300 470L300 500C300 528 298 556 294 583L290 607C277 682 243 774 185 880C182 884 179 887 179 892C177 898 180 900 187 899C202 895 246 847 295 747C332 668 346 559 355 425C355 418 356 411 358 404 Z"/>
<path id="z34255d6" d="M300 470C272 472 248 478 227 486C218 488 215 484 217 474C225 418 227 385 222 379C204 358 188 349 176 352C169 353 168 360 173 370C183 396 186 421 183 448C179 472 173 490 162 501C153 509 149 518 154 526C159 533 168 539 177 545C183 549 190 549 195 544C209 526 246 512 300 500 Z"/>
<path id="z34255d7" d="M294 583C242 595 186 608 129 624C120 626 108 626 94 626C87 625 82 629 82 635C80 641 82 647 87 651C97 659 110 668 127 678C131 680 137 679 144 675C151 669 158 664 167 660L194 646C198 643 230 631 290 607 Z"/>
<path id="z34255d8" d="M167 660C153 726 131 783 99 828C97 830 94 832 93 835C90 839 92 841 97 841C103 841 111 835 125 826C156 804 183 753 201 713C207 698 214 689 222 672C226 661 209 652 194 646 Z"/>
<path id="z34255d9" d="M510 478C522 474 537 470 554 467C566 464 574 462 576 460C580 456 580 452 578 448C575 443 567 438 553 436C540 433 513 441 470 455C452 460 433 462 413 466L429 490C440 493 463 489 482 485 Z"/>
<path id="z34255d10" d="M514 546C516 534 519 518 522 510C524 498 522 490 510 478L482 485C485 495 483 539 482 558 Z"/>
<path id="z34255d11" d="M563 644C575 618 588 602 600 594C609 586 610 576 602 568C594 560 577 552 553 541C540 535 529 540 514 546L482 558C477 559 438 568 421 572L419 596C427 596 461 589 522 578C527 576 532 577 535 580C537 582 539 587 538 594C535 610 531 624 527 638 Z"/>
<path id="z34255d12" d="M515 676C531 673 549 671 571 669C577 668 580 665 580 660C580 657 574 652 563 644L527 638C496 649 449 658 414 667L413 681C417 685 421 688 427 690C432 691 439 690 446 689C454 686 466 684 480 682 Z"/>
<path id="z34255d13" d="M512 748C513 724 518 688 515 676L480 682C482 691 480 734 478 755 Z"/>
<path id="z34255d14" d="M413 466C408 463 402 459 396 455C386 448 379 447 375 451C371 453 370 459 374 467C391 503 391 596 370 745C368 755 362 767 354 781C349 787 348 796 353 807C356 817 361 824 366 829C370 833 377 831 386 825C414 802 476 785 573 777C585 776 591 774 591 768C590 761 583 753 569 744C559 737 540 742 512 748L478 755C460 758 440 761 419 767C416 767 414 767 412 767C409 766 408 763 409 758C410 733 411 707 413 681L414 667C415 644 416 620 419 596L421 572C425 523 423 496 429 490 Z"/>
<path id="z34255d15" d="M569 252C558 249 549 251 542 255C529 260 523 270 534 281C554 300 575 313 579 332L588 374C617 512 641 625 681 707L704 754C731 810 770 858 822 899C860 929 889 946 909 944C921 942 923 931 921 912C916 882 917 823 919 737C919 722 916 713 911 713C908 712 895 741 871 799C861 823 847 831 832 824C827 821 821 818 817 814C769 770 744 733 733 708L708 654C684 603 641 440 640 370C640 367 638 366 639 365L641 314C642 287 630 269 596 259C588 256 581 254 575 253 Z"/>
<path id="z34255d16" d="M681 707C656 755 607 806 550 867C545 871 545 875 550 877C554 878 560 876 567 873C605 850 640 822 673 789C683 778 695 767 704 754L733 708C755 672 779 616 799 536C803 517 809 498 819 481C822 474 822 468 818 462C813 456 801 447 781 440C766 434 755 433 750 435C741 437 738 444 741 454C752 508 736 598 708 654 Z"/>
<path id="z34255d17" d="M733 252C749 263 766 277 784 292C792 298 801 301 809 300C815 299 819 295 821 288C823 279 821 267 815 252C807 233 777 220 726 213C717 211 711 211 708 213C704 214 704 220 706 227C708 233 717 241 733 252 Z"/>
<defs>
	<clipPath id="z34255c1"><use xlink:href="#z34255d1"/></clipPath>
	<clipPath id="z34255c2"><use xlink:href="#z34255d2"/></clipPath>
	<clipPath id="z34255c3"><use xlink:href="#z34255d3"/></clipPath>
	<clipPath id="z34255c4"><use xlink:href="#z34255d4"/></clipPath>
	<clipPath id="z34255c5"><use xlink:href="#z34255d5"/></clipPath>
	<clipPath id="z34255c6"><use xlink:href="#z34255d6"/></clipPath>
	<clipPath id="z34255c7"><use xlink:href="#z34255d7"/></clipPath>
	<clipPath id="z34255c8"><use xlink:href="#z34255d8"/></clipPath>
	<clipPath id="z34255c9"><use xlink:href="#z34255d9"/></clipPath>
	<clipPath id="z34255c10"><use xlink:href="#z34255d10"/></clipPath>
	<clipPath id="z34255c11"><use xlink:href="#z34255d11"/></clipPath>
	<clipPath id="z34255c12"><use xlink:href="#z34255d12"/></clipPath>
	<clipPath id="z34255c13"><use xlink:href="#z34255d13"/></clipPath>
	<clipPath id="z34255c14"><use xlink:href="#z34255d14"/></clipPath>
	<clipPath id="z34255c15"><use xlink:href="#z34255d15"/></clipPath>
	<clipPath id="z34255c16"><use xlink:href="#z34255d16"/></clipPath>
	<clipPath id="z34255c17"><use xlink:href="#z34255d17"/></clipPath>
</defs>
<path pathLength="3333" clip-path="url(#z34255c1)" d="M215 192L704 146L803 157"/>
<path pathLength="3333" clip-path="url(#z34255c2)" d="M343 105L394 141L420 267"/>
<path pathLength="3333" clip-path="url(#z34255c3)" d="M597 57L632 98L575 245"/>
<path pathLength="3333" clip-path="url(#z34255c4)" d="M363 398L743 325"/>
<path pathLength="3333" clip-path="url(#z34255c5)" d="M292 344L327 387L312 606L263 766L186 892"/>
<path pathLength="3333" clip-path="url(#z34255c6)" d="M180 359L204 411L190 506L299 484"/>
<path pathLength="3333" clip-path="url(#z34255c7)" d="M90 638L137 650L288 591"/>
<path pathLength="3333" clip-path="url(#z34255c8)" d="M194 652L158 761L100 836"/>
<path pathLength="3333" clip-path="url(#z34255c9)" d="M423 468L574 456"/>
<path pathLength="3333" clip-path="url(#z34255c10)" d="M507 484L495 552"/>
<path pathLength="3333" clip-path="url(#z34255c11)" d="M426 589L547 562L572 583L540 639"/>
<path pathLength="3333" clip-path="url(#z34255c12)" d="M419 677L575 660"/>
<path pathLength="3333" clip-path="url(#z34255c13)" d="M513 683L490 751"/>
<path pathLength="3333" clip-path="url(#z34255c14)" d="M380 459L405 496L389 796L582 764"/>
<path pathLength="3333" clip-path="url(#z34255c15)" d="M536 268L609 312L663 594L765 803L833 864L894 892L910 723"/>
<path pathLength="3333" clip-path="url(#z34255c16)" d="M749 443L783 483L725 675L651 783L557 871"/>
<path pathLength="3333" clip-path="url(#z34255c17)" d="M714 221L811 293"/>
</svg>