<!--
AnimCJK 2016-2017 Copyright Francois Mizessyn, http://gooo.free.fr/animCJK/
Derived from:
    MakeMeAHanzi project - https://github.com/skishore/makemeahanzi
    Arphic PL KaitiM GB - https://apps.ubuntu.com/cat/applications/precise/fonts-arphic-gkai00mp/
    Arphic PL UKai - https://apps.ubuntu.com/cat/applications/fonts-arphic-ukai/
You can redistribute and/or modify this file under the terms of the Arphic Public License
as published by Arphic Technology Co., Ltd.
You should have received a copy of this license (the directory "APL") along with this file;
if not, see http://ftp.gnu.org/non-gnu/chinese-fonts-truetype/LICENSE.
-->
<svg id="z34276" class="acjk" version="1.1" viewBox="0 0 1024 1024" xmlns="http://www.w3.org/2000/svg" xmlns:xlink="http://www.w3.org/1999/xlink">
<style>
<![CDATA[
	@keyframes z34276k {
		from {
			stroke:#c00;
			stroke-dashoffset:3000;
		}
		75% {
			stroke:#c00;
			stroke-dashoffset:0;
		}
		to {
			stroke:#000;
		}
	}
	#z34276 path[clip-path] {
		animation:z34276k 1s linear both;
		stroke-dasharray:3000;
		stroke-width:128;
		stroke-linecap:round;
		fill:none;
	}
	#z34276 path[clip-path="url(#z34276c1)"] {animation-delay:1s;}
	#z34276 path[clip-path="url(#z34276c2)"] {animation-delay:2s;}
	#z34276 path[clip-path="url(#z34276c3)"] {animation-delay:3s;}
	#z34276 path[clip-path="url(#z34276c4)"] {animation-delay:4s;}
	#z34276 path[clip-path="url(#z34276c5)"] {animation-delay:5s;}
	#z34276 path[clip-path="url(#z34276c6)"] {animation-delay:6s;}
	#z34276 path[clip-path="url(#z34276c7)"] {animation-delay:7s;}
	#z34276 path[clip-path="url(#z34276c8)"] {animation-delay:8s;}
	#z34276 path[clip-path="url(#z34276c9)"] {animation-delay:9s;}
	#z34276 path[clip-path="url(#z34276c10)"] {animation-delay:10s;}
	#z34276 path[clip-path="url(#z34276c11)"] {animation-delay:11s;}
	#z34276 path[clip-path="url(#z34276c12)"] {animation-delay:12s;}
	#z34276 path[clip-path="url(#z34276c13)"] {animation-delay:13s;}
	#z34276 path[clip-path="url(#z34276c14)"] {animation-delay:14s;}
	#z34276 path[clip-path="url(#z34276c15)"] {animation-delay:15s;}
	#z34276 path[clip-path="url(#z34276c16)"] {animation-delay:16s;}
	#z34276 path[clip-path="url(#z34276c17)"] {animation-delay:17s;}
	#z34276 path[clip-path="url(#z34276c18)"] {animation-delay:18s;}
	#z34276 path {fill:#ccc;}
]]>
</style>
<g transform="scale(1,-1) translate(0,-900)">
	<path id="z34276d1" d="M623 727Q656 739 776 729Q789 728 795 736Q799 746 787 759Q738 798 652 776Q648 776 644 774L591 766Q510 756 421 743L379 739Q301 732 217 723Q192 720 209 706Q246 681 297 690Q343 702 386 708L424 714Q430 721 581 727L623 727Z"/>
	<path id="z34276d2" d="M421 743Q420 774 418 797Q419 815 402 820Q366 838 348 830Q332 823 345 805Q369 775 379 739L386 708Q395 668 408 650Q420 641 424 651Q430 669 426 689Q425 702 424 714L421 743Z"/>
	<path id="z34276d3" d="M580 657Q592 667 623 727L644 774Q651 792 666 814Q679 827 670 836Q660 852 629 868Q614 877 599 869Q589 865 596 854Q605 833 591 766L581 727Q568 681 567 658L580 657Z"/>
	<path id="z34276d4" d="M228 581Q215 591 194 598Q178 605 168 601Q158 595 165 584Q210 532 172 299Q166 269 159 240Q138 164 76 46Q72 40 71 36Q70 26 78 29Q103 35 164 145Q173 166 182 188Q197 228 207 274L213 304Q222 352 226 398L228 430Q229 449 230 467Q233 542 236 554L228 581Z"/>
	<path id="z34276d5" d="M372 249Q368 531 378 554Q390 572 380 582Q362 598 331 610Q315 617 302 610Q281 597 268 592Q255 588 228 581L236 554Q258 557 295 571Q311 575 316 568Q338 484 322 156Q313 107 312 103Q308 100 245 115Q229 121 229 112Q277 69 304 38Q316 22 328 17Q335 14 343 22Q376 67 377 125Q373 177 372 237L372 249Z"/>
	<path id="z34276d6" d="M226 398Q263 407 294 411Q313 415 305 426Q295 436 274 439Q255 440 228 430L226 398Z"/>
	<path id="z34276d7" d="M207 274Q211 274 216 274Q261 284 294 289Q315 295 306 305Q296 317 272 319Q251 319 213 304L207 274Z"/>
	<path id="z34276d8" d="M456 594Q489 539 509 535Q519 534 526 547Q527 557 523 573Q508 601 462 614Q455 615 453 607Q452 601 456 594Z"/>
	<path id="z34276d9" d="M699 642Q689 623 667 589Q663 585 667 579Q673 578 678 582Q727 616 752 630Q765 634 761 642Q757 652 742 665Q729 678 712 678Q702 677 703 664Q704 654 699 642Z"/>
	<path id="z34276d10" d="M590 480Q743 516 747 517Q754 524 750 531Q744 540 721 546Q697 550 673 542Q637 532 602 520L553 508Q511 502 467 498Q437 494 458 479Q491 461 537 470Q538 471 544 471L590 480Z"/>
	<path id="z34276d11" d="M671 404Q720 407 838 408Q854 409 859 415Q863 425 849 436Q803 472 750 455Q593 431 572 425L526 419Q466 412 402 402Q386 401 398 386Q425 362 475 376Q490 380 507 382L559 392Q583 398 643 402L671 404Z"/>
	<path id="z34276d12" d="M572 425Q581 452 590 480L602 520Q614 572 627 606Q634 621 620 632Q593 653 580 657L567 658Q557 657 565 640Q577 603 553 508L544 471Q543 470 543 467Q537 445 526 419L507 382Q455 304 383 256Q376 253 372 249L372 237Q421 228 508 312Q518 325 530 338Q545 362 559 392L572 425Z"/>
	<path id="z34276d13" d="M643 402Q658 372 788 242Q824 203 968 231Q984 232 985 237Q986 243 974 248Q803 308 748 345Q729 360 671 404L643 402Z"/>
	<path id="z34276d14" d="M551 48Q526 52 501 59Q491 60 491 55Q492 49 501 42Q556 -10 576 -41Q588 -56 601 -44Q634 -13 630 80Q624 233 638 269Q645 285 631 296Q609 315 584 324Q568 330 562 323Q556 319 566 305Q593 254 581 72Q575 41 551 48Z"/>
	<path id="z34276d15" d="M479 213Q518 179 527 179Q534 179 538 188Q541 198 534 219Q528 234 475 246Q465 247 460 246Q456 243 458 235Q459 228 479 213Z"/>
	<path id="z34276d16" d="M398 76Q389 72 390 65Q391 55 399 52Q418 46 444 40Q451 40 457 48Q469 66 527 124Q536 133 541 141Q548 148 546 155Q543 155 420 84Q413 80 398 76Z"/>
	<path id="z34276d17" d="M690 252Q680 233 655 202Q651 196 655 192Q661 191 666 194Q718 225 742 238Q755 241 752 249Q748 259 734 273Q721 286 705 288Q695 287 695 274Q696 264 690 252Z"/>
	<path id="z34276d18" d="M665 135Q717 95 780 36Q795 20 808 18Q815 17 821 26Q830 38 816 74Q804 119 664 161Q655 165 655 154Q655 142 665 135Z"/>
	<defs>
		<clipPath id="z34276c1"><use xlink:href="#z34276d1"/></clipPath>
		<clipPath id="z34276c2"><use xlink:href="#z34276d2"/></clipPath>
		<clipPath id="z34276c3"><use xlink:href="#z34276d3"/></clipPath>
		<clipPath id="z34276c4"><use xlink:href="#z34276d4"/></clipPath>
		<clipPath id="z34276c5"><use xlink:href="#z34276d5"/></clipPath>
		<clipPath id="z34276c6"><use xlink:href="#z34276d6"/></clipPath>
		<clipPath id="z34276c7"><use xlink:href="#z34276d7"/></clipPath>
		<clipPath id="z34276c8"><use xlink:href="#z34276d8"/></clipPath>
		<clipPath id="z34276c9"><use xlink:href="#z34276d9"/></clipPath>
		<clipPath id="z34276c10"><use xlink:href="#z34276d10"/></clipPath>
		<clipPath id="z34276c11"><use xlink:href="#z34276d11"/></clipPath>
		<clipPath id="z34276c12"><use xlink:href="#z34276d12"/></clipPath>
		<clipPath id="z34276c13"><use xlink:href="#z34276d13"/></clipPath>
		<clipPath id="z34276c14"><use xlink:href="#z34276d14"/></clipPath>
		<clipPath id="z34276c15"><use xlink:href="#z34276d15"/></clipPath>
		<clipPath id="z34276c16"><use xlink:href="#z34276d16"/></clipPath>
		<clipPath id="z34276c17"><use xlink:href="#z34276d17"/></clipPath>
		<clipPath id="z34276c18"><use xlink:href="#z34276d18"/></clipPath>
	</defs>
	<path pathLength="2999" clip-path="url(#z34276c1)" d="M210 716L703 759L791 744"/>
	<path pathLength="2999" clip-path="url(#z34276c2)" d="M346 822L391 788L414 654"/>
	<path pathLength="2999" clip-path="url(#z34276c3)" d="M600 865L636 823L575 662"/>
	<path pathLength="2999" clip-path="url(#z34276c4)" d="M171 594L210 540L196 324L154 168L77 37"/>
	<path pathLength="2999" clip-path="url(#z34276c5)" d="M236 578L312 593L351 563L344 105L319 60L240 109"/>
	<path pathLength="2999" clip-path="url(#z34276c6)" d="M232 406L298 421"/>
	<path pathLength="2999" clip-path="url(#z34276c7)" d="M213 282L302 302"/>
	<path pathLength="2999" clip-path="url(#z34276c8)" d="M460 606L518 545"/>
	<path pathLength="2999" clip-path="url(#z34276c9)" d="M711 673L725 632L672 588"/>
	<path pathLength="2999" clip-path="url(#z34276c10)" d="M462 487L744 527"/>
	<path pathLength="2999" clip-path="url(#z34276c11)" d="M399 396L855 426"/>
	<path pathLength="2999" clip-path="url(#z34276c12)" d="M571 650L599 608L543 407L477 311L378 244"/>
	<path pathLength="2999" clip-path="url(#z34276c13)" d="M653 398L817 267L977 239"/>
	<path pathLength="2999" clip-path="url(#z34276c14)" d="M569 318L609 275L603 45L572 -1L497 52"/>
	<path pathLength="2999" clip-path="url(#z34276c15)" d="M462 240L531 185"/>
	<path pathLength="2999" clip-path="url(#z34276c16)" d="M395 65L440 66L539 146"/>
	<path pathLength="2999" clip-path="url(#z34276c17)" d="M706 282L718 244L661 199"/>
	<path pathLength="2999" clip-path="url(#z34276c18)" d="M660 155L783 74L810 22"/>
</g>
</svg>