<!--
AnimCJK 2016-2019 Copyright Francois Mizessyn - https://github.com/parsimonhi/animCJK
Derived from:
    MakeMeAHanzi project - https://github.com/skishore/makemeahanzi
    Arphic PL KaitiM GB font
    Arphic PL UKai font
You can redistribute and/or modify this file under the terms of the Arphic Public License
as published by Arphic Technology Co., Ltd.
You should have received a copy of this license along with this file.
If not, see http://ftp.gnu.org/non-gnu/chinese-fonts-truetype/LICENSE.
-->
<svg id="z34272" class="acjk" version="1.1" viewBox="0 0 1024 1024" xmlns="http://www.w3.org/2000/svg" xmlns:xlink="http://www.w3.org/1999/xlink">
<style>
<![CDATA[
@keyframes zk {
	to {
		stroke-dashoffset:0;
	}
}
svg.acjk path[clip-path] {
	--t:0.8s;
	animation:zk var(--t) linear forwards var(--d);
	stroke-dasharray:3337;
	stroke-dashoffset:3339;
	stroke-width:128;
	stroke-linecap:round;
	fill:none;
	stroke:#000;
}
svg.acjk path[id] {fill:#ccc;}
]]>
</style>
<path id="z34272d1" d="M369 217C318 223 248 238 209 238C176 239 153 213 153 206C153 200 159 198 195 197C233 195 338 186 360 184C392 180 392 180 408 178C433 176 560 160 591 155C629 148 629 148 648 145C709 135 790 110 830 134C844 143 862 156 867 163C874 173 872 181 863 185C855 189 845 189 815 187C793 185 777 184 727 185C694 185 659 187 628 189C595 191 595 191 578 192C528 196 432 209 410 212C383 215 383 215 369 217Z"/>
<path id="z34272d2" d="M394 288C388 285 376 247 369 217C363 195 363 195 360 184C353 155 330 125 312 111C298 100 299 92 305 86C315 76 363 84 388 100C393 104 397 107 399 111C402 116 405 147 408 178C409 201 409 201 410 212C412 241 414 276 411 283C407 290 401 292 394 288Z"/>
<path id="z34272d3" d="M591 155C605 112 597 73 586 48C583 41 595 36 606 38C626 41 670 64 677 76C683 85 680 94 667 111C658 123 653 132 648 145C635 174 635 174 628 189C618 210 599 246 581 265C568 279 560 283 557 275C555 270 563 236 578 192C587 167 587 167 591 155Z"/>
<path id="z34272d4" d="M401 349C434 306 455 278 456 256C457 237 461 233 479 236C496 239 522 253 531 267C534 272 528 276 518 282C502 292 473 312 442 341C431 350 393 360 401 349Z"/>
<path id="z34272d5" d="M295 348C275 349 284 372 298 384C313 398 318 409 328 424C341 446 349 465 360 496C362 505 366 516 368 520C373 529 383 539 389 542C395 545 397 545 401 543C403 542 406 526 407 526C407 526 403 510 401 502C397 487 387 455 387 455C388 455 381 432 380 431C379 430 360 380 361 380C361 380 346 357 346 357C329 351 309 347 295 348Z"/>
<path id="z34272d6" d="M401 349C383 353 365 354 346 357C337 359 352 382 361 380C400 373 432 367 476 361C598 344 637 332 647 355C658 379 616 470 600 478C590 485 587 503 593 513C599 524 614 537 635 510C666 471 704 393 734 370C749 358 751 353 751 347C751 338 739 327 716 312C674 284 663 282 617 297C590 306 561 317 516 326C475 335 458 337 442 341C415 346 415 346 401 349Z"/>
<path id="z34272d7" d="M380 431C487 412 522 404 538 399C567 391 585 407 587 411C593 425 586 427 524 438C459 450 387 455 387 455C379 455 372 433 380 431Z"/>
<path id="z34272d8" d="M600 478C556 479 496 486 401 502C392 504 397 532 406 529C457 515 539 508 559 507C573 507 585 509 593 513C604 517 612 478 600 478Z"/>
<path id="z34272d9" d="M232 643C251 616 261 601 269 586C279 569 286 552 286 543C286 540 286 534 285 529C282 517 284 514 291 512C301 509 329 516 351 526C358 530 366 537 366 539C366 544 362 549 352 558C331 574 294 610 268 638C259 647 225 653 232 643Z"/>
<path id="z34272d10" d="M147 668C157 680 165 692 172 720C180 749 185 775 189 828C191 852 195 874 202 884C214 904 233 899 233 860C233 841 233 841 233 832C233 831 232 804 227 762C225 744 225 744 224 735C222 708 216 688 216 673C216 663 208 652 199 647C191 643 186 638 169 635C139 630 124 640 147 668Z"/>
<path id="z34272d11" d="M434 603C425 603 414 606 396 611C375 618 289 636 268 638C244 641 244 641 232 643C221 644 210 645 199 647C189 649 206 675 216 673C216 673 328 655 365 650C418 642 422 643 426 666C430 693 420 835 405 836C397 844 368 846 376 854C381 859 385 865 390 884C395 903 400 913 404 915C409 917 415 918 419 915C424 913 436 900 441 892C455 870 461 848 476 764C489 688 490 686 504 665C507 660 509 656 509 652C510 646 510 646 504 640C492 628 460 610 446 605C442 604 438 604 434 603Z"/>
<path id="z34272d12" d="M224 735C320 717 342 700 369 719C374 725 370 734 360 739C343 747 259 756 227 762C218 763 215 737 224 735Z"/>
<path id="z34272d13" d="M233 860C278 852 356 849 376 854C387 856 414 844 405 838C389 828 372 821 354 819C330 816 279 826 233 832C224 834 224 862 233 860Z"/>
<path id="z34272d14" d="M615 612C655 562 681 525 685 501C688 484 692 482 705 484C716 487 739 494 747 498C756 503 760 506 760 511C760 518 756 524 742 532C731 539 699 561 655 605C645 615 607 623 615 612Z"/>
<path id="z34272d15" d="M573 617C558 612 535 609 526 615C520 618 523 628 531 640C548 665 559 720 562 790C565 856 567 871 573 883C577 890 583 893 588 891C593 889 603 874 603 848C603 828 603 828 603 818C603 818 602 768 601 742C601 725 601 725 601 716C601 715 598 655 593 639C591 629 583 619 573 617Z"/>
<path id="z34272d16" d="M816 569C807 569 795 571 773 578C743 586 659 604 655 605C628 610 628 610 615 612C608 613 580 616 573 617C563 619 583 639 593 639C621 637 654 635 715 626C777 616 795 616 801 618C807 620 810 625 812 632C815 643 813 698 808 740C804 779 799 819 783 821C774 825 760 836 765 844C769 850 773 861 778 879C783 895 789 910 794 915C799 920 803 921 810 917C827 907 847 863 859 812C863 791 867 770 870 738C877 678 882 658 893 641C899 630 902 621 899 616C893 604 844 574 824 570C822 569 819 569 816 569Z"/>
<path id="z34272d17" d="M601 716C601 716 608 715 616 713C632 710 640 708 676 697C696 691 712 688 722 688C747 688 763 703 751 714C746 719 737 722 718 727C681 736 648 741 621 742C608 742 608 742 601 742C601 742 601 715 601 716Z"/>
<path id="z34272d18" d="M603 848C659 839 733 829 765 844C774 848 790 828 783 821C766 804 744 796 725 796C685 798 640 810 603 818C593 820 593 850 603 848Z"/>
<defs>
	<clipPath id="z34272c1"><use xlink:href="#z34272d1"/></clipPath>
	<clipPath id="z34272c2"><use xlink:href="#z34272d2"/></clipPath>
	<clipPath id="z34272c3"><use xlink:href="#z34272d3"/></clipPath>
	<clipPath id="z34272c4"><use xlink:href="#z34272d4"/></clipPath>
	<clipPath id="z34272c5"><use xlink:href="#z34272d5"/></clipPath>
	<clipPath id="z34272c6"><use xlink:href="#z34272d6"/></clipPath>
	<clipPath id="z34272c7"><use xlink:href="#z34272d7"/></clipPath>
	<clipPath id="z34272c8"><use xlink:href="#z34272d8"/></clipPath>
	<clipPath id="z34272c9"><use xlink:href="#z34272d9"/></clipPath>
	<clipPath id="z34272c10"><use xlink:href="#z34272d10"/></clipPath>
	<clipPath id="z34272c11"><use xlink:href="#z34272d11"/></clipPath>
	<clipPath id="z34272c12"><use xlink:href="#z34272d12"/></clipPath>
	<clipPath id="z34272c13"><use xlink:href="#z34272d13"/></clipPath>
	<clipPath id="z34272c14"><use xlink:href="#z34272d14"/></clipPath>
	<clipPath id="z34272c15"><use xlink:href="#z34272d15"/></clipPath>
	<clipPath id="z34272c16"><use xlink:href="#z34272d16"/></clipPath>
	<clipPath id="z34272c17"><use xlink:href="#z34272d17"/></clipPath>
	<clipPath id="z34272c18"><use xlink:href="#z34272d18"/></clipPath>
</defs>
<path style="--d:1s;" pathLength="3333" clip-path="url(#z34272c1)" d="M165 202L227 219L778 154L864 173"/>
<path style="--d:2s;" pathLength="3333" clip-path="url(#z34272c2)" d="M307 94L366 125L403 281"/>
<path style="--d:3s;" pathLength="3333" clip-path="url(#z34272c3)" d="M597 47L641 101L564 271"/>
<path style="--d:4s;" pathLength="3333" clip-path="url(#z34272c4)" d="M470 240L491 269L417 341"/>
<path style="--d:5s;" pathLength="3333" clip-path="url(#z34272c5)" d="M294 362L334 383L397 538"/>
<path style="--d:6s;" pathLength="3333" clip-path="url(#z34272c6)" d="M222 651L427 625L472 657L413 901L396 871"/>
<path style="--d:7s;" pathLength="3333" clip-path="url(#z34272c7)" d="M236 755L361 723"/>
<path style="--d:8s;" pathLength="3333" clip-path="url(#z34272c8)" d="M240 840L382 838"/>
<path style="--d:9s;" pathLength="3333" clip-path="url(#z34272c9)" d="M697 493L719 521L632 603"/>
<path style="--d:10s;" pathLength="3333" clip-path="url(#z34272c10)" d="M529 622L571 660L586 880"/>
<path style="--d:11s;" pathLength="3333" clip-path="url(#z34272c11)" d="M360 364L673 312L698 353L620 508L602 509"/>
<path style="--d:12s;" pathLength="3333" clip-path="url(#z34272c12)" d="M392 437L584 413"/>
<path style="--d:13s;" pathLength="3333" clip-path="url(#z34272c13)" d="M407 506L582 496"/>
<path style="--d:14s;" pathLength="3333" clip-path="url(#z34272c14)" d="M294 517L323 553L245 632"/>
<path style="--d:15s;" pathLength="3333" clip-path="url(#z34272c15)" d="M144 642L189 678L213 891"/>
<path style="--d:16s;" pathLength="3333" clip-path="url(#z34272c16)" d="M591 623L815 595L857 624L808 878L775 848"/>
<path style="--d:17s;" pathLength="3333" clip-path="url(#z34272c17)" d="M612 720L745 709"/>
<path style="--d:18s;" pathLength="3333" clip-path="url(#z34272c18)" d="M615 827L741 812L766 823"/>
</svg>