<!--
AnimCJK 2016-2019 Copyright Francois Mizessyn - https://github.com/parsimonhi/animCJK
Derived from:
    MakeMeAHanzi project - https://github.com/skishore/makemeahanzi
    Arphic PL KaitiM GB font
    Arphic PL UKai font
You can redistribute and/or modify this file under the terms of the Arphic Public License
as published by Arphic Technology Co., Ltd.
You should have received a copy of this license along with this file.
If not, see http://ftp.gnu.org/non-gnu/chinese-fonts-truetype/LICENSE.
-->
<svg id="z34345" class="acjk" version="1.1" viewBox="0 0 1024 1024" xmlns="http://www.w3.org/2000/svg" xmlns:xlink="http://www.w3.org/1999/xlink">
<style>
<![CDATA[
@keyframes zk {
	to {
		stroke-dashoffset:0;
	}
}
svg.acjk path[clip-path] {
	--t:0.8s;
	animation:zk var(--t) linear forwards var(--d);
	stroke-dasharray:3337;
	stroke-dashoffset:3339;
	stroke-width:128;
	stroke-linecap:round;
	fill:none;
	stroke:#000;
}
svg.acjk path[id] {fill:#ccc;}
]]>
</style>
<path id="z34345d1" d="M612 155Q703 148 799 155Q814 156 818 148Q822 138 811 125Q763 86 688 105Q661 108 632 114C595 119 595 119 576 122Q509 129 435 138C406 141 406 141 391 143Q312 149 226 157Q199 158 217 174Q253 198 305 191Q353 179 399 172C424 169 424 169 437 167Q500 160 567 157C597 156 597 156 612 155Z"/>
<path id="z34345d2" d="M435 138Q434 114 434 95Q435 79 418 73Q384 55 364 61Q348 68 361 86Q382 110 391 143C396 162 396 162 399 172Q411 211 420 222Q432 232 436 221Q442 199 437 167C436 148 436 148 435 138Z"/>
<path id="z34345d3" d="M632 114Q639 101 649 86Q662 73 654 64Q644 48 613 32Q600 22 583 30Q573 34 580 45Q589 66 576 122C570 145 570 145 567 157Q552 214 551 226Q552 239 567 229Q582 216 612 155C625 128 625 128 632 114Z"/>
<path id="z34345d4" d="M270 310Q280 297 295 281C300 274 309 270 312 262Q321 244 321 243Q318 236 302 220Q286 207 274 207Q262 208 267 222Q279 252 197 357Q190 363 189 367Q186 374 195 372Q213 369 254 328Q254 327 256 326C265 315 265 315 270 310Z"/>
<path id="z34345d5" d="M295 281Q329 288 385 279Q421 272 460 264Q484 260 487 256Q493 250 490 244Q486 237 465 231Q453 228 367 251Q342 257 312 262C304 263 287 279 295 281Z"/>
<path id="z34345d6" d="M448 513Q441 504 422 494C412 488 401 480 390 482Q387 482 349 490C338 492 338 492 333 493Q299 497 270 506Q263 509 263 502Q273 466 282 441C287 424 287 424 290 415Q299 367 305 348C308 340 299 332 293 326Q278 313 270 310C263 307 253 319 256 326Q271 365 257 420C253 438 253 438 251 447Q239 486 218 511Q212 518 215 526Q219 538 233 550Q239 556 248 550Q287 529 365 525Q371 524 380 526C403 528 403 528 414 529Q426 529 433 532C440 535 453 519 448 513Z"/>
<path id="z34345d7" d="M422 494Q426 463 434 419C441 398 441 398 444 387Q453 366 470 353Q482 341 471 331Q458 321 423 304Q411 298 376 308Q346 311 293 326C285 328 297 351 305 348Q306 347 309 347Q313 344 324 344C333 342 333 342 338 341Q389 329 399 334Q409 340 406 373Q405 383 402 395C399 414 399 414 398 423Q394 457 390 482C383 511 383 511 380 526Q377 536 381 546Q385 556 394 555Q397 555 414 529C420 519 420 506 422 494Z"/>
<path id="z34345d8" d="M373 394Q373 376 341 342Q340 341 338 341C334 338 323 339 324 344Q324 348 328 356Q340 392 351 404C355 409 368 407 370 401Q371 397 373 394Z"/>
<path id="z34345d9" d="M434 419Q465 415 500 412Q512 411 512 406Q513 396 501 390Q485 381 444 387C416 392 416 392 402 395Q384 396 370 401C357 403 357 403 351 404Q317 408 290 415C268 418 268 418 257 420Q160 433 100 437Q90 437 88 443Q85 450 96 459Q120 477 167 468Q212 455 251 447C272 443 272 443 282 441Q294 438 312 435C321 434 321 434 326 433Q360 427 398 423C422 420 422 420 434 419Z"/>
<path id="z34345d10" d="M354 483Q354 462 329 435Q328 434 326 433C322 430 312 430 312 435Q311 439 315 448Q321 481 333 493C337 497 346 494 349 490Q352 486 354 483Z"/>
<path id="z34345d11" d="M600 314Q612 299 626 280Q636 267 644 259Q650 252 647 243Q644 236 625 220Q609 208 596 209Q583 210 589 224Q604 254 528 364Q521 371 520 375Q519 382 527 380Q545 377 584 332Q584 331 585 331C595 320 595 320 600 314Z"/>
<path id="z34345d12" d="M716 328Q747 319 781 313Q808 306 811 303Q818 296 815 289Q808 280 785 275Q760 271 737 281Q706 291 674 300Q640 307 600 314C593 315 578 328 585 331Q598 338 617 343Q621 343 683 335C705 330 705 330 716 328Z"/>
<path id="z34345d13" d="M675 459Q693 440 717 396Q724 383 735 372Q745 362 737 352Q727 339 716 328C708 320 683 324 683 335Q683 371 650 425Q646 429 642 435C637 443 631 452 623 457Q581 487 528 506Q518 510 525 514Q558 527 611 504Q636 495 651 481C667 466 667 466 675 459Z"/>
<path id="z34345d14" d="M651 481Q771 581 796 582Q797 581 801 581Q864 574 914 558Q941 551 937 544Q936 540 909 535Q768 511 695 471Q685 465 675 459C653 443 653 443 642 435Q582 389 557 393Q544 394 542 399Q541 403 554 410Q572 419 623 457C642 473 642 473 651 481Z"/>
<path id="z34345d15" d="M508 623Q453 623 407 623Q392 622 400 614Q457 562 506 526Q521 516 520 508Q521 498 497 465Q487 452 472 450Q463 451 465 464Q465 476 448 513C445 520 439 526 433 532Q379 595 347 611Q331 620 330 630Q331 646 341 662Q348 672 359 668Q386 655 474 646C487 644 522 623 508 623Z"/>
<path id="z34345d16" d="M508 730Q517 720 638 705C645 704 633 689 626 689Q541 695 440 712Q436 713 439 709Q586 610 631 594Q644 590 641 579Q638 560 615 534Q605 521 595 521Q586 521 583 535Q574 569 508 623C485 638 485 638 474 646Q356 722 355 725Q354 726 354 730Q353 742 370 763Q376 776 391 768Q433 749 476 738C487 736 499 737 508 730Z"/>
<path id="z34345d17" d="M638 705Q653 723 667 745Q674 757 687 759Q696 760 701 751Q708 741 706 717Q703 692 633 654Q621 648 616 650Q612 651 611 662Q611 669 626 689C634 700 634 700 638 705Z"/>
<path id="z34345d18" d="M476 738Q488 768 486 862Q485 875 483 879Q480 892 457 890Q432 886 406 882Q396 882 395 887Q394 893 403 900Q463 942 483 967Q496 979 506 976Q516 972 525 944Q538 916 535 863Q534 814 533 796Q540 762 525 744Q516 735 508 730C499 724 472 728 476 738Z"/>
<path id="z34345d19" d="M312 788Q284 827 251 859Q226 883 236 918Q240 936 261 929Q312 905 325 844Q335 816 334 792Q331 783 326 782Q317 781 312 788Z"/>
<path id="z34345d20" d="M637 801Q677 840 728 895Q743 914 757 918Q766 919 773 910Q785 897 772 855Q768 834 751 818Q735 808 700 793Q660 778 637 772Q630 768 627 779Q626 792 637 801Z"/>
<defs>
	<clipPath id="z34345c1"><use xlink:href="#z34345d1"/></clipPath>
	<clipPath id="z34345c2"><use xlink:href="#z34345d2"/></clipPath>
	<clipPath id="z34345c3"><use xlink:href="#z34345d3"/></clipPath>
	<clipPath id="z34345c4"><use xlink:href="#z34345d4"/></clipPath>
	<clipPath id="z34345c5"><use xlink:href="#z34345d5"/></clipPath>
	<clipPath id="z34345c6"><use xlink:href="#z34345d6"/></clipPath>
	<clipPath id="z34345c7"><use xlink:href="#z34345d7"/></clipPath>
	<clipPath id="z34345c8"><use xlink:href="#z34345d8"/></clipPath>
	<clipPath id="z34345c9"><use xlink:href="#z34345d9"/></clipPath>
	<clipPath id="z34345c10"><use xlink:href="#z34345d10"/></clipPath>
	<clipPath id="z34345c11"><use xlink:href="#z34345d11"/></clipPath>
	<clipPath id="z34345c12"><use xlink:href="#z34345d12"/></clipPath>
	<clipPath id="z34345c13"><use xlink:href="#z34345d13"/></clipPath>
	<clipPath id="z34345c14"><use xlink:href="#z34345d14"/></clipPath>
	<clipPath id="z34345c15"><use xlink:href="#z34345d15"/></clipPath>
	<clipPath id="z34345c16"><use xlink:href="#z34345d16"/></clipPath>
	<clipPath id="z34345c17"><use xlink:href="#z34345d17"/></clipPath>
	<clipPath id="z34345c18"><use xlink:href="#z34345d18"/></clipPath>
	<clipPath id="z34345c19"><use xlink:href="#z34345d19"/></clipPath>
	<clipPath id="z34345c20"><use xlink:href="#z34345d20"/></clipPath>
</defs>
<path style="--d:1s;" pathLength="3333" clip-path="url(#z34345c1)" d="M219 165L730 125L814 142"/>
<path style="--d:2s;" pathLength="3333" clip-path="url(#z34345c2)" d="M362 70L405 100L428 221"/>
<path style="--d:3s;" pathLength="3333" clip-path="url(#z34345c3)" d="M584 34L620 74L562 228"/>
<path style="--d:4s;" pathLength="3333" clip-path="url(#z34345c4)" d="M274 214L288 256L198 366"/>
<path style="--d:5s;" pathLength="3333" clip-path="url(#z34345c5)" d="M305 276L484 245"/>
<path style="--d:6s;" pathLength="3333" clip-path="url(#z34345c6)" d="M270 318L282 368L246 525L373 504L441 520"/>
<path style="--d:7s;" pathLength="3333" clip-path="url(#z34345c7)" d="M301 327L407 318L440 345L387 548"/>
<path style="--d:8s;" pathLength="3333" clip-path="url(#z34345c8)" d="M330 347L357 401"/>
<path style="--d:9s;" pathLength="3333" clip-path="url(#z34345c9)" d="M93 447L505 400"/>
<path style="--d:10s;" pathLength="3333" clip-path="url(#z34345c10)" d="M319 440L344 486"/>
<path style="--d:11s;" pathLength="3333" clip-path="url(#z34345c11)" d="M596 218L615 260L527 374"/>
<path style="--d:12s;" pathLength="3333" clip-path="url(#z34345c12)" d="M593 327L811 294"/>
<path style="--d:13s;" pathLength="3333" clip-path="url(#z34345c13)" d="M687 343L704 376L642 464L534 511"/>
<path style="--d:14s;" pathLength="3333" clip-path="url(#z34345c14)" d="M550 400L798 547L931 547"/>
<path style="--d:15s;" pathLength="3333" clip-path="url(#z34345c15)" d="M473 453L484 509L364 627L392 642L495 625"/>
<path style="--d:16s;" pathLength="3333" clip-path="url(#z34345c16)" d="M595 525L602 577L397 723L411 741L630 697"/>
<path style="--d:17s;" pathLength="3333" clip-path="url(#z34345c17)" d="M619 659L675 712L687 754"/>
<path style="--d:18s;" pathLength="3333" clip-path="url(#z34345c18)" d="M484 745L510 785L503 913L486 933L402 888"/>
<path style="--d:19s;" pathLength="3333" clip-path="url(#z34345c19)" d="M324 788L239 917"/>
<path style="--d:20s;" pathLength="3333" clip-path="url(#z34345c20)" d="M634 780L734 851L764 912"/>
</svg>