<!--
AnimCJK 2016-2018 Copyright Francois Mizessyn - https://github.com/parsimonhi/animCJK
Derived from:
    MakeMeAHanzi project - https://github.com/skishore/makemeahanzi
    Arphic PL KaitiM GB - https://apps.ubuntu.com/cat/applications/precise/fonts-arphic-gkai00mp/
    Arphic PL UKai - https://apps.ubuntu.com/cat/applications/fonts-arphic-ukai/
You can redistribute and/or modify this file under the terms of the Arphic Public License
as published by Arphic Technology Co., Ltd.
You should have received a copy of this license (the directory "APL") along with this file;
if not, see http://ftp.gnu.org/non-gnu/chinese-fonts-truetype/LICENSE.
-->
<svg id="z34382" class="acjk" version="1.1" viewBox="0 0 1024 1024" xmlns="http://www.w3.org/2000/svg" xmlns:xlink="http://www.w3.org/1999/xlink">
<style>
<![CDATA[
@keyframes z34382k {
	from {
		stroke:#ccc;
		stroke-dashoffset:3334;
	}
	1% {
		stroke:#c00;
		stroke-dashoffset:3334;
	}
	75% {
		stroke:#c00;
		stroke-dashoffset:0;
	}
	to {
		stroke:#000;
	}
}
#z34382 path[clip-path] {
	animation:z34382k 1s linear both;
	stroke-dasharray:3334;
	stroke-width:128;
	stroke-linecap:round;
	fill:none;
}
#z34382 path[clip-path="url(#z34382c1)"] {animation-delay:1s;}
#z34382 path[clip-path="url(#z34382c2)"] {animation-delay:2s;}
#z34382 path[clip-path="url(#z34382c3)"] {animation-delay:3s;}
#z34382 path[clip-path="url(#z34382c4)"] {animation-delay:4s;}
#z34382 path[clip-path="url(#z34382c5)"] {animation-delay:5s;}
#z34382 path[clip-path="url(#z34382c6)"] {animation-delay:6s;}
#z34382 path[clip-path="url(#z34382c7)"] {animation-delay:7s;}
#z34382 path[clip-path="url(#z34382c8)"] {animation-delay:8s;}
#z34382 path {fill:#ccc;}
]]>
</style>
<path id="z34382d1" d="M538 259Q544 208 550 161L554 130Q557 115 560 105Q563 95 565 89Q569 77 549 63Q515 44 492 41Q476 37 468 46Q461 53 469 68Q482 84 483 98Q492 176 495 267L538 259 Z"/>
<path id="z34382d2" d="M550 161Q580 164 648 155Q744 131 748 127Q757 120 752 111Q745 101 716 95Q686 91 658 104Q633 113 607 120Q580 126 554 130L550 161 Z"/>
<path id="z34382d3" d="M320 336Q335 337 360 330Q544 287 714 257Q751 253 753 270Q754 283 731 339Q724 355 731 359Q738 363 751 350Q824 292 854 280Q878 273 875 260Q874 247 796 210Q774 200 745 209Q639 237 548 257Q542 258 538 259L495 267Q411 280 310 296L320 336 Z"/>
<path id="z34382d4" d="M310 296Q309 295 307 294Q258 269 241 271Q220 274 237 297Q271 355 241 589Q228 649 198 720Q168 789 72 879Q57 892 54 899Q51 906 64 906Q106 906 183 827Q267 737 293 588Q309 497 316 359Q317 346 320 336L310 296 Z"/>
<path id="z34382d5" d="M517 445Q580 424 691 400Q701 400 707 388Q707 378 686 370Q653 354 589 381Q529 402 522 405L477 418Q429 430 357 446Q332 452 353 465Q383 484 418 474Q443 465 475 457L517 445 Z"/>
<path id="z34382d6" d="M784 494Q777 478 765 427Q766 415 761 411Q757 407 752 421Q724 473 710 489Q700 499 669 507Q600 522 547 502Q526 492 522 479Q516 466 517 445L522 405Q523 387 529 367Q533 351 524 342Q512 330 492 322Q480 318 472 322Q466 325 470 341Q480 377 478 410Q477 414 477 418L475 457Q472 506 499 530Q563 582 708 555Q709 554 713 554Q746 544 778 523Q793 513 784 494 Z"/>
<path id="z34382d7" d="M474 637Q467 630 447 623Q419 610 405 615Q395 619 403 634Q424 739 372 819Q342 870 248 916Q226 928 252 928Q321 932 389 872Q396 863 404 855Q450 801 470 681Q471 671 474 663L474 637 Z"/>
<path id="z34382d8" d="M904 909Q929 899 918 874Q899 828 896 756Q895 737 889 732Q882 728 878 741Q850 849 829 865Q814 878 776 884Q682 894 628 830Q604 778 642 679Q655 648 677 633Q702 614 674 601Q659 594 627 582Q605 573 584 588Q560 604 506 625Q488 632 474 637L474 663Q504 656 571 637Q581 633 586 635Q590 641 581 721Q566 857 624 897Q655 919 698 935Q794 968 904 909 Z"/>
<defs>
	<clipPath id="z34382c1"><use xlink:href="#z34382d1"/></clipPath>
	<clipPath id="z34382c2"><use xlink:href="#z34382d2"/></clipPath>
	<clipPath id="z34382c3"><use xlink:href="#z34382d3"/></clipPath>
	<clipPath id="z34382c4"><use xlink:href="#z34382d4"/></clipPath>
	<clipPath id="z34382c5"><use xlink:href="#z34382d5"/></clipPath>
	<clipPath id="z34382c6"><use xlink:href="#z34382d6"/></clipPath>
	<clipPath id="z34382c7"><use xlink:href="#z34382d7"/></clipPath>
	<clipPath id="z34382c8"><use xlink:href="#z34382d8"/></clipPath>
</defs>
<path pathLength="3333" clip-path="url(#z34382c1)" d="M473 53L524 89L515 262"/>
<path pathLength="3333" clip-path="url(#z34382c2)" d="M555 154L750 115"/>
<path pathLength="3333" clip-path="url(#z34382c3)" d="M317 299L352 311L765 232L820 273L737 352"/>
<path pathLength="3333" clip-path="url(#z34382c4)" d="M238 281L286 346L251 652L184 790L61 899"/>
<path pathLength="3333" clip-path="url(#z34382c5)" d="M352 455L700 389"/>
<path pathLength="3333" clip-path="url(#z34382c6)" d="M475 324L502 362L503 495L545 528L628 538L720 519L758 482L758 416"/>
<path pathLength="3333" clip-path="url(#z34382c7)" d="M405 619L441 667L402 816L335 887L246 923"/>
<path pathLength="3333" clip-path="url(#z34382c8)" d="M479 654L595 606L635 625L601 734L604 826L646 881L716 911L821 907L880 874L885 736"/>
</svg>