<!--
AnimCJK 2016-2018 Copyright Francois Mizessyn - https://github.com/parsimonhi/animCJK
Derived from:
    MakeMeAHanzi project - https://github.com/skishore/makemeahanzi
    Arphic PL KaitiM GB - https://apps.ubuntu.com/cat/applications/precise/fonts-arphic-gkai00mp/
    Arphic PL UKai - https://apps.ubuntu.com/cat/applications/fonts-arphic-ukai/
You can redistribute and/or modify this file under the terms of the Arphic Public License
as published by Arphic Technology Co., Ltd.
You should have received a copy of this license (the directory "APL") along with this file;
if not, see http://ftp.gnu.org/non-gnu/chinese-fonts-truetype/LICENSE.
-->
<svg id="z34431" class="acjk" version="1.1" viewBox="0 0 1024 1024" xmlns="http://www.w3.org/2000/svg" xmlns:xlink="http://www.w3.org/1999/xlink">
<style>
<![CDATA[
@keyframes z34431k {
	from {
		stroke:#ccc;
		stroke-dashoffset:3334;
	}
	1% {
		stroke:#c00;
		stroke-dashoffset:3334;
	}
	75% {
		stroke:#c00;
		stroke-dashoffset:0;
	}
	to {
		stroke:#000;
	}
}
#z34431 path[clip-path] {
	animation:z34431k 1s linear both;
	stroke-dasharray:3334;
	stroke-width:128;
	stroke-linecap:round;
	fill:none;
}
#z34431 path[clip-path="url(#z34431c1)"] {animation-delay:1s;}
#z34431 path[clip-path="url(#z34431c2)"] {animation-delay:2s;}
#z34431 path[clip-path="url(#z34431c3)"] {animation-delay:3s;}
#z34431 path[clip-path="url(#z34431c4)"] {animation-delay:4s;}
#z34431 path[clip-path="url(#z34431c5)"] {animation-delay:5s;}
#z34431 path[clip-path="url(#z34431c6)"] {animation-delay:6s;}
#z34431 path[clip-path="url(#z34431c7)"] {animation-delay:7s;}
#z34431 path[clip-path="url(#z34431c8)"] {animation-delay:8s;}
#z34431 path[clip-path="url(#z34431c9)"] {animation-delay:9s;}
#z34431 path {fill:#ccc;}
]]>
</style>
<path id="z34431d1" d="M498 191Q567 182 847 181Q869 182 875 172Q881 159 863 144Q805 99 764 108Q593 141 206 180Q184 181 200 201Q216 217 235 223Q259 230 276 225Q360 203 453 195C483 192 483 192 498 191Z"/>
<path id="z34431d2" d="M478 309Q488 310 499 305Q533 296 623 287Q630 287 636 291Q642 294 641 304Q638 326 625 369Q616 397 589 388Q556 381 530 373Q515 369 519 379Q520 389 545 409Q576 442 593 474Q597 483 605 482Q629 476 660 422Q660 404 694 335Q700 317 710 311Q722 302 717 290Q710 278 675 253Q663 244 606 254Q599 251 503 269C488 272 462 309 478 309Z"/>
<path id="z34431d3" d="M503 269Q512 254 524 242Q533 233 529 223Q525 211 498 191C486 182 453 180 453 195Q449 321 301 439Q298 440 296 443Q256 479 158 535Q149 541 156 545Q163 549 174 546Q324 507 423 387Q448 354 478 309C495 282 495 282 503 269Z"/>
<path id="z34431d4" d="M320 567Q308 561 275 555Q262 552 259 557Q252 564 261 581Q288 632 304 715Q308 740 323 756Q342 778 347 762Q351 753 351 739C349 717 349 717 348 706Q335 627 333 600C333 588 331 571 320 567Z"/>
<path id="z34431d5" d="M706 669Q739 609 767 594Q786 578 773 559Q757 544 709 515Q693 505 670 512Q603 533 541 544C498 550 498 550 477 553Q401 562 320 567C308 567 321 602 333 600Q441 585 479 580C518 575 518 575 537 572Q583 565 630 558Q664 552 678 567Q685 574 681 590Q669 629 656 660C651 676 698 684 706 669Z"/>
<path id="z34431d6" d="M533 716Q611 707 714 702Q724 701 727 692Q727 685 706 669C693 658 673 660 656 660Q653 659 651 660Q588 670 534 682C501 687 501 687 485 690Q412 699 348 706C337 708 340 739 351 739Q355 739 363 739Q411 729 486 721C517 718 517 718 533 716Z"/>
<path id="z34431d7" d="M529 816Q530 764 533 716C534 693 534 693 534 682Q535 625 537 572C540 553 540 553 541 544Q542 529 545 519Q549 501 552 489Q556 477 535 463Q499 445 474 442Q458 439 450 448Q443 455 452 470Q474 501 475 521Q476 536 477 553C478 571 478 571 479 580Q482 632 485 690C486 711 486 711 486 721Q486 769 486 821C486 835 529 830 529 816Z"/>
<path id="z34431d8" d="M678 792Q605 802 529 816C500 819 500 819 486 821Q287 845 260 844Q220 835 214 849Q210 862 218 873Q239 895 270 921Q280 925 295 919Q367 886 537 853Q684 820 695 816C705 814 688 790 678 792Z"/>
<path id="z34431d9" d="M695 816Q729 861 763 914Q772 927 785 931Q794 932 801 923Q808 911 808 885Q809 831 682 747Q670 741 664 741Q660 744 658 755Q658 765 675 788Q676 789 678 792C689 808 689 808 695 816Z"/>
<defs>
	<clipPath id="z34431c1"><use xlink:href="#z34431d1"></use></clipPath>
	<clipPath id="z34431c2"><use xlink:href="#z34431d2"></use></clipPath>
	<clipPath id="z34431c3"><use xlink:href="#z34431d3"></use></clipPath>
	<clipPath id="z34431c4"><use xlink:href="#z34431d4"></use></clipPath>
	<clipPath id="z34431c5"><use xlink:href="#z34431d5"></use></clipPath>
	<clipPath id="z34431c6"><use xlink:href="#z34431d6"></use></clipPath>
	<clipPath id="z34431c7"><use xlink:href="#z34431d7"></use></clipPath>
	<clipPath id="z34431c8"><use xlink:href="#z34431d8"></use></clipPath>
	<clipPath id="z34431c9"><use xlink:href="#z34431d9"></use></clipPath>
</defs>
<path pathLength="3333" clip-path="url(#z34431c1)" d="M199 188L268 200L769 144L872 163"/>
<path pathLength="3333" clip-path="url(#z34431c2)" d="M491 302L629 269L677 291L607 435L524 380"/>
<path pathLength="3333" clip-path="url(#z34431c3)" d="M459 200L488 236L387 392L272 487L162 539"/>
<path pathLength="3333" clip-path="url(#z34431c4)" d="M263 563L297 589L340 762"/>
<path pathLength="3333" clip-path="url(#z34431c5)" d="M329 571L682 536L730 578L675 663"/>
<path pathLength="3333" clip-path="url(#z34431c6)" d="M355 712L722 685"/>
<path pathLength="3333" clip-path="url(#z34431c7)" d="M454 452L512 499L501 819"/>
<path pathLength="3333" clip-path="url(#z34431c8)" d="M219 851L286 882L687 806"/>
<path pathLength="3333" clip-path="url(#z34431c9)" d="M669 748L794 924"/>
</svg>