<!--
AnimCJK 2016-2018 Copyright Francois Mizessyn - https://github.com/parsimonhi/animCJK
Derived from:
    MakeMeAHanzi project - https://github.com/skishore/makemeahanzi
    Arphic PL KaitiM GB - https://apps.ubuntu.com/cat/applications/precise/fonts-arphic-gkai00mp/
    Arphic PL UKai - https://apps.ubuntu.com/cat/applications/fonts-arphic-ukai/
You can redistribute and/or modify this file under the terms of the Arphic Public License
as published by Arphic Technology Co., Ltd.
You should have received a copy of this license (the directory "APL") along with this file;
if not, see http://ftp.gnu.org/non-gnu/chinese-fonts-truetype/LICENSE.
-->
<svg id="z34443" class="acjk" version="1.1" viewBox="0 0 1024 1024" xmlns="http://www.w3.org/2000/svg" xmlns:xlink="http://www.w3.org/1999/xlink">
<style>
<![CDATA[
@keyframes z34443k {
	from {
		stroke:#ccc;
		stroke-dashoffset:3334;
	}
	1% {
		stroke:#c00;
		stroke-dashoffset:3334;
	}
	75% {
		stroke:#c00;
		stroke-dashoffset:0;
	}
	to {
		stroke:#000;
	}
}
#z34443 path[clip-path] {
	animation:z34443k 1s linear both;
	stroke-dasharray:3334;
	stroke-width:128;
	stroke-linecap:round;
	fill:none;
}
#z34443 path[clip-path="url(#z34443c1)"] {animation-delay:1s;}
#z34443 path[clip-path="url(#z34443c2)"] {animation-delay:2s;}
#z34443 path[clip-path="url(#z34443c3)"] {animation-delay:3s;}
#z34443 path[clip-path="url(#z34443c4)"] {animation-delay:4s;}
#z34443 path[clip-path="url(#z34443c5)"] {animation-delay:5s;}
#z34443 path[clip-path="url(#z34443c6)"] {animation-delay:6s;}
#z34443 path[clip-path="url(#z34443c7)"] {animation-delay:7s;}
#z34443 path[clip-path="url(#z34443c8)"] {animation-delay:8s;}
#z34443 path[clip-path="url(#z34443c9)"] {animation-delay:9s;}
#z34443 path[clip-path="url(#z34443c10)"] {animation-delay:10s;}
#z34443 path {fill:#ccc;}
]]>
</style>
<path id="z34443d1" d="M146 379Q136 373 101 368Q89 365 87 370Q81 377 89 391Q116 442 134 524Q137 549 152 566Q170 585 174 571Q177 561 177 547L174 516Q159 437 155 408L146 379 Z"/>
<path id="z34443d2" d="M392 475Q414 408 442 389Q457 373 443 357Q430 345 383 324Q370 318 290 347L246 359Q197 369 146 379L155 408Q164 402 246 387L290 378Q308 374 330 369Q351 363 359 372Q366 379 365 394Q358 439 347 475L392 475 Z"/>
<path id="z34443d3" d="M286 526Q337 516 409 509Q419 508 420 499Q421 492 392 475L347 475Q316 482 287 491L245 501Q206 508 174 516L177 547Q181 547 188 546Q212 539 245 533L286 526 Z"/>
<path id="z34443d4" d="M281 656Q282 589 286 526L287 491Q288 433 290 378L290 347Q293 251 312 169Q315 159 294 144Q260 125 234 121Q218 118 210 127Q203 134 211 150Q242 193 242 225Q245 289 246 359L246 387Q246 442 245 501L245 533Q244 597 239 668L281 656 Z"/>
<path id="z34443d5" d="M371 630Q325 642 281 656L239 668Q182 681 123 698Q105 702 75 702Q62 703 60 713Q57 726 67 734Q89 750 121 770Q131 773 144 765Q168 747 380 651L371 630 Z"/>
<path id="z34443d6" d="M380 651Q395 696 408 702Q415 705 422 699Q429 692 433 670Q439 637 369 569Q362 562 356 562Q352 563 349 571Q348 577 371 630L380 651 Z"/>
<path id="z34443d7" d="M525 338Q521 332 513 328Q483 315 466 315Q453 319 458 332Q513 447 465 658Q444 718 446 728Q446 755 466 779Q473 792 484 786Q523 762 523 626L523 609Q526 434 530 380L525 338 Z"/>
<path id="z34443d8" d="M691 344Q799 317 817 333Q827 339 831 387Q844 550 837 737Q837 765 827 772Q811 779 745 752Q729 748 730 757Q730 764 742 771Q800 822 830 860Q849 879 861 877Q873 874 884 847Q900 805 901 743Q886 502 887 412Q887 375 898 352Q908 330 899 319Q889 306 843 283Q824 273 805 279Q768 291 694 310L650 318Q587 328 525 338L530 380Q609 361 648 352L691 344 Z"/>
<path id="z34443d9" d="M675 473Q681 443 691 344L694 310Q698 213 718 156Q725 143 715 132Q694 116 658 105Q634 99 627 105Q618 112 625 123Q646 157 649 200Q650 260 650 318L648 352Q647 376 645 401Q635 518 566 577Q547 592 523 609L523 626Q530 627 556 619Q638 592 669 493L675 473 Z"/>
<path id="z34443d10" d="M669 493Q718 542 765 600Q777 616 788 620Q795 621 801 614Q811 604 803 570Q796 530 675 473L669 493 Z"/>
<defs>
	<clipPath id="z34443c1"><use xlink:href="#z34443d1"/></clipPath>
	<clipPath id="z34443c2"><use xlink:href="#z34443d2"/></clipPath>
	<clipPath id="z34443c3"><use xlink:href="#z34443d3"/></clipPath>
	<clipPath id="z34443c4"><use xlink:href="#z34443d4"/></clipPath>
	<clipPath id="z34443c5"><use xlink:href="#z34443d5"/></clipPath>
	<clipPath id="z34443c6"><use xlink:href="#z34443d6"/></clipPath>
	<clipPath id="z34443c7"><use xlink:href="#z34443d7"/></clipPath>
	<clipPath id="z34443c8"><use xlink:href="#z34443d8"/></clipPath>
	<clipPath id="z34443c9"><use xlink:href="#z34443d9"/></clipPath>
	<clipPath id="z34443c10"><use xlink:href="#z34443d10"/></clipPath>
</defs>
<path pathLength="3333" clip-path="url(#z34443c1)" d="M92 372L129 414L167 570"/>
<path pathLength="3333" clip-path="url(#z34443c2)" d="M155 383L375 349L407 382L355 469"/>
<path pathLength="3333" clip-path="url(#z34443c3)" d="M184 539L412 497"/>
<path pathLength="3333" clip-path="url(#z34443c4)" d="M214 132L274 182L255 662"/>
<path pathLength="3333" clip-path="url(#z34443c5)" d="M65 714L130 733L375 640"/>
<path pathLength="3333" clip-path="url(#z34443c6)" d="M357 569L416 696"/>
<path pathLength="3333" clip-path="url(#z34443c7)" d="M464 324L498 355L507 454L476 783"/>
<path pathLength="3333" clip-path="url(#z34443c8)" d="M535 372L555 352L804 303L864 339L864 784L837 827L739 758"/>
<path pathLength="3333" clip-path="url(#z34443c9)" d="M630 111L682 154L655 468L606 565L528 615"/>
<path pathLength="3333" clip-path="url(#z34443c10)" d="M678 478L763 555L791 616"/>
</svg>