<!--
AnimCJK 2016-2018 Copyright Francois Mizessyn - https://github.com/parsimonhi/animCJK
Derived from:
    MakeMeAHanzi project - https://github.com/skishore/makemeahanzi
    Arphic PL KaitiM GB - https://apps.ubuntu.com/cat/applications/precise/fonts-arphic-gkai00mp/
    Arphic PL UKai - https://apps.ubuntu.com/cat/applications/fonts-arphic-ukai/
You can redistribute and/or modify this file under the terms of the Arphic Public License
as published by Arphic Technology Co., Ltd.
You should have received a copy of this license (the directory "APL") along with this file;
if not, see http://ftp.gnu.org/non-gnu/chinese-fonts-truetype/LICENSE.
-->
<svg id="z34445" class="acjk" version="1.1" viewBox="0 0 1024 1024" xmlns="http://www.w3.org/2000/svg" xmlns:xlink="http://www.w3.org/1999/xlink">
<style>
<![CDATA[
@keyframes z34445k {
	from {
		stroke:#ccc;
		stroke-dashoffset:3334;
	}
	1% {
		stroke:#c00;
		stroke-dashoffset:3334;
	}
	75% {
		stroke:#c00;
		stroke-dashoffset:0;
	}
	to {
		stroke:#000;
	}
}
#z34445 path[clip-path] {
	animation:z34445k 1s linear both;
	stroke-dasharray:3334;
	stroke-width:128;
	stroke-linecap:round;
	fill:none;
}
#z34445 path[clip-path="url(#z34445c1)"] {animation-delay:1s;}
#z34445 path[clip-path="url(#z34445c2)"] {animation-delay:2s;}
#z34445 path[clip-path="url(#z34445c3)"] {animation-delay:3s;}
#z34445 path[clip-path="url(#z34445c4)"] {animation-delay:4s;}
#z34445 path[clip-path="url(#z34445c5)"] {animation-delay:5s;}
#z34445 path[clip-path="url(#z34445c6)"] {animation-delay:6s;}
#z34445 path[clip-path="url(#z34445c7)"] {animation-delay:7s;}
#z34445 path[clip-path="url(#z34445c8)"] {animation-delay:8s;}
#z34445 path[clip-path="url(#z34445c9)"] {animation-delay:9s;}
#z34445 path[clip-path="url(#z34445c10)"] {animation-delay:10s;}
#z34445 path {fill:#ccc;}
]]>
</style>
<path id="z34445d1" d="M133 417Q123 413 93 408Q81 405 79 410Q73 417 81 431Q108 482 126 564Q129 589 144 606Q162 625 166 611Q170 598 168 577L165 551Q149 469 146 444L133 417 Z"/>
<path id="z34445d2" d="M377 512Q396 445 425 421Q440 405 426 389Q410 377 363 357Q347 350 328 359Q300 372 272 382L227 396Q181 408 133 417L146 444Q158 443 170 438Q198 431 227 425L272 414Q293 408 314 403Q332 397 340 405Q352 417 331 508L377 512 Z"/>
<path id="z34445d3" d="M268 560Q316 550 387 539Q396 538 397 530Q397 524 377 512L331 508Q297 517 269 527L227 538Q193 545 165 551L168 577Q171 577 173 578Q182 579 193 577Q206 573 227 569L268 560 Z"/>
<path id="z34445d4" d="M265 679Q266 618 268 560L269 527Q270 469 272 414L272 382Q275 268 292 201Q295 191 275 175Q239 157 214 154Q198 150 190 159Q183 166 191 182Q222 225 222 255Q225 322 227 396L227 425Q227 480 227 538L227 569Q226 629 223 693L265 679 Z"/>
<path id="z34445d5" d="M347 650Q307 663 265 679L223 693Q169 709 116 727Q98 733 68 733Q55 734 54 745Q53 758 62 766Q84 782 118 799Q128 802 140 793Q174 765 214 745Q275 717 334 686Q347 679 358 672L347 650 Z"/>
<path id="z34445d6" d="M358 672Q373 706 384 711Q391 714 398 707Q405 700 407 678Q408 651 350 604Q341 598 336 598Q332 599 330 608Q327 617 347 650L358 672 Z"/>
<path id="z34445d7" d="M497 526Q542 526 621 500L622 500Q629 493 624 486Q617 476 591 473Q561 473 498 498L497 526 Z"/>
<path id="z34445d8" d="M498 498Q499 360 502 340Q506 324 494 315Q484 305 441 294Q425 293 420 297Q413 304 424 321Q454 357 459 503Q459 684 414 750Q407 756 401 765Q389 775 396 796Q403 823 417 835Q429 844 441 830Q481 785 598 696Q614 686 616 678Q619 672 612 672Q605 672 513 710Q506 713 503 710Q496 706 497 689Q497 595 497 526L498 498 Z"/>
<path id="z34445d9" d="M699 507Q745 485 775 470Q847 428 878 421Q902 414 894 395Q884 376 859 357Q837 339 824 340Q811 339 813 353Q814 380 743 441Q722 457 701 475L699 507 Z"/>
<path id="z34445d10" d="M701 475Q701 316 730 229Q736 199 734 193Q730 187 724 183Q696 158 657 148Q638 144 630 154Q621 163 629 172Q651 193 653 267Q635 748 687 794Q715 831 817 837Q919 840 959 806Q975 793 960 763Q944 711 941 644Q942 634 934 625Q924 618 919 641Q909 666 895 708Q874 769 848 775Q787 791 743 773Q718 761 710 735Q694 687 699 507L701 475 Z"/>
<defs>
	<clipPath id="z34445c1"><use xlink:href="#z34445d1"/></clipPath>
	<clipPath id="z34445c2"><use xlink:href="#z34445d2"/></clipPath>
	<clipPath id="z34445c3"><use xlink:href="#z34445d3"/></clipPath>
	<clipPath id="z34445c4"><use xlink:href="#z34445d4"/></clipPath>
	<clipPath id="z34445c5"><use xlink:href="#z34445d5"/></clipPath>
	<clipPath id="z34445c6"><use xlink:href="#z34445d6"/></clipPath>
	<clipPath id="z34445c7"><use xlink:href="#z34445d7"/></clipPath>
	<clipPath id="z34445c8"><use xlink:href="#z34445d8"/></clipPath>
	<clipPath id="z34445c9"><use xlink:href="#z34445d9"/></clipPath>
	<clipPath id="z34445c10"><use xlink:href="#z34445d10"/></clipPath>
</defs>
<path pathLength="3333" clip-path="url(#z34445c1)" d="M85 416L123 460L155 610"/>
<path pathLength="3333" clip-path="url(#z34445c2)" d="M141 420L355 382L388 415L349 509"/>
<path pathLength="3333" clip-path="url(#z34445c3)" d="M171 557L388 529"/>
<path pathLength="3333" clip-path="url(#z34445c4)" d="M194 164L254 213L230 688"/>
<path pathLength="3333" clip-path="url(#z34445c5)" d="M58 744L122 763L352 664"/>
<path pathLength="3333" clip-path="url(#z34445c6)" d="M339 607L392 706"/>
<path pathLength="3333" clip-path="url(#z34445c7)" d="M501 519L617 487"/>
<path pathLength="3333" clip-path="url(#z34445c8)" d="M424 303L472 344L476 606L442 778L466 783L605 679"/>
<path pathLength="3333" clip-path="url(#z34445c9)" d="M823 345L841 415L705 499"/>
<path pathLength="3333" clip-path="url(#z34445c10)" d="M632 155L691 208L673 570L698 767L775 807L895 793L923 768L931 629"/>
</svg>