<!--
AnimCJK 2016-2017 Copyright Francois Mizessyn, http://gooo.free.fr/animCJK/
Derived from:
    MakeMeAHanzi project - https://github.com/skishore/makemeahanzi
    Arphic PL KaitiM GB - https://apps.ubuntu.com/cat/applications/precise/fonts-arphic-gkai00mp/
    Arphic PL UKai - https://apps.ubuntu.com/cat/applications/fonts-arphic-ukai/
You can redistribute and/or modify this file under the terms of the Arphic Public License
as published by Arphic Technology Co., Ltd.
You should have received a copy of this license (the directory "APL") along with this file;
if not, see http://ftp.gnu.org/non-gnu/chinese-fonts-truetype/LICENSE.
-->
<svg id="z34460" class="acjk" version="1.1" viewBox="0 0 1024 1024" xmlns="http://www.w3.org/2000/svg" xmlns:xlink="http://www.w3.org/1999/xlink">
<style>
<![CDATA[
	@keyframes z34460k {
		from {
			stroke:#c00;
			stroke-dashoffset:3000;
		}
		75% {
			stroke:#c00;
			stroke-dashoffset:0;
		}
		to {
			stroke:#000;
		}
	}
	#z34460 path[clip-path] {
		animation:z34460k 1s linear both;
		stroke-dasharray:3000;
		stroke-width:128;
		stroke-linecap:round;
		fill:none;
	}
	#z34460 path[clip-path="url(#z34460c1)"] {animation-delay:1s;}
	#z34460 path[clip-path="url(#z34460c2)"] {animation-delay:2s;}
	#z34460 path[clip-path="url(#z34460c3)"] {animation-delay:3s;}
	#z34460 path[clip-path="url(#z34460c4)"] {animation-delay:4s;}
	#z34460 path[clip-path="url(#z34460c5)"] {animation-delay:5s;}
	#z34460 path[clip-path="url(#z34460c6)"] {animation-delay:6s;}
	#z34460 path[clip-path="url(#z34460c7)"] {animation-delay:7s;}
	#z34460 path[clip-path="url(#z34460c8)"] {animation-delay:8s;}
	#z34460 path[clip-path="url(#z34460c9)"] {animation-delay:9s;}
	#z34460 path[clip-path="url(#z34460c10)"] {animation-delay:10s;}
	#z34460 path {fill:#ccc;}
]]>
</style>
<g transform="scale(1,-1) translate(0,-900)">
	<path id="z34460d1" d="M141 524Q131 528 106 532Q96 535 92 530Q88 524 95 510Q120 461 136 379Q139 354 153 338Q169 319 174 333Q178 345 177 362L173 387Q158 469 156 496L141 524Z"/>
	<path id="z34460d2" d="M390 438Q409 510 434 527Q447 543 434 558Q365 606 320 576Q299 569 281 560L238 547Q190 535 141 524L156 496Q177 505 239 518L280 529Q301 536 325 541Q344 547 352 539Q365 526 348 442L390 438Z"/>
	<path id="z34460d3" d="M276 381Q291 387 403 408Q413 411 414 416Q413 425 395 436Q394 437 390 438L348 442Q309 427 277 415L238 404Q204 397 173 387L177 362Q186 362 201 364Q219 368 237 372L276 381Z"/>
	<path id="z34460d4" d="M272 263Q273 324 276 381L277 415Q278 473 280 529L281 560Q282 626 302 740Q306 750 286 765Q252 783 228 787Q212 790 204 781Q197 774 205 759Q235 716 235 687Q238 620 238 547L239 518Q239 463 238 404L237 372Q236 314 232 252L272 263Z"/>
	<path id="z34460d5" d="M361 290Q316 277 272 263L232 252Q111 219 86 220Q73 219 72 209Q71 197 79 189Q100 173 131 155Q141 152 153 160Q181 182 349 257Q361 263 372 269L361 290Z"/>
	<path id="z34460d6" d="M372 269Q393 227 406 220Q413 217 422 225Q429 235 431 259Q432 292 360 347Q350 354 344 354Q340 353 337 343Q337 334 361 290L372 269Z"/>
	<path id="z34460d7" d="M743 720Q867 753 872 755Q881 764 875 772Q868 784 838 791Q808 795 717 763Q642 744 573 734Q536 727 563 710Q611 689 698 710L743 720Z"/>
	<path id="z34460d8" d="M767 488Q782 494 915 491Q937 490 946 502Q953 512 932 524Q866 569 817 544Q795 540 773 534Q769 534 768 533L715 523Q640 511 569 492Q536 482 546 510Q558 582 571 610Q581 620 574 631Q567 641 531 656Q513 665 503 657Q493 647 503 634Q519 600 503 521Q500 500 476 476Q466 466 469 452Q472 442 489 428Q502 421 516 433Q579 466 684 478L767 488Z"/>
	<path id="z34460d9" d="M714 415Q714 285 714 98Q713 70 703 59Q693 53 605 87Q593 91 593 84Q593 77 602 66Q669 5 711 -44Q721 -54 736 -38Q778 10 776 92Q764 329 767 488L768 533Q769 597 776 659Q782 686 776 696Q769 706 743 720L698 710Q713 659 714 566Q714 547 715 523L714 415Z"/>
	<path id="z34460d10" d="M684 478Q677 456 659 426Q598 327 528 258Q470 197 346 106Q328 91 346 90Q379 87 480 151Q564 211 643 309Q686 366 714 415L714 481L684 478Z"/>
	<defs>
		<clipPath id="z34460c1"><use xlink:href="#z34460d1"/></clipPath>
		<clipPath id="z34460c2"><use xlink:href="#z34460d2"/></clipPath>
		<clipPath id="z34460c3"><use xlink:href="#z34460d3"/></clipPath>
		<clipPath id="z34460c4"><use xlink:href="#z34460d4"/></clipPath>
		<clipPath id="z34460c5"><use xlink:href="#z34460d5"/></clipPath>
		<clipPath id="z34460c6"><use xlink:href="#z34460d6"/></clipPath>
		<clipPath id="z34460c7"><use xlink:href="#z34460d7"/></clipPath>
		<clipPath id="z34460c8"><use xlink:href="#z34460d8"/></clipPath>
		<clipPath id="z34460c9"><use xlink:href="#z34460d9"/></clipPath>
		<clipPath id="z34460c10"><use xlink:href="#z34460d10"/></clipPath>
	</defs>
	<path pathLength="2999" clip-path="url(#z34460c1)" d="M98 525L132 488L165 332"/>
	<path pathLength="2999" clip-path="url(#z34460c2)" d="M148 522L369 561L398 529L367 441"/>
	<path pathLength="2999" clip-path="url(#z34460c3)" d="M179 385L406 416"/>
	<path pathLength="2999" clip-path="url(#z34460c4)" d="M207 780L265 732L239 259"/>
	<path pathLength="2999" clip-path="url(#z34460c5)" d="M79 207L137 191L366 277"/>
	<path pathLength="2999" clip-path="url(#z34460c6)" d="M346 346L412 225"/>
	<path pathLength="2999" clip-path="url(#z34460c7)" d="M561 722L872 771"/>
	<path pathLength="2999" clip-path="url(#z34460c8)" d="M507 655L543 613L520 459L836 522L943 510"/>
	<path pathLength="2999" clip-path="url(#z34460c9)" d="M706 702L743 671L743 70L708 6L601 83"/>
	<path pathLength="2999" clip-path="url(#z34460c10)" d="M706 474L675 401L563 257L345 98"/>
</g>
</svg>