<!--
AnimCJK 2016-2019 Copyright Francois Mizessyn - https://github.com/parsimonhi/animCJK
Derived from:
    MakeMeAHanzi project - https://github.com/skishore/makemeahanzi
    Arphic PL KaitiM GB font
    Arphic PL UKai font
You can redistribute and/or modify this file under the terms of the Arphic Public License
as published by Arphic Technology Co., Ltd.
You should have received a copy of this license along with this file.
If not, see http://ftp.gnu.org/non-gnu/chinese-fonts-truetype/LICENSE.
-->
<svg id="z34496" class="acjk" version="1.1" viewBox="0 0 1024 1024" xmlns="http://www.w3.org/2000/svg" xmlns:xlink="http://www.w3.org/1999/xlink">
<style>
<![CDATA[
@keyframes zk {
	to {
		stroke-dashoffset:0;
	}
}
svg.acjk path[clip-path] {
	--t:0.8s;
	animation:zk var(--t) linear forwards var(--d);
	stroke-dasharray:3337;
	stroke-dashoffset:3339;
	stroke-width:128;
	stroke-linecap:round;
	fill:none;
	stroke:#000;
}
svg.acjk path[id] {fill:#ccc;}
]]>
</style>
<path id="z34496d1" d="M143 425Q130 421 101 416Q89 413 87 419Q81 425 89 439Q117 493 136 582Q140 609 156 626Q174 645 178 631Q181 621 181 606C178 585 178 585 177 575Q159 485 155 455C153 444 154 427 143 425Z"/>
<path id="z34496d2" d="M399 534Q424 450 456 427Q471 409 457 393Q387 342 335 371Q313 378 292 388C263 397 263 397 248 401Q194 414 143 425C132 427 145 459 155 455Q176 445 248 431C277 424 277 424 291 420Q315 413 339 408Q361 401 370 410Q377 417 376 435Q366 486 354 527C351 542 396 549 399 534Z"/>
<path id="z34496d3" d="M289 583Q338 571 407 561Q417 560 417 551Q417 544 399 534C386 526 369 525 354 527Q342 527 289 546C262 554 262 554 248 558Q211 567 177 575C167 577 171 606 181 606Q188 607 200 604Q219 598 247 592C275 586 275 586 289 583Z"/>
<path id="z34496d4" d="M285 715Q286 648 289 583C289 558 289 558 289 546Q290 482 291 420C292 399 292 399 292 388Q292 271 313 179Q317 167 295 152Q258 133 233 130Q217 126 208 136Q201 143 209 159Q243 208 243 242Q247 318 248 401C248 421 248 421 248 431Q248 492 248 558C247 581 247 581 247 592Q246 658 242 728C242 743 285 730 285 715Z"/>
<path id="z34496d5" d="M380 685Q334 698 285 715C256 724 256 724 242 728Q187 743 129 760Q110 767 78 766Q65 767 63 777Q62 790 70 798Q92 814 126 833Q136 836 148 828Q187 798 365 722Q380 715 393 707C400 703 388 683 380 685Z"/>
<path id="z34496d6" d="M393 707Q411 747 428 753Q438 756 445 747Q454 737 454 709Q455 678 378 624Q366 617 360 617Q356 618 353 630Q353 636 380 685C389 700 389 700 393 707Z"/>
<path id="z34496d7" d="M593 176Q618 201 646 232Q662 248 683 248Q696 248 704 231Q711 212 700 174Q694 152 660 136Q579 105 560 112Q553 116 555 134Q559 147 593 176Z"/>
<path id="z34496d8" d="M648 416Q825 371 832 365Q841 356 836 348Q829 336 798 330Q768 326 662 364Q581 388 504 398Q467 405 495 421Q538 445 595 429Q596 428 602 428C633 420 633 420 648 416Z"/>
<path id="z34496d9" d="M661 623Q796 593 803 587Q812 580 807 571Q800 561 772 553Q751 549 663 575C631 584 631 584 615 589Q566 598 509 604Q473 610 499 626Q539 648 612 632C613 632 613 632 614 632C645 626 645 626 661 623Z"/>
<path id="z34496d10" d="M654 798Q658 704 661 623C662 591 662 591 663 575Q666 434 667 433Q658 424 648 416C637 405 594 414 602 428Q617 450 615 589C614 618 614 618 614 632Q613 701 612 804C612 818 654 812 654 798Z"/>
<path id="z34496d11" d="M668 842Q704 841 739 836Q832 824 927 833Q949 834 954 827Q961 814 949 804Q883 749 819 772Q785 778 750 785Q692 792 654 798C626 802 626 802 612 804Q542 811 505 818Q459 825 390 828Q377 828 376 839Q376 849 393 863Q435 890 466 878Q509 862 637 846Q652 843 668 842Z"/>
<defs>
	<clipPath id="z34496c1"><use xlink:href="#z34496d1"/></clipPath>
	<clipPath id="z34496c2"><use xlink:href="#z34496d2"/></clipPath>
	<clipPath id="z34496c3"><use xlink:href="#z34496d3"/></clipPath>
	<clipPath id="z34496c4"><use xlink:href="#z34496d4"/></clipPath>
	<clipPath id="z34496c5"><use xlink:href="#z34496d5"/></clipPath>
	<clipPath id="z34496c6"><use xlink:href="#z34496d6"/></clipPath>
	<clipPath id="z34496c7"><use xlink:href="#z34496d7"/></clipPath>
	<clipPath id="z34496c8"><use xlink:href="#z34496d8"/></clipPath>
	<clipPath id="z34496c9"><use xlink:href="#z34496d9"/></clipPath>
	<clipPath id="z34496c10"><use xlink:href="#z34496d10"/></clipPath>
	<clipPath id="z34496c11"><use xlink:href="#z34496d11"/></clipPath>
</defs>
<path style="--d:1s;" pathLength="3333" clip-path="url(#z34496c1)" d="M92 420L128 460L170 631"/>
<path style="--d:2s;" pathLength="3333" clip-path="url(#z34496c2)" d="M151 430L393 390L419 423L365 527"/>
<path style="--d:3s;" pathLength="3333" clip-path="url(#z34496c3)" d="M185 599L334 552L411 552"/>
<path style="--d:4s;" pathLength="3333" clip-path="url(#z34496c4)" d="M213 142L275 197L265 688L248 719"/>
<path style="--d:5s;" pathLength="3333" clip-path="url(#z34496c5)" d="M70 780L129 797L387 697"/>
<path style="--d:6s;" pathLength="3333" clip-path="url(#z34496c6)" d="M361 624L435 749"/>
<path style="--d:7s;" pathLength="3333" clip-path="url(#z34496c7)" d="M563 119L666 192L686 244"/>
<path style="--d:8s;" pathLength="3333" clip-path="url(#z34496c8)" d="M492 409L577 409L833 352"/>
<path style="--d:9s;" pathLength="3333" clip-path="url(#z34496c9)" d="M496 613L579 616L802 571"/>
<path style="--d:10s;" pathLength="3333" clip-path="url(#z34496c10)" d="M609 432L639 459L629 801"/>
<path style="--d:11s;" pathLength="3333" clip-path="url(#z34496c11)" d="M382 839L450 853L845 797L949 815"/>
</svg>