<!--
AnimCJK 2016-2018 Copyright Francois Mizessyn, http://gooo.free.fr/animCJK/
Derived from:
    MakeMeAHanzi project - https://github.com/skishore/makemeahanzi
    Arphic PL KaitiM GB - https://apps.ubuntu.com/cat/applications/precise/fonts-arphic-gkai00mp/
    Arphic PL UKai - https://apps.ubuntu.com/cat/applications/fonts-arphic-ukai/
You can redistribute and/or modify this file under the terms of the Arphic Public License
as published by Arphic Technology Co., Ltd.
You should have received a copy of this license (the directory "APL") along with this file;
if not, see http://ftp.gnu.org/non-gnu/chinese-fonts-truetype/LICENSE.
-->
<svg id="z34490" class="acjk" version="1.1" viewBox="0 0 1024 1024" xmlns="http://www.w3.org/2000/svg" xmlns:xlink="http://www.w3.org/1999/xlink">
<style>
<![CDATA[
@keyframes z34490k {
	from {
		stroke:#ccc;
		stroke-dashoffset:3334;
	}
	1% {
		stroke:#c00;
		stroke-dashoffset:3334;
	}
	75% {
		stroke:#c00;
		stroke-dashoffset:0;
	}
	to {
		stroke:#000;
	}
}
#z34490 path[clip-path] {
	animation:z34490k 1s linear both;
	stroke-dasharray:3334;
	stroke-width:128;
	stroke-linecap:round;
	fill:none;
}
#z34490 path[clip-path="url(#z34490c1)"] {animation-delay:1s;}
#z34490 path[clip-path="url(#z34490c2)"] {animation-delay:2s;}
#z34490 path[clip-path="url(#z34490c3)"] {animation-delay:3s;}
#z34490 path[clip-path="url(#z34490c4)"] {animation-delay:4s;}
#z34490 path[clip-path="url(#z34490c5)"] {animation-delay:5s;}
#z34490 path[clip-path="url(#z34490c6)"] {animation-delay:6s;}
#z34490 path[clip-path="url(#z34490c7)"] {animation-delay:7s;}
#z34490 path[clip-path="url(#z34490c8)"] {animation-delay:8s;}
#z34490 path[clip-path="url(#z34490c9)"] {animation-delay:9s;}
#z34490 path[clip-path="url(#z34490c10)"] {animation-delay:10s;}
#z34490 path[clip-path="url(#z34490c11)"] {animation-delay:11s;}
#z34490 path {fill:#ccc;}
]]>
</style>
<path id="z34490d1" d="M135 381Q125 375 97 372Q87 369 83 374Q77 380 85 395Q110 444 127 528Q130 553 145 569Q161 590 166 575Q169 566 169 554L168 528Q167 524 167 521Q154 436 149 409L135 381 Z"/>
<path id="z34490d2" d="M377 491Q398 415 427 391Q442 375 428 359Q358 311 308 339Q293 343 282 349L238 361Q187 371 135 381L149 409Q156 408 170 404Q204 397 238 390L282 381Q298 377 317 373Q336 369 343 376Q352 383 350 399Q344 448 334 487L377 491 Z"/>
<path id="z34490d3" d="M277 535Q320 526 386 519Q396 518 396 510Q396 503 377 491L334 487Q331 486 329 487Q301 494 278 502L237 513Q200 520 168 528L169 554Q178 557 189 554Q208 548 236 543L277 535 Z"/>
<path id="z34490d4" d="M273 653Q274 592 277 535L278 502Q279 441 282 381L282 349Q285 250 304 169Q307 159 286 144Q252 125 226 121Q210 118 202 127Q195 134 203 150Q234 193 234 225Q237 291 238 361L238 390Q238 450 237 513L236 543Q235 601 231 666L273 653 Z"/>
<path id="z34490d5" d="M348 630Q311 640 273 653L231 666Q105 699 82 698Q69 699 67 709Q66 722 74 730Q96 746 130 765Q140 768 152 760Q188 733 332 666Q347 659 360 652L348 630 Z"/>
<path id="z34490d6" d="M360 652Q385 700 395 704Q402 705 410 699Q417 690 419 668Q420 638 351 584Q341 578 336 578Q332 579 330 588Q329 597 342 618Q345 622 348 630L360 652 Z"/>
<path id="z34490d7" d="M518 342Q497 323 472 315Q463 312 457 321Q453 325 461 337Q488 406 476 588L472 633Q472 690 443 774Q425 822 457 864Q467 877 478 864Q506 834 515 623L516 583Q516 580 517 578Q521 428 530 379L518 342 Z"/>
<path id="z34490d8" d="M791 588Q791 793 776 805Q763 815 693 795Q677 792 678 801Q679 808 691 814Q752 859 784 894Q805 913 816 910Q828 907 839 880Q854 837 853 775Q846 666 843 586L841 532Q835 393 850 361Q860 340 851 329Q841 316 796 293Q778 284 760 289Q730 299 674 314L623 325Q571 334 518 342L530 379L624 358L673 347Q701 340 736 334Q758 330 769 341Q785 350 790 541L791 588 Z"/>
<path id="z34490d9" d="M674 314Q675 230 693 139Q697 127 675 112Q638 93 613 90Q597 86 588 95Q581 104 589 119Q617 156 617 184Q621 251 623 325L624 358Q624 398 624 443L624 480Q623 522 622 568L665 562Q666 516 668 473L670 431Q671 388 673 347L674 314 Z"/>
<path id="z34490d10" d="M668 473Q702 467 734 464Q758 460 749 448Q739 433 713 428Q695 425 670 431L624 443Q587 453 555 463Q539 467 559 482Q562 483 624 480L668 473 Z"/>
<path id="z34490d11" d="M515 623Q635 590 791 588L843 586Q952 586 959 577Q963 567 949 553Q895 513 841 532L790 541Q736 550 665 562L622 568Q570 574 516 583L476 588Q448 589 419 595Q400 598 414 613Q436 635 472 633L515 623 Z"/>
<defs>
	<clipPath id="z34490c1"><use xlink:href="#z34490d1"/></clipPath>
	<clipPath id="z34490c2"><use xlink:href="#z34490d2"/></clipPath>
	<clipPath id="z34490c3"><use xlink:href="#z34490d3"/></clipPath>
	<clipPath id="z34490c4"><use xlink:href="#z34490d4"/></clipPath>
	<clipPath id="z34490c5"><use xlink:href="#z34490d5"/></clipPath>
	<clipPath id="z34490c6"><use xlink:href="#z34490d6"/></clipPath>
	<clipPath id="z34490c7"><use xlink:href="#z34490d7"/></clipPath>
	<clipPath id="z34490c8"><use xlink:href="#z34490d8"/></clipPath>
	<clipPath id="z34490c9"><use xlink:href="#z34490d9"/></clipPath>
	<clipPath id="z34490c10"><use xlink:href="#z34490d10"/></clipPath>
	<clipPath id="z34490c11"><use xlink:href="#z34490d11"/></clipPath>
</defs>
<path pathLength="3333" clip-path="url(#z34490c1)" d="M88 380L124 418L158 572"/>
<path pathLength="3333" clip-path="url(#z34490c2)" d="M144 382L367 358L392 381L351 488"/>
<path pathLength="3333" clip-path="url(#z34490c3)" d="M177 547L388 509"/>
<path pathLength="3333" clip-path="url(#z34490c4)" d="M205 130L266 191L245 661"/>
<path pathLength="3333" clip-path="url(#z34490c5)" d="M74 711L133 728L354 644"/>
<path pathLength="3333" clip-path="url(#z34490c6)" d="M339 583L403 698"/>
<path pathLength="3333" clip-path="url(#z34490c7)" d="M462 321L501 381L466 865"/>
<path pathLength="3333" clip-path="url(#z34490c8)" d="M527 346L761 311L815 348L812 827L788 858L686 803"/>
<path pathLength="3333" clip-path="url(#z34490c9)" d="M592 99L654 151L637 565"/>
<path pathLength="3333" clip-path="url(#z34490c10)" d="M559 473L741 448"/>
<path pathLength="3333" clip-path="url(#z34490c11)" d="M417 606L856 556L955 569"/>
</svg>