<!--
AnimCJK 2016-2019 Copyright Francois Mizessyn - https://github.com/parsimonhi/animCJK
Derived from:
    MakeMeAHanzi project - https://github.com/skishore/makemeahanzi
    Arphic PL KaitiM GB font
    Arphic PL UKai font
You can redistribute and/or modify this file under the terms of the Arphic Public License
as published by Arphic Technology Co., Ltd.
You should have received a copy of this license along with this file.
If not, see http://ftp.gnu.org/non-gnu/chinese-fonts-truetype/LICENSE.
-->
<svg id="z34506" class="acjk" version="1.1" viewBox="0 0 1024 1024" xmlns="http://www.w3.org/2000/svg" xmlns:xlink="http://www.w3.org/1999/xlink">
<style>
<![CDATA[
@keyframes zk {
	to {
		stroke-dashoffset:0;
	}
}
svg.acjk path[clip-path] {
	--t:0.8s;
	animation:zk var(--t) linear forwards var(--d);
	stroke-dasharray:3337;
	stroke-dashoffset:3339;
	stroke-width:128;
	stroke-linecap:round;
	fill:none;
	stroke:#000;
}
svg.acjk path[id] {fill:#ccc;}
]]>
</style>
<path id="z34506d1" d="M330 244Q318 237 280 233Q268 230 265 236Q259 243 269 258Q297 306 319 386Q323 411 339 426Q358 447 362 430Q365 420 364 406C361 385 361 385 359 374Q343 301 338 274C336 264 340 248 330 244Z"/>
<path id="z34506d2" d="M698 330Q728 273 755 262Q773 246 760 227Q691 164 642 189Q585 205 534 218C497 225 497 225 479 228Q406 238 330 244C320 244 328 274 338 274Q353 275 371 271Q425 261 480 253C515 247 515 247 532 244Q577 235 624 228Q657 221 669 235Q675 242 672 255Q659 295 646 328C640 344 690 346 698 330Z"/>
<path id="z34506d3" d="M526 381Q605 371 712 364Q722 363 723 355Q723 348 698 330C684 320 663 325 646 328Q585 340 528 351C497 356 497 356 482 358Q418 367 359 374C348 376 353 408 364 406Q367 406 372 405Q415 395 482 387C511 383 511 383 526 381Z"/>
<path id="z34506d4" d="M520 485Q523 431 526 381C527 361 527 361 528 351Q529 296 532 244C533 227 533 227 534 218Q537 182 550 132Q553 122 534 107Q500 89 476 85Q460 82 452 90Q445 97 453 112Q474 143 479 228C480 245 480 245 480 253Q481 304 482 358C482 377 482 377 482 387Q482 436 480 490C480 503 520 498 520 485Z"/>
<path id="z34506d5" d="M661 462Q594 472 520 485C493 488 493 488 480 490Q402 500 319 512Q292 516 251 509Q238 509 234 519Q230 532 237 542Q258 561 288 587Q298 591 312 585Q369 558 630 498Q655 492 676 484C684 481 670 460 661 462Z"/>
<path id="z34506d6" d="M676 484Q733 565 737 567Q744 570 753 562Q766 552 762 511Q759 457 641 399Q634 392 630 403Q627 415 635 426Q648 442 661 462C671 477 671 477 676 484Z"/>
<path id="z34506d7" d="M279 644Q267 640 240 636Q228 633 225 639Q219 646 228 661Q258 715 278 805Q282 829 296 846C302 854 325 854 325 844Q325 828 299 685C296 670 294 647 279 644Z"/>
<path id="z34506d8" d="M725 808Q758 705 787 666Q799 656 794 643Q788 627 729 596Q713 587 698 592Q508 623 279 644C264 644 284 688 299 685Q363 672 400 667C415 664 415 664 423 663Q480 653 542 646C568 643 568 643 581 641Q671 625 695 641Q701 645 700 663Q690 726 669 815C666 834 718 825 725 808Z"/>
<path id="z34506d9" d="M453 835Q454 832 455 830Q461 772 430 674Q427 667 423 663C418 657 400 659 400 667Q412 812 431 836C435 842 450 842 453 835Z"/>
<path id="z34506d10" d="M549 827Q562 806 593 727Q599 709 612 685Q622 672 614 664Q604 652 581 641C569 636 537 634 542 646Q542 647 545 652Q560 686 530 804Q526 817 526 829C526 837 544 833 549 827Z"/>
<path id="z34506d11" d="M296 846Q223 849 146 855Q124 856 139 874Q152 887 170 895Q191 901 207 897Q453 845 867 867Q888 868 893 860Q899 848 883 834Q826 786 763 803Q744 804 725 808C688 813 688 813 669 815Q614 819 549 827C534 828 534 828 526 829Q514 828 503 830Q478 831 453 835C438 836 438 836 431 836Q379 839 325 844C306 845 306 845 296 846Z"/>
<defs>
	<clipPath id="z34506c1"><use xlink:href="#z34506d1"/></clipPath>
	<clipPath id="z34506c2"><use xlink:href="#z34506d2"/></clipPath>
	<clipPath id="z34506c3"><use xlink:href="#z34506d3"/></clipPath>
	<clipPath id="z34506c4"><use xlink:href="#z34506d4"/></clipPath>
	<clipPath id="z34506c5"><use xlink:href="#z34506d5"/></clipPath>
	<clipPath id="z34506c6"><use xlink:href="#z34506d6"/></clipPath>
	<clipPath id="z34506c7"><use xlink:href="#z34506d7"/></clipPath>
	<clipPath id="z34506c8"><use xlink:href="#z34506d8"/></clipPath>
	<clipPath id="z34506c9"><use xlink:href="#z34506d9"/></clipPath>
	<clipPath id="z34506c10"><use xlink:href="#z34506d10"/></clipPath>
	<clipPath id="z34506c11"><use xlink:href="#z34506d11"/></clipPath>
</defs>
<path style="--d:1s;" pathLength="3333" clip-path="url(#z34506c1)" d="M271 239L305 263L354 432"/>
<path style="--d:2s;" pathLength="3333" clip-path="url(#z34506c2)" d="M339 250L675 207L719 241L656 325"/>
<path style="--d:3s;" pathLength="3333" clip-path="url(#z34506c3)" d="M366 376L715 355"/>
<path style="--d:4s;" pathLength="3333" clip-path="url(#z34506c4)" d="M456 92L510 146L499 487"/>
<path style="--d:5s;" pathLength="3333" clip-path="url(#z34506c5)" d="M237 524L309 550L668 478"/>
<path style="--d:6s;" pathLength="3333" clip-path="url(#z34506c6)" d="M636 402L721 492L750 562"/>
<path style="--d:7s;" pathLength="3333" clip-path="url(#z34506c7)" d="M232 643L275 699L310 844"/>
<path style="--d:8s;" pathLength="3333" clip-path="url(#z34506c8)" d="M290 650L714 620L746 657L700 799L676 809"/>
<path style="--d:9s;" pathLength="3333" clip-path="url(#z34506c9)" d="M420 666L442 833"/>
<path style="--d:10s;" pathLength="3333" clip-path="url(#z34506c10)" d="M550 649L583 680L535 825"/>
<path style="--d:11s;" pathLength="3333" clip-path="url(#z34506c11)" d="M142 866L778 831L890 854"/>
</svg>