<!--
AnimCJK 2016-2019 Copyright Francois Mizessyn - https://github.com/parsimonhi/animCJK
Derived from:
    MakeMeAHanzi project - https://github.com/skishore/makemeahanzi
    Arphic PL KaitiM GB font
    Arphic PL UKai font
You can redistribute and/or modify this file under the terms of the Arphic Public License
as published by Arphic Technology Co., Ltd.
You should have received a copy of this license along with this file.
If not, see http://ftp.gnu.org/non-gnu/chinese-fonts-truetype/LICENSE.
-->
<svg id="z34511" class="acjk" version="1.1" viewBox="0 0 1024 1024" xmlns="http://www.w3.org/2000/svg" xmlns:xlink="http://www.w3.org/1999/xlink">
<style>
<![CDATA[
@keyframes zk {
	to {
		stroke-dashoffset:0;
	}
}
svg.acjk path[clip-path] {
	--t:0.8s;
	animation:zk var(--t) linear forwards var(--d);
	stroke-dasharray:3337;
	stroke-dashoffset:3339;
	stroke-width:128;
	stroke-linecap:round;
	fill:none;
	stroke:#000;
}
svg.acjk path[id] {fill:#ccc;}
]]>
</style>
<path id="z34511d1" d="M142 395Q132 389 97 384Q85 381 83 386Q77 393 85 407Q112 458 130 540Q133 565 148 582Q166 601 170 587Q173 577 173 563C171 542 171 542 170 532Q155 453 151 424C149 414 151 399 142 395Z"/>
<path id="z34511d2" d="M388 491Q410 424 438 405Q453 389 439 373Q426 361 379 340Q366 334 283 364C252 373 252 373 236 377Q190 386 142 395C132 397 142 429 151 424Q160 417 236 405C267 398 267 398 283 395Q304 389 326 385Q347 379 355 388Q362 395 361 410Q354 455 343 491C340 506 382 505 388 491Z"/>
<path id="z34511d3" d="M279 543Q330 533 405 525Q415 524 416 515Q417 508 388 491C375 483 358 488 343 491Q310 498 280 508C251 515 251 515 236 518Q200 525 170 532C160 534 163 563 173 563Q177 563 184 562Q205 556 235 551C264 546 264 546 279 543Z"/>
<path id="z34511d4" d="M274 673Q275 606 279 543C280 520 280 520 280 508Q281 450 283 395C283 374 283 374 283 364Q286 265 305 191Q309 179 287 164Q250 145 225 141Q209 138 200 147Q193 154 201 171Q232 214 232 245Q235 309 236 377C236 396 236 396 236 405Q236 460 236 518C235 540 235 540 235 551Q234 615 230 685C230 700 274 688 274 673Z"/>
<path id="z34511d5" d="M367 645Q321 658 274 673C245 681 245 681 230 685Q175 698 119 714Q101 718 71 718Q58 719 56 729Q53 742 63 750Q85 766 117 786Q127 789 140 781Q164 763 377 667C384 664 375 643 367 645Z"/>
<path id="z34511d6" d="M377 667Q404 725 415 731Q422 734 430 727Q437 718 440 696Q444 674 423 646Q371 591 357 590Q353 591 349 600Q348 610 367 645C374 660 374 660 377 667Z"/>
<path id="z34511d7" d="M658 382Q659 379 663 376Q697 330 734 253Q750 225 775 206Q791 199 790 189Q790 176 761 160Q724 138 710 138Q700 139 688 147Q586 183 510 189Q473 189 470 197Q469 201 476 206Q519 240 648 195Q670 188 681 193Q688 197 669 254Q654 302 618 352C603 372 603 372 596 382Q538 451 446 499Q437 503 438 508Q439 512 446 512Q545 506 629 416C648 393 648 393 658 382Z"/>
<path id="z34511d8" d="M629 416Q746 530 785 534Q854 534 937 515Q971 509 968 500Q967 496 932 487Q761 448 708 415Q693 408 658 382C631 362 631 362 618 352Q581 322 543 287Q509 254 477 256Q461 257 458 261Q457 268 471 276Q510 297 596 382C618 405 618 405 629 416Z"/>
<path id="z34511d9" d="M635 650Q767 628 773 623Q783 614 779 605Q772 592 741 583Q710 576 642 596C602 605 602 605 582 610Q530 617 468 621Q428 625 456 645Q501 672 564 661Q571 660 584 658C618 653 618 653 635 650Z"/>
<path id="z34511d10" d="M621 794Q628 719 635 650C640 614 640 614 642 596Q648 566 654 550Q657 540 639 526Q608 508 586 504Q571 500 564 508Q557 515 564 529Q582 554 582 610C583 642 583 642 584 658Q584 724 582 798C582 811 621 807 621 794Z"/>
<path id="z34511d11" d="M582 798Q488 805 382 817Q360 818 376 837Q391 853 409 859Q431 866 449 861Q629 821 877 839Q877 838 879 839Q901 840 906 831Q912 818 895 803Q841 760 781 770Q718 780 621 794C595 797 595 797 582 798Z"/>
<defs>
	<clipPath id="z34511c1"><use xlink:href="#z34511d1"/></clipPath>
	<clipPath id="z34511c2"><use xlink:href="#z34511d2"/></clipPath>
	<clipPath id="z34511c3"><use xlink:href="#z34511d3"/></clipPath>
	<clipPath id="z34511c4"><use xlink:href="#z34511d4"/></clipPath>
	<clipPath id="z34511c5"><use xlink:href="#z34511d5"/></clipPath>
	<clipPath id="z34511c6"><use xlink:href="#z34511d6"/></clipPath>
	<clipPath id="z34511c7"><use xlink:href="#z34511d7"/></clipPath>
	<clipPath id="z34511c8"><use xlink:href="#z34511d8"/></clipPath>
	<clipPath id="z34511c9"><use xlink:href="#z34511d9"/></clipPath>
	<clipPath id="z34511c10"><use xlink:href="#z34511d10"/></clipPath>
	<clipPath id="z34511c11"><use xlink:href="#z34511d11"/></clipPath>
</defs>
<path style="--d:1s;" pathLength="3333" clip-path="url(#z34511c1)" d="M88 388L125 430L163 586"/>
<path style="--d:2s;" pathLength="3333" clip-path="url(#z34511c2)" d="M151 401L371 365L403 398L359 490"/>
<path style="--d:3s;" pathLength="3333" clip-path="url(#z34511c3)" d="M179 556L326 515L409 516"/>
<path style="--d:4s;" pathLength="3333" clip-path="url(#z34511c4)" d="M204 153L266 207L252 669L237 676"/>
<path style="--d:5s;" pathLength="3333" clip-path="url(#z34511c5)" d="M62 732L122 750L372 657"/>
<path style="--d:6s;" pathLength="3333" clip-path="url(#z34511c6)" d="M357 599L423 725"/>
<path style="--d:7s;" pathLength="3333" clip-path="url(#z34511c7)" d="M479 198L555 201L688 167L736 196L606 406L447 506"/>
<path style="--d:8s;" pathLength="3333" clip-path="url(#z34511c8)" d="M466 263L772 486L960 501"/>
<path style="--d:9s;" pathLength="3333" clip-path="url(#z34511c9)" d="M455 632L538 640L775 608"/>
<path style="--d:10s;" pathLength="3333" clip-path="url(#z34511c10)" d="M568 512L616 558L598 796"/>
<path style="--d:11s;" pathLength="3333" clip-path="url(#z34511c11)" d="M375 824L433 837L790 801L904 820"/>
</svg>