<!--
AnimCJK 2016-2019 Copyright Francois Mizessyn - https://github.com/parsimonhi/animCJK
Derived from:
    MakeMeAHanzi project - https://github.com/skishore/makemeahanzi
    Arphic PL KaitiM GB font
    Arphic PL UKai font
You can redistribute and/or modify this file under the terms of the Arphic Public License
as published by Arphic Technology Co., Ltd.
You should have received a copy of this license along with this file.
If not, see http://ftp.gnu.org/non-gnu/chinese-fonts-truetype/LICENSE.
-->
<svg id="z34521" class="acjk" version="1.1" viewBox="0 0 1024 1024" xmlns="http://www.w3.org/2000/svg" xmlns:xlink="http://www.w3.org/1999/xlink">
<style>
<![CDATA[
@keyframes zk {
	to {
		stroke-dashoffset:0;
	}
}
svg.acjk path[clip-path] {
	--t:0.8s;
	animation:zk var(--t) linear forwards var(--d);
	stroke-dasharray:3337;
	stroke-dashoffset:3339;
	stroke-width:128;
	stroke-linecap:round;
	fill:none;
	stroke:#000;
}
svg.acjk path[id] {fill:#ccc;}
]]>
</style>
<path id="z34521d1" d="M152 366Q142 360 109 356Q97 353 95 359Q89 365 98 380Q126 432 144 519Q148 544 164 562Q182 581 186 567Q189 557 189 542C186 521 186 521 185 510Q167 425 163 396C161 386 162 370 152 366Z"/>
<path id="z34521d2" d="M399 469Q418 388 448 363Q461 345 448 330Q376 285 327 313Q311 319 295 327C265 336 265 336 250 341Q204 354 152 366C142 368 153 398 163 396Q175 395 188 389Q216 380 250 373C279 365 279 365 294 361Q313 355 335 350Q354 344 362 351Q371 358 370 376Q364 421 357 459C354 473 396 483 399 469Z"/>
<path id="z34521d3" d="M290 517Q336 504 403 493Q413 492 413 483Q413 477 399 469C387 462 371 457 357 459Q354 459 291 480C263 489 263 489 249 493Q215 502 185 510C174 512 178 544 189 542Q196 541 205 539Q223 532 249 527C276 520 276 520 290 517Z"/>
<path id="z34521d4" d="M285 652Q288 582 290 517C291 492 291 492 291 480Q292 419 294 361C295 338 295 338 295 327Q295 252 316 161Q319 151 298 136Q264 117 238 113Q222 110 214 119Q207 126 215 142Q246 187 246 217Q249 277 250 341C250 362 250 362 250 373Q250 431 249 493C249 516 249 516 249 527Q248 593 243 665C243 680 285 667 285 652Z"/>
<path id="z34521d5" d="M370 622Q328 635 285 652C257 661 257 661 243 665Q188 681 129 700Q110 706 81 705Q68 706 66 717Q65 730 74 738Q96 754 130 772Q140 775 152 766Q188 738 349 661Q367 652 381 643C388 639 378 620 370 622Z"/>
<path id="z34521d6" d="M381 643Q405 695 416 700Q425 703 433 695Q442 685 445 658Q446 628 382 578Q372 569 365 570Q359 571 356 582Q355 592 369 618Q369 619 370 622C377 636 377 636 381 643Z"/>
<path id="z34521d7" d="M682 343Q814 309 816 307Q823 300 819 291Q812 281 784 274Q757 268 685 296C653 305 653 305 637 309Q594 318 544 324Q510 331 535 346Q575 370 629 354Q630 353 636 353C667 346 667 346 682 343Z"/>
<path id="z34521d8" d="M685 296Q689 209 709 125Q713 115 693 99Q659 80 636 76Q620 73 612 81Q605 88 612 103Q634 136 634 158Q637 230 637 309C636 338 636 338 636 353Q635 408 633 469C633 483 674 474 674 460Q678 400 682 343C684 312 684 312 685 296Z"/>
<path id="z34521d9" d="M633 469Q594 475 472 491Q444 495 466 512Q497 539 527 531Q567 522 616 513C647 507 647 507 663 504Q717 492 857 474Q867 475 877 462Q878 450 855 440Q828 419 730 446Q694 452 674 460C647 466 647 466 633 469Z"/>
<path id="z34521d10" d="M626 636Q575 646 521 652Q485 658 511 674Q550 698 624 680C625 680 625 680 625 680C658 673 658 673 675 670Q805 640 811 635Q820 628 815 619Q808 609 780 601Q753 595 678 622C643 631 643 631 626 636Z"/>
<path id="z34521d11" d="M616 513Q625 547 626 636C625 665 625 665 625 680Q624 729 623 804C623 819 667 814 667 799Q671 729 675 670C677 638 677 638 678 622Q681 523 682 522Q673 512 663 504C652 493 613 497 616 513Z"/>
<path id="z34521d12" d="M623 804Q506 817 373 833Q351 834 367 853Q382 868 400 873Q422 880 439 875Q601 833 909 833Q927 833 945 834Q966 834 971 825Q977 813 960 799Q906 757 867 766Q791 781 667 799C638 802 638 802 623 804Z"/>
<defs>
	<clipPath id="z34521c1"><use xlink:href="#z34521d1"/></clipPath>
	<clipPath id="z34521c2"><use xlink:href="#z34521d2"/></clipPath>
	<clipPath id="z34521c3"><use xlink:href="#z34521d3"/></clipPath>
	<clipPath id="z34521c4"><use xlink:href="#z34521d4"/></clipPath>
	<clipPath id="z34521c5"><use xlink:href="#z34521d5"/></clipPath>
	<clipPath id="z34521c6"><use xlink:href="#z34521d6"/></clipPath>
	<clipPath id="z34521c7"><use xlink:href="#z34521d7"/></clipPath>
	<clipPath id="z34521c8"><use xlink:href="#z34521d8"/></clipPath>
	<clipPath id="z34521c9"><use xlink:href="#z34521d9"/></clipPath>
	<clipPath id="z34521c10"><use xlink:href="#z34521d10"/></clipPath>
	<clipPath id="z34521c11"><use xlink:href="#z34521d11"/></clipPath>
	<clipPath id="z34521c12"><use xlink:href="#z34521d12"/></clipPath>
</defs>
<path style="--d:1s;" pathLength="3333" clip-path="url(#z34521c1)" d="M100 361L139 406L176 568"/>
<path style="--d:2s;" pathLength="3333" clip-path="url(#z34521c2)" d="M160 368L379 328L411 360L372 462"/>
<path style="--d:3s;" pathLength="3333" clip-path="url(#z34521c3)" d="M195 534L408 478"/>
<path style="--d:4s;" pathLength="3333" clip-path="url(#z34521c4)" d="M217 122L278 175L265 639L248 657"/>
<path style="--d:5s;" pathLength="3333" clip-path="url(#z34521c5)" d="M69 717L131 737L375 637"/>
<path style="--d:6s;" pathLength="3333" clip-path="url(#z34521c6)" d="M364 577L431 692"/>
<path style="--d:7s;" pathLength="3333" clip-path="url(#z34521c7)" d="M535 335L811 298"/>
<path style="--d:8s;" pathLength="3333" clip-path="url(#z34521c8)" d="M617 89L671 133L650 465"/>
<path style="--d:9s;" pathLength="3333" clip-path="url(#z34521c9)" d="M463 499L531 507L870 458"/>
<path style="--d:10s;" pathLength="3333" clip-path="url(#z34521c10)" d="M509 662L809 625"/>
<path style="--d:11s;" pathLength="3333" clip-path="url(#z34521c11)" d="M625 521L652 548L637 802"/>
<path style="--d:12s;" pathLength="3333" clip-path="url(#z34521c12)" d="M367 841L432 851L869 799L967 814"/>
</svg>