<!--
AnimCJK 2016-2018 Copyright Francois Mizessyn - https://github.com/parsimonhi/animCJK
Derived from:
    MakeMeAHanzi project - https://github.com/skishore/makemeahanzi
    Arphic PL KaitiM GB - https://apps.ubuntu.com/cat/applications/precise/fonts-arphic-gkai00mp/
    Arphic PL UKai - https://apps.ubuntu.com/cat/applications/fonts-arphic-ukai/
You can redistribute and/or modify this file under the terms of the Arphic Public License
as published by Arphic Technology Co., Ltd.
You should have received a copy of this license (the directory "APL") along with this file;
if not, see http://ftp.gnu.org/non-gnu/chinese-fonts-truetype/LICENSE.
-->
<svg id="z34520" class="acjk" version="1.1" viewBox="0 0 1024 1024" xmlns="http://www.w3.org/2000/svg" xmlns:xlink="http://www.w3.org/1999/xlink">
<style>
<![CDATA[
@keyframes z34520k {
	from {
		stroke:#ccc;
		stroke-dashoffset:3334;
	}
	1% {
		stroke:#c00;
		stroke-dashoffset:3334;
	}
	75% {
		stroke:#c00;
		stroke-dashoffset:0;
	}
	to {
		stroke:#000;
	}
}
#z34520 path[clip-path] {
	animation:z34520k 1s linear both;
	stroke-dasharray:3334;
	stroke-width:128;
	stroke-linecap:round;
	fill:none;
}
#z34520 path[clip-path="url(#z34520c1)"] {animation-delay:1s;}
#z34520 path[clip-path="url(#z34520c2)"] {animation-delay:2s;}
#z34520 path[clip-path="url(#z34520c3)"] {animation-delay:3s;}
#z34520 path[clip-path="url(#z34520c4)"] {animation-delay:4s;}
#z34520 path[clip-path="url(#z34520c5)"] {animation-delay:5s;}
#z34520 path[clip-path="url(#z34520c6)"] {animation-delay:6s;}
#z34520 path[clip-path="url(#z34520c7)"] {animation-delay:7s;}
#z34520 path[clip-path="url(#z34520c8)"] {animation-delay:8s;}
#z34520 path[clip-path="url(#z34520c9)"] {animation-delay:9s;}
#z34520 path[clip-path="url(#z34520c10)"] {animation-delay:10s;}
#z34520 path[clip-path="url(#z34520c11)"] {animation-delay:11s;}
#z34520 path[clip-path="url(#z34520c12)"] {animation-delay:12s;}
#z34520 path {fill:#ccc;}
]]>
</style>
<path id="z34520d1" d="M125 357Q115 353 101 352Q89 349 87 355Q81 361 89 375Q116 424 134 505Q138 530 152 546Q170 565 174 551Q177 541 177 527L173 496Q157 406 154 384L125 357 Z"/>
<path id="z34520d2" d="M396 460Q420 387 451 363Q467 347 453 330Q381 278 330 306Q306 315 286 323L241 335Q186 348 125 357L154 384Q166 383 176 379Q207 372 242 365L286 355Q310 348 336 343Q357 337 365 345Q374 354 371 371Q362 416 351 453L396 460 Z"/>
<path id="z34520d3" d="M284 507Q333 497 406 489Q416 488 416 479Q416 472 396 460L351 453Q347 453 344 455Q311 464 284 472L243 482Q206 489 173 496L177 527Q184 527 192 526Q213 520 242 515L284 507 Z"/>
<path id="z34520d4" d="M281 631Q282 567 284 507L284 472Q285 412 286 355L286 323Q286 262 304 153Q308 141 287 127Q251 109 226 106Q210 103 202 112Q195 119 204 135Q234 178 235 208Q239 269 241 335L242 365Q243 422 243 482L242 515Q242 576 239 645L281 631 Z"/>
<path id="z34520d5" d="M333 612Q305 621 281 631L239 645Q94 690 68 691Q55 692 54 703Q53 716 62 723Q84 738 116 754Q126 757 137 748Q140 745 345 631L333 612 Z"/>
<path id="z34520d6" d="M345 631Q372 686 384 692Q391 693 398 687Q405 678 406 658Q407 624 338 572Q329 566 324 566Q320 567 318 576Q318 583 329 604Q330 607 333 612L345 631 Z"/>
<path id="z34520d7" d="M504 169Q526 191 550 218Q560 230 575 230Q584 230 589 219Q593 207 588 181Q584 163 559 148Q532 138 503 127Q490 123 484 125Q480 129 480 140Q483 150 504 169 Z"/>
<path id="z34520d8" d="M730 105Q721 124 657 214Q650 230 665 226Q683 214 774 145Q790 129 814 117Q833 105 822 89Q809 73 782 61Q757 49 745 53Q733 54 738 68Q742 86 730 105 Z"/>
<path id="z34520d9" d="M644 319Q704 306 771 295Q816 285 822 279Q831 272 827 264Q820 252 792 244Q764 238 734 249Q683 265 629 278Q568 291 498 296Q462 302 487 318Q523 343 581 330Q582 329 587 329L644 319 Z"/>
<path id="z34520d10" d="M669 455Q802 428 806 426Q815 419 810 411Q804 401 778 392Q754 386 672 411L614 424Q568 431 517 434Q483 438 507 455Q543 479 598 467Q604 466 614 464L669 455 Z"/>
<path id="z34520d11" d="M667 589Q748 579 923 579Q942 579 947 570Q953 560 936 546Q885 509 850 517Q780 530 667 550L613 558Q525 568 424 583Q403 584 419 601Q432 614 450 620Q469 624 486 620Q546 604 613 595L667 589 Z"/>
<path id="z34520d12" d="M613 934Q619 959 626 969Q632 976 639 974Q654 964 661 905Q670 829 668 754Q665 711 667 589L667 550Q667 507 669 455L672 411Q672 410 681 363Q684 344 670 335Q655 325 644 319L587 329Q588 330 590 333Q614 388 614 424L614 464Q614 507 613 558L613 595Q607 875 613 934 Z"/>
<defs>
	<clipPath id="z34520c1"><use xlink:href="#z34520d1"/></clipPath>
	<clipPath id="z34520c2"><use xlink:href="#z34520d2"/></clipPath>
	<clipPath id="z34520c3"><use xlink:href="#z34520d3"/></clipPath>
	<clipPath id="z34520c4"><use xlink:href="#z34520d4"/></clipPath>
	<clipPath id="z34520c5"><use xlink:href="#z34520d5"/></clipPath>
	<clipPath id="z34520c6"><use xlink:href="#z34520d6"/></clipPath>
	<clipPath id="z34520c7"><use xlink:href="#z34520d7"/></clipPath>
	<clipPath id="z34520c8"><use xlink:href="#z34520d8"/></clipPath>
	<clipPath id="z34520c9"><use xlink:href="#z34520d9"/></clipPath>
	<clipPath id="z34520c10"><use xlink:href="#z34520d10"/></clipPath>
	<clipPath id="z34520c11"><use xlink:href="#z34520d11"/></clipPath>
	<clipPath id="z34520c12"><use xlink:href="#z34520d12"/></clipPath>
</defs>
<path pathLength="3333" clip-path="url(#z34520c1)" d="M93 360L129 396L166 551"/>
<path pathLength="3333" clip-path="url(#z34520c2)" d="M133 357L383 323L415 358L367 455"/>
<path pathLength="3333" clip-path="url(#z34520c3)" d="M180 520L411 474"/>
<path pathLength="3333" clip-path="url(#z34520c4)" d="M206 117L266 162L251 638"/>
<path pathLength="3333" clip-path="url(#z34520c5)" d="M58 703L122 717L338 627"/>
<path pathLength="3333" clip-path="url(#z34520c6)" d="M327 576L390 685"/>
<path pathLength="3333" clip-path="url(#z34520c7)" d="M486 132L564 191L572 226"/>
<path pathLength="3333" clip-path="url(#z34520c8)" d="M745 59L776 106L662 219"/>
<path pathLength="3333" clip-path="url(#z34520c9)" d="M485 305L555 312L824 266"/>
<path pathLength="3333" clip-path="url(#z34520c10)" d="M504 442L581 449L805 414"/>
<path pathLength="3333" clip-path="url(#z34520c11)" d="M419 589L469 599L865 547L943 560"/>
<path pathLength="3333" clip-path="url(#z34520c12)" d="M596 333L644 369L636 968"/>
</svg>