<!--
AnimCJK 2016-2017 Copyright Francois Mizessyn, http://gooo.free.fr/animCJK/
Derived from:
    MakeMeAHanzi project - https://github.com/skishore/makemeahanzi
    Arphic PL KaitiM GB - https://apps.ubuntu.com/cat/applications/precise/fonts-arphic-gkai00mp/
    Arphic PL UKai - https://apps.ubuntu.com/cat/applications/fonts-arphic-ukai/
You can redistribute and/or modify this file under the terms of the Arphic Public License
as published by Arphic Technology Co., Ltd.
You should have received a copy of this license (the directory "APL") along with this file;
if not, see http://ftp.gnu.org/non-gnu/chinese-fonts-truetype/LICENSE.
-->
<svg id="z34579" class="acjk" version="1.1" viewBox="0 0 1024 1024" xmlns="http://www.w3.org/2000/svg" xmlns:xlink="http://www.w3.org/1999/xlink">
<style>
<![CDATA[
@keyframes z34579k {
	from {
		stroke:#c00;
		stroke-dashoffset:3334;
	}
	75% {
		stroke:#c00;
		stroke-dashoffset:0;
	}
	to {
		stroke:#000;
	}
}
#z34579 path[clip-path] {
	animation:z34579k 1s linear both;
	stroke-dasharray:3334;
	stroke-width:128;
	stroke-linecap:round;
	fill:none;
}
#z34579 path[clip-path="url(#z34579c1)"] {animation-delay:1s;}
#z34579 path[clip-path="url(#z34579c2)"] {animation-delay:2s;}
#z34579 path[clip-path="url(#z34579c3)"] {animation-delay:3s;}
#z34579 path[clip-path="url(#z34579c4)"] {animation-delay:4s;}
#z34579 path[clip-path="url(#z34579c5)"] {animation-delay:5s;}
#z34579 path[clip-path="url(#z34579c6)"] {animation-delay:6s;}
#z34579 path[clip-path="url(#z34579c7)"] {animation-delay:7s;}
#z34579 path[clip-path="url(#z34579c8)"] {animation-delay:8s;}
#z34579 path[clip-path="url(#z34579c9)"] {animation-delay:9s;}
#z34579 path[clip-path="url(#z34579c10)"] {animation-delay:10s;}
#z34579 path[clip-path="url(#z34579c11)"] {animation-delay:11s;}
#z34579 path[clip-path="url(#z34579c12)"] {animation-delay:12s;}
#z34579 path {fill:#ccc;}
]]>
</style>
<path id="z34579d1" d="M115 385Q105 381 78 376Q68 375 64 379Q60 383 67 398Q92 447 111 530Q114 554 129 570Q145 589 150 575Q153 565 152 551L149 521Q133 439 129 412L115 385 Z"/>
<path id="z34579d2" d="M344 487Q365 412 393 389Q406 373 394 358Q330 313 280 338Q261 345 244 353L199 366Q156 376 115 385L129 412Q139 411 154 406Q173 400 199 396L243 386Q303 370 312 377Q321 384 319 402Q312 445 304 481L344 487 Z"/>
<path id="z34579d3" d="M241 532Q286 523 354 515Q364 514 364 506Q364 499 344 487L304 481Q303 481 241 499L200 510Q172 516 149 521L152 551Q155 548 200 540L241 532 Z"/>
<path id="z34579d4" d="M237 668Q238 598 241 532L241 499Q242 441 243 386L244 353Q244 278 264 197Q267 187 247 171Q211 153 186 150Q170 146 162 155Q155 162 163 178Q194 221 194 252Q197 307 199 366L199 396Q200 451 200 510L200 540Q199 607 195 682L237 668 Z"/>
<path id="z34579d5" d="M308 644Q272 654 237 668L195 682Q149 695 99 711Q83 715 56 715Q44 716 42 727Q41 740 50 747Q72 762 104 779Q114 780 125 773Q149 752 295 678Q308 671 321 662L308 644 Z"/>
<path id="z34579d6" d="M321 662Q342 702 357 705Q364 706 370 699Q376 690 375 669Q375 653 355 635Q304 599 296 602Q292 603 291 612Q291 621 305 639Q306 640 308 644L321 662 Z"/>
<path id="z34579d7" d="M701 247Q824 186 835 182Q851 181 853 172Q854 162 843 153Q822 141 780 130Q765 124 753 127Q747 131 748 141Q749 181 576 285Q572 294 577 296Q589 296 669 261L701 247 Z"/>
<path id="z34579d8" d="M735 466Q784 454 893 442Q903 443 913 430Q914 418 891 408Q863 387 791 409Q767 413 743 420Q739 421 736 422L688 432Q676 433 568 447Q540 451 562 468Q574 478 588 486Q601 493 623 487Q651 480 688 474L735 466 Z"/>
<path id="z34579d9" d="M730 613Q731 534 735 466L736 422Q739 280 740 279Q739 276 738 276Q719 257 701 247L669 261Q684 295 687 381Q687 400 688 432L688 474Q688 534 688 621L730 613 Z"/>
<path id="z34579d10" d="M688 621Q639 628 586 638Q568 639 582 653Q594 665 608 669Q626 673 639 669Q703 653 851 652Q867 651 871 644Q875 634 862 624Q811 590 763 606Q748 609 730 613L688 621 Z"/>
<path id="z34579d11" d="M496 644Q511 613 524 576Q540 522 552 507Q559 497 552 490Q540 480 526 476Q513 472 491 479Q466 488 459 482Q455 479 459 467Q481 419 501 366Q517 332 532 314Q548 298 535 287Q525 278 495 269Q473 259 458 272Q415 303 383 314Q370 318 378 325Q396 337 450 317Q460 314 465 320Q472 333 459 375Q443 448 422 472Q413 485 418 497Q424 504 441 502Q498 490 491 540Q484 582 465 627L450 658Q422 713 369 781Q360 794 364 796Q368 799 376 792Q436 750 481 675L496 644 Z"/>
<path id="z34579d12" d="M481 675Q502 688 524 703Q630 790 766 858Q805 868 965 821Q975 817 978 807Q981 800 960 799Q905 792 844 789Q726 780 529 663Q513 653 496 644L465 627Q429 609 384 621Q375 625 380 633Q386 642 397 642Q422 643 450 658L481 675 Z"/>
<defs>
	<clipPath id="z34579c1"><use xlink:href="#z34579d1"/></clipPath>
	<clipPath id="z34579c2"><use xlink:href="#z34579d2"/></clipPath>
	<clipPath id="z34579c3"><use xlink:href="#z34579d3"/></clipPath>
	<clipPath id="z34579c4"><use xlink:href="#z34579d4"/></clipPath>
	<clipPath id="z34579c5"><use xlink:href="#z34579d5"/></clipPath>
	<clipPath id="z34579c6"><use xlink:href="#z34579d6"/></clipPath>
	<clipPath id="z34579c7"><use xlink:href="#z34579d7"/></clipPath>
	<clipPath id="z34579c8"><use xlink:href="#z34579d8"/></clipPath>
	<clipPath id="z34579c9"><use xlink:href="#z34579d9"/></clipPath>
	<clipPath id="z34579c10"><use xlink:href="#z34579d10"/></clipPath>
	<clipPath id="z34579c11"><use xlink:href="#z34579d11"/></clipPath>
	<clipPath id="z34579c12"><use xlink:href="#z34579d12"/></clipPath>
</defs>
<path pathLength="3333" clip-path="url(#z34579c1)" d="M70 384L106 426L138 575"/>
<path pathLength="3333" clip-path="url(#z34579c2)" d="M124 390L324 354L359 386L314 481"/>
<path pathLength="3333" clip-path="url(#z34579c3)" d="M158 542L359 502"/>
<path pathLength="3333" clip-path="url(#z34579c4)" d="M166 160L226 210L206 675"/>
<path pathLength="3333" clip-path="url(#z34579c5)" d="M47 728L110 743L315 654"/>
<path pathLength="3333" clip-path="url(#z34579c6)" d="M299 609L361 698"/>
<path pathLength="3333" clip-path="url(#z34579c7)" d="M848 170L766 168L581 289"/>
<path pathLength="3333" clip-path="url(#z34579c8)" d="M560 456L906 426"/>
<path pathLength="3333" clip-path="url(#z34579c9)" d="M677 265L710 294L701 618"/>
<path pathLength="3333" clip-path="url(#z34579c10)" d="M587 648L867 637"/>
<path pathLength="3333" clip-path="url(#z34579c11)" d="M381 320L466 290L503 311L437 482L522 508L463 671L371 789"/>
<path pathLength="3333" clip-path="url(#z34579c12)" d="M386 627L447 637L779 819L972 811"/>
</svg>