<!--
AnimCJK 2016-2017 Copyright Francois Mizessyn, http://gooo.free.fr/animCJK/
Derived from:
    MakeMeAHanzi project - https://github.com/skishore/makemeahanzi
    Arphic PL KaitiM GB - https://apps.ubuntu.com/cat/applications/precise/fonts-arphic-gkai00mp/
    Arphic PL UKai - https://apps.ubuntu.com/cat/applications/fonts-arphic-ukai/
You can redistribute and/or modify this file under the terms of the Arphic Public License
as published by Arphic Technology Co., Ltd.
You should have received a copy of this license (the directory "APL") along with this file;
if not, see http://ftp.gnu.org/non-gnu/chinese-fonts-truetype/LICENSE.
-->
<svg id="z34583" class="acjk" version="1.1" viewBox="0 0 1024 1024" xmlns="http://www.w3.org/2000/svg" xmlns:xlink="http://www.w3.org/1999/xlink">
<style>
<![CDATA[
	@keyframes z34583k {
		from {
			stroke:#c00;
			stroke-dashoffset:3000;
		}
		75% {
			stroke:#c00;
			stroke-dashoffset:0;
		}
		to {
			stroke:#000;
		}
	}
	#z34583 path[clip-path] {
		animation:z34583k 1s linear both;
		stroke-dasharray:3000;
		stroke-width:128;
		stroke-linecap:round;
		fill:none;
	}
	#z34583 path[clip-path="url(#z34583c1)"] {animation-delay:1s;}
	#z34583 path[clip-path="url(#z34583c2)"] {animation-delay:2s;}
	#z34583 path[clip-path="url(#z34583c3)"] {animation-delay:3s;}
	#z34583 path[clip-path="url(#z34583c4)"] {animation-delay:4s;}
	#z34583 path[clip-path="url(#z34583c5)"] {animation-delay:5s;}
	#z34583 path[clip-path="url(#z34583c6)"] {animation-delay:6s;}
	#z34583 path[clip-path="url(#z34583c7)"] {animation-delay:7s;}
	#z34583 path[clip-path="url(#z34583c8)"] {animation-delay:8s;}
	#z34583 path[clip-path="url(#z34583c9)"] {animation-delay:9s;}
	#z34583 path[clip-path="url(#z34583c10)"] {animation-delay:10s;}
	#z34583 path[clip-path="url(#z34583c11)"] {animation-delay:11s;}
	#z34583 path[clip-path="url(#z34583c12)"] {animation-delay:12s;}
	#z34583 path[clip-path="url(#z34583c13)"] {animation-delay:13s;}
	#z34583 path {fill:#ccc;}
]]>
</style>
<g transform="scale(1,-1) translate(0,-900)">
	<path id="z34583d1" d="M148 515Q136 521 108 524Q96 528 93 522Q86 516 95 500Q120 451 138 368Q141 343 156 327Q174 305 179 321Q183 333 182 350L179 380Q164 464 163 488L148 515Z"/>
	<path id="z34583d2" d="M396 425Q417 497 445 519Q460 535 446 551Q430 563 383 582Q367 589 347 580Q320 567 295 557L250 542Q201 529 148 515L163 488Q236 509 250 512L294 524Q351 542 361 534Q368 527 367 511Q360 465 350 427L396 425Z"/>
	<path id="z34583d3" d="M290 373Q339 383 411 395Q421 396 421 405Q421 412 396 425L350 427Q317 418 291 409L250 397Q211 388 179 380L182 350Q188 350 249 364L290 373Z"/>
	<path id="z34583d4" d="M285 234Q288 306 290 373L291 409Q292 467 294 524L295 557Q295 636 316 727Q319 737 298 752Q264 771 238 775Q222 778 214 769Q207 762 215 746Q246 701 246 670Q249 609 250 542L250 512Q250 457 250 397L249 364Q248 295 243 220L285 234Z"/>
	<path id="z34583d5" d="M368 262Q328 249 285 234L243 220Q189 207 132 188Q114 182 85 183Q72 182 71 171Q70 158 78 150Q100 134 134 116Q144 113 156 122Q177 140 350 223Q366 230 380 240L368 262Z"/>
	<path id="z34583d6" d="M380 240Q393 207 410 199Q417 198 426 205Q433 215 434 239Q435 267 364 320Q354 327 348 326Q344 325 341 315Q341 300 368 262L380 240Z"/>
	<path id="z34583d7" d="M540 711Q527 715 496 720Q484 721 481 717Q475 710 484 695Q512 649 532 569Q536 545 551 531Q570 509 575 526Q578 536 577 549L572 581Q556 653 554 679L540 711Z"/>
	<path id="z34583d8" d="M781 609Q806 672 838 691Q854 709 840 727Q777 778 738 766Q665 735 540 711L554 679Q563 680 575 685Q650 701 721 716Q739 720 747 713Q754 706 751 691Q742 654 733 623L781 609Z"/>
	<path id="z34583d9" d="M644 564Q698 576 782 587Q792 588 793 597Q793 601 781 609L733 623Q726 622 720 620Q638 595 572 581L577 549Q581 549 588 551Q601 555 619 558L644 564Z"/>
	<path id="z34583d10" d="M496 457Q478 470 457 477Q450 478 443 471Q440 465 447 455Q492 338 449 150Q436 123 442 95Q451 64 462 52Q472 39 481 52Q505 82 507 192Q507 357 514 416L496 457Z"/>
	<path id="z34583d11" d="M683 453Q794 480 813 462Q822 458 825 419Q837 292 833 144Q833 123 825 117Q810 105 732 119Q716 120 718 111Q719 104 732 100Q802 60 840 27Q861 9 873 13Q885 16 894 44Q907 87 903 150Q887 321 885 384Q884 423 895 445Q905 467 896 478Q886 491 839 514Q820 523 801 518Q764 505 687 487L635 477Q565 467 496 457L514 416Q520 422 633 443L683 453Z"/>
	<path id="z34583d12" d="M668 372Q668 373 669 373Q676 407 683 453L687 487Q687 490 688 492Q692 510 694 519Q700 535 683 546Q658 559 644 564L619 558Q634 504 635 477L633 443Q617 299 536 231Q523 221 520 215Q519 209 528 209Q541 208 560 220Q587 235 604 251Q638 284 660 341L668 372Z"/>
	<path id="z34583d13" d="M660 341Q664 337 672 330Q706 299 742 259Q752 246 766 246Q776 246 781 257Q785 269 781 295Q774 335 671 372Q670 373 668 372L660 341Z"/>
	<defs>
		<clipPath id="z34583c1"><use xlink:href="#z34583d1"/></clipPath>
		<clipPath id="z34583c2"><use xlink:href="#z34583d2"/></clipPath>
		<clipPath id="z34583c3"><use xlink:href="#z34583d3"/></clipPath>
		<clipPath id="z34583c4"><use xlink:href="#z34583d4"/></clipPath>
		<clipPath id="z34583c5"><use xlink:href="#z34583d5"/></clipPath>
		<clipPath id="z34583c6"><use xlink:href="#z34583d6"/></clipPath>
		<clipPath id="z34583c7"><use xlink:href="#z34583d7"/></clipPath>
		<clipPath id="z34583c8"><use xlink:href="#z34583d8"/></clipPath>
		<clipPath id="z34583c9"><use xlink:href="#z34583d9"/></clipPath>
		<clipPath id="z34583c10"><use xlink:href="#z34583d10"/></clipPath>
		<clipPath id="z34583c11"><use xlink:href="#z34583d11"/></clipPath>
		<clipPath id="z34583c12"><use xlink:href="#z34583d12"/></clipPath>
		<clipPath id="z34583c13"><use xlink:href="#z34583d13"/></clipPath>
	</defs>
	<path pathLength="2999" clip-path="url(#z34583c1)" d="M97 517L134 482L171 321"/>
	<path pathLength="2999" clip-path="url(#z34583c2)" d="M157 512L377 556L409 525L366 427"/>
	<path pathLength="2999" clip-path="url(#z34583c3)" d="M185 357L413 406"/>
	<path pathLength="2999" clip-path="url(#z34583c4)" d="M218 765L278 714L254 228"/>
	<path pathLength="2999" clip-path="url(#z34583c5)" d="M76 168L133 151L373 251"/>
	<path pathLength="2999" clip-path="url(#z34583c6)" d="M351 321L412 204"/>
	<path pathLength="2999" clip-path="url(#z34583c7)" d="M486 714L527 672L566 526"/>
	<path pathLength="2999" clip-path="url(#z34583c8)" d="M547 709L774 733L798 699L756 617"/>
	<path pathLength="2999" clip-path="url(#z34583c9)" d="M584 556L728 601L788 597"/>
	<path pathLength="2999" clip-path="url(#z34583c10)" d="M450 469L488 406L471 51"/>
	<path pathLength="2999" clip-path="url(#z34583c11)" d="M505 455L543 443L798 494L853 470L858 79L841 65L724 111"/>
	<path pathLength="2999" clip-path="url(#z34583c12)" d="M625 555L662 521L636 345L586 258L529 218"/>
	<path pathLength="2999" clip-path="url(#z34583c13)" d="M673 364L770 252"/>
</g>
</svg>