<!--
AnimCJK 2016-2018 Copyright Francois Mizessyn - https://github.com/parsimonhi/animCJK
Derived from:
    MakeMeAHanzi project - https://github.com/skishore/makemeahanzi
    Arphic PL KaitiM GB - https://apps.ubuntu.com/cat/applications/precise/fonts-arphic-gkai00mp/
    Arphic PL UKai - https://apps.ubuntu.com/cat/applications/fonts-arphic-ukai/
You can redistribute and/or modify this file under the terms of the Arphic Public License
as published by Arphic Technology Co., Ltd.
You should have received a copy of this license (the directory "APL") along with this file;
if not, see http://ftp.gnu.org/non-gnu/chinese-fonts-truetype/LICENSE.
-->
<svg id="z34606" class="acjk" version="1.1" viewBox="0 0 1024 1024" xmlns="http://www.w3.org/2000/svg" xmlns:xlink="http://www.w3.org/1999/xlink">
<style>
<![CDATA[
@keyframes z34606k {
	from {
		stroke:#c00;
		stroke-dashoffset:3334;
	}
	75% {
		stroke:#c00;
		stroke-dashoffset:0;
	}
	to {
		stroke:#000;
	}
}
#z34606 path[clip-path] {
	animation:z34606k 1s linear both;
	stroke-dasharray:3334;
	stroke-width:128;
	stroke-linecap:round;
	fill:none;
}
#z34606 path[clip-path="url(#z34606c1)"] {animation-delay:1s;}
#z34606 path[clip-path="url(#z34606c2)"] {animation-delay:2s;}
#z34606 path[clip-path="url(#z34606c3)"] {animation-delay:3s;}
#z34606 path[clip-path="url(#z34606c4)"] {animation-delay:4s;}
#z34606 path[clip-path="url(#z34606c5)"] {animation-delay:5s;}
#z34606 path[clip-path="url(#z34606c6)"] {animation-delay:6s;}
#z34606 path[clip-path="url(#z34606c7)"] {animation-delay:7s;}
#z34606 path[clip-path="url(#z34606c8)"] {animation-delay:8s;}
#z34606 path[clip-path="url(#z34606c9)"] {animation-delay:9s;}
#z34606 path[clip-path="url(#z34606c10)"] {animation-delay:10s;}
#z34606 path[clip-path="url(#z34606c11)"] {animation-delay:11s;}
#z34606 path[clip-path="url(#z34606c12)"] {animation-delay:12s;}
#z34606 path[clip-path="url(#z34606c13)"] {animation-delay:13s;}
#z34606 path[clip-path="url(#z34606c14)"] {animation-delay:14s;}
#z34606 path {fill:#ccc;}
]]>
</style>
<path id="z34606d1" d="M121 368Q111 364 86 360Q76 359 72 363Q68 367 75 382Q103 437 121 526Q125 553 141 570Q157 589 162 575Q166 562 164 543L159 514Q140 426 137 397L121 368 Z"/>
<path id="z34606d2" d="M358 474Q385 399 411 383Q427 367 413 351Q346 297 300 324Q284 328 267 336L220 349Q169 361 121 368L137 397Q155 390 221 378L266 369Q282 365 301 361Q320 357 327 364Q334 371 333 387Q323 439 309 478L358 474 Z"/>
<path id="z34606d3" d="M164 543Q171 544 184 542Q197 538 219 534L261 526Q307 517 378 509Q388 508 388 499Q389 492 359 474L358 474L309 478Q284 485 262 491L220 501Q186 507 159 514L164 543 Z"/>
<path id="z34606d4" d="M219 534Q218 598 215 667L257 655Q258 589 261 526L262 491Q263 428 266 369L267 336Q267 260 288 182Q291 170 270 156Q236 137 210 133Q194 130 186 139Q179 146 187 162Q217 205 217 234Q218 289 220 349L221 378Q221 438 220 501L219 534 Z"/>
<path id="z34606d5" d="M215 667Q172 677 129 691Q113 697 85 696Q73 697 71 707Q70 720 78 727Q100 742 132 760Q142 763 153 754Q165 742 342 655L330 632Q294 642 257 655L215 667 Z"/>
<path id="z34606d6" d="M342 655Q367 703 378 708Q385 711 394 703Q401 693 403 669Q404 638 336 589Q326 582 320 582Q316 583 313 593Q313 602 326 624Q327 627 330 632L342 655 Z"/>
<path id="z34606d7" d="M668 350Q696 340 729 333Q771 321 776 315Q785 308 780 299Q773 289 744 283Q714 279 658 303L612 319Q599 322 589 326Q534 342 467 352Q433 359 458 374Q506 395 553 379Q586 370 621 362L668 350 Z"/>
<path id="z34606d8" d="M453 470Q446 466 416 460Q407 459 404 462Q400 466 406 480Q428 526 443 601Q446 623 459 639Q472 655 477 644Q481 631 479 611L475 583Q462 516 460 493L453 470 Z"/>
<path id="z34606d9" d="M584 570Q597 507 616 489Q634 467 614 456Q598 446 575 433Q559 424 543 434Q525 447 501 455Q480 462 453 470L460 493Q467 492 476 489Q504 482 530 477Q546 473 551 479Q557 483 552 510Q548 537 541 567L584 570 Z"/>
<path id="z34606d10" d="M479 611Q486 612 497 610Q528 603 594 599Q603 598 604 590Q604 583 584 570L541 567Q540 566 537 567Q503 577 475 583L479 611 Z"/>
<path id="z34606d11" d="M403 715Q391 718 391 728Q390 741 400 747Q424 760 457 773Q467 774 478 765Q503 737 605 671Q620 661 630 649Q642 640 641 632Q635 628 624 631Q446 712 403 715 Z"/>
<path id="z34606d12" d="M734 704Q810 854 906 902Q912 903 918 905Q933 906 941 893Q948 883 940 837Q930 777 934 693Q937 662 927 661Q918 660 910 687Q886 777 869 778Q833 762 767 652L741 598Q699 505 668 350L658 303Q640 216 642 152Q654 113 627 97Q621 93 615 90Q593 75 578 74Q565 75 565 76Q541 83 561 106Q571 109 597 219Q603 268 612 319L621 362Q657 534 712 656L734 704 Z"/>
<path id="z34606d13" d="M712 656Q699 675 687 696Q656 742 576 836Q569 843 579 844Q648 820 734 704L767 652Q800 598 845 503Q861 469 861 465Q858 455 844 446Q807 419 777 431Q768 434 772 446Q788 494 743 595Q742 596 741 598L712 656 Z"/>
<path id="z34606d14" d="M721 178Q748 199 778 224Q791 236 807 234Q817 233 821 220Q825 205 814 177Q802 149 713 132Q697 131 692 133Q688 137 689 149Q693 159 721 178 Z"/>
<defs>
	<clipPath id="z34606c1"><use xlink:href="#z34606d1"/></clipPath>
	<clipPath id="z34606c2"><use xlink:href="#z34606d2"/></clipPath>
	<clipPath id="z34606c3"><use xlink:href="#z34606d3"/></clipPath>
	<clipPath id="z34606c4"><use xlink:href="#z34606d4"/></clipPath>
	<clipPath id="z34606c5"><use xlink:href="#z34606d5"/></clipPath>
	<clipPath id="z34606c6"><use xlink:href="#z34606d6"/></clipPath>
	<clipPath id="z34606c7"><use xlink:href="#z34606d7"/></clipPath>
	<clipPath id="z34606c8"><use xlink:href="#z34606d8"/></clipPath>
	<clipPath id="z34606c9"><use xlink:href="#z34606d9"/></clipPath>
	<clipPath id="z34606c10"><use xlink:href="#z34606d10"/></clipPath>
	<clipPath id="z34606c11"><use xlink:href="#z34606d11"/></clipPath>
	<clipPath id="z34606c12"><use xlink:href="#z34606d12"/></clipPath>
	<clipPath id="z34606c13"><use xlink:href="#z34606d13"/></clipPath>
	<clipPath id="z34606c14"><use xlink:href="#z34606d14"/></clipPath>
</defs>
<path pathLength="3333" clip-path="url(#z34606c1)" d="M79 369L112 403L152 575"/>
<path pathLength="3333" clip-path="url(#z34606c2)" d="M129 370L352 346L376 376L321 474"/>
<path pathLength="3333" clip-path="url(#z34606c3)" d="M165 519L382 497"/>
<path pathLength="3333" clip-path="url(#z34606c4)" d="M190 144L249 193L228 662"/>
<path pathLength="3333" clip-path="url(#z34606c5)" d="M77 709L137 725L335 649"/>
<path pathLength="3333" clip-path="url(#z34606c6)" d="M323 593L384 703"/>
<path pathLength="3333" clip-path="url(#z34606c7)" d="M458 363L778 304"/>
<path pathLength="3333" clip-path="url(#z34606c8)" d="M410 469L434 487L469 641"/>
<path pathLength="3333" clip-path="url(#z34606c9)" d="M460 471L544 453L587 473L557 567"/>
<path pathLength="3333" clip-path="url(#z34606c10)" d="M482 591L597 590"/>
<path pathLength="3333" clip-path="url(#z34606c11)" d="M396 728L454 739L633 637"/>
<path pathLength="3333" clip-path="url(#z34606c12)" d="M560 87L610 130L680 502L780 727L847 810L912 851L926 669"/>
<path pathLength="3333" clip-path="url(#z34606c13)" d="M777 435L817 478L771 594L688 730L581 837"/>
<path pathLength="3333" clip-path="url(#z34606c14)" d="M697 143L817 222"/>
</svg>