<!--
AnimCJK 2016-2018 Copyright Francois Mizessyn - https://github.com/parsimonhi/animCJK
Derived from:
    MakeMeAHanzi project - https://github.com/skishore/makemeahanzi
    Arphic PL KaitiM GB - https://apps.ubuntu.com/cat/applications/precise/fonts-arphic-gkai00mp/
    Arphic PL UKai - https://apps.ubuntu.com/cat/applications/fonts-arphic-ukai/
You can redistribute and/or modify this file under the terms of the Arphic Public License
as published by Arphic Technology Co., Ltd.
You should have received a copy of this license (the directory "APL") along with this file;
if not, see http://ftp.gnu.org/non-gnu/chinese-fonts-truetype/LICENSE.
-->
<svg id="z34601" class="acjk" version="1.1" viewBox="0 0 1024 1024" xmlns="http://www.w3.org/2000/svg" xmlns:xlink="http://www.w3.org/1999/xlink">
<style>
<![CDATA[
@keyframes z34601k {
	from {
		stroke:#ccc;
		stroke-dashoffset:3334;
	}
	1% {
		stroke:#c00;
		stroke-dashoffset:3334;
	}
	75% {
		stroke:#c00;
		stroke-dashoffset:0;
	}
	to {
		stroke:#000;
	}
}
#z34601 path[clip-path] {
	animation:z34601k 1s linear both;
	stroke-dasharray:3334;
	stroke-width:128;
	stroke-linecap:round;
	fill:none;
}
#z34601 path[clip-path="url(#z34601c1)"] {animation-delay:1s;}
#z34601 path[clip-path="url(#z34601c2)"] {animation-delay:2s;}
#z34601 path[clip-path="url(#z34601c3)"] {animation-delay:3s;}
#z34601 path[clip-path="url(#z34601c4)"] {animation-delay:4s;}
#z34601 path[clip-path="url(#z34601c5)"] {animation-delay:5s;}
#z34601 path[clip-path="url(#z34601c6)"] {animation-delay:6s;}
#z34601 path[clip-path="url(#z34601c7)"] {animation-delay:7s;}
#z34601 path[clip-path="url(#z34601c8)"] {animation-delay:8s;}
#z34601 path[clip-path="url(#z34601c9)"] {animation-delay:9s;}
#z34601 path[clip-path="url(#z34601c10)"] {animation-delay:10s;}
#z34601 path[clip-path="url(#z34601c11)"] {animation-delay:11s;}
#z34601 path[clip-path="url(#z34601c12)"] {animation-delay:12s;}
#z34601 path[clip-path="url(#z34601c13)"] {animation-delay:13s;}
#z34601 path[clip-path="url(#z34601c14)"] {animation-delay:14s;}
#z34601 path {fill:#ccc;}
]]>
</style>
<path id="z34601d1" d="M134 348Q124 344 97 340Q85 339 83 343Q77 349 86 364Q114 415 132 500Q136 525 152 542Q170 561 174 547Q177 537 177 524L173 492Q155 404 150 376L134 348 Z"/>
<path id="z34601d2" d="M367 463Q389 382 419 360Q432 344 420 328Q354 277 299 308Q284 312 271 318L228 330Q182 340 134 348L150 376Q157 375 166 372Q197 365 229 359L270 350Q325 335 335 344Q344 351 342 369Q335 417 324 456L367 463 Z"/>
<path id="z34601d3" d="M267 508Q313 499 377 493Q387 492 388 483Q388 476 367 463L324 456Q314 456 268 471L230 481Q200 485 173 492L177 524Q181 524 188 523Q204 519 229 514L267 508 Z"/>
<path id="z34601d4" d="M264 609Q265 557 267 508L268 471Q269 410 270 350L271 318Q271 273 289 174Q292 164 273 150Q239 134 217 129Q201 126 194 135Q187 142 195 156Q223 196 224 225Q227 276 228 330L229 359Q230 417 230 481L229 514Q228 565 226 619L264 609 Z"/>
<path id="z34601d5" d="M330 589Q297 598 264 609L226 619Q106 650 82 650Q69 651 67 661Q66 674 74 682Q96 698 130 717Q140 720 152 712Q174 694 316 625Q329 618 341 611L330 589 Z"/>
<path id="z34601d6" d="M341 611Q360 654 373 659Q380 660 386 655Q392 648 394 628Q395 595 329 544Q322 538 316 538Q312 539 310 547Q310 554 330 589L341 611 Z"/>
<path id="z34601d7" d="M491 174Q452 150 432 160Q422 167 429 181Q450 205 455 274Q455 287 456 302Q465 482 433 609Q406 711 336 853Q332 860 330 866Q329 876 339 874Q375 864 440 727Q450 702 462 673Q510 526 511 266Q511 242 515 213L491 174 Z"/>
<path id="z34601d8" d="M515 213Q566 195 767 171Q791 170 800 182Q816 191 821 258Q837 484 827 740Q827 777 812 788Q797 798 722 778Q706 775 706 785Q707 792 721 799Q788 848 822 886Q844 905 857 903Q870 900 882 870Q898 824 897 754Q878 400 878 269Q879 229 892 205Q905 183 894 170Q884 155 835 130Q814 118 737 139Q592 164 491 174L515 213 Z"/>
<path id="z34601d9" d="M677 353Q708 344 745 338Q775 331 779 327Q786 320 782 313Q776 304 753 298Q729 294 679 312L631 326Q591 333 547 338Q517 342 538 357Q563 370 633 362L677 353 Z"/>
<path id="z34601d10" d="M671 421Q674 387 677 353L679 312Q679 300 692 240Q695 231 678 219Q650 204 630 201Q617 198 610 205Q604 212 611 224Q626 245 631 326L633 362Q634 393 635 429L671 421 Z"/>
<path id="z34601d11" d="M635 429Q584 438 542 445Q523 446 535 464Q542 473 552 476Q562 479 575 476Q642 460 788 446Q798 445 800 436Q800 429 770 409Q754 400 671 421L635 429 Z"/>
<path id="z34601d12" d="M580 536Q568 532 547 527Q537 524 533 529Q527 533 534 549Q555 592 567 665Q568 687 582 701Q597 722 602 707Q606 697 606 677L603 644Q596 583 595 563L580 536 Z"/>
<path id="z34601d13" d="M744 628Q760 582 777 567Q799 545 778 530Q760 520 736 501Q718 491 700 501Q655 525 580 536L595 563Q601 557 676 547Q700 543 705 552Q708 555 694 625L744 628 Z"/>
<path id="z34601d14" d="M606 677Q610 677 616 676Q661 666 757 660Q767 659 768 651Q768 644 744 628L694 625Q642 637 603 644L606 677 Z"/>
<defs>
	<clipPath id="z34601c1"><use xlink:href="#z34601d1"/></clipPath>
	<clipPath id="z34601c2"><use xlink:href="#z34601d2"/></clipPath>
	<clipPath id="z34601c3"><use xlink:href="#z34601d3"/></clipPath>
	<clipPath id="z34601c4"><use xlink:href="#z34601d4"/></clipPath>
	<clipPath id="z34601c5"><use xlink:href="#z34601d5"/></clipPath>
	<clipPath id="z34601c6"><use xlink:href="#z34601d6"/></clipPath>
	<clipPath id="z34601c7"><use xlink:href="#z34601d7"/></clipPath>
	<clipPath id="z34601c8"><use xlink:href="#z34601d8"/></clipPath>
	<clipPath id="z34601c9"><use xlink:href="#z34601d9"/></clipPath>
	<clipPath id="z34601c10"><use xlink:href="#z34601d10"/></clipPath>
	<clipPath id="z34601c11"><use xlink:href="#z34601d11"/></clipPath>
	<clipPath id="z34601c12"><use xlink:href="#z34601d12"/></clipPath>
	<clipPath id="z34601c13"><use xlink:href="#z34601d13"/></clipPath>
	<clipPath id="z34601c14"><use xlink:href="#z34601d14"/></clipPath>
</defs>
<path pathLength="3333" clip-path="url(#z34601c1)" d="M89 344L125 386L163 548"/>
<path pathLength="3333" clip-path="url(#z34601c2)" d="M145 353L335 318L366 330L383 356L339 458"/>
<path pathLength="3333" clip-path="url(#z34601c3)" d="M181 517L319 478L382 482"/>
<path pathLength="3333" clip-path="url(#z34601c4)" d="M196 137L254 196L235 613"/>
<path pathLength="3333" clip-path="url(#z34601c5)" d="M73 660L141 678L336 601"/>
<path pathLength="3333" clip-path="url(#z34601c6)" d="M317 545L376 655"/>
<path pathLength="3333" clip-path="url(#z34601c7)" d="M432 163L481 219L472 524L432 688L339 868"/>
<path pathLength="3333" clip-path="url(#z34601c8)" d="M500 176L536 189L784 149L856 195L851 818L825 850L711 785"/>
<path pathLength="3333" clip-path="url(#z34601c9)" d="M539 347L776 318"/>
<path pathLength="3333" clip-path="url(#z34601c10)" d="M614 208L657 245L646 426"/>
<path pathLength="3333" clip-path="url(#z34601c11)" d="M536 454L795 433"/>
<path pathLength="3333" clip-path="url(#z34601c12)" d="M538 534L571 573L591 707"/>
<path pathLength="3333" clip-path="url(#z34601c13)" d="M588 538L713 523L743 541L711 625"/>
<path pathLength="3333" clip-path="url(#z34601c14)" d="M612 669L697 644L760 651"/>
</svg>