<!--
AnimCJK 2016-2018 Copyright Francois Mizessyn - https://github.com/parsimonhi/animCJK
Derived from:
    MakeMeAHanzi project - https://github.com/skishore/makemeahanzi
    Arphic PL KaitiM GB - https://apps.ubuntu.com/cat/applications/precise/fonts-arphic-gkai00mp/
    Arphic PL UKai - https://apps.ubuntu.com/cat/applications/fonts-arphic-ukai/
You can redistribute and/or modify this file under the terms of the Arphic Public License
as published by Arphic Technology Co., Ltd.
You should have received a copy of this license (the directory "APL") along with this file;
if not, see http://ftp.gnu.org/non-gnu/chinese-fonts-truetype/LICENSE.
-->
<svg id="z34672" class="acjk" version="1.1" viewBox="0 0 1024 1024" xmlns="http://www.w3.org/2000/svg" xmlns:xlink="http://www.w3.org/1999/xlink">
<style>
<![CDATA[
@keyframes z34672k {
	from {
		stroke:#ccc;
		stroke-dashoffset:3334;
	}
	1% {
		stroke:#c00;
		stroke-dashoffset:3334;
	}
	75% {
		stroke:#c00;
		stroke-dashoffset:0;
	}
	to {
		stroke:#000;
	}
}
#z34672 path[clip-path] {
	animation:z34672k 1s linear both;
	stroke-dasharray:3334;
	stroke-width:128;
	stroke-linecap:round;
	fill:none;
}
#z34672 path[clip-path="url(#z34672c1)"] {animation-delay:1s;}
#z34672 path[clip-path="url(#z34672c2)"] {animation-delay:2s;}
#z34672 path[clip-path="url(#z34672c3)"] {animation-delay:3s;}
#z34672 path[clip-path="url(#z34672c4)"] {animation-delay:4s;}
#z34672 path[clip-path="url(#z34672c5)"] {animation-delay:5s;}
#z34672 path[clip-path="url(#z34672c6)"] {animation-delay:6s;}
#z34672 path[clip-path="url(#z34672c7)"] {animation-delay:7s;}
#z34672 path[clip-path="url(#z34672c8)"] {animation-delay:8s;}
#z34672 path[clip-path="url(#z34672c9)"] {animation-delay:9s;}
#z34672 path[clip-path="url(#z34672c10)"] {animation-delay:10s;}
#z34672 path[clip-path="url(#z34672c11)"] {animation-delay:11s;}
#z34672 path[clip-path="url(#z34672c12)"] {animation-delay:12s;}
#z34672 path[clip-path="url(#z34672c13)"] {animation-delay:13s;}
#z34672 path[clip-path="url(#z34672c14)"] {animation-delay:14s;}
#z34672 path[clip-path="url(#z34672c15)"] {animation-delay:15s;}
#z34672 path {fill:#ccc;}
]]>
</style>
<path id="z34672d1" d="M142 379Q132 373 97 368Q87 365 83 370Q77 376 85 391Q112 443 130 527Q133 552 148 569Q166 590 170 575Q173 565 173 548L169 518Q153 436 151 408L142 379 Z"/>
<path id="z34672d2" d="M385 483Q406 411 435 387Q450 371 436 356Q421 344 375 324Q359 317 286 346L242 359Q191 368 142 379L151 408Q158 402 242 387L286 378Q304 372 322 369Q343 363 351 372Q363 384 343 477L385 483 Z"/>
<path id="z34672d3" d="M282 529Q330 519 397 513Q407 512 408 503Q408 496 385 483L343 477Q339 476 283 492L241 503Q202 510 169 518L173 548Q182 549 192 546Q211 540 241 536L282 529 Z"/>
<path id="z34672d4" d="M277 653Q278 589 282 529L283 492Q284 434 286 378L286 346Q289 250 308 169Q311 159 290 144Q256 125 230 121Q214 118 206 127Q199 134 207 150Q238 193 238 225Q241 289 242 359L242 387Q242 442 241 503L241 536Q238 597 235 664L277 653 Z"/>
<path id="z34672d5" d="M354 632Q315 641 277 653L235 664Q106 694 79 694Q66 695 64 705Q63 718 71 726Q93 742 125 762Q135 766 148 757Q173 738 338 666Q353 659 367 651L354 632 Z"/>
<path id="z34672d6" d="M367 651Q397 699 408 701Q415 702 422 695Q428 685 428 663Q428 632 351 583Q341 577 336 578Q332 579 330 589Q330 592 354 632L367 651 Z"/>
<path id="z34672d7" d="M684 262Q717 253 832 243Q842 244 852 232Q853 219 830 208Q794 187 712 210Q685 213 636 227L583 236Q561 237 542 241Q502 245 457 250Q427 254 450 272Q483 299 517 291Q541 285 570 282L625 272Q638 269 655 267L684 262 Z"/>
<path id="z34672d8" d="M636 227Q655 139 664 125Q673 109 658 100Q616 67 590 75Q577 79 583 93Q602 132 583 236L570 282Q533 382 440 445Q427 455 412 466Q399 473 411 477Q465 477 532 417Q598 360 625 272L636 227 Z"/>
<path id="z34672d9" d="M655 267Q806 475 848 486Q917 486 975 477Q982 476 984 471Q984 467 972 461Q837 410 774 350Q731 310 684 262L655 267 Z"/>
<path id="z34672d10" d="M652 501Q754 477 755 476Q762 469 759 462Q752 452 727 446Q697 439 655 457L608 470Q604 470 603 471Q561 480 512 484Q481 488 503 504Q539 523 608 509L610 509L652 501 Z"/>
<path id="z34672d11" d="M645 572Q648 535 652 501L655 457Q655 456 656 454Q656 445 665 413Q668 404 652 393Q627 380 608 377Q596 374 590 381Q584 387 591 398Q603 416 608 470L610 509Q611 542 612 578L645 572 Z"/>
<path id="z34672d12" d="M612 578Q542 588 462 601Q444 604 458 617Q470 629 484 633Q502 637 515 633Q629 600 823 600Q839 600 843 592Q847 583 834 572Q783 538 734 554Q697 561 645 572L612 578 Z"/>
<path id="z34672d13" d="M659 745Q785 723 790 719Q799 712 794 704Q788 692 760 684Q730 675 663 698L608 710Q556 717 495 721Q459 725 484 742Q520 769 579 757Q594 753 612 753L659 745 Z"/>
<path id="z34672d14" d="M651 834Q655 788 659 745L663 698Q664 688 667 680Q670 671 672 664Q673 655 658 643Q630 628 610 625Q597 622 590 629Q584 636 591 648Q603 663 608 710L612 753Q613 793 615 839L651 834 Z"/>
<path id="z34672d15" d="M615 839Q519 846 409 859Q388 860 403 877Q416 890 433 897Q454 903 469 899Q652 856 880 874Q880 873 882 874Q901 875 906 866Q912 856 896 841Q844 801 784 814Q730 821 651 834L615 839 Z"/>
<defs>
	<clipPath id="z34672c1"><use xlink:href="#z34672d1"/></clipPath>
	<clipPath id="z34672c2"><use xlink:href="#z34672d2"/></clipPath>
	<clipPath id="z34672c3"><use xlink:href="#z34672d3"/></clipPath>
	<clipPath id="z34672c4"><use xlink:href="#z34672d4"/></clipPath>
	<clipPath id="z34672c5"><use xlink:href="#z34672d5"/></clipPath>
	<clipPath id="z34672c6"><use xlink:href="#z34672d6"/></clipPath>
	<clipPath id="z34672c7"><use xlink:href="#z34672d7"/></clipPath>
	<clipPath id="z34672c8"><use xlink:href="#z34672d8"/></clipPath>
	<clipPath id="z34672c9"><use xlink:href="#z34672d9"/></clipPath>
	<clipPath id="z34672c10"><use xlink:href="#z34672d10"/></clipPath>
	<clipPath id="z34672c11"><use xlink:href="#z34672d11"/></clipPath>
	<clipPath id="z34672c12"><use xlink:href="#z34672d12"/></clipPath>
	<clipPath id="z34672c13"><use xlink:href="#z34672d13"/></clipPath>
	<clipPath id="z34672c14"><use xlink:href="#z34672d14"/></clipPath>
	<clipPath id="z34672c15"><use xlink:href="#z34672d15"/></clipPath>
</defs>
<path pathLength="3333" clip-path="url(#z34672c1)" d="M87 374L126 417L160 576"/>
<path pathLength="3333" clip-path="url(#z34672c2)" d="M150 386L367 349L398 373L361 479"/>
<path pathLength="3333" clip-path="url(#z34672c3)" d="M180 540L341 498L401 505"/>
<path pathLength="3333" clip-path="url(#z34672c4)" d="M210 132L270 182L243 657"/>
<path pathLength="3333" clip-path="url(#z34672c5)" d="M71 708L136 724L360 645"/>
<path pathLength="3333" clip-path="url(#z34672c6)" d="M339 587L415 694"/>
<path pathLength="3333" clip-path="url(#z34672c7)" d="M446 257L507 268L784 222L845 230"/>
<path pathLength="3333" clip-path="url(#z34672c8)" d="M588 81L629 127L584 311L514 407L415 472"/>
<path pathLength="3333" clip-path="url(#z34672c9)" d="M665 270L839 439L974 470"/>
<path pathLength="3333" clip-path="url(#z34672c10)" d="M502 491L755 463"/>
<path pathLength="3333" clip-path="url(#z34672c11)" d="M594 384L633 417L623 574"/>
<path pathLength="3333" clip-path="url(#z34672c12)" d="M459 609L759 575L838 585"/>
<path pathLength="3333" clip-path="url(#z34672c13)" d="M482 731L791 708"/>
<path pathLength="3333" clip-path="url(#z34672c14)" d="M594 632L638 673L633 836"/>
<path pathLength="3333" clip-path="url(#z34672c15)" d="M406 868L808 840L903 857"/>
</svg>