<!--
AnimCJK 2016-2018 Copyright Francois Mizessyn, https://github.com/parsimonhi/animCJK
Derived from:
    MakeMeAHanzi project - https://github.com/skishore/makemeahanzi
    Arphic PL KaitiM GB - https://apps.ubuntu.com/cat/applications/precise/fonts-arphic-gkai00mp/
    Arphic PL UKai - https://apps.ubuntu.com/cat/applications/fonts-arphic-ukai/
You can redistribute and/or modify this file under the terms of the Arphic Public License
as published by Arphic Technology Co., Ltd.
You should have received a copy of this license (the directory "APL") along with this file;
if not, see http://ftp.gnu.org/non-gnu/chinese-fonts-truetype/LICENSE.
-->
<svg id="z34678" class="acjk" version="1.1" viewBox="0 0 1024 1024" xmlns="http://www.w3.org/2000/svg" xmlns:xlink="http://www.w3.org/1999/xlink">
<style>
<![CDATA[
@keyframes z34678k {
	from {
		stroke:#c00;
		stroke-dashoffset:3334;
	}
	75% {
		stroke:#c00;
		stroke-dashoffset:0;
	}
	to {
		stroke:#000;
	}
}
#z34678 path[clip-path] {
	animation:z34678k 1s linear both;
	stroke-dasharray:3334;
	stroke-width:128;
	stroke-linecap:round;
	fill:none;
}
#z34678 path[clip-path="url(#z34678c1)"] {animation-delay:1s;}
#z34678 path[clip-path="url(#z34678c2)"] {animation-delay:2s;}
#z34678 path[clip-path="url(#z34678c3)"] {animation-delay:3s;}
#z34678 path[clip-path="url(#z34678c4)"] {animation-delay:4s;}
#z34678 path[clip-path="url(#z34678c5)"] {animation-delay:5s;}
#z34678 path[clip-path="url(#z34678c6)"] {animation-delay:6s;}
#z34678 path[clip-path="url(#z34678c7)"] {animation-delay:7s;}
#z34678 path[clip-path="url(#z34678c8)"] {animation-delay:8s;}
#z34678 path[clip-path="url(#z34678c9)"] {animation-delay:9s;}
#z34678 path[clip-path="url(#z34678c10)"] {animation-delay:10s;}
#z34678 path[clip-path="url(#z34678c11)"] {animation-delay:11s;}
#z34678 path[clip-path="url(#z34678c12)"] {animation-delay:12s;}
#z34678 path[clip-path="url(#z34678c13)"] {animation-delay:13s;}
#z34678 path[clip-path="url(#z34678c14)"] {animation-delay:14s;}
#z34678 path[clip-path="url(#z34678c15)"] {animation-delay:15s;}
#z34678 path {fill:#ccc;}
]]>
</style>
<path id="z34678d1" d="M108 388Q95 382 69 381Q57 378 55 384Q49 390 58 405Q83 445 102 513Q106 534 120 546Q139 565 142 550Q143 546 144 539L141 510Q141 509 141 506Q128 439 124 416L108 388 Z"/>
<path id="z34678d2" d="M348 475Q369 414 397 393Q412 377 399 361Q330 313 282 340Q266 346 250 353L202 367Q156 377 108 388L124 416Q148 407 202 396L249 385Q268 379 289 375Q308 369 316 377Q323 384 321 400Q314 437 304 471L348 475 Z"/>
<path id="z34678d3" d="M244 520Q289 511 358 503Q368 502 368 494Q368 487 348 475L304 471Q303 470 301 471Q271 478 245 487L201 497Q170 504 141 510L144 539Q150 539 157 538Q173 532 201 528L244 520 Z"/>
<path id="z34678d4" d="M238 649Q241 583 244 520L245 487Q246 435 249 385L250 353Q250 266 272 178Q275 166 255 149Q218 130 193 125Q177 121 168 131Q161 138 169 154Q199 199 199 229Q202 296 202 367L202 396Q202 445 201 497L201 528Q198 594 194 665L238 649 Z"/>
<path id="z34678d5" d="M309 622Q275 635 238 649L194 665Q145 680 97 697Q81 703 55 703Q42 704 41 715Q40 728 49 735Q71 748 104 765Q114 768 125 759Q158 731 292 660Q307 651 320 642L309 622 Z"/>
<path id="z34678d6" d="M320 642Q342 688 354 692Q361 695 370 687Q377 677 379 653Q380 637 361 616Q313 571 300 574Q296 575 293 585Q293 594 306 616Q307 617 309 622L320 642 Z"/>
<path id="z34678d7" d="M506 293Q537 284 571 279L610 272Q644 265 686 261L728 257Q777 250 839 248Q894 248 900 238Q904 228 890 216Q839 183 768 206Q752 209 736 214L689 224Q652 231 613 240Q610 240 610 241L568 249Q537 253 507 260L460 268Q415 275 370 284Q352 287 366 301Q396 322 428 314Q443 308 462 304L506 293 Z"/>
<path id="z34678d8" d="M571 279Q571 280 572 284Q578 383 586 399Q590 408 598 402Q602 398 605 384L609 354Q609 344 610 272L610 241Q611 228 611 214Q612 175 615 159Q621 143 610 134Q597 124 573 114Q554 108 537 117Q527 124 540 136Q558 166 568 249L571 279 Z"/>
<path id="z34678d9" d="M712 341Q719 298 728 257L736 214Q742 171 764 105Q768 96 752 82Q724 63 704 57Q691 53 684 60Q677 66 682 79Q695 103 695 119Q694 168 689 224L686 261Q682 298 676 340L712 341 Z"/>
<path id="z34678d10" d="M605 384Q612 385 621 384Q655 377 729 374Q738 373 739 366Q740 359 714 341L712 341L676 340Q675 339 673 340Q637 347 609 354L605 384 Z"/>
<path id="z34678d11" d="M591 481Q688 460 796 469Q818 470 819 460Q820 448 785 428Q758 412 743 419Q724 425 701 428Q632 438 563 447Q532 454 518 446Q505 440 509 424Q506 360 506 293L507 260Q507 244 508 227Q511 203 490 185Q456 160 434 162Q415 163 425 183Q456 223 460 268L462 304Q468 428 457 451Q447 469 456 483Q472 505 485 506Q492 506 514 495Q536 489 565 485L591 481 Z"/>
<path id="z34678d12" d="M635 607Q720 592 874 592Q892 591 896 583Q900 573 885 561Q833 525 786 540Q723 553 629 572L579 580Q494 593 399 608Q380 609 394 625Q407 637 423 642Q442 646 456 641Q492 629 532 623L635 607 Z"/>
<path id="z34678d13" d="M629 572Q630 544 634 527Q637 515 630 509Q608 490 591 481L565 485Q564 488 569 496Q578 511 579 580L578 640Q563 835 558 849Q549 886 581 936Q591 954 600 958Q610 959 616 947Q629 916 625 886Q624 756 626 645Q626 641 626 636L629 572 Z"/>
<path id="z34678d14" d="M532 623Q484 726 286 849Q270 859 284 862Q294 865 331 851Q379 836 423 805Q519 735 564 661Q571 648 578 640L578 616L532 623 Z"/>
<path id="z34678d15" d="M626 636Q696 721 774 802Q796 824 833 826Q900 830 972 818Q991 817 992 811Q993 805 980 799Q797 733 718 676Q684 651 635 607L627 609L626 636 Z"/>
<defs>
	<clipPath id="z34678c1"><use xlink:href="#z34678d1"/></clipPath>
	<clipPath id="z34678c2"><use xlink:href="#z34678d2"/></clipPath>
	<clipPath id="z34678c3"><use xlink:href="#z34678d3"/></clipPath>
	<clipPath id="z34678c4"><use xlink:href="#z34678d4"/></clipPath>
	<clipPath id="z34678c5"><use xlink:href="#z34678d5"/></clipPath>
	<clipPath id="z34678c6"><use xlink:href="#z34678d6"/></clipPath>
	<clipPath id="z34678c7"><use xlink:href="#z34678d7"/></clipPath>
	<clipPath id="z34678c8"><use xlink:href="#z34678d8"/></clipPath>
	<clipPath id="z34678c9"><use xlink:href="#z34678d9"/></clipPath>
	<clipPath id="z34678c10"><use xlink:href="#z34678d10"/></clipPath>
	<clipPath id="z34678c11"><use xlink:href="#z34678d11"/></clipPath>
	<clipPath id="z34678c12"><use xlink:href="#z34678d12"/></clipPath>
	<clipPath id="z34678c13"><use xlink:href="#z34678d13"/></clipPath>
	<clipPath id="z34678c14"><use xlink:href="#z34678d14"/></clipPath>
	<clipPath id="z34678c15"><use xlink:href="#z34678d15"/></clipPath>
</defs>
<path pathLength="3333" clip-path="url(#z34678c1)" d="M61 388L98 424L134 551"/>
<path pathLength="3333" clip-path="url(#z34678c2)" d="M116 391L332 355L362 386L316 470"/>
<path pathLength="3333" clip-path="url(#z34678c3)" d="M149 532L363 490"/>
<path pathLength="3333" clip-path="url(#z34678c4)" d="M173 136L233 190L207 659"/>
<path pathLength="3333" clip-path="url(#z34678c5)" d="M45 714L105 731L312 630"/>
<path pathLength="3333" clip-path="url(#z34678c6)" d="M303 584L363 686"/>
<path pathLength="3333" clip-path="url(#z34678c7)" d="M366 291L803 223L895 233"/>
<path pathLength="3333" clip-path="url(#z34678c8)" d="M543 125L584 155L591 396"/>
<path pathLength="3333" clip-path="url(#z34678c9)" d="M690 65L729 110L687 337"/>
<path pathLength="3333" clip-path="url(#z34678c10)" d="M611 378L734 362"/>
<path pathLength="3333" clip-path="url(#z34678c11)" d="M429 172L478 218L497 474L742 442L812 460"/>
<path pathLength="3333" clip-path="url(#z34678c12)" d="M397 616L789 566L892 574"/>
<path pathLength="3333" clip-path="url(#z34678c13)" d="M575 491L605 526L590 869L604 954"/>
<path pathLength="3333" clip-path="url(#z34678c14)" d="M569 624L433 771L285 854"/>
<path pathLength="3333" clip-path="url(#z34678c15)" d="M634 617L807 775L985 807"/>
</svg>