<!--
AnimCJK 2016-2019 Copyright Francois Mizessyn - https://github.com/parsimonhi/animCJK
Derived from:
    MakeMeAHanzi project - https://github.com/skishore/makemeahanzi
    Arphic PL KaitiM GB font
    Arphic PL UKai font
You can redistribute and/or modify this file under the terms of the Arphic Public License
as published by Arphic Technology Co., Ltd.
You should have received a copy of this license along with this file.
If not, see http://ftp.gnu.org/non-gnu/chinese-fonts-truetype/LICENSE.
-->
<svg id="z34752" class="acjk" version="1.1" viewBox="0 0 1024 1024" xmlns="http://www.w3.org/2000/svg" xmlns:xlink="http://www.w3.org/1999/xlink">
<style>
<![CDATA[
@keyframes zk {
	to {
		stroke-dashoffset:0;
	}
}
svg.acjk path[clip-path] {
	--t:0.8s;
	animation:zk var(--t) linear forwards var(--d);
	stroke-dasharray:3337;
	stroke-dashoffset:3339;
	stroke-width:128;
	stroke-linecap:round;
	fill:none;
	stroke:#000;
}
svg.acjk path[id] {fill:#ccc;}
]]>
</style>
<path id="z34752d1" d="M130 338Q120 332 90 328Q80 327 76 330Q72 336 79 350Q79 351 80 354Q80 355 84 360Q105 402 120 472Q123 494 137 510Q153 529 158 515Q161 505 160 490C158 471 158 471 157 462Q144 392 141 366C139 356 139 342 130 338Z"/>
<path id="z34752d2" d="M356 425Q380 359 404 343Q417 327 405 312Q341 267 294 290Q281 294 268 301C254 309 238 317 222 317Q219 316 218 317Q175 327 130 338C120 340 132 371 141 366Q145 360 223 345C252 338 252 338 267 334Q282 330 297 327Q316 321 324 329Q331 336 330 351Q323 390 314 423C310 436 351 438 356 425Z"/>
<path id="z34752d3" d="M264 471Q309 462 371 455Q380 454 380 446Q380 439 356 425C344 418 328 421 314 423Q289 429 265 437C238 444 238 444 224 448Q187 455 157 462C148 464 151 490 160 490Q167 491 177 489Q196 483 224 478C251 473 251 473 264 471Z"/>
<path id="z34752d4" d="M260 602Q261 535 264 471C265 448 265 448 265 437Q266 385 267 334C268 312 268 312 268 301Q268 229 287 160Q290 150 270 135Q236 117 212 113Q196 110 188 119Q181 126 189 141Q217 181 218 210Q221 262 222 317C223 336 223 336 223 345Q224 394 224 448C224 468 224 468 224 478Q223 545 220 617C220 631 260 616 260 602Z"/>
<path id="z34752d5" d="M335 575Q298 587 260 602C233 612 233 612 220 617Q106 654 79 655Q66 658 65 667Q64 680 73 687Q95 700 128 717Q138 720 149 711Q173 689 309 615Q328 605 341 593Q342 592 344 591C349 588 341 573 335 575Z"/>
<path id="z34752d6" d="M344 591Q357 624 372 628Q379 629 386 623Q392 614 393 593Q394 577 376 559Q328 520 320 522Q316 523 314 532C328 561 328 561 335 575C341 586 341 586 344 591Z"/>
<path id="z34752d7" d="M606 86Q630 102 656 123Q669 133 684 130Q694 129 697 116Q700 101 688 76Q676 52 595 43Q582 42 576 45Q572 49 574 61Q578 71 606 86Z"/>
<path id="z34752d8" d="M604 207Q778 171 782 168Q789 161 786 154Q780 144 756 137Q731 131 704 141Q661 154 615 165Q564 175 504 180Q473 184 495 200Q531 221 579 211C596 208 596 208 604 207Z"/>
<path id="z34752d9" d="M645 345Q609 344 579 345Q557 345 569 330Q599 290 627 258Q637 246 636 241Q635 231 608 209Q607 208 604 207C597 203 576 203 579 211Q580 212 581 215Q590 239 549 309Q542 324 524 338Q511 348 512 356Q515 369 524 381Q531 388 540 384Q559 374 626 363Q627 362 631 363C639 363 653 345 645 345Z"/>
<path id="z34752d10" d="M702 439Q654 445 598 459Q579 465 591 450Q619 417 686 352Q710 325 731 310Q741 303 737 295Q730 280 706 263Q694 256 687 257Q680 258 679 271Q679 292 645 345C636 357 636 357 631 363Q550 459 531 466Q519 472 521 483Q522 493 540 509Q547 519 560 511Q626 471 710 454C716 453 708 438 702 439Z"/>
<path id="z34752d11" d="M710 454Q723 487 742 494Q751 498 759 486Q763 477 761 461Q757 445 740 431Q715 406 701 400Q695 396 692 405Q689 408 702 439C707 449 707 449 710 454Z"/>
<path id="z34752d12" d="M438 298Q475 335 486 337Q493 337 498 327Q501 317 496 295Q489 276 436 263Q424 260 420 262Q416 263 417 274Q418 281 438 298Z"/>
<path id="z34752d13" d="M420 462Q413 463 411 474Q411 522 429 535Q432 539 439 539Q443 539 447 524Q450 512 511 404Q517 395 517 392Q518 386 511 389Q501 392 439 451Q432 458 420 462Z"/>
<path id="z34752d14" d="M807 248Q794 270 764 305Q760 311 763 317Q769 318 775 315Q836 281 866 267Q879 264 877 255Q873 242 858 227Q843 211 826 209Q814 209 814 224Q815 236 807 248Z"/>
<path id="z34752d15" d="M764 403Q800 428 843 466Q856 479 869 482Q876 482 880 474Q889 462 875 431Q866 404 812 389Q781 382 762 379Q755 376 755 386Q755 396 764 403Z"/>
<path id="z34752d16" d="M667 656Q755 646 919 645Q938 644 944 636Q948 624 932 610Q872 568 824 585Q761 598 669 616C631 622 631 622 612 625Q504 638 380 658Q359 659 375 677Q406 705 466 690Q535 672 613 663C649 658 649 658 667 656Z"/>
<path id="z34752d17" d="M616 913Q620 937 627 945Q631 952 639 950Q663 932 664 751Q664 714 667 656C668 629 668 629 669 616Q669 613 670 610Q670 594 672 585Q679 546 667 536Q637 517 624 514Q612 510 598 517Q589 524 596 534Q611 567 612 625C613 650 613 650 613 663Q613 883 616 913Z"/>
<defs>
	<clipPath id="z34752c1"><use xlink:href="#z34752d1"/></clipPath>
	<clipPath id="z34752c2"><use xlink:href="#z34752d2"/></clipPath>
	<clipPath id="z34752c3"><use xlink:href="#z34752d3"/></clipPath>
	<clipPath id="z34752c4"><use xlink:href="#z34752d4"/></clipPath>
	<clipPath id="z34752c5"><use xlink:href="#z34752d5"/></clipPath>
	<clipPath id="z34752c6"><use xlink:href="#z34752d6"/></clipPath>
	<clipPath id="z34752c7"><use xlink:href="#z34752d7"/></clipPath>
	<clipPath id="z34752c8"><use xlink:href="#z34752d8"/></clipPath>
	<clipPath id="z34752c9"><use xlink:href="#z34752d9"/></clipPath>
	<clipPath id="z34752c10"><use xlink:href="#z34752d10"/></clipPath>
	<clipPath id="z34752c11"><use xlink:href="#z34752d11"/></clipPath>
	<clipPath id="z34752c12"><use xlink:href="#z34752d12"/></clipPath>
	<clipPath id="z34752c13"><use xlink:href="#z34752d13"/></clipPath>
	<clipPath id="z34752c14"><use xlink:href="#z34752d14"/></clipPath>
	<clipPath id="z34752c15"><use xlink:href="#z34752d15"/></clipPath>
	<clipPath id="z34752c16"><use xlink:href="#z34752d16"/></clipPath>
	<clipPath id="z34752c17"><use xlink:href="#z34752d17"/></clipPath>
</defs>
<path style="--d:1s;" pathLength="3333" clip-path="url(#z34752c1)" d="M82 336L116 372L146 514"/>
<path style="--d:2s;" pathLength="3333" clip-path="url(#z34752c2)" d="M138 343L342 309L369 334L325 422"/>
<path style="--d:3s;" pathLength="3333" clip-path="url(#z34752c3)" d="M163 483L372 443"/>
<path style="--d:4s;" pathLength="3333" clip-path="url(#z34752c4)" d="M192 125L249 170L228 610"/>
<path style="--d:5s;" pathLength="3333" clip-path="url(#z34752c5)" d="M70 668L128 682L335 582"/>
<path style="--d:6s;" pathLength="3333" clip-path="url(#z34752c6)" d="M322 527L374 623"/>
<path style="--d:7s;" pathLength="3333" clip-path="url(#z34752c7)" d="M580 52L652 83L687 125"/>
<path style="--d:8s;" pathLength="3333" clip-path="url(#z34752c8)" d="M495 188L781 158"/>
<path style="--d:9s;" pathLength="3333" clip-path="url(#z34752c9)" d="M587 217L604 254L542 354L637 350"/>
<path style="--d:10s;" pathLength="3333" clip-path="url(#z34752c10)" d="M690 261L703 301L554 470L568 487L703 449"/>
<path style="--d:11s;" pathLength="3333" clip-path="url(#z34752c11)" d="M699 407L751 485"/>
<path style="--d:12s;" pathLength="3333" clip-path="url(#z34752c12)" d="M425 269L491 328"/>
<path style="--d:13s;" pathLength="3333" clip-path="url(#z34752c13)" d="M438 532L438 480L511 395"/>
<path style="--d:14s;" pathLength="3333" clip-path="url(#z34752c14)" d="M825 213L841 254L770 309"/>
<path style="--d:15s;" pathLength="3333" clip-path="url(#z34752c15)" d="M762 390L839 428L873 475"/>
<path style="--d:16s;" pathLength="3333" clip-path="url(#z34752c16)" d="M375 665L843 613L940 627"/>
<path style="--d:17s;" pathLength="3333" clip-path="url(#z34752c17)" d="M603 524L641 571L634 943"/>
</svg>