<!--
AnimCJK 2016-2019 Copyright Francois Mizessyn - https://github.com/parsimonhi/animCJK
Derived from:
    MakeMeAHanzi project - https://github.com/skishore/makemeahanzi
    Arphic PL KaitiM GB font
    Arphic PL UKai font
You can redistribute and/or modify this file under the terms of the Arphic Public License
as published by Arphic Technology Co., Ltd.
You should have received a copy of this license along with this file.
If not, see http://ftp.gnu.org/non-gnu/chinese-fonts-truetype/LICENSE.
-->
<svg id="z34838" class="acjk" version="1.1" viewBox="0 0 1024 1024" xmlns="http://www.w3.org/2000/svg" xmlns:xlink="http://www.w3.org/1999/xlink">
<style>
<![CDATA[
@keyframes zk {
	to {
		stroke-dashoffset:0;
	}
}
svg.acjk path[clip-path] {
	--t:0.8s;
	animation:zk var(--t) linear forwards var(--d);
	stroke-dasharray:3337;
	stroke-dashoffset:3339;
	stroke-width:128;
	stroke-linecap:round;
	fill:none;
	stroke:#000;
}
svg.acjk path[id] {fill:#ccc;}
]]>
</style>
<path id="z34838d1" d="M132 382Q123 378 90 373Q80 370 76 375Q72 381 79 395Q107 444 126 529Q130 554 145 570Q161 589 166 575Q169 563 168 546C165 525 165 525 163 515Q145 434 141 408C139 399 141 385 132 382Z"/>
<path id="z34838d2" d="M354 475Q375 408 402 389Q415 373 403 359Q390 349 347 329Q332 323 267 349C238 358 238 358 224 362Q178 372 132 382C123 384 132 410 141 408Q169 401 224 389C253 383 253 383 267 380Q282 376 300 372Q318 368 326 375Q336 385 315 471C312 484 349 487 354 475Z"/>
<path id="z34838d3" d="M264 524Q307 514 367 505Q377 504 377 495Q377 488 354 475C343 468 328 469 315 471Q288 475 265 487C238 495 238 495 225 499Q191 508 163 515C153 517 158 546 168 546Q174 546 181 544Q199 538 225 533C251 527 251 527 264 524Z"/>
<path id="z34838d4" d="M260 657Q261 588 264 524C265 499 265 499 265 487Q266 432 267 380C267 359 267 359 267 349Q267 313 285 214Q288 204 269 190Q235 174 213 169Q197 166 190 175Q183 182 191 196Q219 236 220 265Q221 311 224 362C224 380 224 380 224 389Q225 441 225 499C225 522 225 522 225 533Q224 599 221 669C221 683 260 671 260 657Z"/>
<path id="z34838d5" d="M332 634Q295 644 260 657C234 665 234 665 221 669Q101 700 81 702Q69 703 67 712Q66 725 74 732Q96 745 125 763Q135 766 146 758Q192 719 343 654C350 651 339 633 332 634Z"/>
<path id="z34838d6" d="M343 654Q367 702 379 708Q386 709 394 703Q401 694 403 672Q404 642 335 588Q325 582 320 582Q316 583 314 592Q313 601 326 622Q329 626 332 634C339 647 339 647 343 654Z"/>
<path id="z34838d7" d="M697 182Q746 173 839 176Q852 177 856 169Q860 160 848 148Q805 114 718 139Q715 139 714 140C685 145 685 145 671 148Q622 155 570 165C541 169 541 169 527 171Q472 178 415 186Q391 190 408 202Q447 224 507 208Q520 204 537 202C561 197 561 197 573 195Q594 188 664 185C686 183 686 183 697 182Z"/>
<path id="z34838d8" d="M570 165Q569 144 567 128Q568 112 550 107Q516 92 498 99Q482 106 496 123Q517 144 527 171C534 192 534 192 537 202Q546 239 560 254Q572 263 575 253Q578 238 573 195C571 175 571 175 570 165Z"/>
<path id="z34838d9" d="M714 140Q715 139 716 137Q720 124 731 105Q741 95 733 86Q723 74 696 62Q684 55 671 62Q664 66 669 75Q676 90 671 148C666 173 666 173 664 185Q657 206 659 223Q660 233 672 225Q685 213 697 182C708 154 708 154 714 140Z"/>
<path id="z34838d10" d="M484 399Q484 398 551 310Q558 300 555 291Q551 281 528 278Q503 274 494 278Q487 279 487 291Q487 345 386 461Q371 476 393 470Q420 464 464 421C477 406 477 406 484 399Z"/>
<path id="z34838d11" d="M514 573Q514 570 514 568Q510 475 512 454Q516 433 490 405Q487 402 484 399C477 392 460 412 464 421Q483 470 466 567Q454 604 483 635C484 636 484 636 484 636Q497 646 504 628Q508 615 511 600C513 582 513 582 514 573Z"/>
<path id="z34838d12" d="M614 244Q660 293 678 295Q688 295 692 282Q693 272 685 257Q678 245 658 239Q630 226 617 225Q610 224 610 232Q609 238 614 244Z"/>
<path id="z34838d13" d="M674 347Q717 335 767 326Q798 317 803 313Q810 307 806 301Q802 292 779 287Q757 283 734 292Q698 305 659 316Q616 326 565 332Q538 336 558 349Q589 368 631 356Q632 355 634 356C661 350 661 350 674 347Z"/>
<path id="z34838d14" d="M685 425Q722 418 757 412Q776 409 769 398Q760 386 739 382Q720 381 687 389C655 398 655 398 639 403Q599 413 566 422Q553 425 569 437Q578 444 597 440Q619 436 640 433C670 428 670 428 685 425Z"/>
<path id="z34838d15" d="M681 500Q724 493 764 488Q783 485 777 474Q768 462 747 458Q723 452 683 466C654 473 654 473 640 477Q598 486 562 494Q549 497 565 509Q571 513 641 506C668 502 668 502 681 500Z"/>
<path id="z34838d16" d="M679 547Q680 522 681 500C682 477 682 477 683 466Q683 444 685 425C686 401 686 401 687 389Q687 359 679 351Q676 348 674 347C663 339 632 343 634 356C637 387 637 387 639 403C640 423 640 423 640 433Q640 451 640 477C641 496 641 496 641 506Q641 525 642 553C642 565 679 559 679 547Z"/>
<path id="z34838d17" d="M642 553Q579 562 514 573C505 575 502 598 511 600Q535 607 549 603Q669 567 855 568C856 568 856 568 857 568Q872 568 875 562Q879 552 866 543Q821 510 764 530Q727 536 679 547C654 551 654 551 642 553Z"/>
<path id="z34838d18" d="M672 818Q703 781 727 729Q739 695 760 681Q778 668 762 651Q743 632 712 615Q693 605 669 614Q618 639 548 649Q520 650 508 657Q499 664 518 674Q543 689 584 677Q623 670 660 660Q675 654 676 672Q676 727 627 790C608 811 608 811 598 821Q523 873 371 907Q355 908 363 918Q370 925 399 926Q496 919 552 900Q598 884 634 855C659 830 659 830 672 818Z"/>
<path id="z34838d19" d="M634 855Q751 957 790 954Q872 945 936 928Q970 919 966 911Q965 907 930 898Q753 870 672 818C642 799 642 799 627 790Q591 765 552 733Q513 700 480 704Q464 705 461 711Q460 718 476 726Q515 744 598 821C622 844 622 844 634 855Z"/>
<defs>
	<clipPath id="z34838c1"><use xlink:href="#z34838d1"/></clipPath>
	<clipPath id="z34838c2"><use xlink:href="#z34838d2"/></clipPath>
	<clipPath id="z34838c3"><use xlink:href="#z34838d3"/></clipPath>
	<clipPath id="z34838c4"><use xlink:href="#z34838d4"/></clipPath>
	<clipPath id="z34838c5"><use xlink:href="#z34838d5"/></clipPath>
	<clipPath id="z34838c6"><use xlink:href="#z34838d6"/></clipPath>
	<clipPath id="z34838c7"><use xlink:href="#z34838d7"/></clipPath>
	<clipPath id="z34838c8"><use xlink:href="#z34838d8"/></clipPath>
	<clipPath id="z34838c9"><use xlink:href="#z34838d9"/></clipPath>
	<clipPath id="z34838c10"><use xlink:href="#z34838d10"/></clipPath>
	<clipPath id="z34838c11"><use xlink:href="#z34838d11"/></clipPath>
	<clipPath id="z34838c12"><use xlink:href="#z34838d12"/></clipPath>
	<clipPath id="z34838c13"><use xlink:href="#z34838d13"/></clipPath>
	<clipPath id="z34838c14"><use xlink:href="#z34838d14"/></clipPath>
	<clipPath id="z34838c15"><use xlink:href="#z34838d15"/></clipPath>
	<clipPath id="z34838c16"><use xlink:href="#z34838d16"/></clipPath>
	<clipPath id="z34838c17"><use xlink:href="#z34838d17"/></clipPath>
	<clipPath id="z34838c18"><use xlink:href="#z34838d18"/></clipPath>
	<clipPath id="z34838c19"><use xlink:href="#z34838d19"/></clipPath>
</defs>
<path style="--d:1s;" pathLength="3333" clip-path="url(#z34838c1)" d="M82 379L111 399L157 574"/>
<path style="--d:2s;" pathLength="3333" clip-path="url(#z34838c2)" d="M139 386L335 351L368 382L327 472"/>
<path style="--d:3s;" pathLength="3333" clip-path="url(#z34838c3)" d="M174 538L368 494"/>
<path style="--d:4s;" pathLength="3333" clip-path="url(#z34838c4)" d="M193 182L250 235L233 665"/>
<path style="--d:5s;" pathLength="3333" clip-path="url(#z34838c5)" d="M73 711L132 728L336 648"/>
<path style="--d:6s;" pathLength="3333" clip-path="url(#z34838c6)" d="M322 591L385 703"/>
<path style="--d:7s;" pathLength="3333" clip-path="url(#z34838c7)" d="M409 194L780 151L853 161"/>
<path style="--d:8s;" pathLength="3333" clip-path="url(#z34838c8)" d="M496 106L539 130L568 251"/>
<path style="--d:9s;" pathLength="3333" clip-path="url(#z34838c9)" d="M675 69L704 104L668 223"/>
<path style="--d:10s;" pathLength="3333" clip-path="url(#z34838c10)" d="M548 291L510 309L465 391L390 465"/>
<path style="--d:11s;" pathLength="3333" clip-path="url(#z34838c11)" d="M480 408L486 635"/>
<path style="--d:12s;" pathLength="3333" clip-path="url(#z34838c12)" d="M616 234L685 288"/>
<path style="--d:13s;" pathLength="3333" clip-path="url(#z34838c13)" d="M560 340L802 303"/>
<path style="--d:14s;" pathLength="3333" clip-path="url(#z34838c14)" d="M571 430L764 403"/>
<path style="--d:15s;" pathLength="3333" clip-path="url(#z34838c15)" d="M566 501L773 475"/>
<path style="--d:16s;" pathLength="3333" clip-path="url(#z34838c16)" d="M640 363L663 395L654 549"/>
<path style="--d:17s;" pathLength="3333" clip-path="url(#z34838c17)" d="M520 594L783 546L869 552"/>
<path style="--d:18s;" pathLength="3333" clip-path="url(#z34838c18)" d="M517 664L699 643L722 674L679 762L564 869L369 915"/>
<path style="--d:19s;" pathLength="3333" clip-path="url(#z34838c19)" d="M468 711L779 909L957 912"/>
</svg>