<!--
AnimCJK 2016-2018 Copyright Francois Mizessyn - https://github.com/parsimonhi/animCJK
Derived from:
    MakeMeAHanzi project - https://github.com/skishore/makemeahanzi
    Arphic PL KaitiM GB - https://apps.ubuntu.com/cat/applications/precise/fonts-arphic-gkai00mp/
    Arphic PL UKai - https://apps.ubuntu.com/cat/applications/fonts-arphic-ukai/
You can redistribute and/or modify this file under the terms of the Arphic Public License
as published by Arphic Technology Co., Ltd.
You should have received a copy of this license (the directory "APL") along with this file;
if not, see http://ftp.gnu.org/non-gnu/chinese-fonts-truetype/LICENSE.
-->
<svg id="z34849" class="acjk" version="1.1" viewBox="0 0 1024 1024" xmlns="http://www.w3.org/2000/svg" xmlns:xlink="http://www.w3.org/1999/xlink">
<style>
<![CDATA[
@keyframes z34849k {
	from {
		stroke:#ccc;
		stroke-dashoffset:3334;
	}
	1% {
		stroke:#c00;
		stroke-dashoffset:3334;
	}
	75% {
		stroke:#c00;
		stroke-dashoffset:0;
	}
	to {
		stroke:#000;
	}
}
#z34849 path[clip-path] {
	animation:z34849k 1s linear both;
	stroke-dasharray:3334;
	stroke-width:128;
	stroke-linecap:round;
	fill:none;
}
#z34849 path[clip-path="url(#z34849c1)"] {animation-delay:1s;}
#z34849 path[clip-path="url(#z34849c2)"] {animation-delay:2s;}
#z34849 path[clip-path="url(#z34849c3)"] {animation-delay:3s;}
#z34849 path[clip-path="url(#z34849c4)"] {animation-delay:4s;}
#z34849 path[clip-path="url(#z34849c5)"] {animation-delay:5s;}
#z34849 path[clip-path="url(#z34849c6)"] {animation-delay:6s;}
#z34849 path[clip-path="url(#z34849c7)"] {animation-delay:7s;}
#z34849 path[clip-path="url(#z34849c8)"] {animation-delay:8s;}
#z34849 path[clip-path="url(#z34849c9)"] {animation-delay:9s;}
#z34849 path[clip-path="url(#z34849c10)"] {animation-delay:10s;}
#z34849 path[clip-path="url(#z34849c11)"] {animation-delay:11s;}
#z34849 path[clip-path="url(#z34849c12)"] {animation-delay:12s;}
#z34849 path[clip-path="url(#z34849c13)"] {animation-delay:13s;}
#z34849 path[clip-path="url(#z34849c14)"] {animation-delay:14s;}
#z34849 path[clip-path="url(#z34849c15)"] {animation-delay:15s;}
#z34849 path[clip-path="url(#z34849c16)"] {animation-delay:16s;}
#z34849 path[clip-path="url(#z34849c17)"] {animation-delay:17s;}
#z34849 path[clip-path="url(#z34849c18)"] {animation-delay:18s;}
#z34849 path[clip-path="url(#z34849c19)"] {animation-delay:19s;}
#z34849 path[clip-path="url(#z34849c20)"] {animation-delay:20s;}
#z34849 path[clip-path="url(#z34849c21)"] {animation-delay:21s;}
#z34849 path {fill:#ccc;}
]]>
</style>
<path id="z34849d1" d="M466 107Q472 100 477 97Q486 90 482 81Q478 71 442 53Q430 46 423 49Q413 53 417 69Q433 124 344 182Q338 185 334 188Q324 197 325 205Q329 218 346 234Q353 243 364 236Q397 217 534 209L546 188Q482 184 412 185Q405 186 402 183Q401 182 405 176Q436 140 454 120L466 107 Z"/>
<path id="z34849d2" d="M540 241Q627 153 655 137Q671 130 662 117Q652 107 620 86Q616 83 520 102Q493 103 466 107L454 120Q461 127 479 131Q489 132 560 126Q569 125 571 128Q574 131 570 139Q557 166 546 188L534 209Q516 236 513 245L540 241 Z"/>
<path id="z34849d3" d="M676 266Q817 266 822 258Q826 248 813 236Q767 202 736 209Q660 224 540 241L513 245Q503 245 495 247Q359 263 199 281Q181 282 194 298Q206 310 221 314Q239 318 253 315Q328 296 411 285L457 279Q533 269 644 266L676 266 Z"/>
<path id="z34849d4" d="M411 285Q354 337 230 385Q212 389 231 394Q285 403 410 340Q411 336 457 313L470 294Q469 287 457 279L411 285 Z"/>
<path id="z34849d5" d="M457 313Q458 314 461 315Q465 316 468 320L506 352Q512 359 518 368L535 414Q541 432 532 476Q528 494 522 496Q518 500 470 501Q433 497 432 504Q432 511 443 520Q495 554 517 578Q530 591 541 588Q553 584 563 567Q599 486 574 409L553 359Q517 310 470 294L457 313 Z"/>
<path id="z34849d6" d="M468 320Q467 321 465 324Q438 382 256 465Q243 471 258 473Q330 476 455 388Q488 364 506 352L468 320 Z"/>
<path id="z34849d7" d="M518 368Q455 449 325 513Q313 520 320 523Q333 533 389 513Q443 492 504 442Q532 420 532 417Q533 416 535 414L518 368 Z"/>
<path id="z34849d8" d="M580 376Q602 366 621 357Q673 329 697 323Q716 319 710 302Q695 275 676 266L644 266Q643 266 644 267Q645 292 596 331Q578 346 559 363L580 376 Z"/>
<path id="z34849d9" d="M574 409Q641 467 712 520Q737 538 772 534Q836 528 901 505Q917 501 919 496Q920 489 906 486Q735 453 647 413Q602 389 580 376L559 363Q556 360 553 359L574 409 Z"/>
<path id="z34849d10" d="M201 640Q191 636 167 632Q157 631 154 634Q150 640 157 653Q179 695 194 764Q197 785 210 799Q226 817 230 803Q233 793 232 778L228 752Q216 686 214 665L201 640 Z"/>
<path id="z34849d11" d="M437 720Q464 663 484 655Q497 640 486 626Q474 616 434 595Q421 588 403 594Q375 604 347 613L295 626Q249 633 201 640L214 665Q287 650 297 649L343 640Q362 636 384 632Q403 628 411 636Q417 642 415 653Q406 687 397 717L437 720 Z"/>
<path id="z34849d12" d="M338 764Q384 757 450 750Q459 749 460 742Q460 735 437 720L397 717Q396 716 393 717Q363 724 340 731L300 740Q261 747 228 752L232 778Q233 778 236 779Q246 780 257 779Q275 775 301 771L338 764 Z"/>
<path id="z34849d13" d="M334 847Q335 804 338 764L340 731Q341 683 343 640L347 613Q350 591 356 572Q359 562 342 551Q314 536 294 533Q281 530 274 538Q268 544 275 556Q294 581 295 626L297 649Q298 692 300 740L301 771Q301 811 300 854L334 847 Z"/>
<path id="z34849d14" d="M418 829Q375 838 334 847L300 854Q251 861 200 871Q184 874 158 871Q146 871 143 880Q140 892 148 900Q167 916 195 936Q205 940 216 933Q244 915 399 861Q415 855 428 848L418 829 Z"/>
<path id="z34849d15" d="M428 848Q455 899 464 904Q471 905 478 899Q485 890 486 870Q489 851 469 828Q420 783 408 782Q404 783 402 792Q401 801 418 829L428 848 Z"/>
<path id="z34849d16" d="M540 611Q531 607 511 604Q501 601 498 606Q494 610 500 624Q522 667 535 736Q538 757 550 770Q566 789 570 775Q573 766 573 753L569 723Q559 659 558 638L540 611 Z"/>
<path id="z34849d17" d="M790 693Q814 642 837 629Q852 614 840 599Q827 587 785 565Q770 558 752 564Q716 577 686 586L635 597Q589 604 540 611L558 638Q595 629 636 623L683 614Q707 610 732 605Q753 601 761 609Q767 615 764 628Q757 659 747 687L790 693 Z"/>
<path id="z34849d18" d="M679 738Q730 731 800 724Q810 723 812 715Q812 708 790 693L747 687Q741 686 680 702L639 711Q600 717 569 723L573 753L640 743L679 738 Z"/>
<path id="z34849d19" d="M674 828Q677 782 679 738L680 702Q681 656 683 614L686 586Q687 573 690 564Q694 548 697 537Q700 528 683 516Q653 500 632 497Q619 494 612 502Q606 509 613 521Q629 543 635 597L636 623Q637 665 639 711L640 743Q640 786 639 835L674 828 Z"/>
<path id="z34849d20" d="M774 808Q723 818 674 828L639 835Q596 841 554 849Q538 852 510 849Q498 849 496 857Q493 869 500 876Q519 892 545 912Q554 915 565 909Q595 891 787 827L774 808 Z"/>
<path id="z34849d21" d="M787 827Q842 917 850 922Q857 925 865 918Q878 909 875 871Q875 838 827 806Q821 800 772 771Q765 765 762 775Q759 782 774 808L787 827 Z"/>
<defs>
	<clipPath id="z34849c1"><use xlink:href="#z34849d1"/></clipPath>
	<clipPath id="z34849c2"><use xlink:href="#z34849d2"/></clipPath>
	<clipPath id="z34849c3"><use xlink:href="#z34849d3"/></clipPath>
	<clipPath id="z34849c4"><use xlink:href="#z34849d4"/></clipPath>
	<clipPath id="z34849c5"><use xlink:href="#z34849d5"/></clipPath>
	<clipPath id="z34849c6"><use xlink:href="#z34849d6"/></clipPath>
	<clipPath id="z34849c7"><use xlink:href="#z34849d7"/></clipPath>
	<clipPath id="z34849c8"><use xlink:href="#z34849d8"/></clipPath>
	<clipPath id="z34849c9"><use xlink:href="#z34849d9"/></clipPath>
	<clipPath id="z34849c10"><use xlink:href="#z34849d10"/></clipPath>
	<clipPath id="z34849c11"><use xlink:href="#z34849d11"/></clipPath>
	<clipPath id="z34849c12"><use xlink:href="#z34849d12"/></clipPath>
	<clipPath id="z34849c13"><use xlink:href="#z34849d13"/></clipPath>
	<clipPath id="z34849c14"><use xlink:href="#z34849d14"/></clipPath>
	<clipPath id="z34849c15"><use xlink:href="#z34849d15"/></clipPath>
	<clipPath id="z34849c16"><use xlink:href="#z34849d16"/></clipPath>
	<clipPath id="z34849c17"><use xlink:href="#z34849d17"/></clipPath>
	<clipPath id="z34849c18"><use xlink:href="#z34849d18"/></clipPath>
	<clipPath id="z34849c19"><use xlink:href="#z34849d19"/></clipPath>
	<clipPath id="z34849c20"><use xlink:href="#z34849d20"/></clipPath>
	<clipPath id="z34849c21"><use xlink:href="#z34849d21"/></clipPath>
</defs>
<path pathLength="3333" clip-path="url(#z34849c1)" d="M425 55L450 92L366 188L372 206L537 193"/>
<path pathLength="3333" clip-path="url(#z34849c2)" d="M465 116L592 109L618 128L521 238"/>
<path pathLength="3333" clip-path="url(#z34849c3)" d="M195 287L739 236L818 251"/>
<path pathLength="3333" clip-path="url(#z34849c4)" d="M464 295L231 387"/>
<path pathLength="3333" clip-path="url(#z34849c5)" d="M465 310L533 360L559 470L525 543L437 511"/>
<path pathLength="3333" clip-path="url(#z34849c6)" d="M497 352L259 467"/>
<path pathLength="3333" clip-path="url(#z34849c7)" d="M516 380L452 458L328 519"/>
<path pathLength="3333" clip-path="url(#z34849c8)" d="M649 274L664 313L569 365"/>
<path pathLength="3333" clip-path="url(#z34849c9)" d="M561 367L739 489L909 493"/>
<path pathLength="3333" clip-path="url(#z34849c10)" d="M160 641L189 667L222 803"/>
<path pathLength="3333" clip-path="url(#z34849c11)" d="M210 643L422 615L452 649L410 717"/>
<path pathLength="3333" clip-path="url(#z34849c12)" d="M236 754L454 743"/>
<path pathLength="3333" clip-path="url(#z34849c13)" d="M280 544L323 579L317 850"/>
<path pathLength="3333" clip-path="url(#z34849c14)" d="M145 880L199 904L422 842"/>
<path pathLength="3333" clip-path="url(#z34849c15)" d="M410 788L468 896"/>
<path pathLength="3333" clip-path="url(#z34849c16)" d="M504 610L536 646L561 775"/>
<path pathLength="3333" clip-path="url(#z34849c17)" d="M550 613L765 583L804 622L755 683"/>
<path pathLength="3333" clip-path="url(#z34849c18)" d="M577 729L805 714"/>
<path pathLength="3333" clip-path="url(#z34849c19)" d="M617 504L663 546L656 831"/>
<path pathLength="3333" clip-path="url(#z34849c20)" d="M500 860L556 880L781 819"/>
<path pathLength="3333" clip-path="url(#z34849c21)" d="M769 779L830 842L861 917"/>
</svg>