<!--
AnimCJK 2016-2019 Copyright Francois Mizessyn - https://github.com/parsimonhi/animCJK
Derived from:
    MakeMeAHanzi project - https://github.com/skishore/makemeahanzi
    Arphic PL KaitiM GB font
    Arphic PL UKai font
You can redistribute and/or modify this file under the terms of the Arphic Public License
as published by Arphic Technology Co., Ltd.
You should have received a copy of this license along with this file.
If not, see http://ftp.gnu.org/non-gnu/chinese-fonts-truetype/LICENSE.
-->
<svg id="z34900" class="acjk" version="1.1" viewBox="0 0 1024 1024" xmlns="http://www.w3.org/2000/svg" xmlns:xlink="http://www.w3.org/1999/xlink">
<style>
<![CDATA[
@keyframes zk {
	to {
		stroke-dashoffset:0;
	}
}
svg.acjk path[clip-path] {
	--t:0.8s;
	animation:zk var(--t) linear forwards var(--d);
	stroke-dasharray:3337;
	stroke-dashoffset:3339;
	stroke-width:128;
	stroke-linecap:round;
	fill:none;
	stroke:#000;
}
svg.acjk path[id] {fill:#ccc;}
]]>
</style>
<path id="z34900d1" d="M270 94Q285 130 208 241Q172 292 124 348Q114 357 112 362Q108 372 121 371Q170 364 304 199Q310 177 343 151Q343 150 345 149Q355 140 351 127Q348 114 323 92Q298 73 281 72Q263 73 270 94Z"/>
<path id="z34900d2" d="M239 484Q263 451 289 413Q313 373 334 353Q343 344 339 332Q335 320 311 300Q289 284 272 283Q256 284 262 303Q272 331 262 354Q207 477 63 641Q53 650 51 655Q48 665 61 663Q103 657 214 516C231 495 231 495 239 484Z"/>
<path id="z34900d3" d="M214 516Q244 582 215 752Q191 827 230 872C231 873 231 873 231 873Q247 888 258 863Q271 826 271 785Q272 599 278 558Q285 533 276 524Q246 488 239 484C228 476 209 503 214 516Z"/>
<path id="z34900d4" d="M488 269Q545 172 558 160Q567 150 562 137Q558 125 531 105Q506 89 488 89Q470 90 478 111Q491 138 482 162Q452 241 407 314Q362 384 301 463Q292 473 290 479Q287 489 301 486Q340 480 470 297C482 278 482 278 488 269Z"/>
<path id="z34900d5" d="M470 297Q509 309 554 290Q581 281 609 272Q621 268 623 266Q630 257 625 250Q616 240 589 238Q561 237 536 252Q532 253 488 269C477 273 459 295 470 297Z"/>
<path id="z34900d6" d="M480 431Q523 415 570 400Q592 391 595 388Q601 381 596 374Q589 364 563 362Q548 362 463 396Q433 406 399 415Q368 425 393 435Q408 441 433 442C464 435 464 435 480 431Z"/>
<path id="z34900d7" d="M497 539Q533 527 573 517Q604 507 609 503Q616 496 611 489Q604 480 581 476Q557 473 497 500C467 510 467 510 452 515Q412 525 368 533Q340 540 362 552Q392 567 444 554Q447 553 454 552C483 543 483 543 497 539Z"/>
<path id="z34900d8" d="M454 552Q457 687 417 745Q392 769 428 814Q429 817 432 819Q444 826 454 810Q464 786 573 682Q589 669 592 661Q596 652 587 653Q575 653 499 699Q492 705 490 698Q497 610 497 539C497 513 497 513 497 500Q497 481 501 466Q507 448 480 431C467 421 427 427 433 442Q448 476 452 515C453 540 453 540 454 552Z"/>
<path id="z34900d9" d="M682 273Q645 283 674 297Q719 318 774 298Q816 286 859 274Q878 268 882 265Q889 256 884 248Q877 236 846 232Q824 229 742 259Q715 266 682 273Z"/>
<path id="z34900d10" d="M797 447Q839 440 907 437Q944 437 949 427Q953 417 938 405Q884 372 834 391Q801 398 754 411Q697 424 630 439Q611 443 626 457Q654 478 708 464C767 453 767 453 797 447Z"/>
<path id="z34900d11" d="M705 829Q680 820 649 812Q636 808 637 816Q637 823 648 834Q714 891 757 936Q769 946 783 929Q826 875 822 791Q810 617 817 504Q824 476 817 465Q811 456 797 447C771 431 678 470 708 464Q739 455 744 466Q753 496 757 784Q756 818 745 830Q733 837 705 829Z"/>
<defs>
	<clipPath id="z34900c1"><use xlink:href="#z34900d1"/></clipPath>
	<clipPath id="z34900c2"><use xlink:href="#z34900d2"/></clipPath>
	<clipPath id="z34900c3"><use xlink:href="#z34900d3"/></clipPath>
	<clipPath id="z34900c4"><use xlink:href="#z34900d4"/></clipPath>
	<clipPath id="z34900c5"><use xlink:href="#z34900d5"/></clipPath>
	<clipPath id="z34900c6"><use xlink:href="#z34900d6"/></clipPath>
	<clipPath id="z34900c7"><use xlink:href="#z34900d7"/></clipPath>
	<clipPath id="z34900c8"><use xlink:href="#z34900d8"/></clipPath>
	<clipPath id="z34900c9"><use xlink:href="#z34900d9"/></clipPath>
	<clipPath id="z34900c10"><use xlink:href="#z34900d10"/></clipPath>
	<clipPath id="z34900c11"><use xlink:href="#z34900d11"/></clipPath>
</defs>
<path style="--d:1s;" pathLength="3333" clip-path="url(#z34900c1)" d="M275 78L309 137L118 365"/>
<path style="--d:2s;" pathLength="3333" clip-path="url(#z34900c2)" d="M268 294L302 344L181 526L57 657"/>
<path style="--d:3s;" pathLength="3333" clip-path="url(#z34900c3)" d="M236 494L252 539L241 874"/>
<path style="--d:4s;" pathLength="3333" clip-path="url(#z34900c4)" d="M482 98L520 159L411 344L297 481"/>
<path style="--d:5s;" pathLength="3333" clip-path="url(#z34900c5)" d="M480 294L622 255"/>
<path style="--d:6s;" pathLength="3333" clip-path="url(#z34900c6)" d="M388 427L593 375"/>
<path style="--d:7s;" pathLength="3333" clip-path="url(#z34900c7)" d="M363 543L609 492"/>
<path style="--d:8s;" pathLength="3333" clip-path="url(#z34900c8)" d="M441 444L474 467L452 760L586 660"/>
<path style="--d:9s;" pathLength="3333" clip-path="url(#z34900c9)" d="M670 286L881 252"/>
<path style="--d:10s;" pathLength="3333" clip-path="url(#z34900c10)" d="M625 446L858 412L945 420"/>
<path style="--d:11s;" pathLength="3333" clip-path="url(#z34900c11)" d="M745 460L784 486L780 847L752 887L641 820"/>
</svg>