<!--
AnimCJK 2016-2017 Copyright Francois Mizessyn, http://gooo.free.fr/animCJK/
Derived from:
    MakeMeAHanzi project - https://github.com/skishore/makemeahanzi
    Arphic PL KaitiM GB - https://apps.ubuntu.com/cat/applications/precise/fonts-arphic-gkai00mp/
    Arphic PL UKai - https://apps.ubuntu.com/cat/applications/fonts-arphic-ukai/
You can redistribute and/or modify this file under the terms of the Arphic Public License
as published by Arphic Technology Co., Ltd.
You should have received a copy of this license (the directory "APL") along with this file;
if not, see http://ftp.gnu.org/non-gnu/chinese-fonts-truetype/LICENSE.
-->
<svg id="z34948" class="acjk" version="1.1" viewBox="0 0 1024 1024" xmlns="http://www.w3.org/2000/svg" xmlns:xlink="http://www.w3.org/1999/xlink">
<style>
<![CDATA[
	@keyframes z34948k {
		from {
			stroke:#c00;
			stroke-dashoffset:3000;
		}
		75% {
			stroke:#c00;
			stroke-dashoffset:0;
		}
		to {
			stroke:#000;
		}
	}
	#z34948 path[clip-path] {
		animation:z34948k 1s linear both;
		stroke-dasharray:3000;
		stroke-width:128;
		stroke-linecap:round;
		fill:none;
	}
	#z34948 path[clip-path="url(#z34948c1)"] {animation-delay:1s;}
	#z34948 path[clip-path="url(#z34948c2)"] {animation-delay:2s;}
	#z34948 path[clip-path="url(#z34948c3)"] {animation-delay:3s;}
	#z34948 path[clip-path="url(#z34948c4)"] {animation-delay:4s;}
	#z34948 path[clip-path="url(#z34948c5)"] {animation-delay:5s;}
	#z34948 path[clip-path="url(#z34948c6)"] {animation-delay:6s;}
	#z34948 path[clip-path="url(#z34948c7)"] {animation-delay:7s;}
	#z34948 path[clip-path="url(#z34948c8)"] {animation-delay:8s;}
	#z34948 path[clip-path="url(#z34948c9)"] {animation-delay:9s;}
	#z34948 path {fill:#ccc;}
]]>
</style>
<g transform="scale(1,-1) translate(0,-900)">
	<path id="z34948d1" d="M302 760Q335 736 371 706Q387 693 404 696Q416 697 420 712Q424 728 412 761Q399 795 292 812Q274 815 268 811Q262 807 265 793Q271 780 302 760Z"/>
	<path id="z34948d2" d="M270 369Q306 415 344 475Q378 529 425 564Q441 577 427 592Q406 608 376 618Q352 627 334 614Q253 554 105 542Q92 543 90 535Q87 525 103 515Q142 490 159 493Q181 497 299 551Q315 558 320 551Q324 542 313 519Q238 374 72 213Q56 201 60 197Q63 194 77 200Q153 237 247 341L270 369Z"/>
	<path id="z34948d3" d="M247 341Q262 310 267 249Q267 153 250 79Q238 30 273 -11L274 -13Q290 -28 302 -3Q315 36 315 79Q314 248 319 287Q326 312 317 322Q284 361 270 369L247 341Z"/>
	<path id="z34948d4" d="M376 349Q422 391 447 407Q459 411 455 419Q449 429 434 441Q419 451 403 452Q393 451 395 436Q399 421 362 357L376 349Z"/>
	<path id="z34948d5" d="M362 357Q355 361 350 362Q343 363 341 355Q338 343 390 281Q403 265 416 263Q426 262 434 276Q435 286 430 304Q423 322 376 349L362 357Z"/>
	<path id="z34948d6" d="M621 585Q663 601 696 621Q744 643 784 654Q803 657 806 665Q809 677 795 688Q732 727 693 723Q686 719 685 706Q686 661 484 553Q480 543 486 540Q501 540 572 566L621 585Z"/>
	<path id="z34948d7" d="M651 370Q717 382 824 385Q869 385 877 395Q881 407 865 419Q813 453 752 435Q710 425 654 412L598 400Q531 388 454 373Q435 370 450 355Q478 330 516 340Q553 352 595 360L651 370Z"/>
	<path id="z34948d8" d="M649 361Q650 365 651 370L654 412Q654 416 655 419Q658 500 673 538Q677 550 669 557Q653 573 621 585L572 566Q600 538 600 506Q601 448 598 400L595 360Q585 192 469 99Q444 80 410 56Q397 50 394 46Q390 39 405 38Q468 38 562 120Q575 136 588 153Q621 202 642 313L649 361Z"/>
	<path id="z34948d9" d="M642 313Q778 40 828 35Q889 34 941 32Q963 32 964 37Q965 43 942 58Q819 124 783 169Q708 253 650 361Q649 362 649 361L642 313Z"/>
	<defs>
		<clipPath id="z34948c1"><use xlink:href="#z34948d1"/></clipPath>
		<clipPath id="z34948c2"><use xlink:href="#z34948d2"/></clipPath>
		<clipPath id="z34948c3"><use xlink:href="#z34948d3"/></clipPath>
		<clipPath id="z34948c4"><use xlink:href="#z34948d4"/></clipPath>
		<clipPath id="z34948c5"><use xlink:href="#z34948d5"/></clipPath>
		<clipPath id="z34948c6"><use xlink:href="#z34948d6"/></clipPath>
		<clipPath id="z34948c7"><use xlink:href="#z34948d7"/></clipPath>
		<clipPath id="z34948c8"><use xlink:href="#z34948d8"/></clipPath>
		<clipPath id="z34948c9"><use xlink:href="#z34948d9"/></clipPath>
	</defs>
	<path pathLength="2999" clip-path="url(#z34948c1)" d="M272 804L369 755L412 705"/>
	<path pathLength="2999" clip-path="url(#z34948c2)" d="M94 534L172 524L340 585L379 561L231 355L66 202"/>
	<path pathLength="2999" clip-path="url(#z34948c3)" d="M271 362L292 295L280 -12"/>
	<path pathLength="2999" clip-path="url(#z34948c4)" d="M405 446L421 409L370 354"/>
	<path pathLength="2999" clip-path="url(#z34948c5)" d="M349 353L420 268"/>
	<path pathLength="2999" clip-path="url(#z34948c6)" d="M799 668L711 679L643 620L488 548"/>
	<path pathLength="2999" clip-path="url(#z34948c7)" d="M450 365L872 408"/>
	<path pathLength="2999" clip-path="url(#z34948c8)" d="M580 565L636 529L598 239L530 124L400 43"/>
	<path pathLength="2999" clip-path="url(#z34948c9)" d="M651 349L791 113L840 72L955 39"/>
</g>
</svg>