<!--
AnimCJK 2016-2019 Copyright Francois Mizessyn - https://github.com/parsimonhi/animCJK
Derived from:
    MakeMeAHanzi project - https://github.com/skishore/makemeahanzi
    Arphic PL KaitiM GB font
    Arphic PL UKai font
You can redistribute and/or modify this file under the terms of the Arphic Public License
as published by Arphic Technology Co., Ltd.
You should have received a copy of this license along with this file.
If not, see http://ftp.gnu.org/non-gnu/chinese-fonts-truetype/LICENSE.
-->
<svg id="z34962" class="acjk" version="1.1" viewBox="0 0 1024 1024" xmlns="http://www.w3.org/2000/svg" xmlns:xlink="http://www.w3.org/1999/xlink">
<style>
<![CDATA[
@keyframes zk {
	to {
		stroke-dashoffset:0;
	}
}
svg.acjk path[clip-path] {
	--t:0.8s;
	animation:zk var(--t) linear forwards var(--d);
	stroke-dasharray:3337;
	stroke-dashoffset:3339;
	stroke-width:128;
	stroke-linecap:round;
	fill:none;
	stroke:#000;
}
svg.acjk path[id] {fill:#ccc;}
]]>
</style>
<path id="z34962d1" d="M294 134Q325 159 359 190Q375 203 391 203Q403 202 408 188Q414 172 403 139Q396 117 361 101Q279 73 264 81Q258 85 260 99Q264 112 294 134Z"/>
<path id="z34962d2" d="M256 547Q287 502 321 447Q352 393 397 358Q412 345 399 331Q380 318 351 308Q329 299 312 311Q272 341 248 349Q220 359 172 369Q123 376 86 379Q74 378 72 385Q69 395 83 405Q119 429 151 424Q163 420 177 414Q291 366 296 374Q302 383 290 405Q218 556 63 712Q50 724 52 727Q55 730 67 724Q154 679 234 575C249 556 249 556 256 547Z"/>
<path id="z34962d3" d="M234 575Q267 683 236 824Q226 866 255 908Q256 911 259 913Q275 928 286 903Q299 866 299 825Q298 662 302 626Q309 601 300 592Q269 555 256 547C246 541 232 563 234 575Z"/>
<path id="z34962d4" d="M375 533Q420 496 443 481Q455 477 451 469Q445 459 430 447Q415 435 399 436Q389 437 391 451Q394 464 361 525C358 530 371 536 375 533Z"/>
<path id="z34962d5" d="M361 525Q360 524 356 522Q346 518 340 518Q336 519 335 529C376 588 376 588 397 617Q404 629 416 630Q423 631 430 623Q434 613 433 591Q432 572 409 553Q393 541 375 533C366 528 366 528 361 525Z"/>
<path id="z34962d6" d="M517 282Q505 276 477 271Q464 267 461 273Q454 279 463 295Q497 374 513 503Q514 542 536 568Q554 590 559 575Q563 565 564 549C563 529 563 529 563 519Q562 506 559 490Q552 453 547 424C545 408 545 408 544 400Q534 339 531 314C529 303 528 286 517 282Z"/>
<path id="z34962d7" d="M706 534Q727 567 745 575Q755 582 771 561Q789 528 822 354Q831 323 854 297Q867 284 855 270Q839 254 796 227Q778 218 711 237Q707 237 517 282C506 284 520 318 531 314Q598 292 721 270Q748 266 757 274Q773 293 770 313Q745 467 726 505C720 515 699 525 706 534Z"/>
<path id="z34962d8" d="M547 424Q551 425 564 424Q646 409 707 401Q729 397 721 384Q711 369 685 365Q661 362 620 375Q580 388 544 400C537 403 539 424 547 424Z"/>
<path id="z34962d9" d="M564 549Q574 550 584 548Q624 539 706 534C718 534 734 513 726 505Q722 501 716 497Q700 488 672 495Q611 510 563 519C553 521 554 549 564 549Z"/>
<path id="z34962d10" d="M409 721Q387 722 403 741Q418 756 436 761Q458 768 475 763Q634 721 881 729Q899 729 917 730Q938 730 943 721Q949 709 932 695Q878 653 839 662Q682 692 409 721Z"/>
<defs>
	<clipPath id="z34962c1"><use xlink:href="#z34962d1"/></clipPath>
	<clipPath id="z34962c2"><use xlink:href="#z34962d2"/></clipPath>
	<clipPath id="z34962c3"><use xlink:href="#z34962d3"/></clipPath>
	<clipPath id="z34962c4"><use xlink:href="#z34962d4"/></clipPath>
	<clipPath id="z34962c5"><use xlink:href="#z34962d5"/></clipPath>
	<clipPath id="z34962c6"><use xlink:href="#z34962d6"/></clipPath>
	<clipPath id="z34962c7"><use xlink:href="#z34962d7"/></clipPath>
	<clipPath id="z34962c8"><use xlink:href="#z34962d8"/></clipPath>
	<clipPath id="z34962c9"><use xlink:href="#z34962d9"/></clipPath>
	<clipPath id="z34962c10"><use xlink:href="#z34962d10"/></clipPath>
</defs>
<path style="--d:1s;" pathLength="3333" clip-path="url(#z34962c1)" d="M265 92L353 136L402 192"/>
<path style="--d:2s;" pathLength="3333" clip-path="url(#z34962c2)" d="M78 388L141 399L311 342L353 360L196 591L59 722"/>
<path style="--d:3s;" pathLength="3333" clip-path="url(#z34962c3)" d="M256 558L275 616L272 913"/>
<path style="--d:4s;" pathLength="3333" clip-path="url(#z34962c4)" d="M401 439L417 476L370 527"/>
<path style="--d:5s;" pathLength="3333" clip-path="url(#z34962c5)" d="M342 525L402 581L417 625"/>
<path style="--d:6s;" pathLength="3333" clip-path="url(#z34962c6)" d="M466 278L503 322L554 574"/>
<path style="--d:7s;" pathLength="3333" clip-path="url(#z34962c7)" d="M526 287L742 248L806 277L733 564"/>
<path style="--d:8s;" pathLength="3333" clip-path="url(#z34962c8)" d="M556 417L716 389"/>
<path style="--d:9s;" pathLength="3333" clip-path="url(#z34962c9)" d="M569 541L719 510"/>
<path style="--d:10s;" pathLength="3333" clip-path="url(#z34962c10)" d="M403 729L460 740L853 694L940 711"/>
</svg>