<!--
AnimCJK 2016-2018 Copyright Francois Mizessyn - https://github.com/parsimonhi/animCJK
Derived from:
    MakeMeAHanzi project - https://github.com/skishore/makemeahanzi
    Arphic PL KaitiM GB - https://apps.ubuntu.com/cat/applications/precise/fonts-arphic-gkai00mp/
    Arphic PL UKai - https://apps.ubuntu.com/cat/applications/fonts-arphic-ukai/
You can redistribute and/or modify this file under the terms of the Arphic Public License
as published by Arphic Technology Co., Ltd.
You should have received a copy of this license (the directory "APL") along with this file;
if not, see http://ftp.gnu.org/non-gnu/chinese-fonts-truetype/LICENSE.
-->
<svg id="z34980" class="acjk" version="1.1" viewBox="0 0 1024 1024" xmlns="http://www.w3.org/2000/svg" xmlns:xlink="http://www.w3.org/1999/xlink">
<style>
<![CDATA[
@keyframes z34980k {
	from {
		stroke:#ccc;
		stroke-dashoffset:3334;
	}
	1% {
		stroke:#c00;
		stroke-dashoffset:3334;
	}
	75% {
		stroke:#c00;
		stroke-dashoffset:0;
	}
	to {
		stroke:#000;
	}
}
#z34980 path[clip-path] {
	animation:z34980k 1s linear both;
	stroke-dasharray:3334;
	stroke-width:128;
	stroke-linecap:round;
	fill:none;
}
#z34980 path[clip-path="url(#z34980c1)"] {animation-delay:1s;}
#z34980 path[clip-path="url(#z34980c2)"] {animation-delay:2s;}
#z34980 path[clip-path="url(#z34980c3)"] {animation-delay:3s;}
#z34980 path[clip-path="url(#z34980c4)"] {animation-delay:4s;}
#z34980 path[clip-path="url(#z34980c5)"] {animation-delay:5s;}
#z34980 path[clip-path="url(#z34980c6)"] {animation-delay:6s;}
#z34980 path[clip-path="url(#z34980c7)"] {animation-delay:7s;}
#z34980 path[clip-path="url(#z34980c8)"] {animation-delay:8s;}
#z34980 path[clip-path="url(#z34980c9)"] {animation-delay:9s;}
#z34980 path[clip-path="url(#z34980c10)"] {animation-delay:10s;}
#z34980 path[clip-path="url(#z34980c11)"] {animation-delay:11s;}
#z34980 path {fill:#ccc;}
]]>
</style>
<path id="z34980d1" d="M467 89Q498 111 530 137Q543 147 557 145Q566 144 569 132Q572 119 562 94Q550 64 459 48Q446 47 440 49Q436 53 438 64Q442 74 467 89 Z"/>
<path id="z34980d2" d="M249 197Q222 198 242 216Q252 226 266 234Q279 243 300 237Q525 195 761 175Q771 176 780 165Q781 155 760 143Q729 119 653 142Q496 173 249 197 Z"/>
<path id="z34980d3" d="M533 399Q537 395 528 387Q527 386 525 386L473 394Q407 484 227 559Q211 566 224 571Q255 580 343 545Q398 517 437 487Q450 477 510 418L533 399 Z"/>
<path id="z34980d4" d="M336 729Q354 771 342 815Q338 843 325 858Q312 877 319 899Q329 930 344 942Q354 949 367 932Q397 898 494 818Q512 805 514 798Q515 785 496 795Q462 808 425 824Q403 837 393 832Q384 826 386 804Q390 753 393 740Q397 721 384 711Q377 704 371 701L336 729 Z"/>
<path id="z34980d5" d="M510 418Q529 433 537 459Q540 501 525 523Q516 542 493 539Q471 536 450 534Q441 533 445 540Q449 546 463 553Q494 575 504 592Q513 604 524 601Q534 600 551 579Q581 543 575 475Q572 442 564 425Q554 407 533 399L510 418 Z"/>
<path id="z34980d6" d="M562 682Q535 660 508 635Q484 613 461 607L450 632Q490 657 591 758Q714 875 753 878Q819 878 905 858Q939 851 935 842Q934 838 900 830Q717 794 638 738Q607 717 576 693L562 682 Z"/>
<path id="z34980d7" d="M533 334Q602 286 636 279Q652 275 647 260Q646 247 592 216Q576 207 558 213Q507 232 431 254Q412 261 363 259Q344 259 350 275Q357 285 372 295Q397 308 425 292Q540 244 556 251Q566 257 562 267Q543 292 521 322L533 334 Z"/>
<path id="z34980d8" d="M540 358Q541 354 542 350Q541 343 533 334L521 322Q493 306 452 310Q445 311 447 319Q447 326 454 330Q479 346 504 360Q507 361 508 363L540 358 Z"/>
<path id="z34980d9" d="M525 386Q661 359 698 366Q714 370 714 378Q714 381 686 437Q679 447 685 451Q691 455 704 446Q750 418 786 409Q817 402 816 394Q815 385 756 340Q735 322 634 343Q610 344 540 358L508 363Q442 370 356 387Q307 396 255 402Q227 403 245 419Q273 441 310 431Q398 403 473 394L525 386 Z"/>
<path id="z34980d10" d="M576 693Q577 692 579 692Q673 641 720 623Q739 620 735 608Q731 592 714 570Q696 549 674 544Q658 543 657 563Q657 584 562 682L576 693 Z"/>
<path id="z34980d11" d="M461 607Q457 585 429 567Q411 557 400 555Q391 555 391 567Q385 639 245 740Q242 740 240 743Q200 771 104 821Q95 824 104 829Q170 836 301 754Q307 747 336 729L371 701Q441 637 450 632L461 607 Z"/>
<defs>
	<clipPath id="z34980c1"><use xlink:href="#z34980d1"/></clipPath>
	<clipPath id="z34980c2"><use xlink:href="#z34980d2"/></clipPath>
	<clipPath id="z34980c3"><use xlink:href="#z34980d3"/></clipPath>
	<clipPath id="z34980c4"><use xlink:href="#z34980d4"/></clipPath>
	<clipPath id="z34980c5"><use xlink:href="#z34980d5"/></clipPath>
	<clipPath id="z34980c6"><use xlink:href="#z34980d6"/></clipPath>
	<clipPath id="z34980c7"><use xlink:href="#z34980d7"/></clipPath>
	<clipPath id="z34980c8"><use xlink:href="#z34980d8"/></clipPath>
	<clipPath id="z34980c9"><use xlink:href="#z34980d9"/></clipPath>
	<clipPath id="z34980c10"><use xlink:href="#z34980d10"/></clipPath>
	<clipPath id="z34980c11"><use xlink:href="#z34980d11"/></clipPath>
</defs>
<path pathLength="3333" clip-path="url(#z34980c1)" d="M444 53L532 101L557 141"/>
<path pathLength="3333" clip-path="url(#z34980c2)" d="M243 206L773 157"/>
<path pathLength="3333" clip-path="url(#z34980c3)" d="M526 396L345 523L224 564"/>
<path pathLength="3333" clip-path="url(#z34980c4)" d="M373 708L367 890L505 797"/>
<path pathLength="3333" clip-path="url(#z34980c5)" d="M521 420L553 451L541 546L516 569L451 541"/>
<path pathLength="3333" clip-path="url(#z34980c6)" d="M463 613L719 820L927 846"/>
<path pathLength="3333" clip-path="url(#z34980c7)" d="M358 270L414 277L573 234L603 270L529 328"/>
<path pathLength="3333" clip-path="url(#z34980c8)" d="M453 315L538 346"/>
<path pathLength="3333" clip-path="url(#z34980c9)" d="M249 411L709 349L748 369L761 411L690 446"/>
<path pathLength="3333" clip-path="url(#z34980c10)" d="M731 613L676 591L569 687"/>
<path pathLength="3333" clip-path="url(#z34980c11)" d="M400 563L419 608L353 683L215 781L110 824"/>
</svg>