<!--
AnimCJK 2016-2017 Copyright Francois Mizessyn, http://gooo.free.fr/animCJK/
Derived from:
    MakeMeAHanzi project - https://github.com/skishore/makemeahanzi
    Arphic PL KaitiM GB - https://apps.ubuntu.com/cat/applications/precise/fonts-arphic-gkai00mp/
    Arphic PL UKai - https://apps.ubuntu.com/cat/applications/fonts-arphic-ukai/
You can redistribute and/or modify this file under the terms of the Arphic Public License
as published by Arphic Technology Co., Ltd.
You should have received a copy of this license (the directory "APL") along with this file;
if not, see http://ftp.gnu.org/non-gnu/chinese-fonts-truetype/LICENSE.
-->
<svg id="z35033" class="acjk" version="1.1" viewBox="0 0 1024 1024" xmlns="http://www.w3.org/2000/svg" xmlns:xlink="http://www.w3.org/1999/xlink">
<style>
<![CDATA[
	@keyframes z35033k {
		from {
			stroke:#c00;
			stroke-dashoffset:3000;
		}
		75% {
			stroke:#c00;
			stroke-dashoffset:0;
		}
		to {
			stroke:#000;
		}
	}
	#z35033 path[clip-path] {
		animation:z35033k 1s linear both;
		stroke-dasharray:3000;
		stroke-width:128;
		stroke-linecap:round;
		fill:none;
	}
	#z35033 path[clip-path="url(#z35033c1)"] {animation-delay:1s;}
	#z35033 path[clip-path="url(#z35033c2)"] {animation-delay:2s;}
	#z35033 path[clip-path="url(#z35033c3)"] {animation-delay:3s;}
	#z35033 path[clip-path="url(#z35033c4)"] {animation-delay:4s;}
	#z35033 path[clip-path="url(#z35033c5)"] {animation-delay:5s;}
	#z35033 path[clip-path="url(#z35033c6)"] {animation-delay:6s;}
	#z35033 path[clip-path="url(#z35033c7)"] {animation-delay:7s;}
	#z35033 path[clip-path="url(#z35033c8)"] {animation-delay:8s;}
	#z35033 path[clip-path="url(#z35033c9)"] {animation-delay:9s;}
	#z35033 path[clip-path="url(#z35033c10)"] {animation-delay:10s;}
	#z35033 path[clip-path="url(#z35033c11)"] {animation-delay:11s;}
	#z35033 path[clip-path="url(#z35033c12)"] {animation-delay:12s;}
	#z35033 path {fill:#ccc;}
]]>
</style>
<g transform="scale(1,-1) translate(0,-900)">
	<path id="z35033d1" d="M280 774Q308 753 337 727Q353 715 369 717Q381 718 385 732Q389 748 377 779Q370 798 337 810Q261 831 248 823Q242 819 245 805Q249 795 280 774Z"/>
	<path id="z35033d2" d="M248 386Q339 533 377 563Q392 575 379 589Q360 604 330 612Q308 619 292 608Q211 548 81 541Q69 542 67 534Q64 524 79 515Q116 490 133 494Q146 497 258 545Q273 551 276 545Q282 536 271 514Q205 370 47 204Q34 192 36 188Q39 187 51 192Q135 237 225 354L248 386Z"/>
	<path id="z35033d3" d="M225 354Q255 324 235 165Q217 47 247 15Q263 0 274 25Q287 62 287 103Q286 272 290 310Q297 335 288 344Q261 377 248 386L225 354Z"/>
	<path id="z35033d4" d="M349 372Q392 420 418 440Q430 446 425 453Q403 483 370 481Q360 478 363 465Q369 453 334 379L349 372Z"/>
	<path id="z35033d5" d="M334 379Q316 389 304 386Q300 385 301 375Q301 372 375 298Q384 288 394 288Q401 288 406 297Q410 307 405 327Q399 355 349 372L334 379Z"/>
	<path id="z35033d6" d="M765 445Q772 494 782 528L795 570Q796 579 801 584Q817 621 837 642Q853 661 838 679Q757 739 706 704Q606 667 495 651Q479 650 482 640Q485 633 502 627Q523 620 551 626L590 636Q728 670 739 661Q755 646 752 614Q748 586 742 559L735 523Q725 480 715 440L765 445Z"/>
	<path id="z35033d7" d="M782 528Q837 534 905 536Q963 539 968 546Q972 556 958 568Q906 601 854 584Q827 578 795 570L742 559Q661 546 606 533L557 526Q493 516 422 504Q404 501 418 487Q431 475 446 472Q464 468 478 472Q512 484 553 492L601 502Q650 515 735 523L782 528Z"/>
	<path id="z35033d8" d="M573 372Q655 388 788 405Q798 406 800 416Q801 423 770 443Q767 444 765 445L715 440Q645 422 582 407L536 398Q502 394 470 387Q451 386 463 368Q470 359 480 356Q486 356 527 363L573 372Z"/>
	<path id="z35033d9" d="M529 249Q562 318 573 372L582 407Q591 450 601 502L606 533Q607 551 612 569Q618 585 620 596Q627 612 610 624Q600 631 590 636L551 626Q561 598 557 526L553 492Q546 453 536 398L527 363Q482 210 344 109Q329 97 324 92Q323 85 332 85Q384 82 493 195Q499 204 507 213L529 249Z"/>
	<path id="z35033d10" d="M544 245Q538 248 529 249L507 213Q528 156 539 70Q540 40 557 19Q573 -2 579 13Q585 28 583 54L579 88Q566 187 564 215L544 245Z"/>
	<path id="z35033d11" d="M794 120Q815 201 846 228Q862 246 847 263Q831 276 780 298Q762 305 742 296Q649 260 544 245L564 215Q568 218 727 250Q745 254 753 247Q763 238 761 218Q754 166 743 120L794 120Z"/>
	<path id="z35033d12" d="M583 54Q587 54 595 55Q664 70 811 82Q821 83 823 92Q824 99 794 120L743 120Q652 99 579 88L583 54Z"/>
	<defs>
		<clipPath id="z35033c1"><use xlink:href="#z35033d1"/></clipPath>
		<clipPath id="z35033c2"><use xlink:href="#z35033d2"/></clipPath>
		<clipPath id="z35033c3"><use xlink:href="#z35033d3"/></clipPath>
		<clipPath id="z35033c4"><use xlink:href="#z35033d4"/></clipPath>
		<clipPath id="z35033c5"><use xlink:href="#z35033d5"/></clipPath>
		<clipPath id="z35033c6"><use xlink:href="#z35033d6"/></clipPath>
		<clipPath id="z35033c7"><use xlink:href="#z35033d7"/></clipPath>
		<clipPath id="z35033c8"><use xlink:href="#z35033d8"/></clipPath>
		<clipPath id="z35033c9"><use xlink:href="#z35033d9"/></clipPath>
		<clipPath id="z35033c10"><use xlink:href="#z35033d10"/></clipPath>
		<clipPath id="z35033c11"><use xlink:href="#z35033d11"/></clipPath>
		<clipPath id="z35033c12"><use xlink:href="#z35033d12"/></clipPath>
	</defs>
	<path pathLength="2999" clip-path="url(#z35033c1)" d="M252 815L382 731"/>
	<path pathLength="2999" clip-path="url(#z35033c2)" d="M72 531L140 522L291 580L334 555L179 328L43 194"/>
	<path pathLength="2999" clip-path="url(#z35033c3)" d="M247 377L266 324L258 15"/>
	<path pathLength="2999" clip-path="url(#z35033c4)" d="M371 476L391 440L343 379"/>
	<path pathLength="2999" clip-path="url(#z35033c5)" d="M308 381L396 294"/>
	<path pathLength="2999" clip-path="url(#z35033c6)" d="M488 644L726 689L782 671L797 646L743 455L724 445"/>
	<path pathLength="2999" clip-path="url(#z35033c7)" d="M419 496L870 562L963 558"/>
	<path pathLength="2999" clip-path="url(#z35033c8)" d="M467 375L792 419"/>
	<path pathLength="2999" clip-path="url(#z35033c9)" d="M558 620L589 586L523 290L426 155L328 92"/>
	<path pathLength="2999" clip-path="url(#z35033c10)" d="M531 243L566 12"/>
	<path pathLength="2999" clip-path="url(#z35033c11)" d="M553 242L779 266L807 241L761 121"/>
	<path pathLength="2999" clip-path="url(#z35033c12)" d="M588 62L743 98L816 93"/>
</g>
</svg>