<!--
AnimCJK 2016-2019 Copyright Francois Mizessyn - https://github.com/parsimonhi/animCJK
Derived from:
    MakeMeAHanzi project - https://github.com/skishore/makemeahanzi
    Arphic PL KaitiM GB font
    Arphic PL UKai font
You can redistribute and/or modify this file under the terms of the Arphic Public License
as published by Arphic Technology Co., Ltd.
You should have received a copy of this license along with this file.
If not, see http://ftp.gnu.org/non-gnu/chinese-fonts-truetype/LICENSE.
-->
<svg id="z35265" class="acjk" version="1.1" viewBox="0 0 1024 1024" xmlns="http://www.w3.org/2000/svg" xmlns:xlink="http://www.w3.org/1999/xlink">
<style>
<![CDATA[
@keyframes zk {
	to {
		stroke-dashoffset:0;
	}
}
svg.acjk path[clip-path] {
	--t:0.8s;
	animation:zk var(--t) linear forwards var(--d);
	stroke-dasharray:3337;
	stroke-dashoffset:3339;
	stroke-width:128;
	stroke-linecap:round;
	fill:none;
	stroke:#000;
}
svg.acjk path[id] {fill:#ccc;}
]]>
</style>
<path id="z35265d1" d="M354 167Q333 151 309 144Q299 143 292 151Q288 158 297 169Q336 277 305 458Q287 518 292 540Q302 577 315 591Q328 606 338 591Q366 552 368 420Q368 255 378 199C381 186 365 175 354 167Z"/>
<path id="z35265d2" d="M631 508Q624 533 637 556Q652 587 662 586Q677 585 694 550Q709 522 708 500Q696 407 698 264Q698 222 721 187Q731 169 724 159Q694 134 643 111Q627 105 601 114Q487 162 354 167C341 167 365 199 378 199Q382 199 388 198Q599 153 622 167Q634 192 639 261Q642 469 631 508Z"/>
<path id="z35265d3" d="M461 345Q451 645 345 768Q327 786 305 805Q260 844 163 893Q150 897 146 902Q142 908 157 910Q247 916 380 804Q396 786 412 767Q493 655 509 449Q518 359 535 316Q541 306 532 297Q514 279 478 263Q457 253 440 257Q419 264 435 283Q462 314 461 345Z"/>
<path id="z35265d4" d="M969 840Q947 779 932 675Q929 659 922 654Q913 650 910 670Q903 802 885 827Q855 861 717 866Q644 865 611 853Q583 838 577 820Q567 792 570 720Q577 641 593 605Q606 574 587 556Q535 516 519 519Q503 525 510 543Q531 583 525 641Q516 819 540 855Q565 898 658 912Q722 921 824 916Q915 912 951 891Q984 873 969 840Z"/>
<defs>
	<clipPath id="z35265c1"><use xlink:href="#z35265d1"/></clipPath>
	<clipPath id="z35265c2"><use xlink:href="#z35265d2"/></clipPath>
	<clipPath id="z35265c3"><use xlink:href="#z35265d3"/></clipPath>
	<clipPath id="z35265c4"><use xlink:href="#z35265d4"/></clipPath>
</defs>
<path style="--d:1s;" pathLength="3333" clip-path="url(#z35265c1)" d="M299 155L344 212L326 593"/>
<path style="--d:2s;" pathLength="3333" clip-path="url(#z35265c2)" d="M365 171L622 137L678 178L665 582"/>
<path style="--d:3s;" pathLength="3333" clip-path="url(#z35265c3)" d="M434 272L498 319L469 544L426 687L341 805L156 905"/>
<path style="--d:4s;" pathLength="3333" clip-path="url(#z35265c4)" d="M516 529L562 595L554 829L608 877L760 891L920 857L921 659"/>
</svg>