<!--
AnimCJK 2016-2018 Copyright Francois Mizessyn - https://github.com/parsimonhi/animCJK
Derived from:
    MakeMeAHanzi project - https://github.com/skishore/makemeahanzi
    Arphic PL KaitiM GB - https://apps.ubuntu.com/cat/applications/precise/fonts-arphic-gkai00mp/
    Arphic PL UKai - https://apps.ubuntu.com/cat/applications/fonts-arphic-ukai/
You can redistribute and/or modify this file under the terms of the Arphic Public License
as published by Arphic Technology Co., Ltd.
You should have received a copy of this license (the directory "APL") along with this file;
if not, see http://ftp.gnu.org/non-gnu/chinese-fonts-truetype/LICENSE.
-->
<svg id="z35269" class="acjk" version="1.1" viewBox="0 0 1024 1024" xmlns="http://www.w3.org/2000/svg" xmlns:xlink="http://www.w3.org/1999/xlink">
<style>
<![CDATA[
@keyframes z35269k {
	from {
		stroke:#ccc;
		stroke-dashoffset:3334;
	}
	1% {
		stroke:#c00;
		stroke-dashoffset:3334;
	}
	75% {
		stroke:#c00;
		stroke-dashoffset:0;
	}
	to {
		stroke:#000;
	}
}
#z35269 path[clip-path] {
	animation:z35269k 1s linear both;
	stroke-dasharray:3334;
	stroke-width:128;
	stroke-linecap:round;
	fill:none;
}
#z35269 path[clip-path="url(#z35269c1)"] {animation-delay:1s;}
#z35269 path[clip-path="url(#z35269c2)"] {animation-delay:2s;}
#z35269 path[clip-path="url(#z35269c3)"] {animation-delay:3s;}
#z35269 path[clip-path="url(#z35269c4)"] {animation-delay:4s;}
#z35269 path[clip-path="url(#z35269c5)"] {animation-delay:5s;}
#z35269 path[clip-path="url(#z35269c6)"] {animation-delay:6s;}
#z35269 path[clip-path="url(#z35269c7)"] {animation-delay:7s;}
#z35269 path[clip-path="url(#z35269c8)"] {animation-delay:8s;}
#z35269 path {fill:#ccc;}
]]>
</style>
<path id="z35269d1" d="M514 72Q454 114 330 160Q324 169 329 172Q366 181 517 132Q538 117 613 109Q629 109 635 102Q639 92 628 80Q609 62 566 42Q551 33 538 34Q531 37 529 48Q528 63 514 72 Z"/>
<path id="z35269d2" d="M288 241Q313 266 342 298Q352 310 367 310Q376 310 381 299Q385 287 380 261Q373 228 287 200Q274 196 268 197Q264 201 264 212Q265 222 288 241 Z"/>
<path id="z35269d3" d="M436 201Q476 268 499 272Q511 275 518 260Q521 250 515 230Q500 197 443 178Q436 175 433 185Q432 192 436 201 Z"/>
<path id="z35269d4" d="M686 161Q674 176 600 247Q588 262 605 260Q618 254 720 208Q739 195 763 189Q785 182 777 164Q767 146 744 130Q723 114 711 115Q699 115 701 128Q702 146 686 161 Z"/>
<path id="z35269d5" d="M341 356Q322 341 300 336Q291 335 285 343Q282 349 290 359Q320 441 297 575Q284 588 292 628Q302 659 313 672Q323 685 333 672Q357 647 357 498Q357 411 362 385L341 356 Z"/>
<path id="z35269d6" d="M605 608Q598 630 611 653Q624 683 634 682Q649 681 665 648Q680 621 678 601Q659 418 690 369Q700 353 693 343Q665 318 615 297Q599 293 575 301Q461 352 341 356L362 385Q375 386 484 361Q575 337 597 350Q606 369 609 422Q613 578 605 608 Z"/>
<path id="z35269d7" d="M442 484Q430 733 305 820Q265 851 178 888Q165 892 162 895Q158 899 172 903Q247 910 359 834Q380 818 397 797Q457 724 489 537Q495 492 510 461Q514 451 508 443Q492 427 460 411Q441 401 426 405Q407 411 420 428Q444 456 442 484 Z"/>
<path id="z35269d8" d="M939 862Q920 804 907 707Q906 691 897 686Q890 682 886 702Q876 825 859 847Q829 883 693 884Q620 883 589 870Q562 857 556 837Q549 815 552 760Q559 699 572 670Q585 640 566 623Q515 584 500 588Q485 594 492 611Q511 648 507 704Q500 836 521 872Q549 914 635 928Q698 938 797 933Q887 929 922 910Q953 894 939 862 Z"/>
<defs>
	<clipPath id="z35269c1"><use xlink:href="#z35269d1"/></clipPath>
	<clipPath id="z35269c2"><use xlink:href="#z35269d2"/></clipPath>
	<clipPath id="z35269c3"><use xlink:href="#z35269d3"/></clipPath>
	<clipPath id="z35269c4"><use xlink:href="#z35269d4"/></clipPath>
	<clipPath id="z35269c5"><use xlink:href="#z35269d5"/></clipPath>
	<clipPath id="z35269c6"><use xlink:href="#z35269d6"/></clipPath>
	<clipPath id="z35269c7"><use xlink:href="#z35269d7"/></clipPath>
	<clipPath id="z35269c8"><use xlink:href="#z35269d8"/></clipPath>
</defs>
<path pathLength="3333" clip-path="url(#z35269c1)" d="M631 97L541 78L482 119L334 165"/>
<path pathLength="3333" clip-path="url(#z35269c2)" d="M271 202L338 252L369 305"/>
<path pathLength="3333" clip-path="url(#z35269c3)" d="M440 187L513 260"/>
<path pathLength="3333" clip-path="url(#z35269c4)" d="M710 124L733 168L604 251"/>
<path pathLength="3333" clip-path="url(#z35269c5)" d="M290 344L330 390L321 669"/>
<path pathLength="3333" clip-path="url(#z35269c6)" d="M350 358L394 366L586 321L641 349L630 677"/>
<path pathLength="3333" clip-path="url(#z35269c7)" d="M421 412L476 466L418 715L325 831L172 896"/>
<path pathLength="3333" clip-path="url(#z35269c8)" d="M497 597L541 647L539 856L621 902L782 906L890 878L895 692"/>
</svg>