<!--
AnimCJK 2016-2019 Copyright Francois Mizessyn - https://github.com/parsimonhi/animCJK
Derived from:
    MakeMeAHanzi project - https://github.com/skishore/makemeahanzi
    Arphic PL KaitiM GB font
    Arphic PL UKai font
You can redistribute and/or modify this file under the terms of the Arphic Public License
as published by Arphic Technology Co., Ltd.
You should have received a copy of this license along with this file.
If not, see http://ftp.gnu.org/non-gnu/chinese-fonts-truetype/LICENSE.
-->
<svg id="z35280" class="acjk" version="1.1" viewBox="0 0 1024 1024" xmlns="http://www.w3.org/2000/svg" xmlns:xlink="http://www.w3.org/1999/xlink">
<style>
<![CDATA[
@keyframes zk {
	to {
		stroke-dashoffset:0;
	}
}
svg.acjk path[clip-path] {
	--t:0.8s;
	animation:zk var(--t) linear forwards var(--d);
	stroke-dasharray:3337;
	stroke-dashoffset:3339;
	stroke-width:128;
	stroke-linecap:round;
	fill:none;
	stroke:#000;
}
svg.acjk path[id] {fill:#ccc;}
]]>
</style>
<path id="z35280d1" d="M419 237Q455 230 488 226Q498 227 505 216Q506 206 486 196Q464 180 432 187Q431 187 431 188C394 198 394 198 376 203Q343 210 281 226C252 232 252 232 237 235Q144 247 103 254Q78 258 98 273Q128 294 164 286Q201 277 244 269C270 264 270 264 283 261Q323 251 371 244C403 239 403 239 419 237Z"/>
<path id="z35280d2" d="M281 226Q281 223 281 221Q280 191 281 178Q285 162 274 154Q261 145 237 139Q219 135 203 145Q196 152 208 163Q226 181 237 235C242 258 242 258 244 269Q263 368 270 380Q276 389 282 382Q288 376 288 357C288 336 288 336 288 325Q288 319 283 261C282 238 282 238 281 226Z"/>
<path id="z35280d3" d="M399 313Q409 273 419 237C427 204 427 204 431 188Q431 178 453 126Q457 117 443 103Q416 82 397 76Q384 72 376 77Q369 81 373 96Q385 117 383 130Q380 164 376 203C373 230 373 230 371 244Q367 272 362 305C360 317 397 325 399 313Z"/>
<path id="z35280d4" d="M319 350Q350 343 407 339Q416 338 417 330Q417 323 399 313C388 307 374 303 362 305Q355 306 349 308Q315 318 288 325C252 332 283 357 319 350Z"/>
<path id="z35280d5" d="M201 437Q191 433 162 429Q152 426 148 431Q144 437 151 451Q173 487 189 548Q193 567 205 578Q221 597 226 583Q227 576 228 564C225 543 225 543 224 532Q215 483 214 465C214 455 211 441 201 437Z"/>
<path id="z35280d6" d="M463 497Q484 455 505 445Q520 429 507 414Q494 404 450 381Q435 374 359 403C324 412 324 412 307 417Q255 427 201 437C191 439 204 467 214 465Q223 464 234 460Q270 451 308 445C341 438 341 438 357 434Q376 430 398 425Q419 419 427 428Q431 432 431 444Q427 466 420 488C415 502 456 510 463 497Z"/>
<path id="z35280d7" d="M353 541Q402 532 469 525Q479 524 480 515Q480 508 463 497C450 489 435 488 420 488Q408 488 354 504C323 512 323 512 308 516Q263 525 224 532C213 534 217 564 228 564Q232 564 240 563Q267 556 308 549C338 544 338 544 353 541Z"/>
<path id="z35280d8" d="M349 633Q386 624 423 619Q445 615 437 603Q427 590 403 586Q382 583 351 592C322 600 322 600 307 604Q243 620 187 636Q171 640 190 653Q202 660 226 657Q268 648 306 642C335 636 335 636 349 633Z"/>
<path id="z35280d9" d="M346 708Q380 701 412 695Q434 691 425 679Q415 666 391 662Q373 659 348 666C319 675 319 675 305 679Q241 697 186 712Q170 716 190 729Q202 736 224 732Q264 723 304 716C332 711 332 711 346 708Z"/>
<path id="z35280d10" d="M345 754Q345 730 346 708C347 680 347 680 348 666Q348 650 349 633C350 606 350 606 351 592Q351 565 353 541C354 516 354 516 354 504Q355 470 357 439Q357 436 357 434C357 424 355 413 359 403Q365 387 357 379Q338 360 319 350C310 345 284 347 288 357Q288 360 302 386Q306 398 307 417C308 436 308 436 308 445Q308 464 308 516C308 538 308 538 308 549Q307 573 307 604C306 629 306 629 306 642Q305 658 305 679C304 704 304 704 304 716Q304 738 304 763C304 777 345 768 345 754Z"/>
<path id="z35280d11" d="M304 763Q237 776 162 794Q141 798 110 796Q97 797 93 807Q90 820 99 830Q121 848 155 869Q165 873 178 865Q212 843 402 771Q429 761 448 749Q461 742 463 732Q457 726 445 728Q397 740 345 754C318 760 318 760 304 763Z"/>
<path id="z35280d12" d="M570 184Q551 168 525 160Q518 159 511 166Q508 170 515 181Q558 277 525 474Q510 531 514 549Q523 580 533 592Q543 605 553 592Q577 562 578 401Q578 247 583 211C585 201 578 190 570 184Z"/>
<path id="z35280d13" d="M736 528Q729 552 742 574Q757 602 766 602Q781 601 796 567Q811 542 809 520Q796 426 796 280Q796 237 819 201Q829 185 821 175Q793 153 746 134Q731 128 650 163Q617 173 570 184C560 186 573 213 583 211Q592 211 657 193Q712 175 726 183Q738 208 743 278Q747 488 736 528Z"/>
<path id="z35280d14" d="M630 332Q643 609 557 734Q493 806 415 857Q405 863 401 866Q397 872 412 873Q425 873 474 850Q508 835 558 794Q679 692 681 415Q681 352 694 301Q698 291 690 283Q674 270 639 257Q620 250 604 255Q586 262 602 278Q629 303 630 332Z"/>
<path id="z35280d15" d="M980 826Q965 792 948 686Q948 670 941 666Q935 663 931 680Q910 792 892 827Q876 849 804 847Q779 844 757 835Q724 816 724 756Q725 699 739 625Q743 609 733 598Q720 586 699 577Q686 573 679 578Q672 582 677 598Q689 635 686 671Q679 797 689 832Q693 851 710 868Q780 925 909 897Q910 896 914 896Q945 887 975 866Q993 851 980 826Z"/>
<defs>
	<clipPath id="z35280c1"><use xlink:href="#z35280d1"/></clipPath>
	<clipPath id="z35280c2"><use xlink:href="#z35280d2"/></clipPath>
	<clipPath id="z35280c3"><use xlink:href="#z35280d3"/></clipPath>
	<clipPath id="z35280c4"><use xlink:href="#z35280d4"/></clipPath>
	<clipPath id="z35280c5"><use xlink:href="#z35280d5"/></clipPath>
	<clipPath id="z35280c6"><use xlink:href="#z35280d6"/></clipPath>
	<clipPath id="z35280c7"><use xlink:href="#z35280d7"/></clipPath>
	<clipPath id="z35280c8"><use xlink:href="#z35280d8"/></clipPath>
	<clipPath id="z35280c9"><use xlink:href="#z35280d9"/></clipPath>
	<clipPath id="z35280c10"><use xlink:href="#z35280d10"/></clipPath>
	<clipPath id="z35280c11"><use xlink:href="#z35280d11"/></clipPath>
	<clipPath id="z35280c12"><use xlink:href="#z35280d12"/></clipPath>
	<clipPath id="z35280c13"><use xlink:href="#z35280d13"/></clipPath>
	<clipPath id="z35280c14"><use xlink:href="#z35280d14"/></clipPath>
	<clipPath id="z35280c15"><use xlink:href="#z35280d15"/></clipPath>
</defs>
<path style="--d:1s;" pathLength="3333" clip-path="url(#z35280c1)" d="M97 262L499 209"/>
<path style="--d:2s;" pathLength="3333" clip-path="url(#z35280c2)" d="M209 151L252 175L278 377"/>
<path style="--d:3s;" pathLength="3333" clip-path="url(#z35280c3)" d="M380 81L418 130L376 308"/>
<path style="--d:4s;" pathLength="3333" clip-path="url(#z35280c4)" d="M293 348L411 329"/>
<path style="--d:5s;" pathLength="3333" clip-path="url(#z35280c5)" d="M155 438L185 463L218 581"/>
<path style="--d:6s;" pathLength="3333" clip-path="url(#z35280c6)" d="M211 441L433 402L471 429L439 491"/>
<path style="--d:7s;" pathLength="3333" clip-path="url(#z35280c7)" d="M236 556L393 513L471 513"/>
<path style="--d:8s;" pathLength="3333" clip-path="url(#z35280c8)" d="M188 644L432 605"/>
<path style="--d:9s;" pathLength="3333" clip-path="url(#z35280c9)" d="M188 719L421 679"/>
<path style="--d:10s;" pathLength="3333" clip-path="url(#z35280c10)" d="M295 360L333 403L317 759"/>
<path style="--d:11s;" pathLength="3333" clip-path="url(#z35280c11)" d="M97 812L164 832L456 736"/>
<path style="--d:12s;" pathLength="3333" clip-path="url(#z35280c12)" d="M518 171L557 229L539 590"/>
<path style="--d:13s;" pathLength="3333" clip-path="url(#z35280c13)" d="M577 186L733 157L779 197L759 595"/>
<path style="--d:14s;" pathLength="3333" clip-path="url(#z35280c14)" d="M605 266L660 306L629 631L566 756L408 866"/>
<path style="--d:15s;" pathLength="3333" clip-path="url(#z35280c15)" d="M682 581L712 623L709 816L752 863L852 875L929 850L938 673"/>
</svg>