<!--
AnimCJK 2016-2018 Copyright Francois Mizessyn, http://gooo.free.fr/animCJK/
Derived from:
    MakeMeAHanzi project - https://github.com/skishore/makemeahanzi
    Arphic PL KaitiM GB - https://apps.ubuntu.com/cat/applications/precise/fonts-arphic-gkai00mp/
    Arphic PL UKai - https://apps.ubuntu.com/cat/applications/fonts-arphic-ukai/
You can redistribute and/or modify this file under the terms of the Arphic Public License
as published by Arphic Technology Co., Ltd.
You should have received a copy of this license (the directory "APL") along with this file;
if not, see http://ftp.gnu.org/non-gnu/chinese-fonts-truetype/LICENSE.
-->
<svg id="z35311" class="acjk" version="1.1" viewBox="0 0 1024 1024" xmlns="http://www.w3.org/2000/svg" xmlns:xlink="http://www.w3.org/1999/xlink">
<style>
<![CDATA[
@keyframes z35311k {
	from {
		stroke:#ccc;
		stroke-dashoffset:3334;
	}
	1% {
		stroke:#c00;
		stroke-dashoffset:3334;
	}
	75% {
		stroke:#c00;
		stroke-dashoffset:0;
	}
	to {
		stroke:#000;
	}
}
#z35311 path[clip-path] {
	animation:z35311k 1s linear both;
	stroke-dasharray:3334;
	stroke-width:128;
	stroke-linecap:round;
	fill:none;
}
#z35311 path[clip-path="url(#z35311c1)"] {animation-delay:1s;}
#z35311 path[clip-path="url(#z35311c2)"] {animation-delay:2s;}
#z35311 path[clip-path="url(#z35311c3)"] {animation-delay:3s;}
#z35311 path[clip-path="url(#z35311c4)"] {animation-delay:4s;}
#z35311 path[clip-path="url(#z35311c5)"] {animation-delay:5s;}
#z35311 path[clip-path="url(#z35311c6)"] {animation-delay:6s;}
#z35311 path[clip-path="url(#z35311c7)"] {animation-delay:7s;}
#z35311 path[clip-path="url(#z35311c8)"] {animation-delay:8s;}
#z35311 path[clip-path="url(#z35311c9)"] {animation-delay:9s;}
#z35311 path[clip-path="url(#z35311c10)"] {animation-delay:10s;}
#z35311 path[clip-path="url(#z35311c11)"] {animation-delay:11s;}
#z35311 path[clip-path="url(#z35311c12)"] {animation-delay:12s;}
#z35311 path[clip-path="url(#z35311c13)"] {animation-delay:13s;}
#z35311 path[clip-path="url(#z35311c14)"] {animation-delay:14s;}
#z35311 path[clip-path="url(#z35311c15)"] {animation-delay:15s;}
#z35311 path {fill:#ccc;}
]]>
</style>
<path id="z35311d1" d="M 292,215 C 327,177 346,151 357,143 363,138 364,131 363,123 361,116 355,104 340,91 326,79 314,73 304,73 293,72 288,79 293,91 300,111 282,152 236,215 214,244 189,273 160,303 154,308 149,311 148,316 145,321 148,325 156,324 178,320 219,291 274,234 Z"/>
<path id="z35311d2" d="M 335,356 C 395,284 435,240 456,227 465,220 467,213 460,206 452,199 437,189 415,178 404,172 376,186 318,208 309,211 300,213 292,215 L 274,234 C 284,240 313,236 362,225 366,223 370,223 372,225 374,227 373,232 371,238 350,286 332,321 319,344 314,350 312,356 310,362 Z"/>
<path id="z35311d3" d="M 191,385 C 170,370 152,364 140,371 132,374 133,380 137,388 146,404 153,437 155,468 159,600 133,721 76,830 73,834 71,837 71,840 70,846 72,848 78,847 99,840 128,802 160,729 161,724 163,720 165,715 190,643 202,556 204,454 204,452 205,439 208,417 Z"/>
<path id="z35311d4" d="M 313,389 C 331,383 352,380 376,375 388,372 396,373 403,379 408,384 414,400 417,430 425,532 426,642 422,759 421,775 419,787 412,792 405,796 386,792 354,781 345,778 340,779 341,785 341,789 345,792 351,797 379,822 398,847 414,866 423,877 433,881 440,881 446,880 453,872 460,856 469,832 476,802 475,768 465,543 460,419 472,396 477,385 478,376 473,369 467,361 451,351 426,339 416,334 405,332 395,336 395,336 355,351 335,356 L 310,362 C 289,367 229,379 191,385 L 208,417 C 224,411 244,407 269,401 Z"/>
<path id="z35311d5" d="M 322,523 C 342,519 362,514 381,512 393,510 398,505 393,498 387,489 377,484 363,483 352,481 338,483 323,488 L 282,500 C 262,505 243,512 226,518 216,520 216,525 229,533 229,533 247,535 281,530 Z"/>
<path id="z35311d6" d="M 319,644 C 341,639 363,634 384,631 398,628 403,623 397,615 390,606 379,600 363,599 351,597 336,599 319,605 L 279,618 C 255,625 233,632 214,639 203,642 204,648 218,657 221,659 242,659 278,652 Z"/>
<path id="z35311d7" d="M 319,605 C 319,582 321,555 322,523 L 323,488 C 323,482 324,457 331,415 332,406 330,400 323,395 320,392 317,390 313,389 L 269,401 C 277,409 283,442 282,500 L 281,530 C 280,556 279,586 279,618 L 278,652 C 275,754 280,811 288,822 290,825 294,826 298,825 304,822 310,804 314,775 317,747 319,703 319,644 Z"/>
<path id="z35311d8" d="M 565,203 C 576,215 586,230 598,247 604,255 612,260 622,261 628,261 633,258 637,251 641,243 641,230 639,212 637,202 630,191 615,183 579,162 556,153 548,157 544,158 543,163 543,171 543,177 551,187 565,203 Z"/>
<path id="z35311d9" d="M 756,146 C 747,165 726,204 696,263 690,273 697,280 705,273 786,195 827,151 834,147 846,138 848,129 839,121 829,112 815,104 798,99 783,94 771,93 764,96 757,98 756,103 759,111 763,121 761,133 756,146 Z"/>
<path id="z35311d10" d="M 538,336 C 531,333 520,331 507,328 498,326 495,326 493,329 489,333 489,339 494,349 513,393 529,456 538,523 540,544 546,562 558,577 568,590 574,593 578,583 580,575 583,565 582,554 L 579,531 C 576,507 560,404 555,364 Z"/>
<path id="z35311d11" d="M 753,535 C 763,551 774,560 785,566 792,569 800,567 809,554 818,538 830,487 848,404 852,385 862,368 877,353 884,344 885,337 878,329 869,318 851,304 825,290 813,283 788,288 749,297 679,311 608,322 538,336 L 555,364 C 555,364 609,353 636,348 L 683,339 C 703,335 727,330 754,327 772,324 783,326 789,333 796,341 800,351 799,361 784,449 773,498 765,507 Z"/>
<path id="z35311d12" d="M 703,440 C 721,437 740,434 760,432 772,430 777,425 773,418 767,409 757,404 743,402 733,400 720,400 706,404 L 659,417 C 633,424 608,428 586,434 577,436 578,440 589,449 594,453 602,455 615,453 629,450 644,449 659,447 Z"/>
<path id="z35311d13" d="M 701,541 C 719,538 736,536 753,535 L 765,507 C 753,498 731,496 702,503 L 659,513 C 631,519 603,525 579,531 L 582,554 C 586,554 593,555 602,554 620,551 639,549 659,547 Z"/>
<path id="z35311d14" d="M 702,658 C 731,654 800,653 908,653 920,652 928,650 931,645 934,638 930,629 920,621 884,593 846,589 807,599 778,605 743,611 702,617 L 659,623 C 608,630 555,636 500,643 487,644 484,650 494,661 502,670 512,675 524,679 536,682 548,683 559,680 589,671 622,667 658,663 Z"/>
<path id="z35311d15" d="M 661,904 C 662,918 667,928 671,934 673,937 677,939 682,937 686,935 690,929 693,921 699,899 703,831 703,719 703,703 702,682 702,658 L 702,617 C 702,594 700,569 701,541 L 702,503 C 702,486 702,443 703,440 L 706,404 C 707,391 710,381 712,373 713,363 709,355 702,350 695,346 689,342 683,339 L 636,348 C 639,354 642,360 646,366 653,380 659,397 659,417 L 659,447 C 659,469 659,491 659,513 L 659,547 C 659,572 659,597 659,623 L 658,663 C 655,765 654,846 661,904 Z"/>
<defs>
	<clipPath id="z35311c1"><use xlink:href="#z35311d1"/></clipPath>
	<clipPath id="z35311c2"><use xlink:href="#z35311d2"/></clipPath>
	<clipPath id="z35311c3"><use xlink:href="#z35311d3"/></clipPath>
	<clipPath id="z35311c4"><use xlink:href="#z35311d4"/></clipPath>
	<clipPath id="z35311c5"><use xlink:href="#z35311d5"/></clipPath>
	<clipPath id="z35311c6"><use xlink:href="#z35311d6"/></clipPath>
	<clipPath id="z35311c7"><use xlink:href="#z35311d7"/></clipPath>
	<clipPath id="z35311c8"><use xlink:href="#z35311d8"/></clipPath>
	<clipPath id="z35311c9"><use xlink:href="#z35311d9"/></clipPath>
	<clipPath id="z35311c10"><use xlink:href="#z35311d10"/></clipPath>
	<clipPath id="z35311c11"><use xlink:href="#z35311d11"/></clipPath>
	<clipPath id="z35311c12"><use xlink:href="#z35311d12"/></clipPath>
	<clipPath id="z35311c13"><use xlink:href="#z35311d13"/></clipPath>
	<clipPath id="z35311c14"><use xlink:href="#z35311d14"/></clipPath>
	<clipPath id="z35311c15"><use xlink:href="#z35311d15"/></clipPath>
</defs>
<path pathLength="3333" clip-path="url(#z35311c1)" d="M301 77L325 131L154 317"/>
<path pathLength="3333" clip-path="url(#z35311c2)" d="M285 227L374 205L418 223L318 357"/>
<path pathLength="3333" clip-path="url(#z35311c3)" d="M143 376L178 421L168 616L132 746L77 838"/>
<path pathLength="3333" clip-path="url(#z35311c4)" d="M201 390L398 354L443 385L444 796L423 837L345 787"/>
<path pathLength="3333" clip-path="url(#z35311c5)" d="M228 523L388 503"/>
<path pathLength="3333" clip-path="url(#z35311c6)" d="M215 648L392 616"/>
<path pathLength="3333" clip-path="url(#z35311c7)" d="M276 402L305 425L294 817"/>
<path pathLength="3333" clip-path="url(#z35311c8)" d="M551 165L610 215L622 257"/>
<path pathLength="3333" clip-path="url(#z35311c9)" d="M765 99L801 138L701 265"/>
<path pathLength="3333" clip-path="url(#z35311c10)" d="M498 332L530 373L567 582"/>
<path pathLength="3333" clip-path="url(#z35311c11)" d="M548 340L775 308L821 322L840 347L773 556"/>
<path pathLength="3333" clip-path="url(#z35311c12)" d="M590 442L770 420"/>
<path pathLength="3333" clip-path="url(#z35311c13)" d="M589 547L760 515"/>
<path pathLength="3333" clip-path="url(#z35311c14)" d="M497 651L828 624L927 637"/>
<path pathLength="3333" clip-path="url(#z35311c15)" d="M641 350L684 383L678 932"/>
</svg>