<!--
AnimCJK 2016-2019 Copyright Francois Mizessyn - https://github.com/parsimonhi/animCJK
Derived from:
    MakeMeAHanzi project - https://github.com/skishore/makemeahanzi
    Arphic PL KaitiM GB font
    Arphic PL UKai font
You can redistribute and/or modify this file under the terms of the Arphic Public License
as published by Arphic Technology Co., Ltd.
You should have received a copy of this license along with this file.
If not, see http://ftp.gnu.org/non-gnu/chinese-fonts-truetype/LICENSE.
-->
<svg id="z35332" class="acjk" version="1.1" viewBox="0 0 1024 1024" xmlns="http://www.w3.org/2000/svg" xmlns:xlink="http://www.w3.org/1999/xlink">
<style>
<![CDATA[
@keyframes zk {
	to {
		stroke-dashoffset:0;
	}
}
svg.acjk path[clip-path] {
	--t:0.8s;
	animation:zk var(--t) linear forwards var(--d);
	stroke-dasharray:3337;
	stroke-dashoffset:3339;
	stroke-width:128;
	stroke-linecap:round;
	fill:none;
	stroke:#000;
}
svg.acjk path[id] {fill:#ccc;}
]]>
</style>
<path id="z35332d1" d="M303 414C300 441 269 579 244 643C225 695 212 723 189 758C138 838 95 881 69 881C61 881 59 880 61 876C61 875 69 866 77 856C99 829 119 797 143 750C174 687 198 623 219 544C228 510 242 450 244 438C249 403 249 403 251 386C252 377 261 305 264 260C267 206 267 195 265 184C261 171 255 160 244 145C238 138 234 131 234 129C232 120 240 114 257 114C281 112 309 126 336 152C345 161 346 162 346 167C346 169 344 176 342 182C333 208 324 249 315 316C311 340 310 348 308 367C305 398 305 398 303 414Z"/>
<path id="z35332d2" d="M620 943C590 941 556 935 527 928C477 916 433 893 407 865C374 830 355 780 349 713C347 692 347 639 348 614C353 556 362 492 377 427C383 401 382 391 374 391C367 391 323 405 303 414C264 430 264 430 244 438C223 446 204 454 176 466C151 478 135 481 117 476C104 473 81 460 74 452C70 447 68 440 70 436C72 432 77 430 100 428C129 424 151 419 178 411C207 402 235 391 251 386C289 373 289 373 308 367C317 363 333 357 345 351C359 344 374 334 386 326C399 316 406 313 413 314C424 315 481 342 491 350C495 354 496 355 496 360C496 367 492 373 479 387C464 402 458 411 449 430C434 461 411 541 401 598C394 639 392 680 394 711C397 742 402 759 413 779C436 821 469 842 539 860C594 875 650 876 728 865C784 857 822 846 845 831C855 825 868 812 873 803C882 788 886 777 894 740C911 665 913 658 918 658C924 658 926 666 930 693C935 739 946 786 957 821C960 832 963 843 963 846C963 857 958 863 937 876C860 923 773 945 664 944C647 944 627 944 620 943Z"/>
<path id="z35332d3" d="M693 215C683 212 677 208 662 194C655 187 638 172 624 160C589 130 585 125 585 113C585 101 592 100 618 105C637 109 674 120 683 125C693 130 705 139 710 145C714 152 717 158 720 172C727 205 717 221 693 215Z"/>
<path id="z35332d4" d="M532 350C521 348 510 342 503 335C496 328 495 324 498 321C500 318 499 319 570 303C645 286 790 251 814 244C829 240 848 238 863 240C890 243 925 260 933 272C938 280 936 285 930 289C923 294 910 295 888 296C759 306 665 321 591 343C573 349 555 352 545 352C542 352 537 351 532 350Z"/>
<path id="z35332d5" d="M593 443C587 442 575 434 573 430C570 425 572 423 585 419C604 413 640 402 668 392C732 370 760 367 784 380C800 389 804 400 794 405C792 407 784 409 777 410C758 413 676 430 642 437C611 444 600 445 593 443Z"/>
<path id="z35332d6" d="M599 540C593 539 587 536 581 530C575 525 574 520 579 519C591 514 691 481 701 478C732 469 757 466 772 470C791 475 808 489 803 497C801 501 795 503 768 508C731 515 703 521 656 531C611 540 606 541 599 540Z"/>
<path id="z35332d7" d="M537 590C531 592 530 597 531 602C531 604 534 613 538 622C555 658 567 696 578 747C583 771 585 779 589 788C595 798 606 812 613 816C621 820 626 812 625 785C625 774 625 774 625 768C622 745 622 745 620 734C618 724 605 654 605 633C605 622 602 606 592 602C580 596 548 587 537 590Z"/>
<path id="z35332d8" d="M756 555C747 555 738 558 723 565C690 579 643 592 592 602C581 604 595 637 605 633C610 631 614 630 624 629C643 625 725 610 733 608C749 605 756 610 756 624C756 634 743 686 735 708C730 722 774 726 780 712C786 697 792 683 797 674C808 655 818 643 831 632C841 625 844 618 845 610C845 603 842 597 837 593C830 588 810 576 791 566C776 558 767 555 756 555Z"/>
<path id="z35332d9" d="M735 708C705 717 662 726 620 734C609 736 614 770 625 768C668 760 721 754 761 749C784 747 794 746 799 744C803 742 807 738 803 733C799 727 790 719 780 712C768 703 750 705 735 708Z"/>
<defs>
	<clipPath id="z35332c1"><use xlink:href="#z35332d1"/></clipPath>
	<clipPath id="z35332c2"><use xlink:href="#z35332d2"/></clipPath>
	<clipPath id="z35332c3"><use xlink:href="#z35332d3"/></clipPath>
	<clipPath id="z35332c4"><use xlink:href="#z35332d4"/></clipPath>
	<clipPath id="z35332c5"><use xlink:href="#z35332d5"/></clipPath>
	<clipPath id="z35332c6"><use xlink:href="#z35332d6"/></clipPath>
	<clipPath id="z35332c7"><use xlink:href="#z35332d7"/></clipPath>
	<clipPath id="z35332c8"><use xlink:href="#z35332d8"/></clipPath>
	<clipPath id="z35332c9"><use xlink:href="#z35332d9"/></clipPath>
</defs>
<path style="--d:1s;" pathLength="3333" clip-path="url(#z35332c1)" d="M241 128L313 172L235 588L131 815L68 874"/>
<path style="--d:2s;" pathLength="3333" clip-path="url(#z35332c2)" d="M75 441L151 445L397 363L443 378L376 574L378 739L439 848L550 905L714 906L881 857L921 823L920 665"/>
<path style="--d:3s;" pathLength="3333" clip-path="url(#z35332c3)" d="M596 109L712 207"/>
<path style="--d:4s;" pathLength="3333" clip-path="url(#z35332c4)" d="M502 324L560 330L845 275L929 281"/>
<path style="--d:5s;" pathLength="3333" clip-path="url(#z35332c5)" d="M579 426L615 432L794 399"/>
<path style="--d:6s;" pathLength="3333" clip-path="url(#z35332c6)" d="M582 525L796 492"/>
<path style="--d:7s;" pathLength="3333" clip-path="url(#z35332c7)" d="M539 597L582 624L617 811"/>
<path style="--d:8s;" pathLength="3333" clip-path="url(#z35332c8)" d="M597 605L764 578L806 612L746 705"/>
<path style="--d:9s;" pathLength="3333" clip-path="url(#z35332c9)" d="M624 737L797 735"/>
</svg>