<!--
AnimCJK 2016-2019 Copyright Francois Mizessyn - https://github.com/parsimonhi/animCJK
Derived from:
    MakeMeAHanzi project - https://github.com/skishore/makemeahanzi
    Arphic PL KaitiM GB font
    Arphic PL UKai font
You can redistribute and/or modify this file under the terms of the Arphic Public License
as published by Arphic Technology Co., Ltd.
You should have received a copy of this license along with this file.
If not, see http://ftp.gnu.org/non-gnu/chinese-fonts-truetype/LICENSE.
-->
<svg id="z35758" class="acjk" version="1.1" viewBox="0 0 1024 1024" xmlns="http://www.w3.org/2000/svg" xmlns:xlink="http://www.w3.org/1999/xlink">
<style>
<![CDATA[
@keyframes zk {
	to {
		stroke-dashoffset:0;
	}
}
svg.acjk path[clip-path] {
	--t:0.8s;
	animation:zk var(--t) linear forwards var(--d);
	stroke-dasharray:3337;
	stroke-dashoffset:3339;
	stroke-width:128;
	stroke-linecap:round;
	fill:none;
	stroke:#000;
}
svg.acjk path[id] {fill:#ccc;}
]]>
</style>
<path id="z35758d1" d="M290 175Q327 202 365 235Q381 248 397 247Q407 246 413 232Q417 216 406 185Q399 161 361 146Q274 115 260 125Q254 129 257 143Q261 153 290 175Z"/>
<path id="z35758d2" d="M160 425Q109 441 81 443Q66 443 64 451Q60 460 71 467Q107 489 147 478Q252 423 263 431Q272 437 265 549Q264 670 230 779Q211 812 256 863Q266 876 277 869Q286 862 297 837Q340 782 432 689Q445 677 442 670Q441 661 429 671Q383 702 337 736Q289 775 298 716Q297 646 323 473Q327 448 350 424Q362 414 352 401Q342 385 302 367Q289 360 272 371Q202 411 160 425Z"/>
<path id="z35758d3" d="M541 292Q596 362 624 363Q637 364 645 345Q646 332 636 310Q626 294 601 284Q562 266 545 264Q535 263 534 274Q533 283 541 292Z"/>
<path id="z35758d4" d="M686 661Q740 513 766 371Q773 331 795 283Q802 273 794 263Q778 244 743 225Q724 213 705 217Q684 221 698 242Q723 275 719 306Q698 492 649 617C633 650 633 650 625 666Q615 679 606 694Q578 734 533 765Q490 798 400 835Q387 839 383 842Q377 848 393 852Q469 859 593 782Q617 764 635 743Q645 730 657 714C676 679 676 679 686 661Z"/>
<path id="z35758d5" d="M657 714Q736 831 756 843Q819 861 941 861Q962 862 970 854Q974 847 963 841Q795 774 753 731Q729 710 686 661C661 632 661 632 649 617Q592 544 524 440Q512 416 492 412Q462 408 453 417Q449 423 458 430Q498 458 521 501Q575 589 625 666C646 698 646 698 657 714Z"/>
<defs>
	<clipPath id="z35758c1"><use xlink:href="#z35758d1"/></clipPath>
	<clipPath id="z35758c2"><use xlink:href="#z35758d2"/></clipPath>
	<clipPath id="z35758c3"><use xlink:href="#z35758d3"/></clipPath>
	<clipPath id="z35758c4"><use xlink:href="#z35758d4"/></clipPath>
	<clipPath id="z35758c5"><use xlink:href="#z35758d5"/></clipPath>
</defs>
<path style="--d:1s;" pathLength="3333" clip-path="url(#z35758c1)" d="M264 132L366 188L405 239"/>
<path style="--d:2s;" pathLength="3333" clip-path="url(#z35758c2)" d="M69 454L137 456L277 400L309 423L264 776L278 815L434 674"/>
<path style="--d:3s;" pathLength="3333" clip-path="url(#z35758c3)" d="M542 273L634 355"/>
<path style="--d:4s;" pathLength="3333" clip-path="url(#z35758c4)" d="M699 223L758 285L665 644L577 762L388 845"/>
<path style="--d:5s;" pathLength="3333" clip-path="url(#z35758c5)" d="M459 419L500 439L762 791L963 851"/>
</svg>