<!--
AnimCJK 2016-2017 Copyright Francois Mizessyn, http://gooo.free.fr/animCJK/
Derived from:
    MakeMeAHanzi project - https://github.com/skishore/makemeahanzi
    Arphic PL KaitiM GB - https://apps.ubuntu.com/cat/applications/precise/fonts-arphic-gkai00mp/
    Arphic PL UKai - https://apps.ubuntu.com/cat/applications/fonts-arphic-ukai/
You can redistribute and/or modify this file under the terms of the Arphic Public License
as published by Arphic Technology Co., Ltd.
You should have received a copy of this license (the directory "APL") along with this file;
if not, see http://ftp.gnu.org/non-gnu/chinese-fonts-truetype/LICENSE.
-->
<svg id="z35768" class="acjk" version="1.1" viewBox="0 0 1024 1024" xmlns="http://www.w3.org/2000/svg" xmlns:xlink="http://www.w3.org/1999/xlink">
<style>
<![CDATA[
	@keyframes z35768k {
		from {
			stroke:#c00;
			stroke-dashoffset:3000;
		}
		75% {
			stroke:#c00;
			stroke-dashoffset:0;
		}
		to {
			stroke:#000;
		}
	}
	#z35768 path[clip-path] {
		animation:z35768k 1s linear both;
		stroke-dasharray:3000;
		stroke-width:128;
		stroke-linecap:round;
		fill:none;
	}
	#z35768 path[clip-path="url(#z35768c1)"] {animation-delay:1s;}
	#z35768 path[clip-path="url(#z35768c2)"] {animation-delay:2s;}
	#z35768 path[clip-path="url(#z35768c3)"] {animation-delay:3s;}
	#z35768 path[clip-path="url(#z35768c4)"] {animation-delay:4s;}
	#z35768 path[clip-path="url(#z35768c5)"] {animation-delay:5s;}
	#z35768 path[clip-path="url(#z35768c6)"] {animation-delay:6s;}
	#z35768 path {fill:#ccc;}
]]>
</style>
<g transform="scale(1,-1) translate(0,-900)">
	<path id="z35768d1" d="M299 749Q333 724 369 692Q385 679 401 681Q411 682 417 696Q421 712 410 743Q403 765 366 780Q281 808 268 799Q262 795 265 781Q269 771 299 749Z"/>
	<path id="z35768d2" d="M159 497Q108 479 81 477Q65 477 63 469Q59 460 71 452Q114 430 141 441Q270 502 273 502Q276 502 279 499Q289 493 284 467Q284 274 245 145Q229 114 270 63L272 61Q284 48 293 55Q302 62 313 87Q353 139 436 227Q449 239 446 246Q445 255 433 245Q393 218 352 189Q306 150 314 208Q313 280 339 459Q343 484 365 508Q378 518 368 532Q356 548 317 565Q304 571 287 560Q205 514 159 497Z"/>
	<path id="z35768d3" d="M546 599Q579 645 614 707Q630 741 646 758Q655 768 649 782Q645 795 614 815Q586 831 568 829Q549 826 559 805Q572 784 565 764Q532 650 436 507Q427 497 425 490Q424 478 437 482Q467 491 530 577L546 599Z"/>
	<path id="z35768d4" d="M674 578Q834 623 840 627Q849 636 844 644Q837 656 806 662Q775 666 745 652Q702 636 656 621Q604 608 546 599L530 577Q531 577 534 575Q567 557 625 563L674 578Z"/>
	<path id="z35768d5" d="M700 357Q781 369 894 371Q955 375 960 382Q964 394 949 406Q898 440 834 426Q779 414 701 397L649 386Q534 368 399 346Q380 343 395 327Q408 314 426 310Q447 306 462 310Q588 350 649 350L700 357Z"/>
	<path id="z35768d6" d="M650 -23Q654 -48 662 -57Q668 -64 675 -62Q693 -50 696 5Q696 11 700 357L701 397Q701 475 712 536Q715 552 701 562Q686 572 674 578L625 563Q629 554 635 546Q648 521 649 386L649 350Q643 38 650 -23Z"/>
	<defs>
		<clipPath id="z35768c1"><use xlink:href="#z35768d1"/></clipPath>
		<clipPath id="z35768c2"><use xlink:href="#z35768d2"/></clipPath>
		<clipPath id="z35768c3"><use xlink:href="#z35768d3"/></clipPath>
		<clipPath id="z35768c4"><use xlink:href="#z35768d4"/></clipPath>
		<clipPath id="z35768c5"><use xlink:href="#z35768d5"/></clipPath>
		<clipPath id="z35768c6"><use xlink:href="#z35768d6"/></clipPath>
	</defs>
	<path pathLength="2999" clip-path="url(#z35768c1)" d="M272 791L367 741L409 689"/>
	<path pathLength="2999" clip-path="url(#z35768c2)" d="M68 465L134 464L279 531L327 511L280 151L299 105L440 242"/>
	<path pathLength="2999" clip-path="url(#z35768c3)" d="M564 820L607 765L506 579L431 488"/>
	<path pathLength="2999" clip-path="url(#z35768c4)" d="M539 581L841 641"/>
	<path pathLength="2999" clip-path="url(#z35768c5)" d="M394 339L447 331L841 399L956 391"/>
	<path pathLength="2999" clip-path="url(#z35768c6)" d="M632 560L677 528L671 -56"/>
</g>
</svg>