<!--
AnimCJK 2016-2018 Copyright Francois Mizessyn, https://github.com/parsimonhi/animCJK
Derived from:
    MakeMeAHanzi project - https://github.com/skishore/makemeahanzi
    Arphic PL KaitiM GB - https://apps.ubuntu.com/cat/applications/precise/fonts-arphic-gkai00mp/
    Arphic PL UKai - https://apps.ubuntu.com/cat/applications/fonts-arphic-ukai/
You can redistribute and/or modify this file under the terms of the Arphic Public License
as published by Arphic Technology Co., Ltd.
You should have received a copy of this license (the directory "APL") along with this file;
if not, see http://ftp.gnu.org/non-gnu/chinese-fonts-truetype/LICENSE.
-->
<svg id="z35762" class="acjk" version="1.1" viewBox="0 0 1024 1024" xmlns="http://www.w3.org/2000/svg" xmlns:xlink="http://www.w3.org/1999/xlink">
<style>
<![CDATA[
@keyframes z35762k {
	from {
		stroke:#c00;
		stroke-dashoffset:3334;
	}
	75% {
		stroke:#c00;
		stroke-dashoffset:0;
	}
	to {
		stroke:#000;
	}
}
#z35762 path[clip-path] {
	animation:z35762k 1s linear both;
	stroke-dasharray:3334;
	stroke-width:128;
	stroke-linecap:round;
	fill:none;
}
#z35762 path[clip-path="url(#z35762c1)"] {animation-delay:1s;}
#z35762 path[clip-path="url(#z35762c2)"] {animation-delay:2s;}
#z35762 path[clip-path="url(#z35762c3)"] {animation-delay:3s;}
#z35762 path[clip-path="url(#z35762c4)"] {animation-delay:4s;}
#z35762 path[clip-path="url(#z35762c5)"] {animation-delay:5s;}
#z35762 path[clip-path="url(#z35762c6)"] {animation-delay:6s;}
#z35762 path {fill:#ccc;}
]]>
</style>
<path id="z35762d1" d="M263 169Q293 196 325 228Q338 241 356 241Q366 241 373 227Q377 212 369 181Q360 147 259 118Q243 114 236 117Q230 121 232 134Q236 146 263 169 Z"/>
<path id="z35762d2" d="M157 411Q108 427 82 429Q67 428 65 436Q61 443 72 452Q94 465 110 468Q125 471 218 424Q243 411 252 418Q262 425 256 450Q256 619 216 744Q198 772 240 825Q250 838 260 831Q269 824 280 801Q320 750 404 664Q417 654 414 646Q413 637 402 647Q360 674 318 704Q273 740 282 685Q283 619 309 458Q313 434 335 412Q347 402 338 389Q328 373 290 357Q278 350 261 361Q195 398 157 411 Z"/>
<path id="z35762d3" d="M755 356Q774 350 796 347Q854 334 863 325Q872 318 867 308Q860 296 830 289Q794 280 754 301L711 315Q669 325 631 337Q612 341 593 346L548 354Q503 360 458 366Q421 373 447 390Q492 414 547 400L592 391Q649 378 712 365L755 356 Z"/>
<path id="z35762d4" d="M755 552Q812 546 883 546Q940 546 948 536Q954 523 936 510Q876 470 819 488Q789 494 755 503L711 512Q665 518 580 534L533 542Q470 549 404 561Q383 564 399 581Q429 608 489 593Q504 589 521 586L572 575Q618 563 710 556L755 552 Z"/>
<path id="z35762d5" d="M593 346Q593 205 594 197Q598 178 578 170Q532 151 519 154Q501 158 517 178Q544 218 548 354L547 400Q547 484 533 542L521 586Q485 685 440 742Q433 749 425 760Q376 812 374 817Q373 824 384 823Q399 822 416 807Q465 768 495 731Q555 656 572 575L580 534Q589 470 592 391L593 346 Z"/>
<path id="z35762d6" d="M687 816Q675 858 703 918Q710 936 718 939Q725 946 732 937Q739 933 749 912Q759 887 758 855Q755 816 755 552L755 503Q755 436 755 356L754 301Q754 202 772 136Q781 120 777 107Q770 97 714 63Q690 47 669 63Q665 67 671 83Q705 134 708 185Q709 246 711 315L712 365Q711 435 711 512L710 556Q710 727 687 816 Z"/>
<defs>
	<clipPath id="z35762c1"><use xlink:href="#z35762d1"/></clipPath>
	<clipPath id="z35762c2"><use xlink:href="#z35762d2"/></clipPath>
	<clipPath id="z35762c3"><use xlink:href="#z35762d3"/></clipPath>
	<clipPath id="z35762c4"><use xlink:href="#z35762d4"/></clipPath>
	<clipPath id="z35762c5"><use xlink:href="#z35762d5"/></clipPath>
	<clipPath id="z35762c6"><use xlink:href="#z35762d6"/></clipPath>
</defs>
<path pathLength="3333" clip-path="url(#z35762c1)" d="M240 126L328 182L362 234"/>
<path pathLength="3333" clip-path="url(#z35762c2)" d="M69 438L123 443L263 388L291 399L247 741L270 783L407 651"/>
<path pathLength="3333" clip-path="url(#z35762c3)" d="M443 378L521 381L862 309"/>
<path pathLength="3333" clip-path="url(#z35762c4)" d="M399 571L834 515L945 527"/>
<path pathLength="3333" clip-path="url(#z35762c5)" d="M517 162L562 197L558 530L503 683L381 818"/>
<path pathLength="3333" clip-path="url(#z35762c6)" d="M673 65L739 137L722 937"/>
</svg>