<!--
AnimCJK 2016-2017 Copyright Francois Mizessyn, http://gooo.free.fr/animCJK/
Derived from:
    MakeMeAHanzi project - https://github.com/skishore/makemeahanzi
    Arphic PL KaitiM GB - https://apps.ubuntu.com/cat/applications/precise/fonts-arphic-gkai00mp/
    Arphic PL UKai - https://apps.ubuntu.com/cat/applications/fonts-arphic-ukai/
You can redistribute and/or modify this file under the terms of the Arphic Public License
as published by Arphic Technology Co., Ltd.
You should have received a copy of this license (the directory "APL") along with this file;
if not, see http://ftp.gnu.org/non-gnu/chinese-fonts-truetype/LICENSE.
-->
<svg id="z35763" class="acjk" version="1.1" viewBox="0 0 1024 1024" xmlns="http://www.w3.org/2000/svg" xmlns:xlink="http://www.w3.org/1999/xlink">
<style>
<![CDATA[
@keyframes z35763k {
	from {
		stroke:#c00;
		stroke-dashoffset:3000;
	}
	75% {
		stroke:#c00;
		stroke-dashoffset:0;
	}
	to {
		stroke:#000;
	}
}
#z35763 path[clip-path] {
	animation:z35763k 1s linear both;
	stroke-dasharray:3000;
	stroke-width:128;
	stroke-linecap:round;
	fill:none;
}
#z35763 path[clip-path="url(#z35763c1)"] {animation-delay:1s;}
#z35763 path[clip-path="url(#z35763c2)"] {animation-delay:2s;}
#z35763 path[clip-path="url(#z35763c3)"] {animation-delay:3s;}
#z35763 path[clip-path="url(#z35763c4)"] {animation-delay:4s;}
#z35763 path[clip-path="url(#z35763c5)"] {animation-delay:5s;}
#z35763 path[clip-path="url(#z35763c6)"] {animation-delay:6s;}
#z35763 path {fill:#ccc;}
]]>
</style>
<path id="z35763d1" d="M291 175Q330 200 371 231Q387 244 405 241Q417 240 421 224Q424 208 410 176Q394 140 280 123Q262 122 256 125Q250 129 254 143Q260 155 291 175 Z"/>
<path id="z35763d2" d="M172 395Q118 411 89 414Q73 413 71 422Q67 431 79 439Q118 461 158 450Q273 396 281 398Q282 398 286 400Q298 407 291 437Q291 617 259 726Q243 760 292 811Q304 824 314 816Q321 809 332 782Q368 721 446 615Q458 602 454 594Q451 585 440 597Q400 633 360 671Q327 702 330 659Q329 598 349 444Q353 419 376 392Q389 382 379 368Q367 350 326 333Q313 326 295 338Q216 381 172 395 Z"/>
<path id="z35763d3" d="M663 292Q715 279 769 267Q812 255 819 249Q829 240 823 232Q816 220 786 213Q755 209 725 221Q694 231 663 242L615 256Q555 269 489 278Q452 285 479 301Q521 322 590 307Q600 304 615 302L663 292 Z"/>
<path id="z35763d4" d="M662 419Q795 389 803 382Q812 375 807 367Q800 357 773 350Q746 346 662 376L613 389Q564 399 508 406Q474 412 499 427Q535 446 598 432Q604 431 612 430L662 419 Z"/>
<path id="z35763d5" d="M661 534Q817 495 840 513Q847 519 846 532Q824 671 810 691Q803 704 788 699Q758 695 727 689Q700 688 720 704Q780 753 804 788Q811 801 824 794Q852 776 877 673Q893 568 917 543Q932 522 926 514Q917 501 866 468Q847 453 832 460Q804 472 750 480Q699 487 661 497L610 507Q577 513 558 520Q518 530 488 536Q466 540 462 549Q459 556 478 565Q511 586 543 572Q568 560 609 548L661 534 Z"/>
<path id="z35763d6" d="M661 497Q661 461 662 419L662 376Q662 336 663 292L663 242Q663 191 678 112Q682 93 667 84Q633 62 616 58Q603 54 586 63Q577 72 585 82Q591 95 599 107Q615 138 616 182Q616 216 615 256L615 302Q614 342 613 389L612 430Q611 467 610 507L609 548Q597 899 621 933Q627 940 635 938Q650 929 657 866Q667 761 665 657Q662 618 661 534L661 497 Z"/>
<defs>
	<clipPath id="z35763c1"><use xlink:href="#z35763d1"/></clipPath>
	<clipPath id="z35763c2"><use xlink:href="#z35763d2"/></clipPath>
	<clipPath id="z35763c3"><use xlink:href="#z35763d3"/></clipPath>
	<clipPath id="z35763c4"><use xlink:href="#z35763d4"/></clipPath>
	<clipPath id="z35763c5"><use xlink:href="#z35763d5"/></clipPath>
	<clipPath id="z35763c6"><use xlink:href="#z35763d6"/></clipPath>
</defs>
<path pathLength="2999" clip-path="url(#z35763c1)" d="M260 132L359 178L413 231"/>
<path pathLength="2999" clip-path="url(#z35763c2)" d="M75 425L148 427L302 366L337 392L296 708L313 765L449 598"/>
<path pathLength="2999" clip-path="url(#z35763c3)" d="M476 289L820 238"/>
<path pathLength="2999" clip-path="url(#z35763c4)" d="M500 416L803 373"/>
<path pathLength="2999" clip-path="url(#z35763c5)" d="M468 548L524 553L845 485L886 531L826 728L805 748L721 694"/>
<path pathLength="2999" clip-path="url(#z35763c6)" d="M589 67L643 113L627 934"/>
</svg>