<!--
AnimCJK 2016-2017 Copyright Francois Mizessyn, http://gooo.free.fr/animCJK/
Derived from:
    MakeMeAHanzi project - https://github.com/skishore/makemeahanzi
    Arphic PL KaitiM GB - https://apps.ubuntu.com/cat/applications/precise/fonts-arphic-gkai00mp/
    Arphic PL UKai - https://apps.ubuntu.com/cat/applications/fonts-arphic-ukai/
You can redistribute and/or modify this file under the terms of the Arphic Public License
as published by Arphic Technology Co., Ltd.
You should have received a copy of this license (the directory "APL") along with this file;
if not, see http://ftp.gnu.org/non-gnu/chinese-fonts-truetype/LICENSE.
-->
<svg id="z35774" class="acjk" version="1.1" viewBox="0 0 1024 1024" xmlns="http://www.w3.org/2000/svg" xmlns:xlink="http://www.w3.org/1999/xlink">
<style>
<![CDATA[
	@keyframes z35774k {
		from {
			stroke:#c00;
			stroke-dashoffset:3000;
		}
		75% {
			stroke:#c00;
			stroke-dashoffset:0;
		}
		to {
			stroke:#000;
		}
	}
	#z35774 path[clip-path] {
		animation:z35774k 1s linear both;
		stroke-dasharray:3000;
		stroke-width:128;
		stroke-linecap:round;
		fill:none;
	}
	#z35774 path[clip-path="url(#z35774c1)"] {animation-delay:1s;}
	#z35774 path[clip-path="url(#z35774c2)"] {animation-delay:2s;}
	#z35774 path[clip-path="url(#z35774c3)"] {animation-delay:3s;}
	#z35774 path[clip-path="url(#z35774c4)"] {animation-delay:4s;}
	#z35774 path[clip-path="url(#z35774c5)"] {animation-delay:5s;}
	#z35774 path[clip-path="url(#z35774c6)"] {animation-delay:6s;}
	#z35774 path {fill:#ccc;}
]]>
</style>
<g transform="scale(1,-1) translate(0,-900)">
	<path id="z35774d1" d="M298 741Q331 716 365 685Q380 672 397 673Q407 674 413 688Q417 704 406 735Q399 757 364 772Q280 797 268 791Q262 787 265 773Q269 763 298 741Z"/>
	<path id="z35774d2" d="M131 466Q82 453 55 452Q40 452 38 445Q34 438 45 429Q84 404 110 414Q174 438 233 463Q260 476 269 468Q276 464 269 362Q266 259 236 164Q217 134 260 82Q270 70 280 76Q287 83 299 106Q341 155 428 240Q441 250 438 258Q437 267 426 257Q383 232 341 202Q292 165 302 223Q302 281 325 426Q329 450 352 472Q364 482 355 495Q345 511 307 528Q295 535 278 524Q184 481 131 466Z"/>
	<path id="z35774d3" d="M543 724Q512 740 502 737Q484 734 498 715Q516 688 506 573Q502 548 490 517Q475 481 435 439Q422 429 419 423Q418 416 428 417Q455 417 496 457Q550 512 563 665Q566 681 567 689L543 724Z"/>
	<path id="z35774d4" d="M918 491Q933 497 924 513Q909 532 891 542Q879 548 856 538Q819 522 772 523Q742 524 733 546Q720 567 731 631Q732 670 770 709Q788 725 770 739Q746 758 720 771Q710 777 692 766Q622 736 543 724L567 689Q573 690 655 715Q674 722 682 720Q691 716 689 700Q680 558 682 545Q691 508 717 489Q751 470 819 471Q885 472 918 491Z"/>
	<path id="z35774d5" d="M673 177Q713 235 741 328Q748 362 768 380Q784 393 767 409Q746 425 714 439Q692 446 671 436Q619 409 546 399Q521 396 509 390Q500 383 518 374Q543 361 582 372Q622 382 663 391Q684 398 684 374Q684 293 635 212L608 173Q550 106 393 58Q377 54 387 46Q394 40 423 44Q516 54 571 81Q608 100 639 133L673 177Z"/>
	<path id="z35774d6" d="M639 133Q681 84 733 32Q749 11 778 10Q866 4 937 11Q974 14 972 24Q969 33 800 95Q745 119 673 177L635 212Q598 249 559 294Q523 334 489 336Q471 337 467 333Q466 326 480 315Q528 279 608 173L639 133Z"/>
	<defs>
		<clipPath id="z35774c1"><use xlink:href="#z35774d1"/></clipPath>
		<clipPath id="z35774c2"><use xlink:href="#z35774d2"/></clipPath>
		<clipPath id="z35774c3"><use xlink:href="#z35774d3"/></clipPath>
		<clipPath id="z35774c4"><use xlink:href="#z35774d4"/></clipPath>
		<clipPath id="z35774c5"><use xlink:href="#z35774d5"/></clipPath>
		<clipPath id="z35774c6"><use xlink:href="#z35774d6"/></clipPath>
	</defs>
	<path pathLength="2999" clip-path="url(#z35774c1)" d="M271 783L368 730L405 681"/>
	<path pathLength="2999" clip-path="url(#z35774c2)" d="M43 442L101 436L265 496L310 484L267 171L290 126L431 253"/>
	<path pathLength="2999" clip-path="url(#z35774c3)" d="M499 729L537 685L523 553L491 480L427 425"/>
	<path pathLength="2999" clip-path="url(#z35774c4)" d="M555 719L711 740L734 713L704 584L721 519L779 498L923 509"/>
	<path pathLength="2999" clip-path="url(#z35774c5)" d="M514 387L702 412L729 386L698 286L591 123L392 50"/>
	<path pathLength="2999" clip-path="url(#z35774c6)" d="M476 329L776 56L965 24"/>
</g>
</svg>