<!--
AnimCJK 2016-2019 Copyright Francois Mizessyn - https://github.com/parsimonhi/animCJK
Derived from:
    MakeMeAHanzi project - https://github.com/skishore/makemeahanzi
    Arphic PL KaitiM GB font
    Arphic PL UKai font
You can redistribute and/or modify this file under the terms of the Arphic Public License
as published by Arphic Technology Co., Ltd.
You should have received a copy of this license along with this file.
If not, see http://ftp.gnu.org/non-gnu/chinese-fonts-truetype/LICENSE.
-->
<svg id="z35794" class="acjk" version="1.1" viewBox="0 0 1024 1024" xmlns="http://www.w3.org/2000/svg" xmlns:xlink="http://www.w3.org/1999/xlink">
<style>
<![CDATA[
@keyframes zk {
	to {
		stroke-dashoffset:0;
	}
}
svg.acjk path[clip-path] {
	--t:0.8s;
	animation:zk var(--t) linear forwards var(--d);
	stroke-dasharray:3337;
	stroke-dashoffset:3339;
	stroke-width:128;
	stroke-linecap:round;
	fill:none;
	stroke:#000;
}
svg.acjk path[id] {fill:#ccc;}
]]>
</style>
<path id="z35794d1" d="M297 168Q334 198 373 234Q388 247 404 246Q416 246 421 232Q425 216 416 185Q404 146 291 117Q275 114 268 117Q262 121 264 135Q268 145 297 168Z"/>
<path id="z35794d2" d="M151 435Q100 453 73 455Q57 455 55 463Q51 472 63 480Q106 502 133 491Q262 430 264 430Q267 430 270 433Q280 439 276 465Q269 666 238 771Q220 801 265 855Q275 868 286 861Q293 854 305 829Q345 777 428 685Q441 673 438 666Q437 657 425 667Q385 695 343 726Q298 763 306 709Q306 640 331 473Q335 448 357 424Q370 414 359 401Q349 385 309 367Q296 361 279 372Q197 418 151 435Z"/>
<path id="z35794d3" d="M795 408Q674 423 542 453Q529 457 524 453Q520 449 528 432Q666 207 696 169Q709 159 701 145Q694 132 642 110Q623 103 614 108Q601 115 608 136Q635 211 490 416Q466 441 430 470Q415 483 420 495Q426 513 454 534Q466 544 480 533Q538 488 816 432C826 430 805 406 795 408Z"/>
<path id="z35794d4" d="M816 432Q861 486 877 489Q887 490 893 479Q900 466 896 438Q893 405 851 371Q806 343 756 317Q743 313 736 313Q732 316 731 328Q731 329 795 408C809 424 809 424 816 432Z"/>
<path id="z35794d5" d="M520 619Q508 613 475 607Q462 603 459 609Q452 615 461 632Q492 701 509 812Q513 845 531 868Q550 890 555 875Q561 857 559 830C556 807 556 807 554 795Q536 689 533 653C533 641 531 624 520 619Z"/>
<path id="z35794d6" d="M786 760Q808 669 844 638Q862 619 845 600Q827 587 771 562Q752 555 729 564Q650 597 520 619C508 621 521 655 533 653Q534 653 714 617Q733 613 742 620Q758 636 734 759C731 776 783 777 786 760Z"/>
<path id="z35794d7" d="M559 830Q566 830 574 829Q647 813 807 800Q817 799 819 790Q820 781 788 760Q787 759 786 760C770 754 751 756 734 759Q634 781 554 795C542 797 547 830 559 830Z"/>
<defs>
	<clipPath id="z35794c1"><use xlink:href="#z35794d1"/></clipPath>
	<clipPath id="z35794c2"><use xlink:href="#z35794d2"/></clipPath>
	<clipPath id="z35794c3"><use xlink:href="#z35794d3"/></clipPath>
	<clipPath id="z35794c4"><use xlink:href="#z35794d4"/></clipPath>
	<clipPath id="z35794c5"><use xlink:href="#z35794d5"/></clipPath>
	<clipPath id="z35794c6"><use xlink:href="#z35794d6"/></clipPath>
	<clipPath id="z35794c7"><use xlink:href="#z35794d7"/></clipPath>
</defs>
<path style="--d:1s;" pathLength="3333" clip-path="url(#z35794c1)" d="M268 127L367 181L411 240"/>
<path style="--d:2s;" pathLength="3333" clip-path="url(#z35794c2)" d="M59 466L124 469L267 403L318 421L273 743L290 810L432 670"/>
<path style="--d:3s;" pathLength="3333" clip-path="url(#z35794c3)" d="M615 114L657 166L474 481L498 497L806 427"/>
<path style="--d:4s;" pathLength="3333" clip-path="url(#z35794c4)" d="M740 322L839 405L878 484"/>
<path style="--d:5s;" pathLength="3333" clip-path="url(#z35794c5)" d="M464 609L501 652L544 875"/>
<path style="--d:6s;" pathLength="3333" clip-path="url(#z35794c6)" d="M528 621L732 589L782 606L800 630L750 759"/>
<path style="--d:7s;" pathLength="3333" clip-path="url(#z35794c7)" d="M562 799L814 787"/>
</svg>