<!--
AnimCJK 2016-2018 Copyright Francois Mizessyn - https://github.com/parsimonhi/animCJK
Derived from:
    MakeMeAHanzi project - https://github.com/skishore/makemeahanzi
    Arphic PL KaitiM GB - https://apps.ubuntu.com/cat/applications/precise/fonts-arphic-gkai00mp/
    Arphic PL UKai - https://apps.ubuntu.com/cat/applications/fonts-arphic-ukai/
You can redistribute and/or modify this file under the terms of the Arphic Public License
as published by Arphic Technology Co., Ltd.
You should have received a copy of this license (the directory "APL") along with this file;
if not, see http://ftp.gnu.org/non-gnu/chinese-fonts-truetype/LICENSE.
-->
<svg id="z35803" class="acjk" version="1.1" viewBox="0 0 1024 1024" xmlns="http://www.w3.org/2000/svg" xmlns:xlink="http://www.w3.org/1999/xlink">
<style>
<![CDATA[
@keyframes z35803k {
	from {
		stroke:#ccc;
		stroke-dashoffset:3334;
	}
	1% {
		stroke:#c00;
		stroke-dashoffset:3334;
	}
	75% {
		stroke:#c00;
		stroke-dashoffset:0;
	}
	to {
		stroke:#000;
	}
}
#z35803 path[clip-path] {
	animation:z35803k 1s linear both;
	stroke-dasharray:3334;
	stroke-width:128;
	stroke-linecap:round;
	fill:none;
}
#z35803 path[clip-path="url(#z35803c1)"] {animation-delay:1s;}
#z35803 path[clip-path="url(#z35803c2)"] {animation-delay:2s;}
#z35803 path[clip-path="url(#z35803c3)"] {animation-delay:3s;}
#z35803 path[clip-path="url(#z35803c4)"] {animation-delay:4s;}
#z35803 path[clip-path="url(#z35803c5)"] {animation-delay:5s;}
#z35803 path[clip-path="url(#z35803c6)"] {animation-delay:6s;}
#z35803 path[clip-path="url(#z35803c7)"] {animation-delay:7s;}
#z35803 path[clip-path="url(#z35803c8)"] {animation-delay:8s;}
#z35803 path {fill:#ccc;}
]]>
</style>
<path id="z35803d1" d="M262 159C284 175 306 194 329 215C338 223 349 227 361 227C367 226 373 221 377 212C380 201 377 185 370 165C365 150 352 136 328 128C272 109 239 104 232 109C227 111 226 117 229 127C231 133 242 144 262 159 Z"/>
<path id="z35803d2" d="M119 423C88 431 64 437 47 438C38 438 33 439 31 444C28 448 29 455 37 460C60 475 86 478 113 468C182 438 219 422 225 425C235 430 232 442 232 460C229 515 223 661 204 723C196 746 203 770 232 799C238 805 245 807 251 803C256 798 259 787 268 773C288 737 325 691 374 632C380 624 383 619 382 614C381 609 377 610 370 616C345 636 320 656 296 678C273 698 265 694 266 665C267 627 269 560 282 466C283 451 292 436 307 422C314 414 315 408 309 400C301 390 286 379 263 369C254 365 246 367 235 373C186 398 147 414 119 423 Z"/>
<path id="z35803d3" d="M492 337C510 311 521 288 537 273C542 267 542 259 540 253C537 246 528 236 512 225C497 214 484 209 474 211C463 212 460 219 466 231C474 248 463 287 434 347C419 375 402 404 380 435C376 440 372 444 371 448C368 454 371 456 380 455C391 452 430 423 480 354 Z"/>
<path id="z35803d4" d="M646 353C738 332 785 316 787 315C793 310 794 304 791 299C786 292 774 286 756 282C736 277 717 281 698 289C681 295 664 301 647 306L605 317C581 323 522 334 492 337L480 354C499 369 539 376 605 362 Z"/>
<path id="z35803d5" d="M644 491C692 482 753 477 825 474C861 472 881 468 885 463C888 456 884 447 874 441C836 417 797 415 759 427C726 436 688 444 644 454L603 463C535 477 461 489 382 504C369 506 368 511 378 521C386 529 396 533 408 536C420 538 431 538 441 535C482 520 528 510 578 502 Z"/>
<path id="z35803d6" d="M644 454C644 422 645 388 646 353L647 306C648 241 652 186 667 144C670 133 676 123 673 115C669 107 647 94 610 71C593 60 578 59 565 70C562 72 560 80 566 90C587 126 602 160 603 196C603 234 605 274 605 317L605 362C605 377 604 429 603 463L600 567C596 677 594 742 591 763C586 791 580 819 572 848C564 876 569 909 587 950C592 961 597 967 602 971C607 974 610 974 616 969C619 965 627 958 634 944C641 927 643 908 643 887C642 858 640 743 643 543L643 500C643 484 643 469 644 454 Z"/>
<path id="z35803d7" d="M605 497L578 502C536 604 449 714 318 830C311 838 310 842 316 843C322 845 328 845 335 841C425 799 542 676 600 567 Z"/>
<path id="z35803d8" d="M643 543Q707 651 791 764Q807 785 837 785Q937 789 969 785Q979 784 980 779Q981 775 968 766Q824 699 759 629Q704 572 643 500L643 543 Z"/>
<defs>
	<clipPath id="z35803c1"><use xlink:href="#z35803d1"/></clipPath>
	<clipPath id="z35803c2"><use xlink:href="#z35803d2"/></clipPath>
	<clipPath id="z35803c3"><use xlink:href="#z35803d3"/></clipPath>
	<clipPath id="z35803c4"><use xlink:href="#z35803d4"/></clipPath>
	<clipPath id="z35803c5"><use xlink:href="#z35803d5"/></clipPath>
	<clipPath id="z35803c6"><use xlink:href="#z35803d6"/></clipPath>
	<clipPath id="z35803c7"><use xlink:href="#z35803d7"/></clipPath>
	<clipPath id="z35803c8"><use xlink:href="#z35803d8"/></clipPath>
</defs>
<path pathLength="3333" clip-path="url(#z35803c1)" d="M235 117L332 170L369 219"/>
<path pathLength="3333" clip-path="url(#z35803c2)" d="M39 448L104 449L235 396L269 415L237 695L254 750L375 617"/>
<path pathLength="3333" clip-path="url(#z35803c3)" d="M473 215L503 265L379 449"/>
<path pathLength="3333" clip-path="url(#z35803c4)" d="M487 350L788 303"/>
<path pathLength="3333" clip-path="url(#z35803c5)" d="M378 512L779 448L881 454"/>
<path pathLength="3333" clip-path="url(#z35803c6)" d="M569 71L635 141L611 968"/>
<path pathLength="3333" clip-path="url(#z35803c7)" d="M594 510L488 696L320 838"/>
<path pathLength="3333" clip-path="url(#z35803c8)" d="M645 508L824 737L971 777"/>
</svg>