<!--
AnimCJK 2016-2019 Copyright Francois Mizessyn - https://github.com/parsimonhi/animCJK
Derived from:
    MakeMeAHanzi project - https://github.com/skishore/makemeahanzi
    Arphic PL KaitiM GB font
    Arphic PL UKai font
You can redistribute and/or modify this file under the terms of the Arphic Public License
as published by Arphic Technology Co., Ltd.
You should have received a copy of this license along with this file.
If not, see http://ftp.gnu.org/non-gnu/chinese-fonts-truetype/LICENSE.
-->
<svg id="z35802" class="acjk" version="1.1" viewBox="0 0 1024 1024" xmlns="http://www.w3.org/2000/svg" xmlns:xlink="http://www.w3.org/1999/xlink">
<style>
<![CDATA[
@keyframes zk {
	to {
		stroke-dashoffset:0;
	}
}
svg.acjk path[clip-path] {
	--t:0.8s;
	animation:zk var(--t) linear forwards var(--d);
	stroke-dasharray:3337;
	stroke-dashoffset:3339;
	stroke-width:128;
	stroke-linecap:round;
	fill:none;
	stroke:#000;
}
svg.acjk path[id] {fill:#ccc;}
]]>
</style>
<path id="z35802d1" d="M271 166Q302 191 337 220Q353 233 369 231Q379 230 385 216Q389 200 377 169Q365 136 263 116Q247 113 240 117Q234 121 237 135Q241 145 271 166Z"/>
<path id="z35802d2" d="M149 391Q100 407 74 409Q59 408 57 416Q53 423 64 432Q103 456 150 436Q249 388 259 393C260 394 260 394 260 394Q270 401 264 426Q257 609 220 720Q202 750 245 801Q255 813 265 806Q272 799 284 776Q326 724 413 632Q425 622 422 614Q421 607 410 615Q365 645 321 679Q279 713 287 662Q288 596 316 434Q320 412 343 388Q355 378 346 366Q336 350 298 333Q286 326 269 337Q193 377 149 391Z"/>
<path id="z35802d3" d="M691 385Q811 349 817 343Q824 336 820 327Q813 317 784 311Q757 307 684 338C655 349 655 349 641 354Q506 387 495 390C485 392 484 420 495 422Q529 428 589 412Q616 405 648 397C677 389 677 389 691 385Z"/>
<path id="z35802d4" d="M495 390Q491 384 484 381Q442 362 430 364Q414 367 426 386Q451 423 437 616Q428 664 406 720Q385 774 310 849Q298 859 295 866Q294 872 304 871Q338 871 397 806Q470 722 483 580C485 561 485 561 486 552Q490 500 493 434Q494 427 495 422C497 412 501 399 495 390Z"/>
<path id="z35802d5" d="M483 580Q498 584 509 580Q569 556 576 561Q583 573 580 602Q573 683 554 718Q544 740 524 737Q506 731 491 724Q473 717 485 735Q516 768 530 793Q545 808 558 795Q594 765 612 685Q627 573 637 559Q646 549 641 542Q634 535 595 519Q579 513 566 524Q559 528 528 539Q506 546 486 552C477 554 474 578 483 580Z"/>
<path id="z35802d6" d="M742 713Q779 797 857 868Q915 916 945 914Q964 910 957 882Q953 840 958 720Q958 698 951 698Q945 698 938 717Q922 747 908 772Q895 799 884 797Q871 797 847 776Q807 733 775 675C758 640 758 640 750 622Q714 532 691 385C686 354 686 354 684 338Q669 218 683 140Q696 98 640 75Q604 59 583 66Q562 73 572 93Q618 136 619 171Q629 271 641 354C646 383 646 383 648 397Q675 563 722 669C735 698 735 698 742 713Z"/>
<path id="z35802d7" d="M722 669Q715 676 707 687Q683 720 619 779Q612 786 618 789Q645 792 742 713C764 688 764 688 775 675Q824 587 840 544Q849 523 860 503Q867 493 861 484Q854 474 825 460Q803 450 795 452Q782 456 785 471Q794 537 750 622C731 653 731 653 722 669Z"/>
<path id="z35802d8" d="M747 182Q789 227 824 242Q839 245 847 231Q853 219 849 203Q842 181 824 168Q812 159 758 144Q742 140 733 144Q727 145 730 157Q731 169 747 182Z"/>
<defs>
	<clipPath id="z35802c1"><use xlink:href="#z35802d1"/></clipPath>
	<clipPath id="z35802c2"><use xlink:href="#z35802d2"/></clipPath>
	<clipPath id="z35802c3"><use xlink:href="#z35802d3"/></clipPath>
	<clipPath id="z35802c4"><use xlink:href="#z35802d4"/></clipPath>
	<clipPath id="z35802c5"><use xlink:href="#z35802d5"/></clipPath>
	<clipPath id="z35802c6"><use xlink:href="#z35802d6"/></clipPath>
	<clipPath id="z35802c7"><use xlink:href="#z35802d7"/></clipPath>
	<clipPath id="z35802c8"><use xlink:href="#z35802d8"/></clipPath>
</defs>
<path style="--d:1s;" pathLength="3333" clip-path="url(#z35802c1)" d="M244 124L339 176L374 225"/>
<path style="--d:2s;" pathLength="3333" clip-path="url(#z35802c2)" d="M62 420L113 424L271 363L305 383L253 710L269 755L416 619"/>
<path style="--d:3s;" pathLength="3333" clip-path="url(#z35802c3)" d="M502 415L816 331"/>
<path style="--d:4s;" pathLength="3333" clip-path="url(#z35802c4)" d="M429 371L466 407L452 645L402 768L305 866"/>
<path style="--d:5s;" pathLength="3333" clip-path="url(#z35802c5)" d="M490 573L578 538L610 559L562 751L527 765L490 729"/>
<path style="--d:6s;" pathLength="3333" clip-path="url(#z35802c6)" d="M574 77L646 125L685 478L785 741L855 822L928 862L950 705"/>
<path style="--d:7s;" pathLength="3333" clip-path="url(#z35802c7)" d="M794 457L825 498L771 633L718 707L625 780"/>
<path style="--d:8s;" pathLength="3333" clip-path="url(#z35802c8)" d="M735 152L841 233"/>
</svg>