<!--
AnimCJK 2016-2026 Copyright FM-SH - https://github.com/parsimonhi/animCJK
Derived from:
    MakeMeAHanzi project - https://github.com/skishore/makemeahanzi
    Arphic PL KaitiM GB font
    Arphic PL KaitiM Big5 font
You can redistribute and/or modify this file under the terms of the Arphic Public License
as published by Arphic Technology Co., Ltd.
You should have received a copy of this license along with this file.
If not, see https://ftp.gnu.org/non-gnu/chinese-fonts-truetype/LICENSE.
-->
<svg id="z35810" class="acjk" viewBox="0 0 1024 1024" xmlns="http://www.w3.org/2000/svg">
<style>
<![CDATA[
@keyframes zk {
	to {
		stroke-dashoffset:0;
	}
}
svg.acjk path[clip-path] {
	--t:0.8s;
	animation:zk var(--t) linear forwards var(--d);
	stroke-dasharray:3337;
	stroke-dashoffset:3339;
	stroke-width:128;
	stroke-linecap:round;
	fill:none;
	stroke:#000;
}
svg.acjk path[id] {fill:#ccc;}
]]>
</style>
<path id="z35810d1" d="M286 166C308 183 331 204 355 226C381 249 422 245 399 175C390 149 351 129 280 113C249 106 249 121 252 131C253 139 266 150 286 166Z"/>
<path id="z35810d2" d="M162 378C127 388 100 395 82 395C60 394 59 410 72 419C98 437 123 441 146 431C218 397 258 382 265 383C273 384 275 398 275 413C275 537 274 650 248 749C242 770 248 795 279 831C286 839 293 841 300 836C305 831 308 819 318 804C339 768 378 721 429 662C444 643 440 631 425 644C401 663 375 679 352 700C322 725 313 721 314 683C314 634 316 549 330 428C331 411 339 394 356 379C363 371 365 364 358 355C349 344 332 333 306 321C297 317 288 319 276 327C227 353 189 369 162 378Z"/>
<path id="z35810d3" d="M543 320C565 290 636 171 670 122C681 105 674 87 638 65C593 38 570 49 583 75C608 127 497 333 445 397C433 411 423 445 461 410C484 389 496 382 528 340C538 327 538 327 543 320Z"/>
<path id="z35810d4" d="M732 847C723 847 697 834 654 811C645 806 635 807 652 827C681 862 701 894 712 919C719 934 726 942 736 943C750 943 763 934 779 920C827 872 860 786 873 660C879 592 883 509 883 413C883 386 888 363 904 345C911 335 916 329 916 323C915 317 908 309 895 301C876 288 855 278 832 271C817 266 788 274 742 284C630 308 563 316 543 320C535 321 520 338 528 340C566 349 646 339 715 327C767 317 807 312 815 368C821 414 823 490 817 596C810 690 792 759 770 806C757 831 746 845 732 847Z"/>
<path id="z35810d5" d="M498 456C475 440 450 434 462 461C482 506 485 569 466 644C463 652 457 662 462 681C465 699 472 710 480 718C486 724 491 724 496 717C500 710 505 703 507 694C510 677 510 677 511 668C513 654 515 628 515 592C515 575 515 575 515 566C515 522 516 494 519 482C521 471 507 463 498 456Z"/>
<path id="z35810d6" d="M650 684C658 726 676 790 709 736C721 714 724 689 722 664C719 629 716 581 714 519C713 501 717 486 727 474C731 467 732 460 728 455C718 443 697 431 669 418C659 413 649 412 641 417C604 434 557 448 498 456C487 458 508 484 519 482C533 480 571 473 635 461C643 459 651 458 657 463C670 474 667 512 665 613C665 630 663 652 654 664C651 670 649 677 650 684Z"/>
<path id="z35810d7" d="M515 592C555 586 590 582 620 578C651 573 628 549 601 546C574 542 545 550 515 566C508 570 507 594 515 592Z"/>
<path id="z35810d8" d="M507 694C549 689 617 686 650 684C657 684 659 669 654 664C625 635 631 648 511 668C502 670 498 696 507 694Z"/>
<defs>
	<clipPath id="z35810c1"><use href="#z35810d1"/></clipPath>
	<clipPath id="z35810c2"><use href="#z35810d2"/></clipPath>
	<clipPath id="z35810c3"><use href="#z35810d3"/></clipPath>
	<clipPath id="z35810c4"><use href="#z35810d4"/></clipPath>
	<clipPath id="z35810c5"><use href="#z35810d5"/></clipPath>
	<clipPath id="z35810c6"><use href="#z35810d6"/></clipPath>
	<clipPath id="z35810c7"><use href="#z35810d7"/></clipPath>
	<clipPath id="z35810c8"><use href="#z35810d8"/></clipPath>
</defs>
<path style="--d:1s;" pathLength="3333" clip-path="url(#z35810c1)" d="M254 119L351 174L395 232"/>
<path style="--d:2s;" pathLength="3333" clip-path="url(#z35810c2)" d="M68 406L120 413L280 353L316 376L285 720L302 786L432 647"/>
<path style="--d:3s;" pathLength="3333" clip-path="url(#z35810c3)" d="M587 55L629 113L534 296L441 418"/>
<path style="--d:4s;" pathLength="3333" clip-path="url(#z35810c4)" d="M535 334L796 297L865 346L842 654L799 825L733 895L650 814"/>
<path style="--d:5s;" pathLength="3333" clip-path="url(#z35810c5)" d="M466 450L495 482L485 718"/>
<path style="--d:6s;" pathLength="3333" clip-path="url(#z35810c6)" d="M503 462L650 436L697 469L690 752"/>
<path style="--d:7s;" pathLength="3333" clip-path="url(#z35810c7)" d="M513 582L630 569"/>
<path style="--d:8s;" pathLength="3333" clip-path="url(#z35810c8)" d="M510 686L652 674"/>
</svg>