<!--
AnimCJK 2016-2018 Copyright Francois Mizessyn - https://github.com/parsimonhi/animCJK
Derived from:
    MakeMeAHanzi project - https://github.com/skishore/makemeahanzi
    Arphic PL KaitiM GB - https://apps.ubuntu.com/cat/applications/precise/fonts-arphic-gkai00mp/
    Arphic PL UKai - https://apps.ubuntu.com/cat/applications/fonts-arphic-ukai/
You can redistribute and/or modify this file under the terms of the Arphic Public License
as published by Arphic Technology Co., Ltd.
You should have received a copy of this license (the directory "APL") along with this file;
if not, see http://ftp.gnu.org/non-gnu/chinese-fonts-truetype/LICENSE.
-->
<svg id="z35828" class="acjk" version="1.1" viewBox="0 0 1024 1024" xmlns="http://www.w3.org/2000/svg" xmlns:xlink="http://www.w3.org/1999/xlink">
<style>
<![CDATA[
@keyframes z35828k {
	from {
		stroke:#c00;
		stroke-dashoffset:3334;
	}
	75% {
		stroke:#c00;
		stroke-dashoffset:0;
	}
	to {
		stroke:#000;
	}
}
#z35828 path[clip-path] {
	animation:z35828k 1s linear both;
	stroke-dasharray:3334;
	stroke-width:128;
	stroke-linecap:round;
	fill:none;
}
#z35828 path[clip-path="url(#z35828c1)"] {animation-delay:1s;}
#z35828 path[clip-path="url(#z35828c2)"] {animation-delay:2s;}
#z35828 path[clip-path="url(#z35828c3)"] {animation-delay:3s;}
#z35828 path[clip-path="url(#z35828c4)"] {animation-delay:4s;}
#z35828 path[clip-path="url(#z35828c5)"] {animation-delay:5s;}
#z35828 path[clip-path="url(#z35828c6)"] {animation-delay:6s;}
#z35828 path[clip-path="url(#z35828c7)"] {animation-delay:7s;}
#z35828 path[clip-path="url(#z35828c8)"] {animation-delay:8s;}
#z35828 path[clip-path="url(#z35828c9)"] {animation-delay:9s;}
#z35828 path {fill:#ccc;}
]]>
</style>
<path id="z35828d1" d="M278 154Q306 178 335 206Q350 219 367 219Q379 218 384 204Q390 188 379 155Q367 121 272 101Q256 97 248 101Q242 105 244 119Q248 132 278 154 Z"/>
<path id="z35828d2" d="M147 413Q98 426 71 428Q56 428 54 435Q50 442 60 451Q100 478 132 463Q243 417 249 418Q250 418 253 421Q260 425 253 532Q252 644 219 745Q203 773 245 825Q255 837 265 830Q272 823 284 800Q323 749 405 660Q417 650 414 642Q413 635 402 643Q360 671 320 702Q278 738 285 685Q285 621 310 462Q314 438 336 416Q349 406 339 393Q329 377 291 360Q279 353 262 364Q189 401 147 413 Z"/>
<path id="z35828d3" d="M490 180Q526 237 555 253Q568 257 579 247Q586 235 587 219Q580 176 507 145Q492 138 482 141Q476 141 477 153Q477 165 490 180 Z"/>
<path id="z35828d4" d="M723 110Q708 137 634 237Q624 255 642 250Q699 210 768 152Q787 134 810 123Q831 111 819 94Q804 78 777 64Q752 52 739 56Q726 57 732 72Q736 90 723 110 Z"/>
<path id="z35828d5" d="M484 334Q472 330 452 328Q440 325 437 330Q430 336 439 352Q467 406 484 493Q488 520 504 537Q522 559 527 543Q528 536 530 525L528 491Q521 476 508 365L484 334 Z"/>
<path id="z35828d6" d="M738 463Q766 376 800 355Q816 336 802 318Q786 303 731 278Q713 271 691 279Q618 312 484 334L508 365Q523 359 676 328Q695 324 703 330Q716 346 684 457L738 463 Z"/>
<path id="z35828d7" d="M651 507Q691 500 748 495Q758 494 760 485Q760 478 738 463L684 457L683 457Q598 479 528 491L530 525Q537 526 547 524Q572 517 611 512L651 507 Z"/>
<path id="z35828d8" d="M490 597Q500 696 416 788Q394 816 335 868Q328 875 335 877Q342 880 351 875Q450 835 512 731Q527 703 543 666Q550 648 561 630Q568 621 563 612Q557 603 529 588Q510 578 501 579Q488 583 490 597 Z"/>
<path id="z35828d9" d="M973 792Q960 764 941 676Q940 660 933 654Q927 650 922 669Q894 763 875 792Q865 805 834 812Q764 827 705 805Q683 793 676 779Q649 728 682 553Q686 528 651 507L611 512Q611 516 614 524Q627 564 624 603Q614 756 627 799Q631 821 651 840Q726 904 882 874Q888 871 894 871Q931 861 966 835Q987 819 973 792 Z"/>
<defs>
	<clipPath id="z35828c1"><use xlink:href="#z35828d1"/></clipPath>
	<clipPath id="z35828c2"><use xlink:href="#z35828d2"/></clipPath>
	<clipPath id="z35828c3"><use xlink:href="#z35828d3"/></clipPath>
	<clipPath id="z35828c4"><use xlink:href="#z35828d4"/></clipPath>
	<clipPath id="z35828c5"><use xlink:href="#z35828d5"/></clipPath>
	<clipPath id="z35828c6"><use xlink:href="#z35828d6"/></clipPath>
	<clipPath id="z35828c7"><use xlink:href="#z35828d7"/></clipPath>
	<clipPath id="z35828c8"><use xlink:href="#z35828d8"/></clipPath>
	<clipPath id="z35828c9"><use xlink:href="#z35828d9"/></clipPath>
</defs>
<path pathLength="3333" clip-path="url(#z35828c1)" d="M248 110L330 154L378 208"/>
<path pathLength="3333" clip-path="url(#z35828c2)" d="M59 438L119 443L268 389L298 414L252 741L270 780L408 647"/>
<path pathLength="3333" clip-path="url(#z35828c3)" d="M484 148L580 241"/>
<path pathLength="3333" clip-path="url(#z35828c4)" d="M738 60L773 109L638 244"/>
<path pathLength="3333" clip-path="url(#z35828c5)" d="M441 335L482 377L518 544"/>
<path pathLength="3333" clip-path="url(#z35828c6)" d="M494 338L718 304L757 345L703 458"/>
<path pathLength="3333" clip-path="url(#z35828c7)" d="M538 517L754 481"/>
<path pathLength="3333" clip-path="url(#z35828c8)" d="M499 587L527 628L492 718L342 874"/>
<path pathLength="3333" clip-path="url(#z35828c9)" d="M619 518L652 553L648 779L695 833L807 850L907 822L933 785L930 664"/>
</svg>