<!--
AnimCJK 2016-2017 Copyright Francois Mizessyn, http://gooo.free.fr/animCJK/
Derived from:
    MakeMeAHanzi project - https://github.com/skishore/makemeahanzi
    Arphic PL KaitiM GB - https://apps.ubuntu.com/cat/applications/precise/fonts-arphic-gkai00mp/
    Arphic PL UKai - https://apps.ubuntu.com/cat/applications/fonts-arphic-ukai/
You can redistribute and/or modify this file under the terms of the Arphic Public License
as published by Arphic Technology Co., Ltd.
You should have received a copy of this license (the directory "APL") along with this file;
if not, see http://ftp.gnu.org/non-gnu/chinese-fonts-truetype/LICENSE.
-->
<svg id="z35838" class="acjk" version="1.1" viewBox="0 0 1024 1024" xmlns="http://www.w3.org/2000/svg" xmlns:xlink="http://www.w3.org/1999/xlink">
<style>
<![CDATA[
	@keyframes z35838k {
		from {
			stroke:#c00;
			stroke-dashoffset:3000;
		}
		75% {
			stroke:#c00;
			stroke-dashoffset:0;
		}
		to {
			stroke:#000;
		}
	}
	#z35838 path[clip-path] {
		animation:z35838k 1s linear both;
		stroke-dasharray:3000;
		stroke-width:128;
		stroke-linecap:round;
		fill:none;
	}
	#z35838 path[clip-path="url(#z35838c1)"] {animation-delay:1s;}
	#z35838 path[clip-path="url(#z35838c2)"] {animation-delay:2s;}
	#z35838 path[clip-path="url(#z35838c3)"] {animation-delay:3s;}
	#z35838 path[clip-path="url(#z35838c4)"] {animation-delay:4s;}
	#z35838 path[clip-path="url(#z35838c5)"] {animation-delay:5s;}
	#z35838 path[clip-path="url(#z35838c6)"] {animation-delay:6s;}
	#z35838 path[clip-path="url(#z35838c7)"] {animation-delay:7s;}
	#z35838 path[clip-path="url(#z35838c8)"] {animation-delay:8s;}
	#z35838 path[clip-path="url(#z35838c9)"] {animation-delay:9s;}
	#z35838 path[clip-path="url(#z35838c10)"] {animation-delay:10s;}
	#z35838 path {fill:#ccc;}
]]>
</style>
<g transform="scale(1,-1) translate(0,-900)">
	<path id="z35838d1" d="M258 719Q286 692 317 661Q330 646 348 647Q358 647 365 661Q369 676 362 708Q353 741 255 769Q239 773 232 771Q226 767 228 754Q231 742 258 719Z"/>
	<path id="z35838d2" d="M149 474Q100 458 73 455Q60 455 57 448Q53 439 64 432Q86 419 102 417Q118 413 218 464Q243 477 252 469Q262 463 257 438Q250 263 220 168Q199 138 245 87Q255 74 265 81Q272 88 284 111Q320 159 397 240Q409 250 406 258Q405 265 394 257Q357 235 322 208Q277 172 286 227Q286 285 309 430Q313 454 335 476Q347 486 338 499Q328 515 289 531Q279 538 261 527Q189 487 149 474Z"/>
	<path id="z35838d3" d="M458 720Q448 724 426 729Q414 732 411 727Q404 721 412 706Q442 636 456 524Q459 490 477 467Q493 446 499 461Q500 468 502 479L502 511Q501 523 500 535Q481 653 477 688L458 720Z"/>
	<path id="z35838d4" d="M701 506Q717 481 732 473Q742 464 759 486Q775 511 810 649Q820 680 844 705Q857 717 846 732Q831 748 788 776Q767 788 689 766Q574 744 458 720L477 688Q476 689 478 689Q518 702 578 713L612 719Q732 747 749 731Q762 715 758 699Q731 558 711 538L701 506Z"/>
	<path id="z35838d5" d="M636 607Q667 616 697 620Q719 626 709 637Q699 650 674 653Q658 654 636 647L587 630Q557 620 530 609Q514 605 534 591L588 596L636 607Z"/>
	<path id="z35838d6" d="M636 499Q664 503 701 506L711 538Q696 553 660 544Q647 541 636 538L588 527Q542 518 502 511L502 479Q506 479 512 480Q540 487 588 493L636 499Z"/>
	<path id="z35838d7" d="M635 362Q720 375 854 378Q909 378 916 387Q920 399 905 411Q857 445 821 437Q751 421 635 399L587 391Q494 378 391 361Q372 358 386 343Q399 330 417 326Q436 322 451 326Q499 341 555 350L635 362Z"/>
	<path id="z35838d8" d="M634 361Q634 362 635 362L635 399Q635 448 636 499L636 538Q636 562 637 586Q636 598 636 607L636 647Q637 678 640 686Q643 698 634 705Q627 712 612 719L578 713Q585 700 587 673Q587 652 587 630L588 596Q588 562 588 527L588 493Q588 444 587 391L585 306Q585 126 573 42Q570 0 595 -33Q607 -48 617 -30Q641 18 635 105Q635 132 634 318L634 361Z"/>
	<path id="z35838d9" d="M555 350Q524 242 317 95Q302 83 317 82Q348 79 442 141Q481 171 534 232Q565 272 585 306L586.1452184179457 354.67178276269186L555 350Z"/>
	<path id="z35838d10" d="M634 318Q700 221 783 117Q801 98 830 98Q930 101 961 106Q971 107 972 113Q973 117 960 125Q818 185 739 258Q688 304 634 361L634 318Z"/>
	<defs>
		<clipPath id="z35838c1"><use xlink:href="#z35838d1"/></clipPath>
		<clipPath id="z35838c2"><use xlink:href="#z35838d2"/></clipPath>
		<clipPath id="z35838c3"><use xlink:href="#z35838d3"/></clipPath>
		<clipPath id="z35838c4"><use xlink:href="#z35838d4"/></clipPath>
		<clipPath id="z35838c5"><use xlink:href="#z35838d5"/></clipPath>
		<clipPath id="z35838c6"><use xlink:href="#z35838d6"/></clipPath>
		<clipPath id="z35838c7"><use xlink:href="#z35838d7"/></clipPath>
		<clipPath id="z35838c8"><use xlink:href="#z35838d8"/></clipPath>
		<clipPath id="z35838c9"><use xlink:href="#z35838d9"/></clipPath>
		<clipPath id="z35838c10"><use xlink:href="#z35838d10"/></clipPath>
	</defs>
	<path pathLength="2999" clip-path="url(#z35838c1)" d="M236 761L326 701L354 654"/>
	<path pathLength="2999" clip-path="url(#z35838c2)" d="M63 445L119 442L251 499L291 488L251 172L268 133L400 253"/>
	<path pathLength="2999" clip-path="url(#z35838c3)" d="M415 721L451 679L490 461"/>
	<path pathLength="2999" clip-path="url(#z35838c4)" d="M466 717L728 757L777 747L804 709L718 486"/>
	<path pathLength="2999" clip-path="url(#z35838c5)" d="M531 600L707 633"/>
	<path pathLength="2999" clip-path="url(#z35838c6)" d="M508 487L707 528"/>
	<path pathLength="2999" clip-path="url(#z35838c7)" d="M391 349L807 406L912 398"/>
	<path pathLength="2999" clip-path="url(#z35838c8)" d="M586 712L613 684L602 -33"/>
	<path pathLength="2999" clip-path="url(#z35838c9)" d="M576 347L468 191L317 89"/>
	<path pathLength="2999" clip-path="url(#z35838c10)" d="M636 353L802 157L964 115"/>
</g>
</svg>