<!--
AnimCJK 2016-2017 Copyright Francois Mizessyn, http://gooo.free.fr/animCJK/
Derived from:
    MakeMeAHanzi project - https://github.com/skishore/makemeahanzi
    Arphic PL KaitiM GB - https://apps.ubuntu.com/cat/applications/precise/fonts-arphic-gkai00mp/
    Arphic PL UKai - https://apps.ubuntu.com/cat/applications/fonts-arphic-ukai/
You can redistribute and/or modify this file under the terms of the Arphic Public License
as published by Arphic Technology Co., Ltd.
You should have received a copy of this license (the directory "APL") along with this file;
if not, see http://ftp.gnu.org/non-gnu/chinese-fonts-truetype/LICENSE.
-->
<svg id="z35845" class="acjk" version="1.1" viewBox="0 0 1024 1024" xmlns="http://www.w3.org/2000/svg" xmlns:xlink="http://www.w3.org/1999/xlink">
<style>
<![CDATA[
	@keyframes z35845k {
		from {
			stroke:#c00;
			stroke-dashoffset:3000;
		}
		75% {
			stroke:#c00;
			stroke-dashoffset:0;
		}
		to {
			stroke:#000;
		}
	}
	#z35845 path[clip-path] {
		animation:z35845k 1s linear both;
		stroke-dasharray:3000;
		stroke-width:128;
		stroke-linecap:round;
		fill:none;
	}
	#z35845 path[clip-path="url(#z35845c1)"] {animation-delay:1s;}
	#z35845 path[clip-path="url(#z35845c2)"] {animation-delay:2s;}
	#z35845 path[clip-path="url(#z35845c3)"] {animation-delay:3s;}
	#z35845 path[clip-path="url(#z35845c4)"] {animation-delay:4s;}
	#z35845 path[clip-path="url(#z35845c5)"] {animation-delay:5s;}
	#z35845 path[clip-path="url(#z35845c6)"] {animation-delay:6s;}
	#z35845 path[clip-path="url(#z35845c7)"] {animation-delay:7s;}
	#z35845 path[clip-path="url(#z35845c8)"] {animation-delay:8s;}
	#z35845 path[clip-path="url(#z35845c9)"] {animation-delay:9s;}
	#z35845 path[clip-path="url(#z35845c10)"] {animation-delay:10s;}
	#z35845 path {fill:#ccc;}
]]>
</style>
<g transform="scale(1,-1) translate(0,-900)">
	<path id="z35845d1" d="M301 771Q338 747 378 717Q394 705 410 708Q420 709 425 724Q428 740 415 770Q399 806 291 821Q275 822 268 819Q264 815 266 801Q270 791 301 771Z"/>
	<path id="z35845d2" d="M136 503Q85 487 57 485Q42 485 40 477Q36 468 47 461Q89 434 117 447Q238 504 245 503Q248 504 252 501Q261 495 254 383Q253 262 221 153Q206 122 250 69Q262 57 271 64Q278 71 290 96Q330 153 413 250Q425 263 422 270Q421 279 409 268Q366 237 324 200Q284 164 289 216Q288 286 311 459Q315 484 338 508Q351 518 340 532Q330 548 290 566Q277 572 260 561Q181 518 136 503Z"/>
	<path id="z35845d3" d="M600 784Q654 730 687 717Q702 714 711 729Q717 742 713 759Q701 801 611 824Q595 828 585 824Q578 823 582 810Q583 798 600 784Z"/>
	<path id="z35845d4" d="M463 618Q444 615 459 599Q472 586 490 582Q511 578 526 583Q682 632 897 632Q916 633 921 642Q925 654 909 666Q852 705 796 684Q667 657 463 618Z"/>
	<path id="z35845d5" d="M532 492Q522 496 497 500Q487 503 483 498Q477 492 485 477Q507 434 524 362Q527 340 541 327Q557 306 562 321Q565 328 565 341L562 371Q550 441 550 464L532 492Z"/>
	<path id="z35845d6" d="M773 399Q800 457 829 475Q845 491 832 509Q771 560 732 548Q639 511 532 492L550 464Q571 467 715 501Q734 505 741 498Q748 491 745 477Q735 440 724 409L773 399Z"/>
	<path id="z35845d7" d="M655 352Q706 362 780 369Q790 370 792 380Q792 387 773 399L724 409Q717 409 715 407Q630 383 562 371L565 341Q566 341 568 340Q578 337 591 341Q604 345 623 347L655 352Z"/>
	<path id="z35845d8" d="M623 347Q623 343 626 336Q639 300 640 188Q641 106 633 86Q630 73 605 75Q575 82 544 87Q532 87 531 80Q530 74 541 65Q610 13 633 -19Q649 -32 661 -30Q671 -26 683 9Q699 43 696 107Q692 225 695 268Q702 310 683 331Q667 346 655 352L623 347Z"/>
	<path id="z35845d9" d="M500 254Q472 202 435 157Q413 127 426 93Q432 75 453 85Q475 98 492 128Q514 164 518 196Q527 227 522 251Q518 260 513 261Q504 261 500 254Z"/>
	<path id="z35845d10" d="M761 244Q812 196 873 127Q889 106 904 102Q913 101 921 111Q934 124 922 169Q909 224 763 276Q753 282 751 269Q750 256 761 244Z"/>
	<defs>
		<clipPath id="z35845c1"><use xlink:href="#z35845d1"/></clipPath>
		<clipPath id="z35845c2"><use xlink:href="#z35845d2"/></clipPath>
		<clipPath id="z35845c3"><use xlink:href="#z35845d3"/></clipPath>
		<clipPath id="z35845c4"><use xlink:href="#z35845d4"/></clipPath>
		<clipPath id="z35845c5"><use xlink:href="#z35845d5"/></clipPath>
		<clipPath id="z35845c6"><use xlink:href="#z35845d6"/></clipPath>
		<clipPath id="z35845c7"><use xlink:href="#z35845d7"/></clipPath>
		<clipPath id="z35845c8"><use xlink:href="#z35845d8"/></clipPath>
		<clipPath id="z35845c9"><use xlink:href="#z35845d9"/></clipPath>
		<clipPath id="z35845c10"><use xlink:href="#z35845d10"/></clipPath>
	</defs>
	<path pathLength="2999" clip-path="url(#z35845c1)" d="M272 816L376 761L417 715"/>
	<path pathLength="2999" clip-path="url(#z35845c2)" d="M45 474L104 468L265 534L296 517L258 181L273 116L416 266"/>
	<path pathLength="2999" clip-path="url(#z35845c3)" d="M587 817L703 724"/>
	<path pathLength="2999" clip-path="url(#z35845c4)" d="M462 606L824 661L916 646"/>
	<path pathLength="2999" clip-path="url(#z35845c5)" d="M489 490L526 449L555 323"/>
	<path pathLength="2999" clip-path="url(#z35845c6)" d="M539 490L757 522L791 487L743 406"/>
	<path pathLength="2999" clip-path="url(#z35845c7)" d="M571 347L724 386L786 381"/>
	<path pathLength="2999" clip-path="url(#z35845c8)" d="M631 345L666 293L657 46L634 21L537 81"/>
	<path pathLength="2999" clip-path="url(#z35845c9)" d="M509 254L439 86"/>
	<path pathLength="2999" clip-path="url(#z35845c10)" d="M757 273L878 176L906 106"/>
</g>
</svg>