<!--
AnimCJK 2016-2019 Copyright Francois Mizessyn - https://github.com/parsimonhi/animCJK
Derived from:
    MakeMeAHanzi project - https://github.com/skishore/makemeahanzi
    Arphic PL KaitiM GB font
    Arphic PL UKai font
You can redistribute and/or modify this file under the terms of the Arphic Public License
as published by Arphic Technology Co., Ltd.
You should have received a copy of this license along with this file.
If not, see http://ftp.gnu.org/non-gnu/chinese-fonts-truetype/LICENSE.
-->
<svg id="z35841" class="acjk" version="1.1" viewBox="0 0 1024 1024" xmlns="http://www.w3.org/2000/svg" xmlns:xlink="http://www.w3.org/1999/xlink">
<style>
<![CDATA[
@keyframes zk {
	to {
		stroke-dashoffset:0;
	}
}
svg.acjk path[clip-path] {
	--t:0.8s;
	animation:zk var(--t) linear forwards var(--d);
	stroke-dasharray:3337;
	stroke-dashoffset:3339;
	stroke-width:128;
	stroke-linecap:round;
	fill:none;
	stroke:#000;
}
svg.acjk path[id] {fill:#ccc;}
]]>
</style>
<path id="z35841d1" d="M246 133Q312 211 340 212Q356 213 365 191Q366 175 354 149Q342 130 314 121Q271 102 252 99Q240 98 239 112Q238 122 246 133Z"/>
<path id="z35841d2" d="M138 390Q86 406 58 407Q43 406 41 414Q37 423 48 431Q87 458 116 446Q156 427 194 408Q222 395 232 402Q242 409 236 438Q236 478 234 519Q233 637 201 743Q183 776 229 827Q239 840 250 833Q257 826 269 801Q306 752 384 665Q397 653 394 646Q393 637 381 647Q344 672 308 699Q262 738 269 680Q268 613 291 445Q295 420 318 396Q331 386 321 372Q311 356 270 338Q258 331 240 343Q176 377 138 390Z"/>
<path id="z35841d3" d="M458 380Q465 368 475 357Q524 294 576 200Q597 157 617 135Q626 123 620 110Q616 98 586 77Q558 61 540 62Q521 65 531 86Q544 113 536 138Q508 220 462 299Q419 374 357 457Q347 467 346 474Q343 486 357 482Q373 478 438 406C451 389 451 389 458 380Z"/>
<path id="z35841d4" d="M508 750Q508 527 517 472Q524 445 515 434Q496 413 483 399Q473 386 458 380C448 376 436 395 438 406Q442 424 451 436Q484 508 461 706Q454 764 438 825Q428 870 462 921Q463 921 465 924Q483 940 495 913Q507 877 508 774C508 758 508 758 508 750Z"/>
<path id="z35841d5" d="M666 206Q685 225 707 248Q720 261 737 261Q747 261 753 247Q757 232 749 203Q745 187 718 174Q651 152 640 157Q636 161 636 174Q640 184 666 206Z"/>
<path id="z35841d6" d="M700 371Q847 326 848 326Q855 319 851 311Q844 301 817 295Q789 291 763 304Q723 320 678 334Q629 349 570 357Q537 364 562 379Q604 400 654 382C669 376 685 374 700 371Z"/>
<path id="z35841d7" d="M717 511Q772 501 819 493Q841 489 833 476Q823 461 797 457Q788 456 718 470C686 479 686 479 670 484Q627 496 587 507Q571 511 591 525Q597 529 670 521C701 514 701 514 717 511Z"/>
<path id="z35841d8" d="M714 623Q778 610 835 600Q857 596 849 584Q839 569 813 565Q777 561 715 583C685 591 685 591 670 595Q619 607 575 619Q559 623 579 637Q592 646 618 641Q643 635 671 631C700 626 700 626 714 623Z"/>
<path id="z35841d9" d="M713 711Q713 665 714 623C715 596 715 596 715 583Q715 546 717 511C718 484 718 484 718 470Q718 442 720 413Q727 394 700 371C689 360 650 368 656 382Q665 398 670 484C670 509 670 509 670 521Q670 552 670 595C671 619 671 619 671 631Q671 670 671 719C671 733 713 725 713 711Z"/>
<path id="z35841d10" d="M671 719Q596 734 508 750C500 751 501 770 508 774Q539 793 570 785Q711 745 901 744Q920 743 925 734Q929 722 913 710Q856 671 793 693Q759 699 713 711C685 716 685 716 671 719Z"/>
<defs>
	<clipPath id="z35841c1"><use xlink:href="#z35841d1"/></clipPath>
	<clipPath id="z35841c2"><use xlink:href="#z35841d2"/></clipPath>
	<clipPath id="z35841c3"><use xlink:href="#z35841d3"/></clipPath>
	<clipPath id="z35841c4"><use xlink:href="#z35841d4"/></clipPath>
	<clipPath id="z35841c5"><use xlink:href="#z35841d5"/></clipPath>
	<clipPath id="z35841c6"><use xlink:href="#z35841d6"/></clipPath>
	<clipPath id="z35841c7"><use xlink:href="#z35841d7"/></clipPath>
	<clipPath id="z35841c8"><use xlink:href="#z35841d8"/></clipPath>
	<clipPath id="z35841c9"><use xlink:href="#z35841d9"/></clipPath>
	<clipPath id="z35841c10"><use xlink:href="#z35841d10"/></clipPath>
</defs>
<path style="--d:1s;" pathLength="3333" clip-path="url(#z35841c1)" d="M244 110L350 207"/>
<path style="--d:2s;" pathLength="3333" clip-path="url(#z35841c2)" d="M44 416L102 425L245 370L279 393L234 737L247 773L266 780L387 651"/>
<path style="--d:3s;" pathLength="3333" clip-path="url(#z35841c3)" d="M536 71L579 114L574 138L474 322L353 474"/>
<path style="--d:4s;" pathLength="3333" clip-path="url(#z35841c4)" d="M457 389L489 451L491 510L468 924"/>
<path style="--d:5s;" pathLength="3333" clip-path="url(#z35841c5)" d="M644 166L711 206L743 254"/>
<path style="--d:6s;" pathLength="3333" clip-path="url(#z35841c6)" d="M561 368L846 315"/>
<path style="--d:7s;" pathLength="3333" clip-path="url(#z35841c7)" d="M588 515L828 476"/>
<path style="--d:8s;" pathLength="3333" clip-path="url(#z35841c8)" d="M578 626L846 584"/>
<path style="--d:9s;" pathLength="3333" clip-path="url(#z35841c9)" d="M663 384L693 415L690 715"/>
<path style="--d:10s;" pathLength="3333" clip-path="url(#z35841c10)" d="M515 756L830 715L920 729"/>
</svg>