<!--
AnimCJK 2016-2025 Copyright FM-SH - https://github.com/parsimonhi/animCJK
Derived from:
    MakeMeAHanzi project - https://github.com/skishore/makemeahanzi
    Arphic PL KaitiM GB font
    Arphic PL UKai font
You can redistribute and/or modify this file under the terms of the Arphic Public License
as published by Arphic Technology Co., Ltd.
You should have received a copy of this license along with this file.
If not, see http://ftp.gnu.org/non-gnu/chinese-fonts-truetype/LICENSE.
-->
<svg id="z35866" class="acjk" version="1.1" viewBox="0 0 1024 1024" xmlns="http://www.w3.org/2000/svg" xmlns:xlink="http://www.w3.org/1999/xlink">
<style>
<![CDATA[
@keyframes zk {
	to {
		stroke-dashoffset:0;
	}
}
svg.acjk path[clip-path] {
	--t:0.8s;
	animation:zk var(--t) linear forwards var(--d);
	stroke-dasharray:3337;
	stroke-dashoffset:3339;
	stroke-width:128;
	stroke-linecap:round;
	fill:none;
	stroke:#000;
}
svg.acjk path[id] {fill:#ccc;}
]]>
</style>
<path id="z35866d1" d="M271 134C291 148 312 165 333 184C343 193 354 196 365 195C371 194 377 189 381 180C384 169 380 153 373 133C364 111 328 94 263 84C252 82 244 82 240 85C235 87 234 93 237 103C239 109 251 119 271 134Z"/>
<path id="z35866d2" d="M127 378C93 390 66 397 48 399C38 399 32 402 31 408C28 414 30 419 39 424C64 437 91 442 115 432C184 400 218 379 223 379C240 377 237 406 237 414C234 526 229 621 205 696C198 717 204 744 234 779C241 787 249 789 255 784C259 779 264 767 274 752C296 716 334 669 385 610C392 600 395 594 394 590C392 584 389 585 381 592C356 610 331 627 308 648C280 671 271 667 273 632C274 591 278 521 292 421C294 404 301 387 318 371C325 363 326 356 320 348C311 337 294 326 268 315C259 311 250 312 239 320C191 349 153 368 127 378Z"/>
<path id="z35866d3" d="M605 60C649 107 679 130 696 132C705 132 713 126 716 113C717 104 714 92 706 78C698 65 685 57 668 51C639 40 620 33 609 31C602 29 599 34 599 42C598 48 599 54 605 60Z"/>
<path id="z35866d4" d="M748 201C758 199 771 196 786 194C818 187 836 181 842 177C848 171 850 166 847 160C842 151 830 144 810 140C791 135 749 148 681 164C583 186 519 192 491 195C466 197 461 206 480 218C507 235 540 238 579 231C622 222 668 215 715 207C737 203 737 203 748 201Z"/>
<path id="z35866d5" d="M527 310C539 323 551 339 563 355C569 363 576 367 584 368C588 368 593 365 597 359C601 352 601 341 599 325C597 314 591 303 576 295C540 275 518 268 512 270C509 270 507 274 507 282C507 288 514 296 527 310Z"/>
<path id="z35866d6" d="M710 367C729 337 749 285 781 257C789 249 791 243 787 236C776 223 761 209 748 201C738 195 708 198 715 207C721 213 722 226 719 247C714 275 696 325 677 375C673 386 703 376 710 367Z"/>
<path id="z35866d7" d="M498 449C517 451 663 412 895 376C901 374 912 374 913 365C914 342 860 334 846 335C825 337 794 346 710 367C688 372 688 372 677 375C652 381 531 399 489 406C475 408 483 449 498 449Z"/>
<path id="z35866d8" d="M489 406C458 387 438 379 428 380C415 381 413 388 422 405C438 436 440 515 416 639C397 732 332 814 269 866C259 874 252 879 251 883C248 887 252 890 260 891C282 892 317 874 364 832C418 782 454 694 479 573C487 530 492 465 498 449C503 435 501 415 489 406Z"/>
<path id="z35866d9" d="M671 453C662 492 615 549 528 621C516 630 517 632 534 631C577 626 630 591 693 526C702 516 709 506 735 484C742 477 743 471 742 465C739 457 731 450 717 446C700 440 688 438 681 440C676 441 672 444 671 453Z"/>
<path id="z35866d10" d="M719 545C711 589 653 658 540 749C528 758 529 760 546 759C595 754 660 711 735 628C739 623 753 604 783 575C789 568 791 562 790 557C787 549 779 542 765 538C748 532 736 530 729 532C724 533 720 536 719 545Z"/>
<path id="z35866d11" d="M766 649C768 696 726 762 638 842C590 884 537 920 495 948C488 951 487 957 496 957C591 948 669 877 701 850C731 823 773 782 824 724C833 713 848 705 848 693C847 686 844 678 837 669C819 646 798 635 775 635C768 635 765 640 766 649Z"/>
<defs>
	<clipPath id="z35866c1"><use xlink:href="#z35866d1"/></clipPath>
	<clipPath id="z35866c2"><use xlink:href="#z35866d2"/></clipPath>
	<clipPath id="z35866c3"><use xlink:href="#z35866d3"/></clipPath>
	<clipPath id="z35866c4"><use xlink:href="#z35866d4"/></clipPath>
	<clipPath id="z35866c5"><use xlink:href="#z35866d5"/></clipPath>
	<clipPath id="z35866c6"><use xlink:href="#z35866d6"/></clipPath>
	<clipPath id="z35866c7"><use xlink:href="#z35866d7"/></clipPath>
	<clipPath id="z35866c8"><use xlink:href="#z35866d8"/></clipPath>
	<clipPath id="z35866c9"><use xlink:href="#z35866d9"/></clipPath>
	<clipPath id="z35866c10"><use xlink:href="#z35866d10"/></clipPath>
	<clipPath id="z35866c11"><use xlink:href="#z35866d11"/></clipPath>
</defs>
<path style="--d:1s;" pathLength="3333" clip-path="url(#z35866c1)" d="M242 91L375 184"/>
<path style="--d:2s;" pathLength="3333" clip-path="url(#z35866c2)" d="M35 410L104 411L231 350L276 365L241 682L257 731L386 595"/>
<path style="--d:3s;" pathLength="3333" clip-path="url(#z35866c3)" d="M607 40L710 119"/>
<path style="--d:4s;" pathLength="3333" clip-path="url(#z35866c4)" d="M475 203L555 211L842 167"/>
<path style="--d:5s;" pathLength="3333" clip-path="url(#z35866c5)" d="M514 274L589 363"/>
<path style="--d:6s;" pathLength="3333" clip-path="url(#z35866c6)" d="M724 207L753 251L686 375"/>
<path style="--d:7s;" pathLength="3333" clip-path="url(#z35866c7)" d="M487 415L906 361"/>
<path style="--d:8s;" pathLength="3333" clip-path="url(#z35866c8)" d="M423 387L466 447L424 690L365 798L256 883"/>
<path style="--d:9s;" pathLength="3333" clip-path="url(#z35866c9)" d="M680 447L697 482L531 625"/>
<path style="--d:10s;" pathLength="3333" clip-path="url(#z35866c10)" d="M728 539L746 573L713 615L542 752"/>
<path style="--d:11s;" pathLength="3333" clip-path="url(#z35866c11)" d="M773 644L803 693L731 785L614 890L501 951"/>
</svg>