<!--
AnimCJK 2016-2019 Copyright Francois Mizessyn - https://github.com/parsimonhi/animCJK
Derived from:
    MakeMeAHanzi project - https://github.com/skishore/makemeahanzi
    Arphic PL KaitiM GB font
    Arphic PL UKai font
You can redistribute and/or modify this file under the terms of the Arphic Public License
as published by Arphic Technology Co., Ltd.
You should have received a copy of this license along with this file.
If not, see http://ftp.gnu.org/non-gnu/chinese-fonts-truetype/LICENSE.
-->
<svg id="z35874" class="acjk" version="1.1" viewBox="0 0 1024 1024" xmlns="http://www.w3.org/2000/svg" xmlns:xlink="http://www.w3.org/1999/xlink">
<style>
<![CDATA[
@keyframes zk {
	to {
		stroke-dashoffset:0;
	}
}
svg.acjk path[clip-path] {
	--t:0.8s;
	animation:zk var(--t) linear forwards var(--d);
	stroke-dasharray:3337;
	stroke-dashoffset:3339;
	stroke-width:128;
	stroke-linecap:round;
	fill:none;
	stroke:#000;
}
svg.acjk path[id] {fill:#ccc;}
]]>
</style>
<path id="z35874d1" d="M225 189Q252 210 279 235Q294 248 310 246Q320 245 325 232Q329 216 318 187Q312 168 282 156Q209 135 196 141Q192 145 193 158Q197 168 225 189Z"/>
<path id="z35874d2" d="M135 397C104 409 80 417 64 419C55 419 50 421 49 426C46 432 48 437 56 441C81 455 103 458 120 449C141 436 160 423 180 411C194 401 204 400 210 404C216 407 217 416 218 433C219 545 213 643 188 727C180 750 186 774 215 804C221 810 228 812 234 808C239 803 242 792 251 779C270 747 304 707 350 656C356 648 359 643 358 638C357 633 353 634 346 640C325 654 304 668 284 685C256 707 247 702 249 669C250 624 255 547 267 438C268 423 274 408 289 393C295 386 296 379 291 372C284 362 267 353 243 343C235 340 227 340 217 348C182 371 155 388 135 397Z"/>
<path id="z35874d3" d="M437 242C473 205 554 122 566 113C576 104 578 95 570 87C561 79 548 72 531 68C516 63 505 62 498 65C491 67 489 72 493 80C499 96 473 140 423 230C420 235 433 247 437 242Z"/>
<path id="z35874d4" d="M423 230C419 228 410 224 404 223C397 221 391 220 386 223C381 225 379 230 382 236C389 258 397 291 399 337C400 377 399 449 401 553C401 566 440 556 440 543C440 517 440 492 441 470C442 453 442 453 442 444C442 421 442 399 443 378C444 361 444 361 444 352C445 324 445 296 447 269C447 269 444 252 441 246C440 244 438 243 437 242C433 238 429 232 423 230Z"/>
<path id="z35874d5" d="M447 269C451 269 483 261 543 243C553 239 561 237 564 244C573 266 579 355 573 510C572 527 572 527 572 535C571 579 571 579 571 601C568 743 562 824 552 829C542 832 528 829 489 821C477 818 468 819 473 824C500 853 528 873 545 895C552 905 559 911 569 915C573 916 579 915 584 910C608 882 619 853 618 823C613 696 614 530 617 326C617 293 619 269 627 256C633 245 633 236 627 231C614 220 598 210 578 203C567 198 557 198 549 204C520 221 484 237 441 246C433 247 439 271 447 269Z"/>
<path id="z35874d6" d="M443 378C449 377 511 362 539 357C551 354 555 349 549 342C542 335 532 331 518 329C494 327 469 334 444 352C437 356 434 380 443 378Z"/>
<path id="z35874d7" d="M441 470Q442 470 447 470Q504 458 546 450Q565 446 557 435Q547 422 524 420Q494 417 442 444C435 448 432 470 441 470Z"/>
<path id="z35874d8" d="M401 553C391 555 383 556 372 558C361 559 347 560 331 560C324 559 320 563 319 569C317 575 317 581 323 586C334 595 348 605 366 616C370 618 376 616 383 612C406 595 472 567 541 545C569 536 602 504 573 510C530 520 485 531 440 543C414 550 414 550 401 553Z"/>
<path id="z35874d9" d="M541 545C521 615 445 697 314 792C303 800 303 805 313 806C319 806 336 801 362 791C392 779 421 762 449 740C473 720 499 694 526 663C544 641 559 620 571 601C603 548 553 485 541 545Z"/>
<path id="z35874d10" d="M849 393C849 392 878 385 936 377C942 376 950 374 954 365C956 358 947 351 933 345C907 334 879 338 849 347C816 356 816 356 799 361C759 372 707 381 643 393C624 396 621 403 637 413C660 428 681 432 697 428C727 419 762 412 800 404C833 397 833 397 849 393Z"/>
<path id="z35874d11" d="M800 404C802 496 803 620 806 778C806 792 801 803 794 810C789 814 765 813 725 802C702 795 693 792 695 799C696 803 702 811 716 822C756 854 782 880 792 900C802 921 813 934 824 935C834 936 843 924 853 900C865 869 871 829 868 781C858 652 849 523 849 393C849 362 849 362 849 347C849 276 850 220 864 182C871 160 860 146 824 131C800 121 783 115 771 120C759 124 758 135 770 150C784 168 792 188 794 210C794 220 796 271 799 361C800 390 800 390 800 404Z"/>
<path id="z35874d12" d="M684 551Q703 575 722 602Q732 615 746 617Q755 618 761 607Q768 595 764 568Q763 552 738 535Q680 502 668 505Q664 508 663 519Q664 529 684 551Z"/>
<defs>
	<clipPath id="z35874c1"><use xlink:href="#z35874d1"/></clipPath>
	<clipPath id="z35874c2"><use xlink:href="#z35874d2"/></clipPath>
	<clipPath id="z35874c3"><use xlink:href="#z35874d3"/></clipPath>
	<clipPath id="z35874c4"><use xlink:href="#z35874d4"/></clipPath>
	<clipPath id="z35874c5"><use xlink:href="#z35874d5"/></clipPath>
	<clipPath id="z35874c6"><use xlink:href="#z35874d6"/></clipPath>
	<clipPath id="z35874c7"><use xlink:href="#z35874d7"/></clipPath>
	<clipPath id="z35874c8"><use xlink:href="#z35874d8"/></clipPath>
	<clipPath id="z35874c9"><use xlink:href="#z35874d9"/></clipPath>
	<clipPath id="z35874c10"><use xlink:href="#z35874d10"/></clipPath>
	<clipPath id="z35874c11"><use xlink:href="#z35874d11"/></clipPath>
	<clipPath id="z35874c12"><use xlink:href="#z35874d12"/></clipPath>
</defs>
<path style="--d:1s;" pathLength="3333" clip-path="url(#z35874c1)" d="M200 146L273 186L316 239"/>
<path style="--d:2s;" pathLength="3333" clip-path="url(#z35874c2)" d="M54 429L109 430L222 372L255 394L219 718L237 756L352 642"/>
<path style="--d:3s;" pathLength="3333" clip-path="url(#z35874c3)" d="M499 71L531 107L435 235"/>
<path style="--d:4s;" pathLength="3333" clip-path="url(#z35874c4)" d="M390 227L420 285L417 548"/>
<path style="--d:5s;" pathLength="3333" clip-path="url(#z35874c5)" d="M449 251L556 220L599 250L584 840L556 872L483 826"/>
<path style="--d:6s;" pathLength="3333" clip-path="url(#z35874c6)" d="M450 369L545 347"/>
<path style="--d:7s;" pathLength="3333" clip-path="url(#z35874c7)" d="M449 461L554 435"/>
<path style="--d:8s;" pathLength="3333" clip-path="url(#z35874c8)" d="M323 574L370 587L564 522"/>
<path style="--d:9s;" pathLength="3333" clip-path="url(#z35874c9)" d="M561 548L499 660L314 801"/>
<path style="--d:10s;" pathLength="3333" clip-path="url(#z35874c10)" d="M637 404L949 359"/>
<path style="--d:11s;" pathLength="3333" clip-path="url(#z35874c11)" d="M768 131L828 179L836 795L805 883L704 802"/>
<path style="--d:12s;" pathLength="3333" clip-path="url(#z35874c12)" d="M672 514L731 564L752 612"/>
</svg>