<!--
AnimCJK 2016-2019 Copyright Francois Mizessyn - https://github.com/parsimonhi/animCJK
Derived from:
    MakeMeAHanzi project - https://github.com/skishore/makemeahanzi
    Arphic PL KaitiM GB font
    Arphic PL UKai font
You can redistribute and/or modify this file under the terms of the Arphic Public License
as published by Arphic Technology Co., Ltd.
You should have received a copy of this license along with this file.
If not, see http://ftp.gnu.org/non-gnu/chinese-fonts-truetype/LICENSE.
-->
<svg id="z35873" class="acjk" version="1.1" viewBox="0 0 1024 1024" xmlns="http://www.w3.org/2000/svg" xmlns:xlink="http://www.w3.org/1999/xlink">
<style>
<![CDATA[
@keyframes zk {
	to {
		stroke-dashoffset:0;
	}
}
svg.acjk path[clip-path] {
	--t:0.8s;
	animation:zk var(--t) linear forwards var(--d);
	stroke-dasharray:3337;
	stroke-dashoffset:3339;
	stroke-width:128;
	stroke-linecap:round;
	fill:none;
	stroke:#000;
}
svg.acjk path[id] {fill:#ccc;}
]]>
</style>
<path id="z35873d1" d="M253 180Q287 208 325 242Q340 255 356 254Q368 254 373 240Q377 224 367 193Q355 157 247 129Q231 126 224 129Q218 133 220 147Q224 157 253 180Z"/>
<path id="z35873d2" d="M145 423Q96 439 70 441Q55 440 53 448Q49 455 60 464Q94 485 132 474Q235 422 246 430Q256 437 250 463Q250 500 248 539Q248 648 219 749Q201 783 246 829Q256 841 266 834Q273 827 284 803Q318 754 393 669Q405 657 402 650Q401 643 390 652Q354 677 318 705Q278 741 283 689Q282 625 303 469Q307 447 328 423Q340 413 331 400Q319 384 282 368Q270 362 253 373Q184 410 145 423Z"/>
<path id="z35873d3" d="M489 180Q479 176 454 172Q444 169 440 174Q436 180 443 194Q474 260 492 368Q495 399 513 422Q529 441 534 427Q535 420 537 411C536 393 536 393 536 384Q535 371 532 356Q510 247 505 211C503 200 500 184 489 180Z"/>
<path id="z35873d4" d="M722 382Q741 410 757 418Q767 425 781 406Q794 381 823 245Q830 215 853 192Q865 180 854 168Q839 152 800 128Q787 122 707 139Q694 139 489 180C478 182 494 215 505 211Q544 199 602 188C624 184 624 184 635 182Q750 160 765 173Q778 188 775 203Q751 347 734 361C728 367 717 376 722 382Z"/>
<path id="z35873d5" d="M654 293Q681 286 705 282Q726 278 717 267Q707 254 684 252Q672 251 656 256C627 265 627 265 613 270Q582 282 553 292Q538 296 558 309Q565 313 580 310Q596 306 613 303C640 296 640 296 654 293Z"/>
<path id="z35873d6" d="M650 360Q651 323 654 293C655 268 655 268 656 256Q657 246 658 237Q658 201 657 200Q647 190 635 182C625 176 598 178 602 188Q611 216 613 270C613 292 613 292 613 303Q613 331 614 369C614 381 650 372 650 360Z"/>
<path id="z35873d7" d="M537 411Q544 411 554 410Q606 395 722 382C730 380 740 366 734 361Q730 357 720 351Q704 342 650 360C626 366 626 366 614 369Q572 376 536 384C527 386 528 411 537 411Z"/>
<path id="z35873d8" d="M483 456Q486 471 462 511Q438 545 382 591Q375 595 383 597Q389 600 430 583Q475 559 537 497Q544 494 543 486Q543 479 535 469Q508 442 489 446Q482 447 483 456Z"/>
<path id="z35873d9" d="M731 481Q771 512 816 550Q828 560 841 559Q850 558 853 548Q857 535 849 511Q837 471 726 442Q713 439 708 441Q704 445 705 455Q709 464 731 481Z"/>
<path id="z35873d10" d="M592 579Q601 564 611 555Q617 551 615 543Q614 536 604 525Q579 500 553 505Q546 506 547 517Q559 580 454 697Q426 728 353 791Q346 795 355 797Q436 778 534 658C542 648 542 648 546 643Q556 627 572 608C585 589 585 589 592 579Z"/>
<path id="z35873d11" d="M686 755Q717 712 738 649Q747 619 765 604Q780 592 765 578Q747 562 718 549Q700 542 680 550Q643 569 592 579C580 581 560 608 572 608Q590 611 672 590Q688 586 689 604Q689 661 649 728C636 746 636 746 629 755Q616 770 602 784Q550 826 417 860Q404 861 411 870Q418 876 443 874Q530 865 580 845Q625 826 660 787C677 766 677 766 686 755Z"/>
<path id="z35873d12" d="M660 787Q765 889 797 898Q896 898 939 889Q955 886 957 882Q958 876 946 871Q897 852 839 833Q781 812 686 755C661 737 661 737 649 728Q627 712 606 694Q566 657 546 643C541 639 529 653 534 658Q580 706 629 755C650 776 650 776 660 787Z"/>
<defs>
	<clipPath id="z35873c1"><use xlink:href="#z35873d1"/></clipPath>
	<clipPath id="z35873c2"><use xlink:href="#z35873d2"/></clipPath>
	<clipPath id="z35873c3"><use xlink:href="#z35873d3"/></clipPath>
	<clipPath id="z35873c4"><use xlink:href="#z35873d4"/></clipPath>
	<clipPath id="z35873c5"><use xlink:href="#z35873d5"/></clipPath>
	<clipPath id="z35873c6"><use xlink:href="#z35873d6"/></clipPath>
	<clipPath id="z35873c7"><use xlink:href="#z35873d7"/></clipPath>
	<clipPath id="z35873c8"><use xlink:href="#z35873d8"/></clipPath>
	<clipPath id="z35873c9"><use xlink:href="#z35873d9"/></clipPath>
	<clipPath id="z35873c10"><use xlink:href="#z35873d10"/></clipPath>
	<clipPath id="z35873c11"><use xlink:href="#z35873d11"/></clipPath>
	<clipPath id="z35873c12"><use xlink:href="#z35873d12"/></clipPath>
</defs>
<path style="--d:1s;" pathLength="3333" clip-path="url(#z35873c1)" d="M224 139L318 190L365 247"/>
<path style="--d:2s;" pathLength="3333" clip-path="url(#z35873c2)" d="M57 450L109 456L256 399L292 421L252 730L271 782L397 655"/>
<path style="--d:3s;" pathLength="3333" clip-path="url(#z35873c3)" d="M447 182L482 223L528 427"/>
<path style="--d:4s;" pathLength="3333" clip-path="url(#z35873c4)" d="M497 185L760 148L799 164L816 189L750 411"/>
<path style="--d:5s;" pathLength="3333" clip-path="url(#z35873c5)" d="M555 298L715 268"/>
<path style="--d:6s;" pathLength="3333" clip-path="url(#z35873c6)" d="M611 194L634 220L628 364"/>
<path style="--d:7s;" pathLength="3333" clip-path="url(#z35873c7)" d="M542 403L726 363"/>
<path style="--d:8s;" pathLength="3333" clip-path="url(#z35873c8)" d="M491 454L508 490L389 591"/>
<path style="--d:9s;" pathLength="3333" clip-path="url(#z35873c9)" d="M714 450L847 552"/>
<path style="--d:10s;" pathLength="3333" clip-path="url(#z35873c10)" d="M555 510L579 554L539 619L447 727L358 789"/>
<path style="--d:11s;" pathLength="3333" clip-path="url(#z35873c11)" d="M584 602L683 569L726 592L673 733L575 825L416 865"/>
<path style="--d:12s;" pathLength="3333" clip-path="url(#z35873c12)" d="M546 651L787 851L949 881"/>
</svg>