<!--
AnimCJK 2016-2017 Copyright Francois Mizessyn, http://gooo.free.fr/animCJK/
Derived from:
    MakeMeAHanzi project - https://github.com/skishore/makemeahanzi
    Arphic PL KaitiM GB - https://apps.ubuntu.com/cat/applications/precise/fonts-arphic-gkai00mp/
    Arphic PL UKai - https://apps.ubuntu.com/cat/applications/fonts-arphic-ukai/
You can redistribute and/or modify this file under the terms of the Arphic Public License
as published by Arphic Technology Co., Ltd.
You should have received a copy of this license (the directory "APL") along with this file;
if not, see http://ftp.gnu.org/non-gnu/chinese-fonts-truetype/LICENSE.
-->
<svg id="z35895" class="acjk" version="1.1" viewBox="0 0 1024 1024" xmlns="http://www.w3.org/2000/svg" xmlns:xlink="http://www.w3.org/1999/xlink">
<style>
<![CDATA[
	@keyframes z35895k {
		from {
			stroke:#c00;
			stroke-dashoffset:3000;
		}
		75% {
			stroke:#c00;
			stroke-dashoffset:0;
		}
		to {
			stroke:#000;
		}
	}
	#z35895 path[clip-path] {
		animation:z35895k 1s linear both;
		stroke-dasharray:3000;
		stroke-width:128;
		stroke-linecap:round;
		fill:none;
	}
	#z35895 path[clip-path="url(#z35895c1)"] {animation-delay:1s;}
	#z35895 path[clip-path="url(#z35895c2)"] {animation-delay:2s;}
	#z35895 path[clip-path="url(#z35895c3)"] {animation-delay:3s;}
	#z35895 path[clip-path="url(#z35895c4)"] {animation-delay:4s;}
	#z35895 path[clip-path="url(#z35895c5)"] {animation-delay:5s;}
	#z35895 path[clip-path="url(#z35895c6)"] {animation-delay:6s;}
	#z35895 path[clip-path="url(#z35895c7)"] {animation-delay:7s;}
	#z35895 path {fill:#ccc;}
]]>
</style>
<g transform="scale(1,-1) translate(0,-900)">
	<path id="z35895d1" d="M362 750Q350 683 201 557Q179 541 208 545Q283 552 396 669Q424 700 439 713Q451 726 448 736Q445 749 417 758Q386 770 373 766Q366 765 362 750Z"/>
	<path id="z35895d2" d="M572 749Q630 704 701 639Q720 620 737 616Q746 615 753 627Q765 642 747 687Q735 727 658 755Q640 764 571 782Q561 786 560 773Q560 760 572 749Z"/>
	<path id="z35895d3" d="M310 299Q398 377 520 530L538 551Q539 554 543 555Q550 559 551 570Q550 580 538 595Q508 631 472 627Q462 626 464 613Q467 514 295 346Q283 337 273 327Q218 278 87 188Q77 184 88 180Q100 180 131 194Q183 213 232 243Q263 262 297 288L310 299Z"/>
	<path id="z35895d4" d="M520 530Q620 406 749 275Q771 253 805 256Q923 263 960 272Q970 276 972 281Q972 287 956 294Q791 339 711 400Q630 464 538 551L520 530Z"/>
	<path id="z35895d5" d="M371 280L371 281Q359 288 319 298Q315 299 310 299L297 288Q297 282 302 272Q330 202 343 91Q344 57 363 34Q381 9 388 25Q394 41 394 65L391 101Q378 207 377 245L371 280Z"/>
	<path id="z35895d6" d="M636 121Q670 214 707 241Q728 262 711 283Q638 346 593 332Q589 332 586 330Q504 299 371 280L377 245Q386 245 569 277Q588 281 597 273Q607 263 603 243Q590 179 574 129L636 121Z"/>
	<path id="z35895d7" d="M394 65Q407 61 421 64Q494 77 648 82Q661 83 663 93Q663 102 636 121L574 129Q471 110 391 101L394 65Z"/>
	<defs>
		<clipPath id="z35895c1"><use xlink:href="#z35895d1"/></clipPath>
		<clipPath id="z35895c2"><use xlink:href="#z35895d2"/></clipPath>
		<clipPath id="z35895c3"><use xlink:href="#z35895d3"/></clipPath>
		<clipPath id="z35895c4"><use xlink:href="#z35895d4"/></clipPath>
		<clipPath id="z35895c5"><use xlink:href="#z35895d5"/></clipPath>
		<clipPath id="z35895c6"><use xlink:href="#z35895d6"/></clipPath>
		<clipPath id="z35895c7"><use xlink:href="#z35895d7"/></clipPath>
	</defs>
	<path pathLength="2999" clip-path="url(#z35895c1)" d="M445 734L388 723L311 625L202 549"/>
	<path pathLength="2999" clip-path="url(#z35895c2)" d="M566 774L698 692L744 624"/>
	<path pathLength="2999" clip-path="url(#z35895c3)" d="M473 622L504 569L404 429L270 295L92 186"/>
	<path pathLength="2999" clip-path="url(#z35895c4)" d="M535 543L784 305L967 282"/>
	<path pathLength="2999" clip-path="url(#z35895c5)" d="M304 285L343 258L376 27"/>
	<path pathLength="2999" clip-path="url(#z35895c6)" d="M379 278L601 306L641 287L664 257L607 132L587 128"/>
	<path pathLength="2999" clip-path="url(#z35895c7)" d="M398 94L657 98"/>
</g>
</svg>