<!--
AnimCJK 2016-2017 Copyright Francois Mizessyn, http://gooo.free.fr/animCJK/
Derived from:
    MakeMeAHanzi project - https://github.com/skishore/makemeahanzi
    Arphic PL KaitiM GB - https://apps.ubuntu.com/cat/applications/precise/fonts-arphic-gkai00mp/
    Arphic PL UKai - https://apps.ubuntu.com/cat/applications/fonts-arphic-ukai/
You can redistribute and/or modify this file under the terms of the Arphic Public License
as published by Arphic Technology Co., Ltd.
You should have received a copy of this license (the directory "APL") along with this file;
if not, see http://ftp.gnu.org/non-gnu/chinese-fonts-truetype/LICENSE.
-->
<svg id="z35892" class="acjk" version="1.1" viewBox="0 0 1024 1024" xmlns="http://www.w3.org/2000/svg" xmlns:xlink="http://www.w3.org/1999/xlink">
<style>
<![CDATA[
	@keyframes z35892k {
		from {
			stroke:#c00;
			stroke-dashoffset:3000;
		}
		75% {
			stroke:#c00;
			stroke-dashoffset:0;
		}
		to {
			stroke:#000;
		}
	}
	#z35892 path[clip-path] {
		animation:z35892k 1s linear both;
		stroke-dasharray:3000;
		stroke-width:128;
		stroke-linecap:round;
		fill:none;
	}
	#z35892 path[clip-path="url(#z35892c1)"] {animation-delay:1s;}
	#z35892 path[clip-path="url(#z35892c2)"] {animation-delay:2s;}
	#z35892 path[clip-path="url(#z35892c3)"] {animation-delay:3s;}
	#z35892 path[clip-path="url(#z35892c4)"] {animation-delay:4s;}
	#z35892 path[clip-path="url(#z35892c5)"] {animation-delay:5s;}
	#z35892 path[clip-path="url(#z35892c6)"] {animation-delay:6s;}
	#z35892 path[clip-path="url(#z35892c7)"] {animation-delay:7s;}
	#z35892 path[clip-path="url(#z35892c8)"] {animation-delay:8s;}
	#z35892 path[clip-path="url(#z35892c9)"] {animation-delay:9s;}
	#z35892 path[clip-path="url(#z35892c10)"] {animation-delay:10s;}
	#z35892 path[clip-path="url(#z35892c11)"] {animation-delay:11s;}
	#z35892 path[clip-path="url(#z35892c12)"] {animation-delay:12s;}
	#z35892 path[clip-path="url(#z35892c13)"] {animation-delay:13s;}
	#z35892 path[clip-path="url(#z35892c14)"] {animation-delay:14s;}
	#z35892 path[clip-path="url(#z35892c15)"] {animation-delay:15s;}
	#z35892 path {fill:#ccc;}
]]>
</style>
<g transform="scale(1,-1) translate(0,-900)">
	<path id="z35892d1" d="M241 717Q266 693 291 665Q304 652 320 652Q330 652 337 665Q341 680 334 710Q330 729 300 744Q230 774 216 767Q212 763 212 750Q215 740 241 717Z"/>
	<path id="z35892d2" d="M126 503Q80 488 54 486Q41 486 38 479Q34 472 45 464Q79 445 114 455Q216 503 217 502Q220 502 223 499Q233 493 227 468Q227 281 193 165Q175 135 217 88Q227 76 236 83Q243 90 254 112Q288 155 357 229Q369 239 366 246Q365 253 354 245Q323 226 292 204Q246 167 255 223Q254 292 277 461Q281 483 302 506Q312 516 304 527Q294 543 258 558Q246 564 230 554Q164 517 126 503Z"/>
	<path id="z35892d3" d="M548 690Q538 694 526 696Q516 697 514 694Q510 690 516 678Q532 644 544 588Q545 572 556 561Q569 545 573 556Q576 563 576 577L573 603Q566 651 566 667L548 690Z"/>
	<path id="z35892d4" d="M812 638Q830 671 848 682Q861 697 851 711Q838 721 798 741Q785 748 767 741Q730 728 695 717L648 706Q599 697 548 690L566 667Q578 667 592 671Q620 678 649 682L694 691Q721 698 748 703Q767 707 776 700Q780 696 770 643L812 638Z"/>
	<path id="z35892d5" d="M689 595Q744 605 822 612Q831 613 832 620Q832 626 812 638L770 643Q728 633 691 624L651 615Q611 609 573 603L576 577Q583 576 594 578Q618 585 652 589L689 595Z"/>
	<path id="z35892d6" d="M686 536Q687 566 689 595L691 624Q692 658 694 691L695 717Q695 727 702 762Q711 793 694 805Q666 820 646 823Q633 826 626 819Q620 812 627 800Q643 778 648 706L649 682Q650 651 651 615L652 589Q652 561 652 530L686 536Z"/>
	<path id="z35892d7" d="M652 530Q573 520 481 505Q465 504 477 490Q487 480 501 477Q517 473 529 477Q683 519 898 520L900 520Q915 520 919 526Q923 536 910 545Q865 578 817 561Q763 551 686 536L652 530Z"/>
	<path id="z35892d8" d="M607 269Q607 299 607 329L607 355Q607 400 611 418L595 441Q579 451 562 457Q555 458 550 452Q549 448 554 439Q588 361 564 207Q548 140 572 110Q581 100 588 111Q597 121 600 143L605 173Q606 185 607 243L607 269Z"/>
	<path id="z35892d9" d="M765 371Q780 411 794 421Q813 442 794 455Q778 465 756 480Q743 487 692 464Q613 446 595 441L611 418Q632 425 699 439Q724 443 729 434Q733 431 729 412Q726 397 722 379L765 371Z"/>
	<path id="z35892d10" d="M607 329Q614 328 626 330Q671 340 770 348Q779 349 780 356Q780 360 765 371L722 379Q721 380 718 379Q657 363 607 355L607 329Z"/>
	<path id="z35892d11" d="M780 192Q796 234 817 246Q830 262 818 276Q805 286 762 306Q746 312 692 290Q613 271 607 269L607 243Q616 243 724 265Q736 268 740 263Q746 259 745 247Q741 220 737 197L780 192Z"/>
	<path id="z35892d12" d="M600 143Q607 142 617 144Q672 154 793 162Q802 163 803 170Q803 177 780 192L737 197Q664 181 605 173L600 143Z"/>
	<path id="z35892d13" d="M367 618Q415 555 437 554Q450 553 457 570Q458 582 450 602Q441 617 420 625Q386 641 372 643Q363 644 362 634Q361 627 367 618Z"/>
	<path id="z35892d14" d="M455 123Q470 132 475 149Q485 185 446 241Q419 289 475 367Q478 371 481 374Q497 390 481 402Q463 414 435 423Q417 432 378 397Q333 370 323 370Q317 370 316 366Q315 362 322 358Q349 348 399 373Q406 376 413 369Q434 351 416 325Q377 280 422 216Q443 180 443 156Q443 138 437 126L455 123Z"/>
	<path id="z35892d15" d="M437 126Q412 132 382 129Q360 125 340 130Q325 133 323 126Q319 116 332 105Q348 87 399 96Q442 100 543 61Q639 27 750 -17Q784 -33 829 -12Q887 13 943 39Q962 46 960 56Q960 66 913 62Q726 52 668 66Q577 90 459 122Q458 123 455 123L437 126Z"/>
	<defs>
		<clipPath id="z35892c1"><use xlink:href="#z35892d1"/></clipPath>
		<clipPath id="z35892c2"><use xlink:href="#z35892d2"/></clipPath>
		<clipPath id="z35892c3"><use xlink:href="#z35892d3"/></clipPath>
		<clipPath id="z35892c4"><use xlink:href="#z35892d4"/></clipPath>
		<clipPath id="z35892c5"><use xlink:href="#z35892d5"/></clipPath>
		<clipPath id="z35892c6"><use xlink:href="#z35892d6"/></clipPath>
		<clipPath id="z35892c7"><use xlink:href="#z35892d7"/></clipPath>
		<clipPath id="z35892c8"><use xlink:href="#z35892d8"/></clipPath>
		<clipPath id="z35892c9"><use xlink:href="#z35892d9"/></clipPath>
		<clipPath id="z35892c10"><use xlink:href="#z35892d10"/></clipPath>
		<clipPath id="z35892c11"><use xlink:href="#z35892d11"/></clipPath>
		<clipPath id="z35892c12"><use xlink:href="#z35892d12"/></clipPath>
		<clipPath id="z35892c13"><use xlink:href="#z35892d13"/></clipPath>
		<clipPath id="z35892c14"><use xlink:href="#z35892d14"/></clipPath>
		<clipPath id="z35892c15"><use xlink:href="#z35892d15"/></clipPath>
	</defs>
	<path pathLength="2999" clip-path="url(#z35892c1)" d="M219 762L301 703L320 656"/>
	<path pathLength="2999" clip-path="url(#z35892c2)" d="M46 475L251 523L267 503L228 159L250 135L361 241"/>
	<path pathLength="2999" clip-path="url(#z35892c3)" d="M521 689L565 561"/>
	<path pathLength="2999" clip-path="url(#z35892c4)" d="M559 687L781 723L816 696L783 642"/>
	<path pathLength="2999" clip-path="url(#z35892c5)" d="M581 594L827 622"/>
	<path pathLength="2999" clip-path="url(#z35892c6)" d="M630 815L672 777L667 533"/>
	<path pathLength="2999" clip-path="url(#z35892c7)" d="M481 499L841 543L915 533"/>
	<path pathLength="2999" clip-path="url(#z35892c8)" d="M559 448L588 399L577 115"/>
	<path pathLength="2999" clip-path="url(#z35892c9)" d="M604 437L740 459L767 434L746 375"/>
	<path pathLength="2999" clip-path="url(#z35892c10)" d="M617 337L773 356"/>
	<path pathLength="2999" clip-path="url(#z35892c11)" d="M613 252L755 283L784 253L751 196"/>
	<path pathLength="2999" clip-path="url(#z35892c12)" d="M608 150L795 170"/>
	<path pathLength="2999" clip-path="url(#z35892c13)" d="M368 637L450 566"/>
	<path pathLength="2999" clip-path="url(#z35892c14)" d="M323 364L412 398L453 379L417 277L458 173L447 128"/>
	<path pathLength="2999" clip-path="url(#z35892c15)" d="M329 124L760 19L953 56"/>
</g>
</svg>