<!--
AnimCJK 2016-2018 Copyright Francois Mizessyn - https://github.com/parsimonhi/animCJK
Derived from:
    MakeMeAHanzi project - https://github.com/skishore/makemeahanzi
    Arphic PL KaitiM GB - https://apps.ubuntu.com/cat/applications/precise/fonts-arphic-gkai00mp/
    Arphic PL UKai - https://apps.ubuntu.com/cat/applications/fonts-arphic-ukai/
You can redistribute and/or modify this file under the terms of the Arphic Public License
as published by Arphic Technology Co., Ltd.
You should have received a copy of this license (the directory "APL") along with this file;
if not, see http://ftp.gnu.org/non-gnu/chinese-fonts-truetype/LICENSE.
-->
<svg id="z35892" class="acjk" version="1.1" viewBox="0 0 1024 1024" xmlns="http://www.w3.org/2000/svg" xmlns:xlink="http://www.w3.org/1999/xlink">
<style>
<![CDATA[
@keyframes z35892k {
	from {
		stroke:#ccc;
		stroke-dashoffset:3334;
	}
	1% {
		stroke:#c00;
		stroke-dashoffset:3334;
	}
	75% {
		stroke:#c00;
		stroke-dashoffset:0;
	}
	to {
		stroke:#000;
	}
}
#z35892 path[clip-path] {
	animation:z35892k 1s linear both;
	stroke-dasharray:3334;
	stroke-width:128;
	stroke-linecap:round;
	fill:none;
}
#z35892 path[clip-path="url(#z35892c1)"] {animation-delay:1s;}
#z35892 path[clip-path="url(#z35892c2)"] {animation-delay:2s;}
#z35892 path[clip-path="url(#z35892c3)"] {animation-delay:3s;}
#z35892 path[clip-path="url(#z35892c4)"] {animation-delay:4s;}
#z35892 path[clip-path="url(#z35892c5)"] {animation-delay:5s;}
#z35892 path[clip-path="url(#z35892c6)"] {animation-delay:6s;}
#z35892 path[clip-path="url(#z35892c7)"] {animation-delay:7s;}
#z35892 path[clip-path="url(#z35892c8)"] {animation-delay:8s;}
#z35892 path[clip-path="url(#z35892c9)"] {animation-delay:9s;}
#z35892 path[clip-path="url(#z35892c10)"] {animation-delay:10s;}
#z35892 path[clip-path="url(#z35892c11)"] {animation-delay:11s;}
#z35892 path[clip-path="url(#z35892c12)"] {animation-delay:12s;}
#z35892 path[clip-path="url(#z35892c13)"] {animation-delay:13s;}
#z35892 path[clip-path="url(#z35892c14)"] {animation-delay:14s;}
#z35892 path[clip-path="url(#z35892c15)"] {animation-delay:15s;}
#z35892 path {fill:#ccc;}
]]>
</style>
<path id="z35892d1" d="M241 183Q266 207 291 235Q304 248 320 248Q330 248 337 235Q341 220 334 190Q330 171 300 156Q230 126 216 133Q212 137 212 150Q215 160 241 183 Z"/>
<path id="z35892d2" d="M126 397Q80 412 54 414Q41 414 38 421Q34 428 45 436Q79 455 114 445Q216 397 217 398Q220 398 223 401Q233 407 227 432Q227 619 193 735Q175 765 217 812Q227 824 236 817Q243 810 254 788Q288 745 357 671Q369 661 366 654Q365 647 354 655Q323 674 292 696Q246 733 255 677Q254 608 277 439Q281 417 302 394Q312 384 304 373Q294 357 258 342Q246 336 230 346Q164 383 126 397 Z"/>
<path id="z35892d3" d="M548 210Q538 206 526 204Q516 203 514 206Q510 210 516 222Q532 256 544 312Q545 328 556 339Q569 355 573 344Q576 337 576 323L573 297Q566 249 566 233L548 210 Z"/>
<path id="z35892d4" d="M812 262Q830 229 848 218Q861 203 851 189Q838 179 798 159Q785 152 767 159Q730 172 695 183L648 194Q599 203 548 210L566 233Q578 233 592 229Q620 222 649 218L694 209Q721 202 748 197Q767 193 776 200Q780 204 770 257L812 262 Z"/>
<path id="z35892d5" d="M689 305Q744 295 822 288Q831 287 832 280Q832 274 812 262L770 257Q728 267 691 276L651 285Q611 291 573 297L576 323Q583 324 594 322Q618 315 652 311L689 305 Z"/>
<path id="z35892d6" d="M686 364Q687 334 689 305L691 276Q692 242 694 209L695 183Q695 173 702 138Q711 107 694 95Q666 80 646 77Q633 74 626 81Q620 88 627 100Q643 122 648 194L649 218Q650 249 651 285L652 311Q652 339 652 370L686 364 Z"/>
<path id="z35892d7" d="M652 370Q573 380 481 395Q465 396 477 410Q487 420 501 423Q517 427 529 423Q683 381 898 380L900 380Q915 380 919 374Q923 364 910 355Q865 322 817 339Q763 349 686 364L652 370 Z"/>
<path id="z35892d8" d="M607 631Q607 601 607 571L607 545Q607 500 611 482L595 459Q579 449 562 443Q555 442 550 448Q549 452 554 461Q588 539 564 693Q548 760 572 790Q581 800 588 789Q597 779 600 757L605 727Q606 715 607 657L607 631 Z"/>
<path id="z35892d9" d="M765 529Q780 489 794 479Q813 458 794 445Q778 435 756 420Q743 413 692 436Q613 454 595 459L611 482Q632 475 699 461Q724 457 729 466Q733 469 729 488Q726 503 722 521L765 529 Z"/>
<path id="z35892d10" d="M607 571Q614 572 626 570Q671 560 770 552Q779 551 780 544Q780 540 765 529L722 521Q721 520 718 521Q657 537 607 545L607 571 Z"/>
<path id="z35892d11" d="M780 708Q796 666 817 654Q830 638 818 624Q805 614 762 594Q746 588 692 610Q613 629 607 631L607 657Q616 657 724 635Q736 632 740 637Q746 641 745 653Q741 680 737 703L780 708 Z"/>
<path id="z35892d12" d="M600 757Q607 758 617 756Q672 746 793 738Q802 737 803 730Q803 723 780 708L737 703Q664 719 605 727L600 757 Z"/>
<path id="z35892d13" d="M367 282Q415 345 437 346Q450 347 457 330Q458 318 450 298Q441 283 420 275Q386 259 372 257Q363 256 362 266Q361 273 367 282 Z"/>
<path id="z35892d14" d="M455 777Q470 768 475 751Q485 715 446 659Q419 611 475 533Q478 529 481 526Q497 510 481 498Q463 486 435 477Q417 468 378 503Q333 530 323 530Q317 530 316 534Q315 538 322 542Q349 552 399 527Q406 524 413 531Q434 549 416 575Q377 620 422 684Q443 720 443 744Q443 762 437 774L455 777 Z"/>
<path id="z35892d15" d="M437 774Q412 768 382 771Q360 775 340 770Q325 767 323 774Q319 784 332 795Q348 813 399 804Q442 800 543 839Q639 873 750 917Q784 933 829 912Q887 887 943 861Q962 854 960 844Q960 834 913 838Q726 848 668 834Q577 810 459 778Q458 777 455 777L437 774 Z"/>
<defs>
	<clipPath id="z35892c1"><use xlink:href="#z35892d1"/></clipPath>
	<clipPath id="z35892c2"><use xlink:href="#z35892d2"/></clipPath>
	<clipPath id="z35892c3"><use xlink:href="#z35892d3"/></clipPath>
	<clipPath id="z35892c4"><use xlink:href="#z35892d4"/></clipPath>
	<clipPath id="z35892c5"><use xlink:href="#z35892d5"/></clipPath>
	<clipPath id="z35892c6"><use xlink:href="#z35892d6"/></clipPath>
	<clipPath id="z35892c7"><use xlink:href="#z35892d7"/></clipPath>
	<clipPath id="z35892c8"><use xlink:href="#z35892d8"/></clipPath>
	<clipPath id="z35892c9"><use xlink:href="#z35892d9"/></clipPath>
	<clipPath id="z35892c10"><use xlink:href="#z35892d10"/></clipPath>
	<clipPath id="z35892c11"><use xlink:href="#z35892d11"/></clipPath>
	<clipPath id="z35892c12"><use xlink:href="#z35892d12"/></clipPath>
	<clipPath id="z35892c13"><use xlink:href="#z35892d13"/></clipPath>
	<clipPath id="z35892c14"><use xlink:href="#z35892d14"/></clipPath>
	<clipPath id="z35892c15"><use xlink:href="#z35892d15"/></clipPath>
</defs>
<path pathLength="3333" clip-path="url(#z35892c1)" d="M219 138L301 197L320 244"/>
<path pathLength="3333" clip-path="url(#z35892c2)" d="M46 425L251 377L267 397L228 741L250 765L361 659"/>
<path pathLength="3333" clip-path="url(#z35892c3)" d="M521 211L565 339"/>
<path pathLength="3333" clip-path="url(#z35892c4)" d="M559 213L781 177L816 204L783 258"/>
<path pathLength="3333" clip-path="url(#z35892c5)" d="M581 306L827 278"/>
<path pathLength="3333" clip-path="url(#z35892c6)" d="M630 85L672 123L667 367"/>
<path pathLength="3333" clip-path="url(#z35892c7)" d="M481 401L841 357L915 367"/>
<path pathLength="3333" clip-path="url(#z35892c8)" d="M559 452L588 501L577 785"/>
<path pathLength="3333" clip-path="url(#z35892c9)" d="M604 463L740 441L767 466L746 525"/>
<path pathLength="3333" clip-path="url(#z35892c10)" d="M617 563L773 544"/>
<path pathLength="3333" clip-path="url(#z35892c11)" d="M613 648L755 617L784 647L751 704"/>
<path pathLength="3333" clip-path="url(#z35892c12)" d="M608 750L795 730"/>
<path pathLength="3333" clip-path="url(#z35892c13)" d="M368 263L450 334"/>
<path pathLength="3333" clip-path="url(#z35892c14)" d="M323 536L412 502L453 521L417 623L458 727L447 772"/>
<path pathLength="3333" clip-path="url(#z35892c15)" d="M329 776L760 881L953 844"/>
</svg>