<!--
AnimCJK 2016-2025 Copyright FM-SH - https://github.com/parsimonhi/animCJK
Derived from:
    MakeMeAHanzi project - https://github.com/skishore/makemeahanzi
    Arphic PL KaitiM GB font
    Arphic PL UKai font
You can redistribute and/or modify this file under the terms of the Arphic Public License
as published by Arphic Technology Co., Ltd.
You should have received a copy of this license along with this file.
If not, see http://ftp.gnu.org/non-gnu/chinese-fonts-truetype/LICENSE.
-->
<svg id="z35926" class="acjk" version="1.1" viewBox="0 0 1024 1024" xmlns="http://www.w3.org/2000/svg" xmlns:xlink="http://www.w3.org/1999/xlink">
<style>
<![CDATA[
@keyframes zk {
	to {
		stroke-dashoffset:0;
	}
}
svg.acjk path[clip-path] {
	--t:0.8s;
	animation:zk var(--t) linear forwards var(--d);
	stroke-dasharray:3337;
	stroke-dashoffset:3339;
	stroke-width:128;
	stroke-linecap:round;
	fill:none;
	stroke:#000;
}
svg.acjk path[id] {fill:#ccc;}
]]>
</style>
<path id="z35926d1" d="M438 209C497 199 557 185 620 174C660 166 683 157 690 152C696 145 698 140 695 134C690 125 677 116 655 111C635 105 596 114 539 131C439 159 345 174 260 183C231 185 227 196 248 208C300 236 343 224 390 217C422 212 422 212 438 209Z"/>
<path id="z35926d2" d="M381 322C409 299 429 278 449 267C456 262 458 256 458 248C457 240 451 227 438 209C430 195 393 201 390 217C385 257 316 328 181 428C174 432 168 435 166 439C162 443 165 447 173 448C198 450 261 417 356 342C373 329 373 329 381 322Z"/>
<path id="z35926d3" d="M524 450C494 400 453 354 381 322C371 318 347 337 356 342C368 348 381 355 392 365C411 382 434 395 450 416C463 433 476 449 482 463C492 487 500 510 505 536C520 612 515 679 492 775C481 817 469 840 457 846C447 850 417 843 367 827C339 817 324 815 324 820C323 824 325 833 334 841C381 883 417 915 437 942C447 956 457 963 469 960C487 954 506 937 521 911C551 853 569 767 571 655C571 610 566 567 554 528C548 508 544 488 536 470C532 462 528 456 524 450Z"/>
<path id="z35926d4" d="M392 365C387 398 340 465 314 489C291 509 291 509 280 519C233 560 182 586 139 611C134 613 133 616 139 617C174 622 234 602 305 545C334 522 334 522 348 510C371 490 398 462 432 430C438 424 444 419 450 416C472 403 397 340 392 365Z"/>
<path id="z35926d5" d="M482 463C423 563 322 661 179 754C160 765 139 776 117 792C106 799 106 803 113 807C119 809 126 811 136 809C233 782 333 719 431 618C456 591 484 558 505 536C523 518 497 443 482 463Z"/>
<path id="z35926d6" d="M314 489C290 474 263 463 235 453C229 451 226 451 226 458C225 464 228 470 234 476C248 488 264 502 280 519C297 536 297 536 305 545C334 575 351 591 356 593C360 594 364 591 369 586C374 579 374 564 368 542C365 532 361 518 348 510C325 496 325 496 314 489Z"/>
<path id="z35926d7" d="M536 470C616 402 676 353 720 330C731 323 737 319 735 312C730 299 720 287 706 274C691 261 675 252 659 252C648 251 642 260 644 275C645 285 644 297 637 309C611 346 573 392 524 450C519 456 530 475 536 470Z"/>
<path id="z35926d8" d="M554 528C680 670 756 748 786 757C831 769 892 764 969 753C981 751 988 749 990 746C991 741 987 736 977 732C940 717 900 703 858 688C719 636 616 532 536 470C520 458 542 512 554 528Z"/>
<defs>
	<clipPath id="z35926c1"><use xlink:href="#z35926d1"/></clipPath>
	<clipPath id="z35926c2"><use xlink:href="#z35926d2"/></clipPath>
	<clipPath id="z35926c3"><use xlink:href="#z35926d3"/></clipPath>
	<clipPath id="z35926c4"><use xlink:href="#z35926d4"/></clipPath>
	<clipPath id="z35926c5"><use xlink:href="#z35926d5"/></clipPath>
	<clipPath id="z35926c6"><use xlink:href="#z35926d6"/></clipPath>
	<clipPath id="z35926c7"><use xlink:href="#z35926d7"/></clipPath>
	<clipPath id="z35926c8"><use xlink:href="#z35926d8"/></clipPath>
</defs>
<path style="--d:1s;" pathLength="3333" clip-path="url(#z35926c1)" d="M243 192L340 199L691 134"/>
<path style="--d:2s;" pathLength="3333" clip-path="url(#z35926c2)" d="M423 205L418 252L353 315L171 441"/>
<path style="--d:3s;" pathLength="3333" clip-path="url(#z35926c3)" d="M362 336L440 379L500 452L537 568L541 668L518 813L484 887L451 904L331 824"/>
<path style="--d:4s;" pathLength="3333" clip-path="url(#z35926c4)" d="M399 366L414 408L333 497L147 614"/>
<path style="--d:5s;" pathLength="3333" clip-path="url(#z35926c5)" d="M490 466L479 521L357 652L233 745L118 799"/>
<path style="--d:6s;" pathLength="3333" clip-path="url(#z35926c6)" d="M232 460L332 532L360 588"/>
<path style="--d:7s;" pathLength="3333" clip-path="url(#z35926c7)" d="M652 257L685 314L535 463"/>
<path style="--d:8s;" pathLength="3333" clip-path="url(#z35926c8)" d="M536 479L790 708L983 742"/>
</svg>