<!--
AnimCJK 2016-2026 Copyright FM-SH, https://github.com/parsimonhi/animCJK
Derived from:
    MakeMeAHanzi project - https://github.com/skishore/makemeahanzi
    Arphic PL KaitiM GB font
    Arphic PL KaitiM Big5 font
You can redistribute and/or modify this file under the terms of the Arphic Public License
as published by Arphic Technology Co., Ltd.
You should have received a copy of this license along with this file.
If not, see https://ftp.gnu.org/non-gnu/chinese-fonts-truetype/LICENSE.
-->
<svg id="z35929" class="acjk" viewBox="0 0 1024 1024" xmlns="http://www.w3.org/2000/svg">
<style>
<![CDATA[
@keyframes zk {
	to {
		stroke-dashoffset:0;
	}
}
svg.acjk path[clip-path] {
	--t:0.8s;
	animation:zk var(--t) linear forwards var(--d);
	stroke-dasharray:3337;
	stroke-dashoffset:3339;
	stroke-width:128;
	stroke-linecap:round;
	fill:none;
	stroke:#000;
}
svg.acjk path[id] {fill:#ccc;}
]]>
</style>
<path id="z35929d1" d="M526 103C539 112 553 124 570 139C586 153 632 157 605 92C596 73 565 63 517 58C493 55 483 58 494 75C502 87 514 94 526 103Z"/>
<path id="z35929d2" d="M627 212C661 206 715 192 724 184C739 166 706 156 695 155C665 151 615 166 546 184C488 198 391 215 346 222C325 225 321 232 338 242C360 254 388 261 422 254C464 244 531 228 592 218C615 214 615 214 627 212Z"/>
<path id="z35929d3" d="M399 289C411 326 422 344 437 355C444 360 463 362 459 321C457 305 443 294 426 280C411 267 391 263 399 289Z"/>
<path id="z35929d4" d="M597 345C648 228 683 256 627 212C618 205 590 206 592 218C603 255 575 326 565 354C561 364 593 355 597 345Z"/>
<path id="z35929d5" d="M472 411C504 404 651 372 751 362C760 360 786 345 750 329C717 313 662 326 597 345C576 351 576 351 565 354C507 370 328 402 273 410C257 412 254 421 269 429C307 448 342 437 433 419C459 414 459 414 472 411Z"/>
<path id="z35929d6" d="M449 483C505 437 515 441 472 411C461 404 438 407 433 419C419 462 368 510 281 561C263 569 266 577 284 574C345 563 391 532 430 500C443 489 443 489 449 483Z"/>
<path id="z35929d7" d="M552 571C544 558 508 510 449 483C441 480 422 497 430 500C435 502 442 506 449 511C479 536 479 536 494 549C498 553 513 567 520 582C532 619 532 619 538 637C545 669 547 730 532 791C519 839 513 844 446 831C413 824 392 824 418 846C455 875 484 896 499 916C522 947 551 908 558 895C598 818 602 700 574 618C568 602 560 585 552 571Z"/>
<path id="z35929d8" d="M449 511C409 585 350 623 279 667C268 674 269 684 283 680C359 663 443 600 494 549C508 535 458 493 449 511Z"/>
<path id="z35929d9" d="M520 582C447 673 361 729 253 796C236 807 228 823 256 818C365 792 466 722 538 637C552 623 532 567 520 582Z"/>
<path id="z35929d10" d="M573 586C631 543 673 508 702 494C713 489 728 486 691 447C674 430 640 417 640 448C639 496 597 529 559 576C555 580 568 589 573 586Z"/>
<path id="z35929d11" d="M559 576C558 575 554 572 552 571C537 562 562 606 574 618C586 631 624 672 644 692C663 713 737 782 765 802C781 812 801 812 825 808C844 803 871 796 904 787C912 784 939 776 919 766C910 761 871 750 805 734C743 718 581 592 573 586C564 579 564 579 559 576Z"/>
<defs>
	<clipPath id="z35929c1"><use href="#z35929d1"/></clipPath>
	<clipPath id="z35929c2"><use href="#z35929d2"/></clipPath>
	<clipPath id="z35929c3"><use href="#z35929d3"/></clipPath>
	<clipPath id="z35929c4"><use href="#z35929d4"/></clipPath>
	<clipPath id="z35929c5"><use href="#z35929d5"/></clipPath>
	<clipPath id="z35929c6"><use href="#z35929d6"/></clipPath>
	<clipPath id="z35929c7"><use href="#z35929d7"/></clipPath>
	<clipPath id="z35929c8"><use href="#z35929d8"/></clipPath>
	<clipPath id="z35929c9"><use href="#z35929d9"/></clipPath>
	<clipPath id="z35929c10"><use href="#z35929d10"/></clipPath>
	<clipPath id="z35929c11"><use href="#z35929d11"/></clipPath>
</defs>
<path style="--d:1s;" pathLength="3333" clip-path="url(#z35929c1)" d="M494 64L575 103L602 143"/>
<path style="--d:2s;" pathLength="3333" clip-path="url(#z35929c2)" d="M336 231L722 177"/>
<path style="--d:3s;" pathLength="3333" clip-path="url(#z35929c3)" d="M402 276L448 350"/>
<path style="--d:4s;" pathLength="3333" clip-path="url(#z35929c4)" d="M599 212L624 248L574 355"/>
<path style="--d:5s;" pathLength="3333" clip-path="url(#z35929c5)" d="M266 417L763 346"/>
<path style="--d:6s;" pathLength="3333" clip-path="url(#z35929c6)" d="M444 413L458 445L406 494L278 566"/>
<path style="--d:7s;" pathLength="3333" clip-path="url(#z35929c7)" d="M437 497L537 578L567 727L552 827L518 878L415 831"/>
<path style="--d:8s;" pathLength="3333" clip-path="url(#z35929c8)" d="M458 510L463 542L415 591L279 676"/>
<path style="--d:9s;" pathLength="3333" clip-path="url(#z35929c9)" d="M524 584L520 620L433 703L242 811"/>
<path style="--d:10s;" pathLength="3333" clip-path="url(#z35929c10)" d="M648 436L673 482L565 581"/>
<path style="--d:11s;" pathLength="3333" clip-path="url(#z35929c11)" d="M554 578L777 766L922 774"/>
</svg>