<!--
AnimCJK 2016-2017 Copyright Francois Mizessyn, http://gooo.free.fr/animCJK/
Derived from:
    MakeMeAHanzi project - https://github.com/skishore/makemeahanzi
    Arphic PL KaitiM GB - https://apps.ubuntu.com/cat/applications/precise/fonts-arphic-gkai00mp/
    Arphic PL UKai - https://apps.ubuntu.com/cat/applications/fonts-arphic-ukai/
You can redistribute and/or modify this file under the terms of the Arphic Public License
as published by Arphic Technology Co., Ltd.
You should have received a copy of this license (the directory "APL") along with this file;
if not, see http://ftp.gnu.org/non-gnu/chinese-fonts-truetype/LICENSE.
-->
<svg id="z35946" class="acjk" version="1.1" viewBox="0 0 1024 1024" xmlns="http://www.w3.org/2000/svg" xmlns:xlink="http://www.w3.org/1999/xlink">
<style>
<![CDATA[
	@keyframes z35946k {
		from {
			stroke:#c00;
			stroke-dashoffset:3000;
		}
		75% {
			stroke:#c00;
			stroke-dashoffset:0;
		}
		to {
			stroke:#000;
		}
	}
	#z35946 path[clip-path] {
		animation:z35946k 1s linear both;
		stroke-dasharray:3000;
		stroke-width:128;
		stroke-linecap:round;
		fill:none;
	}
	#z35946 path[clip-path="url(#z35946c1)"] {animation-delay:1s;}
	#z35946 path[clip-path="url(#z35946c2)"] {animation-delay:2s;}
	#z35946 path[clip-path="url(#z35946c3)"] {animation-delay:3s;}
	#z35946 path[clip-path="url(#z35946c4)"] {animation-delay:4s;}
	#z35946 path[clip-path="url(#z35946c5)"] {animation-delay:5s;}
	#z35946 path[clip-path="url(#z35946c6)"] {animation-delay:6s;}
	#z35946 path[clip-path="url(#z35946c7)"] {animation-delay:7s;}
	#z35946 path[clip-path="url(#z35946c8)"] {animation-delay:8s;}
	#z35946 path[clip-path="url(#z35946c9)"] {animation-delay:9s;}
	#z35946 path[clip-path="url(#z35946c10)"] {animation-delay:10s;}
	#z35946 path[clip-path="url(#z35946c11)"] {animation-delay:11s;}
	#z35946 path[clip-path="url(#z35946c12)"] {animation-delay:12s;}
	#z35946 path[clip-path="url(#z35946c13)"] {animation-delay:13s;}
	#z35946 path[clip-path="url(#z35946c14)"] {animation-delay:14s;}
	#z35946 path {fill:#ccc;}
]]>
</style>
<g transform="scale(1,-1) translate(0,-900)">
	<path id="z35946d1" d="M460 823Q491 805 525 783Q538 774 553 777Q563 778 565 792Q566 807 554 831Q545 850 513 858Q441 871 427 863Q423 859 427 847Q431 838 460 823Z"/>
	<path id="z35946d2" d="M281 736Q253 735 274 716Q301 689 350 697Q555 733 740 747Q750 746 760 758Q761 770 739 781Q708 803 635 784Q497 757 296 738Q289 738 281 736Z"/>
	<path id="z35946d3" d="M404 663Q394 669 361 671Q349 672 347 668Q341 661 350 647Q372 613 391 554Q395 536 408 526Q427 507 430 522Q431 529 432 540L427 571Q417 619 415 637L404 663Z"/>
	<path id="z35946d4" d="M630 599Q648 629 670 640Q685 655 673 670Q660 683 617 706Q602 713 584 707Q511 679 404 663L415 637Q418 638 423 639Q496 652 567 666Q586 670 593 663Q599 654 582 604L630 599Z"/>
	<path id="z35946d5" d="M432 540Q436 540 444 541Q505 554 641 568Q651 569 652 577Q652 584 630 599L582 604Q581 604 580 604Q495 582 427 571L432 540Z"/>
	<path id="z35946d6" d="M248 474Q238 504 221 515Q202 528 201 503Q204 475 175 428Q123 368 153 316Q153 315 155 311Q170 286 190 313Q206 338 219 378Q232 418 242 445L248 474Z"/>
	<path id="z35946d7" d="M242 445Q266 430 312 443Q481 491 710 510Q759 514 775 512Q785 506 785 501Q785 498 748 435Q739 422 745 416Q752 412 771 421Q831 449 877 453Q916 459 916 467Q915 477 845 538Q820 559 756 546Q612 531 361 489Q304 480 248 474L242 445Z"/>
	<path id="z35946d8" d="M439 378Q613 414 619 418Q626 425 623 433Q616 443 590 451Q562 457 535 446Q492 433 447 421Q396 411 337 406Q303 400 327 385Q348 370 393 370L439 378Z"/>
	<path id="z35946d9" d="M438 330Q441 333 446 335Q456 339 452 355Q446 367 439 378L393 370Q357 307 256 273Q235 267 225 260Q213 253 226 250Q268 237 370 290Q382 299 409 314L438 330Z"/>
	<path id="z35946d10" d="M536 269Q491 320 438 330L409 314Q412 313 414 312Q424 308 435 302L487 264Q500 251 506 240L524 182Q534 160 518 79Q511 45 501 40Q495 34 443 34Q380 41 380 32Q380 25 394 14Q466 -26 498 -56Q511 -72 525 -66Q567 -42 579 68Q585 147 573 191Q570 200 568 207L536 269Z"/>
	<path id="z35946d11" d="M435 302Q377 227 269 172Q254 166 238 157Q219 150 240 147Q322 143 446 234Q467 250 481 257Q485 261 487 264L435 302Z"/>
	<path id="z35946d12" d="M506 240Q502 239 498 234Q399 117 199 34Q183 25 193 21Q200 14 214 16Q325 23 469 131Q512 165 513 167Q520 174 524 182L506 240Z"/>
	<path id="z35946d13" d="M552 258Q594 274 621 285Q696 319 713 323Q737 330 729 349Q719 368 695 388Q674 406 661 405Q648 406 650 392Q650 367 593 317Q566 295 537 270Q536 270 536 269L552 258Z"/>
	<path id="z35946d14" d="M568 207Q739 57 783 49Q862 49 958 81Q977 85 978 92Q979 99 963 103Q768 142 661 193Q639 205 552 258L536 269L568 207Z"/>
	<defs>
		<clipPath id="z35946c1"><use xlink:href="#z35946d1"/></clipPath>
		<clipPath id="z35946c2"><use xlink:href="#z35946d2"/></clipPath>
		<clipPath id="z35946c3"><use xlink:href="#z35946d3"/></clipPath>
		<clipPath id="z35946c4"><use xlink:href="#z35946d4"/></clipPath>
		<clipPath id="z35946c5"><use xlink:href="#z35946d5"/></clipPath>
		<clipPath id="z35946c6"><use xlink:href="#z35946d6"/></clipPath>
		<clipPath id="z35946c7"><use xlink:href="#z35946d7"/></clipPath>
		<clipPath id="z35946c8"><use xlink:href="#z35946d8"/></clipPath>
		<clipPath id="z35946c9"><use xlink:href="#z35946d9"/></clipPath>
		<clipPath id="z35946c10"><use xlink:href="#z35946d10"/></clipPath>
		<clipPath id="z35946c11"><use xlink:href="#z35946d11"/></clipPath>
		<clipPath id="z35946c12"><use xlink:href="#z35946d12"/></clipPath>
		<clipPath id="z35946c13"><use xlink:href="#z35946d13"/></clipPath>
		<clipPath id="z35946c14"><use xlink:href="#z35946d14"/></clipPath>
	</defs>
	<path pathLength="2999" clip-path="url(#z35946c1)" d="M432 859L556 785"/>
	<path pathLength="2999" clip-path="url(#z35946c2)" d="M273 729L331 718L755 763"/>
	<path pathLength="2999" clip-path="url(#z35946c3)" d="M354 663L383 644L422 521"/>
	<path pathLength="2999" clip-path="url(#z35946c4)" d="M412 659L596 688L636 652L593 604"/>
	<path pathLength="2999" clip-path="url(#z35946c5)" d="M435 566L646 580"/>
	<path pathLength="2999" clip-path="url(#z35946c6)" d="M209 511L219 460L163 306"/>
	<path pathLength="2999" clip-path="url(#z35946c7)" d="M249 448L786 532L823 513L860 456L751 419"/>
	<path pathLength="2999" clip-path="url(#z35946c8)" d="M324 398L393 391L616 428"/>
	<path pathLength="2999" clip-path="url(#z35946c9)" d="M435 372L344 296L228 255"/>
	<path pathLength="2999" clip-path="url(#z35946c10)" d="M421 314L519 259L550 180L552 101L529 8L502 -16L388 30"/>
	<path pathLength="2999" clip-path="url(#z35946c11)" d="M480 265L444 270L326 183L241 152"/>
	<path pathLength="2999" clip-path="url(#z35946c12)" d="M505 231L495 189L395 110L198 23"/>
	<path pathLength="2999" clip-path="url(#z35946c13)" d="M660 401L682 346L547 270"/>
	<path pathLength="2999" clip-path="url(#z35946c14)" d="M543 260L769 104L969 91"/>
</g>
</svg>