<!--
AnimCJK 2016-2017 Copyright Francois Mizessyn, http://gooo.free.fr/animCJK/
Derived from:
    MakeMeAHanzi project - https://github.com/skishore/makemeahanzi
    Arphic PL KaitiM GB - https://apps.ubuntu.com/cat/applications/precise/fonts-arphic-gkai00mp/
    Arphic PL UKai - https://apps.ubuntu.com/cat/applications/fonts-arphic-ukai/
You can redistribute and/or modify this file under the terms of the Arphic Public License
as published by Arphic Technology Co., Ltd.
You should have received a copy of this license (the directory "APL") along with this file;
if not, see http://ftp.gnu.org/non-gnu/chinese-fonts-truetype/LICENSE.
-->
<svg id="z36129" class="acjk" version="1.1" viewBox="0 0 1024 1024" xmlns="http://www.w3.org/2000/svg" xmlns:xlink="http://www.w3.org/1999/xlink">
<style>
<![CDATA[
	@keyframes z36129k {
		from {
			stroke:#c00;
			stroke-dashoffset:3000;
		}
		75% {
			stroke:#c00;
			stroke-dashoffset:0;
		}
		to {
			stroke:#000;
		}
	}
	#z36129 path[clip-path] {
		animation:z36129k 1s linear both;
		stroke-dasharray:3000;
		stroke-width:128;
		stroke-linecap:round;
		fill:none;
	}
	#z36129 path[clip-path="url(#z36129c1)"] {animation-delay:1s;}
	#z36129 path[clip-path="url(#z36129c2)"] {animation-delay:2s;}
	#z36129 path[clip-path="url(#z36129c3)"] {animation-delay:3s;}
	#z36129 path[clip-path="url(#z36129c4)"] {animation-delay:4s;}
	#z36129 path[clip-path="url(#z36129c5)"] {animation-delay:5s;}
	#z36129 path[clip-path="url(#z36129c6)"] {animation-delay:6s;}
	#z36129 path[clip-path="url(#z36129c7)"] {animation-delay:7s;}
	#z36129 path {fill:#ccc;}
]]>
</style>
<g transform="scale(1,-1) translate(0,-900)">
	<path id="z36129d1" d="M524 749Q588 764 657 775Q703 785 710 791Q720 798 715 808Q708 820 678 828Q656 834 522 797Q423 779 370 774Q333 768 359 750Q404 726 462 738Q469 739 480 741L524 749Z"/>
	<path id="z36129d2" d="M532 628Q539 697 543 702Q552 726 524 749L480 741L486 622L532 628Z"/>
	<path id="z36129d3" d="M486 622Q320 603 126 580Q104 579 120 559Q153 526 197 536Q447 603 846 603Q871 603 895 602Q917 602 923 612Q930 625 911 640Q848 688 782 669Q682 651 532 628L486 622Z"/>
	<path id="z36129d4" d="M391 511Q370 529 344 536Q335 537 329 530Q326 524 334 514Q367 423 341 285Q328 245 333 221Q342 188 353 176Q363 163 373 176Q397 200 398 298Q398 443 405 483L391 511Z"/>
	<path id="z36129d5" d="M646 255Q639 230 653 208Q668 177 678 178Q693 179 710 214Q726 242 724 264Q714 333 716 440Q716 471 733 497Q743 513 736 524Q708 549 658 569Q642 575 618 566Q509 518 391 511L405 483Q409 483 522 506Q615 530 635 517Q645 498 649 445Q653 286 646 255Z"/>
	<path id="z36129d6" d="M491 375Q485 159 410 83Q392 65 369 49Q332 24 250 -9Q238 -12 234 -15Q230 -19 244 -24Q332 -30 440 44Q449 53 458 62Q521 135 537 297Q540 354 559 400Q563 410 556 417Q540 433 508 449Q489 459 473 454Q454 448 468 431Q493 403 491 375Z"/>
	<path id="z36129d7" d="M606 133Q655 70 713 -16Q726 -41 742 -48Q752 -51 762 -42Q777 -29 771 20Q767 84 612 166Q603 173 599 160Q596 145 606 133Z"/>
	<defs>
		<clipPath id="z36129c1"><use xlink:href="#z36129d1"/></clipPath>
		<clipPath id="z36129c2"><use xlink:href="#z36129d2"/></clipPath>
		<clipPath id="z36129c3"><use xlink:href="#z36129d3"/></clipPath>
		<clipPath id="z36129c4"><use xlink:href="#z36129d4"/></clipPath>
		<clipPath id="z36129c5"><use xlink:href="#z36129d5"/></clipPath>
		<clipPath id="z36129c6"><use xlink:href="#z36129d6"/></clipPath>
		<clipPath id="z36129c7"><use xlink:href="#z36129d7"/></clipPath>
	</defs>
	<path pathLength="2999" clip-path="url(#z36129c1)" d="M356 763L434 758L712 808"/>
	<path pathLength="2999" clip-path="url(#z36129c2)" d="M487 738L513 705L505 625"/>
	<path pathLength="2999" clip-path="url(#z36129c3)" d="M119 572L177 560L822 639L921 622"/>
	<path pathLength="2999" clip-path="url(#z36129c4)" d="M337 527L375 476L365 179"/>
	<path pathLength="2999" clip-path="url(#z36129c5)" d="M401 505L627 546L685 515L686 263L668 186"/>
	<path pathLength="2999" clip-path="url(#z36129c6)" d="M465 446L525 397L465 117L388 36L239 -16"/>
	<path pathLength="2999" clip-path="url(#z36129c7)" d="M604 159L726 35L749 -44"/>
</g>
</svg>