<!--
AnimCJK 2016-2019 Copyright Francois Mizessyn - https://github.com/parsimonhi/animCJK
Derived from:
    MakeMeAHanzi project - https://github.com/skishore/makemeahanzi
    Arphic PL KaitiM GB font
    Arphic PL UKai font
You can redistribute and/or modify this file under the terms of the Arphic Public License
as published by Arphic Technology Co., Ltd.
You should have received a copy of this license along with this file.
If not, see http://ftp.gnu.org/non-gnu/chinese-fonts-truetype/LICENSE.
-->
<svg id="z36142" class="acjk" version="1.1" viewBox="0 0 1024 1024" xmlns="http://www.w3.org/2000/svg" xmlns:xlink="http://www.w3.org/1999/xlink">
<style>
<![CDATA[
@keyframes zk {
	to {
		stroke-dashoffset:0;
	}
}
svg.acjk path[clip-path] {
	--t:0.8s;
	animation:zk var(--t) linear forwards var(--d);
	stroke-dasharray:3337;
	stroke-dashoffset:3339;
	stroke-width:128;
	stroke-linecap:round;
	fill:none;
	stroke:#000;
}
svg.acjk path[id] {fill:#ccc;}
]]>
</style>
<path id="z36142d1" d="M192 214Q173 198 149 191Q142 190 135 198Q132 202 139 213Q182 315 148 521Q132 593 134 605Q143 636 154 648Q164 661 173 648Q200 615 200 440Q200 287 208 240C210 230 200 220 192 214Z"/>
<path id="z36142d2" d="M359 563Q352 584 365 604Q378 631 386 630Q399 629 414 599Q427 575 426 556Q413 462 415 313Q414 270 438 234Q454 204 371 170Q356 166 288 193Q221 209 192 214C182 216 198 240 208 240Q224 240 283 224Q341 209 354 217Q364 242 370 313Q371 523 359 563Z"/>
<path id="z36142d3" d="M266 363Q281 681 189 780Q164 810 109 850Q99 856 97 859Q93 863 106 864Q140 864 215 805Q308 723 309 440Q309 380 321 335Q325 326 318 320Q272 287 243 296Q227 303 241 316Q265 338 266 363Z"/>
<path id="z36142d4" d="M345 733Q373 767 404 806Q414 819 429 821Q439 822 445 811Q452 798 448 770Q447 748 415 725Q343 682 328 685Q324 688 323 700Q324 710 345 733Z"/>
<path id="z36142d5" d="M623 181Q651 206 681 236Q694 249 712 250Q722 249 729 235Q733 220 725 189Q719 167 687 152Q614 121 596 129Q590 133 592 146Q596 158 623 181Z"/>
<path id="z36142d6" d="M523 345Q505 317 491 311Q487 307 482 311Q476 315 477 325Q483 355 457 424Q448 440 451 459Q455 478 465 491Q472 501 478 493Q484 492 491 476Q495 469 502 441Q520 377 525 372C530 364 528 352 523 345Z"/>
<path id="z36142d7" d="M525 372Q546 382 591 371Q663 341 784 327Q797 324 804 326Q814 335 813 340Q813 346 766 430Q759 443 765 447Q772 451 789 440Q849 397 899 382Q939 367 939 358Q938 348 868 298Q846 280 763 299Q672 314 589 333Q556 340 523 344Q522 344 523 345C515 348 517 369 525 372Z"/>
<path id="z36142d8" d="M490 680Q457 683 482 703Q518 730 541 730Q572 718 868 690Q880 691 891 678Q892 665 868 652Q826 628 765 644Q633 665 490 680Z"/>
<defs>
	<clipPath id="z36142c1"><use xlink:href="#z36142d1"/></clipPath>
	<clipPath id="z36142c2"><use xlink:href="#z36142d2"/></clipPath>
	<clipPath id="z36142c3"><use xlink:href="#z36142d3"/></clipPath>
	<clipPath id="z36142c4"><use xlink:href="#z36142d4"/></clipPath>
	<clipPath id="z36142c5"><use xlink:href="#z36142d5"/></clipPath>
	<clipPath id="z36142c6"><use xlink:href="#z36142d6"/></clipPath>
	<clipPath id="z36142c7"><use xlink:href="#z36142d7"/></clipPath>
	<clipPath id="z36142c8"><use xlink:href="#z36142d8"/></clipPath>
</defs>
<path style="--d:1s;" pathLength="3333" clip-path="url(#z36142c1)" d="M141 200L179 246L163 648"/>
<path style="--d:2s;" pathLength="3333" clip-path="url(#z36142c2)" d="M201 215L356 192L397 223L384 623"/>
<path style="--d:3s;" pathLength="3333" clip-path="url(#z36142c3)" d="M239 302L291 334L268 658L214 779L104 857"/>
<path style="--d:4s;" pathLength="3333" clip-path="url(#z36142c4)" d="M332 694L408 760L436 815"/>
<path style="--d:5s;" pathLength="3333" clip-path="url(#z36142c5)" d="M595 137L672 180L722 242"/>
<path style="--d:6s;" pathLength="3333" clip-path="url(#z36142c6)" d="M486 314L501 359L472 489"/>
<path style="--d:7s;" pathLength="3333" clip-path="url(#z36142c7)" d="M531 352L837 315L883 359L770 442"/>
<path style="--d:8s;" pathLength="3333" clip-path="url(#z36142c8)" d="M483 692L885 671"/>
</svg>