<!--
AnimCJK 2016-2018 Copyright Francois Mizessyn, http://gooo.free.fr/animCJK/
Derived from:
    MakeMeAHanzi project - https://github.com/skishore/makemeahanzi
    Arphic PL KaitiM GB - https://apps.ubuntu.com/cat/applications/precise/fonts-arphic-gkai00mp/
    Arphic PL UKai - https://apps.ubuntu.com/cat/applications/fonts-arphic-ukai/
You can redistribute and/or modify this file under the terms of the Arphic Public License
as published by Arphic Technology Co., Ltd.
You should have received a copy of this license (the directory "APL") along with this file;
if not, see http://ftp.gnu.org/non-gnu/chinese-fonts-truetype/LICENSE.
-->
<svg id="z36165" class="acjk" version="1.1" viewBox="0 0 1024 1024" xmlns="http://www.w3.org/2000/svg" xmlns:xlink="http://www.w3.org/1999/xlink">
<style>
<![CDATA[
@keyframes z36165k {
	from {
		stroke:#ccc;
		stroke-dashoffset:3334;
	}
	1% {
		stroke:#c00;
		stroke-dashoffset:3334;
	}
	75% {
		stroke:#c00;
		stroke-dashoffset:0;
	}
	to {
		stroke:#000;
	}
}
#z36165 path[clip-path] {
	animation:z36165k 1s linear both;
	stroke-dasharray:3334;
	stroke-width:128;
	stroke-linecap:round;
	fill:none;
}
#z36165 path[clip-path="url(#z36165c1)"] {animation-delay:1s;}
#z36165 path[clip-path="url(#z36165c2)"] {animation-delay:2s;}
#z36165 path[clip-path="url(#z36165c3)"] {animation-delay:3s;}
#z36165 path[clip-path="url(#z36165c4)"] {animation-delay:4s;}
#z36165 path[clip-path="url(#z36165c5)"] {animation-delay:5s;}
#z36165 path[clip-path="url(#z36165c6)"] {animation-delay:6s;}
#z36165 path[clip-path="url(#z36165c7)"] {animation-delay:7s;}
#z36165 path[clip-path="url(#z36165c8)"] {animation-delay:8s;}
#z36165 path[clip-path="url(#z36165c9)"] {animation-delay:9s;}
#z36165 path[clip-path="url(#z36165c10)"] {animation-delay:10s;}
#z36165 path {fill:#ccc;}
]]>
</style>
<path id="z36165d1" d="M186 230Q177 221 159 215Q150 211 140 214Q133 218 138 230Q157 293 156 424Q149 541 140 576Q127 630 159 667Q168 679 178 668Q193 649 194 565Q198 291 201 272Q202 262 202 255L186 230 Z"/>
<path id="z36165d2" d="M355 623Q348 645 360 666Q373 694 382 694Q395 693 411 662Q427 637 425 617Q412 505 415 333Q415 282 444 240Q453 225 446 217Q421 195 376 177Q363 173 341 181Q275 217 186 230L202 255Q236 237 316 223Q346 216 356 221Q369 252 373 333Q370 577 355 623 Z"/>
<path id="z36165d3" d="M260 353Q266 695 168 795Q144 820 105 854Q95 858 93 863Q89 867 103 868Q133 868 205 809Q301 713 302 454Q302 381 318 325Q322 316 314 310Q299 297 269 285Q251 278 238 283Q222 290 235 304Q259 328 260 353 Z"/>
<path id="z36165d4" d="M323 768Q347 801 371 839Q378 852 391 854Q398 855 405 847Q412 837 411 813Q411 792 386 769Q322 723 312 726Q308 727 306 738Q307 747 323 768 Z"/>
<path id="z36165d5" d="M607 136Q632 158 661 186Q677 201 695 200Q707 199 712 183Q718 167 707 133Q695 102 601 81Q583 77 576 81Q570 85 572 100Q576 113 607 136 Z"/>
<path id="z36165d6" d="M631 308Q722 290 846 285Q894 285 901 275Q905 265 890 253Q832 219 783 237Q611 274 454 304Q435 307 450 321Q463 333 480 337Q499 341 513 336Q550 323 594 315L631 308 Z"/>
<path id="z36165d7" d="M684 511Q620 511 567 514Q539 514 554 497Q606 428 656 378Q671 362 669 355Q669 343 631 308L594 315Q603 352 535 459Q520 483 491 504Q472 517 474 529Q477 548 490 565Q500 577 512 570Q554 546 669 534L684 511 Z"/>
<path id="z36165d8" d="M669 534Q603 633 442 761Q433 765 443 769Q503 760 618 662Q691 587 779 462Q789 449 796 442Q803 438 802 428Q801 418 789 407Q759 377 730 382Q723 383 723 395Q729 434 684 511L669 534 Z"/>
<path id="z36165d9" d="M721 745Q749 720 773 693Q813 650 832 632Q842 620 841 611Q838 598 813 590Q785 580 773 582Q766 583 763 596Q732 696 513 856Q492 869 519 868Q580 864 708 756L721 745 Z"/>
<path id="z36165d10" d="M708 756Q709 765 719 773Q785 824 865 898Q881 916 897 919Q906 920 913 909Q923 896 908 853Q889 796 721 745L708 756 Z"/>
<defs>
	<clipPath id="z36165c1"><use xlink:href="#z36165d1"/></clipPath>
	<clipPath id="z36165c2"><use xlink:href="#z36165d2"/></clipPath>
	<clipPath id="z36165c3"><use xlink:href="#z36165d3"/></clipPath>
	<clipPath id="z36165c4"><use xlink:href="#z36165d4"/></clipPath>
	<clipPath id="z36165c5"><use xlink:href="#z36165d5"/></clipPath>
	<clipPath id="z36165c6"><use xlink:href="#z36165d6"/></clipPath>
	<clipPath id="z36165c7"><use xlink:href="#z36165d7"/></clipPath>
	<clipPath id="z36165c8"><use xlink:href="#z36165d8"/></clipPath>
	<clipPath id="z36165c9"><use xlink:href="#z36165d9"/></clipPath>
	<clipPath id="z36165c10"><use xlink:href="#z36165d10"/></clipPath>
</defs>
<path pathLength="3333" clip-path="url(#z36165c1)" d="M145 220L174 263L169 668"/>
<path pathLength="3333" clip-path="url(#z36165c2)" d="M196 235L355 197L407 240L378 689"/>
<path pathLength="3333" clip-path="url(#z36165c3)" d="M238 291L288 336L262 641L211 771L98 862"/>
<path pathLength="3333" clip-path="url(#z36165c4)" d="M316 736L399 849"/>
<path pathLength="3333" clip-path="url(#z36165c5)" d="M575 91L652 130L704 190"/>
<path pathLength="3333" clip-path="url(#z36165c6)" d="M450 312L805 259L897 267"/>
<path pathLength="3333" clip-path="url(#z36165c7)" d="M602 319L628 359L515 525L528 542L675 517"/>
<path pathLength="3333" clip-path="url(#z36165c8)" d="M730 387L759 438L673 566L559 686L446 763"/>
<path pathLength="3333" clip-path="url(#z36165c9)" d="M838 612L791 617L687 743L514 862"/>
<path pathLength="3333" clip-path="url(#z36165c10)" d="M716 757L847 835L909 911"/>
</svg>