<!--
AnimCJK 2016-2017 Copyright Francois Mizessyn, http://gooo.free.fr/animCJK/
Derived from:
    MakeMeAHanzi project - https://github.com/skishore/makemeahanzi
    Arphic PL KaitiM GB - https://apps.ubuntu.com/cat/applications/precise/fonts-arphic-gkai00mp/
    Arphic PL UKai - https://apps.ubuntu.com/cat/applications/fonts-arphic-ukai/
You can redistribute and/or modify this file under the terms of the Arphic Public License
as published by Arphic Technology Co., Ltd.
You should have received a copy of this license (the directory "APL") along with this file;
if not, see http://ftp.gnu.org/non-gnu/chinese-fonts-truetype/LICENSE.
-->
<svg id="z36175" class="acjk" version="1.1" viewBox="0 0 1024 1024" xmlns="http://www.w3.org/2000/svg" xmlns:xlink="http://www.w3.org/1999/xlink">
<style>
<![CDATA[
	@keyframes z36175k {
		from {
			stroke:#c00;
			stroke-dashoffset:3000;
		}
		75% {
			stroke:#c00;
			stroke-dashoffset:0;
		}
		to {
			stroke:#000;
		}
	}
	#z36175 path[clip-path] {
		animation:z36175k 1s linear both;
		stroke-dasharray:3000;
		stroke-width:128;
		stroke-linecap:round;
		fill:none;
	}
	#z36175 path[clip-path="url(#z36175c1)"] {animation-delay:1s;}
	#z36175 path[clip-path="url(#z36175c2)"] {animation-delay:2s;}
	#z36175 path[clip-path="url(#z36175c3)"] {animation-delay:3s;}
	#z36175 path[clip-path="url(#z36175c4)"] {animation-delay:4s;}
	#z36175 path[clip-path="url(#z36175c5)"] {animation-delay:5s;}
	#z36175 path[clip-path="url(#z36175c6)"] {animation-delay:6s;}
	#z36175 path[clip-path="url(#z36175c7)"] {animation-delay:7s;}
	#z36175 path[clip-path="url(#z36175c8)"] {animation-delay:8s;}
	#z36175 path[clip-path="url(#z36175c9)"] {animation-delay:9s;}
	#z36175 path[clip-path="url(#z36175c10)"] {animation-delay:10s;}
	#z36175 path[clip-path="url(#z36175c11)"] {animation-delay:11s;}
	#z36175 path[clip-path="url(#z36175c12)"] {animation-delay:12s;}
	#z36175 path {fill:#ccc;}
]]>
</style>
<g transform="scale(1,-1) translate(0,-900)">
	<path id="z36175d1" d="M525 677Q529 744 551 825Q555 835 538 848Q508 864 488 868Q475 872 468 864Q461 858 468 845Q486 823 487 673L525 677Z"/>
	<path id="z36175d2" d="M347 744Q366 728 386 707Q398 697 411 697Q421 697 425 709Q429 722 421 747Q417 762 393 772Q335 790 324 787Q320 783 321 772Q324 762 347 744Z"/>
	<path id="z36175d3" d="M652 809Q628 778 580 732Q574 726 579 719Q586 718 593 721Q675 767 716 784Q732 787 729 797Q725 812 710 830Q694 848 675 851Q662 852 661 835Q662 822 652 809Z"/>
	<path id="z36175d4" d="M265 646Q265 647 265 648Q253 670 243 679Q225 694 223 669Q227 639 180 578Q141 536 167 479Q180 454 200 479Q219 506 233 545Q249 591 262 619L265 646Z"/>
	<path id="z36175d5" d="M262 619Q286 603 324 611Q460 650 697 669Q734 672 747 669Q763 659 761 650Q762 647 757 635Q730 575 737 569Q744 565 760 576Q812 609 854 618Q888 628 888 636Q887 646 816 698Q795 716 722 703Q599 690 525 677L487 673Q436 667 375 658Q320 651 265 646L262 619Z"/>
	<path id="z36175d6" d="M389 579Q379 585 351 587Q341 588 338 584Q334 580 341 566Q363 529 381 464Q385 445 398 433Q414 415 417 429Q420 438 418 452L413 481Q403 530 400 550L389 579Z"/>
	<path id="z36175d7" d="M620 503Q645 548 667 557Q682 572 670 588Q657 600 614 623Q601 630 581 624Q506 594 389 579L400 550Q409 550 566 581Q584 585 591 578Q595 569 578 513L620 503Z"/>
	<path id="z36175d8" d="M418 452Q422 452 429 453Q490 466 625 478Q634 479 635 486Q635 492 620 503L578 513Q574 514 569 512Q484 491 413 481L418 452Z"/>
	<path id="z36175d9" d="M370 394Q351 409 328 417Q321 418 315 411Q312 407 318 397Q345 342 326 207Q314 156 317 142Q324 114 335 103Q345 91 353 103Q374 127 374 209Q374 332 380 366L370 394Z"/>
	<path id="z36175d10" d="M620 173Q613 152 625 132Q638 105 646 106Q659 107 674 137Q687 161 686 179Q670 338 697 378Q706 393 693 408Q669 427 630 444Q615 450 593 442Q496 399 370 394L380 366Q387 366 394 367Q593 409 613 395Q620 379 624 334Q627 199 620 173Z"/>
	<path id="z36175d11" d="M469 258Q472 119 431 67Q395 16 259 -30Q246 -31 243 -35Q237 -39 251 -45Q329 -51 429 -3Q444 7 457 19Q509 73 520 205Q523 257 536 285Q540 295 533 302Q517 318 484 332Q465 342 449 336Q430 330 445 313Q470 286 469 258Z"/>
	<path id="z36175d12" d="M563 86Q617 34 680 -41Q695 -60 709 -65Q718 -66 725 -58Q737 -45 727 -4Q715 54 570 114Q567 115 566 115Q557 121 555 109Q554 96 563 86Z"/>
	<defs>
		<clipPath id="z36175c1"><use xlink:href="#z36175d1"/></clipPath>
		<clipPath id="z36175c2"><use xlink:href="#z36175d2"/></clipPath>
		<clipPath id="z36175c3"><use xlink:href="#z36175d3"/></clipPath>
		<clipPath id="z36175c4"><use xlink:href="#z36175d4"/></clipPath>
		<clipPath id="z36175c5"><use xlink:href="#z36175d5"/></clipPath>
		<clipPath id="z36175c6"><use xlink:href="#z36175d6"/></clipPath>
		<clipPath id="z36175c7"><use xlink:href="#z36175d7"/></clipPath>
		<clipPath id="z36175c8"><use xlink:href="#z36175d8"/></clipPath>
		<clipPath id="z36175c9"><use xlink:href="#z36175d9"/></clipPath>
		<clipPath id="z36175c10"><use xlink:href="#z36175d10"/></clipPath>
		<clipPath id="z36175c11"><use xlink:href="#z36175d11"/></clipPath>
		<clipPath id="z36175c12"><use xlink:href="#z36175d12"/></clipPath>
	</defs>
	<path pathLength="2999" clip-path="url(#z36175c1)" d="M471 860L515 819L500 675"/>
	<path pathLength="2999" clip-path="url(#z36175c2)" d="M329 780L421 708"/>
	<path pathLength="2999" clip-path="url(#z36175c3)" d="M671 845L690 801L585 727"/>
	<path pathLength="2999" clip-path="url(#z36175c4)" d="M233 674L238 627L180 471"/>
	<path pathLength="2999" clip-path="url(#z36175c5)" d="M270 623L754 689L791 676L834 632L742 576"/>
	<path pathLength="2999" clip-path="url(#z36175c6)" d="M344 581L371 559L409 430"/>
	<path pathLength="2999" clip-path="url(#z36175c7)" d="M397 575L599 603L633 571L592 510"/>
	<path pathLength="2999" clip-path="url(#z36175c8)" d="M421 475L628 486"/>
	<path pathLength="2999" clip-path="url(#z36175c9)" d="M325 407L354 363L347 103"/>
	<path pathLength="2999" clip-path="url(#z36175c10)" d="M378 391L609 422L642 407L660 374L643 112"/>
	<path pathLength="2999" clip-path="url(#z36175c11)" d="M445 328L501 286L463 71L393 5L248 -39"/>
	<path pathLength="2999" clip-path="url(#z36175c12)" d="M562 107L680 11L715 -60"/>
</g>
</svg>