<!--
AnimCJK 2016-2019 Copyright Francois Mizessyn - https://github.com/parsimonhi/animCJK
Derived from:
    MakeMeAHanzi project - https://github.com/skishore/makemeahanzi
    Arphic PL KaitiM GB font
    Arphic PL UKai font
You can redistribute and/or modify this file under the terms of the Arphic Public License
as published by Arphic Technology Co., Ltd.
You should have received a copy of this license along with this file.
If not, see http://ftp.gnu.org/non-gnu/chinese-fonts-truetype/LICENSE.
-->
<svg id="z36177" class="acjk" version="1.1" viewBox="0 0 1024 1024" xmlns="http://www.w3.org/2000/svg" xmlns:xlink="http://www.w3.org/1999/xlink">
<style>
<![CDATA[
@keyframes zk {
	to {
		stroke-dashoffset:0;
	}
}
svg.acjk path[clip-path] {
	--t:0.8s;
	animation:zk var(--t) linear forwards var(--d);
	stroke-dasharray:3337;
	stroke-dashoffset:3339;
	stroke-width:128;
	stroke-linecap:round;
	fill:none;
	stroke:#000;
}
svg.acjk path[id] {fill:#ccc;}
]]>
</style>
<path id="z36177d1" d="M371 89Q360 83 360 98Q360 108 363 115Q380 189 365 255Q357 294 356 302Q355 327 373 349Q382 358 390 349Q406 330 414 214Q417 145 419 136C421 125 414 110 404 106Q387 98 371 89Z"/>
<path id="z36177d2" d="M419 136Q420 136 525 118Q610 99 628 111Q643 141 639 239Q639 275 636 285Q629 306 641 322Q651 346 661 346Q673 345 686 318Q700 296 698 280Q686 157 710 127Q719 111 712 102Q685 80 641 60Q625 55 594 66Q572 73 519 91Q461 109 404 106C393 106 408 138 419 136Z"/>
<path id="z36177d3" d="M492 225Q495 351 453 396Q416 434 267 474Q253 478 252 479Q247 481 259 486Q351 501 457 456C471 446 471 446 478 441Q514 411 531 323C542 260 542 260 548 229Q552 212 557 200Q567 183 515 160C509 157 509 157 506 156Q488 147 472 152Q454 158 468 173Q493 200 492 225Z"/>
<path id="z36177d4" d="M580 369Q635 413 710 484Q735 513 752 500C755 497 755 497 756 496Q766 484 753 443Q739 398 579 340Q570 337 568 347Q568 361 580 369Z"/>
<path id="z36177d5" d="M228 563Q214 549 194 547Q186 545 180 547Q176 551 182 571Q196 622 196 661Q197 692 189 726Q178 772 210 806Q220 816 227 806Q240 787 238 741Q239 651 239 596Q240 592 240 586C240 577 235 568 228 563Z"/>
<path id="z36177d6" d="M399 747Q392 771 411 796Q419 808 425 808Q435 807 449 784Q464 759 461 741Q442 611 466 575Q476 561 468 553Q443 533 402 518Q388 514 363 526Q310 545 274 555Q253 559 228 563C219 564 231 586 240 586Q250 586 314 571Q375 555 386 561Q398 581 402 675Q404 731 399 747Z"/>
<path id="z36177d7" d="M331 810Q335 792 347 702Q351 665 359 645Q366 630 324 612Q319 610 313 608Q296 600 282 606Q267 611 279 624Q314 659 298 769Q290 855 190 908Q151 922 144 928Q139 931 152 935Q214 939 288 888C296 880 296 880 300 876Q318 855 327 826C330 815 330 815 331 810Z"/>
<path id="z36177d8" d="M327 826Q328 827 349 841Q386 869 434 914Q447 926 461 930Q470 930 473 918Q477 904 468 880Q453 840 333 810C332 810 332 810 331 810C326 809 323 823 327 826Z"/>
<path id="z36177d9" d="M591 563Q577 550 557 547Q548 545 543 547Q539 551 545 571Q559 620 559 661Q560 692 552 726Q541 772 572 806Q582 816 590 806Q603 787 601 741Q602 651 602 596Q603 592 603 586C603 577 598 568 591 563Z"/>
<path id="z36177d10" d="M761 747Q755 771 773 796Q782 808 788 808Q798 807 811 784Q826 759 823 741Q805 611 829 575Q839 561 831 553Q806 533 764 518Q751 514 725 526Q672 545 637 555Q615 559 591 563C583 565 594 587 603 586Q612 586 676 571Q738 555 749 561Q760 581 764 675Q766 731 761 747Z"/>
<path id="z36177d11" d="M694 810Q698 792 710 702Q713 665 721 645Q728 630 687 612Q682 610 675 608Q659 600 645 606Q629 611 642 624Q676 659 661 769Q653 855 553 908Q514 922 507 928Q502 931 514 935Q576 939 651 888C658 880 658 880 662 876Q680 855 690 826C693 815 693 815 694 810Z"/>
<path id="z36177d12" d="M690 826Q695 834 711 841Q786 878 826 924Q839 935 853 939Q862 939 865 927Q868 915 860 890Q813 837 696 810C695 810 695 810 694 810C689 809 687 822 690 826Z"/>
<defs>
	<clipPath id="z36177c1"><use xlink:href="#z36177d1"/></clipPath>
	<clipPath id="z36177c2"><use xlink:href="#z36177d2"/></clipPath>
	<clipPath id="z36177c3"><use xlink:href="#z36177d3"/></clipPath>
	<clipPath id="z36177c4"><use xlink:href="#z36177d4"/></clipPath>
	<clipPath id="z36177c5"><use xlink:href="#z36177d5"/></clipPath>
	<clipPath id="z36177c6"><use xlink:href="#z36177d6"/></clipPath>
	<clipPath id="z36177c7"><use xlink:href="#z36177d7"/></clipPath>
	<clipPath id="z36177c8"><use xlink:href="#z36177d8"/></clipPath>
	<clipPath id="z36177c9"><use xlink:href="#z36177d9"/></clipPath>
	<clipPath id="z36177c10"><use xlink:href="#z36177d10"/></clipPath>
	<clipPath id="z36177c11"><use xlink:href="#z36177d11"/></clipPath>
	<clipPath id="z36177c12"><use xlink:href="#z36177d12"/></clipPath>
</defs>
<path style="--d:1s;" pathLength="3333" clip-path="url(#z36177c1)" d="M368 94L394 152L382 348"/>
<path style="--d:2s;" pathLength="3333" clip-path="url(#z36177c2)" d="M413 108L440 119L620 83L665 107L657 341"/>
<path style="--d:3s;" pathLength="3333" clip-path="url(#z36177c3)" d="M468 160L524 207L475 408L392 456L259 479"/>
<path style="--d:4s;" pathLength="3333" clip-path="url(#z36177c4)" d="M574 350L703 433L751 496"/>
<path style="--d:5s;" pathLength="3333" clip-path="url(#z36177c5)" d="M186 551L214 594L217 807"/>
<path style="--d:6s;" pathLength="3333" clip-path="url(#z36177c6)" d="M238 568L381 539L424 562L428 803"/>
<path style="--d:7s;" pathLength="3333" clip-path="url(#z36177c7)" d="M281 611L328 648L307 819L254 887L150 930"/>
<path style="--d:8s;" pathLength="3333" clip-path="url(#z36177c8)" d="M335 817L433 877L463 924"/>
<path style="--d:9s;" pathLength="3333" clip-path="url(#z36177c9)" d="M549 554L578 599L581 803"/>
<path style="--d:10s;" pathLength="3333" clip-path="url(#z36177c10)" d="M599 564L752 539L791 566L779 799"/>
<path style="--d:11s;" pathLength="3333" clip-path="url(#z36177c11)" d="M642 611L690 647L667 826L601 898L516 929"/>
<path style="--d:12s;" pathLength="3333" clip-path="url(#z36177c12)" d="M698 820L818 883L849 934"/>
</svg>