<!--
AnimCJK 2016-2019 Copyright Francois Mizessyn - https://github.com/parsimonhi/animCJK
Derived from:
    MakeMeAHanzi project - https://github.com/skishore/makemeahanzi
    Arphic PL KaitiM GB font
    Arphic PL UKai font
You can redistribute and/or modify this file under the terms of the Arphic Public License
as published by Arphic Technology Co., Ltd.
You should have received a copy of this license along with this file.
If not, see http://ftp.gnu.org/non-gnu/chinese-fonts-truetype/LICENSE.
-->
<svg id="z36175" class="acjk" version="1.1" viewBox="0 0 1024 1024" xmlns="http://www.w3.org/2000/svg" xmlns:xlink="http://www.w3.org/1999/xlink">
<style>
<![CDATA[
@keyframes zk {
	to {
		stroke-dashoffset:0;
	}
}
svg.acjk path[clip-path] {
	--t:0.8s;
	animation:zk var(--t) linear forwards var(--d);
	stroke-dasharray:3337;
	stroke-dashoffset:3339;
	stroke-width:128;
	stroke-linecap:round;
	fill:none;
	stroke:#000;
}
svg.acjk path[id] {fill:#ccc;}
]]>
</style>
<path id="z36175d1" d="M525 223Q529 156 551 75Q555 65 538 52Q508 36 488 32Q475 28 468 36Q461 42 468 55Q486 77 487 227C487 240 525 236 525 223Z"/>
<path id="z36175d2" d="M347 156Q366 172 386 193Q398 203 411 203Q421 203 425 191Q429 178 421 153Q417 138 393 128Q335 110 324 113Q320 117 321 128Q324 138 347 156Z"/>
<path id="z36175d3" d="M652 91Q628 122 580 168Q574 174 579 181Q586 182 593 179Q675 133 716 116Q732 113 729 103Q725 88 710 70Q694 52 675 49Q662 48 661 65Q662 78 652 91Z"/>
<path id="z36175d4" d="M265 254Q265 253 265 252Q253 230 243 221Q225 206 223 231Q227 261 180 322Q141 364 167 421Q180 446 200 421Q219 394 233 355Q249 309 262 281C265 273 267 263 265 254Z"/>
<path id="z36175d5" d="M262 281Q286 297 324 289Q460 250 697 231Q734 228 747 231Q763 241 761 250Q762 253 757 265Q730 325 737 331Q744 335 760 324Q812 291 854 282Q888 272 888 264Q887 254 816 202Q795 184 722 197Q599 210 525 223C500 226 500 226 487 227Q436 233 375 242Q320 249 265 254C256 255 255 276 262 281Z"/>
<path id="z36175d6" d="M389 321Q379 315 351 313Q341 312 338 316Q334 320 341 334Q363 371 381 436Q385 455 398 467Q414 485 417 471Q420 462 418 448C415 429 415 429 413 419Q403 370 400 350C398 340 399 325 389 321Z"/>
<path id="z36175d7" d="M620 397Q645 352 667 343Q682 328 670 312Q657 300 614 277Q601 270 581 276Q506 306 389 321C379 323 390 352 400 350Q409 350 566 319Q584 315 591 322Q595 331 578 387C575 401 614 410 620 397Z"/>
<path id="z36175d8" d="M418 448Q422 448 429 447Q490 434 625 422Q634 421 635 414Q635 408 620 397C609 388 592 387 578 387Q574 386 569 388Q484 409 413 419C403 421 408 448 418 448Z"/>
<path id="z36175d9" d="M370 506Q351 491 328 483Q321 482 315 489Q312 493 318 503Q345 558 326 693Q314 744 317 758Q324 786 335 797Q345 809 353 797Q374 773 374 691Q374 568 380 534C382 524 378 512 370 506Z"/>
<path id="z36175d10" d="M620 727Q613 748 625 768Q638 795 646 794Q659 793 674 763Q687 739 686 721Q670 562 697 522Q706 507 693 492Q669 473 630 456Q615 450 593 458Q496 501 370 506C360 506 370 534 380 534Q387 534 394 533Q593 491 613 505Q620 521 624 566Q627 701 620 727Z"/>
<path id="z36175d11" d="M469 642Q472 781 431 833Q395 884 259 930Q246 931 243 935Q237 939 251 945Q329 951 429 903Q444 893 457 881Q509 827 520 695Q523 643 536 615Q540 605 533 598Q517 582 484 568Q465 558 449 564Q430 570 445 587Q470 614 469 642Z"/>
<path id="z36175d12" d="M563 814Q617 866 680 941Q695 960 709 965Q718 966 725 958Q737 945 727 904Q715 846 570 786Q567 785 566 785Q557 779 555 791Q554 804 563 814Z"/>
<defs>
	<clipPath id="z36175c1"><use xlink:href="#z36175d1"/></clipPath>
	<clipPath id="z36175c2"><use xlink:href="#z36175d2"/></clipPath>
	<clipPath id="z36175c3"><use xlink:href="#z36175d3"/></clipPath>
	<clipPath id="z36175c4"><use xlink:href="#z36175d4"/></clipPath>
	<clipPath id="z36175c5"><use xlink:href="#z36175d5"/></clipPath>
	<clipPath id="z36175c6"><use xlink:href="#z36175d6"/></clipPath>
	<clipPath id="z36175c7"><use xlink:href="#z36175d7"/></clipPath>
	<clipPath id="z36175c8"><use xlink:href="#z36175d8"/></clipPath>
	<clipPath id="z36175c9"><use xlink:href="#z36175d9"/></clipPath>
	<clipPath id="z36175c10"><use xlink:href="#z36175d10"/></clipPath>
	<clipPath id="z36175c11"><use xlink:href="#z36175d11"/></clipPath>
	<clipPath id="z36175c12"><use xlink:href="#z36175d12"/></clipPath>
</defs>
<path style="--d:1s;" pathLength="3333" clip-path="url(#z36175c1)" d="M471 40L515 81L500 225"/>
<path style="--d:2s;" pathLength="3333" clip-path="url(#z36175c2)" d="M329 120L421 192"/>
<path style="--d:3s;" pathLength="3333" clip-path="url(#z36175c3)" d="M671 55L690 99L585 173"/>
<path style="--d:4s;" pathLength="3333" clip-path="url(#z36175c4)" d="M233 226L238 273L180 429"/>
<path style="--d:5s;" pathLength="3333" clip-path="url(#z36175c5)" d="M270 277L754 211L791 224L834 268L742 324"/>
<path style="--d:6s;" pathLength="3333" clip-path="url(#z36175c6)" d="M344 319L371 341L409 470"/>
<path style="--d:7s;" pathLength="3333" clip-path="url(#z36175c7)" d="M397 325L599 297L633 329L592 390"/>
<path style="--d:8s;" pathLength="3333" clip-path="url(#z36175c8)" d="M421 425L628 414"/>
<path style="--d:9s;" pathLength="3333" clip-path="url(#z36175c9)" d="M325 493L354 537L347 797"/>
<path style="--d:10s;" pathLength="3333" clip-path="url(#z36175c10)" d="M378 509L609 478L642 493L660 526L643 788"/>
<path style="--d:11s;" pathLength="3333" clip-path="url(#z36175c11)" d="M445 572L501 614L463 829L393 895L248 939"/>
<path style="--d:12s;" pathLength="3333" clip-path="url(#z36175c12)" d="M562 793L680 889L715 960"/>
</svg>