<!--
AnimCJK 2016-2018 Copyright Francois Mizessyn, http://gooo.free.fr/animCJK/
Derived from:
    MakeMeAHanzi project - https://github.com/skishore/makemeahanzi
    Arphic PL KaitiM GB - https://apps.ubuntu.com/cat/applications/precise/fonts-arphic-gkai00mp/
    Arphic PL UKai - https://apps.ubuntu.com/cat/applications/fonts-arphic-ukai/
You can redistribute and/or modify this file under the terms of the Arphic Public License
as published by Arphic Technology Co., Ltd.
You should have received a copy of this license (the directory "APL") along with this file;
if not, see http://ftp.gnu.org/non-gnu/chinese-fonts-truetype/LICENSE.
-->
<svg id="z36184" class="acjk" version="1.1" viewBox="0 0 1024 1024" xmlns="http://www.w3.org/2000/svg" xmlns:xlink="http://www.w3.org/1999/xlink">
<style>
<![CDATA[
@keyframes z36184k {
	from {
		stroke:#ccc;
		stroke-dashoffset:3334;
	}
	1% {
		stroke:#c00;
		stroke-dashoffset:3334;
	}
	75% {
		stroke:#c00;
		stroke-dashoffset:0;
	}
	to {
		stroke:#000;
	}
}
#z36184 path[clip-path] {
	animation:z36184k 1s linear both;
	stroke-dasharray:3334;
	stroke-width:128;
	stroke-linecap:round;
	fill:none;
}
#z36184 path[clip-path="url(#z36184c1)"] {animation-delay:1s;}
#z36184 path[clip-path="url(#z36184c2)"] {animation-delay:2s;}
#z36184 path[clip-path="url(#z36184c3)"] {animation-delay:3s;}
#z36184 path[clip-path="url(#z36184c4)"] {animation-delay:4s;}
#z36184 path[clip-path="url(#z36184c5)"] {animation-delay:5s;}
#z36184 path[clip-path="url(#z36184c6)"] {animation-delay:6s;}
#z36184 path[clip-path="url(#z36184c7)"] {animation-delay:7s;}
#z36184 path[clip-path="url(#z36184c8)"] {animation-delay:8s;}
#z36184 path[clip-path="url(#z36184c9)"] {animation-delay:9s;}
#z36184 path[clip-path="url(#z36184c10)"] {animation-delay:10s;}
#z36184 path[clip-path="url(#z36184c11)"] {animation-delay:11s;}
#z36184 path[clip-path="url(#z36184c12)"] {animation-delay:12s;}
#z36184 path[clip-path="url(#z36184c13)"] {animation-delay:13s;}
#z36184 path[clip-path="url(#z36184c14)"] {animation-delay:14s;}
#z36184 path {fill:#ccc;}
]]>
</style>
<path id="z36184d1" d="M386 182Q498 158 502 155Q509 148 506 141Q500 132 477 125Q449 119 388 143L344 153Q340 153 336 155Q282 165 219 170Q191 174 211 189Q244 208 315 194Q330 191 346 189L386 182 Z"/>
<path id="z36184d2" d="M380 265Q393 261 408 259Q438 255 463 251Q472 252 478 241Q479 232 460 224Q438 208 383 226L346 236Q294 243 250 253Q228 257 246 270Q273 288 299 282Q318 276 346 272L380 265 Z"/>
<path id="z36184d3" d="M377 313Q378 288 380 265L383 226Q384 204 386 182L388 143Q388 142 389 140Q393 101 401 85Q402 76 388 66Q363 51 344 48Q332 47 326 52Q320 58 327 69Q339 87 344 153L346 189Q346 211 346 236L346 272Q345 294 345 322L377 313 Z"/>
<path id="z36184d4" d="M345 357Q381 345 467 335Q474 336 482 325Q483 316 464 308Q442 292 377 313L345 322Q341 321 336 323Q309 329 179 353Q155 356 174 370Q189 382 228 382Q259 373 297 367L345 357 Z"/>
<path id="z36184d5" d="M382 525Q403 488 413 462Q426 428 436 422Q443 419 446 413Q447 406 432 388Q411 366 367 365Q360 364 353 363Q350 362 349 363L343 385Q379 391 384 401Q391 417 361 471Q346 492 337 494Q333 498 325 497Q319 496 303 492Q278 482 274 486Q271 493 283 501Q310 528 313 544Q316 556 324 560Q333 564 356 550Q359 547 362 545L382 525 Z"/>
<path id="z36184d6" d="M349 363Q348 359 345 357L297 367Q272 457 114 540Q108 544 112 547Q116 550 124 548Q244 526 325 407Q332 395 343 385L349 363 Z"/>
<path id="z36184d7" d="M612 210Q630 183 649 151Q662 126 673 114Q680 105 676 95Q672 85 648 69Q626 56 611 57Q596 60 604 76Q619 104 571 201Q549 246 515 295Q508 304 507 309Q504 318 516 315Q537 312 591 239Q594 235 598 229L612 210 Z"/>
<path id="z36184d8" d="M726 231Q847 201 852 198Q859 191 855 183Q848 173 821 166Q799 163 712 191Q622 209 612 210L598 229Q599 229 602 231Q641 250 690 239L726 231 Z"/>
<path id="z36184d9" d="M686 377Q696 362 705 347Q738 290 748 280Q760 268 750 258Q744 249 726 231L690 239Q690 284 652 347L634 373Q579 436 484 465Q472 469 481 474Q524 486 587 459Q621 446 642 425Q652 415 661 407Q661 406 663 405L686 377 Z"/>
<path id="z36184d10" d="M663 405Q772 514 799 520Q863 520 931 507Q959 503 957 494Q954 488 880 470Q756 431 694 383Q690 380 686 377L652 347Q594 296 569 297Q554 297 552 301Q551 307 564 314Q585 326 598 340Q614 355 634 373L663 405 Z"/>
<path id="z36184d11" d="M402 536Q393 529 382 525L362 545Q383 638 358 715Q346 757 372 789Q381 799 388 789Q404 770 412 651Q413 588 418 567L402 536 Z"/>
<path id="z36184d12" d="M634 722Q627 743 639 761Q649 786 658 786Q671 785 684 757Q697 735 696 717Q684 588 707 557Q717 541 710 532Q683 508 638 488Q622 482 600 491Q504 531 402 536L418 567Q419 567 523 548Q607 529 626 541Q632 554 636 591Q639 700 634 722 Z"/>
<path id="z36184d13" d="M490 660Q493 792 451 838Q411 883 267 920Q255 921 251 924Q245 927 258 933Q349 948 455 901Q465 894 476 886Q522 844 542 681Q545 659 554 634Q560 624 552 617Q536 602 504 588Q485 579 471 584Q452 590 467 606Q491 633 490 660 Z"/>
<path id="z36184d14" d="M578 825Q636 874 707 944Q723 963 738 966Q745 967 753 957Q763 944 750 903Q737 854 577 795Q568 791 567 803Q567 816 578 825 Z"/>
<defs>
	<clipPath id="z36184c1"><use xlink:href="#z36184d1"/></clipPath>
	<clipPath id="z36184c2"><use xlink:href="#z36184d2"/></clipPath>
	<clipPath id="z36184c3"><use xlink:href="#z36184d3"/></clipPath>
	<clipPath id="z36184c4"><use xlink:href="#z36184d4"/></clipPath>
	<clipPath id="z36184c5"><use xlink:href="#z36184d5"/></clipPath>
	<clipPath id="z36184c6"><use xlink:href="#z36184d6"/></clipPath>
	<clipPath id="z36184c7"><use xlink:href="#z36184d7"/></clipPath>
	<clipPath id="z36184c8"><use xlink:href="#z36184d8"/></clipPath>
	<clipPath id="z36184c9"><use xlink:href="#z36184d9"/></clipPath>
	<clipPath id="z36184c10"><use xlink:href="#z36184d10"/></clipPath>
	<clipPath id="z36184c11"><use xlink:href="#z36184d11"/></clipPath>
	<clipPath id="z36184c12"><use xlink:href="#z36184d12"/></clipPath>
	<clipPath id="z36184c13"><use xlink:href="#z36184d13"/></clipPath>
	<clipPath id="z36184c14"><use xlink:href="#z36184d14"/></clipPath>
</defs>
<path pathLength="3333" clip-path="url(#z36184c1)" d="M210 177L500 148"/>
<path pathLength="3333" clip-path="url(#z36184c2)" d="M245 259L471 238"/>
<path pathLength="3333" clip-path="url(#z36184c3)" d="M331 57L369 89L353 316"/>
<path pathLength="3333" clip-path="url(#z36184c4)" d="M174 359L473 322"/>
<path pathLength="3333" clip-path="url(#z36184c5)" d="M349 380L391 383L415 414L373 495L327 528L281 490"/>
<path pathLength="3333" clip-path="url(#z36184c6)" d="M341 363L245 472L121 543"/>
<path pathLength="3333" clip-path="url(#z36184c7)" d="M608 63L641 110L514 310"/>
<path pathLength="3333" clip-path="url(#z36184c8)" d="M605 226L851 185"/>
<path pathLength="3333" clip-path="url(#z36184c9)" d="M695 243L717 277L652 385L594 435L485 469"/>
<path pathLength="3333" clip-path="url(#z36184c10)" d="M561 303L811 485L950 494"/>
<path pathLength="3333" clip-path="url(#z36184c11)" d="M381 534L380 787"/>
<path pathLength="3333" clip-path="url(#z36184c12)" d="M411 539L617 511L659 533L655 781"/>
<path pathLength="3333" clip-path="url(#z36184c13)" d="M466 595L522 638L476 845L402 898L261 927"/>
<path pathLength="3333" clip-path="url(#z36184c14)" d="M575 805L712 902L740 962"/>
</svg>