<!--
AnimCJK 2016-2017 Copyright Francois Mizessyn, http://gooo.free.fr/animCJK/
Derived from:
    MakeMeAHanzi project - https://github.com/skishore/makemeahanzi
    Arphic PL KaitiM GB - https://apps.ubuntu.com/cat/applications/precise/fonts-arphic-gkai00mp/
    Arphic PL UKai - https://apps.ubuntu.com/cat/applications/fonts-arphic-ukai/
You can redistribute and/or modify this file under the terms of the Arphic Public License
as published by Arphic Technology Co., Ltd.
You should have received a copy of this license (the directory "APL") along with this file;
if not, see http://ftp.gnu.org/non-gnu/chinese-fonts-truetype/LICENSE.
-->
<svg id="z36235" class="acjk" version="1.1" viewBox="0 0 1024 1024" xmlns="http://www.w3.org/2000/svg" xmlns:xlink="http://www.w3.org/1999/xlink">
<style>
<![CDATA[
	@keyframes z36235k {
		from {
			stroke:#c00;
			stroke-dashoffset:3000;
		}
		75% {
			stroke:#c00;
			stroke-dashoffset:0;
		}
		to {
			stroke:#000;
		}
	}
	#z36235 path[clip-path] {
		animation:z36235k 1s linear both;
		stroke-dasharray:3000;
		stroke-width:128;
		stroke-linecap:round;
		fill:none;
	}
	#z36235 path[clip-path="url(#z36235c1)"] {animation-delay:1s;}
	#z36235 path[clip-path="url(#z36235c2)"] {animation-delay:2s;}
	#z36235 path[clip-path="url(#z36235c3)"] {animation-delay:3s;}
	#z36235 path[clip-path="url(#z36235c4)"] {animation-delay:4s;}
	#z36235 path[clip-path="url(#z36235c5)"] {animation-delay:5s;}
	#z36235 path[clip-path="url(#z36235c6)"] {animation-delay:6s;}
	#z36235 path[clip-path="url(#z36235c7)"] {animation-delay:7s;}
	#z36235 path[clip-path="url(#z36235c8)"] {animation-delay:8s;}
	#z36235 path[clip-path="url(#z36235c9)"] {animation-delay:9s;}
	#z36235 path[clip-path="url(#z36235c10)"] {animation-delay:10s;}
	#z36235 path[clip-path="url(#z36235c11)"] {animation-delay:11s;}
	#z36235 path[clip-path="url(#z36235c12)"] {animation-delay:12s;}
	#z36235 path {fill:#ccc;}
]]>
</style>
<g transform="scale(1,-1) translate(0,-900)">
	<path id="z36235d1" d="M382 579Q407 588 436 594Q467 604 473 609Q480 616 476 625Q469 635 439 641Q412 645 387 634L334 614Q262 593 211 585Q177 576 202 562Q247 541 299 559Q314 563 334 567L382 579Z"/>
	<path id="z36235d2" d="M373 485Q377 534 382 579L387 634Q393 725 410 785Q414 797 394 812Q358 831 334 836Q318 840 310 831Q303 824 310 808Q329 780 330 760Q334 691 334 614L334 567Q333 524 331 476L373 485Z"/>
	<path id="z36235d3" d="M361 440Q410 452 469 459Q485 462 486 469Q487 482 469 490Q435 505 373 485L331 476Q178 443 81 430Q68 429 65 421Q62 411 77 399Q116 372 157 386Q284 428 322 433L361 440Z"/>
	<path id="z36235d4" d="M373 187Q377 257 382 314L385 349Q386 361 387 371Q391 411 388 417Q375 430 361 440L322 433Q331 412 333 330Q332 288 332 213L373 187Z"/>
	<path id="z36235d5" d="M382 314Q430 326 466 332Q487 338 478 349Q466 362 442 363Q420 364 385 349L382 314Z"/>
	<path id="z36235d6" d="M255 267Q267 289 280 308Q290 321 275 334Q230 367 207 362Q197 359 199 345Q211 234 92 96Q80 90 41 40Q34 25 48 30Q103 42 191 158Q204 180 239 240L255 267Z"/>
	<path id="z36235d7" d="M239 240Q371 125 550 26Q674 -43 701 -46Q752 -46 906 5Q918 12 924 18Q928 30 910 30Q819 39 762 40Q611 43 395 174Q383 181 373 187L332 213Q293 240 255 267L239 240Z"/>
	<path id="z36235d8" d="M627 620Q693 713 695 714Q694 717 694 718Q690 728 668 748Q646 764 631 764Q615 763 622 744Q634 717 581 630Q556 590 522 545Q513 538 512 532Q508 523 520 525Q535 526 612 603L627 620Z"/>
	<path id="z36235d9" d="M680 470Q699 491 733 532Q770 578 806 605Q822 615 812 627Q799 639 764 657Q755 660 670 631Q646 624 627 620L612 603Q624 593 699 606Q712 613 717 607Q721 604 716 594Q682 515 660 478Q656 471 652 463L680 470Z"/>
	<path id="z36235d10" d="M792 249Q819 376 866 419Q882 438 867 457Q849 472 794 497Q775 504 752 495Q715 480 680 470L652 463Q598 453 544 445Q528 444 529 433Q532 426 550 419Q575 409 610 420Q677 432 741 444Q757 448 764 441Q777 428 774 399Q759 314 739 245L792 249Z"/>
	<path id="z36235d11" d="M511 322Q486 318 506 303Q536 282 559 287Q676 311 712 313Q722 312 730 324Q731 334 710 343Q686 361 610 340Q565 331 511 322Z"/>
	<path id="z36235d12" d="M739 245Q621 220 529 210Q507 209 520 188Q527 178 539 174Q551 170 565 173Q647 189 821 202Q834 203 835 213Q836 222 802 245Q798 248 792 249L739 245Z"/>
	<defs>
		<clipPath id="z36235c1"><use xlink:href="#z36235d1"/></clipPath>
		<clipPath id="z36235c2"><use xlink:href="#z36235d2"/></clipPath>
		<clipPath id="z36235c3"><use xlink:href="#z36235d3"/></clipPath>
		<clipPath id="z36235c4"><use xlink:href="#z36235d4"/></clipPath>
		<clipPath id="z36235c5"><use xlink:href="#z36235d5"/></clipPath>
		<clipPath id="z36235c6"><use xlink:href="#z36235d6"/></clipPath>
		<clipPath id="z36235c7"><use xlink:href="#z36235d7"/></clipPath>
		<clipPath id="z36235c8"><use xlink:href="#z36235d8"/></clipPath>
		<clipPath id="z36235c9"><use xlink:href="#z36235d9"/></clipPath>
		<clipPath id="z36235c10"><use xlink:href="#z36235d10"/></clipPath>
		<clipPath id="z36235c11"><use xlink:href="#z36235d11"/></clipPath>
		<clipPath id="z36235c12"><use xlink:href="#z36235d12"/></clipPath>
	</defs>
	<path pathLength="2999" clip-path="url(#z36235c1)" d="M200 573L472 623"/>
	<path pathLength="2999" clip-path="url(#z36235c2)" d="M313 830L369 780L343 479"/>
	<path pathLength="2999" clip-path="url(#z36235c3)" d="M71 418L137 410L479 475"/>
	<path pathLength="2999" clip-path="url(#z36235c4)" d="M330 431L359 399L368 197"/>
	<path pathLength="2999" clip-path="url(#z36235c5)" d="M390 323L475 341"/>
	<path pathLength="2999" clip-path="url(#z36235c6)" d="M206 357L241 313L210 239L140 125L47 35"/>
	<path pathLength="2999" clip-path="url(#z36235c7)" d="M256 259L434 123L662 12L728 -1L916 22"/>
	<path pathLength="2999" clip-path="url(#z36235c8)" d="M629 755L658 713L518 533"/>
	<path pathLength="2999" clip-path="url(#z36235c9)" d="M623 607L740 631L765 611L660 470"/>
	<path pathLength="2999" clip-path="url(#z36235c10)" d="M536 435L764 473L817 441L769 262L749 249"/>
	<path pathLength="2999" clip-path="url(#z36235c11)" d="M504 315L719 326"/>
	<path pathLength="2999" clip-path="url(#z36235c12)" d="M521 200L828 214"/>
</g>
</svg>