<!--
AnimCJK 2016-2018 Copyright Francois Mizessyn, http://gooo.free.fr/animCJK/
Derived from:
    MakeMeAHanzi project - https://github.com/skishore/makemeahanzi
    Arphic PL KaitiM GB - https://apps.ubuntu.com/cat/applications/precise/fonts-arphic-gkai00mp/
    Arphic PL UKai - https://apps.ubuntu.com/cat/applications/fonts-arphic-ukai/
You can redistribute and/or modify this file under the terms of the Arphic Public License
as published by Arphic Technology Co., Ltd.
You should have received a copy of this license (the directory "APL") along with this file;
if not, see http://ftp.gnu.org/non-gnu/chinese-fonts-truetype/LICENSE.
-->
<svg id="z36241" class="acjk" version="1.1" viewBox="0 0 1024 1024" xmlns="http://www.w3.org/2000/svg" xmlns:xlink="http://www.w3.org/1999/xlink">
<style>
<![CDATA[
@keyframes z36241k {
	from {
		stroke:#ccc;
		stroke-dashoffset:3334;
	}
	1% {
		stroke:#c00;
		stroke-dashoffset:3334;
	}
	75% {
		stroke:#c00;
		stroke-dashoffset:0;
	}
	to {
		stroke:#000;
	}
}
#z36241 path[clip-path] {
	animation:z36241k 1s linear both;
	stroke-dasharray:3334;
	stroke-width:128;
	stroke-linecap:round;
	fill:none;
}
#z36241 path[clip-path="url(#z36241c1)"] {animation-delay:1s;}
#z36241 path[clip-path="url(#z36241c2)"] {animation-delay:2s;}
#z36241 path[clip-path="url(#z36241c3)"] {animation-delay:3s;}
#z36241 path[clip-path="url(#z36241c4)"] {animation-delay:4s;}
#z36241 path[clip-path="url(#z36241c5)"] {animation-delay:5s;}
#z36241 path[clip-path="url(#z36241c6)"] {animation-delay:6s;}
#z36241 path[clip-path="url(#z36241c7)"] {animation-delay:7s;}
#z36241 path[clip-path="url(#z36241c8)"] {animation-delay:8s;}
#z36241 path[clip-path="url(#z36241c9)"] {animation-delay:9s;}
#z36241 path[clip-path="url(#z36241c10)"] {animation-delay:10s;}
#z36241 path[clip-path="url(#z36241c11)"] {animation-delay:11s;}
#z36241 path[clip-path="url(#z36241c12)"] {animation-delay:12s;}
#z36241 path[clip-path="url(#z36241c13)"] {animation-delay:13s;}
#z36241 path {fill:#ccc;}
]]>
</style>
<path id="z36241d1" d="M379 300Q469 273 473 270Q480 263 475 255Q468 245 441 239Q399 233 382 250L334 268Q274 286 210 297Q177 304 202 319Q241 337 294 322Q310 316 334 312L379 300 Z"/>
<path id="z36241d2" d="M373 411Q376 354 379 300L382 250Q382 184 401 106Q404 96 385 82Q351 64 329 61Q313 58 306 66Q299 73 307 87Q328 117 328 137Q332 200 334 268L334 312Q334 364 333 420L373 411 Z"/>
<path id="z36241d3" d="M353 453Q410 440 481 431Q497 430 498 422Q499 410 482 402Q454 389 373 411L333 420Q153 456 88 463Q76 464 73 472Q70 482 85 493Q121 520 161 506Q297 461 317 461L353 453 Z"/>
<path id="z36241d4" d="M369 715Q373 642 379 583L382 545Q382 526 386 506Q395 484 353 453L317 461Q329 482 329 564Q329 609 328 693L369 715 Z"/>
<path id="z36241d5" d="M379 583Q430 570 470 562Q492 555 482 543Q469 530 444 529Q420 529 382 545L379 583 Z"/>
<path id="z36241d6" d="M230 636Q246 608 264 585Q274 572 259 558Q217 527 191 529Q181 532 182 546Q198 633 95 757Q83 763 53 804Q46 819 60 814Q78 811 101 793Q174 735 214 663Q214 662 215 660L230 636 Z"/>
<path id="z36241d7" d="M215 660Q257 702 493 831Q589 879 687 923Q724 939 769 926Q847 902 929 872Q957 860 965 850Q968 838 950 840Q851 837 792 841Q633 844 446 752Q407 734 369 715L328 693Q279 665 230 636L215 660 Z"/>
<path id="z36241d8" d="M511 325Q568 370 581 369Q590 368 593 356Q596 343 586 318Q577 297 503 284Q490 283 484 285Q480 289 482 300Q486 310 511 325 Z"/>
<path id="z36241d9" d="M461 623Q452 624 452 638Q455 695 478 712Q482 718 490 717Q496 717 499 698Q511 661 607 492Q614 482 613 477Q614 470 606 473Q602 474 495 597Q483 610 461 623 Z"/>
<path id="z36241d10" d="M679 323Q700 281 719 226Q728 196 738 180Q744 170 737 160Q731 150 704 138Q679 129 664 133Q651 137 661 154Q683 181 647 299Q631 353 603 414Q597 424 597 430Q596 439 607 434Q625 425 667 347L679 323 Z"/>
<path id="z36241d11" d="M667 347Q683 362 728 347Q812 319 827 324Q837 333 833 339Q833 342 796 401Q789 410 793 416Q796 420 808 411Q896 360 936 350Q945 349 946 342Q947 330 922 314Q862 272 835 281Q774 303 679 323L667 347 Z"/>
<path id="z36241d12" d="M727 568Q736 534 744 486Q747 468 751 460Q757 454 752 446Q748 440 724 431Q697 418 684 423Q675 427 683 440Q704 548 654 628Q626 677 539 725Q520 737 543 736Q579 739 638 703Q686 678 719 594L727 568 Z"/>
<path id="z36241d13" d="M719 594Q777 652 846 738Q858 756 871 760Q878 761 885 754Q895 744 888 706Q879 652 727 568L719 594 Z"/>
<defs>
	<clipPath id="z36241c1"><use xlink:href="#z36241d1"/></clipPath>
	<clipPath id="z36241c2"><use xlink:href="#z36241d2"/></clipPath>
	<clipPath id="z36241c3"><use xlink:href="#z36241d3"/></clipPath>
	<clipPath id="z36241c4"><use xlink:href="#z36241d4"/></clipPath>
	<clipPath id="z36241c5"><use xlink:href="#z36241d5"/></clipPath>
	<clipPath id="z36241c6"><use xlink:href="#z36241d6"/></clipPath>
	<clipPath id="z36241c7"><use xlink:href="#z36241d7"/></clipPath>
	<clipPath id="z36241c8"><use xlink:href="#z36241d8"/></clipPath>
	<clipPath id="z36241c9"><use xlink:href="#z36241d9"/></clipPath>
	<clipPath id="z36241c10"><use xlink:href="#z36241d10"/></clipPath>
	<clipPath id="z36241c11"><use xlink:href="#z36241d11"/></clipPath>
	<clipPath id="z36241c12"><use xlink:href="#z36241d12"/></clipPath>
	<clipPath id="z36241c13"><use xlink:href="#z36241d13"/></clipPath>
</defs>
<path pathLength="3333" clip-path="url(#z36241c1)" d="M201 309L470 263"/>
<path pathLength="3333" clip-path="url(#z36241c2)" d="M310 68L363 116L343 416"/>
<path pathLength="3333" clip-path="url(#z36241c3)" d="M77 474L134 484L492 419"/>
<path pathLength="3333" clip-path="url(#z36241c4)" d="M325 466L357 504L349 686L364 705"/>
<path pathLength="3333" clip-path="url(#z36241c5)" d="M387 574L478 546"/>
<path pathLength="3333" clip-path="url(#z36241c6)" d="M190 536L224 577L205 625L147 722L58 807"/>
<path pathLength="3333" clip-path="url(#z36241c7)" d="M221 657L498 804L705 882L958 846"/>
<path pathLength="3333" clip-path="url(#z36241c8)" d="M488 292L589 360"/>
<path pathLength="3333" clip-path="url(#z36241c9)" d="M487 708L486 641L605 483"/>
<path pathLength="3333" clip-path="url(#z36241c10)" d="M663 137L705 176L604 429"/>
<path pathLength="3333" clip-path="url(#z36241c11)" d="M671 343L857 309L889 343L799 407"/>
<path pathLength="3333" clip-path="url(#z36241c12)" d="M689 428L720 463L693 599L638 680L541 729"/>
<path pathLength="3333" clip-path="url(#z36241c13)" d="M730 576L849 694L878 754"/>
</svg>