<!--
AnimCJK 2016-2019 Copyright Francois Mizessyn - https://github.com/parsimonhi/animCJK
Derived from:
    MakeMeAHanzi project - https://github.com/skishore/makemeahanzi
    Arphic PL KaitiM GB font
    Arphic PL UKai font
You can redistribute and/or modify this file under the terms of the Arphic Public License
as published by Arphic Technology Co., Ltd.
You should have received a copy of this license along with this file.
If not, see http://ftp.gnu.org/non-gnu/chinese-fonts-truetype/LICENSE.
-->
<svg id="z36286" class="acjk" version="1.1" viewBox="0 0 1024 1024" xmlns="http://www.w3.org/2000/svg" xmlns:xlink="http://www.w3.org/1999/xlink">
<style>
<![CDATA[
@keyframes zk {
	to {
		stroke-dashoffset:0;
	}
}
svg.acjk path[clip-path] {
	--t:0.8s;
	animation:zk var(--t) linear forwards var(--d);
	stroke-dasharray:3337;
	stroke-dashoffset:3339;
	stroke-width:128;
	stroke-linecap:round;
	fill:none;
	stroke:#000;
}
svg.acjk path[id] {fill:#ccc;}
]]>
</style>
<path id="z36286d1" d="M235 206Q223 200 192 196Q180 192 177 198Q170 204 179 220Q207 275 224 364Q228 391 244 409Q262 431 267 415Q270 405 270 390C268 369 268 369 267 358Q252 261 247 233C245 223 244 210 235 206Z"/>
<path id="z36286d2" d="M415 332Q434 250 460 225Q482 200 459 186Q440 174 414 157Q395 147 377 158Q332 185 235 206C225 208 237 235 247 233Q251 232 260 230Q308 217 349 207Q377 200 384 211Q393 220 366 329C363 345 412 348 415 332Z"/>
<path id="z36286d3" d="M336 376Q372 369 427 361Q437 360 437 351Q437 344 415 332C401 324 382 326 366 329Q365 329 364 329Q310 347 267 358C256 360 259 392 270 390C287 387 287 387 296 385C323 379 323 379 336 376Z"/>
<path id="z36286d4" d="M349 693Q350 615 353 549C354 527 354 527 354 516Q357 395 358 394Q348 384 336 376C324 369 293 372 296 385Q306 428 309 547Q309 608 309 704C309 718 349 707 349 693Z"/>
<path id="z36286d5" d="M353 549Q354 549 359 549Q408 537 446 530Q468 523 458 511Q445 498 420 497Q396 497 354 516C344 520 342 549 353 549Z"/>
<path id="z36286d6" d="M237 724Q222 577 225 542Q226 520 212 510Q190 494 162 487Q149 483 141 490Q134 496 141 510Q160 541 170 574Q179 607 199 735C202 748 240 737 237 724Z"/>
<path id="z36286d7" d="M199 735Q168 742 140 751Q121 757 87 755Q74 756 71 767Q70 780 79 790Q101 806 136 826Q146 830 159 821Q199 791 245 772Q315 744 383 714Q408 704 428 689Q441 682 442 672Q438 666 424 669Q387 679 349 693C322 700 322 700 309 704Q273 713 237 724C212 731 212 731 199 735Z"/>
<path id="z36286d8" d="M703 749Q706 592 707 445C707 422 707 422 707 411Q710 248 729 154Q732 139 710 122Q670 103 642 98Q623 95 614 105Q605 114 616 131Q653 183 653 221Q668 468 656 757C656 773 703 765 703 749Z"/>
<path id="z36286d9" d="M707 445Q740 449 841 419Q877 409 882 405Q891 395 885 388Q876 376 845 373Q818 370 748 400Q727 404 707 411C696 415 696 445 707 445Z"/>
<path id="z36286d10" d="M572 769Q557 579 563 519Q566 497 551 484Q529 468 501 458Q488 454 478 460Q471 466 477 481Q499 521 509 564Q516 607 532 775C535 788 572 782 572 769Z"/>
<path id="z36286d11" d="M532 775Q465 782 397 793Q375 796 391 813Q422 841 474 830Q652 782 947 782Q948 782 950 782Q971 782 976 773Q980 761 964 747Q903 702 833 724Q778 733 703 749C672 754 672 754 656 757Q614 761 572 769C545 773 545 773 532 775Z"/>
<defs>
	<clipPath id="z36286c1"><use xlink:href="#z36286d1"/></clipPath>
	<clipPath id="z36286c2"><use xlink:href="#z36286d2"/></clipPath>
	<clipPath id="z36286c3"><use xlink:href="#z36286d3"/></clipPath>
	<clipPath id="z36286c4"><use xlink:href="#z36286d4"/></clipPath>
	<clipPath id="z36286c5"><use xlink:href="#z36286d5"/></clipPath>
	<clipPath id="z36286c6"><use xlink:href="#z36286d6"/></clipPath>
	<clipPath id="z36286c7"><use xlink:href="#z36286d7"/></clipPath>
	<clipPath id="z36286c8"><use xlink:href="#z36286d8"/></clipPath>
	<clipPath id="z36286c9"><use xlink:href="#z36286d9"/></clipPath>
	<clipPath id="z36286c10"><use xlink:href="#z36286d10"/></clipPath>
	<clipPath id="z36286c11"><use xlink:href="#z36286d11"/></clipPath>
</defs>
<path style="--d:1s;" pathLength="3333" clip-path="url(#z36286c1)" d="M181 202L219 240L258 415"/>
<path style="--d:2s;" pathLength="3333" clip-path="url(#z36286c2)" d="M242 209L384 180L423 201L385 329"/>
<path style="--d:3s;" pathLength="3333" clip-path="url(#z36286c3)" d="M273 383L429 348"/>
<path style="--d:4s;" pathLength="3333" clip-path="url(#z36286c4)" d="M302 388L330 411L319 698"/>
<path style="--d:5s;" pathLength="3333" clip-path="url(#z36286c5)" d="M357 541L454 515"/>
<path style="--d:6s;" pathLength="3333" clip-path="url(#z36286c6)" d="M145 498L192 538L213 730"/>
<path style="--d:7s;" pathLength="3333" clip-path="url(#z36286c7)" d="M77 769L147 788L437 676"/>
<path style="--d:8s;" pathLength="3333" clip-path="url(#z36286c8)" d="M615 114L679 149L687 180L668 754"/>
<path style="--d:9s;" pathLength="3333" clip-path="url(#z36286c9)" d="M715 437L880 400"/>
<path style="--d:10s;" pathLength="3333" clip-path="url(#z36286c10)" d="M481 467L529 514L545 772"/>
<path style="--d:11s;" pathLength="3333" clip-path="url(#z36286c11)" d="M393 801L452 809L864 750L972 762"/>
</svg>