<!--
AnimCJK 2016-2018 Copyright Francois Mizessyn - https://github.com/parsimonhi/animCJK
Derived from:
    MakeMeAHanzi project - https://github.com/skishore/makemeahanzi
    Arphic PL KaitiM GB - https://apps.ubuntu.com/cat/applications/precise/fonts-arphic-gkai00mp/
    Arphic PL UKai - https://apps.ubuntu.com/cat/applications/fonts-arphic-ukai/
You can redistribute and/or modify this file under the terms of the Arphic Public License
as published by Arphic Technology Co., Ltd.
You should have received a copy of this license (the directory "APL") along with this file;
if not, see http://ftp.gnu.org/non-gnu/chinese-fonts-truetype/LICENSE.
-->
<svg id="z36299" class="acjk" version="1.1" viewBox="0 0 1024 1024" xmlns="http://www.w3.org/2000/svg" xmlns:xlink="http://www.w3.org/1999/xlink">
<style>
<![CDATA[
@keyframes z36299k {
	from {
		stroke:#ccc;
		stroke-dashoffset:3334;
	}
	1% {
		stroke:#c00;
		stroke-dashoffset:3334;
	}
	75% {
		stroke:#c00;
		stroke-dashoffset:0;
	}
	to {
		stroke:#000;
	}
}
#z36299 path[clip-path] {
	animation:z36299k 1s linear both;
	stroke-dasharray:3334;
	stroke-width:128;
	stroke-linecap:round;
	fill:none;
}
#z36299 path[clip-path="url(#z36299c1)"] {animation-delay:1s;}
#z36299 path[clip-path="url(#z36299c2)"] {animation-delay:2s;}
#z36299 path[clip-path="url(#z36299c3)"] {animation-delay:3s;}
#z36299 path[clip-path="url(#z36299c4)"] {animation-delay:4s;}
#z36299 path[clip-path="url(#z36299c5)"] {animation-delay:5s;}
#z36299 path[clip-path="url(#z36299c6)"] {animation-delay:6s;}
#z36299 path[clip-path="url(#z36299c7)"] {animation-delay:7s;}
#z36299 path[clip-path="url(#z36299c8)"] {animation-delay:8s;}
#z36299 path[clip-path="url(#z36299c9)"] {animation-delay:9s;}
#z36299 path[clip-path="url(#z36299c10)"] {animation-delay:10s;}
#z36299 path[clip-path="url(#z36299c11)"] {animation-delay:11s;}
#z36299 path[clip-path="url(#z36299c12)"] {animation-delay:12s;}
#z36299 path {fill:#ccc;}
]]>
</style>
<path id="z36299d1" d="M198 233Q186 229 160 223Q148 220 145 225Q138 232 147 247Q172 301 189 389Q193 414 208 432Q226 454 231 439Q235 429 235 414L232 385Q217 286 215 260L198 233 Z"/>
<path id="z36299d2" d="M383 356Q402 275 426 251Q450 224 425 210Q406 198 377 181Q359 171 311 197Q262 216 198 233L215 260Q221 257 313 234Q340 227 347 238Q354 244 346 279Q339 315 329 357L383 356 Z"/>
<path id="z36299d3" d="M299 401Q336 391 396 383Q405 382 405 374Q405 367 383 356L329 357Q275 373 232 385L235 414Q242 415 253 412Q254 411 258 411L299 401 Z"/>
<path id="z36299d4" d="M321 676Q322 600 323 535L323 509Q323 478 325 445Q331 427 322 418Q310 408 299 401L258 411Q267 426 274 528Q275 586 279 692L321 676 Z"/>
<path id="z36299d5" d="M323 535Q344 538 426 522Q435 521 437 519Q444 512 439 505Q432 496 409 492Q384 489 361 500Q355 501 323 509L323 535 Z"/>
<path id="z36299d6" d="M209 716Q196 596 199 571Q200 550 187 540Q165 525 140 519Q127 515 119 521Q112 528 119 541Q135 566 145 594Q152 622 172 729L209 716 Z"/>
<path id="z36299d7" d="M172 729Q108 748 87 749Q74 752 73 762Q72 775 81 782Q105 797 139 814Q149 815 160 807Q194 777 234 757Q295 726 354 695Q376 683 393 669Q406 662 405 652Q401 646 388 650Q355 662 321 676L279 692Q243 702 209 716L172 729 Z"/>
<path id="z36299d8" d="M595 398Q793 347 804 338Q811 331 807 323Q800 313 773 307Q749 304 639 344Q624 347 606 354L548 368Q511 375 471 382Q437 389 462 403Q489 416 536 414L595 398 Z"/>
<path id="z36299d9" d="M562 506Q583 439 595 398L606 354Q615 314 623 272Q639 178 650 153Q660 138 653 124Q637 105 606 88Q587 75 573 79Q560 85 566 100Q585 131 576 204Q573 220 571 240Q562 307 548 368L536 414Q535 417 535 421Q484 614 321 825Q315 831 313 837Q309 849 321 847Q357 841 455 716Q491 665 525 593L534 573Q541 554 550 536L562 506 Z"/>
<path id="z36299d10" d="M634 703Q618 728 595 753Q540 805 401 846Q385 850 395 858Q402 864 431 860Q522 850 577 823Q629 798 669 742L695 701Q723 650 745 580Q752 546 773 528Q789 515 771 499Q752 483 718 468Q697 461 675 471Q629 496 562 506L550 536Q562 537 667 516Q688 510 688 534Q688 585 655 665L634 703 Z"/>
<path id="z36299d11" d="M525 593Q558 609 580 639Q607 672 634 703L669 742Q727 809 782 864Q798 882 824 880Q960 865 970 850Q973 843 963 840Q807 792 712 715Q703 708 695 701L655 665Q618 631 576 587Q564 572 548 571Q541 571 534 573L525 593 Z"/>
<path id="z36299d12" d="M729 188Q760 216 794 248Q807 261 822 260Q832 260 837 247Q841 234 834 205Q825 169 725 142Q710 138 704 141Q700 145 700 157Q704 167 729 188 Z"/>
<defs>
	<clipPath id="z36299c1"><use xlink:href="#z36299d1"/></clipPath>
	<clipPath id="z36299c2"><use xlink:href="#z36299d2"/></clipPath>
	<clipPath id="z36299c3"><use xlink:href="#z36299d3"/></clipPath>
	<clipPath id="z36299c4"><use xlink:href="#z36299d4"/></clipPath>
	<clipPath id="z36299c5"><use xlink:href="#z36299d5"/></clipPath>
	<clipPath id="z36299c6"><use xlink:href="#z36299d6"/></clipPath>
	<clipPath id="z36299c7"><use xlink:href="#z36299d7"/></clipPath>
	<clipPath id="z36299c8"><use xlink:href="#z36299d8"/></clipPath>
	<clipPath id="z36299c9"><use xlink:href="#z36299d9"/></clipPath>
	<clipPath id="z36299c10"><use xlink:href="#z36299d10"/></clipPath>
	<clipPath id="z36299c11"><use xlink:href="#z36299d11"/></clipPath>
	<clipPath id="z36299c12"><use xlink:href="#z36299d12"/></clipPath>
</defs>
<path pathLength="3333" clip-path="url(#z36299c1)" d="M149 230L189 277L222 438"/>
<path pathLength="3333" clip-path="url(#z36299c2)" d="M206 236L346 206L377 218L394 237L347 356"/>
<path pathLength="3333" clip-path="url(#z36299c3)" d="M243 406L398 372"/>
<path pathLength="3333" clip-path="url(#z36299c4)" d="M265 413L297 442L288 688"/>
<path pathLength="3333" clip-path="url(#z36299c5)" d="M330 527L437 509"/>
<path pathLength="3333" clip-path="url(#z36299c6)" d="M123 526L171 577L185 723"/>
<path pathLength="3333" clip-path="url(#z36299c7)" d="M77 760L142 776L399 657"/>
<path pathLength="3333" clip-path="url(#z36299c8)" d="M461 391L548 389L802 321"/>
<path pathLength="3333" clip-path="url(#z36299c9)" d="M571 87L617 142L547 469L450 680L320 841"/>
<path pathLength="3333" clip-path="url(#z36299c10)" d="M559 530L683 491L731 516L683 667L584 792L401 853"/>
<path pathLength="3333" clip-path="url(#z36299c11)" d="M530 590L564 597L820 835L965 847"/>
<path pathLength="3333" clip-path="url(#z36299c12)" d="M707 149L802 211L828 254"/>
</svg>