<!--
AnimCJK 2016-2018 Copyright Francois Mizessyn, https://github.com/parsimonhi/animCJK
Derived from:
    MakeMeAHanzi project - https://github.com/skishore/makemeahanzi
    Arphic PL KaitiM GB - https://apps.ubuntu.com/cat/applications/precise/fonts-arphic-gkai00mp/
    Arphic PL UKai - https://apps.ubuntu.com/cat/applications/fonts-arphic-ukai/
You can redistribute and/or modify this file under the terms of the Arphic Public License
as published by Arphic Technology Co., Ltd.
You should have received a copy of this license (the directory "APL") along with this file;
if not, see http://ftp.gnu.org/non-gnu/chinese-fonts-truetype/LICENSE.
-->
<svg id="z36328" class="acjk" version="1.1" viewBox="0 0 1024 1024" xmlns="http://www.w3.org/2000/svg" xmlns:xlink="http://www.w3.org/1999/xlink">
<style>
<![CDATA[
@keyframes z36328k {
	from {
		stroke:#c00;
		stroke-dashoffset:3334;
	}
	75% {
		stroke:#c00;
		stroke-dashoffset:0;
	}
	to {
		stroke:#000;
	}
}
#z36328 path[clip-path] {
	animation:z36328k 1s linear both;
	stroke-dasharray:3334;
	stroke-width:128;
	stroke-linecap:round;
	fill:none;
}
#z36328 path[clip-path="url(#z36328c1)"] {animation-delay:1s;}
#z36328 path[clip-path="url(#z36328c2)"] {animation-delay:2s;}
#z36328 path[clip-path="url(#z36328c3)"] {animation-delay:3s;}
#z36328 path[clip-path="url(#z36328c4)"] {animation-delay:4s;}
#z36328 path[clip-path="url(#z36328c5)"] {animation-delay:5s;}
#z36328 path[clip-path="url(#z36328c6)"] {animation-delay:6s;}
#z36328 path[clip-path="url(#z36328c7)"] {animation-delay:7s;}
#z36328 path[clip-path="url(#z36328c8)"] {animation-delay:8s;}
#z36328 path[clip-path="url(#z36328c9)"] {animation-delay:9s;}
#z36328 path[clip-path="url(#z36328c10)"] {animation-delay:10s;}
#z36328 path[clip-path="url(#z36328c11)"] {animation-delay:11s;}
#z36328 path[clip-path="url(#z36328c12)"] {animation-delay:12s;}
#z36328 path[clip-path="url(#z36328c13)"] {animation-delay:13s;}
#z36328 path {fill:#ccc;}
]]>
</style>
<path id="z36328d1" d="M190 210Q178 206 149 200Q139 196 135 201Q128 207 137 222Q161 271 176 353Q179 377 193 393Q209 414 214 399Q215 393 217 386L217 356Q214 347 201 238L190 210 Z"/>
<path id="z36328d2" d="M358 332Q379 259 402 238Q426 214 403 199Q345 163 336 164Q329 164 321 169Q287 190 190 210L201 238Q207 235 295 217Q322 213 327 222Q334 229 325 260Q318 291 307 330L358 332 Z"/>
<path id="z36328d3" d="M284 373Q317 366 367 359Q376 358 377 350Q377 343 358 332L307 330Q256 346 217 356L217 386Q218 386 246 381L284 373 Z"/>
<path id="z36328d4" d="M305 663Q306 593 308 533L308 501Q311 398 310 394L309 393Q296 381 284 373L246 381Q259 415 260 434Q261 459 264 678L305 663 Z"/>
<path id="z36328d5" d="M308 533Q357 523 397 516Q419 510 410 499Q398 486 374 484Q352 483 314 497Q310 498 308 501L308 533 Z"/>
<path id="z36328d6" d="M201 698Q185 565 188 539Q189 518 175 508Q153 493 128 487Q115 483 107 490Q100 496 107 509Q125 536 135 566Q142 594 164 710L201 698 Z"/>
<path id="z36328d7" d="M164 710Q91 726 80 727Q67 728 65 740Q64 753 74 762Q98 778 133 795Q143 798 156 789Q190 761 231 740Q292 710 353 679Q375 667 393 653Q406 646 406 636Q400 630 387 633Q347 646 305 663L264 678Q233 687 201 698L164 710 Z"/>
<path id="z36328d8" d="M666 233Q706 224 825 210Q835 211 845 198Q846 186 823 176Q796 155 698 182Q689 182 604 205L549 214Q540 214 440 227Q412 231 434 248Q464 273 505 264Q515 261 529 260L587 248Q612 242 641 238L666 233 Z"/>
<path id="z36328d9" d="M604 205Q614 177 624 143Q634 115 645 90Q652 80 646 71Q639 61 609 48Q587 39 578 42Q566 46 569 61Q582 128 549 214L529 260Q481 350 370 459Q363 466 370 469Q377 470 387 466Q445 435 493 386Q548 335 587 248L604 205 Z"/>
<path id="z36328d10" d="M641 238Q642 242 649 249Q709 336 775 416Q812 461 973 443Q991 442 993 437Q996 430 981 424Q807 355 724 285Q714 276 705 269Q680 245 666 233L641 238 Z"/>
<path id="z36328d11" d="M507 410Q474 417 498 431Q540 452 588 437Q631 428 676 418Q697 414 700 410Q707 403 703 395Q696 385 669 378Q648 375 570 399Q540 406 507 410 Z"/>
<path id="z36328d12" d="M565 550Q625 534 792 527Q837 527 844 518Q848 508 834 496Q780 462 723 482Q672 491 602 507Q517 523 414 540Q396 543 410 557Q423 569 438 572Q456 576 470 572Q492 565 517 560L565 550 Z"/>
<path id="z36328d13" d="M498 720Q541 689 630 668Q666 658 687 664Q709 671 712 707Q706 777 674 833Q659 858 645 863Q627 870 552 846Q536 839 534 846Q534 852 546 864Q589 906 616 943Q626 955 637 954Q653 955 672 942Q732 885 763 738Q763 705 778 679Q790 666 779 654Q763 638 724 622Q703 613 628 638Q598 644 561 651Q542 655 551 636Q573 599 582 590Q595 577 585 562Q576 555 565 550L517 560L518 561Q530 588 497 637Q490 647 469 662Q453 678 455 693Q456 706 473 721Q485 731 498 720 Z"/>
<defs>
	<clipPath id="z36328c1"><use xlink:href="#z36328d1"/></clipPath>
	<clipPath id="z36328c2"><use xlink:href="#z36328d2"/></clipPath>
	<clipPath id="z36328c3"><use xlink:href="#z36328d3"/></clipPath>
	<clipPath id="z36328c4"><use xlink:href="#z36328d4"/></clipPath>
	<clipPath id="z36328c5"><use xlink:href="#z36328d5"/></clipPath>
	<clipPath id="z36328c6"><use xlink:href="#z36328d6"/></clipPath>
	<clipPath id="z36328c7"><use xlink:href="#z36328d7"/></clipPath>
	<clipPath id="z36328c8"><use xlink:href="#z36328d8"/></clipPath>
	<clipPath id="z36328c9"><use xlink:href="#z36328d9"/></clipPath>
	<clipPath id="z36328c10"><use xlink:href="#z36328d10"/></clipPath>
	<clipPath id="z36328c11"><use xlink:href="#z36328d11"/></clipPath>
	<clipPath id="z36328c12"><use xlink:href="#z36328d12"/></clipPath>
	<clipPath id="z36328c13"><use xlink:href="#z36328d13"/></clipPath>
</defs>
<path pathLength="3333" clip-path="url(#z36328c1)" d="M140 205L177 252L203 400"/>
<path pathLength="3333" clip-path="url(#z36328c2)" d="M198 214L354 203L372 226L324 330"/>
<path pathLength="3333" clip-path="url(#z36328c3)" d="M221 378L370 350"/>
<path pathLength="3333" clip-path="url(#z36328c4)" d="M253 383L285 429L278 672"/>
<path pathLength="3333" clip-path="url(#z36328c5)" d="M311 525L408 500"/>
<path pathLength="3333" clip-path="url(#z36328c6)" d="M111 498L160 545L174 706"/>
<path pathLength="3333" clip-path="url(#z36328c7)" d="M70 742L140 755L400 640"/>
<path pathLength="3333" clip-path="url(#z36328c8)" d="M432 236L837 195"/>
<path pathLength="3333" clip-path="url(#z36328c9)" d="M577 47L610 83L561 247L486 363L373 462"/>
<path pathLength="3333" clip-path="url(#z36328c10)" d="M651 241L813 394L984 434"/>
<path pathLength="3333" clip-path="url(#z36328c11)" d="M495 418L699 396"/>
<path pathLength="3333" clip-path="url(#z36328c12)" d="M414 551L839 506"/>
<path pathLength="3333" clip-path="url(#z36328c13)" d="M526 562L551 592L507 667L518 688L695 642L746 683L715 812L665 895L632 909L542 849"/>
</svg>