<!--
AnimCJK 2016-2019 Copyright Francois Mizessyn - https://github.com/parsimonhi/animCJK
Derived from:
    MakeMeAHanzi project - https://github.com/skishore/makemeahanzi
    Arphic PL KaitiM GB font
    Arphic PL UKai font
You can redistribute and/or modify this file under the terms of the Arphic Public License
as published by Arphic Technology Co., Ltd.
You should have received a copy of this license along with this file.
If not, see http://ftp.gnu.org/non-gnu/chinese-fonts-truetype/LICENSE.
-->
<svg id="z36344" class="acjk" version="1.1" viewBox="0 0 1024 1024" xmlns="http://www.w3.org/2000/svg" xmlns:xlink="http://www.w3.org/1999/xlink">
<style>
<![CDATA[
@keyframes zk {
	to {
		stroke-dashoffset:0;
	}
}
svg.acjk path[clip-path] {
	--t:0.8s;
	animation:zk var(--t) linear forwards var(--d);
	stroke-dasharray:3337;
	stroke-dashoffset:3339;
	stroke-width:128;
	stroke-linecap:round;
	fill:none;
	stroke:#000;
}
svg.acjk path[id] {fill:#ccc;}
]]>
</style>
<path id="z36344d1" d="M219 214Q209 208 182 203Q170 200 167 205Q160 211 168 226Q193 280 207 368Q210 395 225 413Q241 434 247 419Q250 409 250 394C249 373 249 373 248 363Q236 267 233 240C231 230 228 218 219 214Z"/>
<path id="z36344d2" d="M386 339Q404 260 426 235Q448 210 424 196Q405 186 378 169Q357 159 316 184Q253 205 219 214C209 216 224 244 233 240Q236 236 318 219Q343 215 348 223Q355 229 350 261Q343 295 336 337C333 353 383 355 386 339Z"/>
<path id="z36344d3" d="M312 383Q343 376 399 369Q409 368 409 359Q409 352 386 339C372 330 351 331 336 337Q287 353 248 363C238 365 240 394 250 394Q257 395 268 392Q269 391 274 391C299 386 299 386 312 383Z"/>
<path id="z36344d4" d="M333 671Q336 601 338 539C339 520 339 520 339 510Q342 411 343 410Q327 392 312 383C301 376 269 379 274 391Q289 421 289 444Q290 469 291 685C291 700 333 686 333 671Z"/>
<path id="z36344d5" d="M338 539Q401 527 448 520Q470 516 461 503Q451 490 426 487Q396 484 339 510C330 514 329 541 338 539Z"/>
<path id="z36344d6" d="M228 704Q213 571 217 542Q218 520 204 510Q182 494 154 487Q141 483 133 490Q126 496 133 510Q160 552 190 716C193 729 231 717 228 704Z"/>
<path id="z36344d7" d="M190 716Q123 731 109 731Q96 732 94 744Q93 757 102 766Q126 782 160 800Q172 803 183 794Q214 767 374 690Q396 678 413 665Q426 658 426 648Q420 642 408 645Q371 657 333 671C305 680 305 680 291 685Q260 694 228 704C203 712 203 712 190 716Z"/>
<path id="z36344d8" d="M632 265Q653 258 642 247Q630 235 606 235Q563 236 526 268C520 273 517 293 525 292C596 274 596 274 632 265Z"/>
<path id="z36344d9" d="M526 268Q527 216 532 198Q536 180 523 170Q501 148 483 145Q471 144 466 147Q457 154 468 166Q486 197 486 226Q490 337 483 374Q479 401 467 415Q454 434 461 454Q471 484 486 494Q495 501 507 485Q535 454 627 376Q643 364 646 358Q647 346 629 355Q539 392 531 390Q525 386 525 292C526 276 526 276 526 268Z"/>
<path id="z36344d10" d="M705 273Q799 227 844 212Q860 211 859 201Q856 185 842 166Q829 147 809 142Q796 139 794 157Q794 178 707 249C701 254 698 277 705 273Z"/>
<path id="z36344d11" d="M707 249Q711 192 723 163Q733 135 716 121Q670 87 655 91Q642 97 649 112Q668 146 665 196Q664 401 693 429Q708 444 753 453Q792 460 854 458Q911 457 933 446Q960 431 947 403Q931 372 918 317Q917 302 909 298Q902 294 899 312Q884 379 874 390Q858 408 790 413Q753 413 736 408Q708 392 705 287Q705 280 705 273C706 257 706 257 707 249Z"/>
<path id="z36344d12" d="M695 627Q762 621 917 620Q939 620 944 611Q950 598 932 583Q875 541 812 557Q763 566 695 580C657 586 657 586 638 589Q548 601 445 616Q423 619 440 637Q455 652 474 657Q496 663 514 658Q572 642 639 634C676 629 676 629 695 627Z"/>
<path id="z36344d13" d="M647 920Q651 945 658 953Q664 960 671 958Q686 949 690 893Q690 875 695 627C695 596 695 596 695 580Q695 579 703 514Q706 498 693 489Q662 468 647 466Q635 462 620 470Q611 477 619 488Q637 533 637 572Q637 579 638 589C639 619 639 619 639 634Q643 904 647 920Z"/>
<defs>
	<clipPath id="z36344c1"><use xlink:href="#z36344d1"/></clipPath>
	<clipPath id="z36344c2"><use xlink:href="#z36344d2"/></clipPath>
	<clipPath id="z36344c3"><use xlink:href="#z36344d3"/></clipPath>
	<clipPath id="z36344c4"><use xlink:href="#z36344d4"/></clipPath>
	<clipPath id="z36344c5"><use xlink:href="#z36344d5"/></clipPath>
	<clipPath id="z36344c6"><use xlink:href="#z36344d6"/></clipPath>
	<clipPath id="z36344c7"><use xlink:href="#z36344d7"/></clipPath>
	<clipPath id="z36344c8"><use xlink:href="#z36344d8"/></clipPath>
	<clipPath id="z36344c9"><use xlink:href="#z36344d9"/></clipPath>
	<clipPath id="z36344c10"><use xlink:href="#z36344d10"/></clipPath>
	<clipPath id="z36344c11"><use xlink:href="#z36344d11"/></clipPath>
	<clipPath id="z36344c12"><use xlink:href="#z36344d12"/></clipPath>
	<clipPath id="z36344c13"><use xlink:href="#z36344d13"/></clipPath>
</defs>
<path style="--d:1s;" pathLength="3333" clip-path="url(#z36344c1)" d="M170 209L206 249L237 418"/>
<path style="--d:2s;" pathLength="3333" clip-path="url(#z36344c2)" d="M228 217L351 193L384 210L349 336"/>
<path style="--d:3s;" pathLength="3333" clip-path="url(#z36344c3)" d="M255 386L401 355"/>
<path style="--d:4s;" pathLength="3333" clip-path="url(#z36344c4)" d="M281 394L315 423L301 681"/>
<path style="--d:5s;" pathLength="3333" clip-path="url(#z36344c5)" d="M347 530L456 504"/>
<path style="--d:6s;" pathLength="3333" clip-path="url(#z36344c6)" d="M137 498L182 537L200 712"/>
<path style="--d:7s;" pathLength="3333" clip-path="url(#z36344c7)" d="M98 745L168 760L417 651"/>
<path style="--d:8s;" pathLength="3333" clip-path="url(#z36344c8)" d="M532 284L640 255"/>
<path style="--d:9s;" pathLength="3333" clip-path="url(#z36344c9)" d="M471 154L507 191L503 437L639 358"/>
<path style="--d:10s;" pathLength="3333" clip-path="url(#z36344c10)" d="M804 149L816 196L712 266"/>
<path style="--d:11s;" pathLength="3333" clip-path="url(#z36344c11)" d="M655 99L694 145L687 321L714 418L797 435L908 413L906 306"/>
<path style="--d:12s;" pathLength="3333" clip-path="url(#z36344c12)" d="M440 623L495 635L836 587L940 597"/>
<path style="--d:13s;" pathLength="3333" clip-path="url(#z36344c13)" d="M622 473L667 514L667 952"/>
</svg>