<!--
AnimCJK 2016-2019 Copyright Francois Mizessyn - https://github.com/parsimonhi/animCJK
Derived from:
    MakeMeAHanzi project - https://github.com/skishore/makemeahanzi
    Arphic PL KaitiM GB font
    Arphic PL UKai font
You can redistribute and/or modify this file under the terms of the Arphic Public License
as published by Arphic Technology Co., Ltd.
You should have received a copy of this license along with this file.
If not, see http://ftp.gnu.org/non-gnu/chinese-fonts-truetype/LICENSE.
-->
<svg id="z36346" class="acjk" version="1.1" viewBox="0 0 1024 1024" xmlns="http://www.w3.org/2000/svg" xmlns:xlink="http://www.w3.org/1999/xlink">
<style>
<![CDATA[
@keyframes zk {
	to {
		stroke-dashoffset:0;
	}
}
svg.acjk path[clip-path] {
	--t:0.8s;
	animation:zk var(--t) linear forwards var(--d);
	stroke-dasharray:3337;
	stroke-dashoffset:3339;
	stroke-width:128;
	stroke-linecap:round;
	fill:none;
	stroke:#000;
}
svg.acjk path[id] {fill:#ccc;}
]]>
</style>
<path id="z36346d1" d="M209 207Q199 200 169 195Q156 191 153 196Q146 202 154 218Q179 273 191 363Q194 390 208 408Q224 430 231 415Q235 406 236 393C235 374 235 374 235 364Q235 360 235 357Q223 263 222 235C222 225 218 212 209 207Z"/>
<path id="z36346d2" d="M369 339Q388 255 414 231Q436 204 413 190Q352 154 342 156Q333 156 326 161Q296 182 209 207C199 209 212 239 222 235Q225 231 304 214Q329 208 335 218Q342 224 334 256Q325 293 315 337C311 355 365 357 369 339Z"/>
<path id="z36346d3" d="M294 380Q325 373 376 363Q386 362 386 354Q385 348 369 339C354 330 332 331 315 337Q269 353 235 364C226 368 226 393 236 393Q243 393 253 390C280 383 280 383 294 380Z"/>
<path id="z36346d4" d="M313 672Q314 584 317 512C318 489 318 489 318 477Q318 452 320 425Q327 407 318 398Q305 386 294 380C282 373 248 377 253 390Q265 415 266 439Q267 466 271 686C271 701 313 687 313 672Z"/>
<path id="z36346d5" d="M317 512Q362 502 397 496Q419 490 410 479Q398 466 374 464Q352 463 318 477C307 481 306 514 317 512Z"/>
<path id="z36346d6" d="M209 707Q194 577 197 542Q198 520 184 510Q162 494 134 487Q121 483 113 490Q106 496 113 510Q132 538 142 571Q149 601 170 720C173 733 212 720 209 707Z"/>
<path id="z36346d7" d="M170 720Q149 724 132 732Q113 739 80 739Q67 740 65 752Q64 765 74 774Q98 790 133 808Q143 811 156 801Q189 773 335 702Q404 665 413 657Q426 650 426 640Q420 634 407 637Q361 653 313 672C285 681 285 681 271 686Q240 696 209 707C183 716 183 716 170 720Z"/>
<path id="z36346d8" d="M558 136Q528 121 518 123Q500 127 514 145Q538 181 523 284Q519 300 513 319Q500 355 466 389Q454 399 451 406Q450 412 460 411Q484 411 523 374Q568 326 580 194C583 174 576 145 558 136Z"/>
<path id="z36346d9" d="M911 376Q926 372 916 355Q901 336 883 327Q871 320 847 331Q811 349 765 348Q735 348 726 327Q714 305 727 238Q731 198 772 157Q791 142 774 127Q752 106 725 94Q715 87 696 98Q636 122 558 136C538 140 580 215 580 194Q580 167 613 161Q635 154 659 148Q678 141 685 143Q692 147 691 161Q685 210 679 253Q669 304 679 338Q686 365 710 381Q744 400 812 398Q876 395 911 376Z"/>
<path id="z36346d10" d="M656 541Q738 531 894 530Q910 529 915 522Q919 512 905 500Q856 464 810 479Q749 491 658 508C626 513 626 513 610 515Q522 527 426 541Q408 542 422 557Q434 569 450 573Q468 577 481 574Q533 558 593 550C635 544 635 544 656 541Z"/>
<path id="z36346d11" d="M656 557Q656 548 656 541C657 519 657 519 658 508Q659 477 663 459Q664 446 658 441Q636 422 617 412Q605 408 596 416Q590 419 598 429Q610 448 610 515C609 580 609 580 609 612Q609 774 592 826Q582 865 625 924Q629 931 636 934Q646 935 652 923Q664 892 660 862Q656 715 656 595C656 570 656 570 656 557Z"/>
<path id="z36346d12" d="M593 550Q526 673 332 802Q319 812 328 815Q335 819 348 816Q471 776 609 612C644 569 618 501 593 550Z"/>
<path id="z36346d13" d="M656 595Q720 692 800 795Q818 814 846 812Q943 808 974 802Q983 799 984 795Q985 791 972 783Q831 720 770 663Q716 615 656 557C647 548 648 585 656 595Z"/>
<defs>
	<clipPath id="z36346c1"><use xlink:href="#z36346d1"/></clipPath>
	<clipPath id="z36346c2"><use xlink:href="#z36346d2"/></clipPath>
	<clipPath id="z36346c3"><use xlink:href="#z36346d3"/></clipPath>
	<clipPath id="z36346c4"><use xlink:href="#z36346d4"/></clipPath>
	<clipPath id="z36346c5"><use xlink:href="#z36346d5"/></clipPath>
	<clipPath id="z36346c6"><use xlink:href="#z36346d6"/></clipPath>
	<clipPath id="z36346c7"><use xlink:href="#z36346d7"/></clipPath>
	<clipPath id="z36346c8"><use xlink:href="#z36346d8"/></clipPath>
	<clipPath id="z36346c9"><use xlink:href="#z36346d9"/></clipPath>
	<clipPath id="z36346c10"><use xlink:href="#z36346d10"/></clipPath>
	<clipPath id="z36346c11"><use xlink:href="#z36346d11"/></clipPath>
	<clipPath id="z36346c12"><use xlink:href="#z36346d12"/></clipPath>
	<clipPath id="z36346c13"><use xlink:href="#z36346d13"/></clipPath>
</defs>
<path style="--d:1s;" pathLength="3333" clip-path="url(#z36346c1)" d="M159 205L194 245L222 416"/>
<path style="--d:2s;" pathLength="3333" clip-path="url(#z36346c2)" d="M215 208L336 184L378 212L329 337"/>
<path style="--d:3s;" pathLength="3333" clip-path="url(#z36346c3)" d="M241 384L377 352"/>
<path style="--d:4s;" pathLength="3333" clip-path="url(#z36346c4)" d="M260 394L294 421L284 680"/>
<path style="--d:5s;" pathLength="3333" clip-path="url(#z36346c5)" d="M320 504L407 483"/>
<path style="--d:6s;" pathLength="3333" clip-path="url(#z36346c6)" d="M117 498L165 541L185 714"/>
<path style="--d:7s;" pathLength="3333" clip-path="url(#z36346c7)" d="M69 750L140 769L421 646"/>
<path style="--d:8s;" pathLength="3333" clip-path="url(#z36346c8)" d="M514 130L554 196L544 286L517 353L460 405"/>
<path style="--d:9s;" pathLength="3333" clip-path="url(#z36346c9)" d="M579 181L586 148L712 123L736 152L698 274L714 353L780 373L915 357"/>
<path style="--d:10s;" pathLength="3333" clip-path="url(#z36346c10)" d="M425 548L831 503L911 513"/>
<path style="--d:11s;" pathLength="3333" clip-path="url(#z36346c11)" d="M600 418L635 456L637 928"/>
<path style="--d:12s;" pathLength="3333" clip-path="url(#z36346c12)" d="M604 556L572 622L488 708L333 811"/>
<path style="--d:13s;" pathLength="3333" clip-path="url(#z36346c13)" d="M658 569L827 759L978 795"/>
</svg>