<!--
AnimCJK 2016-2019 Copyright Francois Mizessyn - https://github.com/parsimonhi/animCJK
Derived from:
    MakeMeAHanzi project - https://github.com/skishore/makemeahanzi
    Arphic PL KaitiM GB font
    Arphic PL UKai font
You can redistribute and/or modify this file under the terms of the Arphic Public License
as published by Arphic Technology Co., Ltd.
You should have received a copy of this license along with this file.
If not, see http://ftp.gnu.org/non-gnu/chinese-fonts-truetype/LICENSE.
-->
<svg id="z36342" class="acjk" version="1.1" viewBox="0 0 1024 1024" xmlns="http://www.w3.org/2000/svg" xmlns:xlink="http://www.w3.org/1999/xlink">
<style>
<![CDATA[
@keyframes zk {
	to {
		stroke-dashoffset:0;
	}
}
svg.acjk path[clip-path] {
	--t:0.8s;
	animation:zk var(--t) linear forwards var(--d);
	stroke-dasharray:3337;
	stroke-dashoffset:3339;
	stroke-width:128;
	stroke-linecap:round;
	fill:none;
	stroke:#000;
}
svg.acjk path[id] {fill:#ccc;}
]]>
</style>
<path id="z36342d1" d="M201 208Q198 206 192 204Q157 194 148 197Q139 200 147 220Q153 231 159 243Q172 273 186 340Q196 389 210 404Q221 419 227 414Q229 414 229 413C232 399 232 399 233 392C235 381 235 369 231 358Q227 353 210 235C208 226 209 212 201 208Z"/>
<path id="z36342d2" d="M359 334Q374 249 398 223Q416 198 396 186C366 169 366 169 351 161Q331 149 292 177Q221 202 201 208C192 210 201 239 210 235Q213 232 295 210Q319 204 324 212Q329 218 326 253C317 307 317 307 312 334C309 349 356 349 359 334Z"/>
<path id="z36342d3" d="M233 392Q243 389 247 389C271 384 271 384 283 381Q302 375 319 371C354 366 354 366 372 363Q382 361 382 353Q382 345 359 334C346 326 327 331 312 334C311 334 311 334 310 334Q267 347 231 358C220 362 222 394 233 392Z"/>
<path id="z36342d4" d="M247 389Q259 408 263 512C263 623 263 623 263 679C263 692 301 680 301 667Q302 586 306 530C307 507 307 507 308 496C308 483 308 483 308 476C311 438 311 438 312 419Q312 406 302 395C295 389 295 389 291 386C286 383 286 383 283 381C272 375 242 378 247 389Z"/>
<path id="z36342d5" d="M306 530Q359 516 388 510Q405 504 402 496Q393 483 365 481Q344 481 308 496C297 500 295 532 306 530Z"/>
<path id="z36342d6" d="M212 695Q196 580 198 547Q200 524 186 514Q151 492 129 493Q110 494 122 515Q137 539 143 553Q153 581 175 706C177 719 215 708 212 695Z"/>
<path id="z36342d7" d="M263 679Q236 686 212 695C187 702 187 702 175 706Q161 709 145 714Q122 723 93 723Q80 724 79 734Q78 737 79 741Q79 747 86 755Q103 767 141 786Q152 790 162 780Q190 758 277 716Q354 679 370 663Q383 656 383 647Q376 643 345 653C316 662 316 662 301 667C276 675 276 675 263 679Z"/>
<path id="z36342d8" d="M734 398Q788 384 878 367Q888 369 899 355Q899 341 874 333Q841 314 766 337Q746 345 739 349C725 357 709 358 693 361C658 369 658 369 641 373Q611 377 576 385Q549 390 571 406Q602 426 646 418C673 411 673 411 687 408C718 401 718 401 734 398Z"/>
<path id="z36342d9" d="M726 445Q731 415 734 398C737 365 737 365 739 349Q746 206 757 162Q759 153 760 145Q765 136 759 129Q710 90 678 100Q662 106 676 121Q700 145 700 173Q702 277 693 361C689 392 689 392 687 408Q668 545 582 641Q544 672 543 675Q539 680 549 680C552 680 552 680 553 680Q584 680 645 626Q706 571 719 472C724 454 724 454 726 445Z"/>
<path id="z36342d10" d="M719 472Q778 554 847 669Q857 688 866 694Q872 696 880 690Q892 682 890 645Q890 585 726 445C719 439 713 465 719 472Z"/>
<path id="z36342d11" d="M447 276Q494 334 510 334Q514 334 517 332Q535 322 525 278Q520 258 478 240Q441 226 424 227Q420 231 419 243Q421 253 447 276Z"/>
<path id="z36342d12" d="M488 700Q515 677 496 624C484 595 484 595 478 581Q474 561 501 519Q509 506 533 483Q549 467 545 457Q543 449 522 437Q488 416 472 422Q467 425 451 439Q417 469 408 469Q402 469 400 473Q400 475 402 477Q421 490 447 477Q462 471 465 471Q470 473 474 481Q482 497 466 512Q454 522 447 532Q431 551 442 582Q451 611 451 615Q467 651 467 675Q467 689 463 697C460 705 481 705 488 700Z"/>
<path id="z36342d13" d="M463 697Q454 696 441 697Q419 700 402 697Q386 694 382 696Q373 702 380 715Q382 717 382 718Q392 731 435 734Q472 728 504 737Q525 742 546 757Q612 802 741 861Q775 880 823 861C903 830 903 830 943 814Q962 806 962 796Q962 782 921 788Q918 788 913 788C840 788 840 788 803 788Q735 788 688 771C571 728 571 728 512 706Q503 703 488 700C471 698 471 698 463 697Z"/>
<defs>
	<clipPath id="z36342c1"><use xlink:href="#z36342d1"/></clipPath>
	<clipPath id="z36342c2"><use xlink:href="#z36342d2"/></clipPath>
	<clipPath id="z36342c3"><use xlink:href="#z36342d3"/></clipPath>
	<clipPath id="z36342c4"><use xlink:href="#z36342d4"/></clipPath>
	<clipPath id="z36342c5"><use xlink:href="#z36342d5"/></clipPath>
	<clipPath id="z36342c6"><use xlink:href="#z36342d6"/></clipPath>
	<clipPath id="z36342c7"><use xlink:href="#z36342d7"/></clipPath>
	<clipPath id="z36342c8"><use xlink:href="#z36342d8"/></clipPath>
	<clipPath id="z36342c9"><use xlink:href="#z36342d9"/></clipPath>
	<clipPath id="z36342c10"><use xlink:href="#z36342d10"/></clipPath>
	<clipPath id="z36342c11"><use xlink:href="#z36342d11"/></clipPath>
	<clipPath id="z36342c12"><use xlink:href="#z36342d12"/></clipPath>
	<clipPath id="z36342c13"><use xlink:href="#z36342d13"/></clipPath>
</defs>
<path style="--d:1s;" pathLength="3333" clip-path="url(#z36342c1)" d="M151 203L188 249L219 410"/>
<path style="--d:2s;" pathLength="3333" clip-path="url(#z36342c2)" d="M208 210L327 183L355 198L366 219L330 333"/>
<path style="--d:3s;" pathLength="3333" clip-path="url(#z36342c3)" d="M235 384L310 354L376 355"/>
<path style="--d:4s;" pathLength="3333" clip-path="url(#z36342c4)" d="M254 392L285 438L275 673"/>
<path style="--d:5s;" pathLength="3333" clip-path="url(#z36342c5)" d="M310 521L394 495"/>
<path style="--d:6s;" pathLength="3333" clip-path="url(#z36342c6)" d="M123 497L170 541L191 700"/>
<path style="--d:7s;" pathLength="3333" clip-path="url(#z36342c7)" d="M84 732L144 751L376 653"/>
<path style="--d:8s;" pathLength="3333" clip-path="url(#z36342c8)" d="M568 393L893 346"/>
<path style="--d:9s;" pathLength="3333" clip-path="url(#z36342c9)" d="M679 109L729 144L702 449L647 591L551 672"/>
<path style="--d:10s;" pathLength="3333" clip-path="url(#z36342c10)" d="M727 454L843 605L873 688"/>
<path style="--d:11s;" pathLength="3333" clip-path="url(#z36342c11)" d="M427 231L517 329"/>
<path style="--d:12s;" pathLength="3333" clip-path="url(#z36342c12)" d="M410 474L478 447L509 469L458 563L476 698"/>
<path style="--d:13s;" pathLength="3333" clip-path="url(#z36342c13)" d="M385 705L520 725L767 828L955 794"/>
</svg>