<!--
AnimCJK 2016-2019 Copyright Francois Mizessyn - https://github.com/parsimonhi/animCJK
Derived from:
    MakeMeAHanzi project - https://github.com/skishore/makemeahanzi
    Arphic PL KaitiM GB font
    Arphic PL UKai font
You can redistribute and/or modify this file under the terms of the Arphic Public License
as published by Arphic Technology Co., Ltd.
You should have received a copy of this license along with this file.
If not, see http://ftp.gnu.org/non-gnu/chinese-fonts-truetype/LICENSE.
-->
<svg id="z36382" class="acjk" version="1.1" viewBox="0 0 1024 1024" xmlns="http://www.w3.org/2000/svg" xmlns:xlink="http://www.w3.org/1999/xlink">
<style>
<![CDATA[
@keyframes zk {
	to {
		stroke-dashoffset:0;
	}
}
svg.acjk path[clip-path] {
	--t:0.8s;
	animation:zk var(--t) linear forwards var(--d);
	stroke-dasharray:3337;
	stroke-dashoffset:3339;
	stroke-width:128;
	stroke-linecap:round;
	fill:none;
	stroke:#000;
}
svg.acjk path[id] {fill:#ccc;}
]]>
</style>
<path id="z36382d1" d="M202 190Q190 184 161 180Q151 177 147 182Q141 188 149 203Q174 252 191 333Q194 358 209 373Q225 394 230 379Q231 372 233 362C235 352 231 342 231 332Q231 329 231 326Q218 244 214 218C212 208 211 194 202 190Z"/>
<path id="z36382d2" d="M368 308Q387 242 410 222Q434 198 411 183Q353 147 350 147Q340 146 330 152Q291 174 202 190C192 192 204 220 214 218C273 206 273 206 303 200Q328 196 335 206Q342 212 333 243Q326 274 316 308C311 324 365 325 368 308Z"/>
<path id="z36382d3" d="M293 351Q327 342 379 335Q389 334 389 326Q389 319 368 308C353 299 332 303 316 308Q268 321 231 332C222 336 223 362 233 362Q240 362 249 360Q250 359 252 360C279 354 279 354 293 351Z"/>
<path id="z36382d4" d="M306 637Q309 570 312 510C313 486 313 486 314 474Q317 372 318 372C317 371 317 371 317 371Q305 359 293 351C281 344 245 348 252 360Q264 384 264 409Q265 434 264 650C264 665 306 652 306 637Z"/>
<path id="z36382d5" d="M312 510Q358 500 393 496Q415 490 405 479Q395 466 370 463Q348 462 314 474C303 478 300 512 312 510Z"/>
<path id="z36382d6" d="M198 669Q192 552 195 523Q196 501 183 491Q161 475 134 466Q121 462 112 468Q105 474 112 488Q128 515 137 544Q144 572 159 680C161 693 198 683 198 669Z"/>
<path id="z36382d7" d="M159 680Q141 683 124 689Q106 695 78 694Q65 695 63 705Q62 718 70 726Q92 742 126 761Q136 764 148 755Q175 734 335 659Q357 649 373 637Q386 630 386 620Q380 614 368 617Q337 627 306 637C278 646 278 646 264 650Q230 659 198 669C172 676 172 676 159 680Z"/>
<path id="z36382d8" d="M780 257Q804 205 827 192Q843 174 829 157Q757 97 708 126Q635 151 544 167C534 169 545 199 555 197Q643 182 734 165Q735 166 737 168Q747 180 726 256C722 274 773 274 780 257Z"/>
<path id="z36382d9" d="M533 323Q552 329 564 327Q637 308 793 289Q803 288 804 279Q804 272 780 257C765 248 744 252 726 256Q620 284 536 298C528 300 525 321 533 323Z"/>
<path id="z36382d10" d="M544 167Q529 154 508 144Q489 134 476 138Q464 145 470 158Q513 233 444 530Q432 575 416 616Q368 731 279 862Q275 869 272 874Q269 884 280 883Q310 879 399 751Q417 720 435 685Q510 531 533 323C535 306 535 306 536 298Q539 270 543 243Q547 204 555 197C561 188 553 173 544 167Z"/>
<path id="z36382d11" d="M697 511Q754 492 934 492Q952 491 956 483Q960 473 945 461Q893 424 848 441Q796 454 711 471Q707 471 703 473C666 480 666 480 648 483Q588 490 522 504Q503 507 518 521Q531 533 547 537Q566 541 581 536Q611 526 647 520C680 514 680 514 697 511Z"/>
<path id="z36382d12" d="M678 634Q688 570 697 511C701 486 701 486 703 473Q706 431 724 396Q728 386 710 371Q679 352 658 346Q643 342 636 349Q629 356 635 370Q650 395 649 411Q649 445 648 483C647 508 647 508 647 520Q644 578 639 644C639 657 675 647 678 634Z"/>
<path id="z36382d13" d="M560 657Q547 651 520 646Q507 642 503 648Q496 654 505 671Q529 725 542 812Q545 837 559 855Q578 879 583 863Q587 853 588 838C587 815 587 815 586 804Q576 713 576 687C576 676 571 661 560 657Z"/>
<path id="z36382d14" d="M810 777Q837 705 870 684Q888 665 873 647Q857 634 804 606Q785 597 763 606Q718 622 678 634C652 641 652 641 639 644Q599 651 560 657C549 659 565 689 576 687Q580 686 587 684Q669 669 746 654Q765 650 774 657Q787 672 754 776C747 793 803 794 810 777Z"/>
<path id="z36382d15" d="M588 838Q595 839 607 838Q677 823 827 814Q837 813 839 804Q840 797 810 777C794 767 772 772 754 776Q660 795 586 804C575 806 577 838 588 838Z"/>
<defs>
	<clipPath id="z36382c1"><use xlink:href="#z36382d1"/></clipPath>
	<clipPath id="z36382c2"><use xlink:href="#z36382d2"/></clipPath>
	<clipPath id="z36382c3"><use xlink:href="#z36382d3"/></clipPath>
	<clipPath id="z36382c4"><use xlink:href="#z36382d4"/></clipPath>
	<clipPath id="z36382c5"><use xlink:href="#z36382d5"/></clipPath>
	<clipPath id="z36382c6"><use xlink:href="#z36382d6"/></clipPath>
	<clipPath id="z36382c7"><use xlink:href="#z36382d7"/></clipPath>
	<clipPath id="z36382c8"><use xlink:href="#z36382d8"/></clipPath>
	<clipPath id="z36382c9"><use xlink:href="#z36382d9"/></clipPath>
	<clipPath id="z36382c10"><use xlink:href="#z36382d10"/></clipPath>
	<clipPath id="z36382c11"><use xlink:href="#z36382d11"/></clipPath>
	<clipPath id="z36382c12"><use xlink:href="#z36382d12"/></clipPath>
	<clipPath id="z36382c13"><use xlink:href="#z36382d13"/></clipPath>
	<clipPath id="z36382c14"><use xlink:href="#z36382d14"/></clipPath>
	<clipPath id="z36382c15"><use xlink:href="#z36382d15"/></clipPath>
</defs>
<path style="--d:1s;" pathLength="3333" clip-path="url(#z36382c1)" d="M151 186L189 227L224 376"/>
<path style="--d:2s;" pathLength="3333" clip-path="url(#z36382c2)" d="M210 191L337 174L363 189L379 212L344 300L325 301"/>
<path style="--d:3s;" pathLength="3333" clip-path="url(#z36382c3)" d="M236 355L381 323"/>
<path style="--d:4s;" pathLength="3333" clip-path="url(#z36382c4)" d="M259 363L290 395L274 645"/>
<path style="--d:5s;" pathLength="3333" clip-path="url(#z36382c5)" d="M319 501L403 484"/>
<path style="--d:6s;" pathLength="3333" clip-path="url(#z36382c6)" d="M115 472L163 518L177 674"/>
<path style="--d:7s;" pathLength="3333" clip-path="url(#z36382c7)" d="M70 707L128 725L379 622"/>
<path style="--d:8s;" pathLength="3333" clip-path="url(#z36382c8)" d="M554 172L759 147L787 174L742 256"/>
<path style="--d:9s;" pathLength="3333" clip-path="url(#z36382c9)" d="M540 318L799 273"/>
<path style="--d:10s;" pathLength="3333" clip-path="url(#z36382c10)" d="M479 142L518 198L465 542L380 740L279 875"/>
<path style="--d:11s;" pathLength="3333" clip-path="url(#z36382c11)" d="M522 515L844 467L950 471"/>
<path style="--d:12s;" pathLength="3333" clip-path="url(#z36382c12)" d="M641 357L686 401L656 639"/>
<path style="--d:13s;" pathLength="3333" clip-path="url(#z36382c13)" d="M507 654L546 694L576 862"/>
<path style="--d:14s;" pathLength="3333" clip-path="url(#z36382c14)" d="M569 661L786 629L828 674L783 772L762 771"/>
<path style="--d:15s;" pathLength="3333" clip-path="url(#z36382c15)" d="M591 830L832 801"/>
</svg>