<!--
AnimCJK 2016-2018 Copyright Francois Mizessyn, https://github.com/parsimonhi/animCJK
Derived from:
    MakeMeAHanzi project - https://github.com/skishore/makemeahanzi
    Arphic PL KaitiM GB - https://apps.ubuntu.com/cat/applications/precise/fonts-arphic-gkai00mp/
    Arphic PL UKai - https://apps.ubuntu.com/cat/applications/fonts-arphic-ukai/
You can redistribute and/or modify this file under the terms of the Arphic Public License
as published by Arphic Technology Co., Ltd.
You should have received a copy of this license (the directory "APL") along with this file;
if not, see http://ftp.gnu.org/non-gnu/chinese-fonts-truetype/LICENSE.
-->
<svg id="z36386" class="acjk" version="1.1" viewBox="0 0 1024 1024" xmlns="http://www.w3.org/2000/svg" xmlns:xlink="http://www.w3.org/1999/xlink">
<style>
<![CDATA[
@keyframes z36386k {
	from {
		stroke:#c00;
		stroke-dashoffset:3334;
	}
	75% {
		stroke:#c00;
		stroke-dashoffset:0;
	}
	to {
		stroke:#000;
	}
}
#z36386 path[clip-path] {
	animation:z36386k 1s linear both;
	stroke-dasharray:3334;
	stroke-width:128;
	stroke-linecap:round;
	fill:none;
}
#z36386 path[clip-path="url(#z36386c1)"] {animation-delay:1s;}
#z36386 path[clip-path="url(#z36386c2)"] {animation-delay:2s;}
#z36386 path[clip-path="url(#z36386c3)"] {animation-delay:3s;}
#z36386 path[clip-path="url(#z36386c4)"] {animation-delay:4s;}
#z36386 path[clip-path="url(#z36386c5)"] {animation-delay:5s;}
#z36386 path[clip-path="url(#z36386c6)"] {animation-delay:6s;}
#z36386 path[clip-path="url(#z36386c7)"] {animation-delay:7s;}
#z36386 path[clip-path="url(#z36386c8)"] {animation-delay:8s;}
#z36386 path[clip-path="url(#z36386c9)"] {animation-delay:9s;}
#z36386 path[clip-path="url(#z36386c10)"] {animation-delay:10s;}
#z36386 path[clip-path="url(#z36386c11)"] {animation-delay:11s;}
#z36386 path[clip-path="url(#z36386c12)"] {animation-delay:12s;}
#z36386 path[clip-path="url(#z36386c13)"] {animation-delay:13s;}
#z36386 path[clip-path="url(#z36386c14)"] {animation-delay:14s;}
#z36386 path[clip-path="url(#z36386c15)"] {animation-delay:15s;}
#z36386 path {fill:#ccc;}
]]>
</style>
<path id="z36386d1" d="M191 208Q181 201 145 196Q135 193 131 198Q125 204 133 219Q158 270 175 355Q178 380 193 397Q209 418 214 403Q217 396 217 386L216 356Q215 352 215 348Q202 266 198 237L191 208 Z"/>
<path id="z36386d2" d="M349 330Q368 252 392 229Q414 204 391 190Q328 157 325 157Q316 157 308 163Q266 190 191 208L198 237Q204 236 212 233Q252 221 287 213Q311 207 317 216Q324 223 298 332L349 330 Z"/>
<path id="z36386d3" d="M273 375Q309 365 363 359Q372 358 373 350Q373 343 349 330L298 332Q252 345 216 356L217 386Q226 385 236 383L273 375 Z"/>
<path id="z36386d4" d="M293 671Q294 586 298 516L299 483Q299 450 303 422Q309 406 300 397Q287 384 273 375L236 383Q251 413 251 439Q252 464 253 685L293 671 Z"/>
<path id="z36386d5" d="M298 516Q349 503 390 496Q411 490 402 479Q390 466 366 465Q339 464 299 483L298 516 Z"/>
<path id="z36386d6" d="M196 703Q180 574 184 543Q185 522 171 512Q149 497 124 491Q111 487 103 494Q96 500 103 513Q130 552 160 715L196 703 Z"/>
<path id="z36386d7" d="M160 715Q97 730 80 731Q67 732 65 744Q64 757 74 766Q98 782 133 799Q143 802 156 793Q180 772 343 686Q365 676 381 661Q394 654 394 644Q388 638 375 641Q335 654 293 671L253 685Q223 692 196 703L160 715 Z"/>
<path id="z36386d8" d="M553 381Q553 380 554 380Q557 371 559 361L561 338Q561 323 552 255L550 232Q543 180 542 155L539 124Q527 115 495 107Q485 103 481 107Q475 113 481 127Q508 200 516 314Q516 347 532 371L553 381 Z"/>
<path id="z36386d9" d="M668 350Q687 378 705 386Q715 393 728 373Q743 345 764 195Q771 167 790 144Q802 132 791 120Q776 105 737 84Q721 78 662 93Q626 100 581 113Q557 119 539 124L542 155Q542 154 544 153Q592 138 677 123Q696 119 702 126Q717 142 715 158Q699 297 685 325L668 350 Z"/>
<path id="z36386d10" d="M552 255Q555 255 560 255Q618 245 661 238Q682 234 673 223Q663 210 641 207Q599 204 550 232L552 255 Z"/>
<path id="z36386d11" d="M559 361Q562 362 569 361Q624 354 668 350L685 325Q678 321 667 318Q643 312 561 338L559 361 Z"/>
<path id="z36386d12" d="M529 488Q539 464 577 417Q586 407 574 395Q564 388 553 381L532 371Q528 370 522 371Q513 372 514 384Q523 450 439 547Q436 547 405 582Q398 594 410 591Q450 587 516 506L529 488 Z"/>
<path id="z36386d13" d="M708 499Q750 492 791 488Q806 488 809 495Q815 511 809 550Q787 695 754 769Q736 817 719 830Q706 842 681 832Q653 822 628 813Q606 803 620 827Q657 878 676 916Q683 937 703 934Q722 933 746 910Q815 850 862 597Q872 542 896 510Q914 491 906 480Q893 461 860 444Q836 429 810 439Q663 491 529 488L516 506Q528 518 541 525L578 525Q620 515 662 507L708 499 Z"/>
<path id="z36386d14" d="M541 525Q541 606 419 728Q413 732 413 737Q412 741 417 741Q468 741 567 613Q571 604 597 573Q603 564 597 553Q588 535 578 525L541 525 Z"/>
<path id="z36386d15" d="M662 507Q675 582 574 720Q570 724 565 731Q534 773 452 853Q445 859 455 860Q518 845 615 732Q673 648 723 561Q730 548 736 542Q743 538 740 528Q739 519 726 509Q719 502 708 499L662 507 Z"/>
<defs>
	<clipPath id="z36386c1"><use xlink:href="#z36386d1"/></clipPath>
	<clipPath id="z36386c2"><use xlink:href="#z36386d2"/></clipPath>
	<clipPath id="z36386c3"><use xlink:href="#z36386d3"/></clipPath>
	<clipPath id="z36386c4"><use xlink:href="#z36386d4"/></clipPath>
	<clipPath id="z36386c5"><use xlink:href="#z36386d5"/></clipPath>
	<clipPath id="z36386c6"><use xlink:href="#z36386d6"/></clipPath>
	<clipPath id="z36386c7"><use xlink:href="#z36386d7"/></clipPath>
	<clipPath id="z36386c8"><use xlink:href="#z36386d8"/></clipPath>
	<clipPath id="z36386c9"><use xlink:href="#z36386d9"/></clipPath>
	<clipPath id="z36386c10"><use xlink:href="#z36386d10"/></clipPath>
	<clipPath id="z36386c11"><use xlink:href="#z36386d11"/></clipPath>
	<clipPath id="z36386c12"><use xlink:href="#z36386d12"/></clipPath>
	<clipPath id="z36386c13"><use xlink:href="#z36386d13"/></clipPath>
	<clipPath id="z36386c14"><use xlink:href="#z36386d14"/></clipPath>
	<clipPath id="z36386c15"><use xlink:href="#z36386d15"/></clipPath>
</defs>
<path pathLength="3333" clip-path="url(#z36386c1)" d="M136 205L168 227L202 399"/>
<path pathLength="3333" clip-path="url(#z36386c2)" d="M198 212L319 184L358 208L310 329"/>
<path pathLength="3333" clip-path="url(#z36386c3)" d="M222 378L365 347"/>
<path pathLength="3333" clip-path="url(#z36386c4)" d="M243 385L277 422L267 679"/>
<path pathLength="3333" clip-path="url(#z36386c5)" d="M305 507L398 485"/>
<path pathLength="3333" clip-path="url(#z36386c6)" d="M106 501L150 537L177 709"/>
<path pathLength="3333" clip-path="url(#z36386c7)" d="M69 744L145 758L387 646"/>
<path pathLength="3333" clip-path="url(#z36386c8)" d="M487 115L514 138L546 375"/>
<path pathLength="3333" clip-path="url(#z36386c9)" d="M547 144L710 102L752 134L688 373"/>
<path pathLength="3333" clip-path="url(#z36386c10)" d="M557 247L670 228"/>
<path pathLength="3333" clip-path="url(#z36386c11)" d="M566 354L677 336"/>
<path pathLength="3333" clip-path="url(#z36386c12)" d="M522 379L546 417L493 507L411 586"/>
<path pathLength="3333" clip-path="url(#z36386c13)" d="M524 503L808 464L859 496L752 846L692 884L620 819"/>
<path pathLength="3333" clip-path="url(#z36386c14)" d="M548 529L565 571L423 732"/>
<path pathLength="3333" clip-path="url(#z36386c15)" d="M669 511L700 543L655 632L580 743L463 852"/>
</svg>