<!--
AnimCJK 2016-2018 Copyright Francois Mizessyn - https://github.com/parsimonhi/animCJK
Derived from:
    MakeMeAHanzi project - https://github.com/skishore/makemeahanzi
    Arphic PL KaitiM GB - https://apps.ubuntu.com/cat/applications/precise/fonts-arphic-gkai00mp/
    Arphic PL UKai - https://apps.ubuntu.com/cat/applications/fonts-arphic-ukai/
You can redistribute and/or modify this file under the terms of the Arphic Public License
as published by Arphic Technology Co., Ltd.
You should have received a copy of this license (the directory "APL") along with this file;
if not, see http://ftp.gnu.org/non-gnu/chinese-fonts-truetype/LICENSE.
-->
<svg id="z36416" class="acjk" version="1.1" viewBox="0 0 1024 1024" xmlns="http://www.w3.org/2000/svg" xmlns:xlink="http://www.w3.org/1999/xlink">
<style>
<![CDATA[
@keyframes z36416k {
	from {
		stroke:#c00;
		stroke-dashoffset:3334;
	}
	75% {
		stroke:#c00;
		stroke-dashoffset:0;
	}
	to {
		stroke:#000;
	}
}
#z36416 path[clip-path] {
	animation:z36416k 1s linear both;
	stroke-dasharray:3334;
	stroke-width:128;
	stroke-linecap:round;
	fill:none;
}
#z36416 path[clip-path="url(#z36416c1)"] {animation-delay:1s;}
#z36416 path[clip-path="url(#z36416c2)"] {animation-delay:2s;}
#z36416 path[clip-path="url(#z36416c3)"] {animation-delay:3s;}
#z36416 path[clip-path="url(#z36416c4)"] {animation-delay:4s;}
#z36416 path[clip-path="url(#z36416c5)"] {animation-delay:5s;}
#z36416 path[clip-path="url(#z36416c6)"] {animation-delay:6s;}
#z36416 path[clip-path="url(#z36416c7)"] {animation-delay:7s;}
#z36416 path[clip-path="url(#z36416c8)"] {animation-delay:8s;}
#z36416 path[clip-path="url(#z36416c9)"] {animation-delay:9s;}
#z36416 path[clip-path="url(#z36416c10)"] {animation-delay:10s;}
#z36416 path[clip-path="url(#z36416c11)"] {animation-delay:11s;}
#z36416 path[clip-path="url(#z36416c12)"] {animation-delay:12s;}
#z36416 path[clip-path="url(#z36416c13)"] {animation-delay:13s;}
#z36416 path[clip-path="url(#z36416c14)"] {animation-delay:14s;}
#z36416 path[clip-path="url(#z36416c15)"] {animation-delay:15s;}
#z36416 path[clip-path="url(#z36416c16)"] {animation-delay:16s;}
#z36416 path {fill:#ccc;}
]]>
</style>
<path id="z36416d1" d="M207 215Q204 205 158 195Q146 192 143 197Q137 203 145 218Q170 276 186 370Q189 398 205 417Q221 438 226 423Q230 411 231 394L228 367Q228 364 228 362Q215 277 210 243L207 215 Z"/>
<path id="z36416d2" d="M369 338Q390 259 415 234Q437 209 415 195Q357 159 345 162Q338 162 332 167Q299 191 207 215L210 243Q210 242 305 217Q333 210 341 220Q347 226 319 337L369 338 Z"/>
<path id="z36416d3" d="M297 383Q310 377 383 368Q393 365 394 360Q393 351 375 340Q372 339 369 338L319 337Q288 350 263 357Q245 361 228 367L231 394Q238 394 249 393Q250 392 257 392L297 383 Z"/>
<path id="z36416d4" d="M313 663Q316 591 318 530L320 496Q320 457 324 429Q331 405 297 383L257 392Q269 416 269 440Q270 465 271 677L313 663 Z"/>
<path id="z36416d5" d="M318 530Q372 514 415 504Q436 498 426 487Q414 475 390 474Q353 474 320 496L318 530 Z"/>
<path id="z36416d6" d="M219 693Q203 569 203 540Q204 519 190 510Q169 497 145 491Q132 488 125 494Q119 500 126 513Q144 538 154 567Q161 595 183 704L219 693 Z"/>
<path id="z36416d7" d="M183 704Q155 711 131 720Q112 726 81 725Q68 726 67 737Q66 750 74 758Q96 774 130 792Q140 795 152 786Q186 759 362 678Q387 668 405 653Q418 646 418 636Q412 630 400 633Q358 646 313 663L271 677Q244 684 219 693L183 704 Z"/>
<path id="z36416d8" d="M533 298Q563 289 599 285L636 278Q667 271 708 268L749 264Q789 260 837 258Q856 257 872 256Q888 255 892 248Q896 238 882 228Q836 197 771 216Q764 217 757 220L712 230Q675 237 635 246L595 254Q564 258 533 265L485 274Q454 278 421 285Q405 288 418 301Q445 322 478 314Q481 311 489 311L533 298 Z"/>
<path id="z36416d9" d="M599 285Q599 288 600 292Q609 391 618 408Q624 415 630 410Q634 406 637 391L639 362Q639 332 636 278L635 246Q631 206 635 160Q639 144 629 136Q616 126 593 118Q575 114 559 122Q550 129 562 141Q586 181 595 254L599 285 Z"/>
<path id="z36416d10" d="M733 345Q740 302 749 264L757 220Q766 163 786 116Q790 107 775 93Q750 74 730 69Q717 65 710 71Q703 75 708 89Q721 113 720 128Q717 177 712 230L708 268Q704 305 697 347L733 345 Z"/>
<path id="z36416d11" d="M637 391Q646 392 657 390Q688 383 754 379Q763 378 764 370Q765 363 738 346Q737 345 733 345L697 347Q664 356 639 362L637 391 Z"/>
<path id="z36416d12" d="M648 484Q693 469 813 472Q834 473 834 462Q835 450 802 433Q775 418 761 425Q742 431 721 436Q657 446 591 458Q560 464 548 457Q535 450 540 436Q534 369 533 298L533 265Q533 253 533 243Q536 218 514 201Q480 176 457 179Q438 182 450 201Q478 235 485 274L489 311Q499 440 489 463Q479 481 489 495Q505 517 517 517Q524 516 546 505Q573 496 615 492L648 484 Z"/>
<path id="z36416d13" d="M676 601Q749 591 857 591Q906 594 915 583Q919 573 905 561Q859 525 800 540Q748 550 674 564L626 571Q533 584 427 600Q408 601 422 617Q435 630 451 634Q470 638 484 634Q533 619 590 613L676 601 Z"/>
<path id="z36416d14" d="M674 564Q675 507 675 505Q660 492 648 484L615 492Q624 507 626 571L626 648Q626 799 610 838Q601 871 631 918Q643 936 651 942Q661 943 667 931Q679 901 675 873Q672 744 672 636L674 564 Z"/>
<path id="z36416d15" d="M590 613Q557 709 374 837Q358 849 373 850Q383 851 418 836Q461 821 502 790Q536 762 575 718Q606 682 625 650Q625 649 626 648L626 608L590 613 Z"/>
<path id="z36416d16" d="M672 636Q732 724 808 818Q824 836 852 834Q945 828 974 822Q983 819 984 815Q985 811 973 804Q847 752 752 671Q715 638 676 601L672 602L672 636 Z"/>
<defs>
	<clipPath id="z36416c1"><use xlink:href="#z36416d1"/></clipPath>
	<clipPath id="z36416c2"><use xlink:href="#z36416d2"/></clipPath>
	<clipPath id="z36416c3"><use xlink:href="#z36416d3"/></clipPath>
	<clipPath id="z36416c4"><use xlink:href="#z36416d4"/></clipPath>
	<clipPath id="z36416c5"><use xlink:href="#z36416d5"/></clipPath>
	<clipPath id="z36416c6"><use xlink:href="#z36416d6"/></clipPath>
	<clipPath id="z36416c7"><use xlink:href="#z36416d7"/></clipPath>
	<clipPath id="z36416c8"><use xlink:href="#z36416d8"/></clipPath>
	<clipPath id="z36416c9"><use xlink:href="#z36416d9"/></clipPath>
	<clipPath id="z36416c10"><use xlink:href="#z36416d10"/></clipPath>
	<clipPath id="z36416c11"><use xlink:href="#z36416d11"/></clipPath>
	<clipPath id="z36416c12"><use xlink:href="#z36416d12"/></clipPath>
	<clipPath id="z36416c13"><use xlink:href="#z36416d13"/></clipPath>
	<clipPath id="z36416c14"><use xlink:href="#z36416d14"/></clipPath>
	<clipPath id="z36416c15"><use xlink:href="#z36416d15"/></clipPath>
	<clipPath id="z36416c16"><use xlink:href="#z36416d16"/></clipPath>
</defs>
<path pathLength="3333" clip-path="url(#z36416c1)" d="M148 203L180 228L215 424"/>
<path pathLength="3333" clip-path="url(#z36416c2)" d="M217 234L334 189L371 204L383 225L335 337"/>
<path pathLength="3333" clip-path="url(#z36416c3)" d="M235 386L387 358"/>
<path pathLength="3333" clip-path="url(#z36416c4)" d="M264 395L297 427L279 673"/>
<path pathLength="3333" clip-path="url(#z36416c5)" d="M324 521L421 493"/>
<path pathLength="3333" clip-path="url(#z36416c6)" d="M129 500L176 545L191 698"/>
<path pathLength="3333" clip-path="url(#z36416c7)" d="M71 738L138 755L408 637"/>
<path pathLength="3333" clip-path="url(#z36416c8)" d="M418 291L791 236L888 241"/>
<path pathLength="3333" clip-path="url(#z36416c9)" d="M565 128L604 154L624 407"/>
<path pathLength="3333" clip-path="url(#z36416c10)" d="M713 77L753 115L705 341"/>
<path pathLength="3333" clip-path="url(#z36416c11)" d="M642 383L759 369"/>
<path pathLength="3333" clip-path="url(#z36416c12)" d="M453 184L506 241L525 483L760 448L825 458"/>
<path pathLength="3333" clip-path="url(#z36416c13)" d="M425 608L911 570"/>
<path pathLength="3333" clip-path="url(#z36416c14)" d="M623 498L650 530L653 937"/>
<path pathLength="3333" clip-path="url(#z36416c15)" d="M618 616L520 746L377 844"/>
<path pathLength="3333" clip-path="url(#z36416c16)" d="M680 611L838 786L975 814"/>
</svg>