<!--
AnimCJK 2016-2026 Copyright FM-SH - https://github.com/parsimonhi/animCJK
Derived from:
    MakeMeAHanzi project - https://github.com/skishore/makemeahanzi
    Arphic PL KaitiM GB font
    Arphic PL KaitiM Big5 font
You can redistribute and/or modify this file under the terms of the Arphic Public License
as published by Arphic Technology Co., Ltd.
You should have received a copy of this license along with this file.
If not, see https://ftp.gnu.org/non-gnu/chinese-fonts-truetype/LICENSE.
-->
<svg id="z36426" class="acjk" viewBox="0 0 1024 1024" xmlns="http://www.w3.org/2000/svg">
<style>
<![CDATA[
@keyframes zk {
	to {
		stroke-dashoffset:0;
	}
}
svg.acjk path[clip-path] {
	--t:0.8s;
	animation:zk var(--t) linear forwards var(--d);
	stroke-dasharray:3337;
	stroke-dashoffset:3339;
	stroke-width:128;
	stroke-linecap:round;
	fill:none;
	stroke:#000;
}
svg.acjk path[id] {fill:#ccc;}
]]>
</style>
<path id="z36426d1" d="M210 206Q198 200 171 196Q159 193 157 197Q151 203 158 217Q185 272 199 364Q202 392 218 410Q234 429 238 415Q242 405 242 390C240 369 240 369 239 359Q224 263 220 233C218 224 219 210 210 206Z"/>
<path id="z36426d2" d="M375 334Q391 255 415 230Q437 206 415 192Q396 182 371 165Q353 156 309 180Q260 198 210 206C201 208 211 237 220 233Q223 230 309 212Q336 206 341 217Q348 223 342 257Q335 293 327 334C324 350 372 350 375 334Z"/>
<path id="z36426d3" d="M297 381Q334 372 391 365Q401 364 401 355Q401 348 375 334C361 326 342 328 327 334Q276 350 239 359C229 361 232 390 242 390Q249 391 260 389C285 384 285 384 297 381Z"/>
<path id="z36426d4" d="M316 654C316 613 319 574 319 538C319 517 319 517 319 506C319 401 335 409 297 381C287 373 258 377 260 389C282 474 275 576 277 666C277 680 316 668 316 654Z"/>
<path id="z36426d5" d="M319 538C351 532 378 528 401 524C434 516 407 494 378 492C363 490 343 496 319 506C309 510 309 540 319 538Z"/>
<path id="z36426d6" d="M214 685C204 597 201 543 203 524C204 509 199 498 191 492C176 481 160 475 144 471C129 467 110 471 123 493C138 520 158 587 178 696C180 708 216 697 214 685Z"/>
<path id="z36426d7" d="M178 696C122 712 91 712 89 713C68 714 72 738 82 746C95 757 114 768 138 780C144 782 152 780 160 774C193 746 357 674 393 649C410 636 410 621 388 629C364 637 340 646 316 654C290 662 290 662 277 666C256 672 235 678 214 685C190 692 190 692 178 696Z"/>
<path id="z36426d8" d="M497 169C492 171 493 178 497 180C529 190 685 132 735 125C761 120 760 108 748 98C716 70 687 55 664 57C658 57 656 64 656 71C653 99 568 136 497 169Z"/>
<path id="z36426d9" d="M461 240C491 277 509 297 516 299C532 301 533 277 532 259C531 248 524 236 510 228C474 207 453 200 448 202C445 202 443 206 443 213C443 219 450 227 461 240Z"/>
<path id="z36426d10" d="M586 215C602 243 616 263 631 271C637 274 652 275 654 248C654 237 649 228 643 220C633 208 618 199 599 191C593 188 578 180 577 195C576 199 580 205 586 215Z"/>
<path id="z36426d11" d="M688 279C673 294 689 298 702 291C765 255 809 225 841 216C864 208 856 191 834 166C817 146 782 128 780 161C776 209 719 246 688 279Z"/>
<path id="z36426d12" d="M627 427C590 425 556 424 527 424C516 423 513 419 520 413C550 384 579 361 607 342C617 334 621 328 621 324C621 315 613 301 597 281C585 266 560 258 564 281C567 301 547 334 504 383C494 393 482 402 467 411C455 417 450 423 450 430C450 440 453 451 460 462C464 468 470 470 478 468C509 454 579 448 603 448C614 448 638 427 627 427Z"/>
<path id="z36426d13" d="M625 559C669 546 715 536 761 530C767 529 758 513 752 513C708 516 619 528 555 541C546 542 544 540 551 535C578 510 625 477 689 430C712 412 732 397 751 388C759 383 763 377 761 371C757 358 746 342 729 326C709 307 698 313 696 330C692 354 670 388 627 427C611 441 611 441 603 448C531 510 486 539 476 544C467 547 462 554 462 563C461 571 468 581 481 597C487 604 493 607 505 602C529 590 553 579 579 572C610 563 610 563 625 559Z"/>
<path id="z36426d14" d="M761 530C765 539 772 549 779 561C782 566 803 591 817 571C822 563 824 550 825 533C825 515 801 491 754 464C735 453 732 455 729 471C727 476 739 489 752 513C758 524 758 524 761 530Z"/>
<path id="z36426d15" d="M658 687C712 680 778 673 858 675C885 675 946 676 909 645C879 620 852 612 828 618C782 628 721 640 645 653C607 659 607 659 588 662C528 671 463 679 399 688C386 689 384 694 394 705C419 731 443 724 456 722C495 712 535 701 580 696C632 690 632 690 658 687Z"/>
<path id="z36426d16" d="M645 653C658 599 680 583 625 559C610 553 573 557 579 572C585 588 595 605 588 662C586 673 584 685 580 696C537 798 499 841 380 895C363 902 365 907 385 908C406 908 568 897 634 698C638 683 641 668 645 653Z"/>
<path id="z36426d17" d="M634 698C674 760 718 827 772 895C781 906 797 911 815 911C875 908 915 904 935 901C951 897 942 888 933 884C856 848 787 805 726 751C703 731 681 709 658 687C647 676 624 685 634 698Z"/>
<defs>
	<clipPath id="z36426c1"><use href="#z36426d1"/></clipPath>
	<clipPath id="z36426c2"><use href="#z36426d2"/></clipPath>
	<clipPath id="z36426c3"><use href="#z36426d3"/></clipPath>
	<clipPath id="z36426c4"><use href="#z36426d4"/></clipPath>
	<clipPath id="z36426c5"><use href="#z36426d5"/></clipPath>
	<clipPath id="z36426c6"><use href="#z36426d6"/></clipPath>
	<clipPath id="z36426c7"><use href="#z36426d7"/></clipPath>
	<clipPath id="z36426c8"><use href="#z36426d8"/></clipPath>
	<clipPath id="z36426c9"><use href="#z36426d9"/></clipPath>
	<clipPath id="z36426c10"><use href="#z36426d10"/></clipPath>
	<clipPath id="z36426c11"><use href="#z36426d11"/></clipPath>
	<clipPath id="z36426c12"><use href="#z36426d12"/></clipPath>
	<clipPath id="z36426c13"><use href="#z36426d13"/></clipPath>
	<clipPath id="z36426c14"><use href="#z36426d14"/></clipPath>
	<clipPath id="z36426c15"><use href="#z36426d15"/></clipPath>
	<clipPath id="z36426c16"><use href="#z36426d16"/></clipPath>
	<clipPath id="z36426c17"><use href="#z36426d17"/></clipPath>
</defs>
<path style="--d:1s;" pathLength="3333" clip-path="url(#z36426c1)" d="M162 204L193 229L231 413"/>
<path style="--d:2s;" pathLength="3333" clip-path="url(#z36426c2)" d="M211 214L336 188L370 200L385 219L338 341"/>
<path style="--d:3s;" pathLength="3333" clip-path="url(#z36426c3)" d="M236 373L396 352"/>
<path style="--d:4s;" pathLength="3333" clip-path="url(#z36426c4)" d="M265 385L296 428L296 669"/>
<path style="--d:5s;" pathLength="3333" clip-path="url(#z36426c5)" d="M314 527L409 511"/>
<path style="--d:6s;" pathLength="3333" clip-path="url(#z36426c6)" d="M125 476L168 512L197 698"/>
<path style="--d:7s;" pathLength="3333" clip-path="url(#z36426c7)" d="M79 725L148 741L398 632"/>
<path style="--d:8s;" pathLength="3333" clip-path="url(#z36426c8)" d="M665 65L699 111L501 174"/>
<path style="--d:9s;" pathLength="3333" clip-path="url(#z36426c9)" d="M450 208L522 292"/>
<path style="--d:10s;" pathLength="3333" clip-path="url(#z36426c10)" d="M585 195L644 267"/>
<path style="--d:11s;" pathLength="3333" clip-path="url(#z36426c11)" d="M792 145L811 201L691 287"/>
<path style="--d:12s;" pathLength="3333" clip-path="url(#z36426c12)" d="M572 272L588 320L486 433L622 434"/>
<path style="--d:13s;" pathLength="3333" clip-path="url(#z36426c13)" d="M706 319L721 372L504 552L522 571L757 523"/>
<path style="--d:14s;" pathLength="3333" clip-path="url(#z36426c14)" d="M737 461L808 573"/>
<path style="--d:15s;" pathLength="3333" clip-path="url(#z36426c15)" d="M392 694L443 703L836 645L916 655"/>
<path style="--d:16s;" pathLength="3333" clip-path="url(#z36426c16)" d="M583 564L624 605L568 777L499 850L376 903"/>
<path style="--d:17s;" pathLength="3333" clip-path="url(#z36426c17)" d="M638 691L807 866L936 891"/>
</svg>