<!--
AnimCJK 2016-2019 Copyright Francois Mizessyn - https://github.com/parsimonhi/animCJK
Derived from:
    MakeMeAHanzi project - https://github.com/skishore/makemeahanzi
    Arphic PL KaitiM GB font
    Arphic PL UKai font
You can redistribute and/or modify this file under the terms of the Arphic Public License
as published by Arphic Technology Co., Ltd.
You should have received a copy of this license along with this file.
If not, see http://ftp.gnu.org/non-gnu/chinese-fonts-truetype/LICENSE.
-->
<svg id="z36481" class="acjk" version="1.1" viewBox="0 0 1024 1024" xmlns="http://www.w3.org/2000/svg" xmlns:xlink="http://www.w3.org/1999/xlink">
<style>
<![CDATA[
@keyframes zk {
	to {
		stroke-dashoffset:0;
	}
}
svg.acjk path[clip-path] {
	--t:0.8s;
	animation:zk var(--t) linear forwards var(--d);
	stroke-dasharray:3337;
	stroke-dashoffset:3339;
	stroke-width:128;
	stroke-linecap:round;
	fill:none;
	stroke:#000;
}
svg.acjk path[id] {fill:#ccc;}
]]>
</style>
<path id="z36481d1" d="M183 216Q173 210 138 204Q128 203 124 207Q120 213 127 226Q152 275 171 355Q175 379 189 394Q205 413 210 399Q211 392 212 382C214 372 212 363 210 353Q206 338 189 241C187 233 191 220 183 216Z"/>
<path id="z36481d2" d="M342 327Q357 251 378 227Q397 203 376 192Q358 182 334 168Q318 159 301 170Q267 194 183 216C175 217 181 243 189 241Q195 240 207 236Q247 224 280 215Q304 208 309 218Q316 224 310 255Q304 288 296 327C293 342 339 342 342 327Z"/>
<path id="z36481d3" d="M269 371Q303 362 356 355Q365 354 365 346Q365 339 342 327C329 319 310 321 296 327Q247 343 210 353C200 355 202 382 212 382Q218 382 231 380C256 374 256 374 269 371Z"/>
<path id="z36481d4" d="M283 684Q284 603 286 534C286 515 286 515 286 506Q289 389 288 387Q279 378 269 371C259 363 227 368 231 380Q241 402 245 488Q245 554 246 696C246 709 283 697 283 684Z"/>
<path id="z36481d5" d="M286 534Q334 524 370 517Q389 513 381 502Q371 492 350 489Q316 486 286 506C279 512 277 536 286 534Z"/>
<path id="z36481d6" d="M192 714Q177 582 181 541Q182 522 169 511Q148 498 125 490Q112 486 105 492Q98 498 105 511Q132 557 156 725C158 737 194 726 192 714Z"/>
<path id="z36481d7" d="M156 725Q81 744 64 745Q51 746 50 757Q49 770 58 778Q80 794 114 811Q124 814 136 805Q257 738 381 669Q394 662 394 652Q388 646 376 650Q330 666 283 684C258 692 258 692 246 696Q218 703 192 714C168 721 168 721 156 725Z"/>
<path id="z36481d8" d="M493 136Q486 133 479 133Q469 130 466 135Q462 139 469 153Q491 193 506 258Q510 277 522 291Q538 309 542 295Q543 288 544 277C546 267 542 258 540 248Q527 179 526 161C526 147 506 141 493 136Z"/>
<path id="z36481d9" d="M706 224Q730 173 752 163Q767 147 755 132Q742 120 698 97Q680 90 624 111Q561 127 493 136C479 139 512 164 526 161Q535 160 547 157Q602 148 654 139Q667 135 673 141Q679 147 677 159Q668 196 658 226C652 241 700 239 706 224Z"/>
<path id="z36481d10" d="M544 277Q551 277 557 276Q609 266 725 258Q734 257 735 250Q736 243 710 225Q709 224 706 224C691 218 674 223 658 226Q592 239 540 248C530 250 534 277 544 277Z"/>
<path id="z36481d11" d="M424 361Q417 357 389 353Q380 352 378 355Q374 359 380 371Q402 411 416 476Q420 495 432 508Q445 524 449 512Q452 502 450 486C447 469 447 469 446 461Q433 401 431 382C430 375 431 364 424 361Z"/>
<path id="z36481d12" d="M557 447Q569 395 584 380Q600 361 583 351Q570 342 549 330Q536 323 521 330Q500 345 424 361C417 362 424 385 431 382Q434 378 501 367Q520 363 525 370Q529 374 519 442C517 455 554 460 557 447Z"/>
<path id="z36481d13" d="M450 486Q459 486 470 485Q501 478 567 472Q576 471 576 464Q576 458 557 447C546 440 532 439 519 442Q515 442 514 443Q477 453 446 461C438 463 442 486 450 486Z"/>
<path id="z36481d14" d="M651 324Q641 320 621 316Q611 315 608 318Q604 322 610 335Q629 372 642 436Q643 455 655 467Q668 483 673 472Q674 465 676 456C678 447 675 438 674 429Q664 365 663 347C663 338 659 327 651 324Z"/>
<path id="z36481d15" d="M795 416Q811 367 826 354Q845 333 827 321Q811 311 789 295Q776 288 731 307Q689 319 651 324C643 326 655 349 663 347Q688 341 738 336Q757 333 760 340Q763 343 752 413C750 427 790 429 795 416Z"/>
<path id="z36481d16" d="M676 456Q682 456 689 455Q726 448 806 444Q813 443 815 436Q815 430 795 416C784 407 766 410 752 413Q706 423 674 429C665 431 667 456 676 456Z"/>
<path id="z36481d17" d="M620 589Q671 583 888 583Q906 583 910 575Q914 565 901 552Q853 516 821 524Q746 537 622 556C589 561 589 561 573 563Q479 572 371 584Q352 585 366 602Q379 614 395 619Q414 623 428 620Q486 604 550 598C597 592 597 592 620 589Z"/>
<path id="z36481d18" d="M622 556Q623 543 625 533Q628 521 621 516Q599 497 582 488Q570 484 562 491Q556 494 563 504Q566 508 573 563C573 618 573 618 573 646Q572 664 572 684Q565 823 555 846Q546 882 578 929Q588 947 595 950Q605 951 611 939Q623 909 620 881Q620 839 619 632C621 581 621 581 622 556Z"/>
<path id="z36481d19" d="M619 591Q619 590 620 589C634 570 562 578 550 598Q474 722 284 847Q272 857 280 859Q287 863 298 860Q413 827 543 681Q562 657 573 646C590 629 636 608 619 591Z"/>
<path id="z36481d20" d="M619 632Q692 732 783 839Q801 858 830 858Q930 855 961 850Q971 849 972 843Q972 839 959 831Q805 773 751 719Q688 664 619 591C609 581 611 621 619 632Z"/>
<defs>
	<clipPath id="z36481c1"><use xlink:href="#z36481d1"/></clipPath>
	<clipPath id="z36481c2"><use xlink:href="#z36481d2"/></clipPath>
	<clipPath id="z36481c3"><use xlink:href="#z36481d3"/></clipPath>
	<clipPath id="z36481c4"><use xlink:href="#z36481d4"/></clipPath>
	<clipPath id="z36481c5"><use xlink:href="#z36481d5"/></clipPath>
	<clipPath id="z36481c6"><use xlink:href="#z36481d6"/></clipPath>
	<clipPath id="z36481c7"><use xlink:href="#z36481d7"/></clipPath>
	<clipPath id="z36481c8"><use xlink:href="#z36481d8"/></clipPath>
	<clipPath id="z36481c9"><use xlink:href="#z36481d9"/></clipPath>
	<clipPath id="z36481c10"><use xlink:href="#z36481d10"/></clipPath>
	<clipPath id="z36481c11"><use xlink:href="#z36481d11"/></clipPath>
	<clipPath id="z36481c12"><use xlink:href="#z36481d12"/></clipPath>
	<clipPath id="z36481c13"><use xlink:href="#z36481d13"/></clipPath>
	<clipPath id="z36481c14"><use xlink:href="#z36481d14"/></clipPath>
	<clipPath id="z36481c15"><use xlink:href="#z36481d15"/></clipPath>
	<clipPath id="z36481c16"><use xlink:href="#z36481d16"/></clipPath>
	<clipPath id="z36481c17"><use xlink:href="#z36481d17"/></clipPath>
	<clipPath id="z36481c18"><use xlink:href="#z36481d18"/></clipPath>
	<clipPath id="z36481c19"><use xlink:href="#z36481d19"/></clipPath>
	<clipPath id="z36481c20"><use xlink:href="#z36481d20"/></clipPath>
</defs>
<path style="--d:1s;" pathLength="3333" clip-path="url(#z36481c1)" d="M131 214L163 240L202 397"/>
<path style="--d:2s;" pathLength="3333" clip-path="url(#z36481c2)" d="M190 221L312 189L334 201L350 220L309 326"/>
<path style="--d:3s;" pathLength="3333" clip-path="url(#z36481c3)" d="M219 375L359 346"/>
<path style="--d:4s;" pathLength="3333" clip-path="url(#z36481c4)" d="M238 381L264 409L254 692"/>
<path style="--d:5s;" pathLength="3333" clip-path="url(#z36481c5)" d="M293 525L375 505"/>
<path style="--d:6s;" pathLength="3333" clip-path="url(#z36481c6)" d="M108 499L149 538L172 719"/>
<path style="--d:7s;" pathLength="3333" clip-path="url(#z36481c7)" d="M54 756L118 773L388 656"/>
<path style="--d:8s;" pathLength="3333" clip-path="url(#z36481c8)" d="M474 143L505 176L532 294"/>
<path style="--d:9s;" pathLength="3333" clip-path="url(#z36481c9)" d="M504 139L686 119L718 154L668 218"/>
<path style="--d:10s;" pathLength="3333" clip-path="url(#z36481c10)" d="M548 253L731 247"/>
<path style="--d:11s;" pathLength="3333" clip-path="url(#z36481c11)" d="M385 360L410 385L440 509"/>
<path style="--d:12s;" pathLength="3333" clip-path="url(#z36481c12)" d="M431 363L525 346L555 362L536 444"/>
<path style="--d:13s;" pathLength="3333" clip-path="url(#z36481c13)" d="M452 463L565 464"/>
<path style="--d:14s;" pathLength="3333" clip-path="url(#z36481c14)" d="M614 323L643 359L661 470"/>
<path style="--d:15s;" pathLength="3333" clip-path="url(#z36481c15)" d="M660 325L781 321L798 340L771 413"/>
<path style="--d:16s;" pathLength="3333" clip-path="url(#z36481c16)" d="M684 448L810 436"/>
<path style="--d:17s;" pathLength="3333" clip-path="url(#z36481c17)" d="M367 591L825 553L906 569"/>
<path style="--d:18s;" pathLength="3333" clip-path="url(#z36481c18)" d="M566 495L597 533L594 944"/>
<path style="--d:19s;" pathLength="3333" clip-path="url(#z36481c19)" d="M610 595L405 783L284 852"/>
<path style="--d:20s;" pathLength="3333" clip-path="url(#z36481c20)" d="M621 601L804 806L964 841"/>
</svg>