<!--
AnimCJK 2016-2025 Copyright FM-SH - https://github.com/parsimonhi/animCJK
Derived from:
    MakeMeAHanzi project - https://github.com/skishore/makemeahanzi
    Arphic PL KaitiM GB font
    Arphic PL UKai font
You can redistribute and/or modify this file under the terms of the Arphic Public License
as published by Arphic Technology Co., Ltd.
You should have received a copy of this license along with this file.
If not, see http://ftp.gnu.org/non-gnu/chinese-fonts-truetype/LICENSE.
-->
<svg id="z36629" class="acjk" version="1.1" viewBox="0 0 1024 1024" xmlns="http://www.w3.org/2000/svg" xmlns:xlink="http://www.w3.org/1999/xlink">
<style>
<![CDATA[
@keyframes zk {
	to {
		stroke-dashoffset:0;
	}
}
svg.acjk path[clip-path] {
	--t:0.8s;
	animation:zk var(--t) linear forwards var(--d);
	stroke-dasharray:3337;
	stroke-dashoffset:3339;
	stroke-width:128;
	stroke-linecap:round;
	fill:none;
	stroke:#000;
}
svg.acjk path[id] {fill:#ccc;}
]]>
</style>
<path id="z36629d1" d="M332 262C358 254 387 245 418 237C438 231 450 225 453 222C457 217 459 211 456 206C451 198 439 194 421 192C403 189 376 201 336 215C303 226 303 226 286 232C259 240 230 246 201 253C178 258 176 266 194 275C229 292 261 282 287 275C317 266 317 266 332 262Z"/>
<path id="z36629d2" d="M162 375C155 372 142 371 124 369C115 367 111 368 109 372C105 377 106 383 113 394C136 433 156 486 171 553C175 572 181 589 195 602C215 621 219 604 220 586C220 576 218 567 217 558C205 501 193 456 182 405C180 393 173 379 162 375Z"/>
<path id="z36629d3" d="M391 554C399 566 408 573 417 578C424 582 432 579 441 566C450 551 461 503 479 424C483 405 492 387 507 372C514 363 515 355 508 347C498 336 479 324 453 309C435 298 372 320 330 332C302 339 302 339 288 343C245 354 201 365 162 375C150 377 171 409 182 405C208 394 243 383 288 373C316 366 316 366 330 363C359 356 381 351 397 350C420 348 433 358 430 380C415 465 404 513 394 522C387 530 385 545 391 554Z"/>
<path id="z36629d4" d="M329 460C345 454 371 449 383 438C387 433 387 428 384 425C371 413 343 414 329 420C301 431 301 431 287 436C270 442 251 448 237 453C218 458 216 466 232 472C245 476 265 480 286 474C315 465 315 465 329 460Z"/>
<path id="z36629d5" d="M327 565C345 561 367 556 391 554C402 552 404 525 394 522C375 514 354 519 328 528C299 537 299 537 285 541C260 548 237 552 217 558C208 561 211 588 220 586C236 585 265 576 284 573C313 568 313 568 327 565Z"/>
<path id="z36629d6" d="M326 685C364 674 408 665 458 657C486 652 478 634 457 626C438 618 421 617 407 622C378 629 351 638 326 645C296 652 296 652 281 656C169 683 92 699 47 705C39 705 33 708 32 715C29 721 34 728 45 736C71 754 96 753 125 747C176 735 230 710 278 698C310 689 310 689 326 685Z"/>
<path id="z36629d7" d="M278 698C274 742 268 784 256 828C248 856 253 889 271 930C276 941 281 947 286 951C291 954 294 954 300 949C303 945 311 938 318 924C325 907 327 888 327 867C326 846 326 786 326 685C326 658 326 658 326 645C326 620 326 593 327 565C328 540 328 540 328 528C328 506 329 483 329 460C329 433 329 433 329 420C329 402 330 381 330 363C330 342 330 342 330 332C330 305 330 281 332 262C335 231 335 231 336 215C338 186 341 159 351 136C355 125 360 115 357 107C353 99 331 86 294 63C277 52 262 51 249 62C245 64 244 72 250 82C282 135 284 174 286 232C287 261 287 261 287 275C287 295 288 318 288 343C288 363 288 363 288 373C288 393 287 413 287 436C286 461 286 461 286 474C285 494 285 518 285 541C284 562 284 562 284 573C283 599 283 627 281 656C279 684 279 684 278 698Z"/>
<path id="z36629d8" d="M576 217C551 223 547 231 566 241C591 255 629 255 678 244C727 231 779 218 832 205C857 198 872 192 876 189C881 182 883 177 880 172C874 163 861 157 842 154C824 151 783 168 715 187C629 210 582 215 576 217Z"/>
<path id="z36629d9" d="M542 373C531 408 521 445 500 479C495 486 491 491 493 499C493 505 499 510 507 519C527 541 542 567 558 593C564 604 572 611 581 613C588 613 594 607 599 595C603 580 602 569 597 558C593 549 578 537 550 522C526 509 518 497 535 474C569 424 584 398 603 374C609 365 617 351 612 341C601 321 588 308 573 301C564 296 556 295 549 298C542 300 541 306 546 317C552 331 548 349 542 373Z"/>
<path id="z36629d10" d="M665 356C655 386 647 417 628 447C623 454 620 460 622 468C623 474 628 480 637 488C656 505 671 526 686 548C694 560 702 566 711 567C719 567 725 560 728 547C730 532 729 520 723 510C719 503 704 495 680 486C656 476 650 460 664 442C681 418 706 383 730 350C736 341 740 336 735 326C724 305 712 292 697 285C688 280 680 279 674 281C667 283 665 289 670 300C675 314 672 332 665 356Z"/>
<path id="z36629d11" d="M803 331C791 363 778 395 757 425C751 432 748 439 750 448C751 454 757 460 767 469C789 488 810 511 829 535C838 546 846 553 856 553C864 552 870 545 873 531C875 516 871 503 865 493C859 484 842 475 812 465C788 456 776 442 794 423C816 398 844 361 871 329C877 320 882 316 878 304C868 282 856 267 841 259C831 253 824 250 817 253C810 254 808 261 812 273C816 288 811 307 803 331Z"/>
<path id="z36629d12" d="M697 672C783 656 826 641 827 641C832 636 834 630 831 624C826 615 814 609 794 605C773 600 753 603 732 611C676 631 615 639 562 646C537 648 533 659 551 670C580 687 614 686 653 680C682 675 682 675 697 672Z"/>
<path id="z36629d13" d="M699 792C712 685 731 699 697 672C685 663 653 665 653 680C653 686 653 726 652 800C652 816 696 808 699 792Z"/>
<path id="z36629d14" d="M652 800C583 811 508 819 428 830C414 831 412 837 423 849C431 857 442 864 455 868C469 872 481 871 492 869C601 839 754 826 950 825C964 824 972 821 975 816C979 808 975 798 964 790C926 760 891 758 855 764C824 768 727 787 699 792C668 797 668 797 652 800Z"/>
<defs>
	<clipPath id="z36629c1"><use xlink:href="#z36629d1"/></clipPath>
	<clipPath id="z36629c2"><use xlink:href="#z36629d2"/></clipPath>
	<clipPath id="z36629c3"><use xlink:href="#z36629d3"/></clipPath>
	<clipPath id="z36629c4"><use xlink:href="#z36629d4"/></clipPath>
	<clipPath id="z36629c5"><use xlink:href="#z36629d5"/></clipPath>
	<clipPath id="z36629c6"><use xlink:href="#z36629d6"/></clipPath>
	<clipPath id="z36629c7"><use xlink:href="#z36629d7"/></clipPath>
	<clipPath id="z36629c8"><use xlink:href="#z36629d8"/></clipPath>
	<clipPath id="z36629c9"><use xlink:href="#z36629d9"/></clipPath>
	<clipPath id="z36629c10"><use xlink:href="#z36629d10"/></clipPath>
	<clipPath id="z36629c11"><use xlink:href="#z36629d11"/></clipPath>
	<clipPath id="z36629c12"><use xlink:href="#z36629d12"/></clipPath>
	<clipPath id="z36629c13"><use xlink:href="#z36629d13"/></clipPath>
	<clipPath id="z36629c14"><use xlink:href="#z36629d14"/></clipPath>
</defs>
<path style="--d:1s;" pathLength="3333" clip-path="url(#z36629c1)" d="M191 264L453 213"/>
<path style="--d:2s;" pathLength="3333" clip-path="url(#z36629c2)" d="M114 377L155 413L205 606"/>
<path style="--d:3s;" pathLength="3333" clip-path="url(#z36629c3)" d="M166 384L397 331L449 340L471 368L412 573"/>
<path style="--d:4s;" pathLength="3333" clip-path="url(#z36629c4)" d="M232 464L382 431"/>
<path style="--d:5s;" pathLength="3333" clip-path="url(#z36629c5)" d="M218 575L394 542"/>
<path style="--d:6s;" pathLength="3333" clip-path="url(#z36629c6)" d="M35 718L113 721L470 643"/>
<path style="--d:7s;" pathLength="3333" clip-path="url(#z36629c7)" d="M252 69L317 124L291 947"/>
<path style="--d:8s;" pathLength="3333" clip-path="url(#z36629c8)" d="M560 227L875 179"/>
<path style="--d:9s;" pathLength="3333" clip-path="url(#z36629c9)" d="M551 307L579 357L509 492L580 607"/>
<path style="--d:10s;" pathLength="3333" clip-path="url(#z36629c10)" d="M675 284L703 336L639 465L712 561"/>
<path style="--d:11s;" pathLength="3333" clip-path="url(#z36629c11)" d="M818 260L845 308L767 441L866 543"/>
<path style="--d:12s;" pathLength="3333" clip-path="url(#z36629c12)" d="M548 656L826 630"/>
<path style="--d:13s;" pathLength="3333" clip-path="url(#z36629c13)" d="M661 675L684 712L678 805"/>
<path style="--d:14s;" pathLength="3333" clip-path="url(#z36629c14)" d="M424 838L868 794L972 808"/>
</svg>