<!--
AnimCJK 2016-2019 Copyright Francois Mizessyn - https://github.com/parsimonhi/animCJK
Derived from:
    MakeMeAHanzi project - https://github.com/skishore/makemeahanzi
    Arphic PL KaitiM GB font
    Arphic PL UKai font
You can redistribute and/or modify this file under the terms of the Arphic Public License
as published by Arphic Technology Co., Ltd.
You should have received a copy of this license along with this file.
If not, see http://ftp.gnu.org/non-gnu/chinese-fonts-truetype/LICENSE.
-->
<svg id="z36710" class="acjk" version="1.1" viewBox="0 0 1024 1024" xmlns="http://www.w3.org/2000/svg" xmlns:xlink="http://www.w3.org/1999/xlink">
<style>
<![CDATA[
@keyframes zk {
	to {
		stroke-dashoffset:0;
	}
}
svg.acjk path[clip-path] {
	--t:0.8s;
	animation:zk var(--t) linear forwards var(--d);
	stroke-dasharray:3337;
	stroke-dashoffset:3339;
	stroke-width:128;
	stroke-linecap:round;
	fill:none;
	stroke:#000;
}
svg.acjk path[id] {fill:#ccc;}
]]>
</style>
<path id="z36710d1" d="M452 289Q558 273 670 259Q737 249 748 240Q758 233 754 222Q747 207 715 197Q681 187 647 198Q569 220 486 234Q482 234 477 236C442 241 442 241 424 243Q357 249 286 252Q244 255 273 276Q318 309 384 297Q391 296 401 295C435 291 435 291 452 289Z"/>
<path id="z36710d2" d="M491 479Q433 486 370 495Q354 496 352 493Q351 490 358 477Q394 410 452 289C469 254 469 254 477 236Q510 158 539 138Q558 125 548 112Q497 58 471 59Q461 59 466 82Q473 124 424 243C409 278 409 278 401 295Q340 439 286 483Q264 499 276 548Q280 564 298 558Q370 534 492 521C523 517 523 517 538 515Q580 506 712 500Q754 499 756 486Q757 471 728 453Q704 438 638 453Q593 462 539 472C507 477 507 477 491 479Z"/>
<path id="z36710d3" d="M491 645Q460 645 287 666Q220 676 117 676Q102 676 100 688Q100 701 120 717Q138 730 172 744Q184 748 203 740Q219 734 292 723Q380 704 489 695C522 692 522 692 538 691Q754 673 853 685Q910 685 914 683Q914 682 915 682Q924 667 911 654Q833 584 770 609Q709 618 538 640C507 643 507 643 491 645Z"/>
<path id="z36710d4" d="M539 472Q540 439 544 420Q547 408 539 402Q515 381 496 372Q483 368 474 376Q468 380 476 390Q485 405 491 479C492 507 492 507 492 521Q493 570 492 632Q491 638 491 645C490 678 490 678 489 695Q480 831 474 849Q465 888 500 939Q512 958 520 962Q532 963 537 950Q549 917 545 887Q541 784 538 691C538 657 538 657 538 640Q538 577 538 515C539 486 539 486 539 472Z"/>
<defs>
	<clipPath id="z36710c1"><use xlink:href="#z36710d1"/></clipPath>
	<clipPath id="z36710c2"><use xlink:href="#z36710d2"/></clipPath>
	<clipPath id="z36710c3"><use xlink:href="#z36710d3"/></clipPath>
	<clipPath id="z36710c4"><use xlink:href="#z36710d4"/></clipPath>
</defs>
<path style="--d:1s;" pathLength="3333" clip-path="url(#z36710c1)" d="M269 264L378 272L750 224"/>
<path style="--d:2s;" pathLength="3333" clip-path="url(#z36710c2)" d="M473 65L504 134L314 492L315 523L660 475L750 482"/>
<path style="--d:3s;" pathLength="3333" clip-path="url(#z36710c3)" d="M105 689L181 710L788 642L913 672"/>
<path style="--d:4s;" pathLength="3333" clip-path="url(#z36710c4)" d="M481 378L515 419L521 956"/>
</svg>