<!--
AnimCJK 2016-2017 Copyright Francois Mizessyn, http://gooo.free.fr/animCJK/
Derived from:
    MakeMeAHanzi project - https://github.com/skishore/makemeahanzi
    Arphic PL KaitiM GB - https://apps.ubuntu.com/cat/applications/precise/fonts-arphic-gkai00mp/
    Arphic PL UKai - https://apps.ubuntu.com/cat/applications/fonts-arphic-ukai/
You can redistribute and/or modify this file under the terms of the Arphic Public License
as published by Arphic Technology Co., Ltd.
You should have received a copy of this license (the directory "APL") along with this file;
if not, see http://ftp.gnu.org/non-gnu/chinese-fonts-truetype/LICENSE.
-->
<svg id="z36710" class="acjk" version="1.1" viewBox="0 0 1024 1024" xmlns="http://www.w3.org/2000/svg" xmlns:xlink="http://www.w3.org/1999/xlink">
<style>
<![CDATA[
	@keyframes z36710k {
		from {
			stroke:#c00;
			stroke-dashoffset:3000;
		}
		75% {
			stroke:#c00;
			stroke-dashoffset:0;
		}
		to {
			stroke:#000;
		}
	}
	#z36710 path[clip-path] {
		animation:z36710k 1s linear both;
		stroke-dasharray:3000;
		stroke-width:128;
		stroke-linecap:round;
		fill:none;
	}
	#z36710 path[clip-path="url(#z36710c1)"] {animation-delay:1s;}
	#z36710 path[clip-path="url(#z36710c2)"] {animation-delay:2s;}
	#z36710 path[clip-path="url(#z36710c3)"] {animation-delay:3s;}
	#z36710 path[clip-path="url(#z36710c4)"] {animation-delay:4s;}
	#z36710 path {fill:#ccc;}
]]>
</style>
<g transform="scale(1,-1) translate(0,-900)">
	<path id="z36710d1" d="M452 611Q558 627 670 641Q737 651 748 660Q758 667 754 678Q747 693 715 703Q681 713 647 702Q569 680 486 666Q482 666 477 664L424 657Q357 651 286 648Q244 645 273 624Q318 591 384 603Q391 604 401 605L452 611Z"/>
	<path id="z36710d2" d="M491 421Q433 414 370 405Q354 404 352 407Q351 410 358 423Q394 490 452 611L477 664Q510 742 539 762Q558 775 548 788Q497 842 471 841Q461 841 466 818Q473 776 424 657L401 605Q340 461 286 417Q264 401 276 352Q280 336 298 342Q370 366 492 379L538 385Q580 394 712 400Q754 401 756 414Q757 429 728 447Q704 462 638 447Q593 438 539 428L491 421Z"/>
	<path id="z36710d3" d="M491 255Q460 255 287 234Q220 224 117 224Q102 224 100 212Q100 199 120 183Q138 170 172 156Q184 152 203 160Q219 166 292 177Q380 196 489 205L538 209Q754 227 853 215Q910 215 914 217Q914 218 915 218Q924 233 911 246Q833 316 770 291Q709 282 538 260L491 255Z"/>
	<path id="z36710d4" d="M539 428Q540 461 544 480Q547 492 539 498Q515 519 496 528Q483 532 474 524Q468 520 476 510Q485 495 491 421L492 379Q493 330 492 268Q491 262 491 255L489 205Q480 69 474 51Q465 12 500 -39Q512 -58 520 -62Q532 -63 537 -50Q549 -17 545 13Q541 116 538 209L538 260Q538 323 538 385L539 428Z"/>
	<defs>
		<clipPath id="z36710c1"><use xlink:href="#z36710d1"/></clipPath>
		<clipPath id="z36710c2"><use xlink:href="#z36710d2"/></clipPath>
		<clipPath id="z36710c3"><use xlink:href="#z36710d3"/></clipPath>
		<clipPath id="z36710c4"><use xlink:href="#z36710d4"/></clipPath>
	</defs>
	<path pathLength="2999" clip-path="url(#z36710c1)" d="M269 636L378 628L750 676"/>
	<path pathLength="2999" clip-path="url(#z36710c2)" d="M473 835L504 766L314 408L315 377L660 425L750 418"/>
	<path pathLength="2999" clip-path="url(#z36710c3)" d="M105 211L181 190L788 258L913 228"/>
	<path pathLength="2999" clip-path="url(#z36710c4)" d="M481 522L515 481L521 -56"/>
</g>
</svg>