<!--
AnimCJK 2016-2017 Copyright Francois Mizessyn, http://gooo.free.fr/animCJK/
Derived from:
    MakeMeAHanzi project - https://github.com/skishore/makemeahanzi
    Arphic PL KaitiM GB - https://apps.ubuntu.com/cat/applications/precise/fonts-arphic-gkai00mp/
    Arphic PL UKai - https://apps.ubuntu.com/cat/applications/fonts-arphic-ukai/
You can redistribute and/or modify this file under the terms of the Arphic Public License
as published by Arphic Technology Co., Ltd.
You should have received a copy of this license (the directory "APL") along with this file;
if not, see http://ftp.gnu.org/non-gnu/chinese-fonts-truetype/LICENSE.
-->
<svg id="z36739" class="acjk" version="1.1" viewBox="0 0 1024 1024" xmlns="http://www.w3.org/2000/svg" xmlns:xlink="http://www.w3.org/1999/xlink">
<style>
<![CDATA[
	@keyframes z36739k {
		from {
			stroke:#c00;
			stroke-dashoffset:3000;
		}
		75% {
			stroke:#c00;
			stroke-dashoffset:0;
		}
		to {
			stroke:#000;
		}
	}
	#z36739 path[clip-path] {
		animation:z36739k 1s linear both;
		stroke-dasharray:3000;
		stroke-width:128;
		stroke-linecap:round;
		fill:none;
	}
	#z36739 path[clip-path="url(#z36739c1)"] {animation-delay:1s;}
	#z36739 path[clip-path="url(#z36739c2)"] {animation-delay:2s;}
	#z36739 path[clip-path="url(#z36739c3)"] {animation-delay:3s;}
	#z36739 path[clip-path="url(#z36739c4)"] {animation-delay:4s;}
	#z36739 path[clip-path="url(#z36739c5)"] {animation-delay:5s;}
	#z36739 path[clip-path="url(#z36739c6)"] {animation-delay:6s;}
	#z36739 path[clip-path="url(#z36739c7)"] {animation-delay:7s;}
	#z36739 path[clip-path="url(#z36739c8)"] {animation-delay:8s;}
	#z36739 path[clip-path="url(#z36739c9)"] {animation-delay:9s;}
	#z36739 path[clip-path="url(#z36739c10)"] {animation-delay:10s;}
	#z36739 path {fill:#ccc;}
]]>
</style>
<g transform="scale(1,-1) translate(0,-900)">
	<path id="z36739d1" d="M295 608Q460 650 464 653Q471 660 467 669Q460 679 432 686Q402 690 316 659L266 645Q217 635 164 628Q130 621 155 606Q194 582 251 598L295 608Z"/>
	<path id="z36739d2" d="M357 392Q394 402 432 404Q460 407 452 420Q442 433 426 440Q414 443 359 427L316 417Q279 410 236 400Q221 397 219 400Q218 401 220 413Q251 501 295 608L316 659Q362 752 367 757Q380 769 363 788Q338 813 317 826Q304 833 294 830Q285 826 292 805Q302 771 266 645L251 598Q224 490 155 400Q128 372 161 337Q170 328 180 333Q217 355 307 380Q310 381 315 382L357 392Z"/>
	<path id="z36739d3" d="M309 233Q300 110 292 82Q283 46 314 -1Q324 -19 331 -22Q341 -23 347 -11Q359 19 356 47Q353 156 354 253L354 285Q355 313 356 339Q356 367 357 392L359 427Q360 464 365 483Q368 495 361 500Q339 519 322 528Q310 532 302 525Q296 522 303 513Q310 501 316 417L315 382Q314 328 312 271L309 233Z"/>
	<path id="z36739d4" d="M354 253Q430 286 434 304Q427 310 354 285L312 271Q227 246 134 218Q115 212 82 212Q69 211 68 201Q65 188 74 181Q96 165 127 148Q137 145 149 153Q194 187 309 233L354 253Z"/>
	<path id="z36739d5" d="M622 754Q649 732 677 707Q693 694 711 695Q724 696 728 712Q732 730 720 763Q713 782 680 794Q604 815 588 807Q582 803 585 788Q589 775 622 754Z"/>
	<path id="z36739d6" d="M505 563Q486 559 502 544Q518 532 535 529Q557 526 571 533Q667 572 841 589Q851 590 865 591Q884 594 888 602Q892 615 874 626Q811 659 765 637Q663 607 505 563Z"/>
	<path id="z36739d7" d="M527 484Q530 447 454 343Q439 327 461 335Q501 341 592 467Q599 477 595 485Q591 495 568 498Q543 502 534 497Q527 496 527 484Z"/>
	<path id="z36739d8" d="M717 479Q768 449 831 403Q849 388 864 388Q871 388 876 399Q885 412 865 449Q847 491 712 507Q703 510 703 498Q704 486 717 479Z"/>
	<path id="z36739d9" d="M691 191Q725 272 735 312Q739 337 747 354Q753 366 745 373Q729 392 709 403Q690 415 681 412Q672 408 674 398Q692 320 655 227L637 188Q577 91 385 44Q376 43 372 40Q366 36 374 31Q417 21 522 52Q594 76 636 117Q652 133 665 151L691 191Z"/>
	<path id="z36739d10" d="M665 151Q710 97 784 28Q811 6 853 12Q908 19 949 24Q962 25 974 30Q981 37 970 45Q955 54 840 92Q765 120 691 191L655 227Q624 261 590 302Q572 324 540 331Q528 334 519 327Q513 320 523 312Q551 296 623 206Q629 199 637 188L665 151Z"/>
	<defs>
		<clipPath id="z36739c1"><use xlink:href="#z36739d1"/></clipPath>
		<clipPath id="z36739c2"><use xlink:href="#z36739d2"/></clipPath>
		<clipPath id="z36739c3"><use xlink:href="#z36739d3"/></clipPath>
		<clipPath id="z36739c4"><use xlink:href="#z36739d4"/></clipPath>
		<clipPath id="z36739c5"><use xlink:href="#z36739d5"/></clipPath>
		<clipPath id="z36739c6"><use xlink:href="#z36739d6"/></clipPath>
		<clipPath id="z36739c7"><use xlink:href="#z36739d7"/></clipPath>
		<clipPath id="z36739c8"><use xlink:href="#z36739d8"/></clipPath>
		<clipPath id="z36739c9"><use xlink:href="#z36739d9"/></clipPath>
		<clipPath id="z36739c10"><use xlink:href="#z36739d10"/></clipPath>
	</defs>
	<path pathLength="2999" clip-path="url(#z36739c1)" d="M155 617L460 665"/>
	<path pathLength="2999" clip-path="url(#z36739c2)" d="M298 820L331 762L183 380L194 366L447 418"/>
	<path pathLength="2999" clip-path="url(#z36739c3)" d="M307 521L338 474L327 -15"/>
	<path pathLength="2999" clip-path="url(#z36739c4)" d="M73 204L138 184L427 299"/>
	<path pathLength="2999" clip-path="url(#z36739c5)" d="M590 799L682 752L718 701"/>
	<path pathLength="2999" clip-path="url(#z36739c6)" d="M501 557L557 553L811 617L884 608"/>
	<path pathLength="2999" clip-path="url(#z36739c7)" d="M591 483L551 468L454 340"/>
	<path pathLength="2999" clip-path="url(#z36739c8)" d="M709 499L813 454L870 398"/>
	<path pathLength="2999" clip-path="url(#z36739c9)" d="M682 407L714 357L706 310L637 151L550 84L379 37"/>
	<path pathLength="2999" clip-path="url(#z36739c10)" d="M523 321L801 65L971 38"/>
</g>
</svg>