<!--
AnimCJK 2016-2026 Copyright FM-SH - https://github.com/parsimonhi/animCJK
Derived from:
    MakeMeAHanzi project - https://github.com/skishore/makemeahanzi
    Arphic PL KaitiM GB font
    Arphic PL KaitiM Big5 font
You can redistribute and/or modify this file under the terms of the Arphic Public License
as published by Arphic Technology Co., Ltd.
You should have received a copy of this license along with this file.
If not, see https://ftp.gnu.org/non-gnu/chinese-fonts-truetype/LICENSE.
-->
<svg id="z36745" class="acjk" viewBox="0 0 1024 1024" xmlns="http://www.w3.org/2000/svg">
<style>
<![CDATA[
@keyframes zk {
	to {
		stroke-dashoffset:0;
	}
}
svg.acjk path[clip-path] {
	--t:0.8s;
	animation:zk var(--t) linear forwards var(--d);
	stroke-dasharray:3337;
	stroke-dashoffset:3339;
	stroke-width:128;
	stroke-linecap:round;
	fill:none;
	stroke:#000;
}
svg.acjk path[id] {fill:#ccc;}
]]>
</style>
<path id="z36745d1" d="M345 396C355 251 366 163 376 131C378 124 373 115 360 107C338 93 319 86 305 84C285 80 271 89 282 110C313 169 305 221 305 408C305 422 345 410 345 396Z"/>
<path id="z36745d2" d="M186 296C198 311 210 329 223 348C232 361 250 372 261 355C265 347 267 334 266 317C264 298 239 277 191 254C171 244 167 248 166 263C165 269 173 280 186 296Z"/>
<path id="z36745d3" d="M374 310C366 320 375 325 386 317C424 286 451 262 471 252C492 240 469 223 458 215C445 204 415 191 416 219C416 251 388 289 374 310Z"/>
<path id="z36745d4" d="M310 448C321 445 371 429 465 413C481 409 502 398 461 382C427 368 379 385 345 396C318 404 318 404 305 408C280 415 234 424 126 449C108 452 105 459 121 469C143 483 163 487 181 482C205 474 233 467 263 460C294 452 294 452 310 448Z"/>
<path id="z36745d5" d="M327 480C331 470 321 459 310 448C299 437 263 444 263 460C263 530 204 632 82 762C73 770 49 805 95 775C239 684 305 524 316 503C323 488 323 488 327 480Z"/>
<path id="z36745d6" d="M316 503C324 523 329 542 329 561C328 615 323 650 319 669C315 686 311 700 305 711C297 723 296 737 302 751C309 769 318 782 329 790C335 794 342 791 350 779C364 754 394 709 445 647C468 617 458 614 442 626C414 645 393 658 380 665C368 674 360 679 361 661C363 594 373 552 377 536C383 506 360 492 327 480C319 477 313 495 316 503Z"/>
<path id="z36745d7" d="M558 190C547 169 513 130 513 168C512 192 508 225 488 268C482 279 478 290 480 302C482 314 486 325 493 335C503 349 516 327 520 321C522 316 527 304 533 286C545 244 553 221 558 218C564 211 562 198 558 190Z"/>
<path id="z36745d8" d="M558 218C568 222 588 223 616 214C661 198 719 183 792 172C805 169 827 170 825 189C824 190 817 216 800 263C793 279 801 286 822 270C854 243 885 226 912 215C937 204 954 197 929 177C918 168 899 157 875 141C836 115 849 126 558 190C549 192 549 216 558 218Z"/>
<path id="z36745d9" d="M634 390Q802 347 808 342Q815 335 811 327Q804 317 777 311Q749 307 723 319Q689 332 655 343C622 352 622 352 606 356Q575 360 543 366Q509 373 534 387Q562 400 590 398C619 393 619 393 634 390Z"/>
<path id="z36745d10" d="M720 535C720 534 720 534 721 534C767 527 804 521 835 518C857 515 870 511 871 505C871 497 864 484 846 480C819 473 791 482 722 498C689 505 689 505 673 509C638 516 611 518 594 521C578 523 571 518 574 513C588 484 609 443 634 390C648 359 648 359 655 343C663 323 677 301 686 287C694 276 714 259 662 234C644 226 622 218 628 248C631 266 626 303 606 356C595 384 595 384 590 398C576 433 540 500 517 519C505 528 502 544 511 570C513 578 519 580 528 577C558 565 607 556 673 544C704 538 704 538 720 535Z"/>
<path id="z36745d11" d="M718 683C760 676 812 674 873 675C908 675 958 672 921 642C884 612 845 610 807 621C781 627 751 634 718 640C687 645 687 645 671 648C638 653 491 676 455 682C442 684 440 690 451 701C478 728 497 724 518 719C571 705 629 695 669 690C702 685 702 685 718 683Z"/>
<path id="z36745d12" d="M669 690C665 768 656 814 653 829C646 852 656 881 677 916C711 974 722 899 721 866C717 801 718 740 718 683C718 654 718 654 718 640C718 592 718 557 720 535C721 510 721 510 722 498C723 476 729 453 722 445C709 430 694 421 681 416C669 410 649 417 661 432C665 437 673 463 673 509C673 532 673 532 673 544C673 569 672 621 671 648C670 676 670 676 669 690Z"/>
<defs>
	<clipPath id="z36745c1"><use href="#z36745d1"/></clipPath>
	<clipPath id="z36745c2"><use href="#z36745d2"/></clipPath>
	<clipPath id="z36745c3"><use href="#z36745d3"/></clipPath>
	<clipPath id="z36745c4"><use href="#z36745d4"/></clipPath>
	<clipPath id="z36745c5"><use href="#z36745d5"/></clipPath>
	<clipPath id="z36745c6"><use href="#z36745d6"/></clipPath>
	<clipPath id="z36745c7"><use href="#z36745d7"/></clipPath>
	<clipPath id="z36745c8"><use href="#z36745d8"/></clipPath>
	<clipPath id="z36745c9"><use href="#z36745d9"/></clipPath>
	<clipPath id="z36745c10"><use href="#z36745d10"/></clipPath>
	<clipPath id="z36745c11"><use href="#z36745d11"/></clipPath>
	<clipPath id="z36745c12"><use href="#z36745d12"/></clipPath>
</defs>
<path style="--d:1s;" pathLength="3333" clip-path="url(#z36745c1)" d="M284 94L338 141L316 411"/>
<path style="--d:2s;" pathLength="3333" clip-path="url(#z36745c2)" d="M174 257L252 358"/>
<path style="--d:3s;" pathLength="3333" clip-path="url(#z36745c3)" d="M424 208L443 247L379 313"/>
<path style="--d:4s;" pathLength="3333" clip-path="url(#z36745c4)" d="M117 457L479 399"/>
<path style="--d:5s;" pathLength="3333" clip-path="url(#z36745c5)" d="M269 454L292 489L242 593L74 779"/>
<path style="--d:6s;" pathLength="3333" clip-path="url(#z36745c6)" d="M325 484L351 526L345 736L449 627"/>
<path style="--d:7s;" pathLength="3333" clip-path="url(#z36745c7)" d="M521 161L535 205L501 335"/>
<path style="--d:8s;" pathLength="3333" clip-path="url(#z36745c8)" d="M557 208L826 150L887 203L804 273"/>
<path style="--d:9s;" pathLength="3333" clip-path="url(#z36745c9)" d="M529 376L808 332"/>
<path style="--d:10s;" pathLength="3333" clip-path="url(#z36745c10)" d="M632 231L662 272L544 517L547 548L865 502"/>
<path style="--d:11s;" pathLength="3333" clip-path="url(#z36745c11)" d="M450 688L501 698L838 645L929 658"/>
<path style="--d:12s;" pathLength="3333" clip-path="url(#z36745c12)" d="M665 420L698 464L693 933"/>
</svg>