<!--
AnimCJK 2016-2019 Copyright Francois Mizessyn - https://github.com/parsimonhi/animCJK
Derived from:
    MakeMeAHanzi project - https://github.com/skishore/makemeahanzi
    Arphic PL KaitiM GB font
    Arphic PL UKai font
You can redistribute and/or modify this file under the terms of the Arphic Public License
as published by Arphic Technology Co., Ltd.
You should have received a copy of this license along with this file.
If not, see http://ftp.gnu.org/non-gnu/chinese-fonts-truetype/LICENSE.
-->
<svg id="z36754" class="acjk" version="1.1" viewBox="0 0 1024 1024" xmlns="http://www.w3.org/2000/svg" xmlns:xlink="http://www.w3.org/1999/xlink">
<style>
<![CDATA[
@keyframes zk {
	to {
		stroke-dashoffset:0;
	}
}
svg.acjk path[clip-path] {
	--t:0.8s;
	animation:zk var(--t) linear forwards var(--d);
	stroke-dasharray:3337;
	stroke-dashoffset:3339;
	stroke-width:128;
	stroke-linecap:round;
	fill:none;
	stroke:#000;
}
svg.acjk path[id] {fill:#ccc;}
]]>
</style>
<path id="z36754d1" d="M417 274Q459 263 465 257Q474 250 468 240Q463 232 433 223Q408 220 327 245C294 256 294 256 278 261Q223 273 153 282Q119 288 143 304Q180 325 228 315Q255 309 260 309C287 303 287 303 301 300C378 283 378 283 417 274Z"/>
<path id="z36754d2" d="M374 502Q402 496 437 492Q468 491 455 475Q446 465 433 459Q420 455 376 469C345 478 345 478 329 483Q219 504 217 504Q216 504 217 494Q251 406 301 300C318 263 318 263 327 245Q353 179 381 151Q394 141 378 122Q333 74 316 79Q306 83 312 102Q318 131 278 261C266 293 266 293 260 309Q205 447 153 506Q141 519 141 524Q140 528 143 535Q153 567 169 569Q172 570 176 568Q211 547 290 524Q318 516 329 514C359 506 359 506 374 502Z"/>
<path id="z36754d3" d="M321 665Q312 777 304 804Q294 833 319 880Q334 909 345 914Q359 916 368 888Q374 867 371 843Q370 773 370 641C371 619 371 619 371 608Q371 547 374 502C375 480 375 480 376 469Q376 443 384 408Q386 397 379 391Q340 357 325 361Q321 362 318 365Q312 369 318 379Q331 399 329 483C329 504 329 504 329 514Q326 613 324 626C322 652 322 652 321 665Z"/>
<path id="z36754d4" d="M370 641Q449 604 451 588C451 587 451 587 451 586Q443 581 405 594Q391 600 371 608C340 620 340 620 324 626C202 667 202 667 141 687Q119 694 84 694Q71 696 71 710Q71 720 78 727Q127 759 139 759Q145 759 153 753Q205 714 321 665C354 649 354 649 370 641Z"/>
<path id="z36754d5" d="M550 249Q536 241 509 237Q491 234 488 238Q483 242 490 258Q509 308 514 328Q531 382 541 451Q543 486 564 510Q582 532 586 518Q591 507 591 492C591 475 591 475 591 466C581 413 581 413 576 386C573 371 573 371 572 363Q563 306 560 283C558 271 561 254 550 249Z"/>
<path id="z36754d6" d="M745 211Q729 211 562 247Q555 248 550 249C538 251 548 285 560 283Q567 283 594 275Q649 261 757 245Q781 241 790 250Q804 266 802 283Q776 430 758 445C751 452 744 465 749 473Q780 522 802 498Q804 496 807 492Q821 466 852 327Q859 300 882 275Q893 263 892 255Q890 251 886 246Q869 229 829 203Q813 196 745 211Z"/>
<path id="z36754d7" d="M576 386Q580 388 588 386C683 372 683 372 731 365Q754 361 745 349Q727 326 679 334Q647 338 572 363C565 366 568 384 576 386Z"/>
<path id="z36754d8" d="M591 492Q687 479 749 473C759 471 767 449 758 445Q739 435 698 441Q672 446 591 466C583 468 583 494 591 492Z"/>
<path id="z36754d9" d="M521 622Q483 598 464 602Q459 602 457 605Q451 612 459 625Q475 652 478 661Q483 671 486 681Q494 705 519 827C521 838 554 835 552 824Q542 757 531 655C529 644 530 629 521 622Z"/>
<path id="z36754d10" d="M839 788Q872 669 904 624Q913 614 909 603Q905 592 874 575Q836 553 817 559Q690 592 521 622C510 624 520 655 531 655Q544 656 562 651Q576 646 593 643C606 639 606 639 612 637Q651 627 700 617C725 612 725 612 737 610Q805 595 817 602Q825 608 823 628Q812 690 785 796C782 814 835 806 839 788Z"/>
<path id="z36754d11" d="M641 815Q647 761 621 650Q617 643 612 637C608 632 591 637 593 643Q597 647 599 704Q600 716 600 722Q600 794 615 818C619 825 641 824 641 815Z"/>
<path id="z36754d12" d="M710 806Q710 804 720 778Q731 748 744 699Q751 675 764 642Q769 633 764 628Q754 618 737 610C725 605 694 606 700 617Q723 641 684 810C682 819 708 815 710 806Z"/>
<path id="z36754d13" d="M519 827Q473 831 406 839Q385 839 400 857Q429 886 462 879Q465 878 466 878Q607 845 912 845C941 845 941 845 956 845Q966 844 969 837Q976 827 959 813Q905 771 839 788C803 793 803 793 785 796Q752 800 710 806C693 809 693 809 684 810Q667 810 641 815C624 817 624 817 615 818Q592 818 552 824C530 826 530 826 519 827Z"/>
<defs>
	<clipPath id="z36754c1"><use xlink:href="#z36754d1"/></clipPath>
	<clipPath id="z36754c2"><use xlink:href="#z36754d2"/></clipPath>
	<clipPath id="z36754c3"><use xlink:href="#z36754d3"/></clipPath>
	<clipPath id="z36754c4"><use xlink:href="#z36754d4"/></clipPath>
	<clipPath id="z36754c5"><use xlink:href="#z36754d5"/></clipPath>
	<clipPath id="z36754c6"><use xlink:href="#z36754d6"/></clipPath>
	<clipPath id="z36754c7"><use xlink:href="#z36754d7"/></clipPath>
	<clipPath id="z36754c8"><use xlink:href="#z36754d8"/></clipPath>
	<clipPath id="z36754c9"><use xlink:href="#z36754d9"/></clipPath>
	<clipPath id="z36754c10"><use xlink:href="#z36754d10"/></clipPath>
	<clipPath id="z36754c11"><use xlink:href="#z36754d11"/></clipPath>
	<clipPath id="z36754c12"><use xlink:href="#z36754d12"/></clipPath>
	<clipPath id="z36754c13"><use xlink:href="#z36754d13"/></clipPath>
</defs>
<path style="--d:1s;" pathLength="3333" clip-path="url(#z36754c1)" d="M143 293L464 244"/>
<path style="--d:2s;" pathLength="3333" clip-path="url(#z36754c2)" d="M320 84L347 144L180 520L194 535L450 481"/>
<path style="--d:3s;" pathLength="3333" clip-path="url(#z36754c3)" d="M326 369L356 412L348 909"/>
<path style="--d:4s;" pathLength="3333" clip-path="url(#z36754c4)" d="M76 706L142 723L442 589"/>
<path style="--d:5s;" pathLength="3333" clip-path="url(#z36754c5)" d="M493 243L527 272L576 518"/>
<path style="--d:6s;" pathLength="3333" clip-path="url(#z36754c6)" d="M558 254L788 224L841 255L777 499"/>
<path style="--d:7s;" pathLength="3333" clip-path="url(#z36754c7)" d="M577 366L741 353"/>
<path style="--d:8s;" pathLength="3333" clip-path="url(#z36754c8)" d="M596 484L755 453"/>
<path style="--d:9s;" pathLength="3333" clip-path="url(#z36754c9)" d="M463 611L504 653L535 825"/>
<path style="--d:10s;" pathLength="3333" clip-path="url(#z36754c10)" d="M530 628L839 585L866 620L794 792"/>
<path style="--d:11s;" pathLength="3333" clip-path="url(#z36754c11)" d="M610 642L631 812"/>
<path style="--d:12s;" pathLength="3333" clip-path="url(#z36754c12)" d="M710 620L736 652L693 805"/>
<path style="--d:13s;" pathLength="3333" clip-path="url(#z36754c13)" d="M405 849L861 814L966 827"/>
</svg>