<!--
AnimCJK 2016-2018 Copyright Francois Mizessyn, http://gooo.free.fr/animCJK/
Derived from:
    MakeMeAHanzi project - https://github.com/skishore/makemeahanzi
    Arphic PL KaitiM GB - https://apps.ubuntu.com/cat/applications/precise/fonts-arphic-gkai00mp/
    Arphic PL UKai - https://apps.ubuntu.com/cat/applications/fonts-arphic-ukai/
You can redistribute and/or modify this file under the terms of the Arphic Public License
as published by Arphic Technology Co., Ltd.
You should have received a copy of this license (the directory "APL") along with this file;
if not, see http://ftp.gnu.org/non-gnu/chinese-fonts-truetype/LICENSE.
-->
<svg id="z36762" class="acjk" version="1.1" viewBox="0 0 1024 1024" xmlns="http://www.w3.org/2000/svg" xmlns:xlink="http://www.w3.org/1999/xlink">
<style>
<![CDATA[
@keyframes z36762k {
	from {
		stroke:#ccc;
		stroke-dashoffset:3334;
	}
	1% {
		stroke:#c00;
		stroke-dashoffset:3334;
	}
	75% {
		stroke:#c00;
		stroke-dashoffset:0;
	}
	to {
		stroke:#000;
	}
}
#z36762 path[clip-path] {
	animation:z36762k 1s linear both;
	stroke-dasharray:3334;
	stroke-width:128;
	stroke-linecap:round;
	fill:none;
}
#z36762 path[clip-path="url(#z36762c1)"] {animation-delay:1s;}
#z36762 path[clip-path="url(#z36762c2)"] {animation-delay:2s;}
#z36762 path[clip-path="url(#z36762c3)"] {animation-delay:3s;}
#z36762 path[clip-path="url(#z36762c4)"] {animation-delay:4s;}
#z36762 path[clip-path="url(#z36762c5)"] {animation-delay:5s;}
#z36762 path[clip-path="url(#z36762c6)"] {animation-delay:6s;}
#z36762 path[clip-path="url(#z36762c7)"] {animation-delay:7s;}
#z36762 path[clip-path="url(#z36762c8)"] {animation-delay:8s;}
#z36762 path[clip-path="url(#z36762c9)"] {animation-delay:9s;}
#z36762 path[clip-path="url(#z36762c10)"] {animation-delay:10s;}
#z36762 path[clip-path="url(#z36762c11)"] {animation-delay:11s;}
#z36762 path[clip-path="url(#z36762c12)"] {animation-delay:12s;}
#z36762 path[clip-path="url(#z36762c13)"] {animation-delay:13s;}
#z36762 path[clip-path="url(#z36762c14)"] {animation-delay:14s;}
#z36762 path[clip-path="url(#z36762c15)"] {animation-delay:15s;}
#z36762 path[clip-path="url(#z36762c16)"] {animation-delay:16s;}
#z36762 path {fill:#ccc;}
]]>
</style>
<path id="z36762d1" d="M262 309Q422 264 424 263Q431 256 427 247Q420 237 392 230Q365 226 284 256L235 271Q190 281 140 288Q104 295 130 310Q172 328 219 319L262 309 Z"/>
<path id="z36762d2" d="M333 502Q366 493 396 492Q424 489 416 476Q407 463 390 456Q378 452 335 466L289 477Q252 484 212 493Q197 494 195 492Q194 491 196 479Q224 401 262 309L284 256Q320 169 339 151Q351 139 335 120Q310 95 289 82Q276 75 266 77Q259 81 264 103Q274 136 235 271L219 319Q165 457 129 494Q114 510 119 525Q126 544 137 555Q146 564 156 559Q190 540 277 515Q281 514 288 513L333 502 Z"/>
<path id="z36762d3" d="M282 642Q275 771 263 805Q251 838 285 892Q295 910 304 914Q314 915 320 903Q333 872 330 843Q329 723 330 619L330 587Q330 545 333 502L335 466Q336 424 342 403Q345 391 338 385Q316 366 297 356Q285 352 276 359Q270 362 277 372Q287 390 289 477L288 513Q287 552 285 600Q284 601 284 603L282 642 Z"/>
<path id="z36762d4" d="M330 619Q334 615 342 613Q394 588 393 572Q389 568 376 570Q354 577 330 587L284 603Q209 627 127 653Q109 660 80 659Q68 660 66 671Q65 684 74 691Q96 706 128 723Q138 724 149 717Q188 684 282 642L330 619 Z"/>
<path id="z36762d5" d="M495 198Q534 246 544 248Q551 249 557 239Q563 229 559 205Q558 192 538 179Q492 155 480 158Q476 159 475 170Q476 179 495 198 Z"/>
<path id="z36762d6" d="M732 144Q716 169 680 209Q674 215 679 221Q685 222 692 219Q761 179 793 166Q809 162 806 153Q802 140 786 122Q771 106 752 103Q739 103 739 119Q740 131 732 144 Z"/>
<path id="z36762d7" d="M649 310Q709 298 796 286Q806 287 813 276Q814 266 794 256Q755 241 701 258Q671 264 642 273Q641 273 640 274L606 282Q563 289 451 306Q426 310 446 325Q477 347 510 338Q540 329 577 325L649 310 Z"/>
<path id="z36762d8" d="M640 274Q643 159 667 109Q673 100 663 88Q612 51 588 59Q575 63 581 76Q606 116 605 182Q606 237 606 282L603 366Q594 453 607 477Q608 478 610 482Q619 497 632 489Q641 482 642 424Q639 379 639 328L640 274 Z"/>
<path id="z36762d9" d="M577 325Q558 382 441 459Q428 468 440 470Q468 473 528 438Q552 420 578 395Q591 380 603 366L604 320L577 325 Z"/>
<path id="z36762d10" d="M639 328Q691 386 749 441Q768 459 799 458Q854 457 910 443Q925 440 926 436Q927 430 915 427Q881 417 843 409Q762 391 653 312Q650 311 649 310L639 313L639 328 Z"/>
<path id="z36762d11" d="M489 572Q507 542 528 526Q534 520 532 511Q531 504 514 488Q498 475 486 474Q474 474 479 488Q488 533 373 661Q366 667 365 671Q362 678 371 677Q405 670 476 587L489 572 Z"/>
<path id="z36762d12" d="M484 720Q481 723 479 727Q439 784 370 839Q352 849 368 849Q470 840 579 638Q597 604 608 595Q618 588 613 579Q610 570 571 553Q562 549 545 557Q527 564 489 572L476 587Q483 593 504 590Q541 584 544 589Q551 619 498 701L484 720 Z"/>
<path id="z36762d13" d="M498 701Q492 677 475 667Q451 651 440 647Q434 644 433 652Q430 658 464 706Q473 718 484 720L498 701 Z"/>
<path id="z36762d14" d="M787 575Q812 568 838 563Q863 557 867 553Q874 547 870 541Q866 532 843 527Q816 521 790 535L737 551Q703 560 661 564Q634 568 654 581Q679 596 738 586L787 575 Z"/>
<path id="z36762d15" d="M785 707Q812 701 903 700Q921 701 927 691Q931 682 915 673Q861 642 808 663Q801 663 785 669L737 680Q706 687 679 696Q655 705 661 683Q670 649 678 635Q685 628 681 618Q675 611 646 597Q633 590 623 596Q616 603 623 614Q647 654 608 706Q596 710 599 728Q602 738 616 748Q626 755 637 745Q682 720 737 715L785 707 Z"/>
<path id="z36762d16" d="M740 935Q744 957 751 966Q755 972 762 970Q774 961 781 910Q788 853 786 797Q785 772 785 707L785 669Q785 627 787 575L790 535Q790 534 791 533Q794 517 796 503Q799 487 787 479Q759 460 745 458Q735 454 720 461Q713 468 719 478Q737 523 737 551L738 586Q738 628 737 680L737 715Q737 911 740 935 Z"/>
<defs>
	<clipPath id="z36762c1"><use xlink:href="#z36762d1"/></clipPath>
	<clipPath id="z36762c2"><use xlink:href="#z36762d2"/></clipPath>
	<clipPath id="z36762c3"><use xlink:href="#z36762d3"/></clipPath>
	<clipPath id="z36762c4"><use xlink:href="#z36762d4"/></clipPath>
	<clipPath id="z36762c5"><use xlink:href="#z36762d5"/></clipPath>
	<clipPath id="z36762c6"><use xlink:href="#z36762d6"/></clipPath>
	<clipPath id="z36762c7"><use xlink:href="#z36762d7"/></clipPath>
	<clipPath id="z36762c8"><use xlink:href="#z36762d8"/></clipPath>
	<clipPath id="z36762c9"><use xlink:href="#z36762d9"/></clipPath>
	<clipPath id="z36762c10"><use xlink:href="#z36762d10"/></clipPath>
	<clipPath id="z36762c11"><use xlink:href="#z36762d11"/></clipPath>
	<clipPath id="z36762c12"><use xlink:href="#z36762d12"/></clipPath>
	<clipPath id="z36762c13"><use xlink:href="#z36762d13"/></clipPath>
	<clipPath id="z36762c14"><use xlink:href="#z36762d14"/></clipPath>
	<clipPath id="z36762c15"><use xlink:href="#z36762d15"/></clipPath>
	<clipPath id="z36762c16"><use xlink:href="#z36762d16"/></clipPath>
</defs>
<path pathLength="3333" clip-path="url(#z36762c1)" d="M126 297L425 253"/>
<path pathLength="3333" clip-path="url(#z36762c2)" d="M270 85L303 145L158 511L173 526L411 475"/>
<path pathLength="3333" clip-path="url(#z36762c3)" d="M282 364L313 401L295 823L309 909"/>
<path pathLength="3333" clip-path="url(#z36762c4)" d="M71 671L132 687L384 576"/>
<path pathLength="3333" clip-path="url(#z36762c5)" d="M484 166L534 207L544 243"/>
<path pathLength="3333" clip-path="url(#z36762c6)" d="M750 107L768 151L686 213"/>
<path pathLength="3333" clip-path="url(#z36762c7)" d="M445 314L808 273"/>
<path pathLength="3333" clip-path="url(#z36762c8)" d="M586 65L634 111L627 487"/>
<path pathLength="3333" clip-path="url(#z36762c9)" d="M597 327L536 409L441 465"/>
<path pathLength="3333" clip-path="url(#z36762c10)" d="M646 320L770 419L916 435"/>
<path pathLength="3333" clip-path="url(#z36762c11)" d="M485 480L502 522L374 667"/>
<path pathLength="3333" clip-path="url(#z36762c12)" d="M485 584L554 572L574 603L484 751L370 843"/>
<path pathLength="3333" clip-path="url(#z36762c13)" d="M441 656L481 713"/>
<path pathLength="3333" clip-path="url(#z36762c14)" d="M656 573L867 546"/>
<path pathLength="3333" clip-path="url(#z36762c15)" d="M628 602L656 630L639 723L826 679L921 687"/>
<path pathLength="3333" clip-path="url(#z36762c16)" d="M725 466L764 505L759 962"/>
</svg>