<!--
AnimCJK 2016-2017 Copyright Francois Mizessyn, http://gooo.free.fr/animCJK/
Derived from:
    MakeMeAHanzi project - https://github.com/skishore/makemeahanzi
    Arphic PL KaitiM GB - https://apps.ubuntu.com/cat/applications/precise/fonts-arphic-gkai00mp/
    Arphic PL UKai - https://apps.ubuntu.com/cat/applications/fonts-arphic-ukai/
You can redistribute and/or modify this file under the terms of the Arphic Public License
as published by Arphic Technology Co., Ltd.
You should have received a copy of this license (the directory "APL") along with this file;
if not, see http://ftp.gnu.org/non-gnu/chinese-fonts-truetype/LICENSE.
-->
<svg id="z36767" class="acjk" version="1.1" viewBox="0 0 1024 1024" xmlns="http://www.w3.org/2000/svg" xmlns:xlink="http://www.w3.org/1999/xlink">
<style>
<![CDATA[
	@keyframes z36767k {
		from {
			stroke:#c00;
			stroke-dashoffset:3000;
		}
		75% {
			stroke:#c00;
			stroke-dashoffset:0;
		}
		to {
			stroke:#000;
		}
	}
	#z36767 path[clip-path] {
		animation:z36767k 1s linear both;
		stroke-dasharray:3000;
		stroke-width:128;
		stroke-linecap:round;
		fill:none;
	}
	#z36767 path[clip-path="url(#z36767c1)"] {animation-delay:1s;}
	#z36767 path[clip-path="url(#z36767c2)"] {animation-delay:2s;}
	#z36767 path[clip-path="url(#z36767c3)"] {animation-delay:3s;}
	#z36767 path[clip-path="url(#z36767c4)"] {animation-delay:4s;}
	#z36767 path[clip-path="url(#z36767c5)"] {animation-delay:5s;}
	#z36767 path[clip-path="url(#z36767c6)"] {animation-delay:6s;}
	#z36767 path[clip-path="url(#z36767c7)"] {animation-delay:7s;}
	#z36767 path[clip-path="url(#z36767c8)"] {animation-delay:8s;}
	#z36767 path[clip-path="url(#z36767c9)"] {animation-delay:9s;}
	#z36767 path[clip-path="url(#z36767c10)"] {animation-delay:10s;}
	#z36767 path[clip-path="url(#z36767c11)"] {animation-delay:11s;}
	#z36767 path[clip-path="url(#z36767c12)"] {animation-delay:12s;}
	#z36767 path[clip-path="url(#z36767c13)"] {animation-delay:13s;}
	#z36767 path {fill:#ccc;}
]]>
</style>
<g transform="scale(1,-1) translate(0,-900)">
	<path id="z36767d1" d="M442 562Q466 628 494 652Q510 670 495 687Q479 699 428 721Q410 728 343 698Q301 686 260 673L272 641Q279 642 291 647Q400 671 404 668Q416 656 394 566L442 562Z"/>
	<path id="z36767d2" d="M247 497Q257 494 271 498Q329 514 457 529Q467 530 469 540Q469 547 442 562L394 566Q393 566 391 565Q313 543 252 530L247 497Z"/>
	<path id="z36767d3" d="M260 673Q218 706 199 698Q189 691 194 679Q233 616 171 371Q164 349 157 327Q133 263 55 136Q51 130 48 125Q45 115 55 117Q91 124 161 236Q170 252 179 270Q194 301 207 337L222 386Q241 470 247 497L252 530Q253 540 255 549Q264 634 272 641L260 673Z"/>
	<path id="z36767d4" d="M207 337Q225 283 235 203Q236 172 253 151Q269 130 275 145Q284 166 277 211L272 245Q262 329 260 353L244 380Q235 384 222 386L207 337Z"/>
	<path id="z36767d5" d="M434 265Q450 331 470 353Q492 378 469 392Q450 404 423 421Q404 431 386 420Q347 398 244 380L260 353Q266 354 276 356Q321 365 359 372Q384 376 391 366Q398 362 393 329Q389 302 384 271L434 265Z"/>
	<path id="z36767d6" d="M277 211Q283 211 291 213Q340 223 444 233Q454 234 456 244Q456 251 434 265L384 271Q381 272 379 271Q319 255 272 245L277 211Z"/>
	<path id="z36767d7" d="M630 797Q655 778 681 753Q697 740 713 741Q723 742 729 756Q733 772 722 803Q709 836 623 847Q607 851 600 847Q594 843 597 829Q601 819 630 797Z"/>
	<path id="z36767d8" d="M532 646Q495 639 523 623Q568 599 623 616Q711 638 804 661Q846 673 852 679Q861 688 856 696Q849 708 818 714Q787 718 756 705Q710 686 657 671Q600 656 532 646Z"/>
	<path id="z36767d9" d="M541 542Q577 466 598 458Q610 454 620 468Q624 480 621 500Q608 539 552 564Q545 568 540 558Q537 551 541 542Z"/>
	<path id="z36767d10" d="M725 462Q746 492 768 529Q778 545 795 566Q808 576 802 587Q793 603 767 623Q754 633 738 628Q728 624 733 613Q742 579 690 465Q687 459 685 452L725 462Z"/>
	<path id="z36767d11" d="M685 452Q598 434 498 413Q479 409 494 395Q524 373 565 385Q592 394 621 400L671 412Q713 430 897 442Q945 446 949 453Q953 463 938 475Q890 505 835 490Q790 478 725 462L685 452Z"/>
	<path id="z36767d12" d="M643 288Q576 276 498 260Q479 257 494 243Q507 231 524 228Q543 224 557 229Q597 242 643 250L701 260Q765 270 861 275Q906 275 913 285Q917 295 902 307Q845 340 787 321Q750 312 702 300L643 288Z"/>
	<path id="z36767d13" d="M621 400Q622 399 624 396Q642 365 642 304Q642 298 643 288L643 250Q643 -33 655 -55Q655 -58 658 -61Q664 -68 671 -66Q698 -48 698 155Q698 195 701 260L702 300Q702 312 706 340Q713 385 701 394Q683 406 671 412L621 400Z"/>
	<defs>
		<clipPath id="z36767c1"><use xlink:href="#z36767d1"/></clipPath>
		<clipPath id="z36767c2"><use xlink:href="#z36767d2"/></clipPath>
		<clipPath id="z36767c3"><use xlink:href="#z36767d3"/></clipPath>
		<clipPath id="z36767c4"><use xlink:href="#z36767d4"/></clipPath>
		<clipPath id="z36767c5"><use xlink:href="#z36767d5"/></clipPath>
		<clipPath id="z36767c6"><use xlink:href="#z36767d6"/></clipPath>
		<clipPath id="z36767c7"><use xlink:href="#z36767d7"/></clipPath>
		<clipPath id="z36767c8"><use xlink:href="#z36767d8"/></clipPath>
		<clipPath id="z36767c9"><use xlink:href="#z36767d9"/></clipPath>
		<clipPath id="z36767c10"><use xlink:href="#z36767d10"/></clipPath>
		<clipPath id="z36767c11"><use xlink:href="#z36767d11"/></clipPath>
		<clipPath id="z36767c12"><use xlink:href="#z36767d12"/></clipPath>
		<clipPath id="z36767c13"><use xlink:href="#z36767d13"/></clipPath>
	</defs>
	<path pathLength="2999" clip-path="url(#z36767c1)" d="M265 672L403 695L439 682L453 654L408 566"/>
	<path pathLength="2999" clip-path="url(#z36767c2)" d="M256 504L464 543"/>
	<path pathLength="2999" clip-path="url(#z36767c3)" d="M202 693L239 637L200 392L150 260L54 124"/>
	<path pathLength="2999" clip-path="url(#z36767c4)" d="M228 381L267 146"/>
	<path pathLength="2999" clip-path="url(#z36767c5)" d="M255 375L412 392L437 365L417 268"/>
	<path pathLength="2999" clip-path="url(#z36767c6)" d="M278 239L450 244"/>
	<path pathLength="2999" clip-path="url(#z36767c7)" d="M604 841L724 754"/>
	<path pathLength="2999" clip-path="url(#z36767c8)" d="M517 637L587 632L853 692"/>
	<path pathLength="2999" clip-path="url(#z36767c9)" d="M547 560L607 461"/>
	<path pathLength="2999" clip-path="url(#z36767c10)" d="M739 623L766 576L692 458"/>
	<path pathLength="2999" clip-path="url(#z36767c11)" d="M494 406L853 466L944 458"/>
	<path pathLength="2999" clip-path="url(#z36767c12)" d="M498 249L818 300L909 294"/>
	<path pathLength="2999" clip-path="url(#z36767c13)" d="M629 397L672 369L670 -61"/>
</g>
</svg>