<!--
AnimCJK 2016-2019 Copyright Francois Mizessyn - https://github.com/parsimonhi/animCJK
Derived from:
    MakeMeAHanzi project - https://github.com/skishore/makemeahanzi
    Arphic PL KaitiM GB font
    Arphic PL UKai font
You can redistribute and/or modify this file under the terms of the Arphic Public License
as published by Arphic Technology Co., Ltd.
You should have received a copy of this license along with this file.
If not, see http://ftp.gnu.org/non-gnu/chinese-fonts-truetype/LICENSE.
-->
<svg id="z36816" class="acjk" version="1.1" viewBox="0 0 1024 1024" xmlns="http://www.w3.org/2000/svg" xmlns:xlink="http://www.w3.org/1999/xlink">
<style>
<![CDATA[
@keyframes zk {
	to {
		stroke-dashoffset:0;
	}
}
svg.acjk path[clip-path] {
	--t:0.8s;
	animation:zk var(--t) linear forwards var(--d);
	stroke-dasharray:3337;
	stroke-dashoffset:3339;
	stroke-width:128;
	stroke-linecap:round;
	fill:none;
	stroke:#000;
}
svg.acjk path[id] {fill:#ccc;}
]]>
</style>
<path id="z36816d1" d="M509 214Q470 227 501 240Q544 256 615 234Q667 216 724 197Q752 187 755 182Q764 172 757 164Q747 152 716 149Q682 148 652 165Q622 180 589 192Q552 205 509 214Z"/>
<path id="z36816d2" d="M617 389Q617 388 619 388Q649 382 863 362Q882 361 885 353Q889 341 874 330Q819 294 762 314Q642 344 418 391Q399 394 414 409Q441 430 490 419Q521 409 562 400C599 393 599 393 617 389Z"/>
<path id="z36816d3" d="M754 560Q537 590 535 590Q534 587 538 579Q607 455 635 421Q647 406 638 399Q631 392 617 389C599 386 558 382 562 400Q562 404 564 410Q580 462 489 579Q426 628 428 639Q429 649 437 664Q447 682 459 686Q466 689 476 683Q560 631 766 579C773 578 761 559 754 560Z"/>
<path id="z36816d4" d="M766 579Q812 660 825 667Q832 670 841 662Q854 652 852 611Q852 563 725 479Q718 472 714 483Q711 495 754 560C762 573 762 573 766 579Z"/>
<path id="z36816d5" d="M284 149Q315 174 347 203Q362 215 377 214Q387 213 393 200Q397 184 387 155Q375 122 278 101Q262 98 256 101Q252 105 253 118Q257 128 284 149Z"/>
<path id="z36816d6" d="M334 703Q355 676 344 633Q337 611 310 570Q280 513 352 420Q355 414 359 411Q390 386 310 350Q288 338 271 355Q237 377 193 393Q135 415 116 411Q109 411 107 416Q106 420 114 425Q153 443 262 405Q271 402 280 414Q302 438 280 468Q232 519 274 588Q308 649 302 700C300 711 328 712 334 703Z"/>
<path id="z36816d7" d="M302 700Q259 697 212 711Q178 724 124 726Q117 726 114 735Q110 742 119 752Q135 771 159 783Q171 790 190 776Q260 727 328 743Q392 758 520 816Q745 921 824 894Q887 872 940 836Q964 820 939 820Q723 829 547 774Q480 753 401 723Q370 708 334 703C313 701 313 701 302 700Z"/>
<defs>
	<clipPath id="z36816c1"><use xlink:href="#z36816d1"/></clipPath>
	<clipPath id="z36816c2"><use xlink:href="#z36816d2"/></clipPath>
	<clipPath id="z36816c3"><use xlink:href="#z36816d3"/></clipPath>
	<clipPath id="z36816c4"><use xlink:href="#z36816d4"/></clipPath>
	<clipPath id="z36816c5"><use xlink:href="#z36816d5"/></clipPath>
	<clipPath id="z36816c6"><use xlink:href="#z36816d6"/></clipPath>
	<clipPath id="z36816c7"><use xlink:href="#z36816d7"/></clipPath>
</defs>
<path style="--d:1s;" pathLength="3333" clip-path="url(#z36816c1)" d="M494 229L755 174"/>
<path style="--d:2s;" pathLength="3333" clip-path="url(#z36816c2)" d="M415 400L795 337L881 342"/>
<path style="--d:3s;" pathLength="3333" clip-path="url(#z36816c3)" d="M632 403L588 426L484 637L760 571"/>
<path style="--d:4s;" pathLength="3333" clip-path="url(#z36816c4)" d="M720 484L811 592L835 663"/>
<path style="--d:5s;" pathLength="3333" clip-path="url(#z36816c5)" d="M260 107L352 163L384 208"/>
<path style="--d:6s;" pathLength="3333" clip-path="url(#z36816c6)" d="M119 418L286 377L325 405L278 522L322 645L315 699"/>
<path style="--d:7s;" pathLength="3333" clip-path="url(#z36816c7)" d="M120 739L167 753L257 722L340 725L754 856L943 828"/>
</svg>