<!--
AnimCJK 2016-2017 Copyright Francois Mizessyn, http://gooo.free.fr/animCJK/
Derived from:
    MakeMeAHanzi project - https://github.com/skishore/makemeahanzi
    Arphic PL KaitiM GB - https://apps.ubuntu.com/cat/applications/precise/fonts-arphic-gkai00mp/
    Arphic PL UKai - https://apps.ubuntu.com/cat/applications/fonts-arphic-ukai/
You can redistribute and/or modify this file under the terms of the Arphic Public License
as published by Arphic Technology Co., Ltd.
You should have received a copy of this license (the directory "APL") along with this file;
if not, see http://ftp.gnu.org/non-gnu/chinese-fonts-truetype/LICENSE.
-->
<svg id="z36827" class="acjk" version="1.1" viewBox="0 0 1024 1024" xmlns="http://www.w3.org/2000/svg" xmlns:xlink="http://www.w3.org/1999/xlink">
<style>
<![CDATA[
	@keyframes z36827k {
		from {
			stroke:#c00;
			stroke-dashoffset:3000;
		}
		75% {
			stroke:#c00;
			stroke-dashoffset:0;
		}
		to {
			stroke:#000;
		}
	}
	#z36827 path[clip-path] {
		animation:z36827k 1s linear both;
		stroke-dasharray:3000;
		stroke-width:128;
		stroke-linecap:round;
		fill:none;
	}
	#z36827 path[clip-path="url(#z36827c1)"] {animation-delay:1s;}
	#z36827 path[clip-path="url(#z36827c2)"] {animation-delay:2s;}
	#z36827 path[clip-path="url(#z36827c3)"] {animation-delay:3s;}
	#z36827 path[clip-path="url(#z36827c4)"] {animation-delay:4s;}
	#z36827 path[clip-path="url(#z36827c5)"] {animation-delay:5s;}
	#z36827 path[clip-path="url(#z36827c6)"] {animation-delay:6s;}
	#z36827 path[clip-path="url(#z36827c7)"] {animation-delay:7s;}
	#z36827 path {fill:#ccc;}
]]>
</style>
<g transform="scale(1,-1) translate(0,-900)">
	<path id="z36827d1" d="M703 564Q716 568 733 570Q782 580 790 587Q800 594 795 604Q788 616 758 624Q730 631 703 621L659 607Q619 597 578 586Q568 585 557 581L510 574Q471 570 431 566Q394 560 419 542Q455 523 511 527L556 535Q607 545 661 556L703 564Z"/>
	<path id="z36827d2" d="M704 398Q866 404 871 409Q871 410 872 411Q876 421 861 435Q810 471 746 454Q725 450 704 444L661 436Q577 424 545 416L500 409Q445 403 387 393Q368 390 382 375Q395 362 413 358Q423 357 488 368L537 378Q597 393 661 395L704 398Z"/>
	<path id="z36827d3" d="M557 581Q557 620 559 658Q563 676 545 683Q502 702 490 698Q474 694 488 676Q506 649 510 574L511 527Q511 458 500 409L488 368Q487 367 487 364Q471 316 406 241Q394 228 391 222Q390 215 400 217Q436 221 485 283Q512 317 537 378L545 416Q551 455 556 535L557 581Z"/>
	<path id="z36827d4" d="M644 236Q635 200 659 147Q665 131 672 129Q678 123 684 130Q691 134 700 153Q707 175 707 202Q706 229 704 398L704 444Q703 499 703 564L703 621Q704 688 716 734Q723 747 721 760Q714 767 665 797Q644 812 626 797Q622 793 628 779Q653 742 656 704Q657 659 659 607L661 556Q661 498 661 436L661 395Q661 299 644 236Z"/>
	<path id="z36827d5" d="M259 720Q284 695 311 666Q324 650 342 650Q354 650 361 665Q367 681 358 714Q354 735 322 750Q249 781 232 775Q226 771 227 757Q231 744 259 720Z"/>
	<path id="z36827d6" d="M314 173Q335 200 325 246Q318 267 292 309Q270 348 304 405Q323 439 342 459Q363 478 344 493Q323 509 288 523Q266 536 248 518Q214 493 168 475Q107 450 87 453Q80 454 78 449Q77 443 85 439Q128 421 240 464Q249 468 258 457Q279 435 257 408Q206 357 252 295Q291 229 284 176L314 173Z"/>
	<path id="z36827d7" d="M284 176Q236 179 188 162Q149 147 91 141Q84 141 81 133Q78 126 87 116Q103 97 128 86Q140 79 158 94Q231 148 305 134Q371 121 504 65Q733 -37 817 -7Q878 15 931 54Q953 70 930 70Q708 61 560 98Q479 120 377 156Q346 169 314 173L284 176Z"/>
	<defs>
		<clipPath id="z36827c1"><use xlink:href="#z36827d1"/></clipPath>
		<clipPath id="z36827c2"><use xlink:href="#z36827d2"/></clipPath>
		<clipPath id="z36827c3"><use xlink:href="#z36827d3"/></clipPath>
		<clipPath id="z36827c4"><use xlink:href="#z36827d4"/></clipPath>
		<clipPath id="z36827c5"><use xlink:href="#z36827d5"/></clipPath>
		<clipPath id="z36827c6"><use xlink:href="#z36827d6"/></clipPath>
		<clipPath id="z36827c7"><use xlink:href="#z36827d7"/></clipPath>
	</defs>
	<path pathLength="2999" clip-path="url(#z36827c1)" d="M419 554L496 549L790 598"/>
	<path pathLength="2999" clip-path="url(#z36827c2)" d="M387 381L768 430L867 424"/>
	<path pathLength="2999" clip-path="url(#z36827c3)" d="M488 692L530 654L524 420L482 311L400 226"/>
	<path pathLength="2999" clip-path="url(#z36827c4)" d="M630 796L686 738L674 132"/>
	<path pathLength="2999" clip-path="url(#z36827c5)" d="M234 771L317 712L345 655"/>
	<path pathLength="2999" clip-path="url(#z36827c6)" d="M88 446L264 494L308 465L257 352L302 240L303 175"/>
	<path pathLength="2999" clip-path="url(#z36827c7)" d="M85 130L137 116L224 151L306 154L720 32L813 30L933 63"/>
</g>
</svg>