<!--
AnimCJK 2016-2025 Copyright FM-SH - https://github.com/parsimonhi/animCJK
Derived from:
    MakeMeAHanzi project - https://github.com/skishore/makemeahanzi
    Arphic PL KaitiM GB font
    Arphic PL UKai font
You can redistribute and/or modify this file under the terms of the Arphic Public License
as published by Arphic Technology Co., Ltd.
You should have received a copy of this license along with this file.
If not, see http://ftp.gnu.org/non-gnu/chinese-fonts-truetype/LICENSE.
-->
<svg id="z36820" class="acjk" version="1.1" viewBox="0 0 1024 1024" xmlns="http://www.w3.org/2000/svg" xmlns:xlink="http://www.w3.org/1999/xlink">
<style>
<![CDATA[
@keyframes zk {
	to {
		stroke-dashoffset:0;
	}
}
svg.acjk path[clip-path] {
	--t:0.8s;
	animation:zk var(--t) linear forwards var(--d);
	stroke-dasharray:3337;
	stroke-dashoffset:3339;
	stroke-width:128;
	stroke-linecap:round;
	fill:none;
	stroke:#000;
}
svg.acjk path[id] {fill:#ccc;}
]]>
</style>
<path id="z36820d1" d="M520 249C640 210 714 180 776 168C786 165 793 164 796 160C799 153 796 145 789 139C776 127 755 117 727 106C716 101 707 98 700 100C695 101 692 106 692 114C691 133 633 172 516 230C510 232 514 251 520 249Z"/>
<path id="z36820d2" d="M511 365C516 319 514 280 520 249C521 243 522 233 516 230C497 217 466 200 445 204C432 206 432 213 442 228C459 255 466 327 454 441C444 528 391 604 339 658C330 666 323 672 322 676C320 680 325 685 332 683C464 623 494 500 509 381C510 370 510 370 511 365Z"/>
<path id="z36820d3" d="M695 565C725 506 743 467 766 400C772 380 781 363 794 351C805 339 807 329 798 321C789 313 774 307 753 301C741 297 705 311 643 332C597 346 531 361 511 365C506 366 504 379 509 381C533 393 564 393 603 380C650 363 677 352 686 353C702 353 708 362 706 381C696 439 682 486 653 538C645 550 637 561 629 573C584 628 536 654 467 680C458 683 458 688 466 693C470 695 485 700 510 695C566 683 611 656 665 606C677 594 687 579 695 565Z"/>
<path id="z36820d4" d="M665 606C707 644 754 686 801 736C812 747 820 756 830 758C834 758 839 756 845 750C851 741 855 721 843 698C806 631 742 595 695 565C667 547 667 547 653 538C611 511 577 492 553 480C547 477 543 479 543 487C542 494 546 502 553 508C576 528 602 549 629 573C653 595 653 595 665 606Z"/>
<path id="z36820d5" d="M237 183C258 198 278 216 301 236C311 244 323 248 335 248C343 247 349 242 352 232C354 220 352 203 345 181C340 166 326 153 302 146C246 128 213 123 204 129C199 131 198 138 201 148C203 156 216 167 237 183Z"/>
<path id="z36820d6" d="M286 706C294 701 300 693 303 681C309 655 298 618 272 571C257 545 261 512 287 474C298 458 318 433 332 420C345 406 347 396 335 386C321 375 302 365 280 355C265 347 248 352 226 368C183 397 124 420 91 423C77 424 81 433 89 437C116 449 164 441 232 413C236 410 242 411 248 417C262 432 256 447 244 469C214 517 208 538 233 589C260 645 266 684 262 702C261 702 260 703 260 705C256 713 279 711 286 706Z"/>
<path id="z36820d7" d="M260 705C220 705 195 712 176 719C154 726 120 736 83 739C78 739 75 742 73 748C70 752 71 758 78 765C89 777 104 786 120 794C128 797 137 794 150 786C198 750 246 737 292 747C338 756 407 782 500 824C648 891 752 922 813 910C816 909 819 907 824 906C866 892 904 871 940 847C955 836 955 832 939 832C775 832 652 820 571 797C511 780 441 758 365 727C337 716 320 712 286 706C277 704 268 704 260 705Z"/>
<defs>
	<clipPath id="z36820c1"><use xlink:href="#z36820d1"/></clipPath>
	<clipPath id="z36820c2"><use xlink:href="#z36820d2"/></clipPath>
	<clipPath id="z36820c3"><use xlink:href="#z36820d3"/></clipPath>
	<clipPath id="z36820c4"><use xlink:href="#z36820d4"/></clipPath>
	<clipPath id="z36820c5"><use xlink:href="#z36820d5"/></clipPath>
	<clipPath id="z36820c6"><use xlink:href="#z36820d6"/></clipPath>
	<clipPath id="z36820c7"><use xlink:href="#z36820d7"/></clipPath>
</defs>
<path style="--d:1s;" pathLength="3333" clip-path="url(#z36820c1)" d="M702 103L740 151L517 240"/>
<path style="--d:2s;" pathLength="3333" clip-path="url(#z36820c2)" d="M443 214L488 255L470 475L424 582L331 677"/>
<path style="--d:3s;" pathLength="3333" clip-path="url(#z36820c3)" d="M514 375L722 330L755 351L654 581L570 653L467 689"/>
<path style="--d:4s;" pathLength="3333" clip-path="url(#z36820c4)" d="M550 485L775 663L837 750"/>
<path style="--d:5s;" pathLength="3333" clip-path="url(#z36820c5)" d="M206 137L310 193L338 243"/>
<path style="--d:6s;" pathLength="3333" clip-path="url(#z36820c6)" d="M88 428L239 385L298 410L240 533L281 657L268 704"/>
<path style="--d:7s;" pathLength="3333" clip-path="url(#z36820c7)" d="M76 752L128 763L284 725L744 867L943 839"/>
</svg>