<!--
AnimCJK 2016-2017 Copyright Francois Mizessyn, http://gooo.free.fr/animCJK/
Derived from:
    MakeMeAHanzi project - https://github.com/skishore/makemeahanzi
    Arphic PL KaitiM GB - https://apps.ubuntu.com/cat/applications/precise/fonts-arphic-gkai00mp/
    Arphic PL UKai - https://apps.ubuntu.com/cat/applications/fonts-arphic-ukai/
You can redistribute and/or modify this file under the terms of the Arphic Public License
as published by Arphic Technology Co., Ltd.
You should have received a copy of this license (the directory "APL") along with this file;
if not, see http://ftp.gnu.org/non-gnu/chinese-fonts-truetype/LICENSE.
-->
<svg id="z36829" class="acjk" version="1.1" viewBox="0 0 1024 1024" xmlns="http://www.w3.org/2000/svg" xmlns:xlink="http://www.w3.org/1999/xlink">
<style>
<![CDATA[
	@keyframes z36829k {
		from {
			stroke:#c00;
			stroke-dashoffset:3000;
		}
		75% {
			stroke:#c00;
			stroke-dashoffset:0;
		}
		to {
			stroke:#000;
		}
	}
	#z36829 path[clip-path] {
		animation:z36829k 1s linear both;
		stroke-dasharray:3000;
		stroke-width:128;
		stroke-linecap:round;
		fill:none;
	}
	#z36829 path[clip-path="url(#z36829c1)"] {animation-delay:1s;}
	#z36829 path[clip-path="url(#z36829c2)"] {animation-delay:2s;}
	#z36829 path[clip-path="url(#z36829c3)"] {animation-delay:3s;}
	#z36829 path[clip-path="url(#z36829c4)"] {animation-delay:4s;}
	#z36829 path[clip-path="url(#z36829c5)"] {animation-delay:5s;}
	#z36829 path[clip-path="url(#z36829c6)"] {animation-delay:6s;}
	#z36829 path[clip-path="url(#z36829c7)"] {animation-delay:7s;}
	#z36829 path {fill:#ccc;}
]]>
</style>
<g transform="scale(1,-1) translate(0,-900)">
	<path id="z36829d1" d="M625 607Q772 643 775 645Q784 652 779 661Q772 671 744 679Q714 685 686 673Q656 663 626 654L577 641Q522 631 461 624Q425 618 451 602Q490 578 547 591Q559 595 576 597L625 607Z"/>
	<path id="z36829d2" d="M623 495Q759 528 763 530Q770 537 767 545Q760 555 734 563Q707 567 623 539L574 526Q522 516 464 510Q431 504 455 489Q491 471 557 482Q563 483 573 485L623 495Z"/>
	<path id="z36829d3" d="M622 394Q778 421 796 404Q802 398 800 387Q782 297 773 286Q767 276 755 282Q721 295 683 312Q658 319 673 299Q737 233 761 189Q765 179 776 183Q801 198 835 294Q848 352 870 371Q886 390 880 398Q873 411 825 445Q809 460 766 447Q676 435 622 427L571 419Q513 412 482 402Q433 392 397 387Q375 384 371 375Q370 368 386 359Q417 338 448 351Q490 367 570 385L622 394Z"/>
	<path id="z36829d4" d="M622 427Q621 458 623 495L623 539Q623 570 625 607L626 654Q626 726 640 787Q643 805 629 814Q598 836 582 838Q569 842 554 834Q545 827 552 816Q576 771 578 698Q577 671 577 641L576 597Q575 563 574 526L573 485Q572 454 571 419L570 385Q555 145 582 103Q588 96 595 98Q613 110 616 165Q620 214 622 394L622 427Z"/>
	<path id="z36829d5" d="M260 721Q285 699 313 673Q329 658 347 660Q359 661 364 676Q368 694 358 727Q346 758 253 775Q235 779 228 775Q222 771 225 756Q229 743 260 721Z"/>
	<path id="z36829d6" d="M314 170Q327 180 334 198Q352 243 304 317Q274 369 336 449Q343 462 354 471Q376 490 356 505Q335 521 301 535Q279 548 261 531Q225 506 180 490Q119 466 100 470Q93 470 90 465Q89 461 97 456Q139 435 251 477Q261 480 270 469Q292 447 270 418Q219 364 264 303Q297 245 293 207Q290 183 283 170L314 170Z"/>
	<path id="z36829d7" d="M283 170Q247 171 212 160Q169 144 104 138Q97 137 93 129Q90 122 99 112Q115 93 140 81Q150 75 170 89Q263 152 363 117Q415 99 502 57Q707 -46 784 -21Q847 -2 901 35Q925 50 900 51Q708 45 528 100Q470 119 401 147Q358 166 314 170L283 170Z"/>
	<defs>
		<clipPath id="z36829c1"><use xlink:href="#z36829d1"/></clipPath>
		<clipPath id="z36829c2"><use xlink:href="#z36829d2"/></clipPath>
		<clipPath id="z36829c3"><use xlink:href="#z36829d3"/></clipPath>
		<clipPath id="z36829c4"><use xlink:href="#z36829d4"/></clipPath>
		<clipPath id="z36829c5"><use xlink:href="#z36829d5"/></clipPath>
		<clipPath id="z36829c6"><use xlink:href="#z36829d6"/></clipPath>
		<clipPath id="z36829c7"><use xlink:href="#z36829d7"/></clipPath>
	</defs>
	<path pathLength="2999" clip-path="url(#z36829c1)" d="M449 615L532 611L774 660"/>
	<path pathLength="2999" clip-path="url(#z36829c2)" d="M452 501L760 544"/>
	<path pathLength="2999" clip-path="url(#z36829c3)" d="M378 375L805 429L840 386L780 242L762 232L676 308"/>
	<path pathLength="2999" clip-path="url(#z36829c4)" d="M558 825L603 791L593 104"/>
	<path pathLength="2999" clip-path="url(#z36829c5)" d="M233 766L321 716L355 668"/>
	<path pathLength="2999" clip-path="url(#z36829c6)" d="M99 464L272 505L320 479L268 357L316 225L292 175"/>
	<path pathLength="2999" clip-path="url(#z36829c7)" d="M97 126L148 112L314 150L694 22L783 15L906 44"/>
</g>
</svg>