<!--
AnimCJK 2016-2018 Copyright Francois Mizessyn, http://gooo.free.fr/animCJK/
Derived from:
    MakeMeAHanzi project - https://github.com/skishore/makemeahanzi
    Arphic PL KaitiM GB - https://apps.ubuntu.com/cat/applications/precise/fonts-arphic-gkai00mp/
    Arphic PL UKai - https://apps.ubuntu.com/cat/applications/fonts-arphic-ukai/
You can redistribute and/or modify this file under the terms of the Arphic Public License
as published by Arphic Technology Co., Ltd.
You should have received a copy of this license (the directory "APL") along with this file;
if not, see http://ftp.gnu.org/non-gnu/chinese-fonts-truetype/LICENSE.
-->
<svg id="z36834" class="acjk" version="1.1" viewBox="0 0 1024 1024" xmlns="http://www.w3.org/2000/svg" xmlns:xlink="http://www.w3.org/1999/xlink">
<style>
<![CDATA[
@keyframes z36834k {
	from {
		stroke:#ccc;
		stroke-dashoffset:3334;
	}
	1% {
		stroke:#c00;
		stroke-dashoffset:3334;
	}
	75% {
		stroke:#c00;
		stroke-dashoffset:0;
	}
	to {
		stroke:#000;
	}
}
#z36834 path[clip-path] {
	animation:z36834k 1s linear both;
	stroke-dasharray:3334;
	stroke-width:128;
	stroke-linecap:round;
	fill:none;
}
#z36834 path[clip-path="url(#z36834c1)"] {animation-delay:1s;}
#z36834 path[clip-path="url(#z36834c2)"] {animation-delay:2s;}
#z36834 path[clip-path="url(#z36834c3)"] {animation-delay:3s;}
#z36834 path[clip-path="url(#z36834c4)"] {animation-delay:4s;}
#z36834 path[clip-path="url(#z36834c5)"] {animation-delay:5s;}
#z36834 path[clip-path="url(#z36834c6)"] {animation-delay:6s;}
#z36834 path[clip-path="url(#z36834c7)"] {animation-delay:7s;}
#z36834 path[clip-path="url(#z36834c8)"] {animation-delay:8s;}
#z36834 path {fill:#ccc;}
]]>
</style>
<path id="z36834d1" d="M575 201Q650 183 710 177Q731 176 735 181Q742 193 737 222Q727 303 707 337Q688 371 658 364Q628 357 603 347Q578 340 596 363Q642 406 665 439Q680 458 697 445Q745 415 775 326Q806 200 820 186Q833 173 828 161Q819 149 766 123Q744 113 724 126Q700 139 608 157Q517 178 439 181Q420 181 417 190Q414 199 440 212Q465 230 487 222Q511 215 534 210L575 201 Z"/>
<path id="z36834d2" d="M534 210Q543 295 396 467Q384 474 384 485Q384 489 389 489Q458 474 567 300Q571 279 598 250Q604 240 596 227Q586 211 575 201L534 210 Z"/>
<path id="z36834d3" d="M460 522Q450 518 432 515Q420 512 417 517Q410 523 419 539Q447 600 464 699Q467 729 484 748Q502 770 507 755Q511 742 511 722L507 688Q489 585 487 555L460 522 Z"/>
<path id="z36834d4" d="M735 666Q765 585 800 558Q818 540 804 521Q788 506 735 478Q716 469 694 477Q589 513 460 522L487 555Q494 554 673 527Q695 523 703 532Q712 542 709 561Q696 618 682 663L735 666 Z"/>
<path id="z36834d5" d="M511 722Q523 725 538 724Q605 712 753 708Q765 707 766 698Q767 689 736 666L735 666L682 663Q582 682 507 688L511 722 Z"/>
<path id="z36834d6" d="M239 181Q267 206 299 235Q315 248 332 247Q344 246 349 232Q353 216 343 183Q331 149 232 129Q216 125 208 129Q202 133 205 147Q209 160 239 181 Z"/>
<path id="z36834d7" d="M308 721Q315 714 318 699Q324 659 278 576Q245 519 331 432Q355 413 335 396Q314 380 278 363Q256 348 236 366Q202 388 160 403Q102 425 84 422Q77 421 74 426Q73 432 81 436Q121 458 224 422Q234 419 243 431Q262 453 241 478Q193 524 229 580Q283 674 277 719L308 721 Z"/>
<path id="z36834d8" d="M277 719Q234 716 188 731Q151 744 97 746Q90 746 86 755Q82 762 91 772Q107 791 131 803Q143 810 162 796Q235 747 305 763Q369 776 500 833Q716 930 805 908Q806 907 809 907Q870 885 923 846Q947 830 922 831Q700 840 524 791Q457 770 377 741Q343 726 308 721L277 719 Z"/>
<defs>
	<clipPath id="z36834c1"><use xlink:href="#z36834d1"/></clipPath>
	<clipPath id="z36834c2"><use xlink:href="#z36834d2"/></clipPath>
	<clipPath id="z36834c3"><use xlink:href="#z36834d3"/></clipPath>
	<clipPath id="z36834c4"><use xlink:href="#z36834d4"/></clipPath>
	<clipPath id="z36834c5"><use xlink:href="#z36834d5"/></clipPath>
	<clipPath id="z36834c6"><use xlink:href="#z36834d6"/></clipPath>
	<clipPath id="z36834c7"><use xlink:href="#z36834d7"/></clipPath>
	<clipPath id="z36834c8"><use xlink:href="#z36834d8"/></clipPath>
</defs>
<path pathLength="3333" clip-path="url(#z36834c1)" d="M424 191L480 201L737 149L778 170L746 320L706 389L666 405L596 353"/>
<path pathLength="3333" clip-path="url(#z36834c2)" d="M539 215L564 252L540 298L391 482"/>
<path pathLength="3333" clip-path="url(#z36834c3)" d="M422 525L460 566L496 755"/>
<path pathLength="3333" clip-path="url(#z36834c4)" d="M468 524L726 508L759 542L692 661"/>
<path pathLength="3333" clip-path="url(#z36834c5)" d="M515 695L761 695"/>
<path pathLength="3333" clip-path="url(#z36834c6)" d="M211 138L302 189L341 237"/>
<path pathLength="3333" clip-path="url(#z36834c7)" d="M82 428L248 392L295 424L242 529L293 719"/>
<path pathLength="3333" clip-path="url(#z36834c8)" d="M90 759L138 773L242 740L315 743L575 834L744 869L926 835"/>
</svg>