<!--
AnimCJK 2016-2018 Copyright Francois Mizessyn - https://github.com/parsimonhi/animCJK
Derived from:
    MakeMeAHanzi project - https://github.com/skishore/makemeahanzi
    Arphic PL KaitiM GB - https://apps.ubuntu.com/cat/applications/precise/fonts-arphic-gkai00mp/
    Arphic PL UKai - https://apps.ubuntu.com/cat/applications/fonts-arphic-ukai/
You can redistribute and/or modify this file under the terms of the Arphic Public License
as published by Arphic Technology Co., Ltd.
You should have received a copy of this license (the directory "APL") along with this file;
if not, see http://ftp.gnu.org/non-gnu/chinese-fonts-truetype/LICENSE.
-->
<svg id="z36873" class="acjk" version="1.1" viewBox="0 0 1024 1024" xmlns="http://www.w3.org/2000/svg" xmlns:xlink="http://www.w3.org/1999/xlink">
<style>
<![CDATA[
@keyframes z36873k {
	from {
		stroke:#ccc;
		stroke-dashoffset:3334;
	}
	1% {
		stroke:#c00;
		stroke-dashoffset:3334;
	}
	75% {
		stroke:#c00;
		stroke-dashoffset:0;
	}
	to {
		stroke:#000;
	}
}
#z36873 path[clip-path] {
	animation:z36873k 1s linear both;
	stroke-dasharray:3334;
	stroke-width:128;
	stroke-linecap:round;
	fill:none;
}
#z36873 path[clip-path="url(#z36873c1)"] {animation-delay:1s;}
#z36873 path[clip-path="url(#z36873c2)"] {animation-delay:2s;}
#z36873 path[clip-path="url(#z36873c3)"] {animation-delay:3s;}
#z36873 path[clip-path="url(#z36873c4)"] {animation-delay:4s;}
#z36873 path[clip-path="url(#z36873c5)"] {animation-delay:5s;}
#z36873 path[clip-path="url(#z36873c6)"] {animation-delay:6s;}
#z36873 path[clip-path="url(#z36873c7)"] {animation-delay:7s;}
#z36873 path[clip-path="url(#z36873c8)"] {animation-delay:8s;}
#z36873 path[clip-path="url(#z36873c9)"] {animation-delay:9s;}
#z36873 path {fill:#ccc;}
]]>
</style>
<path id="z36873d1" d="M489 313Q504 286 518 266Q525 254 513 243Q473 218 453 222Q444 223 447 237Q462 297 405 376Q392 395 384 406Q378 419 391 414Q427 408 479 330C486 319 486 319 489 313 Z"/>
<path id="z36873d2" d="M637 325Q677 312 723 302Q756 292 760 287Q769 280 764 271Q757 261 728 255Q697 251 641 275C606 286 606 286 589 292Q546 304 495 311Q491 311 489 313C483 315 473 328 479 330Q525 351 590 337C621 329 621 329 637 325 Z"/>
<path id="z36873d3" d="M629 431Q633 376 637 325C640 292 640 292 641 275Q644 196 661 137Q665 127 645 111Q611 92 588 89Q572 85 564 94Q557 101 565 116Q584 143 584 162Q588 223 589 292C590 322 590 322 590 337Q590 386 588 440C588 454 629 445 629 431 Z"/>
<path id="z36873d4" d="M645 466Q712 456 807 453Q858 453 864 443Q868 433 853 421Q801 385 740 406Q694 415 629 431C602 437 602 437 588 440Q494 456 386 476Q367 479 382 493Q395 505 411 509Q430 513 445 508Q473 498 504 492C519 489 519 489 527 487Q576 472 611 472C634 468 634 468 645 466 Z"/>
<path id="z36873d5" d="M504 492Q503 495 504 501Q516 601 379 728Q373 735 379 738Q401 742 462 696Q516 657 556 562Q563 547 572 532Q579 525 574 515Q562 496 527 487C519 485 504 484 504 492 Z"/>
<path id="z36873d6" d="M911 701Q898 673 877 585Q876 570 869 566Q863 563 860 580Q839 674 824 704Q803 726 735 724Q708 723 689 714Q671 705 666 694Q648 651 675 509Q681 487 645 466C635 460 609 461 611 472Q611 476 613 482Q625 519 621 554Q608 714 640 745Q703 796 835 772Q839 771 845 770Q876 763 907 741Q925 726 911 701 Z"/>
<path id="z36873d7" d="M241 193Q269 218 297 248Q312 263 330 263Q342 262 348 247Q354 231 345 196Q333 162 237 138Q219 134 212 137Q206 141 208 156Q212 169 241 193 Z"/>
<path id="z36873d8" d="M307 733Q325 702 316 669Q309 650 284 611Q260 571 293 507Q312 465 331 443Q352 424 331 409Q309 394 274 382Q252 370 234 389Q207 413 171 430Q123 455 106 455Q99 455 97 460Q96 466 105 469Q147 484 229 443Q238 439 247 448Q272 472 249 505Q201 560 238 615Q280 681 273 731C271 742 302 743 307 733 Z"/>
<path id="z36873d9" d="M273 731Q230 730 188 744Q154 756 104 758Q97 758 94 767Q90 774 99 784Q115 803 139 815Q151 822 170 808Q237 760 305 775Q372 788 506 845Q740 947 821 919Q882 897 935 858Q959 842 934 842Q709 851 545 808Q469 786 377 753Q343 738 307 733C284 732 284 732 273 731 Z"/>
<defs>
	<clipPath id="z36873c1"><use xlink:href="#z36873d1"/></clipPath>
	<clipPath id="z36873c2"><use xlink:href="#z36873d2"/></clipPath>
	<clipPath id="z36873c3"><use xlink:href="#z36873d3"/></clipPath>
	<clipPath id="z36873c4"><use xlink:href="#z36873d4"/></clipPath>
	<clipPath id="z36873c5"><use xlink:href="#z36873d5"/></clipPath>
	<clipPath id="z36873c6"><use xlink:href="#z36873d6"/></clipPath>
	<clipPath id="z36873c7"><use xlink:href="#z36873d7"/></clipPath>
	<clipPath id="z36873c8"><use xlink:href="#z36873d8"/></clipPath>
	<clipPath id="z36873c9"><use xlink:href="#z36873d9"/></clipPath>
</defs>
<path pathLength="3333" clip-path="url(#z36873c1)" d="M454 226L484 265L390 406"/>
<path pathLength="3333" clip-path="url(#z36873c2)" d="M486 327L762 276"/>
<path pathLength="3333" clip-path="url(#z36873c3)" d="M568 98L622 145L603 436"/>
<path pathLength="3333" clip-path="url(#z36873c4)" d="M381 483L767 427L860 434"/>
<path pathLength="3333" clip-path="url(#z36873c5)" d="M509 498L538 538L505 610L382 731"/>
<path pathLength="3333" clip-path="url(#z36873c6)" d="M619 475L648 508L644 699L695 745L788 750L865 719L866 574"/>
<path pathLength="3333" clip-path="url(#z36873c7)" d="M215 141L340 253"/>
<path pathLength="3333" clip-path="url(#z36873c8)" d="M105 461L251 410L296 437L248 565L295 687L288 731"/>
<path pathLength="3333" clip-path="url(#z36873c9)" d="M99 770L154 784L248 752L329 758L573 844L756 882L941 849"/>
</svg>