<!--
AnimCJK 2016-2017 Copyright Francois Mizessyn, https://github.com/parsimonhi/animCJK
Derived from:
    MakeMeAHanzi project - https://github.com/skishore/makemeahanzi
    Arphic PL KaitiM GB - https://apps.ubuntu.com/cat/applications/precise/fonts-arphic-gkai00mp/
    Arphic PL UKai - https://apps.ubuntu.com/cat/applications/fonts-arphic-ukai/
You can redistribute and/or modify this file under the terms of the Arphic Public License
as published by Arphic Technology Co., Ltd.
You should have received a copy of this license (the directory "APL") along with this file;
if not, see http://ftp.gnu.org/non-gnu/chinese-fonts-truetype/LICENSE.
-->
<svg id="z36891" class="acjk" version="1.1" viewBox="0 0 1024 1024" xmlns="http://www.w3.org/2000/svg" xmlns:xlink="http://www.w3.org/1999/xlink">
<style>
<![CDATA[
@keyframes z36891k {
	from {
		stroke:#c00;
		stroke-dashoffset:3334;
	}
	75% {
		stroke:#c00;
		stroke-dashoffset:0;
	}
	to {
		stroke:#000;
	}
}
#z36891 path[clip-path] {
	animation:z36891k 1s linear both;
	stroke-dasharray:3334;
	stroke-width:128;
	stroke-linecap:round;
	fill:none;
}
#z36891 path[clip-path="url(#z36891c1)"] {animation-delay:1s;}
#z36891 path[clip-path="url(#z36891c2)"] {animation-delay:2s;}
#z36891 path[clip-path="url(#z36891c3)"] {animation-delay:3s;}
#z36891 path[clip-path="url(#z36891c4)"] {animation-delay:4s;}
#z36891 path[clip-path="url(#z36891c5)"] {animation-delay:5s;}
#z36891 path[clip-path="url(#z36891c6)"] {animation-delay:6s;}
#z36891 path[clip-path="url(#z36891c7)"] {animation-delay:7s;}
#z36891 path[clip-path="url(#z36891c8)"] {animation-delay:8s;}
#z36891 path[clip-path="url(#z36891c9)"] {animation-delay:9s;}
#z36891 path[clip-path="url(#z36891c10)"] {animation-delay:10s;}
#z36891 path {fill:#ccc;}
]]>
</style>
<path id="z36891d1" d="M496 286Q509 270 521 253Q549 211 576 178Q586 166 574 151Q534 115 508 117Q498 118 498 134Q502 180 464 249L443 280Q421 313 391 340Q363 365 350 380Q340 395 356 391Q392 388 468 317L496 286 Z"/>
<path id="z36891d2" d="M502 450Q511 556 486 638Q480 653 472 656Q459 659 422 650Q397 643 393 648Q390 654 399 663Q436 691 460 718Q476 739 485 738Q506 734 531 672Q580 519 515 328Q506 306 496 286L464 249Q428 221 369 210Q356 207 356 217Q357 229 367 242Q379 255 393 253Q418 256 443 280L468 317Q478 342 488 371L502 450 Z"/>
<path id="z36891d3" d="M488 371Q451 473 326 590Q316 602 324 603Q333 607 343 601Q424 568 498 455Q498 452 502 450L488 371 Z"/>
<path id="z36891d4" d="M716 294Q845 258 849 254Q856 247 852 239Q845 229 817 224Q790 220 725 247Q668 265 618 273Q585 280 610 295Q637 307 677 305L716 294 Z"/>
<path id="z36891d5" d="M740 459Q746 456 825 441Q835 442 843 429Q843 419 821 410Q782 395 742 412L692 427Q652 434 610 444Q583 450 605 465Q638 486 673 475Q682 472 693 471L740 459 Z"/>
<path id="z36891d6" d="M737 598Q738 523 740 459L742 412Q742 376 744 341Q751 323 742 314Q729 302 716 294L677 305Q689 330 692 427L693 471Q693 525 695 607L737 598 Z"/>
<path id="z36891d7" d="M695 607Q637 617 569 629Q553 632 566 645Q593 667 623 659Q743 623 898 624L900 624Q916 624 920 616Q924 606 910 596Q862 565 807 581Q776 588 737 598L695 607 Z"/>
<path id="z36891d8" d="M200 204Q228 226 257 255Q273 268 291 268Q303 267 308 252Q314 234 302 201Q290 170 193 149Q175 145 168 149Q162 153 164 168Q168 181 200 204 Z"/>
<path id="z36891d9" d="M284 722Q296 715 301 696Q307 657 264 583Q231 528 313 446Q335 427 315 412Q296 396 260 382Q239 370 204 398Q126 449 87 447Q80 446 78 451Q77 457 85 461Q125 479 212 441Q221 437 229 446Q248 465 228 491Q180 537 224 597Q266 682 262 718Q261 719 261 720L284 722 Z"/>
<path id="z36891d10" d="M261 720Q215 719 168 735Q137 747 90 751Q84 751 80 760Q77 767 86 777Q104 795 128 806Q140 812 158 797Q215 752 285 762Q355 775 500 834Q693 915 800 916Q815 913 833 907Q894 885 947 845Q969 829 945 830Q722 839 569 805Q476 781 357 740Q320 725 284 722L261 720 Z"/>
<defs>
	<clipPath id="z36891c1"><use xlink:href="#z36891d1"/></clipPath>
	<clipPath id="z36891c2"><use xlink:href="#z36891d2"/></clipPath>
	<clipPath id="z36891c3"><use xlink:href="#z36891d3"/></clipPath>
	<clipPath id="z36891c4"><use xlink:href="#z36891d4"/></clipPath>
	<clipPath id="z36891c5"><use xlink:href="#z36891d5"/></clipPath>
	<clipPath id="z36891c6"><use xlink:href="#z36891d6"/></clipPath>
	<clipPath id="z36891c7"><use xlink:href="#z36891d7"/></clipPath>
	<clipPath id="z36891c8"><use xlink:href="#z36891d8"/></clipPath>
	<clipPath id="z36891c9"><use xlink:href="#z36891d9"/></clipPath>
	<clipPath id="z36891c10"><use xlink:href="#z36891d10"/></clipPath>
</defs>
<path pathLength="3333" clip-path="url(#z36891c1)" d="M508 121L537 170L506 227L445 311L351 383"/>
<path pathLength="3333" clip-path="url(#z36891c2)" d="M360 218L444 256L479 297L524 458L524 584L494 682L475 697L401 651"/>
<path pathLength="3333" clip-path="url(#z36891c3)" d="M487 382L480 441L442 495L326 595"/>
<path pathLength="3333" clip-path="url(#z36891c4)" d="M609 285L847 248"/>
<path pathLength="3333" clip-path="url(#z36891c5)" d="M601 453L837 427"/>
<path pathLength="3333" clip-path="url(#z36891c6)" d="M683 306L716 335L713 602"/>
<path pathLength="3333" clip-path="url(#z36891c7)" d="M567 636L833 600L916 609"/>
<path pathLength="3333" clip-path="url(#z36891c8)" d="M167 157L263 210L294 263"/>
<path pathLength="3333" clip-path="url(#z36891c9)" d="M86 453L228 410L279 438L229 542L276 663L276 719"/>
<path pathLength="3333" clip-path="url(#z36891c10)" d="M84 763L136 776L279 741L587 838L769 872L947 837"/>
</svg>