<!--
AnimCJK 2016-2017 Copyright Francois Mizessyn, http://gooo.free.fr/animCJK/
Derived from:
    MakeMeAHanzi project - https://github.com/skishore/makemeahanzi
    Arphic PL KaitiM GB - https://apps.ubuntu.com/cat/applications/precise/fonts-arphic-gkai00mp/
    Arphic PL UKai - https://apps.ubuntu.com/cat/applications/fonts-arphic-ukai/
You can redistribute and/or modify this file under the terms of the Arphic Public License
as published by Arphic Technology Co., Ltd.
You should have received a copy of this license (the directory "APL") along with this file;
if not, see http://ftp.gnu.org/non-gnu/chinese-fonts-truetype/LICENSE.
-->
<svg id="z36910" class="acjk" version="1.1" viewBox="0 0 1024 1024" xmlns="http://www.w3.org/2000/svg" xmlns:xlink="http://www.w3.org/1999/xlink">
<style>
<![CDATA[
	@keyframes z36910k {
		from {
			stroke:#c00;
			stroke-dashoffset:3000;
		}
		75% {
			stroke:#c00;
			stroke-dashoffset:0;
		}
		to {
			stroke:#000;
		}
	}
	#z36910 path[clip-path] {
		animation:z36910k 1s linear both;
		stroke-dasharray:3000;
		stroke-width:128;
		stroke-linecap:round;
		fill:none;
	}
	#z36910 path[clip-path="url(#z36910c1)"] {animation-delay:1s;}
	#z36910 path[clip-path="url(#z36910c2)"] {animation-delay:2s;}
	#z36910 path[clip-path="url(#z36910c3)"] {animation-delay:3s;}
	#z36910 path[clip-path="url(#z36910c4)"] {animation-delay:4s;}
	#z36910 path[clip-path="url(#z36910c5)"] {animation-delay:5s;}
	#z36910 path[clip-path="url(#z36910c6)"] {animation-delay:6s;}
	#z36910 path[clip-path="url(#z36910c7)"] {animation-delay:7s;}
	#z36910 path[clip-path="url(#z36910c8)"] {animation-delay:8s;}
	#z36910 path[clip-path="url(#z36910c9)"] {animation-delay:9s;}
	#z36910 path[clip-path="url(#z36910c10)"] {animation-delay:10s;}
	#z36910 path[clip-path="url(#z36910c11)"] {animation-delay:11s;}
	#z36910 path {fill:#ccc;}
]]>
</style>
<g transform="scale(1,-1) translate(0,-900)">
	<path id="z36910d1" d="M729 499Q741 545 752 573L774 618Q787 640 803 653Q819 671 805 688Q733 745 678 718Q648 708 623 699L571 687Q513 674 452 667Q436 666 438 657Q441 650 458 643Q482 633 515 644Q542 650 571 655L621 665Q649 672 681 678Q702 682 710 674Q722 662 718 637Q714 621 710 605L700 569Q690 538 681 509L729 499Z"/>
	<path id="z36910d2" d="M571 579Q475 564 369 547Q353 544 366 531Q393 507 432 519Q498 540 571 551L618 559Q652 566 700 569L752 573Q795 577 846 578Q903 581 908 588Q912 598 898 608Q847 641 788 622Q781 621 774 618L710 605Q668 598 620 588Q619 588 619 587L571 579Z"/>
	<path id="z36910d3" d="M571 481Q507 468 454 459Q435 458 447 440Q454 431 464 428Q474 425 487 429Q520 438 571 445L618 453Q667 462 736 469Q746 470 748 479Q748 486 729 499L681 509Q672 509 618 492L571 481Z"/>
	<path id="z36910d4" d="M571 655Q571 624 571 579L571 551Q570 520 571 481L571 445Q570 349 570 219Q570 198 558 190Q554 186 492 189Q461 199 463 189Q464 182 485 169Q543 126 558 102Q576 74 590 72Q603 72 616 105Q632 148 628 219Q621 337 618 453L618 492Q617 526 618 559L619 587Q618 621 621 655Q621 661 621 665L623 699Q627 751 637 783Q653 811 600 833Q567 851 549 844Q533 838 548 816Q569 791 570 757Q571 747 571 687L571 655Z"/>
	<path id="z36910d5" d="M402 365Q453 317 476 319Q488 320 491 336Q490 348 479 364Q458 388 402 389Q395 390 395 379Q394 372 402 365Z"/>
	<path id="z36910d6" d="M349 216Q340 212 341 204Q342 194 351 189Q372 182 400 175Q409 175 416 185Q425 197 500 273Q510 282 516 292Q525 301 523 308Q517 311 509 306Q451 269 375 225Q366 219 349 216Z"/>
	<path id="z36910d7" d="M726 412Q701 387 653 347Q647 343 651 336Q657 333 664 335Q745 371 783 382Q799 383 797 393Q796 406 782 426Q769 444 751 450Q739 451 736 435Q736 423 726 412Z"/>
	<path id="z36910d8" d="M665 272Q720 229 785 166Q800 148 814 146Q823 145 829 154Q839 167 825 206Q809 258 665 301Q656 305 655 293Q655 281 665 272Z"/>
	<path id="z36910d9" d="M226 687Q254 662 287 633Q303 618 322 619Q335 620 340 636Q344 655 333 689Q326 711 291 725Q207 750 192 744Q186 738 188 723Q192 710 226 687Z"/>
	<path id="z36910d10" d="M286 136Q299 146 305 163Q317 205 274 276Q241 339 319 424Q320 428 324 430Q346 449 327 466Q305 482 269 497Q248 509 205 478Q112 433 84 434Q75 435 74 430Q73 424 81 420Q121 402 217 436Q227 440 236 428Q258 406 236 377Q185 325 231 262Q264 204 263 171Q263 150 257 137L286 136Z"/>
	<path id="z36910d11" d="M257 137Q208 140 160 120Q130 107 84 100Q77 100 75 91Q72 84 82 74Q100 58 125 47Q137 43 154 57Q211 108 276 99Q346 87 492 32Q738 -65 824 -35Q882 -11 930 26Q952 42 929 41Q683 32 555 60Q464 81 344 122Q316 132 286 136L257 137Z"/>
	<defs>
		<clipPath id="z36910c1"><use xlink:href="#z36910d1"/></clipPath>
		<clipPath id="z36910c2"><use xlink:href="#z36910d2"/></clipPath>
		<clipPath id="z36910c3"><use xlink:href="#z36910d3"/></clipPath>
		<clipPath id="z36910c4"><use xlink:href="#z36910d4"/></clipPath>
		<clipPath id="z36910c5"><use xlink:href="#z36910d5"/></clipPath>
		<clipPath id="z36910c6"><use xlink:href="#z36910d6"/></clipPath>
		<clipPath id="z36910c7"><use xlink:href="#z36910d7"/></clipPath>
		<clipPath id="z36910c8"><use xlink:href="#z36910d8"/></clipPath>
		<clipPath id="z36910c9"><use xlink:href="#z36910d9"/></clipPath>
		<clipPath id="z36910c10"><use xlink:href="#z36910d10"/></clipPath>
		<clipPath id="z36910c11"><use xlink:href="#z36910d11"/></clipPath>
	</defs>
	<path pathLength="2999" clip-path="url(#z36910c1)" d="M443 661L731 697L765 664L712 503"/>
	<path pathLength="2999" clip-path="url(#z36910c2)" d="M367 541L814 603L902 594"/>
	<path pathLength="2999" clip-path="url(#z36910c3)" d="M449 450L741 479"/>
	<path pathLength="2999" clip-path="url(#z36910c4)" d="M547 837L604 783L599 199L574 124L472 187"/>
	<path pathLength="2999" clip-path="url(#z36910c5)" d="M403 383L482 327"/>
	<path pathLength="2999" clip-path="url(#z36910c6)" d="M345 206L399 206L514 303"/>
	<path pathLength="2999" clip-path="url(#z36910c7)" d="M750 446L760 399L658 341"/>
	<path pathLength="2999" clip-path="url(#z36910c8)" d="M662 291L779 216L816 150"/>
	<path pathLength="2999" clip-path="url(#z36910c9)" d="M195 739L291 682L329 624"/>
	<path pathLength="2999" clip-path="url(#z36910c10)" d="M83 428L246 464L290 433L237 326L284 192L267 142"/>
	<path pathLength="2999" clip-path="url(#z36910c11)" d="M80 88L131 78L268 119L603 22L763 -1L931 35"/>
</g>
</svg>