<!--
AnimCJK 2016-2019 Copyright Francois Mizessyn - https://github.com/parsimonhi/animCJK
Derived from:
    MakeMeAHanzi project - https://github.com/skishore/makemeahanzi
    Arphic PL KaitiM GB font
    Arphic PL UKai font
You can redistribute and/or modify this file under the terms of the Arphic Public License
as published by Arphic Technology Co., Ltd.
You should have received a copy of this license along with this file.
If not, see http://ftp.gnu.org/non-gnu/chinese-fonts-truetype/LICENSE.
-->
<svg id="z36943" class="acjk" version="1.1" viewBox="0 0 1024 1024" xmlns="http://www.w3.org/2000/svg" xmlns:xlink="http://www.w3.org/1999/xlink">
<style>
<![CDATA[
@keyframes zk {
	to {
		stroke-dashoffset:0;
	}
}
svg.acjk path[clip-path] {
	--t:0.8s;
	animation:zk var(--t) linear forwards var(--d);
	stroke-dasharray:3337;
	stroke-dashoffset:3339;
	stroke-width:128;
	stroke-linecap:round;
	fill:none;
	stroke:#000;
}
svg.acjk path[id] {fill:#ccc;}
]]>
</style>
<path id="z36943d1" d="M517 369Q521 366 526 341C525 326 525 326 525 319Q524 309 523 300Q519 275 515 256C512 239 512 239 510 231Q503 188 501 170C499 159 497 146 487 141Q477 135 449 132Q439 128 435 134Q429 140 437 155Q465 213 481 309Q484 337 501 357Q502 358 505 362C508 366 514 373 517 369Z"/>
<path id="z36943d2" d="M665 324Q684 355 701 363Q711 370 726 350Q739 328 767 214Q776 183 798 160Q811 148 800 134Q785 118 744 93Q728 86 653 104Q620 104 487 141C477 144 491 173 501 170Q565 151 672 133Q699 129 707 137Q717 150 716 163Q694 289 678 302C672 308 660 317 665 324Z"/>
<path id="z36943d3" d="M515 256Q518 252 653 230Q674 226 665 215Q655 202 633 199Q606 198 510 231C502 234 507 259 515 256Z"/>
<path id="z36943d4" d="M526 341Q527 341 530 341Q606 331 665 324C673 322 685 307 678 302Q672 296 661 294Q637 290 525 319C518 320 519 341 526 341Z"/>
<path id="z36943d5" d="M519 428Q529 413 540 402Q547 393 537 382Q527 375 517 369C509 364 509 364 505 362Q498 358 489 360Q482 361 482 372Q492 417 442 474Q430 487 425 495Q419 505 430 503Q460 497 501 451C513 436 513 436 519 428Z"/>
<path id="z36943d6" d="M600 443Q729 422 755 422Q768 422 773 428Q792 461 778 621Q769 672 756 700Q747 722 735 724Q723 727 660 706Q651 703 651 708Q651 712 661 720Q700 759 717 787Q727 805 739 804Q752 805 766 791Q820 743 835 593Q847 455 853 448Q854 444 858 441Q870 429 869 422Q868 415 850 403Q825 385 794 376Q770 369 755 378Q733 385 683 397Q613 413 562 421Q538 424 519 428C509 430 491 449 501 451Q517 454 576 446C592 444 592 444 600 443Z"/>
<path id="z36943d7" d="M607 512Q631 482 618 461Q611 451 604 446Q603 445 600 443C594 438 574 438 576 446Q576 447 577 450Q577 451 578 454Q584 481 541 541Q523 568 498 594Q494 598 493 602Q493 606 497 606Q536 594 596 526C603 517 603 517 607 512Z"/>
<path id="z36943d8" d="M596 526Q599 532 617 542Q650 561 685 585Q695 592 705 590Q712 589 714 580Q715 570 707 552Q695 525 609 512C608 512 608 512 607 512C601 511 592 521 596 526Z"/>
<path id="z36943d9" d="M457 554Q461 542 450 534Q434 519 409 514Q397 511 392 518Q388 524 397 535Q413 554 416 585Q417 636 402 662Q393 674 398 682Q405 695 418 707Q427 714 439 703Q488 661 647 661Q668 661 693 663Q711 664 718 660Q724 656 719 646Q715 636 684 619Q666 610 607 621Q535 627 465 645Q458 648 456 645Q450 642 452 632Q452 571 457 554Z"/>
<path id="z36943d10" d="M241 194Q266 218 293 247Q308 263 326 262Q338 262 344 247Q351 231 341 196Q332 163 237 139Q219 135 212 137Q206 141 207 156Q211 169 241 194Z"/>
<path id="z36943d11" d="M315 720Q327 711 331 694Q338 651 292 575Q261 521 334 433Q337 429 342 425Q363 406 343 391Q322 375 287 362Q265 350 247 368Q217 393 177 411Q125 436 107 435Q100 435 98 440Q97 444 105 449Q144 465 241 422Q248 418 258 427Q279 449 257 476Q205 530 255 594Q300 681 290 718C289 726 308 725 315 720Z"/>
<path id="z36943d12" d="M290 718Q244 715 196 732Q157 748 98 755Q91 755 88 764Q85 771 94 781Q112 799 136 810Q148 816 166 801Q239 744 312 759Q376 774 504 832Q729 937 808 910Q871 888 924 852Q948 836 923 836Q707 845 531 790Q464 769 385 739Q351 724 315 720C298 719 298 719 290 718Z"/>
<defs>
	<clipPath id="z36943c1"><use xlink:href="#z36943d1"/></clipPath>
	<clipPath id="z36943c2"><use xlink:href="#z36943d2"/></clipPath>
	<clipPath id="z36943c3"><use xlink:href="#z36943d3"/></clipPath>
	<clipPath id="z36943c4"><use xlink:href="#z36943d4"/></clipPath>
	<clipPath id="z36943c5"><use xlink:href="#z36943d5"/></clipPath>
	<clipPath id="z36943c6"><use xlink:href="#z36943d6"/></clipPath>
	<clipPath id="z36943c7"><use xlink:href="#z36943d7"/></clipPath>
	<clipPath id="z36943c8"><use xlink:href="#z36943d8"/></clipPath>
	<clipPath id="z36943c9"><use xlink:href="#z36943d9"/></clipPath>
	<clipPath id="z36943c10"><use xlink:href="#z36943d10"/></clipPath>
	<clipPath id="z36943c11"><use xlink:href="#z36943d11"/></clipPath>
	<clipPath id="z36943c12"><use xlink:href="#z36943d12"/></clipPath>
</defs>
<path style="--d:1s;" pathLength="3333" clip-path="url(#z36943c1)" d="M440 141L476 181L513 363"/>
<path style="--d:2s;" pathLength="3333" clip-path="url(#z36943c2)" d="M496 146L701 112L751 137L703 360"/>
<path style="--d:3s;" pathLength="3333" clip-path="url(#z36943c3)" d="M517 248L660 220"/>
<path style="--d:4s;" pathLength="3333" clip-path="url(#z36943c4)" d="M533 333L670 305"/>
<path style="--d:5s;" pathLength="3333" clip-path="url(#z36943c5)" d="M491 370L510 406L433 496"/>
<path style="--d:6s;" pathLength="3333" clip-path="url(#z36943c6)" d="M514 447L759 399L823 434L801 643L771 734L734 764L659 710"/>
<path style="--d:7s;" pathLength="3333" clip-path="url(#z36943c7)" d="M596 447L593 495L500 600"/>
<path style="--d:8s;" pathLength="3333" clip-path="url(#z36943c8)" d="M604 525L711 577"/>
<path style="--d:9s;" pathLength="3333" clip-path="url(#z36943c9)" d="M400 523L433 551L438 676L560 645L716 649"/>
<path style="--d:10s;" pathLength="3333" clip-path="url(#z36943c10)" d="M214 144L303 204L329 256"/>
<path style="--d:11s;" pathLength="3333" clip-path="url(#z36943c11)" d="M103 442L261 390L308 420L257 526L310 674L300 717"/>
<path style="--d:12s;" pathLength="3333" clip-path="url(#z36943c12)" d="M92 764L143 780L229 743L327 741L746 873L930 841"/>
</svg>