<!--
AnimCJK 2016-2025 Copyright FM-SH - https://github.com/parsimonhi/animCJK
Derived from:
    MakeMeAHanzi project - https://github.com/skishore/makemeahanzi
    Arphic PL KaitiM GB font
    Arphic PL UKai font
You can redistribute and/or modify this file under the terms of the Arphic Public License
as published by Arphic Technology Co., Ltd.
You should have received a copy of this license along with this file.
If not, see http://ftp.gnu.org/non-gnu/chinese-fonts-truetype/LICENSE.
-->
<svg id="z36978" class="acjk" version="1.1" viewBox="0 0 1024 1024" xmlns="http://www.w3.org/2000/svg" xmlns:xlink="http://www.w3.org/1999/xlink">
<style>
<![CDATA[
@keyframes zk {
	to {
		stroke-dashoffset:0;
	}
}
svg.acjk path[clip-path] {
	--t:0.8s;
	animation:zk var(--t) linear forwards var(--d);
	stroke-dasharray:3337;
	stroke-dashoffset:3339;
	stroke-width:128;
	stroke-linecap:round;
	fill:none;
	stroke:#000;
}
svg.acjk path[id] {fill:#ccc;}
]]>
</style>
<path id="z36978d1" d="M724 214C742 181 761 164 775 155C787 146 787 131 778 121C769 111 747 99 716 84C696 74 627 111 479 145C469 147 483 174 493 172C550 158 613 142 665 128C685 122 699 130 694 149C687 171 679 192 671 210C664 226 716 230 724 214Z"/>
<path id="z36978d2" d="M640 256C666 250 696 245 731 239C753 234 742 224 724 214C709 205 687 203 671 210C600 232 537 250 482 262C473 263 471 288 480 288C493 292 580 267 619 260C633 257 633 257 640 256Z"/>
<path id="z36978d3" d="M479 145C471 139 461 134 450 129C438 123 429 120 422 125C414 128 414 135 418 143C464 253 412 511 309 681C298 697 304 711 324 691C428 591 469 429 480 288C481 271 481 271 482 262C483 237 487 186 493 172C497 163 487 151 479 145Z"/>
<path id="z36978d4" d="M619 260C625 318 628 354 628 370C627 374 627 378 627 384C625 396 629 411 642 426C646 431 652 430 657 425C663 417 668 389 670 343C670 325 670 308 674 295C676 284 674 275 664 269C655 264 647 260 640 256C634 252 618 253 619 260Z"/>
<path id="z36978d5" d="M519 319C546 343 565 356 575 356C581 355 586 350 587 342C587 336 584 328 579 320C568 305 548 299 520 300C515 300 513 302 514 308C514 311 515 315 519 319Z"/>
<path id="z36978d6" d="M495 425C490 426 488 429 489 433C489 437 491 441 496 443C505 446 517 449 530 452C533 452 538 450 541 446C545 438 563 420 592 390C614 365 603 367 584 377C568 386 544 400 512 419C508 421 502 422 495 425Z"/>
<path id="z36978d7" d="M752 272C748 276 729 298 698 338C692 344 695 350 703 347C750 325 795 293 810 287C820 282 823 275 818 268C812 259 803 252 792 245C781 238 773 235 767 237C761 237 759 240 761 247C762 255 758 264 752 272Z"/>
<path id="z36978d8" d="M727 394C747 406 769 422 794 442C802 448 808 452 815 453C818 453 821 450 824 446C827 439 824 428 817 412C813 403 808 394 799 390C787 384 761 382 724 376C719 375 717 375 718 381C718 387 721 390 727 394Z"/>
<path id="z36978d9" d="M553 530C560 523 573 513 571 503C569 496 562 490 548 486C533 481 522 479 516 481C512 481 508 485 508 492C504 513 480 548 432 594C422 603 422 603 437 603C459 601 492 583 535 546C547 535 547 535 553 530Z"/>
<path id="z36978d10" d="M677 549C699 545 723 540 747 537C767 533 779 529 782 527C786 522 788 517 786 514C782 507 772 500 757 497C741 493 715 502 679 510C645 517 645 517 628 521C604 526 579 528 553 530C545 530 529 541 535 546C551 562 582 564 629 557C661 552 661 552 677 549Z"/>
<path id="z36978d11" d="M675 655C717 649 781 646 867 646C877 646 884 643 887 639C889 633 887 625 878 619C848 596 815 593 778 603C749 609 714 616 675 623C645 628 645 628 630 630C564 640 438 657 433 658C422 658 419 665 429 674C443 687 464 692 484 688C517 679 588 666 630 661C660 657 660 657 675 655Z"/>
<path id="z36978d12" d="M630 661C630 681 632 762 640 800C644 824 659 818 666 800C672 782 675 735 675 655C675 634 675 634 675 623C675 602 675 577 677 549C678 523 678 523 679 510C679 499 683 488 686 479C688 470 685 462 677 457C660 444 647 439 639 437C632 435 624 435 616 441C610 444 610 450 614 456C622 470 627 491 628 521C629 545 629 545 629 557C629 581 630 605 630 630C630 651 630 651 630 661Z"/>
<path id="z36978d13" d="M208 204C224 218 242 235 261 253C270 262 281 266 292 266C300 265 306 260 309 251C312 241 310 225 304 205C300 192 288 179 267 172C218 153 189 148 180 153C175 155 173 161 176 171C177 177 189 188 208 204Z"/>
<path id="z36978d14" d="M244 731C290 703 282 655 224 585C216 576 209 558 209 546C209 524 247 472 269 442C279 426 288 413 275 403C261 392 241 383 219 374C202 367 186 376 160 396C117 427 85 438 70 439C65 439 62 440 62 444C61 446 63 450 69 453C92 463 127 457 173 435C177 432 183 433 189 439C203 452 203 470 190 491C179 505 168 525 165 546C161 566 173 581 199 619C224 656 233 689 227 731C226 737 239 734 244 731Z"/>
<path id="z36978d15" d="M227 731C194 731 165 736 140 746C111 756 87 763 67 765C57 765 52 770 55 778C57 784 72 795 101 809C114 815 132 812 149 797C173 772 206 760 253 765C282 767 349 789 454 828C496 843 536 859 573 877C664 921 729 939 767 931C815 919 878 890 957 847C960 844 962 841 962 838C961 835 955 833 944 834C723 845 536 820 377 766C353 757 284 737 244 731C238 730 232 731 227 731Z"/>
<defs>
	<clipPath id="z36978c1"><use xlink:href="#z36978d1"/></clipPath>
	<clipPath id="z36978c2"><use xlink:href="#z36978d2"/></clipPath>
	<clipPath id="z36978c3"><use xlink:href="#z36978d3"/></clipPath>
	<clipPath id="z36978c4"><use xlink:href="#z36978d4"/></clipPath>
	<clipPath id="z36978c5"><use xlink:href="#z36978d5"/></clipPath>
	<clipPath id="z36978c6"><use xlink:href="#z36978d6"/></clipPath>
	<clipPath id="z36978c7"><use xlink:href="#z36978d7"/></clipPath>
	<clipPath id="z36978c8"><use xlink:href="#z36978d8"/></clipPath>
	<clipPath id="z36978c9"><use xlink:href="#z36978d9"/></clipPath>
	<clipPath id="z36978c10"><use xlink:href="#z36978d10"/></clipPath>
	<clipPath id="z36978c11"><use xlink:href="#z36978d11"/></clipPath>
	<clipPath id="z36978c12"><use xlink:href="#z36978d12"/></clipPath>
	<clipPath id="z36978c13"><use xlink:href="#z36978d13"/></clipPath>
	<clipPath id="z36978c14"><use xlink:href="#z36978d14"/></clipPath>
	<clipPath id="z36978c15"><use xlink:href="#z36978d15"/></clipPath>
</defs>
<path style="--d:1s;" pathLength="3333" clip-path="url(#z36978c1)" d="M479 153L703 106L739 145L684 220"/>
<path style="--d:2s;" pathLength="3333" clip-path="url(#z36978c2)" d="M481 277L738 229"/>
<path style="--d:3s;" pathLength="3333" clip-path="url(#z36978c3)" d="M421 129L462 179L446 373L396 549L312 692"/>
<path style="--d:4s;" pathLength="3333" clip-path="url(#z36978c4)" d="M626 260L649 295L643 422"/>
<path style="--d:5s;" pathLength="3333" clip-path="url(#z36978c5)" d="M523 309L580 349"/>
<path style="--d:6s;" pathLength="3333" clip-path="url(#z36978c6)" d="M495 435L596 376"/>
<path style="--d:7s;" pathLength="3333" clip-path="url(#z36978c7)" d="M769 244L782 280L704 341"/>
<path style="--d:8s;" pathLength="3333" clip-path="url(#z36978c8)" d="M725 381L821 443"/>
<path style="--d:9s;" pathLength="3333" clip-path="url(#z36978c9)" d="M516 488L529 520L431 597"/>
<path style="--d:10s;" pathLength="3333" clip-path="url(#z36978c10)" d="M542 543L779 519"/>
<path style="--d:11s;" pathLength="3333" clip-path="url(#z36978c11)" d="M435 667L786 624L884 630"/>
<path style="--d:12s;" pathLength="3333" clip-path="url(#z36978c12)" d="M617 444L655 479L654 811"/>
<path style="--d:13s;" pathLength="3333" clip-path="url(#z36978c13)" d="M179 163L267 211L300 259"/>
<path style="--d:14s;" pathLength="3333" clip-path="url(#z36978c14)" d="M69 445L200 407L238 429L187 543L247 667L237 728"/>
<path style="--d:15s;" pathLength="3333" clip-path="url(#z36978c15)" d="M59 773L113 784L180 753L262 750L735 883L954 842"/>
</svg>