<!--
AnimCJK 2016-2018 Copyright Francois Mizessyn, http://gooo.free.fr/animCJK/
Derived from:
    MakeMeAHanzi project - https://github.com/skishore/makemeahanzi
    Arphic PL KaitiM GB - https://apps.ubuntu.com/cat/applications/precise/fonts-arphic-gkai00mp/
    Arphic PL UKai - https://apps.ubuntu.com/cat/applications/fonts-arphic-ukai/
You can redistribute and/or modify this file under the terms of the Arphic Public License
as published by Arphic Technology Co., Ltd.
You should have received a copy of this license (the directory "APL") along with this file;
if not, see http://ftp.gnu.org/non-gnu/chinese-fonts-truetype/LICENSE.
-->
<svg id="z36994" class="acjk" version="1.1" viewBox="0 0 1024 1024" xmlns="http://www.w3.org/2000/svg" xmlns:xlink="http://www.w3.org/1999/xlink">
<style>
<![CDATA[
@keyframes z36994k {
	from {
		stroke:#ccc;
		stroke-dashoffset:3334;
	}
	1% {
		stroke:#c00;
		stroke-dashoffset:3334;
	}
	75% {
		stroke:#c00;
		stroke-dashoffset:0;
	}
	to {
		stroke:#000;
	}
}
#z36994 path[clip-path] {
	animation:z36994k 1s linear both;
	stroke-dasharray:3334;
	stroke-width:128;
	stroke-linecap:round;
	fill:none;
}
#z36994 path[clip-path="url(#z36994c1)"] {animation-delay:1s;}
#z36994 path[clip-path="url(#z36994c2)"] {animation-delay:2s;}
#z36994 path[clip-path="url(#z36994c3)"] {animation-delay:3s;}
#z36994 path[clip-path="url(#z36994c4)"] {animation-delay:4s;}
#z36994 path[clip-path="url(#z36994c5)"] {animation-delay:5s;}
#z36994 path[clip-path="url(#z36994c6)"] {animation-delay:6s;}
#z36994 path[clip-path="url(#z36994c7)"] {animation-delay:7s;}
#z36994 path[clip-path="url(#z36994c8)"] {animation-delay:8s;}
#z36994 path[clip-path="url(#z36994c9)"] {animation-delay:9s;}
#z36994 path[clip-path="url(#z36994c10)"] {animation-delay:10s;}
#z36994 path[clip-path="url(#z36994c11)"] {animation-delay:11s;}
#z36994 path[clip-path="url(#z36994c12)"] {animation-delay:12s;}
#z36994 path[clip-path="url(#z36994c13)"] {animation-delay:13s;}
#z36994 path[clip-path="url(#z36994c14)"] {animation-delay:14s;}
#z36994 path[clip-path="url(#z36994c15)"] {animation-delay:15s;}
#z36994 path[clip-path="url(#z36994c16)"] {animation-delay:16s;}
#z36994 path {fill:#ccc;}
]]>
</style>
<path id="z36994d1" d="M442 190Q506 100 507 96Q506 93 505 91Q502 81 480 64Q461 51 445 50Q432 51 437 69Q450 97 399 183Q375 223 341 268Q334 275 332 281Q329 290 340 287Q364 284 431 204L442 190 Z"/>
<path id="z36994d2" d="M497 310Q566 223 593 205Q608 196 598 185Q586 175 556 159Q543 155 531 163Q524 166 472 183Q457 187 442 190L431 204Q443 216 506 203Q512 202 514 203Q517 206 514 213Q492 277 476 307Q473 311 472 317L497 310 Z"/>
<path id="z36994d3" d="M373 337Q366 333 356 330Q341 323 333 328Q326 334 330 343Q361 374 344 541Q341 547 341 554Q329 609 299 676Q295 680 294 686Q293 693 301 691Q314 688 330 659Q390 575 392 386Q392 368 395 364L373 337 Z"/>
<path id="z36994d4" d="M600 518Q593 377 604 351Q613 336 605 327Q598 317 563 300Q550 293 497 310L472 317Q468 317 466 318Q421 328 373 337L395 364Q398 364 435 354L467 345Q488 338 516 333Q534 329 543 337Q552 341 554 378Q564 499 559 636Q559 655 552 662Q543 666 504 654Q494 650 493 657Q493 661 502 667Q536 701 553 727Q566 740 576 740Q585 739 593 718Q606 687 607 640Q603 579 600 531L600 518 Z"/>
<path id="z36994d5" d="M448 435Q424 442 405 450Q392 454 408 465Q409 465 448 462L484 455Q506 449 526 447Q544 443 537 434Q528 424 508 420Q498 419 485 423L448 435 Z"/>
<path id="z36994d6" d="M448 525Q418 534 393 542Q380 546 396 557Q397 557 448 554L482 548Q509 542 534 539Q552 535 545 526Q536 514 517 512Q502 509 482 515L448 525 Z"/>
<path id="z36994d7" d="M435 354Q447 372 448 435L448 462Q448 490 448 525L448 554Q448 653 457 666Q461 670 466 669Q481 657 482 548L482 515Q482 490 484 455L485 423Q485 410 492 374Q493 362 485 356Q475 349 467 345L435 354 Z"/>
<path id="z36994d8" d="M714 195Q766 179 807 173Q820 172 823 175Q830 182 827 204Q826 262 813 289Q798 314 776 311Q760 307 744 303Q725 296 739 316Q769 347 783 372Q795 387 807 376Q850 348 873 233Q873 197 893 175Q903 165 898 155Q891 146 848 129Q832 122 816 133Q800 143 741 158Q681 174 630 181Q615 182 614 189Q613 195 632 204Q651 216 667 209Q677 205 690 203L714 195 Z"/>
<path id="z36994d9" d="M690 203L691 204Q691 205 693 208Q702 256 628 363Q624 367 625 371Q625 374 628 373Q673 361 729 257Q736 242 741 235Q745 228 739 219Q727 204 714 195L690 203 Z"/>
<path id="z36994d10" d="M673 464Q673 463 674 463Q686 444 697 427Q704 418 693 409Q662 388 646 391Q639 392 640 403Q652 448 611 502Q604 511 600 518L600 531Q599 530 601 530Q625 524 661 481L673 464 Z"/>
<path id="z36994d11" d="M783 481Q876 459 879 457Q886 451 882 445Q878 436 855 430Q828 424 784 444L734 456Q703 460 673 464L661 481L662 481Q695 502 735 489L783 481 Z"/>
<path id="z36994d12" d="M782 589Q833 583 920 584Q935 584 939 578Q943 569 930 559Q887 528 834 543Q810 547 782 554L736 562Q682 569 621 579Q605 580 617 594Q638 615 691 602Q710 596 736 594L782 589 Z"/>
<path id="z36994d13" d="M742 762Q746 781 752 790Q756 796 762 793Q768 790 773 778Q782 748 782 589L782 554Q781 521 783 481L784 444Q787 432 790 411Q793 396 781 389Q756 371 743 370Q733 366 720 373Q713 380 719 388Q734 421 734 456L735 489Q735 522 736 562L736 594Q737 621 737 651Q738 733 742 762 Z"/>
<path id="z36994d14" d="M191 209Q215 231 241 260Q254 273 272 273Q282 273 289 259Q293 244 286 212Q277 182 187 158Q171 154 164 157Q158 161 160 174Q163 186 191 209 Z"/>
<path id="z36994d15" d="M260 697Q273 687 279 671Q291 632 250 570Q223 522 285 445Q288 441 292 438Q311 420 293 406Q274 391 240 379Q219 367 180 400Q108 440 83 439Q76 439 75 444Q74 448 82 453Q118 468 195 436Q204 432 212 442Q230 460 213 483Q176 525 220 598Q241 641 240 664Q240 683 235 694Q234 694 234 695L260 697 Z"/>
<path id="z36994d16" d="M234 695Q194 694 152 708Q124 717 80 718Q73 718 70 727Q66 734 75 744Q91 763 115 775Q127 782 146 768Q203 725 267 737Q340 752 487 813Q682 900 792 901Q805 900 823 893Q881 872 931 836Q953 821 931 822Q673 822 549 788Q455 761 336 717Q299 701 260 697L234 695 Z"/>
<defs>
	<clipPath id="z36994c1"><use xlink:href="#z36994d1"/></clipPath>
	<clipPath id="z36994c2"><use xlink:href="#z36994d2"/></clipPath>
	<clipPath id="z36994c3"><use xlink:href="#z36994d3"/></clipPath>
	<clipPath id="z36994c4"><use xlink:href="#z36994d4"/></clipPath>
	<clipPath id="z36994c5"><use xlink:href="#z36994d5"/></clipPath>
	<clipPath id="z36994c6"><use xlink:href="#z36994d6"/></clipPath>
	<clipPath id="z36994c7"><use xlink:href="#z36994d7"/></clipPath>
	<clipPath id="z36994c8"><use xlink:href="#z36994d8"/></clipPath>
	<clipPath id="z36994c9"><use xlink:href="#z36994d9"/></clipPath>
	<clipPath id="z36994c10"><use xlink:href="#z36994d10"/></clipPath>
	<clipPath id="z36994c11"><use xlink:href="#z36994d11"/></clipPath>
	<clipPath id="z36994c12"><use xlink:href="#z36994d12"/></clipPath>
	<clipPath id="z36994c13"><use xlink:href="#z36994d13"/></clipPath>
	<clipPath id="z36994c14"><use xlink:href="#z36994d14"/></clipPath>
	<clipPath id="z36994c15"><use xlink:href="#z36994d15"/></clipPath>
	<clipPath id="z36994c16"><use xlink:href="#z36994d16"/></clipPath>
</defs>
<path pathLength="3333" clip-path="url(#z36994c1)" d="M444 58L471 99L338 282"/>
<path pathLength="3333" clip-path="url(#z36994c2)" d="M436 200L528 184L557 198L480 310"/>
<path pathLength="3333" clip-path="url(#z36994c3)" d="M336 333L370 374L369 467L344 601L300 683"/>
<path pathLength="3333" clip-path="url(#z36994c4)" d="M382 337L536 315L579 343L580 664L562 701L501 659"/>
<path pathLength="3333" clip-path="url(#z36994c5)" d="M405 455L532 439"/>
<path pathLength="3333" clip-path="url(#z36994c6)" d="M394 547L539 533"/>
<path pathLength="3333" clip-path="url(#z36994c7)" d="M444 361L469 385L464 660"/>
<path pathLength="3333" clip-path="url(#z36994c8)" d="M623 190L827 151L860 166L811 332L787 345L742 308"/>
<path pathLength="3333" clip-path="url(#z36994c9)" d="M700 205L714 244L632 364"/>
<path pathLength="3333" clip-path="url(#z36994c10)" d="M648 397L669 431L606 523"/>
<path pathLength="3333" clip-path="url(#z36994c11)" d="M671 479L878 448"/>
<path pathLength="3333" clip-path="url(#z36994c12)" d="M621 585L860 561L934 575"/>
<path pathLength="3333" clip-path="url(#z36994c13)" d="M725 379L760 410L763 788"/>
<path pathLength="3333" clip-path="url(#z36994c14)" d="M167 164L248 218L278 266"/>
<path pathLength="3333" clip-path="url(#z36994c15)" d="M81 445L204 409L259 432L219 535L258 638L246 694"/>
<path pathLength="3333" clip-path="url(#z36994c16)" d="M75 730L130 745L221 715L289 721L550 814L746 857L932 826"/>
</svg>