<!--
AnimCJK 2016-2017 Copyright Francois Mizessyn, http://gooo.free.fr/animCJK/
Derived from:
    MakeMeAHanzi project - https://github.com/skishore/makemeahanzi
    Arphic PL KaitiM GB - https://apps.ubuntu.com/cat/applications/precise/fonts-arphic-gkai00mp/
    Arphic PL UKai - https://apps.ubuntu.com/cat/applications/fonts-arphic-ukai/
You can redistribute and/or modify this file under the terms of the Arphic Public License
as published by Arphic Technology Co., Ltd.
You should have received a copy of this license (the directory "APL") along with this file;
if not, see http://ftp.gnu.org/non-gnu/chinese-fonts-truetype/LICENSE.
-->
<svg id="z37026" class="acjk" version="1.1" viewBox="0 0 1024 1024" xmlns="http://www.w3.org/2000/svg" xmlns:xlink="http://www.w3.org/1999/xlink">
<style>
<![CDATA[
	@keyframes z37026k {
		from {
			stroke:#c00;
			stroke-dashoffset:3000;
		}
		75% {
			stroke:#c00;
			stroke-dashoffset:0;
		}
		to {
			stroke:#000;
		}
	}
	#z37026 path[clip-path] {
		animation:z37026k 1s linear both;
		stroke-dasharray:3000;
		stroke-width:128;
		stroke-linecap:round;
		fill:none;
	}
	#z37026 path[clip-path="url(#z37026c1)"] {animation-delay:1s;}
	#z37026 path[clip-path="url(#z37026c2)"] {animation-delay:2s;}
	#z37026 path[clip-path="url(#z37026c3)"] {animation-delay:3s;}
	#z37026 path[clip-path="url(#z37026c4)"] {animation-delay:4s;}
	#z37026 path[clip-path="url(#z37026c5)"] {animation-delay:5s;}
	#z37026 path[clip-path="url(#z37026c6)"] {animation-delay:6s;}
	#z37026 path {fill:#ccc;}
]]>
</style>
<g transform="scale(1,-1) translate(0,-900)">
	<path id="z37026d1" d="M423 743Q445 749 469 752Q515 762 522 769Q531 776 527 784Q520 796 492 804Q468 810 353 775Q241 754 186 748Q150 742 175 726Q188 719 226 710L268 713Q267 714 269 714Q326 726 387 736L423 743Z"/>
	<path id="z37026d2" d="M449 553Q497 563 551 569Q569 570 570 579Q571 592 552 603Q519 618 449 599L404 588Q341 576 295 564L246 554Q93 533 70 530Q57 529 53 520Q49 508 66 496Q105 471 165 484Q204 497 243 507L290 520Q329 533 403 545L449 553Z"/>
	<path id="z37026d3" d="M226 710Q227 706 232 698Q253 662 246 554L243 507Q237 377 145 277Q142 276 139 271Q124 256 111 244Q98 232 95 227Q94 220 104 221Q138 221 199 284Q271 365 290 520L295 564Q301 657 305 674Q311 693 292 702Q279 709 268 713L226 710Z"/>
	<path id="z37026d4" d="M403 545Q403 367 384 261Q368 207 424 149Q425 148 428 146Q440 145 445 158Q457 191 453 221Q450 378 449 553L449 599Q450 671 456 703Q459 716 451 722Q436 735 423 743L387 736L388 734Q403 710 404 588L403 545Z"/>
	<path id="z37026d5" d="M652 710Q662 713 677 719Q722 735 760 747Q764 750 776 744Q786 737 777 716Q704 559 704 555Q703 542 726 533Q822 473 837 388Q837 355 827 345Q814 335 785 341Q742 350 706 356Q699 357 699 349Q702 342 717 331Q795 289 815 258Q824 243 837 242Q849 241 865 254Q902 303 900 362Q897 452 771 544Q734 562 800 648Q807 658 815 667Q840 704 872 722Q903 738 877 759Q838 793 814 804Q796 811 780 801Q750 777 651 746Q647 745 644 744L652 710Z"/>
	<path id="z37026d6" d="M593 -2Q599 -27 606 -37Q612 -44 619 -42Q634 -33 640 28Q649 124 645 219Q642 273 642 638Q642 645 652 710L644 744Q643 745 642 746Q608 767 593 770Q580 774 564 765Q555 756 563 746Q591 689 592 655Q595 486 589 219Q588 53 593 -2Z"/>
	<defs>
		<clipPath id="z37026c1"><use xlink:href="#z37026d1"/></clipPath>
		<clipPath id="z37026c2"><use xlink:href="#z37026d2"/></clipPath>
		<clipPath id="z37026c3"><use xlink:href="#z37026d3"/></clipPath>
		<clipPath id="z37026c4"><use xlink:href="#z37026d4"/></clipPath>
		<clipPath id="z37026c5"><use xlink:href="#z37026d5"/></clipPath>
		<clipPath id="z37026c6"><use xlink:href="#z37026d6"/></clipPath>
	</defs>
	<path pathLength="2999" clip-path="url(#z37026c1)" d="M175 737L524 780"/>
	<path pathLength="2999" clip-path="url(#z37026c2)" d="M57 515L126 508L563 585"/>
	<path pathLength="2999" clip-path="url(#z37026c3)" d="M235 706L274 672L255 442L193 306L102 228"/>
	<path pathLength="2999" clip-path="url(#z37026c4)" d="M397 731L428 698L428 154"/>
	<path pathLength="2999" clip-path="url(#z37026c5)" d="M654 718L783 776L834 735L732 560L843 444L864 337L825 291L704 348"/>
	<path pathLength="2999" clip-path="url(#z37026c6)" d="M565 763L612 724L619 686L619 -36"/>
</g>
</svg>