<!--
AnimCJK 2016-2019 Copyright Francois Mizessyn - https://github.com/parsimonhi/animCJK
Derived from:
    MakeMeAHanzi project - https://github.com/skishore/makemeahanzi
    Arphic PL KaitiM GB font
    Arphic PL UKai font
You can redistribute and/or modify this file under the terms of the Arphic Public License
as published by Arphic Technology Co., Ltd.
You should have received a copy of this license along with this file.
If not, see http://ftp.gnu.org/non-gnu/chinese-fonts-truetype/LICENSE.
-->
<svg id="z37030" class="acjk" version="1.1" viewBox="0 0 1024 1024" xmlns="http://www.w3.org/2000/svg" xmlns:xlink="http://www.w3.org/1999/xlink">
<style>
<![CDATA[
@keyframes zk {
	to {
		stroke-dashoffset:0;
	}
}
svg.acjk path[clip-path] {
	--t:0.8s;
	animation:zk var(--t) linear forwards var(--d);
	stroke-dasharray:3337;
	stroke-dashoffset:3339;
	stroke-width:128;
	stroke-linecap:round;
	fill:none;
	stroke:#000;
}
svg.acjk path[id] {fill:#ccc;}
]]>
</style>
<path id="z37030d1" d="M393 275Q513 242 516 239Q523 232 519 223Q512 213 484 206Q451 202 395 226C360 237 360 237 343 242Q259 261 216 268Q180 275 207 290Q244 312 320 292Q330 289 343 287C376 279 376 279 393 275Z"/>
<path id="z37030d2" d="M385 404Q422 392 461 383Q495 373 501 367Q508 360 504 351Q497 341 467 335Q442 332 388 354C355 365 355 365 339 370Q254 391 227 395Q193 404 218 418Q263 439 316 421Q323 418 336 416C369 408 369 408 385 404Z"/>
<path id="z37030d3" d="M372 541Q439 523 524 508Q542 505 543 497Q544 482 523 474Q495 462 469 469Q418 482 378 494C344 503 344 503 327 507Q177 543 100 554Q87 555 83 565Q80 575 97 588Q139 616 185 600Q261 572 319 555C354 546 354 546 372 541Z"/>
<path id="z37030d4" d="M319 555Q288 679 221 751Q184 787 132 824Q120 833 120 837Q121 841 134 841Q149 845 186 828Q334 768 372 541C376 510 376 510 378 494Q381 463 384 430Q384 417 385 404C387 371 387 371 388 354Q389 314 393 275C394 242 394 242 395 226Q404 153 419 115Q426 100 415 88Q393 69 351 57Q326 50 316 58Q306 65 314 78Q338 115 341 165Q342 202 343 242C343 272 343 272 343 287Q342 327 339 370C337 401 337 401 336 416Q330 488 327 507C322 539 322 539 319 555Z"/>
<path id="z37030d5" d="M644 257Q656 254 671 247Q720 228 762 213Q766 210 777 216Q787 223 779 243Q713 375 714 381Q713 394 738 406Q852 487 838 566Q835 575 829 583Q813 593 783 589Q738 580 699 576Q689 575 691 583Q694 590 711 603Q796 646 816 679Q826 694 840 695Q853 696 869 683Q906 635 908 578Q909 494 787 394Q754 370 781 340Q811 304 830 281Q852 251 883 240Q917 221 888 199Q846 162 820 149Q801 142 782 153Q755 175 642 217Q638 218 635 220C623 225 632 259 644 257Z"/>
<path id="z37030d6" d="M577 920Q581 947 589 957Q595 964 603 962Q618 952 625 890Q635 800 633 712Q629 637 634 346Q635 300 644 257C646 244 646 227 635 220Q601 198 584 194Q571 190 554 199Q545 206 553 218Q577 273 579 294Q579 546 574 713Q571 867 577 920Z"/>
<defs>
	<clipPath id="z37030c1"><use xlink:href="#z37030d1"/></clipPath>
	<clipPath id="z37030c2"><use xlink:href="#z37030d2"/></clipPath>
	<clipPath id="z37030c3"><use xlink:href="#z37030d3"/></clipPath>
	<clipPath id="z37030c4"><use xlink:href="#z37030d4"/></clipPath>
	<clipPath id="z37030c5"><use xlink:href="#z37030d5"/></clipPath>
	<clipPath id="z37030c6"><use xlink:href="#z37030d6"/></clipPath>
</defs>
<path style="--d:1s;" pathLength="3333" clip-path="url(#z37030c1)" d="M205 278L516 229"/>
<path style="--d:2s;" pathLength="3333" clip-path="url(#z37030c2)" d="M216 407L498 348"/>
<path style="--d:3s;" pathLength="3333" clip-path="url(#z37030c3)" d="M88 569L149 576L537 490"/>
<path style="--d:4s;" pathLength="3333" clip-path="url(#z37030c4)" d="M317 61L378 116L339 577L267 736L129 836"/>
<path style="--d:5s;" pathLength="3333" clip-path="url(#z37030c5)" d="M646 249L786 181L848 227L742 380L854 497L864 605L825 641L698 582"/>
<path style="--d:6s;" pathLength="3333" clip-path="url(#z37030c6)" d="M557 205L609 264L597 958"/>
</svg>