<!--
AnimCJK 2016-2017 Copyright Francois Mizessyn, http://gooo.free.fr/animCJK/
Derived from:
    MakeMeAHanzi project - https://github.com/skishore/makemeahanzi
    Arphic PL KaitiM GB - https://apps.ubuntu.com/cat/applications/precise/fonts-arphic-gkai00mp/
    Arphic PL UKai - https://apps.ubuntu.com/cat/applications/fonts-arphic-ukai/
You can redistribute and/or modify this file under the terms of the Arphic Public License
as published by Arphic Technology Co., Ltd.
You should have received a copy of this license (the directory "APL") along with this file;
if not, see http://ftp.gnu.org/non-gnu/chinese-fonts-truetype/LICENSE.
-->
<svg id="z37117" class="acjk" version="1.1" viewBox="0 0 1024 1024" xmlns="http://www.w3.org/2000/svg" xmlns:xlink="http://www.w3.org/1999/xlink">
<style>
<![CDATA[
	@keyframes z37117k {
		from {
			stroke:#c00;
			stroke-dashoffset:3000;
		}
		75% {
			stroke:#c00;
			stroke-dashoffset:0;
		}
		to {
			stroke:#000;
		}
	}
	#z37117 path[clip-path] {
		animation:z37117k 1s linear both;
		stroke-dasharray:3000;
		stroke-width:128;
		stroke-linecap:round;
		fill:none;
	}
	#z37117 path[clip-path="url(#z37117c1)"] {animation-delay:1s;}
	#z37117 path[clip-path="url(#z37117c2)"] {animation-delay:2s;}
	#z37117 path[clip-path="url(#z37117c3)"] {animation-delay:3s;}
	#z37117 path[clip-path="url(#z37117c4)"] {animation-delay:4s;}
	#z37117 path[clip-path="url(#z37117c5)"] {animation-delay:5s;}
	#z37117 path[clip-path="url(#z37117c6)"] {animation-delay:6s;}
	#z37117 path[clip-path="url(#z37117c7)"] {animation-delay:7s;}
	#z37117 path[clip-path="url(#z37117c8)"] {animation-delay:8s;}
	#z37117 path[clip-path="url(#z37117c9)"] {animation-delay:9s;}
	#z37117 path[clip-path="url(#z37117c10)"] {animation-delay:10s;}
	#z37117 path {fill:#ccc;}
]]>
</style>
<g transform="scale(1,-1) translate(0,-900)">
	<path id="z37117d1" d="M386 656Q479 680 483 682Q490 689 487 697Q480 707 454 714Q421 720 390 704L334 687Q286 675 232 670Q198 664 223 649Q259 628 315 642Q322 645 334 645L386 656Z"/>
	<path id="z37117d2" d="M374 533Q380 597 386 656L390 704Q391 744 409 803Q412 813 393 828Q359 847 336 852Q320 856 312 847Q305 840 312 825Q331 800 331 781Q332 736 334 687L334 645Q334 587 332 523L374 533Z"/>
	<path id="z37117d3" d="M433 506Q499 521 580 530Q596 531 598 540Q599 553 580 563Q547 578 474 556L410 541Q391 538 374 533L332 523Q95 484 95 482Q94 481 93 478Q90 468 105 456Q145 428 189 441Q295 475 366 492Q367 493 373 493L433 506Z"/>
	<path id="z37117d4" d="M333 389Q345 404 358 417Q398 466 433 506L474 556Q535 632 554 658Q578 692 602 706Q615 713 615 722Q614 729 602 734Q571 750 544 753Q528 754 523 738Q513 683 410 541L373 493Q333 447 285 390L265 367Q258 361 253 353Q171 263 50 160Q43 156 45 153Q46 150 54 152Q121 180 154 209Q214 261 273 322L333 389Z"/>
	<path id="z37117d5" d="M285 390Q278 394 269 397Q262 398 257 391Q254 387 260 378Q261 372 265 367L273 322Q277 205 264 156Q252 116 279 83Q289 73 296 83Q305 93 309 114L314 148Q315 166 316 240L317 271Q317 337 320 355L285 390Z"/>
	<path id="z37117d6" d="M441 123Q456 99 468 74Q478 55 488 52Q498 52 507 74Q522 117 517 215Q510 338 520 368Q527 387 516 396Q509 406 474 423Q459 429 382 402Q367 401 333 389L310.79527559055117 364.20472440944883L320 355Q425 382 430 382Q446 383 452 378Q462 368 459 223Q460 171 455 161Q451 151 438 154L436 154L441 123Z"/>
	<path id="z37117d7" d="M316 240Q376 252 420 257Q442 261 433 273Q423 286 399 290Q360 293 317 271L316 240Z"/>
	<path id="z37117d8" d="M309 114Q313 114 320 115Q357 122 441 123L436 154Q432 157 428 160Q413 169 384 162Q345 155 314 148L309 114Z"/>
	<path id="z37117d9" d="M700 630Q707 633 714 636Q783 666 795 659Q805 653 797 632Q737 485 737 482Q736 470 758 462Q879 374 863 286Q859 276 852 268Q839 261 816 268Q782 278 751 286Q744 289 743 281Q744 274 758 262Q824 213 832 188Q839 173 853 170Q866 169 882 180Q921 228 922 286Q923 376 801 472Q759 493 835 587Q857 623 888 641Q916 659 891 677Q854 708 830 718Q812 724 773 697Q761 691 689 661L700 630Z"/>
	<path id="z37117d10" d="M637 -38Q643 -63 650 -73Q656 -80 663 -78Q678 -69 684 -9Q694 81 691 170Q691 186 690 559Q690 586 700 630L689 661Q656 683 641 686Q628 690 612 681Q603 674 611 663Q635 596 637 592Q637 270 634 169Q631 15 637 -38Z"/>
	<defs>
		<clipPath id="z37117c1"><use xlink:href="#z37117d1"/></clipPath>
		<clipPath id="z37117c2"><use xlink:href="#z37117d2"/></clipPath>
		<clipPath id="z37117c3"><use xlink:href="#z37117d3"/></clipPath>
		<clipPath id="z37117c4"><use xlink:href="#z37117d4"/></clipPath>
		<clipPath id="z37117c5"><use xlink:href="#z37117d5"/></clipPath>
		<clipPath id="z37117c6"><use xlink:href="#z37117d6"/></clipPath>
		<clipPath id="z37117c7"><use xlink:href="#z37117d7"/></clipPath>
		<clipPath id="z37117c8"><use xlink:href="#z37117d8"/></clipPath>
		<clipPath id="z37117c9"><use xlink:href="#z37117d9"/></clipPath>
		<clipPath id="z37117c10"><use xlink:href="#z37117d10"/></clipPath>
	</defs>
	<path pathLength="2999" clip-path="url(#z37117c1)" d="M225 659L484 691"/>
	<path pathLength="2999" clip-path="url(#z37117c2)" d="M315 846L369 792L345 527"/>
	<path pathLength="2999" clip-path="url(#z37117c3)" d="M99 475L173 467L593 548"/>
	<path pathLength="2999" clip-path="url(#z37117c4)" d="M605 724L550 714L275 351L53 157"/>
	<path pathLength="2999" clip-path="url(#z37117c5)" d="M265 389L295 331L283 83"/>
	<path pathLength="2999" clip-path="url(#z37117c6)" d="M318 366L439 402L488 378L486 58"/>
	<path pathLength="2999" clip-path="url(#z37117c7)" d="M320 248L430 270"/>
	<path pathLength="2999" clip-path="url(#z37117c8)" d="M318 123L438 135"/>
	<path pathLength="2999" clip-path="url(#z37117c9)" d="M699 637L807 687L851 652L762 485L869 373L889 267L853 218L751 279"/>
	<path pathLength="2999" clip-path="url(#z37117c10)" d="M614 678L666 609L658 -72"/>
</g>
</svg>