<!--
AnimCJK 2016-2018 Copyright Francois Mizessyn - https://github.com/parsimonhi/animCJK
Derived from:
    MakeMeAHanzi project - https://github.com/skishore/makemeahanzi
    Arphic PL KaitiM GB - https://apps.ubuntu.com/cat/applications/precise/fonts-arphic-gkai00mp/
    Arphic PL UKai - https://apps.ubuntu.com/cat/applications/fonts-arphic-ukai/
You can redistribute and/or modify this file under the terms of the Arphic Public License
as published by Arphic Technology Co., Ltd.
You should have received a copy of this license (the directory "APL") along with this file;
if not, see http://ftp.gnu.org/non-gnu/chinese-fonts-truetype/LICENSE.
-->
<svg id="z37112" class="acjk" version="1.1" viewBox="0 0 1024 1024" xmlns="http://www.w3.org/2000/svg" xmlns:xlink="http://www.w3.org/1999/xlink">
<style>
<![CDATA[
@keyframes z37112k {
	from {
		stroke:#c00;
		stroke-dashoffset:3334;
	}
	75% {
		stroke:#c00;
		stroke-dashoffset:0;
	}
	to {
		stroke:#000;
	}
}
#z37112 path[clip-path] {
	animation:z37112k 1s linear both;
	stroke-dasharray:3334;
	stroke-width:128;
	stroke-linecap:round;
	fill:none;
}
#z37112 path[clip-path="url(#z37112c1)"] {animation-delay:1s;}
#z37112 path[clip-path="url(#z37112c2)"] {animation-delay:2s;}
#z37112 path[clip-path="url(#z37112c3)"] {animation-delay:3s;}
#z37112 path[clip-path="url(#z37112c4)"] {animation-delay:4s;}
#z37112 path[clip-path="url(#z37112c5)"] {animation-delay:5s;}
#z37112 path[clip-path="url(#z37112c6)"] {animation-delay:6s;}
#z37112 path[clip-path="url(#z37112c7)"] {animation-delay:7s;}
#z37112 path[clip-path="url(#z37112c8)"] {animation-delay:8s;}
#z37112 path[clip-path="url(#z37112c9)"] {animation-delay:9s;}
#z37112 path[clip-path="url(#z37112c10)"] {animation-delay:10s;}
#z37112 path {fill:#ccc;}
]]>
</style>
<path id="z37112d1" d="M222 198Q279 267 294 269Q303 270 309 259Q315 247 311 220Q308 201 281 184Q218 150 204 153Q200 156 199 167Q200 177 222 198 Z"/>
<path id="z37112d2" d="M367 301Q407 258 430 229Q478 162 501 146Q517 133 504 119Q488 107 462 100Q438 93 428 99Q418 103 423 114Q435 141 347 303Q346 304 346 305L367 301 Z"/>
<path id="z37112d3" d="M193 338Q181 332 152 327Q140 324 137 329Q130 336 139 352Q170 416 187 520Q190 551 208 573Q226 595 231 579Q234 570 235 559L234 535Q233 523 231 510Q212 402 207 368L193 338 Z"/>
<path id="z37112d4" d="M453 526Q459 539 471 539Q484 536 490 523Q500 505 517 422Q530 374 561 345Q577 330 562 317Q546 302 498 281Q485 274 423 290Q414 290 367 301L346 305Q306 312 270 321Q225 331 193 338L207 368Q206 367 208 367Q242 355 302 344L334 337Q449 312 469 322Q479 326 476 357Q463 472 454 496Q453 496 453 497L453 526 Z"/>
<path id="z37112d5" d="M364 442Q395 435 425 430Q446 426 437 415Q427 402 405 399Q389 398 367 404L318 420Q284 430 254 440Q239 444 258 457Q265 463 283 459Q301 455 319 452L364 442 Z"/>
<path id="z37112d6" d="M361 540Q409 530 453 526L453 497Q423 485 362 506L318 516Q273 526 234 535L235 559Q244 560 257 558Q287 552 318 547L361 540 Z"/>
<path id="z37112d7" d="M361 662Q440 644 540 630Q556 629 558 620Q559 607 540 597Q512 585 489 591Q416 607 361 622L314 633Q158 663 81 672Q68 673 65 682Q61 692 77 704Q117 732 161 719Q249 689 312 673L361 662 Z"/>
<path id="z37112d8" d="M312 673Q296 823 302 837Q308 861 321 880Q331 898 340 902Q350 903 356 891Q368 860 365 830Q362 742 361 662L361 622Q361 579 361 540L362 506Q362 469 364 442L367 404Q368 389 371 379Q372 366 366 361Q348 345 334 337L302 344Q303 345 305 349Q317 368 318 420L319 452Q319 480 318 516L318 547Q317 563 317 583Q316 608 314 633L312 673 Z"/>
<path id="z37112d9" d="M672 254Q777 206 797 217Q807 224 799 246Q748 376 748 379Q747 391 770 399Q860 472 864 559Q864 587 849 602Q836 612 808 606Q766 597 731 592Q722 591 723 599Q726 606 741 617Q817 660 834 690Q841 703 854 705Q866 706 880 695Q923 649 928 589Q935 499 815 388Q776 366 829 305Q854 257 894 236Q925 218 898 198Q858 167 833 155Q815 149 799 160Q772 181 671 217Q664 218 658 222L672 254 Z"/>
<path id="z37112d10" d="M609 910Q615 935 622 945Q628 952 635 950Q650 941 656 880Q665 792 663 706Q663 690 662 323Q662 314 672 254L658 222Q627 200 613 198Q600 194 584 203Q575 210 583 221Q587 231 595 243Q608 268 610 305Q611 462 606 706Q603 859 609 910 Z"/>
<defs>
	<clipPath id="z37112c1"><use xlink:href="#z37112d1"/></clipPath>
	<clipPath id="z37112c2"><use xlink:href="#z37112d2"/></clipPath>
	<clipPath id="z37112c3"><use xlink:href="#z37112d3"/></clipPath>
	<clipPath id="z37112c4"><use xlink:href="#z37112d4"/></clipPath>
	<clipPath id="z37112c5"><use xlink:href="#z37112d5"/></clipPath>
	<clipPath id="z37112c6"><use xlink:href="#z37112d6"/></clipPath>
	<clipPath id="z37112c7"><use xlink:href="#z37112d7"/></clipPath>
	<clipPath id="z37112c8"><use xlink:href="#z37112d8"/></clipPath>
	<clipPath id="z37112c9"><use xlink:href="#z37112d9"/></clipPath>
	<clipPath id="z37112c10"><use xlink:href="#z37112d10"/></clipPath>
</defs>
<path pathLength="3333" clip-path="url(#z37112c1)" d="M208 161L279 219L292 264"/>
<path pathLength="3333" clip-path="url(#z37112c2)" d="M504 135L446 140L353 299"/>
<path pathLength="3333" clip-path="url(#z37112c3)" d="M141 335L179 374L225 579"/>
<path pathLength="3333" clip-path="url(#z37112c4)" d="M200 339L460 300L500 312L523 337L470 534"/>
<path pathLength="3333" clip-path="url(#z37112c5)" d="M252 446L435 416"/>
<path pathLength="3333" clip-path="url(#z37112c6)" d="M239 551L450 507"/>
<path pathLength="3333" clip-path="url(#z37112c7)" d="M71 685L134 694L553 614"/>
<path pathLength="3333" clip-path="url(#z37112c8)" d="M310 348L343 379L342 897"/>
<path pathLength="3333" clip-path="url(#z37112c9)" d="M667 227L808 189L856 221L775 377L879 502L889 606L849 656L733 601"/>
<path pathLength="3333" clip-path="url(#z37112c10)" d="M588 211L638 260L631 945"/>
</svg>