<!--
AnimCJK 2016-2019 Copyright Francois Mizessyn - https://github.com/parsimonhi/animCJK
Derived from:
    MakeMeAHanzi project - https://github.com/skishore/makemeahanzi
    Arphic PL KaitiM GB font
    Arphic PL UKai font
You can redistribute and/or modify this file under the terms of the Arphic Public License
as published by Arphic Technology Co., Ltd.
You should have received a copy of this license along with this file.
If not, see http://ftp.gnu.org/non-gnu/chinese-fonts-truetype/LICENSE.
-->
<svg id="z37187" class="acjk" version="1.1" viewBox="0 0 1024 1024" xmlns="http://www.w3.org/2000/svg" xmlns:xlink="http://www.w3.org/1999/xlink">
<style>
<![CDATA[
@keyframes zk {
	to {
		stroke-dashoffset:0;
	}
}
svg.acjk path[clip-path] {
	--t:0.8s;
	animation:zk var(--t) linear forwards var(--d);
	stroke-dasharray:3337;
	stroke-dashoffset:3339;
	stroke-width:128;
	stroke-linecap:round;
	fill:none;
	stroke:#000;
}
svg.acjk path[id] {fill:#ccc;}
]]>
</style>
<path id="z37187d1" d="M369 196Q525 160 527 158Q534 151 531 143Q524 133 498 126Q470 120 443 131Q404 144 363 155Q317 165 264 170Q230 176 255 191Q289 209 338 202C359 198 359 198 369 196Z"/>
<path id="z37187d2" d="M211 325Q201 309 192 302Q176 290 175 313Q181 346 137 392Q119 411 147 461Q160 483 177 459Q189 440 197 411Q207 375 215 355Q216 351 216 347C216 339 216 331 211 325Z"/>
<path id="z37187d3" d="M394 311Q479 286 506 289Q521 296 519 303Q520 307 504 357Q500 367 505 371Q511 374 523 364Q563 334 596 323Q624 313 623 307Q622 298 561 260Q540 248 447 272Q426 273 395 284C368 290 368 290 355 293Q286 308 211 325C204 326 209 344 216 347Q234 356 283 341Q332 323 356 320C381 314 381 314 394 311Z"/>
<path id="z37187d4" d="M356 320Q359 371 343 475Q336 505 361 542Q370 551 377 542Q395 517 395 423Q395 368 394 311C395 293 395 293 395 284Q396 259 401 236Q405 217 389 208Q379 201 369 196C360 191 338 191 338 202Q337 205 339 211Q354 244 355 293C356 311 356 311 356 320Z"/>
<path id="z37187d5" d="M246 415Q288 448 307 445Q317 444 318 430Q317 420 306 407Q285 389 244 395Q237 395 239 404Q239 410 246 415Z"/>
<path id="z37187d6" d="M238 496Q278 532 298 529Q308 528 310 513Q309 503 299 489Q277 470 237 475Q230 475 231 484Q231 491 238 496Z"/>
<path id="z37187d7" d="M431 395Q471 428 490 422Q500 421 501 405Q500 395 488 382Q469 369 428 374Q421 375 423 384Q424 390 431 395Z"/>
<path id="z37187d8" d="M425 476Q470 515 490 513Q500 512 502 497Q502 487 491 473Q482 463 464 460Q436 454 425 455Q418 455 419 464Q419 471 425 476Z"/>
<path id="z37187d9" d="M129 650Q122 646 92 641Q83 638 80 643Q76 647 82 660Q104 700 119 769Q122 790 135 803Q150 819 153 808Q156 799 155 786C153 769 153 769 152 760Q139 691 136 671C135 664 136 653 129 650Z"/>
<path id="z37187d10" d="M235 739Q241 679 255 661Q270 640 251 632Q236 625 214 615Q201 609 187 619Q174 631 154 640Q144 644 129 650C122 653 129 674 136 671Q160 664 180 657Q193 653 197 658Q203 664 197 739C197 752 233 751 235 739Z"/>
<path id="z37187d11" d="M155 786Q164 786 174 782Q196 773 247 762Q256 759 255 752Q254 746 235 739C223 735 209 735 197 739Q193 740 190 742Q169 752 152 760C144 763 146 786 155 786Z"/>
<path id="z37187d12" d="M300 613Q291 609 270 604Q261 601 258 605Q254 609 259 622Q277 659 288 720Q289 739 300 751Q313 767 317 756Q320 749 320 736C319 719 319 719 318 710Q309 646 309 631C309 624 306 615 300 613Z"/>
<path id="z37187d13" d="M400 689Q409 638 423 621Q436 602 420 594Q407 588 387 578Q374 572 361 581Q351 591 334 599Q319 606 300 613C294 615 302 632 309 631Q316 630 325 626Q343 620 358 616Q368 613 371 617Q377 621 373 644Q369 666 364 693C362 705 398 701 400 689Z"/>
<path id="z37187d14" d="M320 736Q324 730 417 715Q424 714 425 707Q425 701 401 689C400 689 400 689 400 689C389 685 375 689 364 693Q339 702 318 710C310 713 312 740 320 736Z"/>
<path id="z37187d15" d="M466 578Q457 574 443 572Q434 571 432 574Q428 578 433 589Q451 626 461 686Q462 704 473 716Q485 731 489 720Q490 713 491 701C490 685 490 685 489 677Q479 613 479 597C479 589 473 581 466 578Z"/>
<path id="z37187d16" d="M573 663Q585 611 601 595Q617 577 600 568Q587 561 568 548Q555 541 543 549Q528 559 508 566Q490 572 466 578C458 580 472 599 479 597Q480 596 532 584Q545 581 549 586Q552 589 537 662C535 674 571 675 573 663Z"/>
<path id="z37187d17" d="M491 701Q498 702 507 699Q531 693 585 687Q592 686 593 679Q593 673 573 663C563 657 549 660 537 662Q536 662 535 662Q510 671 489 677C481 679 483 701 491 701Z"/>
<path id="z37187d18" d="M702 283Q715 274 789 248Q793 244 805 250Q815 256 809 279Q793 325 780 369Q756 435 757 436Q757 448 778 454Q881 523 867 602Q864 606 859 613Q847 623 823 620Q786 616 754 612Q745 611 747 619Q750 626 765 636Q834 673 850 697Q859 710 871 711Q881 712 896 700Q929 657 929 607Q930 529 821 444Q784 426 849 323Q849 304 883 275Q889 268 898 264Q926 245 900 227Q860 199 837 190Q819 184 804 195Q783 214 763 223Q730 236 694 251C684 255 693 290 702 283Z"/>
<path id="z37187d19" d="M646 919Q650 944 658 953Q664 960 671 958Q687 948 691 891Q700 806 696 720Q692 648 694 369Q694 339 697 322Q700 300 702 283C704 272 703 258 694 251Q663 229 646 226Q634 222 618 231Q609 238 617 249Q641 306 643 321Q643 894 646 919Z"/>
<defs>
	<clipPath id="z37187c1"><use xlink:href="#z37187d1"/></clipPath>
	<clipPath id="z37187c2"><use xlink:href="#z37187d2"/></clipPath>
	<clipPath id="z37187c3"><use xlink:href="#z37187d3"/></clipPath>
	<clipPath id="z37187c4"><use xlink:href="#z37187d4"/></clipPath>
	<clipPath id="z37187c5"><use xlink:href="#z37187d5"/></clipPath>
	<clipPath id="z37187c6"><use xlink:href="#z37187d6"/></clipPath>
	<clipPath id="z37187c7"><use xlink:href="#z37187d7"/></clipPath>
	<clipPath id="z37187c8"><use xlink:href="#z37187d8"/></clipPath>
	<clipPath id="z37187c9"><use xlink:href="#z37187d9"/></clipPath>
	<clipPath id="z37187c10"><use xlink:href="#z37187d10"/></clipPath>
	<clipPath id="z37187c11"><use xlink:href="#z37187d11"/></clipPath>
	<clipPath id="z37187c12"><use xlink:href="#z37187d12"/></clipPath>
	<clipPath id="z37187c13"><use xlink:href="#z37187d13"/></clipPath>
	<clipPath id="z37187c14"><use xlink:href="#z37187d14"/></clipPath>
	<clipPath id="z37187c15"><use xlink:href="#z37187d15"/></clipPath>
	<clipPath id="z37187c16"><use xlink:href="#z37187d16"/></clipPath>
	<clipPath id="z37187c17"><use xlink:href="#z37187d17"/></clipPath>
	<clipPath id="z37187c18"><use xlink:href="#z37187d18"/></clipPath>
	<clipPath id="z37187c19"><use xlink:href="#z37187d19"/></clipPath>
</defs>
<path style="--d:1s;" pathLength="3333" clip-path="url(#z37187c1)" d="M256 180L528 146"/>
<path style="--d:2s;" pathLength="3333" clip-path="url(#z37187c2)" d="M184 304L193 349L152 463"/>
<path style="--d:3s;" pathLength="3333" clip-path="url(#z37187c3)" d="M218 332L522 274L556 291L566 324L512 366"/>
<path style="--d:4s;" pathLength="3333" clip-path="url(#z37187c4)" d="M346 207L375 233L367 542"/>
<path style="--d:5s;" pathLength="3333" clip-path="url(#z37187c5)" d="M247 401L310 436"/>
<path style="--d:6s;" pathLength="3333" clip-path="url(#z37187c6)" d="M236 483L302 522"/>
<path style="--d:7s;" pathLength="3333" clip-path="url(#z37187c7)" d="M430 380L491 417"/>
<path style="--d:8s;" pathLength="3333" clip-path="url(#z37187c8)" d="M424 461L497 504"/>
<path style="--d:9s;" pathLength="3333" clip-path="url(#z37187c9)" d="M87 650L115 678L142 807"/>
<path style="--d:10s;" pathLength="3333" clip-path="url(#z37187c10)" d="M135 654L196 634L229 654L209 736"/>
<path style="--d:11s;" pathLength="3333" clip-path="url(#z37187c11)" d="M162 777L248 755"/>
<path style="--d:12s;" pathLength="3333" clip-path="url(#z37187c12)" d="M264 610L288 636L311 753"/>
<path style="--d:13s;" pathLength="3333" clip-path="url(#z37187c13)" d="M309 617L367 596L399 609L372 688"/>
<path style="--d:14s;" pathLength="3333" clip-path="url(#z37187c14)" d="M323 727L419 705"/>
<path style="--d:15s;" pathLength="3333" clip-path="url(#z37187c15)" d="M438 576L482 716"/>
<path style="--d:16s;" pathLength="3333" clip-path="url(#z37187c16)" d="M477 583L539 566L578 581L549 660"/>
<path style="--d:17s;" pathLength="3333" clip-path="url(#z37187c17)" d="M495 693L587 679"/>
<path style="--d:18s;" pathLength="3333" clip-path="url(#z37187c18)" d="M706 273L809 218L861 254L783 433L875 525L897 616L862 664L754 619"/>
<path style="--d:19s;" pathLength="3333" clip-path="url(#z37187c19)" d="M621 237L664 272L671 311L664 951"/>
</svg>