<!--
AnimCJK 2016-2017 Copyright Francois Mizessyn, http://gooo.free.fr/animCJK/
Derived from:
    MakeMeAHanzi project - https://github.com/skishore/makemeahanzi
    Arphic PL KaitiM GB - https://apps.ubuntu.com/cat/applications/precise/fonts-arphic-gkai00mp/
    Arphic PL UKai - https://apps.ubuntu.com/cat/applications/fonts-arphic-ukai/
You can redistribute and/or modify this file under the terms of the Arphic Public License
as published by Arphic Technology Co., Ltd.
You should have received a copy of this license (the directory "APL") along with this file;
if not, see http://ftp.gnu.org/non-gnu/chinese-fonts-truetype/LICENSE.
-->
<svg id="z37228" class="acjk" version="1.1" viewBox="0 0 1024 1024" xmlns="http://www.w3.org/2000/svg" xmlns:xlink="http://www.w3.org/1999/xlink">
<style>
<![CDATA[
	@keyframes z37228k {
		from {
			stroke:#c00;
			stroke-dashoffset:3000;
		}
		75% {
			stroke:#c00;
			stroke-dashoffset:0;
		}
		to {
			stroke:#000;
		}
	}
	#z37228 path[clip-path] {
		animation:z37228k 1s linear both;
		stroke-dasharray:3000;
		stroke-width:128;
		stroke-linecap:round;
		fill:none;
	}
	#z37228 path[clip-path="url(#z37228c1)"] {animation-delay:1s;}
	#z37228 path[clip-path="url(#z37228c2)"] {animation-delay:2s;}
	#z37228 path[clip-path="url(#z37228c3)"] {animation-delay:3s;}
	#z37228 path[clip-path="url(#z37228c4)"] {animation-delay:4s;}
	#z37228 path[clip-path="url(#z37228c5)"] {animation-delay:5s;}
	#z37228 path[clip-path="url(#z37228c6)"] {animation-delay:6s;}
	#z37228 path[clip-path="url(#z37228c7)"] {animation-delay:7s;}
	#z37228 path[clip-path="url(#z37228c8)"] {animation-delay:8s;}
	#z37228 path[clip-path="url(#z37228c9)"] {animation-delay:9s;}
	#z37228 path[clip-path="url(#z37228c10)"] {animation-delay:10s;}
	#z37228 path[clip-path="url(#z37228c11)"] {animation-delay:11s;}
	#z37228 path[clip-path="url(#z37228c12)"] {animation-delay:12s;}
	#z37228 path[clip-path="url(#z37228c13)"] {animation-delay:13s;}
	#z37228 path {fill:#ccc;}
]]>
</style>
<g transform="scale(1,-1) translate(0,-900)">
	<path id="z37228d1" d="M343 694Q481 722 486 726Q495 733 490 741Q484 751 458 760Q430 766 403 756Q351 740 294 727Q231 714 157 709Q124 705 147 689Q169 674 204 673L236 676Q267 682 299 687L343 694Z"/>
	<path id="z37228d2" d="M162 527Q150 539 131 545Q122 549 112 545Q105 541 110 529Q143 442 123 250Q99 160 135 121Q144 109 154 120Q164 135 165 154L168 190Q168 203 168 218Q171 491 175 498L162 527Z"/>
	<path id="z37228d3" d="M363 173Q391 137 411 103Q418 87 429 88Q444 89 458 118Q474 152 471 194Q464 294 460 478Q459 506 473 526Q482 538 473 547Q457 565 408 585Q393 592 345 571L312 560Q290 554 266 547L231 539Q188 532 162 527L175 498Q191 499 215 506Q221 507 230 509L264 516Q286 522 310 527L341 534Q377 549 398 534Q423 513 407 204Q406 201 406 197Q402 179 385 188L363 173Z"/>
	<path id="z37228d4" d="M204 673Q203 669 207 664Q225 646 231 539L230 509Q224 454 194 361Q194 354 200 357Q206 358 225 387Q256 436 264 516L266 547Q267 574 266 599Q263 630 266 645Q270 655 263 663Q253 672 236 676L204 673Z"/>
	<path id="z37228d5" d="M345 571Q349 616 365 666Q369 678 362 685Q355 689 343 694L299 687Q314 656 315 635Q315 629 312 560L310 527Q309 506 307 482Q300 400 335 371Q339 367 365 367Q392 368 400 381Q407 391 402 396Q401 397 366 404Q333 404 341 534L345 571Z"/>
	<path id="z37228d6" d="M202 282Q186 276 207 263Q213 260 348 287Q372 293 362 304Q350 317 324 321Q306 322 202 282Z"/>
	<path id="z37228d7" d="M165 154Q166 154 171 154Q232 167 363 173L385 188Q343 230 287 211Q223 199 168 190L165 154Z"/>
	<path id="z37228d8" d="M488 436Q504 349 521 338Q530 331 542 342Q549 349 550 369Q551 388 536 408Q514 442 502 453Q496 459 491 451Q487 445 488 436Z"/>
	<path id="z37228d9" d="M542 660Q575 627 572 409Q571 406 571 400Q567 328 552 269Q528 173 467 44Q463 38 462 32Q461 22 470 26Q482 29 514 78Q628 244 618 532Q618 610 620 631Q626 644 618 655Q602 668 573 678Q555 685 545 679Q535 672 542 660Z"/>
	<path id="z37228d10" d="M632 465Q642 396 658 386Q665 379 678 389Q684 396 686 414Q686 441 646 482Q640 486 635 479Q631 475 632 465Z"/>
	<path id="z37228d11" d="M688 630Q709 558 709 463Q709 316 692 247Q679 199 711 161Q721 149 730 160Q745 184 744 268Q747 571 749 591Q752 609 748 616Q744 631 708 645Q699 649 689 645Q683 641 688 630Z"/>
	<path id="z37228d12" d="M768 468Q777 435 784 399Q787 386 796 380Q802 376 810 382Q819 388 825 408Q832 424 818 450Q782 502 773 506Q769 506 764 498Q763 491 768 468Z"/>
	<path id="z37228d13" d="M894 44Q893 95 892 560Q892 657 909 722Q918 738 915 752Q908 762 849 797Q824 813 803 797Q797 793 805 776Q838 728 839 670Q857 217 821 84Q811 45 838 -22Q845 -40 853 -43Q860 -50 867 -41Q876 -37 886 -15Q896 12 894 44Z"/>
	<defs>
		<clipPath id="z37228c1"><use xlink:href="#z37228d1"/></clipPath>
		<clipPath id="z37228c2"><use xlink:href="#z37228d2"/></clipPath>
		<clipPath id="z37228c3"><use xlink:href="#z37228d3"/></clipPath>
		<clipPath id="z37228c4"><use xlink:href="#z37228d4"/></clipPath>
		<clipPath id="z37228c5"><use xlink:href="#z37228d5"/></clipPath>
		<clipPath id="z37228c6"><use xlink:href="#z37228d6"/></clipPath>
		<clipPath id="z37228c7"><use xlink:href="#z37228d7"/></clipPath>
		<clipPath id="z37228c8"><use xlink:href="#z37228d8"/></clipPath>
		<clipPath id="z37228c9"><use xlink:href="#z37228d9"/></clipPath>
		<clipPath id="z37228c10"><use xlink:href="#z37228d10"/></clipPath>
		<clipPath id="z37228c11"><use xlink:href="#z37228d11"/></clipPath>
		<clipPath id="z37228c12"><use xlink:href="#z37228d12"/></clipPath>
		<clipPath id="z37228c13"><use xlink:href="#z37228d13"/></clipPath>
	</defs>
	<path pathLength="2999" clip-path="url(#z37228c1)" d="M150 697L486 736"/>
	<path pathLength="2999" clip-path="url(#z37228c2)" d="M118 537L148 493L144 124"/>
	<path pathLength="2999" clip-path="url(#z37228c3)" d="M172 523L386 563L440 530L437 177L413 137L370 173"/>
	<path pathLength="2999" clip-path="url(#z37228c4)" d="M213 668L243 644L248 531L200 365"/>
	<path pathLength="2999" clip-path="url(#z37228c5)" d="M307 685L339 662L328 418L349 388L396 388"/>
	<path pathLength="2999" clip-path="url(#z37228c6)" d="M200 275L356 299"/>
	<path pathLength="2999" clip-path="url(#z37228c7)" d="M169 161L377 192"/>
	<path pathLength="2999" clip-path="url(#z37228c8)" d="M499 446L535 340"/>
	<path pathLength="2999" clip-path="url(#z37228c9)" d="M546 672L590 635L587 339L550 191L468 33"/>
	<path pathLength="2999" clip-path="url(#z37228c10)" d="M643 473L672 388"/>
	<path pathLength="2999" clip-path="url(#z37228c11)" d="M693 640L724 592L722 164"/>
	<path pathLength="2999" clip-path="url(#z37228c12)" d="M772 498L806 385"/>
	<path pathLength="2999" clip-path="url(#z37228c13)" d="M808 790L874 733L860 -40"/>
</g>
</svg>