<!--
AnimCJK 2016-2019 Copyright Francois Mizessyn - https://github.com/parsimonhi/animCJK
Derived from:
    MakeMeAHanzi project - https://github.com/skishore/makemeahanzi
    Arphic PL KaitiM GB font
    Arphic PL UKai font
You can redistribute and/or modify this file under the terms of the Arphic Public License
as published by Arphic Technology Co., Ltd.
You should have received a copy of this license along with this file.
If not, see http://ftp.gnu.org/non-gnu/chinese-fonts-truetype/LICENSE.
-->
<svg id="z37240" class="acjk" version="1.1" viewBox="0 0 1024 1024" xmlns="http://www.w3.org/2000/svg" xmlns:xlink="http://www.w3.org/1999/xlink">
<style>
<![CDATA[
@keyframes zk {
	to {
		stroke-dashoffset:0;
	}
}
svg.acjk path[clip-path] {
	--t:0.8s;
	animation:zk var(--t) linear forwards var(--d);
	stroke-dasharray:3337;
	stroke-dashoffset:3339;
	stroke-width:128;
	stroke-linecap:round;
	fill:none;
	stroke:#000;
}
svg.acjk path[id] {fill:#ccc;}
]]>
</style>
<path id="z37240d1" d="M337 213C356 208 377 202 401 197C425 191 440 185 444 182C448 177 450 172 447 167C442 160 431 153 413 150C397 146 359 157 300 177C257 190 210 198 159 206C136 209 133 218 150 227C170 238 193 245 217 240C238 235 238 235 248 233C264 229 280 226 298 222C324 216 324 216 337 213Z"/>
<path id="z37240d2" d="M156 386C143 375 129 366 115 363C109 361 104 364 101 369C99 371 100 375 104 383C132 446 135 545 110 678C100 725 95 751 96 759C97 772 107 792 114 800C121 808 126 808 133 800C138 792 144 783 147 771C152 748 152 748 154 736C157 719 159 665 162 573C163 488 165 435 169 413C171 403 164 392 156 386Z"/>
<path id="z37240d3" d="M458 663C458 635 456 608 455 582C455 559 455 537 455 515C455 510 455 510 455 507C455 437 455 395 460 384C464 371 462 362 456 356C450 350 437 339 414 329C400 322 376 331 340 343C320 349 320 349 310 352C297 355 285 358 273 362C249 368 249 368 237 371C212 377 185 380 156 386C146 388 160 418 169 413C175 409 197 401 236 392C260 386 260 386 272 383C282 380 295 377 309 375C328 372 328 372 337 370C369 364 385 367 392 374C401 384 403 433 403 522C403 540 403 540 403 549C403 655 402 720 389 730C384 737 371 744 375 751C387 769 397 789 408 810C414 822 421 831 428 832C434 833 441 824 447 810C459 778 458 735 458 682C458 669 458 669 458 663Z"/>
<path id="z37240d4" d="M217 240C229 256 240 299 237 371C236 385 236 385 236 392C233 442 219 499 190 562C188 565 187 567 187 571C186 575 187 577 192 576C199 573 207 562 219 545C239 512 269 445 272 383C273 369 273 369 273 362C275 306 273 273 276 264C278 257 278 250 274 246C268 240 258 237 248 233C238 229 211 232 217 240Z"/>
<path id="z37240d5" d="M340 343C343 310 349 275 360 240C362 231 361 226 357 222C352 218 345 215 337 213C324 210 291 211 298 222C306 230 311 260 312 313C312 325 310 338 310 352C309 367 309 367 309 375C308 391 307 409 306 428C301 486 311 524 336 544C341 548 354 551 377 552C387 552 395 551 403 549C412 548 412 524 403 522C385 518 363 514 358 510C337 494 328 448 337 370C339 352 339 352 340 343Z"/>
<path id="z37240d6" d="M206 636C195 639 196 644 210 653C214 655 221 657 230 656C274 649 312 644 344 639C358 636 363 631 357 623C350 614 339 608 323 606C307 603 268 614 206 636Z"/>
<path id="z37240d7" d="M147 771Q183 759 375 751C383 751 395 736 389 730Q382 723 366 711Q350 701 319 708Q228 727 154 736C142 738 135 773 147 771Z"/>
<path id="z37240d8" d="M776 248C713 254 648 264 583 279C576 280 570 281 569 279C567 276 569 271 573 266C637 173 676 119 691 105C698 98 701 91 697 84C692 75 675 64 645 51C634 46 625 45 620 48C611 51 610 60 614 73C626 115 600 175 532 253C520 266 503 278 485 292C476 298 473 305 476 313C479 323 488 334 505 348C512 354 519 354 528 348C558 325 734 284 792 269C801 267 785 248 776 248Z"/>
<path id="z37240d9" d="M792 269Q832 321 839 324Q846 325 853 318Q865 308 858 270Q855 239 794 198Q754 173 732 162Q725 156 722 167Q721 177 728 188Q750 213 776 248C787 262 787 262 792 269Z"/>
<path id="z37240d10" d="M455 515C485 515 533 476 598 400C602 394 604 388 603 384C601 377 593 373 580 370C565 366 555 365 550 367C546 368 544 371 543 379C539 407 509 449 455 506C454 506 455 506 455 507C453 509 452 515 455 515Z"/>
<path id="z37240d11" d="M749 392C779 412 811 434 844 460C852 466 861 469 869 468C875 467 879 463 881 456C883 447 880 435 875 420C869 403 855 386 827 376C771 355 735 348 724 353C720 354 720 360 722 367C724 373 733 381 749 392Z"/>
<path id="z37240d12" d="M615 526C630 503 640 487 647 478C651 471 653 464 651 459C648 452 639 448 624 446C607 443 596 444 590 446C585 447 583 451 583 459C579 503 537 571 458 663C454 667 452 684 458 682C486 674 515 647 552 607C560 598 560 598 564 594C575 581 586 567 596 554C609 535 609 535 615 526Z"/>
<path id="z37240d13" d="M643 728C603 778 542 815 463 841C454 843 454 847 462 853C466 855 481 859 506 855C562 845 627 809 672 764C683 752 693 738 702 724C725 688 743 640 765 585C771 567 782 553 795 542C806 531 809 522 801 515C793 508 779 500 760 493C745 487 730 491 713 499C698 505 681 511 662 516C649 519 633 522 615 526C604 528 585 552 596 554C612 556 632 557 654 550C677 542 690 534 696 535C710 538 714 548 710 565C698 614 684 658 665 693C658 705 651 717 643 728Z"/>
<path id="z37240d14" d="M672 764C726 831 762 865 774 871C806 885 863 887 945 880C957 878 963 877 965 874C966 869 963 865 953 861C921 846 886 831 849 815C806 796 755 769 702 724C677 703 677 703 665 693C651 681 575 603 564 594C560 590 550 602 552 607C552 615 584 655 643 728C662 752 662 752 672 764Z"/>
<defs>
	<clipPath id="z37240c1"><use xlink:href="#z37240d1"/></clipPath>
	<clipPath id="z37240c2"><use xlink:href="#z37240d2"/></clipPath>
	<clipPath id="z37240c3"><use xlink:href="#z37240d3"/></clipPath>
	<clipPath id="z37240c4"><use xlink:href="#z37240d4"/></clipPath>
	<clipPath id="z37240c5"><use xlink:href="#z37240d5"/></clipPath>
	<clipPath id="z37240c6"><use xlink:href="#z37240d6"/></clipPath>
	<clipPath id="z37240c7"><use xlink:href="#z37240d7"/></clipPath>
	<clipPath id="z37240c8"><use xlink:href="#z37240d8"/></clipPath>
	<clipPath id="z37240c9"><use xlink:href="#z37240d9"/></clipPath>
	<clipPath id="z37240c10"><use xlink:href="#z37240d10"/></clipPath>
	<clipPath id="z37240c11"><use xlink:href="#z37240d11"/></clipPath>
	<clipPath id="z37240c12"><use xlink:href="#z37240d12"/></clipPath>
	<clipPath id="z37240c13"><use xlink:href="#z37240d13"/></clipPath>
	<clipPath id="z37240c14"><use xlink:href="#z37240d14"/></clipPath>
</defs>
<path style="--d:1s;" pathLength="3333" clip-path="url(#z37240c1)" d="M147 214L211 219L443 169"/>
<path style="--d:2s;" pathLength="3333" clip-path="url(#z37240c2)" d="M107 373L144 437L122 800"/>
<path style="--d:3s;" pathLength="3333" clip-path="url(#z37240c3)" d="M166 391L380 347L428 371L418 824"/>
<path style="--d:4s;" pathLength="3333" clip-path="url(#z37240c4)" d="M224 242L254 267L251 412L194 569"/>
<path style="--d:5s;" pathLength="3333" clip-path="url(#z37240c5)" d="M306 224L335 246L324 485L346 526L400 532"/>
<path style="--d:6s;" pathLength="3333" clip-path="url(#z37240c6)" d="M209 644L353 625"/>
<path style="--d:7s;" pathLength="3333" clip-path="url(#z37240c7)" d="M151 762L381 733"/>
<path style="--d:8s;" pathLength="3333" clip-path="url(#z37240c8)" d="M617 53L658 97L529 306L784 262"/>
<path style="--d:9s;" pathLength="3333" clip-path="url(#z37240c9)" d="M729 171L828 268L845 319"/>
<path style="--d:10s;" pathLength="3333" clip-path="url(#z37240c10)" d="M 550,374 571,397 462,507"/>
<path style="--d:11s;" pathLength="3333" clip-path="url(#z37240c11)" d="M729 358L875 457"/>
<path style="--d:12s;" pathLength="3333" clip-path="url(#z37240c12)" d="M 592,455 615,473 562,563 464,672"/>
<path style="--d:13s;" pathLength="3333" clip-path="url(#z37240c13)" d="M605 549L709 518L757 535L703 671L599 798L463 846"/>
<path style="--d:14s;" pathLength="3333" clip-path="url(#z37240c14)" d="M560 603L789 832L956 871"/>
</svg>