<!--
AnimCJK 2016-2017 Copyright Francois Mizessyn, http://gooo.free.fr/animCJK/
Derived from:
    MakeMeAHanzi project - https://github.com/skishore/makemeahanzi
    Arphic PL KaitiM GB - https://apps.ubuntu.com/cat/applications/precise/fonts-arphic-gkai00mp/
    Arphic PL UKai - https://apps.ubuntu.com/cat/applications/fonts-arphic-ukai/
You can redistribute and/or modify this file under the terms of the Arphic Public License
as published by Arphic Technology Co., Ltd.
You should have received a copy of this license (the directory "APL") along with this file;
if not, see http://ftp.gnu.org/non-gnu/chinese-fonts-truetype/LICENSE.
-->
<svg id="z37247" class="acjk" version="1.1" viewBox="0 0 1024 1024" xmlns="http://www.w3.org/2000/svg" xmlns:xlink="http://www.w3.org/1999/xlink">
<style>
<![CDATA[
@keyframes z37247k {
	from {
		stroke:#c00;
		stroke-dashoffset:3334;
	}
	75% {
		stroke:#c00;
		stroke-dashoffset:0;
	}
	to {
		stroke:#000;
	}
}
#z37247 path[clip-path] {
	animation:z37247k 1s linear both;
	stroke-dasharray:3334;
	stroke-width:128;
	stroke-linecap:round;
	fill:none;
}
#z37247 path[clip-path="url(#z37247c1)"] {animation-delay:1s;}
#z37247 path[clip-path="url(#z37247c2)"] {animation-delay:2s;}
#z37247 path[clip-path="url(#z37247c3)"] {animation-delay:3s;}
#z37247 path[clip-path="url(#z37247c4)"] {animation-delay:4s;}
#z37247 path[clip-path="url(#z37247c5)"] {animation-delay:5s;}
#z37247 path[clip-path="url(#z37247c6)"] {animation-delay:6s;}
#z37247 path[clip-path="url(#z37247c7)"] {animation-delay:7s;}
#z37247 path[clip-path="url(#z37247c8)"] {animation-delay:8s;}
#z37247 path[clip-path="url(#z37247c9)"] {animation-delay:9s;}
#z37247 path[clip-path="url(#z37247c10)"] {animation-delay:10s;}
#z37247 path[clip-path="url(#z37247c11)"] {animation-delay:11s;}
#z37247 path[clip-path="url(#z37247c12)"] {animation-delay:12s;}
#z37247 path[clip-path="url(#z37247c13)"] {animation-delay:13s;}
#z37247 path[clip-path="url(#z37247c14)"] {animation-delay:14s;}
#z37247 path {fill:#ccc;}
]]>
</style>
<path id="z37247d1" d="M321 224Q354 215 392 208Q426 201 431 195Q440 188 435 179Q428 169 400 161Q370 157 342 168Q303 181 261 192Q215 202 161 208Q125 214 151 230Q173 243 201 244L238 242Q238 241 286 231L321 224 Z"/>
<path id="z37247d2" d="M143 382Q131 370 112 363Q103 359 93 362Q87 366 92 377Q93 386 97 394Q124 443 102 669Q78 757 111 795Q121 807 130 796Q139 781 141 761L144 729Q145 716 145 698Q149 434 152 417Q153 413 153 408L143 382 Z"/>
<path id="z37247d3" d="M356 743Q378 774 396 802Q403 817 413 816Q426 815 440 787Q455 757 450 670Q434 406 455 378Q462 368 455 359Q439 343 396 323Q380 316 368 323Q350 330 331 338L302 348Q280 354 255 361L221 368Q170 377 143 382L153 408Q163 407 182 401Q200 397 219 393L253 386Q275 379 301 374L328 368Q334 365 341 364Q369 357 385 368Q400 383 401 515L401 529Q398 596 392 713Q388 725 378 724L356 743 Z"/>
<path id="z37247d4" d="M201 244Q202 245 204 249Q220 279 221 368L219 393Q216 453 174 555Q171 559 171 563Q170 570 176 568Q198 565 233 479Q233 476 235 474Q235 471 253 386L255 361Q256 331 257 287Q257 278 258 270Q262 261 257 253Q250 247 238 242L201 244 Z"/>
<path id="z37247d5" d="M331 338Q335 296 347 250Q350 240 343 233Q336 227 321 224L286 231Q301 262 303 279Q303 327 302 348L301 374Q292 503 329 531Q335 538 367 539Q392 540 400 530Q400 529 401 529L401 515Q395 509 385 509Q355 506 349 499Q322 477 328 368L331 338 Z"/>
<path id="z37247d6" d="M179 623Q163 627 183 641Q190 647 204 645Q274 635 327 628Q349 624 341 612Q331 597 305 593Q272 589 179 623 Z"/>
<path id="z37247d7" d="M141 761Q153 764 167 762Q228 749 356 743L378 724Q371 715 354 704Q338 694 307 701Q216 720 144 729L141 761 Z"/>
<path id="z37247d8" d="M591 115Q625 137 660 166Q675 178 690 175Q700 174 705 160Q708 144 696 116Q689 95 654 82Q570 60 560 69Q556 73 558 86Q562 96 591 115 Z"/>
<path id="z37247d9" d="M693 491Q708 509 721 514Q731 521 744 501Q757 473 780 327Q786 299 806 274Q816 262 806 250Q790 237 750 215Q729 206 682 225Q661 225 546 266L561 295Q607 276 692 257Q711 253 718 258Q733 274 730 290Q711 450 692 461L693 491 Z"/>
<path id="z37247d10" d="M555 409Q561 409 675 383Q694 377 686 367Q676 355 652 354Q622 351 554 389L555 409 Z"/>
<path id="z37247d11" d="M583 510Q644 497 693 491L692 461Q688 460 681 458Q651 455 557 489L556 527L583 510 Z"/>
<path id="z37247d12" d="M546 266Q527 250 509 242Q491 235 482 241Q472 248 481 262Q538 370 502 756Q499 805 460 853Q448 868 456 890Q466 917 478 928Q491 935 503 919Q521 891 676 778Q695 766 700 758Q704 748 694 748Q687 748 565 803Q549 810 548 795Q555 650 556 527L557 489Q556 447 555 409L554 389Q554 338 561 295L546 266 Z"/>
<path id="z37247d13" d="M707 631Q749 609 774 593Q837 551 860 542Q882 533 872 515Q859 499 835 483Q813 468 799 471Q786 471 790 485Q793 515 736 573Q715 594 693 619L707 631 Z"/>
<path id="z37247d14" d="M693 619Q644 573 583 510L556 527Q575 540 589 560Q787 801 822 812Q855 819 968 797Q984 794 990 786Q993 779 983 776Q824 728 735 655Q722 643 707 631L693 619 Z"/>
<defs>
	<clipPath id="z37247c1"><use xlink:href="#z37247d1"/></clipPath>
	<clipPath id="z37247c2"><use xlink:href="#z37247d2"/></clipPath>
	<clipPath id="z37247c3"><use xlink:href="#z37247d3"/></clipPath>
	<clipPath id="z37247c4"><use xlink:href="#z37247d4"/></clipPath>
	<clipPath id="z37247c5"><use xlink:href="#z37247d5"/></clipPath>
	<clipPath id="z37247c6"><use xlink:href="#z37247d6"/></clipPath>
	<clipPath id="z37247c7"><use xlink:href="#z37247d7"/></clipPath>
	<clipPath id="z37247c8"><use xlink:href="#z37247d8"/></clipPath>
	<clipPath id="z37247c9"><use xlink:href="#z37247d9"/></clipPath>
	<clipPath id="z37247c10"><use xlink:href="#z37247d10"/></clipPath>
	<clipPath id="z37247c11"><use xlink:href="#z37247d11"/></clipPath>
	<clipPath id="z37247c12"><use xlink:href="#z37247d12"/></clipPath>
	<clipPath id="z37247c13"><use xlink:href="#z37247d13"/></clipPath>
	<clipPath id="z37247c14"><use xlink:href="#z37247d14"/></clipPath>
</defs>
<path pathLength="3333" clip-path="url(#z37247c1)" d="M148 217L429 186"/>
<path pathLength="3333" clip-path="url(#z37247c2)" d="M97 367L129 419L117 797"/>
<path pathLength="3333" clip-path="url(#z37247c3)" d="M152 386L379 341L423 371L422 708L396 802"/>
<path pathLength="3333" clip-path="url(#z37247c4)" d="M210 246L236 268L238 367L179 560"/>
<path pathLength="3333" clip-path="url(#z37247c5)" d="M296 235L325 259L323 490L345 519L398 521"/>
<path pathLength="3333" clip-path="url(#z37247c6)" d="M179 631L334 613"/>
<path pathLength="3333" clip-path="url(#z37247c7)" d="M144 754L370 724"/>
<path pathLength="3333" clip-path="url(#z37247c8)" d="M564 75L653 117L694 168"/>
<path pathLength="3333" clip-path="url(#z37247c9)" d="M556 270L716 235L766 265L724 511"/>
<path pathLength="3333" clip-path="url(#z37247c10)" d="M559 401L679 371"/>
<path pathLength="3333" clip-path="url(#z37247c11)" d="M561 516L692 476"/>
<path pathLength="3333" clip-path="url(#z37247c12)" d="M485 248L528 297L535 429L528 730L497 860L513 881L692 757"/>
<path pathLength="3333" clip-path="url(#z37247c13)" d="M796 476L823 531L700 621"/>
<path pathLength="3333" clip-path="url(#z37247c14)" d="M567 528L821 760L983 784"/>
</svg>