<!--
AnimCJK 2016-2019 Copyright Francois Mizessyn - https://github.com/parsimonhi/animCJK
Derived from:
    MakeMeAHanzi project - https://github.com/skishore/makemeahanzi
    Arphic PL KaitiM GB font
    Arphic PL UKai font
You can redistribute and/or modify this file under the terms of the Arphic Public License
as published by Arphic Technology Co., Ltd.
You should have received a copy of this license along with this file.
If not, see http://ftp.gnu.org/non-gnu/chinese-fonts-truetype/LICENSE.
-->
<svg id="z37275" class="acjk" version="1.1" viewBox="0 0 1024 1024" xmlns="http://www.w3.org/2000/svg" xmlns:xlink="http://www.w3.org/1999/xlink">
<style>
<![CDATA[
@keyframes zk {
	to {
		stroke-dashoffset:0;
	}
}
svg.acjk path[clip-path] {
	--t:0.8s;
	animation:zk var(--t) linear forwards var(--d);
	stroke-dasharray:3337;
	stroke-dashoffset:3339;
	stroke-width:128;
	stroke-linecap:round;
	fill:none;
	stroke:#000;
}
svg.acjk path[id] {fill:#ccc;}
]]>
</style>
<path id="z37275d1" d="M306 225Q408 201 415 195Q424 188 419 179Q412 169 384 162Q354 156 325 169Q286 182 243 194Q197 206 140 212Q106 219 131 234Q146 243 168 247Q172 247 175 248C187 250 200 250 211 246Q223 242 267 233C293 228 293 228 306 225Z"/>
<path id="z37275d2" d="M127 374Q115 362 96 355Q87 351 77 354Q71 358 76 369Q77 378 81 386Q108 435 86 661Q62 749 95 787Q105 799 114 788Q124 775 124 758C127 737 127 737 128 727Q134 408 137 402C139 392 135 380 127 374Z"/>
<path id="z37275d3" d="M329 741Q353 771 369 799Q376 812 385 812Q398 811 411 785Q424 752 420 672Q404 407 425 378Q432 366 425 358Q409 342 365 323Q353 317 312 335C292 342 292 342 282 345Q255 352 227 359C206 362 206 362 195 364Q153 370 127 374C117 376 127 404 137 402Q164 399 194 394C215 389 215 389 225 387Q253 380 281 375C299 372 299 372 308 370Q312 367 319 367Q344 363 358 372Q373 384 374 505C374 518 374 518 374 524Q374 641 365 715Q361 728 348 724C340 723 324 734 329 741Z"/>
<path id="z37275d4" d="M175 248Q184 270 192 304Q195 335 195 364C194 384 194 384 194 394Q191 452 150 552Q147 556 147 560Q146 566 152 564Q177 554 208 472Q218 441 224 402Q224 395 225 387C226 368 226 368 227 359Q227 283 229 272Q233 263 228 256Q221 250 211 246C200 242 171 237 175 248Z"/>
<path id="z37275d5" d="M312 335Q315 295 327 250Q330 240 323 233Q316 229 306 225C294 220 259 222 267 233Q285 251 282 345C281 365 281 365 281 375Q272 499 309 527Q315 533 344 533Q365 533 374 524C379 520 380 507 374 505Q368 502 361 502Q334 499 329 495Q305 477 308 370C311 347 311 347 312 335Z"/>
<path id="z37275d6" d="M167 619Q151 623 171 637Q178 643 192 641Q262 631 315 624Q337 620 329 608Q319 593 293 589Q260 585 167 619Z"/>
<path id="z37275d7" d="M124 758Q134 759 144 758Q202 746 329 741C337 741 354 730 348 724Q341 715 324 704Q309 695 280 701Q196 719 128 727C118 729 114 758 124 758Z"/>
<path id="z37275d8" d="M723 247Q798 237 877 244Q890 245 895 236Q899 226 888 213Q843 174 753 199Q746 199 741 201C710 206 710 206 695 209Q637 218 576 228C551 231 551 231 539 233Q487 237 433 245Q406 248 425 261Q464 286 524 273Q533 270 546 269C568 264 568 264 579 262Q615 252 685 249C710 248 710 248 723 247Z"/>
<path id="z37275d9" d="M576 228Q573 194 572 168Q573 152 557 147Q529 131 507 137Q492 144 505 160Q530 191 538 228Q538 229 539 233C544 257 544 257 546 269Q550 303 565 318Q575 327 579 318Q583 303 579 262C577 239 577 239 576 228Z"/>
<path id="z37275d10" d="M741 201Q759 155 772 132Q784 119 775 110Q765 95 734 81Q719 74 705 81Q696 87 703 96Q715 123 695 209C688 236 688 236 685 249Q670 303 671 314Q672 327 686 316Q695 307 723 247C735 216 735 216 741 201Z"/>
<path id="z37275d11" d="M650 364Q659 349 660 346Q659 339 649 329Q622 305 596 310Q589 311 591 322Q603 376 515 484Q490 514 429 570Q422 574 431 577Q525 550 639 381C646 370 646 370 650 364Z"/>
<path id="z37275d12" d="M639 381Q712 463 791 537Q812 556 846 557Q907 558 971 543Q987 540 989 536Q990 530 977 525Q937 512 889 500Q786 469 660 371Q654 367 650 364C644 361 635 376 639 381Z"/>
<path id="z37275d13" d="M631 577Q673 567 717 558Q744 552 747 548Q754 541 751 534Q744 524 719 518Q694 514 668 524Q638 534 605 543Q569 552 527 556Q496 562 518 576Q551 594 590 586C617 580 617 580 631 577Z"/>
<path id="z37275d14" d="M644 712Q755 690 758 687Q765 680 762 674Q756 664 733 657Q709 653 646 673C615 680 615 680 600 684Q557 691 508 694Q478 698 499 713Q524 728 600 720C629 715 629 715 644 712Z"/>
<path id="z37275d15" d="M640 811Q641 757 644 712C645 686 645 686 646 673Q646 645 649 616Q656 598 631 577C620 568 585 573 590 586Q596 592 600 684C600 708 600 708 600 720Q600 757 601 814C601 827 640 824 640 811Z"/>
<path id="z37275d16" d="M601 814Q519 821 428 829Q409 830 422 846Q435 859 450 864Q469 870 483 866Q651 830 861 850Q861 849 863 850Q881 851 885 844Q891 834 876 820Q827 781 772 794Q718 800 640 811C614 813 614 813 601 814Z"/>
<defs>
	<clipPath id="z37275c1"><use xlink:href="#z37275d1"/></clipPath>
	<clipPath id="z37275c2"><use xlink:href="#z37275d2"/></clipPath>
	<clipPath id="z37275c3"><use xlink:href="#z37275d3"/></clipPath>
	<clipPath id="z37275c4"><use xlink:href="#z37275d4"/></clipPath>
	<clipPath id="z37275c5"><use xlink:href="#z37275d5"/></clipPath>
	<clipPath id="z37275c6"><use xlink:href="#z37275d6"/></clipPath>
	<clipPath id="z37275c7"><use xlink:href="#z37275d7"/></clipPath>
	<clipPath id="z37275c8"><use xlink:href="#z37275d8"/></clipPath>
	<clipPath id="z37275c9"><use xlink:href="#z37275d9"/></clipPath>
	<clipPath id="z37275c10"><use xlink:href="#z37275d10"/></clipPath>
	<clipPath id="z37275c11"><use xlink:href="#z37275d11"/></clipPath>
	<clipPath id="z37275c12"><use xlink:href="#z37275d12"/></clipPath>
	<clipPath id="z37275c13"><use xlink:href="#z37275d13"/></clipPath>
	<clipPath id="z37275c14"><use xlink:href="#z37275d14"/></clipPath>
	<clipPath id="z37275c15"><use xlink:href="#z37275d15"/></clipPath>
	<clipPath id="z37275c16"><use xlink:href="#z37275d16"/></clipPath>
</defs>
<path style="--d:1s;" pathLength="3333" clip-path="url(#z37275c1)" d="M133 224L415 183"/>
<path style="--d:2s;" pathLength="3333" clip-path="url(#z37275c2)" d="M81 359L114 423L101 789"/>
<path style="--d:3s;" pathLength="3333" clip-path="url(#z37275c3)" d="M135 376L340 345L396 375L392 725L374 767L335 744"/>
<path style="--d:4s;" pathLength="3333" clip-path="url(#z37275c4)" d="M185 255L210 278L208 408L155 556"/>
<path style="--d:5s;" pathLength="3333" clip-path="url(#z37275c5)" d="M274 234L303 255L303 485L323 513L371 514"/>
<path style="--d:6s;" pathLength="3333" clip-path="url(#z37275c6)" d="M167 627L322 609"/>
<path style="--d:7s;" pathLength="3333" clip-path="url(#z37275c7)" d="M132 751L340 722"/>
<path style="--d:8s;" pathLength="3333" clip-path="url(#z37275c8)" d="M430 254L808 215L891 226"/>
<path style="--d:9s;" pathLength="3333" clip-path="url(#z37275c9)" d="M504 146L545 170L572 315"/>
<path style="--d:10s;" pathLength="3333" clip-path="url(#z37275c10)" d="M706 84L743 123L679 314"/>
<path style="--d:11s;" pathLength="3333" clip-path="url(#z37275c11)" d="M599 318L623 356L596 404L434 571"/>
<path style="--d:12s;" pathLength="3333" clip-path="url(#z37275c12)" d="M649 374L826 516L979 532"/>
<path style="--d:13s;" pathLength="3333" clip-path="url(#z37275c13)" d="M514 565L746 533"/>
<path style="--d:14s;" pathLength="3333" clip-path="url(#z37275c14)" d="M502 704L754 677"/>
<path style="--d:15s;" pathLength="3333" clip-path="url(#z37275c15)" d="M597 591L623 618L626 811"/>
<path style="--d:16s;" pathLength="3333" clip-path="url(#z37275c16)" d="M425 836L784 818L881 836"/>
</svg>