<!--
AnimCJK 2016-2017 Copyright Francois Mizessyn, https://github.com/parsimonhi/animCJK
Derived from:
    MakeMeAHanzi project - https://github.com/skishore/makemeahanzi
    Arphic PL KaitiM GB - https://apps.ubuntu.com/cat/applications/precise/fonts-arphic-gkai00mp/
    Arphic PL UKai - https://apps.ubuntu.com/cat/applications/fonts-arphic-ukai/
You can redistribute and/or modify this file under the terms of the Arphic Public License
as published by Arphic Technology Co., Ltd.
You should have received a copy of this license (the directory "APL") along with this file;
if not, see http://ftp.gnu.org/non-gnu/chinese-fonts-truetype/LICENSE.
-->
<svg id="z37322" class="acjk" version="1.1" viewBox="0 0 1024 1024" xmlns="http://www.w3.org/2000/svg" xmlns:xlink="http://www.w3.org/1999/xlink">
<style>
<![CDATA[
@keyframes z37322k {
	from {
		stroke:#c00;
		stroke-dashoffset:3334;
	}
	75% {
		stroke:#c00;
		stroke-dashoffset:0;
	}
	to {
		stroke:#000;
	}
}
#z37322 path[clip-path] {
	animation:z37322k 1s linear both;
	stroke-dasharray:3334;
	stroke-width:128;
	stroke-linecap:round;
	fill:none;
}
#z37322 path[clip-path="url(#z37322c1)"] {animation-delay:1s;}
#z37322 path[clip-path="url(#z37322c2)"] {animation-delay:2s;}
#z37322 path[clip-path="url(#z37322c3)"] {animation-delay:3s;}
#z37322 path[clip-path="url(#z37322c4)"] {animation-delay:4s;}
#z37322 path[clip-path="url(#z37322c5)"] {animation-delay:5s;}
#z37322 path[clip-path="url(#z37322c6)"] {animation-delay:6s;}
#z37322 path[clip-path="url(#z37322c7)"] {animation-delay:7s;}
#z37322 path[clip-path="url(#z37322c8)"] {animation-delay:8s;}
#z37322 path[clip-path="url(#z37322c9)"] {animation-delay:9s;}
#z37322 path[clip-path="url(#z37322c10)"] {animation-delay:10s;}
#z37322 path[clip-path="url(#z37322c11)"] {animation-delay:11s;}
#z37322 path[clip-path="url(#z37322c12)"] {animation-delay:12s;}
#z37322 path {fill:#ccc;}
]]>
</style>
<path id="z37322d1" d="M300 205Q417 157 442 152Q458 151 462 143Q466 133 454 122Q394 83 363 87Q356 91 356 101Q356 138 173 229Q167 236 173 240Q194 240 271 214L300 205 Z"/>
<path id="z37322d2" d="M178 332Q197 351 216 377Q226 387 239 389Q248 390 253 379Q259 367 254 343Q247 316 178 292Q165 288 160 289Q156 292 156 303Q157 312 178 332 Z"/>
<path id="z37322d3" d="M415 271Q403 296 378 337Q374 344 379 349Q386 350 391 345Q448 299 475 282Q490 276 485 268Q479 256 462 243Q446 230 427 230Q415 231 418 247Q421 257 415 271 Z"/>
<path id="z37322d4" d="M330 454Q384 441 453 429Q469 426 470 419Q471 406 453 398Q423 386 330 412L292 422Q160 450 88 461Q75 462 72 471Q69 481 85 492Q127 519 165 504Q226 480 273 468L330 454 Z"/>
<path id="z37322d5" d="M330 528Q330 489 330 454L330 412Q331 294 339 247Q340 234 334 229Q315 213 300 205L271 214Q295 238 292 422L289 538Q282 725 268 766Q259 799 293 852Q303 870 312 874Q322 875 328 862Q340 831 336 802Q332 663 330 541L330 528 Z"/>
<path id="z37322d6" d="M273 468Q245 529 208 584Q162 651 55 775Q49 785 60 786Q66 787 76 779Q200 688 289 538L290 464L273 468 Z"/>
<path id="z37322d7" d="M330 541Q334 547 351 561Q375 580 401 605Q411 614 422 614Q429 613 433 603Q437 593 430 571Q426 555 401 543Q347 521 332 526Q331 526 330 528L330 541 Z"/>
<path id="z37322d8" d="M595 429Q620 408 648 381L673 352Q710 306 750 233Q765 209 787 193Q800 186 801 178Q801 168 775 152Q744 133 732 132Q722 132 712 140Q597 173 547 178Q514 178 512 186Q511 189 516 193Q556 224 677 182Q696 176 704 182Q710 186 692 231Q689 237 637 325L617 350Q539 434 438 480Q429 484 430 488Q431 492 437 492Q500 492 577 441L595 429 Z"/>
<path id="z37322d9" d="M648 381Q774 507 812 505Q890 502 953 488Q984 481 981 473Q980 467 823 432Q751 411 673 352L637 325Q609 301 580 274Q546 243 517 244Q501 245 499 249Q498 255 512 263Q537 276 554 294Q582 316 617 350L648 381 Z"/>
<path id="z37322d10" d="M653 577Q755 553 759 550Q766 543 763 535Q756 525 730 518Q700 512 654 532L600 547Q599 546 597 547Q552 557 500 562Q466 568 491 583Q530 604 599 588L601 588L653 577 Z"/>
<path id="z37322d11" d="M652 708Q721 699 864 699Q883 699 888 690Q892 680 877 666Q823 629 766 643Q718 652 652 666L601 674Q513 687 412 702Q391 705 407 721Q420 734 438 739Q459 743 474 739Q534 723 601 715L652 708 Z"/>
<path id="z37322d12" d="M652 666Q651 627 653 577L654 532Q657 496 662 477Q665 461 652 452Q610 425 595 429L577 441Q577 442 589 465Q598 481 600 547L601 588Q601 627 601 674L601 715Q602 740 602 771Q603 918 619 937Q623 944 631 942Q643 933 650 879Q651 861 652 708L652 666 Z"/>
<defs>
	<clipPath id="z37322c1"><use xlink:href="#z37322d1"/></clipPath>
	<clipPath id="z37322c2"><use xlink:href="#z37322d2"/></clipPath>
	<clipPath id="z37322c3"><use xlink:href="#z37322d3"/></clipPath>
	<clipPath id="z37322c4"><use xlink:href="#z37322d4"/></clipPath>
	<clipPath id="z37322c5"><use xlink:href="#z37322d5"/></clipPath>
	<clipPath id="z37322c6"><use xlink:href="#z37322d6"/></clipPath>
	<clipPath id="z37322c7"><use xlink:href="#z37322d7"/></clipPath>
	<clipPath id="z37322c8"><use xlink:href="#z37322d8"/></clipPath>
	<clipPath id="z37322c9"><use xlink:href="#z37322d9"/></clipPath>
	<clipPath id="z37322c10"><use xlink:href="#z37322d10"/></clipPath>
	<clipPath id="z37322c11"><use xlink:href="#z37322d11"/></clipPath>
	<clipPath id="z37322c12"><use xlink:href="#z37322d12"/></clipPath>
</defs>
<path pathLength="3333" clip-path="url(#z37322c1)" d="M459 139L382 127L177 234"/>
<path pathLength="3333" clip-path="url(#z37322c2)" d="M164 295L245 383"/>
<path pathLength="3333" clip-path="url(#z37322c3)" d="M427 236L448 277L384 344"/>
<path pathLength="3333" clip-path="url(#z37322c4)" d="M75 471L129 482L465 416"/>
<path pathLength="3333" clip-path="url(#z37322c5)" d="M277 214L311 247L311 869"/>
<path pathLength="3333" clip-path="url(#z37322c6)" d="M284 473L224 598L60 780"/>
<path pathLength="3333" clip-path="url(#z37322c7)" d="M337 530L426 604"/>
<path pathLength="3333" clip-path="url(#z37322c8)" d="M521 187L714 156L753 184L615 383L442 486"/>
<path pathLength="3333" clip-path="url(#z37322c9)" d="M507 251L775 451L973 476"/>
<path pathLength="3333" clip-path="url(#z37322c10)" d="M493 573L760 540"/>
<path pathLength="3333" clip-path="url(#z37322c11)" d="M408 712L776 670L884 679"/>
<path pathLength="3333" clip-path="url(#z37322c12)" d="M586 444L628 479L629 937"/>
</svg>