<!--
AnimCJK 2016-2017 Copyright Francois Mizessyn, http://gooo.free.fr/animCJK/
Derived from:
    MakeMeAHanzi project - https://github.com/skishore/makemeahanzi
    Arphic PL KaitiM GB - https://apps.ubuntu.com/cat/applications/precise/fonts-arphic-gkai00mp/
    Arphic PL UKai - https://apps.ubuntu.com/cat/applications/fonts-arphic-ukai/
You can redistribute and/or modify this file under the terms of the Arphic Public License
as published by Arphic Technology Co., Ltd.
You should have received a copy of this license (the directory "APL") along with this file;
if not, see http://ftp.gnu.org/non-gnu/chinese-fonts-truetype/LICENSE.
-->
<svg id="z37326" class="acjk" version="1.1" viewBox="0 0 1024 1024" xmlns="http://www.w3.org/2000/svg" xmlns:xlink="http://www.w3.org/1999/xlink">
<style>
<![CDATA[
	@keyframes z37326k {
		from {
			stroke:#c00;
			stroke-dashoffset:3000;
		}
		75% {
			stroke:#c00;
			stroke-dashoffset:0;
		}
		to {
			stroke:#000;
		}
	}
	#z37326 path[clip-path] {
		animation:z37326k 1s linear both;
		stroke-dasharray:3000;
		stroke-width:128;
		stroke-linecap:round;
		fill:none;
	}
	#z37326 path[clip-path="url(#z37326c1)"] {animation-delay:1s;}
	#z37326 path[clip-path="url(#z37326c2)"] {animation-delay:2s;}
	#z37326 path[clip-path="url(#z37326c3)"] {animation-delay:3s;}
	#z37326 path[clip-path="url(#z37326c4)"] {animation-delay:4s;}
	#z37326 path[clip-path="url(#z37326c5)"] {animation-delay:5s;}
	#z37326 path[clip-path="url(#z37326c6)"] {animation-delay:6s;}
	#z37326 path[clip-path="url(#z37326c7)"] {animation-delay:7s;}
	#z37326 path[clip-path="url(#z37326c8)"] {animation-delay:8s;}
	#z37326 path[clip-path="url(#z37326c9)"] {animation-delay:9s;}
	#z37326 path[clip-path="url(#z37326c10)"] {animation-delay:10s;}
	#z37326 path[clip-path="url(#z37326c11)"] {animation-delay:11s;}
	#z37326 path {fill:#ccc;}
]]>
</style>
<g transform="scale(1,-1) translate(0,-900)">
	<path id="z37326d1" d="M161 756Q149 760 124 764Q112 767 109 761Q102 755 112 739Q148 666 170 547Q174 510 196 487Q214 465 219 482Q220 488 221 495L222 520Q221 538 215 561Q187 690 180 727L161 756Z"/>
	<path id="z37326d2" d="M390 524Q406 502 421 494Q431 487 445 507Q460 535 485 688Q492 718 514 741Q526 753 515 766Q500 782 460 805Q444 811 363 794Q351 794 161 756L180 727Q217 737 271 746L314 753Q407 774 425 758Q440 742 437 725Q422 616 402 555L390 524Z"/>
	<path id="z37326d3" d="M337 627Q391 642 396 644Q402 651 398 656Q394 663 373 668Q354 671 337 664L292 648Q291 649 289 648Q264 642 236 638Q211 634 230 622Q254 609 292 616L337 627Z"/>
	<path id="z37326d4" d="M334 514Q362 521 390 524L402 555Q381 562 337 551Q334 551 335 550L291 538Q254 529 222 520L221 495Q225 495 232 496Q260 502 291 507L334 514Z"/>
	<path id="z37326d5" d="M329 292Q329 340 330 383L331 426Q332 472 334 514L335 550Q336 590 337 627L337 664Q337 665 338 666Q341 729 339 733Q326 745 314 753L271 746Q277 733 285 720Q291 701 292 648L292 616Q292 586 291 538L291 507Q290 467 289 414L289 374Q288 334 288 283L329 292Z"/>
	<path id="z37326d6" d="M330 383Q432 405 435 408Q442 415 439 422Q432 432 407 438Q380 444 331 426L289 414Q285 414 283 413Q241 404 192 400Q161 396 183 380Q222 359 269 372Q276 375 289 374L330 383Z"/>
	<path id="z37326d7" d="M288 283Q221 267 146 249Q124 243 86 246Q71 245 69 235Q66 220 75 211Q99 192 133 170Q143 166 157 175Q208 208 403 277Q475 308 480 311Q493 318 495 328Q489 335 476 332Q406 313 329 292L288 283Z"/>
	<path id="z37326d8" d="M697 601Q802 698 844 712Q863 718 857 734Q854 750 790 784Q772 794 751 786Q696 765 610 742Q588 735 535 738Q513 739 520 719Q527 707 546 696Q573 681 610 699Q736 750 751 740Q763 731 757 719Q723 670 682 610L697 601Z"/>
	<path id="z37326d9" d="M682 610Q616 637 604 630Q600 627 601 618Q604 611 624 595Q655 571 689 543Q699 533 710 534Q717 535 722 545Q725 555 718 577Q714 590 697 601L682 610Z"/>
	<path id="z37326d10" d="M683 473Q747 486 813 497Q846 501 848 487Q847 471 816 411Q809 398 815 393Q822 389 834 401Q909 459 939 470Q964 477 962 490Q961 503 889 539Q867 551 787 527Q658 497 484 473Q457 470 478 448Q493 429 539 442Q587 454 637 463L683 473Z"/>
	<path id="z37326d11" d="M613 68Q583 80 545 92Q532 96 533 88Q533 81 543 71Q616 13 662 -34Q674 -43 687 -27Q727 30 723 104Q711 306 716 411Q722 439 716 448Q709 458 683 473L637 463Q638 459 643 453Q655 429 655 389Q658 304 661 110Q660 79 650 67Q640 60 613 68Z"/>
	<defs>
		<clipPath id="z37326c1"><use xlink:href="#z37326d1"/></clipPath>
		<clipPath id="z37326c2"><use xlink:href="#z37326d2"/></clipPath>
		<clipPath id="z37326c3"><use xlink:href="#z37326d3"/></clipPath>
		<clipPath id="z37326c4"><use xlink:href="#z37326d4"/></clipPath>
		<clipPath id="z37326c5"><use xlink:href="#z37326d5"/></clipPath>
		<clipPath id="z37326c6"><use xlink:href="#z37326d6"/></clipPath>
		<clipPath id="z37326c7"><use xlink:href="#z37326d7"/></clipPath>
		<clipPath id="z37326c8"><use xlink:href="#z37326d8"/></clipPath>
		<clipPath id="z37326c9"><use xlink:href="#z37326d9"/></clipPath>
		<clipPath id="z37326c10"><use xlink:href="#z37326d10"/></clipPath>
		<clipPath id="z37326c11"><use xlink:href="#z37326d11"/></clipPath>
	</defs>
	<path pathLength="2999" clip-path="url(#z37326c1)" d="M116 756L155 713L209 480"/>
	<path pathLength="2999" clip-path="url(#z37326c2)" d="M171 754L425 784L473 756L420 498"/>
	<path pathLength="2999" clip-path="url(#z37326c3)" d="M231 630L393 652"/>
	<path pathLength="2999" clip-path="url(#z37326c4)" d="M229 504L394 551"/>
	<path pathLength="2999" clip-path="url(#z37326c5)" d="M279 743L314 715L302 287"/>
	<path pathLength="2999" clip-path="url(#z37326c6)" d="M183 393L435 421"/>
	<path pathLength="2999" clip-path="url(#z37326c7)" d="M75 236L140 209L487 325"/>
	<path pathLength="2999" clip-path="url(#z37326c8)" d="M522 728L574 713L754 766L779 757L805 718L689 613"/>
	<path pathLength="2999" clip-path="url(#z37326c9)" d="M605 624L686 578L710 540"/>
	<path pathLength="2999" clip-path="url(#z37326c10)" d="M476 462L852 520L907 477L819 397"/>
	<path pathLength="2999" clip-path="url(#z37326c11)" d="M646 458L686 424L689 69L658 14L543 87"/>
</g>
</svg>