<!--
AnimCJK 2016-2019 Copyright Francois Mizessyn - https://github.com/parsimonhi/animCJK
Derived from:
    MakeMeAHanzi project - https://github.com/skishore/makemeahanzi
    Arphic PL KaitiM GB font
    Arphic PL UKai font
You can redistribute and/or modify this file under the terms of the Arphic Public License
as published by Arphic Technology Co., Ltd.
You should have received a copy of this license along with this file.
If not, see http://ftp.gnu.org/non-gnu/chinese-fonts-truetype/LICENSE.
-->
<svg id="z37492" class="acjk" version="1.1" viewBox="0 0 1024 1024" xmlns="http://www.w3.org/2000/svg" xmlns:xlink="http://www.w3.org/1999/xlink">
<style>
<![CDATA[
@keyframes zk {
	to {
		stroke-dashoffset:0;
	}
}
svg.acjk path[clip-path] {
	--t:0.8s;
	animation:zk var(--t) linear forwards var(--d);
	stroke-dasharray:3337;
	stroke-dashoffset:3339;
	stroke-width:128;
	stroke-linecap:round;
	fill:none;
	stroke:#000;
}
svg.acjk path[id] {fill:#ccc;}
]]>
</style>
<path id="z37492d1" d="M234 188Q262 236 255 350Q252 387 288 416Q301 423 303 413Q313 404 307 332Q300 253 301 224Q304 211 297 198Q276 171 242 168Q238 165 233 171Q229 177 234 188Z"/>
<path id="z37492d2" d="M341 120Q374 184 376 378Q377 402 385 418Q391 428 398 422Q410 410 412 321Q412 177 419 146Q426 128 414 119Q401 109 376 98Q357 91 338 100Q328 107 341 120Z"/>
<path id="z37492d3" d="M580 211Q643 91 643 86Q642 83 641 81Q635 71 607 54Q582 41 564 43Q548 47 557 66Q588 109 478 312Q471 322 469 328Q468 338 480 334Q502 328 570 227C577 216 577 216 580 211Z"/>
<path id="z37492d4" d="M570 227Q582 239 618 244Q648 248 678 237Q730 222 785 208Q810 201 813 197Q822 188 816 180Q809 168 778 163Q747 159 717 174Q689 184 659 194Q626 204 587 209Q583 209 580 211C574 213 565 223 570 227Z"/>
<path id="z37492d5" d="M619 333Q644 358 670 386Q682 399 697 400Q707 400 713 387Q717 374 711 344Q705 317 617 287Q602 283 596 285Q592 289 592 301Q595 311 619 333Z"/>
<path id="z37492d6" d="M531 419Q532 416 532 414Q533 404 524 390Q500 356 466 351Q457 352 456 364Q456 445 281 577Q137 664 96 685Q86 688 96 693Q120 696 219 659Q222 656 225 656Q339 605 502 445Q506 439 513 435C520 431 529 427 531 419Z"/>
<path id="z37492d7" d="M513 435Q748 652 798 659Q846 666 955 637Q973 633 974 628Q975 621 960 617Q906 601 843 586Q714 552 546 429Q537 423 531 419C524 415 507 430 513 435Z"/>
<path id="z37492d8" d="M514 610Q637 583 638 582Q647 575 643 567Q636 557 610 549Q582 543 555 553Q515 566 472 576Q424 586 369 590Q335 596 359 611Q395 635 451 622Q458 621 469 619C499 613 499 613 514 610Z"/>
<path id="z37492d9" d="M527 716Q677 686 682 684Q689 678 686 670Q680 660 656 652Q634 646 529 676C494 683 494 683 476 686Q410 696 337 701Q306 705 327 720Q360 741 410 734Q443 728 477 724C510 719 510 719 527 716Z"/>
<path id="z37492d10" d="M521 851Q524 776 527 716C528 689 528 689 529 676Q529 663 531 649Q540 627 514 610C502 600 466 604 469 619Q472 628 476 686C477 711 477 711 477 724Q477 772 479 855C479 869 521 865 521 851Z"/>
<path id="z37492d11" d="M316 792Q340 814 366 840Q376 850 389 850Q396 850 401 839Q405 829 399 805Q395 787 369 774Q306 750 296 753Q292 757 293 766Q296 775 316 792Z"/>
<path id="z37492d12" d="M621 753Q605 778 572 817Q566 823 571 829Q577 830 584 827Q650 787 682 773Q698 770 694 760Q690 747 674 730Q658 714 639 712Q627 712 627 728Q628 740 621 753Z"/>
<path id="z37492d13" d="M479 855Q368 864 241 874Q220 875 235 894Q248 907 266 914Q287 921 303 917Q499 874 765 895Q766 894 768 895Q787 896 793 888Q800 876 783 862Q725 814 676 830Q613 837 521 851C493 854 493 854 479 855Z"/>
<defs>
	<clipPath id="z37492c1"><use xlink:href="#z37492d1"/></clipPath>
	<clipPath id="z37492c2"><use xlink:href="#z37492d2"/></clipPath>
	<clipPath id="z37492c3"><use xlink:href="#z37492d3"/></clipPath>
	<clipPath id="z37492c4"><use xlink:href="#z37492d4"/></clipPath>
	<clipPath id="z37492c5"><use xlink:href="#z37492d5"/></clipPath>
	<clipPath id="z37492c6"><use xlink:href="#z37492d6"/></clipPath>
	<clipPath id="z37492c7"><use xlink:href="#z37492d7"/></clipPath>
	<clipPath id="z37492c8"><use xlink:href="#z37492d8"/></clipPath>
	<clipPath id="z37492c9"><use xlink:href="#z37492d9"/></clipPath>
	<clipPath id="z37492c10"><use xlink:href="#z37492d10"/></clipPath>
	<clipPath id="z37492c11"><use xlink:href="#z37492d11"/></clipPath>
	<clipPath id="z37492c12"><use xlink:href="#z37492d12"/></clipPath>
	<clipPath id="z37492c13"><use xlink:href="#z37492d13"/></clipPath>
</defs>
<path style="--d:1s;" pathLength="3333" clip-path="url(#z37492c1)" d="M239 178L275 218L288 414"/>
<path style="--d:2s;" pathLength="3333" clip-path="url(#z37492c2)" d="M343 106L387 138L392 415"/>
<path style="--d:3s;" pathLength="3333" clip-path="url(#z37492c3)" d="M562 47L602 95L478 329"/>
<path style="--d:4s;" pathLength="3333" clip-path="url(#z37492c4)" d="M575 223L813 180"/>
<path style="--d:5s;" pathLength="3333" clip-path="url(#z37492c5)" d="M599 290L683 355L692 397"/>
<path style="--d:6s;" pathLength="3333" clip-path="url(#z37492c6)" d="M467 356L488 411L390 516L265 611L100 688"/>
<path style="--d:7s;" pathLength="3333" clip-path="url(#z37492c7)" d="M526 437L792 613L968 625"/>
<path style="--d:8s;" pathLength="3333" clip-path="url(#z37492c8)" d="M358 600L636 566"/>
<path style="--d:9s;" pathLength="3333" clip-path="url(#z37492c9)" d="M331 712L682 674"/>
<path style="--d:10s;" pathLength="3333" clip-path="url(#z37492c10)" d="M478 626L504 655L491 853"/>
<path style="--d:11s;" pathLength="3333" clip-path="url(#z37492c11)" d="M302 762L393 840"/>
<path style="--d:12s;" pathLength="3333" clip-path="url(#z37492c12)" d="M637 721L654 764L578 820"/>
<path style="--d:13s;" pathLength="3333" clip-path="url(#z37492c13)" d="M234 881L291 894L691 858L790 880"/>
</svg>