<!--
AnimCJK 2016-2025 Copyright FM-SH - https://github.com/parsimonhi/animCJK
Derived from:
    MakeMeAHanzi project - https://github.com/skishore/makemeahanzi
    Arphic PL KaitiM GB font
    Arphic PL KaitiM Big5 font
You can redistribute and/or modify this file under the terms of the Arphic Public License
as published by Arphic Technology Co., Ltd.
You should have received a copy of this license along with this file.
If not, see https://ftp.gnu.org/non-gnu/chinese-fonts-truetype/LICENSE.
-->
<svg id="z37504" class="acjk" viewBox="0 0 1024 1024" xmlns="http://www.w3.org/2000/svg">
<style>
<![CDATA[
@keyframes zk {
	to {
		stroke-dashoffset:0;
	}
}
svg.acjk path[clip-path] {
	--t:0.8s;
	animation:zk var(--t) linear forwards var(--d);
	stroke-dasharray:3337;
	stroke-dashoffset:3339;
	stroke-width:128;
	stroke-linecap:round;
	fill:none;
	stroke:#000;
}
svg.acjk path[id] {fill:#ccc;}
]]>
</style>
<path id="z37504d1" d="M209 377C241 336 326 201 337 185C347 170 347 170 352 162C358 151 366 142 374 135C380 128 382 120 379 111C376 102 365 90 346 76C328 63 313 58 301 59C288 59 283 67 290 83C299 105 300 125 293 144C266 206 234 267 196 325C158 381 113 440 62 502C55 509 51 513 50 518C47 524 51 527 61 526C82 523 126 480 193 397C204 384 204 384 209 377Z"/>
<path id="z37504d2" d="M337 185C353 193 379 212 415 243C422 249 429 252 438 251C442 250 446 246 449 240C451 232 449 220 444 206C435 183 404 169 352 162C343 160 329 181 337 185Z"/>
<path id="z37504d3" d="M311 392C335 384 360 376 387 369C403 364 411 360 414 358C418 351 419 346 416 342C411 335 399 331 381 329C362 327 344 331 327 340C288 358 247 366 209 377C201 380 186 393 193 397C219 412 249 412 271 405C298 396 298 396 311 392Z"/>
<path id="z37504d4" d="M329 509C394 491 427 479 429 478C434 473 435 468 432 463C427 456 415 450 397 447C373 442 354 453 332 461C297 472 297 472 280 478C263 483 201 496 178 501C155 505 151 516 170 523C211 538 245 531 280 522C313 513 313 513 329 509Z"/>
<path id="z37504d5" d="M318 687C322 622 325 562 329 509C331 477 331 477 332 461C335 412 344 413 311 392C299 385 266 392 271 405C277 417 280 440 280 478C280 507 280 507 280 522C280 562 278 621 276 699C276 714 318 702 318 687Z"/>
<path id="z37504d6" d="M155 608C179 651 200 675 216 680C222 681 229 678 234 669C236 662 235 652 232 640C228 629 218 620 206 612C185 598 171 588 163 586C158 584 155 587 153 593C151 597 151 602 155 608Z"/>
<path id="z37504d7" d="M396 563C385 581 368 605 347 634C344 637 343 642 347 645C350 647 355 644 359 642C401 610 431 586 452 576C460 571 463 569 462 564C459 556 452 547 442 539C431 530 421 524 410 524C403 523 398 530 400 540C400 546 400 554 396 563Z"/>
<path id="z37504d8" d="M276 699C233 711 182 725 143 735C128 738 110 740 87 740C78 740 73 744 72 751C70 759 71 768 79 774C93 785 112 797 136 811C142 814 150 812 159 806C187 785 218 768 252 755C300 736 349 715 399 695C417 687 433 678 448 669C456 663 463 658 462 652C461 647 453 646 444 649C403 660 362 674 318 687C290 695 290 695 276 699Z"/>
<path id="z37504d9" d="M659 430C672 457 699 461 714 447C728 432 737 409 741 378C751 294 765 239 784 215C794 201 794 187 783 177C769 164 751 151 728 139C716 133 703 133 693 139C647 162 599 183 547 199C536 203 551 234 562 230C604 215 645 195 690 184C706 179 702 214 702 221C694 277 686 330 679 378C676 392 671 401 664 405C657 410 655 422 659 430Z"/>
<path id="z37504d10" d="M556 345C556 344 586 336 648 318C660 314 664 308 658 302C651 295 640 292 626 292C606 292 582 301 555 319C548 323 548 348 556 345Z"/>
<path id="z37504d11" d="M559 456Q566 456 577 452Q602 442 659 430C667 428 671 409 664 405Q658 401 649 398Q634 394 609 404Q581 417 558 426C549 430 549 456 559 456Z"/>
<path id="z37504d12" d="M558 500C558 485 559 470 559 456C558 436 558 436 558 426C557 398 556 370 556 345C555 328 555 328 555 319C553 287 557 257 562 230C564 219 555 207 547 199C534 187 521 178 508 173C495 168 485 167 480 172C473 176 473 184 479 195C519 273 524 456 502 744C499 777 488 812 463 848C455 858 454 871 461 887C469 905 477 919 487 926C495 931 505 927 512 915C522 895 568 839 659 751C670 740 678 732 681 726C683 719 680 716 674 717C667 717 628 739 558 786C553 789 549 789 550 785C553 692 558 606 558 528C558 509 558 509 558 500Z"/>
<path id="z37504d13" d="M677 590C777 520 811 504 826 498C840 491 844 481 837 471C829 459 815 450 798 440C783 431 771 427 763 428C754 428 749 437 750 447C751 488 714 517 665 580C662 584 673 593 677 590Z"/>
<path id="z37504d14" d="M665 580C630 551 600 506 558 500C549 498 549 525 558 528C570 530 604 567 664 635C745 727 805 773 843 769C876 765 934 751 966 738C972 735 969 728 962 725C953 720 912 707 840 688C794 675 740 642 677 590C669 583 669 583 665 580Z"/>
<defs>
	<clipPath id="z37504c1"><use href="#z37504d1"/></clipPath>
	<clipPath id="z37504c2"><use href="#z37504d2"/></clipPath>
	<clipPath id="z37504c3"><use href="#z37504d3"/></clipPath>
	<clipPath id="z37504c4"><use href="#z37504d4"/></clipPath>
	<clipPath id="z37504c5"><use href="#z37504d5"/></clipPath>
	<clipPath id="z37504c6"><use href="#z37504d6"/></clipPath>
	<clipPath id="z37504c7"><use href="#z37504d7"/></clipPath>
	<clipPath id="z37504c8"><use href="#z37504d8"/></clipPath>
	<clipPath id="z37504c9"><use href="#z37504d9"/></clipPath>
	<clipPath id="z37504c10"><use href="#z37504d10"/></clipPath>
	<clipPath id="z37504c11"><use href="#z37504d11"/></clipPath>
	<clipPath id="z37504c12"><use href="#z37504d12"/></clipPath>
	<clipPath id="z37504c13"><use href="#z37504d13"/></clipPath>
	<clipPath id="z37504c14"><use href="#z37504d14"/></clipPath>
</defs>
<path style="--d:1s;" pathLength="3333" clip-path="url(#z37504c1)" d="M295 67L338 125L194 364L58 519"/>
<path style="--d:2s;" pathLength="3333" clip-path="url(#z37504c2)" d="M341 177L405 201L440 245"/>
<path style="--d:3s;" pathLength="3333" clip-path="url(#z37504c3)" d="M195 392L412 347"/>
<path style="--d:4s;" pathLength="3333" clip-path="url(#z37504c4)" d="M167 511L428 471"/>
<path style="--d:5s;" pathLength="3333" clip-path="url(#z37504c5)" d="M277 396L306 427L290 702"/>
<path style="--d:6s;" pathLength="3333" clip-path="url(#z37504c6)" d="M159 591L218 676"/>
<path style="--d:7s;" pathLength="3333" clip-path="url(#z37504c7)" d="M409 530L425 570L350 637"/>
<path style="--d:8s;" pathLength="3333" clip-path="url(#z37504c8)" d="M78 754L144 773L452 655"/>
<path style="--d:9s;" pathLength="3333" clip-path="url(#z37504c9)" d="M547 208L699 159L745 200L707 392L671 444"/>
<path style="--d:10s;" pathLength="3333" clip-path="url(#z37504c10)" d="M555 336L656 305"/>
<path style="--d:11s;" pathLength="3333" clip-path="url(#z37504c11)" d="M558 448L664 413"/>
<path style="--d:12s;" pathLength="3333" clip-path="url(#z37504c12)" d="M481 179L522 217L530 257L536 533L499 848L524 875L675 723"/>
<path style="--d:13s;" pathLength="3333" clip-path="url(#z37504c13)" d="M760 437L788 487L672 581"/>
<path style="--d:14s;" pathLength="3333" clip-path="url(#z37504c14)" d="M558 505L780 703L841 730L961 731"/>
</svg>