<!--
AnimCJK 2016-2018 Copyright Francois Mizessyn - https://github.com/parsimonhi/animCJK
Derived from:
    MakeMeAHanzi project - https://github.com/skishore/makemeahanzi
    Arphic PL KaitiM GB - https://apps.ubuntu.com/cat/applications/precise/fonts-arphic-gkai00mp/
    Arphic PL UKai - https://apps.ubuntu.com/cat/applications/fonts-arphic-ukai/
You can redistribute and/or modify this file under the terms of the Arphic Public License
as published by Arphic Technology Co., Ltd.
You should have received a copy of this license (the directory "APL") along with this file;
if not, see http://ftp.gnu.org/non-gnu/chinese-fonts-truetype/LICENSE.
-->
<svg id="z37995" class="acjk" version="1.1" viewBox="0 0 1024 1024" xmlns="http://www.w3.org/2000/svg" xmlns:xlink="http://www.w3.org/1999/xlink">
<style>
<![CDATA[
@keyframes z37995k {
	from {
		stroke:#c00;
		stroke-dashoffset:3334;
	}
	75% {
		stroke:#c00;
		stroke-dashoffset:0;
	}
	to {
		stroke:#000;
	}
}
#z37995 path[clip-path] {
	animation:z37995k 1s linear both;
	stroke-dasharray:3334;
	stroke-width:128;
	stroke-linecap:round;
	fill:none;
}
#z37995 path[clip-path="url(#z37995c1)"] {animation-delay:1s;}
#z37995 path[clip-path="url(#z37995c2)"] {animation-delay:2s;}
#z37995 path[clip-path="url(#z37995c3)"] {animation-delay:3s;}
#z37995 path[clip-path="url(#z37995c4)"] {animation-delay:4s;}
#z37995 path[clip-path="url(#z37995c5)"] {animation-delay:5s;}
#z37995 path[clip-path="url(#z37995c6)"] {animation-delay:6s;}
#z37995 path[clip-path="url(#z37995c7)"] {animation-delay:7s;}
#z37995 path[clip-path="url(#z37995c8)"] {animation-delay:8s;}
#z37995 path[clip-path="url(#z37995c9)"] {animation-delay:9s;}
#z37995 path[clip-path="url(#z37995c10)"] {animation-delay:10s;}
#z37995 path[clip-path="url(#z37995c11)"] {animation-delay:11s;}
#z37995 path[clip-path="url(#z37995c12)"] {animation-delay:12s;}
#z37995 path[clip-path="url(#z37995c13)"] {animation-delay:13s;}
#z37995 path[clip-path="url(#z37995c14)"] {animation-delay:14s;}
#z37995 path[clip-path="url(#z37995c15)"] {animation-delay:15s;}
#z37995 path[clip-path="url(#z37995c16)"] {animation-delay:16s;}
#z37995 path[clip-path="url(#z37995c17)"] {animation-delay:17s;}
#z37995 path[clip-path="url(#z37995c18)"] {animation-delay:18s;}
#z37995 path[clip-path="url(#z37995c19)"] {animation-delay:19s;}
#z37995 path[clip-path="url(#z37995c20)"] {animation-delay:20s;}
#z37995 path[clip-path="url(#z37995c21)"] {animation-delay:21s;}
#z37995 path[clip-path="url(#z37995c22)"] {animation-delay:22s;}
#z37995 path[clip-path="url(#z37995c23)"] {animation-delay:23s;}
#z37995 path[clip-path="url(#z37995c24)"] {animation-delay:24s;}
#z37995 path {fill:#ccc;}
]]>
</style>
<path id="z37995d1" d="M403 216Q449 176 513 109Q514 106 517 105L534 91Q540 87 540 79Q541 69 531 56Q507 23 477 22Q468 23 468 34Q468 115 309 239Q252 281 139 346Q130 349 140 353Q198 359 333 272Q360 251 386 231L403 216 Z"/>
<path id="z37995d2" d="M517 105Q742 306 789 312Q859 312 930 290Q946 286 947 282Q948 275 935 272Q884 257 826 244Q697 211 536 93Q535 92 534 91L517 105 Z"/>
<path id="z37995d3" d="M505 235Q536 228 570 222Q595 216 599 213Q606 207 602 201Q598 192 575 186Q565 183 471 206Q440 212 403 216L386 231Q387 231 390 233Q420 251 463 242L505 235 Z"/>
<path id="z37995d4" d="M518 321Q552 314 589 310Q628 303 634 297Q641 291 638 285Q634 276 611 269Q584 263 520 285L470 296Q416 305 355 309Q327 312 347 325Q371 343 457 331Q463 330 471 329L518 321 Z"/>
<path id="z37995d5" d="M512 432Q515 371 518 321L520 285Q520 249 509 238Q506 237 505 235L463 242Q466 251 470 296L471 329Q471 369 473 438L512 432 Z"/>
<path id="z37995d6" d="M335 376Q386 430 403 431Q415 432 420 416Q421 404 412 387Q403 374 383 367Q352 354 339 352Q330 351 330 361Q329 368 335 376 Z"/>
<path id="z37995d7" d="M594 346Q581 367 556 398Q552 404 555 408Q561 409 566 407Q620 374 646 363Q659 359 656 352Q652 340 638 327Q625 314 609 311Q599 312 599 325Q600 335 594 346 Z"/>
<path id="z37995d8" d="M638 450Q671 446 703 443Q712 444 720 434Q721 424 703 415Q676 396 603 414Q527 426 512 432L473 438Q430 442 285 456Q260 457 278 473Q293 486 306 493L335 492Q545 453 606 453L638 450 Z"/>
<path id="z37995d9" d="M306 493Q305 494 304 501Q288 583 96 734Q80 746 101 743Q149 740 227 668Q230 665 234 662L247 651Q269 629 342 548L352 537Q356 530 361 527Q370 518 368 511Q365 501 344 494Q340 493 335 492L306 493 Z"/>
<path id="z37995d10" d="M342 548Q341 548 342 549Q346 556 364 567Q395 586 429 612Q439 619 449 617Q456 616 458 608Q459 598 452 580Q446 562 417 551Q389 542 357 537Q354 536 352 537L342 548 Z"/>
<path id="z37995d11" d="M234 662Q255 683 304 679L341 670Q372 661 405 655Q424 649 428 647Q435 640 431 633Q424 624 401 619Q377 615 310 639Q283 645 250 650Q247 650 247 651L234 662 Z"/>
<path id="z37995d12" d="M308 730Q302 730 298 732Q261 741 217 746Q192 750 210 762Q231 774 294 764Q301 763 309 762L352 752Q371 746 396 742Q423 735 427 732Q434 726 430 720Q426 713 405 707Q381 703 354 716L308 730 Z"/>
<path id="z37995d13" d="M304 679Q307 688 308 730L309 762Q309 799 310 865L347 858Q348 800 352 752L354 716Q358 686 353 680Q346 673 341 670L304 679 Z"/>
<path id="z37995d14" d="M198 810Q240 856 257 859Q267 859 272 845Q273 835 265 819Q258 807 240 802Q213 790 202 789Q195 788 194 796Q193 803 198 810 Z"/>
<path id="z37995d15" d="M403 777Q393 795 371 824Q368 828 371 832Q375 833 380 830Q423 799 446 788Q456 784 454 778Q450 769 439 759Q427 749 414 748Q407 748 407 759Q408 768 403 777 Z"/>
<path id="z37995d16" d="M310 865Q184 883 166 881Q154 881 152 889Q149 901 156 908Q175 924 201 944Q210 948 221 941Q257 920 295 908Q355 892 413 872Q435 865 453 855Q465 849 466 842Q462 836 451 837Q400 847 347 858L310 865 Z"/>
<path id="z37995d17" d="M659 498Q668 483 669 481Q666 462 638 450L606 453L607 455Q611 503 538 589Q535 589 535 592Q513 617 457 663Q451 667 459 669Q495 669 579 594Q580 591 583 590Q608 563 648 512L659 498 Z"/>
<path id="z37995d18" d="M648 512Q649 515 655 519Q731 595 812 663Q848 696 982 660Q998 657 999 652Q1000 646 987 643Q813 598 756 563Q732 550 710 534Q676 509 659 498L648 512 Z"/>
<path id="z37995d19" d="M643 656Q722 634 724 633Q731 627 727 621Q721 612 699 608Q677 604 654 614Q632 623 607 629Q580 636 549 640Q521 646 542 657Q570 670 610 664L643 656 Z"/>
<path id="z37995d20" d="M665 744Q759 725 763 721Q769 715 766 709Q762 700 739 694Q717 690 667 706L620 718Q619 718 616 719Q571 728 518 732Q491 736 510 749Q540 765 595 756Q607 753 620 753L665 744 Z"/>
<path id="z37995d21" d="M659 869Q662 799 665 744L667 706Q668 702 668 697Q674 682 666 674Q654 662 643 656L610 664Q616 685 620 718L620 753Q620 796 622 875L659 869 Z"/>
<path id="z37995d22" d="M505 806Q541 857 561 861Q571 862 577 849Q578 839 573 823Q560 799 510 785Q503 784 501 793Q500 799 505 806 Z"/>
<path id="z37995d23" d="M730 784Q720 803 699 835Q695 839 699 844Q703 845 709 842Q757 808 780 796Q792 792 788 785Q784 775 770 763Q757 751 742 751Q732 752 733 764Q736 774 730 784 Z"/>
<path id="z37995d24" d="M622 875Q552 882 470 894Q454 895 466 910Q476 920 492 925Q508 929 522 926Q630 899 839 899Q842 899 846 900Q862 899 866 893Q870 883 857 872Q814 836 749 853Q710 859 659 869L622 875 Z"/>
<defs>
	<clipPath id="z37995c1"><use xlink:href="#z37995d1"/></clipPath>
	<clipPath id="z37995c2"><use xlink:href="#z37995d2"/></clipPath>
	<clipPath id="z37995c3"><use xlink:href="#z37995d3"/></clipPath>
	<clipPath id="z37995c4"><use xlink:href="#z37995d4"/></clipPath>
	<clipPath id="z37995c5"><use xlink:href="#z37995d5"/></clipPath>
	<clipPath id="z37995c6"><use xlink:href="#z37995d6"/></clipPath>
	<clipPath id="z37995c7"><use xlink:href="#z37995d7"/></clipPath>
	<clipPath id="z37995c8"><use xlink:href="#z37995d8"/></clipPath>
	<clipPath id="z37995c9"><use xlink:href="#z37995d9"/></clipPath>
	<clipPath id="z37995c10"><use xlink:href="#z37995d10"/></clipPath>
	<clipPath id="z37995c11"><use xlink:href="#z37995d11"/></clipPath>
	<clipPath id="z37995c12"><use xlink:href="#z37995d12"/></clipPath>
	<clipPath id="z37995c13"><use xlink:href="#z37995d13"/></clipPath>
	<clipPath id="z37995c14"><use xlink:href="#z37995d14"/></clipPath>
	<clipPath id="z37995c15"><use xlink:href="#z37995d15"/></clipPath>
	<clipPath id="z37995c16"><use xlink:href="#z37995d16"/></clipPath>
	<clipPath id="z37995c17"><use xlink:href="#z37995d17"/></clipPath>
	<clipPath id="z37995c18"><use xlink:href="#z37995d18"/></clipPath>
	<clipPath id="z37995c19"><use xlink:href="#z37995d19"/></clipPath>
	<clipPath id="z37995c20"><use xlink:href="#z37995d20"/></clipPath>
	<clipPath id="z37995c21"><use xlink:href="#z37995d21"/></clipPath>
	<clipPath id="z37995c22"><use xlink:href="#z37995d22"/></clipPath>
	<clipPath id="z37995c23"><use xlink:href="#z37995d23"/></clipPath>
	<clipPath id="z37995c24"><use xlink:href="#z37995d24"/></clipPath>
</defs>
<path pathLength="3333" clip-path="url(#z37995c1)" d="M478 28L499 78L402 188L277 284L146 348"/>
<path pathLength="3333" clip-path="url(#z37995c2)" d="M527 106L778 268L939 279"/>
<path pathLength="3333" clip-path="url(#z37995c3)" d="M397 229L598 202"/>
<path pathLength="3333" clip-path="url(#z37995c4)" d="M346 315L633 287"/>
<path pathLength="3333" clip-path="url(#z37995c5)" d="M470 245L494 277L484 434"/>
<path pathLength="3333" clip-path="url(#z37995c6)" d="M337 361L408 426"/>
<path pathLength="3333" clip-path="url(#z37995c7)" d="M609 317L622 355L562 401"/>
<path pathLength="3333" clip-path="url(#z37995c8)" d="M281 464L713 431"/>
<path pathLength="3333" clip-path="url(#z37995c9)" d="M361 510L320 526L234 638L98 740"/>
<path pathLength="3333" clip-path="url(#z37995c10)" d="M352 545L448 610"/>
<path pathLength="3333" clip-path="url(#z37995c11)" d="M243 660L425 637"/>
<path pathLength="3333" clip-path="url(#z37995c12)" d="M211 753L426 723"/>
<path pathLength="3333" clip-path="url(#z37995c13)" d="M310 682L332 712L320 862"/>
<path pathLength="3333" clip-path="url(#z37995c14)" d="M201 796L259 854"/>
<path pathLength="3333" clip-path="url(#z37995c15)" d="M415 755L423 787L376 824"/>
<path pathLength="3333" clip-path="url(#z37995c16)" d="M155 892L212 911L459 842"/>
<path pathLength="3333" clip-path="url(#z37995c17)" d="M613 462L632 492L586 558L461 662"/>
<path pathLength="3333" clip-path="url(#z37995c18)" d="M656 511L834 636L993 650"/>
<path pathLength="3333" clip-path="url(#z37995c19)" d="M543 648L722 622"/>
<path pathLength="3333" clip-path="url(#z37995c20)" d="M510 739L759 712"/>
<path pathLength="3333" clip-path="url(#z37995c21)" d="M617 669L644 695L633 871"/>
<path pathLength="3333" clip-path="url(#z37995c22)" d="M508 793L570 854"/>
<path pathLength="3333" clip-path="url(#z37995c23)" d="M783 789L745 783L706 838"/>
<path pathLength="3333" clip-path="url(#z37995c24)" d="M469 901L787 873L859 887"/>
</svg>