<!--
AnimCJK 2016-2019 Copyright Francois Mizessyn - https://github.com/parsimonhi/animCJK
Derived from:
    MakeMeAHanzi project - https://github.com/skishore/makemeahanzi
    Arphic PL KaitiM GB font
    Arphic PL UKai font
You can redistribute and/or modify this file under the terms of the Arphic Public License
as published by Arphic Technology Co., Ltd.
You should have received a copy of this license along with this file.
If not, see http://ftp.gnu.org/non-gnu/chinese-fonts-truetype/LICENSE.
-->
<svg id="z38028" class="acjk" version="1.1" viewBox="0 0 1024 1024" xmlns="http://www.w3.org/2000/svg" xmlns:xlink="http://www.w3.org/1999/xlink">
<style>
<![CDATA[
@keyframes zk {
	to {
		stroke-dashoffset:0;
	}
}
svg.acjk path[clip-path] {
	--t:0.8s;
	animation:zk var(--t) linear forwards var(--d);
	stroke-dasharray:3337;
	stroke-dashoffset:3339;
	stroke-width:128;
	stroke-linecap:round;
	fill:none;
	stroke:#000;
}
svg.acjk path[id] {fill:#ccc;}
]]>
</style>
<path id="z38028d1" d="M317 246Q368 158 387 139Q396 129 391 115Q387 102 358 81Q331 63 313 64Q294 65 303 87Q316 118 306 145Q272 233 217 317Q165 396 94 485Q84 495 82 502Q79 512 93 510Q147 501 297 277Q298 273 302 269C312 254 312 254 317 246Z"/>
<path id="z38028d2" d="M302 269Q341 285 388 272Q424 265 461 256Q477 252 480 250Q487 243 483 235Q476 225 449 219Q422 215 361 237Q357 237 317 246C308 248 294 266 302 269Z"/>
<path id="z38028d3" d="M323 424Q374 408 430 393Q457 384 461 380Q468 373 463 366Q456 356 431 352Q406 349 380 361Q350 374 317 385Q280 395 237 403Q206 410 230 424Q249 433 284 433C310 427 310 427 323 424Z"/>
<path id="z38028d4" d="M357 558Q396 546 440 536Q482 524 488 518Q495 511 491 503Q484 493 457 487Q432 484 357 513C326 524 326 524 310 529Q306 529 304 531Q246 547 178 558Q145 565 170 579Q207 597 280 578Q295 574 312 570C342 562 342 562 357 558Z"/>
<path id="z38028d5" d="M312 570Q315 706 271 767Q235 782 279 840Q280 841 284 845Q296 852 307 837Q323 809 466 690Q484 678 488 670Q492 660 482 660Q472 660 359 723Q349 729 348 719Q355 631 357 558C357 528 357 528 357 513Q357 491 362 472Q366 459 358 449Q340 433 323 424C312 417 275 424 284 433Q305 454 310 529C311 556 311 556 312 570Z"/>
<path id="z38028d6" d="M724 389Q844 277 884 262Q905 255 898 237Q894 221 823 185Q802 175 779 185Q716 210 620 242Q595 251 533 251Q508 251 518 272Q527 285 547 297Q580 312 618 289Q757 223 781 235Q794 242 789 256Q752 313 708 378C705 384 719 393 724 389Z"/>
<path id="z38028d7" d="M708 378Q668 350 651 346Q639 343 640 364Q641 380 660 394Q702 427 715 506Q742 705 708 785Q705 788 704 791Q695 801 596 787Q566 780 567 788Q631 842 697 896Q698 899 702 903Q711 913 721 907Q734 900 758 861Q806 774 765 479Q761 457 757 439Q750 408 724 389C713 382 713 382 708 378Z"/>
<defs>
	<clipPath id="z38028c1"><use xlink:href="#z38028d1"/></clipPath>
	<clipPath id="z38028c2"><use xlink:href="#z38028d2"/></clipPath>
	<clipPath id="z38028c3"><use xlink:href="#z38028d3"/></clipPath>
	<clipPath id="z38028c4"><use xlink:href="#z38028d4"/></clipPath>
	<clipPath id="z38028c5"><use xlink:href="#z38028d5"/></clipPath>
	<clipPath id="z38028c6"><use xlink:href="#z38028d6"/></clipPath>
	<clipPath id="z38028c7"><use xlink:href="#z38028d7"/></clipPath>
</defs>
<path style="--d:1s;" pathLength="3333" clip-path="url(#z38028c1)" d="M308 74L346 139L233 332L90 504"/>
<path style="--d:2s;" pathLength="3333" clip-path="url(#z38028c2)" d="M309 265L479 236"/>
<path style="--d:3s;" pathLength="3333" clip-path="url(#z38028c3)" d="M228 412L460 368"/>
<path style="--d:4s;" pathLength="3333" clip-path="url(#z38028c4)" d="M166 568L486 511"/>
<path style="--d:5s;" pathLength="3333" clip-path="url(#z38028c5)" d="M292 434L333 467L308 791L482 668"/>
<path style="--d:6s;" pathLength="3333" clip-path="url(#z38028c6)" d="M519 261L587 275L782 208L820 220L841 257L715 376"/>
<path style="--d:7s;" pathLength="3333" clip-path="url(#z38028c7)" d="M648 354L730 450L748 773L707 856L578 789"/>
</svg>