<!--
AnimCJK 2016-2019 Copyright Francois Mizessyn - https://github.com/parsimonhi/animCJK
Derived from:
    MakeMeAHanzi project - https://github.com/skishore/makemeahanzi
    Arphic PL KaitiM GB font
    Arphic PL UKai font
You can redistribute and/or modify this file under the terms of the Arphic Public License
as published by Arphic Technology Co., Ltd.
You should have received a copy of this license along with this file.
If not, see http://ftp.gnu.org/non-gnu/chinese-fonts-truetype/LICENSE.
-->
<svg id="z38026" class="acjk" version="1.1" viewBox="0 0 1024 1024" xmlns="http://www.w3.org/2000/svg" xmlns:xlink="http://www.w3.org/1999/xlink">
<style>
<![CDATA[
@keyframes zk {
	to {
		stroke-dashoffset:0;
	}
}
svg.acjk path[clip-path] {
	--t:0.8s;
	animation:zk var(--t) linear forwards var(--d);
	stroke-dasharray:3337;
	stroke-dashoffset:3339;
	stroke-width:128;
	stroke-linecap:round;
	fill:none;
	stroke:#000;
}
svg.acjk path[id] {fill:#ccc;}
]]>
</style>
<path id="z38026d1" d="M324 245Q363 176 389 152Q399 142 394 128Q390 115 362 92Q335 74 317 74Q298 75 306 97Q321 130 307 157Q244 307 75 506Q65 516 63 522Q59 532 73 530Q131 523 299 284Q300 278 305 274C318 255 318 255 324 245Z"/>
<path id="z38026d2" d="M305 274Q341 284 415 267Q443 260 475 252Q494 246 497 243Q504 236 500 227Q493 217 463 211Q439 208 365 235Q344 239 324 245C313 247 294 272 305 274Z"/>
<path id="z38026d3" d="M323 424Q438 391 445 386Q452 377 448 370Q441 360 413 356Q385 353 359 367Q334 377 307 386Q277 395 241 401Q208 410 234 423Q252 432 276 432C307 427 307 427 323 424Z"/>
<path id="z38026d4" d="M351 565Q453 534 461 527Q468 520 464 511Q457 501 427 496Q399 492 351 515C318 528 318 528 301 534Q294 535 289 538Q241 553 186 563Q152 572 178 586Q212 601 282 585Q291 582 303 580C335 570 335 570 351 565Z"/>
<path id="z38026d5" d="M303 580Q303 709 264 768Q221 798 267 851Q268 852 272 856Q284 863 296 847Q314 817 472 699Q491 686 496 678Q500 668 490 668Q481 668 355 730Q342 737 342 724Q349 636 351 565C351 532 351 532 351 515Q351 490 356 470Q360 457 351 445Q338 432 323 424C309 416 269 418 276 432Q298 478 301 534C302 565 302 565 303 580Z"/>
<path id="z38026d6" d="M570 303Q600 360 579 529Q573 565 600 594Q609 604 618 594Q636 569 636 500Q636 371 641 331Q647 309 628 298Q612 288 595 280Q583 276 574 282Q567 288 570 303Z"/>
<path id="z38026d7" d="M768 157Q772 196 777 786Q777 811 763 821Q754 827 695 814Q661 801 663 812Q664 819 685 836Q746 890 762 920Q780 954 795 956Q811 957 827 920Q846 871 844 790Q823 531 827 271Q830 177 843 126Q861 93 800 70Q763 51 743 59Q724 66 741 91Q765 119 768 157Z"/>
<defs>
	<clipPath id="z38026c1"><use xlink:href="#z38026d1"/></clipPath>
	<clipPath id="z38026c2"><use xlink:href="#z38026d2"/></clipPath>
	<clipPath id="z38026c3"><use xlink:href="#z38026d3"/></clipPath>
	<clipPath id="z38026c4"><use xlink:href="#z38026d4"/></clipPath>
	<clipPath id="z38026c5"><use xlink:href="#z38026d5"/></clipPath>
	<clipPath id="z38026c6"><use xlink:href="#z38026d6"/></clipPath>
	<clipPath id="z38026c7"><use xlink:href="#z38026d7"/></clipPath>
</defs>
<path style="--d:1s;" pathLength="3333" clip-path="url(#z38026c1)" d="M312 84L351 127L345 155L202 380L67 521"/>
<path style="--d:2s;" pathLength="3333" clip-path="url(#z38026c2)" d="M315 270L496 230"/>
<path style="--d:3s;" pathLength="3333" clip-path="url(#z38026c3)" d="M230 411L444 369"/>
<path style="--d:4s;" pathLength="3333" clip-path="url(#z38026c4)" d="M173 573L459 518"/>
<path style="--d:5s;" pathLength="3333" clip-path="url(#z38026c5)" d="M283 433L323 462L300 808L490 674"/>
<path style="--d:6s;" pathLength="3333" clip-path="url(#z38026c6)" d="M578 283L611 326L607 588"/>
<path style="--d:7s;" pathLength="3333" clip-path="url(#z38026c7)" d="M740 65L805 123L810 802L776 903L669 812"/>
</svg>