<!--
AnimCJK 2016-2017 Copyright Francois Mizessyn, http://gooo.free.fr/animCJK/
Derived from:
    MakeMeAHanzi project - https://github.com/skishore/makemeahanzi
    Arphic PL KaitiM GB - https://apps.ubuntu.com/cat/applications/precise/fonts-arphic-gkai00mp/
    Arphic PL UKai - https://apps.ubuntu.com/cat/applications/fonts-arphic-ukai/
You can redistribute and/or modify this file under the terms of the Arphic Public License
as published by Arphic Technology Co., Ltd.
You should have received a copy of this license (the directory "APL") along with this file;
if not, see http://ftp.gnu.org/non-gnu/chinese-fonts-truetype/LICENSE.
-->
<svg id="z38046" class="acjk" version="1.1" viewBox="0 0 1024 1024" xmlns="http://www.w3.org/2000/svg" xmlns:xlink="http://www.w3.org/1999/xlink">
<style>
<![CDATA[
	@keyframes z38046k {
		from {
			stroke:#c00;
			stroke-dashoffset:3000;
		}
		75% {
			stroke:#c00;
			stroke-dashoffset:0;
		}
		to {
			stroke:#000;
		}
	}
	#z38046 path[clip-path] {
		animation:z38046k 1s linear both;
		stroke-dasharray:3000;
		stroke-width:128;
		stroke-linecap:round;
		fill:none;
	}
	#z38046 path[clip-path="url(#z38046c1)"] {animation-delay:1s;}
	#z38046 path[clip-path="url(#z38046c2)"] {animation-delay:2s;}
	#z38046 path[clip-path="url(#z38046c3)"] {animation-delay:3s;}
	#z38046 path[clip-path="url(#z38046c4)"] {animation-delay:4s;}
	#z38046 path[clip-path="url(#z38046c5)"] {animation-delay:5s;}
	#z38046 path[clip-path="url(#z38046c6)"] {animation-delay:6s;}
	#z38046 path[clip-path="url(#z38046c7)"] {animation-delay:7s;}
	#z38046 path[clip-path="url(#z38046c8)"] {animation-delay:8s;}
	#z38046 path[clip-path="url(#z38046c9)"] {animation-delay:9s;}
	#z38046 path {fill:#ccc;}
]]>
</style>
<g transform="scale(1,-1) translate(0,-900)">
	<path id="z38046d1" d="M248 516Q252 525 260 532Q309 596 343 653L361 684Q368 711 406 760Q413 772 406 787Q373 841 338 841Q322 841 327 819Q354 684 87 395Q48 359 47 349Q47 343 53 344Q63 345 72 351Q139 396 171 430Q205 464 236 502L248 516Z"/>
	<path id="z38046d2" d="M343 653Q385 641 425 655Q461 664 498 673Q514 677 517 681Q524 688 520 697Q513 707 483 713Q455 716 426 702Q414 698 361 684L343 653Z"/>
	<path id="z38046d3" d="M340 498Q454 534 457 536Q464 543 460 550Q453 560 427 564Q400 565 376 554Q351 542 322 533Q291 523 252 517Q251 517 248 516L236 502Q263 489 296 488L340 498Z"/>
	<path id="z38046d4" d="M369 336Q463 369 465 370Q472 377 468 386Q461 396 433 400Q418 401 370 386L321 366Q248 342 189 331Q156 322 182 309Q212 294 281 311Q299 317 322 322L369 336Z"/>
	<path id="z38046d5" d="M322 322Q318 196 286 146Q247 101 288 53L290 52Q303 43 315 60Q331 91 485 216Q504 229 508 238Q512 248 502 248Q487 248 369 180Q359 173 358 183Q365 267 369 336L370 386Q370 425 375 450Q381 472 340 498L296 488Q320 434 321 366L322 322Z"/>
	<path id="z38046d6" d="M628 776Q656 734 655 666Q662 458 648 400Q647 385 653 368Q659 359 664 347Q674 331 690 340Q699 349 700 406Q684 658 726 740Q732 750 720 764Q696 783 667 794Q651 801 635 796Q622 792 628 776Z"/>
	<path id="z38046d7" d="M544 565Q529 507 504 453Q492 425 509 398Q518 383 533 396Q576 441 571 521Q572 548 563 568Q559 575 553 575Q546 572 544 565Z"/>
	<path id="z38046d8" d="M817 580Q862 543 910 500Q923 487 938 488Q948 488 953 501Q957 514 949 543Q943 571 902 594Q808 634 792 627Q788 623 788 611Q792 601 817 580Z"/>
	<path id="z38046d9" d="M750 466Q756 298 583 123Q460 18 417 -14Q401 -24 385 -37Q376 -44 383 -48Q390 -52 403 -47Q590 25 686 163Q738 233 791 352Q809 388 830 421Q839 431 834 442Q827 454 796 473Q774 488 764 486Q749 482 750 466Z"/>
	<defs>
		<clipPath id="z38046c1"><use xlink:href="#z38046d1"/></clipPath>
		<clipPath id="z38046c2"><use xlink:href="#z38046d2"/></clipPath>
		<clipPath id="z38046c3"><use xlink:href="#z38046d3"/></clipPath>
		<clipPath id="z38046c4"><use xlink:href="#z38046d4"/></clipPath>
		<clipPath id="z38046c5"><use xlink:href="#z38046d5"/></clipPath>
		<clipPath id="z38046c6"><use xlink:href="#z38046d6"/></clipPath>
		<clipPath id="z38046c7"><use xlink:href="#z38046d7"/></clipPath>
		<clipPath id="z38046c8"><use xlink:href="#z38046d8"/></clipPath>
		<clipPath id="z38046c9"><use xlink:href="#z38046d9"/></clipPath>
	</defs>
	<path pathLength="2999" clip-path="url(#z38046c1)" d="M335 833L367 768L299 628L188 478L56 351"/>
	<path pathLength="2999" clip-path="url(#z38046c2)" d="M351 657L516 692"/>
	<path pathLength="2999" clip-path="url(#z38046c3)" d="M243 506L456 544"/>
	<path pathLength="2999" clip-path="url(#z38046c4)" d="M179 320L464 382"/>
	<path pathLength="2999" clip-path="url(#z38046c5)" d="M302 486L344 434L316 102L502 242"/>
	<path pathLength="2999" clip-path="url(#z38046c6)" d="M634 787L688 738L676 342"/>
	<path pathLength="2999" clip-path="url(#z38046c7)" d="M555 571L518 395"/>
	<path pathLength="2999" clip-path="url(#z38046c8)" d="M795 623L902 554L948 497"/>
	<path pathLength="2999" clip-path="url(#z38046c9)" d="M760 481L792 428L681 199L571 78L388 -41"/>
</g>
</svg>