<!--
AnimCJK 2016-2017 Copyright Francois Mizessyn, https://github.com/parsimonhi/animCJK
Derived from:
    MakeMeAHanzi project - https://github.com/skishore/makemeahanzi
    Arphic PL KaitiM GB - https://apps.ubuntu.com/cat/applications/precise/fonts-arphic-gkai00mp/
    Arphic PL UKai - https://apps.ubuntu.com/cat/applications/fonts-arphic-ukai/
You can redistribute and/or modify this file under the terms of the Arphic Public License
as published by Arphic Technology Co., Ltd.
You should have received a copy of this license (the directory "APL") along with this file;
if not, see http://ftp.gnu.org/non-gnu/chinese-fonts-truetype/LICENSE.
-->
<svg id="z38041" class="acjk" version="1.1" viewBox="0 0 1024 1024" xmlns="http://www.w3.org/2000/svg" xmlns:xlink="http://www.w3.org/1999/xlink">
<style>
<![CDATA[
@keyframes z38041k {
	from {
		stroke:#c00;
		stroke-dashoffset:3334;
	}
	75% {
		stroke:#c00;
		stroke-dashoffset:0;
	}
	to {
		stroke:#000;
	}
}
#z38041 path[clip-path] {
	animation:z38041k 1s linear both;
	stroke-dasharray:3334;
	stroke-width:128;
	stroke-linecap:round;
	fill:none;
}
#z38041 path[clip-path="url(#z38041c1)"] {animation-delay:1s;}
#z38041 path[clip-path="url(#z38041c2)"] {animation-delay:2s;}
#z38041 path[clip-path="url(#z38041c3)"] {animation-delay:3s;}
#z38041 path[clip-path="url(#z38041c4)"] {animation-delay:4s;}
#z38041 path[clip-path="url(#z38041c5)"] {animation-delay:5s;}
#z38041 path[clip-path="url(#z38041c6)"] {animation-delay:6s;}
#z38041 path[clip-path="url(#z38041c7)"] {animation-delay:7s;}
#z38041 path[clip-path="url(#z38041c8)"] {animation-delay:8s;}
#z38041 path[clip-path="url(#z38041c9)"] {animation-delay:9s;}
#z38041 path {fill:#ccc;}
]]>
</style>
<path id="z38041d1" d="M299 267Q341 191 370 161Q380 151 375 137Q371 124 342 100Q314 82 295 82Q276 83 285 107Q298 138 287 167Q248 260 191 346Q136 430 59 521Q49 531 46 537Q43 549 57 546Q109 540 275 304Q278 298 281 295L299 267 Z"/>
<path id="z38041d2" d="M281 295Q318 304 401 284Q423 277 448 269Q464 263 467 261Q474 251 469 244Q460 232 429 229Q410 229 332 258Q316 262 299 267L281 295 Z"/>
<path id="z38041d3" d="M309 441Q415 405 418 403Q425 394 420 387Q413 377 383 373Q353 370 326 386Q301 396 274 406Q244 416 209 423Q175 433 201 446Q219 455 263 455L309 441 Z"/>
<path id="z38041d4" d="M332 607Q422 573 423 571Q430 562 425 555Q416 545 387 541Q359 540 334 553L286 576Q271 580 257 587Q215 603 164 615Q130 625 157 638Q199 656 252 635Q267 629 285 624L332 607 Z"/>
<path id="z38041d5" d="M285 624Q281 750 250 798Q205 849 254 892Q267 901 279 884Q295 854 441 732Q460 719 464 710Q468 700 458 700Q448 700 333 764Q323 770 322 761Q329 677 332 607L334 553Q334 513 339 486Q345 465 309 441L263 455Q284 501 285 554Q285 564 286 576L285 624 Z"/>
<path id="z38041d6" d="M677 234Q728 221 862 202Q872 203 881 190Q882 180 859 169Q831 148 750 173Q728 177 706 184Q673 191 524 215Q496 219 518 236Q551 260 590 251Q612 245 639 241L677 234 Z"/>
<path id="z38041d7" d="M698 539Q702 460 706 393L707 365Q710 299 712 288Q719 270 710 260Q694 244 677 234L639 241Q654 277 655 298Q656 325 655 550L698 539 Z"/>
<path id="z38041d8" d="M706 393Q748 397 845 374Q846 373 850 373Q866 369 869 366Q876 359 872 351Q865 341 837 336Q815 333 750 356Q747 356 707 365L706 393 Z"/>
<path id="z38041d9" d="M532 632Q601 587 802 555Q824 551 834 559Q850 581 840 620Q821 705 776 817Q766 841 745 852Q736 856 658 834Q640 825 639 834Q638 844 656 860Q690 902 704 936Q720 970 747 952Q802 919 817 893Q836 856 885 662Q892 599 921 578Q936 562 930 552Q918 539 871 516Q846 501 766 524Q741 527 698 539L655 550Q607 560 565 575Q543 579 546 564Q558 458 573 413Q579 397 569 386Q551 373 536 365Q512 358 504 363Q497 369 503 382Q521 412 505 536Q502 551 474 586Q464 601 473 612Q483 622 505 637Q517 644 532 632 Z"/>
<defs>
	<clipPath id="z38041c1"><use xlink:href="#z38041d1"/></clipPath>
	<clipPath id="z38041c2"><use xlink:href="#z38041d2"/></clipPath>
	<clipPath id="z38041c3"><use xlink:href="#z38041d3"/></clipPath>
	<clipPath id="z38041c4"><use xlink:href="#z38041d4"/></clipPath>
	<clipPath id="z38041c5"><use xlink:href="#z38041d5"/></clipPath>
	<clipPath id="z38041c6"><use xlink:href="#z38041d6"/></clipPath>
	<clipPath id="z38041c7"><use xlink:href="#z38041d7"/></clipPath>
	<clipPath id="z38041c8"><use xlink:href="#z38041d8"/></clipPath>
	<clipPath id="z38041c9"><use xlink:href="#z38041d9"/></clipPath>
</defs>
<path pathLength="3333" clip-path="url(#z38041c1)" d="M288 89L333 151L211 356L52 538"/>
<path pathLength="3333" clip-path="url(#z38041c2)" d="M288 291L465 255"/>
<path pathLength="3333" clip-path="url(#z38041c3)" d="M197 432L415 394"/>
<path pathLength="3333" clip-path="url(#z38041c4)" d="M153 624L421 559"/>
<path pathLength="3333" clip-path="url(#z38041c5)" d="M270 460L309 489L273 833L291 844L458 707"/>
<path pathLength="3333" clip-path="url(#z38041c6)" d="M515 223L871 188"/>
<path pathLength="3333" clip-path="url(#z38041c7)" d="M648 245L684 280L669 545"/>
<path pathLength="3333" clip-path="url(#z38041c8)" d="M714 386L868 357"/>
<path pathLength="3333" clip-path="url(#z38041c9)" d="M508 368L543 412L510 588L529 606L815 533L887 570L779 878L732 905L646 839"/>
</svg>