<!--
AnimCJK 2016-2017 Copyright Francois Mizessyn, http://gooo.free.fr/animCJK/
Derived from:
    MakeMeAHanzi project - https://github.com/skishore/makemeahanzi
    Arphic PL KaitiM GB - https://apps.ubuntu.com/cat/applications/precise/fonts-arphic-gkai00mp/
    Arphic PL UKai - https://apps.ubuntu.com/cat/applications/fonts-arphic-ukai/
You can redistribute and/or modify this file under the terms of the Arphic Public License
as published by Arphic Technology Co., Ltd.
You should have received a copy of this license (the directory "APL") along with this file;
if not, see http://ftp.gnu.org/non-gnu/chinese-fonts-truetype/LICENSE.
-->
<svg id="z38057" class="acjk" version="1.1" viewBox="0 0 1024 1024" xmlns="http://www.w3.org/2000/svg" xmlns:xlink="http://www.w3.org/1999/xlink">
<style>
<![CDATA[
	@keyframes z38057k {
		from {
			stroke:#c00;
			stroke-dashoffset:3000;
		}
		75% {
			stroke:#c00;
			stroke-dashoffset:0;
		}
		to {
			stroke:#000;
		}
	}
	#z38057 path[clip-path] {
		animation:z38057k 1s linear both;
		stroke-dasharray:3000;
		stroke-width:128;
		stroke-linecap:round;
		fill:none;
	}
	#z38057 path[clip-path="url(#z38057c1)"] {animation-delay:1s;}
	#z38057 path[clip-path="url(#z38057c2)"] {animation-delay:2s;}
	#z38057 path[clip-path="url(#z38057c3)"] {animation-delay:3s;}
	#z38057 path[clip-path="url(#z38057c4)"] {animation-delay:4s;}
	#z38057 path[clip-path="url(#z38057c5)"] {animation-delay:5s;}
	#z38057 path[clip-path="url(#z38057c6)"] {animation-delay:6s;}
	#z38057 path[clip-path="url(#z38057c7)"] {animation-delay:7s;}
	#z38057 path[clip-path="url(#z38057c8)"] {animation-delay:8s;}
	#z38057 path[clip-path="url(#z38057c9)"] {animation-delay:9s;}
	#z38057 path {fill:#ccc;}
]]>
</style>
<g transform="scale(1,-1) translate(0,-900)">
	<path id="z38057d1" d="M297 623Q357 725 378 744Q387 754 382 768Q378 781 350 804Q323 822 305 821Q286 820 294 798Q309 765 296 737Q259 644 200 557Q143 475 67 382Q57 372 54 366Q51 356 65 358Q119 367 280 597L297 623Z"/>
	<path id="z38057d2" d="M280 597Q323 581 372 599Q403 608 437 618Q452 622 454 625Q461 634 456 641Q449 651 419 655Q397 658 333 632Q327 632 297 623L280 597Z"/>
	<path id="z38057d3" d="M307 453Q418 487 422 493Q429 502 424 509Q417 519 387 523Q357 526 330 510Q305 500 278 490Q248 480 213 473Q179 463 205 450Q223 441 264 441L307 453Z"/>
	<path id="z38057d4" d="M325 298Q424 337 426 337Q433 346 428 353Q421 363 391 367Q346 370 327 350L283 331Q222 310 168 297Q134 287 161 274Q198 259 264 279Q271 282 283 284L325 298Z"/>
	<path id="z38057d5" d="M283 284Q279 157 239 105Q215 75 258 37Q270 30 280 46Q293 74 417 193Q433 206 436 215Q439 224 430 223Q423 223 321 158Q317 154 315 158Q322 234 325 298L327 350Q327 389 332 414Q338 430 307 453L264 441Q282 399 283 331L283 284Z"/>
	<path id="z38057d6" d="M557 564Q558 567 561 569Q601 624 642 707Q658 744 675 764Q682 776 677 788Q673 800 642 819Q615 834 597 831Q579 828 589 808Q613 766 542 620Q508 553 459 478Q452 468 449 461Q448 451 460 454Q482 460 545 545L557 564Z"/>
	<path id="z38057d7" d="M706 82Q693 81 630 113Q620 117 619 112Q618 108 628 97Q668 45 684 9Q693 -13 706 -14Q728 -15 748 6Q826 69 853 264Q865 357 874 484Q875 521 898 548Q911 561 910 570Q909 577 889 592Q862 611 827 622Q803 631 751 611Q603 575 557 564L545 545Q584 538 726 566Q790 579 801 570Q822 521 797 297Q781 183 745 119Q729 83 706 82Z"/>
	<path id="z38057d8" d="M675 319Q617 310 557 295Q550 294 548 295Q547 298 550 305Q619 420 634 439Q644 449 637 460Q630 470 585 486Q569 492 561 487Q551 480 558 463Q580 409 510 316Q494 297 469 276Q457 263 462 254Q468 239 493 223Q503 214 514 225Q544 252 681 295Q684 296 689 297L675 319Z"/>
	<path id="z38057d9" d="M689 297Q710 266 720 263Q727 262 734 269Q740 279 740 301Q740 332 663 381Q653 387 648 386Q644 385 642 375L675 319L689 297Z"/>
	<defs>
		<clipPath id="z38057c1"><use xlink:href="#z38057d1"/></clipPath>
		<clipPath id="z38057c2"><use xlink:href="#z38057d2"/></clipPath>
		<clipPath id="z38057c3"><use xlink:href="#z38057d3"/></clipPath>
		<clipPath id="z38057c4"><use xlink:href="#z38057d4"/></clipPath>
		<clipPath id="z38057c5"><use xlink:href="#z38057d5"/></clipPath>
		<clipPath id="z38057c6"><use xlink:href="#z38057d6"/></clipPath>
		<clipPath id="z38057c7"><use xlink:href="#z38057d7"/></clipPath>
		<clipPath id="z38057c8"><use xlink:href="#z38057d8"/></clipPath>
		<clipPath id="z38057c9"><use xlink:href="#z38057d9"/></clipPath>
	</defs>
	<path pathLength="2999" clip-path="url(#z38057c1)" d="M299 815L340 750L209 533L59 365"/>
	<path pathLength="2999" clip-path="url(#z38057c2)" d="M288 601L453 635"/>
	<path pathLength="2999" clip-path="url(#z38057c3)" d="M201 464L419 502"/>
	<path pathLength="2999" clip-path="url(#z38057c4)" d="M155 283L423 349"/>
	<path pathLength="2999" clip-path="url(#z38057c5)" d="M272 435L305 402L276 98L292 84L429 217"/>
	<path pathLength="2999" clip-path="url(#z38057c6)" d="M593 825L635 769L556 600L456 461"/>
	<path pathLength="2999" clip-path="url(#z38057c7)" d="M553 550L794 599L858 557L818 237L774 98L710 35L625 108"/>
	<path pathLength="2999" clip-path="url(#z38057c8)" d="M566 483L601 441L507 271L523 259L680 302"/>
	<path pathLength="2999" clip-path="url(#z38057c9)" d="M652 377L727 270"/>
</g>
</svg>