<!--
AnimCJK 2016-2017 Copyright Francois Mizessyn, http://gooo.free.fr/animCJK/
Derived from:
    MakeMeAHanzi project - https://github.com/skishore/makemeahanzi
    Arphic PL KaitiM GB - https://apps.ubuntu.com/cat/applications/precise/fonts-arphic-gkai00mp/
    Arphic PL UKai - https://apps.ubuntu.com/cat/applications/fonts-arphic-ukai/
You can redistribute and/or modify this file under the terms of the Arphic Public License
as published by Arphic Technology Co., Ltd.
You should have received a copy of this license (the directory "APL") along with this file;
if not, see http://ftp.gnu.org/non-gnu/chinese-fonts-truetype/LICENSE.
-->
<svg id="z38050" class="acjk" version="1.1" viewBox="0 0 1024 1024" xmlns="http://www.w3.org/2000/svg" xmlns:xlink="http://www.w3.org/1999/xlink">
<style>
<![CDATA[
	@keyframes z38050k {
		from {
			stroke:#c00;
			stroke-dashoffset:3000;
		}
		75% {
			stroke:#c00;
			stroke-dashoffset:0;
		}
		to {
			stroke:#000;
		}
	}
	#z38050 path[clip-path] {
		animation:z38050k 1s linear both;
		stroke-dasharray:3000;
		stroke-width:128;
		stroke-linecap:round;
		fill:none;
	}
	#z38050 path[clip-path="url(#z38050c1)"] {animation-delay:1s;}
	#z38050 path[clip-path="url(#z38050c2)"] {animation-delay:2s;}
	#z38050 path[clip-path="url(#z38050c3)"] {animation-delay:3s;}
	#z38050 path[clip-path="url(#z38050c4)"] {animation-delay:4s;}
	#z38050 path[clip-path="url(#z38050c5)"] {animation-delay:5s;}
	#z38050 path[clip-path="url(#z38050c6)"] {animation-delay:6s;}
	#z38050 path[clip-path="url(#z38050c7)"] {animation-delay:7s;}
	#z38050 path[clip-path="url(#z38050c8)"] {animation-delay:8s;}
	#z38050 path[clip-path="url(#z38050c9)"] {animation-delay:9s;}
	#z38050 path {fill:#ccc;}
]]>
</style>
<g transform="scale(1,-1) translate(0,-900)">
	<path id="z38050d1" d="M292 626Q358 737 378 755Q388 765 383 779Q379 792 350 816Q322 834 303 834Q284 833 293 809Q306 778 295 749Q256 656 199 570Q144 486 67 395Q57 385 54 379Q51 367 65 370Q116 376 278 605L292 626Z"/>
	<path id="z38050d2" d="M278 605Q309 590 382 603Q409 609 438 616Q454 620 456 622Q463 629 459 637Q452 647 425 653Q398 657 338 635L292 626L278 605Z"/>
	<path id="z38050d3" d="M313 461Q421 497 426 501Q433 510 428 517Q421 527 391 531Q361 534 334 518Q309 508 282 498Q252 488 217 481Q183 471 209 458Q227 449 259 449L313 461Z"/>
	<path id="z38050d4" d="M328 321Q431 352 437 357Q444 364 440 373Q433 383 403 388Q367 394 328 370L280 352Q274 351 272 350Q229 337 178 329Q144 320 170 306Q215 288 279 307L281 307L328 321Z"/>
	<path id="z38050d5" d="M281 307Q281 169 243 112Q210 82 255 35Q256 34 260 30Q273 23 284 40Q296 68 424 195Q440 208 444 218Q448 228 438 227Q425 227 329 163Q323 157 321 164Q328 249 328 321L328 370Q328 407 332 427Q338 445 313 461L259 449Q280 401 280 352L281 307Z"/>
	<path id="z38050d6" d="M545 655Q523 673 497 680Q487 683 480 673Q476 667 484 655Q535 528 498 268Q491 226 477 181Q468 153 473 132Q483 95 495 81Q508 66 518 81Q551 118 552 275Q552 536 564 615L545 655Z"/>
	<path id="z38050d7" d="M564 615Q715 645 791 656Q815 660 826 647Q839 640 844 579Q857 378 845 149Q845 115 832 106Q816 97 746 121Q730 125 730 115Q731 108 743 101Q806 52 838 13Q859 -6 871 -4Q884 -1 895 27Q911 72 912 137Q891 584 912 626Q925 647 914 659Q904 674 857 698Q838 708 766 689Q559 658 545 655L564 615Z"/>
	<path id="z38050d8" d="M722 373Q723 377 727 382Q751 425 769 499Q775 521 784 543Q790 552 784 560Q777 567 749 579Q730 586 721 584Q709 580 713 566Q731 497 688 406L669 366Q621 294 570 239Q564 232 570 230Q597 226 669 301Q682 314 695 330L722 373Z"/>
	<path id="z38050d9" d="M695 330Q773 213 783 209Q790 208 797 214Q807 221 804 257Q801 294 722 373L688 406Q633 458 599 485Q593 491 590 481Q587 471 594 462Q630 419 669 366L695 330Z"/>
	<defs>
		<clipPath id="z38050c1"><use xlink:href="#z38050d1"/></clipPath>
		<clipPath id="z38050c2"><use xlink:href="#z38050d2"/></clipPath>
		<clipPath id="z38050c3"><use xlink:href="#z38050d3"/></clipPath>
		<clipPath id="z38050c4"><use xlink:href="#z38050d4"/></clipPath>
		<clipPath id="z38050c5"><use xlink:href="#z38050d5"/></clipPath>
		<clipPath id="z38050c6"><use xlink:href="#z38050d6"/></clipPath>
		<clipPath id="z38050c7"><use xlink:href="#z38050d7"/></clipPath>
		<clipPath id="z38050c8"><use xlink:href="#z38050d8"/></clipPath>
		<clipPath id="z38050c9"><use xlink:href="#z38050d9"/></clipPath>
	</defs>
	<path pathLength="2999" clip-path="url(#z38050c1)" d="M296 828L341 766L201 535L63 376"/>
	<path pathLength="2999" clip-path="url(#z38050c2)" d="M283 609L456 635"/>
	<path pathLength="2999" clip-path="url(#z38050c3)" d="M206 471L423 510"/>
	<path pathLength="2999" clip-path="url(#z38050c4)" d="M165 318L437 371"/>
	<path pathLength="2999" clip-path="url(#z38050c5)" d="M265 447L302 423L278 90L437 220"/>
	<path pathLength="2999" clip-path="url(#z38050c6)" d="M486 672L519 643L534 554L500 80"/>
	<path pathLength="2999" clip-path="url(#z38050c7)" d="M554 654L586 640L827 678L876 642L875 109L843 49L739 117"/>
	<path pathLength="2999" clip-path="url(#z38050c8)" d="M721 577L752 543L717 414L677 341L575 236"/>
	<path pathLength="2999" clip-path="url(#z38050c9)" d="M595 479L743 310L788 214"/>
</g>
</svg>