<!--
AnimCJK 2016-2019 Copyright Francois Mizessyn - https://github.com/parsimonhi/animCJK
Derived from:
    MakeMeAHanzi project - https://github.com/skishore/makemeahanzi
    Arphic PL KaitiM GB font
    Arphic PL UKai font
You can redistribute and/or modify this file under the terms of the Arphic Public License
as published by Arphic Technology Co., Ltd.
You should have received a copy of this license along with this file.
If not, see http://ftp.gnu.org/non-gnu/chinese-fonts-truetype/LICENSE.
-->
<svg id="z38069" class="acjk" version="1.1" viewBox="0 0 1024 1024" xmlns="http://www.w3.org/2000/svg" xmlns:xlink="http://www.w3.org/1999/xlink">
<style>
<![CDATA[
@keyframes zk {
	to {
		stroke-dashoffset:0;
	}
}
svg.acjk path[clip-path] {
	--t:0.8s;
	animation:zk var(--t) linear forwards var(--d);
	stroke-dasharray:3337;
	stroke-dashoffset:3339;
	stroke-width:128;
	stroke-linecap:round;
	fill:none;
	stroke:#000;
}
svg.acjk path[id] {fill:#ccc;}
]]>
</style>
<path id="z38069d1" d="M186 417C213 381 249 334 274 293C283 277 283 277 288 269C323 208 345 173 356 163C362 156 363 148 360 139C357 130 346 118 326 105C308 92 292 86 280 88C267 89 264 98 271 112C280 132 281 151 275 168C237 267 172 381 74 505C68 512 63 517 62 522C60 528 63 531 73 530C91 527 126 494 176 430C183 421 183 421 186 417Z"/>
<path id="z38069d2" d="M274 293C304 303 333 302 360 295C378 289 397 287 417 283C425 281 430 279 432 278C436 273 438 268 435 263C430 256 419 250 401 247C391 244 362 251 316 264C307 266 298 267 288 269C279 271 265 290 274 293Z"/>
<path id="z38069d3" d="M279 435C304 430 395 398 397 396C401 391 402 386 400 382C395 375 384 369 367 368C349 366 331 370 316 378C299 385 281 392 262 399C241 405 217 411 186 417C181 418 171 428 176 430C194 438 213 447 232 444C263 438 263 438 279 435Z"/>
<path id="z38069d4" d="M294 566Q322 556 355 548Q388 538 393 532Q400 525 395 518Q388 508 363 504Q330 501 294 521C265 532 265 532 251 538Q173 559 133 567Q102 574 126 588Q160 603 229 584Q238 581 251 578C280 570 280 570 294 566Z"/>
<path id="z38069d5" d="M251 578C251 627 238 727 216 758C195 787 195 814 225 839C232 845 241 841 247 830C255 813 296 767 373 694C382 684 390 678 392 673C394 667 392 664 386 665C380 665 347 682 290 719C286 721 282 721 283 718C285 661 294 611 294 566C294 536 294 536 294 521C294 508 296 484 300 470C303 457 297 446 279 435C265 427 226 429 232 444C244 472 251 503 251 538C251 565 251 565 251 578Z"/>
<path id="z38069d6" d="M655 345C697 336 758 324 837 316C843 315 852 314 857 304C860 296 849 289 834 281C810 268 769 271 707 287C679 293 662 299 654 301C627 307 627 307 613 310C575 318 483 329 452 334C432 337 429 344 445 356C468 374 490 380 510 375C534 368 562 364 592 358C634 349 634 349 655 345Z"/>
<path id="z38069d7" d="M657 656C657 594 655 517 655 426C655 390 655 390 655 372C655 363 655 354 655 345C654 316 654 316 654 301C652 240 657 188 671 149C674 137 679 129 676 121C672 113 650 100 615 79C598 68 584 68 572 79C568 82 566 89 573 99C594 132 608 163 609 196C610 232 612 270 613 310C614 395 614 395 614 437C614 513 614 650 613 668C610 695 610 695 609 709C606 739 599 770 592 800C585 826 590 859 608 899C612 909 618 915 623 919C627 922 630 922 636 918C653 901 661 861 659 795C658 771 657 739 657 699C657 670 657 670 657 656Z"/>
<path id="z38069d8" d="M592 358C575 408 554 457 530 504C501 558 451 635 381 735C378 741 380 745 388 745C392 745 397 743 403 737C491 655 561 555 614 437C642 367 620 288 592 358Z"/>
<path id="z38069d9" d="M655 426C747 612 808 707 838 711C880 716 920 713 956 715C972 715 979 714 980 711C981 706 974 699 958 689C867 633 817 599 808 588C752 525 702 455 659 379C657 376 655 374 655 372C646 357 647 410 655 426Z"/>
<path id="z38069d10" d="M657 699C715 686 747 679 751 676C755 671 757 666 755 662C750 655 739 650 723 646C699 640 679 649 657 656C628 664 628 664 613 668C579 677 521 682 508 684C487 686 483 695 499 704C529 721 549 721 609 709C641 702 641 702 657 699Z"/>
<defs>
	<clipPath id="z38069c1"><use xlink:href="#z38069d1"/></clipPath>
	<clipPath id="z38069c2"><use xlink:href="#z38069d2"/></clipPath>
	<clipPath id="z38069c3"><use xlink:href="#z38069d3"/></clipPath>
	<clipPath id="z38069c4"><use xlink:href="#z38069d4"/></clipPath>
	<clipPath id="z38069c5"><use xlink:href="#z38069d5"/></clipPath>
	<clipPath id="z38069c6"><use xlink:href="#z38069d6"/></clipPath>
	<clipPath id="z38069c7"><use xlink:href="#z38069d7"/></clipPath>
	<clipPath id="z38069c8"><use xlink:href="#z38069d8"/></clipPath>
	<clipPath id="z38069c9"><use xlink:href="#z38069d9"/></clipPath>
	<clipPath id="z38069c10"><use xlink:href="#z38069d10"/></clipPath>
</defs>
<path style="--d:1s;" pathLength="3333" clip-path="url(#z38069c1)" d="M277 98L320 154L206 354L70 525"/>
<path style="--d:2s;" pathLength="3333" clip-path="url(#z38069c2)" d="M281 289L430 270"/>
<path style="--d:3s;" pathLength="3333" clip-path="url(#z38069c3)" d="M184 428L396 382"/>
<path style="--d:4s;" pathLength="3333" clip-path="url(#z38069c4)" d="M122 575L390 525"/>
<path style="--d:5s;" pathLength="3333" clip-path="url(#z38069c5)" d="M241 447L273 475L244 778L261 788L385 673"/>
<path style="--d:6s;" pathLength="3333" clip-path="url(#z38069c6)" d="M443 343L500 352L789 296L849 302"/>
<path style="--d:7s;" pathLength="3333" clip-path="url(#z38069c7)" d="M576 84L639 151L626 917"/>
<path style="--d:8s;" pathLength="3333" clip-path="url(#z38069c8)" d="M608 362L544 525L389 738"/>
<path style="--d:9s;" pathLength="3333" clip-path="url(#z38069c9)" d="M657 384L808 633L857 675L970 707"/>
<path style="--d:10s;" pathLength="3333" clip-path="url(#z38069c10)" d="M498 691L751 666"/>
</svg>