<!--
AnimCJK 2016-2017 Copyright Francois Mizessyn, http://gooo.free.fr/animCJK/
Derived from:
    MakeMeAHanzi project - https://github.com/skishore/makemeahanzi
    Arphic PL KaitiM GB - https://apps.ubuntu.com/cat/applications/precise/fonts-arphic-gkai00mp/
    Arphic PL UKai - https://apps.ubuntu.com/cat/applications/fonts-arphic-ukai/
You can redistribute and/or modify this file under the terms of the Arphic Public License
as published by Arphic Technology Co., Ltd.
You should have received a copy of this license (the directory "APL") along with this file;
if not, see http://ftp.gnu.org/non-gnu/chinese-fonts-truetype/LICENSE.
-->
<svg id="z38075" class="acjk" version="1.1" viewBox="0 0 1024 1024" xmlns="http://www.w3.org/2000/svg" xmlns:xlink="http://www.w3.org/1999/xlink">
<style>
<![CDATA[
	@keyframes z38075k {
		from {
			stroke:#c00;
			stroke-dashoffset:3000;
		}
		75% {
			stroke:#c00;
			stroke-dashoffset:0;
		}
		to {
			stroke:#000;
		}
	}
	#z38075 path[clip-path] {
		animation:z38075k 1s linear both;
		stroke-dasharray:3000;
		stroke-width:128;
		stroke-linecap:round;
		fill:none;
	}
	#z38075 path[clip-path="url(#z38075c1)"] {animation-delay:1s;}
	#z38075 path[clip-path="url(#z38075c2)"] {animation-delay:2s;}
	#z38075 path[clip-path="url(#z38075c3)"] {animation-delay:3s;}
	#z38075 path[clip-path="url(#z38075c4)"] {animation-delay:4s;}
	#z38075 path[clip-path="url(#z38075c5)"] {animation-delay:5s;}
	#z38075 path[clip-path="url(#z38075c6)"] {animation-delay:6s;}
	#z38075 path[clip-path="url(#z38075c7)"] {animation-delay:7s;}
	#z38075 path[clip-path="url(#z38075c8)"] {animation-delay:8s;}
	#z38075 path[clip-path="url(#z38075c9)"] {animation-delay:9s;}
	#z38075 path[clip-path="url(#z38075c10)"] {animation-delay:10s;}
	#z38075 path {fill:#ccc;}
]]>
</style>
<g transform="scale(1,-1) translate(0,-900)">
	<path id="z38075d1" d="M314 633Q362 717 389 740Q398 750 394 764Q390 777 362 800Q337 819 317 818Q298 817 306 795Q319 762 307 735Q240 582 71 386Q61 376 59 370Q55 360 69 362Q124 369 290 598Q293 604 296 607L314 633Z"/>
	<path id="z38075d2" d="M296 607Q338 598 403 615Q467 633 478 638Q485 647 480 654Q473 664 445 668Q418 669 354 643Q333 639 314 633L296 607Z"/>
	<path id="z38075d3" d="M295 453Q364 477 434 502Q441 511 436 518Q429 528 401 531Q373 532 347 519Q322 507 293 497Q262 487 224 479Q191 469 217 457Q232 451 254 449L295 453Z"/>
	<path id="z38075d4" d="M325 312Q365 325 410 337Q447 349 453 354Q460 361 456 369Q449 379 421 384Q394 388 325 357L281 341Q280 342 278 341Q226 325 166 315Q133 306 158 293Q197 275 263 295Q270 298 282 300L325 312Z"/>
	<path id="z38075d5" d="M282 300Q282 186 249 138Q216 96 258 58Q270 51 280 66Q293 93 424 203Q440 215 444 223Q448 232 439 231Q427 231 329 175Q319 169 318 178Q324 251 325 312L325 357Q325 393 329 410Q333 423 324 432Q309 445 295 453L254 449Q255 448 257 443Q279 400 281 348Q281 345 281 341L282 300Z"/>
	<path id="z38075d6" d="M673 321Q677 427 679 526L680 559Q681 667 700 763Q703 773 683 789Q647 807 622 810Q606 814 598 805Q591 798 599 782Q627 742 628 715Q638 529 631 313L673 321Z"/>
	<path id="z38075d7" d="M679 526Q706 523 765 536Q805 548 848 559Q870 565 873 569Q880 576 876 585Q869 595 839 600Q818 603 734 572Q707 565 680 559L679 526Z"/>
	<path id="z38075d8" d="M538 299Q526 306 493 313Q480 317 477 312Q470 306 478 290Q509 217 523 99Q524 65 544 40Q560 18 567 33Q574 52 571 84L567 120Q551 229 547 266L538 299Z"/>
	<path id="z38075d9" d="M822 144Q846 249 882 280Q898 299 884 317Q866 330 813 354Q794 361 773 353Q721 334 673 321L631 313Q585 306 538 299L547 266Q575 269 752 303Q774 307 783 298Q795 288 793 267Q786 204 774 153L822 144Z"/>
	<path id="z38075d10" d="M571 84Q581 84 590 85Q666 100 834 108Q844 109 847 118Q847 125 822 144L774 153Q770 153 766 152Q655 130 567 120L571 84Z"/>
	<defs>
		<clipPath id="z38075c1"><use xlink:href="#z38075d1"/></clipPath>
		<clipPath id="z38075c2"><use xlink:href="#z38075d2"/></clipPath>
		<clipPath id="z38075c3"><use xlink:href="#z38075d3"/></clipPath>
		<clipPath id="z38075c4"><use xlink:href="#z38075d4"/></clipPath>
		<clipPath id="z38075c5"><use xlink:href="#z38075d5"/></clipPath>
		<clipPath id="z38075c6"><use xlink:href="#z38075d6"/></clipPath>
		<clipPath id="z38075c7"><use xlink:href="#z38075d7"/></clipPath>
		<clipPath id="z38075c8"><use xlink:href="#z38075d8"/></clipPath>
		<clipPath id="z38075c9"><use xlink:href="#z38075d9"/></clipPath>
		<clipPath id="z38075c10"><use xlink:href="#z38075d10"/></clipPath>
	</defs>
	<path pathLength="2999" clip-path="url(#z38075c1)" d="M311 811L350 744L200 514L66 368"/>
	<path pathLength="2999" clip-path="url(#z38075c2)" d="M305 612L474 652"/>
	<path pathLength="2999" clip-path="url(#z38075c3)" d="M213 468L431 512"/>
	<path pathLength="2999" clip-path="url(#z38075c4)" d="M156 304L453 367"/>
	<path pathLength="2999" clip-path="url(#z38075c5)" d="M264 445L302 402L283 110L436 225"/>
	<path pathLength="2999" clip-path="url(#z38075c6)" d="M601 804L661 751L644 316"/>
	<path pathLength="2999" clip-path="url(#z38075c7)" d="M684 533L872 581"/>
	<path pathLength="2999" clip-path="url(#z38075c8)" d="M483 304L513 281L557 32"/>
	<path pathLength="2999" clip-path="url(#z38075c9)" d="M546 297L784 329L823 312L841 281L805 148"/>
	<path pathLength="2999" clip-path="url(#z38075c10)" d="M574 117L840 122"/>
</g>
</svg>