<!--
AnimCJK 2016-2019 Copyright Francois Mizessyn - https://github.com/parsimonhi/animCJK
Derived from:
    MakeMeAHanzi project - https://github.com/skishore/makemeahanzi
    Arphic PL KaitiM GB font
    Arphic PL UKai font
You can redistribute and/or modify this file under the terms of the Arphic Public License
as published by Arphic Technology Co., Ltd.
You should have received a copy of this license along with this file.
If not, see http://ftp.gnu.org/non-gnu/chinese-fonts-truetype/LICENSE.
-->
<svg id="z38091" class="acjk" version="1.1" viewBox="0 0 1024 1024" xmlns="http://www.w3.org/2000/svg" xmlns:xlink="http://www.w3.org/1999/xlink">
<style>
<![CDATA[
@keyframes zk {
	to {
		stroke-dashoffset:0;
	}
}
svg.acjk path[clip-path] {
	--t:0.8s;
	animation:zk var(--t) linear forwards var(--d);
	stroke-dasharray:3337;
	stroke-dashoffset:3339;
	stroke-width:128;
	stroke-linecap:round;
	fill:none;
	stroke:#000;
}
svg.acjk path[id] {fill:#ccc;}
]]>
</style>
<path id="z38091d1" d="M290 277Q350 175 367 159Q376 149 371 135Q367 122 338 101Q311 83 293 84Q274 85 283 107Q296 138 286 165Q252 253 197 337Q145 416 74 505Q64 515 62 522Q59 532 73 530Q124 521 275 300C285 285 285 285 290 277Z"/>
<path id="z38091d2" d="M275 300Q309 312 373 298Q404 289 437 281Q455 277 457 274Q464 267 460 258Q453 248 425 244Q407 243 334 266Q313 270 290 277C281 279 267 297 275 300Z"/>
<path id="z38091d3" d="M300 441Q300 440 302 440Q419 407 425 400Q432 393 428 386Q421 376 395 373Q368 370 344 383Q319 393 291 403Q260 413 224 419Q193 428 217 440Q232 446 254 448C269 451 286 448 300 441Z"/>
<path id="z38091d4" d="M325 566Q430 536 432 534Q439 527 435 519Q428 509 401 503Q370 497 325 520C294 530 294 530 278 535Q271 536 267 538Q221 550 167 558Q133 565 158 579Q192 595 258 581Q267 578 280 577C310 570 310 570 325 566Z"/>
<path id="z38091d5" d="M280 577Q280 707 246 762Q203 810 249 852Q261 859 273 844Q286 820 409 722Q427 710 432 702Q436 692 427 692Q417 692 329 733Q317 739 316 727Q323 639 325 566C325 535 325 535 325 520Q326 501 330 484Q334 471 325 461Q312 449 300 441C287 433 248 434 254 448Q273 487 278 535C279 563 279 563 280 577Z"/>
<path id="z38091d6" d="M482 505Q463 554 435 599Q419 627 434 657Q441 673 459 661Q501 628 506 555Q510 527 503 504Q499 497 493 496Q486 497 482 505Z"/>
<path id="z38091d7" d="M648 741Q786 814 930 757Q946 753 945 748Q944 735 926 713Q899 680 832 573Q828 563 822 563Q818 563 818 571Q827 622 834 678Q837 700 821 712Q788 733 681 699C681 699 680 698 680 698C651 680 651 680 637 671Q597 634 579 516Q576 492 559 480Q546 470 539 476C550 542 550 542 556 575Q571 668 609 710C635 731 635 731 648 741Z"/>
<path id="z38091d8" d="M575 341Q594 368 614 399Q624 414 639 416Q649 417 657 407Q664 394 663 364Q662 345 636 326Q575 287 560 289Q556 292 554 304Q555 316 575 341Z"/>
<path id="z38091d9" d="M609 710Q548 780 454 840Q441 846 438 850Q434 856 450 858Q516 864 639 751Q642 745 648 741C669 712 669 712 680 698Q756 578 786 388Q804 283 825 244Q832 234 823 224Q807 205 770 185Q749 172 731 177Q709 183 724 202Q749 236 746 268Q731 421 700 519Q676 606 637 671C618 697 618 697 609 710Z"/>
<path id="z38091d10" d="M825 438Q871 481 926 542Q942 561 957 566Q966 567 973 557Q985 544 973 501Q961 459 899 435Q877 423 826 408Q817 402 815 415Q814 428 825 438Z"/>
<defs>
	<clipPath id="z38091c1"><use xlink:href="#z38091d1"/></clipPath>
	<clipPath id="z38091c2"><use xlink:href="#z38091d2"/></clipPath>
	<clipPath id="z38091c3"><use xlink:href="#z38091d3"/></clipPath>
	<clipPath id="z38091c4"><use xlink:href="#z38091d4"/></clipPath>
	<clipPath id="z38091c5"><use xlink:href="#z38091d5"/></clipPath>
	<clipPath id="z38091c6"><use xlink:href="#z38091d6"/></clipPath>
	<clipPath id="z38091c7"><use xlink:href="#z38091d7"/></clipPath>
	<clipPath id="z38091c8"><use xlink:href="#z38091d8"/></clipPath>
	<clipPath id="z38091c9"><use xlink:href="#z38091d9"/></clipPath>
	<clipPath id="z38091c10"><use xlink:href="#z38091d10"/></clipPath>
</defs>
<path style="--d:1s;" pathLength="3333" clip-path="url(#z38091c1)" d="M287 91L329 152L188 387L68 523"/>
<path style="--d:2s;" pathLength="3333" clip-path="url(#z38091c2)" d="M285 297L455 262"/>
<path style="--d:3s;" pathLength="3333" clip-path="url(#z38091c3)" d="M215 430L423 383"/>
<path style="--d:4s;" pathLength="3333" clip-path="url(#z38091c4)" d="M159 569L430 517"/>
<path style="--d:5s;" pathLength="3333" clip-path="url(#z38091c5)" d="M263 451L301 485L272 796L429 700"/>
<path style="--d:6s;" pathLength="3333" clip-path="url(#z38091c6)" d="M491 503L443 659"/>
<path style="--d:7s;" pathLength="3333" clip-path="url(#z38091c7)" d="M547 480L614 681L711 738L809 750L896 724L824 571"/>
<path style="--d:8s;" pathLength="3333" clip-path="url(#z38091c8)" d="M564 294L627 360L639 412"/>
<path style="--d:9s;" pathLength="3333" clip-path="url(#z38091c9)" d="M725 185L786 244L699 606L615 740L444 851"/>
<path style="--d:10s;" pathLength="3333" clip-path="url(#z38091c10)" d="M822 416L926 490L961 560"/>
</svg>