<!--
AnimCJK 2016-2019 Copyright Francois Mizessyn - https://github.com/parsimonhi/animCJK
Derived from:
    MakeMeAHanzi project - https://github.com/skishore/makemeahanzi
    Arphic PL KaitiM GB font
    Arphic PL UKai font
You can redistribute and/or modify this file under the terms of the Arphic Public License
as published by Arphic Technology Co., Ltd.
You should have received a copy of this license along with this file.
If not, see http://ftp.gnu.org/non-gnu/chinese-fonts-truetype/LICENSE.
-->
<svg id="z38108" class="acjk" version="1.1" viewBox="0 0 1024 1024" xmlns="http://www.w3.org/2000/svg" xmlns:xlink="http://www.w3.org/1999/xlink">
<style>
<![CDATA[
@keyframes zk {
	to {
		stroke-dashoffset:0;
	}
}
svg.acjk path[clip-path] {
	--t:0.8s;
	animation:zk var(--t) linear forwards var(--d);
	stroke-dasharray:3337;
	stroke-dashoffset:3339;
	stroke-width:128;
	stroke-linecap:round;
	fill:none;
	stroke:#000;
}
svg.acjk path[id] {fill:#ccc;}
]]>
</style>
<path id="z38108d1" d="M287 281Q368 155 392 132Q402 122 397 108Q393 95 366 72Q341 53 321 53Q302 54 310 76Q325 112 310 141Q232 309 51 510Q41 520 39 526Q35 536 49 534Q106 528 268 307C281 290 281 290 287 281Z"/>
<path id="z38108d2" d="M268 307Q304 319 371 304Q401 295 434 287Q450 283 454 279Q461 272 456 263Q449 253 419 248Q403 247 326 272Q305 276 287 281C277 284 257 305 268 307Z"/>
<path id="z38108d3" d="M299 445Q345 429 398 414Q422 405 426 402Q433 393 428 386Q421 376 393 373Q372 370 302 400Q226 421 209 425Q176 434 201 447Q217 454 254 455C284 448 284 448 299 445Z"/>
<path id="z38108d4" d="M327 575Q444 539 449 535Q456 528 452 519Q445 509 415 503Q378 500 327 527C294 538 294 538 277 544Q231 557 174 567Q140 576 166 590Q211 608 270 590Q274 589 279 588C311 579 311 579 327 575Z"/>
<path id="z38108d5" d="M279 588Q282 735 236 800Q215 833 255 871Q256 872 259 874Q272 881 283 864Q295 834 421 698Q437 683 441 674Q444 664 434 665Q425 665 322 739Q321 743 318 740Q325 649 327 575C327 543 327 543 327 527Q328 508 332 490Q336 477 327 465Q314 452 299 445C286 437 248 441 254 455Q273 495 277 544C278 573 278 573 279 588Z"/>
<path id="z38108d6" d="M537 231Q516 215 492 207Q483 206 477 213Q474 219 481 229Q532 355 493 652Q484 700 469 747Q462 772 466 791Q473 822 485 836Q495 849 505 836Q538 803 539 602Q539 362 551 271C553 257 548 239 537 231Z"/>
<path id="z38108d7" d="M551 271Q558 271 566 269Q800 200 823 222Q836 229 842 294Q858 508 848 751Q848 788 834 797Q821 810 741 800Q723 799 726 809Q727 816 742 820Q814 859 852 891Q874 910 887 907Q899 903 909 874Q922 828 918 762Q888 285 908 242Q920 220 909 209Q899 194 851 171Q832 162 750 187Q576 224 537 231C523 234 537 271 551 271Z"/>
<path id="z38108d8" d="M605 359Q571 369 597 382Q640 401 692 381Q729 371 766 359Q784 355 786 351Q793 342 788 335Q781 325 751 321Q730 318 655 348Q633 354 605 359Z"/>
<path id="z38108d9" d="M612 489Q602 485 580 479Q570 476 566 480Q562 486 568 499Q589 550 600 632Q601 657 615 674Q628 693 634 680Q638 667 638 643C636 622 636 622 635 612Q625 536 624 513C624 504 620 492 612 489Z"/>
<path id="z38108d10" d="M761 596Q774 527 794 507Q813 483 792 471Q776 462 750 447Q734 438 717 449Q698 462 670 472Q645 479 612 489C603 491 615 515 624 513Q631 512 639 509Q672 500 701 494Q720 490 725 497Q731 501 726 530Q722 557 716 589C713 604 758 611 761 596Z"/>
<path id="z38108d11" d="M638 643Q645 643 652 642Q689 633 770 625Q780 624 781 615Q781 608 761 596C748 588 731 586 716 589Q712 589 708 591Q668 604 635 612C625 614 628 643 638 643Z"/>
<defs>
	<clipPath id="z38108c1"><use xlink:href="#z38108d1"/></clipPath>
	<clipPath id="z38108c2"><use xlink:href="#z38108d2"/></clipPath>
	<clipPath id="z38108c3"><use xlink:href="#z38108d3"/></clipPath>
	<clipPath id="z38108c4"><use xlink:href="#z38108d4"/></clipPath>
	<clipPath id="z38108c5"><use xlink:href="#z38108d5"/></clipPath>
	<clipPath id="z38108c6"><use xlink:href="#z38108d6"/></clipPath>
	<clipPath id="z38108c7"><use xlink:href="#z38108d7"/></clipPath>
	<clipPath id="z38108c8"><use xlink:href="#z38108d8"/></clipPath>
	<clipPath id="z38108c9"><use xlink:href="#z38108d9"/></clipPath>
	<clipPath id="z38108c10"><use xlink:href="#z38108d10"/></clipPath>
	<clipPath id="z38108c11"><use xlink:href="#z38108d11"/></clipPath>
</defs>
<path style="--d:1s;" pathLength="3333" clip-path="url(#z38108c1)" d="M315 61L357 110L350 133L191 374L48 529"/>
<path style="--d:2s;" pathLength="3333" clip-path="url(#z38108c2)" d="M276 302L454 268"/>
<path style="--d:3s;" pathLength="3333" clip-path="url(#z38108c3)" d="M199 436L425 392"/>
<path style="--d:4s;" pathLength="3333" clip-path="url(#z38108c4)" d="M161 578L447 518"/>
<path style="--d:5s;" pathLength="3333" clip-path="url(#z38108c5)" d="M261 458L301 502L272 810L295 820L435 672"/>
<path style="--d:6s;" pathLength="3333" clip-path="url(#z38108c6)" d="M485 217L520 261L526 380L493 837"/>
<path style="--d:7s;" pathLength="3333" clip-path="url(#z38108c7)" d="M546 235L575 245L811 194L873 229L878 810L853 859L732 808"/>
<path style="--d:8s;" pathLength="3333" clip-path="url(#z38108c8)" d="M594 369L784 346"/>
<path style="--d:9s;" pathLength="3333" clip-path="url(#z38108c9)" d="M572 485L600 518L628 679"/>
<path style="--d:10s;" pathLength="3333" clip-path="url(#z38108c10)" d="M619 492L748 478L765 499L730 590"/>
<path style="--d:11s;" pathLength="3333" clip-path="url(#z38108c11)" d="M643 636L775 609"/>
</svg>