<!--
AnimCJK 2016-2017 Copyright Francois Mizessyn, http://gooo.free.fr/animCJK/
Derived from:
    MakeMeAHanzi project - https://github.com/skishore/makemeahanzi
    Arphic PL KaitiM GB - https://apps.ubuntu.com/cat/applications/precise/fonts-arphic-gkai00mp/
    Arphic PL UKai - https://apps.ubuntu.com/cat/applications/fonts-arphic-ukai/
You can redistribute and/or modify this file under the terms of the Arphic Public License
as published by Arphic Technology Co., Ltd.
You should have received a copy of this license (the directory "APL") along with this file;
if not, see http://ftp.gnu.org/non-gnu/chinese-fonts-truetype/LICENSE.
-->
<svg id="z38108" class="acjk" version="1.1" viewBox="0 0 1024 1024" xmlns="http://www.w3.org/2000/svg" xmlns:xlink="http://www.w3.org/1999/xlink">
<style>
<![CDATA[
	@keyframes z38108k {
		from {
			stroke:#c00;
			stroke-dashoffset:3000;
		}
		75% {
			stroke:#c00;
			stroke-dashoffset:0;
		}
		to {
			stroke:#000;
		}
	}
	#z38108 path[clip-path] {
		animation:z38108k 1s linear both;
		stroke-dasharray:3000;
		stroke-width:128;
		stroke-linecap:round;
		fill:none;
	}
	#z38108 path[clip-path="url(#z38108c1)"] {animation-delay:1s;}
	#z38108 path[clip-path="url(#z38108c2)"] {animation-delay:2s;}
	#z38108 path[clip-path="url(#z38108c3)"] {animation-delay:3s;}
	#z38108 path[clip-path="url(#z38108c4)"] {animation-delay:4s;}
	#z38108 path[clip-path="url(#z38108c5)"] {animation-delay:5s;}
	#z38108 path[clip-path="url(#z38108c6)"] {animation-delay:6s;}
	#z38108 path[clip-path="url(#z38108c7)"] {animation-delay:7s;}
	#z38108 path[clip-path="url(#z38108c8)"] {animation-delay:8s;}
	#z38108 path[clip-path="url(#z38108c9)"] {animation-delay:9s;}
	#z38108 path[clip-path="url(#z38108c10)"] {animation-delay:10s;}
	#z38108 path[clip-path="url(#z38108c11)"] {animation-delay:11s;}
	#z38108 path {fill:#ccc;}
]]>
</style>
<g transform="scale(1,-1) translate(0,-900)">
	<path id="z38108d1" d="M287 619Q368 745 392 768Q402 778 397 792Q393 805 366 828Q341 847 321 847Q302 846 310 824Q325 788 310 759Q232 591 51 390Q41 380 39 374Q35 364 49 366Q106 372 268 593L287 619Z"/>
	<path id="z38108d2" d="M268 593Q304 581 371 596Q401 605 434 613Q450 617 454 621Q461 628 456 637Q449 647 419 652Q403 653 326 628Q305 624 287 619L268 593Z"/>
	<path id="z38108d3" d="M299 455Q345 471 398 486Q422 495 426 498Q433 507 428 514Q421 524 393 527Q372 530 302 500Q226 479 209 475Q176 466 201 453Q217 446 254 445L299 455Z"/>
	<path id="z38108d4" d="M327 325Q444 361 449 365Q456 372 452 381Q445 391 415 397Q378 400 327 373L277 356Q231 343 174 333Q140 324 166 310Q211 292 270 310Q274 311 279 312L327 325Z"/>
	<path id="z38108d5" d="M279 312Q282 165 236 100Q215 67 255 29Q256 28 259 26Q272 19 283 36Q295 66 421 202Q437 217 441 226Q444 236 434 235Q425 235 322 161Q321 157 318 160Q325 251 327 325L327 373Q328 392 332 410Q336 423 327 435Q314 448 299 455L254 445Q273 405 277 356L279 312Z"/>
	<path id="z38108d6" d="M537 669Q516 685 492 693Q483 694 477 687Q474 681 481 671Q532 545 493 248Q484 200 469 153Q462 128 466 109Q473 78 485 64Q495 51 505 64Q538 97 539 298Q539 538 551 629L537 669Z"/>
	<path id="z38108d7" d="M551 629Q558 629 566 631Q800 700 823 678Q836 671 842 606Q858 392 848 149Q848 112 834 103Q821 90 741 100Q723 101 726 91Q727 84 742 80Q814 41 852 9Q874 -10 887 -7Q899 -3 909 26Q922 72 918 138Q888 615 908 658Q920 680 909 691Q899 706 851 729Q832 738 750 713Q576 676 537 669L551 629Z"/>
	<path id="z38108d8" d="M605 541Q571 531 597 518Q640 499 692 519Q729 529 766 541Q784 545 786 549Q793 558 788 565Q781 575 751 579Q730 582 655 552Q633 546 605 541Z"/>
	<path id="z38108d9" d="M612 411Q602 415 580 421Q570 424 566 420Q562 414 568 401Q589 350 600 268Q601 243 615 226Q628 207 634 220Q638 233 638 257L635 288Q625 364 624 387L612 411Z"/>
	<path id="z38108d10" d="M761 304Q774 373 794 393Q813 417 792 429Q776 438 750 453Q734 462 717 451Q698 438 670 428Q645 421 612 411L624 387Q631 388 639 391Q672 400 701 406Q720 410 725 403Q731 399 726 370Q722 343 716 311L761 304Z"/>
	<path id="z38108d11" d="M638 257Q645 257 652 258Q689 267 770 275Q780 276 781 285Q781 292 761 304L716 311Q712 311 708 309Q668 296 635 288L638 257Z"/>
	<defs>
		<clipPath id="z38108c1"><use xlink:href="#z38108d1"/></clipPath>
		<clipPath id="z38108c2"><use xlink:href="#z38108d2"/></clipPath>
		<clipPath id="z38108c3"><use xlink:href="#z38108d3"/></clipPath>
		<clipPath id="z38108c4"><use xlink:href="#z38108d4"/></clipPath>
		<clipPath id="z38108c5"><use xlink:href="#z38108d5"/></clipPath>
		<clipPath id="z38108c6"><use xlink:href="#z38108d6"/></clipPath>
		<clipPath id="z38108c7"><use xlink:href="#z38108d7"/></clipPath>
		<clipPath id="z38108c8"><use xlink:href="#z38108d8"/></clipPath>
		<clipPath id="z38108c9"><use xlink:href="#z38108d9"/></clipPath>
		<clipPath id="z38108c10"><use xlink:href="#z38108d10"/></clipPath>
		<clipPath id="z38108c11"><use xlink:href="#z38108d11"/></clipPath>
	</defs>
	<path pathLength="2999" clip-path="url(#z38108c1)" d="M315 839L357 790L350 767L191 526L48 371"/>
	<path pathLength="2999" clip-path="url(#z38108c2)" d="M276 598L454 632"/>
	<path pathLength="2999" clip-path="url(#z38108c3)" d="M199 464L425 508"/>
	<path pathLength="2999" clip-path="url(#z38108c4)" d="M161 322L447 382"/>
	<path pathLength="2999" clip-path="url(#z38108c5)" d="M261 442L301 398L272 90L295 80L435 228"/>
	<path pathLength="2999" clip-path="url(#z38108c6)" d="M485 683L520 639L526 520L493 63"/>
	<path pathLength="2999" clip-path="url(#z38108c7)" d="M546 665L575 655L811 706L873 671L878 90L853 41L732 92"/>
	<path pathLength="2999" clip-path="url(#z38108c8)" d="M594 531L784 554"/>
	<path pathLength="2999" clip-path="url(#z38108c9)" d="M572 415L600 382L628 221"/>
	<path pathLength="2999" clip-path="url(#z38108c10)" d="M619 408L748 422L765 401L730 310"/>
	<path pathLength="2999" clip-path="url(#z38108c11)" d="M643 264L775 291"/>
</g>
</svg>