<!--
AnimCJK 2016-2018 Copyright Francois Mizessyn, http://gooo.free.fr/animCJK/
Derived from:
    MakeMeAHanzi project - https://github.com/skishore/makemeahanzi
    Arphic PL KaitiM GB - https://apps.ubuntu.com/cat/applications/precise/fonts-arphic-gkai00mp/
    Arphic PL UKai - https://apps.ubuntu.com/cat/applications/fonts-arphic-ukai/
You can redistribute and/or modify this file under the terms of the Arphic Public License
as published by Arphic Technology Co., Ltd.
You should have received a copy of this license (the directory "APL") along with this file;
if not, see http://ftp.gnu.org/non-gnu/chinese-fonts-truetype/LICENSE.
-->
<svg id="z38129" class="acjk" version="1.1" viewBox="0 0 1024 1024" xmlns="http://www.w3.org/2000/svg" xmlns:xlink="http://www.w3.org/1999/xlink">
<style>
<![CDATA[
@keyframes z38129k {
	from {
		stroke:#ccc;
		stroke-dashoffset:3334;
	}
	1% {
		stroke:#c00;
		stroke-dashoffset:3334;
	}
	75% {
		stroke:#c00;
		stroke-dashoffset:0;
	}
	to {
		stroke:#000;
	}
}
#z38129 path[clip-path] {
	animation:z38129k 1s linear both;
	stroke-dasharray:3334;
	stroke-width:128;
	stroke-linecap:round;
	fill:none;
}
#z38129 path[clip-path="url(#z38129c1)"] {animation-delay:1s;}
#z38129 path[clip-path="url(#z38129c2)"] {animation-delay:2s;}
#z38129 path[clip-path="url(#z38129c3)"] {animation-delay:3s;}
#z38129 path[clip-path="url(#z38129c4)"] {animation-delay:4s;}
#z38129 path[clip-path="url(#z38129c5)"] {animation-delay:5s;}
#z38129 path[clip-path="url(#z38129c6)"] {animation-delay:6s;}
#z38129 path[clip-path="url(#z38129c7)"] {animation-delay:7s;}
#z38129 path[clip-path="url(#z38129c8)"] {animation-delay:8s;}
#z38129 path[clip-path="url(#z38129c9)"] {animation-delay:9s;}
#z38129 path[clip-path="url(#z38129c10)"] {animation-delay:10s;}
#z38129 path[clip-path="url(#z38129c11)"] {animation-delay:11s;}
#z38129 path {fill:#ccc;}
]]>
</style>
<path id="z38129d1" d="M 276,301 C 316,243 337,199 358,180 364,173 365,165 362,156 359,147 349,134 330,120 312,107 297,101 285,102 272,102 267,111 274,126 283,148 283,167 276,186 231,289 156,407 47,538 40,545 35,549 34,554 31,560 35,563 45,562 80,557 152,478 260,324 Z"/>
<path id="z38129d2" d="M 260,324 C 284,334 317,334 359,324 383,318 408,311 434,306 446,303 453,300 456,298 460,293 462,288 459,283 454,276 443,270 425,267 412,264 380,274 327,290 311,294 294,296 276,301 Z"/>
<path id="z38129d3" d="M 283,482 C 304,479 397,449 401,447 405,442 407,436 404,431 399,424 387,418 367,415 351,412 317,423 263,442 243,448 221,450 198,455 175,460 172,469 190,478 203,484 218,489 232,488 Z"/>
<path id="z38129d4" d="M 300,616 C 324,609 350,601 378,595 400,589 413,582 417,579 421,574 423,568 420,563 415,556 403,550 383,547 369,544 342,553 301,567 L 254,583 C 230,590 182,599 147,607 122,611 119,621 138,630 167,644 203,643 254,629 Z"/>
<path id="z38129d5" d="M 254,629 C 254,711 241,770 215,801 193,825 182,864 221,884 L 223,885 C 231,889 239,887 246,876 255,859 300,815 386,746 397,736 405,731 408,726 410,719 408,716 402,716 396,716 361,731 300,764 293,767 288,766 289,760 292,707 299,660 300,616 L 301,567 C 301,550 301,534 305,520 308,507 302,495 283,482 L 232,488 C 244,516 254,548 254,583 Z"/>
<path id="z38129d6" d="M 599,162 C 620,178 641,196 665,216 675,224 686,228 697,227 703,226 709,221 713,212 716,201 712,185 705,165 696,143 659,125 591,112 580,109 572,110 568,113 563,115 562,121 565,131 567,137 579,147 599,162 Z"/>
<path id="z38129d7" d="M 609,355 C 665,342 742,325 841,312 849,311 857,309 861,300 863,291 853,285 838,277 813,264 777,268 725,283 635,307 544,322 452,338 432,341 429,348 445,360 468,376 494,381 521,375 535,371 551,368 569,364 Z"/>
<path id="z38129d8" d="M 602,454 C 615,432 624,416 632,406 636,399 637,391 632,383 624,370 616,361 609,355 L 569,364 570,365 C 578,419 527,513 412,644 396,662 384,671 384,677 383,679 385,681 389,681 415,675 462,643 517,575 L 532,556 C 554,527 573,500 589,475 Z"/>
<path id="z38129d9" d="M 517,575 C 537,617 544,684 530,776 524,809 516,827 514,832 501,855 508,881 534,907 536,909 538,911 543,914 549,918 556,913 564,901 580,871 619,817 681,741 689,730 694,722 695,717 695,708 688,708 677,718 616,767 584,792 579,791 575,790 571,785 572,777 573,689 579,634 584,613 587,600 583,590 576,583 559,567 545,558 532,556 Z"/>
<path id="z38129d10" d="M 718,575 C 744,555 786,523 841,478 852,468 864,458 880,451 892,444 896,435 889,425 881,413 867,405 851,397 834,388 823,386 816,388 808,389 805,393 808,402 812,420 794,453 756,499 739,519 722,539 705,560 Z"/>
<path id="z38129d11" d="M 705,560 C 647,493 620,454 612,454 608,453 604,453 602,454 L 589,475 C 607,487 620,504 633,523 738,685 801,774 824,776 901,781 946,775 957,774 967,773 974,770 978,766 980,762 979,758 973,756 881,716 810,670 760,620 746,605 731,591 718,575 Z"/>
<defs>
	<clipPath id="z38129c1"><use xlink:href="#z38129d1"/></clipPath>
	<clipPath id="z38129c2"><use xlink:href="#z38129d2"/></clipPath>
	<clipPath id="z38129c3"><use xlink:href="#z38129d3"/></clipPath>
	<clipPath id="z38129c4"><use xlink:href="#z38129d4"/></clipPath>
	<clipPath id="z38129c5"><use xlink:href="#z38129d5"/></clipPath>
	<clipPath id="z38129c6"><use xlink:href="#z38129d6"/></clipPath>
	<clipPath id="z38129c7"><use xlink:href="#z38129d7"/></clipPath>
	<clipPath id="z38129c8"><use xlink:href="#z38129d8"/></clipPath>
	<clipPath id="z38129c9"><use xlink:href="#z38129d9"/></clipPath>
	<clipPath id="z38129c10"><use xlink:href="#z38129d10"/></clipPath>
	<clipPath id="z38129c11"><use xlink:href="#z38129d11"/></clipPath>
</defs>
<path pathLength="3333" clip-path="url(#z38129c1)" d="M279 107L320 177L169 414L42 554"/>
<path pathLength="3333" clip-path="url(#z38129c2)" d="M268 321L455 292"/>
<path pathLength="3333" clip-path="url(#z38129c3)" d="M185 466L400 437"/>
<path pathLength="3333" clip-path="url(#z38129c4)" d="M136 619L415 567"/>
<path pathLength="3333" clip-path="url(#z38129c5)" d="M240 492L276 523L248 832L402 722"/>
<path pathLength="3333" clip-path="url(#z38129c6)" d="M572 120L667 172L702 221"/>
<path pathLength="3333" clip-path="url(#z38129c7)" d="M446 349L854 296"/>
<path pathLength="3333" clip-path="url(#z38129c8)" d="M577 366L600 402L558 483L391 675"/>
<path pathLength="3333" clip-path="url(#z38129c9)" d="M534 562L557 606L553 853L570 857L687 717"/>
<path pathLength="3333" clip-path="url(#z38129c10)" d="M816 397L844 440L712 568"/>
<path pathLength="3333" clip-path="url(#z38129c11)" d="M597 473L833 730L972 762"/>
</svg>