<!--
AnimCJK 2016-2025 Copyright FM-SH - https://github.com/parsimonhi/animCJK
Derived from:
    MakeMeAHanzi project - https://github.com/skishore/makemeahanzi
    Arphic PL KaitiM GB font
    Arphic PL UKai font
You can redistribute and/or modify this file under the terms of the Arphic Public License
as published by Arphic Technology Co., Ltd.
You should have received a copy of this license along with this file.
If not, see http://ftp.gnu.org/non-gnu/chinese-fonts-truetype/LICENSE.
-->
<svg id="z38128" class="acjk" version="1.1" viewBox="0 0 1024 1024" xmlns="http://www.w3.org/2000/svg" xmlns:xlink="http://www.w3.org/1999/xlink">
<style>
<![CDATA[
@keyframes zk {
	to {
		stroke-dashoffset:0;
	}
}
svg.acjk path[clip-path] {
	--t:0.8s;
	animation:zk var(--t) linear forwards var(--d);
	stroke-dasharray:3337;
	stroke-dashoffset:3339;
	stroke-width:128;
	stroke-linecap:round;
	fill:none;
	stroke:#000;
}
svg.acjk path[id] {fill:#ccc;}
]]>
</style>
<path id="z38128d1" d="M300 284C343 220 367 175 386 158C392 151 394 143 391 133C388 124 378 111 358 96C339 82 323 77 311 78C298 78 293 86 300 102C309 124 310 145 302 164C274 228 240 289 199 349C159 405 114 466 59 529C52 536 47 540 46 545C43 552 47 555 57 554C82 550 127 506 193 424C227 380 257 344 285 306C295 291 295 291 300 284Z"/>
<path id="z38128d2" d="M285 306C308 320 344 316 386 305C407 298 431 293 456 286C468 282 475 279 477 278C481 273 483 267 480 262C475 254 463 250 445 248C430 245 399 255 351 273C335 278 318 280 300 284C291 285 277 302 285 306Z"/>
<path id="z38128d3" d="M300 454C333 446 367 432 404 422C420 417 430 413 433 410C437 404 438 398 436 394C431 387 419 382 401 380C382 377 364 382 347 391C328 400 308 408 286 415C263 422 237 426 209 433C186 437 184 446 202 455C214 461 232 469 257 464C286 457 286 457 300 454Z"/>
<path id="z38128d4" d="M329 583C349 577 370 570 392 564C416 557 429 551 433 547C437 541 439 536 436 531C431 523 419 518 399 515C379 512 356 520 330 531C295 544 295 544 278 551C235 566 187 575 150 583C127 587 124 597 142 606C171 619 203 619 237 609C249 604 264 601 280 597C313 588 313 588 329 583Z"/>
<path id="z38128d5" d="M280 597C282 649 271 742 237 775C220 790 217 806 241 846C243 850 246 854 251 857C259 862 269 859 276 848C286 830 332 780 422 704C433 694 441 688 444 682C446 675 444 671 438 672C427 672 390 692 328 730C322 733 318 733 319 727C321 674 328 625 329 583C330 548 330 548 330 531C330 520 332 510 335 502C337 493 336 484 330 478C320 467 310 460 300 454C287 446 252 450 257 464C269 490 276 519 278 551C279 582 279 582 280 597Z"/>
<path id="z38128d6" d="M622 146C640 159 658 176 677 193C687 201 699 205 711 205C719 204 725 198 728 188C730 176 728 158 720 137C715 124 702 112 680 106C629 90 598 87 588 93C583 95 582 102 585 112C587 120 600 130 622 146Z"/>
<path id="z38128d7" d="M505 338C492 341 491 346 502 356C511 364 522 368 534 370C546 371 557 370 568 367C630 342 729 321 866 307C877 305 884 302 887 296C889 287 885 280 874 274C837 252 803 251 768 263C686 290 598 313 505 338Z"/>
<path id="z38128d8" d="M527 416C528 440 505 488 454 557C445 568 445 568 461 565C487 559 531 517 592 433C596 426 597 420 595 415C592 408 583 404 568 402C551 399 540 400 534 403C529 404 526 408 527 416Z"/>
<path id="z38128d9" d="M717 421C751 440 789 465 831 497C843 506 854 512 864 512C868 512 871 507 876 501C881 491 877 476 865 451C851 423 801 404 712 393C705 392 702 394 703 402C703 410 708 416 717 421Z"/>
<path id="z38128d10" d="M690 717C721 651 728 622 736 591C740 574 744 560 749 550C752 541 751 535 747 530C734 515 721 505 708 497C694 489 685 484 678 487C671 489 667 494 670 502C690 558 669 629 650 678C644 692 637 706 629 719C590 779 513 823 386 855C379 856 375 857 372 860C367 862 368 865 375 869C377 870 384 870 394 870C454 868 506 856 551 839C594 821 624 800 661 758C671 745 682 732 690 717Z"/>
<path id="z38128d11" d="M661 758C690 794 732 835 784 880C802 895 826 899 855 894C924 881 966 876 977 871C982 868 981 859 973 855C963 849 918 834 839 809C798 795 744 770 690 717C663 691 663 691 650 678C628 656 605 633 583 608C570 593 553 583 532 580C524 578 516 580 511 585C506 589 507 595 515 600C566 639 596 679 629 719C650 745 650 745 661 758Z"/>
<defs>
	<clipPath id="z38128c1"><use xlink:href="#z38128d1"/></clipPath>
	<clipPath id="z38128c2"><use xlink:href="#z38128d2"/></clipPath>
	<clipPath id="z38128c3"><use xlink:href="#z38128d3"/></clipPath>
	<clipPath id="z38128c4"><use xlink:href="#z38128d4"/></clipPath>
	<clipPath id="z38128c5"><use xlink:href="#z38128d5"/></clipPath>
	<clipPath id="z38128c6"><use xlink:href="#z38128d6"/></clipPath>
	<clipPath id="z38128c7"><use xlink:href="#z38128d7"/></clipPath>
	<clipPath id="z38128c8"><use xlink:href="#z38128d8"/></clipPath>
	<clipPath id="z38128c9"><use xlink:href="#z38128d9"/></clipPath>
	<clipPath id="z38128c10"><use xlink:href="#z38128d10"/></clipPath>
	<clipPath id="z38128c11"><use xlink:href="#z38128d11"/></clipPath>
</defs>
<path style="--d:1s;" pathLength="3333" clip-path="url(#z38128c1)" d="M304 83L348 151L233 338L53 549"/>
<path style="--d:2s;" pathLength="3333" clip-path="url(#z38128c2)" d="M289 302L474 264"/>
<path style="--d:3s;" pathLength="3333" clip-path="url(#z38128c3)" d="M198 442L431 398"/>
<path style="--d:4s;" pathLength="3333" clip-path="url(#z38128c4)" d="M138 593L219 591L431 534"/>
<path style="--d:5s;" pathLength="3333" clip-path="url(#z38128c5)" d="M264 460L304 506L275 806L440 680"/>
<path style="--d:6s;" pathLength="3333" clip-path="url(#z38128c6)" d="M590 103L674 141L717 198"/>
<path style="--d:7s;" pathLength="3333" clip-path="url(#z38128c7)" d="M503 345L800 285L883 291"/>
<path style="--d:8s;" pathLength="3333" clip-path="url(#z38128c8)" d="M534 409L554 444L455 559"/>
<path style="--d:9s;" pathLength="3333" clip-path="url(#z38128c9)" d="M709 401L815 447L873 500"/>
<path style="--d:10s;" pathLength="3333" clip-path="url(#z38128c10)" d="M679 495L714 552L637 749L534 824L377 865"/>
<path style="--d:11s;" pathLength="3333" clip-path="url(#z38128c11)" d="M516 590L807 844L975 862"/>
</svg>