<!--
AnimCJK 2016-2019 Copyright Francois Mizessyn - https://github.com/parsimonhi/animCJK
Derived from:
    MakeMeAHanzi project - https://github.com/skishore/makemeahanzi
    Arphic PL KaitiM GB font
    Arphic PL UKai font
You can redistribute and/or modify this file under the terms of the Arphic Public License
as published by Arphic Technology Co., Ltd.
You should have received a copy of this license along with this file.
If not, see http://ftp.gnu.org/non-gnu/chinese-fonts-truetype/LICENSE.
-->
<svg id="z38125" class="acjk" version="1.1" viewBox="0 0 1024 1024" xmlns="http://www.w3.org/2000/svg" xmlns:xlink="http://www.w3.org/1999/xlink">
<style>
<![CDATA[
@keyframes zk {
	to {
		stroke-dashoffset:0;
	}
}
svg.acjk path[clip-path] {
	--t:0.8s;
	animation:zk var(--t) linear forwards var(--d);
	stroke-dasharray:3337;
	stroke-dashoffset:3339;
	stroke-width:128;
	stroke-linecap:round;
	fill:none;
	stroke:#000;
}
svg.acjk path[id] {fill:#ccc;}
]]>
</style>
<path id="z38125d1" d="M314 285Q336 248 354 216Q376 173 391 153Q398 141 390 127Q359 76 325 77Q309 78 315 98Q339 179 206 366Q149 445 74 524Q67 528 67 536Q67 540 73 540Q131 531 256 371Q257 367 261 364Q280 336 298 309C309 293 309 293 314 285Z"/>
<path id="z38125d2" d="M298 309Q338 321 395 308Q482 286 489 282Q496 275 491 267Q484 257 457 251Q429 248 403 260Q381 269 358 275Q337 279 314 285C305 287 289 307 298 309Z"/>
<path id="z38125d3" d="M294 460Q301 457 311 454Q438 412 442 410Q449 401 444 394Q437 384 409 381Q381 378 355 393Q328 405 299 415Q268 425 228 433Q197 442 221 455Q233 459 249 462C264 465 280 466 294 460Z"/>
<path id="z38125d4" d="M321 591Q358 578 400 567Q433 557 437 551Q444 544 440 535Q433 525 403 520Q367 517 321 542C291 553 291 553 276 558Q272 558 270 560Q227 573 174 583Q140 592 166 606Q208 624 269 605Q272 604 278 603C307 595 307 595 321 591Z"/>
<path id="z38125d5" d="M278 603Q278 724 237 779Q213 809 256 847Q268 854 278 838Q291 811 416 698Q432 685 436 677Q439 668 431 669Q419 669 323 728Q316 732 314 726Q320 653 321 591C321 558 321 558 321 542Q321 520 325 502Q331 484 294 460C281 452 241 449 249 462Q273 510 276 558C277 588 277 588 278 603Z"/>
<path id="z38125d6" d="M629 290Q654 253 682 207Q703 167 722 148Q731 138 726 125Q722 113 695 93Q670 77 652 77Q634 78 642 100Q655 125 646 148Q618 224 574 295Q532 364 473 439Q464 449 462 455Q459 465 473 462Q483 461 527 418C538 407 538 407 543 401Q577 359 616 309C625 296 625 296 629 290Z"/>
<path id="z38125d7" d="M600 657Q711 524 810 359Q829 329 863 300Q878 288 872 279Q869 269 806 247Q787 238 768 252Q735 270 629 290C621 292 609 305 616 309Q640 327 727 305Q749 299 758 308Q762 317 748 342Q676 507 552 645Q549 645 549 647C547 649 547 652 545 654Q472 733 365 834Q352 847 366 846Q423 837 560 700C587 671 587 671 600 657Z"/>
<path id="z38125d8" d="M527 418Q531 425 542 438Q590 498 600 500Q607 501 613 491Q619 481 616 457Q615 441 593 425Q572 413 543 401C536 399 522 412 527 418Z"/>
<path id="z38125d9" d="M611 662Q608 659 600 657C584 651 559 633 549 647Q546 648 545 654C539 669 555 685 560 700Q578 755 587 833Q588 863 604 884Q620 906 627 891Q633 878 633 856C631 831 631 831 630 818Q620 725 617 693C617 682 619 668 611 662Z"/>
<path id="z38125d10" d="M841 800Q866 712 901 686Q917 667 903 648Q824 588 767 621Q697 645 611 662C601 664 607 695 617 693Q626 692 779 660Q795 656 803 662Q816 678 788 791C785 809 837 818 841 800Z"/>
<path id="z38125d11" d="M633 856Q640 857 649 856Q713 844 853 838Q865 837 867 827Q867 820 841 800C827 789 806 791 788 791Q784 790 781 791Q697 809 630 818C617 820 620 856 633 856Z"/>
<defs>
	<clipPath id="z38125c1"><use xlink:href="#z38125d1"/></clipPath>
	<clipPath id="z38125c2"><use xlink:href="#z38125d2"/></clipPath>
	<clipPath id="z38125c3"><use xlink:href="#z38125d3"/></clipPath>
	<clipPath id="z38125c4"><use xlink:href="#z38125d4"/></clipPath>
	<clipPath id="z38125c5"><use xlink:href="#z38125d5"/></clipPath>
	<clipPath id="z38125c6"><use xlink:href="#z38125d6"/></clipPath>
	<clipPath id="z38125c7"><use xlink:href="#z38125d7"/></clipPath>
	<clipPath id="z38125c8"><use xlink:href="#z38125d8"/></clipPath>
	<clipPath id="z38125c9"><use xlink:href="#z38125d9"/></clipPath>
	<clipPath id="z38125c10"><use xlink:href="#z38125d10"/></clipPath>
	<clipPath id="z38125c11"><use xlink:href="#z38125d11"/></clipPath>
</defs>
<path style="--d:1s;" pathLength="3333" clip-path="url(#z38125c1)" d="M322 83L355 145L311 242L196 413L76 533"/>
<path style="--d:2s;" pathLength="3333" clip-path="url(#z38125c2)" d="M305 305L489 273"/>
<path style="--d:3s;" pathLength="3333" clip-path="url(#z38125c3)" d="M218 443L441 400"/>
<path style="--d:4s;" pathLength="3333" clip-path="url(#z38125c4)" d="M162 595L437 537"/>
<path style="--d:5s;" pathLength="3333" clip-path="url(#z38125c5)" d="M259 467L296 500L274 787L294 794L429 674"/>
<path style="--d:6s;" pathLength="3333" clip-path="url(#z38125c6)" d="M645 84L684 146L597 299L467 455"/>
<path style="--d:7s;" pathLength="3333" clip-path="url(#z38125c7)" d="M623 306L764 278L821 298L581 646L365 840"/>
<path style="--d:8s;" pathLength="3333" clip-path="url(#z38125c8)" d="M538 416L603 494"/>
<path style="--d:9s;" pathLength="3333" clip-path="url(#z38125c9)" d="M554 655L588 691L617 892"/>
<path style="--d:10s;" pathLength="3333" clip-path="url(#z38125c10)" d="M617 665L791 634L847 652L857 677L800 792"/>
<path style="--d:11s;" pathLength="3333" clip-path="url(#z38125c11)" d="M638 848L784 816L862 829"/>
</svg>