<!--
AnimCJK 2016-2019 Copyright Francois Mizessyn - https://github.com/parsimonhi/animCJK
Derived from:
    MakeMeAHanzi project - https://github.com/skishore/makemeahanzi
    Arphic PL KaitiM GB font
    Arphic PL UKai font
You can redistribute and/or modify this file under the terms of the Arphic Public License
as published by Arphic Technology Co., Ltd.
You should have received a copy of this license along with this file.
If not, see http://ftp.gnu.org/non-gnu/chinese-fonts-truetype/LICENSE.
-->
<svg id="z38134" class="acjk" version="1.1" viewBox="0 0 1024 1024" xmlns="http://www.w3.org/2000/svg" xmlns:xlink="http://www.w3.org/1999/xlink">
<style>
<![CDATA[
@keyframes zk {
	to {
		stroke-dashoffset:0;
	}
}
svg.acjk path[clip-path] {
	--t:0.8s;
	animation:zk var(--t) linear forwards var(--d);
	stroke-dasharray:3337;
	stroke-dashoffset:3339;
	stroke-width:128;
	stroke-linecap:round;
	fill:none;
	stroke:#000;
}
svg.acjk path[id] {fill:#ccc;}
]]>
</style>
<path id="z38134d1" d="M297 272Q357 170 378 149Q388 139 383 125Q379 112 350 89Q322 70 303 70Q284 71 293 95Q308 128 295 157Q255 253 195 341Q137 426 59 521Q49 531 46 537Q43 549 57 546Q114 537 277 303C290 282 290 282 297 272Z"/>
<path id="z38134d2" d="M277 303Q314 307 383 288Q404 281 427 274Q443 268 446 266Q453 257 448 250Q441 240 413 237Q379 237 297 272C286 277 265 303 277 303Z"/>
<path id="z38134d3" d="M287 449Q296 445 396 415Q418 408 422 403Q429 394 424 387Q417 377 387 373Q357 370 330 385Q305 397 277 406Q246 416 209 423Q175 433 201 446Q219 455 243 455C272 451 272 451 287 449Z"/>
<path id="z38134d4" d="M319 592Q445 555 449 551Q456 544 452 535Q445 525 416 519Q392 516 319 544C288 555 288 555 272 560Q220 572 159 583Q125 592 150 606Q198 627 247 610Q259 606 273 604C304 596 304 596 319 592Z"/>
<path id="z38134d5" d="M273 604Q273 733 239 786Q202 822 247 869C248 870 248 870 249 870Q262 877 272 861Q287 833 423 715Q439 702 444 694Q448 684 438 684Q425 684 322 746Q313 752 311 743Q318 661 319 592C319 560 319 560 319 544Q318 517 322 496Q326 483 318 472Q302 459 287 449C274 441 233 445 243 455Q267 479 272 560C273 589 273 589 273 604Z"/>
<path id="z38134d6" d="M695 428Q711 449 725 455Q735 462 750 441Q763 414 788 272Q795 242 816 217Q829 204 817 192Q801 176 759 152Q740 145 678 164Q659 164 529 202C517 204 543 235 555 230Q606 214 695 196Q716 192 724 199Q737 214 736 230Q715 383 699 396C692 404 689 419 695 428Z"/>
<path id="z38134d7" d="M547 340Q553 341 563 339Q630 327 680 319Q702 315 693 303Q683 290 659 286Q620 283 547 317C540 320 539 340 547 340Z"/>
<path id="z38134d8" d="M550 449Q554 449 560 449Q636 436 695 428C706 426 709 399 699 396Q698 395 693 394Q672 390 635 400Q590 413 550 424C542 426 542 449 550 449Z"/>
<path id="z38134d9" d="M550 469Q550 459 550 449C550 432 550 432 550 424Q549 382 548 345Q547 342 547 340C547 325 547 325 547 317Q547 277 554 243Q555 236 555 230C555 217 540 209 529 202Q514 192 500 185Q481 178 472 185Q462 191 471 207Q529 321 494 724Q493 775 452 827Q440 843 449 866Q461 893 474 904Q487 913 499 895Q515 865 657 741Q676 728 680 718Q684 708 674 708Q662 708 554 769Q544 776 541 765Q548 623 550 503C550 480 550 480 550 469Z"/>
<path id="z38134d10" d="M692 614Q752 578 801 545Q819 532 840 522Q859 513 851 497Q839 481 816 468Q794 455 783 457Q771 458 775 471Q775 498 683 603Q682 603 682 604C679 608 688 617 692 614Z"/>
<path id="z38134d11" d="M682 604Q637 558 589 495Q574 477 550 469C539 465 541 496 550 503Q560 509 644 625Q761 793 828 794Q835 794 844 793Q955 781 966 777Q973 771 962 762Q949 753 834 712Q780 691 692 614C685 607 685 607 682 604Z"/>
<defs>
	<clipPath id="z38134c1"><use xlink:href="#z38134d1"/></clipPath>
	<clipPath id="z38134c2"><use xlink:href="#z38134d2"/></clipPath>
	<clipPath id="z38134c3"><use xlink:href="#z38134d3"/></clipPath>
	<clipPath id="z38134c4"><use xlink:href="#z38134d4"/></clipPath>
	<clipPath id="z38134c5"><use xlink:href="#z38134d5"/></clipPath>
	<clipPath id="z38134c6"><use xlink:href="#z38134d6"/></clipPath>
	<clipPath id="z38134c7"><use xlink:href="#z38134d7"/></clipPath>
	<clipPath id="z38134c8"><use xlink:href="#z38134d8"/></clipPath>
	<clipPath id="z38134c9"><use xlink:href="#z38134d9"/></clipPath>
	<clipPath id="z38134c10"><use xlink:href="#z38134d10"/></clipPath>
	<clipPath id="z38134c11"><use xlink:href="#z38134d11"/></clipPath>
</defs>
<path style="--d:1s;" pathLength="3333" clip-path="url(#z38134c1)" d="M296 79L342 139L216 350L53 539"/>
<path style="--d:2s;" pathLength="3333" clip-path="url(#z38134c2)" d="M289 299L445 257"/>
<path style="--d:3s;" pathLength="3333" clip-path="url(#z38134c3)" d="M197 432L419 399"/>
<path style="--d:4s;" pathLength="3333" clip-path="url(#z38134c4)" d="M148 595L447 533"/>
<path style="--d:5s;" pathLength="3333" clip-path="url(#z38134c5)" d="M251 456L294 499L270 813L293 819L437 690"/>
<path style="--d:6s;" pathLength="3333" clip-path="url(#z38134c6)" d="M538 204L727 174L777 209L721 451"/>
<path style="--d:7s;" pathLength="3333" clip-path="url(#z38134c7)" d="M556 332L689 306"/>
<path style="--d:8s;" pathLength="3333" clip-path="url(#z38134c8)" d="M556 441L697 409"/>
<path style="--d:9s;" pathLength="3333" clip-path="url(#z38134c9)" d="M474 191L522 246L527 562L489 827L515 854L673 714"/>
<path style="--d:10s;" pathLength="3333" clip-path="url(#z38134c10)" d="M783 467L806 507L691 606"/>
<path style="--d:11s;" pathLength="3333" clip-path="url(#z38134c11)" d="M555 477L782 730L960 771"/>
</svg>