<!--
AnimCJK 2016-2018 Copyright Francois Mizessyn, http://gooo.free.fr/animCJK/
Derived from:
    MakeMeAHanzi project - https://github.com/skishore/makemeahanzi
    Arphic PL KaitiM GB - https://apps.ubuntu.com/cat/applications/precise/fonts-arphic-gkai00mp/
    Arphic PL UKai - https://apps.ubuntu.com/cat/applications/fonts-arphic-ukai/
You can redistribute and/or modify this file under the terms of the Arphic Public License
as published by Arphic Technology Co., Ltd.
You should have received a copy of this license (the directory "APL") along with this file;
if not, see http://ftp.gnu.org/non-gnu/chinese-fonts-truetype/LICENSE.
-->
<svg id="z38139" class="acjk" version="1.1" viewBox="0 0 1024 1024" xmlns="http://www.w3.org/2000/svg" xmlns:xlink="http://www.w3.org/1999/xlink">
<style>
<![CDATA[
@keyframes z38139k {
	from {
		stroke:#ccc;
		stroke-dashoffset:3334;
	}
	1% {
		stroke:#c00;
		stroke-dashoffset:3334;
	}
	75% {
		stroke:#c00;
		stroke-dashoffset:0;
	}
	to {
		stroke:#000;
	}
}
#z38139 path[clip-path] {
	animation:z38139k 1s linear both;
	stroke-dasharray:3334;
	stroke-width:128;
	stroke-linecap:round;
	fill:none;
}
#z38139 path[clip-path="url(#z38139c1)"] {animation-delay:1s;}
#z38139 path[clip-path="url(#z38139c2)"] {animation-delay:2s;}
#z38139 path[clip-path="url(#z38139c3)"] {animation-delay:3s;}
#z38139 path[clip-path="url(#z38139c4)"] {animation-delay:4s;}
#z38139 path[clip-path="url(#z38139c5)"] {animation-delay:5s;}
#z38139 path[clip-path="url(#z38139c6)"] {animation-delay:6s;}
#z38139 path[clip-path="url(#z38139c7)"] {animation-delay:7s;}
#z38139 path[clip-path="url(#z38139c8)"] {animation-delay:8s;}
#z38139 path[clip-path="url(#z38139c9)"] {animation-delay:9s;}
#z38139 path[clip-path="url(#z38139c10)"] {animation-delay:10s;}
#z38139 path[clip-path="url(#z38139c11)"] {animation-delay:11s;}
#z38139 path[clip-path="url(#z38139c12)"] {animation-delay:12s;}
#z38139 path {fill:#ccc;}
]]>
</style>
<path id="z38139d1" d="M295 287Q349 197 363 183Q372 173 367 159Q363 146 334 125Q307 107 289 107Q270 110 279 131Q294 162 281 190Q221 346 62 541Q52 551 50 558Q47 568 61 566Q112 557 272 324Q275 320 278 315L295 287 Z"/>
<path id="z38139d2" d="M278 315Q317 321 369 310Q400 301 433 293Q451 289 453 286Q460 279 456 270Q449 260 421 256Q403 255 330 278Q312 282 295 287L278 315 Z"/>
<path id="z38139d3" d="M285 464Q297 458 385 433Q407 426 410 422Q417 413 412 406Q405 396 377 393Q353 390 276 424Q243 433 208 441Q177 450 201 463Q222 470 244 471L285 464 Z"/>
<path id="z38139d4" d="M317 603Q344 593 377 585Q408 575 413 570Q420 563 416 554Q409 544 381 540Q365 539 317 554L270 574Q261 575 252 579Q209 592 157 601Q124 610 150 623Q190 642 239 625Q254 621 272 616L317 603 Z"/>
<path id="z38139d5" d="M272 616Q272 752 234 805Q198 838 240 886Q240 887 243 889Q256 896 267 881Q282 853 422 738Q440 726 444 718Q448 708 438 708Q423 709 320 767Q310 773 308 763Q315 675 317 603L317 554Q317 532 322 512Q326 499 318 489Q302 473 285 464L244 471Q244 472 247 477Q268 520 270 574L272 616 Z"/>
<path id="z38139d6" d="M 672,200 C 790,176 850,163 854,161 860,156 862,150 859,144 854,136 842,129 822,124 806,120 762,128 691,149 643,159 594,166 546,170 521,174 517,182 535,194 563,208 595,213 632,207 Z"/>
<path id="z38139d7" d="M 663,324 C 681,261 691,229 692,228 685,217 678,208 672,200 L 632,207 C 634,219 627,262 610,336 L 600,373 C 589,409 577,455 563,511 L 609,505 C 623,454 637,407 651,363 Z"/>
<path id="z38139d8" d="M 784,482 C 802,425 823,388 847,372 857,359 858,347 849,335 838,326 815,313 780,296 768,291 754,291 740,297 713,307 687,316 663,324 L 610,336 C 579,342 548,347 516,351 505,351 500,355 501,363 503,367 510,372 522,377 538,383 558,383 582,376 586,375 592,374 600,373 L 651,363 C 713,350 746,346 752,351 758,357 760,367 758,381 750,421 740,458 730,490 Z"/>
<path id="z38139d9" d="M 563,511 C 514,517 484,516 433,522 419,523 416,529 427,541 435,550 446,556 459,561 472,565 485,564 496,562 598,535 712,523 918,523 930,523 941,523 953,524 967,524 975,521 978,516 982,508 979,498 968,490 928,460 907,458 865,468 841,473 814,477 784,482 L 730,490 C 713,492 696,493 680,496 657,499 633,501 609,505 Z"/>
<path id="z38139d10" d="M 544,646 C 536,642 522,638 504,635 495,632 489,632 487,636 482,640 483,648 489,660 507,702 522,756 532,824 532,844 539,861 551,875 563,891 571,893 575,883 579,874 580,862 580,847 L 577,813 C 567,745 561,700 560,679 Z"/>
<path id="z38139d11" d="M 815,788 C 831,730 850,692 874,676 886,663 887,651 877,639 866,629 842,615 806,598 793,593 779,593 765,598 713,618 639,634 544,646 L 560,679 C 576,677 638,666 746,648 760,645 769,647 775,653 781,659 784,668 783,682 777,720 769,754 761,786 Z"/>
<path id="z38139d12" d="M 580,847 591,847 C 641,838 721,831 830,826 836,825 841,822 843,816 843,811 833,802 815,788 L 761,786 C 693,798 631,807 577,813 Z"/>
<defs>
	<clipPath id="z38139c1"><use xlink:href="#z38139d1"/></clipPath>
	<clipPath id="z38139c2"><use xlink:href="#z38139d2"/></clipPath>
	<clipPath id="z38139c3"><use xlink:href="#z38139d3"/></clipPath>
	<clipPath id="z38139c4"><use xlink:href="#z38139d4"/></clipPath>
	<clipPath id="z38139c5"><use xlink:href="#z38139d5"/></clipPath>
	<clipPath id="z38139c6"><use xlink:href="#z38139d6"/></clipPath>
	<clipPath id="z38139c7"><use xlink:href="#z38139d7"/></clipPath>
	<clipPath id="z38139c8"><use xlink:href="#z38139d8"/></clipPath>
	<clipPath id="z38139c9"><use xlink:href="#z38139d9"/></clipPath>
	<clipPath id="z38139c10"><use xlink:href="#z38139d10"/></clipPath>
	<clipPath id="z38139c11"><use xlink:href="#z38139d11"/></clipPath>
	<clipPath id="z38139c12"><use xlink:href="#z38139d12"/></clipPath>
</defs>
<path pathLength="3333" clip-path="url(#z38139c1)" d="M286 113L323 181L196 395L55 557"/>
<path pathLength="3333" clip-path="url(#z38139c2)" d="M286 310L453 279"/>
<path pathLength="3333" clip-path="url(#z38139c3)" d="M199 451L409 411"/>
<path pathLength="3333" clip-path="url(#z38139c4)" d="M146 610L413 556"/>
<path pathLength="3333" clip-path="url(#z38139c5)" d="M253 475L293 513L266 836L437 715"/>
<path pathLength="3333" clip-path="url(#z38139c6)" d="M 531,180 856,150"/>
<path pathLength="3333" clip-path="url(#z38139c7)" d="M 638,213 657,250 572,507"/>
<path pathLength="3333" clip-path="url(#z38139c8)" d="M 507,360 769,325 807,362 741,487"/>
<path pathLength="3333" clip-path="url(#z38139c9)" d="M 428,530 482,540 883,495 975,506"/>
<path pathLength="3333" clip-path="url(#z38139c10)" d="M 491,641 532,690 564,882"/>
<path pathLength="3333" clip-path="url(#z38139c11)" d="M 551,648 797,628 833,663 773,784"/>
<path pathLength="3333" clip-path="url(#z38139c12)" d="M 584,819 838,810"/>
</svg>