<!--
AnimCJK 2016-2018 Copyright Francois Mizessyn - https://github.com/parsimonhi/animCJK
Derived from:
    MakeMeAHanzi project - https://github.com/skishore/makemeahanzi
    Arphic PL KaitiM GB - https://apps.ubuntu.com/cat/applications/precise/fonts-arphic-gkai00mp/
    Arphic PL UKai - https://apps.ubuntu.com/cat/applications/fonts-arphic-ukai/
You can redistribute and/or modify this file under the terms of the Arphic Public License
as published by Arphic Technology Co., Ltd.
You should have received a copy of this license (the directory "APL") along with this file;
if not, see http://ftp.gnu.org/non-gnu/chinese-fonts-truetype/LICENSE.
-->
<svg id="z38143" class="acjk" version="1.1" viewBox="0 0 1024 1024" xmlns="http://www.w3.org/2000/svg" xmlns:xlink="http://www.w3.org/1999/xlink">
<style>
<![CDATA[
@keyframes z38143k {
	from {
		stroke:#ccc;
		stroke-dashoffset:3334;
	}
	1% {
		stroke:#c00;
		stroke-dashoffset:3334;
	}
	75% {
		stroke:#c00;
		stroke-dashoffset:0;
	}
	to {
		stroke:#000;
	}
}
#z38143 path[clip-path] {
	animation:z38143k 1s linear both;
	stroke-dasharray:3334;
	stroke-width:128;
	stroke-linecap:round;
	fill:none;
}
#z38143 path[clip-path="url(#z38143c1)"] {animation-delay:1s;}
#z38143 path[clip-path="url(#z38143c2)"] {animation-delay:2s;}
#z38143 path[clip-path="url(#z38143c3)"] {animation-delay:3s;}
#z38143 path[clip-path="url(#z38143c4)"] {animation-delay:4s;}
#z38143 path[clip-path="url(#z38143c5)"] {animation-delay:5s;}
#z38143 path[clip-path="url(#z38143c6)"] {animation-delay:6s;}
#z38143 path[clip-path="url(#z38143c7)"] {animation-delay:7s;}
#z38143 path[clip-path="url(#z38143c8)"] {animation-delay:8s;}
#z38143 path[clip-path="url(#z38143c9)"] {animation-delay:9s;}
#z38143 path[clip-path="url(#z38143c10)"] {animation-delay:10s;}
#z38143 path[clip-path="url(#z38143c11)"] {animation-delay:11s;}
#z38143 path[clip-path="url(#z38143c12)"] {animation-delay:12s;}
#z38143 path {fill:#ccc;}
]]>
</style>
<path id="z38143d1" d="M305 249Q326 201 366 160Q375 150 370 136Q366 123 338 100Q311 82 293 83Q274 84 282 106Q297 137 285 165Q248 256 191 340Q137 421 63 510Q53 520 50 526Q47 536 61 534Q118 525 275 295Q278 291 281 286L305 249 Z"/>
<path id="z38143d2" d="M281 286Q314 290 408 267Q411 266 416 265Q431 261 433 259Q440 252 436 243Q429 233 399 227Q387 226 310 247Q307 247 305 249L281 286 Z"/>
<path id="z38143d3" d="M288 434Q292 431 400 399Q422 392 426 387Q433 378 428 371Q421 361 391 357Q361 354 334 369Q309 381 281 390Q250 400 213 407Q179 417 205 430Q220 436 244 439L288 434 Z"/>
<path id="z38143d4" d="M317 571Q344 561 377 553Q408 543 413 538Q420 531 416 522Q409 512 381 508Q365 507 317 522L270 542Q261 543 252 547Q209 560 157 569Q124 578 150 591Q190 610 239 593Q254 589 272 584L317 571 Z"/>
<path id="z38143d5" d="M272 584Q272 719 239 771Q196 813 241 860L243 861Q256 868 267 853Q282 825 422 710Q440 698 444 690Q448 680 438 680Q423 681 320 739Q310 745 308 735Q315 644 317 571L317 522Q317 498 322 480Q328 461 288 434L244 439Q244 440 247 445Q268 488 270 542L272 584 Z"/>
<path id="z38143d6" d="M450 278Q472 320 460 437Q457 459 478 486Q485 495 493 485Q505 463 506 386Q506 319 509 301Q513 283 497 274Q484 267 470 260Q460 256 453 261Q446 267 450 278 Z"/>
<path id="z38143d7" d="M566 497Q570 518 576 526Q580 532 586 529Q598 523 604 475Q608 439 608 404Q607 374 612 258Q613 237 618 219Q619 206 609 197Q584 179 571 177Q561 173 548 181Q541 187 546 196Q556 211 561 305Q561 458 566 497 Z"/>
<path id="z38143d8" d="M785 422Q830 346 846 307Q846 286 876 255Q892 240 881 229Q868 219 840 209Q819 203 796 217Q771 227 739 238Q705 248 650 257Q638 258 634 264Q631 271 647 277Q680 287 722 274Q771 255 780 254Q802 255 797 279Q782 355 752 393L729 421Q690 460 623 481Q611 485 622 492Q626 496 655 494Q701 488 755 451L785 422 Z"/>
<path id="z38143d9" d="M755 451Q785 484 830 525Q851 541 881 534Q921 527 950 522Q959 521 968 517Q974 513 965 506Q955 499 870 471Q834 461 785 422L752 393Q724 365 693 331Q680 315 658 312Q648 311 640 316Q636 323 644 329Q648 333 654 336Q670 342 729 421L755 451 Z"/>
<path id="z38143d10" d="M665 665Q809 638 813 635Q823 628 818 620Q812 608 784 599Q756 592 726 602Q698 609 669 618L610 630Q555 637 495 641Q459 645 484 663Q520 685 593 675Q602 674 613 673L665 665 Z"/>
<path id="z38143d11" d="M655 786Q659 722 665 665L669 618Q670 606 673 598Q676 588 678 579Q681 569 663 557Q632 541 611 537Q598 534 590 542Q583 549 591 562Q604 580 610 630L613 673Q617 728 617 791L655 786 Z"/>
<path id="z38143d12" d="M617 791Q520 801 408 815Q389 816 403 833Q416 846 433 852Q454 858 469 853Q605 817 906 818Q925 819 931 810Q935 800 920 786Q865 744 805 761Q744 771 655 786L617 791 Z"/>
<defs>
	<clipPath id="z38143c1"><use xlink:href="#z38143d1"/></clipPath>
	<clipPath id="z38143c2"><use xlink:href="#z38143d2"/></clipPath>
	<clipPath id="z38143c3"><use xlink:href="#z38143d3"/></clipPath>
	<clipPath id="z38143c4"><use xlink:href="#z38143d4"/></clipPath>
	<clipPath id="z38143c5"><use xlink:href="#z38143d5"/></clipPath>
	<clipPath id="z38143c6"><use xlink:href="#z38143d6"/></clipPath>
	<clipPath id="z38143c7"><use xlink:href="#z38143d7"/></clipPath>
	<clipPath id="z38143c8"><use xlink:href="#z38143d8"/></clipPath>
	<clipPath id="z38143c9"><use xlink:href="#z38143d9"/></clipPath>
	<clipPath id="z38143c10"><use xlink:href="#z38143d10"/></clipPath>
	<clipPath id="z38143c11"><use xlink:href="#z38143d11"/></clipPath>
	<clipPath id="z38143c12"><use xlink:href="#z38143d12"/></clipPath>
</defs>
<path pathLength="3333" clip-path="url(#z38143c1)" d="M287 89L324 126L322 164L186 384L57 528"/>
<path pathLength="3333" clip-path="url(#z38143c2)" d="M293 281L431 250"/>
<path pathLength="3333" clip-path="url(#z38143c3)" d="M201 416L423 383"/>
<path pathLength="3333" clip-path="url(#z38143c4)" d="M146 578L413 524"/>
<path pathLength="3333" clip-path="url(#z38143c5)" d="M252 441L292 481L265 805L437 687"/>
<path pathLength="3333" clip-path="url(#z38143c6)" d="M458 264L484 304L485 480"/>
<path pathLength="3333" clip-path="url(#z38143c7)" d="M552 182L586 226L583 524"/>
<path pathLength="3333" clip-path="url(#z38143c8)" d="M644 267L812 233L841 257L759 418L627 487"/>
<path pathLength="3333" clip-path="url(#z38143c9)" d="M647 321L844 496L963 511"/>
<path pathLength="3333" clip-path="url(#z38143c10)" d="M485 653L815 625"/>
<path pathLength="3333" clip-path="url(#z38143c11)" d="M595 547L641 588L630 789"/>
<path pathLength="3333" clip-path="url(#z38143c12)" d="M405 823L830 787L927 799"/>
</svg>