<!--
AnimCJK 2016-2017 Copyright Francois Mizessyn, http://gooo.free.fr/animCJK/
Derived from:
    MakeMeAHanzi project - https://github.com/skishore/makemeahanzi
    Arphic PL KaitiM GB - https://apps.ubuntu.com/cat/applications/precise/fonts-arphic-gkai00mp/
    Arphic PL UKai - https://apps.ubuntu.com/cat/applications/fonts-arphic-ukai/
You can redistribute and/or modify this file under the terms of the Arphic Public License
as published by Arphic Technology Co., Ltd.
You should have received a copy of this license (the directory "APL") along with this file;
if not, see http://ftp.gnu.org/non-gnu/chinese-fonts-truetype/LICENSE.
-->
<svg id="z38155" class="acjk" version="1.1" viewBox="0 0 1024 1024" xmlns="http://www.w3.org/2000/svg" xmlns:xlink="http://www.w3.org/1999/xlink">
<style>
<![CDATA[
	@keyframes z38155k {
		from {
			stroke:#c00;
			stroke-dashoffset:3000;
		}
		75% {
			stroke:#c00;
			stroke-dashoffset:0;
		}
		to {
			stroke:#000;
		}
	}
	#z38155 path[clip-path] {
		animation:z38155k 1s linear both;
		stroke-dasharray:3000;
		stroke-width:128;
		stroke-linecap:round;
		fill:none;
	}
	#z38155 path[clip-path="url(#z38155c1)"] {animation-delay:1s;}
	#z38155 path[clip-path="url(#z38155c2)"] {animation-delay:2s;}
	#z38155 path[clip-path="url(#z38155c3)"] {animation-delay:3s;}
	#z38155 path[clip-path="url(#z38155c4)"] {animation-delay:4s;}
	#z38155 path[clip-path="url(#z38155c5)"] {animation-delay:5s;}
	#z38155 path[clip-path="url(#z38155c6)"] {animation-delay:6s;}
	#z38155 path[clip-path="url(#z38155c7)"] {animation-delay:7s;}
	#z38155 path[clip-path="url(#z38155c8)"] {animation-delay:8s;}
	#z38155 path[clip-path="url(#z38155c9)"] {animation-delay:9s;}
	#z38155 path[clip-path="url(#z38155c10)"] {animation-delay:10s;}
	#z38155 path[clip-path="url(#z38155c11)"] {animation-delay:11s;}
	#z38155 path[clip-path="url(#z38155c12)"] {animation-delay:12s;}
	#z38155 path {fill:#ccc;}
]]>
</style>
<g transform="scale(1,-1) translate(0,-900)">
	<path id="z38155d1" d="M215 511Q255 562 298 632L317 665Q374 773 375 774Q372 784 359 794Q326 821 295 812Q286 809 290 797Q308 721 202 562Q148 492 56 395Q49 391 59 388Q69 389 92 406Q131 430 166 461Q179 474 195 489L215 511Z"/>
	<path id="z38155d2" d="M298 632Q332 629 462 670Q469 679 464 686Q457 696 429 699Q420 699 317 665L298 632Z"/>
	<path id="z38155d3" d="M279 489Q279 490 281 490Q413 535 418 540Q425 547 420 554Q413 564 387 567Q360 568 336 555Q308 542 278 530Q250 520 215 511L195 489Q216 482 238 481L279 489Z"/>
	<path id="z38155d4" d="M315 341Q337 350 361 357Q394 369 398 374Q405 383 400 390Q393 400 365 403Q340 404 315 393L266 370Q187 343 136 331Q103 321 129 309Q174 294 251 321Q258 324 267 326L315 341Z"/>
	<path id="z38155d5" d="M267 326Q267 188 230 127Q200 99 246 46L248 45Q261 38 272 56Q282 86 402 221Q418 237 421 246Q424 256 414 255Q399 252 308 182Q308 178 306 180Q313 268 315 341L315 393Q315 418 320 438Q326 459 279 489L238 481Q239 480 241 475Q263 426 266 370L267 326Z"/>
	<path id="z38155d6" d="M590 712Q647 802 649 806Q648 809 648 810Q644 820 619 840Q597 855 580 854Q564 853 572 834Q587 803 527 694Q497 645 457 590Q448 581 447 576Q444 566 456 569Q477 572 530 634L541 648Q542 649 544 651Q557 669 574 689L590 712Z"/>
	<path id="z38155d7" d="M591 493Q613 515 638 540L661 566Q769 699 779 707Q792 717 788 725Q787 732 732 753Q716 762 698 750Q682 740 655 730Q621 720 590 712L574 689Q596 680 662 700Q680 704 685 699Q688 693 678 677Q656 634 623 590L605 567Q592 552 579 535Q527 477 425 397Q412 387 425 386Q455 386 554 460Q557 466 579 482L591 493Z"/>
	<path id="z38155d8" d="M638 540Q782 422 817 416Q884 416 958 439Q974 443 975 447Q976 454 963 457Q912 470 853 484Q787 500 736 527Q699 545 661 566L623 590Q617 594 611 599Q560 636 541 648L530 634Q534 630 541 623Q572 595 605 567L638 540Z"/>
	<path id="z38155d9" d="M657 365Q688 374 722 380Q758 389 763 393Q770 400 766 407Q760 416 737 422Q716 425 660 407L603 390Q554 380 499 374Q469 370 490 355Q514 342 587 351Q594 354 604 354L657 365Z"/>
	<path id="z38155d10" d="M655 268Q704 278 750 284Q774 288 765 300Q755 315 729 320Q698 323 656 310L603 296Q543 283 491 269Q475 265 495 250Q508 241 533 246Q569 253 603 259L655 268Z"/>
	<path id="z38155d11" d="M654 172Q736 182 859 183Q910 180 919 191Q925 201 909 215Q855 255 798 236Q740 226 654 208L603 200Q513 188 411 173Q392 170 406 155Q419 142 436 138Q455 134 471 137Q532 156 603 165L654 172Z"/>
	<path id="z38155d12" d="M607 -28Q611 -52 618 -61Q624 -68 631 -66Q644 -57 651 -1Q658 65 654 172L654 208Q654 235 655 268L656 310Q656 335 657 365L660 407Q660 410 661 412Q664 431 667 445Q670 461 656 471Q625 492 611 494Q601 498 591 493L579 482Q578 479 591 457Q601 438 603 390L604 354Q604 327 603 296L603 259Q603 231 603 200L603 165Q603 6 607 -28Z"/>
	<defs>
		<clipPath id="z38155c1"><use xlink:href="#z38155d1"/></clipPath>
		<clipPath id="z38155c2"><use xlink:href="#z38155d2"/></clipPath>
		<clipPath id="z38155c3"><use xlink:href="#z38155d3"/></clipPath>
		<clipPath id="z38155c4"><use xlink:href="#z38155d4"/></clipPath>
		<clipPath id="z38155c5"><use xlink:href="#z38155d5"/></clipPath>
		<clipPath id="z38155c6"><use xlink:href="#z38155d6"/></clipPath>
		<clipPath id="z38155c7"><use xlink:href="#z38155d7"/></clipPath>
		<clipPath id="z38155c8"><use xlink:href="#z38155d8"/></clipPath>
		<clipPath id="z38155c9"><use xlink:href="#z38155d9"/></clipPath>
		<clipPath id="z38155c10"><use xlink:href="#z38155d10"/></clipPath>
		<clipPath id="z38155c11"><use xlink:href="#z38155d11"/></clipPath>
		<clipPath id="z38155c12"><use xlink:href="#z38155d12"/></clipPath>
	</defs>
	<path pathLength="2999" clip-path="url(#z38155c1)" d="M296 805L332 764L265 622L179 502L58 393"/>
	<path pathLength="2999" clip-path="url(#z38155c2)" d="M305 637L461 682"/>
	<path pathLength="2999" clip-path="url(#z38155c3)" d="M208 494L418 551"/>
	<path pathLength="2999" clip-path="url(#z38155c4)" d="M126 318L395 382"/>
	<path pathLength="2999" clip-path="url(#z38155c5)" d="M248 477L288 440L262 110L282 97L415 248"/>
	<path pathLength="2999" clip-path="url(#z38155c6)" d="M578 847L611 804L452 575"/>
	<path pathLength="2999" clip-path="url(#z38155c7)" d="M584 693L700 726L734 701L580 508L427 391"/>
	<path pathLength="2999" clip-path="url(#z38155c8)" d="M541 640L807 459L967 449"/>
	<path pathLength="2999" clip-path="url(#z38155c9)" d="M494 363L760 406"/>
	<path pathLength="2999" clip-path="url(#z38155c10)" d="M493 264L762 297"/>
	<path pathLength="2999" clip-path="url(#z38155c11)" d="M405 166L840 213L916 201"/>
	<path pathLength="2999" clip-path="url(#z38155c12)" d="M587 485L632 445L627 -59"/>
</g>
</svg>