<!--
AnimCJK 2016-2017 Copyright Francois Mizessyn, https://github.com/parsimonhi/animCJK
Derived from:
    MakeMeAHanzi project - https://github.com/skishore/makemeahanzi
    Arphic PL KaitiM GB - https://apps.ubuntu.com/cat/applications/precise/fonts-arphic-gkai00mp/
    Arphic PL UKai - https://apps.ubuntu.com/cat/applications/fonts-arphic-ukai/
You can redistribute and/or modify this file under the terms of the Arphic Public License
as published by Arphic Technology Co., Ltd.
You should have received a copy of this license (the directory "APL") along with this file;
if not, see http://ftp.gnu.org/non-gnu/chinese-fonts-truetype/LICENSE.
-->
<svg id="z38155" class="acjk" version="1.1" viewBox="0 0 1024 1024" xmlns="http://www.w3.org/2000/svg" xmlns:xlink="http://www.w3.org/1999/xlink">
<style>
<![CDATA[
@keyframes z38155k {
	from {
		stroke:#c00;
		stroke-dashoffset:3000;
	}
	75% {
		stroke:#c00;
		stroke-dashoffset:0;
	}
	to {
		stroke:#000;
	}
}
#z38155 path[clip-path] {
	animation:z38155k 1s linear both;
	stroke-dasharray:3000;
	stroke-width:128;
	stroke-linecap:round;
	fill:none;
}
#z38155 path[clip-path="url(#z38155c1)"] {animation-delay:1s;}
#z38155 path[clip-path="url(#z38155c2)"] {animation-delay:2s;}
#z38155 path[clip-path="url(#z38155c3)"] {animation-delay:3s;}
#z38155 path[clip-path="url(#z38155c4)"] {animation-delay:4s;}
#z38155 path[clip-path="url(#z38155c5)"] {animation-delay:5s;}
#z38155 path[clip-path="url(#z38155c6)"] {animation-delay:6s;}
#z38155 path[clip-path="url(#z38155c7)"] {animation-delay:7s;}
#z38155 path[clip-path="url(#z38155c8)"] {animation-delay:8s;}
#z38155 path[clip-path="url(#z38155c9)"] {animation-delay:9s;}
#z38155 path[clip-path="url(#z38155c10)"] {animation-delay:10s;}
#z38155 path[clip-path="url(#z38155c11)"] {animation-delay:11s;}
#z38155 path[clip-path="url(#z38155c12)"] {animation-delay:12s;}
#z38155 path {fill:#ccc;}
]]>
</style>
<path id="z38155d1" d="M215 389Q255 338 298 268L317 235Q374 127 375 126Q372 116 359 106Q326 79 295 88Q286 91 290 103Q308 179 202 338Q148 408 56 505Q49 509 59 512Q69 511 92 494Q131 470 166 439Q179 426 195 411L215 389 Z"/>
<path id="z38155d2" d="M298 268Q332 271 462 230Q469 221 464 214Q457 204 429 201Q420 201 317 235L298 268 Z"/>
<path id="z38155d3" d="M279 411Q279 410 281 410Q413 365 418 360Q425 353 420 346Q413 336 387 333Q360 332 336 345Q308 358 278 370Q250 380 215 389L195 411Q216 418 238 419L279 411 Z"/>
<path id="z38155d4" d="M315 559Q337 550 361 543Q394 531 398 526Q405 517 400 510Q393 500 365 497Q340 496 315 507L266 530Q187 557 136 569Q103 579 129 591Q174 606 251 579Q258 576 267 574L315 559 Z"/>
<path id="z38155d5" d="M267 574Q267 712 230 773Q200 801 246 854L248 855Q261 862 272 844Q282 814 402 679Q418 663 421 654Q424 644 414 645Q399 648 308 718Q308 722 306 720Q313 632 315 559L315 507Q315 482 320 462Q326 441 279 411L238 419Q239 420 241 425Q263 474 266 530L267 574 Z"/>
<path id="z38155d6" d="M590 188Q647 98 649 94Q648 91 648 90Q644 80 619 60Q597 45 580 46Q564 47 572 66Q587 97 527 206Q497 255 457 310Q448 319 447 324Q444 334 456 331Q477 328 530 266L541 252Q542 251 544 249Q557 231 574 211L590 188 Z"/>
<path id="z38155d7" d="M591 407Q613 385 638 360L661 334Q769 201 779 193Q792 183 788 175Q787 168 732 147Q716 138 698 150Q682 160 655 170Q621 180 590 188L574 211Q596 220 662 200Q680 196 685 201Q688 207 678 223Q656 266 623 310L605 333Q592 348 579 365Q527 423 425 503Q412 513 425 514Q455 514 554 440Q557 434 579 418L591 407 Z"/>
<path id="z38155d8" d="M638 360Q782 478 817 484Q884 484 958 461Q974 457 975 453Q976 446 963 443Q912 430 853 416Q787 400 736 373Q699 355 661 334L623 310Q617 306 611 301Q560 264 541 252L530 266Q534 270 541 277Q572 305 605 333L638 360 Z"/>
<path id="z38155d9" d="M657 535Q688 526 722 520Q758 511 763 507Q770 500 766 493Q760 484 737 478Q716 475 660 493L603 510Q554 520 499 526Q469 530 490 545Q514 558 587 549Q594 546 604 546L657 535 Z"/>
<path id="z38155d10" d="M655 632Q704 622 750 616Q774 612 765 600Q755 585 729 580Q698 577 656 590L603 604Q543 617 491 631Q475 635 495 650Q508 659 533 654Q569 647 603 641L655 632 Z"/>
<path id="z38155d11" d="M654 728Q736 718 859 717Q910 720 919 709Q925 699 909 685Q855 645 798 664Q740 674 654 692L603 700Q513 712 411 727Q392 730 406 745Q419 758 436 762Q455 766 471 763Q532 744 603 735L654 728 Z"/>
<path id="z38155d12" d="M607 928Q611 952 618 961Q624 968 631 966Q644 957 651 901Q658 835 654 728L654 692Q654 665 655 632L656 590Q656 565 657 535L660 493Q660 490 661 488Q664 469 667 455Q670 439 656 429Q625 408 611 406Q601 402 591 407L579 418Q578 421 591 443Q601 462 603 510L604 546Q604 573 603 604L603 641Q603 669 603 700L603 735Q603 894 607 928 Z"/>
<defs>
	<clipPath id="z38155c1"><use xlink:href="#z38155d1"/></clipPath>
	<clipPath id="z38155c2"><use xlink:href="#z38155d2"/></clipPath>
	<clipPath id="z38155c3"><use xlink:href="#z38155d3"/></clipPath>
	<clipPath id="z38155c4"><use xlink:href="#z38155d4"/></clipPath>
	<clipPath id="z38155c5"><use xlink:href="#z38155d5"/></clipPath>
	<clipPath id="z38155c6"><use xlink:href="#z38155d6"/></clipPath>
	<clipPath id="z38155c7"><use xlink:href="#z38155d7"/></clipPath>
	<clipPath id="z38155c8"><use xlink:href="#z38155d8"/></clipPath>
	<clipPath id="z38155c9"><use xlink:href="#z38155d9"/></clipPath>
	<clipPath id="z38155c10"><use xlink:href="#z38155d10"/></clipPath>
	<clipPath id="z38155c11"><use xlink:href="#z38155d11"/></clipPath>
	<clipPath id="z38155c12"><use xlink:href="#z38155d12"/></clipPath>
</defs>
<path pathLength="2999" clip-path="url(#z38155c1)" d="M296 95L332 136L265 278L179 398L58 507"/>
<path pathLength="2999" clip-path="url(#z38155c2)" d="M305 263L461 218"/>
<path pathLength="2999" clip-path="url(#z38155c3)" d="M208 406L418 349"/>
<path pathLength="2999" clip-path="url(#z38155c4)" d="M126 582L395 518"/>
<path pathLength="2999" clip-path="url(#z38155c5)" d="M248 423L288 460L262 790L282 803L415 652"/>
<path pathLength="2999" clip-path="url(#z38155c6)" d="M578 53L611 96L452 325"/>
<path pathLength="2999" clip-path="url(#z38155c7)" d="M584 207L700 174L734 199L580 392L427 509"/>
<path pathLength="2999" clip-path="url(#z38155c8)" d="M541 260L807 441L967 451"/>
<path pathLength="2999" clip-path="url(#z38155c9)" d="M494 537L760 494"/>
<path pathLength="2999" clip-path="url(#z38155c10)" d="M493 636L762 603"/>
<path pathLength="2999" clip-path="url(#z38155c11)" d="M405 734L840 687L916 699"/>
<path pathLength="2999" clip-path="url(#z38155c12)" d="M587 415L632 455L627 959"/>
</svg>