<!--
AnimCJK 2016-2017 Copyright Francois Mizessyn, http://gooo.free.fr/animCJK/
Derived from:
    MakeMeAHanzi project - https://github.com/skishore/makemeahanzi
    Arphic PL KaitiM GB - https://apps.ubuntu.com/cat/applications/precise/fonts-arphic-gkai00mp/
    Arphic PL UKai - https://apps.ubuntu.com/cat/applications/fonts-arphic-ukai/
You can redistribute and/or modify this file under the terms of the Arphic Public License
as published by Arphic Technology Co., Ltd.
You should have received a copy of this license (the directory "APL") along with this file;
if not, see http://ftp.gnu.org/non-gnu/chinese-fonts-truetype/LICENSE.
-->
<svg id="z38152" class="acjk" version="1.1" viewBox="0 0 1024 1024" xmlns="http://www.w3.org/2000/svg" xmlns:xlink="http://www.w3.org/1999/xlink">
<style>
<![CDATA[
	@keyframes z38152k {
		from {
			stroke:#c00;
			stroke-dashoffset:3000;
		}
		75% {
			stroke:#c00;
			stroke-dashoffset:0;
		}
		to {
			stroke:#000;
		}
	}
	#z38152 path[clip-path] {
		animation:z38152k 1s linear both;
		stroke-dasharray:3000;
		stroke-width:128;
		stroke-linecap:round;
		fill:none;
	}
	#z38152 path[clip-path="url(#z38152c1)"] {animation-delay:1s;}
	#z38152 path[clip-path="url(#z38152c2)"] {animation-delay:2s;}
	#z38152 path[clip-path="url(#z38152c3)"] {animation-delay:3s;}
	#z38152 path[clip-path="url(#z38152c4)"] {animation-delay:4s;}
	#z38152 path[clip-path="url(#z38152c5)"] {animation-delay:5s;}
	#z38152 path[clip-path="url(#z38152c6)"] {animation-delay:6s;}
	#z38152 path[clip-path="url(#z38152c7)"] {animation-delay:7s;}
	#z38152 path[clip-path="url(#z38152c8)"] {animation-delay:8s;}
	#z38152 path[clip-path="url(#z38152c9)"] {animation-delay:9s;}
	#z38152 path[clip-path="url(#z38152c10)"] {animation-delay:10s;}
	#z38152 path[clip-path="url(#z38152c11)"] {animation-delay:11s;}
	#z38152 path[clip-path="url(#z38152c12)"] {animation-delay:12s;}
	#z38152 path {fill:#ccc;}
]]>
</style>
<g transform="scale(1,-1) translate(0,-900)">
	<path id="z38152d1" d="M287 631Q342 727 372 754Q381 764 377 777Q373 790 346 812Q321 830 303 830Q285 829 292 807Q305 774 293 748Q227 601 59 405Q49 396 47 390Q43 380 57 381Q109 390 266 601L287 631Z"/>
	<path id="z38152d2" d="M266 601Q296 598 419 628Q420 629 422 630Q429 639 424 646Q417 656 389 659Q367 662 306 637Q303 637 287 631L266 601Z"/>
	<path id="z38152d3" d="M279 453Q324 469 372 484Q394 491 398 496Q405 503 400 510Q393 520 367 523Q340 524 316 512Q291 500 263 490Q232 480 196 473Q165 464 189 452Q205 446 233 445L279 453Z"/>
	<path id="z38152d4" d="M299 316Q330 326 366 336Q397 346 401 350Q408 357 404 366Q397 376 369 380Q330 386 300 363L256 347Q249 346 244 344Q202 331 153 323Q120 314 146 301Q186 282 235 299Q242 302 256 304L299 316Z"/>
	<path id="z38152d5" d="M256 304Q252 186 229 145Q190 96 231 54Q243 47 253 62Q268 90 400 206Q416 219 420 227Q424 236 415 235Q403 235 299 172Q292 166 291 174Q298 252 299 316L300 363Q300 396 304 414Q310 430 279 453L233 445Q254 399 256 347L256 304Z"/>
	<path id="z38152d6" d="M646 728Q701 752 747 758Q763 759 767 766Q771 775 760 786Q703 829 676 826Q669 822 668 812Q662 776 489 703Q485 696 489 692Q508 692 581 711Q588 712 600 715L646 728Z"/>
	<path id="z38152d7" d="M668 606Q683 609 828 633Q838 632 846 644Q846 654 826 664Q793 682 709 654Q687 650 666 643Q662 642 660 641L614 630Q577 624 545 618Q505 614 459 606Q434 602 454 587Q482 568 523 574Q547 580 577 586L668 606Z"/>
	<path id="z38152d8" d="M660 641Q660 644 661 646Q662 665 676 692Q680 699 671 711Q659 721 646 728L600 715Q613 688 614 630L615 569Q614 496 609 468Q609 461 623 425Q630 412 643 419Q655 431 652 501Q652 544 654 583L660 641Z"/>
	<path id="z38152d9" d="M577 586Q543 507 416 414Q403 404 416 403Q425 402 455 415Q489 428 519 453Q546 475 575 511Q599 539 613 565Q614 568 615 569L614 594L577 586Z"/>
	<path id="z38152d10" d="M654 583Q715 513 783 445Q804 426 838 424Q899 423 963 435Q979 438 981 442Q982 448 970 453Q793 511 720 566Q707 575 694 585Q679 598 668 606L656 603L654 583Z"/>
	<path id="z38152d11" d="M571 342Q626 361 670 368Q686 372 692 366Q696 359 690 345Q668 282 644 258Q634 251 637 238Q641 219 652 211Q662 205 674 214Q716 239 757 245Q779 248 785 239Q792 226 789 200Q782 133 755 81Q748 63 731 57Q713 57 640 86Q613 98 634 70Q671 22 699 -19Q714 -40 735 -30Q769 -14 788 11Q810 38 832 132Q848 193 867 216Q883 232 872 243Q859 256 821 277Q799 286 778 279Q729 264 718 265Q699 265 709 288Q739 345 765 364Q789 377 783 388Q779 398 731 419Q715 426 699 418Q650 391 452 357Q443 358 441 352Q440 345 464 329Q489 313 515 325Q525 329 537 332L571 342Z"/>
	<path id="z38152d12" d="M537 332Q553 295 476 145Q472 139 469 133Q438 88 383 32Q377 28 375 23Q371 16 379 15Q410 12 479 83Q480 86 483 87Q528 138 584 264Q584 265 595 284Q605 294 602 307Q592 325 571 342L537 332Z"/>
	<defs>
		<clipPath id="z38152c1"><use xlink:href="#z38152d1"/></clipPath>
		<clipPath id="z38152c2"><use xlink:href="#z38152d2"/></clipPath>
		<clipPath id="z38152c3"><use xlink:href="#z38152d3"/></clipPath>
		<clipPath id="z38152c4"><use xlink:href="#z38152d4"/></clipPath>
		<clipPath id="z38152c5"><use xlink:href="#z38152d5"/></clipPath>
		<clipPath id="z38152c6"><use xlink:href="#z38152d6"/></clipPath>
		<clipPath id="z38152c7"><use xlink:href="#z38152d7"/></clipPath>
		<clipPath id="z38152c8"><use xlink:href="#z38152d8"/></clipPath>
		<clipPath id="z38152c9"><use xlink:href="#z38152d9"/></clipPath>
		<clipPath id="z38152c10"><use xlink:href="#z38152d10"/></clipPath>
		<clipPath id="z38152c11"><use xlink:href="#z38152d11"/></clipPath>
		<clipPath id="z38152c12"><use xlink:href="#z38152d12"/></clipPath>
	</defs>
	<path pathLength="2999" clip-path="url(#z38152c1)" d="M296 823L333 757L191 537L54 388"/>
	<path pathLength="2999" clip-path="url(#z38152c2)" d="M275 606L418 644"/>
	<path pathLength="2999" clip-path="url(#z38152c3)" d="M184 462L398 507"/>
	<path pathLength="2999" clip-path="url(#z38152c4)" d="M142 313L400 360"/>
	<path pathLength="2999" clip-path="url(#z38152c5)" d="M242 439L277 408L255 104L413 228"/>
	<path pathLength="2999" clip-path="url(#z38152c6)" d="M762 769L681 784L495 699"/>
	<path pathLength="2999" clip-path="url(#z38152c7)" d="M452 599L837 645"/>
	<path pathLength="2999" clip-path="url(#z38152c8)" d="M607 712L643 688L634 421"/>
	<path pathLength="2999" clip-path="url(#z38152c9)" d="M607 585L513 471L421 410"/>
	<path pathLength="2999" clip-path="url(#z38152c10)" d="M661 596L817 469L974 444"/>
	<path pathLength="2999" clip-path="url(#z38152c11)" d="M449 350L501 343L701 394L730 383L675 254L689 237L796 262L831 231L788 81L767 39L722 13L631 82"/>
	<path pathLength="2999" clip-path="url(#z38152c12)" d="M543 327L568 288L512 168L459 89L379 24"/>
</g>
</svg>