<!--
AnimCJK 2016-2019 Copyright Francois Mizessyn - https://github.com/parsimonhi/animCJK
Derived from:
    MakeMeAHanzi project - https://github.com/skishore/makemeahanzi
    Arphic PL KaitiM GB font
    Arphic PL UKai font
You can redistribute and/or modify this file under the terms of the Arphic Public License
as published by Arphic Technology Co., Ltd.
You should have received a copy of this license along with this file.
If not, see http://ftp.gnu.org/non-gnu/chinese-fonts-truetype/LICENSE.
-->
<svg id="z38163" class="acjk" version="1.1" viewBox="0 0 1024 1024" xmlns="http://www.w3.org/2000/svg" xmlns:xlink="http://www.w3.org/1999/xlink">
<style>
<![CDATA[
@keyframes zk {
	to {
		stroke-dashoffset:0;
	}
}
svg.acjk path[clip-path] {
	--t:0.8s;
	animation:zk var(--t) linear forwards var(--d);
	stroke-dasharray:3337;
	stroke-dashoffset:3339;
	stroke-width:128;
	stroke-linecap:round;
	fill:none;
	stroke:#000;
}
svg.acjk path[id] {fill:#ccc;}
]]>
</style>
<path id="z38163d1" d="M298 260Q329 196 366 160Q375 150 370 136Q366 123 338 100Q311 82 293 83Q274 84 282 106Q297 137 285 165Q248 256 191 340Q137 421 63 510Q53 520 50 526Q47 536 61 534Q113 525 274 297Q277 291 280 288C292 269 292 269 298 260Z"/>
<path id="z38163d2" d="M280 288Q307 297 387 282Q456 266 464 262Q471 255 467 247Q460 237 433 231Q429 230 298 260C287 262 269 286 280 288Z"/>
<path id="z38163d3" d="M291 437Q300 433 400 403Q422 396 426 391Q433 382 428 375Q421 365 391 361Q361 358 334 373Q309 385 281 394Q250 404 213 411Q179 421 205 434Q220 440 247 445C262 448 277 443 291 437Z"/>
<path id="z38163d4" d="M317 571Q344 561 377 553Q408 543 413 538Q420 531 416 522Q409 512 381 508Q365 507 317 522C286 535 286 535 270 542Q261 543 252 547Q209 560 157 569Q124 578 150 591Q190 610 239 593Q254 589 272 584C302 575 302 575 317 571Z"/>
<path id="z38163d5" d="M272 584Q272 719 239 771Q196 813 241 860C242 861 242 861 243 861Q256 868 267 853Q282 825 422 710Q440 698 444 690Q448 680 438 680Q423 681 320 739Q310 745 308 735Q315 644 317 571C317 538 317 538 317 522Q317 498 322 480Q326 467 318 457Q305 444 291 437C278 429 241 431 247 445Q268 488 270 542C271 570 271 570 272 584Z"/>
<path id="z38163d6" d="M754 326Q776 224 812 194Q828 175 812 159Q796 147 744 126Q726 119 706 128Q637 161 539 177Q523 178 525 188Q529 195 546 201Q561 207 630 192Q714 174 719 179Q737 197 708 323C705 338 751 341 754 326Z"/>
<path id="z38163d7" d="M522 279Q506 283 526 297Q535 301 551 299Q630 283 688 272Q710 268 701 255Q691 242 667 239Q643 238 522 279Z"/>
<path id="z38163d8" d="M708 323Q704 323 703 324Q607 354 529 368Q510 372 523 388Q538 403 564 398Q628 379 769 359Q779 358 781 348Q781 341 754 326C741 318 723 320 708 323Z"/>
<path id="z38163d9" d="M495 464Q477 437 464 431Q460 427 455 432Q451 435 451 446Q458 474 433 540Q420 570 441 603Q448 613 453 605Q459 604 466 588Q470 581 476 555Q486 512 494 495C498 485 501 472 495 464Z"/>
<path id="z38163d10" d="M494 495Q512 502 545 492Q668 459 781 436Q812 432 815 446Q815 461 787 517Q780 532 787 535Q794 539 805 527Q875 470 903 459Q925 452 924 439Q923 427 853 395Q832 386 808 393Q732 415 668 431Q595 446 495 464C485 466 484 493 494 495Z"/>
<path id="z38163d11" d="M668 773Q705 721 739 638Q752 610 772 591Q791 576 778 563Q765 550 734 539Q712 532 684 544Q659 554 624 565Q590 575 531 583Q518 584 513 590Q509 597 527 605Q563 618 611 604Q657 586 666 586Q688 589 682 613Q666 686 634 736Q633 737 630 741C614 762 614 762 606 772Q546 835 432 868Q419 872 430 881Q436 885 475 883Q559 876 637 807C658 784 658 784 668 773Z"/>
<path id="z38163d12" d="M637 807Q682 858 762 924Q787 942 844 931Q929 913 946 907Q953 900 941 892Q928 885 812 853Q745 832 668 773C643 752 643 752 630 741Q596 710 560 672Q541 651 511 648Q501 647 492 653Q488 660 496 666Q529 684 597 762Q600 766 606 772C627 795 627 795 637 807Z"/>
<defs>
	<clipPath id="z38163c1"><use xlink:href="#z38163d1"/></clipPath>
	<clipPath id="z38163c2"><use xlink:href="#z38163d2"/></clipPath>
	<clipPath id="z38163c3"><use xlink:href="#z38163d3"/></clipPath>
	<clipPath id="z38163c4"><use xlink:href="#z38163d4"/></clipPath>
	<clipPath id="z38163c5"><use xlink:href="#z38163d5"/></clipPath>
	<clipPath id="z38163c6"><use xlink:href="#z38163d6"/></clipPath>
	<clipPath id="z38163c7"><use xlink:href="#z38163d7"/></clipPath>
	<clipPath id="z38163c8"><use xlink:href="#z38163d8"/></clipPath>
	<clipPath id="z38163c9"><use xlink:href="#z38163d9"/></clipPath>
	<clipPath id="z38163c10"><use xlink:href="#z38163d10"/></clipPath>
	<clipPath id="z38163c11"><use xlink:href="#z38163d11"/></clipPath>
	<clipPath id="z38163c12"><use xlink:href="#z38163d12"/></clipPath>
</defs>
<path style="--d:1s;" pathLength="3333" clip-path="url(#z38163c1)" d="M288 92L328 155L182 388L55 527"/>
<path style="--d:2s;" pathLength="3333" clip-path="url(#z38163c2)" d="M292 285L462 252"/>
<path style="--d:3s;" pathLength="3333" clip-path="url(#z38163c3)" d="M202 421L423 387"/>
<path style="--d:4s;" pathLength="3333" clip-path="url(#z38163c4)" d="M146 578L413 524"/>
<path style="--d:5s;" pathLength="3333" clip-path="url(#z38163c5)" d="M256 447L293 484L264 804L436 685"/>
<path style="--d:6s;" pathLength="3333" clip-path="url(#z38163c6)" d="M534 186L747 160L773 189L721 323"/>
<path style="--d:7s;" pathLength="3333" clip-path="url(#z38163c7)" d="M521 286L697 258"/>
<path style="--d:8s;" pathLength="3333" clip-path="url(#z38163c8)" d="M524 376L773 348"/>
<path style="--d:9s;" pathLength="3333" clip-path="url(#z38163c9)" d="M461 437L473 478L451 602"/>
<path style="--d:10s;" pathLength="3333" clip-path="url(#z38163c10)" d="M501 489L821 414L870 448L791 529"/>
<path style="--d:11s;" pathLength="3333" clip-path="url(#z38163c11)" d="M521 593L688 564L732 588L617 793L523 854L436 876"/>
<path style="--d:12s;" pathLength="3333" clip-path="url(#z38163c12)" d="M498 657L784 888L942 899"/>
</svg>