<!--
AnimCJK 2016-2019 Copyright Francois Mizessyn - https://github.com/parsimonhi/animCJK
Derived from:
    MakeMeAHanzi project - https://github.com/skishore/makemeahanzi
    Arphic PL KaitiM GB font
    Arphic PL UKai font
You can redistribute and/or modify this file under the terms of the Arphic Public License
as published by Arphic Technology Co., Ltd.
You should have received a copy of this license along with this file.
If not, see http://ftp.gnu.org/non-gnu/chinese-fonts-truetype/LICENSE.
-->
<svg id="z38164" class="acjk" version="1.1" viewBox="0 0 1024 1024" xmlns="http://www.w3.org/2000/svg" xmlns:xlink="http://www.w3.org/1999/xlink">
<style>
<![CDATA[
@keyframes zk {
	to {
		stroke-dashoffset:0;
	}
}
svg.acjk path[clip-path] {
	--t:0.8s;
	animation:zk var(--t) linear forwards var(--d);
	stroke-dasharray:3337;
	stroke-dashoffset:3339;
	stroke-width:128;
	stroke-linecap:round;
	fill:none;
	stroke:#000;
}
svg.acjk path[id] {fill:#ccc;}
]]>
</style>
<path id="z38164d1" d="M298 252Q311 233 324 211Q351 163 374 140Q383 130 378 116Q374 103 346 80Q319 62 301 63Q282 64 290 86Q305 117 293 145Q256 236 199 320Q145 401 71 490Q61 500 58 506Q55 516 69 514Q123 505 275 288Q276 284 280 280C292 261 292 261 298 252Z"/>
<path id="z38164d2" d="M280 280Q307 289 387 274Q456 258 464 254Q471 247 467 239Q460 229 433 223Q429 222 298 252C287 254 269 278 280 280Z"/>
<path id="z38164d3" d="M297 425Q300 422 404 393Q426 387 429 383Q436 376 432 367Q425 357 395 352Q374 349 290 380Q257 389 222 395Q188 404 214 418Q227 425 248 428C264 431 282 431 297 425Z"/>
<path id="z38164d4" d="M317 555Q350 543 385 533Q416 523 422 518Q429 509 424 502Q417 492 389 488Q361 485 317 507C288 519 288 519 273 525Q266 526 260 529Q217 542 165 553Q132 562 157 575Q199 593 247 576Q259 572 274 568C303 559 303 559 317 555Z"/>
<path id="z38164d5" d="M274 568Q270 680 246 721Q212 770 253 807Q265 814 275 798Q285 773 397 666Q413 653 416 645Q419 636 411 637Q396 638 318 687Q312 691 310 686Q316 614 317 555C317 523 317 523 317 507Q317 482 321 462Q325 444 297 425C284 415 242 413 248 428Q269 470 273 525C274 554 274 554 274 568Z"/>
<path id="z38164d6" d="M788 286Q807 232 835 212Q850 194 835 178Q819 166 770 144Q754 137 733 146Q682 170 560 201C550 203 560 233 571 231Q586 227 721 193Q739 187 746 195Q753 201 752 215Q746 251 739 281C736 297 782 301 788 286Z"/>
<path id="z38164d7" d="M555 356Q565 356 579 355Q649 337 801 319Q811 318 812 308Q812 301 788 286C774 278 755 281 739 281Q738 280 735 281Q638 309 558 324C547 326 544 356 555 356Z"/>
<path id="z38164d8" d="M515 577Q531 510 537 486C540 471 540 471 541 463Q550 408 555 356C557 335 557 335 558 324Q559 297 563 272Q564 236 571 231C576 222 568 208 560 201Q518 168 494 176Q482 183 489 196Q505 221 507 284Q506 297 506 315Q500 477 459 608Q425 708 346 834Q342 841 339 847Q338 857 347 855Q374 851 451 731Q466 703 481 671Q497 631 512 587C514 580 514 580 515 577Z"/>
<path id="z38164d9" d="M537 486Q565 490 741 458Q822 442 833 454Q845 482 834 628Q822 742 789 801Q776 828 760 829Q748 830 689 807Q679 803 679 808Q678 812 688 822Q724 868 739 900Q746 919 759 920Q775 921 793 905Q856 857 877 735Q893 653 905 524Q906 496 926 474Q939 461 939 452Q938 445 918 430Q891 411 856 399Q835 392 762 415Q749 416 735 422Q666 440 541 463C533 465 529 486 537 486Z"/>
<path id="z38164d10" d="M560 585Q550 581 528 576Q518 573 515 577C512 578 511 584 512 587Q512 590 516 596Q538 645 551 726Q552 750 567 766Q580 785 586 772Q590 756 588 730C585 711 585 711 584 701Q574 631 573 609C573 600 568 588 560 585Z"/>
<path id="z38164d11" d="M714 682Q727 621 746 603Q765 579 744 568Q728 558 703 543Q687 534 669 544Q647 559 619 568Q594 575 560 585C551 588 565 612 573 609Q589 603 650 589Q671 585 676 593Q683 597 678 625Q674 647 669 675C667 690 711 697 714 682Z"/>
<path id="z38164d12" d="M588 730Q589 729 591 730Q601 731 613 728Q647 719 723 709Q733 708 733 699Q733 692 714 682C701 674 684 672 669 675Q665 676 660 678Q617 693 584 701C574 703 578 730 588 730Z"/>
<defs>
	<clipPath id="z38164c1"><use xlink:href="#z38164d1"/></clipPath>
	<clipPath id="z38164c2"><use xlink:href="#z38164d2"/></clipPath>
	<clipPath id="z38164c3"><use xlink:href="#z38164d3"/></clipPath>
	<clipPath id="z38164c4"><use xlink:href="#z38164d4"/></clipPath>
	<clipPath id="z38164c5"><use xlink:href="#z38164d5"/></clipPath>
	<clipPath id="z38164c6"><use xlink:href="#z38164d6"/></clipPath>
	<clipPath id="z38164c7"><use xlink:href="#z38164d7"/></clipPath>
	<clipPath id="z38164c8"><use xlink:href="#z38164d8"/></clipPath>
	<clipPath id="z38164c9"><use xlink:href="#z38164d9"/></clipPath>
	<clipPath id="z38164c10"><use xlink:href="#z38164d10"/></clipPath>
	<clipPath id="z38164c11"><use xlink:href="#z38164d11"/></clipPath>
	<clipPath id="z38164c12"><use xlink:href="#z38164d12"/></clipPath>
</defs>
<path style="--d:1s;" pathLength="3333" clip-path="url(#z38164c1)" d="M295 68L332 105L330 144L207 346L65 508"/>
<path style="--d:2s;" pathLength="3333" clip-path="url(#z38164c2)" d="M292 277L462 244"/>
<path style="--d:3s;" pathLength="3333" clip-path="url(#z38164c3)" d="M209 406L428 367"/>
<path style="--d:4s;" pathLength="3333" clip-path="url(#z38164c4)" d="M153 563L421 509"/>
<path style="--d:5s;" pathLength="3333" clip-path="url(#z38164c5)" d="M256 431L292 464L273 749L408 644"/>
<path style="--d:6s;" pathLength="3333" clip-path="url(#z38164c6)" d="M567 204L764 172L797 204L756 282"/>
<path style="--d:7s;" pathLength="3333" clip-path="url(#z38164c7)" d="M563 348L734 304L807 309"/>
<path style="--d:8s;" pathLength="3333" clip-path="url(#z38164c8)" d="M496 186L535 231L509 504L448 691L347 848"/>
<path style="--d:9s;" pathLength="3333" clip-path="url(#z38164c9)" d="M543 479L824 424L885 458L821 812L758 874L687 815"/>
<path style="--d:10s;" pathLength="3333" clip-path="url(#z38164c10)" d="M520 583L550 617L579 771"/>
<path style="--d:11s;" pathLength="3333" clip-path="url(#z38164c11)" d="M567 587L682 564L716 586L680 676"/>
<path style="--d:12s;" pathLength="3333" clip-path="url(#z38164c12)" d="M592 722L725 699"/>
</svg>