<!--
AnimCJK 2016-2018 Copyright Francois Mizessyn, http://gooo.free.fr/animCJK/
Derived from:
    MakeMeAHanzi project - https://github.com/skishore/makemeahanzi
    Arphic PL KaitiM GB - https://apps.ubuntu.com/cat/applications/precise/fonts-arphic-gkai00mp/
    Arphic PL UKai - https://apps.ubuntu.com/cat/applications/fonts-arphic-ukai/
You can redistribute and/or modify this file under the terms of the Arphic Public License
as published by Arphic Technology Co., Ltd.
You should have received a copy of this license (the directory "APL") along with this file;
if not, see http://ftp.gnu.org/non-gnu/chinese-fonts-truetype/LICENSE.
-->
<svg id="z38183" class="acjk" version="1.1" viewBox="0 0 1024 1024" xmlns="http://www.w3.org/2000/svg" xmlns:xlink="http://www.w3.org/1999/xlink">
<style>
<![CDATA[
@keyframes z38183k {
	from {
		stroke:#ccc;
		stroke-dashoffset:3334;
	}
	1% {
		stroke:#c00;
		stroke-dashoffset:3334;
	}
	75% {
		stroke:#c00;
		stroke-dashoffset:0;
	}
	to {
		stroke:#000;
	}
}
#z38183 path[clip-path] {
	animation:z38183k 1s linear both;
	stroke-dasharray:3334;
	stroke-width:128;
	stroke-linecap:round;
	fill:none;
}
#z38183 path[clip-path="url(#z38183c1)"] {animation-delay:1s;}
#z38183 path[clip-path="url(#z38183c2)"] {animation-delay:2s;}
#z38183 path[clip-path="url(#z38183c3)"] {animation-delay:3s;}
#z38183 path[clip-path="url(#z38183c4)"] {animation-delay:4s;}
#z38183 path[clip-path="url(#z38183c5)"] {animation-delay:5s;}
#z38183 path[clip-path="url(#z38183c6)"] {animation-delay:6s;}
#z38183 path[clip-path="url(#z38183c7)"] {animation-delay:7s;}
#z38183 path[clip-path="url(#z38183c8)"] {animation-delay:8s;}
#z38183 path[clip-path="url(#z38183c9)"] {animation-delay:9s;}
#z38183 path[clip-path="url(#z38183c10)"] {animation-delay:10s;}
#z38183 path[clip-path="url(#z38183c11)"] {animation-delay:11s;}
#z38183 path[clip-path="url(#z38183c12)"] {animation-delay:12s;}
#z38183 path[clip-path="url(#z38183c13)"] {animation-delay:13s;}
#z38183 path {fill:#ccc;}
]]>
</style>
<path id="z38183d1" d="M311 276Q365 185 396 158Q406 148 402 133Q398 120 370 96Q343 77 324 76Q305 77 312 100Q322 130 306 175Q227 335 64 517Q54 527 51 533Q47 545 61 542Q110 535 285 312Q288 308 291 304L311 276 Z"/>
<path id="z38183d2" d="M 291,304 C 321,314 350,313 381,303 406,294 423,291 450,284 462,280 470,277 472,275 476,270 477,264 474,259 469,252 457,247 437,244 421,241 380,257 350,266 336,269 323,272 311,276 Z"/>
<path id="z38183d3" d="M 290,466 C 378,438 424,422 428,418 432,412 433,406 430,402 425,395 413,391 395,389 376,388 358,392 341,401 322,409 302,417 282,425 259,433 234,439 206,445 185,451 183,459 199,467 213,471 230,474 250,475 Z"/>
<path id="z38183d4" d="M 316,602 C 340,593 366,585 393,579 415,572 428,567 431,563 435,558 436,553 434,547 429,540 417,535 397,532 381,530 354,536 317,552 L 272,569 C 208,583 172,592 164,595 141,601 138,608 156,618 184,630 216,631 251,620 257,618 265,616 273,614 Z"/>
<path id="z38183d5" d="M 273,614 C 270,698 257,756 235,789 214,815 216,842 242,869 250,873 257,871 265,862 275,843 310,815 409,737 419,729 426,722 430,717 432,711 431,708 425,708 412,708 389,710 316,754 309,758 305,756 305,750 309,696 313,646 316,602 L 317,552 C 317,536 318,522 322,510 324,502 323,494 318,488 309,479 300,472 290,466 L 250,475 C 262,503 270,535 272,569 Z"/>
<path id="z38183d6" d="M 710,197 C 754,176 795,162 831,156 841,155 847,153 849,149 851,142 849,135 842,129 806,103 779,91 761,93 756,95 753,99 753,106 753,126 692,164 572,220 L 582,236 C 598,231 620,224 648,216 660,212 673,208 687,205 Z"/>
<path id="z38183d7" d="M 572,220 C 563,211 551,203 535,197 523,190 513,188 505,192 498,196 497,203 501,212 513,230 517,257 519,294 523,425 510,528 485,619 465,686 429,770 384,843 381,847 378,851 377,855 375,861 379,864 385,863 407,858 483,748 509,681 549,576 558,467 566,352 569,295 574,261 578,250 580,245 582,240 582,236 Z"/>
<path id="z38183d8" d="M 750,324 C 846,300 895,288 897,288 901,283 903,278 901,274 896,267 885,262 869,258 853,254 815,262 755,282 L 705,294 C 674,300 641,304 606,308 585,310 582,317 597,328 619,340 650,342 692,334 696,333 701,332 707,332 Z"/>
<path id="z38183d9" d="M 740,402 C 742,385 746,344 750,324 L 755,282 C 756,270 759,257 762,251 763,245 765,239 767,235 768,230 766,222 755,215 737,203 721,198 710,197 L 687,205 C 686,207 686,212 690,217 697,228 702,237 703,246 703,260 704,276 705,294 L 707,332 C 707,348 707,366 707,412 Z"/>
<path id="z38183d10" d="M 633,423 C 621,413 608,406 595,403 590,402 586,404 582,408 581,410 582,415 586,422 606,464 603,553 590,630 585,657 577,679 599,710 599,710 599,711 601,713 607,719 612,719 618,713 631,696 639,662 639,609 639,522 641,468 645,448 Z"/>
<path id="z38183d11" d="M 815,635 C 810,647 812,660 820,673 828,689 834,697 840,697 848,696 857,686 866,668 874,653 878,640 877,628 864,531 867,468 885,440 891,431 892,423 888,417 871,403 849,390 822,379 813,376 802,377 788,382 L 740,402 707,412 C 680,416 655,420 633,423 L 645,448 C 647,448 651,447 656,447 746,427 796,419 806,424 810,434 814,454 817,482 819,566 819,617 815,635 Z"/>
<path id="z38183d12" d="M 699,546 C 704,666 691,745 664,786 643,816 594,849 514,879 507,881 502,881 500,884 497,886 499,890 508,891 552,896 614,887 672,840 738,785 738,719 742,618 744,568 748,535 754,520 756,513 755,509 751,505 741,496 726,488 708,482 695,477 685,476 677,480 667,483 666,490 675,499 689,513 698,529 699,546 Z"/>
<path id="z38183d13" d="M 767,760 C 793,792 823,830 855,876 863,890 872,900 882,904 888,906 893,904 899,898 907,890 910,871 906,842 904,815 881,789 837,764 809,748 787,736 772,730 767,725 763,727 761,735 759,743 761,752 767,760 Z"/>
<defs>
	<clipPath id="z38183c1"><use xlink:href="#z38183d1"/></clipPath>
	<clipPath id="z38183c2"><use xlink:href="#z38183d2"/></clipPath>
	<clipPath id="z38183c3"><use xlink:href="#z38183d3"/></clipPath>
	<clipPath id="z38183c4"><use xlink:href="#z38183d4"/></clipPath>
	<clipPath id="z38183c5"><use xlink:href="#z38183d5"/></clipPath>
	<clipPath id="z38183c6"><use xlink:href="#z38183d6"/></clipPath>
	<clipPath id="z38183c7"><use xlink:href="#z38183d7"/></clipPath>
	<clipPath id="z38183c8"><use xlink:href="#z38183d8"/></clipPath>
	<clipPath id="z38183c9"><use xlink:href="#z38183d9"/></clipPath>
	<clipPath id="z38183c10"><use xlink:href="#z38183d10"/></clipPath>
	<clipPath id="z38183c11"><use xlink:href="#z38183d11"/></clipPath>
	<clipPath id="z38183c12"><use xlink:href="#z38183d12"/></clipPath>
	<clipPath id="z38183c13"><use xlink:href="#z38183d13"/></clipPath>
</defs>
<path pathLength="3333" clip-path="url(#z38183c1)" d="M318 83L351 119L351 158L213 368L58 536"/>
<path pathLength="3333" clip-path="url(#z38183c2)" d="M 300,301 472,265"/>
<path pathLength="3333" clip-path="url(#z38183c3)" d="M 193,457 425,408"/>
<path pathLength="3333" clip-path="url(#z38183c4)" d="M 153,607 431,549"/>
<path pathLength="3333" clip-path="url(#z38183c5)" d="M 258,481 294,513 272,823 424,715"/>
<path pathLength="3333" clip-path="url(#z38183c6)" d="M 841,142 765,133 579,226"/>
<path pathLength="3333" clip-path="url(#z38183c7)" d="M 509,195 549,249 520,520 483,687 384,855"/>
<path pathLength="3333" clip-path="url(#z38183c8)" d="M 597,316 896,280"/>
<path pathLength="3333" clip-path="url(#z38183c9)" d="M 696,208 734,237 717,407"/>
<path pathLength="3333" clip-path="url(#z38183c10)" d="M 589,413 621,458 611,710"/>
<path pathLength="3333" clip-path="url(#z38183c11)" d="M 641,425 799,400 850,431 838,692"/>
<path pathLength="3333" clip-path="url(#z38183c12)" d="M 675,484 725,524 694,778 629,844 510,887"/>
<path pathLength="3333" clip-path="url(#z38183c13)" d="M 766,739 863,827 885,900"/>
</svg>