<!--
AnimCJK 2016-2019 Copyright Francois Mizessyn - https://github.com/parsimonhi/animCJK
Derived from:
    MakeMeAHanzi project - https://github.com/skishore/makemeahanzi
    Arphic PL KaitiM GB font
    Arphic PL UKai font
You can redistribute and/or modify this file under the terms of the Arphic Public License
as published by Arphic Technology Co., Ltd.
You should have received a copy of this license along with this file.
If not, see http://ftp.gnu.org/non-gnu/chinese-fonts-truetype/LICENSE.
-->
<svg id="z38185" class="acjk" version="1.1" viewBox="0 0 1024 1024" xmlns="http://www.w3.org/2000/svg" xmlns:xlink="http://www.w3.org/1999/xlink">
<style>
<![CDATA[
@keyframes zk {
	to {
		stroke-dashoffset:0;
	}
}
svg.acjk path[clip-path] {
	--t:0.8s;
	animation:zk var(--t) linear forwards var(--d);
	stroke-dasharray:3337;
	stroke-dashoffset:3339;
	stroke-width:128;
	stroke-linecap:round;
	fill:none;
	stroke:#000;
}
svg.acjk path[id] {fill:#ccc;}
]]>
</style>
<path id="z38185d1" d="M272 293Q335 184 352 167Q361 157 355 143Q351 130 322 109Q295 91 276 92Q258 95 267 116Q282 147 270 175Q213 328 58 525Q48 535 46 542Q43 552 57 550Q105 544 252 324Q253 320 257 317C267 301 267 301 272 293Z"/>
<path id="z38185d2" d="M257 317Q296 327 353 314Q384 305 417 297Q435 293 437 290Q444 283 440 274Q433 264 405 260Q387 259 314 282Q293 286 272 293C263 296 248 315 257 317Z"/>
<path id="z38185d3" d="M289 463Q289 462 292 461Q409 424 414 419Q421 410 416 403Q409 393 379 389Q349 386 322 402Q297 412 270 422Q240 432 205 439Q171 449 197 462Q212 468 237 471C254 474 273 471 289 463Z"/>
<path id="z38185d4" d="M305 599Q333 589 367 581Q400 571 405 566Q412 559 408 551Q401 541 373 536Q337 530 306 551C275 563 275 563 259 569Q190 587 142 597Q109 606 134 619Q170 637 240 617Q247 614 260 612C290 603 290 603 305 599Z"/>
<path id="z38185d5" d="M260 612Q256 742 231 784Q186 841 231 881Q243 888 254 872Q270 845 406 734Q424 722 428 714Q432 704 423 704Q407 705 308 759Q298 766 296 755Q303 670 305 599C306 567 306 567 306 551Q306 523 310 500Q314 485 289 463C277 451 230 455 237 471Q258 519 259 569C260 598 260 598 260 612Z"/>
<path id="z38185d6" d="M473 257Q522 311 532 313Q541 313 545 303Q549 293 546 269Q543 253 521 240Q467 215 456 218Q452 219 452 230Q453 239 473 257Z"/>
<path id="z38185d7" d="M734 180Q712 213 667 264Q663 271 667 277Q674 278 681 274Q760 220 799 200Q815 196 812 186Q808 171 790 154Q774 138 753 136Q740 136 741 153Q742 166 734 180Z"/>
<path id="z38185d8" d="M609 378Q750 350 759 342Q766 335 763 327Q756 317 730 310Q702 304 675 315Q647 324 619 333C582 342 582 342 563 347Q523 354 480 358Q446 364 471 379Q507 398 552 391C590 382 590 382 609 378Z"/>
<path id="z38185d9" d="M572 488Q620 473 689 469C709 466 709 466 719 465Q866 455 872 448Q872 447 873 447Q877 437 862 425Q807 392 746 412Q694 424 619 441Q603 444 587 448C548 455 548 455 529 459Q477 468 422 479Q403 483 418 497Q431 509 448 512Q452 512 511 503C552 493 552 493 572 488Z"/>
<path id="z38185d10" d="M509 589Q542 556 572 488C582 461 582 461 587 448Q599 414 609 378C616 348 616 348 619 333Q626 297 632 261Q645 168 664 129Q670 117 662 109Q646 91 611 74Q592 64 574 67Q555 73 568 92Q593 123 591 153Q582 265 563 347C556 376 556 376 552 391Q542 427 529 459C517 488 517 488 511 503Q510 504 509 507Q470 582 376 656Q364 662 362 666Q358 673 373 673Q403 677 485 612Q489 608 493 605C504 594 504 594 509 589Z"/>
<path id="z38185d11" d="M689 469Q749 556 828 647Q843 663 867 661Q949 655 975 649Q982 648 984 643Q984 639 974 633Q869 593 803 541Q763 507 719 465C712 458 683 461 689 469Z"/>
<path id="z38185d12" d="M553 637Q604 619 668 610Q684 607 686 617Q680 701 666 715Q656 718 600 696Q582 684 577 691Q573 695 582 705Q633 751 664 786Q674 799 687 788Q717 763 721 725Q727 652 740 620Q744 604 736 596Q715 574 700 564Q694 561 637 583Q558 602 543 606C532 608 543 641 553 637Z"/>
<path id="z38185d13" d="M872 835Q859 805 840 718Q840 702 833 698Q827 695 823 712Q801 806 784 836Q753 870 651 868Q612 867 582 855Q555 843 549 827Q527 779 553 637C555 626 551 614 543 606Q533 596 515 590Q514 589 509 589C501 589 488 599 493 605Q508 620 503 679Q494 847 526 880Q568 922 695 924Q795 921 867 873Q883 858 872 835Z"/>
<defs>
	<clipPath id="z38185c1"><use xlink:href="#z38185d1"/></clipPath>
	<clipPath id="z38185c2"><use xlink:href="#z38185d2"/></clipPath>
	<clipPath id="z38185c3"><use xlink:href="#z38185d3"/></clipPath>
	<clipPath id="z38185c4"><use xlink:href="#z38185d4"/></clipPath>
	<clipPath id="z38185c5"><use xlink:href="#z38185d5"/></clipPath>
	<clipPath id="z38185c6"><use xlink:href="#z38185d6"/></clipPath>
	<clipPath id="z38185c7"><use xlink:href="#z38185d7"/></clipPath>
	<clipPath id="z38185c8"><use xlink:href="#z38185d8"/></clipPath>
	<clipPath id="z38185c9"><use xlink:href="#z38185d9"/></clipPath>
	<clipPath id="z38185c10"><use xlink:href="#z38185d10"/></clipPath>
	<clipPath id="z38185c11"><use xlink:href="#z38185d11"/></clipPath>
	<clipPath id="z38185c12"><use xlink:href="#z38185d12"/></clipPath>
	<clipPath id="z38185c13"><use xlink:href="#z38185d13"/></clipPath>
</defs>
<path style="--d:1s;" pathLength="3333" clip-path="url(#z38185c1)" d="M273 102L316 158L183 388L53 543"/>
<path style="--d:2s;" pathLength="3333" clip-path="url(#z38185c2)" d="M267 313L436 274"/>
<path style="--d:3s;" pathLength="3333" clip-path="url(#z38185c3)" d="M195 450L411 410"/>
<path style="--d:4s;" pathLength="3333" clip-path="url(#z38185c4)" d="M132 608L404 556"/>
<path style="--d:5s;" pathLength="3333" clip-path="url(#z38185c5)" d="M246 475L282 511L251 820L267 833L421 709"/>
<path style="--d:6s;" pathLength="3333" clip-path="url(#z38185c6)" d="M460 222L520 270L530 308"/>
<path style="--d:7s;" pathLength="3333" clip-path="url(#z38185c7)" d="M752 141L770 189L674 271"/>
<path style="--d:8s;" pathLength="3333" clip-path="url(#z38185c8)" d="M469 366L760 332"/>
<path style="--d:9s;" pathLength="3333" clip-path="url(#z38185c9)" d="M418 487L780 432L868 439"/>
<path style="--d:10s;" pathLength="3333" clip-path="url(#z38185c10)" d="M569 74L627 124L566 432L496 569L373 666"/>
<path style="--d:11s;" pathLength="3333" clip-path="url(#z38185c11)" d="M698 472L858 622L975 643"/>
<path style="--d:12s;" pathLength="3333" clip-path="url(#z38185c12)" d="M552 615L687 587L712 608L693 728L671 753L582 696"/>
<path style="--d:13s;" pathLength="3333" clip-path="url(#z38185c13)" d="M504 603L528 644L527 829L587 884L721 893L812 862L834 837L832 705"/>
</svg>