<!--
AnimCJK 2016-2019 Copyright Francois Mizessyn - https://github.com/parsimonhi/animCJK
Derived from:
    MakeMeAHanzi project - https://github.com/skishore/makemeahanzi
    Arphic PL KaitiM GB font
    Arphic PL UKai font
You can redistribute and/or modify this file under the terms of the Arphic Public License
as published by Arphic Technology Co., Ltd.
You should have received a copy of this license along with this file.
If not, see http://ftp.gnu.org/non-gnu/chinese-fonts-truetype/LICENSE.
-->
<svg id="z38192" class="acjk" version="1.1" viewBox="0 0 1024 1024" xmlns="http://www.w3.org/2000/svg" xmlns:xlink="http://www.w3.org/1999/xlink">
<style>
<![CDATA[
@keyframes zk {
	to {
		stroke-dashoffset:0;
	}
}
svg.acjk path[clip-path] {
	--t:0.8s;
	animation:zk var(--t) linear forwards var(--d);
	stroke-dasharray:3337;
	stroke-dashoffset:3339;
	stroke-width:128;
	stroke-linecap:round;
	fill:none;
	stroke:#000;
}
svg.acjk path[id] {fill:#ccc;}
]]>
</style>
<path id="z38192d1" d="M281 270Q320 195 347 170Q356 160 351 146Q347 134 318 113Q293 95 274 96Q256 99 264 119Q279 150 268 176Q207 329 62 510Q52 520 50 526Q47 536 61 534Q109 528 258 308Q259 304 263 300C275 280 275 280 281 270Z"/>
<path id="z38192d2" d="M263 300Q296 307 385 286Q398 282 416 278Q434 272 437 270Q444 263 440 254Q433 244 405 240Q381 237 313 262Q295 266 281 270C270 272 252 298 263 300Z"/>
<path id="z38192d3" d="M267 451Q330 430 394 408Q401 401 396 394Q389 384 363 381Q336 378 312 391Q288 401 261 411Q231 421 196 427Q165 436 189 448Q202 452 220 456C235 459 252 457 267 451Z"/>
<path id="z38192d4" d="M289 581Q329 566 377 553Q408 543 414 538Q421 529 416 522Q409 512 381 508Q362 505 289 536C260 547 260 547 245 552Q202 564 157 573Q124 582 149 595Q189 611 246 594C275 585 275 585 289 581Z"/>
<path id="z38192d5" d="M246 594Q249 730 205 791Q184 818 224 859Q236 866 247 850Q259 823 381 710Q397 697 400 689Q403 680 394 681Q385 681 290 739Q284 745 282 738Q288 651 289 581C289 551 289 551 289 536Q289 511 293 490Q297 474 267 451C255 441 212 442 220 456Q242 499 245 552C246 580 246 580 246 594Z"/>
<path id="z38192d6" d="M651 304Q754 220 780 212Q799 205 793 189Q790 174 726 140Q707 130 686 139Q637 158 564 180Q545 187 498 186Q476 186 484 205Q491 217 510 228Q540 244 571 225Q586 218 662 183Q675 179 687 185Q699 192 693 206Q668 246 637 295C634 300 647 307 651 304Z"/>
<path id="z38192d7" d="M677 347Q668 316 651 304C642 298 642 298 637 295Q628 289 617 287Q599 283 591 288Q581 295 593 305Q621 323 633 355C638 378 638 378 641 390Q653 456 635 499Q625 521 597 517Q572 513 547 510Q537 509 541 517Q545 524 562 533Q596 558 610 579Q620 594 633 591Q643 590 665 565Q704 517 686 385Q686 384 686 383C680 359 680 359 677 347Z"/>
<path id="z38192d8" d="M686 383Q750 373 841 371Q889 371 896 362Q900 352 886 340Q835 309 779 325Q736 334 677 347C648 352 648 352 633 355Q545 371 442 388Q424 391 438 405Q451 417 466 420Q484 424 498 420Q562 401 635 390Q636 389 641 390C671 385 671 385 686 383Z"/>
<path id="z38192d9" d="M481 620Q481 619 480 618Q470 614 439 608Q429 607 426 610Q422 616 429 629Q457 686 474 780Q475 796 484 812C490 821 517 820 517 809Q517 793 512 769Q494 687 488 653C486 642 490 627 481 620Z"/>
<path id="z38192d10" d="M796 778Q821 676 847 637Q857 627 853 616Q847 601 791 575Q775 568 762 571Q635 599 481 620C470 622 477 653 488 653Q500 654 511 650Q532 644 556 640C567 638 567 638 573 637Q609 628 649 621C670 618 670 618 681 617Q741 602 761 613Q767 617 767 635Q758 696 739 786C735 805 792 797 796 778Z"/>
<path id="z38192d11" d="M603 801Q604 798 605 796Q612 742 583 651Q580 642 573 637C569 633 556 634 556 640Q559 676 564 713Q567 779 586 803C590 807 601 806 603 801Z"/>
<path id="z38192d12" d="M667 794Q682 755 696 700Q700 681 713 654Q722 642 713 636Q703 626 681 617C671 613 647 610 649 621Q648 625 652 630Q668 661 644 785Q643 789 642 796C641 804 664 802 667 794Z"/>
<path id="z38192d13" d="M484 812Q417 816 344 824Q325 825 339 842Q351 855 368 860Q387 866 402 862Q642 808 935 828Q936 827 938 828Q957 829 961 821Q967 811 952 797Q900 755 837 771Q818 772 796 778C758 783 758 783 739 786Q705 787 667 794C650 795 650 795 642 796Q636 796 633 797Q618 798 603 801C592 802 592 802 586 803Q552 804 517 809C495 811 495 811 484 812Z"/>
<defs>
	<clipPath id="z38192c1"><use xlink:href="#z38192d1"/></clipPath>
	<clipPath id="z38192c2"><use xlink:href="#z38192d2"/></clipPath>
	<clipPath id="z38192c3"><use xlink:href="#z38192d3"/></clipPath>
	<clipPath id="z38192c4"><use xlink:href="#z38192d4"/></clipPath>
	<clipPath id="z38192c5"><use xlink:href="#z38192d5"/></clipPath>
	<clipPath id="z38192c6"><use xlink:href="#z38192d6"/></clipPath>
	<clipPath id="z38192c7"><use xlink:href="#z38192d7"/></clipPath>
	<clipPath id="z38192c8"><use xlink:href="#z38192d8"/></clipPath>
	<clipPath id="z38192c9"><use xlink:href="#z38192d9"/></clipPath>
	<clipPath id="z38192c10"><use xlink:href="#z38192d10"/></clipPath>
	<clipPath id="z38192c11"><use xlink:href="#z38192d11"/></clipPath>
	<clipPath id="z38192c12"><use xlink:href="#z38192d12"/></clipPath>
	<clipPath id="z38192c13"><use xlink:href="#z38192d13"/></clipPath>
</defs>
<path style="--d:1s;" pathLength="3333" clip-path="url(#z38192c1)" d="M268 103L312 158L177 388L56 526"/>
<path style="--d:2s;" pathLength="3333" clip-path="url(#z38192c2)" d="M268 296L437 261"/>
<path style="--d:3s;" pathLength="3333" clip-path="url(#z38192c3)" d="M184 436L393 400"/>
<path style="--d:4s;" pathLength="3333" clip-path="url(#z38192c4)" d="M149 585L413 528"/>
<path style="--d:5s;" pathLength="3333" clip-path="url(#z38192c5)" d="M230 460L266 511L242 797L265 801L393 687"/>
<path style="--d:6s;" pathLength="3333" clip-path="url(#z38192c6)" d="M488 198L540 210L674 162L714 167L744 198L646 298"/>
<path style="--d:7s;" pathLength="3333" clip-path="url(#z38192c7)" d="M595 293L654 348L664 495L616 554L550 514"/>
<path style="--d:8s;" pathLength="3333" clip-path="url(#z38192c8)" d="M441 398L798 346L893 355"/>
<path style="--d:9s;" pathLength="3333" clip-path="url(#z38192c9)" d="M432 617L460 637L502 810"/>
<path style="--d:10s;" pathLength="3333" clip-path="url(#z38192c10)" d="M490 625L784 599L810 629L768 774L747 777"/>
<path style="--d:11s;" pathLength="3333" clip-path="url(#z38192c11)" d="M564 643L590 798"/>
<path style="--d:12s;" pathLength="3333" clip-path="url(#z38192c12)" d="M657 626L687 656L650 789"/>
<path style="--d:13s;" pathLength="3333" clip-path="url(#z38192c13)" d="M340 831L868 795L958 811"/>
</svg>