<!--
AnimCJK 2016-2019 Copyright Francois Mizessyn - https://github.com/parsimonhi/animCJK
Derived from:
    MakeMeAHanzi project - https://github.com/skishore/makemeahanzi
    Arphic PL KaitiM GB font
    Arphic PL UKai font
You can redistribute and/or modify this file under the terms of the Arphic Public License
as published by Arphic Technology Co., Ltd.
You should have received a copy of this license along with this file.
If not, see http://ftp.gnu.org/non-gnu/chinese-fonts-truetype/LICENSE.
-->
<svg id="z38198" class="acjk" version="1.1" viewBox="0 0 1024 1024" xmlns="http://www.w3.org/2000/svg" xmlns:xlink="http://www.w3.org/1999/xlink">
<style>
<![CDATA[
@keyframes zk {
	to {
		stroke-dashoffset:0;
	}
}
svg.acjk path[clip-path] {
	--t:0.8s;
	animation:zk var(--t) linear forwards var(--d);
	stroke-dasharray:3337;
	stroke-dashoffset:3339;
	stroke-width:128;
	stroke-linecap:round;
	fill:none;
	stroke:#000;
}
svg.acjk path[id] {fill:#ccc;}
]]>
</style>
<path id="z38198d1" d="M294 267Q342 183 366 160Q375 150 370 136Q366 123 338 100Q311 82 293 83Q274 84 282 106Q297 137 285 165Q248 256 191 340Q137 421 63 510Q53 520 50 526Q47 536 61 534Q118 525 271 302Q272 298 276 294C288 276 288 276 294 267Z"/>
<path id="z38198d2" d="M276 294Q315 306 359 291Q390 282 424 273Q440 269 442 266Q449 257 444 250Q437 240 409 237Q390 236 294 267C284 271 265 292 276 294Z"/>
<path id="z38198d3" d="M291 437Q300 433 400 403Q422 396 426 391Q433 382 428 375Q421 365 391 361Q361 358 334 373Q309 385 281 394Q250 404 213 411Q179 421 205 434Q220 440 247 445C262 448 277 443 291 437Z"/>
<path id="z38198d4" d="M317 571Q344 561 377 553Q408 543 413 538Q420 531 416 522Q409 512 381 508Q365 507 317 522C286 535 286 535 270 542Q261 543 252 547Q209 560 157 569Q124 578 150 591Q190 610 239 593Q254 589 272 584C302 575 302 575 317 571Z"/>
<path id="z38198d5" d="M272 584Q272 719 239 771Q196 813 241 860C242 861 242 861 243 861Q256 868 267 853Q282 825 422 710Q440 698 444 690Q448 680 438 680Q423 681 320 739Q310 745 308 735Q315 644 317 571C317 538 317 538 317 522Q317 498 322 480Q326 467 318 457Q305 444 291 437C278 429 241 431 247 445Q268 488 270 542C271 570 271 570 272 584Z"/>
<path id="z38198d6" d="M515 268Q493 255 470 250Q464 247 460 252Q453 258 462 268Q504 334 515 496Q516 547 551 575Q552 576 555 578Q571 582 572 554Q572 550 571 547C569 528 569 528 568 519Q544 389 536 300C534 287 526 274 515 268Z"/>
<path id="z38198d7" d="M748 524Q767 555 785 563Q795 570 810 549Q828 515 858 337Q865 306 889 281Q901 268 890 255Q874 239 832 214Q817 208 737 225Q728 225 607 249Q556 259 515 268C502 271 524 304 536 300Q536 299 538 299Q577 287 636 277C657 273 657 273 668 271Q780 249 795 262Q811 281 808 301Q778 488 759 504C754 509 743 518 748 524Z"/>
<path id="z38198d8" d="M691 406Q721 399 748 395Q770 391 761 379Q751 366 727 362Q714 361 694 365C663 375 663 375 648 380Q608 392 574 404Q558 408 578 421Q581 424 647 415C676 409 676 409 691 406Z"/>
<path id="z38198d9" d="M684 494Q687 446 691 406C693 379 693 379 694 365Q697 323 699 321Q706 305 698 296Q682 280 668 271C659 265 633 267 636 277Q648 307 648 380C647 403 647 403 647 415Q646 451 646 504C646 517 684 507 684 494Z"/>
<path id="z38198d10" d="M571 547Q578 548 589 546Q638 534 748 524C756 523 764 509 759 504Q755 498 742 490Q721 480 684 494C659 501 659 501 646 504Q601 513 568 519C559 521 562 547 571 547Z"/>
<path id="z38198d11" d="M474 645Q453 709 421 767Q405 795 422 825Q429 841 447 829Q495 784 499 695Q502 667 495 644Q491 637 485 637Q478 638 474 645Z"/>
<path id="z38198d12" d="M935 838Q934 828 918 809Q893 781 831 691Q827 684 821 683Q818 683 819 690Q826 733 832 782Q833 801 820 811Q795 826 712 808Q643 790 612 738Q594 699 583 658Q577 634 559 624Q544 615 539 622Q535 626 541 642Q548 660 563 709Q590 814 679 855Q685 856 693 860Q820 908 923 851Q936 845 935 838Z"/>
<path id="z38198d13" d="M665 633Q689 655 714 683Q724 695 739 695Q748 695 753 683Q757 670 752 645Q748 626 720 612Q657 585 644 589Q640 593 640 604Q643 614 665 633Z"/>
<path id="z38198d14" d="M859 610Q893 644 930 685Q940 697 954 698Q964 698 969 687Q975 675 969 648Q966 624 932 602Q859 560 840 565Q836 568 836 580Q837 590 859 610Z"/>
<defs>
	<clipPath id="z38198c1"><use xlink:href="#z38198d1"/></clipPath>
	<clipPath id="z38198c2"><use xlink:href="#z38198d2"/></clipPath>
	<clipPath id="z38198c3"><use xlink:href="#z38198d3"/></clipPath>
	<clipPath id="z38198c4"><use xlink:href="#z38198d4"/></clipPath>
	<clipPath id="z38198c5"><use xlink:href="#z38198d5"/></clipPath>
	<clipPath id="z38198c6"><use xlink:href="#z38198d6"/></clipPath>
	<clipPath id="z38198c7"><use xlink:href="#z38198d7"/></clipPath>
	<clipPath id="z38198c8"><use xlink:href="#z38198d8"/></clipPath>
	<clipPath id="z38198c9"><use xlink:href="#z38198d9"/></clipPath>
	<clipPath id="z38198c10"><use xlink:href="#z38198d10"/></clipPath>
	<clipPath id="z38198c11"><use xlink:href="#z38198d11"/></clipPath>
	<clipPath id="z38198c12"><use xlink:href="#z38198d12"/></clipPath>
	<clipPath id="z38198c13"><use xlink:href="#z38198d13"/></clipPath>
	<clipPath id="z38198c14"><use xlink:href="#z38198d14"/></clipPath>
</defs>
<path style="--d:1s;" pathLength="3333" clip-path="url(#z38198c1)" d="M288 93L327 156L187 383L55 527"/>
<path style="--d:2s;" pathLength="3333" clip-path="url(#z38198c2)" d="M284 290L441 258"/>
<path style="--d:3s;" pathLength="3333" clip-path="url(#z38198c3)" d="M202 421L423 387"/>
<path style="--d:4s;" pathLength="3333" clip-path="url(#z38198c4)" d="M146 578L413 524"/>
<path style="--d:5s;" pathLength="3333" clip-path="url(#z38198c5)" d="M256 447L293 484L264 804L436 685"/>
<path style="--d:6s;" pathLength="3333" clip-path="url(#z38198c6)" d="M465 257L510 309L557 572"/>
<path style="--d:7s;" pathLength="3333" clip-path="url(#z38198c7)" d="M524 272L781 236L842 264L783 560"/>
<path style="--d:8s;" pathLength="3333" clip-path="url(#z38198c8)" d="M575 411L758 384"/>
<path style="--d:9s;" pathLength="3333" clip-path="url(#z38198c9)" d="M645 279L673 311L661 499"/>
<path style="--d:10s;" pathLength="3333" clip-path="url(#z38198c10)" d="M575 540L754 509"/>
<path style="--d:11s;" pathLength="3333" clip-path="url(#z38198c11)" d="M485 642L436 829"/>
<path style="--d:12s;" pathLength="3333" clip-path="url(#z38198c12)" d="M546 623L612 773L717 838L814 848L886 819L824 691"/>
<path style="--d:13s;" pathLength="3333" clip-path="url(#z38198c13)" d="M648 595L749 683"/>
<path style="--d:14s;" pathLength="3333" clip-path="url(#z38198c14)" d="M844 573L932 642L955 694"/>
</svg>