<!--
AnimCJK 2016-2019 Copyright Francois Mizessyn - https://github.com/parsimonhi/animCJK
Derived from:
    MakeMeAHanzi project - https://github.com/skishore/makemeahanzi
    Arphic PL KaitiM GB font
    Arphic PL UKai font
You can redistribute and/or modify this file under the terms of the Arphic Public License
as published by Arphic Technology Co., Ltd.
You should have received a copy of this license along with this file.
If not, see http://ftp.gnu.org/non-gnu/chinese-fonts-truetype/LICENSE.
-->
<svg id="z38240" class="acjk" version="1.1" viewBox="0 0 1024 1024" xmlns="http://www.w3.org/2000/svg" xmlns:xlink="http://www.w3.org/1999/xlink">
<style>
<![CDATA[
@keyframes zk {
	to {
		stroke-dashoffset:0;
	}
}
svg.acjk path[clip-path] {
	--t:0.8s;
	animation:zk var(--t) linear forwards var(--d);
	stroke-dasharray:3337;
	stroke-dashoffset:3339;
	stroke-width:128;
	stroke-linecap:round;
	fill:none;
	stroke:#000;
}
svg.acjk path[id] {fill:#ccc;}
]]>
</style>
<path id="z38240d1" d="M280 272C318 210 343 172 356 160C362 153 363 145 360 136C357 127 347 114 328 100C310 87 295 82 283 83C270 83 265 91 272 106C281 127 282 146 275 165C250 225 218 283 181 340C144 393 122 431 73 490C66 497 61 501 60 506C57 512 61 515 71 514C101 509 151 453 260 304C261 301 263 299 265 296C275 280 275 280 280 272Z"/>
<path id="z38240d2" d="M265 296C289 304 335 300 363 292C381 287 390 284 411 278C423 274 429 271 431 270C435 265 436 260 434 254C429 247 417 242 399 240C390 239 378 244 323 262C308 266 294 269 280 272C271 274 256 294 265 296Z"/>
<path id="z38240d3" d="M284 439C284 438 283 438 285 438C369 410 413 396 416 394C421 388 421 382 418 378C413 371 401 367 383 365C364 363 346 367 329 377C311 385 292 392 273 399C252 405 228 410 202 417C181 422 178 431 195 439C208 445 224 449 240 447C255 447 271 446 284 439Z"/>
<path id="z38240d4" d="M310 568C369 552 400 540 403 538C408 533 409 528 406 523C401 516 389 510 371 508C343 503 326 514 311 520C279 532 279 532 263 538C200 561 159 562 148 565C125 569 122 578 140 587C165 600 201 598 245 585C251 583 257 581 265 580C295 572 295 572 310 568Z"/>
<path id="z38240d5" d="M265 580C267 626 253 733 221 779C205 800 199 812 227 850C228 851 229 854 233 857C241 862 250 859 257 849C268 830 317 781 412 706C423 697 431 691 434 686C436 679 434 675 428 676C418 676 378 696 310 735C303 738 298 737 299 731C303 670 309 616 310 568C311 536 311 536 311 520C311 507 313 495 316 484C318 475 317 467 311 461C302 452 293 445 284 439C271 431 234 433 240 447C252 475 261 505 263 538C264 566 264 566 265 580Z"/>
<path id="z38240d6" d="M461 199C453 199 448 200 447 203C445 205 447 210 457 215C468 220 486 222 508 217C542 207 563 201 572 206C578 209 580 220 579 241C572 317 566 362 561 378C558 386 558 395 562 403C565 411 571 414 577 413C583 411 587 405 591 399C598 385 604 348 614 287C618 259 631 238 648 222C656 213 657 205 649 198C639 189 620 181 595 170C580 163 538 172 467 198C464 198 462 198 461 199Z"/>
<path id="z38240d7" d="M472 265C493 290 510 304 525 305C531 305 536 301 538 292C539 286 536 278 531 270C521 254 501 248 474 247C469 246 468 248 468 254C467 258 469 261 472 265Z"/>
<path id="z38240d8" d="M448 369C443 369 440 373 440 380C440 386 446 392 457 399C467 406 475 410 481 410C485 409 487 405 493 397C502 382 523 361 552 333C554 330 555 327 554 325C553 323 551 323 548 325C494 353 460 367 448 369Z"/>
<path id="z38240d9" d="M673 168C664 168 659 169 657 173C655 175 658 181 668 186C683 193 707 195 736 188C768 179 789 172 799 177C806 180 807 196 802 220C782 306 768 359 760 377C755 387 754 398 757 408C759 416 765 421 773 421C781 420 787 415 793 407C803 391 816 349 836 281C845 249 863 226 885 209C895 200 897 190 888 181C877 170 856 157 828 141C817 135 767 144 675 168C674 168 674 167 673 168Z"/>
<path id="z38240d10" d="M678 240C703 264 722 275 733 274C739 273 744 268 745 260C745 254 741 246 735 239C730 232 722 229 712 227C695 223 684 222 678 222C673 222 671 224 672 230C672 232 673 236 678 240Z"/>
<path id="z38240d11" d="M643 343C638 343 635 347 635 354C635 362 642 368 654 375C665 382 673 387 679 387C683 386 685 380 691 373C702 355 725 332 756 301C758 298 759 295 758 293C757 291 754 290 751 293C694 324 659 341 643 343Z"/>
<path id="z38240d12" d="M667 438C669 431 675 425 675 419C673 409 664 406 650 402C634 397 622 395 616 397C612 397 609 401 608 409C596 461 496 555 414 624C368 661 399 661 431 643C469 622 562 556 619 492C630 479 641 466 653 453C657 448 664 444 667 438Z"/>
<path id="z38240d13" d="M653 453C703 505 745 555 800 604C813 616 830 622 852 622C890 621 920 615 961 606C970 603 976 601 977 599C977 595 973 592 966 590C939 581 919 573 888 565C823 547 764 512 667 438C662 434 649 448 653 453Z"/>
<path id="z38240d14" d="M619 519C623 535 608 564 574 606C558 624 539 645 517 667C513 670 509 672 508 676C505 680 507 684 514 683C542 678 586 645 643 585C652 575 660 567 667 562C672 558 673 553 672 547C671 541 665 532 655 521C645 510 636 505 628 505C620 504 616 509 619 519Z"/>
<path id="z38240d15" d="M671 589C674 601 673 611 668 621C641 666 595 724 526 791C520 796 516 798 515 801C512 805 515 808 522 808C550 808 607 755 685 666C697 651 708 647 724 636C729 632 730 625 730 619C729 613 723 603 711 591C700 580 690 574 681 574C672 573 668 578 671 589Z"/>
<path id="z38240d16" d="M737 653C738 705 696 772 607 855C605 856 603 857 602 859C576 882 531 915 468 959C463 962 463 966 470 967C492 969 545 947 619 896C674 857 728 795 790 721C796 713 801 707 806 705C810 702 813 697 813 691C813 685 810 677 803 670C781 647 761 637 745 640C740 640 736 645 737 653Z"/>
<defs>
	<clipPath id="z38240c1"><use xlink:href="#z38240d1"/></clipPath>
	<clipPath id="z38240c2"><use xlink:href="#z38240d2"/></clipPath>
	<clipPath id="z38240c3"><use xlink:href="#z38240d3"/></clipPath>
	<clipPath id="z38240c4"><use xlink:href="#z38240d4"/></clipPath>
	<clipPath id="z38240c5"><use xlink:href="#z38240d5"/></clipPath>
	<clipPath id="z38240c6"><use xlink:href="#z38240d6"/></clipPath>
	<clipPath id="z38240c7"><use xlink:href="#z38240d7"/></clipPath>
	<clipPath id="z38240c8"><use xlink:href="#z38240d8"/></clipPath>
	<clipPath id="z38240c9"><use xlink:href="#z38240d9"/></clipPath>
	<clipPath id="z38240c10"><use xlink:href="#z38240d10"/></clipPath>
	<clipPath id="z38240c11"><use xlink:href="#z38240d11"/></clipPath>
	<clipPath id="z38240c12"><use xlink:href="#z38240d12"/></clipPath>
	<clipPath id="z38240c13"><use xlink:href="#z38240d13"/></clipPath>
	<clipPath id="z38240c14"><use xlink:href="#z38240d14"/></clipPath>
	<clipPath id="z38240c15"><use xlink:href="#z38240d15"/></clipPath>
	<clipPath id="z38240c16"><use xlink:href="#z38240d16"/></clipPath>
</defs>
<path style="--d:1s;" pathLength="3333" clip-path="url(#z38240c1)" d="M278 92L318 155L163 403L65 507"/>
<path style="--d:2s;" pathLength="3333" clip-path="url(#z38240c2)" d="M275 292L429 258"/>
<path style="--d:3s;" pathLength="3333" clip-path="url(#z38240c3)" d="M193 427L415 384"/>
<path style="--d:4s;" pathLength="3333" clip-path="url(#z38240c4)" d="M139 577L399 528"/>
<path style="--d:5s;" pathLength="3333" clip-path="url(#z38240c5)" d="M248 448L286 488L256 801L428 684"/>
<path style="--d:6s;" pathLength="3333" clip-path="url(#z38240c6)" d="M454 205L566 186L616 215L573 407"/>
<path style="--d:7s;" pathLength="3333" clip-path="url(#z38240c7)" d="M474 254L529 299"/>
<path style="--d:8s;" pathLength="3333" clip-path="url(#z38240c8)" d="M444 378L485 382L545 331"/>
<path style="--d:9s;" pathLength="3333" clip-path="url(#z38240c9)" d="M665 175L812 158L842 186L776 417"/>
<path style="--d:10s;" pathLength="3333" clip-path="url(#z38240c10)" d="M678 227L739 262"/>
<path style="--d:11s;" pathLength="3333" clip-path="url(#z38240c11)" d="M640 353L684 356L750 300"/>
<path style="--d:12s;" pathLength="3333" clip-path="url(#z38240c12)" d="M669 420L632 427L543 540L402 648"/>
<path style="--d:13s;" pathLength="3333" clip-path="url(#z38240c13)" d="M670 455L826 580L967 597"/>
<path style="--d:14s;" pathLength="3333" clip-path="url(#z38240c14)" d="M626 511L642 552L514 676"/>
<path style="--d:15s;" pathLength="3333" clip-path="url(#z38240c15)" d="M680 581L696 628L525 800"/>
<path style="--d:16s;" pathLength="3333" clip-path="url(#z38240c16)" d="M745 650L771 697L695 795L601 885L475 962"/>
</svg>