<!--
AnimCJK 2016-2019 Copyright Francois Mizessyn - https://github.com/parsimonhi/animCJK
Derived from:
    MakeMeAHanzi project - https://github.com/skishore/makemeahanzi
    Arphic PL KaitiM GB font
    Arphic PL UKai font
You can redistribute and/or modify this file under the terms of the Arphic Public License
as published by Arphic Technology Co., Ltd.
You should have received a copy of this license along with this file.
If not, see http://ftp.gnu.org/non-gnu/chinese-fonts-truetype/LICENSE.
-->
<svg id="z38408" class="acjk" version="1.1" viewBox="0 0 1024 1024" xmlns="http://www.w3.org/2000/svg" xmlns:xlink="http://www.w3.org/1999/xlink">
<style>
<![CDATA[
@keyframes zk {
	to {
		stroke-dashoffset:0;
	}
}
svg.acjk path[clip-path] {
	--t:0.8s;
	animation:zk var(--t) linear forwards var(--d);
	stroke-dasharray:3337;
	stroke-dashoffset:3339;
	stroke-width:128;
	stroke-linecap:round;
	fill:none;
	stroke:#000;
}
svg.acjk path[id] {fill:#ccc;}
]]>
</style>
<path id="z38408d1" d="M302 135Q368 231 394 233Q409 237 419 216Q422 201 414 177Q404 155 375 139Q330 111 311 105Q301 102 298 115Q295 125 302 135Z"/>
<path id="z38408d2" d="M176 212Q231 359 186 673Q156 796 157 806Q157 837 179 863Q192 878 202 863Q239 824 240 658Q240 331 257 247Q258 228 242 217Q217 196 189 188Q179 185 172 194Q168 201 176 212Z"/>
<path id="z38408d3" d="M518 150Q502 150 507 160Q514 173 536 183Q548 190 583 183Q739 135 760 168Q769 187 774 242Q793 494 779 779Q779 822 763 833Q750 843 682 833Q664 832 666 841Q667 848 681 854Q744 897 776 931Q798 952 812 948Q825 945 836 915Q852 867 849 798Q828 395 830 245Q831 205 843 181Q855 159 845 147Q833 131 785 107Q766 97 746 102Q718 112 654 127Q590 142 518 150Z"/>
<path id="z38408d4" d="M531 387Q540 383 550 381Q583 371 588 367Q595 360 591 353Q584 344 561 339Q540 336 522 343C499 352 499 352 487 357Q412 382 337 394Q309 400 330 412Q363 430 409 417Q451 405 495 396C519 390 519 390 531 387Z"/>
<path id="z38408d5" d="M339 488Q332 484 310 481Q303 480 300 483Q296 487 302 498Q320 532 332 588Q333 604 345 616Q357 631 360 620Q361 613 362 602C361 589 361 589 361 583Q351 526 348 508C347 501 346 491 339 488Z"/>
<path id="z38408d6" d="M456 556Q466 511 479 497Q494 478 476 469Q463 462 442 451Q429 445 416 454Q401 466 381 473Q365 480 339 488C332 491 341 509 348 508Q354 507 363 504Q417 486 424 493Q427 496 420 559C418 571 454 568 456 556Z"/>
<path id="z38408d7" d="M362 602Q365 602 372 601Q424 588 464 578Q480 574 473 565Q467 558 456 556C432 558 432 558 420 559Q410 560 400 565Q379 574 361 583C356 586 356 602 362 602Z"/>
<path id="z38408d8" d="M286 672Q277 673 276 681Q275 690 282 695Q298 705 322 717Q329 718 338 713Q416 665 495 618Q504 612 504 606Q500 602 491 605Q320 671 286 672Z"/>
<path id="z38408d9" d="M583 649Q622 724 682 769Q704 787 717 787Q727 788 734 779Q740 772 733 737Q727 680 731 637Q734 615 727 613Q721 612 713 632Q689 693 674 690Q623 639 612 617C598 590 598 590 591 577Q560 511 531 387C525 358 525 358 522 343Q518 318 519 298Q525 279 521 269Q517 262 497 252Q479 242 468 241Q458 242 458 243Q440 249 456 266C477 327 477 327 487 357C492 383 492 383 495 396Q520 516 565 613C577 637 577 637 583 649Z"/>
<path id="z38408d10" d="M565 613Q511 667 456 706Q450 712 455 714Q461 717 470 713Q533 694 583 649C602 628 602 628 612 617Q642 583 670 524Q680 508 691 491Q698 484 694 476Q690 467 666 452Q650 442 642 442Q632 445 632 457Q633 509 591 577C574 601 574 601 565 613Z"/>
<path id="z38408d11" d="M598 295Q640 349 660 350Q670 351 677 336Q678 326 670 309Q663 296 644 289Q616 276 602 273Q595 272 594 281Q593 288 598 295Z"/>
<defs>
	<clipPath id="z38408c1"><use xlink:href="#z38408d1"/></clipPath>
	<clipPath id="z38408c2"><use xlink:href="#z38408d2"/></clipPath>
	<clipPath id="z38408c3"><use xlink:href="#z38408d3"/></clipPath>
	<clipPath id="z38408c4"><use xlink:href="#z38408d4"/></clipPath>
	<clipPath id="z38408c5"><use xlink:href="#z38408d5"/></clipPath>
	<clipPath id="z38408c6"><use xlink:href="#z38408d6"/></clipPath>
	<clipPath id="z38408c7"><use xlink:href="#z38408d7"/></clipPath>
	<clipPath id="z38408c8"><use xlink:href="#z38408d8"/></clipPath>
	<clipPath id="z38408c9"><use xlink:href="#z38408d9"/></clipPath>
	<clipPath id="z38408c10"><use xlink:href="#z38408d10"/></clipPath>
	<clipPath id="z38408c11"><use xlink:href="#z38408d11"/></clipPath>
</defs>
<path style="--d:1s;" pathLength="3333" clip-path="url(#z38408c1)" d="M305 112L406 228"/>
<path style="--d:2s;" pathLength="3333" clip-path="url(#z38408c2)" d="M178 193L222 244L225 292L190 865"/>
<path style="--d:3s;" pathLength="3333" clip-path="url(#z38408c3)" d="M514 157L566 165L743 129L808 176L811 830L784 897L672 842"/>
<path style="--d:4s;" pathLength="3333" clip-path="url(#z38408c4)" d="M330 402L586 360"/>
<path style="--d:5s;" pathLength="3333" clip-path="url(#z38408c5)" d="M306 487L351 620"/>
<path style="--d:6s;" pathLength="3333" clip-path="url(#z38408c6)" d="M345 490L450 481L432 556"/>
<path style="--d:7s;" pathLength="3333" clip-path="url(#z38408c7)" d="M365 595L469 566"/>
<path style="--d:8s;" pathLength="3333" clip-path="url(#z38408c8)" d="M281 681L330 689L495 609"/>
<path style="--d:9s;" pathLength="3333" clip-path="url(#z38408c9)" d="M455 251L493 282L542 503L622 670L700 738L723 622"/>
<path style="--d:10s;" pathLength="3333" clip-path="url(#z38408c10)" d="M642 451L661 489L612 583L461 710"/>
<path style="--d:11s;" pathLength="3333" clip-path="url(#z38408c11)" d="M602 283L668 343"/>
</svg>