<!--
AnimCJK 2016-2017 Copyright Francois Mizessyn, http://gooo.free.fr/animCJK/
Derived from:
    MakeMeAHanzi project - https://github.com/skishore/makemeahanzi
    Arphic PL KaitiM GB - https://apps.ubuntu.com/cat/applications/precise/fonts-arphic-gkai00mp/
    Arphic PL UKai - https://apps.ubuntu.com/cat/applications/fonts-arphic-ukai/
You can redistribute and/or modify this file under the terms of the Arphic Public License
as published by Arphic Technology Co., Ltd.
You should have received a copy of this license (the directory "APL") along with this file;
if not, see http://ftp.gnu.org/non-gnu/chinese-fonts-truetype/LICENSE.
-->
<svg id="z38414" class="acjk" version="1.1" viewBox="0 0 1024 1024" xmlns="http://www.w3.org/2000/svg" xmlns:xlink="http://www.w3.org/1999/xlink">
<style>
<![CDATA[
@keyframes z38414k {
	from {
		stroke:#c00;
		stroke-dashoffset:3334;
	}
	75% {
		stroke:#c00;
		stroke-dashoffset:0;
	}
	to {
		stroke:#000;
	}
}
#z38414 path[clip-path] {
	animation:z38414k 1s linear both;
	stroke-dasharray:3334;
	stroke-width:128;
	stroke-linecap:round;
	fill:none;
}
#z38414 path[clip-path="url(#z38414c1)"] {animation-delay:1s;}
#z38414 path[clip-path="url(#z38414c2)"] {animation-delay:2s;}
#z38414 path[clip-path="url(#z38414c3)"] {animation-delay:3s;}
#z38414 path[clip-path="url(#z38414c4)"] {animation-delay:4s;}
#z38414 path[clip-path="url(#z38414c5)"] {animation-delay:5s;}
#z38414 path[clip-path="url(#z38414c6)"] {animation-delay:6s;}
#z38414 path[clip-path="url(#z38414c7)"] {animation-delay:7s;}
#z38414 path[clip-path="url(#z38414c8)"] {animation-delay:8s;}
#z38414 path[clip-path="url(#z38414c9)"] {animation-delay:9s;}
#z38414 path[clip-path="url(#z38414c10)"] {animation-delay:10s;}
#z38414 path[clip-path="url(#z38414c11)"] {animation-delay:11s;}
#z38414 path {fill:#ccc;}
]]>
</style>
<path id="z38414d1" d="M313 150Q368 220 398 224Q414 225 421 204Q422 188 412 165Q400 149 375 139Q335 123 318 120Q308 117 307 131Q306 141 313 150 Z"/>
<path id="z38414d2" d="M176 220Q203 286 201 356Q205 629 158 770Q140 824 173 869L175 871Q188 886 198 871Q235 831 237 666Q237 387 253 272Q254 262 256 255Q259 236 242 225Q217 204 189 195Q179 194 172 202Q168 209 176 220 Z"/>
<path id="z38414d3" d="M528 162Q512 161 515 172Q522 184 544 196Q557 205 581 201Q747 156 767 182Q783 191 789 264Q810 507 799 784Q799 826 783 836Q767 849 685 833Q669 832 670 841Q671 848 685 853Q758 896 799 930Q821 949 833 946Q846 942 855 913Q868 867 866 802Q841 409 842 264Q843 225 854 201Q867 179 856 168Q846 152 798 128Q779 119 760 124Q730 133 666 145Q599 157 528 162 Z"/>
<path id="z38414d4" d="M482 348Q495 327 521 310Q528 304 527 294Q526 285 509 267Q493 252 481 250Q468 249 471 265Q478 296 410 373Q379 409 336 448Q329 454 326 458Q322 465 332 465Q374 456 465 366L482 348 Z"/>
<path id="z38414d5" d="M465 366Q483 375 558 357Q565 356 568 357Q571 361 565 369Q523 436 499 466Q489 478 487 484Q484 493 496 490Q509 484 573 423Q613 384 651 364Q667 355 657 343Q644 331 612 311Q603 308 528 334Q516 337 482 348L465 366 Z"/>
<path id="z38414d6" d="M355 597Q376 584 390 574Q438 541 447 537Q460 530 454 519Q445 509 428 498Q412 489 404 491Q397 492 399 501Q399 520 341 588L355 597 Z"/>
<path id="z38414d7" d="M373 757Q373 754 373 752Q369 715 365 686L362 662Q358 622 358 610Q358 601 355 597L341 588Q331 584 311 579Q301 575 297 580Q291 584 298 600Q323 661 333 759Q334 789 350 809Q365 830 370 816Q374 804 375 785L373 757 Z"/>
<path id="z38414d8" d="M365 686Q366 683 459 665Q478 661 470 650Q460 640 438 637Q405 637 362 662L365 686 Z"/>
<path id="z38414d9" d="M587 773Q600 791 616 826Q625 842 639 831Q661 818 682 682Q695 583 709 562Q719 544 706 534Q657 488 614 504Q521 519 515 520Q508 520 507 529Q507 536 520 544Q542 553 592 543Q632 533 639 537Q646 541 646 558Q645 589 641 622L638 652Q632 697 624 744Q621 753 609 752L587 773 Z"/>
<path id="z38414d10" d="M641 622Q632 613 531 634Q518 635 533 650L638 652L641 622 Z"/>
<path id="z38414d11" d="M609 752Q603 745 590 736Q577 727 550 732Q450 751 373 757L375 785Q384 788 396 786Q456 774 587 773L609 752 Z"/>
<defs>
	<clipPath id="z38414c1"><use xlink:href="#z38414d1"/></clipPath>
	<clipPath id="z38414c2"><use xlink:href="#z38414d2"/></clipPath>
	<clipPath id="z38414c3"><use xlink:href="#z38414d3"/></clipPath>
	<clipPath id="z38414c4"><use xlink:href="#z38414d4"/></clipPath>
	<clipPath id="z38414c5"><use xlink:href="#z38414d5"/></clipPath>
	<clipPath id="z38414c6"><use xlink:href="#z38414d6"/></clipPath>
	<clipPath id="z38414c7"><use xlink:href="#z38414d7"/></clipPath>
	<clipPath id="z38414c8"><use xlink:href="#z38414d8"/></clipPath>
	<clipPath id="z38414c9"><use xlink:href="#z38414d9"/></clipPath>
	<clipPath id="z38414c10"><use xlink:href="#z38414d10"/></clipPath>
	<clipPath id="z38414c11"><use xlink:href="#z38414d11"/></clipPath>
</defs>
<path pathLength="3333" clip-path="url(#z38414c1)" d="M314 127L413 214"/>
<path pathLength="3333" clip-path="url(#z38414c2)" d="M178 205L222 251L224 285L211 656L180 871"/>
<path pathLength="3333" clip-path="url(#z38414c3)" d="M522 169L576 180L765 149L819 188L824 860L802 900L677 840"/>
<path pathLength="3333" clip-path="url(#z38414c4)" d="M480 258L494 302L335 457"/>
<path pathLength="3333" clip-path="url(#z38414c5)" d="M478 360L577 336L613 358L494 485"/>
<path pathLength="3333" clip-path="url(#z38414c6)" d="M408 495L420 529L350 590"/>
<path pathLength="3333" clip-path="url(#z38414c7)" d="M303 587L332 615L359 815"/>
<path pathLength="3333" clip-path="url(#z38414c8)" d="M367 678L464 651"/>
<path pathLength="3333" clip-path="url(#z38414c9)" d="M518 531L637 518L679 549L648 742L620 790L628 829"/>
<path pathLength="3333" clip-path="url(#z38414c10)" d="M536 641L639 634"/>
<path pathLength="3333" clip-path="url(#z38414c11)" d="M381 764L603 754"/>
</svg>