<!--
AnimCJK 2016-2018 Copyright Francois Mizessyn - https://github.com/parsimonhi/animCJK
Derived from:
    MakeMeAHanzi project - https://github.com/skishore/makemeahanzi
    Arphic PL KaitiM GB - https://apps.ubuntu.com/cat/applications/precise/fonts-arphic-gkai00mp/
    Arphic PL UKai - https://apps.ubuntu.com/cat/applications/fonts-arphic-ukai/
You can redistribute and/or modify this file under the terms of the Arphic Public License
as published by Arphic Technology Co., Ltd.
You should have received a copy of this license (the directory "APL") along with this file;
if not, see http://ftp.gnu.org/non-gnu/chinese-fonts-truetype/LICENSE.
-->
<svg id="z38422" class="acjk" version="1.1" viewBox="0 0 1024 1024" xmlns="http://www.w3.org/2000/svg" xmlns:xlink="http://www.w3.org/1999/xlink">
<style>
<![CDATA[
@keyframes z38422k {
	from {
		stroke:#ccc;
		stroke-dashoffset:3334;
	}
	1% {
		stroke:#c00;
		stroke-dashoffset:3334;
	}
	75% {
		stroke:#c00;
		stroke-dashoffset:0;
	}
	to {
		stroke:#000;
	}
}
#z38422 path[clip-path] {
	animation:z38422k 1s linear both;
	stroke-dasharray:3334;
	stroke-width:128;
	stroke-linecap:round;
	fill:none;
}
#z38422 path[clip-path="url(#z38422c1)"] {animation-delay:1s;}
#z38422 path[clip-path="url(#z38422c2)"] {animation-delay:2s;}
#z38422 path[clip-path="url(#z38422c3)"] {animation-delay:3s;}
#z38422 path[clip-path="url(#z38422c4)"] {animation-delay:4s;}
#z38422 path[clip-path="url(#z38422c5)"] {animation-delay:5s;}
#z38422 path[clip-path="url(#z38422c6)"] {animation-delay:6s;}
#z38422 path[clip-path="url(#z38422c7)"] {animation-delay:7s;}
#z38422 path[clip-path="url(#z38422c8)"] {animation-delay:8s;}
#z38422 path[clip-path="url(#z38422c9)"] {animation-delay:9s;}
#z38422 path[clip-path="url(#z38422c10)"] {animation-delay:10s;}
#z38422 path[clip-path="url(#z38422c11)"] {animation-delay:11s;}
#z38422 path[clip-path="url(#z38422c12)"] {animation-delay:12s;}
#z38422 path[clip-path="url(#z38422c13)"] {animation-delay:13s;}
#z38422 path {fill:#ccc;}
]]>
</style>
<path id="z38422d1" d="M298 142Q367 220 394 220Q410 221 416 200Q417 184 406 162Q393 143 365 133Q322 114 302 111Q292 110 291 123Q290 133 298 142 Z"/>
<path id="z38422d2" d="M176 212Q231 359 186 673Q156 796 157 806Q157 837 179 863Q192 878 202 863Q239 824 240 658Q240 331 257 247Q258 228 242 217Q217 196 189 188Q179 185 172 194Q168 201 176 212 Z"/>
<path id="z38422d3" d="M520 146Q504 145 507 156Q514 168 536 180Q549 189 573 185Q739 139 758 173Q791 227 784 664Q783 718 780 775Q780 817 764 828Q751 838 682 822Q666 819 666 829Q667 836 681 843Q742 889 774 926Q796 945 809 943Q822 940 834 910Q850 864 849 794Q828 400 830 253Q831 213 844 189Q857 167 846 154Q836 138 787 113Q769 104 694 121Q559 142 520 146 Z"/>
<path id="z38422d4" d="M513 353Q610 332 615 328Q622 321 619 314Q612 304 587 298Q548 292 517 310L470 323Q430 332 383 336Q352 342 374 356Q410 377 461 363Q465 362 472 362L513 353 Z"/>
<path id="z38422d5" d="M506 411Q509 380 513 353L517 310Q518 304 519 300Q519 296 528 261Q531 254 516 242Q491 227 472 224Q460 221 454 228Q448 234 454 245Q466 260 470 323L472 362Q472 387 472 417L506 411 Z"/>
<path id="z38422d6" d="M494 445Q558 436 657 435Q673 435 688 434Q704 434 707 427Q711 417 698 407Q652 374 593 393Q556 399 506 411L472 417Q387 430 289 446Q273 449 285 461Q297 471 311 476Q327 480 340 476Q394 460 456 451L494 445 Z"/>
<path id="z38422d7" d="M580 512Q441 533 438 531Q437 530 440 527Q486 481 503 470Q513 461 508 455Q504 449 494 445L456 451Q456 481 413 518Q403 528 381 536Q362 542 362 549Q361 561 366 574Q372 587 381 592Q385 595 393 591Q444 561 576 528Q582 527 590 526L580 512 Z"/>
<path id="z38422d8" d="M590 526Q617 562 626 565Q633 566 638 559Q642 550 642 531Q639 501 569 462Q560 458 556 458Q552 459 551 468Q551 471 580 512L590 526 Z"/>
<path id="z38422d9" d="M356 627Q346 623 328 621Q319 618 316 622Q312 628 318 640Q339 677 352 740Q353 749 358 758L387 755Q387 746 386 735Q376 678 373 656L356 627 Z"/>
<path id="z38422d10" d="M632 723Q650 659 668 635Q675 628 673 618Q667 606 623 586Q611 580 601 584Q492 609 356 627L373 656Q388 650 427 643L443 640Q471 633 506 627L529 623Q583 608 600 619Q604 622 604 633Q600 673 590 730L632 723 Z"/>
<path id="z38422d11" d="M462 747Q462 744 463 743Q469 716 451 660Q450 657 450 656Q449 646 443 640L427 643Q430 662 431 685Q434 734 448 749L462 747 Z"/>
<path id="z38422d12" d="M518 741Q527 728 545 679Q549 669 556 656Q563 646 557 641Q550 631 529 623L506 627Q505 630 508 634Q518 650 506 724Q503 734 503 743L518 741 Z"/>
<path id="z38422d13" d="M358 758Q318 759 275 766Q257 767 270 782Q294 806 326 800Q429 773 682 774Q695 774 709 775Q725 776 730 769Q734 759 721 747Q679 714 632 723L590 730Q556 734 518 741L503 743Q491 743 480 745Q470 745 462 747L448 749Q418 750 387 755L358 758 Z"/>
<defs>
	<clipPath id="z38422c1"><use xlink:href="#z38422d1"/></clipPath>
	<clipPath id="z38422c2"><use xlink:href="#z38422d2"/></clipPath>
	<clipPath id="z38422c3"><use xlink:href="#z38422d3"/></clipPath>
	<clipPath id="z38422c4"><use xlink:href="#z38422d4"/></clipPath>
	<clipPath id="z38422c5"><use xlink:href="#z38422d5"/></clipPath>
	<clipPath id="z38422c6"><use xlink:href="#z38422d6"/></clipPath>
	<clipPath id="z38422c7"><use xlink:href="#z38422d7"/></clipPath>
	<clipPath id="z38422c8"><use xlink:href="#z38422d8"/></clipPath>
	<clipPath id="z38422c9"><use xlink:href="#z38422d9"/></clipPath>
	<clipPath id="z38422c10"><use xlink:href="#z38422d10"/></clipPath>
	<clipPath id="z38422c11"><use xlink:href="#z38422d11"/></clipPath>
	<clipPath id="z38422c12"><use xlink:href="#z38422d12"/></clipPath>
	<clipPath id="z38422c13"><use xlink:href="#z38422d13"/></clipPath>
</defs>
<path pathLength="3333" clip-path="url(#z38422c1)" d="M299 119L404 214"/>
<path pathLength="3333" clip-path="url(#z38422c2)" d="M178 193L222 244L225 292L190 865"/>
<path pathLength="3333" clip-path="url(#z38422c3)" d="M513 151L572 162L757 137L808 181L811 826L787 893L672 828"/>
<path pathLength="3333" clip-path="url(#z38422c4)" d="M373 347L615 317"/>
<path pathLength="3333" clip-path="url(#z38422c5)" d="M460 235L496 266L488 413"/>
<path pathLength="3333" clip-path="url(#z38422c6)" d="M287 452L633 410L702 422"/>
<path pathLength="3333" clip-path="url(#z38422c7)" d="M503 458L400 538L409 561L583 521"/>
<path pathLength="3333" clip-path="url(#z38422c8)" d="M560 465L629 560"/>
<path pathLength="3333" clip-path="url(#z38422c9)" d="M323 629L374 754"/>
<path pathLength="3333" clip-path="url(#z38422c10)" d="M365 631L610 601L638 633L605 726"/>
<path pathLength="3333" clip-path="url(#z38422c11)" d="M437 644L456 744"/>
<path pathLength="3333" clip-path="url(#z38422c12)" d="M514 631L536 662L508 735"/>
<path pathLength="3333" clip-path="url(#z38422c13)" d="M271 771L645 747L726 767"/>
</svg>