<!--
AnimCJK 2016-2018 Copyright Francois Mizessyn - https://github.com/parsimonhi/animCJK
Derived from:
    MakeMeAHanzi project - https://github.com/skishore/makemeahanzi
    Arphic PL KaitiM GB - https://apps.ubuntu.com/cat/applications/precise/fonts-arphic-gkai00mp/
    Arphic PL UKai - https://apps.ubuntu.com/cat/applications/fonts-arphic-ukai/
You can redistribute and/or modify this file under the terms of the Arphic Public License
as published by Arphic Technology Co., Ltd.
You should have received a copy of this license (the directory "APL") along with this file;
if not, see http://ftp.gnu.org/non-gnu/chinese-fonts-truetype/LICENSE.
-->
<svg id="z38460" class="acjk" version="1.1" viewBox="0 0 1024 1024" xmlns="http://www.w3.org/2000/svg" xmlns:xlink="http://www.w3.org/1999/xlink">
<style>
<![CDATA[
@keyframes z38460k {
	from {
		stroke:#ccc;
		stroke-dashoffset:3334;
	}
	1% {
		stroke:#c00;
		stroke-dashoffset:3334;
	}
	75% {
		stroke:#c00;
		stroke-dashoffset:0;
	}
	to {
		stroke:#000;
	}
}
#z38460 path[clip-path] {
	animation:z38460k 1s linear both;
	stroke-dasharray:3334;
	stroke-width:128;
	stroke-linecap:round;
	fill:none;
}
#z38460 path[clip-path="url(#z38460c1)"] {animation-delay:1s;}
#z38460 path[clip-path="url(#z38460c2)"] {animation-delay:2s;}
#z38460 path[clip-path="url(#z38460c3)"] {animation-delay:3s;}
#z38460 path[clip-path="url(#z38460c4)"] {animation-delay:4s;}
#z38460 path[clip-path="url(#z38460c5)"] {animation-delay:5s;}
#z38460 path[clip-path="url(#z38460c6)"] {animation-delay:6s;}
#z38460 path[clip-path="url(#z38460c7)"] {animation-delay:7s;}
#z38460 path {fill:#ccc;}
]]>
</style>
<path id="z38460d1" d="M207 251Q246 241 287 221Q303 211 314 221Q321 227 312 247Q273 352 279 369Q328 468 329 486Q328 490 325 496Q319 506 299 504Q272 503 244 504Q219 504 248 518Q297 545 342 577Q357 590 370 578Q386 568 394 541Q409 490 351 407Q309 350 317 332Q327 298 377 239Q387 226 397 219Q418 206 407 192Q391 173 351 153Q329 146 314 158Q269 197 193 218L207 251 Z"/>
<path id="z38460d2" d="M193 218Q183 208 156 196Q146 192 133 196Q126 202 131 215Q156 293 160 331Q159 334 160 339Q178 586 140 761Q112 818 160 878Q172 893 183 879Q202 852 201 730Q202 291 206 263Q207 256 207 251L193 218 Z"/>
<path id="z38460d3" d="M503 321Q533 278 564 218Q580 184 595 168Q602 158 597 144Q593 132 562 113Q535 98 517 100Q499 104 509 124Q543 178 396 418Q387 428 385 435Q384 445 396 442Q421 435 489 341L503 321 Z"/>
<path id="z38460d4" d="M597 355Q597 354 600 354Q850 294 860 287Q869 278 864 269Q855 256 824 249Q794 243 685 283Q544 314 506 320Q503 320 503 321L489 341Q507 359 555 359L597 355 Z"/>
<path id="z38460d5" d="M619 646Q619 579 620 511L621 489Q622 425 629 395Q630 382 624 375Q611 363 597 355L555 359Q591 395 563 728Q560 759 556 785Q555 816 549 832Q540 874 576 926Q588 945 596 951Q609 952 614 938Q627 904 623 872Q620 769 619 676L619 646 Z"/>
<path id="z38460d6" d="M620 511Q660 530 713 513Q758 501 805 489Q826 482 829 479Q836 472 832 463Q825 453 795 447Q771 444 691 474Q661 481 626 487Q622 487 621 489L620 511 Z"/>
<path id="z38460d7" d="M619 676Q652 686 723 676Q772 667 827 655Q855 649 859 645Q868 638 863 628Q856 616 826 609Q795 603 765 616Q734 626 699 634Q662 641 619 646L619 676 Z"/>
<defs>
	<clipPath id="z38460c1"><use xlink:href="#z38460d1"/></clipPath>
	<clipPath id="z38460c2"><use xlink:href="#z38460d2"/></clipPath>
	<clipPath id="z38460c3"><use xlink:href="#z38460d3"/></clipPath>
	<clipPath id="z38460c4"><use xlink:href="#z38460d4"/></clipPath>
	<clipPath id="z38460c5"><use xlink:href="#z38460d5"/></clipPath>
	<clipPath id="z38460c6"><use xlink:href="#z38460d6"/></clipPath>
	<clipPath id="z38460c7"><use xlink:href="#z38460d7"/></clipPath>
</defs>
<path pathLength="3333" clip-path="url(#z38460c1)" d="M199 220L321 186L363 212L298 340L357 475L356 527L336 543L242 508"/>
<path pathLength="3333" clip-path="url(#z38460c2)" d="M137 200L170 240L182 323L167 879"/>
<path pathLength="3333" clip-path="url(#z38460c3)" d="M512 106L556 162L393 437"/>
<path pathLength="3333" clip-path="url(#z38460c4)" d="M494 338L860 275"/>
<path pathLength="3333" clip-path="url(#z38460c5)" d="M565 363L599 395L584 849L601 943"/>
<path pathLength="3333" clip-path="url(#z38460c6)" d="M627 506L827 463"/>
<path pathLength="3333" clip-path="url(#z38460c7)" d="M624 669L858 629"/>
</svg>