<!--
AnimCJK 2016-2019 Copyright Francois Mizessyn - https://github.com/parsimonhi/animCJK
Derived from:
    MakeMeAHanzi project - https://github.com/skishore/makemeahanzi
    Arphic PL KaitiM GB font
    Arphic PL UKai font
You can redistribute and/or modify this file under the terms of the Arphic Public License
as published by Arphic Technology Co., Ltd.
You should have received a copy of this license along with this file.
If not, see http://ftp.gnu.org/non-gnu/chinese-fonts-truetype/LICENSE.
-->
<svg id="z38469" class="acjk" version="1.1" viewBox="0 0 1024 1024" xmlns="http://www.w3.org/2000/svg" xmlns:xlink="http://www.w3.org/1999/xlink">
<style>
<![CDATA[
@keyframes zk {
	to {
		stroke-dashoffset:0;
	}
}
svg.acjk path[clip-path] {
	--t:0.8s;
	animation:zk var(--t) linear forwards var(--d);
	stroke-dasharray:3337;
	stroke-dashoffset:3339;
	stroke-width:128;
	stroke-linecap:round;
	fill:none;
	stroke:#000;
}
svg.acjk path[id] {fill:#ccc;}
]]>
</style>
<path id="z38469d1" d="M214 180Q250 173 291 156Q310 146 320 158Q326 164 317 182Q301 221 287 259Q274 284 289 306Q352 399 335 421Q328 433 303 429Q270 425 236 425Q211 424 240 438Q301 466 356 502Q372 515 384 501Q400 491 406 464Q418 410 357 333Q312 282 321 264Q327 234 383 179Q393 166 404 161Q425 148 414 134Q401 115 361 93Q339 83 323 96Q266 136 202 148C191 150 203 182 214 180Z"/>
<path id="z38469d2" d="M202 148Q186 132 157 121Q145 115 132 121Q123 127 130 141Q155 229 159 260Q158 263 159 268Q174 545 133 712Q115 778 159 830Q172 846 184 831Q205 801 204 674Q207 202 214 180C216 169 211 155 202 148Z"/>
<path id="z38469d3" d="M499 230Q457 237 487 256Q536 284 598 267Q671 252 747 237Q781 230 787 224Q797 215 792 205Q783 192 750 184Q716 177 682 191Q643 204 601 215Q555 225 499 230Z"/>
<path id="z38469d4" d="M646 421Q724 409 891 409Q910 408 916 400Q920 388 904 374Q844 332 796 349Q634 379 428 410Q407 411 423 429Q454 457 493 448Q539 435 592 427C628 423 628 423 646 421Z"/>
<path id="z38469d5" d="M573 754Q533 747 495 740Q482 739 483 746Q484 753 496 760Q580 821 612 861Q627 879 643 864Q680 825 676 754Q663 529 684 476Q693 457 676 442Q661 429 646 421C630 412 581 413 592 427Q617 452 616 518Q620 650 614 718Q613 743 599 751Q589 760 573 754Z"/>
<path id="z38469d6" d="M442 554Q412 603 374 648Q350 681 362 714Q368 733 390 723Q448 690 460 614Q470 583 466 557Q462 547 456 546Q447 546 442 554Z"/>
<path id="z38469d7" d="M762 557Q814 615 875 697Q888 719 904 725Q913 726 921 718Q936 705 927 660Q918 597 767 525Q758 519 755 531Q754 544 762 557Z"/>
<defs>
	<clipPath id="z38469c1"><use xlink:href="#z38469d1"/></clipPath>
	<clipPath id="z38469c2"><use xlink:href="#z38469d2"/></clipPath>
	<clipPath id="z38469c3"><use xlink:href="#z38469d3"/></clipPath>
	<clipPath id="z38469c4"><use xlink:href="#z38469d4"/></clipPath>
	<clipPath id="z38469c5"><use xlink:href="#z38469d5"/></clipPath>
	<clipPath id="z38469c6"><use xlink:href="#z38469d6"/></clipPath>
	<clipPath id="z38469c7"><use xlink:href="#z38469d7"/></clipPath>
</defs>
<path style="--d:1s;" pathLength="3333" clip-path="url(#z38469c1)" d="M209 151L331 124L369 156L301 268L362 386L365 454L346 468L235 431"/>
<path style="--d:2s;" pathLength="3333" clip-path="url(#z38469c2)" d="M134 124L174 170L184 248L165 832"/>
<path style="--d:3s;" pathLength="3333" clip-path="url(#z38469c3)" d="M482 240L568 247L787 209"/>
<path style="--d:4s;" pathLength="3333" clip-path="url(#z38469c4)" d="M423 417L478 426L816 377L912 391"/>
<path style="--d:5s;" pathLength="3333" clip-path="url(#z38469c5)" d="M602 428L650 471L632 788L608 819L488 749"/>
<path style="--d:6s;" pathLength="3333" clip-path="url(#z38469c6)" d="M457 550L378 722"/>
<path style="--d:7s;" pathLength="3333" clip-path="url(#z38469c7)" d="M761 530L874 636L913 720"/>
</svg>