<!--
AnimCJK 2016-2019 Copyright Francois Mizessyn - https://github.com/parsimonhi/animCJK
Derived from:
    MakeMeAHanzi project - https://github.com/skishore/makemeahanzi
    Arphic PL KaitiM GB font
    Arphic PL UKai font
You can redistribute and/or modify this file under the terms of the Arphic Public License
as published by Arphic Technology Co., Ltd.
You should have received a copy of this license along with this file.
If not, see http://ftp.gnu.org/non-gnu/chinese-fonts-truetype/LICENSE.
-->
<svg id="z38470" class="acjk" version="1.1" viewBox="0 0 1024 1024" xmlns="http://www.w3.org/2000/svg" xmlns:xlink="http://www.w3.org/1999/xlink">
<style>
<![CDATA[
@keyframes zk {
	to {
		stroke-dashoffset:0;
	}
}
svg.acjk path[clip-path] {
	--t:0.8s;
	animation:zk var(--t) linear forwards var(--d);
	stroke-dasharray:3337;
	stroke-dashoffset:3339;
	stroke-width:128;
	stroke-linecap:round;
	fill:none;
	stroke:#000;
}
svg.acjk path[id] {fill:#ccc;}
]]>
</style>
<path id="z38470d1" d="M236 213Q270 206 307 187Q323 177 333 187Q337 193 330 210Q314 247 300 285Q287 309 301 329Q335 380 346 409Q352 425 344 434Q338 446 314 443Q284 439 252 440Q228 440 255 454Q312 479 364 511Q379 524 391 510Q404 500 411 476Q423 425 358 344Q315 311 343 269Q386 202 410 187Q429 174 419 160Q406 142 367 123Q346 116 332 127Q284 166 212 185C200 187 224 215 236 213Z"/>
<path id="z38470d2" d="M212 185Q190 169 164 161Q154 158 146 168Q142 175 151 187Q199 289 187 578Q186 591 185 605Q181 699 153 791Q144 821 150 843Q160 880 174 895Q187 910 198 894Q231 857 232 696Q226 288 236 220Q236 216 236 213C236 201 222 192 212 185Z"/>
<path id="z38470d3" d="M663 370Q828 333 830 331Q840 322 835 313Q828 300 796 292Q765 285 731 297Q697 309 664 319C631 327 631 327 614 331Q547 346 467 352Q427 359 456 377Q492 399 578 386Q594 382 614 380C647 373 647 373 663 370Z"/>
<path id="z38470d4" d="M658 532Q746 519 877 516Q938 516 945 505Q949 492 932 479Q875 439 809 458Q748 470 660 489C629 495 629 495 613 498Q504 516 376 537Q354 540 371 557Q407 587 444 575Q523 551 613 539C643 534 643 534 658 532Z"/>
<path id="z38470d5" d="M651 753Q655 639 658 532C659 503 659 503 660 489Q661 428 663 370C664 336 664 336 664 319Q664 294 689 168Q693 155 669 139Q629 118 602 113Q583 110 574 120Q565 129 575 145Q611 199 611 234Q612 280 614 331C614 364 614 364 614 380Q614 438 613 498C613 525 613 525 613 539Q610 647 604 763C604 779 651 769 651 753Z"/>
<path id="z38470d6" d="M813 729Q726 738 651 753C620 760 620 760 604 763Q541 773 487 791Q465 797 471 771Q475 734 482 696Q486 671 476 655Q460 637 435 622Q422 615 412 618Q400 622 408 643Q430 692 421 742Q414 788 395 809Q376 828 383 843Q395 859 413 871Q428 880 438 870Q477 831 693 784Q789 766 813 772C827 775 827 726 813 729Z"/>
<path id="z38470d7" d="M813 772Q804 832 831 872C832 873 832 873 833 874Q843 889 855 875Q874 847 868 761Q865 653 874 625Q880 609 867 597Q845 584 810 570Q797 564 785 572Q778 578 782 590Q801 609 813 729C813 758 813 758 813 772Z"/>
<defs>
	<clipPath id="z38470c1"><use xlink:href="#z38470d1"/></clipPath>
	<clipPath id="z38470c2"><use xlink:href="#z38470d2"/></clipPath>
	<clipPath id="z38470c3"><use xlink:href="#z38470d3"/></clipPath>
	<clipPath id="z38470c4"><use xlink:href="#z38470d4"/></clipPath>
	<clipPath id="z38470c5"><use xlink:href="#z38470d5"/></clipPath>
	<clipPath id="z38470c6"><use xlink:href="#z38470d6"/></clipPath>
	<clipPath id="z38470c7"><use xlink:href="#z38470d7"/></clipPath>
</defs>
<path style="--d:1s;" pathLength="3333" clip-path="url(#z38470c1)" d="M220 186L341 155L377 176L313 301L373 410L370 468L249 446"/>
<path style="--d:2s;" pathLength="3333" clip-path="url(#z38470c2)" d="M152 170L202 226L207 325L206 666L180 896"/>
<path style="--d:3s;" pathLength="3333" clip-path="url(#z38470c3)" d="M455 365L830 319"/>
<path style="--d:4s;" pathLength="3333" clip-path="url(#z38470c4)" d="M372 543L428 553L842 484L939 495"/>
<path style="--d:5s;" pathLength="3333" clip-path="url(#z38470c5)" d="M577 129L646 184L616 760"/>
<path style="--d:6s;" pathLength="3333" clip-path="url(#z38470c6)" d="M411 625L450 675L431 817L450 833L586 787L812 751"/>
<path style="--d:7s;" pathLength="3333" clip-path="url(#z38470c7)" d="M787 578L838 629L847 876"/>
</svg>