<!--
AnimCJK 2016-2019 Copyright Francois Mizessyn - https://github.com/parsimonhi/animCJK
Derived from:
    MakeMeAHanzi project - https://github.com/skishore/makemeahanzi
    Arphic PL KaitiM GB font
    Arphic PL UKai font
You can redistribute and/or modify this file under the terms of the Arphic Public License
as published by Arphic Technology Co., Ltd.
You should have received a copy of this license along with this file.
If not, see http://ftp.gnu.org/non-gnu/chinese-fonts-truetype/LICENSE.
-->
<svg id="z38495" class="acjk" version="1.1" viewBox="0 0 1024 1024" xmlns="http://www.w3.org/2000/svg" xmlns:xlink="http://www.w3.org/1999/xlink">
<style>
<![CDATA[
@keyframes zk {
	to {
		stroke-dashoffset:0;
	}
}
svg.acjk path[clip-path] {
	--t:0.8s;
	animation:zk var(--t) linear forwards var(--d);
	stroke-dasharray:3337;
	stroke-dashoffset:3339;
	stroke-width:128;
	stroke-linecap:round;
	fill:none;
	stroke:#000;
}
svg.acjk path[id] {fill:#ccc;}
]]>
</style>
<path id="z38495d1" d="M206 259Q207 258 211 257Q250 247 288 225Q303 215 313 223Q320 230 311 249Q293 289 279 330Q269 354 282 371Q337 455 322 472Q316 482 294 481Q266 478 235 480Q213 481 239 493Q291 515 340 545Q353 557 365 544Q378 535 384 511Q396 460 339 390Q303 345 312 326Q312 307 363 245Q375 227 386 219Q404 206 393 194Q380 178 342 161Q323 155 310 166Q265 209 203 227C193 230 196 263 206 259Z"/>
<path id="z38495d2" d="M203 227Q178 202 142 192Q132 191 126 199Q122 205 130 216Q190 357 151 686Q142 738 125 791Q118 819 122 839Q132 873 144 887Q156 902 166 887Q197 850 199 628Q199 333 206 259C206 248 212 233 203 227Z"/>
<path id="z38495d3" d="M645 392Q648 337 652 284C653 265 653 265 654 256Q654 255 669 150Q672 140 653 126Q619 110 597 105Q581 102 574 111Q567 118 575 132Q593 154 594 171Q604 277 604 400C604 414 645 406 645 392Z"/>
<path id="z38495d4" d="M652 284Q688 287 755 268Q776 261 799 254Q815 248 818 246Q825 237 820 230Q813 220 785 217Q781 217 654 256C645 259 643 284 652 284Z"/>
<path id="z38495d5" d="M519 415Q509 316 512 298Q513 279 501 270Q482 257 458 250Q446 247 439 252Q433 258 439 270Q461 301 485 421C487 432 519 427 519 415Z"/>
<path id="z38495d6" d="M621 431Q739 409 881 408Q900 408 904 399Q908 389 893 377Q844 343 775 363Q721 375 645 392C618 397 618 397 604 400Q561 407 519 415C496 419 496 419 485 421Q442 427 398 436Q379 439 394 453Q407 465 424 469Q443 473 457 468Q517 449 586 437C609 433 609 433 621 431Z"/>
<path id="z38495d7" d="M597 620Q590 650 607 686Q611 696 616 699Q620 703 625 698Q629 695 637 682Q638 673 646 514Q647 489 652 473Q658 463 655 454Q651 448 621 431C611 425 582 426 586 437Q599 461 600 604Q599 611 597 620Z"/>
<path id="z38495d8" d="M469 538Q441 590 406 635Q382 663 399 695Q403 713 424 703Q475 672 487 593Q494 563 490 540Q486 533 481 531Q474 531 469 538Z"/>
<path id="z38495d9" d="M753 495Q738 663 538 816Q534 817 531 821Q476 867 343 937Q333 944 340 948Q347 952 360 949Q448 930 526 883Q604 843 658 782Q718 721 783 613Q804 582 829 552Q839 543 835 531Q831 518 801 494Q779 476 769 477Q753 478 753 495Z"/>
<defs>
	<clipPath id="z38495c1"><use xlink:href="#z38495d1"/></clipPath>
	<clipPath id="z38495c2"><use xlink:href="#z38495d2"/></clipPath>
	<clipPath id="z38495c3"><use xlink:href="#z38495d3"/></clipPath>
	<clipPath id="z38495c4"><use xlink:href="#z38495d4"/></clipPath>
	<clipPath id="z38495c5"><use xlink:href="#z38495d5"/></clipPath>
	<clipPath id="z38495c6"><use xlink:href="#z38495d6"/></clipPath>
	<clipPath id="z38495c7"><use xlink:href="#z38495d7"/></clipPath>
	<clipPath id="z38495c8"><use xlink:href="#z38495d8"/></clipPath>
	<clipPath id="z38495c9"><use xlink:href="#z38495d9"/></clipPath>
</defs>
<path style="--d:1s;" pathLength="3333" clip-path="url(#z38495c1)" d="M211 250L308 193L355 213L293 334L352 458L347 501L332 513L234 484"/>
<path style="--d:2s;" pathLength="3333" clip-path="url(#z38495c2)" d="M132 201L174 246L182 349L151 888"/>
<path style="--d:3s;" pathLength="3333" clip-path="url(#z38495c3)" d="M577 117L631 157L615 394"/>
<path style="--d:4s;" pathLength="3333" clip-path="url(#z38495c4)" d="M660 276L817 235"/>
<path style="--d:5s;" pathLength="3333" clip-path="url(#z38495c5)" d="M443 260L483 294L495 416"/>
<path style="--d:6s;" pathLength="3333" clip-path="url(#z38495c6)" d="M398 447L806 383L900 397"/>
<path style="--d:7s;" pathLength="3333" clip-path="url(#z38495c7)" d="M594 439L625 467L622 695"/>
<path style="--d:8s;" pathLength="3333" clip-path="url(#z38495c8)" d="M482 536L407 701"/>
<path style="--d:9s;" pathLength="3333" clip-path="url(#z38495c9)" d="M766 482L789 542L661 740L533 851L344 944"/>
</svg>