<!--
AnimCJK 2016-2019 Copyright Francois Mizessyn - https://github.com/parsimonhi/animCJK
Derived from:
    MakeMeAHanzi project - https://github.com/skishore/makemeahanzi
    Arphic PL KaitiM GB font
    Arphic PL UKai font
You can redistribute and/or modify this file under the terms of the Arphic Public License
as published by Arphic Technology Co., Ltd.
You should have received a copy of this license along with this file.
If not, see http://ftp.gnu.org/non-gnu/chinese-fonts-truetype/LICENSE.
-->
<svg id="z38503" class="acjk" version="1.1" viewBox="0 0 1024 1024" xmlns="http://www.w3.org/2000/svg" xmlns:xlink="http://www.w3.org/1999/xlink">
<style>
<![CDATA[
@keyframes zk {
	to {
		stroke-dashoffset:0;
	}
}
svg.acjk path[clip-path] {
	--t:0.8s;
	animation:zk var(--t) linear forwards var(--d);
	stroke-dasharray:3337;
	stroke-dashoffset:3339;
	stroke-width:128;
	stroke-linecap:round;
	fill:none;
	stroke:#000;
}
svg.acjk path[id] {fill:#ccc;}
]]>
</style>
<path id="z38503d1" d="M329 492Q323 502 301 501Q273 498 243 500Q221 501 247 513Q299 535 349 565Q365 577 377 563Q392 553 397 525Q406 468 340 393Q292 345 317 309Q357 237 382 219Q400 206 390 194Q377 178 339 161Q320 154 306 165Q260 205 194 224C184 228 199 254 210 252Q244 242 282 223Q298 213 308 222Q314 228 306 248Q264 347 275 367Q275 368 278 372Q345 469 329 492Z"/>
<path id="z38503d2" d="M194 224Q170 205 141 197Q131 194 124 204Q120 210 129 222Q159 289 160 362Q172 654 130 795Q123 823 128 845Q138 882 151 895Q164 910 174 895Q201 859 206 716Q206 284 210 252C212 241 203 230 194 224Z"/>
<path id="z38503d3" d="M472 200Q459 196 436 191Q424 188 421 193Q414 200 423 215Q456 287 473 402Q476 436 496 460Q514 482 519 467Q523 455 523 439C522 422 522 422 522 414Q521 405 508 333C505 318 505 318 504 310Q494 255 492 233C490 220 485 203 472 200Z"/>
<path id="z38503d4" d="M686 420Q702 444 717 451Q727 458 742 438Q757 413 787 273Q796 243 819 218Q832 206 821 193Q805 177 763 150Q748 143 670 161Q667 161 557 183Q511 193 472 200C459 203 481 240 492 233Q504 221 691 193Q718 189 727 197Q740 213 737 229Q715 361 698 386C692 396 679 410 686 420Z"/>
<path id="z38503d5" d="M508 333Q512 334 524 333Q609 320 671 311Q693 307 685 295Q675 282 651 277Q624 274 504 310C497 312 500 333 508 333Z"/>
<path id="z38503d6" d="M523 439Q530 439 540 439Q619 427 686 420C698 418 709 390 698 386Q697 385 693 384Q683 381 522 414C514 416 515 439 523 439Z"/>
<path id="z38503d7" d="M625 786Q631 716 637 649C640 616 640 616 641 599Q641 596 642 595Q649 552 656 531Q659 521 640 507Q607 488 585 484Q569 481 562 489Q555 496 562 510Q580 535 581 553Q582 581 584 612C585 642 585 642 585 657Q586 721 585 791C585 804 625 799 625 786Z"/>
<path id="z38503d8" d="M637 649Q686 639 739 632Q785 623 793 617Q803 610 799 600Q792 587 762 579Q741 573 641 599C603 608 603 608 584 612Q520 622 447 627Q410 631 436 650Q475 674 551 662Q567 659 585 657C620 652 620 652 637 649Z"/>
<path id="z38503d9" d="M585 791Q473 803 341 817Q319 818 335 837Q350 852 368 858Q390 864 407 859Q554 825 851 824Q867 824 884 826Q905 826 910 817Q916 805 899 791Q845 749 807 757Q738 770 625 786C598 789 598 789 585 791Z"/>
<defs>
	<clipPath id="z38503c1"><use xlink:href="#z38503d1"/></clipPath>
	<clipPath id="z38503c2"><use xlink:href="#z38503d2"/></clipPath>
	<clipPath id="z38503c3"><use xlink:href="#z38503d3"/></clipPath>
	<clipPath id="z38503c4"><use xlink:href="#z38503d4"/></clipPath>
	<clipPath id="z38503c5"><use xlink:href="#z38503d5"/></clipPath>
	<clipPath id="z38503c6"><use xlink:href="#z38503d6"/></clipPath>
	<clipPath id="z38503c7"><use xlink:href="#z38503d7"/></clipPath>
	<clipPath id="z38503c8"><use xlink:href="#z38503d8"/></clipPath>
	<clipPath id="z38503c9"><use xlink:href="#z38503d9"/></clipPath>
</defs>
<path style="--d:1s;" pathLength="3333" clip-path="url(#z38503c1)" d="M203 225L316 189L351 213L291 348L352 451L361 512L335 534L241 505"/>
<path style="--d:2s;" pathLength="3333" clip-path="url(#z38503c2)" d="M130 204L174 252L183 325L161 897"/>
<path style="--d:3s;" pathLength="3333" clip-path="url(#z38503c3)" d="M425 198L465 244L506 468"/>
<path style="--d:4s;" pathLength="3333" clip-path="url(#z38503c4)" d="M481 201L716 171L772 197L706 441"/>
<path style="--d:5s;" pathLength="3333" clip-path="url(#z38503c5)" d="M510 318L682 296"/>
<path style="--d:6s;" pathLength="3333" clip-path="url(#z38503c6)" d="M529 431L691 394"/>
<path style="--d:7s;" pathLength="3333" clip-path="url(#z38503c7)" d="M566 495L617 535L596 788"/>
<path style="--d:8s;" pathLength="3333" clip-path="url(#z38503c8)" d="M432 636L521 643L795 606"/>
<path style="--d:9s;" pathLength="3333" clip-path="url(#z38503c9)" d="M336 826L393 836L812 790L906 803"/>
</svg>