<!--
AnimCJK 2016-2026 Copyright FM-SH - https://github.com/parsimonhi/animCJK
Derived from:
    MakeMeAHanzi project - https://github.com/skishore/makemeahanzi
    Arphic PL KaitiM GB font
    Arphic PL KaitiM Big5 font
You can redistribute and/or modify this file under the terms of the Arphic Public License
as published by Arphic Technology Co., Ltd.
You should have received a copy of this license along with this file.
If not, see https://ftp.gnu.org/non-gnu/chinese-fonts-truetype/LICENSE.
-->
<svg id="z38517" class="acjk" viewBox="0 0 1024 1024" xmlns="http://www.w3.org/2000/svg">
<style>
<![CDATA[
@keyframes zk {
	to {
		stroke-dashoffset:0;
	}
}
svg.acjk path[clip-path] {
	--t:0.8s;
	animation:zk var(--t) linear forwards var(--d);
	stroke-dasharray:3337;
	stroke-dashoffset:3339;
	stroke-width:128;
	stroke-linecap:round;
	fill:none;
	stroke:#000;
}
svg.acjk path[id] {fill:#ccc;}
]]>
</style>
<path id="z38517d1" d="M216 251C240 245 266 236 294 224C310 216 325 217 317 236C313 247 306 264 295 287C275 323 263 343 276 361C300 396 316 425 323 446C331 472 317 481 296 478C279 475 261 473 244 473C227 472 228 476 246 486C278 502 310 522 340 545C350 552 358 551 367 544C375 536 382 526 386 510C393 472 376 427 333 381C305 351 302 329 321 306C353 265 376 238 394 227C406 218 409 211 404 203C395 190 379 177 356 165C343 158 331 159 322 168C289 193 250 212 203 222C193 224 206 253 216 251Z"/>
<path id="z38517d2" d="M203 222C178 197 121 176 135 216C152 268 155 279 161 317C165 347 154 637 143 731C131 821 128 850 153 887C160 898 171 901 180 891C194 873 200 821 201 738C201 695 216 265 216 251C216 240 211 228 203 222Z"/>
<path id="z38517d3" d="M636 256C717 239 757 224 759 223C774 211 750 191 728 189C711 187 683 193 641 206C604 217 604 217 585 222C552 231 515 234 476 240C453 242 449 251 467 262C502 285 535 276 586 266C619 259 619 259 636 256Z"/>
<path id="z38517d4" d="M626 348C628 316 633 285 636 256C639 223 639 223 641 206C643 185 650 145 656 119C661 99 664 88 645 76C623 61 603 55 588 52C570 47 550 56 564 79C589 121 583 174 585 222C586 251 586 251 586 266C586 294 584 325 584 357C584 371 626 362 626 348Z"/>
<path id="z38517d5" d="M584 357C522 370 456 382 386 395C373 397 371 403 382 413C398 429 424 435 457 425C562 391 687 371 833 371C835 371 838 370 842 370C854 369 862 366 865 361C868 353 863 345 853 338C816 313 783 308 753 318C719 328 676 337 626 348C598 354 598 354 584 357Z"/>
<path id="z38517d6" d="M349 617C342 624 347 631 355 627C435 583 479 522 518 498C547 479 506 460 494 454C467 439 460 445 460 458C458 505 403 557 349 617Z"/>
<path id="z38517d7" d="M684 454C720 476 759 506 803 542C817 553 834 570 848 549C853 539 851 523 840 498C826 466 773 443 680 426C673 424 670 426 671 434C671 442 676 449 684 454Z"/>
<path id="z38517d8" d="M567 586C576 573 584 564 590 558C603 542 599 530 568 522C551 517 539 516 532 519C527 520 525 524 524 532C512 600 437 694 303 817C292 826 294 830 310 826C383 804 446 738 494 682C501 673 501 673 505 669C517 654 535 629 546 615C560 596 560 596 567 586Z"/>
<path id="z38517d9" d="M655 778C677 745 696 703 718 654C725 636 736 622 750 612C762 601 765 592 757 584C749 575 735 567 717 560C702 553 686 556 669 563C636 575 601 580 567 586C555 588 534 613 546 615C564 619 586 621 610 614C631 607 643 600 648 601C664 603 668 613 664 630C652 674 638 713 619 746C604 767 604 767 597 778C555 827 503 860 414 888C387 897 392 909 417 909C515 908 577 862 627 814C646 790 646 790 655 778Z"/>
<path id="z38517d10" d="M627 814C692 892 745 929 779 930C824 930 867 926 907 921C947 915 936 905 906 894C882 885 843 872 791 856C763 847 710 827 655 778C631 757 631 757 619 746C603 732 589 717 574 703C530 660 516 668 505 669C499 670 489 680 494 682C512 690 548 720 597 778C617 802 617 802 627 814Z"/>
<defs>
	<clipPath id="z38517c1"><use href="#z38517d1"/></clipPath>
	<clipPath id="z38517c2"><use href="#z38517d2"/></clipPath>
	<clipPath id="z38517c3"><use href="#z38517d3"/></clipPath>
	<clipPath id="z38517c4"><use href="#z38517d4"/></clipPath>
	<clipPath id="z38517c5"><use href="#z38517d5"/></clipPath>
	<clipPath id="z38517c6"><use href="#z38517d6"/></clipPath>
	<clipPath id="z38517c7"><use href="#z38517d7"/></clipPath>
	<clipPath id="z38517c8"><use href="#z38517d8"/></clipPath>
	<clipPath id="z38517c9"><use href="#z38517d9"/></clipPath>
	<clipPath id="z38517c10"><use href="#z38517d10"/></clipPath>
</defs>
<path style="--d:1s;" pathLength="3333" clip-path="url(#z38517c1)" d="M203 230L331 192L362 216L289 341L348 442L349 500L333 512L239 477"/>
<path style="--d:2s;" pathLength="3333" clip-path="url(#z38517c2)" d="M140 201L180 244L187 304L165 892"/>
<path style="--d:3s;" pathLength="3333" clip-path="url(#z38517c3)" d="M465 250L760 214"/>
<path style="--d:4s;" pathLength="3333" clip-path="url(#z38517c4)" d="M565 62L619 104L600 361"/>
<path style="--d:5s;" pathLength="3333" clip-path="url(#z38517c5)" d="M384 404L757 344L861 351"/>
<path style="--d:6s;" pathLength="3333" clip-path="url(#z38517c6)" d="M468 451L485 494L352 622"/>
<path style="--d:7s;" pathLength="3333" clip-path="url(#z38517c7)" d="M678 430L797 496L840 553"/>
<path style="--d:8s;" pathLength="3333" clip-path="url(#z38517c8)" d="M531 526L554 558L488 654L302 822"/>
<path style="--d:9s;" pathLength="3333" clip-path="url(#z38517c9)" d="M547 609L685 583L711 615L594 814L512 870L405 901"/>
<path style="--d:10s;" pathLength="3333" clip-path="url(#z38517c10)" d="M498 679L532 688L741 876L925 908"/>
</svg>