<!--
AnimCJK 2016-2018 Copyright Francois Mizessyn - https://github.com/parsimonhi/animCJK
Derived from:
    MakeMeAHanzi project - https://github.com/skishore/makemeahanzi
    Arphic PL KaitiM GB - https://apps.ubuntu.com/cat/applications/precise/fonts-arphic-gkai00mp/
    Arphic PL UKai - https://apps.ubuntu.com/cat/applications/fonts-arphic-ukai/
You can redistribute and/or modify this file under the terms of the Arphic Public License
as published by Arphic Technology Co., Ltd.
You should have received a copy of this license (the directory "APL") along with this file;
if not, see http://ftp.gnu.org/non-gnu/chinese-fonts-truetype/LICENSE.
-->
<svg id="z38599" class="acjk" version="1.1" viewBox="0 0 1024 1024" xmlns="http://www.w3.org/2000/svg" xmlns:xlink="http://www.w3.org/1999/xlink">
<style>
<![CDATA[
@keyframes z38599k {
	from {
		stroke:#ccc;
		stroke-dashoffset:3334;
	}
	1% {
		stroke:#c00;
		stroke-dashoffset:3334;
	}
	75% {
		stroke:#c00;
		stroke-dashoffset:0;
	}
	to {
		stroke:#000;
	}
}
#z38599 path[clip-path] {
	animation:z38599k 1s linear both;
	stroke-dasharray:3334;
	stroke-width:128;
	stroke-linecap:round;
	fill:none;
}
#z38599 path[clip-path="url(#z38599c1)"] {animation-delay:1s;}
#z38599 path[clip-path="url(#z38599c2)"] {animation-delay:2s;}
#z38599 path[clip-path="url(#z38599c3)"] {animation-delay:3s;}
#z38599 path[clip-path="url(#z38599c4)"] {animation-delay:4s;}
#z38599 path[clip-path="url(#z38599c5)"] {animation-delay:5s;}
#z38599 path[clip-path="url(#z38599c6)"] {animation-delay:6s;}
#z38599 path[clip-path="url(#z38599c7)"] {animation-delay:7s;}
#z38599 path[clip-path="url(#z38599c8)"] {animation-delay:8s;}
#z38599 path[clip-path="url(#z38599c9)"] {animation-delay:9s;}
#z38599 path[clip-path="url(#z38599c10)"] {animation-delay:10s;}
#z38599 path[clip-path="url(#z38599c11)"] {animation-delay:11s;}
#z38599 path[clip-path="url(#z38599c12)"] {animation-delay:12s;}
#z38599 path {fill:#ccc;}
]]>
</style>
<path id="z38599d1" d="M519 95Q544 113 571 135Q587 148 605 145Q617 144 621 128Q624 112 610 80Q603 62 571 52Q495 37 484 45Q478 49 482 63Q488 75 519 95 Z"/>
<path id="z38599d2" d="M694 304Q724 250 750 239Q769 221 755 202Q739 186 686 157Q667 148 645 155Q548 194 380 215L383 246Q396 247 621 205Q646 201 655 210Q662 219 637 296L694 304 Z"/>
<path id="z38599d3" d="M349 389Q367 395 383 392Q483 364 704 337Q714 336 716 326Q716 319 694 304L637 296Q634 296 633 297Q479 339 356 358L349 389 Z"/>
<path id="z38599d4" d="M380 215Q364 199 338 183Q319 170 305 174Q292 181 298 196Q314 224 309 278Q276 506 217 635Q163 747 70 865Q63 871 61 877Q57 889 69 887Q85 887 130 839Q283 698 349 389L356 358Q363 321 370 287Q374 268 381 249Q382 248 383 246L380 215 Z"/>
<path id="z38599d5" d="M396 573Q418 548 444 514Q460 490 473 480Q480 471 478 459Q474 449 451 428Q429 412 413 411Q397 412 404 431Q416 459 357 553Q329 596 291 642Q282 651 280 656Q276 665 288 663Q309 660 371 599L396 573 Z"/>
<path id="z38599d6" d="M432 839Q436 691 443 653Q450 628 441 618Q425 599 412 586Q405 577 396 573L371 599Q390 650 391 704Q390 713 390 723Q389 807 366 893Q354 942 389 983L390 985Q406 1000 418 975Q430 938 431 861L432 839 Z"/>
<path id="z38599d7" d="M583 415Q607 431 633 452Q643 461 655 459Q662 458 666 448Q667 436 659 416Q653 400 628 391Q568 376 560 382Q556 385 558 394Q562 401 583 415 Z"/>
<path id="z38599d8" d="M641 522Q699 509 759 497Q798 487 803 482Q810 475 807 467Q800 457 774 450Q750 444 652 476Q553 497 512 502Q478 508 503 523Q542 544 592 532Q593 531 596 532L641 522 Z"/>
<path id="z38599d9" d="M660 625Q715 613 766 606Q791 602 781 588Q771 573 743 568Q712 565 662 581L607 596Q552 609 504 622Q486 626 508 642Q521 651 547 646Q577 639 607 635L660 625 Z"/>
<path id="z38599d10" d="M655 723Q727 710 789 701Q814 698 805 684Q795 668 767 663Q749 660 657 681L607 693Q546 705 492 718Q474 722 496 738Q509 748 540 743Q574 736 607 731L655 723 Z"/>
<path id="z38599d11" d="M650 811Q651 765 655 723L657 681Q658 651 660 625L662 581Q668 548 662 540Q652 530 641 522L596 532Q605 547 607 596L607 635Q607 659 607 693L607 731Q607 768 607 817L650 811 Z"/>
<path id="z38599d12" d="M607 817Q525 826 432 839L431 861Q458 885 494 877Q620 843 895 843Q914 843 919 834Q923 824 908 810Q854 768 794 786Q736 796 650 811L607 817 Z"/>
<defs>
	<clipPath id="z38599c1"><use xlink:href="#z38599d1"/></clipPath>
	<clipPath id="z38599c2"><use xlink:href="#z38599d2"/></clipPath>
	<clipPath id="z38599c3"><use xlink:href="#z38599d3"/></clipPath>
	<clipPath id="z38599c4"><use xlink:href="#z38599d4"/></clipPath>
	<clipPath id="z38599c5"><use xlink:href="#z38599d5"/></clipPath>
	<clipPath id="z38599c6"><use xlink:href="#z38599d6"/></clipPath>
	<clipPath id="z38599c7"><use xlink:href="#z38599d7"/></clipPath>
	<clipPath id="z38599c8"><use xlink:href="#z38599d8"/></clipPath>
	<clipPath id="z38599c9"><use xlink:href="#z38599d9"/></clipPath>
	<clipPath id="z38599c10"><use xlink:href="#z38599d10"/></clipPath>
	<clipPath id="z38599c11"><use xlink:href="#z38599d11"/></clipPath>
	<clipPath id="z38599c12"><use xlink:href="#z38599d12"/></clipPath>
</defs>
<path pathLength="3333" clip-path="url(#z38599c1)" d="M488 51L568 87L609 139"/>
<path pathLength="3333" clip-path="url(#z38599c2)" d="M388 239L666 181L708 225L652 297"/>
<path pathLength="3333" clip-path="url(#z38599c3)" d="M359 385L643 320L710 327"/>
<path pathLength="3333" clip-path="url(#z38599c4)" d="M307 179L345 251L272 566L190 734L64 879"/>
<path pathLength="3333" clip-path="url(#z38599c5)" d="M411 415L437 472L289 657"/>
<path pathLength="3333" clip-path="url(#z38599c6)" d="M391 584L416 646L396 984"/>
<path pathLength="3333" clip-path="url(#z38599c7)" d="M561 388L656 452"/>
<path pathLength="3333" clip-path="url(#z38599c8)" d="M505 513L804 472"/>
<path pathLength="3333" clip-path="url(#z38599c9)" d="M502 627L777 594"/>
<path pathLength="3333" clip-path="url(#z38599c10)" d="M490 723L801 687"/>
<path pathLength="3333" clip-path="url(#z38599c11)" d="M603 535L635 565L620 813"/>
<path pathLength="3333" clip-path="url(#z38599c12)" d="M437 847L826 812L915 822"/>
</svg>