<!--
AnimCJK 2016-2025 Copyright FM-SH - https://github.com/parsimonhi/animCJK
Derived from:
    MakeMeAHanzi project - https://github.com/skishore/makemeahanzi
    Arphic PL KaitiM GB font
    Arphic PL UKai font
You can redistribute and/or modify this file under the terms of the Arphic Public License
as published by Arphic Technology Co., Ltd.
You should have received a copy of this license along with this file.
If not, see http://ftp.gnu.org/non-gnu/chinese-fonts-truetype/LICENSE.
-->
<svg id="z38604" class="acjk" version="1.1" viewBox="0 0 1024 1024" xmlns="http://www.w3.org/2000/svg" xmlns:xlink="http://www.w3.org/1999/xlink">
<style>
<![CDATA[
@keyframes zk {
	to {
		stroke-dashoffset:0;
	}
}
svg.acjk path[clip-path] {
	--t:0.8s;
	animation:zk var(--t) linear forwards var(--d);
	stroke-dasharray:3337;
	stroke-dashoffset:3339;
	stroke-width:128;
	stroke-linecap:round;
	fill:none;
	stroke:#000;
}
svg.acjk path[id] {fill:#ccc;}
]]>
</style>
<path id="z38604d1" d="M251 591C253 524 254 459 256 396C257 373 257 373 257 361C258 312 261 265 272 220C273 213 269 204 257 197C235 184 216 180 202 178C191 176 184 177 180 183C175 187 175 194 181 203C197 226 206 245 207 261C213 367 215 482 213 606C213 620 251 605 251 591Z"/>
<path id="z38604d2" d="M256 396C282 389 307 384 330 380C344 376 348 370 342 363C334 354 322 349 306 349C293 348 277 353 257 361C246 365 245 398 256 396Z"/>
<path id="z38604d3" d="M166 625C158 517 154 448 158 420C159 405 156 394 147 387C132 376 116 367 98 362C89 359 81 359 76 364C71 367 71 374 76 384C88 406 99 430 105 456C110 480 117 541 128 639C130 652 166 638 166 625Z"/>
<path id="z38604d4" d="M128 639C117 642 107 646 98 651C88 656 74 657 57 659C48 659 44 665 44 672C43 680 46 687 53 691C67 699 85 710 109 719C115 721 122 716 130 711C193 667 258 625 322 581C330 575 335 568 333 564C330 559 323 560 316 563C295 570 274 581 251 591C226 601 226 601 213 606C196 612 181 619 166 625C141 634 141 634 128 639Z"/>
<path id="z38604d5" d="M402 374Q457 362 514 351Q520 344 516 337Q509 328 485 326Q458 325 418 344Q411 344 403 348C395 351 393 376 402 374Z"/>
<path id="z38604d6" d="M403 348Q406 225 416 181Q420 160 406 148Q379 123 360 119Q347 116 341 121Q331 128 342 143Q361 180 361 213Q376 577 337 638Q324 660 333 683Q346 717 365 729Q377 736 389 716Q414 676 501 575Q519 559 519 550Q520 537 499 550Q468 569 434 589Q418 602 409 598Q402 594 401 577Q401 459 402 374C403 357 403 357 403 348Z"/>
<path id="z38604d7" d="M556 387C563 377 568 365 576 355C604 312 635 259 665 196C678 166 689 144 701 129C706 121 706 112 703 105C699 96 686 85 666 74C647 63 631 58 619 61C606 62 604 72 612 86C620 100 624 121 617 148C590 243 539 347 467 461C462 468 457 473 457 478C456 485 460 489 468 486C482 480 505 458 534 418C549 397 549 397 556 387Z"/>
<path id="z38604d8" d="M603 742C603 599 601 509 608 473C611 454 608 437 595 424C572 400 559 389 556 387C546 379 529 406 534 418C554 464 564 508 564 551C564 655 554 746 536 825C527 858 535 888 558 915C559 916 560 918 562 920C572 930 583 927 590 910C599 886 603 840 603 773C603 752 603 752 603 742Z"/>
<path id="z38604d9" d="M733 206C767 244 789 265 801 267C807 267 813 263 817 255C821 246 821 231 817 212C812 193 784 176 733 160C723 156 715 155 712 157C708 158 706 165 707 173C707 179 718 189 733 206Z"/>
<path id="z38604d10" d="M751 360C844 337 890 323 892 323C896 318 898 312 895 307C890 299 878 293 860 290C845 287 807 299 745 316C685 331 649 334 640 336C615 340 613 347 631 358C653 370 681 376 714 369C739 363 739 363 751 360Z"/>
<path id="z38604d11" d="M775 487C799 482 821 477 843 474C858 471 863 465 857 456C849 445 836 438 819 437C806 435 791 436 776 442C745 452 745 452 730 457C703 465 678 474 655 482C643 485 645 490 660 501C665 504 687 502 730 495C760 490 760 490 775 487Z"/>
<path id="z38604d12" d="M771 611C799 605 825 601 850 598C866 595 871 589 865 580C858 570 845 562 827 560C812 557 793 559 772 566C743 575 743 575 729 579C700 587 673 595 648 602C636 605 637 611 652 622C658 626 667 627 681 625C681 625 712 619 729 617C742 614 744 616 771 611Z"/>
<path id="z38604d13" d="M769 712C769 676 770 642 771 611C772 581 772 581 772 566C772 537 774 511 775 487C776 457 776 457 776 442C776 414 786 394 777 381C768 371 759 365 751 360C740 353 709 357 714 369C720 383 730 412 730 457C730 482 730 482 730 495C730 517 729 544 729 579C729 604 729 604 729 617C729 651 729 720 729 720C729 734 769 726 769 712Z"/>
<path id="z38604d14" d="M729 720Q669 730 603 742C593 744 593 771 603 773Q622 779 685 766Q784 742 931 742Q947 741 952 734Q956 724 942 712Q888 679 837 696Q807 702 769 712C742 717 742 717 729 720Z"/>
<defs>
	<clipPath id="z38604c1"><use xlink:href="#z38604d1"/></clipPath>
	<clipPath id="z38604c2"><use xlink:href="#z38604d2"/></clipPath>
	<clipPath id="z38604c3"><use xlink:href="#z38604d3"/></clipPath>
	<clipPath id="z38604c4"><use xlink:href="#z38604d4"/></clipPath>
	<clipPath id="z38604c5"><use xlink:href="#z38604d5"/></clipPath>
	<clipPath id="z38604c6"><use xlink:href="#z38604d6"/></clipPath>
	<clipPath id="z38604c7"><use xlink:href="#z38604d7"/></clipPath>
	<clipPath id="z38604c8"><use xlink:href="#z38604d8"/></clipPath>
	<clipPath id="z38604c9"><use xlink:href="#z38604d9"/></clipPath>
	<clipPath id="z38604c10"><use xlink:href="#z38604d10"/></clipPath>
	<clipPath id="z38604c11"><use xlink:href="#z38604d11"/></clipPath>
	<clipPath id="z38604c12"><use xlink:href="#z38604d12"/></clipPath>
	<clipPath id="z38604c13"><use xlink:href="#z38604d13"/></clipPath>
	<clipPath id="z38604c14"><use xlink:href="#z38604d14"/></clipPath>
</defs>
<path style="--d:1s;" pathLength="3333" clip-path="url(#z38604c1)" d="M184 187L237 228L226 600"/>
<path style="--d:2s;" pathLength="3333" clip-path="url(#z38604c2)" d="M263 387L335 367"/>
<path style="--d:3s;" pathLength="3333" clip-path="url(#z38604c3)" d="M79 369L125 411L142 633"/>
<path style="--d:4s;" pathLength="3333" clip-path="url(#z38604c4)" d="M51 669L110 683L326 569"/>
<path style="--d:5s;" pathLength="3333" clip-path="url(#z38604c5)" d="M407 365L507 340"/>
<path style="--d:6s;" pathLength="3333" clip-path="url(#z38604c6)" d="M343 127L388 187L372 654L392 676L513 551"/>
<path style="--d:7s;" pathLength="3333" clip-path="url(#z38604c7)" d="M615 68L660 110L658 134L568 327L464 478"/>
<path style="--d:8s;" pathLength="3333" clip-path="url(#z38604c8)" d="M556 392L583 519L567 920"/>
<path style="--d:9s;" pathLength="3333" clip-path="url(#z38604c9)" d="M716 164L807 259"/>
<path style="--d:10s;" pathLength="3333" clip-path="url(#z38604c10)" d="M627 344L891 308"/>
<path style="--d:11s;" pathLength="3333" clip-path="url(#z38604c11)" d="M656 489L854 461"/>
<path style="--d:12s;" pathLength="3333" clip-path="url(#z38604c12)" d="M646 607L860 583"/>
<path style="--d:13s;" pathLength="3333" clip-path="url(#z38604c13)" d="M721 372L752 415L741 716"/>
<path style="--d:14s;" pathLength="3333" clip-path="url(#z38604c14)" d="M609 766L848 718L948 727"/>
</svg>