<!--
AnimCJK 2016-2018 Copyright Francois Mizessyn - https://github.com/parsimonhi/animCJK
Derived from:
    MakeMeAHanzi project - https://github.com/skishore/makemeahanzi
    Arphic PL KaitiM GB - https://apps.ubuntu.com/cat/applications/precise/fonts-arphic-gkai00mp/
    Arphic PL UKai - https://apps.ubuntu.com/cat/applications/fonts-arphic-ukai/
You can redistribute and/or modify this file under the terms of the Arphic Public License
as published by Arphic Technology Co., Ltd.
You should have received a copy of this license (the directory "APL") along with this file;
if not, see http://ftp.gnu.org/non-gnu/chinese-fonts-truetype/LICENSE.
-->
<svg id="z38610" class="acjk" version="1.1" viewBox="0 0 1024 1024" xmlns="http://www.w3.org/2000/svg" xmlns:xlink="http://www.w3.org/1999/xlink">
<style>
<![CDATA[
@keyframes z38610k {
	from {
		stroke:#ccc;
		stroke-dashoffset:3334;
	}
	1% {
		stroke:#c00;
		stroke-dashoffset:3334;
	}
	75% {
		stroke:#c00;
		stroke-dashoffset:0;
	}
	to {
		stroke:#000;
	}
}
#z38610 path[clip-path] {
	animation:z38610k 1s linear both;
	stroke-dasharray:3334;
	stroke-width:128;
	stroke-linecap:round;
	fill:none;
}
#z38610 path[clip-path="url(#z38610c1)"] {animation-delay:1s;}
#z38610 path[clip-path="url(#z38610c2)"] {animation-delay:2s;}
#z38610 path[clip-path="url(#z38610c3)"] {animation-delay:3s;}
#z38610 path[clip-path="url(#z38610c4)"] {animation-delay:4s;}
#z38610 path[clip-path="url(#z38610c5)"] {animation-delay:5s;}
#z38610 path[clip-path="url(#z38610c6)"] {animation-delay:6s;}
#z38610 path[clip-path="url(#z38610c7)"] {animation-delay:7s;}
#z38610 path[clip-path="url(#z38610c8)"] {animation-delay:8s;}
#z38610 path[clip-path="url(#z38610c9)"] {animation-delay:9s;}
#z38610 path[clip-path="url(#z38610c10)"] {animation-delay:10s;}
#z38610 path[clip-path="url(#z38610c11)"] {animation-delay:11s;}
#z38610 path[clip-path="url(#z38610c12)"] {animation-delay:12s;}
#z38610 path[clip-path="url(#z38610c13)"] {animation-delay:13s;}
#z38610 path[clip-path="url(#z38610c14)"] {animation-delay:14s;}
#z38610 path {fill:#ccc;}
]]>
</style>
<path id="z38610d1" d="M273 269Q327 179 328 175Q321 151 284 142Q265 138 256 140Q249 143 252 153Q270 237 108 414Q101 418 111 420Q138 413 182 376Q188 370 195 365L207 353Q234 323 257 292L273 269 Z"/>
<path id="z38610d2" d="M192 576Q250 531 312 461Q313 458 316 456L345 421Q432 304 461 281Q474 271 470 263Q469 254 413 233Q397 224 379 236Q363 246 337 254Q304 263 273 269L257 292Q278 301 344 284Q360 280 367 287Q373 302 305 399L283 430Q184 542 69 635Q56 645 69 647Q94 643 170 593L192 576 Z"/>
<path id="z38610d3" d="M316 456Q400 523 406 525Q412 525 416 518Q423 508 412 479Q402 451 345 421L305 399Q244 368 207 353L195 365Q196 366 199 369Q239 396 283 430L316 456 Z"/>
<path id="z38610d4" d="M228 589Q218 582 192 576L170 593Q195 659 205 761Q206 791 221 812Q237 834 243 819Q258 789 246 740L242 709Q235 642 235 617L228 589 Z"/>
<path id="z38610d5" d="M412 688Q436 625 458 613Q471 597 460 582Q445 570 401 549Q386 543 368 550Q329 565 228 589L235 617Q371 590 378 594Q387 604 369 680L412 688 Z"/>
<path id="z38610d6" d="M246 740Q252 740 260 739Q311 727 421 717Q431 716 432 707Q432 700 412 688L369 680Q365 679 360 681Q296 699 242 709L246 740 Z"/>
<path id="z38610d7" d="M524 368Q599 247 622 200Q638 160 656 139Q663 129 658 116Q652 104 622 85Q595 72 577 73Q559 77 569 97Q609 166 439 438Q430 448 429 455Q428 465 440 462Q458 453 501 400L524 368 Z"/>
<path id="z38610d8" d="M555 780Q559 512 571 449Q578 422 549 391Q530 372 524 368L501 400Q526 464 527 523Q518 674 515 692Q506 752 490 813Q478 862 513 903L514 905Q530 920 542 895Q554 858 555 805L555 780 Z"/>
<path id="z38610d9" d="M699 227Q726 249 754 274Q767 287 782 285Q792 284 797 272Q801 257 791 229Q785 210 756 198Q687 174 672 181Q668 185 669 197Q673 207 699 227 Z"/>
<path id="z38610d10" d="M732 406Q874 373 879 370Q886 363 883 355Q876 345 850 338Q823 332 732 363Q657 381 600 386Q566 392 591 407Q636 431 689 414L732 406 Z"/>
<path id="z38610d11" d="M749 521Q836 500 840 498Q847 491 843 483Q836 473 809 466Q782 462 755 473Q752 474 752 475L702 490Q699 489 698 490Q665 497 627 502Q594 508 618 523Q654 541 701 533L749 521 Z"/>
<path id="z38610d12" d="M742 653Q845 629 851 626Q860 619 855 611Q848 601 822 594Q789 588 744 608L699 620Q665 626 628 630Q594 636 619 651Q652 669 698 662L742 653 Z"/>
<path id="z38610d13" d="M738 753Q739 701 742 653L744 608Q745 562 749 521L752 475Q755 427 753 423Q743 413 732 406L689 414Q701 441 702 490L701 533Q700 567 699 620L698 662Q697 704 696 759L738 753 Z"/>
<path id="z38610d14" d="M696 759Q629 768 555 780L555 805Q582 823 608 815Q716 788 917 787Q935 787 939 779Q943 769 929 757Q878 718 824 736Q787 742 738 753L696 759 Z"/>
<defs>
	<clipPath id="z38610c1"><use xlink:href="#z38610d1"/></clipPath>
	<clipPath id="z38610c2"><use xlink:href="#z38610d2"/></clipPath>
	<clipPath id="z38610c3"><use xlink:href="#z38610d3"/></clipPath>
	<clipPath id="z38610c4"><use xlink:href="#z38610d4"/></clipPath>
	<clipPath id="z38610c5"><use xlink:href="#z38610d5"/></clipPath>
	<clipPath id="z38610c6"><use xlink:href="#z38610d6"/></clipPath>
	<clipPath id="z38610c7"><use xlink:href="#z38610d7"/></clipPath>
	<clipPath id="z38610c8"><use xlink:href="#z38610d8"/></clipPath>
	<clipPath id="z38610c9"><use xlink:href="#z38610d9"/></clipPath>
	<clipPath id="z38610c10"><use xlink:href="#z38610d10"/></clipPath>
	<clipPath id="z38610c11"><use xlink:href="#z38610d11"/></clipPath>
	<clipPath id="z38610c12"><use xlink:href="#z38610d12"/></clipPath>
	<clipPath id="z38610c13"><use xlink:href="#z38610d13"/></clipPath>
	<clipPath id="z38610c14"><use xlink:href="#z38610d14"/></clipPath>
</defs>
<path pathLength="3333" clip-path="url(#z38610c1)" d="M260 146L289 183L254 256L118 411"/>
<path pathLength="3333" clip-path="url(#z38610c2)" d="M265 288L370 260L419 279L263 483L71 640"/>
<path pathLength="3333" clip-path="url(#z38610c3)" d="M209 365L377 472L407 520"/>
<path pathLength="3333" clip-path="url(#z38610c4)" d="M176 594L206 615L233 818"/>
<path pathLength="3333" clip-path="url(#z38610c5)" d="M234 592L394 574L423 600L397 685"/>
<path pathLength="3333" clip-path="url(#z38610c6)" d="M248 717L425 706"/>
<path pathLength="3333" clip-path="url(#z38610c7)" d="M572 81L616 143L437 456"/>
<path pathLength="3333" clip-path="url(#z38610c8)" d="M522 377L545 446L523 906"/>
<path pathLength="3333" clip-path="url(#z38610c9)" d="M676 187L761 238L784 281"/>
<path pathLength="3333" clip-path="url(#z38610c10)" d="M590 395L880 362"/>
<path pathLength="3333" clip-path="url(#z38610c11)" d="M616 512L839 488"/>
<path pathLength="3333" clip-path="url(#z38610c12)" d="M619 640L851 618"/>
<path pathLength="3333" clip-path="url(#z38610c13)" d="M698 417L727 443L710 756"/>
<path pathLength="3333" clip-path="url(#z38610c14)" d="M561 784L935 769"/>
</svg>