<!--
AnimCJK 2016-2019 Copyright Francois Mizessyn - https://github.com/parsimonhi/animCJK
Derived from:
    MakeMeAHanzi project - https://github.com/skishore/makemeahanzi
    Arphic PL KaitiM GB font
    Arphic PL UKai font
You can redistribute and/or modify this file under the terms of the Arphic Public License
as published by Arphic Technology Co., Ltd.
You should have received a copy of this license along with this file.
If not, see http://ftp.gnu.org/non-gnu/chinese-fonts-truetype/LICENSE.
-->
<svg id="z38639" class="acjk" version="1.1" viewBox="0 0 1024 1024" xmlns="http://www.w3.org/2000/svg" xmlns:xlink="http://www.w3.org/1999/xlink">
<style>
<![CDATA[
@keyframes zk {
	to {
		stroke-dashoffset:0;
	}
}
svg.acjk path[clip-path] {
	--t:0.8s;
	animation:zk var(--t) linear forwards var(--d);
	stroke-dasharray:3337;
	stroke-dashoffset:3339;
	stroke-width:128;
	stroke-linecap:round;
	fill:none;
	stroke:#000;
}
svg.acjk path[id] {fill:#ccc;}
]]>
</style>
<path id="z38639d1" d="M506 132Q567 119 633 107Q676 97 682 91Q691 84 687 76Q680 64 652 57Q631 51 520 83Q409 104 365 108Q331 114 355 130Q394 154 453 141Q457 140 464 140C492 135 492 135 506 132Z"/>
<path id="z38639d2" d="M264 252Q255 225 241 216Q222 200 219 227Q222 255 195 293Q150 342 149 363Q149 382 163 417Q178 445 199 417Q218 392 232 354Q256 291 265 272C267 266 266 258 264 252Z"/>
<path id="z38639d3" d="M532 242Q703 208 743 217Q756 227 754 235Q754 236 725 309Q718 322 725 327Q732 331 750 319Q805 282 852 269Q889 257 889 249Q888 239 813 186Q786 167 688 188Q633 194 532 212C498 217 498 217 481 220Q435 226 383 235Q329 245 275 250Q268 250 264 252C258 254 259 269 265 272Q298 296 336 284Q426 257 482 250C515 245 515 245 532 242Z"/>
<path id="z38639d4" d="M482 250Q485 266 475 356Q469 389 496 418Q505 428 514 418Q535 388 532 348Q531 321 532 242C532 222 532 222 532 212Q533 193 537 175Q544 153 524 142Q515 136 506 132C493 127 461 126 464 140Q464 143 466 147Q475 166 481 220C482 240 482 240 482 250Z"/>
<path id="z38639d5" d="M336 333Q385 370 405 367Q415 366 417 348Q416 336 403 322Q393 312 374 312Q346 308 334 310Q325 310 327 320Q328 327 336 333Z"/>
<path id="z38639d6" d="M304 428Q361 476 386 475Q399 474 402 454Q401 441 388 424Q376 412 353 409Q317 402 303 402Q294 402 295 413Q295 420 304 428Z"/>
<path id="z38639d7" d="M608 298Q662 338 680 334Q692 333 694 316Q693 304 680 289Q656 268 606 274Q597 274 599 284Q600 291 608 298Z"/>
<path id="z38639d8" d="M588 399Q646 445 667 442Q680 441 682 423Q681 411 668 395Q641 368 587 374Q578 374 579 385Q579 392 588 399Z"/>
<path id="z38639d9" d="M447 482Q468 498 491 519Q501 528 514 527Q521 526 525 516Q528 504 520 481Q516 468 491 457Q437 441 424 445Q420 449 422 459Q425 466 447 482Z"/>
<path id="z38639d10" d="M568 575Q640 568 735 567Q796 570 804 558Q808 548 792 534Q741 498 705 506Q576 536 216 586Q195 589 211 605Q224 618 242 623Q263 627 278 623Q395 590 522 579C553 576 553 576 568 575Z"/>
<path id="z38639d11" d="M532 763Q557 720 578 674Q588 649 598 633Q605 621 599 612Q586 588 568 575C556 565 522 564 522 579Q523 651 484 727C471 747 471 747 465 757Q405 862 177 885Q167 884 161 887Q154 890 163 897Q167 901 183 902Q276 914 348 896Q435 880 509 796C524 774 524 774 532 763Z"/>
<path id="z38639d12" d="M509 796Q692 958 731 962Q737 961 743 961Q836 954 910 933Q949 924 944 914Q943 908 902 901Q737 871 692 856Q629 832 532 763C500 739 500 739 484 727Q454 702 423 676Q383 640 348 644Q330 645 328 651Q327 658 343 667Q391 689 465 757C494 783 494 783 509 796Z"/>
<defs>
	<clipPath id="z38639c1"><use xlink:href="#z38639d1"/></clipPath>
	<clipPath id="z38639c2"><use xlink:href="#z38639d2"/></clipPath>
	<clipPath id="z38639c3"><use xlink:href="#z38639d3"/></clipPath>
	<clipPath id="z38639c4"><use xlink:href="#z38639d4"/></clipPath>
	<clipPath id="z38639c5"><use xlink:href="#z38639d5"/></clipPath>
	<clipPath id="z38639c6"><use xlink:href="#z38639d6"/></clipPath>
	<clipPath id="z38639c7"><use xlink:href="#z38639d7"/></clipPath>
	<clipPath id="z38639c8"><use xlink:href="#z38639d8"/></clipPath>
	<clipPath id="z38639c9"><use xlink:href="#z38639d9"/></clipPath>
	<clipPath id="z38639c10"><use xlink:href="#z38639d10"/></clipPath>
	<clipPath id="z38639c11"><use xlink:href="#z38639d11"/></clipPath>
	<clipPath id="z38639c12"><use xlink:href="#z38639d12"/></clipPath>
</defs>
<path style="--d:1s;" pathLength="3333" clip-path="url(#z38639c1)" d="M355 119L684 80"/>
<path style="--d:2s;" pathLength="3333" clip-path="url(#z38639c2)" d="M229 215L240 262L171 423"/>
<path style="--d:3s;" pathLength="3333" clip-path="url(#z38639c3)" d="M270 257L317 266L750 196L795 218L833 255L732 323"/>
<path style="--d:4s;" pathLength="3333" clip-path="url(#z38639c4)" d="M473 144L507 174L501 413"/>
<path style="--d:5s;" pathLength="3333" clip-path="url(#z38639c5)" d="M334 317L413 355"/>
<path style="--d:6s;" pathLength="3333" clip-path="url(#z38639c6)" d="M300 409L392 467"/>
<path style="--d:7s;" pathLength="3333" clip-path="url(#z38639c7)" d="M606 281L689 323"/>
<path style="--d:8s;" pathLength="3333" clip-path="url(#z38639c8)" d="M585 383L677 428"/>
<path style="--d:9s;" pathLength="3333" clip-path="url(#z38639c9)" d="M429 452L520 519"/>
<path style="--d:10s;" pathLength="3333" clip-path="url(#z38639c10)" d="M209 593L271 601L721 536L801 550"/>
<path style="--d:11s;" pathLength="3333" clip-path="url(#z38639c11)" d="M528 588L558 632L508 744L434 830L333 877L168 892"/>
<path style="--d:12s;" pathLength="3333" clip-path="url(#z38639c12)" d="M336 653L395 676L707 904L939 918"/>
</svg>