<!--
AnimCJK 2016-2018 Copyright Francois Mizessyn, http://gooo.free.fr/animCJK/
Derived from:
    MakeMeAHanzi project - https://github.com/skishore/makemeahanzi
    Arphic PL KaitiM GB - https://apps.ubuntu.com/cat/applications/precise/fonts-arphic-gkai00mp/
    Arphic PL UKai - https://apps.ubuntu.com/cat/applications/fonts-arphic-ukai/
You can redistribute and/or modify this file under the terms of the Arphic Public License
as published by Arphic Technology Co., Ltd.
You should have received a copy of this license (the directory "APL") along with this file;
if not, see http://ftp.gnu.org/non-gnu/chinese-fonts-truetype/LICENSE.
-->
<svg id="z38634" class="acjk" version="1.1" viewBox="0 0 1024 1024" xmlns="http://www.w3.org/2000/svg" xmlns:xlink="http://www.w3.org/1999/xlink">
<style>
<![CDATA[
@keyframes z38634k {
	from {
		stroke:#ccc;
		stroke-dashoffset:3334;
	}
	1% {
		stroke:#c00;
		stroke-dashoffset:3334;
	}
	75% {
		stroke:#c00;
		stroke-dashoffset:0;
	}
	to {
		stroke:#000;
	}
}
#z38634 path[clip-path] {
	animation:z38634k 1s linear both;
	stroke-dasharray:3334;
	stroke-width:128;
	stroke-linecap:round;
	fill:none;
}
#z38634 path[clip-path="url(#z38634c1)"] {animation-delay:1s;}
#z38634 path[clip-path="url(#z38634c2)"] {animation-delay:2s;}
#z38634 path[clip-path="url(#z38634c3)"] {animation-delay:3s;}
#z38634 path[clip-path="url(#z38634c4)"] {animation-delay:4s;}
#z38634 path[clip-path="url(#z38634c5)"] {animation-delay:5s;}
#z38634 path[clip-path="url(#z38634c6)"] {animation-delay:6s;}
#z38634 path[clip-path="url(#z38634c7)"] {animation-delay:7s;}
#z38634 path[clip-path="url(#z38634c8)"] {animation-delay:8s;}
#z38634 path[clip-path="url(#z38634c9)"] {animation-delay:9s;}
#z38634 path[clip-path="url(#z38634c10)"] {animation-delay:10s;}
#z38634 path[clip-path="url(#z38634c11)"] {animation-delay:11s;}
#z38634 path {fill:#ccc;}
]]>
</style>
<path id="z38634d1" d="M 513,186 C 553,179 597,171 644,164 672,159 688,154 693,151 699,144 701,138 699,133 694,124 681,116 661,111 641,106 597,117 529,132 453,147 399,150 368,153 341,155 336,164 356,177 385,195 434,198 469,193 Z"/>
<path id="z38634d2" d="M 257,313 C 250,298 243,288 236,283 223,272 213,276 214,295 215,323 196,361 149,411 133,427 134,456 155,497 164,515 178,516 193,497 206,479 216,455 227,429 246,376 258,348 261,346 Z"/>
<path id="z38634d3" d="M 532,307 C 648,290 725,273 761,283 772,286 777,294 776,299 762,329 746,359 731,392 730,392 731,394 733,395 737,398 745,396 757,389 795,364 831,349 863,341 889,334 902,326 902,320 901,313 877,291 831,254 816,241 780,242 723,250 648,260 585,269 534,276 L 487,282 C 450,286 411,292 371,299 332,305 294,309 257,313 L 261,346 C 277,354 296,355 318,349 386,328 443,319 489,313 Z"/>
<path id="z38634d4" d="M489 313Q489 400 472 508Q460 550 492 586Q501 596 510 586Q531 556 531 458Q531 383 532 307L534 276Q535 251 540 228Q547 206 527 195Q520 191 513 186L469 193Q469 194 470 198Q486 237 487 282L489 313 Z"/>
<path id="z38634d5" d="M 331,422 C 356,442 376,459 395,463 402,464 409,459 412,452 414,445 414,437 411,429 406,416 399,408 389,403 372,394 351,390 325,390 321,389 318,391 316,393 313,394 313,397 315,404 316,409 321,414 331,422 Z"/>
<path id="z38634d6" d="M 316,535 C 341,556 361,570 378,572 386,572 393,568 396,560 398,553 398,544 394,535 388,522 380,513 369,509 337,497 314,497 300,505 297,506 296,509 299,517 300,523 307,527 316,535 Z"/>
<path id="z38634d7" d="M 597,388 C 631,408 657,422 676,425 684,426 690,420 692,412 693,405 693,396 689,389 676,367 645,357 599,357 590,356 583,358 579,361 576,362 576,366 579,372 581,377 588,382 597,388 Z"/>
<path id="z38634d8" d="M 587,494 C 619,517 642,532 659,535 666,536 673,532 676,524 678,517 678,509 675,501 666,482 637,469 592,463 583,461 576,463 572,465 569,465 568,469 571,476 572,482 578,487 587,494 Z"/>
<path id="z38634d9" d="M 687,840 C 707,753 734,700 764,675 778,662 778,646 767,634 755,622 728,608 690,589 677,582 662,583 645,589 557,618 450,635 325,643 312,643 305,647 307,655 308,661 317,665 330,672 349,681 370,679 398,675 472,661 545,654 617,644 635,641 648,643 655,651 663,659 667,672 665,690 657,742 646,790 634,833 Z"/>
<path id="z38634d10" d="M 293,757 C 274,759 272,765 286,777 306,793 325,799 344,796 425,780 510,769 597,763 603,762 611,761 616,753 618,747 609,739 596,731 575,717 541,718 490,731 479,733 468,734 456,737 422,744 390,749 360,751 339,752 317,754 293,757 Z"/>
<path id="z38634d11" d="M 634,833 C 598,841 396,870 299,877 283,878 279,885 289,900 293,906 299,912 308,916 316,919 326,918 336,917 414,902 536,891 703,884 711,883 717,879 718,873 719,866 708,855 687,840 Z"/>
<defs>
	<clipPath id="z38634c1"><use xlink:href="#z38634d1"/></clipPath>
	<clipPath id="z38634c2"><use xlink:href="#z38634d2"/></clipPath>
	<clipPath id="z38634c3"><use xlink:href="#z38634d3"/></clipPath>
	<clipPath id="z38634c4"><use xlink:href="#z38634d4"/></clipPath>
	<clipPath id="z38634c5"><use xlink:href="#z38634d5"/></clipPath>
	<clipPath id="z38634c6"><use xlink:href="#z38634d6"/></clipPath>
	<clipPath id="z38634c7"><use xlink:href="#z38634d7"/></clipPath>
	<clipPath id="z38634c8"><use xlink:href="#z38634d8"/></clipPath>
	<clipPath id="z38634c9"><use xlink:href="#z38634d9"/></clipPath>
	<clipPath id="z38634c10"><use xlink:href="#z38634d10"/></clipPath>
	<clipPath id="z38634c11"><use xlink:href="#z38634d11"/></clipPath>
</defs>
<path pathLength="3333" clip-path="url(#z38634c1)" d="M352 162L424 172L694 137"/>
<path pathLength="3333" clip-path="url(#z38634c2)" d="M225 282L234 336L166 506"/>
<path pathLength="3333" clip-path="url(#z38634c3)" d="M265 316L308 329L770 264L818 290L849 332L740 389"/>
<path pathLength="3333" clip-path="url(#z38634c4)" d="M477 198L511 223L499 581"/>
<path pathLength="3333" clip-path="url(#z38634c5)" d="M322 399L408 449"/>
<path pathLength="3333" clip-path="url(#z38634c6)" d="M306 511L391 563"/>
<path pathLength="3333" clip-path="url(#z38634c7)" d="M584 364L688 411"/>
<path pathLength="3333" clip-path="url(#z38634c8)" d="M579 471L673 520"/>
<path pathLength="3333" clip-path="url(#z38634c9)" d="M313 651L378 659L666 616L720 665L656 835"/>
<path pathLength="3333" clip-path="url(#z38634c10)" d="M288 768L609 751"/>
<path pathLength="3333" clip-path="url(#z38634c11)" d="M291 886L713 870"/>
</svg>