<!--
AnimCJK 2016-2026 Copyright FM-SH, https://github.com/parsimonhi/animCJK
Derived from:
    MakeMeAHanzi project - https://github.com/skishore/makemeahanzi
    Arphic PL KaitiM GB font
    Arphic PL KaitiM Big5 font
You can redistribute and/or modify this file under the terms of the Arphic Public License
as published by Arphic Technology Co., Ltd.
You should have received a copy of this license along with this file.
If not, see https://ftp.gnu.org/non-gnu/chinese-fonts-truetype/LICENSE.
-->
<svg id="z38660" class="acjk" viewBox="0 0 1024 1024" xmlns="http://www.w3.org/2000/svg">
<style>
<![CDATA[
@keyframes zk {
	to {
		stroke-dashoffset:0;
	}
}
svg.acjk path[clip-path] {
	--t:0.8s;
	animation:zk var(--t) linear forwards var(--d);
	stroke-dasharray:3337;
	stroke-dashoffset:3339;
	stroke-width:128;
	stroke-linecap:round;
	fill:none;
	stroke:#000;
}
svg.acjk path[id] {fill:#ccc;}
]]>
</style>
<path id="z38660d1" d="M513 121C617 102 671 91 674 90C692 73 659 59 646 56C630 51 594 58 538 73C484 86 434 91 390 95C367 96 363 104 379 115C424 144 453 131 473 128C500 123 500 123 513 121Z"/>
<path id="z38660d2" d="M255 223C249 212 243 204 238 200C225 190 216 195 217 212C217 232 201 266 179 299C155 332 142 363 163 405C172 423 184 422 198 404C210 387 220 365 230 338C240 306 253 270 262 252C266 243 259 232 255 223Z"/>
<path id="z38660d3" d="M532 215C666 193 749 182 779 192C790 195 794 204 793 211C792 211 786 234 769 278C762 294 767 303 792 287C826 263 858 249 886 241C908 234 920 228 920 223C919 216 895 196 848 162C833 151 801 151 750 158C632 173 559 183 533 187C502 191 502 191 486 193C426 200 348 212 255 223C245 225 253 247 262 252C276 260 296 262 321 256C389 238 445 228 488 222C517 217 517 217 532 215Z"/>
<path id="z38660d4" d="M488 222Q488 274 479 335Q470 362 497 394Q504 404 514 394Q532 360 531 327Q530 302 532 223Q532 219 532 215C533 196 533 196 533 187Q534 172 538 158Q544 139 526 129Q519 125 513 121C501 114 468 115 473 128Q473 129 474 132Q484 159 486 193C487 212 487 212 488 222Z"/>
<path id="z38660d5" d="M341 300C383 316 409 323 420 320C426 317 430 311 428 302C426 295 420 288 412 283C403 277 392 276 379 277C358 277 343 278 335 281C330 282 329 284 331 291C332 294 335 297 341 300Z"/>
<path id="z38660d6" d="M333 371C370 399 395 411 407 409C413 407 418 403 418 394C418 387 414 379 407 371C400 363 389 359 376 357C355 352 340 350 332 351C327 351 326 353 327 360C327 363 328 367 333 371Z"/>
<path id="z38660d7" d="M596 257C645 281 676 290 688 287C694 284 698 279 697 270C695 263 690 256 682 250C672 241 659 238 644 238C619 236 601 236 591 238C586 238 585 241 587 247C588 250 590 254 596 257Z"/>
<path id="z38660d8" d="M592 330C636 355 665 367 679 363C685 361 690 354 689 345C688 338 682 330 674 323C656 308 627 304 588 309C583 309 581 312 583 319C583 323 586 327 592 330Z"/>
<path id="z38660d9" d="M519 558C529 494 536 455 541 443C543 437 539 429 529 423C510 411 494 406 483 404C466 400 454 410 464 425C473 439 481 485 484 565C484 577 517 570 519 558Z"/>
<path id="z38660d10" d="M344 485Q366 503 389 525Q399 534 410 534Q417 533 422 524Q425 512 418 491Q414 476 390 465Q333 444 324 450Q320 453 321 462Q324 469 344 485Z"/>
<path id="z38660d11" d="M658 420Q627 450 570 493Q563 497 567 505Q573 508 580 505Q671 463 715 450Q731 449 729 439Q728 426 714 406Q702 387 683 382Q671 381 668 396Q668 408 658 420Z"/>
<path id="z38660d12" d="M385 780C388 747 390 723 392 701C393 690 393 690 393 685C394 662 399 617 403 603C405 595 401 585 395 579C377 554 325 547 335 572C359 629 351 722 323 818C312 852 304 862 304 876C302 897 319 944 336 934C383 902 374 871 383 798C384 786 384 786 385 780Z"/>
<path id="z38660d13" d="M403 603C422 603 582 566 612 580C620 583 624 595 627 615C636 703 642 781 641 850C640 863 636 872 629 875C622 877 599 875 561 870C546 868 544 876 567 891C592 907 611 929 631 949C641 959 652 964 662 962C670 960 679 944 691 919C702 892 708 865 706 839C699 774 693 712 687 654C684 629 686 607 697 590C703 579 703 571 694 562C682 551 666 538 640 533C601 525 558 550 519 558C496 563 496 563 484 565C445 572 415 575 395 579C387 581 395 603 403 603Z"/>
<path id="z38660d14" d="M392 701C434 715 512 691 567 683C599 678 578 653 547 649C517 644 428 674 393 685C388 687 387 700 392 701Z"/>
<path id="z38660d15" d="M383 798C390 803 399 804 414 803C465 796 539 787 582 782C611 778 600 753 563 748C545 745 494 756 385 780C379 781 378 795 383 798Z"/>
<defs>
	<clipPath id="z38660c1"><use href="#z38660d1"/></clipPath>
	<clipPath id="z38660c2"><use href="#z38660d2"/></clipPath>
	<clipPath id="z38660c3"><use href="#z38660d3"/></clipPath>
	<clipPath id="z38660c4"><use href="#z38660d4"/></clipPath>
	<clipPath id="z38660c5"><use href="#z38660d5"/></clipPath>
	<clipPath id="z38660c6"><use href="#z38660d6"/></clipPath>
	<clipPath id="z38660c7"><use href="#z38660d7"/></clipPath>
	<clipPath id="z38660c8"><use href="#z38660d8"/></clipPath>
	<clipPath id="z38660c9"><use href="#z38660d9"/></clipPath>
	<clipPath id="z38660c10"><use href="#z38660d10"/></clipPath>
	<clipPath id="z38660c11"><use href="#z38660d11"/></clipPath>
	<clipPath id="z38660c12"><use href="#z38660d12"/></clipPath>
	<clipPath id="z38660c13"><use href="#z38660d13"/></clipPath>
	<clipPath id="z38660c14"><use href="#z38660d14"/></clipPath>
	<clipPath id="z38660c15"><use href="#z38660d15"/></clipPath>
</defs>
<path style="--d:1s;" pathLength="3333" clip-path="url(#z38660c1)" d="M378 105L675 77"/>
<path style="--d:2s;" pathLength="3333" clip-path="url(#z38660c2)" d="M226 205L235 250L171 411"/>
<path style="--d:3s;" pathLength="3333" clip-path="url(#z38660c3)" d="M255 232L797 174L838 200L867 236L775 288"/>
<path style="--d:4s;" pathLength="3333" clip-path="url(#z38660c4)" d="M479 122L510 154L499 392"/>
<path style="--d:5s;" pathLength="3333" clip-path="url(#z38660c5)" d="M337 286L423 313"/>
<path style="--d:6s;" pathLength="3333" clip-path="url(#z38660c6)" d="M333 359L414 391"/>
<path style="--d:7s;" pathLength="3333" clip-path="url(#z38660c7)" d="M595 245L693 279"/>
<path style="--d:8s;" pathLength="3333" clip-path="url(#z38660c8)" d="M590 315L684 352"/>
<path style="--d:9s;" pathLength="3333" clip-path="url(#z38660c9)" d="M467 413L507 446L495 567"/>
<path style="--d:10s;" pathLength="3333" clip-path="url(#z38660c10)" d="M325 456L393 495L410 528"/>
<path style="--d:11s;" pathLength="3333" clip-path="url(#z38660c11)" d="M681 386L694 431L573 500"/>
<path style="--d:12s;" pathLength="3333" clip-path="url(#z38660c12)" d="M341 566L372 595L373 637L325 930"/>
<path style="--d:13s;" pathLength="3333" clip-path="url(#z38660c13)" d="M399 586L602 555L660 582L666 887L642 919L557 874"/>
<path style="--d:14s;" pathLength="3333" clip-path="url(#z38660c14)" d="M396 693L579 669"/>
<path style="--d:15s;" pathLength="3333" clip-path="url(#z38660c15)" d="M384 789L592 770"/>
</svg>