<!--
AnimCJK 2016-2019 Copyright Francois Mizessyn - https://github.com/parsimonhi/animCJK
Derived from:
    MakeMeAHanzi project - https://github.com/skishore/makemeahanzi
    Arphic PL KaitiM GB font
    Arphic PL UKai font
You can redistribute and/or modify this file under the terms of the Arphic Public License
as published by Arphic Technology Co., Ltd.
You should have received a copy of this license along with this file.
If not, see http://ftp.gnu.org/non-gnu/chinese-fonts-truetype/LICENSE.
-->
<svg id="z38671" class="acjk" version="1.1" viewBox="0 0 1024 1024" xmlns="http://www.w3.org/2000/svg" xmlns:xlink="http://www.w3.org/1999/xlink">
<style>
<![CDATA[
@keyframes zk {
	to {
		stroke-dashoffset:0;
	}
}
svg.acjk path[clip-path] {
	--t:0.8s;
	animation:zk var(--t) linear forwards var(--d);
	stroke-dasharray:3337;
	stroke-dashoffset:3339;
	stroke-width:128;
	stroke-linecap:round;
	fill:none;
	stroke:#000;
}
svg.acjk path[id] {fill:#ccc;}
]]>
</style>
<path id="z38671d1" d="M509 122Q660 88 663 86Q670 79 667 71Q660 61 634 53Q610 49 512 78Q434 96 372 102Q339 108 363 123Q396 144 465 131C494 125 494 125 509 122Z"/>
<path id="z38671d2" d="M265 234Q255 215 246 208Q227 193 225 219Q229 250 182 308Q146 335 175 401Q190 428 210 401Q216 391 266 271C271 260 271 245 265 234Z"/>
<path id="z38671d3" d="M530 225Q714 198 742 204Q757 214 754 221Q754 224 726 290Q719 303 725 307Q732 311 748 300Q800 266 843 255Q877 245 877 236Q876 226 808 176Q787 158 704 174Q575 189 531 197C498 202 498 202 481 204Q424 210 360 221Q312 228 265 234C253 236 254 269 266 271Q281 275 298 271Q400 241 482 231C514 227 514 227 530 225Z"/>
<path id="z38671d4" d="M482 231Q485 270 472 374Q465 405 491 441C492 442 492 442 492 442Q501 452 510 442Q528 412 529 330Q529 278 530 225C531 206 531 206 531 197Q532 181 536 163Q543 141 523 131Q516 127 509 122C496 114 460 117 465 131Q480 167 481 204C482 222 482 222 482 231Z"/>
<path id="z38671d5" d="M336 315Q387 349 407 343Q417 340 417 325Q416 315 402 303Q392 294 373 294Q343 291 332 294Q325 295 327 304Q328 310 336 315Z"/>
<path id="z38671d6" d="M317 388Q362 430 382 429Q392 428 395 413Q394 403 384 388Q366 367 317 367Q310 367 310 376Q310 383 317 388Z"/>
<path id="z38671d7" d="M600 284Q663 324 682 319Q692 318 693 300Q692 290 678 276Q654 255 597 262Q590 262 591 272Q592 279 600 284Z"/>
<path id="z38671d8" d="M603 371Q663 413 682 410Q692 409 694 393Q693 383 681 370Q669 358 648 356Q614 349 601 350Q594 351 595 360Q595 366 603 371Z"/>
<path id="z38671d9" d="M393 765Q377 868 377 874Q377 895 402 926Q412 939 423 928Q438 907 440 823Q447 552 451 534Q455 513 450 505Q446 489 405 471Q395 467 384 471Q377 475 382 488Q394 525 396 533C398 557 398 557 399 569Q400 599 399 640C398 662 398 662 398 673Q398 706 396 739C394 756 394 756 393 765Z"/>
<path id="z38671d10" d="M396 533Q381 530 303 545Q273 549 240 551Q210 554 231 569Q265 590 309 581Q351 575 399 569C411 567 408 533 396 533Z"/>
<path id="z38671d11" d="M399 640Q381 631 307 654Q304 654 301 655Q276 659 247 662Q217 666 238 681Q266 696 333 686Q363 680 398 673C409 671 409 644 399 640Z"/>
<path id="z38671d12" d="M396 739Q209 778 180 776Q168 777 166 786Q165 796 172 804Q191 820 218 838Q227 841 237 834Q252 825 390 766Q390 765 393 765C401 762 405 737 396 739Z"/>
<path id="z38671d13" d="M609 734Q609 691 609 637C609 623 609 623 609 616Q609 550 612 523C615 506 615 506 617 497Q623 473 623 467Q617 460 570 431Q551 418 533 430Q529 434 534 448Q553 476 556 504Q557 546 560 594Q561 678 562 769Q561 814 550 857Q541 890 564 942Q570 957 577 959Q581 965 588 958Q595 954 603 936Q610 915 610 889Q609 870 609 758C609 742 609 742 609 734Z"/>
<path id="z38671d14" d="M612 523Q645 532 716 517Q777 502 785 498Q792 491 787 483Q780 473 753 467Q732 464 662 488Q641 492 617 497C608 499 603 521 612 523Z"/>
<path id="z38671d15" d="M609 637Q648 653 696 640Q730 633 766 624Q782 620 784 618Q791 611 787 603Q780 593 753 587Q725 583 699 595Q681 601 661 606Q640 610 614 614Q610 614 609 616C603 619 603 634 609 637Z"/>
<path id="z38671d16" d="M609 758Q645 770 723 759Q825 759 845 762Q858 763 863 755Q867 745 856 733Q814 697 735 716Q680 725 609 734C601 736 601 756 609 758Z"/>
<defs>
	<clipPath id="z38671c1"><use xlink:href="#z38671d1"/></clipPath>
	<clipPath id="z38671c2"><use xlink:href="#z38671d2"/></clipPath>
	<clipPath id="z38671c3"><use xlink:href="#z38671d3"/></clipPath>
	<clipPath id="z38671c4"><use xlink:href="#z38671d4"/></clipPath>
	<clipPath id="z38671c5"><use xlink:href="#z38671d5"/></clipPath>
	<clipPath id="z38671c6"><use xlink:href="#z38671d6"/></clipPath>
	<clipPath id="z38671c7"><use xlink:href="#z38671d7"/></clipPath>
	<clipPath id="z38671c8"><use xlink:href="#z38671d8"/></clipPath>
	<clipPath id="z38671c9"><use xlink:href="#z38671d9"/></clipPath>
	<clipPath id="z38671c10"><use xlink:href="#z38671d10"/></clipPath>
	<clipPath id="z38671c11"><use xlink:href="#z38671d11"/></clipPath>
	<clipPath id="z38671c12"><use xlink:href="#z38671d12"/></clipPath>
	<clipPath id="z38671c13"><use xlink:href="#z38671d13"/></clipPath>
	<clipPath id="z38671c14"><use xlink:href="#z38671d14"/></clipPath>
	<clipPath id="z38671c15"><use xlink:href="#z38671d15"/></clipPath>
	<clipPath id="z38671c16"><use xlink:href="#z38671d16"/></clipPath>
</defs>
<path style="--d:1s;" pathLength="3333" clip-path="url(#z38671c1)" d="M361 111L661 75"/>
<path style="--d:2s;" pathLength="3333" clip-path="url(#z38671c2)" d="M234 209L242 256L186 409"/>
<path style="--d:3s;" pathLength="3333" clip-path="url(#z38671c3)" d="M272 264L740 185L794 210L824 253L732 303"/>
<path style="--d:4s;" pathLength="3333" clip-path="url(#z38671c4)" d="M473 136L507 164L501 437"/>
<path style="--d:5s;" pathLength="3333" clip-path="url(#z38671c5)" d="M336 302L411 330"/>
<path style="--d:6s;" pathLength="3333" clip-path="url(#z38671c6)" d="M314 375L389 418"/>
<path style="--d:7s;" pathLength="3333" clip-path="url(#z38671c7)" d="M597 269L689 303"/>
<path style="--d:8s;" pathLength="3333" clip-path="url(#z38671c8)" d="M601 357L686 403"/>
<path style="--d:9s;" pathLength="3333" clip-path="url(#z38671c9)" d="M389 475L424 534L410 928"/>
<path style="--d:10s;" pathLength="3333" clip-path="url(#z38671c10)" d="M232 560L397 555"/>
<path style="--d:11s;" pathLength="3333" clip-path="url(#z38671c11)" d="M241 672L397 651"/>
<path style="--d:12s;" pathLength="3333" clip-path="url(#z38671c12)" d="M172 787L225 805L391 751"/>
<path style="--d:13s;" pathLength="3333" clip-path="url(#z38671c13)" d="M537 434L587 480L578 956"/>
<path style="--d:14s;" pathLength="3333" clip-path="url(#z38671c14)" d="M619 516L784 484"/>
<path style="--d:15s;" pathLength="3333" clip-path="url(#z38671c15)" d="M615 621L781 605"/>
<path style="--d:16s;" pathLength="3333" clip-path="url(#z38671c16)" d="M615 741L858 749"/>
</svg>