<!--
AnimCJK 2016-2019 Copyright Francois Mizessyn - https://github.com/parsimonhi/animCJK
Derived from:
    MakeMeAHanzi project - https://github.com/skishore/makemeahanzi
    Arphic PL KaitiM GB font
    Arphic PL UKai font
You can redistribute and/or modify this file under the terms of the Arphic Public License
as published by Arphic Technology Co., Ltd.
You should have received a copy of this license along with this file.
If not, see http://ftp.gnu.org/non-gnu/chinese-fonts-truetype/LICENSE.
-->
<svg id="z38684" class="acjk" version="1.1" viewBox="0 0 1024 1024" xmlns="http://www.w3.org/2000/svg" xmlns:xlink="http://www.w3.org/1999/xlink">
<style>
<![CDATA[
@keyframes zk {
	to {
		stroke-dashoffset:0;
	}
}
svg.acjk path[clip-path] {
	--t:0.8s;
	animation:zk var(--t) linear forwards var(--d);
	stroke-dasharray:3337;
	stroke-dashoffset:3339;
	stroke-width:128;
	stroke-linecap:round;
	fill:none;
	stroke:#000;
}
svg.acjk path[id] {fill:#ccc;}
]]>
</style>
<path id="z38684d1" d="M519 127Q585 114 655 102Q698 93 706 87Q715 80 711 72Q704 60 676 52Q652 46 542 77Q440 96 382 101Q346 105 371 122Q410 149 468 135Q471 135 475 135C504 130 504 130 519 127Z"/>
<path id="z38684d2" d="M277 242Q268 220 258 211Q242 195 237 221Q237 254 195 301Q147 340 175 401Q188 429 210 403Q229 379 244 343Q263 298 276 273C281 264 281 252 277 242Z"/>
<path id="z38684d3" d="M537 236Q726 209 751 216Q769 228 766 236Q757 275 747 314C748 315 748 315 749 315Q756 319 772 306Q821 273 861 262Q894 252 893 244Q892 234 820 185Q799 170 726 182Q609 194 538 208C507 212 507 212 492 214Q440 220 382 229Q328 236 277 242C267 244 266 269 276 273Q294 282 350 272Q435 248 493 243C522 238 522 238 537 236Z"/>
<path id="z38684d4" d="M538 208Q539 186 543 165Q550 144 531 134Q525 130 519 127C506 119 469 121 475 135Q485 159 492 214C493 233 493 233 493 243Q493 310 481 393Q472 429 500 462Q509 472 518 462Q536 437 536 345Q536 291 537 236C538 217 538 217 538 208Z"/>
<path id="z38684d5" d="M350 324Q401 363 422 362Q432 361 434 345Q433 335 422 321Q412 311 392 308Q361 302 349 303Q342 303 343 312Q343 319 350 324Z"/>
<path id="z38684d6" d="M330 412Q387 457 406 453Q416 452 418 437Q417 427 407 413Q395 401 375 398Q342 391 329 391Q322 391 323 400Q323 407 330 412Z"/>
<path id="z38684d7" d="M595 308Q661 353 681 350Q693 349 694 332Q693 322 680 307Q667 295 645 292Q608 285 593 286Q586 287 587 296Q588 303 595 308Z"/>
<path id="z38684d8" d="M594 401Q652 449 673 445Q683 444 686 428Q685 418 674 403Q664 390 641 387Q607 378 593 379Q586 379 587 388Q587 395 594 401Z"/>
<path id="z38684d9" d="M380 604Q386 601 476 590Q486 591 493 580Q494 570 474 560Q438 545 387 561C356 569 356 569 341 573Q337 573 334 574Q270 589 167 602Q142 606 162 621Q195 645 217 637Q263 625 322 616C361 608 361 608 380 604Z"/>
<path id="z38684d10" d="M379 658Q379 631 380 604C385 575 385 575 387 561Q391 542 398 523Q405 507 394 495Q375 480 342 464Q329 457 318 464Q311 468 314 481Q333 514 341 573C340 638 340 638 340 670Q328 838 318 861Q308 885 335 937Q344 952 355 940Q376 919 377 801Q377 738 379 685C379 667 379 667 379 658Z"/>
<path id="z38684d11" d="M322 616Q268 721 115 843Q105 853 112 855Q119 859 130 854Q232 818 332 681Q335 675 340 670C371 631 345 571 322 616Z"/>
<path id="z38684d12" d="M379 685Q388 688 451 742Q461 749 471 749Q478 749 482 739Q485 729 478 709Q469 679 383 658Q380 657 379 658C370 658 371 681 379 685Z"/>
<path id="z38684d13" d="M573 521Q566 514 548 507Q539 503 529 506Q523 510 528 522Q529 529 533 537Q557 577 542 771Q539 795 532 824Q519 873 551 911Q561 923 570 912Q579 897 581 874C582 855 582 855 583 846Q584 833 584 819Q584 782 584 750C585 734 585 734 585 726Q585 689 586 660C586 643 586 643 586 635Q587 568 589 561Q590 554 590 550C590 539 582 528 573 521Z"/>
<path id="z38684d14" d="M715 855Q745 892 766 925Q775 941 785 941Q800 940 813 909Q829 875 825 833Q818 746 810 586Q809 558 823 538Q832 528 823 518Q807 500 760 479Q744 472 730 480Q693 496 573 521C562 523 579 552 590 550Q740 525 743 526Q744 527 747 529Q778 554 760 831Q756 844 746 843C735 845 708 846 715 855Z"/>
<path id="z38684d15" d="M586 660Q589 657 716 638Q737 634 729 623Q719 610 697 607Q670 604 586 635C578 638 578 663 586 660Z"/>
<path id="z38684d16" d="M584 750Q590 751 600 750Q670 743 722 738Q744 735 737 723Q727 710 703 704Q678 698 585 726C578 729 576 750 584 750Z"/>
<path id="z38684d17" d="M581 874Q654 861 715 855C726 853 750 853 746 843Q746 842 745 839Q735 826 713 821Q685 817 583 846C574 848 572 876 581 874Z"/>
<defs>
	<clipPath id="z38684c1"><use xlink:href="#z38684d1"/></clipPath>
	<clipPath id="z38684c2"><use xlink:href="#z38684d2"/></clipPath>
	<clipPath id="z38684c3"><use xlink:href="#z38684d3"/></clipPath>
	<clipPath id="z38684c4"><use xlink:href="#z38684d4"/></clipPath>
	<clipPath id="z38684c5"><use xlink:href="#z38684d5"/></clipPath>
	<clipPath id="z38684c6"><use xlink:href="#z38684d6"/></clipPath>
	<clipPath id="z38684c7"><use xlink:href="#z38684d7"/></clipPath>
	<clipPath id="z38684c8"><use xlink:href="#z38684d8"/></clipPath>
	<clipPath id="z38684c9"><use xlink:href="#z38684d9"/></clipPath>
	<clipPath id="z38684c10"><use xlink:href="#z38684d10"/></clipPath>
	<clipPath id="z38684c11"><use xlink:href="#z38684d11"/></clipPath>
	<clipPath id="z38684c12"><use xlink:href="#z38684d12"/></clipPath>
	<clipPath id="z38684c13"><use xlink:href="#z38684d13"/></clipPath>
	<clipPath id="z38684c14"><use xlink:href="#z38684d14"/></clipPath>
	<clipPath id="z38684c15"><use xlink:href="#z38684d15"/></clipPath>
	<clipPath id="z38684c16"><use xlink:href="#z38684d16"/></clipPath>
	<clipPath id="z38684c17"><use xlink:href="#z38684d17"/></clipPath>
</defs>
<path style="--d:1s;" pathLength="3333" clip-path="url(#z38684c1)" d="M370 112L708 73"/>
<path style="--d:2s;" pathLength="3333" clip-path="url(#z38684c2)" d="M246 212L251 265L190 410"/>
<path style="--d:3s;" pathLength="3333" clip-path="url(#z38684c3)" d="M282 267L752 196L808 219L840 263L757 311"/>
<path style="--d:4s;" pathLength="3333" clip-path="url(#z38684c4)" d="M483 136L514 159L508 457"/>
<path style="--d:5s;" pathLength="3333" clip-path="url(#z38684c5)" d="M348 309L427 353"/>
<path style="--d:6s;" pathLength="3333" clip-path="url(#z38684c6)" d="M328 399L413 444"/>
<path style="--d:7s;" pathLength="3333" clip-path="url(#z38684c7)" d="M594 295L687 340"/>
<path style="--d:8s;" pathLength="3333" clip-path="url(#z38684c8)" d="M592 387L681 429"/>
<path style="--d:9s;" pathLength="3333" clip-path="url(#z38684c9)" d="M161 611L487 575"/>
<path style="--d:10s;" pathLength="3333" clip-path="url(#z38684c10)" d="M321 471L367 529L346 937"/>
<path style="--d:11s;" pathLength="3333" clip-path="url(#z38684c11)" d="M331 621L256 741L116 851"/>
<path style="--d:12s;" pathLength="3333" clip-path="url(#z38684c12)" d="M385 663L479 738"/>
<path style="--d:13s;" pathLength="3333" clip-path="url(#z38684c13)" d="M534 512L566 566L557 912"/>
<path style="--d:14s;" pathLength="3333" clip-path="url(#z38684c14)" d="M580 523L741 501L791 535L790 859L767 892L722 860"/>
<path style="--d:15s;" pathLength="3333" clip-path="url(#z38684c15)" d="M592 651L724 625"/>
<path style="--d:16s;" pathLength="3333" clip-path="url(#z38684c16)" d="M592 743L731 729"/>
<path style="--d:17s;" pathLength="3333" clip-path="url(#z38684c17)" d="M586 865L740 839"/>
</svg>