<!--
AnimCJK 2016-2019 Copyright Francois Mizessyn - https://github.com/parsimonhi/animCJK
Derived from:
    MakeMeAHanzi project - https://github.com/skishore/makemeahanzi
    Arphic PL KaitiM GB font
    Arphic PL UKai font
You can redistribute and/or modify this file under the terms of the Arphic Public License
as published by Arphic Technology Co., Ltd.
You should have received a copy of this license along with this file.
If not, see http://ftp.gnu.org/non-gnu/chinese-fonts-truetype/LICENSE.
-->
<svg id="z38718" class="acjk" version="1.1" viewBox="0 0 1024 1024" xmlns="http://www.w3.org/2000/svg" xmlns:xlink="http://www.w3.org/1999/xlink">
<style>
<![CDATA[
@keyframes zk {
	to {
		stroke-dashoffset:0;
	}
}
svg.acjk path[clip-path] {
	--t:0.8s;
	animation:zk var(--t) linear forwards var(--d);
	stroke-dasharray:3337;
	stroke-dashoffset:3339;
	stroke-width:128;
	stroke-linecap:round;
	fill:none;
	stroke:#000;
}
svg.acjk path[id] {fill:#ccc;}
]]>
</style>
<path id="z38718d1" d="M526 125Q574 115 628 107Q668 100 674 94Q683 87 678 79Q672 69 646 60Q621 54 516 84Q389 102 377 103Q344 107 367 123Q406 147 458 136Q470 132 486 132C513 127 513 127 526 125Z"/>
<path id="z38718d2" d="M273 228Q264 206 251 197Q235 184 233 208Q233 241 209 270Q164 312 191 369Q204 394 223 369Q238 347 249 315Q262 276 272 253C275 245 276 236 273 228Z"/>
<path id="z38718d3" d="M548 218Q702 188 750 196Q766 208 763 216Q754 255 743 294C744 295 744 295 745 295Q752 299 767 287Q815 253 855 242Q886 232 886 224Q885 214 816 166Q792 151 714 166Q591 181 550 189C517 194 517 194 500 196Q445 203 384 213Q330 222 275 227Q274 227 273 228C265 229 265 249 272 253Q296 268 335 260Q434 230 501 225C532 220 532 220 548 218Z"/>
<path id="z38718d4" d="M501 225Q502 258 490 358Q481 389 508 422Q517 432 526 422Q547 392 545 351Q544 323 548 237Q548 227 548 218C549 199 549 199 550 189Q551 176 554 165Q561 144 542 134Q535 128 526 125C513 120 483 119 486 132Q486 133 487 136Q490 145 500 196C501 215 501 215 501 225Z"/>
<path id="z38718d5" d="M360 298Q423 331 439 327Q449 324 449 309Q446 299 434 287Q421 277 401 278Q368 275 356 277Q349 278 351 287Q352 294 360 298Z"/>
<path id="z38718d6" d="M351 367Q400 406 422 402Q432 401 434 385Q433 375 421 362Q399 340 349 346Q342 347 343 356Q343 362 351 367Z"/>
<path id="z38718d7" d="M616 270Q679 303 695 299Q705 296 705 281Q702 271 690 259Q677 249 657 250Q624 247 612 249Q605 250 607 259Q608 266 616 270Z"/>
<path id="z38718d8" d="M604 351Q667 387 686 383Q696 382 697 365Q694 355 681 341Q660 323 601 329Q594 330 595 340Q596 347 604 351Z"/>
<path id="z38718d9" d="M317 431Q284 464 216 504Q213 510 217 512Q235 512 329 469Q359 453 386 445Q396 444 399 438Q400 431 393 424Q353 400 329 404Q325 407 324 414Q325 424 317 431Z"/>
<path id="z38718d10" d="M188 568Q231 616 242 616Q249 616 254 607Q258 597 253 577Q249 556 187 535Q177 532 172 534Q168 535 169 545Q170 552 188 568Z"/>
<path id="z38718d11" d="M280 516Q311 561 331 565Q340 566 345 554Q346 545 341 531Q334 519 319 513Q295 500 285 498Q278 497 277 504Q276 510 280 516Z"/>
<path id="z38718d12" d="M359 605Q446 557 450 557Q462 556 463 548Q464 544 457 536Q438 517 420 509Q410 505 401 514Q362 580 186 663Q171 663 174 671Q174 672 180 673Q231 673 324 623Q328 619 335 617C351 609 351 609 359 605Z"/>
<path id="z38718d13" d="M407 736Q416 781 397 843Q390 867 382 869Q373 873 356 871Q293 850 292 860Q291 867 300 877Q346 920 365 949Q375 965 389 963Q402 962 416 943Q476 838 438 707Q435 700 433 695Q411 646 370 613Q363 607 359 605C351 600 328 612 335 617Q341 621 347 628C370 657 370 657 381 671Q384 675 388 683C401 718 401 718 407 736Z"/>
<path id="z38718d14" d="M347 628Q346 629 345 633Q321 685 177 760Q161 767 179 769Q242 773 348 695Q369 679 381 671C397 662 354 611 347 628Z"/>
<path id="z38718d15" d="M388 683Q387 683 387 684Q323 783 165 872Q152 881 160 883Q178 893 240 865Q297 843 373 770Q406 740 407 736C419 721 399 668 388 683Z"/>
<path id="z38718d16" d="M517 476Q507 472 483 468Q473 467 470 470Q466 476 473 489Q501 546 518 640Q522 668 538 687Q554 705 558 691Q559 684 561 673C560 659 560 659 559 652Q558 642 556 629Q535 532 530 502C528 492 526 480 517 476Z"/>
<path id="z38718d17" d="M722 652Q740 682 757 690Q767 697 781 678Q794 657 822 545Q829 518 851 497Q863 487 853 474Q840 458 803 434Q788 425 726 441Q719 441 599 462Q554 469 517 476C507 478 521 506 530 502Q561 492 604 485C629 481 629 481 641 479Q753 458 766 471Q776 484 774 497Q752 620 735 633C730 638 717 646 722 652Z"/>
<path id="z38718d18" d="M668 576Q692 570 713 568Q732 565 725 554Q716 542 695 539Q685 538 670 541C638 550 638 550 622 554Q594 561 570 570Q557 573 573 585Q576 586 622 583C653 578 653 578 668 576Z"/>
<path id="z38718d19" d="M665 659Q693 655 722 652C730 650 740 638 735 633Q716 614 666 627C636 634 636 634 621 637Q588 644 559 652C552 653 554 673 561 673Q565 673 572 673Q597 669 621 666C650 661 650 661 665 659Z"/>
<path id="z38718d20" d="M661 847Q661 807 662 772C663 745 663 745 663 732Q663 693 665 659C666 638 666 638 666 627Q667 600 668 576C669 553 669 553 670 541Q670 502 669 501Q654 488 641 479C630 473 599 473 604 485Q610 498 615 508Q621 523 622 554C622 573 622 573 622 583Q622 602 621 637C621 656 621 656 621 666Q621 699 621 742C621 766 621 766 621 778Q621 812 621 852C621 865 661 860 661 847Z"/>
<path id="z38718d21" d="M662 772Q695 765 731 760Q758 754 762 751Q769 744 766 738Q760 728 737 721Q710 717 663 732C635 739 635 739 621 742Q584 748 544 750Q514 754 535 769Q565 787 615 778Q616 778 621 778C648 774 648 774 662 772Z"/>
<path id="z38718d22" d="M621 852Q548 859 464 868Q445 869 458 886Q488 913 520 905Q685 865 885 883Q885 882 887 883Q905 883 910 876Q914 866 900 852Q851 815 796 828Q742 837 661 847C634 850 634 850 621 852Z"/>
<defs>
	<clipPath id="z38718c1"><use xlink:href="#z38718d1"/></clipPath>
	<clipPath id="z38718c2"><use xlink:href="#z38718d2"/></clipPath>
	<clipPath id="z38718c3"><use xlink:href="#z38718d3"/></clipPath>
	<clipPath id="z38718c4"><use xlink:href="#z38718d4"/></clipPath>
	<clipPath id="z38718c5"><use xlink:href="#z38718d5"/></clipPath>
	<clipPath id="z38718c6"><use xlink:href="#z38718d6"/></clipPath>
	<clipPath id="z38718c7"><use xlink:href="#z38718d7"/></clipPath>
	<clipPath id="z38718c8"><use xlink:href="#z38718d8"/></clipPath>
	<clipPath id="z38718c9"><use xlink:href="#z38718d9"/></clipPath>
	<clipPath id="z38718c10"><use xlink:href="#z38718d10"/></clipPath>
	<clipPath id="z38718c11"><use xlink:href="#z38718d11"/></clipPath>
	<clipPath id="z38718c12"><use xlink:href="#z38718d12"/></clipPath>
	<clipPath id="z38718c13"><use xlink:href="#z38718d13"/></clipPath>
	<clipPath id="z38718c14"><use xlink:href="#z38718d14"/></clipPath>
	<clipPath id="z38718c15"><use xlink:href="#z38718d15"/></clipPath>
	<clipPath id="z38718c16"><use xlink:href="#z38718d16"/></clipPath>
	<clipPath id="z38718c17"><use xlink:href="#z38718d17"/></clipPath>
	<clipPath id="z38718c18"><use xlink:href="#z38718d18"/></clipPath>
	<clipPath id="z38718c19"><use xlink:href="#z38718d19"/></clipPath>
	<clipPath id="z38718c20"><use xlink:href="#z38718d20"/></clipPath>
	<clipPath id="z38718c21"><use xlink:href="#z38718d21"/></clipPath>
	<clipPath id="z38718c22"><use xlink:href="#z38718d22"/></clipPath>
</defs>
<path style="--d:1s;" pathLength="3333" clip-path="url(#z38718c1)" d="M368 114L675 82"/>
<path style="--d:2s;" pathLength="3333" clip-path="url(#z38718c2)" d="M242 201L249 247L204 376"/>
<path style="--d:3s;" pathLength="3333" clip-path="url(#z38718c3)" d="M277 248L748 177L807 202L831 231L750 288"/>
<path style="--d:4s;" pathLength="3333" clip-path="url(#z38718c4)" d="M493 134L525 164L513 419"/>
<path style="--d:5s;" pathLength="3333" clip-path="url(#z38718c5)" d="M357 282L443 319"/>
<path style="--d:6s;" pathLength="3333" clip-path="url(#z38718c6)" d="M348 352L429 391"/>
<path style="--d:7s;" pathLength="3333" clip-path="url(#z38718c7)" d="M613 254L699 291"/>
<path style="--d:8s;" pathLength="3333" clip-path="url(#z38718c8)" d="M600 337L693 368"/>
<path style="--d:9s;" pathLength="3333" clip-path="url(#z38718c9)" d="M391 437L338 433L225 506"/>
<path style="--d:10s;" pathLength="3333" clip-path="url(#z38718c10)" d="M178 543L245 610"/>
<path style="--d:11s;" pathLength="3333" clip-path="url(#z38718c11)" d="M283 504L338 554"/>
<path style="--d:12s;" pathLength="3333" clip-path="url(#z38718c12)" d="M454 547L412 541L284 628L182 668"/>
<path style="--d:13s;" pathLength="3333" clip-path="url(#z38718c13)" d="M344 617L417 708L426 830L380 916L298 863"/>
<path style="--d:14s;" pathLength="3333" clip-path="url(#z38718c14)" d="M347 639L345 673L309 700L178 762"/>
<path style="--d:15s;" pathLength="3333" clip-path="url(#z38718c15)" d="M386 692L381 730L323 788L166 880"/>
<path style="--d:16s;" pathLength="3333" clip-path="url(#z38718c16)" d="M476 475L508 513L547 690"/>
<path style="--d:17s;" pathLength="3333" clip-path="url(#z38718c17)" d="M526 479L758 450L797 463L814 490L746 680"/>
<path style="--d:18s;" pathLength="3333" clip-path="url(#z38718c18)" d="M573 577L720 559"/>
<path style="--d:19s;" pathLength="3333" clip-path="url(#z38718c19)" d="M569 666L728 639"/>
<path style="--d:20s;" pathLength="3333" clip-path="url(#z38718c20)" d="M613 490L645 521L634 850"/>
<path style="--d:21s;" pathLength="3333" clip-path="url(#z38718c21)" d="M535 758L759 738"/>
<path style="--d:22s;" pathLength="3333" clip-path="url(#z38718c22)" d="M462 877L804 852L907 867"/>
</svg>