<!--
AnimCJK 2016-2018 Copyright Francois Mizessyn, http://gooo.free.fr/animCJK/
Derived from:
    MakeMeAHanzi project - https://github.com/skishore/makemeahanzi
    Arphic PL KaitiM GB - https://apps.ubuntu.com/cat/applications/precise/fonts-arphic-gkai00mp/
    Arphic PL UKai - https://apps.ubuntu.com/cat/applications/fonts-arphic-ukai/
You can redistribute and/or modify this file under the terms of the Arphic Public License
as published by Arphic Technology Co., Ltd.
You should have received a copy of this license (the directory "APL") along with this file;
if not, see http://ftp.gnu.org/non-gnu/chinese-fonts-truetype/LICENSE.
-->
<svg id="z38808" class="acjk" version="1.1" viewBox="0 0 1024 1024" xmlns="http://www.w3.org/2000/svg" xmlns:xlink="http://www.w3.org/1999/xlink">
<style>
<![CDATA[
@keyframes z38808k {
	from {
		stroke:#ccc;
		stroke-dashoffset:3334;
	}
	1% {
		stroke:#c00;
		stroke-dashoffset:3334;
	}
	75% {
		stroke:#c00;
		stroke-dashoffset:0;
	}
	to {
		stroke:#000;
	}
}
#z38808 path[clip-path] {
	animation:z38808k 1s linear both;
	stroke-dasharray:3334;
	stroke-width:128;
	stroke-linecap:round;
	fill:none;
}
#z38808 path[clip-path="url(#z38808c1)"] {animation-delay:1s;}
#z38808 path[clip-path="url(#z38808c2)"] {animation-delay:2s;}
#z38808 path[clip-path="url(#z38808c3)"] {animation-delay:3s;}
#z38808 path[clip-path="url(#z38808c4)"] {animation-delay:4s;}
#z38808 path[clip-path="url(#z38808c5)"] {animation-delay:5s;}
#z38808 path[clip-path="url(#z38808c6)"] {animation-delay:6s;}
#z38808 path[clip-path="url(#z38808c7)"] {animation-delay:7s;}
#z38808 path[clip-path="url(#z38808c8)"] {animation-delay:8s;}
#z38808 path[clip-path="url(#z38808c9)"] {animation-delay:9s;}
#z38808 path[clip-path="url(#z38808c10)"] {animation-delay:10s;}
#z38808 path[clip-path="url(#z38808c11)"] {animation-delay:11s;}
#z38808 path[clip-path="url(#z38808c12)"] {animation-delay:12s;}
#z38808 path[clip-path="url(#z38808c13)"] {animation-delay:13s;}
#z38808 path[clip-path="url(#z38808c14)"] {animation-delay:14s;}
#z38808 path[clip-path="url(#z38808c15)"] {animation-delay:15s;}
#z38808 path[clip-path="url(#z38808c16)"] {animation-delay:16s;}
#z38808 path {fill:#ccc;}
]]>
</style>
<path id="z38808d1" d="M423 238Q469 231 509 225Q518 226 526 215Q526 205 507 196Q473 178 432 195L386 207Q317 223 283 232L242 239Q235 239 147 251Q123 255 142 269Q172 290 216 279Q231 275 249 273L285 265Q328 255 382 245L423 238 Z"/>
<path id="z38808d2" d="M283 232Q277 202 280 168Q284 152 273 145Q260 138 238 131Q220 127 205 136Q198 143 210 154Q231 182 242 239L249 273Q258 318 262 358Q266 379 274 392Q280 399 286 394Q292 388 292 369L292 343Q288 307 285 265L283 232 Z"/>
<path id="z38808d3" d="M404 325Q414 279 423 238L432 195Q438 158 456 114Q460 107 446 93Q421 74 403 69Q391 65 384 70Q377 74 382 88Q394 110 393 124Q390 164 386 207L382 245Q378 282 371 322L404 325 Z"/>
<path id="z38808d4" d="M339 365Q367 359 419 355Q428 354 429 346Q429 339 404 325L371 322Q364 322 361 324Q324 336 292 343L292 369Q295 369 297 370Q298 370 300 370L339 365 Z"/>
<path id="z38808d5" d="M215 461Q205 457 178 452Q168 451 164 455Q160 461 167 474Q189 513 205 578Q209 597 221 610Q237 629 242 615Q243 608 244 598L241 571Q231 508 228 487L215 461 Z"/>
<path id="z38808d6" d="M467 530Q485 475 509 462Q522 446 510 432Q444 386 398 412Q377 419 358 427L312 440Q264 450 215 461L228 487Q258 478 313 466L356 456Q420 438 430 447Q437 453 435 465Q431 499 424 527L467 530 Z"/>
<path id="z38808d7" d="M352 578Q404 568 478 559Q488 558 488 550Q488 543 467 530L424 527Q423 526 421 527Q382 537 352 547L312 557Q273 564 241 571L244 598Q253 598 265 597Q284 591 311 586L352 578 Z"/>
<path id="z38808d8" d="M351 680Q403 667 470 656Q486 653 486 646Q487 634 470 626Q443 616 422 621Q382 631 351 640L308 651Q154 687 91 695Q79 696 77 704Q74 714 89 725Q128 749 165 736Q246 706 305 691L351 680 Z"/>
<path id="z38808d9" d="M351 640Q351 609 352 578L352 547Q352 546 353 544Q353 492 356 456L358 427Q359 409 362 397Q362 385 339 365L300 370Q304 376 312 440L313 466Q313 506 312 557L311 586Q311 601 308 651L305 691Q290 835 295 852Q301 874 314 893Q324 909 331 914Q341 915 347 903Q359 873 355 845Q352 758 351 680L351 640 Z"/>
<path id="z38808d10" d="M689 421Q708 196 726 138Q729 128 711 114Q680 96 658 92Q643 88 636 96Q629 103 636 116Q654 144 654 162Q658 286 650 431L689 421 Z"/>
<path id="z38808d11" d="M532 316Q581 377 595 380Q604 381 609 371Q615 359 611 335Q610 317 585 301Q528 268 516 273Q512 276 511 287Q512 296 532 316 Z"/>
<path id="z38808d12" d="M822 215Q798 257 747 323Q741 330 747 337Q754 338 762 333Q852 260 896 231Q912 225 908 215Q901 199 882 182Q863 166 840 165Q825 166 827 185Q831 198 822 215 Z"/>
<path id="z38808d13" d="M594 668Q595 619 598 584L599 559Q602 495 605 473Q605 469 605 467L592 439Q574 421 543 423Q530 427 536 438Q587 547 536 755Q505 833 535 871Q542 884 552 878Q591 851 592 703Q592 697 593 693L594 668 Z"/>
<path id="z38808d14" d="M605 467Q606 467 748 435Q767 429 772 440Q784 476 791 657Q795 816 783 840Q779 847 758 842Q728 838 699 832Q680 828 681 837Q744 880 780 913Q793 929 808 934Q817 937 825 927Q861 879 857 827Q821 491 845 449Q857 430 845 421Q824 403 789 390Q771 383 756 391Q716 413 689 421L650 431Q625 434 592 439L605 467 Z"/>
<path id="z38808d15" d="M598 584Q605 584 612 583Q681 568 732 560Q754 556 745 543Q735 530 711 527Q674 524 599 559L598 584 Z"/>
<path id="z38808d16" d="M593 693Q597 694 606 693Q682 681 739 675Q761 671 753 659Q743 646 719 641Q692 638 594 668L593 693 Z"/>
<defs>
	<clipPath id="z38808c1"><use xlink:href="#z38808d1"/></clipPath>
	<clipPath id="z38808c2"><use xlink:href="#z38808d2"/></clipPath>
	<clipPath id="z38808c3"><use xlink:href="#z38808d3"/></clipPath>
	<clipPath id="z38808c4"><use xlink:href="#z38808d4"/></clipPath>
	<clipPath id="z38808c5"><use xlink:href="#z38808d5"/></clipPath>
	<clipPath id="z38808c6"><use xlink:href="#z38808d6"/></clipPath>
	<clipPath id="z38808c7"><use xlink:href="#z38808d7"/></clipPath>
	<clipPath id="z38808c8"><use xlink:href="#z38808d8"/></clipPath>
	<clipPath id="z38808c9"><use xlink:href="#z38808d9"/></clipPath>
	<clipPath id="z38808c10"><use xlink:href="#z38808d10"/></clipPath>
	<clipPath id="z38808c11"><use xlink:href="#z38808d11"/></clipPath>
	<clipPath id="z38808c12"><use xlink:href="#z38808d12"/></clipPath>
	<clipPath id="z38808c13"><use xlink:href="#z38808d13"/></clipPath>
	<clipPath id="z38808c14"><use xlink:href="#z38808d14"/></clipPath>
	<clipPath id="z38808c15"><use xlink:href="#z38808d15"/></clipPath>
	<clipPath id="z38808c16"><use xlink:href="#z38808d16"/></clipPath>
</defs>
<path pathLength="3333" clip-path="url(#z38808c1)" d="M145 261L518 216"/>
<path pathLength="3333" clip-path="url(#z38808c2)" d="M211 141L254 172L282 391"/>
<path pathLength="3333" clip-path="url(#z38808c3)" d="M388 78L425 114L393 322"/>
<path pathLength="3333" clip-path="url(#z38808c4)" d="M301 361L421 344"/>
<path pathLength="3333" clip-path="url(#z38808c5)" d="M170 460L198 481L233 614"/>
<path pathLength="3333" clip-path="url(#z38808c6)" d="M222 464L433 424L475 455L434 524"/>
<path pathLength="3333" clip-path="url(#z38808c7)" d="M247 590L481 547"/>
<path pathLength="3333" clip-path="url(#z38808c8)" d="M82 707L145 713L480 642"/>
<path pathLength="3333" clip-path="url(#z38808c9)" d="M308 373L335 403L332 905"/>
<path pathLength="3333" clip-path="url(#z38808c10)" d="M640 100L689 146L661 427"/>
<path pathLength="3333" clip-path="url(#z38808c11)" d="M517 280L601 374"/>
<path pathLength="3333" clip-path="url(#z38808c12)" d="M837 168L865 218L753 328"/>
<path pathLength="3333" clip-path="url(#z38808c13)" d="M541 429L574 463L580 510L545 876"/>
<path pathLength="3333" clip-path="url(#z38808c14)" d="M602 443L770 410L813 445L816 863L793 889L689 837"/>
<path pathLength="3333" clip-path="url(#z38808c15)" d="M602 576L743 549"/>
<path pathLength="3333" clip-path="url(#z38808c16)" d="M598 685L747 662"/>
</svg>