<!--
AnimCJK 2016-2019 Copyright Francois Mizessyn - https://github.com/parsimonhi/animCJK
Derived from:
    MakeMeAHanzi project - https://github.com/skishore/makemeahanzi
    Arphic PL KaitiM GB font
    Arphic PL UKai font
You can redistribute and/or modify this file under the terms of the Arphic Public License
as published by Arphic Technology Co., Ltd.
You should have received a copy of this license along with this file.
If not, see http://ftp.gnu.org/non-gnu/chinese-fonts-truetype/LICENSE.
-->
<svg id="z38836" class="acjk" version="1.1" viewBox="0 0 1024 1024" xmlns="http://www.w3.org/2000/svg" xmlns:xlink="http://www.w3.org/1999/xlink">
<style>
<![CDATA[
@keyframes zk {
	to {
		stroke-dashoffset:0;
	}
}
svg.acjk path[clip-path] {
	--t:0.8s;
	animation:zk var(--t) linear forwards var(--d);
	stroke-dasharray:3337;
	stroke-dashoffset:3339;
	stroke-width:128;
	stroke-linecap:round;
	fill:none;
	stroke:#000;
}
svg.acjk path[id] {fill:#ccc;}
]]>
</style>
<path id="z38836d1" d="M395 279Q422 275 448 271Q458 272 466 260Q467 250 446 240Q422 228 405 230C388 230 373 240 357 243Q330 249 306 256Q281 262 261 267C232 273 232 273 217 276Q211 275 139 286Q114 290 134 305Q164 326 200 318Q210 315 223 314C248 308 248 308 261 305Q301 295 353 286C381 281 381 281 395 279Z"/>
<path id="z38836d2" d="M261 267Q261 195 260 194Q257 193 257 192Q244 182 221 174Q203 170 187 179Q178 186 190 197Q205 212 217 276C221 301 221 301 223 314Q223 315 224 319Q233 403 242 420Q248 427 254 422Q258 418 260 406C262 386 262 386 263 376Q263 331 261 305C261 280 261 280 261 267Z"/>
<path id="z38836d3" d="M380 351Q387 314 395 279C402 246 402 246 405 230Q409 188 430 140Q434 131 419 117Q394 98 374 93Q361 89 354 95Q347 99 352 113Q365 135 363 149Q362 194 357 243C354 272 354 272 353 286Q349 317 345 352C343 364 378 362 380 351Z"/>
<path id="z38836d4" d="M304 401Q340 392 403 385Q412 384 413 375Q413 368 383 351Q382 350 380 351C357 352 357 352 345 352Q341 352 340 353Q297 368 263 376C253 378 250 406 260 406Q261 405 263 406Q267 406 272 406C293 403 293 403 304 401Z"/>
<path id="z38836d5" d="M194 490Q187 486 155 480Q145 479 142 482Q138 488 145 501Q167 543 182 612Q185 633 198 647Q214 665 218 651Q219 644 220 634C222 624 219 615 217 605Q205 541 203 517C201 508 203 494 194 490Z"/>
<path id="z38836d6" d="M426 567Q445 510 467 496Q480 480 468 466Q455 456 411 437Q398 431 329 459C299 468 299 468 284 472Q241 481 194 490C185 492 194 519 203 517Q210 516 223 512Q254 505 285 498C313 492 313 492 327 489Q343 485 364 480Q382 476 390 483Q397 489 396 502Q392 535 386 563C383 576 421 579 426 567Z"/>
<path id="z38836d7" d="M324 613Q370 603 439 595Q448 594 449 586Q449 579 426 567C415 560 399 561 386 563Q382 563 381 564Q351 571 324 581C297 588 297 588 284 591Q247 598 217 605C207 607 210 636 220 634C261 625 261 625 282 621C310 616 310 616 324 613Z"/>
<path id="z38836d8" d="M324 723Q379 710 450 700Q465 697 466 690Q467 678 450 670Q416 655 323 684C293 691 293 691 278 694Q142 721 92 727Q80 728 77 736Q74 746 89 757Q123 781 173 766Q227 747 274 736C307 727 307 727 324 723Z"/>
<path id="z38836d9" d="M274 736Q264 844 275 870Q279 880 286 890Q296 906 303 910Q313 911 318 899Q328 871 326 844Q325 781 324 723C323 697 323 697 323 684Q323 647 324 613C324 592 324 592 324 581Q324 575 325 570Q325 522 327 489C328 469 328 469 329 459Q330 444 332 435Q335 423 328 418Q315 408 304 401C295 395 266 397 272 406Q282 422 284 472C285 489 285 489 285 498Q285 538 284 591C283 611 283 611 282 621Q281 661 278 694C275 722 275 722 274 736Z"/>
<path id="z38836d10" d="M750 265Q763 261 781 259Q827 249 835 243Q842 236 838 229Q832 220 809 214Q785 208 761 218Q757 219 757 220C721 231 721 231 703 236Q675 243 650 250Q631 253 613 258C584 263 584 263 569 265Q541 266 511 270Q481 274 503 289Q530 305 572 301C599 295 599 295 613 292Q656 282 701 275C734 268 734 268 750 265Z"/>
<path id="z38836d11" d="M613 258Q614 218 617 207Q620 188 607 177Q588 161 564 153Q552 149 544 153Q537 159 543 172Q561 206 569 265C571 289 571 289 572 301Q575 338 580 395C580 407 614 401 614 389Q613 332 613 292C613 269 613 269 613 258Z"/>
<path id="z38836d12" d="M731 368Q740 316 750 265C755 235 755 235 757 220Q760 199 777 150Q781 141 765 127Q737 108 715 102Q702 98 694 104Q687 110 692 124Q707 146 706 162Q705 198 703 236C702 262 702 262 701 275Q697 324 691 376C688 389 728 381 731 368Z"/>
<path id="z38836d13" d="M587 425Q695 397 901 396Q919 396 923 388Q927 378 914 368Q866 334 814 351Q778 357 731 368C704 373 704 373 691 376Q678 377 666 380Q641 384 614 389C591 393 591 393 580 395Q519 402 454 413Q436 416 450 429Q462 441 476 444Q494 448 507 444Q523 438 543 435C572 428 572 428 587 425Z"/>
<path id="z38836d14" d="M551 518Q590 461 596 457Q603 450 599 440Q596 433 587 425C576 414 543 420 543 435Q543 480 448 607Q441 614 440 618Q439 625 447 624Q453 623 524 553Q524 552 525 552C542 529 542 529 551 518Z"/>
<path id="z38836d15" d="M558 523Q555 520 551 518C539 511 522 538 525 552Q525 553 526 557Q545 623 515 771Q488 838 519 876Q528 889 537 877Q564 844 564 761Q564 652 578 558C580 545 569 531 558 523Z"/>
<path id="z38836d16" d="M695 532Q731 523 772 517Q794 511 805 523Q812 527 815 564Q824 688 817 828Q816 849 809 854Q797 861 743 848Q730 844 730 853Q730 859 741 865Q790 904 815 934Q831 950 843 949Q853 946 864 922Q877 885 878 828Q863 573 877 541Q887 522 879 512Q869 499 829 478Q808 469 750 488Q639 512 558 523C545 526 565 558 578 558Q582 558 589 557Q616 548 647 543C679 536 679 536 695 532Z"/>
<path id="z38836d17" d="M701 631Q732 624 761 618Q782 614 773 603Q763 590 740 588Q724 587 702 594C672 604 672 604 657 609Q623 621 593 632Q578 636 598 649Q599 649 658 642C687 635 687 635 701 631Z"/>
<path id="z38836d18" d="M700 730Q736 723 767 719Q789 715 781 703Q771 690 747 686Q728 683 700 691C672 700 672 700 658 704Q621 714 590 724Q575 728 594 741Q600 744 658 737C686 732 686 732 700 730Z"/>
<path id="z38836d19" d="M700 691Q700 666 701 631C702 606 702 606 702 594Q702 582 708 555Q708 546 695 532C683 520 641 528 647 543Q651 549 657 609C658 631 658 631 658 642Q658 670 658 704C658 726 658 726 658 737Q659 744 659 755Q660 854 672 874Q676 878 682 877Q688 874 691 863Q700 841 700 730C700 704 700 704 700 691Z"/>
<defs>
	<clipPath id="z38836c1"><use xlink:href="#z38836d1"/></clipPath>
	<clipPath id="z38836c2"><use xlink:href="#z38836d2"/></clipPath>
	<clipPath id="z38836c3"><use xlink:href="#z38836d3"/></clipPath>
	<clipPath id="z38836c4"><use xlink:href="#z38836d4"/></clipPath>
	<clipPath id="z38836c5"><use xlink:href="#z38836d5"/></clipPath>
	<clipPath id="z38836c6"><use xlink:href="#z38836d6"/></clipPath>
	<clipPath id="z38836c7"><use xlink:href="#z38836d7"/></clipPath>
	<clipPath id="z38836c8"><use xlink:href="#z38836d8"/></clipPath>
	<clipPath id="z38836c9"><use xlink:href="#z38836d9"/></clipPath>
	<clipPath id="z38836c10"><use xlink:href="#z38836d10"/></clipPath>
	<clipPath id="z38836c11"><use xlink:href="#z38836d11"/></clipPath>
	<clipPath id="z38836c12"><use xlink:href="#z38836d12"/></clipPath>
	<clipPath id="z38836c13"><use xlink:href="#z38836d13"/></clipPath>
	<clipPath id="z38836c14"><use xlink:href="#z38836d14"/></clipPath>
	<clipPath id="z38836c15"><use xlink:href="#z38836d15"/></clipPath>
	<clipPath id="z38836c16"><use xlink:href="#z38836d16"/></clipPath>
	<clipPath id="z38836c17"><use xlink:href="#z38836d17"/></clipPath>
	<clipPath id="z38836c18"><use xlink:href="#z38836d18"/></clipPath>
	<clipPath id="z38836c19"><use xlink:href="#z38836d19"/></clipPath>
</defs>
<path style="--d:1s;" pathLength="3333" clip-path="url(#z38836c1)" d="M133 294L458 254"/>
<path style="--d:2s;" pathLength="3333" clip-path="url(#z38836c2)" d="M192 184L231 208L248 414"/>
<path style="--d:3s;" pathLength="3333" clip-path="url(#z38836c3)" d="M357 97L396 144L356 349"/>
<path style="--d:4s;" pathLength="3333" clip-path="url(#z38836c4)" d="M266 398L408 376"/>
<path style="--d:5s;" pathLength="3333" clip-path="url(#z38836c5)" d="M149 490L178 517L211 649"/>
<path style="--d:6s;" pathLength="3333" clip-path="url(#z38836c6)" d="M205 499L401 460L434 487L401 564"/>
<path style="--d:7s;" pathLength="3333" clip-path="url(#z38836c7)" d="M226 626L385 582L443 587"/>
<path style="--d:8s;" pathLength="3333" clip-path="url(#z38836c8)" d="M82 739L139 746L459 689"/>
<path style="--d:9s;" pathLength="3333" clip-path="url(#z38836c9)" d="M282 412L308 441L306 901"/>
<path style="--d:10s;" pathLength="3333" clip-path="url(#z38836c10)" d="M503 278L566 283L832 230"/>
<path style="--d:11s;" pathLength="3333" clip-path="url(#z38836c11)" d="M548 158L587 203L593 391"/>
<path style="--d:12s;" pathLength="3333" clip-path="url(#z38836c12)" d="M697 111L741 148L701 369"/>
<path style="--d:13s;" pathLength="3333" clip-path="url(#z38836c13)" d="M451 420L825 372L918 382"/>
<path style="--d:14s;" pathLength="3333" clip-path="url(#z38836c14)" d="M593 439L447 617"/>
<path style="--d:15s;" pathLength="3333" clip-path="url(#z38836c15)" d="M552 527L528 878"/>
<path style="--d:16s;" pathLength="3333" clip-path="url(#z38836c16)" d="M566 525L604 535L793 496L845 525L837 884L818 902L737 854"/>
<path style="--d:17s;" pathLength="3333" clip-path="url(#z38836c17)" d="M594 637L771 605"/>
<path style="--d:18s;" pathLength="3333" clip-path="url(#z38836c18)" d="M590 731L778 706"/>
<path style="--d:19s;" pathLength="3333" clip-path="url(#z38836c19)" d="M654 547L681 573L680 869"/>
</svg>