<!--
AnimCJK 2016-2017 Copyright Francois Mizessyn, http://gooo.free.fr/animCJK/
Derived from:
    MakeMeAHanzi project - https://github.com/skishore/makemeahanzi
    Arphic PL KaitiM GB - https://apps.ubuntu.com/cat/applications/precise/fonts-arphic-gkai00mp/
    Arphic PL UKai - https://apps.ubuntu.com/cat/applications/fonts-arphic-ukai/
You can redistribute and/or modify this file under the terms of the Arphic Public License
as published by Arphic Technology Co., Ltd.
You should have received a copy of this license (the directory "APL") along with this file;
if not, see http://ftp.gnu.org/non-gnu/chinese-fonts-truetype/LICENSE.
-->
<svg id="z39039" class="acjk" version="1.1" viewBox="0 0 1024 1024" xmlns="http://www.w3.org/2000/svg" xmlns:xlink="http://www.w3.org/1999/xlink">
<style>
<![CDATA[
	@keyframes z39039k {
		from {
			stroke:#c00;
			stroke-dashoffset:3000;
		}
		75% {
			stroke:#c00;
			stroke-dashoffset:0;
		}
		to {
			stroke:#000;
		}
	}
	#z39039 path[clip-path] {
		animation:z39039k 1s linear both;
		stroke-dasharray:3000;
		stroke-width:128;
		stroke-linecap:round;
		fill:none;
	}
	#z39039 path[clip-path="url(#z39039c1)"] {animation-delay:1s;}
	#z39039 path[clip-path="url(#z39039c2)"] {animation-delay:2s;}
	#z39039 path[clip-path="url(#z39039c3)"] {animation-delay:3s;}
	#z39039 path[clip-path="url(#z39039c4)"] {animation-delay:4s;}
	#z39039 path[clip-path="url(#z39039c5)"] {animation-delay:5s;}
	#z39039 path[clip-path="url(#z39039c6)"] {animation-delay:6s;}
	#z39039 path[clip-path="url(#z39039c7)"] {animation-delay:7s;}
	#z39039 path[clip-path="url(#z39039c8)"] {animation-delay:8s;}
	#z39039 path[clip-path="url(#z39039c9)"] {animation-delay:9s;}
	#z39039 path[clip-path="url(#z39039c10)"] {animation-delay:10s;}
	#z39039 path {fill:#ccc;}
]]>
</style>
<g transform="scale(1,-1) translate(0,-900)">
	<path id="z39039d1" d="M309 588Q412 619 417 623Q426 632 420 640Q413 652 382 657Q363 660 312 643L261 624Q252 623 246 619Q203 607 151 599Q114 590 142 575Q184 553 252 574Q256 575 261 576L309 588Z"/>
	<path id="z39039d2" d="M299 365Q300 368 304 368Q352 387 369 386L368 420Q332 411 300 400L257 386Q214 373 181 357Q168 353 170 369Q177 450 169 460Q156 475 134 486Q124 490 115 488Q106 484 113 468Q132 429 128 389Q124 352 110 334Q95 318 103 306Q113 294 130 286Q142 280 150 288Q168 315 255 348L299 365Z"/>
	<path id="z39039d3" d="M369 386Q373 368 381 355Q388 342 399 351Q421 375 425 448Q438 496 443 501Q450 514 441 527Q425 540 396 557Q384 564 373 558Q366 555 369 543Q376 536 383 481Q379 447 370 425Q369 424 368 420L369 386Z"/>
	<path id="z39039d4" d="M255 348Q245 212 217 177Q204 158 214 136Q227 115 246 107Q256 100 270 117Q292 148 401 245Q429 264 432 275Q435 282 429 284Q426 284 314 223Q293 207 292 233Q295 299 299 365L300 400Q304 493 309 588L312 643Q312 742 322 774Q329 793 314 808Q290 827 264 834Q233 841 223 828Q216 816 229 803Q257 778 261 624L261 576Q261 503 257 386L255 348Z"/>
	<path id="z39039d5" d="M631 728Q679 744 836 750Q884 754 889 761Q893 771 878 783Q821 817 764 796Q686 778 462 733Q443 729 458 715Q471 703 488 700Q507 696 521 701Q552 711 588 718L631 728Z"/>
	<path id="z39039d6" d="M597 586Q610 601 640 661Q644 671 654 684Q667 697 658 706Q649 718 631 728L588 718Q597 700 584 617Q580 602 579 582L597 586Z"/>
	<path id="z39039d7" d="M534 576Q515 592 489 600Q482 601 475 594Q472 590 479 579Q513 495 492 339Q477 261 477 257Q477 254 478 250Q487 219 498 208Q508 195 517 208Q541 236 542 388Q542 517 547 549L534 576Z"/>
	<path id="z39039d8" d="M753 267Q746 242 761 219Q776 188 786 190Q801 191 817 227Q833 255 830 277Q797 493 829 558Q838 588 838 590Q808 614 758 635Q742 639 719 630Q677 609 624 593Q609 590 597 586L579 582Q554 579 534 576L547 549Q634 567 723 587Q730 587 736 584Q748 560 754 497Q761 304 753 267Z"/>
	<path id="z39039d9" d="M617 446Q617 190 535 97Q520 84 503 69Q466 38 384 0Q374 -4 370 -7Q366 -11 379 -14Q428 -18 529 39Q646 111 661 360Q661 418 678 472Q682 482 675 489Q659 502 629 515Q610 524 596 518Q580 512 593 497Q617 472 617 446Z"/>
	<path id="z39039d10" d="M688 147Q743 89 808 7Q824 -15 839 -21Q849 -24 857 -13Q872 0 861 47Q849 104 691 179Q682 186 679 172Q678 159 688 147Z"/>
	<defs>
		<clipPath id="z39039c1"><use xlink:href="#z39039d1"/></clipPath>
		<clipPath id="z39039c2"><use xlink:href="#z39039d2"/></clipPath>
		<clipPath id="z39039c3"><use xlink:href="#z39039d3"/></clipPath>
		<clipPath id="z39039c4"><use xlink:href="#z39039d4"/></clipPath>
		<clipPath id="z39039c5"><use xlink:href="#z39039d5"/></clipPath>
		<clipPath id="z39039c6"><use xlink:href="#z39039d6"/></clipPath>
		<clipPath id="z39039c7"><use xlink:href="#z39039d7"/></clipPath>
		<clipPath id="z39039c8"><use xlink:href="#z39039d8"/></clipPath>
		<clipPath id="z39039c9"><use xlink:href="#z39039d9"/></clipPath>
		<clipPath id="z39039c10"><use xlink:href="#z39039d10"/></clipPath>
	</defs>
	<path pathLength="2999" clip-path="url(#z39039c1)" d="M137 588L418 630"/>
	<path pathLength="2999" clip-path="url(#z39039c2)" d="M119 482L147 446L136 336L152 322L365 409"/>
	<path pathLength="2999" clip-path="url(#z39039c3)" d="M376 552L413 509L393 354"/>
	<path pathLength="2999" clip-path="url(#z39039c4)" d="M229 823L286 772L254 178L283 161L427 278"/>
	<path pathLength="2999" clip-path="url(#z39039c5)" d="M458 725L795 776L884 769"/>
	<path pathLength="2999" clip-path="url(#z39039c6)" d="M596 714L626 686L587 589"/>
	<path pathLength="2999" clip-path="url(#z39039c7)" d="M483 591L519 542L501 209"/>
	<path pathLength="2999" clip-path="url(#z39039c8)" d="M541 574L737 611L791 573L778 196"/>
	<path pathLength="2999" clip-path="url(#z39039c9)" d="M594 511L647 469L595 152L524 60L379 -7"/>
	<path pathLength="2999" clip-path="url(#z39039c10)" d="M686 176L817 55L849 -17"/>
</g>
</svg>