<!--
AnimCJK 2016-2017 Copyright Francois Mizessyn, http://gooo.free.fr/animCJK/
Derived from:
    MakeMeAHanzi project - https://github.com/skishore/makemeahanzi
    Arphic PL KaitiM GB - https://apps.ubuntu.com/cat/applications/precise/fonts-arphic-gkai00mp/
    Arphic PL UKai - https://apps.ubuntu.com/cat/applications/fonts-arphic-ukai/
You can redistribute and/or modify this file under the terms of the Arphic Public License
as published by Arphic Technology Co., Ltd.
You should have received a copy of this license (the directory "APL") along with this file;
if not, see http://ftp.gnu.org/non-gnu/chinese-fonts-truetype/LICENSE.
-->
<svg id="z39037" class="acjk" version="1.1" viewBox="0 0 1024 1024" xmlns="http://www.w3.org/2000/svg" xmlns:xlink="http://www.w3.org/1999/xlink">
<style>
<![CDATA[
	@keyframes z39037k {
		from {
			stroke:#c00;
			stroke-dashoffset:3000;
		}
		75% {
			stroke:#c00;
			stroke-dashoffset:0;
		}
		to {
			stroke:#000;
		}
	}
	#z39037 path[clip-path] {
		animation:z39037k 1s linear both;
		stroke-dasharray:3000;
		stroke-width:128;
		stroke-linecap:round;
		fill:none;
	}
	#z39037 path[clip-path="url(#z39037c1)"] {animation-delay:1s;}
	#z39037 path[clip-path="url(#z39037c2)"] {animation-delay:2s;}
	#z39037 path[clip-path="url(#z39037c3)"] {animation-delay:3s;}
	#z39037 path[clip-path="url(#z39037c4)"] {animation-delay:4s;}
	#z39037 path[clip-path="url(#z39037c5)"] {animation-delay:5s;}
	#z39037 path[clip-path="url(#z39037c6)"] {animation-delay:6s;}
	#z39037 path[clip-path="url(#z39037c7)"] {animation-delay:7s;}
	#z39037 path[clip-path="url(#z39037c8)"] {animation-delay:8s;}
	#z39037 path[clip-path="url(#z39037c9)"] {animation-delay:9s;}
	#z39037 path[clip-path="url(#z39037c10)"] {animation-delay:10s;}
	#z39037 path {fill:#ccc;}
]]>
</style>
<g transform="scale(1,-1) translate(0,-900)">
	<path id="z39037d1" d="M223 705Q184 695 214 679Q263 658 320 678Q440 711 450 717Q459 727 453 736Q443 748 412 753Q379 756 348 740Q321 730 293 720Q262 711 223 705Z"/>
	<path id="z39037d2" d="M341 533Q390 546 450 558Q466 562 467 569Q467 582 449 590Q421 600 399 593Q180 532 99 519Q86 518 84 509Q81 499 97 488Q136 464 179 479Q191 485 206 489L237 501Q298 525 307 523L341 533Z"/>
	<path id="z39037d3" d="M206 489Q227 363 69 202Q62 196 54 187Q48 180 54 178Q81 174 152 240Q218 297 256 423Q263 442 273 463Q279 470 274 479Q268 488 242 499Q239 500 237 501L206 489Z"/>
	<path id="z39037d4" d="M307 523Q337 493 321 310Q318 300 317 290Q314 262 302 245Q292 224 300 203Q313 173 329 162Q339 155 351 174Q372 213 448 311Q463 327 463 335Q463 348 445 334Q370 285 367 284Q363 287 361 299Q367 446 375 483Q379 501 367 513Q354 528 341 533L307 523Z"/>
	<path id="z39037d5" d="M655 743Q682 758 839 766Q881 772 885 776Q885 777 886 777Q890 787 874 799Q819 833 755 809Q686 793 498 749Q479 745 494 731Q521 712 568 722Q590 729 616 734L655 743Z"/>
	<path id="z39037d6" d="M617 611Q623 620 632 631Q645 649 659 672Q666 682 677 695Q690 705 683 716Q676 729 655 743L616 734Q619 707 597 633Q590 617 588 605L617 611Z"/>
	<path id="z39037d7" d="M543 599Q527 611 507 616Q498 617 493 610Q490 606 497 596Q527 518 510 350Q495 293 499 276Q508 246 518 235Q528 223 537 236Q558 266 559 434Q559 542 563 572L543 599Z"/>
	<path id="z39037d8" d="M749 304Q742 282 755 261Q768 233 778 234Q791 235 806 267Q819 292 819 312Q806 393 806 518Q805 554 825 585Q835 601 827 610Q799 632 753 651Q738 655 716 647Q674 626 617 611L588 605Q564 602 543 599L563 572Q569 572 575 573Q722 609 736 602Q746 580 752 520Q758 339 749 304Z"/>
	<path id="z39037d9" d="M626 449Q633 200 554 111Q539 98 522 82Q486 51 404 12Q394 8 390 5Q386 1 399 -2Q412 -3 462 12Q498 22 549 53Q672 122 673 374Q673 426 687 477Q691 487 684 493Q668 506 636 519Q618 526 604 521Q588 514 601 500Q626 475 626 449Z"/>
	<path id="z39037d10" d="M714 159Q768 98 831 12Q844 -10 860 -17Q869 -18 877 -10Q892 3 884 48Q877 103 723 189Q720 190 719 191Q710 197 707 184Q704 171 714 159Z"/>
	<defs>
		<clipPath id="z39037c1"><use xlink:href="#z39037d1"/></clipPath>
		<clipPath id="z39037c2"><use xlink:href="#z39037d2"/></clipPath>
		<clipPath id="z39037c3"><use xlink:href="#z39037d3"/></clipPath>
		<clipPath id="z39037c4"><use xlink:href="#z39037d4"/></clipPath>
		<clipPath id="z39037c5"><use xlink:href="#z39037d5"/></clipPath>
		<clipPath id="z39037c6"><use xlink:href="#z39037d6"/></clipPath>
		<clipPath id="z39037c7"><use xlink:href="#z39037d7"/></clipPath>
		<clipPath id="z39037c8"><use xlink:href="#z39037d8"/></clipPath>
		<clipPath id="z39037c9"><use xlink:href="#z39037d9"/></clipPath>
		<clipPath id="z39037c10"><use xlink:href="#z39037d10"/></clipPath>
	</defs>
	<path pathLength="2999" clip-path="url(#z39037c1)" d="M209 693L449 727"/>
	<path pathLength="2999" clip-path="url(#z39037c2)" d="M90 509L157 502L461 576"/>
	<path pathLength="2999" clip-path="url(#z39037c3)" d="M212 484L241 453L191 323L58 185"/>
	<path pathLength="2999" clip-path="url(#z39037c4)" d="M314 520L349 485L338 230L352 214L455 335"/>
	<path pathLength="2999" clip-path="url(#z39037c5)" d="M494 742L803 792L881 785"/>
	<path pathLength="2999" clip-path="url(#z39037c6)" d="M622 731L647 695L595 610"/>
	<path pathLength="2999" clip-path="url(#z39037c7)" d="M499 607L536 544L522 234"/>
	<path pathLength="2999" clip-path="url(#z39037c8)" d="M550 599L590 591L736 628L788 584L777 238"/>
	<path pathLength="2999" clip-path="url(#z39037c9)" d="M605 512L656 471L617 171L536 68L397 4"/>
	<path pathLength="2999" clip-path="url(#z39037c10)" d="M714 183L834 67L873 -8"/>
</g>
</svg>