<!--
AnimCJK 2016-2019 Copyright Francois Mizessyn - https://github.com/parsimonhi/animCJK
Derived from:
    MakeMeAHanzi project - https://github.com/skishore/makemeahanzi
    Arphic PL KaitiM GB font
    Arphic PL UKai font
You can redistribute and/or modify this file under the terms of the Arphic Public License
as published by Arphic Technology Co., Ltd.
You should have received a copy of this license along with this file.
If not, see http://ftp.gnu.org/non-gnu/chinese-fonts-truetype/LICENSE.
-->
<svg id="z39036" class="acjk" version="1.1" viewBox="0 0 1024 1024" xmlns="http://www.w3.org/2000/svg" xmlns:xlink="http://www.w3.org/1999/xlink">
<style>
<![CDATA[
@keyframes zk {
	to {
		stroke-dashoffset:0;
	}
}
svg.acjk path[clip-path] {
	--t:0.8s;
	animation:zk var(--t) linear forwards var(--d);
	stroke-dasharray:3337;
	stroke-dashoffset:3339;
	stroke-width:128;
	stroke-linecap:round;
	fill:none;
	stroke:#000;
}
svg.acjk path[id] {fill:#ccc;}
]]>
</style>
<path id="z39036d1" d="M298 263Q329 253 364 246Q392 239 396 235Q406 225 400 217Q391 204 360 198Q327 194 295 207Q264 219 230 229Q193 238 149 243Q109 252 139 269Q184 293 244 275Q245 274 247 275C281 267 281 267 298 263Z"/>
<path id="z39036d2" d="M308 466Q329 459 354 452Q382 443 386 439Q393 432 388 423Q381 413 351 408Q329 405 309 413C276 427 276 427 259 434Q180 458 150 463Q116 472 142 486Q184 504 237 487Q247 484 259 481C292 471 292 471 308 466Z"/>
<path id="z39036d3" d="M303 637Q304 546 308 466C309 431 309 431 309 413Q312 278 313 277Q304 268 298 263C286 251 241 258 247 275Q257 297 259 434C259 465 259 465 259 481Q259 551 259 655C259 671 303 653 303 637Z"/>
<path id="z39036d4" d="M259 655Q124 703 101 705Q88 708 87 719Q86 734 97 741Q122 756 160 773Q172 774 183 765Q216 734 253 712Q311 679 368 645Q390 632 405 618Q418 608 418 599Q411 593 398 598Q353 617 303 637C274 649 274 649 259 655Z"/>
<path id="z39036d5" d="M622 168Q676 150 869 150Q888 149 892 141Q896 129 881 117Q823 80 781 96Q667 123 443 159Q424 162 438 177Q451 190 469 194Q488 198 503 193Q542 181 585 174C610 170 610 170 622 168Z"/>
<path id="z39036d6" d="M563 332Q584 314 624 251Q633 238 647 222Q660 212 654 201Q645 186 622 168C612 161 583 162 585 174Q592 202 554 299Q547 318 545 330Q544 331 545 334C545 340 558 336 563 332Z"/>
<path id="z39036d7" d="M521 337Q503 325 484 320Q475 319 469 327Q466 333 474 343Q510 415 485 581Q472 632 476 652Q486 683 497 696Q507 709 517 696Q541 671 541 523Q542 444 546 364C546 352 531 344 521 337Z"/>
<path id="z39036d8" d="M546 364Q723 316 745 330Q755 352 759 413Q762 593 753 628Q746 652 759 673Q772 703 782 702Q797 701 813 668Q826 641 826 620Q816 541 818 416Q818 380 838 349Q848 333 841 323Q813 299 765 279Q749 275 726 283Q657 314 563 332C551 333 551 333 545 334Q532 335 521 337C509 339 534 366 546 364Z"/>
<path id="z39036d9" d="M613 476Q620 710 548 793Q533 809 513 825Q477 853 397 891Q385 895 382 899Q378 903 392 907Q462 913 574 836Q589 821 602 806Q659 733 663 557Q667 476 678 446Q682 436 674 428Q656 413 623 401Q604 392 588 398Q570 405 585 421Q612 448 613 476Z"/>
<path id="z39036d10" d="M705 764Q760 816 825 892Q841 913 856 918Q865 919 873 909Q886 896 874 851Q862 796 715 735Q711 732 707 732Q697 726 695 739Q694 752 705 764Z"/>
<defs>
	<clipPath id="z39036c1"><use xlink:href="#z39036d1"/></clipPath>
	<clipPath id="z39036c2"><use xlink:href="#z39036d2"/></clipPath>
	<clipPath id="z39036c3"><use xlink:href="#z39036d3"/></clipPath>
	<clipPath id="z39036c4"><use xlink:href="#z39036d4"/></clipPath>
	<clipPath id="z39036c5"><use xlink:href="#z39036d5"/></clipPath>
	<clipPath id="z39036c6"><use xlink:href="#z39036d6"/></clipPath>
	<clipPath id="z39036c7"><use xlink:href="#z39036d7"/></clipPath>
	<clipPath id="z39036c8"><use xlink:href="#z39036d8"/></clipPath>
	<clipPath id="z39036c9"><use xlink:href="#z39036d9"/></clipPath>
	<clipPath id="z39036c10"><use xlink:href="#z39036d10"/></clipPath>
</defs>
<path style="--d:1s;" pathLength="3333" clip-path="url(#z39036c1)" d="M132 255L396 220"/>
<path style="--d:2s;" pathLength="3333" clip-path="url(#z39036c2)" d="M139 475L386 428"/>
<path style="--d:3s;" pathLength="3333" clip-path="url(#z39036c3)" d="M256 284L284 309L281 627L264 646"/>
<path style="--d:4s;" pathLength="3333" clip-path="url(#z39036c4)" d="M92 722L165 730L410 604"/>
<path style="--d:5s;" pathLength="3333" clip-path="url(#z39036c5)" d="M443 171L797 121L889 134"/>
<path style="--d:6s;" pathLength="3333" clip-path="url(#z39036c6)" d="M592 177L617 217L556 331"/>
<path style="--d:7s;" pathLength="3333" clip-path="url(#z39036c7)" d="M474 329L517 382L507 693"/>
<path style="--d:8s;" pathLength="3333" clip-path="url(#z39036c8)" d="M532 339L744 303L792 332L773 691"/>
<path style="--d:9s;" pathLength="3333" clip-path="url(#z39036c9)" d="M581 406L645 454L611 733L544 829L387 900"/>
<path style="--d:10s;" pathLength="3333" clip-path="url(#z39036c10)" d="M701 738L816 828L868 911"/>
</svg>