<!--
AnimCJK 2016-2017 Copyright Francois Mizessyn, http://gooo.free.fr/animCJK/
Derived from:
    MakeMeAHanzi project - https://github.com/skishore/makemeahanzi
    Arphic PL KaitiM GB - https://apps.ubuntu.com/cat/applications/precise/fonts-arphic-gkai00mp/
    Arphic PL UKai - https://apps.ubuntu.com/cat/applications/fonts-arphic-ukai/
You can redistribute and/or modify this file under the terms of the Arphic Public License
as published by Arphic Technology Co., Ltd.
You should have received a copy of this license (the directory "APL") along with this file;
if not, see http://ftp.gnu.org/non-gnu/chinese-fonts-truetype/LICENSE.
-->
<svg id="z39057" class="acjk" version="1.1" viewBox="0 0 1024 1024" xmlns="http://www.w3.org/2000/svg" xmlns:xlink="http://www.w3.org/1999/xlink">
<style>
<![CDATA[
	@keyframes z39057k {
		from {
			stroke:#c00;
			stroke-dashoffset:3000;
		}
		75% {
			stroke:#c00;
			stroke-dashoffset:0;
		}
		to {
			stroke:#000;
		}
	}
	#z39057 path[clip-path] {
		animation:z39057k 1s linear both;
		stroke-dasharray:3000;
		stroke-width:128;
		stroke-linecap:round;
		fill:none;
	}
	#z39057 path[clip-path="url(#z39057c1)"] {animation-delay:1s;}
	#z39057 path[clip-path="url(#z39057c2)"] {animation-delay:2s;}
	#z39057 path[clip-path="url(#z39057c3)"] {animation-delay:3s;}
	#z39057 path[clip-path="url(#z39057c4)"] {animation-delay:4s;}
	#z39057 path[clip-path="url(#z39057c5)"] {animation-delay:5s;}
	#z39057 path[clip-path="url(#z39057c6)"] {animation-delay:6s;}
	#z39057 path[clip-path="url(#z39057c7)"] {animation-delay:7s;}
	#z39057 path[clip-path="url(#z39057c8)"] {animation-delay:8s;}
	#z39057 path[clip-path="url(#z39057c9)"] {animation-delay:9s;}
	#z39057 path[clip-path="url(#z39057c10)"] {animation-delay:10s;}
	#z39057 path[clip-path="url(#z39057c11)"] {animation-delay:11s;}
	#z39057 path[clip-path="url(#z39057c12)"] {animation-delay:12s;}
	#z39057 path[clip-path="url(#z39057c13)"] {animation-delay:13s;}
	#z39057 path {fill:#ccc;}
]]>
</style>
<g transform="scale(1,-1) translate(0,-900)">
	<path id="z39057d1" d="M375 544Q378 595 381 642L383 671Q383 689 398 793Q401 803 384 816Q353 832 331 835Q318 838 310 830Q303 823 311 810Q329 788 329 770Q339 661 338 533L375 544Z"/>
	<path id="z39057d2" d="M381 642L494 668Q515 674 506 685Q494 698 470 699Q431 702 383 671L381 642Z"/>
	<path id="z39057d3" d="M267 512Q260 579 260 626Q261 645 249 654Q230 667 206 674Q194 677 187 671Q181 667 187 654Q209 623 233 503L267 512Z"/>
	<path id="z39057d4" d="M359 503Q416 519 488 533Q503 536 503 543Q503 555 486 561Q458 573 375 544L338 533Q298 523 267 512L233 503Q134 481 86 471Q74 470 72 462Q71 452 84 443Q118 422 157 435Q286 489 322 493L359 503Z"/>
	<path id="z39057d5" d="M322 493Q338 454 326 336Q320 317 342 286Q349 279 357 287Q372 306 372 363Q372 430 379 470Q385 488 368 497Q364 501 359 503L322 493Z"/>
	<path id="z39057d6" d="M223 396Q205 350 179 310Q164 280 178 255Q185 240 202 251Q244 284 245 348Q249 376 243 396Q239 403 234 404Q227 403 223 396Z"/>
	<path id="z39057d7" d="M432 434Q438 290 290 140Q286 139 284 135Q242 92 140 17Q133 10 139 7Q146 4 157 8Q227 36 288 82Q396 160 472 338Q487 366 504 395Q511 402 507 413Q501 423 473 441Q454 453 444 451Q431 448 432 434Z"/>
	<path id="z39057d8" d="M677 719Q903 764 910 770Q919 777 914 785Q908 795 882 803Q861 809 743 775Q613 748 541 742Q507 738 531 721Q564 700 637 712L677 719Z"/>
	<path id="z39057d9" d="M635 579Q639 586 646 594Q661 616 677 644Q684 657 697 673Q710 683 702 693Q695 706 677 719L637 712Q644 685 612 595Q608 583 605 574L635 579Z"/>
	<path id="z39057d10" d="M586 573Q568 586 548 592Q541 593 535 587Q532 583 539 573Q576 483 551 316Q536 259 540 242Q549 214 559 203Q569 191 576 203Q597 233 598 406Q598 520 602 548L586 573Z"/>
	<path id="z39057d11" d="M781 260Q774 238 787 217Q800 189 810 190Q823 191 838 223Q851 248 851 268Q838 353 837 486Q836 523 857 557Q866 572 859 581Q834 603 789 621Q776 625 754 617Q742 611 635 579L605 574Q595 574 586 573L602 548Q611 548 687 566Q753 584 768 574Q780 552 785 487Q791 297 781 260Z"/>
	<path id="z39057d12" d="M660 414Q660 189 584 102Q569 90 552 76Q516 49 437 15Q425 12 422 9Q418 5 431 1Q503 -5 605 62Q624 77 638 93Q695 163 705 333Q708 405 722 440Q726 450 719 456Q703 471 673 483Q654 492 640 487Q624 480 637 465Q661 440 660 414Z"/>
	<path id="z39057d13" d="M734 138Q783 84 841 9Q854 -12 869 -17Q876 -18 885 -10Q898 2 889 44Q886 66 872 83Q854 101 812 126Q764 154 738 167Q729 173 727 161Q726 148 734 138Z"/>
	<defs>
		<clipPath id="z39057c1"><use xlink:href="#z39057d1"/></clipPath>
		<clipPath id="z39057c2"><use xlink:href="#z39057d2"/></clipPath>
		<clipPath id="z39057c3"><use xlink:href="#z39057d3"/></clipPath>
		<clipPath id="z39057c4"><use xlink:href="#z39057d4"/></clipPath>
		<clipPath id="z39057c5"><use xlink:href="#z39057d5"/></clipPath>
		<clipPath id="z39057c6"><use xlink:href="#z39057d6"/></clipPath>
		<clipPath id="z39057c7"><use xlink:href="#z39057d7"/></clipPath>
		<clipPath id="z39057c8"><use xlink:href="#z39057d8"/></clipPath>
		<clipPath id="z39057c9"><use xlink:href="#z39057d9"/></clipPath>
		<clipPath id="z39057c10"><use xlink:href="#z39057d10"/></clipPath>
		<clipPath id="z39057c11"><use xlink:href="#z39057d11"/></clipPath>
		<clipPath id="z39057c12"><use xlink:href="#z39057d12"/></clipPath>
		<clipPath id="z39057c13"><use xlink:href="#z39057d13"/></clipPath>
	</defs>
	<path pathLength="2999" clip-path="url(#z39057c1)" d="M315 824L363 788L347 538"/>
	<path pathLength="2999" clip-path="url(#z39057c2)" d="M387 651L504 683"/>
	<path pathLength="2999" clip-path="url(#z39057c3)" d="M191 667L231 628L242 507"/>
	<path pathLength="2999" clip-path="url(#z39057c4)" d="M76 460L146 458L497 545"/>
	<path pathLength="2999" clip-path="url(#z39057c5)" d="M330 490L355 463L346 289"/>
	<path pathLength="2999" clip-path="url(#z39057c6)" d="M234 399L192 250"/>
	<path pathLength="2999" clip-path="url(#z39057c7)" d="M440 445L469 401L385 220L280 102L146 12"/>
	<path pathLength="2999" clip-path="url(#z39057c8)" d="M528 733L607 729L909 783"/>
	<path pathLength="2999" clip-path="url(#z39057c9)" d="M644 705L668 670L614 581"/>
	<path pathLength="2999" clip-path="url(#z39057c10)" d="M542 582L578 513L565 206"/>
	<path pathLength="2999" clip-path="url(#z39057c11)" d="M596 568L774 599L814 569L801 198"/>
	<path pathLength="2999" clip-path="url(#z39057c12)" d="M637 475L690 439L647 159L566 61L428 7"/>
	<path pathLength="2999" clip-path="url(#z39057c13)" d="M734 159L846 60L875 -12"/>
</g>
</svg>