<!--
AnimCJK 2016-2018 Copyright Francois Mizessyn, http://gooo.free.fr/animCJK/
Derived from:
    MakeMeAHanzi project - https://github.com/skishore/makemeahanzi
    Arphic PL KaitiM GB - https://apps.ubuntu.com/cat/applications/precise/fonts-arphic-gkai00mp/
    Arphic PL UKai - https://apps.ubuntu.com/cat/applications/fonts-arphic-ukai/
You can redistribute and/or modify this file under the terms of the Arphic Public License
as published by Arphic Technology Co., Ltd.
You should have received a copy of this license (the directory "APL") along with this file;
if not, see http://ftp.gnu.org/non-gnu/chinese-fonts-truetype/LICENSE.
-->
<svg id="z39065" class="acjk" version="1.1" viewBox="0 0 1024 1024" xmlns="http://www.w3.org/2000/svg" xmlns:xlink="http://www.w3.org/1999/xlink">
<style>
<![CDATA[
@keyframes z39065k {
	from {
		stroke:#ccc;
		stroke-dashoffset:3334;
	}
	1% {
		stroke:#c00;
		stroke-dashoffset:3334;
	}
	75% {
		stroke:#c00;
		stroke-dashoffset:0;
	}
	to {
		stroke:#000;
	}
}
#z39065 path[clip-path] {
	animation:z39065k 1s linear both;
	stroke-dasharray:3334;
	stroke-width:128;
	stroke-linecap:round;
	fill:none;
}
#z39065 path[clip-path="url(#z39065c1)"] {animation-delay:1s;}
#z39065 path[clip-path="url(#z39065c2)"] {animation-delay:2s;}
#z39065 path[clip-path="url(#z39065c3)"] {animation-delay:3s;}
#z39065 path[clip-path="url(#z39065c4)"] {animation-delay:4s;}
#z39065 path[clip-path="url(#z39065c5)"] {animation-delay:5s;}
#z39065 path[clip-path="url(#z39065c6)"] {animation-delay:6s;}
#z39065 path[clip-path="url(#z39065c7)"] {animation-delay:7s;}
#z39065 path[clip-path="url(#z39065c8)"] {animation-delay:8s;}
#z39065 path[clip-path="url(#z39065c9)"] {animation-delay:9s;}
#z39065 path[clip-path="url(#z39065c10)"] {animation-delay:10s;}
#z39065 path[clip-path="url(#z39065c11)"] {animation-delay:11s;}
#z39065 path[clip-path="url(#z39065c12)"] {animation-delay:12s;}
#z39065 path[clip-path="url(#z39065c13)"] {animation-delay:13s;}
#z39065 path[clip-path="url(#z39065c14)"] {animation-delay:14s;}
#z39065 path[clip-path="url(#z39065c15)"] {animation-delay:15s;}
#z39065 path {fill:#ccc;}
]]>
</style>
<path id="z39065d1" d="M 157,219 Q 147,215 127,212 117,211 114,214 110,220 117,233 148,300 168,411 171,445 190,467 206,485 210,471 213,459 213,441 L 210,417 Q 209,407 206,398 181,284 175,248 L 157,219 Z"/>
<path id="z39065d2" d="M 363,415 C 363,415 365,417 367,421 379,439 391,450 401,454 407,458 415,454 423,441 431,424 441,370 457,279 460,260 470,243 484,228 490,221 490,213 484,205 475,194 458,182 431,169 421,164 392,169 345,180 342,180 307,187 239,202 209,208 181,214 157,219 L 175,248 C 185,243 210,236 252,229 L 292,222 C 352,211 387,205 399,213 408,219 412,229 411,243 400,327 392,377 384,393 Z"/>
<path id="z39065d3" d="M 315,334 C 331,330 348,327 365,325 377,323 382,317 377,310 370,301 360,297 347,296 338,295 327,294 315,299 L 273,313 C 254,319 237,323 221,329 212,332 212,339 225,345 234,349 242,348 274,342 Z"/>
<path id="z39065d4" d="M 315,423 Q 339,417 363,415 L 384,393 Q 360,374 315,387 L 275,398 Q 241,407 210,417 L 213,441 Q 213,440 217,440 247,434 275,429 L 315,423 Z"/>
<path id="z39065d5" d="M 157,543 Q 138,519 112,513 108,510 103,515 99,521 102,531 118,568 119,600 118,670 104,750 100,769 106,786 115,804 129,815 139,824 142,814 149,811 151,794 157,776 156,716 156,619 161,579 L 157,543 Z"/>
<path id="z39065d6" d="M 315,545 C 396,530 441,523 456,532 466,537 473,547 475,565 478,607 472,667 464,744 462,756 458,764 446,763 427,761 412,756 398,753 388,750 385,752 387,759 388,764 396,773 412,787 434,806 449,828 464,848 470,856 479,855 487,851 492,847 499,836 509,815 520,788 528,748 527,694 524,599 523,545 534,533 539,525 541,518 536,512 529,504 513,495 488,484 477,479 466,479 456,484 443,489 419,493 383,499 359,502 336,507 315,512 L 276,520 C 260,523 230,527 157,543 L 161,579 C 167,579 174,577 182,574 204,565 236,559 276,552 Z"/>
<path id="z39065d7" d="M 315,648 Q 315,594 315,545 L 315,512 Q 315,466 315,423 L 315,387 Q 315,359 315,334 L 315,299 Q 315,241 305,231 298,225 292,222 L 252,229 Q 258,242 264,252 273,274 273,313 L 274,342 Q 274,364 275,398 L 275,429 Q 275,468 276,520 L 276,552 Q 276,598 277,658 L 315,648 Z"/>
<path id="z39065d8" d="M 383,628 Q 349,637 315,648 L 277,658 Q 196,676 181,676 171,677 169,685 168,695 175,702 193,715 218,730 227,731 236,726 243,720 393,645 L 383,628 Z"/>
<path id="z39065d9" d="M 393,645 Q 414,687 424,692 431,693 438,687 445,678 446,658 447,630 386,584 377,578 372,578 368,579 366,588 365,595 377,616 380,620 383,628 L 393,645 Z"/>
<path id="z39065d10" d="M 737,205 C 850,180 907,162 909,161 915,156 916,150 913,145 908,138 897,130 878,127 858,122 838,126 819,134 790,144 760,154 729,162 694,170 655,176 614,182 591,185 588,194 605,204 632,220 659,221 704,212 Z"/>
<path id="z39065d11" d="M 700,328 Q 710,316 739,278 746,268 758,256 771,246 765,237 758,222 737,205 L 704,212 Q 707,240 677,313 670,325 668,335 L 700,328 Z"/>
<path id="z39065d12" d="M 615,342 Q 611,338 591,329 582,325 573,329 567,333 572,343 573,350 577,357 598,399 586,565 571,653 592,682 593,685 598,690 607,700 615,690 630,669 628,606 628,378 632,371 L 615,342 Z"/>
<path id="z39065d13" d="M 820,629 C 815,643 818,657 826,673 835,691 842,700 848,700 856,699 865,688 877,667 886,649 891,635 890,622 872,485 876,397 902,358 915,336 885,315 838,294 830,290 811,284 791,293 764,304 722,323 700,328 L 668,335 C 648,339 630,340 615,342 L 632,371 C 636,371 641,370 647,369 749,344 806,331 813,340 822,352 825,381 827,420 830,536 826,606 820,629 Z"/>
<path id="z39065d14" d="M 697,468 C 699,630 675,743 622,806 616,812 608,818 602,825 581,843 549,866 504,890 497,893 493,895 492,897 489,899 491,903 500,904 546,905 601,878 661,823 668,816 673,807 679,800 714,748 733,665 739,553 741,499 746,462 754,443 756,436 755,431 751,428 740,419 726,411 708,403 697,398 687,397 678,401 667,404 666,411 675,421 689,435 696,451 697,468 Z"/>
<path id="z39065d15" d="M 758,769 C 790,800 826,837 865,883 875,895 884,905 895,908 900,909 905,905 911,899 918,890 918,872 912,843 904,812 855,777 760,738 753,735 749,737 749,745 747,753 750,762 758,769 Z"/>
<defs>
	<clipPath id="z39065c1"><use xlink:href="#z39065d1"/></clipPath>
	<clipPath id="z39065c2"><use xlink:href="#z39065d2"/></clipPath>
	<clipPath id="z39065c3"><use xlink:href="#z39065d3"/></clipPath>
	<clipPath id="z39065c4"><use xlink:href="#z39065d4"/></clipPath>
	<clipPath id="z39065c5"><use xlink:href="#z39065d5"/></clipPath>
	<clipPath id="z39065c6"><use xlink:href="#z39065d6"/></clipPath>
	<clipPath id="z39065c7"><use xlink:href="#z39065d7"/></clipPath>
	<clipPath id="z39065c8"><use xlink:href="#z39065d8"/></clipPath>
	<clipPath id="z39065c9"><use xlink:href="#z39065d9"/></clipPath>
	<clipPath id="z39065c10"><use xlink:href="#z39065d10"/></clipPath>
	<clipPath id="z39065c11"><use xlink:href="#z39065d11"/></clipPath>
	<clipPath id="z39065c12"><use xlink:href="#z39065d12"/></clipPath>
	<clipPath id="z39065c13"><use xlink:href="#z39065d13"/></clipPath>
	<clipPath id="z39065c14"><use xlink:href="#z39065d14"/></clipPath>
	<clipPath id="z39065c15"><use xlink:href="#z39065d15"/></clipPath>
</defs>
<path pathLength="3333" clip-path="url(#z39065c1)" d="M 120,220 153,259 199,470"/>
<path pathLength="3333" clip-path="url(#z39065c2)" d="M 166,220 393,189 437,206 450,225 411,395 374,429"/>
<path pathLength="3333" clip-path="url(#z39065c3)" d="M 224,336 370,314"/>
<path pathLength="3333" clip-path="url(#z39065c4)" d="M 220,433 377,400"/>
<path pathLength="3333" clip-path="url(#z39065c5)" d="M 108,522 138,573 132,813"/>
<path pathLength="3333" clip-path="url(#z39065c6)" d="M 168,570 381,515 489,517 505,536 485,783 461,808 394,759"/>
<path pathLength="3333" clip-path="url(#z39065c7)" d="M 262,234 294,294 290,654"/>
<path pathLength="3333" clip-path="url(#z39065c8)" d="M 175,684 225,699 387,638"/>
<path pathLength="3333" clip-path="url(#z39065c9)" d="M 375,584 427,684"/>
<path pathLength="3333" clip-path="url(#z39065c10)" d="M 607,194 910,149"/>
<path pathLength="3333" clip-path="url(#z39065c11)" d="M 709,217 731,253 676,330"/>
<path pathLength="3333" clip-path="url(#z39065c12)" d="M 576,333 607,375 606,689"/>
<path pathLength="3333" clip-path="url(#z39065c13)" d="M 624,346 811,314 857,343 840,693"/>
<path pathLength="3333" clip-path="url(#z39065c14)" d="M 677,409 725,451 686,736 634,821 500,899"/>
<path pathLength="3333" clip-path="url(#z39065c15)" d="M 757,747 863,830 902,904"/>
</svg>