<!--
AnimCJK 2016-2017 Copyright Francois Mizessyn, http://gooo.free.fr/animCJK/
Derived from:
    MakeMeAHanzi project - https://github.com/skishore/makemeahanzi
    Arphic PL KaitiM GB - https://apps.ubuntu.com/cat/applications/precise/fonts-arphic-gkai00mp/
    Arphic PL UKai - https://apps.ubuntu.com/cat/applications/fonts-arphic-ukai/
You can redistribute and/or modify this file under the terms of the Arphic Public License
as published by Arphic Technology Co., Ltd.
You should have received a copy of this license (the directory "APL") along with this file;
if not, see http://ftp.gnu.org/non-gnu/chinese-fonts-truetype/LICENSE.
-->
<svg id="z39064" class="acjk" version="1.1" viewBox="0 0 1024 1024" xmlns="http://www.w3.org/2000/svg" xmlns:xlink="http://www.w3.org/1999/xlink">
<style>
<![CDATA[
	@keyframes z39064k {
		from {
			stroke:#c00;
			stroke-dashoffset:3000;
		}
		75% {
			stroke:#c00;
			stroke-dashoffset:0;
		}
		to {
			stroke:#000;
		}
	}
	#z39064 path[clip-path] {
		animation:z39064k 1s linear both;
		stroke-dasharray:3000;
		stroke-width:128;
		stroke-linecap:round;
		fill:none;
	}
	#z39064 path[clip-path="url(#z39064c1)"] {animation-delay:1s;}
	#z39064 path[clip-path="url(#z39064c2)"] {animation-delay:2s;}
	#z39064 path[clip-path="url(#z39064c3)"] {animation-delay:3s;}
	#z39064 path[clip-path="url(#z39064c4)"] {animation-delay:4s;}
	#z39064 path[clip-path="url(#z39064c5)"] {animation-delay:5s;}
	#z39064 path[clip-path="url(#z39064c6)"] {animation-delay:6s;}
	#z39064 path[clip-path="url(#z39064c7)"] {animation-delay:7s;}
	#z39064 path[clip-path="url(#z39064c8)"] {animation-delay:8s;}
	#z39064 path[clip-path="url(#z39064c9)"] {animation-delay:9s;}
	#z39064 path[clip-path="url(#z39064c10)"] {animation-delay:10s;}
	#z39064 path[clip-path="url(#z39064c11)"] {animation-delay:11s;}
	#z39064 path[clip-path="url(#z39064c12)"] {animation-delay:12s;}
	#z39064 path[clip-path="url(#z39064c13)"] {animation-delay:13s;}
	#z39064 path[clip-path="url(#z39064c14)"] {animation-delay:14s;}
	#z39064 path[clip-path="url(#z39064c15)"] {animation-delay:15s;}
	#z39064 path {fill:#ccc;}
]]>
</style>
<g transform="scale(1,-1) translate(0,-900)">
	<path id="z39064d1" d="M258 748Q248 752 226 757Q214 761 211 756Q204 750 212 735Q237 675 248 580Q249 552 265 532Q281 510 287 525Q288 529 290 535L292 560Q286 621 284 629L282 651Q276 702 276 719L258 748Z"/>
	<path id="z39064d2" d="M401 552Q419 528 433 522Q443 515 455 535Q468 559 489 685Q496 713 515 736Q525 746 515 759Q500 772 462 794Q447 800 390 783Q371 783 258 748L276 719Q322 735 406 753Q425 757 431 750Q444 737 442 723Q427 605 418 586Q415 576 404 572L401 552Z"/>
	<path id="z39064d3" d="M284 629Q285 629 290 629Q345 638 385 644Q404 648 397 658Q388 670 367 673Q337 676 282 651L284 629Z"/>
	<path id="z39064d4" d="M290 535Q296 534 303 536Q334 545 401 552L404 572Q401 576 393 580Q381 586 359 579Q322 567 292 560L290 535Z"/>
	<path id="z39064d5" d="M357 447Q421 459 505 467Q520 468 521 474Q522 486 506 495Q482 507 462 502Q234 460 121 450Q111 450 107 443Q103 433 117 423Q148 398 208 413Q268 431 316 439L357 447Z"/>
	<path id="z39064d6" d="M368 196Q369 257 373 309L374 332Q375 360 377 385Q381 428 362 444Q359 445 357 447L316 439Q325 418 328 219L368 196Z"/>
	<path id="z39064d7" d="M373 309Q377 309 487 319Q509 323 501 336Q491 351 465 355Q423 361 374 332L373 309Z"/>
	<path id="z39064d8" d="M236 277Q261 326 268 332Q275 336 272 346Q271 353 258 363Q231 384 200 379Q193 376 196 366Q215 311 132 191Q110 160 52 94Q45 90 55 88Q133 112 221 251L236 277Z"/>
	<path id="z39064d9" d="M221 251Q372 134 542 51Q653 -18 724 -1Q791 17 864 41Q894 51 901 62Q905 74 887 73Q796 79 739 77Q586 77 368 196L328 219Q282 247 236 277L221 251Z"/>
	<path id="z39064d10" d="M659 714Q659 715 660 715Q858 757 867 762Q874 769 871 777Q864 787 838 795Q813 799 718 769Q631 751 580 746Q547 740 571 725Q601 709 630 711L659 714Z"/>
	<path id="z39064d11" d="M635 601Q654 625 671 648Q677 655 686 664Q699 674 692 683Q685 696 661 714Q660 715 659 714L630 711Q630 710 632 706Q639 687 617 620Q611 608 609 598L635 601Z"/>
	<path id="z39064d12" d="M605 598Q599 610 562 621Q555 622 550 615Q549 611 554 603Q587 527 562 400Q553 382 559 357Q566 332 576 322Q585 312 592 323Q608 341 609 464Q609 555 610 573L605 598Z"/>
	<path id="z39064d13" d="M781 365Q775 346 786 327Q798 302 806 303Q819 304 832 331Q845 353 844 371Q825 539 855 584Q864 597 857 606Q833 627 791 644Q778 648 758 641Q715 620 635 601L609 598Q606 598 605 598L610 573Q616 573 697 591Q761 609 776 600Q783 582 787 535Q788 393 781 365Z"/>
	<path id="z39064d14" d="M672 485Q672 320 620 251Q611 244 602 234Q560 207 518 177Q514 173 526 170Q590 170 659 238Q660 242 663 244Q702 296 713 427Q717 484 726 508Q730 517 723 523Q710 536 682 547Q666 554 653 550Q638 544 650 530Q672 508 672 485Z"/>
	<path id="z39064d15" d="M733 262Q778 216 832 149Q844 133 855 128Q862 127 869 134Q879 144 872 180Q863 228 738 286Q737 287 735 287Q728 291 726 281Q725 271 733 262Z"/>
	<defs>
		<clipPath id="z39064c1"><use xlink:href="#z39064d1"/></clipPath>
		<clipPath id="z39064c2"><use xlink:href="#z39064d2"/></clipPath>
		<clipPath id="z39064c3"><use xlink:href="#z39064d3"/></clipPath>
		<clipPath id="z39064c4"><use xlink:href="#z39064d4"/></clipPath>
		<clipPath id="z39064c5"><use xlink:href="#z39064d5"/></clipPath>
		<clipPath id="z39064c6"><use xlink:href="#z39064d6"/></clipPath>
		<clipPath id="z39064c7"><use xlink:href="#z39064d7"/></clipPath>
		<clipPath id="z39064c8"><use xlink:href="#z39064d8"/></clipPath>
		<clipPath id="z39064c9"><use xlink:href="#z39064d9"/></clipPath>
		<clipPath id="z39064c10"><use xlink:href="#z39064d10"/></clipPath>
		<clipPath id="z39064c11"><use xlink:href="#z39064d11"/></clipPath>
		<clipPath id="z39064c12"><use xlink:href="#z39064d12"/></clipPath>
		<clipPath id="z39064c13"><use xlink:href="#z39064d13"/></clipPath>
		<clipPath id="z39064c14"><use xlink:href="#z39064d14"/></clipPath>
		<clipPath id="z39064c15"><use xlink:href="#z39064d15"/></clipPath>
	</defs>
	<path pathLength="2999" clip-path="url(#z39064c1)" d="M216 750L249 713L280 525"/>
	<path pathLength="2999" clip-path="url(#z39064c2)" d="M264 747L444 773L477 745L416 536"/>
	<path pathLength="2999" clip-path="url(#z39064c3)" d="M292 637L391 656"/>
	<path pathLength="2999" clip-path="url(#z39064c4)" d="M297 542L398 569"/>
	<path pathLength="2999" clip-path="url(#z39064c5)" d="M111 437L513 478"/>
	<path pathLength="2999" clip-path="url(#z39064c6)" d="M325 434L350 403L363 206"/>
	<path pathLength="2999" clip-path="url(#z39064c7)" d="M377 316L498 332"/>
	<path pathLength="2999" clip-path="url(#z39064c8)" d="M205 372L234 330L203 265L57 93"/>
	<path pathLength="2999" clip-path="url(#z39064c9)" d="M238 271L385 162L621 52L716 37L897 65"/>
	<path pathLength="2999" clip-path="url(#z39064c10)" d="M569 736L864 776"/>
	<path pathLength="2999" clip-path="url(#z39064c11)" d="M639 705L660 666L621 603"/>
	<path pathLength="2999" clip-path="url(#z39064c12)" d="M557 615L589 560L585 327"/>
	<path pathLength="2999" clip-path="url(#z39064c13)" d="M613 592L763 623L817 594L807 310"/>
	<path pathLength="2999" clip-path="url(#z39064c14)" d="M652 543L698 509L668 300L617 224L525 176"/>
	<path pathLength="2999" clip-path="url(#z39064c15)" d="M733 279L835 190L862 135"/>
</g>
</svg>