<!--
AnimCJK 2016-2018 Copyright Francois Mizessyn - https://github.com/parsimonhi/animCJK
Derived from:
    MakeMeAHanzi project - https://github.com/skishore/makemeahanzi
    Arphic PL KaitiM GB - https://apps.ubuntu.com/cat/applications/precise/fonts-arphic-gkai00mp/
    Arphic PL UKai - https://apps.ubuntu.com/cat/applications/fonts-arphic-ukai/
You can redistribute and/or modify this file under the terms of the Arphic Public License
as published by Arphic Technology Co., Ltd.
You should have received a copy of this license (the directory "APL") along with this file;
if not, see http://ftp.gnu.org/non-gnu/chinese-fonts-truetype/LICENSE.
-->
<svg id="z39066" class="acjk" version="1.1" viewBox="0 0 1024 1024" xmlns="http://www.w3.org/2000/svg" xmlns:xlink="http://www.w3.org/1999/xlink">
<style>
<![CDATA[
@keyframes z39066k {
	from {
		stroke:#c00;
		stroke-dashoffset:3334;
	}
	75% {
		stroke:#c00;
		stroke-dashoffset:0;
	}
	to {
		stroke:#000;
	}
}
#z39066 path[clip-path] {
	animation:z39066k 1s linear both;
	stroke-dasharray:3334;
	stroke-width:128;
	stroke-linecap:round;
	fill:none;
}
#z39066 path[clip-path="url(#z39066c1)"] {animation-delay:1s;}
#z39066 path[clip-path="url(#z39066c2)"] {animation-delay:2s;}
#z39066 path[clip-path="url(#z39066c3)"] {animation-delay:3s;}
#z39066 path[clip-path="url(#z39066c4)"] {animation-delay:4s;}
#z39066 path[clip-path="url(#z39066c5)"] {animation-delay:5s;}
#z39066 path[clip-path="url(#z39066c6)"] {animation-delay:6s;}
#z39066 path[clip-path="url(#z39066c7)"] {animation-delay:7s;}
#z39066 path[clip-path="url(#z39066c8)"] {animation-delay:8s;}
#z39066 path[clip-path="url(#z39066c9)"] {animation-delay:9s;}
#z39066 path[clip-path="url(#z39066c10)"] {animation-delay:10s;}
#z39066 path[clip-path="url(#z39066c11)"] {animation-delay:11s;}
#z39066 path[clip-path="url(#z39066c12)"] {animation-delay:12s;}
#z39066 path[clip-path="url(#z39066c13)"] {animation-delay:13s;}
#z39066 path[clip-path="url(#z39066c14)"] {animation-delay:14s;}
#z39066 path[clip-path="url(#z39066c15)"] {animation-delay:15s;}
#z39066 path {fill:#ccc;}
]]>
</style>
<path id="z39066d1" d="M173 183Q164 179 144 177Q135 174 132 178Q128 182 134 196Q156 239 171 311Q174 333 187 347Q202 363 205 352Q208 342 207 324L204 299Q189 226 188 205L173 183 Z"/>
<path id="z39066d2" d="M299 281Q309 212 329 192Q345 171 326 162Q311 155 289 142Q276 135 261 145Q245 158 223 167Q201 174 173 183L188 205Q200 199 251 185Q266 181 270 187Q276 191 272 217Q268 245 262 280L299 281 Z"/>
<path id="z39066d3" d="M207 324Q211 324 219 322Q247 313 309 303Q316 302 317 295Q317 291 299 281L262 280Q261 279 259 280Q229 290 204 299L207 324 Z"/>
<path id="z39066d4" d="M378 131Q368 127 350 124Q340 123 338 126Q334 130 339 142Q358 184 370 253Q371 274 384 287Q397 303 401 292Q404 283 404 269L401 245Q391 175 389 154L378 131 Z"/>
<path id="z39066d5" d="M500 231Q519 173 538 158Q557 139 539 126Q490 96 487 97Q481 97 475 101Q442 119 378 131L389 154Q396 151 457 140Q475 136 479 144Q485 148 477 174Q468 199 460 228L500 231 Z"/>
<path id="z39066d6" d="M404 269Q408 269 414 268Q444 261 508 254Q515 253 516 247Q516 241 500 231L460 228Q426 238 401 245L404 269 Z"/>
<path id="z39066d7" d="M230 380Q199 386 222 400Q249 415 320 401Q366 389 415 379Q440 372 444 368Q451 361 447 354Q440 344 415 339Q390 335 364 346Q336 356 305 366Q271 375 230 380 Z"/>
<path id="z39066d8" d="M326 503Q399 485 497 471Q513 470 514 462Q515 450 498 442Q473 430 451 436Q210 493 92 507Q80 508 77 516Q74 526 89 537Q123 562 173 547Q227 528 274 516L326 503 Z"/>
<path id="z39066d9" d="M247 675Q269 650 324 629Q357 619 376 624Q395 630 399 663Q392 735 356 790Q343 808 331 811Q315 815 255 782Q242 772 239 778Q238 784 246 797Q276 843 294 884Q301 897 313 899Q329 903 350 893Q416 836 449 684Q450 656 461 639Q473 627 462 616Q447 601 411 586Q395 580 328 600Q322 600 305 607Q289 611 296 595Q323 547 333 537Q345 524 336 510Q332 506 326 503L274 516Q277 540 250 589Q243 602 218 619Q203 635 206 649Q207 662 223 676Q235 686 247 675 Z"/>
<path id="z39066d10" d="M675 207Q877 171 886 165Q895 158 891 148Q884 136 854 127Q830 121 716 152Q623 170 555 175Q518 179 544 198Q577 220 631 215L675 207 Z"/>
<path id="z39066d11" d="M625 332Q629 326 635 320Q651 301 668 278Q675 268 689 254Q702 244 696 233Q690 221 675 207L631 215Q631 242 600 316Q593 326 590 336L625 332 Z"/>
<path id="z39066d12" d="M581 337Q562 321 539 316Q530 315 525 322Q522 326 529 336Q556 390 543 545Q540 567 533 592Q526 614 531 632Q540 662 550 673Q560 685 569 672Q590 642 591 487Q591 394 594 366L581 337 Z"/>
<path id="z39066d13" d="M774 611Q767 633 780 655Q793 683 802 682Q815 681 831 649Q846 624 844 605Q820 413 856 360Q869 338 839 320Q817 304 787 292Q771 286 749 294Q745 295 625 332L590 336Q586 336 581 337L594 366Q595 365 598 365Q644 355 678 348Q751 330 767 341Q776 362 780 416Q783 579 774 611 Z"/>
<path id="z39066d14" d="M656 491Q663 683 603 765Q588 780 568 797Q537 822 466 856Q453 860 450 863Q446 867 460 871Q532 877 631 806Q640 797 650 787Q699 724 707 563Q711 490 721 462Q725 452 718 444Q700 429 667 416Q648 409 632 414Q614 421 629 437Q656 464 656 491 Z"/>
<path id="z39066d15" d="M742 741Q791 795 847 872Q860 894 876 901Q885 902 893 894Q906 881 899 836Q893 787 747 709Q738 703 735 716Q734 729 742 741 Z"/>
<defs>
	<clipPath id="z39066c1"><use xlink:href="#z39066d1"/></clipPath>
	<clipPath id="z39066c2"><use xlink:href="#z39066d2"/></clipPath>
	<clipPath id="z39066c3"><use xlink:href="#z39066d3"/></clipPath>
	<clipPath id="z39066c4"><use xlink:href="#z39066d4"/></clipPath>
	<clipPath id="z39066c5"><use xlink:href="#z39066d5"/></clipPath>
	<clipPath id="z39066c6"><use xlink:href="#z39066d6"/></clipPath>
	<clipPath id="z39066c7"><use xlink:href="#z39066d7"/></clipPath>
	<clipPath id="z39066c8"><use xlink:href="#z39066d8"/></clipPath>
	<clipPath id="z39066c9"><use xlink:href="#z39066d9"/></clipPath>
	<clipPath id="z39066c10"><use xlink:href="#z39066d10"/></clipPath>
	<clipPath id="z39066c11"><use xlink:href="#z39066d11"/></clipPath>
	<clipPath id="z39066c12"><use xlink:href="#z39066d12"/></clipPath>
	<clipPath id="z39066c13"><use xlink:href="#z39066d13"/></clipPath>
	<clipPath id="z39066c14"><use xlink:href="#z39066d14"/></clipPath>
	<clipPath id="z39066c15"><use xlink:href="#z39066d15"/></clipPath>
</defs>
<path pathLength="3333" clip-path="url(#z39066c1)" d="M140 186L167 216L201 348"/>
<path pathLength="3333" clip-path="url(#z39066c2)" d="M180 185L293 172L280 280"/>
<path pathLength="3333" clip-path="url(#z39066c3)" d="M212 316L311 295"/>
<path pathLength="3333" clip-path="url(#z39066c4)" d="M345 131L369 160L393 287"/>
<path pathLength="3333" clip-path="url(#z39066c5)" d="M388 135L482 119L513 139L475 228"/>
<path pathLength="3333" clip-path="url(#z39066c6)" d="M409 262L508 243"/>
<path pathLength="3333" clip-path="url(#z39066c7)" d="M223 391L441 359"/>
<path pathLength="3333" clip-path="url(#z39066c8)" d="M82 518L144 526L507 457"/>
<path pathLength="3333" clip-path="url(#z39066c9)" d="M333 512L297 537L255 632L272 643L373 605L414 617L431 639L411 731L368 823L329 854L247 785"/>
<path pathLength="3333" clip-path="url(#z39066c10)" d="M539 184L610 193L885 151"/>
<path pathLength="3333" clip-path="url(#z39066c11)" d="M638 218L659 250L598 328"/>
<path pathLength="3333" clip-path="url(#z39066c12)" d="M531 325L568 374L557 674"/>
<path pathLength="3333" clip-path="url(#z39066c13)" d="M589 339L756 314L813 348L801 676"/>
<path pathLength="3333" clip-path="url(#z39066c14)" d="M627 425L688 467L653 725L575 818L457 866"/>
<path pathLength="3333" clip-path="url(#z39066c15)" d="M743 714L848 816L886 893"/>
</svg>