<!--
AnimCJK 2016-2018 Copyright Francois Mizessyn, http://gooo.free.fr/animCJK/
Derived from:
    MakeMeAHanzi project - https://github.com/skishore/makemeahanzi
    Arphic PL KaitiM GB - https://apps.ubuntu.com/cat/applications/precise/fonts-arphic-gkai00mp/
    Arphic PL UKai - https://apps.ubuntu.com/cat/applications/fonts-arphic-ukai/
You can redistribute and/or modify this file under the terms of the Arphic Public License
as published by Arphic Technology Co., Ltd.
You should have received a copy of this license (the directory "APL") along with this file;
if not, see http://ftp.gnu.org/non-gnu/chinese-fonts-truetype/LICENSE.
-->
<svg id="z39125" class="acjk" version="1.1" viewBox="0 0 1024 1024" xmlns="http://www.w3.org/2000/svg" xmlns:xlink="http://www.w3.org/1999/xlink">
<style>
<![CDATA[
@keyframes z39125k {
	from {
		stroke:#ccc;
		stroke-dashoffset:3334;
	}
	1% {
		stroke:#c00;
		stroke-dashoffset:3334;
	}
	75% {
		stroke:#c00;
		stroke-dashoffset:0;
	}
	to {
		stroke:#000;
	}
}
#z39125 path[clip-path] {
	animation:z39125k 1s linear both;
	stroke-dasharray:3334;
	stroke-width:128;
	stroke-linecap:round;
	fill:none;
}
#z39125 path[clip-path="url(#z39125c1)"] {animation-delay:1s;}
#z39125 path[clip-path="url(#z39125c2)"] {animation-delay:2s;}
#z39125 path[clip-path="url(#z39125c3)"] {animation-delay:3s;}
#z39125 path[clip-path="url(#z39125c4)"] {animation-delay:4s;}
#z39125 path[clip-path="url(#z39125c5)"] {animation-delay:5s;}
#z39125 path[clip-path="url(#z39125c6)"] {animation-delay:6s;}
#z39125 path[clip-path="url(#z39125c7)"] {animation-delay:7s;}
#z39125 path[clip-path="url(#z39125c8)"] {animation-delay:8s;}
#z39125 path[clip-path="url(#z39125c9)"] {animation-delay:9s;}
#z39125 path[clip-path="url(#z39125c10)"] {animation-delay:10s;}
#z39125 path[clip-path="url(#z39125c11)"] {animation-delay:11s;}
#z39125 path[clip-path="url(#z39125c12)"] {animation-delay:12s;}
#z39125 path[clip-path="url(#z39125c13)"] {animation-delay:13s;}
#z39125 path {fill:#ccc;}
]]>
</style>
<path id="z39125d1" d="M189 227Q177 220 160 214Q141 205 130 211Q120 218 126 232Q141 247 149 307Q149 500 136 574Q132 593 128 613Q104 704 40 830Q36 837 35 843Q34 853 43 850Q56 847 89 799Q203 646 204 348Q207 300 212 250L189 227 Z"/>
<path id="z39125d2" d="M986 877Q990 868 978 849Q956 819 943 761Q936 712 929 704Q925 695 921 711Q911 829 888 848Q873 861 818 867Q734 874 652 850Q586 825 528 769Q500 729 476 659Q442 517 484 304Q499 240 522 209Q534 187 504 172Q441 133 384 165Q285 205 189 227L212 250Q287 231 382 197Q416 184 430 193Q442 205 436 239Q391 644 480 793Q525 863 634 906Q718 933 791 934Q852 934 948 904Q979 894 986 877 Z"/>
<path id="z39125d3" d="M333 511Q357 462 387 383Q391 370 396 364Q400 358 398 350Q395 343 383 335Q346 317 325 327Q319 331 323 340Q341 382 302 482L287 519Q245 597 183 682Q177 688 186 688Q228 678 308 558Q308 555 311 553L333 511 Z"/>
<path id="z39125d4" d="M311 553Q386 656 389 658Q395 659 401 654Q411 647 407 615Q404 582 333 511L302 482Q256 439 226 415Q220 411 218 418Q215 428 222 436Q253 473 287 519L311 553 Z"/>
<path id="z39125d5" d="M565 288Q592 267 616 248Q626 236 642 228Q655 221 647 209Q637 199 620 191Q604 184 595 187Q588 188 591 197Q592 206 556 273L565 288 Z"/>
<path id="z39125d6" d="M595 440Q594 430 591 417Q584 387 580 365L575 341Q568 301 566 290Q565 289 565 288L556 273Q546 269 519 265Q509 262 506 267Q502 271 509 285Q537 339 554 427Q558 454 574 471Q590 489 594 475Q595 469 596 463L595 440 Z"/>
<path id="z39125d7" d="M580 365Q623 355 656 348Q672 344 665 334Q656 324 636 322Q594 322 575 341L580 365 Z"/>
<path id="z39125d8" d="M811 435Q811 439 813 443Q817 456 827 455Q837 454 844 442Q859 420 883 317Q896 277 926 255Q942 243 929 231Q916 218 878 195Q872 192 773 206Q761 206 759 209Q758 212 767 220Q786 232 813 227Q840 220 847 225Q857 232 852 265Q848 287 842 307L836 336Q826 381 818 403L811 435 Z"/>
<path id="z39125d9" d="M842 307L841 306Q814 302 754 323Q741 324 756 337Q760 341 771 341Q805 337 836 336L842 307 Z"/>
<path id="z39125d10" d="M725 446Q771 439 811 435L818 403Q788 393 727 413L687 421Q638 430 595 440L596 463Q602 463 687 452L725 446 Z"/>
<path id="z39125d11" d="M723 507Q724 476 725 446L727 413Q733 200 748 132Q751 122 732 109Q701 93 678 89Q663 86 656 94Q649 101 657 115Q681 149 681 172Q688 289 687 421L687 452Q686 483 685 519L723 507 Z"/>
<path id="z39125d12" d="M757 670Q787 633 814 579Q827 554 845 537Q864 524 852 511Q840 499 812 487Q791 480 766 491Q747 498 723 507L685 519Q639 531 566 540Q553 541 549 547Q546 554 563 561Q597 573 643 559Q733 529 749 531Q767 532 762 552Q744 619 716 648L691 675Q631 724 541 745Q528 749 538 757Q542 760 578 758Q623 755 674 731Q702 718 726 700L757 670 Z"/>
<path id="z39125d13" d="M726 700Q783 742 829 787Q841 802 854 807Q864 811 871 797Q875 784 870 760Q864 724 757 670L716 648Q607 591 596 595Q592 596 592 606L691 675L726 700 Z"/>
<defs>
	<clipPath id="z39125c1"><use xlink:href="#z39125d1"/></clipPath>
	<clipPath id="z39125c2"><use xlink:href="#z39125d2"/></clipPath>
	<clipPath id="z39125c3"><use xlink:href="#z39125d3"/></clipPath>
	<clipPath id="z39125c4"><use xlink:href="#z39125d4"/></clipPath>
	<clipPath id="z39125c5"><use xlink:href="#z39125d5"/></clipPath>
	<clipPath id="z39125c6"><use xlink:href="#z39125d6"/></clipPath>
	<clipPath id="z39125c7"><use xlink:href="#z39125d7"/></clipPath>
	<clipPath id="z39125c8"><use xlink:href="#z39125d8"/></clipPath>
	<clipPath id="z39125c9"><use xlink:href="#z39125d9"/></clipPath>
	<clipPath id="z39125c10"><use xlink:href="#z39125d10"/></clipPath>
	<clipPath id="z39125c11"><use xlink:href="#z39125d11"/></clipPath>
	<clipPath id="z39125c12"><use xlink:href="#z39125d12"/></clipPath>
	<clipPath id="z39125c13"><use xlink:href="#z39125d13"/></clipPath>
</defs>
<path pathLength="3333" clip-path="url(#z39125c1)" d="M131 219L176 257L165 538L123 696L43 842"/>
<path pathLength="3333" clip-path="url(#z39125c2)" d="M198 228L415 170L480 202L445 397L451 641L504 782L580 847L759 900L910 879L943 848L926 709"/>
<path pathLength="3333" clip-path="url(#z39125c3)" d="M327 331L363 366L339 444L292 548L189 680"/>
<path pathLength="3333" clip-path="url(#z39125c4)" d="M226 425L350 565L397 653"/>
<path pathLength="3333" clip-path="url(#z39125c5)" d="M641 213L600 221L564 279"/>
<path pathLength="3333" clip-path="url(#z39125c6)" d="M514 274L545 305L584 474"/>
<path pathLength="3333" clip-path="url(#z39125c7)" d="M583 357L658 337"/>
<path pathLength="3333" clip-path="url(#z39125c8)" d="M767 210L855 210L894 251L825 448"/>
<path pathLength="3333" clip-path="url(#z39125c9)" d="M754 328L837 323"/>
<path pathLength="3333" clip-path="url(#z39125c10)" d="M603 456L812 410"/>
<path pathLength="3333" clip-path="url(#z39125c11)" d="M660 97L713 142L702 513"/>
<path pathLength="3333" clip-path="url(#z39125c12)" d="M561 550L779 510L808 538L710 686L546 752"/>
<path pathLength="3333" clip-path="url(#z39125c13)" d="M602 603L812 733L861 801"/>
</svg>