<!--
AnimCJK 2016-2017 Copyright Francois Mizessyn, https://github.com/parsimonhi/animCJK
Derived from:
    MakeMeAHanzi project - https://github.com/skishore/makemeahanzi
    Arphic PL KaitiM GB - https://apps.ubuntu.com/cat/applications/precise/fonts-arphic-gkai00mp/
    Arphic PL UKai - https://apps.ubuntu.com/cat/applications/fonts-arphic-ukai/
You can redistribute and/or modify this file under the terms of the Arphic Public License
as published by Arphic Technology Co., Ltd.
You should have received a copy of this license (the directory "APL") along with this file;
if not, see http://ftp.gnu.org/non-gnu/chinese-fonts-truetype/LICENSE.
-->
<svg id="z39128" class="acjk" version="1.1" viewBox="0 0 1024 1024" xmlns="http://www.w3.org/2000/svg" xmlns:xlink="http://www.w3.org/1999/xlink">
<style>
<![CDATA[
@keyframes z39128k {
	from {
		stroke:#c00;
		stroke-dashoffset:3000;
	}
	75% {
		stroke:#c00;
		stroke-dashoffset:0;
	}
	to {
		stroke:#000;
	}
}
#z39128 path[clip-path] {
	animation:z39128k 1s linear both;
	stroke-dasharray:3000;
	stroke-width:128;
	stroke-linecap:round;
	fill:none;
}
#z39128 path[clip-path="url(#z39128c1)"] {animation-delay:1s;}
#z39128 path[clip-path="url(#z39128c2)"] {animation-delay:2s;}
#z39128 path[clip-path="url(#z39128c3)"] {animation-delay:3s;}
#z39128 path[clip-path="url(#z39128c4)"] {animation-delay:4s;}
#z39128 path[clip-path="url(#z39128c5)"] {animation-delay:5s;}
#z39128 path[clip-path="url(#z39128c6)"] {animation-delay:6s;}
#z39128 path[clip-path="url(#z39128c7)"] {animation-delay:7s;}
#z39128 path[clip-path="url(#z39128c8)"] {animation-delay:8s;}
#z39128 path[clip-path="url(#z39128c9)"] {animation-delay:9s;}
#z39128 path[clip-path="url(#z39128c10)"] {animation-delay:10s;}
#z39128 path[clip-path="url(#z39128c11)"] {animation-delay:11s;}
#z39128 path[clip-path="url(#z39128c12)"] {animation-delay:12s;}
#z39128 path[clip-path="url(#z39128c13)"] {animation-delay:13s;}
#z39128 path[clip-path="url(#z39128c14)"] {animation-delay:14s;}
#z39128 path[clip-path="url(#z39128c15)"] {animation-delay:15s;}
#z39128 path {fill:#ccc;}
]]>
</style>
<path id="z39128d1" d="M329 173Q360 164 395 157Q431 148 436 143Q443 136 439 129Q432 120 409 115Q391 112 299 142Q206 164 170 170Q140 176 162 188Q193 204 264 188Q282 184 302 180L329 173 Z"/>
<path id="z39128d2" d="M148 291Q141 287 120 285Q111 282 108 287Q104 291 110 304Q135 350 150 429Q153 451 167 467Q182 483 185 472Q186 465 187 457L186 433Q183 421 165 319L148 291 Z"/>
<path id="z39128d3" d="M376 419Q389 438 401 445Q410 451 421 435Q431 419 454 330Q461 306 478 286Q488 276 479 265Q467 252 433 232Q420 226 360 243L316 253Q289 257 260 266L218 275Q181 284 148 291L165 319Q192 309 224 300L260 291Q282 284 316 278L355 271Q361 268 368 268Q396 262 406 271Q415 281 413 291Q398 375 389 391L376 419 Z"/>
<path id="z39128d4" d="M260 266Q260 262 261 259Q262 243 252 234Q236 222 217 216Q207 213 201 217Q195 221 200 233Q210 252 218 275L224 300Q228 334 238 420L266 413Q260 332 260 291L260 266 Z"/>
<path id="z39128d5" d="M360 243Q366 222 372 207Q375 200 362 189Q343 177 329 173L302 180Q315 225 316 251L316 253L316 278Q315 336 308 401L338 392Q347 328 355 271L360 243 Z"/>
<path id="z39128d6" d="M187 457Q194 457 203 455Q300 433 376 419L389 391Q385 388 377 388Q361 385 338 392L308 401Q286 405 266 413L238 420Q210 426 186 433L187 457 Z"/>
<path id="z39128d7" d="M200 509Q172 516 194 528Q219 541 284 527Q324 515 367 505Q389 498 393 495Q400 488 395 481Q388 472 365 468Q344 465 269 494Q236 503 200 509 Z"/>
<path id="z39128d8" d="M317 605Q369 592 431 581Q446 580 446 572Q447 562 431 554Q407 545 388 550Q193 601 99 615Q89 616 85 623Q84 632 96 641Q132 663 165 651Q229 627 277 615L317 605 Z"/>
<path id="z39128d9" d="M335 657Q339 629 326 613Q322 609 317 605L277 615Q286 649 285 736Q284 802 278 817Q275 830 250 829Q225 825 198 821Q188 822 187 827Q186 833 196 841Q257 884 278 910Q293 920 303 918Q313 914 322 884Q335 854 333 800Q332 718 333 681L335 657 Z"/>
<path id="z39128d10" d="M159 694Q134 736 104 773Q83 797 96 828Q100 844 119 835Q162 811 175 744Q182 717 178 696Q175 689 170 687Q163 687 159 694 Z"/>
<path id="z39128d11" d="M333 681Q342 684 397 727Q407 734 417 733Q423 732 426 724Q427 714 421 696Q415 680 390 670Q366 664 335 657L333 681 Z"/>
<path id="z39128d12" d="M552 267Q539 257 518 250Q502 241 490 247Q480 254 487 265Q499 277 508 328Q508 460 502 514Q484 677 388 849Q384 855 383 860Q382 870 390 867Q421 861 486 733Q493 714 502 695Q554 545 555 365Q555 299 562 293L552 267 Z"/>
<path id="z39128d13" d="M562 293Q565 292 568 291Q662 269 755 245Q767 242 775 250Q781 260 780 274Q734 772 918 880Q922 883 929 886Q963 901 979 890Q989 884 985 867Q973 789 973 708Q973 698 969 691Q962 684 960 700Q945 764 932 794Q919 818 903 799Q849 754 823 625Q801 514 820 328Q823 292 858 255Q870 242 855 231Q843 219 797 198Q785 191 744 214Q684 238 552 267L562 293 Z"/>
<path id="z39128d14" d="M683 587Q702 544 719 482Q726 460 736 437Q740 430 736 422Q730 415 706 405Q688 398 682 400Q672 404 674 416Q689 474 655 557L638 594Q604 658 514 751Q510 757 514 759Q520 760 528 755Q612 707 662 628L683 587 Z"/>
<path id="z39128d15" d="M662 628Q734 739 741 742Q745 743 753 738Q763 731 760 700Q760 664 683 587L655 557Q606 508 578 483Q572 479 569 486Q568 496 573 504Q604 544 638 594L662 628 Z"/>
<defs>
	<clipPath id="z39128c1"><use xlink:href="#z39128d1"/></clipPath>
	<clipPath id="z39128c2"><use xlink:href="#z39128d2"/></clipPath>
	<clipPath id="z39128c3"><use xlink:href="#z39128d3"/></clipPath>
	<clipPath id="z39128c4"><use xlink:href="#z39128d4"/></clipPath>
	<clipPath id="z39128c5"><use xlink:href="#z39128d5"/></clipPath>
	<clipPath id="z39128c6"><use xlink:href="#z39128d6"/></clipPath>
	<clipPath id="z39128c7"><use xlink:href="#z39128d7"/></clipPath>
	<clipPath id="z39128c8"><use xlink:href="#z39128d8"/></clipPath>
	<clipPath id="z39128c9"><use xlink:href="#z39128d9"/></clipPath>
	<clipPath id="z39128c10"><use xlink:href="#z39128d10"/></clipPath>
	<clipPath id="z39128c11"><use xlink:href="#z39128d11"/></clipPath>
	<clipPath id="z39128c12"><use xlink:href="#z39128d12"/></clipPath>
	<clipPath id="z39128c13"><use xlink:href="#z39128d13"/></clipPath>
	<clipPath id="z39128c14"><use xlink:href="#z39128d14"/></clipPath>
	<clipPath id="z39128c15"><use xlink:href="#z39128d15"/></clipPath>
</defs>
<path pathLength="2999" clip-path="url(#z39128c1)" d="M164 180L435 136"/>
<path pathLength="2999" clip-path="url(#z39128c2)" d="M113 291L144 327L175 471"/>
<path pathLength="2999" clip-path="url(#z39128c3)" d="M155 293L425 255L448 283L391 435"/>
<path pathLength="2999" clip-path="url(#z39128c4)" d="M205 223L239 266L249 415"/>
<path pathLength="2999" clip-path="url(#z39128c5)" d="M309 183L341 210L312 392"/>
<path pathLength="2999" clip-path="url(#z39128c6)" d="M193 448L382 397"/>
<path pathLength="2999" clip-path="url(#z39128c7)" d="M193 518L392 483"/>
<path pathLength="2999" clip-path="url(#z39128c8)" d="M94 625L439 569"/>
<path pathLength="2999" clip-path="url(#z39128c9)" d="M283 619L310 652L303 837L278 873L195 827"/>
<path pathLength="2999" clip-path="url(#z39128c10)" d="M167 696L106 832"/>
<path pathLength="2999" clip-path="url(#z39128c11)" d="M341 665L420 726"/>
<path pathLength="2999" clip-path="url(#z39128c12)" d="M491 253L532 308L513 579L467 728L390 858"/>
<path pathLength="2999" clip-path="url(#z39128c13)" d="M559 271L776 222L816 246L791 500L825 715L878 811L946 848L964 699"/>
<path pathLength="2999" clip-path="url(#z39128c14)" d="M683 410L708 443L657 598L522 750"/>
<path pathLength="2999" clip-path="url(#z39128c15)" d="M577 493L709 653L744 736"/>
</svg>