<!--
AnimCJK 2016-2019 Copyright Francois Mizessyn - https://github.com/parsimonhi/animCJK
Derived from:
    MakeMeAHanzi project - https://github.com/skishore/makemeahanzi
    Arphic PL KaitiM GB font
    Arphic PL UKai font
You can redistribute and/or modify this file under the terms of the Arphic Public License
as published by Arphic Technology Co., Ltd.
You should have received a copy of this license along with this file.
If not, see http://ftp.gnu.org/non-gnu/chinese-fonts-truetype/LICENSE.
-->
<svg id="z39275" class="acjk" version="1.1" viewBox="0 0 1024 1024" xmlns="http://www.w3.org/2000/svg" xmlns:xlink="http://www.w3.org/1999/xlink">
<style>
<![CDATA[
@keyframes zk {
	to {
		stroke-dashoffset:0;
	}
}
svg.acjk path[clip-path] {
	--t:0.8s;
	animation:zk var(--t) linear forwards var(--d);
	stroke-dasharray:3337;
	stroke-dashoffset:3339;
	stroke-width:128;
	stroke-linecap:round;
	fill:none;
	stroke:#000;
}
svg.acjk path[id] {fill:#ccc;}
]]>
</style>
<path id="z39275d1" d="M292 318Q323 258 363 168Q379 129 380 126Q368 98 323 91Q301 87 289 92Q280 96 285 108Q315 186 201 380Q197 386 192 394Q158 448 67 555Q60 562 71 563Q143 542 251 388Q258 375 268 361Q272 351 279 341C288 326 288 326 292 318Z"/>
<path id="z39275d2" d="M279 341Q297 345 380 327Q395 317 403 324Q406 327 402 335Q375 402 358 433Q351 445 350 451Q349 461 361 456Q373 450 428 387Q462 347 497 324Q515 312 502 300Q489 288 450 269Q434 265 419 274Q410 280 331 308Q313 314 292 318C283 320 270 339 279 341Z"/>
<path id="z39275d3" d="M319 518Q323 505 315 494Q291 472 269 461Q251 454 243 459Q233 465 241 481Q277 562 258 720Q255 769 216 817Q204 833 212 855Q222 882 235 893Q248 900 260 884Q275 854 418 732Q436 719 440 710Q444 700 434 700Q428 700 312 764Q305 770 302 761Q314 650 314 565Q314 540 319 518Z"/>
<path id="z39275d4" d="M628 332Q782 254 791 252Q809 249 811 241Q814 229 800 219Q734 183 699 190Q692 194 693 207Q694 250 496 372Q492 382 498 384Q510 384 587 350C614 338 614 338 628 332Z"/>
<path id="z39275d5" d="M655 530Q728 517 848 516Q899 516 904 506Q908 494 893 482Q835 440 773 463Q725 472 658 487C623 493 623 493 605 496Q530 508 447 522Q428 525 443 541Q456 554 474 558Q495 562 510 558Q552 545 600 538C637 533 637 533 655 530Z"/>
<path id="z39275d6" d="M600 538Q567 722 431 823Q416 836 402 848Q389 858 402 860Q417 859 450 843Q504 815 543 772Q588 729 608 681Q615 659 625 639Q637 608 645 576C654 517 654 517 658 487Q661 418 678 378Q687 359 669 352Q651 340 628 332C614 327 579 337 587 350Q611 384 605 496C602 524 602 524 600 538Z"/>
<path id="z39275d7" d="M645 576Q717 729 798 835Q817 863 839 865Q902 864 956 864Q980 864 980 859Q981 852 957 837Q830 765 796 725Q706 623 655 530C640 505 634 549 645 576Z"/>
<defs>
	<clipPath id="z39275c1"><use xlink:href="#z39275d1"/></clipPath>
	<clipPath id="z39275c2"><use xlink:href="#z39275d2"/></clipPath>
	<clipPath id="z39275c3"><use xlink:href="#z39275d3"/></clipPath>
	<clipPath id="z39275c4"><use xlink:href="#z39275d4"/></clipPath>
	<clipPath id="z39275c5"><use xlink:href="#z39275d5"/></clipPath>
	<clipPath id="z39275c6"><use xlink:href="#z39275d6"/></clipPath>
	<clipPath id="z39275c7"><use xlink:href="#z39275d7"/></clipPath>
</defs>
<path style="--d:1s;" pathLength="3333" clip-path="url(#z39275c1)" d="M289 98L334 132L292 259L188 437L73 558"/>
<path style="--d:2s;" pathLength="3333" clip-path="url(#z39275c2)" d="M284 337L417 296L454 319L357 450"/>
<path style="--d:3s;" pathLength="3333" clip-path="url(#z39275c3)" d="M245 464L287 516L258 839L433 708"/>
<path style="--d:4s;" pathLength="3333" clip-path="url(#z39275c4)" d="M807 238L716 235L662 288L503 376"/>
<path style="--d:5s;" pathLength="3333" clip-path="url(#z39275c5)" d="M443 531L791 487L900 495"/>
<path style="--d:6s;" pathLength="3333" clip-path="url(#z39275c6)" d="M594 351L641 382L601 632L521 766L405 853"/>
<path style="--d:7s;" pathLength="3333" clip-path="url(#z39275c7)" d="M654 543L720 671L830 808L974 855"/>
</svg>