<!--
AnimCJK 2016-2019 Copyright Francois Mizessyn - https://github.com/parsimonhi/animCJK
Derived from:
    MakeMeAHanzi project - https://github.com/skishore/makemeahanzi
    Arphic PL KaitiM GB font
    Arphic PL UKai font
You can redistribute and/or modify this file under the terms of the Arphic Public License
as published by Arphic Technology Co., Ltd.
You should have received a copy of this license along with this file.
If not, see http://ftp.gnu.org/non-gnu/chinese-fonts-truetype/LICENSE.
-->
<svg id="z39288" class="acjk" version="1.1" viewBox="0 0 1024 1024" xmlns="http://www.w3.org/2000/svg" xmlns:xlink="http://www.w3.org/1999/xlink">
<style>
<![CDATA[
@keyframes zk {
	to {
		stroke-dashoffset:0;
	}
}
svg.acjk path[clip-path] {
	--t:0.8s;
	animation:zk var(--t) linear forwards var(--d);
	stroke-dasharray:3337;
	stroke-dashoffset:3339;
	stroke-width:128;
	stroke-linecap:round;
	fill:none;
	stroke:#000;
}
svg.acjk path[id] {fill:#ccc;}
]]>
</style>
<path id="z39288d1" d="M287 314Q338 216 363 151Q368 138 373 128Q361 97 315 92Q293 89 282 92Q272 96 278 109Q308 190 196 377C189 386 189 386 186 391Q153 445 63 549Q57 557 67 558Q116 551 221 420C258 363 258 363 276 334C283 321 283 321 287 314Z"/>
<path id="z39288d2" d="M276 334Q296 339 378 321Q394 312 400 318Q405 320 400 330Q378 397 361 431Q357 447 355 450Q355 457 359 457Q362 457 367 455Q377 447 410 406Q459 343 490 319Q511 307 500 292Q482 279 447 261Q439 259 359 290C311 306 311 306 287 314C280 316 269 333 276 334Z"/>
<path id="z39288d3" d="M318 541Q318 522 324 492Q327 480 319 469Q277 427 253 432Q250 433 248 434Q238 439 246 455Q282 535 260 704Q257 746 231 781Q216 804 213 810Q208 824 214 839Q223 866 237 876Q250 883 263 868Q274 841 408 720Q425 708 429 697Q433 687 423 687Q417 687 312 747Q306 751 304 745Q318 626 318 541Z"/>
<path id="z39288d4" d="M664 235Q680 183 694 165Q702 158 698 148Q683 120 636 118Q620 117 612 120Q602 124 608 136Q636 203 554 357Q537 388 536 391Q508 441 433 539Q425 545 437 545Q475 539 576 410Q618 336 653 259C660 243 660 243 664 235Z"/>
<path id="z39288d5" d="M653 259Q721 366 809 477Q837 510 982 488Q1000 483 982 471C981 470 981 470 980 469Q870 424 801 369Q745 324 664 235C658 229 648 252 653 259Z"/>
<path id="z39288d6" d="M545 512Q508 521 536 535Q579 560 637 541Q674 531 733 517Q757 510 760 508Q766 498 762 490Q754 475 717 473Q688 472 663 483Q613 503 545 512Z"/>
<path id="z39288d7" d="M521 647Q500 637 480 637Q470 636 468 640Q463 645 468 658Q486 700 489 710Q508 765 519 843Q523 877 541 900Q561 922 564 907Q572 888 568 859C565 834 565 834 564 822Q545 709 543 677C543 665 533 652 521 647Z"/>
<path id="z39288d8" d="M776 794Q804 700 837 671Q857 652 839 631Q760 572 703 601Q631 628 521 647C509 649 531 679 543 677C654 654 654 654 709 642Q739 633 741 665Q742 671 741 679Q732 737 719 790C715 809 772 813 776 794Z"/>
<path id="z39288d9" d="M568 859Q581 860 608 855Q666 844 793 835Q805 833 808 823Q808 814 776 794C760 784 738 787 719 790Q628 811 564 822C552 824 556 859 568 859Z"/>
<defs>
	<clipPath id="z39288c1"><use xlink:href="#z39288d1"/></clipPath>
	<clipPath id="z39288c2"><use xlink:href="#z39288d2"/></clipPath>
	<clipPath id="z39288c3"><use xlink:href="#z39288d3"/></clipPath>
	<clipPath id="z39288c4"><use xlink:href="#z39288d4"/></clipPath>
	<clipPath id="z39288c5"><use xlink:href="#z39288d5"/></clipPath>
	<clipPath id="z39288c6"><use xlink:href="#z39288d6"/></clipPath>
	<clipPath id="z39288c7"><use xlink:href="#z39288d7"/></clipPath>
	<clipPath id="z39288c8"><use xlink:href="#z39288d8"/></clipPath>
	<clipPath id="z39288c9"><use xlink:href="#z39288d9"/></clipPath>
</defs>
<path style="--d:1s;" pathLength="3333" clip-path="url(#z39288c1)" d="M282 96L328 135L276 280L198 414L66 551"/>
<path style="--d:2s;" pathLength="3333" clip-path="url(#z39288c2)" d="M286 329L400 294L451 307L361 448"/>
<path style="--d:3s;" pathLength="3333" clip-path="url(#z39288c3)" d="M250 443L292 488L259 820L280 826L422 695"/>
<path style="--d:4s;" pathLength="3333" clip-path="url(#z39288c4)" d="M612 129L657 164L613 287L556 401L436 539"/>
<path style="--d:5s;" pathLength="3333" clip-path="url(#z39288c5)" d="M668 247L838 446L985 478"/>
<path style="--d:6s;" pathLength="3333" clip-path="url(#z39288c6)" d="M531 522L759 495"/>
<path style="--d:7s;" pathLength="3333" clip-path="url(#z39288c7)" d="M473 648L513 685L557 905"/>
<path style="--d:8s;" pathLength="3333" clip-path="url(#z39288c8)" d="M531 649L722 616L770 630L795 662L752 791"/>
<path style="--d:9s;" pathLength="3333" clip-path="url(#z39288c9)" d="M572 824L803 816"/>
</svg>