<!--
AnimCJK 2016-2019 Copyright Francois Mizessyn - https://github.com/parsimonhi/animCJK
Derived from:
    MakeMeAHanzi project - https://github.com/skishore/makemeahanzi
    Arphic PL KaitiM GB font
    Arphic PL UKai font
You can redistribute and/or modify this file under the terms of the Arphic Public License
as published by Arphic Technology Co., Ltd.
You should have received a copy of this license along with this file.
If not, see http://ftp.gnu.org/non-gnu/chinese-fonts-truetype/LICENSE.
-->
<svg id="z39286" class="acjk" version="1.1" viewBox="0 0 1024 1024" xmlns="http://www.w3.org/2000/svg" xmlns:xlink="http://www.w3.org/1999/xlink">
<style>
<![CDATA[
@keyframes zk {
	to {
		stroke-dashoffset:0;
	}
}
svg.acjk path[clip-path] {
	--t:0.8s;
	animation:zk var(--t) linear forwards var(--d);
	stroke-dasharray:3337;
	stroke-dashoffset:3339;
	stroke-width:128;
	stroke-linecap:round;
	fill:none;
	stroke:#000;
}
svg.acjk path[id] {fill:#ccc;}
]]>
</style>
<path id="z39286d1" d="M248 327Q326 180 327 179Q326 175 325 172Q319 160 290 141Q263 126 245 128Q227 131 237 152Q252 176 244 199Q222 275 182 349Q145 419 92 498Q83 508 81 515Q80 525 92 522Q135 509 232 353C243 336 243 336 248 327Z"/>
<path id="z39286d2" d="M232 353Q251 356 342 330Q352 326 355 330Q359 331 355 341Q330 413 313 448Q307 461 306 468Q305 478 317 472Q329 465 382 395Q416 350 449 325Q465 313 453 301Q438 291 400 273Q391 270 325 299Q262 323 248 327C239 331 222 353 232 353Z"/>
<path id="z39286d3" d="M288 514Q292 501 285 490Q263 468 243 457Q227 450 217 454Q207 460 215 474Q254 577 216 723Q206 751 179 783Q167 798 173 819Q182 844 194 856Q206 863 217 848Q233 823 370 714Q388 702 392 694Q396 684 386 684Q368 685 273 736Q264 742 263 733Q278 633 282 556Q283 532 288 514Z"/>
<path id="z39286d4" d="M639 290Q762 229 765 225Q771 216 765 210Q756 200 729 201Q708 201 618 254C596 265 596 265 585 270Q546 288 500 304Q469 317 496 327Q538 336 601 307Q602 306 604 306C627 295 627 295 639 290Z"/>
<path id="z39286d5" d="M686 416Q788 518 858 522Q879 519 873 493Q866 468 867 354Q867 344 862 343Q858 343 855 353Q845 380 834 405Q821 439 808 438Q784 439 725 392C704 371 704 371 694 361Q673 340 639 290C625 266 625 266 618 254Q579 179 588 123Q589 107 556 92Q522 77 513 82Q503 86 509 101Q531 120 542 159Q560 220 585 270C598 294 598 294 604 306Q629 346 661 387C678 406 678 406 686 416Z"/>
<path id="z39286d6" d="M725 392Q776 352 806 341Q816 337 817 325Q818 315 804 289Q791 267 777 262Q762 258 762 276Q762 300 748 313Q723 338 694 361C672 378 672 378 661 387Q651 393 643 399Q588 435 518 472Q508 476 504 480Q498 487 509 489Q548 493 686 416C712 400 712 400 725 392Z"/>
<path id="z39286d7" d="M651 575Q657 572 757 552Q767 552 775 539Q775 527 752 518Q713 502 637 531Q624 534 610 540Q574 552 450 579Q422 585 445 600Q481 624 510 614C536 606 536 606 549 602Q577 592 613 584C638 578 638 578 651 575Z"/>
<path id="z39286d8" d="M510 614Q522 717 396 845Q381 858 363 877Q357 884 363 886Q387 892 455 835Q518 781 559 674Q566 656 576 638Q582 631 577 622Q571 613 549 602C536 597 510 600 510 614Z"/>
<path id="z39286d9" d="M613 584Q613 585 615 588Q634 624 630 676Q626 791 633 814Q640 842 660 858Q700 889 851 888Q918 887 945 872Q973 856 961 826Q943 780 931 698Q928 682 921 678Q914 674 911 693Q898 793 884 813Q863 835 773 840Q724 840 702 832Q683 823 679 811Q672 789 674 733Q678 672 692 643Q704 613 685 598Q666 583 651 575C640 568 607 572 613 584Z"/>
<defs>
	<clipPath id="z39286c1"><use xlink:href="#z39286d1"/></clipPath>
	<clipPath id="z39286c2"><use xlink:href="#z39286d2"/></clipPath>
	<clipPath id="z39286c3"><use xlink:href="#z39286d3"/></clipPath>
	<clipPath id="z39286c4"><use xlink:href="#z39286d4"/></clipPath>
	<clipPath id="z39286c5"><use xlink:href="#z39286d5"/></clipPath>
	<clipPath id="z39286c6"><use xlink:href="#z39286d6"/></clipPath>
	<clipPath id="z39286c7"><use xlink:href="#z39286d7"/></clipPath>
	<clipPath id="z39286c8"><use xlink:href="#z39286d8"/></clipPath>
	<clipPath id="z39286c9"><use xlink:href="#z39286d9"/></clipPath>
</defs>
<path style="--d:1s;" pathLength="3333" clip-path="url(#z39286c1)" d="M240 136L284 175L281 196L200 363L87 516"/>
<path style="--d:2s;" pathLength="3333" clip-path="url(#z39286c2)" d="M241 347L373 302L406 324L315 465"/>
<path style="--d:3s;" pathLength="3333" clip-path="url(#z39286c3)" d="M222 462L259 518L219 801L386 690"/>
<path style="--d:4s;" pathLength="3333" clip-path="url(#z39286c4)" d="M489 318L761 216"/>
<path style="--d:5s;" pathLength="3333" clip-path="url(#z39286c5)" d="M514 90L560 126L622 300L739 433L846 473L861 351"/>
<path style="--d:6s;" pathLength="3333" clip-path="url(#z39286c6)" d="M773 268L783 321L513 481"/>
<path style="--d:7s;" pathLength="3333" clip-path="url(#z39286c7)" d="M444 588L769 536"/>
<path style="--d:8s;" pathLength="3333" clip-path="url(#z39286c8)" d="M515 616L543 646L503 741L369 880"/>
<path style="--d:9s;" pathLength="3333" clip-path="url(#z39286c9)" d="M621 586L662 627L659 822L700 854L854 859L921 836L919 684"/>
</svg>