<!--
AnimCJK 2016-2017 Copyright Francois Mizessyn, http://gooo.free.fr/animCJK/
Derived from:
    MakeMeAHanzi project - https://github.com/skishore/makemeahanzi
    Arphic PL KaitiM GB - https://apps.ubuntu.com/cat/applications/precise/fonts-arphic-gkai00mp/
    Arphic PL UKai - https://apps.ubuntu.com/cat/applications/fonts-arphic-ukai/
You can redistribute and/or modify this file under the terms of the Arphic Public License
as published by Arphic Technology Co., Ltd.
You should have received a copy of this license (the directory "APL") along with this file;
if not, see http://ftp.gnu.org/non-gnu/chinese-fonts-truetype/LICENSE.
-->
<svg id="z39302" class="acjk" version="1.1" viewBox="0 0 1024 1024" xmlns="http://www.w3.org/2000/svg" xmlns:xlink="http://www.w3.org/1999/xlink">
<style>
<![CDATA[
	@keyframes z39302k {
		from {
			stroke:#c00;
			stroke-dashoffset:3000;
		}
		75% {
			stroke:#c00;
			stroke-dashoffset:0;
		}
		to {
			stroke:#000;
		}
	}
	#z39302 path[clip-path] {
		animation:z39302k 1s linear both;
		stroke-dasharray:3000;
		stroke-width:128;
		stroke-linecap:round;
		fill:none;
	}
	#z39302 path[clip-path="url(#z39302c1)"] {animation-delay:1s;}
	#z39302 path[clip-path="url(#z39302c2)"] {animation-delay:2s;}
	#z39302 path[clip-path="url(#z39302c3)"] {animation-delay:3s;}
	#z39302 path[clip-path="url(#z39302c4)"] {animation-delay:4s;}
	#z39302 path[clip-path="url(#z39302c5)"] {animation-delay:5s;}
	#z39302 path[clip-path="url(#z39302c6)"] {animation-delay:6s;}
	#z39302 path[clip-path="url(#z39302c7)"] {animation-delay:7s;}
	#z39302 path[clip-path="url(#z39302c8)"] {animation-delay:8s;}
	#z39302 path[clip-path="url(#z39302c9)"] {animation-delay:9s;}
	#z39302 path[clip-path="url(#z39302c10)"] {animation-delay:10s;}
	#z39302 path[clip-path="url(#z39302c11)"] {animation-delay:11s;}
	#z39302 path {fill:#ccc;}
]]>
</style>
<g transform="scale(1,-1) translate(0,-900)">
	<path id="z39302d1" d="M272 589Q354 749 365 761Q375 774 368 788Q362 801 329 823Q299 839 279 837Q260 833 270 811Q289 775 278 743Q220 562 56 326Q46 313 45 307Q42 294 57 299Q117 315 261 569L272 589Z"/>
	<path id="z39302d2" d="M261 569Q280 563 369 587Q379 590 382 588Q385 585 382 578Q361 517 348 489Q344 477 342 472Q341 462 352 468Q362 474 411 532Q441 569 471 591Q487 601 474 613Q461 623 425 641Q409 645 396 635Q387 629 312 601Q294 594 272 589L261 569Z"/>
	<path id="z39302d3" d="M321 416Q325 431 316 442Q291 464 268 475Q249 482 240 477Q230 470 239 455Q281 362 258 188Q251 148 217 107Q205 91 213 67Q223 39 237 28Q250 21 263 37Q276 65 412 183Q431 196 436 206Q440 216 430 216Q417 216 319 162Q309 156 307 166Q317 280 317 368Q316 395 321 416Z"/>
	<path id="z39302d4" d="M631 765Q662 743 694 713Q707 701 722 703Q732 704 737 716Q741 731 731 759Q719 790 625 811Q610 814 604 811Q600 807 601 795Q605 785 631 765Z"/>
	<path id="z39302d5" d="M548 630Q536 660 515 671Q511 675 506 671Q502 667 501 656Q505 626 477 560Q467 544 468 526Q472 507 481 493Q488 483 494 490Q506 493 521 540Q536 586 544 602Q544 603 545 604L548 630Z"/>
	<path id="z39302d6" d="M545 604Q564 595 618 610Q703 644 806 656Q810 656 814 656Q827 644 824 638Q825 635 821 622Q797 556 805 553Q812 550 827 562Q875 599 915 614Q949 627 947 635Q946 645 875 687Q854 702 768 679Q726 678 548 630L545 604Z"/>
	<path id="z39302d7" d="M593 222Q593 264 594 307L595 335Q596 407 601 435L596 464Q583 483 539 496Q529 497 523 490Q520 484 528 473Q573 361 540 122Q516 22 520 7Q529 -27 540 -40Q552 -53 562 -39Q577 -23 588 53L591 85Q591 137 593 192L593 222Z"/>
	<path id="z39302d8" d="M771 370Q787 428 806 445Q828 473 805 486Q784 498 756 515Q737 525 718 513Q693 497 661 484Q633 474 596 464L601 435Q610 436 622 440Q662 452 698 460Q722 467 727 457Q733 453 728 427Q724 402 716 372L771 370Z"/>
	<path id="z39302d9" d="M594 307Q601 306 613 309Q665 325 780 345Q789 346 789 354Q789 361 771 370L716 372Q649 350 595 335L594 307Z"/>
	<path id="z39302d10" d="M813 122Q834 183 863 204Q879 223 864 241Q846 254 793 277Q775 284 754 275Q699 250 593 222L593 192Q605 192 747 226Q762 230 768 224Q780 212 759 123L813 122Z"/>
	<path id="z39302d11" d="M588 53Q594 47 619 52Q686 68 832 83Q842 84 844 94Q844 103 813 122L759 123Q665 98 591 85L588 53Z"/>
	<defs>
		<clipPath id="z39302c1"><use xlink:href="#z39302d1"/></clipPath>
		<clipPath id="z39302c2"><use xlink:href="#z39302d2"/></clipPath>
		<clipPath id="z39302c3"><use xlink:href="#z39302d3"/></clipPath>
		<clipPath id="z39302c4"><use xlink:href="#z39302d4"/></clipPath>
		<clipPath id="z39302c5"><use xlink:href="#z39302d5"/></clipPath>
		<clipPath id="z39302c6"><use xlink:href="#z39302d6"/></clipPath>
		<clipPath id="z39302c7"><use xlink:href="#z39302d7"/></clipPath>
		<clipPath id="z39302c8"><use xlink:href="#z39302d8"/></clipPath>
		<clipPath id="z39302c9"><use xlink:href="#z39302d9"/></clipPath>
		<clipPath id="z39302c10"><use xlink:href="#z39302d10"/></clipPath>
		<clipPath id="z39302c11"><use xlink:href="#z39302d11"/></clipPath>
	</defs>
	<path pathLength="2999" clip-path="url(#z39302c1)" d="M273 831L326 776L320 756L192 497L53 306"/>
	<path pathLength="2999" clip-path="url(#z39302c2)" d="M268 574L398 615L430 597L349 476"/>
	<path pathLength="2999" clip-path="url(#z39302c3)" d="M244 469L288 417L257 88L278 77L428 208"/>
	<path pathLength="2999" clip-path="url(#z39302c4)" d="M608 802L690 758L723 707"/>
	<path pathLength="2999" clip-path="url(#z39302c5)" d="M510 664L522 616L490 494"/>
	<path pathLength="2999" clip-path="url(#z39302c6)" d="M550 609L831 672L893 627L811 560"/>
	<path pathLength="2999" clip-path="url(#z39302c7)" d="M528 489L572 423L549 -42"/>
	<path pathLength="2999" clip-path="url(#z39302c8)" d="M606 443L746 484L773 460L734 372"/>
	<path pathLength="2999" clip-path="url(#z39302c9)" d="M598 314L783 355"/>
	<path pathLength="2999" clip-path="url(#z39302c10)" d="M601 201L790 246L821 215L778 123"/>
	<path pathLength="2999" clip-path="url(#z39302c11)" d="M590 60L759 99L837 91"/>
</g>
</svg>