<!--
AnimCJK 2016-2019 Copyright Francois Mizessyn - https://github.com/parsimonhi/animCJK
Derived from:
    MakeMeAHanzi project - https://github.com/skishore/makemeahanzi
    Arphic PL KaitiM GB font
    Arphic PL UKai font
You can redistribute and/or modify this file under the terms of the Arphic Public License
as published by Arphic Technology Co., Ltd.
You should have received a copy of this license along with this file.
If not, see http://ftp.gnu.org/non-gnu/chinese-fonts-truetype/LICENSE.
-->
<svg id="z39311" class="acjk" version="1.1" viewBox="0 0 1024 1024" xmlns="http://www.w3.org/2000/svg" xmlns:xlink="http://www.w3.org/1999/xlink">
<style>
<![CDATA[
@keyframes zk {
	to {
		stroke-dashoffset:0;
	}
}
svg.acjk path[clip-path] {
	--t:0.8s;
	animation:zk var(--t) linear forwards var(--d);
	stroke-dasharray:3337;
	stroke-dashoffset:3339;
	stroke-width:128;
	stroke-linecap:round;
	fill:none;
	stroke:#000;
}
svg.acjk path[id] {fill:#ccc;}
]]>
</style>
<path id="z39311d1" d="M270 287Q351 149 351 144Q351 140 349 135Q345 122 314 101Q286 85 266 85Q247 88 257 110Q272 138 253 191Q195 342 65 516Q55 528 54 534Q51 546 65 542Q116 529 253 316C264 297 264 297 270 287Z"/>
<path id="z39311d2" d="M253 316Q269 315 332 301Q341 298 344 301Q347 304 343 312Q321 373 305 403Q299 415 298 420Q297 430 308 424Q318 420 367 360Q398 323 428 302Q443 292 432 281Q420 271 387 253Q380 250 296 278Q272 285 270 287C260 293 242 316 253 316Z"/>
<path id="z39311d3" d="M307 474Q311 461 303 450Q279 428 258 417Q239 410 231 415Q221 421 229 437Q265 518 246 680Q245 729 205 778Q193 794 201 815Q211 842 224 853Q237 860 249 844Q262 816 394 697Q412 684 416 674Q420 664 410 664Q404 664 299 723Q292 729 290 721Q302 609 302 522Q302 495 307 474Z"/>
<path id="z39311d4" d="M490 259Q529 235 577 200Q593 187 613 178Q631 169 622 155Q610 142 589 129Q570 117 558 120Q548 121 551 132Q554 156 478 246C474 251 485 263 490 259Z"/>
<path id="z39311d5" d="M582 339Q504 393 496 392Q490 388 489 374Q490 296 494 277Q495 265 490 259C482 250 482 250 478 246Q462 231 449 231Q439 230 434 233Q427 239 436 249Q458 288 453 382Q452 409 441 423Q431 441 439 458Q449 483 464 492Q473 498 482 482Q506 446 591 354C595 350 587 336 582 339Z"/>
<path id="z39311d6" d="M591 354Q609 381 619 384Q625 385 630 379Q634 372 634 353Q635 337 614 317Q566 278 556 282Q552 283 551 291Q551 292 582 339C588 349 588 349 591 354Z"/>
<path id="z39311d7" d="M720 235Q777 219 823 214Q836 213 838 217Q845 230 839 261Q823 349 800 385Q785 409 764 404Q745 397 728 389Q709 380 721 401Q752 438 765 467Q780 486 796 472Q853 438 884 279Q891 239 908 221Q918 211 914 201Q907 191 864 171Q848 162 830 173Q815 182 756 194Q698 207 647 211Q632 211 629 219Q628 226 648 236Q657 242 692 243C702 243 710 237 720 235Z"/>
<path id="z39311d8" d="M692 243Q708 282 655 381Q633 423 600 465Q596 469 596 474Q596 478 601 477Q656 459 730 321Q733 303 751 280Q755 271 748 262Q736 244 720 235C712 229 688 234 692 243Z"/>
<path id="z39311d9" d="M493 553Q483 549 458 543Q446 539 443 544Q436 550 444 565Q475 647 488 778Q489 817 509 844Q525 866 531 851Q535 839 536 823C536 802 536 802 536 792Q523 690 508 586C506 574 504 557 493 553Z"/>
<path id="z39311d10" d="M744 812Q754 834 774 877Q781 893 791 892Q804 889 813 866Q841 809 857 638Q861 595 882 567Q898 549 887 537Q868 518 825 499Q809 489 779 500Q674 537 493 553C481 555 496 588 508 586Q511 586 613 570C636 566 636 566 647 564Q698 554 761 544Q785 540 796 551Q820 594 785 773Q784 789 776 792Q775 792 768 792C758 792 740 802 744 812Z"/>
<path id="z39311d11" d="M667 693Q710 686 749 684Q773 681 765 668Q755 653 729 647Q707 643 669 652C639 660 639 660 624 664Q588 671 556 679Q540 682 559 698Q568 705 587 703Q606 700 625 698C653 695 653 695 667 693Z"/>
<path id="z39311d12" d="M663 778Q664 732 667 693C668 666 668 666 669 652Q673 586 670 582Q658 570 647 564C637 558 609 559 613 570Q620 583 624 664C625 687 625 687 625 698Q625 732 626 783C626 795 663 790 663 778Z"/>
<path id="z39311d13" d="M536 823Q545 824 555 823Q616 813 744 812C754 812 776 799 768 792Q761 785 748 775Q730 763 663 778C638 781 638 781 626 783Q577 787 536 792C526 794 526 823 536 823Z"/>
<defs>
	<clipPath id="z39311c1"><use xlink:href="#z39311d1"/></clipPath>
	<clipPath id="z39311c2"><use xlink:href="#z39311d2"/></clipPath>
	<clipPath id="z39311c3"><use xlink:href="#z39311d3"/></clipPath>
	<clipPath id="z39311c4"><use xlink:href="#z39311d4"/></clipPath>
	<clipPath id="z39311c5"><use xlink:href="#z39311d5"/></clipPath>
	<clipPath id="z39311c6"><use xlink:href="#z39311d6"/></clipPath>
	<clipPath id="z39311c7"><use xlink:href="#z39311d7"/></clipPath>
	<clipPath id="z39311c8"><use xlink:href="#z39311d8"/></clipPath>
	<clipPath id="z39311c9"><use xlink:href="#z39311d9"/></clipPath>
	<clipPath id="z39311c10"><use xlink:href="#z39311d10"/></clipPath>
	<clipPath id="z39311c11"><use xlink:href="#z39311d11"/></clipPath>
	<clipPath id="z39311c12"><use xlink:href="#z39311d12"/></clipPath>
	<clipPath id="z39311c13"><use xlink:href="#z39311d13"/></clipPath>
</defs>
<path style="--d:1s;" pathLength="3333" clip-path="url(#z39311c1)" d="M262 92L306 144L298 170L179 387L61 535"/>
<path style="--d:2s;" pathLength="3333" clip-path="url(#z39311c2)" d="M264 310L363 277L387 298L303 417"/>
<path style="--d:3s;" pathLength="3333" clip-path="url(#z39311c3)" d="M233 418L276 481L241 789L263 799L409 671"/>
<path style="--d:4s;" pathLength="3333" clip-path="url(#z39311c4)" d="M558 129L581 167L485 253"/>
<path style="--d:5s;" pathLength="3333" clip-path="url(#z39311c5)" d="M439 237L471 275L477 440L586 347"/>
<path style="--d:6s;" pathLength="3333" clip-path="url(#z39311c6)" d="M561 292L622 376"/>
<path style="--d:7s;" pathLength="3333" clip-path="url(#z39311c7)" d="M636 217L695 224L844 191L878 218L809 417L776 440L722 395"/>
<path style="--d:8s;" pathLength="3333" clip-path="url(#z39311c8)" d="M698 245L722 281L705 324L604 471"/>
<path style="--d:9s;" pathLength="3333" clip-path="url(#z39311c9)" d="M448 550L485 607L523 851"/>
<path style="--d:10s;" pathLength="3333" clip-path="url(#z39311c10)" d="M503 559L791 520L831 537L847 565L782 886"/>
<path style="--d:11s;" pathLength="3333" clip-path="url(#z39311c11)" d="M557 685L761 673"/>
<path style="--d:12s;" pathLength="3333" clip-path="url(#z39311c12)" d="M622 575L646 608L650 779"/>
<path style="--d:13s;" pathLength="3333" clip-path="url(#z39311c13)" d="M544 815L757 791"/>
</svg>