<!--
AnimCJK 2016-2025 Copyright FM-SH - https://github.com/parsimonhi/animCJK
Derived from:
    MakeMeAHanzi project - https://github.com/skishore/makemeahanzi
    Arphic PL KaitiM GB font
    Arphic PL KaitiM Big5 font
You can redistribute and/or modify this file under the terms of the Arphic Public License
as published by Arphic Technology Co., Ltd.
You should have received a copy of this license along with this file.
If not, see https://ftp.gnu.org/non-gnu/chinese-fonts-truetype/LICENSE.
-->
<svg id="z39336" class="acjk" viewBox="0 0 1024 1024" xmlns="http://www.w3.org/2000/svg">
<style>
<![CDATA[
@keyframes zk {
	to {
		stroke-dashoffset:0;
	}
}
svg.acjk path[clip-path] {
	--t:0.8s;
	animation:zk var(--t) linear forwards var(--d);
	stroke-dasharray:3337;
	stroke-dashoffset:3339;
	stroke-width:128;
	stroke-linecap:round;
	fill:none;
	stroke:#000;
}
svg.acjk path[id] {fill:#ccc;}
]]>
</style>
<path id="z39336d1" d="M402 181C458 169 489 163 495 159C499 154 500 149 498 145C494 138 484 133 469 130C459 127 438 129 408 138C376 147 376 147 360 152C339 158 274 166 239 170C218 171 215 179 231 189C253 202 293 202 361 189C388 184 388 184 402 181Z"/>
<path id="z39336d2" d="M395 230C397 213 399 196 402 181C406 152 406 152 408 138C409 123 415 109 419 98C421 92 417 84 408 78C391 67 376 62 364 60C355 58 350 58 346 63C342 66 341 71 346 80C351 88 358 111 360 152C361 177 361 177 361 189C361 205 361 240 361 240C361 252 393 242 395 230Z"/>
<path id="z39336d3" d="M361 240C344 244 328 249 313 251C302 252 290 254 278 257C265 259 264 263 274 271C286 280 303 283 326 278C356 270 397 261 450 254C454 253 460 251 463 245C464 240 457 236 448 232C435 226 417 223 395 230C372 237 372 237 361 240Z"/>
<path id="z39336d4" d="M456 414C468 379 483 358 499 347C508 339 509 327 501 320C465 289 433 286 404 297C362 312 316 321 268 332C260 334 265 358 273 357C292 352 312 349 330 346C349 343 349 343 358 341C399 333 421 328 428 333C431 335 433 341 432 350C428 372 423 392 418 411C416 423 451 426 456 414Z"/>
<path id="z39336d5" d="M360 426C368 357 384 360 358 341C351 335 330 337 330 346C330 404 330 404 330 433C330 443 358 436 360 426Z"/>
<path id="z39336d6" d="M250 473C261 479 271 467 467 440C471 439 475 436 476 432C476 428 469 422 456 414C446 406 430 409 418 411C404 414 376 422 360 426C340 431 340 431 330 433C303 439 278 442 256 448C248 450 242 471 250 473Z"/>
<path id="z39336d7" d="M268 332C249 317 230 307 217 308C206 308 204 315 211 328C224 354 224 410 204 496C198 518 187 542 174 569C162 591 136 621 96 656C88 662 82 666 81 670C79 672 82 675 88 676C105 678 133 665 167 635C204 601 232 546 250 473C254 456 254 456 256 448C260 428 269 367 273 357C276 349 275 337 268 332Z"/>
<path id="z39336d8" d="M599 110C592 103 583 97 572 92C563 87 556 85 551 87C544 89 542 94 546 101C554 115 550 162 550 171C548 199 537 230 517 266C515 268 512 271 512 274C510 278 512 280 517 280C529 279 548 266 567 234C583 205 591 172 599 139C601 130 607 116 599 110Z"/>
<path id="z39336d9" d="M846 227C854 223 857 218 851 210C843 199 832 192 823 187C816 183 806 183 794 190C779 197 762 202 742 202C729 202 718 198 717 188C713 164 733 136 751 125C761 117 762 108 753 101C740 90 727 81 713 74C707 71 698 72 689 77C676 82 647 94 599 110C590 114 589 141 599 139C603 139 624 134 661 119C672 114 686 108 685 125C680 165 675 189 677 195C679 207 686 218 699 227C715 237 740 241 773 241C805 240 829 234 846 227Z"/>
<path id="z39336d10" d="M694 365C707 352 714 343 724 329C733 314 742 303 754 295C764 287 766 279 761 272C754 264 743 256 728 249C715 243 690 251 649 263C589 279 556 281 551 282C543 282 537 284 535 288C532 292 537 297 547 301C567 309 590 309 618 301C648 291 665 284 671 284C679 284 683 290 680 300C673 320 663 341 650 354C641 362 631 369 622 377C599 394 561 404 525 411C517 412 513 417 521 421C573 424 614 412 659 392C670 383 683 375 694 365Z"/>
<path id="z39336d11" d="M659 392C711 413 759 439 802 468C812 475 820 480 829 482C835 482 840 478 843 469C845 460 841 449 835 434C827 413 782 387 694 365C665 358 665 358 650 354C586 338 551 327 543 330C540 330 539 334 542 341C543 345 549 348 559 352C581 359 601 368 622 377C647 387 647 387 659 392Z"/>
<path id="z39336d12" d="M511 517C538 511 578 503 606 502C614 501 621 502 624 499C627 494 626 487 621 480C613 468 596 457 575 444C566 438 559 434 553 435C548 435 545 438 544 445C539 467 469 491 334 527C329 528 330 534 333 536C387 534 452 527 473 524C498 519 498 519 511 517Z"/>
<path id="z39336d13" d="M524 602C528 601 534 600 542 600C564 598 564 598 575 597C623 592 679 589 743 591C779 591 802 591 807 583C810 576 806 568 797 561C766 536 739 528 717 534C670 544 607 555 528 568C499 573 499 573 484 575C414 586 339 594 259 604C246 605 244 610 254 621C262 629 272 635 283 638C295 640 306 641 316 639C352 628 392 619 435 614C494 606 494 606 524 602Z"/>
<path id="z39336d14" d="M486 619C487 642 485 659 485 669C484 679 488 691 496 705C500 711 506 713 513 709C517 705 520 686 521 654C521 636 522 618 524 602C527 579 527 579 528 568C528 561 531 554 537 546C539 541 539 535 533 530C526 524 519 521 511 517C500 510 468 512 473 524C479 534 482 551 484 575C485 604 485 604 486 619Z"/>
<path id="z39336d15" d="M360 733C406 700 463 647 486 619C514 584 462 578 435 614C388 676 295 738 158 800C147 804 147 806 155 810C167 814 205 810 269 786C298 774 321 760 340 747C353 738 353 738 360 733Z"/>
<path id="z39336d16" d="M542 600C580 638 650 694 756 763C769 771 786 772 806 771C846 766 887 755 929 741C939 737 944 734 945 731C945 726 941 723 933 722C801 701 696 670 621 626C604 616 589 605 575 597C566 591 534 592 542 600Z"/>
<path id="z39336d17" d="M382 744C375 739 368 735 360 733C352 730 336 740 340 747C354 769 366 812 373 877C376 912 384 942 407 950C422 955 421 932 421 920C420 912 420 904 419 897C414 873 412 859 410 845C408 830 408 830 407 822C405 803 404 787 404 773C404 761 392 751 382 744Z"/>
<path id="z39336d18" d="M579 911C579 927 581 949 593 971C607 996 617 984 630 961C638 945 648 898 659 822C662 797 668 776 681 760C689 749 690 740 685 734C674 722 656 710 631 700C620 695 607 695 590 701C537 718 468 733 382 744C370 746 392 773 404 773C413 774 429 767 581 742C591 740 600 740 605 747C614 761 615 795 607 848C604 867 597 888 590 893C586 898 579 904 579 911Z"/>
<path id="z39336d19" d="M410 845C419 849 431 843 551 829C565 827 570 822 565 815C558 806 547 799 533 797C516 794 474 803 407 822C400 824 402 843 410 845Z"/>
<path id="z39336d20" d="M421 920C429 922 451 917 579 911C586 911 595 898 590 893C564 863 548 878 419 897C411 898 413 920 421 920Z"/>
<defs>
	<clipPath id="z39336c1"><use href="#z39336d1"/></clipPath>
	<clipPath id="z39336c2"><use href="#z39336d2"/></clipPath>
	<clipPath id="z39336c3"><use href="#z39336d3"/></clipPath>
	<clipPath id="z39336c4"><use href="#z39336d4"/></clipPath>
	<clipPath id="z39336c5"><use href="#z39336d5"/></clipPath>
	<clipPath id="z39336c6"><use href="#z39336d6"/></clipPath>
	<clipPath id="z39336c7"><use href="#z39336d7"/></clipPath>
	<clipPath id="z39336c8"><use href="#z39336d8"/></clipPath>
	<clipPath id="z39336c9"><use href="#z39336d9"/></clipPath>
	<clipPath id="z39336c10"><use href="#z39336d10"/></clipPath>
	<clipPath id="z39336c11"><use href="#z39336d11"/></clipPath>
	<clipPath id="z39336c12"><use href="#z39336d12"/></clipPath>
	<clipPath id="z39336c13"><use href="#z39336d13"/></clipPath>
	<clipPath id="z39336c14"><use href="#z39336d14"/></clipPath>
	<clipPath id="z39336c15"><use href="#z39336d15"/></clipPath>
	<clipPath id="z39336c16"><use href="#z39336d16"/></clipPath>
	<clipPath id="z39336c17"><use href="#z39336d17"/></clipPath>
	<clipPath id="z39336c18"><use href="#z39336d18"/></clipPath>
	<clipPath id="z39336c19"><use href="#z39336d19"/></clipPath>
	<clipPath id="z39336c20"><use href="#z39336d20"/></clipPath>
</defs>
<path style="--d:1s;" pathLength="3333" clip-path="url(#z39336c1)" d="M228 178L494 146"/>
<path style="--d:2s;" pathLength="3333" clip-path="url(#z39336c2)" d="M349 68L387 102L372 241"/>
<path style="--d:3s;" pathLength="3333" clip-path="url(#z39336c3)" d="M274 263L454 243"/>
<path style="--d:4s;" pathLength="3333" clip-path="url(#z39336c4)" d="M267 343L452 319L469 339L430 417"/>
<path style="--d:5s;" pathLength="3333" clip-path="url(#z39336c5)" d="M342 343L340 432"/>
<path style="--d:6s;" pathLength="3333" clip-path="url(#z39336c6)" d="M250 465L470 428"/>
<path style="--d:7s;" pathLength="3333" clip-path="url(#z39336c7)" d="M215 315L246 352L219 511L174 601L88 669"/>
<path style="--d:8s;" pathLength="3333" clip-path="url(#z39336c8)" d="M551 93L577 129L569 177L518 274"/>
<path style="--d:9s;" pathLength="3333" clip-path="url(#z39336c9)" d="M594 130L699 97L721 124L698 173L711 212L849 219"/>
<path style="--d:10s;" pathLength="3333" clip-path="url(#z39336c10)" d="M539 289L684 267L722 287L644 380L529 415"/>
<path style="--d:11s;" pathLength="3333" clip-path="url(#z39336c11)" d="M552 339L757 410L833 474"/>
<path style="--d:12s;" pathLength="3333" clip-path="url(#z39336c12)" d="M554 438L572 482L341 531"/>
<path style="--d:13s;" pathLength="3333" clip-path="url(#z39336c13)" d="M255 609L306 619L721 561L803 573"/>
<path style="--d:14s;" pathLength="3333" clip-path="url(#z39336c14)" d="M480 523L510 554L506 702"/>
<path style="--d:15s;" pathLength="3333" clip-path="url(#z39336c15)" d="M491 601L302 748L160 806"/>
<path style="--d:16s;" pathLength="3333" clip-path="url(#z39336c16)" d="M551 599L777 729L936 731"/>
<path style="--d:17s;" pathLength="3333" clip-path="url(#z39336c17)" d="M347 742L379 774L406 946"/>
<path style="--d:18s;" pathLength="3333" clip-path="url(#z39336c18)" d="M386 750L595 720L638 737L605 981"/>
<path style="--d:19s;" pathLength="3333" clip-path="url(#z39336c19)" d="M406 832L562 819"/>
<path style="--d:20s;" pathLength="3333" clip-path="url(#z39336c20)" d="M421 909L587 897"/>
</svg>