<!--
AnimCJK 2016-2019 Copyright Francois Mizessyn - https://github.com/parsimonhi/animCJK
Derived from:
    MakeMeAHanzi project - https://github.com/skishore/makemeahanzi
    Arphic PL KaitiM GB font
    Arphic PL UKai font
You can redistribute and/or modify this file under the terms of the Arphic Public License
as published by Arphic Technology Co., Ltd.
You should have received a copy of this license along with this file.
If not, see http://ftp.gnu.org/non-gnu/chinese-fonts-truetype/LICENSE.
-->
<svg id="z39534" class="acjk" version="1.1" viewBox="0 0 1024 1024" xmlns="http://www.w3.org/2000/svg" xmlns:xlink="http://www.w3.org/1999/xlink">
<style>
<![CDATA[
@keyframes zk {
	to {
		stroke-dashoffset:0;
	}
}
svg.acjk path[clip-path] {
	--t:0.8s;
	animation:zk var(--t) linear forwards var(--d);
	stroke-dasharray:3337;
	stroke-dashoffset:3339;
	stroke-width:128;
	stroke-linecap:round;
	fill:none;
	stroke:#000;
}
svg.acjk path[id] {fill:#ccc;}
]]>
</style>
<path id="z39534d1" d="M404 461Q419 425 434 296Q444 244 478 210Q494 192 477 179Q458 163 406 143Q394 137 338 153Q326 153 250 177Q210 189 186 193Q170 194 167 200Q163 206 181 216Q215 231 236 223Q273 210 358 193Q374 190 379 193Q394 200 390 243Q374 405 363 438Q357 462 367 474C374 485 399 473 404 461Z"/>
<path id="z39534d2" d="M367 474Q354 478 344 480Q319 486 265 502Q241 508 239 488Q242 346 252 324Q256 309 250 299Q235 283 212 274Q196 268 187 276Q183 280 189 291Q195 306 197 430Q197 475 187 515Q183 534 196 549Q209 561 235 550Q256 528 360 512Q388 509 401 521Q413 531 401 571Q373 763 339 807Q332 817 313 815Q282 805 256 796Q243 790 243 797Q242 801 250 809Q296 860 311 893Q318 912 335 904Q399 876 413 804Q435 707 453 598Q460 564 479 534Q491 518 480 506Q438 458 404 461C391 461 380 471 367 474Z"/>
<path id="z39534d3" d="M66 681Q53 682 51 693Q50 706 58 714Q80 730 114 748Q124 752 136 743Q166 719 300 654Q319 644 333 633Q346 626 346 616Q340 610 328 613Q109 682 66 681Z"/>
<path id="z39534d4" d="M680 475Q702 469 850 441Q862 442 870 428Q871 415 846 406Q813 387 747 409Q693 422 685 427C650 436 650 436 633 441Q608 445 586 449Q550 455 511 462Q481 466 505 484Q541 506 581 498Q602 492 628 486C663 479 663 479 680 475Z"/>
<path id="z39534d5" d="M671 542Q675 508 680 475C683 443 683 443 685 427Q694 240 715 177Q721 167 712 158Q693 142 659 128Q637 118 621 124Q602 131 617 148Q645 178 645 207Q644 336 633 441C630 471 630 471 628 486Q600 705 525 783Q497 816 437 860Q424 866 422 870Q418 877 433 877Q496 877 587 786Q597 771 608 757Q638 708 663 585C668 556 668 556 671 542Z"/>
<path id="z39534d6" d="M663 585Q739 754 797 837Q815 867 837 869Q901 872 956 875Q978 876 980 871Q983 864 958 848Q826 767 788 714Q712 614 671 542C663 529 658 571 663 585Z"/>
<defs>
	<clipPath id="z39534c1"><use xlink:href="#z39534d1"/></clipPath>
	<clipPath id="z39534c2"><use xlink:href="#z39534d2"/></clipPath>
	<clipPath id="z39534c3"><use xlink:href="#z39534d3"/></clipPath>
	<clipPath id="z39534c4"><use xlink:href="#z39534d4"/></clipPath>
	<clipPath id="z39534c5"><use xlink:href="#z39534d5"/></clipPath>
	<clipPath id="z39534c6"><use xlink:href="#z39534d6"/></clipPath>
</defs>
<path style="--d:1s;" pathLength="3333" clip-path="url(#z39534c1)" d="M173 201L383 167L434 196L378 469"/>
<path style="--d:2s;" pathLength="3333" clip-path="url(#z39534c2)" d="M194 280L223 319L223 526L393 489L445 523L364 834L317 860L251 799"/>
<path style="--d:3s;" pathLength="3333" clip-path="url(#z39534c3)" d="M54 694L123 710L340 620"/>
<path style="--d:4s;" pathLength="3333" clip-path="url(#z39534c4)" d="M502 469L560 477L864 423"/>
<path style="--d:5s;" pathLength="3333" clip-path="url(#z39534c5)" d="M618 136L680 177L630 618L561 778L432 870"/>
<path style="--d:6s;" pathLength="3333" clip-path="url(#z39534c6)" d="M674 551L716 652L825 807L972 865"/>
</svg>