<!--
AnimCJK 2016-2019 Copyright Francois Mizessyn - https://github.com/parsimonhi/animCJK
Derived from:
    MakeMeAHanzi project - https://github.com/skishore/makemeahanzi
    Arphic PL KaitiM GB font
    Arphic PL UKai font
You can redistribute and/or modify this file under the terms of the Arphic Public License
as published by Arphic Technology Co., Ltd.
You should have received a copy of this license along with this file.
If not, see http://ftp.gnu.org/non-gnu/chinese-fonts-truetype/LICENSE.
-->
<svg id="z39536" class="acjk" version="1.1" viewBox="0 0 1024 1024" xmlns="http://www.w3.org/2000/svg" xmlns:xlink="http://www.w3.org/1999/xlink">
<style>
<![CDATA[
@keyframes zk {
	to {
		stroke-dashoffset:0;
	}
}
svg.acjk path[clip-path] {
	--t:0.8s;
	animation:zk var(--t) linear forwards var(--d);
	stroke-dasharray:3337;
	stroke-dashoffset:3339;
	stroke-width:128;
	stroke-linecap:round;
	fill:none;
	stroke:#000;
}
svg.acjk path[id] {fill:#ccc;}
]]>
</style>
<path id="z39536d1" d="M162 197C152 199 146 201 144 204C141 207 145 213 157 220C177 231 201 230 228 222C298 201 339 195 350 201C359 206 362 220 360 247C352 345 344 404 338 425C335 437 336 448 340 458C344 467 351 471 359 470C367 468 372 461 377 452C386 433 395 384 406 304C411 268 428 240 450 218C461 207 460 195 449 186C436 176 412 165 378 151C370 147 348 151 310 160C306 162 277 168 225 182C199 189 178 195 162 197Z"/>
<path id="z39536d2" d="M222 576C241 559 280 540 344 528C362 524 376 527 385 535C393 541 386 601 368 715C362 749 352 777 337 800C332 805 325 809 314 806C292 799 273 791 256 784C247 780 243 780 243 785C242 787 244 792 249 798C279 832 300 861 310 884C315 896 323 901 335 896C375 878 399 846 409 800C421 740 430 676 440 610C443 585 450 563 463 544C470 532 470 524 463 517C451 504 434 492 410 480C395 472 375 479 345 491C276 517 237 524 234 522C231 520 227 517 228 513C232 408 241 346 250 325C254 315 254 306 250 300C240 288 227 280 212 273C201 268 193 269 188 274C184 277 185 281 189 289C200 314 198 385 185 500C183 512 180 525 176 538C172 550 174 562 184 572C196 583 210 585 222 576Z"/>
<path id="z39536d3" d="M76 709C67 710 63 715 63 722C62 730 64 738 72 743C88 752 107 762 131 771C137 773 144 768 153 763C217 716 283 671 350 625C358 619 363 612 361 607C358 602 316 620 237 653C147 689 93 706 76 709Z"/>
<path id="z39536d4" d="M570 529C597 511 614 504 648 485C679 468 679 468 694 459C724 441 759 420 802 398C812 392 819 393 823 399C827 407 825 422 819 445C809 476 798 512 788 552C780 579 770 588 751 580C741 576 731 573 721 571C712 569 709 571 711 576C713 582 732 603 765 641C778 656 790 659 802 647C826 620 842 586 852 546C859 513 867 479 876 444C881 421 894 400 913 381C921 371 920 361 910 355C898 347 876 341 844 335C834 332 815 344 787 365C773 374 744 394 698 419C667 435 667 435 652 443C638 449 613 462 575 479C545 492 545 492 530 498C515 504 503 508 493 513C484 516 477 519 480 525C484 534 498 546 528 544C542 542 554 539 570 529Z"/>
<path id="z39536d5" d="M648 485C640 565 636 616 643 636C645 644 652 646 658 642C673 630 681 597 685 545C687 515 691 486 694 459C697 432 697 432 698 419C709 305 714 231 727 200C732 186 733 176 725 167C715 156 700 146 682 137C667 129 651 128 636 135C626 138 629 146 637 159C654 188 661 248 659 335C658 367 655 403 652 443C649 471 649 471 648 485Z"/>
<path id="z39536d6" d="M969 731C958 710 943 667 930 602C927 591 926 584 921 582C917 580 913 584 911 597C898 666 888 713 876 736C868 749 847 758 818 767C787 775 753 778 716 777C683 775 654 770 629 759C606 748 592 735 585 721C567 686 560 621 570 529C573 496 573 496 575 479C577 458 580 437 584 416C586 405 584 396 577 390C568 381 557 374 543 370C534 367 527 367 523 371C518 373 517 380 521 391C529 417 531 453 530 498C529 529 529 529 528 544C522 677 537 761 571 790C628 838 721 849 847 827C855 825 865 822 875 820C905 811 935 796 964 774C977 763 978 749 969 731Z"/>
<defs>
	<clipPath id="z39536c1"><use xlink:href="#z39536d1"/></clipPath>
	<clipPath id="z39536c2"><use xlink:href="#z39536d2"/></clipPath>
	<clipPath id="z39536c3"><use xlink:href="#z39536d3"/></clipPath>
	<clipPath id="z39536c4"><use xlink:href="#z39536d4"/></clipPath>
	<clipPath id="z39536c5"><use xlink:href="#z39536d5"/></clipPath>
	<clipPath id="z39536c6"><use xlink:href="#z39536d6"/></clipPath>
</defs>
<path style="--d:1s;" pathLength="3333" clip-path="url(#z39536c1)" d="M152 207L352 174L406 207L354 464"/>
<path style="--d:2s;" pathLength="3333" clip-path="url(#z39536c2)" d="M194 278L224 316L208 544L385 502L428 538L363 825L322 852L250 789"/>
<path style="--d:3s;" pathLength="3333" clip-path="url(#z39536c3)" d="M69 718L138 731L352 612"/>
<path style="--d:4s;" pathLength="3333" clip-path="url(#z39536c4)" d="M487 523L562 509L843 369L871 390L806 588L776 619L719 577"/>
<path style="--d:5s;" pathLength="3333" clip-path="url(#z39536c5)" d="M638 143L690 186L653 637"/>
<path style="--d:6s;" pathLength="3333" clip-path="url(#z39536c6)" d="M526 376L556 413L557 709L611 782L757 807L890 775L929 737L918 589"/>
</svg>