<!--
AnimCJK 2016-2017 Copyright Francois Mizessyn, http://gooo.free.fr/animCJK/
Derived from:
    MakeMeAHanzi project - https://github.com/skishore/makemeahanzi
    Arphic PL KaitiM GB - https://apps.ubuntu.com/cat/applications/precise/fonts-arphic-gkai00mp/
    Arphic PL UKai - https://apps.ubuntu.com/cat/applications/fonts-arphic-ukai/
You can redistribute and/or modify this file under the terms of the Arphic Public License
as published by Arphic Technology Co., Ltd.
You should have received a copy of this license (the directory "APL") along with this file;
if not, see http://ftp.gnu.org/non-gnu/chinese-fonts-truetype/LICENSE.
-->
<svg id="z39567" class="acjk" version="1.1" viewBox="0 0 1024 1024" xmlns="http://www.w3.org/2000/svg" xmlns:xlink="http://www.w3.org/1999/xlink">
<style>
<![CDATA[
	@keyframes z39567k {
		from {
			stroke:#c00;
			stroke-dashoffset:3000;
		}
		75% {
			stroke:#c00;
			stroke-dashoffset:0;
		}
		to {
			stroke:#000;
		}
	}
	#z39567 path[clip-path] {
		animation:z39567k 1s linear both;
		stroke-dasharray:3000;
		stroke-width:128;
		stroke-linecap:round;
		fill:none;
	}
	#z39567 path[clip-path="url(#z39567c1)"] {animation-delay:1s;}
	#z39567 path[clip-path="url(#z39567c2)"] {animation-delay:2s;}
	#z39567 path[clip-path="url(#z39567c3)"] {animation-delay:3s;}
	#z39567 path[clip-path="url(#z39567c4)"] {animation-delay:4s;}
	#z39567 path[clip-path="url(#z39567c5)"] {animation-delay:5s;}
	#z39567 path[clip-path="url(#z39567c6)"] {animation-delay:6s;}
	#z39567 path[clip-path="url(#z39567c7)"] {animation-delay:7s;}
	#z39567 path[clip-path="url(#z39567c8)"] {animation-delay:8s;}
	#z39567 path[clip-path="url(#z39567c9)"] {animation-delay:9s;}
	#z39567 path[clip-path="url(#z39567c10)"] {animation-delay:10s;}
	#z39567 path {fill:#ccc;}
]]>
</style>
<g transform="scale(1,-1) translate(0,-900)">
	<path id="z39567d1" d="M371 428Q390 449 407 592Q417 644 449 677Q465 695 449 708Q430 721 378 742Q363 749 310 730Q265 718 227 704Q190 691 165 685Q149 684 147 678Q144 674 161 664Q195 651 213 659Q249 675 332 695Q347 698 352 696Q365 689 362 649Q349 498 339 466Q335 448 341 433Q345 426 350 422L371 428Z"/>
	<path id="z39567d2" d="M350 422Q332 413 317 410Q293 404 246 389Q221 385 219 404Q222 545 235 576Q241 591 234 601Q219 617 196 627Q180 633 172 625Q166 621 173 610Q185 585 175 413Q172 395 168 377Q161 358 175 343Q193 328 215 341Q234 362 328 377Q359 381 374 369Q387 359 375 313Q372 252 366 189Q362 140 342 107Q335 98 318 98Q285 108 256 117Q243 121 243 115Q243 111 250 103Q302 54 321 20Q328 1 346 11Q403 41 412 108Q424 195 430 291Q436 328 452 359Q465 375 453 387Q435 406 398 425Q385 432 371 428L350 422Z"/>
	<path id="z39567d3" d="M44 207Q31 206 30 195Q29 182 38 174Q60 158 94 141Q104 140 116 148Q135 164 290 248Q311 258 325 271Q338 278 338 288Q332 294 320 290Q91 209 44 207Z"/>
	<path id="z39567d4" d="M773 636Q682 621 584 595Q574 591 571 594Q568 598 574 607Q671 743 692 765Q704 775 698 787Q691 800 644 822Q628 829 618 825Q606 819 612 799Q633 736 533 621Q512 602 484 580Q471 568 475 558Q479 542 505 522Q517 512 529 522Q572 558 774 609Q783 612 791 615L773 636Z"/>
	<path id="z39567d5" d="M791 615Q824 579 835 576Q844 575 849 585Q855 597 851 621Q850 643 819 665Q753 708 736 703Q732 700 731 689Q732 680 752 660Q762 650 773 636L791 615Z"/>
	<path id="z39567d6" d="M535 490Q544 442 457 349Q450 345 458 343Q506 343 588 449Q592 453 594 456Q600 460 598 468Q597 475 588 484Q566 506 540 501Q533 500 535 490Z"/>
	<path id="z39567d7" d="M733 485Q776 457 824 423Q837 413 852 414Q862 415 865 428Q868 443 857 468Q848 493 808 509Q718 536 704 527Q700 523 702 511Q706 501 733 485Z"/>
	<path id="z39567d8" d="M619 348Q626 361 633 368Q640 380 637 388Q633 398 608 402Q583 406 572 402Q565 401 565 388Q559 313 430 168Q414 152 437 158Q476 170 557 260L573 280Q586 299 598 317Q599 320 601 322L619 348Z"/>
	<path id="z39567d9" d="M660 150Q647 134 632 116Q581 68 452 29Q439 25 447 18Q454 12 481 16Q566 26 617 50Q657 72 691 112L718 150Q751 201 772 276Q779 309 799 325Q814 338 797 354Q778 370 746 382Q727 389 706 379Q670 360 621 349Q620 349 619 348L601 322Q622 318 698 336Q717 342 717 320Q717 254 680 184L660 150Z"/>
	<path id="z39567d10" d="M557 260Q585 244 605 217Q633 183 660 150L691 112Q746 48 795 -3Q810 -19 835 -19Q965 -3 974 10Q977 16 967 19Q813 70 718 150L680 184Q643 220 599 265Q589 280 573 280L557 260Z"/>
	<defs>
		<clipPath id="z39567c1"><use xlink:href="#z39567d1"/></clipPath>
		<clipPath id="z39567c2"><use xlink:href="#z39567d2"/></clipPath>
		<clipPath id="z39567c3"><use xlink:href="#z39567d3"/></clipPath>
		<clipPath id="z39567c4"><use xlink:href="#z39567d4"/></clipPath>
		<clipPath id="z39567c5"><use xlink:href="#z39567d5"/></clipPath>
		<clipPath id="z39567c6"><use xlink:href="#z39567d6"/></clipPath>
		<clipPath id="z39567c7"><use xlink:href="#z39567d7"/></clipPath>
		<clipPath id="z39567c8"><use xlink:href="#z39567d8"/></clipPath>
		<clipPath id="z39567c9"><use xlink:href="#z39567d9"/></clipPath>
		<clipPath id="z39567c10"><use xlink:href="#z39567d10"/></clipPath>
	</defs>
	<path pathLength="2999" clip-path="url(#z39567c1)" d="M157 676L353 720L401 695L352 430"/>
	<path pathLength="2999" clip-path="url(#z39567c2)" d="M178 621L208 584L202 366L350 401L419 367L363 75L327 55L251 114"/>
	<path pathLength="2999" clip-path="url(#z39567c3)" d="M34 196L97 179L331 284"/>
	<path pathLength="2999" clip-path="url(#z39567c4)" d="M621 822L657 772L528 570L549 556L783 621"/>
	<path pathLength="2999" clip-path="url(#z39567c5)" d="M739 698L847 588"/>
	<path pathLength="2999" clip-path="url(#z39567c6)" d="M542 496L564 459L466 348"/>
	<path pathLength="2999" clip-path="url(#z39567c7)" d="M710 520L823 464L857 420"/>
	<path pathLength="2999" clip-path="url(#z39567c8)" d="M632 386L590 369L525 254L430 164"/>
	<path pathLength="2999" clip-path="url(#z39567c9)" d="M610 327L719 361L760 335L704 176L614 74L450 23"/>
	<path pathLength="2999" clip-path="url(#z39567c10)" d="M564 262L820 32L967 11"/>
</g>
</svg>