<!--
AnimCJK 2016-2019 Copyright Francois Mizessyn - https://github.com/parsimonhi/animCJK
Derived from:
    MakeMeAHanzi project - https://github.com/skishore/makemeahanzi
    Arphic PL KaitiM GB font
    Arphic PL UKai font
You can redistribute and/or modify this file under the terms of the Arphic Public License
as published by Arphic Technology Co., Ltd.
You should have received a copy of this license along with this file.
If not, see http://ftp.gnu.org/non-gnu/chinese-fonts-truetype/LICENSE.
-->
<svg id="z39571" class="acjk" version="1.1" viewBox="0 0 1024 1024" xmlns="http://www.w3.org/2000/svg" xmlns:xlink="http://www.w3.org/1999/xlink">
<style>
<![CDATA[
@keyframes zk {
	to {
		stroke-dashoffset:0;
	}
}
svg.acjk path[clip-path] {
	--t:0.8s;
	animation:zk var(--t) linear forwards var(--d);
	stroke-dasharray:3337;
	stroke-dashoffset:3339;
	stroke-width:128;
	stroke-linecap:round;
	fill:none;
	stroke:#000;
}
svg.acjk path[id] {fill:#ccc;}
]]>
</style>
<path id="z39571d1" d="M357 491Q375 454 388 295Q398 243 430 209Q446 190 429 177Q410 164 357 143Q336 136 292 155Q274 155 211 180Q175 192 153 197Q137 198 134 205Q131 209 149 220Q183 235 204 225Q237 212 313 194Q326 191 332 193Q348 200 344 248Q331 426 318 462Q312 487 326 503C333 512 353 501 357 491Z"/>
<path id="z39571d2" d="M326 503Q311 503 227 526Q206 527 208 510Q215 375 232 338Q239 322 232 310Q216 291 191 280Q173 273 164 280Q157 284 165 297Q171 312 166 429Q151 528 149 537Q143 556 158 571Q176 586 199 573Q223 549 340 533Q368 530 380 542Q392 552 379 592Q372 653 360 718Q353 767 330 800Q321 809 301 806Q267 793 237 783Q224 779 223 785Q222 789 230 798Q284 852 301 888Q310 907 327 898Q388 871 400 803Q419 715 432 618Q439 584 456 554Q468 539 457 527Q441 508 406 489Q387 477 360 489Q357 490 357 491C347 497 337 503 326 503Z"/>
<path id="z39571d3" d="M50 697Q37 700 36 710Q35 723 45 730Q69 745 103 760Q113 763 125 753Q147 729 275 656Q293 646 305 633Q318 624 317 616Q311 610 300 614Q90 695 50 697Z"/>
<path id="z39571d4" d="M522 345Q582 261 619 190Q637 153 653 135Q660 125 656 112Q652 100 623 81Q596 66 579 68Q561 71 571 91Q595 130 520 273Q486 337 436 411Q427 421 426 427Q423 437 436 434Q448 431 496 379C513 356 513 356 522 345Z"/>
<path id="z39571d5" d="M565 754Q564 498 574 435Q581 405 555 377Q534 353 522 345C511 336 491 366 496 379Q523 454 526 465Q526 469 527 475Q527 692 493 829Q478 878 515 926Q516 929 520 932Q539 948 551 920Q563 881 565 787C565 765 565 765 565 754Z"/>
<path id="z39571d6" d="M700 217Q722 239 746 266Q756 278 771 278Q780 278 785 267Q789 255 784 229Q780 211 755 196Q728 186 699 175Q686 171 680 173Q676 177 676 188Q679 198 700 217Z"/>
<path id="z39571d7" d="M735 376Q870 339 872 338Q879 331 875 323Q868 313 841 307Q813 303 787 315Q751 328 712 340Q669 350 619 358Q585 365 610 379Q643 395 692 388C721 380 721 380 735 376Z"/>
<path id="z39571d8" d="M755 511Q794 504 830 498Q855 494 845 480Q833 465 807 461Q788 458 757 467C723 478 723 478 706 483Q666 495 631 506Q613 510 636 525Q645 532 665 528Q684 524 706 520C739 514 739 514 755 511Z"/>
<path id="z39571d9" d="M750 623Q796 613 838 608Q862 604 853 592Q843 577 817 573Q793 569 752 581C721 590 721 590 705 595Q665 605 627 615Q611 619 631 634Q637 637 704 630C735 625 735 625 750 623Z"/>
<path id="z39571d10" d="M746 729Q747 674 750 623C751 595 751 595 752 581Q753 544 755 511C756 482 756 482 757 467Q757 451 760 424Q769 400 735 376C723 367 686 374 692 388Q701 404 706 483C706 508 706 508 706 520Q705 551 705 595C704 618 704 618 704 630Q704 676 704 735C704 749 746 743 746 729Z"/>
<path id="z39571d11" d="M704 735Q638 742 565 754C554 756 555 783 565 787Q593 796 611 792Q696 770 920 769Q938 769 943 761Q947 751 932 737Q880 698 820 715Q787 719 746 729C718 733 718 733 704 735Z"/>
<defs>
	<clipPath id="z39571c1"><use xlink:href="#z39571d1"/></clipPath>
	<clipPath id="z39571c2"><use xlink:href="#z39571d2"/></clipPath>
	<clipPath id="z39571c3"><use xlink:href="#z39571d3"/></clipPath>
	<clipPath id="z39571c4"><use xlink:href="#z39571d4"/></clipPath>
	<clipPath id="z39571c5"><use xlink:href="#z39571d5"/></clipPath>
	<clipPath id="z39571c6"><use xlink:href="#z39571d6"/></clipPath>
	<clipPath id="z39571c7"><use xlink:href="#z39571d7"/></clipPath>
	<clipPath id="z39571c8"><use xlink:href="#z39571d8"/></clipPath>
	<clipPath id="z39571c9"><use xlink:href="#z39571d9"/></clipPath>
	<clipPath id="z39571c10"><use xlink:href="#z39571d10"/></clipPath>
	<clipPath id="z39571c11"><use xlink:href="#z39571d11"/></clipPath>
</defs>
<path style="--d:1s;" pathLength="3333" clip-path="url(#z39571c1)" d="M140 204L332 167L390 202L333 498"/>
<path style="--d:2s;" pathLength="3333" clip-path="url(#z39571c2)" d="M169 286L201 322L182 543L370 509L423 545L357 823L312 853L230 789"/>
<path style="--d:3s;" pathLength="3333" clip-path="url(#z39571c3)" d="M40 708L108 722L311 618"/>
<path style="--d:4s;" pathLength="3333" clip-path="url(#z39571c4)" d="M576 77L615 133L539 284L432 428"/>
<path style="--d:5s;" pathLength="3333" clip-path="url(#z39571c5)" d="M522 354L548 437L530 933"/>
<path style="--d:6s;" pathLength="3333" clip-path="url(#z39571c6)" d="M682 180L760 239L768 274"/>
<path style="--d:7s;" pathLength="3333" clip-path="url(#z39571c7)" d="M609 368L871 330"/>
<path style="--d:8s;" pathLength="3333" clip-path="url(#z39571c8)" d="M630 512L842 488"/>
<path style="--d:9s;" pathLength="3333" clip-path="url(#z39571c9)" d="M625 622L848 592"/>
<path style="--d:10s;" pathLength="3333" clip-path="url(#z39571c10)" d="M700 394L732 429L720 732"/>
<path style="--d:11s;" pathLength="3333" clip-path="url(#z39571c11)" d="M571 762L837 740L939 753"/>
</svg>