<!--
AnimCJK 2016-2019 Copyright Francois Mizessyn - https://github.com/parsimonhi/animCJK
Derived from:
    MakeMeAHanzi project - https://github.com/skishore/makemeahanzi
    Arphic PL KaitiM GB font
    Arphic PL UKai font
You can redistribute and/or modify this file under the terms of the Arphic Public License
as published by Arphic Technology Co., Ltd.
You should have received a copy of this license along with this file.
If not, see http://ftp.gnu.org/non-gnu/chinese-fonts-truetype/LICENSE.
-->
<svg id="z39581" class="acjk" version="1.1" viewBox="0 0 1024 1024" xmlns="http://www.w3.org/2000/svg" xmlns:xlink="http://www.w3.org/1999/xlink">
<style>
<![CDATA[
@keyframes zk {
	to {
		stroke-dashoffset:0;
	}
}
svg.acjk path[clip-path] {
	--t:0.8s;
	animation:zk var(--t) linear forwards var(--d);
	stroke-dasharray:3337;
	stroke-dashoffset:3339;
	stroke-width:128;
	stroke-linecap:round;
	fill:none;
	stroke:#000;
}
svg.acjk path[id] {fill:#ccc;}
]]>
</style>
<path id="z39581d1" d="M354 489Q373 453 387 296Q397 244 429 210Q445 191 428 178Q409 163 357 143Q336 136 292 155Q274 155 211 180Q175 192 153 197Q137 198 134 205Q131 209 149 220Q183 235 204 225Q237 212 313 194Q326 191 332 193Q348 200 344 248Q328 426 315 462Q311 480 321 502C325 513 350 500 354 489Z"/>
<path id="z39581d2" d="M321 502Q318 501 317 502Q287 508 227 525Q208 526 208 510Q215 375 232 338Q239 322 232 310Q216 291 191 280Q173 273 164 280Q157 284 165 297Q171 312 166 429Q151 528 149 537Q143 556 158 571Q176 586 199 573Q232 548 340 530Q368 529 379 539Q389 549 377 587Q368 648 355 711Q346 760 323 791Q314 801 293 798Q262 788 233 779Q220 775 219 781Q218 785 226 794Q277 846 294 880Q301 899 319 891Q379 861 393 797Q414 710 429 614Q436 580 454 551Q466 536 455 525Q439 506 405 486Q384 474 354 489C343 493 333 502 321 502Z"/>
<path id="z39581d3" d="M50 697Q37 700 36 710Q35 723 45 730Q69 745 103 760Q113 763 125 753Q147 729 275 656Q293 646 305 633Q318 624 317 616Q311 610 300 614Q90 695 50 697Z"/>
<path id="z39581d4" d="M506 272Q539 253 561 240Q613 203 635 195Q653 188 645 172Q635 157 613 144Q594 132 583 134Q573 135 575 146Q578 167 533 218Q514 237 495 259C491 263 501 275 506 272Z"/>
<path id="z39581d5" d="M597 361Q515 409 509 408Q502 404 502 387Q503 308 507 287Q508 278 506 272C505 266 499 263 495 259Q476 240 460 238Q450 237 444 240Q437 247 446 258Q474 306 464 395Q461 422 450 438Q440 457 447 475Q457 502 473 512Q483 518 492 501Q517 467 606 378C611 373 602 357 597 361Z"/>
<path id="z39581d6" d="M606 378Q618 406 634 412Q640 413 646 407Q652 400 652 379Q653 363 634 342Q588 302 576 302Q572 303 571 311Q571 318 597 361C603 372 603 372 606 378Z"/>
<path id="z39581d7" d="M728 251Q780 233 825 226Q838 225 841 228Q850 241 844 275Q834 369 810 410Q795 435 772 432Q750 425 729 416Q708 409 722 429Q761 469 778 498Q794 517 811 502Q860 463 885 349Q894 253 915 228Q925 216 920 208Q913 198 867 179Q849 172 833 184Q817 194 756 211Q695 229 641 235Q626 236 624 244Q623 251 644 260Q665 273 682 265Q689 262 700 260C719 254 719 254 728 251Z"/>
<path id="z39581d8" d="M700 260Q715 309 666 405Q644 448 612 493Q608 497 608 502Q608 506 613 505Q658 493 742 334Q742 328 760 296Q764 287 757 277Q745 259 728 251C720 246 698 250 700 260Z"/>
<path id="z39581d9" d="M500 574Q488 570 473 567Q460 563 457 568Q450 574 458 590Q489 672 503 801Q504 841 524 868Q540 890 547 875Q551 862 553 842C552 821 552 821 552 811Q528 649 526 611C526 596 514 580 500 574Z"/>
<path id="z39581d10" d="M759 825Q768 847 786 889Q793 905 803 904Q816 903 826 879Q853 827 874 662Q880 619 901 592Q917 576 906 563Q887 544 845 523Q829 513 799 524Q651 573 500 574C485 574 511 611 526 611Q530 611 537 610Q582 600 639 591C664 586 664 586 676 584Q722 575 779 567Q804 563 816 575Q837 611 799 786Q798 802 791 804Q787 805 776 800C767 796 755 816 759 825Z"/>
<path id="z39581d11" d="M694 705Q731 698 766 695Q788 691 781 679Q771 666 747 660Q728 657 697 664C665 672 665 672 649 676Q606 686 567 696Q551 699 570 714Q577 718 649 711C679 707 679 707 694 705Z"/>
<path id="z39581d12" d="M689 791Q690 745 694 705C696 678 696 678 697 664Q698 654 699 646Q699 636 700 628Q707 612 699 604Q687 592 676 584C666 576 637 579 639 591Q645 613 649 676C649 699 649 699 649 711Q649 745 649 798C649 812 689 805 689 791Z"/>
<path id="z39581d13" d="M553 842Q559 843 567 842Q630 830 759 825C769 825 784 806 776 800Q769 794 766 793C762 790 762 790 760 788Q741 775 689 791C662 796 662 796 649 798Q597 804 552 811C542 813 543 842 553 842Z"/>
<defs>
	<clipPath id="z39581c1"><use xlink:href="#z39581d1"/></clipPath>
	<clipPath id="z39581c2"><use xlink:href="#z39581d2"/></clipPath>
	<clipPath id="z39581c3"><use xlink:href="#z39581d3"/></clipPath>
	<clipPath id="z39581c4"><use xlink:href="#z39581d4"/></clipPath>
	<clipPath id="z39581c5"><use xlink:href="#z39581d5"/></clipPath>
	<clipPath id="z39581c6"><use xlink:href="#z39581d6"/></clipPath>
	<clipPath id="z39581c7"><use xlink:href="#z39581d7"/></clipPath>
	<clipPath id="z39581c8"><use xlink:href="#z39581d8"/></clipPath>
	<clipPath id="z39581c9"><use xlink:href="#z39581d9"/></clipPath>
	<clipPath id="z39581c10"><use xlink:href="#z39581d10"/></clipPath>
	<clipPath id="z39581c11"><use xlink:href="#z39581d11"/></clipPath>
	<clipPath id="z39581c12"><use xlink:href="#z39581d12"/></clipPath>
	<clipPath id="z39581c13"><use xlink:href="#z39581d13"/></clipPath>
</defs>
<path style="--d:1s;" pathLength="3333" clip-path="url(#z39581c1)" d="M140 204L332 167L390 204L330 497"/>
<path style="--d:2s;" pathLength="3333" clip-path="url(#z39581c2)" d="M168 284L201 319L185 546L367 507L421 541L344 823L299 845L226 785"/>
<path style="--d:3s;" pathLength="3333" clip-path="url(#z39581c3)" d="M40 708L108 722L311 618"/>
<path style="--d:4s;" pathLength="3333" clip-path="url(#z39581c4)" d="M583 139L603 184L503 265"/>
<path style="--d:5s;" pathLength="3333" clip-path="url(#z39581c5)" d="M448 246L483 286L487 457L601 372"/>
<path style="--d:6s;" pathLength="3333" clip-path="url(#z39581c6)" d="M579 308L635 407"/>
<path style="--d:7s;" pathLength="3333" clip-path="url(#z39581c7)" d="M632 246L834 204L881 223L820 446L788 470L725 419"/>
<path style="--d:8s;" pathLength="3333" clip-path="url(#z39581c8)" d="M705 264L731 302L616 498"/>
<path style="--d:9s;" pathLength="3333" clip-path="url(#z39581c9)" d="M462 576L498 620L536 876"/>
<path style="--d:10s;" pathLength="3333" clip-path="url(#z39581c10)" d="M510 577L547 591L818 544L848 560L866 586L824 800L797 854L764 820"/>
<path style="--d:11s;" pathLength="3333" clip-path="url(#z39581c11)" d="M567 703L775 684"/>
<path style="--d:12s;" pathLength="3333" clip-path="url(#z39581c12)" d="M648 598L675 629L660 794"/>
<path style="--d:13s;" pathLength="3333" clip-path="url(#z39581c13)" d="M559 834L768 801"/>
</svg>