<!--
AnimCJK 2016-2025 Copyright FM-SH - https://github.com/parsimonhi/animCJK
Derived from:
    MakeMeAHanzi project - https://github.com/skishore/makemeahanzi
    Arphic PL KaitiM GB font
    Arphic PL UKai font
You can redistribute and/or modify this file under the terms of the Arphic Public License
as published by Arphic Technology Co., Ltd.
You should have received a copy of this license along with this file.
If not, see http://ftp.gnu.org/non-gnu/chinese-fonts-truetype/LICENSE.
-->
<svg id="z39636" class="acjk" version="1.1" viewBox="0 0 1024 1024" xmlns="http://www.w3.org/2000/svg" xmlns:xlink="http://www.w3.org/1999/xlink">
<style>
<![CDATA[
@keyframes zk {
	to {
		stroke-dashoffset:0;
	}
}
svg.acjk path[clip-path] {
	--t:0.8s;
	animation:zk var(--t) linear forwards var(--d);
	stroke-dasharray:3337;
	stroke-dashoffset:3339;
	stroke-width:128;
	stroke-linecap:round;
	fill:none;
	stroke:#000;
}
svg.acjk path[id] {fill:#ccc;}
]]>
</style>
<path id="z39636d1" d="M199 175Q186 165 169 161Q157 157 150 162Q144 168 150 180Q166 208 173 241Q179 272 192 407C192 418 225 411 225 400Q221 345 220 303C220 284 220 284 220 275Q220 226 221 212Q221 205 220 200C218 189 208 182 199 175Z"/>
<path id="z39636d2" d="M397 368Q410 233 450 192Q463 176 450 161Q386 116 335 141Q281 159 199 175C188 177 209 202 220 200Q229 197 345 175Q360 172 365 178Q380 190 378 216Q369 306 353 376C350 391 397 383 397 368Z"/>
<path id="z39636d3" d="M311 384Q317 309 335 286Q348 264 329 255Q313 249 289 240Q277 236 239 264Q230 268 220 275C213 281 211 306 220 303Q230 300 243 294Q256 290 267 288Q274 287 276 289Q283 293 280 320Q277 351 273 391C271 404 311 397 311 384Z"/>
<path id="z39636d4" d="M136 417Q136 402 114 388Q98 378 98 399Q105 429 67 476Q55 492 79 538Q92 557 106 534Q112 521 133 442C135 434 138 425 136 417Z"/>
<path id="z39636d5" d="M133 442Q148 448 185 437Q257 410 376 396Q389 393 395 395Q410 404 408 410Q409 413 407 422Q392 468 397 471Q401 474 413 464Q447 437 476 427Q501 417 499 412Q498 405 445 370Q424 357 397 368C368 373 368 373 353 376Q337 377 322 382Q316 382 311 384C286 389 286 389 273 391Q249 394 225 400C203 405 203 405 192 407Q191 406 189 407Q161 411 136 417C128 419 125 440 133 442Z"/>
<path id="z39636d6" d="M217 687Q218 653 222 627C223 612 223 612 224 604Q228 549 232 531C233 522 232 511 226 505Q223 501 219 499Q195 486 180 486Q168 489 173 499Q212 589 166 761Q142 819 144 831Q145 855 158 872Q164 884 173 879Q203 855 215 711C216 695 216 695 217 687Z"/>
<path id="z39636d7" d="M232 531Q238 531 318 512Q336 508 340 517Q344 526 345 542Q355 690 352 780Q351 805 344 815Q340 821 322 816Q300 812 277 809Q259 805 261 812Q310 851 338 880Q350 896 363 900Q370 903 377 894Q410 855 409 806Q385 560 405 527Q415 511 405 501Q387 485 356 473Q338 464 292 490Q244 502 226 505C217 507 223 533 232 531Z"/>
<path id="z39636d8" d="M222 627Q226 627 231 627Q276 620 309 617Q328 613 321 602Q311 590 291 588Q243 585 224 604C219 609 214 627 222 627Z"/>
<path id="z39636d9" d="M215 711Q216 711 221 711Q273 702 313 697Q332 693 325 682Q315 670 295 668Q267 665 217 687C210 690 207 711 215 711Z"/>
<path id="z39636d10" d="M516 243C509 240 495 237 476 233C469 231 466 231 464 235C461 237 461 243 466 252C485 292 502 346 514 413C517 433 523 450 535 463C550 479 553 469 555 454C555 447 558 446 555 434C544 394 525 292 524 275C522 264 526 247 516 243Z"/>
<path id="z39636d11" d="M745 427C753 443 763 453 773 458C779 462 787 459 797 447C807 433 821 387 845 310C850 291 861 273 877 259C884 251 886 244 879 235C870 224 853 209 827 193C815 185 804 186 795 189C770 194 741 199 730 202C703 207 703 207 690 210C668 214 643 218 620 223C594 228 594 228 581 231C556 236 536 239 516 243C505 245 514 279 524 275C542 269 560 265 584 260C609 255 609 255 621 252C641 247 664 244 688 240C714 235 714 235 727 233C757 227 778 224 792 235C800 241 802 250 800 262C779 348 763 395 751 401C745 407 741 419 745 427Z"/>
<path id="z39636d12" d="M715 333C725 331 735 329 745 328C757 326 762 320 757 314C747 303 732 299 719 299C706 298 694 300 683 304C668 308 643 316 624 321C602 326 602 326 591 329C579 331 568 335 558 338C549 340 550 345 561 353C572 361 582 358 593 356C614 352 614 352 625 350C643 346 661 341 679 339C703 335 703 335 715 333Z"/>
<path id="z39636d13" d="M620 223C619 199 621 183 622 177C623 165 619 155 613 150C601 139 586 133 572 129C565 126 559 126 554 129C549 131 549 137 553 146C563 166 577 194 581 231C583 250 583 250 584 260C585 277 588 300 591 329C592 347 592 347 593 356C594 375 595 399 597 425C597 436 629 429 629 418C627 393 625 371 625 350C624 331 624 331 624 321C622 288 621 265 621 252C620 233 620 233 620 223Z"/>
<path id="z39636d14" d="M730 202C731 187 736 159 751 116C752 110 750 103 740 96C722 84 706 78 695 75C686 72 680 73 676 77C671 81 670 87 675 95C697 133 692 170 690 209C689 230 689 230 688 240C687 251 684 294 683 304C680 327 680 327 679 339C677 352 674 398 673 408C673 419 704 412 706 401C708 378 712 355 715 333C718 310 718 310 719 299C720 287 725 243 727 233C729 212 729 212 730 202Z"/>
<path id="z39636d15" d="M555 454C575 451 687 434 745 427C754 426 760 403 751 401C735 396 718 398 706 401C684 406 684 406 673 408C658 411 643 414 629 418C608 423 608 423 597 425C582 428 568 430 555 434C549 436 548 455 555 454Z"/>
<path id="z39636d16" d="M541 509C520 510 516 519 531 528C554 542 588 544 630 538C664 532 701 526 740 521C758 518 770 515 774 512C778 508 780 503 778 498C774 491 764 484 748 480C731 475 714 477 696 483C673 490 650 495 627 500C600 504 571 506 541 509Z"/>
<path id="z39636d17" d="M551 594C541 589 529 587 511 585C504 584 500 583 498 587C495 591 496 597 501 606C515 630 528 663 538 704C540 716 546 726 554 735C569 751 574 744 575 725C575 715 574 705 572 696C566 672 561 636 560 622C558 612 560 598 551 594Z"/>
<path id="z39636d18" d="M766 676C780 646 795 628 808 618C819 609 819 597 811 589C802 580 783 570 756 556C747 551 737 551 725 556C671 574 613 586 551 594C541 596 550 624 560 622C636 610 687 605 711 599C756 588 735 637 726 670C723 683 761 689 766 676Z"/>
<path id="z39636d19" d="M742 709C753 708 785 708 787 698C787 693 780 686 766 676C755 668 739 667 726 670C674 678 619 690 572 696C562 698 565 725 575 725C591 725 676 714 718 711C734 710 734 710 742 709Z"/>
<path id="z39636d20" d="M540 788C567 823 582 842 588 843C592 843 598 841 602 835C605 828 605 817 605 803C604 792 597 783 585 775C554 755 535 748 528 750C525 750 523 754 523 761C523 767 530 775 540 788Z"/>
<path id="z39636d21" d="M716 839C739 806 752 786 773 766C780 758 783 753 780 747C771 730 759 717 742 709C735 706 718 703 718 711C721 757 694 813 682 844C678 855 709 848 716 839Z"/>
<path id="z39636d22" d="M682 844C604 855 519 861 452 868C439 869 436 875 446 886C464 905 486 910 508 905C617 878 739 873 873 883C880 883 893 883 898 876C901 869 898 860 888 852C854 824 821 819 788 827C767 831 743 834 716 839C693 842 693 842 682 844Z"/>
<defs>
	<clipPath id="z39636c1"><use xlink:href="#z39636d1"/></clipPath>
	<clipPath id="z39636c2"><use xlink:href="#z39636d2"/></clipPath>
	<clipPath id="z39636c3"><use xlink:href="#z39636d3"/></clipPath>
	<clipPath id="z39636c4"><use xlink:href="#z39636d4"/></clipPath>
	<clipPath id="z39636c5"><use xlink:href="#z39636d5"/></clipPath>
	<clipPath id="z39636c6"><use xlink:href="#z39636d6"/></clipPath>
	<clipPath id="z39636c7"><use xlink:href="#z39636d7"/></clipPath>
	<clipPath id="z39636c8"><use xlink:href="#z39636d8"/></clipPath>
	<clipPath id="z39636c9"><use xlink:href="#z39636d9"/></clipPath>
	<clipPath id="z39636c10"><use xlink:href="#z39636d10"/></clipPath>
	<clipPath id="z39636c11"><use xlink:href="#z39636d11"/></clipPath>
	<clipPath id="z39636c12"><use xlink:href="#z39636d12"/></clipPath>
	<clipPath id="z39636c13"><use xlink:href="#z39636d13"/></clipPath>
	<clipPath id="z39636c14"><use xlink:href="#z39636d14"/></clipPath>
	<clipPath id="z39636c15"><use xlink:href="#z39636d15"/></clipPath>
	<clipPath id="z39636c16"><use xlink:href="#z39636d16"/></clipPath>
	<clipPath id="z39636c17"><use xlink:href="#z39636d17"/></clipPath>
	<clipPath id="z39636c18"><use xlink:href="#z39636d18"/></clipPath>
	<clipPath id="z39636c19"><use xlink:href="#z39636d19"/></clipPath>
	<clipPath id="z39636c20"><use xlink:href="#z39636d20"/></clipPath>
	<clipPath id="z39636c21"><use xlink:href="#z39636d21"/></clipPath>
	<clipPath id="z39636c22"><use xlink:href="#z39636d22"/></clipPath>
</defs>
<path style="--d:1s;" pathLength="3333" clip-path="url(#z39636c1)" d="M154 167L193 210L202 409"/>
<path style="--d:2s;" pathLength="3333" clip-path="url(#z39636c2)" d="M204 178L362 154L414 181L366 381"/>
<path style="--d:3s;" pathLength="3333" clip-path="url(#z39636c3)" d="M219 295L276 265L308 280L284 392"/>
<path style="--d:4s;" pathLength="3333" clip-path="url(#z39636c4)" d="M107 391L91 539"/>
<path style="--d:5s;" pathLength="3333" clip-path="url(#z39636c5)" d="M133 433L412 381L452 419L403 463"/>
<path style="--d:6s;" pathLength="3333" clip-path="url(#z39636c6)" d="M179 494L207 522L208 588L168 874"/>
<path style="--d:7s;" pathLength="3333" clip-path="url(#z39636c7)" d="M225 518L326 492L375 515L374 830L350 859L271 813"/>
<path style="--d:8s;" pathLength="3333" clip-path="url(#z39636c8)" d="M223 619L318 606"/>
<path style="--d:9s;" pathLength="3333" clip-path="url(#z39636c9)" d="M219 702L318 684"/>
<path style="--d:10s;" pathLength="3333" clip-path="url(#z39636c10)" d="M470 238L498 261L548 461"/>
<path style="--d:11s;" pathLength="3333" clip-path="url(#z39636c11)" d="M515 257L769 210L818 220L841 254L773 455"/>
<path style="--d:12s;" pathLength="3333" clip-path="url(#z39636c12)" d="M561 344L752 319"/>
<path style="--d:13s;" pathLength="3333" clip-path="url(#z39636c13)" d="M559 135L598 186L611 426"/>
<path style="--d:14s;" pathLength="3333" clip-path="url(#z39636c14)" d="M680 84L719 123L682 410"/>
<path style="--d:15s;" pathLength="3333" clip-path="url(#z39636c15)" d="M553 445L749 415"/>
<path style="--d:16s;" pathLength="3333" clip-path="url(#z39636c16)" d="M533 519L773 501"/>
<path style="--d:17s;" pathLength="3333" clip-path="url(#z39636c17)" d="M503 591L533 612L565 739"/>
<path style="--d:18s;" pathLength="3333" clip-path="url(#z39636c18)" d="M553 599L738 576L777 607L743 680"/>
<path style="--d:19s;" pathLength="3333" clip-path="url(#z39636c19)" d="M570 711L778 694"/>
<path style="--d:20s;" pathLength="3333" clip-path="url(#z39636c20)" d="M530 755L593 835"/>
<path style="--d:21s;" pathLength="3333" clip-path="url(#z39636c21)" d="M725 713L747 756L688 843"/>
<path style="--d:22s;" pathLength="3333" clip-path="url(#z39636c22)" d="M449 877L803 851L894 869"/>
</svg>