<!--
AnimCJK 2016-2025 Copyright FM-SH - https://github.com/parsimonhi/animCJK
Derived from:
    MakeMeAHanzi project - https://github.com/skishore/makemeahanzi
    Arphic PL KaitiM GB font
    Arphic PL UKai font
You can redistribute and/or modify this file under the terms of the Arphic Public License
as published by Arphic Technology Co., Ltd.
You should have received a copy of this license along with this file.
If not, see http://ftp.gnu.org/non-gnu/chinese-fonts-truetype/LICENSE.
-->
<svg id="z39647" class="acjk" version="1.1" viewBox="0 0 1024 1024" xmlns="http://www.w3.org/2000/svg" xmlns:xlink="http://www.w3.org/1999/xlink">
<style>
<![CDATA[
@keyframes zk {
	to {
		stroke-dashoffset:0;
	}
}
svg.acjk path[clip-path] {
	--t:0.8s;
	animation:zk var(--t) linear forwards var(--d);
	stroke-dasharray:3337;
	stroke-dashoffset:3339;
	stroke-width:128;
	stroke-linecap:round;
	fill:none;
	stroke:#000;
}
svg.acjk path[id] {fill:#ccc;}
]]>
</style>
<path id="z39647d1" d="M308 220C332 224 373 221 429 211C513 195 557 183 563 179C581 159 542 147 532 145C512 140 492 143 473 151C448 160 422 166 395 173C360 181 315 188 290 190C278 190 297 218 308 220Z"/>
<path id="z39647d2" d="M313 537C311 502 309 470 308 442C307 427 307 427 307 420C305 388 304 356 304 328C304 315 304 315 304 308C304 279 306 250 308 220C308 208 300 196 290 190C275 179 259 171 244 166C233 162 225 161 220 167C215 171 214 179 219 189C234 221 247 253 253 288C258 322 263 408 271 545C271 559 313 551 313 537Z"/>
<path id="z39647d3" d="M304 328C326 340 359 340 403 330C427 324 451 318 477 314C489 311 497 308 500 306C504 301 506 296 503 291C498 284 487 278 469 275C450 271 418 281 372 295C346 302 323 301 304 308C298 310 298 325 304 328Z"/>
<path id="z39647d4" d="M308 442C330 450 370 451 427 440C477 429 502 422 503 422C509 417 510 412 507 407C502 400 491 393 474 390C456 386 415 398 374 409C343 416 323 417 307 420C300 421 301 439 308 442Z"/>
<path id="z39647d5" d="M314 576C341 568 414 552 536 537C546 535 552 531 553 527C553 518 548 510 537 505C519 496 502 494 488 498C416 514 357 528 313 537C285 542 285 542 271 545C213 556 155 564 97 570C68 572 81 592 93 601C119 619 146 624 173 616C203 606 232 597 260 590C296 581 296 581 314 576Z"/>
<path id="z39647d6" d="M468 703C399 719 330 735 262 753C248 756 248 754 255 745C299 677 329 634 347 616C357 605 358 596 351 590C344 583 332 578 314 576C296 572 257 572 260 590C271 644 217 726 159 771C133 786 128 805 145 831C145 831 145 832 147 834C155 846 164 853 174 856C178 857 185 857 192 852C247 810 344 765 480 721C487 718 475 702 468 703Z"/>
<path id="z39647d7" d="M480 721C507 761 520 785 530 789C534 790 540 789 545 783C550 776 553 764 554 747C555 721 523 685 461 640C454 635 448 633 444 634C441 634 433 639 437 646C437 646 456 685 468 703C476 715 476 715 480 721Z"/>
<path id="z39647d8" d="M782 145C784 180 754 231 688 294C652 324 617 351 587 372C581 375 579 380 588 381C649 383 735 326 843 216C848 210 851 205 856 204C861 201 864 196 864 189C863 182 860 174 853 165C844 154 833 146 822 141C809 134 798 130 791 131C784 131 781 136 782 145Z"/>
<path id="z39647d9" d="M772 368C773 404 743 450 676 507C657 522 626 544 583 573C577 576 576 579 584 581C642 579 686 546 732 516C756 500 787 472 825 434C829 429 833 425 837 424C841 421 844 416 845 410C845 404 842 396 836 388C818 365 799 354 780 355C775 355 771 359 772 368Z"/>
<path id="z39647d10" d="M804 545C806 602 756 681 652 777C590 829 521 877 467 912C460 915 459 920 468 921C505 923 571 893 659 830C721 784 786 713 861 626C869 615 876 608 881 606C886 602 889 598 889 590C888 583 885 575 878 566C856 539 834 528 813 531C806 531 803 536 804 545Z"/>
<defs>
	<clipPath id="z39647c1"><use xlink:href="#z39647d1"/></clipPath>
	<clipPath id="z39647c2"><use xlink:href="#z39647d2"/></clipPath>
	<clipPath id="z39647c3"><use xlink:href="#z39647d3"/></clipPath>
	<clipPath id="z39647c4"><use xlink:href="#z39647d4"/></clipPath>
	<clipPath id="z39647c5"><use xlink:href="#z39647d5"/></clipPath>
	<clipPath id="z39647c6"><use xlink:href="#z39647d6"/></clipPath>
	<clipPath id="z39647c7"><use xlink:href="#z39647d7"/></clipPath>
	<clipPath id="z39647c8"><use xlink:href="#z39647d8"/></clipPath>
	<clipPath id="z39647c9"><use xlink:href="#z39647d9"/></clipPath>
	<clipPath id="z39647c10"><use xlink:href="#z39647d10"/></clipPath>
</defs>
<path style="--d:1s;" pathLength="3333" clip-path="url(#z39647c1)" d="M295 195L560 168"/>
<path style="--d:2s;" pathLength="3333" clip-path="url(#z39647c2)" d="M221 171L275 233L290 549"/>
<path style="--d:3s;" pathLength="3333" clip-path="url(#z39647c3)" d="M303 314L500 295"/>
<path style="--d:4s;" pathLength="3333" clip-path="url(#z39647c4)" d="M307 427L503 409"/>
<path style="--d:5s;" pathLength="3333" clip-path="url(#z39647c5)" d="M84 580L149 592L546 523"/>
<path style="--d:6s;" pathLength="3333" clip-path="url(#z39647c6)" d="M266 589L305 619L192 772L202 811L476 712"/>
<path style="--d:7s;" pathLength="3333" clip-path="url(#z39647c7)" d="M444 641L540 784"/>
<path style="--d:8s;" pathLength="3333" clip-path="url(#z39647c8)" d="M789 140L818 190L794 219L707 307L591 375"/>
<path style="--d:9s;" pathLength="3333" clip-path="url(#z39647c9)" d="M780 363L804 409L762 458L586 576"/>
<path style="--d:10s;" pathLength="3333" clip-path="url(#z39647c10)" d="M811 540L843 591L754 708L620 831L471 914"/>
</svg>