<!--
AnimCJK 2016-2019 Copyright Francois Mizessyn - https://github.com/parsimonhi/animCJK
Derived from:
    MakeMeAHanzi project - https://github.com/skishore/makemeahanzi
    Arphic PL KaitiM GB font
    Arphic PL UKai font
You can redistribute and/or modify this file under the terms of the Arphic Public License
as published by Arphic Technology Co., Ltd.
You should have received a copy of this license along with this file.
If not, see http://ftp.gnu.org/non-gnu/chinese-fonts-truetype/LICENSE.
-->
<svg id="z39737" class="acjk" version="1.1" viewBox="0 0 1024 1024" xmlns="http://www.w3.org/2000/svg" xmlns:xlink="http://www.w3.org/1999/xlink">
<style>
<![CDATA[
@keyframes zk {
	to {
		stroke-dashoffset:0;
	}
}
svg.acjk path[clip-path] {
	--t:0.8s;
	animation:zk var(--t) linear forwards var(--d);
	stroke-dasharray:3337;
	stroke-dashoffset:3339;
	stroke-width:128;
	stroke-linecap:round;
	fill:none;
	stroke:#000;
}
svg.acjk path[id] {fill:#ccc;}
]]>
</style>
<path id="z39737d1" d="M362 219C418 205 445 191 447 190C450 186 451 181 449 177C445 171 435 166 419 164C398 161 381 169 363 177C336 188 336 188 322 193C304 199 261 207 234 213C214 216 212 224 227 231C250 242 277 243 304 234C309 232 314 230 322 229C349 222 349 222 362 219Z"/>
<path id="z39737d2" d="M356 302C382 295 412 289 444 282C453 280 457 277 458 273C458 266 453 261 443 256C428 251 415 250 403 254C386 259 371 263 358 268C332 275 332 275 319 278C247 298 195 309 163 314C156 315 152 318 150 322C150 327 153 333 162 339C180 351 204 352 233 344C264 331 291 321 316 315C343 306 343 306 356 302Z"/>
<path id="z39737d3" d="M351 335C353 325 355 314 356 302C357 279 357 279 358 268C358 252 361 236 362 219C363 191 363 191 363 177C363 159 369 149 375 141C378 136 378 128 372 123C363 115 350 108 335 104C320 100 310 101 305 105C300 109 300 113 304 121C317 147 322 174 322 193C322 217 322 217 322 229C322 245 320 260 319 278C317 303 317 303 316 315C312 359 282 426 175 482C168 485 165 490 165 492C165 494 168 495 176 495C188 494 204 490 218 485C288 455 333 407 345 360C349 343 349 343 351 335Z"/>
<path id="z39737d4" d="M345 360C388 404 408 418 415 419C415 419 415 419 416 419C421 420 425 417 428 411C430 405 435 393 428 382C415 362 404 353 352 335C351 335 351 335 351 335C343 333 339 354 345 360Z"/>
<path id="z39737d5" d="M511 142C506 138 498 134 488 131C483 129 478 129 473 131C469 133 469 137 473 143C487 170 491 207 491 245C491 260 489 279 486 292C479 320 486 336 507 358C512 363 523 351 524 344C524 340 526 336 526 331C527 317 527 317 527 310C527 303 526 289 525 281C524 266 524 266 524 258C524 232 525 238 524 219C523 206 523 206 523 200C522 190 524 175 524 163C524 155 518 147 511 142Z"/>
<path id="z39737d6" d="M660 315C668 329 677 342 686 355C694 368 701 375 706 373C711 373 717 365 724 350C731 333 733 314 732 293C726 192 726 176 740 151C746 140 747 132 742 125C739 119 722 111 693 103C678 97 666 98 656 104C602 125 554 138 511 142C503 144 516 164 524 163C530 163 564 156 624 142C649 135 665 135 673 144C679 149 682 143 683 165C685 185 684 262 683 281C684 288 683 292 681 296C677 305 654 307 660 315Z"/>
<path id="z39737d7" d="M524 219C527 220 531 219 537 218C577 211 611 205 639 201C652 198 656 194 651 187C645 179 636 174 622 172C603 171 570 180 523 200C517 202 518 219 524 219Z"/>
<path id="z39737d8" d="M525 281C563 275 601 269 639 263C651 261 655 257 651 249C645 241 636 236 622 234C601 232 568 240 524 258C517 261 517 283 525 281Z"/>
<path id="z39737d9" d="M636 318C643 317 651 316 660 315C669 313 689 302 681 296C675 291 668 287 659 286C646 284 605 292 527 310C520 311 519 331 526 331C530 332 535 331 539 331C559 326 580 324 599 322C624 319 624 319 636 318Z"/>
<path id="z39737d10" d="M507 358C511 398 508 388 422 451C418 454 417 459 421 459C465 453 519 429 557 390C586 359 549 351 524 344C517 342 507 351 507 358Z"/>
<path id="z39737d11" d="M599 322C608 341 611 353 610 379C609 404 610 424 630 448C643 463 662 475 685 482C736 497 832 495 888 452C898 445 900 435 894 422C886 405 879 391 874 374C871 366 871 360 868 357C865 355 862 359 860 368C852 398 843 421 825 432C804 445 778 447 731 445C693 443 668 433 655 409C642 387 648 376 655 349C658 338 651 327 636 318C625 312 594 310 599 322Z"/>
<path id="z39737d12" d="M377 492C358 494 356 500 370 509C390 521 414 520 443 514C483 504 535 494 577 484C595 479 606 475 609 473C613 468 614 467 612 463C608 457 600 452 585 449C570 446 555 447 540 454C528 459 496 469 482 473C455 479 407 488 377 492Z"/>
<path id="z39737d13" d="M340 550C337 552 338 558 343 567C355 585 365 601 377 633C379 638 384 645 390 650C401 658 405 660 408 653C409 649 410 645 410 642C411 635 408 628 407 621C404 603 399 584 397 575C394 561 376 551 362 548C350 544 342 547 340 550Z"/>
<path id="z39737d14" d="M641 592C649 579 663 570 674 562C683 554 685 541 677 534C642 502 607 501 574 511C501 531 425 547 362 548C358 547 397 575 397 575C401 574 406 573 412 572C468 562 522 552 574 542C588 539 597 540 603 546C607 550 603 566 599 590C597 604 633 603 641 592Z"/>
<path id="z39737d15" d="M410 642C414 643 426 643 434 642C516 631 587 622 648 616C660 615 664 611 660 604C656 598 649 595 641 592C628 587 613 588 599 590C556 598 461 612 407 621C400 622 403 641 410 642Z"/>
<path id="z39737d16" d="M262 691C250 679 235 671 220 667C215 665 212 666 210 670C207 674 207 681 209 689C227 725 231 749 218 839C215 853 216 868 222 881C228 894 237 904 248 913C256 919 259 918 264 912C267 907 271 901 274 888C276 877 276 854 276 820C275 758 277 755 279 733C282 718 274 700 262 691Z"/>
<path id="z39737d17" d="M605 677C641 674 681 672 724 672C738 672 748 677 755 686C759 692 758 699 758 710C756 810 755 827 750 841C747 847 742 849 734 848C709 843 683 836 656 831C637 827 633 836 648 847C699 884 738 904 761 932C767 940 775 942 783 935C800 919 813 884 816 810C818 733 821 725 833 708C843 693 845 684 842 679C836 670 817 655 784 632C770 622 759 618 749 623C728 630 701 639 666 642C518 654 407 669 361 676C324 681 291 687 262 691C247 693 264 733 279 733C285 733 292 732 300 730C370 705 461 686 574 679C595 678 595 678 605 677Z"/>
<path id="z39737d18" d="M405 727C425 756 441 763 454 765C460 765 466 762 469 754C470 747 470 742 465 733C454 715 434 712 409 708C404 707 401 709 401 714C400 718 401 722 405 727Z"/>
<path id="z39737d19" d="M571 757C585 740 600 731 618 716C625 709 627 706 624 700C620 693 615 685 605 677C597 671 574 669 574 679C576 691 566 714 555 741C551 749 547 756 546 762C543 770 566 764 571 757Z"/>
<path id="z39737d20" d="M539 801C564 797 626 787 648 786C654 785 661 786 665 778C667 771 658 767 647 760C627 747 605 750 571 757C554 760 554 760 546 762C527 765 482 775 442 781C423 783 404 785 384 788C367 790 364 795 378 805C396 819 419 822 443 817C459 813 477 810 498 807C525 803 525 803 539 801Z"/>
<path id="z39737d21" d="M498 807C498 897 503 919 515 931C519 935 524 932 530 921C540 893 543 873 539 801C539 787 498 793 498 807Z"/>
<defs>
	<clipPath id="z39737c1"><use xlink:href="#z39737d1"/></clipPath>
	<clipPath id="z39737c2"><use xlink:href="#z39737d2"/></clipPath>
	<clipPath id="z39737c3"><use xlink:href="#z39737d3"/></clipPath>
	<clipPath id="z39737c4"><use xlink:href="#z39737d4"/></clipPath>
	<clipPath id="z39737c5"><use xlink:href="#z39737d5"/></clipPath>
	<clipPath id="z39737c6"><use xlink:href="#z39737d6"/></clipPath>
	<clipPath id="z39737c7"><use xlink:href="#z39737d7"/></clipPath>
	<clipPath id="z39737c8"><use xlink:href="#z39737d8"/></clipPath>
	<clipPath id="z39737c9"><use xlink:href="#z39737d9"/></clipPath>
	<clipPath id="z39737c10"><use xlink:href="#z39737d10"/></clipPath>
	<clipPath id="z39737c11"><use xlink:href="#z39737d11"/></clipPath>
	<clipPath id="z39737c12"><use xlink:href="#z39737d12"/></clipPath>
	<clipPath id="z39737c13"><use xlink:href="#z39737d13"/></clipPath>
	<clipPath id="z39737c14"><use xlink:href="#z39737d14"/></clipPath>
	<clipPath id="z39737c15"><use xlink:href="#z39737d15"/></clipPath>
	<clipPath id="z39737c16"><use xlink:href="#z39737d16"/></clipPath>
	<clipPath id="z39737c17"><use xlink:href="#z39737d17"/></clipPath>
	<clipPath id="z39737c18"><use xlink:href="#z39737d18"/></clipPath>
	<clipPath id="z39737c19"><use xlink:href="#z39737d19"/></clipPath>
	<clipPath id="z39737c20"><use xlink:href="#z39737d20"/></clipPath>
	<clipPath id="z39737c21"><use xlink:href="#z39737d21"/></clipPath>
</defs>
<path style="--d:1s;" pathLength="3333" clip-path="url(#z39737c1)" d="M223 222L444 183"/>
<path style="--d:2s;" pathLength="3333" clip-path="url(#z39737c2)" d="M157 323L202 328L453 268"/>
<path style="--d:3s;" pathLength="3333" clip-path="url(#z39737c3)" d="M307 110L347 138L320 370L278 438L171 491"/>
<path style="--d:4s;" pathLength="3333" clip-path="url(#z39737c4)" d="M352 342L422 414"/>
<path style="--d:5s;" pathLength="3333" clip-path="url(#z39737c5)" d="M477 135L503 166L505 352"/>
<path style="--d:6s;" pathLength="3333" clip-path="url(#z39737c6)" d="M517 143L667 119L712 143L692 362"/>
<path style="--d:7s;" pathLength="3333" clip-path="url(#z39737c7)" d="M528 213L648 191"/>
<path style="--d:8s;" pathLength="3333" clip-path="url(#z39737c8)" d="M530 271L648 254"/>
<path style="--d:9s;" pathLength="3333" clip-path="url(#z39737c9)" d="M529 324L676 297"/>
<path style="--d:10s;" pathLength="3333" clip-path="url(#z39737c10)" d="M522 350L539 379L529 391L499 413L424 455"/>
<path style="--d:11s;" pathLength="3333" clip-path="url(#z39737c11)" d="M605 327L631 352L631 404L669 456L771 476L844 451L863 431L867 366"/>
<path style="--d:12s;" pathLength="3333" clip-path="url(#z39737c12)" d="M371 499L608 469"/>
<path style="--d:13s;" pathLength="3333" clip-path="url(#z39737c13)" d="M345 558L378 587L401 653"/>
<path style="--d:14s;" pathLength="3333" clip-path="url(#z39737c14)" d="M378 553L405 560L605 523L643 555L612 590"/>
<path style="--d:15s;" pathLength="3333" clip-path="url(#z39737c15)" d="M414 626L656 608"/>
<path style="--d:16s;" pathLength="3333" clip-path="url(#z39737c16)" d="M218 671L251 739L250 912"/>
<path style="--d:17s;" pathLength="3333" clip-path="url(#z39737c17)" d="M269 692L300 708L758 650L801 692L765 893L650 837"/>
<path style="--d:18s;" pathLength="3333" clip-path="url(#z39737c18)" d="M408 715L463 754"/>
<path style="--d:19s;" pathLength="3333" clip-path="url(#z39737c19)" d="M580 685L594 718L554 755"/>
<path style="--d:20s;" pathLength="3333" clip-path="url(#z39737c20)" d="M376 794L660 775"/>
<path style="--d:21s;" pathLength="3333" clip-path="url(#z39737c21)" d="M533 809L519 925"/>
</svg>