<!--
AnimCJK 2016-2019 Copyright Francois Mizessyn - https://github.com/parsimonhi/animCJK
Derived from:
    MakeMeAHanzi project - https://github.com/skishore/makemeahanzi
    Arphic PL KaitiM GB font
    Arphic PL UKai font
You can redistribute and/or modify this file under the terms of the Arphic Public License
as published by Arphic Technology Co., Ltd.
You should have received a copy of this license along with this file.
If not, see http://ftp.gnu.org/non-gnu/chinese-fonts-truetype/LICENSE.
-->
<svg id="z39730" class="acjk" version="1.1" viewBox="0 0 1024 1024" xmlns="http://www.w3.org/2000/svg" xmlns:xlink="http://www.w3.org/1999/xlink">
<style>
<![CDATA[
@keyframes zk {
	to {
		stroke-dashoffset:0;
	}
}
svg.acjk path[clip-path] {
	--t:0.8s;
	animation:zk var(--t) linear forwards var(--d);
	stroke-dasharray:3337;
	stroke-dashoffset:3339;
	stroke-width:128;
	stroke-linecap:round;
	fill:none;
	stroke:#000;
}
svg.acjk path[id] {fill:#ccc;}
]]>
</style>
<path id="z39730d1" d="M335 143Q298 147 324 166Q361 193 423 179Q534 160 649 139Q701 129 710 121Q720 114 715 104Q708 92 678 84Q647 77 616 88Q556 107 491 122Q419 137 335 143Z"/>
<path id="z39730d2" d="M368 254Q359 250 337 249Q325 246 323 251Q317 258 326 272Q351 315 370 387Q374 409 388 422Q406 441 410 427Q411 420 412 409C409 388 409 388 408 377Q392 302 391 281C391 269 379 258 368 254Z"/>
<path id="z39730d3" d="M638 350Q663 290 690 276Q706 260 694 242Q625 185 572 211Q491 238 368 254C356 256 379 283 391 281Q397 280 406 277Q491 262 573 246Q594 242 603 250Q613 263 588 343C583 359 632 366 638 350Z"/>
<path id="z39730d4" d="M412 409Q415 409 420 408Q492 392 648 380Q658 379 659 371Q659 364 638 350C624 341 605 340 588 343Q488 365 408 377C397 379 401 409 412 409Z"/>
<path id="z39730d5" d="M240 506Q234 499 226 496Q195 483 176 486Q163 492 169 503Q223 599 190 761Q166 831 205 872Q212 885 224 878Q254 851 252 746Q246 592 247 545C247 532 248 517 240 506Z"/>
<path id="z39730d6" d="M608 486Q663 479 746 475Q762 474 768 482Q777 489 778 530Q787 704 767 803Q760 843 725 838Q689 832 657 828Q642 824 642 831Q641 838 653 850Q729 910 750 941Q760 957 771 954Q786 953 799 925Q821 885 829 838Q842 775 848 552Q849 512 861 490Q880 468 864 461Q848 445 807 427Q786 414 728 430Q404 473 380 479Q308 495 240 506C227 508 235 550 247 545Q325 518 562 490Q568 489 578 489C598 487 598 487 608 486Z"/>
<path id="z39730d7" d="M380 579Q422 643 435 646Q442 647 449 639Q456 629 454 605Q451 578 384 542Q374 538 368 538Q364 539 362 550Q363 559 380 579Z"/>
<path id="z39730d8" d="M578 489Q584 513 544 586Q537 601 534 611Q533 621 545 616Q555 613 605 555Q612 545 625 534Q638 527 633 517Q627 504 608 486C601 479 576 479 578 489Z"/>
<path id="z39730d9" d="M528 686Q553 680 670 668Q680 669 689 657Q690 647 668 636Q641 615 581 633Q415 663 332 673Q305 676 326 693Q347 709 390 710Q429 701 477 695C511 689 511 689 528 686Z"/>
<path id="z39730d10" d="M477 695Q471 848 496 874Q506 884 516 862Q537 817 528 686C528 669 477 678 477 695Z"/>
<defs>
	<clipPath id="z39730c1"><use xlink:href="#z39730d1"/></clipPath>
	<clipPath id="z39730c2"><use xlink:href="#z39730d2"/></clipPath>
	<clipPath id="z39730c3"><use xlink:href="#z39730d3"/></clipPath>
	<clipPath id="z39730c4"><use xlink:href="#z39730d4"/></clipPath>
	<clipPath id="z39730c5"><use xlink:href="#z39730d5"/></clipPath>
	<clipPath id="z39730c6"><use xlink:href="#z39730d6"/></clipPath>
	<clipPath id="z39730c7"><use xlink:href="#z39730d7"/></clipPath>
	<clipPath id="z39730c8"><use xlink:href="#z39730d8"/></clipPath>
	<clipPath id="z39730c9"><use xlink:href="#z39730d9"/></clipPath>
	<clipPath id="z39730c10"><use xlink:href="#z39730d10"/></clipPath>
</defs>
<path style="--d:1s;" pathLength="3333" clip-path="url(#z39730c1)" d="M320 152L387 161L710 108"/>
<path style="--d:2s;" pathLength="3333" clip-path="url(#z39730c2)" d="M329 258L367 295L401 427"/>
<path style="--d:3s;" pathLength="3333" clip-path="url(#z39730c3)" d="M375 255L615 226L652 261L605 344"/>
<path style="--d:4s;" pathLength="3333" clip-path="url(#z39730c4)" d="M415 384L652 370"/>
<path style="--d:5s;" pathLength="3333" clip-path="url(#z39730c5)" d="M173 493L211 520L221 567L210 874"/>
<path style="--d:6s;" pathLength="3333" clip-path="url(#z39730c6)" d="M250 538L453 485L796 459L824 496L786 856L750 901L650 834"/>
<path style="--d:7s;" pathLength="3333" clip-path="url(#z39730c7)" d="M369 544L445 639"/>
<path style="--d:8s;" pathLength="3333" clip-path="url(#z39730c8)" d="M585 496L600 531L542 612"/>
<path style="--d:9s;" pathLength="3333" clip-path="url(#z39730c9)" d="M324 679L684 653"/>
<path style="--d:10s;" pathLength="3333" clip-path="url(#z39730c10)" d="M520 695L503 720L500 870"/>
</svg>