<!--
AnimCJK 2016-2017 Copyright Francois Mizessyn, http://gooo.free.fr/animCJK/
Derived from:
    MakeMeAHanzi project - https://github.com/skishore/makemeahanzi
    Arphic PL KaitiM GB - https://apps.ubuntu.com/cat/applications/precise/fonts-arphic-gkai00mp/
    Arphic PL UKai - https://apps.ubuntu.com/cat/applications/fonts-arphic-ukai/
You can redistribute and/or modify this file under the terms of the Arphic Public License
as published by Arphic Technology Co., Ltd.
You should have received a copy of this license (the directory "APL") along with this file;
if not, see http://ftp.gnu.org/non-gnu/chinese-fonts-truetype/LICENSE.
-->
<svg id="z39746" class="acjk" version="1.1" viewBox="0 0 1024 1024" xmlns="http://www.w3.org/2000/svg" xmlns:xlink="http://www.w3.org/1999/xlink">
<style>
<![CDATA[
	@keyframes z39746k {
		from {
			stroke:#c00;
			stroke-dashoffset:3000;
		}
		75% {
			stroke:#c00;
			stroke-dashoffset:0;
		}
		to {
			stroke:#000;
		}
	}
	#z39746 path[clip-path] {
		animation:z39746k 1s linear both;
		stroke-dasharray:3000;
		stroke-width:128;
		stroke-linecap:round;
		fill:none;
	}
	#z39746 path[clip-path="url(#z39746c1)"] {animation-delay:1s;}
	#z39746 path[clip-path="url(#z39746c2)"] {animation-delay:2s;}
	#z39746 path[clip-path="url(#z39746c3)"] {animation-delay:3s;}
	#z39746 path[clip-path="url(#z39746c4)"] {animation-delay:4s;}
	#z39746 path[clip-path="url(#z39746c5)"] {animation-delay:5s;}
	#z39746 path[clip-path="url(#z39746c6)"] {animation-delay:6s;}
	#z39746 path[clip-path="url(#z39746c7)"] {animation-delay:7s;}
	#z39746 path[clip-path="url(#z39746c8)"] {animation-delay:8s;}
	#z39746 path[clip-path="url(#z39746c9)"] {animation-delay:9s;}
	#z39746 path[clip-path="url(#z39746c10)"] {animation-delay:10s;}
	#z39746 path[clip-path="url(#z39746c11)"] {animation-delay:11s;}
	#z39746 path[clip-path="url(#z39746c12)"] {animation-delay:12s;}
	#z39746 path[clip-path="url(#z39746c13)"] {animation-delay:13s;}
	#z39746 path {fill:#ccc;}
]]>
</style>
<g transform="scale(1,-1) translate(0,-900)">
	<path id="z39746d1" d="M174 661Q135 651 166 635Q217 614 271 636Q316 649 362 663Q383 670 386 674Q395 683 389 692Q379 704 348 708Q326 709 238 677Q208 668 174 661Z"/>
	<path id="z39746d2" d="M251 484Q258 493 396 524Q411 527 411 534Q411 547 393 553Q368 563 346 556Q136 492 70 481Q57 480 55 471Q54 461 68 451Q101 432 154 448Q182 461 210 470L251 484Z"/>
	<path id="z39746d3" d="M345 314Q275 295 199 263Q192 259 188 261Q187 264 191 274Q276 412 295 435Q307 445 299 457Q292 467 251 484L210 470Q234 419 169 314Q150 277 105 240Q92 227 97 217Q104 201 130 184Q142 174 154 186Q187 222 352 289Q353 290 357 292L345 314Z"/>
	<path id="z39746d4" d="M357 292Q385 229 400 224Q409 221 417 229Q426 239 429 266Q433 291 407 323Q379 351 346 378Q334 387 329 386Q323 385 320 374Q320 373 345 314L357 292Z"/>
	<path id="z39746d5" d="M546 639Q571 664 589 684Q635 745 668 769Q687 785 672 801Q654 816 623 825Q595 834 581 827Q568 823 576 809Q588 776 546 702Q528 668 507 629L546 639Z"/>
	<path id="z39746d6" d="M457 619Q447 623 422 629Q410 633 407 628Q400 622 408 606Q439 534 452 418Q453 384 473 359Q489 338 495 353Q498 363 499 377L499 404Q498 416 496 429Q477 547 473 586L457 619Z"/>
	<path id="z39746d7" d="M722 411Q723 407 725 403Q731 387 744 389Q757 392 765 406Q778 427 800 524Q815 576 850 609Q869 625 852 641Q833 657 782 682Q767 691 688 670Q664 670 546 639L507 629Q479 625 457 619L473 586Q479 587 485 588Q513 598 559 609L600 618Q730 648 750 637Q760 631 756 596Q737 475 726 443L722 411Z"/>
	<path id="z39746d8" d="M626 500Q665 510 701 516Q723 522 713 533Q703 546 678 549Q660 550 636 542L576 521Q543 511 514 501Q498 497 518 483L574 488L626 500Z"/>
	<path id="z39746d9" d="M608 395Q656 405 722 411L726 443Q725 444 722 446Q706 455 613 428L566 417Q530 411 499 404L499 377Q508 377 560 387L608 395Z"/>
	<path id="z39746d10" d="M603 372Q606 384 608 395L613 428Q619 462 626 493Q626 497 626 500L636 542Q640 557 647 570Q656 588 640 596Q619 611 600 618L559 609Q559 606 562 601Q574 577 576 521L574 488Q574 455 566 417L560 387Q509 174 334 60Q321 50 307 39Q294 30 307 28Q320 28 353 41Q417 72 466 119Q521 168 547 221Q595 339 598 348L603 372Z"/>
	<path id="z39746d11" d="M993 84Q981 114 968 202Q967 217 961 222Q955 225 951 209Q923 115 905 87Q869 48 756 57Q713 61 679 75Q651 91 643 109Q621 163 658 322Q664 350 619 371Q609 375 603 372L598 348Q605 312 603 278Q582 97 612 59Q627 37 687 15Q853 -34 986 45Q1005 58 993 84Z"/>
	<path id="z39746d12" d="M842 223Q793 217 742 205Q736 204 735 205Q734 206 736 213Q790 298 801 314Q810 321 804 331Q798 338 761 353Q748 357 741 353Q732 349 738 333Q759 285 690 208Q680 199 669 189Q659 179 663 172Q667 159 688 146Q697 139 706 148Q727 163 852 205L842 223Z"/>
	<path id="z39746d13" d="M852 205Q870 169 880 164Q887 163 894 169Q901 178 902 198Q905 217 885 240Q836 285 824 286Q820 285 818 276Q817 270 842 223L852 205Z"/>
	<defs>
		<clipPath id="z39746c1"><use xlink:href="#z39746d1"/></clipPath>
		<clipPath id="z39746c2"><use xlink:href="#z39746d2"/></clipPath>
		<clipPath id="z39746c3"><use xlink:href="#z39746d3"/></clipPath>
		<clipPath id="z39746c4"><use xlink:href="#z39746d4"/></clipPath>
		<clipPath id="z39746c5"><use xlink:href="#z39746d5"/></clipPath>
		<clipPath id="z39746c6"><use xlink:href="#z39746d6"/></clipPath>
		<clipPath id="z39746c7"><use xlink:href="#z39746d7"/></clipPath>
		<clipPath id="z39746c8"><use xlink:href="#z39746d8"/></clipPath>
		<clipPath id="z39746c9"><use xlink:href="#z39746d9"/></clipPath>
		<clipPath id="z39746c10"><use xlink:href="#z39746d10"/></clipPath>
		<clipPath id="z39746c11"><use xlink:href="#z39746d11"/></clipPath>
		<clipPath id="z39746c12"><use xlink:href="#z39746d12"/></clipPath>
		<clipPath id="z39746c13"><use xlink:href="#z39746d13"/></clipPath>
	</defs>
	<path pathLength="2999" clip-path="url(#z39746c1)" d="M159 650L386 690"/>
	<path pathLength="2999" clip-path="url(#z39746c2)" d="M61 472L119 466L406 537"/>
	<path pathLength="2999" clip-path="url(#z39746c3)" d="M219 469L259 436L146 237L171 222L351 300"/>
	<path pathLength="2999" clip-path="url(#z39746c4)" d="M330 376L390 294L407 228"/>
	<path pathLength="2999" clip-path="url(#z39746c5)" d="M579 824L625 773L513 636"/>
	<path pathLength="2999" clip-path="url(#z39746c6)" d="M412 620L446 580L483 354"/>
	<path pathLength="2999" clip-path="url(#z39746c7)" d="M465 616L724 660L784 649L808 615L739 395"/>
	<path pathLength="2999" clip-path="url(#z39746c8)" d="M514 493L711 531"/>
	<path pathLength="2999" clip-path="url(#z39746c9)" d="M503 385L723 427"/>
	<path pathLength="2999" clip-path="url(#z39746c10)" d="M567 603L611 569L576 357L528 235L425 108L307 35"/>
	<path pathLength="2999" clip-path="url(#z39746c11)" d="M610 366L630 319L618 110L667 52L815 26L931 58L955 81L959 212"/>
	<path pathLength="2999" clip-path="url(#z39746c12)" d="M743 350L774 314L705 183L844 212"/>
	<path pathLength="2999" clip-path="url(#z39746c13)" d="M826 280L884 171"/>
</g>
</svg>