<!--
AnimCJK 2016-2017 Copyright Francois Mizessyn, http://gooo.free.fr/animCJK/
Derived from:
    MakeMeAHanzi project - https://github.com/skishore/makemeahanzi
    Arphic PL KaitiM GB - https://apps.ubuntu.com/cat/applications/precise/fonts-arphic-gkai00mp/
    Arphic PL UKai - https://apps.ubuntu.com/cat/applications/fonts-arphic-ukai/
You can redistribute and/or modify this file under the terms of the Arphic Public License
as published by Arphic Technology Co., Ltd.
You should have received a copy of this license (the directory "APL") along with this file;
if not, see http://ftp.gnu.org/non-gnu/chinese-fonts-truetype/LICENSE.
-->
<svg id="z40065" class="acjk" version="1.1" viewBox="0 0 1024 1024" xmlns="http://www.w3.org/2000/svg" xmlns:xlink="http://www.w3.org/1999/xlink">
<style>
<![CDATA[
	@keyframes z40065k {
		from {
			stroke:#c00;
			stroke-dashoffset:3000;
		}
		75% {
			stroke:#c00;
			stroke-dashoffset:0;
		}
		to {
			stroke:#000;
		}
	}
	#z40065 path[clip-path] {
		animation:z40065k 1s linear both;
		stroke-dasharray:3000;
		stroke-width:128;
		stroke-linecap:round;
		fill:none;
	}
	#z40065 path[clip-path="url(#z40065c1)"] {animation-delay:1s;}
	#z40065 path[clip-path="url(#z40065c2)"] {animation-delay:2s;}
	#z40065 path[clip-path="url(#z40065c3)"] {animation-delay:3s;}
	#z40065 path[clip-path="url(#z40065c4)"] {animation-delay:4s;}
	#z40065 path[clip-path="url(#z40065c5)"] {animation-delay:5s;}
	#z40065 path[clip-path="url(#z40065c6)"] {animation-delay:6s;}
	#z40065 path[clip-path="url(#z40065c7)"] {animation-delay:7s;}
	#z40065 path[clip-path="url(#z40065c8)"] {animation-delay:8s;}
	#z40065 path[clip-path="url(#z40065c9)"] {animation-delay:9s;}
	#z40065 path[clip-path="url(#z40065c10)"] {animation-delay:10s;}
	#z40065 path[clip-path="url(#z40065c11)"] {animation-delay:11s;}
	#z40065 path[clip-path="url(#z40065c12)"] {animation-delay:12s;}
	#z40065 path {fill:#ccc;}
]]>
</style>
<g transform="scale(1,-1) translate(0,-900)">
	<path id="z40065d1" d="M470 778Q483 791 496 796Q506 803 505 815Q505 825 488 850Q472 871 456 874Q440 877 442 858Q451 816 296 691Q286 685 283 681Q277 672 289 671Q332 671 456 766L470 778Z"/>
	<path id="z40065d2" d="M548 669Q641 745 661 755Q679 764 668 777Q656 790 622 811Q607 818 592 810Q583 806 513 786Q494 782 470 778L456 766Q468 751 524 758Q570 767 573 764Q576 761 571 754Q537 696 517 669Q514 666 512 663L548 669Z"/>
	<path id="z40065d3" d="M329 632Q317 636 289 639Q277 642 275 636Q269 630 278 615Q309 560 333 464Q337 436 356 418Q375 399 378 414Q379 421 380 428L379 451Q378 463 374 476Q352 564 345 598L329 632Z"/>
	<path id="z40065d4" d="M642 452Q646 436 660 437Q673 438 682 453Q692 465 716 527Q734 579 771 608Q790 624 774 640Q758 658 707 685Q694 694 612 678Q594 678 548 669L512 663Q467 657 428 649Q370 639 329 632L345 598Q393 614 478 627L517 633Q652 655 673 643Q682 637 676 610Q658 531 642 480L642 452Z"/>
	<path id="z40065d5" d="M532 540Q574 547 611 551Q632 554 625 565Q615 578 593 583Q572 587 535 577Q534 577 534 576L486 565Q444 556 407 547Q392 544 410 530Q419 523 440 526Q464 530 488 533L532 540Z"/>
	<path id="z40065d6" d="M527 473Q528 509 532 540L534 576Q534 580 535 582Q535 619 522 629Q519 632 517 633L478 627Q482 623 486 565L488 533Q488 506 490 467L527 473Z"/>
	<path id="z40065d7" d="M380 428Q392 425 410 427Q543 443 642 452L642 480Q638 483 632 484Q611 488 527 473L490 467Q432 460 379 451L380 428Z"/>
	<path id="z40065d8" d="M500 346Q552 347 603 352Q739 364 877 347Q899 344 905 353Q912 365 901 377Q873 404 832 423Q819 430 794 422Q749 413 514 387Q460 387 296 367Q229 357 127 358Q114 359 112 348Q112 336 129 322Q145 310 175 298Q185 294 202 301Q218 307 291 317Q384 336 500 346Z"/>
	<path id="z40065d9" d="M392 271Q391 272 390 273Q371 289 347 297Q338 298 333 291Q330 287 336 277Q367 201 340 71Q325 37 332 13Q339 -17 350 -28Q360 -41 369 -28Q378 -18 382 -2L389 29Q392 48 393 67Q393 98 394 129L395 155Q396 216 400 241L392 271Z"/>
	<path id="z40065d10" d="M580 10Q604 -21 622 -52Q629 -68 641 -68Q656 -67 671 -36Q689 0 680 100Q668 238 688 263Q697 276 688 285Q670 303 621 325Q605 334 590 325Q542 304 392 271L400 241Q406 241 572 278Q597 282 609 274Q633 244 617 47Q613 32 600 36L580 10Z"/>
	<path id="z40065d11" d="M394 129Q398 129 405 129Q496 139 562 146Q584 147 577 161Q567 174 544 180Q514 186 395 155L394 129Z"/>
	<path id="z40065d12" d="M382 -2Q389 -3 399 -2Q457 8 580 10L600 36Q594 42 584 49Q577 53 561 54Q560 55 563 54Q564 55 561 54Q554 55 541 52Q457 37 389 29L382 -2Z"/>
	<defs>
		<clipPath id="z40065c1"><use xlink:href="#z40065d1"/></clipPath>
		<clipPath id="z40065c2"><use xlink:href="#z40065d2"/></clipPath>
		<clipPath id="z40065c3"><use xlink:href="#z40065d3"/></clipPath>
		<clipPath id="z40065c4"><use xlink:href="#z40065d4"/></clipPath>
		<clipPath id="z40065c5"><use xlink:href="#z40065d5"/></clipPath>
		<clipPath id="z40065c6"><use xlink:href="#z40065d6"/></clipPath>
		<clipPath id="z40065c7"><use xlink:href="#z40065d7"/></clipPath>
		<clipPath id="z40065c8"><use xlink:href="#z40065d8"/></clipPath>
		<clipPath id="z40065c9"><use xlink:href="#z40065d9"/></clipPath>
		<clipPath id="z40065c10"><use xlink:href="#z40065d10"/></clipPath>
		<clipPath id="z40065c11"><use xlink:href="#z40065d11"/></clipPath>
		<clipPath id="z40065c12"><use xlink:href="#z40065d12"/></clipPath>
	</defs>
	<path pathLength="2999" clip-path="url(#z40065c1)" d="M451 867L468 816L289 679"/>
	<path pathLength="2999" clip-path="url(#z40065c2)" d="M464 765L589 789L622 764L521 667"/>
	<path pathLength="2999" clip-path="url(#z40065c3)" d="M280 633L317 597L368 413"/>
	<path pathLength="2999" clip-path="url(#z40065c4)" d="M337 629L700 658L728 619L658 441"/>
	<path pathLength="2999" clip-path="url(#z40065c5)" d="M408 541L619 565"/>
	<path pathLength="2999" clip-path="url(#z40065c6)" d="M486 626L510 583L505 470"/>
	<path pathLength="2999" clip-path="url(#z40065c7)" d="M387 434L640 470"/>
	<path pathLength="2999" clip-path="url(#z40065c8)" d="M119 345L186 328L815 390L903 364"/>
	<path pathLength="2999" clip-path="url(#z40065c9)" d="M339 289L374 234L357 -28"/>
	<path pathLength="2999" clip-path="url(#z40065c10)" d="M399 266L596 304L646 277L644 7L625 -15L587 6"/>
	<path pathLength="2999" clip-path="url(#z40065c11)" d="M402 137L575 159"/>
	<path pathLength="2999" clip-path="url(#z40065c12)" d="M391 4L594 34"/>
</g>
</svg>