<!--
AnimCJK 2016-2019 Copyright Francois Mizessyn - https://github.com/parsimonhi/animCJK
Derived from:
    MakeMeAHanzi project - https://github.com/skishore/makemeahanzi
    Arphic PL KaitiM GB font
    Arphic PL UKai font
You can redistribute and/or modify this file under the terms of the Arphic Public License
as published by Arphic Technology Co., Ltd.
You should have received a copy of this license along with this file.
If not, see http://ftp.gnu.org/non-gnu/chinese-fonts-truetype/LICENSE.
-->
<svg id="z40074" class="acjk" version="1.1" viewBox="0 0 1024 1024" xmlns="http://www.w3.org/2000/svg" xmlns:xlink="http://www.w3.org/1999/xlink">
<style>
<![CDATA[
@keyframes zk {
	to {
		stroke-dashoffset:0;
	}
}
svg.acjk path[clip-path] {
	--t:0.8s;
	animation:zk var(--t) linear forwards var(--d);
	stroke-dasharray:3337;
	stroke-dashoffset:3339;
	stroke-width:128;
	stroke-linecap:round;
	fill:none;
	stroke:#000;
}
svg.acjk path[id] {fill:#ccc;}
]]>
</style>
<path id="z40074d1" d="M297 220C341 160 363 129 363 127C362 125 362 123 362 122C360 115 351 104 335 90C320 79 307 73 296 72C285 72 282 79 286 93C302 131 254 215 143 347C136 353 132 357 131 361C129 367 132 370 141 369C167 366 213 324 279 243C291 228 291 228 297 220Z"/>
<path id="z40074d2" d="M341 380C411 292 451 243 463 235C473 227 475 220 467 213C458 205 443 195 420 184C414 181 383 191 328 211C326 211 315 214 297 220C288 224 269 241 279 243C289 247 317 243 364 234C368 233 371 233 373 235C375 237 375 241 373 249C351 305 339 328 313 386C309 395 335 388 341 380Z"/>
<path id="z40074d3" d="M175 420C168 417 160 415 150 413C142 410 137 410 135 414C130 418 130 425 136 435C154 479 168 537 178 609C178 629 185 647 197 663C207 677 215 679 219 669C219 665 220 660 222 656C225 648 226 639 224 630C223 621 222 611 221 599C208 516 201 465 200 447C200 435 186 425 175 420Z"/>
<path id="z40074d4" d="M373 630C381 640 389 648 397 652C403 656 411 652 419 640C429 622 441 566 459 473C462 454 472 438 486 423C492 416 493 408 486 400C477 390 460 378 434 364C422 358 412 359 403 363C386 368 357 376 341 380C322 384 322 384 313 386C292 390 198 414 175 420C163 422 189 452 200 447C218 440 242 432 272 426C290 422 290 422 299 420C320 415 343 408 370 404C386 401 398 401 403 407C412 416 415 427 414 438C399 536 386 589 374 599C367 606 367 622 373 630Z"/>
<path id="z40074d5" d="M327 524C343 520 358 517 374 515C386 512 390 507 385 500C378 492 368 487 354 486C347 485 339 486 329 488C299 497 299 497 284 502C265 508 248 513 233 519C224 521 225 527 237 535C237 535 253 534 285 532C313 527 313 527 327 524Z"/>
<path id="z40074d6" d="M322 603C322 574 324 548 327 524C328 500 328 500 329 488C329 478 329 470 331 465C335 455 334 447 329 442C319 432 309 424 299 420C290 417 269 417 272 426C278 442 282 468 284 502C285 522 285 522 285 532C285 554 285 581 286 614C286 627 322 616 322 603Z"/>
<path id="z40074d7" d="M222 656C226 656 232 655 238 654C266 645 311 637 373 630C383 628 383 604 374 599C373 598 372 597 371 597C362 593 346 595 322 603C298 610 298 610 286 614C263 618 242 624 224 630C216 633 213 656 222 656Z"/>
<path id="z40074d8" d="M99 760C90 760 84 764 84 771C82 779 85 787 91 792C105 803 122 816 145 829C151 832 159 830 168 824C186 810 256 777 381 726C397 719 411 710 424 702C432 696 439 691 438 686C437 681 429 680 421 683C242 734 135 760 99 760Z"/>
<path id="z40074d9" d="M580 345Q581 339 587 334Q627 273 670 182Q686 140 704 119Q711 109 706 96Q700 83 671 66Q643 51 625 54Q607 58 618 78Q660 150 483 434Q474 444 473 451Q472 461 484 458Q508 448 569 362C576 351 576 351 580 345Z"/>
<path id="z40074d10" d="M668 375Q667 374 669 374Q904 317 912 311Q919 304 915 295Q908 285 880 278Q850 274 822 285Q771 304 716 319Q655 335 584 344Q581 344 580 345C573 346 563 359 569 362Q576 369 625 380C639 382 655 381 668 375Z"/>
<path id="z40074d11" d="M684 618Q684 567 685 515C685 496 685 496 685 486Q686 434 692 409Q692 393 668 375C656 366 618 368 625 380Q650 416 632 715Q625 808 619 825Q604 862 654 929Q658 935 664 938Q676 939 681 926Q693 893 689 863Q685 748 684 648C684 628 684 628 684 618Z"/>
<path id="z40074d12" d="M685 515Q730 522 848 494Q855 487 851 479Q844 469 817 462Q802 459 727 478Q706 482 685 486C675 488 676 513 685 515Z"/>
<path id="z40074d13" d="M684 648Q742 657 858 630C859 630 859 630 859 630Q866 623 863 615Q856 605 830 597Q817 594 734 612Q710 615 684 618C674 620 674 646 684 648Z"/>
<defs>
	<clipPath id="z40074c1"><use xlink:href="#z40074d1"/></clipPath>
	<clipPath id="z40074c2"><use xlink:href="#z40074d2"/></clipPath>
	<clipPath id="z40074c3"><use xlink:href="#z40074d3"/></clipPath>
	<clipPath id="z40074c4"><use xlink:href="#z40074d4"/></clipPath>
	<clipPath id="z40074c5"><use xlink:href="#z40074d5"/></clipPath>
	<clipPath id="z40074c6"><use xlink:href="#z40074d6"/></clipPath>
	<clipPath id="z40074c7"><use xlink:href="#z40074d7"/></clipPath>
	<clipPath id="z40074c8"><use xlink:href="#z40074d8"/></clipPath>
	<clipPath id="z40074c9"><use xlink:href="#z40074d9"/></clipPath>
	<clipPath id="z40074c10"><use xlink:href="#z40074d10"/></clipPath>
	<clipPath id="z40074c11"><use xlink:href="#z40074d11"/></clipPath>
	<clipPath id="z40074c12"><use xlink:href="#z40074d12"/></clipPath>
	<clipPath id="z40074c13"><use xlink:href="#z40074d13"/></clipPath>
</defs>
<path style="--d:1s;" pathLength="3333" clip-path="url(#z40074c1)" d="M292 78L320 136L229 272L136 362"/>
<path style="--d:2s;" pathLength="3333" clip-path="url(#z40074c2)" d="M289 239L385 211L422 232L323 380"/>
<path style="--d:3s;" pathLength="3333" clip-path="url(#z40074c3)" d="M140 420L175 461L212 669"/>
<path style="--d:4s;" pathLength="3333" clip-path="url(#z40074c4)" d="M182 420L406 382L442 405L396 649"/>
<path style="--d:5s;" pathLength="3333" clip-path="url(#z40074c5)" d="M233 524L378 503"/>
<path style="--d:6s;" pathLength="3333" clip-path="url(#z40074c6)" d="M279 429L307 463L300 609"/>
<path style="--d:7s;" pathLength="3333" clip-path="url(#z40074c7)" d="M227 648L372 611"/>
<path style="--d:8s;" pathLength="3333" clip-path="url(#z40074c8)" d="M90 770L158 790L427 689"/>
<path style="--d:9s;" pathLength="3333" clip-path="url(#z40074c9)" d="M621 59L667 110L593 283L480 452"/>
<path style="--d:10s;" pathLength="3333" clip-path="url(#z40074c10)" d="M578 360L912 300"/>
<path style="--d:11s;" pathLength="3333" clip-path="url(#z40074c11)" d="M633 382L663 413L652 843L668 933"/>
<path style="--d:12s;" pathLength="3333" clip-path="url(#z40074c12)" d="M690 508L845 481"/>
<path style="--d:13s;" pathLength="3333" clip-path="url(#z40074c13)" d="M688 641L856 620"/>
</svg>