<!--
AnimCJK 2016-2018 Copyright Francois Mizessyn, http://gooo.free.fr/animCJK/
Derived from:
    MakeMeAHanzi project - https://github.com/skishore/makemeahanzi
    Arphic PL KaitiM GB - https://apps.ubuntu.com/cat/applications/precise/fonts-arphic-gkai00mp/
    Arphic PL UKai - https://apps.ubuntu.com/cat/applications/fonts-arphic-ukai/
You can redistribute and/or modify this file under the terms of the Arphic Public License
as published by Arphic Technology Co., Ltd.
You should have received a copy of this license (the directory "APL") along with this file;
if not, see http://ftp.gnu.org/non-gnu/chinese-fonts-truetype/LICENSE.
-->
<svg id="z40081" class="acjk" version="1.1" viewBox="0 0 1024 1024" xmlns="http://www.w3.org/2000/svg" xmlns:xlink="http://www.w3.org/1999/xlink">
<style>
<![CDATA[
@keyframes z40081k {
	from {
		stroke:#ccc;
		stroke-dashoffset:3334;
	}
	1% {
		stroke:#c00;
		stroke-dashoffset:3334;
	}
	75% {
		stroke:#c00;
		stroke-dashoffset:0;
	}
	to {
		stroke:#000;
	}
}
#z40081 path[clip-path] {
	animation:z40081k 1s linear both;
	stroke-dasharray:3334;
	stroke-width:128;
	stroke-linecap:round;
	fill:none;
}
#z40081 path[clip-path="url(#z40081c1)"] {animation-delay:1s;}
#z40081 path[clip-path="url(#z40081c2)"] {animation-delay:2s;}
#z40081 path[clip-path="url(#z40081c3)"] {animation-delay:3s;}
#z40081 path[clip-path="url(#z40081c4)"] {animation-delay:4s;}
#z40081 path[clip-path="url(#z40081c5)"] {animation-delay:5s;}
#z40081 path[clip-path="url(#z40081c6)"] {animation-delay:6s;}
#z40081 path[clip-path="url(#z40081c7)"] {animation-delay:7s;}
#z40081 path[clip-path="url(#z40081c8)"] {animation-delay:8s;}
#z40081 path[clip-path="url(#z40081c9)"] {animation-delay:9s;}
#z40081 path[clip-path="url(#z40081c10)"] {animation-delay:10s;}
#z40081 path[clip-path="url(#z40081c11)"] {animation-delay:11s;}
#z40081 path[clip-path="url(#z40081c12)"] {animation-delay:12s;}
#z40081 path[clip-path="url(#z40081c13)"] {animation-delay:13s;}
#z40081 path[clip-path="url(#z40081c14)"] {animation-delay:14s;}
#z40081 path {fill:#ccc;}
]]>
</style>
<path id="z40081d1" d="M297 210Q363 120 363 117Q362 114 362 112Q359 102 335 80Q313 64 296 62Q280 63 286 83Q310 140 143 337Q133 346 131 351Q128 361 141 359Q180 355 279 233L297 210 Z"/>
<path id="z40081d2" d="M339 372Q358 350 391 305Q427 254 463 225Q479 215 467 203Q454 193 420 174Q411 171 328 201Q325 201 297 210L279 233Q295 239 364 224Q371 223 373 225Q377 228 373 239Q340 324 319 364Q315 371 313 377L339 372 Z"/>
<path id="z40081d3" d="M168 408Q161 404 150 403Q138 400 135 405Q128 411 136 426Q166 495 181 605Q182 638 201 661Q217 682 223 667Q226 657 227 645L227 624Q226 611 224 595Q202 465 201 436Q201 435 202 434L168 408 Z"/>
<path id="z40081d4" d="M384 622Q399 643 413 650Q423 657 435 638Q450 610 475 463Q482 436 502 413Q514 403 503 390Q490 375 451 354Q439 348 365 366Q361 366 339 372L313 377Q286 381 259 388Q210 401 168 408L202 434Q233 424 280 414L306 408Q406 386 419 397Q432 413 430 429Q409 577 393 594L384 622 Z"/>
<path id="z40081d5" d="M335 515Q360 508 386 505Q405 501 397 490Q387 478 366 476Q353 475 337 479L292 493Q261 503 233 513Q220 517 237 529Q241 532 293 523L335 515 Z"/>
<path id="z40081d6" d="M330 598Q331 552 335 515L337 479Q337 464 339 455Q345 440 337 432Q321 416 306 408L280 414Q289 444 292 493L293 523Q293 556 294 607L330 598 Z"/>
<path id="z40081d7" d="M227 645Q233 646 241 645Q320 630 384 622L393 594Q392 593 385 591Q343 585 330 598L294 607Q258 614 227 624L227 645 Z"/>
<path id="z40081d8" d="M120 778Q107 779 105 789Q102 802 111 810Q133 826 165 847Q175 851 187 842Q217 820 408 744Q433 734 452 720Q465 713 466 704Q462 698 449 701Q173 779 120 778 Z"/>
<path id="z40081d9" d="M704 364Q800 337 804 335Q813 328 808 319Q801 309 772 302Q726 296 707 314L658 330Q610 342 567 348Q533 355 558 370Q603 391 653 376Q654 375 658 376L704 364 Z"/>
<path id="z40081d10" d="M697 466Q701 414 704 364L707 314Q711 206 731 122Q734 112 714 96Q678 77 654 73Q638 69 630 78Q623 85 631 101Q653 132 653 155Q657 237 658 330L658 376Q657 424 655 475L697 466 Z"/>
<path id="z40081d11" d="M677 508Q743 495 854 491Q899 491 904 482Q908 472 894 460Q843 427 789 445Q750 454 697 466L655 475Q580 488 498 504Q480 507 494 521Q524 543 554 535Q591 523 636 515L677 508 Z"/>
<path id="z40081d12" d="M701 670Q807 646 811 643Q820 636 815 627Q808 617 780 609Q753 603 704 620L651 635Q585 647 537 652Q503 658 527 674Q563 695 634 682Q641 681 651 680L701 670 Z"/>
<path id="z40081d13" d="M695 792Q698 726 701 670L704 620Q705 601 706 584Q710 538 706 532Q691 517 677 508L636 515Q651 545 651 635L651 680Q651 726 651 798L695 792 Z"/>
<path id="z40081d14" d="M651 798Q545 811 421 825Q399 826 415 845Q430 860 448 865Q470 871 487 867Q640 825 885 833Q903 833 921 834Q942 834 947 825Q953 813 936 799Q881 756 818 771Q766 780 695 792L651 798 Z"/>
<defs>
	<clipPath id="z40081c1"><use xlink:href="#z40081d1"/></clipPath>
	<clipPath id="z40081c2"><use xlink:href="#z40081d2"/></clipPath>
	<clipPath id="z40081c3"><use xlink:href="#z40081d3"/></clipPath>
	<clipPath id="z40081c4"><use xlink:href="#z40081d4"/></clipPath>
	<clipPath id="z40081c5"><use xlink:href="#z40081d5"/></clipPath>
	<clipPath id="z40081c6"><use xlink:href="#z40081d6"/></clipPath>
	<clipPath id="z40081c7"><use xlink:href="#z40081d7"/></clipPath>
	<clipPath id="z40081c8"><use xlink:href="#z40081d8"/></clipPath>
	<clipPath id="z40081c9"><use xlink:href="#z40081d9"/></clipPath>
	<clipPath id="z40081c10"><use xlink:href="#z40081d10"/></clipPath>
	<clipPath id="z40081c11"><use xlink:href="#z40081d11"/></clipPath>
	<clipPath id="z40081c12"><use xlink:href="#z40081d12"/></clipPath>
	<clipPath id="z40081c13"><use xlink:href="#z40081d13"/></clipPath>
	<clipPath id="z40081c14"><use xlink:href="#z40081d14"/></clipPath>
</defs>
<path pathLength="3333" clip-path="url(#z40081c1)" d="M292 68L320 126L229 262L136 352"/>
<path pathLength="3333" clip-path="url(#z40081c2)" d="M287 229L393 202L423 220L322 369"/>
<path pathLength="3333" clip-path="url(#z40081c3)" d="M141 410L175 449L207 666"/>
<path pathLength="3333" clip-path="url(#z40081c4)" d="M180 411L418 374L461 398L413 647"/>
<path pathLength="3333" clip-path="url(#z40081c5)" d="M233 518L390 496"/>
<path pathLength="3333" clip-path="url(#z40081c6)" d="M287 417L315 453L306 603"/>
<path pathLength="3333" clip-path="url(#z40081c7)" d="M234 637L387 606"/>
<path pathLength="3333" clip-path="url(#z40081c8)" d="M112 793L170 810L460 708"/>
<path pathLength="3333" clip-path="url(#z40081c9)" d="M558 359L806 324"/>
<path pathLength="3333" clip-path="url(#z40081c10)" d="M634 84L691 129L665 469"/>
<path pathLength="3333" clip-path="url(#z40081c11)" d="M496 513L806 467L899 478"/>
<path pathLength="3333" clip-path="url(#z40081c12)" d="M527 663L813 636"/>
<path pathLength="3333" clip-path="url(#z40081c13)" d="M644 517L677 547L671 794"/>
<path pathLength="3333" clip-path="url(#z40081c14)" d="M415 832L473 844L845 799L944 817"/>
</svg>