<!--
AnimCJK 2016-2018 Copyright Francois Mizessyn - https://github.com/parsimonhi/animCJK
Derived from:
    MakeMeAHanzi project - https://github.com/skishore/makemeahanzi
    Arphic PL KaitiM GB - https://apps.ubuntu.com/cat/applications/precise/fonts-arphic-gkai00mp/
    Arphic PL UKai - https://apps.ubuntu.com/cat/applications/fonts-arphic-ukai/
You can redistribute and/or modify this file under the terms of the Arphic Public License
as published by Arphic Technology Co., Ltd.
You should have received a copy of this license (the directory "APL") along with this file;
if not, see http://ftp.gnu.org/non-gnu/chinese-fonts-truetype/LICENSE.
-->
<svg id="z40090" class="acjk" version="1.1" viewBox="0 0 1024 1024" xmlns="http://www.w3.org/2000/svg" xmlns:xlink="http://www.w3.org/1999/xlink">
<style>
<![CDATA[
@keyframes z40090k {
	from {
		stroke:#c00;
		stroke-dashoffset:3334;
	}
	75% {
		stroke:#c00;
		stroke-dashoffset:0;
	}
	to {
		stroke:#000;
	}
}
#z40090 path[clip-path] {
	animation:z40090k 1s linear both;
	stroke-dasharray:3334;
	stroke-width:128;
	stroke-linecap:round;
	fill:none;
}
#z40090 path[clip-path="url(#z40090c1)"] {animation-delay:1s;}
#z40090 path[clip-path="url(#z40090c2)"] {animation-delay:2s;}
#z40090 path[clip-path="url(#z40090c3)"] {animation-delay:3s;}
#z40090 path[clip-path="url(#z40090c4)"] {animation-delay:4s;}
#z40090 path[clip-path="url(#z40090c5)"] {animation-delay:5s;}
#z40090 path[clip-path="url(#z40090c6)"] {animation-delay:6s;}
#z40090 path[clip-path="url(#z40090c7)"] {animation-delay:7s;}
#z40090 path[clip-path="url(#z40090c8)"] {animation-delay:8s;}
#z40090 path[clip-path="url(#z40090c9)"] {animation-delay:9s;}
#z40090 path[clip-path="url(#z40090c10)"] {animation-delay:10s;}
#z40090 path[clip-path="url(#z40090c11)"] {animation-delay:11s;}
#z40090 path[clip-path="url(#z40090c12)"] {animation-delay:12s;}
#z40090 path[clip-path="url(#z40090c13)"] {animation-delay:13s;}
#z40090 path[clip-path="url(#z40090c14)"] {animation-delay:14s;}
#z40090 path {fill:#ccc;}
]]>
</style>
<path id="z40090d1" d="M297 210Q363 120 363 117Q362 114 362 112Q359 102 335 80Q313 64 296 62Q280 63 286 83Q310 140 143 337Q133 346 131 351Q128 361 141 359Q180 355 279 233L297 210 Z"/>
<path id="z40090d2" d="M331 382Q349 361 391 305Q427 254 463 225Q479 215 467 203Q454 193 420 174Q411 171 328 201Q325 201 297 210L279 233Q295 239 364 224Q371 223 373 225Q377 228 373 239Q340 324 319 364Q312 379 310 387L331 382 Z"/>
<path id="z40090d3" d="M192 416Q182 409 150 403Q138 400 135 405Q128 411 136 426Q166 495 181 605Q182 638 201 661Q217 682 223 667Q226 658 227 648L227 626Q226 611 224 595Q205 483 201 446L192 416 Z"/>
<path id="z40090d4" d="M386 617Q399 636 413 642Q423 649 435 629Q442 613 456 554L459 541Q463 510 472 471Q479 443 498 421Q508 409 499 398Q484 383 446 362Q433 356 365 374Q353 374 331 382L310 387Q289 390 192 416L201 446Q200 445 202 445Q235 435 284 423L317 415Q401 393 415 405Q428 420 426 435Q405 579 387 591L386 617 Z"/>
<path id="z40090d5" d="M334 521Q361 515 385 512Q404 509 397 498Q388 486 367 483Q354 482 337 486L292 499Q261 508 233 517Q220 521 237 533Q240 533 293 530L334 521 Z"/>
<path id="z40090d6" d="M330 595Q331 555 334 521L337 486Q337 462 339 455Q346 436 317 415L284 423Q288 435 292 499L293 530Q293 561 294 606L330 595 Z"/>
<path id="z40090d7" d="M227 648Q231 648 240 647Q321 628 386 617L387 591Q383 590 377 588Q358 587 330 595L294 606Q258 616 227 626L227 648 Z"/>
<path id="z40090d8" d="M120 778Q107 779 105 789Q102 802 111 810Q133 826 165 847Q175 851 187 842Q217 820 408 744Q433 734 452 720Q465 713 466 704Q462 698 449 701Q173 779 120 778 Z"/>
<path id="z40090d9" d="M600 130Q624 149 650 172Q663 184 679 182Q689 181 693 168Q697 153 686 125Q680 109 652 97Q582 79 572 85Q568 89 569 101Q573 111 600 130 Z"/>
<path id="z40090d10" d="M705 261Q726 254 823 239Q833 240 842 226Q843 216 820 206Q787 185 690 219Q680 220 672 224Q666 224 499 259Q471 263 493 280Q529 304 555 296Q601 283 661 271L705 261 Z"/>
<path id="z40090d11" d="M456 554Q589 563 662 477L685 440Q710 403 721 357Q731 315 741 303Q750 290 742 282Q730 269 705 261L661 271Q673 325 669 353Q666 360 664 370Q658 392 649 411L629 443Q608 470 578 491Q538 516 459 541L456 554 Z"/>
<path id="z40090d12" d="M662 477Q774 589 811 593Q884 593 958 577Q991 570 987 562Q986 558 899 535Q769 499 689 443Q686 440 685 440L649 411Q624 390 599 367Q565 334 533 336Q517 337 514 341Q513 348 527 356Q557 371 629 443L662 477 Z"/>
<path id="z40090d13" d="M511 608Q535 644 519 732Q500 813 418 878Q408 888 418 889Q466 883 511 839Q559 793 578 685Q584 645 590 633Q597 617 583 610Q537 580 516 590Q504 594 511 608 Z"/>
<path id="z40090d14" d="M704 906Q708 928 715 937Q719 944 727 941Q734 938 738 924Q744 903 750 735Q750 654 758 613Q761 597 748 588Q718 569 704 566Q692 562 678 570Q671 577 677 587Q678 591 683 596Q692 611 698 811Q699 881 704 906 Z"/>
<defs>
	<clipPath id="z40090c1"><use xlink:href="#z40090d1"/></clipPath>
	<clipPath id="z40090c2"><use xlink:href="#z40090d2"/></clipPath>
	<clipPath id="z40090c3"><use xlink:href="#z40090d3"/></clipPath>
	<clipPath id="z40090c4"><use xlink:href="#z40090d4"/></clipPath>
	<clipPath id="z40090c5"><use xlink:href="#z40090d5"/></clipPath>
	<clipPath id="z40090c6"><use xlink:href="#z40090d6"/></clipPath>
	<clipPath id="z40090c7"><use xlink:href="#z40090d7"/></clipPath>
	<clipPath id="z40090c8"><use xlink:href="#z40090d8"/></clipPath>
	<clipPath id="z40090c9"><use xlink:href="#z40090d9"/></clipPath>
	<clipPath id="z40090c10"><use xlink:href="#z40090d10"/></clipPath>
	<clipPath id="z40090c11"><use xlink:href="#z40090d11"/></clipPath>
	<clipPath id="z40090c12"><use xlink:href="#z40090d12"/></clipPath>
	<clipPath id="z40090c13"><use xlink:href="#z40090d13"/></clipPath>
	<clipPath id="z40090c14"><use xlink:href="#z40090d14"/></clipPath>
</defs>
<path pathLength="3333" clip-path="url(#z40090c1)" d="M292 68L320 126L229 262L136 352"/>
<path pathLength="3333" clip-path="url(#z40090c2)" d="M287 229L393 202L423 220L318 379"/>
<path pathLength="3333" clip-path="url(#z40090c3)" d="M138 409L174 448L214 667"/>
<path pathLength="3333" clip-path="url(#z40090c4)" d="M201 422L396 383L462 410L415 638"/>
<path pathLength="3333" clip-path="url(#z40090c5)" d="M233 522L393 499"/>
<path pathLength="3333" clip-path="url(#z40090c6)" d="M291 431L315 463L305 602"/>
<path pathLength="3333" clip-path="url(#z40090c7)" d="M233 640L384 601"/>
<path pathLength="3333" clip-path="url(#z40090c8)" d="M112 793L170 810L460 708"/>
<path pathLength="3333" clip-path="url(#z40090c9)" d="M577 95L649 130L680 177"/>
<path pathLength="3333" clip-path="url(#z40090c10)" d="M492 268L836 226"/>
<path pathLength="3333" clip-path="url(#z40090c11)" d="M668 276L706 309L648 455L586 511L464 548"/>
<path pathLength="3333" clip-path="url(#z40090c12)" d="M523 344L791 541L978 565"/>
<path pathLength="3333" clip-path="url(#z40090c13)" d="M515 592L557 631L536 756L483 841L419 883"/>
<path pathLength="3333" clip-path="url(#z40090c14)" d="M680 574L723 614L722 938"/>
</svg>