<!--
AnimCJK 2016-2019 Copyright Francois Mizessyn - https://github.com/parsimonhi/animCJK
Derived from:
    MakeMeAHanzi project - https://github.com/skishore/makemeahanzi
    Arphic PL KaitiM GB font
    Arphic PL UKai font
You can redistribute and/or modify this file under the terms of the Arphic Public License
as published by Arphic Technology Co., Ltd.
You should have received a copy of this license along with this file.
If not, see http://ftp.gnu.org/non-gnu/chinese-fonts-truetype/LICENSE.
-->
<svg id="z40133" class="acjk" version="1.1" viewBox="0 0 1024 1024" xmlns="http://www.w3.org/2000/svg" xmlns:xlink="http://www.w3.org/1999/xlink">
<style>
<![CDATA[
@keyframes zk {
	to {
		stroke-dashoffset:0;
	}
}
svg.acjk path[clip-path] {
	--t:0.8s;
	animation:zk var(--t) linear forwards var(--d);
	stroke-dasharray:3337;
	stroke-dashoffset:3339;
	stroke-width:128;
	stroke-linecap:round;
	fill:none;
	stroke:#000;
}
svg.acjk path[id] {fill:#ccc;}
]]>
</style>
<path id="z40133d1" d="M209 240Q228 215 249 184Q264 159 277 146Q284 139 281 127Q278 117 256 100Q237 87 221 86Q208 87 213 104Q237 155 102 325Q99 328 97 332Q90 339 88 345Q85 354 96 351Q132 344 196 257C205 246 205 246 209 240Z"/>
<path id="z40133d2" d="M241 383Q257 362 285 322Q316 276 349 247Q364 237 353 228Q341 218 310 203Q304 200 237 229Q224 235 209 240C202 242 189 254 196 257Q212 264 264 250Q268 249 270 250Q274 253 270 263Q242 342 222 379Q219 383 217 389C214 397 236 390 241 383Z"/>
<path id="z40133d3" d="M114 417Q104 413 79 408Q69 405 66 409Q62 415 68 428Q93 486 108 579Q111 607 126 626Q141 645 146 632Q149 623 149 611C149 598 149 598 149 592Q148 582 146 570Q130 474 126 444Q125 443 126 443C124 434 123 421 114 417Z"/>
<path id="z40133d4" d="M276 586Q292 608 306 613Q315 619 325 602Q335 580 352 461Q356 436 373 416Q383 406 373 395Q360 383 326 365Q316 362 254 379Q250 379 241 383C225 387 225 387 217 389Q198 392 114 417C105 421 117 446 126 443Q151 433 191 423C210 418 210 418 220 416Q242 409 271 403Q292 399 299 405Q311 417 310 430Q298 544 286 565C283 572 271 580 276 586Z"/>
<path id="z40133d5" d="M234 510Q253 504 271 503Q289 499 281 490Q272 480 252 477Q245 476 235 479C210 486 210 486 198 490Q176 499 157 506Q144 510 160 520Q161 521 199 517C222 512 222 512 234 510Z"/>
<path id="z40133d6" d="M231 568Q232 537 234 510C235 489 235 489 235 479Q235 454 237 446Q243 430 220 416C211 411 189 413 191 423Q194 436 198 490C199 508 199 508 199 517Q199 542 201 577C201 587 231 578 231 568Z"/>
<path id="z40133d7" d="M149 611Q153 611 158 610Q225 595 276 586C284 584 293 568 286 565Q280 562 272 561Q257 560 231 568C211 574 211 574 201 577Q173 584 149 592C143 594 143 611 149 611Z"/>
<path id="z40133d8" d="M77 720Q67 721 64 730Q63 742 71 748Q90 763 119 779Q128 782 138 774Q156 759 291 694Q309 687 322 676Q332 669 333 661Q329 657 318 659Q228 687 115 717Q100 721 77 720Z"/>
<path id="z40133d9" d="M490 279Q560 246 599 238Q612 238 615 232Q618 223 608 215Q562 182 536 185Q530 189 530 197Q530 228 372 303Q368 310 373 312Q385 312 455 290Q456 289 460 289C480 282 480 282 490 279Z"/>
<path id="z40133d10" d="M511 435Q514 434 598 414Q605 414 612 404Q612 395 594 389Q566 374 513 398C486 407 486 407 473 412Q448 419 427 424Q405 428 381 434Q359 438 378 450Q399 465 445 454Q449 453 457 451C493 440 493 440 511 435Z"/>
<path id="z40133d11" d="M508 523Q509 501 510 480Q510 456 511 435C512 410 512 410 513 398Q514 344 521 317Q524 305 517 300Q502 287 490 279C481 274 456 279 460 289Q472 310 473 412C470 487 470 487 469 524Q469 686 446 771Q431 801 464 858Q476 876 483 882Q493 883 499 871Q511 843 508 813Q507 671 508 549C508 532 508 532 508 523Z"/>
<path id="z40133d12" d="M457 451Q424 562 318 732Q315 739 323 739Q341 739 416 628Q444 585 469 524C495 458 471 382 457 451Z"/>
<path id="z40133d13" d="M508 549Q572 603 581 604Q587 603 590 595Q593 588 588 569Q581 542 509 523C508 523 508 523 508 523C500 521 501 544 508 549Z"/>
<path id="z40133d14" d="M589 485Q628 533 638 535Q645 536 650 527Q654 517 651 497Q650 484 631 471Q586 447 576 450Q572 451 572 461Q573 468 589 485Z"/>
<path id="z40133d15" d="M729 485Q733 485 738 483Q835 416 883 392Q901 388 897 377Q893 361 874 342Q856 323 834 321Q819 320 819 340Q820 353 812 369Q784 406 731 463C726 468 722 486 729 485Z"/>
<path id="z40133d16" d="M723 535Q726 510 729 485C730 470 730 470 731 463Q746 249 770 186Q777 173 767 162Q746 144 709 133Q685 126 677 132Q668 139 675 151Q729 241 668 594Q667 597 666 601Q638 712 527 798Q517 805 516 810Q517 814 529 813Q539 817 570 803Q681 758 719 568C722 546 722 546 723 535Z"/>
<path id="z40133d17" d="M719 568Q764 679 849 793Q865 815 882 818Q931 814 974 812Q992 811 992 807Q993 803 974 788Q862 716 818 662Q766 601 728 539Q727 536 723 535C713 529 715 558 719 568Z"/>
<defs>
	<clipPath id="z40133c1"><use xlink:href="#z40133d1"/></clipPath>
	<clipPath id="z40133c2"><use xlink:href="#z40133d2"/></clipPath>
	<clipPath id="z40133c3"><use xlink:href="#z40133d3"/></clipPath>
	<clipPath id="z40133c4"><use xlink:href="#z40133d4"/></clipPath>
	<clipPath id="z40133c5"><use xlink:href="#z40133d5"/></clipPath>
	<clipPath id="z40133c6"><use xlink:href="#z40133d6"/></clipPath>
	<clipPath id="z40133c7"><use xlink:href="#z40133d7"/></clipPath>
	<clipPath id="z40133c8"><use xlink:href="#z40133d8"/></clipPath>
	<clipPath id="z40133c9"><use xlink:href="#z40133d9"/></clipPath>
	<clipPath id="z40133c10"><use xlink:href="#z40133d10"/></clipPath>
	<clipPath id="z40133c11"><use xlink:href="#z40133d11"/></clipPath>
	<clipPath id="z40133c12"><use xlink:href="#z40133d12"/></clipPath>
	<clipPath id="z40133c13"><use xlink:href="#z40133d13"/></clipPath>
	<clipPath id="z40133c14"><use xlink:href="#z40133d14"/></clipPath>
	<clipPath id="z40133c15"><use xlink:href="#z40133d15"/></clipPath>
	<clipPath id="z40133c16"><use xlink:href="#z40133d16"/></clipPath>
	<clipPath id="z40133c17"><use xlink:href="#z40133d17"/></clipPath>
</defs>
<path style="--d:1s;" pathLength="3333" clip-path="url(#z40133c1)" d="M221 95L248 138L96 347"/>
<path style="--d:2s;" pathLength="3333" clip-path="url(#z40133c2)" d="M203 253L288 228L314 242L225 383"/>
<path style="--d:3s;" pathLength="3333" clip-path="url(#z40133c3)" d="M72 414L100 444L134 629"/>
<path style="--d:4s;" pathLength="3333" clip-path="url(#z40133c4)" d="M121 422L293 384L332 399L305 609"/>
<path style="--d:5s;" pathLength="3333" clip-path="url(#z40133c5)" d="M158 511L278 492"/>
<path style="--d:6s;" pathLength="3333" clip-path="url(#z40133c6)" d="M219 420L210 572"/>
<path style="--d:7s;" pathLength="3333" clip-path="url(#z40133c7)" d="M152 603L281 574"/>
<path style="--d:8s;" pathLength="3333" clip-path="url(#z40133c8)" d="M69 729L127 746L325 667"/>
<path style="--d:9s;" pathLength="3333" clip-path="url(#z40133c9)" d="M610 227L551 216L379 307"/>
<path style="--d:10s;" pathLength="3333" clip-path="url(#z40133c10)" d="M376 441L606 399"/>
<path style="--d:11s;" pathLength="3333" clip-path="url(#z40133c11)" d="M466 293L495 325L487 878"/>
<path style="--d:12s;" pathLength="3333" clip-path="url(#z40133c12)" d="M464 455L424 579L325 730"/>
<path style="--d:13s;" pathLength="3333" clip-path="url(#z40133c13)" d="M513 530L585 598"/>
<path style="--d:14s;" pathLength="3333" clip-path="url(#z40133c14)" d="M579 456L644 528"/>
<path style="--d:15s;" pathLength="3333" clip-path="url(#z40133c15)" d="M829 328L853 379L738 477"/>
<path style="--d:16s;" pathLength="3333" clip-path="url(#z40133c16)" d="M679 138L732 188L693 582L630 728L524 805"/>
<path style="--d:17s;" pathLength="3333" clip-path="url(#z40133c17)" d="M726 544L857 747L900 785L982 801"/>
</svg>