<!--
AnimCJK 2016-2019 Copyright Francois Mizessyn - https://github.com/parsimonhi/animCJK
Derived from:
    MakeMeAHanzi project - https://github.com/skishore/makemeahanzi
    Arphic PL KaitiM GB font
    Arphic PL UKai font
You can redistribute and/or modify this file under the terms of the Arphic Public License
as published by Arphic Technology Co., Ltd.
You should have received a copy of this license along with this file.
If not, see http://ftp.gnu.org/non-gnu/chinese-fonts-truetype/LICENSE.
-->
<svg id="z40149" class="acjk" version="1.1" viewBox="0 0 1024 1024" xmlns="http://www.w3.org/2000/svg" xmlns:xlink="http://www.w3.org/1999/xlink">
<style>
<![CDATA[
@keyframes zk {
	to {
		stroke-dashoffset:0;
	}
}
svg.acjk path[clip-path] {
	--t:0.8s;
	animation:zk var(--t) linear forwards var(--d);
	stroke-dasharray:3337;
	stroke-dashoffset:3339;
	stroke-width:128;
	stroke-linecap:round;
	fill:none;
	stroke:#000;
}
svg.acjk path[id] {fill:#ccc;}
]]>
</style>
<path id="z40149d1" d="M285 250Q322 193 344 174Q353 165 349 154Q346 144 324 124Q302 108 287 108Q271 109 277 127Q292 161 221 266Q188 314 142 367Q135 374 132 380Q128 389 140 387Q170 383 273 266C281 255 281 255 285 250Z"/>
<path id="z40149d2" d="M323 406Q339 390 381 338Q415 295 448 270Q464 261 453 249Q441 239 410 221Q395 215 383 224Q376 228 317 244Q302 247 285 250C278 251 267 264 273 266Q291 276 355 265Q362 264 363 266Q367 269 363 278Q333 353 314 388Q307 401 306 408Q305 409 306 411C306 417 319 411 323 406Z"/>
<path id="z40149d3" d="M171 443Q162 439 143 435Q133 432 129 437Q123 443 130 457Q157 518 171 619Q172 649 190 669Q205 690 210 675Q213 668 214 656C214 641 214 641 214 634Q213 622 211 610Q193 496 191 468C191 457 181 447 171 443Z"/>
<path id="z40149d4" d="M354 631Q370 656 385 662Q395 668 406 650Q419 625 439 494Q446 469 464 447Q474 437 464 425Q451 412 414 392Q402 386 328 404Q325 404 323 406C312 409 312 409 306 411Q303 411 171 443C161 445 181 472 191 468Q221 458 265 448C282 444 282 444 291 442Q318 435 354 430Q376 426 385 433Q398 446 396 461Q378 590 366 609C363 617 349 624 354 631Z"/>
<path id="z40149d5" d="M313 542Q335 536 358 533Q377 529 369 518Q359 506 338 504Q328 503 315 506C288 514 288 514 275 518Q248 528 225 537Q212 541 229 553C260 550 260 550 276 549C301 544 301 544 313 542Z"/>
<path id="z40149d6" d="M309 604Q310 570 313 542C314 518 314 518 315 506Q315 490 317 481Q323 463 291 442C283 437 262 440 265 448Q271 461 275 518C276 539 276 539 276 549Q276 574 276 614C276 625 309 615 309 604Z"/>
<path id="z40149d7" d="M214 656Q221 656 229 655Q299 639 354 631C362 629 373 614 366 609Q359 602 343 600Q328 599 309 604C287 611 287 611 276 614Q242 623 214 634C207 637 207 656 214 656Z"/>
<path id="z40149d8" d="M108 764Q96 765 94 774Q91 787 99 795Q120 811 150 831Q160 835 172 827Q217 797 376 740Q406 730 428 716Q441 709 442 701Q438 695 425 697Q164 769 108 764Z"/>
<path id="z40149d9" d="M665 193Q815 160 819 158Q826 151 823 143Q816 133 790 125Q763 119 689 144Q575 163 560 166Q527 172 551 187Q578 205 630 200C653 195 653 195 665 193Z"/>
<path id="z40149d10" d="M529 293Q517 268 502 258Q498 254 493 258Q489 261 488 271Q491 296 466 354Q457 369 458 385Q461 401 469 415Q476 425 481 417Q487 417 494 403Q498 397 505 374Q520 334 527 320C527 319 527 319 527 319C530 311 533 301 529 293Z"/>
<path id="z40149d11" d="M692 294Q803 267 834 270Q850 279 848 286C835 325 835 325 829 344Q823 356 829 359Q836 363 849 352Q892 321 930 311Q960 301 959 295Q958 286 894 242Q872 227 795 245Q756 249 695 263C663 269 663 269 647 272Q623 275 598 281Q564 288 529 293C520 294 520 315 527 319Q549 332 574 325Q610 312 649 303C678 297 678 297 692 294Z"/>
<path id="z40149d12" d="M649 303Q649 390 633 496Q624 538 652 570Q661 580 670 570Q688 540 690 458Q690 320 692 294C694 273 694 273 695 263Q696 250 699 237Q705 216 686 206Q676 199 665 193C655 187 628 188 630 200Q630 203 632 209Q645 245 647 272C648 293 648 293 649 303Z"/>
<path id="z40149d13" d="M546 396Q589 432 610 430Q620 429 622 413Q621 403 610 389Q586 370 545 375Q538 375 539 384Q539 391 546 396Z"/>
<path id="z40149d14" d="M529 487Q580 526 599 525Q609 524 610 510Q609 500 599 487Q589 477 570 473Q540 466 528 467Q521 467 522 476Q523 482 529 487Z"/>
<path id="z40149d15" d="M730 380Q781 419 802 418Q812 417 814 401Q813 391 802 377Q792 367 772 364Q741 358 729 359Q722 359 723 368Q723 375 730 380Z"/>
<path id="z40149d16" d="M725 472Q788 523 810 521Q820 520 822 505Q822 495 812 481Q800 468 777 462Q740 452 725 451Q718 451 719 460Q718 467 725 472Z"/>
<path id="z40149d17" d="M808 796Q830 675 868 638Q886 619 869 599Q851 587 792 560Q774 554 753 563Q651 602 516 615Q500 616 501 626Q504 635 522 641Q547 651 582 641Q661 628 736 614Q755 610 763 618Q776 628 776 655Q769 730 756 790C753 807 805 813 808 796Z"/>
<path id="z40149d18" d="M531 718Q501 722 522 737Q558 756 601 745Q656 735 713 724Q738 718 743 715Q750 708 746 701Q740 692 717 686Q693 682 669 691Q639 700 608 708Q572 715 531 718Z"/>
<path id="z40149d19" d="M756 790Q755 789 753 790Q605 818 486 827Q464 828 476 848Q483 858 494 863Q506 867 521 864Q618 848 824 838Q837 837 838 827Q839 818 808 796C793 787 773 790 756 790Z"/>
<defs>
	<clipPath id="z40149c1"><use xlink:href="#z40149d1"/></clipPath>
	<clipPath id="z40149c2"><use xlink:href="#z40149d2"/></clipPath>
	<clipPath id="z40149c3"><use xlink:href="#z40149d3"/></clipPath>
	<clipPath id="z40149c4"><use xlink:href="#z40149d4"/></clipPath>
	<clipPath id="z40149c5"><use xlink:href="#z40149d5"/></clipPath>
	<clipPath id="z40149c6"><use xlink:href="#z40149d6"/></clipPath>
	<clipPath id="z40149c7"><use xlink:href="#z40149d7"/></clipPath>
	<clipPath id="z40149c8"><use xlink:href="#z40149d8"/></clipPath>
	<clipPath id="z40149c9"><use xlink:href="#z40149d9"/></clipPath>
	<clipPath id="z40149c10"><use xlink:href="#z40149d10"/></clipPath>
	<clipPath id="z40149c11"><use xlink:href="#z40149d11"/></clipPath>
	<clipPath id="z40149c12"><use xlink:href="#z40149d12"/></clipPath>
	<clipPath id="z40149c13"><use xlink:href="#z40149d13"/></clipPath>
	<clipPath id="z40149c14"><use xlink:href="#z40149d14"/></clipPath>
	<clipPath id="z40149c15"><use xlink:href="#z40149d15"/></clipPath>
	<clipPath id="z40149c16"><use xlink:href="#z40149d16"/></clipPath>
	<clipPath id="z40149c17"><use xlink:href="#z40149d17"/></clipPath>
	<clipPath id="z40149c18"><use xlink:href="#z40149d18"/></clipPath>
	<clipPath id="z40149c19"><use xlink:href="#z40149d19"/></clipPath>
</defs>
<path style="--d:1s;" pathLength="3333" clip-path="url(#z40149c1)" d="M284 117L311 167L139 378"/>
<path style="--d:2s;" pathLength="3333" clip-path="url(#z40149c2)" d="M279 262L371 244L410 265L311 404"/>
<path style="--d:3s;" pathLength="3333" clip-path="url(#z40149c3)" d="M134 444L168 487L203 674"/>
<path style="--d:4s;" pathLength="3333" clip-path="url(#z40149c4)" d="M179 445L372 411L431 439L380 658"/>
<path style="--d:5s;" pathLength="3333" clip-path="url(#z40149c5)" d="M226 543L362 524"/>
<path style="--d:6s;" pathLength="3333" clip-path="url(#z40149c6)" d="M273 452L295 486L291 609"/>
<path style="--d:7s;" pathLength="3333" clip-path="url(#z40149c7)" d="M219 648L359 614"/>
<path style="--d:8s;" pathLength="3333" clip-path="url(#z40149c8)" d="M99 774L171 793L433 704"/>
<path style="--d:9s;" pathLength="3333" clip-path="url(#z40149c9)" d="M547 174L816 144"/>
<path style="--d:10s;" pathLength="3333" clip-path="url(#z40149c10)" d="M497 267L478 411"/>
<path style="--d:11s;" pathLength="3333" clip-path="url(#z40149c11)" d="M532 313L842 253L885 272L904 303L835 353"/>
<path style="--d:12s;" pathLength="3333" clip-path="url(#z40149c12)" d="M639 206L671 234L660 565"/>
<path style="--d:13s;" pathLength="3333" clip-path="url(#z40149c13)" d="M544 382L616 420"/>
<path style="--d:14s;" pathLength="3333" clip-path="url(#z40149c14)" d="M528 475L605 516"/>
<path style="--d:15s;" pathLength="3333" clip-path="url(#z40149c15)" d="M728 365L807 409"/>
<path style="--d:16s;" pathLength="3333" clip-path="url(#z40149c16)" d="M724 458L817 512"/>
<path style="--d:17s;" pathLength="3333" clip-path="url(#z40149c17)" d="M510 626L788 595L826 630L792 793"/>
<path style="--d:18s;" pathLength="3333" clip-path="url(#z40149c18)" d="M525 728L740 702"/>
<path style="--d:19s;" pathLength="3333" clip-path="url(#z40149c19)" d="M477 834L832 822"/>
</svg>