<!--
AnimCJK 2016-2018 Copyright Francois Mizessyn - https://github.com/parsimonhi/animCJK
Derived from:
    MakeMeAHanzi project - https://github.com/skishore/makemeahanzi
    Arphic PL KaitiM GB - https://apps.ubuntu.com/cat/applications/precise/fonts-arphic-gkai00mp/
    Arphic PL UKai - https://apps.ubuntu.com/cat/applications/fonts-arphic-ukai/
You can redistribute and/or modify this file under the terms of the Arphic Public License
as published by Arphic Technology Co., Ltd.
You should have received a copy of this license (the directory "APL") along with this file;
if not, see http://ftp.gnu.org/non-gnu/chinese-fonts-truetype/LICENSE.
-->
<svg id="z40159" class="acjk" version="1.1" viewBox="0 0 1024 1024" xmlns="http://www.w3.org/2000/svg" xmlns:xlink="http://www.w3.org/1999/xlink">
<style>
<![CDATA[
@keyframes z40159k {
	from {
		stroke:#c00;
		stroke-dashoffset:3334;
	}
	75% {
		stroke:#c00;
		stroke-dashoffset:0;
	}
	to {
		stroke:#000;
	}
}
#z40159 path[clip-path] {
	animation:z40159k 1s linear both;
	stroke-dasharray:3334;
	stroke-width:128;
	stroke-linecap:round;
	fill:none;
}
#z40159 path[clip-path="url(#z40159c1)"] {animation-delay:1s;}
#z40159 path[clip-path="url(#z40159c2)"] {animation-delay:2s;}
#z40159 path[clip-path="url(#z40159c3)"] {animation-delay:3s;}
#z40159 path[clip-path="url(#z40159c4)"] {animation-delay:4s;}
#z40159 path[clip-path="url(#z40159c5)"] {animation-delay:5s;}
#z40159 path[clip-path="url(#z40159c6)"] {animation-delay:6s;}
#z40159 path[clip-path="url(#z40159c7)"] {animation-delay:7s;}
#z40159 path[clip-path="url(#z40159c8)"] {animation-delay:8s;}
#z40159 path[clip-path="url(#z40159c9)"] {animation-delay:9s;}
#z40159 path[clip-path="url(#z40159c10)"] {animation-delay:10s;}
#z40159 path[clip-path="url(#z40159c11)"] {animation-delay:11s;}
#z40159 path[clip-path="url(#z40159c12)"] {animation-delay:12s;}
#z40159 path[clip-path="url(#z40159c13)"] {animation-delay:13s;}
#z40159 path[clip-path="url(#z40159c14)"] {animation-delay:14s;}
#z40159 path[clip-path="url(#z40159c15)"] {animation-delay:15s;}
#z40159 path[clip-path="url(#z40159c16)"] {animation-delay:16s;}
#z40159 path[clip-path="url(#z40159c17)"] {animation-delay:17s;}
#z40159 path[clip-path="url(#z40159c18)"] {animation-delay:18s;}
#z40159 path[clip-path="url(#z40159c19)"] {animation-delay:19s;}
#z40159 path[clip-path="url(#z40159c20)"] {animation-delay:20s;}
#z40159 path {fill:#ccc;}
]]>
</style>
<path id="z40159d1" d="M268 224Q334 130 335 127Q334 124 334 122Q331 112 308 92Q286 77 270 77Q255 78 262 96Q269 114 264 129Q245 180 215 227Q185 273 146 323Q137 330 135 336Q132 345 144 343Q165 340 256 240L268 224 Z"/>
<path id="z40159d2" d="M322 365Q416 244 436 229Q451 219 440 208Q427 198 393 181Q378 177 366 187Q359 191 300 214Q285 220 268 224L256 240Q268 250 343 231Q350 230 352 231Q356 234 351 244Q320 323 299 362Q296 366 294 371L322 365 Z"/>
<path id="z40159d3" d="M147 408Q138 405 126 404Q116 401 112 406Q108 412 115 426Q143 487 161 588Q164 618 181 638Q197 657 202 643Q203 636 205 628L205 607Q204 594 201 577Q179 457 176 432Q175 431 176 431L147 408 Z"/>
<path id="z40159d4" d="M355 601Q368 620 381 626Q390 632 402 614Q415 589 438 450Q445 425 463 403Q473 393 463 381Q450 368 414 348Q398 341 385 346Q361 355 326 363Q325 363 322 365L294 371Q263 377 228 387Q183 400 147 408L176 431Q207 419 255 409L281 402Q369 377 385 388Q398 404 396 419Q377 558 361 575L355 601 Z"/>
<path id="z40159d5" d="M308 504Q330 498 350 495Q368 491 361 482Q352 472 332 468Q322 467 309 471L268 483Q237 493 213 502Q200 506 216 517Q223 521 237 518Q253 514 269 512L308 504 Z"/>
<path id="z40159d6" d="M305 579Q306 539 308 504L309 471Q309 458 311 444Q315 431 309 423Q294 408 281 402L255 409Q264 437 268 483L269 512Q269 543 271 589L305 579 Z"/>
<path id="z40159d7" d="M205 628Q209 628 218 627Q296 611 355 601L361 575Q357 574 351 572Q335 571 305 579L271 589Q234 598 205 607L205 628 Z"/>
<path id="z40159d8" d="M89 750Q76 751 74 761Q71 774 79 782Q101 800 132 820Q142 824 155 816Q278 762 404 708Q417 701 418 693Q414 687 401 688Q149 754 89 750 Z"/>
<path id="z40159d9" d="M556 121Q571 137 586 157Q596 170 611 170Q620 170 625 159Q629 147 625 121Q618 96 555 80Q542 76 536 77Q532 80 532 92Q533 102 556 121 Z"/>
<path id="z40159d10" d="M722 78Q709 105 665 172Q658 187 672 182Q709 157 729 138Q777 95 793 85Q809 75 800 61Q787 48 764 38Q743 29 733 33Q723 34 727 46Q731 61 722 78 Z"/>
<path id="z40159d11" d="M712 221Q770 214 856 213Q902 213 907 206Q911 196 898 187Q858 157 805 171Q736 186 477 227Q461 228 473 242Q483 252 497 255Q513 259 525 255Q553 246 585 241L613 236Q643 227 667 227L712 221 Z"/>
<path id="z40159d12" d="M530 319Q527 318 524 315Q500 300 490 306Q486 310 489 319Q516 403 496 493Q484 533 513 568Q520 578 529 568Q532 564 534 559L538 536Q539 524 540 504Q541 362 543 353Q543 349 543 344L530 319 Z"/>
<path id="z40159d13" d="M789 529Q790 533 794 538Q806 563 814 562Q827 561 840 532Q852 510 850 492Q831 365 856 323Q874 296 796 264Q792 263 790 262Q775 256 713 283L681 293Q636 303 629 307L596 312Q560 316 530 319L543 344L594 336L626 329Q651 320 682 316L710 309Q759 299 776 309Q779 316 788 391L788 395Q791 480 788 499Q784 509 786 520L789 529 Z"/>
<path id="z40159d14" d="M585 241Q594 250 596 312L594 336Q588 384 563 436Q562 442 568 440Q583 440 611 384Q614 375 626 329L629 307Q632 268 634 264Q638 255 634 248Q627 241 613 236L585 241 Z"/>
<path id="z40159d15" d="M713 283Q714 262 722 240Q723 230 718 224Q715 223 712 221L667 227Q680 240 681 293L682 316Q683 329 683 347Q683 389 701 401Q711 411 754 411Q770 411 788 395L788 391Q787 390 787 389Q715 370 713 360Q707 339 710 309L713 283 Z"/>
<path id="z40159d16" d="M597 462Q584 466 600 477Q603 478 715 459Q733 455 725 446Q716 436 696 433Q675 432 597 462 Z"/>
<path id="z40159d17" d="M738 540Q756 536 775 535Q787 534 789 529L786 520Q779 508 760 504Q742 500 538 536L534 559Q540 559 685 545L738 540 Z"/>
<path id="z40159d18" d="M759 644Q814 641 883 641Q935 644 943 634Q947 624 933 612Q882 575 816 594Q792 597 764 604L708 613Q705 613 435 649Q416 650 430 665Q442 677 457 682Q476 686 489 683Q616 649 709 649L759 644 Z"/>
<path id="z40159d19" d="M678 851Q648 844 618 837Q606 834 607 842Q608 848 618 856Q682 914 705 950Q718 966 734 953Q768 922 767 853Q758 777 758 649Q758 646 759 644L764 604Q765 594 769 587Q778 569 762 556Q750 546 738 540L685 545Q704 564 708 613L709 649Q713 761 710 823Q709 842 699 848Q692 855 678 851 Z"/>
<path id="z40159d20" d="M545 745Q561 761 578 782Q588 794 603 794Q612 795 617 783Q621 770 616 745Q610 723 543 703Q530 699 524 701Q520 705 520 716Q523 726 545 745 Z"/>
<defs>
	<clipPath id="z40159c1"><use xlink:href="#z40159d1"/></clipPath>
	<clipPath id="z40159c2"><use xlink:href="#z40159d2"/></clipPath>
	<clipPath id="z40159c3"><use xlink:href="#z40159d3"/></clipPath>
	<clipPath id="z40159c4"><use xlink:href="#z40159d4"/></clipPath>
	<clipPath id="z40159c5"><use xlink:href="#z40159d5"/></clipPath>
	<clipPath id="z40159c6"><use xlink:href="#z40159d6"/></clipPath>
	<clipPath id="z40159c7"><use xlink:href="#z40159d7"/></clipPath>
	<clipPath id="z40159c8"><use xlink:href="#z40159d8"/></clipPath>
	<clipPath id="z40159c9"><use xlink:href="#z40159d9"/></clipPath>
	<clipPath id="z40159c10"><use xlink:href="#z40159d10"/></clipPath>
	<clipPath id="z40159c11"><use xlink:href="#z40159d11"/></clipPath>
	<clipPath id="z40159c12"><use xlink:href="#z40159d12"/></clipPath>
	<clipPath id="z40159c13"><use xlink:href="#z40159d13"/></clipPath>
	<clipPath id="z40159c14"><use xlink:href="#z40159d14"/></clipPath>
	<clipPath id="z40159c15"><use xlink:href="#z40159d15"/></clipPath>
	<clipPath id="z40159c16"><use xlink:href="#z40159d16"/></clipPath>
	<clipPath id="z40159c17"><use xlink:href="#z40159d17"/></clipPath>
	<clipPath id="z40159c18"><use xlink:href="#z40159d18"/></clipPath>
	<clipPath id="z40159c19"><use xlink:href="#z40159d19"/></clipPath>
	<clipPath id="z40159c20"><use xlink:href="#z40159d20"/></clipPath>
</defs>
<path pathLength="3333" clip-path="url(#z40159c1)" d="M267 82L298 130L144 337"/>
<path pathLength="3333" clip-path="url(#z40159c2)" d="M265 237L370 206L397 227L302 363"/>
<path pathLength="3333" clip-path="url(#z40159c3)" d="M117 409L152 447L196 643"/>
<path pathLength="3333" clip-path="url(#z40159c4)" d="M159 411L382 365L415 380L431 400L373 619"/>
<path pathLength="3333" clip-path="url(#z40159c5)" d="M215 508L356 486"/>
<path pathLength="3333" clip-path="url(#z40159c6)" d="M263 412L288 441L281 583"/>
<path pathLength="3333" clip-path="url(#z40159c7)" d="M209 620L355 579"/>
<path pathLength="3333" clip-path="url(#z40159c8)" d="M80 763L148 782L410 694"/>
<path pathLength="3333" clip-path="url(#z40159c9)" d="M540 87L592 122L612 165"/>
<path pathLength="3333" clip-path="url(#z40159c10)" d="M734 40L761 78L671 174"/>
<path pathLength="3333" clip-path="url(#z40159c11)" d="M477 233L901 196"/>
<path pathLength="3333" clip-path="url(#z40159c12)" d="M495 311L521 353L520 567"/>
<path pathLength="3333" clip-path="url(#z40159c13)" d="M540 324L768 283L811 303L807 555"/>
<path pathLength="3333" clip-path="url(#z40159c14)" d="M595 246L611 321L570 433"/>
<path pathLength="3333" clip-path="url(#z40159c15)" d="M675 229L700 248L705 379L781 396"/>
<path pathLength="3333" clip-path="url(#z40159c16)" d="M598 467L720 450"/>
<path pathLength="3333" clip-path="url(#z40159c17)" d="M540 552L785 525"/>
<path pathLength="3333" clip-path="url(#z40159c18)" d="M437 660L855 614L939 625"/>
<path pathLength="3333" clip-path="url(#z40159c19)" d="M694 547L738 580L730 878L700 904L615 843"/>
<path pathLength="3333" clip-path="url(#z40159c20)" d="M526 708L588 752L603 788"/>
</svg>