<!--
AnimCJK 2016-2017 Copyright Francois Mizessyn, http://gooo.free.fr/animCJK/
Derived from:
    MakeMeAHanzi project - https://github.com/skishore/makemeahanzi
    Arphic PL KaitiM GB - https://apps.ubuntu.com/cat/applications/precise/fonts-arphic-gkai00mp/
    Arphic PL UKai - https://apps.ubuntu.com/cat/applications/fonts-arphic-ukai/
You can redistribute and/or modify this file under the terms of the Arphic Public License
as published by Arphic Technology Co., Ltd.
You should have received a copy of this license (the directory "APL") along with this file;
if not, see http://ftp.gnu.org/non-gnu/chinese-fonts-truetype/LICENSE.
-->
<svg id="z40150" class="acjk" version="1.1" viewBox="0 0 1024 1024" xmlns="http://www.w3.org/2000/svg" xmlns:xlink="http://www.w3.org/1999/xlink">
<style>
<![CDATA[
	@keyframes z40150k {
		from {
			stroke:#c00;
			stroke-dashoffset:3000;
		}
		75% {
			stroke:#c00;
			stroke-dashoffset:0;
		}
		to {
			stroke:#000;
		}
	}
	#z40150 path[clip-path] {
		animation:z40150k 1s linear both;
		stroke-dasharray:3000;
		stroke-width:128;
		stroke-linecap:round;
		fill:none;
	}
	#z40150 path[clip-path="url(#z40150c1)"] {animation-delay:1s;}
	#z40150 path[clip-path="url(#z40150c2)"] {animation-delay:2s;}
	#z40150 path[clip-path="url(#z40150c3)"] {animation-delay:3s;}
	#z40150 path[clip-path="url(#z40150c4)"] {animation-delay:4s;}
	#z40150 path[clip-path="url(#z40150c5)"] {animation-delay:5s;}
	#z40150 path[clip-path="url(#z40150c6)"] {animation-delay:6s;}
	#z40150 path[clip-path="url(#z40150c7)"] {animation-delay:7s;}
	#z40150 path[clip-path="url(#z40150c8)"] {animation-delay:8s;}
	#z40150 path[clip-path="url(#z40150c9)"] {animation-delay:9s;}
	#z40150 path[clip-path="url(#z40150c10)"] {animation-delay:10s;}
	#z40150 path[clip-path="url(#z40150c11)"] {animation-delay:11s;}
	#z40150 path[clip-path="url(#z40150c12)"] {animation-delay:12s;}
	#z40150 path[clip-path="url(#z40150c13)"] {animation-delay:13s;}
	#z40150 path[clip-path="url(#z40150c14)"] {animation-delay:14s;}
	#z40150 path[clip-path="url(#z40150c15)"] {animation-delay:15s;}
	#z40150 path[clip-path="url(#z40150c16)"] {animation-delay:16s;}
	#z40150 path[clip-path="url(#z40150c17)"] {animation-delay:17s;}
	#z40150 path[clip-path="url(#z40150c18)"] {animation-delay:18s;}
	#z40150 path[clip-path="url(#z40150c19)"] {animation-delay:19s;}
	#z40150 path {fill:#ccc;}
]]>
</style>
<g transform="scale(1,-1) translate(0,-900)">
	<path id="z40150d1" d="M210 721Q252 667 272 666Q282 665 289 680Q290 690 282 707Q275 720 256 727Q228 740 214 743Q207 744 206 735Q205 728 210 721Z"/>
	<path id="z40150d2" d="M431 764Q425 752 382 701Q375 691 386 693Q416 708 432 719Q445 726 458 735Q470 745 486 751Q499 757 493 769Q486 779 468 790Q453 800 445 798Q436 797 439 788Q440 776 431 764Z"/>
	<path id="z40150d3" d="M198 630Q183 645 169 648Q165 651 160 646Q156 642 159 630Q178 587 159 476Q155 457 160 441Q167 423 181 413Q191 404 194 413Q200 416 203 433Q207 445 208 488Q211 563 215 590Q216 596 217 602L198 630Z"/>
	<path id="z40150d4" d="M353 625Q423 640 442 627Q454 603 447 514Q441 498 448 482Q455 463 462 463Q472 464 483 484Q493 500 494 514Q490 595 505 613Q514 626 507 634Q486 653 448 671Q435 675 355 649L322 640Q315 640 309 638Q248 629 198 630L217 602Q221 602 228 603Q280 613 322 619L353 625Z"/>
	<path id="z40150d5" d="M322 619Q321 498 310 457Q309 448 323 413Q330 400 343 407Q355 416 351 507Q350 568 353 625L355 649Q358 730 379 768Q383 775 375 787Q356 802 333 812Q318 819 307 814Q295 810 301 798Q325 759 322 697Q322 667 322 640L322 619Z"/>
	<path id="z40150d6" d="M250 574Q262 556 228 463Q224 457 224 454Q223 450 230 452Q252 459 285 540Q289 552 294 558Q298 564 294 570Q291 576 275 583Q262 589 252 587Q243 584 250 574Z"/>
	<path id="z40150d7" d="M369 571Q396 517 410 513Q419 510 427 521Q430 530 427 545Q423 558 408 567Q387 583 377 589Q371 590 368 584Q367 578 369 571Z"/>
	<path id="z40150d8" d="M591 688Q607 716 627 753Q636 774 645 785Q651 794 645 804Q641 813 616 827Q594 837 580 835Q567 831 575 815Q599 782 521 624Q515 615 514 610Q513 601 523 605Q541 611 579 669L591 688Z"/>
	<path id="z40150d9" d="M674 666Q804 700 808 704Q815 711 811 718Q804 728 779 733Q754 737 728 725Q698 713 667 704Q631 694 591 688L579 669Q606 656 643 658L674 666Z"/>
	<path id="z40150d10" d="M666 539Q690 602 706 619Q715 632 704 641Q686 662 674 666L643 658Q652 631 630 566L616 539Q589 497 531 468Q527 467 522 463Q512 459 520 454Q583 448 640 503Q643 509 646 511L666 539Z"/>
	<path id="z40150d11" d="M646 511Q739 418 788 418Q843 424 890 435Q915 442 912 448Q911 452 886 458Q748 491 681 529Q674 535 666 539L630 566Q582 602 561 599Q548 598 546 594Q545 590 557 582Q579 573 616 539L646 511Z"/>
	<path id="z40150d12" d="M449 398Q456 408 466 414Q476 421 467 435Q443 466 422 467Q413 467 413 456Q413 395 306 317Q299 307 310 308Q341 305 410 361Q422 373 435 385L449 398Z"/>
	<path id="z40150d13" d="M510 305Q573 362 612 380Q628 387 618 400Q608 410 577 430Q564 436 550 428Q543 425 482 406Q466 402 449 398L435 385Q447 373 524 388Q531 389 534 388Q535 385 532 380Q507 334 491 312Q487 306 484 301L510 305Z"/>
	<path id="z40150d14" d="M320 270Q311 274 278 279Q268 282 264 277Q260 271 267 257Q295 205 313 120Q317 95 333 78Q349 59 354 73Q354 76 355 79L356 103Q355 115 352 129Q336 205 330 237L320 270Z"/>
	<path id="z40150d15" d="M582 101Q582 100 583 98Q587 85 599 85Q612 86 619 99Q629 112 651 177Q667 223 700 251Q718 266 703 280Q687 296 641 320Q629 329 555 312Q536 312 510 305L484 301Q441 295 404 286Q356 276 320 270L330 237Q354 249 446 263L485 270Q591 291 612 280Q621 274 615 248Q594 149 585 129Q584 129 584 128L582 101Z"/>
	<path id="z40150d16" d="M494 179Q527 185 556 188Q575 191 569 202Q560 214 539 218Q523 221 497 214L452 203Q415 194 382 186Q369 183 385 171Q392 164 411 167Q432 171 453 173L494 179Z"/>
	<path id="z40150d17" d="M490 123Q491 154 494 179L497 214Q497 230 499 237Q503 255 485 270L446 263Q449 254 452 203L453 173Q453 151 454 117L490 123Z"/>
	<path id="z40150d18" d="M355 79Q361 78 374 79Q491 94 582 101L584 128Q583 129 578 131Q550 138 490 123L454 117Q402 111 356 103L355 79Z"/>
	<path id="z40150d19" d="M484 -8Q524 -7 562 -3Q674 1 768 -10Q790 -13 795 -5Q802 7 792 18Q765 43 726 63Q713 67 689 61Q659 57 465 35Q450 35 315 22Q263 15 188 17Q175 17 174 7Q173 -5 190 -18Q205 -30 233 -41Q243 -45 260 -38Q272 -34 326 -27Q396 -14 484 -8Z"/>
	<defs>
		<clipPath id="z40150c1"><use xlink:href="#z40150d1"/></clipPath>
		<clipPath id="z40150c2"><use xlink:href="#z40150d2"/></clipPath>
		<clipPath id="z40150c3"><use xlink:href="#z40150d3"/></clipPath>
		<clipPath id="z40150c4"><use xlink:href="#z40150d4"/></clipPath>
		<clipPath id="z40150c5"><use xlink:href="#z40150d5"/></clipPath>
		<clipPath id="z40150c6"><use xlink:href="#z40150d6"/></clipPath>
		<clipPath id="z40150c7"><use xlink:href="#z40150d7"/></clipPath>
		<clipPath id="z40150c8"><use xlink:href="#z40150d8"/></clipPath>
		<clipPath id="z40150c9"><use xlink:href="#z40150d9"/></clipPath>
		<clipPath id="z40150c10"><use xlink:href="#z40150d10"/></clipPath>
		<clipPath id="z40150c11"><use xlink:href="#z40150d11"/></clipPath>
		<clipPath id="z40150c12"><use xlink:href="#z40150d12"/></clipPath>
		<clipPath id="z40150c13"><use xlink:href="#z40150d13"/></clipPath>
		<clipPath id="z40150c14"><use xlink:href="#z40150d14"/></clipPath>
		<clipPath id="z40150c15"><use xlink:href="#z40150d15"/></clipPath>
		<clipPath id="z40150c16"><use xlink:href="#z40150d16"/></clipPath>
		<clipPath id="z40150c17"><use xlink:href="#z40150d17"/></clipPath>
		<clipPath id="z40150c18"><use xlink:href="#z40150d18"/></clipPath>
		<clipPath id="z40150c19"><use xlink:href="#z40150d19"/></clipPath>
	</defs>
	<path pathLength="2999" clip-path="url(#z40150c1)" d="M214 733L280 673"/>
	<path pathLength="2999" clip-path="url(#z40150c2)" d="M448 795L460 758L388 699"/>
	<path pathLength="2999" clip-path="url(#z40150c3)" d="M169 644L192 593L190 415"/>
	<path pathLength="2999" clip-path="url(#z40150c4)" d="M209 625L453 646L478 614L461 471"/>
	<path pathLength="2999" clip-path="url(#z40150c5)" d="M307 809L348 766L335 412"/>
	<path pathLength="2999" clip-path="url(#z40150c6)" d="M256 583L274 553L230 460"/>
	<path pathLength="2999" clip-path="url(#z40150c7)" d="M375 583L416 519"/>
	<path pathLength="2999" clip-path="url(#z40150c8)" d="M580 829L613 789L521 613"/>
	<path pathLength="2999" clip-path="url(#z40150c9)" d="M585 673L806 715"/>
	<path pathLength="2999" clip-path="url(#z40150c10)" d="M650 652L675 618L631 525L528 459"/>
	<path pathLength="2999" clip-path="url(#z40150c11)" d="M556 591L750 464L902 446"/>
	<path pathLength="2999" clip-path="url(#z40150c12)" d="M421 462L438 423L309 315"/>
	<path pathLength="2999" clip-path="url(#z40150c13)" d="M447 385L543 409L576 387L492 306"/>
	<path pathLength="2999" clip-path="url(#z40150c14)" d="M270 273L304 237L344 73"/>
	<path pathLength="2999" clip-path="url(#z40150c15)" d="M328 265L635 295L662 261L590 91"/>
	<path pathLength="2999" clip-path="url(#z40150c16)" d="M382 182L566 200"/>
	<path pathLength="2999" clip-path="url(#z40150c17)" d="M455 256L475 230L468 120"/>
	<path pathLength="2999" clip-path="url(#z40150c18)" d="M363 86L580 113"/>
	<path pathLength="2999" clip-path="url(#z40150c19)" d="M179 10L252 -12L709 30L794 2"/>
</g>
</svg>