<!--
AnimCJK 2016-2019 Copyright Francois Mizessyn - https://github.com/parsimonhi/animCJK
Derived from:
    MakeMeAHanzi project - https://github.com/skishore/makemeahanzi
    Arphic PL KaitiM GB font
    Arphic PL UKai font
You can redistribute and/or modify this file under the terms of the Arphic Public License
as published by Arphic Technology Co., Ltd.
You should have received a copy of this license along with this file.
If not, see http://ftp.gnu.org/non-gnu/chinese-fonts-truetype/LICENSE.
-->
<svg id="z40491" class="acjk" version="1.1" viewBox="0 0 1024 1024" xmlns="http://www.w3.org/2000/svg" xmlns:xlink="http://www.w3.org/1999/xlink">
<style>
<![CDATA[
@keyframes zk {
	to {
		stroke-dashoffset:0;
	}
}
svg.acjk path[clip-path] {
	--t:0.8s;
	animation:zk var(--t) linear forwards var(--d);
	stroke-dasharray:3337;
	stroke-dashoffset:3339;
	stroke-width:128;
	stroke-linecap:round;
	fill:none;
	stroke:#000;
}
svg.acjk path[id] {fill:#ccc;}
]]>
</style>
<path id="z40491d1" d="M280 317Q352 298 431 282Q477 270 483 263Q492 256 487 247Q480 237 452 230Q422 224 394 237Q348 253 301 267C270 275 270 275 254 279Q205 289 148 296Q114 303 139 318Q178 340 233 327Q234 326 237 327C266 320 266 320 280 317Z"/>
<path id="z40491d2" d="M301 267Q346 159 366 140Q379 128 363 108Q338 83 317 70Q304 63 294 65Q287 69 292 90Q301 135 254 279C243 311 243 311 237 327Q180 459 148 490Q133 506 137 521Q144 540 155 551Q164 560 174 555Q214 536 316 515Q319 514 322 515C353 510 353 510 368 507Q414 500 454 499Q482 499 475 485Q468 472 451 463Q439 460 369 474C338 479 338 479 322 481Q282 485 234 493Q218 494 215 492Q209 480 280 317C294 284 294 284 301 267Z"/>
<path id="z40491d3" d="M322 515Q323 749 304 765Q301 768 225 757Q215 756 215 761Q216 768 226 774Q289 828 313 861Q326 876 340 863Q367 833 369 755Q366 701 368 507C369 485 369 485 369 474Q370 443 379 421Q388 405 372 392Q350 373 323 363Q307 357 299 364Q293 370 303 384Q321 417 322 481C322 504 322 504 322 515Z"/>
<path id="z40491d4" d="M211 603Q177 649 134 688Q107 715 116 749Q119 768 142 761Q200 736 222 662Q234 634 233 608Q232 599 225 597Q218 596 211 603Z"/>
<path id="z40491d5" d="M410 586Q450 659 470 667Q482 671 491 656Q495 644 491 624Q479 590 420 563Q413 559 409 570Q405 577 410 586Z"/>
<path id="z40491d6" d="M587 256Q621 225 641 203Q692 146 710 135Q728 122 715 109Q700 96 674 87Q652 80 640 84Q630 87 635 99Q642 123 575 241Q574 242 573 245C570 250 582 260 587 256Z"/>
<path id="z40491d7" d="M589 301Q596 302 607 298Q644 285 739 264Q748 263 754 267Q764 271 765 288Q766 328 753 403Q752 422 733 421Q706 414 685 409Q672 406 675 414Q676 423 698 442Q728 470 745 500Q752 509 761 505Q768 502 781 480Q794 456 806 393Q812 288 825 275Q835 266 829 256Q822 246 788 226Q778 220 720 233Q714 233 594 263C581 266 576 301 589 301Z"/>
<path id="z40491d8" d="M617 344Q653 387 667 390Q676 391 681 378Q682 369 676 355Q669 345 654 339Q630 327 620 325Q614 324 613 332Q612 338 617 344Z"/>
<path id="z40491d9" d="M577 611Q623 575 796 563Q827 560 841 572Q854 584 841 627Q834 682 824 740Q817 785 797 813Q787 825 763 822Q726 812 694 802Q678 798 679 805Q679 811 688 818Q748 870 769 908Q779 927 796 918Q856 884 867 825Q883 743 896 654Q903 617 922 585Q935 569 924 557Q906 536 869 515Q848 503 820 516Q786 529 752 534Q706 538 612 558Q585 562 583 542Q579 353 589 301C591 288 601 274 594 263Q593 260 592 259Q589 256 587 256C578 249 578 249 573 245Q563 238 551 234Q533 228 525 236Q519 242 527 252Q539 276 541 411Q541 525 530 572Q524 591 539 607Q558 623 577 611Z"/>
<path id="z40491d10" d="M614 730Q636 729 657 725Q724 721 771 724Q790 725 796 717Q800 707 790 697Q765 675 727 662Q715 658 694 666Q690 666 491 701Q463 705 422 708Q410 709 410 718Q410 728 426 740Q441 749 467 757Q477 760 491 752Q588 733 614 730Z"/>
<defs>
	<clipPath id="z40491c1"><use xlink:href="#z40491d1"/></clipPath>
	<clipPath id="z40491c2"><use xlink:href="#z40491d2"/></clipPath>
	<clipPath id="z40491c3"><use xlink:href="#z40491d3"/></clipPath>
	<clipPath id="z40491c4"><use xlink:href="#z40491d4"/></clipPath>
	<clipPath id="z40491c5"><use xlink:href="#z40491d5"/></clipPath>
	<clipPath id="z40491c6"><use xlink:href="#z40491d6"/></clipPath>
	<clipPath id="z40491c7"><use xlink:href="#z40491d7"/></clipPath>
	<clipPath id="z40491c8"><use xlink:href="#z40491d8"/></clipPath>
	<clipPath id="z40491c9"><use xlink:href="#z40491d9"/></clipPath>
	<clipPath id="z40491c10"><use xlink:href="#z40491d10"/></clipPath>
</defs>
<path style="--d:1s;" pathLength="3333" clip-path="url(#z40491c1)" d="M137 305L205 310L485 253"/>
<path style="--d:2s;" pathLength="3333" clip-path="url(#z40491c2)" d="M298 71L332 127L178 509L194 524L469 485"/>
<path style="--d:3s;" pathLength="3333" clip-path="url(#z40491c3)" d="M303 368L349 414L340 758L318 816L223 762"/>
<path style="--d:4s;" pathLength="3333" clip-path="url(#z40491c4)" d="M222 602L120 752"/>
<path style="--d:5s;" pathLength="3333" clip-path="url(#z40491c5)" d="M416 571L480 663"/>
<path style="--d:6s;" pathLength="3333" clip-path="url(#z40491c6)" d="M640 88L675 125L580 241"/>
<path style="--d:7s;" pathLength="3333" clip-path="url(#z40491c7)" d="M595 295L744 246L794 267L754 458L680 415"/>
<path style="--d:8s;" pathLength="3333" clip-path="url(#z40491c8)" d="M622 334L670 385"/>
<path style="--d:9s;" pathLength="3333" clip-path="url(#z40491c9)" d="M531 240L564 273L566 582L829 538L886 571L819 845L778 870L689 809"/>
<path style="--d:10s;" pathLength="3333" clip-path="url(#z40491c10)" d="M414 716L475 730L720 692L791 712"/>
</svg>