<!--
AnimCJK 2016-2017 Copyright Francois Mizessyn, http://gooo.free.fr/animCJK/
Derived from:
    MakeMeAHanzi project - https://github.com/skishore/makemeahanzi
    Arphic PL KaitiM GB - https://apps.ubuntu.com/cat/applications/precise/fonts-arphic-gkai00mp/
    Arphic PL UKai - https://apps.ubuntu.com/cat/applications/fonts-arphic-ukai/
You can redistribute and/or modify this file under the terms of the Arphic Public License
as published by Arphic Technology Co., Ltd.
You should have received a copy of this license (the directory "APL") along with this file;
if not, see http://ftp.gnu.org/non-gnu/chinese-fonts-truetype/LICENSE.
-->
<svg id="z40509" class="acjk" version="1.1" viewBox="0 0 1024 1024" xmlns="http://www.w3.org/2000/svg" xmlns:xlink="http://www.w3.org/1999/xlink">
<style>
<![CDATA[
	@keyframes z40509k {
		from {
			stroke:#c00;
			stroke-dashoffset:3000;
		}
		75% {
			stroke:#c00;
			stroke-dashoffset:0;
		}
		to {
			stroke:#000;
		}
	}
	#z40509 path[clip-path] {
		animation:z40509k 1s linear both;
		stroke-dasharray:3000;
		stroke-width:128;
		stroke-linecap:round;
		fill:none;
	}
	#z40509 path[clip-path="url(#z40509c1)"] {animation-delay:1s;}
	#z40509 path[clip-path="url(#z40509c2)"] {animation-delay:2s;}
	#z40509 path[clip-path="url(#z40509c3)"] {animation-delay:3s;}
	#z40509 path[clip-path="url(#z40509c4)"] {animation-delay:4s;}
	#z40509 path[clip-path="url(#z40509c5)"] {animation-delay:5s;}
	#z40509 path[clip-path="url(#z40509c6)"] {animation-delay:6s;}
	#z40509 path[clip-path="url(#z40509c7)"] {animation-delay:7s;}
	#z40509 path[clip-path="url(#z40509c8)"] {animation-delay:8s;}
	#z40509 path[clip-path="url(#z40509c9)"] {animation-delay:9s;}
	#z40509 path[clip-path="url(#z40509c10)"] {animation-delay:10s;}
	#z40509 path[clip-path="url(#z40509c11)"] {animation-delay:11s;}
	#z40509 path {fill:#ccc;}
]]>
</style>
<g transform="scale(1,-1) translate(0,-900)">
	<path id="z40509d1" d="M362 698Q377 734 392 748Q399 754 396 764Q395 774 380 785Q344 815 311 805Q302 802 306 789Q325 696 191 510Q188 507 186 503Q146 451 44 348Q37 342 47 340Q71 343 161 415Q162 418 166 420Q251 496 350 676L362 698Z"/>
	<path id="z40509d2" d="M350 676Q356 672 368 663Q459 600 470 601Q479 602 481 612Q484 624 475 646Q468 668 433 682Q399 692 362 698L350 676Z"/>
	<path id="z40509d3" d="M245 473Q211 463 238 450Q280 432 333 450Q375 462 419 475Q438 482 442 485Q449 492 444 501Q437 511 407 516Q379 517 307 487Q277 480 245 473Z"/>
	<path id="z40509d4" d="M239 350Q229 356 202 361Q190 364 187 359Q180 353 188 338Q216 280 230 183Q233 155 249 135Q265 114 271 129Q277 147 273 178L268 210Q255 297 253 323L239 350Z"/>
	<path id="z40509d5" d="M421 244Q437 311 457 332Q479 357 456 372Q395 405 387 403Q380 403 372 398Q333 373 239 350L253 323Q263 329 348 348Q373 355 380 344Q387 340 382 308Q376 280 370 245L421 244Z"/>
	<path id="z40509d6" d="M273 178Q283 177 296 181Q339 196 435 212Q445 215 446 224Q446 231 421 244L370 245Q367 245 366 244Q312 223 268 210L273 178Z"/>
	<path id="z40509d7" d="M570 639Q633 703 680 756Q695 775 716 789Q735 804 721 818Q705 831 677 841Q652 850 640 844Q627 840 634 828Q643 806 573 679Q564 664 555 647L570 639Z"/>
	<path id="z40509d8" d="M585 603Q585 604 587 604Q627 620 733 642Q742 643 749 639Q759 635 760 618Q761 576 749 501Q748 480 727 482Q703 485 685 487Q672 490 675 482Q676 473 700 456Q725 431 741 404Q748 395 758 399Q765 402 777 424Q793 451 802 521Q808 620 821 633Q831 643 825 653Q816 663 781 682Q769 689 714 674Q704 674 618 650Q590 644 570 639L585 603Z"/>
	<path id="z40509d9" d="M606 550Q642 507 661 505Q671 505 676 519Q677 529 669 545Q656 564 610 571Q603 572 602 564Q601 557 606 550Z"/>
	<path id="z40509d10" d="M555 647Q546 653 537 656Q518 662 509 653Q502 647 511 635Q521 614 523 461Q523 380 511 329Q507 308 521 294Q542 279 564 293Q594 320 715 335Q829 357 852 335Q858 326 832 158Q825 109 803 77Q793 65 731 75Q697 87 699 75Q699 69 708 61Q759 12 776 -22Q786 -43 804 -32Q867 1 878 69Q894 157 907 254Q914 291 932 323Q945 339 934 352Q915 371 878 393Q857 406 829 393Q789 375 752 371Q700 365 594 344Q569 341 570 362Q570 588 585 603L570 639L555 647Z"/>
	<path id="z40509d11" d="M436 172Q423 171 420 162Q417 152 433 140Q473 113 517 128Q649 176 781 197Q797 201 798 208Q799 221 780 230Q752 242 729 235Q534 187 436 172Z"/>
	<defs>
		<clipPath id="z40509c1"><use xlink:href="#z40509d1"/></clipPath>
		<clipPath id="z40509c2"><use xlink:href="#z40509d2"/></clipPath>
		<clipPath id="z40509c3"><use xlink:href="#z40509d3"/></clipPath>
		<clipPath id="z40509c4"><use xlink:href="#z40509d4"/></clipPath>
		<clipPath id="z40509c5"><use xlink:href="#z40509d5"/></clipPath>
		<clipPath id="z40509c6"><use xlink:href="#z40509d6"/></clipPath>
		<clipPath id="z40509c7"><use xlink:href="#z40509d7"/></clipPath>
		<clipPath id="z40509c8"><use xlink:href="#z40509d8"/></clipPath>
		<clipPath id="z40509c9"><use xlink:href="#z40509d9"/></clipPath>
		<clipPath id="z40509c10"><use xlink:href="#z40509d10"/></clipPath>
		<clipPath id="z40509c11"><use xlink:href="#z40509d11"/></clipPath>
	</defs>
	<path pathLength="2999" clip-path="url(#z40509c1)" d="M312 802L352 759L286 614L182 465L51 347"/>
	<path pathLength="2999" clip-path="url(#z40509c2)" d="M358 678L433 652L471 609"/>
	<path pathLength="2999" clip-path="url(#z40509c3)" d="M236 462L437 497"/>
	<path pathLength="2999" clip-path="url(#z40509c4)" d="M191 353L227 313L261 130"/>
	<path pathLength="2999" clip-path="url(#z40509c5)" d="M246 348L373 374L420 355L383 247"/>
	<path pathLength="2999" clip-path="url(#z40509c6)" d="M279 184L369 223L441 225"/>
	<path pathLength="2999" clip-path="url(#z40509c7)" d="M639 837L675 792L563 648"/>
	<path pathLength="2999" clip-path="url(#z40509c8)" d="M577 637L745 662L791 641L760 457L738 441L681 481"/>
	<path pathLength="2999" clip-path="url(#z40509c9)" d="M610 562L671 516"/>
	<path pathLength="2999" clip-path="url(#z40509c10)" d="M516 649L551 594L547 322L833 370L896 334L825 40L785 17L704 74"/>
	<path pathLength="2999" clip-path="url(#z40509c11)" d="M425 159L494 153L793 214"/>
</g>
</svg>