<!--
AnimCJK 2016-2019 Copyright Francois Mizessyn - https://github.com/parsimonhi/animCJK
Derived from:
    MakeMeAHanzi project - https://github.com/skishore/makemeahanzi
    Arphic PL KaitiM GB font
    Arphic PL UKai font
You can redistribute and/or modify this file under the terms of the Arphic Public License
as published by Arphic Technology Co., Ltd.
You should have received a copy of this license along with this file.
If not, see http://ftp.gnu.org/non-gnu/chinese-fonts-truetype/LICENSE.
-->
<svg id="z40520" class="acjk" version="1.1" viewBox="0 0 1024 1024" xmlns="http://www.w3.org/2000/svg" xmlns:xlink="http://www.w3.org/1999/xlink">
<style>
<![CDATA[
@keyframes zk {
	to {
		stroke-dashoffset:0;
	}
}
svg.acjk path[clip-path] {
	--t:0.8s;
	animation:zk var(--t) linear forwards var(--d);
	stroke-dasharray:3337;
	stroke-dashoffset:3339;
	stroke-width:128;
	stroke-linecap:round;
	fill:none;
	stroke:#000;
}
svg.acjk path[id] {fill:#ccc;}
]]>
</style>
<path id="z40520d1" d="M237 193Q253 209 270 230Q280 242 295 242Q304 243 309 231Q313 218 308 193Q302 171 235 151Q222 147 216 149Q212 153 212 164Q215 174 237 193Z"/>
<path id="z40520d2" d="M420 115Q404 154 365 216Q361 223 367 229Q374 229 381 224Q454 152 492 124Q508 117 502 107Q495 94 474 79Q453 64 432 66Q419 67 422 86Q426 99 420 115Z"/>
<path id="z40520d3" d="M441 384Q462 326 486 309Q499 293 487 279Q474 269 431 249Q418 243 400 250Q316 286 197 301Q184 302 185 310Q186 317 202 321Q223 330 251 320Q267 316 284 314C305 309 305 309 315 307Q402 288 410 294Q419 303 402 376C399 389 436 396 441 384Z"/>
<path id="z40520d4" d="M338 430Q387 420 450 413Q460 412 460 403Q460 396 441 384C430 377 415 373 402 376Q375 379 340 393C313 400 313 400 300 403Q243 415 198 425C188 427 192 455 202 455Q208 455 216 454Q249 444 302 436C326 432 326 432 338 430Z"/>
<path id="z40520d5" d="M336 535Q402 517 436 521Q446 521 451 530Q454 539 436 599Q433 609 421 608Q402 604 377 599Q355 593 370 613Q407 650 414 669Q420 679 430 678Q440 679 453 669Q466 656 487 602Q487 578 515 547Q528 531 519 521Q500 502 470 486Q461 477 392 496Q380 496 337 507C314 512 314 512 302 515Q250 524 219 535Q197 539 186 539Q182 538 182 527Q192 470 202 455C207 446 206 431 198 425Q188 415 171 406Q162 400 155 406Q148 410 155 424Q162 443 155 472Q142 524 126 544Q117 557 125 570Q132 589 143 595Q150 599 169 586Q197 559 278 547C317 539 317 539 336 535Z"/>
<path id="z40520d6" d="M300 595Q293 763 280 811Q271 844 302 890Q312 906 319 910Q329 911 334 899Q344 871 342 844Q336 676 336 535C337 516 337 516 337 507Q337 464 338 430C339 405 339 405 340 393Q341 362 345 342Q346 332 341 326Q326 314 315 307C306 302 280 304 284 314Q299 339 300 403C301 425 301 425 302 436Q302 472 302 515C301 568 301 568 300 595Z"/>
<path id="z40520d7" d="M278 547Q221 650 73 796Q66 803 77 806Q81 807 92 801Q210 729 300 595C328 557 299 505 278 547Z"/>
<path id="z40520d8" d="M586 279Q608 255 670 183Q683 164 701 150Q717 137 704 123Q688 111 662 105Q638 98 628 104Q618 108 624 119Q634 143 573 270C571 275 583 283 586 279Z"/>
<path id="z40520d9" d="M596 316Q596 315 599 314Q638 298 739 275Q748 274 754 277Q764 283 765 300Q764 343 747 422Q746 440 728 437Q706 431 689 426Q676 422 679 430Q679 437 698 457Q723 485 736 513Q743 522 753 518Q760 515 773 494Q791 467 800 405Q806 302 822 287Q832 278 826 268Q819 258 787 239Q777 233 718 246Q706 246 631 268Q604 274 586 279C573 282 585 322 596 316Z"/>
<path id="z40520d10" d="M609 360Q651 409 667 410Q676 411 680 398Q681 389 675 375Q668 363 651 356Q624 343 612 341Q606 340 605 348Q604 354 609 360Z"/>
<path id="z40520d11" d="M573 270Q564 264 555 261Q537 255 529 263Q523 269 531 279Q543 306 540 476Q540 542 526 595Q520 614 535 629Q553 644 575 631Q629 595 784 586Q835 580 850 590Q862 600 835 756Q828 802 807 830Q795 840 730 823Q694 814 695 821Q695 825 703 834Q760 883 779 918Q788 937 804 927Q861 896 873 836Q889 755 903 666Q909 632 926 602Q938 587 927 575Q911 556 876 537Q857 527 830 538Q793 554 757 557Q708 563 605 582Q581 586 580 566Q583 350 596 316C602 299 588 281 573 270Z"/>
<path id="z40520d12" d="M612 743Q726 728 777 731Q796 732 801 724Q805 712 795 704Q768 683 731 670Q718 666 698 675Q554 714 413 729Q401 730 401 739Q401 749 418 760Q433 769 460 776Q469 779 483 771Q516 758 612 743Z"/>
<defs>
	<clipPath id="z40520c1"><use xlink:href="#z40520d1"/></clipPath>
	<clipPath id="z40520c2"><use xlink:href="#z40520d2"/></clipPath>
	<clipPath id="z40520c3"><use xlink:href="#z40520d3"/></clipPath>
	<clipPath id="z40520c4"><use xlink:href="#z40520d4"/></clipPath>
	<clipPath id="z40520c5"><use xlink:href="#z40520d5"/></clipPath>
	<clipPath id="z40520c6"><use xlink:href="#z40520d6"/></clipPath>
	<clipPath id="z40520c7"><use xlink:href="#z40520d7"/></clipPath>
	<clipPath id="z40520c8"><use xlink:href="#z40520d8"/></clipPath>
	<clipPath id="z40520c9"><use xlink:href="#z40520d9"/></clipPath>
	<clipPath id="z40520c10"><use xlink:href="#z40520d10"/></clipPath>
	<clipPath id="z40520c11"><use xlink:href="#z40520d11"/></clipPath>
	<clipPath id="z40520c12"><use xlink:href="#z40520d12"/></clipPath>
</defs>
<path style="--d:1s;" pathLength="3333" clip-path="url(#z40520c1)" d="M218 156L280 200L295 236"/>
<path style="--d:2s;" pathLength="3333" clip-path="url(#z40520c2)" d="M432 76L457 124L369 219"/>
<path style="--d:3s;" pathLength="3333" clip-path="url(#z40520c3)" d="M195 309L422 273L453 302L426 380"/>
<path style="--d:4s;" pathLength="3333" clip-path="url(#z40520c4)" d="M208 447L378 401L454 403"/>
<path style="--d:5s;" pathLength="3333" clip-path="url(#z40520c5)" d="M161 409L179 442L152 544L169 567L405 506L455 503L483 525L441 637L370 606"/>
<path style="--d:6s;" pathLength="3333" clip-path="url(#z40520c6)" d="M291 316L320 344L321 901"/>
<path style="--d:7s;" pathLength="3333" clip-path="url(#z40520c7)" d="M290 551L219 667L81 797"/>
<path style="--d:8s;" pathLength="3333" clip-path="url(#z40520c8)" d="M628 108L664 150L582 272"/>
<path style="--d:9s;" pathLength="3333" clip-path="url(#z40520c9)" d="M594 282L757 257L792 276L755 466L740 477L687 431"/>
<path style="--d:10s;" pathLength="3333" clip-path="url(#z40520c10)" d="M613 349L670 403"/>
<path style="--d:11s;" pathLength="3333" clip-path="url(#z40520c11)" d="M536 269L566 313L562 605L832 560L891 590L826 861L785 881L702 825"/>
<path style="--d:12s;" pathLength="3333" clip-path="url(#z40520c12)" d="M406 739L471 749L728 700L797 716"/>
</svg>