<!--
AnimCJK 2016-2018 Copyright Francois Mizessyn - https://github.com/parsimonhi/animCJK
Derived from:
    MakeMeAHanzi project - https://github.com/skishore/makemeahanzi
    Arphic PL KaitiM GB - https://apps.ubuntu.com/cat/applications/precise/fonts-arphic-gkai00mp/
    Arphic PL UKai - https://apps.ubuntu.com/cat/applications/fonts-arphic-ukai/
You can redistribute and/or modify this file under the terms of the Arphic Public License
as published by Arphic Technology Co., Ltd.
You should have received a copy of this license (the directory "APL") along with this file;
if not, see http://ftp.gnu.org/non-gnu/chinese-fonts-truetype/LICENSE.
-->
<svg id="z40539" class="acjk" version="1.1" viewBox="0 0 1024 1024" xmlns="http://www.w3.org/2000/svg" xmlns:xlink="http://www.w3.org/1999/xlink">
<style>
<![CDATA[
@keyframes z40539k {
	from {
		stroke:#ccc;
		stroke-dashoffset:3334;
	}
	1% {
		stroke:#c00;
		stroke-dashoffset:3334;
	}
	75% {
		stroke:#c00;
		stroke-dashoffset:0;
	}
	to {
		stroke:#000;
	}
}
#z40539 path[clip-path] {
	animation:z40539k 1s linear both;
	stroke-dasharray:3334;
	stroke-width:128;
	stroke-linecap:round;
	fill:none;
}
#z40539 path[clip-path="url(#z40539c1)"] {animation-delay:1s;}
#z40539 path[clip-path="url(#z40539c2)"] {animation-delay:2s;}
#z40539 path[clip-path="url(#z40539c3)"] {animation-delay:3s;}
#z40539 path[clip-path="url(#z40539c4)"] {animation-delay:4s;}
#z40539 path[clip-path="url(#z40539c5)"] {animation-delay:5s;}
#z40539 path[clip-path="url(#z40539c6)"] {animation-delay:6s;}
#z40539 path[clip-path="url(#z40539c7)"] {animation-delay:7s;}
#z40539 path[clip-path="url(#z40539c8)"] {animation-delay:8s;}
#z40539 path[clip-path="url(#z40539c9)"] {animation-delay:9s;}
#z40539 path[clip-path="url(#z40539c10)"] {animation-delay:10s;}
#z40539 path[clip-path="url(#z40539c11)"] {animation-delay:11s;}
#z40539 path[clip-path="url(#z40539c12)"] {animation-delay:12s;}
#z40539 path[clip-path="url(#z40539c13)"] {animation-delay:13s;}
#z40539 path[clip-path="url(#z40539c14)"] {animation-delay:14s;}
#z40539 path {fill:#ccc;}
]]>
</style>
<path id="z40539d1" d="M470 311Q492 236 520 214Q533 198 522 184Q509 174 464 153Q449 147 432 154Q344 190 225 207L257 230Q258 227 328 215L357 209Q385 200 414 195Q433 191 442 198Q449 205 448 222Q439 270 428 309L470 311 Z"/>
<path id="z40539d2" d="M368 323Q372 287 377 258Q378 254 378 249Q385 236 378 228Q368 216 357 209L328 215Q329 216 330 218Q331 225 332 331L368 323 Z"/>
<path id="z40539d3" d="M241 380Q245 380 252 379Q325 361 485 344Q495 343 496 335Q496 328 470 311L428 309Q427 308 424 309Q396 316 368 323L332 331Q283 340 244 347L241 380 Z"/>
<path id="z40539d4" d="M225 207Q201 189 183 196Q173 203 179 215Q197 242 194 323Q194 470 149 603Q119 688 42 815Q38 822 35 827Q34 837 43 835Q76 829 152 701Q161 683 171 663Q222 545 241 380L244 347Q250 272 256 254Q263 241 257 230L225 207 Z"/>
<path id="z40539d5" d="M284 452Q277 445 261 438Q252 434 243 437Q236 441 241 451Q271 622 236 748Q224 793 252 831Q261 843 269 832Q281 820 281 798L284 766Q285 756 286 742Q287 711 288 685L289 657Q290 617 292 587L294 558Q295 497 298 491Q299 482 299 477L284 452 Z"/>
<path id="z40539d6" d="M388 793Q410 821 428 850Q435 865 445 864Q458 863 472 835Q487 802 484 763Q477 678 471 518Q471 493 485 475Q492 465 485 456Q470 440 428 419Q413 412 400 419Q373 432 332 442Q302 448 284 452L299 477Q404 461 411 463L413 464Q441 488 423 761Q419 774 408 772L388 793 Z"/>
<path id="z40539d7" d="M292 587Q344 580 385 574Q404 570 397 559Q387 546 365 543Q329 540 294 558L292 587 Z"/>
<path id="z40539d8" d="M288 685Q348 678 392 673Q413 670 405 659Q395 646 373 641Q343 637 289 657L288 685 Z"/>
<path id="z40539d9" d="M281 798Q290 799 300 797Q328 793 388 793L408 772Q401 765 388 756Q373 747 344 754Q311 761 284 766L281 798 Z"/>
<path id="z40539d10" d="M601 244Q706 127 720 118Q736 105 724 92Q708 79 682 72Q658 65 648 70Q638 74 643 85Q652 106 612 190Q600 212 587 238L601 244 Z"/>
<path id="z40539d11" d="M614 282Q623 273 748 242Q755 241 762 245Q774 249 774 268Q773 313 758 394Q755 415 736 412Q712 408 692 405Q679 404 683 410Q684 417 706 435Q733 459 749 485Q756 494 766 490Q773 487 786 465Q802 435 811 368Q818 266 830 254Q840 245 835 235Q828 225 796 206Q784 197 730 212Q729 212 648 233Q620 239 601 244L614 282 Z"/>
<path id="z40539d12" d="M625 333Q667 384 682 386Q692 387 697 374Q698 364 692 349Q679 325 629 313Q622 312 621 320Q620 326 625 333 Z"/>
<path id="z40539d13" d="M587 238Q580 234 571 230Q553 224 545 232Q539 238 547 248Q559 275 561 418Q561 508 550 560Q544 579 558 594Q577 610 595 597Q649 563 820 554Q851 553 864 565Q874 575 846 730Q840 773 820 801Q811 814 786 811Q755 804 726 798Q710 794 711 801Q711 807 720 814Q775 863 794 897Q804 916 821 906Q881 872 890 813Q906 734 917 646Q924 609 943 579Q956 563 945 550Q927 531 891 509Q870 497 843 509Q807 522 774 526Q726 530 630 547Q603 551 603 530Q599 329 614 282L601 244L587 238 Z"/>
<path id="z40539d14" d="M673 702Q692 701 710 698Q755 691 809 695Q828 696 833 688Q837 676 827 668Q800 647 763 634Q750 630 730 639Q706 646 681 651Q641 658 620 662Q523 677 496 681Q486 682 485 691Q485 701 502 712Q517 721 544 728Q553 731 567 722Q625 707 673 702 Z"/>
<defs>
	<clipPath id="z40539c1"><use xlink:href="#z40539d1"/></clipPath>
	<clipPath id="z40539c2"><use xlink:href="#z40539d2"/></clipPath>
	<clipPath id="z40539c3"><use xlink:href="#z40539d3"/></clipPath>
	<clipPath id="z40539c4"><use xlink:href="#z40539d4"/></clipPath>
	<clipPath id="z40539c5"><use xlink:href="#z40539d5"/></clipPath>
	<clipPath id="z40539c6"><use xlink:href="#z40539d6"/></clipPath>
	<clipPath id="z40539c7"><use xlink:href="#z40539d7"/></clipPath>
	<clipPath id="z40539c8"><use xlink:href="#z40539d8"/></clipPath>
	<clipPath id="z40539c9"><use xlink:href="#z40539d9"/></clipPath>
	<clipPath id="z40539c10"><use xlink:href="#z40539d10"/></clipPath>
	<clipPath id="z40539c11"><use xlink:href="#z40539d11"/></clipPath>
	<clipPath id="z40539c12"><use xlink:href="#z40539d12"/></clipPath>
	<clipPath id="z40539c13"><use xlink:href="#z40539d13"/></clipPath>
	<clipPath id="z40539c14"><use xlink:href="#z40539d14"/></clipPath>
</defs>
<path pathLength="3333" clip-path="url(#z40539c1)" d="M234 208L448 173L487 204L440 306"/>
<path pathLength="3333" clip-path="url(#z40539c2)" d="M334 218L356 251L347 327"/>
<path pathLength="3333" clip-path="url(#z40539c3)" d="M246 373L422 330L487 337"/>
<path pathLength="3333" clip-path="url(#z40539c4)" d="M186 203L225 247L192 532L133 693L44 828"/>
<path pathLength="3333" clip-path="url(#z40539c5)" d="M248 441L273 486L262 833"/>
<path pathLength="3333" clip-path="url(#z40539c6)" d="M292 455L411 439L455 473L453 773L428 849"/>
<path pathLength="3333" clip-path="url(#z40539c7)" d="M300 578L392 564"/>
<path pathLength="3333" clip-path="url(#z40539c8)" d="M292 677L402 659"/>
<path pathLength="3333" clip-path="url(#z40539c9)" d="M288 790L401 774"/>
<path pathLength="3333" clip-path="url(#z40539c10)" d="M647 74L684 112L596 238"/>
<path pathLength="3333" clip-path="url(#z40539c11)" d="M615 274L755 223L805 251L762 445L692 410"/>
<path pathLength="3333" clip-path="url(#z40539c12)" d="M627 318L689 378"/>
<path pathLength="3333" clip-path="url(#z40539c13)" d="M552 237L584 288L582 567L850 531L907 565L846 831L802 859L720 806"/>
<path pathLength="3333" clip-path="url(#z40539c14)" d="M490 689L554 700L753 663L830 679"/>
</svg>