<!--
AnimCJK 2016-2019 Copyright Francois Mizessyn - https://github.com/parsimonhi/animCJK
Derived from:
    MakeMeAHanzi project - https://github.com/skishore/makemeahanzi
    Arphic PL KaitiM GB font
    Arphic PL UKai font
You can redistribute and/or modify this file under the terms of the Arphic Public License
as published by Arphic Technology Co., Ltd.
You should have received a copy of this license along with this file.
If not, see http://ftp.gnu.org/non-gnu/chinese-fonts-truetype/LICENSE.
-->
<svg id="z40548" class="acjk" version="1.1" viewBox="0 0 1024 1024" xmlns="http://www.w3.org/2000/svg" xmlns:xlink="http://www.w3.org/1999/xlink">
<style>
<![CDATA[
@keyframes zk {
	to {
		stroke-dashoffset:0;
	}
}
svg.acjk path[clip-path] {
	--t:0.8s;
	animation:zk var(--t) linear forwards var(--d);
	stroke-dasharray:3337;
	stroke-dashoffset:3339;
	stroke-width:128;
	stroke-linecap:round;
	fill:none;
	stroke:#000;
}
svg.acjk path[id] {fill:#ccc;}
]]>
</style>
<path id="z40548d1" d="M202 286Q190 268 177 258Q174 254 169 258Q165 261 164 271Q168 293 149 338Q140 353 142 369Q145 385 153 399Q160 409 165 401Q175 398 187 363Q196 338 208 311C211 303 207 293 202 286Z"/>
<path id="z40548d2" d="M341 275Q413 251 435 254Q448 255 449 261Q449 265 425 311Q421 321 425 323Q429 326 441 319Q478 294 510 287Q535 280 535 274Q534 267 483 230Q465 215 405 234Q380 237 350 248C317 256 317 256 300 260Q270 266 202 286C194 289 200 309 208 311Q224 315 239 310Q261 300 290 291C324 280 324 280 341 275Z"/>
<path id="z40548d3" d="M259 467Q311 361 332 305Q335 293 341 275C347 257 347 257 350 248Q372 181 390 158Q400 145 395 135Q380 110 337 97Q324 93 308 99Q298 108 307 118Q322 134 324 153Q327 175 300 260C293 281 293 281 290 291Q263 372 230 436C215 461 215 461 208 474Q168 537 81 633Q71 646 82 648Q86 649 98 642Q170 596 223 524C247 486 247 486 259 467Z"/>
<path id="z40548d4" d="M263 713Q263 551 270 510Q277 480 259 467C240 446 240 446 230 436Q223 429 213 425Q203 424 200 430Q193 446 208 474C218 507 218 507 223 524Q223 525 224 528Q224 678 200 780Q190 822 219 864Q220 867 223 869Q239 884 250 859Q262 823 263 742C263 723 263 723 263 713Z"/>
<path id="z40548d5" d="M364 362Q409 398 420 398Q427 397 430 388Q431 378 425 358Q419 343 359 329Q349 328 344 330Q340 333 342 341Q345 348 364 362Z"/>
<path id="z40548d6" d="M389 455Q423 445 463 435Q485 428 488 425Q495 419 491 413Q485 404 463 400Q441 397 418 407Q393 417 366 426Q336 433 300 439Q273 446 294 457Q321 470 359 463C379 458 379 458 389 455Z"/>
<path id="z40548d7" d="M415 546Q439 540 462 537Q481 533 473 522Q463 510 443 508Q431 507 417 510C385 519 385 519 369 524Q335 534 305 545Q292 549 309 561Q316 565 332 563Q350 559 369 555C400 549 400 549 415 546Z"/>
<path id="z40548d8" d="M408 629Q436 622 466 617Q485 613 477 602Q467 590 446 588Q433 587 411 592C382 601 382 601 368 606Q331 618 297 629Q284 633 301 645Q308 648 368 637C395 632 395 632 408 629Z"/>
<path id="z40548d9" d="M404 683Q405 655 408 629C410 604 410 604 411 592Q412 567 415 546C416 522 416 522 417 510Q418 506 418 502Q425 487 417 479Q404 463 389 455C380 450 355 453 359 463Q368 484 369 524C369 545 369 545 369 555Q369 576 368 606C368 627 368 627 368 637Q367 661 367 693C367 706 404 696 404 683Z"/>
<path id="z40548d10" d="M367 693Q316 702 263 713C253 715 254 739 263 742Q275 748 293 743Q353 728 472 709Q479 710 486 700Q487 691 469 684Q448 669 404 683C379 690 379 690 367 693Z"/>
<path id="z40548d11" d="M596 254Q702 122 710 117Q726 104 712 90Q696 80 670 73Q646 67 636 73Q626 77 632 88Q642 109 593 219Q587 229 581 244C579 250 592 259 596 254Z"/>
<path id="z40548d12" d="M605 300Q609 299 613 298Q647 282 734 255Q741 254 747 257Q759 261 758 281Q757 326 739 407Q736 428 717 425Q695 421 677 417Q664 414 667 422Q668 431 690 450Q714 477 727 504Q734 513 744 509Q751 506 765 484Q783 457 797 371Q809 281 820 269Q830 260 825 249Q818 239 785 216Q772 207 719 223Q695 223 601 257C587 262 591 303 605 300Z"/>
<path id="z40548d13" d="M629 345Q663 390 682 394Q692 395 697 382Q698 372 692 357Q676 332 633 325Q626 324 625 332Q624 338 629 345Z"/>
<path id="z40548d14" d="M585 622Q636 585 792 573Q823 569 836 581Q846 590 818 745Q811 788 790 817Q780 830 754 827Q723 820 694 814Q678 810 679 817Q679 823 688 830Q743 879 762 913Q772 932 789 922Q846 889 860 830Q878 751 891 662Q898 625 917 594Q930 578 918 565Q900 546 864 524Q843 512 815 525Q605 576 596 565Q593 561 592 554Q592 350 605 300C607 286 613 264 601 257Q598 256 596 254C586 247 586 247 581 244Q574 240 567 237Q549 231 541 239Q535 245 543 255Q555 282 552 451Q552 529 538 583Q532 604 547 618Q566 634 585 622Z"/>
<path id="z40548d15" d="M504 708Q491 709 488 718Q485 728 501 740Q540 765 592 749Q661 719 769 703Q785 699 786 692Q787 679 768 670Q740 658 717 665Q570 698 504 708Z"/>
<defs>
	<clipPath id="z40548c1"><use xlink:href="#z40548d1"/></clipPath>
	<clipPath id="z40548c2"><use xlink:href="#z40548d2"/></clipPath>
	<clipPath id="z40548c3"><use xlink:href="#z40548d3"/></clipPath>
	<clipPath id="z40548c4"><use xlink:href="#z40548d4"/></clipPath>
	<clipPath id="z40548c5"><use xlink:href="#z40548d5"/></clipPath>
	<clipPath id="z40548c6"><use xlink:href="#z40548d6"/></clipPath>
	<clipPath id="z40548c7"><use xlink:href="#z40548d7"/></clipPath>
	<clipPath id="z40548c8"><use xlink:href="#z40548d8"/></clipPath>
	<clipPath id="z40548c9"><use xlink:href="#z40548d9"/></clipPath>
	<clipPath id="z40548c10"><use xlink:href="#z40548d10"/></clipPath>
	<clipPath id="z40548c11"><use xlink:href="#z40548d11"/></clipPath>
	<clipPath id="z40548c12"><use xlink:href="#z40548d12"/></clipPath>
	<clipPath id="z40548c13"><use xlink:href="#z40548d13"/></clipPath>
	<clipPath id="z40548c14"><use xlink:href="#z40548d14"/></clipPath>
	<clipPath id="z40548c15"><use xlink:href="#z40548d15"/></clipPath>
</defs>
<path style="--d:1s;" pathLength="3333" clip-path="url(#z40548c1)" d="M172 265L184 309L161 396"/>
<path style="--d:2s;" pathLength="3333" clip-path="url(#z40548c2)" d="M209 291L457 240L487 278L430 316"/>
<path style="--d:3s;" pathLength="3333" clip-path="url(#z40548c3)" d="M311 107L360 149L275 388L195 527L84 642"/>
<path style="--d:4s;" pathLength="3333" clip-path="url(#z40548c4)" d="M207 436L246 520L228 869"/>
<path style="--d:5s;" pathLength="3333" clip-path="url(#z40548c5)" d="M349 339L422 389"/>
<path style="--d:6s;" pathLength="3333" clip-path="url(#z40548c6)" d="M293 446L484 417"/>
<path style="--d:7s;" pathLength="3333" clip-path="url(#z40548c7)" d="M304 550L466 528"/>
<path style="--d:8s;" pathLength="3333" clip-path="url(#z40548c8)" d="M297 634L470 606"/>
<path style="--d:9s;" pathLength="3333" clip-path="url(#z40548c9)" d="M367 466L394 497L377 688"/>
<path style="--d:10s;" pathLength="3333" clip-path="url(#z40548c10)" d="M268 736L481 700"/>
<path style="--d:11s;" pathLength="3333" clip-path="url(#z40548c11)" d="M637 79L674 114L592 248"/>
<path style="--d:12s;" pathLength="3333" clip-path="url(#z40548c12)" d="M611 291L734 237L792 262L747 455L726 466L674 423"/>
<path style="--d:13s;" pathLength="3333" clip-path="url(#z40548c13)" d="M633 333L690 385"/>
<path style="--d:14s;" pathLength="3333" clip-path="url(#z40548c14)" d="M547 242L577 297L569 588L817 547L880 581L819 840L776 876L685 819"/>
<path style="--d:15s;" pathLength="3333" clip-path="url(#z40548c15)" d="M492 721L566 726L781 684"/>
</svg>