<!--
AnimCJK 2016-2019 Copyright Francois Mizessyn - https://github.com/parsimonhi/animCJK
Derived from:
    MakeMeAHanzi project - https://github.com/skishore/makemeahanzi
    Arphic PL KaitiM GB font
    Arphic PL UKai font
You can redistribute and/or modify this file under the terms of the Arphic Public License
as published by Arphic Technology Co., Ltd.
You should have received a copy of this license along with this file.
If not, see http://ftp.gnu.org/non-gnu/chinese-fonts-truetype/LICENSE.
-->
<svg id="z40547" class="acjk" version="1.1" viewBox="0 0 1024 1024" xmlns="http://www.w3.org/2000/svg" xmlns:xlink="http://www.w3.org/1999/xlink">
<style>
<![CDATA[
@keyframes zk {
	to {
		stroke-dashoffset:0;
	}
}
svg.acjk path[clip-path] {
	--t:0.8s;
	animation:zk var(--t) linear forwards var(--d);
	stroke-dasharray:3337;
	stroke-dashoffset:3339;
	stroke-width:128;
	stroke-linecap:round;
	fill:none;
	stroke:#000;
}
svg.acjk path[id] {fill:#ccc;}
]]>
</style>
<path id="z40547d1" d="M212 172Q257 229 271 232Q280 233 285 223Q291 211 287 187Q286 171 263 156Q211 125 196 129Q192 132 191 143Q192 152 212 172Z"/>
<path id="z40547d2" d="M390 120Q383 145 344 219Q338 235 352 229Q374 211 434 151Q447 135 466 121Q482 109 470 96Q457 83 431 76Q409 69 398 73Q388 76 393 87Q400 102 390 120Z"/>
<path id="z40547d3" d="M346 293Q388 283 433 275Q476 265 483 259Q490 252 486 245Q480 236 457 230Q436 226 326 260Q271 275 175 286Q145 290 166 305Q193 320 221 317C246 313 246 313 259 311Q290 304 322 297C338 294 338 294 346 293Z"/>
<path id="z40547d4" d="M454 539Q461 499 470 473C481 446 481 446 486 432Q495 410 510 397Q523 381 511 366Q447 321 399 344Q384 348 372 354C345 361 345 361 332 364Q308 367 280 375C253 378 253 378 239 380Q208 383 177 386Q162 387 164 395Q165 402 182 409Q204 419 237 410Q240 409 243 410C266 406 266 406 278 404Q303 398 333 394C359 390 359 390 372 388Q385 384 399 383Q420 379 428 387Q440 396 435 441C431 465 431 465 429 477Q423 507 418 535C416 547 452 551 454 539Z"/>
<path id="z40547d5" d="M470 473Q492 469 517 468Q532 467 532 461Q533 449 519 441Q501 432 486 432C452 438 452 438 435 441Q401 445 372 452C347 457 347 457 334 460Q300 464 275 469C254 472 254 472 244 474Q151 484 97 487Q87 488 83 495Q80 504 93 514Q123 538 161 530Q204 517 244 509C264 504 264 504 274 502Q313 490 334 490C359 487 359 487 372 485Q397 481 429 477C456 474 456 474 470 473Z"/>
<path id="z40547d6" d="M372 583Q415 576 469 572Q479 571 480 563Q480 556 454 539C444 532 430 535 418 535Q414 534 372 545C347 551 347 551 334 554Q301 561 273 567C253 570 253 570 243 572Q203 576 169 582Q151 585 162 600Q172 613 214 608Q218 607 225 607C256 601 256 601 272 598Q299 592 333 589C359 585 359 585 372 583Z"/>
<path id="z40547d7" d="M221 317Q233 345 238 373Q238 376 239 380C242 400 242 400 243 410Q243 416 244 474C244 497 244 497 244 509Q244 542 243 572C239 639 239 639 237 672Q230 735 209 799Q194 842 223 877Q232 889 241 877Q269 841 271 639Q271 618 272 598C273 577 273 577 273 567Q273 531 274 502C275 480 275 480 275 469Q275 432 278 404C279 385 279 385 280 375Q280 356 284 345Q285 329 273 321Q266 315 259 311C248 304 216 305 221 317Z"/>
<path id="z40547d8" d="M372 614Q372 598 372 583C372 558 372 558 372 545Q372 515 372 485C372 463 372 463 372 452Q373 430 373 406Q372 396 372 388C372 365 372 365 372 354Q372 309 370 308Q361 301 346 293C339 289 319 289 322 297Q322 298 324 301Q331 313 332 364C333 384 333 384 333 394Q333 425 334 460C334 480 334 480 334 490Q334 521 334 554C333 577 333 577 333 589Q333 767 323 853Q320 884 342 914Q351 927 359 912Q378 875 373 802Q373 780 372 642C372 623 372 623 372 614Z"/>
<path id="z40547d9" d="M225 607Q183 694 76 817Q70 824 80 826Q93 829 173 754Q206 721 237 672C268 620 252 552 225 607Z"/>
<path id="z40547d10" d="M372 642Q375 642 425 686Q435 695 446 694Q453 693 457 684Q461 672 453 651Q449 638 425 627Q401 620 376 614Q373 613 372 614C363 614 365 636 372 642Z"/>
<path id="z40547d11" d="M605 272Q639 238 658 215Q709 154 721 146Q737 133 724 119Q679 86 648 99Q638 103 644 114Q653 135 591 267Q590 268 590 269C588 274 601 276 605 272Z"/>
<path id="z40547d12" d="M610 310Q664 292 741 275Q748 274 754 277Q764 281 766 299Q766 342 753 418Q752 440 731 437Q707 436 688 433Q675 432 679 438Q680 445 703 462Q730 484 745 509Q752 518 762 514Q769 511 781 489Q796 462 805 389Q808 302 823 285Q833 276 827 267Q820 257 788 237Q775 230 760 234Q750 238 720 244Q678 254 645 262Q623 266 605 272C565 288 570 326 610 310Z"/>
<path id="z40547d13" d="M630 355Q669 401 687 402Q696 403 700 390Q701 381 694 367Q678 343 632 337Q626 336 625 344Q624 350 630 355Z"/>
<path id="z40547d14" d="M590 269Q580 262 567 257Q549 251 541 260Q535 264 543 276Q558 306 556 368Q555 417 554 480Q554 541 542 591Q536 610 551 625Q569 640 591 627Q639 594 786 582Q837 575 853 590Q866 600 853 645Q846 783 821 822Q814 832 792 830Q758 821 730 814Q714 810 715 817Q715 823 724 830Q778 881 797 916Q807 935 824 925Q881 892 894 812Q915 637 921 626Q925 613 933 600Q946 584 934 572Q915 553 878 533Q857 521 830 535Q796 550 762 553Q716 559 621 578Q596 582 596 562Q592 364 610 310C616 296 602 278 590 269Z"/>
<path id="z40547d15" d="M632 739Q746 724 797 727Q816 728 821 720Q825 708 815 700Q788 679 751 666Q738 662 718 671Q574 710 433 725Q421 726 421 735Q421 745 438 756Q453 765 480 772Q489 775 503 767Q536 754 632 739Z"/>
<defs>
	<clipPath id="z40547c1"><use xlink:href="#z40547d1"/></clipPath>
	<clipPath id="z40547c2"><use xlink:href="#z40547d2"/></clipPath>
	<clipPath id="z40547c3"><use xlink:href="#z40547d3"/></clipPath>
	<clipPath id="z40547c4"><use xlink:href="#z40547d4"/></clipPath>
	<clipPath id="z40547c5"><use xlink:href="#z40547d5"/></clipPath>
	<clipPath id="z40547c6"><use xlink:href="#z40547d6"/></clipPath>
	<clipPath id="z40547c7"><use xlink:href="#z40547d7"/></clipPath>
	<clipPath id="z40547c8"><use xlink:href="#z40547d8"/></clipPath>
	<clipPath id="z40547c9"><use xlink:href="#z40547d9"/></clipPath>
	<clipPath id="z40547c10"><use xlink:href="#z40547d10"/></clipPath>
	<clipPath id="z40547c11"><use xlink:href="#z40547d11"/></clipPath>
	<clipPath id="z40547c12"><use xlink:href="#z40547d12"/></clipPath>
	<clipPath id="z40547c13"><use xlink:href="#z40547d13"/></clipPath>
	<clipPath id="z40547c14"><use xlink:href="#z40547d14"/></clipPath>
	<clipPath id="z40547c15"><use xlink:href="#z40547d15"/></clipPath>
</defs>
<path style="--d:1s;" pathLength="3333" clip-path="url(#z40547c1)" d="M199 134L279 225"/>
<path style="--d:2s;" pathLength="3333" clip-path="url(#z40547c2)" d="M399 77L432 114L348 225"/>
<path style="--d:3s;" pathLength="3333" clip-path="url(#z40547c3)" d="M171 297L480 246"/>
<path style="--d:4s;" pathLength="3333" clip-path="url(#z40547c4)" d="M170 392L409 360L459 371L476 392L432 535"/>
<path style="--d:5s;" pathLength="3333" clip-path="url(#z40547c5)" d="M87 496L142 508L527 452"/>
<path style="--d:6s;" pathLength="3333" clip-path="url(#z40547c6)" d="M163 591L470 560"/>
<path style="--d:7s;" pathLength="3333" clip-path="url(#z40547c7)" d="M230 323L259 348L260 412L230 876"/>
<path style="--d:8s;" pathLength="3333" clip-path="url(#z40547c8)" d="M331 303L352 361L350 911"/>
<path style="--d:9s;" pathLength="3333" clip-path="url(#z40547c9)" d="M235 611L200 691L82 819"/>
<path style="--d:10s;" pathLength="3333" clip-path="url(#z40547c10)" d="M378 620L450 687"/>
<path style="--d:11s;" pathLength="3333" clip-path="url(#z40547c11)" d="M648 106L684 142L601 265"/>
<path style="--d:12s;" pathLength="3333" clip-path="url(#z40547c12)" d="M597 272L628 285L763 255L796 283L764 461L743 475L685 440"/>
<path style="--d:13s;" pathLength="3333" clip-path="url(#z40547c13)" d="M633 345L695 391"/>
<path style="--d:14s;" pathLength="3333" clip-path="url(#z40547c14)" d="M546 263L582 318L573 597L851 556L898 588L841 857L803 879L725 821"/>
<path style="--d:15s;" pathLength="3333" clip-path="url(#z40547c15)" d="M426 735L491 745L748 696L817 712"/>
</svg>