<!--
AnimCJK 2016-2019 Copyright Francois Mizessyn - https://github.com/parsimonhi/animCJK
Derived from:
    MakeMeAHanzi project - https://github.com/skishore/makemeahanzi
    Arphic PL KaitiM GB font
    Arphic PL UKai font
You can redistribute and/or modify this file under the terms of the Arphic Public License
as published by Arphic Technology Co., Ltd.
You should have received a copy of this license along with this file.
If not, see http://ftp.gnu.org/non-gnu/chinese-fonts-truetype/LICENSE.
-->
<svg id="z40545" class="acjk" version="1.1" viewBox="0 0 1024 1024" xmlns="http://www.w3.org/2000/svg" xmlns:xlink="http://www.w3.org/1999/xlink">
<style>
<![CDATA[
@keyframes zk {
	to {
		stroke-dashoffset:0;
	}
}
svg.acjk path[clip-path] {
	--t:0.8s;
	animation:zk var(--t) linear forwards var(--d);
	stroke-dasharray:3337;
	stroke-dashoffset:3339;
	stroke-width:128;
	stroke-linecap:round;
	fill:none;
	stroke:#000;
}
svg.acjk path[id] {fill:#ccc;}
]]>
</style>
<path id="z40545d1" d="M147 212Q149 220 167 234Q192 253 209 269Q231 287 243 273Q245 270 246 266Q249 253 239 229Q234 209 183 200Q157 196 149 198Q145 203 147 212Z"/>
<path id="z40545d2" d="M92 379Q82 381 82 389Q83 402 107 411Q118 415 141 422Q150 422 157 414Q163 402 204 365Q244 326 244 315Q239 311 229 316Q110 376 92 379Z"/>
<path id="z40545d3" d="M435 136Q437 154 409 188Q397 202 377 223Q373 229 376 235Q384 237 406 224Q451 197 486 181Q512 175 485 145C482 142 482 142 480 140Q466 124 447 122Q435 122 435 136Z"/>
<path id="z40545d4" d="M384 288Q390 297 435 322Q467 339 474 337Q483 337 483 324Q484 312 474 295Q465 277 400 273Q382 273 382 281Q382 283 384 288Z"/>
<path id="z40545d5" d="M250 475Q278 424 298 355C301 343 301 343 303 337Q327 259 349 132Q360 98 359 91Q359 82 347 74Q308 45 292 47Q272 48 285 70Q312 143 254 352Q235 410 196 473Q162 531 55 611Q24 632 45 633Q108 638 223 512Q224 509 227 506C242 485 242 485 250 475Z"/>
<path id="z40545d6" d="M298 355Q366 388 456 446Q468 456 480 457Q493 455 490 437Q488 426 480 410Q461 371 312 339Q306 337 303 337C297 336 292 352 298 355Z"/>
<path id="z40545d7" d="M263 673Q263 633 267 608C269 589 269 589 270 579Q272 532 276 512C276 509 276 509 276 508C276 500 275 491 270 486Q265 478 250 475C237 473 224 493 227 506Q255 612 206 757Q178 800 208 841Q214 851 221 847Q258 825 259 706Q259 702 260 698C262 681 262 681 263 673Z"/>
<path id="z40545d8" d="M276 508Q360 496 368 500Q377 503 376 527Q385 679 374 794Q373 819 359 823Q353 824 314 812Q303 809 303 815Q303 820 314 829Q335 853 359 884Q369 897 382 898Q394 896 411 865Q438 816 435 771C427 640 427 640 423 575Q420 537 435 511Q443 498 440 492Q439 488 435 484Q421 472 390 461Q374 453 276 485Q272 485 270 486C263 487 269 509 276 508Z"/>
<path id="z40545d9" d="M267 608Q308 598 340 592Q359 588 351 577Q341 567 319 565Q300 565 270 579C261 583 257 610 267 608Z"/>
<path id="z40545d10" d="M265 698Q314 690 342 688Q365 682 353 671Q341 661 324 659Q279 656 263 673C257 679 252 698 260 698C263 698 263 698 265 698Z"/>
<path id="z40545d11" d="M596 249Q632 213 653 189Q704 128 715 120Q731 106 718 92Q674 59 643 72Q632 77 639 87Q647 108 585 239C582 243 592 253 596 249Z"/>
<path id="z40545d12" d="M602 290Q606 290 623 283Q664 268 755 245Q776 242 779 265Q780 267 780 270Q778 314 761 389Q759 410 739 407C708 399 708 399 692 395Q679 392 682 400Q682 407 700 424Q733 455 750 486Q757 496 766 491Q774 488 788 467Q804 443 817 358Q825 273 839 257Q849 249 844 239Q837 229 804 210Q792 202 735 218Q725 218 649 241C618 249 618 249 602 253C590 255 590 292 602 290Z"/>
<path id="z40545d13" d="M624 330Q684 400 694 364Q697 348 681 334Q662 316 626 311Q619 310 619 318Q619 324 624 330Z"/>
<path id="z40545d14" d="M549 594Q564 606 577 602C604 590 604 590 617 584Q630 579 645 576Q741 551 809 549Q845 549 857 557Q869 567 858 611Q839 782 808 827Q796 839 757 827C725 818 725 818 709 814Q693 810 694 817Q694 824 715 843Q757 882 774 910Q777 914 780 920Q789 939 806 929Q866 896 880 827Q898 741 911 637Q918 600 937 568Q945 555 942 549Q941 545 937 541Q919 522 883 502Q866 492 845 499C815 509 815 509 800 514Q783 518 766 521Q723 524 622 545Q595 549 593 529Q589 332 602 290C606 278 612 261 602 253Q599 249 596 249C591 247 589 242 585 239Q550 216 535 230Q529 236 537 245Q549 275 551 416Q551 508 540 559Q534 579 549 594Z"/>
<path id="z40545d15" d="M570 726Q598 712 702 700Q773 692 803 696Q829 696 827 682Q826 675 819 669Q764 628 703 650Q672 653 593 671Q538 682 503 685Q493 686 492 696Q494 714 537 728C544 729 544 729 548 730Q558 733 570 726Z"/>
<defs>
	<clipPath id="z40545c1"><use xlink:href="#z40545d1"/></clipPath>
	<clipPath id="z40545c2"><use xlink:href="#z40545d2"/></clipPath>
	<clipPath id="z40545c3"><use xlink:href="#z40545d3"/></clipPath>
	<clipPath id="z40545c4"><use xlink:href="#z40545d4"/></clipPath>
	<clipPath id="z40545c5"><use xlink:href="#z40545d5"/></clipPath>
	<clipPath id="z40545c6"><use xlink:href="#z40545d6"/></clipPath>
	<clipPath id="z40545c7"><use xlink:href="#z40545d7"/></clipPath>
	<clipPath id="z40545c8"><use xlink:href="#z40545d8"/></clipPath>
	<clipPath id="z40545c9"><use xlink:href="#z40545d9"/></clipPath>
	<clipPath id="z40545c10"><use xlink:href="#z40545d10"/></clipPath>
	<clipPath id="z40545c11"><use xlink:href="#z40545d11"/></clipPath>
	<clipPath id="z40545c12"><use xlink:href="#z40545d12"/></clipPath>
	<clipPath id="z40545c13"><use xlink:href="#z40545d13"/></clipPath>
	<clipPath id="z40545c14"><use xlink:href="#z40545d14"/></clipPath>
	<clipPath id="z40545c15"><use xlink:href="#z40545d15"/></clipPath>
</defs>
<path style="--d:1s;" pathLength="3333" clip-path="url(#z40545c1)" d="M154 203L242 267"/>
<path style="--d:2s;" pathLength="3333" clip-path="url(#z40545c2)" d="M88 389L137 393L237 319"/>
<path style="--d:3s;" pathLength="3333" clip-path="url(#z40545c3)" d="M444 128L461 168L382 227"/>
<path style="--d:4s;" pathLength="3333" clip-path="url(#z40545c4)" d="M387 280L475 329"/>
<path style="--d:5s;" pathLength="3333" clip-path="url(#z40545c5)" d="M287 51L326 99L257 405L170 538L47 626"/>
<path style="--d:6s;" pathLength="3333" clip-path="url(#z40545c6)" d="M304 349L427 398L483 447"/>
<path style="--d:7s;" pathLength="3333" clip-path="url(#z40545c7)" d="M252 483L217 842"/>
<path style="--d:8s;" pathLength="3333" clip-path="url(#z40545c8)" d="M278 491L379 480L407 502L396 827L373 859L313 818"/>
<path style="--d:9s;" pathLength="3333" clip-path="url(#z40545c9)" d="M272 599L345 580"/>
<path style="--d:10s;" pathLength="3333" clip-path="url(#z40545c10)" d="M267 691L350 673"/>
<path style="--d:11s;" pathLength="3333" clip-path="url(#z40545c11)" d="M642 76L678 113L591 243"/>
<path style="--d:12s;" pathLength="3333" clip-path="url(#z40545c12)" d="M610 280L751 229L811 252L774 430L750 449L686 402"/>
<path style="--d:13s;" pathLength="3333" clip-path="url(#z40545c13)" d="M627 319L683 370"/>
<path style="--d:14s;" pathLength="3333" clip-path="url(#z40545c14)" d="M541 232L573 270L575 569L850 525L903 561L832 855L790 882L702 820"/>
<path style="--d:15s;" pathLength="3333" clip-path="url(#z40545c15)" d="M499 697L748 669L820 686"/>
</svg>