<!--
AnimCJK 2016-2019 Copyright Francois Mizessyn - https://github.com/parsimonhi/animCJK
Derived from:
    MakeMeAHanzi project - https://github.com/skishore/makemeahanzi
    Arphic PL KaitiM GB font
    Arphic PL UKai font
You can redistribute and/or modify this file under the terms of the Arphic Public License
as published by Arphic Technology Co., Ltd.
You should have received a copy of this license along with this file.
If not, see http://ftp.gnu.org/non-gnu/chinese-fonts-truetype/LICENSE.
-->
<svg id="z40553" class="acjk" version="1.1" viewBox="0 0 1024 1024" xmlns="http://www.w3.org/2000/svg" xmlns:xlink="http://www.w3.org/1999/xlink">
<style>
<![CDATA[
@keyframes zk {
	to {
		stroke-dashoffset:0;
	}
}
svg.acjk path[clip-path] {
	--t:0.8s;
	animation:zk var(--t) linear forwards var(--d);
	stroke-dasharray:3337;
	stroke-dashoffset:3339;
	stroke-width:128;
	stroke-linecap:round;
	fill:none;
	stroke:#000;
}
svg.acjk path[id] {fill:#ccc;}
]]>
</style>
<path id="z40553d1" d="M313 270Q368 255 430 242Q470 232 476 226Q483 219 479 211Q472 201 445 194Q417 190 332 223C299 232 299 232 283 236Q234 246 179 254Q146 260 170 275Q212 296 260 282Q261 281 265 281C297 274 297 274 313 270Z"/>
<path id="z40553d2" d="M210 453Q273 371 313 270C326 239 326 239 332 223Q354 171 369 153Q379 143 375 134Q366 110 324 97Q312 91 298 97Q289 104 296 113Q308 128 309 144Q310 163 283 236C271 266 271 266 265 281Q240 341 210 388C196 409 196 409 189 419Q152 470 78 542Q68 554 77 556Q81 557 92 551Q137 527 188 477C203 461 203 461 210 453Z"/>
<path id="z40553d3" d="M415 327Q375 306 352 297Q348 294 346 302Q346 309 353 316Q405 356 467 418Q477 430 487 432Q491 433 496 426Q503 417 494 391Q485 364 434 337C421 330 421 330 415 327Z"/>
<path id="z40553d4" d="M210 388Q209 387 209 385Q202 370 183 362Q155 346 141 342Q134 341 133 348Q130 357 174 407Q181 414 189 419C200 425 215 400 210 388Z"/>
<path id="z40553d5" d="M434 337Q465 319 482 312Q494 309 491 302Q487 292 474 279Q461 266 447 265Q437 265 437 278Q437 290 415 327C411 333 428 340 434 337Z"/>
<path id="z40553d6" d="M228 458Q224 454 210 453C199 451 184 467 188 477Q207 523 220 595Q221 620 236 635Q249 651 253 640Q254 633 255 625C255 609 255 609 255 601Q254 594 253 587Q249 569 246 555C244 542 244 542 243 536Q237 503 235 487C233 477 236 464 228 458Z"/>
<path id="z40553d7" d="M374 610Q386 628 397 633Q406 639 417 623Q427 607 450 518Q457 494 475 474Q485 464 476 453Q463 440 430 420Q415 414 363 427Q345 427 228 458C218 460 226 492 235 487Q242 478 376 456Q395 452 402 459Q411 469 409 479Q393 572 382 583C377 591 368 602 374 610Z"/>
<path id="z40553d8" d="M246 555Q250 555 255 555Q316 542 362 535Q380 531 373 522Q364 512 345 508Q312 505 243 536C237 538 240 555 246 555Z"/>
<path id="z40553d9" d="M326 616Q350 612 374 610C383 610 390 588 382 583Q376 579 367 578Q345 575 255 601C247 603 247 625 255 625Q256 625 259 625Q275 622 295 620C316 617 316 617 326 616Z"/>
<path id="z40553d10" d="M295 620Q295 623 297 627Q307 657 306 750Q305 796 299 807Q296 817 276 815Q251 808 226 803Q216 802 215 807Q214 813 222 821Q277 867 296 894Q309 906 318 904Q328 900 338 872Q350 848 351 729C351 716 351 716 351 710Q351 643 350 640Q344 630 326 616C318 609 293 610 295 620Z"/>
<path id="z40553d11" d="M186 687Q164 727 137 762Q118 789 131 820Q137 836 155 826Q200 796 205 739Q211 711 206 688Q202 681 197 679Q190 680 186 687Z"/>
<path id="z40553d12" d="M351 729Q355 733 367 742Q394 761 423 786Q433 795 443 793Q450 793 454 784Q455 774 449 753Q445 737 418 725Q364 706 351 710C345 711 346 725 351 729Z"/>
<path id="z40553d13" d="M600 265Q630 234 649 213Q703 149 713 142Q729 129 716 115Q700 103 674 96Q650 89 640 95Q630 99 635 110Q644 134 581 262C579 268 596 270 600 265Z"/>
<path id="z40553d14" d="M607 301Q644 286 740 264Q749 263 754 266Q764 270 766 287Q766 329 753 402Q752 421 734 419Q715 416 701 414Q688 410 691 418Q692 425 712 444Q734 469 745 493Q752 502 761 498Q768 495 780 474Q798 444 805 375Q808 288 823 273Q832 264 827 255Q820 245 786 226Q771 219 600 265C558 273 567 317 607 301Z"/>
<path id="z40553d15" d="M621 352Q663 401 679 402Q688 403 692 390Q693 381 687 367Q680 355 663 348Q636 335 624 333Q618 332 617 340Q616 346 621 352Z"/>
<path id="z40553d16" d="M581 262Q572 256 563 253Q545 247 537 256Q531 260 539 272Q554 302 552 364Q551 413 550 476Q550 537 538 587Q532 606 547 621Q566 637 584 625Q603 612 642 603Q723 582 808 576Q839 575 851 586Q861 596 834 750Q828 793 808 821Q799 831 778 828Q747 818 718 811Q702 807 703 813Q702 819 711 827Q763 879 780 914Q789 935 807 925Q870 892 878 833Q894 754 905 666Q912 629 931 599Q944 583 932 570Q914 551 878 530Q857 518 830 530Q794 546 761 549Q715 555 617 574Q592 578 592 558Q588 360 606 306Q606 303 607 301C610 286 593 271 581 262Z"/>
<path id="z40553d17" d="M651 726Q672 725 692 722Q740 716 800 720Q819 721 824 713Q830 701 819 692Q758 644 701 668Q685 671 669 674Q624 681 601 685Q489 703 465 704Q455 705 453 715Q454 725 470 736Q485 745 511 753Q521 754 535 748Q568 735 651 726Z"/>
<defs>
	<clipPath id="z40553c1"><use xlink:href="#z40553d1"/></clipPath>
	<clipPath id="z40553c2"><use xlink:href="#z40553d2"/></clipPath>
	<clipPath id="z40553c3"><use xlink:href="#z40553d3"/></clipPath>
	<clipPath id="z40553c4"><use xlink:href="#z40553d4"/></clipPath>
	<clipPath id="z40553c5"><use xlink:href="#z40553d5"/></clipPath>
	<clipPath id="z40553c6"><use xlink:href="#z40553d6"/></clipPath>
	<clipPath id="z40553c7"><use xlink:href="#z40553d7"/></clipPath>
	<clipPath id="z40553c8"><use xlink:href="#z40553d8"/></clipPath>
	<clipPath id="z40553c9"><use xlink:href="#z40553d9"/></clipPath>
	<clipPath id="z40553c10"><use xlink:href="#z40553d10"/></clipPath>
	<clipPath id="z40553c11"><use xlink:href="#z40553d11"/></clipPath>
	<clipPath id="z40553c12"><use xlink:href="#z40553d12"/></clipPath>
	<clipPath id="z40553c13"><use xlink:href="#z40553d13"/></clipPath>
	<clipPath id="z40553c14"><use xlink:href="#z40553d14"/></clipPath>
	<clipPath id="z40553c15"><use xlink:href="#z40553d15"/></clipPath>
	<clipPath id="z40553c16"><use xlink:href="#z40553d16"/></clipPath>
	<clipPath id="z40553c17"><use xlink:href="#z40553d17"/></clipPath>
</defs>
<path style="--d:1s;" pathLength="3333" clip-path="url(#z40553c1)" d="M168 263L476 215"/>
<path style="--d:2s;" pathLength="3333" clip-path="url(#z40553c2)" d="M299 102L341 149L270 318L195 442L81 549"/>
<path style="--d:3s;" pathLength="3333" clip-path="url(#z40553c3)" d="M354 306L452 372L484 426"/>
<path style="--d:4s;" pathLength="3333" clip-path="url(#z40553c4)" d="M141 349L191 411"/>
<path style="--d:5s;" pathLength="3333" clip-path="url(#z40553c5)" d="M447 270L459 304L427 332"/>
<path style="--d:6s;" pathLength="3333" clip-path="url(#z40553c6)" d="M209 461L245 639"/>
<path style="--d:7s;" pathLength="3333" clip-path="url(#z40553c7)" d="M236 464L405 436L439 459L398 629"/>
<path style="--d:8s;" pathLength="3333" clip-path="url(#z40553c8)" d="M254 547L369 526"/>
<path style="--d:9s;" pathLength="3333" clip-path="url(#z40553c9)" d="M261 617L377 592"/>
<path style="--d:10s;" pathLength="3333" clip-path="url(#z40553c10)" d="M302 623L327 663L319 834L297 858L224 809"/>
<path style="--d:11s;" pathLength="3333" clip-path="url(#z40553c11)" d="M197 686L138 823"/>
<path style="--d:12s;" pathLength="3333" clip-path="url(#z40553c12)" d="M356 714L449 785"/>
<path style="--d:13s;" pathLength="3333" clip-path="url(#z40553c13)" d="M641 99L677 134L590 258"/>
<path style="--d:14s;" pathLength="3333" clip-path="url(#z40553c14)" d="M591 268L760 245L795 267L764 443L744 459L697 418"/>
<path style="--d:15s;" pathLength="3333" clip-path="url(#z40553c15)" d="M625 341L682 395"/>
<path style="--d:16s;" pathLength="3333" clip-path="url(#z40553c16)" d="M542 260L578 309L572 596L838 551L896 592L834 850L789 878L707 815"/>
<path style="--d:17s;" pathLength="3333" clip-path="url(#z40553c17)" d="M458 713L513 726L724 690L821 699"/>
</svg>