<!--
AnimCJK 2016-2019 Copyright Francois Mizessyn - https://github.com/parsimonhi/animCJK
Derived from:
    MakeMeAHanzi project - https://github.com/skishore/makemeahanzi
    Arphic PL KaitiM GB font
    Arphic PL UKai font
You can redistribute and/or modify this file under the terms of the Arphic Public License
as published by Arphic Technology Co., Ltd.
You should have received a copy of this license along with this file.
If not, see http://ftp.gnu.org/non-gnu/chinese-fonts-truetype/LICENSE.
-->
<svg id="z40578" class="acjk" version="1.1" viewBox="0 0 1024 1024" xmlns="http://www.w3.org/2000/svg" xmlns:xlink="http://www.w3.org/1999/xlink">
<style>
<![CDATA[
@keyframes zk {
	to {
		stroke-dashoffset:0;
	}
}
svg.acjk path[clip-path] {
	--t:0.8s;
	animation:zk var(--t) linear forwards var(--d);
	stroke-dasharray:3337;
	stroke-dashoffset:3339;
	stroke-width:128;
	stroke-linecap:round;
	fill:none;
	stroke:#000;
}
svg.acjk path[id] {fill:#ccc;}
]]>
</style>
<path id="z40578d1" d="M469 87Q491 105 514 126Q527 136 540 136Q549 135 553 124Q557 111 548 85Q539 61 463 45Q450 44 444 45Q440 49 441 60Q445 70 469 87Z"/>
<path id="z40578d2" d="M589 186Q725 159 729 158Q738 151 734 143Q728 131 702 123Q675 116 647 125Q485 170 311 179Q307 179 303 180C293 182 304 206 314 208Q354 220 388 215Q470 203 556 191C578 188 578 188 589 186Z"/>
<path id="z40578d3" d="M303 180Q287 167 263 157Q244 147 230 152Q218 159 225 173Q244 203 245 263Q244 279 243 301Q237 484 192 617Q147 743 70 861Q66 868 63 874Q62 884 72 882Q102 876 178 759Q197 725 216 685Q282 526 298 327Q304 225 314 208C318 199 311 186 303 180Z"/>
<path id="z40578d4" d="M665 383Q664 387 666 393Q669 406 679 408Q691 408 699 396Q705 393 722 373Q740 330 773 305Q789 292 777 278Q762 262 721 236Q706 226 689 232Q658 239 621 245Q617 245 617 246C583 251 583 251 566 254Q515 261 472 272C440 279 440 279 424 283Q376 290 343 295Q327 295 325 300Q321 304 338 316Q369 332 389 325Q405 319 428 315C456 308 456 308 470 305Q510 295 565 286C594 281 594 281 609 279Q678 264 697 274Q701 278 697 294Q678 349 671 363C668 369 665 376 665 383Z"/>
<path id="z40578d5" d="M472 272Q472 271 473 270Q476 252 465 242Q447 227 426 220Q416 216 408 220Q402 224 407 237Q417 256 423 278Q423 279 424 283C427 304 427 304 428 315Q431 340 436 384C438 395 469 390 469 379Q469 343 470 305C471 283 471 283 472 272Z"/>
<path id="z40578d6" d="M617 246Q618 239 621 235Q625 228 627 222Q630 215 617 203Q602 191 589 186C579 182 554 180 556 191Q556 194 558 199Q568 214 566 254C565 275 565 275 565 286Q564 320 559 361C557 372 590 364 592 353Q601 314 609 279C614 257 614 257 617 246Z"/>
<path id="z40578d7" d="M577 392Q616 388 665 383C672 382 676 368 671 363Q665 357 654 349Q636 340 592 353C570 358 570 358 559 361Q513 370 469 379C447 382 447 382 436 384Q387 390 345 396Q327 397 338 413Q347 425 390 420Q447 405 542 396C565 393 565 393 577 392Z"/>
<path id="z40578d8" d="M387 514Q390 514 505 500Q524 497 517 486Q508 474 487 471Q450 468 389 496C383 498 381 514 387 514Z"/>
<path id="z40578d9" d="M389 496Q390 474 392 471Q396 461 388 453Q382 446 354 435Q344 434 340 436Q336 440 341 452Q366 498 346 564Q345 565 344 568Q337 590 310 613Q303 620 305 634Q308 653 316 662Q323 669 333 661Q375 627 494 564Q506 560 508 553Q509 550 505 549Q498 548 395 585Q386 588 384 584Q383 583 387 514C388 502 388 502 389 496Z"/>
<path id="z40578d10" d="M591 522Q666 518 762 472Q772 465 787 462Q797 458 797 450Q796 444 782 434Q752 415 733 414Q726 413 724 423Q724 450 590 511C587 512 587 522 591 522Z"/>
<path id="z40578d11" d="M876 546Q866 525 848 464Q847 451 841 446Q835 445 832 459Q811 526 797 547Q787 559 754 567Q685 585 624 564Q596 551 591 522C590 515 590 515 590 511Q590 483 601 429Q605 413 595 405Q588 398 577 392C567 386 540 384 542 396Q542 399 544 405Q554 439 553 471Q547 564 577 593Q655 650 804 613Q838 603 872 579Q887 566 876 546Z"/>
<path id="z40578d12" d="M439 670Q402 646 388 647Q370 648 382 669Q403 714 372 819Q366 832 359 850Q343 883 302 917Q287 927 284 932Q283 939 292 939Q319 940 362 909Q416 867 444 727Q450 711 452 700C454 689 448 677 439 670Z"/>
<path id="z40578d13" d="M452 700Q468 699 483 691Q546 670 554 677Q554 758 553 841Q553 898 621 938Q663 962 759 956Q820 952 871 924Q893 911 881 887Q856 833 849 773Q845 764 839 764Q836 764 830 777Q806 867 780 882Q663 909 627 877Q608 862 600 824Q588 758 617 706Q623 693 633 684Q666 663 589 631Q565 621 550 631Q519 650 439 670C428 672 441 700 452 700Z"/>
<defs>
	<clipPath id="z40578c1"><use xlink:href="#z40578d1"/></clipPath>
	<clipPath id="z40578c2"><use xlink:href="#z40578d2"/></clipPath>
	<clipPath id="z40578c3"><use xlink:href="#z40578d3"/></clipPath>
	<clipPath id="z40578c4"><use xlink:href="#z40578d4"/></clipPath>
	<clipPath id="z40578c5"><use xlink:href="#z40578d5"/></clipPath>
	<clipPath id="z40578c6"><use xlink:href="#z40578d6"/></clipPath>
	<clipPath id="z40578c7"><use xlink:href="#z40578d7"/></clipPath>
	<clipPath id="z40578c8"><use xlink:href="#z40578d8"/></clipPath>
	<clipPath id="z40578c9"><use xlink:href="#z40578d9"/></clipPath>
	<clipPath id="z40578c10"><use xlink:href="#z40578d10"/></clipPath>
	<clipPath id="z40578c11"><use xlink:href="#z40578d11"/></clipPath>
	<clipPath id="z40578c12"><use xlink:href="#z40578d12"/></clipPath>
	<clipPath id="z40578c13"><use xlink:href="#z40578d13"/></clipPath>
</defs>
<path style="--d:1s;" pathLength="3333" clip-path="url(#z40578c1)" d="M449 53L518 92L543 131"/>
<path style="--d:2s;" pathLength="3333" clip-path="url(#z40578c2)" d="M311 182L398 193L730 143"/>
<path style="--d:3s;" pathLength="3333" clip-path="url(#z40578c3)" d="M232 161L277 218L242 527L184 699L71 876"/>
<path style="--d:4s;" pathLength="3333" clip-path="url(#z40578c4)" d="M335 304L696 250L739 292L677 402"/>
<path style="--d:5s;" pathLength="3333" clip-path="url(#z40578c5)" d="M413 225L447 265L448 381"/>
<path style="--d:6s;" pathLength="3333" clip-path="url(#z40578c6)" d="M566 198L596 230L569 356"/>
<path style="--d:7s;" pathLength="3333" clip-path="url(#z40578c7)" d="M341 404L664 368"/>
<path style="--d:8s;" pathLength="3333" clip-path="url(#z40578c8)" d="M396 505L512 488"/>
<path style="--d:9s;" pathLength="3333" clip-path="url(#z40578c9)" d="M346 442L372 471L356 625L501 555"/>
<path style="--d:10s;" pathLength="3333" clip-path="url(#z40578c10)" d="M791 453L743 445L596 515"/>
<path style="--d:11s;" pathLength="3333" clip-path="url(#z40578c11)" d="M549 401L577 431L583 561L651 597L746 597L827 567L844 545L838 454"/>
<path style="--d:12s;" pathLength="3333" clip-path="url(#z40578c12)" d="M386 657L420 703L393 825L355 890L293 934"/>
<path style="--d:13s;" pathLength="3333" clip-path="url(#z40578c13)" d="M446 672L559 653L594 667L579 849L649 919L744 923L823 900L845 877L838 769"/>
</svg>