<!--
AnimCJK 2016-2026 Copyright FM-SH, https://github.com/parsimonhi/animCJK
Derived from:
    MakeMeAHanzi project - https://github.com/skishore/makemeahanzi
    Arphic PL KaitiM GB font
    Arphic PL KaitiM Big5 font
You can redistribute and/or modify this file under the terms of the Arphic Public License
as published by Arphic Technology Co., Ltd.
You should have received a copy of this license along with this file.
If not, see https://ftp.gnu.org/non-gnu/chinese-fonts-truetype/LICENSE.
-->
<svg id="z40584" class="acjk" viewBox="0 0 1024 1024" xmlns="http://www.w3.org/2000/svg">
<style>
<![CDATA[
@keyframes zk {
	to {
		stroke-dashoffset:0;
	}
}
svg.acjk path[clip-path] {
	--t:0.8s;
	animation:zk var(--t) linear forwards var(--d);
	stroke-dasharray:3337;
	stroke-dashoffset:3339;
	stroke-width:128;
	stroke-linecap:round;
	fill:none;
	stroke:#000;
}
svg.acjk path[id] {fill:#ccc;}
]]>
</style>
<path id="z40584d1" d="M477 91C497 99 517 111 540 122C548 125 579 137 581 108C581 98 576 83 565 68C557 58 544 49 523 48C473 44 444 46 439 53C425 69 468 87 477 91Z"/>
<path id="z40584d2" d="M586 191C628 185 727 166 741 158C755 148 746 132 714 124C697 119 646 130 560 152C493 168 372 176 349 181C341 183 345 202 353 205C377 215 409 217 449 211C485 205 522 198 562 194C578 192 578 192 586 191Z"/>
<path id="z40584d3" d="M349 181C338 170 323 161 307 152C279 135 260 147 270 165C280 185 285 214 283 253C269 466 193 649 72 822C58 841 64 855 86 836C296 654 328 319 340 250C343 225 349 211 353 205C357 198 355 186 349 181Z"/>
<path id="z40584d4" d="M656 393C664 407 675 407 691 397C697 392 708 382 714 369C726 341 741 317 763 301C773 292 774 283 766 274C757 264 738 251 710 234C688 220 644 238 621 243C587 250 587 250 570 253C553 256 502 266 486 270C454 277 454 277 438 281C408 287 383 289 363 292C350 293 332 297 358 312C377 323 394 324 406 320C416 316 428 312 444 309C471 302 471 302 485 299C507 293 534 288 567 283C596 278 596 278 611 275C643 269 694 254 686 291C677 328 667 351 662 362C658 372 650 385 656 393Z"/>
<path id="z40584d5" d="M486 270C486 261 483 253 477 248C466 239 453 233 440 229C430 225 412 226 422 246C427 257 435 268 438 281C442 300 442 300 444 309C447 326 450 354 456 392C458 403 488 397 488 386C486 356 484 326 485 299C486 280 486 280 486 270Z"/>
<path id="z40584d6" d="M621 243C630 212 629 203 586 191C579 188 562 186 562 194C559 204 572 228 570 253C568 273 568 273 567 283C564 309 560 339 556 372C554 383 586 375 588 364C596 333 602 303 611 275C618 254 618 254 621 243Z"/>
<path id="z40584d7" d="M599 400C615 398 634 395 656 393C666 391 670 369 662 362C645 345 607 359 588 364C567 369 567 369 556 372C531 378 508 382 488 386C467 390 467 390 456 392C435 395 415 397 396 400C385 401 382 406 390 417C396 425 408 431 425 427C459 418 508 409 571 403C590 401 590 401 599 400Z"/>
<path id="z40584d8" d="M387 506C406 506 427 498 518 481C544 475 528 456 498 453C482 451 445 463 389 486C383 488 380 506 387 506Z"/>
<path id="z40584d9" d="M389 486C390 471 399 456 387 444C374 431 364 424 355 422C342 418 332 422 341 439C366 489 363 535 334 575C333 575 333 575 333 576C325 586 323 596 327 608C331 624 337 636 345 643C349 647 354 644 363 636C378 618 414 589 472 551C500 532 490 527 475 533C421 551 391 561 388 559C383 555 383 537 387 506C388 493 388 493 389 486Z"/>
<path id="z40584d10" d="M613 490C685 476 747 461 789 447C809 439 793 423 785 418C766 404 751 398 740 397C735 396 732 398 731 404C726 422 687 446 613 477C609 479 609 491 613 490Z"/>
<path id="z40584d11" d="M860 524C854 513 842 495 835 466C831 454 827 441 821 461C810 494 798 515 791 525C784 532 772 538 754 543C714 553 675 553 641 538C618 528 613 515 613 490C613 485 612 492 613 477C613 463 616 447 621 431C625 414 611 405 599 400C590 397 569 394 571 403C571 408 582 430 580 467C577 514 584 547 602 563C640 595 712 604 790 587C812 581 836 571 856 554C864 546 866 535 860 524Z"/>
<path id="z40584d12" d="M505 600C538 623 558 637 567 636C586 631 580 609 570 590C565 581 556 574 542 571C508 563 486 561 480 565C476 566 475 572 478 579C479 584 490 589 505 600Z"/>
<path id="z40584d13" d="M532 697C562 693 679 676 693 668C712 655 682 640 668 636C651 630 634 632 616 637C582 646 546 654 510 661C469 668 425 670 378 673C357 674 352 682 367 692C402 716 447 706 488 702C517 699 517 699 532 697Z"/>
<path id="z40584d14" d="M548 797C560 795 599 788 667 784C677 783 698 772 667 755C636 738 584 751 551 758C514 765 514 765 496 768C432 779 405 777 384 780C367 781 365 786 378 797C390 807 409 815 434 814C453 812 474 807 498 804C531 799 531 799 548 797Z"/>
<path id="z40584d15" d="M542 864C542 839 546 817 548 797C550 771 550 771 551 758C553 723 558 718 532 697C520 688 483 688 488 702C490 704 493 726 496 768C497 792 497 792 498 804C498 820 498 842 499 868C499 882 542 878 542 864Z"/>
<path id="z40584d16" d="M499 868C425 874 345 879 261 886C247 887 244 894 255 906C274 927 303 933 323 929C464 896 634 889 833 903C857 904 874 889 851 870C818 842 788 831 763 835C708 843 634 855 542 864C513 867 513 867 499 868Z"/>
<defs>
	<clipPath id="z40584c1"><use href="#z40584d1"/></clipPath>
	<clipPath id="z40584c2"><use href="#z40584d2"/></clipPath>
	<clipPath id="z40584c3"><use href="#z40584d3"/></clipPath>
	<clipPath id="z40584c4"><use href="#z40584d4"/></clipPath>
	<clipPath id="z40584c5"><use href="#z40584d5"/></clipPath>
	<clipPath id="z40584c6"><use href="#z40584d6"/></clipPath>
	<clipPath id="z40584c7"><use href="#z40584d7"/></clipPath>
	<clipPath id="z40584c8"><use href="#z40584d8"/></clipPath>
	<clipPath id="z40584c9"><use href="#z40584d9"/></clipPath>
	<clipPath id="z40584c10"><use href="#z40584d10"/></clipPath>
	<clipPath id="z40584c11"><use href="#z40584d11"/></clipPath>
	<clipPath id="z40584c12"><use href="#z40584d12"/></clipPath>
	<clipPath id="z40584c13"><use href="#z40584d13"/></clipPath>
	<clipPath id="z40584c14"><use href="#z40584d14"/></clipPath>
	<clipPath id="z40584c15"><use href="#z40584d15"/></clipPath>
	<clipPath id="z40584c16"><use href="#z40584d16"/></clipPath>
</defs>
<path style="--d:1s;" pathLength="3333" clip-path="url(#z40584c1)" d="M445 60L578 111"/>
<path style="--d:2s;" pathLength="3333" clip-path="url(#z40584c2)" d="M348 188L743 144"/>
<path style="--d:3s;" pathLength="3333" clip-path="url(#z40584c3)" d="M273 151L318 203L266 487L192 667L72 838"/>
<path style="--d:4s;" pathLength="3333" clip-path="url(#z40584c4)" d="M349 298L679 248L727 295L667 398"/>
<path style="--d:5s;" pathLength="3333" clip-path="url(#z40584c5)" d="M426 232L460 268L471 395"/>
<path style="--d:6s;" pathLength="3333" clip-path="url(#z40584c6)" d="M569 192L597 225L566 373"/>
<path style="--d:7s;" pathLength="3333" clip-path="url(#z40584c7)" d="M391 408L664 377"/>
<path style="--d:8s;" pathLength="3333" clip-path="url(#z40584c8)" d="M388 498L523 466"/>
<path style="--d:9s;" pathLength="3333" clip-path="url(#z40584c9)" d="M343 424L372 463L364 599L480 535"/>
<path style="--d:10s;" pathLength="3333" clip-path="url(#z40584c10)" d="M740 400L749 437L618 483"/>
<path style="--d:11s;" pathLength="3333" clip-path="url(#z40584c11)" d="M579 404L600 437L604 532L659 567L737 571L814 546L833 523L828 461"/>
<path style="--d:12s;" pathLength="3333" clip-path="url(#z40584c12)" d="M482 570L572 629"/>
<path style="--d:13s;" pathLength="3333" clip-path="url(#z40584c13)" d="M365 681L692 659"/>
<path style="--d:14s;" pathLength="3333" clip-path="url(#z40584c14)" d="M376 787L678 769"/>
<path style="--d:15s;" pathLength="3333" clip-path="url(#z40584c15)" d="M496 697L523 734L526 873"/>
<path style="--d:16s;" pathLength="3333" clip-path="url(#z40584c16)" d="M258 895L771 866L857 880"/>
</svg>