<!--
AnimCJK 2016-2019 Copyright Francois Mizessyn - https://github.com/parsimonhi/animCJK
Derived from:
    MakeMeAHanzi project - https://github.com/skishore/makemeahanzi
    Arphic PL KaitiM GB font
    Arphic PL UKai font
You can redistribute and/or modify this file under the terms of the Arphic Public License
as published by Arphic Technology Co., Ltd.
You should have received a copy of this license along with this file.
If not, see http://ftp.gnu.org/non-gnu/chinese-fonts-truetype/LICENSE.
-->
<svg id="z40607" class="acjk" version="1.1" viewBox="0 0 1024 1024" xmlns="http://www.w3.org/2000/svg" xmlns:xlink="http://www.w3.org/1999/xlink">
<style>
<![CDATA[
@keyframes zk {
	to {
		stroke-dashoffset:0;
	}
}
svg.acjk path[clip-path] {
	--t:0.8s;
	animation:zk var(--t) linear forwards var(--d);
	stroke-dasharray:3337;
	stroke-dashoffset:3339;
	stroke-width:128;
	stroke-linecap:round;
	fill:none;
	stroke:#000;
}
svg.acjk path[id] {fill:#ccc;}
]]>
</style>
<path id="z40607d1" d="M352 126Q370 142 389 161Q405 173 421 171Q433 170 437 156Q441 140 429 109Q417 84 343 76Q327 73 320 77Q314 81 317 95Q321 105 352 126Z"/>
<path id="z40607d2" d="M234 279Q279 285 360 265Q486 235 491 231Q498 224 495 217Q488 208 465 203Q441 199 357 228Q281 246 230 254Q223 255 219 257C211 260 225 277 234 279Z"/>
<path id="z40607d3" d="M219 257Q207 248 190 241Q174 232 162 237Q152 244 158 255Q203 324 149 580Q145 593 141 609Q116 687 49 805Q45 811 43 816Q42 826 50 823Q80 816 143 706Q152 685 163 663Q214 531 226 321Q227 305 231 290Q234 284 234 279C235 270 226 262 219 257Z"/>
<path id="z40607d4" d="M443 476Q453 488 461 493Q468 499 480 483Q487 476 504 426Q510 404 526 386Q536 377 527 367Q517 355 486 337Q471 330 420 347C394 353 394 353 381 356Q353 362 325 371C300 378 300 378 287 381Q259 387 238 392Q226 393 231 401Q235 408 248 412Q257 415 291 404C313 397 313 397 324 394Q348 385 380 379C404 373 404 373 416 370Q452 361 461 370Q465 376 465 382Q456 431 452 439Q449 448 441 450C434 454 438 469 443 476Z"/>
<path id="z40607d5" d="M325 371Q325 359 326 357Q327 341 319 334Q304 322 286 316Q276 312 271 316Q265 320 270 330Q279 349 287 381C290 396 290 396 291 404Q292 431 299 478C301 487 326 480 326 471Q326 429 324 394C325 379 325 379 325 371Z"/>
<path id="z40607d6" d="M420 347Q420 344 421 343Q425 319 433 304Q434 298 424 288Q403 275 389 270Q379 267 374 272Q368 276 373 286Q383 304 381 356C380 371 380 371 380 379Q377 416 374 458C374 468 400 460 402 450Q409 408 416 370C419 355 419 355 420 347Z"/>
<path id="z40607d7" d="M299 478Q265 484 238 490Q223 493 233 505Q237 511 245 513Q252 514 263 512Q318 494 443 476C452 474 448 454 441 450Q440 449 438 448Q425 442 403 449Q402 449 402 450C383 455 383 455 374 458Q349 465 326 471C308 476 308 476 299 478Z"/>
<path id="z40607d8" d="M341 623Q357 617 350 609Q340 600 322 600Q288 603 270 621C266 625 262 640 268 639C317 628 317 628 341 623Z"/>
<path id="z40607d9" d="M270 621Q273 602 276 593Q280 578 271 569Q253 548 239 546Q229 543 225 546Q218 550 225 562Q247 610 227 703Q224 727 214 742Q204 758 211 775Q221 799 234 808Q241 814 251 799Q269 768 330 691Q342 678 342 672Q342 662 328 673Q274 712 267 711Q263 710 262 700Q265 663 268 639C269 627 269 627 270 621Z"/>
<path id="z40607d10" d="M402 605Q444 595 477 586Q493 582 485 573Q476 564 458 563Q431 563 402 582C395 586 394 607 402 605Z"/>
<path id="z40607d11" d="M402 582Q402 557 406 539Q407 527 401 522Q385 509 370 503Q358 499 351 503Q344 507 353 520Q380 562 366 699Q363 721 347 748Q340 763 346 770Q353 779 371 785Q383 789 391 778Q397 756 443 715Q461 702 468 687Q472 678 466 679Q465 679 412 710Q406 714 403 713Q396 712 397 695Q400 640 402 605C402 590 402 590 402 582Z"/>
<path id="z40607d12" d="M551 203Q594 254 612 255Q624 256 628 240Q629 230 621 213Q614 200 595 194Q567 182 554 181Q547 180 546 189Q545 196 551 203Z"/>
<path id="z40607d13" d="M782 147Q766 172 732 210Q728 214 731 220Q737 221 743 219Q807 179 837 165Q850 162 848 153Q844 141 830 127Q817 112 799 110Q789 110 788 124Q789 134 782 147Z"/>
<path id="z40607d14" d="M707 302Q726 296 827 284Q834 285 841 276Q842 267 825 259Q801 243 727 264Q712 265 700 270Q697 270 695 272C674 277 674 277 663 279Q635 283 608 287Q577 290 543 294Q521 297 538 310Q562 331 588 323Q607 317 637 314C684 306 684 306 707 302Z"/>
<path id="z40607d15" d="M695 272Q698 155 722 110Q726 103 717 90Q669 53 645 62Q633 66 639 79Q664 119 662 183Q663 235 663 279C661 324 661 324 660 347Q657 405 652 433Q651 442 666 479Q675 492 688 485Q692 479 694 359Q693 337 693 316C694 287 694 287 695 272Z"/>
<path id="z40607d16" d="M637 314Q625 365 523 448Q513 457 523 457Q530 458 556 445Q581 435 602 416Q632 389 660 347C679 316 644 279 637 314Z"/>
<path id="z40607d17" d="M693 316Q744 377 800 434Q816 450 845 452Q897 453 951 443Q964 442 965 437Q966 433 956 428Q797 376 710 304Q707 303 707 302C695 295 685 305 693 316Z"/>
<path id="z40607d18" d="M500 625Q515 612 533 592Q534 589 536 587C545 574 545 574 550 568Q571 529 582 520Q586 517 584 511Q583 505 575 498Q554 483 534 487Q530 488 531 496Q540 542 452 649Q448 652 454 653Q460 653 488 634C496 628 496 628 500 625Z"/>
<path id="z40607d19" d="M536 587Q546 591 567 586Q597 577 599 581Q603 591 592 632Q582 675 542 737Q503 804 434 869Q416 882 432 880Q529 865 632 652Q659 589 668 580Q677 571 671 563Q667 554 624 540Q614 537 597 547Q581 557 550 568C543 571 528 585 536 587Z"/>
<path id="z40607d20" d="M488 634Q488 640 516 681Q525 693 535 696Q544 697 550 687Q551 680 549 665Q542 643 500 625C495 623 486 629 488 634Z"/>
<path id="z40607d21" d="M818 571Q843 564 870 559Q892 552 896 549Q902 543 899 537Q893 528 871 523Q835 519 822 532C808 543 788 544 770 548Q739 555 705 560Q677 564 698 577Q728 595 771 582C802 575 802 575 818 571Z"/>
<path id="z40607d22" d="M816 712Q852 703 934 706Q950 707 957 697Q961 690 946 681Q900 651 839 672Q827 673 816 677C785 684 785 684 770 688Q742 692 717 701Q695 708 700 689Q709 655 717 642Q724 633 719 626Q715 617 687 606Q674 599 666 604Q657 611 665 621Q689 661 649 711Q640 721 641 731Q644 740 657 750Q667 757 677 747Q720 723 770 719C801 714 801 714 816 712Z"/>
<path id="z40607d23" d="M773 928Q777 950 783 958Q787 964 794 961Q801 958 805 946Q815 910 816 719Q816 715 816 712C816 689 816 689 816 677Q816 631 818 571C821 545 821 545 822 532Q825 517 827 505Q830 490 818 482Q790 464 778 462Q768 458 754 465Q747 472 752 481Q770 511 770 548C771 571 771 571 771 582Q771 628 770 688C770 709 770 709 770 719Q770 905 773 928Z"/>
<defs>
	<clipPath id="z40607c1"><use xlink:href="#z40607d1"/></clipPath>
	<clipPath id="z40607c2"><use xlink:href="#z40607d2"/></clipPath>
	<clipPath id="z40607c3"><use xlink:href="#z40607d3"/></clipPath>
	<clipPath id="z40607c4"><use xlink:href="#z40607d4"/></clipPath>
	<clipPath id="z40607c5"><use xlink:href="#z40607d5"/></clipPath>
	<clipPath id="z40607c6"><use xlink:href="#z40607d6"/></clipPath>
	<clipPath id="z40607c7"><use xlink:href="#z40607d7"/></clipPath>
	<clipPath id="z40607c8"><use xlink:href="#z40607d8"/></clipPath>
	<clipPath id="z40607c9"><use xlink:href="#z40607d9"/></clipPath>
	<clipPath id="z40607c10"><use xlink:href="#z40607d10"/></clipPath>
	<clipPath id="z40607c11"><use xlink:href="#z40607d11"/></clipPath>
	<clipPath id="z40607c12"><use xlink:href="#z40607d12"/></clipPath>
	<clipPath id="z40607c13"><use xlink:href="#z40607d13"/></clipPath>
	<clipPath id="z40607c14"><use xlink:href="#z40607d14"/></clipPath>
	<clipPath id="z40607c15"><use xlink:href="#z40607d15"/></clipPath>
	<clipPath id="z40607c16"><use xlink:href="#z40607d16"/></clipPath>
	<clipPath id="z40607c17"><use xlink:href="#z40607d17"/></clipPath>
	<clipPath id="z40607c18"><use xlink:href="#z40607d18"/></clipPath>
	<clipPath id="z40607c19"><use xlink:href="#z40607d19"/></clipPath>
	<clipPath id="z40607c20"><use xlink:href="#z40607d20"/></clipPath>
	<clipPath id="z40607c21"><use xlink:href="#z40607d21"/></clipPath>
	<clipPath id="z40607c22"><use xlink:href="#z40607d22"/></clipPath>
	<clipPath id="z40607c23"><use xlink:href="#z40607d23"/></clipPath>
</defs>
<path style="--d:1s;" pathLength="3333" clip-path="url(#z40607c1)" d="M325 87L431 161"/>
<path style="--d:2s;" pathLength="3333" clip-path="url(#z40607c2)" d="M228 258L488 222"/>
<path style="--d:3s;" pathLength="3333" clip-path="url(#z40607c3)" d="M163 241L202 286L182 516L143 660L50 816"/>
<path style="--d:4s;" pathLength="3333" clip-path="url(#z40607c4)" d="M239 399L473 353L497 376L458 489"/>
<path style="--d:5s;" pathLength="3333" clip-path="url(#z40607c5)" d="M276 320L305 361L311 474"/>
<path style="--d:6s;" pathLength="3333" clip-path="url(#z40607c6)" d="M381 276L405 307L380 450"/>
<path style="--d:7s;" pathLength="3333" clip-path="url(#z40607c7)" d="M233 498L439 460"/>
<path style="--d:8s;" pathLength="3333" clip-path="url(#z40607c8)" d="M277 630L345 615"/>
<path style="--d:9s;" pathLength="3333" clip-path="url(#z40607c9)" d="M230 552L255 586L247 756L334 674"/>
<path style="--d:10s;" pathLength="3333" clip-path="url(#z40607c10)" d="M482 576L405 593"/>
<path style="--d:11s;" pathLength="3333" clip-path="url(#z40607c11)" d="M356 508L385 556L372 740L392 747L461 686"/>
<path style="--d:12s;" pathLength="3333" clip-path="url(#z40607c12)" d="M553 187L618 248"/>
<path style="--d:13s;" pathLength="3333" clip-path="url(#z40607c13)" d="M842 155L802 146L738 214"/>
<path style="--d:14s;" pathLength="3333" clip-path="url(#z40607c14)" d="M538 300L835 272"/>
<path style="--d:15s;" pathLength="3333" clip-path="url(#z40607c15)" d="M644 67L690 117L676 481"/>
<path style="--d:16s;" pathLength="3333" clip-path="url(#z40607c16)" d="M655 317L598 400L524 452"/>
<path style="--d:17s;" pathLength="3333" clip-path="url(#z40607c17)" d="M701 311L833 417L959 436"/>
<path style="--d:18s;" pathLength="3333" clip-path="url(#z40607c18)" d="M539 496L553 530L460 646"/>
<path style="--d:19s;" pathLength="3333" clip-path="url(#z40607c19)" d="M548 583L609 560L636 583L551 758L435 874"/>
<path style="--d:20s;" pathLength="3333" clip-path="url(#z40607c20)" d="M494 634L540 687"/>
<path style="--d:21s;" pathLength="3333" clip-path="url(#z40607c21)" d="M700 569L892 543"/>
<path style="--d:22s;" pathLength="3333" clip-path="url(#z40607c22)" d="M670 611L697 640L681 726L866 685L953 693"/>
<path style="--d:23s;" pathLength="3333" clip-path="url(#z40607c23)" d="M759 474L796 505L791 955"/>
</svg>