<!--
AnimCJK 2016-2025 Copyright FM-SH - https://github.com/parsimonhi/animCJK
Derived from:
    MakeMeAHanzi project - https://github.com/skishore/makemeahanzi
    Arphic PL KaitiM GB font
    Arphic PL UKai font
You can redistribute and/or modify this file under the terms of the Arphic Public License
as published by Arphic Technology Co., Ltd.
You should have received a copy of this license along with this file.
If not, see https://ftp.gnu.org/non-gnu/chinese-fonts-truetype/LICENSE.
-->
<svg id="z40629" class="acjk" viewBox="0 0 1024 1024" xmlns="http://www.w3.org/2000/svg">
<style>
<![CDATA[
@keyframes zk {
	to {
		stroke-dashoffset:0;
	}
}
svg.acjk path[clip-path] {
	--t:0.8s;
	animation:zk var(--t) linear forwards var(--d);
	stroke-dasharray:3337;
	stroke-dashoffset:3339;
	stroke-width:128;
	stroke-linecap:round;
	fill:none;
	stroke:#000;
}
svg.acjk path[id] {fill:#ccc;}
]]>
</style>
<path id="z40629d1" d="M333 257C405 236 443 226 445 225C450 220 452 214 449 210C440 198 422 195 398 199C386 201 366 209 337 218C311 226 311 226 298 230C273 237 245 241 214 247C195 250 192 257 207 266C221 274 248 281 298 267C321 260 321 260 333 257Z"/>
<path id="z40629d2" d="M329 431C325 372 327 314 333 257C336 231 336 231 337 218C340 187 342 161 351 142C360 123 360 123 364 113C366 107 364 99 357 94C349 87 341 83 335 79C310 63 291 59 278 64C270 66 267 73 272 83C287 111 298 159 298 230C298 255 298 255 298 267C298 313 297 350 296 379C293 419 293 419 292 439C288 487 287 521 296 541C296 541 297 542 299 545C306 554 313 556 321 551C324 548 327 545 329 543C333 534 332 503 330 450C329 437 329 437 329 431Z"/>
<path id="z40629d3" d="M201 362C208 350 225 328 225 328C228 323 227 317 221 312C202 295 186 288 175 290C170 290 168 295 169 302C173 336 157 377 117 424C109 433 102 440 98 446C96 448 95 449 95 451C94 453 96 453 102 453C127 448 169 406 192 375C198 366 198 366 201 362Z"/>
<path id="z40629d4" d="M192 375C202 396 221 419 233 422C237 423 242 421 246 414C248 409 247 401 244 393C240 384 225 374 201 362C196 360 190 370 192 375Z"/>
<path id="z40629d5" d="M431 336C436 328 441 320 447 312C452 304 455 298 455 296C454 290 449 286 443 283C428 274 416 270 404 273C401 273 398 276 400 282C405 305 389 345 345 403C343 405 342 406 347 407C357 407 400 373 419 351C427 341 427 341 431 336Z"/>
<path id="z40629d6" d="M419 351C448 385 467 402 476 403C479 403 482 403 484 402C492 396 493 384 486 369C480 356 461 346 431 336C425 334 415 346 419 351Z"/>
<path id="z40629d7" d="M296 379C246 443 162 514 47 597C42 600 43 604 49 606C62 610 104 589 175 543C209 520 248 485 292 439C306 425 308 363 296 379Z"/>
<path id="z40629d8" d="M330 450C394 492 428 516 435 516C445 515 446 501 439 481C434 467 416 455 388 445C362 435 342 431 329 431C323 431 325 446 330 450Z"/>
<path id="z40629d9" d="M280 590C286 582 289 576 288 571C286 565 280 560 268 557C252 552 241 551 235 553C230 554 227 558 227 565C223 599 185 651 112 722C107 726 105 728 105 730C105 731 108 730 117 730C131 728 150 720 172 702C172 702 199 681 211 669C223 656 223 656 229 649C244 631 254 621 258 617C273 599 273 599 280 590Z"/>
<path id="z40629d10" d="M301 730C261 787 202 850 90 893C80 896 74 896 74 904C74 906 76 907 81 908C149 910 222 878 295 807C301 800 306 794 312 788C312 788 331 766 340 755C354 737 354 737 361 728C405 670 427 634 441 628C450 623 456 617 457 612C457 604 447 595 429 582C410 569 398 561 390 561C384 560 380 561 377 563C351 572 322 583 280 590C269 592 247 615 258 617C264 618 269 621 276 622C285 623 300 618 322 610C340 603 352 602 359 608C360 608 359 611 359 616C355 633 345 665 319 704C307 721 307 721 301 730Z"/>
<path id="z40629d11" d="M211 669C219 674 226 680 235 686C264 707 287 721 301 730C327 747 327 747 340 755C542 885 674 944 720 936C790 922 847 898 896 882C914 875 924 868 927 861C929 854 925 852 915 852C851 850 801 851 764 852C658 853 531 814 383 738C265 677 368 732 361 728C376 734 333 712 319 704C288 686 229 649 229 649C221 644 204 664 211 669Z"/>
<path id="z40629d12" d="M721 254C820 230 869 214 871 214C877 209 878 204 875 199C870 192 859 185 841 182C825 178 788 190 728 209C678 224 629 230 583 238C560 241 557 250 574 259C601 273 635 274 674 265C705 258 705 258 721 254Z"/>
<path id="z40629d13" d="M646 432C702 345 722 319 738 306C747 297 750 292 746 284C740 275 733 265 721 254C710 243 674 249 674 265C676 285 664 325 608 440C603 452 638 442 646 432Z"/>
<path id="z40629d14" d="M540 455C533 451 520 447 503 443C496 441 492 441 489 444C485 447 485 453 490 464C510 518 524 588 530 675C531 701 537 723 550 741C559 755 566 757 570 748C571 743 574 737 575 730C576 711 576 711 576 702C576 690 575 676 573 662C560 572 552 513 550 485C550 474 549 460 540 455Z"/>
<path id="z40629d15" d="M799 711C806 730 815 751 822 760C826 765 831 768 836 768C842 767 847 761 854 751C871 724 888 655 904 542C908 510 913 486 923 472C928 464 929 460 929 455C927 447 919 435 900 420C866 393 855 395 835 400C818 403 800 406 782 409C742 414 696 421 646 432C621 437 621 437 608 440C594 442 565 449 540 455C530 457 541 490 550 485C552 481 569 475 601 469C620 465 620 465 630 463C662 456 696 449 731 444C752 441 752 441 763 439C812 431 840 433 847 439C853 444 856 453 857 467C857 501 851 547 842 608C834 655 827 688 822 693C817 701 795 702 799 711Z"/>
<path id="z40629d16" d="M659 688C658 667 658 647 658 628C657 610 657 610 657 601C656 582 656 564 656 547C656 528 656 528 656 519C656 495 658 488 656 482C651 471 642 467 630 463C621 459 597 460 601 469C609 483 617 558 627 694C627 705 659 699 659 688Z"/>
<path id="z40629d17" d="M775 673C784 515 795 480 792 466C789 454 772 446 763 439C754 433 727 434 731 444C741 462 743 485 743 516C743 529 743 529 743 535C743 549 741 567 741 589C741 608 741 608 741 618C741 634 739 655 739 677C739 689 775 685 775 673Z"/>
<path id="z40629d18" d="M656 547C686 542 724 537 743 535C749 534 748 520 743 516C737 511 729 507 719 507C705 505 684 510 656 519C647 522 647 549 656 547Z"/>
<path id="z40629d19" d="M658 628C688 622 715 618 741 618C751 618 750 593 741 589C738 588 735 586 731 586C702 583 677 589 657 601C649 606 649 630 658 628Z"/>
<path id="z40629d20" d="M575 730C587 732 706 716 799 711C809 711 829 700 822 693C811 681 793 670 775 673C751 676 751 676 739 677C725 678 675 685 659 688C638 692 638 692 627 694C609 697 592 698 576 702C567 704 566 730 575 730Z"/>
<defs>
	<clipPath id="z40629c1"><use href="#z40629d1"/></clipPath>
	<clipPath id="z40629c2"><use href="#z40629d2"/></clipPath>
	<clipPath id="z40629c3"><use href="#z40629d3"/></clipPath>
	<clipPath id="z40629c4"><use href="#z40629d4"/></clipPath>
	<clipPath id="z40629c5"><use href="#z40629d5"/></clipPath>
	<clipPath id="z40629c6"><use href="#z40629d6"/></clipPath>
	<clipPath id="z40629c7"><use href="#z40629d7"/></clipPath>
	<clipPath id="z40629c8"><use href="#z40629d8"/></clipPath>
	<clipPath id="z40629c9"><use href="#z40629d9"/></clipPath>
	<clipPath id="z40629c10"><use href="#z40629d10"/></clipPath>
	<clipPath id="z40629c11"><use href="#z40629d11"/></clipPath>
	<clipPath id="z40629c12"><use href="#z40629d12"/></clipPath>
	<clipPath id="z40629c13"><use href="#z40629d13"/></clipPath>
	<clipPath id="z40629c14"><use href="#z40629d14"/></clipPath>
	<clipPath id="z40629c15"><use href="#z40629d15"/></clipPath>
	<clipPath id="z40629c16"><use href="#z40629d16"/></clipPath>
	<clipPath id="z40629c17"><use href="#z40629d17"/></clipPath>
	<clipPath id="z40629c18"><use href="#z40629d18"/></clipPath>
	<clipPath id="z40629c19"><use href="#z40629d19"/></clipPath>
	<clipPath id="z40629c20"><use href="#z40629d20"/></clipPath>
</defs>
<path style="--d:1s;" pathLength="3333" clip-path="url(#z40629c1)" d="M206 255L445 214"/>
<path style="--d:2s;" pathLength="3333" clip-path="url(#z40629c2)" d="M278 72L327 122L319 549"/>
<path style="--d:3s;" pathLength="3333" clip-path="url(#z40629c3)" d="M176 297L196 332L103 446"/>
<path style="--d:4s;" pathLength="3333" clip-path="url(#z40629c4)" d="M200 370L235 417"/>
<path style="--d:5s;" pathLength="3333" clip-path="url(#z40629c5)" d="M409 280L423 312L351 399"/>
<path style="--d:6s;" pathLength="3333" clip-path="url(#z40629c6)" d="M426 344L482 396"/>
<path style="--d:7s;" pathLength="3333" clip-path="url(#z40629c7)" d="M297 388L217 487L52 600"/>
<path style="--d:8s;" pathLength="3333" clip-path="url(#z40629c8)" d="M330 437L436 508"/>
<path style="--d:9s;" pathLength="3333" clip-path="url(#z40629c9)" d="M235 557L252 587L119 722"/>
<path style="--d:10s;" pathLength="3333" clip-path="url(#z40629c10)" d="M263 612L360 584L407 613L256 815L165 876L81 902"/>
<path style="--d:11s;" pathLength="3333" clip-path="url(#z40629c11)" d="M215 662L641 878L716 894L921 859"/>
<path style="--d:12s;" pathLength="3333" clip-path="url(#z40629c12)" d="M572 248L869 206"/>
<path style="--d:13s;" pathLength="3333" clip-path="url(#z40629c13)" d="M681 257L707 299L618 439"/>
<path style="--d:14s;" pathLength="3333" clip-path="url(#z40629c14)" d="M493 449L522 474L559 748"/>
<path style="--d:15s;" pathLength="3333" clip-path="url(#z40629c15)" d="M540 465L829 417L879 435L892 466L826 760"/>
<path style="--d:16s;" pathLength="3333" clip-path="url(#z40629c16)" d="M609 470L634 502L636 696"/>
<path style="--d:17s;" pathLength="3333" clip-path="url(#z40629c17)" d="M739 444L767 477L756 681"/>
<path style="--d:18s;" pathLength="3333" clip-path="url(#z40629c18)" d="M652 536L743 526"/>
<path style="--d:19s;" pathLength="3333" clip-path="url(#z40629c19)" d="M653 616L743 607"/>
<path style="--d:20s;" pathLength="3333" clip-path="url(#z40629c20)" d="M572 719L818 694"/>
</svg>