<!--
AnimCJK 2016-2025 Copyright FM-SH - https://github.com/parsimonhi/animCJK
Derived from:
    MakeMeAHanzi project - https://github.com/skishore/makemeahanzi
    Arphic PL KaitiM GB font
    Arphic PL UKai font
You can redistribute and/or modify this file under the terms of the Arphic Public License
as published by Arphic Technology Co., Ltd.
You should have received a copy of this license along with this file.
If not, see http://ftp.gnu.org/non-gnu/chinese-fonts-truetype/LICENSE.
-->
<svg id="z40636" class="acjk" version="1.1" viewBox="0 0 1024 1024" xmlns="http://www.w3.org/2000/svg" xmlns:xlink="http://www.w3.org/1999/xlink">
<style>
<![CDATA[
@keyframes zk {
	to {
		stroke-dashoffset:0;
	}
}
svg.acjk path[clip-path] {
	--t:0.8s;
	animation:zk var(--t) linear forwards var(--d);
	stroke-dasharray:3337;
	stroke-dashoffset:3339;
	stroke-width:128;
	stroke-linecap:round;
	fill:none;
	stroke:#000;
}
svg.acjk path[id] {fill:#ccc;}
]]>
</style>
<path id="z40636d1" d="M495 72Q520 90 546 111Q561 121 575 119Q585 118 589 104Q592 89 580 62Q573 46 544 36Q475 21 464 29Q460 33 462 45Q466 55 495 72Z"/>
<path id="z40636d2" d="M321 220Q348 229 384 222Q762 162 777 150Q786 143 782 135Q776 123 750 116Q720 107 638 134Q479 174 310 187C298 187 310 218 321 220Z"/>
<path id="z40636d3" d="M310 187Q294 174 271 165Q252 155 238 160Q226 167 233 181Q252 208 253 268Q252 286 251 306Q245 489 201 615Q161 729 82 853Q78 860 76 866Q73 876 84 874Q114 868 188 754Q207 721 226 682Q289 532 309 294Q312 228 321 220C327 210 319 194 310 187Z"/>
<path id="z40636d4" d="M469 362Q490 356 512 352Q536 348 539 344Q545 338 542 332Q538 325 517 319Q496 315 475 323Q474 323 473 324C447 332 447 332 434 336Q374 348 349 350Q324 354 342 366Q370 382 410 373Q411 372 413 373C450 366 450 366 469 362Z"/>
<path id="z40636d5" d="M434 415Q433 482 428 508Q428 512 439 548Q446 560 458 553Q464 547 466 492Q466 398 469 362C472 337 472 337 473 324Q473 323 474 323Q474 302 488 275Q492 268 484 258Q466 245 445 235Q432 229 422 233Q412 237 416 248Q432 275 434 336C434 389 434 389 434 415Z"/>
<path id="z40636d6" d="M413 373Q389 436 302 517Q293 526 300 527Q312 531 353 505Q392 475 434 415C456 379 429 334 413 373Z"/>
<path id="z40636d7" d="M483 415Q514 458 527 461Q536 462 541 451Q542 442 538 429Q523 404 488 398Q482 397 481 404Q480 408 483 415Z"/>
<path id="z40636d8" d="M706 333Q739 323 775 314Q800 307 804 303Q811 296 807 289Q800 280 777 276Q755 273 706 293C681 302 681 302 668 306Q631 315 593 321Q565 328 586 340Q607 352 645 349C686 338 686 338 706 333Z"/>
<path id="z40636d9" d="M706 293Q706 271 720 243Q724 236 716 225Q698 212 677 204Q664 197 654 202Q644 206 648 216Q667 246 668 306C669 361 669 361 669 388Q669 463 663 493Q662 503 675 532Q682 544 694 537Q703 528 700 453Q697 405 700 360C704 315 704 315 706 293Z"/>
<path id="z40636d10" d="M645 349Q630 403 561 481Q554 491 560 491Q573 492 607 467Q632 446 667 392Q668 389 669 388C691 352 653 308 645 349Z"/>
<path id="z40636d11" d="M700 360Q743 423 795 474Q807 486 818 485Q846 476 871 469Q881 466 881 463Q882 460 868 453Q769 408 706 333C694 321 689 346 700 360Z"/>
<path id="z40636d12" d="M542 722C501 720 464 719 430 718C419 717 416 713 423 708C458 677 493 653 525 632C536 624 540 617 541 613C541 604 533 587 516 562C509 551 500 545 488 545C481 544 478 550 479 560C480 582 456 620 405 673C394 683 379 693 362 702C349 708 342 716 342 724C342 736 346 748 353 761C357 769 364 771 374 768C396 759 443 752 514 747C527 747 555 722 542 722Z"/>
<path id="z40636d13" d="M669 826C604 832 534 843 459 858C446 860 444 857 454 849C561 752 638 693 685 670C694 665 698 658 696 650C691 635 679 618 659 600C649 591 640 587 634 588C626 588 622 594 621 606C617 632 580 688 542 722C523 739 523 739 514 747C432 819 383 856 369 861C358 864 353 873 353 883C352 893 361 904 376 922C383 930 389 932 402 926C478 888 571 863 681 847C689 845 677 826 669 826Z"/>
<path id="z40636d14" d="M681 847C714 905 736 935 743 939C748 941 754 939 762 934C772 926 775 907 774 875C773 858 769 842 760 829C751 817 735 805 712 791C685 774 665 763 652 755C645 751 640 751 638 760C634 768 636 777 643 787C651 799 660 811 669 826C677 840 677 840 681 847Z"/>
<defs>
	<clipPath id="z40636c1"><use xlink:href="#z40636d1"/></clipPath>
	<clipPath id="z40636c2"><use xlink:href="#z40636d2"/></clipPath>
	<clipPath id="z40636c3"><use xlink:href="#z40636d3"/></clipPath>
	<clipPath id="z40636c4"><use xlink:href="#z40636d4"/></clipPath>
	<clipPath id="z40636c5"><use xlink:href="#z40636d5"/></clipPath>
	<clipPath id="z40636c6"><use xlink:href="#z40636d6"/></clipPath>
	<clipPath id="z40636c7"><use xlink:href="#z40636d7"/></clipPath>
	<clipPath id="z40636c8"><use xlink:href="#z40636d8"/></clipPath>
	<clipPath id="z40636c9"><use xlink:href="#z40636d9"/></clipPath>
	<clipPath id="z40636c10"><use xlink:href="#z40636d10"/></clipPath>
	<clipPath id="z40636c11"><use xlink:href="#z40636d11"/></clipPath>
	<clipPath id="z40636c12"><use xlink:href="#z40636d12"/></clipPath>
	<clipPath id="z40636c13"><use xlink:href="#z40636d13"/></clipPath>
	<clipPath id="z40636c14"><use xlink:href="#z40636d14"/></clipPath>
</defs>
<path style="--d:1s;" pathLength="3333" clip-path="url(#z40636c1)" d="M468 33L583 111"/>
<path style="--d:2s;" pathLength="3333" clip-path="url(#z40636c2)" d="M311 192L368 203L779 139"/>
<path style="--d:3s;" pathLength="3333" clip-path="url(#z40636c3)" d="M239 167L286 217L251 524L179 726L85 866"/>
<path style="--d:4s;" pathLength="3333" clip-path="url(#z40636c4)" d="M342 357L538 335"/>
<path style="--d:5s;" pathLength="3333" clip-path="url(#z40636c5)" d="M422 241L459 282L446 551"/>
<path style="--d:6s;" pathLength="3333" clip-path="url(#z40636c6)" d="M427 363L405 426L302 521"/>
<path style="--d:7s;" pathLength="3333" clip-path="url(#z40636c7)" d="M490 407L527 455"/>
<path style="--d:8s;" pathLength="3333" clip-path="url(#z40636c8)" d="M586 330L801 291"/>
<path style="--d:9s;" pathLength="3333" clip-path="url(#z40636c9)" d="M654 208L691 245L689 534"/>
<path style="--d:10s;" pathLength="3333" clip-path="url(#z40636c10)" d="M660 336L644 396L564 484"/>
<path style="--d:11s;" pathLength="3333" clip-path="url(#z40636c11)" d="M700 337L805 449L873 462"/>
<path style="--d:12s;" pathLength="3333" clip-path="url(#z40636c12)" d="M488 548L504 604L384 727L397 743L536 727"/>
<path style="--d:13s;" pathLength="3333" clip-path="url(#z40636c13)" d="M632 594L648 654L404 875L419 894L678 841"/>
<path style="--d:14s;" pathLength="3333" clip-path="url(#z40636c14)" d="M645 761L732 856L748 936"/>
</svg>