<!--
AnimCJK 2016-2019 Copyright Francois Mizessyn - https://github.com/parsimonhi/animCJK
Derived from:
    MakeMeAHanzi project - https://github.com/skishore/makemeahanzi
    Arphic PL KaitiM GB font
    Arphic PL UKai font
You can redistribute and/or modify this file under the terms of the Arphic Public License
as published by Arphic Technology Co., Ltd.
You should have received a copy of this license along with this file.
If not, see http://ftp.gnu.org/non-gnu/chinese-fonts-truetype/LICENSE.
-->
<svg id="z40660" class="acjk" version="1.1" viewBox="0 0 1024 1024" xmlns="http://www.w3.org/2000/svg" xmlns:xlink="http://www.w3.org/1999/xlink">
<style>
<![CDATA[
@keyframes zk {
	to {
		stroke-dashoffset:0;
	}
}
svg.acjk path[clip-path] {
	--t:0.8s;
	animation:zk var(--t) linear forwards var(--d);
	stroke-dasharray:3337;
	stroke-dashoffset:3339;
	stroke-width:128;
	stroke-linecap:round;
	fill:none;
	stroke:#000;
}
svg.acjk path[id] {fill:#ccc;}
]]>
</style>
<path id="z40660d1" d="M155 161Q145 157 118 153Q108 150 104 155Q100 161 107 175Q141 241 162 348Q166 381 185 402Q201 421 206 407Q207 400 209 390C211 381 208 373 207 364Q206 351 202 335Q177 227 170 191C168 180 165 165 155 161Z"/>
<path id="z40660d2" d="M406 357Q419 379 433 386Q442 393 456 375Q471 351 503 220Q510 193 532 172Q544 162 534 149Q521 134 483 110Q470 104 383 121Q379 121 377 122Q316 132 155 161C144 163 160 195 170 191Q213 178 275 166C304 161 304 161 318 159Q436 137 450 151Q462 166 459 181Q434 302 423 321Q419 331 406 333Q402 333 403 334C395 336 401 351 406 357Z"/>
<path id="z40660d3" d="M213 253Q237 305 250 310Q259 314 267 303Q270 294 268 279Q259 255 221 236Q215 233 212 240Q209 246 213 253Z"/>
<path id="z40660d4" d="M379 223Q370 247 350 284Q347 288 351 292Q355 293 360 289Q402 244 423 226Q432 222 429 215Q410 191 385 193Q376 194 379 205Q382 212 379 223Z"/>
<path id="z40660d5" d="M331 368Q362 362 406 357C414 356 409 339 403 334Q399 330 392 327Q371 315 331 335C319 342 305 343 291 346Q245 356 207 364C198 366 200 392 209 390C264 380 264 380 291 375C318 370 318 370 331 368Z"/>
<path id="z40660d6" d="M328 562Q328 523 329 487C329 460 329 460 329 447Q329 405 331 368C331 346 331 346 331 335Q332 280 333 232Q336 177 332 171Q325 164 318 159C307 150 270 153 275 166Q279 175 283 183Q290 202 291 346C291 365 291 365 291 375Q291 411 290 458C290 483 290 483 290 495Q290 529 290 572C290 585 328 575 328 562Z"/>
<path id="z40660d7" d="M329 487Q410 468 411 467Q418 460 414 453Q408 444 385 438Q352 432 329 447C317 454 303 455 290 458Q257 465 210 470Q182 474 202 489Q235 507 284 495Q285 495 290 495C316 490 316 490 329 487Z"/>
<path id="z40660d8" d="M290 572Q173 602 139 600Q127 601 126 610Q123 620 131 628Q150 643 178 661Q187 664 198 657Q222 639 380 575Q402 566 417 555Q429 549 429 541Q425 537 414 538Q372 550 328 562C303 569 303 569 290 572Z"/>
<path id="z40660d9" d="M98 693Q79 739 51 783Q35 811 50 841Q57 857 75 845Q94 830 106 803Q121 772 121 743Q125 715 119 692Q115 685 109 684Q102 685 98 693Z"/>
<path id="z40660d10" d="M189 713Q208 762 225 779Q235 785 244 778Q251 771 254 759Q254 726 208 690Q198 683 191 683Q187 682 185 691Q184 700 189 713Z"/>
<path id="z40660d11" d="M284 681Q306 729 325 741Q335 745 344 739Q351 732 352 718Q352 688 300 656Q290 649 282 650Q278 650 277 659Q276 668 284 681Z"/>
<path id="z40660d12" d="M372 640Q414 703 432 705Q442 706 450 693Q451 683 446 664Q433 637 378 618Q371 615 369 625Q368 632 372 640Z"/>
<path id="z40660d13" d="M668 236Q722 128 721 121Q720 118 719 116Q713 104 682 86Q654 71 635 74Q617 78 628 98Q647 129 637 158Q595 318 455 537Q446 547 445 555Q444 565 456 562Q519 535 651 274Q652 268 656 263C664 245 664 245 668 236Z"/>
<path id="z40660d14" d="M656 263Q725 365 813 474Q829 493 857 493Q951 493 982 489Q991 488 992 483Q992 479 980 472Q854 418 796 369Q735 311 668 236C662 228 650 255 656 263Z"/>
<path id="z40660d15" d="M609 478Q631 499 656 524Q666 534 680 534Q689 534 693 523Q697 511 691 487Q687 471 661 457Q601 433 588 437Q584 441 585 451Q588 461 609 478Z"/>
<path id="z40660d16" d="M523 622Q492 622 493 629Q487 645 514 658Q542 679 559 676Q572 675 592 663Q721 603 737 621Q744 636 730 656Q720 671 698 721Q659 797 643 811Q610 839 624 887Q627 906 636 912Q645 916 658 906Q688 887 764 704Q785 652 818 630Q828 623 828 612Q829 599 796 579Q762 558 745 556Q738 557 729 563Q653 600 523 622Z"/>
<defs>
	<clipPath id="z40660c1"><use xlink:href="#z40660d1"/></clipPath>
	<clipPath id="z40660c2"><use xlink:href="#z40660d2"/></clipPath>
	<clipPath id="z40660c3"><use xlink:href="#z40660d3"/></clipPath>
	<clipPath id="z40660c4"><use xlink:href="#z40660d4"/></clipPath>
	<clipPath id="z40660c5"><use xlink:href="#z40660d5"/></clipPath>
	<clipPath id="z40660c6"><use xlink:href="#z40660d6"/></clipPath>
	<clipPath id="z40660c7"><use xlink:href="#z40660d7"/></clipPath>
	<clipPath id="z40660c8"><use xlink:href="#z40660d8"/></clipPath>
	<clipPath id="z40660c9"><use xlink:href="#z40660d9"/></clipPath>
	<clipPath id="z40660c10"><use xlink:href="#z40660d10"/></clipPath>
	<clipPath id="z40660c11"><use xlink:href="#z40660d11"/></clipPath>
	<clipPath id="z40660c12"><use xlink:href="#z40660d12"/></clipPath>
	<clipPath id="z40660c13"><use xlink:href="#z40660d13"/></clipPath>
	<clipPath id="z40660c14"><use xlink:href="#z40660d14"/></clipPath>
	<clipPath id="z40660c15"><use xlink:href="#z40660d15"/></clipPath>
	<clipPath id="z40660c16"><use xlink:href="#z40660d16"/></clipPath>
</defs>
<path style="--d:1s;" pathLength="3333" clip-path="url(#z40660c1)" d="M110 161L148 205L194 407"/>
<path style="--d:2s;" pathLength="3333" clip-path="url(#z40660c2)" d="M165 166L443 128L483 144L498 164L426 378"/>
<path style="--d:3s;" pathLength="3333" clip-path="url(#z40660c3)" d="M218 241L260 306"/>
<path style="--d:4s;" pathLength="3333" clip-path="url(#z40660c4)" d="M387 196L402 226L355 285"/>
<path style="--d:5s;" pathLength="3333" clip-path="url(#z40660c5)" d="M212 382L403 345"/>
<path style="--d:6s;" pathLength="3333" clip-path="url(#z40660c6)" d="M283 169L310 197L301 568"/>
<path style="--d:7s;" pathLength="3333" clip-path="url(#z40660c7)" d="M203 479L408 453"/>
<path style="--d:8s;" pathLength="3333" clip-path="url(#z40660c8)" d="M131 613L186 628L420 544"/>
<path style="--d:9s;" pathLength="3333" clip-path="url(#z40660c9)" d="M108 690L58 842"/>
<path style="--d:10s;" pathLength="3333" clip-path="url(#z40660c10)" d="M193 691L239 775"/>
<path style="--d:11s;" pathLength="3333" clip-path="url(#z40660c11)" d="M284 658L337 738"/>
<path style="--d:12s;" pathLength="3333" clip-path="url(#z40660c12)" d="M376 626L444 694"/>
<path style="--d:13s;" pathLength="3333" clip-path="url(#z40660c13)" d="M631 85L680 130L658 193L555 409L452 555"/>
<path style="--d:14s;" pathLength="3333" clip-path="url(#z40660c14)" d="M670 250L841 447L984 482"/>
<path style="--d:15s;" pathLength="3333" clip-path="url(#z40660c15)" d="M593 446L686 524"/>
<path style="--d:16s;" pathLength="3333" clip-path="url(#z40660c16)" d="M496 632L556 646L738 588L781 614L655 852L645 908"/>
</svg>