<!--
AnimCJK 2016-2019 Copyright Francois Mizessyn - https://github.com/parsimonhi/animCJK
Derived from:
    MakeMeAHanzi project - https://github.com/skishore/makemeahanzi
    Arphic PL KaitiM GB font
    Arphic PL UKai font
You can redistribute and/or modify this file under the terms of the Arphic Public License
as published by Arphic Technology Co., Ltd.
You should have received a copy of this license along with this file.
If not, see http://ftp.gnu.org/non-gnu/chinese-fonts-truetype/LICENSE.
-->
<svg id="z40718" class="acjk" version="1.1" viewBox="0 0 1024 1024" xmlns="http://www.w3.org/2000/svg" xmlns:xlink="http://www.w3.org/1999/xlink">
<style>
<![CDATA[
@keyframes zk {
	to {
		stroke-dashoffset:0;
	}
}
svg.acjk path[clip-path] {
	--t:0.8s;
	animation:zk var(--t) linear forwards var(--d);
	stroke-dasharray:3337;
	stroke-dashoffset:3339;
	stroke-width:128;
	stroke-linecap:round;
	fill:none;
	stroke:#000;
}
svg.acjk path[id] {fill:#ccc;}
]]>
</style>
<path id="z40718d1" d="M387 110Q363 91 338 82Q331 79 325 84Q318 90 326 102Q362 174 357 345Q356 379 370 412Q380 434 392 441Q408 448 413 417C414 395 414 395 414 384Q414 375 407 318C406 299 406 299 406 290Q405 269 404 232C404 213 404 213 404 204Q403 171 405 143Q405 139 405 137C405 126 396 116 387 110Z"/>
<path id="z40718d2" d="M579 397Q580 401 584 408Q597 439 606 438Q621 437 638 405Q654 380 654 359Q642 182 677 136Q687 120 680 110Q655 85 608 64Q593 58 513 87Q428 105 387 110C376 112 394 139 405 137Q562 97 585 112Q592 131 594 182Q590 333 580 362Q579 365 578 368C574 377 575 388 579 397Z"/>
<path id="z40718d3" d="M404 232Q405 232 409 232Q479 220 531 213Q555 209 545 196Q535 181 509 178Q476 174 404 204C395 207 395 232 404 232Z"/>
<path id="z40718d4" d="M407 318Q408 318 413 318Q485 309 538 304Q562 301 553 288Q543 273 517 268Q486 262 406 290C397 293 398 318 407 318Z"/>
<path id="z40718d5" d="M413 417Q444 407 579 397C589 397 585 375 578 368Q574 364 568 361Q552 352 524 360Q463 375 414 384C403 386 402 419 413 417Z"/>
<path id="z40718d6" d="M376 682Q376 760 362 827Q356 846 367 868Q385 914 400 918Q413 924 421 898Q431 861 428 831Q413 594 441 559Q460 535 450 523Q437 510 399 495Q377 488 365 498Q331 517 272 529Q242 533 243 517Q247 466 259 439Q268 417 256 408Q232 389 211 383Q192 379 181 386Q171 393 186 412Q207 433 191 518Q190 534 181 547Q174 562 182 575Q191 590 205 597Q215 601 233 585Q273 560 342 542Q363 538 372 547Q378 556 376 639C376 668 376 668 376 682Z"/>
<path id="z40718d7" d="M260 710Q305 692 376 682C390 680 390 642 376 639Q364 636 352 640Q196 673 148 678Q135 679 133 687Q130 697 145 709Q184 733 226 721C249 714 249 714 260 710Z"/>
<path id="z40718d8" d="M227 722Q236 785 122 923Q116 927 116 933Q116 937 121 937Q181 922 267 796Q267 790 288 764Q295 754 288 742Q273 720 260 710C251 703 225 711 227 722Z"/>
<path id="z40718d9" d="M758 481Q780 445 803 412Q810 402 816 395Q822 391 825 386Q832 377 821 357Q799 327 779 314Q767 305 757 309Q747 313 748 329Q754 356 710 478C705 493 748 494 758 481Z"/>
<path id="z40718d10" d="M616 544Q623 544 634 542Q679 530 776 519Q789 518 789 507Q789 498 758 481C744 473 726 475 710 478Q706 478 700 480Q645 498 599 509C586 511 603 544 616 544Z"/>
<path id="z40718d11" d="M613 656Q614 566 615 557Q616 550 616 544C616 531 608 518 599 509Q586 496 563 489Q553 485 539 489Q532 495 538 508Q539 515 544 524Q556 546 557 762Q554 790 547 825Q531 888 572 934Q584 949 595 935Q610 910 612 721Q612 703 613 689C613 667 613 667 613 656Z"/>
<path id="z40718d12" d="M613 689Q628 689 731 670Q752 663 759 682Q768 731 757 815Q754 846 769 868Q797 910 808 908Q820 907 825 886Q829 871 824 809Q827 685 832 678Q847 648 844 644Q835 635 805 625Q771 612 745 624Q690 645 613 656C602 658 602 689 613 689Z"/>
<defs>
	<clipPath id="z40718c1"><use xlink:href="#z40718d1"/></clipPath>
	<clipPath id="z40718c2"><use xlink:href="#z40718d2"/></clipPath>
	<clipPath id="z40718c3"><use xlink:href="#z40718d3"/></clipPath>
	<clipPath id="z40718c4"><use xlink:href="#z40718d4"/></clipPath>
	<clipPath id="z40718c5"><use xlink:href="#z40718d5"/></clipPath>
	<clipPath id="z40718c6"><use xlink:href="#z40718d6"/></clipPath>
	<clipPath id="z40718c7"><use xlink:href="#z40718d7"/></clipPath>
	<clipPath id="z40718c8"><use xlink:href="#z40718d8"/></clipPath>
	<clipPath id="z40718c9"><use xlink:href="#z40718d9"/></clipPath>
	<clipPath id="z40718c10"><use xlink:href="#z40718d10"/></clipPath>
	<clipPath id="z40718c11"><use xlink:href="#z40718d11"/></clipPath>
	<clipPath id="z40718c12"><use xlink:href="#z40718d12"/></clipPath>
</defs>
<path style="--d:1s;" pathLength="3333" clip-path="url(#z40718c1)" d="M330 90L375 153L395 438"/>
<path style="--d:2s;" pathLength="3333" clip-path="url(#z40718c2)" d="M395 112L590 86L628 114L606 434"/>
<path style="--d:3s;" pathLength="3333" clip-path="url(#z40718c3)" d="M409 224L543 199"/>
<path style="--d:4s;" pathLength="3333" clip-path="url(#z40718c4)" d="M413 310L546 289"/>
<path style="--d:5s;" pathLength="3333" clip-path="url(#z40718c5)" d="M422 407L577 377"/>
<path style="--d:6s;" pathLength="3333" clip-path="url(#z40718c6)" d="M183 390L228 425L224 561L365 519L411 538L405 915"/>
<path style="--d:7s;" pathLength="3333" clip-path="url(#z40718c7)" d="M136 687L207 697L371 649"/>
<path style="--d:8s;" pathLength="3333" clip-path="url(#z40718c8)" d="M235 722L256 754L239 792L122 931"/>
<path style="--d:9s;" pathLength="3333" clip-path="url(#z40718c9)" d="M760 314L785 377L723 476"/>
<path style="--d:10s;" pathLength="3333" clip-path="url(#z40718c10)" d="M607 512L782 503"/>
<path style="--d:11s;" pathLength="3333" clip-path="url(#z40718c11)" d="M541 495L583 551L583 937"/>
<path style="--d:12s;" pathLength="3333" clip-path="url(#z40718c12)" d="M622 680L756 644L800 667L800 902"/>
</svg>