<!--
AnimCJK 2016-2019 Copyright Francois Mizessyn - https://github.com/parsimonhi/animCJK
Derived from:
    MakeMeAHanzi project - https://github.com/skishore/makemeahanzi
    Arphic PL KaitiM GB font
    Arphic PL UKai font
You can redistribute and/or modify this file under the terms of the Arphic Public License
as published by Arphic Technology Co., Ltd.
You should have received a copy of this license along with this file.
If not, see http://ftp.gnu.org/non-gnu/chinese-fonts-truetype/LICENSE.
-->
<svg id="z40763" class="acjk" version="1.1" viewBox="0 0 1024 1024" xmlns="http://www.w3.org/2000/svg" xmlns:xlink="http://www.w3.org/1999/xlink">
<style>
<![CDATA[
@keyframes zk {
	to {
		stroke-dashoffset:0;
	}
}
svg.acjk path[clip-path] {
	--t:0.8s;
	animation:zk var(--t) linear forwards var(--d);
	stroke-dasharray:3337;
	stroke-dashoffset:3339;
	stroke-width:128;
	stroke-linecap:round;
	fill:none;
	stroke:#000;
}
svg.acjk path[id] {fill:#ccc;}
]]>
</style>
<path id="z40763d1" d="M411 150C465 108 494 84 498 84C508 78 510 71 504 63C497 55 487 48 474 43C462 37 453 35 447 37C441 37 439 41 442 48C444 60 424 94 386 152C382 159 404 155 411 150Z"/>
<path id="z40763d2" d="M386 152C375 144 363 138 350 136C346 134 342 134 339 138C334 140 334 146 340 154C360 190 371 247 375 326C376 370 389 397 411 409C412 410 412 410 412 410C422 412 427 404 429 386C429 384 429 384 429 383C428 367 428 367 428 359C427 347 421 323 421 314C420 299 420 299 419 291C418 282 415 252 415 246C414 230 414 230 413 222C411 208 413 180 413 180C413 167 396 160 386 152Z"/>
<path id="z40763d3" d="M601 364C613 382 626 393 637 399C644 402 653 399 662 385C672 367 682 311 700 220C703 199 713 181 729 165C737 156 738 148 730 140C719 129 700 116 672 100C660 95 630 99 583 111C532 123 427 148 411 150C402 150 394 151 386 152C373 154 400 183 413 180C457 167 519 154 599 142C617 139 629 140 635 146C644 155 648 166 647 177C635 273 623 326 613 338C608 346 595 356 601 364Z"/>
<path id="z40763d4" d="M415 246Q419 243 593 218Q611 217 605 206Q596 194 577 190Q564 187 413 222C405 224 407 248 415 246Z"/>
<path id="z40763d5" d="M421 314C423 314 428 314 434 314C496 305 550 298 596 292C608 290 613 285 609 278C603 270 593 264 579 261C570 259 517 269 419 291C411 293 413 314 421 314Z"/>
<path id="z40763d6" d="M429 383Q525 371 601 364C611 364 621 343 613 338Q609 334 601 333Q589 330 428 359C420 361 421 385 429 383Z"/>
<path id="z40763d7" d="M345 448Q323 435 300 431Q294 430 290 434Q283 440 292 449Q319 485 337 585Q343 642 378 661C379 662 379 662 379 662Q392 663 393 647C392 630 392 630 392 621Q389 600 381 577Q378 558 373 534Q369 504 365 480C363 468 356 454 345 448Z"/>
<path id="z40763d8" d="M666 623Q672 635 684 635Q697 634 704 620Q714 610 733 558Q749 509 785 481Q804 465 789 450Q773 434 724 407Q712 400 633 412Q591 412 454 434Q390 443 345 448C333 450 354 486 365 480Q372 471 491 458C516 455 516 455 528 454Q669 433 690 448Q697 452 694 478Q673 584 666 592C662 602 660 615 666 623Z"/>
<path id="z40763d9" d="M542 546Q585 539 626 537Q647 536 640 523Q633 510 610 504Q589 500 552 507Q548 508 545 509C514 515 514 515 499 518Q454 525 415 533Q400 536 417 550Q427 557 449 556Q474 552 500 550C528 547 528 547 542 546Z"/>
<path id="z40763d10" d="M539 604Q540 573 542 546C544 521 544 521 545 509Q545 505 546 503Q546 466 529 455C528 454 528 454 528 454C519 445 487 446 491 458Q495 462 499 518C500 539 500 539 500 550Q500 574 502 609C502 621 539 616 539 604Z"/>
<path id="z40763d11" d="M393 647Q400 648 411 647Q556 631 666 623C676 623 676 594 666 592Q648 588 619 593Q579 597 539 604C514 607 514 607 502 609Q444 613 392 621C383 623 384 647 393 647Z"/>
<path id="z40763d12" d="M660 708Q741 707 918 715Q940 716 945 707Q952 694 935 679Q880 634 840 642Q654 670 99 713Q77 714 92 733Q105 749 125 755Q147 762 165 758Q261 736 367 726C403 722 403 722 421 720Q487 710 616 709C645 708 645 708 660 708Z"/>
<path id="z40763d13" d="M367 726Q382 756 364 830Q346 899 293 931Q278 941 264 950Q252 957 263 961Q302 964 354 925Q402 889 422 816Q434 768 442 756Q451 740 437 732Q428 725 421 720C407 709 360 709 367 726Z"/>
<path id="z40763d14" d="M616 709Q628 725 620 856Q619 859 619 862Q607 938 655 979Q656 980 659 982Q671 983 675 971Q679 953 681 896Q672 794 678 736Q681 724 674 719Q667 712 660 708C647 700 609 696 616 709Z"/>
<defs>
	<clipPath id="z40763c1"><use xlink:href="#z40763d1"/></clipPath>
	<clipPath id="z40763c2"><use xlink:href="#z40763d2"/></clipPath>
	<clipPath id="z40763c3"><use xlink:href="#z40763d3"/></clipPath>
	<clipPath id="z40763c4"><use xlink:href="#z40763d4"/></clipPath>
	<clipPath id="z40763c5"><use xlink:href="#z40763d5"/></clipPath>
	<clipPath id="z40763c6"><use xlink:href="#z40763d6"/></clipPath>
	<clipPath id="z40763c7"><use xlink:href="#z40763d7"/></clipPath>
	<clipPath id="z40763c8"><use xlink:href="#z40763d8"/></clipPath>
	<clipPath id="z40763c9"><use xlink:href="#z40763d9"/></clipPath>
	<clipPath id="z40763c10"><use xlink:href="#z40763d10"/></clipPath>
	<clipPath id="z40763c11"><use xlink:href="#z40763d11"/></clipPath>
	<clipPath id="z40763c12"><use xlink:href="#z40763d12"/></clipPath>
	<clipPath id="z40763c13"><use xlink:href="#z40763d13"/></clipPath>
	<clipPath id="z40763c14"><use xlink:href="#z40763d14"/></clipPath>
</defs>
<path style="--d:1s;" pathLength="3333" clip-path="url(#z40763c1)" d="M448 46L466 81L396 147"/>
<path style="--d:2s;" pathLength="3333" clip-path="url(#z40763c2)" d="M343 143L385 190L412 405"/>
<path style="--d:3s;" pathLength="3333" clip-path="url(#z40763c3)" d="M395 154L623 121L681 145L625 390"/>
<path style="--d:4s;" pathLength="3333" clip-path="url(#z40763c4)" d="M422 237L597 209"/>
<path style="--d:5s;" pathLength="3333" clip-path="url(#z40763c5)" d="M426 306L603 280"/>
<path style="--d:6s;" pathLength="3333" clip-path="url(#z40763c6)" d="M435 374L605 340"/>
<path style="--d:7s;" pathLength="3333" clip-path="url(#z40763c7)" d="M295 438L340 490L382 656"/>
<path style="--d:8s;" pathLength="3333" clip-path="url(#z40763c8)" d="M355 453L707 427L744 467L685 630"/>
<path style="--d:9s;" pathLength="3333" clip-path="url(#z40763c9)" d="M417 539L636 525"/>
<path style="--d:10s;" pathLength="3333" clip-path="url(#z40763c10)" d="M500 462L522 498L517 606"/>
<path style="--d:11s;" pathLength="3333" clip-path="url(#z40763c11)" d="M400 640L664 605"/>
<path style="--d:12s;" pathLength="3333" clip-path="url(#z40763c12)" d="M94 722L146 734L851 676L943 699"/>
<path style="--d:13s;" pathLength="3333" clip-path="url(#z40763c13)" d="M377 732L409 764L380 857L345 909L268 955"/>
<path style="--d:14s;" pathLength="3333" clip-path="url(#z40763c14)" d="M626 716L651 744L664 976"/>
</svg>