<!--
AnimCJK 2016-2018 Copyright Francois Mizessyn, http://gooo.free.fr/animCJK/
Derived from:
    MakeMeAHanzi project - https://github.com/skishore/makemeahanzi
    Arphic PL KaitiM GB - https://apps.ubuntu.com/cat/applications/precise/fonts-arphic-gkai00mp/
    Arphic PL UKai - https://apps.ubuntu.com/cat/applications/fonts-arphic-ukai/
You can redistribute and/or modify this file under the terms of the Arphic Public License
as published by Arphic Technology Co., Ltd.
You should have received a copy of this license (the directory "APL") along with this file;
if not, see http://ftp.gnu.org/non-gnu/chinese-fonts-truetype/LICENSE.
-->
<svg id="z40837" class="acjk" version="1.1" viewBox="0 0 1024 1024" xmlns="http://www.w3.org/2000/svg" xmlns:xlink="http://www.w3.org/1999/xlink">
<style>
<![CDATA[
@keyframes z40837k {
	from {
		stroke:#ccc;
		stroke-dashoffset:3334;
	}
	1% {
		stroke:#c00;
		stroke-dashoffset:3334;
	}
	75% {
		stroke:#c00;
		stroke-dashoffset:0;
	}
	to {
		stroke:#000;
	}
}
#z40837 path[clip-path] {
	animation:z40837k 1s linear both;
	stroke-dasharray:3334;
	stroke-width:128;
	stroke-linecap:round;
	fill:none;
}
#z40837 path[clip-path="url(#z40837c1)"] {animation-delay:1s;}
#z40837 path[clip-path="url(#z40837c2)"] {animation-delay:2s;}
#z40837 path[clip-path="url(#z40837c3)"] {animation-delay:3s;}
#z40837 path[clip-path="url(#z40837c4)"] {animation-delay:4s;}
#z40837 path[clip-path="url(#z40837c5)"] {animation-delay:5s;}
#z40837 path[clip-path="url(#z40837c6)"] {animation-delay:6s;}
#z40837 path[clip-path="url(#z40837c7)"] {animation-delay:7s;}
#z40837 path[clip-path="url(#z40837c8)"] {animation-delay:8s;}
#z40837 path[clip-path="url(#z40837c9)"] {animation-delay:9s;}
#z40837 path[clip-path="url(#z40837c10)"] {animation-delay:10s;}
#z40837 path[clip-path="url(#z40837c11)"] {animation-delay:11s;}
#z40837 path[clip-path="url(#z40837c12)"] {animation-delay:12s;}
#z40837 path[clip-path="url(#z40837c13)"] {animation-delay:13s;}
#z40837 path {fill:#ccc;}
]]>
</style>
<path id="z40837d1" d="M366 364Q369 312 372 266L373 237Q374 227 375 218Q375 212 384 170Q385 160 368 148Q337 133 315 130Q302 129 295 136Q288 143 296 155Q311 173 312 186Q325 271 329 374L366 364 Z"/>
<path id="z40837d2" d="M372 266Q373 265 375 266Q408 269 495 241L496 241Q503 235 499 229Q493 220 471 216Q462 215 393 233Q383 234 373 237L372 266 Z"/>
<path id="z40837d3" d="M253 393Q241 302 244 283Q244 264 231 254Q209 241 185 235Q172 232 165 238Q159 245 166 257Q187 284 218 402L253 393 Z"/>
<path id="z40837d4" d="M218 402Q178 409 162 414Q116 424 75 429Q63 430 61 438Q58 448 72 457Q108 479 145 467Q301 409 475 378Q490 377 490 369Q491 357 474 350Q444 338 366 364L329 374Q286 384 253 393L218 402 Z"/>
<path id="z40837d5" d="M315 587Q321 572 327 558Q342 515 357 482Q364 469 349 460Q306 441 290 447Q281 451 286 462Q310 540 241 659Q229 663 211 706Q207 719 218 713Q251 703 304 610L315 587 Z"/>
<path id="z40837d6" d="M304 610Q332 637 366 675Q376 688 386 692Q392 693 396 686Q405 677 397 649Q391 622 343 599Q328 592 315 587L304 610 Z"/>
<path id="z40837d7" d="M425 725Q287 753 185 793Q169 797 173 777Q183 699 193 617Q197 593 187 579Q151 540 126 543Q116 547 123 567Q154 640 140 714Q130 784 101 814Q83 833 91 846Q103 862 121 872Q134 879 145 870Q175 830 363 776Q403 764 422 766L425 725 Z"/>
<path id="z40837d8" d="M422 766Q428 788 437 802Q444 815 455 805Q470 778 476 600Q476 572 486 546Q492 533 482 522Q466 509 437 495Q425 491 415 496Q409 500 412 511Q442 547 427 718Q426 721 425 725L422 766 Z"/>
<path id="z40837d9" d="M590 333Q624 287 662 217Q678 183 693 167Q700 157 696 144Q692 132 663 113Q636 98 619 100Q601 103 611 123Q623 144 617 163Q598 227 567 289Q536 349 492 415Q483 425 482 431Q479 441 492 438Q519 431 575 353L590 333 Z"/>
<path id="z40837d10" d="M575 353Q606 374 628 365Q809 305 825 319Q835 332 831 366Q825 463 804 506Q791 534 766 530Q747 526 730 519Q708 512 723 534Q759 571 775 601Q793 620 809 603Q864 560 883 397Q883 346 902 315Q912 302 907 293Q898 283 850 265Q831 258 814 271Q795 283 722 304Q650 325 590 333L575 353 Z"/>
<path id="z40837d11" d="M697 563Q716 499 735 481Q754 459 735 446Q717 436 694 421Q678 411 661 422Q640 435 576 458L583 484Q599 475 647 467Q665 463 669 469Q675 475 668 500Q661 527 652 559L697 563 Z"/>
<path id="z40837d12" d="M571 604Q572 605 577 606Q586 609 597 606Q631 597 706 591Q716 590 716 582Q716 575 697 563L652 559Q651 558 649 559Q607 572 573 580L571 604 Z"/>
<path id="z40837d13" d="M960 762Q947 738 929 665Q928 650 921 646Q915 643 911 660Q889 739 872 763Q839 811 717 802Q671 799 632 782Q598 764 588 742Q567 705 571 604L573 580Q574 534 583 484L576 458L576 457Q564 445 543 438Q531 435 524 439Q518 443 523 459Q536 493 534 528Q528 711 545 761Q552 789 577 813Q676 892 857 852Q863 849 871 848Q914 835 954 802Q973 787 960 762 Z"/>
<defs>
	<clipPath id="z40837c1"><use xlink:href="#z40837d1"/></clipPath>
	<clipPath id="z40837c2"><use xlink:href="#z40837d2"/></clipPath>
	<clipPath id="z40837c3"><use xlink:href="#z40837d3"/></clipPath>
	<clipPath id="z40837c4"><use xlink:href="#z40837d4"/></clipPath>
	<clipPath id="z40837c5"><use xlink:href="#z40837d5"/></clipPath>
	<clipPath id="z40837c6"><use xlink:href="#z40837d6"/></clipPath>
	<clipPath id="z40837c7"><use xlink:href="#z40837d7"/></clipPath>
	<clipPath id="z40837c8"><use xlink:href="#z40837d8"/></clipPath>
	<clipPath id="z40837c9"><use xlink:href="#z40837d9"/></clipPath>
	<clipPath id="z40837c10"><use xlink:href="#z40837d10"/></clipPath>
	<clipPath id="z40837c11"><use xlink:href="#z40837d11"/></clipPath>
	<clipPath id="z40837c12"><use xlink:href="#z40837d12"/></clipPath>
	<clipPath id="z40837c13"><use xlink:href="#z40837d13"/></clipPath>
</defs>
<path pathLength="3333" clip-path="url(#z40837c1)" d="M300 141L348 180L339 370"/>
<path pathLength="3333" clip-path="url(#z40837c2)" d="M376 258L492 231"/>
<path pathLength="3333" clip-path="url(#z40837c3)" d="M169 243L212 280L229 398"/>
<path pathLength="3333" clip-path="url(#z40837c4)" d="M66 441L128 446L483 361"/>
<path pathLength="3333" clip-path="url(#z40837c5)" d="M290 455L325 486L310 543L216 706"/>
<path pathLength="3333" clip-path="url(#z40837c6)" d="M318 593L391 686"/>
<path pathLength="3333" clip-path="url(#z40837c7)" d="M129 550L166 614L147 829L421 735"/>
<path pathLength="3333" clip-path="url(#z40837c8)" d="M419 500L457 549L444 803"/>
<path pathLength="3333" clip-path="url(#z40837c9)" d="M613 106L656 159L586 301L488 432"/>
<path pathLength="3333" clip-path="url(#z40837c10)" d="M581 350L824 290L868 313L815 545L780 570L724 522"/>
<path pathLength="3333" clip-path="url(#z40837c11)" d="M588 476L670 441L704 462L668 560"/>
<path pathLength="3333" clip-path="url(#z40837c12)" d="M574 598L708 579"/>
<path pathLength="3333" clip-path="url(#z40837c13)" d="M530 444L557 487L561 737L624 810L729 834L871 811L925 758L921 653"/>
</svg>