<!--
AnimCJK 2016-2026 Copyright FM-SH - https://github.com/parsimonhi/animCJK
Derived from:
    MakeMeAHanzi project - https://github.com/skishore/makemeahanzi
    Arphic PL KaitiM GB font
    Arphic PL KaitiM Big5 font
You can redistribute and/or modify this file under the terms of the Arphic Public License
as published by Arphic Technology Co., Ltd.
You should have received a copy of this license along with this file.
If not, see https://ftp.gnu.org/non-gnu/chinese-fonts-truetype/LICENSE.
-->
<svg id="z40845" class="acjk" viewBox="0 0 1024 1024" xmlns="http://www.w3.org/2000/svg">
<style>
<![CDATA[
@keyframes zk {
	to {
		stroke-dashoffset:0;
	}
}
svg.acjk path[clip-path] {
	--t:0.8s;
	animation:zk var(--t) linear forwards var(--d);
	stroke-dasharray:3337;
	stroke-dashoffset:3339;
	stroke-width:128;
	stroke-linecap:round;
	fill:none;
	stroke:#000;
}
svg.acjk path[id] {fill:#ccc;}
]]>
</style>
<path id="z40845d1" d="M350 104C365 117 380 132 398 149C406 157 416 161 426 161C432 160 437 155 441 147C443 138 442 124 437 105C431 86 400 71 345 58C322 52 318 57 321 73C322 79 333 89 350 104Z"/>
<path id="z40845d2" d="M440 237C455 234 498 227 506 219C521 202 491 192 481 190C443 180 395 218 227 234C208 235 205 243 219 253C238 265 269 267 311 260C341 254 372 248 406 243C429 239 429 239 440 237Z"/>
<path id="z40845d3" d="M253 321C266 345 275 365 289 374C298 380 316 374 316 350C315 329 297 312 268 296C260 291 246 283 245 299C244 305 247 311 253 321Z"/>
<path id="z40845d4" d="M407 366C463 266 498 280 440 237C431 230 404 232 406 243C411 274 399 308 368 375C363 387 401 378 407 366Z"/>
<path id="z40845d5" d="M368 375C236 405 137 424 72 431C55 432 48 445 69 461C93 478 118 483 145 474C253 435 374 405 509 387C534 383 529 366 510 358C490 349 456 354 407 366C381 372 381 372 368 375Z"/>
<path id="z40845d6" d="M275 696C276 670 278 647 280 628C281 609 281 609 282 599C283 581 283 551 288 533C289 525 286 517 281 511C266 493 249 488 229 490C219 490 217 497 221 505C247 566 251 661 220 785C209 826 199 838 199 847C199 867 205 883 216 899C221 907 226 910 232 907C269 881 272 755 274 721C275 704 275 704 275 696Z"/>
<path id="z40845d7" d="M288 533C316 523 339 516 355 513C381 505 389 509 391 536C396 642 399 737 393 821C391 837 387 848 377 851C372 852 358 849 336 844C322 840 323 848 339 863C356 878 368 896 380 913C386 921 394 926 402 926C412 924 421 908 435 880C448 850 455 822 454 792C449 721 444 652 439 587C436 560 439 537 451 518C456 508 457 501 449 494C439 485 423 478 403 472C374 463 374 477 281 511C274 514 281 536 288 533Z"/>
<path id="z40845d8" d="M280 628C306 621 330 616 352 612C374 607 360 587 332 586C311 584 282 597 282 599C274 604 270 630 280 628Z"/>
<path id="z40845d9" d="M274 721C306 714 334 709 359 704C384 698 367 680 340 677C320 674 298 681 275 696C268 700 266 723 274 721Z"/>
<path id="z40845d10" d="M649 174C671 182 704 177 755 169C780 164 824 159 840 146C858 129 821 117 809 115C781 109 753 132 654 149C646 151 641 172 649 174Z"/>
<path id="z40845d11" d="M782 392C794 365 805 337 818 310C821 303 827 299 834 295C842 289 846 282 845 277C843 270 827 258 796 241C782 233 769 235 758 241C730 254 694 269 651 284C638 288 631 281 633 269C637 232 643 200 649 174C652 157 652 157 654 149C658 124 663 107 668 97C675 80 669 66 651 58C584 29 580 45 591 66C604 93 601 133 597 222C595 248 593 273 581 295C575 305 578 315 593 329C604 339 612 340 621 333C644 312 683 298 735 287C753 283 760 293 755 319C751 333 744 355 735 384C729 399 776 407 782 392Z"/>
<path id="z40845d12" d="M611 462C629 453 709 435 791 419C804 416 820 409 782 392C767 386 750 379 735 384C707 393 666 411 587 431C574 434 599 467 611 462Z"/>
<path id="z40845d13" d="M595 710C593 674 593 648 594 634C594 626 594 635 595 612C595 589 596 566 600 543C602 528 602 528 603 520C606 496 610 475 611 462C611 449 599 436 587 431C568 422 530 405 544 444C552 469 557 495 556 520C549 672 553 769 567 812C572 830 581 849 599 865C654 914 738 932 849 915C913 904 947 880 974 860C986 850 989 838 983 821C975 801 967 762 963 705C961 686 955 667 945 696C921 756 899 794 886 812C876 824 859 835 832 842C768 857 708 855 656 831C621 814 598 778 596 731C595 717 595 717 595 710Z"/>
<path id="z40845d14" d="M600 543C628 545 663 546 703 540C760 530 776 527 791 521C810 511 774 495 767 494C752 490 737 492 722 498C682 510 643 515 603 520C595 522 592 543 600 543Z"/>
<path id="z40845d15" d="M594 634C614 642 672 637 769 621C831 610 794 591 775 586C760 582 745 583 730 589C679 606 633 610 595 612C588 612 587 633 594 634Z"/>
<path id="z40845d16" d="M596 731C624 743 649 744 674 739C710 731 748 727 788 721C846 711 822 689 792 681C779 677 745 685 691 697C650 705 614 705 595 710C588 711 589 728 596 731Z"/>
<defs>
	<clipPath id="z40845c1"><use href="#z40845d1"/></clipPath>
	<clipPath id="z40845c2"><use href="#z40845d2"/></clipPath>
	<clipPath id="z40845c3"><use href="#z40845d3"/></clipPath>
	<clipPath id="z40845c4"><use href="#z40845d4"/></clipPath>
	<clipPath id="z40845c5"><use href="#z40845d5"/></clipPath>
	<clipPath id="z40845c6"><use href="#z40845d6"/></clipPath>
	<clipPath id="z40845c7"><use href="#z40845d7"/></clipPath>
	<clipPath id="z40845c8"><use href="#z40845d8"/></clipPath>
	<clipPath id="z40845c9"><use href="#z40845d9"/></clipPath>
	<clipPath id="z40845c10"><use href="#z40845d10"/></clipPath>
	<clipPath id="z40845c11"><use href="#z40845d11"/></clipPath>
	<clipPath id="z40845c12"><use href="#z40845d12"/></clipPath>
	<clipPath id="z40845c13"><use href="#z40845d13"/></clipPath>
	<clipPath id="z40845c14"><use href="#z40845d14"/></clipPath>
	<clipPath id="z40845c15"><use href="#z40845d15"/></clipPath>
	<clipPath id="z40845c16"><use href="#z40845d16"/></clipPath>
</defs>
<path style="--d:1s;" pathLength="3333" clip-path="url(#z40845c1)" d="M325 63L411 119L425 157"/>
<path style="--d:2s;" pathLength="3333" clip-path="url(#z40845c2)" d="M218 243L505 207"/>
<path style="--d:3s;" pathLength="3333" clip-path="url(#z40845c3)" d="M253 300L300 372"/>
<path style="--d:4s;" pathLength="3333" clip-path="url(#z40845c4)" d="M412 242L436 280L373 374"/>
<path style="--d:5s;" pathLength="3333" clip-path="url(#z40845c5)" d="M61 443L127 451L519 370"/>
<path style="--d:6s;" pathLength="3333" clip-path="url(#z40845c6)" d="M226 498L260 532L261 618L225 902"/>
<path style="--d:7s;" pathLength="3333" clip-path="url(#z40845c7)" d="M282 522L383 489L421 512L421 832L388 888L335 850"/>
<path style="--d:8s;" pathLength="3333" clip-path="url(#z40845c8)" d="M279 620L357 603"/>
<path style="--d:9s;" pathLength="3333" clip-path="url(#z40845c9)" d="M273 713L363 694"/>
<path style="--d:10s;" pathLength="3333" clip-path="url(#z40845c10)" d="M653 166L839 134"/>
<path style="--d:11s;" pathLength="3333" clip-path="url(#z40845c11)" d="M594 48L634 86L611 301L787 273L800 292L753 397"/>
<path style="--d:12s;" pathLength="3333" clip-path="url(#z40845c12)" d="M590 436L799 409"/>
<path style="--d:13s;" pathLength="3333" clip-path="url(#z40845c13)" d="M551 428L580 465L580 771L633 853L750 886L891 861L942 815L955 690"/>
<path style="--d:14s;" pathLength="3333" clip-path="url(#z40845c14)" d="M599 534L791 509"/>
<path style="--d:15s;" pathLength="3333" clip-path="url(#z40845c15)" d="M591 623L797 605"/>
<path style="--d:16s;" pathLength="3333" clip-path="url(#z40845c16)" d="M597 718L818 704"/>
</svg>