<!--
AnimCJK 2016-2026 Copyright FM-SH, https://github.com/parsimonhi/animCJK
Derived from:
    MakeMeAHanzi project - https://github.com/skishore/makemeahanzi
    Arphic PL KaitiM GB font
    Arphic PL KaitiM Big5 font
You can redistribute and/or modify this file under the terms of the Arphic Public License
as published by Arphic Technology Co., Ltd.
You should have received a copy of this license along with this file.
If not, see https://ftp.gnu.org/non-gnu/chinese-fonts-truetype/LICENSE.
-->
<svg id="z990207" class="acjk" viewBox="0 0 1024 1024" xmlns="http://www.w3.org/2000/svg">
<style>
<![CDATA[
@keyframes zk {
	to {
		stroke-dashoffset:0;
	}
}
svg.acjk path[clip-path] {
	--t:0.8s;
	animation:zk var(--t) linear forwards var(--d);
	stroke-dasharray:3337;
	stroke-dashoffset:3339;
	stroke-width:128;
	stroke-linecap:round;
	fill:none;
	stroke:#000;
}
svg.acjk path[id] {fill:#ccc;}
]]>
</style>
<path id="z990207d1" d="M328 156C317 169 320 198 302 241C275 300 225 375 131 473C79 525 112 520 150 495C291 396 372 295 415 261C460 223 428 191 409 175C387 157 352 122 328 156Z"/>
<path id="z990207d2" d="M613 189C689 265 751 342 794 441C810 478 848 523 889 494C931 462 886 393 859 357C789 266 714 213 620 150C572 118 562 138 613 189Z"/>
<defs>
	<clipPath id="z990207c1"><use href="#z990207d1"/></clipPath>
	<clipPath id="z990207c2"><use href="#z990207d2"/></clipPath>
</defs>
<path style="--d:1s;" pathLength="3333" clip-path="url(#z990207c1)" d="M343 147L381 227L257 372L111 507"/>
<path style="--d:2s;" pathLength="3333" clip-path="url(#z990207c2)" d="M587 142L775 319L885 495"/>
</svg>