<!--
AnimCJK 2016-2026 Copyright FM-SH - https://github.com/parsimonhi/animCJK
Derived from:
    MakeMeAHanzi project - https://github.com/skishore/makemeahanzi
    Arphic PL KaitiM GB font
    Arphic PL KaitiM Big5 font
You can redistribute and/or modify this file under the terms of the Arphic Public License
as published by Arphic Technology Co., Ltd.
You should have received a copy of this license along with this file.
If not, see https://ftp.gnu.org/non-gnu/chinese-fonts-truetype/LICENSE.
-->
<svg id="z00507" class="acjk" viewBox="0 0 1024 1024" xmlns="http://www.w3.org/2000/svg">
<style>
<![CDATA[
@keyframes zk {
	to {
		stroke-dashoffset:0;
	}
}
svg.acjk path[clip-path] {
	--t:0.8s;
	animation:zk var(--t) linear forwards var(--d);
	stroke-dasharray:3337;
	stroke-dashoffset:3339;
	stroke-width:128;
	stroke-linecap:round;
	fill:none;
	stroke:#000;
}
svg.acjk path[id] {fill:#ccc;}
]]>
</style>
<path id="z00507d1" d="M497 254C566 212 652 168 677 156C716 136 666 102 649 92C613 70 608 77 602 95C580 159 532 188 485 236C480 241 491 258 497 254Z"/>
<path id="z00507d2" d="M493 630C493 590 492 550 492 510C492 489 492 489 492 478C492 435 490 398 492 367C493 348 493 348 493 338C493 310 495 273 497 254C498 247 491 241 485 236C472 225 390 175 413 232C448 321 452 555 444 644C441 679 441 679 439 696C435 734 425 773 414 813C403 850 410 883 435 913C443 922 457 924 462 913C497 820 493 753 493 674C493 645 493 645 493 630Z"/>
<path id="z00507d3" d="M492 367C514 369 566 362 609 352C659 340 675 337 689 328C711 312 685 296 657 298C614 299 545 327 493 338C484 340 482 367 492 367Z"/>
<path id="z00507d4" d="M492 510C516 510 593 495 650 483C659 480 678 478 684 472C700 452 672 441 653 441C621 440 542 464 492 478C482 481 481 510 492 510Z"/>
<path id="z00507d5" d="M493 674C589 634 653 606 689 587C718 570 709 558 684 567C629 585 553 612 493 630C460 639 460 639 444 644C381 661 315 687 258 689C249 689 243 693 242 702C240 710 242 718 250 724C264 735 284 747 308 759C314 762 322 759 331 753C359 732 405 709 439 696C475 681 475 681 493 674Z"/>
<defs>
	<clipPath id="z00507c1"><use href="#z00507d1"/></clipPath>
	<clipPath id="z00507c2"><use href="#z00507d2"/></clipPath>
	<clipPath id="z00507c3"><use href="#z00507d3"/></clipPath>
	<clipPath id="z00507c4"><use href="#z00507d4"/></clipPath>
	<clipPath id="z00507c5"><use href="#z00507d5"/></clipPath>
</defs>
<path style="--d:1s;" pathLength="3333" clip-path="url(#z00507c1)" d="M615 84L629 149L489 243"/>
<path style="--d:2s;" pathLength="3333" clip-path="url(#z00507c2)" d="M417 211L454 249L463 299L450 916"/>
<path style="--d:3s;" pathLength="3333" clip-path="url(#z00507c3)" d="M487 355L693 316"/>
<path style="--d:4s;" pathLength="3333" clip-path="url(#z00507c4)" d="M488 498L684 459"/>
<path style="--d:5s;" pathLength="3333" clip-path="url(#z00507c5)" d="M246 701L317 720L699 573"/>
</svg>