<!--
AnimCJK 2016-2026 Copyright FM-SH, https://github.com/parsimonhi/animCJK
Derived from:
    MakeMeAHanzi project - https://github.com/skishore/makemeahanzi
    Arphic PL KaitiM GB font
    Arphic PL KaitiM Big5 font
You can redistribute and/or modify this file under the terms of the Arphic Public License
as published by Arphic Technology Co., Ltd.
You should have received a copy of this license along with this file.
If not, see https://ftp.gnu.org/non-gnu/chinese-fonts-truetype/LICENSE.
-->
<svg id="z990603" class="acjk" viewBox="0 0 1024 1024" xmlns="http://www.w3.org/2000/svg">
<style>
<![CDATA[
@keyframes zk {
	to {
		stroke-dashoffset:0;
	}
}
svg.acjk path[clip-path] {
	--t:0.8s;
	animation:zk var(--t) linear forwards var(--d);
	stroke-dasharray:3337;
	stroke-dashoffset:3339;
	stroke-width:128;
	stroke-linecap:round;
	fill:none;
	stroke:#000;
}
svg.acjk path[id] {fill:#ccc;}
]]>
</style>
<path id="z990603d1" d="M735 472C767 469 797 464 827 464C833 463 842 462 847 454C850 446 840 439 827 431C803 415 778 414 747 421C710 428 710 428 691 432C660 438 630 444 601 449C571 454 571 454 556 456C539 458 496 465 468 469C439 472 439 472 424 474C384 478 357 479 342 480C311 481 311 481 296 482C267 483 238 485 210 488C191 489 188 495 202 508C220 526 245 533 276 528C284 526 294 526 305 525C332 520 332 520 346 518C370 513 398 509 428 506C455 503 455 503 468 501C483 499 543 491 554 490C582 486 582 486 596 484C604 482 634 480 685 476C718 473 718 473 735 472Z"/>
<path id="z990603d2" d="M342 480C339 459 339 445 340 439C340 426 336 416 327 410C312 400 296 395 281 392C272 389 265 390 261 395C257 399 256 405 262 413C275 433 290 456 296 482C302 511 302 511 305 525C310 551 318 586 327 632C329 644 365 641 363 629C356 585 349 548 346 518C343 493 343 493 342 480Z"/>
<path id="z990603d3" d="M468 469C468 443 468 426 470 419C472 406 469 395 460 388C447 377 432 370 416 365C408 362 401 362 396 366C391 369 390 376 395 385C409 411 419 441 424 474C427 495 427 495 428 506C431 533 433 572 438 622C440 633 473 631 473 619C470 572 468 533 468 501C468 480 468 480 468 469Z"/>
<path id="z990603d4" d="M601 449C605 418 610 398 613 390C617 377 616 365 608 357C596 343 581 333 566 325C558 320 551 320 546 323C541 325 539 332 542 342C551 374 558 412 556 456C555 479 555 479 554 490C552 520 548 560 544 612C544 625 582 620 582 607C586 558 591 517 596 484C599 461 599 461 601 449Z"/>
<path id="z990603d5" d="M704 593C714 551 725 510 735 472C743 438 743 438 747 421C751 401 760 376 775 347C778 340 775 330 764 321C746 305 728 296 714 291C705 287 698 287 692 292C686 296 684 302 689 312C697 330 701 346 700 359C697 381 694 406 691 432C687 461 687 461 685 476C679 514 671 555 663 598C660 612 701 607 704 593Z"/>
<path id="z990603d6" d="M327 632C256 637 184 642 110 650C95 651 92 657 103 669C112 679 124 686 136 690C150 694 163 695 174 693C384 641 639 623 940 637C940 637 941 636 944 637C958 638 966 635 970 629C974 621 970 611 959 602C922 572 882 564 838 572C798 579 753 586 704 593C677 596 677 596 663 598C636 601 609 603 582 607C557 610 557 610 544 612C538 612 491 617 473 619C450 621 450 621 438 622C413 624 388 626 363 629C339 631 339 631 327 632Z"/>
<defs>
	<clipPath id="z990603c1"><use href="#z990603d1"/></clipPath>
	<clipPath id="z990603c2"><use href="#z990603d2"/></clipPath>
	<clipPath id="z990603c3"><use href="#z990603d3"/></clipPath>
	<clipPath id="z990603c4"><use href="#z990603d4"/></clipPath>
	<clipPath id="z990603c5"><use href="#z990603d5"/></clipPath>
	<clipPath id="z990603c6"><use href="#z990603d6"/></clipPath>
</defs>
<path style="--d:1s;" pathLength="3333" clip-path="url(#z990603c1)" d="M201 495L260 507L843 449"/>
<path style="--d:2s;" pathLength="3333" clip-path="url(#z990603c2)" d="M264 399L312 441L350 636"/>
<path style="--d:3s;" pathLength="3333" clip-path="url(#z990603c3)" d="M398 371L438 405L456 627"/>
<path style="--d:4s;" pathLength="3333" clip-path="url(#z990603c4)" d="M548 329L583 379L557 617"/>
<path style="--d:5s;" pathLength="3333" clip-path="url(#z990603c5)" d="M692 296L737 348L675 604"/>
<path style="--d:6s;" pathLength="3333" clip-path="url(#z990603c6)" d="M103 657L172 668L851 601L968 618"/>
</svg>