<!--
AnimCJK 2016-2026 Copyright FM-SH, https://github.com/parsimonhi/animCJK
Derived from:
    MakeMeAHanzi project - https://github.com/skishore/makemeahanzi
    Arphic PL KaitiM GB font
    Arphic PL KaitiM Big5 font
You can redistribute and/or modify this file under the terms of the Arphic Public License
as published by Arphic Technology Co., Ltd.
You should have received a copy of this license along with this file.
If not, see https://ftp.gnu.org/non-gnu/chinese-fonts-truetype/LICENSE.
-->
<svg id="z990702" class="acjk" viewBox="0 0 1024 1024" xmlns="http://www.w3.org/2000/svg">
<style>
<![CDATA[
@keyframes zk {
	to {
		stroke-dashoffset:0;
	}
}
svg.acjk path[clip-path] {
	--t:0.8s;
	animation:zk var(--t) linear forwards var(--d);
	stroke-dasharray:3337;
	stroke-dashoffset:3339;
	stroke-width:128;
	stroke-linecap:round;
	fill:none;
	stroke:#000;
}
svg.acjk path[id] {fill:#ccc;}
]]>
</style>
<path id="z990702d1" d="M491 98C523 133 549 158 573 165C585 168 596 162 602 151C607 140 608 128 605 115C599 96 589 81 574 72C538 51 506 44 479 48C476 48 474 49 473 50C468 51 466 56 469 67C470 75 479 85 491 98Z"/>
<path id="z990702d2" d="M333 279C355 285 389 287 435 279C645 239 760 214 781 208C787 206 791 202 794 201C800 196 802 190 799 184C794 175 782 168 762 164C741 158 721 161 700 169C580 209 455 234 327 246C316 248 322 277 333 279Z"/>
<path id="z990702d3" d="M311 421C320 362 325 305 333 279C337 268 335 254 327 246C295 220 271 209 255 214C246 218 244 225 249 235C261 259 265 288 264 324C259 442 230 587 198 670C169 740 126 819 68 905C64 910 61 914 60 918C57 924 60 928 68 927C92 923 134 878 190 791C200 775 210 757 219 739C260 651 287 574 309 434C310 425 310 425 311 421Z"/>
<path id="z990702d4" d="M699 527C699 527 699 528 700 529C702 539 707 544 715 544C729 542 747 521 765 480C777 448 792 424 815 407C827 397 828 387 819 378C808 367 787 353 758 336C747 330 693 338 635 352C599 360 599 360 581 364C562 368 503 380 486 385C453 393 453 393 437 397C401 405 330 415 311 421C307 423 306 431 309 434C309 434 312 436 317 440C339 450 356 451 369 447C387 439 411 432 441 425C470 418 470 418 484 414C511 406 543 399 579 393C612 387 612 387 628 384C682 373 716 367 732 376C736 378 736 387 733 402C718 456 709 488 704 498C700 507 695 518 699 527Z"/>
<path id="z990702d5" d="M486 385C487 365 483 351 478 347C465 336 451 329 437 324C429 321 422 321 418 325C413 327 412 333 417 343C425 359 434 377 437 397C440 416 440 416 441 425C444 447 447 484 451 535C451 547 485 540 485 528C485 503 482 437 484 414C485 395 485 395 486 385Z"/>
<path id="z990702d6" d="M635 352C636 347 640 334 650 312C652 306 649 297 639 289C622 275 607 268 594 265C585 262 579 263 574 267C569 270 567 276 572 285C579 300 583 326 581 364C580 383 580 383 579 393C576 429 570 468 566 510C564 523 601 514 604 501C612 460 619 421 628 384C633 363 633 363 635 352Z"/>
<path id="z990702d7" d="M487 558C543 546 614 535 699 527C709 525 712 504 704 498C701 495 697 492 692 490C679 483 651 489 604 501C579 507 579 507 566 510C551 513 499 525 485 528C462 533 462 533 451 535C417 541 385 544 357 550C344 552 342 558 350 568C354 574 360 577 366 579C372 580 380 581 388 579C412 572 445 566 487 558Z"/>
<defs>
	<clipPath id="z990702c1"><use href="#z990702d1"/></clipPath>
	<clipPath id="z990702c2"><use href="#z990702d2"/></clipPath>
	<clipPath id="z990702c3"><use href="#z990702d3"/></clipPath>
	<clipPath id="z990702c4"><use href="#z990702d4"/></clipPath>
	<clipPath id="z990702c5"><use href="#z990702d5"/></clipPath>
	<clipPath id="z990702c6"><use href="#z990702d6"/></clipPath>
	<clipPath id="z990702c7"><use href="#z990702d7"/></clipPath>
</defs>
<path style="--d:1s;" pathLength="3333" clip-path="url(#z990702c1)" d="M473 52L601 147"/>
<path style="--d:2s;" pathLength="3333" clip-path="url(#z990702c2)" d="M328 254L398 261L796 193"/>
<path style="--d:3s;" pathLength="3333" clip-path="url(#z990702c3)" d="M251 220L298 284L245 607L170 781L67 920"/>
<path style="--d:4s;" pathLength="3333" clip-path="url(#z990702c4)" d="M313 428L742 355L778 399L709 537"/>
<path style="--d:5s;" pathLength="3333" clip-path="url(#z990702c5)" d="M421 329L459 371L461 536"/>
<path style="--d:6s;" pathLength="3333" clip-path="url(#z990702c6)" d="M575 272L615 315L578 514"/>
<path style="--d:7s;" pathLength="3333" clip-path="url(#z990702c7)" d="M352 559L704 509"/>
</svg>