<!--
AnimCJK 2016-2018 Copyright Francois Mizessyn, http://gooo.free.fr/animCJK/
Derived from:
    MakeMeAHanzi project - https://github.com/skishore/makemeahanzi
    Arphic PL KaitiM GB - https://apps.ubuntu.com/cat/applications/precise/fonts-arphic-gkai00mp/
    Arphic PL UKai - https://apps.ubuntu.com/cat/applications/fonts-arphic-ukai/
You can redistribute and/or modify this file under the terms of the Arphic Public License
as published by Arphic Technology Co., Ltd.
You should have received a copy of this license (the directory "APL") along with this file;
if not, see http://ftp.gnu.org/non-gnu/chinese-fonts-truetype/LICENSE.
-->
<svg id="z30002" class="acjk" version="1.1" viewBox="0 0 1024 1024" xmlns="http://www.w3.org/2000/svg" xmlns:xlink="http://www.w3.org/1999/xlink">
<style>
<![CDATA[
@keyframes z30002k {
	from {
		stroke:#ccc;
		stroke-dashoffset:3334;
	}
	1% {
		stroke:#c00;
		stroke-dashoffset:3334;
	}
	75% {
		stroke:#c00;
		stroke-dashoffset:0;
	}
	to {
		stroke:#000;
	}
}
#z30002 path[clip-path] {
	animation:z30002k 1s linear both;
	stroke-dasharray:3334;
	stroke-width:128;
	stroke-linecap:round;
	fill:none;
}
#z30002 path[clip-path="url(#z30002c1)"] {animation-delay:1s;}
#z30002 path[clip-path="url(#z30002c2)"] {animation-delay:2s;}
#z30002 path[clip-path="url(#z30002c3)"] {animation-delay:3s;}
#z30002 path[clip-path="url(#z30002c4)"] {animation-delay:4s;}
#z30002 path[clip-path="url(#z30002c5a)"] {animation-delay:5s;}
#z30002 path[clip-path="url(#z30002c5b)"] {animation-delay:5s;}
#z30002 path {fill:#ccc;}
]]>
</style>
<path id="z30002d1" d="M 259,176 C 241,166 222,160 205,157 200,156 196,156 191,161 185,166 187,171 195,181 231,228 254,318 268,446 272,488 287,521 316,545 317,546 319,548 323,549 334,552 341,544 342,527 L 340,490 C 337,473 331,455 327,436 305,326 295,251 292,213 Z"/>
<path id="z30002d2" d="M 660,490 C 674,512 687,525 700,533 709,538 720,535 732,517 749,490 769,406 803,266 809,240 825,218 845,199 855,188 857,177 848,166 836,151 812,132 778,111 763,102 727,108 669,118 616,126 532,134 417,153 358,162 305,170 259,176 L 292,213 C 334,203 385,196 446,186 L 509,175 C 639,152 713,148 729,167 742,182 746,199 743,215 716,345 695,420 685,440 679,449 672,456 660,459 Z"/>
<path id="z30002d3" d="M 528,337 C 565,329 604,325 642,316 644,315 645,313 646,311 648,304 640,298 627,292 604,280 574,286 530,297 L 473,310 C 420,322 389,321 383,323 366,326 364,331 378,341 395,353 418,357 444,353 452,351 461,350 472,348 Z"/>
<path id="z30002d4" d="M 524,502 C 564,498 609,493 660,490 L 660,459 C 638,441 597,441 538,457 533,458 529,459 525,460 L 470,470 C 423,478 380,484 340,490 L 342,527 C 362,520 404,512 469,507 Z"/>
<path id="z30002d5a" d="M 524,502 C 524,488 524,474 525,460 525,423 526,382 528,337 528,323 529,310 530,297 530,278 535,252 543,219 545,206 541,196 531,189 522,183 515,178 509,175 L 446,186 C 450,194 454,201 459,209 467,227 472,260 473,310 472,322 472,335 472,348 471,384 470,425 470,470 469,482 469,494 469,507 Z"/>
<path id="z30002d5b" d="M 464,907 C 468,925 472,938 477,945 481,949 485,951 491,950 501,944 509,919 515,876 521,815 524,754 524,694 523,660 523,596 524,502 L 469,507 C 465,759 463,893 464,907 Z"/>
<defs>
	<clipPath id="z30002c1"><use xlink:href="#z30002d1"/></clipPath>
	<clipPath id="z30002c2"><use xlink:href="#z30002d2"/></clipPath>
	<clipPath id="z30002c3"><use xlink:href="#z30002d3"/></clipPath>
	<clipPath id="z30002c4"><use xlink:href="#z30002d4"/></clipPath>
	<clipPath id="z30002c5a"><use xlink:href="#z30002d5a"/></clipPath>
	<clipPath id="z30002c5b"><use xlink:href="#z30002d5b"/></clipPath>
</defs>
<path pathLength="3333" clip-path="url(#z30002c1)" d="M196 167L257 225L324 546"/>
<path pathLength="3333" clip-path="url(#z30002c2)" d="M268 178L311 189L687 134L764 148L798 196L684 519"/>
<path pathLength="3333" clip-path="url(#z30002c3)" d="M377 329L639 308"/>
<path pathLength="3333" clip-path="url(#z30002c4)" d="M345 519L575 472L657 477"/>
<path pathLength="3333" clip-path="url(#z30002c5a)" d="M455 190L504 218L484 942"/>
<path pathLength="3333" clip-path="url(#z30002c5b)" d="M455 190L504 218L484 942"/>
</svg>