<!--
AnimCJK 2016-2022 Copyright 2022 Copyright FM&SH - https://github.com/parsimonhi/animCJK
Derived from:
    MakeMeAHanzi project - https://github.com/skishore/makemeahanzi
    Arphic PL KaitiM GB font
    Arphic PL UKai font
You can redistribute and/or modify this file under the terms of the Arphic Public License
as published by Arphic Technology Co., Ltd.
You should have received a copy of this license along with this file.
If not, see http://ftp.gnu.org/non-gnu/chinese-fonts-truetype/LICENSE.
-->
<svg id="z19979" class="acjk" version="1.1" viewBox="0 0 1024 1024" xmlns="http://www.w3.org/2000/svg" xmlns:xlink="http://www.w3.org/1999/xlink">
<style>
<![CDATA[
@keyframes zk {
	to {
		stroke-dashoffset:0;
	}
}
svg.acjk path[clip-path] {
	--t:0.8s;
	animation:zk var(--t) linear forwards var(--d);
	stroke-dasharray:3337;
	stroke-dashoffset:3339;
	stroke-width:128;
	stroke-linecap:round;
	fill:none;
	stroke:#000;
}
svg.acjk path[id] {fill:#ccc;}
]]>
</style>
<path id="z19979d1" d="M520 212C678 196 779 193 827 195C903 197 923 199 929 193C936 184 931 173 923 165C872 120 826 110 781 122C709 139 607 151 477 167C274 191 155 206 116 205C105 204 100 209 100 217C99 225 104 235 120 246C130 254 148 263 172 271C179 273 190 271 203 267C230 257 381 225 478 216C506 213 506 213 520 212Z"/>
<path id="z19979d2" d="M544 376C544 228 569 243 520 212C508 205 473 203 478 216C492 240 495 378 485 632C480 744 474 807 471 840C468 860 485 896 498 908C507 917 515 918 523 905C543 866 547 829 546 796C544 766 544 552 544 408C544 387 544 387 544 376Z"/>
<path id="z19979d3" d="M544 408C555 420 585 435 712 522C726 532 737 540 749 541C754 541 760 536 765 529C771 518 767 498 753 470C732 428 663 396 544 376C533 374 535 402 544 408Z"/>
<defs>
	<clipPath id="z19979c1"><use xlink:href="#z19979d1"/></clipPath>
	<clipPath id="z19979c2"><use xlink:href="#z19979d2"/></clipPath>
	<clipPath id="z19979c3"><use xlink:href="#z19979d3"/></clipPath>
</defs>
<path style="--d:1s;" pathLength="3333" clip-path="url(#z19979c1)" d="M104 213L176 237L805 156L928 179"/>
<path style="--d:2s;" pathLength="3333" clip-path="url(#z19979c2)" d="M485 213L518 253L501 908"/>
<path style="--d:3s;" pathLength="3333" clip-path="url(#z19979c3)" d="M543 385L693 462L761 530"/>
</svg>