<!--
AnimCJK 2016-2025 Copyright FM-SH - https://github.com/parsimonhi/animCJK
Derived from:
    MakeMeAHanzi project - https://github.com/skishore/makemeahanzi
    Arphic PL KaitiM GB font
    Arphic PL UKai font
You can redistribute and/or modify this file under the terms of the Arphic Public License
as published by Arphic Technology Co., Ltd.
You should have received a copy of this license along with this file.
If not, see http://ftp.gnu.org/non-gnu/chinese-fonts-truetype/LICENSE.
-->
<svg id="z20936" class="acjk" version="1.1" viewBox="0 0 1024 1024" xmlns="http://www.w3.org/2000/svg" xmlns:xlink="http://www.w3.org/1999/xlink">
<style>
<![CDATA[
@keyframes zk {
	to {
		stroke-dashoffset:0;
	}
}
svg.acjk path[clip-path] {
	--t:0.8s;
	animation:zk var(--t) linear forwards var(--d);
	stroke-dasharray:3337;
	stroke-dashoffset:3339;
	stroke-width:128;
	stroke-linecap:round;
	fill:none;
	stroke:#000;
}
svg.acjk path[id] {fill:#ccc;}
]]>
</style>
<path id="z20936d1" d="M183 254C203 268 224 285 245 304C255 313 266 316 277 315C283 314 289 309 293 300C296 289 292 273 285 253C276 231 240 214 175 204C164 202 156 202 152 205C147 207 146 213 149 223C151 229 163 239 183 254Z"/>
<path id="z20936d2" d="M285 447C221 544 170 620 128 674C119 684 110 687 102 686C91 683 82 688 80 702C76 719 82 734 92 749C103 767 113 779 124 787C133 793 140 795 148 793C154 790 159 785 161 779C169 746 178 717 190 693C224 618 257 545 291 476C297 463 300 454 300 448C299 436 293 434 285 447Z"/>
<path id="z20936d3" d="M637 60C590 91 499 126 366 172C358 174 361 182 366 184C388 191 469 176 607 136C663 119 707 105 742 104C754 103 763 103 766 98C769 90 767 80 760 73C746 59 723 47 694 31C683 25 674 18 665 20C658 20 654 27 654 35C652 45 647 53 637 60Z"/>
<path id="z20936d4" d="M395 267C418 299 432 318 441 320C447 320 453 317 457 311C461 303 462 290 461 272C460 263 453 253 440 246C406 227 385 218 380 221C376 222 374 227 374 235C373 241 383 250 395 267Z"/>
<path id="z20936d5" d="M519 220C536 251 551 272 567 279C574 282 582 281 588 275C593 268 595 260 595 251C594 238 590 226 581 218C564 204 548 197 532 189C520 183 509 183 509 196C508 202 513 210 519 220Z"/>
<path id="z20936d6" d="M655 318C711 265 753 225 786 205C796 198 801 194 798 188C792 177 784 165 770 154C755 142 740 137 725 137C714 137 710 145 713 159C714 167 715 178 709 190C687 228 652 276 608 334C598 347 642 328 655 318Z"/>
<path id="z20936d7" d="M748 550C754 517 761 490 770 469C785 434 785 434 792 416C799 396 813 384 824 374C836 360 837 345 825 335C813 325 788 313 750 296C736 289 705 300 655 318C624 329 624 329 608 334C570 346 381 378 374 380C361 381 355 385 358 393C359 399 368 402 382 408C401 415 422 414 450 406C477 397 506 394 536 388C562 382 562 382 575 379C609 370 644 362 680 355C698 350 712 351 721 359C731 368 733 393 726 431C720 460 720 460 717 474C711 498 705 522 700 545C697 561 745 566 748 550Z"/>
<path id="z20936d8" d="M770 469C802 465 838 463 878 462C922 460 946 456 949 450C952 442 947 433 937 426C915 410 892 401 869 401C843 401 815 410 792 416C748 426 748 426 726 431C691 438 653 447 614 455C573 462 573 462 553 466C482 478 407 492 327 506C314 508 312 514 323 525C331 533 341 539 354 542C367 544 380 544 390 541C440 524 494 510 553 500C592 493 592 493 611 490C641 484 676 477 717 474C752 471 752 471 770 469Z"/>
<path id="z20936d9" d="M553 579C494 591 439 598 389 606C373 608 370 615 380 628C384 634 390 639 399 642C406 644 415 643 426 641C458 632 501 624 553 618C588 613 588 613 606 611C652 604 705 596 766 591C773 590 779 586 780 579C780 573 769 563 748 550C734 542 716 542 700 545C683 548 667 553 607 567C571 575 571 575 553 579Z"/>
<path id="z20936d10" d="M536 388C548 413 553 441 553 466C553 489 553 489 553 500C553 526 553 552 553 579C553 605 553 605 553 618C553 672 551 737 551 813C550 851 533 861 504 852C486 846 468 836 445 829C423 822 425 835 442 850C485 890 519 926 547 956C554 963 564 961 573 951C602 911 613 849 611 768C607 672 605 636 606 611C607 582 607 582 607 567C607 540 608 514 611 490C613 467 613 467 614 455C617 411 624 404 575 379C564 372 531 376 536 388Z"/>
<defs>
	<clipPath id="z20936c1"><use xlink:href="#z20936d1"/></clipPath>
	<clipPath id="z20936c2"><use xlink:href="#z20936d2"/></clipPath>
	<clipPath id="z20936c3"><use xlink:href="#z20936d3"/></clipPath>
	<clipPath id="z20936c4"><use xlink:href="#z20936d4"/></clipPath>
	<clipPath id="z20936c5"><use xlink:href="#z20936d5"/></clipPath>
	<clipPath id="z20936c6"><use xlink:href="#z20936d6"/></clipPath>
	<clipPath id="z20936c7"><use xlink:href="#z20936d7"/></clipPath>
	<clipPath id="z20936c8"><use xlink:href="#z20936d8"/></clipPath>
	<clipPath id="z20936c9"><use xlink:href="#z20936d9"/></clipPath>
	<clipPath id="z20936c10"><use xlink:href="#z20936d10"/></clipPath>
</defs>
<path style="--d:1s;" pathLength="3333" clip-path="url(#z20936c1)" d="M154 211L287 304"/>
<path style="--d:2s;" pathLength="3333" clip-path="url(#z20936c2)" d="M88 693L150 730L293 449"/>
<path style="--d:3s;" pathLength="3333" clip-path="url(#z20936c3)" d="M665 23L714 82L368 178"/>
<path style="--d:4s;" pathLength="3333" clip-path="url(#z20936c4)" d="M381 228L450 312"/>
<path style="--d:5s;" pathLength="3333" clip-path="url(#z20936c5)" d="M517 193L584 272"/>
<path style="--d:6s;" pathLength="3333" clip-path="url(#z20936c6)" d="M718 144L754 191L615 332"/>
<path style="--d:7s;" pathLength="3333" clip-path="url(#z20936c7)" d="M366 391L737 327L781 372L728 558"/>
<path style="--d:8s;" pathLength="3333" clip-path="url(#z20936c8)" d="M324 514L824 435L946 442"/>
<path style="--d:9s;" pathLength="3333" clip-path="url(#z20936c9)" d="M380 618L707 570L775 578"/>
<path style="--d:10s;" pathLength="3333" clip-path="url(#z20936c10)" d="M542 383L583 428L578 844L539 907L437 833"/>
</svg>