<!--
AnimCJK 2016-2019 Copyright Francois Mizessyn - https://github.com/parsimonhi/animCJK
Derived from:
    MakeMeAHanzi project - https://github.com/skishore/makemeahanzi
    Arphic PL KaitiM GB font
    Arphic PL UKai font
You can redistribute and/or modify this file under the terms of the Arphic Public License
as published by Arphic Technology Co., Ltd.
You should have received a copy of this license along with this file.
If not, see http://ftp.gnu.org/non-gnu/chinese-fonts-truetype/LICENSE.
-->
<svg id="z20960" class="acjk" version="1.1" viewBox="0 0 1024 1024" xmlns="http://www.w3.org/2000/svg" xmlns:xlink="http://www.w3.org/1999/xlink">
<style>
<![CDATA[
@keyframes zk {
	to {
		stroke-dashoffset:0;
	}
}
svg.acjk path[clip-path] {
	--t:0.8s;
	animation:zk var(--t) linear forwards var(--d);
	stroke-dasharray:3337;
	stroke-dashoffset:3339;
	stroke-width:128;
	stroke-linecap:round;
	fill:none;
	stroke:#000;
}
svg.acjk path[id] {fill:#ccc;}
]]>
</style>
<path id="z20960d1" d="M395 209Q394 208 392 207Q340 180 324 183Q302 186 319 210Q352 268 330 478Q323 565 277 666Q244 742 141 838Q125 851 121 859Q120 866 132 866Q150 866 172 851Q226 815 259 781Q352 679 377 522Q395 422 401 273Q404 257 406 246C409 233 405 217 395 209Z"/>
<path id="z20960d2" d="M970 820Q992 811 984 788Q969 736 964 663Q961 623 953 616Q944 612 941 624Q905 748 866 778Q844 793 791 798Q721 804 682 792Q642 782 626 761Q610 742 603 709Q594 669 608 525Q621 378 647 283Q657 238 696 206Q712 187 694 172Q670 153 617 134Q595 128 576 140Q501 192 395 209C382 212 393 249 406 246Q427 243 555 204Q568 198 576 202Q580 206 581 221Q547 639 549 684Q549 873 798 865Q819 862 842 860Q906 851 970 820Z"/>
<defs>
	<clipPath id="z20960c1"><use xlink:href="#z20960d1"/></clipPath>
	<clipPath id="z20960c2"><use xlink:href="#z20960d2"/></clipPath>
</defs>
<path style="--d:1s;" pathLength="3333" clip-path="url(#z20960c1)" d="M319 190L370 261L340 571L267 733L132 859"/>
<path style="--d:2s;" pathLength="3333" clip-path="url(#z20960c2)" d="M409 238L585 167L648 195L603 326L574 658L584 741L624 798L743 832L891 809L944 770L948 624"/>
</svg>