<!--
AnimCJK 2016-2025 Copyright FM-SH - https://github.com/parsimonhi/animCJK
Derived from:
    MakeMeAHanzi project - https://github.com/skishore/makemeahanzi
    Arphic PL KaitiM GB font
    Arphic PL KaitiM Big5 font
You can redistribute and/or modify this file under the terms of the Arphic Public License
as published by Arphic Technology Co., Ltd.
You should have received a copy of this license along with this file.
If not, see https://ftp.gnu.org/non-gnu/chinese-fonts-truetype/LICENSE.
-->
<svg id="z22827" class="acjk" viewBox="0 0 1024 1024" xmlns="http://www.w3.org/2000/svg">
<style>
<![CDATA[
@keyframes zk {
	to {
		stroke-dashoffset:0;
	}
}
svg.acjk path[clip-path] {
	--t:0.8s;
	animation:zk var(--t) linear forwards var(--d);
	stroke-dasharray:3337;
	stroke-dashoffset:3339;
	stroke-width:128;
	stroke-linecap:round;
	fill:none;
	stroke:#000;
}
svg.acjk path[id] {fill:#ccc;}
]]>
</style>
<path id="z22827d1" d="M508 331C559 322 611 312 666 303C703 296 724 288 730 284C736 278 738 271 735 266C730 256 716 248 695 243C671 237 649 240 626 247C589 258 552 271 513 279C477 286 477 286 459 289C418 296 376 299 333 303C305 305 299 314 320 328C340 340 357 347 386 349C403 350 435 343 456 340C491 334 491 334 508 331Z"/>
<path id="z22827d2" d="M491 509C561 499 650 493 757 493C803 492 828 489 832 483C836 474 832 463 820 455C783 427 750 418 723 424C666 436 580 453 495 467C461 472 461 472 444 475C408 480 281 498 193 512C178 514 174 521 187 533C207 553 234 560 262 553C317 537 375 524 439 516C474 511 474 511 491 509Z"/>
<path id="z22827d3" d="M491 509C492 497 493 480 495 467C498 438 505 357 508 331C511 296 511 296 513 279C519 213 524 162 543 129C548 118 549 107 541 99C525 83 500 73 473 65C454 59 442 59 436 64C429 68 428 74 434 85C466 134 464 192 459 289C457 323 457 323 456 340C453 386 449 431 444 475C441 502 441 502 439 516C427 612 384 702 332 754C287 798 216 840 120 881C109 885 104 888 105 892C105 893 109 897 118 898C205 900 305 852 364 799C421 746 468 667 484 558C486 541 488 525 491 509Z"/>
<path id="z22827d4" d="M484 558C552 680 633 789 723 892C742 913 760 927 779 926C835 923 888 918 936 916C956 915 966 912 967 907C967 901 955 892 934 882C819 830 771 812 758 802C655 721 566 603 491 509C481 496 477 543 484 558Z"/>
<defs>
	<clipPath id="z22827c1"><use href="#z22827d1"/></clipPath>
	<clipPath id="z22827c2"><use href="#z22827d2"/></clipPath>
	<clipPath id="z22827c3"><use href="#z22827d3"/></clipPath>
	<clipPath id="z22827c4"><use href="#z22827d4"/></clipPath>
</defs>
<path style="--d:1s;" pathLength="3333" clip-path="url(#z22827c1)" d="M315 313L413 321L731 275"/>
<path style="--d:2s;" pathLength="3333" clip-path="url(#z22827c2)" d="M183 519L237 531L746 457L829 473"/>
<path style="--d:3s;" pathLength="3333" clip-path="url(#z22827c3)" d="M437 72L502 130L436 638L333 790L240 849L111 888"/>
<path style="--d:4s;" pathLength="3333" clip-path="url(#z22827c4)" d="M487 516L591 678L738 843L792 877L956 904"/>
</svg>