<!--
AnimCJK 2016-2025 Copyright FM-SH - https://github.com/parsimonhi/animCJK
Derived from:
    MakeMeAHanzi project - https://github.com/skishore/makemeahanzi
    Arphic PL KaitiM GB font
    Arphic PL UKai font
You can redistribute and/or modify this file under the terms of the Arphic Public License
as published by Arphic Technology Co., Ltd.
You should have received a copy of this license along with this file.
If not, see http://ftp.gnu.org/non-gnu/chinese-fonts-truetype/LICENSE.
-->
<svg id="z24247" class="acjk" version="1.1" viewBox="0 0 1024 1024" xmlns="http://www.w3.org/2000/svg" xmlns:xlink="http://www.w3.org/1999/xlink">
<style>
<![CDATA[
@keyframes zk {
	to {
		stroke-dashoffset:0;
	}
}
svg.acjk path[clip-path] {
	--t:0.8s;
	animation:zk var(--t) linear forwards var(--d);
	stroke-dasharray:3337;
	stroke-dashoffset:3339;
	stroke-width:128;
	stroke-linecap:round;
	fill:none;
	stroke:#000;
}
svg.acjk path[id] {fill:#ccc;}
]]>
</style>
<path id="z24247d1" d="M489 81C534 114 563 132 574 132C580 131 586 126 589 116C591 105 587 89 579 70C571 51 538 38 479 31C467 29 460 30 456 33C452 35 451 40 454 51C455 56 468 66 489 81Z"/>
<path id="z24247d2" d="M308 250C331 248 387 239 436 233C644 203 757 185 775 176C781 172 785 165 782 160C777 150 766 144 748 139C730 134 685 145 613 161C552 173 405 195 304 204C222 210 187 213 239 239C256 247 284 251 308 250Z"/>
<path id="z24247d3" d="M239 239C245 275 240 312 237 347C217 531 158 697 56 851C39 874 58 881 73 865C237 702 270 521 297 347C301 319 308 250 308 250C313 227 234 216 239 239Z"/>
<path id="z24247d4" d="M693 522C697 495 703 472 711 454C722 425 722 425 728 410C734 392 749 373 761 361C772 349 773 335 763 325C753 315 729 303 694 289C682 283 669 285 655 291C623 303 593 315 565 323C528 332 528 332 509 337C468 347 426 352 384 357C373 358 368 360 370 368C371 371 377 377 390 381C431 393 468 374 510 366C545 359 545 359 563 355C624 342 658 333 667 342C677 350 677 377 669 420C664 445 664 445 662 457C657 480 650 502 644 524C641 540 690 538 693 522Z"/>
<path id="z24247d5" d="M711 454C745 451 783 449 828 451C865 451 890 451 895 443C898 436 893 428 885 421C863 403 841 394 817 394C786 394 756 405 728 410C689 417 689 417 669 420C627 427 591 431 561 436C528 441 528 441 512 443C446 452 377 458 307 468C294 469 292 473 302 485C310 493 319 499 331 502C342 504 354 505 364 503C410 490 460 479 513 473C545 469 545 469 561 467C589 463 623 459 662 457C695 455 695 455 711 454Z"/>
<path id="z24247d6" d="M561 578C605 572 657 569 715 562C745 557 721 535 693 522C678 516 660 521 644 524C615 530 587 537 561 542C529 548 529 548 513 551C465 559 420 564 379 569C366 570 362 576 371 588C381 602 396 604 411 601C437 594 471 589 513 584C545 580 545 580 561 578Z"/>
<path id="z24247d7" d="M562 629C562 612 561 595 561 578C561 554 561 554 561 542C561 492 561 492 561 467C561 446 561 446 561 436C561 401 561 374 563 355C564 334 564 334 565 323C566 303 585 281 579 269C574 259 563 250 547 242C519 229 502 226 492 230C479 234 477 242 488 254C495 263 507 290 509 337C510 356 510 356 510 366C510 385 511 422 512 443C513 463 513 463 513 473C513 498 513 525 513 551C513 573 513 573 513 584C513 738 512 823 510 838C506 860 497 865 484 864C465 861 450 860 423 857C411 855 405 854 404 859C402 863 408 869 421 877C466 905 491 928 503 944C517 964 530 977 540 966C563 937 569 891 564 826C562 815 562 761 562 664C562 641 562 641 562 629Z"/>
<path id="z24247d8" d="M335 657C352 668 367 682 386 697C393 703 403 706 413 705C419 704 423 700 425 692C427 683 425 669 418 654C410 636 378 624 327 616C317 614 311 614 308 617C304 619 303 624 306 632C307 638 318 646 335 657Z"/>
<path id="z24247d9" d="M232 825C223 826 219 831 220 840C220 847 222 855 231 859C246 866 267 873 292 882C298 883 306 880 313 872C323 858 364 823 435 766C444 758 451 749 459 742C465 735 470 727 468 723C465 717 457 720 450 724C331 786 258 819 232 825Z"/>
<path id="z24247d10" d="M662 720C720 679 764 649 796 636C807 631 812 627 810 621C806 609 798 598 786 586C773 573 759 565 746 565C735 564 730 570 731 584C725 619 689 656 647 707C643 712 657 724 662 720Z"/>
<path id="z24247d11" d="M647 707C619 682 587 651 562 629C554 621 554 656 562 664C745 862 765 903 821 902C856 900 891 889 928 882C949 877 964 870 946 860C937 854 895 843 824 821C766 803 715 765 662 720C652 711 652 711 647 707Z"/>
<defs>
	<clipPath id="z24247c1"><use xlink:href="#z24247d1"/></clipPath>
	<clipPath id="z24247c2"><use xlink:href="#z24247d2"/></clipPath>
	<clipPath id="z24247c3"><use xlink:href="#z24247d3"/></clipPath>
	<clipPath id="z24247c4"><use xlink:href="#z24247d4"/></clipPath>
	<clipPath id="z24247c5"><use xlink:href="#z24247d5"/></clipPath>
	<clipPath id="z24247c6"><use xlink:href="#z24247d6"/></clipPath>
	<clipPath id="z24247c7"><use xlink:href="#z24247d7"/></clipPath>
	<clipPath id="z24247c8"><use xlink:href="#z24247d8"/></clipPath>
	<clipPath id="z24247c9"><use xlink:href="#z24247d9"/></clipPath>
	<clipPath id="z24247c10"><use xlink:href="#z24247d10"/></clipPath>
	<clipPath id="z24247c11"><use xlink:href="#z24247d11"/></clipPath>
</defs>
<path style="--d:1s;" pathLength="3333" clip-path="url(#z24247c1)" d="M460 42L553 85L581 121"/>
<path style="--d:2s;" pathLength="3333" clip-path="url(#z24247c2)" d="M221 219L326 225L778 164"/>
<path style="--d:3s;" pathLength="3333" clip-path="url(#z24247c3)" d="M244 233L275 265L226 551L163 710L55 867"/>
<path style="--d:4s;" pathLength="3333" clip-path="url(#z24247c4)" d="M377 365L672 312L696 324L722 357L659 532"/>
<path style="--d:5s;" pathLength="3333" clip-path="url(#z24247c5)" d="M304 474L357 483L803 422L892 433"/>
<path style="--d:6s;" pathLength="3333" clip-path="url(#z24247c6)" d="M374 580L723 551"/>
<path style="--d:7s;" pathLength="3333" clip-path="url(#z24247c7)" d="M487 237L542 284L535 861L511 920L413 863"/>
<path style="--d:8s;" pathLength="3333" clip-path="url(#z24247c8)" d="M310 621L415 697"/>
<path style="--d:9s;" pathLength="3333" clip-path="url(#z24247c9)" d="M224 838L292 843L461 726"/>
<path style="--d:10s;" pathLength="3333" clip-path="url(#z24247c10)" d="M742 569L766 617L655 714"/>
<path style="--d:11s;" pathLength="3333" clip-path="url(#z24247c11)" d="M563 637L785 848L946 868"/>
</svg>