<!--
AnimCJK 2016-2025 Copyright FM-SH - https://github.com/parsimonhi/animCJK
Derived from:
    MakeMeAHanzi project - https://github.com/skishore/makemeahanzi
    Arphic PL KaitiM GB font
    Arphic PL UKai font
You can redistribute and/or modify this file under the terms of the Arphic Public License
as published by Arphic Technology Co., Ltd.
You should have received a copy of this license along with this file.
If not, see http://ftp.gnu.org/non-gnu/chinese-fonts-truetype/LICENSE.
-->
<svg id="z25818" class="acjk" version="1.1" viewBox="0 0 1024 1024" xmlns="http://www.w3.org/2000/svg" xmlns:xlink="http://www.w3.org/1999/xlink">
<style>
<![CDATA[
@keyframes zk {
	to {
		stroke-dashoffset:0;
	}
}
svg.acjk path[clip-path] {
	--t:0.8s;
	animation:zk var(--t) linear forwards var(--d);
	stroke-dasharray:3337;
	stroke-dashoffset:3339;
	stroke-width:128;
	stroke-linecap:round;
	fill:none;
	stroke:#000;
}
svg.acjk path[id] {fill:#ccc;}
]]>
</style>
<path id="z25818d1" d="M275 342C326 325 352 314 354 313C359 307 360 300 357 296C351 287 337 281 317 280C303 278 289 279 277 285C245 298 245 298 229 305C203 315 124 338 97 345C72 350 69 361 90 369C143 387 178 372 228 357C259 347 259 347 275 342Z"/>
<path id="z25818d2" d="M224 546C223 593 223 647 222 705C221 719 217 730 209 736C207 737 188 740 156 734C134 729 125 724 127 731C127 735 134 742 147 753C180 782 200 807 208 824C217 843 225 854 235 856C243 856 254 846 264 824C276 795 283 757 281 710C277 641 273 572 273 504C273 480 273 480 273 468C273 425 273 383 275 342C276 304 276 304 277 285C279 213 280 154 297 113C304 92 294 79 260 63C238 52 222 46 209 51C198 54 197 65 207 79C220 97 228 116 229 138C229 150 230 205 229 305C228 340 228 340 228 357C227 397 226 444 225 498C224 530 224 530 224 546Z"/>
<path id="z25818d3" d="M225 498C100 575 34 614 34 619C32 624 37 632 48 641C60 650 73 658 89 662C96 664 109 657 123 643C164 599 198 567 224 546C257 518 257 518 273 504C297 483 321 465 345 440C351 432 347 427 340 428C335 428 313 442 273 468C241 488 241 488 225 498Z"/>
<path id="z25818d4" d="M623 208C625 181 628 156 632 132C634 117 634 117 635 110C636 100 637 88 643 76C645 70 641 61 630 55C611 43 595 39 582 37C573 35 566 36 562 41C557 45 557 52 563 59C572 71 581 123 587 215C587 227 623 220 623 208Z"/>
<path id="z25818d5" d="M632 132C658 144 686 142 719 132C735 126 752 123 771 119C782 116 794 109 788 98C784 90 771 82 753 84C727 86 691 101 635 110C628 111 625 129 632 132Z"/>
<path id="z25818d6" d="M591 245C699 219 768 207 798 211C808 212 812 216 811 222C810 222 803 244 782 284C769 307 777 307 802 294C834 275 863 261 889 256C909 251 921 246 921 240C920 233 897 215 858 184C845 174 832 168 818 171C748 183 686 195 623 208C599 213 599 213 587 215C556 220 500 233 448 242C424 245 396 249 377 252C347 258 352 272 393 281C410 284 428 281 451 277C476 271 532 258 561 252C581 247 581 247 591 245Z"/>
<path id="z25818d7" d="M393 281C402 301 407 323 408 350C412 589 363 710 277 871C264 894 279 891 293 879C419 770 455 514 459 350C460 290 467 298 451 277C439 262 386 263 393 281Z"/>
<path id="z25818d8" d="M604 343C630 335 657 327 685 319C703 313 714 307 717 305C721 300 721 295 719 292C715 287 705 283 691 281C675 278 648 292 605 306C584 313 584 313 573 316C548 323 522 329 496 335C477 339 474 346 489 353C504 360 534 363 574 352C594 346 594 346 604 343Z"/>
<path id="z25818d9" d="M574 352C574 376 581 393 595 404C629 430 677 434 737 416C751 411 764 403 777 392C784 385 787 375 780 365C776 359 769 344 758 326C751 315 747 313 742 326C728 359 714 376 698 381C674 387 649 387 627 379C613 374 603 361 604 343C605 318 605 318 605 306C605 280 612 257 591 245C582 240 556 243 561 252C567 258 571 278 573 316C574 340 574 340 574 352Z"/>
<path id="z25818d10" d="M580 518C714 495 782 470 787 467C792 462 793 457 791 453C786 446 776 441 761 438C747 435 710 446 650 464C598 479 547 487 498 494C479 496 476 503 490 513C501 520 520 527 544 524C568 520 568 520 580 518Z"/>
<path id="z25818d11" d="M585 555C591 549 600 543 599 535C597 528 592 522 580 518C568 514 550 514 544 524C530 552 496 587 440 628C430 635 430 636 443 636C474 635 515 613 566 571C579 560 579 560 585 555Z"/>
<path id="z25818d12" d="M679 635C652 595 628 576 585 555C577 552 560 565 566 571C569 575 574 577 578 581C591 593 606 602 619 617C624 623 631 630 636 639C644 653 656 677 662 698C673 738 667 779 652 833C645 853 638 864 633 868C628 870 601 871 551 865C542 863 537 863 536 868C535 872 538 879 547 887C580 916 604 939 619 958C627 968 636 972 645 971C656 968 668 959 678 943C707 893 721 826 714 745C710 711 705 700 703 691C697 671 690 651 679 635Z"/>
<path id="z25818d13" d="M578 581C534 655 473 700 420 736C409 742 410 746 423 744C515 723 562 665 619 617C632 604 589 566 578 581Z"/>
<path id="z25818d14" d="M636 639C577 740 486 814 408 870C391 885 410 882 421 879C506 857 613 762 662 698C675 681 649 622 636 639Z"/>
<path id="z25818d15" d="M695 646C745 604 782 572 810 559C819 554 825 551 822 544C818 535 810 525 798 515C786 504 773 498 760 498C751 498 746 504 748 516C749 524 749 533 744 543C729 567 707 598 679 635C666 652 678 659 695 646Z"/>
<path id="z25818d16" d="M703 691C729 721 755 753 785 783C798 796 819 802 843 802C887 802 930 795 975 784C985 781 992 779 993 777C994 772 989 768 981 766C877 739 804 714 763 690C750 682 727 667 695 646C677 632 689 673 703 691Z"/>
<defs>
	<clipPath id="z25818c1"><use xlink:href="#z25818d1"/></clipPath>
	<clipPath id="z25818c2"><use xlink:href="#z25818d2"/></clipPath>
	<clipPath id="z25818c3"><use xlink:href="#z25818d3"/></clipPath>
	<clipPath id="z25818c4"><use xlink:href="#z25818d4"/></clipPath>
	<clipPath id="z25818c5"><use xlink:href="#z25818d5"/></clipPath>
	<clipPath id="z25818c6"><use xlink:href="#z25818d6"/></clipPath>
	<clipPath id="z25818c7"><use xlink:href="#z25818d7"/></clipPath>
	<clipPath id="z25818c8"><use xlink:href="#z25818d8"/></clipPath>
	<clipPath id="z25818c9"><use xlink:href="#z25818d9"/></clipPath>
	<clipPath id="z25818c10"><use xlink:href="#z25818d10"/></clipPath>
	<clipPath id="z25818c11"><use xlink:href="#z25818d11"/></clipPath>
	<clipPath id="z25818c12"><use xlink:href="#z25818d12"/></clipPath>
	<clipPath id="z25818c13"><use xlink:href="#z25818d13"/></clipPath>
	<clipPath id="z25818c14"><use xlink:href="#z25818d14"/></clipPath>
	<clipPath id="z25818c15"><use xlink:href="#z25818d15"/></clipPath>
	<clipPath id="z25818c16"><use xlink:href="#z25818d16"/></clipPath>
</defs>
<path style="--d:1s;" pathLength="3333" clip-path="url(#z25818c1)" d="M84 355L354 299"/>
<path style="--d:2s;" pathLength="3333" clip-path="url(#z25818c2)" d="M208 56L263 115L249 731L221 804L134 735"/>
<path style="--d:3s;" pathLength="3333" clip-path="url(#z25818c3)" d="M40 618L94 621L343 435"/>
<path style="--d:4s;" pathLength="3333" clip-path="url(#z25818c4)" d="M565 47L608 82L598 217"/>
<path style="--d:5s;" pathLength="3333" clip-path="url(#z25818c5)" d="M631 124L784 101"/>
<path style="--d:6s;" pathLength="3333" clip-path="url(#z25818c6)" d="M364 261L812 191L864 243L783 295"/>
<path style="--d:7s;" pathLength="3333" clip-path="url(#z25818c7)" d="M400 273L433 323L415 567L358 753L279 880"/>
<path style="--d:8s;" pathLength="3333" clip-path="url(#z25818c8)" d="M489 345L714 297"/>
<path style="--d:9s;" pathLength="3333" clip-path="url(#z25818c9)" d="M569 251L594 374L624 398L734 389L756 366L750 326"/>
<path style="--d:10s;" pathLength="3333" clip-path="url(#z25818c10)" d="M488 502L787 459"/>
<path style="--d:11s;" pathLength="3333" clip-path="url(#z25818c11)" d="M558 519L558 550L443 630"/>
<path style="--d:12s;" pathLength="3333" clip-path="url(#z25818c12)" d="M572 567L671 663L688 806L642 918L544 869"/>
<path style="--d:13s;" pathLength="3333" clip-path="url(#z25818c13)" d="M585 583L590 612L551 651L423 740"/>
<path style="--d:14s;" pathLength="3333" clip-path="url(#z25818c14)" d="M642 641L637 686L586 747L411 878"/>
<path style="--d:15s;" pathLength="3333" clip-path="url(#z25818c15)" d="M758 503L782 548L680 645"/>
<path style="--d:16s;" pathLength="3333" clip-path="url(#z25818c16)" d="M692 651L814 757L987 775"/>
</svg>