<!--
AnimCJK 2016-2025 Copyright FM-SH - https://github.com/parsimonhi/animCJK
Derived from:
    MakeMeAHanzi project - https://github.com/skishore/makemeahanzi
    Arphic PL KaitiM GB font
    Arphic PL KaitiM Big5 font
You can redistribute and/or modify this file under the terms of the Arphic Public License
as published by Arphic Technology Co., Ltd.
You should have received a copy of this license along with this file.
If not, see https://ftp.gnu.org/non-gnu/chinese-fonts-truetype/LICENSE.
-->
<svg id="z25972" class="acjk" viewBox="0 0 1024 1024" xmlns="http://www.w3.org/2000/svg">
<style>
<![CDATA[
@keyframes zk {
	to {
		stroke-dashoffset:0;
	}
}
svg.acjk path[clip-path] {
	--t:0.8s;
	animation:zk var(--t) linear forwards var(--d);
	stroke-dasharray:3337;
	stroke-dashoffset:3339;
	stroke-width:128;
	stroke-linecap:round;
	fill:none;
	stroke:#000;
}
svg.acjk path[id] {fill:#ccc;}
]]>
</style>
<path id="z25972d1" d="M371 210C437 195 471 186 475 183C479 178 480 173 478 169C474 162 464 157 449 154C432 150 409 160 377 169C344 178 344 178 328 182C299 189 267 193 234 198C215 200 211 209 226 216C264 233 296 226 330 219C357 213 357 213 371 210Z"/>
<path id="z25972d2" d="M209 301C202 298 190 296 182 296C175 295 170 296 168 299C165 301 163 305 167 311C195 351 213 427 225 442C238 459 247 451 248 435C248 425 248 416 246 407C238 378 230 339 230 329C230 317 220 305 209 301Z"/>
<path id="z25972d3" d="M466 372C480 338 495 319 508 310C518 302 519 289 510 282C492 266 475 257 459 251C442 244 427 259 367 273C343 278 343 278 331 281C316 284 248 296 209 301C197 303 219 331 230 329C240 327 272 322 331 310C354 305 354 305 365 303C405 294 427 290 435 298C440 303 436 327 428 369C426 381 461 384 466 372Z"/>
<path id="z25972d4" d="M363 415C395 409 432 404 478 400C484 399 487 396 488 392C488 388 480 381 466 372C455 365 440 365 428 369C400 377 383 380 363 385C340 390 340 390 329 392C300 397 271 401 246 407C237 409 239 437 248 435C260 433 276 428 293 426C340 419 340 419 363 415Z"/>
<path id="z25972d5" d="M322 460C316 514 321 542 328 560C342 591 354 588 359 564C362 551 364 529 364 501C363 468 363 440 363 415C363 395 363 395 363 385C363 357 363 329 365 303C366 283 366 283 367 273C367 262 368 226 371 210C375 183 375 183 377 169C379 154 387 140 395 126C399 119 398 109 390 103C355 73 328 64 309 71C300 73 295 80 301 90C314 114 325 143 328 182C329 207 329 207 330 219C330 232 331 270 331 281C331 300 331 300 331 310C331 340 331 367 329 392C324 437 324 437 322 460Z"/>
<path id="z25972d6" d="M293 426C276 474 201 544 109 599C99 604 99 608 108 610C180 605 282 532 322 460C344 424 309 386 293 426Z"/>
<path id="z25972d7" d="M397 473C413 484 428 498 445 513C450 518 457 520 464 520C468 520 472 517 474 511C476 505 474 495 471 483C468 473 459 463 443 457C410 443 389 439 380 442C377 442 376 446 378 453C378 457 385 464 397 473Z"/>
<path id="z25972d8" d="M626 248C640 225 655 198 671 167C680 148 688 133 696 123C700 116 700 109 698 103C694 96 684 86 668 77C651 68 639 65 629 67C618 68 616 74 623 87C634 108 624 157 590 232C574 266 554 303 530 342C525 348 522 353 522 357C521 363 524 365 531 363C537 361 546 353 558 340C567 330 567 330 571 325C583 310 608 276 618 261C623 252 623 252 626 248Z"/>
<path id="z25972d9" d="M736 265C810 243 849 232 853 230C858 226 859 219 856 215C851 207 839 202 821 200C802 196 784 201 767 209C720 230 677 240 626 248C621 249 614 258 618 261C634 275 675 282 705 274C726 268 726 268 736 265Z"/>
<path id="z25972d10" d="M709 427C731 393 761 333 772 322C780 313 779 306 772 298C758 282 747 271 736 265C727 259 703 263 705 274C712 298 704 342 674 398C668 409 660 418 652 428C619 463 576 496 519 520C511 523 508 527 516 529C569 539 637 503 680 462C690 451 700 439 709 427Z"/>
<path id="z25972d11" d="M680 462C736 531 786 565 818 566C859 566 900 562 938 557C958 554 967 550 965 545C963 540 935 531 886 515C807 489 747 458 709 427C686 408 686 408 674 398C658 385 644 371 630 357C609 336 589 325 571 325C564 325 553 336 558 340C597 368 628 398 652 428C671 451 671 451 680 462Z"/>
<path id="z25972d12" d="M514 628C550 623 588 616 626 611C656 606 672 601 677 598C682 593 684 587 682 583C678 574 666 568 650 564C631 559 613 560 595 566C561 575 525 583 489 590C449 597 405 599 358 603C335 604 331 613 348 623C391 648 427 639 469 634C499 630 499 630 514 628Z"/>
<path id="z25972d13" d="M527 864C529 822 531 783 534 748C535 730 535 730 536 721C541 650 553 655 514 628C501 620 467 619 469 634C487 711 480 794 482 869C482 884 527 879 527 864Z"/>
<path id="z25972d14" d="M534 748C554 752 588 751 636 741C676 732 700 725 705 722C710 718 710 711 707 707C702 699 690 691 673 691C647 689 588 710 536 721C527 722 525 746 534 748Z"/>
<path id="z25972d15" d="M379 879C373 809 371 766 373 750C374 735 369 724 360 718C345 707 328 699 310 695C301 692 294 692 289 697C284 701 283 709 289 718C298 733 307 748 313 766C317 781 326 820 338 882C340 896 379 893 379 879Z"/>
<path id="z25972d16" d="M338 882C282 886 223 892 162 898C147 899 144 904 155 917C164 926 175 934 188 938C201 942 215 943 226 941C381 906 593 888 829 901C1030 912 828 900 832 901C845 902 854 899 858 893C862 885 857 875 847 866C811 837 781 827 755 832C697 841 621 853 527 864C497 867 497 867 482 869C448 872 413 876 379 879C352 881 352 881 338 882Z"/>
<defs>
	<clipPath id="z25972c1"><use href="#z25972d1"/></clipPath>
	<clipPath id="z25972c2"><use href="#z25972d2"/></clipPath>
	<clipPath id="z25972c3"><use href="#z25972d3"/></clipPath>
	<clipPath id="z25972c4"><use href="#z25972d4"/></clipPath>
	<clipPath id="z25972c5"><use href="#z25972d5"/></clipPath>
	<clipPath id="z25972c6"><use href="#z25972d6"/></clipPath>
	<clipPath id="z25972c7"><use href="#z25972d7"/></clipPath>
	<clipPath id="z25972c8"><use href="#z25972d8"/></clipPath>
	<clipPath id="z25972c9"><use href="#z25972d9"/></clipPath>
	<clipPath id="z25972c10"><use href="#z25972d10"/></clipPath>
	<clipPath id="z25972c11"><use href="#z25972d11"/></clipPath>
	<clipPath id="z25972c12"><use href="#z25972d12"/></clipPath>
	<clipPath id="z25972c13"><use href="#z25972d13"/></clipPath>
	<clipPath id="z25972c14"><use href="#z25972d14"/></clipPath>
	<clipPath id="z25972c15"><use href="#z25972d15"/></clipPath>
	<clipPath id="z25972c16"><use href="#z25972d16"/></clipPath>
</defs>
<path style="--d:1s;" pathLength="3333" clip-path="url(#z25972c1)" d="M223 205L472 172"/>
<path style="--d:2s;" pathLength="3333" clip-path="url(#z25972c2)" d="M173 304L206 330L240 444"/>
<path style="--d:3s;" pathLength="3333" clip-path="url(#z25972c3)" d="M214 307L449 276L476 305L441 376"/>
<path style="--d:4s;" pathLength="3333" clip-path="url(#z25972c4)" d="M243 425L482 393"/>
<path style="--d:5s;" pathLength="3333" clip-path="url(#z25972c5)" d="M306 80L359 136L348 577"/>
<path style="--d:6s;" pathLength="3333" clip-path="url(#z25972c6)" d="M311 415L239 527L109 604"/>
<path style="--d:7s;" pathLength="3333" clip-path="url(#z25972c7)" d="M386 449L464 515"/>
<path style="--d:8s;" pathLength="3333" clip-path="url(#z25972c8)" d="M626 75L662 118L529 356"/>
<path style="--d:9s;" pathLength="3333" clip-path="url(#z25972c9)" d="M624 258L853 217"/>
<path style="--d:10s;" pathLength="3333" clip-path="url(#z25972c10)" d="M711 268L741 312L683 424L608 491L521 522"/>
<path style="--d:11s;" pathLength="3333" clip-path="url(#z25972c11)" d="M564 337L788 516L958 546"/>
<path style="--d:12s;" pathLength="3333" clip-path="url(#z25972c12)" d="M345 610L428 618L676 583"/>
<path style="--d:13s;" pathLength="3333" clip-path="url(#z25972c13)" d="M476 631L509 671L502 875"/>
<path style="--d:14s;" pathLength="3333" clip-path="url(#z25972c14)" d="M531 736L703 713"/>
<path style="--d:15s;" pathLength="3333" clip-path="url(#z25972c15)" d="M291 703L340 746L361 887"/>
<path style="--d:16s;" pathLength="3333" clip-path="url(#z25972c16)" d="M156 907L761 864L855 887"/>
</svg>