<!--
AnimCJK 2016-2025 Copyright FM-SH - https://github.com/parsimonhi/animCJK
Derived from:
    MakeMeAHanzi project - https://github.com/skishore/makemeahanzi
    Arphic PL KaitiM GB font
    Arphic PL UKai font
You can redistribute and/or modify this file under the terms of the Arphic Public License
as published by Arphic Technology Co., Ltd.
You should have received a copy of this license along with this file.
If not, see http://ftp.gnu.org/non-gnu/chinese-fonts-truetype/LICENSE.
-->
<svg id="z26032" class="acjk" version="1.1" viewBox="0 0 1024 1024" xmlns="http://www.w3.org/2000/svg" xmlns:xlink="http://www.w3.org/1999/xlink">
<style>
<![CDATA[
@keyframes zk {
	to {
		stroke-dashoffset:0;
	}
}
svg.acjk path[clip-path] {
	--t:0.8s;
	animation:zk var(--t) linear forwards var(--d);
	stroke-dasharray:3337;
	stroke-dashoffset:3339;
	stroke-width:128;
	stroke-linecap:round;
	fill:none;
	stroke:#000;
}
svg.acjk path[id] {fill:#ccc;}
]]>
</style>
<path id="z26032d1" d="M335 110C351 122 366 137 385 153C394 161 406 164 417 163C425 162 430 157 433 148C435 137 433 120 425 101C417 81 383 68 327 60C315 58 308 58 304 61C299 63 297 69 301 79C302 85 315 95 335 110Z"/>
<path id="z26032d2" d="M216 238C193 241 189 249 207 259C231 273 262 276 296 269C356 256 418 243 481 230C509 223 526 218 531 214C535 209 537 203 535 199C531 190 519 184 502 181C484 176 439 194 365 212C317 223 278 229 216 238Z"/>
<path id="z26032d3" d="M234 330C249 355 262 377 280 391C285 394 294 393 300 387C305 381 307 372 307 365C305 341 285 322 251 304C244 300 236 297 230 298C227 298 225 301 225 308C224 314 228 319 234 330Z"/>
<path id="z26032d4" d="M411 397C432 366 468 317 478 306C485 297 487 292 484 287C478 276 468 266 452 254C444 248 436 244 426 248C419 250 419 253 422 262C427 278 399 359 378 406C374 417 404 406 411 397Z"/>
<path id="z26032d5" d="M358 450C422 435 463 429 495 425C527 420 511 399 496 392C474 380 452 385 411 397C389 403 389 403 378 406C353 412 271 431 169 447C143 450 152 466 169 475C183 482 196 485 213 483C235 481 278 467 313 460C343 453 343 453 358 450Z"/>
<path id="z26032d6" d="M335 548C259 566 159 590 94 599C76 601 75 611 90 622C104 632 122 640 146 638C169 635 222 616 335 592C366 585 366 585 381 582C433 570 495 559 537 554C564 550 550 525 534 518C500 502 465 515 383 536C351 544 351 544 335 548Z"/>
<path id="z26032d7" d="M313 460C334 496 335 493 335 548C335 577 335 577 335 592C335 615 339 756 322 833C317 851 319 875 334 908C336 915 339 920 345 924C347 925 354 926 359 923C371 912 379 892 379 862C379 847 379 779 380 668C380 643 380 603 381 582C382 551 382 551 383 536C383 523 388 509 393 497C403 466 387 466 358 450C345 442 304 448 313 460Z"/>
<path id="z26032d8" d="M221 688C217 714 198 741 123 828C115 837 113 840 120 842C126 843 133 842 141 837C179 811 232 760 257 741C283 720 291 713 282 694C277 685 267 676 259 668C249 659 239 654 230 656C216 658 223 673 221 688Z"/>
<path id="z26032d9" d="M408 642C413 653 441 679 462 700C468 706 474 711 483 712C487 712 493 709 496 703C500 695 500 683 497 668C495 656 486 646 470 637C451 625 426 615 413 618C402 621 400 626 408 642Z"/>
<path id="z26032d10" d="M634 298C677 282 776 230 821 217C834 212 841 202 837 191C830 176 818 165 803 152C788 139 777 134 769 134C760 134 758 137 758 147C757 169 731 197 685 232C664 247 637 269 621 281C615 285 627 301 634 298Z"/>
<path id="z26032d11" d="M625 422C628 373 631 311 634 298C635 291 627 285 621 281C591 260 567 251 553 258C545 261 544 269 550 279C577 319 584 422 555 588C540 670 497 757 465 818C462 822 459 826 459 831C457 837 460 839 467 838C477 835 489 818 511 791C568 717 613 606 623 453C624 432 624 432 625 422Z"/>
<path id="z26032d12" d="M786 433C817 427 861 414 932 408C965 405 932 376 923 370C896 351 864 358 818 374C767 390 675 414 625 422C615 424 613 451 623 453C660 459 701 447 729 443C767 436 767 436 786 433Z"/>
<path id="z26032d13" d="M754 933C756 948 760 961 766 969C768 973 773 977 779 974C798 961 807 897 808 786C808 752 809 680 812 550C812 534 816 491 821 475C826 453 811 447 786 433C769 423 722 425 729 443C743 473 747 498 750 519C753 551 752 710 750 789C747 860 750 908 754 933Z"/>
<defs>
	<clipPath id="z26032c1"><use xlink:href="#z26032d1"/></clipPath>
	<clipPath id="z26032c2"><use xlink:href="#z26032d2"/></clipPath>
	<clipPath id="z26032c3"><use xlink:href="#z26032d3"/></clipPath>
	<clipPath id="z26032c4"><use xlink:href="#z26032d4"/></clipPath>
	<clipPath id="z26032c5"><use xlink:href="#z26032d5"/></clipPath>
	<clipPath id="z26032c6"><use xlink:href="#z26032d6"/></clipPath>
	<clipPath id="z26032c7"><use xlink:href="#z26032d7"/></clipPath>
	<clipPath id="z26032c8"><use xlink:href="#z26032d8"/></clipPath>
	<clipPath id="z26032c9"><use xlink:href="#z26032d9"/></clipPath>
	<clipPath id="z26032c10"><use xlink:href="#z26032d10"/></clipPath>
	<clipPath id="z26032c11"><use xlink:href="#z26032d11"/></clipPath>
	<clipPath id="z26032c12"><use xlink:href="#z26032d12"/></clipPath>
	<clipPath id="z26032c13"><use xlink:href="#z26032d13"/></clipPath>
</defs>
<path style="--d:1s;" pathLength="3333" clip-path="url(#z26032c1)" d="M303 68L382 105L418 159"/>
<path style="--d:2s;" pathLength="3333" clip-path="url(#z26032c2)" d="M205 248L531 201"/>
<path style="--d:3s;" pathLength="3333" clip-path="url(#z26032c3)" d="M233 308L301 380"/>
<path style="--d:4s;" pathLength="3333" clip-path="url(#z26032c4)" d="M428 252L451 296L387 406"/>
<path style="--d:5s;" pathLength="3333" clip-path="url(#z26032c5)" d="M161 458L507 413"/>
<path style="--d:6s;" pathLength="3333" clip-path="url(#z26032c6)" d="M88 608L147 614L491 535L547 543"/>
<path style="--d:7s;" pathLength="3333" clip-path="url(#z26032c7)" d="M318 456L364 490L349 917"/>
<path style="--d:8s;" pathLength="3333" clip-path="url(#z26032c8)" d="M230 665L249 712L123 835"/>
<path style="--d:9s;" pathLength="3333" clip-path="url(#z26032c9)" d="M411 627L489 706"/>
<path style="--d:10s;" pathLength="3333" clip-path="url(#z26032c10)" d="M768 137L788 194L627 288"/>
<path style="--d:11s;" pathLength="3333" clip-path="url(#z26032c11)" d="M554 268L600 313L587 542L549 686L465 830"/>
<path style="--d:12s;" pathLength="3333" clip-path="url(#z26032c12)" d="M619 443L878 386L940 393"/>
<path style="--d:13s;" pathLength="3333" clip-path="url(#z26032c13)" d="M735 434L783 476L775 967"/>
</svg>