<!--
AnimCJK 2016-2019 Copyright Francois Mizessyn - https://github.com/parsimonhi/animCJK
Derived from:
    MakeMeAHanzi project - https://github.com/skishore/makemeahanzi
    Arphic PL KaitiM GB font
    Arphic PL UKai font
You can redistribute and/or modify this file under the terms of the Arphic Public License
as published by Arphic Technology Co., Ltd.
You should have received a copy of this license along with this file.
If not, see http://ftp.gnu.org/non-gnu/chinese-fonts-truetype/LICENSE.
-->
<svg id="z27794" class="acjk" version="1.1" viewBox="0 0 1024 1024" xmlns="http://www.w3.org/2000/svg" xmlns:xlink="http://www.w3.org/1999/xlink">
<style>
<![CDATA[
@keyframes zk {
	to {
		stroke-dashoffset:0;
	}
}
svg.acjk path[clip-path] {
	--t:0.8s;
	animation:zk var(--t) linear forwards var(--d);
	stroke-dasharray:3337;
	stroke-dashoffset:3339;
	stroke-width:128;
	stroke-linecap:round;
	fill:none;
	stroke:#000;
}
svg.acjk path[id] {fill:#ccc;}
]]>
</style>
<path id="z27794d1" d="M271 171C286 184 301 202 319 220C329 230 341 235 353 235C361 234 368 229 372 219C376 208 375 190 368 166C364 153 352 141 331 133C279 113 248 107 240 112C235 114 233 121 236 132C237 140 251 152 271 171Z"/>
<path id="z27794d2" d="M153 355C184 390 208 415 231 423C242 426 252 421 258 411C262 402 264 391 262 378C258 359 248 345 235 337C205 318 179 311 159 310C150 309 143 309 137 311C132 312 131 316 133 326C134 334 141 342 153 355Z"/>
<path id="z27794d3" d="M153 726C145 730 139 735 141 748C148 802 165 834 189 850C194 853 199 856 207 856C213 855 215 845 218 827C221 800 262 697 340 518C344 507 347 499 347 495C347 488 343 486 336 490C325 496 278 560 196 684C186 698 174 714 153 726Z"/>
<path id="z27794d4" d="M566 180C575 161 583 144 593 129C599 118 597 109 586 101C552 78 527 71 511 77C503 79 500 85 503 96C519 166 492 253 418 352C414 356 402 370 372 411C365 420 369 425 380 422C393 417 409 408 426 392C467 352 500 309 525 264C532 252 549 213 552 208C561 189 561 189 566 180Z"/>
<path id="z27794d5" d="M552 208C564 214 580 218 601 212C678 187 717 176 722 184C725 190 725 200 724 215C718 257 712 288 702 306C688 328 670 335 651 331C637 327 623 324 611 319C594 312 590 319 604 335C626 362 644 385 655 406C662 419 671 419 683 413C714 396 747 355 770 280C783 236 792 206 807 191C815 182 818 175 814 169C808 161 789 150 757 134C744 127 730 128 718 137C696 152 646 167 566 180C556 182 542 204 552 208Z"/>
<path id="z27794d6" d="M622 712C654 668 679 620 698 560C705 536 713 518 727 507C737 498 737 487 726 477C712 464 694 454 672 446C657 440 642 440 628 448C591 468 549 484 499 492C480 494 467 497 460 502C453 506 457 512 470 518C488 526 510 525 537 518C564 510 593 504 621 496C633 492 639 496 640 510C640 568 621 624 582 677C573 688 565 700 555 711C514 753 427 790 337 814C326 816 324 820 331 826C335 830 348 831 368 829C464 819 539 794 588 750C600 738 611 725 622 712Z"/>
<path id="z27794d7" d="M588 750C636 807 727 896 756 898C830 902 891 893 940 887C966 883 978 879 976 871C974 865 938 855 870 835C767 804 694 775 622 712C595 689 595 689 582 677C552 651 524 623 496 593C469 565 444 551 420 551C407 551 399 552 398 556C396 560 401 567 413 575C446 596 494 639 555 711C577 737 577 737 588 750Z"/>
<defs>
	<clipPath id="z27794c1"><use xlink:href="#z27794d1"/></clipPath>
	<clipPath id="z27794c2"><use xlink:href="#z27794d2"/></clipPath>
	<clipPath id="z27794c3"><use xlink:href="#z27794d3"/></clipPath>
	<clipPath id="z27794c4"><use xlink:href="#z27794d4"/></clipPath>
	<clipPath id="z27794c5"><use xlink:href="#z27794d5"/></clipPath>
	<clipPath id="z27794c6"><use xlink:href="#z27794d6"/></clipPath>
	<clipPath id="z27794c7"><use xlink:href="#z27794d7"/></clipPath>
</defs>
<path style="--d:1s;" pathLength="3333" clip-path="url(#z27794c1)" d="M243 120L334 180L349 232"/>
<path style="--d:2s;" pathLength="3333" clip-path="url(#z27794c2)" d="M138 320L252 414"/>
<path style="--d:3s;" pathLength="3333" clip-path="url(#z27794c3)" d="M 148,738 190,789 340,495"/>
<path style="--d:4s;" pathLength="3333" clip-path="url(#z27794c4)" d="M510 79L551 126L521 214L450 340L379 415"/>
<path style="--d:5s;" pathLength="3333" clip-path="url(#z27794c5)" d="M560 204L727 155L770 187L698 356L662 373L607 324"/>
<path style="--d:6s;" pathLength="3333" clip-path="url(#z27794c6)" d="M466 506L666 478L687 505L647 616L551 746L334 821"/>
<path style="--d:7s;" pathLength="3333" clip-path="url(#z27794c7)" d="M406 558L745 839L966 874"/>
</svg>