<!--
AnimCJK 2016-2025 Copyright FM-SH - https://github.com/parsimonhi/animCJK
Derived from:
    MakeMeAHanzi project - https://github.com/skishore/makemeahanzi
    Arphic PL KaitiM GB font
    Arphic PL UKai font
You can redistribute and/or modify this file under the terms of the Arphic Public License
as published by Arphic Technology Co., Ltd.
You should have received a copy of this license along with this file.
If not, see http://ftp.gnu.org/non-gnu/chinese-fonts-truetype/LICENSE.
-->
<svg id="z27969" class="acjk" version="1.1" viewBox="0 0 1024 1024" xmlns="http://www.w3.org/2000/svg" xmlns:xlink="http://www.w3.org/1999/xlink">
<style>
<![CDATA[
@keyframes zk {
	to {
		stroke-dashoffset:0;
	}
}
svg.acjk path[clip-path] {
	--t:0.8s;
	animation:zk var(--t) linear forwards var(--d);
	stroke-dasharray:3337;
	stroke-dashoffset:3339;
	stroke-width:128;
	stroke-linecap:round;
	fill:none;
	stroke:#000;
}
svg.acjk path[id] {fill:#ccc;}
]]>
</style>
<path id="z27969d1" d="M218 225C235 240 251 257 269 276C279 286 290 291 302 291C310 290 316 284 320 275C323 264 322 247 316 224C312 211 300 198 279 190C227 168 196 163 188 169C184 171 181 178 184 188C185 196 198 208 218 225Z"/>
<path id="z27969d2" d="M148 406C179 439 203 463 225 471C235 474 245 469 251 459C255 450 256 439 254 428C250 411 241 397 228 389C191 366 160 358 136 362C134 362 133 362 133 363C128 364 127 368 129 378C130 386 137 394 148 406Z"/>
<path id="z27969d3" d="M132 746C124 750 120 755 122 767C130 815 147 844 171 860C176 863 181 865 189 864C193 863 195 854 197 837C199 810 233 708 301 532C305 521 307 514 307 510C306 503 303 502 297 507C289 513 247 577 172 702C163 716 151 733 132 746Z"/>
<path id="z27969d4" d="M579 292C638 282 694 270 758 259C800 251 823 242 830 237C835 232 837 226 835 222C830 212 818 205 800 202C777 198 680 225 607 240C570 247 570 247 552 251C489 263 444 267 406 271C382 273 377 280 395 292C409 302 427 307 447 309C470 310 502 304 525 301C561 295 561 295 579 292Z"/>
<path id="z27969d5" d="M693 412C632 422 570 432 510 446C499 448 500 445 504 438C524 396 564 318 579 292C598 257 598 257 607 240C630 196 654 153 660 146C670 136 669 128 664 123C659 118 647 111 639 108C591 87 570 96 581 122C600 164 570 216 552 251C534 284 534 284 525 301C492 360 450 436 416 462C394 478 386 490 401 519C407 530 414 539 424 542C427 543 435 543 442 539C495 503 575 472 708 432C716 429 701 410 693 412Z"/>
<path id="z27969d6" d="M708 432C716 443 726 454 736 468C743 478 751 484 763 486C769 486 776 483 781 475C786 466 787 451 785 430C781 403 746 375 682 346C672 341 664 339 660 341C655 342 649 349 654 357C667 375 679 394 693 412C703 425 703 425 708 432Z"/>
<path id="z27969d7" d="M399 582C411 609 413 662 380 740C360 784 335 815 313 832C291 847 279 856 277 860C275 864 277 866 285 867C303 868 327 859 358 838C400 807 431 741 456 641C458 629 462 621 465 616C469 605 467 595 457 588C432 569 415 560 406 561C395 561 393 568 399 582Z"/>
<path id="z27969d8" d="M529 579C544 621 548 691 532 789C528 809 532 829 549 850C554 856 560 857 566 850C579 830 585 807 584 782C580 714 583 657 592 612C592 610 592 608 593 607C597 594 593 584 582 577C572 570 562 563 553 559C546 555 539 556 533 560C527 563 526 570 529 579Z"/>
<path id="z27969d9" d="M963 804C955 789 944 757 936 709C934 699 933 692 929 690C925 687 922 692 919 703C903 755 889 788 879 804C874 810 864 816 850 820C814 828 780 827 753 813C729 800 717 768 716 722C715 675 720 621 730 562C732 549 729 541 722 535C712 526 701 519 686 514C677 511 670 511 665 515C660 517 660 524 664 536C672 562 676 587 675 611C670 715 674 782 683 812C686 824 692 836 704 846C747 880 811 892 892 874C910 869 938 854 957 841C968 832 971 819 963 804Z"/>
<defs>
	<clipPath id="z27969c1"><use xlink:href="#z27969d1"/></clipPath>
	<clipPath id="z27969c2"><use xlink:href="#z27969d2"/></clipPath>
	<clipPath id="z27969c3"><use xlink:href="#z27969d3"/></clipPath>
	<clipPath id="z27969c4"><use xlink:href="#z27969d4"/></clipPath>
	<clipPath id="z27969c5"><use xlink:href="#z27969d5"/></clipPath>
	<clipPath id="z27969c6"><use xlink:href="#z27969d6"/></clipPath>
	<clipPath id="z27969c7"><use xlink:href="#z27969d7"/></clipPath>
	<clipPath id="z27969c8"><use xlink:href="#z27969d8"/></clipPath>
	<clipPath id="z27969c9"><use xlink:href="#z27969d9"/></clipPath>
</defs>
<path style="--d:1s;" pathLength="3333" clip-path="url(#z27969c1)" d="M187 176L278 231L299 288"/>
<path style="--d:2s;" pathLength="3333" clip-path="url(#z27969c2)" d="M135 369L245 462"/>
<path style="--d:3s;" pathLength="3333" clip-path="url(#z27969c3)" d="M125 756L182 807L301 513"/>
<path style="--d:4s;" pathLength="3333" clip-path="url(#z27969c4)" d="M392 279L474 286L831 224"/>
<path style="--d:5s;" pathLength="3333" clip-path="url(#z27969c5)" d="M586 102L627 145L445 484L473 501L704 424"/>
<path style="--d:6s;" pathLength="3333" clip-path="url(#z27969c6)" d="M660 348L774 476"/>
<path style="--d:7s;" pathLength="3333" clip-path="url(#z27969c7)" d="M405 568L437 614L402 741L343 828L280 859"/>
<path style="--d:8s;" pathLength="3333" clip-path="url(#z27969c8)" d="M535 563L565 602L557 849"/>
<path style="--d:9s;" pathLength="3333" clip-path="url(#z27969c9)" d="M668 519L699 553L696 754L735 834L831 853L901 833L929 802L928 696"/>
</svg>