<!--
AnimCJK 2016-2025 Copyright FM-SH - https://github.com/parsimonhi/animCJK
Derived from:
    MakeMeAHanzi project - https://github.com/skishore/makemeahanzi
    Arphic PL KaitiM GB font
    Arphic PL UKai font
You can redistribute and/or modify this file under the terms of the Arphic Public License
as published by Arphic Technology Co., Ltd.
You should have received a copy of this license along with this file.
If not, see http://ftp.gnu.org/non-gnu/chinese-fonts-truetype/LICENSE.
-->
<svg id="z37291" class="acjk" version="1.1" viewBox="0 0 1024 1024" xmlns="http://www.w3.org/2000/svg" xmlns:xlink="http://www.w3.org/1999/xlink">
<style>
<![CDATA[
@keyframes zk {
	to {
		stroke-dashoffset:0;
	}
}
svg.acjk path[clip-path] {
	--t:0.8s;
	animation:zk var(--t) linear forwards var(--d);
	stroke-dasharray:3337;
	stroke-dashoffset:3339;
	stroke-width:128;
	stroke-linecap:round;
	fill:none;
	stroke:#000;
}
svg.acjk path[id] {fill:#ccc;}
]]>
</style>
<path id="z37291d1" d="M236 129C250 132 266 130 283 129C318 126 355 118 385 111C469 89 513 77 516 75C520 71 520 66 519 63C514 56 504 51 491 49C475 46 461 49 446 56C423 65 399 71 375 78C347 85 303 94 236 99C188 102 209 123 236 129Z"/>
<path id="z37291d2" d="M382 191C389 180 400 169 396 161C394 156 389 150 379 144C368 138 361 136 355 137C348 137 346 141 351 149C354 156 352 175 340 205C334 218 328 232 318 248C314 254 314 254 312 257C309 260 313 262 318 261C330 257 349 238 373 204C379 195 379 195 382 191Z"/>
<path id="z37291d3" d="M433 209C446 207 486 193 513 182C517 180 517 174 515 171C511 165 501 162 490 162C475 161 459 169 421 182C409 185 396 187 382 191C377 193 368 201 373 204C379 209 392 213 405 212C424 210 424 210 433 209Z"/>
<path id="z37291d4" d="M437 293C477 283 525 275 527 269C528 264 521 260 512 256C497 247 476 250 445 260C421 267 421 267 409 271C393 275 361 280 318 289C305 291 303 295 314 303C327 311 358 311 402 301C425 296 425 296 437 293Z"/>
<path id="z37291d5" d="M402 301C392 328 371 356 328 389C323 392 321 394 327 395C378 391 426 338 437 293C442 271 442 271 445 260C453 223 466 228 433 209C425 204 403 203 405 212C409 226 412 245 409 271C407 281 405 291 402 301Z"/>
<path id="z37291d6" d="M479 344C489 350 503 358 516 369C521 372 528 374 534 373C538 372 541 369 542 364C543 357 539 348 535 338C531 331 523 325 511 322C486 315 469 313 459 318C457 318 457 322 459 328C460 331 466 337 479 344Z"/>
<path id="z37291d7" d="M236 129C256 167 261 194 247 367C246 371 243 422 260 440C305 489 406 441 497 439C507 438 514 436 514 431C514 424 508 413 494 409C481 404 451 406 385 418C354 423 306 433 289 411C278 397 284 321 291 221C292 203 293 177 297 155C299 143 291 135 283 129C272 118 229 115 236 129Z"/>
<path id="z37291d8" d="M581 109C583 148 579 194 559 243C557 246 555 248 555 251C554 255 556 257 560 256C574 251 591 235 603 206C619 164 625 131 626 108C626 98 626 84 617 79C612 75 604 72 597 69C587 65 582 63 577 66C572 68 572 71 575 79C579 89 580 102 581 109Z"/>
<path id="z37291d9" d="M626 108C643 100 661 95 676 89C689 83 701 80 699 96C691 150 682 175 687 188C700 227 747 225 778 223C808 220 829 213 844 205C850 201 852 196 847 189C839 179 829 173 819 169C812 166 802 168 792 175C757 196 733 199 724 181C719 172 724 157 732 135C736 121 745 107 761 96C770 88 771 81 763 73C751 62 738 54 726 47C711 38 701 49 676 60C655 68 636 73 617 79C608 83 617 112 626 108Z"/>
<path id="z37291d10" d="M716 357C751 308 767 282 768 282C776 275 778 266 773 261C767 253 756 249 743 243C731 238 720 239 707 245C692 251 675 256 656 262C637 267 611 272 578 276C571 276 567 278 565 282C563 284 565 288 575 292C591 299 613 299 637 292C669 281 687 275 693 275C701 275 705 281 703 292C697 312 689 332 678 348C671 357 663 365 655 373C629 394 594 409 552 420C545 421 541 426 549 429C581 442 651 414 688 387C698 378 708 368 716 357Z"/>
<path id="z37291d11" d="M688 387C712 397 736 408 758 422C766 427 773 431 780 432C786 432 789 428 791 420C791 413 788 404 783 393C777 380 762 370 736 362C729 360 723 358 716 357C691 351 691 351 678 348C618 333 585 331 579 334C576 334 576 337 578 343C578 344 604 351 655 373C677 382 677 382 688 387Z"/>
<path id="z37291d12" d="M546 521C628 513 727 508 845 510C901 510 931 509 935 502C938 495 934 486 924 478C890 451 861 442 838 447C696 475 454 507 112 543C99 544 97 550 107 561C115 570 125 576 137 580C150 584 162 583 173 581C247 559 327 546 411 536C433 533 433 533 444 532C466 529 489 526 515 524C536 522 536 522 546 521Z"/>
<path id="z37291d13" d="M336 621C330 615 319 609 304 603C297 600 291 599 285 603C280 605 281 610 285 618C286 621 287 626 289 630C301 656 310 720 299 821C293 869 292 908 315 936C320 943 328 943 334 936C340 926 343 913 344 899C345 878 345 878 345 868C347 796 345 724 346 652C346 641 345 628 336 621Z"/>
<path id="z37291d14" d="M665 880C667 909 674 928 688 952C710 990 726 961 738 937C749 912 753 885 752 857C749 812 746 750 744 671C743 650 748 634 759 620C765 612 764 604 759 598C746 585 723 571 691 556C679 550 669 551 659 556C632 567 603 577 571 585C544 591 544 591 530 594C515 597 477 604 461 607C434 611 434 611 421 613C384 618 356 619 336 621C325 621 335 654 346 652C356 651 409 641 419 640C444 635 444 635 457 633C479 628 503 624 529 619C553 614 553 614 565 612C625 600 662 597 680 610C689 617 691 678 689 793C688 811 687 854 675 861C670 866 665 873 665 880Z"/>
<path id="z37291d15" d="M411 536C421 552 424 567 421 613C420 631 420 631 419 640C417 658 407 690 388 734C386 737 383 739 383 743C382 747 384 748 389 748C397 747 423 720 438 690C444 675 453 657 457 633C460 616 460 616 461 607C464 583 471 560 468 550C465 541 453 536 444 532C434 528 404 527 411 536Z"/>
<path id="z37291d16" d="M571 585C573 574 577 565 581 555C583 547 583 539 578 535C571 529 560 525 546 521C536 519 517 514 515 524C512 526 513 531 519 539C526 549 531 567 530 594C529 611 529 611 529 619C528 633 529 648 528 664C526 690 531 707 543 717C552 724 578 729 624 728C642 727 653 723 660 715C664 709 665 703 662 700C655 693 637 691 591 690C563 688 551 674 565 612C569 594 569 594 571 585Z"/>
<path id="z37291d17" d="M411 789C401 790 401 796 413 806C417 809 425 811 437 811C489 806 535 803 574 801C588 800 592 795 588 787C583 778 573 771 558 768C548 765 499 772 411 789Z"/>
<path id="z37291d18" d="M344 899C360 901 441 889 665 880C672 880 681 865 675 861C619 822 620 843 345 868C335 870 334 899 344 899Z"/>
<defs>
	<clipPath id="z37291c1"><use xlink:href="#z37291d1"/></clipPath>
	<clipPath id="z37291c2"><use xlink:href="#z37291d2"/></clipPath>
	<clipPath id="z37291c3"><use xlink:href="#z37291d3"/></clipPath>
	<clipPath id="z37291c4"><use xlink:href="#z37291d4"/></clipPath>
	<clipPath id="z37291c5"><use xlink:href="#z37291d5"/></clipPath>
	<clipPath id="z37291c6"><use xlink:href="#z37291d6"/></clipPath>
	<clipPath id="z37291c7"><use xlink:href="#z37291d7"/></clipPath>
	<clipPath id="z37291c8"><use xlink:href="#z37291d8"/></clipPath>
	<clipPath id="z37291c9"><use xlink:href="#z37291d9"/></clipPath>
	<clipPath id="z37291c10"><use xlink:href="#z37291d10"/></clipPath>
	<clipPath id="z37291c11"><use xlink:href="#z37291d11"/></clipPath>
	<clipPath id="z37291c12"><use xlink:href="#z37291d12"/></clipPath>
	<clipPath id="z37291c13"><use xlink:href="#z37291d13"/></clipPath>
	<clipPath id="z37291c14"><use xlink:href="#z37291d14"/></clipPath>
	<clipPath id="z37291c15"><use xlink:href="#z37291d15"/></clipPath>
	<clipPath id="z37291c16"><use xlink:href="#z37291d16"/></clipPath>
	<clipPath id="z37291c17"><use xlink:href="#z37291d17"/></clipPath>
	<clipPath id="z37291c18"><use xlink:href="#z37291d18"/></clipPath>
</defs>
<path style="--d:1s;" pathLength="3333" clip-path="url(#z37291c1)" d="M215 110L511 62"/>
<path style="--d:2s;" pathLength="3333" clip-path="url(#z37291c2)" d="M358 143L371 175L319 254"/>
<path style="--d:3s;" pathLength="3333" clip-path="url(#z37291c3)" d="M379 201L510 175"/>
<path style="--d:4s;" pathLength="3333" clip-path="url(#z37291c4)" d="M318 295L519 265"/>
<path style="--d:5s;" pathLength="3333" clip-path="url(#z37291c5)" d="M413 211L432 243L415 309L332 390"/>
<path style="--d:6s;" pathLength="3333" clip-path="url(#z37291c6)" d="M464 322L533 367"/>
<path style="--d:7s;" pathLength="3333" clip-path="url(#z37291c7)" d="M242 125L273 154L273 424L317 443L507 429"/>
<path style="--d:8s;" pathLength="3333" clip-path="url(#z37291c8)" d="M582 72L601 145L561 247"/>
<path style="--d:9s;" pathLength="3333" clip-path="url(#z37291c9)" d="M620 99L708 65L733 92L712 196L763 207L839 183"/>
<path style="--d:10s;" pathLength="3333" clip-path="url(#z37291c10)" d="M573 284L705 260L739 277L665 384L553 425"/>
<path style="--d:11s;" pathLength="3333" clip-path="url(#z37291c11)" d="M584 337L735 384L783 426"/>
<path style="--d:12s;" pathLength="3333" clip-path="url(#z37291c12)" d="M108 550L159 560L834 478L931 489"/>
<path style="--d:13s;" pathLength="3333" clip-path="url(#z37291c13)" d="M289 607L322 657L324 937"/>
<path style="--d:14s;" pathLength="3333" clip-path="url(#z37291c14)" d="M338 628L670 578L716 603L710 965"/>
<path style="--d:15s;" pathLength="3333" clip-path="url(#z37291c15)" d="M418 536L444 562L439 626L390 740"/>
<path style="--d:16s;" pathLength="3333" clip-path="url(#z37291c16)" d="M521 524L554 550L547 689L658 706"/>
<path style="--d:17s;" pathLength="3333" clip-path="url(#z37291c17)" d="M411 793L584 788"/>
<path style="--d:18s;" pathLength="3333" clip-path="url(#z37291c18)" d="M339 885L672 866"/>
</svg>