<!--
AnimCJK 2016-2025 Copyright FM-SH - https://github.com/parsimonhi/animCJK
Derived from:
    MakeMeAHanzi project - https://github.com/skishore/makemeahanzi
    Arphic PL KaitiM GB font
    Arphic PL KaitiM Big5 font
You can redistribute and/or modify this file under the terms of the Arphic Public License
as published by Arphic Technology Co., Ltd.
You should have received a copy of this license along with this file.
If not, see https://ftp.gnu.org/non-gnu/chinese-fonts-truetype/LICENSE.
-->
<svg id="z37636" class="acjk" viewBox="0 0 1024 1024" xmlns="http://www.w3.org/2000/svg">
<style>
<![CDATA[
@keyframes zk {
	to {
		stroke-dashoffset:0;
	}
}
svg.acjk path[clip-path] {
	--t:0.8s;
	animation:zk var(--t) linear forwards var(--d);
	stroke-dasharray:3337;
	stroke-dashoffset:3339;
	stroke-width:128;
	stroke-linecap:round;
	fill:none;
	stroke:#000;
}
svg.acjk path[id] {fill:#ccc;}
]]>
</style>
<path id="z37636d1" d="M173 393C257 287 293 216 308 195C317 181 317 181 322 174C331 160 340 146 334 129C331 121 321 109 303 97C286 85 271 80 260 81C247 81 243 89 250 103C259 123 260 142 253 161C229 220 200 278 165 334C130 387 90 444 42 503C35 510 31 514 30 519C27 525 31 527 41 526C62 522 132 443 169 398C172 395 172 395 173 393Z"/>
<path id="z37636d2" d="M308 195C330 215 359 232 380 248C393 257 414 262 417 244C425 190 354 174 322 174C314 174 301 190 308 195Z"/>
<path id="z37636d3" d="M284 398C305 390 327 382 351 375C361 371 385 363 376 350C371 343 360 339 343 338C328 337 277 359 247 369C226 375 205 382 173 393C171 394 168 396 169 398C178 416 230 415 245 411C271 402 271 402 284 398Z"/>
<path id="z37636d4" d="M299 524C345 511 369 501 373 499C377 494 378 489 375 485C370 478 360 474 345 472C329 469 314 474 300 480C270 491 270 491 255 497C244 501 194 516 144 525C124 528 122 537 138 544C181 562 229 543 256 536C285 528 285 528 299 524Z"/>
<path id="z37636d5" d="M296 696C296 633 297 576 299 524C300 495 300 495 300 480C301 414 320 422 284 398C273 390 240 398 245 411C251 426 254 468 255 497C256 523 256 523 256 536C257 576 256 634 257 709C257 723 296 710 296 696Z"/>
<path id="z37636d6" d="M127 635C139 647 153 661 168 678C174 685 182 690 192 690C198 690 202 686 205 679C207 671 207 658 204 643C199 624 173 608 126 595C117 592 111 591 108 593C105 594 102 599 104 607C104 613 113 622 127 635Z"/>
<path id="z37636d7" d="M353 574C346 588 336 608 322 635C319 638 319 643 323 645C326 646 330 643 334 641C366 612 389 590 407 581C414 576 418 574 415 569C410 562 404 554 394 547C384 539 373 536 363 537C356 537 353 542 355 552C356 558 356 565 353 574Z"/>
<path id="z37636d8" d="M257 709C153 743 89 760 68 761C59 761 54 765 54 773C53 781 55 789 62 794C76 805 94 816 118 827C124 829 131 826 140 820C233 757 299 740 381 685C389 679 396 674 394 668C392 662 384 663 376 666C349 674 323 686 296 696C270 705 270 705 257 709Z"/>
<path id="z37636d9" d="M616 148C643 101 660 85 640 67C619 49 602 37 587 36C576 34 568 36 564 41C559 45 563 50 567 60C580 102 551 184 526 238C517 256 508 267 500 271C485 277 475 286 474 297C470 315 472 329 477 337C482 347 489 346 499 341C569 300 622 301 692 281C701 278 711 256 702 256C699 256 653 262 565 272C558 272 555 268 555 265C554 262 570 226 609 160C614 152 614 152 616 148Z"/>
<path id="z37636d10" d="M697 378C747 262 782 200 802 190C813 183 815 173 811 165C804 152 789 139 768 124C757 116 742 110 725 118C695 130 639 142 616 148C611 149 606 157 609 160C628 182 678 170 695 165C708 160 719 157 728 165C731 168 724 200 702 256C695 273 695 273 692 281C678 314 662 349 646 387C641 403 691 394 697 378Z"/>
<path id="z37636d11" d="M635 420C704 407 796 402 910 402C922 401 929 398 931 394C933 387 930 379 921 372C889 349 852 345 811 355C778 362 740 370 697 378C663 384 663 384 646 387C577 399 502 409 422 421C410 422 408 427 418 437C425 445 435 450 446 453C457 455 468 455 478 453C512 442 549 434 589 428C620 423 620 423 635 420Z"/>
<path id="z37636d12" d="M663 575C663 466 698 452 635 420C622 412 579 416 589 428C615 454 623 574 612 786C611 801 611 831 599 840C593 843 567 840 518 829C509 827 506 828 507 834C507 838 511 842 518 848C562 887 590 919 605 942C612 953 623 954 634 945C657 924 668 890 667 845C666 820 663 741 663 606C663 585 663 585 663 575Z"/>
<path id="z37636d13" d="M477 550C489 560 502 573 516 588C522 594 530 599 540 599C546 599 550 594 553 587C555 579 554 567 550 551C545 537 520 522 474 510C465 507 458 507 456 509C452 511 451 516 453 523C454 529 463 538 477 550Z"/>
<path id="z37636d14" d="M370 762C362 764 359 771 360 777C361 785 366 790 373 793C389 798 409 803 432 806C438 806 444 801 449 794C489 733 541 689 564 658C569 650 574 643 571 639C567 634 560 637 555 642C510 674 458 710 400 749C393 753 382 756 370 762Z"/>
<path id="z37636d15" d="M722 595C742 586 791 549 838 533C861 524 850 501 830 482C816 470 804 461 790 460C780 458 777 466 775 479C770 511 751 537 711 580C695 600 698 606 722 595Z"/>
<path id="z37636d16" d="M727 681C792 729 801 741 862 784C880 797 890 767 878 739C859 696 835 682 779 660C733 642 661 633 727 681Z"/>
<defs>
	<clipPath id="z37636c1"><use href="#z37636d1"/></clipPath>
	<clipPath id="z37636c2"><use href="#z37636d2"/></clipPath>
	<clipPath id="z37636c3"><use href="#z37636d3"/></clipPath>
	<clipPath id="z37636c4"><use href="#z37636d4"/></clipPath>
	<clipPath id="z37636c5"><use href="#z37636d5"/></clipPath>
	<clipPath id="z37636c6"><use href="#z37636d6"/></clipPath>
	<clipPath id="z37636c7"><use href="#z37636d7"/></clipPath>
	<clipPath id="z37636c8"><use href="#z37636d8"/></clipPath>
	<clipPath id="z37636c9"><use href="#z37636d9"/></clipPath>
	<clipPath id="z37636c10"><use href="#z37636d10"/></clipPath>
	<clipPath id="z37636c11"><use href="#z37636d11"/></clipPath>
	<clipPath id="z37636c12"><use href="#z37636d12"/></clipPath>
	<clipPath id="z37636c13"><use href="#z37636d13"/></clipPath>
	<clipPath id="z37636c14"><use href="#z37636d14"/></clipPath>
	<clipPath id="z37636c15"><use href="#z37636d15"/></clipPath>
	<clipPath id="z37636c16"><use href="#z37636d16"/></clipPath>
</defs>
<path style="--d:1s;" pathLength="3333" clip-path="url(#z37636c1)" d="M253 87L291 121L294 154L197 325L38 521"/>
<path style="--d:2s;" pathLength="3333" clip-path="url(#z37636c2)" d="M311 188L410 247"/>
<path style="--d:3s;" pathLength="3333" clip-path="url(#z37636c3)" d="M176 397L371 350"/>
<path style="--d:4s;" pathLength="3333" clip-path="url(#z37636c4)" d="M136 534L370 489"/>
<path style="--d:5s;" pathLength="3333" clip-path="url(#z37636c5)" d="M250 405L278 431L277 710"/>
<path style="--d:6s;" pathLength="3333" clip-path="url(#z37636c6)" d="M110 598L200 681"/>
<path style="--d:7s;" pathLength="3333" clip-path="url(#z37636c7)" d="M363 546L381 580L326 637"/>
<path style="--d:8s;" pathLength="3333" clip-path="url(#z37636c8)" d="M60 775L119 790L386 671"/>
<path style="--d:9s;" pathLength="3333" clip-path="url(#z37636c9)" d="M571 48L608 95L516 300L698 262"/>
<path style="--d:10s;" pathLength="3333" clip-path="url(#z37636c10)" d="M615 156L734 138L770 175L655 388"/>
<path style="--d:11s;" pathLength="3333" clip-path="url(#z37636c11)" d="M419 428L817 378L926 388"/>
<path style="--d:12s;" pathLength="3333" clip-path="url(#z37636c12)" d="M597 427L640 471L636 843L605 898L511 835"/>
<path style="--d:13s;" pathLength="3333" clip-path="url(#z37636c13)" d="M460 517L544 593"/>
<path style="--d:14s;" pathLength="3333" clip-path="url(#z37636c14)" d="M363 777L430 769L563 645"/>
<path style="--d:15s;" pathLength="3333" clip-path="url(#z37636c15)" d="M787 468L805 518L707 593"/>
<path style="--d:16s;" pathLength="3333" clip-path="url(#z37636c16)" d="M707 654L817 711L874 779"/>
</svg>