<!--
AnimCJK 2016-2025 Copyright FM-SH - https://github.com/parsimonhi/animCJK
Derived from:
    MakeMeAHanzi project - https://github.com/skishore/makemeahanzi
    Arphic PL KaitiM GB font
    Arphic PL UKai font
You can redistribute and/or modify this file under the terms of the Arphic Public License
as published by Arphic Technology Co., Ltd.
You should have received a copy of this license along with this file.
If not, see http://ftp.gnu.org/non-gnu/chinese-fonts-truetype/LICENSE.
-->
<svg id="z39636" class="acjk" version="1.1" viewBox="0 0 1024 1024" xmlns="http://www.w3.org/2000/svg" xmlns:xlink="http://www.w3.org/1999/xlink">
<style>
<![CDATA[
@keyframes zk {
	to {
		stroke-dashoffset:0;
	}
}
svg.acjk path[clip-path] {
	--t:0.8s;
	animation:zk var(--t) linear forwards var(--d);
	stroke-dasharray:3337;
	stroke-dashoffset:3339;
	stroke-width:128;
	stroke-linecap:round;
	fill:none;
	stroke:#000;
}
svg.acjk path[id] {fill:#ccc;}
]]>
</style>
<path id="z39636d1" d="M217 174C205 164 191 157 177 153C168 150 162 151 158 155C154 157 153 163 158 172C168 192 177 213 183 236C188 258 194 317 204 408C206 419 237 411 237 400C233 340 230 271 230 199C230 190 225 180 217 174Z"/>
<path id="z39636d2" d="M402 362C408 273 424 215 450 188C459 177 459 165 449 157C436 146 421 140 408 134C376 117 356 131 330 142C305 151 267 160 217 174C208 176 221 202 230 199C234 196 272 188 345 172C384 170 377 216 375 240C373 259 373 259 372 269C368 305 362 340 356 373C353 388 402 378 402 362Z"/>
<path id="z39636d3" d="M301 385C306 339 306 304 310 284C312 276 314 265 308 259C300 251 287 246 271 245C264 244 260 245 258 248C255 250 254 255 259 260C268 271 275 315 277 391C277 399 299 393 301 385Z"/>
<path id="z39636d4" d="M310 284C322 279 344 273 372 269C382 267 385 242 375 240C367 236 344 242 308 259C300 262 302 287 310 284Z"/>
<path id="z39636d5" d="M146 418C139 404 130 394 125 391C114 384 107 388 109 402C111 424 100 454 73 491C62 504 63 530 83 558C92 571 102 568 110 554C117 539 125 518 131 499C137 474 143 454 148 440C151 433 149 425 146 418Z"/>
<path id="z39636d6" d="M148 440C160 446 173 447 187 443C257 417 325 399 390 392C398 391 414 394 413 403C411 412 404 427 389 459C385 466 383 470 387 472C390 473 396 470 404 466C430 447 455 435 475 427C490 420 500 416 500 411C499 406 481 392 447 368C436 360 421 357 402 362C371 369 371 369 356 373C337 377 317 380 301 385C285 389 285 389 277 391C263 394 249 396 237 400C215 405 215 405 204 408C184 412 164 414 146 418C139 419 141 437 148 440Z"/>
<path id="z39636d7" d="M236 504C218 490 200 483 190 485C181 485 180 491 183 498C208 564 190 718 167 776C161 789 155 801 149 812C136 831 137 857 156 885C161 893 165 899 173 895C187 885 197 862 205 826C221 753 237 547 245 527C248 519 243 509 236 504Z"/>
<path id="z39636d8" d="M245 527C267 519 293 512 314 508C338 502 340 524 341 540C342 587 345 640 346 680C346 688 345 696 346 704C346 752 346 784 345 821C343 844 337 859 316 855C301 851 286 851 272 848C261 845 253 848 257 852C287 879 315 896 332 915C339 924 346 931 355 934C359 935 364 933 369 928C387 905 400 873 398 832C385 651 379 548 395 521C401 510 401 502 395 497C382 487 367 478 348 471C335 466 319 474 293 486C263 499 243 502 236 504C228 505 237 530 245 527Z"/>
<path id="z39636d9" d="M241 615C262 624 291 634 317 641C338 646 355 635 343 619C327 598 301 592 280 592C240 591 219 606 241 615Z"/>
<path id="z39636d10" d="M242 759C250 767 260 769 271 760C303 734 327 717 346 704C353 700 353 677 346 680C285 707 259 713 234 717C205 721 228 744 242 759Z"/>
<path id="z39636d11" d="M516 243C509 240 495 237 476 233C469 231 466 231 464 235C461 237 461 243 466 252C485 292 502 346 514 413C517 433 523 450 535 463C550 479 553 469 555 454C555 447 558 446 555 434C544 394 525 292 524 275C522 264 526 247 516 243Z"/>
<path id="z39636d12" d="M745 427C753 443 763 453 773 458C779 462 787 459 797 447C807 433 821 387 845 310C850 291 861 273 877 259C884 251 886 244 879 235C870 224 853 209 827 193C815 185 804 186 795 189C770 194 741 199 730 202C703 207 703 207 690 210C668 214 643 218 620 223C594 228 594 228 581 231C556 236 536 239 516 243C505 245 514 279 524 275C542 269 560 265 584 260C609 255 609 255 621 252C641 247 664 244 688 240C714 235 714 235 727 233C757 227 778 224 792 235C800 241 802 250 800 262C779 348 763 395 751 401C745 407 741 419 745 427Z"/>
<path id="z39636d13" d="M715 333C725 331 735 329 745 328C757 326 762 320 757 314C747 303 732 299 719 299C706 298 694 300 683 304C668 308 643 316 624 321C602 326 602 326 591 329C579 331 568 335 558 338C549 340 550 345 561 353C572 361 582 358 593 356C614 352 614 352 625 350C643 346 661 341 679 339C703 335 703 335 715 333Z"/>
<path id="z39636d14" d="M620 223C619 199 621 183 622 177C623 165 619 155 613 150C601 139 586 133 572 129C565 126 559 126 554 129C549 131 549 137 553 146C563 166 577 194 581 231C583 250 583 250 584 260C585 277 588 300 591 329C592 347 592 347 593 356C594 375 595 399 597 425C597 436 629 429 629 418C627 393 625 371 625 350C624 331 624 331 624 321C622 288 621 265 621 252C620 233 620 233 620 223Z"/>
<path id="z39636d15" d="M730 202C731 187 736 159 751 116C752 110 750 103 740 96C722 84 706 78 695 75C686 72 680 73 676 77C671 81 670 87 675 95C697 133 692 170 690 209C689 230 689 230 688 240C687 251 684 294 683 304C680 327 680 327 679 339C677 352 674 398 673 408C673 419 704 412 706 401C708 378 712 355 715 333C718 310 718 310 719 299C720 287 725 243 727 233C729 212 729 212 730 202Z"/>
<path id="z39636d16" d="M555 454C575 451 687 434 745 427C754 426 760 403 751 401C735 396 718 398 706 401C684 406 684 406 673 408C658 411 643 414 629 418C608 423 608 423 597 425C582 428 568 430 555 434C549 436 548 455 555 454Z"/>
<path id="z39636d17" d="M541 509C520 510 516 519 531 528C554 542 588 544 630 538C664 532 701 526 740 521C758 518 770 515 774 512C778 508 780 503 778 498C774 491 764 484 748 480C731 475 714 477 696 483C673 490 650 495 627 500C600 504 571 506 541 509Z"/>
<path id="z39636d18" d="M551 594C541 589 529 587 511 585C504 584 500 583 498 587C495 591 496 597 501 606C515 630 528 663 538 704C540 716 546 726 554 735C569 751 574 744 575 725C575 715 574 705 572 696C566 672 561 636 560 622C558 612 560 598 551 594Z"/>
<path id="z39636d19" d="M766 676C780 646 795 628 808 618C819 609 819 597 811 589C802 580 783 570 756 556C747 551 737 551 725 556C671 574 613 586 551 594C541 596 550 624 560 622C636 610 687 605 711 599C756 588 735 637 726 670C723 683 761 689 766 676Z"/>
<path id="z39636d20" d="M742 709C753 708 785 708 787 698C787 693 780 686 766 676C755 668 739 667 726 670C674 678 619 690 572 696C562 698 565 725 575 725C591 725 676 714 718 711C734 710 734 710 742 709Z"/>
<path id="z39636d21" d="M540 788C567 823 582 842 588 843C592 843 598 841 602 835C605 828 605 817 605 803C604 792 597 783 585 775C554 755 535 748 528 750C525 750 523 754 523 761C523 767 530 775 540 788Z"/>
<path id="z39636d22" d="M716 839C739 806 752 786 773 766C780 758 783 753 780 747C771 730 759 717 742 709C735 706 718 703 718 711C721 757 694 813 682 844C678 855 709 848 716 839Z"/>
<path id="z39636d23" d="M682 844C604 855 519 861 452 868C439 869 436 875 446 886C464 905 486 910 508 905C617 878 739 873 873 883C880 883 893 883 898 876C901 869 898 860 888 852C854 824 821 819 788 827C767 831 743 834 716 839C693 842 693 842 682 844Z"/>
<defs>
	<clipPath id="z39636c1"><use xlink:href="#z39636d1"/></clipPath>
	<clipPath id="z39636c2"><use xlink:href="#z39636d2"/></clipPath>
	<clipPath id="z39636c3"><use xlink:href="#z39636d3"/></clipPath>
	<clipPath id="z39636c4"><use xlink:href="#z39636d4"/></clipPath>
	<clipPath id="z39636c5"><use xlink:href="#z39636d5"/></clipPath>
	<clipPath id="z39636c6"><use xlink:href="#z39636d6"/></clipPath>
	<clipPath id="z39636c7"><use xlink:href="#z39636d7"/></clipPath>
	<clipPath id="z39636c8"><use xlink:href="#z39636d8"/></clipPath>
	<clipPath id="z39636c9"><use xlink:href="#z39636d9"/></clipPath>
	<clipPath id="z39636c10"><use xlink:href="#z39636d10"/></clipPath>
	<clipPath id="z39636c11"><use xlink:href="#z39636d11"/></clipPath>
	<clipPath id="z39636c12"><use xlink:href="#z39636d12"/></clipPath>
	<clipPath id="z39636c13"><use xlink:href="#z39636d13"/></clipPath>
	<clipPath id="z39636c14"><use xlink:href="#z39636d14"/></clipPath>
	<clipPath id="z39636c15"><use xlink:href="#z39636d15"/></clipPath>
	<clipPath id="z39636c16"><use xlink:href="#z39636d16"/></clipPath>
	<clipPath id="z39636c17"><use xlink:href="#z39636d17"/></clipPath>
	<clipPath id="z39636c18"><use xlink:href="#z39636d18"/></clipPath>
	<clipPath id="z39636c19"><use xlink:href="#z39636d19"/></clipPath>
	<clipPath id="z39636c20"><use xlink:href="#z39636d20"/></clipPath>
	<clipPath id="z39636c21"><use xlink:href="#z39636d21"/></clipPath>
	<clipPath id="z39636c22"><use xlink:href="#z39636d22"/></clipPath>
	<clipPath id="z39636c23"><use xlink:href="#z39636d23"/></clipPath>
</defs>
<path style="--d:1s;" pathLength="3333" clip-path="url(#z39636c1)" d="M161 159L203 207L217 410"/>
<path style="--d:2s;" pathLength="3333" clip-path="url(#z39636c2)" d="M218 181L355 151L414 179L372 377"/>
<path style="--d:3s;" pathLength="3333" clip-path="url(#z39636c3)" d="M264 251L289 275L288 389"/>
<path style="--d:4s;" pathLength="3333" clip-path="url(#z39636c4)" d="M375 250L307 275"/>
<path style="--d:5s;" pathLength="3333" clip-path="url(#z39636c5)" d="M117 399L125 439L91 559"/>
<path style="--d:6s;" pathLength="3333" clip-path="url(#z39636c6)" d="M149 424L410 376L454 408L392 465"/>
<path style="--d:7s;" pathLength="3333" clip-path="url(#z39636c7)" d="M191 494L219 528L216 583L165 889"/>
<path style="--d:8s;" pathLength="3333" clip-path="url(#z39636c8)" d="M240 514L335 489L368 515L366 862L344 894L269 853"/>
<path style="--d:9s;" pathLength="3333" clip-path="url(#z39636c9)" d="M238 606L341 630"/>
<path style="--d:10s;" pathLength="3333" clip-path="url(#z39636c10)" d="M224 726L264 737L344 689"/>
<path style="--d:11s;" pathLength="3333" clip-path="url(#z39636c11)" d="M470 238L498 261L548 461"/>
<path style="--d:12s;" pathLength="3333" clip-path="url(#z39636c12)" d="M515 257L769 210L818 220L841 254L773 455"/>
<path style="--d:13s;" pathLength="3333" clip-path="url(#z39636c13)" d="M561 344L752 319"/>
<path style="--d:14s;" pathLength="3333" clip-path="url(#z39636c14)" d="M559 135L598 186L611 426"/>
<path style="--d:15s;" pathLength="3333" clip-path="url(#z39636c15)" d="M680 84L719 123L682 410"/>
<path style="--d:16s;" pathLength="3333" clip-path="url(#z39636c16)" d="M553 445L749 415"/>
<path style="--d:17s;" pathLength="3333" clip-path="url(#z39636c17)" d="M533 519L773 501"/>
<path style="--d:18s;" pathLength="3333" clip-path="url(#z39636c18)" d="M503 591L533 612L565 739"/>
<path style="--d:19s;" pathLength="3333" clip-path="url(#z39636c19)" d="M553 599L738 576L777 607L743 680"/>
<path style="--d:20s;" pathLength="3333" clip-path="url(#z39636c20)" d="M570 711L778 694"/>
<path style="--d:21s;" pathLength="3333" clip-path="url(#z39636c21)" d="M530 755L593 835"/>
<path style="--d:22s;" pathLength="3333" clip-path="url(#z39636c22)" d="M725 713L747 756L688 843"/>
<path style="--d:23s;" pathLength="3333" clip-path="url(#z39636c23)" d="M449 877L803 851L894 869"/>
</svg>