<!--
AnimCJK 2016-2025 Copyright FM-SH - https://github.com/parsimonhi/animCJK
Derived from:
    MakeMeAHanzi project - https://github.com/skishore/makemeahanzi
    Arphic PL KaitiM GB font
    Arphic PL KaitiM Big5 font
You can redistribute and/or modify this file under the terms of the Arphic Public License
as published by Arphic Technology Co., Ltd.
You should have received a copy of this license along with this file.
If not, see https://ftp.gnu.org/non-gnu/chinese-fonts-truetype/LICENSE.
-->
<svg id="z40599" class="acjk" viewBox="0 0 1024 1024" xmlns="http://www.w3.org/2000/svg">
<style>
<![CDATA[
@keyframes zk {
	to {
		stroke-dashoffset:0;
	}
}
svg.acjk path[clip-path] {
	--t:0.8s;
	animation:zk var(--t) linear forwards var(--d);
	stroke-dasharray:3337;
	stroke-dashoffset:3339;
	stroke-width:128;
	stroke-linecap:round;
	fill:none;
	stroke:#000;
}
svg.acjk path[id] {fill:#ccc;}
]]>
</style>
<path id="z40599d1" d="M296 102C273 104 270 112 287 123C308 137 339 140 376 133C409 126 444 120 479 114C495 111 504 108 507 106C511 101 513 95 511 91C507 83 494 77 478 73C463 69 430 76 378 90C350 96 322 98 296 102Z"/>
<path id="z40599d2" d="M286 199C279 195 266 192 247 188C238 186 234 185 232 189C229 193 229 198 234 209C247 236 259 273 267 319C269 332 274 342 282 353C292 365 297 368 302 359C305 350 307 335 305 315C300 273 297 244 295 228C293 218 295 203 286 199Z"/>
<path id="z40599d3" d="M295 228C295 227 295 227 297 227C325 216 371 205 435 195C445 193 453 192 459 195C463 197 463 205 462 218C451 288 445 323 446 326C448 331 452 335 458 335C464 334 468 329 473 323C477 316 484 299 493 271C500 246 511 226 527 210C535 201 534 193 528 187C518 179 502 170 477 159C468 155 417 166 322 189C308 192 296 194 286 199C277 203 286 233 295 228Z"/>
<path id="z40599d4" d="M350 289C373 316 386 330 394 331C398 331 403 329 406 323C409 316 408 305 406 293C404 284 398 276 387 271C357 257 341 252 336 254C333 254 331 258 332 265C332 269 339 276 350 289Z"/>
<path id="z40599d5" d="M596 82C573 85 569 93 587 103C606 114 643 116 694 108C718 104 742 98 767 94C781 91 788 88 791 86C795 81 797 75 795 71C791 63 778 58 762 54C742 49 725 53 707 60C671 71 633 76 596 82Z"/>
<path id="z40599d6" d="M594 170Q587 167 574 164Q565 161 562 165Q558 169 563 181Q579 218 589 280Q590 299 600 311Q613 327 617 316Q620 309 613 197C613 186 604 174 594 170Z"/>
<path id="z40599d7" d="M613 197C619 191 663 181 746 171C756 169 764 170 768 172C772 174 773 182 772 195C767 245 762 274 759 285C755 294 756 303 760 312C762 320 767 324 775 323C781 322 785 317 791 309C794 303 802 288 810 260C817 231 829 208 849 192C859 183 859 174 850 166C840 157 820 146 793 134C782 129 738 137 659 155C653 156 608 166 594 170C584 173 604 204 613 197Z"/>
<path id="z40599d8" d="M687 295C691 301 697 305 705 306C709 306 714 304 718 299C721 293 721 283 720 269C719 261 712 252 702 246C673 230 657 224 652 226C649 226 647 230 648 237C648 241 679 283 687 295Z"/>
<path id="z40599d9" d="M567 375C567 374 568 373 570 371C572 365 573 356 570 347C565 330 546 316 517 303C512 301 509 302 508 308C505 314 514 332 534 363C540 372 546 377 552 379C557 381 564 379 567 375Z"/>
<path id="z40599d10" d="M596 404C678 387 720 374 722 373C727 369 727 363 726 361C723 353 714 350 699 346C684 342 669 343 654 349C625 358 596 367 567 375C557 378 557 378 552 379C524 386 444 402 379 410C301 419 221 413 307 450C321 456 338 455 353 452C375 446 532 416 561 411C584 406 584 406 596 404Z"/>
<path id="z40599d11" d="M307 450C320 635 203 799 109 917C92 934 96 940 122 930C264 829 331 646 367 504C373 482 379 469 353 452C341 443 307 435 307 450Z"/>
<path id="z40599d12" d="M651 590C659 608 668 619 676 625C680 629 688 627 699 617C703 612 716 593 733 557C740 540 749 525 763 513C769 506 771 498 766 491C758 480 741 468 720 453C709 446 665 455 609 468C580 475 580 475 565 478C527 486 502 491 487 495C460 501 460 501 447 504C429 508 412 510 398 512C388 513 385 515 389 523C392 528 397 535 409 538C410 538 425 540 450 533C473 526 473 526 485 523C507 516 532 509 562 503C589 498 589 498 602 495C648 485 678 478 692 488C696 490 696 496 695 502C682 543 671 567 662 572C657 576 648 583 651 590Z"/>
<path id="z40599d13" d="M487 495C487 492 488 471 482 466C472 457 461 451 450 447C443 444 437 444 434 447C431 449 430 454 433 461C440 478 445 492 447 504C449 523 449 523 450 533C451 547 452 568 454 596C454 606 483 600 483 590C483 568 483 545 485 523C486 504 486 504 487 495Z"/>
<path id="z40599d14" d="M609 468C613 450 620 441 623 436C625 431 622 424 615 417C608 411 602 407 596 404C586 398 557 400 561 411C565 421 569 443 565 478C563 495 563 495 562 503C559 525 555 548 551 574C549 585 581 577 583 566C589 541 596 517 602 495C607 477 607 477 609 468Z"/>
<path id="z40599d15" d="M454 596C426 601 401 605 379 609C368 610 365 614 373 625C376 629 381 632 387 634C392 634 399 634 406 633C458 618 539 604 651 590C658 589 667 577 662 572C658 568 651 563 644 559C630 552 612 558 583 566C562 571 562 571 551 574C526 580 504 585 483 590C464 594 464 594 454 596Z"/>
<path id="z40599d16" d="M407 744C445 738 477 734 505 731C517 729 521 724 517 718C511 709 500 704 489 703C470 700 445 706 411 720C403 723 399 746 407 744Z"/>
<path id="z40599d17" d="M411 720C414 698 412 685 411 684C406 676 392 668 372 661C363 658 358 658 355 661C350 663 350 669 356 680C375 713 375 759 355 818C348 835 336 854 315 873C308 878 306 884 309 897C312 911 314 922 322 930C325 934 334 934 342 928C371 902 426 861 509 811C517 805 522 801 524 797C524 794 523 793 521 793C515 793 477 808 409 839C403 841 399 840 398 839C396 837 395 835 396 831C400 794 403 765 407 744C410 728 410 728 411 720Z"/>
<path id="z40599d18" d="M614 751C651 746 711 737 787 725C822 719 806 690 768 683C742 677 706 692 615 720C605 724 604 753 614 751Z"/>
<path id="z40599d19" d="M615 720C619 706 622 687 626 673C628 662 625 655 619 649C611 641 600 634 588 630C580 627 575 627 570 631C566 633 565 638 569 650C575 671 578 693 578 715C574 811 569 852 602 887C613 899 634 911 665 919C739 938 854 928 925 876C937 866 938 853 929 838C920 823 908 792 897 748C894 738 893 733 889 730C885 727 882 732 880 743C867 793 857 827 846 842C827 866 784 876 721 875C696 874 673 871 656 863C638 855 628 845 623 836C616 822 612 782 614 751C615 730 615 730 615 720Z"/>
<defs>
	<clipPath id="z40599c1"><use href="#z40599d1"/></clipPath>
	<clipPath id="z40599c2"><use href="#z40599d2"/></clipPath>
	<clipPath id="z40599c3"><use href="#z40599d3"/></clipPath>
	<clipPath id="z40599c4"><use href="#z40599d4"/></clipPath>
	<clipPath id="z40599c5"><use href="#z40599d5"/></clipPath>
	<clipPath id="z40599c6"><use href="#z40599d6"/></clipPath>
	<clipPath id="z40599c7"><use href="#z40599d7"/></clipPath>
	<clipPath id="z40599c8"><use href="#z40599d8"/></clipPath>
	<clipPath id="z40599c9"><use href="#z40599d9"/></clipPath>
	<clipPath id="z40599c10"><use href="#z40599d10"/></clipPath>
	<clipPath id="z40599c11"><use href="#z40599d11"/></clipPath>
	<clipPath id="z40599c12"><use href="#z40599d12"/></clipPath>
	<clipPath id="z40599c13"><use href="#z40599d13"/></clipPath>
	<clipPath id="z40599c14"><use href="#z40599d14"/></clipPath>
	<clipPath id="z40599c15"><use href="#z40599d15"/></clipPath>
	<clipPath id="z40599c16"><use href="#z40599d16"/></clipPath>
	<clipPath id="z40599c17"><use href="#z40599d17"/></clipPath>
	<clipPath id="z40599c18"><use href="#z40599d18"/></clipPath>
	<clipPath id="z40599c19"><use href="#z40599d19"/></clipPath>
</defs>
<path style="--d:1s;" pathLength="3333" clip-path="url(#z40599c1)" d="M284 110L506 97"/>
<path style="--d:2s;" pathLength="3333" clip-path="url(#z40599c2)" d="M236 192L267 219L294 354"/>
<path style="--d:3s;" pathLength="3333" clip-path="url(#z40599c3)" d="M286 211L452 176L486 188L497 207L461 330"/>
<path style="--d:4s;" pathLength="3333" clip-path="url(#z40599c4)" d="M338 259L399 323"/>
<path style="--d:5s;" pathLength="3333" clip-path="url(#z40599c5)" d="M584 91L788 73"/>
<path style="--d:6s;" pathLength="3333" clip-path="url(#z40599c6)" d="M569 168L611 313"/>
<path style="--d:7s;" pathLength="3333" clip-path="url(#z40599c7)" d="M596 174L757 152L808 169L769 316"/>
<path style="--d:8s;" pathLength="3333" clip-path="url(#z40599c8)" d="M656 233L704 301"/>
<path style="--d:9s;" pathLength="3333" clip-path="url(#z40599c9)" d="M516 311L563 374"/>
<path style="--d:10s;" pathLength="3333" clip-path="url(#z40599c10)" d="M278 427L380 428L720 363"/>
<path style="--d:11s;" pathLength="3333" clip-path="url(#z40599c11)" d="M315 452L339 495L282 687L205 821L106 928"/>
<path style="--d:12s;" pathLength="3333" clip-path="url(#z40599c12)" d="M396 519L703 471L731 504L667 615"/>
<path style="--d:13s;" pathLength="3333" clip-path="url(#z40599c13)" d="M441 451L463 478L468 597"/>
<path style="--d:14s;" pathLength="3333" clip-path="url(#z40599c14)" d="M569 407L595 440L562 576"/>
<path style="--d:15s;" pathLength="3333" clip-path="url(#z40599c15)" d="M376 616L658 580"/>
<path style="--d:16s;" pathLength="3333" clip-path="url(#z40599c16)" d="M409 736L511 720"/>
<path style="--d:17s;" pathLength="3333" clip-path="url(#z40599c17)" d="M359 665L390 718L360 890L517 798"/>
<path style="--d:18s;" pathLength="3333" clip-path="url(#z40599c18)" d="M611 740L800 708"/>
<path style="--d:19s;" pathLength="3333" clip-path="url(#z40599c19)" d="M573 636L600 668L601 842L665 893L780 899L858 876L895 840L887 736"/>
</svg>