<!--
AnimCJK 2016-2019 Copyright Francois Mizessyn - https://github.com/parsimonhi/animCJK
Derived from:
    MakeMeAHanzi project - https://github.com/skishore/makemeahanzi
    Arphic PL KaitiM GB font
    Arphic PL UKai font
You can redistribute and/or modify this file under the terms of the Arphic Public License
as published by Arphic Technology Co., Ltd.
You should have received a copy of this license along with this file.
If not, see http://ftp.gnu.org/non-gnu/chinese-fonts-truetype/LICENSE.
-->
<svg id="z40629" class="acjk" version="1.1" viewBox="0 0 1024 1024" xmlns="http://www.w3.org/2000/svg" xmlns:xlink="http://www.w3.org/1999/xlink">
<style>
<![CDATA[
@keyframes zk {
	to {
		stroke-dashoffset:0;
	}
}
svg.acjk path[clip-path] {
	--t:0.8s;
	animation:zk var(--t) linear forwards var(--d);
	stroke-dasharray:3337;
	stroke-dashoffset:3339;
	stroke-width:128;
	stroke-linecap:round;
	fill:none;
	stroke:#000;
}
svg.acjk path[id] {fill:#ccc;}
]]>
</style>
<path id="z40629d1" d="M333 257C405 236 443 226 445 225C450 220 452 214 449 210C440 198 422 195 398 199C386 201 366 209 337 218C311 226 311 226 298 230C273 237 245 241 214 247C195 250 192 257 207 266C221 274 248 281 298 267C321 260 321 260 333 257Z"/>
<path id="z40629d2" d="M327 395C326 353 328 297 333 257C336 231 336 231 337 218C340 187 342 161 351 142C360 123 360 123 364 113C366 107 364 99 357 94C349 87 341 83 335 79C310 63 291 59 278 64C270 66 267 73 272 83C287 111 298 159 298 230C298 255 298 255 298 267C298 313 297 366 296 395C296 405 327 405 327 395Z"/>
<path id="z40629d3" d="M201 362C208 350 225 328 225 328C228 323 227 317 221 312C202 295 186 288 175 290C170 290 168 295 169 302C173 336 157 377 117 424C109 433 102 440 98 446C96 448 95 449 95 451C94 453 96 453 102 453C127 448 169 406 192 375C198 366 198 366 201 362Z"/>
<path id="z40629d4" d="M192 375C202 396 221 419 233 422C237 423 242 421 246 414C248 409 247 401 244 393C240 384 225 374 201 362C196 360 190 370 192 375Z"/>
<path id="z40629d5" d="M431 336C443 319 457 306 455 296C453 290 448 284 443 281C428 272 416 268 406 271C397 273 398 277 400 284C405 306 389 345 345 403C343 405 341 406 347 407C357 407 400 373 419 351C427 341 427 341 431 336Z"/>
<path id="z40629d6" d="M419 351C448 385 467 402 476 403C479 403 482 403 484 402C492 396 493 384 486 369C480 356 461 346 431 336C425 334 415 346 419 351Z"/>
<path id="z40629d7" d="M296 395C263 456 176 519 47 597C42 600 42 604 49 606C61 610 99 601 179 553C257 504 293 469 322 446C328 441 334 435 336 427C339 415 332 404 327 395C322 386 301 386 296 395Z"/>
<path id="z40629d8" d="M322 446C386 488 448 526 455 526C465 525 467 506 459 491C443 461 400 444 336 427C328 425 316 441 322 446Z"/>
<path id="z40629d9" d="M296 578C302 570 330 542 328 531C326 524 319 518 308 513C294 506 283 507 277 509C272 510 269 514 269 521C267 553 189 652 112 722C107 726 105 728 105 730C105 731 108 732 117 730C136 724 150 718 172 702C188 689 199 681 211 669C224 656 224 656 230 649C251 626 267 610 279 597C290 584 290 584 296 578Z"/>
<path id="z40629d10" d="M301 730C261 787 202 850 90 893C80 896 74 896 74 904C74 906 76 907 81 908C149 910 222 878 295 807C301 800 306 794 312 788C312 788 331 766 340 755C355 736 355 736 363 726C407 668 427 634 441 628C450 623 456 617 457 612C457 604 447 595 429 582C410 569 398 561 390 561C384 560 380 561 377 563C351 572 322 581 296 578C288 578 272 592 279 597C284 601 294 607 309 609C325 612 354 604 359 608C360 608 359 611 359 616C355 633 347 663 321 702C308 721 308 721 301 730Z"/>
<path id="z40629d11" d="M156 631C165 636 173 641 182 647C211 668 287 721 301 730C327 747 327 747 340 755C542 884 674 944 720 936C790 922 847 898 896 882C914 875 924 868 927 861C929 854 925 852 915 852C851 850 801 851 764 852C658 853 520 816 363 726C335 710 335 710 321 702C294 686 249 658 199 625C191 620 178 614 168 613C152 610 139 620 156 631Z"/>
<path id="z40629d12" d="M721 254C820 230 869 214 871 214C877 209 878 204 875 199C870 192 859 185 841 182C825 178 788 190 728 209C678 224 629 230 583 238C560 241 557 250 574 259C601 273 635 274 674 265C705 258 705 258 721 254Z"/>
<path id="z40629d13" d="M646 432C702 345 722 319 738 306C747 297 750 292 746 284C740 275 733 265 721 254C710 243 674 249 674 265C676 285 664 325 608 440C603 452 638 442 646 432Z"/>
<path id="z40629d14" d="M540 455C533 451 520 447 503 443C496 441 492 441 489 444C485 447 485 453 490 464C510 518 524 588 530 675C531 701 537 723 550 741C559 755 566 757 570 748C571 743 574 737 575 730C576 711 576 711 576 702C576 690 575 676 573 662C560 572 552 513 550 485C550 474 549 460 540 455Z"/>
<path id="z40629d15" d="M799 711C806 730 815 751 822 760C826 765 831 768 836 768C842 767 847 761 854 751C871 724 888 655 904 542C908 510 913 486 923 472C928 464 929 460 929 455C927 447 919 435 900 420C866 393 855 395 835 400C818 403 800 406 782 409C742 414 696 421 646 432C621 437 621 437 608 440C594 442 565 449 540 455C530 457 541 490 550 485C552 481 569 475 601 469C620 465 620 465 630 463C662 456 696 449 731 444C752 441 752 441 763 439C812 431 840 433 847 439C853 444 856 453 857 467C857 501 851 547 842 608C834 655 827 688 822 693C817 701 795 702 799 711Z"/>
<path id="z40629d16" d="M659 688C658 667 658 647 658 628C657 610 657 610 657 601C656 582 656 564 656 547C656 528 656 528 656 519C656 495 658 488 656 482C651 471 642 467 630 463C621 459 597 460 601 469C609 483 617 558 627 694C627 705 659 699 659 688Z"/>
<path id="z40629d17" d="M775 673C784 515 795 480 792 466C789 454 772 446 763 439C754 433 727 434 731 444C741 462 743 485 743 516C743 529 743 529 743 535C743 549 741 567 741 589C741 608 741 608 741 618C741 634 739 655 739 677C739 689 775 685 775 673Z"/>
<path id="z40629d18" d="M656 547C686 542 724 537 743 535C749 534 748 520 743 516C737 511 729 507 719 507C705 505 684 510 656 519C647 522 647 549 656 547Z"/>
<path id="z40629d19" d="M658 628C688 622 715 618 741 618C751 618 750 593 741 589C738 588 735 586 731 586C702 583 677 589 657 601C649 606 649 630 658 628Z"/>
<path id="z40629d20" d="M575 730C587 732 706 716 799 711C809 711 829 700 822 693C811 681 793 670 775 673C751 676 751 676 739 677C725 678 675 685 659 688C638 692 638 692 627 694C609 697 592 698 576 702C567 704 566 730 575 730Z"/>
<defs>
	<clipPath id="z40629c1"><use xlink:href="#z40629d1"/></clipPath>
	<clipPath id="z40629c2"><use xlink:href="#z40629d2"/></clipPath>
	<clipPath id="z40629c3"><use xlink:href="#z40629d3"/></clipPath>
	<clipPath id="z40629c4"><use xlink:href="#z40629d4"/></clipPath>
	<clipPath id="z40629c5"><use xlink:href="#z40629d5"/></clipPath>
	<clipPath id="z40629c6"><use xlink:href="#z40629d6"/></clipPath>
	<clipPath id="z40629c7"><use xlink:href="#z40629d7"/></clipPath>
	<clipPath id="z40629c8"><use xlink:href="#z40629d8"/></clipPath>
	<clipPath id="z40629c9"><use xlink:href="#z40629d9"/></clipPath>
	<clipPath id="z40629c10"><use xlink:href="#z40629d10"/></clipPath>
	<clipPath id="z40629c11"><use xlink:href="#z40629d11"/></clipPath>
	<clipPath id="z40629c12"><use xlink:href="#z40629d12"/></clipPath>
	<clipPath id="z40629c13"><use xlink:href="#z40629d13"/></clipPath>
	<clipPath id="z40629c14"><use xlink:href="#z40629d14"/></clipPath>
	<clipPath id="z40629c15"><use xlink:href="#z40629d15"/></clipPath>
	<clipPath id="z40629c16"><use xlink:href="#z40629d16"/></clipPath>
	<clipPath id="z40629c17"><use xlink:href="#z40629d17"/></clipPath>
	<clipPath id="z40629c18"><use xlink:href="#z40629d18"/></clipPath>
	<clipPath id="z40629c19"><use xlink:href="#z40629d19"/></clipPath>
	<clipPath id="z40629c20"><use xlink:href="#z40629d20"/></clipPath>
</defs>
<path style="--d:1s;" pathLength="3333" clip-path="url(#z40629c1)" d="M206 254L443 216"/>
<path style="--d:2s;" pathLength="3333" clip-path="url(#z40629c2)" d="M 277,71 326,118 315,368"/>
<path style="--d:3s;" pathLength="3333" clip-path="url(#z40629c3)" d="M176 293L197 329L104 449"/>
<path style="--d:4s;" pathLength="3333" clip-path="url(#z40629c4)" d="M203 368L234 416"/>
<path style="--d:5s;" pathLength="3333" clip-path="url(#z40629c5)" d="M408 277L424 312L351 402"/>
<path style="--d:6s;" pathLength="3333" clip-path="url(#z40629c6)" d="M432 341L486 393"/>
<path style="--d:7s;" pathLength="3333" clip-path="url(#z40629c7)" d="M 302,405 309,422 210,508 53,601"/>
<path style="--d:8s;" pathLength="3333" clip-path="url(#z40629c8)" d="M 336,440 459,512"/>
<path style="--d:9s;" pathLength="3333" clip-path="url(#z40629c9)" d="M 280,517 300,537 181,677 113,727"/>
<path style="--d:10s;" pathLength="3333" clip-path="url(#z40629c10)" d="M 287,594 364,584 406,620 272,803 192,862 82,900"/>
<path style="--d:11s;" pathLength="3333" clip-path="url(#z40629c11)" d="M 155,620 374,752 646,877 722,893 923,861"/>
<path style="--d:12s;" pathLength="3333" clip-path="url(#z40629c12)" d="M571 247L872 203"/>
<path style="--d:13s;" pathLength="3333" clip-path="url(#z40629c13)" d="M679 273L704 306L613 433"/>
<path style="--d:14s;" pathLength="3333" clip-path="url(#z40629c14)" d="M494 450L525 491L563 747"/>
<path style="--d:15s;" pathLength="3333" clip-path="url(#z40629c15)" d="M548 461L837 416L888 446L825 759"/>
<path style="--d:16s;" pathLength="3333" clip-path="url(#z40629c16)" d="M608 471L633 503L638 689"/>
<path style="--d:17s;" pathLength="3333" clip-path="url(#z40629c17)" d="M741 450L766 481L750 671"/>
<path style="--d:18s;" pathLength="3333" clip-path="url(#z40629c18)" d="M662 538L739 522"/>
<path style="--d:19s;" pathLength="3333" clip-path="url(#z40629c19)" d="M665 619L736 608"/>
<path style="--d:20s;" pathLength="3333" clip-path="url(#z40629c20)" d="M579 723L812 692"/>
</svg>