<!--
AnimCJK 2016-2019 Copyright Francois Mizessyn - https://github.com/parsimonhi/animCJK
Derived from:
    MakeMeAHanzi project - https://github.com/skishore/makemeahanzi
    Arphic PL KaitiM GB font
    Arphic PL UKai font
You can redistribute and/or modify this file under the terms of the Arphic Public License
as published by Arphic Technology Co., Ltd.
You should have received a copy of this license along with this file.
If not, see http://ftp.gnu.org/non-gnu/chinese-fonts-truetype/LICENSE.
-->
<svg id="z40803" class="acjk" version="1.1" viewBox="0 0 1024 1024" xmlns="http://www.w3.org/2000/svg" xmlns:xlink="http://www.w3.org/1999/xlink">
<style>
<![CDATA[
@keyframes zk {
	to {
		stroke-dashoffset:0;
	}
}
svg.acjk path[clip-path] {
	--t:0.8s;
	animation:zk var(--t) linear forwards var(--d);
	stroke-dasharray:3337;
	stroke-dashoffset:3339;
	stroke-width:128;
	stroke-linecap:round;
	fill:none;
	stroke:#000;
}
svg.acjk path[id] {fill:#ccc;}
]]>
</style>
<path id="z40803d1" d="M376 322C378 289 382 257 385 226C386 209 386 209 387 200C387 199 391 173 402 124C403 117 399 108 387 101C367 89 348 84 335 81C326 78 319 79 314 85C309 89 309 96 315 105C323 117 329 128 330 138C335 198 337 263 338 333C338 346 376 335 376 322Z"/>
<path id="z40803d2" d="M385 226C403 228 443 223 503 208C511 205 515 204 517 203C521 198 522 193 519 189C514 182 504 177 489 176C481 175 455 182 412 195C403 197 395 198 387 200C378 201 376 226 385 226Z"/>
<path id="z40803d3" d="M269 350C262 290 260 254 262 244C263 231 259 221 250 215C236 205 221 199 205 195C196 192 189 193 185 197C180 201 179 207 185 216C199 238 215 285 232 359C234 371 271 362 269 350Z"/>
<path id="z40803d4" d="M235 400C302 379 394 353 514 332C524 330 529 326 530 322C530 314 525 307 513 302C496 295 480 293 466 297C433 305 403 314 376 322C351 329 351 329 338 333C311 340 288 345 269 350C244 356 244 356 232 359C204 365 108 383 79 387C71 388 66 390 65 396C63 402 66 410 77 417C102 433 133 434 167 422C179 417 192 413 206 409C225 403 225 403 235 400Z"/>
<path id="z40803d5" d="M242 456C247 447 256 434 260 430C264 425 263 419 256 413C249 407 242 404 235 400C226 395 204 399 206 409C212 445 198 481 166 517C158 525 151 533 148 540C144 546 146 548 153 547C176 542 204 518 233 471C239 461 239 461 242 456Z"/>
<path id="z40803d6" d="M233 471C255 499 270 512 280 513C286 513 290 510 292 503C293 498 292 491 288 484C282 473 266 464 242 456C236 454 230 466 233 471Z"/>
<path id="z40803d7" d="M411 430C418 418 424 407 432 398C436 392 436 384 429 380C407 366 392 362 384 364C379 364 376 368 378 375C385 407 374 443 344 482C337 490 331 497 328 504C324 510 326 512 333 511C352 506 377 486 401 447C408 436 408 436 411 430Z"/>
<path id="z40803d8" d="M401 447C425 473 441 488 452 490C457 491 462 486 464 479C465 474 463 468 459 460C455 452 439 442 411 430C405 428 397 442 401 447Z"/>
<path id="z40803d9" d="M173 589C164 591 165 597 177 605C184 610 197 610 213 606C287 586 353 569 410 557C422 554 426 549 421 542C414 533 404 529 390 528C377 527 359 530 337 538C278 556 223 573 173 589Z"/>
<path id="z40803d10" d="M233 684Q248 662 259 644Q265 637 256 628Q226 610 213 612Q206 613 208 622Q217 670 173 727Q161 740 156 748Q152 758 161 755Q188 749 223 700C230 689 230 689 233 684Z"/>
<path id="z40803d11" d="M223 700Q265 742 276 742Q285 743 288 731Q289 724 283 712Q273 696 233 684C227 682 219 696 223 700Z"/>
<path id="z40803d12" d="M371 659Q374 655 377 650Q387 631 399 615Q403 608 395 599Q370 581 355 584Q348 585 350 595Q360 637 319 692Q309 705 304 713Q300 722 308 719Q329 715 363 671C368 663 368 663 371 659Z"/>
<path id="z40803d13" d="M363 671Q399 714 416 718Q425 718 428 707Q429 700 423 688Q413 670 371 659C366 658 360 667 363 671Z"/>
<path id="z40803d14" d="M460 746C340 758 235 780 146 806C132 810 127 802 130 787C141 705 142 658 134 649C124 637 111 628 96 620C89 616 82 614 75 617C68 619 67 627 73 640C88 676 93 711 89 748C84 782 76 808 62 824C50 835 46 844 52 854C58 864 67 872 79 879C87 883 96 884 102 879C125 854 203 825 341 797C397 785 432 783 449 785C463 785 473 743 460 746Z"/>
<path id="z40803d15" d="M449 785Q449 803 462 833Q469 846 479 837Q500 818 506 746Q522 631 533 613Q540 600 531 588Q515 575 488 558Q478 552 467 557Q460 560 463 571Q485 611 460 746C458 759 449 771 449 785Z"/>
<path id="z40803d16" d="M609 381C670 280 687 243 704 211C715 189 724 172 738 151C742 143 742 134 739 126C734 117 721 105 702 94C682 83 667 79 655 82C642 84 640 92 648 107C665 137 650 203 602 307C579 355 552 407 519 461C513 469 509 475 509 479C508 485 512 488 520 486C536 480 565 452 598 399C605 387 605 387 609 381Z"/>
<path id="z40803d17" d="M598 399C620 404 653 399 666 397C757 374 807 370 814 370C820 370 825 371 827 374C843 399 848 486 837 634C831 710 814 768 796 810C786 831 775 845 761 850C753 852 729 845 689 830C682 827 679 828 679 832C678 834 682 838 689 846C715 874 733 899 744 921C750 933 757 941 765 941C799 937 829 903 856 841C882 779 897 648 902 449C902 426 907 406 921 390C928 380 932 374 932 369C931 364 924 358 911 349C894 337 874 328 851 322C836 318 811 324 772 338C765 340 676 364 609 381C602 382 591 398 598 399Z"/>
<path id="z40803d18" d="M532 513C529 515 530 521 534 531C546 561 557 600 565 649C565 663 570 676 579 687C587 697 593 699 597 692C599 685 601 677 601 667C599 649 599 649 598 640C591 593 587 562 587 546C587 537 585 526 577 521C572 518 563 514 552 511C542 509 533 511 532 513Z"/>
<path id="z40803d19" d="M702 479C697 479 691 480 686 484C663 496 627 509 577 521C568 523 578 548 587 546C591 545 597 544 603 543C625 537 647 532 667 528C679 525 687 527 692 532C695 535 695 545 691 564C686 580 682 599 678 619C675 634 721 637 724 622C734 583 747 558 760 545C773 530 773 518 760 510C748 502 734 494 719 484C713 480 708 479 702 479Z"/>
<path id="z40803d20" d="M601 667C607 667 613 667 621 666C645 660 682 655 734 651C740 650 744 647 744 642C744 637 737 630 724 622C711 614 693 614 678 619C649 627 622 634 598 640C589 641 592 667 601 667Z"/>
<defs>
	<clipPath id="z40803c1"><use xlink:href="#z40803d1"/></clipPath>
	<clipPath id="z40803c2"><use xlink:href="#z40803d2"/></clipPath>
	<clipPath id="z40803c3"><use xlink:href="#z40803d3"/></clipPath>
	<clipPath id="z40803c4"><use xlink:href="#z40803d4"/></clipPath>
	<clipPath id="z40803c5"><use xlink:href="#z40803d5"/></clipPath>
	<clipPath id="z40803c6"><use xlink:href="#z40803d6"/></clipPath>
	<clipPath id="z40803c7"><use xlink:href="#z40803d7"/></clipPath>
	<clipPath id="z40803c8"><use xlink:href="#z40803d8"/></clipPath>
	<clipPath id="z40803c9"><use xlink:href="#z40803d9"/></clipPath>
	<clipPath id="z40803c10"><use xlink:href="#z40803d10"/></clipPath>
	<clipPath id="z40803c11"><use xlink:href="#z40803d11"/></clipPath>
	<clipPath id="z40803c12"><use xlink:href="#z40803d12"/></clipPath>
	<clipPath id="z40803c13"><use xlink:href="#z40803d13"/></clipPath>
	<clipPath id="z40803c14"><use xlink:href="#z40803d14"/></clipPath>
	<clipPath id="z40803c15"><use xlink:href="#z40803d15"/></clipPath>
	<clipPath id="z40803c16"><use xlink:href="#z40803d16"/></clipPath>
	<clipPath id="z40803c17"><use xlink:href="#z40803d17"/></clipPath>
	<clipPath id="z40803c18"><use xlink:href="#z40803d18"/></clipPath>
	<clipPath id="z40803c19"><use xlink:href="#z40803d19"/></clipPath>
	<clipPath id="z40803c20"><use xlink:href="#z40803d20"/></clipPath>
</defs>
<path style="--d:1s;" pathLength="3333" clip-path="url(#z40803c1)" d="M317 89L365 129L348 327"/>
<path style="--d:2s;" pathLength="3333" clip-path="url(#z40803c2)" d="M392 218L512 192"/>
<path style="--d:3s;" pathLength="3333" clip-path="url(#z40803c3)" d="M189 205L230 238L252 354"/>
<path style="--d:4s;" pathLength="3333" clip-path="url(#z40803c4)" d="M68 397L128 405L524 319"/>
<path style="--d:5s;" pathLength="3333" clip-path="url(#z40803c5)" d="M211 416L232 443L156 542"/>
<path style="--d:6s;" pathLength="3333" clip-path="url(#z40803c6)" d="M245 462L282 505"/>
<path style="--d:7s;" pathLength="3333" clip-path="url(#z40803c7)" d="M386 369L406 405L335 506"/>
<path style="--d:8s;" pathLength="3333" clip-path="url(#z40803c8)" d="M414 437L457 481"/>
<path style="--d:9s;" pathLength="3333" clip-path="url(#z40803c9)" d="M173 594L414 546"/>
<path style="--d:10s;" pathLength="3333" clip-path="url(#z40803c10)" d="M216 619L232 655L163 748"/>
<path style="--d:11s;" pathLength="3333" clip-path="url(#z40803c11)" d="M235 690L283 733"/>
<path style="--d:12s;" pathLength="3333" clip-path="url(#z40803c12)" d="M358 587L375 618L311 712"/>
<path style="--d:13s;" pathLength="3333" clip-path="url(#z40803c13)" d="M371 672L422 708"/>
<path style="--d:14s;" pathLength="3333" clip-path="url(#z40803c14)" d="M78 622L112 672L96 825L114 844L453 753"/>
<path style="--d:15s;" pathLength="3333" clip-path="url(#z40803c15)" d="M470 563L503 601L471 834"/>
<path style="--d:16s;" pathLength="3333" clip-path="url(#z40803c16)" d="M 651,90 698,144 637,294 521,479"/>
<path style="--d:17s;" pathLength="3333" clip-path="url(#z40803c17)" d="M 615,388 836,340 888,369 872,410 846,788 773,902 687,832"/>
<path style="--d:18s;" pathLength="3333" clip-path="url(#z40803c18)" d="M 539,516 567,538 592,688"/>
<path style="--d:19s;" pathLength="3333" clip-path="url(#z40803c19)" d="M 591,524 701,502 738,527 704,611"/>
<path style="--d:20s;" pathLength="3333" clip-path="url(#z40803c20)" d="M 606,647 690,635 737,643"/>
</svg>