<!--
AnimCJK 2016-2025 Copyright FM-SH - https://github.com/parsimonhi/animCJK
Derived from:
    MakeMeAHanzi project - https://github.com/skishore/makemeahanzi
    Arphic PL KaitiM GB font
    Arphic PL UKai font
You can redistribute and/or modify this file under the terms of the Arphic Public License
as published by Arphic Technology Co., Ltd.
You should have received a copy of this license along with this file.
If not, see http://ftp.gnu.org/non-gnu/chinese-fonts-truetype/LICENSE.
-->
<svg id="z20170" class="acjk" version="1.1" viewBox="0 0 1024 1024" xmlns="http://www.w3.org/2000/svg" xmlns:xlink="http://www.w3.org/1999/xlink">
<style>
<![CDATA[
@keyframes zk {
	to {
		stroke-dashoffset:0;
	}
}
svg.acjk path[clip-path] {
	--t:0.8s;
	animation:zk var(--t) linear forwards var(--d);
	stroke-dasharray:3337;
	stroke-dashoffset:3339;
	stroke-width:128;
	stroke-linecap:round;
	fill:none;
	stroke:#000;
}
svg.acjk path[id] {fill:#ccc;}
]]>
</style>
<path id="z20170d1" d="M507 160C514 147 520 133 535 122C540 117 543 111 542 103C541 95 535 87 525 78C500 56 474 45 447 49C440 49 439 56 440 67C445 144 403 257 277 399C192 494 112 559 53 610C46 615 47 619 56 619C108 614 187 562 288 462C352 398 422 305 493 184C502 168 502 168 507 160Z"/>
<path id="z20170d2" d="M493 184C565 286 646 392 738 503C752 520 773 529 800 529C890 529 949 528 978 524C986 522 992 519 993 515C994 510 987 503 975 499C853 451 770 415 732 382C662 321 587 246 507 160C500 153 487 177 493 184Z"/>
<path id="z20170d3" d="M441 427C469 465 496 491 520 504C530 506 539 503 547 495C551 486 553 476 553 464C545 429 496 404 459 388C450 384 436 381 430 384C425 384 423 389 425 398C425 406 431 416 441 427Z"/>
<path id="z20170d4" d="M294 622C271 623 262 623 261 629C258 641 264 650 282 662C303 676 317 684 330 684C344 683 360 675 382 668C516 619 590 599 605 621C611 630 607 644 597 660C589 672 578 697 560 735C531 794 508 826 497 837C473 858 468 886 475 920C478 934 481 944 488 948C494 952 502 949 512 942C535 923 575 848 632 716C649 675 671 649 694 634C701 628 705 621 706 614C707 605 695 592 671 576C646 559 628 550 617 550C611 549 605 553 599 557C525 591 423 614 294 622Z"/>
<defs>
	<clipPath id="z20170c1"><use xlink:href="#z20170d1"/></clipPath>
	<clipPath id="z20170c2"><use xlink:href="#z20170d2"/></clipPath>
	<clipPath id="z20170c3"><use xlink:href="#z20170d3"/></clipPath>
	<clipPath id="z20170c4"><use xlink:href="#z20170d4"/></clipPath>
</defs>
<path style="--d:1s;" pathLength="3333" clip-path="url(#z20170c1)" d="M449 57L489 115L392 293L241 473L56 614"/>
<path style="--d:2s;" pathLength="3333" clip-path="url(#z20170c2)" d="M505 169L778 471L986 510"/>
<path style="--d:3s;" pathLength="3333" clip-path="url(#z20170c3)" d="M431 389L543 495"/>
<path style="--d:4s;" pathLength="3333" clip-path="url(#z20170c4)" d="M265 631L334 651L609 584L655 616L489 943"/>
</svg>