<!--
AnimCJK 2016-2025 Copyright FM-SH - https://github.com/parsimonhi/animCJK
Derived from:
    MakeMeAHanzi project - https://github.com/skishore/makemeahanzi
    Arphic PL KaitiM GB font
    Arphic PL UKai font
You can redistribute and/or modify this file under the terms of the Arphic Public License
as published by Arphic Technology Co., Ltd.
You should have received a copy of this license along with this file.
If not, see http://ftp.gnu.org/non-gnu/chinese-fonts-truetype/LICENSE.
-->
<svg id="z20196" class="acjk" version="1.1" viewBox="0 0 1024 1024" xmlns="http://www.w3.org/2000/svg" xmlns:xlink="http://www.w3.org/1999/xlink">
<style>
<![CDATA[
@keyframes zk {
	to {
		stroke-dashoffset:0;
	}
}
svg.acjk path[clip-path] {
	--t:0.8s;
	animation:zk var(--t) linear forwards var(--d);
	stroke-dasharray:3337;
	stroke-dashoffset:3339;
	stroke-width:128;
	stroke-linecap:round;
	fill:none;
	stroke:#000;
}
svg.acjk path[id] {fill:#ccc;}
]]>
</style>
<path id="z20196d1" d="M507 172C516 156 525 140 540 127C545 122 548 117 547 110C546 102 541 93 532 85C506 60 481 52 459 57C452 58 450 62 452 73C464 145 416 236 287 387C236 445 172 505 70 583C63 587 63 593 72 592C135 577 207 534 315 428C382 361 438 279 493 194C502 179 502 179 507 172Z"/>
<path id="z20196d2" d="M493 194C565 292 649 391 744 494C759 510 778 518 804 517C888 512 944 509 971 504C979 502 983 499 984 495C984 490 978 484 967 481C855 444 776 412 735 380C663 324 588 254 507 172C501 166 488 187 493 194Z"/>
<path id="z20196d3" d="M372 416C346 421 342 431 361 443C389 461 405 465 447 453C493 445 519 439 567 429C589 425 601 415 605 411C611 405 613 399 610 393C604 385 590 382 570 377C550 373 533 376 480 393C437 404 414 412 372 416Z"/>
<path id="z20196d4" d="M590 717C701 808 672 639 691 603C697 589 709 578 705 566C701 553 674 538 625 513C609 505 594 507 577 512C502 530 403 554 365 562C341 566 309 567 277 566C258 565 247 574 260 586C290 614 311 621 337 619C355 616 384 609 408 602C444 590 444 590 462 584C482 577 541 567 567 560C591 553 609 572 610 595C611 656 607 675 571 667C524 655 537 674 590 717Z"/>
<path id="z20196d5" d="M408 602C448 646 426 704 436 850C444 976 491 977 492 850C493 634 517 621 462 584C446 574 397 587 408 602Z"/>
<defs>
	<clipPath id="z20196c1"><use xlink:href="#z20196d1"/></clipPath>
	<clipPath id="z20196c2"><use xlink:href="#z20196d2"/></clipPath>
	<clipPath id="z20196c3"><use xlink:href="#z20196d3"/></clipPath>
	<clipPath id="z20196c4"><use xlink:href="#z20196d4"/></clipPath>
	<clipPath id="z20196c5"><use xlink:href="#z20196d5"/></clipPath>
</defs>
<path style="--d:1s;" pathLength="3333" clip-path="url(#z20196c1)" d="M458 62L499 116L392 297L229 478L73 586"/>
<path style="--d:2s;" pathLength="3333" clip-path="url(#z20196c2)" d="M505 183L770 456L976 492"/>
<path style="--d:3s;" pathLength="3333" clip-path="url(#z20196c3)" d="M357 430L605 398"/>
<path style="--d:4s;" pathLength="3333" clip-path="url(#z20196c4)" d="M260 575L344 591L607 537L657 578L636 691L614 705L549 669"/>
<path style="--d:5s;" pathLength="3333" clip-path="url(#z20196c5)" d="M414 595L454 616L464 648L464 939"/>
</svg>