<!--
AnimCJK 2016-2025 Copyright FM-SH - https://github.com/parsimonhi/animCJK
Derived from:
    MakeMeAHanzi project - https://github.com/skishore/makemeahanzi
    Arphic PL KaitiM GB font
    Arphic PL KaitiM Big5 font
You can redistribute and/or modify this file under the terms of the Arphic Public License
as published by Arphic Technology Co., Ltd.
You should have received a copy of this license along with this file.
If not, see https://ftp.gnu.org/non-gnu/chinese-fonts-truetype/LICENSE.
-->
<svg id="z22235" class="acjk" viewBox="0 0 1024 1024" xmlns="http://www.w3.org/2000/svg">
<style>
<![CDATA[
@keyframes zk {
	to {
		stroke-dashoffset:0;
	}
}
svg.acjk path[clip-path] {
	--t:0.8s;
	animation:zk var(--t) linear forwards var(--d);
	stroke-dasharray:3337;
	stroke-dashoffset:3339;
	stroke-width:128;
	stroke-linecap:round;
	fill:none;
	stroke:#000;
}
svg.acjk path[id] {fill:#ccc;}
]]>
</style>
<path id="z22235d1" d="M181 300C167 292 136 275 125 285C117 291 121 294 127 304C169 374 188 490 192 650C192 691 212 743 239 753C250 757 256 742 260 719C262 705 258 691 256 678C249 638 246 613 233 518C224 454 221 398 218 348C218 328 199 309 181 300Z"/>
<path id="z22235d2" d="M723 704C727 728 730 768 756 768C764 767 771 760 780 748C807 711 839 609 870 439C877 395 886 359 903 336C910 325 914 316 914 311C913 299 899 281 874 257C839 224 813 216 790 221C768 225 719 228 680 232C552 244 451 257 302 282C246 291 207 297 181 300C161 304 199 356 218 348C270 330 319 319 370 311C397 306 397 306 410 304C451 296 504 291 523 289C567 284 567 284 589 282C653 275 746 268 773 269C788 269 800 274 810 284C819 293 825 307 823 329C807 449 793 536 757 648C751 666 745 670 734 670C722 670 721 692 723 704Z"/>
<path id="z22235d3" d="M370 311C386 345 383 400 349 478C338 501 295 572 289 584C286 589 289 592 295 592C313 591 341 570 372 521C417 447 426 390 444 359C454 340 437 322 410 304C399 296 365 298 370 311Z"/>
<path id="z22235d4" d="M523 289C549 322 551 344 546 461C544 497 555 519 572 534C584 543 610 549 665 549C695 548 719 544 728 540C745 530 743 521 738 514C727 502 692 507 640 503C609 500 592 494 589 459C585 417 589 371 605 314C607 299 602 285 589 282C568 274 510 271 523 289Z"/>
<path id="z22235d5" d="M260 719C279 720 496 702 687 700C699 700 711 699 723 704C734 708 741 679 734 670C712 644 677 641 628 648C503 664 361 674 256 678C242 678 246 719 260 719Z"/>
<defs>
	<clipPath id="z22235c1"><use href="#z22235d1"/></clipPath>
	<clipPath id="z22235c2"><use href="#z22235d2"/></clipPath>
	<clipPath id="z22235c3"><use href="#z22235d3"/></clipPath>
	<clipPath id="z22235c4"><use href="#z22235d4"/></clipPath>
	<clipPath id="z22235c5"><use href="#z22235d5"/></clipPath>
</defs>
<path style="--d:1s;" pathLength="3333" clip-path="url(#z22235c1)" d="M128 291L184 346L240 749"/>
<path style="--d:2s;" pathLength="3333" clip-path="url(#z22235c2)" d="M182 306L226 320L746 247L830 261L868 321L749 762"/>
<path style="--d:3s;" pathLength="3333" clip-path="url(#z22235c3)" d="M377 309L408 374L364 494L296 586"/>
<path style="--d:4s;" pathLength="3333" clip-path="url(#z22235c4)" d="M530 282L573 312L582 508L736 525"/>
<path style="--d:5s;" pathLength="3333" clip-path="url(#z22235c5)" d="M251 692L677 672L731 695"/>
</svg>