<!--
AnimCJK 2016-2025 Copyright FM-SH - https://github.com/parsimonhi/animCJK
Derived from:
    MakeMeAHanzi project - https://github.com/skishore/makemeahanzi
    Arphic PL KaitiM GB font
    Arphic PL KaitiM Big5 font
You can redistribute and/or modify this file under the terms of the Arphic Public License
as published by Arphic Technology Co., Ltd.
You should have received a copy of this license along with this file.
If not, see https://ftp.gnu.org/non-gnu/chinese-fonts-truetype/LICENSE.
-->
<svg id="z23460" class="acjk" viewBox="0 0 1024 1024" xmlns="http://www.w3.org/2000/svg">
<style>
<![CDATA[
@keyframes zk {
	to {
		stroke-dashoffset:0;
	}
}
svg.acjk path[clip-path] {
	--t:0.8s;
	animation:zk var(--t) linear forwards var(--d);
	stroke-dasharray:3337;
	stroke-dashoffset:3339;
	stroke-width:128;
	stroke-linecap:round;
	fill:none;
	stroke:#000;
}
svg.acjk path[id] {fill:#ccc;}
]]>
</style>
<path id="z23460d1" d="M487 109C505 123 523 140 543 159C553 168 564 171 576 171C584 170 590 165 593 156C596 145 594 128 586 107C578 86 542 70 480 57C468 54 460 54 456 57C452 59 450 65 453 75C455 83 467 94 487 109Z"/>
<path id="z23460d2" d="M285 261C278 242 269 229 262 224C249 212 240 215 241 234C241 253 232 283 202 318C173 351 164 380 173 413C182 447 193 455 214 429C227 412 238 390 249 363C260 333 269 309 278 292C283 283 289 271 285 261Z"/>
<path id="z23460d3" d="M278 292C294 300 314 303 338 297C422 275 553 251 738 235C781 232 777 247 775 259C767 287 751 306 743 341C741 348 745 349 765 339C802 318 833 299 863 291C887 284 898 277 898 272C897 264 865 237 824 208C795 187 778 196 729 203C637 215 318 257 285 261C275 263 268 288 278 292Z"/>
<path id="z23460d4" d="M493 413C618 391 682 376 686 374C692 369 693 363 690 359C685 351 674 344 658 340C638 334 599 348 535 363C449 382 393 384 369 387C347 389 342 396 359 407C377 420 406 428 441 422C476 416 476 416 493 413Z"/>
<path id="z23460d5" d="M511 583C556 571 603 561 648 547C654 544 643 529 636 530C565 540 491 554 415 575C403 578 394 577 405 567C464 504 500 468 514 460C522 454 525 448 522 439C519 432 509 424 493 413C478 404 438 405 441 422C445 448 428 481 392 523C374 543 350 561 319 581C309 586 306 594 308 601C310 611 320 623 334 638C340 645 347 646 356 640C380 621 418 606 472 593C498 586 498 586 511 583Z"/>
<path id="z23460d6" d="M648 547C670 579 688 594 696 596C702 597 708 594 713 587C718 578 718 564 717 546C714 526 685 500 628 470C619 465 612 463 608 465C604 466 602 471 602 480C601 486 615 501 636 530C644 541 644 541 648 547Z"/>
<path id="z23460d7" d="M537 730C569 725 622 716 697 711C703 710 711 709 716 701C718 695 708 687 696 679C674 665 640 666 587 680C571 684 555 687 540 690C504 697 504 697 486 700C456 705 401 708 321 717C302 719 299 725 314 737C331 752 356 758 386 753C416 747 449 742 486 737C520 732 520 732 537 730Z"/>
<path id="z23460d8" d="M531 847C533 804 534 765 537 730C539 703 539 703 540 690C543 639 543 619 542 612C539 597 521 589 511 583C500 575 467 581 472 593C478 605 486 640 486 700C486 725 486 725 486 737C486 757 485 823 484 851C484 867 531 863 531 847Z"/>
<path id="z23460d9" d="M612 889C698 882 776 885 846 895C860 897 870 895 875 889C880 880 878 871 871 864C852 845 827 828 799 816C792 813 743 822 649 835C628 837 589 842 531 847C500 850 500 850 484 851C385 858 276 873 190 872C180 871 176 875 175 883C174 891 179 899 193 910C202 918 218 926 240 935C245 937 255 934 269 931C378 906 507 897 612 889Z"/>
<defs>
	<clipPath id="z23460c1"><use href="#z23460d1"/></clipPath>
	<clipPath id="z23460c2"><use href="#z23460d2"/></clipPath>
	<clipPath id="z23460c3"><use href="#z23460d3"/></clipPath>
	<clipPath id="z23460c4"><use href="#z23460d4"/></clipPath>
	<clipPath id="z23460c5"><use href="#z23460d5"/></clipPath>
	<clipPath id="z23460c6"><use href="#z23460d6"/></clipPath>
	<clipPath id="z23460c7"><use href="#z23460d7"/></clipPath>
	<clipPath id="z23460c8"><use href="#z23460d8"/></clipPath>
	<clipPath id="z23460c9"><use href="#z23460d9"/></clipPath>
</defs>
<path style="--d:1s;" pathLength="3333" clip-path="url(#z23460c1)" d="M456 63L545 113L585 162"/>
<path style="--d:2s;" pathLength="3333" clip-path="url(#z23460c2)" d="M249 226L259 273L195 440"/>
<path style="--d:3s;" pathLength="3333" clip-path="url(#z23460c3)" d="M276 281L782 218L844 279L752 340"/>
<path style="--d:4s;" pathLength="3333" clip-path="url(#z23460c4)" d="M356 395L425 403L684 364"/>
<path style="--d:5s;" pathLength="3333" clip-path="url(#z23460c5)" d="M449 413L477 456L355 583L372 609L642 540"/>
<path style="--d:6s;" pathLength="3333" clip-path="url(#z23460c6)" d="M609 473L681 541L698 591"/>
<path style="--d:7s;" pathLength="3333" clip-path="url(#z23460c7)" d="M313 725L711 698"/>
<path style="--d:8s;" pathLength="3333" clip-path="url(#z23460c8)" d="M478 587L513 633L504 859"/>
<path style="--d:9s;" pathLength="3333" clip-path="url(#z23460c9)" d="M180 880L241 903L756 852L874 880"/>
</svg>