<!--
AnimCJK 2016-2025 Copyright FM-SH - https://github.com/parsimonhi/animCJK
Derived from:
    MakeMeAHanzi project - https://github.com/skishore/makemeahanzi
    Arphic PL KaitiM GB font
    Arphic PL KaitiM Big5 font
You can redistribute and/or modify this file under the terms of the Arphic Public License
as published by Arphic Technology Co., Ltd.
You should have received a copy of this license along with this file.
If not, see https://ftp.gnu.org/non-gnu/chinese-fonts-truetype/LICENSE.
-->
<svg id="z24109" class="acjk" viewBox="0 0 1024 1024" xmlns="http://www.w3.org/2000/svg">
<style>
<![CDATA[
@keyframes zk {
	to {
		stroke-dashoffset:0;
	}
}
svg.acjk path[clip-path] {
	--t:0.8s;
	animation:zk var(--t) linear forwards var(--d);
	stroke-dasharray:3337;
	stroke-dashoffset:3339;
	stroke-width:128;
	stroke-linecap:round;
	fill:none;
	stroke:#000;
}
svg.acjk path[id] {fill:#ccc;}
]]>
</style>
<path id="z24109d1" d="M485 71C512 98 534 120 559 128C569 131 578 124 583 116C587 107 588 96 585 85C576 58 551 41 515 35C488 30 473 30 469 32C464 33 464 37 466 46C467 53 474 60 485 71Z"/>
<path id="z24109d2" d="M330 207C350 213 385 212 435 205C638 174 748 156 763 148C769 144 772 137 770 132C765 123 754 116 736 111C718 106 674 116 604 133C492 158 395 168 316 173C304 173 318 205 330 207Z"/>
<path id="z24109d3" d="M316 173C307 165 296 158 283 152C270 144 259 141 251 145C242 149 240 156 244 166C259 210 257 245 254 284C236 475 167 647 64 789C60 793 57 797 56 802C53 808 58 815 64 811C245 678 288 428 318 249C321 224 328 211 330 207C335 196 326 180 316 173Z"/>
<path id="z24109d4" d="M662 332C713 326 771 325 834 324C846 323 853 320 856 315C858 308 855 300 845 293C826 279 803 267 781 269C757 270 708 281 676 288C637 295 637 295 617 299C579 306 538 313 494 321C463 326 463 326 448 329C407 336 365 341 322 348C310 349 308 354 318 365C326 373 336 378 347 381C359 383 370 383 380 381C403 374 429 367 457 362C483 357 483 357 496 354C537 345 576 340 612 337C645 334 645 334 662 332Z"/>
<path id="z24109d5" d="M494 321C491 286 496 271 478 261C456 248 435 243 424 248C413 251 412 261 420 273C432 291 442 309 448 329C454 351 454 351 457 362C459 370 463 400 469 454C470 466 477 477 485 485C491 491 496 491 500 485C502 478 504 471 504 464C503 453 503 442 502 432C498 395 497 377 496 354C495 332 495 332 494 321Z"/>
<path id="z24109d6" d="M638 410C646 383 653 357 662 332C671 303 671 303 676 288C677 283 683 270 695 248C698 242 695 232 686 223C670 207 654 199 641 194C632 190 625 189 620 194C615 197 613 204 617 213C622 227 622 254 617 299C614 324 614 324 612 337C608 359 603 384 599 410C597 423 635 423 638 410Z"/>
<path id="z24109d7" d="M571 455C593 451 622 447 657 445C663 444 669 440 668 435C665 424 653 417 638 410C626 405 612 408 599 410C567 415 531 425 502 432C491 434 493 464 504 464C508 464 508 464 510 464C551 458 551 458 571 455Z"/>
<path id="z24109d8" d="M391 557C371 548 355 542 345 544C336 545 334 551 338 559C356 593 353 661 344 712C338 741 330 761 354 798C358 805 365 812 372 807C390 793 398 758 400 704C401 643 403 606 405 592C407 580 403 562 391 557Z"/>
<path id="z24109d9" d="M581 565C616 559 652 555 688 553C708 551 720 558 721 573C727 662 726 717 713 730C706 735 685 730 656 723C645 720 638 720 637 723C634 726 636 732 644 739C676 767 701 791 721 812C731 822 741 822 750 812C769 788 781 753 780 709C778 648 777 600 784 566C786 552 784 541 778 536C759 519 744 506 732 500C723 495 718 500 710 504C673 521 605 530 582 534C544 540 544 540 525 543C491 548 429 554 391 557C378 557 393 590 405 592C418 595 433 586 525 573C562 568 562 568 581 565Z"/>
<path id="z24109d10" d="M527 916C529 932 533 943 538 949C541 953 546 956 551 954C569 943 578 883 578 778C577 747 577 676 581 565C582 544 582 544 582 534C583 472 598 483 571 455C558 439 499 446 510 464C520 480 525 506 525 543C525 563 525 563 525 573C525 791 525 904 527 916Z"/>
<defs>
	<clipPath id="z24109c1"><use href="#z24109d1"/></clipPath>
	<clipPath id="z24109c2"><use href="#z24109d2"/></clipPath>
	<clipPath id="z24109c3"><use href="#z24109d3"/></clipPath>
	<clipPath id="z24109c4"><use href="#z24109d4"/></clipPath>
	<clipPath id="z24109c5"><use href="#z24109d5"/></clipPath>
	<clipPath id="z24109c6"><use href="#z24109d6"/></clipPath>
	<clipPath id="z24109c7"><use href="#z24109d7"/></clipPath>
	<clipPath id="z24109c8"><use href="#z24109d8"/></clipPath>
	<clipPath id="z24109c9"><use href="#z24109d9"/></clipPath>
	<clipPath id="z24109c10"><use href="#z24109d10"/></clipPath>
</defs>
<path style="--d:1s;" pathLength="3333" clip-path="url(#z24109c1)" d="M472 39L575 121"/>
<path style="--d:2s;" pathLength="3333" clip-path="url(#z24109c2)" d="M320 182L416 186L766 135"/>
<path style="--d:3s;" pathLength="3333" clip-path="url(#z24109c3)" d="M250 157L292 211L240 490L158 680L63 805"/>
<path style="--d:4s;" pathLength="3333" clip-path="url(#z24109c4)" d="M318 354L775 297L852 310"/>
<path style="--d:5s;" pathLength="3333" clip-path="url(#z24109c5)" d="M424 256L465 291L490 484"/>
<path style="--d:6s;" pathLength="3333" clip-path="url(#z24109c6)" d="M623 200L658 247L611 417"/>
<path style="--d:7s;" pathLength="3333" clip-path="url(#z24109c7)" d="M499 452L663 434"/>
<path style="--d:8s;" pathLength="3333" clip-path="url(#z24109c8)" d="M344 551L376 587L368 802"/>
<path style="--d:9s;" pathLength="3333" clip-path="url(#z24109c9)" d="M393 565L726 531L752 559L743 751L719 775L645 728"/>
<path style="--d:10s;" pathLength="3333" clip-path="url(#z24109c10)" d="M516 457L554 487L548 950"/>
</svg>