<!--
AnimCJK 2016-2023 Copyright FM&SH - https://github.com/parsimonhi/animCJK
Derived from:
    MakeMeAHanzi project - https://github.com/skishore/makemeahanzi
    Arphic PL KaitiM GB font
    Arphic PL UKai font
You can redistribute and/or modify this file under the terms of the Arphic Public License
as published by Arphic Technology Co., Ltd.
You should have received a copy of this license along with this file.
If not, see http://ftp.gnu.org/non-gnu/chinese-fonts-truetype/LICENSE.
-->
<svg id="z26032" class="acjk" version="1.1" viewBox="0 0 1024 1024" xmlns="http://www.w3.org/2000/svg" xmlns:xlink="http://www.w3.org/1999/xlink">
<style>
<![CDATA[
@keyframes zk {
	to {
		stroke-dashoffset:0;
	}
}
svg.acjk path[clip-path] {
	--t:0.8s;
	animation:zk var(--t) linear forwards var(--d);
	stroke-dasharray:3337;
	stroke-dashoffset:3339;
	stroke-width:128;
	stroke-linecap:round;
	fill:none;
	stroke:#000;
}
svg.acjk path[id] {fill:#ccc;}
]]>
</style>
<path id="z26032d1" d="M335 110C351 122 366 137 385 153C394 161 406 164 417 163C425 162 430 157 433 148C435 137 433 120 425 101C417 81 383 68 327 60C315 58 308 58 304 61C299 63 297 69 301 79C302 85 315 95 335 110Z"/>
<path id="z26032d2" d="M216 238C193 241 189 249 207 259C231 273 262 276 296 269C356 256 418 243 481 230C509 223 526 218 531 214C535 209 537 203 535 199C531 190 519 184 502 181C484 176 439 194 365 212C317 223 278 229 216 238Z"/>
<path id="z26032d3" d="M234 330C249 355 262 377 280 391C285 394 294 393 300 387C305 381 307 372 307 365C305 341 285 322 251 304C244 300 236 297 230 298C227 298 225 301 225 308C224 314 228 319 234 330Z"/>
<path id="z26032d4" d="M411 399C432 368 468 317 478 306C485 297 487 292 484 287C478 276 468 266 452 254C444 248 436 244 426 248C419 250 419 253 422 262C427 278 399 359 378 406C374 416 404 408 411 399Z"/>
<path id="z26032d5" d="M360 448C420 436 471 427 505 423C515 421 520 419 521 414C521 406 516 399 506 394C484 383 453 390 411 399C389 404 389 404 378 406C239 435 141 453 81 459C72 459 67 462 66 468C64 474 67 481 77 489C101 507 126 511 153 503C216 482 291 461 319 456C346 451 346 451 360 448Z"/>
<path id="z26032d6" d="M341 570C299 582 237 592 158 607C141 610 139 616 154 626C173 640 193 644 210 640C235 633 297 618 321 613C362 603 362 603 383 598C399 594 442 581 513 572C519 571 526 569 530 561C532 554 523 547 510 542C477 526 448 538 385 557C356 566 356 566 341 570Z"/>
<path id="z26032d7" d="M319 456C340 492 340 531 341 570C341 640 341 640 341 675C341 747 337 799 328 833C322 851 326 875 340 908C343 915 346 920 351 924C354 925 356 926 361 923C373 912 381 892 381 862C381 847 382 784 382 672C382 655 382 655 382 646C382 630 382 614 383 598C384 571 384 571 385 557C386 534 387 513 395 497C398 489 401 482 399 476C397 469 385 463 360 448C348 441 313 444 319 456Z"/>
<path id="z26032d8" d="M321 613C283 689 217 763 127 839C118 846 118 850 124 852C130 853 136 854 144 851C204 826 273 764 341 675C379 628 348 559 321 613Z"/>
<path id="z26032d9" d="M382 672C406 688 429 705 453 724C459 730 467 732 475 732C479 731 483 727 485 721C487 713 485 702 480 689C472 671 441 656 388 646C385 645 383 645 382 646C373 646 375 667 382 672Z"/>
<path id="z26032d10" d="M634 298C677 282 776 230 821 217C834 212 841 202 837 191C830 176 818 165 803 152C788 139 777 134 769 134C760 134 758 137 758 147C757 169 731 197 685 232C664 247 637 269 621 281C615 285 627 301 634 298Z"/>
<path id="z26032d11" d="M625 422C628 373 631 311 634 298C635 291 627 285 621 281C591 260 567 251 553 258C545 261 544 269 550 279C577 319 584 422 555 588C540 670 497 757 465 818C462 822 459 826 459 831C457 837 460 839 467 838C477 835 489 818 511 791C568 717 613 606 623 453C624 432 624 432 625 422Z"/>
<path id="z26032d12" d="M786 433C817 427 861 414 932 408C965 405 932 376 923 370C896 351 864 358 818 374C767 390 675 414 625 422C615 424 613 451 623 453C660 459 701 447 729 443C767 436 767 436 786 433Z"/>
<path id="z26032d13" d="M754 933C756 948 760 961 766 969C768 973 773 977 779 974C798 961 807 897 808 786C808 752 809 680 812 550C812 534 816 491 821 475C826 453 811 447 786 433C769 423 722 425 729 443C743 473 747 498 750 519C753 551 752 710 750 789C747 860 750 908 754 933Z"/>
<defs>
	<clipPath id="z26032c1"><use xlink:href="#z26032d1"/></clipPath>
	<clipPath id="z26032c2"><use xlink:href="#z26032d2"/></clipPath>
	<clipPath id="z26032c3"><use xlink:href="#z26032d3"/></clipPath>
	<clipPath id="z26032c4"><use xlink:href="#z26032d4"/></clipPath>
	<clipPath id="z26032c5"><use xlink:href="#z26032d5"/></clipPath>
	<clipPath id="z26032c6"><use xlink:href="#z26032d6"/></clipPath>
	<clipPath id="z26032c7"><use xlink:href="#z26032d7"/></clipPath>
	<clipPath id="z26032c8"><use xlink:href="#z26032d8"/></clipPath>
	<clipPath id="z26032c9"><use xlink:href="#z26032d9"/></clipPath>
	<clipPath id="z26032c10"><use xlink:href="#z26032d10"/></clipPath>
	<clipPath id="z26032c11"><use xlink:href="#z26032d11"/></clipPath>
	<clipPath id="z26032c12"><use xlink:href="#z26032d12"/></clipPath>
	<clipPath id="z26032c13"><use xlink:href="#z26032d13"/></clipPath>
</defs>
<path style="--d:1s;" pathLength="3333" clip-path="url(#z26032c1)" d="M303 68L382 105L418 159"/>
<path style="--d:2s;" pathLength="3333" clip-path="url(#z26032c2)" d="M205 248L531 201"/>
<path style="--d:3s;" pathLength="3333" clip-path="url(#z26032c3)" d="M233 308L301 380"/>
<path style="--d:4s;" pathLength="3333" clip-path="url(#z26032c4)" d="M428 253L450 296L385 402"/>
<path style="--d:5s;" pathLength="3333" clip-path="url(#z26032c5)" d="M71 470L131 480L513 408"/>
<path style="--d:6s;" pathLength="3333" clip-path="url(#z26032c6)" d="M151 614L522 561"/>
<path style="--d:7s;" pathLength="3333" clip-path="url(#z26032c7)" d="M325 454L367 489L355 920"/>
<path style="--d:8s;" pathLength="3333" clip-path="url(#z26032c8)" d="M342 597L278 718L127 846"/>
<path style="--d:9s;" pathLength="3333" clip-path="url(#z26032c9)" d="M384 653L481 723"/>
<path style="--d:10s;" pathLength="3333" clip-path="url(#z26032c10)" d="M768 137L788 194L627 288"/>
<path style="--d:11s;" pathLength="3333" clip-path="url(#z26032c11)" d="M554 268L600 313L587 542L549 686L465 830"/>
<path style="--d:12s;" pathLength="3333" clip-path="url(#z26032c12)" d="M619 443L878 386L940 393"/>
<path style="--d:13s;" pathLength="3333" clip-path="url(#z26032c13)" d="M735 434L783 476L775 967"/>
</svg>