<!--
AnimCJK 2016-2025 Copyright FM-SH - https://github.com/parsimonhi/animCJK
Derived from:
    MakeMeAHanzi project - https://github.com/skishore/makemeahanzi
    Arphic PL KaitiM GB font
    Arphic PL UKai font
You can redistribute and/or modify this file under the terms of the Arphic Public License
as published by Arphic Technology Co., Ltd.
You should have received a copy of this license along with this file.
If not, see http://ftp.gnu.org/non-gnu/chinese-fonts-truetype/LICENSE.
-->
<svg id="z27506" class="acjk" version="1.1" viewBox="0 0 1024 1024" xmlns="http://www.w3.org/2000/svg" xmlns:xlink="http://www.w3.org/1999/xlink">
<style>
<![CDATA[
@keyframes zk {
	to {
		stroke-dashoffset:0;
	}
}
svg.acjk path[clip-path] {
	--t:0.8s;
	animation:zk var(--t) linear forwards var(--d);
	stroke-dasharray:3337;
	stroke-dashoffset:3339;
	stroke-width:128;
	stroke-linecap:round;
	fill:none;
	stroke:#000;
}
svg.acjk path[id] {fill:#ccc;}
]]>
</style>
<path id="z27506d1" d="M533 267C535 230 538 194 542 159C544 140 544 140 545 130C546 112 551 96 556 81C557 74 553 65 540 57C520 45 501 39 486 37C475 35 468 36 464 42C459 46 458 54 465 63C480 83 490 154 492 276C492 290 533 281 533 267Z"/>
<path id="z27506d2" d="M542 159C570 165 597 163 625 155C690 134 724 124 726 123C730 118 731 112 728 107C723 100 711 92 691 92C663 90 627 114 545 130C535 132 532 157 542 159Z"/>
<path id="z27506d3" d="M391 299C381 214 380 176 376 171C364 156 334 147 319 144C308 141 301 142 297 147C292 151 291 159 298 168C310 184 329 230 351 308C354 321 394 312 391 299Z"/>
<path id="z27506d4" d="M536 306C600 295 679 286 775 280C787 279 795 276 798 270C801 262 796 253 785 246C749 222 710 219 669 232C630 243 585 255 533 267C506 273 506 273 492 276C486 277 452 285 391 299C364 305 364 305 351 308C296 320 240 329 182 342C169 344 167 350 179 361C196 377 220 383 247 375C340 344 453 319 487 314C520 309 520 309 536 306Z"/>
<path id="z27506d5" d="M579 443C620 432 660 424 698 418C714 415 719 409 713 400C706 390 693 383 675 380C642 374 636 382 577 399C542 409 542 409 524 414C451 434 338 459 263 475C252 477 265 506 276 506C299 509 456 472 534 454C564 447 564 447 579 443Z"/>
<path id="z27506d6" d="M263 475C237 458 215 453 198 461C189 464 187 471 193 479C209 502 215 542 213 600C207 709 134 810 69 870C62 876 63 883 70 881C184 841 252 708 263 600C267 556 272 515 276 506C280 496 272 482 263 475Z"/>
<path id="z27506d7" d="M414 575C479 555 511 543 513 543C517 538 518 533 515 529C510 522 500 517 485 516C468 514 452 518 437 525C418 533 398 541 378 548C355 554 330 559 304 565C285 568 282 576 297 584C327 600 357 591 380 585C403 578 403 578 414 575Z"/>
<path id="z27506d8" d="M424 756C427 740 431 702 430 640C430 605 433 588 414 575C405 568 378 573 380 585C384 603 387 637 387 686C386 698 385 705 384 708C381 714 375 715 364 715C349 715 349 715 341 715C325 715 327 722 338 731C369 756 380 785 393 792C405 802 421 772 424 756Z"/>
<path id="z27506d9" d="M291 639C285 667 277 695 267 722C260 737 263 753 274 769C278 775 286 775 295 768C304 759 309 746 313 730C317 709 318 691 317 675C315 659 314 645 308 635C306 631 302 629 299 630C294 630 291 634 291 639Z"/>
<path id="z27506d10" d="M393 792Q342 849 203 925Q196 929 200 934Q206 937 216 935Q274 923 327 895Q421 849 504 721Q519 700 536 681Q543 674 541 665Q537 655 514 635Q498 622 489 621Q477 622 476 635Q470 692 424 756C403 780 403 780 393 792Z"/>
<path id="z27506d11" d="M763 879C818 934 882 979 933 986C950 988 960 970 955 948C949 923 944 861 944 758C943 748 941 743 938 743C933 742 931 747 929 756C921 780 912 804 905 828C894 858 883 875 873 875C856 875 832 859 800 832C761 797 727 757 697 716C686 701 676 687 667 672C622 600 592 521 581 442C578 427 577 413 577 399C577 322 602 334 536 306C521 300 477 301 487 314C505 334 510 359 524 414C531 441 531 441 534 454C558 550 588 633 633 711C641 726 651 741 661 756C689 798 723 839 763 879Z"/>
<path id="z27506d12" d="M633 711C599 749 548 791 501 826C494 830 493 837 499 837C557 830 635 780 661 756C674 743 685 729 697 716C733 671 751 641 770 607C777 592 786 578 796 566C801 558 803 552 800 546C796 538 783 527 765 515C749 505 740 500 734 502C724 504 719 508 720 520C721 564 715 600 667 671C657 685 644 697 633 711Z"/>
<path id="z27506d13" d="M758 377C774 388 792 401 810 417C818 424 828 427 839 426C845 424 850 420 853 412C855 402 853 387 845 370C834 349 806 339 749 332C738 330 730 331 728 333C724 335 723 341 726 349C727 355 739 364 758 377Z"/>
<defs>
	<clipPath id="z27506c1"><use xlink:href="#z27506d1"/></clipPath>
	<clipPath id="z27506c2"><use xlink:href="#z27506d2"/></clipPath>
	<clipPath id="z27506c3"><use xlink:href="#z27506d3"/></clipPath>
	<clipPath id="z27506c4"><use xlink:href="#z27506d4"/></clipPath>
	<clipPath id="z27506c5"><use xlink:href="#z27506d5"/></clipPath>
	<clipPath id="z27506c6"><use xlink:href="#z27506d6"/></clipPath>
	<clipPath id="z27506c7"><use xlink:href="#z27506d7"/></clipPath>
	<clipPath id="z27506c8"><use xlink:href="#z27506d8"/></clipPath>
	<clipPath id="z27506c9"><use xlink:href="#z27506d9"/></clipPath>
	<clipPath id="z27506c10"><use xlink:href="#z27506d10"/></clipPath>
	<clipPath id="z27506c11"><use xlink:href="#z27506d11"/></clipPath>
	<clipPath id="z27506c12"><use xlink:href="#z27506d12"/></clipPath>
	<clipPath id="z27506c13"><use xlink:href="#z27506d13"/></clipPath>
</defs>
<path style="--d:1s;" pathLength="3333" clip-path="url(#z27506c1)" d="M466 44L516 87L506 281"/>
<path style="--d:2s;" pathLength="3333" clip-path="url(#z27506c2)" d="M539 148L725 110"/>
<path style="--d:3s;" pathLength="3333" clip-path="url(#z27506c3)" d="M301 152L346 189L372 311"/>
<path style="--d:4s;" pathLength="3333" clip-path="url(#z27506c4)" d="M182 352L702 255L794 261"/>
<path style="--d:5s;" pathLength="3333" clip-path="url(#z27506c5)" d="M268 484L709 405"/>
<path style="--d:6s;" pathLength="3333" clip-path="url(#z27506c6)" d="M196 466L242 510L224 672L171 779L72 875"/>
<path style="--d:7s;" pathLength="3333" clip-path="url(#z27506c7)" d="M295 574L512 534"/>
<path style="--d:8s;" pathLength="3333" clip-path="url(#z27506c8)" d="M387 581L407 615L405 721L388 754L338 723"/>
<path style="--d:9s;" pathLength="3333" clip-path="url(#z27506c9)" d="M301 635L277 766"/>
<path style="--d:10s;" pathLength="3333" clip-path="url(#z27506c10)" d="M485 629L502 676L408 808L324 875L208 928"/>
<path style="--d:11s;" pathLength="3333" clip-path="url(#z27506c11)" d="M495 313L546 348L571 508L630 657L761 836L866 917L922 933L938 754"/>
<path style="--d:12s;" pathLength="3333" clip-path="url(#z27506c12)" d="M729 511L757 564L686 689L505 830"/>
<path style="--d:13s;" pathLength="3333" clip-path="url(#z27506c13)" d="M730 337L845 418"/>
</svg>