<!--
AnimCJK 2016-2026 Copyright FM-SH, https://github.com/parsimonhi/animCJK
Derived from:
    MakeMeAHanzi project - https://github.com/skishore/makemeahanzi
    Arphic PL KaitiM GB font
    Arphic PL KaitiM Big5 font
You can redistribute and/or modify this file under the terms of the Arphic Public License
as published by Arphic Technology Co., Ltd.
You should have received a copy of this license along with this file.
If not, see https://ftp.gnu.org/non-gnu/chinese-fonts-truetype/LICENSE.
-->
<svg id="z30693" class="acjk" viewBox="0 0 1024 1024" xmlns="http://www.w3.org/2000/svg">
<style>
<![CDATA[
@keyframes zk {
	to {
		stroke-dashoffset:0;
	}
}
svg.acjk path[clip-path] {
	--t:0.8s;
	animation:zk var(--t) linear forwards var(--d);
	stroke-dasharray:3337;
	stroke-dashoffset:3339;
	stroke-width:128;
	stroke-linecap:round;
	fill:none;
	stroke:#000;
}
svg.acjk path[id] {fill:#ccc;}
]]>
</style>
<path id="z30693d1" d="M271 335C320 268 334 231 380 146C385 136 384 127 373 118C357 105 342 98 329 94C313 88 284 84 291 110C294 124 294 139 293 154C291 194 279 276 152 420C119 457 153 444 165 436C187 422 223 398 259 351C267 340 267 340 271 335Z"/>
<path id="z30693d2" d="M373 363C459 342 528 325 540 317C554 305 545 288 506 282C485 278 464 282 444 291C346 328 289 333 271 335C264 336 254 346 259 351C271 363 297 369 326 371C357 366 357 366 373 363Z"/>
<path id="z30693d3" d="M387 558C431 547 480 536 535 531C563 527 557 507 536 497C512 485 466 497 395 512C357 520 357 520 338 524C239 544 160 559 98 566C79 567 70 583 94 600C123 620 152 624 181 615C238 594 288 580 329 571C368 562 368 562 387 558Z"/>
<path id="z30693d4" d="M329 571C307 683 241 775 135 848C81 884 135 870 144 867C277 822 365 681 387 558C392 527 392 527 395 512C403 464 412 431 421 414C429 397 427 391 373 363C359 355 323 355 326 371C326 384 356 426 338 524C332 555 332 555 329 571Z"/>
<path id="z30693d5" d="M410 660C433 689 463 722 492 765C505 784 520 802 537 786C545 777 547 759 543 730C538 702 516 677 476 658C449 645 427 637 414 629C403 622 395 641 410 660Z"/>
<path id="z30693d6" d="M601 434C582 425 529 401 548 447C572 507 588 585 596 682C598 710 605 734 620 755C647 794 648 736 649 703C649 690 646 677 645 665C631 570 621 494 619 466C619 454 612 439 601 434Z"/>
<path id="z30693d7" d="M848 640C862 548 883 487 912 458C924 444 926 428 913 419C856 376 811 373 775 390C730 410 671 421 601 434C589 436 607 466 619 466C638 466 716 446 779 439C811 434 821 448 819 481C814 537 805 587 796 633C793 650 845 657 848 640Z"/>
<path id="z30693d8" d="M649 703C673 705 675 696 862 679C896 675 858 647 848 640C834 630 813 630 796 633C781 636 731 651 645 665C633 667 636 703 649 703Z"/>
<defs>
	<clipPath id="z30693c1"><use href="#z30693d1"/></clipPath>
	<clipPath id="z30693c2"><use href="#z30693d2"/></clipPath>
	<clipPath id="z30693c3"><use href="#z30693d3"/></clipPath>
	<clipPath id="z30693c4"><use href="#z30693d4"/></clipPath>
	<clipPath id="z30693c5"><use href="#z30693d5"/></clipPath>
	<clipPath id="z30693c6"><use href="#z30693d6"/></clipPath>
	<clipPath id="z30693c7"><use href="#z30693d7"/></clipPath>
	<clipPath id="z30693c8"><use href="#z30693d8"/></clipPath>
</defs>
<path style="--d:1s;" pathLength="3333" clip-path="url(#z30693c1)" d="M297 94L337 139L311 217L251 326L148 439"/>
<path style="--d:2s;" pathLength="3333" clip-path="url(#z30693c2)" d="M265 345L540 300"/>
<path style="--d:3s;" pathLength="3333" clip-path="url(#z30693c3)" d="M86 580L152 589L548 511"/>
<path style="--d:4s;" pathLength="3333" clip-path="url(#z30693c4)" d="M333 367L382 416L333 648L236 790L121 868"/>
<path style="--d:5s;" pathLength="3333" clip-path="url(#z30693c5)" d="M409 637L495 710L532 786"/>
<path style="--d:6s;" pathLength="3333" clip-path="url(#z30693c6)" d="M551 429L586 460L632 762"/>
<path style="--d:7s;" pathLength="3333" clip-path="url(#z30693c7)" d="M605 439L802 409L864 438L819 647"/>
<path style="--d:8s;" pathLength="3333" clip-path="url(#z30693c8)" d="M639 683L869 659"/>
</svg>