<!--
AnimCJK 2016-2025 Copyright FM-SH - https://github.com/parsimonhi/animCJK
Derived from:
    MakeMeAHanzi project - https://github.com/skishore/makemeahanzi
    Arphic PL KaitiM GB font
    Arphic PL UKai font
You can redistribute and/or modify this file under the terms of the Arphic Public License
as published by Arphic Technology Co., Ltd.
You should have received a copy of this license along with this file.
If not, see http://ftp.gnu.org/non-gnu/chinese-fonts-truetype/LICENSE.
-->
<svg id="z31070" class="acjk" version="1.1" viewBox="0 0 1024 1024" xmlns="http://www.w3.org/2000/svg" xmlns:xlink="http://www.w3.org/1999/xlink">
<style>
<![CDATA[
@keyframes zk {
	to {
		stroke-dashoffset:0;
	}
}
svg.acjk path[clip-path] {
	--t:0.8s;
	animation:zk var(--t) linear forwards var(--d);
	stroke-dasharray:3337;
	stroke-dashoffset:3339;
	stroke-width:128;
	stroke-linecap:round;
	fill:none;
	stroke:#000;
}
svg.acjk path[id] {fill:#ccc;}
]]>
</style>
<path id="z31070d1" d="M287 181C259 189 221 200 132 211C100 214 121 231 146 241C164 247 177 246 198 244C262 236 280 233 339 224C355 221 364 219 363 211C360 199 350 189 339 184C326 177 307 175 287 181Z"/>
<path id="z31070d2" d="M331 310C267 325 241 332 112 346C97 347 62 359 85 374C101 385 120 392 142 392C165 391 194 382 220 378C254 371 254 371 271 368C309 360 377 361 394 360C432 356 409 324 378 311C366 306 349 305 331 310Z"/>
<path id="z31070d3" d="M220 378C237 400 241 437 242 458C245 749 229 799 229 825C228 844 231 855 238 874C257 926 276 920 293 874C302 848 305 817 303 791C293 682 292 557 294 458C295 385 315 398 271 368C256 359 210 364 220 378Z"/>
<path id="z31070d4" d="M140 525C141 573 116 632 97 670C73 715 87 725 118 693C156 651 167 606 196 563C215 536 226 531 200 512C154 478 138 487 140 525Z"/>
<path id="z31070d5" d="M332 486C336 499 345 511 353 523C368 546 389 573 410 592C416 597 425 596 430 591C439 581 440 565 438 553C430 514 391 496 364 476C344 461 324 463 332 486Z"/>
<path id="z31070d6" d="M491 349C481 344 470 340 459 339C454 338 450 339 448 342C443 346 445 350 451 358C479 399 493 463 505 549C510 588 530 622 548 632C557 637 565 618 564 601C562 583 562 583 561 574C560 567 552 529 551 520C539 453 528 394 528 381C528 365 506 355 491 349Z"/>
<path id="z31070d7" d="M782 580C792 596 803 606 815 611C821 615 830 611 841 597C851 579 864 521 885 426C889 403 901 384 918 367C926 358 927 349 919 340C908 327 888 312 859 296C848 290 813 295 753 306C746 307 728 310 700 315C667 320 667 320 651 323C637 325 526 344 491 349C475 352 512 384 528 381C560 372 601 365 651 357C684 352 684 352 700 349C720 345 745 341 773 339C795 336 810 339 818 347C827 357 831 368 830 379C813 483 800 539 789 547C781 555 775 571 782 580Z"/>
<path id="z31070d8" d="M699 474C725 470 749 467 773 465C787 463 792 458 787 451C780 442 769 435 755 432C741 429 722 431 699 437C667 444 667 444 651 448C624 454 598 459 573 465C563 467 564 472 576 482C582 486 591 488 605 486C619 483 635 482 651 480C683 476 683 476 699 474Z"/>
<path id="z31070d9" d="M699 589C727 586 755 581 782 580C793 580 799 551 789 547C757 532 737 542 699 550C666 556 666 556 650 559C619 564 583 570 561 574C552 575 555 601 564 601C583 601 624 596 650 594C683 591 683 591 699 589Z"/>
<path id="z31070d10" d="M650 594C650 800 650 914 663 933C670 943 679 939 685 927C697 897 708 783 699 589C699 563 699 563 699 550C699 499 699 499 699 474C699 449 699 449 699 437C699 405 700 375 700 349C700 326 700 326 700 315C700 227 710 172 723 151C728 141 723 131 710 121C695 109 674 99 647 93C635 90 626 94 618 102C612 107 611 112 620 120C638 136 651 156 651 179C651 275 651 275 651 323C651 346 651 346 651 357C651 418 651 418 651 448C651 469 651 469 651 480C651 506 650 532 650 559C650 582 650 582 650 594Z"/>
<defs>
	<clipPath id="z31070c1"><use xlink:href="#z31070d1"/></clipPath>
	<clipPath id="z31070c2"><use xlink:href="#z31070d2"/></clipPath>
	<clipPath id="z31070c3"><use xlink:href="#z31070d3"/></clipPath>
	<clipPath id="z31070c4"><use xlink:href="#z31070d4"/></clipPath>
	<clipPath id="z31070c5"><use xlink:href="#z31070d5"/></clipPath>
	<clipPath id="z31070c6"><use xlink:href="#z31070d6"/></clipPath>
	<clipPath id="z31070c7"><use xlink:href="#z31070d7"/></clipPath>
	<clipPath id="z31070c8"><use xlink:href="#z31070d8"/></clipPath>
	<clipPath id="z31070c9"><use xlink:href="#z31070d9"/></clipPath>
	<clipPath id="z31070c10"><use xlink:href="#z31070d10"/></clipPath>
</defs>
<path style="--d:1s;" pathLength="3333" clip-path="url(#z31070c1)" d="M123 218L358 205"/>
<path style="--d:2s;" pathLength="3333" clip-path="url(#z31070c2)" d="M87 363L409 343"/>
<path style="--d:3s;" pathLength="3333" clip-path="url(#z31070c3)" d="M225 370L267 407L267 904"/>
<path style="--d:4s;" pathLength="3333" clip-path="url(#z31070c4)" d="M151 499L176 542L90 704"/>
<path style="--d:5s;" pathLength="3333" clip-path="url(#z31070c5)" d="M337 474L425 590"/>
<path style="--d:6s;" pathLength="3333" clip-path="url(#z31070c6)" d="M453 346L500 389L548 628"/>
<path style="--d:7s;" pathLength="3333" clip-path="url(#z31070c7)" d="M494 353L798 317L851 330L877 363L812 607"/>
<path style="--d:8s;" pathLength="3333" clip-path="url(#z31070c8)" d="M573 469L784 453"/>
<path style="--d:9s;" pathLength="3333" clip-path="url(#z31070c9)" d="M558 588L791 563"/>
<path style="--d:10s;" pathLength="3333" clip-path="url(#z31070c10)" d="M622 108L686 151L671 933"/>
</svg>