<!--
AnimCJK 2016-2025 Copyright FM-SH - https://github.com/parsimonhi/animCJK
Derived from:
    MakeMeAHanzi project - https://github.com/skishore/makemeahanzi
    Arphic PL KaitiM GB font
    Arphic PL UKai font
You can redistribute and/or modify this file under the terms of the Arphic Public License
as published by Arphic Technology Co., Ltd.
You should have received a copy of this license along with this file.
If not, see http://ftp.gnu.org/non-gnu/chinese-fonts-truetype/LICENSE.
-->
<svg id="z35712" class="acjk" version="1.1" viewBox="0 0 1024 1024" xmlns="http://www.w3.org/2000/svg" xmlns:xlink="http://www.w3.org/1999/xlink">
<style>
<![CDATA[
@keyframes zk {
	to {
		stroke-dashoffset:0;
	}
}
svg.acjk path[clip-path] {
	--t:0.8s;
	animation:zk var(--t) linear forwards var(--d);
	stroke-dasharray:3337;
	stroke-dashoffset:3339;
	stroke-width:128;
	stroke-linecap:round;
	fill:none;
	stroke:#000;
}
svg.acjk path[id] {fill:#ccc;}
]]>
</style>
<path id="z35712d1" d="M308 149C324 159 339 175 357 190C366 198 379 202 392 201C400 200 405 194 408 184C410 172 407 154 399 134C394 120 380 111 360 106C309 93 280 91 272 97C268 99 265 105 269 116C271 124 286 133 308 149Z"/>
<path id="z35712d2" d="M76 328C67 329 61 332 60 338C57 344 61 352 73 360C98 378 127 382 157 372C237 343 321 321 409 306C419 304 425 300 426 296C426 287 419 279 408 274C388 265 372 265 357 269C237 298 143 317 76 328Z"/>
<path id="z35712d3" d="M189 437C166 441 163 450 182 459C206 471 237 470 271 460C300 450 331 443 361 435C375 431 383 428 385 426C389 421 391 414 388 410C383 402 370 398 353 396C338 394 271 421 189 437Z"/>
<path id="z35712d4" d="M205 545C182 548 180 558 198 567C218 577 251 576 298 565C320 559 343 553 368 546C380 542 387 539 389 538C393 533 395 526 392 522C387 514 374 510 357 508C341 505 278 532 205 545Z"/>
<path id="z35712d5" d="M183 673C175 670 160 668 142 665C134 663 130 663 128 667C125 670 125 676 131 687C149 718 166 763 178 821C181 836 186 851 197 862C224 891 221 855 218 826C216 815 214 805 212 796C202 764 195 717 193 701C191 691 193 675 183 673Z"/>
<path id="z35712d6" d="M358 767C366 726 378 700 390 687C405 669 402 656 388 648C374 641 359 631 341 622C328 614 315 615 304 624C277 642 237 659 183 673C173 675 184 704 193 701C222 692 256 683 285 675C299 670 308 671 314 677C316 679 314 709 307 767C304 784 355 784 358 767Z"/>
<path id="z35712d7" d="M218 826C235 827 327 803 371 797C377 796 381 793 381 787C381 782 373 775 358 767C343 758 323 761 307 767C271 779 239 788 212 796C202 798 208 826 218 826Z"/>
<path id="z35712d8" d="M671 172C766 153 813 137 815 136C819 131 820 125 818 122C814 114 802 108 787 105C769 101 753 104 736 110C716 116 697 124 678 129C637 140 637 140 617 145C575 156 530 158 484 164C463 166 457 176 475 184C525 206 538 197 619 182C654 175 654 175 671 172Z"/>
<path id="z35712d9" d="M660 230C662 208 667 191 671 172C676 143 676 143 678 129C680 114 685 102 690 90C692 83 687 78 675 70C654 56 636 51 622 48C611 45 604 46 600 52C595 56 594 63 600 72C607 84 614 105 617 145C618 170 618 170 619 182C620 200 620 217 621 239C621 252 657 243 660 230Z"/>
<path id="z35712d10" d="M621 239C600 243 551 248 515 254C500 256 498 261 510 270C526 282 541 287 557 284C631 266 700 253 763 249C767 248 774 247 778 240C780 234 771 228 761 223C745 213 708 218 660 230C634 236 634 236 621 239Z"/>
<path id="z35712d11" d="M460 334C452 331 440 330 427 330C420 329 416 330 414 334C411 338 413 343 419 352C435 375 451 438 466 480C478 513 503 533 506 506C506 497 504 488 503 480C496 435 480 387 479 367C477 354 472 336 460 334Z"/>
<path id="z35712d12" d="M788 472C789 480 795 490 803 490C813 489 833 476 846 447C864 402 878 362 896 348C906 338 908 328 900 320C889 307 868 296 842 279C832 273 805 279 755 286C639 302 571 316 460 334C448 336 467 372 479 367C504 359 544 350 580 343C608 337 629 336 668 330C703 324 736 317 763 316C791 315 819 308 818 340C816 381 799 432 794 444C790 453 786 463 788 472Z"/>
<path id="z35712d13" d="M527 462C522 463 518 458 522 454C548 425 567 412 571 378C573 368 569 359 570 350C571 341 581 340 589 342C598 345 611 348 619 356C623 360 623 369 620 374C615 383 609 393 594 412C575 435 554 458 527 462Z"/>
<path id="z35712d14" d="M661 337C661 343 666 350 666 383C666 409 677 425 710 428C729 430 769 429 784 417C789 413 789 408 786 405C773 394 752 380 739 390C717 407 698 403 698 381C698 366 713 357 705 345C702 339 695 336 691 334C670 323 662 330 661 337Z"/>
<path id="z35712d15" d="M506 506C523 505 657 482 788 472C798 472 803 448 794 444C780 438 743 438 680 453C648 459 543 475 503 480C494 482 497 506 506 506Z"/>
<path id="z35712d16" d="M522 556C508 548 496 545 489 549C484 551 485 554 488 563C503 610 506 682 500 732C496 758 500 783 520 810C525 816 531 816 537 810C541 803 544 795 545 787C546 766 546 766 547 756C547 741 546 729 546 715C545 700 545 700 545 692C544 674 545 661 545 646C544 632 544 632 544 625C543 607 544 599 546 582C548 570 533 561 522 556Z"/>
<path id="z35712d17" d="M744 768C765 817 772 812 796 774C805 759 808 745 807 734C794 640 796 597 815 570C821 561 823 552 818 547C802 531 778 513 752 503C742 499 731 506 718 512C671 531 611 540 522 556C510 558 536 588 546 582C552 575 605 563 705 547C719 544 729 546 736 554C751 574 756 623 746 733C745 739 743 744 743 749C742 755 742 762 744 768Z"/>
<path id="z35712d18" d="M545 646C561 647 648 629 693 622C705 620 709 615 705 608C698 599 688 594 675 593C658 590 615 601 544 625C537 627 538 646 545 646Z"/>
<path id="z35712d19" d="M546 715C562 718 650 700 696 694C708 692 713 686 709 680C703 670 692 666 679 664C662 661 618 671 545 692C538 695 538 715 546 715Z"/>
<path id="z35712d20" d="M545 787C563 785 654 772 740 768C740 767 742 767 744 768C750 768 748 753 743 749C703 717 702 736 547 756C537 758 535 789 545 787Z"/>
<path id="z35712d21" d="M537 830C525 864 479 901 398 957C384 966 383 967 402 968C431 968 497 936 557 899C579 884 575 888 600 869C607 863 610 855 610 851C609 841 599 835 585 828C567 820 556 815 548 817C543 817 539 822 537 830Z"/>
<path id="z35712d22" d="M696 841C724 871 759 897 795 944C805 956 813 966 825 969C828 970 834 966 841 961C849 952 850 939 844 911C836 874 787 845 698 811C690 808 688 808 687 817C686 825 688 833 696 841Z"/>
<defs>
	<clipPath id="z35712c1"><use xlink:href="#z35712d1"/></clipPath>
	<clipPath id="z35712c2"><use xlink:href="#z35712d2"/></clipPath>
	<clipPath id="z35712c3"><use xlink:href="#z35712d3"/></clipPath>
	<clipPath id="z35712c4"><use xlink:href="#z35712d4"/></clipPath>
	<clipPath id="z35712c5"><use xlink:href="#z35712d5"/></clipPath>
	<clipPath id="z35712c6"><use xlink:href="#z35712d6"/></clipPath>
	<clipPath id="z35712c7"><use xlink:href="#z35712d7"/></clipPath>
	<clipPath id="z35712c8"><use xlink:href="#z35712d8"/></clipPath>
	<clipPath id="z35712c9"><use xlink:href="#z35712d9"/></clipPath>
	<clipPath id="z35712c10"><use xlink:href="#z35712d10"/></clipPath>
	<clipPath id="z35712c11"><use xlink:href="#z35712d11"/></clipPath>
	<clipPath id="z35712c12"><use xlink:href="#z35712d12"/></clipPath>
	<clipPath id="z35712c13"><use xlink:href="#z35712d13"/></clipPath>
	<clipPath id="z35712c14"><use xlink:href="#z35712d14"/></clipPath>
	<clipPath id="z35712c15"><use xlink:href="#z35712d15"/></clipPath>
	<clipPath id="z35712c16"><use xlink:href="#z35712d16"/></clipPath>
	<clipPath id="z35712c17"><use xlink:href="#z35712d17"/></clipPath>
	<clipPath id="z35712c18"><use xlink:href="#z35712d18"/></clipPath>
	<clipPath id="z35712c19"><use xlink:href="#z35712d19"/></clipPath>
	<clipPath id="z35712c20"><use xlink:href="#z35712d20"/></clipPath>
	<clipPath id="z35712c21"><use xlink:href="#z35712d21"/></clipPath>
	<clipPath id="z35712c22"><use xlink:href="#z35712d22"/></clipPath>
</defs>
<path style="--d:1s;" pathLength="3333" clip-path="url(#z35712c1)" d="M272 103L364 147L400 192"/>
<path style="--d:2s;" pathLength="3333" clip-path="url(#z35712c2)" d="M63 341L130 348L420 292"/>
<path style="--d:3s;" pathLength="3333" clip-path="url(#z35712c3)" d="M180 448L383 417"/>
<path style="--d:4s;" pathLength="3333" clip-path="url(#z35712c4)" d="M194 555L386 522"/>
<path style="--d:5s;" pathLength="3333" clip-path="url(#z35712c5)" d="M134 673L166 697L206 867"/>
<path style="--d:6s;" pathLength="3333" clip-path="url(#z35712c6)" d="M182 684L305 647L339 656L357 675L328 778"/>
<path style="--d:7s;" pathLength="3333" clip-path="url(#z35712c7)" d="M209 807L374 787"/>
<path style="--d:8s;" pathLength="3333" clip-path="url(#z35712c8)" d="M470 174L813 122"/>
<path style="--d:9s;" pathLength="3333" clip-path="url(#z35712c9)" d="M603 53L651 100L633 242"/>
<path style="--d:10s;" pathLength="3333" clip-path="url(#z35712c10)" d="M512 262L769 240"/>
<path style="--d:11s;" pathLength="3333" clip-path="url(#z35712c11)" d="M420 335L449 355L497 510"/>
<path style="--d:12s;" pathLength="3333" clip-path="url(#z35712c12)" d="M463 342L824 298L861 338L800 484"/>
<path style="--d:13s;" pathLength="3333" clip-path="url(#z35712c13)" d="M581 346L595 378L528 456"/>
<path style="--d:14s;" pathLength="3333" clip-path="url(#z35712c14)" d="M673 335L693 408L780 408"/>
<path style="--d:15s;" pathLength="3333" clip-path="url(#z35712c15)" d="M503 495L794 452"/>
<path style="--d:16s;" pathLength="3333" clip-path="url(#z35712c16)" d="M494 555L521 589L523 808"/>
<path style="--d:17s;" pathLength="3333" clip-path="url(#z35712c17)" d="M526 560L724 526L766 543L783 572L765 798"/>
<path style="--d:18s;" pathLength="3333" clip-path="url(#z35712c18)" d="M542 636L698 611"/>
<path style="--d:19s;" pathLength="3333" clip-path="url(#z35712c19)" d="M542 704L705 684"/>
<path style="--d:20s;" pathLength="3333" clip-path="url(#z35712c20)" d="M545 776L742 757"/>
<path style="--d:21s;" pathLength="3333" clip-path="url(#z35712c21)" d="M549 820L560 861L396 964"/>
<path style="--d:22s;" pathLength="3333" clip-path="url(#z35712c22)" d="M693 819L793 892L830 964"/>
</svg>