<!--
AnimCJK 2016-2025 Copyright FM-SH - https://github.com/parsimonhi/animCJK
Derived from:
    MakeMeAHanzi project - https://github.com/skishore/makemeahanzi
    Arphic PL KaitiM GB font
    Arphic PL KaitiM Big5 font
You can redistribute and/or modify this file under the terms of the Arphic Public License
as published by Arphic Technology Co., Ltd.
You should have received a copy of this license along with this file.
If not, see https://ftp.gnu.org/non-gnu/chinese-fonts-truetype/LICENSE.
-->
<svg id="z36275" class="acjk" viewBox="0 0 1024 1024" xmlns="http://www.w3.org/2000/svg">
<style>
<![CDATA[
@keyframes zk {
	to {
		stroke-dashoffset:0;
	}
}
svg.acjk path[clip-path] {
	--t:0.8s;
	animation:zk var(--t) linear forwards var(--d);
	stroke-dasharray:3337;
	stroke-dashoffset:3339;
	stroke-width:128;
	stroke-linecap:round;
	fill:none;
	stroke:#000;
}
svg.acjk path[id] {fill:#ccc;}
]]>
</style>
<path id="z36275d1" d="M375 143C359 135 341 132 328 132C317 131 315 131 313 135C309 139 309 144 316 157C339 197 358 255 372 328C376 348 381 367 395 381C415 402 421 388 422 365C422 353 421 342 419 331C413 304 386 191 386 178C384 166 386 148 375 143Z"/>
<path id="z36275d2" d="M643 301C665 235 690 196 713 178C727 166 727 149 716 138C704 126 678 111 642 93C628 85 614 86 598 93C544 112 469 129 375 143C363 145 374 180 386 178C427 171 521 157 578 146C607 140 619 159 616 182C608 224 597 262 587 296C580 313 636 318 643 301Z"/>
<path id="z36275d3" d="M516 350C552 344 598 338 656 334C662 333 667 330 668 325C668 319 659 311 643 301C627 291 605 292 587 296C524 310 468 322 419 331C408 333 411 367 422 365C435 364 457 359 473 357C502 352 502 352 516 350Z"/>
<path id="z36275d4" d="M530 687C532 628 535 574 537 525C538 507 538 507 538 498C542 372 562 393 516 350C506 340 468 344 473 357C496 400 490 532 488 661C488 677 530 703 530 687Z"/>
<path id="z36275d5" d="M537 525C596 518 690 510 716 505C734 500 739 494 733 485C724 473 709 466 691 463C665 458 616 470 538 498C530 501 528 527 537 525Z"/>
<path id="z36275d6" d="M349 558C357 542 366 527 376 514C382 504 380 491 370 483C336 456 309 448 292 452C283 454 282 460 283 472C288 549 256 654 152 778C146 784 132 799 89 846C79 855 85 861 97 858C113 853 133 842 155 824C223 765 275 695 310 630C317 615 325 601 333 587C344 568 344 568 349 558Z"/>
<path id="z36275d7" d="M333 587C428 679 668 854 708 860C728 863 795 862 907 837C929 832 943 825 948 818C952 810 945 806 935 805C876 797 830 792 797 788C700 775 622 743 530 687C502 670 502 670 488 661C439 631 395 596 349 558C340 551 324 580 333 587Z"/>
<defs>
	<clipPath id="z36275c1"><use href="#z36275d1"/></clipPath>
	<clipPath id="z36275c2"><use href="#z36275d2"/></clipPath>
	<clipPath id="z36275c3"><use href="#z36275d3"/></clipPath>
	<clipPath id="z36275c4"><use href="#z36275d4"/></clipPath>
	<clipPath id="z36275c5"><use href="#z36275d5"/></clipPath>
	<clipPath id="z36275c6"><use href="#z36275d6"/></clipPath>
	<clipPath id="z36275c7"><use href="#z36275d7"/></clipPath>
</defs>
<path style="--d:1s;" pathLength="3333" clip-path="url(#z36275c1)" d="M316 141L354 164L407 385"/>
<path style="--d:2s;" pathLength="3333" clip-path="url(#z36275c2)" d="M374 149L612 117L647 136L669 165L600 307"/>
<path style="--d:3s;" pathLength="3333" clip-path="url(#z36275c3)" d="M414 346L663 321"/>
<path style="--d:4s;" pathLength="3333" clip-path="url(#z36275c4)" d="M480 354L514 389L521 686"/>
<path style="--d:5s;" pathLength="3333" clip-path="url(#z36275c5)" d="M536 516L728 490"/>
<path style="--d:6s;" pathLength="3333" clip-path="url(#z36275c6)" d="M290 456L330 511L280 628L194 758L94 852"/>
<path style="--d:7s;" pathLength="3333" clip-path="url(#z36275c7)" d="M346 562L460 669L691 807L942 817"/>
</svg>