<!--
AnimCJK 2016-2026 Copyright FM-SH, https://github.com/parsimonhi/animCJK
You can redistribute and/or modify these files under the terms of the GNU
Lesser General Public License as published by the Free Software Foundation,
either version 3 of the license, or (at your option) any later version. You
should have received a copy of this license (the file "LGPL.txt") along with
these files; if not, see https://www.gnu.org/licenses/.
-->
<svg id="z12572" class="acjk" viewBox="0 0 1024 1024" xmlns="http://www.w3.org/2000/svg">
<style>
<![CDATA[
@keyframes zk {
	to {
		stroke-dashoffset:0;
	}
}
svg.acjk path[clip-path] {
	--t:0.8s;
	animation:zk var(--t) linear forwards var(--d);
	stroke-dasharray:3337;
	stroke-dashoffset:3339;
	stroke-width:128;
	stroke-linecap:round;
	fill:none;
	stroke:#000;
}
svg.acjk path[id] {fill:#ccc;}
]]>
</style>
<path id="z12572d1" d="M556 258C646 245 746 245 914 243C957 242 948 215 930 202C885 168 841 163 793 174C730 188 650 201 559 216C538 219 517 221 496 225C399 239 290 254 164 272C147 274 144 282 157 295C173 311 187 316 209 319C219 320 237 317 261 311C307 299 452 272 497 266C536 261 536 261 556 258Z"/>
<path id="z12572d2" d="M525 110C473 87 461 109 474 130C486 149 494 162 496 225C497 252 497 252 497 266C498 320 491 375 488 412C486 432 483 430 451 439C329 475 266 592 265 660C262 800 362 916 510 920C599 921 736 857 781 773C803 732 806 682 745 729C703 761 618 852 510 850C431 847 317 793 325 660C328 603 377 515 488 478C507 471 539 470 541 443C546 370 552 311 556 258C558 230 558 230 559 216C565 127 587 137 525 110Z"/>
<defs>
	<clipPath id="z12572c1"><use href="#z12572d1"/></clipPath>
	<clipPath id="z12572c2"><use href="#z12572d2"/></clipPath>
</defs>
<path style="--d:1s;" pathLength="3333" clip-path="url(#z12572c1)" d="M157 280L221 291L819 206L941 222"/>
<path style="--d:2s;" pathLength="3333" clip-path="url(#z12572c2)" d="M474 110L529 157L514 426L380 506L323 572L295 655L313 761L402 856L537 883L673 831L786 714"/>
</svg>