<!--
AnimCJK 2016-2026 Copyright FM-SH, https://github.com/parsimonhi/animCJK
You can redistribute and/or modify these files under the terms of the GNU
Lesser General Public License as published by the Free Software Foundation,
either version 3 of the license, or (at your option) any later version. You
should have received a copy of this license (the file "LGPL.txt") along with
these files; if not, see https://www.gnu.org/licenses/.
-->
<svg id="z12573" class="acjk" viewBox="0 0 1024 1024" xmlns="http://www.w3.org/2000/svg">
<style>
<![CDATA[
@keyframes zk {
	to {
		stroke-dashoffset:0;
	}
}
svg.acjk path[clip-path] {
	--t:0.8s;
	animation:zk var(--t) linear forwards var(--d);
	stroke-dasharray:3337;
	stroke-dashoffset:3339;
	stroke-width:128;
	stroke-linecap:round;
	fill:none;
	stroke:#000;
}
svg.acjk path[id] {fill:#ccc;}
]]>
</style>
<path id="z12573d1" d="M805 409C736 370 698 405 593 435C562 444 562 444 546 448C462 471 401 485 349 498C314 507 314 507 296 511C248 522 177 535 126 544C96 548 100 558 111 567C136 587 151 594 200 582C231 573 263 565 294 557C329 548 329 548 347 543C415 524 484 507 543 492C574 484 574 484 590 480C626 470 697 457 762 451C794 447 847 433 805 409Z"/>
<path id="z12573d2" d="M543 492C539 550 531 616 528 660C526 680 530 698 536 713C539 721 546 725 552 720C565 707 575 679 582 599C584 567 588 510 590 480C591 450 591 450 592 435C595 388 608 260 620 225C624 210 625 199 617 191C606 180 591 168 571 159C544 146 503 149 524 184C552 233 551 363 546 448C544 477 544 477 543 492Z"/>
<path id="z12573d3" d="M362 807C476 907 755 867 901 835C955 822 893 763 813 784C734 803 508 830 400 770C338 735 345 570 347 543C348 513 348 513 349 498C350 465 358 349 367 331C372 318 373 306 365 298C355 288 337 278 310 268C266 251 250 267 271 297C298 336 297 465 296 511C295 542 295 542 294 557C290 638 293 746 362 807Z"/>
<defs>
	<clipPath id="z12573c1"><use href="#z12573d1"/></clipPath>
	<clipPath id="z12573c2"><use href="#z12573d2"/></clipPath>
	<clipPath id="z12573c3"><use href="#z12573d3"/></clipPath>
</defs>
<path style="--d:1s;" pathLength="3333" clip-path="url(#z12573c1)" d="M112 557L196 557L699 429L816 422"/>
<path style="--d:2s;" pathLength="3333" clip-path="url(#z12573c2)" d="M525 160L581 220L541 717"/>
<path style="--d:3s;" pathLength="3333" clip-path="url(#z12573c3)" d="M268 272L328 323L321 642L373 782L436 817L562 838L918 817"/>
</svg>