<!--
AnimCJK 2016-2019 Copyright Francois Mizessyn, https://github.com/parsimonhi/animCJK
You can redistribute and/or modify these files under the terms of the GNU
Lesser General Public License as published by the Free Software Foundation,
either version 3 of the license, or (at your option) any later version. You
should have received a copy of this license (the file "LGPL.txt") along with
these files; if not, see <http://www.gnu.org/licenses/>.
-->
<svg id="z12412" class="acjk" version="1.1" viewBox="0 0 1024 1024" xmlns="http://www.w3.org/2000/svg" xmlns:xlink="http://www.w3.org/1999/xlink">
<style>
<![CDATA[
@keyframes zk {
	to {
		stroke-dashoffset:0;
	}
}
svg.acjk path[clip-path] {
	--t:0.8s;
	animation:zk var(--t) linear forwards var(--d);
	stroke-dasharray:3337;
	stroke-dashoffset:3339;
	stroke-width:128;
	stroke-linecap:round;
	fill:none;
	stroke:#000;
}
svg.acjk path[id] {fill:#ccc;}
]]>
</style>
<path id="z12412d1" d="M177 136C169 136 163 145 166 153C169 164 173 175 174 186C180 218 176 251 168 282C148 367 128 453 122 540C117 610 116 681 121 752C126 803 133 856 159 901C166 911 172 923 183 929C191 934 202 932 208 924C215 913 214 899 216 887C218 850 224 814 239 781C249 756 263 733 271 708C271 698 256 694 250 701C235 710 228 728 216 740C207 752 199 766 187 775C180 770 180 760 178 752C171 705 171 657 172 610C174 547 183 485 196 423C208 359 225 296 249 235C253 219 247 202 242 187C233 169 219 154 202 143C194 138 186 136 177 136Z"/>
<path id="z12412d2" d="M732 121C718 122 703 126 691 134C623 168 545 184 470 171C459 170 448 163 437 167C430 170 432 180 437 185C456 205 483 214 509 221C540 228 572 220 602 215C660 203 718 188 775 174C784 172 795 168 797 158C798 148 789 141 782 136C768 127 750 121 732 121Z"/>
<path id="z12412d3" d="M775 363C763 363 752 368 742 374C687 405 625 424 563 435C527 441 490 444 454 439C435 436 417 429 398 427C391 426 385 432 388 439C392 452 405 461 416 469C443 485 475 492 506 489C543 488 581 483 617 473C687 456 757 438 827 421C836 419 847 412 846 401C843 387 829 379 817 373C804 367 789 362 775 363Z"/>
<path id="z12412d4a" d="M631 210C619 210 604 212 598 224C594 235 603 246 611 253C622 262 633 275 633 290C636 364 633 431 634 506C634 576 637 646 638 717C637 741 640 767 627 789C616 808 594 820 574 825C532 834 480 830 457 819C442 811 429 802 429 785C427 771 387 771 387 785C385 820 411 843 441 859C477 879 519 881 559 879C590 877 620 869 648 856C679 840 698 808 700 774C702 751 699 729 698 706C695 617 692 528 694 439C694 386 694 341 698 288C701 274 706 258 698 245C689 227 670 219 652 213C645 211 638 209 631 210Z"/>
<path id="z12412d4b" d="M469 703C438 703 406 719 393 748C389 758 386 774 387 785C387 799 429 799 429 785C427 772 433 758 445 753C460 744 478 748 494 750C535 756 573 772 610 789C677 823 743 857 808 894C821 901 838 907 853 900C863 895 863 882 862 872C859 849 840 833 822 822C795 807 766 795 737 783C688 763 563 703 469 703Z"/>
<path id="z12412d5" d="M819 240C810 241 807 256 815 260C829 271 844 280 856 293C877 315 891 343 909 367C916 375 931 379 939 370C950 358 947 341 945 327C942 305 930 283 910 272C887 258 861 250 835 242C830 241 825 241 819 240Z"/>
<path id="z12412d6" d="M867 152C858 151 855 167 863 171C878 182 895 191 906 206C927 228 941 255 958 280C966 289 982 290 989 279C1000 265 995 246 992 230C987 211 976 192 957 183C933 168 906 160 879 153C875 152 871 152 867 152Z"/>
<defs>
	<clipPath id="z12412c1"><use xlink:href="#z12412d1"/></clipPath>
	<clipPath id="z12412c2"><use xlink:href="#z12412d2"/></clipPath>
	<clipPath id="z12412c3"><use xlink:href="#z12412d3"/></clipPath>
	<clipPath id="z12412c4a"><use xlink:href="#z12412d4a"/></clipPath>
	<clipPath id="z12412c4b"><use xlink:href="#z12412d4b"/></clipPath>
	<clipPath id="z12412c5"><use xlink:href="#z12412d5"/></clipPath>
	<clipPath id="z12412c6"><use xlink:href="#z12412d6"/></clipPath>
</defs>
<path style="--d:1s;" pathLength="3333" clip-path="url(#z12412c1)" d="M 179,146 207,224 138,713 180,871 252,720"/>
<path style="--d:2s;" pathLength="3333" clip-path="url(#z12412c2)" d="M 447,182 522,205 778,158"/>
<path style="--d:3s;" pathLength="3333" clip-path="url(#z12412c3)" d="M 400,442 468,470 835,403"/>
<path style="--d:4s;" pathLength="3333" clip-path="url(#z12412c4a)" d="M 615,219 668,252 654,815 460,859 411,818 407,777 433,742 484,717 604,748 854,884"/>
<path style="--d:4s;" pathLength="3333" clip-path="url(#z12412c4b)" d="M 305,1499 252,1466 266,903 460,859 411,818 407,777 433,742 484,717 604,748 854,884"/>
<path style="--d:5s;" pathLength="3333" clip-path="url(#z12412c5)" d="M 824,254 913,298 929,362"/>
<path style="--d:6s;" pathLength="3333" clip-path="url(#z12412c6)" d="M 873,164 957,210 979,272"/>
</svg>
